<?xml version="1.0" encoding="UTF-8" ?>
<!DOCTYPE svg PUBLIC "-//W3C//DTD SVG 1.1//EN" "http://www.w3.org/Graphics/SVG/1.1/DTD/svg11.dtd">
<svg width="1250pt" height="1250pt" viewBox="0 0 1250 1250" version="1.1" xmlns="http://www.w3.org/2000/svg">
<g id="#000000ff">
<path fill="#000000" opacity="1.00" d=" M 834.92 248.41 C 859.59 247.38 884.27 246.48 908.94 245.50 C 912.27 245.33 916.21 245.61 918.39 248.51 C 920.76 251.59 920.30 255.76 919.22 259.25 C 913.26 279.54 907.31 299.84 901.33 320.12 C 899.42 326.95 893.05 332.17 886.02 332.83 C 883.08 333.18 880.05 332.05 877.93 330.04 C 875.66 327.56 875.70 323.93 876.61 320.89 C 879.41 311.13 882.40 301.42 885.15 291.64 C 751.62 385.36 618.19 479.22 484.67 572.94 C 512.43 591.57 535.39 617.93 547.92 649.10 C 557.60 673.13 561.02 699.42 559.08 725.19 C 709.27 725.18 859.47 725.19 1009.67 725.19 C 999.64 717.92 989.54 710.76 979.45 703.57 C 977.02 701.81 974.16 700.04 973.39 696.93 C 971.92 692.94 974.58 688.78 978.00 686.83 C 983.71 683.44 991.43 683.53 996.96 687.28 C 1017.81 702.08 1038.59 716.98 1059.42 731.82 C 1062.08 733.65 1064.60 736.56 1064.16 740.03 C 1063.96 743.67 1061.19 746.37 1058.38 748.32 C 1041.11 760.73 1023.93 773.27 1006.65 785.66 C 999.91 790.46 989.15 789.87 983.89 783.15 C 980.83 779.09 982.87 773.31 987.00 770.90 C 995.93 764.44 1004.84 757.95 1013.80 751.53 C 751.84 751.55 489.87 751.55 227.91 751.53 C 222.45 751.72 216.85 748.72 214.71 743.57 C 211.79 737.37 214.86 729.87 220.48 726.40 C 436.64 574.48 652.88 422.67 869.02 270.73 C 855.34 271.26 841.65 271.76 827.97 272.33 C 824.93 272.49 821.53 272.04 819.39 269.65 C 816.71 266.92 816.82 262.58 818.23 259.26 C 820.99 252.75 827.86 248.36 834.92 248.41 M 268.06 725.18 C 356.78 725.20 445.50 725.18 534.23 725.19 C 536.36 702.55 533.49 679.28 524.87 658.18 C 512.94 628.68 490.01 604.32 462.61 588.51 C 397.72 634.01 332.88 679.58 268.06 725.18 Z" />
<path fill="#000000" opacity="1.00" d=" M 239.97 808.88 C 243.87 805.94 249.55 805.70 253.60 808.48 C 259.27 812.24 261.56 819.45 261.29 825.99 C 260.98 834.12 259.33 842.36 255.54 849.62 C 253.91 853.50 248.50 852.77 245.31 851.66 C 243.23 849.08 244.48 845.33 244.14 842.27 C 230.77 837.56 229.02 817.02 239.97 808.88 Z" />
<path fill="#000000" opacity="1.00" d=" M 208.40 808.47 C 212.27 807.58 216.17 809.61 220.04 810.05 C 222.32 810.72 226.60 810.52 226.47 813.90 C 223.74 846.53 223.67 879.38 225.48 912.07 C 226.03 922.43 227.26 932.75 228.77 943.02 C 228.87 945.36 226.33 945.87 224.63 946.53 C 220.72 947.75 216.94 949.41 212.94 950.36 C 210.98 950.73 209.53 948.78 209.49 947.01 C 206.79 932.18 205.81 917.10 205.13 902.07 C 204.15 876.00 204.29 849.86 205.84 823.81 C 206.35 818.99 206.13 814.02 207.48 809.33 C 207.71 809.11 208.17 808.69 208.40 808.47 Z" />
<path fill="#000000" opacity="1.00" d=" M 632.77 812.02 C 632.91 809.90 635.28 809.40 636.99 809.48 C 654.33 809.45 671.68 809.50 689.02 809.46 C 690.87 809.35 693.58 809.67 693.78 812.03 C 694.10 817.68 693.82 823.37 693.92 829.04 C 694.01 830.95 693.73 833.84 691.15 833.73 C 684.66 834.06 678.16 833.75 671.67 833.86 C 669.75 866.90 669.12 900.19 672.79 933.14 C 672.87 937.00 674.96 940.99 673.71 944.77 C 668.84 947.40 663.30 948.86 658.00 950.41 C 654.27 950.04 654.91 945.48 654.18 942.82 C 649.12 906.75 649.89 870.13 651.85 833.85 C 646.23 833.73 640.60 834.10 635.00 833.69 C 632.78 833.39 632.56 830.78 632.61 829.01 C 632.72 823.35 632.41 817.67 632.77 812.02 Z" />
<path fill="#000000" opacity="1.00" d=" M 698.13 812.89 C 697.89 810.73 699.90 809.23 701.92 809.49 C 718.63 809.46 735.35 809.44 752.06 809.50 C 754.05 809.27 755.95 810.88 755.72 812.96 C 755.77 818.95 755.87 824.95 755.66 830.93 C 755.80 832.91 753.82 833.99 752.07 833.82 C 742.15 833.92 732.23 833.81 722.32 833.86 C 721.03 845.12 720.21 856.44 719.78 867.77 C 725.21 867.88 730.66 867.55 736.09 867.90 C 738.15 867.95 738.91 870.15 738.80 871.90 C 738.79 877.66 738.95 883.43 738.71 889.19 C 738.75 890.67 737.56 891.98 736.07 892.03 C 730.79 892.38 725.48 892.05 720.20 892.15 C 721.31 903.71 721.42 916.26 727.98 926.33 C 733.95 925.65 738.33 921.21 742.46 917.28 C 744.03 915.54 746.70 916.56 747.62 918.46 C 750.61 922.99 753.92 927.33 756.61 932.04 C 757.15 934.17 755.26 935.59 754.03 937.01 C 747.60 943.65 739.44 949.43 729.95 950.21 C 723.10 950.83 716.46 947.07 712.61 941.54 C 706.29 932.79 704.13 921.91 702.27 911.49 C 698.48 885.89 699.62 859.83 702.29 834.17 C 700.69 833.61 698.09 833.51 698.20 831.19 C 697.94 825.10 698.07 818.99 698.13 812.89 Z" />
<path fill="#000000" opacity="1.00" d=" M 397.18 830.10 C 400.50 821.77 405.97 813.04 415.08 810.37 C 423.65 807.58 433.19 811.53 438.51 818.51 C 446.62 828.88 449.01 842.32 451.03 854.99 C 454.85 884.90 453.28 915.20 450.48 945.13 C 450.24 947.35 450.15 951.05 447.00 950.82 C 442.45 950.21 437.96 949.17 433.47 948.28 C 431.89 948.09 430.52 946.65 430.77 945.02 C 430.93 940.47 431.58 935.97 431.88 931.44 C 424.81 931.46 417.75 931.43 410.69 931.46 C 410.92 936.31 412.00 941.12 411.87 945.98 C 411.57 947.84 409.39 947.97 407.95 948.38 C 403.66 949.18 399.43 950.38 395.09 950.86 C 392.73 950.63 392.41 947.98 392.23 946.12 C 389.77 922.54 388.46 898.78 389.49 875.07 C 390.29 859.88 391.83 844.46 397.18 830.10 M 417.60 835.68 C 413.79 840.85 412.54 847.38 411.42 853.58 C 408.68 871.25 408.69 889.21 409.19 907.05 C 417.20 907.05 425.20 907.05 433.21 907.05 C 433.60 888.72 433.56 870.24 430.47 852.12 C 429.30 846.35 428.01 840.27 424.35 835.52 C 422.74 833.22 419.10 833.32 417.60 835.68 Z" />
<path fill="#000000" opacity="1.00" d=" M 525.43 810.61 C 532.74 808.17 541.26 809.74 547.06 814.86 C 553.79 820.69 557.31 829.31 559.31 837.80 C 560.71 843.77 561.53 849.90 561.49 856.04 C 561.69 858.00 560.09 859.94 558.04 859.69 C 553.46 859.74 548.86 859.93 544.30 859.57 C 542.60 859.38 541.94 857.51 541.93 856.05 C 541.33 849.05 541.00 841.30 536.38 835.61 C 533.96 832.68 529.49 833.78 527.04 836.06 C 522.16 840.42 519.91 846.87 518.11 852.99 C 514.41 866.99 513.80 881.72 515.46 896.07 C 516.65 905.12 518.51 914.52 523.81 922.15 C 525.90 925.48 530.59 927.61 534.03 924.91 C 539.35 920.67 540.52 913.39 541.32 907.04 C 541.36 905.17 543.31 904.30 544.94 904.42 C 549.47 904.43 554.02 904.16 558.53 904.59 C 561.08 904.96 561.05 908.04 560.89 910.02 C 559.98 921.64 556.40 933.65 548.25 942.30 C 541.98 949.02 531.83 952.15 523.02 949.07 C 513.55 945.95 507.37 937.24 503.42 928.53 C 495.82 910.80 494.28 891.06 495.25 871.99 C 496.25 856.95 498.98 841.64 506.17 828.23 C 510.41 820.51 516.76 813.26 525.43 810.61 Z" />
<path fill="#000000" opacity="1.00" d=" M 608.65 813.40 C 608.55 811.57 610.07 809.91 611.95 810.19 C 616.63 810.47 621.31 810.89 625.95 811.55 C 628.13 811.71 628.51 814.25 628.32 816.01 C 626.50 846.95 625.73 877.96 626.32 908.95 C 626.53 920.99 627.27 933.02 628.28 945.02 C 628.23 949.11 622.96 948.33 620.16 949.19 C 616.69 949.32 612.61 951.81 609.53 949.57 C 607.71 944.89 608.32 939.60 607.66 934.68 C 604.48 940.29 600.51 946.17 594.15 948.43 C 588.47 950.60 581.81 948.63 577.80 944.20 C 571.69 937.69 569.84 928.59 568.22 920.12 C 564.97 899.91 565.48 879.33 566.43 858.96 C 567.28 845.62 568.09 832.23 570.39 819.06 C 570.54 816.69 573.28 815.72 575.20 816.76 C 579.69 818.61 584.52 819.83 588.71 822.31 C 588.87 822.72 589.19 823.55 589.35 823.97 C 586.19 848.82 584.89 873.95 585.77 898.99 C 586.38 907.56 586.51 916.45 589.89 924.49 C 595.76 914.62 597.70 903.05 600.08 891.97 C 604.94 866.05 607.53 839.73 608.65 813.40 Z" />
<path fill="#000000" opacity="1.00" d=" M 819.81 821.61 C 824.61 815.15 831.76 809.78 840.08 809.48 C 846.69 809.15 852.86 813.27 855.93 818.99 C 860.36 827.22 860.85 836.98 859.75 846.09 C 857.68 861.99 851.85 877.45 842.57 890.56 C 848.41 892.84 853.84 896.40 857.67 901.43 C 863.90 909.39 866.18 920.36 863.43 930.11 C 861.62 937.31 856.66 943.69 850.00 947.00 C 840.47 951.71 828.80 951.19 819.52 946.13 C 814.14 947.76 808.55 948.68 803.01 949.52 C 800.18 949.31 800.21 946.04 799.96 943.97 C 795.96 903.77 796.32 863.20 799.98 823.00 C 800.26 821.37 800.07 819.46 801.27 818.18 C 802.96 816.73 805.20 817.90 807.11 818.13 C 811.33 819.28 815.95 819.33 819.81 821.61 M 826.47 852.40 C 822.31 862.81 819.26 873.67 817.19 884.68 C 825.53 879.44 830.95 870.78 834.81 861.93 C 838.56 853.04 841.29 843.34 840.13 833.61 C 832.71 837.13 829.63 845.40 826.47 852.40 M 817.71 913.25 C 820.99 918.81 825.66 924.25 832.22 925.80 C 836.42 926.54 841.75 926.31 844.54 922.58 C 845.59 920.17 843.30 917.87 841.61 916.44 C 834.84 911.21 825.65 911.81 817.71 913.25 Z" />
<path fill="#000000" opacity="1.00" d=" M 886.86 814.84 C 892.87 809.32 902.19 807.89 909.55 811.47 C 918.07 815.55 922.95 824.39 925.86 832.99 C 931.40 850.05 932.57 868.15 932.98 885.97 C 933.22 906.72 932.25 927.51 929.81 948.11 C 929.20 952.54 923.74 950.20 920.89 949.81 C 917.53 948.58 912.47 949.63 910.57 946.07 C 910.50 941.17 911.37 936.32 911.65 931.44 C 904.58 931.45 897.52 931.43 890.46 931.46 C 890.69 936.30 891.73 941.11 891.67 945.96 C 891.21 948.01 888.77 948.03 887.14 948.52 C 883.10 949.22 879.14 950.37 875.07 950.86 C 872.51 950.83 872.18 948.01 871.99 946.08 C 869.53 922.47 868.23 898.70 869.26 874.98 C 869.87 862.31 871.19 849.59 874.56 837.33 C 876.88 829.08 880.38 820.71 886.86 814.84 M 895.19 839.26 C 891.82 846.73 890.85 854.97 889.95 863.02 C 888.49 877.65 888.57 892.37 888.94 907.05 C 896.94 907.05 904.96 907.05 912.97 907.05 C 913.35 893.71 913.23 880.35 912.15 867.05 C 911.16 857.46 910.32 847.54 906.16 838.70 C 904.98 836.35 903.09 833.28 900.01 833.88 C 897.50 834.56 896.27 837.13 895.19 839.26 Z" />
<path fill="#000000" opacity="1.00" d=" M 960.04 821.56 C 964.57 815.85 970.62 810.74 978.07 809.72 C 985.03 808.37 992.26 812.16 995.75 818.20 C 1000.65 826.50 1001.17 836.64 1000.06 846.01 C 998.01 861.94 992.17 877.42 982.88 890.55 C 988.60 892.84 993.99 896.27 997.79 901.20 C 1004.58 909.67 1006.73 921.65 1003.19 931.93 C 1000.64 939.92 993.97 946.44 985.90 948.75 C 977.27 951.53 967.70 950.35 959.76 946.13 C 954.62 947.78 949.24 948.52 943.94 949.47 C 941.35 949.99 940.39 947.07 940.39 945.05 C 936.23 904.46 936.60 863.48 940.30 822.88 C 940.52 821.36 940.44 819.66 941.39 818.37 C 943.25 816.48 945.93 818.09 948.15 818.29 C 952.11 819.34 956.42 819.44 960.04 821.56 M 974.38 838.39 C 970.41 843.52 967.85 849.56 965.53 855.58 C 962.03 865.03 959.34 874.79 957.49 884.70 C 965.57 879.61 970.92 871.29 974.76 862.73 C 978.73 853.67 981.52 843.75 980.50 833.77 C 978.02 834.64 975.94 836.30 974.38 838.39 M 958.01 913.26 C 961.51 919.19 966.74 925.13 973.97 926.03 C 977.94 926.41 983.09 925.88 985.17 921.94 C 985.14 918.81 982.42 916.58 979.96 915.11 C 973.31 911.31 965.26 911.95 958.01 913.26 Z" />
<path fill="#000000" opacity="1.00" d=" M 1052.52 811.80 C 1057.32 811.00 1062.19 810.49 1067.06 810.18 C 1069.61 810.02 1070.10 812.85 1070.15 814.81 C 1071.34 836.86 1071.95 858.98 1070.66 881.04 C 1069.81 894.62 1068.28 908.25 1064.57 921.38 C 1061.45 932.28 1056.07 944.34 1044.83 948.82 C 1036.21 952.17 1025.74 949.48 1019.69 942.53 C 1013.06 935.02 1010.99 924.68 1010.53 914.96 C 1010.60 913.15 1010.15 910.96 1011.58 909.57 C 1013.09 908.25 1015.21 909.01 1017.00 909.01 C 1020.91 909.52 1025.11 909.38 1028.69 911.26 C 1030.67 912.06 1030.23 914.41 1030.47 916.13 C 1030.60 918.92 1031.15 921.81 1032.81 924.14 C 1034.47 926.63 1038.55 926.88 1040.47 924.53 C 1044.66 919.62 1046.01 913.07 1047.71 907.02 C 1041.12 910.54 1032.66 911.00 1026.32 906.73 C 1018.75 901.99 1014.90 893.34 1012.79 884.99 C 1008.59 868.35 1008.76 850.98 1009.99 833.98 C 1010.58 827.60 1011.14 821.18 1012.56 814.93 C 1012.74 812.89 1014.95 811.42 1016.85 812.44 C 1020.84 813.91 1024.69 815.78 1028.63 817.43 C 1030.00 818.01 1031.96 819.07 1031.51 820.91 C 1029.38 833.50 1028.76 846.31 1029.15 859.06 C 1029.57 866.78 1029.97 874.76 1033.06 881.96 C 1033.89 883.73 1035.22 886.30 1037.63 885.65 C 1040.12 884.56 1041.44 881.96 1042.62 879.66 C 1046.30 871.58 1047.74 862.73 1048.97 854.01 C 1050.53 841.73 1051.44 829.31 1050.38 816.95 C 1050.18 815.08 1050.13 812.23 1052.52 811.80 Z" />
<path fill="#000000" opacity="1.00" d=" M 264.33 822.92 C 264.53 820.73 264.79 817.02 267.88 817.45 C 272.69 818.30 277.47 819.43 282.21 820.63 C 284.14 821.03 284.37 823.38 284.12 824.99 C 283.57 830.73 283.08 836.48 282.61 842.23 C 288.67 838.26 297.12 837.30 303.04 842.07 C 305.57 835.63 309.07 828.87 315.42 825.48 C 321.57 822.14 329.64 823.54 334.54 828.45 C 340.66 834.42 343.03 843.01 344.71 851.14 C 347.72 866.92 347.56 883.12 346.61 899.10 C 345.57 914.84 343.57 930.54 340.01 945.92 C 339.62 947.44 339.31 949.01 338.54 950.41 C 336.43 952.51 333.71 950.45 331.58 949.55 C 328.04 947.60 324.13 946.30 320.86 943.93 C 320.74 943.48 320.51 942.59 320.40 942.14 C 325.24 921.82 327.25 900.87 327.29 880.00 C 326.91 869.32 327.15 858.15 322.83 848.16 C 319.13 854.85 318.21 862.59 317.10 870.03 C 314.68 887.25 315.79 904.67 315.26 921.99 C 315.05 929.99 315.14 938.03 314.66 946.02 C 314.38 948.23 311.82 948.46 310.05 948.44 C 305.71 948.33 301.34 948.73 297.04 948.16 C 294.79 947.49 295.07 944.82 295.03 943.00 C 295.35 924.81 296.01 906.60 295.45 888.41 C 295.02 879.96 295.02 871.33 292.57 863.16 C 287.66 868.33 286.61 875.78 285.30 882.50 C 282.51 901.32 282.27 920.49 283.78 939.43 C 283.77 941.77 285.22 945.20 282.68 946.69 C 277.84 947.96 272.88 948.86 267.94 949.60 C 265.81 949.95 264.55 947.80 264.56 945.94 C 260.40 905.08 260.38 863.80 264.33 822.92 Z" />
</g>
</svg>
