<?xml version="1.0" encoding="UTF-8" ?>
<!DOCTYPE svg PUBLIC "-//W3C//DTD SVG 1.1//EN" "http://www.w3.org/Graphics/SVG/1.1/DTD/svg11.dtd">
<svg width="4000pt" height="4000pt" viewBox="0 0 4000 4000" version="1.1" xmlns="http://www.w3.org/2000/svg">
<g id="#000000ff">
<path fill="#000000" opacity="1.00" d=" M 1679.49 736.54 C 1683.00 736.71 1686.49 736.26 1689.96 735.68 C 1694.92 735.22 1699.93 735.44 1704.90 735.74 C 1711.78 737.55 1719.03 737.14 1725.96 738.80 C 1727.39 739.52 1728.98 739.38 1730.57 739.53 L 1730.52 740.59 C 1731.28 740.50 1732.79 740.33 1733.55 740.24 L 1733.53 741.48 C 1734.85 741.43 1736.19 741.38 1737.56 741.34 L 1737.56 742.33 C 1739.20 742.70 1740.83 743.13 1742.50 743.55 L 1742.59 744.61 C 1743.07 744.52 1744.04 744.33 1744.53 744.24 L 1744.55 745.67 C 1745.05 745.56 1746.04 745.33 1746.53 745.22 L 1746.54 746.66 C 1746.91 746.61 1747.66 746.52 1748.03 746.48 C 1753.02 749.42 1759.24 750.41 1763.14 755.04 C 1767.12 757.10 1770.87 759.80 1774.07 762.98 C 1779.54 766.76 1783.76 771.97 1788.53 776.55 C 1794.16 782.10 1798.21 788.94 1803.08 795.11 C 1805.88 800.00 1808.89 804.80 1811.32 809.90 C 1814.66 816.83 1818.52 823.54 1820.96 830.87 C 1821.26 831.79 1821.57 832.72 1821.90 833.66 C 1822.38 834.96 1822.84 836.27 1823.37 837.59 C 1823.90 839.66 1824.45 841.72 1825.02 843.81 C 1826.37 847.68 1827.28 851.68 1828.31 855.66 C 1828.61 857.00 1828.94 858.35 1829.34 859.71 C 1830.09 863.38 1830.51 867.13 1831.52 870.76 C 1831.64 873.16 1831.72 875.57 1831.80 877.99 C 1832.31 878.93 1832.83 879.89 1833.38 880.85 C 1833.52 885.21 1833.48 889.59 1833.77 893.95 C 1835.00 896.80 1834.40 899.98 1834.53 903.00 C 1834.64 911.34 1834.64 919.68 1834.42 928.02 C 1834.28 930.66 1834.68 933.44 1833.66 935.96 C 1833.45 938.44 1833.42 940.95 1833.45 943.45 L 1832.46 943.49 C 1832.46 945.48 1832.48 947.50 1832.52 949.51 L 1831.58 949.45 C 1831.52 953.84 1829.98 958.08 1830.45 962.51 L 1829.60 962.44 C 1829.44 966.41 1828.19 970.21 1827.13 974.02 C 1826.43 975.75 1826.38 977.63 1826.35 979.49 L 1825.35 979.50 C 1825.41 980.24 1825.54 981.71 1825.60 982.45 L 1824.45 982.52 C 1824.42 984.14 1824.44 985.79 1824.46 987.43 L 1823.57 987.52 C 1822.91 992.09 1820.90 996.32 1820.21 1000.88 C 1820.09 1001.75 1819.64 1002.42 1818.84 1002.89 C 1817.94 1006.52 1816.14 1009.84 1815.31 1013.49 L 1814.73 1013.56 C 1813.91 1015.86 1813.13 1018.18 1812.32 1020.49 L 1811.80 1020.57 C 1811.00 1022.86 1810.12 1025.12 1809.17 1027.35 L 1808.81 1027.61 C 1807.67 1030.58 1805.97 1033.32 1805.22 1036.43 L 1804.81 1036.57 C 1803.26 1039.79 1801.31 1042.80 1799.90 1046.09 C 1795.54 1053.20 1791.26 1060.39 1785.95 1066.85 C 1785.33 1067.92 1784.72 1068.99 1784.13 1070.08 C 1774.22 1082.45 1763.95 1094.88 1750.81 1104.00 C 1740.25 1112.74 1728.03 1119.25 1715.37 1124.38 C 1714.23 1124.63 1713.14 1124.92 1712.05 1125.23 C 1710.78 1125.62 1709.53 1126.02 1708.30 1126.42 C 1705.96 1127.05 1703.64 1127.73 1701.35 1128.43 C 1698.42 1129.39 1695.36 1129.76 1692.37 1130.41 C 1689.49 1131.17 1686.54 1131.55 1683.58 1131.65 L 1683.48 1132.51 C 1673.01 1132.48 1662.52 1133.06 1652.07 1132.32 C 1649.50 1131.44 1646.73 1131.55 1644.15 1130.83 C 1642.43 1130.63 1640.71 1130.47 1639.03 1130.28 C 1637.28 1129.44 1635.29 1129.53 1633.45 1129.47 L 1633.48 1128.47 C 1632.87 1128.46 1631.64 1128.44 1631.03 1128.43 C 1629.90 1127.84 1628.71 1127.49 1627.46 1127.37 L 1627.50 1126.45 C 1626.13 1126.49 1624.78 1126.55 1623.45 1126.63 L 1623.47 1125.75 C 1622.24 1125.49 1621.08 1125.11 1619.97 1124.62 C 1619.61 1124.62 1618.89 1124.63 1618.53 1124.64 L 1618.44 1123.40 C 1617.70 1123.48 1616.21 1123.64 1615.47 1123.71 L 1615.46 1122.45 C 1614.74 1122.50 1613.29 1122.59 1612.57 1122.64 L 1612.47 1121.37 C 1612.00 1121.44 1611.06 1121.59 1610.59 1121.66 L 1610.46 1120.36 C 1609.98 1120.44 1609.03 1120.60 1608.55 1120.68 L 1608.44 1119.34 C 1607.96 1119.44 1607.02 1119.64 1606.54 1119.73 L 1606.43 1118.39 C 1605.97 1118.46 1605.04 1118.62 1604.58 1118.69 L 1604.42 1117.40 C 1603.96 1117.46 1603.03 1117.58 1602.57 1117.64 L 1602.43 1116.35 C 1601.95 1116.44 1600.98 1116.64 1600.49 1116.74 L 1600.41 1115.82 C 1598.89 1115.26 1597.42 1114.63 1596.00 1113.94 C 1592.03 1112.07 1588.47 1109.53 1584.92 1107.00 C 1574.72 1099.98 1565.03 1092.11 1556.67 1082.94 C 1556.54 1082.48 1556.30 1081.58 1556.18 1081.12 C 1552.41 1079.12 1550.83 1074.87 1547.98 1071.91 C 1543.44 1067.12 1540.83 1060.99 1537.13 1055.61 C 1533.84 1050.71 1531.11 1045.46 1528.74 1040.06 C 1527.67 1037.03 1526.49 1034.05 1525.24 1031.11 C 1524.36 1028.77 1523.56 1026.43 1522.73 1024.10 C 1522.00 1021.84 1521.32 1019.58 1520.70 1017.32 C 1520.07 1014.99 1519.32 1012.69 1518.58 1010.42 C 1517.87 1007.72 1517.23 1005.01 1516.64 1002.30 C 1515.71 999.28 1515.35 996.14 1515.13 993.01 C 1513.59 983.42 1513.24 973.69 1513.45 963.98 C 1512.79 956.51 1513.73 949.05 1513.54 941.58 L 1514.50 941.47 C 1514.48 938.47 1514.55 935.48 1514.55 932.50 L 1515.58 932.53 C 1515.51 930.85 1515.51 929.20 1515.49 927.54 L 1516.36 927.50 C 1516.62 922.76 1518.33 918.25 1518.64 913.52 L 1519.53 913.47 C 1519.46 912.14 1519.42 910.81 1519.39 909.50 L 1520.29 909.46 C 1520.43 907.89 1520.54 906.28 1521.32 904.89 C 1521.33 904.54 1521.35 903.83 1521.35 903.48 L 1522.27 903.39 C 1522.58 900.73 1523.10 898.11 1523.63 895.50 L 1524.27 895.45 C 1524.53 893.11 1525.01 890.80 1525.57 888.52 L 1526.26 888.42 C 1526.61 886.43 1527.08 884.48 1527.54 882.52 L 1528.47 882.40 C 1528.51 881.78 1528.61 880.53 1528.65 879.90 C 1529.63 877.98 1530.39 875.95 1530.84 873.84 C 1531.48 872.17 1532.16 870.51 1532.83 868.84 C 1534.31 865.41 1536.02 862.09 1537.77 858.79 C 1539.21 855.60 1540.76 852.47 1542.16 849.27 C 1542.79 848.17 1543.43 847.08 1544.11 846.00 C 1545.39 843.64 1546.59 841.23 1547.78 838.82 C 1551.26 832.73 1555.31 826.99 1558.90 820.97 C 1562.50 816.82 1565.21 812.02 1568.54 807.67 C 1574.01 801.24 1579.43 794.77 1585.16 788.57 C 1588.00 784.59 1592.29 782.11 1595.87 778.88 C 1605.77 768.98 1617.77 761.51 1629.66 754.26 C 1631.55 752.90 1633.59 751.75 1635.82 750.99 C 1637.52 750.26 1639.22 749.50 1640.94 748.77 C 1644.12 747.65 1647.16 746.16 1650.40 745.20 L 1650.62 744.42 C 1651.33 744.46 1652.74 744.55 1653.45 744.60 L 1653.61 743.74 C 1655.08 743.24 1656.57 742.73 1658.07 742.26 C 1659.05 741.88 1660.06 741.52 1661.08 741.18 C 1663.45 740.64 1665.80 739.97 1668.12 739.19 C 1671.90 738.53 1675.66 737.73 1679.48 737.29 L 1679.49 736.54 Z" />
<path fill="#000000" opacity="1.00" d=" M 1333.83 741.68 C 1339.17 740.22 1344.69 739.42 1349.99 737.71 C 1357.30 737.13 1364.65 737.37 1371.97 737.76 C 1374.58 738.55 1377.41 738.27 1379.98 739.31 C 1380.97 739.44 1381.98 739.58 1383.02 739.72 C 1387.01 742.33 1391.75 743.21 1396.10 745.03 C 1402.31 748.26 1408.77 751.18 1414.25 755.63 C 1420.23 760.91 1426.37 766.01 1431.82 771.86 C 1438.24 777.70 1442.51 785.32 1447.56 792.27 C 1454.84 803.25 1459.97 815.49 1464.29 827.89 C 1464.96 829.83 1465.62 831.77 1466.31 833.73 C 1467.15 837.52 1467.95 841.33 1469.20 845.01 C 1469.96 849.56 1470.58 854.13 1471.39 858.68 C 1471.73 862.80 1472.20 866.93 1473.27 870.94 C 1473.78 883.63 1473.84 896.34 1473.64 909.03 C 1473.06 914.01 1472.63 919.01 1471.83 923.96 C 1470.98 929.14 1469.58 934.19 1468.30 939.28 C 1467.52 941.94 1466.85 944.63 1466.35 947.37 C 1465.12 951.30 1463.66 955.16 1462.21 959.02 C 1458.08 967.74 1454.24 976.66 1448.41 984.42 C 1442.38 991.97 1436.49 999.91 1428.19 1005.15 C 1419.59 1012.31 1409.58 1017.51 1399.11 1021.35 C 1397.46 1021.89 1395.85 1022.47 1394.24 1023.05 C 1392.56 1023.37 1390.86 1023.66 1389.21 1024.02 C 1385.50 1024.84 1381.69 1025.20 1378.04 1026.28 C 1369.56 1026.50 1360.93 1027.35 1352.61 1025.29 C 1346.87 1024.71 1341.20 1024.05 1335.66 1022.37 C 1331.71 1020.91 1327.72 1019.57 1323.82 1018.02 C 1321.48 1017.15 1319.17 1016.24 1316.89 1015.28 C 1310.14 1011.39 1303.38 1007.41 1297.68 1002.04 C 1288.05 995.51 1280.68 986.30 1273.94 976.95 C 1264.26 963.87 1258.33 948.45 1253.89 932.92 C 1252.66 928.87 1252.34 924.63 1251.35 920.54 C 1250.01 915.39 1250.85 909.99 1249.82 904.80 C 1249.16 897.23 1249.37 889.61 1249.46 882.03 C 1249.03 869.76 1250.98 857.52 1253.66 845.57 C 1253.99 844.25 1254.34 842.94 1254.68 841.64 C 1255.14 840.02 1255.62 838.42 1256.11 836.82 C 1256.42 834.10 1257.08 831.44 1258.01 828.87 C 1258.55 826.86 1259.10 824.86 1259.67 822.86 C 1265.40 810.20 1269.95 796.78 1278.73 785.78 C 1284.03 777.92 1289.75 770.17 1297.18 764.15 C 1307.93 754.62 1319.92 745.90 1333.83 741.68 Z" />
<path fill="#000000" opacity="1.00" d=" M 1077.75 783.74 C 1085.80 780.70 1094.52 780.34 1103.00 779.62 C 1106.44 780.70 1110.15 780.37 1113.64 781.36 C 1114.42 781.48 1115.23 781.61 1116.05 781.75 C 1118.36 782.55 1120.71 783.28 1123.11 783.82 C 1133.57 786.51 1142.67 792.48 1151.40 798.61 C 1167.78 809.81 1179.94 826.11 1189.27 843.41 C 1193.02 849.89 1195.36 857.04 1198.22 863.93 C 1199.28 868.30 1200.71 872.57 1201.99 876.88 C 1205.32 888.23 1206.66 900.01 1208.47 911.67 C 1208.73 918.45 1208.72 925.24 1208.70 932.03 C 1208.71 936.75 1207.38 941.34 1207.42 946.07 C 1206.92 955.71 1203.39 964.76 1201.15 974.05 C 1197.86 982.60 1193.07 990.45 1188.26 998.21 C 1179.56 1009.99 1167.97 1019.34 1155.40 1026.72 C 1146.14 1031.06 1136.28 1034.13 1126.14 1035.48 C 1110.75 1036.11 1094.74 1036.71 1080.19 1030.83 C 1062.72 1024.40 1047.47 1012.68 1035.67 998.37 C 1025.85 984.92 1017.83 969.90 1013.84 953.65 C 1012.05 947.21 1010.86 940.64 1009.49 934.11 C 1008.39 929.11 1008.65 923.96 1007.62 918.96 C 1007.02 907.25 1007.23 895.48 1008.78 883.85 C 1009.39 872.86 1012.65 862.32 1015.56 851.77 C 1017.43 846.43 1019.28 841.04 1022.26 836.19 C 1025.38 829.55 1028.66 822.88 1033.37 817.20 C 1039.97 809.20 1046.80 801.22 1055.19 795.03 C 1061.84 789.72 1070.12 787.25 1077.75 783.74 Z" />
<path fill="#000000" opacity="1.00" d=" M 869.09 893.31 C 879.25 891.55 889.77 892.81 899.90 894.42 C 908.87 897.17 917.53 900.94 925.82 905.35 C 954.87 922.98 973.65 953.74 982.74 985.89 C 985.99 993.91 986.73 1002.58 988.26 1011.02 C 988.61 1023.04 989.63 1035.21 987.44 1047.11 C 984.51 1066.64 975.17 1085.30 960.54 1098.67 C 951.41 1108.35 939.25 1114.50 926.93 1119.11 C 925.51 1119.27 924.11 1119.46 922.72 1119.66 C 919.24 1120.79 915.74 1122.05 912.08 1122.40 C 899.54 1122.97 886.52 1123.34 874.73 1118.33 C 863.86 1115.49 854.46 1109.05 845.54 1102.47 C 830.76 1089.49 819.43 1072.61 813.19 1053.93 C 808.84 1042.66 805.78 1030.89 804.00 1018.95 C 803.15 1013.99 803.88 1008.92 802.87 1003.99 C 801.51 993.24 803.86 982.59 804.72 971.91 C 806.56 961.36 809.54 950.93 814.06 941.20 C 821.45 927.32 830.28 913.17 844.18 905.02 C 848.64 901.92 853.22 898.93 858.29 896.92 C 861.85 895.60 865.61 894.88 869.09 893.31 Z" />
<path fill="#000000" opacity="1.00" d=" M 685.87 1046.74 C 695.34 1044.27 705.19 1043.29 714.96 1043.72 C 725.71 1046.38 736.69 1049.08 746.18 1055.03 C 754.83 1059.09 761.78 1065.81 768.49 1072.46 C 775.00 1078.50 780.37 1085.70 784.65 1093.46 C 790.76 1102.63 795.20 1112.74 799.62 1122.79 C 807.03 1145.23 809.65 1170.04 802.58 1192.91 C 801.33 1198.30 798.40 1203.03 795.85 1207.87 C 787.47 1223.52 773.52 1236.05 757.17 1242.86 C 748.04 1247.12 738.02 1249.02 728.02 1249.50 C 715.08 1249.37 702.22 1246.13 690.79 1240.06 C 683.52 1236.93 677.56 1231.63 672.01 1226.14 C 658.09 1213.49 650.35 1195.84 643.30 1178.80 C 640.85 1171.35 638.86 1163.73 637.85 1155.94 C 637.07 1151.97 636.53 1147.98 635.84 1144.01 C 635.28 1132.29 635.47 1120.48 637.93 1108.97 C 639.14 1099.56 643.26 1090.95 647.24 1082.46 C 651.86 1073.51 657.60 1064.84 665.89 1058.88 C 671.59 1053.37 678.66 1049.79 685.87 1046.74 Z" />
<path fill="#000000" opacity="1.00" d=" M 1236.17 1068.13 C 1241.07 1067.00 1246.13 1067.98 1251.05 1067.01 C 1255.97 1066.07 1261.00 1066.68 1265.98 1066.56 C 1272.31 1066.66 1278.66 1066.47 1285.00 1066.69 C 1287.19 1067.70 1289.64 1067.37 1292.00 1067.41 C 1296.99 1067.41 1301.99 1067.38 1306.97 1067.78 C 1311.19 1069.27 1315.84 1067.60 1320.02 1069.28 C 1326.37 1069.40 1332.73 1070.03 1338.96 1071.24 C 1340.96 1071.41 1342.98 1071.55 1345.01 1071.75 C 1347.60 1072.56 1350.39 1072.39 1353.00 1073.19 C 1356.37 1073.55 1359.74 1074.01 1363.05 1074.83 C 1364.97 1075.39 1366.96 1075.58 1368.96 1075.85 C 1370.94 1076.37 1372.97 1076.58 1375.02 1076.81 C 1378.29 1077.68 1381.63 1078.33 1384.92 1079.21 C 1387.91 1079.93 1390.93 1080.57 1393.95 1081.24 C 1394.47 1081.37 1395.51 1081.62 1396.03 1081.74 C 1397.65 1082.24 1399.27 1082.71 1400.92 1083.23 C 1403.29 1083.79 1405.66 1084.39 1408.09 1084.78 C 1409.08 1085.10 1410.10 1085.42 1411.13 1085.75 C 1412.37 1086.27 1413.65 1086.77 1414.93 1087.32 C 1415.96 1087.42 1417.01 1087.54 1418.08 1087.67 C 1420.38 1088.61 1422.75 1089.37 1425.16 1090.04 C 1436.09 1092.97 1446.66 1097.04 1457.21 1101.11 C 1462.91 1102.92 1468.57 1104.90 1474.13 1107.16 C 1474.66 1107.28 1475.74 1107.52 1476.28 1107.65 C 1478.90 1108.77 1481.57 1109.83 1484.30 1110.77 C 1484.98 1111.03 1486.36 1111.54 1487.05 1111.80 C 1489.35 1112.87 1491.69 1113.88 1494.06 1114.83 C 1513.97 1123.14 1533.22 1132.93 1551.91 1143.70 C 1576.91 1157.53 1600.25 1174.08 1623.18 1191.06 C 1630.85 1197.27 1637.99 1204.09 1645.42 1210.58 C 1658.64 1223.17 1670.54 1237.03 1681.99 1251.23 C 1698.92 1272.00 1712.51 1295.61 1720.89 1321.12 C 1722.15 1324.31 1723.24 1327.59 1724.16 1330.92 C 1726.84 1339.69 1728.93 1348.65 1730.28 1357.73 C 1732.03 1370.08 1733.61 1382.49 1733.74 1394.97 C 1734.17 1401.61 1732.36 1408.24 1733.51 1414.87 C 1734.25 1412.09 1732.93 1408.49 1734.68 1406.22 C 1734.55 1416.36 1733.97 1426.64 1734.96 1436.74 C 1734.34 1436.29 1733.79 1435.77 1733.26 1435.35 C 1733.55 1441.55 1733.92 1447.79 1732.99 1453.98 C 1731.47 1473.44 1728.61 1492.76 1725.44 1512.01 C 1720.71 1539.81 1712.87 1566.94 1704.99 1593.97 C 1695.52 1624.84 1684.25 1655.12 1671.39 1684.74 C 1663.58 1702.92 1655.70 1721.07 1646.80 1738.75 C 1635.26 1761.90 1624.67 1785.55 1615.70 1809.81 C 1606.29 1835.35 1599.01 1861.63 1592.94 1888.14 C 1586.64 1917.34 1583.49 1947.19 1583.63 1977.05 C 1583.29 2007.68 1587.12 2038.30 1594.50 2068.03 C 1599.79 2088.25 1605.58 2108.39 1613.40 2127.81 C 1622.44 2150.81 1633.47 2173.01 1645.71 2194.48 C 1668.74 2236.47 1696.48 2275.62 1724.40 2314.45 C 1734.08 2329.03 1744.59 2343.05 1754.19 2357.69 C 1767.14 2377.44 1781.06 2396.54 1793.86 2416.39 C 1796.71 2421.39 1800.39 2426.10 1801.85 2431.76 C 1801.91 2431.34 1802.03 2430.49 1802.09 2430.06 C 1805.83 2439.58 1811.43 2448.24 1815.18 2457.78 C 1816.38 2460.83 1817.79 2463.81 1819.15 2466.83 C 1819.81 2468.50 1820.50 2470.18 1821.23 2471.87 C 1821.37 2472.41 1821.64 2473.48 1821.78 2474.02 C 1822.98 2476.93 1823.98 2479.94 1824.86 2482.99 C 1825.96 2486.02 1826.93 2489.12 1827.70 2492.28 C 1828.18 2494.08 1828.67 2495.93 1829.22 2497.79 C 1830.60 2502.54 1831.67 2507.39 1833.06 2512.16 C 1833.35 2513.77 1833.67 2515.47 1834.04 2517.14 C 1834.59 2519.84 1835.18 2522.53 1835.76 2525.26 C 1837.39 2534.94 1839.01 2544.65 1839.54 2554.48 C 1841.06 2565.90 1840.25 2577.46 1840.48 2588.96 C 1840.17 2593.94 1841.11 2599.10 1839.73 2603.98 C 1839.23 2608.50 1839.78 2613.13 1838.62 2617.60 C 1838.06 2623.69 1837.22 2629.78 1836.04 2635.80 C 1835.30 2639.11 1834.74 2642.49 1834.06 2645.84 C 1832.83 2649.13 1832.11 2652.58 1831.17 2655.97 C 1829.44 2662.55 1827.17 2668.97 1825.14 2675.47 C 1823.06 2680.17 1821.80 2685.18 1819.81 2689.93 C 1816.96 2698.88 1812.11 2706.97 1808.01 2715.38 C 1802.90 2725.10 1797.60 2734.74 1791.79 2744.07 C 1781.91 2758.24 1771.12 2771.76 1759.45 2784.49 C 1744.71 2799.56 1728.46 2813.06 1711.59 2825.68 C 1697.10 2836.42 1681.06 2844.80 1664.86 2852.60 C 1649.18 2859.83 1633.01 2866.03 1616.27 2870.33 C 1615.26 2870.50 1614.28 2870.72 1613.32 2870.98 C 1611.31 2871.44 1609.29 2871.85 1607.31 2872.34 C 1605.96 2872.65 1604.62 2872.98 1603.32 2873.39 C 1601.30 2873.58 1599.32 2873.91 1597.36 2874.35 C 1591.16 2876.13 1584.65 2876.12 1578.36 2877.39 C 1575.95 2877.48 1573.56 2877.74 1571.26 2878.42 C 1565.14 2878.35 1559.11 2879.62 1553.00 2879.50 C 1544.66 2879.54 1536.31 2879.63 1527.99 2879.25 C 1524.75 2878.09 1521.25 2878.77 1517.92 2878.30 C 1514.82 2877.82 1511.72 2877.46 1508.63 2877.10 C 1511.40 2876.70 1514.20 2876.54 1517.02 2876.41 C 1512.58 2876.32 1508.07 2877.19 1503.71 2876.10 C 1495.64 2875.13 1487.55 2874.07 1479.61 2872.32 C 1477.99 2871.94 1476.38 2871.59 1474.79 2871.31 C 1473.42 2870.91 1472.08 2870.58 1470.76 2870.28 C 1469.37 2869.88 1468.03 2869.55 1466.69 2869.26 C 1460.60 2867.85 1454.65 2865.94 1448.64 2864.29 C 1447.63 2863.92 1446.63 2863.60 1445.66 2863.33 C 1442.26 2862.44 1438.94 2861.35 1435.74 2859.97 C 1433.39 2859.05 1431.04 2858.15 1428.69 2857.30 C 1425.10 2855.67 1421.41 2854.30 1417.61 2853.34 C 1415.03 2852.13 1412.41 2851.08 1409.71 2850.28 C 1407.48 2849.51 1405.28 2848.72 1403.12 2847.86 C 1384.96 2840.20 1367.68 2830.63 1350.69 2820.69 C 1332.15 2809.10 1313.25 2797.78 1296.93 2783.10 C 1291.40 2778.72 1286.72 2773.41 1281.21 2769.03 C 1274.51 2762.92 1267.62 2756.99 1261.60 2750.18 C 1254.14 2741.67 1246.41 2733.36 1239.82 2724.14 C 1237.79 2721.27 1235.10 2718.80 1233.98 2715.41 C 1232.98 2715.96 1231.93 2716.40 1230.97 2717.04 C 1224.02 2708.02 1216.64 2699.35 1209.43 2690.54 C 1199.45 2677.54 1189.84 2664.26 1179.83 2651.29 C 1168.83 2636.38 1156.83 2622.25 1145.69 2607.45 C 1138.14 2597.61 1130.45 2587.88 1123.05 2577.93 C 1111.45 2561.60 1099.27 2545.70 1087.69 2529.35 C 1077.68 2515.09 1067.37 2501.03 1057.22 2486.87 C 1045.20 2469.83 1033.38 2452.66 1021.68 2435.40 C 1008.97 2417.59 997.15 2399.18 985.06 2380.96 C 959.90 2341.17 935.00 2301.20 911.34 2260.50 C 883.87 2211.04 857.34 2161.01 833.79 2109.55 C 818.00 2075.68 802.89 2041.47 789.84 2006.45 C 774.17 1966.06 760.00 1925.09 747.68 1883.55 C 736.30 1844.45 725.83 1805.03 718.17 1765.01 C 713.27 1740.14 709.27 1715.10 706.09 1689.95 C 703.64 1668.00 700.96 1646.05 700.15 1623.98 C 699.18 1616.75 699.46 1609.45 699.29 1602.19 C 698.14 1590.11 698.92 1577.97 698.72 1565.86 L 699.26 1565.09 C 699.09 1554.32 700.02 1543.61 700.91 1532.90 C 704.67 1486.43 713.90 1440.14 730.85 1396.61 C 734.87 1385.13 740.38 1374.26 744.83 1362.97 C 749.69 1350.62 755.34 1338.60 761.77 1326.99 C 764.04 1322.06 767.44 1317.78 769.80 1312.91 C 774.80 1305.70 780.18 1298.78 785.45 1291.77 C 792.67 1282.34 801.07 1273.94 809.17 1265.28 C 814.15 1259.22 820.47 1254.52 826.36 1249.41 C 832.92 1243.26 840.17 1237.91 846.92 1231.97 C 854.37 1225.46 862.20 1219.37 870.76 1214.38 C 888.37 1204.15 904.43 1191.45 922.39 1181.82 C 932.04 1176.60 941.01 1170.18 951.00 1165.61 C 957.40 1162.18 963.42 1158.06 969.94 1154.84 C 980.68 1149.03 991.77 1143.89 1002.38 1137.83 C 1009.14 1133.92 1016.74 1131.84 1023.64 1128.21 C 1035.01 1123.17 1045.93 1117.13 1057.70 1112.99 C 1061.16 1111.60 1064.64 1110.25 1068.05 1108.72 C 1073.99 1106.28 1080.09 1104.28 1086.02 1101.83 C 1088.43 1100.99 1090.80 1100.07 1093.18 1099.15 C 1095.96 1098.43 1098.77 1097.75 1101.50 1096.81 C 1106.63 1095.05 1111.82 1093.42 1116.93 1091.56 C 1119.76 1090.59 1122.64 1089.75 1125.57 1089.12 C 1129.72 1087.52 1134.05 1086.46 1138.41 1085.59 C 1141.06 1084.79 1143.74 1084.11 1146.47 1083.61 C 1147.91 1083.28 1149.35 1082.93 1150.81 1082.60 C 1152.10 1082.26 1153.43 1081.94 1154.76 1081.63 C 1155.87 1081.29 1157.00 1080.96 1158.15 1080.65 C 1167.05 1079.20 1175.39 1074.92 1184.55 1075.07 C 1186.99 1072.91 1190.40 1073.56 1193.42 1073.42 L 1193.52 1072.52 C 1198.13 1072.45 1202.74 1072.21 1207.36 1072.19 C 1207.35 1071.79 1207.34 1071.00 1207.33 1070.61 C 1212.59 1070.47 1217.74 1069.14 1223.02 1069.23 C 1227.25 1067.72 1231.83 1069.07 1236.17 1068.13 Z" />
<path fill="#000000" opacity="1.00" d=" M 2305.59 1339.58 C 2312.12 1340.16 2318.48 1338.15 2325.01 1338.52 C 2329.45 1338.54 2333.90 1338.76 2338.36 1338.75 C 2338.31 1339.28 2338.30 1339.84 2338.32 1340.41 C 2341.39 1340.34 2344.48 1340.70 2347.45 1341.60 L 2347.53 1342.46 C 2349.01 1342.51 2350.51 1342.56 2352.05 1342.65 C 2354.03 1343.38 2356.05 1344.10 2358.11 1344.74 C 2359.67 1345.22 2361.28 1345.71 2362.90 1346.25 C 2364.38 1346.72 2365.87 1347.23 2367.41 1347.73 L 2367.57 1348.73 C 2368.03 1348.62 2368.96 1348.39 2369.42 1348.27 L 2369.58 1349.29 C 2370.67 1349.52 2371.79 1349.78 2372.94 1350.05 C 2375.21 1351.15 2377.50 1352.23 2379.86 1353.22 C 2389.87 1356.97 2398.51 1363.41 2407.25 1369.43 C 2414.85 1375.19 2422.84 1380.76 2428.72 1388.39 C 2429.07 1388.43 2429.77 1388.49 2430.11 1388.52 C 2438.15 1397.03 2445.49 1406.17 2453.09 1415.07 C 2455.46 1419.43 2458.14 1423.61 2461.31 1427.45 C 2461.75 1428.45 2462.22 1429.46 2462.73 1430.49 C 2465.70 1433.91 2467.52 1438.13 2469.78 1442.03 C 2470.58 1443.40 2471.47 1444.72 2472.49 1446.00 C 2472.49 1446.27 2472.47 1446.81 2472.47 1447.08 C 2474.70 1451.45 2477.34 1455.69 2478.81 1460.42 L 2479.22 1460.55 C 2479.67 1462.12 2480.44 1463.60 2481.35 1465.00 C 2481.43 1465.50 2481.61 1466.49 2481.69 1466.98 C 2482.92 1468.88 2483.95 1470.90 2484.80 1473.03 C 2485.24 1473.87 2485.72 1474.73 2486.23 1475.60 C 2487.22 1478.48 2488.22 1481.40 2488.75 1484.44 L 2489.65 1484.53 C 2489.59 1485.27 2489.45 1486.74 2489.39 1487.47 L 2490.64 1487.50 C 2490.58 1488.24 2490.47 1489.71 2490.41 1490.45 L 2491.70 1490.51 C 2491.68 1490.87 2491.64 1491.58 2491.62 1491.94 C 2492.59 1493.59 2492.55 1495.54 2492.68 1497.42 L 2493.81 1497.51 C 2493.67 1498.00 2493.40 1498.97 2493.27 1499.46 L 2494.41 1499.51 C 2494.33 1503.85 2495.86 1507.95 2496.79 1512.14 C 2498.05 1515.07 2498.66 1518.22 2498.68 1521.43 L 2499.37 1521.50 C 2500.39 1527.65 2500.78 1533.96 2502.36 1539.99 C 2502.52 1542.46 2502.57 1544.95 2502.57 1547.45 L 2503.50 1547.47 C 2503.29 1562.47 2504.78 1577.68 2501.58 1592.47 C 2500.69 1596.67 2500.56 1600.97 2500.50 1605.27 C 2500.07 1606.61 2499.68 1607.98 2499.35 1609.38 C 2498.86 1610.97 2498.45 1612.61 2498.06 1614.26 C 2497.54 1616.59 2496.86 1618.89 2495.99 1621.13 C 2495.38 1622.85 2494.83 1624.59 2494.34 1626.36 C 2493.81 1627.89 2493.29 1629.42 2492.81 1630.98 C 2492.47 1631.94 2492.15 1632.93 2491.86 1633.93 C 2487.69 1643.72 2484.05 1653.87 2477.73 1662.56 C 2473.61 1668.10 2470.63 1674.47 2465.74 1679.42 C 2459.15 1687.52 2452.46 1695.78 2443.85 1701.82 C 2441.54 1703.51 2439.46 1705.46 2437.20 1707.18 C 2433.87 1708.76 2431.36 1711.56 2428.08 1713.21 C 2424.23 1715.34 2420.93 1718.41 2416.72 1719.86 C 2415.41 1720.48 2414.13 1721.13 2412.88 1721.78 C 2411.54 1722.29 2410.26 1722.81 2408.99 1723.37 C 2408.63 1723.39 2407.92 1723.44 2407.56 1723.46 L 2407.43 1724.67 C 2406.96 1724.60 2406.03 1724.46 2405.56 1724.39 L 2405.38 1725.27 C 2403.13 1726.21 2400.85 1727.04 2398.55 1727.78 L 2398.51 1728.32 C 2397.22 1728.46 2396.01 1728.80 2394.89 1729.34 C 2394.29 1729.37 2393.10 1729.43 2392.50 1729.46 L 2392.48 1730.66 C 2391.74 1730.60 2390.25 1730.46 2389.51 1730.40 L 2389.54 1731.35 C 2384.10 1732.02 2379.12 1734.93 2373.55 1734.67 L 2373.51 1735.46 C 2369.26 1735.23 2365.18 1736.64 2360.97 1736.61 C 2353.11 1736.71 2345.24 1736.88 2337.39 1736.50 C 2337.42 1736.77 2337.50 1737.31 2337.53 1737.58 C 2333.53 1736.73 2329.44 1736.47 2325.47 1735.58 C 2317.73 1735.19 2310.78 1731.45 2303.36 1729.63 C 2302.87 1729.51 2301.89 1729.25 2301.40 1729.13 C 2292.14 1726.08 2283.68 1721.19 2275.32 1716.28 C 2267.72 1711.49 2261.13 1705.40 2254.07 1699.91 C 2246.61 1693.03 2240.00 1685.29 2233.69 1677.37 C 2231.45 1674.26 2228.43 1671.66 2227.18 1667.95 C 2222.21 1661.30 2218.06 1654.13 2213.83 1647.01 C 2212.21 1643.33 2210.76 1639.44 2207.85 1636.57 C 2207.78 1635.87 2207.65 1634.46 2207.58 1633.75 C 2206.57 1631.41 2205.46 1629.14 2204.41 1626.85 C 2203.98 1625.86 2203.57 1624.90 2203.18 1623.96 C 2201.20 1622.13 2201.31 1619.18 2200.42 1616.84 C 2198.56 1613.28 2197.64 1609.35 2196.05 1605.70 C 2193.38 1594.83 2190.08 1584.11 2188.21 1573.05 C 2187.82 1571.73 2187.41 1570.37 2187.07 1569.10 C 2186.55 1567.27 2186.49 1565.34 2186.48 1563.49 L 2185.57 1563.42 C 2186.11 1556.75 2183.74 1550.40 2183.14 1543.83 C 2182.05 1538.26 2182.80 1532.57 2182.36 1526.96 C 2180.96 1523.13 2181.82 1518.95 2181.62 1514.99 C 2181.77 1509.87 2181.29 1504.68 2182.45 1499.66 C 2182.52 1496.56 2182.72 1493.46 2183.47 1490.46 C 2183.59 1488.05 2183.68 1485.65 2183.88 1483.26 C 2186.40 1479.65 2184.98 1475.08 2186.05 1471.05 C 2186.39 1470.02 2186.74 1468.99 2187.11 1467.98 C 2187.38 1466.86 2187.70 1465.78 2188.08 1464.72 C 2188.23 1463.32 2188.43 1461.96 2188.64 1460.61 C 2189.34 1458.28 2190.04 1455.96 2190.66 1453.62 C 2192.98 1445.98 2195.27 1438.32 2198.23 1430.90 C 2199.09 1428.95 2199.96 1427.00 2200.85 1425.07 C 2201.16 1424.18 2201.50 1423.31 2201.87 1422.45 C 2204.78 1417.57 2207.61 1412.60 2209.94 1407.41 C 2216.97 1395.96 2224.56 1384.65 2234.47 1375.46 C 2239.89 1369.59 2246.02 1364.47 2252.64 1360.01 C 2254.09 1358.67 2255.68 1357.46 2257.66 1356.99 C 2259.63 1355.48 2261.61 1353.97 2263.72 1352.63 C 2270.88 1350.56 2277.23 1346.28 2284.57 1344.84 C 2290.96 1341.57 2298.34 1340.30 2305.48 1340.47 L 2305.59 1339.58 Z" />
<path fill="#000000" opacity="1.00" d=" M 2648.51 1351.33 L 2648.44 1350.49 C 2655.33 1350.77 2662.23 1350.15 2669.12 1350.57 C 2673.84 1351.38 2678.42 1352.87 2683.13 1353.83 C 2686.36 1355.05 2689.73 1355.92 2693.13 1356.71 C 2700.50 1360.00 2707.61 1363.98 2714.03 1368.93 C 2723.79 1376.53 2733.17 1384.90 2740.03 1395.30 C 2743.73 1401.36 2748.33 1406.88 2751.30 1413.39 C 2754.19 1417.95 2755.59 1423.20 2757.75 1428.11 C 2759.19 1431.46 2760.48 1434.87 2761.79 1438.29 C 2762.45 1440.61 2763.11 1442.96 2763.74 1445.32 C 2764.60 1448.57 2765.26 1451.87 2765.98 1455.18 C 2767.73 1461.78 2768.89 1468.50 2770.11 1475.23 C 2770.32 1477.90 2770.43 1480.59 2770.63 1483.29 C 2772.05 1488.39 2770.93 1493.73 2771.27 1498.95 C 2771.65 1506.91 2770.85 1514.86 2769.65 1522.73 C 2767.83 1543.24 2761.28 1563.23 2751.29 1581.20 C 2745.23 1591.17 2737.83 1600.32 2729.52 1608.50 C 2724.68 1613.40 2718.57 1616.74 2713.41 1621.27 C 2705.42 1626.93 2696.52 1631.20 2687.22 1634.25 C 2686.81 1634.33 2685.99 1634.48 2685.58 1634.55 C 2684.04 1635.15 2682.51 1635.73 2681.05 1636.36 C 2679.67 1636.46 2678.29 1636.58 2676.99 1636.76 C 2671.43 1639.42 2665.16 1637.97 2659.34 1639.37 C 2654.19 1639.53 2648.86 1640.18 2643.84 1638.89 C 2639.08 1638.72 2634.37 1638.21 2629.72 1637.29 C 2628.04 1636.81 2626.42 1636.39 2624.80 1635.96 C 2622.73 1635.45 2620.70 1634.91 2618.69 1634.36 C 2617.48 1633.80 2616.31 1633.27 2615.17 1632.77 C 2605.60 1629.03 2596.59 1623.87 2588.82 1617.14 C 2579.92 1611.00 2573.29 1602.37 2567.23 1593.56 C 2561.41 1584.85 2557.52 1575.06 2553.57 1565.41 C 2553.53 1564.99 2553.43 1564.14 2553.38 1563.72 C 2552.76 1562.49 2552.19 1561.29 2551.65 1560.10 C 2550.80 1555.78 2549.93 1551.47 2548.97 1547.19 C 2548.53 1545.49 2548.11 1543.80 2547.68 1542.14 C 2547.32 1540.17 2546.99 1538.25 2546.64 1536.34 C 2546.45 1533.28 2545.94 1530.27 2545.57 1527.26 C 2545.00 1522.95 2545.76 1518.52 2544.45 1514.33 C 2545.30 1506.81 2545.28 1499.27 2545.61 1491.72 C 2547.25 1478.04 2548.16 1464.13 2552.34 1450.90 C 2553.99 1443.59 2557.04 1436.74 2559.74 1429.78 C 2564.10 1420.48 2568.35 1411.03 2574.46 1402.69 C 2578.75 1397.24 2582.21 1391.12 2587.33 1386.36 C 2596.67 1377.22 2606.26 1368.00 2617.84 1361.72 C 2622.49 1359.87 2626.83 1357.27 2631.62 1355.71 C 2634.46 1355.13 2637.24 1354.17 2639.77 1352.70 C 2642.62 1351.97 2645.53 1351.45 2648.51 1351.33 Z" />
<path fill="#000000" opacity="1.00" d=" M 2887.72 1408.35 C 2900.76 1402.76 2915.20 1400.16 2929.36 1401.59 C 2935.21 1402.88 2941.36 1403.17 2946.88 1405.75 C 2954.79 1409.39 2963.14 1412.53 2969.74 1418.42 C 2977.38 1424.68 2983.58 1432.48 2989.66 1440.22 C 2994.38 1446.34 2997.45 1453.49 3000.65 1460.47 C 3005.08 1468.64 3006.95 1477.82 3009.23 1486.75 C 3012.36 1497.24 3012.26 1508.24 3013.43 1519.03 C 3013.28 1524.69 3013.94 1530.43 3012.83 1536.03 C 3012.31 1549.24 3009.52 1562.19 3006.04 1574.91 C 3005.59 1576.15 3005.13 1577.37 3004.78 1578.65 C 3004.25 1580.65 3003.57 1582.61 3002.87 1584.56 C 3000.39 1592.33 2996.19 1599.37 2992.18 1606.42 C 2987.42 1613.99 2982.38 1621.54 2975.71 1627.59 C 2968.43 1634.62 2960.44 1641.06 2951.30 1645.51 C 2941.76 1651.11 2931.05 1654.75 2920.01 1655.73 C 2909.58 1657.74 2898.99 1656.25 2888.57 1655.22 C 2878.37 1653.19 2868.33 1649.94 2859.29 1644.77 C 2851.09 1639.13 2842.80 1633.34 2836.48 1625.56 C 2829.43 1619.08 2825.42 1610.27 2820.92 1602.02 C 2817.33 1595.21 2815.97 1587.64 2813.73 1580.37 C 2811.44 1571.49 2811.07 1562.32 2810.30 1553.23 C 2809.98 1554.70 2809.81 1556.22 2809.46 1557.71 C 2810.00 1550.00 2809.19 1542.24 2810.39 1534.58 C 2810.42 1528.67 2812.24 1523.01 2813.04 1517.20 C 2813.91 1511.42 2815.45 1505.78 2816.85 1500.12 C 2819.71 1490.98 2822.28 1481.67 2826.50 1473.03 C 2830.12 1463.79 2835.82 1455.59 2841.37 1447.43 C 2847.05 1438.92 2854.68 1432.01 2862.00 1424.95 C 2869.90 1418.46 2878.70 1413.12 2887.72 1408.35 Z" />
<path fill="#000000" opacity="1.00" d=" M 3116.18 1522.53 C 3122.50 1520.15 3129.33 1520.31 3135.99 1520.24 C 3141.77 1520.27 3147.68 1519.95 3153.32 1521.62 C 3156.62 1522.87 3160.01 1523.96 3163.46 1524.86 C 3171.23 1528.99 3178.53 1534.05 3185.33 1539.64 C 3200.18 1554.98 3210.23 1574.93 3213.82 1595.99 C 3217.27 1618.16 3216.07 1640.96 3210.98 1662.78 C 3208.77 1667.78 3208.25 1673.31 3205.91 1678.26 C 3201.94 1688.10 3197.78 1697.98 3191.75 1706.76 C 3186.86 1713.42 3181.80 1720.02 3175.67 1725.58 C 3169.34 1732.01 3161.37 1736.47 3153.52 1740.76 C 3148.65 1743.61 3143.05 1744.60 3137.80 1746.45 C 3127.88 1749.70 3117.32 1749.85 3107.00 1749.24 C 3094.77 1746.96 3082.45 1743.77 3071.80 1737.11 C 3056.82 1728.45 3045.13 1714.86 3037.34 1699.53 C 3028.46 1680.78 3026.75 1659.39 3029.22 1639.00 C 3029.52 1632.18 3031.08 1625.52 3032.55 1618.89 C 3038.76 1599.01 3046.84 1579.36 3059.59 1562.70 C 3071.24 1547.44 3086.27 1534.20 3104.24 1526.98 C 3108.09 1525.19 3112.20 1524.06 3116.18 1522.53 Z" />
<path fill="#000000" opacity="1.00" d=" M 3262.75 1690.91 C 3274.36 1683.57 3287.41 1678.34 3301.05 1676.37 C 3313.10 1675.77 3325.85 1675.99 3336.75 1681.85 C 3344.98 1685.50 3351.34 1692.02 3357.93 1697.95 C 3364.58 1705.57 3369.38 1714.67 3373.00 1724.09 C 3377.66 1734.39 3379.30 1745.77 3379.91 1756.98 C 3380.80 1760.29 3379.75 1763.66 3379.68 1767.01 C 3379.47 1771.69 3379.87 1776.42 3378.97 1781.05 C 3376.67 1792.83 3374.77 1804.85 3369.69 1815.83 C 3365.19 1826.47 3359.82 1836.81 3353.01 1846.17 C 3348.18 1853.22 3341.67 1858.85 3335.17 1864.30 C 3327.35 1871.17 3317.34 1874.72 3307.68 1878.15 C 3296.44 1880.81 3284.58 1882.07 3273.19 1879.59 C 3265.37 1878.48 3258.18 1875.13 3251.10 1871.85 C 3241.86 1866.48 3232.89 1860.18 3226.35 1851.63 C 3220.31 1844.07 3215.68 1835.50 3212.07 1826.57 C 3208.45 1815.77 3207.00 1804.33 3207.47 1792.98 C 3207.04 1785.53 3209.06 1778.34 3210.30 1771.08 C 3210.90 1767.59 3211.90 1764.20 3213.07 1760.87 C 3215.07 1751.92 3219.93 1744.06 3223.88 1735.90 C 3229.97 1725.61 3236.02 1715.08 3244.47 1706.50 C 3250.27 1700.99 3256.22 1695.56 3262.75 1690.91 Z" />
<path fill="#000000" opacity="1.00" d=" M 2693.04 1682.77 C 2699.42 1683.02 2705.69 1681.53 2712.07 1681.73 C 2725.71 1681.63 2739.34 1681.74 2752.99 1681.79 C 2757.53 1682.30 2762.17 1682.39 2766.65 1683.48 C 2769.93 1683.63 2773.24 1683.55 2776.53 1684.05 C 2780.77 1685.28 2785.30 1684.09 2789.56 1685.43 C 2792.24 1685.54 2794.94 1685.82 2797.61 1686.42 C 2799.31 1686.58 2801.04 1686.76 2802.82 1687.00 C 2804.72 1687.50 2806.62 1687.98 2808.59 1688.47 C 2815.81 1688.89 2822.74 1691.27 2829.93 1692.04 C 2839.04 1693.99 2847.87 1696.97 2856.91 1699.21 C 2858.15 1699.60 2859.42 1700.01 2860.73 1700.44 C 2862.45 1700.53 2864.19 1700.66 2865.98 1700.82 C 2866.15 1701.20 2866.47 1701.95 2866.63 1702.32 C 2868.30 1702.54 2870.02 1702.85 2871.75 1703.24 C 2873.85 1703.57 2875.94 1704.24 2877.91 1705.19 C 2882.93 1706.40 2887.72 1708.46 2892.78 1709.65 C 2899.53 1711.90 2906.01 1714.94 2912.86 1717.01 C 2914.83 1717.72 2916.85 1718.37 2918.93 1718.94 C 2929.58 1723.38 2940.38 1727.49 2950.90 1732.25 C 2953.92 1733.56 2956.95 1734.90 2960.01 1736.22 C 2974.64 1742.21 2988.02 1750.88 3002.73 1756.74 C 3010.61 1760.23 3017.59 1765.42 3025.33 1769.23 C 3038.04 1776.20 3050.73 1783.21 3062.88 1791.15 C 3069.75 1794.03 3075.58 1798.76 3082.02 1802.46 C 3091.84 1808.62 3101.95 1814.36 3111.39 1821.12 C 3117.81 1825.68 3124.16 1830.33 3130.72 1834.69 C 3139.67 1840.92 3149.32 1846.20 3157.47 1853.53 C 3168.13 1862.85 3178.73 1872.26 3189.20 1881.80 C 3196.36 1887.32 3201.67 1894.70 3207.99 1901.08 C 3214.94 1908.89 3221.77 1916.84 3227.77 1925.43 C 3232.05 1931.39 3236.32 1937.36 3240.28 1943.56 C 3241.07 1945.17 3241.89 1946.78 3242.76 1948.42 C 3247.21 1955.53 3250.60 1963.28 3254.22 1970.86 C 3255.62 1973.28 3256.96 1975.77 3257.77 1978.49 L 3258.26 1978.52 C 3258.99 1981.15 3259.81 1983.78 3260.71 1986.40 L 3261.25 1986.59 C 3262.01 1989.05 3262.88 1991.51 3263.83 1993.94 C 3266.77 2002.19 3270.29 2010.23 3273.42 2018.42 C 3280.91 2038.87 3287.62 2059.68 3291.96 2081.05 C 3298.84 2111.92 3302.35 2143.47 3303.58 2175.03 C 3303.83 2185.67 3304.93 2196.33 3303.91 2206.98 C 3303.31 2215.33 3303.89 2223.74 3303.13 2232.09 C 3302.27 2238.33 3302.87 2244.68 3301.92 2250.92 C 3298.08 2298.04 3290.67 2344.84 3280.59 2391.02 C 3271.43 2432.83 3259.54 2474.01 3246.15 2514.65 C 3232.74 2555.68 3217.31 2596.03 3200.60 2635.84 C 3185.21 2673.67 3167.42 2710.45 3148.90 2746.83 C 3130.73 2783.14 3111.10 2818.70 3090.66 2853.77 C 3063.13 2901.80 3032.15 2947.72 3001.50 2993.79 C 2991.17 3008.98 2980.33 3023.82 2969.82 3038.89 C 2948.17 3068.22 2927.09 3097.96 2904.53 3126.60 C 2892.32 3142.67 2880.22 3158.82 2867.71 3174.66 C 2856.80 3188.43 2846.39 3202.59 2835.00 3215.97 C 2821.64 3232.56 2807.57 3248.57 2794.15 3265.11 C 2782.92 3278.99 2771.92 3293.06 2760.71 3306.96 C 2753.17 3315.61 2745.32 3324.01 2738.11 3332.95 C 2737.31 3332.78 2735.73 3332.45 2734.94 3332.28 C 2722.51 3347.87 2709.66 3363.32 2694.60 3376.47 C 2686.84 3383.38 2678.73 3389.88 2670.81 3396.60 C 2656.66 3408.57 2640.66 3417.98 2624.89 3427.59 C 2610.67 3436.11 2595.94 3443.77 2580.92 3450.79 C 2575.45 3452.99 2570.23 3455.78 2564.67 3457.76 C 2558.38 3460.71 2551.51 3462.04 2545.18 3464.86 C 2543.97 3465.11 2542.77 3465.35 2541.62 3465.67 C 2540.14 3466.13 2538.71 3466.65 2537.30 3467.21 C 2532.07 3469.05 2526.92 3471.11 2521.62 3472.71 C 2519.27 3473.32 2516.96 3473.98 2514.64 3474.62 C 2513.29 3474.94 2511.98 3475.29 2510.71 3475.69 C 2507.97 3476.28 2505.27 3476.95 2502.58 3477.66 C 2500.91 3477.97 2499.27 3478.32 2497.66 3478.66 C 2495.66 3479.06 2493.71 3479.51 2491.78 3480.04 C 2490.72 3480.19 2489.70 3480.40 2488.71 3480.65 C 2485.03 3481.48 2481.28 3481.93 2477.70 3483.09 C 2475.36 3483.29 2473.03 3483.40 2470.74 3483.61 C 2466.89 3484.94 2462.77 3484.08 2458.86 3484.88 C 2454.96 3485.67 2450.97 3485.48 2447.04 3485.77 C 2442.83 3487.09 2438.34 3486.27 2434.02 3486.58 C 2423.02 3486.45 2411.95 3487.10 2401.03 3485.60 C 2397.68 3485.20 2394.21 3485.94 2391.01 3484.77 C 2384.09 3483.94 2377.24 3482.61 2370.34 3481.70 C 2368.96 3481.28 2367.64 3480.95 2366.34 3480.64 C 2364.67 3480.30 2363.05 3479.97 2361.46 3479.68 C 2357.76 3478.51 2354.01 3477.60 2350.29 3476.65 C 2329.10 3470.40 2308.52 3462.03 2289.17 3451.36 C 2272.31 3442.62 2256.42 3432.03 2241.97 3419.70 C 2228.03 3408.44 2215.12 3395.97 2203.04 3382.76 C 2189.57 3366.46 2176.34 3349.70 2166.60 3330.86 C 2162.18 3322.68 2158.20 3314.29 2154.25 3305.90 C 2149.45 3296.59 2146.55 3286.52 2143.30 3276.64 C 2139.50 3265.87 2136.94 3254.74 2133.95 3243.76 C 2133.50 3240.04 2132.91 3236.36 2132.22 3232.71 C 2131.48 3226.16 2130.38 3219.63 2130.53 3213.03 C 2130.61 3208.66 2129.48 3204.40 2129.50 3200.06 C 2129.50 3183.78 2129.04 3167.43 2131.51 3151.30 C 2132.30 3146.98 2132.47 3142.58 2133.25 3138.29 C 2133.56 3136.59 2133.91 3134.93 2134.29 3133.32 C 2134.81 3130.25 2135.44 3127.22 2135.90 3124.17 C 2136.37 3122.52 2136.78 3120.85 2137.28 3119.28 C 2137.54 3117.57 2137.84 3115.90 2138.21 3114.28 C 2138.74 3112.18 2139.34 3110.14 2139.91 3108.10 C 2141.55 3102.41 2143.27 3096.75 2144.93 3091.09 C 2146.36 3086.22 2148.20 3081.51 2149.86 3076.73 C 2150.50 3075.07 2151.17 3073.44 2151.84 3071.83 C 2155.28 3063.69 2159.28 3055.82 2163.09 3047.87 C 2169.10 3037.22 2174.38 3026.14 2181.27 3016.01 C 2192.91 2999.16 2205.43 2982.94 2217.34 2966.28 C 2226.14 2953.54 2235.43 2941.15 2244.73 2928.77 C 2255.85 2913.00 2268.13 2898.11 2279.49 2882.52 C 2292.98 2864.18 2306.21 2845.65 2318.83 2826.71 C 2338.74 2795.40 2357.92 2763.40 2372.09 2729.02 C 2380.92 2707.95 2387.68 2686.08 2393.66 2664.06 C 2398.28 2645.32 2401.55 2626.24 2403.31 2607.03 C 2404.95 2579.09 2405.59 2550.93 2401.98 2523.12 C 2400.24 2508.67 2397.97 2494.27 2394.67 2480.09 C 2393.70 2474.34 2391.46 2468.83 2391.29 2462.98 C 2391.12 2463.94 2390.98 2464.94 2390.87 2465.97 C 2389.86 2456.81 2386.69 2448.07 2384.44 2439.18 C 2377.96 2416.46 2369.83 2394.23 2360.67 2372.47 C 2352.81 2353.28 2343.33 2334.81 2335.56 2315.59 C 2326.89 2294.67 2318.57 2273.61 2310.89 2252.32 C 2303.82 2232.49 2297.73 2212.33 2292.14 2192.05 C 2285.76 2167.61 2279.47 2143.09 2275.71 2118.09 C 2272.63 2096.14 2269.74 2074.10 2269.18 2051.93 C 2267.97 2038.33 2268.25 2024.60 2269.27 2011.00 C 2269.48 1997.85 2270.83 1984.72 2272.70 1971.72 C 2273.13 1969.38 2273.45 1967.04 2273.70 1964.71 C 2275.71 1953.63 2278.20 1942.64 2281.84 1931.97 C 2282.28 1930.71 2282.70 1929.43 2283.20 1928.22 C 2286.94 1918.21 2291.19 1908.41 2295.94 1898.85 C 2304.91 1881.86 2315.98 1866.03 2328.73 1851.65 C 2334.48 1845.43 2339.80 1838.81 2345.96 1832.97 C 2352.53 1826.55 2358.74 1819.72 2365.90 1813.92 C 2372.54 1808.19 2379.23 1802.53 2386.06 1797.03 C 2401.50 1786.04 2417.35 1775.60 2433.55 1765.75 C 2452.92 1754.60 2472.58 1743.89 2493.00 1734.77 C 2501.62 1730.85 2510.38 1727.20 2519.26 1723.87 C 2523.11 1722.35 2526.85 1720.20 2531.12 1720.17 C 2529.98 1720.01 2528.87 1719.87 2527.79 1719.75 C 2531.41 1719.65 2534.75 1718.15 2538.11 1716.90 C 2539.08 1716.51 2540.08 1716.13 2541.12 1715.77 C 2541.65 1715.67 2542.71 1715.47 2543.24 1715.37 C 2548.43 1713.52 2553.69 1711.81 2558.97 1710.18 C 2564.72 1708.13 2570.54 1706.23 2576.35 1704.31 C 2577.91 1703.84 2579.56 1703.43 2581.19 1703.00 C 2589.52 1700.53 2598.04 1698.76 2606.39 1696.33 C 2611.37 1695.36 2616.32 1694.20 2621.26 1692.93 C 2622.22 1692.72 2623.23 1692.55 2624.28 1692.40 C 2625.93 1691.98 2627.61 1691.61 2629.35 1691.33 C 2632.64 1690.59 2635.96 1689.89 2639.31 1689.32 C 2641.61 1688.81 2643.99 1688.49 2646.39 1688.40 C 2655.92 1686.54 2665.59 1685.49 2675.25 1684.49 C 2681.10 1683.32 2687.13 1683.73 2693.04 1682.77 Z" />
</g>
</svg>
