<?xml version="1.0" encoding="UTF-8" ?>
<!DOCTYPE svg PUBLIC "-//W3C//DTD SVG 1.1//EN" "http://www.w3.org/Graphics/SVG/1.1/DTD/svg11.dtd">
<svg width="1200pt" height="1000pt" viewBox="0 0 1200 1000" version="1.1" xmlns="http://www.w3.org/2000/svg">
<g id="#000000ff">
<path fill="#000000" opacity="1.00" d=" M 540.93 56.31 C 564.16 53.37 587.62 54.48 610.96 54.49 C 622.73 54.16 634.36 56.27 646.07 57.11 C 669.78 60.16 693.69 62.52 716.91 68.48 C 746.51 76.01 775.47 86.37 802.61 100.43 C 820.52 109.70 837.78 120.29 854.01 132.28 C 864.86 140.19 874.40 149.68 884.55 158.43 C 897.59 169.78 908.42 183.35 919.37 196.66 C 939.20 220.43 954.53 247.62 967.33 275.71 C 981.34 306.95 992.57 339.54 999.47 373.11 C 1005.91 404.13 1010.89 435.46 1014.39 466.95 C 1016.13 485.58 1017.38 504.24 1018.78 522.89 C 1019.49 530.92 1019.11 538.99 1019.20 547.03 C 1019.20 566.03 1019.20 585.02 1019.20 604.01 C 1018.93 610.13 1019.97 616.40 1018.28 622.38 C 1014.64 615.69 1012.12 608.43 1007.97 602.00 C 995.90 581.88 975.86 566.58 952.99 560.99 C 950.13 560.11 945.62 559.78 945.59 555.87 C 944.80 543.92 943.95 531.97 943.16 520.02 C 942.65 503.91 940.56 487.91 938.74 471.91 C 936.38 452.58 933.78 433.27 929.81 414.20 C 923.72 380.42 914.86 347.05 901.79 315.27 C 889.25 285.32 874.07 256.01 852.75 231.29 C 842.55 219.84 832.83 207.84 821.14 197.84 C 811.24 189.22 800.55 181.56 789.62 174.32 C 773.33 163.66 755.54 155.51 737.41 148.53 C 717.03 140.70 695.71 135.43 674.13 132.18 C 652.24 128.91 630.17 126.75 608.03 126.20 C 584.29 125.14 560.49 125.62 536.86 128.21 C 486.88 131.96 438.54 152.09 399.86 183.81 C 380.75 199.35 364.45 218.05 350.20 238.07 C 331.93 263.04 318.33 291.06 306.69 319.62 C 296.01 346.68 287.96 374.73 281.22 403.01 C 275.53 430.83 270.02 458.74 267.01 487.00 C 265.10 504.94 263.39 522.90 262.08 540.89 C 261.29 557.59 260.92 574.30 260.38 591.00 C 260.17 594.92 260.47 598.91 259.68 602.78 C 258.18 604.28 255.77 604.00 253.86 604.52 C 239.64 606.50 226.50 614.32 217.60 625.52 C 209.53 635.51 203.85 647.48 201.62 660.15 C 201.06 663.06 200.88 666.08 199.93 668.92 C 198.90 674.05 189.80 672.42 189.63 667.65 C 187.20 646.20 188.13 624.58 187.80 603.04 C 187.77 573.70 187.95 544.32 190.49 515.06 C 193.15 483.92 197.05 452.87 202.49 422.09 C 205.66 404.18 210.38 386.61 214.83 368.99 C 220.11 348.54 225.69 328.12 233.39 308.43 C 241.32 288.36 248.82 268.04 259.16 249.05 C 274.23 220.60 292.10 193.57 313.36 169.36 C 325.08 155.74 338.32 143.52 352.00 131.91 C 374.36 112.91 399.78 97.73 426.41 85.52 C 455.71 72.17 486.97 62.92 518.97 59.10 C 526.29 58.21 533.62 57.31 540.93 56.31 Z" />
<path fill="#000000" opacity="1.00" d=" M 568.53 141.84 C 582.32 141.05 596.15 140.93 609.96 140.81 C 620.62 140.82 631.35 140.55 641.87 142.52 C 660.14 144.71 678.07 149.09 695.59 154.65 C 713.59 160.14 730.70 168.35 746.57 178.42 C 770.24 192.96 792.71 209.85 811.17 230.75 C 820.95 242.02 830.57 253.47 839.50 265.45 C 849.41 278.91 858.16 293.20 866.09 307.91 C 876.06 326.34 885.06 345.36 891.86 365.21 C 896.14 378.25 901.38 390.97 904.76 404.30 C 914.03 439.94 920.54 476.34 923.19 513.09 C 924.16 525.06 924.80 537.06 925.48 549.05 C 925.57 551.39 925.71 553.75 925.34 556.09 C 921.35 557.43 917.02 556.63 912.91 557.25 C 899.77 558.68 886.43 562.60 875.95 570.94 C 871.52 574.22 867.20 577.66 863.38 581.65 C 862.23 583.88 861.34 580.93 861.54 580.00 C 860.86 563.35 859.41 546.75 858.55 530.10 C 856.62 509.71 854.18 489.35 851.20 469.08 C 848.17 453.00 844.74 436.98 840.97 421.05 C 836.08 400.24 828.49 380.20 820.67 360.35 C 813.92 343.22 805.58 326.75 796.16 310.93 C 788.13 296.80 778.62 283.44 767.23 271.81 C 755.79 260.22 744.55 248.18 730.99 239.02 C 706.24 222.53 678.16 210.37 648.47 206.77 C 637.98 205.40 627.48 204.06 616.93 203.16 C 599.56 201.67 582.21 204.16 564.91 205.48 C 546.41 207.42 527.53 209.12 510.10 216.07 C 501.29 219.50 492.48 222.94 483.96 227.02 C 473.77 231.90 464.97 239.11 456.37 246.32 C 434.13 265.02 417.39 289.29 403.74 314.72 C 393.59 332.92 385.94 352.35 378.77 371.87 C 372.94 387.62 368.21 403.75 363.90 419.98 C 358.65 439.03 355.55 458.58 351.50 477.91 C 346.81 505.03 344.32 532.50 342.69 559.97 C 342.26 565.19 342.12 570.44 341.40 575.63 C 340.92 578.58 338.29 580.39 336.21 582.24 C 326.99 589.76 320.65 600.17 316.02 611.00 C 315.10 612.94 313.82 616.10 311.06 614.89 C 304.38 612.27 298.05 608.69 291.05 606.90 C 286.63 605.34 281.78 605.41 277.48 603.58 C 276.57 601.50 276.84 599.18 276.77 596.98 C 276.77 576.67 276.38 556.33 277.11 536.03 C 279.24 512.00 281.38 487.92 285.66 464.16 C 288.95 446.75 292.40 429.37 296.40 412.11 C 299.43 399.50 303.67 387.23 307.59 374.88 C 313.62 355.92 321.55 337.66 329.49 319.45 C 338.04 299.78 348.91 281.23 360.17 263.01 C 364.42 256.10 369.36 249.66 374.15 243.13 C 387.47 224.17 404.14 207.77 421.98 193.07 C 447.68 172.38 478.16 157.52 510.45 150.60 C 529.60 146.52 548.99 143.33 568.53 141.84 Z" />
<path fill="#000000" opacity="1.00" d=" M 532.32 229.19 C 551.93 223.07 572.52 221.01 592.96 220.12 C 612.38 219.23 631.91 220.89 650.94 224.82 C 686.68 232.74 719.92 251.35 745.67 277.33 C 766.65 298.80 783.16 324.45 795.03 351.98 C 803.38 371.46 810.43 391.53 815.52 412.11 C 822.21 440.74 826.86 469.84 830.12 499.05 C 831.14 509.03 832.71 518.96 832.84 529.01 C 833.24 551.35 833.73 573.69 833.73 596.04 C 833.68 598.68 833.94 601.44 833.00 603.98 C 830.65 604.51 828.38 603.59 826.19 602.92 C 814.56 599.16 802.08 597.09 789.93 599.37 C 783.63 600.22 777.83 602.94 771.70 604.43 C 770.50 596.36 771.07 588.17 770.70 580.05 C 770.52 559.63 768.28 539.31 767.31 518.93 C 765.24 495.48 762.93 471.98 757.91 448.94 C 750.96 413.27 740.86 377.55 721.61 346.40 C 706.92 322.96 686.29 302.35 660.39 291.74 C 639.82 283.15 617.28 279.49 595.04 280.77 C 573.80 281.99 552.26 285.09 532.70 293.84 C 518.56 299.96 506.73 310.17 496.27 321.29 C 486.85 331.03 480.32 343.03 473.48 354.61 C 464.03 370.87 456.64 388.27 451.21 406.26 C 444.83 427.44 439.66 449.00 436.47 470.90 C 433.72 487.53 432.68 504.36 430.65 521.08 C 429.26 534.35 428.65 547.70 428.84 561.04 C 428.80 563.37 428.94 565.81 428.01 568.01 C 425.57 567.90 423.22 567.17 420.90 566.51 C 411.86 563.83 402.44 562.36 393.01 562.38 C 384.01 562.37 375.16 564.24 366.29 565.60 C 366.29 552.71 365.95 539.80 367.16 526.95 C 369.18 503.82 373.25 480.94 376.89 458.03 C 382.05 425.15 391.84 393.12 404.34 362.32 C 417.39 330.64 434.74 300.28 458.64 275.50 C 478.80 254.21 504.15 237.64 532.32 229.19 Z" />
<path fill="#000000" opacity="1.00" d=" M 578.87 300.45 C 597.99 296.29 618.06 298.61 636.58 304.44 C 666.47 314.13 690.31 337.31 706.03 363.97 C 725.60 397.21 735.00 435.20 741.62 472.87 C 745.31 492.37 746.69 512.19 748.39 531.94 C 750.64 560.22 751.10 588.61 751.11 616.97 C 751.22 620.30 750.37 623.66 748.28 626.30 C 741.29 635.68 736.65 646.67 734.12 658.05 C 733.51 660.39 733.22 662.90 731.99 665.02 C 730.66 666.87 728.11 665.80 726.27 665.64 C 715.73 663.00 704.40 662.44 693.98 665.88 C 691.35 666.66 688.81 667.94 686.03 668.09 C 684.29 666.17 684.83 663.35 684.66 660.99 C 685.12 614.67 684.59 568.28 680.47 522.11 C 678.27 496.63 675.26 471.07 668.44 446.37 C 663.69 429.21 657.53 412.22 647.85 397.19 C 640.34 385.21 629.50 374.47 615.55 370.61 C 598.11 366.06 578.10 368.32 563.67 379.70 C 558.05 384.13 553.51 389.81 549.84 395.92 C 538.50 414.75 530.78 435.61 525.96 457.01 C 521.41 477.44 517.81 498.13 516.43 519.03 C 514.83 542.01 513.22 564.99 512.32 588.00 C 511.47 609.43 513.05 630.84 514.23 652.23 C 514.51 658.13 515.23 664.05 514.62 669.97 C 509.10 666.85 503.85 663.04 497.58 661.53 C 494.41 660.34 490.43 660.53 487.93 658.02 C 486.42 654.94 486.66 651.34 486.13 648.02 C 484.33 629.07 477.52 610.45 465.75 595.41 C 461.20 589.56 455.47 584.83 449.63 580.33 C 445.60 577.52 447.44 572.17 447.37 568.07 C 447.73 549.33 449.35 530.65 451.38 512.02 C 453.52 493.93 455.82 475.80 460.10 458.07 C 468.12 422.63 478.47 386.99 498.06 356.03 C 510.47 336.65 526.96 318.98 548.13 309.20 C 557.81 304.56 568.43 302.59 578.87 300.45 Z" />
<path fill="#000000" opacity="1.00" d=" M 553.96 534.87 C 561.62 529.56 572.28 529.00 580.37 533.70 C 588.82 538.50 593.65 547.40 598.73 555.33 C 602.77 547.63 607.58 539.86 615.15 535.18 C 623.87 529.76 635.97 529.63 644.36 535.80 C 652.21 541.53 657.05 550.64 658.95 560.05 C 661.14 570.95 661.06 582.88 655.80 592.94 C 650.90 602.64 641.53 608.72 633.11 615.06 C 622.24 622.66 612.08 631.56 604.53 642.56 C 602.60 645.39 600.84 648.33 598.85 651.13 C 596.12 647.49 593.96 643.46 591.21 639.83 C 584.55 630.84 575.89 623.56 566.69 617.29 C 557.71 610.84 547.87 604.61 542.33 594.70 C 536.36 584.55 536.01 572.13 538.45 560.87 C 540.43 550.83 545.27 540.74 553.96 534.87 Z" />
<path fill="#000000" opacity="1.00" d=" M 906.53 574.73 C 909.94 574.04 913.45 574.30 916.92 574.19 C 924.94 574.14 933.04 573.69 941.01 574.98 C 957.31 578.26 973.32 584.88 985.59 596.37 C 1000.08 609.11 1009.25 627.19 1012.37 646.12 C 1013.42 651.49 1013.58 657.01 1014.81 662.35 C 1015.57 665.00 1018.81 665.18 1021.01 666.02 C 1033.28 669.27 1043.96 677.46 1050.89 688.02 C 1056.18 696.13 1059.81 705.23 1062.51 714.50 C 1065.64 724.72 1064.69 735.49 1064.78 746.02 C 1064.76 752.12 1063.55 758.17 1061.57 763.93 C 1058.03 774.95 1052.20 785.62 1042.99 792.90 C 1030.83 802.43 1014.00 807.09 999.02 801.99 C 993.55 800.53 988.60 797.43 983.03 796.38 C 979.42 800.49 977.15 805.62 973.32 809.57 C 960.06 824.88 938.84 831.89 918.95 829.84 C 907.59 828.77 897.19 823.39 887.87 817.11 C 884.04 814.61 881.06 811.12 877.68 808.11 C 875.92 806.33 873.66 808.21 871.99 809.08 C 856.63 818.92 838.16 823.02 820.07 822.99 C 802.79 822.92 785.61 818.04 770.76 809.25 C 765.81 806.36 761.60 802.44 757.44 798.56 C 755.86 797.24 754.23 795.49 752.02 795.51 C 748.99 796.02 746.29 797.61 743.42 798.61 C 731.83 803.00 718.71 802.97 707.07 798.78 C 690.89 793.10 676.67 781.35 669.20 765.78 C 665.90 758.64 662.91 751.02 662.99 743.03 C 662.85 733.70 662.03 724.08 665.25 715.13 C 668.54 705.99 673.98 697.64 680.75 690.70 C 693.81 677.44 713.72 671.07 731.99 675.03 C 734.65 675.54 737.24 676.47 739.98 676.54 C 741.95 675.37 741.72 672.53 742.46 670.58 C 746.14 652.41 756.61 635.72 771.47 624.63 C 780.55 617.87 791.62 614.00 802.89 613.25 C 815.79 612.30 828.69 615.41 840.46 620.57 C 844.03 622.08 847.26 624.43 851.06 625.38 C 853.02 622.62 853.90 619.30 855.34 616.29 C 861.27 603.46 870.27 591.81 882.48 584.43 C 889.69 579.50 898.19 577.03 906.53 574.73 Z" />
<path fill="#000000" opacity="1.00" d=" M 353.63 587.56 C 364.06 581.80 376.06 578.99 387.96 579.16 C 395.31 579.16 402.77 578.63 410.03 580.14 C 425.82 583.53 441.06 590.88 452.29 602.67 C 469.26 620.04 477.10 644.65 477.81 668.54 C 478.00 671.80 481.82 671.99 484.22 672.84 C 497.81 676.37 508.17 687.13 514.89 699.04 C 522.06 711.46 525.39 725.73 526.50 739.94 C 528.02 756.52 525.43 774.01 516.19 788.14 C 509.67 798.61 499.19 806.68 487.09 809.45 C 476.59 812.19 465.24 810.99 455.41 806.46 C 452.78 805.36 450.31 803.73 447.47 803.25 C 444.42 806.34 442.44 810.30 439.64 813.62 C 429.24 827.35 412.52 837.01 394.99 836.15 C 387.08 835.67 378.85 836.59 371.30 833.69 C 363.08 830.56 355.30 826.12 348.73 820.26 C 346.48 818.30 344.54 815.97 342.02 814.37 C 340.24 814.19 338.78 815.52 337.27 816.26 C 306.89 835.54 265.16 834.76 235.42 814.57 C 230.51 811.41 227.09 806.35 222.00 803.49 C 218.70 803.85 215.96 805.98 212.90 807.11 C 199.43 812.82 183.78 811.29 170.73 805.18 C 157.55 799.25 147.73 787.37 142.85 773.93 C 137.71 761.25 138.65 747.29 139.25 733.93 C 139.97 723.27 144.95 713.45 150.73 704.67 C 160.42 690.22 177.33 680.17 194.99 680.97 C 200.10 680.95 204.98 682.70 210.03 683.11 C 211.38 679.95 211.64 676.47 212.44 673.15 C 216.06 656.83 224.73 641.34 237.95 630.90 C 249.48 621.84 264.36 617.21 278.99 617.81 C 289.89 618.93 300.72 621.60 310.62 626.38 C 313.15 627.60 315.67 628.84 318.25 629.98 C 320.74 626.06 322.39 621.69 324.68 617.67 C 331.52 605.38 341.31 594.51 353.63 587.56 Z" />
<path fill="#000000" opacity="1.00" d=" M 1000.98 821.27 C 1006.71 824.80 1009.46 831.58 1015.06 835.12 C 1021.69 835.59 1028.34 833.29 1034.97 834.61 C 1032.32 840.71 1026.99 845.16 1024.21 851.14 C 1025.21 857.91 1030.21 863.56 1030.94 870.52 C 1024.07 870.19 1017.85 866.20 1011.03 866.24 C 1005.26 869.21 1002.13 875.81 996.10 878.50 C 993.83 872.67 995.47 865.87 994.16 859.74 C 993.33 856.80 990.23 855.57 987.89 854.08 C 984.16 851.93 980.58 849.54 977.02 847.15 C 982.68 843.55 989.52 842.52 995.30 839.28 C 998.07 833.64 997.98 826.90 1000.98 821.27 Z" />
<path fill="#000000" opacity="1.00" d=" M 742.42 835.36 C 747.75 831.96 750.15 825.62 755.11 821.76 C 757.35 826.25 758.48 831.17 759.89 835.97 C 760.44 837.81 761.08 839.98 763.02 840.84 C 768.62 843.47 774.95 844.47 780.18 847.95 C 775.22 852.60 768.28 854.60 763.53 859.37 C 762.35 865.85 763.95 872.61 762.23 879.07 C 756.65 876.50 752.62 871.75 747.83 868.09 C 746.17 866.57 743.87 867.15 742.00 867.85 C 737.04 869.62 732.10 871.45 727.06 872.99 C 727.62 867.89 729.45 863.08 731.43 858.38 C 732.29 855.99 733.87 853.18 732.18 850.79 C 729.12 845.73 725.38 841.09 722.55 835.88 C 729.13 834.23 736.02 837.89 742.42 835.36 Z" />
<path fill="#000000" opacity="1.00" d=" M 205.13 836.11 C 207.90 832.14 211.00 828.42 214.12 824.72 C 216.03 829.33 217.43 834.12 218.76 838.93 C 219.37 841.06 220.07 843.62 222.37 844.54 C 228.23 847.01 234.44 848.65 240.07 851.70 C 235.70 854.48 231.18 857.00 226.80 859.75 C 224.84 860.98 222.68 862.58 222.44 865.10 C 221.88 869.38 222.42 873.72 222.14 878.03 C 221.80 879.31 222.32 881.46 220.84 882.10 C 214.45 880.20 210.88 873.64 204.95 870.91 C 198.56 871.69 192.91 875.70 186.32 875.72 C 186.60 868.74 191.57 862.88 191.94 856.06 C 189.29 850.38 184.64 845.81 182.39 839.89 C 187.94 838.86 193.51 840.04 199.08 840.15 C 201.82 840.36 203.72 838.14 205.13 836.11 Z" />
<path fill="#000000" opacity="1.00" d=" M 455.47 840.64 C 456.87 835.31 457.64 829.77 459.99 824.72 C 465.78 828.17 468.11 835.38 474.02 838.53 C 480.88 839.10 487.79 837.19 494.69 838.15 C 491.64 842.60 488.45 846.96 485.27 851.31 C 483.99 853.05 482.61 855.26 483.71 857.47 C 486.01 863.09 488.80 868.52 490.77 874.29 C 483.56 874.26 477.02 870.14 470.00 869.86 C 464.75 873.45 460.90 878.80 455.46 882.21 C 452.32 875.94 454.81 868.60 452.88 862.11 C 448.40 857.27 441.44 855.52 436.80 850.73 C 441.06 847.88 446.02 846.51 450.77 844.75 C 452.76 844.01 454.93 842.88 455.47 840.64 Z" />
<path fill="#000000" opacity="1.00" d=" M 868.14 844.15 C 872.54 840.07 874.63 833.65 880.00 830.61 C 882.86 835.54 883.49 841.34 885.55 846.59 C 886.22 848.40 887.98 849.45 889.73 850.09 C 894.88 852.03 900.57 852.98 904.99 856.48 C 901.20 859.64 896.85 861.98 892.61 864.47 C 890.85 865.55 888.63 866.79 888.54 869.14 C 888.22 875.56 888.85 882.02 888.20 888.45 C 882.75 885.14 878.38 880.39 873.04 876.97 C 871.18 875.72 868.88 876.30 866.93 876.93 C 862.20 878.45 857.69 880.72 852.71 881.32 C 853.12 875.71 855.65 870.64 857.50 865.42 C 857.99 863.77 858.88 861.88 857.74 860.30 C 854.59 855.14 850.57 850.56 847.73 845.21 C 853.06 843.61 858.62 844.96 864.06 844.98 C 865.41 844.93 867.01 845.12 868.14 844.15 Z" />
<path fill="#000000" opacity="1.00" d=" M 329.79 844.87 C 332.65 840.86 335.71 837.00 338.84 833.20 C 340.87 838.02 342.42 843.03 343.83 848.07 C 344.42 849.91 344.89 852.26 346.95 853.02 C 353.10 855.54 359.74 856.84 365.62 860.03 C 360.44 863.05 355.23 866.05 350.14 869.21 C 348.40 870.16 347.41 872.03 347.55 874.01 C 347.51 880.00 348.06 886.01 347.31 891.99 C 341.34 888.66 336.79 883.34 330.96 879.88 C 324.31 879.78 318.51 884.50 311.81 884.99 C 311.85 877.88 316.71 871.90 317.24 865.00 C 314.32 859.18 309.69 854.39 306.30 848.83 C 312.19 847.71 318.13 848.88 324.04 848.92 C 326.71 849.10 328.39 846.76 329.79 844.87 Z" />
<path fill="#000000" opacity="1.00" d=" M 939.34 894.31 C 942.19 888.52 943.25 881.97 945.69 875.99 C 949.20 879.65 952.28 883.69 955.20 887.84 C 956.43 889.49 957.81 891.54 960.12 891.58 C 966.58 891.83 973.07 891.09 979.52 891.92 C 975.80 897.48 970.80 902.17 967.55 908.01 C 967.59 915.07 972.65 921.14 973.55 928.19 C 967.87 927.04 962.43 925.01 956.97 923.12 C 955.43 922.68 953.63 921.84 952.17 922.93 C 947.12 926.23 943.21 931.12 937.65 933.69 C 936.37 927.83 937.13 921.82 936.89 915.89 C 936.98 913.81 935.63 912.12 934.01 911.03 C 929.48 907.80 924.71 904.91 920.41 901.37 C 926.28 897.90 933.62 897.86 939.34 894.31 Z" />
<path fill="#000000" opacity="1.00" d=" M 404.76 879.67 C 410.13 883.65 411.49 891.28 417.69 894.27 C 424.28 897.43 431.65 894.31 438.58 895.63 C 435.68 899.96 432.25 903.89 428.93 907.90 C 427.07 910.05 425.70 913.09 427.10 915.86 C 429.19 920.98 431.52 926.07 432.39 931.58 C 425.30 931.10 419.06 926.56 412.07 926.28 C 406.54 929.24 402.72 934.68 397.03 937.48 C 394.91 930.97 396.98 924.00 395.54 917.46 C 391.47 912.09 384.40 910.00 379.92 904.93 C 385.17 901.85 391.34 901.20 396.92 898.96 C 398.99 898.22 399.50 895.86 400.13 894.03 C 401.55 889.21 403.08 884.41 404.76 879.67 Z" />
<path fill="#000000" opacity="1.00" d=" M 805.56 896.59 C 808.19 892.45 810.89 888.37 813.76 884.40 C 816.95 889.32 818.43 895.04 820.57 900.44 C 821.43 903.14 824.39 903.84 826.82 904.45 C 832.02 905.69 837.17 907.17 842.16 909.12 C 837.50 912.50 832.83 915.87 828.05 919.08 C 826.40 920.18 824.53 921.69 824.85 923.95 C 825.09 930.16 826.37 936.34 825.77 942.58 C 819.36 939.41 814.60 933.48 807.97 930.87 C 801.63 932.37 796.03 936.08 789.69 937.71 C 789.97 931.52 792.38 925.78 794.09 919.92 C 795.06 917.42 793.35 915.11 791.86 913.28 C 788.66 909.45 785.26 905.76 782.81 901.39 C 788.55 900.57 794.36 901.12 800.13 900.80 C 802.70 900.80 804.29 898.51 805.56 896.59 Z" />
<path fill="#000000" opacity="1.00" d=" M 265.81 898.77 C 267.65 895.05 270.15 891.73 273.03 888.76 C 276.24 893.46 277.59 899.04 279.69 904.25 C 280.25 905.89 281.76 906.90 283.37 907.38 C 288.95 909.18 294.83 910.16 300.11 912.81 C 296.03 917.32 290.43 919.96 285.83 923.84 C 284.26 925.01 283.95 927.04 284.25 928.87 C 284.90 934.34 285.48 939.88 284.65 945.37 C 277.90 943.17 273.47 936.94 266.97 934.45 C 260.65 935.92 255.30 940.46 248.65 940.80 C 249.18 934.26 252.34 928.35 253.42 921.97 C 251.72 915.72 245.26 912.03 242.98 906.02 C 242.17 904.17 244.98 904.78 245.92 904.39 C 250.25 903.89 254.60 905.01 258.93 904.49 C 262.13 904.05 264.46 901.53 265.81 898.77 Z" />
</g>
</svg>
