<?xml version="1.0" encoding="UTF-8" ?>
<!DOCTYPE svg PUBLIC "-//W3C//DTD SVG 1.1//EN" "http://www.w3.org/Graphics/SVG/1.1/DTD/svg11.dtd">
<svg width="4000pt" height="4000pt" viewBox="0 0 4000 4000" version="1.1" xmlns="http://www.w3.org/2000/svg">
<g id="#000000ff">
<path fill="#000000" opacity="1.00" d=" M 329.06 1612.76 C 547.04 1604.16 765.02 1595.71 983.00 1587.09 C 991.03 1586.45 999.46 1588.08 1006.11 1592.78 C 1021.40 1605.25 1036.69 1617.73 1051.93 1630.27 C 1066.25 1642.15 1081.69 1653.08 1093.13 1667.95 C 1096.87 1672.91 1100.32 1678.61 1100.30 1685.04 C 1108.96 1910.37 1117.57 2135.75 1126.21 2361.10 C 1125.28 2373.43 1115.43 2385.09 1103.06 2386.99 C 882.37 2395.70 661.67 2404.28 440.99 2412.97 C 435.72 2413.21 431.00 2410.55 425.99 2409.42 C 420.63 2408.43 416.04 2405.31 411.35 2402.73 C 388.73 2384.00 366.24 2365.11 343.69 2346.30 C 338.54 2340.33 334.15 2333.74 330.35 2326.84 C 327.27 2317.90 324.74 2308.58 325.26 2299.03 C 325.00 2301.01 324.71 2303.01 324.41 2305.03 C 325.36 2293.04 324.21 2281.00 323.74 2269.02 C 323.85 2259.00 322.76 2249.03 322.70 2239.03 C 315.08 2040.38 307.52 1841.68 299.86 1642.98 C 299.55 1638.49 300.94 1634.05 303.11 1630.17 C 306.22 1625.03 309.82 1619.77 315.28 1616.91 C 319.69 1615.00 324.11 1612.68 329.06 1612.76 M 995.03 1721.80 C 984.88 1723.25 974.56 1721.98 964.41 1723.39 C 957.58 1723.60 950.76 1723.63 943.94 1723.80 C 935.33 1724.98 926.62 1724.37 917.98 1724.88 C 908.47 1726.21 898.79 1725.00 889.28 1726.30 C 880.35 1726.88 871.35 1726.20 862.46 1727.38 C 854.12 1727.82 845.73 1727.24 837.44 1728.36 C 830.62 1728.72 823.76 1728.28 816.98 1729.20 C 808.08 1729.75 799.11 1729.17 790.25 1730.28 C 780.07 1730.75 769.84 1730.24 759.71 1731.42 C 750.60 1731.77 741.46 1731.34 732.40 1732.46 C 718.24 1732.39 704.16 1733.92 690.00 1733.76 C 681.36 1734.85 672.64 1734.48 663.96 1734.80 C 653.18 1736.27 642.23 1734.95 631.46 1736.41 C 622.31 1736.81 613.16 1736.66 604.01 1736.49 C 607.50 1736.57 611.00 1736.61 614.46 1737.16 C 597.30 1737.35 580.23 1738.73 563.07 1738.74 C 559.36 1738.94 555.69 1739.63 551.98 1739.49 C 538.27 1739.46 524.65 1740.96 510.94 1740.76 C 500.16 1742.23 489.20 1740.99 478.42 1742.41 C 470.93 1742.67 463.42 1742.63 455.93 1742.89 C 451.14 1743.72 446.27 1743.54 441.43 1743.61 C 441.57 1752.38 441.41 1761.18 442.34 1769.91 C 442.74 1778.37 442.29 1786.87 443.31 1795.29 C 443.75 1804.40 443.30 1813.55 444.35 1822.64 C 444.72 1831.47 444.37 1840.35 445.37 1849.16 C 445.36 1863.45 446.70 1877.66 446.73 1891.96 C 448.05 1903.54 447.03 1915.27 448.33 1926.86 C 448.68 1935.85 448.43 1944.87 449.38 1953.84 C 449.32 1967.59 450.69 1981.26 450.68 1995.01 C 450.58 1999.68 451.58 2004.29 451.43 2008.98 C 451.71 2016.05 451.39 2023.18 452.30 2030.23 C 452.54 2037.15 452.58 2044.08 452.78 2051.01 C 453.67 2058.32 453.44 2065.70 453.68 2073.05 C 453.55 2077.73 454.57 2082.35 454.43 2087.04 C 454.46 2101.06 455.83 2115.01 455.75 2129.04 C 457.01 2139.63 456.07 2150.36 457.32 2160.96 C 457.65 2170.86 457.45 2180.78 458.41 2190.65 C 458.30 2202.13 459.53 2213.53 459.59 2225.01 C 459.47 2232.03 460.63 2239.00 460.46 2246.04 C 460.38 2256.40 461.62 2266.69 461.57 2277.05 C 461.44 2285.07 462.68 2293.02 462.52 2301.06 C 462.42 2310.39 463.63 2319.65 463.57 2328.99 C 463.48 2336.77 464.57 2344.49 464.55 2352.29 C 474.69 2351.84 484.81 2351.17 494.98 2351.22 C 504.61 2350.14 514.33 2350.52 524.01 2350.08 C 530.94 2349.13 537.96 2349.55 544.93 2349.19 C 548.29 2348.81 551.56 2350.20 554.92 2349.60 C 553.24 2349.30 551.56 2349.09 549.89 2348.91 C 556.56 2348.06 563.33 2348.90 569.99 2347.82 C 579.33 2347.31 588.73 2347.85 598.03 2346.72 C 604.53 2346.53 611.04 2346.50 617.54 2346.29 C 626.31 2344.99 635.24 2346.12 644.03 2344.88 C 651.10 2344.52 658.19 2344.64 665.27 2344.36 C 673.89 2343.27 682.61 2343.78 691.28 2343.34 C 699.89 2342.24 708.59 2342.80 717.24 2342.32 C 725.22 2341.27 733.29 2341.78 741.31 2341.36 C 749.91 2340.28 758.60 2340.79 767.24 2340.36 C 775.46 2339.33 783.76 2339.73 792.03 2339.40 C 797.39 2339.54 802.68 2338.39 808.05 2338.60 C 817.07 2338.69 826.01 2337.40 835.04 2337.56 C 842.70 2337.76 850.27 2336.45 857.93 2336.62 C 867.96 2336.72 877.89 2335.35 887.92 2335.53 C 894.33 2335.78 900.64 2334.49 907.05 2334.66 C 913.36 2334.38 919.71 2334.77 925.98 2333.86 C 934.62 2333.36 943.33 2333.90 951.94 2332.78 C 958.74 2332.60 965.55 2332.54 972.36 2332.36 C 980.92 2331.23 989.59 2331.81 998.20 2331.29 C 1006.47 2330.22 1014.85 2330.82 1023.17 2330.32 C 1031.79 2329.17 1040.53 2329.91 1049.19 2329.25 C 1054.61 2328.44 1060.11 2328.76 1065.57 2328.56 C 1065.57 2319.70 1064.57 2310.91 1064.54 2302.07 C 1064.28 2296.27 1064.53 2290.46 1063.80 2284.71 C 1063.32 2275.48 1063.67 2266.21 1062.72 2257.02 C 1062.56 2241.98 1061.32 2227.00 1061.27 2211.95 C 1060.36 2202.68 1060.56 2193.34 1060.20 2184.05 C 1059.34 2176.05 1059.58 2168.01 1059.26 2160.00 C 1058.30 2150.34 1058.63 2140.63 1058.14 2130.96 C 1057.09 2121.11 1057.85 2111.15 1056.79 2101.31 C 1056.32 2092.31 1056.65 2083.27 1055.75 2074.31 C 1055.35 2065.89 1055.65 2057.44 1054.78 2049.07 C 1054.37 2039.72 1054.58 2030.34 1053.69 2021.02 C 1053.62 2006.66 1052.38 1992.37 1052.29 1978.02 C 1051.41 1968.72 1051.60 1959.37 1051.21 1950.06 C 1050.16 1939.79 1050.86 1929.43 1049.80 1919.17 C 1049.48 1903.77 1048.40 1888.42 1048.28 1873.02 C 1047.18 1862.05 1047.84 1851.00 1046.76 1840.04 C 1046.60 1824.66 1045.40 1809.33 1045.26 1793.96 C 1044.19 1782.70 1044.78 1771.36 1043.72 1760.12 C 1043.67 1746.84 1042.50 1733.63 1042.41 1720.36 C 1033.02 1720.79 1023.58 1720.26 1014.24 1721.41 C 1007.84 1721.64 1001.43 1721.62 995.03 1721.80 Z" />
<path fill="#000000" opacity="1.00" d=" M 2667.91 1593.69 C 2695.98 1593.59 2724.01 1592.21 2752.08 1592.30 C 2757.42 1593.10 2762.67 1594.64 2767.20 1597.70 C 2782.57 1610.41 2797.62 1623.54 2812.93 1636.35 C 2827.23 1648.82 2842.89 1660.16 2854.09 1675.72 C 2857.45 1680.51 2860.70 1685.93 2860.61 1692.00 C 2860.65 1697.53 2860.57 1703.07 2860.76 1708.61 C 2861.78 1721.57 2861.18 1734.58 2861.67 1747.56 C 2861.43 1759.39 2862.69 1771.17 2862.49 1783.01 C 2862.28 1797.02 2863.50 1811.00 2863.30 1825.02 C 2863.71 1836.68 2863.58 1848.34 2863.76 1860.01 C 2864.83 1873.28 2864.20 1886.61 2864.71 1899.90 C 2864.49 1911.61 2865.72 1923.27 2865.52 1934.98 C 2865.25 1948.35 2866.60 1961.66 2866.33 1975.03 C 2866.64 1987.01 2866.68 1999.00 2866.77 2010.99 C 2867.85 2024.95 2867.26 2038.98 2867.73 2052.97 C 2868.58 2068.63 2868.41 2084.34 2868.67 2100.03 C 2869.66 2120.65 2869.52 2141.34 2869.79 2162.00 C 2870.85 2175.14 2870.28 2188.34 2870.69 2201.51 C 2872.04 2222.64 2870.88 2243.89 2872.33 2265.02 C 2872.36 2274.65 2872.36 2284.29 2872.69 2293.93 C 2872.49 2311.29 2873.86 2328.60 2873.58 2345.97 C 2874.10 2354.43 2873.20 2362.89 2873.64 2371.36 C 2873.74 2366.15 2873.42 2360.91 2874.32 2355.76 C 2873.86 2362.16 2875.26 2368.85 2872.86 2375.01 C 2870.13 2382.84 2864.01 2389.27 2856.44 2392.61 C 2851.69 2395.07 2846.21 2394.16 2841.09 2394.52 C 2830.06 2394.56 2819.04 2394.63 2808.04 2395.28 C 2793.03 2395.20 2778.04 2395.93 2763.04 2395.76 C 2750.05 2396.65 2737.03 2396.44 2724.03 2396.68 C 2705.37 2397.76 2686.66 2397.33 2667.98 2397.89 C 2656.14 2398.78 2644.27 2398.12 2632.43 2398.71 C 2616.94 2399.14 2601.46 2399.38 2585.98 2399.59 C 2575.30 2399.35 2564.69 2400.60 2554.02 2400.37 C 2542.67 2400.63 2531.33 2400.64 2519.99 2400.85 C 2506.69 2401.85 2493.36 2401.19 2480.06 2401.84 C 2467.36 2402.56 2454.65 2402.07 2441.96 2402.62 C 2428.26 2402.32 2414.62 2403.68 2400.93 2403.44 C 2389.61 2403.90 2378.27 2403.41 2366.97 2404.19 C 2351.98 2404.72 2336.99 2404.38 2322.02 2405.24 C 2298.33 2405.13 2274.71 2406.54 2251.03 2406.49 C 2229.03 2406.73 2207.07 2407.88 2185.07 2407.64 C 2181.04 2406.88 2177.32 2405.02 2173.37 2404.00 C 2167.80 2402.95 2163.13 2399.52 2158.33 2396.74 C 2137.92 2379.14 2117.53 2361.51 2097.22 2343.79 C 2088.87 2337.48 2083.72 2328.06 2078.87 2319.02 C 2077.74 2313.96 2075.54 2309.16 2075.20 2303.96 C 2074.16 2299.29 2074.40 2294.51 2074.30 2289.78 C 2073.35 2274.23 2073.65 2258.63 2073.33 2243.05 C 2073.65 2235.64 2072.41 2228.32 2072.61 2220.92 C 2072.61 2202.95 2072.10 2184.99 2071.60 2167.04 C 2071.14 2154.70 2071.89 2142.31 2070.73 2130.01 C 2070.70 2117.67 2070.44 2105.33 2070.31 2092.99 C 2070.53 2083.30 2069.25 2073.69 2069.55 2064.00 C 2069.70 2048.32 2068.63 2032.69 2068.62 2017.02 C 2068.09 2004.03 2068.90 1990.99 2067.70 1978.04 C 2067.71 1963.02 2067.22 1948.01 2067.27 1932.99 C 2066.06 1919.69 2066.77 1906.31 2066.30 1892.98 C 2065.36 1879.66 2065.81 1866.29 2065.39 1852.95 C 2065.71 1838.29 2064.27 1823.71 2064.55 1809.06 C 2064.15 1797.34 2064.64 1785.59 2063.68 1773.91 C 2063.25 1760.62 2063.89 1747.29 2062.74 1734.03 C 2062.76 1717.03 2062.24 1700.05 2062.27 1683.05 C 2061.07 1670.41 2061.81 1657.69 2061.31 1645.03 C 2061.36 1639.74 2060.80 1634.41 2061.66 1629.19 C 2063.38 1623.42 2067.01 1618.47 2070.97 1614.03 C 2075.55 1609.47 2081.92 1607.18 2088.10 1605.77 C 2100.40 1605.05 2112.75 1605.76 2125.05 1604.79 C 2141.04 1604.75 2157.02 1604.13 2173.01 1604.23 C 2186.60 1603.28 2200.24 1603.60 2213.86 1603.28 C 2225.19 1602.34 2236.59 1602.85 2247.96 1602.38 C 2261.63 1602.69 2275.27 1601.38 2288.94 1601.59 C 2303.63 1601.48 2318.30 1600.80 2332.99 1600.71 C 2344.64 1600.11 2356.35 1600.87 2367.98 1599.75 C 2380.31 1599.76 2392.63 1599.34 2404.96 1599.31 C 2414.63 1599.47 2424.28 1598.40 2433.96 1598.53 C 2449.32 1598.75 2464.65 1597.40 2480.02 1597.73 C 2492.66 1597.07 2505.35 1597.82 2517.97 1596.72 C 2532.63 1596.63 2547.28 1596.25 2561.95 1596.19 C 2575.27 1595.19 2588.64 1595.71 2601.99 1595.20 C 2612.79 1594.51 2623.61 1594.83 2634.43 1594.56 C 2645.58 1593.98 2656.78 1594.77 2667.91 1593.69 M 2718.09 1728.27 C 2705.12 1728.60 2692.15 1728.50 2679.19 1728.76 C 2671.16 1729.78 2663.04 1729.16 2654.98 1729.46 C 2642.03 1729.86 2629.03 1729.20 2616.12 1730.39 C 2603.77 1730.67 2591.38 1730.18 2579.07 1731.27 C 2563.71 1731.37 2548.35 1731.65 2533.00 1731.70 C 2529.95 1731.63 2526.96 1732.40 2523.94 1732.35 C 2506.60 1732.42 2489.27 1732.74 2471.94 1732.83 C 2459.69 1734.28 2447.30 1732.86 2435.06 1734.16 C 2415.05 1734.78 2394.97 1734.07 2375.00 1735.37 C 2366.32 1735.40 2357.65 1735.50 2348.99 1735.63 C 2338.41 1735.91 2327.80 1735.34 2317.28 1736.44 C 2309.52 1736.55 2301.76 1736.59 2294.01 1736.66 C 2276.04 1737.95 2257.98 1737.22 2239.97 1737.84 C 2226.90 1738.89 2213.69 1738.23 2200.56 1738.64 C 2200.49 1743.77 2200.69 1748.91 2200.69 1754.06 C 2201.75 1771.34 2201.38 1788.70 2201.68 1806.03 C 2202.01 1815.27 2201.37 1824.55 2202.46 1833.75 C 2202.53 1840.50 2202.62 1847.25 2202.68 1854.00 C 2203.92 1874.32 2203.26 1894.72 2203.92 1915.06 C 2204.51 1919.32 2204.30 1923.65 2204.41 1927.96 C 2204.58 1943.63 2204.74 1959.30 2204.85 1974.97 C 2204.55 1979.60 2205.75 1984.15 2205.53 1988.79 C 2205.71 1995.85 2205.36 2002.95 2206.11 2009.99 C 2206.79 2028.33 2206.04 2046.74 2207.31 2065.05 C 2207.44 2086.02 2207.78 2107.00 2207.87 2127.98 C 2209.25 2138.93 2207.96 2150.02 2209.17 2160.99 C 2209.73 2181.00 2209.16 2201.06 2210.36 2221.04 C 2210.50 2239.67 2210.78 2258.31 2210.86 2276.95 C 2212.09 2287.58 2211.27 2298.31 2211.83 2308.98 C 2213.05 2321.69 2211.74 2334.65 2213.06 2347.30 C 2213.30 2341.89 2213.02 2336.48 2213.61 2331.10 C 2212.82 2336.51 2214.11 2341.86 2213.63 2347.28 C 2221.40 2347.48 2229.21 2347.51 2236.96 2346.74 C 2250.96 2346.62 2264.95 2346.35 2278.95 2346.34 C 2298.25 2344.79 2317.70 2346.19 2337.01 2344.70 C 2351.00 2344.57 2364.99 2344.37 2378.99 2344.27 C 2404.31 2342.65 2429.80 2344.12 2455.12 2342.48 C 2461.69 2342.41 2468.28 2342.39 2474.86 2342.24 C 2482.21 2341.31 2489.64 2341.84 2497.04 2341.55 C 2510.33 2341.17 2523.68 2341.78 2536.93 2340.63 C 2549.63 2340.59 2562.33 2340.29 2575.04 2340.29 C 2583.32 2339.23 2591.69 2339.74 2600.04 2339.51 C 2607.38 2339.80 2614.66 2338.53 2622.02 2338.79 C 2637.01 2338.67 2652.01 2338.42 2667.01 2338.30 C 2674.28 2337.34 2681.63 2337.79 2688.97 2337.59 C 2702.72 2337.54 2716.49 2337.08 2730.25 2337.36 C 2723.45 2336.75 2716.62 2336.84 2709.82 2336.52 C 2717.54 2336.33 2725.27 2336.98 2733.02 2336.65 C 2747.34 2336.24 2761.72 2336.90 2776.01 2335.68 C 2788.51 2335.73 2801.01 2335.21 2813.52 2335.41 C 2814.53 2333.76 2814.34 2331.79 2814.21 2330.00 C 2813.42 2323.39 2813.71 2316.72 2813.75 2310.10 C 2812.99 2297.08 2813.86 2284.00 2812.69 2271.02 C 2812.61 2262.33 2812.53 2253.65 2812.40 2244.97 C 2812.62 2233.96 2811.43 2223.02 2811.61 2212.02 C 2811.27 2199.67 2811.79 2187.28 2810.74 2174.96 C 2810.68 2159.97 2810.30 2144.98 2810.28 2129.99 C 2808.80 2111.20 2810.13 2092.29 2808.72 2073.51 C 2808.67 2063.99 2808.45 2054.48 2808.42 2044.97 C 2808.65 2034.98 2807.48 2025.05 2807.67 2015.07 C 2807.34 2002.06 2807.71 1989.01 2806.75 1976.04 C 2806.39 1963.03 2806.96 1949.98 2805.82 1937.02 C 2805.81 1921.70 2805.45 1906.37 2805.39 1891.05 C 2805.58 1882.02 2803.96 1873.03 2804.97 1864.02 C 2804.11 1849.04 2804.38 1833.98 2804.16 1818.97 C 2803.07 1807.34 2803.55 1795.63 2803.31 1783.97 C 2802.21 1768.02 2802.65 1752.01 2802.31 1736.03 C 2802.07 1732.79 2802.76 1729.41 2801.60 1726.33 C 2792.75 1726.96 2783.85 1726.06 2775.05 1727.22 C 2761.40 1727.41 2747.74 1727.49 2734.09 1727.71 C 2728.74 1727.85 2723.37 1727.43 2718.09 1728.27 Z" />
<path fill="#000000" opacity="1.00" d=" M 2968.90 1598.00 C 2974.27 1595.51 2980.25 1596.42 2985.98 1596.47 C 3006.01 1596.43 3026.00 1597.63 3046.04 1597.58 C 3055.36 1597.42 3064.66 1598.63 3074.00 1598.25 C 3085.67 1598.78 3097.37 1598.27 3109.03 1599.20 C 3126.33 1599.60 3143.66 1599.25 3160.94 1600.28 C 3189.97 1600.48 3218.96 1601.73 3248.00 1601.79 C 3258.62 1602.72 3269.29 1602.26 3279.95 1602.64 C 3295.61 1602.66 3311.25 1603.74 3326.93 1603.53 C 3347.61 1604.64 3368.34 1604.04 3389.03 1605.24 C 3401.68 1605.19 3414.34 1605.66 3427.01 1605.69 C 3447.29 1606.93 3467.66 1605.97 3487.96 1607.28 C 3499.62 1607.16 3511.27 1607.78 3522.95 1607.72 C 3537.61 1608.83 3552.35 1607.94 3567.02 1609.09 C 3582.72 1609.31 3598.42 1609.36 3614.13 1609.76 C 3620.74 1610.53 3627.40 1609.88 3634.05 1610.30 C 3643.20 1610.11 3652.66 1613.47 3659.00 1620.23 C 3671.73 1632.17 3684.62 1643.93 3697.46 1655.75 C 3711.72 1669.46 3727.77 1681.76 3738.66 1698.54 C 3741.55 1702.81 3743.81 1707.66 3744.33 1712.86 C 3744.60 1718.23 3743.84 1723.59 3743.77 1728.96 C 3743.78 1754.35 3742.52 1779.69 3742.40 1805.07 C 3742.32 1812.39 3742.47 1819.72 3741.76 1827.01 C 3741.67 1840.63 3741.35 1854.24 3741.23 1867.86 C 3740.38 1879.22 3740.81 1890.63 3740.30 1902.02 C 3740.71 1912.71 3739.39 1923.35 3739.62 1934.04 C 3739.54 1944.37 3739.21 1954.69 3739.28 1965.03 C 3738.29 1982.00 3738.47 1999.03 3738.19 2016.03 C 3737.30 2031.68 3737.38 2047.36 3737.21 2063.04 C 3736.14 2076.99 3736.67 2091.00 3736.24 2104.99 C 3736.51 2114.35 3735.41 2123.66 3735.50 2133.04 C 3735.53 2153.45 3734.42 2173.83 3734.32 2194.25 C 3733.58 2206.48 3733.76 2218.73 3733.46 2230.98 C 3733.73 2243.65 3732.37 2256.26 3732.69 2268.94 C 3732.22 2281.28 3732.71 2293.66 3731.75 2305.99 C 3731.77 2318.00 3731.24 2330.01 3731.31 2342.03 C 3730.35 2357.99 3730.64 2374.00 3730.28 2389.99 C 3729.38 2404.36 3715.73 2417.54 3701.01 2415.78 C 3689.01 2415.18 3676.98 2415.94 3665.02 2414.83 C 3651.02 2414.75 3637.04 2414.48 3623.06 2414.29 C 3612.03 2413.39 3600.97 2413.98 3589.95 2413.39 C 3578.26 2413.73 3566.64 2412.35 3554.97 2412.68 C 3541.63 2412.16 3528.27 2412.74 3514.97 2411.70 C 3486.45 2411.70 3457.97 2410.27 3429.46 2410.21 C 3418.34 2409.23 3407.17 2409.77 3396.04 2409.34 C 3381.34 2409.45 3366.68 2408.23 3351.98 2408.49 C 3324.32 2407.46 3296.64 2407.55 3268.98 2406.49 C 3256.99 2406.50 3245.00 2406.12 3233.02 2406.13 C 3221.04 2405.04 3208.98 2405.74 3196.99 2405.12 C 3188.70 2404.31 3180.38 2405.00 3172.10 2404.51 C 3165.72 2404.14 3159.35 2404.53 3153.00 2404.22 C 3141.40 2403.34 3129.77 2403.79 3118.16 2403.37 C 3099.42 2402.36 3080.63 2402.89 3061.88 2402.16 C 3054.32 2401.38 3046.69 2402.37 3039.17 2401.32 C 3035.36 2400.13 3031.78 2398.31 3027.97 2397.21 C 3022.57 2395.92 3018.13 2392.36 3013.59 2389.39 C 2993.97 2370.67 2974.04 2352.27 2954.42 2333.54 C 2946.61 2327.20 2942.40 2317.76 2937.73 2309.11 C 2936.41 2303.42 2934.55 2297.79 2934.39 2291.93 C 2933.49 2285.66 2934.54 2279.35 2934.18 2273.05 C 2934.75 2259.38 2934.25 2245.68 2935.25 2232.04 C 2935.24 2219.44 2935.66 2206.86 2935.64 2194.27 C 2936.95 2173.90 2935.97 2153.44 2937.27 2133.07 C 2937.22 2121.06 2937.76 2109.06 2937.70 2097.06 C 2939.05 2075.74 2937.95 2054.32 2939.33 2033.01 C 2939.29 2020.35 2939.79 2007.70 2939.76 1995.04 C 2941.06 1975.73 2940.06 1956.33 2941.37 1937.03 C 2941.36 1923.36 2941.78 1909.70 2941.77 1896.04 C 2942.88 1883.38 2942.18 1870.64 2942.80 1857.96 C 2942.44 1847.97 2943.66 1838.01 2943.50 1828.03 C 2943.41 1809.98 2944.60 1791.99 2944.53 1773.94 C 2944.30 1763.94 2945.47 1753.99 2945.27 1744.00 C 2945.45 1728.64 2946.03 1713.29 2945.48 1697.95 C 2945.69 1695.03 2944.57 1692.01 2945.58 1689.22 C 2945.98 1695.49 2945.15 1701.84 2946.10 1708.12 C 2946.40 1693.75 2946.52 1679.39 2946.76 1665.02 C 2947.67 1655.74 2947.07 1646.41 2947.50 1637.11 C 2947.97 1629.90 2946.38 1622.28 2949.80 1615.57 C 2953.75 1607.73 2959.99 1600.17 2968.90 1598.00 M 3082.71 1733.69 C 3082.41 1744.79 3082.95 1755.94 3081.83 1767.00 C 3081.75 1781.33 3081.56 1795.66 3081.37 1809.99 C 3081.48 1818.69 3080.41 1827.33 3080.64 1836.05 C 3080.28 1851.04 3080.77 1866.07 3079.66 1881.02 C 3079.34 1896.33 3079.77 1911.69 3078.68 1926.97 C 3078.35 1942.00 3078.78 1957.07 3077.71 1972.07 C 3077.63 1984.65 3077.38 1997.23 3077.33 2009.82 C 3075.90 2029.22 3077.10 2048.76 3075.78 2068.16 C 3076.86 2074.42 3075.27 2080.67 3075.50 2086.96 C 3075.40 2092.98 3075.37 2099.01 3075.30 2105.04 C 3075.50 2111.05 3074.33 2117.00 3074.66 2123.03 C 3074.23 2137.36 3074.84 2151.74 3073.68 2166.03 C 3073.66 2178.70 3073.32 2191.37 3073.32 2204.05 C 3072.13 2217.64 3072.74 2231.34 3072.33 2244.98 C 3072.48 2264.67 3070.98 2284.28 3071.30 2303.98 C 3070.09 2316.78 3070.72 2329.69 3070.32 2342.55 C 3076.87 2342.49 3083.42 2342.66 3089.99 2342.67 C 3108.26 2344.26 3126.71 2342.74 3144.99 2344.33 C 3159.32 2344.34 3173.65 2344.69 3187.99 2344.73 C 3201.94 2345.86 3215.99 2345.35 3229.99 2345.70 C 3235.66 2345.36 3241.25 2346.70 3246.94 2346.38 C 3260.96 2346.71 3275.04 2346.23 3289.03 2347.37 C 3304.03 2347.40 3319.04 2347.77 3334.05 2347.77 C 3336.63 2347.75 3339.20 2348.41 3341.83 2348.41 C 3357.21 2348.51 3372.61 2348.78 3388.00 2348.85 C 3401.90 2350.34 3415.96 2348.93 3429.88 2350.32 C 3441.92 2350.72 3454.03 2350.07 3466.05 2351.26 C 3480.39 2351.24 3494.73 2351.63 3509.08 2351.65 C 3523.00 2352.82 3537.02 2352.27 3550.99 2352.65 C 3557.01 2352.31 3562.96 2353.68 3569.01 2353.34 C 3583.32 2353.67 3597.69 2353.17 3611.97 2354.30 C 3625.63 2354.36 3639.30 2354.61 3652.97 2354.72 C 3659.11 2355.53 3665.31 2355.28 3671.52 2355.47 C 3671.77 2349.31 3671.37 2343.14 3672.12 2337.02 C 3672.59 2319.36 3672.17 2301.65 3673.25 2284.02 C 3673.55 2270.67 3673.12 2257.28 3674.16 2243.97 C 3674.48 2228.65 3674.08 2213.30 3675.14 2198.01 C 3675.26 2182.02 3675.49 2166.03 3675.72 2150.05 C 3675.58 2140.69 3676.68 2131.40 3676.46 2122.04 C 3676.32 2104.67 3677.53 2087.37 3677.51 2070.01 C 3677.35 2060.65 3678.44 2051.36 3678.25 2042.02 C 3678.65 2026.34 3678.20 2010.63 3679.27 1994.99 C 3679.38 1981.34 3679.61 1967.68 3679.73 1954.03 C 3680.72 1940.67 3680.36 1927.24 3680.65 1913.86 C 3682.00 1894.61 3680.84 1875.25 3682.23 1856.01 C 3682.29 1844.95 3682.46 1833.90 3682.61 1822.85 C 3683.68 1807.60 3683.15 1792.29 3683.59 1777.01 C 3683.46 1766.85 3684.52 1756.74 3684.36 1746.58 C 3673.91 1746.23 3663.42 1746.87 3653.03 1745.75 C 3636.99 1745.63 3620.95 1745.41 3604.93 1745.25 L 3604.13 1744.71 C 3589.08 1744.68 3574.03 1744.33 3558.98 1744.27 C 3546.05 1743.13 3533.03 1743.66 3520.06 1743.32 C 3514.34 1743.63 3508.71 1742.35 3503.01 1742.65 C 3488.67 1742.35 3474.30 1742.80 3460.02 1741.68 C 3447.66 1741.64 3435.30 1741.39 3422.94 1741.29 C 3416.00 1740.35 3408.99 1740.77 3402.02 1740.56 C 3380.67 1740.64 3359.39 1739.27 3338.05 1739.40 C 3333.35 1739.67 3328.73 1738.47 3324.05 1738.76 C 3309.32 1738.62 3294.59 1738.38 3279.86 1738.29 L 3279.04 1737.75 C 3265.04 1737.65 3251.04 1737.40 3237.04 1737.31 C 3219.09 1735.77 3200.97 1737.30 3183.03 1735.71 C 3170.01 1735.72 3156.99 1735.35 3143.98 1735.34 C 3128.35 1734.05 3112.61 1734.87 3096.95 1734.16 C 3092.22 1733.47 3087.44 1733.78 3082.71 1733.69 Z" />
<path fill="#000000" opacity="1.00" d=" M 1215.97 1598.58 C 1223.92 1597.64 1231.97 1598.76 1239.94 1597.85 C 1255.98 1597.85 1272.02 1598.31 1288.06 1598.24 C 1306.37 1597.14 1324.74 1598.79 1343.05 1598.02 C 1365.33 1597.36 1387.68 1598.95 1409.96 1597.81 C 1423.32 1597.92 1436.69 1598.24 1450.06 1598.20 C 1473.01 1597.21 1496.03 1598.93 1518.99 1597.79 C 1532.33 1597.88 1545.67 1598.18 1559.01 1598.21 C 1565.69 1598.53 1572.34 1597.55 1579.03 1597.83 C 1591.35 1597.93 1603.67 1598.19 1616.00 1598.23 C 1635.65 1597.31 1655.34 1598.34 1675.01 1598.23 C 1695.63 1596.95 1716.34 1599.07 1736.96 1597.77 C 1749.97 1597.79 1762.98 1598.06 1775.99 1598.17 C 1782.97 1598.47 1789.92 1597.46 1796.91 1597.79 C 1809.96 1597.84 1823.00 1598.13 1836.06 1598.21 C 1850.00 1597.29 1864.00 1598.04 1877.97 1598.05 C 1885.26 1597.93 1892.73 1599.98 1898.58 1604.45 C 1916.51 1620.19 1934.38 1636.00 1952.20 1651.85 C 1963.83 1661.82 1975.55 1672.06 1984.04 1684.95 C 1986.87 1689.12 1989.23 1693.87 1989.42 1699.02 C 1989.41 1920.69 1989.45 2142.36 1989.44 2364.02 C 1989.34 2369.03 1989.75 2374.06 1989.23 2379.07 C 1986.54 2391.76 1974.47 2403.32 1960.94 2401.81 C 1955.30 2401.79 1949.66 2401.55 1944.06 2402.15 C 1924.04 2402.39 1903.98 2401.15 1883.98 2402.21 C 1869.30 2402.08 1854.63 2401.77 1839.96 2401.77 C 1825.64 2402.72 1811.28 2401.79 1796.94 2401.84 C 1786.95 2401.49 1776.99 2402.47 1767.01 2402.16 C 1750.67 2402.13 1734.30 2401.27 1717.99 2402.22 C 1703.32 2402.11 1688.66 2401.80 1674.00 2401.77 C 1659.01 2402.75 1643.98 2401.79 1628.98 2401.84 C 1620.63 2401.45 1612.33 2402.51 1603.99 2402.19 C 1587.98 2402.25 1571.96 2401.28 1555.98 2402.23 C 1541.29 2402.21 1526.62 2401.90 1511.94 2401.79 C 1489.32 2403.11 1466.62 2400.98 1444.00 2402.24 C 1429.99 2402.20 1415.98 2401.93 1401.98 2401.80 C 1383.02 2402.78 1364.02 2401.79 1345.04 2401.80 C 1331.03 2402.69 1316.98 2401.98 1302.95 2401.96 C 1297.99 2402.17 1293.58 2399.58 1288.96 2398.22 C 1279.56 2395.89 1271.85 2389.59 1265.02 2382.99 C 1245.89 2365.79 1226.79 2348.56 1207.71 2331.32 C 1203.14 2325.35 1199.29 2318.89 1195.75 2312.27 C 1192.16 2301.94 1190.71 2290.93 1191.14 2280.01 C 1191.48 2260.00 1191.16 2240.00 1191.15 2220.00 C 1191.59 2198.66 1190.93 2177.32 1191.24 2155.99 C 1191.52 2140.31 1190.90 2124.67 1191.13 2109.00 C 1191.58 2084.01 1190.87 2059.01 1191.29 2034.02 C 1191.12 2012.00 1191.15 1989.99 1191.28 1967.98 C 1190.80 1947.33 1191.45 1926.67 1191.25 1906.01 C 1190.90 1887.01 1191.43 1868.01 1191.24 1849.02 C 1190.83 1832.33 1191.37 1815.64 1191.29 1798.95 C 1190.26 1775.98 1192.20 1752.92 1190.78 1729.94 C 1191.22 1709.96 1191.67 1689.94 1190.81 1669.98 C 1191.20 1658.31 1191.24 1646.64 1191.28 1634.97 C 1191.25 1632.28 1191.49 1629.56 1190.86 1626.95 C 1191.31 1618.42 1196.40 1611.08 1202.22 1605.20 C 1206.07 1601.70 1211.15 1600.20 1215.97 1598.58 M 1328.48 1733.45 C 1328.54 1936.23 1328.58 2139.02 1328.49 2341.80 C 1529.08 2341.84 1729.68 2341.88 1930.28 2341.76 C 1930.25 2139.02 1930.17 1936.27 1930.28 1733.53 C 1889.85 1733.24 1849.40 1733.49 1808.96 1733.41 C 1648.80 1733.43 1488.64 1733.41 1328.48 1733.45 Z" />
<path fill="#000000" opacity="1.00" d=" M 597.17 1790.60 C 641.15 1783.82 685.46 1778.85 730.00 1778.60 C 739.33 1778.40 748.60 1779.52 757.93 1779.58 C 778.12 1780.97 798.39 1783.30 817.90 1788.94 C 837.07 1794.11 855.77 1802.86 869.99 1817.00 C 881.92 1829.04 888.70 1845.24 892.01 1861.67 C 895.18 1879.71 894.07 1898.70 887.62 1915.94 C 881.28 1934.97 869.69 1951.73 857.04 1967.09 C 846.18 1980.75 833.40 1992.77 819.98 2003.88 C 819.38 2004.50 818.18 2005.04 818.45 2006.12 C 834.05 2012.67 849.19 2020.43 863.24 2029.91 C 879.00 2040.38 893.53 2053.02 904.70 2068.39 C 914.57 2081.27 921.33 2096.34 925.46 2112.00 C 928.50 2123.41 929.09 2135.36 928.43 2147.11 C 925.15 2162.73 915.07 2175.98 903.52 2186.59 C 882.62 2204.77 857.72 2217.59 832.52 2228.70 C 806.66 2240.17 779.95 2249.58 753.02 2258.19 C 721.92 2267.82 690.58 2276.66 658.98 2284.49 C 643.88 2288.47 628.60 2291.74 613.49 2295.67 C 612.17 2260.12 610.89 2224.55 609.58 2189.01 C 609.40 2181.64 609.35 2174.28 608.72 2166.96 C 608.66 2150.65 607.32 2134.42 607.40 2118.12 C 606.01 2106.12 607.20 2093.99 605.86 2081.99 C 605.61 2072.76 605.58 2063.52 605.31 2054.29 C 604.32 2046.90 604.84 2039.43 604.50 2032.01 C 604.38 2017.32 603.18 2002.69 603.31 1988.00 C 601.78 1973.61 603.12 1959.07 601.60 1944.70 C 601.46 1934.46 601.29 1924.22 601.13 1913.98 C 600.07 1904.35 600.45 1894.64 600.14 1884.97 C 599.06 1876.34 599.54 1867.62 599.25 1858.96 C 597.80 1846.39 599.13 1833.66 597.70 1821.09 C 597.49 1810.92 597.35 1800.76 597.17 1790.60 M 709.99 1883.29 C 705.32 1883.69 700.75 1884.91 696.04 1884.74 C 697.06 1884.91 698.09 1885.10 699.14 1885.32 C 696.14 1885.39 693.03 1885.15 690.22 1886.36 C 690.47 1895.90 690.59 1905.45 690.68 1915.00 C 691.72 1928.24 691.36 1941.57 691.68 1954.85 C 698.73 1953.61 705.16 1949.97 711.84 1947.44 C 730.43 1939.08 749.63 1930.73 764.84 1916.82 C 769.80 1911.73 775.27 1905.56 774.64 1897.94 C 774.83 1893.38 771.82 1889.30 768.16 1886.90 C 762.46 1883.18 755.54 1882.45 748.96 1881.57 C 735.95 1880.86 722.87 1881.37 709.99 1883.29 M 707.05 2096.99 C 709.62 2120.91 711.70 2144.87 714.44 2168.77 C 726.07 2165.27 737.70 2161.74 749.11 2157.55 C 763.89 2152.02 778.73 2145.89 791.43 2136.37 C 797.05 2131.65 803.02 2125.82 803.40 2118.02 C 803.37 2111.11 797.80 2105.90 792.21 2102.73 C 785.22 2099.02 777.71 2096.32 770.00 2094.57 C 758.78 2092.08 747.40 2090.15 735.96 2089.11 C 726.13 2087.63 716.18 2087.79 706.33 2086.54 C 706.38 2090.02 706.38 2093.54 707.05 2096.99 Z" />
<path fill="#000000" opacity="1.00" d=" M 2449.03 1779.56 C 2461.70 1779.31 2474.36 1778.70 2487.04 1778.82 C 2495.01 1779.74 2503.06 1779.47 2511.08 1779.77 L 2511.77 1780.32 C 2533.74 1781.46 2555.71 1784.72 2576.84 1791.05 C 2596.52 1797.08 2615.95 1806.47 2629.78 1822.13 C 2641.00 1834.41 2646.68 1850.71 2649.42 1866.85 C 2652.75 1888.15 2648.90 1910.21 2639.41 1929.51 C 2631.12 1947.43 2618.49 1962.84 2605.45 1977.49 C 2595.80 1987.90 2585.27 1997.45 2574.11 2006.22 C 2573.43 2006.69 2573.08 2007.37 2573.07 2008.25 C 2593.24 2016.80 2612.22 2028.17 2629.40 2041.77 C 2642.51 2051.96 2653.57 2064.64 2662.60 2078.55 C 2674.38 2097.78 2681.27 2120.29 2680.76 2142.93 C 2681.48 2152.99 2676.95 2162.43 2671.81 2170.77 C 2661.72 2186.25 2646.60 2197.50 2631.06 2207.07 C 2595.55 2228.13 2556.44 2242.10 2517.22 2254.49 C 2493.68 2261.87 2469.88 2268.36 2445.95 2274.33 C 2437.95 2276.09 2430.16 2278.97 2422.01 2279.85 C 2422.99 2279.98 2424.00 2280.15 2425.04 2280.34 C 2420.16 2280.24 2415.53 2281.95 2410.80 2282.85 C 2394.83 2286.86 2378.66 2289.94 2362.64 2293.69 C 2362.82 2282.46 2362.17 2271.24 2362.31 2260.02 C 2361.28 2244.37 2361.69 2228.65 2361.33 2212.98 C 2361.57 2203.62 2360.62 2194.31 2360.67 2184.97 C 2360.58 2170.33 2360.28 2155.69 2360.29 2141.06 C 2359.29 2130.06 2359.85 2119.01 2359.54 2107.99 C 2359.28 2092.65 2359.81 2077.28 2358.72 2061.99 C 2358.45 2034.65 2358.74 2007.30 2357.66 1979.99 C 2357.42 1952.26 2357.29 1924.54 2357.43 1896.83 C 2356.92 1904.33 2357.85 1911.89 2356.82 1919.37 C 2356.61 1892.57 2356.37 1865.77 2356.21 1838.98 C 2355.12 1828.03 2355.88 1817.00 2355.51 1806.03 C 2355.59 1799.98 2355.04 1793.90 2355.71 1787.89 C 2367.22 1787.42 2378.55 1785.14 2390.03 1784.37 C 2402.98 1782.64 2416.03 1781.99 2429.02 1780.64 C 2435.71 1780.79 2442.32 1779.47 2449.03 1779.56 M 2447.25 1885.60 C 2447.14 1908.68 2447.32 1931.77 2447.35 1954.86 C 2457.48 1951.55 2467.34 1947.45 2477.17 1943.33 C 2493.21 1936.24 2509.41 1928.50 2522.40 1916.47 C 2528.11 1910.75 2533.87 1902.20 2530.08 1893.92 C 2525.61 1885.74 2515.56 1883.36 2507.01 1882.48 C 2487.06 1879.97 2467.04 1883.27 2447.25 1885.60 M 2459.29 2086.51 C 2459.44 2089.71 2459.32 2092.97 2459.80 2096.18 C 2460.74 2101.40 2460.16 2106.77 2461.28 2112.00 C 2461.40 2118.40 2462.58 2124.71 2462.64 2131.13 C 2463.69 2137.04 2463.30 2143.09 2464.35 2149.03 C 2464.42 2155.62 2465.76 2162.12 2465.61 2168.74 C 2471.42 2167.50 2477.06 2165.53 2482.80 2164.00 C 2501.65 2158.15 2520.64 2151.98 2537.65 2141.76 C 2544.54 2137.44 2551.62 2132.23 2554.81 2124.46 C 2556.29 2120.10 2556.02 2114.85 2552.99 2111.21 C 2547.12 2103.75 2537.75 2100.54 2529.15 2097.43 C 2506.46 2090.62 2482.75 2088.52 2459.29 2086.51 Z" />
<path fill="#000000" opacity="1.00" d=" M 1578.01 1780.94 C 1616.36 1780.93 1654.72 1780.94 1693.07 1780.93 C 1744.76 1934.68 1796.39 2088.45 1848.04 2242.21 C 1805.42 2252.38 1762.83 2262.68 1720.19 2272.72 C 1707.30 2220.71 1694.27 2168.73 1681.26 2116.75 C 1650.80 2116.76 1620.34 2116.74 1589.88 2116.76 C 1576.13 2172.17 1562.40 2227.59 1548.68 2283.01 C 1509.87 2277.42 1471.08 2271.69 1432.26 2266.10 C 1480.71 2104.34 1529.44 1942.66 1578.01 1780.94 M 1609.37 2037.83 C 1626.54 2037.12 1643.70 2036.41 1660.87 2035.70 C 1652.30 2001.76 1643.76 1967.82 1635.14 1933.89 C 1626.43 1968.51 1617.95 2003.18 1609.37 2037.83 Z" />
<path fill="#000000" opacity="1.00" d=" M 3190.31 1842.52 C 3234.72 1831.90 3279.21 1821.62 3323.65 1811.15 C 3342.80 1863.36 3361.94 1915.57 3381.09 1967.79 C 3383.42 1973.58 3385.01 1979.72 3387.85 1985.30 C 3410.20 1929.46 3432.37 1873.55 3454.71 1817.70 C 3495.61 1822.25 3536.52 1826.75 3577.43 1831.30 C 3533.14 1920.35 3488.79 2009.38 3444.50 2098.44 C 3443.16 2101.61 3440.84 2104.47 3440.31 2107.93 C 3437.49 2170.98 3434.71 2234.03 3431.91 2297.08 C 3390.88 2293.71 3349.84 2290.31 3308.81 2286.91 C 3317.72 2226.65 3326.75 2166.41 3335.61 2106.14 C 3287.12 2018.30 3238.84 1930.34 3190.31 1842.52 Z" />
</g>
</svg>
