<?xml version="1.0" encoding="UTF-8" ?>
<!DOCTYPE svg PUBLIC "-//W3C//DTD SVG 1.1//EN" "http://www.w3.org/Graphics/SVG/1.1/DTD/svg11.dtd">
<svg width="1200pt" height="1200pt" viewBox="0 0 1200 1200" version="1.1" xmlns="http://www.w3.org/2000/svg">
<g id="#000000ff">
<path fill="#000000" opacity="1.00" d=" M 594.54 29.69 C 614.91 26.64 636.31 31.15 653.68 42.23 C 665.28 49.36 674.03 59.95 683.75 69.28 C 838.57 224.11 993.41 378.93 1148.23 533.76 C 1161.68 547.20 1170.54 565.14 1172.93 584.01 C 1176.51 610.25 1167.17 637.80 1148.41 656.49 C 993.60 811.31 838.78 966.12 683.96 1120.94 C 673.61 1130.93 664.23 1142.29 651.57 1149.51 C 634.69 1159.59 614.33 1163.63 594.88 1160.80 C 576.41 1158.22 558.91 1149.43 545.74 1136.25 C 391.22 981.75 236.73 827.24 82.22 672.74 C 72.79 662.86 62.02 654.04 54.65 642.39 C 43.88 625.84 39.08 605.54 41.24 585.92 C 43.28 566.22 52.39 547.39 66.46 533.47 C 224.79 375.14 383.12 216.81 541.44 58.48 C 555.26 43.29 574.08 32.52 594.54 29.69 M 596.49 39.67 C 580.94 41.83 566.13 48.93 554.69 59.69 C 550.94 63.26 547.35 67.00 543.67 70.64 C 389.16 225.15 234.66 379.65 80.15 534.16 C 75.33 539.02 70.26 543.69 66.21 549.23 C 55.33 563.66 49.86 582.02 51.06 600.05 C 52.10 617.61 59.47 634.70 71.50 647.54 C 75.07 651.31 78.82 654.90 82.47 658.60 C 238.95 815.08 395.44 971.56 551.91 1128.05 C 562.12 1138.56 575.32 1146.16 589.60 1149.47 C 610.66 1154.54 633.76 1150.08 651.41 1137.50 C 658.28 1132.79 663.87 1126.57 669.77 1120.76 C 826.77 963.76 983.77 806.76 1140.77 649.76 C 1153.30 637.35 1161.38 620.55 1163.09 602.98 C 1165.05 584.39 1159.87 565.17 1148.82 550.09 C 1144.45 543.93 1138.85 538.82 1133.56 533.47 C 976.21 376.12 818.87 218.77 661.51 61.43 C 644.80 44.54 620.00 36.20 596.49 39.67 Z" />
<path fill="#000000" opacity="1.00" d=" M 595.46 59.52 C 615.41 55.55 637.03 62.20 651.32 76.67 C 806.99 232.33 962.66 388.01 1118.33 543.67 C 1123.47 548.91 1129.03 553.83 1133.12 559.99 C 1143.40 574.86 1146.64 594.30 1141.78 611.71 C 1138.92 622.19 1133.25 631.87 1125.55 639.52 C 967.53 797.54 809.52 955.56 651.50 1113.57 C 639.42 1125.81 622.12 1132.67 604.93 1131.95 C 588.13 1131.47 571.95 1123.65 560.65 1111.30 C 403.34 953.97 246.00 796.66 88.68 639.33 C 80.14 630.78 74.14 619.73 71.72 607.89 C 68.15 591.10 71.97 572.92 82.00 558.99 C 85.65 553.73 90.40 549.41 94.88 544.89 C 250.89 388.88 406.90 232.87 562.91 76.86 C 571.70 67.99 583.19 61.85 595.46 59.52 M 599.40 82.57 C 591.10 84.20 583.60 88.78 577.88 94.94 C 420.40 252.46 262.88 409.95 105.38 567.45 C 97.12 575.57 92.77 587.46 93.99 599.00 C 94.81 608.18 99.14 616.91 105.73 623.32 C 263.74 781.30 421.72 939.32 579.73 1097.30 C 588.03 1105.61 600.20 1109.82 611.86 1108.33 C 620.56 1107.33 628.82 1103.23 634.98 1097.02 C 791.99 940.02 948.99 783.01 1106.00 626.01 C 1110.33 621.89 1114.41 617.35 1116.89 611.84 C 1122.80 599.59 1121.58 584.29 1113.79 573.15 C 1109.84 567.54 1104.48 563.15 1099.79 558.20 C 946.63 405.05 793.48 251.88 640.31 98.73 C 636.44 94.90 632.78 90.75 628.11 87.86 C 619.70 82.47 609.17 80.56 599.40 82.57 Z" />
<path fill="#000000" opacity="1.00" d=" M 612.22 328.25 C 616.69 326.51 622.23 328.12 624.77 332.26 C 627.60 336.85 627.68 342.82 625.78 347.79 C 623.20 354.40 613.51 356.25 608.40 351.50 C 601.26 345.30 603.14 331.61 612.22 328.25 Z" />
<path fill="#000000" opacity="1.00" d=" M 447.71 336.74 C 451.97 332.74 459.58 333.54 462.76 338.55 C 479.56 334.42 497.83 334.32 513.98 341.05 C 528.19 347.07 538.98 359.95 543.15 374.74 C 548.11 392.15 548.02 411.11 542.51 428.39 C 537.80 443.09 526.33 455.20 512.13 461.14 C 497.51 467.28 481.37 468.93 465.64 468.34 C 464.02 471.23 461.60 474.12 458.01 474.26 C 452.37 475.05 447.07 469.58 448.34 463.95 C 452.43 430.24 451.60 396.10 447.56 362.44 C 442.12 359.46 440.10 351.86 443.53 346.67 C 445.91 343.76 444.91 339.38 447.71 336.74 M 466.18 359.18 C 469.63 388.42 471.19 418.00 468.87 447.40 C 482.44 446.98 496.75 446.54 509.02 440.03 C 519.56 434.40 525.32 422.64 526.53 411.12 C 527.78 398.63 527.41 385.18 520.98 374.02 C 516.40 365.82 508.01 360.26 498.98 358.12 C 488.18 355.59 476.88 356.57 466.18 359.18 Z" />
<path fill="#000000" opacity="1.00" d=" M 681.42 344.44 C 685.87 341.59 692.45 343.90 694.00 349.00 C 696.80 357.29 694.51 366.12 693.24 374.49 C 689.82 394.90 684.35 415.03 676.12 434.04 C 674.04 438.39 671.85 442.97 668.02 446.05 C 665.46 448.14 661.39 448.36 658.95 445.97 C 655.31 442.50 654.85 437.19 653.61 432.60 C 648.60 410.34 641.78 388.41 632.35 367.62 C 629.95 362.17 625.43 356.66 627.53 350.35 C 628.83 344.59 636.64 342.56 641.01 346.21 C 645.96 350.19 648.62 356.21 651.21 361.84 C 657.62 377.04 661.94 393.01 666.44 408.85 C 671.84 391.71 674.58 373.90 676.76 356.11 C 677.43 352.03 677.47 346.89 681.42 344.44 Z" />
<path fill="#000000" opacity="1.00" d=" M 713.00 355.98 C 720.01 348.66 730.96 345.27 740.82 347.90 C 747.62 349.44 753.34 354.12 757.22 359.79 C 761.74 366.22 763.58 374.17 763.98 381.93 C 764.20 387.22 762.92 393.13 758.63 396.63 C 755.76 398.73 752.23 399.57 748.89 400.62 C 738.13 403.73 727.00 406.35 715.72 405.60 C 716.24 410.81 717.05 416.35 720.43 420.57 C 722.93 423.64 727.27 424.62 731.03 423.80 C 738.50 421.91 739.81 411.04 747.93 410.67 C 755.67 410.88 759.54 420.75 756.13 427.05 C 753.12 432.21 748.74 436.56 743.71 439.77 C 731.55 447.28 713.19 445.33 704.74 433.15 C 698.24 423.87 697.00 412.05 696.78 401.02 C 696.74 384.81 701.47 367.83 713.00 355.98 M 727.98 369.03 C 722.25 372.91 719.38 379.55 717.29 385.90 C 726.73 386.18 736.08 384.29 745.07 381.53 C 744.38 376.86 743.03 371.87 739.36 368.63 C 736.15 365.82 731.24 366.85 727.98 369.03 Z" />
<path fill="#000000" opacity="1.00" d=" M 613.36 356.61 C 616.87 355.48 621.20 356.58 623.23 359.82 C 625.42 363.45 625.06 367.88 625.21 371.96 C 625.36 392.80 625.83 413.75 623.29 434.48 C 622.56 439.45 621.55 446.03 615.94 447.73 C 609.61 450.11 602.86 443.63 604.20 437.23 C 607.21 420.69 607.09 403.80 606.51 387.06 C 606.36 379.38 605.40 371.54 607.15 363.97 C 607.79 360.69 610.00 357.50 613.36 356.61 Z" />
<path fill="#000000" opacity="1.00" d=" M 547.25 370.09 C 546.50 364.15 552.49 357.90 558.54 359.63 C 563.79 361.19 566.05 366.79 567.96 371.40 C 572.72 364.94 581.13 361.29 589.07 363.16 C 595.29 364.23 600.59 369.61 601.09 376.00 C 601.91 381.04 598.76 387.47 593.05 387.43 C 588.57 387.76 585.92 380.93 581.47 383.55 C 576.69 387.01 575.79 393.55 575.67 399.05 C 575.71 410.44 576.62 421.99 574.10 433.21 C 573.13 437.36 572.08 441.80 568.97 444.93 C 565.35 448.65 558.21 447.58 555.95 442.87 C 553.97 439.00 554.98 434.57 555.72 430.52 C 557.04 423.80 557.77 416.94 557.40 410.08 C 556.92 400.56 556.07 390.75 551.97 382.00 C 550.22 378.11 547.82 374.39 547.25 370.09 Z" />
<path fill="#000000" opacity="1.00" d=" M 616.81 495.77 C 629.24 486.95 645.17 483.82 660.17 485.39 C 671.99 486.62 683.56 492.88 689.56 503.39 C 697.09 516.95 696.55 534.75 688.13 547.81 C 695.14 551.60 700.76 557.74 703.94 565.05 C 709.27 577.70 709.07 592.62 703.22 605.06 C 696.95 617.64 684.96 627.69 670.94 630.14 C 663.23 631.87 655.24 630.90 647.67 628.96 C 646.31 631.35 644.77 634.03 641.93 634.84 C 637.73 636.47 632.43 634.58 630.60 630.37 C 628.04 624.28 628.32 617.50 628.24 611.03 C 628.48 584.70 629.82 558.41 630.86 532.11 C 631.16 524.99 631.48 517.85 632.84 510.85 C 627.76 513.42 623.05 517.65 617.05 517.59 C 611.39 517.47 607.45 511.35 608.61 506.07 C 609.48 501.52 613.20 498.30 616.81 495.77 M 649.60 506.55 C 650.93 509.84 651.82 513.37 651.43 516.95 C 650.60 528.16 650.27 539.39 649.41 550.59 C 652.09 544.92 658.75 544.50 664.13 543.59 C 669.46 542.79 672.55 537.55 673.79 532.75 C 675.25 525.90 674.88 517.67 669.45 512.57 C 664.21 507.50 656.55 506.64 649.60 506.55 M 649.03 558.57 C 648.79 574.64 648.17 590.71 648.28 606.79 C 656.28 609.06 665.23 610.50 673.15 607.17 C 681.84 603.56 687.63 594.31 687.42 584.95 C 687.68 578.65 685.81 571.42 680.02 568.04 C 673.11 563.74 664.69 565.03 656.99 565.04 C 653.13 565.04 650.18 562.05 649.03 558.57 Z" />
<path fill="#000000" opacity="1.00" d=" M 245.32 486.51 C 250.02 484.19 255.63 486.32 258.96 490.00 C 264.52 496.16 266.80 506.49 261.73 513.59 C 256.79 520.14 245.92 519.16 241.35 512.68 C 235.59 505.00 236.16 491.34 245.32 486.51 Z" />
<path fill="#000000" opacity="1.00" d=" M 780.36 498.17 C 778.76 492.52 783.02 486.09 788.97 485.80 C 793.94 485.34 797.74 489.67 798.94 494.11 C 801.43 502.58 801.66 511.49 802.49 520.23 C 810.35 515.02 820.41 512.96 829.58 515.54 C 839.47 517.92 846.89 526.16 850.70 535.29 C 855.20 546.57 856.05 559.00 855.04 571.02 C 853.91 582.84 850.25 595.01 841.74 603.67 C 832.23 613.43 816.24 617.17 803.81 611.01 C 803.41 616.57 798.91 622.13 792.86 620.98 C 787.06 620.45 784.64 614.07 784.81 608.98 C 785.14 589.99 785.16 570.99 784.77 552.00 C 784.33 534.01 784.16 515.85 780.36 498.17 M 813.42 535.52 C 808.34 537.36 802.87 542.01 803.64 547.94 C 803.91 558.30 804.07 568.66 804.16 579.02 C 803.88 586.28 810.50 593.92 818.12 592.94 C 823.96 592.69 828.69 588.32 831.34 583.40 C 835.89 575.39 836.31 565.84 835.67 556.86 C 835.15 550.03 833.16 542.83 828.11 537.94 C 824.27 534.16 818.30 533.97 813.42 535.52 Z" />
<path fill="#000000" opacity="1.00" d=" M 951.23 486.24 C 956.20 483.97 962.04 486.97 964.57 491.47 C 968.67 498.51 968.09 509.12 961.06 514.11 C 955.62 518.17 946.80 516.61 943.68 510.41 C 939.56 502.19 942.47 490.14 951.23 486.24 Z" />
<path fill="#000000" opacity="1.00" d=" M 367.74 492.85 C 371.87 490.90 377.39 492.42 379.50 496.60 C 382.40 502.36 381.50 509.02 380.75 515.18 C 379.75 522.48 381.53 530.08 379.12 537.19 C 376.89 543.33 367.52 544.60 363.68 539.35 C 359.95 534.32 359.92 527.70 359.43 521.72 C 355.12 518.85 350.25 516.37 344.93 516.53 C 338.03 516.26 331.27 519.56 326.96 524.90 C 319.14 534.20 318.19 547.56 321.09 558.93 C 322.67 565.60 329.43 568.40 335.09 570.84 C 345.25 575.17 356.78 578.02 364.34 586.64 C 371.44 594.87 373.15 606.55 372.02 617.05 C 370.96 627.31 364.13 636.60 354.67 640.70 C 345.18 644.61 334.14 645.50 324.49 641.58 C 324.41 646.59 325.34 651.85 323.54 656.67 C 321.17 663.11 311.20 664.20 307.23 658.75 C 304.56 655.11 304.45 650.37 304.33 646.05 C 304.19 633.67 303.60 621.27 304.47 608.91 C 305.00 604.39 305.62 599.39 308.96 596.00 C 312.84 592.05 320.36 593.28 322.76 598.28 C 325.37 603.95 324.90 610.43 326.83 616.29 C 327.95 619.73 331.59 621.64 335.08 621.42 C 340.22 621.36 346.25 620.95 349.85 616.79 C 353.35 611.49 351.37 603.38 345.79 600.28 C 334.30 593.35 320.05 591.40 310.01 582.00 C 302.04 575.01 299.56 564.05 298.87 553.92 C 297.81 537.87 301.36 520.64 312.35 508.38 C 324.21 494.28 346.12 489.37 362.47 498.31 C 363.91 496.24 365.26 493.83 367.74 492.85 Z" />
<path fill="#000000" opacity="1.00" d=" M 979.43 493.58 C 984.23 492.38 988.90 496.43 989.56 501.09 C 990.61 506.11 987.42 512.12 982.07 512.85 C 977.73 513.57 973.68 510.08 972.76 505.98 C 971.34 501.00 974.19 494.82 979.43 493.58 Z" />
<path fill="#000000" opacity="1.00" d=" M 219.34 497.40 C 225.67 494.18 232.70 500.54 232.54 507.00 C 233.20 512.90 227.25 519.04 221.28 516.78 C 213.18 514.26 211.61 501.28 219.34 497.40 Z" />
<path fill="#000000" opacity="1.00" d=" M 897.77 500.80 C 901.51 498.07 907.44 499.21 909.75 503.27 C 912.34 508.00 911.87 513.65 911.30 518.82 C 907.61 544.81 899.08 569.83 888.76 593.88 C 885.75 600.64 883.22 607.60 880.48 614.46 C 878.97 618.24 876.35 622.29 872.03 623.05 C 866.56 624.07 861.94 618.92 861.42 613.82 C 861.04 608.92 862.97 604.22 864.66 599.71 C 869.05 589.50 873.76 579.43 878.28 569.28 C 869.30 555.15 861.07 540.42 855.28 524.67 C 853.69 519.90 851.86 514.62 853.79 509.67 C 855.39 504.86 861.98 502.95 866.05 505.85 C 869.68 508.51 871.61 512.77 873.23 516.84 C 877.23 526.78 881.15 536.79 886.41 546.15 C 889.51 534.31 891.09 522.15 893.09 510.09 C 893.66 506.64 894.84 502.96 897.77 500.80 Z" />
<path fill="#000000" opacity="1.00" d=" M 479.64 505.65 C 489.01 501.65 499.88 502.34 509.30 505.78 C 514.63 507.94 520.25 511.88 521.12 518.00 C 522.08 523.47 518.07 530.26 512.04 530.03 C 507.05 528.83 502.97 525.24 497.88 524.28 C 493.71 523.53 488.83 523.42 485.44 526.39 C 481.92 529.52 480.53 534.33 480.12 538.88 C 479.35 546.98 479.77 555.13 479.63 563.26 C 486.67 563.94 493.85 564.25 500.67 566.28 C 505.04 567.53 508.99 571.22 509.13 575.99 C 509.53 580.71 506.77 586.87 501.33 586.78 C 494.11 586.00 487.01 584.28 479.75 583.74 C 479.53 596.20 479.66 608.69 478.70 621.12 C 478.06 625.99 477.48 631.30 474.33 635.28 C 471.13 639.51 464.02 639.29 460.88 635.14 C 458.34 631.71 458.33 627.17 458.65 623.10 C 459.63 609.81 460.37 596.49 460.41 583.15 C 456.47 582.62 451.59 582.66 449.10 578.97 C 446.58 574.97 446.54 569.22 449.47 565.42 C 452.06 562.24 456.52 562.47 460.24 562.44 C 460.50 550.59 459.25 538.39 462.99 526.92 C 465.57 518.11 471.04 509.55 479.64 505.65 Z" />
<path fill="#000000" opacity="1.00" d=" M 997.40 503.57 C 1001.55 501.91 1005.72 505.89 1005.82 509.98 C 1006.50 514.68 1002.19 520.26 997.13 518.67 C 990.66 516.37 991.06 505.78 997.40 503.57 Z" />
<path fill="#000000" opacity="1.00" d=" M 202.29 509.30 C 207.28 506.96 212.52 512.12 212.54 517.06 C 213.12 521.29 209.62 526.12 205.03 525.24 C 197.92 524.01 195.67 512.67 202.29 509.30 Z" />
<path fill="#000000" opacity="1.00" d=" M 529.33 524.39 C 536.60 516.42 548.17 512.53 558.72 515.16 C 566.00 516.69 572.21 521.58 576.36 527.64 C 581.03 534.15 582.97 542.21 583.56 550.09 C 583.88 555.39 583.10 561.26 579.35 565.30 C 576.93 568.04 573.27 569.02 569.94 570.13 C 557.79 573.76 545.20 576.92 532.42 576.03 C 532.93 581.51 533.77 587.29 537.15 591.83 C 540.09 595.78 545.81 596.98 550.30 595.26 C 556.09 592.64 558.06 585.66 563.43 582.55 C 569.28 579.84 575.69 585.15 576.34 591.03 C 577.88 598.17 572.17 603.79 567.50 608.29 C 556.06 619.32 535.69 620.12 524.17 608.84 C 515.88 600.50 513.75 588.22 512.95 576.95 C 511.79 558.33 516.28 538.32 529.33 524.39 M 545.39 537.40 C 539.29 541.61 536.21 548.73 534.00 555.56 C 544.20 555.88 554.31 553.85 564.01 550.85 C 563.27 545.84 561.86 540.50 557.95 536.99 C 554.43 533.83 548.98 534.96 545.39 537.40 Z" />
<path fill="#000000" opacity="1.00" d=" M 720.19 522.24 C 730.83 509.99 752.60 510.80 762.67 523.40 C 769.31 531.42 771.57 541.98 772.96 552.04 C 775.13 571.48 773.31 591.21 769.27 610.29 C 768.19 615.13 766.24 621.06 760.93 622.61 C 756.36 623.99 751.75 620.80 750.63 616.34 C 743.18 619.24 734.63 619.03 727.38 615.65 C 720.59 612.33 715.72 605.80 713.62 598.62 C 710.71 588.68 710.67 577.83 713.99 567.99 C 717.15 558.70 725.04 550.77 734.87 548.99 C 741.36 547.35 748.22 548.47 754.21 551.29 C 753.06 546.47 751.81 541.35 748.32 537.65 C 745.00 534.08 739.10 533.43 735.08 536.19 C 731.55 538.26 727.57 541.73 723.23 539.67 C 716.69 536.75 715.45 527.31 720.19 522.24 M 739.37 568.58 C 734.45 569.42 731.31 574.16 730.97 578.91 C 730.53 584.17 730.41 590.02 733.48 594.58 C 736.39 598.79 742.30 599.25 746.87 598.08 C 751.92 596.51 754.22 590.89 754.38 586.00 C 754.54 580.87 754.48 575.08 751.00 570.95 C 748.09 567.72 743.29 567.85 739.37 568.58 Z" />
<path fill="#000000" opacity="1.00" d=" M 1012.39 514.54 C 1014.48 513.59 1017.34 514.19 1018.45 516.34 C 1021.33 521.00 1016.66 528.54 1011.08 526.94 C 1005.74 524.67 1007.59 516.37 1012.39 514.54 Z" />
<path fill="#000000" opacity="1.00" d=" M 961.50 519.78 C 976.84 517.78 992.18 523.02 1005.18 530.90 C 1012.96 535.79 1021.01 541.18 1025.59 549.42 C 1030.53 558.13 1030.00 568.80 1027.33 578.15 C 1022.41 594.95 1014.11 610.56 1009.45 627.45 C 1005.85 640.05 1002.76 652.86 1001.36 665.91 C 1000.65 672.18 1002.65 678.58 1000.84 684.76 C 995.84 704.04 972.29 715.93 953.87 708.15 C 942.36 703.61 933.78 691.60 934.77 679.04 C 935.30 669.71 940.87 661.67 947.16 655.14 C 955.62 646.30 965.43 638.63 972.38 628.44 C 976.68 622.21 979.68 614.76 979.33 607.08 C 979.10 601.55 976.63 596.23 972.73 592.34 C 966.92 586.25 958.80 583.13 952.84 577.23 C 945.63 570.27 939.61 561.64 937.27 551.78 C 935.56 544.72 936.47 536.78 940.91 530.87 C 945.65 524.26 953.63 520.83 961.50 519.78 Z" />
<path fill="#000000" opacity="1.00" d=" M 187.40 522.58 C 190.76 520.15 195.21 522.98 196.77 526.25 C 198.46 529.26 197.82 534.20 194.04 535.20 C 187.63 536.67 182.15 526.93 187.40 522.58 Z" />
<path fill="#000000" opacity="1.00" d=" M 238.47 522.65 C 248.35 521.60 259.31 523.26 266.87 530.18 C 272.70 535.35 275.61 543.27 275.21 550.98 C 274.69 562.27 269.25 572.74 262.29 581.42 C 256.03 589.44 246.10 593.90 240.76 602.74 C 236.51 609.49 236.64 618.18 239.51 625.43 C 243.25 635.18 250.95 642.68 258.78 649.28 C 268.12 657.21 278.84 663.80 286.34 673.67 C 292.04 681.11 294.60 691.13 292.06 700.27 C 288.93 712.64 277.66 722.24 265.08 723.90 C 248.20 726.26 229.92 716.25 223.98 700.03 C 221.36 693.58 222.87 686.44 221.17 679.79 C 217.51 664.18 211.98 649.06 205.58 634.38 C 198.67 618.94 189.31 604.68 183.13 588.90 C 179.76 579.87 178.32 569.46 182.15 560.34 C 185.42 552.25 191.99 546.18 198.60 540.77 C 210.04 531.50 223.64 524.22 238.47 522.65 Z" />
<path fill="#000000" opacity="1.00" d=" M 399.04 526.03 C 410.05 520.56 424.88 522.25 433.35 531.54 C 440.17 538.85 442.78 548.88 444.35 558.50 C 447.12 578.26 445.34 598.41 441.46 617.90 C 440.36 623.00 438.97 629.18 433.79 631.65 C 429.07 633.81 423.59 630.63 422.42 625.75 C 414.91 628.64 406.28 628.43 399.00 624.96 C 392.27 621.58 387.44 615.07 385.39 607.90 C 382.47 597.88 382.49 586.92 385.91 577.03 C 389.18 567.81 397.13 560.00 406.95 558.33 C 413.36 556.76 420.11 557.92 426.02 560.71 C 424.85 555.86 423.60 550.69 420.06 546.98 C 416.86 543.62 411.29 542.84 407.35 545.32 C 404.11 547.01 401.09 550.05 397.16 549.65 C 391.48 548.86 388.06 542.35 389.34 537.03 C 390.42 531.97 394.72 528.41 399.04 526.03 M 410.22 578.24 C 404.68 579.69 402.45 585.83 402.56 591.03 C 402.41 596.58 402.91 603.63 408.33 606.69 C 412.69 608.71 418.63 608.74 422.31 605.30 C 425.51 602.12 426.32 597.38 426.25 593.04 C 426.19 588.62 425.79 583.73 422.72 580.27 C 419.55 576.91 414.33 577.20 410.22 578.24 Z" />
<path fill="#000000" opacity="1.00" d=" M 1025.24 524.16 C 1028.72 522.73 1031.61 526.80 1030.94 529.99 C 1030.91 533.72 1027.35 538.48 1023.27 536.69 C 1018.77 533.76 1020.60 526.02 1025.24 524.16 Z" />
<path fill="#000000" opacity="1.00" d=" M 177.44 533.44 C 183.91 532.42 188.38 543.10 182.76 546.68 C 175.79 549.32 170.43 536.27 177.44 533.44 Z" />
<path fill="#000000" opacity="1.00" d=" M 889.04 659.97 C 892.24 656.26 898.98 655.88 902.05 659.96 C 904.52 663.40 904.36 667.89 904.16 671.93 C 902.77 699.61 902.83 727.34 903.49 755.05 C 903.46 761.40 904.76 768.11 902.19 774.15 C 900.24 778.85 893.73 780.33 889.78 777.27 C 886.86 775.16 886.13 771.44 885.40 768.16 C 877.28 775.17 865.79 778.60 855.27 775.86 C 848.77 774.33 843.25 769.87 839.68 764.32 C 834.08 755.71 832.76 745.06 832.88 735.00 C 833.14 720.07 837.40 704.31 848.47 693.70 C 857.95 684.36 872.76 681.53 885.23 685.85 C 885.31 680.29 885.24 674.72 885.71 669.18 C 886.09 665.93 886.75 662.47 889.04 659.97 M 856.93 712.91 C 851.88 721.30 851.30 731.50 852.02 741.04 C 852.54 746.95 854.83 753.69 860.58 756.40 C 866.89 758.87 875.07 756.51 878.39 750.38 C 880.26 746.92 881.77 743.16 884.84 740.53 C 884.59 729.18 884.84 717.82 884.70 706.48 C 881.01 704.75 877.17 702.89 872.98 703.24 C 866.33 703.15 860.15 707.21 856.93 712.91 Z" />
<path fill="#000000" opacity="1.00" d=" M 550.35 674.32 C 560.68 665.39 574.58 661.58 588.03 661.51 C 598.94 661.48 610.45 664.79 618.04 673.01 C 629.85 685.70 630.36 706.52 621.30 720.88 C 627.78 724.49 633.02 730.18 636.00 736.99 C 641.16 749.09 640.96 763.42 635.28 775.31 C 629.33 787.05 618.15 796.44 605.04 798.80 C 597.75 800.48 590.18 799.61 583.01 797.81 C 581.68 799.79 580.48 802.15 578.10 803.05 C 573.83 805.07 568.12 803.10 566.42 798.59 C 564.12 792.68 564.40 786.19 564.34 779.97 C 564.58 755.62 565.79 731.30 566.75 706.98 C 567.03 700.14 567.31 693.27 568.57 686.53 C 563.94 688.98 559.55 692.71 554.04 692.69 C 549.84 692.61 546.38 689.04 545.80 685.00 C 544.98 680.88 547.35 676.93 550.35 674.32 M 585.09 682.29 C 586.05 685.43 586.96 688.66 586.58 691.99 C 585.83 702.14 585.49 712.32 584.77 722.48 C 587.92 717.75 593.93 717.67 598.93 716.64 C 603.62 715.63 606.20 710.87 607.32 706.58 C 608.58 700.42 608.32 693.13 603.71 688.35 C 598.92 683.37 591.65 682.42 585.09 682.29 M 584.33 732.62 C 584.00 747.23 583.58 761.83 583.62 776.45 C 590.80 778.49 598.73 779.73 605.93 777.11 C 614.47 773.97 620.32 765.07 620.10 756.01 C 620.37 750.04 618.55 743.16 612.98 740.06 C 606.65 736.26 599.02 737.33 592.00 737.42 C 588.64 737.56 585.98 735.33 584.33 732.62 Z" />
<path fill="#000000" opacity="1.00" d=" M 388.47 673.68 C 401.76 671.77 416.27 674.50 426.80 683.20 C 438.85 692.87 445.11 707.91 447.65 722.81 C 450.53 740.08 450.53 758.23 444.95 774.97 C 440.38 788.53 430.53 800.71 417.11 806.22 C 403.66 811.51 387.73 812.13 374.74 805.19 C 360.89 797.54 351.86 783.05 348.41 767.88 C 344.44 750.89 344.73 732.94 348.61 715.97 C 351.74 702.49 358.26 688.97 369.87 680.86 C 375.32 676.89 381.86 674.72 388.47 673.68 M 387.44 695.57 C 382.75 696.95 378.43 699.65 375.29 703.42 C 368.29 711.93 366.06 723.23 365.44 733.97 C 364.82 746.47 365.19 759.62 370.87 771.06 C 374.73 779.10 381.47 786.36 390.38 788.55 C 399.39 790.46 409.47 788.65 416.54 782.50 C 424.05 775.98 427.94 766.18 429.28 756.51 C 430.61 745.97 430.10 735.21 428.14 724.77 C 426.14 715.60 422.28 706.21 414.74 700.22 C 407.15 694.18 396.60 693.28 387.44 695.57 Z" />
<path fill="#000000" opacity="1.00" d=" M 673.53 683.74 C 682.65 682.19 692.64 684.36 699.55 690.73 C 709.49 699.56 713.38 713.15 714.04 726.03 C 714.67 739.02 712.45 752.92 704.36 763.49 C 699.19 770.49 691.49 775.65 682.92 777.32 C 673.26 779.66 662.11 778.28 654.58 771.35 C 645.19 762.98 641.91 750.05 640.92 737.96 C 639.97 724.42 641.34 709.77 649.27 698.32 C 654.73 690.18 663.85 684.92 673.53 683.74 M 673.41 703.67 C 664.40 705.21 660.34 714.88 659.81 723.06 C 659.15 733.23 658.88 744.46 664.65 753.35 C 669.11 760.24 679.20 759.37 685.32 755.31 C 692.78 750.20 695.27 740.57 695.31 731.98 C 695.48 723.29 694.43 713.51 687.91 707.09 C 684.15 703.32 678.42 702.68 673.41 703.67 Z" />
<path fill="#000000" opacity="1.00" d=" M 730.58 689.62 C 741.66 683.85 756.99 686.02 764.83 696.17 C 772.53 705.97 774.20 718.93 775.04 730.99 C 775.80 746.77 774.18 762.62 770.85 778.05 C 769.81 782.90 767.65 788.97 762.10 789.96 C 757.91 790.84 754.19 787.86 752.90 784.04 C 745.78 786.59 737.70 786.43 730.86 783.13 C 724.49 779.94 719.96 773.77 717.99 767.02 C 715.19 757.46 715.19 746.98 718.51 737.54 C 721.58 728.99 728.90 721.72 738.00 719.99 C 744.09 718.42 750.51 719.41 756.21 721.94 C 754.78 715.80 752.38 707.60 745.02 706.71 C 739.18 705.62 735.57 711.81 730.05 712.15 C 724.22 712.00 720.39 705.43 721.65 700.08 C 722.56 695.30 726.55 691.91 730.58 689.62 M 740.39 739.52 C 736.30 741.23 734.71 745.94 734.58 750.04 C 734.40 754.65 734.50 759.75 737.44 763.57 C 740.27 766.96 745.29 767.26 749.32 766.32 C 753.76 765.01 756.03 760.25 756.34 755.93 C 756.63 751.01 756.66 745.51 753.60 741.37 C 750.46 737.53 744.58 737.93 740.39 739.52 Z" />
<path fill="#000000" opacity="1.00" d=" M 780.59 700.89 C 778.39 694.47 784.88 686.65 791.64 688.65 C 796.83 690.26 799.06 695.82 800.96 700.41 C 803.98 696.74 807.79 693.44 812.55 692.41 C 819.76 690.34 828.75 692.65 832.46 699.61 C 835.34 704.82 834.86 713.11 828.86 715.86 C 824.97 717.74 821.49 714.62 818.53 712.51 C 816.46 710.78 813.71 712.69 812.38 714.45 C 807.84 720.62 808.68 728.70 808.78 735.92 C 808.96 747.69 809.20 760.13 804.15 771.03 C 801.84 776.62 793.58 778.02 789.82 773.21 C 786.22 768.42 788.37 762.23 789.19 756.90 C 791.40 744.63 790.61 731.92 788.03 719.77 C 786.72 713.03 782.56 707.37 780.59 700.89 Z" />
<path fill="#000000" opacity="1.00" d=" M 458.68 693.71 C 461.51 689.24 468.53 689.30 471.74 693.30 C 474.04 695.62 474.08 699.06 473.95 702.12 C 480.23 696.37 489.48 694.02 497.68 696.55 C 505.82 698.76 511.50 706.01 514.36 713.63 C 518.76 725.90 518.99 739.23 517.83 752.08 C 517.00 760.17 515.51 768.21 513.13 775.99 C 511.82 780.14 508.94 784.95 504.03 784.98 C 498.41 785.16 493.94 779.26 495.41 773.89 C 498.89 758.28 501.83 742.02 498.63 726.11 C 497.65 722.42 496.29 718.19 492.72 716.26 C 488.51 714.42 483.40 716.11 480.44 719.45 C 476.39 723.95 474.69 730.09 474.54 736.04 C 474.16 749.16 477.82 761.96 478.47 775.01 C 478.53 779.41 478.34 784.20 475.84 788.00 C 472.85 792.50 465.04 792.59 462.12 788.00 C 460.11 784.32 460.15 780.00 459.81 775.94 C 458.48 754.94 455.36 734.06 454.98 713.00 C 455.14 706.50 455.10 699.40 458.68 693.71 Z" />
</g>
</svg>
