<?xml version="1.0" encoding="UTF-8" ?>
<!DOCTYPE svg PUBLIC "-//W3C//DTD SVG 1.1//EN" "http://www.w3.org/Graphics/SVG/1.1/DTD/svg11.dtd">
<svg width="4000pt" height="4000pt" viewBox="0 0 4000 4000" version="1.1" xmlns="http://www.w3.org/2000/svg">
<g id="#000000ff">
<path fill="#000000" opacity="1.00" d=" M 1338.49 440.18 C 1342.23 439.07 1346.15 439.44 1350.01 439.40 C 1365.01 439.29 1380.01 439.31 1395.01 439.48 C 1402.15 440.83 1409.39 441.55 1416.61 442.40 C 1422.58 444.15 1428.77 444.78 1434.89 445.87 C 1445.60 449.24 1456.66 451.41 1467.27 455.13 C 1472.33 456.70 1476.71 459.94 1481.91 461.15 C 1490.37 464.45 1499.01 467.38 1506.99 471.77 C 1516.97 476.98 1526.57 482.89 1536.12 488.84 C 1544.72 495.26 1553.87 500.96 1561.80 508.24 C 1564.36 510.42 1566.56 513.02 1569.28 515.05 C 1574.40 518.73 1578.44 523.65 1583.06 527.90 C 1587.72 532.00 1591.14 537.23 1595.56 541.57 C 1599.20 546.81 1603.38 551.64 1607.59 556.44 C 1611.17 559.77 1613.63 564.04 1615.85 568.35 C 1620.85 576.61 1627.09 584.12 1631.18 592.91 C 1634.57 599.01 1637.02 605.58 1640.62 611.59 C 1642.71 616.29 1644.56 621.10 1646.68 625.80 C 1651.74 634.27 1653.28 644.19 1656.17 653.50 C 1657.55 658.00 1658.32 662.71 1660.25 667.04 C 1661.53 672.28 1662.47 677.61 1664.35 682.70 C 1664.31 685.94 1664.95 689.12 1665.79 692.24 C 1679.97 685.60 1694.37 679.43 1708.97 673.75 C 1717.60 670.30 1726.28 667.01 1735.00 663.77 C 1782.07 647.11 1830.53 634.35 1879.69 625.69 C 1887.35 624.37 1895.07 623.27 1902.68 621.64 C 1907.35 621.11 1912.02 620.45 1916.66 619.65 C 1921.01 619.06 1925.42 618.66 1929.70 617.59 C 1932.36 617.40 1935.12 617.53 1937.69 616.58 C 1940.38 616.39 1943.09 616.34 1945.81 616.07 C 1952.02 614.69 1958.56 615.00 1964.80 613.58 C 1975.87 613.21 1986.88 611.95 1997.91 610.73 C 2009.58 610.36 2021.25 610.20 2032.94 610.31 C 2039.31 610.53 2045.65 609.51 2052.04 609.75 C 2057.03 609.52 2061.98 610.35 2066.97 610.51 C 2078.36 610.62 2089.71 611.77 2100.99 613.35 C 2106.17 613.02 2111.20 614.46 2116.37 614.56 C 2119.91 615.77 2123.74 615.00 2127.36 615.89 C 2129.97 616.46 2132.67 616.40 2135.35 616.58 C 2138.50 617.82 2142.00 617.02 2145.22 618.04 C 2155.57 619.71 2165.98 620.92 2176.31 622.71 C 2178.26 623.14 2180.26 623.48 2182.29 623.69 C 2184.56 624.13 2186.85 624.58 2189.16 625.02 C 2192.54 625.54 2195.88 626.33 2199.30 626.70 C 2216.67 630.04 2234.01 633.67 2251.23 637.75 C 2255.48 639.00 2259.81 640.00 2264.12 641.08 C 2295.74 649.49 2327.11 659.08 2357.54 671.18 C 2367.07 674.97 2376.67 678.62 2386.07 682.75 C 2392.35 685.51 2398.76 688.05 2404.82 691.31 C 2405.62 691.40 2406.45 691.50 2407.32 691.62 C 2408.83 687.56 2408.17 683.09 2409.75 679.04 C 2411.18 675.15 2411.66 671.02 2412.77 667.04 C 2417.32 654.79 2419.18 641.65 2424.27 629.57 C 2427.62 623.90 2429.65 617.59 2432.40 611.63 C 2438.21 601.43 2442.04 590.10 2449.17 580.66 C 2452.20 575.32 2456.30 570.64 2458.95 565.07 C 2461.57 559.63 2466.44 555.89 2469.96 551.11 C 2473.90 547.25 2476.31 542.16 2480.40 538.44 C 2488.26 529.03 2497.06 520.34 2506.62 512.65 C 2513.34 506.20 2520.49 500.20 2528.31 495.12 C 2537.99 487.50 2548.80 481.53 2559.42 475.36 C 2571.02 468.47 2583.72 463.80 2596.38 459.30 C 2607.74 453.22 2620.58 450.97 2632.86 447.46 C 2638.57 445.50 2644.62 444.87 2650.55 443.85 C 2658.81 441.29 2667.56 441.65 2675.98 439.82 C 2678.94 439.14 2682.00 439.47 2685.04 439.41 C 2697.70 439.34 2710.35 439.28 2723.01 439.40 C 2726.61 439.48 2730.29 439.04 2733.84 440.03 C 2737.46 441.09 2741.28 440.36 2745.00 440.76 C 2756.02 442.67 2767.04 444.60 2778.04 446.57 C 2784.79 448.70 2791.89 449.35 2798.55 451.76 C 2802.20 452.97 2806.11 453.23 2809.71 454.65 C 2818.69 459.03 2828.56 461.00 2837.77 464.85 C 2848.04 468.13 2858.28 471.81 2867.50 477.49 C 2871.03 479.85 2875.38 480.55 2878.90 482.97 C 2883.28 485.88 2888.15 487.89 2892.74 490.44 C 2900.08 495.54 2908.40 499.03 2915.70 504.22 C 2922.65 508.47 2928.89 513.78 2935.92 517.90 C 2941.22 522.40 2947.81 525.25 2952.51 530.47 C 2954.92 533.00 2957.42 535.48 2960.42 537.36 C 2965.95 540.74 2969.71 546.22 2974.68 550.30 C 2981.28 555.31 2986.64 561.70 2992.57 567.46 C 3000.03 575.29 3008.22 582.52 3014.63 591.29 C 3019.95 598.29 3026.62 604.08 3031.73 611.26 C 3034.34 615.27 3037.92 618.56 3040.31 622.73 C 3043.03 627.27 3046.23 631.49 3049.60 635.57 C 3052.39 638.64 3053.93 642.56 3056.15 646.03 C 3057.88 649.85 3060.94 652.82 3062.75 656.60 C 3067.58 665.21 3071.98 674.02 3076.57 682.75 C 3079.02 686.61 3080.89 690.79 3082.74 694.97 C 3084.82 700.14 3087.57 705.03 3089.23 710.39 C 3090.63 713.69 3091.35 717.30 3093.32 720.36 C 3099.16 731.34 3102.24 743.48 3105.70 755.36 C 3107.60 761.25 3108.53 767.52 3111.42 773.06 C 3113.35 777.50 3114.49 782.31 3114.59 787.17 C 3117.05 795.36 3117.60 804.02 3120.11 812.23 C 3120.27 814.88 3120.32 817.58 3121.06 820.17 C 3123.03 832.09 3123.90 844.12 3125.40 856.07 C 3125.03 861.42 3126.92 866.60 3126.29 871.97 C 3126.72 883.96 3126.70 895.99 3126.20 907.99 C 3124.81 914.61 3126.40 921.50 3124.60 928.06 C 3124.13 930.96 3124.25 933.92 3123.78 936.83 C 3123.42 938.18 3123.00 939.52 3122.65 940.88 C 3122.89 946.09 3120.37 950.88 3120.54 956.07 C 3120.64 961.53 3118.52 966.69 3117.88 972.09 C 3117.42 973.61 3117.04 975.17 3116.62 976.71 C 3116.37 981.04 3114.91 985.14 3113.93 989.33 C 3111.72 996.87 3110.28 1004.59 3107.85 1012.08 C 3105.49 1020.67 3101.06 1028.41 3098.04 1036.75 C 3096.54 1040.99 3094.46 1045.00 3093.21 1049.32 C 3090.84 1053.26 3089.72 1057.76 3087.57 1061.80 C 3085.43 1066.18 3081.94 1069.72 3079.84 1074.12 C 3077.44 1078.41 3075.73 1083.09 3072.95 1087.16 C 3069.09 1091.81 3067.24 1097.74 3063.19 1102.28 C 3056.58 1109.69 3051.57 1118.43 3044.48 1125.42 C 3038.88 1132.80 3031.93 1138.97 3025.48 1145.56 C 3022.20 1149.02 3018.03 1151.48 3014.88 1155.06 C 3011.34 1158.97 3006.80 1161.71 3002.69 1164.94 C 2995.27 1171.02 2987.63 1177.01 2979.02 1181.30 C 2973.25 1184.59 2967.77 1188.39 2961.70 1191.09 C 2957.75 1192.87 2954.31 1195.66 2950.06 1196.68 C 2943.71 1199.61 2937.30 1202.39 2930.75 1204.81 C 2928.13 1205.64 2925.50 1206.37 2922.90 1207.16 C 2921.85 1207.49 2920.83 1207.83 2919.85 1208.17 C 2909.83 1211.03 2899.74 1213.93 2889.38 1215.13 C 2884.63 1216.64 2879.61 1216.95 2874.88 1218.30 C 2871.24 1218.82 2867.37 1217.69 2863.97 1219.28 C 2849.18 1219.82 2834.38 1219.79 2819.58 1219.65 C 2819.51 1222.05 2819.55 1224.49 2820.37 1226.81 C 2821.00 1232.10 2821.29 1237.49 2822.41 1242.69 C 2822.71 1246.01 2822.24 1249.47 2823.41 1252.68 C 2823.23 1259.51 2825.06 1266.17 2824.67 1273.01 C 2826.33 1285.90 2825.48 1298.96 2825.82 1311.95 C 2825.50 1323.64 2826.27 1335.41 2824.70 1347.03 C 2825.10 1353.46 2823.40 1359.71 2823.54 1366.13 C 2822.80 1373.18 2821.86 1380.21 2821.38 1387.29 C 2819.72 1393.58 2820.22 1400.26 2818.23 1406.47 C 2816.31 1408.33 2817.29 1411.42 2817.43 1413.80 C 2818.32 1412.09 2817.53 1409.62 2818.72 1408.22 C 2820.15 1412.43 2816.83 1415.99 2817.56 1420.07 C 2817.27 1418.65 2816.99 1417.25 2816.74 1415.86 C 2815.89 1427.77 2812.73 1439.38 2810.43 1451.07 C 2808.78 1460.11 2806.42 1469.01 2804.21 1477.93 C 2797.46 1504.43 2789.15 1530.54 2779.21 1556.01 C 2765.56 1592.02 2747.47 1626.24 2727.07 1658.86 C 2706.82 1690.87 2684.09 1721.38 2658.63 1749.41 C 2655.36 1752.56 2652.41 1756.06 2650.19 1760.03 C 2647.08 1765.74 2643.36 1771.35 2642.31 1777.91 C 2641.22 1782.54 2642.45 1787.25 2642.24 1791.94 C 2641.73 1801.58 2646.77 1810.31 2652.08 1817.96 C 2655.68 1822.43 2660.61 1826.22 2666.36 1827.34 C 2669.53 1828.09 2672.74 1828.71 2676.00 1829.21 C 2720.27 1822.58 2764.58 1815.96 2809.00 1810.28 C 2841.92 1805.51 2874.95 1801.70 2907.96 1797.60 C 2919.69 1796.95 2931.31 1794.76 2943.07 1794.30 C 2948.70 1793.62 2954.33 1792.76 2960.01 1792.45 C 2965.70 1792.64 2971.27 1791.04 2977.00 1791.36 C 2989.92 1789.82 3002.96 1789.75 3015.92 1788.44 C 3022.26 1788.31 3028.62 1788.28 3034.98 1788.23 C 3045.56 1786.82 3056.27 1787.57 3066.93 1787.36 C 3072.61 1787.44 3078.33 1787.16 3084.02 1787.63 C 3089.69 1786.88 3095.28 1788.46 3100.95 1788.34 C 3103.67 1788.33 3106.44 1788.38 3109.20 1788.60 C 3112.37 1789.63 3115.74 1789.22 3119.05 1789.43 C 3141.92 1791.98 3164.88 1795.45 3186.77 1802.79 C 3203.12 1808.30 3219.11 1815.48 3232.71 1826.27 C 3246.92 1836.94 3259.21 1850.22 3268.66 1865.27 C 3278.12 1881.59 3286.54 1898.64 3291.97 1916.77 C 3304.97 1956.14 3311.66 1997.21 3318.19 2038.04 C 3318.97 2042.69 3319.27 2047.42 3320.24 2052.05 C 3321.10 2063.06 3323.07 2073.97 3323.84 2085.00 C 3326.26 2100.21 3325.20 2115.67 3325.41 2131.02 C 3325.74 2137.38 3324.25 2143.63 3324.48 2149.99 C 3322.47 2172.87 3318.17 2195.72 3310.16 2217.31 C 3302.11 2237.53 3292.18 2257.34 3277.97 2273.99 C 3265.90 2288.64 3251.51 2301.26 3236.04 2312.21 C 3221.27 2322.87 3204.61 2330.52 3187.77 2337.27 C 3177.33 2341.31 3166.68 2344.76 3155.92 2347.79 C 3143.54 2350.78 3130.91 2352.75 3118.25 2353.99 C 3108.13 2355.14 3098.07 2356.80 3088.00 2358.30 C 3062.61 2360.94 3037.32 2364.37 3011.98 2367.29 C 3006.30 2367.82 3000.58 2368.25 2995.00 2369.30 C 2981.65 2370.12 2968.47 2372.56 2955.18 2373.99 C 2935.40 2375.87 2915.69 2378.44 2896.01 2381.27 C 2874.51 2383.99 2852.97 2386.36 2831.62 2390.14 C 2815.61 2392.33 2799.71 2395.24 2783.76 2397.74 L 2783.05 2398.20 C 2772.10 2400.12 2761.23 2402.48 2750.47 2405.19 C 2741.82 2408.41 2732.77 2411.57 2725.53 2417.45 C 2719.00 2424.19 2713.58 2432.16 2709.82 2440.76 C 2706.02 2455.55 2701.39 2470.12 2697.74 2484.94 C 2698.39 2489.58 2698.88 2494.25 2699.54 2498.91 C 2700.58 2504.26 2702.89 2509.34 2706.32 2513.61 C 2709.20 2518.60 2715.05 2520.17 2719.78 2522.86 C 2737.53 2530.97 2755.23 2539.22 2772.59 2548.15 C 2789.44 2555.72 2806.46 2562.87 2823.28 2570.53 C 2831.97 2573.97 2840.65 2577.47 2849.05 2581.63 C 2859.50 2586.74 2870.89 2589.48 2881.61 2593.93 C 2886.29 2596.04 2890.87 2598.38 2895.49 2600.66 C 2901.94 2603.99 2909.00 2605.97 2915.33 2609.61 C 2925.24 2615.11 2936.02 2618.75 2946.21 2623.70 C 2953.27 2627.16 2959.73 2631.80 2967.09 2634.68 C 2976.62 2638.29 2985.64 2643.15 2994.29 2648.52 C 3003.56 2653.32 3012.68 2658.41 3022.01 2663.09 C 3030.71 2668.98 3039.88 2674.13 3049.10 2679.18 C 3055.62 2683.09 3062.80 2685.77 3069.24 2689.87 C 3074.72 2693.41 3081.06 2695.54 3086.10 2699.82 C 3091.55 2704.27 3098.13 2706.97 3103.83 2711.08 C 3112.99 2717.54 3122.82 2722.95 3132.43 2728.72 C 3139.63 2732.96 3146.27 2738.08 3153.55 2742.22 C 3161.66 2746.87 3168.47 2753.32 3175.27 2759.67 C 3181.96 2765.17 3185.55 2773.33 3191.50 2779.53 C 3198.19 2786.49 3203.10 2794.86 3207.71 2803.30 C 3213.92 2814.07 3218.58 2825.62 3224.22 2836.68 C 3227.34 2841.99 3229.05 2847.95 3231.67 2853.51 C 3233.49 2857.26 3233.84 2861.47 3234.79 2865.51 C 3238.33 2878.04 3239.48 2891.08 3241.30 2903.94 C 3241.70 2908.63 3242.72 2913.28 3242.62 2918.03 C 3242.40 2925.12 3244.94 2931.96 3244.63 2939.07 C 3246.19 2952.66 3245.11 2966.37 3245.46 2980.02 C 3245.25 2986.97 3243.23 2994.19 3245.35 3001.03 C 3244.78 3007.35 3244.53 3013.72 3243.60 3020.03 C 3243.39 3023.00 3243.73 3026.08 3242.77 3029.00 C 3243.19 3036.21 3239.46 3042.79 3239.57 3049.98 C 3239.58 3053.64 3239.31 3057.32 3238.60 3060.95 C 3237.09 3066.94 3237.60 3073.22 3235.79 3079.17 C 3235.54 3085.17 3233.59 3090.93 3233.40 3096.94 C 3231.28 3106.26 3228.14 3115.31 3225.82 3124.60 C 3224.53 3128.30 3224.30 3132.28 3222.76 3135.92 C 3222.63 3136.42 3222.37 3137.42 3222.23 3137.92 C 3221.84 3139.24 3221.46 3140.55 3221.20 3141.96 C 3217.58 3152.87 3215.35 3164.34 3210.10 3174.63 C 3205.91 3185.72 3201.52 3196.74 3196.97 3207.69 C 3192.04 3216.01 3188.08 3224.87 3184.17 3233.71 C 3182.61 3237.68 3179.25 3240.53 3177.44 3244.38 C 3173.42 3251.96 3169.27 3259.48 3164.08 3266.33 C 3158.26 3276.72 3150.09 3285.42 3142.24 3294.26 C 3125.50 3313.39 3105.73 3329.83 3083.95 3342.94 C 3073.95 3348.91 3063.76 3354.58 3054.13 3361.15 C 3046.27 3365.61 3038.68 3370.55 3030.39 3374.19 C 3014.06 3381.37 2997.85 3388.94 2981.00 3394.82 C 2971.01 3398.42 2960.70 3401.05 2950.41 3403.61 C 2938.07 3406.87 2925.64 3409.95 2912.99 3411.72 C 2901.54 3413.54 2889.92 3413.86 2878.49 3415.70 C 2853.77 3419.53 2828.64 3419.14 2803.81 3416.79 C 2770.17 3416.52 2736.56 3410.21 2705.27 3397.78 C 2700.32 3395.89 2694.88 3395.56 2690.16 3393.12 C 2678.90 3387.31 2666.78 3383.13 2656.25 3375.99 C 2648.11 3371.88 2640.08 3367.54 2632.05 3363.23 C 2623.19 3357.58 2614.05 3352.39 2604.89 3347.27 C 2595.23 3342.60 2586.85 3335.78 2577.35 3330.83 C 2570.38 3327.18 2563.70 3323.04 2557.26 3318.56 C 2549.61 3313.44 2541.09 3309.71 2533.83 3304.02 C 2525.17 3298.79 2517.45 3292.19 2508.85 3286.89 C 2500.21 3281.34 2492.07 3275.03 2483.30 3269.69 C 2472.48 3261.76 2461.89 3253.51 2450.58 3246.29 C 2446.16 3243.33 2442.19 3239.82 2438.03 3236.57 C 2430.16 3231.67 2422.76 3226.10 2415.21 3220.78 C 2407.99 3214.84 2399.58 3210.58 2392.31 3204.73 C 2383.55 3198.50 2375.46 3191.39 2366.86 3184.95 C 2360.99 3180.04 2354.20 3176.32 2348.83 3170.85 C 2337.57 3162.23 2327.42 3152.19 2315.59 3144.32 C 2308.48 3137.78 2300.73 3132.00 2293.54 3125.57 C 2286.94 3119.33 2278.71 3115.14 2272.35 3108.66 C 2257.61 3096.00 2241.50 3084.98 2227.30 3071.70 C 2219.82 3064.94 2210.59 3060.63 2202.77 3054.37 C 2198.81 3051.50 2194.51 3049.20 2190.18 3046.99 C 2175.05 3037.19 2158.51 3029.83 2141.55 3023.83 C 2127.57 3017.72 2112.99 3012.86 2098.19 3009.21 C 2087.18 3005.97 2076.01 3003.31 2064.83 3000.78 C 2050.31 2998.53 2035.59 2999.70 2020.98 2999.47 C 2011.06 2999.23 2001.64 3002.51 1992.06 3004.50 C 1973.96 3009.21 1955.82 3013.97 1938.39 3020.82 C 1929.98 3024.72 1921.06 3027.43 1912.60 3031.23 C 1899.37 3036.52 1887.47 3044.42 1875.03 3051.22 C 1870.03 3054.12 1865.78 3058.11 1860.75 3060.97 C 1853.19 3065.54 1846.08 3070.85 1839.81 3077.08 C 1827.39 3087.65 1814.19 3097.24 1801.70 3107.73 C 1798.78 3110.19 1796.23 3113.11 1792.97 3115.17 C 1784.68 3120.66 1777.37 3127.43 1769.80 3133.85 C 1766.50 3136.49 1763.09 3139.04 1760.04 3142.00 C 1756.65 3145.38 1752.30 3147.53 1748.71 3150.67 C 1741.97 3155.86 1735.66 3161.56 1729.13 3166.98 C 1724.54 3169.99 1721.00 3174.28 1716.44 3177.33 C 1700.40 3188.44 1686.15 3201.96 1669.66 3212.42 C 1659.81 3218.75 1650.77 3226.23 1640.97 3232.64 C 1637.74 3234.82 1634.28 3236.71 1631.43 3239.40 C 1624.64 3245.42 1616.55 3249.65 1609.44 3255.25 C 1600.77 3260.80 1593.26 3268.01 1584.25 3273.05 C 1571.65 3282.29 1558.21 3290.28 1545.78 3299.78 C 1539.42 3303.57 1533.68 3308.31 1527.14 3311.81 C 1516.88 3317.08 1507.94 3324.55 1497.61 3329.72 C 1490.51 3333.57 1483.67 3337.87 1476.98 3342.40 C 1466.56 3348.19 1456.05 3353.84 1445.91 3360.14 C 1434.80 3367.34 1422.42 3372.31 1411.26 3379.39 C 1402.28 3384.53 1392.55 3388.14 1383.36 3392.86 C 1378.12 3395.67 1372.04 3395.97 1366.57 3398.18 C 1344.86 3406.70 1322.04 3412.41 1298.85 3414.97 C 1285.95 3416.67 1272.93 3416.32 1259.99 3417.44 C 1236.68 3419.62 1213.09 3418.75 1189.98 3415.04 C 1176.40 3413.41 1162.68 3412.76 1149.28 3409.90 C 1139.16 3408.04 1129.24 3405.31 1119.28 3402.77 C 1107.68 3399.91 1096.15 3396.66 1085.02 3392.32 C 1074.38 3388.39 1064.17 3383.44 1053.66 3379.21 C 1044.24 3374.81 1034.53 3370.88 1025.83 3365.13 C 1017.25 3360.59 1009.51 3354.67 1001.03 3349.98 C 977.45 3336.90 955.40 3320.83 936.98 3301.08 C 930.26 3294.00 923.98 3286.52 917.57 3279.19 C 912.92 3273.39 909.58 3266.70 905.02 3260.85 C 900.40 3254.20 897.32 3246.64 892.79 3239.97 C 888.61 3235.27 887.13 3229.02 884.26 3223.59 C 882.37 3220.00 880.89 3216.24 878.92 3212.73 C 874.55 3205.98 872.40 3198.15 869.19 3190.85 C 866.35 3184.45 864.47 3177.67 861.43 3171.37 C 858.87 3166.97 858.18 3161.84 856.36 3157.16 C 852.27 3143.79 848.56 3130.33 845.13 3116.79 C 844.00 3111.82 841.48 3107.21 841.20 3102.07 C 838.68 3097.24 839.78 3091.60 838.04 3086.54 C 837.77 3079.90 835.48 3073.57 835.45 3066.94 C 834.59 3061.30 833.17 3055.71 833.43 3049.98 C 833.60 3043.12 829.95 3036.84 830.37 3029.99 C 829.98 3025.99 829.20 3022.03 829.34 3018.00 C 827.41 3008.08 828.79 2997.95 828.41 2987.94 C 828.34 2984.61 827.39 2981.38 827.54 2978.07 C 827.85 2965.40 826.83 2952.66 828.34 2940.05 C 828.11 2931.60 830.90 2923.41 830.45 2914.95 C 832.52 2897.54 834.27 2880.00 838.73 2863.01 C 839.32 2857.55 841.72 2852.63 843.83 2847.66 C 846.21 2840.60 850.30 2834.33 853.25 2827.53 C 858.60 2815.49 864.68 2803.78 871.54 2792.54 C 876.57 2783.83 884.45 2777.27 889.77 2768.77 C 892.84 2763.68 897.47 2759.93 901.79 2755.97 C 907.63 2750.20 914.21 2745.16 921.34 2741.09 C 928.11 2737.08 934.39 2732.29 941.20 2728.34 C 950.79 2722.62 960.58 2717.17 969.70 2710.71 C 974.07 2707.56 979.02 2705.35 983.46 2702.33 C 986.81 2700.05 989.81 2697.24 993.47 2695.45 C 1001.64 2691.52 1009.10 2686.27 1017.44 2682.69 C 1028.20 2676.79 1039.11 2671.08 1049.25 2664.16 C 1053.14 2661.57 1057.56 2659.96 1061.60 2657.66 C 1069.03 2653.24 1077.06 2649.91 1084.30 2645.17 C 1093.83 2639.06 1104.75 2635.75 1114.67 2630.43 C 1123.79 2624.78 1133.57 2620.40 1143.48 2616.37 C 1152.12 2613.06 1159.86 2607.81 1168.55 2604.62 C 1177.06 2601.39 1184.86 2596.59 1193.27 2593.16 C 1204.41 2588.86 1216.06 2585.83 1226.71 2580.32 C 1235.13 2576.09 1244.05 2573.02 1252.67 2569.23 C 1271.77 2560.29 1291.56 2552.85 1310.29 2543.13 C 1319.19 2539.07 1327.72 2534.23 1336.78 2530.53 C 1345.64 2526.09 1354.99 2522.60 1363.43 2517.36 C 1365.93 2515.17 1367.60 2512.21 1369.50 2509.53 C 1374.12 2502.16 1373.93 2493.23 1375.26 2484.94 C 1372.56 2473.49 1368.92 2462.28 1365.93 2450.91 C 1364.35 2445.40 1363.48 2439.53 1360.21 2434.70 C 1355.04 2426.33 1349.66 2417.03 1340.35 2412.75 C 1332.16 2408.68 1323.70 2404.84 1314.64 2403.26 C 1290.65 2397.72 1266.33 2393.79 1241.98 2390.23 C 1215.78 2385.59 1189.30 2383.10 1162.98 2379.34 C 1140.35 2375.90 1117.51 2374.43 1094.89 2370.97 C 1082.44 2369.44 1069.96 2368.34 1057.52 2366.80 C 1046.98 2366.10 1036.60 2363.87 1026.06 2363.16 C 1011.90 2360.98 997.63 2359.62 983.40 2358.02 C 971.61 2356.30 959.84 2354.32 947.96 2353.30 C 937.51 2351.86 927.07 2350.20 916.82 2347.70 C 912.20 2346.68 907.86 2344.38 903.07 2344.32 C 903.54 2344.20 904.49 2343.95 904.96 2343.82 C 892.19 2340.67 880.11 2335.20 868.08 2329.96 C 846.69 2320.41 827.44 2306.55 810.46 2290.52 C 798.19 2278.71 787.17 2265.48 778.70 2250.67 C 770.54 2236.16 763.54 2220.94 758.70 2205.01 C 752.05 2181.61 747.95 2157.37 748.23 2133.01 C 748.16 2119.02 748.13 2105.03 748.52 2091.06 C 749.54 2080.70 750.94 2070.40 751.82 2060.04 C 755.09 2035.23 759.09 2010.51 763.68 1985.90 C 768.09 1964.70 772.31 1943.38 779.20 1922.80 C 783.93 1906.17 790.59 1890.12 798.95 1874.99 C 808.91 1855.15 824.14 1838.20 841.92 1825.04 C 853.91 1815.89 867.64 1809.34 881.82 1804.37 C 904.68 1795.98 928.92 1792.29 953.00 1789.53 C 959.02 1789.28 964.96 1788.06 971.01 1788.37 C 983.60 1786.89 996.33 1787.57 1008.99 1787.36 C 1019.98 1787.60 1031.05 1786.83 1041.98 1788.27 C 1048.73 1788.35 1055.50 1788.28 1062.25 1788.68 C 1068.10 1789.97 1074.19 1788.99 1080.09 1790.16 C 1088.16 1790.27 1096.11 1791.60 1104.19 1791.67 C 1109.37 1792.98 1114.82 1791.99 1120.06 1793.13 C 1160.06 1796.90 1199.98 1801.68 1239.84 1806.94 C 1258.51 1809.64 1277.23 1811.96 1295.93 1814.49 C 1313.29 1816.77 1330.58 1819.62 1347.96 1821.78 C 1359.26 1823.84 1370.73 1824.94 1382.01 1827.12 C 1389.61 1827.91 1397.42 1829.99 1404.98 1827.74 C 1412.81 1826.55 1419.50 1821.13 1423.35 1814.36 C 1427.23 1808.23 1430.67 1801.38 1430.76 1793.98 C 1430.58 1786.62 1432.21 1778.98 1429.04 1772.00 C 1426.10 1765.57 1422.81 1759.17 1418.37 1753.65 C 1395.60 1729.35 1375.25 1702.85 1356.61 1675.27 C 1331.69 1637.79 1309.79 1598.08 1293.81 1555.96 C 1292.21 1551.59 1290.39 1547.33 1288.78 1542.99 C 1279.81 1517.71 1271.97 1492.03 1265.83 1465.91 C 1263.87 1458.31 1262.61 1450.56 1260.80 1442.94 C 1260.53 1441.24 1260.28 1439.58 1259.75 1437.97 C 1257.25 1426.08 1255.92 1413.99 1253.60 1402.08 C 1253.38 1394.65 1251.38 1387.42 1251.11 1380.01 C 1250.03 1375.80 1250.77 1371.39 1249.61 1367.22 C 1249.30 1363.89 1249.66 1360.47 1248.63 1357.25 C 1248.17 1352.60 1248.68 1347.90 1247.81 1343.30 C 1246.77 1337.56 1248.17 1331.60 1246.77 1325.93 C 1246.39 1315.96 1246.43 1305.97 1246.77 1296.00 C 1248.16 1290.33 1246.77 1284.38 1247.72 1278.64 C 1248.75 1273.72 1248.08 1268.67 1248.65 1263.71 C 1249.78 1260.14 1249.25 1256.36 1249.59 1252.70 C 1250.75 1249.49 1250.26 1246.03 1250.60 1242.71 C 1251.77 1239.50 1251.20 1236.04 1251.97 1232.77 C 1252.51 1228.40 1253.57 1224.06 1253.43 1219.65 C 1242.96 1219.98 1232.50 1219.47 1222.04 1219.73 C 1219.88 1219.72 1217.66 1219.80 1215.67 1218.90 C 1208.32 1218.78 1201.10 1217.49 1193.75 1217.41 C 1191.76 1216.88 1189.78 1216.44 1187.80 1215.96 C 1183.11 1214.93 1178.31 1214.50 1173.66 1213.32 C 1169.03 1212.70 1164.65 1211.11 1160.09 1210.24 C 1156.74 1209.22 1153.40 1208.20 1150.06 1207.17 C 1138.75 1204.30 1128.42 1198.81 1117.65 1194.57 C 1112.89 1191.45 1107.43 1189.64 1102.69 1186.49 C 1092.94 1180.68 1082.82 1175.43 1074.11 1168.04 C 1068.79 1163.23 1062.33 1159.80 1057.51 1154.43 C 1054.48 1151.10 1050.53 1148.81 1047.48 1145.51 C 1041.06 1138.96 1034.15 1132.84 1028.62 1125.49 C 1021.34 1118.22 1016.08 1109.28 1009.35 1101.54 C 1005.53 1097.33 1003.93 1091.70 1000.31 1087.37 C 997.49 1083.60 996.03 1079.06 993.66 1075.03 C 990.97 1069.27 986.26 1064.69 983.99 1058.71 C 982.81 1055.36 981.45 1052.09 979.76 1048.98 C 978.71 1044.72 976.18 1041.00 975.20 1036.71 C 972.91 1032.47 971.81 1027.71 969.42 1023.53 C 967.77 1020.51 967.10 1017.10 965.79 1013.95 C 964.75 1009.44 963.10 1005.11 961.96 1000.63 C 961.30 996.32 960.05 992.14 958.78 987.99 C 957.39 983.40 957.34 978.55 955.76 974.02 C 954.40 970.20 954.58 966.08 953.28 962.27 C 951.81 958.28 953.10 953.91 951.81 949.90 C 950.55 943.07 949.20 936.23 949.13 929.26 C 947.61 925.88 948.63 922.08 947.91 918.54 C 946.74 912.08 947.74 905.46 946.99 898.97 C 946.17 894.35 946.52 889.64 946.36 884.98 C 946.37 882.53 946.07 879.97 947.13 877.68 C 947.44 869.80 947.28 861.90 947.74 854.01 C 949.16 850.04 948.19 845.67 949.41 841.62 C 949.39 836.70 950.72 831.93 950.76 827.02 C 952.23 822.83 952.58 818.35 953.29 814.00 C 953.38 807.81 956.01 802.05 956.50 795.91 C 956.69 792.49 958.40 789.38 958.53 785.97 C 958.82 781.49 959.92 777.04 961.69 772.93 C 964.23 767.96 965.37 762.47 966.83 757.13 C 970.14 746.28 972.77 735.16 977.51 724.81 C 978.99 721.41 981.15 718.31 982.27 714.76 C 985.27 705.40 989.74 696.63 993.66 687.65 C 999.22 678.09 1003.81 668.04 1009.29 658.45 C 1012.00 653.04 1015.97 648.46 1018.65 643.03 C 1021.17 637.53 1025.57 633.31 1029.03 628.43 C 1031.38 625.31 1033.08 621.74 1035.49 618.66 C 1040.27 613.30 1043.99 607.07 1049.02 601.92 C 1055.57 595.75 1060.29 587.97 1066.60 581.58 C 1074.10 573.77 1081.81 566.16 1089.37 558.40 C 1091.86 555.88 1094.34 553.33 1097.19 551.19 C 1102.84 546.94 1106.84 540.80 1112.94 537.11 C 1118.16 533.91 1121.43 528.44 1126.65 525.24 C 1142.70 514.64 1157.86 502.55 1175.09 493.84 C 1178.54 491.58 1181.97 489.26 1185.77 487.60 C 1190.10 485.71 1193.87 482.79 1198.17 480.84 C 1205.77 478.20 1212.15 472.97 1219.80 470.38 C 1224.80 468.14 1230.07 466.65 1235.24 464.86 C 1238.98 463.73 1242.37 461.64 1246.27 460.98 C 1249.73 460.37 1252.74 458.41 1256.15 457.60 C 1260.26 456.65 1263.72 453.83 1268.00 453.37 C 1273.48 452.49 1278.54 449.95 1284.07 449.28 C 1290.33 448.03 1296.39 445.78 1302.80 445.29 C 1310.80 443.48 1318.95 442.49 1327.01 440.93 C 1330.79 440.18 1334.72 441.15 1338.49 440.18 Z" />
</g>
</svg>
