<?xml version="1.0" encoding="UTF-8" ?>
<!DOCTYPE svg PUBLIC "-//W3C//DTD SVG 1.1//EN" "http://www.w3.org/Graphics/SVG/1.1/DTD/svg11.dtd">
<svg width="1250pt" height="1250pt" viewBox="0 0 1250 1250" version="1.1" xmlns="http://www.w3.org/2000/svg">
<g id="#000000ff">
<path fill="#000000" opacity="1.00" d=" M 412.43 241.69 C 430.79 236.07 451.18 235.68 469.16 242.91 C 485.25 248.77 498.90 260.66 507.55 275.38 C 513.07 284.65 516.45 295.02 518.19 305.64 C 583.47 276.16 661.41 276.30 726.48 306.31 C 730.40 290.29 738.72 275.08 751.51 264.46 C 765.08 252.68 783.20 246.98 801.00 246.76 C 816.30 247.59 831.52 251.63 844.94 259.12 C 879.25 278.02 903.16 314.88 905.84 354.02 C 907.20 362.44 905.22 370.86 904.27 379.22 C 902.53 387.46 899.55 395.46 895.57 402.88 C 886.92 418.75 872.28 431.37 855.07 437.05 C 849.39 438.97 843.45 439.93 837.55 440.86 C 843.91 475.82 837.62 512.68 820.94 543.96 C 814.64 555.83 806.94 566.94 798.22 577.15 C 841.17 599.68 880.36 630.72 908.59 670.45 C 928.10 697.84 941.60 729.72 946.19 763.11 C 947.89 770.96 947.42 779.02 947.44 786.99 C 947.51 791.45 946.54 795.83 945.58 800.16 C 961.92 810.09 974.55 825.49 982.27 842.89 C 991.38 863.62 994.95 886.59 993.49 909.15 C 991.93 922.46 989.76 935.74 985.61 948.51 C 979.63 965.38 971.97 981.90 960.74 995.96 C 950.56 1009.67 937.46 1021.16 922.64 1029.61 C 901.18 1041.09 876.35 1047.15 852.02 1044.22 C 832.69 1041.79 814.01 1034.78 797.58 1024.37 C 773.61 1009.79 754.10 989.22 735.87 968.17 C 730.17 961.03 721.73 957.02 713.70 953.14 C 706.86 949.66 699.59 947.16 692.44 944.43 C 664.67 934.77 635.49 928.73 606.03 928.08 C 588.29 927.96 570.30 930.30 553.70 936.77 C 543.88 940.68 535.29 946.84 526.57 952.67 C 504.06 967.41 480.61 980.70 456.36 992.35 C 433.58 1003.02 410.13 1012.68 385.53 1018.29 C 374.10 1020.97 362.23 1022.63 350.49 1021.28 C 336.78 1019.18 324.13 1012.84 312.61 1005.36 C 271.27 977.35 242.59 930.90 237.41 881.10 C 236.88 872.77 235.51 864.40 236.80 856.06 C 237.48 842.87 240.79 829.73 246.94 818.01 C 253.65 805.55 264.32 795.27 277.03 789.04 C 289.92 782.54 304.46 779.74 318.82 779.56 C 315.47 769.04 312.86 758.14 313.19 747.03 C 312.70 733.84 314.35 720.63 318.00 707.95 C 324.53 688.52 336.93 671.65 351.20 657.18 C 370.10 637.94 392.29 622.31 415.20 608.26 C 427.97 600.75 440.93 593.54 454.33 587.20 C 431.85 564.45 414.76 535.93 407.58 504.61 C 402.60 483.90 402.00 462.17 405.68 441.20 C 386.82 441.22 367.65 435.21 353.33 422.69 C 337.78 409.61 328.29 390.11 326.06 370.05 C 323.95 355.96 325.98 341.61 329.38 327.89 C 340.94 288.11 372.39 253.71 412.43 241.69 M 391.55 275.49 C 373.05 288.89 358.97 308.38 352.22 330.21 C 347.35 345.76 345.85 362.81 350.66 378.56 C 354.05 390.71 361.04 402.15 371.41 409.53 C 382.61 417.92 397.13 420.98 410.91 419.74 C 411.97 416.88 412.98 414.00 413.99 411.12 C 409.19 409.30 404.29 407.65 399.82 405.12 C 391.14 399.72 383.70 392.25 378.67 383.34 C 372.86 373.58 370.52 362.25 369.87 351.03 C 370.47 341.97 371.57 332.70 375.45 324.39 C 381.63 309.96 393.52 298.30 407.69 291.70 C 423.17 284.07 442.09 283.72 457.71 291.15 C 471.38 297.48 482.58 308.09 491.65 319.96 C 493.36 318.91 495.07 317.86 496.79 316.83 C 495.87 301.36 490.47 285.74 479.52 274.50 C 470.14 265.16 457.22 259.36 443.97 258.88 C 425.16 257.59 406.71 264.77 391.55 275.49 M 792.89 267.82 C 779.35 269.31 766.46 276.48 758.39 287.51 C 751.87 296.01 748.22 306.32 746.50 316.82 C 749.23 318.47 751.95 320.16 754.65 321.88 C 765.06 310.00 778.52 300.10 794.15 296.63 C 806.82 293.79 820.37 296.06 831.72 302.26 C 846.59 309.61 858.01 323.46 862.59 339.38 C 866.14 352.56 865.72 366.89 860.55 379.58 C 855.17 393.95 843.76 406.02 829.60 411.99 C 830.65 414.91 831.66 417.85 832.65 420.80 C 847.05 420.23 861.27 413.70 870.39 402.43 C 878.39 392.42 883.18 379.87 883.87 367.06 C 884.52 355.99 883.85 344.60 880.15 334.07 C 872.94 309.78 855.94 288.48 833.65 276.37 C 821.19 269.97 806.98 265.89 792.89 267.82 M 611.36 302.58 C 569.95 304.18 528.75 316.90 494.51 340.42 C 467.28 359.20 444.45 385.16 432.13 416.09 C 423.23 437.79 420.32 461.76 422.98 485.02 C 426.37 514.79 440.03 542.88 459.61 565.35 C 481.63 590.68 510.68 609.43 542.15 620.78 C 583.12 635.72 628.28 638.14 670.90 629.45 C 707.31 621.68 742.20 605.07 769.67 579.74 C 790.36 560.87 806.60 536.85 814.99 510.04 C 822.03 487.69 823.06 463.56 818.55 440.60 C 814.80 422.00 807.05 404.32 796.66 388.50 C 777.74 360.08 750.17 337.98 719.36 323.61 C 685.82 307.78 648.33 301.00 611.36 302.58 M 409.50 314.53 C 401.79 320.06 396.28 328.32 393.54 337.36 C 389.98 351.37 392.06 367.24 401.14 378.80 C 406.27 385.88 414.38 390.12 422.71 392.21 C 435.27 368.75 453.21 348.34 474.24 332.10 C 465.91 320.82 454.90 310.50 440.96 307.00 C 429.97 304.33 418.48 308.16 409.50 314.53 M 795.84 316.58 C 786.00 319.47 777.98 326.35 771.06 333.66 C 791.75 350.04 809.24 370.54 821.55 393.92 C 835.12 388.44 842.82 373.98 844.04 359.96 C 845.12 345.85 839.14 330.84 827.25 322.73 C 818.40 316.27 806.50 312.87 795.84 316.58 M 707.98 638.14 C 664.10 654.02 615.81 657.41 570.12 647.94 C 534.44 640.67 500.19 625.49 471.69 602.71 C 435.03 620.00 399.52 640.98 370.05 669.08 C 357.47 681.67 345.80 695.91 339.87 712.92 C 337.33 719.32 336.94 726.25 335.99 733.00 C 334.54 744.05 335.55 755.28 337.95 766.13 C 341.63 780.07 350.19 792.90 362.46 800.69 C 376.32 809.95 393.40 814.09 409.97 813.18 C 424.91 812.38 439.46 805.65 449.45 794.47 C 460.80 781.81 467.03 765.48 470.79 749.13 C 472.34 744.29 472.23 739.01 474.30 734.36 C 478.17 727.16 489.82 727.13 493.79 734.25 C 496.15 737.39 495.17 741.37 494.41 744.89 C 491.68 759.89 487.33 774.77 480.18 788.30 C 472.30 803.51 460.37 817.03 445.04 824.98 C 434.98 830.67 423.47 833.23 412.06 834.34 C 419.91 844.29 425.47 855.92 429.10 868.03 C 433.86 884.25 433.07 901.32 432.73 918.03 C 431.58 930.31 430.85 942.72 427.71 954.70 C 425.47 966.07 421.45 977.03 416.30 987.39 C 454.91 972.21 491.32 951.79 525.52 928.38 C 549.90 911.99 580.12 907.12 608.99 907.81 C 646.94 908.79 684.35 918.27 719.26 932.89 C 729.47 937.79 740.03 942.61 748.32 950.53 C 753.05 955.86 757.86 961.12 762.55 966.49 C 776.62 982.10 792.13 996.63 809.98 1007.84 C 801.39 990.70 797.43 971.76 794.11 953.03 C 792.24 934.41 789.66 915.42 793.30 896.86 C 797.80 874.44 810.08 853.94 826.86 838.53 C 810.34 831.32 794.88 821.58 781.62 809.33 C 763.15 792.35 748.70 770.00 744.54 744.98 C 744.31 738.62 750.86 733.13 757.10 734.04 C 761.68 734.68 765.94 738.28 766.74 742.94 C 770.82 763.71 783.37 781.99 799.10 795.80 C 818.39 812.72 842.48 824.49 867.98 828.00 C 880.57 829.05 894.09 828.99 905.33 822.40 C 914.96 817.42 921.15 807.48 923.54 797.13 C 926.05 784.93 925.15 772.32 923.21 760.10 C 918.84 735.35 909.15 711.67 895.60 690.54 C 883.12 671.15 867.61 653.83 850.35 638.59 C 829.76 620.73 806.96 605.34 782.41 593.46 C 760.93 613.15 735.35 628.22 707.98 638.14 M 310.36 800.54 C 298.42 801.43 286.64 805.71 277.31 813.27 C 266.31 822.19 260.65 836.06 258.69 849.78 C 254.88 881.72 263.33 914.53 280.17 941.74 C 294.42 964.54 314.10 984.60 338.45 996.47 C 349.06 1001.69 361.49 1002.86 372.89 999.82 C 376.23 998.07 378.91 995.32 382.01 993.22 C 394.74 984.13 400.45 968.69 404.44 954.19 C 406.52 943.94 408.63 933.67 409.24 923.21 C 409.98 910.44 410.79 897.58 409.21 884.85 C 406.63 865.60 396.53 847.77 382.27 834.74 C 380.32 833.04 378.47 830.98 375.88 830.32 C 359.66 825.51 344.33 816.73 333.27 803.77 C 331.59 801.55 328.91 800.19 326.13 800.17 C 320.87 800.02 315.59 799.91 310.36 800.54 M 901.87 846.76 C 885.92 851.18 868.95 850.44 852.93 846.83 C 846.82 851.70 840.69 856.65 835.75 862.75 C 822.16 878.43 814.43 899.23 815.43 920.03 C 815.99 932.40 817.07 944.78 819.01 957.02 C 822.54 974.61 826.89 992.66 837.27 1007.63 C 842.77 1015.85 851.05 1022.74 861.06 1024.28 C 872.12 1025.08 883.16 1022.93 893.72 1019.80 C 917.91 1012.23 938.17 994.60 950.98 972.96 C 962.17 954.78 969.10 934.10 971.30 912.89 C 973.33 898.76 972.07 884.36 969.45 870.40 C 964.76 850.83 955.58 831.04 938.64 819.21 C 930.62 832.75 917.20 843.03 901.87 846.76 Z" />
<path fill="#000000" opacity="1.00" d=" M 519.33 421.59 C 524.23 419.62 529.75 421.22 533.98 424.00 C 540.55 428.40 544.97 435.58 546.73 443.22 C 548.09 448.69 547.71 454.81 544.73 459.70 C 541.79 464.62 535.36 466.75 529.96 465.12 C 518.98 461.94 511.97 450.83 510.53 439.94 C 509.60 432.94 512.10 424.23 519.33 421.59 Z" />
<path fill="#000000" opacity="1.00" d=" M 687.39 424.57 C 692.45 422.49 698.84 423.27 702.65 427.40 C 706.86 432.12 707.42 439.10 705.91 445.02 C 703.62 454.46 697.06 463.39 687.70 466.73 C 682.59 468.68 676.23 467.66 672.58 463.40 C 668.77 458.70 668.14 452.11 669.60 446.39 C 671.80 436.99 678.21 428.12 687.39 424.57 Z" />
<path fill="#000000" opacity="1.00" d=" M 590.49 452.77 C 611.86 450.10 633.84 452.42 654.16 459.59 C 668.48 464.68 681.96 472.53 692.77 483.30 C 701.78 492.40 708.73 503.84 711.27 516.49 C 714.78 532.30 710.47 549.21 701.25 562.33 C 690.72 577.44 674.83 588.10 657.89 594.83 C 623.34 608.21 583.25 607.18 549.69 591.29 C 535.79 584.45 522.92 574.80 514.13 561.89 C 505.00 548.67 500.82 531.67 504.56 515.88 C 507.94 499.89 518.23 486.05 530.99 476.16 C 548.03 462.79 569.17 455.50 590.49 452.77 M 590.46 468.83 C 577.33 470.54 564.46 474.52 552.82 480.85 C 540.55 487.59 529.23 497.22 523.20 510.09 C 518.06 520.72 517.82 533.58 522.59 544.38 C 527.83 556.60 537.99 566.04 549.18 572.87 C 569.08 584.92 592.93 589.26 615.96 587.84 C 635.19 586.78 654.42 581.20 670.44 570.34 C 680.03 563.73 688.60 555.05 693.17 544.18 C 698.03 533.06 697.53 519.80 691.98 509.02 C 685.38 495.84 673.35 486.19 660.44 479.57 C 639.01 468.65 614.13 465.80 590.46 468.83 Z" />
<path fill="#000000" opacity="1.00" d=" M 580.42 484.57 C 597.49 484.60 615.11 482.97 631.60 488.44 C 637.03 489.97 642.34 492.63 646.13 496.91 C 648.94 500.10 648.71 504.87 647.61 508.72 C 641.87 522.74 630.98 534.67 617.37 541.39 C 612.66 543.43 607.95 545.59 602.98 546.91 C 597.10 547.80 591.02 547.86 585.17 546.81 C 571.39 543.17 560.32 533.15 551.85 522.08 C 549.68 518.67 547.08 515.50 545.42 511.81 C 544.32 506.61 544.06 500.28 548.27 496.34 C 556.56 487.88 569.11 485.67 580.42 484.57 Z" />
<path fill="#000000" opacity="1.00" d=" M 612.45 667.74 C 647.31 663.97 683.46 678.04 706.68 704.30 C 730.75 730.82 740.93 769.18 733.08 804.14 C 727.24 832.11 710.25 857.57 686.60 873.64 C 660.25 891.89 625.76 897.90 594.83 889.30 C 564.52 881.41 538.28 859.84 524.16 831.95 C 512.84 809.68 508.90 783.63 513.72 759.07 C 518.94 730.51 535.69 704.24 559.50 687.59 C 575.02 676.50 593.50 669.76 612.45 667.74 M 608.55 687.76 C 602.23 688.75 596.04 690.50 590.10 692.86 C 560.09 704.51 537.31 732.77 532.35 764.58 C 529.42 783.03 531.66 802.40 539.57 819.39 C 547.94 837.75 562.43 853.26 580.18 862.85 C 607.96 878.12 643.79 877.33 670.84 860.78 C 698.73 844.24 716.85 812.47 716.26 779.96 C 716.75 746.24 697.03 713.43 667.36 697.57 C 649.60 687.74 628.53 684.55 608.55 687.76 Z" />
</g>
</svg>
