<?xml version="1.0" encoding="UTF-8" ?>
<!DOCTYPE svg PUBLIC "-//W3C//DTD SVG 1.1//EN" "http://www.w3.org/Graphics/SVG/1.1/DTD/svg11.dtd">
<svg width="4000pt" height="4000pt" viewBox="0 0 4000 4000" version="1.1" xmlns="http://www.w3.org/2000/svg">
<g id="#000000ff">
<path fill="#000000" opacity="1.00" d=" M 1334.91 949.87 C 1340.29 949.26 1345.49 947.19 1350.97 947.56 C 1361.64 948.01 1372.55 948.54 1382.64 952.37 C 1387.59 955.36 1393.29 956.81 1398.20 959.89 C 1404.33 963.59 1410.69 967.11 1415.84 972.18 C 1423.56 979.77 1431.30 987.44 1437.83 996.11 C 1445.98 1008.47 1453.83 1021.22 1458.74 1035.27 C 1464.41 1051.60 1469.66 1068.51 1469.74 1085.95 C 1469.98 1084.28 1470.25 1082.64 1470.50 1081.00 C 1470.01 1087.31 1470.59 1093.66 1471.52 1099.91 C 1471.71 1109.93 1471.42 1119.97 1470.62 1129.96 C 1470.69 1141.47 1468.41 1152.83 1465.77 1163.99 C 1462.19 1175.63 1459.33 1187.61 1453.66 1198.48 C 1449.13 1206.87 1444.84 1215.48 1438.85 1222.96 C 1434.03 1228.75 1429.02 1234.42 1423.32 1239.37 C 1407.10 1252.20 1387.88 1262.37 1367.01 1264.24 C 1357.09 1266.13 1346.86 1265.57 1336.96 1263.88 C 1328.78 1261.84 1320.19 1261.24 1312.40 1257.81 C 1306.34 1255.18 1300.22 1252.65 1294.36 1249.60 C 1287.02 1245.13 1280.14 1239.89 1274.00 1233.88 C 1260.84 1222.68 1251.07 1208.02 1243.25 1192.76 C 1233.96 1172.17 1228.00 1149.65 1228.52 1126.96 C 1227.80 1115.61 1229.33 1104.31 1229.61 1092.99 C 1230.50 1081.08 1233.31 1069.42 1236.58 1057.98 C 1239.88 1048.77 1241.61 1038.94 1246.37 1030.30 C 1251.66 1019.81 1256.40 1008.89 1263.67 999.57 C 1268.63 993.53 1273.16 987.12 1278.62 981.50 C 1283.10 976.68 1288.51 972.88 1293.68 968.85 C 1305.86 959.75 1319.68 952.09 1334.91 949.87 Z" />
<path fill="#000000" opacity="1.00" d=" M 2275.15 957.36 C 2283.43 955.65 2291.89 956.57 2300.28 956.25 C 2300.58 956.72 2301.19 957.67 2301.49 958.15 C 2304.99 958.27 2308.85 957.89 2311.84 960.14 C 2317.75 959.92 2323.08 962.86 2328.73 964.17 C 2340.21 968.79 2352.21 972.50 2362.66 979.32 C 2374.34 986.73 2386.09 994.35 2396.00 1004.09 C 2398.40 1007.36 2402.34 1008.87 2404.87 1012.04 C 2411.42 1019.20 2417.78 1026.54 2424.15 1033.88 C 2427.96 1037.89 2430.13 1043.10 2433.73 1047.30 C 2443.78 1061.49 2452.13 1076.81 2459.19 1092.70 C 2460.94 1096.93 2463.75 1100.68 2465.20 1105.07 C 2468.26 1115.20 2472.80 1124.82 2474.74 1135.24 C 2475.83 1140.61 2478.36 1145.59 2478.89 1151.09 C 2480.71 1155.50 2480.70 1160.33 2481.67 1164.96 C 2485.41 1181.32 2485.66 1198.20 2485.49 1214.96 C 2485.40 1223.70 2482.80 1232.23 2483.22 1241.00 C 2483.48 1245.40 2480.88 1249.41 2481.41 1253.83 C 2481.19 1253.30 2481.02 1252.78 2480.88 1252.29 C 2478.34 1264.22 2474.64 1275.94 2470.01 1287.24 C 2467.36 1294.19 2464.31 1301.03 2460.19 1307.25 C 2455.87 1313.63 2452.46 1320.64 2447.41 1326.51 C 2440.66 1334.99 2434.16 1343.88 2425.53 1350.58 C 2418.73 1356.54 2411.46 1361.94 2403.93 1366.94 C 2399.62 1370.22 2394.75 1372.62 2389.87 1374.91 C 2384.95 1376.81 2380.50 1379.71 2375.59 1381.62 C 2365.28 1385.38 2354.92 1389.39 2343.98 1390.81 C 2333.73 1392.55 2323.30 1392.42 2312.95 1392.40 C 2311.55 1392.20 2310.33 1392.66 2309.25 1393.42 C 2303.77 1392.61 2298.28 1391.92 2292.80 1391.25 C 2286.59 1390.24 2280.79 1387.68 2274.71 1386.19 C 2264.23 1383.87 2254.74 1378.64 2245.41 1373.55 C 2237.80 1369.47 2231.17 1363.89 2224.38 1358.64 C 2211.68 1349.43 2202.01 1336.91 2192.01 1325.00 C 2185.95 1315.48 2179.07 1306.45 2173.68 1296.51 C 2172.00 1292.84 2170.09 1289.28 2167.53 1286.17 C 2166.47 1279.93 2162.43 1274.76 2160.07 1269.01 C 2158.14 1262.50 2154.81 1256.50 2152.96 1249.95 C 2149.04 1235.93 2145.01 1221.89 2142.25 1207.61 C 2140.89 1205.10 2141.47 1202.15 2140.89 1199.47 C 2139.30 1191.02 2137.05 1182.59 2137.34 1173.93 C 2137.47 1169.90 2136.64 1165.96 2136.00 1162.01 C 2135.22 1150.67 2135.77 1139.30 2136.91 1128.01 C 2137.66 1124.32 2136.85 1120.41 2138.23 1116.85 C 2139.97 1112.38 2138.39 1107.41 2140.17 1102.95 C 2141.61 1098.92 2141.63 1094.60 2142.82 1090.51 C 2147.13 1074.48 2151.26 1058.11 2159.57 1043.59 C 2168.71 1023.18 2182.26 1004.82 2198.73 989.72 C 2204.14 985.07 2209.66 980.50 2215.79 976.82 C 2219.80 973.00 2225.29 971.73 2230.11 969.26 C 2233.99 967.32 2238.01 965.65 2242.17 964.36 C 2246.95 962.38 2251.74 960.21 2256.95 959.61 C 2263.07 959.27 2269.01 957.58 2275.15 957.36 Z" />
<path fill="#000000" opacity="1.00" d=" M 2624.10 965.01 C 2628.24 962.33 2633.39 962.82 2637.77 960.77 C 2647.37 960.91 2657.21 959.18 2666.61 961.98 C 2675.20 964.20 2684.22 965.51 2692.09 969.86 C 2705.23 976.33 2716.85 985.58 2727.07 996.01 C 2734.00 1002.91 2739.06 1011.35 2744.69 1019.28 C 2751.29 1028.89 2755.21 1039.91 2759.82 1050.53 C 2763.64 1060.01 2765.53 1070.11 2768.18 1079.95 C 2769.55 1086.62 2771.47 1093.23 2771.69 1100.08 C 2774.12 1115.91 2773.81 1132.11 2771.84 1147.99 C 2770.18 1170.59 2763.47 1192.77 2752.72 1212.69 C 2743.78 1227.51 2732.98 1241.64 2718.80 1251.81 C 2704.37 1264.70 2685.90 1272.37 2667.12 1276.09 C 2660.71 1276.32 2654.42 1277.80 2648.01 1277.79 C 2637.32 1277.54 2626.51 1276.97 2616.18 1274.04 C 2598.43 1269.32 2582.56 1259.16 2569.11 1246.85 C 2560.78 1238.03 2553.23 1228.31 2547.75 1217.44 C 2544.45 1210.60 2541.13 1203.73 2538.66 1196.54 C 2535.87 1190.66 2535.37 1184.09 2533.59 1177.90 C 2530.12 1166.22 2529.68 1153.99 2528.37 1141.99 C 2528.92 1132.32 2528.21 1122.61 2529.35 1112.99 C 2530.46 1100.07 2531.37 1087.04 2534.81 1074.49 C 2536.67 1065.70 2539.85 1057.28 2543.08 1048.93 C 2547.50 1038.75 2551.86 1028.42 2558.28 1019.30 C 2562.85 1012.91 2566.74 1005.92 2572.53 1000.49 C 2581.39 991.34 2590.44 982.15 2601.32 975.37 C 2608.60 971.28 2616.15 967.63 2624.10 965.01 Z" />
<path fill="#000000" opacity="1.00" d=" M 1677.80 971.11 C 1688.86 967.59 1700.47 966.55 1711.98 965.61 C 1720.00 965.22 1728.09 965.97 1735.88 967.94 C 1744.54 969.54 1753.61 970.33 1761.55 974.43 C 1762.16 974.46 1763.39 974.51 1764.00 974.54 C 1770.61 978.05 1777.16 981.76 1783.90 985.10 C 1788.54 987.21 1791.69 991.41 1796.02 994.01 C 1802.96 999.66 1809.31 1006.03 1815.00 1012.94 C 1820.31 1018.49 1824.49 1024.96 1828.58 1031.43 C 1835.39 1041.32 1839.84 1052.55 1844.55 1063.52 C 1848.54 1072.63 1851.31 1082.23 1853.32 1091.95 C 1855.81 1101.81 1857.54 1111.85 1858.63 1121.96 C 1858.75 1125.71 1857.99 1129.65 1860.03 1133.06 C 1860.74 1137.67 1859.06 1142.39 1859.97 1147.05 C 1861.14 1153.71 1859.70 1160.44 1859.62 1167.13 C 1859.55 1174.10 1858.58 1181.02 1858.40 1188.00 C 1857.39 1194.63 1856.11 1201.17 1854.85 1207.72 C 1853.24 1211.64 1852.97 1215.91 1852.29 1220.06 C 1850.42 1227.17 1848.02 1234.13 1846.17 1241.26 C 1845.79 1242.45 1845.30 1243.63 1844.57 1244.67 C 1844.47 1245.81 1844.35 1246.96 1844.23 1248.12 C 1842.18 1252.62 1840.81 1257.39 1839.37 1262.12 C 1831.43 1279.54 1823.61 1297.18 1813.39 1313.45 C 1808.72 1320.34 1803.88 1327.13 1798.53 1333.51 C 1793.78 1340.61 1787.55 1346.51 1781.76 1352.74 C 1771.90 1363.11 1760.23 1371.51 1748.18 1379.13 C 1738.94 1384.60 1729.11 1389.09 1718.94 1392.51 C 1708.43 1395.22 1697.86 1397.95 1687.00 1398.69 C 1678.46 1400.68 1669.65 1398.85 1661.01 1398.63 C 1650.61 1398.67 1640.67 1395.29 1630.55 1393.42 C 1628.32 1392.10 1625.66 1391.85 1623.45 1390.52 C 1610.15 1386.30 1598.17 1378.81 1586.16 1371.80 C 1573.20 1362.02 1560.35 1351.69 1550.30 1338.84 C 1548.79 1335.43 1545.64 1333.26 1543.85 1330.06 C 1541.23 1325.76 1537.80 1321.99 1535.58 1317.45 C 1530.96 1308.29 1525.41 1299.57 1521.98 1289.86 C 1519.39 1282.14 1516.75 1274.41 1514.99 1266.45 C 1512.43 1255.77 1509.77 1244.98 1509.55 1233.95 C 1508.75 1221.96 1509.63 1209.96 1509.69 1197.98 C 1510.34 1192.97 1510.65 1187.95 1510.89 1182.92 C 1511.60 1180.31 1512.71 1177.78 1512.43 1175.00 C 1512.08 1172.05 1514.14 1169.57 1513.88 1166.64 C 1516.72 1161.19 1516.24 1154.59 1519.20 1149.22 C 1519.76 1145.26 1521.26 1141.49 1522.99 1137.92 C 1525.21 1127.96 1529.34 1118.59 1533.15 1109.15 C 1535.69 1102.14 1539.60 1095.77 1543.21 1089.28 C 1550.27 1075.48 1558.79 1062.48 1568.07 1050.07 C 1572.80 1044.75 1576.58 1038.65 1581.63 1033.60 C 1588.37 1026.67 1594.87 1019.49 1601.94 1012.91 C 1608.94 1008.00 1615.11 1002.02 1622.25 997.29 C 1631.27 991.12 1640.90 985.90 1650.47 980.63 C 1659.36 976.90 1668.61 974.03 1677.80 971.11 Z" />
<path fill="#000000" opacity="1.00" d=" M 1060.47 979.74 C 1065.63 979.32 1070.83 979.17 1076.02 979.19 C 1085.75 980.15 1095.09 983.27 1104.13 986.90 C 1113.91 991.12 1122.25 997.90 1130.50 1004.52 C 1144.04 1015.62 1154.36 1030.14 1162.37 1045.60 C 1175.54 1070.05 1180.79 1097.89 1182.79 1125.34 C 1184.11 1132.88 1182.40 1140.47 1182.56 1148.05 C 1182.64 1154.44 1180.69 1160.61 1180.20 1166.96 C 1179.27 1175.96 1176.00 1184.46 1173.25 1193.02 C 1171.04 1200.81 1166.65 1207.72 1162.40 1214.53 C 1152.44 1231.21 1136.54 1243.53 1119.57 1252.51 C 1109.55 1256.82 1098.80 1259.55 1087.94 1260.51 C 1074.23 1260.59 1060.29 1260.12 1047.03 1256.29 C 1030.48 1250.93 1015.44 1241.19 1003.47 1228.59 C 991.49 1216.80 983.14 1201.88 976.98 1186.37 C 970.93 1171.28 968.65 1155.05 966.60 1139.03 C 966.68 1131.01 965.01 1123.02 966.15 1115.02 C 966.53 1103.60 968.29 1092.29 970.15 1081.04 C 972.05 1071.24 975.39 1061.80 978.56 1052.36 C 981.58 1043.70 986.63 1036.02 991.04 1028.05 C 996.10 1019.14 1003.30 1011.74 1010.51 1004.56 C 1017.97 997.46 1026.13 990.69 1035.90 987.05 C 1043.93 984.15 1051.84 980.49 1060.47 979.74 Z" />
<path fill="#000000" opacity="1.00" d=" M 2928.37 1009.46 C 2938.26 1008.74 2948.27 1009.88 2957.82 1012.50 C 2965.02 1015.25 2972.17 1018.28 2978.92 1022.05 C 2989.88 1028.77 2998.36 1038.67 3006.41 1048.53 C 3012.13 1055.21 3015.89 1063.23 3019.73 1071.07 C 3024.96 1080.43 3027.44 1090.90 3030.30 1101.15 C 3032.95 1109.89 3033.77 1119.03 3034.66 1128.09 C 3036.64 1142.35 3035.59 1156.82 3034.13 1171.09 C 3031.27 1189.96 3027.28 1209.09 3018.17 1226.05 C 3014.09 1234.07 3009.40 1241.80 3003.93 1248.94 C 2991.80 1263.93 2975.88 1275.74 2958.12 1283.20 C 2940.01 1290.40 2919.94 1291.00 2900.88 1288.03 C 2891.36 1286.07 2881.96 1283.15 2873.36 1278.60 C 2856.86 1268.73 2841.80 1255.45 2832.93 1238.15 C 2828.06 1230.45 2824.86 1221.90 2822.58 1213.13 C 2819.33 1203.71 2818.31 1193.76 2817.22 1183.92 C 2815.11 1175.44 2815.57 1166.61 2816.36 1157.99 C 2816.38 1151.44 2818.08 1145.07 2818.88 1138.60 C 2821.72 1120.61 2826.75 1102.92 2833.91 1086.16 C 2837.63 1077.56 2842.74 1069.66 2847.77 1061.78 C 2853.18 1053.11 2860.55 1045.95 2867.54 1038.57 C 2874.07 1032.24 2881.72 1027.18 2889.39 1022.32 C 2900.93 1014.64 2914.68 1010.79 2928.37 1009.46 Z" />
<path fill="#000000" opacity="1.00" d=" M 800.34 1095.31 C 805.92 1092.44 812.17 1091.41 818.15 1089.70 C 829.03 1088.52 839.99 1090.22 850.59 1092.66 C 859.51 1095.81 867.98 1100.16 876.15 1104.90 C 891.42 1114.64 903.72 1128.47 913.39 1143.68 C 923.30 1159.73 930.39 1177.48 934.63 1195.85 C 935.45 1199.16 936.68 1202.41 936.79 1205.88 C 936.94 1205.28 937.10 1204.70 937.28 1204.14 C 937.78 1212.78 939.84 1221.32 939.56 1230.02 C 939.34 1242.66 939.16 1255.46 936.03 1267.79 C 931.36 1288.07 920.27 1306.88 904.30 1320.29 C 894.39 1329.65 881.81 1335.55 869.00 1339.82 C 865.69 1340.74 862.18 1340.62 858.91 1341.72 C 852.46 1343.64 845.66 1343.45 839.04 1342.78 C 829.26 1342.46 819.41 1340.65 810.52 1336.43 C 802.17 1333.48 794.52 1328.83 787.56 1323.40 C 774.05 1313.41 764.07 1299.39 756.45 1284.59 C 751.31 1274.62 748.26 1263.80 745.26 1253.05 C 742.30 1241.27 740.16 1229.20 739.75 1217.04 C 740.50 1211.03 739.19 1205.05 739.71 1199.04 C 740.10 1193.12 741.00 1187.26 742.10 1181.44 C 744.57 1163.23 750.62 1145.28 760.99 1130.02 C 767.46 1120.13 775.11 1110.71 785.03 1104.10 C 790.05 1101.03 795.06 1097.92 800.34 1095.31 Z" />
<path fill="#000000" opacity="1.00" d=" M 3167.69 1134.16 C 3178.65 1132.58 3189.58 1135.26 3199.70 1139.28 C 3207.75 1143.63 3215.48 1148.67 3222.49 1154.58 C 3235.67 1167.73 3245.33 1184.28 3250.97 1201.99 C 3255.73 1216.83 3256.76 1232.51 3257.25 1247.97 C 3256.88 1260.38 3255.95 1272.80 3253.63 1285.01 C 3251.00 1296.36 3247.62 1307.54 3242.91 1318.23 C 3237.25 1332.63 3228.33 1345.58 3217.80 1356.85 C 3209.74 1365.51 3199.54 1371.85 3189.18 1377.35 C 3179.13 1381.13 3168.88 1385.17 3158.04 1385.64 C 3146.91 1386.93 3135.69 1385.23 3125.00 1382.12 C 3092.17 1373.33 3066.04 1344.89 3058.48 1311.97 C 3055.08 1298.60 3054.80 1284.69 3055.48 1270.98 C 3055.81 1261.94 3057.02 1252.92 3059.10 1244.11 C 3064.88 1223.85 3072.41 1203.81 3084.15 1186.19 C 3093.12 1173.11 3103.98 1161.13 3116.94 1151.90 C 3126.67 1144.94 3137.80 1140.33 3149.00 1136.32 C 3155.01 1134.28 3161.41 1134.41 3167.69 1134.16 Z" />
<path fill="#000000" opacity="1.00" d=" M 624.59 1245.09 C 630.70 1244.46 636.94 1244.45 643.00 1245.61 C 661.22 1250.43 679.06 1258.93 692.05 1272.90 C 698.96 1280.16 705.86 1287.59 710.82 1296.36 C 715.22 1304.42 719.70 1312.46 723.13 1320.99 C 725.93 1328.24 729.32 1335.34 730.81 1343.03 C 736.19 1366.27 736.56 1391.22 728.45 1413.89 C 726.43 1420.45 722.47 1426.16 718.96 1431.99 C 702.80 1457.56 672.23 1473.04 642.08 1471.36 C 631.43 1470.20 620.95 1467.28 611.36 1462.48 C 604.55 1458.93 597.72 1455.19 592.24 1449.73 C 585.38 1442.83 578.70 1435.61 573.70 1427.22 C 567.67 1417.06 563.27 1406.03 559.26 1394.95 C 555.20 1384.41 553.51 1373.15 552.41 1361.97 C 550.26 1347.71 551.10 1333.11 553.89 1318.99 C 555.50 1311.44 557.12 1303.81 560.51 1296.83 C 567.04 1282.68 574.96 1268.22 588.17 1259.26 C 598.41 1250.84 611.21 1245.27 624.59 1245.09 Z" />
<path fill="#000000" opacity="1.00" d=" M 3349.21 1301.20 C 3359.70 1299.99 3370.56 1299.87 3380.86 1302.63 C 3390.73 1305.36 3399.51 1311.07 3407.02 1317.95 C 3419.16 1327.34 3425.96 1341.66 3431.61 1355.55 C 3436.19 1366.81 3437.37 1379.03 3438.73 1390.98 C 3437.71 1399.02 3439.05 1407.17 3437.49 1415.16 C 3435.66 1425.90 3434.14 1436.80 3430.51 1447.13 C 3424.63 1462.73 3417.55 1478.11 3407.29 1491.35 C 3402.58 1496.93 3397.24 1501.94 3391.77 1506.74 C 3383.51 1514.01 3373.17 1518.25 3362.97 1521.98 C 3353.27 1524.68 3343.13 1526.17 3333.07 1525.41 C 3312.74 1523.87 3293.46 1514.15 3278.97 1500.01 C 3265.64 1485.72 3255.93 1467.52 3253.59 1447.97 C 3252.20 1436.72 3251.72 1425.20 3253.99 1414.03 C 3255.14 1404.97 3257.44 1396.11 3260.22 1387.44 C 3264.06 1377.90 3268.39 1368.54 3273.59 1359.67 C 3278.62 1350.94 3283.85 1342.19 3290.90 1334.92 C 3297.05 1328.71 3303.31 1322.54 3310.45 1317.44 C 3322.14 1309.59 3335.31 1303.75 3349.21 1301.20 Z" />
<path fill="#000000" opacity="1.00" d=" M 1203.02 1302.91 C 1209.64 1302.01 1216.33 1303.03 1222.98 1302.35 C 1233.69 1302.38 1244.37 1303.53 1255.07 1303.93 C 1263.37 1306.26 1272.11 1304.89 1280.50 1306.77 C 1284.58 1307.84 1288.88 1307.41 1292.96 1308.56 C 1297.21 1309.70 1301.65 1309.55 1305.96 1310.44 C 1318.37 1312.96 1330.93 1314.91 1343.14 1318.33 C 1357.51 1321.26 1371.47 1325.89 1385.43 1330.33 C 1390.55 1331.28 1394.88 1334.45 1400.03 1335.34 C 1409.78 1339.12 1419.76 1342.36 1429.27 1346.78 C 1446.24 1354.65 1463.92 1360.89 1480.56 1369.50 C 1502.27 1380.11 1523.03 1392.57 1543.23 1405.82 C 1560.06 1416.73 1576.16 1428.70 1591.79 1441.27 C 1602.55 1450.13 1613.79 1458.52 1623.52 1468.57 C 1634.97 1479.76 1646.10 1491.33 1655.85 1504.05 C 1666.31 1517.72 1676.86 1531.39 1685.87 1546.09 C 1702.62 1573.03 1713.50 1603.41 1719.03 1634.59 C 1722.06 1653.53 1722.98 1672.75 1722.55 1691.92 C 1722.47 1695.77 1721.62 1699.55 1721.29 1703.40 C 1723.59 1704.76 1722.11 1707.84 1722.42 1710.03 C 1721.65 1718.49 1721.15 1726.99 1721.51 1735.50 C 1721.02 1735.43 1720.05 1735.29 1719.56 1735.21 C 1720.08 1748.78 1717.13 1762.13 1715.15 1775.49 C 1709.99 1805.10 1703.68 1834.57 1694.42 1863.20 C 1693.24 1867.03 1691.88 1870.82 1690.91 1874.72 C 1883.23 1874.77 2075.56 1874.79 2267.89 1874.71 C 2261.83 1852.32 2255.98 1829.83 2252.47 1806.89 C 2250.67 1795.98 2249.08 1785.05 2247.63 1774.10 C 2246.76 1764.08 2244.67 1754.08 2245.46 1743.99 C 2245.14 1745.64 2244.87 1747.32 2244.62 1749.00 C 2245.20 1739.99 2243.28 1731.06 2243.33 1722.06 C 2243.13 1686.58 2243.91 1650.64 2252.91 1616.10 C 2261.98 1583.07 2277.52 1551.78 2298.89 1524.97 C 2304.95 1517.36 2311.24 1509.93 2317.55 1502.52 C 2324.93 1494.96 2331.82 1486.91 2339.53 1479.66 C 2347.43 1472.53 2355.21 1465.25 2363.34 1458.39 C 2407.92 1423.94 2456.57 1394.50 2508.59 1372.74 C 2527.34 1364.80 2546.82 1358.81 2565.80 1351.44 C 2587.92 1344.36 2610.34 1338.22 2633.02 1333.15 C 2656.16 1328.76 2679.48 1325.02 2703.01 1323.36 C 2710.62 1322.05 2718.35 1322.38 2726.05 1322.18 C 2735.69 1321.48 2745.36 1321.67 2755.02 1321.42 C 2763.04 1321.14 2770.94 1322.93 2778.97 1322.88 C 2785.58 1323.94 2792.33 1323.28 2798.95 1324.41 C 2803.30 1324.76 2807.63 1325.43 2812.01 1325.79 C 2819.53 1327.64 2827.32 1327.89 2834.90 1329.62 C 2845.83 1330.92 2856.37 1334.21 2867.06 1336.77 C 2871.45 1337.71 2875.73 1339.51 2880.33 1339.30 C 2880.78 1339.74 2881.67 1340.62 2882.11 1341.06 C 2886.47 1341.31 2890.68 1342.43 2894.79 1343.91 C 2905.41 1346.86 2915.97 1349.99 2926.28 1353.92 C 2946.07 1359.78 2965.02 1368.08 2984.13 1375.82 C 2995.36 1380.20 3005.90 1386.08 3016.81 1391.16 C 3023.76 1394.68 3031.32 1396.91 3038.09 1400.82 C 3055.59 1410.79 3073.84 1419.40 3091.01 1429.96 C 3096.41 1433.51 3102.54 1435.75 3107.93 1439.35 C 3124.99 1449.84 3142.66 1459.39 3158.92 1471.16 C 3173.55 1481.63 3189.84 1489.77 3203.40 1501.72 C 3212.04 1509.01 3220.55 1516.46 3229.09 1523.89 C 3234.71 1528.92 3240.87 1533.36 3245.91 1539.04 C 3252.17 1546.13 3259.00 1552.70 3265.11 1559.93 C 3271.95 1567.51 3277.90 1575.82 3283.94 1584.05 C 3295.59 1599.32 3303.63 1616.87 3312.37 1633.87 C 3319.79 1653.74 3328.80 1673.01 3335.94 1693.00 C 3357.13 1751.05 3366.13 1812.96 3367.75 1874.53 C 3393.13 1875.05 3418.53 1874.60 3443.93 1874.75 C 3489.65 1874.75 3535.38 1874.75 3581.11 1874.76 C 3581.10 1891.49 3581.10 1908.24 3581.11 1924.98 C 2539.40 1924.98 1497.69 1924.98 455.98 1924.97 C 434.88 1925.07 413.78 1924.87 392.68 1925.05 C 392.66 1908.28 392.70 1891.52 392.66 1874.76 C 459.27 1874.73 525.87 1874.78 592.48 1874.73 C 592.18 1865.48 593.30 1856.28 593.15 1847.04 C 593.58 1820.21 596.71 1793.54 600.71 1767.02 C 608.71 1714.31 623.89 1662.52 647.44 1614.62 C 654.96 1599.99 661.19 1584.72 669.45 1570.48 C 675.21 1560.38 681.17 1550.37 687.91 1540.90 C 698.51 1527.90 708.95 1514.67 721.33 1503.28 C 728.22 1496.87 734.47 1489.75 742.00 1484.06 C 749.58 1478.30 756.80 1472.09 764.53 1466.54 C 773.19 1460.16 781.44 1453.21 790.58 1447.50 C 797.23 1443.02 804.54 1439.68 811.43 1435.61 C 822.42 1429.31 833.14 1422.55 844.18 1416.34 C 853.66 1410.96 863.62 1406.51 873.13 1401.20 C 880.65 1396.77 888.81 1393.65 896.54 1389.65 C 912.99 1380.56 930.61 1373.88 947.38 1365.43 C 955.23 1361.51 963.82 1359.39 971.80 1355.78 C 984.30 1350.77 996.57 1345.11 1009.47 1341.19 C 1018.74 1337.84 1028.05 1334.64 1037.46 1331.73 C 1046.90 1328.23 1056.88 1326.69 1066.46 1323.64 C 1089.16 1316.56 1112.88 1313.92 1135.97 1308.47 C 1139.89 1307.47 1143.94 1307.38 1147.96 1307.28 C 1150.69 1305.58 1153.89 1305.79 1156.97 1305.60 C 1162.10 1305.02 1167.27 1305.54 1172.42 1305.62 C 1172.71 1305.13 1173.28 1304.16 1173.57 1303.68 C 1180.37 1303.53 1187.20 1303.49 1193.97 1302.70 C 1196.99 1302.47 1200.00 1303.35 1203.02 1302.91 Z" />
<path fill="#000000" opacity="1.00" d=" M 387.37 2599.29 C 1449.95 2599.26 2512.52 2599.26 3575.10 2599.30 C 3575.10 2616.04 3575.11 2632.78 3575.09 2649.53 C 3425.02 2649.57 3274.94 2649.53 3124.87 2649.55 C 3104.24 2684.78 3082.51 2719.35 3060.95 2754.01 C 3050.08 2771.03 3038.75 2787.74 3027.66 2804.61 C 3007.08 2834.37 2986.96 2864.45 2965.71 2893.75 C 2953.12 2910.85 2941.15 2928.41 2928.57 2945.52 C 2917.48 2960.47 2906.67 2975.62 2895.55 2990.54 C 2885.23 3003.90 2875.00 3017.32 2864.47 3030.51 C 2845.56 3054.03 2827.84 3078.47 2809.62 3102.53 C 2801.48 3112.47 2793.16 3122.26 2785.26 3132.40 C 2783.49 3132.11 2781.44 3131.54 2780.52 3133.53 C 2767.58 3150.73 2754.16 3167.73 2738.28 3182.34 C 2724.62 3194.68 2711.26 3207.45 2696.37 3218.32 C 2665.68 3240.15 2633.32 3259.84 2598.77 3274.95 C 2588.32 3279.22 2577.57 3282.64 2567.10 3286.82 C 2547.78 3294.88 2527.16 3298.94 2506.97 3304.06 C 2496.34 3305.16 2485.79 3307.04 2475.13 3307.73 C 2468.22 3309.45 2461.05 3308.25 2454.06 3309.24 C 2445.71 3309.67 2437.32 3309.62 2428.98 3309.21 C 2423.43 3308.22 2417.75 3309.25 2412.26 3307.98 C 2400.75 3306.54 2389.19 3305.31 2377.96 3302.34 C 2358.22 3297.72 2338.99 3290.99 2320.47 3282.77 C 2300.20 3273.45 2280.36 3262.92 2262.39 3249.62 C 2248.60 3239.21 2235.19 3228.26 2222.81 3216.22 C 2208.68 3203.24 2196.60 3188.27 2185.05 3173.02 C 2174.48 3159.07 2165.82 3143.81 2158.07 3128.16 C 2154.33 3120.45 2150.04 3113.00 2147.06 3104.96 C 2140.43 3087.20 2134.47 3069.18 2129.65 3050.84 C 2127.82 3040.60 2125.66 3030.37 2125.18 3019.96 C 2123.95 3009.34 2124.18 2998.64 2123.74 2987.99 C 2123.57 2978.96 2123.16 2969.93 2123.30 2960.91 C 2125.23 2938.80 2128.19 2916.70 2134.15 2895.28 C 2136.88 2884.67 2139.76 2874.09 2143.56 2863.82 C 2151.42 2843.41 2161.16 2823.79 2171.72 2804.67 C 2182.15 2787.69 2193.86 2771.54 2205.04 2755.06 C 2215.89 2738.92 2226.65 2722.72 2237.91 2706.87 C 2250.82 2687.44 2265.02 2668.92 2278.08 2649.59 C 2061.88 2649.50 1845.68 2649.55 1629.48 2649.57 C 1650.07 2682.68 1670.75 2715.76 1690.59 2749.34 C 1699.93 2765.60 1709.97 2781.44 1719.35 2797.68 C 1725.07 2807.74 1731.39 2817.54 1735.72 2828.33 C 1744.43 2847.80 1752.93 2867.54 1757.91 2888.37 C 1766.99 2924.06 1771.75 2961.15 1768.67 2997.97 C 1768.32 3005.70 1768.49 3013.54 1766.73 3021.15 C 1765.37 3032.24 1763.64 3043.31 1761.11 3054.22 C 1756.18 3074.87 1748.28 3094.66 1739.95 3114.15 C 1736.44 3123.10 1731.33 3131.27 1726.62 3139.62 C 1721.33 3148.63 1715.86 3157.53 1710.14 3166.27 C 1705.95 3172.91 1700.69 3178.77 1695.79 3184.89 C 1684.13 3198.73 1671.92 3212.24 1657.98 3223.84 C 1644.25 3235.68 1629.56 3246.37 1614.55 3256.51 C 1593.81 3269.99 1571.06 3280.12 1547.87 3288.58 C 1528.21 3295.77 1507.67 3300.24 1486.94 3302.98 C 1467.07 3305.06 1447.01 3306.77 1427.05 3304.77 C 1421.16 3304.62 1415.27 3304.33 1409.55 3302.89 C 1403.85 3302.61 1398.30 3301.35 1392.84 3299.82 C 1370.03 3296.47 1347.86 3289.87 1326.33 3281.73 C 1315.93 3278.18 1306.36 3272.64 1296.05 3268.88 C 1289.56 3265.65 1282.72 3263.19 1276.31 3259.82 C 1258.55 3250.72 1241.77 3239.86 1225.16 3228.83 C 1209.90 3217.87 1194.33 3207.24 1180.30 3194.71 C 1171.75 3187.29 1164.04 3178.98 1156.12 3170.93 C 1137.49 3153.25 1121.83 3132.70 1107.73 3111.31 C 1106.96 3110.05 1106.47 3108.67 1105.98 3107.36 C 1105.16 3107.68 1103.51 3108.32 1102.68 3108.64 C 1091.15 3092.64 1079.27 3076.87 1068.65 3060.23 C 1046.90 3026.35 1023.18 2993.80 1000.91 2960.27 C 991.45 2946.53 982.96 2932.17 973.69 2918.31 C 960.88 2898.67 948.73 2878.61 936.13 2858.84 C 926.02 2843.17 916.43 2827.18 906.78 2811.24 C 896.94 2794.44 886.53 2778.00 876.73 2761.19 C 855.10 2724.59 834.88 2687.19 814.98 2649.64 C 672.45 2649.41 529.90 2649.63 387.36 2649.53 C 387.41 2632.78 387.40 2616.04 387.37 2599.29 Z" />
</g>
</svg>
