<?xml version="1.0" encoding="UTF-8" ?>
<!DOCTYPE svg PUBLIC "-//W3C//DTD SVG 1.1//EN" "http://www.w3.org/Graphics/SVG/1.1/DTD/svg11.dtd">
<svg width="1250pt" height="1250pt" viewBox="0 0 1250 1250" version="1.1" xmlns="http://www.w3.org/2000/svg">
<g id="#000000ff">
<path fill="#000000" opacity="1.00" d=" M 371.35 215.47 C 380.48 213.12 390.47 215.64 397.96 221.20 C 408.09 228.63 413.87 240.59 416.61 252.59 C 421.33 270.33 419.64 288.85 419.83 306.99 C 419.21 320.97 417.89 334.99 419.17 348.98 C 419.77 354.56 417.69 360.83 412.72 363.86 C 408.20 366.61 402.04 365.34 398.55 361.51 C 394.30 356.79 393.09 350.20 393.06 344.04 C 393.05 323.68 392.77 303.32 392.76 282.96 C 392.78 275.17 392.03 267.33 390.17 259.76 C 388.72 254.97 386.52 249.71 381.83 247.29 C 378.04 245.69 373.96 247.71 371.04 250.14 C 361.62 258.01 356.38 269.43 351.52 280.41 C 345.57 293.46 341.49 307.28 338.29 321.24 C 335.30 333.88 330.94 346.16 327.94 358.80 C 325.25 370.02 324.65 381.59 323.78 393.05 C 322.06 406.27 328.81 420.06 339.98 427.17 C 353.57 434.16 369.93 432.25 383.71 426.80 C 389.07 425.01 394.05 421.49 399.88 421.58 C 405.83 421.87 409.78 427.43 410.75 432.86 C 412.97 442.15 407.01 452.03 398.14 455.17 C 382.19 461.07 364.96 465.60 347.87 462.78 C 341.15 461.55 334.31 460.04 328.37 456.53 C 307.05 443.53 294.79 417.71 296.42 393.02 C 297.46 372.94 300.31 352.85 306.33 333.62 C 310.69 319.82 313.91 305.70 317.85 291.78 C 323.44 272.89 331.28 254.54 342.08 238.02 C 349.37 228.01 358.84 218.29 371.35 215.47 Z" />
<path fill="#000000" opacity="1.00" d=" M 677.91 239.89 C 680.42 237.03 684.39 236.19 688.02 235.97 C 706.37 235.49 724.70 236.51 743.06 236.23 C 747.74 236.15 752.93 236.14 756.81 239.21 C 763.59 244.23 763.94 254.78 759.34 261.37 C 756.34 265.57 750.81 266.45 746.00 266.49 C 729.74 266.52 713.49 266.09 697.23 266.17 C 695.76 285.94 694.95 305.76 695.01 325.59 C 701.61 324.43 708.32 324.23 715.00 324.00 C 719.08 323.91 723.57 324.42 726.70 327.34 C 733.38 333.47 732.33 345.85 724.66 350.73 C 721.80 352.65 718.25 352.87 714.93 353.15 C 708.20 353.57 701.49 354.14 694.75 354.28 C 695.05 374.55 694.97 394.92 697.80 415.04 C 698.93 421.59 701.45 428.91 707.64 432.29 C 713.02 434.90 719.10 432.62 723.94 429.87 C 729.91 426.77 735.74 423.27 740.70 418.68 C 744.00 415.69 748.12 412.59 752.86 413.39 C 761.63 414.65 765.84 425.49 763.10 433.20 C 761.86 438.33 757.31 441.34 753.62 444.64 C 743.94 452.97 732.77 460.15 720.09 462.74 C 709.33 465.32 697.47 462.10 689.37 454.61 C 680.64 446.63 675.70 435.36 673.14 424.00 C 669.41 407.95 669.81 391.36 669.49 374.99 C 668.92 354.99 668.50 334.96 669.23 314.95 C 670.04 293.57 671.92 272.25 674.08 250.96 C 674.60 247.09 675.24 242.93 677.91 239.89 Z" />
<path fill="#000000" opacity="1.00" d=" M 556.00 241.15 C 572.60 239.25 589.32 238.07 606.03 237.97 C 620.38 237.79 634.78 240.22 649.09 238.14 C 653.37 237.44 658.22 238.54 661.14 241.93 C 667.48 249.42 664.79 262.68 655.77 266.75 C 651.34 268.38 646.54 268.65 641.90 269.22 C 632.94 270.44 624.15 267.25 615.17 268.26 C 613.78 282.47 614.54 296.76 614.15 311.01 C 614.00 318.03 613.34 325.02 612.95 332.03 C 610.59 371.32 611.03 410.71 609.95 450.04 C 609.45 455.69 607.41 462.19 601.94 464.85 C 596.41 467.67 589.19 464.86 586.50 459.40 C 583.04 452.82 584.45 445.16 584.30 438.05 C 585.10 417.05 584.36 396.03 585.20 375.03 C 586.15 346.99 588.36 319.02 589.52 290.99 C 589.88 283.27 589.77 275.53 590.88 267.87 C 580.92 268.01 570.98 268.23 561.03 268.37 C 557.60 268.31 553.94 267.92 551.06 265.89 C 542.40 259.73 544.68 242.72 556.00 241.15 Z" />
<path fill="#000000" opacity="1.00" d=" M 884.53 240.82 C 902.63 239.12 920.80 237.62 939.00 238.04 C 951.13 238.41 963.35 239.91 975.45 238.15 C 979.86 237.42 984.90 238.55 987.82 242.15 C 993.22 248.90 991.72 259.80 985.01 265.13 C 982.74 266.97 979.81 267.66 976.99 268.11 C 969.80 269.26 962.41 270.14 955.18 268.82 C 950.77 267.95 946.27 268.18 941.81 268.15 C 939.82 285.36 941.51 302.76 940.24 320.02 C 937.12 361.96 937.57 404.04 936.57 446.06 C 936.68 452.05 935.59 458.67 931.14 463.04 C 927.19 466.79 920.68 466.83 916.46 463.52 C 912.35 460.36 910.87 454.94 910.70 449.98 C 910.57 437.33 911.37 424.68 911.23 412.03 C 910.69 372.91 914.03 333.91 915.85 294.86 C 916.37 285.87 916.13 276.82 917.37 267.87 C 907.26 268.00 897.16 268.26 887.06 268.36 C 882.77 268.34 878.04 267.32 875.28 263.76 C 871.54 258.88 871.45 251.69 874.44 246.43 C 876.52 242.89 880.57 241.16 884.53 240.82 Z" />
<path fill="#000000" opacity="1.00" d=" M 439.49 241.49 C 443.74 237.03 451.74 237.63 455.34 242.62 C 459.53 248.16 458.38 255.51 458.33 261.99 C 458.14 282.00 456.14 301.92 454.87 321.88 C 452.77 352.21 451.14 382.61 451.75 413.02 C 451.94 422.05 451.38 431.53 455.08 440.00 C 457.44 437.60 459.19 434.71 460.87 431.82 C 470.78 415.65 478.46 398.17 484.23 380.12 C 487.90 368.81 490.51 357.19 493.66 345.72 C 500.61 320.14 506.99 294.36 510.84 268.11 C 512.06 261.27 512.31 253.96 515.80 247.77 C 518.91 242.48 525.76 239.07 531.76 241.22 C 535.31 242.41 537.84 245.60 538.96 249.08 C 541.01 255.16 540.18 261.68 540.49 267.98 C 541.24 318.43 534.45 368.59 534.16 419.01 C 534.35 427.65 533.61 436.48 536.01 444.90 C 537.72 450.57 536.26 457.02 532.56 461.59 C 528.67 466.42 520.92 468.12 515.83 464.17 C 511.18 460.67 510.09 454.53 509.48 449.11 C 507.03 428.99 508.44 408.71 508.77 388.53 C 503.13 408.14 494.85 426.96 484.76 444.67 C 480.44 452.10 475.97 459.73 469.35 465.36 C 463.81 470.02 456.00 472.71 448.88 470.40 C 441.13 468.20 435.70 461.45 432.48 454.37 C 428.40 445.17 426.53 435.08 426.25 425.05 C 425.18 400.72 426.01 376.35 427.13 352.04 C 428.28 322.00 432.80 292.21 433.74 262.16 C 434.36 255.09 434.22 246.96 439.49 241.49 Z" />
<path fill="#000000" opacity="1.00" d=" M 828.21 239.26 C 835.47 237.47 843.15 239.12 849.84 242.15 C 858.96 246.41 865.28 255.04 868.57 264.35 C 872.86 276.72 874.25 289.99 873.53 303.03 C 872.97 314.41 871.02 325.67 870.71 337.06 C 870.51 342.76 867.86 349.29 861.98 351.12 C 856.36 353.24 849.76 349.62 848.00 343.99 C 845.02 334.95 847.07 325.33 847.64 316.07 C 848.37 303.79 849.83 291.05 845.81 279.15 C 844.64 274.90 842.26 270.48 837.90 268.87 C 834.06 267.46 830.01 269.56 827.51 272.47 C 814.20 287.40 805.00 305.69 799.60 324.88 C 796.29 337.20 793.48 350.10 794.93 362.87 C 798.49 367.17 803.39 370.75 808.97 371.82 C 819.14 373.92 829.55 375.69 839.97 374.81 C 850.35 374.88 859.71 380.22 868.13 385.80 C 878.60 392.80 883.73 405.73 883.65 418.01 C 883.34 430.51 878.18 443.21 868.43 451.29 C 860.10 458.28 849.36 461.43 838.88 463.46 C 827.61 465.63 816.06 464.31 804.91 462.14 C 797.53 460.66 790.25 458.56 783.37 455.50 C 778.02 452.91 772.58 448.98 771.03 442.92 C 768.89 435.81 772.35 426.21 780.09 424.31 C 784.28 423.02 788.54 424.76 792.12 426.88 C 805.18 432.76 819.83 435.58 834.11 433.62 C 841.39 432.64 849.00 430.58 854.50 425.47 C 857.37 422.32 859.59 416.50 855.92 413.15 C 850.93 408.85 844.89 404.59 837.98 405.02 C 826.20 405.69 814.53 403.52 803.09 400.96 C 792.47 398.77 783.27 392.03 776.25 383.99 C 766.96 372.48 768.26 356.64 769.43 342.83 C 774.39 310.79 785.60 278.79 806.88 253.84 C 812.32 247.04 819.47 241.03 828.21 239.26 Z" />
<path fill="#000000" opacity="1.00" d=" M 766.81 498.72 C 767.99 493.72 771.99 489.43 777.04 488.26 C 783.95 486.54 792.56 491.32 792.50 499.02 C 792.01 506.79 790.63 514.51 788.92 522.11 C 797.08 522.24 806.08 518.55 813.54 523.42 C 820.32 527.24 821.07 538.15 814.52 542.58 C 806.54 548.20 796.24 546.76 787.08 548.25 C 785.73 571.93 784.86 595.65 784.49 619.38 C 784.46 636.21 783.68 653.21 786.58 669.87 C 787.85 675.75 788.86 682.30 793.35 686.71 C 795.14 688.63 798.10 689.98 800.60 688.51 C 805.98 685.40 810.52 680.73 813.15 675.07 C 815.44 670.22 820.63 666.70 826.09 667.31 C 831.64 667.95 837.47 670.77 839.98 676.02 C 841.96 680.07 841.01 684.96 838.56 688.60 C 830.96 699.97 820.66 710.63 807.12 714.44 C 790.79 719.05 772.80 709.43 765.21 694.75 C 758.40 681.65 757.02 666.56 756.36 652.04 C 755.77 637.06 755.46 622.02 756.73 607.06 C 757.31 590.08 756.80 573.05 758.41 556.11 C 758.67 553.51 758.81 550.91 758.84 548.31 C 752.37 547.83 745.04 548.86 739.69 544.35 C 734.09 539.99 734.75 530.46 740.74 526.76 C 745.91 523.66 752.26 523.83 758.10 524.06 C 759.61 524.19 761.81 523.81 761.98 521.91 C 763.39 514.14 764.97 506.40 766.81 498.72 Z" />
<path fill="#000000" opacity="1.00" d=" M 500.87 495.83 C 510.75 490.37 522.67 488.79 533.64 491.51 C 549.13 495.17 563.91 503.58 573.29 516.68 C 580.00 525.91 584.54 536.74 586.25 548.04 C 588.17 560.29 587.07 572.72 586.50 585.03 C 586.42 590.07 582.85 594.76 577.93 595.97 C 571.20 598.21 562.60 594.27 561.49 586.88 C 559.81 573.87 561.99 560.43 558.34 547.64 C 554.37 533.17 542.62 520.54 527.74 517.25 C 522.19 516.03 516.27 517.35 511.67 520.64 C 500.11 528.64 492.50 540.87 485.99 553.05 C 471.43 579.77 462.67 609.60 460.52 639.96 C 459.44 650.44 461.41 660.93 464.01 671.05 C 466.16 677.66 469.10 684.85 475.40 688.52 C 481.74 691.86 489.27 689.89 495.69 687.77 C 507.66 683.97 517.86 676.34 527.35 668.37 C 533.16 663.48 539.26 658.87 544.30 653.14 C 535.97 652.55 527.43 652.96 519.38 650.40 C 514.01 648.69 509.98 642.72 511.62 637.09 C 512.94 631.13 519.08 627.19 525.03 627.57 C 542.33 629.01 559.70 627.65 577.03 627.55 C 581.82 627.69 587.00 628.15 590.96 631.15 C 596.24 635.12 596.71 643.62 592.69 648.63 C 590.78 651.09 587.59 651.67 584.93 652.94 C 583.06 653.86 583.06 656.19 583.01 657.98 C 582.93 672.01 583.09 686.03 582.94 700.05 C 582.98 705.28 581.65 710.95 577.48 714.45 C 571.76 719.44 562.15 718.46 557.44 712.56 C 554.87 709.30 554.68 704.93 554.54 700.96 C 554.56 694.10 554.71 687.25 554.59 680.39 C 540.61 692.99 525.29 704.67 507.70 711.71 C 495.53 716.66 481.85 717.74 469.09 714.57 C 458.70 712.45 450.67 704.51 445.14 695.87 C 435.46 681.19 432.59 663.25 432.03 646.00 C 431.74 625.91 436.53 606.18 441.95 586.98 C 448.29 565.19 457.36 544.05 470.27 525.31 C 478.18 513.44 488.40 502.91 500.87 495.83 Z" />
<path fill="#000000" opacity="1.00" d=" M 696.40 504.39 C 705.98 494.79 719.43 489.26 733.01 489.56 C 738.74 489.69 745.47 489.75 749.62 494.37 C 754.11 499.15 752.75 507.76 746.94 510.85 C 740.32 515.10 732.04 512.13 725.05 515.08 C 719.80 517.04 715.63 521.21 712.95 526.05 C 703.40 543.29 697.34 562.49 695.47 582.12 C 704.12 580.76 712.95 581.27 721.57 582.65 C 726.91 583.51 732.27 587.27 733.02 592.96 C 734.22 599.75 728.55 605.97 722.01 606.87 C 712.75 608.22 703.34 606.87 694.03 607.23 C 691.78 607.54 692.76 610.42 692.48 611.97 C 692.88 639.03 690.84 666.52 697.04 693.12 C 698.12 697.69 698.68 702.86 696.03 707.02 C 691.63 714.30 680.34 715.57 674.26 709.72 C 670.05 706.08 669.29 700.25 668.44 695.09 C 665.83 678.19 663.07 661.16 663.72 643.99 C 663.63 632.17 663.59 620.35 663.62 608.54 C 659.95 607.90 655.93 607.55 652.96 605.06 C 647.51 600.58 648.07 590.91 653.96 587.05 C 657.09 584.70 661.19 585.05 664.72 583.75 C 666.90 582.80 667.31 580.20 667.52 578.10 C 668.69 563.85 672.42 549.90 677.61 536.61 C 682.21 525.04 687.35 513.23 696.40 504.39 Z" />
<path fill="#000000" opacity="1.00" d=" M 606.26 512.35 C 611.46 509.99 617.12 512.68 621.01 516.23 C 624.05 518.41 625.47 522.13 628.43 524.37 C 630.94 525.82 633.18 523.39 634.64 521.61 C 637.40 517.98 641.26 515.46 645.05 513.01 C 651.50 509.14 662.31 513.75 661.58 522.03 C 660.68 533.11 654.33 543.01 646.42 550.52 C 643.11 553.60 639.73 556.98 635.30 558.35 C 631.92 559.44 628.32 558.36 625.31 556.74 C 614.57 550.51 605.02 541.62 599.73 530.24 C 597.42 523.83 600.04 515.52 606.26 512.35 Z" />
<path fill="#000000" opacity="1.00" d=" M 375.10 551.08 C 378.55 546.55 383.02 542.00 388.93 541.18 C 395.01 540.50 400.12 544.92 403.66 549.36 C 411.00 558.78 412.45 571.38 411.39 582.94 C 409.61 602.29 403.08 620.82 395.76 638.69 C 390.18 652.09 383.87 665.16 377.36 678.12 C 364.70 667.35 353.18 655.29 342.04 642.97 C 329.58 628.74 317.71 613.69 309.42 596.59 C 304.60 586.24 300.86 574.30 304.23 562.95 C 306.05 555.72 309.99 548.21 317.15 545.11 C 324.85 541.85 333.56 544.53 340.36 548.68 C 350.53 555.04 358.59 564.90 362.45 576.28 C 365.55 567.39 369.50 558.69 375.10 551.08 Z" />
<path fill="#000000" opacity="1.00" d=" M 845.44 547.61 C 851.50 542.91 860.24 543.47 866.55 547.41 C 878.54 554.71 886.11 568.25 887.60 582.05 C 891.97 575.14 897.23 568.73 903.33 563.27 C 907.97 559.31 913.67 555.41 920.09 556.18 C 924.77 556.83 928.20 560.70 930.40 564.61 C 935.29 573.14 935.19 583.61 932.72 592.89 C 928.81 607.65 920.95 620.97 912.56 633.59 C 902.28 648.73 890.59 662.85 878.62 676.67 C 864.82 656.95 852.15 636.29 842.60 614.16 C 837.32 601.39 832.58 587.96 832.67 573.98 C 832.69 563.89 837.44 553.80 845.44 547.61 Z" />
<path fill="#000000" opacity="1.00" d=" M 624.30 567.51 C 630.39 565.44 637.96 568.61 640.32 574.69 C 641.93 578.64 640.50 582.90 640.41 586.98 C 639.07 614.62 638.01 642.28 637.75 669.95 C 637.75 677.27 637.29 684.65 638.58 691.91 C 639.18 697.28 640.57 703.38 637.26 708.19 C 633.13 714.85 623.31 716.40 617.07 711.84 C 612.49 708.86 611.20 703.14 610.52 698.08 C 608.97 685.11 609.77 672.02 609.99 659.00 C 609.40 633.89 612.43 608.90 614.48 583.91 C 615.21 577.50 617.10 569.37 624.30 567.51 Z" />
<path fill="#000000" opacity="1.00" d=" M 838.21 749.21 C 860.92 743.19 884.62 741.89 907.99 743.03 C 927.57 744.87 944.57 757.98 954.74 774.32 C 964.76 790.61 965.80 811.00 961.31 829.24 C 956.66 849.61 946.36 868.26 933.77 884.77 C 926.56 894.12 918.94 903.20 910.36 911.34 C 900.41 920.67 889.33 928.76 877.67 935.79 C 894.69 943.22 913.48 945.04 930.95 951.10 C 936.03 952.77 940.37 956.76 942.23 961.80 C 944.81 968.76 940.51 977.02 933.83 979.81 C 930.10 981.45 925.82 981.62 921.93 980.47 C 907.95 976.40 893.90 972.58 880.09 967.99 C 868.92 963.94 857.62 960.27 846.24 956.89 C 845.42 970.27 844.64 983.65 843.74 997.03 C 843.23 1002.02 842.90 1007.47 839.65 1011.58 C 833.24 1019.88 818.36 1018.95 813.26 1009.71 C 810.44 1004.26 811.17 997.86 811.52 991.96 C 814.20 941.84 815.50 891.65 817.16 841.49 C 817.94 824.29 819.20 807.12 820.38 789.95 C 820.77 782.49 821.96 774.89 820.21 767.52 C 819.21 763.33 820.12 758.46 823.49 755.55 C 827.61 751.97 833.06 750.60 838.21 749.21 M 854.72 774.74 C 850.43 775.66 851.52 780.72 851.36 783.93 C 850.76 804.97 850.46 826.02 849.54 847.05 C 848.62 870.36 847.63 893.69 848.19 917.02 C 855.89 912.93 863.37 908.43 870.45 903.35 C 894.36 886.48 913.75 863.08 924.95 835.97 C 929.86 824.79 933.03 812.28 930.51 800.09 C 928.41 790.87 923.31 781.84 914.99 776.94 C 908.41 772.97 900.49 772.78 893.06 772.22 C 880.25 771.72 867.35 772.60 854.72 774.74 Z" />
<path fill="#000000" opacity="1.00" d=" M 332.84 749.81 C 336.96 746.93 342.22 746.71 347.07 746.58 C 361.04 746.55 375.00 746.60 388.96 746.56 C 407.63 747.53 426.36 746.65 445.05 747.11 C 449.95 747.35 454.94 748.96 458.55 752.38 C 465.15 758.62 463.25 771.14 455.16 775.23 C 450.82 777.45 445.80 777.62 441.02 777.73 C 413.99 777.80 386.96 777.23 359.93 777.34 C 358.37 777.55 355.45 776.94 355.50 779.32 C 352.82 804.70 351.27 830.26 351.89 855.80 C 365.17 853.89 378.59 853.37 391.99 853.27 C 397.54 853.20 403.67 854.13 407.64 858.39 C 412.55 863.41 412.07 872.22 407.15 877.07 C 403.49 880.85 398.11 882.25 393.00 882.45 C 380.65 883.04 368.31 883.87 355.95 883.99 C 354.50 884.07 352.89 884.03 351.74 885.06 C 351.12 886.60 351.30 888.31 351.26 889.96 C 351.71 910.99 351.79 932.12 354.93 952.98 C 355.80 959.63 357.22 966.39 360.75 972.20 C 364.66 978.94 371.51 983.89 379.18 985.34 C 386.77 986.72 394.67 985.64 401.87 982.98 C 413.62 978.63 425.37 973.86 435.78 966.77 C 440.51 963.61 446.04 960.54 451.94 961.71 C 460.72 962.79 467.56 972.76 464.23 981.25 C 462.88 985.52 459.36 988.50 455.57 990.61 C 439.91 1001.22 422.81 1010.20 404.22 1014.27 C 391.71 1017.34 378.35 1017.68 365.98 1013.82 C 350.56 1009.31 337.72 997.83 330.45 983.63 C 321.70 966.88 320.38 947.56 319.85 929.02 C 319.61 907.33 318.23 885.67 318.45 863.98 C 318.46 829.81 322.40 795.80 327.04 762.00 C 327.70 757.52 328.94 752.58 332.84 749.81 Z" />
<path fill="#000000" opacity="1.00" d=" M 667.08 749.01 C 673.23 745.92 680.36 746.70 687.02 746.58 C 702.01 746.76 717.03 746.14 732.00 747.02 C 745.32 746.97 758.65 747.02 771.97 746.99 C 778.59 746.78 785.90 747.32 791.08 751.95 C 798.17 757.99 796.47 770.93 788.26 775.18 C 782.64 778.03 776.12 777.66 770.00 777.74 C 744.33 777.73 718.66 777.25 692.99 777.34 C 691.44 777.53 688.58 776.92 688.50 779.26 C 685.81 804.64 684.32 830.20 684.85 855.74 C 698.49 853.94 712.27 853.26 726.03 853.29 C 731.27 853.28 736.96 854.42 740.67 858.42 C 745.39 863.28 745.10 871.70 740.58 876.61 C 737.29 880.29 732.34 882.00 727.51 882.34 C 714.00 883.16 700.47 883.74 686.95 884.15 C 684.76 884.05 684.04 886.19 684.27 888.03 C 684.67 911.74 684.74 935.61 688.92 959.04 C 690.56 968.01 695.12 977.00 703.15 981.82 C 712.20 987.38 723.69 986.72 733.44 983.47 C 743.43 979.87 753.36 975.94 762.60 970.64 C 769.08 967.10 775.02 961.19 782.91 961.49 C 789.71 961.54 795.84 966.60 797.62 973.08 C 799.03 978.12 797.05 983.71 793.35 987.28 C 772.59 1002.16 748.83 1014.38 722.99 1016.49 C 708.78 1017.48 694.02 1014.06 682.38 1005.68 C 670.31 997.19 662.08 984.04 657.97 970.01 C 653.84 955.75 653.09 940.79 652.78 926.03 C 652.56 906.33 651.31 886.66 651.44 866.96 C 651.27 831.45 655.30 796.08 660.21 760.96 C 660.90 756.35 662.69 751.32 667.08 749.01 Z" />
<path fill="#000000" opacity="1.00" d=" M 617.01 752.04 C 623.00 747.82 631.79 748.85 636.84 754.09 C 640.39 757.70 641.52 763.18 640.50 768.05 C 638.21 780.73 635.24 793.29 632.97 805.98 C 628.30 834.99 621.18 863.52 614.45 892.10 C 608.36 916.99 603.88 942.30 595.89 966.69 C 591.21 980.47 587.67 995.04 579.04 1007.03 C 574.79 1013.02 569.29 1018.76 561.92 1020.59 C 552.06 1023.41 541.55 1018.54 535.19 1010.98 C 525.94 1000.78 523.14 986.94 518.73 974.33 C 504.56 932.06 495.60 888.20 489.37 844.10 C 486.63 823.03 483.74 801.95 479.42 781.13 C 478.16 775.65 476.99 769.67 479.40 764.34 C 482.60 756.89 492.85 754.93 499.59 758.42 C 504.44 760.91 506.05 766.49 507.70 771.26 C 514.41 794.10 518.25 817.65 521.87 841.14 C 529.29 889.21 539.13 937.15 555.70 982.99 C 557.57 980.29 558.08 977.01 559.13 973.97 C 564.96 956.56 570.26 938.95 574.41 921.05 C 577.58 906.44 580.68 891.81 584.26 877.29 C 592.97 842.31 599.04 806.75 606.77 771.56 C 607.70 764.15 610.48 756.30 617.01 752.04 Z" />
</g>
</svg>
