<?xml version="1.0" encoding="UTF-8" ?>
<!DOCTYPE svg PUBLIC "-//W3C//DTD SVG 1.1//EN" "http://www.w3.org/Graphics/SVG/1.1/DTD/svg11.dtd">
<svg width="4000pt" height="4000pt" viewBox="0 0 4000 4000" version="1.1" xmlns="http://www.w3.org/2000/svg">
<g id="#000000ff">
<path fill="#000000" opacity="1.00" d=" M 1653.42 747.73 C 1673.67 740.40 1696.14 739.23 1716.99 744.71 C 1740.70 750.73 1762.30 766.38 1773.65 788.29 C 1779.07 797.97 1781.23 809.10 1782.06 820.06 C 1782.55 841.41 1773.86 862.70 1759.05 878.01 C 1747.43 890.26 1732.89 899.78 1716.84 905.06 C 1698.17 909.93 1679.48 914.83 1661.29 921.30 C 1601.75 942.05 1544.76 970.64 1493.65 1007.67 C 1463.29 1029.06 1436.27 1054.89 1411.51 1082.48 C 1385.21 1111.70 1362.77 1144.22 1343.41 1178.39 C 1322.96 1216.36 1305.72 1256.17 1293.59 1297.59 C 1287.14 1320.27 1282.14 1343.45 1280.12 1366.98 C 1279.28 1373.24 1279.22 1379.57 1279.60 1385.88 C 1279.30 1382.29 1279.00 1378.70 1278.47 1375.15 C 1279.45 1386.81 1277.28 1398.37 1277.31 1410.01 C 1275.61 1421.25 1277.00 1432.67 1275.67 1443.93 C 1275.68 1451.28 1275.29 1458.64 1275.76 1465.99 C 1277.70 1479.67 1279.09 1493.47 1282.14 1506.97 C 1286.24 1532.55 1295.66 1556.83 1304.81 1580.94 C 1313.16 1598.32 1323.97 1614.33 1334.35 1630.52 C 1339.46 1638.29 1345.58 1645.32 1352.05 1651.99 C 1358.69 1658.73 1364.36 1666.35 1371.07 1673.03 C 1389.86 1693.11 1412.24 1709.60 1436.19 1723.02 C 1465.09 1740.87 1496.41 1754.63 1528.79 1764.81 C 1545.54 1770.72 1562.63 1775.61 1579.96 1779.49 C 1590.24 1781.82 1600.60 1783.84 1610.81 1786.50 C 1628.33 1790.77 1646.31 1792.64 1663.95 1796.31 C 1674.05 1797.89 1683.97 1800.30 1694.07 1801.86 C 1727.90 1806.39 1761.80 1810.54 1795.85 1812.85 C 1802.92 1814.13 1810.17 1812.95 1817.25 1814.16 C 1823.12 1815.14 1829.12 1814.14 1835.00 1815.18 C 1839.29 1815.87 1843.67 1815.39 1848.00 1815.82 C 1856.30 1817.15 1864.76 1816.16 1873.11 1816.94 C 1878.02 1817.82 1883.04 1817.61 1888.03 1817.68 C 1895.05 1817.60 1902.02 1818.83 1909.06 1818.64 C 1916.36 1818.38 1923.61 1819.50 1930.92 1819.52 C 1946.95 1819.78 1962.99 1819.62 1979.03 1819.64 C 1985.39 1819.84 1991.67 1818.42 1998.04 1818.77 C 2012.17 1818.48 2026.32 1818.63 2040.41 1817.50 C 2046.62 1817.59 2052.76 1816.51 2058.98 1816.68 C 2066.37 1816.42 2073.79 1816.49 2081.14 1815.47 C 2087.44 1815.63 2093.69 1814.85 2099.98 1814.46 C 2112.03 1814.46 2123.99 1812.80 2136.02 1812.36 C 2153.03 1810.81 2169.99 1808.41 2187.02 1807.13 C 2193.11 1805.03 2199.68 1806.28 2205.87 1804.69 C 2211.34 1803.38 2217.04 1803.77 2222.53 1802.57 C 2234.41 1800.14 2246.52 1798.95 2258.36 1796.28 C 2263.87 1795.19 2269.47 1794.48 2274.96 1793.19 C 2287.80 1791.91 2300.46 1789.24 2312.93 1785.94 C 2335.03 1781.08 2357.35 1776.79 2378.73 1769.24 C 2389.30 1765.67 2399.97 1762.43 2410.45 1758.60 C 2419.89 1755.34 2428.90 1751.00 2438.09 1747.12 C 2456.15 1739.27 2473.04 1729.07 2489.95 1719.05 C 2499.25 1713.51 2508.02 1707.15 2516.75 1700.76 C 2522.36 1696.03 2527.98 1691.29 2533.47 1686.41 C 2542.42 1677.98 2550.66 1668.84 2558.62 1659.49 C 2564.19 1653.75 2569.61 1647.85 2574.83 1641.79 C 2582.19 1632.21 2588.18 1621.70 2594.84 1611.65 C 2601.92 1599.83 2609.50 1588.08 2613.86 1574.92 C 2622.27 1552.84 2629.92 1530.30 2633.74 1506.92 C 2635.51 1496.98 2637.05 1487.01 2638.14 1476.97 C 2640.31 1464.44 2639.47 1451.64 2638.64 1439.03 C 2638.48 1421.90 2636.73 1404.85 2635.70 1387.76 C 2635.03 1368.00 2632.65 1348.27 2628.21 1328.99 C 2619.43 1288.04 2604.30 1248.71 2586.20 1211.04 C 2577.16 1192.16 2567.39 1173.60 2556.01 1156.02 C 2526.17 1108.30 2488.90 1065.27 2446.01 1028.85 C 2432.53 1017.13 2417.79 1007.01 2403.17 996.80 C 2360.19 967.74 2313.50 944.34 2264.95 926.16 C 2246.23 919.32 2227.28 913.00 2207.90 908.31 C 2200.44 906.24 2192.71 904.79 2185.85 901.07 C 2175.67 896.64 2166.36 890.34 2158.30 882.73 C 2146.04 871.99 2137.22 857.51 2132.84 841.85 C 2128.98 826.51 2129.64 809.96 2135.29 795.14 C 2142.18 778.21 2155.06 763.96 2170.77 754.73 C 2196.54 739.60 2228.98 737.47 2257.03 747.20 C 2270.33 749.22 2283.10 753.77 2296.04 757.39 C 2347.74 772.89 2398.16 792.62 2446.75 816.13 C 2465.47 825.75 2484.41 835.00 2502.49 845.80 C 2512.35 851.33 2522.09 857.08 2531.37 863.57 C 2561.64 882.66 2589.93 904.69 2617.43 927.55 C 2647.55 952.94 2676.24 980.02 2703.47 1008.49 C 2730.62 1036.60 2754.87 1067.33 2778.31 1098.56 C 2810.76 1142.02 2840.14 1187.76 2866.19 1235.34 C 2887.15 1272.08 2905.89 1310.03 2923.61 1348.43 C 2931.34 1365.74 2939.18 1383.02 2945.90 1400.77 C 2962.57 1440.38 2978.07 1480.49 2992.38 1521.02 C 3006.30 1561.57 3019.39 1602.41 3030.95 1643.69 C 3043.45 1687.02 3054.27 1730.81 3064.97 1774.61 C 3073.84 1812.22 3082.12 1849.97 3089.32 1887.94 C 3089.99 1891.23 3088.75 1894.57 3089.43 1897.91 C 3089.71 1895.89 3089.81 1893.86 3090.04 1891.87 C 3093.02 1904.15 3094.50 1916.74 3097.29 1929.07 C 3102.35 1957.83 3107.04 1986.60 3111.63 2015.44 C 3115.50 2040.53 3117.94 2065.81 3121.20 2090.99 C 3122.06 2105.34 3125.22 2119.51 3125.45 2133.93 C 3127.23 2149.21 3128.23 2164.58 3129.62 2179.90 L 3128.21 2179.36 C 3128.26 2182.13 3128.15 2184.92 3128.48 2187.73 C 3128.80 2185.14 3128.50 2182.35 3129.97 2180.08 C 3130.28 2195.77 3132.16 2211.35 3132.87 2227.02 C 3132.59 2228.50 3134.09 2230.99 3132.24 2231.80 C 3131.69 2229.81 3131.76 2227.76 3131.51 2225.79 C 3131.13 2228.23 3130.78 2230.90 3131.75 2233.29 C 3134.17 2238.89 3133.02 2245.15 3133.69 2251.07 C 3134.89 2260.00 3134.38 2269.04 3134.74 2278.03 C 3136.21 2291.29 3135.34 2304.66 3136.20 2317.96 C 3136.47 2324.98 3136.29 2332.02 3135.72 2339.03 C 3136.48 2350.32 3136.80 2361.71 3135.68 2372.99 C 3135.85 2382.64 3135.46 2392.30 3135.36 2401.96 C 3135.48 2408.68 3134.09 2415.31 3134.38 2422.06 C 3133.22 2430.76 3133.62 2439.63 3132.05 2448.28 C 3131.22 2444.19 3132.38 2439.97 3131.17 2435.97 C 3131.68 2440.22 3130.09 2445.08 3132.37 2448.93 C 3129.79 2484.38 3126.43 2519.84 3121.12 2555.02 C 3118.19 2578.75 3113.50 2602.21 3108.94 2625.66 C 3104.71 2644.54 3100.86 2663.52 3095.81 2682.22 C 3084.12 2727.41 3067.87 2771.33 3049.02 2814.01 C 3033.35 2848.42 3016.50 2882.36 2996.67 2914.60 C 2975.15 2949.37 2951.88 2983.16 2925.38 3014.34 C 2908.19 3034.39 2890.30 3053.83 2871.51 3072.38 C 2844.39 3099.66 2813.97 3123.41 2782.98 3146.10 C 2767.14 3157.47 2750.96 3168.36 2734.75 3179.18 C 2717.16 3190.12 2699.74 3201.36 2681.50 3211.21 C 2646.67 3230.67 2610.55 3247.68 2574.15 3263.96 C 2554.81 3272.54 2534.98 3279.93 2515.03 3286.94 C 2472.41 3301.16 2429.90 3316.02 2386.12 3326.35 C 2374.82 3329.15 2363.47 3331.74 2352.18 3334.55 L 2353.16 3333.24 C 2351.49 3333.21 2349.88 3333.27 2348.29 3333.39 C 2349.46 3333.85 2350.68 3334.33 2351.88 3334.95 C 2328.65 3339.67 2305.57 3345.20 2282.24 3349.43 C 2257.34 3354.50 2232.15 3358.00 2207.02 3361.68 C 2191.69 3363.84 2176.33 3365.81 2160.97 3367.64 C 2157.22 3367.94 2153.52 3366.72 2149.81 3367.43 C 2151.11 3368.10 2154.81 3366.94 2154.56 3369.24 C 2151.36 3368.34 2148.16 3369.48 2144.97 3369.58 C 2090.87 3375.90 2036.45 3378.82 1982.05 3381.33 C 1968.73 3382.39 1955.36 3381.91 1942.02 3381.97 C 1929.65 3381.29 1917.28 3380.65 1904.90 3380.21 C 1892.29 3379.05 1879.59 3379.24 1866.99 3377.91 C 1853.01 3377.32 1839.05 3376.29 1825.12 3375.03 C 1800.68 3373.45 1776.32 3370.66 1752.03 3367.54 C 1739.02 3366.18 1725.99 3364.73 1713.10 3362.53 C 1703.74 3361.89 1694.56 3359.31 1685.18 3359.28 C 1685.37 3358.91 1685.77 3358.16 1685.96 3357.78 C 1688.92 3357.73 1691.89 3357.78 1694.88 3357.86 C 1691.29 3356.99 1687.52 3356.84 1684.08 3358.26 C 1640.70 3351.85 1597.65 3343.06 1555.04 3332.66 C 1534.95 3327.71 1514.70 3323.27 1494.86 3317.36 C 1473.70 3311.35 1452.74 3304.66 1431.95 3297.50 C 1410.02 3290.05 1388.01 3282.79 1366.50 3274.20 C 1348.83 3267.52 1331.87 3259.21 1314.76 3251.25 C 1300.69 3244.55 1286.56 3237.94 1272.81 3230.59 C 1271.56 3229.81 1269.87 3229.28 1270.06 3227.58 C 1269.92 3227.94 1269.65 3228.66 1269.52 3229.02 C 1250.00 3218.56 1230.53 3207.96 1211.69 3196.30 C 1198.65 3187.67 1185.13 3179.78 1172.39 3170.71 C 1153.62 3157.58 1134.70 3144.60 1116.89 3130.17 C 1104.06 3120.02 1091.26 3109.82 1079.04 3098.94 C 1064.99 3087.04 1052.37 3073.60 1039.51 3060.46 C 1012.75 3031.65 987.04 3001.75 964.42 2969.54 C 940.28 2934.74 918.34 2898.37 899.72 2860.31 C 890.50 2841.70 881.55 2822.94 873.43 2803.82 C 858.29 2767.57 845.19 2730.45 834.47 2692.65 C 821.92 2647.43 812.79 2601.31 805.66 2554.94 C 801.45 2528.09 798.69 2501.06 796.02 2474.03 C 795.30 2469.01 795.46 2463.94 795.23 2458.91 C 794.83 2460.89 794.56 2462.92 794.33 2464.98 C 794.89 2458.62 794.72 2452.20 793.68 2445.92 C 793.79 2439.24 792.57 2432.66 792.48 2426.00 C 792.24 2422.01 792.52 2417.99 791.99 2414.04 C 791.04 2408.06 791.80 2401.98 790.81 2396.02 C 790.42 2388.03 790.57 2380.02 790.29 2372.04 C 790.69 2364.33 789.27 2356.70 789.58 2349.00 C 789.91 2323.02 788.88 2296.99 790.49 2271.04 C 790.29 2253.66 792.10 2236.36 792.18 2218.99 C 792.22 2209.28 793.63 2199.66 793.79 2189.97 C 795.27 2178.05 794.96 2166.00 796.39 2154.09 C 796.64 2139.97 799.52 2126.08 799.68 2111.98 C 801.54 2097.67 802.38 2083.26 804.42 2068.99 C 805.01 2058.62 806.91 2048.39 807.91 2038.06 C 810.59 2014.63 813.86 1991.27 817.77 1968.01 C 821.33 1943.92 825.54 1919.91 829.67 1895.91 C 830.34 1892.99 830.72 1890.01 830.65 1887.03 C 830.93 1888.67 831.22 1890.30 831.52 1891.99 C 831.08 1888.90 831.56 1885.85 832.33 1882.88 C 844.65 1813.73 860.18 1745.17 878.01 1677.23 C 888.98 1637.01 900.18 1596.83 912.59 1557.03 C 931.97 1494.97 954.47 1433.90 979.68 1373.97 C 996.58 1335.81 1014.38 1298.00 1034.39 1261.35 C 1053.16 1226.82 1071.97 1192.26 1093.17 1159.16 C 1113.10 1127.58 1134.95 1097.25 1157.81 1067.74 C 1170.39 1051.69 1183.49 1036.03 1197.45 1021.17 C 1222.32 993.56 1249.25 967.89 1276.97 943.18 C 1305.62 918.14 1335.29 894.18 1366.79 872.80 C 1376.62 866.42 1386.15 859.59 1396.19 853.53 C 1412.81 843.84 1429.46 834.18 1446.75 825.71 C 1465.21 815.84 1484.26 807.16 1503.43 798.77 C 1522.84 789.88 1542.89 782.53 1562.85 775.02 C 1585.19 766.82 1607.90 759.69 1630.75 753.07 C 1638.23 750.99 1645.65 748.47 1653.42 747.73 M 2184.33 2138.53 C 2163.90 2139.22 2143.69 2143.12 2124.07 2148.83 C 2113.21 2151.68 2103.03 2156.53 2092.69 2160.80 C 2083.83 2164.94 2075.16 2169.49 2066.90 2174.71 C 2059.06 2180.21 2050.75 2185.04 2043.33 2191.13 C 2035.39 2197.18 2028.76 2204.69 2021.60 2211.60 C 2014.86 2219.21 2008.26 2226.98 2002.26 2235.19 C 1991.55 2249.98 1984.15 2267.16 1971.48 2280.52 C 1968.45 2284.30 1963.57 2285.43 1959.06 2286.32 C 1951.94 2286.49 1945.70 2281.95 1941.21 2276.81 C 1931.72 2267.51 1925.73 2255.52 1918.27 2244.70 C 1914.34 2238.50 1909.30 2233.16 1904.94 2227.30 C 1901.93 2223.19 1897.91 2219.99 1894.80 2215.99 C 1888.59 2207.96 1880.40 2201.84 1872.85 2195.17 C 1867.61 2191.01 1862.34 2186.83 1856.52 2183.52 C 1846.17 2177.50 1835.85 2171.42 1825.28 2165.80 C 1808.96 2158.94 1792.44 2152.08 1774.97 2148.78 C 1758.25 2144.96 1741.12 2142.74 1723.96 2143.11 C 1716.00 2143.23 1708.00 2142.29 1700.09 2143.45 C 1692.34 2144.45 1684.48 2144.90 1676.91 2146.91 C 1672.33 2148.14 1667.56 2148.48 1663.07 2150.00 C 1649.41 2154.63 1635.51 2159.30 1623.39 2167.31 C 1615.50 2171.98 1608.16 2177.46 1600.36 2182.28 C 1594.94 2185.39 1591.00 2190.33 1586.07 2194.09 C 1577.66 2201.74 1570.56 2210.74 1564.00 2219.99 C 1548.77 2240.67 1535.77 2263.26 1527.97 2287.84 C 1524.77 2295.83 1522.17 2304.04 1519.39 2312.18 C 1517.79 2317.48 1516.79 2322.94 1514.99 2328.18 C 1509.15 2351.08 1505.64 2374.53 1503.44 2398.03 C 1503.82 2405.08 1501.81 2411.97 1502.37 2419.04 C 1502.97 2425.43 1500.92 2431.64 1501.31 2438.02 C 1501.46 2442.97 1500.93 2447.95 1501.62 2452.89 C 1503.03 2459.19 1501.48 2465.67 1502.54 2472.04 C 1502.59 2483.10 1504.61 2494.03 1505.94 2505.00 C 1510.29 2530.02 1517.23 2554.62 1527.34 2577.93 C 1530.15 2585.93 1533.95 2593.54 1537.98 2601.00 C 1551.72 2626.80 1569.59 2650.22 1589.37 2671.65 C 1594.98 2678.32 1602.02 2683.59 1608.28 2689.63 C 1616.35 2696.95 1624.26 2704.46 1632.81 2711.24 C 1646.31 2722.12 1659.89 2732.96 1674.37 2742.52 C 1689.46 2753.81 1704.78 2764.76 1720.20 2775.59 C 1728.46 2781.21 1736.16 2787.68 1744.94 2792.51 C 1749.58 2796.09 1754.56 2799.21 1759.10 2802.94 C 1771.47 2812.56 1784.06 2821.84 1795.81 2832.22 C 1802.14 2837.91 1809.07 2842.87 1815.55 2848.40 C 1822.48 2854.47 1829.16 2860.81 1836.04 2866.95 C 1840.76 2872.25 1846.63 2876.34 1851.42 2881.59 C 1855.13 2885.54 1859.44 2888.88 1863.10 2892.91 C 1868.41 2898.72 1875.47 2902.45 1881.32 2907.66 C 1893.54 2918.89 1905.92 2930.16 1920.16 2938.84 C 1926.38 2943.13 1933.91 2944.63 1940.97 2946.98 C 1944.52 2948.30 1948.31 2948.26 1952.06 2948.41 C 1961.29 2949.88 1970.77 2949.78 1980.02 2948.44 C 1986.91 2948.26 1993.02 2944.77 1999.41 2942.58 C 2012.06 2938.03 2021.23 2927.74 2031.79 2919.89 C 2037.62 2914.24 2044.39 2909.71 2050.50 2904.38 C 2058.07 2897.93 2065.63 2891.43 2072.69 2884.42 C 2078.50 2880.04 2083.18 2874.43 2088.43 2869.44 C 2093.78 2863.79 2099.91 2858.95 2105.21 2853.25 C 2112.97 2845.99 2121.28 2839.32 2129.01 2832.03 C 2134.04 2826.35 2140.56 2822.33 2145.94 2817.02 C 2149.48 2813.52 2153.72 2810.84 2157.36 2807.45 C 2165.56 2799.81 2174.65 2793.25 2183.59 2786.52 C 2189.29 2782.30 2194.33 2777.22 2200.41 2773.52 C 2208.72 2767.39 2216.73 2760.86 2225.22 2754.99 C 2233.51 2747.89 2242.89 2742.24 2251.54 2735.62 C 2258.38 2729.64 2266.33 2725.14 2273.17 2719.16 C 2280.32 2713.67 2287.18 2707.82 2294.35 2702.38 C 2306.73 2691.07 2320.26 2680.99 2331.68 2668.66 C 2353.02 2647.32 2372.21 2623.59 2386.62 2596.98 C 2390.01 2590.34 2394.07 2584.03 2396.59 2576.98 C 2400.77 2567.21 2404.35 2557.21 2407.93 2547.22 C 2415.52 2523.47 2420.01 2498.71 2421.70 2473.87 C 2423.09 2463.96 2421.83 2453.89 2422.27 2443.92 C 2421.86 2429.59 2422.80 2415.18 2420.92 2400.94 C 2419.99 2389.64 2419.00 2378.34 2417.23 2367.13 C 2415.18 2359.85 2415.04 2352.21 2412.85 2344.97 C 2408.66 2322.50 2400.84 2300.98 2393.23 2279.50 C 2389.39 2269.75 2384.92 2260.27 2379.93 2251.06 C 2376.58 2245.93 2374.47 2240.09 2370.71 2235.23 C 2358.71 2217.65 2346.11 2200.06 2329.53 2186.47 C 2324.41 2181.75 2318.26 2178.37 2313.03 2173.80 C 2286.34 2154.42 2254.33 2142.64 2221.52 2139.59 C 2209.20 2138.37 2196.69 2136.92 2184.33 2138.53 Z" />
</g>
</svg>
