<?xml version="1.0" encoding="UTF-8" ?>
<!DOCTYPE svg PUBLIC "-//W3C//DTD SVG 1.1//EN" "http://www.w3.org/Graphics/SVG/1.1/DTD/svg11.dtd">
<svg width="4000pt" height="4000pt" viewBox="0 0 4000 4000" version="1.1" xmlns="http://www.w3.org/2000/svg">
<g id="#000000ff">
<path fill="#000000" opacity="1.00" d=" M 2027.88 742.74 C 2048.65 734.66 2072.17 733.82 2093.46 740.42 C 2121.56 748.93 2145.26 770.55 2156.39 797.71 C 2160.88 808.54 2163.48 820.17 2163.89 831.90 C 2164.09 837.93 2163.95 843.96 2164.00 849.99 C 2164.01 942.67 2163.98 1035.35 2164.01 1128.03 C 2383.43 1129.28 2602.86 1140.96 2820.91 1165.66 C 2976.28 1183.29 3130.93 1207.53 3284.05 1239.27 C 3300.70 1242.43 3317.30 1246.42 3332.91 1253.19 C 3351.62 1261.15 3369.28 1271.88 3384.31 1285.64 C 3395.75 1296.29 3406.04 1308.86 3411.27 1323.78 C 3414.20 1331.83 3414.77 1340.71 3412.86 1349.07 C 3410.79 1358.28 3410.38 1368.15 3405.44 1376.46 C 3397.55 1390.30 3383.39 1399.18 3369.06 1405.23 C 3346.69 1414.53 3322.18 1417.95 3298.07 1417.11 C 3284.59 1416.72 3271.35 1414.13 3258.06 1412.13 C 3187.56 1401.47 3117.09 1390.59 3046.53 1380.33 C 3046.23 1494.86 3046.48 1609.40 3046.40 1723.94 C 3046.66 1728.66 3045.81 1733.53 3046.84 1738.17 C 3058.07 1761.60 3069.95 1784.73 3081.16 1808.17 C 3128.27 1814.91 3175.30 1822.31 3222.41 1828.97 C 3222.65 1830.97 3220.34 1831.90 3219.27 1833.26 C 3186.49 1865.20 3153.71 1897.14 3120.93 1929.08 C 3128.50 1976.03 3137.01 2022.83 3144.68 2069.77 C 3111.87 2052.87 3079.34 2035.42 3046.62 2018.36 C 3046.10 2041.55 3046.54 2064.78 3046.40 2087.99 C 3046.41 2180.63 3046.39 2273.27 3046.41 2365.90 C 3056.29 2360.53 3065.98 2354.39 3077.02 2351.66 C 3082.44 2350.47 3087.40 2347.38 3093.07 2347.33 C 3095.23 2347.55 3096.90 2345.98 3098.96 2345.58 C 3109.58 2344.59 3120.35 2343.66 3131.00 2345.23 C 3137.35 2345.23 3143.62 2346.46 3149.89 2347.40 C 3155.09 2347.83 3159.86 2350.20 3165.00 2351.06 C 3174.74 2354.64 3185.03 2356.85 3194.18 2361.91 C 3203.26 2366.04 3211.22 2372.17 3219.33 2377.90 C 3223.36 2379.94 3226.30 2383.46 3230.04 2385.97 C 3237.32 2390.92 3242.37 2398.25 3248.01 2404.88 C 3251.83 2408.78 3255.27 2413.09 3258.06 2417.82 C 3260.09 2421.07 3261.54 2424.72 3264.28 2427.52 C 3266.85 2432.35 3268.47 2437.76 3271.72 2442.26 C 3273.85 2447.77 3276.56 2453.12 3277.72 2458.98 C 3278.81 2462.21 3279.36 2465.91 3281.95 2468.41 C 3284.27 2469.32 3286.65 2467.64 3289.00 2467.30 C 3307.84 2463.21 3327.67 2463.04 3346.40 2467.80 C 3354.57 2470.64 3363.37 2472.31 3370.46 2477.61 C 3379.99 2482.06 3388.05 2488.98 3396.06 2495.67 C 3400.11 2497.93 3403.45 2501.23 3406.42 2504.77 C 3409.64 2509.11 3414.30 2512.31 3416.84 2517.20 C 3418.18 2519.77 3420.12 2521.98 3421.74 2524.42 C 3425.07 2528.79 3427.25 2533.91 3429.26 2539.02 C 3433.59 2547.39 3437.02 2556.16 3438.82 2565.42 C 3440.99 2569.96 3441.36 2575.17 3441.82 2580.19 C 3442.99 2583.85 3443.68 2587.91 3443.77 2591.88 C 3446.02 2602.10 3443.58 2612.58 3443.57 2622.91 C 3443.08 2629.12 3441.15 2635.08 3439.65 2641.10 C 3438.30 2643.95 3439.07 2647.30 3437.24 2649.99 C 3435.83 2655.41 3433.51 2660.60 3430.65 2665.45 C 3427.80 2670.93 3424.82 2676.38 3421.32 2681.49 C 3416.22 2685.68 3412.85 2691.54 3407.80 2695.80 C 3400.43 2703.01 3392.34 2709.59 3383.12 2714.31 C 3376.48 2717.46 3370.07 2721.10 3363.01 2723.25 C 3353.79 2725.89 3344.55 2728.75 3334.96 2729.64 C 3325.01 2731.10 3314.91 2730.62 3304.91 2730.25 C 3288.62 2727.98 3272.20 2724.45 3257.57 2716.68 C 3255.87 2715.83 3253.76 2716.09 3252.56 2717.55 C 3244.59 2725.65 3235.92 2733.14 3226.35 2739.29 C 3211.53 2750.03 3193.97 2755.77 3176.97 2761.97 C 3166.17 2765.19 3155.18 2767.90 3143.94 2769.05 C 3130.04 2770.67 3115.95 2771.89 3101.98 2770.73 C 3098.93 2771.81 3096.00 2770.15 3092.96 2770.33 C 3084.24 2769.77 3075.65 2768.12 3067.05 2766.72 C 3059.76 2764.77 3052.13 2764.01 3045.21 2760.92 C 3039.36 2758.66 3033.17 2757.44 3027.60 2754.53 C 3017.85 2750.59 3008.69 2745.26 3000.52 2738.65 C 2999.55 2738.28 2998.72 2738.43 2998.03 2739.10 C 2995.34 2741.44 2993.50 2744.57 2990.88 2746.98 C 2986.92 2751.01 2982.17 2754.13 2977.86 2757.74 C 2974.32 2760.21 2971.20 2763.29 2967.27 2765.17 C 2961.67 2768.55 2955.55 2770.88 2949.88 2774.10 C 2935.67 2780.12 2920.56 2785.05 2904.95 2784.69 C 2898.73 2785.58 2892.33 2785.95 2886.13 2784.75 C 2881.93 2784.75 2877.74 2784.66 2873.67 2783.64 C 2853.23 2780.50 2833.59 2772.25 2817.05 2759.85 C 2812.88 2756.32 2807.98 2753.67 2804.41 2749.49 C 2795.96 2739.39 2787.31 2729.19 2781.79 2717.14 C 2776.83 2718.13 2772.78 2721.54 2768.02 2723.10 C 2763.94 2724.32 2760.07 2726.10 2755.97 2727.18 C 2754.54 2727.44 2753.39 2728.28 2752.33 2729.18 C 2745.81 2729.83 2739.60 2732.67 2732.96 2732.49 C 2726.93 2732.23 2720.93 2733.98 2714.98 2732.61 C 2707.03 2732.60 2699.23 2730.74 2691.76 2728.18 C 2683.57 2726.24 2675.72 2722.99 2668.53 2718.63 C 2662.69 2715.69 2657.09 2712.23 2652.48 2707.57 C 2643.84 2700.74 2637.78 2691.44 2631.66 2682.45 C 2627.04 2673.20 2622.19 2663.97 2619.23 2654.04 C 2618.44 2649.39 2616.06 2645.22 2615.83 2640.47 C 2612.23 2623.86 2613.35 2606.72 2615.14 2590.01 C 2617.29 2578.46 2618.75 2566.64 2622.89 2555.56 C 2624.40 2552.18 2625.56 2548.68 2626.60 2545.15 C 2628.62 2539.95 2631.70 2535.25 2634.08 2530.22 C 2636.27 2525.04 2640.44 2521.08 2643.11 2516.18 C 2648.22 2508.77 2653.72 2501.41 2660.85 2495.82 C 2675.22 2482.29 2692.62 2471.58 2711.95 2467.04 C 2717.23 2465.59 2722.68 2464.84 2728.06 2463.77 C 2730.45 2463.27 2734.02 2464.07 2735.17 2461.23 C 2736.90 2452.40 2738.75 2443.60 2740.83 2434.86 C 2742.84 2427.42 2746.73 2420.70 2749.35 2413.49 C 2751.63 2409.51 2752.62 2404.90 2755.27 2401.15 C 2758.93 2396.70 2760.93 2391.13 2764.55 2386.65 C 2767.98 2383.58 2770.38 2379.62 2773.23 2376.05 C 2782.10 2365.72 2791.52 2355.43 2803.51 2348.67 C 2806.95 2346.46 2810.16 2343.95 2813.50 2341.59 C 2822.87 2334.16 2835.07 2332.14 2845.44 2326.52 C 2850.97 2324.17 2856.54 2321.69 2862.53 2320.76 C 2870.10 2319.25 2877.31 2316.20 2885.06 2315.59 C 2890.40 2315.40 2895.79 2313.34 2901.12 2315.08 C 2907.08 2315.36 2913.09 2315.11 2919.06 2315.70 C 2928.89 2317.10 2938.58 2319.35 2948.22 2321.73 C 2958.97 2325.25 2969.39 2329.75 2979.59 2334.69 C 2984.04 2337.08 2988.21 2339.97 2992.60 2342.52 C 2994.56 2343.59 2996.43 2345.23 2998.90 2344.94 C 2998.78 2234.69 2998.94 2124.44 2998.82 2014.19 C 2981.75 2022.39 2965.22 2031.72 2948.36 2040.36 C 2929.83 2050.07 2911.34 2059.87 2892.79 2069.53 C 2890.62 2069.62 2891.89 2067.47 2892.22 2066.49 C 2899.93 2021.67 2907.38 1976.79 2915.08 1931.97 C 2915.19 1930.44 2916.15 1928.61 2914.55 1927.59 C 2881.04 1895.01 2847.71 1862.24 2814.11 1829.77 C 2818.90 1828.01 2824.17 1828.21 2829.16 1827.15 C 2871.28 1820.90 2913.40 1814.62 2955.53 1808.48 C 2969.61 1780.16 2983.56 1751.78 2997.58 1723.44 C 2999.37 1720.58 2998.77 1717.15 2998.87 1713.98 C 2998.84 1654.01 2998.87 1594.04 2998.86 1534.07 C 2998.76 1480.51 2999.05 1426.95 2998.72 1373.40 C 2789.36 1343.17 2578.82 1319.33 2367.34 1311.27 C 2367.44 1382.53 2367.36 1453.78 2367.38 1525.04 C 2367.21 1527.94 2369.00 1530.38 2370.14 1532.93 C 2382.44 1558.01 2395.01 1582.97 2407.14 1608.13 C 2452.74 1614.81 2498.31 1621.66 2543.90 1628.44 C 2545.50 1628.85 2547.66 1628.35 2548.83 1629.92 C 2514.71 1662.83 2480.94 1696.09 2446.89 1729.06 C 2454.54 1776.02 2462.98 1822.85 2470.70 1869.79 C 2441.15 1854.58 2411.86 1838.87 2382.40 1823.49 C 2377.33 1821.09 2372.67 1817.70 2367.31 1816.05 C 2367.48 1985.06 2367.34 2154.08 2367.38 2323.09 C 2367.60 2334.12 2366.95 2345.24 2367.69 2356.23 C 2379.84 2371.86 2392.01 2387.59 2402.36 2404.53 C 2412.79 2420.44 2421.39 2437.42 2429.59 2454.57 C 2433.74 2462.42 2436.57 2470.87 2439.83 2479.12 C 2442.19 2484.68 2444.27 2490.35 2446.18 2496.09 C 2448.55 2501.57 2449.40 2507.54 2451.71 2513.04 C 2454.05 2523.38 2457.76 2533.43 2459.08 2543.99 C 2462.51 2555.03 2463.06 2566.66 2464.66 2578.04 C 2465.98 2591.64 2467.98 2605.22 2467.82 2618.98 C 2469.19 2627.53 2468.45 2636.31 2468.47 2644.98 C 2466.87 2651.56 2468.39 2658.46 2466.77 2665.07 C 2466.77 2668.74 2465.42 2672.25 2465.64 2675.96 C 2465.25 2682.72 2463.81 2689.37 2462.93 2696.08 C 2461.96 2698.60 2461.58 2701.22 2461.56 2703.93 C 2458.99 2715.60 2457.13 2727.47 2453.45 2738.88 C 2437.35 2798.95 2406.66 2854.87 2365.62 2901.53 C 2360.77 2907.72 2354.63 2912.75 2349.82 2918.97 C 2340.04 2928.50 2330.08 2937.88 2319.64 2946.69 C 2304.35 2959.24 2288.29 2970.87 2271.50 2981.35 C 2233.98 3004.07 2192.97 3021.29 2150.11 3030.72 C 2128.07 3035.88 2105.53 3038.22 2083.08 3040.40 C 2072.39 3040.74 2061.69 3040.79 2051.00 3040.59 C 2054.76 3042.46 2059.03 3040.37 2063.02 3040.91 C 2067.28 3041.38 2071.59 3041.27 2075.89 3041.49 C 2068.60 3041.63 2061.33 3041.01 2054.06 3041.52 C 2046.47 3040.25 2038.74 3040.40 2031.07 3040.37 C 2032.27 3039.92 2033.53 3039.59 2034.82 3039.39 C 2028.85 3039.94 2022.77 3039.69 2016.88 3038.60 C 2005.11 3037.76 1993.51 3035.68 1981.90 3033.63 C 1970.29 3030.70 1958.44 3028.79 1947.00 3025.20 C 1925.70 3019.66 1905.05 3011.84 1885.09 3002.64 C 1865.98 2993.73 1847.13 2984.14 1829.54 2972.50 C 1816.38 2964.65 1804.42 2955.08 1792.27 2945.81 C 1784.18 2939.57 1776.79 2932.51 1768.94 2925.99 C 1762.75 2919.93 1756.56 2913.86 1750.66 2907.53 C 1744.07 2900.53 1744.94 2888.44 1752.06 2882.15 C 1755.71 2879.32 1760.22 2877.29 1764.93 2877.46 C 1769.51 2877.20 1773.75 2879.19 1778.05 2880.52 C 1783.70 2882.51 1789.55 2883.97 1795.11 2886.29 C 1807.89 2889.96 1820.66 2893.84 1833.85 2895.86 C 1856.93 2900.82 1880.49 2902.57 1904.04 2903.35 C 1910.39 2903.87 1916.61 2902.42 1922.97 2902.71 C 1930.01 2902.85 1936.91 2901.47 1943.96 2901.46 C 1952.90 2899.83 1962.01 2899.69 1970.93 2897.74 C 1982.90 2896.89 1994.30 2893.04 2005.97 2890.52 C 2026.42 2884.91 2046.66 2878.25 2065.83 2869.10 C 2110.02 2849.22 2149.50 2819.68 2182.50 2784.33 C 2195.28 2769.71 2207.44 2754.51 2218.27 2738.37 C 2229.01 2721.38 2238.84 2703.79 2247.22 2685.51 C 2250.51 2676.57 2254.16 2667.77 2257.67 2658.92 C 2260.58 2649.86 2263.37 2640.78 2265.90 2631.63 C 2266.42 2629.84 2266.82 2628.01 2266.43 2626.21 C 2266.70 2626.73 2266.99 2627.29 2267.32 2627.88 C 2268.64 2619.90 2271.35 2612.14 2271.78 2604.05 C 2272.14 2605.58 2272.41 2607.18 2272.64 2608.82 C 2271.60 2603.44 2273.90 2598.32 2274.35 2593.04 C 2276.16 2583.44 2276.63 2573.67 2278.18 2564.02 C 2278.59 2555.01 2278.31 2545.96 2279.29 2537.01 C 2278.45 2532.33 2279.86 2527.65 2278.90 2523.02 C 2278.32 2516.39 2278.61 2509.71 2278.14 2503.09 C 2277.35 2500.41 2277.30 2497.66 2277.35 2494.93 C 2276.21 2489.03 2275.67 2483.00 2274.71 2477.07 C 2275.02 2472.41 2273.19 2468.00 2273.48 2463.38 C 2273.25 2463.43 2272.78 2463.54 2272.54 2463.59 C 2272.31 2454.21 2269.21 2445.18 2267.25 2436.07 C 2265.01 2425.84 2261.57 2416.00 2258.72 2405.94 C 2254.11 2393.97 2249.99 2381.83 2244.70 2370.15 C 2232.92 2344.56 2218.61 2320.07 2201.73 2297.50 C 2196.86 2291.05 2191.53 2284.96 2186.68 2278.51 C 2182.83 2273.59 2178.18 2269.41 2174.36 2264.50 C 2170.69 2260.91 2167.64 2256.66 2165.64 2251.95 C 2165.07 2247.40 2164.65 2242.37 2167.22 2238.34 C 2171.64 2230.61 2181.45 2226.77 2189.92 2229.52 C 2200.69 2233.02 2211.06 2237.84 2221.24 2242.83 C 2257.50 2259.18 2290.01 2282.57 2320.47 2307.91 C 2320.33 2196.27 2320.45 2084.63 2320.41 1972.99 C 2320.47 1920.74 2320.29 1868.48 2320.50 1816.23 C 2286.52 1833.81 2252.77 1851.84 2218.84 1869.50 C 2216.50 1869.66 2217.93 1867.57 2218.22 1866.46 C 2226.17 1820.61 2233.65 1774.66 2241.67 1728.81 C 2213.07 1700.58 2184.12 1672.70 2155.43 1644.57 C 2150.35 1639.62 2145.35 1634.60 2140.14 1629.80 C 2142.85 1628.40 2146.03 1628.66 2148.98 1628.07 C 2193.17 1621.51 2237.35 1614.93 2281.55 1608.48 C 2294.04 1583.32 2306.44 1558.11 2318.89 1532.92 C 2320.30 1530.49 2319.76 1527.63 2319.87 1524.98 C 2319.81 1453.18 2319.92 1381.38 2319.81 1309.59 C 2260.54 1307.61 2201.23 1307.06 2141.93 1307.47 C 2074.26 1308.19 2006.59 1309.55 1938.99 1312.61 C 1877.03 1315.45 1815.11 1319.29 1753.30 1324.31 C 1753.37 1518.20 1753.31 1712.08 1753.33 1905.97 C 1753.45 1924.50 1753.08 1943.06 1753.51 1961.58 C 1761.65 1979.23 1770.66 1996.50 1779.14 2014.00 C 1785.09 2025.98 1790.91 2038.03 1796.97 2049.96 C 1819.02 2052.70 1840.95 2056.47 1862.97 2059.55 C 1888.63 2063.38 1914.29 2067.25 1939.96 2071.01 C 1943.17 2071.71 1946.68 2071.42 1949.66 2073.03 C 1914.77 2107.37 1879.55 2141.39 1844.52 2175.59 C 1842.87 2177.32 1840.80 2178.73 1839.58 2180.82 C 1848.12 2231.34 1856.89 2281.83 1865.34 2332.36 C 1827.51 2312.68 1789.84 2292.68 1752.06 2272.90 C 1744.36 2269.01 1736.89 2264.47 1729.00 2261.10 C 1684.57 2283.73 1640.59 2307.26 1596.41 2330.40 C 1595.03 2330.81 1592.91 2333.22 1591.96 2331.10 C 1592.77 2328.15 1593.36 2325.17 1593.78 2322.17 C 1601.72 2274.76 1609.92 2227.39 1617.78 2179.98 C 1606.12 2168.05 1593.87 2156.66 1581.99 2144.93 C 1557.44 2120.75 1532.48 2096.96 1508.11 2072.63 C 1559.10 2065.30 1610.02 2057.54 1660.99 2050.10 C 1672.27 2027.58 1683.31 2004.95 1694.50 1982.38 C 1698.28 1973.82 1703.60 1965.80 1706.35 1956.87 C 1706.39 1773.24 1706.35 1589.59 1706.37 1405.95 C 1706.49 1380.09 1706.11 1354.21 1706.56 1328.36 C 1662.99 1331.77 1619.51 1336.40 1576.04 1341.01 C 1431.42 1356.72 1287.38 1377.20 1143.53 1398.74 C 1140.49 1399.24 1137.39 1399.40 1134.45 1400.35 C 1134.77 1478.21 1134.39 1556.08 1134.63 1633.94 C 1136.68 1639.96 1140.12 1645.45 1142.75 1651.25 C 1153.87 1673.90 1165.22 1696.45 1176.17 1719.19 C 1221.78 1725.74 1267.32 1732.71 1312.90 1739.43 C 1314.52 1739.82 1316.64 1739.40 1317.84 1740.89 C 1290.70 1767.06 1263.81 1793.50 1236.77 1819.78 C 1229.85 1826.53 1222.79 1833.15 1216.08 1840.09 C 1216.32 1845.40 1217.69 1850.62 1218.51 1855.89 C 1225.44 1897.53 1232.81 1939.11 1239.71 1980.76 C 1205.35 1963.09 1171.27 1944.82 1137.03 1926.92 C 1136.17 1926.55 1135.30 1926.29 1134.41 1926.15 C 1134.77 2004.75 1134.46 2083.37 1134.56 2161.98 C 1134.54 2236.62 1134.61 2311.26 1134.53 2385.90 C 1139.67 2381.57 1144.78 2377.13 1150.64 2373.75 C 1158.22 2369.50 1165.18 2364.08 1173.45 2361.17 C 1189.56 2352.96 1207.27 2348.38 1225.07 2345.63 C 1236.01 2345.21 1247.08 2343.10 1257.97 2345.26 C 1262.60 2345.67 1267.67 2345.63 1271.73 2348.17 C 1281.92 2350.42 1292.48 2352.15 1301.78 2357.19 C 1312.08 2362.30 1323.90 2364.60 1332.95 2372.08 C 1339.97 2377.84 1348.46 2381.57 1355.06 2387.89 C 1363.13 2395.46 1370.80 2403.55 1377.19 2412.60 C 1378.34 2414.49 1380.57 2415.43 1381.56 2417.48 C 1385.54 2424.80 1391.11 2431.23 1393.96 2439.14 C 1396.80 2443.69 1397.86 2449.04 1400.21 2453.84 C 1404.88 2463.27 1405.96 2473.86 1408.70 2483.89 C 1409.60 2486.76 1409.06 2490.43 1411.95 2492.30 C 1419.99 2493.19 1427.84 2495.53 1435.82 2496.49 C 1435.26 2496.78 1434.73 2497.11 1434.21 2497.48 C 1436.88 2496.98 1439.33 2498.23 1441.80 2499.10 C 1459.92 2504.48 1475.45 2516.18 1488.62 2529.44 C 1495.98 2536.18 1501.14 2544.83 1507.00 2552.80 C 1510.70 2559.28 1514.61 2565.69 1517.50 2572.59 C 1519.15 2575.50 1519.26 2578.97 1520.79 2581.96 C 1522.99 2587.45 1524.95 2593.11 1525.83 2598.99 C 1528.39 2609.50 1530.11 2620.19 1530.49 2631.02 C 1530.39 2636.70 1531.93 2642.28 1531.36 2648.00 C 1531.65 2654.43 1530.36 2660.70 1529.34 2667.03 C 1528.87 2670.45 1528.41 2673.94 1526.84 2677.09 C 1525.46 2684.80 1522.20 2692.04 1518.79 2699.05 C 1518.74 2701.61 1516.54 2703.18 1515.72 2705.48 C 1512.62 2713.50 1506.96 2720.10 1501.75 2726.81 C 1497.48 2732.16 1492.01 2736.31 1486.96 2740.87 C 1482.12 2744.29 1476.80 2746.96 1471.54 2749.64 C 1462.14 2754.93 1451.49 2757.27 1441.07 2759.60 C 1436.15 2761.04 1430.95 2760.36 1425.97 2761.44 C 1416.32 2761.08 1406.55 2760.77 1397.15 2758.24 C 1394.82 2757.52 1392.14 2757.57 1390.35 2755.73 C 1383.20 2754.17 1376.23 2751.50 1369.75 2748.10 C 1367.57 2747.13 1365.55 2744.95 1363.00 2745.75 C 1361.41 2751.68 1357.05 2756.13 1354.30 2761.49 C 1348.73 2767.84 1344.03 2775.00 1337.84 2780.81 C 1330.38 2786.44 1323.17 2792.53 1314.89 2796.98 C 1305.50 2802.35 1295.32 2806.10 1284.99 2809.21 C 1282.49 2809.75 1280.01 2810.43 1277.45 2810.61 C 1277.46 2810.81 1277.48 2811.21 1277.49 2811.41 C 1273.24 2811.26 1269.21 2812.74 1265.07 2813.35 C 1256.70 2813.48 1248.34 2813.79 1239.98 2813.38 C 1235.66 2813.07 1231.28 2813.51 1227.08 2812.27 C 1221.05 2810.62 1214.77 2809.85 1209.04 2807.25 C 1197.95 2803.79 1187.49 2798.64 1177.48 2792.81 C 1171.99 2789.76 1167.58 2785.22 1162.44 2781.70 C 1156.75 2777.81 1152.44 2772.33 1147.59 2767.54 C 1144.92 2766.19 1143.07 2769.11 1141.04 2770.29 C 1127.44 2780.68 1110.89 2785.81 1094.94 2791.37 C 1083.13 2794.47 1071.12 2796.76 1058.98 2798.00 C 1055.32 2798.61 1051.55 2798.22 1047.98 2799.33 C 1046.60 2799.85 1045.28 2798.99 1044.01 2798.67 C 1037.16 2800.20 1029.96 2799.04 1022.97 2799.32 C 1004.06 2798.21 985.11 2795.48 967.05 2789.58 C 963.73 2788.63 960.87 2786.52 957.48 2785.80 C 946.30 2782.20 935.59 2777.17 925.43 2771.32 C 917.87 2766.04 910.01 2761.10 903.30 2754.75 C 899.42 2751.60 896.12 2747.85 892.33 2744.63 C 889.82 2743.78 887.85 2746.16 885.62 2746.90 C 877.24 2751.21 868.00 2753.29 859.04 2756.00 C 847.18 2758.28 835.10 2759.57 823.02 2759.15 C 817.01 2758.30 810.90 2758.65 804.96 2757.30 C 794.96 2754.88 784.96 2752.48 775.42 2748.57 C 767.41 2744.35 759.00 2740.75 751.85 2735.11 C 743.08 2728.60 735.46 2720.71 728.36 2712.47 C 723.58 2707.68 720.51 2701.47 717.52 2695.52 C 714.58 2691.47 712.98 2686.68 710.89 2682.20 C 710.28 2678.98 708.12 2676.32 708.24 2672.98 C 705.88 2662.04 702.67 2651.19 703.34 2639.90 C 700.66 2625.85 705.14 2611.90 706.76 2597.99 C 707.32 2596.66 708.35 2595.53 708.41 2594.07 C 708.53 2590.89 710.53 2588.19 710.60 2585.03 C 710.51 2582.82 712.09 2581.27 713.09 2579.52 C 714.24 2575.09 716.65 2571.12 718.36 2566.90 C 719.81 2562.22 722.54 2558.10 725.03 2553.95 C 726.04 2551.23 728.75 2549.74 729.94 2547.16 C 739.56 2532.53 753.88 2522.02 767.90 2511.92 C 771.62 2508.70 776.30 2507.08 780.43 2504.54 C 787.11 2500.70 794.68 2498.97 802.01 2496.85 C 807.98 2495.80 813.87 2493.98 820.02 2494.31 C 825.26 2493.14 830.64 2493.63 835.97 2493.51 C 840.66 2493.98 845.27 2495.17 849.99 2495.48 C 854.86 2496.19 859.64 2498.22 864.53 2498.34 C 867.51 2496.06 867.96 2491.86 869.26 2488.57 C 870.99 2481.22 874.15 2474.35 877.37 2467.57 C 879.64 2463.77 880.73 2459.34 883.56 2455.89 C 887.44 2450.76 889.64 2444.59 893.86 2439.71 C 898.51 2434.07 903.38 2428.63 908.07 2423.04 C 912.44 2418.03 918.35 2414.77 923.05 2410.14 C 932.94 2404.05 941.85 2396.29 952.54 2391.50 C 957.36 2388.35 962.92 2386.82 968.21 2384.75 C 972.09 2384.65 975.37 2382.38 979.08 2381.57 C 986.73 2379.78 994.03 2376.51 1001.90 2375.74 C 1004.65 2375.74 1007.38 2375.41 1010.07 2374.83 C 1016.37 2374.16 1022.76 2374.82 1029.04 2373.79 C 1034.75 2374.96 1040.63 2373.86 1046.36 2374.89 C 1050.87 2376.14 1055.50 2376.96 1060.06 2377.98 C 1063.73 2380.24 1068.18 2380.26 1072.08 2382.00 C 1076.33 2383.48 1080.35 2385.53 1084.62 2386.99 C 1086.88 2385.34 1086.10 2382.35 1086.21 2380.00 C 1086.18 2234.00 1086.20 2088.00 1086.19 1942.00 C 1086.11 1937.66 1086.44 1933.31 1085.90 1929.01 C 1053.20 1946.18 1020.52 1963.39 987.81 1980.54 C 987.46 1980.37 986.77 1980.04 986.42 1979.88 C 988.56 1973.09 988.99 1965.88 990.39 1958.92 C 997.22 1919.23 1003.73 1879.49 1010.66 1839.81 C 982.57 1812.07 954.14 1784.68 925.94 1757.05 C 920.35 1751.60 914.84 1746.07 909.12 1740.77 C 911.20 1739.73 913.55 1739.67 915.81 1739.36 C 960.73 1732.78 1005.62 1725.99 1050.54 1719.49 C 1062.39 1695.65 1074.11 1671.75 1085.93 1647.90 C 1086.63 1646.34 1087.57 1644.79 1087.58 1643.04 C 1087.67 1564.44 1087.51 1485.83 1087.66 1407.23 C 1026.71 1416.17 965.83 1425.60 904.86 1434.41 C 884.34 1437.47 863.30 1435.98 843.15 1431.26 C 825.20 1426.97 807.69 1420.08 792.37 1409.67 C 780.31 1401.43 769.43 1390.07 765.59 1375.62 C 762.93 1365.46 758.80 1355.20 760.31 1344.50 C 762.45 1327.65 772.75 1313.18 784.41 1301.38 C 808.23 1277.80 839.40 1262.19 872.00 1255.02 C 1060.76 1215.68 1251.45 1185.64 1443.13 1164.81 C 1616.16 1145.96 1789.98 1134.62 1963.97 1130.11 C 1964.04 1038.06 1963.98 946.01 1964.00 853.96 C 1964.10 840.22 1963.22 826.24 1966.71 812.81 C 1974.00 781.30 1997.66 754.23 2027.88 742.74 M 1086.79 1931.98 C 1086.84 2083.00 1086.78 2234.01 1086.82 2385.03 C 1087.05 2386.24 1086.13 2387.13 1085.21 2387.78 C 1085.83 2387.77 1087.05 2387.75 1087.66 2387.74 C 1087.52 2243.49 1087.64 2099.24 1087.60 1955.00 C 1087.35 1946.08 1088.11 1937.10 1087.21 1928.24 C 1086.92 1929.45 1086.78 1930.69 1086.79 1931.98 Z" />
</g>
</svg>
