<?xml version="1.0" encoding="UTF-8" ?>
<!DOCTYPE svg PUBLIC "-//W3C//DTD SVG 1.1//EN" "http://www.w3.org/Graphics/SVG/1.1/DTD/svg11.dtd">
<svg width="4000pt" height="4000pt" viewBox="0 0 4000 4000" version="1.1" xmlns="http://www.w3.org/2000/svg">
<g id="#000000ff">
<path fill="#000000" opacity="1.00" d=" M 1992.63 763.59 C 1998.48 758.94 2005.29 754.80 2012.99 754.56 C 2019.88 754.32 2026.90 753.65 2033.73 755.01 C 2042.05 757.13 2050.53 758.55 2058.84 760.73 C 2068.27 763.59 2077.46 767.17 2086.82 770.29 C 2087.33 770.39 2088.35 770.60 2088.87 770.71 C 2089.79 771.12 2090.75 771.51 2091.75 771.88 C 2100.07 774.76 2108.43 777.51 2116.83 780.17 C 2117.82 780.50 2118.83 780.84 2119.87 781.21 C 2122.87 782.10 2125.88 783.01 2128.90 783.93 C 2130.23 784.24 2131.55 784.50 2132.94 784.81 C 2138.54 786.58 2144.18 788.21 2149.83 789.84 C 2166.24 793.89 2182.57 798.30 2199.15 801.68 C 2214.46 804.74 2229.68 808.26 2245.15 810.49 C 2260.36 813.20 2275.73 814.96 2291.04 817.07 C 2305.68 818.38 2320.26 820.45 2334.97 820.85 C 2340.47 822.11 2346.19 821.05 2351.74 822.14 C 2359.17 822.51 2366.50 823.91 2373.98 823.79 C 2382.22 825.24 2390.68 824.11 2399.02 824.75 C 2408.70 824.23 2418.28 825.99 2427.96 825.68 C 2434.04 825.78 2440.14 825.28 2446.21 825.91 C 2450.76 826.59 2455.38 826.34 2459.98 826.39 C 2473.33 826.56 2486.68 826.95 2500.03 826.47 C 2515.35 826.46 2530.68 826.65 2545.99 826.25 C 2554.92 825.08 2563.97 826.02 2572.92 825.05 C 2585.32 823.45 2597.66 825.95 2610.02 826.79 C 2617.81 827.77 2625.67 830.20 2631.75 835.37 C 2636.95 839.84 2642.38 844.35 2645.84 850.38 C 2650.70 858.75 2656.93 866.24 2661.58 874.75 C 2666.90 884.43 2672.57 893.95 2679.16 902.84 C 2684.34 909.96 2690.71 916.13 2695.65 923.43 C 2721.89 961.19 2751.75 996.33 2783.73 1029.32 C 2829.93 1075.81 2880.19 1118.28 2933.79 1156.03 C 2956.54 1172.74 2980.60 1187.55 3004.45 1202.63 C 3008.29 1204.99 3011.44 1208.29 3014.38 1211.70 C 3018.50 1216.87 3023.70 1221.20 3026.86 1227.12 C 3030.69 1234.20 3034.41 1241.40 3037.58 1248.81 C 3038.94 1254.46 3041.55 1259.99 3041.37 1265.89 C 3041.10 1264.61 3042.05 1263.36 3043.24 1263.30 C 3040.93 1264.85 3043.02 1267.43 3043.24 1269.46 C 3066.55 1353.36 3100.65 1434.08 3142.33 1510.46 C 3160.99 1544.84 3181.46 1578.23 3203.64 1610.46 C 3208.57 1617.64 3213.80 1624.69 3217.78 1632.48 C 3221.59 1639.69 3224.57 1647.31 3227.30 1655.00 C 3229.39 1663.25 3230.93 1671.66 3232.00 1680.11 C 3232.76 1684.86 3231.93 1689.72 3232.81 1694.48 C 3234.08 1700.23 3232.93 1706.19 3234.17 1711.96 C 3236.17 1738.89 3236.01 1765.98 3235.34 1792.99 C 3234.12 1800.26 3235.22 1807.68 3233.87 1814.94 C 3233.10 1819.91 3233.97 1825.01 3232.90 1829.96 C 3229.35 1875.37 3221.40 1920.41 3210.23 1964.56 C 3204.54 1986.47 3199.42 2008.54 3192.98 2030.25 C 3180.97 2072.51 3165.39 2113.79 3145.97 2153.21 C 3137.23 2171.75 3127.75 2189.96 3117.44 2207.70 C 3106.99 2223.72 3099.27 2241.30 3089.65 2257.81 C 3061.00 2308.16 3025.00 2354.18 2984.23 2395.27 C 2977.62 2402.64 2970.02 2409.01 2963.03 2415.99 C 2907.97 2467.87 2845.72 2511.81 2779.98 2549.10 C 2743.07 2569.89 2705.10 2588.83 2666.17 2605.54 C 2657.57 2609.41 2648.77 2612.81 2640.19 2616.71 C 2678.90 2690.54 2717.05 2764.67 2755.63 2838.57 C 2764.32 2855.67 2773.45 2872.55 2782.00 2889.73 C 2787.04 2889.42 2791.33 2886.45 2796.05 2884.94 C 2800.52 2883.51 2804.32 2880.72 2808.47 2878.60 C 2814.44 2876.27 2820.38 2873.82 2826.20 2871.11 C 2829.32 2869.52 2831.97 2867.10 2835.27 2865.82 C 2839.64 2864.10 2844.04 2862.39 2848.28 2860.33 C 2853.23 2858.13 2857.57 2854.78 2862.56 2852.64 C 2866.98 2850.18 2871.92 2848.78 2876.27 2846.17 C 2884.73 2839.78 2895.21 2836.91 2903.95 2830.96 C 2911.73 2826.78 2919.69 2822.83 2926.91 2817.69 C 2933.70 2813.90 2941.04 2811.03 2947.34 2806.36 C 2952.90 2801.93 2960.34 2800.44 2965.45 2795.37 C 2967.07 2793.72 2968.96 2792.37 2971.13 2791.52 C 2976.15 2789.38 2980.76 2786.39 2985.03 2783.01 C 2989.38 2779.96 2994.03 2777.35 2998.68 2774.76 C 3003.62 2772.20 3007.41 2767.95 3012.38 2765.42 C 3020.14 2761.05 3026.66 2754.90 3034.48 2750.61 C 3037.94 2748.81 3039.99 2745.23 3043.41 2743.35 C 3047.96 2740.70 3052.41 2737.85 3056.61 2734.66 C 3060.57 2731.20 3064.59 2727.76 3069.21 2725.19 C 3072.57 2723.31 3074.59 2719.79 3077.96 2717.90 C 3081.96 2715.38 3085.92 2712.72 3089.13 2709.21 C 3093.00 2704.95 3098.43 2702.59 3102.36 2698.39 C 3105.86 2694.53 3110.45 2691.88 3113.93 2687.98 C 3118.85 2682.41 3125.38 2678.70 3131.33 2674.36 C 3139.72 2668.26 3149.85 2665.43 3159.82 2663.09 C 3166.54 2661.95 3172.97 2659.06 3179.97 2659.90 C 3186.44 2659.15 3192.34 2662.15 3198.64 2663.01 C 3208.05 2664.96 3217.91 2667.09 3225.62 2673.22 C 3235.00 2677.60 3242.40 2685.00 3249.24 2692.59 C 3254.98 2700.09 3260.12 2708.30 3262.79 2717.44 C 3264.40 2721.82 3264.64 2726.55 3266.12 2730.99 C 3268.64 2737.01 3267.99 2743.74 3267.53 2750.09 C 3263.85 2761.01 3262.72 2773.20 3255.58 2782.65 C 3252.84 2787.36 3249.64 2791.85 3245.67 2795.61 C 3241.21 2799.87 3237.18 2804.62 3232.17 2808.27 C 3225.14 2814.93 3217.39 2820.76 3210.22 2827.26 C 3207.02 2829.70 3203.61 2831.90 3200.84 2834.84 C 3196.10 2839.94 3189.30 2842.46 3184.58 2847.58 C 3181.16 2851.38 3176.37 2853.41 3172.44 2856.58 C 3168.41 2859.12 3165.21 2862.70 3161.21 2865.26 C 3157.10 2868.12 3152.60 2870.47 3149.03 2874.02 C 3146.05 2876.91 3142.13 2878.46 3138.81 2880.88 C 3135.99 2882.64 3133.62 2884.99 3131.06 2887.08 C 3126.73 2890.16 3121.82 2892.36 3117.57 2895.56 C 3110.89 2901.55 3102.23 2904.69 3095.46 2910.57 C 3091.48 2914.27 3086.15 2915.89 3081.69 2918.87 C 3077.93 2920.56 3075.45 2924.07 3071.70 2925.73 C 3066.44 2928.28 3061.20 2931.03 3056.54 2934.56 C 3052.82 2938.21 3047.76 2939.78 3043.29 2942.24 C 3039.38 2944.23 3035.97 2947.01 3032.25 2949.29 C 3024.78 2953.30 3017.30 2957.33 3010.24 2962.03 C 3004.65 2965.30 2998.58 2967.68 2993.07 2971.06 C 2984.83 2977.25 2974.51 2979.88 2966.39 2986.22 C 2957.39 2990.10 2948.50 2994.34 2940.12 2999.42 C 2935.27 3001.41 2930.59 3003.74 2925.86 3005.96 C 2921.03 3007.91 2917.03 3011.43 2912.08 3013.10 C 2903.31 3016.97 2894.29 3020.39 2886.10 3025.41 C 2880.14 3028.09 2873.86 3030.04 2868.06 3033.09 C 2857.10 3039.45 2844.30 3041.96 2833.55 3048.73 C 2823.44 3053.09 2812.56 3055.63 2802.89 3061.02 C 2792.30 3065.43 2781.12 3068.44 2770.86 3073.63 C 2759.83 3077.79 2748.19 3080.39 2737.66 3085.78 C 2727.94 3089.29 2717.87 3091.75 2708.24 3095.50 C 2705.04 3096.87 2702.04 3098.72 2698.69 3099.69 C 2687.37 3102.86 2675.66 3105.11 2665.09 3110.43 C 2655.81 3113.38 2646.21 3115.21 2636.92 3118.13 C 2630.12 3119.63 2623.98 3123.16 2617.14 3124.48 C 2606.49 3126.94 2595.97 3129.89 2585.42 3132.70 C 2575.22 3136.67 2564.41 3138.51 2553.78 3140.88 C 2546.29 3142.94 2538.45 3143.72 2531.22 3146.66 C 2525.40 3148.95 2519.15 3149.63 2513.08 3150.87 C 2504.66 3152.03 2496.50 3154.48 2488.14 3155.96 C 2482.35 3157.28 2476.37 3157.82 2470.81 3159.96 C 2466.68 3161.45 2462.29 3161.95 2458.00 3162.72 C 2439.90 3166.34 2421.39 3167.87 2403.53 3172.66 C 2392.39 3174.70 2381.12 3175.90 2369.94 3177.66 C 2357.52 3179.76 2344.91 3180.40 2332.53 3182.75 C 2327.72 3183.67 2322.99 3185.27 2318.08 3185.42 C 2313.30 3185.31 2308.68 3186.63 2303.95 3186.92 C 2299.34 3188.02 2294.56 3187.38 2289.95 3188.30 C 2260.40 3191.40 2230.80 3193.63 2201.21 3196.02 C 2193.84 3197.11 2186.47 3198.55 2178.99 3198.06 C 2172.58 3197.56 2166.37 3199.63 2159.98 3199.21 C 2152.67 3199.41 2145.28 3198.63 2138.06 3200.04 C 2124.08 3201.12 2109.90 3199.25 2096.00 3201.42 C 2065.33 3201.57 2034.67 3201.47 2004.01 3201.48 C 1998.28 3201.75 1992.71 3199.91 1986.98 3200.41 C 1973.31 3200.01 1959.54 3201.22 1945.98 3199.27 C 1937.63 3199.03 1929.26 3199.48 1920.92 3198.99 C 1910.35 3196.87 1899.42 3199.37 1888.90 3196.78 C 1882.78 3195.25 1876.43 3196.19 1870.29 3194.98 C 1864.56 3194.31 1858.73 3195.02 1853.06 3193.77 C 1844.98 3193.71 1837.03 3192.30 1828.95 3192.22 C 1822.97 3191.02 1816.82 3191.64 1810.83 3190.64 C 1806.76 3189.97 1802.62 3190.35 1798.57 3189.73 C 1792.75 3188.55 1786.78 3189.06 1780.99 3187.84 C 1774.59 3188.00 1768.40 3186.22 1762.02 3186.46 C 1757.75 3185.35 1753.35 3185.59 1749.04 3185.15 C 1741.80 3182.59 1734.06 3182.51 1726.53 3181.56 C 1717.71 3180.23 1708.88 3179.07 1700.05 3177.90 C 1687.61 3177.01 1675.29 3174.91 1662.94 3173.22 C 1658.14 3172.76 1653.68 3170.76 1648.94 3170.10 C 1631.33 3167.14 1613.68 3164.41 1596.04 3161.69 C 1589.55 3161.32 1583.62 3158.34 1577.20 3157.62 C 1565.34 3155.95 1553.83 3152.53 1541.98 3150.92 C 1536.32 3149.85 1530.63 3148.89 1525.06 3147.49 C 1513.72 3143.29 1501.59 3141.98 1489.94 3138.89 C 1484.30 3137.85 1478.65 3136.85 1473.09 3135.50 C 1461.42 3130.61 1448.79 3128.85 1436.63 3125.61 C 1432.78 3124.48 1428.78 3124.02 1424.94 3122.96 C 1416.50 3118.62 1407.02 3117.05 1397.95 3114.55 C 1391.69 3112.71 1385.08 3111.85 1379.24 3108.83 C 1375.31 3106.87 1370.94 3106.13 1366.80 3104.81 C 1361.75 3103.48 1356.84 3101.72 1351.80 3100.43 C 1346.99 3099.28 1342.66 3096.81 1337.93 3095.45 C 1327.67 3092.20 1317.39 3089.01 1307.09 3085.91 C 1303.12 3084.12 1299.40 3081.73 1295.17 3080.61 C 1288.98 3078.93 1283.01 3076.57 1276.85 3074.81 C 1272.98 3073.81 1269.80 3071.27 1266.10 3069.90 C 1262.47 3068.43 1258.73 3067.30 1255.14 3065.80 C 1248.74 3063.03 1241.65 3061.95 1235.83 3057.94 C 1228.24 3054.86 1220.54 3052.01 1212.88 3049.12 C 1207.01 3046.06 1201.03 3043.22 1194.89 3040.76 C 1190.71 3038.98 1186.19 3038.01 1182.31 3035.58 C 1173.86 3030.07 1163.83 3027.77 1155.00 3023.02 C 1147.18 3017.95 1138.30 3014.99 1129.95 3010.98 C 1126.37 3008.67 1122.85 3006.17 1118.84 3004.68 C 1111.30 3001.80 1104.43 2997.53 1097.55 2993.41 C 1091.79 2990.01 1084.94 2988.66 1079.80 2984.20 C 1072.60 2979.50 1064.25 2976.77 1057.25 2971.72 C 1052.99 2968.92 1048.77 2965.96 1044.04 2964.03 C 1038.54 2962.26 1035.17 2957.09 1029.87 2954.93 C 1021.15 2951.19 1014.25 2944.50 1005.85 2940.20 C 1001.15 2938.06 998.07 2933.65 993.41 2931.49 C 988.25 2928.44 982.83 2925.69 978.37 2921.65 C 972.15 2916.37 964.29 2913.38 958.56 2907.54 C 954.95 2904.73 950.77 2902.71 947.41 2899.60 C 943.39 2895.75 938.45 2893.09 934.17 2889.60 C 929.47 2886.41 925.52 2882.30 920.91 2879.04 C 918.07 2876.88 914.77 2875.29 912.50 2872.51 C 908.36 2867.51 901.88 2865.20 897.81 2860.14 C 895.94 2857.70 893.48 2855.85 891.00 2854.12 C 887.47 2851.67 884.65 2848.42 881.62 2845.44 C 877.83 2841.53 873.53 2838.02 870.68 2833.32 C 868.02 2828.96 864.59 2825.00 862.88 2820.14 C 859.57 2812.88 858.99 2804.78 855.82 2797.48 C 855.14 2791.56 855.13 2785.43 855.83 2779.52 C 859.76 2769.86 860.34 2758.98 865.88 2749.96 C 868.78 2745.85 872.11 2742.09 875.05 2738.03 C 879.80 2730.83 887.50 2726.49 894.08 2721.19 C 896.90 2718.59 900.58 2717.46 904.01 2715.93 C 916.93 2710.48 930.89 2707.04 944.99 2707.69 C 958.17 2707.19 970.96 2711.19 983.09 2715.98 C 991.17 2718.39 996.76 2725.14 1003.87 2729.32 C 1009.36 2732.24 1012.64 2737.83 1017.70 2741.34 C 1020.44 2743.18 1023.26 2744.99 1025.42 2747.56 C 1029.71 2752.42 1035.86 2755.05 1040.19 2759.88 C 1046.38 2764.65 1052.99 2768.91 1058.99 2773.97 C 1062.80 2777.24 1067.44 2779.39 1071.13 2782.84 C 1074.47 2786.04 1078.66 2788.12 1082.61 2790.48 C 1087.98 2793.61 1092.53 2797.94 1097.77 2801.28 C 1101.24 2803.54 1105.44 2804.63 1108.47 2807.59 C 1112.31 2811.36 1117.41 2813.29 1121.90 2816.13 C 1126.28 2818.74 1130.34 2821.86 1134.80 2824.37 C 1138.74 2826.79 1143.25 2828.22 1146.88 2831.15 C 1154.67 2837.49 1164.80 2839.96 1172.70 2846.15 C 1178.20 2849.25 1183.87 2852.10 1189.76 2854.42 C 1192.47 2855.82 1194.54 2858.27 1197.42 2859.46 C 1201.97 2861.34 1206.24 2863.83 1210.85 2865.59 C 1215.75 2867.46 1219.57 2871.32 1224.52 2873.12 C 1229.90 2875.69 1235.63 2877.48 1240.98 2880.11 C 1245.64 2884.08 1251.68 2885.57 1257.18 2888.00 C 1260.68 2889.49 1264.29 2890.72 1267.74 2892.35 C 1275.31 2896.79 1283.58 2900.04 1291.96 2902.62 C 1309.61 2867.84 1327.91 2833.40 1345.74 2798.71 C 1374.87 2742.79 1403.87 2686.81 1432.97 2630.88 C 1435.26 2626.09 1438.15 2621.60 1440.01 2616.63 C 1414.80 2606.37 1389.92 2595.31 1365.42 2583.48 C 1362.75 2582.23 1359.70 2582.22 1357.11 2580.85 C 1321.17 2562.00 1285.77 2542.07 1251.47 2520.38 C 1185.02 2477.33 1122.72 2427.20 1069.95 2368.00 C 1039.33 2333.78 1012.19 2296.43 989.37 2256.56 C 983.30 2246.34 977.33 2236.06 970.88 2226.07 C 963.41 2212.94 955.66 2199.97 948.68 2186.56 C 929.36 2149.37 912.49 2110.86 899.17 2071.11 C 892.46 2053.51 887.89 2035.19 882.72 2017.09 C 877.22 1996.30 872.10 1975.40 866.93 1954.53 C 861.79 1933.87 857.90 1912.93 854.30 1891.97 C 852.63 1879.30 850.19 1866.73 849.32 1853.98 C 848.46 1846.65 847.40 1839.35 847.23 1831.98 C 846.17 1827.48 846.45 1822.86 846.19 1818.31 C 844.17 1802.61 844.48 1786.75 844.11 1770.96 C 843.61 1761.78 846.57 1752.94 847.88 1743.95 C 850.92 1731.44 853.25 1718.37 860.51 1707.46 C 863.21 1703.57 865.78 1699.52 869.32 1696.33 C 880.53 1686.70 894.17 1679.56 908.95 1677.68 C 918.33 1677.29 927.54 1675.03 936.97 1675.36 C 1283.16 1675.36 1629.35 1675.31 1975.55 1675.39 C 1975.73 1644.26 1975.72 1613.14 1975.73 1582.01 C 1975.79 1573.33 1975.50 1564.65 1976.24 1556.00 C 1976.64 1315.01 1976.70 1074.01 1976.59 833.02 C 1976.31 819.61 1977.94 806.25 1979.85 793.00 C 1982.29 782.64 1984.40 771.10 1992.63 763.59 M 2489.02 2668.12 C 2373.44 2700.64 2254.10 2719.37 2134.28 2725.97 C 2126.44 2726.73 2118.53 2726.21 2110.72 2727.16 C 2098.74 2727.83 2086.71 2727.24 2074.76 2728.30 C 2059.83 2728.55 2044.90 2728.52 2029.98 2728.51 C 2020.02 2728.31 2010.03 2728.79 2000.10 2727.85 C 1987.07 2727.39 1973.99 2727.85 1961.01 2726.61 C 1953.34 2726.10 1945.68 2726.34 1938.05 2726.64 C 1939.72 2726.29 1941.41 2726.05 1943.15 2725.86 C 1878.17 2722.24 1813.39 2714.96 1749.25 2703.88 C 1743.50 2703.07 1737.88 2701.43 1732.07 2701.28 C 1732.53 2701.16 1733.46 2700.92 1733.93 2700.81 C 1712.59 2697.69 1691.57 2692.68 1670.47 2688.29 C 1647.52 2682.95 1624.60 2677.44 1601.88 2671.20 C 1592.18 2668.66 1582.65 2665.48 1572.89 2663.19 C 1566.54 2675.94 1559.73 2688.45 1553.29 2701.15 C 1513.72 2777.24 1474.21 2853.36 1434.66 2929.46 C 1431.24 2936.73 1426.81 2943.49 1423.82 2950.97 C 1427.56 2951.90 1431.39 2952.60 1434.97 2954.13 C 1444.22 2958.12 1454.15 2960.13 1463.86 2962.73 C 1469.62 2964.32 1475.68 2965.09 1481.07 2967.85 C 1486.85 2969.92 1492.94 2970.97 1498.86 2972.61 C 1509.09 2975.23 1519.76 2976.36 1529.55 2980.49 C 1538.04 2982.91 1546.80 2984.11 1555.34 2986.36 C 1563.14 2988.26 1571.19 2988.96 1578.97 2990.97 C 1585.43 2993.39 1592.19 2994.89 1599.02 2995.88 C 1609.69 2997.70 1620.38 2999.47 1631.04 3001.38 C 1636.68 3001.38 1641.68 3004.35 1647.15 3005.34 C 1658.37 3007.32 1669.64 3009.00 1680.93 3010.53 C 1694.26 3012.31 1707.84 3013.03 1720.83 3016.75 C 1744.64 3019.79 1768.53 3022.80 1792.43 3024.87 C 1796.53 3025.95 1800.85 3025.01 1804.98 3026.05 C 1809.65 3027.18 1814.53 3026.09 1819.22 3027.25 C 1825.36 3028.60 1831.65 3028.84 1837.88 3029.65 C 1851.26 3030.82 1864.64 3032.07 1878.06 3032.63 C 1884.23 3034.01 1890.59 3032.94 1896.81 3033.85 C 1903.79 3035.18 1910.95 3034.12 1918.01 3034.80 C 1928.53 3036.75 1939.34 3034.66 1949.87 3036.57 C 1960.23 3037.08 1970.62 3036.70 1980.99 3036.92 C 1984.68 3037.07 1988.29 3038.14 1992.02 3038.12 C 2023.69 3038.10 2055.36 3038.12 2087.03 3038.11 C 2095.03 3037.96 2103.10 3038.62 2111.02 3037.16 C 2121.01 3036.33 2131.08 3037.34 2141.08 3036.48 C 2146.64 3035.39 2152.33 3035.78 2157.98 3035.68 C 2164.35 3035.92 2170.57 3034.06 2176.96 3034.56 C 2183.01 3035.03 2188.89 3033.17 2194.94 3033.43 C 2200.00 3033.67 2204.92 3032.05 2210.00 3032.31 C 2223.88 3031.37 2237.73 3029.84 2251.59 3028.40 C 2255.01 3027.60 2258.40 3026.33 2262.00 3026.65 C 2266.06 3026.95 2269.96 3025.50 2274.01 3025.50 C 2286.04 3024.16 2298.12 3023.14 2310.14 3021.42 C 2323.57 3019.92 2337.11 3018.57 2350.16 3014.85 C 2359.71 3013.09 2369.43 3012.52 2378.99 3010.77 C 2390.88 3008.62 2402.85 3006.90 2414.73 3004.64 C 2425.18 3001.37 2436.11 3000.19 2446.78 2997.78 C 2457.88 2996.09 2468.82 2993.51 2479.55 2990.22 C 2491.75 2987.58 2504.01 2985.19 2516.09 2982.05 C 2521.60 2981.24 2526.39 2978.13 2531.85 2977.17 C 2541.25 2975.21 2550.55 2972.81 2559.86 2970.43 C 2566.09 2968.88 2571.78 2965.65 2578.13 2964.46 C 2588.15 2961.99 2598.25 2959.55 2607.95 2955.97 C 2614.59 2952.19 2622.33 2951.49 2629.51 2949.17 C 2636.93 2946.37 2645.13 2945.29 2651.74 2940.63 C 2612.91 2865.66 2573.90 2790.77 2535.01 2715.83 C 2526.09 2698.30 2516.58 2681.06 2508.03 2663.36 C 2501.44 2663.66 2495.40 2666.71 2489.02 2668.12 Z" />
</g>
</svg>
