<?xml version="1.0" encoding="UTF-8" ?>
<!DOCTYPE svg PUBLIC "-//W3C//DTD SVG 1.1//EN" "http://www.w3.org/Graphics/SVG/1.1/DTD/svg11.dtd">
<svg width="1250pt" height="1250pt" viewBox="0 0 1250 1250" version="1.1" xmlns="http://www.w3.org/2000/svg">
<g id="#000000ff">
<path fill="#000000" opacity="1.00" d=" M 798.13 216.13 C 810.20 211.23 823.90 211.82 836.09 215.98 C 839.63 217.26 843.50 218.33 846.28 221.02 C 846.52 222.69 846.02 224.33 845.66 225.94 C 840.23 245.37 836.00 265.10 832.34 284.93 C 825.61 317.97 820.95 351.45 818.37 385.07 C 817.49 389.29 822.88 387.22 823.90 384.90 C 831.71 368.33 838.69 351.20 849.10 336.02 C 854.47 328.05 860.07 319.30 869.30 315.41 C 880.51 310.70 893.24 311.27 904.92 313.75 C 917.28 316.34 929.05 323.90 934.45 335.62 C 940.92 350.18 943.43 366.15 944.64 381.94 C 945.88 402.63 947.23 423.42 945.41 444.12 C 944.42 458.26 940.52 472.25 933.75 484.71 C 928.39 493.18 920.67 500.30 911.72 504.84 C 901.68 509.60 889.63 508.08 880.04 502.95 C 862.72 493.98 847.04 481.42 835.72 465.44 C 832.58 460.86 830.13 455.32 824.89 452.75 C 823.32 451.42 822.19 453.40 821.63 454.62 C 817.69 462.16 819.69 470.92 818.07 478.97 C 816.94 484.84 816.18 491.28 811.96 495.88 C 808.03 500.36 801.82 501.99 796.04 501.77 C 788.53 501.63 780.35 499.62 775.32 493.65 C 771.40 489.20 771.37 482.96 770.35 477.43 C 769.11 470.39 768.74 463.23 767.56 456.19 C 767.24 454.56 765.05 455.37 764.83 456.61 C 757.86 469.71 751.04 483.73 738.80 492.77 C 730.06 499.14 718.55 499.85 708.26 497.70 C 698.35 495.54 688.33 492.23 680.41 485.67 C 670.29 477.47 665.00 465.04 661.36 452.87 C 658.09 441.38 655.62 429.67 653.70 417.88 C 650.45 418.32 648.42 421.13 645.76 422.74 C 636.87 428.97 625.56 430.87 614.94 429.40 C 604.78 427.98 594.37 425.21 586.19 418.75 C 580.93 414.65 577.41 408.65 575.79 402.23 C 572.37 389.42 572.13 376.04 571.57 362.88 C 571.63 361.68 570.93 359.26 569.31 360.19 C 564.48 364.08 561.83 369.92 559.78 375.62 C 544.75 411.18 530.94 447.56 523.75 485.61 C 523.08 489.17 522.68 493.22 519.69 495.70 C 514.18 500.62 506.01 500.76 499.12 499.55 C 491.10 497.78 482.59 492.85 480.35 484.42 C 471.92 450.28 475.27 414.81 473.33 380.03 C 471.80 362.46 474.05 344.84 476.69 327.49 C 477.29 322.66 481.14 318.84 485.86 317.93 C 497.76 315.15 510.52 315.86 522.04 319.95 C 525.22 321.19 528.64 322.49 530.90 325.17 C 532.48 327.47 531.25 330.38 530.70 332.83 C 525.55 350.74 525.48 369.55 525.66 388.03 C 525.77 394.82 524.92 401.64 525.65 408.42 C 526.98 407.95 528.32 407.26 528.88 405.87 C 533.09 397.95 534.32 388.91 537.34 380.54 C 542.34 364.83 549.65 350.00 557.48 335.56 C 562.13 328.32 570.34 323.43 579.05 323.59 C 590.33 323.78 602.95 325.28 611.40 333.58 C 617.64 340.43 619.71 350.03 620.79 358.98 C 621.57 374.64 621.01 390.33 620.57 405.99 C 620.50 410.30 621.33 414.81 623.90 418.37 C 625.94 418.60 627.82 417.39 629.69 416.69 C 638.33 412.69 646.58 406.93 652.02 399.03 C 651.53 380.69 652.33 362.31 654.41 344.08 C 655.07 339.23 654.41 334.24 655.63 329.48 C 656.26 326.95 658.60 325.36 661.06 324.90 C 677.50 321.17 695.56 322.41 710.49 330.65 C 713.80 332.41 715.23 336.37 714.36 339.94 C 707.87 375.55 706.21 411.90 707.41 448.02 C 707.97 457.75 708.62 467.68 711.88 476.93 C 713.23 479.61 714.93 483.25 718.04 483.91 C 725.29 477.18 731.73 469.52 737.67 461.60 C 749.18 445.10 757.25 426.46 763.65 407.46 C 764.76 404.03 766.23 400.62 766.26 396.96 C 766.75 372.41 768.68 347.89 771.79 323.54 C 773.90 305.86 777.43 288.41 780.38 270.87 C 783.25 254.78 786.13 238.68 789.78 222.75 C 790.62 218.83 794.89 217.51 798.13 216.13 M 885.27 334.23 C 876.53 341.05 870.52 350.56 864.95 359.98 C 854.37 377.69 845.71 396.50 838.55 415.83 C 836.80 419.97 836.66 424.85 838.92 428.83 C 843.80 437.79 849.18 446.51 855.50 454.53 C 864.21 465.32 874.30 475.54 887.12 481.33 C 890.67 476.13 892.11 469.89 893.47 463.84 C 896.44 449.43 897.45 434.70 897.98 420.02 C 898.55 400.12 898.06 380.13 895.40 360.39 C 894.11 352.32 892.87 344.04 889.23 336.63 C 888.49 335.28 887.06 332.55 885.27 334.23 Z" />
<path fill="#000000" opacity="1.00" d=" M 424.55 217.74 C 433.54 216.33 442.80 217.59 451.43 220.31 C 454.33 221.32 457.81 222.77 458.65 226.07 C 459.59 230.92 458.12 235.79 457.39 240.57 C 450.51 281.01 449.54 322.12 448.41 363.03 C 448.23 365.45 448.39 368.12 446.99 370.25 C 444.07 371.29 440.97 370.20 438.08 369.60 C 432.27 367.96 426.06 366.69 421.29 362.76 C 417.73 359.90 415.55 355.57 415.08 351.06 C 412.57 331.87 409.86 312.65 404.86 293.92 C 400.91 276.10 394.97 258.06 382.85 244.02 C 380.22 240.99 377.35 237.27 373.01 237.01 C 368.12 237.29 364.41 240.95 360.70 243.74 C 351.98 250.54 344.98 259.47 340.47 269.56 C 332.23 287.20 326.91 306.04 322.92 325.05 C 319.44 341.12 317.64 357.51 316.75 373.92 C 315.78 393.99 315.24 414.34 319.50 434.10 C 321.71 443.98 324.16 453.96 328.83 463.00 C 333.15 471.05 337.83 479.17 344.78 485.25 C 348.01 488.50 352.05 492.15 357.05 491.08 C 371.18 488.40 383.54 480.39 394.87 471.89 C 404.36 464.40 412.42 455.24 419.52 445.48 C 422.26 441.62 425.49 436.33 431.03 437.15 C 434.63 437.76 439.78 439.54 439.55 444.01 C 439.34 455.04 433.62 464.93 428.15 474.17 C 422.32 483.42 415.17 491.79 407.33 499.39 C 401.85 504.68 394.82 507.83 388.07 511.13 C 384.95 512.72 381.40 513.03 377.96 512.88 C 359.33 511.80 340.65 507.70 324.01 499.06 C 309.33 491.55 296.56 480.49 286.70 467.30 C 272.45 449.05 265.78 425.93 264.41 403.07 C 262.62 365.90 267.06 328.28 278.97 292.96 C 284.06 277.12 291.56 261.96 301.76 248.78 C 309.75 238.44 320.80 230.55 333.13 226.24 C 347.81 221.00 363.81 220.64 379.11 222.82 C 391.34 224.38 402.92 229.89 412.06 238.13 C 412.93 238.96 414.72 240.42 415.58 238.78 C 416.52 233.03 415.57 227.12 416.54 221.39 C 418.11 218.58 421.72 218.31 424.55 217.74 Z" />
<path fill="#000000" opacity="1.00" d=" M 672.56 230.72 C 683.43 229.39 694.60 231.09 704.65 235.41 C 707.29 236.50 710.00 238.80 709.74 241.95 C 709.44 247.99 708.99 254.04 708.01 260.02 C 706.28 272.37 704.74 284.76 702.78 297.08 C 702.30 300.19 700.52 303.30 697.43 304.42 C 688.11 307.98 677.54 307.79 668.10 304.79 C 665.71 304.14 663.82 302.04 663.84 299.51 C 662.91 279.31 662.21 259.10 660.60 238.95 C 659.90 232.31 667.75 231.33 672.56 230.72 Z" />
<path fill="#000000" opacity="1.00" d=" M 505.00 520.60 C 513.04 520.97 521.10 520.62 529.09 519.67 C 532.99 518.89 536.59 523.32 535.13 526.98 C 534.37 529.39 531.65 529.89 529.63 530.80 C 528.99 552.22 526.90 573.59 526.76 595.04 C 526.71 606.24 525.50 617.41 525.90 628.62 C 527.85 629.29 530.34 629.52 531.49 631.51 C 533.53 634.57 531.72 639.23 528.12 640.06 C 523.49 641.19 518.67 640.98 513.96 641.43 C 509.31 641.64 504.67 642.59 500.02 642.14 C 496.05 641.72 493.86 636.88 495.60 633.45 C 496.31 631.55 498.40 630.93 500.01 630.01 C 499.38 616.59 498.65 603.17 498.75 589.74 C 491.47 589.90 484.20 590.03 476.92 590.04 C 477.43 603.37 477.84 616.70 478.42 630.02 C 480.41 630.70 483.01 630.97 483.97 633.17 C 485.74 636.29 483.74 640.83 479.99 641.03 C 469.68 642.20 459.29 642.60 448.94 643.27 C 444.94 643.97 441.57 639.86 442.64 636.07 C 443.04 633.47 445.66 632.48 447.72 631.47 C 444.15 607.14 444.28 582.49 443.79 557.97 C 443.63 550.02 443.84 542.08 443.90 534.13 C 442.15 533.68 440.04 533.73 438.78 532.25 C 436.47 529.62 437.23 524.99 440.40 523.42 C 443.35 521.95 446.74 521.75 449.98 521.57 C 457.33 521.26 464.69 520.95 472.04 520.58 C 474.61 520.50 477.29 520.35 479.73 521.32 C 483.24 522.72 483.69 528.36 480.53 530.38 C 479.28 530.93 477.96 531.28 476.67 531.70 C 477.38 547.57 476.26 563.44 476.71 579.32 C 484.10 579.54 491.50 579.69 498.89 579.98 C 498.88 564.04 498.98 548.10 498.86 532.17 C 496.66 530.67 494.45 528.30 495.45 525.40 C 496.19 520.98 501.38 520.48 505.00 520.60 Z" />
<path fill="#000000" opacity="1.00" d=" M 906.84 527.80 C 914.67 522.91 923.91 520.80 933.00 520.02 C 943.34 519.39 953.00 524.66 959.93 532.00 C 964.90 536.21 968.24 541.85 971.90 547.14 C 979.26 559.11 978.30 575.53 969.62 586.57 C 966.61 590.38 962.05 592.47 958.79 596.02 C 955.57 599.46 951.79 602.46 949.46 606.64 C 944.42 615.37 940.26 624.67 937.65 634.42 C 935.51 640.34 933.46 646.29 931.87 652.38 C 919.89 652.56 908.23 648.66 898.08 642.45 C 901.47 624.65 901.70 606.20 898.25 588.39 C 897.34 583.72 895.22 579.44 893.78 574.94 C 892.43 570.53 889.37 566.71 889.02 561.99 C 887.48 553.85 890.88 545.84 894.82 538.90 C 897.41 533.92 902.23 530.71 906.84 527.80 Z" />
<path fill="#000000" opacity="1.00" d=" M 293.07 527.08 C 297.97 521.26 306.70 519.40 313.68 522.25 C 321.46 525.26 327.05 532.09 330.79 539.32 C 334.99 547.21 337.18 556.65 334.67 565.43 C 331.90 575.88 324.31 583.97 319.29 593.32 C 315.23 601.22 312.08 609.81 311.71 618.77 C 306.51 612.81 299.29 609.12 292.30 605.70 C 281.20 600.29 268.04 599.73 257.98 592.13 C 250.34 586.46 246.64 577.13 244.96 568.06 C 243.80 560.53 244.37 552.24 248.73 545.76 C 252.38 540.15 259.25 536.83 265.93 537.58 C 274.05 538.27 280.91 543.51 286.12 549.45 C 286.08 541.56 287.80 533.21 293.07 527.08 Z" />
<path fill="#000000" opacity="1.00" d=" M 702.98 525.30 C 712.21 523.64 721.63 523.88 730.94 523.01 C 741.24 522.09 751.81 522.03 761.79 525.12 C 768.89 526.99 775.36 532.03 777.77 539.13 C 780.82 547.10 778.49 555.82 775.47 563.43 C 771.99 572.04 765.39 579.04 757.60 583.96 C 760.99 595.06 768.97 604.15 778.28 610.80 C 780.10 611.09 782.28 610.81 783.72 612.22 C 785.74 614.15 785.97 617.80 783.65 619.60 C 776.68 626.12 769.52 632.72 760.90 637.00 C 758.39 638.44 754.75 638.28 753.03 635.72 C 751.90 634.10 752.81 632.18 753.04 630.46 C 744.21 621.07 740.49 608.44 737.01 596.36 C 736.77 606.12 736.73 615.89 736.56 625.65 C 738.66 626.28 741.70 626.41 742.37 629.02 C 743.58 632.03 741.19 635.60 737.91 635.47 C 727.25 635.87 716.58 636.11 705.93 636.84 C 702.32 637.35 699.41 633.34 700.81 630.05 C 701.41 628.07 703.58 627.45 705.16 626.48 C 705.11 596.31 703.04 566.15 704.02 535.98 C 702.52 535.26 700.64 534.98 699.63 533.56 C 697.51 530.62 699.26 525.76 702.98 525.30 M 737.15 532.03 C 737.25 548.18 737.25 564.34 737.43 580.50 C 751.05 578.03 763.11 567.56 767.07 554.24 C 768.48 548.82 769.02 541.79 764.09 537.94 C 756.42 532.19 746.26 532.56 737.15 532.03 Z" />
<path fill="#000000" opacity="1.00" d=" M 651.34 526.59 C 661.10 524.76 671.08 524.79 680.97 524.99 C 683.85 525.17 686.87 525.21 689.55 526.45 C 692.64 527.90 692.84 532.38 690.85 534.82 C 689.24 536.57 686.66 536.23 684.52 536.50 C 683.02 566.48 683.65 596.50 684.49 626.48 C 686.04 626.92 687.74 627.09 689.14 627.96 C 691.96 630.01 691.75 634.98 688.61 636.62 C 685.96 637.89 682.90 637.56 680.06 637.85 C 671.67 638.19 663.37 639.56 655.03 640.37 C 650.26 640.74 647.82 634.09 650.87 630.84 C 652.01 629.79 653.55 629.35 654.92 628.69 C 653.67 598.43 652.73 568.15 651.45 537.88 C 649.98 537.00 647.96 536.57 647.29 534.81 C 645.74 531.59 647.82 527.29 651.34 526.59 Z" />
<path fill="#000000" opacity="1.00" d=" M 573.06 529.38 C 584.30 527.78 595.70 528.41 607.00 527.42 C 610.49 527.41 615.56 526.73 617.30 530.62 C 618.73 533.49 616.79 536.35 614.49 537.99 C 619.35 558.45 623.14 579.17 628.60 599.49 C 631.05 608.70 632.87 618.06 634.61 627.42 C 636.77 627.76 639.20 627.59 641.09 628.90 C 643.99 631.13 643.42 636.59 639.77 637.75 C 633.03 640.01 625.76 638.73 618.82 639.77 C 613.44 640.54 607.29 641.95 602.54 638.48 C 599.09 635.39 601.51 629.81 605.81 629.18 C 603.17 618.94 600.61 608.67 598.16 598.39 C 588.17 598.26 578.18 598.81 568.21 599.27 C 565.44 610.02 562.73 620.79 559.82 631.51 C 563.10 632.06 566.57 632.06 569.67 633.41 C 573.51 635.23 572.36 642.12 567.94 642.15 C 560.77 641.65 553.03 642.12 546.55 638.48 C 543.91 637.08 543.23 633.33 544.87 630.93 C 545.85 629.19 548.03 628.99 549.72 628.31 C 557.80 598.46 567.03 568.92 574.56 538.92 C 573.09 538.28 571.07 538.28 570.21 536.73 C 568.52 534.11 569.74 529.83 573.06 529.38 M 583.43 546.60 C 578.62 560.75 574.92 575.25 570.70 589.58 C 579.00 589.38 587.29 589.04 595.59 588.83 C 591.79 574.68 588.69 560.30 583.43 546.60 Z" />
<path fill="#000000" opacity="1.00" d=" M 351.51 569.51 C 355.16 564.54 360.64 560.32 367.02 560.12 C 372.02 559.81 376.95 562.17 380.15 565.97 C 384.41 570.69 386.00 577.12 386.51 583.31 C 390.39 578.10 395.36 573.22 401.82 571.54 C 407.24 569.89 413.45 571.51 417.36 575.62 C 421.95 580.48 423.84 587.41 423.44 593.99 C 423.02 603.15 420.49 613.07 413.16 619.19 C 405.07 626.32 393.91 627.64 384.66 632.67 C 378.76 635.92 373.04 639.83 368.83 645.18 C 367.84 637.63 364.60 630.60 360.86 624.06 C 356.98 617.17 351.25 611.54 347.52 604.57 C 345.08 600.16 343.96 595.08 343.82 590.08 C 344.53 582.72 347.19 575.51 351.51 569.51 Z" />
<path fill="#000000" opacity="1.00" d=" M 822.24 596.08 C 829.26 594.55 836.24 596.99 842.96 598.76 C 853.81 602.09 864.23 606.66 875.16 609.72 C 881.31 611.89 887.78 613.32 893.61 616.31 C 893.38 625.63 891.21 635.01 889.65 644.26 C 903.00 655.36 920.79 659.79 937.89 659.46 C 940.62 649.03 944.17 638.85 947.12 628.49 C 961.42 631.80 975.56 635.86 990.07 638.18 C 996.62 639.45 1003.40 639.92 1009.64 642.47 C 1017.28 645.24 1025.15 649.60 1028.97 657.12 C 1032.42 664.34 1028.91 672.59 1024.45 678.52 C 1012.92 692.73 995.55 700.76 978.08 704.91 C 969.56 707.28 960.70 707.82 951.92 708.27 C 952.61 725.88 944.70 743.14 932.08 755.19 C 925.34 760.92 916.60 763.42 908.11 765.20 C 893.57 767.68 877.59 764.47 866.51 754.33 C 856.80 745.39 851.16 732.72 848.65 719.93 C 846.31 708.11 848.35 695.67 853.58 684.89 C 847.52 682.18 842.36 677.94 837.26 673.79 C 830.92 668.45 824.48 663.10 819.31 656.57 C 815.66 652.12 812.77 647.13 809.81 642.21 C 803.95 631.97 802.28 618.58 808.09 607.95 C 810.90 602.26 816.27 598.04 822.24 596.08 M 871.28 692.57 C 869.59 702.68 871.04 713.59 876.76 722.26 C 880.52 727.81 885.89 732.55 892.40 734.52 C 902.26 737.84 913.67 735.34 921.45 728.49 C 928.09 723.39 931.58 715.47 933.74 707.61 C 912.33 705.61 891.34 700.24 871.28 692.57 Z" />
<path fill="#000000" opacity="1.00" d=" M 328.36 629.48 C 333.41 627.32 339.37 629.18 343.20 632.85 C 347.94 637.26 350.22 643.66 351.00 649.96 C 352.22 656.36 351.46 663.32 347.87 668.87 C 343.10 676.73 334.58 680.99 328.34 687.47 C 323.93 692.04 319.99 697.25 317.80 703.28 C 313.62 695.22 306.91 688.70 299.56 683.49 C 292.76 678.82 285.03 674.17 281.83 666.14 C 278.85 657.56 279.30 647.64 283.54 639.56 C 286.57 633.68 293.30 629.29 300.06 630.87 C 307.49 632.30 312.34 638.91 315.36 645.37 C 317.59 638.80 321.53 632.02 328.36 629.48 Z" />
<path fill="#000000" opacity="1.00" d=" M 726.30 660.29 C 729.46 656.63 735.50 655.65 739.49 658.52 C 740.90 659.33 742.16 660.75 743.95 660.61 C 760.31 661.01 776.68 660.21 793.04 660.34 C 795.90 660.58 798.33 658.88 801.01 658.21 C 804.10 658.10 806.60 661.00 806.59 664.00 C 806.73 668.67 805.53 673.41 803.50 677.61 C 801.65 680.49 796.91 679.51 795.66 676.55 C 794.95 674.62 794.73 672.57 794.35 670.58 C 790.82 670.62 787.30 670.59 783.78 670.63 C 784.25 678.41 783.44 686.18 783.53 693.96 C 783.54 716.58 782.75 739.20 782.82 761.82 C 784.10 762.24 785.49 762.54 786.71 763.20 C 789.22 765.37 788.44 769.99 785.44 771.33 C 783.43 772.35 781.11 771.86 778.98 771.77 C 771.58 770.96 764.21 772.33 756.90 773.30 C 754.50 773.60 751.81 773.68 749.78 772.19 C 747.85 770.50 747.40 767.15 749.24 765.23 C 750.39 764.18 751.91 763.72 753.29 763.04 C 750.26 741.83 750.92 720.34 751.22 698.99 C 751.27 689.62 751.76 680.27 752.27 670.93 C 749.74 670.96 747.22 671.01 744.70 671.06 C 743.91 676.66 741.53 682.41 736.84 685.83 C 734.54 687.57 730.64 687.55 729.13 684.80 C 727.99 682.89 729.14 680.75 729.50 678.81 C 728.99 677.54 728.49 676.27 728.00 675.01 C 725.74 673.37 723.95 671.15 723.77 668.26 C 722.85 671.70 719.39 672.67 716.23 672.84 C 715.38 703.56 715.94 734.30 715.80 765.02 C 718.03 765.50 720.95 765.39 722.24 767.68 C 724.01 770.36 722.39 774.65 719.06 775.00 C 714.37 775.27 709.65 774.97 704.98 775.57 C 700.03 775.89 694.71 777.30 690.03 774.97 C 685.29 772.62 683.35 767.37 680.99 763.00 C 670.36 741.50 661.39 719.20 654.00 696.38 C 653.08 718.96 651.99 741.53 651.92 764.13 C 654.24 764.45 656.95 764.50 658.63 766.42 C 660.71 768.64 659.80 772.83 656.86 773.82 C 651.78 775.59 646.34 776.71 640.95 776.41 C 637.32 776.37 634.66 772.36 635.88 769.00 C 636.33 767.16 638.15 766.28 639.49 765.16 C 639.11 735.24 641.13 705.37 642.78 675.51 C 640.59 675.05 638.16 675.06 636.28 673.73 C 633.13 671.47 633.70 665.79 637.32 664.30 C 640.34 662.78 643.81 663.31 647.06 663.38 C 656.05 663.74 665.14 662.30 674.06 663.94 C 678.33 664.68 679.77 669.25 681.29 672.70 C 686.73 686.25 690.52 700.40 696.05 713.93 C 698.68 720.61 701.31 727.30 704.18 733.89 C 703.89 713.61 703.69 693.32 704.47 673.04 C 702.21 672.72 699.57 672.96 697.79 671.27 C 695.09 668.62 696.26 663.27 700.07 662.40 C 706.25 660.85 712.78 661.25 719.05 662.00 C 721.56 662.16 723.08 664.25 723.79 666.47 C 724.27 664.30 724.76 661.99 726.30 660.29 Z" />
<path fill="#000000" opacity="1.00" d=" M 484.82 665.82 C 498.55 664.26 513.39 666.06 524.88 674.27 C 533.43 680.29 538.41 690.06 541.09 699.94 C 545.78 716.37 542.12 734.27 533.90 748.96 C 527.77 759.69 519.04 769.44 507.70 774.75 C 495.42 779.79 481.74 779.34 468.76 778.25 C 465.33 778.19 463.08 774.42 464.47 771.34 C 465.59 768.12 469.46 768.07 472.26 767.59 C 471.18 745.38 470.46 723.15 469.50 700.93 C 469.26 693.46 469.16 685.98 469.29 678.50 C 466.51 678.37 463.23 679.05 460.92 677.10 C 458.33 674.66 459.73 670.04 463.03 669.07 C 469.98 666.48 477.55 666.77 484.82 665.82 M 503.84 677.00 C 502.79 694.65 502.38 712.33 501.55 729.99 C 501.30 741.79 502.21 753.59 501.69 765.39 C 519.54 756.91 531.34 737.67 531.86 718.04 C 532.15 707.92 529.81 697.40 523.84 689.08 C 519.15 682.52 511.60 678.63 503.84 677.00 Z" />
<path fill="#000000" opacity="1.00" d=" M 585.55 665.71 C 596.13 663.80 607.47 667.32 615.18 674.80 C 621.21 680.54 624.64 688.45 626.39 696.48 C 628.84 705.78 628.29 715.50 627.71 725.00 C 626.77 738.41 622.37 751.68 614.36 762.54 C 608.89 769.76 601.13 775.85 591.96 777.22 C 582.17 778.74 572.26 774.45 565.14 767.88 C 557.84 761.04 554.71 751.15 552.19 741.76 C 547.13 722.27 550.38 701.23 559.28 683.36 C 562.80 677.19 567.26 671.08 573.70 667.73 C 577.34 665.75 581.56 666.01 585.55 665.71 M 593.86 681.85 C 588.31 688.58 585.96 697.35 585.42 705.92 C 584.44 721.44 583.67 737.66 589.52 752.40 C 591.33 757.04 594.81 760.81 598.96 763.49 C 609.15 754.10 614.32 740.46 616.05 726.97 C 617.24 717.01 618.10 706.68 615.02 696.96 C 613.23 690.09 609.30 683.60 603.28 679.67 C 600.26 677.38 595.99 679.20 593.86 681.85 Z" />
<path fill="#000000" opacity="1.00" d=" M 397.79 710.75 C 407.21 708.59 417.37 709.26 426.44 712.57 C 431.88 714.57 431.69 721.18 431.34 725.96 C 427.49 772.25 430.41 818.71 433.04 864.98 C 432.95 867.36 433.55 870.17 431.94 872.19 C 428.55 873.23 424.99 872.12 421.61 871.56 C 415.39 870.28 408.61 868.75 404.32 863.66 C 400.59 859.65 399.76 854.07 398.73 848.93 C 394.92 830.14 390.68 811.41 384.65 793.20 C 379.63 776.19 373.22 759.08 361.61 745.38 C 358.81 742.22 356.15 738.69 352.36 736.67 C 349.34 735.01 345.84 736.54 343.44 738.58 C 333.74 746.97 325.87 757.65 321.61 769.82 C 314.47 790.17 310.71 811.53 308.41 832.92 C 305.58 857.82 306.07 882.97 307.84 907.92 C 309.27 930.81 313.90 953.70 323.22 974.73 C 328.81 985.58 335.37 996.37 345.02 1004.10 C 347.91 1006.84 351.83 1009.39 355.99 1008.07 C 367.34 1004.77 376.91 997.39 385.58 989.60 C 397.86 978.81 406.89 964.90 414.49 950.56 C 416.14 947.37 419.01 943.95 423.00 944.42 C 426.19 944.85 430.24 946.00 431.36 949.43 C 432.08 953.93 431.58 958.57 430.74 963.04 C 426.40 981.22 417.16 997.94 405.66 1012.56 C 400.79 1018.86 393.96 1023.13 387.33 1027.33 C 384.86 1028.89 381.95 1029.63 379.05 1029.73 C 358.99 1030.34 338.48 1026.80 320.60 1017.40 C 295.12 1003.99 275.49 980.24 266.17 953.08 C 260.54 937.34 258.07 920.69 256.88 904.08 C 254.67 876.42 255.47 848.48 259.78 821.05 C 262.34 805.22 265.53 789.37 271.48 774.42 C 277.28 759.84 284.79 745.20 297.36 735.31 C 312.51 722.95 332.79 718.69 351.98 720.02 C 363.64 720.40 375.09 724.60 384.28 731.78 C 386.10 733.24 387.97 734.70 390.26 735.36 C 390.80 728.88 389.48 722.44 389.68 715.98 C 390.49 712.37 394.78 711.67 397.79 710.75 Z" />
<path fill="#000000" opacity="1.00" d=" M 876.62 790.57 C 889.02 783.78 904.15 782.32 917.71 786.16 C 926.02 788.75 934.44 793.38 938.64 801.35 C 942.44 808.23 942.21 816.35 942.54 823.97 C 943.17 847.36 937.35 870.98 925.04 890.96 C 919.18 901.11 910.81 910.53 899.44 914.45 C 896.07 915.78 891.56 916.96 890.67 921.04 C 890.11 924.79 891.99 928.37 892.99 931.92 C 896.77 943.18 902.11 954.09 909.75 963.25 C 911.68 965.71 915.10 964.86 917.43 963.48 C 927.61 957.70 935.74 948.85 942.14 939.15 C 953.01 923.28 959.41 904.98 966.23 887.14 C 970.41 875.60 974.03 863.87 977.41 852.07 C 977.94 850.26 978.76 848.05 980.93 847.76 C 984.34 847.43 988.03 848.11 990.91 850.06 C 992.80 851.35 992.80 853.83 992.51 855.88 C 988.16 878.83 981.78 901.54 971.71 922.70 C 965.00 936.61 957.68 950.56 946.96 961.86 C 931.95 976.98 908.03 981.80 888.11 974.55 C 872.72 969.22 861.03 956.63 853.19 942.74 C 846.37 930.79 843.32 917.24 840.65 903.88 C 840.07 901.27 840.16 898.33 838.29 896.23 C 831.45 902.99 822.76 908.38 812.96 909.05 C 802.31 909.81 791.25 908.13 781.64 903.36 C 774.74 899.88 769.13 893.88 766.35 886.66 C 760.34 871.43 759.48 854.89 757.01 838.89 C 754.13 838.83 753.04 841.76 751.73 843.78 C 748.71 848.75 747.88 854.58 746.19 860.05 C 734.73 899.60 724.88 939.89 721.70 981.06 C 721.53 986.06 717.80 990.32 713.26 992.07 C 701.26 996.96 684.52 991.87 680.13 978.94 C 675.92 965.58 673.13 951.78 671.50 937.87 C 671.14 936.19 671.35 933.64 669.00 933.64 C 665.36 941.89 662.58 950.53 658.64 958.67 C 654.39 967.40 650.70 976.82 643.54 983.65 C 637.67 988.77 629.53 990.00 622.01 990.32 C 600.14 991.09 578.15 975.65 573.19 954.02 C 572.43 951.08 571.25 948.16 569.12 945.94 C 568.49 944.87 566.52 945.05 566.41 946.42 C 564.64 951.91 562.77 957.38 561.25 962.96 C 558.81 972.13 554.43 980.63 550.10 989.03 C 546.20 996.70 538.16 1001.36 529.95 1003.07 C 512.33 1006.77 491.97 1003.33 479.34 989.65 C 468.89 978.09 464.60 962.43 461.75 947.47 C 457.11 913.37 458.99 877.25 473.84 845.72 C 478.42 836.61 483.26 827.09 491.49 820.71 C 503.67 811.18 519.68 807.40 534.94 808.56 C 544.91 809.34 555.12 812.47 562.58 819.38 C 564.19 820.92 566.18 821.95 568.20 822.87 C 577.91 808.38 600.04 804.64 613.97 815.05 C 619.69 819.25 617.75 826.92 618.03 832.99 C 618.30 849.38 616.07 865.66 615.99 882.05 C 615.66 903.78 617.40 925.52 621.00 946.95 C 621.96 952.42 622.47 958.42 626.13 962.90 C 629.35 962.92 631.73 960.01 633.82 957.87 C 644.04 944.99 651.37 930.00 656.54 914.45 C 660.44 902.86 662.59 890.80 664.94 878.84 C 665.45 875.20 664.47 871.58 664.06 868.00 C 661.06 849.45 661.72 830.57 662.71 811.88 C 662.90 807.50 665.18 803.06 669.43 801.39 C 678.49 797.52 688.75 797.01 698.43 798.30 C 703.86 799.29 709.59 800.51 714.03 804.00 C 716.45 805.94 715.86 809.32 715.47 812.01 C 712.25 830.18 713.11 848.78 714.92 867.06 C 715.73 875.45 715.81 883.92 716.75 892.30 C 717.09 892.69 717.75 893.48 718.08 893.88 C 721.32 890.64 721.63 885.69 722.77 881.48 C 724.87 868.53 727.33 855.61 731.16 843.04 C 733.85 833.50 737.67 824.36 740.94 815.02 C 744.36 806.86 751.77 799.94 760.88 799.18 C 771.11 798.41 782.38 798.94 791.01 805.14 C 796.95 809.36 799.85 816.37 802.13 823.04 C 805.73 833.34 805.79 844.38 806.88 855.12 C 807.60 864.43 808.13 873.75 808.63 883.08 C 808.94 887.76 809.93 892.66 812.92 896.41 C 814.44 896.87 815.76 895.64 817.09 895.09 C 826.30 889.80 834.38 882.04 839.20 872.53 C 840.47 851.28 844.34 829.31 856.26 811.22 C 861.70 803.21 867.94 795.24 876.62 790.57 M 894.40 823.38 C 888.83 837.57 885.74 852.72 885.05 867.93 C 884.75 877.38 885.26 887.18 889.03 895.99 C 889.41 897.34 891.26 899.49 892.38 897.45 C 896.82 890.31 900.66 882.78 904.16 875.14 C 912.21 857.45 916.95 837.50 913.26 818.11 C 912.02 812.61 911.20 806.77 908.10 801.94 C 901.52 807.54 897.68 815.56 894.40 823.38 M 530.43 826.48 C 527.14 827.98 524.64 830.83 522.98 833.99 C 518.48 842.33 515.65 851.51 514.33 860.88 C 511.47 880.08 508.39 899.46 509.66 918.93 C 510.67 937.55 514.61 956.05 521.68 973.32 C 522.35 974.38 522.45 976.29 524.07 976.37 C 526.92 975.38 529.00 972.94 530.25 970.27 C 539.16 951.42 543.87 931.00 549.20 910.94 C 552.05 899.77 556.37 888.73 556.05 877.02 C 556.08 867.54 552.52 858.62 548.99 849.99 C 545.46 841.54 540.40 833.55 533.35 827.60 C 532.51 827.07 531.50 825.79 530.43 826.48 Z" />
</g>
</svg>
