<?xml version="1.0" encoding="UTF-8" ?>
<!DOCTYPE svg PUBLIC "-//W3C//DTD SVG 1.1//EN" "http://www.w3.org/Graphics/SVG/1.1/DTD/svg11.dtd">
<svg width="1200pt" height="1200pt" viewBox="0 0 1200 1200" version="1.1" xmlns="http://www.w3.org/2000/svg">
<g id="#000000ff">
<path fill="#000000" opacity="1.00" d=" M 262.84 305.61 C 276.87 305.59 290.91 305.60 304.94 305.60 C 316.16 305.64 327.59 306.72 338.12 310.83 C 352.65 316.50 364.15 329.18 368.62 344.10 C 371.28 353.03 371.83 362.53 370.69 371.76 C 368.33 389.97 356.41 407.04 339.44 414.45 C 328.98 419.20 317.31 420.14 305.97 420.38 C 291.59 420.43 277.21 420.39 262.84 420.39 C 262.83 382.13 262.83 343.87 262.84 305.61 M 292.42 327.22 C 292.42 351.08 292.42 374.93 292.42 398.79 C 299.63 398.75 306.88 399.04 314.03 398.05 C 324.34 396.59 334.09 389.78 337.82 379.87 C 341.14 371.06 341.37 361.23 339.54 352.06 C 337.87 343.66 332.65 335.98 325.05 331.90 C 315.21 326.09 303.36 327.40 292.42 327.22 Z" />
<path fill="#000000" opacity="1.00" d=" M 392.68 305.60 C 415.08 305.60 437.48 305.59 459.88 305.61 C 459.87 312.41 459.88 319.20 459.87 326.00 C 453.61 326.02 447.34 326.00 441.07 326.01 C 441.07 350.68 441.07 375.34 441.07 400.00 C 447.34 400.01 453.61 399.99 459.88 400.00 C 459.87 406.80 459.87 413.60 459.87 420.39 C 437.48 420.40 415.08 420.40 392.68 420.39 C 392.67 413.60 392.67 406.80 392.68 400.00 C 398.94 399.99 405.21 400.00 411.47 400.00 C 411.47 375.34 411.48 350.67 411.47 326.01 C 405.20 326.01 398.94 326.02 392.68 326.01 C 392.67 319.20 392.67 312.40 392.68 305.60 Z" />
<path fill="#000000" opacity="1.00" d=" M 517.32 305.67 C 528.70 305.50 540.08 305.67 551.46 305.58 C 565.66 343.83 579.76 382.12 593.89 420.40 C 583.67 420.39 573.46 420.43 563.25 420.38 C 560.59 412.58 557.90 404.79 555.19 397.00 C 541.10 397.02 527.02 397.00 512.93 397.01 C 510.23 404.80 507.55 412.60 504.87 420.39 C 494.92 420.41 484.97 420.39 475.02 420.40 C 489.08 382.14 503.34 343.96 517.32 305.67 M 531.27 343.25 C 527.51 354.23 523.72 365.21 519.96 376.19 C 529.36 376.20 538.76 376.20 548.17 376.19 C 543.53 362.68 538.94 349.15 534.22 335.67 C 532.95 338.07 532.09 340.66 531.27 343.25 Z" />
<path fill="#000000" opacity="1.00" d=" M 614.17 305.68 C 630.44 305.50 646.71 305.65 662.98 305.60 C 673.71 305.56 684.94 306.94 694.18 312.82 C 701.35 317.22 706.56 324.67 708.10 332.96 C 710.34 344.55 708.13 357.36 700.78 366.78 C 693.61 375.30 683.19 381.10 672.10 382.39 C 662.72 383.51 653.26 382.82 643.84 383.02 C 643.84 395.47 643.84 407.93 643.84 420.39 C 633.97 420.41 624.10 420.41 614.23 420.39 C 614.20 382.15 614.32 343.91 614.17 305.68 M 643.84 327.21 C 643.83 338.61 643.84 350.00 643.84 361.39 C 648.88 361.38 653.92 361.51 658.96 361.18 C 664.90 360.88 671.62 359.49 675.26 354.29 C 680.10 347.04 679.74 335.20 671.58 330.42 C 663.10 325.78 653.08 327.64 643.84 327.21 Z" />
<path fill="#000000" opacity="1.00" d=" M 733.84 305.61 C 761.50 305.60 789.16 305.59 816.83 305.61 C 816.82 313.01 816.82 320.41 816.82 327.81 C 798.96 327.85 781.10 327.74 763.25 327.87 C 763.30 334.44 763.25 341.02 763.28 347.60 C 779.84 347.60 796.41 347.60 812.97 347.60 C 812.97 355.01 812.98 362.41 812.97 369.82 C 796.40 369.82 779.84 369.80 763.27 369.83 C 763.27 379.28 763.28 388.73 763.27 398.18 C 781.12 398.22 798.97 398.19 816.82 398.20 C 816.83 405.60 816.81 412.99 816.83 420.39 C 789.17 420.41 761.50 420.40 733.84 420.39 C 733.83 382.13 733.83 343.87 733.84 305.61 Z" />
<path fill="#000000" opacity="1.00" d=" M 845.44 420.41 C 845.41 382.14 845.42 343.87 845.44 305.60 C 860.94 305.60 876.46 305.60 891.97 305.60 C 902.87 305.71 914.47 305.37 924.36 310.68 C 931.97 314.58 938.32 321.66 939.77 330.27 C 941.04 338.20 940.41 346.67 936.89 353.97 C 932.89 361.90 925.45 367.41 917.69 371.33 C 930.41 387.70 943.20 404.02 955.92 420.39 C 943.88 420.41 931.83 420.38 919.79 420.41 C 909.35 406.44 898.99 392.41 888.58 378.41 C 884.04 378.41 879.51 378.44 874.98 378.36 C 874.73 392.37 874.94 406.38 874.87 420.40 C 865.06 420.41 855.25 420.39 845.44 420.41 M 874.88 326.82 C 874.95 337.10 874.70 347.39 875.01 357.66 C 880.66 357.50 886.31 357.76 891.95 357.32 C 897.23 357.11 902.88 355.66 906.37 351.40 C 912.11 344.67 911.03 331.33 901.60 328.45 C 892.98 325.76 883.76 327.19 874.88 326.82 Z" />
<path fill="#000000" opacity="1.00" d=" M 930.92 490.85 C 944.81 479.26 963.81 476.48 981.35 477.60 C 994.34 478.13 1007.02 481.75 1018.65 487.50 C 1018.65 496.55 1018.73 505.59 1018.60 514.63 C 1014.69 514.91 1012.04 511.85 1009.04 509.91 C 1000.85 504.02 991.25 499.73 981.09 499.11 C 971.96 498.49 962.32 500.35 954.96 506.04 C 946.81 512.06 942.55 522.15 941.87 532.06 C 941.25 541.08 942.18 550.54 946.51 558.63 C 949.89 564.98 955.65 569.97 962.36 572.56 C 970.78 575.95 980.03 576.06 988.96 575.57 C 989.17 567.99 989.02 560.40 989.06 552.82 C 981.43 552.80 973.80 552.81 966.18 552.81 C 966.17 545.61 966.17 538.40 966.18 531.20 C 983.82 531.20 1001.47 531.20 1019.12 531.20 C 1019.13 550.15 1019.12 569.11 1019.13 588.06 C 1003.73 593.53 987.49 597.41 971.05 596.98 C 954.51 596.81 937.15 591.70 925.68 579.22 C 913.75 566.78 910.00 548.70 911.08 531.96 C 911.78 516.33 918.64 500.79 930.92 490.85 Z" />
<path fill="#000000" opacity="1.00" d=" M 328.45 478.66 C 345.50 475.84 364.32 477.28 378.96 487.22 C 391.44 495.60 399.25 509.75 401.29 524.49 C 403.83 542.48 401.60 562.42 389.88 577.01 C 381.08 588.37 367.21 594.96 353.08 596.43 C 335.73 598.39 316.60 595.76 302.99 583.99 C 291.00 573.94 284.86 558.37 284.11 542.99 C 283.00 526.36 286.31 508.42 297.67 495.61 C 305.47 486.49 316.70 480.72 328.45 478.66 M 336.53 499.74 C 328.83 501.39 322.37 507.11 319.19 514.23 C 314.33 524.76 313.94 536.80 315.48 548.13 C 316.86 556.36 320.23 564.80 326.95 570.11 C 335.11 576.40 347.02 577.06 356.02 572.18 C 362.51 568.61 366.79 562.00 369.02 555.09 C 371.45 547.37 371.76 539.14 371.23 531.12 C 370.56 522.22 367.86 513.01 361.57 506.43 C 355.28 499.78 345.25 497.74 336.53 499.74 Z" />
<path fill="#000000" opacity="1.00" d=" M 186.24 479.81 C 196.10 479.79 205.97 479.80 215.84 479.81 C 215.84 510.67 215.83 541.53 215.84 572.39 C 233.55 572.40 251.26 572.42 268.97 572.38 C 269.02 579.80 269.01 587.21 268.98 594.63 C 241.40 594.60 213.82 594.60 186.24 594.60 C 186.23 556.34 186.24 518.07 186.24 479.81 Z" />
<path fill="#000000" opacity="1.00" d=" M 458.20 479.81 C 469.55 479.77 480.90 479.83 492.26 479.78 C 506.47 518.03 520.54 556.33 534.70 594.59 C 524.51 594.62 514.32 594.56 504.13 594.62 C 501.33 586.85 498.73 579.01 496.00 571.21 C 481.91 571.21 467.82 571.21 453.74 571.21 C 451.03 579.00 448.36 586.81 445.66 594.61 C 435.72 594.61 425.77 594.61 415.83 594.61 C 429.91 556.32 444.09 518.08 458.20 479.81 M 474.82 509.63 C 470.03 523.18 465.45 536.80 460.77 550.39 C 470.17 550.41 479.57 550.39 488.97 550.40 C 484.23 536.82 479.82 523.12 474.82 509.63 Z" />
<path fill="#000000" opacity="1.00" d=" M 555.24 479.81 C 570.49 479.82 585.74 479.73 600.99 479.85 C 615.87 480.21 631.66 482.90 643.52 492.57 C 656.69 502.78 663.75 519.48 663.64 535.96 C 664.35 553.42 656.58 571.01 642.92 581.96 C 631.41 591.33 616.19 594.16 601.71 594.50 C 586.22 594.72 570.73 594.54 555.24 594.60 C 555.23 556.34 555.24 518.07 555.24 479.81 M 584.89 501.38 C 584.74 525.25 584.86 549.12 584.83 572.99 C 592.04 572.95 599.29 573.22 606.46 572.25 C 616.74 570.77 626.44 564.00 630.20 554.14 C 633.57 545.21 633.79 535.24 631.87 525.96 C 630.13 517.52 624.75 509.87 617.04 505.87 C 607.28 500.29 595.66 501.65 584.89 501.38 Z" />
<path fill="#000000" opacity="1.00" d=" M 684.88 479.81 C 707.28 479.79 729.67 479.80 752.07 479.80 C 752.08 486.60 752.08 493.40 752.07 500.21 C 745.80 500.22 739.54 500.20 733.27 500.22 C 733.27 524.87 733.28 549.53 733.27 574.18 C 739.53 574.22 745.80 574.19 752.07 574.20 C 752.04 581.01 752.17 587.83 751.98 594.64 C 729.64 594.57 707.29 594.58 684.95 594.63 C 684.79 587.82 684.90 581.01 684.88 574.20 C 691.14 574.18 697.41 574.23 703.68 574.17 C 703.67 549.52 703.68 524.87 703.67 500.22 C 697.41 500.20 691.14 500.22 684.88 500.21 C 684.87 493.40 684.87 486.60 684.88 479.81 Z" />
<path fill="#000000" opacity="1.00" d=" M 780.04 479.80 C 791.78 479.75 803.52 479.89 815.25 479.73 C 829.42 501.43 842.99 523.53 857.16 545.23 C 857.33 523.42 857.19 501.61 857.24 479.81 C 866.28 479.79 875.32 479.80 884.37 479.81 C 884.39 518.06 884.37 556.32 884.38 594.58 C 874.84 594.59 865.31 594.64 855.78 594.56 C 839.63 568.29 823.38 542.09 807.18 515.86 C 807.21 542.08 807.10 568.29 807.23 594.51 C 798.17 594.72 789.11 594.53 780.05 594.61 C 780.02 556.34 780.04 518.07 780.04 479.80 Z" />
<path fill="#000000" opacity="1.00" d=" M 181.01 647.20 C 462.74 647.20 744.46 647.20 1026.19 647.20 C 1026.21 699.26 1026.20 751.33 1026.20 803.39 C 744.46 803.41 462.73 803.40 181.00 803.40 C 181.00 751.33 180.99 699.26 181.01 647.20 M 204.00 666.00 C 204.00 705.60 203.99 745.20 204.01 784.80 C 391.94 784.79 579.87 784.81 767.80 784.80 C 767.80 745.20 767.79 705.60 767.80 666.01 C 579.87 665.99 391.94 666.00 204.00 666.00 Z" />
<path fill="#000000" opacity="1.00" d=" M 832.88 847.00 C 841.09 846.99 849.30 847.00 857.51 847.00 C 857.52 853.53 857.50 860.06 857.52 866.60 C 849.32 866.64 841.13 866.57 832.94 866.64 C 832.80 860.09 832.90 853.55 832.88 847.00 Z" />
<path fill="#000000" opacity="1.00" d=" M 181.93 849.80 C 194.94 849.82 207.95 849.74 220.97 849.84 C 229.78 850.04 239.48 851.38 245.97 857.97 C 256.96 868.37 256.09 888.65 243.48 897.41 C 233.38 905.12 220.06 903.18 208.19 903.41 C 208.18 913.60 208.20 923.80 208.19 934.00 C 199.43 934.00 190.68 934.00 181.93 934.00 C 181.92 905.93 181.92 877.87 181.93 849.80 M 207.83 869.02 C 207.82 874.47 207.82 879.93 207.83 885.39 C 212.96 885.20 218.34 886.08 223.27 884.26 C 229.12 882.20 229.56 872.48 223.74 870.13 C 218.69 868.18 213.11 869.28 207.83 869.02 Z" />
<path fill="#000000" opacity="1.00" d=" M 265.46 933.97 C 265.52 905.91 265.42 877.85 265.51 849.79 C 273.59 849.82 281.67 849.77 289.75 849.82 C 289.75 877.88 289.74 905.93 289.76 933.99 C 281.66 933.99 273.55 934.03 265.46 933.97 Z" />
<path fill="#000000" opacity="1.00" d=" M 636.86 849.81 C 644.97 849.79 653.07 849.80 661.19 849.80 C 664.36 862.73 667.48 875.67 670.64 888.60 C 671.31 891.56 671.95 894.54 673.08 897.38 C 677.16 881.55 680.52 865.55 684.62 849.73 C 691.35 849.89 698.08 849.74 704.81 849.82 C 708.95 865.97 713.08 882.12 717.29 898.25 C 721.23 882.11 725.14 865.95 729.08 849.81 C 735.67 849.79 742.27 849.80 748.88 849.80 C 741.49 877.86 733.94 905.88 726.59 933.95 C 719.32 934.05 712.06 933.98 704.80 933.99 C 700.86 918.64 697.07 903.24 693.04 887.91 C 689.16 903.23 685.65 918.64 681.91 934.00 C 674.35 933.99 666.79 934.02 659.24 933.99 C 651.79 905.93 644.29 877.88 636.86 849.81 Z" />
<path fill="#000000" opacity="1.00" d=" M 876.31 850.79 C 884.10 850.61 891.90 850.55 899.70 850.38 C 899.76 857.31 899.70 864.25 899.73 871.19 C 903.89 871.20 908.06 871.20 912.23 871.19 C 912.27 876.53 912.25 881.86 912.25 887.21 C 908.07 887.21 903.90 887.21 899.73 887.21 C 899.73 894.80 899.71 902.38 899.72 909.97 C 899.87 911.91 899.60 914.38 901.29 915.77 C 904.66 917.68 908.67 916.40 912.25 915.88 C 912.25 921.73 912.24 927.57 912.26 933.42 C 905.60 934.59 898.77 935.29 892.04 934.43 C 887.44 933.79 882.63 932.08 879.70 928.29 C 876.56 924.24 875.87 918.92 875.89 913.95 C 875.97 905.04 875.95 896.12 875.94 887.21 C 872.81 887.21 869.69 887.21 866.57 887.21 C 866.56 881.86 866.53 876.52 866.59 871.18 C 869.70 871.20 872.82 871.20 875.94 871.20 C 876.06 864.39 876.19 857.59 876.31 850.79 Z" />
<path fill="#000000" opacity="1.00" d=" M 312.75 878.77 C 321.16 870.52 333.96 868.65 345.16 870.79 C 353.90 872.44 361.90 877.94 366.20 885.77 C 369.90 892.32 370.62 900.02 370.36 907.40 C 356.31 907.43 342.25 907.38 328.20 907.43 C 328.60 910.88 328.67 915.01 331.61 917.40 C 334.72 919.39 338.85 919.39 342.28 918.25 C 345.32 917.23 346.61 914.09 347.64 911.34 C 355.22 912.01 362.82 912.37 370.42 912.96 C 368.01 922.92 359.77 931.01 349.93 933.62 C 342.12 935.67 333.75 935.78 325.92 933.82 C 316.46 931.46 308.29 924.41 304.70 915.33 C 300.00 902.99 302.95 887.83 312.75 878.77 M 331.40 886.26 C 328.72 888.30 328.46 891.88 328.06 894.95 C 334.00 895.03 339.95 895.02 345.89 894.96 C 345.46 891.93 345.44 888.23 342.65 886.30 C 339.41 884.07 334.62 883.93 331.40 886.26 Z" />
<path fill="#000000" opacity="1.00" d=" M 396.00 872.96 C 406.36 869.12 417.93 869.26 428.62 871.62 C 436.03 873.20 443.50 878.86 443.98 886.94 C 444.99 899.56 444.09 912.25 444.54 924.90 C 444.70 927.99 445.41 931.03 446.24 934.02 C 438.43 934.01 430.63 934.01 422.82 934.01 C 422.38 931.12 422.09 928.21 421.98 925.30 C 418.36 930.61 412.50 934.27 406.08 934.93 C 398.50 935.81 389.64 934.80 384.37 928.67 C 379.24 923.16 378.19 914.39 381.83 907.81 C 384.63 902.74 389.71 899.29 395.10 897.42 C 403.37 894.54 412.18 893.73 420.88 893.18 C 420.58 890.79 421.00 887.71 418.69 886.21 C 413.39 883.44 404.85 885.04 403.63 891.79 C 396.20 891.12 388.76 890.47 381.33 889.79 C 383.13 882.20 388.62 875.65 396.00 872.96 M 407.31 909.24 C 404.52 911.73 403.93 917.30 407.47 919.40 C 411.22 921.06 416.27 920.16 418.88 916.89 C 421.15 913.21 420.68 908.68 420.80 904.56 C 416.11 905.27 410.96 905.89 407.31 909.24 Z" />
<path fill="#000000" opacity="1.00" d=" M 473.77 871.85 C 482.33 869.29 491.69 869.36 500.26 871.84 C 507.39 873.88 513.34 879.32 515.93 886.29 C 509.82 887.45 503.69 888.54 497.60 889.80 C 495.72 887.29 493.21 885.06 489.96 884.72 C 486.17 884.22 481.39 883.84 478.59 886.98 C 477.89 889.07 480.24 890.55 482.01 890.85 C 489.70 892.19 497.62 892.40 505.14 894.65 C 511.95 896.77 517.67 902.87 518.44 910.10 C 519.26 916.14 517.35 922.65 512.81 926.84 C 506.48 932.87 497.45 934.84 488.97 935.15 C 480.31 935.45 471.01 934.45 463.79 929.25 C 459.33 926.13 456.44 921.32 454.64 916.28 C 461.06 915.37 467.48 914.48 473.91 913.65 C 476.07 919.27 482.61 920.39 487.93 920.20 C 490.88 919.98 494.63 920.24 496.67 917.68 C 497.90 915.20 495.01 913.64 492.98 913.37 C 483.72 911.52 473.82 911.27 465.41 906.53 C 458.24 901.90 455.86 891.80 459.09 884.10 C 461.66 877.94 467.60 873.86 473.77 871.85 Z" />
<path fill="#000000" opacity="1.00" d=" M 537.50 878.63 C 545.50 870.87 557.44 868.87 568.13 870.50 C 577.82 871.84 586.88 877.86 591.28 886.68 C 594.59 893.04 595.19 900.35 594.96 907.40 C 580.95 907.38 566.94 907.48 552.94 907.35 C 553.09 911.08 553.34 915.90 557.06 917.92 C 560.40 919.40 564.55 919.44 567.84 917.79 C 570.33 916.57 571.19 913.80 572.15 911.43 C 579.77 911.90 587.39 912.42 595.02 912.96 C 592.61 922.94 584.34 931.05 574.46 933.64 C 566.82 935.64 558.64 935.75 550.96 933.94 C 541.42 931.68 533.13 924.71 529.41 915.62 C 524.51 903.17 527.51 887.75 537.50 878.63 M 556.13 886.15 C 553.34 888.16 553.04 891.85 552.70 894.99 C 558.62 895.00 564.55 895.01 570.47 894.98 C 570.04 892.04 570.09 888.50 567.51 886.50 C 564.31 884.08 559.45 883.89 556.13 886.15 Z" />
<path fill="#000000" opacity="1.00" d=" M 765.41 874.48 C 774.44 869.68 785.12 869.48 795.07 870.49 C 801.72 871.30 808.87 873.21 813.24 878.68 C 816.75 882.55 816.79 888.06 816.98 892.98 C 817.13 902.99 816.96 913.00 817.06 923.01 C 817.08 926.74 817.79 930.44 818.85 934.01 C 811.00 933.95 803.14 934.15 795.30 933.89 C 794.98 931.06 794.71 928.22 794.58 925.38 C 790.95 930.47 785.37 934.15 779.10 934.87 C 771.48 935.84 762.54 934.94 757.14 928.85 C 752.17 923.65 750.87 915.45 753.87 908.94 C 756.42 903.36 761.76 899.53 767.42 897.52 C 775.79 894.54 784.72 893.75 793.52 893.16 C 793.17 890.71 793.57 887.39 791.00 886.04 C 785.68 883.55 777.44 885.14 776.25 891.78 C 768.80 891.11 761.35 890.49 753.91 889.77 C 755.59 883.44 759.48 877.55 765.41 874.48 M 779.57 909.58 C 777.01 912.20 776.68 917.71 780.33 919.53 C 784.13 921.01 789.21 920.08 791.65 916.62 C 793.71 912.97 793.28 908.57 793.41 904.55 C 788.59 905.31 783.18 905.93 779.57 909.58 Z" />
<path fill="#000000" opacity="1.00" d=" M 832.88 871.20 C 841.09 871.20 849.30 871.19 857.52 871.21 C 857.52 892.13 857.49 913.05 857.53 933.97 C 849.31 934.05 841.09 934.00 832.88 934.00 C 832.87 913.07 832.87 892.14 832.88 871.20 Z" />
<path fill="#000000" opacity="1.00" d=" M 923.27 911.48 C 930.95 911.26 938.65 911.45 946.35 911.43 C 946.32 918.95 946.34 926.48 946.33 934.01 C 938.51 934.01 930.69 934.02 922.88 934.00 C 923.14 926.53 922.32 918.74 923.27 911.48 Z" />
<path fill="#000000" opacity="1.00" d=" M 960.66 911.43 C 968.50 911.41 976.35 911.30 984.19 911.49 C 984.07 918.99 984.16 926.49 984.13 934.00 C 976.31 934.00 968.49 934.00 960.68 934.00 C 960.66 926.47 960.69 918.95 960.66 911.43 Z" />
<path fill="#000000" opacity="1.00" d=" M 998.66 911.43 C 1006.45 911.33 1014.24 911.48 1022.03 911.35 C 1022.26 918.89 1022.08 926.44 1022.13 934.00 C 1014.31 934.00 1006.49 934.00 998.68 934.00 C 998.66 926.47 998.69 918.95 998.66 911.43 Z" />
</g>
</svg>
