<?xml version="1.0" encoding="UTF-8" ?>
<!DOCTYPE svg PUBLIC "-//W3C//DTD SVG 1.1//EN" "http://www.w3.org/Graphics/SVG/1.1/DTD/svg11.dtd">
<svg width="1250pt" height="1250pt" viewBox="0 0 1250 1250" version="1.1" xmlns="http://www.w3.org/2000/svg">
<g id="#000000ff">
<path fill="#000000" opacity="1.00" d=" M 581.90 198.88 C 590.14 196.36 600.18 199.93 604.43 207.57 C 622.81 239.73 638.51 273.39 651.79 307.96 C 653.22 276.31 655.79 244.72 657.75 213.10 C 657.96 209.23 658.21 204.96 661.02 201.97 C 666.59 195.67 678.26 195.83 683.09 202.95 C 686.03 207.42 684.38 212.98 684.17 217.94 C 680.53 264.02 675.47 309.96 671.98 356.05 C 671.59 365.48 674.22 375.43 670.25 384.42 C 666.38 391.97 654.32 392.18 649.84 385.19 C 646.63 380.36 647.97 374.26 646.18 368.99 C 633.60 330.14 618.14 292.20 599.55 255.84 C 599.11 294.57 598.77 333.31 598.52 372.05 C 598.70 379.10 600.83 386.71 597.27 393.31 C 594.52 398.73 588.45 403.74 582.05 401.99 C 576.83 400.14 575.61 393.86 575.58 388.98 C 574.97 329.32 574.51 269.65 574.33 209.99 C 574.12 205.13 577.12 200.26 581.90 198.88 Z" />
<path fill="#000000" opacity="1.00" d=" M 496.93 208.98 C 509.91 207.54 522.92 206.23 535.87 204.48 C 539.45 203.96 543.38 204.32 546.30 206.65 C 552.72 211.51 552.64 222.43 546.29 227.31 C 542.24 230.58 536.72 230.01 531.87 230.61 C 534.86 278.62 536.14 326.71 538.97 374.73 C 541.84 375.15 544.99 374.94 547.55 376.52 C 554.39 381.33 555.22 393.13 548.13 398.11 C 543.76 401.40 538.07 400.25 533.01 400.53 C 526.66 400.68 520.55 402.52 514.50 404.29 C 508.97 405.86 502.82 402.56 500.75 397.27 C 498.23 391.15 500.57 382.63 507.00 379.98 C 508.72 379.11 510.68 378.55 512.09 377.17 C 513.75 375.20 513.69 372.45 513.62 370.03 C 510.01 324.73 508.32 279.31 504.92 233.99 C 499.92 234.41 494.36 236.05 489.77 233.21 C 482.86 229.07 481.99 218.22 487.74 212.73 C 490.15 210.28 493.59 209.30 496.93 208.98 Z" />
<path fill="#000000" opacity="1.00" d=" M 705.15 208.11 C 710.85 201.12 723.51 202.49 727.76 210.38 C 729.28 213.00 729.22 216.14 729.05 219.07 C 727.25 245.19 725.54 271.32 723.81 297.45 C 746.84 274.10 767.12 248.01 783.84 219.79 C 785.56 216.71 788.15 213.66 791.88 213.20 C 801.32 212.07 810.16 222.43 807.38 231.59 C 806.26 234.80 804.18 237.55 802.41 240.43 C 787.11 264.42 769.32 286.79 749.62 307.32 C 759.77 326.05 767.56 345.90 777.05 364.95 C 781.47 374.09 785.74 383.34 789.00 392.97 C 790.35 396.63 790.72 401.06 788.30 404.39 C 784.43 409.89 775.80 410.54 770.72 406.37 C 768.58 404.69 767.36 402.20 766.30 399.77 C 759.50 384.02 752.33 368.44 744.99 352.94 C 740.72 343.76 735.22 335.21 731.01 326.00 C 728.31 329.92 725.44 333.81 721.48 336.56 C 720.17 355.74 718.92 374.93 717.62 394.11 C 717.27 398.06 716.55 402.67 713.02 405.09 C 709.93 407.03 705.99 405.71 703.25 403.76 C 697.57 399.68 693.83 392.97 693.30 386.00 C 696.47 331.35 699.26 276.64 702.29 221.97 C 702.70 217.31 702.02 212.00 705.15 208.11 Z" />
<path fill="#000000" opacity="1.00" d=" M 831.99 224.20 C 835.00 221.92 838.99 221.83 842.56 222.55 C 854.67 224.89 866.75 227.41 878.91 229.48 C 883.10 230.10 887.67 231.04 890.58 234.40 C 896.03 240.12 894.85 250.92 887.69 254.69 C 882.72 257.36 877.08 254.99 872.00 253.97 C 864.24 301.22 854.88 348.18 847.04 395.40 C 850.22 396.81 854.07 397.76 855.95 400.98 C 859.47 406.63 859.03 415.25 853.37 419.37 C 849.51 422.23 844.35 421.47 840.14 419.89 C 833.03 417.30 825.42 416.53 817.90 416.62 C 813.40 416.76 808.99 414.26 806.75 410.37 C 803.14 404.60 804.82 396.29 810.40 392.39 C 813.19 390.36 816.87 391.06 819.98 389.89 C 822.46 388.62 823.01 385.59 823.51 383.11 C 829.97 338.35 838.39 293.90 845.07 249.18 C 840.39 248.14 835.11 248.00 831.36 244.65 C 825.40 239.53 825.53 228.86 831.99 224.20 Z" />
<path fill="#000000" opacity="1.00" d=" M 390.22 226.21 C 408.46 221.82 428.66 220.87 445.98 229.13 C 457.78 234.65 466.45 245.83 469.41 258.46 C 475.75 283.61 466.69 311.29 448.38 329.30 C 457.95 344.94 467.35 360.68 476.39 376.64 C 478.29 380.50 483.43 382.17 483.73 386.92 C 485.84 394.80 481.89 404.22 473.91 406.90 C 469.57 408.57 464.89 405.94 462.89 402.02 C 451.54 382.74 439.86 363.64 428.01 344.66 C 425.39 345.83 422.75 346.93 420.08 347.95 C 422.47 368.60 424.80 389.27 426.33 410.00 C 427.12 417.39 420.55 424.88 412.90 423.69 C 407.14 423.14 403.64 417.78 402.24 412.65 C 400.25 408.32 401.35 403.53 400.81 398.97 C 395.75 353.70 389.03 308.60 379.99 263.94 C 379.53 261.58 379.41 259.18 379.33 256.79 C 374.29 259.06 369.82 262.48 364.60 264.34 C 357.19 266.91 347.89 261.91 346.73 253.98 C 346.04 249.62 348.85 245.65 352.30 243.29 C 363.62 235.12 376.71 229.60 390.22 226.21 M 402.81 248.54 C 404.25 250.82 405.63 253.22 406.03 255.94 C 410.11 277.68 413.53 299.55 416.52 321.47 C 433.87 314.01 446.02 295.81 446.61 276.99 C 446.40 268.37 444.03 258.62 436.47 253.49 C 426.78 246.58 414.08 246.81 402.81 248.54 Z" />
<path fill="#000000" opacity="1.00" d=" M 922.01 240.09 C 925.42 237.80 929.87 238.14 933.59 239.44 C 940.01 241.75 945.69 246.87 947.57 253.57 C 958.33 290.03 966.22 327.32 971.60 364.95 C 979.95 334.84 989.47 305.06 998.36 275.10 C 999.42 271.41 1000.66 267.25 1004.24 265.22 C 1011.58 261.01 1022.10 265.01 1025.26 272.75 C 1026.48 275.71 1025.98 279.02 1025.01 281.99 C 1016.69 307.57 1008.51 333.20 999.86 358.67 C 994.55 373.98 989.72 389.45 984.73 404.86 C 982.69 411.49 980.07 418.00 979.15 424.92 C 978.05 431.71 977.05 439.01 972.61 444.55 C 966.27 450.98 954.35 446.27 952.33 438.01 C 950.84 432.74 953.21 427.42 952.62 422.10 C 948.91 380.56 942.18 339.28 932.18 298.79 C 923.20 335.97 914.37 373.18 905.57 410.40 C 904.20 416.82 904.66 424.02 900.64 429.58 C 897.00 434.71 889.71 438.15 883.69 435.18 C 878.65 432.47 878.20 425.84 879.32 420.86 C 891.85 362.98 904.68 305.16 917.62 247.37 C 918.27 244.58 919.52 241.71 922.01 240.09 Z" />
<path fill="#000000" opacity="1.00" d=" M 231.20 276.14 C 245.10 267.42 260.49 260.01 277.10 258.91 C 293.16 257.74 309.50 263.73 321.08 274.89 C 336.10 289.21 343.89 309.68 346.14 329.99 C 350.53 370.49 336.90 411.95 311.68 443.62 C 307.39 448.70 303.25 454.08 297.96 458.17 C 291.18 462.82 281.48 457.54 279.91 449.95 C 278.78 446.08 280.56 442.26 282.72 439.12 C 280.41 434.15 278.82 428.92 278.33 423.45 C 267.19 381.43 255.83 339.46 244.62 297.46 C 241.09 299.65 237.33 302.29 232.94 301.80 C 225.46 301.33 219.94 293.02 222.12 285.91 C 223.29 281.32 227.38 278.44 231.20 276.14 M 268.95 286.00 C 272.48 297.14 274.75 308.63 277.76 319.92 C 285.76 351.92 293.70 383.94 301.69 415.95 C 317.31 391.64 325.56 361.87 321.09 333.04 C 318.75 317.89 312.60 302.40 300.20 292.73 C 291.91 285.03 279.64 283.57 268.95 286.00 Z" />
<path fill="#000000" opacity="1.00" d=" M 530.62 431.59 C 539.36 427.20 549.97 426.03 559.15 429.77 C 568.85 433.42 576.24 442.11 578.90 452.06 C 582.14 463.37 579.87 475.71 574.11 485.82 C 583.66 506.39 581.46 531.23 570.31 550.72 C 573.87 554.25 576.54 558.87 576.55 564.01 C 576.96 570.19 573.29 575.44 570.72 580.75 C 567.87 586.12 565.65 592.01 561.26 596.39 C 567.18 606.19 567.07 618.88 561.94 628.98 C 533.11 685.79 504.22 742.56 475.42 799.37 C 471.09 808.08 463.30 815.23 453.87 817.95 C 446.93 820.09 439.19 819.47 432.71 816.18 C 396.73 798.49 360.73 780.84 324.74 763.19 C 317.68 759.80 312.41 753.22 310.23 745.75 C 307.73 737.48 308.82 728.35 312.62 720.66 C 341.56 663.63 370.57 606.63 399.49 549.58 C 405.08 538.36 416.79 530.37 429.43 530.09 C 431.99 522.02 436.62 514.84 440.24 507.23 C 444.03 499.42 453.41 495.41 461.77 497.26 C 470.72 477.72 487.91 461.73 508.80 455.94 C 512.89 445.59 520.56 436.54 530.62 431.59 M 530.46 450.44 C 524.96 455.34 522.65 462.53 520.80 469.42 C 515.66 470.45 510.50 471.52 505.68 473.63 C 492.62 479.12 482.48 490.02 476.19 502.55 C 503.23 515.89 530.34 529.08 557.37 542.43 C 561.98 533.70 564.67 523.90 564.53 513.99 C 564.64 503.84 561.08 494.07 555.81 485.52 C 559.54 480.11 563.60 474.55 564.43 467.84 C 565.91 459.36 562.75 449.45 554.74 445.34 C 546.66 441.03 536.66 444.37 530.46 450.44 M 455.14 512.98 C 453.53 514.19 452.93 516.27 451.96 517.97 C 449.89 522.48 447.30 526.75 445.33 531.31 C 444.41 533.10 445.94 534.78 447.55 535.39 C 477.84 550.06 507.97 565.08 538.24 579.79 C 541.84 581.45 545.23 583.63 549.02 584.88 C 551.72 585.60 552.55 582.38 553.61 580.63 C 555.85 575.64 558.84 570.98 560.79 565.87 C 561.44 564.19 559.84 563.08 558.55 562.50 C 526.58 546.78 494.55 531.15 462.60 515.38 C 460.22 514.50 457.69 512.07 455.14 512.98 M 414.04 555.09 C 409.97 562.45 406.50 570.13 402.50 577.53 C 411.84 582.20 421.34 586.58 430.61 591.38 C 434.75 593.41 435.62 599.29 432.84 602.79 C 430.65 605.97 426.14 607.14 422.76 605.20 C 413.56 600.83 404.48 596.22 395.34 591.74 C 388.70 604.70 382.18 617.72 375.54 630.67 C 383.53 634.65 391.60 638.49 399.62 642.42 C 402.96 643.96 407.12 645.75 407.55 649.96 C 408.75 655.91 401.79 661.54 396.32 658.57 C 386.95 654.12 377.72 649.36 368.35 644.91 C 361.41 658.42 354.54 671.96 347.75 685.54 C 356.65 689.84 365.51 694.22 374.40 698.56 C 376.72 699.66 379.05 701.39 379.56 704.08 C 381.23 709.80 374.95 716.11 369.26 713.68 C 359.54 709.30 350.09 704.31 340.46 699.74 C 336.70 707.18 332.91 714.61 329.12 722.04 C 326.54 726.92 323.78 732.23 324.65 737.95 C 325.09 743.15 328.66 747.63 333.39 749.69 C 368.95 767.12 404.46 784.66 440.08 801.98 C 448.36 806.06 458.05 800.43 461.59 792.62 C 490.36 736.06 519.09 679.49 547.80 622.90 C 551.96 615.58 550.77 604.38 542.55 600.46 C 506.55 582.79 470.55 565.11 434.54 547.47 C 427.02 543.68 417.96 548.26 414.04 555.09 Z" />
<path fill="#000000" opacity="1.00" d=" M 734.75 429.64 C 743.63 427.95 753.19 428.72 761.39 432.73 C 767.55 436.24 770.15 443.43 771.75 449.96 C 772.21 451.07 771.91 452.99 773.50 453.20 C 776.80 449.79 779.76 445.12 784.88 444.46 C 789.33 443.61 793.40 445.98 796.97 448.32 C 801.84 445.69 807.74 443.44 813.17 445.82 C 819.31 448.55 822.48 454.94 824.59 460.96 C 827.87 459.87 831.70 457.96 834.99 460.10 C 839.44 462.81 839.50 468.57 840.96 472.99 C 843.77 475.86 847.46 478.30 848.46 482.45 C 849.78 487.17 847.06 491.69 844.18 495.21 C 842.18 497.36 843.56 500.45 843.43 503.05 C 843.94 512.06 843.25 522.66 835.97 529.01 C 829.20 534.35 820.07 532.38 812.51 530.13 C 812.89 535.05 814.60 540.89 811.10 545.11 C 806.60 550.36 798.94 549.72 792.75 548.99 C 791.75 551.94 790.84 555.27 788.03 557.02 C 782.41 560.80 775.26 559.99 768.94 558.97 C 768.56 565.34 767.35 572.07 762.86 576.92 C 757.17 583.20 748.53 585.07 740.50 586.23 C 744.04 590.39 748.32 594.40 749.40 600.02 C 751.62 610.10 746.50 619.98 740.78 627.95 C 742.47 637.75 743.12 648.75 737.20 657.34 C 733.50 663.59 726.67 667.08 719.91 669.01 C 711.94 671.05 703.74 667.40 697.79 662.21 C 690.88 655.90 685.37 648.16 681.20 639.80 C 680.28 638.05 679.50 636.20 678.29 634.64 C 674.95 633.85 671.26 633.79 668.46 631.57 C 662.12 626.85 659.71 618.92 657.68 611.66 C 654.93 612.82 652.14 615.10 648.99 614.20 C 644.85 613.08 642.06 609.52 639.68 606.19 C 634.73 604.73 629.45 603.11 626.03 598.99 C 622.59 595.11 622.13 589.65 622.68 584.72 C 618.98 582.19 614.67 578.93 614.70 573.98 C 614.19 568.95 616.61 564.40 618.80 560.08 C 615.03 556.98 610.91 553.21 610.66 547.98 C 609.68 539.35 614.61 531.59 619.78 525.15 C 616.43 518.61 613.62 510.70 616.67 503.51 C 620.17 495.29 628.73 490.88 636.98 488.81 C 638.59 483.78 640.58 477.80 646.08 475.88 C 651.85 474.13 657.33 477.65 662.05 480.55 C 664.22 475.94 666.49 470.92 671.11 468.26 C 674.79 465.67 679.46 466.13 683.71 466.38 C 685.50 461.98 687.73 457.41 691.95 454.85 C 696.97 451.51 703.30 452.18 708.95 453.10 C 714.05 442.38 722.76 432.41 734.75 429.64 Z" />
<path fill="#000000" opacity="1.00" d=" M 848.69 499.82 C 859.67 497.80 871.35 499.03 881.68 503.32 C 889.89 507.23 896.96 513.69 901.31 521.71 C 906.40 530.90 910.66 540.51 914.79 550.16 C 923.71 571.38 931.79 592.94 939.50 614.63 C 943.23 628.93 941.19 644.83 933.52 657.53 C 926.72 668.93 915.30 676.72 903.10 681.42 C 905.13 685.80 909.75 687.77 912.92 691.15 C 920.17 698.23 926.16 707.59 926.27 718.04 C 926.90 729.97 919.93 740.67 911.92 748.89 C 895.99 764.27 875.69 773.94 855.58 782.60 C 831.94 792.64 807.51 801.29 782.10 805.48 C 771.21 807.43 760.11 807.80 749.08 807.28 C 740.88 806.83 732.88 804.64 725.25 801.73 C 721.51 800.47 720.07 796.46 718.78 793.12 C 714.73 782.33 711.94 770.83 713.08 759.25 C 700.00 722.01 686.53 684.89 673.34 647.68 C 672.71 645.88 672.56 643.89 673.32 642.12 C 674.32 640.84 676.44 641.64 676.79 643.12 C 680.08 649.57 684.08 655.67 688.79 661.18 C 691.22 664.07 694.60 666.38 695.84 670.12 C 705.38 696.59 714.68 723.15 724.32 749.59 C 754.86 753.69 786.50 750.76 815.57 740.44 C 844.91 730.20 871.29 711.93 891.61 688.47 C 871.03 638.18 850.39 587.92 829.63 537.70 C 833.43 535.60 837.09 533.21 840.93 531.19 C 841.26 531.29 841.92 531.49 842.25 531.59 C 843.64 534.38 844.61 537.37 845.84 540.24 C 849.59 535.87 854.03 531.37 859.94 530.31 C 864.60 529.29 869.49 530.89 873.19 533.77 C 877.79 537.34 880.96 542.38 883.48 547.56 C 888.85 558.88 894.39 570.12 899.16 581.71 C 903.96 594.39 908.90 607.31 909.85 620.97 C 910.61 630.25 908.80 640.26 902.60 647.51 C 899.94 650.81 896.30 653.05 892.72 655.21 C 894.72 659.63 896.46 664.17 898.17 668.72 C 907.22 665.63 915.69 660.08 921.08 652.06 C 927.40 642.45 928.96 630.22 926.58 619.10 C 918.31 595.52 909.54 572.08 899.55 549.16 C 895.75 540.94 892.30 532.47 887.31 524.88 C 881.45 515.93 870.20 512.33 859.95 512.24 C 856.66 511.99 853.28 513.00 850.06 512.22 C 849.74 508.09 848.20 503.94 848.69 499.82 M 852.09 555.51 C 864.00 584.58 875.73 613.72 887.76 642.75 C 891.55 640.17 894.81 636.51 895.65 631.87 C 898.02 620.09 894.03 608.34 890.57 597.20 C 885.74 584.19 880.04 571.52 873.92 559.07 C 871.66 554.47 869.75 549.57 866.37 545.65 C 865.24 544.52 863.80 542.84 862.03 543.57 C 857.23 546.02 854.60 550.99 852.09 555.51 M 815.61 754.53 C 787.05 764.20 756.29 766.73 726.40 763.47 C 726.23 771.55 728.41 779.41 730.90 787.02 C 731.39 788.41 731.84 790.16 733.55 790.48 C 749.34 796.33 766.68 794.58 782.91 791.75 C 804.40 787.79 825.18 780.69 845.34 772.34 C 863.69 764.65 882.21 756.42 897.72 743.72 C 904.78 737.57 912.10 729.99 912.71 720.12 C 913.13 711.27 907.22 703.83 900.89 698.35 C 878.05 724.10 848.54 744.20 815.61 754.53 Z" />
<path fill="#000000" opacity="1.00" d=" M 808.36 570.42 C 810.81 568.90 813.11 571.77 814.42 573.58 C 819.86 581.67 823.58 590.75 827.50 599.64 C 837.50 623.50 846.11 648.00 852.53 673.07 C 853.81 678.93 855.56 684.91 854.89 690.96 C 854.81 692.93 852.39 694.59 850.65 693.38 C 847.26 690.97 845.46 687.06 843.47 683.55 C 836.59 670.49 831.20 656.71 825.91 642.96 C 818.54 622.30 811.04 601.53 807.13 579.89 C 806.93 576.83 805.60 572.69 808.36 570.42 Z" />
<path fill="#000000" opacity="1.00" d=" M 765.40 601.45 C 768.43 600.61 770.32 604.10 771.82 606.17 C 779.64 619.06 785.07 633.20 790.64 647.15 C 798.61 668.66 806.39 690.37 810.94 712.91 C 811.48 716.52 812.53 720.46 811.07 723.99 C 808.81 726.83 805.56 724.07 804.21 721.80 C 798.79 713.75 795.00 704.75 791.10 695.90 C 781.49 672.93 773.14 649.38 766.75 625.31 C 765.21 618.94 763.31 612.55 763.26 605.95 C 763.22 604.26 763.63 602.13 765.40 601.45 Z" />
<path fill="#000000" opacity="1.00" d=" M 737.46 665.41 C 739.20 663.46 740.72 666.13 741.18 667.73 C 746.75 683.23 751.90 698.90 755.80 714.92 C 756.87 720.53 758.62 726.23 757.81 731.99 C 757.44 734.19 754.03 735.23 752.68 733.32 C 749.35 730.07 747.33 725.79 745.16 721.75 C 737.96 707.32 732.02 692.30 726.53 677.16 C 726.25 675.38 724.28 672.81 726.56 671.68 C 730.27 669.73 734.02 667.84 737.46 665.41 Z" />
<path fill="#000000" opacity="1.00" d=" M 957.49 839.68 C 966.72 837.83 976.50 840.33 984.02 845.90 C 995.37 854.07 1002.22 867.28 1004.68 880.85 C 1007.16 894.08 1006.43 907.66 1005.19 920.99 C 1004.82 925.77 1001.78 930.31 997.27 932.11 C 992.77 934.03 986.86 933.19 983.80 929.15 C 981.53 926.32 981.43 922.49 981.79 919.06 C 982.85 907.33 984.15 895.29 981.23 883.73 C 979.37 876.47 974.96 869.19 967.75 866.28 C 962.32 864.08 956.33 866.58 952.25 870.30 C 943.33 878.38 938.35 889.84 935.27 901.26 C 932.21 912.77 931.21 925.27 935.04 936.73 C 937.33 943.72 941.66 950.26 948.04 954.13 C 957.68 960.09 969.41 960.71 979.56 965.49 C 988.74 969.56 996.93 976.62 1000.81 986.05 C 1007.04 1001.25 1004.01 1019.42 994.40 1032.54 C 987.60 1041.16 977.90 1047.83 966.91 1049.51 C 951.34 1052.18 935.14 1044.81 925.71 1032.39 C 922.58 1028.08 919.14 1023.47 918.65 1018.00 C 917.98 1010.34 925.28 1002.68 933.08 1004.12 C 937.12 1004.78 939.55 1008.38 941.34 1011.72 C 945.18 1018.82 952.76 1024.22 961.02 1024.04 C 969.00 1023.95 976.15 1018.28 979.16 1011.08 C 981.35 1006.09 981.98 999.85 978.85 995.12 C 976.21 991.05 971.42 989.25 966.95 988.03 C 955.34 984.90 943.28 981.86 933.41 974.65 C 921.78 966.16 914.94 952.55 911.67 938.80 C 906.63 916.60 911.15 893.07 920.60 872.66 C 927.81 857.50 940.14 842.75 957.49 839.68 Z" />
<path fill="#000000" opacity="1.00" d=" M 453.37 841.61 C 456.95 840.86 460.94 841.95 463.37 844.75 C 466.09 847.80 466.56 852.06 467.46 855.89 C 475.54 893.48 476.35 932.62 469.74 970.50 C 466.74 987.68 462.94 1004.92 455.81 1020.92 C 451.91 1029.35 446.98 1037.82 439.18 1043.22 C 431.22 1048.46 419.99 1049.60 411.83 1044.16 C 404.23 1039.10 399.79 1030.69 396.54 1022.41 C 390.94 1007.54 388.65 991.69 386.93 975.97 C 382.70 936.38 385.41 896.50 388.22 856.91 C 388.45 851.95 391.47 847.08 396.22 845.32 C 400.91 843.38 407.05 844.62 409.92 849.02 C 412.59 852.84 411.74 857.73 411.47 862.09 C 408.50 901.98 405.88 942.24 411.12 982.06 C 412.62 992.75 414.09 1003.64 418.17 1013.71 C 419.66 1016.89 421.79 1021.42 425.97 1021.03 C 430.39 1019.81 432.57 1015.19 434.53 1011.44 C 440.66 997.73 443.48 982.84 446.20 968.16 C 453.08 931.75 451.86 893.96 443.54 857.89 C 441.40 850.88 446.09 842.83 453.37 841.61 Z" />
<path fill="#000000" opacity="1.00" d=" M 726.81 843.92 C 734.15 843.01 741.61 843.70 749.00 843.28 C 755.64 843.33 762.28 842.27 768.92 842.64 C 780.41 844.84 781.46 863.67 771.00 868.03 C 767.67 869.16 764.08 868.70 760.63 868.84 C 761.06 917.68 759.98 966.53 760.19 1015.37 C 763.33 1016.08 766.99 1016.09 769.40 1018.56 C 774.88 1024.10 775.24 1034.81 768.48 1039.50 C 763.94 1042.78 758.17 1041.21 753.04 1041.00 C 746.62 1040.55 740.29 1041.83 734.02 1042.97 C 729.22 1043.85 724.22 1041.23 721.90 1037.02 C 718.56 1031.33 720.03 1023.33 725.12 1019.16 C 727.98 1016.83 732.90 1017.41 734.57 1013.66 C 735.98 1009.60 735.31 1005.21 735.42 1001.01 C 735.23 957.29 736.50 913.58 736.25 869.87 C 732.76 869.77 729.14 870.29 725.79 869.16 C 715.59 864.97 715.92 846.96 726.81 843.92 Z" />
<path fill="#000000" opacity="1.00" d=" M 272.36 850.50 C 289.43 844.35 308.12 842.03 326.08 845.00 C 339.00 847.18 351.98 853.63 358.85 865.22 C 367.43 879.71 366.92 898.20 360.37 913.38 C 353.58 929.24 341.81 942.22 330.54 955.02 C 340.86 955.46 351.16 959.13 358.79 966.23 C 368.56 975.22 373.36 989.48 370.27 1002.49 C 367.70 1013.77 358.83 1022.23 349.87 1028.88 C 335.59 1038.85 318.22 1045.86 300.54 1044.40 C 298.09 1049.30 292.70 1052.82 287.11 1051.55 C 281.27 1050.62 277.63 1044.63 278.01 1038.98 C 278.05 984.71 278.22 930.44 278.87 876.17 C 276.10 876.44 273.06 877.01 270.56 875.41 C 261.87 870.00 262.27 854.18 272.36 850.50 M 301.88 870.38 C 301.65 896.43 301.29 922.48 301.29 948.53 C 310.88 939.00 319.84 928.85 328.66 918.61 C 335.78 910.06 341.98 899.54 341.18 888.01 C 340.93 881.55 336.60 875.73 330.71 873.23 C 321.69 869.20 311.51 869.57 301.88 870.38 M 300.86 987.78 C 300.97 997.19 301.02 1006.60 301.15 1016.02 C 314.78 1017.98 329.39 1013.97 339.73 1004.78 C 343.15 1001.46 347.16 997.19 346.11 992.00 C 344.69 986.50 338.98 983.53 333.85 982.33 C 322.58 980.02 311.26 983.67 300.86 987.78 Z" />
<path fill="#000000" opacity="1.00" d=" M 617.10 848.26 C 631.24 844.60 646.68 843.12 660.58 848.51 C 676.56 854.62 688.46 868.48 695.22 883.88 C 705.56 907.37 706.31 934.20 700.83 959.02 C 693.35 992.77 673.51 1024.32 644.36 1043.37 C 640.16 1045.84 636.08 1049.27 631.02 1049.56 C 622.49 1049.43 616.35 1039.59 618.82 1031.72 C 619.65 1029.18 621.86 1027.52 623.35 1025.42 C 623.25 1021.92 622.29 1018.49 622.52 1014.99 C 623.61 1005.68 622.68 996.30 622.75 986.96 C 622.19 949.48 621.60 912.00 621.05 874.52 C 617.57 875.41 613.65 876.59 610.29 874.71 C 603.35 870.93 601.00 860.80 605.22 854.22 C 607.79 850.19 612.86 849.43 617.10 848.26 M 644.34 871.18 C 645.17 887.44 644.95 903.75 645.35 920.03 C 645.82 949.73 646.23 979.43 646.74 1009.13 C 669.82 987.11 682.55 954.77 680.70 922.93 C 680.00 910.17 676.66 897.31 669.33 886.70 C 664.11 877.85 654.41 872.39 644.34 871.18 Z" />
<path fill="#000000" opacity="1.00" d=" M 501.99 848.97 C 516.65 845.17 532.78 843.80 547.01 849.93 C 563.73 857.03 575.54 872.45 581.82 889.10 C 592.30 916.86 590.57 948.12 581.01 975.88 C 571.19 1004.18 552.37 1029.79 526.73 1045.64 C 522.86 1047.89 518.78 1051.00 514.03 1050.17 C 506.34 1048.75 501.25 1039.73 503.61 1032.37 C 504.39 1029.89 506.44 1028.17 508.22 1026.42 C 507.31 1020.97 506.98 1015.46 507.79 1009.97 C 507.25 965.07 506.40 920.16 505.81 875.26 C 502.43 876.08 498.72 877.32 495.38 875.63 C 487.97 871.93 485.51 860.96 490.41 854.35 C 493.15 850.76 497.93 850.13 501.99 848.97 M 529.11 871.95 C 529.79 883.27 529.58 894.63 529.87 905.98 C 530.42 940.64 530.91 975.31 531.49 1009.97 C 555.35 987.02 568.29 953.12 565.17 920.09 C 564.03 906.50 559.25 893.04 550.42 882.54 C 544.94 876.46 537.14 873.00 529.11 871.95 Z" />
<path fill="#000000" opacity="1.00" d=" M 802.06 851.40 C 830.84 845.77 861.07 846.88 889.12 855.61 C 897.31 858.17 898.91 869.09 894.79 875.71 C 892.50 880.14 887.06 882.54 882.28 880.84 C 866.84 876.39 850.76 874.09 834.68 874.44 C 832.77 892.82 831.62 911.28 831.28 929.76 C 836.72 929.75 842.15 930.07 847.59 930.45 C 851.32 927.91 856.31 926.10 860.60 928.44 C 864.84 930.56 865.88 935.60 866.55 939.86 C 867.66 945.71 866.34 952.66 861.46 956.51 C 859.03 958.50 855.74 958.08 852.86 957.74 C 845.61 956.78 838.30 956.43 831.00 956.41 C 831.25 969.63 831.54 982.87 832.61 996.06 C 833.44 1003.38 834.74 1011.34 839.98 1016.92 C 844.76 1021.97 852.85 1021.66 858.64 1018.63 C 863.04 1016.24 867.75 1013.94 871.08 1010.10 C 872.43 1006.99 872.57 1003.37 874.58 1000.53 C 877.42 996.05 883.16 992.45 888.51 994.53 C 893.26 996.63 894.35 1002.42 894.48 1007.08 C 894.90 1017.41 889.19 1027.01 881.50 1033.50 C 874.82 1039.18 866.78 1043.29 858.22 1045.24 C 848.13 1047.49 837.08 1045.37 828.76 1039.14 C 820.75 1033.34 815.60 1024.37 812.81 1015.02 C 807.05 996.32 807.66 976.52 807.64 957.18 C 799.93 955.22 797.62 945.86 800.24 939.16 C 801.36 935.33 804.49 932.63 807.91 930.84 C 808.34 912.61 809.38 894.39 811.08 876.23 C 807.99 876.90 804.66 877.82 801.62 876.51 C 794.44 873.53 791.07 864.10 794.09 857.10 C 795.46 853.88 798.71 851.95 802.06 851.40 Z" />
</g>
</svg>
