<?xml version="1.0" encoding="UTF-8" ?>
<!DOCTYPE svg PUBLIC "-//W3C//DTD SVG 1.1//EN" "http://www.w3.org/Graphics/SVG/1.1/DTD/svg11.dtd">
<svg width="1200pt" height="1200pt" viewBox="0 0 1200 1200" version="1.1" xmlns="http://www.w3.org/2000/svg">
<g id="#000000ff">
<path fill="#000000" opacity="1.00" d=" M 509.59 158.66 C 511.35 157.24 513.75 157.20 515.91 157.02 C 529.29 156.40 542.71 156.28 556.06 157.36 C 558.14 157.42 560.98 158.32 560.81 160.91 C 560.38 168.00 559.37 175.05 558.59 182.10 C 558.50 184.01 557.34 186.45 555.01 185.69 C 545.81 184.32 536.45 184.38 527.32 182.50 C 526.14 191.99 525.21 201.53 524.95 211.11 C 529.98 210.66 534.97 209.61 540.03 209.58 C 543.08 209.94 542.06 213.82 542.37 215.96 C 542.00 220.79 543.66 226.00 541.81 230.58 C 536.07 231.66 530.18 231.88 524.36 232.18 C 524.48 242.12 524.19 252.08 524.97 262.00 C 524.76 265.17 528.77 265.52 531.04 264.92 C 537.58 262.85 542.75 258.08 548.50 254.56 C 550.55 253.30 551.90 255.68 552.85 257.14 C 554.56 260.05 556.75 262.76 557.75 266.03 C 558.62 268.74 556.70 271.17 554.96 273.01 C 549.86 278.19 545.01 283.63 539.45 288.32 C 534.21 292.72 526.86 294.03 520.24 292.78 C 515.11 291.70 511.24 287.55 508.99 283.00 C 505.97 276.85 505.19 269.91 504.81 263.16 C 503.16 230.42 503.88 197.53 507.48 164.93 C 507.84 162.77 508.00 160.32 509.59 158.66 Z" />
<path fill="#000000" opacity="1.00" d=" M 591.48 178.46 C 595.34 172.76 601.00 167.60 608.03 166.54 C 614.00 165.64 619.79 169.21 622.83 174.20 C 628.15 182.83 630.74 192.89 631.79 202.90 C 633.73 222.53 635.60 242.22 635.39 261.97 C 635.31 270.00 635.31 278.03 635.37 286.07 C 635.35 287.86 635.16 290.57 632.92 290.89 C 629.28 291.52 625.62 292.13 621.95 292.45 C 619.62 292.55 619.24 289.87 619.11 288.14 C 618.34 278.79 618.07 269.40 617.24 260.06 C 608.19 261.62 599.14 263.21 590.11 264.88 C 589.47 273.27 589.70 281.69 589.76 290.10 C 590.03 292.72 586.83 292.72 585.01 292.60 C 579.43 292.20 573.78 292.64 568.25 291.82 C 565.36 290.02 566.83 285.83 566.59 282.99 C 568.28 262.51 570.99 242.08 575.17 221.95 C 578.45 206.80 582.88 191.53 591.48 178.46 M 599.81 209.80 C 596.25 221.35 593.71 233.21 592.11 245.18 C 599.79 241.89 608.28 242.40 616.42 241.59 C 615.56 231.04 614.30 220.52 612.83 210.04 C 611.86 203.42 611.51 196.51 608.27 190.50 C 603.86 196.13 601.95 203.11 599.81 209.80 Z" />
<path fill="#000000" opacity="1.00" d=" M 639.76 175.02 C 639.99 172.67 638.81 168.59 642.01 167.85 C 646.68 167.67 651.30 168.78 655.99 168.62 C 671.68 168.20 687.40 168.59 703.07 167.57 C 705.20 167.47 708.60 167.20 709.00 170.05 C 709.44 174.01 708.66 177.99 708.89 181.96 C 708.84 185.23 709.60 188.57 708.84 191.79 C 708.05 193.63 705.81 193.66 704.13 193.75 C 698.67 193.92 693.21 194.13 687.76 194.52 C 686.06 217.97 684.11 241.42 683.54 264.94 C 683.17 272.64 683.39 280.37 682.83 288.06 C 682.86 290.58 679.80 290.49 678.02 290.52 C 673.14 290.41 668.23 290.95 663.37 290.46 C 660.38 289.98 660.15 286.45 660.30 284.05 C 661.35 259.39 661.96 234.70 661.35 210.03 C 661.26 205.19 661.42 200.35 661.42 195.51 C 654.31 195.97 647.16 198.12 640.04 197.08 C 637.60 189.98 640.30 182.34 639.76 175.02 Z" />
<path fill="#000000" opacity="1.00" d=" M 457.60 340.59 C 462.18 334.43 468.04 328.29 475.95 326.92 C 483.25 325.45 490.71 329.14 495.24 334.78 C 501.14 341.85 503.34 351.12 504.36 360.07 C 504.71 363.69 505.60 367.35 505.10 371.00 C 502.84 373.27 499.89 374.67 497.06 376.07 C 495.08 376.95 492.41 378.38 490.73 376.20 C 487.92 371.86 487.27 366.30 483.62 362.43 C 481.54 360.08 477.91 357.89 474.87 359.84 C 471.45 362.41 470.62 367.00 469.92 370.96 C 468.80 377.77 471.38 384.94 476.53 389.52 C 483.88 395.92 493.06 400.12 499.63 407.45 C 510.64 420.02 510.13 441.21 497.70 452.65 C 489.91 459.36 479.47 463.65 469.07 462.38 C 461.23 461.52 453.53 457.64 448.82 451.21 C 446.87 448.57 446.77 445.08 447.84 442.07 C 449.57 436.87 450.55 431.44 452.45 426.30 C 453.02 424.50 455.06 423.05 456.92 424.03 C 462.64 426.68 466.61 432.47 472.91 434.01 C 476.33 434.82 479.50 432.91 482.20 431.06 C 479.06 424.97 473.59 420.48 467.61 417.36 C 457.39 411.94 449.86 401.86 447.68 390.50 C 444.55 373.48 447.09 354.71 457.60 340.59 Z" />
<path fill="#000000" opacity="1.00" d=" M 585.24 341.28 C 586.39 338.75 589.54 338.61 591.94 338.41 C 605.28 337.91 618.66 337.89 631.99 338.68 C 633.86 338.90 636.49 338.88 637.25 341.05 C 637.69 344.32 636.83 347.59 636.53 350.85 C 635.86 355.11 635.87 359.52 634.63 363.68 C 634.02 365.66 631.58 365.10 630.06 364.96 C 621.35 363.65 612.52 363.53 603.85 362.01 C 602.79 370.63 601.81 379.26 601.55 387.94 C 606.70 387.68 611.82 386.58 616.99 386.68 C 619.41 387.15 618.68 390.23 618.96 392.00 C 618.81 396.60 619.84 401.31 618.74 405.83 C 613.12 407.65 606.87 407.06 601.00 407.50 C 601.03 416.64 600.82 425.81 601.56 434.94 C 601.71 437.93 605.66 437.99 607.83 437.44 C 613.58 435.51 618.59 431.92 623.71 428.76 C 624.84 428.19 626.61 426.77 627.69 428.22 C 630.25 431.20 632.65 434.45 634.22 438.07 C 635.35 440.60 633.56 443.07 631.81 444.76 C 627.04 449.36 622.24 453.95 617.15 458.21 C 611.63 462.93 603.84 464.55 596.79 463.16 C 591.94 462.17 587.95 458.63 585.67 454.34 C 582.14 447.83 581.58 440.25 581.24 433.00 C 579.94 406.27 580.49 379.43 583.30 352.81 C 583.83 348.96 583.78 344.93 585.24 341.28 Z" />
<path fill="#000000" opacity="1.00" d=" M 650.90 345.82 C 651.11 342.72 652.37 338.82 656.10 338.70 C 670.05 337.65 684.10 338.00 698.07 338.61 C 700.34 338.80 704.03 338.83 704.19 341.90 C 704.05 347.26 702.98 352.56 702.50 357.90 C 702.06 360.18 702.25 362.81 700.79 364.75 C 699.33 365.43 697.69 364.99 696.18 364.88 C 687.71 363.61 679.11 363.53 670.67 362.00 C 669.58 370.62 668.61 379.26 668.35 387.94 C 673.57 387.67 678.76 386.56 684.00 386.68 C 686.17 387.48 685.50 390.14 685.75 391.93 C 685.69 396.29 686.38 400.68 685.79 405.02 C 685.67 406.35 684.05 406.50 683.05 406.63 C 677.97 407.02 672.89 407.46 667.79 407.50 C 667.84 416.65 667.60 425.81 668.36 434.94 C 668.38 437.63 671.85 437.92 673.86 437.60 C 680.96 435.81 686.48 430.53 693.04 427.62 L 694.03 427.75 C 696.72 430.54 698.89 433.86 700.72 437.27 C 702.08 439.60 701.06 442.39 699.23 444.12 C 694.34 448.96 689.31 453.68 684.06 458.13 C 678.57 462.86 670.83 464.53 663.79 463.20 C 658.86 462.27 654.79 458.70 652.47 454.35 C 648.94 447.83 648.38 440.25 648.04 432.99 C 646.63 403.92 647.39 374.72 650.90 345.82 Z" />
<path fill="#000000" opacity="1.00" d=" M 756.87 338.61 C 763.48 336.51 770.67 340.01 774.32 345.62 C 780.58 355.15 782.65 367.23 780.57 378.39 C 777.82 392.33 772.44 406.15 762.73 416.75 C 758.00 421.85 752.46 426.76 745.51 428.39 C 741.93 429.31 738.25 428.65 734.69 428.05 C 734.36 437.39 734.11 446.73 733.79 456.07 C 733.68 457.64 733.64 460.15 731.60 460.41 C 727.38 460.78 723.11 460.79 718.88 460.67 C 717.06 460.78 715.82 459.27 715.84 457.55 C 714.05 432.75 714.45 407.86 714.45 383.01 C 714.33 369.64 716.28 356.33 715.55 342.97 C 715.22 340.81 716.72 338.52 719.07 338.64 C 725.39 338.39 731.78 338.45 738.08 339.10 C 739.60 339.09 741.02 340.31 740.82 341.92 C 740.82 346.04 739.95 350.11 739.55 354.20 C 744.18 347.98 748.95 340.79 756.87 338.61 M 745.85 372.90 C 741.05 384.14 738.83 396.30 737.39 408.37 C 741.22 407.93 745.22 406.91 747.91 403.94 C 757.04 394.14 760.17 380.12 759.32 367.05 C 759.11 364.17 757.40 361.77 755.93 359.40 C 750.61 362.09 748.15 367.75 745.85 372.90 Z" />
<path fill="#000000" opacity="1.00" d=" M 527.08 341.44 C 533.98 340.99 540.90 339.11 547.82 340.15 C 548.76 342.34 548.22 344.75 548.08 347.03 C 544.95 377.00 542.30 407.05 541.32 437.18 C 549.85 436.03 558.49 436.35 567.03 435.33 C 569.19 434.85 570.94 436.93 570.58 438.99 C 570.05 444.99 569.34 451.00 568.58 456.98 C 568.40 459.04 566.38 460.03 564.56 460.27 C 557.25 461.44 549.80 461.12 542.48 462.20 C 536.71 462.79 530.90 463.64 525.09 463.48 C 522.74 463.31 522.05 460.76 521.74 458.86 C 516.40 421.30 516.94 383.18 519.49 345.43 C 519.78 341.62 524.27 341.78 527.08 341.44 Z" />
<path fill="#000000" opacity="1.00" d=" M 464.55 504.97 C 464.23 502.80 465.45 500.30 467.85 500.18 C 473.24 499.77 478.66 500.14 484.05 500.25 C 486.13 500.36 489.33 500.40 489.78 503.05 C 489.96 507.75 488.97 512.41 488.56 517.09 C 492.91 510.73 497.26 503.47 504.81 500.56 C 509.98 498.40 516.17 499.92 520.07 503.85 C 525.41 509.14 527.74 516.62 529.34 523.78 C 531.58 534.14 529.85 544.82 526.97 554.86 C 522.84 569.97 515.07 584.78 502.27 594.27 C 497.01 598.32 490.02 599.32 483.69 597.55 C 483.40 607.73 483.09 617.90 482.82 628.08 C 482.73 629.95 482.70 633.11 480.03 632.95 C 475.70 633.19 471.32 633.46 467.00 633.02 C 464.08 632.18 464.91 628.36 464.56 626.06 C 463.14 600.08 463.42 574.06 463.45 548.06 C 463.36 533.68 465.30 519.35 464.55 504.97 M 498.85 528.98 C 491.10 543.57 488.17 560.13 486.42 576.39 C 490.49 575.98 494.62 574.56 497.23 571.23 C 506.29 560.08 509.14 545.10 508.32 531.04 C 508.11 527.97 506.43 525.31 504.89 522.75 C 502.49 524.41 500.16 526.31 498.85 528.98 Z" />
<path fill="#000000" opacity="1.00" d=" M 650.48 509.60 C 659.83 508.13 669.28 512.62 675.32 519.64 C 683.33 528.43 686.68 540.36 687.82 551.95 C 688.59 558.96 687.59 565.99 686.95 572.97 C 685.42 587.99 682.18 603.22 674.34 616.32 C 669.67 624.11 662.81 631.48 653.73 633.79 C 645.65 635.63 638.05 630.79 632.47 625.44 C 625.10 618.61 622.20 608.59 620.01 599.12 C 614.75 576.52 615.72 551.93 625.69 530.73 C 630.91 521.05 638.87 511.17 650.48 509.60 M 653.40 539.37 C 650.76 540.56 648.55 542.66 647.27 545.27 C 641.84 555.62 641.17 567.56 640.67 579.00 C 640.66 587.72 641.18 596.86 645.35 604.72 C 646.84 607.36 648.57 610.25 651.48 611.51 C 654.83 612.40 656.96 608.77 658.32 606.31 C 664.41 593.79 667.25 579.88 667.84 566.03 C 667.98 558.11 667.35 549.71 663.30 542.71 C 661.46 539.25 656.99 537.27 653.40 539.37 Z" />
<path fill="#000000" opacity="1.00" d=" M 565.36 510.45 C 573.15 507.94 581.93 509.82 588.44 514.65 C 595.86 520.12 600.91 528.36 603.54 537.12 C 606.19 546.13 607.36 555.64 606.31 565.01 C 604.94 582.09 602.42 599.65 593.83 614.77 C 589.22 623.03 582.32 630.91 572.96 633.64 C 564.86 635.84 557.01 631.08 551.35 625.70 C 543.27 618.37 540.43 607.36 538.17 597.10 C 533.38 574.98 534.62 551.06 544.44 530.45 C 549.18 521.99 555.64 513.34 565.36 510.45 M 572.21 539.27 C 569.34 540.49 567.00 542.80 565.69 545.62 C 560.43 555.89 559.77 567.66 559.27 578.97 C 559.26 587.78 559.79 597.02 564.06 604.93 C 565.59 607.56 567.36 610.56 570.41 611.60 C 573.77 612.10 575.70 608.51 577.06 606.02 C 583.20 593.24 586.02 579.04 586.47 564.93 C 586.48 557.25 585.78 549.09 581.70 542.39 C 579.84 539.18 575.64 537.39 572.21 539.27 Z" />
<path fill="#000000" opacity="1.00" d=" M 699.15 515.95 C 698.85 513.98 699.93 511.66 702.11 511.51 C 708.08 511.06 714.10 511.39 720.07 511.69 C 721.64 511.88 724.12 511.91 724.36 513.99 C 724.58 518.37 723.55 522.71 723.13 527.06 C 727.83 520.64 732.82 513.23 741.06 511.25 C 747.74 509.43 754.72 513.23 758.24 518.88 C 764.38 528.61 766.33 540.80 764.01 552.02 C 761.21 565.62 755.89 579.07 746.43 589.44 C 741.70 594.56 736.15 599.50 729.20 601.18 C 725.58 602.09 721.85 601.47 718.25 600.88 C 718.04 609.57 717.67 618.27 717.49 626.97 C 717.37 628.85 717.47 630.87 716.55 632.60 C 714.31 633.91 711.49 633.24 709.02 633.50 C 706.12 633.33 702.93 634.15 700.27 632.75 C 698.68 629.79 699.36 626.23 699.00 623.02 C 697.67 600.70 698.08 578.32 698.04 555.97 C 697.91 542.62 699.88 529.31 699.15 515.95 M 728.34 548.39 C 724.36 558.89 722.24 570.04 721.04 581.18 C 724.86 580.71 728.86 579.69 731.54 576.71 C 740.63 566.92 743.76 552.95 742.93 539.90 C 742.81 536.89 740.95 534.42 739.17 532.16 C 733.41 535.80 730.85 542.38 728.34 548.39 Z" />
<path fill="#000000" opacity="1.00" d=" M 447.57 673.49 C 452.62 671.21 458.83 672.36 462.86 676.11 C 468.51 681.25 470.83 688.91 472.45 696.13 C 475.60 710.98 471.51 726.19 465.78 739.88 C 462.47 747.68 457.86 754.88 452.37 761.32 C 455.68 767.72 459.99 773.78 465.82 778.12 C 467.47 779.48 469.48 780.53 470.72 782.34 C 471.21 783.81 469.90 785.14 469.31 786.40 C 465.44 792.24 461.65 798.13 457.89 804.04 C 456.84 805.66 455.30 807.81 453.04 807.02 C 448.32 805.79 444.38 802.44 441.61 798.51 C 436.66 791.16 433.82 782.64 431.72 774.09 C 431.38 771.59 428.78 770.80 426.90 769.72 C 426.47 780.14 426.26 790.58 426.01 801.01 C 425.82 802.57 426.03 805.16 424.00 805.58 C 419.35 806.00 414.61 806.19 409.96 805.71 C 407.89 805.19 408.14 802.61 407.92 801.00 C 406.50 773.03 406.75 745.02 406.93 717.03 C 406.90 704.32 408.61 691.64 407.80 678.93 C 407.48 676.59 408.11 673.37 410.92 673.04 C 416.62 672.55 422.38 672.95 428.10 673.11 C 430.00 673.20 432.95 673.52 433.00 676.04 C 433.08 680.79 432.14 685.49 431.94 690.23 C 435.90 683.72 440.22 676.58 447.57 673.49 M 437.63 711.40 C 433.18 723.46 431.10 736.24 429.57 748.96 C 433.56 748.72 437.61 747.42 440.20 744.21 C 449.61 733.24 452.20 718.08 451.55 704.03 C 451.45 700.84 449.74 698.10 448.06 695.52 C 442.40 699.04 439.94 705.48 437.63 711.40 Z" />
<path fill="#000000" opacity="1.00" d=" M 712.33 696.36 C 716.23 689.85 722.18 683.74 729.93 682.38 C 736.55 681.22 742.82 685.59 745.81 691.26 C 754.43 706.01 754.28 723.56 755.97 740.04 C 758.00 761.27 757.67 782.62 757.42 803.91 C 757.06 807.60 752.51 806.90 749.90 807.51 C 747.40 807.60 744.61 809.09 742.34 807.56 C 741.27 805.95 741.35 803.92 741.14 802.10 C 740.56 793.36 740.18 784.61 739.45 775.88 C 730.40 777.38 721.37 779.04 712.34 780.65 C 711.79 788.43 711.72 796.24 712.03 804.04 C 711.99 805.58 712.22 808.19 710.02 808.28 C 703.69 808.41 697.31 808.19 691.00 807.76 C 687.99 807.13 688.82 803.26 688.70 801.02 C 689.64 784.89 691.97 768.87 694.48 752.92 C 697.93 733.45 701.96 713.49 712.33 696.36 M 725.17 716.12 C 719.98 730.64 716.25 745.71 714.39 761.01 C 722.01 757.61 730.51 758.23 738.63 757.38 C 737.78 747.17 736.58 736.99 735.17 726.84 C 734.13 719.91 733.79 712.71 730.60 706.34 C 728.26 709.27 726.36 712.55 725.17 716.12 Z" />
<path fill="#000000" opacity="1.00" d=" M 488.88 685.88 C 490.73 684.02 493.59 684.17 496.01 683.95 C 509.34 683.55 522.71 683.45 536.03 684.37 C 538.07 684.40 540.71 685.46 540.41 687.96 C 539.94 694.31 539.04 700.63 538.21 706.94 C 538.10 708.68 537.30 711.16 535.04 710.74 C 525.66 709.44 516.17 709.15 506.82 707.62 C 505.81 716.23 504.80 724.86 504.54 733.54 C 509.12 733.21 513.67 732.57 518.25 732.22 C 519.56 732.07 521.54 732.30 521.67 733.98 C 522.16 738.64 522.06 743.35 522.24 748.03 C 522.17 749.65 522.30 752.21 520.00 752.08 C 514.69 752.69 509.34 752.98 503.99 753.10 C 504.04 762.30 503.80 771.52 504.58 780.69 C 504.88 783.64 508.82 783.56 510.99 782.99 C 517.36 780.87 522.64 776.55 528.51 773.44 C 529.82 772.64 531.12 773.99 531.80 775.01 C 533.78 777.91 536.16 780.66 537.35 784.03 C 538.25 786.61 536.29 788.93 534.57 790.61 C 529.81 795.13 525.10 799.72 520.03 803.90 C 514.32 808.70 506.25 810.28 499.06 808.57 C 493.90 807.28 489.97 803.07 487.86 798.34 C 484.55 791.03 484.45 782.86 484.08 775.00 C 482.91 747.93 483.72 720.77 486.79 693.85 C 487.20 691.15 487.24 688.17 488.88 685.88 Z" />
<path fill="#000000" opacity="1.00" d=" M 551.75 688.91 C 551.40 686.76 552.64 684.23 555.06 684.26 C 561.06 683.92 567.09 684.16 573.09 684.53 C 574.66 684.66 576.98 684.99 577.00 687.06 C 577.10 691.34 576.16 695.56 575.75 699.81 C 580.40 693.53 585.23 686.30 593.23 684.16 C 599.89 682.13 607.05 685.76 610.66 691.42 C 617.02 701.26 618.98 713.72 616.54 725.13 C 613.70 738.79 608.27 752.31 598.66 762.65 C 593.83 767.78 588.12 772.76 581.00 774.13 C 577.63 774.87 574.20 774.18 570.86 773.66 C 570.61 782.78 570.28 791.90 570.03 801.02 C 569.85 802.59 570.05 804.49 568.80 805.69 C 565.62 806.60 562.24 806.14 558.98 806.34 C 556.87 806.24 554.45 806.75 552.66 805.35 C 551.35 801.70 551.86 797.71 551.52 793.92 C 550.26 772.30 550.71 750.63 550.64 728.98 C 550.49 715.61 552.47 702.29 551.75 688.91 M 585.53 711.53 C 578.20 724.47 575.32 739.37 573.63 753.98 C 577.51 753.48 581.60 752.44 584.29 749.36 C 593.37 739.42 596.45 725.32 595.48 712.18 C 595.17 709.46 593.49 707.19 592.01 705.00 C 589.37 706.63 586.98 708.73 585.53 711.53 Z" />
<path fill="#000000" opacity="1.00" d=" M 631.29 690.22 C 631.45 687.13 633.50 684.16 636.85 684.22 C 650.91 683.33 665.06 683.54 679.13 684.28 C 681.36 684.32 684.70 685.01 684.41 687.96 C 683.86 694.67 683.03 701.39 682.00 708.05 C 682.00 710.13 679.91 711.26 678.05 710.66 C 669.01 709.32 659.84 709.15 650.82 707.62 C 649.81 716.24 648.80 724.86 648.54 733.54 C 653.66 733.31 658.75 732.16 663.88 732.28 C 666.18 732.51 665.76 735.34 665.93 736.99 C 665.93 741.31 666.44 745.64 666.10 749.96 C 666.06 751.33 665.35 752.04 663.99 752.08 C 658.68 752.69 653.33 752.98 647.99 753.10 C 648.04 762.28 647.80 771.49 648.58 780.65 C 648.83 783.63 652.82 783.57 654.99 782.99 C 661.32 780.88 666.60 776.61 672.41 773.47 C 674.46 772.44 675.75 774.99 676.76 776.33 C 678.64 779.35 681.60 782.22 681.53 786.02 C 680.45 789.95 676.60 792.11 673.99 794.97 C 668.19 800.03 662.93 806.56 655.12 808.44 C 648.77 809.99 641.17 809.61 636.30 804.75 C 630.33 798.86 628.95 790.06 628.43 782.06 C 626.76 751.45 627.42 720.65 631.29 690.22 Z" />
<path fill="#000000" opacity="1.00" d=" M 762.10 686.03 C 762.05 684.53 763.54 683.40 764.97 683.59 C 769.64 683.69 774.28 684.58 778.97 684.41 C 794.66 684.00 810.37 684.36 826.04 683.35 C 828.04 683.18 831.02 683.37 831.23 685.99 C 831.51 691.33 830.71 696.70 831.28 702.06 C 831.36 704.59 832.09 708.88 828.57 709.33 C 822.39 709.88 816.16 709.77 809.98 710.30 C 807.62 740.15 805.57 770.03 805.29 799.98 C 805.01 802.04 805.84 805.73 802.95 806.12 C 797.30 806.44 791.61 806.55 785.96 806.33 C 782.81 806.14 782.28 802.51 782.50 800.03 C 783.52 775.71 784.16 751.36 783.57 727.02 C 783.45 721.78 783.62 716.55 783.61 711.32 C 776.49 711.71 769.28 714.04 762.21 712.78 C 760.65 709.43 761.38 705.56 761.42 702.00 C 762.08 696.69 761.83 691.35 762.10 686.03 Z" />
<path fill="#000000" opacity="1.00" d=" M 353.28 849.12 C 359.45 848.58 365.74 848.51 371.90 849.17 C 372.46 850.76 371.93 852.47 371.78 854.11 C 370.35 862.74 369.00 871.38 367.62 880.01 C 370.89 879.98 374.16 880.01 377.44 879.97 C 379.16 869.59 380.57 859.16 382.63 848.85 C 388.77 848.89 394.94 848.51 401.07 849.01 C 402.17 850.02 401.57 851.54 401.50 852.84 C 399.97 861.89 398.44 870.95 396.95 880.01 C 400.81 880.12 404.76 879.54 408.56 880.42 C 409.73 886.00 409.19 892.10 408.80 897.84 C 403.92 898.60 398.97 898.09 394.07 898.20 C 392.55 907.60 391.04 917.01 389.54 926.41 C 394.08 926.51 398.69 925.98 403.19 926.81 C 403.69 932.54 403.66 938.35 403.22 944.10 C 397.79 945.29 392.11 944.30 386.58 944.61 C 384.79 954.67 383.61 964.86 381.50 974.86 C 375.40 975.97 369.00 975.40 362.81 975.15 C 362.22 973.15 362.81 971.08 363.06 969.09 C 364.45 960.94 365.72 952.77 367.04 944.61 C 363.78 944.61 360.52 944.60 357.26 944.61 C 355.43 954.77 354.47 965.12 352.07 975.15 C 345.80 975.48 339.41 975.82 333.19 974.95 C 333.82 964.75 336.38 954.74 337.72 944.60 C 333.93 944.56 330.11 944.85 326.34 944.40 C 324.94 938.63 325.96 932.53 325.81 926.64 C 330.74 926.28 335.69 926.41 340.63 926.38 C 342.10 916.98 343.64 907.59 345.14 898.20 C 340.71 898.15 336.26 898.44 331.85 898.02 C 331.17 892.19 330.77 885.95 332.02 880.23 C 337.36 879.69 342.74 880.11 348.09 880.00 C 349.93 869.73 351.00 859.30 353.28 849.12 M 364.66 898.21 C 363.16 907.60 361.66 916.99 360.13 926.38 C 363.42 926.41 366.71 926.38 370.00 926.40 C 371.51 917.01 373.02 907.61 374.53 898.21 C 371.24 898.21 367.95 898.21 364.66 898.21 Z" />
<path fill="#000000" opacity="1.00" d=" M 418.82 849.06 C 433.86 848.43 448.94 849.01 463.99 848.78 C 468.81 848.84 474.38 848.28 478.27 851.72 C 481.19 854.27 481.56 858.39 481.54 862.03 C 481.50 872.01 481.51 881.99 481.53 891.98 C 481.53 895.88 480.95 900.15 478.19 903.14 C 475.67 905.74 472.35 907.33 469.34 909.28 C 474.66 912.47 481.25 915.96 481.86 922.93 C 482.57 934.92 481.92 946.97 482.18 958.98 C 482.11 963.44 482.69 968.74 479.17 972.16 C 475.42 975.76 469.79 975.40 464.97 975.44 C 449.62 975.22 434.24 975.73 418.90 975.16 C 418.00 971.85 418.48 968.37 418.39 964.99 C 418.41 929.99 418.40 894.99 418.39 859.99 C 418.45 856.34 418.07 852.64 418.82 849.06 M 440.05 867.61 C 440.05 878.54 440.05 889.47 440.05 900.40 C 444.07 900.40 448.09 900.39 452.12 900.40 C 454.72 898.57 457.33 896.73 459.94 894.89 C 459.93 885.80 459.94 876.71 459.94 867.61 C 453.31 867.61 446.68 867.61 440.05 867.61 M 440.05 918.62 C 440.05 931.28 440.05 943.94 440.05 956.60 C 446.84 956.59 453.63 956.60 460.41 956.60 C 460.41 945.69 460.41 934.79 460.41 923.88 C 457.65 922.13 455.12 919.87 452.02 918.75 C 448.04 918.38 444.04 918.66 440.05 918.62 Z" />
<path fill="#000000" opacity="1.00" d=" M 560.20 849.18 C 567.00 848.53 573.95 848.53 580.76 849.17 C 581.59 864.46 580.87 879.83 581.12 895.15 C 588.38 894.13 595.60 892.60 602.94 892.23 C 606.66 892.03 610.87 892.54 613.53 895.44 C 616.34 898.57 616.20 903.04 616.22 906.98 C 616.05 926.32 616.40 945.68 616.05 965.01 C 615.20 973.00 605.72 975.34 599.00 975.39 C 586.06 975.20 573.06 975.90 560.16 975.03 C 559.41 963.38 560.06 951.65 559.85 939.97 C 559.85 917.98 559.85 895.99 559.85 874.00 C 560.07 865.73 559.37 857.41 560.20 849.18 M 581.11 910.99 C 581.11 926.39 581.11 941.79 581.11 957.19 C 585.02 957.11 588.99 957.56 592.86 956.83 C 594.86 956.17 594.75 953.72 594.84 952.03 C 594.87 938.30 594.83 924.56 594.85 910.83 C 590.27 910.88 585.69 910.93 581.11 910.99 Z" />
<path fill="#000000" opacity="1.00" d=" M 693.32 849.17 C 699.85 848.44 706.48 848.77 713.05 848.94 C 714.73 848.66 714.51 850.87 714.64 851.92 C 714.67 886.54 714.64 921.17 714.65 955.80 C 724.10 955.92 733.57 955.56 743.02 955.95 C 745.19 955.89 744.48 958.61 744.71 959.99 C 744.41 965.02 745.42 970.27 744.07 975.16 C 733.07 975.76 722.03 975.24 711.01 975.41 C 705.11 975.21 699.16 975.89 693.30 975.02 C 692.59 965.38 693.20 955.67 693.00 946.01 C 692.98 915.33 693.03 884.66 692.97 853.98 C 692.99 852.36 693.05 850.75 693.32 849.17 Z" />
<path fill="#000000" opacity="1.00" d=" M 790.26 858.22 C 790.41 853.05 794.92 848.95 800.01 848.93 C 808.02 848.79 816.10 848.47 824.09 849.12 C 824.78 855.09 824.59 861.17 824.22 867.16 C 819.95 868.10 815.53 867.45 811.21 867.60 C 811.21 875.94 811.20 884.27 811.22 892.61 C 814.89 892.90 819.14 891.75 822.46 893.40 C 823.05 899.28 822.76 905.24 822.44 911.14 C 818.69 911.23 814.95 911.20 811.21 911.22 C 811.21 926.16 811.21 941.10 811.21 956.04 C 811.03 962.37 811.62 968.75 810.88 975.06 C 805.30 975.75 799.64 975.31 794.03 975.41 C 792.41 975.38 789.62 975.51 790.18 973.09 C 790.01 952.49 790.16 931.88 790.11 911.27 C 787.48 911.25 784.83 911.29 782.24 910.85 C 781.67 904.93 781.68 898.92 782.23 893.01 C 784.81 892.47 787.47 892.57 790.10 892.54 C 790.24 881.10 789.88 869.64 790.26 858.22 Z" />
<path fill="#000000" opacity="1.00" d=" M 753.57 884.31 C 753.47 877.17 752.83 869.93 753.83 862.85 C 760.57 862.41 767.37 862.42 774.12 862.83 C 775.24 869.90 774.49 877.17 774.43 884.31 C 767.48 884.47 760.52 884.47 753.57 884.31 Z" />
<path fill="#000000" opacity="1.00" d=" M 497.60 895.62 C 500.31 892.91 504.37 892.57 508.00 892.58 C 517.35 892.61 526.70 892.59 536.05 892.59 C 539.57 892.59 543.53 893.13 545.97 895.96 C 548.17 898.36 548.57 901.78 548.60 904.92 C 548.59 924.96 548.57 945.01 548.60 965.07 C 548.55 968.42 548.90 971.85 548.14 975.16 C 542.44 975.65 536.71 975.42 531.00 975.37 C 529.29 975.67 528.32 974.23 527.29 973.19 C 520.21 974.14 513.16 975.57 506.00 975.79 C 502.38 975.90 498.29 975.09 495.96 972.06 C 493.76 969.24 493.72 965.46 493.70 962.05 C 493.75 953.70 493.71 945.34 493.71 936.99 C 493.72 933.65 494.04 929.97 496.46 927.43 C 498.85 924.84 502.58 924.22 505.95 924.20 C 513.39 924.16 520.82 924.23 528.26 924.20 C 528.26 919.20 528.26 914.20 528.26 909.21 C 523.58 909.21 518.90 909.21 514.22 909.21 C 514.22 912.89 514.22 916.57 514.12 920.25 C 507.75 920.37 501.33 920.77 494.98 920.09 C 494.39 915.41 494.73 910.67 494.65 905.97 C 494.64 902.37 494.88 898.31 497.60 895.62 M 514.21 939.61 C 514.21 945.91 514.22 952.22 514.21 958.53 C 518.89 958.37 523.57 958.21 528.26 958.05 C 528.26 951.90 528.26 945.76 528.26 939.61 C 523.58 939.61 518.89 939.61 514.21 939.61 Z" />
<path fill="#000000" opacity="1.00" d=" M 623.95 892.95 C 630.94 892.20 638.02 892.66 645.04 892.75 C 648.19 907.98 651.13 923.25 654.25 938.49 C 657.11 924.25 659.95 910.01 662.78 895.77 C 663.19 894.65 663.16 892.42 664.93 892.70 C 670.96 892.51 677.03 892.47 683.07 892.73 C 685.17 892.49 684.55 895.00 684.29 896.22 C 675.11 932.22 666.05 968.26 656.82 1004.25 C 649.88 1004.36 642.91 1004.73 636.00 1004.12 C 635.39 1002.62 636.07 1001.08 636.36 999.62 C 638.68 990.77 641.70 982.06 643.54 973.10 C 641.96 964.61 639.30 956.34 637.33 947.92 C 633.01 931.08 628.77 914.21 624.39 897.39 C 624.05 895.93 623.70 894.43 623.95 892.95 Z" />
<path fill="#000000" opacity="1.00" d=" M 753.70 892.76 C 760.56 892.50 767.44 892.50 774.31 892.76 C 774.59 920.25 774.58 947.75 774.31 975.23 C 767.44 975.49 760.56 975.49 753.69 975.23 C 753.31 961.49 753.62 947.74 753.53 934.00 C 753.63 920.25 753.31 906.50 753.70 892.76 Z" />
<path fill="#000000" opacity="1.00" d=" M 832.46 895.54 C 835.25 892.82 839.36 892.57 843.04 892.57 C 852.36 892.61 861.69 892.60 871.02 892.58 C 874.59 892.59 878.60 892.95 881.24 895.66 C 883.95 898.35 884.16 902.40 884.18 905.99 C 884.11 915.30 884.23 924.61 884.09 933.93 C 882.04 935.86 880.29 938.24 877.81 939.63 C 868.53 940.10 859.22 939.66 849.93 939.81 C 849.92 946.20 849.92 952.60 849.93 959.00 C 854.51 959.00 859.09 959.00 863.68 958.99 C 863.70 954.63 863.37 950.25 863.99 945.93 C 870.56 945.40 877.26 945.29 883.83 945.98 C 884.47 950.63 884.05 955.34 884.18 960.03 C 884.12 963.98 884.45 968.46 881.78 971.73 C 879.22 974.93 874.82 975.43 871.00 975.42 C 861.64 975.40 852.29 975.38 842.94 975.42 C 839.31 975.41 835.24 975.15 832.48 972.48 C 829.92 970.07 829.43 966.34 829.42 963.00 C 829.44 943.67 829.44 924.34 829.42 905.00 C 829.42 901.66 829.92 897.95 832.46 895.54 M 849.93 909.01 C 849.92 914.29 849.92 919.58 849.92 924.86 C 854.50 924.86 859.08 924.86 863.67 924.86 C 863.66 919.58 863.66 914.29 863.67 909.02 C 859.08 909.01 854.50 909.01 849.93 909.01 Z" />
</g>
</svg>
