<?xml version="1.0" encoding="UTF-8" ?>
<!DOCTYPE svg PUBLIC "-//W3C//DTD SVG 1.1//EN" "http://www.w3.org/Graphics/SVG/1.1/DTD/svg11.dtd">
<svg width="1200pt" height="1200pt" viewBox="0 0 1200 1200" version="1.1" xmlns="http://www.w3.org/2000/svg">
<g id="#000000ff">
<path fill="#000000" opacity="1.00" d=" M 660.93 159.07 C 663.26 156.89 666.69 157.73 669.46 158.42 C 688.36 163.63 707.28 168.79 726.24 173.80 C 730.01 174.71 733.62 176.72 735.78 180.04 C 740.28 186.92 744.89 193.73 749.39 200.62 C 750.65 202.71 752.64 204.27 754.96 205.05 C 867.30 244.98 959.43 337.14 1000.17 449.09 C 1005.28 462.92 1009.40 477.09 1013.02 491.37 C 1016.97 490.73 1020.98 489.03 1025.03 489.89 C 1028.92 490.80 1031.22 495.17 1030.26 498.97 C 1027.90 513.34 1025.45 527.69 1023.03 542.04 C 1022.46 545.18 1021.68 548.92 1018.49 550.43 C 1014.54 552.54 1009.37 550.39 1007.77 546.31 C 1001.76 533.69 995.66 521.11 989.44 508.59 C 988.07 505.72 986.41 502.29 988.19 499.22 C 990.22 494.90 995.58 495.15 999.54 494.07 C 986.87 439.82 961.22 388.92 926.75 345.28 C 880.12 286.16 816.70 239.90 745.15 215.94 C 738.76 218.95 732.28 221.75 725.93 224.83 C 722.88 226.38 719.33 226.26 716.08 225.55 C 696.72 221.30 677.33 217.19 657.98 212.94 C 655.21 212.26 651.86 211.48 650.57 208.61 C 649.34 205.94 650.99 202.82 653.66 201.87 C 661.88 198.43 670.33 195.55 678.55 192.09 C 672.66 184.18 666.53 176.44 660.64 168.54 C 658.45 165.89 658.03 161.37 660.93 159.07 Z" />
<path fill="#000000" opacity="1.00" d=" M 491.41 175.05 C 492.60 171.05 497.30 169.40 501.10 170.37 C 515.40 172.86 529.70 175.44 544.00 177.96 C 546.29 178.40 548.80 178.78 550.58 180.44 C 554.37 183.71 553.53 190.97 548.70 192.83 C 535.65 199.05 522.58 205.24 509.55 211.51 C 506.65 212.98 502.96 213.83 500.10 211.84 C 496.27 209.46 496.73 204.35 495.55 200.53 C 447.42 211.93 401.56 232.68 361.21 261.27 C 295.97 307.08 245.25 373.30 218.43 448.39 C 217.76 451.23 215.27 454.22 216.87 457.15 C 219.58 463.07 222.38 468.96 225.14 474.86 C 226.72 478.04 226.45 481.71 225.71 485.08 C 221.57 504.40 217.56 523.75 213.52 543.09 C 212.88 545.78 212.11 549.03 209.31 550.25 C 206.58 551.85 203.26 549.60 202.29 546.94 C 198.98 538.74 195.86 530.46 192.62 522.24 C 184.20 528.23 176.26 534.87 167.81 540.81 C 163.33 544.24 156.46 539.22 158.31 533.90 C 163.39 513.87 168.93 493.96 174.03 473.93 C 174.82 470.34 176.74 466.95 179.88 464.93 C 185.47 461.18 191.16 457.57 196.75 453.81 C 199.85 451.69 203.84 449.97 204.97 446.02 C 222.71 395.23 251.07 348.22 287.41 308.56 C 328.25 264.09 378.74 228.29 434.89 205.87 C 453.73 198.24 473.16 192.11 492.91 187.30 C 492.18 183.27 490.48 179.17 491.41 175.05 Z" />
<path fill="#000000" opacity="1.00" d=" M 606.19 170.27 C 614.88 167.14 625.18 173.69 625.97 182.89 C 627.38 190.92 621.17 199.28 613.01 200.02 C 605.81 201.19 598.33 196.47 596.28 189.48 C 593.60 181.76 598.45 172.66 606.19 170.27 Z" />
<path fill="#000000" opacity="1.00" d=" M 574.47 174.55 C 582.28 172.39 590.08 181.25 586.72 188.69 C 584.24 196.10 573.17 197.89 568.58 191.53 C 563.79 185.82 567.17 176.05 574.47 174.55 Z" />
<path fill="#000000" opacity="1.00" d=" M 640.30 175.41 C 647.48 172.74 655.60 179.61 653.98 187.15 C 653.20 195.15 642.34 198.83 636.65 193.31 C 630.54 188.41 632.71 177.49 640.30 175.41 Z" />
<path fill="#000000" opacity="1.00" d=" M 387.93 370.95 C 400.62 348.74 429.78 338.31 453.89 346.22 C 461.40 348.77 467.83 355.67 467.40 363.99 C 466.57 373.35 458.27 381.61 448.94 382.51 C 443.08 383.02 437.70 376.30 440.94 370.89 C 443.33 365.95 449.85 365.65 453.98 368.56 C 455.51 365.68 456.67 362.08 454.95 359.02 C 453.27 355.82 449.42 354.78 446.05 355.04 C 438.48 354.77 431.26 358.67 426.58 364.49 C 418.38 374.55 415.72 388.39 417.96 401.02 C 419.55 410.32 424.85 418.96 432.64 424.35 C 437.58 427.91 443.33 430.06 449.15 431.72 C 452.81 432.34 455.52 437.04 453.27 440.29 C 450.96 443.62 446.46 443.61 442.86 444.14 C 427.83 445.88 412.33 450.48 401.07 461.04 C 393.48 468.27 386.90 477.01 384.24 487.29 C 380.65 502.04 380.34 518.18 386.78 532.21 C 391.64 543.42 401.30 553.20 413.60 555.58 C 423.48 557.03 433.94 555.66 442.69 550.68 C 455.59 543.50 464.55 531.00 470.97 518.01 C 476.04 507.46 480.07 496.32 482.43 484.85 C 478.86 463.77 477.11 442.27 478.58 420.90 C 479.88 405.61 483.07 390.14 490.50 376.58 C 495.60 367.33 503.42 359.00 513.72 355.75 C 522.23 353.03 531.77 353.55 539.98 357.02 C 549.47 361.66 553.04 373.08 552.54 382.98 C 551.70 397.22 546.20 410.82 539.01 422.99 C 530.70 436.69 519.37 449.36 504.35 455.72 C 505.13 475.25 505.20 495.06 509.97 514.13 C 511.79 520.55 513.99 527.34 519.02 531.99 C 522.07 534.83 527.53 536.14 530.70 532.79 C 535.31 528.22 537.65 521.95 539.92 516.00 C 541.94 510.02 543.99 504.00 545.10 497.79 C 544.39 492.83 542.84 487.98 542.76 482.93 C 542.22 470.52 544.22 457.53 550.76 446.79 C 554.90 439.96 561.58 434.51 569.47 432.77 C 574.99 431.44 581.33 431.38 586.14 434.82 C 591.60 438.68 594.05 445.44 594.80 451.85 C 595.88 461.61 593.78 472.42 586.59 479.56 C 581.12 485.12 573.36 487.62 565.75 488.35 C 566.63 498.44 569.04 508.74 574.92 517.16 C 577.50 520.64 581.34 524.38 586.08 523.58 C 592.19 522.80 597.01 518.26 600.24 513.29 C 604.97 505.92 607.58 497.45 609.78 489.05 C 610.92 485.76 609.46 482.45 608.90 479.22 C 606.62 467.98 605.68 456.49 605.50 445.04 C 605.40 440.73 606.63 435.87 610.52 433.46 C 614.74 430.93 620.41 430.78 624.72 433.19 C 627.82 434.93 629.17 438.57 629.14 441.99 C 629.85 462.82 628.79 484.30 635.73 504.30 C 637.94 510.02 640.89 516.57 646.97 519.00 C 651.24 518.47 654.20 514.85 656.49 511.52 C 661.64 503.43 664.58 494.12 666.41 484.76 C 654.09 472.35 647.13 455.32 645.42 438.06 C 644.72 430.28 645.08 422.21 647.92 414.85 C 649.36 411.35 651.69 407.87 655.32 406.39 C 660.86 404.22 667.47 406.31 671.21 410.83 C 676.25 416.77 678.04 424.65 679.33 432.15 C 681.70 448.39 680.52 464.93 678.21 481.11 C 684.21 484.61 691.10 486.28 698.03 486.24 C 697.97 472.17 699.88 457.48 707.12 445.17 C 710.94 438.74 717.02 433.43 724.38 431.60 C 729.70 430.16 735.91 429.97 740.58 433.33 C 744.93 436.45 746.74 441.92 747.27 447.05 C 748.78 465.20 738.39 484.85 720.61 490.88 C 721.63 498.95 722.60 507.29 726.34 514.64 C 728.24 518.42 731.65 521.76 735.99 522.34 C 741.35 521.87 745.92 518.42 749.53 514.64 C 754.94 508.85 758.56 501.67 761.53 494.39 C 762.42 492.03 763.63 489.57 762.99 486.99 C 760.82 473.10 761.06 458.98 761.93 445.00 C 761.82 440.49 764.59 436.07 769.01 434.79 C 775.48 432.32 785.55 435.14 786.23 443.03 C 786.07 457.17 785.28 471.30 785.30 485.45 C 788.31 468.62 791.35 451.45 799.01 436.00 C 802.72 428.82 807.98 421.56 816.00 418.97 C 823.26 416.39 831.92 419.41 836.27 425.70 C 841.00 432.46 842.03 441.00 842.49 449.03 C 843.24 472.20 837.77 494.94 836.25 517.96 C 836.20 522.71 835.57 527.88 837.82 532.26 C 839.37 534.94 843.07 533.57 844.88 531.89 C 849.88 527.43 852.42 520.99 854.86 514.91 C 859.88 501.35 862.89 487.14 865.36 472.93 C 865.72 471.29 865.95 469.43 867.30 468.27 C 869.23 466.46 872.73 466.51 874.35 468.73 C 875.90 470.89 875.04 473.68 874.83 476.11 C 872.29 492.69 868.93 509.45 861.55 524.64 C 857.77 531.98 852.61 539.67 844.36 542.31 C 835.84 544.62 825.79 541.83 820.34 534.71 C 814.94 527.70 813.36 518.63 812.61 510.03 C 811.25 489.50 815.09 469.16 817.26 448.82 C 817.81 443.04 818.53 437.10 817.01 431.40 C 815.10 432.26 813.11 433.19 811.90 434.98 C 807.78 440.57 805.68 447.32 803.62 453.86 C 798.52 470.84 796.01 488.46 791.39 505.56 C 790.29 508.85 789.27 513.60 785.05 513.94 C 778.22 515.69 771.83 511.10 768.58 505.41 C 765.03 513.83 760.08 522.11 752.40 527.36 C 744.52 532.81 733.81 534.13 725.07 529.95 C 711.48 523.73 703.20 509.79 699.56 495.79 C 691.63 496.33 683.84 494.38 676.44 491.71 C 674.22 502.10 671.22 512.92 663.92 520.98 C 657.35 528.28 646.02 531.36 636.94 527.12 C 626.75 522.46 620.39 512.46 615.94 502.59 C 612.81 511.89 608.59 521.41 600.83 527.77 C 593.87 533.50 583.93 535.32 575.40 532.38 C 565.32 529.11 557.57 521.21 551.83 512.58 C 549.33 520.87 546.51 529.28 541.27 536.29 C 538.10 540.59 533.41 544.19 527.91 544.52 C 519.28 545.02 510.81 541.24 504.74 535.23 C 496.73 527.31 491.87 516.86 488.21 506.36 C 482.81 523.88 474.19 540.98 460.50 553.48 C 450.35 562.81 436.85 568.54 423.00 568.59 C 410.68 568.68 398.61 565.23 387.16 560.96 C 372.84 555.32 359.42 546.04 351.35 532.68 C 343.83 520.38 341.41 505.16 344.38 491.08 C 347.88 473.66 358.33 458.07 372.04 446.97 C 382.99 438.12 396.70 433.29 410.58 431.64 C 401.20 427.72 392.47 421.40 387.45 412.39 C 380.27 399.76 380.60 383.45 387.93 370.95 M 525.78 368.81 C 517.96 373.07 514.32 381.88 511.58 389.89 C 506.08 407.66 504.88 426.45 504.64 444.95 C 512.93 440.50 519.79 433.79 525.27 426.21 C 532.82 415.58 538.41 403.36 540.65 390.48 C 541.41 383.83 541.93 376.50 538.53 370.46 C 535.96 365.94 529.74 366.90 525.78 368.81 M 657.74 417.74 C 655.21 422.37 655.76 427.94 655.93 433.03 C 657.12 446.79 660.80 460.69 668.53 472.28 C 669.61 459.16 669.93 445.90 668.13 432.83 C 667.26 427.70 666.34 422.18 662.98 418.02 C 661.80 416.38 658.81 415.54 657.74 417.74 M 729.12 440.10 C 725.27 443.13 723.68 448.05 722.34 452.58 C 719.91 461.98 719.46 471.80 719.93 481.48 C 731.21 475.38 737.87 462.58 737.98 449.95 C 737.90 446.72 737.56 443.19 735.49 440.57 C 733.97 438.59 730.94 438.52 729.12 440.10 M 567.88 450.02 C 564.71 459.42 564.54 469.55 565.14 479.36 C 572.59 479.05 579.57 474.38 582.41 467.45 C 585.44 460.12 586.71 450.94 582.03 444.01 C 580.68 442.16 578.77 439.75 576.17 440.39 C 571.66 441.43 569.33 446.03 567.88 450.02 Z" />
<path fill="#000000" opacity="1.00" d=" M 182.40 549.70 C 189.87 546.52 198.60 554.07 196.59 561.89 C 195.32 569.20 185.67 572.60 179.95 568.01 C 173.30 563.60 174.78 552.19 182.40 549.70 Z" />
<path fill="#000000" opacity="1.00" d=" M 772.70 560.73 C 781.97 552.62 795.45 548.72 807.40 552.50 C 814.51 554.72 819.49 561.13 821.55 568.10 C 824.82 579.03 824.39 590.75 822.44 601.89 C 819.36 618.24 812.97 633.96 803.81 647.83 C 796.79 658.38 787.81 668.01 776.36 673.76 C 777.60 687.13 778.59 700.54 780.63 713.82 C 781.82 699.81 783.43 685.43 789.50 672.57 C 792.60 666.12 797.70 659.79 805.08 658.32 C 814.61 656.66 824.65 660.82 830.87 668.10 C 837.69 676.00 840.95 686.34 842.27 696.54 C 844.27 712.32 843.01 728.26 844.26 744.08 C 844.73 748.08 844.89 752.95 848.67 755.37 C 852.90 750.98 854.50 744.95 856.24 739.29 C 860.44 724.17 862.86 708.61 864.79 693.05 C 864.90 690.88 865.67 688.50 864.44 686.52 C 859.21 676.95 854.99 666.73 852.90 655.99 C 851.05 645.88 854.48 634.15 863.40 628.35 C 872.62 622.43 886.44 622.44 894.30 630.68 C 900.95 638.24 900.62 649.39 898.36 658.61 C 897.38 662.72 890.50 662.56 890.48 658.00 C 890.85 653.34 892.21 648.64 891.07 643.97 C 890.15 638.06 885.28 632.34 879.00 632.22 C 874.78 631.91 871.20 635.40 870.44 639.38 C 868.80 646.52 871.88 653.56 875.37 659.64 C 888.81 682.25 908.00 700.78 921.74 723.20 C 930.06 713.10 935.89 700.95 938.00 688.01 C 938.65 684.81 938.74 681.51 939.59 678.36 C 941.28 674.60 948.24 675.88 948.48 680.01 C 948.05 699.52 941.07 719.52 926.40 732.90 C 929.21 744.35 928.45 756.59 924.66 767.74 C 921.91 775.69 916.87 783.24 909.34 787.34 C 903.52 790.46 896.62 791.71 890.11 790.57 C 885.31 789.72 880.76 786.81 878.66 782.33 C 875.79 776.50 876.55 769.62 878.71 763.70 C 882.37 753.65 890.02 745.53 898.78 739.62 C 891.67 725.98 882.14 713.86 873.55 701.17 C 872.02 715.84 870.12 730.60 865.68 744.72 C 863.56 750.94 861.01 757.45 855.96 761.90 C 851.51 765.81 845.10 765.25 839.69 764.26 C 830.17 762.53 821.62 755.83 818.26 746.67 C 814.18 735.62 814.21 723.66 813.46 712.06 C 812.75 700.17 812.61 688.17 810.25 676.46 C 809.40 673.52 808.79 669.86 805.92 668.19 C 802.00 668.31 800.15 672.59 798.58 675.60 C 793.37 687.69 791.61 700.92 790.16 713.91 C 789.19 723.58 788.75 733.35 789.91 743.02 C 790.11 749.07 781.59 751.11 777.70 747.31 C 771.66 741.71 767.43 734.48 763.73 727.20 C 761.92 739.05 759.70 751.19 753.79 761.78 C 750.61 767.42 745.60 772.60 739.01 773.89 C 729.42 775.73 719.22 772.42 712.10 765.84 C 703.58 758.05 698.52 747.34 694.66 736.66 C 691.56 751.50 688.03 767.24 677.89 779.03 C 668.93 789.68 650.68 788.24 642.30 777.62 C 635.36 769.03 633.23 757.75 631.90 747.08 C 629.31 722.76 632.37 698.36 633.04 674.02 C 633.01 668.30 633.48 662.24 630.83 656.96 C 628.84 657.72 626.81 658.66 625.58 660.50 C 621.70 665.70 619.94 672.09 618.21 678.25 C 612.71 699.88 611.17 722.24 607.20 744.15 C 606.26 747.90 605.95 752.23 603.21 755.19 C 598.50 757.81 592.30 757.30 588.01 754.06 C 583.02 750.42 580.30 744.64 578.02 739.09 C 572.00 746.70 562.96 751.81 553.22 752.49 C 550.15 759.55 546.07 767.16 538.59 770.28 C 527.84 773.97 515.46 771.32 506.63 764.33 C 502.40 761.19 499.12 757.00 495.98 752.82 C 492.32 764.78 487.47 777.31 477.56 785.49 C 471.30 790.81 462.53 790.82 454.83 789.66 C 446.80 788.45 439.15 784.30 434.23 777.77 C 427.08 768.44 424.66 756.51 423.48 745.07 C 420.97 715.43 426.59 685.99 429.27 656.57 C 429.77 649.89 430.37 643.13 429.37 636.48 C 428.90 634.34 428.32 631.58 425.98 630.80 C 420.90 630.41 416.66 634.02 413.66 637.73 C 407.93 645.06 404.61 653.91 401.69 662.64 C 394.60 685.15 391.10 708.61 388.76 732.04 C 387.94 738.89 378.86 742.90 373.44 738.37 C 368.70 734.62 370.38 728.07 370.54 722.88 C 371.17 702.90 370.48 682.90 369.39 662.95 C 368.29 645.50 366.90 628.03 363.70 610.83 C 362.40 604.40 361.02 597.86 358.03 591.98 C 356.89 589.85 354.91 586.97 352.08 588.18 C 346.45 590.11 343.20 595.65 340.49 600.60 C 333.88 613.78 330.41 628.24 327.32 642.58 C 322.16 667.84 319.16 693.50 317.18 719.20 C 315.74 739.43 314.77 759.75 315.80 780.03 C 315.89 782.54 314.03 784.81 311.66 785.49 C 307.16 786.86 301.60 784.80 299.61 780.42 C 293.68 768.15 289.50 755.13 285.59 742.11 C 278.99 719.36 273.92 696.12 271.24 672.57 C 269.48 656.39 268.73 639.97 270.86 623.80 C 271.33 618.99 275.15 615.34 279.27 613.29 C 284.38 610.79 290.64 609.73 295.99 612.11 C 299.92 613.76 302.42 617.88 302.59 622.07 C 301.38 648.19 303.96 674.29 305.57 700.34 C 307.35 675.37 309.85 650.30 316.41 626.07 C 319.78 613.90 324.00 601.69 331.29 591.26 C 335.74 584.92 341.98 579.24 349.79 577.74 C 360.75 575.57 372.75 579.40 380.01 587.99 C 389.53 599.04 393.06 613.77 395.13 627.86 C 396.06 634.70 396.53 641.60 396.68 648.51 C 400.34 640.00 404.96 631.39 412.59 625.80 C 421.35 619.20 434.54 618.91 443.28 625.69 C 450.10 631.12 453.14 639.78 454.87 648.04 C 457.93 663.50 457.25 679.38 456.52 695.02 C 455.60 713.02 453.67 730.98 453.70 749.02 C 453.87 756.44 454.00 764.09 456.58 771.15 C 457.91 774.85 460.74 778.62 464.95 779.01 C 470.20 779.93 473.46 774.76 476.05 771.07 C 482.35 760.68 486.43 748.92 488.69 737.04 C 485.29 723.48 484.43 708.13 491.68 695.62 C 493.51 691.96 497.03 689.70 499.74 686.84 C 501.19 681.89 502.37 676.71 505.61 672.55 C 512.36 662.84 526.19 659.65 536.92 664.03 C 544.90 667.27 550.32 674.66 553.60 682.37 C 561.21 701.29 560.99 722.61 556.53 742.27 C 564.45 740.37 571.19 734.53 574.20 726.98 C 574.32 723.59 573.11 720.27 572.77 716.91 C 570.83 703.03 570.05 688.97 570.41 674.97 C 570.96 667.14 580.11 663.27 586.99 665.01 C 591.54 665.80 595.99 669.31 596.28 674.19 C 597.10 693.35 597.43 712.55 598.84 731.68 C 600.97 710.28 602.81 688.51 610.03 668.09 C 613.56 658.66 618.63 648.56 628.19 644.05 C 635.98 640.18 646.02 642.89 651.30 649.65 C 656.96 656.81 658.75 666.10 659.90 674.93 C 662.06 694.91 660.13 715.00 659.02 734.98 C 658.47 745.62 657.58 756.34 658.79 766.97 C 659.32 770.36 659.86 774.48 663.04 776.47 C 666.13 777.28 669.03 775.23 670.95 773.01 C 674.68 768.60 676.82 763.12 678.72 757.74 C 683.03 744.84 685.25 731.38 687.17 717.95 C 687.58 714.97 688.16 711.93 687.57 708.93 C 682.47 680.56 681.48 651.61 681.96 622.85 C 670.35 626.57 657.85 628.90 645.76 626.20 C 637.30 624.40 629.23 620.75 622.16 615.79 C 619.10 613.79 619.87 608.43 623.45 607.49 C 625.94 606.67 628.08 608.63 630.11 609.75 C 638.96 615.43 649.56 618.38 660.08 617.78 C 667.66 617.50 675.05 615.52 682.13 612.92 C 682.70 606.66 682.05 599.55 686.40 594.43 C 691.58 588.04 702.44 588.09 707.71 594.34 C 709.91 596.68 710.50 599.92 711.00 602.98 C 723.64 598.50 737.40 595.09 750.77 598.32 C 755.12 584.42 761.53 570.48 772.70 560.73 M 788.94 572.99 C 783.13 581.02 780.50 590.82 778.59 600.41 C 774.90 620.76 774.61 641.59 775.71 662.20 C 788.57 654.14 797.28 641.03 803.29 627.37 C 810.47 610.75 814.92 592.06 810.60 574.08 C 809.58 570.45 807.96 566.11 804.02 564.86 C 797.91 564.18 792.42 568.33 788.94 572.99 M 709.62 613.51 C 709.22 641.74 710.33 670.01 713.30 698.08 C 715.13 713.87 717.29 729.73 722.05 744.94 C 724.12 751.04 726.39 757.39 730.93 762.14 C 733.15 764.53 737.03 766.06 740.02 764.11 C 744.12 761.25 746.07 756.37 747.81 751.87 C 752.36 738.87 754.06 725.11 755.76 711.51 C 756.52 707.61 754.72 703.96 753.75 700.29 C 750.43 688.38 748.12 676.19 746.68 663.91 C 744.56 645.03 744.02 625.69 748.43 607.08 C 735.14 604.73 721.96 609.00 709.62 613.51 M 516.42 674.48 C 513.81 676.70 512.40 679.89 511.03 682.94 C 514.18 683.04 517.37 682.82 520.50 683.35 C 524.53 684.12 526.83 689.72 523.86 692.81 C 521.67 694.31 518.84 694.91 517.14 697.06 C 513.85 700.98 512.25 706.06 511.69 711.08 C 511.46 713.53 511.10 716.21 512.45 718.44 C 519.02 730.92 531.93 739.71 545.90 741.51 C 548.77 727.11 548.97 712.15 546.25 697.72 C 544.53 689.63 541.95 681.14 535.86 675.22 C 530.82 670.13 521.76 669.59 516.42 674.48 M 515.29 740.49 C 518.88 747.96 524.18 756.27 532.94 757.93 C 537.50 758.99 540.26 754.70 542.28 751.40 C 532.61 749.80 523.22 746.31 515.29 740.49 M 887.89 767.97 C 886.92 772.58 887.67 778.34 891.95 781.09 C 897.31 784.18 905.26 781.10 906.72 774.93 C 908.86 765.84 905.78 756.56 902.51 748.14 C 895.85 753.07 889.58 759.58 887.89 767.97 Z" />
<path fill="#000000" opacity="1.00" d=" M 1014.40 564.45 C 1021.90 561.85 1030.05 569.46 1027.80 577.13 C 1026.28 584.97 1015.19 587.67 1009.95 581.84 C 1004.45 576.67 1007.00 566.27 1014.40 564.45 Z" />
<path fill="#000000" opacity="1.00" d=" M 182.41 578.71 C 191.71 576.30 201.76 584.40 201.28 594.02 C 201.50 603.37 191.60 611.05 182.60 608.60 C 174.88 606.99 169.39 598.72 170.88 590.99 C 171.78 585.06 176.55 579.98 182.41 578.71 Z" />
<path fill="#000000" opacity="1.00" d=" M 1015.48 593.64 C 1024.43 591.35 1034.15 598.64 1034.05 607.96 C 1034.85 617.39 1025.17 625.34 1016.06 623.40 C 1008.47 622.27 1002.40 614.75 1003.54 607.01 C 1003.93 600.54 1009.11 594.79 1015.48 593.64 Z" />
<path fill="#000000" opacity="1.00" d=" M 182.33 616.37 C 189.32 614.06 197.18 620.69 195.79 628.01 C 195.26 636.11 184.21 640.08 178.52 634.37 C 172.15 629.45 174.47 618.24 182.33 616.37 Z" />
<path fill="#000000" opacity="1.00" d=" M 1015.26 631.37 C 1021.45 628.48 1029.56 633.13 1029.88 640.03 C 1030.65 645.49 1026.40 650.92 1020.90 651.39 C 1015.23 652.34 1009.22 647.88 1008.93 642.07 C 1008.30 637.53 1011.20 633.19 1015.26 631.37 Z" />
<path fill="#000000" opacity="1.00" d=" M 992.92 652.76 C 993.52 649.99 994.82 646.67 997.94 646.05 C 1000.65 645.37 1003.12 647.53 1004.00 649.96 C 1007.32 658.00 1010.16 666.23 1013.56 674.25 C 1021.58 668.38 1029.39 662.22 1037.42 656.36 C 1039.93 654.28 1044.09 653.98 1046.34 656.61 C 1048.52 658.59 1048.11 661.82 1047.50 664.41 C 1042.16 683.90 1036.89 703.41 1031.67 722.93 C 1030.94 726.00 1029.40 728.96 1026.70 730.73 C 1019.34 735.71 1011.86 740.52 1004.44 745.40 C 1002.59 746.55 1001.40 748.43 1000.68 750.44 C 971.78 832.64 914.46 903.86 842.28 952.26 C 811.98 972.72 778.67 988.55 744.03 1000.11 C 734.05 1003.45 723.84 1006.01 713.76 1009.01 C 714.56 1013.48 716.94 1018.30 714.68 1022.71 C 712.81 1026.12 708.47 1026.78 704.98 1025.96 C 690.03 1023.21 675.00 1020.92 660.08 1018.02 C 653.32 1017.32 651.96 1006.63 658.00 1003.97 C 670.77 997.69 683.66 991.66 696.44 985.39 C 699.65 983.66 703.83 982.58 707.07 984.88 C 710.41 987.43 710.26 992.04 711.07 995.79 C 750.18 985.89 787.89 970.29 822.32 949.25 C 879.68 913.90 928.08 863.95 961.17 805.22 C 972.65 784.72 982.12 763.13 989.82 740.94 C 987.15 735.02 984.49 729.11 981.58 723.31 C 979.43 719.16 979.60 714.28 980.63 709.85 C 984.85 690.84 988.80 671.78 992.92 652.76 Z" />
<path fill="#000000" opacity="1.00" d=" M 180.09 658.90 C 180.42 654.38 185.40 650.91 189.73 652.37 C 192.30 653.15 194.01 655.41 195.18 657.71 C 201.19 669.38 207.16 681.07 213.20 692.73 C 214.89 696.01 217.18 699.83 215.50 703.60 C 213.50 707.87 208.18 708.12 204.20 709.27 C 224.20 782.29 265.90 849.22 322.52 899.47 C 360.54 933.59 405.04 960.67 453.41 977.31 C 457.63 978.60 461.67 980.57 466.05 981.28 C 469.71 980.17 472.88 977.94 476.38 976.44 C 481.98 973.95 487.38 969.35 493.94 970.81 C 513.50 974.43 533.06 978.05 552.62 981.68 C 555.65 982.31 559.30 983.05 560.80 986.12 C 561.82 988.73 560.29 991.67 557.73 992.66 C 549.60 996.28 541.36 999.64 533.18 1003.14 C 539.25 1010.95 545.61 1018.54 551.68 1026.36 C 553.91 1028.90 554.42 1033.26 551.74 1035.69 C 549.71 1037.82 546.52 1037.43 543.93 1036.80 C 525.96 1032.48 507.99 1028.13 490.00 1023.91 C 486.89 1023.13 483.65 1022.67 480.79 1021.19 C 477.46 1019.14 475.65 1015.52 473.38 1012.48 C 469.46 1007.07 465.74 1001.52 461.88 996.06 C 460.15 993.41 456.92 992.68 454.13 991.71 C 400.11 973.94 350.52 943.70 308.90 905.08 C 252.61 853.53 211.27 785.91 191.01 712.33 C 186.41 713.00 181.35 715.58 176.89 713.12 C 173.82 711.48 172.96 707.65 173.60 704.46 C 175.91 689.30 177.62 674.04 180.09 658.90 Z" />
<path fill="#000000" opacity="1.00" d=" M 596.28 996.13 C 605.14 993.31 615.48 1000.57 615.27 1010.01 C 615.98 1018.55 608.46 1026.35 599.96 1026.25 C 591.02 1026.64 583.40 1017.61 585.01 1008.88 C 585.73 1002.83 590.42 997.64 596.28 996.13 Z" />
<path fill="#000000" opacity="1.00" d=" M 562.35 999.59 C 569.51 996.34 578.14 1003.31 576.48 1011.00 C 575.78 1019.21 564.52 1022.86 558.87 1017.10 C 553.34 1012.14 555.44 1002.13 562.35 999.59 Z" />
<path fill="#000000" opacity="1.00" d=" M 629.35 1002.46 C 636.44 999.61 644.56 1006.62 642.89 1014.04 C 642.09 1022.03 631.24 1026.02 625.49 1020.40 C 619.40 1015.39 621.99 1004.72 629.35 1002.46 Z" />
</g>
</svg>
