<?xml version="1.0" encoding="UTF-8" ?>
<!DOCTYPE svg PUBLIC "-//W3C//DTD SVG 1.1//EN" "http://www.w3.org/Graphics/SVG/1.1/DTD/svg11.dtd">
<svg width="1200pt" height="1200pt" viewBox="0 0 1200 1200" version="1.1" xmlns="http://www.w3.org/2000/svg">
<g id="#000000ff">
<path fill="#000000" opacity="1.00" d=" M 660.97 159.04 C 663.29 156.90 666.69 157.72 669.43 158.41 C 688.88 163.82 708.39 169.01 727.88 174.30 C 732.74 175.53 735.89 179.69 738.28 183.81 C 741.91 189.47 745.78 194.97 749.40 200.64 C 750.65 202.75 752.67 204.30 755.01 205.07 C 870.52 246.13 964.62 342.44 1003.52 458.64 C 1007.17 469.40 1010.20 480.36 1013.01 491.37 C 1016.65 490.76 1020.25 489.40 1023.98 489.68 C 1028.35 490.06 1031.36 494.77 1030.27 498.95 C 1027.90 513.30 1025.46 527.65 1023.04 542.00 C 1022.47 544.71 1022.03 547.86 1019.67 549.66 C 1016.66 552.11 1011.82 551.62 1009.31 548.70 C 1008.05 547.20 1007.30 545.37 1006.45 543.64 C 1000.78 531.43 994.71 519.41 988.84 507.29 C 987.43 504.59 986.66 501.16 988.60 498.50 C 990.94 494.81 995.80 495.16 999.54 494.07 C 986.32 437.51 959.04 384.59 922.29 339.75 C 879.29 287.10 822.80 245.26 759.22 220.97 C 754.51 219.37 749.95 217.16 745.09 216.14 C 738.36 218.87 731.84 222.10 725.24 225.13 C 722.35 226.42 719.08 226.17 716.08 225.56 C 696.44 221.22 676.76 217.09 657.13 212.74 C 654.40 212.09 651.05 210.92 650.33 207.85 C 649.57 205.28 651.33 202.73 653.70 201.83 C 661.92 198.44 670.35 195.53 678.55 192.09 C 672.63 184.15 666.49 176.38 660.57 168.45 C 658.41 165.80 658.07 161.29 660.97 159.04 Z" />
<path fill="#000000" opacity="1.00" d=" M 491.38 175.13 C 492.52 171.10 497.24 169.39 501.06 170.36 C 516.49 173.15 531.98 175.67 547.36 178.69 C 553.60 179.90 555.02 189.50 549.44 192.42 C 536.88 198.54 524.18 204.42 511.61 210.53 C 508.32 212.14 504.38 214.19 500.79 212.23 C 496.30 210.16 496.77 204.57 495.55 200.53 C 443.94 212.74 394.98 235.74 352.56 267.55 C 308.02 300.63 270.86 343.49 243.92 391.96 C 233.08 411.62 224.04 432.26 216.63 453.45 C 215.99 454.67 216.24 455.99 216.87 457.16 C 219.62 463.07 222.37 469.00 225.16 474.90 C 227.34 479.31 225.89 484.29 224.91 488.82 C 221.06 506.90 217.29 525.00 213.52 543.11 C 212.89 545.79 212.12 549.02 209.33 550.24 C 206.59 551.86 203.23 549.60 202.27 546.91 C 198.98 538.72 195.85 530.46 192.62 522.25 C 184.18 528.24 176.23 534.89 167.77 540.84 C 163.31 544.20 156.51 539.24 158.29 533.96 C 163.48 513.64 169.05 493.42 174.27 473.11 C 175.10 469.30 177.68 466.13 180.99 464.15 C 187.71 459.83 194.33 455.37 201.03 451.02 C 202.89 449.88 204.30 448.11 204.97 446.03 C 222.96 394.52 251.86 346.91 288.94 306.91 C 330.52 262.08 382.00 226.26 439.10 204.20 C 456.62 197.34 474.62 191.75 492.90 187.30 C 492.21 183.29 490.48 179.24 491.38 175.13 Z" />
<path fill="#000000" opacity="1.00" d=" M 606.29 170.24 C 615.35 167.02 625.95 174.34 626.05 183.96 C 626.98 192.04 620.16 199.89 612.04 200.11 C 605.14 200.81 598.28 196.15 596.30 189.52 C 593.56 181.76 598.48 172.58 606.29 170.24 Z" />
<path fill="#000000" opacity="1.00" d=" M 574.37 174.57 C 581.12 172.70 588.31 179.03 587.40 185.94 C 586.91 192.25 580.10 196.96 574.02 195.11 C 568.09 193.75 564.75 186.61 567.05 181.09 C 568.32 177.95 571.04 175.36 574.37 174.57 Z" />
<path fill="#000000" opacity="1.00" d=" M 640.31 175.41 C 647.48 172.75 655.58 179.60 653.98 187.13 C 653.21 195.44 641.66 198.95 636.16 192.84 C 630.57 187.74 633.00 177.41 640.31 175.41 Z" />
<path fill="#000000" opacity="1.00" d=" M 554.03 341.88 C 565.50 338.11 578.53 337.10 589.72 342.33 C 596.85 345.59 602.04 352.48 603.39 360.18 C 605.28 368.20 602.20 376.74 596.59 382.55 C 591.19 388.30 583.64 391.60 575.96 392.91 C 564.83 394.90 553.49 392.81 542.65 390.15 C 540.44 415.68 538.90 441.28 535.67 466.71 C 546.20 470.01 557.92 472.56 568.62 468.53 C 572.59 467.22 575.65 464.30 579.12 462.12 C 582.38 460.60 585.49 464.99 583.76 467.83 C 580.92 471.99 576.59 474.96 572.09 477.11 C 560.02 482.41 546.24 481.43 533.72 478.33 C 529.87 497.39 524.44 516.49 514.24 533.22 C 507.02 545.27 497.04 555.82 484.82 562.85 C 470.43 571.26 453.52 574.51 437.01 574.53 C 423.23 574.51 408.96 569.84 399.44 559.54 C 389.50 549.00 385.16 534.29 384.88 520.05 C 384.70 505.06 389.76 489.39 401.14 479.18 C 414.37 467.49 433.95 464.03 450.68 469.16 C 462.50 472.42 472.91 480.74 478.13 491.91 C 481.94 500.31 483.94 509.93 481.75 519.05 C 479.95 527.67 475.93 536.29 468.87 541.82 C 464.16 545.34 457.86 547.42 452.03 545.90 C 448.01 544.88 445.29 541.01 444.80 537.03 C 445.32 534.58 447.82 533.17 449.21 531.20 C 455.63 524.15 457.29 514.24 457.12 505.03 C 456.76 497.57 454.88 489.84 450.12 483.92 C 447.59 480.78 444.03 478.35 440.01 477.69 C 429.22 476.39 417.86 480.65 410.80 488.96 C 402.37 498.81 399.05 512.27 399.93 525.03 C 400.52 534.91 404.10 544.80 410.82 552.16 C 416.70 558.66 425.27 562.43 433.96 562.99 C 448.10 563.71 462.76 558.90 472.85 548.77 C 483.19 538.62 488.97 524.93 493.19 511.32 C 497.50 497.32 500.39 482.93 502.31 468.42 C 494.70 465.65 485.84 464.92 478.33 468.37 C 475.53 469.42 474.49 473.59 471.03 472.96 C 468.00 472.78 466.26 469.08 467.68 466.51 C 470.37 461.30 475.44 457.52 481.07 456.01 C 488.38 453.81 496.18 454.61 503.51 456.32 C 507.23 431.44 510.81 406.48 516.90 382.04 C 495.72 374.16 472.83 370.06 450.24 372.24 C 439.21 373.37 427.63 376.47 419.51 384.44 C 412.50 391.23 410.06 401.51 410.81 411.00 C 411.46 418.86 416.67 425.93 423.61 429.52 C 437.15 437.06 456.24 431.82 463.74 418.16 C 460.18 415.21 457.88 410.37 459.54 405.78 C 461.33 399.51 469.48 396.92 474.95 400.04 C 479.75 402.76 481.74 408.70 481.40 413.97 C 480.77 421.66 476.02 428.29 470.46 433.33 C 462.10 440.78 451.24 445.64 440.00 446.12 C 426.73 446.14 412.94 441.04 404.43 430.54 C 396.86 421.65 394.90 408.95 397.95 397.85 C 400.75 383.84 410.58 371.67 423.33 365.37 C 435.58 359.39 449.52 357.64 463.02 358.20 C 482.95 359.20 502.79 362.85 521.64 369.44 C 528.13 356.35 540.14 346.29 554.03 341.88 M 554.25 357.27 C 548.75 362.65 545.75 370.01 544.07 377.39 C 554.37 380.28 565.26 382.35 575.94 380.56 C 582.15 379.49 588.64 375.83 590.51 369.43 C 592.92 360.78 586.53 351.33 577.91 349.57 C 569.38 348.01 560.29 351.10 554.25 357.27 Z" />
<path fill="#000000" opacity="1.00" d=" M 687.38 411.59 C 693.37 409.41 700.45 411.58 704.49 416.43 C 709.82 422.73 711.75 431.06 713.02 439.02 C 715.23 454.70 714.09 470.66 711.73 486.26 C 717.95 489.73 725.04 491.31 732.14 491.25 C 732.10 477.27 734.13 462.65 741.57 450.54 C 745.98 443.16 753.49 437.59 762.05 436.18 C 768.24 434.84 775.66 435.81 779.85 441.01 C 784.89 447.41 785.00 456.26 783.50 463.92 C 780.93 478.52 770.51 491.78 756.24 496.42 C 757.40 504.58 758.43 513.07 762.62 520.34 C 764.73 524.04 768.54 527.19 772.96 527.25 C 780.67 525.95 786.63 520.11 791.02 513.99 C 798.86 502.68 803.03 489.27 805.61 475.88 C 806.51 470.38 815.97 471.18 815.57 476.93 C 813.36 491.78 809.72 506.86 801.85 519.83 C 796.69 528.31 788.51 535.45 778.55 537.34 C 770.11 539.34 761.17 536.74 754.19 531.86 C 743.82 524.79 737.16 513.33 733.84 501.41 C 725.63 502.03 717.52 500.07 709.80 497.46 C 707.50 507.67 704.40 518.27 697.15 526.14 C 690.07 533.97 677.91 537.17 668.14 532.78 C 657.74 528.33 650.98 518.48 646.18 508.65 C 643.27 516.11 639.16 523.76 631.98 527.89 C 623.11 532.92 611.37 530.75 603.86 524.20 C 596.76 518.01 592.52 509.23 589.80 500.35 C 585.38 485.42 584.42 469.53 586.58 454.13 C 587.20 450.37 587.49 446.14 590.32 443.28 C 595.34 438.07 604.33 437.68 609.99 442.06 C 612.39 443.90 613.73 446.94 613.51 449.96 C 612.61 466.69 611.99 483.51 613.76 500.20 C 614.51 505.93 615.20 511.87 617.99 517.03 C 618.97 518.90 620.68 520.85 623.04 520.45 C 628.05 520.06 631.07 515.31 633.21 511.28 C 636.25 504.85 638.65 498.02 639.85 491.01 C 636.77 477.20 634.83 463.08 634.99 448.91 C 635.14 445.11 636.68 441.11 640.01 439.00 C 644.36 436.27 650.15 436.05 654.79 438.17 C 658.14 439.72 660.10 443.33 660.08 446.96 C 660.86 466.67 659.91 486.87 665.86 505.93 C 668.17 513.15 671.61 521.02 678.91 524.41 C 684.34 522.89 687.96 518.26 690.63 513.57 C 694.65 506.35 697.31 498.40 698.93 490.30 C 686.00 477.97 678.50 460.63 676.79 442.97 C 676.11 435.62 676.56 428.04 679.11 421.07 C 680.63 417.10 683.29 413.19 687.38 411.59 M 689.85 423.78 C 687.47 428.48 688.05 434.01 688.28 439.11 C 689.57 452.53 693.52 466.00 701.23 477.18 C 702.25 464.46 702.58 451.60 700.77 438.94 C 699.88 433.64 698.87 427.94 695.27 423.73 C 693.98 422.05 690.83 421.45 689.85 423.78 M 765.39 445.45 C 761.62 447.89 759.89 452.31 758.48 456.38 C 755.47 466.04 755.03 476.30 755.48 486.35 C 766.94 480.49 774.02 467.70 774.06 454.97 C 773.94 451.97 773.51 448.73 771.61 446.29 C 770.16 444.42 767.29 444.08 765.39 445.45 Z" />
<path fill="#000000" opacity="1.00" d=" M 597.43 412.69 C 604.16 409.55 613.34 413.01 615.49 420.32 C 617.73 426.47 614.12 433.85 607.94 435.91 C 601.62 438.44 593.53 435.47 590.90 429.06 C 588.12 423.01 591.24 415.16 597.43 412.69 Z" />
<path fill="#000000" opacity="1.00" d=" M 776.34 550.32 C 785.64 542.31 798.97 538.73 810.88 542.23 C 817.87 544.18 823.19 550.12 825.45 556.89 C 828.55 566.06 828.30 575.97 827.21 585.48 C 824.32 605.33 816.22 624.33 804.48 640.56 C 797.01 650.68 787.75 659.92 776.13 665.13 C 776.69 678.61 777.21 692.10 778.59 705.53 C 780.28 691.69 782.56 677.56 788.92 664.99 C 792.41 658.19 798.13 651.52 806.15 650.51 C 815.20 649.59 824.44 653.69 830.30 660.57 C 836.61 667.89 839.72 677.41 841.11 686.84 C 843.49 705.15 840.64 723.61 841.69 741.97 C 842.12 745.26 842.07 749.83 845.77 751.26 C 850.02 746.66 851.90 740.55 853.89 734.75 C 858.93 718.87 862.16 702.49 864.68 686.05 C 865.11 684.38 864.70 682.74 863.91 681.28 C 859.50 672.35 856.25 662.84 854.37 653.06 C 852.66 644.65 854.16 635.33 859.42 628.43 C 867.95 617.06 887.15 615.62 896.80 626.26 C 903.31 633.97 902.54 645.08 900.24 654.29 C 899.83 657.60 895.36 659.66 892.90 657.09 C 890.86 654.78 892.28 651.69 892.69 649.08 C 894.15 642.35 893.14 634.06 887.22 629.72 C 883.57 626.83 877.52 626.54 874.52 630.51 C 870.98 635.34 871.52 641.98 873.34 647.39 C 876.93 657.41 883.00 666.28 888.93 675.04 C 899.52 690.66 911.53 705.37 920.63 721.96 C 929.44 712.13 935.67 700.08 938.43 687.16 C 939.23 683.91 939.51 680.55 940.41 677.34 C 942.18 673.36 949.34 674.92 949.62 679.17 C 948.28 699.04 940.55 719.19 925.01 732.26 C 927.34 743.81 926.04 755.94 922.04 766.97 C 918.83 775.54 913.01 783.65 904.47 787.48 C 898.40 790.03 891.45 791.17 885.05 789.24 C 879.92 788.01 875.51 784.07 873.96 779.01 C 871.52 771.46 873.92 763.29 877.69 756.63 C 882.12 748.69 889.15 742.63 896.62 737.64 C 889.92 723.64 881.09 710.85 872.93 697.69 C 870.71 712.67 868.15 727.74 862.98 742.03 C 860.53 748.33 857.55 754.90 852.01 759.06 C 847.51 762.43 841.48 761.54 836.36 760.46 C 827.02 758.44 818.77 751.67 815.46 742.64 C 811.95 732.81 811.93 722.23 811.74 711.93 C 811.46 698.44 811.98 684.89 810.28 671.48 C 809.63 667.99 809.24 664.01 806.67 661.33 C 804.93 660.01 802.95 661.77 801.75 663.00 C 798.08 667.32 796.21 672.81 794.41 678.11 C 789.94 692.67 787.63 707.84 786.62 723.02 C 786.18 727.70 786.72 732.38 786.77 737.06 C 785.95 742.62 778.18 744.12 774.42 740.50 C 768.41 734.63 764.54 726.99 760.94 719.50 C 758.35 731.91 755.63 744.79 748.38 755.44 C 745.06 760.19 740.34 764.37 734.48 765.41 C 724.70 767.04 714.43 763.34 707.44 756.40 C 698.99 747.99 694.11 736.72 690.76 725.45 C 687.07 740.43 682.82 756.31 672.01 767.88 C 662.92 777.96 645.34 776.23 637.03 766.04 C 630.51 758.28 628.50 747.91 627.29 738.13 C 624.54 710.67 629.74 683.32 631.29 655.96 C 631.25 651.04 632.17 645.53 629.24 641.22 C 627.14 642.30 624.97 643.49 623.65 645.54 C 619.96 650.74 617.95 656.90 616.03 662.93 C 609.65 684.54 607.13 707.03 602.24 728.98 C 601.18 732.75 600.66 737.00 597.93 740.00 C 593.16 742.69 586.74 741.96 582.53 738.49 C 577.58 734.61 574.97 728.66 572.93 722.89 C 566.55 730.27 557.24 734.99 547.44 735.28 C 544.11 742.36 539.56 749.89 531.85 752.74 C 522.47 755.49 511.97 753.52 503.85 748.19 C 497.97 744.39 493.40 738.90 489.73 733.01 C 485.54 745.09 480.01 757.67 469.49 765.55 C 462.84 770.64 453.89 770.11 446.13 768.49 C 437.76 766.79 430.10 761.71 425.53 754.46 C 419.16 744.55 417.38 732.51 416.73 720.96 C 415.55 689.29 423.31 658.30 426.98 627.04 C 427.47 620.59 428.59 613.81 426.45 607.56 C 424.89 603.60 419.73 605.51 417.05 607.13 C 408.85 612.67 404.67 622.15 400.78 630.89 C 391.11 655.20 386.13 681.09 382.48 706.91 C 381.45 712.21 375.57 715.98 370.32 714.51 C 366.07 713.56 363.27 709.22 363.53 704.98 C 365.72 683.73 365.90 662.33 365.81 640.99 C 365.62 623.29 365.02 605.57 363.03 587.97 C 361.88 579.40 360.90 570.60 357.35 562.63 C 356.34 560.66 354.83 557.74 352.15 558.43 C 346.58 559.66 343.10 564.76 340.23 569.29 C 333.61 580.70 329.66 593.40 326.12 606.04 C 319.60 630.38 315.36 655.27 312.08 680.23 C 309.33 702.05 307.12 723.99 306.83 746.00 C 306.61 749.55 307.93 754.17 304.59 756.67 C 299.79 759.97 292.29 757.28 290.22 751.93 C 285.32 740.43 281.90 728.36 278.78 716.27 C 272.97 693.23 268.71 669.77 266.70 646.08 C 265.14 627.73 264.89 609.11 268.04 590.91 C 268.68 586.17 272.59 582.68 276.71 580.74 C 282.03 578.26 288.52 577.45 293.94 580.08 C 297.69 581.90 300.07 585.92 300.30 590.04 C 298.15 616.32 299.19 642.75 300.01 669.08 C 302.43 645.82 306.02 622.60 312.45 600.09 C 316.30 587.04 321.04 574.02 328.79 562.74 C 333.64 555.90 340.19 549.43 348.71 547.77 C 358.93 545.90 370.11 549.07 377.36 556.64 C 385.81 565.28 389.58 577.26 391.80 588.86 C 393.79 599.61 394.30 610.59 394.13 621.51 C 398.25 612.79 403.60 604.08 411.95 598.83 C 422.06 592.45 436.93 593.98 444.68 603.39 C 451.35 611.68 453.02 622.68 453.84 632.98 C 455.64 665.84 447.90 698.22 447.20 730.98 C 447.31 738.46 447.17 746.45 450.82 753.21 C 452.65 756.79 457.04 759.02 460.97 757.86 C 464.92 756.04 467.46 752.25 469.85 748.78 C 475.56 739.64 479.34 729.44 482.42 719.16 C 483.60 715.63 481.86 712.04 481.60 708.50 C 480.26 696.58 481.33 683.51 488.33 673.38 C 490.30 670.15 493.71 668.30 496.30 665.72 C 497.86 660.07 499.86 654.34 503.96 650.00 C 513.56 639.11 532.51 638.90 542.36 649.55 C 551.31 658.99 554.21 672.39 555.36 684.95 C 556.41 698.33 554.84 711.83 551.37 724.77 C 559.55 723.16 566.26 717.27 569.85 709.88 C 567.05 692.76 566.95 675.32 567.77 658.03 C 567.79 652.03 573.18 647.36 578.92 646.91 C 585.45 645.89 593.88 649.68 594.25 657.04 C 594.26 676.34 593.76 695.64 594.37 714.93 C 597.06 694.62 599.93 674.11 606.93 654.75 C 610.62 645.17 615.48 635.13 624.43 629.43 C 631.51 624.84 641.44 625.54 647.68 631.27 C 655.12 638.02 657.07 648.51 658.16 658.04 C 660.63 687.15 654.33 716.00 653.14 745.01 C 653.18 750.87 652.59 757.20 655.35 762.60 C 656.66 765.31 660.27 765.00 662.41 763.52 C 667.35 760.25 669.89 754.58 672.28 749.37 C 678.05 735.52 681.15 720.74 683.87 706.03 C 684.37 703.02 685.15 699.98 684.75 696.92 C 680.86 667.79 681.08 638.27 682.81 608.98 C 670.75 612.33 657.79 614.04 645.56 610.53 C 637.33 608.32 629.68 604.22 622.90 599.10 C 619.83 596.94 620.66 591.34 624.39 590.42 C 626.41 589.73 628.32 590.94 629.88 592.10 C 637.50 597.74 646.59 601.56 656.09 602.35 C 665.35 603.19 674.67 601.53 683.45 598.63 C 684.29 592.39 683.91 585.31 688.31 580.27 C 693.59 573.89 704.44 574.07 709.74 580.33 C 712.17 582.87 712.81 586.42 713.16 589.79 C 726.07 585.77 740.09 583.08 753.39 586.88 C 758.21 573.26 765.10 559.75 776.34 550.32 M 790.99 565.96 C 784.32 576.66 781.41 589.19 779.31 601.48 C 776.61 618.54 775.69 635.86 775.90 653.12 C 793.03 643.18 803.42 625.07 810.10 606.99 C 815.25 593.57 817.46 578.78 814.63 564.57 C 813.69 560.89 812.08 556.17 807.84 555.35 C 800.67 554.97 794.59 560.21 790.99 565.96 M 711.34 600.65 C 709.46 634.71 709.45 668.95 712.74 702.92 C 714.48 717.74 716.17 732.93 722.33 746.69 C 724.44 750.94 727.65 756.27 733.05 756.15 C 737.59 755.30 740.04 750.77 742.01 747.03 C 747.88 734.48 750.33 720.70 752.71 707.15 C 753.12 703.74 754.38 700.24 753.36 696.83 C 749.74 683.14 747.54 669.09 746.45 654.98 C 744.95 635.23 745.31 615.10 750.54 595.88 C 737.32 592.98 723.91 596.67 711.34 600.65 M 515.64 652.72 C 511.87 654.73 509.72 658.59 508.02 662.34 C 511.70 662.66 515.74 662.02 519.11 663.84 C 523.02 666.09 523.06 673.25 518.13 674.24 C 513.46 675.52 510.87 680.04 509.21 684.25 C 507.73 688.24 506.74 692.57 507.22 696.83 C 512.65 710.70 525.91 720.77 540.41 723.55 C 543.66 710.49 544.53 696.85 543.22 683.47 C 542.12 673.92 540.10 663.81 533.74 656.27 C 529.47 651.11 521.52 649.39 515.64 652.72 M 509.91 721.46 C 513.16 729.13 518.19 737.74 526.94 739.69 C 531.33 740.81 534.22 736.75 536.25 733.57 C 526.70 731.58 517.48 727.68 509.91 721.46 M 884.75 765.76 C 883.52 770.34 883.78 776.10 887.71 779.35 C 892.88 783.31 901.57 780.37 903.18 773.99 C 905.66 764.97 902.98 755.52 900.14 746.91 C 893.19 751.30 887.05 757.69 884.75 765.76 Z" />
<path fill="#000000" opacity="1.00" d=" M 182.39 549.70 C 189.87 546.51 198.61 554.07 196.59 561.90 C 195.27 569.48 185.05 572.71 179.43 567.61 C 173.31 562.94 175.04 552.13 182.39 549.70 Z" />
<path fill="#000000" opacity="1.00" d=" M 1014.35 564.46 C 1021.45 561.98 1029.43 568.68 1027.98 576.11 C 1027.28 584.22 1016.22 587.89 1010.50 582.37 C 1004.39 577.43 1006.67 566.38 1014.35 564.46 Z" />
<path fill="#000000" opacity="1.00" d=" M 182.47 578.70 C 191.74 576.33 201.74 584.40 201.28 593.98 C 201.53 603.34 191.62 611.06 182.61 608.60 C 174.88 606.99 169.39 598.72 170.88 590.98 C 171.79 585.04 176.58 579.94 182.47 578.70 Z" />
<path fill="#000000" opacity="1.00" d=" M 1015.43 593.65 C 1023.99 591.47 1033.46 597.97 1033.97 606.89 C 1035.36 615.90 1026.99 624.35 1018.04 623.61 C 1009.68 623.49 1002.30 615.52 1003.54 607.08 C 1003.90 600.60 1009.06 594.82 1015.43 593.65 Z" />
<path fill="#000000" opacity="1.00" d=" M 182.33 616.37 C 189.37 614.05 197.26 620.78 195.77 628.13 C 195.16 636.17 184.15 640.05 178.51 634.35 C 172.14 629.44 174.48 618.23 182.33 616.37 Z" />
<path fill="#000000" opacity="1.00" d=" M 1015.27 631.36 C 1021.81 628.29 1030.29 633.71 1029.92 641.00 C 1030.35 647.26 1024.12 652.45 1018.05 651.39 C 1012.17 650.85 1007.66 644.72 1009.08 638.93 C 1009.59 635.52 1012.28 632.82 1015.27 631.36 Z" />
<path fill="#000000" opacity="1.00" d=" M 992.92 652.73 C 993.52 649.95 994.85 646.63 997.99 646.04 C 1000.70 645.40 1003.14 647.56 1004.02 649.98 C 1007.31 658.02 1010.17 666.24 1013.56 674.24 C 1021.57 668.39 1029.36 662.25 1037.37 656.39 C 1039.88 654.27 1044.09 653.96 1046.35 656.62 C 1048.50 658.57 1048.12 661.78 1047.52 664.34 C 1042.10 684.07 1036.80 703.84 1031.47 723.60 C 1030.75 726.69 1028.87 729.42 1026.18 731.11 C 1018.94 735.91 1011.67 740.69 1004.39 745.43 C 1002.33 746.68 1001.20 748.88 1000.43 751.08 C 975.68 821.30 929.98 883.50 872.20 930.21 C 829.09 965.29 778.57 991.12 724.98 1005.80 C 721.23 1006.85 717.48 1007.88 713.76 1009.02 C 714.56 1013.49 716.95 1018.31 714.68 1022.71 C 712.80 1026.12 708.45 1026.80 704.96 1025.96 C 690.00 1023.21 674.95 1020.91 660.02 1018.01 C 653.34 1017.27 651.99 1006.72 657.92 1004.01 C 671.14 997.55 684.43 991.24 697.68 984.82 C 700.74 983.21 704.87 982.90 707.61 985.33 C 710.43 988.02 710.30 992.22 711.06 995.78 C 748.28 986.39 784.21 971.79 817.28 952.28 C 877.08 916.70 927.47 865.28 961.53 804.58 C 972.85 784.27 982.20 762.89 989.82 740.93 C 987.15 735.06 984.53 729.17 981.63 723.42 C 979.56 719.48 979.56 714.84 980.47 710.60 C 984.74 691.33 988.76 672.01 992.92 652.73 Z" />
<path fill="#000000" opacity="1.00" d=" M 180.09 658.92 C 180.40 654.70 184.72 651.36 188.88 652.15 C 191.54 652.63 193.62 654.69 194.81 657.04 C 201.32 669.58 207.72 682.17 214.21 694.71 C 215.92 697.71 217.09 701.77 214.80 704.79 C 212.29 708.00 207.84 708.21 204.20 709.26 C 223.96 781.43 264.92 847.64 320.53 897.69 C 341.78 916.84 364.85 934.03 389.69 948.25 C 413.18 961.84 438.25 972.62 464.08 980.92 C 466.06 981.83 467.99 980.65 469.74 979.78 C 474.09 977.41 478.67 975.49 482.98 973.04 C 486.28 971.11 490.18 970.03 494.00 970.81 C 513.74 974.49 533.50 978.11 553.24 981.80 C 556.09 982.41 559.43 983.26 560.81 986.14 C 561.80 988.75 560.28 991.69 557.73 992.67 C 549.59 996.26 541.36 999.65 533.18 1003.14 C 539.50 1011.38 546.35 1019.21 552.50 1027.58 C 555.77 1031.94 551.45 1038.79 546.05 1037.19 C 525.77 1032.58 505.59 1027.47 485.32 1022.81 C 482.12 1022.18 479.07 1020.59 477.20 1017.86 C 472.01 1010.64 466.95 1003.34 461.88 996.04 C 460.49 993.88 457.99 992.98 455.67 992.23 C 410.37 977.45 367.94 954.10 330.95 924.10 C 298.29 897.82 269.39 866.78 246.03 831.95 C 221.53 795.32 202.66 754.85 191.00 712.33 C 186.43 712.98 181.41 715.57 176.94 713.16 C 173.87 711.54 172.94 707.71 173.59 704.52 C 175.90 689.34 177.62 674.07 180.09 658.92 Z" />
<path fill="#000000" opacity="1.00" d=" M 596.22 996.15 C 605.10 993.27 615.51 1000.57 615.27 1010.05 C 616.00 1018.91 607.83 1026.88 599.04 1026.23 C 590.48 1026.03 583.53 1017.34 584.99 1008.96 C 585.69 1002.91 590.35 997.68 596.22 996.15 Z" />
<path fill="#000000" opacity="1.00" d=" M 562.37 999.58 C 569.51 996.36 578.11 1003.28 576.48 1010.95 C 575.83 1018.90 565.22 1022.72 559.39 1017.56 C 553.28 1012.82 555.17 1002.19 562.37 999.58 Z" />
<path fill="#000000" opacity="1.00" d=" M 629.33 1002.47 C 635.62 999.97 643.17 1005.20 643.03 1011.95 C 643.53 1018.63 636.73 1024.44 630.21 1022.81 C 624.38 1021.70 620.44 1014.99 622.60 1009.40 C 623.59 1006.19 626.19 1003.61 629.33 1002.47 Z" />
</g>
</svg>
