<?xml version="1.0" encoding="UTF-8" ?>
<!DOCTYPE svg PUBLIC "-//W3C//DTD SVG 1.1//EN" "http://www.w3.org/Graphics/SVG/1.1/DTD/svg11.dtd">
<svg width="4000pt" height="4000pt" viewBox="0 0 4000 4000" version="1.1" xmlns="http://www.w3.org/2000/svg">
<g id="#000000ff">
<path fill="#000000" opacity="1.00" d=" M 1310.53 1054.46 C 1310.94 1054.50 1311.76 1054.58 1312.17 1054.62 C 1315.62 1057.95 1319.94 1060.19 1323.45 1063.47 C 1353.32 1087.94 1376.00 1120.50 1390.88 1155.98 C 1399.96 1177.04 1405.36 1199.54 1407.78 1222.30 C 1412.86 1225.39 1418.73 1226.82 1423.85 1229.84 C 1431.28 1233.86 1437.58 1239.61 1444.97 1243.71 C 1470.78 1259.74 1501.48 1267.62 1531.81 1266.56 C 1531.31 1266.70 1530.31 1266.97 1529.80 1267.11 C 1548.10 1272.07 1561.48 1287.57 1569.22 1304.25 C 1573.24 1314.28 1576.15 1324.81 1577.34 1335.58 C 1579.51 1352.28 1584.59 1369.32 1595.85 1382.24 C 1603.09 1391.07 1612.87 1397.28 1622.43 1403.31 C 1628.95 1407.76 1636.14 1411.46 1641.42 1417.48 C 1647.45 1424.51 1651.89 1432.78 1655.23 1441.39 C 1662.07 1459.14 1665.33 1478.09 1666.51 1497.02 C 1666.99 1506.45 1664.57 1515.66 1663.67 1524.99 C 1663.59 1530.80 1665.76 1536.31 1666.94 1541.94 C 1667.06 1540.92 1667.20 1539.92 1667.36 1538.94 C 1666.99 1543.85 1670.08 1547.89 1672.14 1552.08 C 1675.72 1558.94 1680.38 1565.34 1686.63 1570.00 C 1702.15 1583.42 1719.98 1594.12 1738.99 1601.81 C 1745.91 1604.95 1751.24 1610.61 1755.90 1616.47 C 1760.69 1622.41 1763.71 1629.59 1765.75 1636.91 C 1768.75 1647.10 1767.75 1657.85 1767.51 1668.32 C 1767.01 1670.60 1766.56 1672.91 1766.41 1675.26 C 1765.37 1679.61 1763.99 1683.87 1762.86 1688.21 C 1760.71 1696.87 1759.99 1705.84 1760.94 1714.73 C 1762.83 1728.56 1769.40 1741.29 1778.06 1752.09 C 1781.03 1755.84 1784.19 1759.46 1786.98 1763.37 C 1787.50 1763.43 1788.52 1763.56 1789.03 1763.63 C 1800.97 1779.86 1820.36 1788.03 1839.26 1793.06 C 1840.25 1793.24 1841.27 1793.44 1842.31 1793.66 C 1848.55 1794.98 1854.84 1796.24 1861.24 1796.59 C 1874.38 1798.84 1887.73 1798.23 1901.01 1798.21 C 1904.01 1798.01 1907.01 1797.56 1910.00 1797.12 C 1917.33 1796.51 1924.66 1795.89 1932.01 1795.23 C 1934.99 1794.54 1938.11 1794.59 1941.11 1793.84 C 1943.75 1793.60 1946.45 1793.51 1949.06 1792.86 C 1962.10 1790.88 1975.17 1788.90 1988.02 1785.88 C 1997.41 1784.27 2006.36 1780.91 2015.39 1777.98 C 2030.99 1772.65 2046.84 1768.13 2062.73 1763.75 C 2066.11 1762.90 2069.49 1761.98 2072.87 1761.05 C 2087.20 1757.53 2101.55 1754.03 2116.04 1751.18 C 2121.66 1749.90 2127.39 1749.09 2133.04 1747.86 C 2139.02 1746.82 2145.04 1745.92 2151.03 1744.83 C 2157.34 1744.11 2163.61 1742.97 2169.92 1742.13 C 2175.54 1740.96 2181.34 1740.92 2186.96 1739.75 C 2190.30 1739.46 2193.73 1739.67 2197.01 1738.73 C 2203.67 1738.81 2210.20 1737.36 2216.85 1737.41 C 2218.24 1737.36 2219.60 1737.03 2221.00 1736.75 C 2224.63 1736.40 2228.39 1736.85 2231.95 1735.82 C 2245.29 1735.15 2258.67 1735.73 2272.00 1734.92 C 2284.97 1735.87 2298.01 1734.98 2311.00 1735.75 C 2315.95 1736.60 2321.00 1736.37 2326.01 1736.72 C 2330.93 1737.80 2336.03 1737.34 2341.05 1737.60 C 2344.94 1737.88 2348.89 1736.65 2352.76 1737.54 C 2347.17 1737.95 2341.53 1737.74 2335.98 1738.62 C 2342.12 1737.83 2348.18 1739.03 2354.29 1739.56 C 2358.76 1740.78 2363.45 1740.11 2367.99 1741.02 C 2372.59 1741.93 2377.30 1741.51 2381.97 1741.36 C 2377.99 1741.72 2374.01 1742.05 2370.07 1742.58 C 2378.43 1741.98 2386.75 1743.65 2395.00 1744.88 C 2397.12 1745.36 2399.30 1745.55 2401.51 1745.75 C 2399.96 1746.04 2398.44 1746.34 2396.94 1746.66 C 2401.74 1745.87 2406.51 1746.97 2411.19 1748.04 C 2412.20 1748.23 2413.25 1748.44 2414.33 1748.67 C 2417.64 1749.35 2420.97 1750.04 2424.32 1750.69 C 2428.98 1751.63 2433.63 1752.72 2438.29 1753.76 C 2440.40 1754.24 2442.55 1754.59 2444.73 1754.96 C 2449.71 1756.48 2454.84 1757.47 2459.85 1758.96 C 2461.14 1759.30 2462.42 1759.59 2463.79 1759.96 C 2471.45 1762.32 2479.13 1764.65 2486.82 1766.96 C 2493.76 1769.35 2500.78 1771.54 2507.61 1774.27 C 2510.29 1775.19 2512.96 1776.19 2515.62 1777.27 C 2545.09 1788.47 2573.63 1802.25 2600.43 1818.89 C 2601.72 1819.85 2603.37 1819.50 2604.95 1819.61 C 2610.71 1810.70 2618.50 1803.35 2625.93 1795.84 C 2647.39 1774.26 2674.80 1758.70 2704.34 1751.32 C 2716.31 1748.02 2728.74 1747.55 2740.97 1745.82 C 2747.30 1745.75 2753.65 1745.64 2760.00 1745.81 C 2771.60 1747.34 2783.35 1748.03 2794.79 1750.67 C 2802.46 1752.33 2810.09 1754.18 2817.66 1756.29 C 2858.21 1768.46 2895.99 1788.85 2929.79 1814.20 C 2944.63 1825.55 2959.01 1837.60 2972.04 1851.01 C 2983.97 1862.62 2994.55 1875.65 3003.59 1889.63 C 3009.74 1899.23 3015.39 1909.28 3019.03 1920.14 C 3020.77 1925.23 3021.84 1930.52 3023.25 1935.72 C 3024.90 1943.49 3027.19 1951.10 3028.93 1958.86 C 3030.51 1964.42 3031.76 1970.08 3033.30 1975.67 C 3044.20 2019.23 3058.34 2062.00 3076.00 2103.30 C 3084.30 2122.42 3093.61 2141.12 3104.24 2159.07 C 3113.07 2173.42 3122.75 2187.36 3134.40 2199.60 C 3147.27 2213.81 3162.34 2226.40 3179.97 2234.27 C 3188.86 2238.16 3198.26 2241.03 3207.88 2242.46 C 3217.67 2242.76 3227.56 2243.20 3237.33 2242.12 C 3242.32 2241.30 3247.32 2240.42 3252.21 2239.00 C 3272.84 2233.15 3290.96 2221.25 3310.06 2211.86 C 3329.43 2201.90 3348.58 2191.51 3367.91 2181.46 C 3379.13 2175.37 3390.62 2169.77 3402.39 2164.80 C 3409.35 2161.98 3416.52 2159.14 3424.09 2158.59 C 3428.50 2158.24 3432.83 2162.48 3431.51 2167.02 C 3429.24 2175.77 3425.10 2183.92 3420.65 2191.76 C 3410.72 2209.01 3399.45 2225.45 3387.85 2241.62 C 3366.84 2270.79 3346.12 2300.28 3322.44 2327.39 C 3308.15 2342.96 3291.91 2356.70 3274.22 2368.26 C 3253.69 2381.93 3230.26 2390.69 3206.36 2396.33 C 3204.33 2396.57 3202.36 2396.91 3200.42 2397.31 C 3198.66 2397.61 3196.97 2397.97 3195.30 2398.34 C 3193.60 2398.63 3191.94 2398.99 3190.31 2399.36 C 3187.92 2399.52 3185.59 2399.90 3183.30 2400.39 C 3175.18 2401.16 3167.12 2402.87 3158.94 2402.64 C 3151.57 2402.46 3144.13 2403.24 3136.85 2402.12 C 3119.33 2401.06 3101.63 2399.90 3084.70 2394.94 C 3084.17 2394.80 3083.12 2394.54 3082.60 2394.41 C 3080.61 2393.89 3078.67 2393.43 3076.74 2392.96 C 3039.76 2382.51 3004.85 2365.11 2973.72 2342.63 C 2957.92 2331.56 2943.18 2319.02 2929.88 2305.04 C 2907.66 2282.53 2888.40 2256.76 2875.22 2227.90 C 2865.10 2206.76 2858.13 2184.07 2855.33 2160.79 C 2853.81 2153.46 2852.96 2146.01 2851.30 2138.72 C 2842.19 2097.28 2827.92 2056.63 2805.85 2020.24 C 2796.31 2004.80 2786.31 1989.45 2773.61 1976.39 C 2761.32 1963.01 2747.13 1951.27 2731.10 1942.65 C 2730.18 1942.54 2729.30 1942.46 2728.45 1942.40 C 2730.55 1953.48 2732.20 1964.65 2734.32 1975.73 C 2735.89 1986.50 2737.53 1997.25 2738.97 2008.04 C 2740.58 2021.31 2741.56 2034.64 2742.53 2047.97 C 2742.68 2060.64 2742.79 2073.32 2742.56 2086.00 C 2742.63 2092.11 2741.44 2098.13 2741.36 2104.25 C 2739.14 2124.74 2735.87 2145.24 2729.83 2165.02 C 2717.60 2206.90 2696.10 2245.93 2667.98 2279.24 C 2645.05 2306.77 2617.19 2329.70 2587.92 2350.17 C 2570.61 2362.03 2552.48 2372.64 2534.11 2382.77 C 2520.38 2389.92 2506.64 2397.21 2492.27 2403.00 C 2493.53 2409.18 2496.65 2414.77 2498.62 2420.75 C 2536.97 2520.16 2575.40 2619.55 2613.79 2718.95 C 2620.66 2737.33 2628.22 2755.45 2634.84 2773.93 C 2639.85 2772.51 2644.42 2769.96 2649.32 2768.21 C 2653.86 2766.65 2657.64 2763.53 2662.20 2761.99 C 2672.94 2757.12 2684.46 2753.80 2694.39 2747.30 C 2699.71 2744.41 2705.52 2742.57 2710.94 2739.86 C 2718.41 2735.99 2726.49 2733.23 2733.40 2728.32 C 2737.27 2725.59 2741.92 2724.40 2746.07 2722.19 C 2751.11 2719.55 2756.36 2717.28 2761.20 2714.25 C 2764.19 2712.49 2766.77 2709.99 2770.13 2708.86 C 2775.42 2706.92 2780.00 2703.53 2785.05 2701.06 C 2789.54 2698.10 2794.81 2696.42 2798.93 2692.89 C 2803.91 2688.91 2809.91 2686.57 2815.34 2683.31 C 2820.90 2679.42 2827.23 2676.77 2832.59 2672.57 C 2836.82 2669.27 2841.68 2666.97 2846.32 2664.32 C 2858.14 2656.52 2869.49 2648.04 2881.64 2640.72 C 2885.12 2638.61 2888.45 2636.24 2891.37 2633.39 C 2895.02 2629.84 2899.96 2628.10 2903.79 2624.77 C 2907.71 2621.29 2912.57 2619.05 2916.34 2615.39 C 2921.12 2610.70 2927.09 2607.51 2932.21 2603.24 C 2935.30 2600.60 2938.58 2598.22 2941.83 2595.79 C 2944.66 2593.67 2946.62 2590.61 2949.53 2588.58 C 2968.38 2575.64 2982.33 2556.64 3002.21 2545.09 C 3011.47 2540.46 3021.78 2538.28 3032.06 2537.48 C 3038.04 2536.21 3044.04 2537.81 3050.04 2538.22 C 3058.53 2539.68 3067.24 2541.66 3074.65 2546.29 C 3090.95 2554.80 3104.60 2569.32 3110.16 2587.05 C 3112.19 2592.66 3112.90 2598.62 3114.68 2604.32 C 3115.94 2612.60 3113.96 2620.93 3111.96 2628.94 C 3109.63 2638.45 3104.65 2647.08 3099.01 2655.00 C 3093.16 2661.49 3086.85 2667.56 3080.20 2673.22 C 3071.96 2682.04 3061.73 2688.69 3053.56 2697.55 C 3045.95 2702.84 3039.10 2709.11 3031.71 2714.69 C 3025.25 2721.46 3016.75 2725.63 3009.69 2731.68 C 3001.76 2737.44 2994.35 2743.90 2985.99 2749.07 C 2978.13 2753.67 2971.61 2760.15 2963.84 2764.87 C 2957.18 2769.62 2949.62 2773.02 2943.43 2778.42 C 2931.90 2786.41 2919.19 2792.64 2908.08 2801.24 C 2898.76 2806.50 2889.63 2812.07 2880.34 2817.38 C 2868.17 2825.49 2854.46 2831.03 2842.42 2839.37 C 2838.98 2841.43 2835.01 2842.40 2831.61 2844.53 C 2826.32 2847.84 2820.64 2850.41 2815.08 2853.19 C 2811.07 2855.04 2807.90 2858.32 2803.71 2859.80 C 2794.19 2863.59 2785.14 2868.38 2775.97 2872.90 C 2769.99 2876.69 2763.22 2878.93 2756.92 2882.11 C 2749.68 2885.54 2742.01 2888.06 2735.12 2892.21 C 2726.66 2897.03 2716.97 2899.01 2708.40 2903.56 C 2704.36 2905.60 2699.91 2906.71 2696.04 2909.07 C 2692.07 2911.55 2687.41 2912.41 2683.15 2914.21 C 2676.63 2916.86 2670.05 2919.35 2663.42 2921.67 C 2659.00 2922.80 2655.05 2925.02 2651.10 2927.20 C 2640.93 2931.33 2630.10 2933.70 2620.14 2938.37 C 2614.07 2939.94 2608.54 2942.99 2602.47 2944.53 C 2591.89 2947.48 2581.69 2951.64 2571.08 2954.49 C 2566.88 2955.59 2563.14 2957.96 2558.93 2958.98 C 2549.83 2961.40 2540.92 2964.50 2531.79 2966.75 C 2526.05 2968.17 2520.30 2969.61 2514.92 2972.08 C 2499.98 2977.34 2483.95 2978.72 2469.12 2984.30 C 2457.47 2988.09 2445.30 2989.75 2433.42 2992.56 C 2421.62 2993.95 2410.67 2998.92 2398.98 3000.80 C 2386.90 3002.80 2374.78 3004.54 2362.79 3006.96 C 2341.37 3013.28 2318.88 3013.92 2297.02 3018.01 C 2287.73 3020.82 2277.92 3020.78 2268.43 3022.56 C 2253.58 3023.94 2238.78 3025.72 2223.94 3027.15 C 2221.37 3027.29 2218.90 3027.93 2216.43 3028.52 C 2212.31 3029.44 2208.07 3028.68 2203.94 3029.33 C 2198.02 3030.41 2191.96 3029.82 2186.04 3030.88 C 2170.64 3031.57 2155.32 3033.21 2140.01 3034.94 C 2130.34 3035.18 2120.64 3034.65 2111.04 3035.99 C 2101.97 3036.18 2092.88 3035.83 2083.83 3036.43 C 2076.20 3037.74 2068.41 3036.32 2060.80 3037.64 C 2055.87 3038.33 2050.89 3037.89 2045.96 3038.01 C 2038.66 3037.88 2031.33 3038.44 2024.10 3037.31 C 2010.71 3036.97 1997.32 3037.08 1983.94 3037.03 C 1978.97 3036.94 1973.97 3037.34 1969.06 3036.48 C 1964.70 3035.59 1960.39 3037.76 1956.04 3036.78 C 1949.11 3035.34 1941.98 3036.70 1935.05 3035.36 C 1910.06 3034.25 1885.09 3032.41 1860.11 3030.80 C 1851.76 3029.43 1843.25 3030.70 1834.91 3029.45 C 1811.70 3027.54 1788.66 3023.92 1765.48 3021.72 C 1754.55 3019.99 1743.53 3019.01 1732.58 3017.56 C 1719.31 3016.26 1706.43 3012.12 1693.07 3011.73 C 1671.73 3009.04 1650.78 3004.10 1629.58 3000.54 C 1606.24 2996.05 1583.18 2990.30 1559.93 2985.38 C 1546.97 2981.77 1533.86 2978.70 1520.82 2975.40 C 1512.17 2973.21 1503.74 2970.23 1495.05 2968.20 C 1487.04 2965.94 1478.93 2964.03 1471.11 2961.17 C 1463.24 2958.37 1455.08 2956.55 1447.14 2954.01 C 1441.75 2952.79 1436.93 2949.96 1431.62 2948.56 C 1422.31 2945.70 1412.89 2943.16 1403.88 2939.45 C 1394.43 2935.58 1384.50 2933.06 1375.09 2929.13 C 1368.13 2926.30 1361.17 2923.48 1354.05 2921.08 C 1345.01 2916.85 1335.50 2913.73 1326.33 2909.80 C 1317.10 2905.49 1307.56 2901.89 1298.22 2897.87 C 1290.62 2893.94 1282.66 2890.80 1274.90 2887.23 C 1262.12 2880.57 1248.59 2875.40 1236.25 2867.90 C 1227.20 2863.79 1219.01 2858.10 1210.05 2853.82 C 1200.84 2848.28 1191.04 2843.77 1182.02 2837.93 C 1173.19 2833.35 1164.94 2827.76 1156.26 2822.92 C 1151.71 2820.55 1147.70 2817.31 1143.25 2814.79 C 1139.56 2812.49 1135.55 2810.62 1132.38 2807.61 C 1127.48 2802.53 1120.60 2800.20 1115.24 2795.72 C 1109.49 2791.03 1102.90 2787.52 1097.21 2782.78 C 1087.09 2775.66 1077.25 2768.16 1067.53 2760.50 C 1062.43 2757.40 1058.72 2752.63 1054.00 2749.05 C 1047.23 2743.82 1041.07 2737.88 1034.34 2732.61 C 1027.22 2725.37 1019.12 2718.81 1014.03 2709.87 C 1008.21 2700.69 1005.30 2689.87 1004.53 2679.11 C 1003.33 2674.38 1004.77 2669.65 1005.02 2664.94 C 1006.29 2653.50 1011.01 2642.75 1017.13 2633.12 C 1021.94 2626.98 1027.65 2621.62 1033.37 2616.36 C 1040.27 2610.03 1049.13 2606.34 1058.09 2604.02 C 1069.75 2600.78 1082.12 2599.79 1094.06 2602.04 C 1103.78 2603.89 1113.67 2606.48 1121.95 2612.15 C 1128.88 2616.71 1135.37 2621.90 1141.48 2627.52 C 1151.36 2635.67 1161.11 2644.00 1171.46 2651.58 C 1183.33 2662.31 1196.90 2670.90 1209.91 2680.16 C 1225.59 2690.66 1242.11 2699.79 1257.96 2710.02 C 1263.35 2714.18 1269.57 2717.05 1275.39 2720.57 C 1283.07 2725.46 1291.52 2728.96 1299.33 2733.66 C 1304.16 2736.72 1309.80 2738.18 1314.63 2741.29 C 1322.99 2746.30 1332.24 2749.54 1340.82 2754.14 C 1347.00 2757.55 1353.87 2759.44 1360.10 2762.77 C 1370.18 2768.09 1381.23 2771.22 1391.43 2776.31 C 1401.29 2780.03 1411.09 2783.89 1420.77 2788.06 C 1429.13 2790.69 1436.97 2794.72 1445.47 2796.98 C 1453.00 2775.54 1461.56 2754.48 1469.72 2733.28 C 1509.53 2630.01 1549.44 2526.79 1589.33 2423.56 C 1555.31 2405.52 1522.66 2384.76 1492.70 2360.52 C 1477.23 2348.03 1462.54 2334.60 1448.50 2320.54 C 1418.99 2291.84 1392.82 2259.71 1370.68 2225.01 C 1358.91 2205.42 1345.73 2186.68 1335.00 2166.48 C 1326.29 2149.34 1318.10 2131.90 1311.20 2113.94 C 1308.91 2107.79 1306.74 2101.60 1304.66 2095.39 C 1299.44 2078.77 1293.70 2062.27 1290.03 2045.22 C 1287.88 2036.92 1285.59 2028.64 1283.96 2020.23 C 1282.95 2013.73 1280.28 2007.65 1279.37 2001.15 C 1276.71 1989.02 1274.23 1976.85 1271.88 1964.67 C 1271.26 1961.15 1270.01 1957.65 1270.71 1954.06 C 1269.52 1948.48 1268.90 1942.81 1267.73 1937.24 C 1267.45 1935.21 1267.12 1933.20 1266.73 1931.24 C 1265.41 1924.56 1264.36 1917.83 1262.98 1911.17 C 1261.60 1903.15 1259.69 1895.23 1258.57 1887.17 C 1258.13 1883.51 1257.49 1879.89 1256.66 1876.33 C 1256.43 1875.27 1256.21 1874.23 1256.01 1873.23 C 1254.72 1865.80 1252.73 1858.53 1251.10 1851.19 C 1248.49 1841.51 1246.14 1831.75 1243.07 1822.20 C 1234.05 1793.44 1222.10 1765.18 1204.20 1740.76 C 1197.75 1731.48 1185.83 1727.99 1175.01 1728.52 C 1164.86 1728.22 1154.73 1729.92 1145.01 1732.77 C 1138.27 1734.94 1131.31 1736.41 1124.74 1739.07 C 1106.11 1746.56 1087.66 1754.53 1069.71 1763.53 C 1048.13 1774.42 1026.12 1784.38 1004.29 1794.73 C 986.99 1801.45 970.10 1809.18 952.79 1815.84 C 939.51 1820.09 926.12 1825.08 911.99 1825.06 C 907.48 1824.72 902.97 1824.41 898.48 1824.00 L 897.47 1825.48 C 896.93 1822.86 900.49 1823.86 902.08 1823.47 C 891.34 1823.82 880.31 1822.24 870.48 1817.77 C 861.11 1813.72 853.92 1806.28 846.06 1800.01 C 840.81 1794.52 834.63 1790.05 829.48 1784.47 C 815.56 1770.55 802.61 1755.63 791.25 1739.53 C 780.82 1723.82 770.67 1707.57 765.05 1689.43 C 762.23 1681.95 760.84 1674.06 759.60 1666.20 C 759.12 1654.75 758.42 1642.82 762.67 1631.93 C 770.16 1613.22 784.14 1598.18 798.69 1584.64 C 805.98 1578.24 812.42 1570.90 820.25 1565.12 C 834.43 1552.66 848.49 1539.99 863.45 1528.47 C 870.71 1522.26 878.10 1516.21 885.70 1510.45 C 900.64 1497.71 915.78 1485.20 931.22 1473.08 C 946.54 1460.78 960.62 1447.03 976.06 1434.87 C 981.69 1430.13 987.34 1425.42 993.29 1421.07 C 1000.14 1415.17 1006.91 1409.18 1013.84 1403.37 C 1023.72 1395.27 1032.74 1386.13 1043.11 1378.63 C 1047.33 1375.29 1050.21 1370.65 1054.06 1366.95 C 1062.18 1358.90 1068.07 1349.02 1074.22 1339.49 C 1078.41 1332.15 1083.12 1325.12 1087.26 1317.76 C 1089.48 1313.99 1090.61 1309.61 1093.53 1306.27 C 1089.81 1303.23 1085.25 1301.50 1081.47 1298.57 C 1077.31 1295.34 1072.31 1293.23 1068.73 1289.28 C 1064.88 1285.09 1059.98 1281.97 1056.61 1277.33 C 1052.71 1273.07 1049.68 1268.15 1046.79 1263.19 C 1044.21 1258.57 1040.54 1254.44 1039.53 1249.10 C 1037.18 1239.19 1034.02 1229.28 1034.04 1219.01 C 1034.59 1213.52 1035.72 1207.69 1039.63 1203.54 C 1043.29 1198.91 1049.27 1197.28 1054.89 1196.79 C 1057.97 1197.17 1061.01 1197.92 1064.00 1198.81 C 1068.53 1200.19 1071.16 1204.46 1074.90 1207.09 C 1088.76 1216.67 1105.18 1222.17 1121.90 1223.80 C 1157.71 1227.75 1193.92 1223.29 1228.93 1215.51 C 1237.93 1213.56 1246.65 1210.46 1255.72 1208.77 C 1255.90 1203.50 1255.70 1198.23 1255.78 1192.97 C 1256.57 1182.24 1258.49 1171.64 1259.94 1161.00 C 1267.30 1121.93 1284.95 1084.88 1310.53 1054.46 M 2366.15 2448.92 C 2355.60 2451.98 2344.95 2454.64 2334.31 2457.29 C 2332.25 2457.80 2330.23 2458.37 2328.22 2458.95 C 2317.89 2461.31 2307.64 2464.06 2297.21 2465.99 C 2288.96 2467.99 2280.58 2469.39 2272.31 2471.33 C 2269.26 2471.81 2266.25 2472.50 2263.28 2473.28 C 2256.21 2474.23 2249.30 2476.07 2242.23 2477.00 C 2238.28 2477.90 2234.28 2478.48 2230.33 2479.28 C 2228.83 2479.53 2227.38 2479.84 2225.94 2480.19 C 2224.24 2480.44 2222.60 2480.75 2220.97 2481.17 C 2216.93 2481.60 2212.94 2482.31 2208.99 2483.20 C 2206.63 2483.35 2204.29 2483.54 2202.04 2484.21 C 2195.65 2484.89 2189.35 2486.13 2182.98 2486.80 C 2173.34 2488.65 2163.55 2489.52 2153.90 2491.22 C 2150.02 2491.57 2146.12 2491.54 2142.26 2491.97 C 2137.31 2493.57 2132.06 2493.36 2126.99 2494.24 C 2107.70 2496.01 2088.44 2499.47 2069.01 2498.39 C 2071.55 2498.45 2074.12 2498.69 2076.62 2499.37 C 2077.75 2499.50 2078.97 2499.75 2080.15 2499.98 C 2078.08 2500.09 2076.02 2500.20 2074.00 2500.03 C 2068.95 2499.45 2063.93 2500.54 2058.90 2500.73 C 2050.60 2502.06 2042.15 2500.92 2033.86 2502.17 C 2028.24 2502.36 2022.63 2502.61 2017.06 2503.26 C 1991.03 2503.55 1965.00 2503.79 1938.97 2503.45 C 1928.09 2503.50 1917.27 2502.34 1906.40 2502.26 C 1900.31 2501.07 1894.02 2502.15 1887.99 2500.79 C 1856.83 2500.04 1826.07 2494.60 1795.24 2490.48 C 1783.58 2488.22 1771.88 2486.23 1760.29 2483.65 C 1755.61 2482.75 1750.98 2481.64 1746.34 2480.65 C 1741.97 2479.78 1737.64 2478.76 1733.35 2477.65 C 1731.98 2477.29 1730.63 2476.93 1729.32 2476.63 C 1722.51 2475.47 1716.06 2471.88 1709.06 2472.42 C 1708.57 2473.99 1708.09 2475.60 1707.55 2477.20 C 1661.38 2596.70 1615.22 2716.22 1569.07 2835.73 C 1579.30 2836.91 1589.05 2840.52 1599.10 2842.65 C 1607.54 2844.87 1616.18 2846.20 1624.61 2848.46 C 1636.41 2850.80 1647.98 2854.21 1659.91 2855.86 C 1671.63 2857.99 1683.31 2860.35 1694.94 2862.94 C 1707.25 2865.24 1719.68 2866.89 1732.08 2868.67 C 1746.12 2870.07 1759.85 2873.64 1773.92 2874.81 C 1782.60 2875.49 1791.20 2877.51 1799.96 2877.04 C 1807.22 2877.64 1814.46 2878.68 1821.73 2879.36 C 1846.89 2882.82 1872.23 2884.66 1897.55 2886.27 C 1903.72 2887.18 1910.00 2886.47 1916.19 2887.38 C 1921.45 2888.32 1926.72 2886.13 1932.01 2887.24 C 1938.90 2888.75 1946.01 2887.26 1952.94 2888.51 C 1958.92 2889.38 1965.00 2888.67 1971.03 2889.06 C 1980.63 2890.31 1990.34 2889.74 2000.00 2889.98 C 2029.00 2889.88 2058.02 2890.10 2087.02 2889.61 C 2093.66 2888.60 2100.43 2889.42 2107.07 2888.27 C 2112.74 2888.01 2118.33 2886.72 2124.04 2886.96 C 2131.02 2886.92 2138.05 2887.31 2144.97 2886.13 C 2150.95 2885.84 2156.97 2886.01 2162.92 2885.05 C 2170.00 2885.12 2176.98 2883.92 2184.06 2883.70 C 2187.75 2883.46 2191.25 2881.86 2195.02 2882.01 C 2200.39 2882.06 2205.67 2880.75 2211.07 2880.82 C 2224.41 2879.19 2237.91 2878.60 2251.10 2875.86 C 2273.23 2871.31 2296.19 2871.47 2317.99 2865.22 C 2336.43 2861.57 2355.15 2859.31 2373.54 2855.31 C 2392.87 2848.73 2413.81 2848.20 2432.83 2840.58 C 2438.82 2838.58 2445.16 2838.01 2451.24 2836.28 C 2457.39 2834.51 2463.79 2833.67 2469.85 2831.52 C 2474.67 2829.61 2479.72 2828.35 2484.57 2826.48 C 2494.12 2823.99 2503.76 2821.75 2513.10 2818.50 C 2498.73 2780.24 2483.70 2742.23 2469.10 2704.05 C 2437.59 2622.56 2406.13 2541.07 2374.65 2459.57 C 2372.98 2455.49 2371.77 2451.17 2369.25 2447.53 C 2368.22 2448.04 2367.19 2448.51 2366.15 2448.92 Z" />
</g>
</svg>
