<?xml version="1.0" encoding="UTF-8" ?>
<!DOCTYPE svg PUBLIC "-//W3C//DTD SVG 1.1//EN" "http://www.w3.org/Graphics/SVG/1.1/DTD/svg11.dtd">
<svg width="1250pt" height="1250pt" viewBox="0 0 1250 1250" version="1.1" xmlns="http://www.w3.org/2000/svg">
<g id="#000000ff">
<path fill="#000000" opacity="1.00" d=" M 640.39 296.93 C 640.35 294.36 641.98 291.31 644.92 291.49 C 650.81 291.59 656.75 291.74 662.60 292.52 C 665.39 293.15 665.40 296.69 665.06 298.96 C 662.57 324.28 660.68 349.64 659.41 375.05 C 657.44 403.33 656.37 431.68 656.07 460.03 C 655.88 462.26 655.75 465.56 652.94 466.04 C 648.18 466.51 643.34 466.41 638.65 465.49 C 636.40 460.33 637.46 454.62 637.21 449.17 C 635.77 413.80 637.46 378.42 637.75 343.04 C 638.41 327.66 639.19 312.28 640.39 296.93 Z" />
<path fill="#000000" opacity="1.00" d=" M 719.60 297.90 C 719.77 295.42 721.09 292.35 723.95 292.26 C 729.32 291.89 734.73 292.14 740.11 292.47 C 742.32 292.53 744.72 293.65 745.22 296.02 C 745.88 300.34 744.52 304.64 744.21 308.94 C 742.62 324.03 740.96 339.14 740.24 354.30 C 748.38 340.81 752.66 325.57 758.86 311.19 C 760.86 306.52 762.58 301.71 764.88 297.17 C 765.61 295.53 767.10 294.14 769.04 294.48 C 771.30 295.32 772.27 297.71 773.41 299.64 C 776.28 305.29 779.29 310.88 782.25 316.48 C 783.82 319.37 783.95 322.87 782.75 325.92 C 776.23 343.03 767.18 359.04 757.33 374.44 C 756.36 376.14 754.54 377.92 755.88 379.95 C 761.64 394.69 768.49 409.20 778.22 421.77 C 780.21 424.09 779.99 427.32 779.14 430.06 C 775.86 441.23 773.11 452.55 769.94 463.75 C 769.46 465.50 768.24 467.85 766.06 467.43 C 764.06 467.41 763.09 465.29 761.98 463.97 C 749.67 445.73 742.97 424.50 736.53 403.66 C 735.00 421.08 734.49 438.57 733.69 456.03 C 733.34 459.39 734.74 464.46 730.88 466.19 C 727.26 466.62 723.59 466.44 719.96 466.31 C 718.18 466.29 715.96 465.62 715.51 463.66 C 714.48 459.86 714.85 455.89 714.76 452.00 C 714.28 422.00 715.85 392.02 716.67 362.03 C 717.71 340.66 718.27 319.26 719.60 297.90 Z" />
<path fill="#000000" opacity="1.00" d=" M 298.36 307.30 C 299.27 304.35 303.53 304.55 304.97 306.95 C 309.47 312.55 313.21 318.72 317.62 324.39 C 319.97 327.33 320.63 331.30 319.52 334.88 C 315.06 352.04 306.87 367.89 298.70 383.52 C 297.65 384.92 298.36 386.59 299.09 387.96 C 306.54 401.97 315.42 415.25 325.90 427.18 C 328.17 429.53 327.48 432.93 326.85 435.80 C 324.41 447.04 323.13 458.51 320.50 469.71 C 320.01 472.02 316.75 472.36 315.28 470.83 C 313.20 468.81 311.56 466.40 309.85 464.08 C 298.27 447.66 289.88 429.27 282.37 410.71 C 281.99 418.60 282.96 426.48 282.72 434.38 C 282.87 434.42 283.17 434.50 283.32 434.54 C 283.29 443.37 283.65 452.21 284.48 461.00 C 284.58 464.08 285.22 467.27 284.36 470.29 C 282.90 472.23 280.17 471.60 278.07 471.92 C 274.73 471.86 270.93 472.96 267.93 471.04 C 265.53 467.93 266.13 463.62 265.56 459.93 C 260.49 414.44 258.19 368.71 254.02 323.14 C 253.71 318.88 253.03 314.60 253.52 310.34 C 253.85 307.74 256.57 306.60 258.89 306.45 C 264.23 305.97 269.61 305.24 274.98 305.58 C 278.60 305.86 279.35 310.07 279.28 312.99 C 279.37 329.79 279.69 346.59 280.43 363.37 C 289.43 345.76 291.77 325.78 298.36 307.30 Z" />
<path fill="#000000" opacity="1.00" d=" M 828.16 317.18 C 830.76 312.78 834.05 308.23 839.04 306.41 C 843.04 304.82 847.53 306.66 850.31 309.69 C 855.23 314.85 856.85 322.08 858.03 328.89 C 859.99 339.80 859.56 350.93 859.30 361.96 C 858.38 384.33 856.79 406.69 854.22 428.94 C 852.75 440.71 851.63 452.64 847.94 463.98 C 847.35 466.07 845.02 467.00 843.04 466.35 C 838.33 465.19 833.51 464.47 828.81 463.28 C 825.68 462.37 826.36 458.52 826.61 456.06 C 830.67 428.46 832.77 400.62 834.05 372.77 C 834.19 363.17 835.71 353.32 833.26 343.89 C 828.29 352.24 825.93 361.76 823.16 370.99 C 814.93 400.08 812.02 430.32 810.02 460.38 C 809.68 462.55 809.66 465.30 807.45 466.50 C 804.48 467.75 801.12 467.48 798.08 468.55 C 795.65 469.15 792.53 470.79 790.45 468.58 C 787.76 465.41 788.64 460.87 788.07 457.05 C 785.74 431.11 786.07 405.04 786.69 379.03 C 787.43 360.89 787.34 342.71 789.03 324.62 C 789.54 320.65 789.03 316.44 790.72 312.71 C 791.93 309.97 795.22 309.25 797.94 309.55 C 805.04 310.06 812.20 309.61 819.27 310.63 C 819.91 312.71 820.55 314.88 819.92 317.06 C 817.92 327.62 816.64 338.29 815.55 348.97 C 818.82 338.05 822.44 327.10 828.16 317.18 Z" />
<path fill="#000000" opacity="1.00" d=" M 432.36 308.63 C 439.28 306.28 446.89 309.23 451.86 314.24 C 459.23 321.81 463.74 331.73 466.34 341.88 C 469.50 354.20 471.47 366.96 470.64 379.71 C 469.54 401.69 468.59 424.15 461.00 445.06 C 458.67 452.27 454.88 459.07 449.52 464.47 C 446.02 467.92 440.95 470.55 435.94 469.23 C 430.41 467.79 426.24 463.51 422.83 459.16 C 417.24 452.14 414.23 443.52 412.07 434.92 C 405.24 407.88 403.29 379.45 407.95 351.87 C 409.61 340.47 413.05 329.17 419.29 319.40 C 422.40 314.62 426.78 310.31 432.36 308.63 M 434.80 352.97 C 431.05 362.49 430.57 372.86 429.80 382.95 C 429.30 395.65 429.49 408.46 431.76 421.00 C 433.17 427.76 435.21 434.79 440.10 439.91 C 441.56 437.92 442.91 435.80 443.61 433.42 C 447.22 421.60 449.18 409.31 449.80 396.98 C 450.83 383.14 451.10 368.88 446.81 355.51 C 445.74 352.61 444.55 349.46 441.89 347.63 C 438.57 346.85 436.19 350.44 434.80 352.97 Z" />
<path fill="#000000" opacity="1.00" d=" M 478.99 313.06 C 479.33 310.91 480.38 308.20 482.97 308.17 C 487.79 308.37 492.40 310.03 497.06 311.16 C 499.79 311.99 502.74 312.43 505.16 314.03 C 505.88 315.55 505.33 317.30 505.28 318.92 C 502.31 341.16 500.95 363.58 500.26 386.00 C 499.88 394.98 499.31 404.02 500.14 413.00 C 503.69 398.14 505.32 382.87 508.94 368.02 C 509.44 365.96 510.65 363.40 513.09 363.33 C 517.09 363.31 521.09 363.44 525.07 362.82 C 527.54 362.10 529.85 364.09 530.24 366.48 C 531.69 374.15 531.32 382.02 531.96 389.78 C 532.77 401.61 534.32 413.40 536.65 425.03 C 539.84 414.31 539.36 403.04 540.25 392.01 C 541.45 367.89 538.45 343.85 535.45 319.97 C 534.88 317.34 537.00 315.25 539.36 314.61 C 544.00 313.10 548.27 310.58 552.96 309.21 C 556.23 308.75 556.80 312.65 557.29 314.99 C 560.69 332.45 561.10 350.31 562.22 368.02 C 562.58 380.95 561.85 393.87 561.14 406.78 C 559.93 419.97 559.49 433.35 555.98 446.19 C 554.30 453.02 552.48 460.24 547.54 465.52 C 544.21 469.21 538.68 471.36 533.88 469.35 C 527.02 466.82 523.28 459.94 520.49 453.62 C 518.11 448.64 516.36 443.39 514.81 438.10 C 512.87 447.90 511.38 458.20 505.79 466.72 C 503.00 471.08 497.00 473.13 492.25 470.84 C 487.46 468.43 484.91 463.31 483.20 458.48 C 476.07 436.34 475.88 412.86 475.52 389.84 C 475.44 364.23 474.39 338.39 478.99 313.06 Z" />
<path fill="#000000" opacity="1.00" d=" M 898.26 308.21 C 905.96 306.25 913.90 310.48 918.47 316.58 C 927.31 328.06 929.61 342.96 930.35 357.04 C 931.33 371.17 928.93 385.17 926.81 399.08 C 923.81 417.70 918.70 436.22 909.66 452.87 C 905.43 459.36 900.25 466.32 892.47 468.59 C 885.91 470.50 879.67 466.09 875.82 461.15 C 869.22 453.61 866.42 443.70 864.95 434.00 C 861.16 410.33 861.18 385.94 866.14 362.44 C 868.95 349.34 872.37 336.03 879.62 324.59 C 883.84 317.39 889.68 310.08 898.26 308.21 M 901.39 347.43 C 898.20 348.83 896.00 351.83 894.76 355.00 C 889.71 367.03 887.98 380.09 886.51 392.95 C 885.26 405.71 884.40 419.01 888.31 431.41 C 889.44 434.15 890.20 437.65 893.06 439.11 C 895.07 437.37 896.18 434.90 897.16 432.49 C 902.98 417.58 906.29 401.81 908.26 385.97 C 909.59 374.79 909.96 363.15 906.51 352.31 C 905.68 350.15 904.32 346.61 901.39 347.43 Z" />
<path fill="#000000" opacity="1.00" d=" M 365.66 318.66 C 367.70 314.96 370.83 311.47 375.09 310.51 C 379.52 309.49 383.95 311.82 386.87 315.03 C 391.26 319.75 393.30 326.02 395.05 332.09 C 398.66 344.36 399.10 357.23 400.20 369.90 C 401.50 392.60 401.99 415.36 401.13 438.10 C 400.60 447.52 400.46 457.04 398.17 466.25 C 397.59 467.91 395.65 468.69 394.02 468.18 C 389.14 467.19 384.17 466.66 379.32 465.58 C 376.42 464.94 376.43 461.37 376.54 459.02 C 377.40 443.02 377.42 426.99 377.25 410.97 C 376.77 399.64 376.27 388.30 376.22 376.95 C 375.98 379.21 375.89 381.50 375.49 383.75 C 374.81 379.87 376.21 375.97 375.59 372.07 C 374.78 364.27 374.87 356.19 372.09 348.76 C 369.46 351.18 369.24 355.22 368.14 358.47 C 365.08 373.51 362.12 388.64 361.27 403.99 C 359.64 423.95 360.57 443.99 360.46 463.99 C 360.44 466.12 360.14 469.04 357.74 469.81 C 353.81 470.83 349.76 471.42 345.94 472.86 C 342.94 474.14 340.23 471.27 339.84 468.47 C 336.33 447.74 333.54 426.89 331.39 405.97 C 328.99 379.36 327.32 352.69 325.52 326.04 C 325.44 323.46 325.41 320.41 327.49 318.55 C 329.86 316.59 333.16 316.98 336.02 316.83 C 341.35 316.95 346.65 316.18 351.98 316.35 C 354.48 316.16 355.55 318.97 355.47 321.05 C 355.48 331.50 354.05 341.98 355.42 352.41 C 357.38 340.81 359.84 329.01 365.66 318.66 Z" />
<path fill="#000000" opacity="1.00" d=" M 944.58 315.43 C 944.99 313.08 946.65 311.41 948.82 310.55 C 956.24 312.57 963.62 314.82 970.74 317.77 C 968.09 332.24 964.71 346.58 962.50 361.13 C 959.45 379.61 957.17 398.21 955.83 416.89 C 960.52 401.70 963.78 386.07 968.99 371.03 C 969.75 368.91 971.47 366.56 973.98 366.70 C 978.32 367.00 982.66 366.86 987.00 366.63 C 990.53 367.07 990.64 371.26 990.58 374.00 C 990.35 391.98 989.30 410.06 991.74 427.95 C 996.01 416.75 996.99 404.68 998.60 392.90 C 1001.16 371.73 1001.06 350.35 1000.19 329.07 C 1000.16 327.05 999.95 325.00 1000.41 323.02 C 1000.98 321.06 1003.27 320.65 1004.93 320.03 C 1009.05 318.88 1012.98 317.17 1017.08 315.96 C 1018.84 315.17 1021.11 316.41 1021.31 318.35 C 1023.00 327.46 1022.67 336.77 1023.14 345.98 C 1022.71 360.67 1022.74 375.41 1020.98 390.03 C 1019.12 406.80 1016.40 423.50 1012.50 439.92 C 1010.00 448.36 1007.57 457.10 1002.66 464.52 C 999.40 469.18 994.00 473.14 988.05 472.40 C 982.16 471.54 977.91 466.68 975.40 461.61 C 972.19 454.96 970.13 447.80 968.77 440.56 C 966.58 446.24 965.43 452.29 962.86 457.83 C 960.50 463.06 957.96 468.86 952.64 471.70 C 947.95 474.27 941.64 472.72 938.71 468.24 C 933.90 461.17 933.11 452.34 932.28 444.06 C 930.31 427.06 932.39 409.98 933.39 392.99 C 934.89 366.88 937.87 340.75 944.58 315.43 Z" />
<path fill="#000000" opacity="1.00" d=" M 177.51 313.76 C 183.33 313.12 189.22 313.01 195.07 312.83 C 197.52 312.58 199.35 314.76 199.29 317.08 C 199.70 329.36 200.44 341.62 201.12 353.89 C 201.40 370.95 202.96 387.94 203.53 404.98 C 205.13 426.32 205.98 447.71 207.99 469.02 C 208.41 471.23 207.82 474.69 204.94 474.66 C 201.01 474.99 197.01 475.51 193.09 474.92 C 189.66 474.09 189.65 469.83 189.18 467.04 C 187.67 452.33 185.33 437.71 184.00 422.98 C 182.19 402.79 179.86 382.65 177.84 362.48 C 176.58 348.32 175.81 334.12 174.57 319.95 C 174.28 317.57 174.65 314.29 177.51 313.76 Z" />
<path fill="#000000" opacity="1.00" d=" M 567.47 437.48 C 571.03 432.84 578.83 431.41 583.12 435.84 C 587.98 440.75 589.36 448.34 588.09 454.97 C 586.64 462.80 585.14 470.72 582.07 478.11 C 581.12 480.46 579.72 483.02 576.96 483.46 C 574.34 484.44 571.31 482.75 570.72 480.05 C 570.95 476.16 571.84 472.32 571.85 468.41 C 568.05 466.10 564.96 462.54 564.00 458.11 C 562.50 451.21 563.03 443.25 567.47 437.48 Z" />
<path fill="#000000" opacity="1.00" d=" M 1028.45 437.61 C 1033.85 435.76 1039.54 439.30 1041.34 444.46 C 1044.13 452.29 1042.57 461.73 1037.00 467.99 C 1033.93 471.46 1028.74 473.58 1024.26 471.71 C 1020.39 470.09 1018.22 466.05 1017.33 462.15 C 1015.88 456.78 1016.86 451.07 1019.06 446.06 C 1020.80 442.10 1024.15 438.66 1028.45 437.61 Z" />
<path fill="#000000" opacity="1.00" d=" M 413.77 504.81 C 416.53 500.82 422.00 497.87 426.68 500.49 C 433.06 504.03 435.60 511.45 437.98 517.91 C 443.17 531.36 444.93 545.78 446.36 560.03 C 447.08 567.98 448.44 575.87 448.85 583.85 C 448.97 583.26 449.10 582.67 449.23 582.09 C 449.45 593.75 451.40 605.31 451.63 616.98 C 452.84 632.97 452.41 649.03 453.29 665.04 C 453.18 668.65 454.20 672.74 452.04 675.94 C 448.59 677.62 444.60 677.96 441.00 679.33 C 440.38 679.09 439.13 678.63 438.50 678.40 C 436.52 670.92 436.09 662.97 436.63 655.27 C 436.16 656.06 435.78 656.90 435.33 657.72 C 435.84 649.76 435.22 641.82 434.48 633.89 C 426.90 635.41 419.68 638.26 412.27 640.41 C 412.17 651.95 412.23 663.50 413.06 675.01 C 413.19 676.97 412.66 679.93 410.08 679.74 C 404.63 679.80 399.13 679.65 393.70 679.15 C 390.43 678.53 390.45 674.60 390.44 672.02 C 390.20 649.63 391.96 627.29 392.89 604.94 C 394.30 583.18 396.62 561.44 400.82 540.03 C 403.83 527.91 406.15 515.06 413.77 504.81 M 417.53 563.10 C 415.42 579.27 413.84 595.53 413.11 611.83 C 419.06 608.33 426.17 608.67 432.65 606.93 C 431.50 590.62 429.40 574.37 426.90 558.21 C 425.73 551.02 425.36 543.65 423.02 536.71 C 419.39 545.05 419.03 554.25 417.53 563.10 Z" />
<path fill="#000000" opacity="1.00" d=" M 793.74 511.97 C 793.67 509.53 793.76 505.37 797.06 505.23 C 802.39 505.32 807.64 506.85 813.01 506.32 C 827.70 505.56 842.44 506.17 857.09 504.73 C 859.60 504.39 861.86 506.59 861.66 509.12 C 861.76 518.12 860.43 527.11 861.09 536.11 C 861.03 538.47 860.68 541.78 857.96 542.53 C 852.21 543.29 846.40 543.28 840.62 543.69 C 837.83 585.09 835.98 626.55 835.49 668.05 C 835.37 670.29 835.68 674.09 832.68 674.49 C 827.50 674.81 822.28 674.79 817.10 674.66 C 814.30 674.54 813.07 671.43 813.23 669.00 C 813.51 645.34 814.76 621.68 814.24 598.01 C 814.35 580.42 814.13 562.82 814.25 545.22 C 808.48 546.16 802.77 547.76 796.90 547.75 C 794.42 547.90 793.46 545.14 793.50 543.12 C 792.98 532.74 794.22 522.36 793.74 511.97 Z" />
<path fill="#000000" opacity="1.00" d=" M 616.18 506.09 C 623.64 504.58 630.87 508.88 635.72 514.25 C 643.01 522.34 647.46 532.62 650.28 543.04 C 653.49 555.75 655.20 568.88 654.77 582.01 C 654.91 605.01 652.96 628.38 645.19 650.19 C 642.00 658.76 637.38 667.30 629.88 672.83 C 625.32 676.17 618.90 675.94 614.36 672.70 C 604.32 665.57 598.70 653.86 596.09 642.10 C 588.26 608.42 586.48 572.92 593.80 538.97 C 595.31 531.79 597.97 524.88 601.38 518.40 C 604.47 512.63 609.52 507.34 616.18 506.09 M 617.69 553.49 C 615.14 561.08 613.93 569.08 613.44 577.06 C 613.14 587.05 612.28 597.06 613.15 607.05 C 613.54 615.91 614.25 624.86 616.88 633.38 C 618.43 637.99 620.35 642.71 624.02 646.08 C 626.63 643.50 628.00 640.08 628.91 636.60 C 633.70 619.17 635.69 601.01 635.25 582.96 C 634.52 572.44 633.87 561.57 629.43 551.84 C 628.43 549.31 626.39 547.48 624.00 546.30 C 621.42 548.20 618.75 550.33 617.69 553.49 Z" />
<path fill="#000000" opacity="1.00" d=" M 718.24 508.03 C 718.60 505.93 721.02 505.19 722.88 505.61 C 729.10 506.44 735.38 506.85 741.60 507.71 C 744.38 508.32 744.76 511.63 744.55 514.00 C 741.55 547.56 741.21 581.34 742.87 614.98 C 743.68 619.92 743.19 626.29 747.84 629.45 C 752.45 621.19 753.86 611.62 755.46 602.42 C 760.34 572.85 762.61 542.90 763.71 512.97 C 763.74 510.40 764.96 507.38 767.90 507.17 C 773.24 506.43 778.70 506.99 784.07 506.27 C 787.04 506.05 786.78 509.89 786.73 511.93 C 784.49 552.91 783.53 593.95 783.72 634.99 C 783.79 644.34 783.59 653.70 784.16 663.03 C 784.29 665.83 783.69 669.45 780.56 670.35 C 775.72 671.85 771.00 673.98 766.01 674.86 C 763.33 675.03 762.77 672.05 762.64 670.01 C 762.19 662.20 761.78 654.40 761.12 646.61 C 757.76 654.32 754.79 662.28 750.38 669.48 C 748.12 673.27 744.48 676.38 740.05 677.19 C 736.31 677.96 732.44 676.01 730.27 673.00 C 727.84 669.60 726.36 665.65 725.02 661.74 C 719.96 646.35 718.51 630.10 717.57 614.02 C 716.07 583.71 715.65 553.29 717.34 522.98 C 717.70 518.01 717.13 512.91 718.24 508.03 Z" />
<path fill="#000000" opacity="1.00" d=" M 874.44 507.54 C 876.68 506.11 879.47 506.28 882.02 505.97 C 893.68 505.34 905.38 505.76 917.01 506.83 C 919.25 507.19 922.12 507.28 923.37 509.56 C 924.24 512.58 923.49 515.76 923.14 518.80 C 921.78 526.82 921.16 534.97 919.46 542.92 C 919.14 545.08 917.07 546.44 914.95 545.74 C 906.80 543.74 898.37 543.28 890.28 541.06 C 888.84 552.94 887.39 564.86 887.12 576.83 C 891.43 576.51 895.67 575.45 900.01 575.35 C 901.95 575.19 902.90 577.32 902.79 578.98 C 902.96 584.96 902.66 590.94 902.78 596.93 C 902.63 599.14 903.15 601.95 901.08 603.46 C 896.13 604.15 891.13 604.61 886.14 604.74 C 885.46 612.48 885.64 620.26 885.56 628.02 C 885.84 633.57 885.14 639.21 886.47 644.66 C 887.84 644.64 889.25 644.76 890.64 644.48 C 897.07 640.87 901.87 634.99 908.12 631.14 C 911.08 633.80 912.15 637.73 913.87 641.19 C 915.71 644.89 916.71 649.62 914.12 653.25 C 911.17 657.53 908.00 661.66 904.80 665.75 C 901.55 669.52 898.83 673.96 894.43 676.51 C 888.66 680.02 880.46 680.49 875.25 675.73 C 869.78 670.72 868.12 663.06 866.89 656.06 C 865.04 641.80 865.65 627.39 865.45 613.06 C 865.24 580.28 867.21 547.51 871.05 514.97 C 871.52 512.30 872.04 509.20 874.44 507.54 Z" />
<path fill="#000000" opacity="1.00" d=" M 667.03 511.71 C 672.98 510.87 678.82 508.77 684.90 509.22 C 687.26 509.26 687.69 512.11 687.66 513.95 C 687.73 544.31 686.08 574.63 686.35 604.99 C 686.50 617.60 685.68 630.19 685.69 642.79 C 690.79 641.86 695.96 641.57 701.14 641.37 C 704.18 641.33 707.24 639.86 710.26 640.68 C 713.15 642.67 712.26 646.64 712.12 649.63 C 711.26 656.37 711.73 663.24 710.55 669.95 C 710.32 671.84 708.73 673.26 706.91 673.60 C 701.06 675.05 694.97 674.87 689.05 675.82 C 683.05 676.85 677.03 677.85 670.95 678.11 C 668.12 677.69 667.16 674.67 666.85 672.24 C 662.69 635.32 661.63 598.17 660.34 561.08 C 660.24 547.69 659.98 534.32 659.55 520.95 C 659.59 518.55 659.16 515.77 660.90 513.83 C 662.47 512.15 664.95 512.19 667.03 511.71 Z" />
<path fill="#000000" opacity="1.00" d=" M 978.99 514.20 C 979.80 511.93 981.46 509.47 984.09 509.28 C 986.76 509.09 989.34 510.08 991.91 510.70 C 996.07 511.84 1000.39 512.26 1004.54 513.48 C 1005.96 517.38 1004.38 521.32 1003.45 525.13 C 1000.33 536.98 997.56 548.95 996.08 561.13 C 994.96 571.20 993.14 581.62 996.08 591.56 C 1000.82 583.71 1002.42 574.51 1005.23 565.88 C 1009.49 551.03 1013.37 536.06 1017.26 521.11 C 1018.34 517.80 1019.78 513.28 1023.99 513.17 C 1028.10 512.88 1032.37 510.64 1036.38 512.49 C 1037.88 517.42 1037.45 522.60 1037.09 527.67 C 1035.67 551.83 1032.69 575.87 1030.80 599.99 C 1029.61 614.41 1027.95 628.81 1025.43 643.06 C 1023.25 653.57 1019.71 663.95 1013.73 672.93 C 1010.92 676.77 1007.07 680.66 1002.01 680.85 C 997.17 681.35 992.90 678.61 988.98 676.17 C 986.66 674.65 984.02 672.86 983.51 669.93 C 982.76 665.15 984.36 660.46 985.37 655.84 C 986.87 650.24 987.64 644.43 989.71 638.99 C 992.76 639.87 995.72 641.93 999.03 641.46 C 1002.43 640.12 1004.12 636.56 1005.24 633.31 C 1010.00 619.00 1011.29 603.86 1012.64 588.93 C 1008.71 600.16 1005.16 611.66 999.11 621.98 C 996.70 625.92 993.71 630.17 989.00 631.43 C 984.80 632.58 980.57 630.12 978.17 626.78 C 974.18 621.32 972.54 614.59 971.28 608.06 C 968.33 592.88 969.77 577.32 971.11 562.04 C 971.97 551.31 973.39 540.63 975.36 530.05 C 976.39 524.73 977.10 519.30 978.99 514.20 Z" />
<path fill="#000000" opacity="1.00" d=" M 537.84 519.98 C 540.97 514.97 545.71 510.07 552.00 509.84 C 559.63 509.74 565.69 515.53 569.46 521.63 C 576.96 533.76 578.58 548.25 580.39 562.09 C 580.46 563.56 580.78 565.34 579.61 566.50 C 576.70 569.97 572.96 572.68 568.95 574.75 C 567.59 573.60 565.76 572.73 565.25 570.91 C 562.99 564.81 561.64 557.89 556.63 553.31 C 555.32 551.84 552.42 551.36 551.32 553.30 C 548.85 557.39 548.72 562.41 548.47 567.05 C 548.08 575.92 551.22 585.02 557.64 591.26 C 563.00 596.26 568.85 600.75 573.87 606.11 C 581.77 614.70 585.15 626.59 585.38 638.05 C 585.24 648.50 582.69 659.58 575.40 667.43 C 569.72 673.09 562.26 677.78 553.98 677.70 C 543.96 677.85 534.48 671.13 530.70 661.98 C 529.02 658.09 530.38 653.93 531.08 650.00 C 532.34 643.96 532.71 637.72 534.82 631.88 C 535.91 631.39 537.01 630.90 538.11 630.42 C 544.46 633.94 547.90 641.30 555.04 643.58 C 557.10 642.65 559.03 641.48 560.85 640.13 C 559.90 636.23 557.50 632.96 554.94 629.96 C 550.72 624.82 544.22 622.22 540.12 616.94 C 528.91 603.76 526.32 585.70 526.21 568.97 C 525.67 552.03 528.96 534.60 537.84 519.98 Z" />
<path fill="#000000" opacity="1.00" d=" M 940.01 511.66 C 946.39 511.09 952.69 509.16 959.14 509.74 C 962.39 510.59 961.22 514.47 960.92 516.87 C 953.90 559.18 950.04 601.94 947.58 644.73 C 952.35 644.02 957.17 643.66 962.00 643.68 C 965.84 643.75 969.71 642.21 973.50 643.45 C 975.37 648.46 973.50 653.73 973.22 658.85 C 972.57 663.17 972.69 667.59 971.82 671.88 C 971.53 673.31 970.73 674.77 969.27 675.27 C 965.05 676.78 960.48 676.56 956.09 677.04 C 947.67 677.50 939.37 679.79 930.92 679.49 C 928.26 678.61 927.71 675.52 927.54 673.10 C 923.62 624.78 925.10 576.11 930.37 527.95 C 930.85 523.69 930.64 519.23 932.20 515.18 C 933.49 512.10 937.18 512.00 940.01 511.66 Z" />
<path fill="#000000" opacity="1.00" d=" M 200.36 511.51 C 205.17 510.61 210.15 511.35 215.03 511.17 C 217.36 511.22 221.01 510.85 221.44 514.01 C 222.68 531.98 221.98 550.03 222.64 568.03 C 222.75 601.39 225.03 634.70 225.67 668.05 C 225.44 672.43 227.84 677.59 225.00 681.42 C 221.02 682.06 216.96 682.30 212.94 682.08 C 209.82 681.97 209.19 678.45 208.96 676.02 C 206.87 652.04 205.01 628.03 203.39 604.02 C 201.56 579.72 199.95 555.39 199.35 531.03 C 199.26 525.66 198.48 520.32 198.67 514.95 C 198.77 513.73 199.05 511.97 200.36 511.51 Z" />
<path fill="#000000" opacity="1.00" d=" M 483.28 520.28 C 485.96 516.02 489.86 512.02 495.02 511.12 C 499.11 510.05 503.36 511.89 506.30 514.71 C 513.23 521.21 516.54 530.76 517.00 540.08 C 517.19 557.89 512.33 575.27 506.38 591.91 C 512.61 594.86 517.64 600.07 520.46 606.35 C 524.15 614.65 525.04 624.03 523.71 632.97 C 521.93 645.54 518.65 658.50 510.36 668.48 C 506.80 672.88 501.76 676.24 496.07 676.97 C 491.11 677.80 486.23 676.07 481.66 674.34 C 479.89 678.50 474.92 678.92 470.99 678.81 C 469.32 678.76 467.20 678.39 466.52 676.62 C 464.98 672.28 465.54 667.56 464.90 663.06 C 463.91 647.17 462.56 631.31 460.99 615.47 C 458.65 588.29 454.77 561.25 453.48 533.99 C 453.43 529.59 451.90 525.07 453.63 520.81 C 458.35 519.42 462.86 517.44 467.45 515.68 C 469.34 514.80 472.36 514.87 472.79 517.42 C 474.30 525.22 474.19 533.27 474.89 541.18 C 476.81 533.91 479.34 526.72 483.28 520.28 M 495.28 542.30 C 489.50 548.85 487.14 557.61 485.19 565.94 C 483.49 575.31 481.30 584.71 481.40 594.29 C 490.10 579.57 494.39 562.73 496.96 545.95 C 497.02 544.57 497.67 541.21 495.28 542.30 M 496.43 613.67 C 491.45 615.98 487.50 619.95 483.84 623.96 C 481.57 626.41 480.48 629.74 480.56 633.06 C 480.60 637.08 480.37 641.32 481.95 645.11 C 484.14 648.05 488.52 648.76 491.95 648.11 C 497.86 646.31 501.22 640.35 502.89 634.79 C 504.60 628.52 505.28 621.46 502.59 615.37 C 501.63 612.85 498.56 612.10 496.43 613.67 Z" />
<path fill="#000000" opacity="1.00" d=" M 232.46 517.70 C 236.52 515.53 241.66 517.02 244.49 520.47 C 248.45 525.27 250.10 531.83 249.17 537.97 C 247.95 546.69 247.09 555.68 243.62 563.87 C 242.21 567.58 235.81 568.00 234.50 564.01 C 234.02 560.04 235.20 556.06 234.70 552.08 C 232.50 550.04 229.71 548.57 228.11 545.94 C 224.35 540.14 224.26 532.72 225.93 526.20 C 226.94 522.71 229.01 519.21 232.46 517.70 Z" />
<path fill="#000000" opacity="1.00" d=" M 304.66 530.57 C 307.40 526.03 311.25 521.07 316.97 520.66 C 322.54 520.74 326.48 525.48 328.81 530.05 C 334.44 541.21 336.20 553.79 337.53 566.07 C 338.54 575.02 338.62 584.03 338.65 593.03 C 338.61 620.37 338.23 647.76 335.68 675.00 C 335.65 677.13 334.76 679.99 332.12 679.79 C 327.38 679.59 322.72 678.43 318.05 677.69 C 315.51 677.21 315.16 674.10 315.33 672.00 C 316.97 645.07 318.08 618.07 317.31 591.09 C 316.88 586.15 317.15 581.04 315.68 576.26 C 315.31 576.25 314.57 576.23 314.20 576.23 C 310.90 580.96 310.59 586.97 309.80 592.50 C 308.42 607.31 308.53 622.20 308.10 637.05 C 307.98 638.40 308.03 639.97 307.05 641.05 C 303.09 642.04 298.97 642.87 294.87 642.72 C 292.11 642.57 289.95 640.25 289.76 637.55 C 288.82 626.13 287.47 614.71 284.78 603.56 C 283.04 596.54 282.60 589.02 278.82 582.68 C 275.99 587.24 276.58 592.86 276.53 598.00 C 277.37 614.73 278.20 631.49 280.58 648.09 C 281.87 656.68 282.51 665.34 283.70 673.94 C 283.81 675.34 284.03 676.95 283.19 678.22 C 281.83 679.61 279.74 679.70 277.97 680.15 C 273.92 680.79 269.99 682.06 265.93 682.55 C 264.09 681.87 263.85 679.77 263.50 678.14 C 261.37 664.93 258.40 651.85 257.07 638.52 C 255.17 617.06 252.91 595.56 253.39 573.98 C 253.61 561.17 253.65 548.19 256.37 535.61 C 257.54 530.85 259.06 525.27 263.82 522.90 C 268.02 520.57 273.29 522.21 276.64 525.28 C 280.55 528.82 282.48 533.87 284.21 538.71 C 288.47 550.25 290.65 562.39 293.48 574.32 C 295.34 559.41 296.86 543.77 304.66 530.57 Z" />
<path fill="#000000" opacity="1.00" d=" M 1041.27 700.06 C 1042.68 699.28 1044.39 699.63 1045.95 699.56 C 1053.98 699.82 1062.01 700.32 1070.05 700.50 C 1072.05 700.64 1074.39 700.50 1075.99 701.97 C 1077.27 703.37 1076.63 705.42 1076.45 707.11 C 1075.26 712.63 1075.37 718.35 1073.89 723.83 C 1068.52 749.18 1063.51 774.60 1058.77 800.08 C 1055.89 815.00 1052.94 829.92 1051.02 845.01 C 1050.53 847.84 1050.20 851.80 1046.92 852.76 C 1042.50 853.28 1038.41 850.96 1034.12 850.33 C 1031.38 849.56 1026.99 849.52 1026.45 845.95 C 1025.96 839.29 1027.29 832.66 1027.57 826.02 C 1031.16 786.00 1034.27 745.92 1039.01 706.01 C 1039.37 703.96 1039.22 701.27 1041.27 700.06 Z" />
<path fill="#000000" opacity="1.00" d=" M 249.21 709.21 C 253.51 705.30 259.67 702.44 265.48 704.51 C 272.80 706.99 277.19 713.96 280.29 720.62 C 289.63 740.44 291.80 762.56 294.36 784.05 C 298.84 819.85 300.85 855.91 301.94 891.95 C 302.14 897.62 302.83 903.31 302.29 908.97 C 302.09 911.52 299.19 911.74 297.28 912.31 C 293.73 913.07 290.43 914.66 286.90 915.42 C 285.23 915.38 284.84 913.32 284.62 912.05 C 282.44 894.53 282.29 876.78 279.27 859.36 C 268.16 861.93 257.51 866.20 246.56 869.40 C 244.29 870.10 240.83 870.94 241.35 874.08 C 241.26 887.74 241.69 901.40 242.77 915.03 C 242.76 916.96 243.48 920.33 240.56 920.28 C 232.71 920.75 224.83 921.54 216.96 921.53 C 215.53 920.19 215.63 918.15 215.46 916.38 C 214.80 900.91 215.69 885.43 216.22 869.97 C 216.77 845.22 218.32 820.49 221.32 795.91 C 223.99 773.80 227.27 751.43 235.79 730.70 C 238.92 722.83 242.62 714.81 249.21 709.21 M 253.51 756.00 C 247.53 781.63 244.50 807.83 242.20 834.01 C 242.14 835.96 241.87 839.04 244.31 839.68 C 246.91 839.71 248.92 837.35 251.37 836.62 C 259.65 834.19 268.26 833.08 276.74 831.50 C 276.95 830.35 277.09 829.20 277.16 828.06 C 274.90 804.21 271.05 780.54 266.90 756.95 C 265.76 751.39 264.48 745.62 261.02 740.98 C 256.57 744.70 255.30 750.74 253.51 756.00 Z" />
<path fill="#000000" opacity="1.00" d=" M 666.19 730.23 C 670.94 722.48 677.87 715.02 687.06 713.01 C 695.12 711.31 702.75 716.63 706.68 723.33 C 714.71 737.22 718.33 753.18 719.79 769.03 C 723.26 798.59 726.14 828.25 726.83 858.02 C 727.41 868.03 727.36 878.06 728.18 888.06 C 728.25 890.10 728.48 893.33 725.91 893.95 C 721.56 894.42 717.22 894.86 712.97 895.97 C 711.40 896.58 709.63 895.33 709.52 893.71 C 707.32 878.66 707.10 863.32 704.34 848.36 C 692.80 849.84 681.51 852.74 670.06 854.77 C 668.24 855.32 665.70 855.06 664.67 857.01 C 663.76 870.14 665.16 883.29 665.44 896.42 C 656.95 896.64 648.45 896.15 639.97 896.23 C 638.01 896.51 636.36 894.94 636.58 892.99 C 635.82 881.32 637.03 869.66 637.73 858.02 C 639.13 837.73 641.30 817.48 644.70 797.42 C 648.69 774.22 654.21 750.74 666.19 730.23 M 677.90 767.04 C 672.30 785.98 668.92 805.48 666.36 825.03 C 665.94 826.97 666.64 829.87 669.13 829.76 C 672.00 829.05 674.48 827.18 677.46 826.77 C 685.76 825.50 694.18 825.42 702.50 824.27 C 702.90 818.42 701.67 812.65 701.13 806.86 C 699.17 790.86 696.81 774.91 694.17 759.00 C 692.93 754.15 692.17 748.56 688.08 745.18 C 682.48 751.22 680.22 759.35 677.90 767.04 Z" />
<path fill="#000000" opacity="1.00" d=" M 781.26 727.35 C 787.24 719.86 796.01 713.64 805.92 713.59 C 813.12 713.31 819.54 717.85 823.83 723.27 C 829.40 730.15 831.83 739.34 830.53 748.09 C 828.04 767.54 818.86 785.23 809.83 802.35 C 818.63 805.01 826.87 810.36 831.66 818.37 C 837.33 827.45 838.10 838.75 836.02 849.06 C 833.26 862.52 827.86 876.10 817.53 885.56 C 810.22 892.46 799.93 896.16 789.89 894.94 C 783.45 894.48 777.46 892.05 771.44 889.95 C 771.10 891.44 770.85 892.96 770.42 894.45 C 765.98 896.52 760.77 896.52 755.99 895.97 C 752.82 895.88 753.10 892.15 752.59 889.89 C 748.77 850.25 743.93 810.72 740.47 771.05 C 738.84 756.41 738.56 741.67 738.24 726.95 C 738.21 725.27 738.27 723.59 738.68 721.97 C 740.94 720.85 743.49 720.62 745.94 720.14 C 752.13 719.00 758.20 717.23 764.45 716.34 C 765.78 720.43 765.22 724.76 765.31 728.99 C 765.40 739.70 765.36 750.41 765.68 761.12 C 769.24 749.23 773.06 736.97 781.26 727.35 M 798.75 743.84 C 787.95 750.87 781.94 763.13 778.28 775.13 C 775.02 786.52 771.60 798.17 771.84 810.14 C 789.07 794.30 798.60 772.04 805.18 750.01 C 807.12 746.03 802.64 741.49 798.75 743.84 M 798.57 822.69 C 789.95 824.97 782.02 829.54 775.29 835.35 C 768.34 840.73 769.57 850.51 771.02 858.12 C 771.98 863.06 777.37 864.66 781.63 865.57 C 788.19 867.24 795.48 865.98 800.89 861.83 C 809.13 855.73 812.87 844.95 812.07 834.95 C 811.60 830.95 810.44 826.55 807.04 824.05 C 804.65 822.19 801.41 821.99 798.57 822.69 Z" />
<path fill="#000000" opacity="1.00" d=" M 462.60 715.88 C 472.99 712.96 484.29 716.83 492.15 723.86 C 502.55 732.95 508.92 745.78 512.21 759.03 C 515.15 771.11 517.02 783.63 515.88 796.08 C 515.22 816.77 512.67 837.56 506.49 857.38 C 502.03 870.59 495.91 883.91 485.02 893.07 C 478.76 898.77 469.48 902.22 461.28 898.74 C 448.51 893.42 438.68 882.06 434.09 869.12 C 421.20 833.30 418.62 793.29 429.47 756.60 C 432.40 746.27 437.57 736.65 444.18 728.22 C 448.83 722.31 455.33 717.87 462.60 715.88 M 470.26 756.28 C 466.37 758.06 462.86 761.01 460.85 764.83 C 455.58 776.11 453.73 788.59 452.81 800.90 C 452.15 811.90 451.76 822.99 453.17 833.96 C 454.21 844.41 457.23 854.91 463.36 863.56 C 465.60 866.59 468.80 870.17 473.02 869.35 C 476.99 868.18 478.91 864.06 480.53 860.61 C 484.09 851.68 486.51 842.33 488.55 832.95 C 491.86 815.23 493.79 796.84 490.38 778.98 C 488.83 771.92 486.91 764.48 481.96 758.98 C 479.12 755.73 474.25 754.34 470.26 756.28 Z" />
<path fill="#000000" opacity="1.00" d=" M 579.45 719.44 C 585.13 715.12 593.30 713.70 599.66 717.40 C 607.87 721.86 611.99 730.88 614.75 739.38 C 619.91 754.71 619.35 771.50 614.98 786.96 C 610.79 803.50 603.50 819.41 592.76 832.74 C 591.48 834.09 590.83 836.00 592.04 837.65 C 597.54 847.52 605.35 856.23 615.02 862.17 C 616.17 863.06 618.42 864.16 617.27 865.98 C 612.24 874.92 606.48 883.47 601.36 892.37 C 600.16 894.24 598.77 897.17 596.03 896.30 C 590.15 894.50 585.01 890.55 581.29 885.71 C 574.30 876.12 569.76 864.98 566.64 853.59 C 565.86 849.60 561.90 846.79 557.96 846.68 C 557.61 846.99 556.91 847.62 556.56 847.93 C 556.42 862.27 556.74 876.63 556.90 890.97 C 556.87 892.42 556.86 893.95 556.29 895.33 C 551.53 896.15 546.66 895.75 541.87 896.34 C 539.85 896.39 536.55 897.11 535.93 894.45 C 533.81 872.36 532.05 850.21 531.69 828.01 C 531.40 807.34 530.24 786.69 530.27 766.01 C 530.41 751.66 531.54 737.27 530.27 722.94 C 530.21 721.31 530.04 719.55 530.89 718.09 C 532.92 716.55 535.61 716.87 538.00 716.77 C 545.32 716.84 552.68 716.47 559.96 717.50 C 561.75 717.54 561.80 719.65 561.75 720.98 C 561.42 729.40 560.12 737.78 560.37 746.23 C 565.48 736.57 570.40 726.06 579.45 719.44 M 581.79 745.82 C 578.29 748.03 576.19 751.76 574.17 755.24 C 568.35 766.38 565.41 778.73 563.07 791.00 C 561.55 800.72 559.55 810.50 559.64 820.38 C 566.83 821.64 573.79 817.68 577.93 811.98 C 587.73 798.85 591.68 782.14 591.49 765.95 C 591.75 759.18 591.68 751.50 586.79 746.22 C 585.57 744.71 583.28 744.80 581.79 745.82 Z" />
<path fill="#000000" opacity="1.00" d=" M 368.32 721.27 C 371.86 718.45 376.53 717.09 381.03 717.81 C 388.50 718.91 394.68 724.51 397.74 731.25 C 401.50 739.57 403.65 748.52 405.22 757.49 C 408.80 778.43 408.76 799.81 407.49 820.96 C 406.06 841.08 402.62 861.22 395.41 880.13 C 391.57 889.75 385.49 899.30 375.83 903.87 C 368.37 907.37 359.05 908.82 351.58 904.54 C 346.93 902.20 343.99 897.79 340.12 894.50 C 339.06 899.69 341.36 905.24 339.16 910.20 C 337.58 911.17 335.63 910.66 333.90 910.77 C 329.90 910.51 325.93 911.37 321.95 911.18 C 319.78 910.01 320.24 907.15 319.80 905.11 C 318.01 881.11 316.09 857.12 314.86 833.09 C 314.19 812.73 313.22 792.38 312.17 772.04 C 311.71 766.40 311.17 760.77 311.18 755.12 C 310.99 756.03 310.80 756.96 310.63 757.90 C 311.20 748.20 309.37 738.57 309.34 728.89 C 309.11 726.32 311.97 725.69 313.92 725.40 C 321.48 724.24 329.02 722.94 336.44 721.07 C 338.75 720.62 341.17 719.83 343.50 720.55 C 345.05 721.92 344.54 724.17 344.61 726.02 C 343.38 741.07 340.74 756.15 341.74 771.27 C 344.63 764.01 346.43 756.37 349.34 749.12 C 353.45 738.60 359.29 728.32 368.32 721.27 M 367.66 756.92 C 358.57 770.62 353.75 786.63 350.47 802.59 C 346.47 820.15 343.11 837.96 342.70 856.01 C 342.68 862.04 342.25 868.47 345.11 873.99 C 347.62 878.77 353.10 880.80 358.01 882.12 C 362.42 883.43 367.19 881.48 369.97 877.95 C 375.65 870.79 378.85 861.98 380.62 853.09 C 384.60 834.00 384.54 814.36 383.77 794.97 C 383.40 783.28 383.79 771.28 380.14 760.02 C 379.09 756.55 377.15 753.33 374.08 751.31 C 371.49 752.60 369.16 754.41 367.66 756.92 Z" />
<path fill="#000000" opacity="1.00" d=" M 938.51 721.43 C 939.70 717.96 943.93 717.93 946.97 717.78 C 966.01 717.58 985.08 717.88 1004.06 719.55 C 1006.40 719.50 1008.93 721.32 1008.22 723.93 C 1007.28 730.90 1006.24 737.87 1005.48 744.87 C 1005.03 748.56 1004.77 752.34 1003.38 755.84 C 994.65 754.33 985.88 753.16 977.06 752.33 C 972.31 751.99 967.72 750.44 962.97 750.31 C 961.14 750.45 961.26 752.58 960.92 753.91 C 959.75 765.61 958.23 777.32 958.15 789.09 C 958.25 790.28 957.95 792.86 959.96 792.47 C 967.13 792.57 974.25 791.30 981.43 791.14 C 982.44 795.35 982.04 799.71 982.20 804.00 C 982.33 808.45 982.60 812.89 982.43 817.35 C 974.30 817.82 966.17 818.32 958.03 818.34 C 957.21 819.73 957.52 821.43 957.45 822.98 C 957.63 835.82 958.11 848.66 958.89 861.48 C 959.43 867.34 966.93 868.62 971.46 866.69 C 978.76 863.36 985.57 858.99 992.04 854.26 C 993.04 853.44 994.96 852.61 995.70 854.25 C 998.28 858.92 1001.82 863.10 1003.76 868.11 C 1005.05 871.05 1003.17 874.04 1001.16 876.11 C 994.40 883.06 987.94 890.34 980.55 896.63 C 973.80 902.28 964.20 903.53 955.85 901.41 C 948.88 899.50 943.81 893.65 940.78 887.34 C 935.24 876.00 934.89 863.13 933.97 850.79 C 931.60 812.84 932.15 774.67 936.21 736.85 C 936.86 731.70 936.90 726.40 938.51 721.43 Z" />
<path fill="#000000" opacity="1.00" d=" M 855.06 721.45 C 865.08 720.76 875.02 718.84 885.08 718.81 C 886.85 718.53 887.65 720.44 887.20 721.91 C 885.05 744.26 883.11 766.63 881.71 789.04 C 880.40 813.82 879.02 838.65 879.77 863.47 C 884.16 864.05 888.55 863.21 892.95 863.07 C 899.60 862.68 906.30 863.27 912.93 862.30 C 914.99 862.12 917.34 861.33 919.16 862.78 C 920.03 864.35 919.77 866.23 919.77 867.98 C 919.33 875.34 918.65 882.68 918.45 890.06 C 918.51 892.31 917.66 895.14 914.98 895.34 C 904.39 897.10 893.56 895.99 882.94 897.53 C 875.66 898.21 868.34 898.83 861.04 898.85 C 857.63 898.63 857.30 894.48 856.81 891.92 C 852.89 866.98 849.96 841.85 848.99 816.62 C 848.33 804.40 848.92 792.17 848.58 779.96 C 848.42 761.97 849.66 744.00 850.41 726.04 C 850.24 723.43 852.50 721.33 855.06 721.45 Z" />
<path fill="#000000" opacity="1.00" d=" M 1030.20 864.23 C 1040.85 862.81 1050.97 871.00 1053.65 881.08 C 1056.86 892.24 1052.36 905.17 1042.83 911.83 C 1038.44 914.90 1032.55 916.38 1027.42 914.35 C 1021.23 911.91 1016.98 906.13 1014.88 900.00 C 1011.93 891.87 1013.26 882.68 1017.10 875.09 C 1019.77 869.97 1024.30 865.27 1030.20 864.23 Z" />
</g>
</svg>
