<?xml version="1.0" encoding="UTF-8" ?>
<!DOCTYPE svg PUBLIC "-//W3C//DTD SVG 1.1//EN" "http://www.w3.org/Graphics/SVG/1.1/DTD/svg11.dtd">
<svg width="1250pt" height="1250pt" viewBox="0 0 1250 1250" version="1.1" xmlns="http://www.w3.org/2000/svg">
<g id="#000000ff">
<path fill="#000000" opacity="1.00" d=" M 773.37 219.50 C 777.25 218.90 781.20 219.41 785.11 219.59 C 790.26 219.91 795.63 219.73 800.52 221.67 C 804.13 223.08 804.62 227.99 803.13 231.11 C 801.60 234.02 797.99 234.30 795.20 235.26 C 794.66 248.88 794.19 262.51 793.15 276.12 C 797.28 263.09 801.21 249.61 809.30 238.40 C 812.84 233.46 817.61 229.01 823.62 227.44 C 831.75 225.48 840.68 230.54 843.51 238.35 C 849.11 252.76 846.73 268.83 841.84 283.09 C 838.48 293.76 831.62 302.79 825.19 311.78 C 832.47 312.67 839.40 316.03 844.32 321.51 C 851.24 328.83 853.89 339.15 854.09 349.00 C 854.32 359.31 849.64 369.29 842.66 376.70 C 836.35 383.39 826.94 386.00 818.01 386.39 C 811.80 386.61 805.76 384.82 799.87 383.10 C 795.25 381.57 793.96 375.27 796.49 371.48 C 797.94 369.35 800.61 368.73 803.04 368.54 C 810.07 367.90 817.14 367.00 823.87 364.80 C 830.89 362.49 835.94 355.39 835.85 348.00 C 835.81 340.93 832.12 333.42 825.39 330.53 C 820.20 328.26 814.42 329.02 808.95 329.24 C 806.02 329.46 802.99 327.70 801.99 324.91 C 801.10 320.32 801.54 315.31 804.63 311.60 C 814.11 298.24 822.49 283.59 825.23 267.22 C 826.32 259.66 827.79 251.64 825.26 244.22 C 820.41 246.44 816.54 250.39 814.03 255.05 C 806.82 268.39 802.42 283.06 799.42 297.87 C 795.33 318.08 792.54 338.53 789.97 358.98 C 788.79 369.06 789.95 379.20 790.94 389.25 C 794.69 389.78 798.61 389.63 802.23 390.92 C 807.48 393.11 807.36 401.97 801.86 403.82 C 796.76 405.44 791.29 405.20 786.00 405.48 C 781.48 405.42 776.45 406.14 772.48 403.49 C 769.43 401.66 768.98 397.38 770.49 394.41 C 771.86 392.48 774.22 391.58 775.75 389.79 C 776.15 386.89 775.80 383.95 775.72 381.04 C 775.10 365.36 775.27 349.66 774.75 333.97 C 774.37 322.32 775.17 310.67 775.06 299.02 C 774.95 282.99 774.96 266.96 775.48 250.93 C 775.27 245.76 776.31 240.58 775.73 235.43 C 773.32 234.21 770.15 233.86 768.71 231.30 C 765.92 227.12 768.40 220.54 773.37 219.50 Z" />
<path fill="#000000" opacity="1.00" d=" M 338.47 221.54 C 344.71 220.26 351.35 220.39 357.34 222.72 C 362.19 224.86 363.30 231.95 359.82 235.80 C 358.25 238.25 355.10 237.70 352.64 237.84 C 351.48 260.53 350.25 283.24 350.56 305.98 C 350.56 326.65 350.56 347.32 350.56 368.00 C 350.50 375.43 350.94 382.92 349.68 390.30 C 353.13 390.76 356.83 390.44 360.04 391.98 C 364.21 394.35 363.70 401.34 359.39 403.28 C 353.20 406.25 346.10 406.31 339.77 408.91 C 336.30 410.40 331.55 410.19 329.10 407.01 C 326.91 403.48 327.09 398.21 330.33 395.36 C 332.23 393.62 334.60 392.52 336.85 391.30 C 334.68 382.03 334.81 372.47 334.45 363.02 C 334.46 352.00 333.91 340.99 334.00 329.98 C 334.11 317.64 333.21 305.31 333.33 292.97 C 333.39 284.31 333.50 275.65 333.58 266.99 C 333.65 257.81 335.07 248.69 335.05 239.51 C 331.97 239.36 328.35 240.34 325.80 238.11 C 322.38 235.23 322.25 229.52 325.45 226.43 C 328.89 223.02 333.95 222.47 338.47 221.54 Z" />
<path fill="#000000" opacity="1.00" d=" M 422.42 242.87 C 421.40 238.13 423.94 232.07 429.05 231.03 C 435.81 229.95 442.69 230.84 449.42 231.69 C 452.33 232.11 455.80 232.77 457.25 235.68 C 458.52 238.43 458.80 242.18 456.55 244.52 C 454.85 246.46 452.15 246.81 449.83 247.55 C 449.15 274.48 450.90 301.39 451.81 328.30 C 454.61 314.96 455.91 301.33 459.08 288.06 C 462.76 272.62 466.01 256.49 475.26 243.23 C 477.87 239.80 481.34 236.02 486.02 236.14 C 492.92 236.39 498.44 241.87 500.82 248.04 C 505.27 259.29 505.98 271.54 506.91 283.47 C 511.61 268.21 517.46 252.48 529.27 241.22 C 534.44 236.30 543.44 236.27 548.41 241.51 C 553.02 246.47 554.24 253.46 555.47 259.88 C 558.15 275.10 557.94 290.59 558.47 305.98 C 558.61 329.36 558.02 352.74 557.50 376.11 C 557.38 380.90 556.93 385.68 556.22 390.43 C 559.72 390.91 563.92 390.55 566.49 393.46 C 570.24 397.68 568.94 405.24 563.55 407.45 C 557.34 409.80 550.55 409.80 544.00 410.17 C 540.72 410.20 537.33 410.69 534.12 409.81 C 529.53 408.09 527.94 401.69 530.82 397.82 C 532.48 395.04 535.77 394.15 538.56 392.94 C 536.90 371.68 537.85 350.32 538.00 329.02 C 538.11 312.67 538.03 296.33 537.97 279.99 C 537.70 272.97 537.56 265.89 536.25 258.97 C 527.02 270.62 522.70 285.10 518.05 298.98 C 514.51 310.26 511.46 321.69 508.47 333.14 C 507.50 336.56 506.45 340.31 503.63 342.72 C 500.36 345.40 494.97 343.42 493.68 339.54 C 491.90 334.22 491.72 328.53 491.03 323.00 C 489.58 305.29 488.65 287.53 486.62 269.87 C 486.07 265.32 485.48 260.71 483.70 256.45 C 478.07 262.45 475.80 270.54 473.32 278.17 C 469.01 292.52 466.38 307.30 463.40 321.96 C 459.80 339.85 457.63 357.97 454.87 376.00 C 454.54 378.79 453.92 381.61 454.27 384.43 C 459.08 386.05 464.41 385.66 469.01 387.94 C 472.97 389.84 474.15 395.83 470.96 398.95 C 468.76 401.60 465.12 401.81 461.95 402.00 C 453.88 402.43 445.85 406.48 437.75 404.11 C 431.90 402.19 429.97 394.27 433.60 389.53 C 435.14 387.05 437.93 385.93 440.45 384.74 C 436.49 357.32 435.10 329.63 432.67 302.05 C 432.05 284.52 430.45 267.06 429.02 249.58 C 426.31 247.98 423.20 246.18 422.42 242.87 Z" />
<path fill="#000000" opacity="1.00" d=" M 659.30 299.28 C 664.58 296.87 670.37 295.69 676.10 294.90 C 680.30 294.36 682.80 299.74 681.16 303.15 C 679.89 304.88 677.85 305.80 676.12 306.98 C 676.30 321.99 674.42 336.98 674.63 352.00 C 674.83 356.15 674.67 360.52 676.64 364.31 C 684.07 356.18 687.53 345.44 689.96 334.92 C 691.14 329.53 693.63 324.08 692.43 318.48 C 690.98 316.97 688.94 316.06 687.75 314.32 C 685.96 310.70 688.07 305.77 692.08 304.86 C 696.03 304.15 700.07 305.08 704.04 305.36 C 706.67 305.50 709.67 306.60 710.46 309.39 C 711.36 311.64 709.67 313.59 708.59 315.38 C 708.50 315.97 708.33 317.15 708.24 317.74 C 707.77 318.30 706.83 319.40 706.36 319.95 C 708.12 334.89 708.27 349.95 708.87 364.97 C 709.46 380.62 708.92 396.88 702.48 411.42 C 699.40 418.17 694.91 424.49 688.78 428.78 C 685.09 431.45 680.36 431.32 676.04 430.89 C 674.56 432.35 673.39 434.84 670.98 434.69 C 667.95 434.80 665.98 431.82 665.93 429.06 C 665.52 423.06 665.06 416.97 666.19 411.02 C 666.91 407.49 671.56 404.86 674.70 407.19 C 677.39 409.07 677.55 412.67 678.59 415.51 C 680.80 414.15 683.11 412.75 684.57 410.53 C 689.21 403.94 691.52 395.99 692.44 388.06 C 693.49 377.80 693.52 367.44 692.66 357.17 C 689.61 364.96 686.56 373.42 679.71 378.73 C 676.73 381.20 672.24 382.46 668.80 380.14 C 662.44 376.07 660.79 368.00 659.34 361.14 C 657.25 345.82 658.98 330.33 660.12 315.02 C 658.12 313.17 654.93 312.06 654.60 308.97 C 653.50 305.09 655.63 300.86 659.30 299.28 Z" />
<path fill="#000000" opacity="1.00" d=" M 589.03 311.08 C 597.41 305.41 607.90 301.95 618.02 304.19 C 625.83 305.90 631.72 312.62 633.78 320.15 C 638.39 336.95 636.85 354.55 636.39 371.73 C 639.25 372.39 643.51 371.85 644.75 375.27 C 646.55 378.32 644.69 382.41 641.33 383.29 C 635.88 384.93 630.12 384.95 624.54 385.81 C 621.20 386.11 617.25 387.03 614.50 384.54 C 611.73 382.20 611.87 377.73 614.17 375.12 C 616.40 372.18 620.51 372.72 623.67 371.62 C 624.43 367.36 623.60 362.98 623.36 358.70 C 616.34 365.41 608.64 371.51 600.01 376.02 C 596.03 378.15 590.66 379.07 586.85 376.12 C 582.93 373.09 582.45 367.62 582.73 363.05 C 583.77 353.98 586.94 344.94 592.84 337.87 C 597.03 332.51 602.86 327.86 609.88 327.28 C 614.23 326.71 618.31 328.54 622.12 330.38 C 621.20 326.30 621.12 321.28 617.61 318.43 C 611.49 315.25 604.17 317.38 598.46 320.48 C 594.74 322.27 591.74 325.26 587.95 326.89 C 583.88 328.19 579.86 323.99 580.75 319.97 C 581.55 315.66 585.73 313.37 589.03 311.08 M 607.06 342.02 C 599.65 346.63 596.47 355.51 594.81 363.67 C 604.02 359.33 611.64 352.29 620.83 347.86 C 617.77 343.70 612.49 339.08 607.06 342.02 Z" />
<path fill="#000000" opacity="1.00" d=" M 873.18 315.16 C 876.79 310.33 882.00 306.55 887.91 305.15 C 893.02 303.92 898.53 306.25 901.60 310.44 C 906.49 317.03 907.77 326.15 904.86 333.83 C 902.71 339.89 898.37 345.05 892.90 348.39 C 895.07 347.98 897.56 346.85 899.60 348.34 C 903.74 350.97 905.69 355.74 908.63 359.49 C 910.80 362.02 909.95 366.49 906.84 367.85 C 904.97 367.97 903.17 367.40 901.33 367.34 C 897.41 370.80 893.53 374.97 888.04 375.68 C 880.58 377.00 873.98 371.82 869.89 366.11 C 865.80 360.65 864.37 353.76 864.12 347.07 C 863.48 335.85 866.27 324.17 873.18 315.16 M 887.09 322.08 C 881.43 325.86 879.36 332.81 878.45 339.20 C 887.35 340.60 894.38 330.20 891.84 322.24 C 890.99 320.06 888.43 321.05 887.09 322.08 M 879.12 350.42 C 880.10 355.06 881.99 360.10 886.46 362.41 C 889.49 363.65 891.96 360.70 894.26 359.19 C 893.09 356.22 891.61 353.01 893.20 349.88 C 892.81 349.48 892.42 349.08 892.05 348.68 C 888.04 350.79 883.49 350.64 879.12 350.42 Z" />
<path fill="#000000" opacity="1.00" d=" M 368.92 446.97 C 380.45 440.26 395.09 440.52 407.05 445.99 C 414.70 449.33 420.56 455.90 423.79 463.52 C 425.38 460.54 426.21 454.38 430.93 456.11 C 435.36 458.28 440.29 459.94 444.03 463.21 C 445.28 467.15 442.43 471.01 441.63 474.84 C 437.36 488.75 433.67 502.84 429.64 516.83 C 428.47 520.57 427.95 524.58 426.06 528.06 C 423.55 530.90 419.78 528.04 416.96 527.16 C 413.95 525.53 409.21 524.96 408.49 520.98 C 408.89 514.37 410.58 507.90 412.35 501.54 C 414.21 493.77 410.80 486.17 407.91 479.13 C 405.22 472.74 401.75 465.98 395.30 462.69 C 392.41 461.36 389.48 463.51 387.45 465.41 C 382.03 471.13 377.24 477.95 376.03 485.92 C 374.27 494.86 376.68 504.47 382.51 511.49 C 388.95 519.31 398.16 523.95 406.29 529.72 C 415.76 536.35 425.13 543.79 431.20 553.80 C 435.73 561.70 437.71 571.00 437.00 580.07 C 436.92 588.22 435.65 596.91 430.34 603.44 C 423.60 612.07 412.44 615.46 402.03 617.03 C 390.63 618.89 379.29 614.92 369.31 609.72 C 364.38 607.27 360.56 603.24 357.14 599.02 C 354.93 604.11 352.79 609.25 349.99 614.04 C 349.33 615.40 347.65 616.32 346.19 615.66 C 342.60 614.18 339.37 611.99 335.98 610.15 C 334.09 608.98 331.42 607.66 331.68 605.02 C 332.39 601.05 334.09 597.36 335.48 593.60 C 339.45 583.37 343.52 573.16 348.32 563.29 C 348.95 561.51 351.15 560.55 352.85 561.46 C 356.28 563.12 359.39 565.39 362.75 567.20 C 364.52 568.26 366.92 569.53 366.74 571.96 C 366.21 574.92 364.89 577.66 363.92 580.49 C 370.64 587.26 377.81 595.13 387.97 595.92 C 391.25 596.59 394.01 593.89 394.90 590.97 C 397.29 583.00 396.62 573.53 390.83 567.13 C 381.78 556.86 371.21 548.09 360.90 539.13 C 352.97 531.29 344.69 522.90 341.44 511.92 C 336.94 498.01 340.58 482.84 347.38 470.32 C 352.62 461.06 359.65 452.43 368.92 446.97 Z" />
<path fill="#000000" opacity="1.00" d=" M 649.93 451.98 C 653.91 447.33 659.83 444.62 665.92 444.35 C 679.28 444.05 692.77 450.50 700.32 461.66 C 707.84 473.35 710.39 487.42 711.64 501.05 C 713.35 520.98 712.62 541.00 713.42 560.96 C 713.65 574.07 714.28 587.19 713.67 600.30 C 717.54 600.63 721.60 600.37 725.30 601.74 C 727.85 603.60 726.39 607.17 726.39 609.79 C 726.15 613.11 725.67 618.19 721.16 617.89 C 706.12 617.73 691.06 617.60 676.03 617.10 C 673.55 617.05 669.95 616.74 669.55 613.64 C 669.29 610.37 668.82 606.56 670.77 603.71 C 673.52 601.43 677.45 602.27 680.75 601.88 C 680.26 595.91 679.56 589.96 679.18 583.98 C 664.63 584.10 650.06 583.77 635.53 584.74 C 634.92 589.37 634.32 594.01 633.68 598.64 C 636.13 599.28 639.92 599.11 640.67 602.23 C 641.44 606.08 641.67 610.07 641.65 614.00 C 641.29 617.15 637.58 617.60 635.06 617.55 C 626.08 617.39 617.07 618.28 608.11 617.63 C 603.56 615.83 605.77 609.68 605.50 605.93 C 605.11 602.66 607.27 600.17 610.24 599.16 C 610.23 578.12 615.19 557.57 618.49 536.91 C 621.53 518.93 626.10 501.22 632.08 484.00 C 636.22 472.47 641.42 460.98 649.93 451.98 M 650.83 504.00 C 645.02 524.43 640.95 545.32 637.98 566.35 C 644.97 566.23 651.98 566.79 658.96 566.11 C 665.04 565.52 671.15 565.47 677.25 565.28 C 676.48 556.17 675.67 547.06 675.77 537.91 C 674.75 522.23 673.92 506.52 671.90 490.92 C 670.73 482.70 670.40 474.21 667.23 466.43 C 659.43 477.78 654.66 490.86 650.83 504.00 Z" />
<path fill="#000000" opacity="1.00" d=" M 477.79 449.76 C 485.26 443.87 495.86 444.39 504.35 447.64 C 511.09 450.12 515.96 456.30 517.59 463.20 C 519.53 471.32 520.28 479.67 521.19 487.95 C 524.38 477.14 528.80 466.60 535.58 457.53 C 540.79 451.12 548.21 445.11 556.95 445.65 C 565.74 446.47 574.86 449.34 581.06 455.93 C 586.20 461.21 588.60 468.38 590.39 475.36 C 595.19 493.84 593.90 513.11 593.33 531.99 C 592.58 554.56 592.16 577.15 590.97 599.71 C 593.31 600.06 596.64 599.58 597.70 602.33 C 598.91 606.76 598.71 611.47 598.84 616.03 C 598.86 618.54 596.15 619.61 594.02 619.46 C 582.34 619.63 570.66 619.59 558.98 619.75 C 556.77 619.75 553.69 619.68 552.97 617.07 C 552.00 612.84 551.67 608.36 552.13 604.05 C 552.94 600.93 556.59 601.00 559.16 600.73 C 560.29 580.50 562.15 560.29 562.06 540.02 C 562.07 525.86 561.58 511.70 561.14 497.55 C 560.80 487.49 560.90 477.31 558.66 467.44 C 550.03 475.80 547.08 487.96 544.32 499.23 C 537.09 525.69 532.86 552.87 529.85 580.10 C 529.72 582.49 528.75 585.52 525.89 585.63 C 519.65 586.02 513.37 585.51 507.13 585.31 C 504.50 585.43 502.63 583.13 502.72 580.61 C 501.43 556.34 498.53 532.19 496.91 507.93 C 495.70 497.12 495.50 486.07 492.42 475.57 C 488.84 485.10 487.18 495.18 485.68 505.20 C 483.90 517.39 482.27 529.65 482.22 541.99 C 482.38 561.22 483.55 580.44 484.22 599.66 C 487.50 600.09 491.99 598.64 494.23 601.78 C 495.34 606.04 495.24 610.61 495.13 615.01 C 494.61 618.33 490.53 618.12 487.99 618.66 C 477.66 619.41 467.31 619.66 456.97 620.23 C 454.43 620.18 450.45 620.75 449.56 617.59 C 448.94 613.57 449.06 609.41 449.55 605.39 C 450.13 602.04 454.12 602.02 456.70 601.25 C 454.17 584.66 454.30 567.78 454.14 551.04 C 454.25 525.76 455.08 500.03 462.81 475.75 C 466.00 466.26 469.81 456.29 477.79 449.76 Z" />
<path fill="#000000" opacity="1.00" d=" M 735.79 448.88 C 736.73 446.40 739.75 446.54 741.94 446.50 C 755.98 446.70 770.03 446.70 784.08 446.92 C 786.53 446.80 789.84 447.95 789.51 451.01 C 789.08 454.97 789.95 459.87 787.20 463.10 C 783.36 464.97 778.79 464.00 774.65 464.37 C 772.45 484.50 771.03 504.71 770.32 524.95 C 769.72 544.64 769.03 564.39 771.12 584.02 C 771.42 590.87 772.47 599.48 779.13 603.11 C 786.51 603.83 792.85 598.71 798.67 594.82 C 798.78 589.62 798.13 584.33 799.20 579.21 C 800.83 576.09 805.17 577.10 808.08 576.55 C 811.74 576.58 818.21 574.84 818.71 580.19 C 819.53 591.10 818.95 602.10 818.61 613.03 C 818.27 616.23 818.69 620.50 815.47 622.41 C 811.79 624.42 807.28 624.42 803.29 623.50 C 799.87 622.63 799.51 618.66 798.80 615.83 C 791.56 620.12 783.42 622.87 775.02 623.53 C 764.20 624.19 753.04 619.39 746.64 610.52 C 739.34 601.37 738.34 589.17 737.79 577.93 C 736.74 539.85 738.67 501.75 741.40 463.77 C 738.98 463.09 735.03 463.28 734.65 459.99 C 734.35 456.28 734.76 452.45 735.79 448.88 Z" />
<path fill="#000000" opacity="1.00" d=" M 827.74 449.74 C 828.63 447.17 831.74 447.26 833.96 447.25 C 847.96 447.44 861.97 447.46 875.97 447.66 C 878.57 447.47 881.96 448.82 881.52 452.00 C 881.01 455.95 882.04 461.02 878.94 464.04 C 875.07 465.60 870.72 464.80 866.65 465.12 C 864.33 486.34 862.87 507.64 862.21 528.98 C 861.81 545.99 861.06 563.06 862.74 580.03 C 863.47 586.55 862.88 593.62 866.56 599.40 C 868.04 602.05 870.71 604.84 874.08 603.99 C 880.29 602.86 885.59 599.14 890.66 595.58 C 890.77 590.41 890.15 585.16 891.18 580.05 C 891.79 577.93 894.35 577.89 896.15 577.61 C 900.27 577.36 904.51 576.67 908.61 577.49 C 911.19 578.94 910.82 582.44 911.08 584.97 C 911.08 595.35 911.14 605.74 910.45 616.11 C 910.27 618.72 909.93 621.91 907.31 623.25 C 903.53 625.17 898.91 625.25 894.90 624.10 C 891.73 623.04 891.55 619.28 890.80 616.57 C 883.55 620.89 875.37 623.64 866.95 624.29 C 856.21 624.90 845.14 620.18 838.75 611.41 C 831.22 602.07 830.29 589.51 829.76 578.01 C 828.79 540.15 830.66 502.27 833.42 464.52 C 831.05 463.82 827.31 464.11 826.70 461.02 C 826.26 457.26 826.78 453.38 827.74 449.74 Z" />
<path fill="#000000" opacity="1.00" d=" M 326.73 652.42 C 323.58 647.49 327.42 640.40 333.06 639.73 C 339.01 639.02 344.99 639.94 350.95 640.05 C 356.22 640.27 361.68 640.41 366.63 642.41 C 370.45 643.95 371.12 649.16 369.47 652.50 C 367.56 656.11 362.99 656.03 359.69 657.53 C 359.00 661.63 359.26 665.81 359.10 669.95 C 358.71 680.87 357.91 691.78 357.09 702.68 C 362.21 688.41 366.96 673.56 376.43 661.47 C 380.53 656.11 385.85 651.44 392.32 649.24 C 402.68 645.66 415.49 651.19 419.31 661.64 C 425.82 677.76 422.63 695.85 416.52 711.58 C 412.21 723.27 404.05 732.91 396.42 742.55 C 406.28 743.56 415.74 748.20 422.15 755.82 C 429.93 764.87 432.65 777.44 431.60 789.11 C 429.69 801.90 421.58 813.88 410.24 820.17 C 398.81 825.74 385.25 827.07 372.94 823.80 C 369.42 822.85 365.49 822.69 362.47 820.44 C 359.41 818.11 358.83 813.57 360.27 810.18 C 361.68 807.32 364.94 806.00 367.97 805.82 C 376.87 805.09 385.81 804.11 394.42 801.65 C 400.77 799.81 406.31 794.97 408.48 788.66 C 411.61 779.39 406.79 768.23 398.00 764.01 C 391.43 760.89 383.96 761.54 376.93 761.98 C 373.27 762.32 369.14 760.57 367.75 756.99 C 367.25 752.85 366.78 748.10 369.50 744.59 C 373.51 738.88 377.89 733.43 381.74 727.60 C 391.53 712.97 397.82 695.73 398.18 678.03 C 398.11 674.99 398.43 671.74 397.13 668.91 C 396.33 666.91 394.23 668.38 392.98 668.98 C 384.80 673.68 380.59 682.50 376.67 690.67 C 367.25 710.54 363.25 732.36 359.38 753.86 C 356.96 766.80 355.26 779.87 353.31 792.89 C 351.47 804.79 352.84 816.87 354.28 828.73 C 359.14 829.53 364.35 828.96 368.94 830.99 C 374.19 833.57 374.14 842.29 368.61 844.55 C 362.73 846.81 356.23 846.33 350.04 846.76 C 343.88 846.60 337.09 847.88 331.54 844.50 C 327.14 842.19 327.04 834.84 331.41 832.48 C 333.37 831.12 336.56 830.12 335.92 827.08 C 334.95 806.76 335.11 786.41 334.42 766.08 C 334.04 754.05 334.92 742.03 334.82 730.00 C 334.65 708.32 334.78 686.64 335.68 664.99 C 335.81 662.47 336.24 659.90 335.67 657.42 C 332.53 656.14 328.48 655.76 326.73 652.42 Z" />
<path fill="#000000" opacity="1.00" d=" M 692.85 642.39 C 701.01 640.76 709.67 640.77 717.54 643.69 C 722.66 645.96 724.34 653.39 720.52 657.58 C 718.54 660.75 714.52 660.36 711.31 660.21 C 710.39 668.74 710.81 677.35 709.90 685.88 C 708.41 708.90 708.80 731.98 708.75 755.03 C 708.75 776.04 708.74 797.04 708.76 818.05 C 708.81 822.09 708.24 826.09 707.69 830.08 C 712.09 830.65 716.90 829.98 720.91 832.22 C 725.25 834.78 724.72 841.97 720.24 844.13 C 714.26 847.15 707.42 847.44 701.02 849.09 C 696.25 850.14 691.49 852.99 686.51 851.21 C 680.77 850.04 679.12 842.49 681.83 837.95 C 684.17 834.43 688.31 832.90 691.94 831.11 C 690.57 825.85 689.71 820.48 689.56 815.05 C 688.54 793.39 688.47 771.69 688.23 750.01 C 687.22 728.67 687.50 707.29 688.12 685.95 C 688.50 677.96 689.95 670.02 689.46 662.01 C 685.75 662.11 681.48 663.15 678.31 660.64 C 674.69 657.97 673.88 652.35 676.77 648.86 C 680.65 644.10 687.21 643.44 692.85 642.39 Z" />
<path fill="#000000" opacity="1.00" d=" M 755.21 649.28 C 759.13 648.17 763.05 650.09 766.73 651.30 C 770.77 652.61 773.18 656.50 774.45 660.34 C 775.87 665.22 773.39 670.01 773.20 674.89 C 772.89 681.36 770.72 687.70 767.04 693.03 C 765.46 695.12 763.35 696.96 760.79 697.70 C 758.49 698.38 756.47 696.04 756.30 693.93 C 756.17 689.34 757.43 684.60 755.87 680.13 C 754.05 677.93 750.94 677.15 749.19 674.83 C 742.78 667.03 745.25 652.83 755.21 649.28 Z" />
<path fill="#000000" opacity="1.00" d=" M 543.71 670.62 C 546.68 668.56 550.47 668.53 553.94 668.23 C 561.31 667.89 568.75 667.31 576.10 668.27 C 579.18 668.71 582.54 670.00 584.01 672.98 C 586.01 676.56 584.69 681.98 580.58 683.36 C 577.67 684.00 574.66 683.71 571.71 683.83 C 570.81 694.86 570.19 705.92 569.53 716.97 C 575.80 717.17 582.04 718.66 587.65 721.50 C 593.17 724.48 593.43 733.70 587.56 736.48 C 581.66 738.73 575.17 738.48 568.98 739.21 C 567.44 739.07 567.41 740.84 567.18 741.88 C 565.30 752.82 565.65 763.93 565.16 774.97 C 565.29 783.41 566.64 791.78 568.16 800.07 C 568.92 804.70 570.91 809.54 575.08 812.10 C 579.20 811.52 581.90 807.84 584.83 805.23 C 583.16 802.53 581.04 799.42 582.21 796.09 C 583.30 791.91 588.52 789.91 592.25 791.90 C 596.25 794.00 598.82 797.89 601.87 801.09 C 604.46 804.03 607.69 807.57 606.57 811.85 C 606.10 815.21 602.42 817.22 599.25 816.44 C 597.50 816.53 595.17 815.06 594.09 817.04 C 590.81 821.07 587.75 825.50 583.17 828.18 C 577.45 831.84 569.73 832.74 563.69 829.32 C 554.52 824.07 548.52 814.38 546.55 804.13 C 541.06 782.79 543.47 760.63 544.69 738.94 C 542.47 737.99 540.10 737.30 538.18 735.83 C 533.98 732.34 533.54 725.30 537.35 721.36 C 539.62 718.60 543.33 717.99 546.35 716.42 C 548.22 705.60 548.65 694.54 550.77 683.74 C 548.69 683.01 546.55 682.42 544.57 681.46 C 540.52 679.59 540.01 673.10 543.71 670.62 Z" />
<path fill="#000000" opacity="1.00" d=" M 810.60 722.88 C 817.11 722.38 823.79 721.38 830.23 722.91 C 835.05 724.11 836.85 731.57 832.65 734.50 C 830.38 736.02 827.57 736.33 825.00 737.07 C 825.50 747.65 826.00 758.23 826.56 768.80 C 829.02 764.40 830.71 759.63 833.16 755.23 C 836.47 749.18 840.89 743.74 846.04 739.18 C 849.89 735.63 856.52 736.04 859.68 740.30 C 865.13 747.59 865.95 757.02 867.28 765.73 C 872.00 756.62 875.18 746.23 883.07 739.19 C 887.21 735.36 894.26 735.76 897.99 739.98 C 901.32 743.87 902.71 749.00 903.74 753.92 C 906.30 768.79 906.47 783.99 905.51 799.01 C 907.60 802.03 910.62 804.99 909.70 809.07 C 909.39 814.46 903.69 816.70 899.13 817.46 C 892.49 818.77 885.72 819.95 878.94 819.80 C 873.96 819.78 869.79 814.90 871.05 809.96 C 872.16 804.55 877.58 801.91 882.21 799.97 C 880.91 785.32 881.96 770.62 881.35 755.96 C 875.51 764.60 872.37 774.65 868.17 784.11 C 865.67 789.47 864.34 795.66 859.99 799.93 C 857.87 802.14 854.01 802.18 851.78 800.14 C 850.34 798.57 850.00 796.35 849.36 794.41 C 845.13 780.79 846.32 766.33 844.47 752.34 C 835.01 760.65 830.87 773.01 826.63 784.47 C 824.32 789.69 825.34 795.48 825.04 801.00 C 825.07 805.67 823.81 810.18 822.86 814.72 C 824.88 815.44 827.08 815.87 828.90 817.09 C 831.76 819.58 831.16 825.10 827.61 826.70 C 824.62 827.87 821.36 828.03 818.21 828.47 C 814.08 828.81 809.78 829.48 805.75 828.24 C 801.75 826.98 799.52 822.01 801.27 818.20 C 802.32 815.52 805.15 814.39 807.42 812.99 C 805.73 807.11 804.75 801.07 804.09 795.00 C 802.28 782.38 801.22 769.66 800.65 756.94 C 800.39 751.38 801.09 745.80 800.53 740.27 C 798.37 739.11 795.80 738.72 793.90 737.15 C 790.92 733.91 792.02 727.93 795.96 725.96 C 800.45 723.58 805.66 723.46 810.60 722.88 Z" />
<path fill="#000000" opacity="1.00" d=" M 488.74 739.94 C 486.85 734.82 491.81 729.58 496.93 729.92 C 503.72 730.08 510.49 731.26 517.04 733.01 C 521.05 733.77 522.80 739.16 520.20 742.22 C 518.27 744.27 515.17 744.37 512.96 745.98 C 512.46 751.98 512.94 758.02 512.87 764.04 C 513.08 777.22 512.18 790.38 512.50 803.56 C 515.61 804.01 518.90 803.88 521.83 805.19 C 526.56 807.33 525.79 815.25 521.31 817.24 C 515.91 819.69 509.97 820.67 504.14 821.48 C 499.95 822.56 495.25 820.68 493.39 816.69 C 491.28 812.33 493.96 807.67 497.38 804.93 C 495.93 797.34 494.89 789.67 493.71 782.03 C 491.04 791.09 486.63 799.63 480.78 807.04 C 477.06 811.74 470.73 814.71 464.73 813.29 C 457.58 811.45 451.68 806.00 448.55 799.41 C 444.83 791.87 444.78 783.22 444.93 775.00 C 445.36 766.60 445.66 758.14 447.37 749.88 C 447.71 747.63 448.38 745.38 448.17 743.11 C 447.07 741.29 445.04 740.09 444.42 738.01 C 444.07 734.71 446.60 731.27 449.99 731.02 C 455.05 730.65 460.08 731.75 465.08 732.43 C 468.48 733.10 472.34 733.46 474.91 736.06 C 476.64 737.76 476.60 740.96 474.52 742.38 C 472.71 743.17 470.71 743.33 468.86 743.97 C 466.02 752.69 465.35 761.98 464.40 771.07 C 463.67 779.44 462.36 788.61 466.77 796.25 C 467.80 797.92 469.59 800.49 471.88 799.28 C 477.90 795.80 481.59 789.50 484.41 783.35 C 487.66 776.31 490.18 768.98 492.76 761.68 C 494.58 756.96 493.75 751.81 493.82 746.89 C 494.00 743.59 489.48 742.95 488.74 739.94 Z" />
<path fill="#000000" opacity="1.00" d=" M 639.36 876.24 C 645.09 869.88 653.10 864.53 662.02 865.35 C 669.84 865.80 676.31 871.51 679.64 878.31 C 684.44 888.09 685.60 899.20 685.90 909.96 C 686.05 926.03 684.58 942.30 679.76 957.70 C 677.30 965.55 673.65 973.06 668.57 979.56 C 674.29 984.06 678.42 990.37 680.41 997.36 C 683.78 1008.55 683.78 1020.43 683.08 1031.99 C 682.13 1042.73 680.03 1053.83 674.04 1062.99 C 670.30 1068.74 664.65 1073.48 657.89 1075.10 C 649.18 1077.43 639.87 1074.54 632.70 1069.44 C 630.67 1072.15 627.09 1072.09 624.09 1072.80 C 620.38 1073.42 616.75 1074.49 612.99 1074.82 C 610.82 1075.08 610.64 1072.55 610.62 1071.03 C 609.38 1004.01 608.15 936.99 606.87 869.97 C 606.98 868.28 606.49 865.29 609.05 865.44 C 615.04 865.48 620.99 866.44 626.97 866.82 C 630.92 867.28 635.00 867.11 638.86 868.23 C 640.20 870.63 639.26 873.60 639.36 876.24 M 643.14 922.15 C 639.29 924.76 636.57 929.32 636.77 934.05 C 636.37 946.22 635.91 958.38 635.45 970.54 C 638.86 971.84 643.21 973.07 646.24 970.25 C 652.02 964.95 654.20 956.91 655.59 949.45 C 656.60 941.78 657.17 933.47 653.80 926.28 C 652.17 922.35 646.98 919.71 643.14 922.15 M 640.34 1004.38 C 637.04 1005.78 634.16 1009.11 634.32 1012.86 C 634.14 1021.59 633.43 1030.33 633.51 1039.06 C 634.82 1042.19 638.51 1044.44 641.95 1044.01 C 645.41 1042.39 646.88 1038.48 648.24 1035.17 C 650.82 1027.67 651.75 1019.31 649.71 1011.58 C 648.68 1007.50 644.96 1003.16 640.34 1004.38 Z" />
<path fill="#000000" opacity="1.00" d=" M 450.50 867.37 C 451.92 865.99 453.89 866.96 455.56 867.16 C 465.00 869.27 474.49 871.12 483.93 873.22 C 485.87 873.31 486.87 875.17 486.46 876.96 C 482.75 940.58 478.93 1004.19 475.23 1067.81 C 475.07 1069.32 475.08 1071.78 473.00 1071.83 C 466.99 1072.17 460.94 1072.01 454.93 1071.93 C 453.18 1072.14 451.60 1070.84 451.92 1069.02 C 451.53 1044.40 451.41 1019.77 451.14 995.15 C 442.80 997.05 434.48 999.00 426.14 1000.90 C 425.29 1020.93 424.36 1040.97 423.57 1061.01 C 423.37 1062.89 423.64 1064.98 422.67 1066.70 C 416.88 1068.84 410.75 1069.94 404.80 1071.59 C 402.95 1072.40 400.55 1071.28 400.96 1069.04 C 399.14 1007.03 397.67 945.00 395.91 882.98 C 395.90 880.40 395.52 877.75 396.17 875.22 C 397.50 874.00 399.46 873.97 401.13 873.52 C 410.44 871.77 419.66 869.57 428.99 867.92 C 431.45 867.23 431.95 870.18 431.67 871.94 C 430.66 895.45 429.63 918.96 428.62 942.47 C 435.98 941.96 443.34 941.45 450.71 940.94 C 450.43 917.96 450.27 894.99 449.96 872.02 C 450.06 870.46 449.78 868.78 450.50 867.37 Z" />
<path fill="#000000" opacity="1.00" d=" M 810.44 867.58 C 817.67 865.94 825.69 865.84 832.28 869.67 C 839.59 873.91 845.58 880.49 849.39 888.01 C 847.70 895.92 844.50 903.45 842.24 911.22 C 840.09 917.41 838.44 923.79 836.05 929.89 C 835.58 931.86 832.76 931.71 832.11 929.99 C 829.83 926.67 827.57 922.94 823.63 921.42 C 820.26 919.84 816.05 920.85 813.73 923.73 C 810.15 928.05 809.64 934.20 810.79 939.52 C 812.83 946.77 818.25 952.31 823.14 957.78 C 831.12 966.39 838.97 975.48 843.64 986.39 C 850.29 1001.63 850.63 1018.85 847.93 1035.05 C 846.00 1046.03 842.43 1057.29 834.57 1065.53 C 825.64 1075.26 809.98 1077.91 798.42 1071.50 C 789.47 1066.54 783.45 1057.73 779.17 1048.68 C 777.39 1044.59 775.45 1040.47 774.77 1036.04 C 777.53 1026.37 781.50 1017.05 784.62 1007.49 C 785.19 1005.40 786.56 1002.15 789.27 1003.64 C 791.71 1010.67 793.56 1018.02 797.53 1024.42 C 799.87 1028.27 802.91 1032.25 807.43 1033.57 C 810.72 1034.30 813.79 1031.91 815.19 1029.09 C 818.52 1022.76 818.27 1014.64 814.53 1008.53 C 811.02 1002.57 805.67 998.06 800.90 993.18 C 794.24 986.73 787.94 979.76 783.45 971.60 C 777.28 960.48 774.80 947.63 774.81 935.01 C 774.83 921.22 776.24 907.19 781.22 894.24 C 785.99 881.41 796.63 870.17 810.44 867.58 Z" />
<path fill="#000000" opacity="1.00" d=" M 891.29 867.26 C 898.70 865.72 906.86 866.33 913.26 870.69 C 919.71 875.05 925.31 881.08 928.64 888.15 C 927.09 895.34 924.17 902.20 922.12 909.27 C 919.94 915.81 917.96 922.41 915.73 928.93 C 915.31 930.51 913.95 932.02 912.23 931.06 C 909.78 928.10 908.07 924.35 904.64 922.34 C 901.64 920.30 897.33 919.99 894.43 922.37 C 890.40 925.55 889.30 931.08 889.53 935.96 C 889.82 942.55 893.97 948.10 898.08 952.94 C 905.25 961.13 913.10 968.88 918.70 978.31 C 925.96 990.15 929.08 1004.22 928.74 1018.03 C 928.55 1028.93 926.98 1039.90 923.18 1050.16 C 920.03 1058.48 914.77 1066.43 906.94 1070.99 C 898.30 1075.88 887.16 1076.44 878.29 1071.84 C 865.97 1065.16 858.97 1051.95 854.68 1039.12 C 853.16 1035.74 855.12 1032.34 856.17 1029.16 C 859.22 1021.08 861.79 1012.81 864.99 1004.79 C 865.58 1002.78 869.00 1002.71 869.06 1005.06 C 871.50 1013.02 874.03 1021.19 879.14 1027.90 C 881.20 1030.50 883.85 1033.02 887.23 1033.68 C 890.24 1033.98 892.93 1031.92 894.28 1029.36 C 898.23 1022.28 897.36 1013.02 892.54 1006.57 C 886.50 998.32 878.21 992.09 871.66 984.29 C 863.40 974.95 857.63 963.42 855.50 951.10 C 853.39 939.84 853.86 928.27 855.06 916.94 C 856.69 904.25 859.89 891.15 868.04 880.98 C 873.74 873.71 882.18 868.75 891.29 867.26 Z" />
<path fill="#000000" opacity="1.00" d=" M 491.90 870.02 C 491.94 867.80 494.57 868.34 496.02 868.35 C 514.98 870.11 533.94 871.85 552.90 873.62 C 554.81 873.52 556.53 874.89 556.15 876.95 C 556.28 892.96 556.11 908.98 556.23 924.99 C 556.16 926.84 556.34 928.79 555.63 930.55 C 553.88 931.42 551.86 931.19 549.99 931.29 C 540.66 931.22 531.33 931.26 522.00 931.25 C 521.94 937.64 521.89 944.04 521.84 950.44 C 528.23 949.78 534.56 948.39 540.98 948.13 C 543.36 948.32 542.58 951.31 542.85 952.95 C 542.59 965.87 543.27 978.85 542.51 991.75 C 542.16 991.99 541.46 992.48 541.11 992.73 C 534.54 991.90 528.12 990.12 521.61 988.97 C 521.49 1001.88 521.38 1014.80 521.27 1027.71 C 530.85 1026.61 540.39 1024.96 550.00 1024.17 C 552.45 1024.11 552.09 1027.16 552.55 1028.83 C 553.63 1038.90 555.45 1048.91 556.23 1059.01 C 556.04 1059.34 555.68 1059.98 555.49 1060.30 C 547.08 1062.94 538.39 1064.65 529.87 1066.95 C 519.21 1069.49 508.64 1072.49 497.93 1074.79 C 495.64 1075.30 495.25 1072.70 495.32 1071.05 C 494.19 1008.37 493.07 945.68 491.95 882.99 C 491.96 878.66 491.51 874.33 491.90 870.02 Z" />
<path fill="#000000" opacity="1.00" d=" M 723.38 868.61 C 731.68 866.26 740.90 869.00 747.17 874.78 C 754.70 881.65 759.13 891.19 762.25 900.74 C 767.68 917.95 769.59 936.07 769.96 954.05 C 770.30 976.55 768.21 999.15 763.06 1021.08 C 760.21 1032.96 756.55 1044.80 750.47 1055.47 C 746.74 1061.80 742.02 1068.05 735.26 1071.35 C 729.45 1074.22 722.23 1073.73 716.84 1070.17 C 710.33 1065.89 706.09 1059.02 702.83 1052.12 C 697.05 1039.44 694.07 1025.69 691.89 1011.99 C 688.68 990.50 688.06 968.65 689.66 946.99 C 690.87 931.67 693.22 916.35 697.87 901.67 C 700.77 892.78 704.60 883.95 710.85 876.87 C 714.22 873.11 718.44 869.94 723.38 868.61 M 727.24 933.21 C 722.96 935.91 721.41 941.18 719.86 945.72 C 716.02 959.41 715.46 973.80 715.66 987.95 C 716.04 999.03 716.86 1010.25 719.99 1020.94 C 721.20 1024.41 722.34 1028.31 725.34 1030.69 C 727.32 1032.18 729.24 1029.85 730.26 1028.30 C 733.72 1022.48 735.01 1015.70 736.17 1009.13 C 738.62 993.21 739.05 976.99 737.92 960.93 C 737.16 952.80 736.45 944.44 733.21 936.85 C 732.27 934.50 730.09 931.29 727.24 933.21 Z" />
<path fill="#000000" opacity="1.00" d=" M 303.61 871.92 C 303.15 869.86 305.19 868.82 306.94 869.17 C 330.31 870.09 353.68 871.16 377.05 872.14 C 382.59 872.63 388.28 872.03 393.74 873.29 C 394.67 874.64 394.35 876.39 394.41 877.95 C 393.81 892.33 393.24 906.72 392.72 921.10 C 392.59 922.60 392.65 924.24 391.83 925.59 C 384.55 926.88 377.10 926.89 369.76 927.69 C 367.39 970.81 365.00 1013.93 362.66 1057.06 C 362.42 1059.95 362.65 1062.97 361.79 1065.79 C 360.55 1067.18 358.38 1067.19 356.70 1067.83 C 350.74 1069.19 344.96 1071.35 338.92 1072.31 C 336.92 1071.89 337.22 1069.68 337.05 1068.15 C 336.19 1022.26 335.33 976.38 334.47 930.49 C 326.93 930.91 319.42 931.90 311.88 932.00 C 309.59 932.24 309.71 929.62 309.39 928.06 C 307.52 909.34 305.40 890.64 303.61 871.92 Z" />
</g>
</svg>
