<?xml version="1.0" encoding="UTF-8" ?>
<!DOCTYPE svg PUBLIC "-//W3C//DTD SVG 1.1//EN" "http://www.w3.org/Graphics/SVG/1.1/DTD/svg11.dtd">
<svg width="1250pt" height="1250pt" viewBox="0 0 1250 1250" version="1.1" xmlns="http://www.w3.org/2000/svg">
<g id="#000000ff">
<path fill="#000000" opacity="1.00" d=" M 553.12 154.99 C 558.08 148.80 565.39 142.95 573.86 144.44 C 584.60 146.51 592.92 154.21 601.19 160.83 C 609.85 167.71 618.07 175.88 628.82 179.38 C 636.48 182.05 644.25 177.82 650.50 173.67 C 661.32 166.26 670.52 156.71 681.58 149.64 C 687.38 146.04 694.35 142.92 701.29 144.83 C 708.51 147.00 713.62 153.07 717.89 158.96 C 723.96 167.79 728.81 177.37 734.68 186.32 C 737.97 191.20 741.68 196.01 746.72 199.18 C 752.17 202.46 758.91 201.63 764.84 200.40 C 778.47 197.22 791.14 190.86 804.82 187.89 C 809.81 187.04 815.08 186.60 820.01 187.99 C 826.48 190.02 830.59 195.99 832.94 202.04 C 838.90 217.54 838.57 234.69 844.70 250.14 C 846.86 255.89 851.33 260.92 857.43 262.53 C 875.73 267.80 895.30 262.50 913.62 267.61 C 921.25 269.51 927.42 276.04 928.20 283.97 C 930.46 301.86 923.05 319.19 923.32 337.03 C 923.36 342.75 924.81 348.94 929.42 352.75 C 937.83 360.16 948.98 363.04 959.18 367.09 C 969.10 370.97 980.04 374.43 987.09 382.92 C 992.10 388.97 991.27 397.56 988.66 404.46 C 983.76 417.58 975.15 428.88 969.46 441.63 C 966.57 448.28 963.88 456.33 967.62 463.21 C 972.59 472.55 981.40 478.89 989.19 485.72 C 997.14 492.73 1006.05 499.42 1010.69 509.24 C 1013.30 514.51 1012.99 520.93 1010.18 526.05 C 1005.19 535.67 996.26 542.24 988.33 549.28 C 980.69 555.92 972.11 562.19 967.43 571.44 C 964.43 577.19 966.07 583.94 968.24 589.67 C 973.64 603.29 982.87 615.02 988.24 628.67 C 990.57 634.79 992.13 642.04 989.04 648.19 C 986.01 654.31 979.89 658.04 974.02 661.04 C 962.07 666.87 949.00 670.03 937.19 676.15 C 931.41 679.18 925.46 683.63 924.13 690.44 C 921.93 701.11 924.67 711.93 926.28 722.49 C 927.87 732.91 930.30 743.79 927.28 754.18 C 925.23 761.26 918.48 765.76 911.54 767.22 C 897.29 770.42 882.55 768.49 868.11 769.69 C 862.57 770.24 856.84 771.19 852.06 774.22 C 849.11 776.07 847.32 779.14 845.47 781.98 C 871.58 859.77 906.41 934.71 949.47 1004.59 C 963.49 1027.02 978.05 1049.15 993.90 1070.34 C 994.05 1070.80 994.36 1071.74 994.52 1072.21 C 939.80 1051.36 882.70 1037.40 828.05 1016.39 C 827.61 1016.51 826.72 1016.75 826.27 1016.88 C 821.24 1026.56 818.39 1037.24 816.42 1047.93 C 815.88 1054.32 814.17 1060.57 814.06 1067.01 C 813.40 1081.98 812.19 1096.92 811.30 1111.88 C 809.53 1123.56 807.69 1135.33 803.27 1146.36 C 802.24 1148.29 802.33 1151.29 799.98 1152.15 C 751.02 1091.17 709.24 1024.31 676.90 953.07 C 664.49 926.06 653.53 898.41 643.69 870.38 C 642.14 866.93 641.78 863.01 639.93 859.72 C 639.46 859.69 638.51 859.64 638.03 859.62 C 635.68 863.97 634.65 869.04 632.78 873.67 C 624.10 898.12 616.79 923.16 605.77 946.71 C 582.66 1009.92 559.49 1073.11 536.41 1136.34 C 535.36 1138.25 535.63 1142.01 533.05 1142.42 C 525.81 1125.82 517.37 1109.75 509.68 1093.35 C 497.61 1068.43 485.50 1043.53 473.51 1018.58 C 472.50 1016.89 472.17 1014.30 469.98 1013.76 C 468.32 1013.63 466.92 1014.68 465.43 1015.22 C 424.64 1031.83 383.55 1047.71 342.86 1064.52 C 340.11 1064.18 342.88 1061.00 343.19 1059.49 C 372.43 979.92 401.45 900.26 430.64 820.67 C 431.65 818.18 430.51 815.55 430.16 813.05 C 427.73 801.86 426.93 789.93 421.12 779.81 C 418.13 774.28 412.00 771.62 406.09 770.56 C 389.47 767.62 372.27 771.07 355.78 767.04 C 348.82 765.49 342.27 760.62 340.50 753.45 C 337.73 742.73 340.36 731.66 341.98 720.97 C 343.55 710.91 345.98 700.58 343.86 690.42 C 342.64 684.13 337.37 679.78 332.06 676.83 C 318.66 669.48 303.31 666.51 290.03 658.91 C 284.30 655.59 278.70 650.68 277.50 643.83 C 276.22 634.85 280.44 626.33 284.47 618.60 C 290.64 606.47 299.40 595.25 301.97 581.62 C 303.49 574.30 298.99 567.64 294.27 562.53 C 284.60 552.28 272.56 544.53 263.21 533.95 C 258.54 528.49 254.34 521.49 255.76 514.01 C 257.24 506.90 262.14 501.16 267.10 496.13 C 273.94 489.59 281.38 483.71 288.45 477.43 C 293.48 472.75 298.63 467.76 301.24 461.27 C 303.23 456.21 301.87 450.67 300.20 445.74 C 294.86 431.46 285.06 419.37 279.60 405.15 C 277.36 399.16 275.95 392.10 278.93 386.11 C 281.88 380.19 287.71 376.43 293.41 373.48 C 303.75 368.41 314.88 365.24 325.45 360.69 C 330.98 358.21 336.62 355.36 340.59 350.64 C 343.58 347.15 344.41 342.41 344.65 337.96 C 345.22 319.81 337.52 302.22 339.78 284.05 C 340.54 276.08 346.73 269.52 354.38 267.61 C 372.71 262.50 392.30 267.80 410.62 262.51 C 416.62 260.92 421.05 256.00 423.23 250.34 C 429.54 234.61 429.05 217.05 435.36 201.32 C 437.81 195.17 442.37 189.26 449.11 187.66 C 459.28 185.71 469.36 189.21 478.84 192.54 C 488.13 195.62 497.22 199.60 506.96 201.09 C 511.75 201.77 517.00 201.79 521.26 199.19 C 525.72 196.41 529.14 192.29 532.14 188.04 C 539.58 177.31 544.98 165.24 553.12 154.99 M 611.55 232.85 C 552.68 237.93 495.74 262.36 451.35 301.34 C 402.86 343.48 369.44 402.60 358.78 465.99 C 351.39 509.17 354.08 554.08 366.81 596.02 C 377.03 629.81 393.74 661.61 415.68 689.25 C 452.75 736.19 505.07 770.90 562.86 786.45 C 605.15 797.94 650.12 799.36 693.07 790.71 C 749.93 779.40 802.88 749.78 842.53 707.51 C 884.51 663.18 911.45 604.87 917.70 544.10 C 924.33 483.07 910.47 419.99 878.41 367.60 C 846.32 314.56 796.31 272.63 738.40 250.47 C 698.22 234.95 654.44 228.99 611.55 232.85 Z" />
<path fill="#000000" opacity="1.00" d=" M 613.57 245.79 C 656.65 242.05 700.64 248.76 740.54 265.50 C 797.71 289.24 846.03 333.44 874.86 388.21 C 905.26 445.17 913.72 513.27 898.74 576.03 C 885.19 633.98 851.51 686.84 805.03 723.94 C 759.97 760.27 702.88 781.31 645.01 782.84 C 604.46 784.09 563.62 776.09 526.62 759.40 C 473.12 735.45 427.97 693.46 400.15 641.88 C 381.16 606.95 370.17 567.73 368.16 528.02 C 365.80 483.92 374.45 439.25 393.33 399.32 C 418.11 346.50 460.58 302.25 512.32 275.31 C 543.66 258.87 578.31 248.79 613.57 245.79 M 619.57 263.82 C 596.53 265.40 573.71 270.18 551.98 278.02 C 495.98 298.05 447.81 338.84 418.64 390.65 C 399.05 425.13 387.93 464.36 386.42 503.99 C 384.61 547.37 394.24 591.18 414.34 629.68 C 441.68 682.62 488.52 725.15 543.90 747.15 C 606.26 772.33 678.79 770.85 740.03 743.04 C 797.40 717.41 844.30 669.37 868.50 611.38 C 894.25 550.66 894.54 479.70 869.29 418.76 C 846.30 362.44 802.01 315.22 747.30 288.63 C 707.91 269.25 663.34 260.73 619.57 263.82 Z" />
<path fill="#000000" opacity="1.00" d=" M 678.51 338.71 C 687.11 337.18 696.56 339.91 702.48 346.48 C 709.43 353.99 712.01 364.32 713.41 374.19 C 714.87 386.89 714.45 399.89 711.58 412.38 C 709.39 422.11 705.21 431.83 697.58 438.53 C 689.50 445.71 677.31 447.69 667.33 443.61 C 660.06 440.65 654.85 434.13 651.92 427.03 C 646.57 413.46 646.16 398.46 647.65 384.12 C 649.27 371.64 652.59 358.72 660.94 348.94 C 665.41 343.67 671.61 339.77 678.51 338.71 M 679.46 347.57 C 676.30 348.95 674.34 352.02 672.83 354.98 C 668.97 362.82 667.59 371.57 666.70 380.18 C 665.67 391.68 665.58 403.33 667.27 414.77 C 668.43 421.62 670.10 428.90 674.83 434.24 C 677.26 437.26 682.13 437.60 684.86 434.81 C 689.13 430.76 690.83 424.83 692.31 419.32 C 695.19 406.09 695.48 392.43 694.88 378.96 C 694.17 369.59 693.41 359.70 688.51 351.43 C 686.79 348.31 683.00 345.96 679.46 347.57 Z" />
<path fill="#000000" opacity="1.00" d=" M 539.24 340.12 C 540.71 339.42 542.39 339.58 543.98 339.50 C 551.65 339.54 559.32 339.54 566.99 339.50 C 568.78 339.63 570.93 339.27 572.35 340.66 C 574.07 342.76 573.20 346.54 570.69 347.62 C 568.60 348.24 566.42 348.38 564.27 348.67 C 566.30 373.00 568.81 397.29 571.81 421.51 C 577.94 397.05 583.42 372.43 588.82 347.80 C 589.73 343.71 594.51 343.23 597.95 343.07 C 600.19 342.90 603.54 342.95 604.14 345.73 C 609.07 370.92 613.08 396.31 618.31 421.44 C 622.25 397.30 625.61 373.06 628.31 348.76 C 626.03 348.40 623.69 348.24 621.50 347.49 C 618.98 346.00 618.58 341.57 621.21 339.98 C 624.07 339.20 627.08 339.60 630.02 339.52 C 635.68 339.66 641.35 339.29 647.01 339.67 C 649.65 339.68 650.79 342.79 649.96 344.97 C 649.36 347.73 646.20 348.05 644.01 348.89 C 637.71 378.92 632.16 409.13 625.17 439.02 C 624.53 443.91 619.07 444.82 615.04 444.71 C 612.08 444.63 607.45 445.54 606.29 441.88 C 601.48 422.69 597.28 403.33 593.11 383.99 C 587.95 402.55 583.33 421.28 577.36 439.60 C 576.31 444.26 570.95 444.71 567.05 444.71 C 564.37 444.53 560.89 445.47 558.94 443.12 C 557.67 440.99 557.53 438.42 557.00 436.05 C 551.92 407.00 548.20 377.72 543.89 348.55 C 542.41 348.19 540.92 347.92 539.52 347.37 C 537.19 345.85 536.73 341.69 539.24 340.12 Z" />
<path fill="#000000" opacity="1.00" d=" M 714.77 345.07 C 713.72 342.73 715.16 339.46 717.98 339.62 C 724.98 339.42 732.00 339.51 739.01 339.58 C 741.30 339.36 743.16 340.98 743.81 343.09 C 752.46 365.53 761.14 387.96 769.74 410.41 C 770.02 389.92 769.68 369.41 769.21 348.92 C 766.92 348.44 764.58 348.12 762.38 347.34 C 759.28 345.99 759.24 340.15 763.00 339.69 C 770.62 339.38 778.30 339.46 785.93 339.64 C 790.20 339.67 790.15 346.32 786.68 347.58 C 785.32 348.10 783.93 348.47 782.55 348.89 C 781.65 371.91 780.54 394.93 780.24 417.97 C 779.95 425.87 780.11 433.81 779.49 441.69 C 779.24 444.41 776.12 444.95 773.97 445.29 C 771.03 445.96 767.52 444.84 766.37 441.87 C 755.56 418.66 745.61 395.07 735.40 371.59 C 734.92 392.84 734.59 414.10 734.37 435.35 C 736.45 435.74 738.57 436.03 740.63 436.62 C 743.44 437.41 744.79 441.58 742.70 443.74 C 741.13 445.12 738.87 444.53 736.99 444.62 C 731.30 444.24 725.61 444.54 719.93 444.64 C 717.14 444.97 715.33 441.77 716.46 439.38 C 717.36 436.14 721.24 436.28 723.86 435.51 C 723.78 406.69 723.48 377.86 722.68 349.04 C 719.87 348.28 715.72 348.52 714.77 345.07 Z" />
<path fill="#000000" opacity="1.00" d=" M 505.55 342.68 C 508.33 341.32 511.66 343.87 511.10 346.93 C 509.99 376.47 509.28 406.02 508.97 435.58 C 511.99 436.29 516.36 435.68 517.85 439.13 C 519.37 441.79 517.04 445.19 514.01 444.64 C 504.97 444.33 495.93 444.47 486.90 444.61 C 482.62 444.81 482.36 438.24 485.84 436.85 C 488.16 436.03 490.64 435.91 493.05 435.52 C 492.97 410.11 492.79 384.69 492.19 359.29 C 489.44 359.93 486.72 360.71 483.93 361.09 C 479.92 361.58 477.04 355.03 481.25 353.26 C 489.29 349.61 497.42 346.14 505.55 342.68 Z" />
<path fill="#000000" opacity="1.00" d=" M 785.52 462.61 C 790.32 461.99 795.43 462.14 799.97 464.01 C 802.16 465.03 802.42 467.71 802.65 469.82 C 802.99 474.58 803.59 479.32 803.75 484.09 C 804.06 487.95 798.14 490.48 795.84 487.21 C 793.46 482.75 792.41 477.65 789.69 473.36 C 786.14 471.64 781.52 472.97 779.02 475.97 C 775.27 480.32 774.77 486.57 775.79 492.01 C 777.49 498.78 783.14 503.42 788.13 507.86 C 795.08 513.86 801.92 520.93 804.27 530.09 C 807.24 540.53 803.85 552.52 795.70 559.72 C 786.87 567.49 774.04 569.76 762.77 567.17 C 760.57 566.84 758.53 565.26 758.34 562.93 C 757.55 557.64 756.86 552.32 756.39 546.99 C 755.84 542.95 761.99 540.00 764.48 543.42 C 766.72 547.69 768.17 552.35 770.65 556.51 C 771.29 558.26 773.49 557.63 774.94 557.86 C 779.63 558.06 784.45 556.00 787.22 552.14 C 790.16 548.04 790.28 542.56 789.15 537.81 C 786.94 530.23 780.25 525.34 774.35 520.66 C 766.87 514.85 760.60 506.71 759.35 497.08 C 756.85 481.02 769.40 464.59 785.52 462.61 Z" />
<path fill="#000000" opacity="1.00" d=" M 593.09 468.92 C 592.02 466.30 594.10 463.16 596.98 463.38 C 610.64 463.49 624.33 463.54 637.99 463.05 C 640.49 462.77 643.99 463.41 644.27 466.49 C 644.75 472.62 644.87 478.81 644.79 484.96 C 644.61 488.62 638.75 490.52 636.94 487.08 C 635.10 482.80 633.86 478.28 632.07 473.98 C 627.54 473.50 623.00 473.21 618.45 473.03 C 618.17 485.27 617.80 497.50 617.54 509.73 C 624.58 510.04 631.66 509.84 638.66 510.55 C 642.87 511.78 641.61 518.81 637.58 519.40 C 630.83 520.33 623.99 520.26 617.22 520.85 C 617.08 533.06 616.81 545.27 616.75 557.49 C 620.00 558.42 625.08 557.82 626.18 561.92 C 627.28 564.58 624.96 567.65 622.07 567.15 C 614.05 566.90 606.02 566.84 598.00 567.15 C 595.24 567.48 593.22 564.58 594.15 562.07 C 594.69 559.02 598.13 558.46 600.55 557.65 C 600.44 529.47 600.26 501.28 599.56 473.11 C 597.13 472.30 593.66 471.97 593.09 468.92 Z" />
<path fill="#000000" opacity="1.00" d=" M 690.82 464.91 C 698.13 463.39 705.63 463.06 713.08 462.79 C 721.27 462.51 730.09 463.96 736.54 469.40 C 744.67 476.18 747.22 487.93 744.99 497.96 C 743.36 506.04 738.11 512.94 731.60 517.80 C 737.58 530.72 742.75 544.01 747.47 557.44 C 749.65 558.34 752.76 558.60 753.65 561.19 C 755.04 563.74 753.22 567.50 750.09 567.12 C 743.37 566.79 736.66 567.06 729.95 567.10 C 726.91 567.22 725.56 563.49 726.82 561.10 C 727.47 558.86 730.10 558.57 731.89 557.64 C 726.43 546.39 721.55 534.81 714.86 524.21 C 714.29 524.25 713.15 524.33 712.59 524.38 C 712.33 535.37 712.00 546.37 711.80 557.37 C 713.84 557.89 715.96 558.22 717.90 559.10 C 721.19 560.97 720.46 567.55 716.04 567.13 C 708.34 566.88 700.64 566.93 692.94 567.11 C 688.73 567.29 688.14 561.03 691.26 559.19 C 692.75 558.42 694.40 558.06 696.00 557.57 C 695.94 529.79 695.75 502.00 695.38 474.22 C 692.88 473.63 689.40 473.63 688.42 470.71 C 687.27 468.57 688.16 465.26 690.82 464.91 M 713.73 472.06 C 713.34 486.37 712.76 500.68 712.59 515.00 C 716.80 514.78 720.86 512.74 723.21 509.17 C 728.00 502.17 728.20 493.05 726.77 484.97 C 725.48 478.72 721.06 471.37 713.73 472.06 Z" />
<path fill="#000000" opacity="1.00" d=" M 811.23 466.90 C 811.20 464.45 813.52 462.58 815.91 462.85 C 833.26 463.57 850.66 463.60 868.02 462.84 C 870.13 462.62 872.76 463.67 872.93 466.09 C 873.54 472.37 873.50 478.72 873.64 485.02 C 874.15 489.22 867.31 491.66 865.50 487.64 C 863.54 483.07 862.12 478.29 860.36 473.65 C 857.42 473.35 854.48 473.07 851.55 472.81 C 850.41 501.05 850.29 529.33 849.83 557.59 C 852.56 558.25 856.63 558.47 857.17 562.00 C 858.13 564.62 855.91 567.60 853.07 567.14 C 845.38 566.81 837.69 567.00 830.01 567.08 C 825.80 566.90 825.68 560.42 829.09 558.95 C 830.59 558.29 832.20 557.92 833.78 557.48 C 833.51 529.26 833.12 501.04 832.63 472.83 C 829.63 472.90 826.65 473.12 823.70 473.54 C 821.94 478.23 820.38 483.01 818.33 487.58 C 816.41 491.17 810.15 488.95 810.49 485.01 C 810.56 478.97 810.83 472.92 811.23 466.90 Z" />
<path fill="#000000" opacity="1.00" d=" M 411.46 469.61 C 410.23 467.06 411.88 463.38 415.00 463.61 C 420.99 463.41 426.99 463.56 432.99 463.53 C 435.36 463.34 438.20 464.44 438.61 467.07 C 443.69 491.13 448.87 515.18 454.67 539.07 C 460.93 515.24 466.59 491.25 472.62 467.36 C 472.91 465.15 474.71 463.40 477.02 463.58 C 483.35 463.55 489.71 463.29 496.02 463.74 C 499.05 464.16 499.63 468.02 498.25 470.27 C 497.22 472.40 494.61 472.56 492.65 473.25 C 492.67 501.39 492.71 529.54 493.22 557.68 C 495.47 558.59 498.70 559.07 499.10 562.00 C 500.01 564.56 497.86 567.57 495.06 567.13 C 488.02 566.81 480.98 567.00 473.94 567.12 C 470.92 567.39 469.23 563.82 470.47 561.35 C 471.46 558.29 475.17 558.32 477.72 557.61 C 477.10 538.84 476.56 520.06 475.41 501.33 C 469.74 521.66 464.47 542.11 458.19 562.26 C 457.57 564.65 455.35 566.22 452.94 566.36 C 450.05 566.80 445.80 566.69 445.05 563.14 C 439.13 542.82 434.05 522.26 428.84 501.75 C 427.40 520.36 426.13 538.99 424.91 557.62 C 427.31 558.35 430.84 558.25 431.79 561.15 C 433.25 563.82 431.29 567.67 428.02 567.14 C 422.32 566.81 416.62 567.12 410.93 567.02 C 407.29 566.32 407.35 560.83 410.20 559.19 C 411.42 558.53 412.75 558.14 414.05 557.67 C 415.28 529.56 416.49 501.45 417.58 473.34 C 415.34 472.61 412.24 472.28 411.46 469.61 Z" />
<path fill="#000000" opacity="1.00" d=" M 501.24 468.93 C 500.28 466.39 502.16 463.31 505.02 463.59 C 513.32 463.49 521.63 463.45 529.92 463.61 C 533.02 463.37 534.73 467.10 533.37 469.62 C 532.58 472.22 529.59 472.39 527.39 473.03 C 531.04 485.40 534.87 497.72 538.91 509.97 C 543.12 497.84 546.84 485.53 550.16 473.12 C 548.54 472.65 546.83 472.43 545.34 471.61 C 543.09 469.86 542.66 465.75 545.26 464.10 C 548.04 463.11 551.10 463.63 554.00 463.52 C 558.66 463.69 563.36 463.17 567.99 463.79 C 571.22 464.65 571.19 469.16 569.22 471.24 C 567.95 472.13 566.48 472.67 565.09 473.32 C 558.70 488.32 552.91 503.57 546.75 518.68 C 545.68 521.33 544.35 523.98 544.27 526.90 C 543.82 537.18 543.96 547.48 543.98 557.78 C 546.34 558.52 549.64 558.58 550.64 561.32 C 552.06 563.87 550.07 567.50 547.02 567.15 C 539.68 566.91 532.34 566.86 525.00 567.14 C 522.19 567.54 520.09 564.58 521.02 562.02 C 521.57 558.73 525.38 558.51 527.94 557.69 C 527.88 548.09 527.60 538.49 527.33 528.90 C 527.30 524.69 525.29 520.90 523.92 517.03 C 518.47 502.46 512.90 487.94 507.45 473.38 C 505.07 472.52 501.71 471.95 501.24 468.93 Z" />
<path fill="#000000" opacity="1.00" d=" M 650.32 469.71 C 649.23 467.45 650.23 464.02 653.00 463.69 C 659.00 463.26 665.02 463.67 671.03 463.52 C 673.96 463.62 677.00 463.16 679.86 464.00 C 682.69 465.62 682.12 470.03 679.77 471.81 C 678.43 472.31 677.03 472.64 675.66 473.02 C 674.35 501.20 674.46 529.43 673.87 557.63 C 676.26 558.34 679.66 558.52 680.54 561.38 C 681.72 563.84 680.05 567.38 677.06 567.11 C 669.37 566.83 661.67 567.01 653.99 567.07 C 649.88 566.80 649.71 560.56 653.06 559.04 C 654.57 558.35 656.18 557.94 657.78 557.46 C 657.66 529.34 657.09 501.23 656.73 473.11 C 654.43 472.46 651.14 472.48 650.32 469.71 Z" />
<path fill="#000000" opacity="1.00" d=" M 690.54 583.74 C 696.64 582.81 703.30 583.08 708.79 586.17 C 711.02 587.45 710.86 590.34 711.22 592.56 C 711.62 598.06 712.36 603.53 712.64 609.04 C 713.04 613.17 706.18 615.59 704.29 611.71 C 701.58 605.97 699.83 599.79 696.85 594.17 C 695.84 592.01 692.97 592.74 691.18 593.28 C 685.26 595.71 681.76 601.54 678.96 606.98 C 671.80 621.82 670.55 638.86 672.05 655.07 C 673.16 664.62 675.93 674.96 683.56 681.41 C 688.58 685.81 695.86 685.57 701.85 683.57 C 704.92 682.67 707.70 680.91 710.85 680.29 C 714.83 680.42 716.09 686.82 712.68 688.69 C 705.75 692.73 698.13 696.28 689.95 696.45 C 679.92 696.90 669.68 692.77 663.23 684.99 C 655.23 675.60 652.38 663.01 651.66 650.98 C 650.72 632.67 655.00 613.31 666.94 598.97 C 672.73 591.40 680.96 585.27 690.54 583.74 Z" />
<path fill="#000000" opacity="1.00" d=" M 504.04 586.20 C 511.55 584.53 519.31 584.33 526.98 583.90 C 537.63 583.31 549.34 584.15 558.01 591.07 C 567.94 598.90 570.55 613.54 566.13 625.03 C 563.41 632.30 557.84 638.14 551.46 642.38 C 558.50 656.52 564.81 671.03 570.32 685.83 C 573.16 687.04 576.20 687.22 579.11 686.11 C 588.13 654.17 596.21 621.96 605.44 590.09 C 606.25 587.12 609.00 584.97 612.05 584.73 C 615.99 584.38 620.05 584.27 623.95 585.08 C 626.42 585.85 626.44 588.86 626.98 590.94 C 633.19 622.69 640.04 654.31 647.22 685.86 C 649.19 686.49 651.28 686.90 653.09 687.98 C 654.85 689.38 655.42 692.22 654.12 694.13 C 652.62 695.88 650.09 695.33 648.08 695.38 C 640.05 694.87 632.01 695.41 623.98 695.36 C 619.63 695.43 619.67 688.58 623.25 687.42 C 625.40 686.72 627.65 686.41 629.88 685.99 C 627.41 676.57 625.00 667.14 622.46 657.75 C 614.53 657.97 606.61 658.13 598.69 658.47 C 596.96 667.62 595.11 676.75 593.74 685.97 C 596.91 686.86 601.66 686.29 602.98 690.07 C 604.27 692.71 602.02 696.00 599.04 695.41 C 588.03 694.81 577.02 695.69 566.02 695.18 C 560.67 694.97 555.32 695.58 549.99 695.32 C 547.12 695.05 546.49 691.51 547.61 689.35 C 548.60 686.93 551.62 687.00 553.73 686.25 C 547.44 673.54 541.22 660.71 533.23 648.96 C 531.85 649.01 530.47 649.07 529.11 649.14 C 528.80 661.33 528.39 673.52 528.16 685.72 C 530.67 686.28 533.25 686.65 535.67 687.58 C 539.00 689.25 538.37 695.84 534.01 695.41 C 525.02 695.11 516.02 695.14 507.03 695.38 C 502.76 695.73 502.20 689.35 505.45 687.66 C 507.34 686.83 509.38 686.42 511.37 685.89 C 511.09 655.51 511.09 625.13 510.52 594.75 C 507.86 594.35 504.27 595.07 502.66 592.36 C 501.32 590.46 501.36 586.86 504.04 586.20 M 529.08 639.96 C 537.61 640.63 544.99 633.99 547.07 626.04 C 549.55 616.55 549.25 605.20 542.63 597.39 C 539.72 593.84 535.10 592.46 530.64 592.66 C 529.78 608.41 529.41 624.19 529.08 639.96 M 610.74 609.80 C 607.42 622.40 604.52 635.10 601.33 647.73 C 607.62 648.14 613.92 648.44 620.22 648.56 C 617.10 635.63 614.15 622.66 610.74 609.80 Z" />
<path fill="#000000" opacity="1.00" d=" M 719.98 584.45 C 736.34 584.78 752.72 584.51 769.09 584.32 C 771.33 584.10 773.64 585.66 773.62 588.06 C 773.91 594.04 774.13 600.06 773.94 606.04 C 773.81 609.56 768.38 611.66 766.32 608.57 C 764.26 604.18 762.94 599.48 761.06 595.01 C 755.19 594.42 749.32 593.95 743.43 593.73 C 742.66 606.74 742.20 619.77 742.00 632.80 C 750.18 633.19 758.39 633.15 766.56 633.73 C 769.66 634.17 769.89 638.25 768.34 640.38 C 767.35 642.34 765.00 642.56 763.07 642.67 C 755.92 643.05 748.77 643.24 741.64 643.64 C 741.30 657.72 741.02 671.81 740.80 685.90 C 748.26 685.64 755.88 685.83 763.20 684.22 C 766.22 680.39 767.83 675.66 770.73 671.75 C 773.45 668.94 778.70 672.24 777.78 675.93 C 776.76 681.50 775.62 687.07 774.37 692.60 C 773.98 695.07 771.34 696.18 769.08 695.92 C 755.40 695.25 741.70 695.15 728.00 695.27 C 724.34 695.22 720.63 695.84 717.01 695.23 C 714.02 694.01 714.47 689.54 716.77 687.88 C 718.81 686.89 721.12 686.60 723.31 686.05 C 723.57 655.39 723.22 624.71 722.78 594.05 C 720.71 593.55 718.56 593.24 716.61 592.38 C 714.57 590.91 714.11 587.63 715.55 585.61 C 716.62 584.32 718.48 584.56 719.98 584.45 Z" />
</g>
</svg>
