<?xml version="1.0" encoding="UTF-8" ?>
<!DOCTYPE svg PUBLIC "-//W3C//DTD SVG 1.1//EN" "http://www.w3.org/Graphics/SVG/1.1/DTD/svg11.dtd">
<svg width="1200pt" height="1200pt" viewBox="0 0 1200 1200" version="1.1" xmlns="http://www.w3.org/2000/svg">
<g id="#000000ff">
<path fill="#000000" opacity="1.00" d=" M 263.20 354.40 C 493.87 354.41 724.54 354.37 955.21 354.42 C 955.19 521.34 955.21 688.27 955.20 855.20 C 724.53 855.20 493.87 855.20 263.20 855.20 C 263.20 688.26 263.19 521.33 263.20 354.40 M 283.20 374.40 C 283.20 528.00 283.20 681.60 283.20 835.20 C 500.53 835.20 717.86 835.20 935.20 835.20 C 935.20 681.60 935.20 528.00 935.20 374.40 C 717.86 374.40 500.53 374.40 283.20 374.40 Z" />
<path fill="#000000" opacity="1.00" d=" M 321.33 394.36 C 329.97 393.19 339.00 398.74 341.57 407.12 C 344.29 414.81 341.35 424.06 334.62 428.68 C 328.36 433.19 319.37 433.31 312.99 428.96 C 306.29 424.61 303.06 415.69 305.35 408.05 C 307.21 400.76 313.89 395.17 321.33 394.36 Z" />
<path fill="#000000" opacity="1.00" d=" M 893.25 396.29 C 899.33 395.23 905.90 397.37 910.15 401.87 C 915.20 407.08 916.77 415.30 914.03 422.02 C 911.32 429.31 903.69 434.22 895.96 433.97 C 887.41 433.90 879.41 427.42 877.87 418.97 C 875.34 408.81 882.87 397.69 893.25 396.29 Z" />
<path fill="#000000" opacity="1.00" d=" M 487.15 416.93 C 486.95 414.22 487.95 410.76 491.05 410.28 C 496.26 409.76 501.57 409.86 506.80 410.20 C 510.21 410.40 511.45 414.11 511.18 417.03 C 511.15 463.02 511.18 509.01 511.16 555.00 C 521.12 555.03 531.08 554.95 541.05 555.02 C 543.68 554.82 546.86 556.09 547.23 559.04 C 547.70 563.65 547.61 568.33 547.30 572.95 C 547.15 576.09 543.82 577.61 541.03 577.39 C 525.69 577.44 510.34 577.35 495.00 577.43 C 492.93 577.31 490.53 577.53 488.89 576.05 C 487.13 574.58 487.21 572.10 487.14 570.03 C 487.18 519.00 487.16 467.96 487.15 416.93 Z" />
<path fill="#000000" opacity="1.00" d=" M 548.31 414.27 C 548.59 411.04 552.10 409.76 554.92 410.00 C 572.61 409.98 590.31 410.02 608.00 409.99 C 610.98 410.01 613.98 409.80 616.95 410.25 C 619.21 410.51 620.84 412.66 620.87 414.88 C 621.10 419.29 621.18 423.74 620.78 428.15 C 620.60 430.55 618.32 432.30 615.99 432.30 C 609.55 432.62 603.10 432.30 596.66 432.42 C 596.66 478.63 596.68 524.84 596.65 571.04 C 596.80 573.56 595.69 576.54 592.93 577.08 C 589.00 577.71 584.98 577.33 581.02 577.43 C 578.71 577.29 575.96 577.63 574.17 575.85 C 572.59 574.35 572.74 572.01 572.64 570.03 C 572.68 524.16 572.65 478.29 572.66 432.41 C 566.11 432.31 559.55 432.62 553.01 432.30 C 550.50 432.35 548.32 430.26 548.26 427.76 C 547.98 423.27 547.93 418.75 548.31 414.27 Z" />
<path fill="#000000" opacity="1.00" d=" M 630.41 410.52 C 637.16 409.34 644.13 410.31 650.97 410.00 C 662.58 410.38 675.12 408.25 685.70 414.27 C 696.06 419.82 702.28 431.38 702.24 443.00 C 702.28 476.67 702.26 510.35 702.26 544.02 C 702.21 553.23 698.70 562.58 691.71 568.75 C 685.12 574.94 675.91 577.58 667.02 577.42 C 655.39 577.27 643.74 577.62 632.13 577.26 C 628.90 577.26 627.09 573.97 627.37 571.08 C 627.33 519.73 627.38 468.37 627.35 417.02 C 627.26 414.56 627.78 411.49 630.41 410.52 M 651.37 432.41 C 651.36 473.27 651.38 514.13 651.36 554.99 C 656.94 554.89 662.55 555.27 668.13 554.78 C 673.92 554.20 678.72 548.81 678.24 542.92 C 678.29 512.28 678.23 481.63 678.27 450.99 C 678.23 447.67 678.47 444.31 677.90 441.03 C 676.85 436.36 672.41 432.71 667.63 432.50 C 662.21 432.25 656.78 432.49 651.37 432.41 Z" />
<path fill="#000000" opacity="1.00" d=" M 374.98 608.05 C 376.54 606.48 378.94 606.68 380.97 606.58 C 396.64 606.64 412.31 606.56 427.98 606.61 C 430.45 606.49 433.45 607.43 434.12 610.13 C 434.80 614.69 434.53 619.36 434.37 623.96 C 434.46 626.82 431.94 629.14 429.12 628.94 C 418.54 629.15 407.94 628.94 397.36 629.02 C 397.37 645.21 397.36 661.41 397.37 677.60 C 406.59 677.64 415.81 677.52 425.03 677.63 C 427.37 677.56 430.17 678.51 430.79 681.05 C 431.50 685.66 431.20 690.39 431.07 695.04 C 431.17 697.79 428.84 700.22 426.06 700.12 C 416.50 700.38 406.93 700.12 397.36 700.22 C 397.37 717.35 397.36 734.47 397.37 751.60 C 407.60 751.61 417.83 751.59 428.06 751.59 C 430.63 751.48 433.94 752.16 434.70 755.05 C 435.37 759.95 435.24 764.99 434.83 769.93 C 434.44 773.19 430.80 774.22 428.00 774.01 C 411.63 773.95 395.26 774.10 378.89 773.94 C 375.60 774.22 373.10 771.20 373.39 768.05 C 373.31 716.69 373.40 665.33 373.34 613.97 C 373.40 611.93 373.33 609.55 374.98 608.05 Z" />
<path fill="#000000" opacity="1.00" d=" M 449.36 607.44 C 451.08 606.50 453.12 606.65 455.02 606.57 C 466.03 606.64 477.05 606.57 488.07 606.60 C 496.37 606.68 504.83 609.30 511.05 614.95 C 518.20 621.13 521.81 630.61 521.85 639.93 C 521.89 672.62 521.83 705.30 521.88 737.98 C 522.12 746.35 520.19 755.11 514.75 761.67 C 508.46 769.78 498.16 774.03 488.03 774.00 C 476.00 773.92 463.95 774.17 451.92 773.88 C 448.82 773.95 446.72 770.94 447.00 768.03 C 446.90 716.70 447.01 665.36 446.95 614.03 C 446.97 611.68 447.02 608.74 449.36 607.44 M 470.97 629.02 C 470.97 669.88 470.96 710.74 470.97 751.60 C 476.40 751.49 481.84 751.83 487.27 751.44 C 493.01 751.05 498.09 745.97 497.82 740.09 C 497.90 707.05 497.85 674.00 497.85 640.95 C 498.22 635.29 493.78 629.83 488.12 629.20 C 482.42 628.74 476.68 629.14 470.97 629.02 Z" />
<path fill="#000000" opacity="1.00" d=" M 539.48 607.63 C 541.39 606.35 543.83 606.69 546.01 606.57 C 550.00 606.69 554.06 606.22 558.01 607.03 C 560.60 607.70 561.44 610.59 561.35 612.98 C 561.39 664.31 561.34 715.63 561.38 766.96 C 561.29 768.94 561.30 771.31 559.61 772.70 C 557.77 774.22 555.18 773.88 552.97 774.03 C 549.00 773.93 545.00 774.30 541.07 773.68 C 538.06 773.08 537.19 769.70 537.36 767.06 C 537.37 716.05 537.39 665.03 537.35 614.03 C 537.38 611.77 537.40 609.04 539.48 607.63 Z" />
<path fill="#000000" opacity="1.00" d=" M 569.29 610.03 C 570.06 607.12 573.43 606.48 576.02 606.59 C 595.67 606.61 615.33 606.59 634.99 606.60 C 637.42 606.52 640.49 607.13 641.34 609.78 C 642.22 614.11 641.72 618.60 641.76 623.00 C 641.99 625.82 640.11 628.86 637.05 628.87 C 630.53 629.25 623.98 628.87 617.45 629.04 C 617.49 675.03 617.44 721.03 617.47 767.02 C 617.60 769.61 616.85 772.92 613.95 773.63 C 610.01 774.33 605.97 773.92 602.00 774.03 C 599.76 773.89 597.20 774.23 595.33 772.77 C 593.56 771.43 593.50 769.04 593.45 767.05 C 593.47 721.04 593.45 675.03 593.46 629.02 C 586.97 628.92 580.47 629.19 573.98 628.92 C 571.29 629.01 568.97 626.74 569.03 624.04 C 568.84 619.38 568.59 614.65 569.29 610.03 Z" />
<path fill="#000000" opacity="1.00" d=" M 651.33 607.46 C 653.69 606.26 656.46 606.68 659.03 606.57 C 662.62 606.70 666.32 606.20 669.85 607.11 C 672.73 608.04 673.05 611.44 672.98 614.01 C 672.95 665.02 672.97 716.04 672.97 767.06 C 673.08 769.56 672.45 772.80 669.64 773.56 C 665.82 774.38 661.86 773.89 657.98 774.03 C 655.48 773.87 652.49 774.39 650.51 772.50 C 649.02 771.08 649.05 768.88 648.97 766.99 C 648.97 716.02 648.99 665.04 648.96 614.07 C 648.99 611.72 649.01 608.78 651.33 607.46 Z" />
<path fill="#000000" opacity="1.00" d=" M 701.17 607.17 C 703.41 606.63 705.72 606.57 708.01 606.57 C 721.34 606.63 734.67 606.59 747.99 606.58 C 752.39 606.52 757.04 607.58 760.34 610.67 C 764.14 613.96 765.68 619.11 765.66 624.00 C 765.66 665.68 765.66 707.35 765.66 749.03 C 765.59 754.82 766.39 761.13 763.27 766.35 C 760.44 771.37 754.64 774.09 748.98 773.99 C 734.99 774.04 720.99 773.97 707.00 774.02 C 702.44 774.11 697.59 773.03 694.24 769.75 C 690.45 766.32 689.09 761.03 689.15 756.08 C 689.20 711.71 689.10 667.33 689.20 622.95 C 689.14 615.80 693.94 608.61 701.17 607.17 M 713.16 629.02 C 713.17 669.88 713.15 710.74 713.17 751.60 C 722.67 751.60 732.17 751.60 741.67 751.60 C 741.68 710.74 741.66 669.88 741.68 629.03 C 732.17 629.01 722.67 629.01 713.16 629.02 Z" />
<path fill="#000000" opacity="1.00" d=" M 780.95 614.00 C 780.87 611.42 781.21 608.06 784.08 607.10 C 788.28 606.21 792.65 606.50 796.91 606.78 C 799.22 606.82 800.77 608.78 801.42 610.82 C 811.83 639.51 822.22 668.22 832.64 696.92 C 832.69 668.93 832.63 640.95 832.67 612.97 C 832.43 610.20 833.94 606.97 837.05 606.81 C 842.01 606.45 847.06 606.35 852.02 606.89 C 854.84 607.38 856.02 610.40 855.85 612.98 C 855.86 664.67 855.90 716.38 855.83 768.08 C 856.28 771.94 852.59 774.55 848.99 774.01 C 844.86 773.69 838.51 775.53 836.54 770.58 C 825.67 740.94 814.96 711.24 804.18 681.56 C 804.09 710.37 804.22 739.17 804.12 767.97 C 804.32 770.62 802.74 773.57 799.86 773.78 C 794.94 774.17 789.94 774.19 785.02 773.76 C 781.79 773.37 780.72 769.79 780.95 767.01 C 780.96 716.01 780.98 665.00 780.95 614.00 Z" />
<path fill="#000000" opacity="1.00" d=" M 317.26 776.25 C 323.42 774.88 330.22 776.88 334.65 781.37 C 339.47 786.14 341.37 793.61 339.40 800.10 C 337.78 806.06 332.98 811.05 327.05 812.83 C 320.45 815.07 312.68 813.21 307.78 808.26 C 302.81 803.37 300.92 795.59 303.16 788.98 C 305.05 782.57 310.72 777.54 317.26 776.25 Z" />
<path fill="#000000" opacity="1.00" d=" M 894.40 780.56 C 900.94 778.92 908.30 781.15 912.82 786.16 C 917.36 791.08 918.98 798.51 916.83 804.86 C 915.04 810.76 910.09 815.55 904.15 817.19 C 897.70 819.16 890.26 817.31 885.47 812.56 C 880.40 807.64 878.49 799.75 880.79 793.07 C 882.68 786.87 888.08 781.95 894.40 780.56 Z" />
</g>
</svg>
