<?xml version="1.0" encoding="UTF-8" ?>
<!DOCTYPE svg PUBLIC "-//W3C//DTD SVG 1.1//EN" "http://www.w3.org/Graphics/SVG/1.1/DTD/svg11.dtd">
<svg width="1200pt" height="1200pt" viewBox="0 0 1200 1200" version="1.1" xmlns="http://www.w3.org/2000/svg">
<g id="#000000ff">
<path fill="#000000" opacity="1.00" d=" M 236.46 396.69 C 253.06 389.76 272.82 389.85 288.92 398.16 C 302.54 405.21 312.19 418.20 317.67 432.27 C 325.11 451.51 326.46 472.65 324.09 492.99 C 320.02 526.56 306.22 559.29 283.23 584.28 C 270.07 598.67 253.58 609.86 235.47 617.04 C 250.68 618.84 265.76 625.26 275.89 637.04 C 290.31 653.48 294.57 676.61 292.23 697.86 C 304.32 694.78 314.49 686.59 321.72 676.62 C 330.26 664.90 335.58 651.10 338.85 637.04 C 339.36 635.06 339.49 633.01 339.11 631.00 C 336.30 612.18 334.82 593.17 334.26 574.15 C 333.69 551.69 334.17 529.08 338.12 506.91 C 341.49 487.97 346.78 469.11 356.20 452.23 C 363.31 439.59 373.18 427.92 386.39 421.44 C 398.90 415.20 413.64 414.61 427.02 418.21 C 435.63 420.13 443.02 426.06 447.39 433.65 C 453.54 444.29 454.84 457.04 453.85 469.10 C 452.64 482.77 448.84 496.10 443.96 508.89 C 436.39 528.30 425.83 546.62 412.32 562.51 C 401.87 574.68 389.35 585.50 374.46 591.83 C 375.38 617.55 375.60 643.34 378.80 668.91 C 381.01 685.54 383.71 702.54 391.36 717.66 C 395.07 724.81 401.21 732.22 409.89 732.67 C 414.95 733.42 419.13 729.74 421.98 726.01 C 427.59 718.59 431.06 709.84 434.22 701.17 C 439.01 687.37 442.74 673.18 445.54 658.85 C 444.18 648.66 443.01 638.36 443.85 628.06 C 445.16 608.96 449.78 589.10 462.11 573.97 C 471.06 562.81 485.61 556.22 499.93 557.69 C 507.30 558.51 513.82 563.27 517.55 569.59 C 523.20 578.94 524.61 590.24 524.12 600.99 C 523.56 613.32 519.78 625.99 511.18 635.15 C 502.65 644.43 490.13 649.18 477.71 649.86 C 478.51 663.71 481.12 677.58 486.69 690.34 C 490.13 697.94 494.58 705.71 501.92 710.13 C 507.67 713.78 514.95 711.50 520.38 708.36 C 529.98 702.41 535.73 692.13 540.14 682.05 C 546.95 665.90 550.62 648.65 553.76 631.47 C 554.22 629.67 553.43 627.94 552.83 626.30 C 549.45 617.78 547.11 608.87 545.55 599.85 C 543.65 590.08 544.92 579.80 548.75 570.65 C 551.92 563.16 557.52 556.49 565.01 553.06 C 574.13 548.95 584.93 549.10 594.14 552.84 C 600.86 555.58 606.32 561.26 608.63 568.16 C 612.19 578.44 610.55 589.64 607.70 599.88 C 606.93 603.43 602.49 605.75 599.30 603.70 C 596.73 602.14 596.41 598.69 597.34 596.08 C 599.67 588.08 600.38 579.07 596.79 571.33 C 594.01 565.33 587.85 560.34 580.97 560.89 C 575.77 561.15 571.69 565.48 570.28 570.26 C 568.20 577.24 569.11 584.82 571.52 591.60 C 575.14 601.89 580.64 611.39 586.29 620.68 C 597.56 638.90 610.20 656.22 621.71 674.29 C 636.14 669.33 651.30 666.35 666.59 666.12 C 653.14 643.33 639.00 620.31 632.76 594.30 C 630.32 584.79 628.54 574.73 630.94 565.01 C 632.92 555.38 638.37 546.10 647.02 541.06 C 656.57 535.51 668.67 535.13 678.89 539.06 C 685.95 541.77 691.71 547.67 694.03 554.90 C 697.49 565.29 695.79 576.59 692.82 586.89 C 691.94 590.50 687.07 592.17 684.20 589.77 C 681.99 588.06 681.80 584.92 682.65 582.46 C 685.04 574.53 685.96 565.54 682.15 557.90 C 679.37 551.74 672.97 546.62 665.93 547.36 C 660.96 547.76 657.09 551.88 655.66 556.45 C 653.00 564.82 654.97 573.81 658.31 581.68 C 664.46 596.37 673.30 609.71 681.97 622.99 C 694.79 642.53 708.77 661.42 719.35 682.33 C 729.90 671.08 738.35 657.76 742.96 642.99 C 744.34 638.10 746.30 633.23 746.44 628.10 C 744.75 608.99 745.17 589.59 748.82 570.72 C 750.23 563.34 756.80 557.71 764.13 556.64 C 773.24 554.78 784.69 560.81 784.95 570.92 C 784.10 590.26 783.11 609.62 783.48 628.99 C 783.79 644.58 784.38 660.28 787.57 675.60 C 788.96 681.18 790.39 687.15 794.36 691.53 C 798.18 695.40 804.62 693.40 808.09 690.00 C 815.35 682.98 818.67 673.06 821.81 663.71 C 823.94 656.26 826.39 648.77 827.26 641.06 C 825.12 621.11 825.22 600.99 826.35 580.98 C 826.70 575.33 826.42 568.92 830.47 564.40 C 837.33 556.78 850.29 556.67 858.01 563.05 C 861.16 565.71 863.04 569.82 862.83 573.96 C 862.16 594.32 861.46 614.67 861.09 635.04 C 861.09 642.70 860.53 650.38 861.33 658.02 C 863.26 642.55 866.05 627.19 869.18 611.92 C 873.46 592.44 878.45 572.75 888.15 555.16 C 893.69 545.39 901.41 535.71 912.59 532.36 C 921.24 529.47 931.15 532.20 937.74 538.31 C 944.21 544.39 947.40 553.05 949.23 561.54 C 952.28 576.14 951.94 591.19 951.10 606.01 C 949.33 634.66 944.23 662.98 941.76 691.57 C 941.17 700.67 940.36 709.97 942.34 718.97 C 943.11 721.86 944.57 725.48 947.94 725.99 C 952.77 726.53 956.76 722.96 959.67 719.53 C 965.43 712.40 968.98 703.82 972.22 695.33 C 979.89 674.23 984.50 652.18 988.52 630.15 C 988.90 627.82 989.51 625.47 989.11 623.11 C 986.15 605.28 988.26 586.41 996.11 570.06 C 1002.36 557.03 1013.26 545.82 1027.15 541.18 C 1037.55 537.75 1049.40 536.79 1059.61 541.36 C 1066.36 544.40 1071.24 550.94 1072.20 558.28 C 1074.89 556.38 1077.77 554.61 1081.06 553.99 C 1087.88 552.43 1095.95 555.42 1099.12 561.91 C 1101.23 565.94 1100.47 570.59 1100.42 574.95 C 1099.93 608.98 1099.19 643.02 1099.50 677.06 C 1105.95 676.59 1112.52 674.84 1117.64 670.73 C 1124.10 665.64 1127.88 658.04 1130.64 650.47 C 1135.08 638.03 1137.13 624.92 1139.20 611.93 C 1139.54 609.56 1140.65 606.99 1143.05 606.10 C 1146.99 604.34 1151.90 607.66 1152.03 611.91 C 1151.98 615.57 1151.17 619.17 1150.71 622.80 C 1148.36 637.55 1145.74 652.57 1139.16 666.11 C 1135.66 673.16 1130.66 679.65 1123.96 683.91 C 1116.60 688.72 1107.77 690.54 1099.13 691.29 C 1098.12 709.93 1096.52 728.68 1091.79 746.79 C 1089.60 754.88 1086.78 762.98 1081.82 769.82 C 1074.59 779.37 1063.26 786.42 1051.02 786.29 C 1038.98 786.12 1027.88 779.81 1019.51 771.51 C 1006.42 758.43 998.42 740.46 997.10 722.03 C 996.48 711.73 997.87 700.70 1004.14 692.19 C 1011.08 682.43 1022.69 677.08 1034.25 675.18 C 1043.29 673.58 1052.57 674.02 1061.60 675.52 C 1060.98 662.70 1060.53 649.87 1060.42 637.04 C 1056.50 646.63 1051.48 656.63 1042.41 662.30 C 1035.16 666.85 1025.96 666.39 1018.11 663.82 C 1010.22 661.27 1003.72 655.61 998.99 648.94 C 995.68 666.29 991.54 683.57 985.05 700.04 C 981.03 710.03 976.16 719.90 968.93 728.00 C 963.80 733.71 956.91 738.30 949.09 738.96 C 939.38 739.72 929.05 736.91 921.99 729.96 C 914.68 722.88 910.98 712.99 908.85 703.25 C 905.37 687.07 905.58 670.38 906.45 653.95 C 907.63 633.21 910.48 612.62 912.91 592.00 C 914.08 581.02 915.63 569.98 914.96 558.92 C 914.60 556.39 914.56 553.03 912.09 551.60 C 906.91 552.27 903.76 557.14 901.24 561.24 C 894.35 573.69 890.77 587.61 887.22 601.29 C 882.52 620.33 878.98 639.62 874.95 658.80 C 872.77 668.06 871.28 677.65 867.28 686.35 C 866.02 689.71 862.27 690.56 859.09 690.88 C 853.39 691.71 847.53 689.54 843.40 685.63 C 838.94 681.51 836.15 675.98 833.86 670.45 C 830.19 681.18 825.29 692.03 816.67 699.71 C 810.05 705.66 800.68 708.27 791.94 706.65 C 782.80 705.37 774.64 700.08 768.77 693.10 C 760.40 683.16 755.37 670.88 751.96 658.46 C 746.16 673.01 736.63 685.97 724.65 696.04 C 727.46 710.35 725.70 725.27 721.45 739.12 C 717.54 751.40 710.58 763.46 699.34 770.34 C 689.90 776.06 677.91 777.80 667.35 774.41 C 660.83 772.33 655.36 767.08 653.41 760.48 C 650.28 750.58 653.28 739.87 658.07 731.03 C 664.50 719.33 674.68 710.03 686.18 703.42 C 682.77 694.96 678.48 686.89 673.98 678.96 C 658.65 677.45 642.69 679.12 628.75 686.00 C 638.07 703.93 641.76 724.93 638.48 744.92 C 636.30 757.86 630.75 770.81 620.48 779.38 C 611.54 786.93 599.51 790.24 587.93 789.63 C 578.43 789.06 569.64 783.42 564.71 775.35 C 557.07 763.10 556.17 747.63 559.57 733.86 C 563.58 716.72 574.41 701.62 588.51 691.25 C 580.60 676.83 571.34 663.21 563.38 648.83 C 559.50 667.18 554.79 685.78 545.11 702.04 C 538.83 712.62 529.26 722.03 516.99 725.00 C 506.45 727.97 495.04 725.66 485.69 720.24 C 471.52 712.14 461.13 698.70 454.11 684.18 C 450.08 700.21 445.44 716.46 436.53 730.55 C 431.65 738.18 424.51 745.44 415.11 746.66 C 402.72 747.89 390.22 743.09 380.96 734.95 C 369.76 725.16 362.28 711.91 356.50 698.39 C 351.61 686.81 348.00 674.72 345.08 662.51 C 339.75 675.83 331.61 688.36 320.08 697.13 C 311.30 703.96 300.79 708.28 289.95 710.52 C 284.98 729.16 275.23 746.80 260.75 759.72 C 248.23 771.00 231.82 777.91 214.95 778.53 C 205.69 778.69 195.76 778.26 187.66 773.26 C 180.41 769.00 175.86 760.32 177.35 751.92 C 178.95 741.94 186.19 733.99 194.02 728.14 C 208.87 717.21 226.71 711.37 244.43 707.01 C 245.15 686.92 239.68 666.03 226.52 650.50 C 216.02 637.93 200.26 630.24 184.00 628.94 C 180.94 628.47 177.46 629.07 174.77 627.23 C 170.11 623.54 170.47 615.64 174.88 611.89 C 176.44 610.46 178.56 609.95 180.54 609.39 C 197.27 605.20 211.72 594.81 223.77 582.78 C 244.55 561.78 259.56 535.68 270.41 508.37 C 278.44 487.53 284.43 465.48 284.24 443.00 C 283.95 432.57 282.35 421.05 274.77 413.22 C 268.11 406.37 257.37 406.00 248.76 408.80 C 237.00 412.86 228.31 422.51 221.39 432.45 C 209.81 449.63 202.20 469.10 195.71 488.67 C 183.83 525.53 176.50 563.69 170.95 601.97 C 166.32 634.95 163.02 668.16 162.19 701.47 C 160.96 708.54 152.24 713.61 145.62 710.32 C 142.25 708.70 140.36 705.25 139.13 701.89 C 125.38 667.63 115.83 631.64 111.17 595.01 C 107.46 564.89 107.33 534.11 113.22 504.25 C 114.39 497.50 120.14 492.73 126.08 490.04 C 133.65 486.73 142.85 485.60 150.40 489.55 C 156.29 492.61 159.32 499.57 158.74 506.01 C 155.61 528.86 155.54 551.99 155.32 575.01 C 155.49 591.97 155.16 608.97 156.56 625.88 C 157.32 605.11 159.42 584.41 161.81 563.78 C 164.84 539.00 169.00 514.31 175.44 490.18 C 181.38 468.33 189.07 446.60 201.63 427.61 C 210.28 414.54 221.84 402.85 236.46 396.69 M 417.40 436.66 C 407.45 438.83 400.40 447.18 395.65 455.68 C 387.49 470.65 383.56 487.47 380.64 504.13 C 376.69 527.95 375.14 552.13 375.06 576.26 C 387.40 569.83 397.63 560.00 406.13 549.10 C 415.76 536.65 423.28 522.63 428.95 507.97 C 435.40 491.17 439.76 473.01 437.44 454.93 C 436.61 449.28 435.15 443.25 431.03 439.05 C 427.51 435.39 421.95 435.89 417.40 436.66 M 1035.61 559.60 C 1029.67 569.78 1026.53 581.34 1024.34 592.85 C 1021.90 606.68 1020.78 620.89 1022.66 634.86 C 1023.54 640.36 1024.81 646.15 1028.45 650.54 C 1030.33 652.81 1033.87 654.59 1036.57 652.57 C 1042.35 648.82 1045.52 642.35 1048.40 636.32 C 1055.11 621.09 1058.94 604.79 1062.27 588.54 C 1064.12 580.37 1063.62 571.61 1067.47 563.97 C 1065.15 564.15 1062.40 564.24 1060.84 562.18 C 1059.27 559.81 1059.49 556.63 1057.70 554.37 C 1055.33 551.04 1051.16 548.90 1047.05 549.72 C 1041.76 550.65 1038.28 555.32 1035.61 559.60 M 486.17 576.09 C 481.91 582.63 479.86 590.33 478.49 597.94 C 476.27 610.94 475.90 624.23 476.96 637.37 C 485.17 637.30 493.29 633.96 498.93 627.95 C 506.83 619.75 509.93 608.16 510.68 597.06 C 511.39 589.76 509.83 582.25 506.02 575.96 C 504.11 572.96 501.69 569.74 498.07 568.84 C 493.04 568.55 488.81 572.14 486.17 576.09 M 1032.92 688.05 C 1025.66 689.31 1018.79 693.52 1015.15 700.04 C 1010.03 709.21 1009.43 720.31 1011.29 730.47 C 1014.28 744.77 1022.38 758.10 1034.08 766.92 C 1039.26 770.60 1045.48 773.82 1052.03 773.12 C 1056.34 772.16 1058.44 767.69 1059.73 763.88 C 1062.41 755.21 1062.64 746.04 1062.95 737.04 C 1063.24 720.94 1062.39 704.85 1061.86 688.77 C 1052.29 687.58 1042.51 686.39 1032.92 688.05 M 573.60 738.41 C 571.87 747.71 571.92 757.92 576.53 766.43 C 579.36 771.75 584.75 776.07 590.95 776.24 C 597.33 775.95 604.02 772.99 607.24 767.23 C 611.02 760.48 610.48 752.33 609.45 744.94 C 607.04 730.42 601.28 716.72 595.09 703.46 C 584.21 712.20 576.36 724.69 573.60 738.41 M 690.73 715.04 C 680.47 721.50 671.08 730.76 667.85 742.79 C 666.44 748.62 666.50 755.57 670.71 760.28 C 674.60 764.76 681.49 764.70 686.58 762.51 C 692.16 759.97 694.68 753.68 695.28 747.93 C 696.43 736.79 694.02 725.63 690.73 715.04 M 203.89 739.86 C 199.56 743.59 195.01 748.07 194.12 753.97 C 193.36 759.21 198.42 762.92 202.95 764.02 C 209.52 765.46 215.87 761.93 220.77 757.88 C 231.40 748.77 238.50 736.03 242.26 722.65 C 228.58 725.90 214.94 730.95 203.89 739.86 Z" />
<path fill="#000000" opacity="1.00" d=" M 551.53 398.69 C 556.47 394.40 563.27 391.22 569.88 393.13 C 578.30 395.75 583.90 404.35 584.68 412.89 C 585.77 424.46 582.31 435.83 578.51 446.62 C 570.77 467.49 559.94 487.07 548.17 505.91 C 534.65 494.07 521.38 481.77 510.33 467.54 C 503.92 459.16 498.08 449.95 495.67 439.55 C 493.70 430.77 495.50 420.58 502.27 414.26 C 506.02 410.65 511.86 410.59 516.43 412.54 C 524.47 415.85 530.84 422.12 536.47 428.56 C 537.32 417.15 542.96 406.22 551.53 398.69 Z" />
<path fill="#000000" opacity="1.00" d=" M 908.93 408.00 C 912.41 401.95 918.03 396.83 924.96 395.22 C 935.14 392.89 946.29 395.92 954.13 402.76 C 958.76 406.83 961.28 412.91 961.57 419.01 C 962.26 434.82 954.51 450.42 942.28 460.27 C 937.13 464.32 930.69 465.91 924.56 467.79 C 925.45 474.47 926.92 481.39 931.19 486.80 C 932.30 488.24 933.88 490.04 935.94 489.29 C 942.64 487.51 948.14 482.12 950.30 475.56 C 951.24 473.02 951.50 470.19 952.95 467.87 C 955.78 464.13 963.48 467.15 961.94 472.07 C 960.38 480.39 957.09 488.86 950.51 494.51 C 945.33 499.35 938.00 502.13 930.91 500.71 C 923.14 499.16 916.08 494.99 910.28 489.69 C 907.87 487.57 906.32 484.69 905.21 481.73 C 901.26 471.64 898.69 460.89 898.67 450.02 C 899.39 435.58 901.42 420.64 908.93 408.00 M 929.39 423.21 C 925.70 435.26 923.71 447.86 923.80 460.48 C 926.80 459.50 929.96 458.59 932.37 456.43 C 941.26 448.46 946.65 436.84 947.17 424.91 C 947.76 418.28 945.55 411.47 941.04 406.56 C 934.96 410.14 931.52 416.71 929.39 423.21 Z" />
<path fill="#000000" opacity="1.00" d=" M 693.43 399.44 C 694.91 396.78 698.25 396.24 701.02 395.99 C 717.71 394.98 734.39 396.92 751.07 397.42 C 755.11 397.25 759.03 399.77 760.34 403.65 C 761.03 405.19 761.53 408.27 759.00 408.21 C 751.71 408.53 744.41 406.58 737.15 407.91 C 736.81 418.27 736.94 428.65 736.42 439.00 C 735.67 455.01 734.86 471.09 736.45 487.08 C 736.74 488.79 736.55 490.85 737.77 492.23 C 741.05 493.69 745.25 492.28 748.16 494.86 C 749.70 495.73 750.26 498.35 748.62 499.41 C 739.84 503.90 728.65 504.11 720.16 498.82 C 715.32 495.82 712.03 490.80 710.36 485.43 C 708.53 479.45 707.09 473.30 706.99 467.02 C 706.82 449.94 706.81 432.81 708.86 415.83 C 708.96 413.37 709.72 410.70 708.65 408.37 C 704.70 406.35 699.69 407.48 695.99 404.84 C 694.55 403.52 692.60 401.55 693.43 399.44 Z" />
<path fill="#000000" opacity="1.00" d=" M 768.37 396.67 C 771.82 395.72 775.44 395.81 778.99 395.74 C 793.71 395.48 808.38 397.01 823.09 397.48 C 828.16 397.40 833.16 402.72 831.70 407.74 C 824.29 409.31 816.53 406.34 809.02 407.79 C 807.64 409.43 808.47 411.99 808.17 414.01 C 808.42 438.74 805.15 463.50 807.77 488.19 C 808.03 489.53 807.93 491.14 808.92 492.22 C 812.19 493.69 816.33 492.29 819.25 494.78 C 820.93 495.66 821.50 498.56 819.62 499.53 C 809.85 504.42 796.93 504.06 788.50 496.65 C 781.26 490.02 779.70 479.65 778.37 470.42 C 777.85 452.28 777.96 434.06 780.04 416.00 C 780.23 413.70 780.64 411.36 780.20 409.07 C 779.59 407.50 777.53 407.66 776.20 407.27 C 772.02 406.65 766.70 406.37 764.79 401.85 C 763.30 399.38 766.25 397.24 768.37 396.67 Z" />
<path fill="#000000" opacity="1.00" d=" M 607.34 397.52 C 614.03 395.47 621.54 397.81 626.78 402.23 C 630.35 405.42 629.73 410.69 629.70 415.00 C 628.68 437.66 627.66 460.35 628.25 483.04 C 628.32 486.71 629.49 491.17 633.31 492.59 C 637.89 494.34 642.42 490.52 647.03 491.82 C 649.31 492.47 651.88 494.26 651.78 496.91 C 650.92 498.18 649.28 498.38 647.97 498.90 C 643.07 500.36 638.15 502.23 632.95 502.13 C 623.30 501.73 613.89 496.39 609.02 487.97 C 602.59 477.17 602.05 464.21 602.10 451.97 C 602.31 434.65 601.65 417.09 605.46 400.06 C 605.71 399.01 606.28 397.94 607.34 397.52 Z" />
<path fill="#000000" opacity="1.00" d=" M 667.25 397.31 C 670.73 395.78 674.58 397.08 678.07 397.97 C 683.46 399.33 688.62 403.31 689.77 408.98 C 690.66 413.03 688.09 416.72 685.57 419.61 C 683.44 422.07 680.08 423.35 676.86 422.78 C 670.77 421.86 663.87 418.50 662.60 411.86 C 661.70 406.84 662.32 400.08 667.25 397.31 Z" />
<path fill="#000000" opacity="1.00" d=" M 849.33 397.44 C 856.04 395.55 863.50 397.86 868.69 402.34 C 872.14 405.54 871.52 410.72 871.50 414.99 C 870.50 436.65 869.60 458.33 869.95 480.02 C 870.02 484.19 870.01 489.45 873.95 492.01 C 878.98 495.19 884.58 489.84 889.77 492.14 C 891.68 492.96 893.77 494.63 893.55 496.96 C 892.68 498.21 891.04 498.35 889.75 498.90 C 884.93 500.34 880.09 502.16 874.99 502.14 C 865.30 501.82 855.80 496.50 850.88 488.07 C 844.59 477.55 843.85 464.92 843.91 452.98 C 844.08 435.60 843.44 418.03 847.05 400.92 C 847.32 399.54 847.83 397.93 849.33 397.44 Z" />
<path fill="#000000" opacity="1.00" d=" M 1038.30 401.14 C 1043.30 398.46 1049.75 397.13 1054.90 400.21 C 1060.90 403.93 1063.50 411.23 1064.10 417.96 C 1064.25 429.58 1058.82 440.31 1053.18 450.16 C 1041.31 469.93 1026.15 487.52 1010.13 504.03 C 1001.78 490.30 993.87 476.23 987.77 461.34 C 983.37 450.40 979.70 438.85 979.84 426.94 C 980.12 418.05 983.54 408.39 991.43 403.53 C 995.62 400.85 1001.03 402.52 1004.50 405.62 C 1010.78 411.10 1014.75 418.69 1018.05 426.23 C 1021.31 415.73 1028.61 406.42 1038.30 401.14 Z" />
<path fill="#000000" opacity="1.00" d=" M 664.32 428.34 C 670.16 426.38 676.80 427.79 682.06 430.80 C 684.69 432.23 687.30 434.71 687.06 437.97 C 686.75 442.65 685.73 447.25 685.37 451.92 C 684.73 457.59 685.18 463.29 685.02 468.98 C 684.83 476.97 684.14 484.97 684.75 492.96 C 684.84 495.31 685.20 498.38 682.83 499.81 C 675.75 504.30 665.08 499.26 663.93 490.99 C 661.37 475.46 662.60 459.68 662.21 444.03 C 662.09 440.02 661.43 435.99 662.02 431.99 C 662.22 430.52 662.95 429.03 664.32 428.34 Z" />
<path fill="#000000" opacity="1.00" d=" M 766.35 510.58 C 772.86 508.77 780.28 511.15 784.54 516.40 C 791.22 524.35 790.54 537.61 782.49 544.40 C 776.33 549.90 766.35 550.22 759.86 545.11 C 752.96 539.91 750.79 529.97 753.86 522.07 C 755.85 516.53 760.60 512.01 766.35 510.58 Z" />
</g>
</svg>
