<?xml version="1.0" encoding="UTF-8" ?>
<!DOCTYPE svg PUBLIC "-//W3C//DTD SVG 1.1//EN" "http://www.w3.org/Graphics/SVG/1.1/DTD/svg11.dtd">
<svg width="1200pt" height="1200pt" viewBox="0 0 1200 1200" version="1.1" xmlns="http://www.w3.org/2000/svg">
<g id="#000000ff">
<path fill="#000000" opacity="1.00" d=" M 562.36 251.45 C 586.48 250.56 610.66 252.18 634.52 255.79 C 655.12 258.98 675.56 263.68 695.15 270.87 C 708.95 276.09 722.74 282.28 734.02 291.99 C 739.77 297.11 745.32 303.97 744.98 312.11 C 744.61 319.78 738.69 325.72 732.59 329.66 C 721.17 336.87 707.88 340.34 694.76 342.92 C 669.15 347.62 642.91 347.99 616.98 346.23 C 583.24 343.66 549.43 337.66 517.87 325.14 C 504.68 319.63 491.33 313.17 481.36 302.66 C 476.08 297.13 472.22 288.90 475.27 281.32 C 479.10 272.10 488.52 267.02 497.23 263.23 C 517.87 254.93 540.30 252.47 562.36 251.45 M 513.59 277.35 C 506.32 279.60 498.87 282.25 493.11 287.41 C 499.42 295.61 508.95 300.38 518.07 304.77 C 537.13 313.41 557.55 318.69 578.09 322.47 C 603.77 327.05 629.93 329.10 656.00 328.19 C 672.61 327.52 689.30 325.75 705.32 321.14 C 712.69 318.89 720.20 316.18 726.10 311.03 C 720.99 304.21 713.42 299.89 706.01 296.00 C 685.25 285.65 662.55 279.84 639.82 275.71 C 613.83 271.18 587.36 269.18 561.00 270.30 C 545.02 271.06 528.98 272.87 513.59 277.35 Z" />
<path fill="#000000" opacity="1.00" d=" M 824.47 307.71 C 832.04 301.06 842.84 300.37 852.36 301.94 C 865.45 304.62 877.79 310.14 889.35 316.76 C 897.55 321.94 905.70 327.42 912.33 334.57 C 931.88 353.03 946.74 376.44 955.11 402.01 C 961.35 418.78 964.50 436.44 968.53 453.81 C 973.83 478.47 977.97 503.38 984.12 527.85 C 987.80 543.80 991.79 559.67 995.76 575.55 C 997.45 581.03 997.94 586.96 1000.72 592.06 C 1000.81 594.92 1001.48 597.71 1002.37 600.43 C 1013.14 641.83 1026.37 682.53 1038.08 723.66 C 1045.54 746.75 1052.55 769.97 1059.79 793.13 C 1066.91 814.20 1073.22 835.53 1080.48 856.56 C 1082.67 860.88 1079.40 865.47 1076.16 868.21 C 1071.33 871.90 1064.91 872.67 1059.01 872.15 C 1046.68 870.88 1034.91 866.46 1023.82 861.10 C 1010.84 855.02 998.24 847.17 989.21 835.83 C 977.01 821.40 969.09 804.07 958.46 788.57 C 954.58 783.57 950.96 778.07 945.71 774.42 C 936.19 769.82 927.97 762.71 921.98 754.02 C 909.70 736.86 905.40 714.81 890.53 699.41 C 882.81 694.97 875.18 690.32 868.18 684.77 C 864.71 682.30 861.94 678.96 858.23 676.83 C 855.51 672.68 851.47 669.69 848.26 665.97 C 837.64 653.78 828.33 640.42 821.06 625.97 C 810.93 605.41 803.92 583.35 799.86 560.82 C 799.06 554.82 797.48 548.97 796.55 543.00 C 795.14 534.37 793.05 525.47 794.93 516.75 C 795.77 512.52 799.41 508.76 803.92 508.94 C 807.54 509.12 811.81 509.83 814.34 512.65 C 815.05 528.19 816.33 543.79 819.64 559.03 C 821.96 572.10 826.54 584.57 830.82 597.09 C 837.68 613.94 845.52 630.67 856.98 644.95 C 859.97 648.52 862.67 652.49 866.62 655.09 C 871.38 662.13 879.00 666.51 885.84 671.29 C 880.27 648.46 873.81 625.86 868.55 602.95 C 867.08 598.75 867.99 594.25 867.04 589.97 C 864.82 579.22 860.37 568.99 859.12 558.04 C 858.48 552.09 859.59 545.38 864.14 541.15 C 867.01 539.37 870.36 536.70 873.91 537.74 C 879.37 543.42 881.93 551.24 882.95 558.92 C 884.60 568.59 884.47 578.55 886.92 588.09 C 894.44 612.53 899.68 637.58 906.55 662.20 C 915.05 693.40 927.64 724.21 948.53 749.25 C 941.20 724.03 934.93 698.50 929.52 672.80 C 928.03 664.91 926.11 657.06 925.42 649.05 C 925.54 639.76 921.99 631.04 920.36 622.02 C 919.03 615.39 917.60 608.31 919.91 601.74 C 921.87 596.38 927.44 593.26 932.95 592.93 C 936.11 592.57 941.32 591.91 941.38 596.48 C 945.84 643.99 955.90 690.85 969.24 736.62 C 972.77 747.36 975.88 758.23 979.12 769.06 C 985.94 789.01 994.87 808.99 1010.15 823.96 C 1021.02 835.89 1035.59 843.99 1050.95 848.64 C 1047.60 838.32 1043.97 828.10 1041.12 817.63 C 1035.32 800.54 1030.53 783.14 1024.94 765.98 C 1017.99 744.59 1012.27 722.84 1005.51 701.40 C 988.75 643.28 971.89 585.14 958.56 526.11 C 950.99 495.97 946.46 465.17 938.97 435.00 C 934.07 415.66 927.59 396.57 917.87 379.08 C 912.60 369.62 907.04 360.23 900.02 351.94 C 887.58 338.63 872.44 326.80 854.46 322.32 C 848.61 321.37 841.57 320.41 836.78 324.73 C 826.52 332.94 822.37 346.09 819.24 358.34 C 816.58 368.52 814.87 378.94 811.77 389.00 C 806.30 408.13 804.02 428.32 795.42 446.45 C 791.75 453.94 786.87 461.01 780.23 466.17 C 778.71 467.70 775.69 467.11 775.25 464.87 C 773.43 460.10 771.31 455.45 769.38 450.73 C 768.48 448.92 770.30 447.50 771.18 446.13 C 778.75 436.28 782.80 424.36 786.37 412.61 C 791.71 392.63 796.85 372.59 801.54 352.44 C 805.62 336.16 811.09 318.82 824.47 307.71 Z" />
<path fill="#000000" opacity="1.00" d=" M 367.50 316.79 C 378.54 315.15 391.08 315.62 399.98 323.22 C 410.72 332.18 415.72 345.80 419.10 358.96 C 421.96 370.58 424.13 382.37 426.89 394.02 C 432.23 413.60 434.77 434.31 444.66 452.34 C 446.42 456.18 449.05 459.51 451.19 463.13 C 449.64 468.29 446.39 472.82 444.53 477.91 C 444.11 479.89 441.39 480.44 440.06 479.03 C 433.96 473.57 429.20 466.71 425.68 459.35 C 415.82 439.06 414.33 416.15 408.26 394.68 C 404.41 379.42 403.29 363.22 396.05 349.01 C 393.36 343.63 389.31 338.82 384.13 335.72 C 375.20 332.65 365.44 334.72 356.78 337.75 C 343.41 342.80 331.12 350.96 321.80 361.85 C 311.88 373.81 303.76 387.21 297.41 401.38 C 286.57 425.43 280.54 451.26 275.16 476.98 C 271.32 493.24 267.97 509.61 263.66 525.76 C 257.56 550.42 251.72 575.16 244.79 599.62 C 241.77 612.46 237.52 624.98 234.49 637.84 C 229.08 657.14 223.07 676.28 217.75 695.62 C 207.25 731.21 196.42 766.71 185.09 802.04 C 178.77 821.94 172.45 841.86 165.40 861.52 C 171.32 859.12 177.42 857.12 183.07 854.12 C 196.75 846.38 209.10 836.03 218.06 823.01 C 226.39 811.25 232.37 797.99 237.45 784.56 C 240.63 775.37 243.10 765.95 245.83 756.62 C 262.00 705.23 272.76 652.18 278.87 598.67 C 278.87 594.70 283.30 595.34 286.06 595.41 C 291.15 595.68 296.91 597.85 299.06 602.85 C 301.95 609.49 300.65 616.95 299.35 623.82 C 297.55 633.91 293.74 643.70 293.72 654.07 C 288.53 689.20 279.26 723.58 270.15 757.87 C 277.04 748.68 283.72 739.20 288.68 728.81 C 299.09 710.32 305.73 689.98 311.40 669.62 C 317.96 646.14 323.22 622.34 329.53 598.80 C 331.75 591.62 333.84 584.35 334.41 576.82 C 336.04 565.27 336.04 552.76 342.71 542.69 C 344.03 541.05 345.44 538.43 347.93 538.86 C 354.26 540.57 359.38 546.27 359.86 552.90 C 361.21 567.46 353.66 580.71 351.29 594.72 C 350.92 606.67 346.97 618.06 344.34 629.62 C 340.70 645.21 336.16 660.57 332.81 676.23 C 339.74 671.57 346.87 666.69 351.90 659.93 C 357.68 655.70 361.54 649.45 365.79 643.79 C 376.73 627.62 385.24 609.82 391.22 591.24 C 396.19 578.73 398.80 565.48 401.22 552.29 C 402.78 542.23 403.84 532.08 404.14 521.90 C 404.22 520.43 404.30 518.42 406.01 517.91 C 410.64 516.05 416.75 515.67 420.53 519.46 C 424.87 524.16 424.61 531.06 424.31 537.03 C 423.19 549.47 419.24 561.43 417.51 573.77 C 413.88 590.25 408.59 606.34 402.05 621.88 C 394.08 639.58 383.62 656.18 370.68 670.68 C 367.53 674.86 363.11 677.92 360.29 682.36 C 356.27 684.49 353.53 688.25 349.83 690.81 C 342.87 696.30 335.38 701.07 327.79 705.61 C 318.40 715.57 313.52 728.68 307.76 740.86 C 301.68 755.22 293.74 769.59 280.76 778.81 C 276.91 782.08 271.65 783.41 268.47 787.47 C 255.98 801.69 247.95 819.01 237.81 834.85 C 229.10 848.80 217.01 860.85 202.37 868.49 C 188.48 876.06 173.73 882.82 157.94 885.06 C 150.81 886.12 142.35 885.42 137.28 879.69 C 135.67 877.61 133.68 875.02 134.42 872.26 C 139.54 857.16 145.04 842.18 149.99 827.02 C 153.59 816.78 156.61 806.37 160.33 796.18 C 162.41 790.99 163.15 785.39 165.33 780.24 C 172.66 757.77 180.14 735.35 186.82 712.67 C 190.43 699.83 194.72 687.19 198.52 674.40 C 209.95 636.31 220.71 598.02 230.53 559.48 C 239.86 525.56 246.72 491.04 254.66 456.79 C 260.95 432.26 266.22 407.00 278.50 384.59 C 287.75 366.55 301.02 350.58 317.03 338.15 C 331.48 326.55 349.38 319.94 367.50 316.79 Z" />
<path fill="#000000" opacity="1.00" d=" M 501.98 350.07 C 506.25 346.34 512.38 348.73 516.38 351.65 C 532.96 349.23 550.32 354.29 563.36 364.72 C 576.11 374.82 584.60 389.55 588.91 405.08 C 594.47 425.21 596.74 446.42 594.11 467.20 C 591.88 484.08 586.32 501.02 575.20 514.19 C 567.76 523.35 557.42 530.10 545.98 533.06 C 533.44 536.42 519.81 536.67 507.42 532.56 C 491.81 526.82 480.24 513.23 473.80 498.24 C 465.27 477.98 464.99 455.25 468.40 433.82 C 471.44 415.62 476.24 397.62 483.62 380.68 C 485.95 375.02 489.41 369.86 490.88 363.87 C 495.38 359.92 497.90 354.36 501.98 350.07 M 523.44 370.67 C 519.23 371.61 515.04 373.11 511.46 375.56 C 508.83 379.08 507.08 383.18 505.09 387.08 C 496.51 405.39 491.00 425.09 488.13 445.09 C 485.78 463.10 485.88 482.39 494.16 498.99 C 498.14 507.08 504.78 514.89 514.05 516.66 C 526.31 518.82 539.09 515.12 549.30 508.28 C 561.98 499.18 569.22 484.29 572.19 469.29 C 575.87 449.88 574.42 429.83 570.58 410.57 C 568.00 399.09 563.64 387.33 554.78 379.19 C 546.48 371.53 534.47 368.38 523.44 370.67 Z" />
<path fill="#000000" opacity="1.00" d=" M 604.38 420.32 C 607.13 418.40 610.75 419.22 613.59 420.50 C 618.40 422.74 622.88 427.31 622.48 432.99 C 622.22 455.64 620.90 478.35 623.04 500.95 C 623.59 507.14 624.88 513.29 627.45 518.98 C 632.60 517.50 635.92 512.96 638.66 508.64 C 645.15 497.78 647.69 485.18 650.20 472.93 C 653.28 457.80 655.04 442.42 656.16 427.03 C 656.19 423.71 658.56 420.54 661.97 420.18 C 668.78 419.42 676.64 424.69 676.60 432.00 C 677.71 463.70 678.48 495.41 678.87 527.12 C 679.02 530.15 677.93 533.68 674.87 534.89 C 669.81 536.87 664.02 534.17 660.67 530.26 C 657.93 527.23 658.37 522.91 658.34 519.15 C 654.14 527.04 647.75 534.68 638.68 536.84 C 630.77 539.22 621.78 536.83 616.05 530.90 C 607.79 522.58 604.28 510.79 602.77 499.45 C 599.72 475.38 601.65 451.09 601.96 426.93 C 601.99 424.57 602.19 421.76 604.38 420.32 Z" />
<path fill="#000000" opacity="1.00" d=" M 692.37 422.67 C 699.97 421.08 708.58 427.45 708.24 435.52 C 713.29 429.18 720.48 423.54 728.95 423.48 C 736.85 423.68 743.19 429.57 746.99 436.05 C 749.23 440.08 751.57 444.36 751.91 449.05 C 752.02 454.03 746.22 456.38 742.04 454.96 C 736.21 453.97 732.04 449.11 730.77 443.52 C 724.97 447.89 721.88 454.72 719.27 461.29 C 713.88 475.66 710.04 490.70 708.97 506.04 C 708.67 513.72 709.44 521.39 709.45 529.06 C 709.56 532.66 706.46 535.69 702.91 535.71 C 696.47 535.78 689.27 531.02 689.03 524.13 C 687.34 493.12 689.32 462.04 687.57 431.03 C 687.11 427.59 688.65 423.47 692.37 422.67 Z" />
<path fill="#000000" opacity="1.00" d=" M 510.38 555.48 C 516.49 554.59 524.13 559.13 523.70 565.94 C 524.89 600.62 523.59 635.36 525.50 670.02 C 526.07 673.44 523.53 676.91 519.97 676.91 C 514.38 677.04 507.65 673.23 507.56 667.05 C 505.62 632.05 506.97 596.99 505.73 561.98 C 505.39 559.00 507.29 555.89 510.38 555.48 Z" />
<path fill="#000000" opacity="1.00" d=" M 539.46 560.10 C 541.16 557.81 542.77 554.77 545.99 554.53 C 551.16 554.13 556.79 557.38 558.53 562.38 C 559.61 565.25 557.56 567.85 555.99 570.05 C 553.68 573.08 551.82 576.45 549.24 579.27 C 546.10 582.34 540.92 581.83 537.50 579.50 C 533.34 576.64 530.62 572.24 527.78 568.17 C 525.69 565.45 525.67 560.78 528.99 559.02 C 532.37 557.07 536.26 558.54 539.46 560.10 Z" />
<path fill="#000000" opacity="1.00" d=" M 678.39 555.53 C 682.68 554.74 687.22 556.79 690.05 560.00 C 691.79 561.88 691.85 564.57 691.95 566.98 C 693.05 601.33 691.82 635.72 693.70 670.04 C 694.18 673.21 692.08 676.58 688.75 676.84 C 682.89 677.37 675.70 673.26 675.73 666.78 C 673.84 631.86 675.15 596.86 673.93 561.92 C 673.64 559.04 675.40 556.00 678.39 555.53 Z" />
<path fill="#000000" opacity="1.00" d=" M 574.42 571.13 C 574.98 568.70 577.70 567.55 580.00 567.76 C 584.26 568.22 588.40 570.56 590.80 574.15 C 592.38 576.46 591.94 579.40 592.07 582.06 C 597.92 582.36 604.91 582.09 609.09 586.99 C 612.14 590.14 611.64 596.69 606.88 597.83 C 601.88 598.24 596.86 597.33 591.84 597.49 C 592.04 619.28 591.65 641.15 593.53 662.87 C 597.54 661.96 601.70 659.44 605.84 661.16 C 609.43 662.52 612.79 665.32 613.84 669.13 C 614.65 671.72 613.01 674.62 610.47 675.45 C 603.00 678.18 594.38 678.31 587.11 674.87 C 582.03 672.49 578.00 667.95 576.37 662.57 C 574.06 654.93 574.66 646.85 574.42 638.98 C 574.05 625.30 573.85 611.63 573.83 597.95 C 570.22 597.99 566.32 598.73 563.00 596.93 C 559.66 595.10 556.60 591.92 556.25 587.97 C 556.08 585.35 558.27 583.13 560.80 582.88 C 565.15 582.29 569.57 582.49 573.95 582.24 C 574.08 578.53 573.75 574.78 574.42 571.13 Z" />
<path fill="#000000" opacity="1.00" d=" M 630.42 571.12 C 630.98 568.71 633.67 567.56 635.96 567.76 C 640.24 568.20 644.39 570.55 646.80 574.14 C 648.38 576.46 647.94 579.40 648.07 582.06 C 653.92 582.36 660.89 582.09 665.08 586.98 C 668.12 590.11 667.67 596.63 662.93 597.81 C 657.92 598.26 652.87 597.32 647.84 597.49 C 648.04 619.28 647.66 641.15 649.53 662.87 C 653.55 661.96 657.72 659.43 661.87 661.17 C 665.43 662.53 668.76 665.31 669.82 669.07 C 670.67 671.67 669.04 674.62 666.48 675.45 C 659.01 678.17 650.42 678.31 643.16 674.89 C 638.03 672.51 633.97 667.92 632.35 662.50 C 630.07 654.89 630.66 646.87 630.42 639.04 C 630.06 625.35 629.84 611.65 629.83 597.95 C 626.24 597.99 622.37 598.72 619.06 596.96 C 615.67 595.12 612.60 591.91 612.23 587.91 C 612.12 585.35 614.21 583.19 616.69 582.90 C 621.07 582.27 625.53 582.50 629.95 582.24 C 630.07 578.53 629.75 574.78 630.42 571.12 Z" />
<path fill="#000000" opacity="1.00" d=" M 536.43 585.52 C 542.73 582.26 552.39 587.52 552.13 594.97 C 553.60 620.30 551.95 645.70 553.37 671.03 C 553.94 674.41 551.52 677.90 547.97 677.94 C 542.33 678.13 535.52 674.30 535.43 668.06 C 533.98 642.72 535.69 617.31 534.16 591.98 C 533.96 589.65 534.26 586.88 536.43 585.52 Z" />
<path fill="#000000" opacity="1.00" d=" M 709.72 598.69 C 714.55 590.98 722.83 585.19 732.05 584.57 C 741.54 584.01 750.93 589.09 756.14 596.96 C 761.70 605.20 763.47 615.30 764.38 625.02 C 764.49 627.75 765.18 630.94 763.27 633.24 C 761.74 635.06 759.19 635.28 756.99 635.51 C 744.15 636.48 731.26 637.24 718.39 636.35 C 718.61 644.25 719.26 652.62 723.44 659.54 C 725.34 662.77 729.40 663.94 732.90 662.94 C 738.63 661.42 744.13 657.04 745.24 650.97 C 745.49 648.06 748.03 645.89 750.95 646.11 C 757.14 646.43 764.66 651.78 762.80 658.73 C 760.10 670.26 748.32 677.61 737.05 678.63 C 725.43 679.45 713.87 673.15 707.71 663.35 C 700.81 652.53 699.22 639.08 700.61 626.53 C 701.85 616.81 704.50 607.07 709.72 598.69 M 732.74 601.79 C 726.07 606.13 722.61 613.80 720.37 621.15 C 729.06 621.38 737.74 620.98 746.41 620.38 C 745.73 613.96 745.54 606.88 741.43 601.55 C 739.28 598.73 735.24 600.32 732.74 601.79 Z" />
<path fill="#000000" opacity="1.00" d=" M 436.46 612.38 C 437.30 609.02 440.44 606.34 444.00 606.68 C 449.88 607.34 454.94 611.96 456.68 617.53 C 467.77 649.51 475.88 682.40 484.36 715.14 C 487.62 715.34 491.19 715.05 494.03 716.97 C 498.18 719.72 501.46 724.07 502.39 729.02 C 502.96 731.70 501.57 734.90 498.80 735.69 C 495.87 736.50 492.79 735.97 489.81 735.95 C 498.62 769.53 507.72 803.07 515.15 837.00 C 516.26 842.37 510.01 845.72 505.42 844.44 C 499.15 843.09 495.09 837.02 494.14 830.98 C 486.94 798.91 478.46 767.15 470.07 735.37 C 454.57 735.08 439.06 735.12 423.56 735.41 C 418.94 751.95 414.44 768.52 410.38 785.20 C 405.61 804.05 400.93 822.99 394.08 841.22 C 393.08 844.49 389.21 845.96 386.10 844.99 C 380.82 843.56 376.41 839.20 374.84 833.97 C 373.41 829.51 376.20 825.28 377.16 821.04 C 384.86 792.76 392.48 764.47 400.36 736.24 C 392.91 736.40 386.88 729.87 385.55 722.93 C 384.83 719.67 386.98 716.06 390.38 715.59 C 395.62 714.84 400.95 715.16 406.23 714.87 C 415.76 680.55 425.49 646.27 436.46 612.38 M 447.69 651.18 C 441.32 672.19 435.28 693.30 429.37 714.44 C 441.12 714.34 452.87 714.38 464.63 714.60 C 459.14 693.42 453.78 672.20 447.69 651.18 Z" />
<path fill="#000000" opacity="1.00" d=" M 809.43 656.52 C 817.19 652.98 827.10 660.57 826.94 668.87 C 828.49 720.91 826.88 773.00 829.06 825.03 C 829.09 828.22 829.73 831.56 828.61 834.65 C 827.54 837.66 823.98 839.05 821.00 838.49 C 814.56 837.41 808.47 831.89 808.56 825.03 C 806.17 771.39 807.86 717.67 806.28 664.01 C 806.18 661.24 806.88 658.04 809.43 656.52 Z" />
<path fill="#000000" opacity="1.00" d=" M 684.40 702.17 C 684.62 698.86 687.74 696.35 691.00 696.54 C 697.93 696.99 704.83 702.71 704.97 709.97 C 708.08 752.93 711.23 796.27 706.09 839.21 C 704.37 852.60 700.95 866.45 692.15 877.06 C 682.34 888.98 666.27 895.25 650.98 893.49 C 640.62 892.33 630.66 887.20 624.19 878.95 C 621.65 875.81 619.64 871.37 621.49 867.42 C 623.13 863.81 627.73 862.44 631.33 863.64 C 636.94 865.11 639.03 871.85 644.81 873.11 C 654.72 875.58 664.59 870.20 671.91 863.90 C 679.12 857.90 682.84 848.85 684.46 839.82 C 686.31 829.93 686.54 819.86 687.13 809.85 C 682.83 818.71 677.57 827.57 669.48 833.48 C 662.18 838.81 652.58 841.25 643.70 839.10 C 635.30 837.26 627.98 831.66 623.47 824.41 C 618.69 817.10 617.10 808.34 615.48 799.91 C 612.01 779.49 612.29 758.15 618.29 738.22 C 621.23 728.89 625.31 719.41 632.85 712.85 C 641.76 704.92 654.73 701.22 666.32 704.73 C 673.32 706.65 679.25 711.23 684.03 716.57 C 684.24 711.77 683.99 706.95 684.40 702.17 M 660.41 724.53 C 651.17 725.99 644.58 733.85 641.07 742.03 C 634.01 758.31 633.94 776.50 634.69 793.92 C 635.30 801.59 635.59 809.70 639.27 816.64 C 641.51 821.11 647.72 820.76 651.34 818.27 C 658.62 813.47 663.20 805.66 667.07 798.05 C 673.49 784.38 677.69 769.67 679.97 754.77 C 678.91 746.14 676.83 737.31 672.25 729.82 C 669.90 725.72 665.12 723.15 660.41 724.53 Z" />
<path fill="#000000" opacity="1.00" d=" M 522.73 701.65 C 525.07 699.58 528.54 699.75 531.31 700.81 C 536.39 702.70 541.00 707.28 541.14 712.98 C 541.51 719.12 541.68 725.27 541.76 731.42 C 545.57 721.11 550.59 710.32 559.96 703.95 C 566.25 699.61 574.95 699.37 581.39 703.55 C 591.71 709.96 596.77 721.86 599.68 733.18 C 604.42 752.05 604.14 771.67 604.51 791.00 C 604.54 805.34 604.03 819.68 603.96 834.03 C 603.94 836.35 603.72 839.12 601.61 840.57 C 598.94 842.42 595.45 841.49 592.78 840.17 C 587.54 837.51 582.95 832.24 583.26 826.06 C 583.50 793.69 585.99 760.82 578.86 728.94 C 578.27 726.78 577.59 724.47 575.84 722.96 C 572.76 722.85 570.53 725.59 568.71 727.74 C 562.77 735.81 560.29 745.74 557.32 755.16 C 549.60 779.75 545.45 805.37 543.99 831.08 C 544.05 835.44 540.72 840.22 536.04 840.20 C 529.25 839.86 522.39 834.31 522.17 827.21 C 520.27 787.82 522.51 748.35 520.51 708.96 C 520.38 706.39 520.66 703.45 522.73 701.65 Z" />
<path fill="#000000" opacity="1.00" d=" M 737.63 710.48 C 743.77 703.79 752.85 699.11 762.11 700.36 C 772.43 701.75 781.07 709.10 786.02 718.01 C 792.81 730.19 794.99 744.29 796.15 758.02 C 796.32 761.98 797.09 766.01 796.29 769.95 C 795.60 773.27 792.20 774.96 789.07 775.09 C 772.63 776.69 756.05 777.95 739.56 776.41 C 739.47 787.18 740.32 798.09 743.48 808.44 C 744.78 812.38 746.43 816.56 749.89 819.11 C 753.16 821.45 757.63 820.74 761.02 819.02 C 766.75 816.03 771.40 810.77 773.38 804.59 C 774.39 801.59 773.84 797.70 776.61 795.58 C 779.64 793.37 783.68 794.60 786.64 796.30 C 791.38 799.06 795.49 804.25 794.73 810.03 C 793.09 824.46 781.54 836.85 767.62 840.45 C 757.58 843.05 746.78 839.46 739.04 832.89 C 729.60 824.94 724.22 813.23 721.40 801.44 C 716.69 781.59 717.87 760.64 722.88 740.96 C 725.82 730.04 729.77 718.89 737.63 710.48 M 754.62 726.63 C 747.43 734.89 743.86 745.60 741.65 756.16 C 753.02 756.62 764.40 755.94 775.73 754.95 C 775.20 746.47 774.75 737.85 772.13 729.71 C 771.00 726.57 769.64 723.21 766.84 721.20 C 762.10 720.06 757.69 723.36 754.62 726.63 Z" />
</g>
</svg>
