<?xml version="1.0" encoding="UTF-8" ?>
<!DOCTYPE svg PUBLIC "-//W3C//DTD SVG 1.1//EN" "http://www.w3.org/Graphics/SVG/1.1/DTD/svg11.dtd">
<svg width="1200pt" height="1200pt" viewBox="0 0 1200 1200" version="1.1" xmlns="http://www.w3.org/2000/svg">
<g id="#000000ff">
<path fill="#000000" opacity="1.00" d=" M 791.72 221.81 C 811.01 215.96 830.89 211.99 850.98 210.24 C 889.13 206.87 927.95 216.10 961.40 234.48 C 988.57 249.46 1012.04 271.06 1029.31 296.83 C 1046.06 321.68 1057.10 350.03 1063.87 379.12 C 1075.24 428.63 1077.98 480.40 1069.42 530.58 C 1063.56 565.76 1052.03 599.97 1035.62 631.63 C 1012.33 676.51 978.33 715.61 937.85 745.82 C 923.79 756.16 909.15 765.70 895.24 776.25 C 863.77 799.52 833.67 824.55 803.52 849.47 C 774.89 873.85 746.00 897.93 717.82 922.84 C 692.61 944.58 667.78 966.74 642.97 988.93 C 639.97 991.56 637.10 994.69 633.14 995.83 C 626.94 997.81 619.61 995.60 615.72 990.35 C 608.61 979.32 597.94 971.32 588.17 962.81 C 546.84 929.29 503.14 898.85 459.59 868.34 C 411.86 835.05 363.95 802.05 316.26 768.72 C 304.91 760.90 293.70 752.83 283.37 743.69 C 258.80 722.19 238.07 696.40 221.90 668.06 C 203.66 635.74 190.63 600.52 183.44 564.11 C 177.81 536.13 175.03 507.56 175.54 479.01 C 176.22 445.28 180.29 411.39 190.17 379.04 C 199.73 346.63 215.98 315.87 239.24 291.20 C 260.07 268.67 285.11 249.92 313.00 237.04 C 346.46 221.46 383.11 212.60 420.05 212.03 C 446.98 211.46 474.01 214.92 499.96 222.16 C 531.66 231.13 560.30 249.33 583.39 272.65 C 604.72 294.22 621.83 319.76 634.99 347.03 C 653.02 316.02 676.76 288.19 705.25 266.32 C 731.13 246.52 760.50 231.20 791.72 221.81 M 850.61 240.89 C 796.96 246.57 744.77 269.28 705.60 306.65 C 680.83 329.96 661.52 358.70 647.60 389.65 C 645.91 393.40 642.81 396.53 638.94 398.00 C 633.18 400.35 626.11 398.70 621.97 394.06 C 618.46 390.25 617.70 384.93 615.79 380.30 C 605.04 351.96 589.49 325.32 569.36 302.62 C 549.58 280.23 524.38 262.14 495.74 253.11 C 438.72 235.91 375.10 240.06 321.59 266.60 C 290.25 281.90 262.60 305.25 243.57 334.59 C 224.56 363.63 214.88 397.82 210.18 431.94 C 203.10 482.04 206.16 533.56 219.50 582.38 C 228.58 616.26 243.58 648.56 263.72 677.28 C 280.42 701.19 301.40 722.03 325.30 738.72 C 362.38 764.61 399.33 790.69 436.54 816.38 C 482.78 848.69 529.35 880.57 574.44 914.48 C 593.35 928.83 612.24 943.34 629.30 959.88 C 633.42 957.56 636.73 953.50 640.49 950.46 C 698.47 899.04 757.04 848.25 817.03 799.19 C 845.80 776.06 874.67 752.99 905.22 732.21 C 933.92 712.99 959.77 689.36 980.90 662.00 C 1003.69 632.59 1020.88 598.88 1031.33 563.18 C 1046.02 514.02 1047.38 461.55 1039.21 411.10 C 1034.57 382.63 1027.11 354.23 1013.26 328.76 C 998.99 301.75 977.58 278.36 951.16 262.87 C 921.08 245.30 885.37 236.56 850.61 240.89 Z" />
<path fill="#000000" opacity="1.00" d=" M 324.35 300.32 C 342.92 288.92 366.00 286.55 387.02 291.33 C 396.14 292.93 404.90 296.92 411.55 303.44 C 422.76 314.13 427.49 329.90 428.10 345.03 C 428.80 364.54 423.65 383.73 416.89 401.87 C 405.60 431.11 388.68 458.29 366.87 480.85 C 352.48 495.51 335.62 508.24 316.26 515.51 C 318.17 558.45 318.36 601.90 328.19 643.98 C 331.99 658.92 336.76 674.24 346.66 686.37 C 353.00 694.25 363.36 699.56 373.60 697.42 C 381.30 695.01 386.35 688.07 390.54 681.59 C 400.14 665.66 405.94 647.81 411.16 630.06 C 414.01 619.49 417.12 608.89 418.89 598.09 C 413.99 577.19 413.94 554.67 421.63 534.42 C 426.43 521.76 435.32 510.17 447.81 504.38 C 451.01 490.84 458.00 477.67 469.54 469.48 C 482.72 459.98 500.24 457.73 515.85 461.37 C 528.53 464.21 539.64 472.36 547.08 482.90 C 557.45 497.38 562.05 515.10 564.24 532.54 C 567.45 561.04 563.95 590.19 554.93 617.37 C 569.41 616.08 582.92 608.01 591.32 596.20 C 595.77 589.82 599.58 582.73 601.44 575.16 C 595.84 549.49 593.07 523.25 592.44 497.00 C 592.03 488.65 592.25 479.43 597.59 472.51 C 602.73 465.65 611.81 463.31 620.02 463.48 C 627.32 463.63 635.27 466.19 639.45 472.57 C 643.55 478.57 642.58 486.14 642.91 493.01 C 643.83 520.32 643.36 547.75 646.76 574.92 C 649.26 594.96 652.98 615.15 661.18 633.73 C 665.83 643.95 672.16 654.22 682.27 659.79 C 686.83 662.88 692.50 660.18 696.70 657.69 C 706.18 651.37 712.31 641.32 717.44 631.40 C 725.34 615.39 730.89 598.20 733.87 580.60 C 708.47 556.55 692.87 523.44 686.82 489.26 C 683.62 470.61 682.89 451.14 687.76 432.71 C 690.08 424.17 693.86 415.53 700.81 409.75 C 708.79 403.14 720.55 403.39 729.68 407.36 C 740.41 412.31 747.18 422.85 751.51 433.44 C 757.74 449.18 760.26 466.11 761.51 482.91 C 763.53 513.35 761.17 543.94 756.58 574.06 C 771.57 583.66 789.81 587.56 807.48 586.64 C 806.54 566.00 808.91 545.21 814.27 525.26 C 818.68 509.18 825.62 493.36 837.05 481.00 C 845.55 471.77 856.84 465.08 869.17 462.54 C 879.09 460.31 890.06 459.95 899.29 464.81 C 907.42 469.04 912.74 477.29 915.07 485.97 C 919.48 501.96 917.12 519.01 912.34 534.63 C 903.77 561.60 882.71 585.56 855.02 593.48 C 856.87 609.58 859.09 625.85 864.79 641.11 C 868.23 650.09 873.21 659.15 881.63 664.34 C 885.65 666.66 890.22 668.58 894.94 668.46 C 905.25 666.72 914.61 661.20 922.25 654.22 C 933.82 643.62 942.25 630.09 949.04 616.06 C 958.87 595.48 965.31 573.38 969.26 550.95 C 969.84 545.60 975.92 542.13 980.90 543.96 C 985.06 545.07 987.37 549.82 986.33 553.89 C 982.49 577.25 977.34 600.54 968.62 622.61 C 961.96 639.24 953.09 655.41 940.02 667.89 C 930.03 677.47 917.21 684.14 903.49 686.24 C 887.71 689.18 871.35 684.43 858.02 675.94 C 832.97 659.80 817.22 632.23 810.26 603.76 C 790.79 606.36 771.32 600.98 753.18 594.32 C 749.51 612.60 744.62 630.96 735.22 647.22 C 728.54 658.79 719.03 669.19 706.70 674.77 C 694.90 679.96 681.13 681.67 668.79 677.38 C 653.99 672.52 641.97 661.61 632.77 649.33 C 622.02 634.98 614.50 618.47 608.80 601.54 C 595.77 622.19 571.99 635.92 547.37 635.17 C 540.40 648.73 530.64 662.69 515.48 667.61 C 501.77 671.17 487.01 669.76 473.73 665.07 C 455.61 658.51 440.94 644.52 431.21 628.12 C 426.46 647.44 420.76 666.74 411.40 684.38 C 405.28 695.59 397.35 706.71 385.59 712.47 C 376.10 717.13 365.07 716.21 355.05 714.00 C 340.05 710.68 326.82 701.73 316.53 690.53 C 303.95 676.78 294.98 660.16 287.96 643.01 C 275.97 613.26 269.31 581.65 264.97 549.96 C 261.37 522.80 259.71 495.39 259.87 468.01 C 259.93 430.42 264.94 392.29 279.32 357.35 C 288.78 334.84 303.05 313.15 324.35 300.32 M 355.78 326.71 C 346.70 335.71 340.81 347.34 336.17 359.11 C 328.23 379.75 324.13 401.64 321.28 423.50 C 318.27 447.52 316.97 471.75 317.02 495.96 C 324.28 492.59 331.18 488.46 337.56 483.63 C 361.16 465.67 378.66 440.70 390.94 413.93 C 399.62 394.45 406.49 373.59 406.30 352.04 C 406.18 342.14 405.13 331.73 399.87 323.09 C 396.99 318.25 391.76 314.69 385.99 314.80 C 374.74 313.90 363.61 318.75 355.78 326.71 M 708.18 431.09 C 704.69 438.85 704.53 447.59 704.49 455.96 C 704.98 477.25 709.37 498.36 716.39 518.43 C 721.62 532.86 728.17 547.14 738.28 558.85 C 740.63 533.64 741.57 508.24 739.80 482.96 C 738.48 467.57 736.83 451.81 730.49 437.55 C 727.85 431.97 723.79 425.50 717.01 424.96 C 712.91 424.32 709.65 427.61 708.18 431.09 M 489.14 477.24 C 479.61 480.56 473.05 489.11 469.35 498.17 C 474.93 497.86 480.48 498.65 486.04 499.01 C 490.33 499.24 494.60 501.56 496.62 505.45 C 498.61 509.09 498.28 514.13 495.10 517.01 C 492.39 519.69 488.17 519.12 485.06 521.09 C 479.86 524.13 476.07 529.07 473.20 534.28 C 468.71 542.69 466.15 552.28 466.45 561.82 C 477.82 589.91 505.49 609.62 534.96 614.71 C 540.72 596.39 543.10 577.14 543.39 557.99 C 543.45 540.96 541.96 523.65 536.32 507.47 C 532.84 497.72 527.68 488.06 519.22 481.74 C 510.77 475.34 499.09 473.90 489.14 477.24 M 879.41 476.61 C 873.36 479.11 869.22 484.59 866.17 490.17 C 860.87 500.10 858.03 511.13 856.12 522.15 C 853.12 540.22 852.45 558.66 853.80 576.92 C 865.62 572.06 875.52 563.34 883.08 553.15 C 893.86 538.40 899.77 520.21 900.00 501.97 C 899.61 494.65 898.66 486.86 894.24 480.76 C 890.98 476.24 884.54 474.31 879.41 476.61 M 470.12 605.37 C 474.19 617.22 480.64 628.58 490.29 636.76 C 496.50 641.94 504.63 646.00 512.91 644.57 C 519.27 642.80 523.42 637.15 526.78 631.84 C 506.15 627.77 486.03 619.34 470.12 605.37 Z" />
</g>
</svg>
