<?xml version="1.0" encoding="UTF-8" ?>
<!DOCTYPE svg PUBLIC "-//W3C//DTD SVG 1.1//EN" "http://www.w3.org/Graphics/SVG/1.1/DTD/svg11.dtd">
<svg width="1250pt" height="1250pt" viewBox="0 0 1250 1250" version="1.1" xmlns="http://www.w3.org/2000/svg">
<g id="#000000ff">
<path fill="#000000" opacity="1.00" d=" M 151.07 232.01 C 155.12 231.68 159.19 231.70 163.26 231.82 C 163.47 369.89 163.29 507.95 163.35 646.02 C 163.31 730.47 163.43 814.93 163.29 899.39 C 159.21 899.56 155.11 899.58 151.04 899.23 C 150.94 783.81 151.03 668.39 151.00 552.97 C 151.04 445.98 150.90 339.00 151.07 232.01 Z" />
<path fill="#000000" opacity="1.00" d=" M 172.28 231.91 C 175.99 231.71 179.70 231.72 183.41 231.81 C 183.72 364.20 183.45 496.60 183.54 629.00 C 183.54 715.67 183.53 802.34 183.55 889.01 C 183.40 892.44 184.01 895.98 183.10 899.33 C 179.49 899.70 175.87 899.51 172.26 899.31 C 172.22 676.84 172.17 454.38 172.28 231.91 Z" />
<path fill="#000000" opacity="1.00" d=" M 212.38 241.98 C 212.70 238.74 211.59 234.84 213.01 231.98 C 220.38 231.43 227.80 231.85 235.19 231.82 C 235.38 359.56 235.22 487.30 235.27 615.04 C 235.23 709.83 235.36 804.62 235.21 899.41 C 227.74 899.47 220.25 899.72 212.79 899.33 C 212.49 898.24 212.35 897.14 212.36 896.02 C 212.41 678.01 212.37 460.00 212.38 241.98 Z" />
<path fill="#000000" opacity="1.00" d=" M 242.80 231.88 C 246.67 231.71 250.55 231.73 254.43 231.78 C 254.80 297.18 254.48 362.60 254.59 428.00 C 254.60 584.01 254.56 740.03 254.61 896.03 C 254.65 897.17 254.49 898.27 254.10 899.35 C 250.34 899.70 246.55 899.50 242.78 899.33 C 242.72 676.85 242.68 454.36 242.80 231.88 Z" />
<path fill="#000000" opacity="1.00" d=" M 273.35 238.97 C 273.61 236.70 272.72 233.86 274.00 231.94 C 281.45 231.46 288.95 231.87 296.42 231.78 C 296.78 287.85 296.47 343.93 296.58 400.00 C 296.58 561.65 296.58 723.30 296.58 884.96 C 296.57 889.79 296.67 894.63 296.41 899.47 C 288.88 899.41 281.35 899.72 273.83 899.35 C 272.90 896.01 273.51 892.47 273.37 889.05 C 273.36 672.36 273.40 455.66 273.35 238.97 Z" />
<path fill="#000000" opacity="1.00" d=" M 313.80 231.87 C 317.52 231.71 321.24 231.72 324.96 231.83 C 325.24 349.88 325.00 467.93 325.08 585.99 C 325.07 690.44 325.11 794.89 325.06 899.34 C 321.30 899.55 317.54 899.55 313.78 899.35 C 313.67 785.90 313.76 672.44 313.73 558.99 C 313.78 449.95 313.65 340.91 313.80 231.87 Z" />
<path fill="#000000" opacity="1.00" d=" M 344.03 231.84 C 347.91 231.70 351.80 231.70 355.69 231.94 C 355.82 454.38 355.74 676.83 355.73 899.27 C 351.80 899.58 347.86 899.57 343.93 899.33 C 343.88 788.23 343.92 677.14 343.91 566.04 C 343.99 454.64 343.74 343.24 344.03 231.84 Z" />
<path fill="#000000" opacity="1.00" d=" M 374.34 234.99 C 374.53 233.93 373.95 231.45 375.85 231.82 C 382.69 231.61 389.55 231.80 396.40 231.78 C 396.74 286.83 396.45 341.90 396.55 396.95 C 396.55 559.62 396.54 722.29 396.55 884.96 C 396.54 889.79 396.64 894.63 396.38 899.47 C 389.20 899.41 382.01 899.73 374.85 899.35 C 373.83 896.03 374.53 892.44 374.35 889.02 C 374.35 671.01 374.37 453.00 374.34 234.99 Z" />
<path fill="#000000" opacity="1.00" d=" M 404.27 231.89 C 418.25 231.62 432.23 231.74 446.21 231.82 C 446.41 447.52 446.24 663.23 446.30 878.94 C 446.27 885.76 446.36 892.58 446.23 899.41 C 432.24 899.51 418.23 899.67 404.24 899.33 C 404.22 676.85 404.16 454.37 404.27 231.89 Z" />
<path fill="#000000" opacity="1.00" d=" M 455.24 231.91 C 459.05 231.69 462.88 231.69 466.70 231.92 C 466.83 454.37 466.75 676.83 466.74 899.29 C 462.90 899.58 459.04 899.58 455.21 899.30 C 455.14 682.85 455.20 466.39 455.18 249.94 C 455.20 243.93 455.12 237.92 455.24 231.91 Z" />
<path fill="#000000" opacity="1.00" d=" M 475.29 231.94 C 479.16 231.70 483.05 231.69 486.93 231.84 C 487.22 338.88 486.97 445.94 487.05 552.98 C 487.04 668.43 487.09 783.88 487.03 899.33 C 483.10 899.57 479.17 899.58 475.25 899.26 C 475.26 676.82 475.17 454.38 475.29 231.94 Z" />
<path fill="#000000" opacity="1.00" d=" M 516.08 231.85 C 523.52 231.67 530.96 231.73 538.40 231.81 C 538.61 445.86 538.43 659.92 538.49 873.97 C 538.45 882.46 538.60 890.95 538.40 899.44 C 530.95 899.49 523.49 899.64 516.04 899.34 C 515.91 687.54 516.02 475.74 515.98 263.94 C 516.03 253.25 515.87 242.55 516.08 231.85 Z" />
<path fill="#000000" opacity="1.00" d=" M 546.24 231.87 C 553.54 231.66 560.84 231.71 568.15 231.84 C 568.26 454.36 568.22 676.87 568.16 899.39 C 560.84 899.54 553.51 899.64 546.20 899.33 C 546.12 687.56 546.19 475.79 546.16 264.02 C 546.20 253.30 546.08 242.58 546.24 231.87 Z" />
<path fill="#000000" opacity="1.00" d=" M 596.76 231.84 C 600.62 231.72 604.49 231.73 608.36 231.81 C 608.71 282.86 608.41 333.92 608.51 384.97 C 608.51 552.99 608.50 721.00 608.51 889.02 C 608.42 892.43 608.85 895.92 608.13 899.30 C 604.34 899.71 600.52 899.50 596.73 899.36 C 596.59 702.93 596.71 506.49 596.67 310.06 C 596.73 283.99 596.56 257.91 596.76 231.84 Z" />
<path fill="#000000" opacity="1.00" d=" M 617.04 231.86 C 620.92 231.70 624.82 231.70 628.71 231.93 C 628.83 454.38 628.75 676.82 628.75 899.27 C 624.82 899.58 620.88 899.57 616.96 899.33 C 616.89 703.56 616.95 507.78 616.93 312.01 C 617.00 285.29 616.78 258.57 617.04 231.86 Z" />
<path fill="#000000" opacity="1.00" d=" M 637.29 231.90 C 641.10 231.70 644.92 231.70 648.74 231.91 C 648.87 454.37 648.78 676.83 648.79 899.29 C 644.94 899.58 641.08 899.58 637.24 899.29 C 637.19 694.86 637.23 490.43 637.22 286.00 C 637.26 267.96 637.12 249.93 637.29 231.90 Z" />
<path fill="#000000" opacity="1.00" d=" M 657.50 259.97 C 657.56 250.58 657.34 241.20 657.63 231.82 C 661.35 231.73 665.08 231.71 668.81 231.88 C 668.94 454.36 668.88 676.84 668.84 899.33 C 665.16 899.51 661.47 899.71 657.81 899.29 C 657.05 887.24 657.72 875.11 657.50 863.03 C 657.50 662.01 657.50 460.99 657.50 259.97 Z" />
<path fill="#000000" opacity="1.00" d=" M 677.81 231.86 C 681.53 231.71 685.25 231.72 688.98 231.85 C 689.23 337.87 689.01 443.91 689.09 549.93 C 689.07 666.40 689.12 782.87 689.06 899.34 C 685.30 899.55 681.54 899.55 677.78 899.34 C 677.69 709.55 677.77 519.76 677.74 329.97 C 677.79 297.27 677.65 264.56 677.81 231.86 Z" />
<path fill="#000000" opacity="1.00" d=" M 728.09 231.89 C 731.97 231.70 735.86 231.70 739.76 231.88 C 739.90 454.36 739.82 676.84 739.80 899.32 C 735.88 899.57 731.95 899.57 728.04 899.29 C 727.93 730.19 728.02 561.10 727.99 392.00 C 728.05 338.63 727.87 285.26 728.09 231.89 Z" />
<path fill="#000000" opacity="1.00" d=" M 768.82 231.85 C 772.52 231.72 776.23 231.72 779.94 231.85 C 780.23 337.22 779.98 442.60 780.06 547.98 C 780.05 665.10 780.09 782.21 780.04 899.33 C 776.29 899.56 772.53 899.54 768.78 899.36 C 768.68 741.58 768.77 583.81 768.74 426.03 C 768.79 361.30 768.64 296.57 768.82 231.85 Z" />
<path fill="#000000" opacity="1.00" d=" M 799.26 231.93 C 802.90 231.71 806.57 231.72 810.23 231.82 C 810.43 407.54 810.26 583.26 810.31 758.98 C 810.28 805.78 810.38 852.58 810.26 899.38 C 806.58 899.54 802.90 899.56 799.23 899.30 C 799.20 676.85 799.15 454.39 799.26 231.93 Z" />
<path fill="#000000" opacity="1.00" d=" M 829.40 321.95 C 829.50 291.90 829.20 261.84 829.55 231.79 C 833.33 231.73 837.12 231.71 840.91 231.88 C 841.13 402.93 840.94 573.99 841.00 745.04 C 840.98 796.46 841.06 847.87 840.96 899.28 C 837.27 899.51 833.56 899.71 829.88 899.35 C 828.92 896.33 829.53 893.08 829.39 889.98 C 829.42 700.63 829.40 511.29 829.40 321.95 Z" />
<path fill="#000000" opacity="1.00" d=" M 869.79 231.85 C 880.32 231.65 890.87 231.75 901.41 231.79 C 901.77 275.53 901.46 319.27 901.56 363.01 C 901.57 538.36 901.56 713.72 901.57 889.07 C 901.43 892.48 902.02 896.00 901.12 899.34 C 890.67 899.66 880.21 899.55 869.76 899.36 C 869.63 777.92 869.74 656.48 869.71 535.04 C 869.76 433.98 869.60 332.91 869.79 231.85 Z" />
<path fill="#000000" opacity="1.00" d=" M 910.29 231.93 C 914.11 231.69 917.94 231.68 921.76 231.91 C 921.87 454.38 921.83 676.85 921.79 899.32 C 917.94 899.57 914.09 899.57 910.26 899.29 C 910.25 676.83 910.18 454.38 910.29 231.93 Z" />
<path fill="#000000" opacity="1.00" d=" M 940.77 231.84 C 951.25 231.69 961.73 231.69 972.21 231.84 C 972.41 369.56 972.24 507.28 972.30 645.01 C 972.26 729.80 972.37 814.59 972.24 899.37 C 961.74 899.58 951.23 899.59 940.74 899.36 C 940.62 783.59 940.72 667.81 940.69 552.03 C 940.74 445.30 940.57 338.57 940.77 231.84 Z" />
<path fill="#000000" opacity="1.00" d=" M 991.07 231.85 C 994.97 231.71 998.89 231.70 1002.81 231.87 C 1002.95 454.36 1002.88 676.84 1002.84 899.33 C 998.88 899.56 994.91 899.57 990.96 899.33 C 990.90 722.88 990.95 546.43 990.94 369.98 C 991.02 323.94 990.77 277.89 991.07 231.85 Z" />
<path fill="#000000" opacity="1.00" d=" M 1011.42 363.06 C 1011.50 319.30 1011.24 275.55 1011.55 231.80 C 1015.33 231.73 1019.12 231.71 1022.91 231.88 C 1023.15 352.26 1022.94 472.64 1023.01 593.01 C 1022.98 695.10 1023.07 797.20 1022.96 899.29 C 1019.29 899.51 1015.59 899.71 1011.93 899.34 C 1010.74 894.73 1011.70 889.80 1011.42 885.07 C 1011.41 711.07 1011.42 537.06 1011.42 363.06 Z" />
<path fill="#000000" opacity="1.00" d=" M 1041.88 231.87 C 1052.34 231.65 1062.80 231.72 1073.26 231.83 C 1073.47 344.55 1073.29 457.27 1073.35 569.98 C 1073.31 679.78 1073.43 789.59 1073.29 899.39 C 1062.82 899.56 1052.34 899.60 1041.87 899.36 C 1041.82 676.87 1041.80 454.37 1041.88 231.87 Z" />
<path fill="#000000" opacity="1.00" d=" M 1082.49 232.14 C 1086.16 231.34 1089.96 231.81 1093.68 231.93 C 1093.83 454.37 1093.74 676.82 1093.73 899.26 C 1090.03 899.28 1085.94 900.25 1082.50 898.89 C 1082.13 846.95 1082.45 794.99 1082.34 743.04 C 1082.33 573.67 1082.36 404.31 1082.33 234.94 C 1082.37 234.24 1082.45 232.84 1082.49 232.14 Z" />
<path fill="#000000" opacity="1.00" d=" M 1102.37 241.02 C 1102.62 238.03 1101.70 234.65 1102.98 231.92 C 1106.77 231.51 1110.60 231.77 1114.41 231.91 C 1114.64 343.60 1114.44 455.30 1114.51 566.99 C 1114.50 677.73 1114.53 788.47 1114.50 899.21 C 1110.65 899.51 1106.77 899.74 1102.94 899.34 C 1102.44 898.31 1102.24 897.22 1102.36 896.06 C 1102.40 677.71 1102.39 459.36 1102.37 241.02 Z" />
<path fill="#000000" opacity="1.00" d=" M 546.39 922.57 C 554.20 920.81 562.89 921.83 569.67 926.24 C 576.57 930.73 579.96 939.11 580.29 947.10 C 580.35 948.40 579.83 950.08 578.26 950.08 C 575.22 950.69 572.08 950.96 568.98 950.84 C 566.82 950.31 567.30 947.51 566.63 945.89 C 566.00 941.80 563.41 937.80 559.23 936.69 C 555.04 935.66 550.37 935.60 546.35 937.28 C 541.59 939.32 539.68 946.06 542.88 950.18 C 545.39 952.70 549.02 953.56 552.29 954.69 C 560.44 957.24 569.59 958.73 575.84 965.09 C 586.34 975.86 583.56 995.94 570.85 1003.81 C 562.18 1009.24 550.92 1009.05 541.61 1005.42 C 530.99 1001.08 525.22 989.06 525.72 978.02 C 526.54 975.85 529.20 976.27 531.03 975.89 C 533.25 975.84 535.74 975.07 537.81 976.14 C 539.54 979.71 539.08 984.14 541.61 987.42 C 546.36 993.94 556.03 995.33 563.11 992.16 C 568.80 989.82 571.04 981.64 566.96 976.94 C 563.89 973.78 559.38 972.80 555.34 971.47 C 548.19 969.21 540.33 967.63 534.70 962.31 C 524.34 952.50 526.45 933.05 538.66 925.67 C 541.03 924.20 543.68 923.20 546.39 922.57 Z" />
<path fill="#000000" opacity="1.00" d=" M 866.28 922.35 C 874.13 920.78 882.63 922.29 889.28 926.81 C 896.34 931.42 901.04 938.97 903.42 946.95 C 906.85 958.42 906.92 970.90 903.57 982.40 C 901.13 990.84 896.17 998.93 888.45 1003.47 C 878.10 1009.94 863.83 1009.46 854.19 1001.87 C 844.87 994.89 840.54 983.21 839.21 972.00 C 838.30 962.17 839.28 952.03 842.89 942.80 C 846.87 932.84 855.45 924.23 866.28 922.35 M 869.25 936.27 C 861.92 937.68 856.23 943.98 854.45 951.08 C 852.49 958.83 852.28 967.01 853.46 974.91 C 854.66 981.84 858.38 988.78 864.75 992.21 C 870.75 995.32 878.73 994.42 883.68 989.72 C 889.77 984.30 891.82 975.83 892.08 967.98 C 892.40 959.14 891.46 949.47 885.68 942.36 C 881.83 937.51 875.35 935.02 869.25 936.27 Z" />
<path fill="#000000" opacity="1.00" d=" M 149.71 928.03 C 149.79 926.27 149.50 923.19 152.01 923.16 C 156.36 922.83 160.76 922.86 165.11 923.14 C 167.25 923.03 167.59 925.43 168.10 926.98 C 173.23 945.81 178.52 964.60 183.68 983.43 C 188.91 964.74 194.30 946.10 199.51 927.42 C 200.10 925.65 200.40 922.91 202.88 923.11 C 207.11 923.00 211.51 922.51 215.66 923.50 C 217.21 924.83 216.55 927.20 216.77 929.00 C 216.70 953.34 216.74 977.68 216.75 1002.02 C 216.60 1003.52 217.00 1005.54 215.38 1006.41 C 212.10 1007.03 208.68 1006.92 205.38 1006.53 C 203.28 1006.20 203.49 1003.65 203.42 1002.08 C 203.44 986.72 203.44 971.36 203.43 956.00 C 198.95 971.68 194.45 987.36 190.00 1003.05 C 189.47 1004.31 189.36 1006.28 187.65 1006.52 C 184.82 1006.97 181.90 1006.89 179.06 1006.61 C 177.13 1006.54 176.86 1004.35 176.36 1002.94 C 172.05 987.12 167.33 971.41 163.20 955.55 C 162.83 971.38 163.19 987.23 163.02 1003.06 C 163.06 1004.44 162.72 1006.45 160.97 1006.56 C 157.81 1006.90 154.57 1007.00 151.43 1006.48 C 149.47 1006.00 149.87 1003.55 149.72 1002.04 C 149.74 977.37 149.75 952.70 149.71 928.03 Z" />
<path fill="#000000" opacity="1.00" d=" M 242.98 926.95 C 243.63 925.49 243.81 923.04 245.92 923.15 C 249.47 922.92 253.21 922.55 256.68 923.50 C 258.89 926.32 259.30 930.22 260.65 933.52 C 268.28 956.11 275.87 978.71 283.53 1001.29 C 284.10 1002.99 285.10 1005.82 282.60 1006.47 C 279.12 1007.01 275.54 1006.87 272.04 1006.61 C 270.12 1006.66 269.66 1004.55 269.13 1003.15 C 267.03 996.43 264.91 989.73 262.78 983.02 C 254.91 983.01 247.04 983.01 239.17 983.02 C 236.68 990.67 234.94 998.59 232.00 1006.07 C 228.31 1007.33 224.18 1006.84 220.37 1006.47 C 218.03 1005.79 218.86 1003.23 219.37 1001.56 C 227.26 976.69 235.16 951.83 242.98 926.95 M 250.80 944.36 C 248.47 952.80 245.72 961.11 243.20 969.50 C 248.31 969.49 253.42 969.50 258.54 969.49 C 255.96 961.11 253.30 952.76 250.80 944.36 Z" />
<path fill="#000000" opacity="1.00" d=" M 287.34 923.51 C 291.06 922.44 295.09 923.18 298.94 923.00 C 307.25 923.25 315.76 922.19 323.88 924.41 C 332.24 926.72 338.17 934.05 341.19 941.88 C 345.52 953.68 345.92 966.74 343.55 979.01 C 341.57 988.69 336.99 999.02 327.67 1003.62 C 317.13 1008.55 305.21 1006.16 294.00 1006.78 C 291.45 1006.47 286.43 1007.90 286.34 1003.99 C 286.12 978.65 286.34 953.29 286.23 927.95 C 286.42 926.48 285.95 924.49 287.34 923.51 M 299.86 937.27 C 299.86 955.67 299.86 974.08 299.86 992.49 C 306.45 992.27 313.21 993.18 319.66 991.49 C 325.68 989.72 328.42 983.37 329.78 977.78 C 331.45 969.81 331.46 961.50 330.27 953.46 C 329.16 947.58 326.35 941.19 320.69 938.47 C 313.95 936.41 306.79 937.56 299.86 937.27 Z" />
<path fill="#000000" opacity="1.00" d=" M 352.24 925.97 C 351.96 923.82 354.10 922.75 355.95 923.02 C 370.33 922.94 384.72 923.04 399.10 922.98 C 400.68 923.10 402.66 922.78 403.78 924.20 C 404.43 928.03 404.41 932.03 403.83 935.87 C 402.92 937.65 400.67 937.08 399.05 937.29 C 387.96 937.25 376.87 937.27 365.78 937.26 C 365.78 943.67 365.78 950.08 365.78 956.49 C 376.19 956.52 386.60 956.48 397.01 956.49 C 398.55 956.60 401.16 956.27 401.49 958.37 C 401.90 961.99 402.00 965.74 401.39 969.36 C 400.57 971.01 398.50 970.61 397.00 970.78 C 386.60 970.77 376.19 970.75 365.78 970.77 C 365.78 978.00 365.78 985.25 365.78 992.49 C 377.52 992.52 389.27 992.48 401.02 992.49 C 402.55 992.61 405.14 992.32 405.45 994.41 C 405.77 998.24 406.19 1002.30 405.04 1006.04 C 402.82 1007.02 400.32 1006.70 397.97 1006.78 C 383.65 1006.63 369.32 1006.91 355.01 1006.66 C 352.35 1006.88 352.00 1003.96 352.16 1001.99 C 352.24 976.65 352.06 951.30 352.24 925.97 Z" />
<path fill="#000000" opacity="1.00" d=" M 440.28 923.56 C 443.69 922.49 447.49 922.90 451.02 923.25 C 453.14 923.75 452.68 926.36 452.83 928.00 C 452.72 953.33 452.96 978.66 452.72 1003.98 C 452.89 1007.10 449.09 1006.76 446.99 1006.82 C 444.58 1006.51 441.34 1007.55 439.58 1005.45 C 438.90 1002.67 439.25 999.77 439.19 996.96 C 439.22 973.96 439.22 950.96 439.18 927.96 C 439.36 926.50 438.92 924.54 440.28 923.56 Z" />
<path fill="#000000" opacity="1.00" d=" M 463.00 925.89 C 462.76 922.55 466.77 923.00 468.98 922.93 C 471.57 923.21 475.42 922.02 476.79 925.01 C 486.53 942.51 496.14 960.09 505.84 977.62 C 505.83 961.07 505.86 944.53 505.82 927.98 C 505.92 926.25 505.57 923.42 507.95 923.20 C 511.16 922.84 514.49 922.68 517.67 923.37 C 519.46 924.12 518.91 926.43 519.13 927.98 C 519.00 953.34 519.28 978.71 518.99 1004.06 C 519.24 1006.92 515.94 1006.82 513.99 1006.82 C 510.81 1006.57 506.19 1007.93 504.80 1004.05 C 495.26 986.74 485.72 969.44 476.18 952.14 C 476.16 968.78 476.17 985.42 476.19 1002.07 C 476.04 1003.54 476.39 1005.91 474.56 1006.48 C 471.21 1007.00 467.73 1007.00 464.38 1006.47 C 462.57 1005.83 463.13 1003.50 462.90 1002.03 C 462.98 976.65 462.77 951.26 463.00 925.89 Z" />
<path fill="#000000" opacity="1.00" d=" M 592.16 923.29 C 595.84 923.12 600.57 921.87 603.67 924.25 C 604.60 932.78 603.80 941.44 604.06 950.03 C 604.06 967.34 604.06 984.66 604.07 1001.98 C 603.79 1003.45 604.44 1005.76 602.66 1006.46 C 599.01 1007.01 595.22 1007.00 591.59 1006.43 C 590.30 1005.34 590.51 1003.54 590.43 1002.06 C 590.48 977.03 590.43 952.00 590.46 926.97 C 590.52 925.67 590.51 923.56 592.16 923.29 Z" />
<path fill="#000000" opacity="1.00" d=" M 615.31 923.53 C 618.05 922.53 621.12 923.12 624.00 922.98 C 632.47 923.25 641.04 922.37 649.44 923.81 C 657.00 925.07 663.27 930.44 666.89 937.04 C 672.67 947.66 673.58 960.24 672.61 972.09 C 671.53 981.95 668.74 992.30 661.52 999.50 C 655.37 1005.59 646.25 1006.95 637.95 1006.78 C 630.74 1006.61 623.50 1007.05 616.30 1006.59 C 614.08 1006.34 614.29 1003.67 614.24 1002.05 C 614.25 977.37 614.27 952.69 614.23 928.01 C 614.42 926.53 613.93 924.55 615.31 923.53 M 627.86 937.27 C 627.86 955.67 627.86 974.08 627.86 992.49 C 633.22 992.42 638.60 992.74 643.95 992.24 C 647.80 991.94 651.68 990.20 653.89 986.95 C 658.24 980.54 658.97 972.52 659.08 964.99 C 659.04 958.36 658.79 951.39 655.53 945.44 C 653.54 941.76 650.35 938.19 645.94 937.74 C 639.95 936.86 633.88 937.41 627.86 937.27 Z" />
<path fill="#000000" opacity="1.00" d=" M 680.24 925.99 C 679.90 923.24 682.96 922.80 685.01 922.98 C 699.71 923.07 714.42 922.87 729.12 923.08 C 732.96 922.86 732.06 927.51 732.23 930.01 C 732.05 932.55 733.03 937.52 729.04 937.21 C 717.28 937.39 705.52 937.18 693.77 937.29 C 693.79 943.68 693.78 950.09 693.78 956.49 C 704.51 956.55 715.25 956.42 725.98 956.53 C 727.60 956.38 729.73 957.04 729.61 959.04 C 729.71 962.66 730.29 966.53 729.06 970.02 C 727.54 970.92 725.70 970.70 724.03 970.80 C 713.95 970.74 703.86 970.77 693.78 970.77 C 693.78 978.01 693.78 985.25 693.78 992.49 C 705.49 992.51 717.21 992.49 728.93 992.49 C 730.49 992.60 733.15 992.30 733.46 994.44 C 733.77 998.25 734.18 1002.30 733.05 1006.03 C 730.83 1007.03 728.31 1006.69 725.95 1006.78 C 711.65 1006.63 697.35 1006.90 683.06 1006.66 C 680.40 1006.91 679.97 1004.04 680.16 1002.05 C 680.24 976.70 680.07 951.34 680.24 925.99 Z" />
<path fill="#000000" opacity="1.00" d=" M 765.46 928.05 C 765.48 926.23 765.30 923.04 767.92 923.14 C 772.26 922.85 776.64 922.84 780.98 923.15 C 783.01 923.09 783.28 925.45 783.83 926.92 C 788.97 945.77 794.27 964.58 799.43 983.43 C 804.86 964.18 810.31 944.94 815.79 925.72 C 816.65 921.53 821.92 923.40 824.94 922.94 C 827.52 923.24 832.47 921.90 832.41 925.93 C 832.60 951.27 832.41 976.62 832.50 1001.96 C 832.33 1003.53 832.77 1006.11 830.68 1006.53 C 827.35 1006.96 823.90 1007.02 820.61 1006.40 C 818.93 1005.61 819.31 1003.56 819.17 1002.08 C 819.18 986.76 819.21 971.44 819.17 956.13 C 814.51 972.09 810.07 988.11 805.41 1004.07 C 805.01 1007.26 801.34 1006.74 799.02 1006.83 C 796.86 1006.58 793.32 1007.48 792.66 1004.62 C 787.93 988.37 783.54 972.02 778.82 955.78 C 778.69 971.83 778.95 987.90 778.71 1003.95 C 778.76 1007.52 774.32 1006.64 771.98 1006.83 C 769.65 1006.71 765.42 1007.37 765.55 1003.88 C 765.36 978.61 765.56 953.32 765.46 928.05 Z" />
<path fill="#000000" opacity="1.00" d=" M 911.71 928.04 C 911.79 926.28 911.49 923.21 913.99 923.16 C 918.35 922.83 922.75 922.86 927.12 923.14 C 929.26 923.01 929.55 925.45 930.10 926.99 C 935.22 945.82 940.53 964.60 945.68 983.43 C 950.98 964.54 956.39 945.68 961.70 926.80 C 962.24 925.52 962.28 923.51 963.98 923.25 C 968.28 922.80 972.68 922.77 976.98 923.26 C 978.69 923.51 978.63 925.59 978.73 926.91 C 978.77 951.61 978.69 976.32 978.77 1001.03 C 978.72 1002.71 978.78 1004.49 978.09 1006.09 C 974.25 1007.00 969.58 1007.54 966.00 1005.79 C 964.75 1000.68 965.72 995.28 965.44 990.06 C 965.43 978.71 965.44 967.35 965.43 956.00 C 960.74 972.21 956.25 988.49 951.45 1004.66 C 950.95 1007.16 947.84 1006.65 945.96 1006.82 C 943.50 1006.59 939.37 1007.65 938.78 1004.26 C 934.24 988.03 929.48 971.85 925.20 955.55 C 924.82 971.38 925.19 987.23 925.01 1003.06 C 925.28 1004.89 924.16 1006.93 922.08 1006.68 C 918.85 1006.59 915.06 1007.61 912.20 1005.85 C 911.12 999.64 912.01 993.24 911.73 986.97 C 911.72 967.32 911.76 947.68 911.71 928.04 Z" />
<path fill="#000000" opacity="1.00" d=" M 987.48 926.93 C 987.42 925.30 987.86 922.89 990.02 923.13 C 994.80 923.04 999.80 922.40 1004.46 923.60 C 1005.68 925.61 1006.07 927.98 1006.74 930.22 C 1011.57 947.97 1016.57 965.68 1021.43 983.43 C 1024.93 970.94 1028.50 958.47 1032.03 945.99 C 1034.36 938.60 1035.82 930.91 1038.67 923.72 C 1042.89 922.29 1047.63 923.07 1052.05 923.15 C 1054.67 923.03 1054.44 926.19 1054.51 928.02 C 1054.47 952.66 1054.48 977.30 1054.50 1001.95 C 1054.33 1003.50 1054.78 1006.15 1052.65 1006.51 C 1049.33 1006.94 1045.89 1007.03 1042.60 1006.40 C 1040.92 1005.59 1041.31 1003.54 1041.17 1002.05 C 1041.18 986.74 1041.21 971.43 1041.17 956.12 C 1036.52 972.09 1032.07 988.12 1027.41 1004.08 C 1026.99 1007.25 1023.36 1006.74 1021.05 1006.83 C 1018.88 1006.58 1015.31 1007.49 1014.66 1004.60 C 1009.93 988.37 1005.55 972.03 1000.83 955.80 C 1000.76 971.21 1000.80 986.62 1000.81 1002.04 C 1000.72 1003.64 1000.96 1006.38 998.71 1006.56 C 995.61 1006.93 992.44 1006.95 989.37 1006.53 C 987.27 1006.17 987.55 1003.58 987.46 1002.03 C 987.51 977.00 987.46 951.96 987.48 926.93 Z" />
<path fill="#000000" opacity="1.00" d=" M 1058.24 923.31 C 1062.34 922.75 1066.60 922.72 1070.71 923.36 C 1074.65 928.67 1077.12 934.96 1080.49 940.65 C 1083.37 945.95 1086.23 951.25 1088.88 956.67 C 1094.10 946.67 1099.61 936.82 1104.91 926.88 C 1105.60 925.64 1106.28 924.38 1107.29 923.37 C 1111.13 922.68 1115.12 922.83 1119.00 923.21 C 1120.96 923.37 1121.45 925.96 1120.37 927.34 C 1112.44 941.39 1104.37 955.37 1096.36 969.38 C 1095.52 970.73 1095.05 972.27 1095.15 973.89 C 1095.12 983.26 1095.18 992.63 1095.17 1002.00 C 1095.00 1003.49 1095.43 1005.79 1093.59 1006.42 C 1090.25 1007.01 1086.76 1006.95 1083.41 1006.50 C 1081.29 1006.14 1081.63 1003.55 1081.53 1001.99 C 1081.54 993.00 1081.53 984.02 1081.58 975.04 C 1081.59 973.16 1081.53 971.22 1080.50 969.59 C 1072.89 955.84 1065.31 942.08 1057.71 928.33 C 1056.68 926.83 1055.82 923.94 1058.24 923.31 Z" />
</g>
</svg>
