<?xml version="1.0" encoding="UTF-8" ?>
<!DOCTYPE svg PUBLIC "-//W3C//DTD SVG 1.1//EN" "http://www.w3.org/Graphics/SVG/1.1/DTD/svg11.dtd">
<svg width="1250pt" height="1250pt" viewBox="0 0 1250 1250" version="1.1" xmlns="http://www.w3.org/2000/svg">
<g id="#000000ff">
<path fill="#000000" opacity="1.00" d=" M 242.08 246.60 C 248.35 239.10 254.67 231.63 260.91 224.10 C 262.67 233.93 264.25 243.78 266.16 253.57 C 274.83 257.42 283.36 261.57 291.99 265.51 C 283.78 270.57 275.38 275.31 267.11 280.26 C 266.11 290.24 265.17 300.23 264.13 310.20 C 257.30 303.42 250.48 296.62 243.67 289.81 C 234.38 291.86 225.15 294.19 215.87 296.33 C 219.83 287.14 223.96 278.02 228.00 268.86 C 223.29 260.28 218.57 251.71 213.90 243.11 C 223.29 244.27 232.68 245.44 242.08 246.60 Z" />
<path fill="#000000" opacity="1.00" d=" M 591.26 267.58 C 596.35 259.02 601.42 250.44 606.60 241.93 C 609.82 251.51 613.20 261.03 616.50 270.59 C 625.86 273.27 635.25 275.84 644.60 278.59 C 637.05 284.80 629.60 291.14 621.98 297.26 C 622.44 307.53 623.21 317.78 623.79 328.04 C 615.81 322.30 607.82 316.56 599.84 310.83 C 590.82 314.45 581.86 318.21 572.89 321.94 C 575.46 312.00 578.15 302.09 580.66 292.14 C 574.63 284.44 568.35 276.87 562.76 268.86 C 572.19 267.92 581.77 268.14 591.26 267.58 Z" />
<path fill="#000000" opacity="1.00" d=" M 915.82 259.11 C 916.09 259.30 916.61 259.69 916.87 259.89 C 921.93 266.98 926.84 274.19 931.90 281.29 C 940.82 281.33 949.73 281.35 958.64 281.39 C 953.59 288.68 948.73 296.11 943.46 303.24 C 946.37 312.21 949.69 321.03 952.77 329.94 C 944.24 326.95 935.79 323.74 927.27 320.72 C 920.28 326.17 913.33 331.66 906.35 337.12 C 906.15 327.80 905.95 318.49 905.75 309.18 C 898.47 303.69 890.97 298.48 883.80 292.85 C 892.16 290.20 900.52 287.54 908.89 284.89 C 911.24 276.31 913.39 267.67 915.82 259.11 Z" />
<path fill="#000000" opacity="1.00" d=" M 803.04 271.06 C 813.81 266.35 826.80 265.12 837.57 270.45 C 840.44 272.08 839.95 275.80 839.40 278.53 C 830.31 325.71 829.47 373.90 828.14 421.77 C 826.57 444.86 828.87 467.95 831.72 490.85 C 832.72 497.72 833.39 504.70 835.48 511.36 C 841.92 507.84 845.34 501.09 849.13 495.14 C 857.81 480.98 863.14 465.18 868.75 449.64 C 869.98 445.77 871.82 442.03 872.13 437.93 C 873.54 419.27 877.55 400.04 888.41 384.44 C 893.01 378.15 898.21 371.87 905.35 368.38 C 916.31 362.92 929.87 362.72 940.88 368.17 C 946.03 370.75 950.79 374.63 953.21 379.98 C 956.03 385.85 955.63 392.56 955.49 398.90 C 954.93 416.47 950.27 434.02 941.19 449.14 C 936.67 456.64 931.39 464.18 923.55 468.51 C 920.25 470.54 916.28 471.06 912.95 472.99 C 910.96 474.24 911.12 476.82 911.62 478.82 C 913.89 489.29 917.50 499.63 923.55 508.55 C 924.86 510.91 927.67 509.42 929.41 508.45 C 942.22 501.04 950.60 488.17 957.30 475.36 C 965.54 458.61 972.53 441.25 978.37 423.53 C 978.97 421.36 980.34 418.86 982.95 418.99 C 986.59 419.18 991.81 420.53 992.17 424.91 C 992.04 429.12 990.39 433.07 989.39 437.12 C 985.01 453.89 978.67 470.17 970.28 485.35 C 965.16 494.53 959.58 503.63 952.02 511.03 C 941.57 520.94 925.90 524.82 912.02 520.99 C 902.00 518.44 893.30 511.93 887.32 503.59 C 881.18 495.63 877.50 486.16 874.81 476.56 C 869.67 489.87 863.69 502.91 856.12 515.03 C 851.70 521.75 844.13 526.41 836.03 526.74 C 823.73 527.28 811.50 520.19 805.76 509.30 C 796.46 491.94 793.07 472.19 790.75 452.85 C 790.39 450.24 789.74 447.67 789.06 445.14 C 786.19 448.88 785.88 453.73 784.12 457.98 C 777.57 475.82 772.00 494.18 762.70 510.84 C 759.08 517.57 751.79 522.38 744.01 521.96 C 734.05 521.43 723.94 517.25 717.34 509.61 C 710.34 501.36 707.63 490.50 705.43 480.16 C 701.70 489.18 697.37 497.95 692.43 506.38 C 689.35 511.45 685.21 516.50 679.20 518.03 C 661.60 523.15 641.95 512.83 634.68 496.35 C 631.98 491.32 632.49 485.19 629.28 480.39 C 625.75 488.91 623.62 498.00 619.15 506.12 C 616.14 511.54 613.69 517.79 608.22 521.25 C 600.53 526.25 590.77 526.39 582.00 525.02 C 569.96 523.10 559.13 514.96 554.26 503.74 C 546.28 485.64 546.11 465.32 547.51 445.92 C 549.31 424.33 555.24 402.61 567.49 384.52 C 578.96 366.61 604.72 361.91 623.25 370.80 C 627.93 372.79 631.11 376.83 635.02 379.87 C 642.66 369.31 658.95 367.18 669.40 374.69 C 671.81 376.39 673.83 378.95 674.18 381.96 C 674.18 400.76 670.24 419.28 669.53 438.05 C 668.88 451.74 669.15 465.48 670.35 479.13 C 670.90 484.61 670.94 490.28 673.24 495.39 C 677.46 493.40 680.08 489.41 682.75 485.78 C 692.90 471.53 699.30 454.94 703.26 437.99 C 705.15 431.55 705.00 424.77 706.19 418.21 C 708.62 403.42 712.25 388.37 720.47 375.64 C 729.96 361.63 749.61 356.81 765.04 362.99 C 774.40 366.41 781.13 374.07 788.00 380.92 C 789.80 361.29 790.52 341.59 792.83 322.01 C 794.41 307.28 796.25 292.57 798.14 277.88 C 798.27 274.84 800.23 272.17 803.04 271.06 M 755.26 376.74 C 750.21 384.57 748.29 393.86 746.40 402.85 C 742.42 424.10 740.83 445.79 741.42 467.39 C 741.92 477.81 742.48 488.54 746.63 498.27 C 750.11 494.63 752.31 490.01 754.52 485.56 C 763.22 466.24 769.98 446.12 775.75 425.76 C 777.22 419.98 779.17 414.01 778.16 407.99 C 776.85 401.54 772.55 396.32 768.98 390.99 C 765.04 385.73 761.47 379.59 755.26 376.74 M 917.68 399.64 C 913.71 409.36 911.14 419.63 909.91 430.05 C 908.99 438.46 908.79 447.22 911.66 455.31 C 917.76 446.71 922.62 437.21 926.47 427.40 C 932.13 412.90 933.39 396.60 928.96 381.60 C 923.76 386.57 920.44 393.09 917.68 399.64 M 601.77 387.89 C 597.98 394.06 595.39 400.94 593.92 408.02 C 592.21 416.28 590.54 424.56 589.27 432.91 C 585.67 455.68 587.12 479.39 594.55 501.28 C 596.31 500.13 597.92 498.71 598.78 496.75 C 607.89 479.01 612.48 459.50 618.91 440.74 C 621.20 434.10 622.72 427.09 622.36 420.04 C 622.08 413.76 620.02 407.75 618.13 401.81 C 615.83 394.85 612.09 388.36 606.87 383.19 C 604.90 384.44 602.93 385.81 601.77 387.89 Z" />
<path fill="#000000" opacity="1.00" d=" M 370.33 288.28 C 373.85 284.44 378.90 282.24 384.05 281.80 C 396.95 280.66 410.58 286.15 418.09 296.91 C 423.98 305.41 426.72 315.70 428.22 325.82 C 429.96 341.29 429.48 357.00 432.06 372.36 C 437.98 352.98 442.71 332.51 454.86 315.86 C 459.77 308.88 467.06 302.83 475.88 302.13 C 485.26 301.52 495.31 303.30 502.88 309.19 C 507.50 312.74 510.78 317.79 512.77 323.23 C 518.14 337.20 519.34 352.26 520.61 367.04 C 523.37 398.29 523.07 429.70 523.02 461.04 C 522.87 472.37 524.60 483.65 524.09 494.99 C 523.81 503.06 523.05 511.11 522.19 519.14 C 521.68 524.68 518.49 529.93 513.63 532.70 C 506.66 536.73 497.94 536.78 490.43 534.34 C 488.08 533.73 486.65 531.32 487.09 528.96 C 488.63 509.64 486.84 490.29 486.29 470.97 C 484.81 431.30 483.02 391.65 481.25 352.00 C 480.91 341.56 479.50 331.12 476.32 321.15 C 473.83 322.64 471.59 324.57 470.16 327.13 C 460.69 342.35 455.66 359.77 450.97 376.93 C 445.15 398.31 440.27 419.98 437.07 441.93 C 434.98 459.11 432.24 476.21 429.16 493.24 C 428.81 496.17 425.94 498.12 423.07 497.47 C 414.84 496.24 405.88 493.22 401.05 485.97 C 397.53 480.66 397.67 474.03 398.11 467.94 C 398.68 451.89 396.35 435.94 395.83 419.93 C 395.09 397.97 395.06 375.98 394.27 354.01 C 393.55 335.98 392.98 317.75 388.27 300.22 C 386.03 301.12 383.78 302.35 382.73 304.64 C 373.86 321.92 367.10 340.22 361.96 358.94 C 355.59 381.58 351.14 404.75 348.53 428.12 C 345.41 460.75 341.20 493.29 339.03 526.01 C 339.06 528.84 337.54 531.87 334.43 532.17 C 328.49 533.24 322.34 533.15 316.36 532.45 C 311.95 531.79 308.14 528.77 306.32 524.73 C 301.57 514.38 299.30 503.12 297.09 492.01 C 293.07 471.91 290.75 451.48 289.91 431.01 C 289.62 407.63 287.69 384.32 286.80 360.96 C 286.02 344.19 290.24 327.74 290.88 311.04 C 290.79 307.16 294.61 304.93 297.93 304.15 C 304.92 302.45 312.34 303.03 319.28 304.73 C 323.03 305.78 327.30 307.18 329.21 310.90 C 330.08 312.43 329.22 314.15 328.83 315.68 C 325.14 326.77 325.64 338.60 324.51 350.09 C 322.01 374.97 318.60 399.98 320.66 425.02 C 321.42 435.74 322.42 446.43 323.37 457.12 C 323.61 460.00 324.27 462.93 326.11 465.24 C 328.28 441.62 330.64 418.01 334.35 394.58 C 338.64 368.23 343.25 341.62 353.76 316.91 C 358.20 306.83 362.47 296.28 370.33 288.28 Z" />
<path fill="#000000" opacity="1.00" d=" M 202.21 518.93 C 205.37 507.91 208.18 496.78 211.59 485.84 C 217.94 495.56 224.67 505.03 231.17 514.65 C 242.38 514.75 253.60 514.88 264.81 514.99 C 258.35 524.29 251.79 533.52 245.31 542.80 C 249.06 553.96 252.90 565.08 256.63 576.25 C 246.03 572.32 235.44 568.38 224.87 564.39 C 215.92 571.12 207.13 578.05 198.27 584.89 C 198.18 574.27 198.00 563.65 198.00 553.02 C 197.81 551.67 198.40 549.83 197.04 548.94 C 188.85 542.78 180.67 536.62 172.45 530.50 C 171.87 530.07 169.91 528.46 171.91 528.40 C 182.01 525.23 192.13 522.15 202.21 518.93 Z" />
<path fill="#000000" opacity="1.00" d=" M 477.04 554.96 C 478.33 552.89 480.70 551.82 483.01 551.35 C 491.91 549.68 501.40 550.51 509.61 554.42 C 512.83 555.90 514.02 559.74 513.23 563.03 C 511.29 573.69 509.09 584.33 507.67 595.08 C 506.94 598.28 511.00 598.00 513.02 598.09 C 526.05 597.81 539.28 597.68 551.94 594.25 C 553.94 593.88 556.98 592.79 558.26 595.06 C 559.36 599.51 555.69 603.51 551.68 604.80 C 538.50 609.70 524.88 613.77 510.84 615.18 C 508.97 615.51 506.57 615.55 505.40 617.31 C 503.23 631.75 503.90 646.42 503.29 660.97 C 502.81 677.31 502.49 693.69 504.08 709.98 C 504.89 721.46 505.93 733.50 512.18 743.51 C 516.69 740.74 520.57 736.97 523.24 732.38 C 531.76 718.11 539.52 703.12 543.57 686.90 C 544.21 684.29 544.32 681.60 544.45 678.94 C 545.22 663.34 550.49 648.04 559.17 635.08 C 562.00 630.74 566.62 627.39 571.93 627.19 C 584.65 626.71 597.26 623.21 610.03 624.94 C 622.33 626.16 634.80 631.41 642.30 641.59 C 648.70 649.83 649.54 660.57 652.00 670.35 C 661.89 670.34 670.55 664.65 679.88 662.22 C 683.49 661.29 687.48 663.62 688.68 667.08 C 689.01 668.91 687.26 670.06 686.03 671.05 C 677.23 677.27 667.33 681.86 657.02 684.96 C 654.04 685.82 650.47 687.46 650.15 690.99 C 648.52 704.04 643.87 716.64 636.78 727.72 C 629.95 738.08 619.52 746.64 607.02 748.75 C 587.37 753.03 566.03 743.54 555.42 726.62 C 553.14 723.50 552.08 719.68 549.70 716.65 C 546.65 726.08 541.70 734.80 535.73 742.67 C 528.61 751.23 516.82 754.07 506.12 753.19 C 496.13 752.65 484.86 749.92 479.04 741.02 C 472.05 731.48 470.98 719.41 469.27 708.09 C 468.00 699.09 467.81 689.99 467.13 680.94 C 466.26 665.64 465.06 650.33 465.64 635.01 C 465.63 630.43 466.18 625.82 465.62 621.26 C 465.28 619.19 462.72 619.23 461.15 618.82 C 454.24 617.73 446.79 616.48 441.39 611.66 C 436.77 607.52 435.18 599.43 439.59 594.60 C 441.41 593.05 443.88 593.97 445.93 594.40 C 452.16 596.01 458.60 596.78 465.02 597.09 C 466.61 597.30 468.56 596.65 468.73 594.81 C 471.68 581.57 471.06 567.42 477.04 554.96 M 594.83 636.76 C 586.90 643.32 584.21 655.60 589.10 664.73 C 590.55 667.49 592.87 670.10 596.06 670.76 C 603.49 672.42 611.04 673.86 618.69 673.70 C 619.53 663.28 616.44 652.83 610.99 644.00 C 608.44 640.27 604.78 637.29 600.65 635.48 C 598.64 634.49 596.39 635.41 594.83 636.76 M 578.36 681.06 C 576.69 694.32 578.85 708.07 584.92 720.01 C 587.73 725.99 592.00 731.69 598.10 734.58 C 600.82 735.76 602.69 732.88 604.05 731.02 C 612.17 719.88 615.05 706.14 618.05 692.97 C 618.83 690.94 617.01 689.26 615.08 689.30 C 602.84 687.85 590.77 684.42 579.81 678.74 C 579.07 679.37 578.58 680.15 578.36 681.06 Z" />
<path fill="#000000" opacity="1.00" d=" M 920.38 576.43 C 925.19 568.22 930.06 560.04 934.83 551.81 C 938.05 560.96 941.34 570.09 944.59 579.23 C 953.50 581.77 962.44 584.20 971.36 586.73 C 964.50 593.08 957.05 598.77 949.99 604.89 C 950.73 614.63 951.36 624.38 952.07 634.12 C 944.35 628.69 936.68 623.18 928.97 617.73 C 920.38 621.22 911.86 624.86 903.29 628.39 C 905.68 618.95 908.06 609.51 910.50 600.09 C 904.56 592.56 898.63 585.04 892.69 577.51 C 901.92 577.09 911.15 576.84 920.38 576.43 Z" />
<path fill="#000000" opacity="1.00" d=" M 752.82 558.91 C 757.97 566.73 763.07 574.59 768.40 582.29 C 777.30 582.43 786.21 582.66 795.11 582.91 C 789.90 590.29 784.51 597.54 779.27 604.90 C 782.15 613.85 785.05 622.80 787.91 631.75 C 779.41 628.52 770.99 625.03 762.43 621.96 C 755.45 627.41 748.26 632.61 741.22 637.98 C 741.25 628.60 741.25 619.21 741.29 609.83 C 734.20 604.06 726.63 598.86 719.76 592.85 C 727.27 590.69 734.73 588.39 742.25 586.26 C 743.39 585.80 745.12 585.73 745.38 584.22 C 747.93 575.81 750.35 567.35 752.82 558.91 Z" />
<path fill="#000000" opacity="1.00" d=" M 351.85 608.43 C 356.99 602.08 362.24 595.83 367.41 589.50 C 368.89 597.66 370.43 605.82 371.94 613.99 C 379.15 617.34 386.45 620.49 393.62 623.94 C 386.87 628.23 379.94 632.23 373.09 636.36 C 372.21 644.72 371.57 653.11 370.77 661.48 C 364.95 655.87 359.22 650.17 353.40 644.57 C 345.66 646.44 337.95 648.38 330.22 650.25 C 333.50 642.54 336.90 634.88 340.16 627.16 C 336.16 620.01 332.16 612.88 328.18 605.73 C 336.07 606.62 343.95 607.59 351.85 608.43 Z" />
<path fill="#000000" opacity="1.00" d=" M 1066.91 667.30 C 1072.42 661.85 1077.44 655.88 1083.28 650.79 C 1084.01 658.36 1084.80 665.92 1085.57 673.49 C 1092.15 676.91 1098.72 680.34 1105.29 683.77 C 1098.62 687.67 1091.53 690.81 1084.76 694.53 C 1083.44 702.27 1081.99 709.99 1080.66 717.73 C 1075.60 712.20 1070.60 706.62 1065.58 701.06 C 1058.07 702.38 1050.58 703.83 1043.07 705.18 C 1046.87 698.19 1050.62 691.17 1054.39 684.16 C 1051.18 677.30 1047.96 670.46 1044.78 663.60 C 1052.16 664.77 1059.53 666.06 1066.91 667.30 Z" />
<path fill="#000000" opacity="1.00" d=" M 959.82 670.85 C 966.42 663.13 975.89 658.06 985.93 656.61 C 992.48 655.60 999.91 655.51 1005.50 659.63 C 1009.46 662.51 1011.31 667.34 1012.05 672.03 C 1016.69 693.43 1013.86 715.56 1009.83 736.81 C 1003.56 769.94 992.61 802.65 973.94 830.95 C 970.99 835.90 966.91 840.13 964.22 845.21 C 963.37 851.61 965.02 858.11 965.77 864.49 C 967.96 875.49 969.45 887.33 976.60 896.44 C 979.26 900.03 983.02 904.27 988.01 903.35 C 993.35 901.98 996.93 897.31 1000.29 893.26 C 1010.24 879.69 1016.67 863.93 1022.22 848.15 C 1024.03 842.46 1026.33 836.90 1027.64 831.08 C 1029.19 813.02 1032.93 794.47 1043.11 779.15 C 1047.28 773.11 1051.89 767.03 1058.35 763.28 C 1070.51 756.11 1086.66 755.83 1098.80 763.20 C 1103.76 766.13 1107.91 770.61 1109.81 776.12 C 1112.10 782.49 1111.69 789.39 1111.74 796.05 C 1111.42 818.37 1104.83 840.80 1091.72 858.98 C 1087.32 865.00 1081.24 869.87 1074.10 872.16 C 1071.50 872.96 1068.22 874.75 1068.93 878.02 C 1070.87 887.99 1074.36 897.74 1079.43 906.58 C 1080.85 908.70 1081.80 911.46 1084.12 912.80 C 1088.53 912.36 1091.87 908.78 1095.22 906.15 C 1108.65 893.68 1116.11 876.39 1122.58 859.59 C 1128.03 845.94 1132.48 831.91 1136.63 817.82 C 1137.43 813.99 1141.99 813.81 1144.96 815.04 C 1148.09 815.73 1151.03 818.47 1150.34 821.95 C 1145.19 850.04 1135.79 877.61 1120.67 901.96 C 1115.70 909.38 1109.99 916.69 1101.93 920.94 C 1087.12 929.44 1067.39 927.59 1054.24 916.78 C 1041.48 906.19 1033.91 890.47 1030.52 874.47 C 1024.52 889.52 1016.77 904.48 1004.37 915.28 C 997.54 921.47 989.32 926.57 980.05 927.87 C 971.60 929.05 962.50 928.30 954.96 924.05 C 949.48 920.92 945.42 915.72 942.97 909.98 C 936.50 894.90 932.84 878.76 930.76 862.53 C 924.38 876.03 917.61 889.48 908.28 901.23 C 902.07 909.27 895.07 916.68 887.53 923.48 C 882.30 928.15 874.78 929.90 868.02 928.05 C 858.94 925.53 850.69 920.43 843.99 913.85 C 835.24 905.29 828.25 895.18 820.26 885.95 C 817.79 896.85 818.83 908.08 820.21 919.05 C 820.95 923.95 820.05 929.75 815.73 932.80 C 810.76 936.15 803.92 937.10 798.39 934.61 C 795.00 933.06 792.58 929.79 791.84 926.17 C 787.44 904.15 783.87 881.96 781.50 859.63 C 775.56 866.94 766.62 872.12 757.00 871.81 C 746.65 871.46 735.53 868.55 728.31 860.67 C 723.31 855.29 721.40 847.97 719.94 840.98 C 718.04 831.01 717.11 820.87 716.41 810.75 C 714.12 812.19 713.25 814.92 712.21 817.28 C 701.32 853.88 691.37 891.04 687.71 929.18 C 687.51 933.12 685.44 936.96 681.99 938.98 C 671.47 945.08 655.90 938.96 652.89 927.04 C 649.69 914.73 647.77 902.11 646.75 889.44 C 643.24 899.31 639.20 909.00 634.50 918.36 C 631.39 924.49 627.67 931.24 620.95 933.95 C 613.84 936.67 605.81 936.75 598.52 934.66 C 584.12 930.47 572.59 917.76 569.88 903.00 C 569.44 900.44 568.32 898.10 566.95 895.93 C 565.41 900.64 563.78 905.32 562.46 910.10 C 560.32 918.06 556.60 925.47 552.87 932.79 C 549.72 938.92 543.48 942.94 536.85 944.36 C 524.67 946.89 511.06 944.76 501.27 936.74 C 494.71 931.52 490.43 923.99 487.79 916.15 C 482.59 901.72 481.43 886.26 481.47 871.04 C 481.54 844.87 486.56 817.95 500.39 795.40 C 511.54 776.13 538.72 770.21 558.07 779.87 C 562.54 781.89 565.68 785.71 569.41 788.75 C 576.59 777.82 592.58 774.56 603.61 781.43 C 606.99 783.40 609.91 786.81 609.98 790.90 C 609.97 803.82 609.13 816.73 607.86 829.60 C 606.25 851.06 606.71 872.68 609.25 894.06 C 609.98 899.65 610.16 905.47 612.78 910.60 C 617.17 908.04 619.78 903.57 622.51 899.46 C 634.04 881.26 640.14 860.12 643.30 838.98 C 642.22 827.38 640.97 815.76 641.59 804.09 C 642.00 796.39 641.99 788.62 643.13 780.98 C 643.70 776.77 647.07 773.51 651.08 772.43 C 661.66 769.16 673.89 769.84 683.49 775.63 C 686.81 777.45 687.27 781.54 686.39 784.89 C 682.01 807.53 685.18 830.60 685.61 853.43 C 687.64 848.53 688.63 843.30 689.49 838.09 C 692.23 822.21 696.75 806.67 702.62 791.67 C 704.87 783.39 710.94 775.01 720.03 773.90 C 730.54 772.85 743.25 774.96 749.32 784.62 C 754.39 793.47 756.12 803.84 756.53 813.92 C 757.30 825.60 757.57 837.30 757.91 849.00 C 757.90 852.37 759.00 855.58 760.26 858.67 C 768.50 854.75 775.06 847.95 779.64 840.15 C 776.70 807.81 777.48 775.30 779.42 742.94 C 780.60 723.27 781.59 703.57 784.05 684.01 C 785.02 678.13 785.65 671.54 789.98 667.02 C 794.51 662.78 801.16 662.62 807.01 662.36 C 814.21 662.20 821.86 662.95 828.11 666.83 C 830.59 668.39 831.31 671.59 830.36 674.25 C 824.68 694.90 822.90 716.33 820.80 737.56 C 818.84 760.04 817.72 782.64 818.59 805.20 C 822.31 801.26 823.69 795.90 826.27 791.26 C 831.42 781.31 837.18 771.32 845.51 763.67 C 852.38 757.42 862.41 757.56 871.00 759.18 C 881.11 761.04 890.77 767.49 894.61 777.29 C 897.90 786.38 898.88 796.30 897.57 805.87 C 894.91 821.83 888.52 837.44 877.66 849.61 C 870.36 858.22 860.35 864.04 849.95 868.13 C 856.54 876.71 862.57 886.09 871.58 892.40 C 875.69 895.47 881.31 896.13 886.11 894.40 C 891.51 892.57 895.30 888.08 899.13 884.10 C 905.88 876.92 910.79 868.32 915.94 859.98 C 920.27 852.84 924.44 845.59 928.33 838.20 C 929.77 835.70 929.07 832.72 929.15 829.99 C 927.95 788.60 929.65 746.53 941.35 706.56 C 945.27 693.69 951.02 681.14 959.82 670.85 M 984.62 682.70 C 966.74 722.53 963.22 766.76 961.56 809.85 C 968.44 800.62 972.22 789.57 975.73 778.72 C 982.20 757.36 986.39 735.28 988.06 713.02 C 988.66 702.11 989.12 690.88 985.88 680.31 C 985.56 680.91 984.94 682.10 984.62 682.70 M 849.22 796.18 C 837.79 814.50 830.31 835.05 825.71 856.09 C 825.47 858.12 828.31 858.93 829.84 858.14 C 839.47 854.40 846.21 846.14 851.74 837.76 C 858.81 827.23 863.87 815.39 866.78 803.05 C 868.83 794.53 870.45 785.17 866.63 776.88 C 858.11 780.32 854.07 789.04 849.22 796.18 M 1072.41 797.12 C 1068.66 808.05 1066.42 819.51 1065.74 831.04 C 1065.33 839.23 1065.61 847.68 1068.68 855.40 C 1073.79 846.57 1078.43 837.44 1081.90 827.84 C 1088.03 811.39 1089.33 792.93 1083.87 776.11 C 1078.43 782.09 1075.06 789.58 1072.41 797.12 M 535.82 797.85 C 528.33 810.62 527.35 825.69 525.06 839.98 C 521.10 866.26 522.68 893.69 531.84 918.77 C 535.78 917.51 536.60 912.56 538.29 909.25 C 545.66 891.42 549.49 872.44 554.97 854.01 C 557.10 846.89 558.44 839.43 557.85 831.99 C 557.44 825.67 555.29 819.67 553.31 813.73 C 550.69 806.03 546.63 798.73 540.67 793.11 C 538.81 794.41 536.91 795.79 535.82 797.85 Z" />
<path fill="#000000" opacity="1.00" d=" M 254.43 687.55 C 273.49 683.07 294.95 692.31 304.61 709.37 C 308.11 715.37 309.14 722.36 310.49 729.07 C 312.01 736.94 312.39 745.00 311.55 752.98 C 311.07 771.72 309.68 790.59 304.77 808.76 C 302.24 817.76 300.36 827.20 295.21 835.18 C 292.33 839.60 287.27 842.57 281.96 842.65 C 276.60 842.81 271.44 840.01 268.12 835.91 C 267.09 834.62 268.75 833.32 269.21 832.17 C 274.16 825.01 276.95 816.59 278.67 808.12 C 284.50 777.75 285.06 746.00 277.39 715.90 C 276.40 712.93 275.65 708.67 272.03 707.94 C 267.24 707.93 263.23 711.05 259.18 713.23 C 247.55 719.84 238.44 729.93 230.57 740.58 C 218.27 756.70 207.69 774.24 200.23 793.13 C 194.14 807.96 191.30 824.02 191.06 840.01 C 190.73 846.56 194.72 852.35 199.57 856.38 C 204.07 860.40 209.70 862.77 215.33 864.76 C 228.51 869.63 242.13 873.29 255.94 875.92 C 262.16 877.15 268.50 877.83 274.59 879.66 C 286.87 883.17 298.24 889.73 307.51 898.51 C 314.57 904.66 318.02 914.85 314.97 923.88 C 310.27 937.91 302.25 951.19 290.51 960.41 C 277.21 970.90 259.88 975.90 243.03 974.48 C 225.89 973.55 210.27 965.23 196.43 955.68 C 193.43 954.10 194.47 949.15 197.93 949.32 C 201.78 949.88 205.30 951.77 209.14 952.40 C 220.38 955.04 232.71 953.68 242.62 947.54 C 251.08 942.21 259.44 936.60 266.71 929.69 C 271.69 925.11 275.24 919.23 278.36 913.29 C 279.47 911.47 278.62 909.07 276.74 908.19 C 271.42 905.39 265.56 903.79 259.79 902.21 C 243.98 898.47 227.79 896.56 211.97 892.84 C 196.43 888.38 180.12 882.33 169.75 869.23 C 158.84 855.83 156.40 837.64 158.08 820.92 C 159.54 802.94 165.01 785.54 172.07 769.03 C 179.74 751.21 190.13 734.50 203.24 720.17 C 211.88 710.78 221.38 701.93 232.69 695.83 C 239.50 692.07 246.85 689.31 254.43 687.55 Z" />
<path fill="#000000" opacity="1.00" d=" M 327.70 769.86 C 337.62 765.77 349.25 766.68 358.89 771.20 C 360.84 772.15 363.00 773.15 364.13 775.12 C 365.10 776.92 364.59 779.02 364.29 780.93 C 359.98 801.97 359.35 823.55 359.35 844.96 C 359.12 854.80 358.49 864.64 359.09 874.48 C 362.11 869.72 364.62 864.55 365.46 858.93 C 368.16 842.24 373.72 826.21 379.44 810.37 C 381.98 803.63 385.87 797.53 389.28 791.22 C 392.74 784.75 398.91 779.87 405.98 777.93 C 413.88 775.76 422.34 776.00 430.27 777.84 C 438.84 779.91 446.37 785.74 450.40 793.59 C 460.82 814.34 464.09 837.95 463.54 860.96 C 463.05 879.54 461.26 898.38 455.03 916.01 C 451.54 925.46 446.00 935.18 436.42 939.51 C 415.96 948.85 388.79 941.54 376.87 922.17 C 376.01 921.01 374.69 920.39 373.52 919.63 C 370.36 935.22 370.50 951.20 369.58 967.01 C 368.88 988.73 368.47 1010.66 372.31 1032.14 C 373.02 1036.85 373.31 1042.84 369.04 1046.05 C 364.47 1049.13 358.05 1049.60 353.22 1046.84 C 348.09 1043.92 345.50 1038.22 344.24 1032.70 C 336.21 1000.18 331.90 966.90 327.17 933.79 C 324.55 913.92 321.33 894.08 320.48 874.03 C 319.57 854.37 319.72 834.68 319.67 815.00 C 319.82 804.01 319.66 792.90 321.86 782.07 C 322.51 777.59 322.96 771.99 327.70 769.86 M 395.57 825.89 C 390.23 841.08 385.66 856.53 381.34 872.03 C 378.84 881.50 381.41 891.42 386.39 899.62 C 391.56 908.66 397.86 917.54 406.94 923.00 C 409.17 924.32 411.98 925.65 414.54 924.46 C 416.95 923.20 418.02 920.50 418.88 918.09 C 422.11 908.33 423.07 898.02 423.80 887.82 C 425.24 866.52 423.69 845.15 421.10 824.00 C 420.32 813.69 418.89 803.27 414.72 793.71 C 405.24 802.21 399.50 813.97 395.57 825.89 Z" />
</g>
</svg>
