<?xml version="1.0" encoding="UTF-8" ?>
<!DOCTYPE svg PUBLIC "-//W3C//DTD SVG 1.1//EN" "http://www.w3.org/Graphics/SVG/1.1/DTD/svg11.dtd">
<svg width="4000pt" height="4000pt" viewBox="0 0 4000 4000" version="1.1" xmlns="http://www.w3.org/2000/svg">
<g id="#000000ff">
<path fill="#000000" opacity="1.00" d=" M 1970.24 352.83 C 1976.22 352.44 1982.28 353.29 1988.22 352.14 C 1991.12 351.39 1994.01 352.63 1996.95 352.71 C 2000.20 352.84 2003.49 352.78 2006.74 353.31 C 2011.30 353.42 2015.56 355.25 2020.07 355.74 C 2024.51 356.31 2028.87 357.37 2033.10 358.87 C 2042.54 360.99 2051.11 365.54 2059.69 369.86 C 2071.46 376.71 2084.26 382.92 2092.52 394.21 C 2100.08 402.28 2106.26 411.43 2112.52 420.51 C 2119.49 432.29 2124.67 445.01 2129.77 457.67 C 2131.83 467.11 2136.19 475.81 2138.48 485.18 C 2140.64 494.88 2144.03 504.29 2145.13 514.22 C 2148.15 528.03 2150.03 542.04 2152.58 555.94 C 2154.05 561.51 2153.36 567.37 2154.64 572.99 C 2156.18 581.00 2156.32 589.15 2157.34 597.22 C 2158.59 602.59 2158.30 608.14 2159.27 613.55 C 2160.20 620.66 2158.72 627.90 2160.30 634.96 C 2161.28 638.56 2160.02 642.51 2161.41 645.98 C 2161.85 651.31 2161.05 656.70 2162.01 661.99 C 2162.94 667.08 2161.85 672.27 2162.58 677.37 C 2163.81 678.67 2165.59 679.24 2167.20 680.02 C 2176.22 683.81 2184.03 689.83 2192.59 694.50 C 2201.86 699.74 2210.44 706.11 2219.82 711.18 C 2231.86 718.71 2244.10 725.99 2255.35 734.71 C 2266.54 742.29 2276.50 751.49 2287.11 759.85 C 2297.37 768.94 2307.47 778.26 2316.60 788.51 C 2319.30 791.45 2322.29 794.13 2324.90 797.19 C 2332.35 806.65 2340.93 815.19 2347.71 825.18 C 2350.56 829.58 2354.11 833.46 2357.21 837.69 C 2362.01 843.84 2365.76 850.71 2369.93 857.30 C 2377.11 868.02 2382.89 879.59 2388.93 890.98 C 2394.17 902.84 2400.69 914.15 2404.87 926.47 C 2409.14 936.42 2412.23 946.81 2415.68 957.06 C 2417.39 964.11 2420.68 970.69 2421.42 977.99 C 2423.03 982.90 2423.31 988.13 2425.16 992.97 C 2427.62 1003.60 2428.45 1014.49 2430.75 1025.14 C 2431.40 1029.39 2430.83 1033.75 2431.80 1037.97 C 2432.92 1042.92 2432.00 1048.03 2432.88 1053.02 C 2433.43 1056.31 2433.42 1059.66 2433.36 1063.00 C 2447.24 1063.00 2461.13 1063.00 2475.02 1063.00 C 2489.13 1063.11 2503.48 1062.18 2517.30 1065.75 C 2547.97 1072.86 2574.41 1095.50 2586.35 1124.60 C 2591.54 1137.04 2594.08 1150.53 2594.00 1164.00 C 2593.97 1214.03 2594.06 1264.06 2593.95 1314.08 C 2593.60 1334.14 2587.00 1354.04 2575.24 1370.30 C 2567.31 1381.43 2556.97 1390.70 2545.39 1397.89 C 2584.37 1479.24 2602.87 1569.90 2601.49 1659.96 C 2600.42 1730.56 2587.38 1800.76 2565.23 1867.75 C 2558.27 1889.95 2549.40 1911.50 2541.18 1933.26 C 2524.02 1979.67 2511.49 2027.81 2504.05 2076.73 L 2505.53 2077.41 C 2503.87 2078.18 2503.51 2076.18 2503.23 2075.04 C 2504.20 2081.07 2501.93 2086.99 2501.53 2092.99 C 2501.05 2099.50 2499.01 2105.96 2499.72 2112.51 C 2499.14 2111.74 2498.41 2111.25 2497.48 2111.56 L 2499.13 2112.41 C 2488.99 2200.57 2492.74 2289.97 2505.97 2377.61 C 2519.21 2463.53 2541.14 2548.16 2571.85 2629.51 C 2579.83 2650.31 2588.10 2671.04 2598.40 2690.82 C 2607.45 2710.13 2614.43 2730.32 2621.50 2750.42 C 2634.61 2789.31 2645.49 2828.95 2654.33 2869.03 C 2666.80 2926.24 2675.09 2984.47 2677.47 3043.00 C 2677.56 3057.69 2678.78 3072.37 2678.05 3087.07 C 2677.36 3096.70 2677.82 3106.38 2676.98 3116.02 C 2674.28 3164.81 2666.61 3213.50 2652.08 3260.22 C 2639.78 3300.14 2622.24 3338.53 2599.39 3373.53 C 2579.59 3404.16 2555.41 3431.87 2528.32 3456.26 C 2500.32 3481.11 2469.10 3502.28 2435.90 3519.57 C 2398.47 3538.98 2359.38 3555.02 2319.49 3568.62 C 2228.60 3599.40 2132.86 3615.02 2037.04 3617.66 C 2012.01 3618.33 1986.98 3618.19 1961.94 3618.16 C 1949.90 3617.41 1937.81 3617.88 1925.78 3617.02 C 1835.37 3612.98 1745.23 3597.17 1659.60 3567.60 C 1620.57 3554.11 1582.33 3538.19 1545.72 3519.04 C 1512.61 3501.65 1481.56 3480.27 1453.74 3455.26 C 1427.27 3431.14 1403.67 3403.80 1384.26 3373.69 C 1361.27 3338.31 1343.71 3299.49 1331.42 3259.15 C 1316.31 3209.86 1308.78 3158.44 1306.54 3107.01 C 1306.49 3095.32 1305.54 3083.66 1305.75 3071.98 C 1306.29 3048.94 1306.94 3025.89 1309.04 3002.94 C 1313.02 2956.21 1320.46 2909.79 1330.63 2864.02 C 1340.77 2818.92 1353.29 2774.31 1369.05 2730.84 C 1374.81 2715.37 1380.34 2699.73 1388.01 2685.07 C 1398.03 2665.18 1405.84 2644.28 1413.82 2623.52 C 1444.32 2540.60 1466.08 2454.46 1478.60 2367.00 C 1492.84 2266.35 1494.32 2163.36 1476.80 2063.02 C 1471.46 2032.34 1464.26 2001.99 1455.17 1972.21 C 1447.88 1947.52 1438.31 1923.60 1429.20 1899.55 C 1402.62 1828.27 1385.73 1753.07 1382.55 1676.95 C 1381.86 1651.55 1381.85 1626.09 1384.02 1600.77 C 1387.98 1552.54 1397.56 1504.72 1413.19 1458.91 C 1419.59 1439.26 1427.72 1420.24 1436.06 1401.35 C 1420.17 1393.34 1406.50 1381.04 1396.88 1366.07 C 1386.33 1349.80 1380.82 1330.39 1380.99 1311.02 C 1381.07 1260.34 1380.87 1209.67 1381.09 1159.00 C 1381.91 1136.50 1390.67 1114.42 1405.48 1097.47 C 1423.67 1076.31 1451.04 1063.41 1478.96 1063.05 C 1502.20 1062.92 1525.43 1063.07 1548.67 1062.97 C 1549.10 1057.64 1549.04 1052.29 1549.51 1046.99 C 1550.91 1042.56 1550.06 1037.85 1551.09 1033.36 C 1551.46 1031.25 1551.42 1029.10 1551.45 1026.98 C 1551.31 1021.18 1553.71 1015.73 1553.94 1009.96 C 1555.57 1001.65 1556.79 993.26 1557.88 984.86 C 1560.44 977.01 1562.04 968.89 1564.23 960.94 C 1564.96 954.99 1567.70 949.58 1568.89 943.75 C 1570.87 937.29 1572.55 930.66 1575.76 924.67 C 1578.45 918.06 1581.01 911.39 1583.67 904.77 C 1588.87 895.08 1593.14 884.94 1598.19 875.18 C 1613.45 849.69 1629.09 824.15 1648.94 801.89 C 1654.94 794.32 1661.59 787.27 1668.47 780.49 C 1674.83 774.20 1680.97 767.68 1687.63 761.70 C 1694.32 754.54 1702.80 749.49 1709.98 742.88 C 1715.51 737.62 1722.20 733.84 1728.32 729.33 C 1738.54 721.33 1749.87 714.97 1760.66 707.80 C 1765.22 704.49 1770.35 702.10 1775.08 699.06 C 1785.60 692.78 1795.26 685.10 1806.22 679.54 C 1807.66 678.66 1809.24 677.85 1810.32 676.48 C 1810.27 664.02 1810.41 651.54 1810.29 639.06 C 1810.64 631.72 1809.99 624.33 1811.17 617.04 C 1812.06 610.78 1810.81 604.41 1811.92 598.19 C 1814.24 589.30 1814.38 580.04 1814.74 570.92 C 1815.46 566.58 1816.69 562.31 1816.51 557.86 C 1817.59 546.13 1820.85 534.74 1822.68 523.12 C 1823.46 517.65 1824.89 512.32 1826.14 506.95 C 1827.58 501.42 1827.90 495.62 1829.99 490.27 C 1833.80 480.19 1835.84 469.54 1839.80 459.51 C 1843.24 448.59 1849.25 438.79 1854.65 428.77 C 1859.59 420.77 1863.61 412.08 1870.05 405.09 C 1872.83 402.25 1874.89 398.69 1878.17 396.33 C 1882.73 392.90 1886.17 388.20 1890.82 384.86 C 1897.70 379.70 1904.78 374.78 1912.32 370.62 C 1918.99 365.79 1927.15 364.04 1934.74 361.18 C 1942.27 359.44 1949.46 356.44 1957.05 354.92 C 1961.47 354.46 1966.03 354.54 1970.24 352.83 M 1493.94 1412.05 C 1448.63 1501.95 1431.52 1605.03 1441.21 1704.98 C 1446.11 1757.15 1457.68 1808.63 1474.64 1858.18 C 1484.12 1886.17 1495.94 1913.32 1504.88 1941.50 C 1528.48 2013.90 1541.22 2089.61 1545.00 2165.59 C 1546.06 2192.03 1547.05 2218.53 1545.70 2244.99 C 1545.83 2258.65 1544.26 2272.25 1544.27 2285.92 C 1544.10 2285.30 1543.96 2284.71 1543.83 2284.15 C 1543.56 2294.78 1542.43 2305.36 1541.53 2315.95 C 1533.23 2406.37 1514.60 2495.73 1487.64 2582.40 C 1475.53 2620.85 1462.00 2658.93 1445.62 2695.78 C 1441.60 2705.31 1436.27 2714.22 1432.44 2723.82 C 1423.64 2744.03 1416.97 2765.06 1410.07 2785.97 C 1390.29 2849.86 1375.41 2915.44 1368.14 2981.97 C 1367.90 2980.98 1367.68 2980.01 1367.48 2979.10 C 1368.08 2983.46 1367.40 2987.86 1366.87 2992.22 C 1365.76 3004.11 1364.56 3016.00 1364.12 3027.95 C 1363.91 3026.96 1363.72 3026.00 1363.56 3025.09 C 1364.06 3031.38 1363.31 3037.69 1363.28 3044.01 C 1362.21 3058.64 1362.59 3073.33 1362.59 3088.00 C 1364.00 3157.69 1375.33 3228.19 1404.16 3292.09 C 1419.41 3326.30 1439.89 3358.19 1464.79 3386.18 C 1489.09 3413.26 1517.50 3436.57 1548.54 3455.52 C 1581.54 3475.62 1617.12 3491.05 1653.03 3505.12 C 1741.80 3538.81 1836.27 3556.71 1931.03 3560.57 C 1956.32 3562.04 1981.67 3561.33 2007.00 3561.57 C 2124.40 3561.47 2242.52 3541.27 2351.27 3496.27 C 2386.20 3481.73 2420.70 3465.50 2451.95 3443.97 C 2483.60 3422.31 2512.15 3395.95 2535.49 3365.47 C 2556.80 3337.91 2573.76 3307.11 2586.67 3274.79 C 2604.11 3230.81 2613.93 3184.08 2618.38 3137.07 C 2620.92 3107.13 2622.17 3077.02 2620.57 3047.00 C 2619.01 3000.99 2613.16 2955.18 2604.61 2909.96 C 2595.51 2862.56 2583.44 2815.72 2568.01 2769.99 C 2561.87 2751.08 2555.04 2732.37 2546.61 2714.37 C 2537.71 2697.33 2530.42 2679.53 2523.25 2661.72 C 2490.80 2578.61 2467.42 2492.02 2452.52 2404.07 C 2435.87 2303.56 2431.01 2200.72 2443.31 2099.45 C 2443.78 2094.34 2445.02 2089.27 2444.57 2084.12 C 2444.72 2085.06 2444.91 2086.03 2445.14 2087.03 C 2445.34 2083.34 2445.82 2079.70 2446.44 2076.08 C 2453.11 2030.97 2463.42 1986.38 2477.51 1943.01 C 2483.53 1923.81 2491.00 1905.11 2498.15 1886.31 C 2531.59 1800.33 2549.42 1707.44 2543.49 1615.08 C 2542.87 1602.71 2541.12 1590.43 2540.17 1578.10 C 2539.99 1578.65 2539.85 1579.23 2539.74 1579.83 C 2538.45 1563.84 2535.08 1548.08 2531.82 1532.39 C 2522.60 1490.72 2508.24 1450.19 2489.02 1412.07 C 2456.02 1411.90 2423.02 1412.05 2390.02 1412.00 C 2091.33 1412.03 1792.63 1411.94 1493.94 1412.05 Z" />
<path fill="#000000" opacity="1.00" d=" M 1516.18 1631.41 C 1523.10 1626.63 1531.77 1625.31 1540.02 1625.56 C 1647.69 1625.59 1755.37 1625.55 1863.04 1625.58 C 1872.59 1625.55 1882.54 1628.76 1889.06 1636.01 C 1897.12 1644.39 1899.03 1657.84 1893.86 1668.20 C 1889.93 1676.02 1882.52 1682.07 1874.01 1684.18 C 1868.14 1685.88 1861.98 1685.51 1855.96 1685.56 C 1754.98 1685.55 1654.00 1685.56 1553.02 1685.56 C 1545.67 1685.41 1538.31 1685.87 1530.99 1685.22 C 1519.81 1684.05 1509.31 1676.73 1505.15 1666.18 C 1501.90 1658.53 1503.15 1649.88 1505.80 1642.27 C 1505.86 1642.72 1505.95 1643.20 1506.05 1643.70 C 1507.68 1638.49 1511.89 1634.54 1516.18 1631.41 Z" />
<path fill="#000000" opacity="1.00" d=" M 1578.35 1882.57 C 1650.26 1882.25 1722.18 1882.53 1794.10 1882.42 C 1799.34 1882.09 1804.62 1883.94 1808.42 1887.61 C 1814.02 1893.22 1816.78 1901.16 1817.44 1908.95 C 1818.13 1918.78 1815.83 1929.51 1808.71 1936.72 C 1805.19 1940.43 1800.13 1942.50 1795.03 1942.41 C 1729.03 1942.44 1663.03 1942.41 1597.03 1942.42 C 1590.67 1942.28 1584.28 1942.71 1577.94 1942.19 C 1571.18 1941.39 1565.83 1936.25 1562.72 1930.49 C 1558.00 1921.32 1557.28 1910.30 1560.22 1900.47 C 1562.62 1892.01 1568.95 1883.40 1578.35 1882.57 Z" />
<path fill="#000000" opacity="1.00" d=" M 1627.84 2139.47 C 1638.51 2138.32 1649.26 2139.07 1659.97 2138.86 C 1720.64 2138.86 1781.31 2138.86 1841.98 2138.86 C 1853.70 2139.07 1865.47 2138.26 1877.15 2139.69 C 1884.89 2140.98 1891.02 2147.00 1894.13 2154.00 C 1898.56 2163.87 1898.42 2175.69 1893.65 2185.41 C 1890.63 2191.32 1885.53 2196.44 1879.02 2198.28 C 1875.41 2199.06 1871.68 2198.82 1868.03 2198.88 C 1791.00 2198.87 1713.97 2198.88 1636.95 2198.88 C 1632.36 2198.74 1627.63 2199.31 1623.20 2197.90 C 1614.31 2194.74 1608.65 2185.94 1606.86 2177.00 C 1605.08 2166.42 1606.66 2154.45 1614.35 2146.43 C 1617.81 2142.57 1622.66 2139.96 1627.84 2139.47 Z" />
<path fill="#000000" opacity="1.00" d=" M 1609.64 2396.12 C 1620.38 2395.36 1631.20 2395.98 1641.97 2395.79 C 1692.66 2395.78 1743.36 2395.78 1794.05 2395.79 C 1798.63 2395.85 1803.59 2396.62 1807.00 2400.01 C 1813.97 2406.65 1815.88 2416.81 1816.25 2426.05 C 1815.85 2435.06 1814.03 2444.88 1807.47 2451.55 C 1804.72 2454.27 1800.98 2456.04 1797.06 2455.77 C 1738.38 2455.81 1679.69 2455.78 1621.01 2455.79 C 1616.01 2455.61 1610.93 2456.25 1606.02 2455.22 C 1600.51 2453.06 1596.73 2447.96 1594.68 2442.60 C 1590.38 2431.37 1590.58 2418.41 1595.53 2407.43 C 1598.10 2401.79 1603.10 2396.49 1609.64 2396.12 Z" />
<path fill="#000000" opacity="1.00" d=" M 1556.32 2653.19 C 1566.84 2652.12 1577.45 2652.95 1588.01 2652.69 C 1675.35 2652.69 1762.69 2652.69 1850.03 2652.69 C 1859.27 2652.75 1869.18 2651.87 1877.59 2656.51 C 1885.24 2660.36 1890.50 2668.04 1892.35 2676.30 C 1893.31 2683.68 1892.98 2691.65 1888.91 2698.15 C 1883.78 2707.33 1873.34 2712.95 1862.89 2712.66 C 1764.93 2712.72 1666.97 2712.66 1569.01 2712.68 C 1561.85 2712.61 1554.35 2713.30 1547.67 2710.18 C 1536.80 2705.60 1529.43 2693.83 1530.29 2682.02 C 1529.84 2667.56 1541.95 2654.35 1556.32 2653.19 Z" />
<path fill="#000000" opacity="1.00" d=" M 1480.44 2909.64 C 1576.62 2909.49 1672.82 2909.62 1769.01 2909.57 C 1776.84 2909.40 1785.01 2911.70 1790.69 2917.33 C 1804.32 2929.74 1802.67 2955.00 1786.91 2964.94 C 1781.92 2968.21 1775.93 2969.72 1769.99 2969.56 C 1673.99 2969.57 1577.99 2969.58 1482.00 2969.55 C 1472.96 2969.88 1463.85 2965.75 1458.45 2958.44 C 1448.39 2945.57 1450.83 2924.63 1464.27 2915.04 C 1468.96 2911.65 1474.68 2909.88 1480.44 2909.64 Z" />
<path fill="#000000" opacity="1.00" d=" M 1461.93 3180.12 C 1469.04 3170.55 1481.33 3166.28 1492.93 3166.46 C 1608.96 3166.41 1724.99 3166.46 1841.02 3166.44 C 1850.11 3166.55 1859.55 3165.68 1868.18 3169.16 C 1878.69 3172.78 1887.13 3182.17 1888.79 3193.28 C 1889.98 3201.63 1886.12 3210.37 1880.10 3216.15 C 1872.54 3223.77 1861.38 3226.52 1850.93 3226.43 C 1736.96 3226.43 1622.99 3226.43 1509.02 3226.43 C 1498.60 3226.16 1487.83 3227.50 1477.79 3223.95 C 1470.34 3221.50 1463.82 3216.34 1459.82 3209.60 C 1454.51 3200.54 1455.31 3188.30 1461.93 3180.12 Z" />
</g>
</svg>
