<?xml version="1.0" encoding="UTF-8" ?>
<!DOCTYPE svg PUBLIC "-//W3C//DTD SVG 1.1//EN" "http://www.w3.org/Graphics/SVG/1.1/DTD/svg11.dtd">
<svg width="4000pt" height="4000pt" viewBox="0 0 4000 4000" version="1.1" xmlns="http://www.w3.org/2000/svg">
<g id="#000000ff">
<path fill="#000000" opacity="1.00" d=" M 1984.31 353.34 C 1987.25 351.13 1991.22 351.41 1994.73 351.31 C 1994.17 351.98 1993.61 352.62 1993.07 353.26 C 2000.59 354.07 2008.44 352.30 2015.68 355.07 C 2020.68 356.16 2025.94 356.26 2030.75 358.21 C 2034.46 359.57 2038.38 360.29 2042.14 361.55 C 2048.82 364.47 2055.42 367.59 2061.89 370.99 C 2068.78 375.57 2076.50 378.86 2082.84 384.28 C 2088.14 388.30 2091.98 393.79 2096.38 398.71 C 2102.57 405.36 2107.19 413.23 2112.56 420.53 C 2117.07 428.63 2121.44 436.87 2124.72 445.56 C 2126.70 451.03 2130.12 456.05 2130.78 461.95 C 2133.71 470.95 2137.40 479.73 2139.46 489.01 C 2139.88 492.09 2141.11 494.99 2141.79 498.02 C 2143.94 504.73 2144.56 511.79 2145.90 518.69 C 2147.93 526.80 2149.04 535.11 2150.23 543.36 C 2151.63 547.45 2151.52 551.83 2152.58 556.01 C 2154.11 561.56 2153.31 567.42 2154.61 573.03 C 2156.47 582.94 2156.52 593.06 2158.27 602.99 C 2158.61 606.04 2158.42 609.14 2159.04 612.17 C 2160.30 618.66 2158.97 625.29 2159.78 631.81 C 2160.63 637.17 2161.28 642.58 2161.53 648.01 C 2161.73 652.72 2161.09 657.48 2162.02 662.14 C 2162.98 667.17 2161.80 672.32 2162.60 677.37 C 2163.61 678.54 2165.14 679.06 2166.54 679.73 C 2176.27 683.74 2184.63 690.28 2193.87 695.22 C 2202.46 700.16 2210.43 706.11 2219.18 710.80 C 2231.65 718.57 2244.31 726.11 2255.94 735.15 C 2266.01 741.89 2274.91 750.17 2284.42 757.67 C 2292.44 764.15 2299.76 771.44 2307.23 778.53 C 2311.98 783.21 2316.21 788.38 2321.01 793.03 C 2326.00 797.74 2329.54 803.72 2334.53 808.45 C 2338.95 814.00 2343.75 819.28 2347.73 825.19 C 2350.53 829.62 2354.16 833.45 2357.21 837.71 C 2363.48 845.71 2367.93 854.93 2373.84 863.18 C 2380.39 874.89 2387.04 886.60 2392.58 898.84 C 2396.71 907.44 2401.17 915.91 2404.29 924.96 C 2408.29 935.07 2412.40 945.25 2414.81 955.87 C 2414.93 955.27 2415.08 954.69 2415.26 954.12 C 2416.04 961.76 2420.23 968.49 2421.06 976.12 C 2421.48 980.21 2423.53 983.95 2423.66 988.10 C 2423.80 989.83 2424.58 991.40 2425.28 993.00 C 2425.41 996.41 2426.71 999.62 2427.19 1002.99 C 2427.43 1008.20 2428.93 1013.20 2429.00 1018.43 C 2431.82 1024.24 2429.62 1030.82 2431.57 1036.84 C 2433.07 1042.26 2431.91 1047.95 2432.93 1053.45 C 2433.46 1056.59 2433.41 1059.79 2433.32 1062.98 C 2447.56 1063.03 2461.80 1062.99 2476.04 1063.00 C 2489.07 1063.11 2502.29 1062.29 2515.10 1065.25 C 2545.70 1071.62 2572.49 1093.38 2585.18 1121.92 C 2591.02 1134.79 2593.97 1148.92 2593.99 1163.05 C 2594.00 1212.69 2594.01 1262.34 2593.99 1311.99 C 2594.02 1332.26 2587.74 1352.51 2576.08 1369.10 C 2562.99 1388.00 2543.20 1402.10 2521.06 1408.30 C 2522.22 1412.35 2525.39 1415.40 2527.30 1419.12 C 2533.41 1429.81 2539.10 1440.74 2544.89 1451.61 C 2548.51 1459.54 2553.08 1467.03 2556.15 1475.21 C 2561.66 1488.33 2568.81 1500.72 2573.17 1514.33 C 2573.28 1514.82 2573.51 1515.78 2573.62 1516.26 C 2573.97 1517.58 2574.32 1518.94 2574.64 1520.33 C 2575.37 1522.28 2576.00 1524.29 2576.63 1526.31 C 2580.06 1538.26 2581.04 1550.72 2582.41 1563.03 C 2582.32 1567.04 2583.92 1570.99 2583.02 1575.00 C 2581.37 1583.66 2584.10 1592.28 2583.76 1600.98 C 2584.21 1611.67 2582.45 1622.34 2583.53 1633.00 C 2583.73 1638.34 2583.29 1643.68 2583.44 1649.03 C 2583.88 1656.78 2581.74 1664.35 2581.28 1672.06 C 2580.40 1676.32 2580.73 1680.79 2579.28 1684.95 C 2577.87 1689.15 2577.42 1693.56 2577.36 1697.98 C 2575.94 1701.50 2575.26 1705.28 2573.71 1708.77 C 2573.61 1709.29 2573.40 1710.35 2573.30 1710.88 C 2572.88 1711.84 2572.50 1712.82 2572.15 1713.82 C 2571.81 1714.81 2571.51 1715.83 2571.25 1716.86 C 2570.76 1718.17 2570.23 1719.46 2569.74 1720.78 C 2568.02 1726.52 2565.38 1731.94 2563.85 1737.76 C 2563.44 1738.74 2563.06 1739.75 2562.71 1740.78 C 2562.60 1741.31 2562.40 1742.36 2562.30 1742.88 C 2561.89 1743.83 2561.54 1744.80 2561.25 1745.80 C 2560.77 1746.82 2560.28 1747.84 2559.78 1748.86 C 2559.43 1749.84 2559.12 1750.84 2558.86 1751.86 C 2557.89 1754.20 2556.65 1756.45 2556.26 1758.99 C 2555.37 1760.90 2554.71 1762.90 2553.81 1764.81 C 2553.44 1765.77 2553.09 1766.75 2552.78 1767.76 C 2552.21 1769.42 2551.66 1771.10 2551.24 1772.83 C 2550.75 1774.19 2550.19 1775.54 2549.64 1776.90 C 2549.58 1777.40 2549.45 1778.40 2549.39 1778.90 C 2548.75 1780.12 2548.22 1781.40 2547.76 1782.72 C 2546.94 1785.46 2546.08 1788.22 2544.75 1790.78 C 2543.25 1796.88 2541.30 1802.97 2538.74 1808.70 C 2536.96 1814.12 2535.42 1819.66 2532.75 1824.74 C 2531.51 1828.46 2530.48 1832.27 2528.81 1835.83 C 2528.44 1836.80 2528.11 1837.80 2527.82 1838.82 C 2527.27 1840.52 2526.59 1842.18 2525.78 1843.79 C 2525.43 1844.77 2525.12 1845.77 2524.84 1846.79 C 2522.93 1851.65 2521.90 1856.78 2520.16 1861.70 C 2519.81 1862.78 2519.51 1863.89 2519.27 1865.02 C 2515.02 1877.97 2510.71 1890.93 2507.25 1904.12 C 2504.64 1911.68 2502.25 1919.34 2499.75 1926.95 C 2497.42 1932.43 2496.72 1938.41 2494.75 1944.00 C 2494.45 1945.31 2494.21 1946.68 2493.82 1948.01 C 2492.52 1953.01 2491.04 1957.96 2489.74 1962.95 C 2489.21 1965.03 2488.69 1967.11 2488.22 1969.22 C 2486.95 1972.37 2487.01 1975.90 2485.62 1979.01 C 2485.54 1979.56 2485.39 1980.65 2485.31 1981.19 C 2482.88 1988.64 2482.31 1996.61 2479.68 2003.99 C 2478.86 2008.69 2477.86 2013.42 2476.62 2018.00 C 2476.51 2018.98 2476.43 2020.00 2476.40 2021.04 C 2475.09 2022.76 2475.58 2025.00 2475.38 2027.03 C 2474.00 2031.13 2473.70 2035.69 2473.37 2040.05 C 2472.07 2041.76 2472.55 2043.98 2472.37 2046.01 C 2471.35 2047.47 2471.46 2049.26 2471.33 2050.98 C 2469.97 2054.81 2470.18 2059.07 2469.18 2063.04 C 2468.05 2066.90 2468.87 2071.03 2467.63 2074.88 C 2467.41 2076.57 2467.57 2078.46 2466.62 2080.00 C 2466.85 2085.07 2465.11 2089.93 2465.41 2095.01 C 2465.42 2096.06 2465.14 2097.04 2464.57 2097.97 C 2463.98 2101.24 2465.18 2104.88 2463.57 2107.95 C 2463.19 2110.60 2464.04 2113.58 2462.61 2116.03 C 2462.43 2118.35 2462.39 2120.71 2462.22 2123.06 C 2460.76 2126.84 2461.93 2131.02 2460.77 2134.90 C 2459.67 2139.16 2461.56 2143.94 2459.57 2147.98 C 2459.17 2150.98 2460.02 2154.24 2458.65 2157.09 C 2457.94 2183.06 2458.48 2209.06 2458.35 2235.05 C 2458.45 2238.35 2457.96 2241.84 2459.32 2244.99 C 2459.54 2249.65 2457.64 2254.25 2458.68 2258.98 C 2460.27 2265.18 2458.76 2271.66 2460.17 2277.90 C 2460.81 2281.91 2460.25 2286.00 2460.69 2290.06 C 2462.33 2294.85 2460.76 2300.04 2462.16 2304.92 C 2463.31 2310.17 2461.47 2315.88 2463.43 2320.95 C 2463.65 2323.94 2463.20 2327.09 2464.38 2329.97 C 2464.68 2334.32 2465.11 2338.81 2466.38 2342.98 C 2466.61 2344.95 2466.31 2347.16 2467.40 2348.98 C 2467.74 2353.66 2468.39 2358.35 2469.37 2362.94 C 2470.78 2374.70 2473.53 2386.28 2474.77 2398.06 C 2476.36 2402.21 2475.91 2406.85 2477.36 2411.00 C 2477.54 2412.96 2477.19 2415.16 2478.32 2416.95 C 2478.62 2420.34 2479.16 2423.75 2480.30 2427.00 C 2480.66 2433.19 2482.92 2439.04 2483.79 2445.15 C 2485.60 2451.68 2486.61 2458.42 2488.25 2465.00 C 2488.95 2468.32 2489.29 2471.72 2490.23 2475.02 C 2490.88 2478.00 2491.12 2481.11 2492.27 2484.00 C 2492.54 2487.38 2493.22 2490.73 2494.26 2493.99 C 2495.02 2497.34 2495.98 2500.65 2496.73 2504.04 C 2498.06 2507.20 2497.93 2510.78 2499.28 2513.97 C 2503.37 2530.44 2507.70 2546.86 2512.73 2563.08 C 2516.22 2576.10 2520.59 2588.91 2523.74 2602.05 C 2525.41 2607.67 2527.43 2613.19 2529.20 2618.80 C 2530.47 2622.10 2530.88 2625.67 2532.24 2628.97 C 2533.15 2631.57 2534.01 2634.19 2534.82 2636.86 C 2535.13 2637.82 2535.45 2638.81 2535.80 2639.83 C 2537.18 2643.81 2537.68 2648.06 2539.27 2652.00 C 2540.31 2657.15 2542.65 2661.93 2543.80 2667.08 C 2545.19 2673.89 2548.05 2680.28 2549.80 2687.01 C 2550.13 2687.97 2550.46 2688.96 2550.79 2690.00 C 2551.22 2691.63 2551.71 2693.34 2552.22 2695.02 C 2552.49 2696.03 2552.81 2697.07 2553.19 2698.12 C 2553.88 2700.39 2554.29 2702.77 2555.26 2705.00 C 2555.61 2706.69 2556.04 2708.42 2556.75 2710.07 C 2557.73 2712.60 2557.97 2715.37 2558.75 2718.01 C 2562.10 2728.67 2565.85 2739.22 2568.74 2750.02 C 2570.59 2755.65 2572.37 2761.33 2574.24 2766.98 C 2574.53 2767.96 2574.85 2768.96 2575.20 2770.00 C 2575.51 2770.99 2575.85 2772.01 2576.22 2773.06 C 2576.48 2774.06 2576.80 2775.08 2577.16 2776.13 C 2577.46 2777.14 2577.81 2778.18 2578.19 2779.24 C 2578.49 2780.21 2578.83 2781.20 2579.20 2782.22 C 2579.49 2783.19 2579.83 2784.19 2580.20 2785.21 C 2582.41 2792.54 2584.63 2799.87 2586.76 2807.23 C 2592.22 2822.99 2596.89 2839.01 2602.19 2854.84 C 2602.47 2855.80 2602.81 2856.80 2603.19 2857.84 C 2603.85 2859.87 2604.44 2861.94 2605.27 2863.97 C 2608.27 2873.28 2611.60 2882.60 2613.76 2892.20 C 2615.10 2895.38 2615.62 2898.87 2617.32 2901.95 C 2620.53 2913.15 2624.03 2924.29 2627.19 2935.52 C 2630.68 2945.43 2630.34 2956.23 2633.97 2966.13 C 2636.22 2977.25 2637.59 2988.54 2640.01 2999.64 C 2641.87 3007.69 2641.48 3015.96 2642.63 3024.11 C 2644.45 3035.33 2643.74 3046.81 2645.61 3058.04 C 2647.15 3068.30 2648.32 3078.62 2649.41 3088.94 C 2649.66 3096.28 2649.44 3103.64 2649.67 3111.00 C 2649.97 3117.69 2651.56 3124.25 2652.35 3130.89 C 2652.67 3143.58 2652.29 3156.31 2653.30 3168.98 C 2653.70 3174.33 2652.46 3179.62 2652.59 3184.98 C 2652.51 3188.62 2652.54 3192.28 2652.25 3195.95 C 2650.76 3199.13 2652.28 3202.88 2650.66 3206.02 C 2650.60 3213.77 2649.49 3221.54 2647.75 3229.09 C 2647.47 3230.70 2647.51 3232.48 2646.74 3234.03 C 2646.64 3239.64 2643.80 3244.68 2643.25 3250.21 C 2642.83 3251.16 2642.46 3252.15 2642.13 3253.19 C 2641.67 3254.82 2641.29 3256.51 2640.77 3258.18 C 2639.88 3261.39 2639.80 3264.81 2638.75 3268.01 C 2638.06 3272.07 2637.17 3276.10 2636.22 3280.14 C 2635.15 3285.28 2632.93 3290.08 2631.91 3295.25 C 2631.27 3297.84 2630.75 3300.49 2629.71 3302.98 C 2629.20 3305.74 2628.26 3308.42 2627.19 3311.04 C 2626.51 3312.27 2626.46 3313.66 2626.36 3315.09 C 2625.73 3316.04 2625.19 3317.07 2624.74 3318.16 C 2624.42 3319.14 2624.08 3320.14 2623.71 3321.15 C 2623.60 3321.66 2623.38 3322.69 2623.26 3323.20 C 2622.29 3326.53 2621.46 3329.91 2620.16 3333.17 C 2619.32 3336.57 2618.36 3339.94 2617.20 3343.29 C 2616.44 3345.19 2615.77 3347.15 2615.26 3349.18 C 2614.70 3350.37 2614.23 3351.68 2613.69 3352.94 C 2613.09 3354.60 2612.51 3356.31 2611.69 3357.92 C 2610.72 3360.24 2609.77 3362.59 2608.70 3364.89 C 2607.49 3367.62 2606.16 3370.32 2604.73 3372.98 C 2604.48 3373.48 2603.96 3374.48 2603.71 3374.99 C 2602.65 3377.77 2600.89 3380.29 2600.23 3383.25 C 2599.68 3384.13 2599.14 3385.04 2598.63 3385.98 C 2598.12 3387.33 2597.67 3388.73 2597.28 3390.19 C 2596.67 3391.05 2596.13 3391.96 2595.66 3392.94 C 2595.42 3393.45 2594.96 3394.46 2594.72 3394.96 C 2593.82 3396.97 2592.77 3398.92 2591.67 3400.85 C 2589.21 3406.94 2585.19 3412.09 2582.26 3417.95 C 2581.26 3419.93 2580.01 3421.83 2579.35 3424.00 C 2574.03 3431.42 2567.80 3438.29 2563.48 3446.39 C 2562.13 3448.11 2560.66 3449.80 2560.23 3452.04 C 2557.71 3453.68 2556.91 3456.79 2554.60 3458.64 C 2550.56 3461.96 2547.98 3466.71 2543.50 3469.54 C 2537.89 3472.96 2535.33 3479.77 2529.45 3482.82 C 2524.74 3487.98 2518.43 3491.16 2512.95 3495.30 C 2509.11 3496.93 2505.70 3499.44 2501.99 3501.32 C 2500.88 3501.77 2499.80 3502.24 2498.75 3502.77 C 2497.83 3503.24 2496.93 3503.76 2496.06 3504.32 C 2492.96 3505.34 2490.39 3507.84 2486.96 3507.70 C 2484.97 3509.65 2482.21 3510.57 2480.10 3512.41 C 2478.89 3512.74 2477.75 3513.18 2476.64 3513.67 C 2473.70 3515.53 2470.80 3517.46 2468.01 3519.54 C 2467.38 3519.52 2466.13 3519.49 2465.50 3519.47 L 2465.51 3520.52 C 2462.89 3520.50 2460.42 3521.34 2458.16 3522.57 C 2456.95 3522.52 2455.76 3522.50 2454.61 3522.52 L 2454.54 3523.52 C 2450.99 3523.90 2447.96 3525.93 2444.53 3526.68 L 2444.45 3527.39 C 2442.80 3527.65 2441.24 3528.33 2440.11 3529.56 C 2439.51 3529.58 2438.30 3529.61 2437.70 3529.63 C 2435.67 3531.37 2433.14 3532.33 2430.51 3532.64 L 2430.51 3533.77 C 2429.77 3533.67 2428.29 3533.46 2427.55 3533.36 L 2427.53 3534.58 C 2426.19 3534.24 2425.06 3534.51 2424.13 3535.38 C 2422.33 3536.12 2420.41 3536.48 2418.50 3536.58 L 2418.57 3537.52 C 2416.65 3537.18 2415.21 3538.25 2413.83 3539.36 C 2412.46 3539.49 2411.14 3539.47 2409.83 3539.55 C 2409.09 3542.42 2405.70 3541.15 2403.53 3541.56 L 2403.56 3542.50 C 2399.36 3542.85 2395.80 3545.73 2391.54 3545.58 L 2391.52 3546.45 C 2389.25 3547.21 2386.90 3547.64 2384.52 3547.54 L 2384.51 3548.67 C 2382.80 3548.51 2381.17 3548.49 2379.52 3548.42 L 2379.51 3549.72 C 2378.16 3549.58 2376.84 3549.47 2375.55 3549.40 L 2375.53 3550.72 C 2374.17 3550.57 2372.83 3550.45 2371.53 3550.38 L 2371.54 3551.74 C 2370.80 3551.66 2369.31 3551.50 2368.56 3551.41 L 2368.45 3552.77 C 2367.73 3552.66 2366.27 3552.45 2365.54 3552.35 L 2365.53 3553.43 C 2364.30 3553.59 2363.15 3553.95 2362.07 3554.49 C 2360.87 3554.46 2359.70 3554.46 2358.55 3554.48 L 2358.58 3555.55 C 2355.09 3555.74 2352.12 3558.10 2348.54 3557.58 L 2348.55 3558.59 C 2347.03 3558.16 2345.89 3558.53 2345.13 3559.71 C 2344.73 3559.60 2343.94 3559.40 2343.55 3559.29 L 2343.54 3560.48 C 2340.40 3560.66 2337.75 3562.89 2334.55 3562.57 L 2334.55 3563.77 C 2334.06 3563.68 2333.07 3563.49 2332.58 3563.39 L 2332.49 3564.46 C 2331.30 3564.53 2330.18 3564.81 2329.13 3565.29 C 2327.36 3566.16 2325.43 3566.43 2323.51 3566.57 L 2323.54 3567.67 C 2321.82 3567.52 2320.18 3567.49 2318.52 3567.43 L 2318.54 3568.74 C 2317.18 3568.58 2315.85 3568.46 2314.54 3568.39 L 2314.52 3569.71 C 2313.16 3569.57 2311.84 3569.47 2310.55 3569.42 L 2310.53 3570.64 C 2308.34 3570.60 2305.79 3569.89 2304.02 3571.56 C 2302.83 3571.48 2301.67 3571.44 2300.54 3571.42 L 2300.53 3572.56 C 2298.68 3572.71 2296.43 3571.89 2295.06 3573.52 C 2293.51 3573.49 2292.02 3573.50 2290.53 3573.45 L 2290.51 3574.66 C 2288.80 3574.50 2287.16 3574.47 2285.51 3574.41 L 2285.53 3575.61 C 2283.18 3575.50 2280.87 3575.50 2278.56 3575.49 L 2278.53 3576.61 C 2276.66 3576.65 2274.52 3575.96 2273.04 3577.43 C 2271.35 3577.60 2269.47 3577.15 2268.09 3578.37 C 2266.94 3578.37 2265.93 3578.72 2265.07 3579.41 C 2263.31 3579.40 2261.59 3579.52 2260.11 3580.50 C 2258.89 3580.46 2257.70 3580.45 2256.54 3580.47 L 2256.52 3581.76 C 2255.78 3581.66 2254.28 3581.46 2253.54 3581.36 L 2253.54 3582.68 C 2251.49 3582.52 2249.50 3582.48 2247.49 3582.42 L 2247.56 3583.62 C 2243.75 3582.71 2240.29 3585.20 2236.55 3584.43 L 2236.46 3585.62 C 2234.77 3585.49 2233.15 3585.47 2231.52 3585.44 L 2231.54 3586.67 C 2229.82 3586.51 2228.18 3586.49 2226.52 3586.43 L 2226.55 3587.68 C 2224.82 3587.51 2223.17 3587.48 2221.50 3587.41 L 2221.54 3588.69 C 2219.82 3588.52 2218.18 3588.49 2216.52 3588.42 L 2216.50 3589.71 C 2215.15 3589.56 2213.83 3589.45 2212.54 3589.38 L 2212.55 3590.57 C 2210.63 3590.39 2208.72 3590.38 2207.10 3591.47 C 2205.54 3591.45 2204.05 3591.49 2202.55 3591.51 L 2202.52 3592.66 C 2200.16 3592.52 2197.83 3592.49 2195.52 3592.47 L 2195.52 3593.64 C 2192.50 3593.52 2189.51 3593.50 2186.53 3593.48 L 2186.53 3594.62 C 2184.16 3594.51 2181.84 3594.50 2179.51 3594.47 L 2179.55 3595.65 C 2177.18 3595.51 2174.85 3595.49 2172.52 3595.47 L 2172.55 3596.68 C 2170.50 3596.52 2168.51 3596.49 2166.51 3596.43 L 2166.53 3597.62 C 2163.84 3597.49 2161.18 3597.49 2158.53 3597.47 L 2158.48 3598.58 C 2154.81 3598.50 2151.16 3598.52 2147.52 3598.49 L 2147.55 3599.64 C 2143.20 3599.45 2138.85 3599.60 2134.52 3599.47 L 2134.55 3600.61 C 2130.86 3600.50 2127.18 3600.52 2123.51 3600.49 L 2123.52 3601.61 C 2120.82 3601.53 2118.15 3601.55 2115.48 3601.48 L 2115.51 3602.64 C 2112.69 3602.58 2109.68 3601.95 2107.13 3603.44 C 2102.94 3603.59 2098.75 3603.51 2094.58 3603.53 L 2094.49 3604.65 C 2085.50 3604.37 2076.52 3604.67 2067.54 3604.48 L 2067.50 3605.60 C 2064.49 3605.51 2061.51 3605.51 2058.53 3605.48 L 2058.53 3606.61 C 2051.33 3606.41 2044.14 3606.58 2036.95 3606.50 C 2035.35 3606.09 2034.49 3607.25 2034.09 3608.66 C 2027.91 3607.22 2021.11 3606.59 2015.00 3608.36 C 2008.37 3608.93 2001.43 3606.00 1994.96 3608.41 C 1992.97 3608.48 1991.00 3608.45 1989.06 3608.30 C 1982.86 3606.46 1976.21 3607.54 1969.96 3608.56 C 1969.74 3608.10 1969.31 3607.18 1969.09 3606.72 C 1963.08 3606.20 1957.01 3606.66 1950.99 3606.53 C 1948.33 3606.33 1945.42 3607.07 1943.06 3605.61 C 1939.99 3605.42 1936.92 3605.54 1933.87 3605.37 C 1930.76 3604.07 1927.01 3603.87 1924.00 3605.50 C 1918.63 3603.14 1912.47 3605.52 1906.86 3604.18 C 1902.30 3602.83 1897.51 3603.83 1892.86 3603.38 C 1890.28 3601.98 1887.30 3602.48 1884.54 3602.59 L 1884.49 3601.44 C 1882.01 3601.46 1879.35 3601.89 1877.12 3600.63 C 1873.39 3600.34 1869.67 3600.61 1865.96 3600.38 C 1862.61 3598.31 1858.31 3600.73 1855.06 3598.59 C 1852.30 3598.45 1849.56 3598.50 1846.83 3598.40 C 1844.36 3597.05 1841.50 3597.51 1838.84 3597.39 C 1836.13 3595.62 1832.60 3597.43 1830.03 3595.59 C 1827.38 3595.21 1824.31 3596.28 1822.04 3594.58 C 1819.96 3594.48 1817.89 3594.45 1815.85 3594.41 C 1812.74 3592.63 1809.15 3594.14 1805.89 3593.19 C 1803.19 3592.31 1800.34 3592.36 1797.56 3592.57 L 1797.47 3591.38 C 1796.83 3591.41 1795.54 3591.45 1794.89 3591.48 C 1791.12 3589.92 1786.94 3589.99 1783.09 3588.78 C 1779.98 3587.85 1776.78 3587.11 1773.54 3587.58 L 1773.49 3586.36 C 1772.16 3586.41 1770.85 3586.51 1769.57 3586.66 L 1769.48 3585.44 C 1765.26 3585.76 1760.95 3584.88 1757.01 3583.60 C 1755.01 3583.33 1752.71 3583.98 1751.05 3582.65 C 1749.67 3582.34 1747.99 3582.72 1747.05 3581.50 C 1745.84 3581.48 1744.66 3581.53 1743.51 3581.64 L 1743.51 3580.62 C 1740.85 3580.02 1738.23 3579.08 1735.49 3579.60 L 1735.53 3578.59 C 1733.00 3578.01 1730.37 3577.71 1728.04 3576.61 C 1726.05 3576.29 1723.61 3577.14 1722.08 3575.59 C 1718.36 3575.35 1714.56 3574.81 1711.05 3573.68 C 1709.69 3573.36 1708.10 3573.69 1707.08 3572.67 C 1704.05 3572.10 1700.79 3572.05 1698.06 3570.60 C 1696.38 3570.25 1694.16 3571.09 1693.06 3569.47 C 1691.86 3569.47 1690.68 3569.53 1689.53 3569.65 L 1689.50 3568.36 C 1688.17 3568.41 1686.87 3568.51 1685.58 3568.65 L 1685.45 3567.38 C 1684.12 3567.43 1682.81 3567.53 1681.52 3567.66 L 1681.53 3566.58 C 1679.18 3566.14 1676.90 3565.30 1674.50 3565.50 L 1674.49 3564.31 C 1673.76 3564.42 1672.30 3564.62 1671.57 3564.73 L 1671.48 3563.33 C 1670.98 3563.43 1669.99 3563.63 1669.50 3563.73 L 1669.51 3562.54 C 1668.07 3562.74 1666.92 3562.38 1666.05 3561.45 C 1665.41 3561.52 1664.13 3561.66 1663.50 3561.73 L 1663.50 3560.33 C 1662.76 3560.43 1661.28 3560.62 1660.54 3560.71 L 1660.48 3559.33 C 1659.74 3559.43 1658.28 3559.61 1657.55 3559.70 L 1657.50 3558.33 C 1656.76 3558.42 1655.29 3558.60 1654.56 3558.70 L 1654.51 3557.58 C 1652.21 3556.99 1649.91 3556.38 1647.54 3556.49 L 1647.47 3555.36 C 1646.14 3555.42 1644.83 3555.53 1643.54 3555.67 L 1643.47 3554.32 C 1642.73 3554.42 1641.25 3554.62 1640.50 3554.72 L 1640.47 3553.29 C 1639.73 3553.41 1638.25 3553.66 1637.51 3553.79 L 1637.47 3552.38 C 1636.74 3552.46 1635.28 3552.61 1634.55 3552.69 L 1634.44 3551.39 C 1633.13 3551.43 1631.84 3551.51 1630.57 3551.64 L 1630.51 3550.59 C 1628.20 3549.96 1625.89 3549.38 1623.51 3549.50 L 1623.48 3548.54 C 1621.96 3548.34 1620.20 3548.72 1619.04 3547.54 C 1617.84 3547.50 1616.66 3547.53 1615.51 3547.61 L 1615.49 3546.30 C 1614.75 3546.42 1613.25 3546.65 1612.51 3546.77 L 1612.47 3545.34 C 1611.73 3545.44 1610.25 3545.64 1609.50 3545.74 L 1609.49 3544.33 C 1608.74 3544.43 1607.26 3544.64 1606.51 3544.75 L 1606.48 3543.34 C 1605.74 3543.43 1604.28 3543.62 1603.54 3543.71 L 1603.51 3542.57 C 1601.50 3542.43 1599.40 3542.13 1598.13 3540.44 C 1596.91 3540.45 1595.71 3540.52 1594.54 3540.64 L 1594.48 3539.27 C 1593.98 3539.40 1592.97 3539.67 1592.47 3539.80 L 1592.49 3538.35 C 1591.76 3538.43 1590.29 3538.59 1589.56 3538.68 L 1589.45 3537.32 C 1588.72 3537.43 1587.26 3537.65 1586.53 3537.76 L 1586.46 3536.43 C 1585.98 3536.48 1585.02 3536.57 1584.54 3536.61 L 1584.46 3535.37 C 1583.25 3535.41 1582.06 3535.49 1580.88 3535.62 C 1579.98 3534.88 1579.08 3534.20 1578.19 3533.58 C 1576.32 3533.45 1574.64 3532.63 1573.27 3531.45 C 1572.58 3531.51 1571.22 3531.63 1570.53 3531.70 L 1570.48 3530.33 C 1569.98 3530.43 1568.97 3530.65 1568.47 3530.76 L 1568.47 3529.32 C 1567.73 3529.43 1566.26 3529.64 1565.52 3529.74 L 1565.50 3528.34 C 1565.01 3528.43 1564.04 3528.61 1563.55 3528.69 L 1563.47 3527.34 C 1562.98 3527.44 1562.00 3527.63 1561.51 3527.73 L 1561.44 3526.33 C 1560.96 3526.44 1559.98 3526.66 1559.49 3526.77 L 1559.45 3525.30 C 1558.96 3525.43 1557.98 3525.69 1557.49 3525.82 L 1557.46 3524.38 C 1556.72 3524.46 1555.25 3524.64 1554.52 3524.73 L 1554.48 3523.33 C 1553.98 3523.43 1552.99 3523.64 1552.49 3523.74 L 1552.52 3522.59 C 1551.21 3522.60 1550.05 3522.26 1549.04 3521.57 C 1547.45 3521.37 1545.82 3521.35 1544.36 3522.08 C 1548.92 3522.37 1552.86 3524.67 1557.04 3526.25 C 1558.14 3526.67 1559.25 3527.16 1560.40 3527.66 C 1564.61 3530.60 1569.74 3531.44 1574.34 3533.47 C 1571.14 3533.77 1568.62 3531.50 1565.56 3531.16 C 1561.68 3528.78 1557.49 3527.09 1553.31 3525.40 C 1549.72 3523.05 1544.86 3523.76 1541.64 3520.82 C 1540.05 3520.13 1538.28 3520.43 1536.63 3520.36 L 1536.63 3519.43 C 1535.04 3519.03 1533.51 3518.49 1532.17 3517.64 C 1528.30 3515.93 1525.45 3512.51 1521.48 3511.06 C 1517.19 3509.77 1514.25 3505.58 1509.59 3505.27 L 1509.47 3504.59 C 1508.88 3504.38 1507.70 3503.95 1507.11 3503.74 C 1506.63 3503.46 1505.65 3502.91 1505.17 3502.63 C 1504.68 3502.38 1503.70 3501.88 1503.21 3501.63 C 1499.33 3499.98 1496.16 3497.12 1492.23 3495.64 C 1489.25 3493.01 1485.10 3492.46 1482.44 3489.46 C 1478.56 3487.12 1474.49 3484.89 1471.38 3481.54 C 1467.13 3480.26 1464.72 3476.29 1461.54 3473.52 C 1459.05 3470.30 1456.14 3467.49 1453.27 3464.65 C 1448.67 3462.41 1446.40 3457.56 1442.50 3454.49 C 1438.58 3451.32 1436.57 3446.60 1433.63 3442.66 C 1430.61 3438.03 1427.00 3433.86 1423.90 3429.31 C 1421.91 3426.29 1418.78 3424.20 1417.25 3420.91 C 1414.67 3418.82 1412.94 3415.99 1412.33 3412.75 C 1411.72 3411.84 1411.15 3410.97 1410.60 3410.12 C 1409.58 3407.61 1407.75 3405.57 1406.67 3403.13 C 1405.66 3401.41 1404.62 3399.74 1403.63 3398.08 C 1403.41 3397.57 1402.96 3396.56 1402.74 3396.06 C 1401.26 3393.79 1399.93 3391.45 1398.69 3389.10 C 1397.24 3387.14 1396.20 3384.94 1395.22 3382.78 C 1394.18 3381.28 1393.46 3379.62 1392.72 3378.04 C 1391.14 3373.84 1388.85 3370.02 1387.20 3365.89 C 1385.44 3362.55 1383.39 3359.39 1381.69 3356.04 C 1381.10 3354.61 1380.47 3353.23 1379.68 3351.99 C 1379.44 3351.52 1378.94 3350.57 1378.70 3350.09 C 1376.39 3346.25 1374.41 3342.24 1372.69 3338.13 C 1372.08 3336.70 1371.56 3335.25 1370.65 3334.06 C 1370.10 3332.65 1369.65 3331.24 1369.23 3329.88 C 1368.16 3328.34 1367.47 3326.64 1366.74 3325.01 C 1366.52 3323.87 1366.15 3322.84 1365.63 3321.90 C 1365.57 3321.40 1365.45 3320.38 1365.39 3319.87 C 1364.22 3318.37 1363.51 3316.64 1362.74 3314.99 C 1362.44 3313.91 1362.15 3312.86 1361.85 3311.86 C 1361.49 3310.82 1361.15 3309.82 1360.83 3308.85 C 1360.47 3307.87 1360.09 3306.93 1359.72 3306.05 C 1359.14 3304.62 1358.64 3303.20 1358.22 3301.81 C 1357.39 3299.84 1356.84 3297.82 1356.25 3295.85 C 1355.03 3294.01 1354.62 3291.86 1353.75 3289.93 C 1352.89 3285.76 1350.79 3281.95 1350.28 3277.73 C 1349.34 3276.16 1348.63 3274.51 1348.22 3272.81 C 1346.10 3269.54 1346.38 3265.44 1344.76 3262.00 C 1344.49 3260.93 1344.17 3259.92 1343.79 3258.97 C 1342.75 3255.23 1341.77 3251.48 1341.14 3247.68 C 1340.06 3241.89 1337.36 3236.58 1336.19 3230.84 C 1335.84 3229.82 1335.53 3228.83 1335.24 3227.88 C 1334.72 3226.51 1334.26 3225.24 1333.72 3223.98 C 1333.05 3221.63 1332.52 3219.24 1332.20 3216.87 C 1331.69 3215.16 1331.27 3213.49 1330.82 3211.84 C 1330.46 3210.82 1330.11 3209.83 1329.78 3208.87 C 1329.48 3207.44 1329.25 3206.10 1328.73 3204.83 C 1328.53 3203.47 1328.38 3202.19 1328.24 3200.94 C 1327.60 3198.94 1327.28 3196.92 1326.68 3194.97 C 1326.46 3190.52 1325.89 3186.08 1324.75 3181.80 C 1324.50 3179.81 1324.43 3177.85 1323.66 3176.04 C 1323.47 3173.66 1323.56 3171.27 1322.66 3169.07 C 1322.51 3163.00 1321.14 3157.04 1321.44 3150.97 C 1321.78 3144.25 1320.37 3137.65 1320.62 3130.96 C 1320.64 3122.96 1320.12 3114.96 1320.54 3106.99 C 1322.38 3096.79 1321.58 3086.38 1321.57 3076.09 C 1321.01 3061.32 1323.21 3046.68 1324.43 3032.01 C 1324.60 3025.30 1324.19 3018.60 1324.52 3011.91 C 1325.33 3005.64 1325.87 2999.34 1326.28 2993.05 C 1325.61 2982.30 1329.09 2971.95 1329.93 2961.33 C 1331.31 2954.90 1331.42 2948.23 1333.57 2941.98 C 1335.67 2935.50 1335.76 2928.61 1337.21 2922.04 C 1337.82 2918.62 1339.14 2915.39 1339.70 2911.99 C 1341.26 2907.36 1342.43 2902.61 1343.76 2897.94 C 1345.18 2892.62 1346.57 2887.28 1348.27 2882.08 C 1348.75 2880.67 1349.23 2879.28 1349.82 2877.97 C 1350.16 2876.96 1350.49 2875.97 1350.80 2875.01 C 1351.12 2873.99 1351.44 2872.99 1351.75 2872.01 C 1353.74 2865.64 1355.93 2859.33 1357.70 2852.91 C 1362.60 2839.13 1366.46 2824.99 1371.24 2811.16 C 1372.17 2807.02 1373.57 2803.01 1374.76 2798.96 C 1375.17 2797.96 1375.50 2796.97 1375.74 2795.97 C 1376.85 2792.99 1377.66 2789.92 1378.69 2786.94 C 1380.47 2781.32 1382.10 2775.64 1383.72 2769.98 C 1387.28 2758.92 1391.01 2747.92 1394.72 2736.92 C 1395.79 2734.73 1396.13 2732.29 1396.70 2729.97 C 1397.94 2726.73 1398.86 2723.37 1399.75 2720.04 C 1403.75 2709.53 1407.14 2698.79 1410.03 2687.94 C 1410.79 2685.24 1411.09 2682.40 1412.33 2679.89 C 1412.43 2679.36 1412.62 2678.29 1412.71 2677.75 C 1414.46 2672.84 1416.11 2667.89 1417.74 2662.94 C 1419.58 2658.14 1420.21 2652.94 1422.35 2648.25 C 1422.41 2647.68 1422.53 2646.56 1422.59 2646.00 C 1425.13 2639.47 1426.60 2632.58 1428.68 2625.91 C 1430.22 2621.99 1431.45 2617.93 1432.68 2613.91 C 1433.70 2612.02 1433.94 2609.87 1434.68 2607.91 C 1437.54 2599.31 1440.82 2590.77 1442.75 2581.89 C 1443.74 2579.63 1444.30 2577.24 1444.74 2574.85 C 1446.34 2570.57 1447.42 2566.12 1448.78 2561.78 C 1450.57 2556.91 1451.43 2551.75 1453.24 2546.91 C 1453.79 2544.87 1454.29 2542.84 1454.79 2540.83 C 1456.31 2534.76 1458.35 2528.83 1459.79 2522.76 C 1460.78 2519.83 1461.06 2516.70 1462.26 2513.86 C 1462.55 2511.76 1463.05 2509.73 1463.79 2507.78 C 1464.25 2506.16 1464.68 2504.57 1465.24 2503.02 C 1465.73 2500.93 1466.24 2498.85 1466.75 2496.79 C 1468.09 2494.00 1468.10 2490.84 1469.28 2488.03 C 1470.13 2483.32 1471.22 2478.65 1472.26 2474.01 C 1472.82 2470.97 1473.16 2467.86 1474.36 2465.00 C 1474.49 2463.28 1474.37 2461.51 1475.26 2460.00 C 1475.66 2457.54 1476.20 2455.13 1476.79 2452.75 C 1479.04 2444.93 1479.85 2436.76 1482.30 2429.01 C 1483.29 2422.92 1484.79 2416.93 1485.79 2410.86 C 1488.13 2405.39 1486.80 2399.26 1489.12 2393.84 C 1489.76 2390.23 1489.52 2386.49 1490.81 2383.00 C 1491.61 2381.07 1491.51 2379.00 1491.64 2377.00 C 1492.71 2375.14 1492.54 2372.99 1492.70 2370.97 C 1493.07 2369.60 1493.39 2368.24 1493.73 2366.92 C 1494.73 2365.08 1494.33 2362.89 1494.58 2360.94 C 1495.90 2358.85 1495.26 2356.24 1495.57 2353.95 C 1496.84 2351.80 1496.14 2349.21 1496.62 2346.90 C 1497.06 2344.93 1497.42 2342.93 1497.67 2340.96 C 1498.62 2339.11 1498.35 2336.94 1498.62 2334.98 C 1499.80 2332.87 1499.32 2330.34 1499.64 2328.07 C 1500.90 2325.56 1500.28 2322.65 1500.59 2319.99 C 1502.06 2317.21 1501.14 2313.94 1501.58 2310.98 C 1503.45 2307.28 1501.63 2302.92 1502.74 2299.04 C 1503.84 2295.08 1503.13 2290.94 1503.58 2286.93 C 1505.28 2282.12 1503.94 2276.88 1504.59 2271.92 C 1506.26 2266.79 1504.87 2261.23 1505.60 2255.96 C 1506.81 2253.10 1506.33 2249.91 1506.37 2246.92 C 1504.40 2243.94 1505.82 2240.04 1505.45 2236.70 C 1506.06 2235.91 1506.70 2235.15 1507.35 2234.42 C 1507.23 2210.60 1507.57 2186.79 1507.38 2162.98 C 1507.22 2159.68 1507.82 2156.24 1506.57 2153.11 C 1506.90 2146.99 1504.96 2141.09 1505.40 2134.99 C 1505.46 2132.97 1505.28 2130.97 1504.54 2129.12 C 1504.95 2122.98 1502.97 2117.08 1503.37 2110.98 C 1503.44 2108.96 1503.22 2106.97 1502.55 2105.11 C 1502.38 2101.96 1502.60 2098.78 1501.76 2095.74 C 1500.83 2091.91 1502.09 2087.83 1500.57 2084.14 C 1500.40 2081.74 1500.52 2079.28 1499.55 2077.07 C 1499.63 2073.25 1498.88 2069.55 1498.16 2065.84 C 1497.33 2063.59 1497.77 2061.05 1496.62 2058.95 C 1496.43 2056.93 1496.68 2054.83 1495.69 2053.02 C 1495.40 2046.89 1493.49 2040.98 1493.20 2034.87 C 1492.30 2032.64 1492.76 2030.13 1491.65 2028.02 C 1491.48 2025.95 1491.40 2023.91 1491.25 2021.89 C 1489.73 2015.59 1488.83 2009.16 1487.18 2002.90 C 1486.76 2001.56 1486.44 2000.21 1486.14 1998.91 C 1485.23 1995.58 1485.10 1992.05 1483.75 1988.86 C 1483.16 1985.86 1482.67 1982.83 1481.82 1979.92 C 1481.45 1978.89 1481.10 1977.88 1480.75 1976.90 C 1480.27 1973.13 1478.89 1969.57 1478.20 1965.87 C 1477.70 1964.20 1477.29 1962.55 1476.76 1960.94 C 1476.18 1958.88 1475.64 1956.82 1475.23 1954.76 C 1474.85 1953.75 1474.49 1952.77 1474.15 1951.82 C 1472.31 1945.15 1471.08 1938.32 1469.17 1931.69 C 1468.75 1930.41 1468.46 1929.11 1468.23 1927.85 C 1467.76 1926.52 1467.26 1925.25 1466.69 1924.02 C 1465.87 1920.61 1465.28 1917.10 1463.70 1913.97 C 1463.12 1911.59 1462.71 1909.16 1461.76 1906.92 C 1461.15 1904.88 1460.65 1902.82 1460.22 1900.77 C 1458.68 1894.40 1456.57 1888.20 1455.23 1881.79 C 1453.55 1876.84 1451.98 1871.86 1450.29 1866.93 C 1449.19 1864.74 1448.87 1862.29 1448.29 1859.97 C 1446.95 1856.37 1446.73 1852.46 1445.27 1848.92 C 1444.27 1847.02 1444.04 1844.86 1443.34 1842.89 C 1441.55 1839.42 1440.61 1835.57 1439.31 1831.91 C 1438.03 1829.00 1437.41 1825.87 1436.28 1822.93 C 1432.71 1814.90 1430.98 1806.23 1428.23 1797.93 C 1427.52 1796.72 1427.48 1795.30 1427.30 1793.99 C 1426.81 1793.02 1426.45 1792.02 1426.25 1790.99 C 1425.75 1789.37 1425.27 1787.76 1424.78 1786.19 C 1424.14 1784.46 1423.59 1782.72 1423.27 1780.94 C 1422.92 1779.92 1422.57 1778.92 1422.22 1777.95 C 1421.61 1776.74 1421.45 1775.40 1421.26 1774.13 C 1419.88 1770.07 1418.83 1765.91 1417.23 1761.93 C 1416.86 1760.94 1416.54 1759.95 1416.25 1758.97 C 1415.22 1755.97 1414.36 1752.92 1413.31 1749.94 C 1412.77 1748.67 1412.25 1747.42 1411.73 1746.20 C 1410.75 1743.47 1410.36 1740.58 1409.22 1737.93 C 1408.68 1736.68 1408.46 1735.32 1408.24 1734.04 C 1407.88 1733.01 1407.52 1732.00 1407.17 1731.01 C 1406.75 1730.00 1406.46 1728.99 1406.32 1727.95 C 1404.53 1725.21 1404.51 1721.84 1403.27 1718.90 C 1402.31 1716.66 1402.06 1714.21 1401.30 1711.94 C 1399.82 1707.37 1398.74 1702.67 1397.74 1697.98 C 1397.80 1691.91 1397.29 1685.88 1395.76 1679.99 C 1395.31 1674.33 1395.99 1668.60 1394.86 1663.02 C 1394.25 1658.57 1394.23 1654.02 1394.96 1649.60 C 1395.86 1644.44 1395.02 1639.19 1395.57 1634.02 C 1396.07 1629.33 1397.41 1624.72 1397.23 1619.98 C 1397.05 1613.66 1397.06 1607.34 1397.25 1601.02 C 1397.36 1595.92 1398.89 1591.01 1399.46 1585.98 C 1399.92 1581.02 1399.45 1576.04 1399.73 1571.09 C 1401.80 1560.99 1402.94 1550.67 1405.38 1540.64 C 1407.64 1531.15 1411.46 1522.16 1414.34 1512.87 C 1418.22 1503.95 1422.52 1495.22 1427.19 1486.69 C 1432.26 1478.19 1435.36 1468.68 1440.78 1460.37 C 1449.64 1444.20 1458.77 1428.14 1468.72 1412.62 C 1469.42 1412.35 1470.13 1412.10 1470.86 1411.86 C 1460.29 1409.99 1449.66 1407.79 1439.90 1403.16 C 1411.03 1390.35 1389.13 1363.06 1383.04 1332.06 C 1380.34 1319.87 1381.09 1307.33 1381.00 1294.96 C 1381.00 1250.97 1381.00 1206.99 1381.00 1163.00 C 1381.01 1146.61 1385.05 1130.23 1392.84 1115.80 C 1402.08 1098.53 1416.51 1084.08 1433.79 1074.84 C 1447.94 1067.22 1463.95 1063.16 1480.02 1063.02 C 1502.90 1062.94 1525.79 1063.07 1548.69 1062.96 C 1549.41 1056.30 1548.59 1049.50 1550.36 1043.00 C 1550.58 1040.05 1550.23 1037.05 1550.95 1034.16 C 1552.00 1029.43 1550.81 1024.48 1552.30 1019.82 C 1553.89 1015.02 1553.30 1009.87 1554.75 1005.05 C 1557.22 996.53 1556.31 987.30 1559.78 979.07 C 1560.33 974.57 1562.16 970.41 1562.85 965.96 C 1564.76 960.58 1564.85 954.73 1567.38 949.54 C 1569.07 942.68 1571.15 935.92 1573.53 929.26 C 1577.40 921.35 1580.35 913.01 1583.60 904.83 C 1588.89 895.19 1593.07 885.01 1598.13 875.25 C 1613.55 849.54 1629.31 823.77 1649.40 801.38 C 1655.50 793.55 1662.46 786.46 1669.48 779.47 C 1675.38 773.70 1680.97 767.61 1687.19 762.16 C 1694.77 754.00 1704.52 748.36 1712.51 740.62 C 1719.81 734.80 1727.92 730.06 1735.18 724.17 C 1748.24 715.91 1760.98 707.15 1774.41 699.48 C 1780.76 695.91 1786.40 691.27 1792.77 687.74 C 1796.56 684.71 1800.79 682.33 1805.12 680.14 C 1807.01 679.05 1809.23 678.14 1810.40 676.17 C 1810.71 674.07 1809.99 672.04 1809.80 670.00 C 1810.74 660.05 1810.39 649.97 1810.02 639.99 C 1810.97 632.69 1809.85 625.28 1811.01 618.00 C 1811.81 612.68 1811.39 607.31 1811.46 601.97 C 1811.40 598.22 1813.12 594.78 1813.41 591.08 C 1813.79 585.73 1814.68 580.40 1814.55 575.02 C 1814.27 569.23 1816.88 563.79 1816.50 558.00 C 1817.38 550.63 1818.42 543.22 1820.36 536.05 C 1822.31 525.48 1823.91 514.84 1826.79 504.48 C 1827.66 499.68 1828.23 494.77 1830.01 490.19 C 1833.71 480.67 1835.54 470.54 1839.29 461.03 C 1842.73 449.55 1848.99 439.27 1854.62 428.78 C 1859.74 420.58 1863.81 411.60 1870.56 404.53 C 1872.55 402.51 1874.08 400.08 1876.08 398.06 C 1882.72 393.06 1887.85 386.32 1894.89 381.78 C 1899.48 379.02 1903.51 375.41 1908.32 373.01 C 1913.02 370.32 1917.43 367.03 1922.64 365.33 C 1926.93 364.03 1931.16 362.54 1935.35 360.93 C 1943.35 359.55 1950.74 355.37 1958.98 355.19 C 1963.72 354.93 1968.26 353.17 1973.04 353.32 C 1976.79 353.36 1980.55 353.55 1984.31 353.34 Z" />
</g>
</svg>
