<?xml version="1.0" encoding="UTF-8" ?>
<!DOCTYPE svg PUBLIC "-//W3C//DTD SVG 1.1//EN" "http://www.w3.org/Graphics/SVG/1.1/DTD/svg11.dtd">
<svg width="4000pt" height="4000pt" viewBox="0 0 4000 4000" version="1.1" xmlns="http://www.w3.org/2000/svg">
<g id="#000000ff">
<path fill="#000000" opacity="1.00" d=" M 1854.47 252.46 C 1858.00 252.55 1861.60 252.70 1865.07 251.77 C 1865.78 251.77 1867.20 251.78 1867.91 251.78 C 1874.17 253.12 1880.64 252.15 1887.00 252.40 C 1893.35 252.66 1899.79 252.05 1906.08 253.16 C 1908.03 253.46 1910.04 253.73 1912.00 254.16 C 1917.90 255.12 1923.77 256.36 1929.74 256.93 C 1931.36 257.43 1932.97 257.90 1934.63 258.40 C 1935.98 258.55 1937.34 258.70 1938.75 258.89 C 1942.74 261.12 1947.24 262.14 1951.63 263.35 C 1955.70 264.53 1959.71 265.96 1963.85 266.97 C 1965.58 267.73 1967.31 268.51 1969.05 269.32 C 1969.60 269.46 1970.70 269.74 1971.24 269.88 C 1979.87 274.02 1988.55 278.08 1997.14 282.29 C 2004.77 287.08 2012.88 291.07 2020.40 296.04 C 2030.38 303.56 2040.84 310.52 2050.03 319.03 C 2055.42 324.30 2061.21 329.14 2066.82 334.18 C 2071.96 339.38 2076.24 345.35 2081.41 350.52 C 2088.89 358.56 2095.06 367.67 2101.42 376.58 C 2107.95 384.49 2113.01 393.44 2118.11 402.29 C 2126.19 415.07 2132.25 428.98 2139.00 442.48 C 2140.64 446.45 2141.97 450.57 2143.91 454.42 C 2145.75 459.71 2147.41 465.10 2150.07 470.07 C 2150.46 471.39 2150.87 472.72 2151.32 474.05 C 2151.39 474.54 2151.52 475.52 2151.59 476.00 C 2152.21 477.64 2152.71 479.36 2153.38 481.00 C 2153.46 481.49 2153.61 482.48 2153.69 482.97 C 2154.45 485.30 2155.28 487.64 2155.79 490.07 C 2156.90 496.02 2160.00 501.41 2160.69 507.47 L 2161.36 507.61 C 2161.41 509.39 2161.50 511.16 2161.69 512.94 C 2162.41 514.71 2162.47 516.61 2162.61 518.50 L 2163.29 518.60 C 2163.43 520.43 2163.67 522.25 2164.12 524.05 C 2164.61 526.71 2165.24 529.36 2165.94 531.98 C 2166.22 533.48 2166.39 534.97 2166.68 536.48 L 2167.46 536.57 C 2167.18 541.59 2168.23 546.52 2168.63 551.51 L 2169.42 551.60 C 2169.41 554.39 2169.49 557.18 2169.69 559.97 C 2172.03 567.08 2171.31 574.60 2171.79 581.94 C 2173.03 587.86 2172.19 593.97 2172.50 599.98 C 2172.67 610.83 2172.57 621.69 2172.40 632.54 C 2178.67 637.35 2184.05 643.20 2190.41 647.93 C 2197.90 654.30 2204.23 661.88 2211.49 668.52 C 2216.05 672.61 2219.53 677.71 2223.96 681.94 C 2233.33 692.88 2243.24 703.36 2251.94 714.87 C 2257.10 722.04 2263.16 728.52 2267.97 735.96 C 2282.99 756.65 2295.90 778.78 2308.23 801.16 C 2311.54 807.75 2315.03 814.26 2318.91 820.53 C 2322.09 828.06 2325.53 835.53 2328.87 843.02 C 2329.87 844.48 2330.44 846.14 2330.93 847.86 C 2332.63 851.67 2334.42 855.45 2335.78 859.41 L 2336.25 859.57 C 2336.54 860.66 2336.85 861.76 2337.21 862.87 C 2337.68 864.39 2338.21 865.89 2338.78 867.41 L 2339.30 867.57 C 2339.71 869.19 2340.18 870.81 2340.64 872.45 L 2341.23 872.62 C 2342.07 875.21 2342.93 877.81 2343.75 880.43 L 2344.34 880.50 C 2344.75 882.14 2345.22 883.78 2345.67 885.45 L 2346.74 885.58 C 2346.62 886.05 2346.37 887.00 2346.25 887.47 L 2347.59 887.58 C 2347.54 888.29 2347.43 889.72 2347.37 890.43 L 2348.51 890.57 C 2348.53 891.17 2348.58 892.37 2348.60 892.97 C 2348.98 894.12 2349.38 895.27 2349.79 896.44 L 2350.61 896.59 C 2350.55 897.32 2350.42 898.78 2350.35 899.51 L 2351.63 899.49 C 2351.57 900.22 2351.45 901.68 2351.40 902.41 L 2352.25 902.57 C 2352.64 904.43 2353.16 906.27 2353.71 908.11 C 2354.46 910.18 2355.14 912.30 2355.71 914.45 L 2356.60 914.59 C 2356.54 915.31 2356.41 916.74 2356.35 917.46 L 2357.21 917.60 C 2357.94 921.12 2359.03 924.55 2360.23 927.95 C 2360.70 930.71 2361.54 933.38 2362.36 936.07 C 2362.38 936.67 2362.42 937.88 2362.44 938.48 L 2363.27 938.53 C 2363.47 940.07 2363.75 941.61 2364.23 943.13 C 2364.34 943.61 2364.56 944.55 2364.67 945.02 C 2365.77 947.69 2366.56 950.50 2366.69 953.42 L 2367.28 953.53 C 2367.46 955.04 2367.76 956.60 2368.27 958.07 C 2368.35 959.17 2368.45 960.29 2368.57 961.42 L 2369.35 961.53 C 2369.86 964.36 2370.44 967.18 2370.78 970.05 C 2371.27 971.68 2371.70 973.31 2372.22 974.97 C 2372.41 976.67 2372.68 978.41 2373.15 980.10 C 2373.41 982.07 2373.65 984.07 2374.15 986.02 C 2374.44 987.67 2374.78 989.35 2375.13 991.01 C 2375.56 994.03 2376.24 997.01 2376.81 1000.02 C 2378.09 1004.21 2378.62 1008.55 2378.82 1012.92 C 2379.36 1015.60 2379.58 1018.36 2380.18 1021.05 C 2380.50 1026.78 2382.42 1032.26 2382.81 1038.00 C 2383.67 1040.74 2383.56 1043.65 2383.52 1046.50 L 2384.41 1046.62 C 2384.39 1051.31 2384.18 1056.04 2385.04 1060.69 C 2385.82 1065.40 2385.00 1070.24 2386.01 1074.94 C 2386.98 1079.25 2386.11 1083.74 2387.24 1088.04 C 2387.68 1097.64 2387.23 1107.27 2387.76 1116.87 C 2388.78 1120.81 2388.42 1124.91 2388.19 1128.94 C 2386.66 1135.85 2388.49 1143.05 2386.84 1149.96 C 2385.92 1151.92 2388.35 1153.05 2389.30 1154.45 C 2390.51 1154.61 2391.75 1154.80 2393.02 1155.01 C 2393.98 1155.46 2394.97 1155.92 2395.98 1156.39 C 2396.50 1156.44 2397.52 1156.55 2398.03 1156.60 C 2399.29 1157.15 2400.58 1157.70 2401.91 1158.27 C 2403.28 1158.73 2404.67 1159.23 2406.10 1159.72 C 2424.84 1167.63 2441.77 1179.55 2455.88 1194.15 C 2459.02 1198.19 2463.15 1201.41 2465.75 1205.89 C 2470.00 1211.77 2475.09 1217.26 2477.97 1224.00 C 2478.33 1224.21 2479.03 1224.61 2479.39 1224.81 C 2479.48 1225.58 2479.66 1227.14 2479.75 1227.91 C 2480.08 1228.15 2480.74 1228.61 2481.07 1228.85 C 2482.76 1232.35 2484.52 1235.84 2486.18 1239.38 C 2489.67 1245.83 2491.89 1252.84 2494.32 1259.74 C 2494.99 1262.67 2495.59 1265.63 2496.24 1268.60 C 2496.97 1270.98 2497.58 1273.40 2498.09 1275.87 C 2499.03 1279.80 2499.58 1283.80 2500.18 1287.80 C 2500.90 1292.05 2500.43 1296.43 2501.50 1300.65 C 2502.01 1326.42 2501.62 1352.22 2501.77 1378.00 C 2503.01 1388.28 2502.47 1398.65 2502.58 1408.98 C 2502.48 1427.66 2502.64 1446.35 2502.53 1465.03 C 2502.31 1476.67 2503.16 1488.38 2501.23 1499.92 C 2500.70 1501.67 2500.46 1503.48 2500.33 1505.31 C 2499.67 1509.31 2498.95 1513.31 2498.34 1517.33 C 2496.71 1524.30 2494.48 1531.11 2492.21 1537.89 C 2491.63 1538.54 2491.09 1539.22 2490.57 1539.91 C 2490.57 1540.90 2490.61 1541.91 2490.69 1542.95 C 2493.13 1544.05 2495.48 1545.40 2497.62 1547.08 C 2503.99 1552.13 2511.12 1556.23 2516.90 1562.03 C 2521.69 1566.95 2527.39 1570.88 2532.05 1575.95 C 2536.32 1580.05 2540.00 1584.69 2544.14 1588.92 C 2547.11 1591.94 2549.00 1595.82 2551.86 1598.96 C 2551.69 1598.45 2551.36 1597.41 2551.20 1596.89 C 2550.29 1596.13 2549.42 1595.38 2548.59 1594.66 C 2548.53 1594.01 2548.40 1592.73 2548.34 1592.09 C 2549.80 1594.48 2551.50 1596.75 2552.89 1599.22 C 2553.96 1600.00 2555.09 1600.78 2556.24 1601.56 C 2554.80 1601.08 2553.37 1600.61 2551.97 1600.19 C 2552.96 1600.76 2553.96 1601.32 2555.03 1601.92 C 2561.24 1609.80 2566.95 1618.03 2571.88 1626.78 C 2578.83 1635.81 2582.32 1646.82 2588.19 1656.49 C 2593.69 1669.30 2598.21 1682.51 2603.31 1695.48 C 2603.46 1696.60 2603.66 1697.74 2603.90 1698.90 C 2608.10 1708.62 2609.22 1719.26 2611.73 1729.47 L 2612.30 1729.57 C 2612.73 1733.75 2613.52 1737.89 2613.85 1742.10 C 2614.66 1745.32 2614.49 1748.70 2615.14 1751.97 C 2615.62 1755.98 2616.32 1759.96 2617.21 1763.92 C 2617.84 1767.24 2618.53 1770.58 2618.45 1774.01 C 2618.61 1805.34 2618.54 1836.68 2618.58 1868.02 C 2618.71 1872.68 2618.08 1877.45 2619.25 1882.04 C 2619.34 1889.64 2619.53 1897.29 2618.61 1904.86 C 2619.66 1907.43 2619.42 1910.24 2619.25 1912.97 C 2617.23 1924.59 2619.90 1936.31 2619.43 1947.99 C 2619.16 2020.52 2619.99 2093.04 2619.42 2165.57 C 2619.78 2165.67 2620.51 2165.89 2620.87 2166.00 C 2620.51 2166.11 2619.78 2166.32 2619.42 2166.43 C 2619.52 2175.94 2619.50 2185.45 2620.36 2194.93 C 2619.38 2196.90 2619.51 2199.05 2620.29 2201.10 C 2620.62 2205.75 2619.37 2210.32 2619.59 2214.99 C 2619.75 2233.97 2619.38 2252.96 2619.79 2271.94 C 2620.74 2275.89 2620.31 2279.97 2620.38 2284.01 C 2620.50 2376.02 2620.40 2468.03 2620.59 2560.04 C 2620.68 2564.02 2620.13 2568.11 2621.19 2572.05 C 2621.85 2635.39 2621.05 2698.76 2621.64 2762.11 C 2622.74 2765.95 2622.19 2770.00 2622.29 2773.96 C 2622.35 2788.31 2622.27 2802.65 2622.31 2817.01 C 2622.28 2818.32 2622.03 2819.67 2621.73 2821.00 C 2621.40 2828.33 2621.68 2835.67 2621.58 2843.02 C 2621.63 2846.38 2621.14 2849.89 2622.39 2853.14 C 2620.93 2863.37 2621.85 2873.73 2621.61 2884.03 C 2621.59 2895.64 2621.26 2907.27 2621.80 2918.88 C 2621.88 2920.93 2622.13 2923.01 2622.23 2925.13 C 2622.22 2926.34 2622.24 2927.59 2622.28 2928.88 C 2620.70 2932.77 2622.81 2936.88 2622.37 2940.94 C 2620.70 2945.12 2622.20 2949.61 2621.86 2953.97 C 2621.21 2962.31 2621.82 2970.68 2621.92 2979.05 C 2621.54 2987.02 2623.03 2994.96 2622.25 3002.96 C 2620.80 3010.22 2621.73 3017.72 2622.39 3025.04 C 2622.54 3081.01 2622.45 3136.99 2622.59 3192.97 C 2622.65 3211.96 2622.33 3230.97 2622.75 3249.97 C 2623.79 3253.56 2623.24 3257.34 2623.36 3261.06 C 2623.52 3332.04 2623.51 3403.03 2623.47 3474.02 C 2624.02 3485.52 2620.31 3496.62 2619.64 3508.05 C 2619.59 3512.81 2617.99 3517.33 2617.10 3521.98 C 2616.27 3525.62 2615.56 3529.29 2614.84 3532.98 C 2614.48 3534.29 2614.11 3535.59 2613.78 3536.98 C 2613.48 3538.61 2613.19 3540.25 2612.90 3541.96 C 2611.63 3545.96 2610.28 3549.95 2609.15 3554.02 C 2608.46 3556.70 2607.58 3559.35 2606.68 3562.00 C 2606.59 3562.50 2606.41 3563.50 2606.32 3564.00 C 2605.55 3565.98 2604.87 3568.02 2604.28 3570.11 C 2603.76 3571.35 2603.25 3572.63 2602.76 3573.95 C 2601.94 3575.98 2601.10 3578.03 2600.29 3580.11 C 2596.79 3589.25 2592.59 3598.08 2588.05 3606.76 C 2584.68 3614.83 2579.75 3622.08 2575.13 3629.47 C 2568.46 3640.20 2560.94 3650.39 2553.15 3660.33 C 2549.70 3664.81 2544.95 3668.11 2541.81 3672.84 C 2538.55 3676.10 2535.45 3679.52 2531.84 3682.40 C 2524.22 3689.33 2517.10 3697.26 2507.80 3701.97 C 2507.64 3702.54 2507.31 3703.68 2507.15 3704.25 C 2506.58 3704.33 2505.45 3704.49 2504.88 3704.57 C 2502.09 3706.95 2499.08 3709.05 2496.00 3711.03 C 2493.59 3712.36 2491.22 3713.76 2488.76 3714.98 C 2484.54 3716.87 2480.66 3719.39 2476.73 3721.79 C 2476.51 3722.16 2476.09 3722.90 2475.87 3723.26 C 2475.18 3723.37 2473.78 3723.60 2473.09 3723.71 C 2470.70 3725.02 2468.13 3725.96 2465.53 3726.73 L 2465.49 3727.32 C 2463.80 3727.70 2462.15 3728.15 2460.52 3728.60 L 2460.44 3729.67 C 2459.97 3729.57 2459.01 3729.37 2458.54 3729.27 L 2458.32 3730.08 C 2456.72 3730.64 2455.20 3731.39 2453.83 3732.38 C 2453.24 3732.39 2452.06 3732.39 2451.46 3732.39 L 2451.46 3733.60 C 2450.71 3733.52 2449.21 3733.35 2448.46 3733.26 L 2448.48 3734.27 C 2446.88 3734.45 2445.28 3734.71 2443.80 3735.27 C 2443.46 3735.27 2442.77 3735.27 2442.43 3735.27 L 2442.41 3736.23 C 2440.91 3736.44 2439.43 3736.72 2438.02 3737.11 C 2435.05 3738.08 2432.02 3738.91 2429.22 3740.29 C 2427.14 3740.43 2425.08 3740.56 2423.06 3740.80 C 2421.55 3741.15 2419.98 3741.37 2418.50 3741.70 L 2418.48 3742.45 C 2415.61 3742.33 2412.73 3742.40 2409.97 3743.07 C 2392.88 3746.62 2375.33 3745.28 2357.99 3745.55 C 2352.02 3745.80 2345.90 3744.78 2340.06 3746.23 C 2314.71 3746.68 2289.35 3746.27 2264.00 3746.33 C 2098.03 3746.46 1932.05 3746.21 1766.08 3746.50 C 1714.71 3746.25 1663.34 3746.53 1611.97 3746.45 C 1533.63 3746.46 1455.31 3746.44 1376.98 3746.49 C 1372.44 3746.35 1367.85 3746.67 1363.42 3745.60 C 1359.44 3744.55 1355.34 3744.24 1351.31 3743.58 C 1348.87 3743.47 1346.48 3743.00 1344.12 3742.56 C 1339.43 3741.62 1334.87 3740.22 1330.37 3738.67 C 1320.85 3735.56 1311.29 3732.56 1302.21 3728.31 C 1292.78 3725.13 1284.65 3719.30 1275.98 3714.59 C 1268.99 3710.92 1262.80 3705.97 1256.28 3701.57 C 1246.90 3695.15 1238.93 3687.01 1230.22 3679.76 C 1223.40 3672.48 1217.29 3664.54 1209.88 3657.81 C 1209.74 3657.38 1209.45 3656.51 1209.30 3656.08 C 1201.96 3647.26 1195.59 3637.64 1189.40 3627.98 C 1186.52 3622.87 1182.71 3618.32 1180.37 3612.93 C 1177.50 3606.83 1174.44 3600.80 1170.98 3595.02 C 1170.21 3593.27 1169.48 3591.53 1168.73 3589.85 C 1168.62 3589.21 1168.41 3587.93 1168.31 3587.28 C 1167.01 3584.91 1165.99 3582.41 1165.19 3579.88 C 1164.67 3578.91 1164.15 3577.93 1163.66 3577.07 C 1163.54 3576.41 1163.32 3575.10 1163.21 3574.44 C 1162.24 3572.71 1161.45 3570.85 1160.72 3569.09 C 1160.14 3567.04 1159.43 3565.03 1158.69 3563.11 C 1157.80 3560.25 1157.02 3557.38 1156.36 3554.51 L 1155.71 3554.49 C 1155.50 3552.87 1155.21 3551.27 1154.68 3549.83 C 1154.65 3549.24 1154.60 3548.06 1154.57 3547.47 L 1153.50 3547.46 C 1153.46 3546.87 1153.38 3545.68 1153.35 3545.09 C 1152.77 3543.62 1152.48 3542.00 1152.31 3540.52 L 1151.74 3540.42 C 1151.50 3538.64 1151.24 3536.89 1150.92 3535.21 C 1150.26 3532.79 1149.63 3530.40 1149.11 3528.00 C 1148.77 3526.30 1148.46 3524.55 1148.21 3522.92 C 1146.99 3519.06 1146.41 3515.06 1146.21 3511.06 C 1145.49 3508.94 1145.42 3506.67 1145.41 3504.53 L 1144.61 3504.41 C 1144.61 3501.93 1144.53 3499.46 1144.34 3497.04 C 1143.82 3495.37 1143.46 3493.64 1143.12 3492.01 C 1142.28 3488.69 1142.65 3485.22 1141.76 3481.95 C 1141.17 3470.96 1141.64 3459.95 1141.51 3448.96 C 1141.41 3404.30 1141.56 3359.63 1141.36 3314.97 C 1141.22 3314.23 1140.94 3312.74 1140.81 3311.99 C 1141.96 3307.41 1141.22 3302.65 1141.43 3298.01 C 1141.69 3294.60 1140.25 3291.22 1141.14 3287.90 C 1140.44 3283.93 1140.18 3279.83 1141.24 3275.92 C 1141.56 3269.23 1141.64 3262.51 1140.64 3255.89 C 1140.40 3227.61 1140.65 3199.32 1140.56 3171.04 C 1140.33 3159.69 1141.22 3148.29 1139.76 3137.01 C 1139.65 2957.32 1139.53 2777.62 1139.35 2597.93 C 1138.19 2589.65 1138.68 2581.30 1138.60 2572.99 C 1138.54 2558.98 1138.65 2544.98 1138.62 2530.98 C 1138.65 2527.60 1138.26 2524.14 1139.31 2520.90 C 1138.08 2506.63 1138.67 2492.28 1138.56 2477.98 C 1138.37 2356.63 1138.46 2235.29 1138.24 2113.95 C 1135.82 2106.18 1136.97 2098.00 1136.73 2090.00 C 1136.89 1985.00 1136.34 1880.00 1136.61 1775.00 C 1136.30 1769.65 1137.46 1764.41 1138.38 1759.19 C 1138.68 1757.19 1139.09 1755.26 1139.48 1753.32 C 1139.52 1750.60 1139.79 1747.91 1140.38 1745.28 C 1140.54 1742.97 1140.69 1740.66 1140.96 1738.38 C 1142.40 1731.93 1144.03 1725.52 1145.35 1719.05 C 1145.53 1717.76 1145.73 1716.50 1145.96 1715.28 C 1146.27 1714.24 1146.58 1713.22 1146.89 1712.22 C 1148.87 1705.45 1151.09 1698.76 1153.14 1692.02 C 1154.96 1686.75 1156.81 1681.49 1158.98 1676.36 C 1159.64 1674.63 1160.30 1672.90 1160.98 1671.20 C 1161.26 1670.36 1161.55 1669.54 1161.84 1668.73 C 1162.66 1666.78 1163.47 1664.84 1164.31 1662.92 C 1164.44 1662.37 1164.72 1661.26 1164.86 1660.71 C 1170.62 1650.32 1174.72 1639.03 1181.58 1629.25 C 1191.13 1615.65 1199.09 1600.70 1211.00 1588.94 C 1220.13 1577.54 1231.30 1567.97 1242.14 1558.27 C 1251.17 1552.14 1259.14 1544.41 1269.01 1539.57 C 1273.50 1536.81 1278.23 1534.41 1282.61 1531.48 C 1282.82 1529.21 1282.67 1526.94 1282.62 1524.70 C 1282.01 1524.13 1281.41 1523.58 1280.82 1523.05 C 1280.69 1521.55 1280.60 1520.12 1280.51 1518.68 C 1280.05 1516.90 1279.61 1515.14 1279.26 1513.37 C 1277.83 1508.31 1277.46 1503.11 1277.33 1497.89 C 1276.47 1492.98 1276.55 1487.99 1276.34 1483.04 C 1275.76 1481.42 1275.56 1479.70 1275.62 1478.02 C 1275.57 1422.03 1275.63 1366.03 1275.53 1310.03 C 1275.67 1305.69 1275.14 1301.27 1276.19 1297.01 C 1277.00 1292.02 1277.26 1286.96 1278.13 1281.99 C 1279.29 1271.76 1282.60 1261.97 1285.86 1252.27 C 1292.84 1233.72 1303.33 1216.71 1315.46 1201.11 C 1319.54 1195.98 1324.53 1191.72 1329.51 1187.50 C 1333.60 1183.28 1338.47 1179.96 1342.85 1176.05 C 1346.47 1172.71 1351.29 1171.21 1355.23 1168.32 C 1360.84 1164.29 1367.35 1161.87 1373.58 1159.00 C 1380.73 1156.17 1388.06 1153.96 1395.60 1152.47 C 1395.41 1127.65 1395.38 1102.82 1395.72 1078.01 C 1395.80 1076.14 1396.23 1074.34 1396.55 1072.52 C 1396.53 1069.12 1396.81 1065.74 1397.52 1062.43 C 1397.82 1057.41 1397.38 1052.35 1398.37 1047.39 C 1398.70 1045.67 1399.06 1043.96 1399.45 1042.27 C 1400.68 1037.79 1400.34 1033.12 1401.19 1028.59 C 1401.70 1024.08 1402.39 1019.59 1402.82 1015.07 C 1403.37 1012.46 1403.64 1009.81 1404.09 1007.20 C 1404.23 1006.82 1404.52 1006.07 1404.66 1005.69 C 1405.68 999.79 1406.57 993.88 1407.65 988.00 C 1408.92 981.19 1410.34 974.41 1412.00 967.68 C 1412.20 966.33 1412.42 965.00 1412.63 963.68 C 1414.71 955.75 1416.24 947.71 1418.61 939.86 C 1420.97 930.39 1423.53 920.97 1426.65 911.72 C 1429.99 899.61 1434.63 887.92 1438.61 876.02 C 1442.16 864.75 1447.21 854.05 1451.68 843.14 C 1454.01 837.29 1456.80 831.66 1459.59 826.02 C 1464.67 815.40 1468.85 804.30 1475.21 794.32 C 1484.34 776.96 1494.96 760.47 1505.34 743.84 C 1510.09 737.22 1514.82 730.58 1519.68 724.04 C 1523.39 718.87 1526.74 713.42 1531.03 708.69 C 1543.58 693.42 1556.14 678.07 1570.49 664.41 C 1574.74 660.65 1578.08 655.80 1583.04 652.89 C 1583.87 651.27 1584.66 649.63 1585.46 647.99 C 1583.76 643.47 1585.02 638.56 1583.69 634.00 C 1583.29 628.62 1583.66 623.21 1582.65 617.90 C 1582.56 611.32 1581.85 604.59 1583.19 598.11 C 1583.92 588.74 1582.73 579.24 1584.17 569.95 C 1585.05 564.30 1585.18 558.57 1586.12 552.94 C 1586.88 548.25 1587.36 543.53 1587.83 538.82 C 1589.33 531.52 1590.67 524.20 1592.18 516.91 C 1592.32 516.44 1592.58 515.50 1592.71 515.02 C 1593.31 512.97 1593.64 510.85 1593.89 508.73 C 1595.53 499.91 1598.57 491.44 1601.07 482.84 C 1602.78 477.53 1604.02 472.08 1606.02 466.86 C 1606.40 465.86 1606.80 464.87 1607.22 463.88 C 1611.56 453.74 1615.22 443.30 1619.91 433.33 C 1623.07 425.66 1627.62 418.65 1630.93 411.06 C 1631.65 410.61 1632.39 410.17 1633.16 409.73 C 1632.57 409.60 1631.40 409.32 1630.82 409.18 C 1631.55 408.88 1632.31 408.59 1633.09 408.31 C 1637.06 400.00 1642.50 392.48 1647.08 384.49 C 1656.96 371.02 1666.24 356.97 1677.98 344.98 C 1681.44 341.42 1684.27 337.29 1687.99 333.96 C 1692.20 331.13 1695.50 327.22 1699.27 323.85 C 1705.13 318.79 1710.50 313.17 1716.85 308.70 C 1723.80 303.71 1730.00 297.66 1737.59 293.58 C 1741.84 291.09 1746.23 288.84 1750.46 286.28 C 1751.13 285.76 1751.83 285.25 1752.56 284.74 C 1758.03 281.63 1763.41 278.28 1769.37 276.16 L 1769.59 275.26 C 1770.04 275.37 1770.96 275.60 1771.42 275.72 L 1771.62 274.80 C 1775.46 273.44 1778.96 271.28 1782.86 270.03 C 1784.91 269.06 1786.96 268.05 1789.06 267.14 C 1791.52 266.57 1793.98 265.94 1796.47 265.38 L 1796.59 264.76 C 1798.55 264.37 1800.51 263.90 1802.49 263.46 L 1802.63 262.80 C 1804.58 262.38 1806.52 261.89 1808.49 261.43 L 1808.58 260.77 C 1811.15 260.43 1813.63 259.64 1816.04 258.66 C 1818.13 258.54 1820.26 258.45 1822.40 258.40 L 1822.51 257.50 C 1824.29 257.44 1826.13 257.37 1827.96 257.33 C 1829.59 256.77 1831.29 256.26 1832.96 255.71 C 1836.72 255.60 1840.44 254.92 1844.02 253.71 C 1847.47 253.47 1850.94 253.38 1854.42 253.44 L 1854.47 252.46 M 1858.42 392.54 C 1857.08 392.48 1855.77 392.44 1854.48 392.39 L 1854.41 393.33 C 1845.73 393.93 1837.69 397.35 1829.41 399.67 C 1826.76 400.68 1824.17 401.84 1821.70 403.22 C 1821.15 403.36 1820.04 403.62 1819.49 403.75 C 1808.79 409.27 1798.71 415.91 1788.96 422.93 C 1783.26 427.54 1778.24 432.89 1772.71 437.67 C 1767.95 442.75 1763.46 448.07 1759.03 453.43 C 1746.94 469.66 1736.36 487.10 1728.70 505.86 C 1726.07 513.12 1722.51 520.07 1720.92 527.66 C 1719.47 533.73 1717.14 539.57 1715.99 545.71 C 1715.52 547.45 1715.07 549.20 1714.64 550.95 C 1714.05 554.64 1713.41 558.32 1713.14 562.05 C 1713.16 563.22 1712.63 564.23 1711.78 565.01 C 1710.57 570.63 1711.01 576.49 1709.71 582.05 C 1709.13 588.35 1709.60 594.68 1709.43 601.00 C 1709.30 604.70 1707.87 608.33 1708.65 612.06 C 1709.26 615.33 1709.62 618.66 1709.45 622.00 C 1709.00 628.44 1710.47 634.77 1710.91 641.16 C 1712.88 646.62 1712.16 652.58 1714.30 657.99 C 1714.40 660.70 1714.24 663.51 1715.33 666.06 C 1715.54 668.05 1715.61 670.04 1715.64 672.05 C 1716.39 674.07 1717.22 676.08 1718.17 678.03 C 1718.31 680.33 1718.42 682.64 1718.68 684.95 C 1719.87 687.79 1719.24 690.95 1719.99 693.90 C 1721.11 698.55 1721.90 703.27 1722.66 707.99 C 1715.34 714.53 1707.68 720.66 1700.53 727.39 L 1699.60 727.60 C 1692.15 733.43 1685.47 740.19 1678.01 745.98 C 1670.16 752.80 1662.93 760.26 1655.26 767.28 C 1651.70 770.74 1648.99 774.99 1645.20 778.22 C 1643.57 780.54 1641.64 782.62 1639.56 784.53 C 1635.70 788.09 1633.04 792.67 1629.59 796.58 C 1624.95 801.94 1621.16 807.95 1616.87 813.57 C 1610.82 821.59 1605.07 829.84 1599.94 838.49 C 1594.69 846.69 1589.41 854.88 1585.10 863.63 C 1575.15 881.19 1567.44 899.88 1558.93 918.14 C 1558.27 920.04 1557.56 921.93 1556.87 923.82 C 1554.87 929.20 1553.30 934.73 1551.23 940.08 C 1549.20 945.86 1546.71 951.50 1545.29 957.49 C 1542.00 969.72 1537.35 981.58 1535.37 994.14 C 1534.75 997.85 1534.07 1001.57 1532.93 1005.16 C 1531.61 1012.13 1531.00 1019.23 1529.33 1026.14 C 1528.76 1029.12 1528.53 1032.16 1527.71 1035.10 C 1527.48 1037.39 1527.36 1039.68 1527.23 1041.99 C 1525.75 1048.25 1525.95 1054.75 1524.72 1061.05 C 1524.35 1066.74 1524.13 1072.50 1522.70 1078.06 C 1522.45 1083.04 1522.63 1088.03 1522.45 1093.03 C 1522.25 1096.36 1522.90 1099.85 1521.69 1103.06 C 1521.19 1113.02 1521.67 1123.00 1521.37 1132.97 C 1521.33 1134.60 1520.95 1137.25 1523.27 1137.42 C 1553.85 1137.71 1584.44 1137.22 1615.02 1137.41 C 1675.35 1137.39 1735.67 1137.49 1795.99 1137.40 C 1890.34 1137.24 1984.69 1137.50 2079.04 1137.34 C 2087.04 1137.14 2095.11 1137.86 2103.06 1136.61 C 2112.71 1136.34 2122.37 1136.66 2132.03 1136.51 C 2138.17 1136.63 2144.43 1136.05 2150.46 1137.64 L 2150.52 1136.44 C 2154.55 1138.36 2158.83 1136.25 2163.05 1136.53 C 2171.02 1136.67 2179.02 1136.37 2186.99 1136.77 C 2189.25 1136.65 2192.35 1138.54 2193.99 1136.26 C 2195.70 1138.23 2198.67 1137.14 2200.99 1137.45 C 2208.35 1137.88 2215.59 1136.09 2222.96 1136.57 C 2235.03 1136.93 2247.19 1135.70 2259.18 1137.62 C 2259.76 1137.24 2260.93 1136.50 2261.51 1136.12 C 2261.47 1121.44 2261.70 1106.74 2261.28 1092.06 C 2259.82 1087.86 2260.65 1083.33 2260.44 1078.98 C 2260.53 1075.54 2259.14 1072.33 2258.65 1068.99 C 2258.27 1065.04 2258.62 1061.08 2258.28 1057.14 C 2257.84 1055.61 2257.50 1054.10 2257.24 1052.57 L 2256.53 1052.49 C 2256.56 1049.29 2256.88 1045.99 2255.76 1042.94 C 2255.51 1038.25 2254.95 1033.60 2253.81 1029.05 C 2253.50 1026.51 2252.99 1024.02 2252.38 1021.55 L 2251.54 1021.42 C 2251.51 1019.11 2251.50 1016.81 2251.51 1014.52 L 2250.73 1014.49 C 2250.43 1013.20 2249.82 1010.60 2249.52 1009.30 C 2249.39 1011.53 2249.33 1013.77 2249.37 1016.03 C 2248.82 1011.54 2248.69 1007.02 2248.37 1002.52 C 2247.16 998.68 2246.14 994.79 2245.00 990.94 C 2244.16 984.68 2241.71 978.81 2240.35 972.68 C 2239.68 970.38 2239.05 968.09 2238.36 965.82 C 2236.71 961.52 2235.66 957.03 2234.16 952.69 C 2231.84 944.02 2227.82 935.95 2225.20 927.39 C 2224.88 926.96 2224.24 926.09 2223.92 925.66 C 2222.17 919.87 2219.68 914.36 2217.25 908.85 C 2216.55 907.20 2215.88 905.53 2215.27 903.88 C 2213.91 900.82 2212.49 897.81 2211.03 894.82 C 2210.28 893.29 2209.60 891.77 2208.98 890.22 C 2207.88 887.61 2206.49 885.17 2205.01 882.79 C 2204.30 881.26 2203.60 879.76 2202.82 878.30 C 2202.69 877.85 2202.42 876.96 2202.28 876.52 C 2198.68 870.84 2196.27 864.51 2192.40 859.00 C 2187.31 851.61 2183.45 843.48 2178.28 836.16 C 2162.03 812.11 2144.38 788.81 2123.50 768.57 C 2118.47 763.62 2113.73 758.36 2108.18 753.98 C 2096.14 742.88 2083.17 732.84 2069.80 723.42 C 2064.81 719.97 2060.81 714.92 2054.96 712.88 C 2054.74 712.40 2054.32 711.44 2054.10 710.96 C 2048.23 707.23 2042.43 703.27 2037.33 698.52 C 2037.69 695.60 2038.42 692.76 2039.34 689.97 C 2039.55 686.32 2039.27 682.63 2040.06 679.03 C 2041.10 674.38 2039.91 669.32 2042.33 664.99 C 2042.49 661.66 2042.52 658.34 2042.65 655.03 C 2043.20 653.02 2043.69 651.00 2044.19 648.98 C 2043.35 644.26 2045.34 639.66 2045.46 634.96 C 2046.86 622.72 2046.85 610.34 2046.36 598.05 C 2044.75 591.53 2046.19 584.68 2045.31 578.05 C 2044.69 576.03 2044.21 573.97 2043.69 571.95 C 2043.59 568.93 2043.90 565.78 2042.70 562.94 C 2042.54 561.46 2042.47 560.00 2042.42 558.54 L 2041.73 558.46 C 2041.46 556.91 2041.24 555.37 2040.69 553.91 C 2040.53 552.11 2040.49 550.32 2040.47 548.52 L 2039.62 548.50 C 2039.29 545.50 2038.70 542.53 2038.30 539.54 L 2037.63 539.49 C 2037.22 537.76 2036.78 536.05 2036.41 534.33 C 2036.06 534.32 2035.38 534.31 2035.03 534.30 C 2034.72 532.37 2034.45 530.46 2034.08 528.56 C 2033.82 527.48 2033.60 526.40 2033.42 525.33 C 2031.86 521.29 2030.48 517.19 2029.20 513.05 C 2028.83 512.65 2028.09 511.84 2027.72 511.43 C 2027.56 510.13 2027.43 508.83 2027.31 507.55 C 2023.90 501.55 2021.55 495.01 2018.14 489.00 C 2016.35 487.46 2016.60 484.88 2015.53 482.96 C 2013.87 480.17 2011.80 477.66 2010.07 474.94 C 2003.62 464.32 1996.88 453.72 1988.12 444.84 C 1981.96 436.84 1973.94 430.64 1966.48 423.94 C 1959.11 417.43 1950.34 412.94 1941.91 408.03 C 1933.68 403.64 1925.34 399.23 1916.21 397.05 C 1910.40 394.84 1904.20 394.23 1898.20 392.82 C 1893.33 391.68 1888.24 392.93 1883.42 391.51 C 1875.12 390.96 1866.81 391.82 1858.52 391.46 L 1858.42 392.54 M 1398.00 1266.00 C 1398.00 1349.67 1398.00 1433.33 1398.00 1517.00 C 1726.00 1517.00 2054.00 1517.00 2382.00 1517.00 C 2382.00 1433.33 2382.00 1349.67 2382.00 1266.00 C 2054.00 1266.00 1726.00 1266.00 1398.00 1266.00 M 1728.98 1646.46 C 1609.50 1646.36 1490.01 1646.47 1370.52 1646.43 L 1370.39 1647.38 C 1369.82 1647.46 1368.67 1647.64 1368.09 1647.72 C 1364.76 1648.50 1361.23 1648.28 1358.05 1649.66 C 1354.42 1651.04 1350.66 1651.98 1346.88 1652.81 C 1346.56 1653.20 1345.92 1653.98 1345.60 1654.37 C 1345.02 1654.43 1343.85 1654.56 1343.27 1654.62 C 1334.26 1658.65 1325.92 1663.97 1318.14 1670.01 C 1311.85 1675.52 1305.20 1680.87 1300.82 1688.12 C 1300.37 1688.27 1299.46 1688.57 1299.01 1688.72 C 1288.61 1701.68 1281.31 1716.77 1274.71 1731.93 C 1273.24 1738.41 1269.54 1744.39 1269.39 1751.12 C 1269.13 1749.68 1268.87 1748.26 1268.64 1746.86 C 1268.70 1751.79 1266.76 1756.43 1265.98 1761.26 C 1264.79 1765.97 1264.72 1770.88 1263.58 1775.62 C 1262.48 1780.51 1262.72 1785.54 1262.58 1790.53 C 1260.96 1796.91 1262.00 1803.52 1261.72 1810.02 C 1261.99 1815.93 1261.06 1821.97 1262.41 1827.81 C 1262.93 1856.51 1262.19 1885.24 1262.76 1913.95 C 1264.02 1920.18 1263.29 1926.62 1263.23 1932.95 C 1262.29 1935.86 1262.64 1938.92 1262.95 1941.92 C 1262.35 1945.29 1263.45 1948.62 1263.42 1952.01 C 1263.39 1961.67 1263.34 1971.33 1263.44 1981.00 C 1263.35 1986.66 1263.82 1992.37 1262.97 1998.01 C 1262.52 1998.90 1263.54 2001.42 1262.29 2001.70 C 1261.42 1999.23 1261.57 1996.54 1261.43 1993.98 C 1261.30 1997.19 1261.13 2000.42 1261.18 2003.66 L 1263.14 2003.07 C 1263.19 2003.64 1263.29 2004.78 1263.35 2005.35 C 1267.12 2004.14 1271.09 2004.51 1274.99 2004.58 C 1357.72 2004.59 1440.44 2004.54 1523.17 2004.56 C 1440.44 2004.28 1357.69 2004.48 1274.95 2004.41 C 1271.41 2004.22 1267.73 2004.64 1264.30 2003.71 C 1264.55 2002.47 1266.92 2003.48 1267.87 2003.18 C 1270.57 2003.21 1273.30 2002.40 1275.98 2003.19 C 1282.98 2003.27 1290.12 2004.02 1297.05 2002.78 C 1308.69 2002.48 1320.38 2002.32 1331.99 2003.23 C 1339.27 2002.24 1346.63 2002.58 1353.95 2002.77 C 1360.86 2003.99 1367.96 2003.28 1374.96 2003.24 C 1381.53 2001.49 1388.26 2003.78 1394.93 2003.28 C 1395.44 2003.17 1396.46 2002.95 1396.97 2002.84 C 1432.29 2002.38 1467.64 2002.55 1502.97 2002.57 C 1515.06 2002.61 1527.80 2001.98 1539.01 2007.32 C 1539.61 2007.43 1540.80 2007.65 1541.40 2007.76 C 1546.39 2011.39 1552.11 2014.07 1556.52 2018.50 C 1560.78 2022.91 1565.86 2026.79 1568.31 2032.63 C 1571.81 2037.75 1574.80 2043.25 1575.63 2049.52 L 1576.22 2049.58 C 1576.57 2050.73 1576.96 2051.90 1577.37 2053.09 C 1577.40 2053.68 1577.45 2054.86 1577.47 2055.44 L 1578.53 2055.53 C 1577.63 2062.49 1580.69 2069.31 1579.13 2076.23 C 1577.91 2080.81 1579.29 2085.77 1577.31 2090.21 C 1575.40 2094.94 1574.75 2100.16 1572.17 2104.63 C 1569.09 2109.80 1566.82 2115.52 1562.48 2119.83 C 1558.23 2125.66 1552.20 2129.76 1546.28 2133.71 C 1541.48 2135.98 1536.35 2137.49 1531.58 2139.86 C 1530.07 2139.96 1528.60 2140.11 1527.13 2140.23 C 1522.31 2142.19 1517.05 2141.15 1512.01 2141.34 C 1429.59 2141.75 1347.18 2141.36 1264.77 2141.42 C 1264.44 2142.01 1263.80 2143.20 1263.47 2143.79 C 1263.80 2168.18 1263.27 2192.59 1263.72 2216.98 C 1265.08 2222.53 1264.03 2228.34 1264.37 2234.01 C 1264.31 2308.34 1264.52 2382.68 1264.47 2457.01 C 1266.25 2475.28 1264.68 2493.70 1265.53 2512.03 C 1265.95 2513.78 1265.00 2517.42 1267.91 2517.21 C 1288.71 2517.42 1309.51 2517.00 1330.31 2517.31 C 1332.08 2518.05 1326.84 2517.29 1328.03 2517.74 C 1307.14 2517.68 1286.21 2517.96 1265.36 2517.57 C 1265.15 2516.99 1264.73 2515.85 1264.52 2515.27 C 1263.20 2516.52 1264.19 2518.31 1264.25 2519.90 C 1266.55 2519.53 1268.86 2520.64 1271.13 2519.77 C 1274.56 2519.51 1278.00 2519.58 1281.44 2519.53 L 1281.59 2520.50 C 1283.35 2520.37 1285.14 2520.28 1286.93 2520.20 C 1292.53 2519.31 1298.30 2520.98 1303.91 2519.87 C 1310.17 2521.10 1316.63 2520.11 1322.99 2520.38 C 1339.64 2520.47 1356.30 2520.48 1372.96 2520.38 C 1384.22 2518.89 1395.60 2519.84 1406.93 2519.57 C 1438.60 2519.46 1470.27 2519.61 1501.94 2519.52 C 1512.30 2519.72 1522.77 2518.79 1532.99 2521.03 C 1536.34 2522.27 1539.70 2523.54 1543.08 2524.78 C 1549.41 2528.25 1556.04 2531.60 1561.04 2536.96 C 1564.32 2540.47 1568.27 2543.54 1570.38 2547.99 C 1572.66 2552.55 1576.21 2556.50 1577.39 2561.59 C 1578.39 2564.91 1579.69 2568.15 1580.79 2571.46 L 1581.55 2571.49 C 1581.51 2574.98 1581.50 2578.48 1581.66 2581.99 C 1584.19 2586.39 1582.78 2591.43 1581.73 2596.07 C 1581.52 2599.40 1581.90 2602.86 1580.84 2606.11 C 1580.70 2606.58 1580.42 2607.52 1580.28 2607.99 C 1579.43 2610.63 1578.52 2613.27 1577.92 2616.01 C 1575.50 2620.73 1573.28 2625.57 1570.63 2630.17 C 1568.48 2634.05 1564.91 2636.80 1562.20 2640.26 C 1559.22 2643.90 1555.02 2646.21 1551.55 2649.32 C 1549.91 2650.15 1548.29 2651.00 1546.68 2651.85 L 1546.42 2652.28 C 1543.78 2653.07 1541.16 2653.91 1538.53 2654.73 L 1538.50 2655.71 C 1538.15 2655.69 1537.47 2655.64 1537.12 2655.61 C 1534.51 2656.66 1531.66 2656.52 1528.92 2656.72 C 1526.69 2657.55 1524.43 2658.47 1522.02 2658.42 C 1512.99 2658.48 1503.97 2658.38 1494.95 2658.45 C 1489.29 2658.59 1483.68 2657.35 1478.05 2658.35 C 1470.36 2658.15 1462.56 2659.07 1454.96 2657.76 C 1448.95 2657.12 1443.03 2658.75 1437.03 2658.44 C 1434.70 2658.14 1431.83 2659.10 1430.00 2657.31 C 1429.52 2657.56 1428.56 2658.06 1428.08 2658.31 C 1411.05 2658.60 1394.01 2658.49 1376.98 2658.39 C 1343.97 2658.54 1310.96 2658.36 1277.95 2658.42 C 1273.53 2658.62 1269.05 2657.29 1264.77 2658.87 C 1264.58 2702.56 1264.78 2746.26 1264.65 2789.96 C 1264.27 2795.00 1265.33 2799.97 1265.53 2805.00 C 1265.47 2847.32 1265.71 2889.64 1265.59 2931.96 C 1265.71 2941.97 1265.08 2952.04 1266.40 2962.00 C 1266.36 2989.95 1266.58 3017.92 1266.25 3045.87 C 1265.91 3047.28 1265.60 3048.73 1265.33 3050.23 C 1266.19 3051.26 1267.06 3052.33 1267.94 3053.44 C 1347.29 3053.63 1426.64 3053.38 1506.00 3053.42 C 1515.34 3053.59 1524.82 3052.71 1533.98 3055.09 C 1537.30 3056.07 1540.60 3057.17 1543.95 3058.15 C 1554.23 3062.33 1562.71 3069.88 1569.86 3078.22 C 1571.83 3081.96 1574.15 3085.50 1576.54 3089.01 C 1578.54 3093.19 1579.66 3097.75 1581.42 3102.07 C 1583.63 3106.77 1581.65 3112.12 1583.51 3116.93 C 1583.87 3120.68 1583.77 3124.47 1583.42 3128.25 C 1582.00 3132.34 1583.30 3136.77 1582.02 3140.91 C 1581.20 3143.54 1580.44 3146.19 1579.82 3148.91 C 1576.26 3156.82 1572.57 3165.03 1566.17 3171.10 C 1562.41 3175.95 1557.22 3179.29 1552.41 3182.99 C 1549.52 3185.01 1546.06 3185.89 1542.84 3187.23 C 1542.23 3187.42 1541.00 3187.79 1540.38 3187.97 C 1535.70 3190.77 1530.04 3189.35 1524.89 3189.98 C 1526.19 3190.19 1527.52 3190.45 1528.87 3190.78 C 1523.37 3192.28 1517.61 3191.33 1512.00 3191.58 C 1506.64 3191.82 1501.18 3190.93 1495.93 3192.26 C 1491.72 3191.92 1486.58 3193.70 1483.02 3191.23 C 1481.76 3192.21 1480.28 3192.71 1478.59 3192.73 L 1478.43 3191.55 C 1448.28 3191.51 1418.14 3191.64 1387.99 3191.55 C 1382.61 3191.41 1377.33 3192.78 1371.95 3192.41 C 1358.63 3191.99 1345.23 3193.40 1332.00 3191.56 C 1324.33 3191.48 1316.66 3191.67 1308.99 3191.58 C 1302.80 3191.67 1296.52 3191.02 1290.47 3192.67 L 1290.51 3191.44 C 1285.67 3192.97 1280.54 3191.98 1275.58 3192.52 L 1275.41 3191.57 C 1273.17 3191.54 1270.94 3191.51 1268.72 3191.51 C 1268.18 3191.86 1267.10 3192.58 1266.55 3192.94 C 1266.82 3206.94 1266.06 3220.99 1267.21 3234.95 C 1265.97 3246.59 1266.86 3258.34 1266.55 3270.03 C 1266.58 3286.33 1266.50 3302.64 1266.75 3318.94 C 1267.65 3323.20 1267.24 3327.58 1267.24 3331.93 C 1266.51 3333.94 1266.49 3336.06 1267.22 3338.14 C 1267.54 3367.08 1267.41 3396.03 1267.41 3424.98 C 1267.10 3435.96 1268.08 3447.01 1267.08 3457.97 C 1266.87 3458.16 1266.45 3458.55 1266.23 3458.74 C 1264.87 3453.95 1265.69 3448.88 1265.57 3443.99 C 1265.50 3419.00 1265.64 3394.00 1265.47 3369.02 C 1265.36 3396.01 1265.51 3423.01 1265.43 3450.02 C 1265.63 3454.22 1264.20 3458.79 1266.32 3462.72 C 1266.22 3465.71 1266.16 3468.72 1266.46 3471.76 C 1267.35 3467.99 1266.18 3464.03 1267.21 3460.31 C 1267.46 3460.30 1267.95 3460.29 1268.19 3460.29 C 1268.64 3464.50 1268.23 3468.76 1268.63 3473.01 C 1268.96 3474.17 1269.24 3475.27 1269.56 3476.53 C 1269.84 3479.46 1270.38 3482.37 1270.57 3485.36 C 1270.89 3487.62 1271.26 3489.86 1271.59 3492.19 C 1272.00 3493.92 1272.37 3495.71 1272.55 3497.56 C 1273.76 3502.85 1275.26 3508.08 1277.00 3513.25 C 1277.79 3516.38 1278.73 3519.50 1279.73 3522.62 C 1280.10 3523.08 1280.82 3524.00 1281.19 3524.45 C 1281.43 3525.68 1281.68 3526.92 1281.97 3528.24 C 1284.23 3532.41 1286.44 3536.62 1288.51 3540.92 C 1290.46 3545.08 1293.47 3548.63 1295.73 3552.65 C 1300.88 3561.97 1308.39 3569.67 1315.91 3577.10 C 1330.88 3590.44 1348.71 3601.50 1368.73 3604.95 C 1370.04 3605.31 1371.36 3605.70 1372.69 3606.19 C 1376.76 3606.83 1380.96 3606.29 1384.98 3607.42 C 1403.96 3608.02 1422.97 3607.54 1441.96 3607.69 C 1545.80 3607.92 1649.64 3607.30 1753.47 3607.87 C 1752.70 3608.38 1751.88 3608.78 1751.01 3609.10 C 1740.70 3610.25 1730.33 3609.38 1719.99 3609.42 C 1676.00 3609.39 1632.00 3609.43 1588.00 3609.42 C 1577.32 3609.21 1566.64 3610.23 1555.97 3609.39 C 1539.66 3610.02 1523.33 3609.74 1507.00 3609.73 C 1496.04 3609.93 1485.00 3609.01 1474.11 3610.63 C 1477.77 3611.08 1481.37 3610.05 1485.04 3610.10 C 1501.37 3610.20 1517.70 3610.02 1534.04 3610.08 C 1544.47 3610.35 1554.89 3608.90 1565.30 3610.08 C 1589.50 3609.10 1613.75 3609.77 1637.98 3609.60 C 1667.32 3609.57 1696.66 3609.51 1726.00 3609.62 C 1731.99 3609.97 1738.01 3610.31 1744.01 3609.77 C 1755.66 3608.84 1767.34 3609.27 1779.02 3609.16 C 1957.78 3609.20 2136.55 3609.11 2315.31 3609.15 L 2314.49 3608.12 C 2326.99 3608.36 2339.49 3608.19 2352.00 3608.27 C 2355.33 3608.33 2358.81 3607.79 2362.07 3608.91 L 2362.73 3609.24 C 2363.76 3609.90 2365.17 3609.87 2366.28 3609.27 L 2366.96 3608.95 C 2368.11 3608.55 2369.30 3608.23 2370.55 3607.99 L 2370.42 3608.40 C 2373.77 3608.40 2377.11 3607.96 2380.44 3607.45 C 2383.49 3607.40 2386.56 3607.23 2389.58 3606.58 C 2399.09 3604.55 2408.76 3602.52 2417.54 3598.16 C 2426.51 3594.01 2435.00 3588.79 2442.82 3582.74 C 2450.24 3575.97 2458.15 3569.53 2464.03 3561.29 C 2468.00 3555.91 2470.90 3549.83 2474.99 3544.55 C 2478.56 3537.39 2482.35 3530.32 2485.16 3522.82 C 2489.90 3512.03 2492.62 3500.51 2494.68 3488.97 C 2495.07 3486.64 2495.36 3484.30 2495.66 3482.01 C 2496.92 3477.72 2496.42 3473.23 2496.65 3468.85 C 2496.90 3430.55 2496.74 3392.25 2496.71 3353.95 C 2496.66 3300.64 2496.71 3247.33 2496.57 3194.02 C 2496.39 3165.21 2496.89 3136.40 2496.49 3107.60 C 2495.37 3102.79 2495.84 3097.86 2495.79 3093.00 C 2495.78 2916.68 2495.42 2740.36 2495.42 2564.04 C 2495.25 2559.32 2495.64 2554.56 2494.72 2549.92 C 2494.59 2530.98 2494.37 2512.02 2494.80 2493.08 C 2496.73 2483.09 2494.09 2473.01 2494.57 2462.97 C 2494.39 2448.62 2494.87 2434.27 2494.58 2419.93 C 2494.38 2414.75 2495.48 2409.66 2495.54 2404.51 L 2494.41 2404.49 C 2495.71 2402.12 2495.55 2399.41 2494.75 2396.95 C 2493.99 2384.91 2495.48 2372.74 2493.98 2360.77 C 2493.33 2310.21 2493.98 2259.61 2493.58 2209.03 C 2493.63 2101.02 2493.39 1993.02 2493.45 1885.01 C 2493.17 1872.66 2493.89 1860.28 2492.76 1847.97 C 2492.81 1840.35 2494.39 1832.61 2492.77 1825.05 C 2492.39 1817.38 2492.62 1809.70 2492.59 1802.03 C 2492.49 1797.65 2492.99 1793.20 2491.80 1788.93 C 2491.17 1782.68 2492.03 1776.33 2490.77 1770.16 C 2490.14 1767.05 2490.76 1763.72 2489.17 1760.86 C 2488.62 1758.96 2488.37 1757.03 2488.16 1755.12 C 2487.80 1753.58 2487.50 1752.08 2487.27 1750.57 L 2486.70 1750.48 C 2486.43 1748.95 2486.24 1747.52 2485.91 1746.06 C 2484.77 1743.63 2483.95 1741.09 2483.32 1738.52 L 2482.78 1738.41 C 2482.41 1736.52 2481.92 1734.69 2481.39 1732.88 C 2480.28 1730.56 2479.18 1728.23 2478.09 1725.93 C 2471.99 1711.38 2463.86 1697.56 2453.30 1685.78 C 2440.98 1670.66 2424.52 1659.24 2406.59 1651.75 C 2403.65 1650.99 2400.76 1650.15 2397.87 1649.30 C 2396.55 1648.72 2395.26 1648.17 2394.00 1647.64 C 2389.90 1647.60 2385.72 1647.44 2381.95 1645.69 C 2337.30 1645.30 2292.65 1645.65 2248.01 1645.53 C 2243.31 1645.69 2238.54 1645.09 2233.94 1646.21 C 2230.27 1646.47 2226.54 1646.67 2222.95 1645.79 C 2200.99 1645.31 2179.01 1645.70 2157.04 1645.56 C 2152.72 1645.39 2148.44 1646.52 2144.16 1645.78 C 2140.17 1646.53 2136.04 1646.58 2132.07 1645.77 C 2087.39 1645.23 2042.70 1645.67 1998.02 1645.61 C 1989.07 1646.67 1980.03 1646.55 1971.04 1646.21 C 1967.09 1645.18 1963.00 1645.67 1958.99 1645.61 C 1902.64 1645.62 1846.30 1645.56 1789.96 1645.56 C 1785.30 1645.52 1780.72 1646.81 1776.06 1646.29 C 1770.49 1644.93 1764.66 1645.79 1758.99 1645.60 C 1749.05 1647.01 1738.99 1646.22 1728.98 1646.46 Z" />
</g>
</svg>
