<?xml version="1.0" encoding="UTF-8" ?>
<!DOCTYPE svg PUBLIC "-//W3C//DTD SVG 1.1//EN" "http://www.w3.org/Graphics/SVG/1.1/DTD/svg11.dtd">
<svg width="1250pt" height="1250pt" viewBox="0 0 1250 1250" version="1.1" xmlns="http://www.w3.org/2000/svg">
<g id="#000000ff">
<path fill="#000000" opacity="1.00" d=" M 405.08 336.04 C 409.32 333.19 415.80 334.00 418.74 338.31 C 422.53 346.64 423.33 356.13 421.74 365.11 C 418.93 381.75 411.90 397.49 402.50 411.43 C 396.67 419.26 390.69 426.99 384.40 434.46 C 381.97 437.38 379.93 440.60 377.86 443.78 C 376.71 416.26 376.00 387.58 386.70 361.64 C 389.92 351.48 396.09 341.97 405.08 336.04 Z" />
<path fill="#000000" opacity="1.00" d=" M 734.40 361.52 C 742.78 359.55 751.52 357.40 760.13 359.33 C 763.91 360.21 768.41 360.84 770.70 364.39 C 774.28 369.37 773.49 376.83 768.82 380.84 C 766.61 382.67 763.57 381.90 760.97 381.87 C 759.97 392.21 760.46 402.61 759.51 412.95 C 757.88 441.61 758.31 470.33 758.25 499.02 C 758.25 525.34 758.24 551.65 758.26 577.97 C 758.29 582.52 757.53 587.01 757.20 591.54 C 761.35 592.09 765.74 591.67 769.69 593.29 C 775.86 596.02 775.77 605.95 770.03 609.11 C 761.95 613.44 752.37 613.30 744.06 617.04 C 740.20 618.95 735.36 618.64 731.87 616.13 C 728.42 613.24 728.04 608.19 728.72 604.04 C 729.91 598.32 735.53 595.30 740.36 593.00 C 739.65 588.35 738.55 583.76 738.27 579.06 C 737.42 565.38 737.13 551.68 737.09 537.98 C 736.74 527.00 736.59 516.01 736.65 505.02 C 736.73 492.00 735.88 479.01 735.82 466.00 C 735.74 450.32 735.98 434.65 736.19 418.97 C 736.27 407.35 738.44 395.80 737.77 384.17 C 734.13 384.28 730.04 385.38 726.81 383.12 C 722.69 380.11 721.36 374.09 723.50 369.52 C 725.43 365.15 729.99 362.70 734.40 361.52 Z" />
<path fill="#000000" opacity="1.00" d=" M 298.88 369.09 C 300.93 363.02 308.36 361.01 314.08 362.23 C 326.73 365.02 338.14 373.07 344.91 384.13 C 350.52 393.06 353.54 403.45 354.61 413.89 C 355.84 422.86 355.83 432.03 354.27 440.96 C 342.02 426.21 330.32 410.90 316.38 397.68 C 312.14 393.63 307.02 390.51 303.27 385.96 C 299.83 381.19 297.41 374.99 298.88 369.09 Z" />
<path fill="#000000" opacity="1.00" d=" M 985.70 376.97 C 984.64 369.68 992.13 361.57 999.62 364.45 C 1006.44 367.85 1012.11 373.31 1016.55 379.46 C 1018.51 382.15 1020.89 384.49 1023.04 387.02 C 1025.30 389.81 1026.57 393.40 1026.66 396.99 C 1026.76 401.20 1023.27 405.40 1018.99 405.65 C 1015.95 405.72 1013.32 403.95 1010.44 403.29 C 1005.44 413.70 1000.99 424.38 995.72 434.66 C 982.40 461.72 966.86 487.58 951.61 513.57 C 949.59 517.25 946.54 520.50 945.75 524.75 C 963.14 527.28 980.83 530.10 997.05 537.18 C 998.48 533.04 999.13 528.42 1002.07 524.99 C 1004.10 522.41 1007.39 520.44 1010.77 521.17 C 1014.97 521.94 1018.13 525.78 1018.56 529.95 C 1019.56 535.96 1017.20 541.73 1015.58 547.40 C 1013.05 555.53 1010.50 563.66 1007.79 571.73 C 1006.65 575.33 1004.01 578.96 999.96 579.33 C 996.01 579.95 992.89 576.41 991.80 572.98 C 990.29 568.40 992.60 563.67 991.92 559.04 C 989.10 557.89 986.02 557.69 983.06 557.12 C 969.38 554.82 955.77 551.98 942.00 550.30 C 938.97 549.45 938.65 552.88 938.96 555.00 C 939.79 567.71 942.15 580.31 942.07 593.09 C 941.79 596.13 945.12 596.80 947.28 597.77 C 949.89 598.91 953.07 599.81 954.45 602.57 C 956.44 606.98 956.26 612.98 952.31 616.28 C 948.70 619.63 943.45 618.95 938.95 618.83 C 932.72 618.55 925.85 618.29 920.76 614.24 C 916.34 610.82 915.38 604.31 917.44 599.34 C 918.56 596.67 921.09 595.02 922.63 592.64 C 922.47 588.38 920.91 584.32 920.28 580.13 C 909.93 524.69 912.27 467.98 914.67 411.94 C 914.74 407.30 915.44 402.65 914.90 398.02 C 912.64 395.91 909.05 395.51 907.23 392.79 C 901.43 385.70 904.74 372.93 914.01 370.79 C 921.75 369.65 929.28 372.60 936.64 374.60 C 940.54 375.77 945.10 377.06 947.15 380.94 C 948.80 384.47 949.05 388.86 947.24 392.38 C 945.92 394.98 943.02 396.07 941.13 398.14 C 940.32 400.67 940.56 403.39 940.38 406.01 C 939.76 420.34 939.52 434.69 938.51 449.00 C 937.56 461.26 938.32 473.56 937.27 485.81 L 938.79 485.03 C 938.91 485.93 939.16 487.73 939.28 488.63 C 946.50 477.49 952.53 465.59 959.13 454.06 C 971.11 432.90 981.48 410.89 991.96 388.96 C 988.89 385.59 985.94 381.72 985.70 376.97 Z" />
<path fill="#000000" opacity="1.00" d=" M 791.18 368.13 C 793.49 365.80 796.80 364.74 800.05 364.76 C 812.61 364.69 825.19 366.43 837.29 369.76 C 844.91 371.84 847.03 383.26 841.12 388.17 C 836.71 391.21 831.05 390.29 826.01 390.79 C 822.92 413.06 822.12 435.53 820.75 457.95 C 819.74 480.95 819.39 503.99 819.85 527.00 C 820.09 542.43 821.35 557.88 824.24 573.05 C 825.86 580.80 829.67 589.58 837.92 592.03 C 848.98 594.83 860.33 591.39 870.78 587.80 C 870.47 583.27 870.04 578.63 871.30 574.21 C 872.38 570.44 875.54 567.46 879.22 566.27 C 883.60 565.06 888.56 567.40 890.68 571.36 C 892.33 574.40 892.65 577.91 893.28 581.26 C 892.79 581.40 891.81 581.67 891.32 581.81 C 892.14 589.19 891.89 596.64 891.95 604.06 C 892.00 607.90 891.55 612.01 889.18 615.18 C 886.64 618.50 881.11 618.92 878.19 615.89 C 876.25 613.90 875.16 611.30 873.82 608.92 C 863.10 613.32 851.71 616.58 840.01 616.16 C 830.51 616.26 820.74 612.86 814.29 605.69 C 806.33 597.05 803.46 585.23 801.08 574.06 C 796.42 551.71 795.04 528.82 794.82 506.03 C 794.82 482.28 795.24 458.51 797.19 434.83 C 798.37 419.82 799.04 404.78 800.22 389.77 C 796.28 388.88 791.63 388.36 789.18 384.71 C 786.11 379.62 786.66 372.23 791.18 368.13 Z" />
<path fill="#000000" opacity="1.00" d=" M 521.88 395.16 C 513.59 389.14 517.60 373.32 527.91 372.36 C 536.98 371.42 546.11 372.53 555.06 373.96 C 558.23 374.45 561.53 375.96 562.98 378.99 C 564.90 383.18 565.04 389.02 561.14 392.14 C 559.12 394.26 555.79 393.91 553.61 395.61 C 552.57 398.94 553.37 402.58 553.19 406.03 C 552.89 439.47 554.94 472.85 555.86 506.26 C 556.67 503.58 557.25 500.84 557.60 498.06 C 560.93 473.95 564.91 449.87 571.27 426.35 C 574.52 413.18 579.35 400.26 586.89 388.93 C 589.98 384.98 593.65 380.53 598.96 379.90 C 603.82 379.46 608.57 381.72 612.20 384.81 C 617.29 389.34 619.92 395.89 621.80 402.29 C 625.61 416.14 626.76 430.53 627.58 444.82 C 632.63 428.25 637.97 411.41 648.13 397.14 C 651.94 392.08 655.61 386.41 661.40 383.42 C 667.21 380.42 674.70 381.06 679.80 385.20 C 684.98 389.26 687.23 395.81 688.88 401.94 C 694.39 424.87 694.04 448.60 694.83 472.02 C 695.04 482.35 695.01 492.69 694.82 503.02 C 694.46 519.03 694.73 535.05 694.02 551.05 C 693.87 564.63 693.77 578.24 692.17 591.74 C 695.78 592.41 699.80 591.79 703.03 593.90 C 707.16 596.33 708.52 601.57 708.03 606.07 C 707.47 611.13 703.14 615.25 698.26 616.25 C 688.04 618.79 677.42 618.78 666.96 618.98 C 658.84 619.43 654.38 608.91 658.47 602.57 C 660.28 598.47 664.69 597.11 668.39 595.31 C 669.49 593.86 668.74 591.84 668.76 590.18 C 667.50 580.84 667.96 571.41 667.81 562.02 C 667.45 535.33 668.52 508.66 668.28 481.98 C 668.03 459.60 668.96 437.16 666.70 414.86 C 666.57 413.76 666.34 412.69 666.01 411.65 C 664.13 412.54 663.37 414.62 662.25 416.23 C 653.54 429.85 648.78 445.44 643.79 460.68 C 638.28 478.36 633.81 496.34 629.31 514.29 C 628.21 518.40 626.77 522.70 623.67 525.77 C 620.49 528.87 614.95 527.99 612.22 524.72 C 609.81 521.87 609.38 517.98 608.75 514.44 C 605.86 493.76 605.50 472.85 603.60 452.08 C 602.57 439.54 601.73 426.97 599.61 414.55 C 599.23 412.22 598.33 410.02 597.22 407.96 C 593.15 412.72 590.25 418.36 588.26 424.27 C 581.01 444.20 577.34 465.16 573.26 485.90 C 569.08 507.76 565.45 529.73 562.83 551.84 C 561.31 562.28 559.68 572.72 558.73 583.24 C 564.93 585.70 571.94 585.08 577.96 588.08 C 583.36 590.61 585.07 598.62 581.12 603.10 C 578.57 606.56 574.12 607.46 570.07 607.51 C 562.85 607.48 556.16 610.68 549.00 611.16 C 544.29 611.59 538.94 612.07 534.98 608.94 C 528.70 604.61 528.35 594.69 533.25 589.19 C 535.19 586.53 538.28 585.24 541.23 584.05 C 536.14 547.56 534.49 510.73 531.31 474.06 C 530.37 460.58 530.23 447.05 529.12 433.58 C 528.14 422.36 527.21 411.14 526.55 399.90 C 526.69 397.19 523.44 396.72 521.88 395.16 Z" />
<path fill="#000000" opacity="1.00" d=" M 431.33 419.31 C 442.83 411.50 456.93 407.04 470.88 408.60 C 477.25 409.32 484.19 410.35 489.05 414.93 C 492.25 417.75 493.69 422.70 491.53 426.57 C 488.86 431.19 484.19 434.30 479.42 436.44 C 472.55 439.00 465.08 438.65 457.96 440.07 C 439.04 443.68 420.63 449.49 402.26 455.19 C 401.22 455.42 400.16 455.49 399.10 455.40 C 407.12 441.30 417.89 428.52 431.33 419.31 Z" />
<path fill="#000000" opacity="1.00" d=" M 265.29 428.25 C 274.49 422.59 286.05 420.89 296.48 423.83 C 311.40 428.00 323.65 438.68 332.97 450.72 C 316.70 449.49 300.45 446.79 284.08 447.67 C 279.02 447.97 273.74 449.20 268.82 447.43 C 265.35 446.18 261.85 444.13 260.01 440.82 C 257.92 436.03 261.24 430.79 265.29 428.25 Z" />
<path fill="#000000" opacity="1.00" d=" M 348.21 455.17 C 357.17 450.22 368.37 449.19 377.89 453.15 C 385.56 456.08 391.68 462.19 395.81 469.17 C 403.09 482.25 403.07 498.27 398.23 512.18 C 411.33 533.77 412.50 561.14 404.21 584.68 C 410.52 589.69 414.10 598.08 412.58 606.09 C 411.53 611.50 409.37 616.62 407.88 621.92 C 406.00 627.18 404.92 632.86 401.52 637.44 C 409.78 648.08 410.85 662.88 406.50 675.34 C 384.86 743.43 363.14 811.50 341.53 879.60 C 337.93 890.89 329.61 900.86 318.61 905.54 C 311.80 908.36 304.01 908.73 297.07 906.11 C 258.64 893.84 220.26 881.43 181.83 869.18 C 177.27 867.53 172.35 866.55 168.40 863.58 C 157.68 856.27 152.75 842.56 154.03 829.94 C 154.77 820.95 158.72 812.69 161.07 804.08 C 181.06 741.39 200.97 678.68 220.96 616.00 C 224.87 602.30 235.80 590.05 250.05 586.98 C 251.34 578.14 255.04 569.91 257.47 561.36 C 260.05 551.79 269.17 543.96 279.32 544.34 C 285.78 521.74 300.95 500.96 322.26 490.40 C 325.79 475.88 334.74 462.19 348.21 455.17 M 359.10 471.97 C 354.22 473.12 350.83 477.04 347.34 480.33 C 341.51 486.95 340.41 495.94 339.23 504.29 C 335.18 506.77 330.44 507.88 326.39 510.38 C 322.69 512.68 319.01 515.11 316.04 518.33 C 307.04 526.13 301.45 537.00 297.66 548.12 C 327.53 557.38 357.21 567.23 387.04 576.62 C 392.47 560.31 391.82 541.62 383.62 526.34 C 381.52 522.37 378.59 518.95 376.24 515.15 C 378.05 510.93 380.25 506.85 381.59 502.45 C 383.66 494.11 383.06 484.41 377.59 477.44 C 373.45 471.89 365.59 469.64 359.10 471.97 M 272.43 576.21 C 271.28 580.09 269.57 583.87 269.07 587.92 C 270.22 589.66 272.84 589.54 274.65 590.34 C 311.00 601.98 347.33 613.67 383.69 625.29 C 384.87 625.67 386.81 626.15 387.34 624.58 C 389.63 617.19 392.30 609.90 394.08 602.36 C 355.05 589.39 315.74 577.26 276.66 564.45 C 274.54 568.08 273.86 572.29 272.43 576.21 M 239.49 619.62 C 236.77 628.01 234.02 636.41 231.52 644.87 C 240.06 647.47 248.53 650.30 257.06 652.94 C 260.47 654.16 264.61 654.96 266.52 658.42 C 270.75 664.51 265.52 674.60 258.04 674.25 C 250.72 673.08 243.97 669.65 236.69 668.32 C 233.15 666.39 229.15 665.59 225.40 664.19 C 220.40 678.97 215.94 693.92 211.07 708.75 C 220.21 711.76 229.42 714.57 238.59 717.50 C 241.59 718.43 244.78 719.72 246.46 722.57 C 250.19 728.44 246.02 737.45 239.07 738.25 C 235.24 738.41 231.69 736.71 228.13 735.56 C 220.36 733.15 212.62 730.68 204.90 728.11 C 199.95 743.66 195.10 759.23 190.07 774.75 C 199.48 777.76 208.85 780.88 218.32 783.73 C 221.87 784.78 225.36 787.09 226.36 790.88 C 228.99 797.94 221.44 806.50 214.04 803.89 C 204.04 800.64 194.01 797.44 183.98 794.25 C 181.29 801.98 178.90 809.80 176.46 817.61 C 174.44 823.85 171.67 830.39 173.26 837.06 C 174.03 842.15 177.84 846.62 182.79 848.09 C 223.20 861.04 263.60 874.06 304.03 886.96 C 312.76 889.61 321.01 882.43 323.45 874.45 C 344.54 808.50 365.43 742.49 386.50 676.53 C 388.50 669.84 391.70 662.76 389.16 655.75 C 388.06 651.04 384.37 647.36 379.68 646.22 C 342.07 634.16 304.46 622.12 266.85 610.03 C 262.92 608.88 259.09 607.16 254.98 606.77 C 247.61 606.98 241.86 613.03 239.49 619.62 Z" />
<path fill="#000000" opacity="1.00" d=" M 413.12 480.77 C 423.38 474.82 435.16 471.43 446.99 470.80 C 460.20 470.16 473.93 475.36 482.30 485.80 C 484.62 488.68 485.93 492.89 484.18 496.36 C 482.19 499.88 477.65 500.42 474.01 500.52 C 467.91 500.70 462.73 497.09 457.35 494.79 C 443.08 488.70 427.88 485.35 413.12 480.77 Z" />
<path fill="#000000" opacity="1.00" d=" M 617.41 638.51 C 619.51 636.72 622.44 636.85 625.03 636.62 C 633.68 635.97 642.22 638.18 650.45 640.59 C 655.78 642.24 657.65 649.34 654.87 653.84 C 653.20 656.39 649.83 656.21 647.27 657.18 C 646.26 658.14 646.45 659.65 646.31 660.92 C 645.59 677.61 646.57 694.31 645.88 711.01 C 645.20 729.00 645.56 747.03 645.14 765.03 C 645.27 766.98 647.67 766.61 648.98 767.23 C 655.88 768.58 657.34 777.90 654.22 783.19 C 652.47 786.44 648.46 786.40 645.37 787.39 C 644.52 792.56 645.21 797.85 645.00 803.08 C 645.27 825.40 644.71 847.74 643.58 870.04 C 643.70 874.84 641.79 879.97 643.39 884.56 C 646.77 885.67 650.54 885.53 653.72 887.31 C 658.83 890.01 659.04 898.17 654.54 901.55 C 652.13 903.48 648.85 903.11 645.97 903.36 C 637.46 903.55 628.81 904.10 620.44 902.27 C 614.74 900.72 613.31 892.96 616.27 888.42 C 617.60 885.84 620.65 885.32 622.86 883.80 C 623.71 880.60 623.06 877.25 623.04 874.00 C 622.37 844.26 622.02 814.51 622.23 784.76 C 615.84 784.62 609.26 783.74 603.13 785.96 C 593.91 786.46 584.62 785.50 575.43 786.41 C 573.35 807.13 574.12 828.16 571.05 848.83 C 576.63 850.25 582.44 849.24 588.07 850.19 C 594.07 851.43 596.94 858.46 596.07 864.04 C 595.61 867.52 592.69 870.66 589.01 870.44 C 577.57 870.83 566.23 872.47 554.94 874.30 C 550.65 875.09 545.76 873.40 543.72 869.36 C 541.19 863.96 542.11 856.69 546.80 852.72 C 549.17 850.55 552.43 849.96 555.44 849.13 C 552.82 830.54 552.48 811.73 552.62 792.98 C 552.53 791.01 552.86 788.92 552.01 787.09 C 548.02 786.37 543.48 787.63 539.96 785.13 C 533.94 781.33 534.43 771.08 540.62 767.73 C 544.06 766.16 548.03 766.81 551.53 765.44 C 552.72 752.05 552.58 738.53 552.85 725.07 C 553.02 706.99 553.46 688.91 553.11 670.83 C 549.45 670.12 545.22 669.51 543.15 665.98 C 538.72 660.03 542.11 650.32 549.45 648.77 C 557.91 647.38 566.52 648.32 575.00 649.08 C 579.80 649.67 584.91 649.58 589.32 651.82 C 594.83 654.70 595.87 663.18 591.27 667.34 C 588.22 670.77 583.29 669.66 579.27 670.41 C 577.94 670.94 578.52 672.81 578.27 673.93 C 578.32 699.30 578.18 724.69 576.86 750.03 C 576.80 755.02 576.28 760.04 576.91 765.01 C 577.94 766.11 579.66 765.56 581.00 765.69 C 594.46 764.91 607.99 766.47 621.43 765.47 L 621.98 764.91 C 622.62 759.96 622.05 754.95 622.17 749.98 C 622.36 719.06 623.94 688.17 624.76 657.27 C 621.11 656.04 616.70 655.05 614.75 651.36 C 612.75 647.15 613.63 641.45 617.41 638.51 Z" />
<path fill="#000000" opacity="1.00" d=" M 918.84 645.91 C 923.40 641.51 929.95 640.82 935.84 639.48 C 943.91 637.65 952.69 638.17 960.19 641.78 C 966.59 646.31 966.76 656.83 960.93 661.93 C 958.76 663.69 955.81 662.94 953.27 662.90 C 952.25 673.97 952.78 685.11 951.77 696.19 C 950.19 726.77 950.62 757.41 950.56 788.02 C 950.56 815.00 950.55 841.98 950.57 868.96 C 950.63 873.70 949.83 878.37 949.50 883.09 C 953.86 883.74 958.65 883.11 962.64 885.32 C 969.02 889.44 967.21 900.64 959.93 902.77 C 952.23 906.03 943.64 906.43 936.06 910.03 C 931.10 912.61 923.55 910.74 921.83 905.00 C 920.47 900.56 920.46 895.22 923.44 891.42 C 925.89 888.20 929.63 886.40 932.97 884.28 C 930.14 873.06 930.44 861.43 929.89 849.96 C 929.52 839.62 929.76 829.27 929.38 818.93 C 928.89 803.29 929.43 787.63 928.79 771.99 C 927.90 749.03 928.46 726.04 928.66 703.07 C 928.70 690.47 930.84 677.95 930.32 665.35 C 926.56 665.42 922.19 666.66 919.03 663.94 C 913.80 659.46 913.83 650.54 918.84 645.91 Z" />
<path fill="#000000" opacity="1.00" d=" M 1022.40 649.44 C 1026.77 644.51 1032.55 640.78 1038.94 639.11 C 1046.83 637.13 1055.05 640.90 1060.54 646.49 C 1066.75 652.79 1069.41 661.53 1071.44 669.92 C 1076.56 692.58 1075.02 716.07 1072.14 738.93 C 1071.71 742.94 1070.68 746.92 1070.87 750.97 C 1074.98 752.80 1080.22 752.07 1083.66 755.41 C 1086.93 759.06 1087.26 765.32 1084.06 769.13 C 1080.68 772.56 1075.57 773.21 1071.03 773.86 C 1064.85 774.44 1058.56 775.37 1052.40 774.45 C 1042.99 771.00 1044.55 754.49 1054.34 752.68 C 1055.87 752.15 1058.54 752.34 1058.26 750.00 C 1057.82 726.90 1059.80 703.39 1054.27 680.71 C 1052.94 676.34 1051.98 671.63 1049.20 667.91 C 1047.34 665.46 1043.73 665.69 1041.55 667.56 C 1035.22 672.42 1031.13 679.49 1027.42 686.41 C 1019.65 700.99 1015.29 717.03 1011.19 732.93 C 1005.89 753.85 1003.28 775.42 1003.09 796.99 C 1003.08 817.01 1006.83 837.24 1015.49 855.38 C 1019.76 864.31 1026.73 872.41 1036.09 876.13 C 1039.67 877.60 1043.90 877.23 1047.20 875.21 C 1052.11 872.21 1056.16 867.70 1058.30 862.34 C 1059.76 858.67 1061.58 855.17 1063.56 851.77 C 1060.18 848.03 1055.32 844.61 1055.25 839.05 C 1054.47 833.45 1059.80 826.22 1065.90 829.13 C 1072.03 832.29 1077.11 837.22 1082.02 842.01 C 1085.88 846.35 1090.80 850.78 1091.09 857.01 C 1091.54 861.12 1089.36 865.99 1085.01 866.94 C 1082.44 867.67 1080.09 866.23 1077.89 865.15 C 1074.56 870.56 1072.54 876.67 1069.08 882.02 C 1063.54 891.11 1054.64 898.47 1044.11 900.79 C 1036.16 902.48 1028.04 899.71 1021.19 895.80 C 1010.33 889.51 1002.51 879.12 996.99 868.06 C 988.96 851.95 984.90 834.20 982.26 816.50 C 979.35 795.13 980.14 773.41 982.92 752.07 C 985.47 732.35 990.85 713.11 997.42 694.39 C 1003.25 678.22 1010.76 662.28 1022.40 649.44 Z" />
<path fill="#000000" opacity="1.00" d=" M 479.49 643.36 C 485.94 641.43 493.22 644.74 496.76 650.32 C 500.06 655.37 501.47 661.33 502.94 667.11 C 508.32 689.64 507.68 712.97 508.89 735.95 C 509.60 748.94 509.19 761.96 510.05 774.94 C 512.62 775.80 515.58 776.31 517.43 778.50 C 520.82 782.87 521.15 789.91 517.04 793.96 C 515.05 796.12 511.89 795.92 509.40 797.11 C 507.77 806.29 508.44 815.68 508.23 824.95 C 507.83 843.28 507.86 861.61 506.91 879.92 C 510.97 880.56 515.24 880.38 519.12 881.88 C 524.00 884.10 524.03 890.46 523.20 894.99 C 521.65 900.62 514.99 901.49 510.12 902.49 C 502.97 903.21 496.12 905.88 488.96 906.20 C 480.88 905.48 477.30 895.27 480.79 888.65 C 481.99 885.26 485.84 883.97 487.50 881.03 C 486.44 863.05 486.91 845.01 486.81 827.00 C 486.58 817.29 487.31 807.55 486.40 797.87 C 470.97 799.31 455.42 797.96 439.95 798.67 C 437.40 811.68 435.69 824.83 433.58 837.91 C 432.45 845.63 430.87 853.33 430.65 861.16 C 434.96 861.64 439.90 860.72 443.60 863.48 C 448.01 868.03 447.18 877.20 440.93 879.78 C 432.41 883.47 422.99 884.24 413.88 885.46 C 408.04 886.37 403.13 880.54 403.68 874.96 C 403.52 870.05 407.35 866.62 410.93 863.94 C 411.65 858.62 411.13 853.22 411.69 847.89 C 413.10 831.54 416.62 815.43 418.02 799.09 C 414.34 798.76 410.51 799.18 406.96 798.02 C 401.65 796.03 400.82 787.72 405.40 784.55 C 409.72 781.52 415.52 782.30 420.05 780.14 C 422.71 770.20 424.09 759.93 426.45 749.91 C 431.13 728.66 437.54 707.78 445.58 687.56 C 450.09 676.42 455.50 665.51 462.95 656.02 C 467.31 650.56 472.78 645.65 479.49 643.36 M 467.87 682.93 C 459.64 701.73 453.88 721.51 449.41 741.51 C 446.85 753.57 443.95 765.65 442.77 777.95 C 448.52 777.64 454.21 776.62 459.99 776.65 C 468.73 776.22 477.58 776.96 486.25 775.37 C 487.24 766.27 487.18 757.09 487.51 747.96 C 487.27 729.70 487.19 711.42 486.20 693.18 C 485.38 684.01 484.90 674.52 481.12 665.99 C 474.81 669.84 470.82 676.36 467.87 682.93 Z" />
<path fill="#000000" opacity="1.00" d=" M 719.07 652.57 C 720.46 648.54 723.06 643.82 727.93 643.78 C 738.67 642.90 747.25 650.68 753.70 658.30 C 762.33 669.20 768.42 681.94 773.02 695.00 C 779.77 714.26 781.81 734.76 782.42 755.04 C 783.00 772.70 781.35 790.32 779.31 807.84 C 777.29 828.39 773.18 848.90 764.98 867.94 C 760.68 877.72 755.88 887.62 748.17 895.20 C 741.36 901.91 731.74 906.26 722.07 905.32 C 713.11 904.45 705.26 899.14 699.16 892.80 C 691.41 884.63 686.25 874.42 681.88 864.14 C 675.27 848.24 671.88 831.12 670.96 813.96 C 669.44 790.90 671.46 767.75 674.57 744.90 C 678.38 720.78 685.29 696.54 699.25 676.21 C 700.26 674.56 701.66 672.97 701.84 670.97 C 701.29 667.28 699.27 663.77 699.93 659.96 C 700.68 655.05 703.71 649.66 708.95 648.63 C 712.81 647.92 716.56 649.69 719.07 652.57 M 731.48 674.44 C 734.63 682.69 740.53 690.75 739.04 700.02 C 738.37 705.71 731.49 709.66 726.40 706.65 C 721.81 703.75 720.33 698.08 717.03 694.02 C 708.16 709.41 703.31 726.74 699.72 744.04 C 696.64 757.79 695.75 771.90 694.42 785.90 C 693.59 796.90 694.82 807.91 694.96 818.91 C 696.85 835.56 701.52 851.97 709.05 866.97 C 711.49 871.63 714.43 876.07 718.00 879.95 C 722.58 884.85 731.08 885.80 736.23 881.24 C 744.04 875.78 747.55 866.57 751.14 858.15 C 759.52 837.49 761.46 815.01 762.36 792.95 C 763.61 771.88 761.96 750.68 758.02 729.96 C 754.89 713.84 749.70 697.93 741.00 683.92 C 738.65 680.04 735.16 677.01 731.48 674.44 Z" />
<path fill="#000000" opacity="1.00" d=" M 801.10 649.01 C 803.25 646.43 806.56 644.91 809.93 644.91 C 821.72 644.67 833.47 646.48 844.89 649.34 C 848.95 650.16 852.94 652.82 853.99 657.04 C 855.11 661.38 854.79 667.03 850.77 669.82 C 846.51 672.68 841.13 671.44 836.38 672.40 C 833.80 690.15 832.76 708.11 831.96 726.04 C 830.30 750.65 829.88 775.33 829.92 799.99 C 830.03 816.04 830.20 832.13 832.19 848.08 C 833.41 857.08 833.98 866.49 838.23 874.69 C 840.55 879.28 844.76 883.15 849.94 884.04 C 860.46 885.97 871.00 882.72 880.75 879.03 C 880.35 874.33 879.98 869.52 881.20 864.91 C 882.22 860.95 885.43 857.67 889.31 856.43 C 893.60 855.31 898.30 857.78 900.35 861.62 C 902.05 864.80 902.41 868.46 902.96 871.98 C 902.55 872.24 901.71 872.78 901.30 873.05 C 901.43 878.71 901.86 884.37 901.72 890.05 C 901.59 895.85 902.52 902.21 899.30 907.41 C 897.10 911.17 891.24 911.96 888.22 908.79 C 885.92 906.81 885.57 903.27 883.18 901.52 C 876.62 904.09 870.06 906.88 863.03 907.92 C 852.20 909.65 840.07 909.81 830.69 903.32 C 821.14 896.91 816.49 885.72 813.77 874.97 C 807.98 851.58 806.09 827.42 805.40 803.40 C 804.88 771.26 805.80 739.09 808.41 707.04 C 808.91 695.01 810.03 683.00 810.45 670.98 C 806.39 670.31 801.71 669.44 799.47 665.56 C 796.83 660.41 797.09 653.42 801.10 649.01 Z" />
</g>
</svg>
