<?xml version="1.0" encoding="UTF-8" ?>
<!DOCTYPE svg PUBLIC "-//W3C//DTD SVG 1.1//EN" "http://www.w3.org/Graphics/SVG/1.1/DTD/svg11.dtd">
<svg width="1200pt" height="1200pt" viewBox="0 0 1200 1200" version="1.1" xmlns="http://www.w3.org/2000/svg">
<g id="#000000ff">
<path fill="#000000" opacity="1.00" d=" M 571.81 106.69 C 574.17 102.37 579.53 102.82 583.68 103.45 C 585.00 105.09 586.49 106.72 587.04 108.82 C 590.12 119.91 590.29 131.52 590.15 142.95 C 589.42 158.99 588.66 175.03 587.93 191.07 C 587.97 199.47 572.92 200.23 571.94 192.05 C 571.88 168.32 576.32 144.48 572.53 120.84 C 572.02 116.17 570.40 111.33 571.81 106.69 Z" />
<path fill="#000000" opacity="1.00" d=" M 496.37 176.59 C 499.27 175.80 502.26 176.88 504.92 178.00 C 512.88 181.63 520.24 186.52 526.98 192.07 C 529.73 194.69 533.18 197.14 534.18 201.01 C 533.87 204.61 530.44 207.42 527.03 208.13 C 524.36 208.02 522.05 206.51 519.82 205.19 C 510.90 199.52 502.09 193.66 493.65 187.29 C 491.55 185.75 489.47 183.20 490.49 180.44 C 491.84 178.46 494.06 177.15 496.37 176.59 Z" />
<path fill="#000000" opacity="1.00" d=" M 683.56 177.68 C 687.19 176.52 691.90 178.09 693.10 181.95 C 693.32 183.76 693.67 186.39 691.63 187.31 C 679.76 193.02 667.65 198.20 655.70 203.72 C 652.79 205.02 649.94 206.48 646.87 207.36 C 644.19 206.72 641.54 205.36 639.73 203.25 C 638.01 200.15 639.83 196.31 642.95 194.98 C 655.98 188.16 669.21 181.30 683.56 177.68 Z" />
<path fill="#000000" opacity="1.00" d=" M 432.60 222.75 C 441.71 222.14 450.93 221.30 459.98 222.95 C 468.03 224.35 476.21 224.81 484.22 226.39 C 487.53 226.93 490.63 230.52 488.95 233.89 C 487.10 238.44 481.34 239.14 477.09 238.25 C 458.95 235.16 440.39 234.18 422.09 236.41 C 417.95 236.75 413.23 237.98 409.56 235.36 C 406.59 233.57 405.64 228.79 408.32 226.35 C 410.45 224.55 413.34 224.21 416.01 223.91 C 421.53 223.43 427.07 223.18 432.60 222.75 Z" />
<path fill="#000000" opacity="1.00" d=" M 688.57 233.77 C 720.25 231.19 752.02 233.15 783.74 233.83 C 786.60 234.01 790.15 234.68 791.39 237.67 C 792.53 240.32 791.60 243.64 789.03 245.08 C 786.38 246.80 783.06 246.64 780.04 246.58 C 747.03 245.30 713.97 245.24 680.99 247.22 C 677.37 247.58 673.06 246.27 671.50 242.71 C 670.29 240.28 671.34 236.97 673.90 235.91 C 678.44 233.67 683.68 234.29 688.57 233.77 Z" />
<path fill="#000000" opacity="1.00" d=" M 744.38 268.39 C 745.64 265.78 747.62 262.51 751.04 263.04 C 755.65 263.00 759.46 267.59 758.76 272.10 C 757.98 276.98 755.83 281.48 754.19 286.09 C 742.01 319.10 737.41 354.27 734.45 389.13 C 733.42 393.42 730.75 397.38 731.34 401.98 C 732.67 423.26 732.95 444.61 732.32 465.93 C 731.99 468.80 732.49 472.70 729.48 474.32 C 726.16 475.97 720.65 475.98 719.10 471.93 C 717.48 466.78 718.17 461.26 717.84 455.95 C 717.36 406.90 713.86 357.15 698.64 310.21 C 696.37 303.20 693.77 296.26 692.30 289.03 C 691.27 285.04 694.95 281.78 698.27 280.39 C 701.37 279.10 704.60 281.41 705.62 284.32 C 714.27 303.83 718.74 324.81 723.86 345.42 C 726.64 328.75 729.73 312.09 734.62 295.88 C 737.44 286.58 740.19 277.19 744.38 268.39 Z" />
<path fill="#000000" opacity="1.00" d=" M 814.43 266.58 C 819.33 264.66 824.82 267.12 828.14 270.86 C 832.29 275.51 835.08 281.31 836.80 287.27 C 837.76 290.29 836.85 294.36 833.64 295.59 C 828.54 296.34 823.97 292.73 818.91 292.95 C 815.30 293.60 814.34 297.76 813.87 300.83 C 811.82 317.51 815.01 334.64 822.34 349.72 C 828.27 361.98 835.36 373.80 839.15 386.99 C 843.41 401.20 843.92 416.24 843.05 430.95 C 842.15 443.45 839.89 456.31 833.20 467.13 C 829.93 472.47 824.59 477.33 817.97 477.38 C 810.55 477.54 804.39 472.44 799.80 467.14 C 797.79 464.72 795.90 460.92 798.08 458.03 C 799.94 455.76 802.58 453.51 805.64 453.38 C 809.28 455.10 811.66 459.26 815.96 459.55 C 819.84 459.60 822.45 456.15 824.08 453.04 C 828.29 444.70 829.38 435.21 829.88 426.00 C 830.59 409.60 829.29 392.40 821.19 377.75 C 814.37 365.18 807.17 352.59 803.52 338.64 C 800.17 325.42 798.87 311.54 800.89 298.00 C 802.13 289.24 803.81 280.24 808.45 272.57 C 809.99 270.21 811.78 267.78 814.43 266.58 Z" />
<path fill="#000000" opacity="1.00" d=" M 409.37 272.54 C 411.99 271.25 414.96 267.84 417.96 270.16 C 421.40 272.04 421.20 276.54 421.57 279.92 C 422.28 297.94 421.81 315.98 422.13 334.01 C 422.44 362.68 423.27 391.33 424.44 419.98 C 424.61 435.98 424.41 451.99 424.54 468.00 C 424.52 469.95 424.59 471.94 424.15 473.87 C 421.22 475.45 416.69 475.46 414.64 472.51 C 413.45 469.52 413.60 466.22 413.30 463.07 C 411.71 435.72 410.65 408.35 409.82 380.97 C 409.24 370.60 410.12 360.16 408.79 349.84 C 407.35 354.16 406.76 358.69 406.10 363.18 C 401.49 395.41 397.98 427.79 395.21 460.23 C 394.56 465.57 394.43 471.03 392.97 476.23 C 391.96 479.70 387.45 481.46 384.38 479.51 C 381.93 477.92 381.92 474.68 381.32 472.13 C 375.55 435.35 370.92 398.40 364.74 361.69 C 363.99 390.11 363.59 418.54 363.26 446.97 C 363.10 455.36 363.21 463.76 362.64 472.13 C 362.56 475.58 360.46 479.22 357.02 480.23 C 353.63 480.74 351.61 477.41 349.52 475.37 C 350.93 411.91 350.75 348.43 352.15 284.98 C 352.45 281.12 352.59 276.25 356.14 273.85 C 359.82 272.01 363.72 275.29 364.17 278.99 C 367.58 293.49 369.51 308.30 371.94 322.99 C 376.81 353.37 381.47 383.79 386.26 414.18 C 391.20 370.84 398.25 327.76 406.40 284.92 C 407.21 280.75 408.17 276.61 409.37 272.54 Z" />
<path fill="#000000" opacity="1.00" d=" M 579.91 272.80 C 581.60 271.15 583.72 269.87 586.00 269.21 C 588.59 269.73 590.93 271.72 591.29 274.45 C 592.61 282.20 592.14 290.13 592.35 297.97 C 592.30 338.39 593.12 378.82 594.82 419.21 C 595.04 435.45 594.80 451.70 594.94 467.95 C 594.91 469.88 594.97 471.85 594.60 473.77 C 591.78 475.50 587.39 475.44 585.20 472.75 C 583.88 470.23 584.12 467.25 583.79 464.50 C 582.10 436.09 581.02 407.64 580.18 379.18 C 579.64 369.36 580.51 359.45 579.15 349.68 C 577.26 356.03 576.64 362.66 575.64 369.19 C 571.84 397.02 568.67 424.94 566.27 452.92 C 565.50 460.47 565.15 468.10 563.61 475.54 C 562.89 479.71 557.22 481.92 554.07 478.95 C 551.95 476.56 552.05 473.12 551.40 470.16 C 545.96 434.03 540.89 397.84 535.39 361.71 C 533.73 397.76 534.22 433.88 533.19 469.94 C 533.33 473.90 531.95 478.52 527.93 480.08 C 524.34 481.15 522.06 477.48 519.90 475.31 C 521.36 411.85 521.14 348.37 522.55 284.91 C 522.78 281.33 523.04 277.31 525.58 274.55 C 528.20 272.07 532.90 273.72 533.90 277.04 C 536.01 283.17 536.70 289.69 537.97 296.02 C 544.49 335.39 550.42 374.86 556.70 414.27 C 561.50 371.07 568.62 328.15 576.70 285.45 C 577.67 281.22 578.15 276.80 579.91 272.80 Z" />
<path fill="#000000" opacity="1.00" d=" M 665.91 272.80 C 668.06 271.07 671.09 268.12 673.96 269.94 C 676.69 271.08 677.43 274.19 677.70 276.84 C 678.37 283.53 678.23 290.27 678.35 296.99 C 678.37 321.01 678.53 345.02 679.16 369.02 C 679.50 392.35 681.20 415.65 680.90 438.99 C 680.83 450.02 681.03 461.06 680.83 472.09 C 681.03 475.41 676.28 475.07 674.05 474.60 C 670.05 473.83 670.15 469.13 669.90 465.98 C 668.02 435.02 666.83 404.02 666.04 373.02 C 665.71 365.24 666.38 357.40 665.15 349.69 C 663.13 356.58 662.49 363.77 661.41 370.84 C 657.68 398.46 654.54 426.17 652.19 453.94 C 651.64 459.93 651.12 465.93 650.31 471.89 C 649.91 474.29 649.65 477.00 647.75 478.76 C 645.24 481.24 640.14 480.74 638.90 477.17 C 637.62 473.22 637.31 469.03 636.59 464.96 C 631.54 430.54 626.58 396.10 621.40 361.70 C 619.72 397.76 620.23 433.89 619.19 469.97 C 619.50 474.36 617.15 480.44 611.97 480.25 C 609.02 479.21 605.69 476.52 605.99 473.07 C 607.30 410.37 607.18 347.65 608.55 284.95 C 608.77 281.37 609.03 277.35 611.57 274.56 C 614.17 272.07 618.87 273.70 619.90 277.02 C 622.01 283.17 622.70 289.69 623.97 296.04 C 630.49 335.39 636.40 374.84 642.70 414.22 C 647.40 371.86 654.39 329.78 662.21 287.89 C 663.36 282.85 663.90 277.59 665.91 272.80 Z" />
<path fill="#000000" opacity="1.00" d=" M 470.39 273.47 C 473.48 271.47 477.35 273.08 479.89 275.23 C 484.84 279.41 488.27 285.06 491.32 290.70 C 497.07 301.86 500.88 313.92 503.68 326.12 C 509.13 350.63 509.81 376.06 507.04 400.97 C 504.92 418.84 501.59 436.80 494.42 453.40 C 490.95 461.06 486.80 468.77 480.26 474.25 C 475.75 478.10 469.10 480.02 463.51 477.45 C 457.55 474.68 453.80 468.87 450.84 463.26 C 443.85 449.16 440.99 433.47 438.78 418.02 C 434.98 389.00 434.15 359.26 439.70 330.41 C 442.12 318.99 445.21 307.43 451.31 297.36 C 454.48 292.25 459.55 287.07 466.07 287.52 C 471.15 288.37 473.96 294.30 473.01 299.05 C 472.71 301.52 469.75 301.94 467.98 303.05 C 460.13 306.14 456.56 314.55 454.12 322.02 C 447.73 342.97 448.29 365.18 448.53 386.85 C 449.29 408.17 451.12 429.95 458.96 449.99 C 461.07 454.58 463.51 460.46 469.02 461.59 C 474.51 461.68 477.69 456.26 480.11 452.09 C 487.60 437.42 491.25 421.09 493.30 404.84 C 495.83 382.64 495.54 360.06 491.97 337.99 C 489.50 324.09 485.93 310.17 479.37 297.58 C 477.02 292.85 473.36 288.95 469.01 285.98 C 464.27 283.21 466.31 275.88 470.39 273.47 Z" />
<path fill="#000000" opacity="1.00" d=" M 773.34 297.52 C 776.47 296.07 780.94 297.61 781.91 301.10 C 782.92 304.61 783.10 308.30 783.52 311.93 C 784.40 321.91 785.22 331.91 785.41 341.93 C 785.26 344.73 785.47 348.14 783.22 350.21 C 781.34 351.25 779.14 351.62 777.03 351.72 C 773.65 350.56 773.37 346.46 772.80 343.48 C 771.33 331.72 770.63 319.86 770.12 308.02 C 770.10 304.41 769.95 299.80 773.34 297.52 Z" />
<path fill="#000000" opacity="1.00" d=" M 287.42 508.70 C 490.58 508.42 693.73 508.29 896.89 507.94 C 885.42 543.84 873.89 579.71 862.35 615.58 C 861.70 617.32 861.70 619.20 862.09 621.01 C 868.59 658.62 874.99 696.24 881.44 733.86 C 678.76 735.15 476.07 736.44 273.38 737.72 C 285.82 699.63 298.18 661.52 310.64 623.44 C 311.39 620.72 313.00 617.96 312.20 615.08 C 303.96 579.62 295.68 544.16 287.42 508.70 M 425.30 539.36 C 424.39 541.80 424.50 544.46 424.37 547.03 C 423.08 593.00 421.92 638.98 420.95 684.96 C 420.96 688.62 420.51 692.32 421.15 695.95 C 421.89 698.37 424.74 698.76 426.86 699.16 C 436.21 700.54 445.75 700.16 455.04 702.02 C 458.34 702.58 461.57 703.74 464.95 703.77 C 468.69 702.58 471.25 698.17 470.59 694.33 C 469.88 691.07 466.21 690.23 463.49 689.41 C 454.21 687.07 444.64 686.22 435.15 685.30 C 436.16 637.51 438.02 589.74 438.42 541.94 C 439.05 535.12 427.53 533.23 425.30 539.36 M 656.79 536.85 C 653.98 538.97 654.20 542.86 654.00 546.00 C 652.64 594.65 651.39 643.31 650.42 691.97 C 650.07 694.78 650.92 698.31 654.24 698.70 C 665.48 700.93 677.17 699.85 688.32 702.81 C 691.01 703.22 694.28 704.79 696.66 702.74 C 699.09 700.64 700.99 697.25 700.09 693.99 C 699.27 691.13 696.07 690.33 693.59 689.55 C 684.15 687.08 674.39 686.27 664.72 685.28 C 665.82 638.17 667.48 591.08 668.06 543.96 C 667.90 542.02 668.35 539.72 666.95 538.14 C 664.42 535.48 659.88 534.83 656.79 536.85 M 727.76 541.75 C 724.35 542.64 720.62 543.32 717.95 545.80 C 715.49 548.05 713.51 550.75 711.39 553.30 C 711.55 600.54 711.42 647.78 711.91 695.01 C 712.13 699.63 711.74 704.39 712.94 708.91 C 717.00 711.75 722.52 709.95 726.89 708.59 C 734.56 705.77 742.94 707.67 750.75 705.64 C 754.05 704.85 753.88 700.73 753.49 698.10 C 753.33 695.63 751.53 693.45 748.99 693.26 C 741.51 692.17 733.93 693.06 726.41 693.07 C 726.42 669.23 726.40 645.40 726.42 621.56 C 734.86 621.35 743.40 622.13 751.78 620.77 C 756.34 620.25 756.91 614.60 756.14 611.02 C 755.53 608.26 752.39 607.85 750.07 607.55 C 742.30 606.78 734.48 606.74 726.70 606.26 C 726.40 589.93 725.65 573.60 725.96 557.27 C 735.34 554.92 745.20 554.54 754.32 551.17 C 758.85 549.74 759.91 543.34 756.93 540.00 C 754.88 537.93 751.73 537.92 749.02 538.00 C 741.81 538.38 734.78 540.17 727.76 541.75 M 487.19 541.11 C 483.96 541.64 481.59 544.67 482.05 547.96 C 481.79 576.97 482.07 606.00 482.32 635.02 C 482.54 656.69 482.63 678.37 483.38 700.03 C 483.66 702.18 483.07 705.42 485.82 706.15 C 489.08 707.01 493.31 707.42 496.00 705.01 C 498.10 701.40 496.90 696.97 497.01 693.02 C 496.14 649.33 496.71 605.62 495.82 561.93 C 495.43 555.54 495.83 548.97 494.13 542.76 C 492.41 540.96 489.53 540.67 487.19 541.11 M 508.08 542.04 C 505.09 544.53 502.93 549.78 506.19 552.89 C 512.22 555.98 519.10 556.87 525.62 558.46 C 525.42 603.97 524.83 649.48 525.14 694.99 C 525.25 697.28 525.03 699.76 526.20 701.84 C 528.33 706.06 535.07 706.81 538.03 703.12 C 539.66 701.11 541.03 698.68 540.79 696.01 C 540.76 674.67 540.77 653.32 540.79 631.97 C 540.93 608.01 540.51 584.03 541.66 560.08 C 549.82 559.64 558.02 559.53 566.13 558.46 C 571.76 557.98 574.04 548.71 569.62 545.54 C 561.90 543.78 553.90 545.46 546.07 545.00 C 535.94 544.40 525.93 542.69 515.95 540.97 C 513.34 540.62 510.17 539.95 508.08 542.04 M 578.68 542.61 C 575.92 545.18 574.20 550.61 577.81 553.17 C 583.81 555.92 590.42 556.97 596.82 558.46 C 596.62 603.99 596.03 649.51 596.34 695.05 C 596.43 697.48 596.24 700.17 597.67 702.31 C 600.01 706.09 606.28 706.66 609.15 703.20 C 610.83 701.20 612.22 698.74 612.00 696.04 C 611.96 676.36 611.98 656.68 611.98 637.00 C 612.11 611.38 611.71 585.74 612.81 560.13 C 620.92 559.60 629.07 559.55 637.14 558.49 C 642.81 558.11 645.04 549.39 641.24 545.74 C 635.04 543.89 628.38 545.07 622.01 545.06 C 609.85 545.12 597.87 542.69 585.91 540.80 C 583.38 540.32 580.42 540.43 578.68 542.61 Z" />
<path fill="#000000" opacity="1.00" d=" M 410.69 762.85 C 414.96 762.32 418.63 759.53 423.00 759.65 C 430.46 759.56 438.82 759.30 445.00 764.17 C 455.13 772.26 459.82 785.35 460.62 797.96 C 461.85 816.94 460.04 836.62 452.05 854.07 C 448.47 861.65 443.02 868.49 435.83 872.91 C 431.06 875.95 425.57 877.50 420.26 879.30 C 420.26 903.53 420.22 927.76 420.27 952.00 C 420.20 955.52 420.88 959.50 418.39 962.42 C 416.44 965.92 411.55 966.52 408.23 964.78 C 405.80 963.02 403.89 960.10 404.20 957.00 C 404.48 901.01 404.52 845.01 404.98 789.02 C 405.18 781.76 404.75 774.40 406.14 767.23 C 406.42 764.85 408.33 763.07 410.69 762.85 M 420.85 775.90 C 421.01 804.17 420.51 832.44 419.95 860.71 C 424.69 859.43 429.61 857.73 432.85 853.82 C 439.93 845.61 442.37 834.59 444.11 824.18 C 446.01 809.39 446.68 792.92 437.92 780.03 C 434.03 774.64 426.59 776.11 420.85 775.90 Z" />
<path fill="#000000" opacity="1.00" d=" M 577.56 766.60 C 580.78 763.05 587.43 765.17 587.95 770.03 C 592.27 785.85 594.72 802.13 598.40 818.11 C 605.15 850.42 612.84 882.53 619.71 914.81 C 620.70 897.53 620.80 880.21 621.70 862.92 C 622.89 837.56 624.10 812.17 626.38 786.88 C 626.84 783.31 627.00 778.60 630.74 776.85 C 633.98 775.63 639.30 776.79 639.38 781.01 C 640.04 787.35 639.19 793.72 638.86 800.06 C 634.89 851.62 633.55 903.35 633.65 955.06 C 633.43 962.01 633.92 969.05 632.84 975.95 C 632.32 979.27 628.29 981.51 625.26 979.87 C 621.55 977.95 620.48 973.52 619.38 969.84 C 612.04 942.44 605.89 914.75 599.54 887.12 C 595.62 870.64 592.53 853.95 588.08 837.61 C 587.30 867.42 588.00 897.25 588.07 927.07 C 588.19 940.52 588.21 953.96 588.40 967.41 C 586.27 969.90 583.74 973.47 579.93 972.35 C 575.58 971.13 575.08 965.82 574.96 962.05 C 574.48 929.38 574.67 896.70 574.61 864.03 C 574.68 835.68 574.57 807.32 575.06 778.97 C 575.37 774.82 575.24 770.24 577.56 766.60 Z" />
<path fill="#000000" opacity="1.00" d=" M 488.84 774.67 C 494.89 772.30 501.56 772.50 507.88 773.46 C 511.24 774.02 514.75 775.21 516.98 777.95 C 522.67 784.66 525.50 793.28 527.13 801.80 C 529.46 814.51 529.86 827.81 526.62 840.40 C 524.62 847.80 520.99 854.97 515.21 860.14 C 513.62 861.65 511.76 863.01 510.82 865.07 C 512.96 869.97 517.17 873.61 519.54 878.41 C 527.21 892.91 531.90 908.86 534.42 925.03 C 536.93 940.53 538.53 956.25 537.97 971.97 C 537.64 974.82 537.81 978.31 535.43 980.38 C 532.06 982.54 526.74 982.06 524.43 978.55 C 522.62 976.11 522.84 972.90 522.63 970.03 C 522.00 944.47 519.78 918.42 510.57 894.34 C 507.82 887.73 504.72 880.62 498.62 876.42 C 495.49 874.16 491.49 874.66 487.89 874.94 C 486.38 902.94 485.78 930.98 484.75 959.00 C 484.46 964.01 484.99 969.62 481.91 973.94 C 479.67 976.85 475.45 976.29 472.33 975.46 C 470.32 975.09 470.17 972.65 469.75 971.07 C 468.83 964.76 469.44 958.36 469.52 952.02 C 471.44 906.38 471.43 860.70 471.73 815.03 C 471.89 804.66 471.76 794.28 472.60 783.95 C 472.87 781.12 473.33 777.60 476.31 776.34 C 480.34 774.95 484.80 776.16 488.84 774.67 M 488.09 793.29 C 487.95 814.14 487.76 834.99 487.78 855.84 C 493.17 854.22 498.25 851.35 501.89 846.99 C 509.35 838.19 512.58 826.40 512.61 815.02 C 512.47 807.66 511.20 799.56 505.87 794.06 C 500.88 789.78 493.77 791.67 488.09 793.29 Z" />
<path fill="#000000" opacity="1.00" d=" M 679.37 774.57 C 681.67 773.62 684.31 773.25 686.61 774.47 C 693.40 777.51 698.60 783.58 701.56 790.31 C 704.16 795.45 697.85 800.26 693.10 799.69 C 688.31 798.82 687.14 792.92 682.91 791.15 C 680.74 790.61 679.34 792.86 678.30 794.38 C 675.03 800.02 673.71 806.52 672.32 812.83 C 668.29 833.30 666.35 854.17 666.18 875.03 C 666.12 893.16 667.30 911.46 671.88 929.07 C 673.64 935.49 675.63 942.00 679.31 947.61 C 681.44 950.91 684.82 953.81 688.94 953.87 C 692.92 954.13 695.78 950.74 697.71 947.69 C 699.24 945.54 700.34 942.76 702.93 941.69 C 706.27 941.71 710.84 942.07 712.11 945.82 C 713.68 948.83 711.92 952.05 710.85 954.91 C 707.86 961.96 704.18 969.26 697.73 973.76 C 693.34 976.89 687.21 977.40 682.58 974.49 C 675.30 970.06 670.74 962.47 667.05 955.03 C 658.49 936.86 654.39 916.90 652.65 896.98 C 650.87 875.32 651.50 853.48 654.21 831.92 C 656.25 817.38 658.57 802.50 665.28 789.27 C 668.47 783.25 672.64 776.94 679.37 774.57 Z" />
<path fill="#000000" opacity="1.00" d=" M 743.72 777.69 C 751.67 775.75 759.74 773.14 768.02 773.77 C 775.87 774.38 776.55 787.11 769.70 789.76 C 760.18 793.76 749.67 794.27 739.81 797.14 C 739.50 817.03 740.28 836.92 740.60 856.81 C 748.78 857.39 757.00 857.47 765.16 858.36 C 767.61 858.69 770.79 859.24 771.58 862.02 C 772.38 865.25 772.20 868.87 770.81 871.94 C 769.61 874.45 766.46 874.67 764.05 875.02 C 756.15 875.77 748.21 875.34 740.29 875.45 C 740.29 904.50 740.28 933.55 740.29 962.60 C 748.24 962.55 756.30 961.49 764.19 962.81 C 767.73 963.17 769.04 966.90 769.08 969.98 C 769.29 972.81 769.32 977.01 765.92 977.95 C 757.90 980.27 749.17 978.14 741.31 981.29 C 736.91 983.08 731.86 984.62 727.21 982.90 C 724.91 981.50 725.66 978.26 725.25 976.01 C 724.54 952.68 724.79 929.33 724.62 905.99 C 724.51 871.00 724.50 836.02 724.41 801.04 C 724.45 798.14 724.17 795.23 724.61 792.37 C 726.52 788.84 729.02 785.62 731.77 782.72 C 734.98 779.62 739.61 778.94 743.72 777.69 Z" />
<path fill="#000000" opacity="1.00" d=" M 552.41 777.60 C 554.98 776.72 557.94 777.35 560.06 779.03 C 562.09 785.79 561.50 793.03 561.97 800.01 C 563.04 854.33 562.36 908.68 563.30 963.01 C 563.28 967.52 564.27 972.30 562.53 976.62 C 560.38 979.99 555.49 979.48 552.11 978.76 C 549.91 978.34 548.97 976.17 549.07 974.14 C 548.33 958.79 548.32 943.41 548.08 928.05 C 547.65 880.66 547.16 833.28 547.46 785.89 C 547.09 782.39 548.82 778.59 552.41 777.60 Z" />
<path fill="#000000" opacity="1.00" d=" M 334.45 855.40 C 342.59 850.97 351.90 849.37 361.03 848.67 C 364.63 848.33 368.87 850.92 368.39 854.93 C 368.13 858.14 364.62 859.04 361.97 859.25 C 353.53 860.23 344.95 861.57 337.36 865.61 C 342.68 869.51 346.62 875.46 346.66 882.23 C 344.83 885.68 342.78 889.24 339.32 891.30 C 332.99 895.69 323.44 894.39 318.42 888.61 C 314.46 883.37 316.54 876.40 318.13 870.67 C 305.19 872.20 294.09 880.19 285.66 889.72 C 282.01 894.50 272.62 888.32 276.28 883.31 C 282.95 876.24 290.17 869.34 299.00 865.03 C 306.08 861.50 314.08 859.99 321.96 860.13 C 326.68 860.50 330.46 857.36 334.45 855.40 M 328.01 879.98 C 328.57 881.20 329.30 882.32 329.99 883.49 C 331.48 882.32 333.57 881.18 333.45 878.98 C 333.74 876.39 331.28 874.82 329.89 873.02 C 329.08 875.25 327.65 877.50 328.01 879.98 Z" />
<path fill="#000000" opacity="1.00" d=" M 807.03 857.01 C 805.94 853.35 809.45 850.07 813.00 850.44 C 823.37 850.87 833.67 853.93 842.44 859.52 C 846.42 862.15 851.36 860.91 855.82 861.64 C 869.77 863.29 881.20 872.72 890.08 883.00 C 893.01 887.83 884.63 893.11 881.28 888.73 C 873.70 880.22 864.04 872.82 852.47 871.14 C 853.64 875.66 855.09 880.66 853.21 885.21 C 850.43 890.84 843.16 892.98 837.35 891.70 C 831.81 890.02 826.45 885.13 826.37 879.01 C 826.71 873.62 830.63 869.38 834.59 866.11 C 828.11 863.10 821.17 861.22 814.06 860.53 C 811.55 860.05 807.72 860.15 807.03 857.01 M 838.56 877.05 C 837.74 879.27 839.84 880.84 841.10 882.32 C 843.89 879.68 842.89 876.11 841.37 873.11 C 840.38 874.38 839.34 875.63 838.56 877.05 Z" />
<path fill="#000000" opacity="1.00" d=" M 563.33 1015.37 C 570.69 1011.84 579.97 1012.43 586.55 1017.39 C 592.23 1021.25 595.27 1027.60 598.23 1033.57 C 601.71 1027.82 605.10 1021.55 611.14 1018.10 C 619.73 1012.79 631.35 1012.74 639.92 1018.11 C 645.77 1021.77 649.72 1028.20 650.46 1035.05 C 651.64 1045.95 647.16 1056.85 639.83 1064.80 C 628.30 1077.08 615.04 1087.61 601.43 1097.48 C 598.25 1099.59 595.42 1102.34 591.89 1103.87 C 589.94 1104.42 589.03 1102.21 588.07 1101.00 C 581.81 1090.21 571.05 1083.34 562.68 1074.41 C 556.33 1067.49 549.88 1060.18 546.93 1051.09 C 544.48 1044.04 544.75 1035.94 548.50 1029.40 C 551.93 1023.43 557.09 1018.35 563.33 1015.37 Z" />
</g>
</svg>
