<?xml version="1.0" encoding="UTF-8" ?>
<!DOCTYPE svg PUBLIC "-//W3C//DTD SVG 1.1//EN" "http://www.w3.org/Graphics/SVG/1.1/DTD/svg11.dtd">
<svg width="1200pt" height="1200pt" viewBox="0 0 1200 1200" version="1.1" xmlns="http://www.w3.org/2000/svg">
<g id="#000000ff">
<path fill="#000000" opacity="1.00" d=" M 109.75 447.73 C 129.50 419.41 162.61 401.44 196.94 399.11 C 201.42 400.10 205.68 404.13 204.84 409.06 C 204.46 414.27 198.92 416.37 195.91 419.92 C 173.67 443.84 164.39 478.80 171.20 510.69 C 172.36 510.59 173.52 510.49 174.68 510.40 C 178.65 498.02 186.61 486.41 198.29 480.23 C 209.03 474.55 221.96 473.78 233.45 477.59 C 240.07 466.20 251.13 457.16 264.15 454.38 C 276.43 450.57 289.66 452.93 301.29 457.74 C 312.63 463.10 321.56 472.79 326.96 484.01 C 330.26 490.94 331.43 498.59 333.12 506.01 C 343.63 511.61 351.13 521.91 354.61 533.17 C 357.00 541.23 359.19 549.49 358.91 557.97 C 359.27 565.22 357.08 572.20 355.03 579.06 C 349.50 596.62 329.99 609.39 311.65 604.61 C 302.19 619.72 289.64 633.05 274.53 642.61 C 250.28 657.99 219.89 662.76 191.91 656.89 C 154.50 649.52 120.24 626.30 100.34 593.66 C 86.91 571.80 80.90 545.33 84.46 519.85 C 87.12 494.32 94.80 468.83 109.75 447.73 M 125.92 454.96 C 112.26 472.81 105.32 494.86 102.30 516.90 C 101.22 525.85 100.35 534.91 101.44 543.90 C 103.26 564.87 112.86 584.68 126.68 600.37 C 149.68 626.40 184.13 642.48 219.01 641.72 C 239.58 641.10 259.89 633.66 275.67 620.39 C 266.68 620.02 257.61 617.28 250.55 611.57 C 240.13 616.25 228.62 618.22 217.26 617.70 C 207.21 615.43 196.92 612.71 188.82 605.99 C 182.97 607.08 176.90 608.57 170.96 607.12 C 167.33 606.23 163.63 605.43 160.18 603.92 C 149.12 598.63 140.88 588.07 137.81 576.27 C 134.13 563.88 135.14 550.44 139.17 538.27 C 142.92 530.39 147.83 522.75 154.98 517.55 C 151.51 503.33 150.94 488.54 152.50 474.02 C 155.08 455.35 161.92 437.27 172.50 421.65 C 154.23 428.03 137.56 439.40 125.92 454.96 M 256.36 472.31 C 248.26 477.64 243.39 486.42 240.03 495.28 C 231.12 490.09 220.21 487.01 210.06 490.10 C 199.69 492.90 192.27 501.95 188.68 511.72 C 186.86 516.07 186.68 520.86 185.22 525.31 C 179.09 523.44 172.25 523.52 166.46 526.46 C 159.01 530.16 154.09 537.49 151.39 545.15 C 147.81 556.04 148.20 568.38 153.20 578.77 C 156.25 584.75 161.27 589.95 167.67 592.26 C 175.41 595.26 184.36 593.98 191.33 589.62 C 205.94 607.06 234.45 608.39 251.88 594.48 C 254.36 597.14 256.95 599.75 260.03 601.73 C 269.28 608.08 282.14 608.38 291.83 602.84 C 297.78 599.37 302.08 593.71 305.10 587.62 C 309.96 590.24 315.39 592.34 321.01 591.82 C 331.03 591.40 339.45 583.44 342.36 574.15 C 347.02 561.56 345.60 547.47 340.88 535.13 C 338.54 528.77 334.46 522.84 328.65 519.21 C 326.09 517.56 322.93 517.31 320.30 515.88 C 319.58 507.73 318.73 499.43 315.47 491.83 C 311.25 481.38 302.84 472.20 291.91 468.75 C 280.36 464.52 266.74 465.52 256.36 472.31 Z" />
<path fill="#000000" opacity="1.00" d=" M 904.35 441.47 C 908.95 439.92 914.35 442.08 916.60 446.39 C 919.71 452.12 919.55 459.29 917.35 465.31 C 915.02 471.68 906.26 473.98 900.83 470.21 C 891.38 463.28 893.04 445.54 904.35 441.47 Z" />
<path fill="#000000" opacity="1.00" d=" M 491.86 445.85 C 495.14 442.83 501.00 444.16 503.01 448.04 C 505.90 453.49 504.88 459.92 504.32 465.79 C 502.33 482.56 499.97 499.30 498.70 516.14 C 496.98 539.40 495.53 562.69 495.45 586.01 C 495.39 597.36 496.37 608.67 496.64 620.01 C 496.64 624.35 496.38 629.08 493.75 632.73 C 491.12 636.31 485.87 636.79 482.08 634.91 C 476.43 632.14 472.70 626.80 469.27 621.73 C 462.87 611.93 457.34 601.59 451.82 591.28 C 434.79 559.04 420.39 525.46 407.82 491.25 C 399.84 533.34 399.31 576.33 398.23 619.02 C 398.01 624.08 398.16 629.71 394.94 633.96 C 391.94 637.81 385.33 637.32 382.82 633.17 C 379.04 627.18 379.35 619.78 379.12 612.97 C 378.70 568.73 383.29 524.59 390.13 480.93 C 391.70 471.97 393.08 462.88 396.37 454.36 C 398.11 449.94 401.59 445.07 406.87 445.20 C 411.45 445.41 413.62 450.17 414.89 453.94 C 431.14 502.52 449.88 550.74 477.01 594.40 C 476.94 555.80 478.75 517.16 483.46 478.83 C 484.52 470.64 485.39 462.37 487.50 454.36 C 488.37 451.29 489.43 448.06 491.86 445.85 Z" />
<path fill="#000000" opacity="1.00" d=" M 766.25 448.34 C 768.62 444.08 775.14 443.02 778.72 446.35 C 780.93 448.37 782.09 451.24 782.99 454.04 C 785.39 462.13 785.55 470.63 785.82 478.99 C 786.32 496.40 786.51 513.82 786.74 531.24 C 810.40 510.57 831.58 486.85 847.98 459.98 C 851.42 455.17 853.68 449.05 859.03 445.98 C 863.28 443.44 869.64 445.89 870.26 451.05 C 871.98 460.52 866.88 469.47 862.31 477.39 C 849.71 497.47 833.37 514.85 817.01 531.88 C 840.17 549.43 857.44 573.43 871.47 598.59 C 876.04 607.32 880.69 616.15 883.29 625.71 C 884.80 630.91 883.06 637.48 877.96 640.03 C 873.67 642.13 868.34 639.84 866.35 635.65 C 859.54 623.64 854.38 610.73 847.11 598.96 C 834.86 579.09 820.17 559.98 800.41 547.07 C 795.95 550.77 791.56 554.54 787.01 558.12 C 785.71 558.97 786.16 560.71 785.92 562.02 C 784.77 579.78 783.42 597.56 780.64 615.16 C 779.23 622.95 777.77 630.97 773.89 637.97 C 771.98 641.44 768.32 644.82 764.04 643.84 C 759.71 642.86 757.67 638.02 757.61 633.98 C 757.65 627.17 760.01 620.69 761.09 614.03 C 769.64 563.84 768.98 512.57 764.65 461.99 C 764.26 457.42 763.90 452.47 766.25 448.34 Z" />
<path fill="#000000" opacity="1.00" d=" M 1078.85 469.94 C 1083.40 465.63 1090.05 465.34 1095.97 465.19 C 1101.30 465.23 1106.98 465.44 1111.71 468.19 C 1116.84 471.09 1117.11 479.10 1113.07 482.98 C 1109.12 486.10 1103.80 484.14 1099.29 483.81 C 1107.17 496.59 1109.43 512.45 1106.51 527.08 C 1104.09 539.21 1096.27 550.73 1084.66 555.65 C 1076.62 559.17 1067.62 558.67 1059.15 557.43 C 1055.45 561.29 1052.37 565.69 1049.95 570.45 C 1061.50 568.76 1073.63 566.79 1084.94 570.82 C 1092.50 573.21 1098.79 579.33 1100.99 587.01 C 1103.96 597.41 1103.17 609.22 1097.67 618.67 C 1091.96 628.37 1081.40 634.23 1070.61 636.42 C 1061.37 638.22 1051.62 638.89 1042.43 636.45 C 1034.44 634.28 1026.85 628.67 1024.33 620.52 C 1023.14 616.47 1022.53 611.65 1025.11 607.99 C 1027.13 604.86 1031.57 602.79 1035.05 604.80 C 1039.12 607.42 1040.40 613.00 1045.00 615.01 C 1050.03 617.23 1055.72 616.88 1061.09 616.57 C 1067.94 616.00 1075.28 614.30 1080.27 609.24 C 1084.06 605.30 1085.30 598.01 1081.12 593.92 C 1077.27 590.53 1071.88 589.98 1066.99 589.67 C 1058.24 589.15 1049.67 591.33 1041.00 591.94 C 1037.65 592.18 1033.61 591.65 1031.69 588.53 C 1029.62 584.89 1030.68 580.51 1031.79 576.74 C 1034.84 567.45 1039.97 559.04 1045.09 550.76 C 1039.62 545.20 1035.88 538.06 1034.39 530.41 C 1030.68 512.29 1035.06 491.81 1048.69 478.73 C 1056.44 470.93 1068.12 467.57 1078.85 469.94 M 1067.35 489.54 C 1058.95 491.76 1053.93 500.20 1052.26 508.24 C 1051.06 514.96 1050.66 522.19 1053.18 528.67 C 1055.04 533.60 1059.80 536.98 1064.94 537.76 C 1071.29 538.87 1078.62 538.14 1083.39 533.37 C 1088.75 528.11 1090.15 520.21 1090.10 512.99 C 1090.16 505.84 1088.31 498.15 1082.90 493.12 C 1078.84 489.20 1072.70 488.23 1067.35 489.54 Z" />
<path fill="#000000" opacity="1.00" d=" M 944.65 477.62 C 946.56 474.71 950.62 473.74 953.67 475.40 C 957.14 477.15 959.14 481.18 958.70 485.01 C 958.29 490.43 957.14 495.76 956.82 501.20 C 961.01 495.05 966.16 489.21 973.07 486.09 C 983.07 481.44 995.92 483.36 1003.76 491.26 C 1012.40 499.86 1015.83 512.18 1017.50 523.92 C 1020.35 547.74 1017.77 572.06 1011.42 595.14 C 1009.95 599.54 1008.43 604.66 1004.20 607.18 C 998.57 609.76 992.43 603.69 993.19 598.02 C 993.91 592.82 995.25 587.73 996.27 582.58 C 1000.09 565.66 1001.79 548.16 1000.17 530.86 C 999.29 523.29 997.89 515.17 992.76 509.21 C 988.33 504.06 980.43 503.75 974.59 506.48 C 968.33 509.43 964.29 515.58 961.78 521.82 C 957.59 532.50 957.95 544.25 958.84 555.49 C 959.88 569.35 962.46 583.09 962.67 597.02 C 962.56 602.28 962.39 607.92 959.57 612.54 C 957.00 616.81 949.94 616.92 947.08 612.96 C 945.39 609.93 945.02 606.37 944.82 602.96 C 944.03 582.97 942.47 563.02 941.12 543.06 C 940.24 526.69 938.83 510.26 940.15 493.88 C 940.80 488.31 941.40 482.36 944.65 477.62 Z" />
<path fill="#000000" opacity="1.00" d=" M 532.00 489.98 C 543.74 477.46 565.88 478.26 577.61 490.39 C 586.73 499.90 590.06 513.28 591.94 525.94 C 595.34 553.27 592.67 581.03 587.36 607.94 C 586.18 613.35 585.11 619.14 581.56 623.57 C 579.10 626.84 573.75 627.10 571.02 624.06 C 568.77 621.55 568.78 617.98 568.51 614.82 C 559.38 620.33 547.56 620.57 538.04 615.90 C 530.37 612.06 524.98 604.67 522.26 596.67 C 518.85 586.59 518.46 575.71 519.64 565.21 C 520.89 555.20 524.62 545.12 531.99 537.98 C 539.89 530.09 552.22 527.38 562.87 530.39 C 567.93 531.78 572.27 534.91 576.02 538.50 C 575.13 528.66 574.01 518.20 568.19 509.88 C 564.31 504.19 556.78 501.23 550.11 503.18 C 545.28 504.56 541.77 508.59 537.00 510.07 C 533.25 510.78 530.21 507.45 528.89 504.30 C 526.76 499.45 528.36 493.66 532.00 489.98 M 551.44 549.71 C 546.61 550.63 542.25 553.80 540.12 558.27 C 536.67 565.28 536.72 573.42 537.49 581.03 C 538.22 587.56 541.19 594.65 547.58 597.45 C 554.28 600.27 563.19 600.10 568.45 594.49 C 574.06 588.53 575.00 579.83 574.73 572.01 C 574.47 565.45 573.39 558.23 568.57 553.37 C 564.10 548.98 557.26 548.61 551.44 549.71 Z" />
<path fill="#000000" opacity="1.00" d=" M 616.35 485.36 C 619.64 480.67 627.93 481.74 630.20 486.91 C 631.58 489.77 631.47 493.03 631.61 496.13 C 644.03 482.67 667.35 483.12 680.03 495.97 C 692.88 508.64 696.76 527.52 696.93 544.95 C 697.23 562.50 693.15 581.45 680.22 594.15 C 667.14 607.29 645.30 608.97 629.51 599.87 C 628.77 608.60 628.21 617.36 626.92 626.04 C 626.22 629.95 625.22 634.36 621.84 636.86 C 618.47 639.18 613.62 637.75 611.28 634.61 C 609.05 631.95 608.68 628.29 609.16 624.97 C 613.72 582.49 614.45 539.68 613.65 497.00 C 613.75 493.02 614.03 488.74 616.35 485.36 M 644.83 508.60 C 637.67 510.54 631.52 517.37 631.96 525.03 C 632.09 542.90 631.75 560.77 631.07 578.62 C 639.65 583.73 650.31 586.16 660.01 583.00 C 667.26 580.63 672.57 574.33 675.21 567.36 C 678.88 557.74 679.00 547.17 678.14 537.04 C 677.21 527.85 674.45 518.03 667.15 511.84 C 661.04 506.62 652.21 506.61 644.83 508.60 Z" />
<path fill="#000000" opacity="1.00" d=" M 904.34 483.56 C 907.57 482.57 911.62 483.52 913.44 486.55 C 915.54 489.95 915.46 494.12 915.49 497.98 C 915.34 525.27 915.12 552.60 912.83 579.81 C 912.07 587.37 911.48 595.01 909.54 602.39 C 908.63 605.92 906.45 609.73 902.56 610.42 C 898.49 611.42 894.39 608.64 892.91 604.92 C 891.17 601.44 892.45 597.56 893.02 593.97 C 897.27 569.58 897.14 544.70 896.80 520.03 C 896.71 510.94 896.19 501.75 897.85 492.77 C 898.56 489.02 900.28 484.67 904.34 483.56 Z" />
<path fill="#000000" opacity="1.00" d=" M 258.73 528.74 C 262.95 521.26 270.94 514.67 280.01 515.58 C 286.80 516.45 292.44 521.22 296.37 526.59 C 299.56 530.95 294.34 537.55 289.34 535.56 C 285.22 533.56 283.20 527.83 278.02 527.97 C 271.51 528.15 270.13 536.61 263.90 537.51 C 260.62 536.04 256.96 532.68 258.73 528.74 Z" />
<path fill="#000000" opacity="1.00" d=" M 219.33 517.44 C 226.33 515.43 233.27 519.22 238.52 523.58 C 240.06 525.05 242.06 526.71 241.92 529.06 C 242.24 532.04 239.55 534.41 236.99 535.32 C 232.42 536.13 229.87 531.18 225.89 529.92 C 222.86 528.35 219.57 530.28 217.68 532.67 C 215.84 534.89 214.92 537.84 212.65 539.70 C 208.12 542.46 201.62 537.83 203.56 532.60 C 206.64 525.86 211.95 519.51 219.33 517.44 Z" />
<path fill="#000000" opacity="1.00" d=" M 281.40 551.37 C 282.70 550.04 285.08 550.38 286.10 551.88 C 288.86 554.54 288.43 559.29 285.92 561.98 C 278.18 571.83 267.66 580.64 254.89 582.50 C 240.57 584.39 226.55 577.23 216.90 567.05 C 213.98 564.15 214.41 558.22 218.47 556.53 C 220.77 555.64 222.53 557.63 224.05 559.03 C 231.73 566.24 242.20 571.39 252.94 570.24 C 261.40 569.49 268.87 564.60 274.72 558.72 C 277.10 556.41 278.91 553.57 281.40 551.37 Z" />
</g>
</svg>
