<?xml version="1.0" encoding="UTF-8" ?>
<!DOCTYPE svg PUBLIC "-//W3C//DTD SVG 1.1//EN" "http://www.w3.org/Graphics/SVG/1.1/DTD/svg11.dtd">
<svg width="1200pt" height="1200pt" viewBox="0 0 1200 1200" version="1.1" xmlns="http://www.w3.org/2000/svg">
<g id="#000000ff">
<path fill="#000000" opacity="1.00" d=" M 339.47 231.60 C 342.08 229.74 345.57 230.54 348.32 231.68 C 352.13 233.37 356.02 236.48 356.47 240.91 C 357.78 252.62 355.73 264.32 354.20 275.91 C 353.72 281.04 352.75 286.41 349.43 290.54 C 348.14 292.27 345.74 293.59 343.66 292.36 C 339.77 290.09 338.93 285.19 338.47 281.08 C 337.27 268.70 336.14 256.30 335.44 243.88 C 335.20 239.55 335.37 234.18 339.47 231.60 Z" />
<path fill="#000000" opacity="1.00" d=" M 282.48 236.64 C 285.23 234.91 288.69 236.35 291.26 237.79 C 295.48 240.23 298.59 244.38 299.75 249.12 C 302.54 258.82 303.37 268.95 303.83 278.99 C 303.98 283.29 303.02 288.61 298.93 290.87 C 294.76 291.87 291.09 288.17 289.75 284.56 C 287.46 276.79 285.66 268.89 284.02 260.97 C 282.79 255.28 281.25 249.64 280.53 243.86 C 280.28 241.38 280.21 238.26 282.48 236.64 Z" />
<path fill="#000000" opacity="1.00" d=" M 614.41 240.53 C 624.81 236.54 636.25 239.12 646.43 242.53 C 660.09 247.26 671.06 258.29 676.45 271.61 C 684.49 291.12 684.43 312.78 682.73 333.48 C 679.12 371.66 668.95 408.82 658.40 445.57 C 652.68 467.89 646.82 490.23 643.11 512.99 C 641.19 525.56 639.68 538.37 641.22 551.07 C 642.10 557.56 644.04 564.39 648.92 569.06 C 652.55 572.32 657.70 574.53 662.62 573.54 C 668.09 571.53 671.78 566.65 675.17 562.15 C 684.17 549.30 690.41 534.79 696.41 520.37 C 697.44 517.72 698.82 514.99 698.35 512.06 C 696.37 493.05 699.60 473.58 706.98 455.98 C 712.40 443.50 720.85 431.49 733.39 425.42 C 742.31 421.25 753.08 419.99 762.37 423.66 C 772.39 428.09 776.43 439.68 776.93 449.90 C 777.36 463.49 774.34 477.87 765.69 488.67 C 756.68 500.05 741.46 504.88 727.32 503.51 C 726.47 517.24 727.30 531.26 731.51 544.44 C 733.91 551.57 737.26 558.91 743.46 563.51 C 748.49 567.39 755.48 566.21 760.95 563.98 C 770.98 559.50 777.75 550.24 783.15 541.02 C 788.84 531.14 793.03 520.49 796.91 509.79 C 797.69 507.67 798.29 505.42 797.94 503.15 C 795.39 482.07 798.64 460.57 805.30 440.52 C 806.96 435.13 810.31 429.93 815.63 427.60 C 822.64 424.36 831.93 425.97 836.93 432.02 C 839.36 434.93 839.96 439.10 838.50 442.60 C 832.54 458.36 829.47 475.08 827.83 491.80 C 826.99 502.23 826.53 512.88 828.80 523.17 C 829.84 527.16 831.34 531.72 835.24 533.77 C 838.43 535.48 841.84 533.30 844.02 530.98 C 849.03 525.70 852.37 519.12 855.60 512.67 C 865.04 492.95 871.72 472.07 878.25 451.25 C 881.16 442.68 891.85 439.06 899.92 442.23 C 905.63 444.03 910.08 449.94 908.89 456.06 C 905.58 475.53 903.10 495.17 902.18 514.92 C 901.61 530.22 901.50 545.80 905.23 560.76 C 907.11 567.51 910.02 574.93 916.55 578.43 C 921.20 580.85 926.47 578.13 929.93 574.88 C 937.20 568.12 941.90 559.15 946.14 550.30 C 949.79 542.46 952.74 534.31 955.20 526.02 C 944.82 515.08 939.94 500.28 936.72 485.86 C 932.98 467.90 931.82 449.12 935.40 431.03 C 937.18 422.87 939.93 414.23 946.46 408.59 C 952.68 403.12 962.81 403.71 968.79 409.27 C 974.46 414.49 976.87 422.19 978.36 429.53 C 980.97 443.49 980.26 457.83 978.80 471.88 C 976.84 489.51 973.16 506.92 968.62 524.06 C 974.91 528.27 982.28 531.42 990.00 530.93 C 999.44 530.76 1008.32 524.64 1012.04 516.00 C 1013.53 512.90 1013.75 509.36 1015.30 506.29 C 1018.50 502.87 1025.66 506.03 1024.49 510.89 C 1023.05 519.98 1019.19 529.04 1012.20 535.24 C 1005.68 541.12 996.71 543.85 988.02 543.50 C 979.81 543.22 971.92 540.33 964.98 536.06 C 960.36 550.08 954.88 564.13 945.90 576.00 C 940.39 583.22 933.00 589.60 923.92 591.55 C 915.60 593.43 906.65 591.23 899.87 586.14 C 890.89 579.49 884.87 569.68 880.38 559.63 C 873.09 542.90 869.90 524.58 869.89 506.39 C 865.34 518.31 859.97 530.58 850.30 539.28 C 844.62 544.52 836.41 546.85 828.89 544.78 C 817.33 542.69 808.11 533.93 803.34 523.47 C 797.60 538.00 791.06 552.69 780.30 564.27 C 773.25 571.91 763.52 577.48 752.96 577.86 C 742.31 578.58 732.02 573.76 724.22 566.77 C 717.57 560.90 712.29 553.59 708.24 545.74 C 706.68 542.82 705.74 539.59 703.82 536.89 C 697.43 550.99 690.69 565.45 679.58 576.53 C 673.40 582.69 664.94 587.39 655.97 586.56 C 639.74 584.92 622.98 578.55 612.80 565.24 C 601.61 550.81 599.16 531.74 599.56 514.00 C 600.60 481.25 609.97 449.60 618.05 418.07 C 623.39 394.69 629.64 371.54 635.25 348.22 C 639.81 328.71 644.39 309.06 645.65 289.01 C 646.01 279.94 646.11 270.35 642.12 261.97 C 639.22 255.64 632.08 251.11 625.04 252.49 C 615.85 254.15 608.46 260.63 602.60 267.54 C 592.39 279.85 585.32 294.38 578.99 308.97 C 566.43 338.78 557.49 369.96 549.20 401.19 C 538.90 440.04 530.63 479.40 520.26 518.23 C 519.36 522.61 516.35 526.62 511.98 527.98 C 506.26 530.16 498.35 527.54 496.96 521.08 C 492.33 502.89 490.13 484.18 488.24 465.53 C 484.63 426.51 483.87 387.13 487.52 348.07 C 489.67 326.12 493.27 304.19 500.09 283.16 C 501.60 277.88 506.08 274.11 511.01 272.07 C 518.60 268.92 527.61 268.41 535.16 271.96 C 539.59 274.00 543.05 278.13 543.97 282.97 C 545.41 288.83 542.62 294.49 541.57 300.17 C 538.07 316.70 535.64 333.44 533.28 350.17 C 529.95 374.40 527.13 398.70 524.69 423.04 C 533.49 385.03 544.00 347.24 559.51 311.36 C 566.79 294.78 575.06 278.47 586.04 264.01 C 593.60 254.29 602.63 244.92 614.41 240.53 M 950.34 422.34 C 947.39 427.77 946.48 434.00 945.84 440.07 C 944.65 453.34 945.67 466.75 948.09 479.83 C 950.25 490.86 953.41 501.87 959.14 511.60 C 963.13 494.65 965.66 477.36 967.02 460.01 C 967.64 449.16 968.19 438.04 965.40 427.44 C 964.21 423.33 961.84 418.34 957.03 417.86 C 953.99 417.41 951.66 419.92 950.34 422.34 M 747.44 433.44 C 741.47 437.78 738.25 444.76 735.65 451.45 C 730.78 464.83 728.62 479.06 728.02 493.24 C 732.65 493.49 737.44 493.55 741.86 491.90 C 749.76 489.25 756.00 482.97 759.78 475.68 C 763.10 469.27 765.18 462.20 765.94 455.03 C 766.50 447.42 764.74 439.15 759.51 433.36 C 756.39 429.76 750.87 430.97 747.44 433.44 Z" />
<path fill="#000000" opacity="1.00" d=" M 428.63 267.49 C 430.93 266.26 433.43 267.58 435.66 268.31 C 437.85 275.82 434.91 283.48 430.77 289.72 C 426.22 297.04 420.16 303.22 414.88 309.99 C 412.18 313.25 409.51 316.75 405.77 318.88 C 403.66 320.09 400.59 319.97 399.01 317.95 C 396.58 314.77 397.19 310.31 399.03 307.01 C 404.49 296.76 411.41 287.39 418.14 277.96 C 421.11 274.02 424.22 269.90 428.63 267.49 Z" />
<path fill="#000000" opacity="1.00" d=" M 226.37 275.58 C 231.29 273.31 236.34 276.97 239.87 280.18 C 247.64 287.05 256.02 293.29 263.13 300.89 C 266.00 303.81 267.04 308.04 266.92 312.04 C 266.81 314.25 266.07 316.77 264.02 317.93 C 261.47 318.90 258.80 317.64 256.68 316.26 C 248.98 311.19 242.37 304.68 236.17 297.91 C 231.67 293.03 225.77 288.75 224.09 281.98 C 223.22 279.64 224.36 276.93 226.37 275.58 Z" />
<path fill="#000000" opacity="1.00" d=" M 322.49 300.73 C 337.14 298.91 352.28 301.77 365.30 308.70 C 381.05 317.00 393.65 330.96 400.55 347.35 C 407.15 362.88 408.61 380.56 404.54 396.94 C 400.58 413.05 391.10 427.79 377.86 437.82 C 356.79 454.29 326.31 456.67 302.64 444.49 C 286.20 436.31 273.01 422.00 265.88 405.11 C 258.15 386.98 257.46 365.89 264.36 347.39 C 273.20 322.72 296.31 303.66 322.49 300.73 M 324.19 315.21 C 313.25 316.56 302.77 321.25 294.49 328.52 C 284.61 337.08 277.85 349.06 275.36 361.87 C 272.63 375.71 274.63 390.44 280.95 403.05 C 287.94 417.08 300.22 428.53 314.97 433.99 C 328.70 439.14 344.44 438.86 357.85 432.85 C 371.15 427.00 381.84 415.76 387.42 402.39 C 393.74 387.47 393.75 370.13 387.95 355.04 C 382.26 340.11 370.79 327.40 356.35 320.50 C 346.42 315.71 335.12 313.85 324.19 315.21 Z" />
<path fill="#000000" opacity="1.00" d=" M 454.32 329.41 C 458.57 327.10 465.84 329.43 465.23 335.05 C 464.25 340.55 458.78 343.57 454.41 346.26 C 448.77 349.52 442.78 352.13 436.98 355.08 C 433.54 356.90 428.70 357.24 425.76 354.33 C 423.23 351.55 424.60 347.33 427.05 345.01 C 430.59 341.64 435.21 339.82 439.34 337.32 C 444.28 334.60 449.10 331.59 454.32 329.41 Z" />
<path fill="#000000" opacity="1.00" d=" M 203.43 331.46 C 204.98 329.91 207.23 330.72 209.09 330.99 C 218.02 332.87 227.11 334.70 235.33 338.81 C 238.40 340.38 241.58 343.26 241.11 347.05 C 240.32 352.44 234.44 356.38 229.15 355.41 C 223.72 354.50 218.32 353.41 212.99 352.05 C 208.23 350.84 202.98 349.29 200.21 344.86 C 196.95 340.53 199.81 334.57 203.43 331.46 Z" />
<path fill="#000000" opacity="1.00" d=" M 227.56 388.66 C 230.32 388.26 233.89 387.62 235.86 390.16 C 237.46 392.74 236.90 396.10 235.79 398.77 C 233.65 403.76 228.55 406.26 224.49 409.44 C 218.66 414.02 211.57 417.59 203.98 417.39 C 200.29 417.51 197.83 413.29 199.07 410.01 C 200.71 405.15 205.12 402.07 209.00 399.08 C 214.71 394.90 220.50 390.23 227.56 388.66 Z" />
<path fill="#000000" opacity="1.00" d=" M 430.41 406.57 C 435.93 405.20 440.53 409.49 444.84 412.25 C 449.71 415.89 455.93 420.14 455.65 426.99 C 455.98 431.26 451.00 434.83 447.12 432.84 C 440.51 429.51 435.81 423.51 429.83 419.27 C 427.84 417.66 425.07 416.48 424.30 413.84 C 423.98 410.23 427.10 407.32 430.41 406.57 Z" />
<path fill="#000000" opacity="1.00" d=" M 259.06 411.12 C 262.47 409.85 264.79 413.65 266.24 416.16 C 262.91 417.23 261.04 413.05 259.06 411.12 Z" />
<path fill="#000000" opacity="1.00" d=" M 247.36 424.50 C 251.97 422.88 258.11 423.63 260.73 428.22 C 262.40 432.28 259.66 436.31 257.51 439.59 C 252.66 446.75 247.62 454.78 239.11 457.95 C 235.87 459.17 231.71 460.79 228.60 458.44 C 225.46 456.14 225.54 451.77 226.49 448.39 C 228.12 441.95 233.40 437.51 237.73 432.82 C 240.78 429.91 243.32 426.12 247.36 424.50 Z" />
<path fill="#000000" opacity="1.00" d=" M 392.32 448.34 C 397.09 447.65 401.64 451.38 403.35 455.65 C 406.70 463.22 409.29 471.11 411.82 478.98 C 413.35 483.11 410.89 489.28 405.98 489.25 C 399.75 488.31 395.35 482.88 393.60 477.12 C 391.08 470.49 388.46 463.86 386.84 456.95 C 385.89 453.19 388.85 449.46 392.32 448.34 Z" />
<path fill="#000000" opacity="1.00" d=" M 291.38 457.32 C 293.10 456.11 295.59 456.29 296.85 458.07 C 300.68 462.86 300.67 470.12 297.15 475.10 C 292.26 482.31 288.65 490.37 283.20 497.20 C 279.71 501.98 271.04 502.72 267.72 497.42 C 265.00 492.21 267.81 486.26 270.88 481.89 C 277.06 473.24 281.68 462.71 291.38 457.32 Z" />
<path fill="#000000" opacity="1.00" d=" M 345.38 467.45 C 348.45 465.93 351.60 468.11 353.46 470.47 C 360.61 479.20 362.84 490.93 362.42 501.96 C 362.40 504.67 361.56 507.83 358.92 509.13 C 355.61 510.25 352.34 508.28 349.87 506.26 C 343.50 501.16 342.20 492.49 340.80 484.95 C 340.27 479.00 338.76 470.61 345.38 467.45 Z" />
<path fill="#000000" opacity="1.00" d=" M 335.52 536.74 C 349.30 534.05 363.67 532.41 377.49 535.80 C 392.87 539.03 407.11 547.82 416.30 560.65 C 427.93 576.59 432.45 596.56 433.53 615.96 C 434.52 637.33 431.67 658.99 424.37 679.13 C 418.47 695.05 409.34 710.31 395.75 720.81 C 375.00 737.16 342.87 737.62 322.26 720.80 C 306.10 707.82 297.55 686.53 298.76 666.01 C 300.08 650.09 304.63 634.35 312.35 620.34 C 316.51 613.24 321.76 605.84 329.84 602.99 C 334.53 601.25 340.32 602.55 343.30 606.71 C 347.85 612.63 345.28 622.48 338.30 625.27 C 335.34 626.70 332.03 626.18 328.90 625.84 C 323.62 632.63 319.04 640.11 316.58 648.42 C 314.43 655.73 313.54 663.38 313.39 670.99 C 313.83 686.95 323.22 701.89 336.25 710.78 C 346.67 717.94 360.49 720.62 372.55 716.32 C 386.11 711.07 396.29 699.62 403.00 687.02 C 413.66 666.88 417.38 643.65 416.52 621.06 C 415.79 604.39 412.48 587.11 402.76 573.20 C 394.86 561.72 381.79 553.98 367.92 552.64 C 354.68 552.09 341.24 555.08 329.70 561.65 C 315.89 569.40 305.06 581.57 296.88 594.97 C 286.03 612.81 279.26 632.83 274.65 653.10 C 266.12 691.70 265.15 731.70 269.17 770.93 C 271.91 796.20 276.93 821.36 285.94 845.19 C 292.05 861.23 300.03 876.75 311.08 889.98 C 324.21 905.92 343.06 917.97 363.94 919.79 C 381.72 920.23 399.71 915.45 414.66 905.74 C 429.53 896.16 441.15 882.23 449.87 866.98 C 461.85 845.94 469.12 822.54 473.91 798.91 C 476.73 782.51 477.60 765.85 478.15 749.24 C 468.36 748.59 458.37 747.14 449.58 742.52 C 438.93 737.52 429.45 729.29 424.69 718.36 C 417.87 703.33 420.61 684.68 431.10 672.01 C 437.63 663.95 447.57 658.67 457.97 658.20 C 464.86 657.60 471.89 660.31 476.56 665.42 C 483.01 672.38 486.15 681.66 488.33 690.72 C 491.79 705.65 492.48 721.06 492.47 736.33 C 506.10 736.46 519.62 734.28 532.88 731.26 C 540.80 729.41 549.85 729.44 556.79 734.21 C 561.57 737.41 563.99 743.31 563.54 748.97 C 561.80 782.27 560.66 815.62 561.09 848.97 C 561.51 866.00 561.75 883.18 565.03 899.95 C 566.07 903.53 566.60 908.11 570.04 910.23 C 577.19 910.56 582.88 905.10 586.66 899.60 C 596.64 884.30 600.68 866.12 604.85 848.58 C 606.15 844.35 604.15 840.22 603.38 836.11 C 599.06 816.03 599.80 795.02 604.40 775.06 C 608.25 758.95 615.20 742.97 627.40 731.41 C 638.09 721.12 653.34 715.83 668.11 717.20 C 677.04 718.05 684.99 723.76 689.49 731.40 C 696.37 742.95 697.67 756.94 696.55 770.09 C 695.39 783.78 690.36 797.60 680.33 807.29 C 669.60 817.91 654.34 822.83 639.46 823.13 C 640.32 841.54 643.88 860.12 652.15 876.71 C 656.41 884.95 662.04 893.19 670.58 897.41 C 677.02 900.67 684.65 898.73 690.87 895.89 C 702.04 890.44 709.54 879.83 715.15 869.10 C 723.09 853.58 727.75 836.67 731.78 819.79 C 732.13 817.93 732.72 816.02 732.24 814.14 C 725.81 788.70 726.28 761.82 731.46 736.20 C 732.64 730.25 734.17 723.98 738.50 719.47 C 746.21 711.00 760.32 709.87 769.56 716.47 C 773.75 719.39 776.34 724.79 775.00 729.87 C 770.16 748.16 768.46 767.13 768.23 785.99 C 768.22 800.27 768.92 814.72 772.62 828.57 C 774.45 834.60 776.69 841.14 781.96 845.02 C 785.51 847.66 790.70 846.99 793.63 843.73 C 800.28 836.94 803.75 827.81 807.23 819.14 C 815.96 795.38 821.47 770.59 826.43 745.82 C 827.63 740.25 827.85 734.14 831.45 729.44 C 838.35 720.27 852.77 718.45 862.06 724.98 C 866.17 727.86 868.53 732.92 868.20 737.93 C 866.60 764.57 866.47 791.35 868.66 817.96 C 870.23 835.03 872.47 852.29 878.53 868.43 C 881.70 876.42 885.98 884.74 893.64 889.26 C 897.75 891.86 903.21 891.99 907.39 889.45 C 914.69 885.10 919.24 877.53 923.16 870.24 C 931.33 854.07 936.21 836.44 939.47 818.68 C 926.02 807.97 917.73 792.31 911.52 776.59 C 903.47 755.38 898.75 732.72 899.06 709.98 C 899.47 698.19 900.98 685.69 907.80 675.71 C 912.18 669.15 920.22 665.38 928.07 666.29 C 936.61 666.90 943.74 672.88 947.98 679.99 C 955.23 692.03 957.90 706.13 959.66 719.88 C 963.11 751.37 960.50 783.21 955.78 814.43 C 965.87 819.97 978.02 822.52 989.29 819.36 C 999.27 816.66 1007.76 809.02 1011.27 799.27 C 1013.07 795.05 1012.88 790.37 1014.12 786.02 C 1016.89 781.04 1026.34 783.16 1026.37 789.04 C 1026.00 801.39 1021.94 814.15 1013.06 823.05 C 1005.22 831.04 994.09 835.22 983.02 835.79 C 972.66 836.39 962.32 833.86 952.98 829.47 C 949.54 845.92 945.13 862.37 937.31 877.33 C 932.52 886.35 926.30 894.93 917.76 900.73 C 908.39 907.16 896.10 909.11 885.21 905.84 C 870.95 901.50 860.01 890.33 851.64 878.43 C 836.55 856.43 828.20 830.23 825.65 803.79 C 822.23 818.21 817.65 832.73 809.11 845.02 C 803.72 852.81 795.63 859.49 785.89 860.43 C 773.90 861.42 761.45 857.65 752.38 849.66 C 747.95 845.88 744.45 841.19 741.31 836.33 C 737.75 850.23 733.31 863.99 726.83 876.83 C 721.51 887.21 714.67 897.15 705.19 904.14 C 692.98 913.29 676.26 916.11 661.76 911.27 C 640.80 904.35 625.09 886.94 614.81 867.99 C 611.07 881.84 606.62 895.71 599.08 908.01 C 594.29 915.70 587.79 923.02 578.97 926.00 C 568.88 929.40 557.56 926.07 549.47 919.57 C 540.32 912.15 534.66 901.40 530.67 890.52 C 524.64 873.66 522.03 855.80 520.64 838.02 C 518.42 807.38 520.03 776.57 523.51 746.09 C 513.16 747.39 502.77 748.25 492.38 749.16 C 491.31 769.28 488.72 789.29 485.74 809.20 C 480.33 841.02 470.10 873.09 449.64 898.57 C 437.48 913.68 421.24 925.72 402.70 931.70 C 387.68 936.72 371.61 937.68 355.91 936.38 C 336.95 935.06 318.06 930.99 300.67 923.24 C 285.24 916.42 271.18 906.62 259.28 894.68 C 249.48 884.91 241.24 873.71 233.91 862.03 C 223.66 845.66 215.83 827.78 210.91 809.10 C 205.24 787.91 203.13 765.91 202.87 744.03 C 202.73 706.35 209.69 668.42 224.83 633.84 C 237.48 605.12 256.42 578.55 282.10 560.12 C 297.97 548.63 316.32 540.61 335.52 536.74 M 457.31 669.34 C 453.81 671.49 452.57 675.79 451.78 679.58 C 450.18 689.42 451.59 699.62 454.99 708.94 C 458.93 719.94 466.86 730.03 478.14 734.05 C 477.80 718.98 477.01 703.79 473.59 689.06 C 472.10 683.25 470.33 677.26 466.49 672.52 C 464.37 669.93 460.63 667.64 457.31 669.34 M 919.67 684.65 C 915.31 689.67 914.53 696.68 913.93 703.04 C 912.91 719.88 915.68 736.74 919.96 752.98 C 924.73 770.08 931.33 787.08 942.35 801.18 C 943.79 789.16 944.54 777.07 944.98 764.98 C 945.52 745.92 945.49 726.68 942.13 707.85 C 940.51 700.11 938.64 691.86 933.25 685.78 C 930.02 681.91 923.26 680.57 919.67 684.65 M 655.22 732.19 C 648.18 738.39 644.96 747.63 642.55 756.42 C 638.22 774.12 637.45 792.56 638.86 810.68 C 647.29 810.80 655.86 808.73 662.79 803.81 C 672.90 796.87 678.83 785.30 681.29 773.53 C 683.06 764.64 684.17 755.23 681.35 746.43 C 679.30 740.03 676.00 733.59 670.37 729.64 C 665.60 726.33 659.22 728.78 655.22 732.19 Z" />
<path fill="#000000" opacity="1.00" d=" M 822.74 609.03 C 822.91 605.99 823.87 602.20 827.00 600.97 C 832.74 600.95 838.73 601.45 844.05 603.77 C 856.59 610.84 865.16 625.62 862.70 640.18 C 861.38 648.42 855.26 655.04 848.09 658.87 C 854.65 664.35 860.90 670.50 865.01 678.08 C 866.93 681.53 866.14 687.14 862.03 688.57 C 859.31 689.05 857.93 686.20 856.45 684.48 C 849.96 675.33 841.53 667.37 831.28 662.62 C 831.35 669.71 831.80 676.80 831.64 683.89 C 831.66 686.58 830.14 689.99 827.04 690.02 C 824.03 689.93 822.57 686.67 822.53 684.05 C 822.27 676.70 822.17 669.35 821.93 662.01 C 821.51 650.32 823.27 638.70 823.38 627.02 C 823.45 621.01 822.52 615.03 822.74 609.03 M 832.13 614.20 C 833.20 625.62 832.41 637.05 831.47 648.44 C 836.58 648.31 842.06 648.43 846.62 645.75 C 851.05 642.92 854.97 637.65 853.49 632.13 C 851.30 622.39 842.36 614.22 832.13 614.20 Z" />
<path fill="#000000" opacity="1.00" d=" M 723.41 602.58 C 731.78 600.83 741.63 603.02 747.08 610.00 C 751.50 615.66 753.01 622.96 753.71 629.96 C 755.04 645.77 752.71 662.20 745.23 676.33 C 742.18 681.96 737.97 687.43 731.90 689.97 C 724.40 693.06 715.38 690.96 709.45 685.59 C 701.91 678.93 698.25 668.83 697.75 658.96 C 697.04 644.03 700.18 628.71 707.85 615.79 C 711.40 609.89 716.51 604.32 723.41 602.58 M 724.40 615.61 C 717.15 618.50 713.62 626.22 710.91 633.01 C 707.42 642.85 705.81 653.75 708.13 664.03 C 710.01 671.32 716.08 678.29 724.07 678.40 C 729.72 678.79 734.23 674.47 736.88 669.93 C 743.47 658.60 745.35 645.06 744.40 632.15 C 743.92 627.35 743.09 622.04 739.48 618.51 C 735.43 615.01 729.44 614.31 724.40 615.61 Z" />
<path fill="#000000" opacity="1.00" d=" M 767.20 603.33 C 771.27 601.59 772.86 606.87 772.88 609.93 C 773.33 623.96 772.72 638.01 773.19 652.05 C 773.65 659.40 774.42 667.17 778.55 673.49 C 781.24 677.72 787.17 680.27 791.85 677.90 C 796.46 674.87 798.02 669.11 799.43 664.09 C 803.35 647.03 802.80 629.37 802.93 611.98 C 803.17 608.92 803.39 605.14 806.13 603.20 C 808.44 601.86 811.19 603.79 811.70 606.18 C 812.87 611.38 812.21 616.77 812.38 622.06 C 812.34 638.26 812.00 654.74 807.60 670.45 C 805.61 676.98 802.74 683.90 796.84 687.83 C 791.74 691.13 785.04 690.69 779.61 688.47 C 773.56 685.97 769.63 680.17 767.58 674.16 C 763.69 662.86 763.74 650.75 763.58 638.94 C 763.56 629.60 763.29 620.24 764.01 610.93 C 764.34 608.25 764.57 604.82 767.20 603.33 Z" />
<path fill="#000000" opacity="1.00" d=" M 616.22 604.17 C 624.14 602.44 632.93 604.49 638.93 610.06 C 645.88 616.44 649.42 625.72 650.76 634.89 C 652.72 648.92 651.03 663.74 644.44 676.40 C 641.65 681.68 637.62 686.74 631.89 688.93 C 624.56 691.64 615.97 689.91 610.00 684.95 C 602.17 678.58 598.05 668.80 595.90 659.18 C 593.09 645.67 593.29 630.96 599.45 618.36 C 602.69 611.57 608.67 605.73 616.22 604.17 M 617.42 615.66 C 613.16 616.81 610.07 620.39 608.25 624.26 C 604.64 631.91 604.09 640.63 604.83 648.95 C 605.62 657.61 607.90 666.57 613.64 673.34 C 616.62 676.95 621.30 679.34 626.06 678.65 C 630.29 678.30 633.29 674.79 635.22 671.32 C 640.28 662.13 641.74 651.34 641.06 640.98 C 640.56 633.91 638.83 626.57 634.26 620.98 C 630.34 616.10 623.45 613.91 617.42 615.66 Z" />
<path fill="#000000" opacity="1.00" d=" M 537.95 608.99 C 539.35 606.52 542.44 606.46 544.93 606.29 C 557.61 605.58 570.32 605.37 583.01 605.70 C 588.88 605.44 590.16 614.86 584.89 616.75 C 579.58 617.52 574.19 616.84 568.85 617.07 C 566.43 638.64 567.53 660.45 569.55 682.01 C 569.94 685.65 565.94 689.13 562.46 687.36 C 559.03 685.82 559.16 681.57 558.77 678.42 C 557.08 658.08 556.36 637.54 558.42 617.20 C 552.89 617.26 547.39 617.90 541.86 617.90 C 537.67 617.81 535.59 612.18 537.95 608.99 Z" />
</g>
</svg>
