<?xml version="1.0" encoding="UTF-8" ?>
<!DOCTYPE svg PUBLIC "-//W3C//DTD SVG 1.1//EN" "http://www.w3.org/Graphics/SVG/1.1/DTD/svg11.dtd">
<svg width="1200pt" height="1200pt" viewBox="0 0 1200 1200" version="1.1" xmlns="http://www.w3.org/2000/svg">
<g id="#000000ff">
<path fill="#000000" opacity="1.00" d=" M 361.97 178.22 C 368.17 172.74 376.79 169.73 385.03 171.24 C 393.67 172.34 400.98 178.27 405.71 185.32 C 412.02 194.89 413.46 206.90 411.73 218.05 C 425.98 234.30 431.06 257.29 427.42 278.36 C 433.12 281.45 437.36 287.35 437.75 293.90 C 437.79 298.55 436.82 303.13 436.28 307.74 C 435.50 312.88 435.45 318.25 433.25 323.07 C 439.32 329.10 443.23 337.39 443.45 345.99 C 443.73 354.91 441.82 363.68 440.82 372.50 C 434.56 422.00 428.38 471.52 422.03 521.01 C 420.71 531.53 420.43 542.97 413.82 551.83 C 408.28 560.05 398.05 565.32 388.08 563.23 C 352.38 557.73 316.63 552.52 280.96 546.88 C 271.77 544.83 264.79 536.95 261.68 528.32 C 258.69 520.56 259.54 512.04 260.59 503.98 C 265.61 466.70 269.99 429.35 274.88 392.05 C 277.23 371.23 280.33 350.50 282.71 329.68 C 284.18 317.97 291.08 306.28 302.43 301.84 C 302.23 294.16 303.96 286.62 304.60 278.99 C 305.28 270.79 311.46 262.98 319.93 262.06 C 322.00 242.19 331.08 222.42 347.32 210.26 C 347.97 198.30 352.76 186.14 361.97 178.22 M 375.04 188.17 C 367.73 191.45 363.40 199.20 362.20 206.85 C 361.46 210.82 362.44 214.86 361.91 218.83 C 359.44 221.50 355.92 222.86 353.19 225.24 C 342.05 234.41 336.07 248.53 334.28 262.59 C 339.18 263.28 344.05 264.13 348.95 264.83 C 370.55 267.68 391.99 271.61 413.59 274.46 C 415.69 258.29 411.94 240.77 400.74 228.50 C 399.20 226.60 396.80 225.30 395.86 223.00 C 396.04 219.28 397.67 215.80 397.89 212.08 C 398.53 204.99 396.70 197.40 391.92 191.98 C 387.86 187.32 380.71 185.45 375.04 188.17 M 320.41 278.27 C 320.11 278.52 319.51 279.01 319.21 279.25 C 318.03 285.46 317.62 291.82 316.78 298.09 C 316.27 300.65 319.22 301.07 321.05 301.35 C 341.02 304.30 360.99 307.28 380.93 310.44 C 386.65 311.09 392.27 312.41 398.02 312.74 C 404.99 313.88 411.93 315.42 418.98 315.97 C 419.35 315.86 420.10 315.63 420.47 315.51 C 422.05 310.16 422.04 304.47 423.00 298.99 C 423.05 297.20 424.22 294.01 421.64 293.53 C 389.31 288.27 356.84 283.87 324.51 278.56 C 323.15 278.37 321.78 278.15 320.41 278.27 M 306.37 317.38 C 301.16 319.56 297.97 325.03 297.23 330.47 C 296.27 338.05 295.34 345.64 294.29 353.22 C 303.40 354.81 312.59 355.95 321.69 357.57 C 327.65 358.74 329.43 367.14 325.10 371.10 C 322.67 374.05 318.57 373.21 315.29 372.70 C 307.68 371.19 299.91 370.71 292.32 369.09 C 290.71 382.78 288.97 396.45 287.07 410.09 C 295.00 411.13 302.88 412.47 310.81 413.48 C 313.70 413.99 317.24 414.24 318.89 417.07 C 322.14 421.23 320.10 428.46 314.87 429.80 C 311.05 430.11 307.25 429.19 303.49 428.66 C 297.41 427.41 291.16 427.30 285.14 425.76 C 283.51 440.07 281.40 454.33 279.83 468.65 C 288.60 469.65 297.29 471.23 306.02 472.55 C 309.82 472.77 313.00 476.19 313.01 479.98 C 313.33 483.97 310.41 488.76 305.98 488.41 C 296.51 487.52 287.12 485.78 277.71 484.43 C 276.60 492.91 275.63 501.41 274.54 509.89 C 273.50 515.93 273.84 522.86 278.17 527.64 C 281.96 532.02 288.18 531.93 293.45 532.76 C 323.58 537.43 353.74 541.86 383.87 546.53 C 388.36 547.01 393.15 548.54 397.46 546.44 C 403.10 543.82 405.68 537.33 406.22 531.47 C 408.52 511.13 411.65 490.89 413.68 470.52 C 416.80 450.77 418.61 430.83 421.46 411.04 C 423.95 391.03 426.44 371.03 429.01 351.04 C 430.01 343.94 426.78 334.90 419.19 332.98 C 385.77 327.80 352.31 322.88 318.88 317.72 C 314.77 317.15 310.42 315.81 306.37 317.38 Z" />
<path fill="#000000" opacity="1.00" d=" M 734.35 184.54 C 737.30 183.21 740.87 184.81 742.31 187.60 C 744.40 191.40 743.57 195.90 743.56 200.05 C 742.35 237.71 741.17 275.37 739.68 313.02 C 739.26 321.41 741.62 329.99 739.15 338.22 C 737.87 342.46 732.51 345.13 728.67 342.34 C 723.67 338.96 724.99 332.08 723.78 326.97 C 715.83 295.27 706.47 263.93 696.07 232.95 C 695.25 264.30 694.80 295.66 694.09 327.01 C 693.84 333.54 695.66 340.47 692.80 346.66 C 691.34 349.80 688.72 353.13 684.98 353.26 C 682.49 353.21 680.90 350.88 680.28 348.72 C 679.10 344.60 679.60 340.28 679.62 336.06 C 680.59 289.01 681.52 241.97 682.47 194.92 C 682.52 191.48 683.24 187.36 686.54 185.54 C 691.86 183.10 697.42 187.86 699.05 192.78 C 709.21 220.02 718.18 247.71 726.38 275.60 C 726.97 248.91 728.09 222.23 728.84 195.54 C 728.85 191.36 730.10 186.32 734.35 184.54 Z" />
<path fill="#000000" opacity="1.00" d=" M 518.39 185.51 C 521.73 184.09 524.81 186.96 526.38 189.64 C 531.45 198.41 532.29 209.24 530.00 218.99 C 528.59 224.17 526.28 229.65 521.65 232.73 C 519.15 234.44 515.74 233.33 514.17 230.92 C 510.87 226.10 510.53 219.00 514.36 214.36 C 516.88 211.18 517.11 206.55 514.71 203.22 C 510.73 197.74 512.09 188.60 518.39 185.51 Z" />
<path fill="#000000" opacity="1.00" d=" M 596.02 194.01 C 597.44 188.37 603.26 184.34 609.01 184.73 C 611.63 184.90 614.03 186.68 614.97 189.14 C 616.08 191.94 615.75 195.02 615.65 197.96 C 613.15 248.00 611.01 298.05 608.80 348.09 C 608.76 352.82 605.37 358.62 599.98 357.85 C 594.65 356.84 593.64 350.50 593.97 345.99 C 595.22 310.48 597.04 274.99 598.57 239.50 C 594.02 255.34 589.51 271.20 585.01 287.06 C 583.98 290.73 581.85 294.87 577.79 295.74 C 574.33 296.38 571.92 293.07 570.91 290.21 C 566.07 276.10 561.61 261.86 557.51 247.52 C 558.10 278.69 558.73 309.86 559.26 341.02 C 559.39 344.95 559.40 349.42 556.47 352.44 C 554.40 354.94 550.20 355.75 547.82 353.25 C 544.62 349.66 544.06 344.53 543.91 339.91 C 542.67 293.28 543.93 246.62 542.81 199.99 C 542.35 194.30 546.15 188.11 552.04 187.25 C 556.06 186.91 558.34 191.10 559.36 194.40 C 565.63 215.95 571.13 237.73 577.87 259.14 C 583.95 237.44 589.96 215.72 596.02 194.01 Z" />
<path fill="#000000" opacity="1.00" d=" M 466.69 190.79 C 468.70 187.60 472.78 188.23 475.99 188.16 C 482.34 188.31 488.68 187.81 495.02 187.57 C 498.31 187.44 500.51 190.57 501.31 193.42 C 502.53 197.96 502.26 203.43 499.02 207.09 C 496.96 209.41 493.60 208.77 490.86 208.97 C 490.84 248.61 489.85 288.25 489.71 327.89 C 491.85 328.64 494.58 328.87 495.81 331.08 C 498.80 336.04 499.12 343.48 494.68 347.71 C 491.98 350.20 488.15 348.93 484.92 348.80 C 480.51 348.30 476.26 349.77 471.95 350.37 C 468.01 350.37 465.43 346.50 464.73 343.00 C 463.65 337.77 465.25 330.87 470.90 329.03 C 473.98 328.15 474.14 324.60 474.19 321.96 C 474.25 284.54 475.40 247.12 475.51 209.70 C 472.53 209.57 468.77 210.07 466.83 207.21 C 463.55 202.49 463.53 195.57 466.69 190.79 Z" />
<path fill="#000000" opacity="1.00" d=" M 825.21 192.08 C 840.11 187.47 855.78 190.79 871.01 191.04 C 874.30 191.51 877.55 187.88 880.57 190.44 C 887.18 195.40 888.18 208.26 879.90 212.10 C 873.84 213.27 867.62 212.34 861.53 211.99 C 861.30 239.99 861.21 268.00 860.84 296.00 C 860.75 306.34 860.43 316.68 860.65 327.02 C 860.61 334.23 860.65 341.63 858.52 348.59 C 857.70 351.06 856.08 354.20 853.03 354.03 C 848.98 353.56 845.94 349.93 845.26 346.07 C 843.98 340.33 846.62 334.72 846.36 328.96 C 846.33 289.55 846.78 250.14 846.85 210.73 C 840.84 210.50 834.87 211.24 829.06 212.68 C 824.46 213.89 821.36 209.00 820.54 205.15 C 819.38 200.55 819.98 193.84 825.21 192.08 Z" />
<path fill="#000000" opacity="1.00" d=" M 764.53 211.65 C 768.09 205.47 772.58 199.29 779.05 195.95 C 782.47 194.48 785.23 197.53 787.17 199.90 C 791.48 198.95 794.85 202.11 796.19 205.92 C 806.33 227.14 811.40 250.59 812.23 274.04 C 812.62 292.27 811.90 310.89 806.23 328.37 C 803.29 337.00 798.83 345.84 790.88 350.86 C 785.92 354.10 779.20 354.03 774.28 350.76 C 766.08 345.47 761.48 336.23 758.61 327.19 C 752.12 305.80 750.86 283.13 752.34 260.93 C 753.54 244.01 756.30 226.70 764.53 211.65 M 768.31 251.24 C 765.44 273.31 766.14 296.01 771.65 317.63 C 773.19 322.70 774.81 328.46 779.42 331.62 C 782.42 333.75 786.29 331.98 788.14 329.19 C 793.16 322.13 794.67 313.33 796.11 304.97 C 800.47 275.16 796.69 243.82 783.41 216.62 C 773.52 225.28 770.22 238.76 768.31 251.24 Z" />
<path fill="#000000" opacity="1.00" d=" M 546.02 373.19 C 556.20 373.11 566.43 370.62 576.57 372.59 C 584.92 374.32 593.46 378.36 597.91 385.99 C 604.15 396.44 605.02 409.24 603.46 421.08 C 601.50 435.52 597.77 450.21 589.20 462.25 C 587.33 465.04 584.74 467.28 583.00 470.15 C 582.44 472.39 583.07 474.72 583.48 476.94 C 586.67 491.94 593.07 506.31 602.61 518.36 C 605.08 518.31 607.75 519.33 608.15 522.10 C 609.85 526.41 606.84 530.24 604.49 533.55 C 598.58 542.08 592.80 551.09 584.39 557.39 C 582.08 559.35 578.58 557.64 577.90 554.94 C 576.94 552.57 578.17 550.18 578.87 547.94 C 568.38 528.47 566.09 506.10 562.57 484.63 C 562.17 503.44 561.65 522.26 561.48 541.07 C 563.60 541.81 566.40 542.47 566.89 545.08 C 567.78 548.21 566.94 553.33 562.89 553.49 C 552.91 553.71 542.91 553.60 532.96 554.54 C 528.32 555.26 526.88 549.51 527.82 546.01 C 528.15 543.56 530.44 542.35 532.27 541.09 C 532.22 515.40 532.46 489.70 532.25 464.01 C 532.05 439.00 532.30 413.98 532.93 389.00 C 527.24 387.32 526.35 379.25 530.44 375.57 C 535.36 373.70 540.81 373.55 546.02 373.19 M 563.95 383.56 C 563.77 411.35 563.13 439.15 563.33 466.94 C 571.43 464.99 577.56 458.73 582.11 452.05 C 590.69 439.16 594.87 423.48 594.34 408.04 C 594.15 401.46 591.86 394.56 586.58 390.34 C 580.28 385.12 571.78 384.28 563.95 383.56 Z" />
<path fill="#000000" opacity="1.00" d=" M 469.68 380.71 C 473.87 375.95 480.47 373.11 486.80 374.62 C 494.97 376.41 501.09 382.99 505.13 389.98 C 507.69 394.20 508.93 399.03 511.14 403.43 C 512.62 402.35 513.84 400.25 515.96 400.59 C 520.06 402.67 520.75 408.67 518.31 412.28 C 515.31 417.14 511.43 422.02 505.89 424.03 C 503.46 424.80 501.85 422.05 501.67 420.01 C 500.89 416.12 505.39 413.03 503.62 409.13 C 502.21 405.10 500.42 400.69 496.71 398.26 C 494.13 396.77 491.62 399.27 490.23 401.25 C 486.10 407.44 483.75 414.69 482.49 421.98 C 479.04 443.44 477.48 465.33 479.53 487.01 C 480.38 496.76 482.38 506.51 486.48 515.44 C 488.53 520.27 491.82 524.55 496.12 527.59 C 500.18 523.59 501.63 517.90 503.89 512.84 C 504.96 509.92 506.67 507.17 507.09 504.05 C 505.94 500.84 503.79 497.60 504.80 494.04 C 505.36 491.31 507.57 487.52 510.90 488.69 C 514.91 491.11 517.19 495.57 519.09 499.71 C 520.72 503.18 521.43 507.65 518.85 510.86 C 517.55 512.60 515.39 511.58 513.71 511.22 C 508.66 525.53 502.86 540.13 492.28 551.33 C 488.05 555.83 481.67 559.30 475.37 557.44 C 468.57 555.41 463.95 549.43 460.46 543.58 C 451.49 527.96 449.47 509.65 447.89 492.03 C 446.22 470.52 446.91 448.77 450.28 427.45 C 453.20 410.79 457.75 393.34 469.68 380.71 Z" />
<path fill="#000000" opacity="1.00" d=" M 710.30 375.42 C 719.99 372.96 730.11 373.23 739.99 374.20 C 743.08 374.66 747.01 375.31 748.22 378.68 C 749.11 381.54 748.99 384.93 747.42 387.54 C 746.10 389.59 743.43 389.03 741.38 389.08 C 739.27 438.01 739.20 487.00 739.40 535.96 C 739.42 537.60 739.54 539.26 739.69 540.91 C 746.68 541.14 747.93 552.38 741.96 554.85 C 733.32 555.74 724.58 556.15 716.06 558.06 C 713.60 558.39 710.51 559.69 708.56 557.51 C 705.19 553.01 705.89 544.94 711.96 543.12 C 711.42 495.40 711.05 447.68 710.60 399.96 C 710.47 396.94 710.86 393.85 710.20 390.88 C 708.75 389.04 706.30 387.68 706.21 385.08 C 705.77 381.59 706.54 376.77 710.30 375.42 Z" />
<path fill="#000000" opacity="1.00" d=" M 817.38 374.49 C 821.45 373.08 825.88 373.49 830.09 373.92 C 832.55 374.27 835.65 374.50 836.99 376.98 C 838.46 379.92 838.40 383.78 836.61 386.58 C 835.39 388.44 832.93 388.25 831.02 388.67 C 830.51 413.78 830.04 438.89 829.82 464.01 C 829.59 485.32 829.79 506.64 829.25 527.96 C 829.28 533.31 828.54 538.75 829.78 544.03 C 836.36 543.80 837.97 554.02 832.62 556.62 C 828.09 556.74 823.54 556.29 819.06 557.15 C 815.29 557.50 811.25 558.90 807.64 557.23 C 803.65 555.15 801.88 550.69 800.60 546.64 C 794.06 524.66 789.16 502.25 784.06 479.91 C 779.76 460.99 776.69 441.84 773.07 422.79 C 771.91 462.08 770.33 501.37 769.98 540.68 C 771.80 541.10 774.05 541.00 775.35 542.60 C 777.90 545.35 777.94 550.49 775.00 552.94 C 771.40 555.10 767.27 556.44 763.10 556.81 C 760.98 556.98 758.41 556.82 757.16 554.83 C 754.57 550.70 755.29 544.80 759.25 541.79 C 759.57 491.46 761.75 441.17 763.90 390.89 C 761.47 390.50 758.59 390.18 757.18 387.86 C 754.28 383.12 756.19 374.30 762.91 374.65 C 772.51 376.15 782.40 373.80 791.86 376.39 C 795.22 377.29 796.43 380.99 797.18 384.00 C 801.66 401.75 804.15 419.91 807.63 437.87 C 811.32 456.97 815.37 476.01 819.76 494.97 C 819.87 466.60 819.85 438.23 820.50 409.86 C 820.56 402.81 821.06 395.76 820.86 388.71 C 818.50 388.32 815.43 388.30 814.38 385.69 C 812.80 382.00 813.07 376.16 817.38 374.49 Z" />
<path fill="#000000" opacity="1.00" d=" M 879.57 375.38 C 886.24 373.31 893.49 376.04 898.37 380.73 C 906.63 388.52 910.70 399.85 911.68 410.97 C 911.91 413.31 911.65 416.09 909.66 417.64 C 907.96 418.90 905.49 417.83 904.91 415.91 C 902.34 409.26 901.67 401.70 897.22 395.90 C 894.96 393.31 891.83 390.35 888.10 391.10 C 884.31 392.35 882.20 396.09 880.38 399.37 C 874.32 411.40 870.22 424.44 868.51 437.82 C 865.60 459.23 864.85 481.17 868.68 502.52 C 870.28 508.94 872.28 516.00 877.56 520.39 C 882.88 524.32 889.27 517.36 889.16 512.01 C 889.03 499.55 889.29 487.09 890.03 474.66 C 887.86 474.20 885.19 474.18 883.87 472.10 C 882.09 469.30 882.12 465.48 883.67 462.59 C 885.14 460.03 888.38 459.88 891.00 459.74 C 899.69 459.38 908.47 459.60 917.06 461.06 C 920.25 461.54 921.08 465.31 921.03 468.02 C 921.10 470.43 919.02 471.89 917.42 473.31 C 918.24 497.26 915.74 521.16 915.93 545.09 C 918.00 545.26 920.78 544.88 921.88 547.16 C 923.48 550.41 923.36 555.84 919.57 557.47 C 912.48 558.75 905.18 558.43 898.11 557.13 C 894.64 556.40 890.78 557.12 887.59 555.41 C 884.05 552.37 884.61 545.75 889.16 543.94 C 889.21 540.58 889.20 537.22 889.19 533.86 C 884.29 541.09 879.78 549.79 871.21 553.16 C 865.10 555.47 858.95 551.40 855.49 546.57 C 846.21 533.98 842.46 518.29 840.56 503.02 C 838.15 481.03 838.86 458.63 843.16 436.91 C 846.18 422.33 850.40 407.76 857.88 394.79 C 862.84 386.34 869.90 378.30 879.57 375.38 Z" />
<path fill="#000000" opacity="1.00" d=" M 610.15 379.17 C 612.54 378.02 615.34 378.38 617.93 378.21 C 627.57 378.29 637.32 377.37 646.87 379.08 C 650.65 379.84 650.89 384.87 649.88 387.84 C 649.19 390.37 646.35 390.62 644.22 391.09 C 641.67 414.28 640.26 437.74 642.63 461.00 C 643.19 466.56 644.63 472.38 648.72 476.45 C 653.90 466.70 655.92 455.70 658.10 444.98 C 661.72 427.65 662.87 409.93 663.78 392.29 C 659.07 389.86 658.62 382.06 663.06 379.28 C 669.28 378.18 675.70 379.23 682.00 378.71 C 686.94 378.68 692.08 377.39 696.90 378.84 C 699.77 381.01 699.80 385.50 698.34 388.50 C 697.33 390.56 694.78 390.60 692.89 391.22 C 691.88 396.42 692.14 401.74 691.88 407.01 C 691.08 429.27 690.49 451.55 689.29 473.80 C 688.00 493.06 685.07 512.36 678.68 530.64 C 675.46 539.82 669.60 547.97 662.11 554.16 C 657.81 557.81 652.99 561.74 647.06 561.80 C 640.31 561.90 634.66 557.36 630.33 552.63 C 624.76 546.65 623.56 537.78 625.13 530.02 C 625.77 526.95 627.39 523.68 630.41 522.38 C 633.18 521.30 635.74 523.86 636.39 526.39 C 637.66 530.19 635.81 533.95 634.65 537.51 C 633.46 540.75 636.49 543.52 638.49 545.68 C 640.27 547.88 642.78 545.64 644.49 544.51 C 653.42 537.71 657.38 526.49 659.45 515.85 C 662.66 497.53 662.65 478.86 663.50 460.34 C 660.99 470.94 658.54 482.53 650.32 490.34 C 645.33 495.21 637.00 495.87 631.40 491.67 C 623.01 485.65 620.21 475.01 617.56 465.58 C 611.90 441.14 612.37 415.82 612.57 390.89 C 607.44 389.66 606.51 382.39 610.15 379.17 Z" />
<path fill="#000000" opacity="1.00" d=" M 853.29 576.22 C 855.36 574.77 858.36 575.06 860.15 576.85 C 862.84 579.45 863.19 583.43 863.13 586.97 C 862.02 625.30 861.10 663.65 859.74 701.98 C 859.24 710.64 861.56 719.51 859.09 728.01 C 857.98 732.26 852.63 734.97 848.96 731.89 C 844.38 727.83 845.84 720.99 844.55 715.62 C 837.91 686.11 830.40 656.80 821.80 627.80 C 821.25 657.86 820.72 687.93 820.21 717.99 C 820.29 724.90 821.65 732.51 817.68 738.69 C 816.17 741.29 812.80 744.12 809.74 742.21 C 806.45 739.62 806.51 734.89 806.41 731.08 C 807.28 682.71 808.10 634.34 809.00 585.97 C 809.07 582.28 810.07 577.45 814.12 576.24 C 819.24 575.15 823.24 580.00 824.54 584.44 C 832.73 609.81 840.42 635.38 846.80 661.28 C 847.93 636.17 848.18 611.03 849.02 585.91 C 849.18 582.34 850.14 578.31 853.29 576.22 Z" />
<path fill="#000000" opacity="1.00" d=" M 369.29 585.12 C 370.57 579.40 376.86 574.46 382.76 576.40 C 386.85 578.05 387.59 583.06 387.38 586.95 C 385.26 636.65 383.27 686.36 381.44 736.07 C 381.29 739.78 380.48 743.95 377.35 746.33 C 375.04 748.20 371.40 747.66 369.66 745.29 C 366.74 741.54 367.46 736.47 367.41 732.05 C 368.35 706.04 369.37 680.04 370.40 654.03 C 370.59 648.24 371.09 642.44 370.73 636.64 C 368.16 648.87 364.73 660.90 361.83 673.05 C 360.80 676.96 360.20 681.28 357.34 684.36 C 355.85 686.01 353.28 687.05 351.19 685.89 C 348.98 684.65 347.94 682.18 347.20 679.89 C 343.67 667.81 340.00 655.75 337.17 643.47 C 337.23 670.97 338.08 698.47 338.35 725.98 C 338.26 731.29 339.48 737.41 335.86 741.89 C 333.97 744.61 329.55 745.39 327.39 742.57 C 324.76 738.99 324.16 734.37 323.99 730.06 C 322.88 685.40 323.95 640.71 323.07 596.04 C 322.95 591.44 322.58 586.35 325.51 582.46 C 327.32 579.95 330.64 577.49 333.84 578.81 C 336.88 580.38 337.94 583.95 338.80 587.02 C 343.88 607.14 348.48 627.38 353.96 647.39 C 359.11 626.64 364.14 605.86 369.29 585.12 Z" />
<path fill="#000000" opacity="1.00" d=" M 301.34 577.31 C 303.31 575.71 306.27 576.23 307.85 578.13 C 310.97 581.59 312.26 586.27 313.27 590.72 C 314.97 599.65 314.51 609.24 310.73 617.60 C 309.21 620.58 307.34 624.01 303.90 625.03 C 301.24 625.73 298.90 623.56 297.85 621.33 C 295.52 616.39 295.26 610.11 298.49 605.50 C 300.61 602.42 300.86 598.28 298.88 595.07 C 295.57 589.56 296.21 581.48 301.34 577.31 Z" />
<path fill="#000000" opacity="1.00" d=" M 255.83 586.07 C 256.47 583.02 258.45 579.39 262.00 579.41 C 268.69 579.31 275.37 579.22 282.04 578.74 C 285.52 578.43 287.65 581.88 288.38 584.83 C 289.53 589.57 289.33 595.21 286.11 599.14 C 284.49 601.16 281.69 600.77 279.40 601.05 C 279.38 639.64 278.53 678.22 278.43 716.81 C 280.35 717.62 282.75 718.16 283.68 720.29 C 286.22 725.37 286.54 732.21 282.91 736.85 C 279.62 740.72 274.29 737.72 270.06 738.52 C 266.45 738.63 262.38 741.47 259.12 738.82 C 254.52 734.62 254.51 727.22 256.95 721.87 C 257.97 719.22 260.90 718.41 262.90 716.73 C 263.76 714.97 263.74 712.97 263.81 711.07 C 263.83 674.62 264.84 638.18 264.93 601.73 C 262.63 601.48 259.82 601.85 258.20 599.81 C 255.11 596.04 254.85 590.65 255.83 586.07 Z" />
<path fill="#000000" opacity="1.00" d=" M 766.68 581.77 C 768.46 578.89 772.12 579.35 775.01 579.31 C 780.38 579.44 785.74 578.98 791.11 578.74 C 794.56 578.47 796.67 581.92 797.38 584.86 C 798.53 589.62 798.32 595.29 795.05 599.20 C 793.42 601.16 790.65 600.76 788.40 601.07 C 788.39 639.65 787.53 678.22 787.43 716.80 C 789.36 717.62 791.76 718.18 792.69 720.32 C 795.22 725.41 795.55 732.28 791.86 736.91 C 788.56 740.70 783.30 737.74 779.10 738.51 C 775.48 738.62 771.40 741.47 768.13 738.84 C 763.51 734.62 763.50 727.18 765.97 721.82 C 766.80 719.70 768.94 718.73 770.73 717.58 C 772.82 716.64 772.59 713.99 772.78 712.07 C 772.85 675.29 773.82 638.52 773.93 601.73 C 771.37 601.56 768.24 601.73 766.72 599.23 C 763.46 594.11 763.47 586.90 766.68 581.77 Z" />
<path fill="#000000" opacity="1.00" d=" M 502.44 586.48 C 512.08 579.60 525.21 577.19 536.41 581.49 C 543.46 584.14 549.21 589.68 552.67 596.32 C 558.08 606.62 559.20 618.61 558.59 630.06 C 557.65 644.51 553.69 659.22 544.72 670.82 C 543.71 671.75 544.44 673.04 544.64 674.15 C 548.27 686.88 551.81 699.64 555.36 712.40 C 556.35 715.99 559.16 719.03 558.91 722.96 C 559.19 728.31 557.93 734.99 552.67 737.62 C 549.42 739.08 546.65 735.84 545.96 732.97 C 541.02 715.92 536.26 698.82 531.53 681.71 C 530.42 682.06 529.32 682.43 528.22 682.80 C 527.95 698.90 527.52 715.00 526.86 731.10 C 526.68 734.92 526.14 739.39 522.84 741.87 C 520.76 743.47 517.67 742.91 515.99 741.02 C 513.00 737.76 512.79 733.07 512.41 728.90 C 514.83 687.16 514.29 645.27 513.86 603.46 C 511.35 604.68 508.89 606.60 505.98 606.48 C 502.35 605.81 500.39 602.11 499.48 598.87 C 498.33 594.66 498.63 589.26 502.44 586.48 M 527.32 600.46 C 528.27 606.60 528.03 612.83 528.20 619.02 C 528.47 632.62 528.38 646.23 528.45 659.84 C 532.55 657.67 535.96 654.38 538.30 650.39 C 544.87 639.44 547.02 625.71 543.56 613.37 C 541.41 606.18 534.70 601.18 527.32 600.46 Z" />
<path fill="#000000" opacity="1.00" d=" M 571.48 584.60 C 579.66 580.31 590.05 577.99 598.72 582.28 C 607.03 586.48 612.24 594.80 615.84 603.09 C 621.98 617.87 623.83 634.09 623.60 649.99 C 623.06 671.95 618.40 694.00 608.72 713.78 C 603.17 724.86 595.97 735.45 586.14 743.16 C 584.15 744.99 580.94 744.97 579.10 742.95 C 574.32 737.97 574.23 729.93 577.91 724.31 C 577.44 717.20 578.20 710.10 577.99 702.99 C 577.89 670.40 577.65 637.81 577.66 605.22 C 574.91 605.97 571.61 605.56 570.24 602.72 C 567.20 597.30 566.54 589.09 571.48 584.60 M 591.58 602.16 C 591.77 638.06 591.82 673.96 592.06 709.86 C 598.53 700.18 603.08 689.31 605.92 678.04 C 610.19 660.40 611.36 641.64 607.13 623.87 C 604.72 615.23 601.10 605.04 591.58 602.16 Z" />
<path fill="#000000" opacity="1.00" d=" M 699.83 585.90 C 709.71 579.31 722.94 577.15 734.03 581.90 C 741.69 585.10 747.51 591.73 750.72 599.29 C 755.22 609.86 755.94 621.66 754.97 632.99 C 753.63 646.81 749.49 660.81 740.59 671.71 C 743.87 683.44 747.17 695.17 750.44 706.90 C 751.35 710.11 752.00 713.45 753.64 716.41 C 756.11 720.47 755.83 725.53 754.87 730.01 C 753.92 733.45 751.72 737.38 747.87 737.96 C 744.44 738.11 742.90 734.45 742.14 731.71 C 737.45 715.05 732.72 698.41 728.13 681.73 C 727.02 682.08 725.92 682.43 724.82 682.80 C 724.47 699.78 724.20 716.79 723.26 733.75 C 723.05 737.97 720.19 743.99 715.06 742.59 C 709.51 740.26 709.34 733.13 709.01 728.01 C 710.24 713.02 710.21 697.96 710.59 682.93 C 711.14 656.44 710.67 629.93 710.48 603.44 C 707.30 605.12 703.11 608.20 699.76 605.18 C 694.64 600.38 693.37 590.10 699.83 585.90 M 723.90 600.49 C 724.86 606.26 724.61 612.13 724.78 617.96 C 725.06 631.90 725.00 645.85 725.04 659.80 C 729.30 657.66 732.72 654.16 735.10 650.06 C 741.47 639.25 743.51 625.84 740.26 613.68 C 738.19 606.36 731.42 601.13 723.90 600.49 Z" />
<path fill="#000000" opacity="1.00" d=" M 902.49 581.69 C 909.46 580.04 916.57 583.64 920.95 588.97 C 928.57 598.12 931.62 610.30 932.03 622.00 C 932.03 626.81 932.30 632.20 929.22 636.24 C 927.45 638.71 923.67 639.83 921.14 637.84 C 918.14 635.54 917.88 631.42 918.03 627.95 C 918.35 620.35 917.05 612.00 911.72 606.21 C 909.47 603.62 905.42 602.42 902.44 604.51 C 897.18 608.09 895.01 614.49 893.12 620.26 C 887.88 638.33 885.54 657.22 885.95 676.02 C 886.17 686.62 886.78 697.35 889.67 707.61 C 891.08 712.22 892.96 717.12 896.97 720.10 C 898.54 721.29 900.87 721.80 902.59 720.57 C 905.62 718.38 906.99 714.69 908.24 711.32 C 911.43 701.47 912.58 691.09 913.07 680.80 C 908.28 680.56 903.38 681.35 898.68 680.35 C 894.40 677.98 893.89 672.24 894.19 667.88 C 894.51 663.93 896.39 658.59 901.13 658.56 C 909.07 658.25 917.04 658.37 924.99 658.27 C 927.08 658.28 929.55 658.20 931.05 659.98 C 934.17 663.50 934.39 668.58 933.93 673.04 C 931.72 692.96 931.07 713.02 931.59 733.05 C 931.68 736.83 930.91 741.30 927.46 743.48 C 924.85 745.26 921.21 743.97 919.73 741.37 C 917.69 737.94 916.97 733.94 916.51 730.04 C 913.24 735.97 907.98 741.60 900.91 742.40 C 894.40 743.33 888.70 738.78 885.30 733.67 C 879.20 724.55 876.39 713.69 874.46 703.02 C 870.99 680.90 871.12 658.22 874.67 636.12 C 877.03 622.56 880.18 608.89 886.53 596.58 C 889.99 590.12 894.97 583.45 902.49 581.69 Z" />
<path fill="#000000" opacity="1.00" d=" M 635.53 586.60 C 651.39 581.33 669.25 582.70 684.37 589.73 C 688.19 591.52 689.22 596.20 689.21 600.04 C 689.05 603.94 688.17 608.52 684.78 610.92 C 682.56 612.41 680.05 610.85 677.88 610.13 C 670.73 607.15 663.00 605.77 655.28 605.73 C 654.18 620.04 653.51 634.38 653.18 648.74 C 655.81 648.91 658.44 649.12 661.08 649.31 C 662.83 648.24 664.64 646.57 666.87 647.07 C 669.70 647.60 671.09 650.51 671.63 653.07 C 672.72 658.49 673.12 664.48 670.53 669.57 C 669.65 671.20 668.06 673.01 665.99 672.64 C 661.63 672.10 657.30 671.32 652.90 671.25 C 653.14 683.52 652.81 695.85 654.14 708.08 C 654.93 712.66 655.67 718.39 660.09 720.96 C 664.47 722.63 668.14 718.74 671.07 716.05 C 674.42 713.42 673.59 708.76 675.41 705.30 C 676.63 702.74 678.91 700.00 682.03 700.17 C 684.62 700.48 685.92 703.13 686.48 705.40 C 688.91 716.79 684.58 729.25 675.78 736.85 C 671.47 740.56 665.83 743.58 659.97 742.57 C 653.39 741.47 648.58 736.02 645.77 730.30 C 641.65 721.78 640.39 712.23 639.56 702.91 C 638.70 692.52 638.98 682.09 638.94 671.68 C 634.26 668.48 633.91 662.09 634.99 657.02 C 635.45 654.08 637.26 651.66 639.29 649.59 C 639.62 635.61 640.21 621.64 641.22 607.70 C 636.61 608.91 633.12 604.95 632.26 600.83 C 631.02 596.13 630.80 589.44 635.53 586.60 Z" />
<path fill="#000000" opacity="1.00" d=" M 453.99 596.90 C 456.65 593.02 459.63 588.90 463.99 586.86 C 467.11 585.72 469.36 588.60 471.12 590.67 C 474.48 590.43 477.38 592.42 478.46 595.59 C 491.59 625.74 494.98 659.36 492.40 691.92 C 491.24 704.46 489.26 717.22 483.75 728.66 C 480.83 734.36 476.71 740.21 470.38 742.35 C 464.96 744.15 459.32 741.18 455.77 737.16 C 448.73 729.35 445.80 718.89 443.65 708.83 C 438.78 685.23 438.68 660.82 441.44 636.94 C 443.28 623.05 446.47 608.91 453.99 596.90 M 455.10 641.95 C 452.75 662.42 453.21 683.29 457.19 703.54 C 458.20 708.27 459.28 713.11 461.73 717.35 C 462.84 719.27 464.55 721.22 466.94 721.36 C 469.60 721.04 471.10 718.45 472.30 716.34 C 475.62 709.69 476.85 702.27 477.91 694.99 C 481.60 666.05 478.73 635.88 467.32 608.88 C 459.21 617.91 456.69 630.29 455.10 641.95 Z" />
<path fill="#000000" opacity="1.00" d=" M 285.54 753.80 C 298.92 752.14 313.27 753.58 324.78 761.12 C 340.75 771.31 350.35 788.78 355.61 806.54 C 370.30 856.21 366.95 910.28 349.95 958.93 C 343.32 977.18 334.76 995.17 321.71 1009.75 C 313.70 1018.83 302.02 1024.30 290.03 1025.38 C 280.02 1026.27 269.94 1025.13 260.08 1023.42 C 254.63 1022.43 254.59 1015.35 256.18 1011.25 C 257.50 1007.65 261.84 1007.94 264.88 1007.00 C 267.31 1006.71 267.20 1003.81 267.26 1002.00 C 266.26 956.00 266.10 909.98 265.22 863.97 C 264.80 836.31 264.53 808.65 265.08 780.99 C 264.89 779.00 265.34 776.53 263.83 774.99 C 260.43 774.16 256.36 776.05 253.26 773.82 C 250.35 770.75 250.51 765.37 253.09 762.15 C 256.62 759.14 261.18 757.56 265.72 756.85 C 272.31 755.77 278.89 754.53 285.54 753.80 M 310.29 773.32 C 309.22 774.96 309.30 777.03 309.10 778.93 C 307.75 808.60 306.89 838.29 305.95 867.97 C 305.43 889.67 304.04 911.35 304.36 933.07 C 304.16 954.04 304.84 975.03 303.89 995.99 C 304.07 997.80 303.67 1000.42 305.67 1001.38 C 308.04 1002.49 310.46 1000.72 312.14 999.18 C 321.79 989.36 329.70 977.89 335.51 965.41 C 348.94 936.64 354.46 904.60 354.39 872.99 C 354.11 852.02 351.59 830.86 344.86 810.93 C 339.58 795.76 330.31 780.58 315.09 773.83 C 313.62 773.43 311.57 771.96 310.29 773.32 Z" />
<path fill="#000000" opacity="1.00" d=" M 873.55 772.84 C 884.88 771.92 896.56 771.22 907.60 774.50 C 917.44 777.22 927.36 782.08 933.12 790.87 C 942.50 804.82 943.87 822.64 941.42 838.87 C 938.05 862.40 929.99 886.60 912.28 903.28 C 909.75 905.42 908.72 908.80 909.45 912.02 C 913.83 935.50 924.65 957.74 940.41 975.68 C 942.14 978.17 946.11 975.59 947.76 978.30 C 949.96 981.58 950.12 986.41 947.39 989.47 C 938.12 1001.68 929.20 1014.46 917.26 1024.27 C 915.30 1025.78 913.40 1027.53 911.00 1028.32 C 908.37 1028.87 905.98 1026.48 905.62 1024.02 C 904.59 1020.30 909.35 1016.85 906.50 1013.44 C 898.62 1000.35 893.89 985.66 890.42 970.86 C 886.54 954.30 884.13 937.44 881.13 920.73 C 879.65 919.05 877.62 921.15 878.01 922.93 C 877.29 949.30 876.79 975.67 876.15 1002.04 C 876.29 1004.11 875.83 1006.76 877.59 1008.30 C 879.81 1009.36 883.07 1009.03 884.33 1011.56 C 885.49 1014.17 885.35 1017.44 883.94 1019.95 C 882.72 1021.96 880.10 1021.84 878.06 1021.92 C 863.69 1021.89 849.30 1021.93 834.98 1023.22 C 833.02 1023.37 830.59 1023.47 829.37 1021.63 C 827.67 1018.95 827.43 1015.35 828.65 1012.45 C 829.76 1009.91 832.78 1009.39 834.77 1007.77 C 835.67 1004.94 834.97 1001.89 835.12 998.98 C 835.29 970.97 835.37 942.97 835.26 914.96 C 835.04 874.97 834.77 834.95 836.37 794.99 C 837.11 790.36 830.82 791.96 829.48 788.59 C 827.87 784.83 828.02 779.24 831.73 776.76 C 845.37 773.25 859.63 774.40 873.55 772.84 M 880.68 784.46 C 879.45 789.57 880.09 794.85 879.87 800.05 C 879.52 833.03 879.14 866.01 878.82 898.99 C 878.83 901.08 878.85 904.81 881.93 904.44 C 887.67 903.79 892.90 900.93 897.60 897.71 C 906.77 891.16 913.86 882.05 919.29 872.26 C 927.86 856.66 932.24 838.74 931.63 820.95 C 931.32 811.28 927.67 801.27 919.79 795.25 C 908.82 786.49 894.12 785.51 880.68 784.46 Z" />
<path fill="#000000" opacity="1.00" d=" M 386.41 775.60 C 393.54 774.57 400.75 774.06 407.94 774.51 C 415.64 774.92 423.60 774.42 430.99 776.96 C 436.30 778.86 436.20 785.94 434.20 790.24 C 432.37 793.58 428.18 791.85 425.18 792.11 C 423.99 792.80 424.07 794.35 423.89 795.54 C 420.67 862.29 420.56 929.14 420.84 995.95 C 420.96 999.44 420.45 1003.07 421.48 1006.46 C 423.10 1009.53 428.09 1007.99 429.52 1011.43 C 431.81 1015.67 430.91 1023.55 425.01 1023.99 C 410.60 1024.60 396.23 1026.19 382.05 1028.88 C 379.62 1029.60 376.63 1028.94 375.58 1026.42 C 374.14 1022.96 373.65 1018.75 375.26 1015.28 C 376.46 1012.63 379.74 1012.41 381.77 1010.69 C 383.27 1007.72 382.29 1004.21 382.45 1001.02 C 381.75 936.03 381.09 871.03 380.44 806.04 C 380.26 802.50 380.89 798.77 379.54 795.42 C 377.94 792.96 374.11 792.30 373.74 789.00 C 372.96 784.94 373.66 779.77 377.42 777.38 C 380.24 776.14 383.40 776.10 386.41 775.60 Z" />
<path fill="#000000" opacity="1.00" d=" M 541.27 779.20 C 542.40 776.01 546.06 775.03 549.08 774.69 C 555.81 774.03 562.67 774.47 569.30 775.77 C 574.75 776.96 575.19 784.12 573.25 788.34 C 572.23 790.86 569.35 791.30 566.95 791.26 C 565.89 791.46 563.94 791.06 563.76 792.60 C 563.05 795.67 563.35 798.87 563.21 802.01 C 562.26 843.66 561.50 885.32 561.32 926.98 C 561.38 950.98 560.99 974.98 560.41 998.98 C 560.45 1002.80 560.00 1006.86 561.56 1010.48 C 562.84 1013.40 566.66 1012.47 568.83 1014.16 C 571.29 1016.94 571.32 1021.43 569.51 1024.57 C 568.19 1026.95 565.18 1026.16 562.98 1026.10 C 553.58 1025.24 544.32 1027.57 534.98 1028.07 C 530.23 1028.29 526.12 1025.02 523.81 1021.11 C 520.56 1015.76 519.18 1009.57 517.18 1003.70 C 508.06 974.60 500.84 944.96 493.39 915.41 C 486.30 886.92 481.68 857.89 474.99 829.32 C 472.61 840.05 473.14 851.08 472.60 861.99 C 470.90 909.00 469.09 956.00 468.49 1003.04 C 468.61 1004.65 468.27 1007.07 470.09 1007.89 C 472.49 1008.37 475.41 1007.69 477.30 1009.65 C 481.12 1012.94 480.54 1020.66 475.36 1022.27 C 468.98 1024.91 462.00 1027.17 455.03 1026.07 C 450.71 1024.54 450.18 1018.89 450.88 1015.00 C 451.26 1010.81 457.13 1009.54 456.40 1004.99 C 456.47 937.26 460.10 869.61 463.13 801.96 C 462.98 799.55 464.13 796.56 462.33 794.59 C 459.37 794.17 456.00 794.56 453.60 792.43 C 450.54 789.72 450.73 785.05 451.57 781.41 C 452.55 777.37 457.19 775.37 461.02 775.99 C 475.24 778.19 489.84 774.81 503.92 778.25 C 507.83 779.09 509.63 783.14 510.60 786.61 C 517.07 809.03 520.77 832.11 525.51 854.93 C 531.59 884.16 538.54 913.21 545.94 942.13 C 547.26 946.58 547.62 951.40 550.05 955.46 C 550.69 942.98 550.17 930.45 550.36 917.95 C 550.45 877.95 550.75 837.94 552.16 797.95 C 552.07 795.84 552.50 792.92 550.31 791.73 C 547.56 790.84 543.88 791.81 542.02 789.10 C 540.14 786.21 540.23 782.37 541.27 779.20 Z" />
<path fill="#000000" opacity="1.00" d=" M 680.22 788.79 C 677.83 784.43 678.42 776.87 684.05 775.41 C 690.57 773.70 697.42 774.42 704.04 775.12 C 706.96 775.45 710.66 775.99 711.88 779.14 C 713.20 782.82 713.17 788.13 709.61 790.56 C 707.24 792.11 702.11 789.67 701.92 793.74 C 700.95 824.12 700.54 854.53 700.08 884.93 C 699.52 921.30 699.97 957.67 698.91 994.04 C 699.02 999.41 698.04 1005.05 699.85 1010.24 C 701.21 1014.05 706.87 1011.88 708.28 1015.64 C 709.62 1018.67 709.57 1022.71 707.31 1025.31 C 705.64 1026.99 703.07 1025.97 701.01 1026.08 C 691.59 1025.25 682.31 1027.70 672.95 1028.06 C 665.99 1028.04 661.66 1021.45 659.52 1015.60 C 653.02 996.79 647.78 977.56 642.70 958.31 C 636.44 933.97 629.98 909.66 624.99 885.01 C 620.99 866.46 617.89 847.71 613.38 829.28 C 611.77 837.07 611.35 845.05 611.31 853.00 C 609.56 902.98 607.52 952.96 606.89 1002.98 C 606.98 1004.60 606.73 1006.71 608.23 1007.83 C 610.63 1008.41 613.54 1007.65 615.52 1009.49 C 618.41 1011.81 618.79 1016.17 617.27 1019.39 C 616.32 1021.49 613.91 1022.15 611.97 1023.01 C 606.02 1025.25 599.52 1027.21 593.13 1025.99 C 589.09 1024.22 588.63 1018.88 589.26 1015.07 C 589.63 1010.89 595.43 1009.59 594.79 1005.10 C 594.82 935.66 598.77 866.30 601.68 796.94 C 601.76 792.86 596.63 795.10 594.27 793.72 C 589.13 792.02 588.73 785.48 590.08 781.08 C 591.27 777.01 596.12 775.29 599.98 776.05 C 614.22 778.19 628.87 774.70 642.93 778.43 C 646.36 779.48 647.94 783.10 648.90 786.26 C 653.62 802.25 656.67 818.67 659.97 834.99 C 665.92 866.61 673.32 897.94 681.03 929.18 C 683.53 937.96 685.07 947.04 688.16 955.64 C 689.09 951.82 688.69 947.88 688.74 944.00 C 688.76 895.32 688.85 846.64 690.56 797.99 C 690.46 795.96 690.87 793.39 689.10 791.96 C 686.26 790.62 682.04 792.03 680.22 788.79 Z" />
<path fill="#000000" opacity="1.00" d=" M 800.05 782.60 C 803.36 782.87 804.63 778.02 808.06 778.46 C 811.31 779.38 811.99 783.27 812.35 786.17 C 813.01 795.33 812.78 804.73 810.46 813.64 C 809.80 816.72 805.55 818.16 803.49 815.56 C 799.97 810.58 802.54 804.18 801.26 798.66 C 800.50 796.05 797.40 795.50 795.07 795.77 C 788.35 796.36 781.61 795.84 774.89 796.18 C 772.40 796.15 771.74 798.95 771.57 800.92 C 769.22 825.53 768.23 850.26 767.83 874.97 C 767.77 879.96 767.48 884.96 767.99 889.94 C 773.95 888.94 779.99 888.90 786.02 889.29 C 787.86 889.25 790.80 889.75 791.25 887.26 C 792.12 882.97 790.88 878.42 792.43 874.25 C 793.32 871.70 797.05 871.36 798.71 873.32 C 800.24 875.16 800.25 877.72 800.33 880.01 C 800.10 893.97 799.49 907.92 798.50 921.84 C 798.64 924.20 795.46 926.54 793.95 924.00 C 791.09 916.73 793.58 908.33 790.92 901.06 C 787.27 901.51 783.73 902.77 780.02 902.57 C 776.07 902.72 771.94 901.87 768.15 903.26 C 767.09 904.57 767.48 906.39 767.40 907.97 C 768.61 935.33 766.13 963.02 771.49 990.07 C 772.76 995.41 773.91 1001.21 777.64 1005.44 C 779.92 1007.98 783.24 1006.04 785.30 1004.28 C 788.26 1001.76 792.88 1000.16 793.57 995.85 C 793.81 991.15 791.82 985.91 794.74 981.67 C 796.18 979.07 800.54 977.61 802.44 980.50 C 804.85 984.99 804.72 990.31 805.67 995.23 C 806.33 1001.15 808.24 1007.00 807.90 1013.01 C 807.49 1016.23 802.95 1017.46 800.71 1015.30 C 799.26 1013.61 798.63 1011.41 797.31 1009.66 C 796.06 1008.29 794.64 1009.72 793.51 1010.45 C 785.73 1016.43 777.40 1022.50 767.53 1024.32 C 761.39 1025.49 754.91 1023.73 749.99 1019.95 C 743.09 1014.73 738.85 1006.77 736.28 998.66 C 729.78 978.12 728.07 956.44 727.75 935.01 C 727.44 887.96 730.18 840.97 732.64 794.00 C 732.93 791.13 732.98 788.04 734.52 785.51 C 735.96 783.36 738.80 783.19 741.11 782.75 C 760.62 779.73 780.49 780.58 800.05 782.60 Z" />
</g>
</svg>
