<?xml version="1.0" encoding="UTF-8" ?>
<!DOCTYPE svg PUBLIC "-//W3C//DTD SVG 1.1//EN" "http://www.w3.org/Graphics/SVG/1.1/DTD/svg11.dtd">
<svg width="4000pt" height="4000pt" viewBox="0 0 4000 4000" version="1.1" xmlns="http://www.w3.org/2000/svg">
<g id="#000000ff">
<path fill="#000000" opacity="1.00" d=" M 1955.89 686.08 C 1968.94 686.01 1981.99 682.23 1995.02 684.75 C 2005.41 687.11 2016.12 687.11 2026.65 688.51 C 2033.69 690.10 2040.74 691.81 2047.97 692.39 C 2058.14 694.90 2068.40 697.15 2078.40 700.38 C 2087.93 703.87 2097.26 707.89 2106.89 711.15 C 2111.35 713.00 2115.44 715.70 2120.09 717.16 C 2129.90 720.16 2138.10 726.62 2147.62 730.34 C 2156.00 733.36 2162.39 739.87 2170.23 743.90 C 2174.52 746.13 2177.75 749.97 2182.23 751.90 C 2184.83 753.05 2187.05 754.86 2189.34 756.55 C 2193.20 759.42 2197.97 761.13 2201.11 764.94 C 2205.80 770.44 2212.63 773.35 2217.87 778.22 C 2223.79 783.04 2229.53 788.19 2236.25 791.91 C 2243.91 796.39 2248.87 803.97 2255.93 809.21 C 2261.02 812.72 2264.36 818.11 2269.40 821.70 C 2274.30 825.08 2277.41 830.27 2281.75 834.25 C 2286.69 839.29 2292.01 843.98 2296.42 849.52 C 2299.73 853.53 2303.83 856.83 2306.98 860.99 C 2311.01 866.23 2316.60 870.09 2320.15 875.74 C 2322.35 879.42 2326.47 881.35 2328.70 885.03 C 2331.53 889.49 2334.85 893.61 2338.57 897.38 C 2343.50 903.23 2347.72 909.64 2352.24 915.82 C 2355.83 920.55 2357.90 926.55 2363.08 929.93 C 2367.56 932.97 2368.06 938.72 2371.16 942.79 C 2377.42 951.38 2383.88 959.93 2388.29 969.69 C 2395.44 980.81 2401.16 992.76 2407.82 1004.19 C 2410.71 1008.79 2411.99 1014.24 2415.38 1018.57 C 2421.01 1028.05 2425.27 1038.27 2429.58 1048.40 C 2433.29 1059.01 2439.36 1068.62 2442.62 1079.41 C 2446.28 1088.39 2449.43 1097.64 2453.69 1106.36 C 2457.74 1111.80 2457.18 1119.00 2460.27 1124.87 C 2462.97 1129.85 2463.66 1135.54 2465.38 1140.88 C 2466.56 1145.39 2468.54 1149.65 2469.95 1154.10 C 2471.92 1159.74 2472.92 1165.65 2474.70 1171.35 C 2478.10 1181.37 2479.49 1191.93 2482.87 1201.98 C 2484.93 1211.10 2487.89 1219.97 2489.99 1229.09 C 2491.05 1233.70 2492.49 1238.22 2494.25 1242.62 C 2496.43 1247.95 2497.00 1253.76 2498.88 1259.20 C 2500.89 1264.82 2500.83 1270.90 2502.60 1276.59 C 2504.74 1283.65 2505.10 1291.10 2507.60 1298.07 C 2510.52 1306.47 2510.95 1315.42 2513.44 1323.93 C 2514.85 1329.34 2516.85 1334.59 2517.99 1340.09 C 2519.25 1345.11 2519.28 1350.53 2521.83 1355.17 C 2524.29 1359.75 2524.67 1365.03 2525.96 1370.00 C 2527.75 1377.08 2527.48 1384.52 2529.58 1391.54 C 2532.65 1403.33 2534.24 1415.47 2537.91 1427.12 C 2540.81 1436.56 2541.21 1446.52 2543.86 1456.03 C 2545.78 1469.02 2549.03 1481.81 2549.99 1494.94 C 2550.14 1504.62 2550.17 1514.31 2550.10 1524.00 C 2550.25 1535.17 2548.02 1546.21 2545.14 1556.96 C 2542.35 1567.58 2534.90 1576.12 2531.10 1586.32 C 2528.73 1590.37 2524.87 1593.22 2521.68 1596.58 C 2520.11 1599.57 2518.15 1602.39 2515.63 1604.66 C 2507.99 1611.76 2500.97 1619.67 2492.27 1625.52 C 2507.71 1725.40 2517.46 1826.13 2522.70 1927.06 C 2528.15 2033.93 2528.41 2141.07 2523.52 2247.97 C 2518.80 2350.21 2509.32 2452.25 2494.29 2553.49 C 2480.30 2647.53 2461.64 2740.94 2436.80 2832.74 C 2415.06 2912.70 2388.82 2991.58 2355.61 3067.55 C 2327.66 3131.40 2294.81 3193.41 2253.91 3249.97 C 2233.62 3277.91 2211.25 3304.42 2186.15 3328.17 C 2161.60 3351.34 2134.33 3371.91 2104.10 3387.09 C 2070.74 3403.97 2033.47 3413.69 1995.97 3412.96 C 1960.10 3412.46 1924.75 3402.48 1892.96 3386.11 C 1862.02 3370.25 1834.21 3348.82 1809.26 3324.73 C 1761.43 3278.31 1723.53 3222.70 1691.17 3164.70 C 1651.56 3093.05 1620.35 3017.01 1594.39 2939.44 C 1567.86 2860.08 1546.90 2778.93 1530.01 2697.00 C 1509.66 2597.90 1495.28 2497.62 1485.84 2396.92 C 1475.59 2287.29 1471.20 2177.13 1472.15 2067.03 C 1473.37 1924.44 1483.63 1781.87 1504.35 1640.76 C 1497.99 1638.66 1493.41 1633.64 1487.92 1630.09 C 1482.27 1625.07 1475.73 1620.93 1471.22 1614.77 C 1467.13 1609.57 1462.49 1604.86 1457.90 1600.11 C 1455.43 1597.67 1454.66 1594.23 1453.61 1591.06 C 1451.91 1586.97 1449.37 1583.25 1448.14 1578.97 C 1446.95 1574.55 1444.68 1570.51 1443.80 1566.02 C 1441.29 1554.52 1438.56 1542.88 1438.96 1531.04 C 1439.09 1519.19 1438.13 1507.14 1441.42 1495.60 C 1443.11 1490.48 1443.10 1485.03 1444.50 1479.84 C 1445.02 1474.60 1446.33 1469.43 1446.43 1464.17 C 1445.27 1457.08 1449.23 1450.67 1450.65 1443.93 C 1452.98 1437.60 1453.06 1430.72 1455.40 1424.39 C 1456.75 1420.68 1456.87 1416.71 1457.64 1412.89 C 1460.00 1402.66 1460.79 1392.11 1463.81 1382.03 C 1466.26 1374.02 1465.63 1365.47 1468.49 1357.55 C 1469.12 1350.10 1471.66 1343.01 1472.47 1335.60 C 1473.92 1325.80 1477.29 1316.40 1478.51 1306.57 C 1479.54 1301.10 1481.17 1295.77 1482.54 1290.38 C 1484.43 1279.56 1485.70 1268.56 1489.00 1258.05 C 1490.77 1250.81 1491.13 1243.15 1494.35 1236.32 C 1497.26 1229.93 1497.13 1222.77 1499.02 1216.10 C 1502.63 1203.53 1504.79 1190.58 1509.14 1178.22 C 1511.50 1169.09 1514.18 1160.04 1516.60 1150.92 C 1518.81 1143.91 1522.19 1137.29 1523.78 1130.08 C 1524.89 1124.57 1527.76 1119.64 1529.23 1114.25 C 1531.40 1106.74 1534.21 1099.44 1537.29 1092.28 C 1538.74 1087.30 1540.08 1082.25 1542.70 1077.72 C 1548.06 1066.41 1552.27 1054.62 1557.07 1043.08 C 1559.03 1039.19 1560.83 1035.22 1562.35 1031.14 C 1564.57 1024.99 1568.39 1019.59 1570.57 1013.43 C 1580.42 998.06 1589.39 982.13 1597.93 966.00 C 1602.80 957.29 1607.24 948.27 1613.43 940.38 C 1617.59 932.50 1624.09 926.27 1628.57 918.60 C 1631.24 914.01 1635.33 910.49 1638.29 906.11 C 1641.51 901.40 1645.71 897.40 1648.50 892.39 C 1650.89 887.91 1655.30 885.06 1658.10 880.90 C 1660.92 876.02 1663.93 871.05 1668.51 867.61 C 1672.88 864.26 1675.66 859.38 1679.73 855.71 C 1685.30 850.50 1688.77 843.47 1694.50 838.42 C 1698.94 834.58 1701.78 829.23 1706.45 825.63 C 1713.04 820.22 1718.46 813.59 1724.78 807.89 C 1727.80 804.83 1731.54 802.64 1734.72 799.77 C 1745.46 789.00 1758.43 780.82 1769.52 770.45 C 1776.24 765.70 1782.14 759.91 1788.48 754.67 C 1789.96 753.57 1791.70 752.90 1793.40 752.17 C 1795.74 749.87 1798.31 747.70 1801.47 746.63 C 1805.69 745.25 1808.60 741.72 1812.35 739.51 C 1819.45 735.34 1825.53 729.58 1832.98 725.96 C 1838.38 722.01 1844.78 719.97 1850.64 716.83 C 1854.83 714.55 1859.61 713.45 1863.55 710.67 C 1868.43 707.19 1874.87 707.30 1879.82 703.93 C 1886.60 699.92 1894.64 699.57 1901.89 696.85 C 1907.15 695.04 1912.28 692.58 1917.91 692.13 C 1924.94 691.72 1931.62 689.28 1938.60 688.44 C 1944.36 687.73 1950.09 686.62 1955.89 686.08 M 1981.41 1156.56 C 1973.42 1159.24 1966.84 1165.13 1961.23 1171.26 C 1956.46 1176.17 1951.24 1180.69 1947.23 1186.27 C 1941.51 1193.21 1938.09 1201.62 1932.97 1208.96 C 1927.93 1216.07 1924.26 1224.03 1919.10 1231.04 C 1914.33 1238.19 1911.39 1246.33 1908.23 1254.26 C 1900.27 1270.65 1896.24 1288.52 1889.41 1305.35 C 1886.65 1314.58 1883.46 1323.68 1880.59 1332.88 C 1877.68 1342.01 1877.02 1351.63 1874.85 1360.94 C 1873.95 1366.66 1872.10 1372.19 1871.20 1377.91 C 1870.31 1388.62 1869.24 1399.31 1868.85 1410.05 C 1867.24 1420.95 1868.46 1432.04 1867.17 1442.96 C 1866.89 1450.64 1867.16 1458.32 1867.07 1466.01 C 1866.80 1475.74 1868.48 1485.36 1869.34 1495.03 C 1870.37 1505.37 1872.61 1515.53 1873.86 1525.84 C 1874.29 1532.20 1874.06 1538.59 1874.15 1544.97 C 1874.51 1555.86 1870.84 1566.31 1867.54 1576.53 C 1863.37 1589.36 1855.13 1600.32 1846.66 1610.63 C 1843.64 1614.39 1839.17 1616.48 1835.76 1619.82 C 1827.45 1627.91 1816.82 1632.88 1807.21 1639.18 C 1795.12 1647.25 1780.77 1650.55 1767.60 1656.32 C 1750.98 1662.39 1733.57 1665.97 1716.04 1668.02 C 1695.53 1671.59 1674.74 1672.69 1654.02 1673.95 C 1636.59 1674.25 1619.19 1673.31 1601.89 1671.36 C 1582.47 1809.01 1573.34 1948.04 1572.94 2087.03 C 1572.66 2194.88 1577.63 2302.77 1588.49 2410.09 C 1598.18 2505.08 1612.40 2599.66 1632.29 2693.07 C 1650.13 2777.12 1672.74 2860.24 1701.71 2941.16 C 1711.85 2903.93 1727.78 2868.24 1749.05 2836.03 C 1782.18 2785.67 1828.96 2743.76 1884.27 2719.26 C 1923.28 2701.85 1966.31 2693.47 2009.00 2695.24 C 2046.65 2696.64 2083.92 2705.98 2117.96 2722.11 C 2148.19 2736.39 2175.86 2755.92 2199.88 2779.16 C 2246.64 2824.36 2279.47 2883.26 2295.57 2946.12 C 2338.06 2828.16 2367.16 2705.72 2387.65 2582.14 C 2404.07 2482.81 2414.86 2382.57 2420.70 2282.07 C 2426.93 2174.84 2427.70 2067.30 2423.23 1959.99 C 2419.01 1860.79 2410.18 1761.76 2395.97 1663.48 C 2384.69 1665.64 2373.34 1667.61 2361.86 1668.24 C 2355.17 1669.35 2348.36 1668.65 2341.67 1669.56 C 2332.10 1670.42 2322.62 1668.72 2313.07 1669.06 C 2291.56 1668.18 2270.11 1665.21 2249.25 1659.76 C 2244.39 1658.36 2239.12 1657.96 2234.80 1655.15 C 2230.75 1652.39 2225.79 1651.68 2221.45 1649.56 C 2215.81 1646.80 2209.60 1645.26 2204.37 1641.74 C 2198.65 1638.00 2192.79 1634.50 2186.99 1630.91 C 2180.79 1627.35 2176.37 1621.61 2171.24 1616.80 C 2163.28 1608.24 2156.63 1598.53 2150.60 1588.54 C 2146.79 1581.60 2142.65 1574.63 2141.19 1566.74 C 2138.58 1558.04 2135.59 1549.22 2135.92 1540.02 C 2135.03 1532.41 2134.30 1524.66 2135.65 1517.06 C 2137.47 1505.21 2137.43 1493.12 2140.30 1481.45 C 2141.89 1471.32 2140.07 1460.99 2141.54 1450.86 C 2141.97 1447.54 2140.92 1444.25 2141.18 1440.93 C 2141.67 1434.61 2140.79 1428.31 2140.28 1422.04 C 2140.82 1405.51 2137.36 1389.27 2135.68 1372.90 C 2135.00 1366.24 2132.97 1359.87 2131.47 1353.39 C 2130.28 1345.80 2127.88 1338.47 2126.88 1330.86 C 2125.98 1324.48 2123.54 1318.49 2121.65 1312.38 C 2119.40 1306.44 2118.25 1300.14 2115.69 1294.33 C 2110.77 1283.09 2106.66 1271.41 2099.98 1261.06 C 2093.04 1248.37 2087.15 1235.06 2078.74 1223.24 C 2075.93 1220.08 2071.81 1218.23 2069.65 1214.47 C 2065.63 1207.97 2061.05 1201.87 2056.25 1195.94 C 2052.88 1190.97 2048.44 1186.92 2043.87 1183.11 C 2039.14 1178.08 2033.13 1174.60 2028.01 1170.02 C 2014.12 1161.62 1998.07 1154.08 1981.41 1156.56 M 1981.49 2796.71 C 1938.70 2800.54 1898.36 2820.87 1867.56 2850.47 C 1842.88 2874.00 1823.56 2902.95 1810.42 2934.38 C 1795.29 2970.51 1788.30 3009.88 1788.98 3049.00 C 1789.61 3089.55 1798.60 3130.12 1816.31 3166.68 C 1831.01 3197.05 1851.71 3224.66 1877.52 3246.47 C 1904.59 3269.39 1937.84 3285.38 1973.09 3290.30 C 2008.51 3295.49 2045.30 3289.23 2077.36 3273.43 C 2106.60 3259.12 2131.83 3237.34 2151.75 3211.72 C 2174.59 3182.45 2190.54 3148.02 2199.15 3111.95 C 2208.56 3072.49 2209.56 3031.07 2202.34 2991.17 C 2195.47 2953.38 2180.79 2916.88 2158.58 2885.48 C 2139.66 2858.69 2115.31 2835.46 2086.60 2819.42 C 2054.88 2801.58 2017.78 2793.15 1981.49 2796.71 Z" />
</g>
</svg>
