<?xml version="1.0" encoding="UTF-8" ?>
<!DOCTYPE svg PUBLIC "-//W3C//DTD SVG 1.1//EN" "http://www.w3.org/Graphics/SVG/1.1/DTD/svg11.dtd">
<svg width="1200pt" height="1200pt" viewBox="0 0 1200 1200" version="1.1" xmlns="http://www.w3.org/2000/svg">
<g id="#000000ff">
<path fill="#000000" opacity="1.00" d=" M 559.56 261.60 C 564.06 260.43 568.98 261.24 573.64 260.90 C 573.60 262.58 573.48 264.27 573.15 265.93 C 563.89 313.77 555.45 361.77 546.80 409.72 C 539.80 410.10 532.80 410.29 525.80 410.58 C 520.49 386.28 515.83 361.83 510.58 337.52 C 506.50 362.29 502.90 387.13 498.90 411.91 C 491.89 412.55 484.86 412.94 477.84 413.38 C 468.28 370.92 458.95 328.40 449.02 286.03 C 447.66 279.97 446.09 273.97 444.91 267.88 C 455.87 266.36 466.96 265.87 478.00 265.03 C 484.23 292.22 489.88 319.55 495.62 346.86 C 499.97 319.01 503.95 291.10 508.41 263.27 C 515.01 262.56 521.66 262.57 528.28 262.13 C 534.39 289.56 539.26 317.27 544.76 344.83 C 549.80 317.11 554.19 289.25 559.56 261.60 Z" />
<path fill="#000000" opacity="1.00" d=" M 581.21 260.93 C 598.11 260.40 615.03 260.75 631.93 260.97 C 638.73 261.22 645.55 260.97 652.32 261.71 C 652.27 267.24 652.26 272.78 652.04 278.31 C 639.51 278.50 626.97 277.65 614.43 277.91 C 614.52 291.73 614.34 305.56 614.35 319.38 C 624.84 319.57 635.36 319.45 645.84 320.10 C 645.89 325.58 646.13 331.10 645.55 336.56 C 644.13 337.24 642.46 336.82 640.96 336.92 C 632.06 336.66 623.16 336.53 614.25 336.48 C 614.25 354.96 614.13 373.44 614.08 391.93 C 628.37 392.13 642.68 392.17 656.95 392.96 C 656.84 398.48 657.28 404.08 656.48 409.55 C 655.00 409.95 653.45 409.78 651.95 409.78 C 628.64 408.89 605.31 408.99 581.99 408.91 C 581.48 383.97 581.69 359.02 581.46 334.08 C 581.41 309.70 581.08 285.31 581.21 260.93 Z" />
<path fill="#000000" opacity="1.00" d=" M 668.07 262.13 C 682.74 262.41 697.39 263.43 712.03 264.27 C 721.14 264.61 730.50 266.66 738.00 272.07 C 747.06 278.39 752.74 288.93 753.59 299.89 C 754.35 309.91 752.95 320.69 746.99 329.05 C 743.26 334.37 737.56 337.91 731.55 340.13 C 737.33 344.08 743.16 349.04 744.98 356.10 C 749.98 375.51 745.03 396.38 752.25 415.38 C 748.81 415.86 745.38 415.24 741.96 414.98 C 733.92 414.26 725.86 413.74 717.83 413.03 C 713.85 399.02 715.58 384.34 715.58 369.99 C 715.67 362.14 716.22 353.33 711.30 346.66 C 708.52 342.81 703.49 342.45 699.15 342.34 C 698.48 365.39 697.95 388.44 697.21 411.49 C 686.53 411.37 675.83 410.72 665.17 410.01 C 665.51 380.00 666.27 350.00 666.77 319.99 C 667.27 300.71 667.22 281.40 668.07 262.13 M 699.55 327.62 C 704.71 328.00 710.72 328.73 714.79 324.80 C 720.04 319.70 720.87 311.88 721.22 304.94 C 721.39 297.53 721.02 289.08 715.60 283.40 C 711.81 279.43 706.02 279.41 700.95 279.04 C 700.34 295.23 700.03 311.43 699.55 327.62 Z" />
<path fill="#000000" opacity="1.00" d=" M 392.55 270.83 C 402.91 269.14 414.26 270.72 422.74 277.25 C 431.71 284.02 436.83 294.58 439.96 305.12 C 444.56 320.96 445.66 337.59 445.60 354.01 C 445.30 369.97 443.51 386.53 435.85 400.81 C 430.61 410.67 421.44 418.44 410.61 421.37 C 398.85 424.75 385.17 424.41 374.96 417.02 C 364.28 409.35 358.79 396.65 355.42 384.35 C 351.06 367.64 349.52 350.26 349.80 333.03 C 350.36 317.27 353.01 300.62 362.69 287.69 C 369.71 278.15 380.96 272.44 392.55 270.83 M 391.39 285.47 C 386.18 288.24 384.70 294.62 383.95 300.00 C 382.44 313.26 383.15 326.64 383.70 339.94 C 384.62 356.51 385.59 373.11 388.25 389.51 C 389.38 395.41 390.39 401.80 394.40 406.53 C 397.41 410.21 403.47 409.94 406.58 406.55 C 409.71 403.19 410.77 398.51 411.42 394.10 C 412.59 384.79 412.48 375.37 412.34 366.00 C 411.77 346.47 410.89 326.90 408.27 307.52 C 407.12 300.78 406.34 293.49 402.11 287.84 C 399.73 284.51 394.96 283.63 391.39 285.47 Z" />
<path fill="#000000" opacity="1.00" d=" M 769.83 281.07 C 770.02 277.08 770.04 273.06 770.65 269.10 C 792.46 271.14 814.21 273.82 835.93 276.70 C 837.77 276.95 839.61 277.31 841.44 277.74 C 841.03 283.25 840.82 288.79 840.23 294.29 C 827.74 292.94 815.31 291.01 802.82 289.66 C 802.06 303.47 801.27 317.29 800.53 331.10 C 810.99 332.38 821.46 333.55 831.88 335.16 C 831.81 340.76 831.48 346.36 830.79 351.91 C 820.36 350.87 810.00 349.22 799.57 348.12 C 798.56 366.55 797.51 384.97 796.51 403.40 C 810.75 405.13 825.00 406.85 839.18 409.05 C 839.10 414.63 838.59 420.19 838.14 425.75 C 813.34 422.70 788.57 419.31 763.69 416.95 C 763.88 400.64 765.13 384.35 765.74 368.05 C 767.10 339.06 768.46 310.07 769.83 281.07 Z" />
<path fill="#000000" opacity="1.00" d=" M 857.04 279.95 C 867.38 281.01 877.59 283.02 887.86 284.60 C 898.64 286.58 910.09 287.37 919.62 293.33 C 931.10 300.06 938.14 312.38 941.14 325.06 C 945.71 343.99 944.34 363.78 941.38 382.84 C 938.70 397.76 934.47 413.46 923.54 424.58 C 915.12 433.24 902.25 436.20 890.56 434.29 C 875.93 431.79 861.27 429.46 846.61 427.14 C 848.10 401.42 850.21 375.74 851.94 350.04 C 853.68 326.68 855.08 303.29 857.04 279.95 M 889.05 299.65 C 885.89 338.95 882.84 378.26 879.63 417.55 C 884.50 418.33 889.98 420.27 894.58 417.51 C 899.82 414.26 901.89 408.02 903.53 402.41 C 906.83 389.86 908.15 376.89 909.38 363.99 C 910.53 350.02 911.59 335.95 910.33 321.95 C 909.68 315.50 908.16 308.42 902.99 304.02 C 899.15 300.66 893.80 300.55 889.05 299.65 Z" />
<path fill="#000000" opacity="1.00" d=" M 298.97 286.92 C 309.00 284.99 320.31 285.07 328.98 291.16 C 336.92 296.68 340.75 306.24 342.39 315.45 C 344.44 327.59 344.43 340.68 338.98 351.98 C 334.77 360.72 326.80 367.23 317.88 370.78 C 310.28 373.97 302.06 375.07 294.00 376.52 C 295.61 396.40 297.56 416.25 299.07 436.14 C 289.04 438.22 278.95 440.07 268.88 441.99 C 266.86 442.69 267.12 440.27 266.89 439.05 C 262.35 391.29 257.72 343.52 253.22 295.75 C 268.34 292.22 283.70 289.74 298.97 286.92 M 287.71 304.62 C 289.41 323.46 290.96 342.31 292.66 361.15 C 297.55 360.35 303.20 359.70 306.36 355.35 C 311.70 348.13 311.47 338.57 311.13 330.01 C 310.45 321.76 309.70 312.50 303.74 306.16 C 299.46 301.81 292.95 303.49 287.71 304.62 Z" />
<path fill="#000000" opacity="1.00" d=" M 385.28 449.60 C 390.64 450.79 395.89 452.61 400.70 455.31 C 416.08 462.71 430.33 472.17 444.80 481.16 C 456.93 489.59 469.45 497.66 480.05 508.03 C 482.16 510.37 484.98 512.73 485.31 516.04 C 485.70 518.40 482.89 519.48 480.97 519.20 C 476.47 518.38 472.09 516.89 467.87 515.15 C 447.24 506.21 427.47 495.49 407.25 485.71 C 400.27 481.46 393.03 477.54 386.73 472.29 C 382.47 468.33 379.09 462.93 378.92 456.98 C 378.85 453.36 381.25 449.39 385.28 449.60 Z" />
<path fill="#000000" opacity="1.00" d=" M 763.83 462.76 C 772.57 457.75 781.36 452.61 791.13 449.85 C 793.41 450.55 796.11 451.45 796.66 454.12 C 798.63 460.73 795.08 467.76 790.36 472.32 C 777.28 483.79 761.18 490.76 745.99 498.88 C 736.17 504.29 726.09 509.19 716.01 514.09 C 711.12 516.35 706.09 518.46 700.79 519.51 C 699.10 519.77 696.66 519.85 695.86 517.99 C 694.95 514.88 697.49 512.38 699.26 510.18 C 709.24 499.30 721.62 491.08 733.45 482.37 C 743.47 475.67 753.56 469.08 763.83 462.76 Z" />
<path fill="#000000" opacity="1.00" d=" M 509.98 468.54 C 520.76 468.47 531.51 467.46 542.26 466.74 C 542.26 480.98 542.27 495.23 542.25 509.47 C 546.45 504.53 551.54 499.76 558.12 498.44 C 568.34 496.70 579.99 500.09 586.11 508.86 C 593.24 519.02 594.18 531.99 594.12 544.02 C 593.82 556.71 591.99 570.42 583.62 580.53 C 576.10 589.65 563.42 592.58 552.08 591.35 C 541.33 590.27 532.22 583.27 525.91 574.86 C 523.22 579.78 520.65 584.77 517.87 589.65 C 515.22 589.61 512.57 589.60 509.93 589.62 C 509.90 549.26 509.78 508.90 509.98 468.54 M 549.47 511.66 C 546.12 513.44 544.71 517.27 543.72 520.70 C 541.61 528.95 541.59 537.54 541.67 546.00 C 541.87 553.99 542.19 562.10 544.36 569.84 C 545.31 572.82 546.53 576.07 549.29 577.83 C 552.31 579.61 556.42 578.15 558.14 575.23 C 561.07 570.38 561.08 564.50 561.25 559.02 C 561.32 549.34 562.09 539.65 561.39 529.98 C 561.10 524.56 560.92 518.75 557.89 514.04 C 556.18 511.28 552.37 510.16 549.47 511.66 Z" />
<path fill="#000000" opacity="1.00" d=" M 598.65 500.20 C 610.55 500.26 622.45 500.06 634.35 500.31 C 640.18 517.76 646.08 535.21 652.26 552.54 C 659.10 535.12 665.88 517.69 672.64 500.24 C 676.64 500.18 680.65 500.19 684.66 500.20 C 671.73 532.10 658.76 563.98 645.81 595.87 C 642.68 603.78 639.38 612.19 632.56 617.69 C 626.46 622.78 617.36 622.93 610.44 619.49 C 606.55 617.56 603.96 613.92 602.11 610.12 C 605.82 607.41 609.56 604.75 613.26 602.03 C 614.04 605.32 614.59 609.25 617.65 611.30 C 620.77 613.24 624.92 611.84 627.23 609.25 C 631.15 605.02 632.55 599.24 634.63 594.02 C 622.64 562.74 610.63 531.48 598.65 500.20 Z" />
<path fill="#000000" opacity="1.00" d=" M 433.50 529.66 C 443.98 528.57 454.60 528.59 465.04 530.07 C 470.82 530.99 476.83 531.98 481.87 535.17 C 484.11 536.51 484.78 539.86 482.66 541.64 C 479.12 544.60 474.44 545.68 470.06 546.79 C 455.15 549.39 440.07 550.89 424.99 552.09 C 416.94 553.04 408.62 552.73 400.85 550.30 C 396.93 548.80 392.73 546.31 391.48 542.03 C 391.10 538.44 395.08 536.89 397.90 536.12 C 409.64 533.35 421.47 530.83 433.50 529.66 Z" />
<path fill="#000000" opacity="1.00" d=" M 719.13 530.08 C 739.11 527.80 759.09 531.76 778.44 536.46 C 781.00 537.26 784.24 538.13 785.27 540.95 C 785.76 543.92 783.51 546.49 781.40 548.28 C 775.20 552.57 767.27 552.93 759.99 553.38 C 746.40 551.85 732.72 550.97 719.19 548.84 C 712.74 547.82 706.06 546.96 700.26 543.74 C 698.57 542.75 696.71 541.15 696.99 538.97 C 697.27 536.67 699.41 535.27 701.32 534.35 C 706.90 531.72 713.07 530.84 719.13 530.08 Z" />
<path fill="#000000" opacity="1.00" d=" M 474.26 563.28 C 477.08 562.70 480.05 562.13 482.92 562.83 C 485.05 563.60 485.24 566.34 484.14 568.04 C 481.81 571.65 478.25 574.21 474.93 576.84 C 463.03 585.60 450.06 592.75 437.35 600.25 C 421.58 608.93 406.40 619.65 388.50 623.42 C 384.75 623.99 379.62 623.81 377.62 619.99 C 376.89 616.82 379.77 614.59 381.84 612.74 C 387.69 608.22 393.91 604.22 400.00 600.04 C 423.03 584.77 447.23 570.12 474.26 563.28 Z" />
<path fill="#000000" opacity="1.00" d=" M 697.38 563.71 C 699.09 562.68 701.26 563.13 703.17 563.24 C 710.45 564.39 717.34 567.15 724.15 569.89 C 743.77 578.05 761.67 589.72 779.01 601.88 C 784.41 605.82 790.04 609.48 795.12 613.85 C 797.11 615.63 799.72 618.25 798.30 621.16 C 796.28 624.16 792.17 624.21 788.94 623.96 C 780.64 622.78 773.10 618.88 765.70 615.17 C 752.67 607.68 739.84 599.84 727.05 591.95 C 718.41 586.37 709.52 581.06 701.80 574.22 C 699.88 572.47 697.94 570.63 696.67 568.34 C 695.95 566.90 695.87 564.67 697.38 563.71 Z" />
<path fill="#000000" opacity="1.00" d=" M 502.89 644.77 C 508.68 639.85 516.90 641.27 523.48 643.59 C 531.57 646.45 537.07 654.44 537.81 662.86 C 539.25 677.71 536.69 692.57 534.12 707.16 C 529.76 731.02 523.70 754.52 518.04 778.10 C 510.03 812.78 503.21 847.74 498.05 882.96 C 493.34 914.47 489.81 946.35 491.34 978.25 C 493.26 977.78 495.16 977.05 496.39 975.43 C 501.33 969.73 506.47 964.17 510.83 958.00 C 519.39 944.29 526.20 929.59 533.20 915.05 C 541.04 898.94 548.69 882.73 556.49 866.61 C 558.88 857.73 560.43 848.63 562.79 839.74 C 564.58 833.33 567.64 827.39 570.37 821.36 C 571.95 817.82 575.17 814.83 579.13 814.37 C 584.67 813.63 590.60 814.56 595.42 817.48 C 598.75 819.38 599.81 823.38 600.10 826.95 C 601.12 840.43 597.10 853.50 594.27 866.52 C 590.15 884.95 586.28 903.43 582.49 921.92 C 580.41 933.51 578.32 945.29 579.13 957.11 C 579.56 958.16 578.92 960.94 580.78 960.55 C 589.64 952.68 594.66 941.67 600.71 931.70 C 610.52 912.75 618.96 893.13 627.79 873.71 C 629.65 869.12 632.25 864.79 633.43 859.95 C 640.35 826.11 651.67 793.26 665.78 761.77 C 677.43 735.21 691.33 709.40 709.86 686.96 C 716.62 678.42 724.68 670.84 733.99 665.12 C 741.12 660.46 749.94 658.18 758.40 659.75 C 765.91 661.34 773.48 664.62 778.86 670.21 C 785.21 679.28 784.56 691.09 783.97 701.64 C 792.89 686.56 803.52 672.35 816.53 660.55 C 823.11 654.74 830.32 649.25 838.82 646.64 C 851.34 642.75 865.47 644.67 876.70 651.34 C 885.79 657.26 887.95 668.93 888.71 678.97 C 888.89 695.20 884.75 711.29 877.87 725.93 C 871.40 739.77 865.16 753.83 856.61 766.55 C 844.94 784.28 832.93 801.88 819.11 818.02 C 804.69 834.58 788.91 850.14 771.12 863.06 C 768.80 864.95 769.04 868.21 768.43 870.87 C 766.41 881.91 763.76 892.85 762.52 904.02 C 767.65 895.93 772.72 887.80 777.69 879.62 C 786.35 864.66 798.10 851.54 811.61 840.80 C 818.62 835.19 829.62 833.41 837.04 839.21 C 842.80 843.81 842.69 852.20 840.69 858.65 C 837.92 866.37 833.23 873.66 826.38 878.35 C 816.72 885.23 806.70 891.58 796.90 898.24 C 803.58 902.17 806.96 909.77 808.91 916.97 C 812.38 933.41 812.16 950.31 813.90 966.97 C 814.38 970.78 815.53 974.83 818.40 977.55 C 820.29 979.36 823.31 978.82 825.15 977.22 C 831.54 972.09 835.75 964.93 839.91 958.02 C 855.60 931.33 865.62 901.92 877.41 873.43 C 879.49 868.84 880.66 863.74 883.70 859.66 C 885.77 857.07 889.33 858.40 891.98 859.14 C 890.83 866.26 888.05 872.98 885.89 879.83 C 878.90 899.86 870.07 919.18 861.64 938.63 C 855.22 952.94 848.80 967.56 838.74 979.76 C 833.97 985.52 826.17 987.23 819.05 987.70 C 810.06 988.29 800.87 984.90 794.66 978.33 C 787.23 970.75 783.84 960.29 782.00 950.07 C 779.47 936.65 778.92 922.89 775.86 909.56 C 773.53 911.30 773.10 914.40 771.82 916.86 C 766.80 927.50 762.96 938.64 758.55 949.55 C 757.24 952.56 757.68 956.61 754.61 958.62 C 751.19 960.86 747.02 962.41 742.89 961.88 C 738.73 961.30 735.91 957.71 733.63 954.51 C 730.63 950.24 730.70 944.86 730.13 939.90 C 729.07 929.44 728.43 918.94 728.40 908.44 C 720.26 924.05 712.11 939.97 700.32 953.21 C 695.39 958.68 690.12 963.91 684.14 968.22 C 671.38 976.95 652.63 977.77 640.44 967.61 C 631.90 960.40 629.14 948.91 627.39 938.37 C 625.38 926.00 625.19 913.38 626.55 900.93 C 620.71 914.38 615.03 927.90 609.14 941.33 C 604.72 950.12 599.79 958.88 593.03 966.10 C 582.64 976.35 563.22 973.85 556.13 960.98 C 549.70 948.23 547.00 933.81 547.01 919.60 C 541.29 931.48 536.38 943.75 530.53 955.58 C 523.87 967.30 515.70 978.75 504.43 986.45 C 492.49 994.65 473.14 990.49 467.80 976.37 C 463.98 964.62 462.32 952.23 461.75 939.91 C 460.32 917.54 462.04 895.14 463.84 872.84 C 467.03 835.32 475.97 798.64 484.47 762.06 C 490.74 736.62 496.62 711.09 502.40 685.54 C 503.78 678.92 505.73 672.41 506.81 665.73 C 505.84 666.42 504.87 667.14 504.17 668.13 C 493.58 682.29 483.88 697.16 475.83 712.93 C 453.44 756.69 435.51 802.56 418.54 848.64 C 412.46 864.92 407.09 881.47 400.61 897.60 C 395.51 910.09 390.89 922.96 383.10 934.08 C 380.69 937.00 376.82 938.52 373.07 938.21 C 367.76 937.76 361.83 937.07 357.96 932.99 C 354.35 929.24 354.14 923.76 352.99 918.97 C 350.70 908.79 350.86 898.29 351.28 887.93 C 352.06 871.09 354.64 854.38 358.27 837.93 C 363.94 812.04 369.61 786.14 375.29 760.25 C 379.43 740.79 384.18 721.41 386.92 701.70 C 375.81 715.07 366.00 729.54 357.97 744.97 C 329.71 798.16 311.79 855.89 291.25 912.28 C 289.45 916.16 288.22 920.30 286.13 924.04 C 283.36 927.95 277.83 926.28 274.06 925.00 C 268.01 922.68 267.43 915.41 266.66 909.91 C 263.90 893.75 265.05 877.30 266.02 861.04 C 269.91 807.50 280.23 754.54 294.91 702.95 C 297.18 695.25 299.48 687.47 303.33 680.38 C 304.96 677.00 306.22 672.50 310.44 671.60 C 317.49 670.45 324.92 673.06 330.21 677.76 C 333.10 680.39 331.97 684.55 331.29 687.88 C 321.88 736.52 312.06 785.10 304.21 834.03 C 311.08 818.40 316.95 802.36 323.53 786.61 C 331.40 767.76 338.47 748.48 348.85 730.81 C 359.43 711.78 373.01 694.63 387.47 678.43 C 389.38 676.39 392.32 675.66 395.04 676.00 C 401.82 676.60 409.16 678.93 413.17 684.82 C 417.25 690.71 416.66 698.21 417.18 705.02 C 418.34 725.26 414.94 745.39 411.18 765.20 C 404.55 798.64 396.43 831.76 389.14 865.06 C 388.36 869.07 386.90 872.99 386.97 877.14 C 387.81 875.57 388.63 874.00 389.27 872.35 C 403.70 832.99 419.00 793.93 435.52 755.40 C 448.37 725.82 461.48 695.93 480.92 669.97 C 487.55 661.01 493.41 651.10 502.89 644.77 M 852.29 663.23 C 842.99 670.69 835.75 680.39 829.30 690.32 C 807.40 725.00 794.47 764.33 783.45 803.57 C 779.77 817.02 776.00 830.49 773.95 844.31 C 785.68 834.26 797.24 823.94 807.59 812.46 C 818.82 800.32 826.97 785.86 836.22 772.25 C 848.68 752.93 861.36 733.38 868.69 711.42 C 873.68 697.22 876.31 681.26 871.24 666.71 C 869.76 663.45 868.39 659.39 864.91 657.83 C 860.26 658.12 855.86 660.32 852.29 663.23 M 747.32 688.47 C 736.31 701.38 728.05 716.31 720.31 731.32 C 711.73 747.70 703.60 764.33 696.30 781.32 C 686.08 805.63 676.72 830.47 671.68 856.43 C 674.72 856.06 677.35 854.41 679.94 852.92 C 689.61 846.90 698.42 839.55 706.35 831.40 C 727.81 808.83 744.62 781.96 756.01 753.00 C 761.81 737.53 767.69 721.71 768.74 705.07 C 769.45 694.12 768.88 682.31 762.45 672.97 C 756.26 676.92 752.06 683.03 747.32 688.47 M 716.91 836.84 C 707.85 845.52 699.30 855.21 687.90 860.91 C 681.75 864.28 674.91 865.97 668.35 868.28 C 666.05 885.21 662.56 901.99 661.54 919.07 C 660.29 931.80 660.47 944.71 662.74 957.31 C 663.43 960.04 664.69 963.75 668.01 964.01 C 673.08 963.55 677.03 959.88 680.94 956.95 C 688.88 950.51 695.75 942.76 701.23 934.13 C 712.62 916.54 722.37 897.91 730.62 878.66 C 731.66 874.54 731.87 870.26 732.63 866.10 C 735.94 843.67 741.28 821.62 746.82 799.66 C 738.16 813.03 728.34 825.70 716.91 836.84 M 807.87 857.99 C 800.14 866.75 792.87 876.14 788.14 886.90 C 793.59 883.09 798.98 879.19 804.43 875.37 C 813.09 869.53 818.93 860.40 823.00 850.94 C 823.93 848.98 823.73 846.77 823.77 844.68 C 817.49 847.76 812.56 852.91 807.87 857.99 Z" />
<path fill="#000000" opacity="1.00" d=" M 573.26 701.32 C 578.08 697.96 584.67 699.44 588.81 703.19 C 596.46 709.83 600.29 720.11 600.57 730.08 C 605.31 723.77 610.63 717.51 617.69 713.74 C 621.18 711.79 626.16 711.56 628.90 714.91 C 634.14 721.07 634.41 729.95 632.62 737.49 C 629.80 748.43 623.81 758.21 617.33 767.34 C 608.55 779.55 598.42 790.70 588.04 801.55 C 579.44 785.42 571.83 768.68 566.60 751.14 C 563.80 741.33 561.53 731.11 562.43 720.85 C 563.08 713.24 566.90 705.68 573.26 701.32 Z" />
</g>
</svg>
