<?xml version="1.0" encoding="UTF-8" ?>
<!DOCTYPE svg PUBLIC "-//W3C//DTD SVG 1.1//EN" "http://www.w3.org/Graphics/SVG/1.1/DTD/svg11.dtd">
<svg width="4000pt" height="4000pt" viewBox="0 0 4000 4000" version="1.1" xmlns="http://www.w3.org/2000/svg">
<g id="#000000ff">
<path fill="#000000" opacity="1.00" d=" M 1374.01 509.23 C 1381.44 508.87 1388.65 511.18 1396.04 511.54 C 1399.81 511.45 1403.22 513.44 1406.97 513.66 C 1415.20 514.59 1422.89 517.70 1430.94 519.48 C 1438.85 521.87 1446.95 523.93 1454.26 527.91 C 1461.42 530.48 1468.45 533.42 1475.49 536.31 C 1490.42 543.92 1504.90 552.53 1518.15 562.80 C 1524.06 566.78 1529.68 571.27 1534.60 576.45 C 1538.64 580.76 1543.89 583.73 1547.73 588.26 C 1551.57 592.73 1556.28 596.41 1559.78 601.19 C 1561.31 603.23 1563.23 604.95 1564.80 606.98 C 1568.50 612.86 1573.22 618.00 1577.87 623.14 C 1581.57 627.90 1583.62 633.66 1587.34 638.42 C 1591.17 645.21 1596.14 651.32 1598.94 658.68 C 1601.67 663.76 1603.56 669.31 1606.59 674.27 C 1609.13 681.00 1611.99 687.60 1615.35 693.96 C 1615.44 694.48 1615.60 695.52 1615.69 696.04 C 1616.24 697.31 1616.74 698.60 1617.27 699.91 C 1618.21 704.67 1619.71 709.30 1620.85 714.02 C 1621.31 715.66 1621.71 717.31 1622.20 718.96 C 1622.81 721.32 1623.15 723.78 1624.36 725.95 C 1624.45 726.47 1624.62 727.50 1624.71 728.02 C 1626.03 731.92 1626.41 736.12 1627.84 740.04 C 1628.66 743.56 1628.85 747.19 1629.66 750.73 C 1633.42 750.57 1636.44 748.05 1639.86 746.73 C 1640.54 746.37 1641.24 746.03 1641.97 745.70 C 1649.33 742.43 1656.79 739.32 1664.06 735.85 C 1666.52 735.33 1668.72 734.10 1671.05 733.16 C 1673.40 732.21 1675.70 731.15 1678.07 730.19 C 1681.66 728.65 1685.40 727.49 1688.95 725.80 C 1691.35 725.02 1693.72 724.09 1696.09 723.16 C 1697.00 722.82 1697.93 722.50 1698.89 722.19 C 1703.58 720.41 1708.39 718.91 1713.12 717.21 C 1716.34 715.85 1719.83 715.26 1722.97 713.67 C 1723.49 713.58 1724.52 713.41 1725.04 713.32 C 1730.28 711.33 1735.72 709.69 1741.17 708.29 C 1746.79 706.46 1752.48 704.85 1758.19 703.32 C 1759.79 702.79 1761.44 702.35 1763.10 701.89 C 1765.12 701.38 1767.15 700.84 1769.20 700.32 C 1771.79 699.44 1774.47 698.87 1777.17 698.32 C 1779.79 697.47 1782.50 696.91 1785.19 696.23 C 1786.49 695.87 1787.83 695.55 1789.19 695.26 C 1790.50 694.92 1791.84 694.61 1793.21 694.31 C 1796.16 693.52 1799.17 692.95 1802.17 692.31 C 1803.74 691.61 1805.47 691.52 1807.20 691.35 C 1810.71 690.26 1814.43 690.01 1818.02 689.14 C 1821.95 688.07 1826.07 687.96 1829.98 686.77 C 1830.98 686.62 1832.01 686.48 1833.06 686.34 C 1834.68 685.63 1836.45 685.51 1838.23 685.34 C 1840.14 684.62 1842.21 684.52 1844.26 684.34 C 1847.86 683.42 1851.54 682.83 1855.25 682.38 C 1860.42 681.31 1865.78 680.95 1871.06 680.30 C 1872.85 679.14 1875.04 679.65 1877.06 679.33 C 1883.30 678.05 1889.81 678.21 1895.99 676.71 C 1897.51 676.61 1899.04 676.58 1900.61 676.60 L 1900.62 675.72 C 1905.55 675.66 1910.48 675.42 1915.42 675.43 L 1915.59 674.58 C 1920.04 674.50 1924.52 674.72 1928.96 674.09 C 1935.53 672.85 1942.27 673.75 1948.87 672.65 C 1962.55 672.53 1976.24 672.55 1989.93 672.44 C 1997.32 672.14 2004.60 673.63 2011.99 673.41 C 2019.74 673.20 2027.28 675.66 2035.03 675.46 C 2038.81 675.50 2042.48 676.60 2046.29 676.66 C 2048.86 677.51 2051.60 677.35 2054.30 677.56 C 2058.31 679.37 2062.98 677.42 2066.96 679.29 C 2068.98 679.45 2071.01 679.50 2073.06 679.67 C 2075.14 680.99 2077.69 680.39 2080.03 680.72 C 2082.16 681.87 2084.64 681.47 2086.99 681.78 C 2091.18 683.19 2095.77 682.88 2099.94 684.31 C 2100.97 684.41 2102.07 684.52 2103.17 684.63 C 2105.93 685.93 2109.17 684.96 2111.94 686.31 C 2113.61 686.47 2115.31 686.62 2116.96 687.16 C 2119.66 687.91 2122.42 688.37 2125.23 688.67 C 2126.81 689.22 2128.49 689.42 2130.19 689.65 C 2131.75 690.34 2133.49 690.48 2135.22 690.69 C 2139.84 691.79 2144.59 692.42 2149.19 693.73 C 2150.49 694.07 2151.83 694.39 2153.21 694.71 C 2156.15 695.50 2159.18 696.00 2162.18 696.69 C 2163.44 697.10 2164.78 697.45 2166.14 697.77 C 2167.44 698.11 2168.79 698.43 2170.17 698.74 C 2175.72 700.33 2181.42 701.45 2186.91 703.25 C 2192.35 704.55 2197.68 706.27 2203.05 707.84 C 2205.32 708.63 2207.69 709.17 2210.04 709.83 C 2211.00 710.16 2211.99 710.50 2213.01 710.83 C 2222.14 713.49 2231.07 716.79 2240.10 719.76 C 2241.37 720.29 2242.62 720.78 2243.95 721.32 C 2244.46 721.42 2245.47 721.62 2245.97 721.73 C 2247.23 722.26 2248.51 722.77 2249.84 723.28 C 2251.58 723.77 2253.24 724.47 2254.91 725.26 C 2255.84 725.57 2256.81 725.90 2257.81 726.23 C 2259.28 726.71 2260.73 727.35 2262.12 728.13 C 2264.08 728.62 2265.98 729.33 2267.84 730.24 C 2274.21 732.91 2280.61 735.54 2287.02 738.16 C 2289.01 739.04 2290.98 739.98 2293.01 740.84 C 2295.68 742.00 2298.43 743.00 2300.94 744.53 C 2301.30 744.48 2302.01 744.39 2302.36 744.35 L 2302.59 745.30 C 2306.75 746.18 2310.02 749.43 2314.34 749.89 C 2314.48 750.44 2314.76 751.53 2314.90 752.08 C 2315.23 751.33 2315.89 749.84 2316.22 749.09 C 2316.50 748.01 2316.82 746.95 2317.18 745.89 C 2317.42 743.57 2316.95 741.02 2318.18 738.91 C 2318.29 738.36 2318.51 737.27 2318.61 736.72 C 2319.95 733.31 2319.76 729.50 2321.25 726.12 C 2322.77 721.82 2323.70 717.35 2324.82 712.93 C 2325.30 711.31 2325.71 709.67 2326.21 708.06 C 2327.22 704.39 2327.71 700.53 2329.34 697.06 C 2329.44 696.56 2329.65 695.55 2329.76 695.04 C 2330.22 694.02 2330.55 692.96 2330.75 691.86 C 2332.64 689.15 2333.86 686.09 2335.22 683.11 C 2335.71 681.38 2336.29 679.67 2337.29 678.15 C 2338.89 672.91 2341.89 668.25 2344.25 663.32 C 2344.83 660.31 2346.84 657.90 2347.94 655.09 C 2350.56 649.27 2354.52 644.26 2357.65 638.72 C 2361.56 633.70 2363.71 627.59 2367.69 622.62 C 2372.11 617.80 2376.51 612.89 2380.06 607.37 C 2388.73 596.77 2398.18 586.71 2408.84 578.08 C 2416.48 569.46 2426.33 563.44 2435.35 556.44 C 2446.39 549.18 2457.66 542.21 2469.52 536.33 C 2476.52 533.52 2483.43 530.46 2490.58 528.01 C 2500.71 522.54 2512.06 520.16 2523.06 517.13 C 2530.52 514.23 2538.67 514.15 2546.27 511.76 C 2552.91 511.46 2559.46 510.20 2566.05 509.27 C 2582.02 509.14 2598.01 509.18 2613.99 509.23 C 2616.30 509.22 2618.55 509.97 2620.86 510.27 C 2632.56 510.22 2643.98 513.35 2655.46 515.32 C 2659.80 515.80 2663.88 517.51 2668.15 518.41 C 2673.54 519.07 2678.49 521.49 2683.85 522.40 C 2687.26 522.88 2690.10 524.95 2693.31 526.06 C 2697.61 526.90 2701.29 529.52 2705.68 530.16 C 2715.85 534.30 2726.63 537.03 2736.25 542.46 C 2739.45 543.82 2742.04 546.33 2745.38 547.44 C 2751.16 549.25 2755.75 553.43 2761.26 555.86 C 2765.10 557.56 2768.13 560.67 2772.07 562.21 C 2781.38 567.56 2790.42 573.47 2798.90 580.13 C 2800.94 581.85 2803.53 582.77 2805.58 584.52 C 2810.46 588.66 2816.34 591.57 2820.56 596.49 C 2823.38 599.72 2826.95 602.12 2830.43 604.61 C 2834.97 608.69 2838.80 613.56 2843.69 617.29 C 2847.70 620.24 2850.41 624.52 2854.00 627.94 C 2859.18 633.09 2864.27 638.35 2869.00 643.94 C 2875.98 650.38 2880.70 658.80 2887.46 665.46 C 2890.29 669.07 2893.25 672.59 2895.84 676.40 C 2900.50 681.73 2903.37 688.32 2907.99 693.71 C 2911.71 697.83 2914.13 702.83 2916.81 707.66 C 2917.97 710.26 2920.27 712.16 2921.27 714.87 C 2923.26 719.05 2925.70 723.00 2927.83 727.12 C 2932.48 737.12 2938.30 746.53 2942.21 756.89 C 2946.10 764.24 2947.50 772.63 2951.79 779.78 C 2955.32 787.90 2957.84 796.43 2960.15 804.98 C 2960.71 807.34 2961.26 809.72 2962.15 812.01 C 2963.32 816.39 2964.42 820.82 2965.98 825.10 C 2968.66 829.94 2969.82 835.48 2969.72 841.00 C 2972.08 846.04 2971.69 851.79 2973.28 857.07 C 2975.91 871.52 2977.93 886.12 2978.85 900.79 C 2980.37 904.94 2979.00 909.58 2980.39 913.83 C 2980.87 931.54 2980.86 949.29 2980.20 967.01 C 2979.54 969.29 2979.56 971.68 2979.34 974.03 C 2977.70 977.07 2978.81 980.72 2978.28 984.01 C 2976.69 988.16 2977.28 992.80 2975.74 996.96 C 2976.10 1007.17 2972.12 1016.77 2971.10 1026.79 C 2970.55 1028.43 2970.09 1030.10 2969.71 1031.79 C 2969.40 1032.87 2969.13 1033.96 2968.88 1035.06 C 2968.47 1036.34 2968.06 1037.62 2967.65 1038.91 C 2967.47 1040.02 2967.35 1041.16 2967.29 1042.31 L 2966.77 1043.05 C 2965.22 1050.36 2963.03 1057.59 2960.48 1064.63 C 2958.17 1068.54 2957.12 1072.99 2955.18 1077.08 C 2954.82 1078.06 2954.51 1079.06 2954.26 1080.08 C 2953.71 1081.33 2953.26 1082.62 2952.79 1083.89 C 2952.12 1085.55 2951.41 1087.20 2950.75 1088.86 C 2950.11 1091.02 2949.05 1093.02 2948.23 1095.10 C 2947.69 1096.34 2947.25 1097.62 2946.80 1098.89 C 2946.20 1100.29 2945.54 1101.67 2944.85 1103.03 C 2942.82 1107.20 2939.52 1110.61 2937.70 1114.89 C 2936.63 1117.34 2935.21 1119.61 2934.29 1122.13 C 2932.88 1125.84 2929.84 1128.56 2928.29 1132.16 C 2926.44 1135.91 2924.28 1139.53 2921.50 1142.66 C 2916.06 1149.47 2911.89 1157.33 2905.55 1163.41 C 2896.46 1175.58 2885.05 1185.73 2874.43 1196.51 C 2868.01 1201.39 2862.17 1206.95 2855.80 1211.87 C 2849.05 1216.97 2841.66 1221.08 2834.63 1225.75 C 2830.48 1228.21 2825.93 1230.08 2822.26 1233.27 C 2821.13 1233.46 2820.05 1233.73 2819.03 1234.07 C 2813.12 1237.31 2806.98 1240.02 2800.84 1242.75 C 2799.81 1243.08 2798.81 1243.42 2797.85 1243.77 C 2796.20 1244.21 2794.56 1244.66 2793.15 1245.54 C 2792.84 1245.54 2792.23 1245.54 2791.93 1245.54 C 2789.58 1247.04 2786.70 1247.18 2784.22 1248.34 C 2782.84 1248.61 2781.51 1248.92 2780.23 1249.29 C 2776.68 1250.74 2772.83 1251.14 2769.22 1252.34 C 2765.97 1253.44 2762.48 1253.26 2759.27 1254.34 C 2757.89 1254.57 2756.57 1254.88 2755.33 1255.38 C 2750.98 1256.24 2746.62 1256.91 2742.19 1256.80 C 2739.21 1258.68 2735.35 1256.74 2732.31 1258.46 C 2726.66 1259.48 2720.69 1257.62 2715.26 1259.49 C 2709.67 1259.77 2704.07 1259.52 2698.49 1259.53 C 2698.60 1269.42 2701.43 1279.10 2701.54 1289.00 C 2701.50 1290.03 2701.74 1291.02 2702.27 1291.97 C 2702.07 1299.04 2703.80 1305.94 2703.54 1313.01 C 2703.33 1317.37 2704.59 1321.63 2704.46 1326.00 C 2704.69 1344.33 2704.85 1362.68 2704.20 1381.01 C 2702.68 1387.45 2704.17 1394.25 2702.73 1400.74 C 2702.15 1407.77 2701.73 1414.84 2700.68 1421.80 C 2699.31 1436.26 2697.14 1450.66 2694.73 1464.99 C 2694.17 1468.62 2693.68 1472.28 2692.69 1475.84 C 2692.46 1477.54 2692.27 1479.27 2691.74 1480.94 C 2691.12 1484.55 2690.56 1488.18 2689.74 1491.77 C 2689.38 1493.09 2689.05 1494.44 2688.77 1495.81 C 2688.47 1497.47 2688.18 1499.15 2687.73 1500.81 C 2687.14 1503.19 2686.64 1505.61 2686.21 1508.04 C 2684.32 1515.32 2682.61 1522.65 2680.81 1529.97 C 2679.52 1534.65 2678.12 1539.31 2676.87 1544.02 C 2676.28 1545.99 2675.72 1547.97 2675.14 1549.96 C 2674.67 1551.28 2674.24 1552.61 2673.84 1553.97 C 2672.86 1557.30 2671.84 1560.63 2670.80 1563.94 C 2668.20 1572.68 2665.25 1581.31 2662.26 1589.92 C 2661.50 1591.95 2660.93 1594.05 2660.30 1596.14 C 2659.19 1598.75 2658.19 1601.41 2657.26 1604.10 C 2656.40 1605.67 2655.75 1607.35 2655.26 1609.08 C 2654.40 1610.66 2653.78 1612.37 2653.28 1614.11 C 2651.76 1616.89 2651.24 1620.09 2649.76 1622.90 C 2633.79 1660.90 2613.50 1696.90 2591.50 1731.70 C 2582.93 1746.68 2575.29 1762.22 2565.55 1776.52 C 2544.62 1808.15 2519.09 1836.57 2491.05 1862.05 C 2486.51 1866.41 2481.84 1870.69 2476.69 1874.32 C 2510.35 1892.55 2543.29 1912.19 2574.58 1934.29 C 2634.11 1975.98 2688.54 2025.12 2735.19 2080.90 C 2778.77 2133.01 2815.46 2191.01 2842.77 2253.26 C 2874.23 2324.80 2892.98 2401.98 2897.07 2480.06 C 2901.75 2565.92 2888.84 2652.63 2859.62 2733.49 C 2835.66 2800.13 2800.94 2862.75 2758.21 2919.17 C 2715.56 2975.58 2664.97 3025.82 2609.17 3069.21 C 2551.42 3114.02 2488.11 3151.61 2421.38 3181.43 C 2346.15 3215.23 2266.60 3239.23 2185.42 3253.66 C 2085.49 3271.32 1983.06 3274.65 1882.18 3263.72 C 1797.87 3254.57 1714.59 3235.34 1635.07 3205.78 C 1566.43 3180.26 1500.56 3147.14 1439.61 3106.50 C 1379.70 3066.52 1324.51 3019.31 1276.70 2965.39 C 1231.07 2913.97 1192.20 2856.41 1162.70 2794.27 C 1128.66 2722.72 1107.32 2645.05 1101.07 2566.02 C 1093.35 2471.22 1107.19 2374.83 1140.92 2285.92 C 1177.71 2188.23 1237.64 2099.99 1311.65 2026.66 C 1366.98 1971.75 1430.16 1924.96 1498.01 1886.66 C 1499.45 1886.25 1498.27 1884.80 1497.55 1884.43 C 1473.26 1865.66 1450.52 1844.85 1429.90 1822.10 C 1410.79 1801.51 1394.67 1778.44 1378.20 1755.76 C 1352.52 1719.90 1329.64 1681.96 1310.79 1642.08 C 1308.14 1636.39 1305.51 1630.69 1302.75 1625.06 C 1301.86 1623.01 1300.94 1620.98 1300.22 1618.90 C 1299.17 1616.55 1298.07 1614.23 1297.26 1611.81 C 1296.50 1610.18 1295.83 1608.55 1295.22 1606.90 C 1294.27 1605.00 1293.66 1602.98 1292.76 1601.09 C 1292.22 1599.69 1291.72 1598.30 1291.23 1596.92 C 1289.53 1591.93 1287.71 1586.97 1285.59 1582.16 C 1285.53 1581.84 1285.41 1581.20 1285.35 1580.88 C 1282.44 1572.61 1279.61 1564.31 1277.20 1555.90 C 1273.38 1544.06 1269.99 1532.09 1266.84 1520.06 C 1266.53 1518.70 1266.16 1517.37 1265.75 1516.08 C 1265.45 1514.43 1265.15 1512.80 1264.72 1511.22 C 1264.37 1509.86 1264.04 1508.51 1263.73 1507.19 C 1263.39 1505.84 1263.05 1504.51 1262.74 1503.20 C 1262.44 1501.81 1262.10 1500.45 1261.72 1499.13 C 1260.89 1494.69 1260.06 1490.24 1258.80 1485.91 C 1258.36 1481.97 1257.59 1478.10 1256.67 1474.26 C 1256.40 1472.55 1256.12 1470.86 1255.75 1469.21 C 1255.46 1467.52 1255.11 1465.84 1254.72 1464.21 C 1254.51 1462.45 1254.50 1460.63 1253.77 1459.01 C 1253.05 1452.37 1251.88 1445.76 1250.66 1439.22 C 1248.93 1424.56 1246.79 1409.97 1246.06 1395.22 C 1244.56 1390.02 1246.13 1384.47 1244.64 1379.27 C 1244.07 1363.53 1244.14 1347.76 1244.27 1332.01 C 1244.52 1322.31 1244.00 1312.53 1245.44 1302.91 C 1245.62 1299.92 1245.48 1296.93 1245.77 1293.97 C 1247.25 1288.08 1247.34 1281.95 1247.68 1275.92 C 1248.63 1273.31 1248.41 1270.50 1248.69 1267.79 C 1249.49 1265.43 1249.45 1262.93 1249.50 1260.49 C 1243.98 1260.43 1238.46 1260.67 1232.95 1260.44 C 1227.60 1258.35 1221.57 1260.63 1216.04 1259.24 C 1213.11 1258.32 1210.03 1258.63 1207.03 1258.44 C 1204.22 1256.86 1200.87 1257.83 1197.83 1257.50 C 1196.44 1256.25 1194.48 1256.67 1192.82 1256.41 C 1191.55 1255.73 1190.15 1255.55 1188.81 1255.32 C 1185.87 1254.29 1182.78 1253.92 1179.76 1253.35 C 1178.41 1252.94 1177.05 1252.60 1175.71 1252.31 C 1170.65 1251.34 1165.91 1249.30 1160.87 1248.28 C 1159.84 1247.87 1158.81 1247.54 1157.78 1247.29 C 1153.61 1245.55 1149.22 1244.46 1145.06 1242.75 C 1139.40 1240.25 1133.52 1238.08 1128.25 1234.78 C 1123.95 1234.12 1120.87 1230.89 1117.03 1229.18 C 1110.23 1225.92 1104.26 1221.25 1097.63 1217.69 C 1089.61 1212.54 1082.42 1206.26 1075.07 1200.24 C 1071.11 1197.51 1068.00 1193.82 1064.55 1190.54 C 1058.14 1184.92 1052.55 1178.47 1046.51 1172.47 C 1043.31 1169.55 1041.60 1165.44 1038.46 1162.49 C 1034.21 1158.56 1031.38 1153.44 1027.93 1148.86 C 1024.55 1143.93 1020.40 1139.50 1017.75 1134.09 C 1016.58 1130.26 1013.23 1127.74 1011.75 1124.08 C 1010.29 1120.49 1008.40 1117.11 1006.76 1113.62 C 1003.96 1108.82 1000.24 1104.49 998.49 1099.14 C 997.31 1095.25 994.87 1091.86 994.17 1087.83 C 992.87 1085.65 991.99 1083.28 991.23 1080.89 C 990.89 1079.86 990.56 1078.85 990.25 1077.85 C 989.47 1076.22 988.77 1074.58 988.20 1072.90 C 987.09 1068.77 984.42 1065.30 983.38 1061.17 C 982.14 1057.49 981.05 1053.77 980.18 1050.01 C 978.01 1045.24 977.91 1039.86 976.20 1034.93 C 975.68 1032.99 975.21 1031.06 974.68 1029.16 C 974.20 1026.41 973.78 1023.67 973.25 1020.95 C 972.05 1017.46 971.41 1013.82 971.11 1010.17 C 970.22 1007.60 969.47 1004.94 969.54 1002.21 C 969.52 993.68 966.40 985.49 966.47 976.97 C 966.40 975.91 966.13 974.91 965.66 973.97 C 964.89 969.41 965.94 964.70 964.66 960.23 C 964.39 948.16 963.90 936.06 964.54 924.00 C 964.67 919.83 964.00 915.59 965.08 911.50 C 966.00 908.00 964.58 904.17 966.18 900.85 C 966.98 887.16 969.00 873.52 971.20 860.01 C 971.37 858.95 971.54 857.91 971.72 856.87 C 972.20 854.86 972.60 852.85 973.09 850.85 C 973.49 847.51 973.74 844.09 975.30 841.04 C 975.27 835.54 976.24 829.81 979.26 825.12 C 979.38 824.58 979.62 823.49 979.74 822.95 C 981.23 819.09 981.91 814.97 983.31 811.08 C 983.42 810.56 983.65 809.50 983.76 808.98 C 986.88 798.44 989.39 787.61 994.37 777.75 C 996.83 774.21 997.29 769.81 999.28 766.04 C 999.38 765.51 999.57 764.46 999.66 763.93 C 1001.10 760.95 1002.61 757.99 1003.77 754.88 C 1007.66 745.00 1013.29 736.00 1017.77 726.41 C 1021.27 720.30 1024.15 713.83 1028.23 708.07 C 1030.82 702.88 1033.63 697.80 1037.37 693.33 C 1041.73 688.15 1044.54 681.88 1048.97 676.76 C 1053.35 670.67 1058.03 664.83 1063.19 659.38 C 1065.95 655.78 1068.77 652.22 1071.57 648.65 C 1079.62 640.33 1087.18 631.55 1095.45 623.43 C 1099.93 618.25 1105.63 614.32 1110.29 609.32 C 1113.94 604.20 1120.10 601.86 1124.05 597.00 C 1128.51 591.66 1134.98 588.75 1140.13 584.21 C 1147.03 580.36 1152.84 574.94 1159.53 570.77 C 1166.14 565.89 1173.73 562.62 1180.44 557.90 C 1184.79 555.51 1189.27 553.32 1193.36 550.48 C 1196.68 548.16 1200.88 547.64 1204.14 545.22 C 1210.36 541.26 1217.20 538.50 1224.01 535.73 C 1224.53 535.63 1225.57 535.42 1226.09 535.31 C 1230.46 533.59 1234.87 531.99 1239.23 530.23 C 1244.01 529.40 1248.14 526.74 1252.88 525.74 C 1258.92 522.14 1266.08 521.73 1272.57 519.28 C 1277.80 518.51 1282.78 516.67 1287.95 515.61 C 1292.68 515.16 1297.21 513.66 1301.89 512.87 C 1309.29 511.98 1316.56 509.88 1324.08 510.29 C 1330.61 508.65 1337.37 509.38 1344.04 509.20 C 1354.03 509.13 1364.01 509.23 1374.01 509.23 M 1961.53 2100.86 C 1907.05 2103.50 1852.83 2112.23 1800.44 2127.44 C 1726.34 2148.87 1655.49 2182.98 1594.74 2230.76 C 1542.44 2271.88 1497.25 2323.43 1469.19 2384.14 C 1451.21 2422.86 1440.85 2465.23 1440.01 2507.96 C 1439.10 2546.88 1446.02 2585.89 1459.74 2622.29 C 1472.77 2657.00 1491.73 2689.34 1514.51 2718.54 C 1557.96 2773.96 1614.55 2818.22 1676.38 2851.44 C 1750.23 2890.82 1831.87 2914.94 1914.93 2924.39 C 2006.40 2934.58 2099.95 2928.34 2188.75 2903.78 C 2260.18 2884.00 2328.79 2852.66 2388.58 2808.62 C 2443.34 2768.37 2491.24 2717.34 2522.20 2656.45 C 2541.26 2619.06 2553.36 2577.98 2556.29 2536.06 C 2559.10 2497.44 2554.27 2458.31 2542.39 2421.47 C 2531.62 2387.78 2515.10 2356.07 2494.84 2327.14 C 2473.52 2296.73 2447.97 2269.39 2419.81 2245.22 C 2364.54 2197.64 2299.42 2162.19 2230.66 2138.30 C 2144.57 2108.22 2052.50 2096.35 1961.53 2100.86 Z" />
</g>
</svg>
