<?xml version="1.0" encoding="UTF-8" ?>
<!DOCTYPE svg PUBLIC "-//W3C//DTD SVG 1.1//EN" "http://www.w3.org/Graphics/SVG/1.1/DTD/svg11.dtd">
<svg width="4000pt" height="4000pt" viewBox="0 0 4000 4000" version="1.1" xmlns="http://www.w3.org/2000/svg">
<g id="#000000ff">
<path fill="#000000" opacity="1.00" d=" M 1902.00 549.10 C 1981.53 533.21 2065.10 538.26 2142.15 563.56 C 2200.29 582.57 2254.61 612.68 2302.42 650.75 C 2382.19 714.17 2443.96 798.66 2485.47 891.40 C 2519.67 967.71 2540.45 1049.88 2547.83 1133.13 C 2555.70 1221.40 2548.90 1311.03 2527.17 1396.97 C 2508.77 1469.47 2479.56 1539.34 2439.64 1602.66 C 2404.73 1658.04 2361.54 1708.37 2311.04 1750.11 C 2269.51 1784.41 2222.99 1812.83 2173.00 1832.98 C 2155.59 1840.27 2137.51 1845.76 2119.53 1851.38 C 2119.61 1863.56 2119.38 1875.75 2119.36 1887.94 C 2119.24 1894.62 2119.58 1901.33 2118.72 1907.99 C 2118.56 1933.91 2118.32 1959.83 2118.25 1985.75 C 2122.56 1981.93 2126.36 1977.57 2130.68 1973.78 C 2142.19 1964.62 2152.77 1954.40 2164.31 1945.29 C 2168.17 1942.51 2171.09 1938.67 2174.99 1935.93 C 2181.44 1930.67 2187.98 1925.49 2195.06 1921.08 C 2204.16 1914.51 2213.48 1908.24 2222.62 1901.71 C 2231.61 1896.48 2239.76 1889.91 2248.99 1885.08 C 2253.85 1882.47 2258.35 1879.16 2263.62 1877.40 C 2268.14 1875.62 2272.07 1872.71 2276.44 1870.66 C 2285.73 1867.14 2294.35 1862.13 2303.71 1858.77 C 2323.36 1850.38 2344.27 1845.65 2365.04 1840.93 C 2375.64 1839.02 2386.26 1837.21 2396.96 1836.00 C 2409.99 1835.88 2423.02 1835.77 2436.06 1836.01 C 2462.80 1839.19 2489.62 1844.66 2514.28 1855.84 C 2532.43 1863.11 2548.80 1874.00 2564.48 1885.56 C 2571.08 1890.22 2576.62 1896.10 2582.90 1901.16 C 2590.38 1908.34 2597.13 1916.22 2603.88 1924.09 C 2610.38 1931.64 2616.48 1939.55 2621.89 1947.95 C 2627.95 1957.32 2634.66 1966.31 2639.85 1976.22 C 2647.70 1993.00 2655.43 2009.97 2660.35 2027.90 C 2664.25 2041.33 2666.82 2055.12 2668.92 2068.95 C 2669.93 2088.53 2670.63 2108.35 2667.67 2127.80 C 2665.03 2141.29 2662.13 2154.80 2657.71 2167.84 C 2655.16 2177.80 2650.13 2186.80 2646.17 2196.22 C 2638.66 2211.99 2629.52 2226.97 2618.47 2240.51 C 2612.11 2248.77 2605.05 2256.44 2598.37 2264.43 C 2591.40 2271.10 2585.04 2278.45 2577.42 2284.39 C 2570.39 2291.20 2562.51 2297.01 2554.55 2302.66 C 2538.96 2315.13 2522.08 2325.83 2504.80 2335.77 C 2496.76 2339.75 2488.82 2343.93 2480.74 2347.82 C 2472.21 2351.41 2464.06 2355.83 2455.73 2359.84 C 2435.32 2367.54 2414.98 2375.51 2394.08 2381.80 C 2360.52 2390.72 2326.46 2397.90 2292.10 2402.93 C 2285.31 2403.36 2278.77 2405.41 2272.01 2405.98 C 2267.23 2405.99 2262.58 2407.24 2257.81 2407.20 C 2251.92 2408.44 2245.89 2407.92 2239.94 2408.20 C 2230.94 2408.47 2221.95 2408.70 2212.95 2408.85 C 2230.08 2427.80 2247.77 2446.22 2265.08 2465.00 C 2272.51 2472.26 2279.21 2480.24 2286.65 2487.51 C 2300.94 2502.15 2314.85 2517.17 2329.46 2531.50 C 2368.98 2571.68 2409.34 2611.03 2450.99 2648.97 C 2480.27 2675.51 2510.02 2701.56 2541.15 2725.94 C 2547.70 2732.11 2556.58 2736.04 2561.14 2744.12 C 2562.44 2747.48 2561.69 2751.66 2559.11 2754.29 C 2555.42 2754.88 2551.79 2756.30 2548.06 2756.14 C 2524.13 2750.87 2500.31 2745.09 2476.40 2739.74 C 2433.90 2730.24 2391.58 2719.95 2349.05 2710.56 C 2337.12 2707.57 2325.03 2705.28 2313.14 2702.14 C 2313.96 2710.54 2316.44 2718.71 2317.73 2727.07 C 2327.70 2775.36 2337.33 2823.73 2347.16 2872.05 C 2347.42 2873.38 2347.61 2874.84 2347.77 2876.28 C 2347.93 2875.70 2348.25 2874.53 2348.41 2873.94 C 2347.72 2879.78 2350.47 2885.21 2350.83 2890.98 C 2352.08 2896.34 2353.46 2901.73 2353.80 2907.27 C 2353.91 2906.10 2354.06 2904.97 2354.25 2903.88 C 2354.44 2907.67 2355.25 2911.75 2353.15 2915.22 C 2349.06 2917.04 2344.35 2918.59 2340.00 2916.71 C 2335.62 2914.93 2330.70 2913.35 2327.86 2909.34 C 2252.07 2816.56 2181.09 2719.88 2115.19 2619.83 C 2113.47 2616.77 2110.93 2614.20 2109.71 2610.89 C 2109.39 2626.26 2109.37 2641.63 2109.37 2657.01 C 2109.33 2659.66 2108.51 2662.28 2108.68 2664.98 C 2108.75 2688.66 2108.30 2712.33 2108.34 2736.01 C 2107.16 2746.60 2107.78 2757.29 2107.54 2767.94 C 2107.31 2782.95 2107.93 2798.02 2106.68 2812.99 C 2106.68 2835.04 2106.38 2857.09 2106.37 2879.14 C 2105.16 2888.76 2105.84 2898.49 2105.63 2908.18 C 2142.55 2922.53 2176.27 2944.73 2204.38 2972.61 C 2228.91 2996.84 2249.26 3025.17 2265.17 3055.72 C 2305.34 3133.59 2316.06 3225.83 2296.46 3311.10 C 2287.53 3350.75 2272.02 3388.98 2250.20 3423.29 C 2229.77 3455.52 2203.84 3484.39 2173.23 3507.24 C 2143.17 3529.77 2108.61 3546.53 2071.95 3554.97 C 2030.71 3564.91 1987.04 3564.22 1946.09 3553.25 C 1907.62 3543.25 1871.76 3524.10 1841.13 3498.89 C 1812.26 3475.20 1788.03 3446.05 1769.08 3413.92 C 1748.94 3379.99 1734.95 3342.54 1726.97 3303.92 C 1709.40 3219.96 1721.02 3129.86 1760.84 3053.73 C 1778.75 3020.02 1802.00 2988.95 1830.42 2963.37 C 1853.53 2942.37 1880.02 2925.09 1908.66 2912.62 C 1908.56 2904.72 1908.28 2896.83 1908.23 2888.95 C 1908.37 2885.01 1907.17 2881.19 1907.41 2877.28 C 1907.21 2870.93 1907.61 2864.55 1906.69 2858.26 C 1906.12 2850.61 1906.79 2842.89 1905.66 2835.29 C 1905.37 2828.86 1905.49 2822.43 1905.30 2816.01 C 1905.58 2809.63 1904.06 2803.38 1904.41 2797.01 C 1904.66 2788.61 1903.28 2780.32 1903.42 2771.95 C 1903.17 2766.07 1903.59 2760.17 1902.63 2754.37 C 1902.06 2745.03 1902.78 2735.62 1901.58 2726.34 C 1901.15 2717.42 1901.79 2708.44 1900.51 2699.59 C 1900.77 2691.34 1899.31 2683.21 1899.54 2674.98 C 1899.68 2663.26 1898.20 2651.65 1898.39 2639.95 C 1896.98 2626.57 1897.75 2613.07 1897.03 2599.65 C 1896.90 2600.33 1896.63 2601.70 1896.49 2602.38 C 1894.96 2602.30 1894.56 2603.73 1893.97 2604.84 C 1827.11 2710.59 1754.54 2812.73 1676.74 2910.72 C 1673.96 2913.80 1669.82 2915.14 1666.08 2916.69 C 1662.01 2918.44 1657.40 2917.36 1653.70 2915.30 C 1649.23 2910.29 1653.80 2903.71 1653.85 2898.02 C 1662.22 2855.78 1670.72 2813.53 1678.92 2771.25 C 1683.48 2748.26 1687.76 2725.21 1692.58 2702.27 C 1674.39 2706.49 1656.14 2710.57 1638.03 2715.13 C 1618.30 2719.56 1598.61 2724.17 1579.03 2729.16 C 1558.29 2733.70 1537.71 2738.91 1516.99 2743.57 C 1506.71 2746.28 1496.26 2748.29 1486.02 2751.12 C 1479.30 2752.48 1472.63 2754.03 1466.01 2755.74 C 1462.30 2756.96 1458.60 2755.25 1454.94 2754.72 C 1451.30 2754.18 1450.76 2749.92 1450.43 2746.98 C 1450.21 2744.90 1451.67 2743.28 1452.72 2741.71 C 1456.05 2736.70 1461.52 2733.81 1465.89 2729.85 C 1472.06 2724.33 1478.76 2719.46 1485.06 2714.12 C 1543.53 2664.89 1598.34 2611.52 1651.80 2556.95 C 1690.62 2517.02 1728.71 2476.36 1765.97 2434.98 C 1770.69 2430.29 1774.66 2424.92 1779.52 2420.38 C 1771.35 2420.18 1763.18 2420.06 1755.02 2420.05 C 1749.30 2420.33 1743.73 2418.46 1738.00 2419.05 C 1716.27 2417.31 1694.57 2414.38 1673.02 2410.81 C 1633.70 2403.41 1594.91 2393.26 1556.82 2381.07 C 1546.16 2376.14 1534.90 2372.66 1524.29 2367.66 C 1516.81 2364.16 1509.18 2361.01 1501.87 2357.17 C 1485.28 2347.78 1468.00 2339.51 1452.24 2328.74 C 1434.12 2316.11 1416.63 2302.55 1400.13 2287.88 C 1392.17 2280.13 1384.46 2272.14 1377.39 2263.59 C 1369.86 2253.49 1361.60 2243.92 1354.67 2233.38 C 1349.22 2225.49 1344.65 2217.03 1340.49 2208.42 C 1334.70 2195.20 1328.36 2182.11 1324.93 2168.04 C 1321.19 2152.57 1316.85 2137.01 1316.62 2120.99 C 1316.12 2110.98 1316.05 2100.94 1316.54 2090.93 C 1316.89 2085.65 1316.66 2080.32 1317.84 2075.15 C 1320.20 2058.51 1324.31 2042.14 1329.39 2026.15 C 1334.91 2012.35 1340.29 1998.46 1347.16 1985.27 C 1354.53 1972.54 1362.66 1960.26 1371.41 1948.43 C 1376.75 1941.45 1381.56 1934.00 1388.10 1928.05 C 1392.98 1921.97 1398.57 1916.53 1404.21 1911.16 C 1407.84 1908.51 1410.86 1905.18 1414.18 1902.17 C 1426.07 1892.90 1438.04 1883.61 1451.21 1876.19 C 1467.46 1867.76 1484.50 1860.66 1502.30 1856.24 C 1518.87 1851.64 1535.87 1848.53 1552.98 1846.95 C 1569.71 1846.65 1586.51 1846.47 1603.06 1849.09 C 1637.39 1854.45 1671.15 1863.65 1703.40 1876.53 C 1712.46 1880.83 1721.89 1884.38 1730.76 1889.16 C 1752.48 1899.96 1773.04 1912.91 1794.01 1925.08 C 1801.39 1929.93 1808.70 1934.89 1815.75 1940.22 C 1831.57 1950.53 1846.14 1962.58 1861.58 1973.42 C 1865.27 1976.34 1868.97 1979.25 1872.58 1982.28 C 1872.90 1976.15 1871.52 1970.12 1871.75 1964.00 C 1871.46 1957.00 1871.88 1949.97 1870.88 1943.03 C 1870.34 1931.65 1871.03 1920.19 1869.68 1908.88 C 1869.31 1900.24 1869.84 1891.55 1868.69 1882.98 C 1868.56 1877.29 1868.47 1871.60 1868.40 1865.93 C 1868.55 1860.79 1867.24 1855.75 1867.56 1850.62 C 1817.00 1836.42 1768.82 1814.01 1725.06 1785.02 C 1672.05 1749.97 1625.45 1705.59 1586.43 1655.52 C 1545.71 1603.19 1513.20 1544.62 1489.22 1482.85 C 1459.68 1406.64 1443.04 1325.57 1439.00 1243.98 C 1434.41 1152.28 1445.52 1059.66 1473.02 972.00 C 1495.15 901.16 1527.98 833.53 1571.15 773.11 C 1608.95 720.14 1654.87 672.77 1707.74 634.73 C 1765.56 593.07 1831.97 562.93 1902.00 549.10 M 2386.97 2034.81 C 2363.83 2042.47 2341.82 2053.28 2321.14 2066.13 C 2316.32 2069.88 2310.52 2072.01 2305.71 2075.76 C 2298.09 2080.72 2290.89 2086.27 2283.36 2091.36 C 2276.86 2095.73 2271.25 2101.25 2264.92 2105.85 C 2256.64 2112.23 2247.63 2117.76 2240.36 2125.36 C 2235.90 2128.52 2232.42 2132.78 2228.04 2136.02 C 2225.20 2138.20 2223.01 2141.10 2220.09 2143.19 C 2215.87 2146.25 2212.81 2150.62 2208.54 2153.62 C 2202.75 2157.34 2198.38 2162.75 2193.38 2167.40 C 2189.40 2171.77 2184.39 2175.02 2180.40 2179.39 C 2173.54 2185.87 2167.33 2193.08 2160.02 2199.07 C 2153.31 2206.78 2146.00 2214.02 2138.48 2220.96 C 2144.97 2220.77 2151.53 2220.63 2157.96 2221.80 C 2172.98 2222.06 2188.01 2221.93 2203.03 2221.90 C 2206.72 2222.01 2210.30 2220.84 2214.00 2220.94 C 2227.29 2221.19 2240.42 2218.96 2253.58 2217.43 C 2274.33 2215.46 2294.82 2211.29 2315.09 2206.46 C 2321.53 2204.08 2328.26 2202.74 2334.84 2200.80 C 2340.66 2198.92 2346.40 2196.77 2352.34 2195.27 C 2363.02 2191.25 2373.76 2187.30 2384.09 2182.40 C 2392.93 2179.20 2401.21 2174.68 2409.61 2170.48 C 2427.00 2161.32 2442.79 2149.42 2457.58 2136.56 C 2462.86 2129.90 2469.50 2124.27 2473.46 2116.61 C 2476.18 2111.01 2479.66 2105.43 2479.87 2099.03 C 2480.49 2089.55 2477.56 2080.17 2472.82 2072.05 C 2467.86 2061.36 2460.65 2051.92 2452.63 2043.39 C 2446.36 2036.48 2437.43 2032.09 2428.17 2031.16 C 2414.36 2030.63 2400.31 2030.75 2386.97 2034.81 M 1548.22 2043.13 C 1541.81 2045.92 1536.05 2050.11 1531.53 2055.44 C 1528.36 2059.59 1524.48 2063.14 1521.62 2067.54 C 1516.87 2074.44 1512.93 2081.90 1509.67 2089.62 C 1506.09 2097.47 1505.01 2106.57 1507.05 2114.99 C 1511.09 2125.88 1517.35 2136.10 1525.88 2144.07 C 1529.23 2147.77 1533.58 2150.36 1536.89 2154.13 C 1552.13 2167.34 1569.85 2177.27 1587.85 2186.17 C 1599.78 2190.78 1611.38 2196.16 1623.31 2200.78 C 1629.50 2202.99 1635.81 2204.85 1641.91 2207.36 C 1665.33 2215.13 1689.69 2219.64 1714.08 2223.08 C 1723.00 2224.42 1732.02 2224.65 1740.95 2225.92 C 1746.68 2225.69 1752.26 2227.53 1758.03 2226.96 C 1763.41 2226.44 1768.62 2228.31 1774.00 2227.96 C 1783.65 2227.95 1793.31 2227.95 1802.97 2227.96 C 1808.69 2228.23 1814.27 2226.36 1820.03 2226.97 C 1832.15 2226.59 1844.17 2224.66 1856.28 2223.88 C 1851.01 2220.48 1846.48 2216.19 1841.69 2212.23 C 1835.31 2205.00 1828.63 2197.92 1821.12 2191.86 C 1814.71 2185.53 1808.46 2179.04 1801.94 2172.84 C 1795.50 2168.05 1790.52 2161.65 1784.09 2156.85 C 1773.51 2148.49 1763.75 2139.20 1753.18 2130.83 C 1745.65 2124.99 1738.54 2118.57 1730.43 2113.53 C 1722.98 2108.39 1715.64 2103.09 1708.46 2097.58 C 1698.89 2091.01 1688.98 2084.96 1679.19 2078.73 C 1672.41 2074.31 1664.75 2071.48 1657.92 2067.16 C 1647.05 2062.05 1636.68 2055.81 1625.30 2051.88 C 1612.96 2046.87 1600.40 2041.79 1587.08 2040.24 C 1582.03 2040.21 1577.09 2038.83 1572.04 2039.11 C 1563.99 2039.07 1555.40 2038.91 1548.22 2043.13 M 1999.56 3052.74 C 1983.59 3054.72 1968.37 3061.07 1954.97 3069.84 C 1925.44 3089.24 1904.69 3119.79 1892.69 3152.64 C 1878.01 3192.85 1876.17 3237.45 1886.15 3279.00 C 1895.59 3316.55 1915.22 3352.72 1946.15 3376.79 C 1959.08 3387.02 1974.10 3394.75 1990.17 3398.61 C 2009.89 3403.01 2031.02 3401.60 2049.73 3393.82 C 2067.27 3386.82 2082.63 3375.17 2095.58 3361.57 C 2120.64 3334.44 2136.08 3299.26 2142.11 3263.03 C 2148.80 3221.73 2144.33 3178.26 2127.15 3139.95 C 2113.54 3109.04 2091.28 3081.07 2061.37 3064.65 C 2042.69 3054.28 2020.77 3049.88 1999.56 3052.74 Z" />
</g>
</svg>
