<?xml version="1.0" encoding="UTF-8" ?>
<!DOCTYPE svg PUBLIC "-//W3C//DTD SVG 1.1//EN" "http://www.w3.org/Graphics/SVG/1.1/DTD/svg11.dtd">
<svg width="4000pt" height="4000pt" viewBox="0 0 4000 4000" version="1.1" xmlns="http://www.w3.org/2000/svg">
<g id="#000000ff">
<path fill="#000000" opacity="1.00" d=" M 1763.38 606.32 C 1832.12 570.25 1909.28 550.10 1986.96 549.07 C 2062.71 547.79 2138.55 564.59 2206.97 597.04 C 2262.87 623.42 2313.88 659.72 2358.20 702.73 C 2424.23 766.81 2475.57 845.28 2511.11 929.98 C 2544.26 1008.99 2563.81 1093.54 2569.90 1178.97 C 2576.32 1270.20 2567.90 1362.57 2543.95 1450.87 C 2524.10 1523.84 2493.65 1594.06 2452.63 1657.64 C 2415.22 1715.57 2369.06 1768.06 2315.08 1811.08 C 2257.14 1857.33 2189.95 1892.44 2118.08 1911.12 C 2144.44 1934.17 2163.12 1966.32 2168.29 2001.10 C 2173.81 2035.55 2165.88 2071.73 2147.10 2101.06 C 2133.85 2122.02 2115.39 2139.43 2094.34 2152.42 C 2094.29 2154.75 2094.28 2157.10 2094.30 2159.46 C 2123.10 2177.68 2146.14 2205.49 2156.93 2237.97 C 2168.35 2271.77 2165.79 2309.95 2150.01 2341.94 C 2137.30 2368.15 2116.46 2390.07 2091.67 2405.21 C 2091.60 2406.76 2091.57 2408.33 2091.58 2409.95 C 2121.05 2426.48 2145.22 2452.95 2157.28 2484.68 C 2170.38 2518.58 2168.60 2557.84 2152.44 2590.41 C 2140.15 2615.76 2119.97 2636.96 2095.94 2651.50 C 2123.82 2668.75 2146.00 2695.62 2155.94 2727.02 C 2167.22 2761.82 2162.50 2801.29 2143.49 2832.53 C 2137.97 2841.76 2131.36 2850.32 2123.90 2858.07 C 2157.12 2873.27 2187.11 2895.27 2212.11 2921.86 C 2239.77 2951.22 2261.52 2986.00 2276.66 3023.35 C 2292.51 3062.61 2301.26 3104.71 2302.76 3147.02 C 2305.53 3225.60 2283.09 3305.67 2236.23 3369.20 C 2215.03 3398.04 2188.84 3423.33 2158.74 3442.76 C 2125.84 3464.30 2088.04 3478.25 2049.01 3483.10 C 2008.96 3488.18 1967.83 3482.92 1930.02 3468.92 C 1892.91 3455.09 1859.24 3432.64 1831.25 3404.71 C 1805.75 3379.26 1784.97 3349.24 1769.27 3316.86 C 1732.27 3239.80 1724.20 3149.52 1745.97 3066.92 C 1756.04 3027.76 1773.02 2990.34 1796.20 2957.20 C 1824.00 2917.25 1861.34 2883.66 1905.02 2861.94 C 1879.72 2837.96 1863.57 2804.03 1863.06 2768.97 C 1861.97 2734.51 1876.02 2700.38 1899.65 2675.51 C 1907.48 2667.16 1916.39 2659.87 1925.89 2653.50 C 1925.40 2651.35 1923.30 2650.42 1921.66 2649.34 C 1891.46 2630.20 1868.04 2599.86 1859.21 2565.03 C 1850.13 2530.62 1855.99 2492.75 1874.62 2462.47 C 1885.65 2444.27 1900.82 2428.66 1918.43 2416.74 C 1918.44 2414.09 1918.41 2411.45 1918.39 2408.84 C 1889.08 2392.41 1864.45 2366.97 1851.22 2335.89 C 1836.41 2301.87 1836.31 2261.86 1850.94 2227.77 C 1862.98 2199.22 1884.57 2175.17 1910.73 2158.77 C 1910.66 2157.01 1910.61 2155.28 1910.57 2153.58 C 1883.43 2137.40 1860.51 2113.65 1847.02 2084.93 C 1829.98 2049.60 1828.39 2007.22 1842.85 1970.74 C 1851.21 1949.08 1864.87 1929.60 1881.88 1913.86 C 1834.76 1902.73 1789.37 1884.56 1747.26 1860.72 C 1701.59 1834.89 1659.81 1802.38 1622.77 1765.27 C 1579.62 1721.93 1542.88 1672.35 1513.14 1618.95 C 1474.44 1549.53 1447.48 1473.75 1432.19 1395.80 C 1414.31 1304.13 1412.21 1209.40 1425.90 1117.01 C 1437.06 1041.82 1459.00 968.17 1491.52 899.43 C 1520.45 838.41 1557.79 781.23 1603.26 731.22 C 1648.95 680.85 1702.97 637.74 1763.38 606.32 M 2005.54 2986.73 C 1985.90 2989.14 1967.47 2997.94 1951.85 3009.87 C 1925.54 3030.01 1907.23 3059.11 1896.41 3090.14 C 1883.54 3127.48 1881.64 3168.37 1889.93 3206.92 C 1898.42 3244.61 1917.08 3281.05 1946.97 3306.18 C 1961.84 3318.75 1979.58 3328.28 1998.75 3332.20 C 2016.46 3335.55 2035.15 3334.50 2052.14 3328.32 C 2071.00 3321.65 2087.67 3309.75 2101.54 3295.48 C 2126.56 3269.09 2142.11 3234.65 2148.63 3199.10 C 2156.06 3156.96 2151.61 3112.39 2133.86 3073.30 C 2119.39 3040.87 2095.18 3011.61 2062.73 2996.11 C 2045.14 2987.40 2024.98 2984.26 2005.54 2986.73 Z" />
</g>
</svg>
