<?xml version="1.0" encoding="UTF-8" ?>
<!DOCTYPE svg PUBLIC "-//W3C//DTD SVG 1.1//EN" "http://www.w3.org/Graphics/SVG/1.1/DTD/svg11.dtd">
<svg width="1250pt" height="1250pt" viewBox="0 0 1250 1250" version="1.1" xmlns="http://www.w3.org/2000/svg">
<g id="#000000ff">
<path fill="#000000" opacity="1.00" d=" M 306.96 144.94 C 314.12 136.02 327.14 131.68 337.98 135.99 C 348.50 139.80 356.42 150.74 355.60 162.07 C 355.08 169.32 350.05 175.29 344.41 179.41 C 339.58 183.05 332.53 183.81 327.24 180.73 C 321.54 177.69 318.45 171.24 317.77 165.03 C 317.20 157.52 324.87 150.60 332.28 152.62 C 337.63 153.53 341.66 159.85 339.14 164.94 C 337.90 166.45 335.37 167.89 333.66 166.28 C 331.84 165.15 331.75 162.87 331.69 160.96 C 329.37 160.01 325.41 160.83 325.72 163.99 C 326.06 167.80 327.88 171.73 331.24 173.78 C 335.01 175.31 339.18 173.57 342.01 170.95 C 345.57 168.14 348.51 163.65 347.59 158.94 C 346.72 151.85 341.35 145.79 334.71 143.44 C 326.36 140.62 316.43 144.24 311.58 151.55 C 306.00 159.79 304.11 169.80 302.64 179.47 C 314.67 181.44 326.29 187.30 333.81 197.08 C 339.92 205.01 343.34 215.17 342.45 225.21 C 335.73 223.65 328.83 223.27 321.97 222.87 C 314.60 222.50 307.32 223.94 300.08 225.06 C 306.61 256.05 313.40 286.98 319.95 317.96 C 324.31 335.04 330.06 352.15 340.28 366.69 C 348.51 378.48 360.02 387.63 372.70 394.25 C 351.79 409.56 324.50 415.79 299.04 410.83 C 297.97 410.64 297.24 410.05 296.86 409.07 C 306.16 397.22 312.63 383.04 314.71 368.07 C 317.03 352.26 315.49 336.17 312.78 320.52 C 306.17 289.31 299.49 258.12 292.97 226.89 C 277.53 229.54 263.31 237.05 250.97 246.51 C 246.20 238.27 244.25 228.39 245.92 218.99 C 248.14 204.97 257.59 192.68 269.90 185.87 C 264.80 177.43 258.90 169.03 250.39 163.70 C 244.72 160.08 237.29 159.84 231.16 162.41 C 222.00 166.38 217.10 178.36 221.58 187.44 C 223.75 191.73 228.66 193.47 233.07 194.41 C 236.82 195.16 241.49 193.68 242.79 189.75 C 243.63 186.40 243.83 182.37 241.69 179.45 C 239.77 178.18 237.27 179.07 235.97 180.79 C 237.48 182.94 237.33 186.46 234.72 187.68 C 231.84 188.54 229.15 186.39 228.46 183.67 C 226.49 178.25 230.75 172.17 236.21 171.22 C 241.94 169.54 248.40 173.11 250.33 178.69 C 252.66 185.49 251.69 194.03 246.04 198.96 C 240.80 203.92 232.56 203.65 226.33 200.81 C 221.05 198.93 216.31 195.22 214.01 190.01 C 209.52 180.33 212.31 168.20 219.67 160.70 C 225.06 154.98 233.13 152.20 240.91 152.76 C 249.75 153.21 257.43 158.46 263.66 164.37 C 268.96 169.73 273.51 175.85 277.18 182.43 C 282.82 180.49 288.69 179.32 294.66 179.15 C 296.08 167.07 299.17 154.59 306.96 144.94 Z" />
<path fill="#000000" opacity="1.00" d=" M 566.29 143.40 C 573.84 140.53 582.85 144.29 586.96 151.04 C 593.99 164.95 591.96 181.54 586.72 195.70 C 584.61 200.80 582.38 206.38 577.55 209.51 C 573.39 212.38 567.63 212.22 563.45 209.48 C 556.87 205.28 553.43 197.60 552.35 190.10 C 550.56 177.15 551.47 163.34 557.69 151.62 C 559.51 148.02 562.45 144.84 566.29 143.40 Z" />
<path fill="#000000" opacity="1.00" d=" M 803.91 162.01 C 803.66 159.66 805.47 157.34 807.90 157.40 C 819.61 157.34 831.32 157.70 843.04 157.70 C 849.85 157.56 856.67 157.36 863.48 157.75 C 863.73 163.48 863.31 169.25 862.63 174.92 C 861.21 178.40 855.66 173.63 854.27 177.22 C 852.39 192.07 851.63 207.05 850.63 221.99 C 849.57 241.63 847.50 261.22 847.12 280.90 C 846.68 297.58 846.64 314.26 846.48 330.94 C 846.70 341.59 847.55 352.22 848.63 362.81 C 849.00 366.68 851.30 370.69 855.36 371.52 C 864.27 373.46 875.17 372.03 881.14 364.46 C 882.90 367.93 885.11 371.22 886.25 374.98 C 886.93 376.51 885.85 377.93 884.92 379.03 C 881.70 382.87 877.87 386.40 873.03 388.00 C 863.05 391.21 851.97 391.68 842.05 387.98 C 830.35 383.81 820.11 374.80 816.09 362.84 C 810.59 345.46 808.13 327.22 807.67 309.03 C 806.29 269.38 805.75 229.58 809.73 190.05 C 809.68 185.40 811.29 181.02 811.81 176.45 C 808.96 174.97 803.88 176.96 802.74 173.09 C 802.96 169.39 804.02 165.76 803.91 162.01 Z" />
<path fill="#000000" opacity="1.00" d=" M 438.98 170.36 C 456.33 169.86 473.69 169.43 491.05 168.94 C 492.50 168.98 495.33 168.71 495.10 170.95 C 494.70 175.51 495.56 180.54 493.88 184.81 C 489.14 187.09 482.93 184.85 478.26 187.21 C 476.75 199.72 476.63 212.40 475.97 224.99 C 474.94 252.63 474.85 280.31 475.46 307.96 C 475.48 325.06 477.30 342.08 479.09 359.06 C 479.62 365.86 481.88 372.59 486.05 378.03 C 488.12 380.77 491.57 382.78 495.10 382.07 C 502.68 380.50 509.01 375.65 514.79 370.75 C 516.18 369.50 518.04 368.20 517.83 366.07 C 517.83 359.32 517.17 352.56 517.58 345.80 C 522.64 344.58 527.87 344.25 533.05 343.94 C 535.90 343.43 535.41 347.13 535.80 348.91 C 536.37 364.92 537.08 380.99 536.25 397.00 C 536.02 401.10 531.22 402.26 527.88 402.36 C 525.28 402.34 521.52 402.92 520.29 399.97 C 519.11 396.59 519.15 392.95 518.18 389.52 C 511.74 393.81 505.40 398.55 497.88 400.75 C 490.28 403.39 481.87 404.37 474.12 401.79 C 462.26 398.30 453.76 387.86 449.46 376.67 C 445.74 365.88 444.75 354.37 444.11 343.05 C 441.51 292.41 442.24 241.66 443.87 191.01 C 443.91 189.79 443.78 188.60 443.49 187.43 C 441.19 186.14 438.28 187.04 435.93 185.86 C 434.64 181.69 435.97 177.20 436.04 172.91 C 435.89 171.23 437.40 170.12 438.98 170.36 Z" />
<path fill="#000000" opacity="1.00" d=" M 728.68 173.60 C 729.89 171.97 732.18 172.84 733.88 172.79 C 743.86 173.87 753.91 174.74 763.79 176.49 C 766.06 181.24 763.25 186.86 764.10 191.92 C 769.80 193.50 776.17 192.20 782.07 193.54 C 783.75 194.06 786.89 193.59 787.03 196.00 C 786.96 200.23 787.60 204.59 786.62 208.74 C 785.12 212.63 780.24 210.72 777.13 211.40 C 772.41 212.46 767.28 211.04 762.78 212.86 C 759.81 251.84 760.07 290.99 760.12 330.07 C 760.08 342.34 760.76 354.83 764.66 366.56 C 765.68 369.75 768.26 373.20 772.02 372.80 C 778.65 372.03 783.23 366.72 787.32 361.97 C 789.61 364.55 792.55 366.86 793.89 370.09 C 793.16 373.92 789.77 376.57 787.74 379.77 C 781.99 387.77 774.49 396.11 764.04 397.03 C 754.42 397.39 744.44 393.48 738.20 386.03 C 730.99 377.74 728.89 366.61 727.30 356.09 C 724.94 337.49 723.92 318.74 723.57 300.00 C 722.82 272.01 722.81 244.00 723.37 216.01 C 723.34 214.62 723.29 213.22 723.20 211.84 C 717.73 211.46 712.22 211.97 706.78 211.38 C 704.80 208.82 706.06 205.02 705.51 201.95 C 705.74 199.30 704.02 195.65 706.40 193.69 C 712.30 192.79 718.38 193.28 724.26 192.27 C 727.16 186.56 725.86 179.43 728.68 173.60 Z" />
<path fill="#000000" opacity="1.00" d=" M 630.28 177.14 C 630.99 174.63 634.03 175.50 635.95 175.54 C 645.92 176.64 655.97 177.47 665.83 179.27 C 667.91 184.16 665.41 189.83 666.02 195.04 C 673.51 195.85 681.32 194.95 688.55 197.40 C 689.68 200.07 688.82 203.20 689.12 206.05 C 689.16 208.81 689.41 213.14 685.92 213.87 C 680.27 213.88 674.69 214.81 669.04 214.71 C 667.62 214.91 665.75 214.59 664.75 215.80 C 661.82 254.77 662.06 293.93 662.12 333.00 C 662.09 345.17 662.78 357.56 666.63 369.20 C 667.60 372.09 669.61 375.30 672.99 375.54 C 676.09 375.67 678.99 374.11 681.55 372.50 C 684.78 370.47 686.62 366.95 689.72 364.78 C 691.60 367.38 694.12 369.49 695.76 372.26 C 696.29 374.32 694.52 375.96 693.52 377.54 C 687.59 385.12 682.19 394.02 672.96 397.96 C 665.76 401.34 657.40 399.66 650.42 396.57 C 641.67 392.63 635.70 384.25 632.82 375.30 C 629.51 364.64 628.64 353.44 627.51 342.39 C 623.20 357.50 617.94 373.22 606.54 384.58 C 596.85 395.57 577.63 394.64 568.14 383.85 C 560.93 375.92 558.37 365.11 556.48 354.86 C 553.66 338.38 553.51 321.60 552.90 304.94 C 552.42 287.63 552.37 270.31 552.61 252.99 C 552.64 249.26 553.03 245.55 553.48 241.85 C 553.59 240.29 554.01 238.42 552.77 237.19 C 550.02 235.50 545.83 236.74 543.77 233.91 C 543.19 231.66 543.47 229.31 543.48 227.02 C 543.55 225.10 543.54 222.69 545.39 221.55 C 547.75 220.49 550.43 220.48 552.97 220.62 C 566.98 221.70 581.01 222.41 595.05 222.76 C 596.64 222.93 599.24 222.70 599.34 224.95 C 599.52 228.28 599.40 231.65 598.90 234.95 C 597.22 237.68 591.66 234.92 591.11 239.06 C 590.16 249.03 589.98 259.07 589.24 269.06 C 587.61 295.02 588.14 321.04 588.67 347.03 C 589.09 355.40 589.71 363.78 590.44 372.13 C 590.38 374.02 592.04 376.82 594.12 375.17 C 599.03 371.58 601.70 365.82 604.77 360.72 C 615.61 341.68 618.57 319.51 625.48 299.10 C 624.67 270.97 625.05 242.82 625.29 214.70 C 620.23 214.19 615.14 214.57 610.07 214.31 C 608.08 214.67 607.64 212.49 607.74 211.02 C 607.69 206.99 607.31 202.97 607.21 198.94 C 607.09 197.82 607.70 196.29 609.03 196.32 C 614.50 195.74 620.03 195.78 625.51 195.23 C 626.88 195.19 627.02 193.58 627.35 192.58 C 628.44 187.46 628.59 182.12 630.28 177.14 Z" />
<path fill="#000000" opacity="1.00" d=" M 928.25 214.26 C 937.72 209.58 949.25 209.59 958.71 214.30 C 964.72 216.82 969.84 221.53 972.33 227.61 C 975.93 236.25 975.72 245.97 974.44 255.08 C 971.38 273.26 961.75 290.86 946.24 301.29 C 942.70 303.90 938.60 305.57 934.90 307.90 C 932.86 309.23 933.48 311.91 933.55 313.95 C 935.17 333.86 934.94 354.81 944.22 373.06 C 954.20 362.08 958.00 347.12 960.84 332.94 C 961.64 330.29 958.12 330.33 956.55 329.43 C 953.60 328.84 954.53 325.19 954.34 323.02 C 954.53 321.27 954.17 317.71 956.91 318.06 C 966.27 318.25 975.65 318.45 985.00 319.12 C 987.46 320.15 986.45 323.79 986.26 325.91 C 985.56 329.35 980.06 327.68 979.59 331.36 C 978.42 340.69 977.86 350.30 974.16 359.08 C 969.66 370.21 963.75 381.93 952.74 387.86 C 936.49 397.04 913.89 390.43 904.70 374.31 C 894.11 355.88 891.49 333.99 891.82 313.06 C 892.09 289.87 893.53 266.06 902.39 244.35 C 907.49 231.97 915.70 219.95 928.25 214.26 M 948.37 228.87 C 945.13 234.31 942.11 239.94 939.99 245.92 C 936.39 256.93 935.23 268.54 934.42 280.04 C 934.06 285.69 933.43 291.35 933.73 297.03 C 939.21 293.90 942.70 288.12 945.73 282.72 C 951.81 270.26 955.42 256.03 953.37 242.15 C 952.37 237.54 951.66 232.49 948.37 228.87 Z" />
<path fill="#000000" opacity="1.00" d=" M 328.08 247.00 C 329.43 245.10 330.54 242.63 333.02 242.03 C 337.72 240.43 342.64 244.25 343.26 248.94 C 344.29 256.41 339.80 263.24 335.15 268.65 C 328.77 266.55 321.33 264.61 317.66 258.41 C 315.24 254.76 315.87 249.12 319.67 246.65 C 322.28 244.98 325.49 245.70 328.08 247.00 Z" />
<path fill="#000000" opacity="1.00" d=" M 275.82 258.32 C 277.57 256.14 280.03 254.09 283.03 254.48 C 287.93 254.97 290.89 260.48 289.97 265.03 C 288.81 271.47 283.66 276.07 279.00 280.21 C 277.92 281.33 276.48 280.03 275.41 279.60 C 270.00 276.52 264.33 272.38 262.72 266.03 C 261.46 261.72 264.34 256.48 268.93 255.83 C 271.56 255.15 273.76 257.01 275.82 258.32 Z" />
<path fill="#000000" opacity="1.00" d=" M 366.51 263.53 C 367.57 260.99 369.09 258.06 372.09 257.52 C 376.57 256.33 381.05 259.89 381.88 264.24 C 383.39 271.36 379.83 278.31 375.97 284.05 C 369.64 283.07 362.67 281.80 358.09 276.91 C 354.95 273.69 354.16 267.89 357.53 264.54 C 359.88 262.15 363.62 262.26 366.51 263.53 Z" />
<path fill="#000000" opacity="1.00" d=" M 233.64 293.95 C 233.39 289.79 236.86 285.90 241.03 285.73 C 243.63 285.54 245.62 287.46 247.41 289.06 C 249.08 287.77 250.70 286.00 252.99 286.07 C 258.34 285.17 262.13 291.26 261.11 296.04 C 259.92 302.81 253.98 307.11 248.75 310.84 C 246.94 312.44 245.16 310.20 243.66 309.31 C 238.81 305.53 233.69 300.55 233.64 293.95 Z" />
<path fill="#000000" opacity="1.00" d=" M 344.63 303.91 C 345.85 301.61 347.11 298.76 349.92 298.10 C 355.14 296.23 360.58 300.77 361.09 305.96 C 362.05 313.08 358.38 319.83 354.41 325.46 C 353.49 327.06 351.46 325.81 350.12 325.64 C 344.27 324.01 337.77 322.10 334.21 316.77 C 331.25 312.75 331.74 305.88 336.57 303.52 C 339.12 301.97 342.07 302.98 344.63 303.91 Z" />
<path fill="#000000" opacity="1.00" d=" M 387.65 314.64 C 388.89 312.44 390.29 309.79 393.05 309.36 C 397.50 308.23 402.05 311.72 402.75 316.11 C 403.90 323.50 399.89 330.86 394.80 335.89 C 388.67 334.35 382.00 332.25 377.97 327.04 C 375.31 323.66 374.91 318.31 378.11 315.14 C 380.63 312.58 384.74 312.95 387.65 314.64 Z" />
<path fill="#000000" opacity="1.00" d=" M 284.06 316.97 C 286.76 313.42 292.34 311.89 295.83 315.20 C 300.60 319.49 299.27 327.04 295.58 331.58 C 292.55 335.12 289.05 338.67 285.00 340.89 C 278.96 338.40 273.30 333.52 270.48 327.46 C 268.10 322.79 269.70 315.92 275.08 314.25 C 278.39 312.73 281.61 314.90 284.06 316.97 Z" />
<path fill="#000000" opacity="1.00" d=" M 249.12 344.35 C 250.85 342.32 253.09 340.30 255.97 340.52 C 261.06 340.71 264.19 346.42 263.18 351.06 C 262.10 357.58 256.79 362.07 252.08 366.18 C 250.99 367.43 249.56 366.04 248.44 365.59 C 243.09 362.49 237.49 358.29 235.95 351.97 C 234.78 347.69 237.46 342.56 241.99 341.77 C 244.71 341.07 247.07 342.84 249.12 344.35 Z" />
<path fill="#000000" opacity="1.00" d=" M 373.64 355.84 C 375.04 353.38 376.68 350.32 379.90 350.17 C 384.70 349.20 389.27 353.28 389.78 357.94 C 390.82 364.75 387.27 371.12 383.40 376.43 C 382.58 377.37 381.60 379.26 380.06 378.33 C 373.88 376.43 367.04 374.43 363.10 368.89 C 360.13 365.02 360.16 358.47 364.48 355.58 C 367.26 353.54 370.80 354.49 373.64 355.84 Z" />
<path fill="#000000" opacity="1.00" d=" M 278.79 376.22 C 280.65 374.15 282.93 371.99 285.95 372.20 C 291.32 372.14 294.68 378.11 293.86 382.99 C 292.81 390.59 286.39 395.65 280.96 400.36 C 274.32 397.03 267.20 392.47 264.91 384.97 C 263.39 380.30 266.03 374.56 271.03 373.55 C 273.99 372.62 276.55 374.58 278.79 376.22 Z" />
<path fill="#000000" opacity="1.00" d=" M 651.55 436.73 C 659.63 435.23 668.63 436.54 675.03 442.03 C 682.17 448.00 685.50 457.18 687.27 466.06 C 689.59 476.50 690.75 487.24 690.42 497.95 C 690.53 500.48 689.00 503.44 686.08 503.17 C 680.65 503.23 675.40 504.71 670.03 505.10 C 666.91 503.95 668.11 499.66 667.37 497.09 C 665.96 489.55 665.82 479.92 658.46 475.50 C 651.05 472.14 644.67 479.58 641.40 485.39 C 629.10 510.28 627.49 538.73 627.81 566.03 C 628.04 582.99 629.76 600.99 639.57 615.40 C 642.50 619.51 645.57 624.75 650.99 625.62 C 655.96 625.37 658.29 620.14 660.24 616.28 C 664.82 605.41 668.59 593.86 668.87 582.00 C 668.80 579.82 666.32 580.75 665.12 581.20 C 661.09 582.48 657.01 583.58 652.92 584.60 C 650.38 584.89 649.54 582.08 649.32 580.11 C 648.38 571.71 646.99 563.37 645.93 554.99 C 645.39 552.77 646.75 550.42 649.10 550.18 C 661.18 547.20 673.04 543.38 685.13 540.44 C 687.13 539.75 689.79 540.15 690.60 542.38 C 692.29 546.73 692.72 551.45 693.05 556.07 C 693.87 580.41 692.81 605.24 685.33 628.60 C 681.34 640.83 675.62 653.02 666.02 661.87 C 661.45 666.22 654.72 668.40 648.54 666.62 C 634.92 662.59 623.75 652.36 616.99 640.04 C 608.16 624.12 604.61 605.99 601.84 588.19 C 599.77 574.54 600.81 560.71 600.35 546.98 C 599.79 516.80 608.05 486.79 622.46 460.38 C 628.59 449.21 638.50 438.94 651.55 436.73 Z" />
<path fill="#000000" opacity="1.00" d=" M 762.45 436.62 C 770.02 435.37 778.34 436.55 784.50 441.40 C 791.72 446.98 795.35 455.87 797.19 464.56 C 799.72 475.51 801.03 486.80 800.67 498.04 C 800.78 500.67 799.04 503.55 796.08 503.19 C 790.65 503.20 785.40 504.85 780.02 505.05 C 777.33 503.70 778.31 499.95 777.67 497.49 C 776.42 490.72 776.24 483.02 771.43 477.60 C 768.67 474.32 763.60 473.67 760.06 476.05 C 753.35 480.31 749.98 487.93 747.43 495.15 C 739.89 515.14 738.14 536.74 738.04 557.94 C 738.02 575.84 738.30 594.81 747.11 610.93 C 750.14 615.98 753.21 621.45 758.30 624.70 C 760.87 626.43 764.34 625.50 766.20 623.18 C 770.19 618.58 772.05 612.62 774.09 606.99 C 776.78 598.93 779.03 590.53 779.13 582.00 C 778.85 581.63 778.28 580.89 778.00 580.52 C 772.98 581.83 768.04 583.51 762.97 584.62 C 760.02 584.64 759.70 581.12 759.41 578.95 C 758.55 570.94 757.18 563.01 756.18 555.03 C 755.69 552.94 756.82 550.55 759.09 550.26 C 771.16 547.25 783.03 543.48 795.11 540.49 C 797.13 539.82 799.92 539.96 800.80 542.29 C 802.55 546.62 802.94 551.38 803.30 556.01 C 804.10 580.08 803.09 604.62 795.84 627.77 C 791.89 640.17 786.20 652.54 776.59 661.59 C 772.04 666.03 765.31 668.41 759.04 666.68 C 745.71 662.84 734.65 653.00 727.84 641.08 C 718.92 625.59 715.24 607.81 712.42 590.36 C 709.94 576.02 711.06 561.43 710.60 546.97 C 710.04 517.40 717.99 488.00 731.84 461.97 C 738.07 449.97 748.47 438.70 762.45 436.62 Z" />
<path fill="#000000" opacity="1.00" d=" M 426.61 439.59 C 431.67 437.02 437.89 438.52 442.03 442.14 C 449.52 448.34 452.87 457.90 455.24 467.02 C 458.15 478.10 459.39 489.54 459.82 500.97 C 461.82 546.81 460.43 592.82 455.25 638.42 C 454.31 644.91 452.83 651.32 451.43 657.73 C 451.24 659.41 449.50 660.20 447.98 659.70 C 440.66 658.62 433.38 657.28 426.09 656.03 C 422.65 655.62 423.31 651.49 423.55 649.04 C 428.63 602.58 429.60 555.75 428.55 509.05 C 427.84 500.05 427.76 489.90 421.95 482.48 C 418.99 483.67 417.70 486.73 416.17 489.29 C 411.36 497.77 409.12 507.35 406.36 516.62 C 399.19 539.77 395.11 563.78 392.84 587.88 C 390.84 610.90 389.92 634.01 388.80 657.09 C 388.82 659.04 387.62 661.14 385.51 661.32 C 380.95 661.97 376.26 662.09 371.88 663.67 C 369.91 664.23 368.02 665.31 365.93 665.30 C 363.74 665.06 362.85 662.73 362.46 660.87 C 353.12 591.69 352.69 521.69 353.79 452.00 C 353.89 449.68 354.17 446.87 356.34 445.50 C 358.35 444.37 360.77 444.90 362.97 444.85 C 372.35 445.29 381.74 444.91 391.11 444.88 C 393.93 444.78 393.98 448.09 393.60 450.07 C 389.29 479.95 389.42 510.21 388.37 540.32 C 394.48 512.35 397.85 483.11 411.41 457.43 C 415.27 450.67 419.35 443.21 426.61 439.59 Z" />
<path fill="#000000" opacity="1.00" d=" M 293.19 441.32 C 300.70 439.79 308.41 443.00 313.74 448.24 C 321.79 456.04 326.08 466.84 328.61 477.55 C 330.97 488.24 331.69 499.20 332.72 510.07 C 333.42 513.19 330.28 514.73 328.23 516.28 C 324.63 518.59 321.09 521.17 316.98 522.47 C 313.72 521.38 313.29 517.55 312.27 514.77 C 309.83 507.32 307.40 499.13 300.96 494.10 C 298.16 491.73 293.89 490.54 290.62 492.68 C 286.46 495.28 284.97 500.29 283.73 504.75 C 280.85 515.09 280.82 526.58 285.51 536.41 C 288.04 541.84 291.91 546.58 296.49 550.42 C 304.43 557.16 312.89 563.32 320.33 570.64 C 331.05 581.45 335.89 597.00 335.84 611.98 C 335.67 626.54 330.72 641.68 319.89 651.79 C 312.95 657.77 304.86 662.82 295.80 664.73 C 284.05 667.19 271.18 663.92 262.29 655.78 C 258.25 652.02 254.11 647.67 253.09 642.04 C 252.14 637.05 254.39 632.29 255.41 627.51 C 257.23 620.55 258.20 613.35 260.59 606.56 C 261.14 604.54 263.55 603.43 265.29 604.82 C 272.10 609.49 277.22 616.45 284.63 620.33 C 290.21 623.23 297.53 621.29 301.39 616.48 C 303.30 613.78 301.72 610.41 300.17 607.97 C 295.53 601.04 289.68 594.77 282.44 590.50 C 270.93 583.42 262.08 572.31 257.38 559.67 C 252.64 547.38 251.85 534.03 251.95 520.99 C 252.21 500.73 256.92 480.13 267.97 462.95 C 274.08 453.68 281.65 443.63 293.19 441.32 Z" />
<path fill="#000000" opacity="1.00" d=" M 483.67 446.04 C 483.90 443.92 483.99 440.30 486.95 440.38 C 496.58 441.65 506.26 442.59 515.94 443.36 C 519.20 443.56 518.37 447.69 518.17 449.90 C 513.08 488.03 511.56 526.53 511.56 564.96 C 511.78 574.84 511.83 584.87 514.34 594.50 C 515.41 598.05 517.12 602.29 521.02 603.47 C 524.40 604.15 526.90 601.02 528.22 598.32 C 532.61 589.10 534.68 579.02 537.22 569.19 C 545.10 536.32 549.37 502.69 552.03 469.02 C 552.67 461.52 552.69 453.95 553.73 446.49 C 553.88 444.33 555.92 443.13 557.92 443.14 C 565.28 442.51 572.74 443.79 580.03 442.22 C 582.48 441.34 582.81 444.25 582.51 445.94 C 579.93 476.56 578.57 507.27 577.74 537.98 C 576.40 574.65 576.01 611.35 576.75 648.04 C 576.79 650.74 576.87 654.63 573.74 655.71 C 567.60 657.66 561.22 658.83 555.21 661.19 C 553.57 661.59 551.80 662.84 550.13 662.02 C 548.35 659.38 548.97 655.93 548.57 652.93 C 547.54 639.20 547.24 625.39 545.70 611.70 C 544.93 612.25 544.43 612.99 544.20 613.92 C 540.07 627.21 533.36 639.49 526.58 651.58 C 522.93 657.94 517.40 663.98 509.90 665.44 C 505.43 666.58 500.60 664.83 497.67 661.34 C 493.09 655.97 490.64 649.20 488.27 642.66 C 480.95 620.90 479.32 597.75 478.42 574.96 C 477.81 551.93 477.98 528.87 478.88 505.85 C 479.60 485.85 482.23 465.99 483.67 446.04 Z" />
<path fill="#000000" opacity="1.00" d=" M 941.24 441.31 C 955.93 440.95 970.67 441.14 985.28 442.76 C 987.85 442.91 989.03 445.64 988.61 447.92 C 987.48 459.55 986.49 471.20 985.30 482.82 C 985.23 484.50 984.32 487.06 982.16 486.34 C 969.62 483.44 956.54 484.31 944.06 481.06 C 941.56 480.09 940.34 482.90 940.35 484.90 C 939.09 499.59 937.63 514.29 937.35 529.04 C 937.09 530.72 937.82 533.27 940.04 532.75 C 946.46 532.01 952.85 530.92 959.28 530.18 C 960.91 529.80 962.27 531.26 962.05 532.87 C 962.10 541.26 962.33 549.66 962.64 558.05 C 962.78 559.94 962.48 562.93 959.89 562.60 C 952.85 562.53 945.99 564.67 938.95 564.17 C 937.27 563.74 936.33 565.55 936.51 566.97 C 936.54 581.29 936.27 595.62 937.00 609.92 C 937.33 613.87 936.21 618.62 939.18 621.82 C 942.94 624.95 948.51 623.93 952.38 621.53 C 959.29 617.24 965.77 612.29 971.78 606.81 C 972.93 605.43 975.46 604.62 976.14 606.94 C 978.43 612.50 982.35 617.29 984.11 623.08 C 985.24 626.48 983.65 629.97 981.49 632.57 C 975.15 639.89 969.49 647.78 962.79 654.79 C 958.61 659.80 953.44 664.36 946.94 665.94 C 939.79 667.66 931.20 667.76 925.51 662.39 C 917.98 655.36 915.04 644.93 913.44 635.08 C 911.59 622.52 911.69 609.77 911.19 597.11 C 909.92 548.68 911.25 500.14 915.91 451.91 C 916.35 448.47 916.73 443.59 920.87 442.64 C 927.56 441.42 934.45 441.70 941.24 441.31 Z" />
<path fill="#000000" opacity="1.00" d=" M 833.12 447.54 C 842.51 446.51 851.81 443.76 861.33 444.62 C 861.59 446.71 861.64 448.83 861.42 450.93 C 856.92 506.86 853.07 562.87 851.70 618.97 C 851.68 620.36 851.95 622.72 853.94 622.44 C 855.65 622.39 857.34 622.02 859.04 621.76 C 868.31 620.09 877.86 621.37 887.11 619.50 C 888.98 619.27 891.53 618.36 892.82 620.31 C 893.90 622.34 893.39 624.74 893.27 626.94 C 892.26 636.32 891.55 645.73 890.83 655.13 C 890.70 657.26 889.93 659.84 887.60 660.46 C 883.19 661.68 878.60 662.00 874.06 662.36 C 859.65 663.00 845.46 666.03 831.06 666.73 C 827.83 666.42 827.29 662.60 827.01 660.02 C 822.87 620.84 820.75 581.42 821.21 542.02 C 821.63 528.35 821.11 514.67 821.72 501.01 C 822.24 485.65 823.15 470.32 823.50 454.96 C 823.57 452.55 823.99 449.50 826.55 448.51 C 828.67 447.84 830.93 447.84 833.12 447.54 Z" />
<path fill="#000000" opacity="1.00" d=" M 861.29 702.10 C 865.56 688.70 881.50 679.95 894.96 684.88 C 902.03 687.03 907.90 692.09 911.66 698.40 C 917.36 707.42 919.61 718.10 921.00 728.55 C 926.88 728.95 932.66 730.31 938.14 732.48 C 943.91 723.14 950.57 713.90 960.04 708.00 C 967.81 702.72 978.17 701.37 986.92 704.94 C 1000.52 710.20 1007.86 727.93 1001.04 741.03 C 997.94 747.38 991.23 750.79 984.70 752.53 C 979.57 753.88 973.64 753.00 969.61 749.40 C 963.26 743.83 962.22 733.56 966.42 726.43 C 970.33 719.83 980.98 719.16 985.52 725.44 C 988.60 729.13 988.08 736.55 982.92 737.99 C 978.80 738.98 977.31 733.60 979.49 730.85 C 977.86 728.97 973.94 728.08 972.90 730.98 C 970.80 735.79 971.99 743.58 978.09 744.59 C 983.89 745.20 990.64 743.01 993.82 737.83 C 998.37 728.74 993.53 716.74 984.39 712.68 C 978.01 709.93 970.26 710.42 964.44 714.29 C 956.20 719.64 950.40 727.85 945.45 736.16 C 956.68 743.17 965.33 754.67 967.54 767.86 C 969.15 776.68 967.67 785.99 963.56 793.95 C 951.93 785.68 938.73 779.48 924.64 776.84 C 919.58 801.89 914.46 826.93 909.30 851.96 C 907.56 861.30 905.06 870.50 904.13 879.98 C 901.82 898.23 901.58 917.38 908.21 934.81 C 911.60 944.31 917.08 952.91 923.26 960.82 C 897.02 966.74 868.33 960.76 846.75 944.66 C 860.62 937.26 872.89 926.56 881.05 913.03 C 891.26 896.30 896.70 877.14 900.36 858.02 C 906.08 830.49 911.75 802.95 917.53 775.42 C 902.26 771.99 886.28 772.84 871.17 776.66 C 870.01 767.02 872.41 756.99 877.90 748.97 C 885.62 737.33 898.99 729.98 912.81 728.77 C 911.47 718.19 909.31 707.05 902.32 698.62 C 899.30 694.78 894.55 693.05 889.97 691.94 C 878.13 689.51 865.16 701.50 868.56 713.59 C 870.77 718.53 875.51 723.07 881.08 723.63 C 887.22 723.78 890.42 716.44 889.72 711.17 C 888.00 709.94 886.01 709.41 883.95 710.07 C 883.72 711.84 883.92 714.00 882.30 715.21 C 879.95 717.76 875.93 714.92 875.81 712.00 C 874.91 705.94 881.07 700.63 886.93 701.55 C 891.57 701.85 895.52 705.32 897.22 709.52 C 899.97 719.62 891.93 732.18 880.94 731.81 C 873.96 731.91 868.29 726.97 864.20 721.81 C 859.85 716.34 858.96 708.60 861.29 702.10 Z" />
<path fill="#000000" opacity="1.00" d=" M 544.15 701.00 C 544.30 699.13 546.07 697.85 547.89 698.02 C 554.94 697.82 561.99 698.17 569.04 698.49 C 577.35 698.78 585.66 697.61 593.96 698.15 C 595.86 698.21 595.10 700.71 595.23 701.92 C 594.83 707.67 594.48 713.43 593.72 719.15 C 593.61 720.08 593.17 720.84 592.41 721.44 C 589.86 720.77 586.72 719.60 584.29 721.09 C 583.07 725.94 584.08 731.05 583.79 736.01 C 583.19 775.68 582.24 815.35 582.84 855.02 C 583.42 883.97 584.98 912.94 587.34 941.78 C 590.39 943.42 594.90 940.55 597.64 943.23 C 598.79 946.68 597.96 950.43 598.10 954.02 C 597.82 957.23 598.34 960.80 596.78 963.73 C 590.69 965.09 584.25 964.47 578.02 964.74 C 566.33 964.76 554.63 964.74 542.94 964.76 C 541.56 964.63 539.12 965.02 539.04 963.00 C 538.50 958.04 538.47 952.97 539.04 948.02 C 540.21 943.09 546.32 944.55 550.03 943.91 C 548.73 934.55 546.68 925.30 545.69 915.89 C 543.66 900.12 543.09 884.20 543.27 868.31 C 541.50 869.99 541.31 872.48 540.74 874.70 C 537.76 887.17 534.44 899.55 531.22 911.95 C 528.31 923.04 523.64 933.69 517.21 943.20 C 512.26 950.41 504.69 956.20 495.86 957.41 C 486.82 958.54 477.23 956.48 469.72 951.26 C 460.98 945.11 455.85 935.18 452.61 925.25 C 447.23 907.67 444.71 889.31 443.97 870.97 C 442.73 849.65 443.86 828.29 445.17 807.00 C 446.66 779.38 449.30 751.76 454.47 724.56 C 449.54 724.02 444.76 725.74 439.88 725.82 C 436.59 725.49 436.45 721.49 437.04 719.01 C 438.17 713.07 436.92 706.62 439.15 700.98 C 446.69 699.83 454.34 700.45 461.94 700.34 C 479.13 700.21 496.32 699.64 513.51 699.82 C 512.82 705.83 512.13 711.85 511.39 717.87 C 511.24 718.88 510.89 720.50 509.54 720.40 C 504.65 720.51 499.91 721.77 495.04 722.09 C 492.55 723.79 492.44 727.25 491.55 729.89 C 487.15 749.65 484.99 769.83 483.39 789.98 C 482.07 810.63 480.58 831.32 481.04 852.02 C 481.59 867.37 482.70 882.71 484.78 897.94 C 486.88 912.42 489.31 927.09 495.50 940.48 C 503.53 929.68 508.61 917.09 513.70 904.73 C 527.07 870.75 533.37 834.61 540.45 798.94 C 543.06 785.31 545.58 771.67 548.00 758.01 C 549.89 746.52 550.80 734.91 551.96 723.34 C 548.35 722.97 544.66 723.44 541.15 722.39 C 542.05 715.24 542.92 708.09 544.15 701.00 Z" />
<path fill="#000000" opacity="1.00" d=" M 256.41 704.35 C 257.24 701.52 260.72 701.81 263.05 701.68 C 282.71 701.66 302.36 701.66 322.02 701.68 C 321.80 706.55 321.54 711.72 319.15 716.09 C 316.85 717.79 312.61 715.98 311.41 719.40 C 307.49 730.23 306.64 741.83 304.75 753.12 C 302.88 767.59 300.66 782.09 300.40 796.69 C 302.53 791.71 302.79 786.23 303.97 781.00 C 307.93 761.54 311.88 741.53 322.25 724.30 C 327.03 715.68 334.56 707.74 344.54 705.66 C 358.67 702.96 374.18 710.50 380.75 723.33 C 384.61 730.59 385.76 738.87 386.67 746.94 C 389.10 770.36 383.41 793.64 376.73 815.91 C 371.18 834.49 362.18 851.69 354.38 869.36 C 358.84 868.71 362.71 866.25 367.01 865.08 C 375.33 862.61 384.52 862.31 392.70 865.48 C 403.15 869.39 411.18 877.82 417.15 886.99 C 422.11 894.62 422.92 904.46 419.98 912.99 C 417.40 920.36 413.18 927.12 408.09 933.02 C 393.93 948.59 373.90 958.36 353.06 960.81 C 339.10 963.07 324.65 958.87 313.25 950.75 C 310.88 949.01 309.08 946.23 306.01 945.71 C 304.11 945.33 303.15 947.37 302.83 948.88 C 304.06 949.46 306.86 948.89 306.70 950.98 C 306.42 955.13 307.66 959.95 305.77 963.72 C 291.35 966.07 276.58 964.19 262.03 964.59 C 260.15 964.57 257.17 964.94 256.58 962.53 C 256.20 958.89 256.17 955.15 256.75 951.54 C 257.96 948.18 262.64 949.18 264.75 946.80 C 265.29 943.66 263.58 940.60 263.27 937.49 C 257.95 897.91 257.74 857.85 259.08 817.99 C 259.44 796.24 260.40 774.46 263.42 752.89 C 264.80 741.45 266.86 730.11 268.31 718.69 C 265.22 718.24 262.12 718.05 259.02 717.76 C 257.55 717.78 256.17 716.55 256.17 715.05 C 255.92 711.49 255.65 707.84 256.41 704.35 M 339.23 739.18 C 332.62 749.75 327.99 761.43 324.54 773.37 C 318.13 795.85 314.56 819.03 311.65 842.19 C 308.91 865.94 306.70 889.79 305.83 913.68 C 307.88 911.31 309.25 908.48 310.61 905.68 C 326.80 874.37 337.79 840.65 346.48 806.57 C 351.67 785.46 355.53 763.67 353.61 741.86 C 353.15 737.01 351.34 732.38 348.71 728.31 C 344.83 731.24 341.81 735.10 339.23 739.18 M 364.41 901.42 C 349.32 907.75 335.80 917.13 322.44 926.44 C 321.04 927.24 320.22 928.62 319.56 930.06 C 321.62 930.79 323.77 931.31 325.98 931.24 C 333.63 931.15 341.37 931.76 348.92 930.20 C 363.72 927.53 376.93 918.93 386.85 907.82 C 389.29 904.99 391.25 901.67 392.06 898.00 C 382.83 895.91 373.11 898.13 364.41 901.42 Z" />
<path fill="#000000" opacity="1.00" d=" M 680.91 711.96 C 697.21 705.86 715.68 709.19 730.57 717.51 C 737.81 721.82 743.18 728.47 748.27 735.05 C 749.84 729.82 749.07 724.25 749.94 718.91 C 750.18 716.87 752.58 717.03 754.09 716.80 C 759.33 716.37 764.51 715.02 769.79 715.18 C 771.54 715.99 770.93 718.54 771.30 720.16 C 772.93 754.25 772.35 788.40 771.22 822.50 C 770.94 823.79 771.29 825.98 769.59 826.34 C 765.12 827.19 760.55 827.32 756.05 827.94 C 754.43 827.94 752.65 828.56 751.16 827.76 C 749.96 823.63 750.26 819.22 750.10 814.97 C 750.32 798.70 744.01 783.40 738.59 768.36 C 733.55 754.50 725.61 741.28 713.73 732.26 C 712.57 731.34 710.80 730.44 709.45 731.49 C 705.94 734.33 702.69 737.59 700.27 741.43 C 689.80 757.03 680.83 773.75 674.88 791.61 C 671.74 801.44 669.17 811.44 666.59 821.43 C 663.05 835.00 662.27 849.04 661.09 862.96 C 659.68 882.24 659.30 901.77 662.57 920.90 C 664.28 930.15 667.23 939.45 672.91 947.08 C 674.62 949.47 677.82 950.52 680.58 949.41 C 694.53 944.62 706.39 934.46 713.88 921.83 C 721.52 909.27 727.34 895.46 730.26 881.04 C 722.66 881.22 715.48 884.29 707.97 885.13 C 705.59 885.42 705.54 882.65 705.47 881.05 C 705.29 874.08 704.20 867.03 705.00 860.11 C 712.83 858.47 720.98 858.15 728.94 857.01 C 747.67 855.14 766.34 852.74 785.08 850.88 C 787.63 850.24 787.68 853.25 787.64 854.95 C 787.53 861.57 788.27 868.20 787.78 874.81 C 784.58 877.64 779.28 874.78 775.48 876.49 C 774.59 877.40 774.73 878.78 774.62 879.96 C 774.31 894.66 772.69 909.30 772.48 924.00 C 772.54 937.02 772.24 950.04 772.08 963.06 C 772.18 964.79 770.98 966.87 769.06 966.83 C 760.35 967.25 751.65 967.66 742.96 968.23 C 740.18 968.68 737.72 966.60 737.59 963.84 C 736.47 953.25 736.25 942.59 735.84 931.95 C 735.58 929.36 736.42 926.24 734.34 924.22 C 728.30 934.53 721.52 944.54 712.95 952.95 C 703.95 961.81 691.76 967.72 679.00 967.83 C 665.43 967.91 651.45 963.83 641.05 954.87 C 629.16 944.80 622.76 929.95 618.80 915.22 C 612.59 893.42 612.14 870.49 613.93 848.03 C 614.50 829.29 618.90 811.00 623.63 792.95 C 627.60 778.59 632.21 764.29 639.10 751.04 C 648.17 733.94 662.45 718.73 680.91 711.96 Z" />
<path fill="#000000" opacity="1.00" d=" M 873.96 799.96 C 874.24 795.20 879.14 791.00 883.93 792.45 C 886.57 792.89 887.84 795.45 889.17 797.46 C 891.79 796.05 895.24 795.32 897.86 797.14 C 901.69 799.89 902.00 805.69 899.36 809.38 C 895.45 815.06 888.43 817.19 882.14 819.06 C 877.70 813.72 873.21 807.25 873.96 799.96 Z" />
<path fill="#000000" opacity="1.00" d=" M 927.43 813.95 C 926.68 809.20 930.76 803.61 935.87 804.43 C 938.30 804.60 940.04 806.41 941.60 808.10 C 943.00 807.20 944.35 806.17 945.95 805.63 C 949.96 804.75 954.27 807.84 954.78 811.92 C 955.61 816.48 952.98 820.79 949.81 823.84 C 946.69 826.73 943.13 829.23 939.10 830.67 C 934.22 825.98 928.01 821.25 927.43 813.95 Z" />
<path fill="#000000" opacity="1.00" d=" M 836.19 813.27 C 837.63 809.21 842.54 806.97 846.54 808.68 C 848.88 809.68 849.88 812.15 850.91 814.29 C 853.60 813.06 856.85 812.81 859.33 814.69 C 863.04 817.64 862.84 823.51 859.92 826.96 C 855.86 832.08 849.06 833.47 843.00 834.71 C 841.31 835.35 840.62 833.24 839.84 832.23 C 836.58 826.64 833.60 819.69 836.19 813.27 Z" />
<path fill="#000000" opacity="1.00" d=" M 970.12 838.65 C 972.04 836.96 974.23 834.91 977.03 835.32 C 981.68 835.62 984.91 840.65 984.00 845.06 C 982.92 851.48 977.81 856.19 972.79 859.83 C 971.81 860.40 970.50 861.55 969.40 860.59 C 964.31 857.11 958.72 853.20 956.88 846.98 C 955.50 842.71 957.45 837.19 961.98 835.81 C 965.01 834.86 968.05 836.50 970.12 838.65 Z" />
<path fill="#000000" opacity="1.00" d=" M 857.01 855.06 C 858.11 850.55 862.95 847.25 867.55 848.61 C 870.45 849.27 871.89 852.09 873.16 854.49 C 875.82 853.33 879.06 852.59 881.67 854.32 C 886.22 856.87 886.45 863.59 883.51 867.46 C 879.46 873.19 872.28 875.03 865.87 876.71 C 863.84 877.65 862.96 875.26 861.99 873.99 C 858.48 868.45 855.22 861.76 857.01 855.06 Z" />
<path fill="#000000" opacity="1.00" d=" M 814.91 867.96 C 815.28 863.53 819.40 859.45 824.01 860.21 C 827.06 860.34 828.88 863.08 830.16 865.51 C 832.60 864.29 835.59 863.44 838.15 864.85 C 842.34 867.02 843.07 872.92 840.70 876.70 C 837.65 882.10 831.49 884.31 825.93 886.13 C 824.67 886.38 823.00 887.57 822.11 886.04 C 818.02 880.97 814.22 874.73 814.91 867.96 Z" />
<path fill="#000000" opacity="1.00" d=" M 924.69 863.62 C 928.07 862.32 931.63 864.15 933.69 866.88 C 936.09 865.07 938.82 862.74 942.07 863.81 C 947.66 864.99 949.90 871.89 947.70 876.76 C 944.99 883.13 939.25 887.91 933.15 890.87 C 927.77 887.46 922.38 883.01 919.87 876.96 C 917.86 872.21 919.40 865.42 924.69 863.62 Z" />
<path fill="#000000" opacity="1.00" d=" M 960.37 890.45 C 963.67 889.39 966.96 891.32 968.95 893.90 C 971.00 892.47 973.24 890.63 975.95 891.28 C 980.77 891.97 983.53 897.56 982.06 902.01 C 979.99 909.08 973.29 913.51 966.98 916.50 C 962.26 912.34 956.82 908.10 955.17 901.71 C 953.86 897.39 955.90 891.94 960.37 890.45 Z" />
<path fill="#000000" opacity="1.00" d=" M 828.18 910.95 C 828.02 906.37 831.14 901.41 835.99 900.96 C 839.96 900.19 843.07 903.29 844.53 906.66 C 847.48 904.99 851.44 904.44 854.27 906.70 C 858.19 909.94 857.93 916.20 854.91 919.97 C 850.60 925.66 843.33 927.54 836.86 929.59 C 832.41 924.34 828.25 918.06 828.18 910.95 Z" />
<path fill="#000000" opacity="1.00" d=" M 924.55 932.91 C 923.54 927.83 927.43 921.59 933.03 922.10 C 935.78 922.08 937.81 924.09 939.48 926.03 C 941.72 924.55 944.13 922.48 947.05 923.24 C 951.92 923.92 954.76 929.35 953.67 933.92 C 952.17 940.70 946.24 945.24 940.60 948.64 C 939.40 949.18 937.76 950.60 936.55 949.35 C 931.44 944.89 925.55 940.05 924.55 932.91 Z" />
<path fill="#000000" opacity="1.00" d=" M 874.38 979.40 C 878.11 978.80 882.20 979.55 886.01 980.04 C 889.19 981.33 886.96 984.78 885.96 986.83 C 882.23 995.87 878.47 1004.99 873.13 1013.21 C 870.82 1014.60 868.22 1012.86 865.87 1012.46 C 863.56 1011.94 859.78 1011.39 860.81 1008.04 C 864.50 1000.17 869.09 992.68 871.72 984.34 C 872.43 982.63 872.70 980.46 874.38 979.40 Z" />
<path fill="#000000" opacity="1.00" d=" M 654.37 982.60 C 656.44 981.72 658.56 983.06 660.59 983.48 C 671.12 986.30 681.05 991.49 689.11 998.86 C 690.87 1000.31 689.81 1002.98 688.00 1003.86 C 685.11 1005.60 682.41 1008.54 678.82 1008.45 C 671.15 1001.41 661.53 996.69 651.39 994.41 C 648.99 993.93 649.20 990.91 650.25 989.32 C 651.51 987.05 651.98 983.96 654.37 982.60 Z" />
<path fill="#000000" opacity="1.00" d=" M 630.34 983.37 C 633.65 981.27 635.17 985.49 636.05 987.89 C 636.90 989.93 638.44 993.41 635.62 994.63 C 627.36 997.73 620.52 1004.67 618.28 1013.30 C 617.58 1015.06 617.50 1017.97 615.06 1018.18 C 612.01 1018.21 608.96 1018.07 605.93 1017.88 C 604.31 1017.90 603.20 1016.43 602.97 1014.98 C 605.94 1000.67 616.53 988.28 630.34 983.37 Z" />
<path fill="#000000" opacity="1.00" d=" M 695.29 1011.36 C 698.44 1009.28 700.38 1013.03 701.47 1015.42 C 705.34 1024.59 706.13 1035.15 703.48 1044.76 C 703.23 1046.29 701.57 1046.94 700.18 1046.84 C 697.05 1046.72 693.90 1046.65 690.80 1046.30 C 688.58 1045.52 689.33 1042.86 689.66 1041.16 C 691.12 1034.31 690.56 1026.91 687.37 1020.61 C 686.57 1018.86 685.09 1016.52 686.93 1014.90 C 689.51 1013.29 692.53 1012.58 695.29 1011.36 Z" />
<path fill="#000000" opacity="1.00" d=" M 853.35 1019.50 C 856.73 1018.79 859.95 1020.94 863.16 1021.80 C 864.92 1022.07 866.23 1024.23 865.18 1025.83 C 859.02 1035.17 851.45 1043.47 843.50 1051.33 C 842.44 1052.41 840.86 1053.56 839.33 1052.63 C 836.72 1051.32 834.23 1049.79 831.78 1048.22 C 830.41 1047.54 830.42 1045.32 831.56 1044.50 C 839.90 1037.18 846.81 1028.38 853.35 1019.50 Z" />
<path fill="#000000" opacity="1.00" d=" M 608.48 1027.57 C 610.98 1027.22 613.50 1026.17 616.05 1026.67 C 617.83 1027.63 617.68 1029.97 618.32 1031.65 C 619.96 1038.94 624.62 1045.05 629.61 1050.43 C 631.68 1052.13 630.74 1055.72 628.19 1056.38 C 625.21 1057.69 622.60 1061.34 619.02 1059.93 C 611.14 1052.40 605.28 1042.61 602.94 1031.94 C 602.24 1028.65 606.06 1027.83 608.48 1027.57 Z" />
<path fill="#000000" opacity="1.00" d=" M 367.20 1028.13 C 369.03 1027.46 372.16 1026.66 373.03 1029.11 C 375.74 1035.71 379.31 1041.91 383.09 1047.95 C 384.09 1049.53 386.89 1051.00 385.19 1053.10 C 381.84 1055.48 377.98 1057.26 374.00 1058.29 C 373.56 1058.17 372.69 1057.94 372.25 1057.82 C 367.75 1051.98 364.68 1045.18 360.96 1038.86 C 360.36 1036.37 357.81 1033.77 359.34 1031.26 C 361.69 1029.68 364.58 1029.13 367.20 1028.13 Z" />
<path fill="#000000" opacity="1.00" d=" M 819.58 1054.64 C 822.62 1053.09 824.70 1056.77 826.95 1058.21 C 828.75 1059.25 830.73 1061.78 828.64 1063.61 C 818.65 1071.54 807.29 1077.53 795.56 1082.46 C 793.61 1083.32 791.22 1082.64 790.46 1080.56 C 789.03 1077.95 785.52 1073.74 789.46 1071.65 C 800.10 1067.13 810.29 1061.56 819.58 1054.64 Z" />
<path fill="#000000" opacity="1.00" d=" M 684.26 1055.24 C 687.59 1053.40 691.21 1056.11 694.59 1056.60 C 696.87 1056.77 697.76 1059.75 696.36 1061.40 C 693.06 1066.96 688.86 1071.93 684.55 1076.73 C 695.99 1078.67 707.40 1080.99 719.04 1081.50 C 721.99 1081.17 722.90 1084.59 721.86 1086.85 C 720.91 1089.23 721.37 1093.37 718.05 1093.80 C 708.28 1093.80 698.62 1091.88 688.97 1090.50 C 685.94 1089.80 682.61 1089.68 679.86 1088.22 C 677.32 1085.09 681.58 1082.03 682.47 1079.10 C 679.00 1081.77 676.24 1085.24 672.74 1087.86 C 670.59 1089.16 668.57 1087.24 666.88 1086.12 C 664.63 1084.35 661.77 1083.81 659.14 1082.88 C 650.05 1079.77 641.23 1075.78 632.96 1070.91 C 630.79 1069.96 630.14 1066.72 632.21 1065.33 C 634.44 1063.47 636.39 1061.18 638.96 1059.79 C 642.48 1059.58 645.24 1062.34 648.21 1063.84 C 655.18 1067.52 662.55 1070.46 670.08 1072.78 C 675.48 1067.51 680.20 1061.60 684.26 1055.24 Z" />
<path fill="#000000" opacity="1.00" d=" M 388.31 1061.35 C 390.02 1060.14 392.36 1060.71 393.41 1062.48 C 399.09 1069.44 405.25 1076.02 412.17 1081.77 C 413.63 1082.72 413.69 1085.23 412.24 1086.22 C 409.93 1087.96 407.64 1089.72 405.25 1091.33 C 403.73 1092.33 401.82 1091.57 400.66 1090.41 C 393.05 1083.65 385.84 1076.40 379.48 1068.44 C 378.93 1067.36 379.46 1066.05 380.21 1065.25 C 382.93 1064.00 385.67 1062.76 388.31 1061.35 Z" />
<path fill="#000000" opacity="1.00" d=" M 772.29 1077.20 C 773.66 1076.78 775.44 1077.69 775.78 1079.14 C 776.48 1081.43 777.25 1083.71 777.97 1086.01 C 778.17 1087.82 776.52 1089.11 774.87 1089.26 C 762.11 1092.35 749.01 1094.28 735.87 1094.37 C 732.89 1093.69 733.97 1090.11 734.12 1087.97 C 734.48 1085.87 734.02 1082.34 737.00 1082.14 C 748.87 1081.53 760.77 1080.28 772.29 1077.20 Z" />
<path fill="#000000" opacity="1.00" d=" M 649.43 1089.57 C 652.23 1087.63 654.59 1090.71 656.51 1092.39 C 658.00 1093.83 660.97 1095.71 659.21 1098.09 C 648.61 1105.78 636.94 1111.93 624.91 1117.04 C 621.92 1118.18 620.56 1114.62 619.34 1112.64 C 618.16 1110.73 616.14 1107.56 618.99 1106.11 C 629.65 1101.61 639.87 1096.09 649.43 1089.57 Z" />
<path fill="#000000" opacity="1.00" d=" M 420.42 1091.45 C 421.88 1090.17 423.90 1090.75 425.28 1091.83 C 432.79 1096.91 440.64 1101.50 448.94 1105.15 C 450.48 1105.89 452.69 1106.87 452.23 1109.02 C 451.07 1111.69 448.77 1113.71 446.99 1115.99 C 445.91 1117.62 443.60 1117.51 442.00 1116.85 C 432.35 1112.18 422.87 1107.07 414.11 1100.88 C 412.71 1099.98 412.71 1097.92 413.89 1096.87 C 415.90 1094.87 418.08 1093.03 420.42 1091.45 Z" />
<path fill="#000000" opacity="1.00" d=" M 463.26 1112.21 C 463.68 1112.10 464.52 1111.87 464.94 1111.76 C 475.36 1115.42 486.12 1118.06 497.00 1119.97 C 499.03 1119.88 500.65 1121.99 499.81 1123.92 C 498.81 1126.49 497.81 1129.06 496.74 1131.61 C 493.75 1133.20 490.20 1131.52 487.07 1131.02 C 477.83 1129.74 469.01 1126.52 460.07 1123.94 C 457.79 1123.73 456.67 1120.93 457.98 1119.15 C 459.54 1116.70 461.12 1114.19 463.26 1112.21 Z" />
<path fill="#000000" opacity="1.00" d=" M 601.43 1112.48 C 603.78 1111.15 606.28 1112.97 606.78 1115.38 C 607.43 1117.85 610.08 1121.18 607.68 1123.41 C 595.42 1127.54 582.73 1130.41 569.97 1132.51 C 567.69 1133.10 565.51 1131.42 565.76 1129.04 C 565.82 1126.26 563.89 1121.78 567.39 1120.48 C 578.92 1118.70 590.32 1116.02 601.43 1112.48 Z" />
<path fill="#000000" opacity="1.00" d=" M 512.34 1123.06 C 513.52 1121.83 515.38 1122.33 516.89 1122.29 C 526.94 1123.03 537.03 1123.08 547.09 1122.49 C 549.03 1122.53 551.85 1121.91 552.80 1124.21 C 552.94 1126.76 552.85 1129.34 552.63 1131.91 C 552.53 1133.27 551.42 1134.64 549.98 1134.68 C 537.38 1135.67 524.69 1135.76 512.10 1134.51 C 510.71 1134.42 509.79 1133.24 509.50 1131.98 C 510.14 1128.92 511.17 1125.95 512.34 1123.06 Z" />
</g>
<g id="#ff0000ff">
<path fill="#ff0000" opacity="1.00" d=" M 300.08 225.06 C 307.32 223.94 314.60 222.50 321.97 222.87 C 328.83 223.27 335.73 223.65 342.45 225.21 C 365.39 229.69 385.52 244.11 399.28 262.73 C 413.50 281.61 421.02 305.36 420.39 328.97 C 419.94 347.40 414.65 365.89 404.18 381.16 C 399.33 388.58 393.11 395.10 385.84 400.18 C 381.36 398.43 376.97 396.45 372.70 394.25 C 360.02 387.63 348.51 378.48 340.28 366.69 C 330.06 352.15 324.31 335.04 319.95 317.96 C 313.40 286.98 306.61 256.05 300.08 225.06 M 328.08 247.00 C 325.49 245.70 322.28 244.98 319.67 246.65 C 315.87 249.12 315.24 254.76 317.66 258.41 C 321.33 264.61 328.77 266.55 335.15 268.65 C 339.80 263.24 344.29 256.41 343.26 248.94 C 342.64 244.25 337.72 240.43 333.02 242.03 C 330.54 242.63 329.43 245.10 328.08 247.00 M 366.51 263.53 C 363.62 262.26 359.88 262.15 357.53 264.54 C 354.16 267.89 354.95 273.69 358.09 276.91 C 362.67 281.80 369.64 283.07 375.97 284.05 C 379.83 278.31 383.39 271.36 381.88 264.24 C 381.05 259.89 376.57 256.33 372.09 257.52 C 369.09 258.06 367.57 260.99 366.51 263.53 M 344.63 303.91 C 342.07 302.98 339.12 301.97 336.57 303.52 C 331.74 305.88 331.25 312.75 334.21 316.77 C 337.77 322.10 344.27 324.01 350.12 325.64 C 351.46 325.81 353.49 327.06 354.41 325.46 C 358.38 319.83 362.05 313.08 361.09 305.96 C 360.58 300.77 355.14 296.23 349.92 298.10 C 347.11 298.76 345.85 301.61 344.63 303.91 M 387.65 314.64 C 384.74 312.95 380.63 312.58 378.11 315.14 C 374.91 318.31 375.31 323.66 377.97 327.04 C 382.00 332.25 388.67 334.35 394.80 335.89 C 399.89 330.86 403.90 323.50 402.75 316.11 C 402.05 311.72 397.50 308.23 393.05 309.36 C 390.29 309.79 388.89 312.44 387.65 314.64 M 373.64 355.84 C 370.80 354.49 367.26 353.54 364.48 355.58 C 360.16 358.47 360.13 365.02 363.10 368.89 C 367.04 374.43 373.88 376.43 380.06 378.33 C 381.60 379.26 382.58 377.37 383.40 376.43 C 387.27 371.12 390.82 364.75 389.78 357.94 C 389.27 353.28 384.70 349.20 379.90 350.17 C 376.68 350.32 375.04 353.38 373.64 355.84 Z" />
<path fill="#ff0000" opacity="1.00" d=" M 250.97 246.51 C 263.31 237.05 277.53 229.54 292.97 226.89 C 299.49 258.12 306.17 289.31 312.78 320.52 C 315.49 336.17 317.03 352.26 314.71 368.07 C 312.63 383.04 306.16 397.22 296.86 409.07 C 293.74 413.57 289.86 417.50 286.14 421.50 C 267.91 418.02 251.87 406.86 239.90 392.97 C 223.24 373.47 214.33 347.61 215.14 322.00 C 215.84 293.40 228.18 264.39 250.97 246.51 M 275.82 258.32 C 273.76 257.01 271.56 255.15 268.93 255.83 C 264.34 256.48 261.46 261.72 262.72 266.03 C 264.33 272.38 270.00 276.52 275.41 279.60 C 276.48 280.03 277.92 281.33 279.00 280.21 C 283.66 276.07 288.81 271.47 289.97 265.03 C 290.89 260.48 287.93 254.97 283.03 254.48 C 280.03 254.09 277.57 256.14 275.82 258.32 M 233.64 293.95 C 233.69 300.55 238.81 305.53 243.66 309.31 C 245.16 310.20 246.94 312.44 248.75 310.84 C 253.98 307.11 259.92 302.81 261.11 296.04 C 262.13 291.26 258.34 285.17 252.99 286.07 C 250.70 286.00 249.08 287.77 247.41 289.06 C 245.62 287.46 243.63 285.54 241.03 285.73 C 236.86 285.90 233.39 289.79 233.64 293.95 M 284.06 316.97 C 281.61 314.90 278.39 312.73 275.08 314.25 C 269.70 315.92 268.10 322.79 270.48 327.46 C 273.30 333.52 278.96 338.40 285.00 340.89 C 289.05 338.67 292.55 335.12 295.58 331.58 C 299.27 327.04 300.60 319.49 295.83 315.20 C 292.34 311.89 286.76 313.42 284.06 316.97 M 249.12 344.35 C 247.07 342.84 244.71 341.07 241.99 341.77 C 237.46 342.56 234.78 347.69 235.95 351.97 C 237.49 358.29 243.09 362.49 248.44 365.59 C 249.56 366.04 250.99 367.43 252.08 366.18 C 256.79 362.07 262.10 357.58 263.18 351.06 C 264.19 346.42 261.06 340.71 255.97 340.52 C 253.09 340.30 250.85 342.32 249.12 344.35 M 278.79 376.22 C 276.55 374.58 273.99 372.62 271.03 373.55 C 266.03 374.56 263.39 380.30 264.91 384.97 C 267.20 392.47 274.32 397.03 280.96 400.36 C 286.39 395.65 292.81 390.59 293.86 382.99 C 294.68 378.11 291.32 372.14 285.95 372.20 C 282.93 371.99 280.65 374.15 278.79 376.22 Z" />
<path fill="#ff0000" opacity="1.00" d=" M 871.17 776.66 C 886.28 772.84 902.26 771.99 917.53 775.42 C 911.75 802.95 906.08 830.49 900.36 858.02 C 896.70 877.14 891.26 896.30 881.05 913.03 C 872.89 926.56 860.62 937.26 846.75 944.66 C 842.29 947.00 837.75 949.19 833.05 951.01 C 820.65 942.59 811.69 929.89 805.80 916.27 C 794.26 889.30 795.51 857.48 808.13 831.10 C 820.36 805.36 843.18 783.81 871.17 776.66 M 873.96 799.96 C 873.21 807.25 877.70 813.72 882.14 819.06 C 888.43 817.19 895.45 815.06 899.36 809.38 C 902.00 805.69 901.69 799.89 897.86 797.14 C 895.24 795.32 891.79 796.05 889.17 797.46 C 887.84 795.45 886.57 792.89 883.93 792.45 C 879.14 791.00 874.24 795.20 873.96 799.96 M 836.19 813.27 C 833.60 819.69 836.58 826.64 839.84 832.23 C 840.62 833.24 841.31 835.35 843.00 834.71 C 849.06 833.47 855.86 832.08 859.92 826.96 C 862.84 823.51 863.04 817.64 859.33 814.69 C 856.85 812.81 853.60 813.06 850.91 814.29 C 849.88 812.15 848.88 809.68 846.54 808.68 C 842.54 806.97 837.63 809.21 836.19 813.27 M 857.01 855.06 C 855.22 861.76 858.48 868.45 861.99 873.99 C 862.96 875.26 863.84 877.65 865.87 876.71 C 872.28 875.03 879.46 873.19 883.51 867.46 C 886.45 863.59 886.22 856.87 881.67 854.32 C 879.06 852.59 875.82 853.33 873.16 854.49 C 871.89 852.09 870.45 849.27 867.55 848.61 C 862.95 847.25 858.11 850.55 857.01 855.06 M 814.91 867.96 C 814.22 874.73 818.02 880.97 822.11 886.04 C 823.00 887.57 824.67 886.38 825.93 886.13 C 831.49 884.31 837.65 882.10 840.70 876.70 C 843.07 872.92 842.34 867.02 838.15 864.85 C 835.59 863.44 832.60 864.29 830.16 865.51 C 828.88 863.08 827.06 860.34 824.01 860.21 C 819.40 859.45 815.28 863.53 814.91 867.96 M 828.18 910.95 C 828.25 918.06 832.41 924.34 836.86 929.59 C 843.33 927.54 850.60 925.66 854.91 919.97 C 857.93 916.20 858.19 909.94 854.27 906.70 C 851.44 904.44 847.48 904.99 844.53 906.66 C 843.07 903.29 839.96 900.19 835.99 900.96 C 831.14 901.41 828.02 906.37 828.18 910.95 Z" />
<path fill="#ff0000" opacity="1.00" d=" M 924.64 776.84 C 938.73 779.48 951.93 785.68 963.56 793.95 C 977.37 803.70 988.21 817.51 994.60 833.14 C 1003.30 853.33 1005.54 876.27 1000.79 897.75 C 996.92 915.60 988.37 932.49 976.02 945.98 C 964.51 958.33 949.67 968.23 932.93 971.58 C 929.55 968.13 926.31 964.55 923.26 960.82 C 917.08 952.91 911.60 944.31 908.21 934.81 C 901.58 917.38 901.82 898.23 904.13 879.98 C 905.06 870.50 907.56 861.30 909.30 851.96 C 914.46 826.93 919.58 801.89 924.64 776.84 M 927.43 813.95 C 928.01 821.25 934.22 825.98 939.10 830.67 C 943.13 829.23 946.69 826.73 949.81 823.84 C 952.98 820.79 955.61 816.48 954.78 811.92 C 954.27 807.84 949.96 804.75 945.95 805.63 C 944.35 806.17 943.00 807.20 941.60 808.10 C 940.04 806.41 938.30 804.60 935.87 804.43 C 930.76 803.61 926.68 809.20 927.43 813.95 M 970.12 838.65 C 968.05 836.50 965.01 834.86 961.98 835.81 C 957.45 837.19 955.50 842.71 956.88 846.98 C 958.72 853.20 964.31 857.11 969.40 860.59 C 970.50 861.55 971.81 860.40 972.79 859.83 C 977.81 856.19 982.92 851.48 984.00 845.06 C 984.91 840.65 981.68 835.62 977.03 835.32 C 974.23 834.91 972.04 836.96 970.12 838.65 M 924.69 863.62 C 919.40 865.42 917.86 872.21 919.87 876.96 C 922.38 883.01 927.77 887.46 933.15 890.87 C 939.25 887.91 944.99 883.13 947.70 876.76 C 949.90 871.89 947.66 864.99 942.07 863.81 C 938.82 862.74 936.09 865.07 933.69 866.88 C 931.63 864.15 928.07 862.32 924.69 863.62 M 960.37 890.45 C 955.90 891.94 953.86 897.39 955.17 901.71 C 956.82 908.10 962.26 912.34 966.98 916.50 C 973.29 913.51 979.99 909.08 982.06 902.01 C 983.53 897.56 980.77 891.97 975.95 891.28 C 973.24 890.63 971.00 892.47 968.95 893.90 C 966.96 891.32 963.67 889.39 960.37 890.45 M 924.55 932.91 C 925.55 940.05 931.44 944.89 936.55 949.35 C 937.76 950.60 939.40 949.18 940.60 948.64 C 946.24 945.24 952.17 940.70 953.67 933.92 C 954.76 929.35 951.92 923.92 947.05 923.24 C 944.13 922.48 941.72 924.55 939.48 926.03 C 937.81 924.09 935.78 922.08 933.03 922.10 C 927.43 921.59 923.54 927.83 924.55 932.91 Z" />
</g>
</svg>
