<?xml version="1.0" encoding="UTF-8" ?>
<!DOCTYPE svg PUBLIC "-//W3C//DTD SVG 1.1//EN" "http://www.w3.org/Graphics/SVG/1.1/DTD/svg11.dtd">
<svg width="4000pt" height="4000pt" viewBox="0 0 4000 4000" version="1.1" xmlns="http://www.w3.org/2000/svg">
<g id="#000000ff">
<path fill="#000000" opacity="1.00" d=" M 1863.89 666.23 C 1904.95 650.29 1948.94 641.99 1992.98 641.94 C 2007.64 641.53 2022.31 642.62 2036.97 642.63 C 2035.58 642.87 2034.26 643.14 2032.93 643.39 C 2041.65 643.04 2050.28 644.73 2058.92 645.69 C 2101.10 651.88 2142.04 665.64 2179.82 685.32 C 2204.81 698.10 2228.10 713.87 2250.90 730.17 C 2290.20 758.57 2327.40 790.05 2360.82 825.23 C 2391.59 857.83 2419.39 893.46 2441.37 932.61 C 2462.62 970.30 2478.44 1011.32 2485.71 1054.06 C 2494.12 1102.39 2491.28 1152.56 2477.74 1199.71 C 2467.00 1237.98 2449.90 1274.27 2428.90 1307.95 C 2417.25 1326.25 2404.89 1344.08 2393.30 1362.42 C 2350.19 1430.00 2309.39 1499.73 2281.18 1575.01 C 2265.74 1616.27 2255.16 1659.26 2248.88 1702.84 C 2243.84 1739.28 2240.71 1775.94 2238.35 1812.62 C 2243.54 1812.37 2248.79 1812.71 2253.96 1811.88 C 2262.62 1811.38 2271.33 1811.81 2279.98 1810.93 C 2319.68 1809.51 2359.36 1807.29 2398.98 1804.60 C 2426.05 1803.45 2452.99 1800.88 2480.05 1799.46 C 2514.68 1796.66 2549.37 1794.63 2583.98 1791.67 C 2588.30 1791.47 2592.65 1791.13 2597.00 1791.48 C 2594.63 1791.10 2592.28 1790.74 2589.96 1790.40 C 2595.31 1790.91 2600.71 1790.57 2606.08 1790.18 C 2611.87 1788.72 2618.02 1790.14 2623.80 1788.57 C 2684.33 1783.81 2744.75 1777.69 2805.09 1770.60 C 2815.77 1769.21 2826.54 1768.08 2837.05 1765.60 C 2844.66 1764.01 2852.45 1763.79 2860.10 1762.38 C 2870.35 1760.63 2880.74 1760.43 2891.01 1758.88 C 2898.75 1757.90 2906.26 1755.10 2914.16 1755.46 C 2917.67 1754.37 2921.39 1754.84 2925.03 1754.61 C 2936.41 1753.80 2947.51 1750.29 2958.99 1750.59 C 2972.65 1750.10 2986.32 1751.02 2999.99 1750.43 C 3009.85 1749.75 3019.53 1751.90 3029.29 1752.99 C 3065.36 1758.47 3101.03 1766.57 3136.05 1776.78 L 3136.76 1777.22 C 3157.71 1783.47 3177.93 1792.57 3196.20 1804.66 C 3210.78 1814.42 3223.81 1826.57 3234.07 1840.85 C 3253.09 1867.09 3260.38 1900.03 3260.76 1932.00 C 3261.33 1974.49 3251.83 2016.18 3243.41 2057.58 C 3242.18 2064.37 3238.82 2070.48 3236.61 2076.97 C 3233.75 2085.10 3230.59 2093.11 3227.60 2101.19 C 3224.62 2112.26 3216.95 2121.14 3212.66 2131.66 C 3208.66 2142.00 3201.87 2150.83 3195.66 2159.90 C 3186.10 2173.72 3175.52 2186.79 3164.71 2199.64 C 3141.83 2227.30 3117.79 2254.00 3092.27 2279.24 C 3065.12 2305.80 3037.45 2331.86 3008.40 2356.34 C 2978.43 2381.33 2947.77 2405.53 2915.77 2427.88 C 2884.70 2449.75 2853.22 2471.12 2820.21 2489.97 C 2783.56 2511.10 2746.09 2530.92 2707.20 2547.62 C 2662.30 2567.22 2615.87 2583.63 2567.89 2593.85 C 2565.78 2594.49 2563.60 2594.65 2561.45 2594.80 C 2560.67 2598.19 2562.16 2601.51 2562.71 2604.85 C 2572.92 2655.51 2576.13 2707.41 2574.58 2759.01 C 2571.65 2845.87 2555.36 2932.62 2523.47 3013.60 C 2497.30 3079.55 2459.93 3142.13 2408.07 3191.13 C 2382.54 3215.19 2353.55 3235.68 2321.96 3251.00 C 2241.94 3290.24 2155.96 3318.81 2067.14 3328.70 C 2015.89 3334.44 1963.84 3333.67 1912.89 3325.54 C 1839.77 3313.99 1769.48 3286.51 1707.05 3246.89 C 1680.26 3229.95 1654.85 3210.86 1630.86 3190.17 C 1604.91 3167.53 1580.05 3143.48 1558.28 3116.75 C 1511.97 3060.37 1478.59 2993.96 1457.94 2924.14 C 1444.80 2880.16 1436.55 2834.79 1432.27 2789.12 C 1427.63 2738.89 1427.69 2688.23 1432.49 2638.02 C 1433.43 2625.88 1435.62 2613.88 1436.61 2601.77 C 1420.55 2598.39 1404.96 2592.92 1389.19 2588.36 C 1385.45 2587.41 1381.96 2585.56 1378.09 2585.27 C 1378.64 2585.01 1379.21 2584.78 1379.80 2584.59 C 1376.09 2584.74 1372.75 2582.96 1369.26 2582.02 C 1325.97 2567.63 1283.36 2551.14 1241.75 2532.45 C 1204.21 2515.88 1167.72 2497.02 1131.94 2476.96 C 1097.73 2457.76 1064.20 2437.29 1032.13 2414.68 C 1015.83 2403.20 999.58 2391.64 983.81 2379.46 C 945.60 2349.94 908.67 2318.67 874.57 2284.47 C 853.19 2263.34 833.64 2240.45 815.38 2216.60 C 798.05 2193.75 782.44 2169.56 769.25 2144.09 C 752.04 2110.27 739.58 2073.76 734.96 2036.00 C 730.68 2002.38 732.64 1968.06 740.46 1935.10 C 750.08 1896.02 767.15 1858.59 791.47 1826.45 C 795.58 1820.07 801.41 1815.06 806.37 1809.37 C 810.35 1804.50 816.28 1802.05 821.11 1798.21 C 825.29 1795.45 828.96 1791.90 833.54 1789.77 C 854.50 1779.33 877.17 1772.89 899.94 1767.76 C 929.24 1761.42 959.06 1757.60 988.96 1756.01 C 998.35 1754.75 1007.91 1755.95 1017.29 1754.63 C 1044.21 1754.20 1071.14 1754.48 1098.02 1756.12 C 1103.37 1756.23 1108.76 1757.10 1114.10 1756.30 C 1115.13 1756.13 1116.16 1756.20 1117.19 1756.52 C 1115.77 1756.72 1114.35 1756.90 1112.95 1757.07 C 1167.67 1760.73 1222.12 1768.48 1276.04 1778.68 C 1299.16 1783.10 1322.15 1788.20 1345.41 1791.88 C 1365.02 1795.39 1384.83 1797.65 1404.61 1799.87 C 1438.59 1803.89 1472.77 1806.46 1506.83 1809.18 C 1532.55 1810.68 1558.20 1813.23 1584.00 1813.86 C 1589.95 1814.96 1596.03 1814.47 1602.03 1815.27 C 1615.71 1815.38 1629.35 1817.29 1643.03 1816.45 C 1640.34 1816.76 1637.67 1817.10 1635.01 1817.49 C 1651.67 1816.94 1668.32 1818.74 1684.99 1818.66 C 1689.51 1818.46 1693.97 1819.50 1698.50 1819.35 C 1720.31 1819.60 1742.12 1819.80 1763.93 1819.81 C 1763.27 1801.82 1761.40 1783.93 1760.13 1765.99 C 1757.40 1735.86 1754.30 1705.71 1748.73 1675.95 C 1742.75 1642.77 1733.77 1610.16 1722.38 1578.45 C 1693.48 1499.36 1650.61 1426.37 1605.54 1355.59 C 1595.20 1339.28 1584.24 1323.38 1574.01 1307.01 C 1551.16 1269.83 1533.00 1229.50 1522.84 1186.98 C 1512.04 1142.93 1510.64 1096.64 1518.61 1052.01 C 1525.95 1010.23 1541.28 970.06 1561.95 933.10 C 1581.89 897.32 1606.54 864.29 1634.07 834.01 C 1672.97 791.01 1717.64 753.50 1765.07 720.27 C 1795.73 698.45 1828.68 679.64 1863.89 666.23 M 2346.97 2633.93 C 2324.87 2636.92 2302.80 2640.18 2280.69 2643.00 C 2230.30 2649.42 2179.64 2654.28 2129.00 2657.98 C 2123.07 2658.82 2117.03 2658.23 2111.14 2659.34 C 2103.67 2659.36 2096.32 2660.79 2088.84 2660.54 C 2081.99 2661.62 2075.05 2661.34 2068.16 2661.69 C 2061.12 2662.74 2053.98 2662.35 2046.90 2662.64 C 2035.97 2663.81 2024.95 2663.44 2013.98 2663.73 C 2003.37 2664.87 1992.67 2664.30 1982.02 2664.62 C 1966.67 2664.84 1951.21 2664.39 1935.96 2665.16 C 1931.27 2665.73 1926.65 2664.49 1921.99 2664.70 C 1907.64 2664.71 1893.29 2664.57 1878.95 2664.42 C 1867.77 2663.05 1856.45 2663.88 1845.23 2663.25 C 1837.84 2662.31 1830.38 2662.58 1822.96 2662.29 C 1811.31 2661.37 1799.63 2660.96 1787.97 2660.17 C 1741.74 2656.98 1695.65 2652.49 1649.70 2646.27 C 1657.27 2698.86 1671.05 2750.72 1692.51 2799.39 C 1707.71 2833.68 1726.78 2866.39 1750.35 2895.62 C 1772.92 2923.67 1799.68 2948.45 1829.95 2968.01 C 1860.83 2988.03 1895.23 3002.46 1931.00 3011.02 C 1978.08 3022.30 2027.12 3023.65 2075.11 3018.34 C 2096.77 3015.81 2118.19 3011.10 2138.78 3003.89 C 2172.78 2992.03 2204.25 2973.07 2230.78 2948.74 C 2257.78 2924.07 2279.70 2894.25 2297.23 2862.26 C 2316.11 2827.59 2330.11 2790.42 2340.51 2752.38 C 2351.18 2713.02 2358.37 2672.73 2362.25 2632.14 C 2357.10 2632.25 2352.05 2633.29 2346.97 2633.93 Z" />
</g>
</svg>
