<?xml version="1.0" encoding="UTF-8" ?>
<!DOCTYPE svg PUBLIC "-//W3C//DTD SVG 1.1//EN" "http://www.w3.org/Graphics/SVG/1.1/DTD/svg11.dtd">
<svg width="1250pt" height="1250pt" viewBox="0 0 1250 1250" version="1.1" xmlns="http://www.w3.org/2000/svg">
<g id="#000000ff">
<path fill="#000000" opacity="1.00" d=" M 646.18 275.28 C 663.25 271.47 681.94 271.32 698.02 278.96 C 712.69 286.13 723.31 299.28 731.65 312.96 C 737.71 310.50 743.72 307.87 750.10 306.30 C 777.38 297.89 806.94 293.85 834.96 301.07 C 858.93 305.93 880.90 318.72 898.09 335.97 C 905.69 344.50 912.03 354.12 917.19 364.32 C 929.56 366.45 940.01 373.93 949.57 381.64 C 964.66 394.46 977.27 410.62 984.14 429.33 C 991.57 432.19 999.03 435.15 1005.86 439.30 C 1009.04 441.19 1012.83 442.08 1015.54 444.74 C 1019.74 448.80 1024.45 452.30 1028.78 456.23 C 1032.92 459.10 1035.19 463.73 1038.50 467.42 C 1042.10 471.38 1044.32 476.30 1047.17 480.79 C 1054.08 493.15 1057.37 507.12 1059.81 520.95 C 1063.10 541.04 1060.37 561.46 1056.58 581.27 C 1067.08 585.02 1076.62 592.14 1081.64 602.29 C 1090.65 620.10 1093.21 640.91 1090.32 660.57 C 1088.11 676.47 1080.39 690.92 1071.60 704.11 C 1072.75 718.38 1074.54 732.64 1074.25 746.99 C 1073.95 754.36 1075.37 762.21 1072.12 769.13 C 1069.26 774.61 1062.87 776.73 1057.04 776.73 C 773.01 776.74 488.98 776.73 204.96 776.74 C 200.06 776.60 194.68 775.50 191.39 771.55 C 188.47 768.51 188.13 764.12 187.32 760.21 C 183.51 757.75 180.94 754.00 178.91 750.04 C 166.69 730.36 156.70 708.91 152.70 685.96 C 149.41 671.25 149.29 655.73 153.15 641.12 C 155.01 631.92 158.48 623.13 162.90 614.88 C 171.61 600.67 182.75 587.68 196.85 578.62 C 192.42 559.70 189.55 539.67 194.38 520.54 C 197.80 506.22 205.87 492.46 218.56 484.55 C 228.68 478.03 240.45 474.77 252.18 472.63 C 252.97 458.65 255.85 444.89 259.61 431.44 C 261.73 425.69 263.23 419.67 266.29 414.32 C 268.27 410.61 270.36 406.97 272.45 403.33 C 275.78 397.26 280.88 392.48 285.30 387.23 C 297.97 374.58 313.83 365.06 331.13 360.29 C 339.37 358.03 347.70 356.04 356.18 354.84 C 357.92 343.81 364.21 333.52 374.01 327.91 C 394.25 315.85 418.90 316.19 441.62 318.18 C 447.11 311.23 453.03 304.54 459.76 298.75 C 465.84 292.94 473.32 288.89 480.60 284.79 C 491.81 279.88 503.92 277.21 516.06 275.91 C 532.04 275.88 547.87 279.51 562.71 285.29 C 572.28 289.58 581.65 294.39 590.50 300.03 C 607.79 289.30 626.24 279.91 646.18 275.28 M 653.96 287.03 C 635.29 289.99 617.93 298.20 601.76 307.70 C 602.78 308.70 603.80 309.70 604.85 310.70 C 641.96 307.92 679.41 311.18 715.87 318.39 C 708.76 308.87 701.29 299.14 691.01 292.85 C 679.98 286.18 666.48 285.04 653.96 287.03 M 619.07 325.21 C 577.53 326.45 536.17 333.69 496.72 346.80 C 430.72 368.65 370.28 406.97 322.29 457.28 C 275.53 506.12 240.55 566.14 221.12 630.91 C 208.25 673.24 202.24 717.57 202.47 761.78 C 488.07 761.78 773.68 761.78 1059.28 761.78 C 1060.89 674.12 1034.47 586.29 985.32 513.74 C 953.73 466.92 912.80 426.44 865.62 395.41 C 800.67 352.52 723.80 327.95 646.00 325.35 C 637.04 324.74 628.03 324.32 619.07 325.21 M 388.64 334.64 C 380.96 338.37 375.13 345.42 372.93 353.68 C 388.36 353.29 403.80 354.87 418.94 357.84 C 424.03 347.74 428.69 337.39 434.90 327.90 C 419.32 327.36 402.90 327.57 388.64 334.64 M 922.93 380.56 C 926.77 392.95 929.75 405.63 931.18 418.54 C 935.12 419.14 939.09 419.57 943.06 419.98 C 951.74 420.58 960.15 422.93 968.61 424.79 C 963.69 415.61 958.31 406.52 951.05 398.98 C 943.24 390.86 934.10 383.30 922.93 380.56 M 227.21 501.22 C 219.66 506.50 214.01 514.36 211.24 523.13 C 206.27 538.14 207.60 554.34 210.31 569.66 C 217.48 565.30 225.38 562.38 232.99 558.91 C 239.38 546.82 245.69 534.64 252.94 523.02 C 255.04 520.39 253.91 517.03 253.62 514.03 C 252.44 506.45 252.33 498.79 252.06 491.15 C 243.42 493.48 234.66 496.11 227.21 501.22 M 1052.81 596.31 C 1051.82 600.26 1050.49 604.13 1049.64 608.12 C 1050.78 613.11 1052.80 617.87 1054.10 622.83 C 1060.42 642.81 1064.83 663.33 1068.66 683.91 C 1077.65 663.59 1081.21 639.75 1073.52 618.46 C 1070.08 608.55 1062.32 600.57 1052.81 596.31 Z" />
<path fill="#000000" opacity="1.00" d=" M 734.48 510.79 C 748.34 508.17 762.95 510.30 775.69 516.26 C 790.70 523.52 802.14 537.24 807.48 552.94 C 809.80 559.77 803.48 568.44 796.06 566.68 C 791.20 565.74 789.06 560.89 787.10 556.92 C 782.14 546.49 773.55 537.42 762.50 533.52 C 747.02 527.84 728.60 531.34 716.30 542.32 C 713.61 544.62 711.41 547.41 708.95 549.94 C 705.99 553.03 700.65 553.34 697.37 550.60 C 694.35 548.02 693.07 543.83 693.35 539.97 C 693.79 534.74 697.70 530.81 701.10 527.19 C 710.01 518.15 722.11 512.95 734.48 510.79 Z" />
<path fill="#000000" opacity="1.00" d=" M 529.11 512.09 C 549.83 509.37 573.21 515.64 586.30 532.78 C 590.96 538.65 588.43 550.18 580.15 550.95 C 575.96 551.67 572.83 548.46 570.16 545.78 C 561.74 537.33 549.94 532.39 537.99 532.49 C 524.63 532.14 511.17 538.45 503.23 549.28 C 499.38 554.20 497.04 560.03 494.53 565.69 C 492.64 570.32 486.82 573.18 482.13 571.01 C 477.01 568.72 474.81 562.28 476.43 557.10 C 480.43 544.22 488.03 532.20 499.02 524.20 C 507.75 517.56 518.32 513.64 529.11 512.09 Z" />
<path fill="#000000" opacity="1.00" d=" M 406.22 605.31 C 413.27 602.44 421.84 606.85 424.01 614.04 C 426.93 621.89 421.45 631.60 413.04 632.68 C 406.02 633.97 398.86 628.79 397.49 621.88 C 395.86 615.20 399.67 607.62 406.22 605.31 Z" />
<path fill="#000000" opacity="1.00" d=" M 853.40 607.65 C 859.51 604.73 867.46 607.36 870.73 613.26 C 874.74 619.70 872.54 629.10 865.93 632.92 C 859.89 636.73 851.17 634.65 847.47 628.55 C 842.67 621.64 845.61 610.95 853.40 607.65 Z" />
<path fill="#000000" opacity="1.00" d=" M 700.22 632.38 C 707.77 629.71 712.62 640.00 710.08 646.06 C 702.79 664.83 690.06 682.35 671.93 691.86 C 655.92 700.32 636.62 701.94 619.31 696.79 C 595.87 690.48 575.63 673.24 565.91 650.98 C 563.82 646.48 564.77 641.26 566.97 637.01 C 568.34 634.33 571.63 632.42 574.60 633.55 C 577.57 634.82 579.02 637.92 580.56 640.56 C 588.51 655.56 601.13 668.50 617.01 674.98 C 632.24 681.58 650.59 681.52 665.11 673.07 C 677.88 666.10 686.70 653.95 693.36 641.33 C 695.32 638.16 696.69 634.13 700.22 632.38 Z" />
<path fill="#000000" opacity="1.00" d=" M 372.40 662.67 C 379.74 659.34 389.01 664.18 390.84 671.93 C 393.02 679.02 388.73 687.36 381.55 689.44 C 374.43 691.87 366.17 687.08 364.34 679.89 C 362.19 673.19 365.85 665.27 372.40 662.67 Z" />
<path fill="#000000" opacity="1.00" d=" M 430.45 662.57 C 437.09 659.77 445.30 663.38 448.00 669.99 C 451.46 677.28 447.40 687.00 439.62 689.36 C 432.91 691.79 425.02 687.77 422.61 681.17 C 419.64 674.18 423.30 665.25 430.45 662.57 Z" />
<path fill="#000000" opacity="1.00" d=" M 829.40 664.62 C 836.62 661.44 845.60 666.04 847.65 673.55 C 850.42 681.48 844.62 691.19 836.11 691.88 C 829.51 692.89 822.92 688.23 821.24 681.87 C 819.10 675.15 822.82 667.18 829.40 664.62 Z" />
<path fill="#000000" opacity="1.00" d=" M 888.24 664.26 C 895.49 661.74 903.95 666.69 905.63 674.11 C 907.87 681.55 902.85 690.28 895.14 691.73 C 887.94 693.52 880.24 688.17 878.85 681.01 C 877.12 674.11 881.37 666.30 888.24 664.26 Z" />
<path fill="#000000" opacity="1.00" d=" M 330.35 813.28 C 338.00 806.87 349.37 805.40 358.41 809.60 C 364.40 812.41 368.40 818.18 370.54 824.28 C 373.39 832.38 374.18 841.09 373.98 849.64 C 370.17 852.33 366.55 855.28 362.65 857.85 C 361.64 847.81 363.43 837.25 359.48 827.64 C 357.98 823.63 354.57 819.86 350.01 819.77 C 346.69 819.32 344.09 821.94 342.61 824.60 C 339.88 829.49 338.72 835.06 337.77 840.54 C 335.63 854.22 335.35 868.11 335.37 881.93 C 335.52 893.42 335.94 905.05 338.71 916.25 C 340.05 921.01 341.72 926.10 345.65 929.37 C 348.86 932.09 353.96 931.75 357.01 928.94 C 361.37 925.01 363.46 919.22 364.78 913.65 C 366.75 904.96 365.78 896.02 365.31 887.22 C 369.38 888.36 373.22 890.14 377.07 891.87 C 377.70 902.73 377.52 914.02 373.18 924.18 C 370.01 931.69 364.41 938.57 356.69 941.67 C 345.11 946.23 330.50 943.39 322.52 933.50 C 313.93 923.02 311.38 909.12 309.95 896.00 C 308.34 876.77 308.62 856.93 314.67 838.43 C 317.88 829.04 322.58 819.71 330.35 813.28 Z" />
<path fill="#000000" opacity="1.00" d=" M 410.45 807.71 C 420.50 805.50 431.97 808.11 438.87 816.09 C 447.89 826.35 450.58 840.38 452.22 853.54 C 453.92 871.37 453.92 889.52 450.68 907.19 C 448.52 917.88 444.91 929.05 436.62 936.62 C 428.14 944.33 415.03 945.70 404.66 941.29 C 395.76 937.41 390.12 928.72 386.91 919.89 C 381.90 905.87 380.85 890.80 380.63 876.03 C 380.65 859.54 381.50 842.47 388.17 827.14 C 392.17 817.77 400.14 809.59 410.45 807.71 M 414.28 820.21 C 409.72 823.59 409.25 829.90 408.41 835.08 C 406.52 853.64 406.81 872.35 407.01 890.99 C 407.25 900.16 407.48 909.36 408.80 918.44 C 409.51 922.42 410.33 926.78 413.27 929.78 C 415.63 932.20 419.95 931.47 421.67 928.65 C 424.74 924.09 425.18 918.41 425.80 913.10 C 427.13 898.43 427.08 883.69 427.05 868.97 C 426.72 855.33 427.10 841.48 424.26 828.06 C 423.48 823.57 419.58 817.30 414.28 820.21 Z" />
<path fill="#000000" opacity="1.00" d=" M 598.47 807.65 C 608.30 805.60 619.45 808.08 626.30 815.75 C 635.14 825.46 637.99 838.90 639.73 851.53 C 641.63 868.44 641.63 885.63 639.25 902.50 C 637.37 914.06 634.24 926.21 626.04 935.01 C 614.58 947.40 592.09 946.61 581.86 933.04 C 572.05 920.25 569.99 903.52 568.79 887.93 C 567.91 868.72 567.96 848.86 574.51 830.53 C 578.28 819.74 586.70 809.65 598.47 807.65 M 602.22 820.10 C 598.62 822.37 597.64 826.93 596.81 830.82 C 595.25 840.14 595.05 849.62 594.78 859.05 C 594.51 876.03 594.42 893.05 595.61 910.01 C 596.16 915.73 596.48 921.68 598.99 926.96 C 600.16 929.61 602.94 931.98 606.03 931.11 C 609.85 929.96 611.19 925.65 612.15 922.20 C 614.17 912.66 614.27 902.86 614.63 893.15 C 614.94 875.75 615.05 858.31 613.84 840.94 C 613.23 834.88 612.98 828.48 610.02 823.02 C 608.67 820.23 605.09 818.45 602.22 820.10 Z" />
<path fill="#000000" opacity="1.00" d=" M 837.47 812.60 C 845.00 806.81 855.73 805.60 864.39 809.47 C 869.73 811.89 873.62 816.71 875.89 822.02 C 879.59 830.59 880.19 840.07 880.41 849.29 C 876.87 852.01 873.46 854.94 869.65 857.28 C 869.38 857.18 868.83 856.98 868.55 856.88 C 868.34 847.02 869.41 836.71 865.61 827.35 C 864.06 823.34 860.51 819.71 855.96 819.75 C 852.12 819.46 849.55 822.94 848.10 826.03 C 844.58 833.71 843.66 842.24 842.76 850.54 C 841.52 864.97 841.31 879.49 841.96 893.96 C 842.61 903.67 843.37 913.64 847.17 922.72 C 848.92 926.77 852.14 931.20 857.01 931.25 C 862.44 931.43 866.08 926.53 868.17 922.12 C 873.42 911.25 872.33 898.86 871.56 887.21 C 875.63 888.36 879.47 890.14 883.32 891.87 C 883.95 902.78 883.77 914.14 879.37 924.34 C 875.97 932.36 869.68 939.64 861.16 942.31 C 851.42 945.34 839.90 943.71 832.12 936.87 C 826.07 931.65 822.44 924.22 820.12 916.70 C 816.71 905.48 815.68 893.69 815.42 882.02 C 815.11 866.16 816.45 849.97 822.13 835.03 C 825.46 826.56 830.12 818.22 837.47 812.60 Z" />
<path fill="#000000" opacity="1.00" d=" M 179.21 809.41 C 200.88 809.05 222.59 809.31 244.27 809.29 C 244.50 814.26 244.48 819.24 244.32 824.21 C 237.85 824.31 231.38 824.25 224.91 824.27 C 224.88 863.29 224.94 902.31 224.88 941.33 C 216.13 941.68 207.37 941.44 198.62 941.48 C 198.19 902.42 198.55 863.35 198.44 824.28 C 191.92 824.23 185.40 824.34 178.87 824.18 C 179.00 819.26 178.30 814.26 179.21 809.41 Z" />
<path fill="#000000" opacity="1.00" d=" M 264.42 809.34 C 271.67 809.15 278.92 809.29 286.18 809.24 C 293.92 853.24 301.28 897.31 308.68 941.37 C 300.34 941.66 291.98 941.49 283.64 941.47 C 281.94 932.09 280.47 922.66 278.86 913.26 C 271.45 913.26 264.03 913.27 256.62 913.26 C 254.81 922.68 253.42 932.18 251.37 941.55 C 247.79 941.54 244.21 941.51 240.63 941.39 C 248.34 897.33 256.42 853.34 264.42 809.34 M 259.24 898.25 C 264.95 898.25 270.66 898.25 276.38 898.25 C 273.64 881.36 270.88 864.48 268.14 847.60 C 265.17 864.48 262.20 881.36 259.24 898.25 Z" />
<path fill="#000000" opacity="1.00" d=" M 497.18 809.33 C 509.13 809.16 521.08 809.29 533.02 809.24 C 540.37 809.17 548.26 810.96 553.54 816.41 C 559.15 822.06 561.08 830.24 561.59 837.96 C 562.08 846.38 561.32 855.39 556.68 862.69 C 554.39 866.41 550.86 869.11 547.15 871.30 C 554.46 874.47 560.16 880.83 562.54 888.43 C 565.78 898.49 565.75 909.44 563.74 919.75 C 562.18 927.45 557.98 935.19 550.64 938.71 C 543.62 942.28 535.55 941.43 527.95 941.52 C 517.65 941.41 507.34 941.75 497.05 941.33 C 497.12 897.33 496.87 853.32 497.18 809.33 M 522.13 821.98 C 522.12 836.66 522.13 851.34 522.12 866.02 C 524.94 865.93 527.86 866.32 530.60 865.52 C 534.34 863.61 535.40 859.05 536.17 855.27 C 537.30 847.74 537.42 840.00 536.24 832.47 C 535.48 828.71 534.19 824.31 530.44 822.53 C 527.76 821.68 524.88 822.07 522.13 821.98 M 522.13 878.73 C 522.12 895.41 522.12 912.09 522.13 928.78 C 526.43 928.68 531.68 929.50 534.76 925.73 C 539.62 919.67 539.50 911.35 539.61 903.98 C 539.28 896.42 539.15 887.99 534.22 881.80 C 531.31 878.14 526.26 878.77 522.13 878.73 Z" />
<path fill="#000000" opacity="1.00" d=" M 648.38 809.36 C 656.51 809.26 664.66 809.03 672.78 809.42 C 673.77 810.67 673.20 812.50 673.41 814.00 C 673.41 844.56 673.22 875.12 673.51 905.67 C 673.89 911.31 674.02 917.25 676.61 922.42 C 679.18 927.40 685.84 928.47 690.75 926.76 C 695.23 925.04 697.69 920.44 698.99 916.08 C 701.72 906.65 700.99 896.72 701.11 887.02 C 701.20 861.13 700.93 835.23 701.25 809.34 C 704.36 809.22 707.50 809.08 710.61 809.47 C 711.24 821.94 710.69 834.47 710.87 846.97 C 710.82 865.34 710.98 883.70 710.79 902.07 C 710.27 913.50 708.54 925.90 700.78 934.87 C 693.51 943.20 681.19 945.00 670.89 942.46 C 663.34 940.67 657.11 935.04 653.84 928.10 C 649.07 918.15 648.26 906.89 648.29 896.02 C 648.36 867.14 648.18 838.25 648.38 809.36 Z" />
<path fill="#000000" opacity="1.00" d=" M 714.07 809.41 C 735.63 809.14 757.24 809.14 778.80 809.41 C 779.64 814.28 779.01 819.26 779.11 824.18 C 772.63 824.33 766.15 824.24 759.67 824.26 C 759.56 863.33 759.83 902.40 759.53 941.46 C 750.80 941.57 742.07 941.50 733.35 941.51 C 732.98 902.43 733.29 863.35 733.19 824.27 C 726.68 824.25 720.17 824.31 713.66 824.21 C 713.81 819.30 712.89 814.18 714.07 809.41 Z" />
<path fill="#000000" opacity="1.00" d=" M 889.39 809.35 C 896.59 809.16 903.80 809.27 911.01 809.23 C 912.17 809.37 914.66 808.84 914.32 810.87 C 914.45 838.90 914.34 866.95 914.37 894.98 C 914.52 903.64 914.01 912.64 916.91 920.94 C 919.68 929.11 932.31 929.68 936.81 922.78 C 941.36 916.16 941.77 907.75 942.07 899.98 C 942.16 873.33 942.08 846.68 942.11 820.02 C 942.15 816.50 941.83 812.94 942.41 809.46 C 945.45 809.06 948.56 809.08 951.61 809.48 C 952.23 832.61 951.69 855.80 951.87 878.96 C 951.60 893.23 953.06 907.88 948.81 921.74 C 946.64 928.97 942.44 936.01 935.71 939.81 C 928.30 943.97 919.17 944.42 911.08 942.23 C 903.60 940.22 897.62 934.37 894.50 927.40 C 889.90 917.28 889.21 905.94 889.29 894.99 C 889.36 866.44 889.16 837.89 889.39 809.35 Z" />
<path fill="#000000" opacity="1.00" d=" M 955.16 809.43 C 964.09 808.98 973.06 809.39 982.01 809.25 C 994.60 809.37 1007.20 809.02 1019.77 809.41 C 1020.69 814.26 1019.98 819.26 1020.11 824.18 C 1013.61 824.36 1007.11 824.19 1000.62 824.32 C 1000.71 853.89 1000.63 883.46 1000.66 913.03 C 1000.43 922.45 1001.11 931.92 1000.34 941.31 C 991.80 941.66 983.21 941.58 974.68 941.38 C 973.90 940.06 974.28 938.40 974.15 936.97 C 974.23 899.40 974.17 861.83 974.19 824.27 C 967.67 824.25 961.16 824.31 954.66 824.21 C 954.88 819.33 953.76 814.03 955.16 809.43 Z" />
<path fill="#000000" opacity="1.00" d=" M 1024.19 809.32 C 1039.46 809.15 1054.73 809.32 1070.01 809.23 C 1072.47 809.22 1074.98 809.07 1077.42 809.59 C 1077.89 814.47 1077.58 819.38 1077.44 824.27 C 1068.00 824.26 1058.56 824.27 1049.13 824.26 C 1049.12 836.76 1049.12 849.25 1049.13 861.75 C 1057.06 861.78 1064.99 861.66 1072.93 861.83 C 1073.12 866.78 1073.13 871.75 1072.93 876.70 C 1064.99 876.83 1057.06 876.73 1049.13 876.77 C 1049.12 893.34 1049.12 909.92 1049.13 926.50 C 1060.22 926.60 1071.32 926.29 1082.42 926.67 C 1082.46 931.57 1082.46 936.48 1082.38 941.40 C 1062.95 941.54 1043.51 941.64 1024.08 941.34 C 1024.09 897.34 1023.87 853.32 1024.19 809.32 Z" />
</g>
</svg>
