<?xml version="1.0" encoding="UTF-8" ?>
<!DOCTYPE svg PUBLIC "-//W3C//DTD SVG 1.1//EN" "http://www.w3.org/Graphics/SVG/1.1/DTD/svg11.dtd">
<svg width="1200pt" height="1200pt" viewBox="0 0 1200 1200" version="1.1" xmlns="http://www.w3.org/2000/svg">
<g id="#000000ff">
<path fill="#000000" opacity="1.00" d=" M 660.98 159.03 C 663.30 156.91 666.69 157.72 669.43 158.41 C 688.62 163.72 707.84 168.91 727.08 174.04 C 730.88 175.00 734.25 177.42 736.31 180.78 C 740.56 187.45 745.08 193.94 749.36 200.58 C 750.62 202.71 752.63 204.28 754.98 205.06 C 867.57 245.09 959.85 337.57 1000.45 449.86 C 1005.44 463.43 1009.46 477.34 1013.01 491.36 C 1016.62 490.75 1020.20 489.43 1023.91 489.67 C 1028.33 490.01 1031.37 494.76 1030.26 498.97 C 1027.90 513.32 1025.46 527.66 1023.04 542.00 C 1022.47 545.16 1021.69 548.93 1018.47 550.44 C 1014.51 552.53 1009.34 550.38 1007.75 546.27 C 1001.65 533.44 995.41 520.67 989.13 507.93 C 987.64 505.04 986.46 501.39 988.60 498.49 C 990.95 494.83 995.77 495.13 999.51 494.10 C 986.85 439.57 960.98 388.46 926.27 344.67 C 879.68 285.84 816.45 239.80 745.13 215.95 C 738.73 218.99 732.21 221.76 725.85 224.87 C 722.84 226.38 719.33 226.25 716.12 225.56 C 696.45 221.23 676.73 217.09 657.07 212.72 C 654.08 212.09 650.35 210.49 650.19 206.95 C 649.89 204.31 652.09 202.35 654.37 201.53 C 662.40 198.33 670.55 195.42 678.53 192.10 C 672.66 184.15 666.50 176.42 660.61 168.49 C 658.41 165.84 658.06 161.29 660.98 159.03 Z" />
<path fill="#000000" opacity="1.00" d=" M 491.41 175.04 C 492.60 171.03 497.33 169.39 501.13 170.38 C 515.77 172.94 530.41 175.55 545.05 178.16 C 546.99 178.52 549.04 179.02 550.54 180.41 C 554.35 183.63 553.57 190.90 548.77 192.79 C 535.71 199.02 522.63 205.22 509.58 211.49 C 506.69 212.98 502.99 213.84 500.12 211.85 C 496.25 209.48 496.75 204.35 495.54 200.52 C 447.68 211.88 402.06 232.45 361.87 260.80 C 294.45 307.97 242.28 376.92 216.22 455.03 C 218.75 462.34 222.80 469.11 225.71 476.30 C 226.73 479.17 226.27 482.28 225.69 485.19 C 221.54 504.49 217.55 523.82 213.51 543.14 C 212.88 545.82 212.10 549.03 209.32 550.25 C 206.57 551.86 203.22 549.58 202.27 546.90 C 198.97 538.71 195.86 530.45 192.61 522.24 C 184.40 528.13 176.56 534.52 168.39 540.45 C 165.77 542.58 161.55 542.34 159.49 539.55 C 157.63 537.64 158.01 534.79 158.61 532.44 C 163.86 512.66 169.12 492.89 174.27 473.08 C 175.09 469.52 177.37 466.45 180.45 464.52 C 187.34 460.05 194.18 455.49 201.06 451.00 C 202.93 449.85 204.32 448.05 204.99 445.96 C 225.01 388.70 258.49 336.23 301.75 293.74 C 342.50 253.30 391.83 221.48 445.74 201.65 C 461.17 195.97 476.91 191.17 492.89 187.31 C 492.21 183.27 490.45 179.17 491.41 175.04 Z" />
<path fill="#000000" opacity="1.00" d=" M 606.23 170.26 C 614.93 167.16 625.22 173.72 625.97 182.93 C 627.36 190.95 621.16 199.26 613.03 200.02 C 605.82 201.19 598.33 196.48 596.28 189.47 C 593.59 181.74 598.47 172.63 606.23 170.26 Z" />
<path fill="#000000" opacity="1.00" d=" M 574.41 174.56 C 581.15 172.73 588.28 179.03 587.41 185.91 C 586.94 191.83 580.89 196.50 575.03 195.32 C 568.58 194.55 564.57 186.95 567.05 181.08 C 568.32 177.93 571.06 175.34 574.41 174.56 Z" />
<path fill="#000000" opacity="1.00" d=" M 640.29 175.42 C 647.46 172.74 655.57 179.58 653.99 187.10 C 653.25 195.13 642.35 198.84 636.65 193.31 C 630.54 188.41 632.70 177.49 640.29 175.42 Z" />
<path fill="#000000" opacity="1.00" d=" M 584.68 330.71 C 586.51 328.07 586.42 323.61 590.04 322.64 C 593.31 321.33 597.51 324.22 596.56 327.86 C 594.26 338.60 587.95 348.77 578.38 354.46 C 568.71 360.29 557.08 361.81 545.97 361.60 C 534.47 361.34 523.12 359.25 511.92 356.78 C 505.58 375.82 502.45 395.74 499.73 415.57 C 496.27 443.55 494.27 471.91 496.92 500.06 C 498.17 511.22 499.91 522.72 505.50 532.64 C 508.25 537.50 513.11 541.96 519.06 541.64 C 524.96 541.57 529.05 536.39 531.76 531.72 C 536.27 523.39 539.20 514.20 540.94 504.93 C 538.29 494.82 537.10 484.23 538.89 473.85 C 540.63 462.44 545.08 450.72 554.30 443.28 C 560.80 437.97 569.56 435.55 577.87 436.54 C 585.38 437.50 591.10 443.85 593.06 450.89 C 595.96 460.89 595.03 472.42 589.20 481.23 C 583.46 489.85 573.08 493.97 563.07 494.70 C 563.97 505.05 566.67 515.60 572.84 524.13 C 575.70 527.87 580.01 531.69 585.10 530.76 C 593.33 529.62 599.18 522.74 602.81 515.77 C 605.60 510.19 608.14 504.34 609.36 498.20 C 606.54 482.34 606.55 466.13 607.76 450.11 C 607.94 447.00 609.38 443.93 612.00 442.17 C 616.61 438.99 622.90 438.91 627.93 441.15 C 631.01 442.55 633.74 445.42 633.93 448.95 C 634.04 463.12 632.44 477.30 633.39 491.45 C 635.06 479.05 637.99 466.81 641.96 454.95 C 645.57 444.91 650.23 434.52 658.89 427.82 C 665.76 422.34 676.10 421.61 683.34 426.79 C 690.75 431.95 693.15 441.37 694.15 449.85 C 695.75 466.29 693.16 482.73 691.03 499.00 C 689.56 510.61 687.39 522.24 687.81 533.99 C 688.10 536.93 688.20 540.75 691.09 542.41 C 694.42 543.13 697.34 540.75 699.40 538.42 C 703.28 533.91 705.71 528.37 707.93 522.90 C 713.25 509.05 716.49 494.51 719.14 479.96 C 719.49 478.04 719.89 475.84 721.67 474.71 C 724.26 472.70 728.78 473.71 729.66 477.04 C 730.27 480.32 729.22 483.62 728.84 486.88 C 726.11 502.74 722.53 518.74 715.20 533.18 C 711.05 540.96 705.33 548.99 696.48 551.64 C 687.05 554.06 675.92 550.99 670.02 542.97 C 664.47 535.54 662.90 526.03 662.20 517.01 C 660.97 495.88 665.13 474.99 667.41 454.07 C 667.92 448.53 668.60 442.83 667.09 437.38 C 665.04 438.04 663.01 438.97 661.71 440.77 C 657.95 445.45 655.86 451.18 653.86 456.77 C 647.58 475.25 644.81 494.66 639.57 513.42 C 638.37 516.89 637.29 521.88 632.87 522.34 C 625.90 524.12 618.95 520.06 615.31 514.24 C 612.04 522.26 607.60 530.18 600.60 535.53 C 593.28 541.17 583.22 543.01 574.36 540.41 C 563.75 537.44 555.10 529.74 548.89 520.85 C 545.47 531.53 540.98 542.86 531.59 549.68 C 523.86 555.22 513.53 554.00 505.03 551.07 C 493.05 546.73 484.41 536.37 478.79 525.29 C 471.07 509.91 467.58 492.80 465.50 475.84 C 462.53 449.28 463.42 422.35 467.27 395.92 C 469.71 380.34 472.96 364.71 479.26 350.17 C 461.33 348.18 442.63 347.67 425.32 353.48 C 415.10 356.93 405.38 363.60 400.80 373.66 C 397.76 379.69 397.14 386.50 396.88 393.15 C 397.04 396.95 392.53 399.81 389.19 397.93 C 386.93 396.86 386.72 394.12 386.77 391.94 C 386.89 378.66 390.22 365.02 398.28 354.26 C 407.21 342.01 421.12 334.25 435.56 330.38 C 457.56 324.41 481.03 325.52 502.99 331.11 C 522.04 335.62 541.16 341.32 560.91 341.15 C 569.66 341.03 579.93 338.87 584.68 330.71 M 570.82 446.82 C 567.29 449.57 565.61 453.95 564.35 458.11 C 561.98 466.89 561.76 476.10 562.36 485.12 C 567.27 484.85 572.20 483.22 575.88 479.86 C 581.14 475.12 583.41 467.90 583.76 461.00 C 584.22 455.52 582.14 449.64 577.81 446.14 C 575.74 444.37 572.76 445.38 570.82 446.82 Z" />
<path fill="#000000" opacity="1.00" d=" M 782.09 535.17 C 791.56 526.39 805.60 522.07 818.18 525.76 C 825.36 527.86 830.64 534.09 832.90 541.06 C 836.24 551.25 836.11 562.26 834.75 572.80 C 832.10 590.30 825.61 607.19 816.15 622.13 C 808.73 633.75 799.13 644.45 786.66 650.71 C 788.04 664.58 788.78 678.53 791.25 692.27 C 792.17 678.15 793.97 663.77 799.72 650.72 C 802.87 643.73 808.10 636.69 815.99 634.95 C 825.67 633.10 835.95 637.23 842.42 644.50 C 848.72 651.58 852.17 660.76 853.87 669.97 C 856.93 687.83 855.08 706.04 856.65 724.02 C 857.13 727.85 857.47 732.35 860.95 734.77 C 865.43 730.89 866.83 724.86 868.63 719.47 C 873.43 702.65 876.08 685.30 878.09 667.95 C 878.91 664.83 876.81 662.24 875.52 659.63 C 871.32 651.51 868.12 642.88 866.10 633.98 C 864.11 625.27 865.71 615.47 871.45 608.46 C 878.32 600.09 890.76 597.58 900.74 601.22 C 906.28 603.16 910.70 607.81 912.46 613.41 C 914.70 620.43 914.29 628.15 912.39 635.20 C 911.35 638.92 905.12 639.03 904.55 634.94 C 904.47 630.32 906.26 625.72 905.28 621.07 C 904.66 614.33 899.17 607.49 891.96 607.77 C 887.11 607.78 883.71 612.42 883.43 616.94 C 882.40 625.11 886.70 632.57 890.74 639.30 C 904.56 661.11 923.06 679.54 936.58 701.55 C 945.17 691.27 951.10 678.81 953.35 665.58 C 954.08 662.12 954.07 658.53 955.10 655.15 C 957.03 651.60 963.63 652.85 964.09 656.88 C 963.71 677.10 956.39 697.70 941.29 711.61 C 944.16 722.39 943.47 733.92 940.45 744.58 C 938.00 752.96 933.45 761.16 926.06 766.12 C 920.24 770.04 912.98 771.74 906.02 771.10 C 900.78 770.62 895.46 768.04 892.83 763.33 C 889.40 757.45 889.94 750.15 892.09 743.93 C 895.75 733.28 903.75 724.62 913.01 718.46 C 905.64 704.37 896.02 691.64 886.77 678.76 C 885.10 694.20 883.19 709.76 878.37 724.59 C 876.22 730.72 873.61 737.10 868.60 741.47 C 864.05 745.48 857.47 744.88 851.93 743.87 C 841.91 742.07 832.96 734.87 829.65 725.16 C 825.38 712.90 825.66 699.72 824.79 686.93 C 824.06 675.19 823.96 663.29 821.21 651.80 C 820.34 649.32 819.67 645.93 816.90 644.95 C 812.96 645.28 811.15 649.54 809.53 652.61 C 804.09 665.30 802.29 679.18 800.79 692.80 C 799.89 702.50 799.38 712.31 800.64 722.01 C 800.87 727.73 793.13 730.17 788.98 727.06 C 782.20 721.70 778.42 713.71 773.80 706.63 C 771.73 718.75 769.50 731.23 763.18 741.97 C 759.95 747.48 754.89 752.35 748.44 753.65 C 738.55 755.50 728.03 752.10 720.72 745.27 C 711.89 737.17 706.69 726.03 702.70 714.93 C 699.47 730.41 695.87 746.94 685.13 759.14 C 676.15 769.52 658.39 768.33 649.59 758.34 C 643.37 751.37 640.75 742.06 639.13 733.07 C 634.55 704.87 638.90 676.32 639.31 647.99 C 639.13 643.46 639.54 638.62 637.52 634.44 C 636.22 632.24 633.82 634.54 632.58 635.62 C 627.94 640.78 626.09 647.72 624.17 654.22 C 618.67 675.41 616.89 697.31 613.34 718.86 C 612.44 723.54 611.82 728.41 609.74 732.75 C 608.79 734.95 606.19 735.37 604.11 735.81 C 599.46 736.76 594.60 734.97 591.20 731.78 C 587.19 728.01 584.64 722.97 582.79 717.87 C 576.59 725.67 567.31 731.12 557.25 731.66 C 553.98 738.98 549.80 746.99 541.93 750.13 C 531.58 753.60 519.72 751.40 510.88 745.13 C 505.75 741.62 501.62 736.87 498.20 731.72 C 494.48 744.04 489.52 756.91 479.44 765.43 C 474.15 770.06 466.85 771.02 460.08 770.41 C 451.45 769.91 442.73 766.65 436.79 760.20 C 428.90 751.80 425.76 740.22 424.15 729.10 C 421.44 708.30 423.58 687.27 425.79 666.53 C 427.44 650.38 430.22 634.28 430.15 618.01 C 429.79 614.10 430.15 609.04 426.59 606.49 C 422.01 605.65 417.78 608.64 414.82 611.84 C 408.87 618.46 405.42 626.87 402.40 635.14 C 394.07 659.55 390.30 685.25 387.70 710.83 C 386.69 717.82 377.37 721.73 371.91 717.03 C 367.11 713.07 368.94 706.32 369.07 700.97 C 369.75 676.31 368.80 651.62 367.02 627.02 C 365.57 609.76 364.06 592.36 359.63 575.57 C 358.06 570.92 356.93 565.33 352.65 562.36 C 347.02 561.81 343.09 567.13 340.29 571.32 C 332.60 584.18 328.98 598.96 325.56 613.42 C 319.76 639.92 316.50 666.92 314.29 693.93 C 312.77 714.15 311.67 734.45 312.38 754.73 C 312.46 757.99 313.53 762.12 310.52 764.47 C 305.76 767.93 298.09 765.49 295.86 760.12 C 290.28 748.49 286.21 736.20 282.45 723.88 C 275.58 700.85 270.31 677.32 267.29 653.47 C 265.11 635.38 264.04 616.98 266.47 598.87 C 267.06 593.96 271.07 590.34 275.30 588.30 C 280.62 585.76 287.16 584.73 292.63 587.38 C 296.94 589.40 299.32 594.33 299.01 598.97 C 298.05 614.96 299.14 630.98 299.97 646.95 C 300.73 657.40 301.10 667.89 302.47 678.29 C 303.32 656.33 305.93 634.40 310.54 612.90 C 313.95 597.85 318.22 582.70 326.22 569.37 C 330.84 561.80 337.29 554.54 346.15 552.16 C 357.28 549.39 369.87 552.74 377.70 561.27 C 387.43 571.61 391.33 585.87 393.71 599.52 C 395.08 607.80 395.62 616.18 395.93 624.55 C 399.92 615.70 404.70 606.59 412.87 600.90 C 422.40 594.08 436.77 594.38 445.44 602.50 C 452.68 609.53 455.22 619.81 456.73 629.45 C 460.90 662.93 454.23 696.46 454.61 729.99 C 454.78 736.37 455.09 742.86 456.89 749.03 C 458.03 752.72 459.95 756.66 463.65 758.36 C 466.19 759.38 469.46 759.64 471.69 757.77 C 475.31 754.92 477.80 750.93 479.99 746.94 C 484.84 737.86 487.94 727.98 490.46 718.04 C 491.32 715.27 489.99 712.53 489.53 709.83 C 487.32 698.97 487.57 687.30 491.93 676.99 C 494.05 671.89 497.74 667.58 502.31 664.50 C 503.46 658.19 505.73 651.87 510.17 647.10 C 516.69 639.93 527.32 637.36 536.61 639.53 C 542.60 640.90 547.84 644.65 551.60 649.44 C 557.02 656.31 559.93 664.79 561.71 673.26 C 564.93 689.10 564.20 705.59 560.56 721.29 C 568.86 719.37 576.12 713.15 578.91 705.08 C 576.04 689.91 574.80 674.46 574.68 659.03 C 574.65 654.43 574.07 649.08 577.55 645.47 C 583.02 639.83 593.27 639.70 598.84 645.27 C 602.16 648.66 601.36 653.71 601.63 658.02 C 602.32 675.39 602.61 692.79 604.05 710.12 C 606.34 687.80 608.18 665.06 615.91 643.81 C 619.53 634.49 624.64 624.59 634.06 620.06 C 641.50 616.30 651.08 618.30 656.73 624.32 C 663.41 631.47 665.45 641.52 666.75 650.91 C 670.05 679.91 664.93 708.96 665.13 737.99 C 665.44 743.58 665.22 749.68 668.23 754.62 C 669.89 757.44 673.78 756.68 675.95 754.91 C 680.81 751.05 683.24 745.06 685.45 739.44 C 690.95 724.15 693.37 707.97 695.57 691.93 C 696.26 687.83 694.89 683.80 694.35 679.78 C 690.20 652.77 689.28 625.37 689.78 598.08 C 677.37 602.10 663.91 604.48 651.04 601.24 C 642.84 599.29 635.04 595.66 628.15 590.83 C 625.13 588.79 625.83 583.47 629.37 582.43 C 631.95 581.47 634.20 583.51 636.30 584.70 C 644.82 590.15 654.89 593.21 665.04 593.05 C 673.58 593.03 681.97 590.91 689.94 587.97 C 690.55 581.62 689.86 574.46 694.12 569.18 C 699.36 562.39 710.75 562.32 716.23 568.86 C 718.51 571.28 719.10 574.63 719.55 577.80 C 732.54 573.13 746.70 569.65 760.46 572.90 C 764.80 559.01 771.19 545.15 782.09 535.17 M 797.72 549.75 C 791.97 559.49 789.54 570.76 787.84 581.82 C 785.17 600.71 784.93 619.87 785.99 638.89 C 799.42 630.57 808.42 616.83 814.64 602.62 C 822.05 585.31 826.62 565.74 821.73 547.12 C 820.58 543.40 818.49 538.69 814.03 538.41 C 806.90 538.59 801.19 543.94 797.72 549.75 M 718.21 588.45 C 717.69 622.40 719.19 656.45 723.78 690.10 C 726.19 705.48 728.63 721.25 735.64 735.33 C 738.09 739.82 742.11 745.65 748.02 744.34 C 753.04 742.27 755.23 736.75 757.18 732.08 C 761.86 719.39 763.64 705.89 765.40 692.56 C 765.68 689.86 766.32 687.06 765.39 684.43 C 760.83 669.99 757.86 655.08 756.13 640.05 C 754.00 620.73 753.48 600.94 758.06 581.91 C 744.42 579.37 730.90 583.93 718.21 588.45 M 519.39 651.34 C 516.60 653.68 515.06 657.05 513.67 660.33 C 516.96 660.36 520.29 660.05 523.55 660.66 C 527.59 661.47 529.91 667.02 527.03 670.21 C 525.01 671.95 521.99 672.20 520.28 674.39 C 515.54 679.95 513.74 687.72 514.39 694.88 C 520.54 708.84 534.63 718.39 549.54 720.63 C 551.56 712.26 552.09 703.59 552.03 695.00 C 551.82 685.02 550.72 674.93 547.37 665.47 C 545.38 660.07 542.62 654.64 537.99 651.03 C 532.74 646.86 524.44 646.81 519.39 651.34 M 518.06 719.33 C 520.38 724.24 523.17 729.05 527.26 732.71 C 530.40 735.60 534.54 737.98 538.96 737.44 C 542.48 736.81 544.20 733.29 546.00 730.61 C 535.98 729.01 526.27 725.35 518.06 719.33 M 901.71 747.48 C 900.71 752.28 901.46 758.28 905.93 761.14 C 911.58 764.39 919.91 761.01 921.27 754.48 C 923.32 745.18 920.14 735.78 916.90 727.14 C 909.90 732.06 903.57 738.89 901.71 747.48 Z" />
<path fill="#000000" opacity="1.00" d=" M 182.36 549.71 C 189.88 546.48 198.68 554.13 196.57 561.99 C 195.19 569.52 185.01 572.69 179.42 567.60 C 173.32 562.94 175.04 552.15 182.36 549.71 Z" />
<path fill="#000000" opacity="1.00" d=" M 1014.36 564.46 C 1021.44 562.00 1029.41 568.65 1027.98 576.08 C 1027.32 584.21 1016.22 587.90 1010.49 582.36 C 1004.39 577.42 1006.68 566.37 1014.36 564.46 Z" />
<path fill="#000000" opacity="1.00" d=" M 182.45 578.71 C 191.74 576.32 201.75 584.41 201.28 594.00 C 201.49 603.14 192.06 610.74 183.18 608.73 C 175.20 607.38 169.35 598.96 170.88 591.01 C 171.77 585.06 176.56 579.95 182.45 578.71 Z" />
<path fill="#000000" opacity="1.00" d=" M 1015.47 593.64 C 1023.69 591.60 1032.87 597.49 1033.85 606.02 C 1035.55 614.19 1029.14 622.61 1020.93 623.47 C 1012.73 624.89 1003.88 618.42 1003.53 609.95 C 1002.59 602.48 1008.04 594.94 1015.47 593.64 Z" />
<path fill="#000000" opacity="1.00" d=" M 182.28 616.38 C 189.32 614.02 197.24 620.74 195.78 628.10 C 195.18 636.16 184.18 640.05 178.52 634.37 C 172.17 629.47 174.45 618.28 182.28 616.38 Z" />
<path fill="#000000" opacity="1.00" d=" M 1015.29 631.35 C 1021.48 628.49 1029.57 633.15 1029.88 640.04 C 1030.73 645.84 1025.83 651.46 1019.99 651.47 C 1014.20 651.96 1008.58 646.90 1008.89 641.01 C 1008.69 636.80 1011.59 633.05 1015.29 631.35 Z" />
<path fill="#000000" opacity="1.00" d=" M 992.90 652.83 C 993.49 650.05 994.79 646.69 997.92 646.06 C 1000.66 645.36 1003.14 647.54 1004.02 649.99 C 1007.26 658.01 1010.24 666.14 1013.45 674.18 C 1022.08 668.30 1030.02 661.44 1038.67 655.58 C 1043.40 652.43 1049.74 657.71 1047.80 662.99 C 1042.46 683.21 1036.86 703.37 1031.48 723.59 C 1030.75 726.70 1028.84 729.45 1026.13 731.15 C 1018.91 735.93 1011.67 740.69 1004.42 745.41 C 1002.33 746.66 1001.20 748.89 1000.42 751.11 C 977.02 817.51 934.85 876.74 881.52 922.47 C 855.66 944.55 827.22 963.70 796.64 978.62 C 778.94 987.31 760.60 994.67 741.87 1000.82 C 732.58 1003.83 723.11 1006.21 713.76 1009.01 C 714.56 1013.48 716.94 1018.29 714.69 1022.70 C 712.83 1026.10 708.49 1026.79 705.01 1025.96 C 690.02 1023.21 674.94 1020.91 659.99 1018.00 C 653.32 1017.23 652.00 1006.67 657.95 1003.99 C 671.15 997.54 684.44 991.24 697.66 984.83 C 700.73 983.22 704.86 982.89 707.60 985.32 C 710.42 988.02 710.29 992.23 711.09 995.80 C 748.05 986.42 783.77 971.97 816.66 952.65 C 874.87 918.18 924.14 868.67 958.30 810.28 C 971.06 788.28 981.49 764.96 989.82 740.94 C 987.16 735.05 984.52 729.16 981.62 723.39 C 979.43 719.24 979.59 714.34 980.62 709.89 C 984.84 690.89 988.79 671.84 992.90 652.83 Z" />
<path fill="#000000" opacity="1.00" d=" M 180.08 658.95 C 180.39 654.68 184.79 651.30 188.99 652.17 C 191.92 652.73 193.96 655.20 195.20 657.76 C 201.32 669.63 207.39 681.52 213.53 693.38 C 215.28 696.59 217.27 700.61 215.21 704.16 C 212.94 707.95 208.03 708.16 204.20 709.26 C 223.44 779.55 262.80 844.19 316.22 893.75 C 338.66 914.50 363.19 933.08 389.73 948.27 C 413.20 961.84 438.23 972.61 464.02 980.90 C 466.26 981.92 468.40 980.40 470.36 979.46 C 474.09 977.42 478.02 975.78 481.73 973.71 C 485.38 971.53 489.65 969.88 493.97 970.81 C 513.02 974.35 532.08 977.87 551.14 981.40 C 554.44 982.09 558.44 982.49 560.48 985.55 C 562.07 988.14 560.50 991.66 557.73 992.66 C 549.60 996.23 541.43 999.71 533.21 1003.06 C 539.29 1011.20 546.01 1018.85 552.12 1026.97 C 554.23 1029.64 554.12 1034.11 551.19 1036.16 C 549.14 1037.84 546.30 1037.33 543.94 1036.79 C 525.28 1032.33 506.64 1027.79 487.95 1023.44 C 484.19 1022.61 480.01 1021.73 477.63 1018.39 C 472.22 1011.05 467.10 1003.49 461.86 996.03 C 460.31 993.63 457.45 992.82 454.90 991.97 C 406.25 976.03 361.03 950.09 322.16 916.82 C 291.09 890.49 263.76 859.68 241.72 825.41 C 219.36 790.51 201.94 752.36 191.03 712.35 C 186.46 712.96 181.46 715.56 176.99 713.18 C 173.85 711.57 172.94 707.67 173.60 704.45 C 175.91 689.30 177.62 674.07 180.08 658.95 Z" />
<path fill="#000000" opacity="1.00" d=" M 596.16 996.17 C 605.05 993.24 615.50 1000.54 615.27 1010.03 C 616.01 1018.89 607.86 1026.86 599.07 1026.23 C 590.49 1026.06 583.49 1017.33 585.00 1008.92 C 585.70 1002.90 590.33 997.71 596.16 996.17 Z" />
<path fill="#000000" opacity="1.00" d=" M 562.42 999.56 C 569.56 996.40 578.10 1003.30 576.48 1010.94 C 575.83 1019.17 564.56 1022.87 558.89 1017.12 C 553.30 1012.14 555.46 1002.06 562.42 999.56 Z" />
<path fill="#000000" opacity="1.00" d=" M 629.39 1002.44 C 636.49 999.63 644.57 1006.65 642.88 1014.06 C 642.08 1022.05 631.21 1026.02 625.47 1020.38 C 619.39 1015.35 622.01 1004.67 629.39 1002.44 Z" />
</g>
</svg>
