<?xml version="1.0" encoding="UTF-8" ?>
<!DOCTYPE svg PUBLIC "-//W3C//DTD SVG 1.1//EN" "http://www.w3.org/Graphics/SVG/1.1/DTD/svg11.dtd">
<svg width="1250pt" height="1250pt" viewBox="0 0 1250 1250" version="1.1" xmlns="http://www.w3.org/2000/svg">
<g id="#000000ff">
<path fill="#000000" opacity="1.00" d=" M 298.12 350.11 C 307.99 339.00 327.66 339.52 337.10 350.92 C 342.07 356.75 343.30 365.72 339.25 372.37 C 336.68 377.22 332.00 380.43 327.04 382.47 C 328.11 396.94 329.69 411.36 330.55 425.84 C 337.68 429.02 344.78 432.28 351.83 435.66 C 361.52 427.79 371.28 420.01 380.86 412.02 C 377.73 408.42 375.05 404.01 375.07 399.09 C 374.63 392.54 378.31 386.34 383.47 382.54 C 392.43 375.99 405.54 375.91 414.60 382.29 C 420.46 386.40 424.29 393.81 422.99 401.03 C 421.93 407.66 417.12 413.29 411.14 416.13 C 405.62 419.01 399.22 419.31 393.16 418.46 C 387.59 435.33 381.92 452.16 376.10 468.94 C 373.94 474.40 372.78 480.21 370.35 485.57 C 315.21 477.10 258.27 481.44 204.94 497.74 C 202.06 492.27 199.68 486.57 197.05 480.98 C 188.31 464.52 180.26 447.72 171.75 431.14 C 164.98 433.11 157.49 433.01 151.04 429.99 C 144.55 427.08 139.10 421.18 137.95 414.00 C 136.75 407.52 139.78 400.79 144.82 396.73 C 156.41 387.28 176.10 390.34 183.67 403.45 C 187.56 409.94 186.53 418.46 181.89 424.30 C 192.68 431.38 203.66 438.19 214.36 445.41 C 220.85 441.09 227.65 437.22 233.86 432.49 C 232.75 417.77 232.00 403.02 231.18 388.28 C 224.83 386.29 218.70 382.48 215.62 376.38 C 211.63 369.47 213.16 360.25 218.66 354.62 C 228.74 344.08 247.75 344.83 257.18 355.86 C 261.95 361.12 263.51 369.15 260.59 375.69 C 258.96 379.90 255.51 382.99 251.94 385.57 C 255.98 391.89 259.05 398.75 262.82 405.22 C 267.11 412.64 271.24 420.14 275.17 427.75 C 279.34 427.84 283.72 428.22 287.72 426.79 C 289.43 424.62 290.01 421.76 291.17 419.28 C 295.98 406.66 301.20 394.20 305.84 381.52 C 301.30 379.10 297.06 375.66 294.91 370.87 C 291.58 364.14 292.95 355.54 298.12 350.11 Z" />
<path fill="#000000" opacity="1.00" d=" M 783.59 386.62 C 786.29 378.94 789.01 371.27 791.73 363.61 C 795.97 370.56 800.18 377.54 804.42 384.50 C 812.41 384.94 820.39 385.37 828.38 385.82 C 823.32 392.08 818.35 398.41 813.20 404.60 C 815.22 412.66 817.53 420.64 819.69 428.66 C 812.35 425.53 804.97 422.50 797.68 419.28 C 790.91 423.66 784.35 428.36 777.65 432.86 C 778.12 424.58 778.62 416.31 779.08 408.04 C 772.86 402.88 766.63 397.75 760.42 392.58 C 768.15 390.63 775.87 388.62 783.59 386.62 Z" />
<path fill="#000000" opacity="1.00" d=" M 458.27 384.30 C 463.69 382.95 469.45 385.06 475.02 384.80 C 496.70 384.49 518.40 384.79 540.05 383.55 C 541.70 383.61 544.19 383.16 545.00 385.07 C 545.58 387.69 544.87 390.40 544.86 393.05 C 544.49 397.72 545.32 402.37 545.19 407.03 C 544.95 408.52 543.30 408.88 542.05 408.92 C 534.51 409.23 526.96 409.17 519.44 409.77 C 517.72 409.75 517.11 411.53 517.08 412.97 C 514.76 438.28 512.30 463.60 511.61 489.02 C 511.14 496.61 511.55 504.27 510.68 511.82 C 508.93 512.70 506.88 512.33 505.00 512.46 C 499.31 512.31 493.62 512.70 487.94 512.56 C 485.47 512.73 484.16 510.14 484.48 508.00 C 485.78 481.33 486.72 454.62 485.87 427.93 C 485.64 422.95 486.14 417.97 485.88 413.00 C 485.89 411.00 483.58 410.92 482.14 411.11 C 475.06 411.69 468.01 412.59 460.93 413.09 C 459.73 412.92 457.42 413.61 457.13 411.95 C 455.80 404.66 458.15 397.36 457.67 390.04 C 457.86 388.16 457.05 385.90 458.27 384.30 Z" />
<path fill="#000000" opacity="1.00" d=" M 888.32 386.39 C 893.49 384.23 900.03 386.35 902.39 391.57 C 905.96 397.94 900.18 406.70 893.00 406.39 C 886.92 406.87 881.50 400.98 882.24 394.99 C 882.48 391.25 885.02 388.00 888.32 386.39 Z" />
<path fill="#000000" opacity="1.00" d=" M 960.20 405.51 C 964.04 399.40 968.00 393.36 971.92 387.29 C 974.12 394.11 976.39 400.92 978.50 407.77 C 985.32 409.85 992.19 411.74 999.05 413.72 C 993.35 418.19 987.64 422.63 981.95 427.11 C 982.18 434.42 982.42 441.73 982.64 449.05 C 976.86 444.91 971.16 440.66 965.35 436.58 C 958.71 439.20 952.07 441.79 945.43 444.39 C 947.52 437.33 949.69 430.28 951.79 423.21 C 947.49 417.51 943.14 411.85 938.85 406.15 C 945.96 405.96 953.09 405.84 960.20 405.51 Z" />
<path fill="#000000" opacity="1.00" d=" M 559.08 398.93 C 558.65 396.54 560.94 395.37 562.98 395.52 C 570.99 395.28 579.01 395.66 587.02 395.44 C 588.63 395.29 591.31 395.64 590.79 397.94 C 588.97 416.60 586.85 435.29 587.02 454.08 C 587.06 455.38 586.93 457.66 588.98 457.19 C 596.72 456.32 604.25 454.06 612.00 453.11 C 613.59 452.79 616.02 452.53 616.24 450.48 C 618.03 434.39 617.28 418.15 617.91 402.00 C 617.67 398.51 621.49 397.83 624.14 397.65 C 632.11 397.05 640.10 396.42 648.10 396.42 C 647.87 413.67 644.61 430.71 644.12 447.95 C 643.33 460.29 642.11 472.60 641.54 484.96 C 641.01 494.18 641.58 503.46 640.43 512.65 C 639.42 514.05 637.52 513.42 636.10 513.48 C 628.74 512.78 621.35 512.60 614.00 511.96 C 612.35 512.08 611.85 510.32 612.08 509.02 C 612.64 497.32 614.07 485.67 614.68 473.98 C 611.43 472.01 607.07 474.49 603.42 474.58 C 598.97 475.34 594.47 475.73 590.02 476.49 C 588.68 476.68 587.05 477.44 587.12 479.04 C 586.26 489.63 585.88 500.27 585.57 510.89 C 585.41 514.69 580.64 514.06 577.99 514.36 C 573.47 514.09 568.78 515.94 564.40 514.69 C 561.98 503.29 561.02 491.60 561.39 479.94 C 562.01 452.91 559.76 425.93 559.08 398.93 Z" />
<path fill="#000000" opacity="1.00" d=" M 667.06 398.03 C 668.29 395.50 671.57 395.63 673.97 395.39 C 692.24 394.85 710.55 394.82 728.82 395.72 C 730.62 395.75 733.35 396.49 732.58 398.91 C 731.59 405.16 730.76 411.45 729.48 417.66 C 729.19 419.87 726.54 419.20 725.03 419.11 C 714.68 417.70 704.19 417.90 693.84 416.47 C 691.98 416.33 688.66 415.54 688.56 418.34 C 687.36 425.53 686.33 432.77 685.84 440.05 C 686.00 441.21 685.12 443.85 687.04 443.85 C 694.11 444.04 701.13 442.62 708.20 442.72 C 708.27 448.32 709.18 453.99 708.57 459.55 C 700.88 460.73 692.92 460.57 685.11 460.97 C 684.86 470.25 684.90 479.56 685.66 488.83 C 685.66 490.28 686.74 491.50 688.08 491.98 C 691.79 493.37 695.95 492.81 699.60 491.47 C 705.50 489.23 711.34 486.81 716.93 483.87 C 718.21 483.26 720.08 482.21 721.19 483.73 C 723.66 486.62 726.75 489.08 728.60 492.44 C 729.79 495.59 726.01 497.36 723.99 498.95 C 714.44 505.17 705.62 513.88 693.84 515.40 C 686.36 516.35 677.91 516.22 671.73 511.30 C 665.69 506.64 663.29 498.85 662.70 491.53 C 660.47 463.21 661.21 434.63 665.29 406.51 C 665.76 403.67 665.93 400.72 667.06 398.03 Z" />
<path fill="#000000" opacity="1.00" d=" M 867.68 459.46 C 871.80 465.11 875.82 470.85 879.98 476.49 C 886.82 476.35 893.66 476.17 900.51 476.05 C 896.64 481.77 892.73 487.47 888.84 493.18 C 891.17 499.87 893.64 506.52 896.01 513.20 C 889.52 511.02 883.01 508.89 876.54 506.65 C 871.10 510.87 865.80 515.25 860.43 519.55 C 860.23 512.45 860.12 505.34 859.91 498.24 C 854.26 494.26 848.60 490.30 842.96 486.31 C 849.42 483.98 855.99 481.97 862.42 479.53 C 864.03 472.80 865.95 466.15 867.68 459.46 Z" />
<path fill="#000000" opacity="1.00" d=" M 1019.77 477.10 C 1022.72 471.71 1025.65 466.31 1028.60 460.92 C 1030.89 466.56 1033.23 472.19 1035.47 477.85 C 1041.36 479.15 1047.27 480.39 1053.19 481.62 C 1048.66 485.74 1044.12 489.84 1039.60 493.97 C 1040.26 500.13 1040.90 506.30 1041.58 512.46 C 1036.45 509.32 1031.35 506.11 1026.22 502.97 C 1020.75 505.57 1015.30 508.19 1009.84 510.77 C 1011.14 504.66 1012.57 498.58 1013.87 492.47 C 1009.84 487.96 1005.85 483.42 1001.86 478.88 C 1007.83 478.30 1013.80 477.70 1019.77 477.10 Z" />
<path fill="#000000" opacity="1.00" d=" M 792.33 466.42 C 797.45 464.33 803.89 466.65 806.16 471.78 C 808.55 476.82 806.01 483.63 800.71 485.60 C 793.55 489.32 783.62 481.86 785.63 473.95 C 786.86 470.80 789.05 467.66 792.33 466.42 Z" />
<path fill="#000000" opacity="1.00" d=" M 942.42 479.72 C 948.79 476.14 957.83 481.76 957.60 489.01 C 957.82 494.63 952.68 499.97 946.99 499.60 C 940.96 499.94 935.52 494.00 936.40 488.03 C 936.74 484.44 939.18 481.23 942.42 479.72 Z" />
<path fill="#000000" opacity="1.00" d=" M 270.94 492.43 C 303.11 488.60 335.92 488.33 367.86 494.19 C 367.92 502.22 366.99 510.33 366.28 518.36 C 314.48 509.20 260.60 514.08 210.73 530.43 C 208.60 522.62 206.91 514.70 205.10 506.81 C 226.45 499.68 248.63 495.23 270.94 492.43 Z" />
<path fill="#000000" opacity="1.00" d=" M 228.94 537.02 C 237.05 532.16 246.81 531.52 256.03 531.04 C 278.10 530.06 300.09 536.70 318.82 548.19 C 330.55 555.43 341.02 565.18 347.61 577.40 C 354.53 589.98 356.81 604.78 355.16 618.95 C 352.96 637.69 346.21 655.90 335.50 671.45 C 325.31 686.37 311.77 698.78 296.82 708.82 C 289.16 714.08 280.47 718.09 274.12 725.06 C 270.57 728.88 267.99 733.72 267.40 738.95 C 266.46 745.71 269.42 752.23 268.91 759.00 C 268.48 765.94 269.38 773.86 264.62 779.60 C 255.95 789.92 236.86 788.88 229.96 777.05 C 227.32 772.85 226.95 767.78 226.84 762.96 C 225.26 713.63 222.86 664.32 222.17 614.97 C 222.08 602.53 222.16 590.08 221.92 577.64 C 221.43 577.61 220.45 577.55 219.96 577.52 C 219.93 569.36 219.50 561.18 219.91 553.03 C 220.25 546.68 223.36 540.33 228.94 537.02 M 262.09 563.44 C 263.95 603.74 263.34 644.13 266.31 684.38 C 278.85 677.07 289.74 667.00 298.12 655.15 C 307.05 642.51 312.41 627.44 313.72 612.04 C 314.64 600.60 309.91 589.14 301.91 581.05 C 291.48 570.36 276.71 565.00 262.09 563.44 Z" />
<path fill="#000000" opacity="1.00" d=" M 564.50 532.79 C 572.74 530.75 582.56 533.31 587.51 540.54 C 591.40 546.56 591.14 554.07 590.96 560.95 C 590.83 627.96 590.39 694.97 590.16 761.98 C 590.34 766.96 589.34 772.22 585.90 776.03 C 577.91 785.54 561.75 785.75 553.32 776.72 C 549.68 773.12 548.36 767.90 548.40 762.91 C 548.28 731.60 548.03 700.29 547.85 668.98 C 548.21 630.98 549.34 593.00 549.89 555.00 C 550.03 550.84 549.59 546.40 551.55 542.57 C 554.05 537.51 559.12 534.11 564.50 532.79 Z" />
<path fill="#000000" opacity="1.00" d=" M 997.40 535.65 C 1013.31 533.06 1029.48 535.03 1045.45 535.84 C 1054.15 536.47 1063.94 536.11 1070.99 542.15 C 1075.91 546.10 1077.27 553.61 1073.90 558.98 C 1070.73 564.50 1064.18 567.15 1058.04 567.19 C 1042.68 567.33 1027.19 564.50 1011.92 567.16 C 1008.40 567.47 1006.80 570.96 1006.48 574.07 C 1001.74 602.42 998.81 631.19 999.69 659.97 C 999.64 662.27 1000.15 665.53 1003.06 665.69 C 1013.04 666.96 1023.13 665.26 1033.12 666.28 C 1038.29 666.82 1043.55 668.88 1046.96 672.93 C 1051.04 677.64 1051.00 685.28 1046.97 690.00 C 1043.32 694.42 1037.56 696.52 1031.98 696.96 C 1022.99 697.68 1013.96 697.09 1004.97 697.32 C 1002.35 697.24 999.49 699.07 999.70 701.97 C 999.83 716.61 1000.21 731.27 1000.43 745.91 C 1000.36 749.30 1003.96 751.04 1006.94 750.80 C 1018.28 750.57 1029.63 750.24 1040.94 749.29 C 1047.14 748.85 1053.69 748.77 1059.39 751.63 C 1063.71 753.70 1067.50 757.38 1068.81 762.10 C 1070.29 767.24 1068.61 773.09 1064.71 776.73 C 1061.31 780.06 1056.60 781.62 1051.97 782.13 C 1035.75 784.13 1019.41 786.13 1003.04 785.20 C 993.28 784.56 983.15 783.43 974.52 778.46 C 967.78 774.69 962.48 768.31 960.40 760.84 C 958.14 752.78 958.66 744.32 958.57 736.05 C 958.49 718.70 958.58 701.35 958.51 684.00 C 958.45 681.27 959.45 678.67 959.43 675.95 C 959.35 653.97 958.51 631.96 959.82 610.00 C 960.82 594.07 963.87 578.33 967.98 562.93 C 969.75 556.25 972.80 549.71 977.88 544.89 C 983.15 539.76 990.26 536.98 997.40 535.65 Z" />
<path fill="#000000" opacity="1.00" d=" M 379.95 542.86 C 385.57 539.18 392.55 538.94 399.06 538.93 C 430.81 539.25 462.77 548.82 488.54 567.59 C 502.17 577.59 513.88 590.59 520.95 606.04 C 527.08 619.35 529.01 634.64 525.83 648.99 C 521.91 667.57 510.27 683.83 495.55 695.52 C 486.92 702.57 476.95 707.66 467.06 712.64 C 479.00 728.79 490.89 744.98 502.76 761.18 C 506.60 766.62 510.44 773.09 509.07 780.03 C 507.68 787.15 500.71 791.62 494.02 793.01 C 484.84 795.20 475.20 790.57 469.87 783.08 C 460.29 769.70 452.20 755.13 440.72 743.21 C 435.01 737.21 428.21 732.37 421.07 728.23 C 419.20 737.40 420.65 746.75 421.00 755.99 C 421.22 762.61 422.60 769.58 419.89 775.89 C 417.95 780.67 413.56 784.18 408.62 785.51 C 402.11 787.26 394.69 786.88 388.92 783.16 C 384.15 780.08 381.27 774.68 380.47 769.15 C 378.16 747.51 377.08 725.76 376.42 704.01 C 374.77 661.68 373.33 619.35 371.94 577.01 C 371.90 569.94 372.25 562.87 372.84 555.82 C 373.24 550.77 375.57 545.65 379.95 542.86 M 410.95 572.48 C 410.55 580.64 411.31 588.79 411.83 596.93 C 413.64 622.45 415.51 647.97 416.72 673.53 C 417.11 677.57 417.08 682.00 419.41 685.52 C 421.48 688.23 425.30 687.79 428.28 687.32 C 434.63 686.06 440.77 683.95 446.93 682.00 C 460.48 676.92 472.51 667.37 479.97 654.91 C 485.79 645.28 487.77 633.00 483.55 622.36 C 478.90 611.02 471.25 600.99 461.90 593.12 C 449.89 583.07 435.19 576.76 420.12 572.92 C 417.13 572.10 414.00 572.41 410.95 572.48 Z" />
<path fill="#000000" opacity="1.00" d=" M 645.43 543.60 C 657.43 540.69 671.26 543.94 679.27 553.72 C 686.67 562.76 693.50 572.53 697.48 583.60 C 708.60 614.43 717.71 645.93 727.98 677.04 C 731.70 688.20 735.68 699.32 740.87 709.90 C 741.48 702.59 742.80 695.34 742.75 688.00 C 742.84 646.02 742.53 604.03 742.53 562.05 C 742.38 555.67 746.43 549.80 752.07 547.05 C 760.80 542.48 772.88 543.93 779.28 551.77 C 782.79 556.34 783.70 562.33 783.67 567.96 C 783.80 614.95 784.60 661.96 783.43 708.94 C 782.82 724.03 779.37 738.79 776.22 753.51 C 774.44 762.46 769.38 770.57 762.85 776.83 C 752.54 786.34 735.47 787.22 724.42 778.50 C 716.47 772.34 712.47 762.65 709.31 753.41 C 697.83 717.47 686.66 681.42 675.40 645.41 C 671.89 634.95 669.32 624.12 664.95 613.97 C 664.42 613.91 663.37 613.79 662.84 613.73 C 662.82 662.16 663.43 710.58 663.92 759.00 C 663.93 766.43 663.48 775.20 657.29 780.33 C 648.75 787.11 633.80 785.73 628.12 775.87 C 625.03 770.77 626.16 764.62 625.67 758.98 C 624.09 734.66 622.16 710.37 621.03 686.03 C 619.90 662.86 620.31 639.65 621.18 616.49 C 621.68 603.30 621.68 590.08 623.24 576.97 C 624.11 570.11 624.31 562.90 627.71 556.69 C 631.21 549.90 637.99 545.12 645.43 543.60 Z" />
<path fill="#000000" opacity="1.00" d=" M 846.00 556.05 C 855.38 548.61 867.14 544.44 879.05 543.76 C 888.94 543.06 899.41 544.57 907.75 550.25 C 916.40 556.09 921.73 565.77 924.31 575.69 C 927.27 587.89 925.74 600.89 921.60 612.62 C 916.81 624.07 900.36 626.30 891.26 618.83 C 887.86 615.92 886.21 611.38 886.17 606.99 C 886.08 600.98 887.02 595.01 886.74 589.01 C 886.50 584.56 885.03 580.31 883.60 576.14 C 875.34 579.73 867.32 585.42 864.05 594.16 C 858.49 609.45 852.66 624.85 850.59 641.08 C 847.65 662.92 847.66 685.35 852.53 706.92 C 855.05 718.38 859.62 729.67 867.54 738.48 C 870.92 742.20 874.88 745.32 878.66 748.63 C 885.70 744.25 889.58 736.62 891.76 728.87 C 894.88 719.46 896.30 709.59 899.26 700.14 C 903.00 689.81 915.88 685.12 925.93 688.40 C 932.46 690.20 939.28 695.51 939.06 702.90 C 938.06 721.14 934.43 739.85 924.40 755.43 C 918.04 765.14 909.86 774.30 898.98 778.95 C 885.12 785.10 868.60 783.78 855.35 776.67 C 843.20 770.06 833.10 759.99 825.74 748.34 C 818.55 736.87 813.24 724.18 810.50 710.91 C 806.91 693.88 806.44 676.37 806.73 659.02 C 807.29 636.46 811.18 613.79 819.98 592.93 C 825.79 578.97 833.94 565.48 846.00 556.05 Z" />
<path fill="#000000" opacity="1.00" d=" M 556.20 817.28 C 560.67 808.30 566.97 798.98 577.12 796.00 C 584.64 793.62 592.78 797.94 596.46 804.61 C 606.33 820.21 606.35 839.21 608.41 856.94 C 610.87 879.21 610.59 901.63 610.71 923.99 C 610.51 928.14 605.32 927.09 602.49 927.87 C 599.69 928.09 594.74 930.43 593.99 926.25 C 592.66 915.59 592.54 904.80 591.25 894.14 C 581.01 895.89 570.72 897.49 560.56 899.58 C 559.23 908.30 559.92 917.24 560.21 926.04 C 560.36 927.38 559.67 929.11 558.04 928.86 C 552.00 929.02 545.96 928.56 539.92 928.47 C 538.13 928.45 535.33 928.26 535.32 925.86 C 534.91 920.84 535.47 915.80 535.86 910.80 C 537.38 896.37 538.97 881.94 541.41 867.64 C 544.56 850.43 548.32 833.03 556.20 817.28 M 574.38 829.35 C 568.55 844.73 564.80 860.83 562.39 877.07 C 561.70 878.61 563.48 879.53 564.75 878.85 C 572.90 875.89 581.75 876.52 590.23 875.35 C 588.98 860.85 586.68 846.46 584.43 832.08 C 583.79 827.85 582.70 823.57 580.10 820.08 C 577.70 822.83 575.66 825.92 574.38 829.35 Z" />
<path fill="#000000" opacity="1.00" d=" M 226.36 798.56 C 233.20 797.72 240.13 798.54 247.01 798.17 C 249.07 798.08 252.58 798.13 252.49 801.04 C 251.46 822.56 249.39 844.12 250.40 865.69 C 257.56 864.05 264.64 862.12 271.82 860.58 C 273.19 860.47 273.46 859.23 273.50 858.09 C 274.70 840.50 273.75 822.86 274.17 805.26 C 274.19 801.36 278.52 800.65 281.54 800.36 C 287.66 799.82 293.81 799.15 299.96 799.20 C 301.89 799.23 301.23 801.74 301.43 802.98 C 301.21 818.03 299.64 833.01 298.98 848.04 C 298.81 862.37 297.76 876.67 297.30 890.98 C 296.82 902.62 297.41 914.28 296.63 925.91 C 296.69 928.33 293.74 928.31 292.03 928.07 C 285.73 927.40 279.38 927.29 273.09 926.57 C 271.21 926.53 270.53 924.53 270.69 922.96 C 271.05 910.04 271.92 897.14 272.41 884.23 C 266.16 885.21 260.04 886.78 253.81 887.84 C 252.51 888.13 250.39 888.25 250.68 890.12 C 250.19 901.43 249.91 912.76 249.88 924.09 C 250.01 926.03 249.20 928.47 246.94 928.69 C 242.61 929.25 238.25 929.49 233.93 930.12 C 232.64 930.33 230.65 930.32 230.22 928.79 C 227.34 914.05 226.98 898.97 227.08 883.99 C 226.78 857.30 224.87 830.67 223.79 804.02 C 223.72 801.99 223.79 798.94 226.36 798.56 Z" />
<path fill="#000000" opacity="1.00" d=" M 1038.56 806.51 C 1047.24 802.72 1058.36 807.06 1062.35 815.61 C 1067.03 825.35 1068.59 836.26 1068.94 846.97 C 1069.45 866.11 1067.32 885.75 1059.47 903.39 C 1056.90 909.14 1053.87 914.90 1049.03 919.08 C 1042.29 925.03 1032.74 927.22 1023.95 925.98 C 1018.34 925.15 1013.57 921.76 1009.57 917.93 C 1009.35 920.78 1010.21 924.01 1008.69 926.63 C 1005.76 928.25 1002.20 926.75 999.02 927.08 C 996.31 926.87 991.44 927.99 991.29 923.97 C 988.06 887.05 989.77 849.92 987.70 812.95 C 987.16 810.34 989.62 808.81 991.92 808.90 C 999.68 808.25 1007.38 806.92 1015.12 806.10 C 1017.39 805.65 1019.10 807.73 1018.52 809.91 C 1017.35 818.53 1015.28 827.05 1015.05 835.78 C 1019.97 824.19 1026.59 812.03 1038.56 806.51 M 1038.47 829.45 C 1029.00 837.97 1024.10 850.27 1020.25 862.13 C 1016.27 874.04 1012.97 886.44 1013.15 899.10 C 1013.09 902.68 1015.64 905.78 1018.90 907.04 C 1023.13 908.91 1028.48 910.57 1032.68 907.75 C 1038.19 903.84 1041.49 897.55 1043.39 891.20 C 1047.52 877.88 1047.19 863.77 1047.25 849.98 C 1047.23 843.17 1047.38 835.57 1043.16 829.83 C 1042.17 828.05 1039.77 828.09 1038.47 829.45 Z" />
<path fill="#000000" opacity="1.00" d=" M 339.15 818.98 C 343.32 813.43 349.25 808.84 356.19 807.54 C 362.67 806.31 369.49 809.41 373.24 814.74 C 378.85 822.60 381.98 832.01 383.31 841.51 C 385.84 861.57 388.31 881.71 388.21 901.97 C 388.14 909.64 388.43 917.32 388.45 924.99 C 388.62 926.68 387.28 928.24 385.58 928.33 C 382.02 928.67 378.48 929.15 374.95 929.69 C 373.19 930.13 371.55 928.65 371.56 926.91 C 370.42 917.33 370.08 907.67 368.89 898.09 C 358.52 899.56 348.18 901.20 337.87 903.02 C 337.52 909.99 337.31 916.99 337.77 923.97 C 337.76 925.77 338.22 927.73 337.36 929.43 C 332.04 930.59 326.48 929.36 321.06 929.64 C 318.57 929.36 315.57 930.26 313.47 928.54 C 312.12 924.50 313.15 920.10 313.28 915.94 C 315.33 896.04 317.96 876.14 322.77 856.70 C 326.16 843.38 330.94 830.13 339.15 818.98 M 351.85 838.84 C 346.00 853.00 342.25 867.96 339.88 883.08 C 340.14 883.39 340.67 884.03 340.93 884.34 C 349.46 880.86 358.85 881.85 367.81 880.71 C 366.82 870.37 365.20 860.11 363.48 849.87 C 362.22 843.14 361.78 835.98 357.91 830.10 C 355.06 832.34 353.22 835.54 351.85 838.84 Z" />
<path fill="#000000" opacity="1.00" d=" M 749.78 807.82 C 757.14 805.84 765.18 809.31 769.41 815.51 C 775.58 824.55 777.85 836.15 775.66 846.87 C 772.44 862.09 764.53 876.25 753.17 886.90 C 756.77 892.44 761.34 897.40 766.82 901.12 C 769.02 902.63 771.52 903.69 773.63 905.36 C 774.70 907.17 772.68 908.59 771.81 909.99 C 767.29 915.40 763.08 921.08 758.52 926.45 C 755.95 929.11 752.14 926.81 749.45 925.56 C 739.28 920.04 734.60 908.51 731.13 898.08 C 730.25 895.43 727.21 894.81 724.82 894.40 C 724.60 903.59 724.25 912.78 724.17 921.98 C 724.05 923.62 724.20 926.42 721.89 926.47 C 716.96 926.63 711.99 926.95 707.07 926.59 C 705.34 926.39 705.10 924.44 705.01 923.08 C 703.14 897.44 703.27 871.71 703.24 846.02 C 703.15 835.00 704.94 823.99 703.87 812.98 C 703.39 810.87 704.40 808.11 706.92 808.18 C 713.29 807.86 719.69 808.10 726.07 808.27 C 727.93 808.44 731.09 808.24 731.12 810.89 C 730.82 815.71 730.01 820.48 729.65 825.29 C 734.59 817.88 740.68 810.03 749.78 807.82 M 740.53 834.57 C 732.73 846.97 729.77 861.65 727.70 875.96 C 732.15 876.22 736.76 875.11 740.11 872.03 C 748.48 864.46 752.78 853.12 752.97 841.96 C 753.32 837.19 753.34 830.89 748.60 828.21 C 744.91 828.36 742.51 831.84 740.53 834.57 Z" />
<path fill="#000000" opacity="1.00" d=" M 834.96 808.31 C 840.35 807.93 845.66 806.76 851.07 806.51 C 853.34 806.71 853.07 809.30 853.03 810.97 C 852.38 819.33 853.65 827.66 854.42 835.97 C 855.77 850.23 858.67 864.33 862.86 878.02 C 863.87 881.20 864.43 884.76 867.07 887.10 C 873.52 875.81 874.80 862.63 878.27 850.31 C 881.84 837.43 883.69 824.17 886.02 811.04 C 886.35 807.66 890.35 807.48 892.96 807.81 C 897.13 808.34 901.46 808.17 905.48 809.61 C 904.51 822.22 901.83 834.59 899.30 846.95 C 895.48 865.13 891.88 883.43 885.86 901.05 C 882.87 909.94 879.89 919.32 873.21 926.22 C 867.67 931.45 857.04 932.79 852.16 926.00 C 844.79 916.44 841.29 904.70 837.36 893.48 C 829.32 868.83 824.58 842.97 824.37 817.01 C 824.59 814.53 823.81 811.03 826.44 809.61 C 829.12 808.48 832.11 808.65 834.96 808.31 Z" />
<path fill="#000000" opacity="1.00" d=" M 920.53 809.47 C 922.15 807.09 925.41 807.29 927.96 807.04 C 943.32 806.56 958.72 806.38 974.07 807.36 C 976.04 807.34 978.18 808.83 977.64 811.04 C 976.88 817.39 976.13 823.77 975.03 830.07 C 974.99 832.17 972.68 832.68 971.03 832.26 C 960.93 830.83 950.68 830.95 940.62 829.27 C 938.98 837.92 938.27 846.73 937.89 855.52 C 943.62 855.42 949.28 854.33 955.00 854.20 C 957.13 854.01 957.31 856.49 957.29 858.04 C 957.30 862.35 957.80 866.66 957.64 870.97 C 957.82 872.78 955.78 872.99 954.49 873.08 C 948.77 873.30 943.07 873.96 937.35 873.95 C 937.61 883.23 937.21 892.57 938.27 901.81 C 939.58 904.91 944.00 904.39 946.70 903.73 C 952.81 901.51 958.49 898.28 964.10 895.03 C 965.70 893.75 967.86 894.33 968.79 896.12 C 970.87 899.31 974.52 901.89 974.92 905.90 C 974.33 909.67 970.29 911.37 967.84 913.86 C 960.87 919.35 954.36 926.47 945.24 928.14 C 938.34 929.48 930.30 929.04 924.91 924.02 C 919.16 918.73 917.40 910.64 916.83 903.16 C 914.83 874.61 915.30 845.86 918.78 817.44 C 919.15 814.75 919.27 811.93 920.53 809.47 Z" />
<path fill="#000000" opacity="1.00" d=" M 406.66 823.69 C 412.11 816.74 419.21 810.27 428.19 808.66 C 437.60 806.71 447.66 811.03 453.28 818.70 C 458.06 824.79 459.80 832.53 460.90 840.03 C 461.18 842.51 462.00 845.06 461.50 847.56 C 458.10 850.16 453.95 851.65 449.94 853.05 C 448.09 853.79 446.00 852.54 445.26 850.82 C 442.98 846.36 441.00 841.24 436.42 838.62 C 433.18 836.47 428.09 836.16 425.56 839.55 C 421.74 845.00 420.72 852.83 424.34 858.64 C 427.76 864.36 433.95 867.34 439.63 870.33 C 446.34 874.05 453.65 877.36 458.65 883.42 C 464.73 890.61 466.66 901.23 462.80 909.93 C 459.94 916.92 453.84 922.10 446.98 924.99 C 434.45 931.09 418.76 931.61 406.59 924.38 C 403.21 922.17 398.91 919.52 398.73 915.03 C 399.46 910.43 401.74 906.25 402.81 901.73 C 403.68 899.23 404.43 895.00 407.99 895.53 C 414.73 897.67 419.72 903.80 426.95 904.73 C 430.68 905.33 434.34 903.99 437.35 901.86 C 435.92 898.45 432.85 896.24 430.02 894.06 C 425.07 890.26 418.78 888.89 413.69 885.32 C 406.30 880.64 400.55 873.24 398.52 864.67 C 395.33 850.71 397.77 835.14 406.66 823.69 Z" />
<path fill="#000000" opacity="1.00" d=" M 620.42 811.98 C 620.05 809.88 621.99 808.27 623.95 808.36 C 629.99 808.07 636.04 808.35 642.08 808.50 C 643.94 808.66 646.09 808.45 647.52 809.93 C 647.85 815.16 646.49 820.34 646.22 825.56 C 651.11 818.28 657.01 810.52 665.92 808.20 C 673.45 805.93 681.82 809.53 686.11 815.94 C 692.34 825.20 694.55 837.07 692.09 847.96 C 688.72 862.79 681.06 876.70 669.85 887.04 C 674.22 894.20 680.54 900.17 687.98 904.07 C 689.42 904.76 691.68 906.25 690.13 908.02 C 685.35 914.24 680.39 920.34 675.47 926.44 C 673.23 929.27 669.41 927.40 666.84 926.17 C 656.41 920.97 651.49 909.37 648.00 898.91 C 647.35 895.95 644.13 894.95 641.48 894.75 C 641.31 903.85 640.96 912.96 640.84 922.07 C 640.66 923.62 641.07 926.20 639.01 926.66 C 634.66 927.02 630.28 926.89 625.93 927.05 C 624.19 927.19 621.87 926.64 621.83 924.52 C 619.82 899.41 619.92 874.19 619.84 849.02 C 619.60 836.66 621.55 824.32 620.42 811.98 M 656.64 835.56 C 649.23 847.86 646.32 862.22 644.34 876.27 C 648.68 876.42 653.19 875.46 656.50 872.49 C 665.37 864.68 669.61 852.67 669.63 841.04 C 669.94 836.55 669.53 830.81 665.08 828.40 C 661.14 828.89 658.69 832.52 656.64 835.56 Z" />
<path fill="#000000" opacity="1.00" d=" M 789.47 808.48 C 792.06 807.12 795.16 808.03 797.98 807.86 C 802.97 808.02 808.00 807.78 812.98 808.33 C 815.25 808.60 814.53 811.37 814.49 812.94 C 811.81 837.14 809.55 861.41 808.75 885.76 C 808.42 895.18 807.85 904.59 807.50 914.01 C 807.33 917.54 807.84 921.08 807.48 924.61 C 807.28 926.22 805.29 926.37 804.04 926.34 C 799.65 926.31 795.23 926.62 790.87 926.14 C 789.28 926.02 788.39 924.56 788.34 923.12 C 786.45 899.13 786.88 875.06 786.63 851.02 C 786.41 837.97 787.86 825.00 788.52 811.99 C 788.70 810.80 788.58 809.40 789.47 808.48 Z" />
</g>
</svg>
