<?xml version="1.0" encoding="UTF-8" ?>
<!DOCTYPE svg PUBLIC "-//W3C//DTD SVG 1.1//EN" "http://www.w3.org/Graphics/SVG/1.1/DTD/svg11.dtd">
<svg width="1200pt" height="1200pt" viewBox="0 0 1200 1200" version="1.1" xmlns="http://www.w3.org/2000/svg">
<g id="#000000ff">
<path fill="#000000" opacity="1.00" d=" M 660.94 159.06 C 663.26 156.90 666.66 157.73 669.41 158.40 C 688.34 163.63 707.30 168.80 726.29 173.81 C 730.07 174.73 733.67 176.77 735.82 180.10 C 740.31 186.95 744.89 193.74 749.37 200.60 C 750.64 202.69 752.62 204.26 754.94 205.04 C 873.92 247.30 970.18 348.23 1006.85 469.04 C 1009.09 476.43 1011.11 483.89 1013.02 491.37 C 1016.65 490.72 1020.26 489.43 1024.00 489.68 C 1028.38 490.07 1031.34 494.78 1030.27 498.95 C 1027.91 513.30 1025.45 527.64 1023.05 541.98 C 1022.47 544.70 1022.02 547.85 1019.67 549.66 C 1016.66 552.10 1011.82 551.63 1009.32 548.69 C 1007.91 546.99 1007.08 544.92 1006.12 542.96 C 1000.57 530.99 994.61 519.22 988.86 507.34 C 987.46 504.62 986.63 501.18 988.60 498.50 C 990.94 494.84 995.80 495.13 999.54 494.07 C 987.03 440.53 961.89 390.24 928.09 346.98 C 881.34 287.05 817.40 240.15 745.17 215.94 C 738.76 218.95 732.26 221.76 725.89 224.84 C 722.64 226.48 718.87 226.20 715.43 225.43 C 695.77 221.04 676.04 216.99 656.40 212.54 C 653.27 211.92 649.59 209.61 650.24 205.92 C 650.89 201.90 655.66 201.19 658.76 199.79 C 665.38 197.28 672.00 194.78 678.55 192.10 C 672.65 184.16 666.50 176.41 660.60 168.48 C 658.44 165.82 658.05 161.33 660.94 159.06 Z" />
<path fill="#000000" opacity="1.00" d=" M 491.38 175.13 C 492.52 171.09 497.24 169.40 501.05 170.36 C 516.26 173.07 531.49 175.65 546.67 178.52 C 551.92 179.22 554.55 185.59 551.96 190.02 C 550.72 192.19 548.20 193.04 546.09 194.11 C 533.65 199.91 521.31 205.92 508.91 211.79 C 506.17 213.13 502.73 213.67 500.09 211.83 C 496.28 209.44 496.72 204.35 495.55 200.52 C 447.43 211.93 401.58 232.67 361.22 261.25 C 294.29 308.25 242.61 376.75 216.41 454.27 C 215.88 455.51 216.79 456.70 217.17 457.84 C 219.81 463.53 222.49 469.19 225.15 474.87 C 226.71 478.05 226.45 481.70 225.72 485.06 C 221.57 504.39 217.56 523.74 213.52 543.09 C 212.88 545.78 212.11 549.02 209.32 550.25 C 206.54 551.87 203.22 549.55 202.25 546.86 C 198.97 538.69 195.83 530.46 192.64 522.25 C 184.40 528.09 176.60 534.52 168.42 540.43 C 165.79 542.56 161.57 542.35 159.49 539.57 C 157.44 537.41 158.13 534.27 158.79 531.70 C 164.00 512.19 169.17 492.67 174.26 473.13 C 175.08 469.54 177.37 466.44 180.48 464.50 C 187.35 460.02 194.19 455.50 201.05 451.00 C 202.90 449.84 204.29 448.07 204.97 446.00 C 224.77 389.40 257.68 337.46 300.25 295.24 C 339.62 255.79 387.08 224.34 439.08 204.20 C 456.60 197.34 474.62 191.76 492.91 187.30 C 492.17 183.30 490.51 179.23 491.38 175.13 Z" />
<path fill="#000000" opacity="1.00" d=" M 606.21 170.27 C 615.25 167.00 625.90 174.26 626.04 183.87 C 627.02 191.98 620.20 199.89 612.05 200.11 C 605.12 200.81 598.23 196.12 596.28 189.45 C 593.60 181.73 598.47 172.64 606.21 170.27 Z" />
<path fill="#000000" opacity="1.00" d=" M 574.43 174.56 C 582.25 172.36 590.09 181.25 586.71 188.70 C 584.24 196.10 573.18 197.88 568.59 191.54 C 563.80 185.85 567.15 176.08 574.43 174.56 Z" />
<path fill="#000000" opacity="1.00" d=" M 640.25 175.43 C 647.44 172.71 655.62 179.60 653.98 187.17 C 653.17 195.45 641.65 198.94 636.16 192.84 C 630.59 187.76 632.98 177.47 640.25 175.43 Z" />
<path fill="#000000" opacity="1.00" d=" M 520.92 350.63 C 522.19 346.75 528.83 347.06 529.75 351.07 C 530.12 354.63 528.53 358.06 527.39 361.36 C 523.59 371.42 515.13 379.52 504.85 382.74 C 488.25 388.18 470.45 385.25 453.75 381.89 C 448.67 398.91 446.26 416.58 444.20 434.18 C 441.65 458.01 440.39 482.06 441.97 506.01 C 442.83 517.00 444.04 528.10 447.64 538.58 C 449.53 543.75 451.92 549.13 456.44 552.54 C 459.93 555.20 465.25 555.61 468.77 552.77 C 472.43 549.90 474.61 545.62 476.45 541.44 C 480.38 532.02 482.32 521.94 484.09 511.93 C 484.44 509.60 485.07 507.18 484.38 504.85 C 478.77 483.95 476.70 462.03 478.75 440.47 C 480.81 424.76 485.73 409.05 495.11 396.11 C 501.06 387.85 509.71 381.02 519.93 379.20 C 527.47 377.81 536.19 378.48 542.17 383.78 C 547.54 388.57 549.33 396.03 549.71 402.95 C 550.41 418.65 545.28 434.10 537.72 447.69 C 530.15 461.05 519.63 473.51 505.37 479.96 C 505.79 488.58 506.10 497.21 506.79 505.81 C 508.70 494.78 511.11 483.22 518.09 474.15 C 522.17 468.67 529.30 465.56 536.09 467.07 C 545.82 468.36 553.80 475.73 557.41 484.64 C 563.26 498.32 561.47 513.53 561.17 527.99 C 561.21 534.80 560.16 542.00 563.11 548.40 C 567.45 544.64 568.93 538.87 570.84 533.69 C 577.14 513.70 581.23 492.84 580.96 471.81 C 572.46 471.38 563.75 468.54 557.68 462.36 C 552.03 456.65 549.82 447.83 552.22 440.16 C 554.39 432.05 561.61 425.46 570.06 424.63 C 575.75 423.66 581.45 426.83 584.29 431.72 C 589.71 440.83 590.48 451.77 591.16 462.12 C 597.25 461.71 603.29 460.70 609.21 459.21 C 613.83 458.01 619.17 457.84 623.26 460.66 C 625.98 462.46 627.37 465.75 627.25 468.96 C 626.99 489.80 626.70 510.71 628.70 531.48 C 629.18 536.44 629.93 541.44 631.89 546.07 C 634.37 545.00 636.88 543.68 638.30 541.27 C 642.49 534.88 644.26 527.29 645.93 519.94 C 646.71 515.50 648.25 511.00 647.35 506.46 C 645.44 495.34 646.31 483.70 650.00 473.03 C 653.11 464.14 659.36 455.84 668.33 452.30 C 674.43 449.97 681.76 448.89 687.68 452.29 C 693.57 455.66 696.39 462.51 697.19 468.98 C 698.47 478.83 696.55 489.94 689.09 497.04 C 683.92 502.17 676.73 504.44 669.67 505.37 C 670.84 513.88 672.91 522.72 678.45 529.54 C 681.51 533.30 686.65 536.18 691.54 534.23 C 699.87 531.48 704.21 523.11 707.79 515.72 C 703.22 501.05 702.94 484.86 708.34 470.37 C 711.58 461.80 717.80 453.88 726.56 450.56 C 732.74 448.26 740.21 447.24 746.06 450.95 C 752.14 454.81 754.63 462.22 755.32 469.06 C 756.19 478.32 754.14 488.55 747.22 495.22 C 742.09 500.44 734.86 502.78 727.76 503.71 C 729.57 514.00 732.15 524.40 737.55 533.45 C 739.76 536.95 742.68 540.66 747.00 541.44 C 752.94 540.79 756.77 535.39 759.63 530.67 C 767.11 517.21 770.30 501.92 773.06 486.93 C 773.48 482.31 780.66 482.12 782.20 486.08 C 782.96 488.48 782.02 491.04 781.76 493.48 C 778.76 509.57 775.17 526.18 765.92 539.99 C 761.16 547.18 752.93 553.23 743.88 551.74 C 730.32 549.59 719.67 539.16 712.91 527.75 C 708.64 534.92 702.36 541.58 693.88 543.34 C 678.97 547.14 663.15 539.18 655.00 526.62 C 652.57 536.14 649.68 546.37 642.18 553.23 C 636.26 558.71 626.74 558.18 620.52 553.49 C 612.77 547.76 609.15 538.28 606.80 529.27 C 601.99 509.90 602.24 489.70 603.65 469.92 C 599.54 470.46 595.42 470.94 591.30 471.40 C 590.45 491.43 587.92 511.46 582.95 530.90 C 580.53 539.25 577.91 548.17 571.53 554.43 C 566.52 559.40 558.76 558.09 552.68 556.19 C 543.87 553.46 537.20 545.54 535.77 536.47 C 532.57 518.80 535.65 500.65 532.79 482.94 C 532.46 480.51 531.26 478.35 530.09 476.25 C 528.09 477.44 526.10 478.82 525.00 480.94 C 521.23 487.42 519.35 494.78 517.65 502.02 C 515.21 513.47 513.56 525.21 514.30 536.94 C 514.09 542.29 506.70 543.97 502.99 540.97 C 498.31 537.02 495.25 531.54 492.33 526.26 C 490.13 536.42 487.36 546.76 481.47 555.48 C 477.94 560.75 472.53 565.22 466.04 565.94 C 456.05 566.98 445.80 563.27 438.51 556.42 C 429.63 548.13 424.24 536.84 420.49 525.45 C 414.23 505.95 412.00 485.39 411.46 464.99 C 411.06 443.62 412.53 422.15 416.65 401.15 C 418.34 392.68 420.49 384.27 423.71 376.23 C 406.63 374.68 388.62 374.54 372.60 381.47 C 363.89 385.19 356.28 392.05 353.01 401.08 C 350.68 406.62 350.72 412.70 350.36 418.59 C 350.24 421.93 346.22 424.30 343.27 422.64 C 341.16 421.64 340.85 419.10 340.86 417.04 C 340.69 403.95 343.78 390.40 351.73 379.79 C 360.05 368.42 372.94 361.18 386.36 357.57 C 401.63 353.37 417.78 352.99 433.39 355.38 C 453.91 358.89 473.94 366.02 494.96 366.12 C 502.25 366.04 510.32 365.05 515.84 359.79 C 518.52 357.38 519.57 353.85 520.92 350.63 M 524.62 393.66 C 517.35 398.16 514.05 406.62 511.46 414.37 C 506.24 431.86 505.22 450.30 505.19 468.45 C 511.19 464.92 516.40 460.17 520.67 454.68 C 528.95 443.90 534.61 431.12 537.32 417.82 C 538.08 410.13 538.88 401.73 535.39 394.57 C 533.34 390.33 527.85 391.70 524.62 393.66 M 569.64 436.99 C 568.62 445.99 572.47 455.93 580.54 460.58 C 579.95 452.83 579.41 444.85 576.39 437.60 C 575.57 435.30 573.75 433.64 571.84 432.24 C 570.97 433.75 569.79 435.19 569.64 436.99 M 736.38 457.45 C 732.18 458.57 730.14 462.94 728.83 466.70 C 725.99 475.74 726.00 485.40 726.74 494.77 C 733.78 494.05 740.39 489.62 742.93 482.88 C 745.64 475.90 746.74 467.21 742.31 460.69 C 741.00 458.79 738.92 456.60 736.38 457.45 M 670.75 468.69 C 668.05 477.64 668.05 487.16 668.78 496.40 C 675.68 495.66 682.20 491.43 684.82 484.86 C 687.65 477.88 688.78 469.16 684.50 462.53 C 683.14 460.44 680.80 458.04 678.08 459.18 C 673.95 460.53 672.05 464.91 670.75 468.69 Z" />
<path fill="#000000" opacity="1.00" d=" M 347.76 551.81 C 352.30 545.67 358.30 539.98 365.94 538.19 C 376.91 535.86 389.12 539.98 396.07 548.89 C 404.39 559.36 407.13 573.00 408.43 586.00 C 409.11 593.66 409.19 601.37 408.82 609.06 C 412.98 600.97 418.04 592.80 425.95 587.90 C 435.54 581.79 449.67 583.11 457.19 591.92 C 463.64 599.67 465.11 610.16 465.71 619.90 C 466.81 650.87 458.78 681.18 457.28 711.99 C 457.16 719.06 456.88 726.53 459.83 733.13 C 461.49 737.16 466.29 739.97 470.55 738.40 C 474.78 736.19 477.58 732.09 480.14 728.20 C 485.43 719.40 489.55 709.81 492.11 699.87 C 490.02 687.82 489.89 674.77 495.63 663.64 C 497.91 659.01 501.68 655.33 506.06 652.69 C 507.74 646.34 510.60 639.99 515.87 635.81 C 524.14 629.12 536.78 628.63 545.68 634.38 C 553.00 639.17 557.09 647.48 559.33 655.69 C 563.93 673.32 562.19 692.10 557.10 709.43 C 565.08 708.23 571.67 702.75 575.49 695.80 C 573.21 679.14 573.34 662.19 574.80 645.47 C 576.68 634.33 594.51 633.53 598.95 643.19 C 599.59 644.67 599.65 646.32 599.64 647.92 C 599.07 666.40 598.30 684.89 598.44 703.39 C 601.41 684.63 604.40 665.71 610.89 647.78 C 614.33 638.75 618.61 629.48 626.25 623.23 C 631.83 618.59 640.01 616.87 646.68 620.20 C 654.52 623.70 658.16 632.33 659.64 640.28 C 662.43 655.40 660.71 670.86 659.14 686.02 C 657.40 702.03 654.51 717.93 653.91 734.05 C 653.96 738.67 653.64 743.75 656.16 747.86 C 658.18 750.69 662.23 749.24 664.38 747.32 C 669.77 742.54 672.54 735.63 675.19 729.10 C 680.05 715.46 683.88 701.30 685.81 686.95 C 682.78 658.93 683.45 630.64 685.87 602.61 C 674.59 605.47 662.56 606.82 651.19 603.63 C 643.03 601.45 635.42 597.37 628.81 592.15 C 626.17 590.34 626.53 585.75 629.51 584.50 C 632.04 583.20 634.40 585.31 636.37 586.67 C 644.08 592.38 653.41 595.96 663.03 596.43 C 671.01 596.91 678.98 595.49 686.64 593.29 C 687.62 587.56 687.36 581.07 691.35 576.40 C 696.47 570.11 707.27 570.48 712.18 576.86 C 714.30 579.28 714.67 582.58 714.98 585.66 C 727.48 582.08 740.98 579.84 753.70 583.73 C 758.66 570.93 765.55 558.28 776.52 549.66 C 785.93 542.17 799.21 539.12 810.67 543.31 C 817.47 545.80 822.06 552.25 823.66 559.14 C 826.17 569.57 825.03 580.54 822.65 590.89 C 818.78 606.67 811.51 621.58 801.70 634.52 C 794.22 644.27 784.90 653.02 773.43 657.81 C 773.80 671.01 773.82 684.24 775.12 697.39 C 777.04 683.92 779.46 670.15 786.06 658.07 C 789.40 652.00 794.66 646.15 801.85 645.05 C 811.62 643.87 821.52 648.97 827.04 656.97 C 833.75 666.52 835.72 678.53 835.74 689.98 C 835.91 703.00 834.30 715.96 834.40 728.97 C 834.61 733.19 834.31 738.19 837.94 741.15 C 843.16 736.49 845.09 729.51 847.44 723.17 C 852.20 708.32 855.98 693.09 858.26 677.67 C 853.86 667.22 849.56 656.49 848.39 645.10 C 847.77 637.17 850.24 628.69 856.12 623.12 C 863.00 616.70 873.67 615.37 882.29 618.77 C 887.33 620.69 891.42 624.96 892.98 630.14 C 895.09 636.89 894.16 644.24 892.13 650.90 C 891.41 654.61 885.28 655.01 884.67 651.03 C 884.89 646.32 886.99 641.70 886.08 636.90 C 885.61 630.67 880.53 624.41 873.91 624.61 C 869.85 624.64 866.74 628.22 866.03 632.00 C 864.27 639.63 867.77 647.09 871.21 653.70 C 882.83 675.08 899.11 693.54 910.51 715.06 C 919.28 705.78 925.73 694.35 928.60 681.87 C 929.41 678.83 929.67 675.63 930.85 672.69 C 933.01 669.84 938.66 671.30 938.97 674.94 C 937.38 693.73 929.38 712.59 914.31 724.48 C 916.67 738.82 914.03 754.47 905.53 766.44 C 898.43 776.57 884.17 781.15 872.67 776.37 C 865.76 773.51 862.81 765.24 864.30 758.27 C 866.64 745.47 876.52 735.50 887.43 729.21 C 881.40 715.57 872.97 703.22 865.41 690.41 C 862.63 705.91 859.81 721.68 853.19 736.09 C 850.38 741.76 846.60 748.16 840.01 749.77 C 827.91 751.28 814.73 744.51 810.17 732.92 C 806.07 722.14 806.91 710.38 806.89 699.08 C 806.87 686.10 807.97 672.94 805.56 660.11 C 805.00 657.61 803.53 653.03 800.17 654.72 C 795.67 657.57 793.75 662.92 791.74 667.60 C 786.26 682.47 783.44 698.24 782.11 714.00 C 781.55 718.30 782.55 722.70 781.79 726.97 C 779.86 731.66 772.91 731.83 769.83 728.22 C 764.56 722.44 760.97 715.36 757.93 708.21 C 755.29 720.00 752.30 732.16 745.21 742.16 C 741.86 746.85 736.89 750.76 731.03 751.50 C 721.52 752.54 711.80 748.59 705.39 741.56 C 697.83 733.41 693.66 722.79 690.71 712.24 C 686.74 726.56 682.33 741.82 671.51 752.61 C 661.73 762.51 643.46 759.09 636.63 747.39 C 629.40 735.31 629.24 720.61 629.45 706.94 C 630.04 687.15 633.54 667.61 635.33 647.92 C 635.72 642.60 636.19 637.08 634.20 632.00 C 632.35 632.76 630.29 633.34 628.98 634.96 C 625.00 639.44 622.91 645.20 620.88 650.75 C 614.23 670.57 611.21 691.33 606.40 711.62 C 605.49 715.16 604.67 718.77 603.10 722.10 C 601.49 726.30 596.04 726.14 592.37 725.48 C 584.23 723.39 580.43 714.92 578.07 707.63 C 571.73 714.52 562.71 718.85 553.29 718.90 C 549.77 725.61 545.20 732.87 537.51 735.17 C 527.80 737.45 517.18 734.83 509.41 728.63 C 504.69 725.02 501.10 720.18 498.07 715.13 C 493.82 726.39 488.37 738.06 478.40 745.37 C 471.43 750.61 462.09 749.64 454.15 747.56 C 445.94 745.41 438.88 739.61 435.02 732.08 C 429.45 721.34 428.50 708.91 428.66 697.01 C 429.28 670.65 435.70 644.94 439.85 619.03 C 440.82 612.07 442.08 604.98 441.06 597.96 C 440.75 595.92 439.63 593.20 437.13 593.47 C 430.74 593.55 426.08 598.76 422.61 603.55 C 414.99 614.68 410.61 627.62 406.64 640.40 C 401.99 656.01 398.54 671.96 395.94 688.03 C 395.13 693.42 388.90 697.10 383.79 695.21 C 379.95 694.01 377.66 689.82 378.17 685.93 C 381.01 663.08 381.57 640.01 381.76 617.00 C 381.74 602.06 381.42 587.10 379.79 572.25 C 379.02 566.09 378.21 559.88 376.16 554.00 C 375.27 551.64 374.24 549.02 371.94 547.70 C 366.30 547.39 362.34 552.31 359.35 556.44 C 351.84 567.79 347.62 580.91 343.65 593.82 C 336.64 617.85 331.97 642.50 328.25 667.23 C 325.52 686.39 323.11 705.66 322.60 725.04 C 322.49 728.06 323.11 732.07 320.00 733.89 C 315.16 736.56 308.29 733.66 306.69 728.38 C 300.14 711.45 296.17 693.66 292.73 675.88 C 287.37 645.94 283.97 615.18 287.85 584.85 C 288.79 580.00 288.60 574.22 292.60 570.67 C 297.89 566.03 305.78 564.20 312.49 566.51 C 316.84 567.98 319.87 572.40 319.75 576.98 C 317.04 602.39 317.53 628.02 317.85 653.54 C 320.69 630.63 324.69 607.75 331.73 585.71 C 335.65 573.83 340.35 561.99 347.76 551.81 M 796.61 557.67 C 788.19 563.75 784.37 574.02 781.35 583.56 C 775.45 604.09 773.83 625.60 773.52 646.87 C 787.07 639.65 796.63 626.84 803.37 613.36 C 809.30 601.09 814.06 587.78 813.72 573.97 C 813.52 568.05 813.50 561.32 809.49 556.53 C 805.88 553.07 800.23 555.36 796.61 557.67 M 712.98 595.48 C 710.50 626.39 709.76 657.51 711.79 688.47 C 713.01 703.01 714.27 717.83 719.40 731.60 C 721.30 736.08 723.77 741.47 728.91 742.84 C 733.85 743.68 736.99 738.76 739.13 735.08 C 745.88 721.98 748.51 707.28 751.38 692.96 C 752.39 689.21 750.79 685.54 750.09 681.91 C 747.65 670.45 746.22 658.79 745.60 647.10 C 744.70 628.58 745.42 609.72 750.91 591.89 C 738.24 588.71 725.21 592.00 712.98 595.48 M 522.06 642.08 C 519.73 644.09 518.33 646.87 516.88 649.52 C 520.06 649.77 523.31 649.70 526.41 650.54 C 529.82 651.65 531.55 656.37 529.16 659.23 C 527.10 660.96 524.07 661.13 522.16 663.10 C 518.76 666.55 516.85 671.23 515.91 675.92 C 515.48 678.47 514.87 681.26 516.15 683.68 C 521.70 696.17 533.68 705.29 547.00 708.04 C 551.15 692.94 552.15 676.87 549.44 661.42 C 548.06 654.58 545.78 647.42 540.53 642.53 C 535.63 637.87 527.12 637.49 522.06 642.08 M 517.28 704.59 C 520.35 712.29 525.14 721.15 533.97 723.00 C 538.17 723.97 540.87 719.99 543.00 717.11 C 533.60 714.97 524.61 710.90 517.28 704.59 M 874.84 756.04 C 873.70 760.41 874.21 766.02 878.27 768.76 C 883.50 772.02 891.47 769.22 893.01 763.08 C 895.31 754.56 893.01 745.64 890.44 737.46 C 883.55 741.84 876.93 747.85 874.84 756.04 Z" />
<path fill="#000000" opacity="1.00" d=" M 182.42 549.69 C 189.91 546.53 198.62 554.10 196.58 561.92 C 195.29 569.19 185.69 572.59 179.98 568.02 C 173.29 563.63 174.77 552.16 182.42 549.69 Z" />
<path fill="#000000" opacity="1.00" d=" M 1014.32 564.47 C 1021.42 561.97 1029.44 568.66 1027.97 576.11 C 1027.29 584.21 1016.24 587.88 1010.52 582.38 C 1004.40 577.47 1006.65 566.41 1014.32 564.47 Z" />
<path fill="#000000" opacity="1.00" d=" M 182.40 578.71 C 191.72 576.30 201.78 584.42 201.28 594.05 C 201.48 603.39 191.57 611.06 182.58 608.59 C 174.89 606.98 169.42 598.76 170.88 591.04 C 171.75 585.09 176.53 579.98 182.40 578.71 Z" />
<path fill="#000000" opacity="1.00" d=" M 1015.44 593.65 C 1023.66 591.59 1032.86 597.47 1033.85 606.01 C 1035.56 614.18 1029.15 622.61 1020.92 623.47 C 1012.74 624.88 1003.92 618.45 1003.53 610.00 C 1002.57 602.53 1008.00 594.96 1015.44 593.65 Z" />
<path fill="#000000" opacity="1.00" d=" M 182.36 616.36 C 188.96 614.23 196.57 620.04 195.86 627.05 C 195.96 633.08 189.85 638.05 183.96 636.96 C 177.53 636.10 172.85 628.62 175.49 622.54 C 176.68 619.57 179.27 617.22 182.36 616.36 Z" />
<path fill="#000000" opacity="1.00" d=" M 1015.28 631.36 C 1021.47 628.49 1029.56 633.14 1029.88 640.03 C 1030.65 645.47 1026.42 650.90 1020.93 651.38 C 1014.88 652.45 1008.56 647.28 1008.89 641.04 C 1008.68 636.82 1011.57 633.06 1015.28 631.36 Z" />
<path fill="#000000" opacity="1.00" d=" M 992.91 652.78 C 993.52 650.02 994.80 646.69 997.91 646.06 C 1000.65 645.35 1003.11 647.53 1004.01 649.97 C 1007.30 658.00 1010.19 666.20 1013.52 674.24 C 1021.79 668.32 1029.69 661.88 1037.99 656.00 C 1041.08 653.56 1046.08 654.72 1047.60 658.41 C 1048.65 661.76 1047.23 665.20 1046.41 668.44 C 1041.36 686.82 1036.43 705.23 1031.46 723.64 C 1030.73 726.72 1028.83 729.44 1026.14 731.14 C 1018.92 735.96 1011.62 740.68 1004.37 745.46 C 1002.30 746.73 1001.18 748.96 1000.40 751.18 C 975.71 821.14 930.24 883.13 872.75 929.77 C 832.02 963.03 784.65 988.00 734.31 1003.14 C 727.47 1005.14 720.59 1006.98 713.75 1009.01 C 714.57 1013.47 716.92 1018.29 714.69 1022.69 C 713.02 1025.74 709.20 1026.75 705.97 1026.09 C 691.51 1023.61 677.06 1021.07 662.60 1018.59 C 659.86 1018.03 656.63 1017.46 655.17 1014.76 C 653.35 1011.18 653.90 1005.75 657.99 1003.98 C 671.18 997.52 684.46 991.23 697.68 984.82 C 700.75 983.23 704.88 982.89 707.62 985.34 C 710.42 988.03 710.30 992.23 711.08 995.79 C 748.78 986.25 785.18 971.40 818.60 951.50 C 875.95 917.07 924.52 868.04 958.29 810.30 C 971.06 788.29 981.48 764.97 989.82 740.94 C 987.16 735.03 984.49 729.13 981.59 723.34 C 979.43 719.17 979.60 714.28 980.63 709.83 C 984.85 690.84 988.80 671.79 992.91 652.78 Z" />
<path fill="#000000" opacity="1.00" d=" M 180.08 658.95 C 180.39 654.70 184.74 651.32 188.93 652.16 C 191.88 652.68 193.93 655.17 195.18 657.73 C 201.43 669.84 207.61 681.98 213.89 694.07 C 215.54 697.09 217.13 700.94 215.18 704.22 C 212.88 707.94 208.01 708.16 204.20 709.27 C 223.45 779.57 262.82 844.22 316.25 893.77 C 338.67 914.51 363.19 933.08 389.72 948.27 C 413.21 961.84 438.26 972.64 464.09 980.92 C 466.06 981.80 467.98 980.63 469.73 979.79 C 474.35 977.34 479.12 975.20 483.69 972.67 C 487.07 970.74 491.09 970.08 494.90 970.95 C 514.35 974.64 533.84 978.16 553.30 981.81 C 556.12 982.43 559.46 983.27 560.81 986.15 C 561.79 988.73 560.31 991.63 557.79 992.62 C 549.65 996.27 541.37 999.63 533.17 1003.15 C 539.27 1010.96 545.64 1018.57 551.72 1026.41 C 554.10 1029.10 554.38 1033.89 551.22 1036.13 C 548.90 1038.05 545.72 1037.17 543.09 1036.61 C 523.58 1031.87 504.04 1027.22 484.51 1022.60 C 481.58 1021.96 478.94 1020.31 477.21 1017.87 C 471.99 1010.66 466.96 1003.31 461.86 996.03 C 460.11 993.40 456.89 992.67 454.10 991.70 C 400.79 974.16 351.77 944.46 310.48 906.54 C 253.40 854.80 211.47 786.60 191.00 712.33 C 186.45 712.99 181.44 715.54 176.99 713.18 C 173.88 711.58 172.96 707.75 173.59 704.54 C 175.89 689.37 177.62 674.10 180.08 658.95 Z" />
<path fill="#000000" opacity="1.00" d=" M 596.27 996.13 C 604.78 993.44 614.81 1000.00 615.22 1009.04 C 616.17 1016.51 611.03 1024.01 603.70 1025.75 C 595.93 1028.08 587.11 1022.77 585.34 1014.91 C 583.03 1007.02 588.30 998.05 596.27 996.13 Z" />
<path fill="#000000" opacity="1.00" d=" M 562.37 999.58 C 566.48 997.94 571.58 999.15 574.32 1002.68 C 578.09 1007.24 577.07 1014.89 572.07 1018.14 C 566.94 1021.71 558.79 1019.67 556.52 1013.68 C 554.06 1008.40 557.02 1001.65 562.37 999.58 Z" />
<path fill="#000000" opacity="1.00" d=" M 629.31 1002.47 C 636.42 999.58 644.60 1006.63 642.88 1014.08 C 642.06 1022.05 631.22 1026.00 625.49 1020.39 C 619.42 1015.40 621.98 1004.76 629.31 1002.47 Z" />
</g>
</svg>
