<?xml version="1.0" encoding="UTF-8" ?>
<!DOCTYPE svg PUBLIC "-//W3C//DTD SVG 1.1//EN" "http://www.w3.org/Graphics/SVG/1.1/DTD/svg11.dtd">
<svg width="1200pt" height="1200pt" viewBox="0 0 1200 1200" version="1.1" xmlns="http://www.w3.org/2000/svg">
<g id="#000000ff">
<path fill="#000000" opacity="1.00" d=" M 460.04 202.46 C 493.52 198.63 527.24 196.15 560.96 196.88 C 576.46 197.15 592.39 199.35 606.18 206.86 C 612.23 210.38 618.41 214.62 621.37 221.23 C 613.60 224.42 605.81 220.27 598.09 219.20 C 577.23 215.40 555.98 217.68 535.03 219.35 C 515.28 221.07 495.55 222.94 475.82 224.85 C 472.24 224.94 468.76 226.91 467.34 230.29 C 452.03 264.81 435.29 298.70 420.47 333.45 C 406.97 363.74 395.80 395.03 386.61 426.89 C 380.74 447.50 375.03 468.16 369.55 488.89 C 366.55 499.76 367.84 511.35 370.89 522.06 C 372.24 527.10 376.44 530.48 379.53 534.42 C 380.21 536.72 377.30 537.81 375.61 538.43 C 368.55 540.31 361.16 538.06 354.60 535.42 C 349.31 533.16 344.47 529.55 341.40 524.62 C 331.94 508.94 327.80 490.31 328.90 472.08 C 330.33 453.97 334.77 436.27 340.09 418.95 C 350.26 385.89 361.53 353.12 375.42 321.42 C 386.58 295.84 398.46 270.59 410.51 245.42 C 412.49 241.21 414.81 237.14 416.29 232.71 C 391.05 236.38 365.93 240.86 340.82 245.41 C 332.29 247.07 323.04 246.01 315.56 241.38 C 310.29 238.25 306.28 232.94 304.97 226.93 C 304.33 224.04 307.32 222.29 309.70 221.73 C 316.40 220.03 323.23 218.89 330.05 217.79 C 363.30 213.09 396.68 209.36 430.01 205.23 C 435.54 204.86 440.52 201.89 446.03 201.59 C 450.67 202.22 455.34 202.99 460.04 202.46 Z" />
<path fill="#000000" opacity="1.00" d=" M 1002.43 225.65 C 1007.07 224.21 1012.21 226.04 1015.67 229.28 C 1020.31 233.64 1022.63 239.94 1023.41 246.15 C 1024.28 254.00 1023.19 262.32 1019.14 269.21 C 1016.00 274.54 1010.39 278.82 1004.02 278.94 C 997.25 279.37 990.71 275.26 987.65 269.31 C 983.33 261.17 984.04 251.29 986.85 242.78 C 989.43 235.35 994.56 227.98 1002.43 225.65 Z" />
<path fill="#000000" opacity="1.00" d=" M 1041.41 246.60 C 1045.52 245.36 1050.03 247.10 1052.78 250.26 C 1059.64 258.14 1058.61 271.86 1050.22 278.26 C 1046.40 281.28 1040.61 281.23 1036.90 278.07 C 1027.03 270.07 1029.02 251.00 1041.41 246.60 Z" />
<path fill="#000000" opacity="1.00" d=" M 1068.41 268.51 C 1072.18 267.60 1075.98 269.91 1077.83 273.15 C 1081.56 279.60 1080.30 288.76 1074.60 293.68 C 1071.71 296.22 1067.06 296.60 1064.02 294.12 C 1055.94 287.51 1058.15 271.69 1068.41 268.51 Z" />
<path fill="#000000" opacity="1.00" d=" M 999.42 287.55 C 1011.45 285.14 1023.95 287.40 1035.27 291.77 C 1050.18 297.57 1063.28 307.24 1074.76 318.25 C 1084.24 327.64 1093.62 337.63 1099.18 349.93 C 1104.71 361.69 1105.59 375.22 1103.23 387.90 C 1100.52 403.40 1093.33 417.56 1086.60 431.62 C 1077.64 449.80 1067.90 467.66 1060.76 486.67 C 1053.47 505.37 1046.95 524.41 1042.19 543.93 C 1040.98 548.87 1039.76 553.85 1039.41 558.94 C 1038.80 566.22 1039.02 573.70 1036.73 580.73 C 1032.69 593.71 1023.80 605.17 1011.99 611.98 C 999.69 619.19 984.12 621.39 970.63 616.28 C 956.68 611.09 945.84 599.19 940.47 585.48 C 934.67 571.05 935.16 554.17 942.19 540.26 C 947.52 529.50 956.21 520.91 965.30 513.25 C 976.91 503.55 989.29 494.65 999.63 483.52 C 1009.18 473.41 1016.85 460.95 1018.99 447.02 C 1020.89 436.15 1018.65 424.63 1012.64 415.36 C 1007.35 406.89 999.87 400.18 993.08 392.98 C 982.91 381.49 975.65 367.58 971.04 352.99 C 966.80 338.76 965.50 322.73 971.88 308.93 C 976.90 297.87 987.48 289.68 999.42 287.55 Z" />
<path fill="#000000" opacity="1.00" d=" M 463.65 316.94 C 463.26 305.78 470.73 293.80 482.14 291.60 C 489.46 290.13 497.62 290.10 504.32 293.80 C 506.41 294.93 509.03 297.03 507.71 299.72 C 505.72 304.60 503.07 309.19 501.05 314.06 C 499.35 318.29 496.78 322.36 496.67 327.04 C 496.53 329.99 497.91 332.68 498.94 335.36 C 493.42 339.68 485.73 338.91 479.59 336.44 C 471.58 333.11 464.10 326.08 463.65 316.94 Z" />
<path fill="#000000" opacity="1.00" d=" M 1087.29 292.33 C 1090.55 290.36 1095.11 291.68 1096.91 295.00 C 1100.45 301.45 1097.13 310.70 1090.32 313.45 C 1086.90 314.85 1082.84 313.01 1081.37 309.71 C 1078.52 303.60 1081.34 295.46 1087.29 292.33 Z" />
<path fill="#000000" opacity="1.00" d=" M 1105.24 312.21 C 1109.26 310.41 1113.15 314.20 1113.69 318.03 C 1114.61 323.91 1112.35 330.98 1106.81 333.85 C 1103.42 335.74 1099.29 333.32 1098.28 329.84 C 1096.24 323.45 1098.91 315.11 1105.24 312.21 Z" />
<path fill="#000000" opacity="1.00" d=" M 646.31 331.20 C 659.64 328.08 675.78 331.21 684.52 342.46 C 691.38 353.20 693.07 366.44 692.44 378.96 C 691.40 398.78 687.95 418.35 684.44 437.85 C 682.27 450.51 680.22 463.18 678.29 475.87 C 676.17 488.47 675.14 501.79 678.90 514.18 C 686.62 502.12 691.68 488.69 697.47 475.66 C 705.39 457.46 713.21 439.21 721.01 420.96 C 722.14 418.45 722.19 415.64 722.40 412.94 C 722.98 403.89 724.38 394.90 726.05 385.99 C 728.39 372.78 731.02 359.60 734.90 346.75 C 736.45 342.45 737.67 337.41 741.82 334.83 C 746.74 331.66 752.91 332.17 758.47 332.69 C 763.91 333.44 769.42 334.98 773.98 338.15 C 776.19 339.66 777.37 342.41 776.81 345.06 C 773.88 369.70 769.78 394.17 766.79 418.80 C 765.55 430.17 763.19 441.52 763.86 453.02 C 764.17 459.17 764.25 465.35 764.72 471.49 C 765.17 476.80 767.69 481.65 770.94 485.78 C 784.64 476.51 797.68 466.05 808.22 453.22 C 827.59 429.78 843.30 403.38 855.51 375.56 C 860.02 365.53 861.13 354.41 865.25 344.26 C 867.08 339.67 873.07 339.97 877.14 340.30 C 881.29 341.07 886.65 341.92 888.60 346.22 C 891.36 364.44 888.48 382.85 886.57 401.02 C 885.36 412.03 883.97 423.02 882.91 434.05 C 888.78 430.03 894.02 425.19 899.49 420.64 C 909.62 412.05 919.79 403.50 929.89 394.88 C 933.25 391.93 937.30 389.01 942.01 389.32 C 945.19 389.40 947.86 391.32 950.28 393.20 C 943.60 399.87 936.07 405.62 929.04 411.90 C 914.42 426.05 899.16 439.50 884.17 453.25 C 881.91 455.30 879.76 457.77 879.34 460.90 C 876.48 478.64 873.83 496.42 870.60 514.10 C 867.48 531.37 862.43 548.30 855.43 564.39 C 848.98 579.19 841.18 593.54 830.78 605.96 C 821.03 617.46 810.48 628.63 797.58 636.62 C 786.12 643.68 773.74 650.03 760.17 651.49 C 750.65 652.48 740.45 651.74 732.01 646.87 C 726.57 643.72 724.27 637.02 725.01 631.00 C 726.68 616.74 732.91 603.47 740.25 591.30 C 749.39 576.71 759.55 562.77 770.31 549.35 C 788.91 525.82 810.78 505.22 831.82 483.94 C 834.90 480.77 838.89 477.81 839.61 473.14 C 840.92 465.44 841.85 457.68 843.22 449.99 C 844.03 443.71 845.81 437.41 844.86 431.04 C 843.06 433.23 841.42 435.53 839.93 437.93 C 828.96 455.42 815.41 471.36 799.46 484.51 C 794.60 488.52 789.44 492.55 783.21 494.12 C 772.31 496.74 760.52 496.16 750.15 491.79 C 743.05 488.79 736.97 483.52 732.88 477.01 C 727.56 468.84 725.04 459.23 723.64 449.68 C 721.69 454.34 719.72 459.00 717.69 463.63 C 715.11 469.37 713.88 475.59 711.65 481.46 C 707.88 491.86 704.19 502.34 699.22 512.24 C 694.34 520.20 687.51 528.08 677.92 530.01 C 670.76 531.42 662.56 531.96 656.21 527.73 C 650.59 524.16 647.49 517.92 645.13 511.93 C 638.71 493.67 639.89 474.02 640.57 455.01 C 641.60 432.17 645.16 409.57 648.24 386.95 C 649.38 372.59 652.57 358.31 651.47 343.86 C 648.30 345.36 645.36 347.39 643.22 350.20 C 621.46 376.96 608.43 409.43 597.74 441.88 C 593.81 454.36 588.89 466.49 583.49 478.39 C 581.25 482.40 578.74 486.30 575.79 489.83 C 571.18 495.09 563.73 496.54 557.05 496.22 C 551.55 495.86 545.64 494.43 541.75 490.25 C 536.07 484.35 531.29 477.41 528.65 469.61 C 526.07 461.52 524.89 453.03 524.73 444.55 C 519.62 454.82 514.38 465.01 509.23 475.26 C 503.41 487.69 495.85 499.37 486.36 509.32 C 474.38 520.87 454.02 521.97 440.58 512.35 C 434.94 508.34 431.98 501.86 429.29 495.72 C 423.09 481.39 421.17 465.16 424.46 449.85 C 429.20 428.11 434.57 406.50 440.15 384.96 C 442.17 376.84 446.54 369.64 450.48 362.36 C 452.76 358.08 457.25 355.17 462.07 354.73 C 469.22 353.88 476.79 354.59 483.36 357.69 C 487.00 359.31 488.84 363.25 489.25 367.03 C 490.18 374.76 489.09 382.59 487.45 390.15 C 481.86 411.26 476.71 432.48 471.77 453.75 C 468.17 468.93 464.48 484.40 465.13 500.12 C 465.58 502.24 465.11 505.23 467.21 506.50 C 472.57 502.89 477.03 498.03 480.78 492.79 C 486.45 485.03 492.16 477.27 496.99 468.96 C 506.26 452.72 515.06 436.22 523.85 419.72 C 525.12 417.22 526.80 414.82 527.24 411.99 C 529.26 394.15 531.26 376.30 532.80 358.41 C 533.35 353.94 535.39 348.47 540.42 347.59 C 547.63 346.58 555.01 347.85 561.86 350.18 C 565.10 351.26 567.70 353.99 568.45 357.35 C 569.69 362.53 571.60 367.61 571.92 372.97 C 572.11 396.66 569.78 420.27 569.26 443.93 C 568.68 451.41 567.79 458.89 567.83 466.41 C 571.43 460.89 572.78 454.33 575.29 448.31 C 582.75 429.11 588.31 409.14 597.58 390.67 C 604.28 377.34 611.13 363.94 620.11 351.98 C 627.30 343.49 634.84 333.74 646.31 331.20 M 818.86 519.87 C 806.60 533.05 794.76 546.67 783.94 561.06 C 774.08 574.32 764.52 588.09 758.71 603.68 C 754.61 613.71 751.53 625.01 755.20 635.67 C 772.97 628.83 786.39 614.64 797.82 599.92 C 809.33 584.85 817.82 567.64 823.90 549.73 C 828.98 535.07 831.87 519.79 834.58 504.55 C 828.71 508.98 823.88 514.55 818.86 519.87 Z" />
<path fill="#000000" opacity="1.00" d=" M 256.34 374.57 C 260.11 373.70 264.34 374.13 267.50 376.50 C 274.04 381.07 277.00 389.18 277.66 396.86 C 278.28 405.40 276.72 414.58 271.35 421.48 C 267.55 426.42 261.27 429.59 254.98 428.86 C 248.18 428.39 242.34 423.40 239.90 417.19 C 236.36 408.24 237.50 397.98 241.24 389.29 C 244.13 382.75 249.19 376.50 256.34 374.57 Z" />
<path fill="#000000" opacity="1.00" d=" M 213.37 386.60 C 219.04 384.21 225.50 387.79 227.81 393.17 C 231.61 401.23 229.40 411.78 222.55 417.53 C 219.06 420.51 213.78 421.72 209.61 419.43 C 197.64 412.21 200.79 391.48 213.37 386.60 Z" />
<path fill="#000000" opacity="1.00" d=" M 183.31 402.40 C 189.21 399.47 195.32 404.97 196.21 410.72 C 197.98 418.20 194.24 428.19 185.94 429.60 C 178.76 430.25 174.76 422.16 175.30 415.95 C 175.50 410.53 178.25 404.81 183.31 402.40 Z" />
<path fill="#000000" opacity="1.00" d=" M 157.36 420.48 C 161.12 418.07 165.97 420.38 168.01 423.95 C 171.24 429.01 171.19 436.51 166.76 440.87 C 164.53 443.15 160.73 443.65 158.03 441.89 C 151.00 437.40 150.20 425.20 157.36 420.48 Z" />
<path fill="#000000" opacity="1.00" d=" M 215.50 433.76 C 230.04 431.54 245.86 432.47 258.70 440.28 C 269.15 446.47 275.99 457.95 277.02 469.99 C 278.26 483.63 273.61 497.10 266.92 508.80 C 260.25 520.08 251.70 530.29 241.68 538.75 C 232.92 546.26 222.12 550.87 213.35 558.37 C 205.53 564.71 199.48 573.41 197.17 583.28 C 193.66 597.65 196.62 612.91 203.04 626.03 C 211.94 644.79 226.58 659.84 238.03 676.97 C 245.92 688.72 251.64 702.61 250.73 717.01 C 249.77 741.90 230.79 765.21 206.22 770.19 C 190.27 773.52 173.37 767.31 162.00 755.98 C 151.44 745.59 145.44 730.83 145.58 716.04 C 145.74 707.22 148.83 698.76 149.07 689.95 C 149.75 665.85 147.56 641.77 144.37 617.91 C 141.45 595.70 135.35 574.10 130.83 552.20 C 127.01 534.13 124.02 515.08 129.17 496.96 C 133.22 481.57 144.09 468.88 156.96 459.95 C 174.46 447.50 194.11 437.23 215.50 433.76 Z" />
<path fill="#000000" opacity="1.00" d=" M 137.40 436.36 C 141.27 434.58 145.19 437.87 146.54 441.36 C 148.86 446.85 148.50 454.41 143.53 458.35 C 139.93 461.16 135.07 458.34 133.53 454.63 C 130.67 448.76 131.21 439.85 137.40 436.36 Z" />
<path fill="#000000" opacity="1.00" d=" M 383.89 558.38 C 395.74 555.99 407.91 555.28 419.97 556.00 C 429.21 556.67 438.58 557.51 447.34 560.76 C 463.84 566.67 479.17 577.96 486.89 594.04 C 492.15 604.72 491.56 617.03 490.23 628.53 C 487.69 648.86 478.58 667.67 467.72 684.79 C 449.42 713.14 424.74 737.00 397.43 756.62 C 414.31 759.66 431.28 763.18 447.13 769.92 C 458.16 774.71 467.31 783.25 473.44 793.53 C 482.56 789.10 491.70 784.71 500.73 780.11 C 502.38 768.56 505.83 757.29 510.76 746.73 C 513.25 742.12 511.36 736.88 511.03 732.02 C 509.26 715.65 514.17 698.95 523.65 685.59 C 534.64 670.15 550.00 657.74 567.61 650.64 C 583.90 644.37 601.51 641.00 618.99 642.03 C 637.43 643.07 655.47 650.47 669.13 662.93 C 676.13 669.58 681.74 677.79 684.86 686.96 C 687.74 695.31 688.35 704.23 688.56 713.00 C 688.89 731.12 684.12 748.79 678.96 765.99 C 676.48 774.91 672.73 783.42 670.41 792.37 C 684.80 785.73 696.32 774.40 706.45 762.47 C 710.46 757.92 713.52 752.58 718.02 748.47 C 714.66 737.34 713.44 725.29 716.90 714.02 C 719.97 701.85 728.90 691.48 740.41 686.52 C 750.58 681.95 761.96 680.88 773.01 681.27 C 785.21 681.68 797.52 684.54 808.04 690.91 C 811.85 693.08 815.27 696.59 816.04 701.05 C 816.49 703.82 815.62 707.46 812.67 708.49 C 809.11 709.80 805.13 709.61 801.54 708.50 C 797.51 707.26 794.78 703.82 791.19 701.82 C 788.75 700.35 785.95 699.70 783.23 699.02 C 776.39 707.39 770.37 717.61 771.19 728.82 C 772.45 738.51 775.59 748.00 780.57 756.43 C 785.97 765.66 792.66 774.05 799.52 782.23 C 806.72 776.17 812.57 768.73 819.13 762.01 C 829.14 751.05 839.01 739.95 849.41 729.35 C 851.02 727.74 852.95 726.51 854.86 725.29 C 850.94 711.45 852.14 695.92 859.50 683.42 C 866.60 671.42 880.05 664.59 893.54 662.76 C 911.16 660.39 930.08 662.16 945.62 671.38 C 949.58 673.61 953.26 677.24 953.90 681.94 C 954.22 684.48 953.51 687.74 950.96 688.91 C 947.42 690.44 943.34 690.26 939.70 689.22 C 935.39 688.01 932.53 684.31 928.69 682.26 C 926.34 680.92 923.68 680.29 921.09 679.64 C 914.31 687.89 908.35 697.95 909.01 709.01 C 910.16 718.99 913.45 728.73 918.59 737.37 C 923.97 746.48 930.57 754.79 937.37 762.86 C 943.98 757.34 949.34 750.53 955.34 744.39 C 964.18 734.85 972.73 725.05 981.75 715.68 C 984.90 712.55 987.63 708.84 991.57 706.65 C 996.06 704.21 1001.18 706.34 1005.77 707.35 C 988.35 731.35 966.32 751.57 949.01 775.66 C 957.89 788.93 967.65 801.88 973.09 817.06 C 981.44 838.01 982.11 860.99 980.48 883.20 C 978.46 901.96 969.66 919.94 955.71 932.70 C 937.63 949.13 913.64 959.78 889.02 959.83 C 879.26 959.90 868.78 957.37 861.88 950.04 C 855.20 942.67 851.32 932.98 850.34 923.14 C 849.03 911.57 851.41 899.97 854.58 888.89 C 858.69 874.86 865.86 862.00 873.76 849.78 C 880.35 839.15 887.50 828.87 894.62 818.58 C 897.21 814.59 900.37 810.94 902.52 806.68 C 903.87 804.06 903.13 800.94 901.33 798.75 C 895.04 790.30 888.72 781.86 882.43 773.41 C 874.14 762.03 864.68 751.26 859.13 738.15 C 843.48 757.39 825.69 774.86 811.18 795.03 C 819.65 807.78 829.07 820.13 834.53 834.59 C 840.21 848.67 843.08 863.85 843.28 879.03 C 843.13 890.39 843.73 901.95 840.77 913.05 C 836.79 930.04 826.75 945.36 813.13 956.21 C 798.06 968.23 779.75 976.57 760.51 978.72 C 750.44 979.73 739.62 979.58 730.58 974.49 C 723.69 970.74 719.19 963.89 716.12 956.87 C 711.20 945.21 711.33 932.03 713.91 919.82 C 716.43 906.52 721.45 893.77 728.11 882.01 C 738.76 863.72 750.91 846.36 763.01 829.01 C 765.13 826.21 766.45 822.13 764.12 819.04 C 757.50 809.96 750.69 801.02 744.00 791.99 C 736.72 781.96 728.49 772.50 723.03 761.29 C 715.88 771.50 707.68 781.24 697.23 788.23 C 689.01 793.67 680.28 798.52 670.86 801.56 C 664.24 803.17 661.04 809.62 657.90 815.00 C 650.05 828.53 640.72 841.56 628.33 851.30 C 613.51 863.00 594.71 868.68 576.04 869.78 C 561.91 870.87 547.27 868.34 535.05 860.91 C 522.95 854.11 512.34 844.02 506.92 831.06 C 501.62 819.16 499.72 806.02 499.73 793.07 C 492.47 796.80 485.14 800.40 477.86 804.08 C 479.20 813.01 481.53 821.89 481.06 830.99 C 480.64 848.44 474.60 865.49 464.88 879.91 C 457.81 890.58 448.91 899.91 439.35 908.38 C 425.29 921.71 409.81 933.78 392.38 942.41 C 380.13 948.67 366.83 953.08 353.11 954.49 C 339.92 955.88 326.50 954.27 313.86 950.36 C 310.02 949.03 306.23 947.41 302.96 944.99 C 298.56 941.64 297.37 935.27 299.14 930.22 C 302.98 918.30 310.03 907.59 318.68 898.61 C 340.86 874.34 367.70 854.94 395.39 837.46 C 409.18 828.70 423.38 820.60 437.68 812.73 C 440.55 810.97 444.46 808.03 443.02 804.18 C 439.55 794.85 436.15 784.42 427.55 778.50 C 417.39 771.89 404.67 771.49 392.94 772.02 C 382.59 772.40 372.70 775.65 362.85 778.54 C 356.33 780.63 349.44 779.96 342.78 779.14 C 337.03 807.46 332.48 836.03 325.56 864.09 C 324.51 868.23 324.60 872.72 322.70 876.60 C 320.05 879.45 315.55 878.90 312.00 878.86 C 304.56 878.52 295.95 874.12 295.09 865.96 C 294.01 853.33 293.73 840.61 294.57 827.97 C 300.29 774.12 314.68 721.56 332.47 670.54 C 335.34 661.68 339.78 653.45 344.32 645.35 C 346.36 641.77 349.46 637.92 353.95 637.82 C 359.64 637.71 365.81 638.08 370.63 641.46 C 373.32 643.28 375.16 646.70 374.06 649.95 C 368.70 670.64 363.41 691.36 358.10 712.06 C 354.76 723.94 351.76 735.93 349.58 748.08 C 361.72 740.74 372.86 731.82 383.68 722.68 C 411.14 699.08 434.35 669.91 448.19 636.26 C 453.90 623.20 457.23 608.72 455.28 594.44 C 453.87 587.17 449.87 580.55 444.77 575.25 C 442.26 572.61 438.48 571.90 435.01 571.66 C 418.14 571.14 400.85 572.64 385.11 579.15 C 353.54 592.38 324.78 612.57 302.25 638.41 C 296.72 645.26 291.62 653.09 290.34 661.96 C 289.50 665.44 292.97 667.73 293.28 670.88 C 291.99 673.59 288.82 674.66 286.01 674.68 C 278.05 674.84 269.96 671.26 264.87 665.12 C 261.11 660.61 261.93 654.32 263.51 649.11 C 267.84 635.43 277.60 624.54 287.16 614.22 C 302.53 598.06 320.78 584.71 340.62 574.55 C 354.39 567.64 368.71 561.39 383.89 558.38 M 590.59 660.47 C 579.43 666.44 569.11 674.26 561.14 684.16 C 551.91 695.45 546.29 709.38 544.08 723.73 C 549.88 723.83 555.75 723.61 561.48 724.64 C 564.32 725.36 568.57 727.26 567.21 730.95 C 564.41 742.33 561.05 753.57 558.19 764.93 C 557.24 767.91 558.88 770.87 561.05 772.83 C 568.30 779.58 576.61 785.21 585.57 789.47 C 603.37 797.99 623.49 800.48 643.04 799.39 C 646.68 793.66 648.57 787.10 650.82 780.76 C 658.00 759.64 662.61 737.25 660.60 714.86 C 659.34 699.86 652.37 685.68 642.50 674.47 C 634.37 665.23 622.64 660.14 610.89 657.34 C 604.01 655.73 596.72 657.07 590.59 660.47 M 555.01 793.89 C 553.38 798.40 553.76 803.28 553.80 807.99 C 553.96 815.83 555.62 823.54 557.56 831.11 C 560.21 841.67 568.25 850.40 577.97 855.01 C 583.01 857.47 589.01 857.58 594.17 855.41 C 603.36 851.57 612.19 846.31 618.91 838.86 C 626.71 829.81 632.78 819.44 638.73 809.12 C 622.94 810.21 606.98 809.51 591.46 806.27 C 578.82 803.77 566.70 799.22 555.01 793.89 M 415.78 841.78 C 402.95 850.25 389.59 857.97 377.51 867.53 C 365.44 876.98 354.24 887.57 344.20 899.16 C 337.49 907.21 331.16 916.07 328.52 926.37 C 327.47 930.59 327.44 935.86 330.75 939.10 C 334.54 939.18 338.15 937.87 341.73 936.81 C 354.42 932.91 366.84 927.54 377.39 919.37 C 395.88 905.52 414.64 891.19 427.93 872.00 C 437.72 857.99 444.78 841.15 443.89 823.80 C 434.36 829.53 425.20 835.86 415.78 841.78 M 904.70 839.63 C 895.23 855.83 887.48 873.31 884.37 891.91 C 882.72 902.68 883.47 914.02 887.77 924.11 C 890.77 930.96 895.86 937.27 902.78 940.42 C 906.57 942.17 910.65 939.94 913.40 937.33 C 921.22 929.92 927.05 920.39 930.04 910.03 C 931.78 904.19 931.75 898.03 932.00 892.01 C 932.41 877.11 928.06 862.64 923.66 848.57 C 921.51 840.14 918.59 831.92 915.13 823.95 C 910.87 828.61 908.01 834.31 904.70 839.63 M 771.10 852.01 C 763.06 864.91 755.90 878.47 751.12 892.93 C 747.50 904.24 744.69 916.14 746.06 928.08 C 747.09 938.42 750.87 949.07 758.99 955.97 C 761.79 958.27 765.14 960.79 768.98 960.35 C 773.26 959.52 776.33 956.12 779.13 953.04 C 788.08 942.89 794.06 929.73 794.00 916.04 C 795.07 903.66 792.56 891.39 789.37 879.50 C 785.61 867.42 782.51 855.11 777.48 843.46 C 774.69 845.76 772.98 848.99 771.10 852.01 Z" />
</g>
</svg>
