<?xml version="1.0" encoding="UTF-8" ?>
<!DOCTYPE svg PUBLIC "-//W3C//DTD SVG 1.1//EN" "http://www.w3.org/Graphics/SVG/1.1/DTD/svg11.dtd">
<svg width="1250pt" height="1250pt" viewBox="0 0 1250 1250" version="1.1" xmlns="http://www.w3.org/2000/svg">
<g id="#000000ff">
<path fill="#000000" opacity="1.00" d=" M 837.12 305.99 C 837.98 304.27 840.82 304.58 841.42 306.38 C 844.10 313.52 846.37 320.80 848.93 327.98 C 855.84 329.86 862.79 331.56 869.67 333.54 C 872.00 333.81 872.43 337.11 870.54 338.26 C 865.06 343.05 859.43 347.68 853.83 352.33 C 854.05 359.94 854.77 367.52 854.98 375.12 C 855.51 377.57 852.30 379.06 850.61 377.40 C 844.73 373.44 839.02 369.22 833.19 365.19 C 826.65 367.92 820.22 370.88 813.67 373.55 C 812.12 374.41 809.89 373.95 809.49 372.05 C 810.85 363.99 814.14 356.22 815.26 348.20 C 810.96 342.12 805.95 336.56 801.64 330.49 C 800.48 328.80 802.28 326.59 804.16 326.74 C 811.21 326.21 818.28 325.97 825.34 325.58 C 829.32 319.08 833.03 312.42 837.12 305.99 Z" />
<path fill="#000000" opacity="1.00" d=" M 614.56 313.87 C 615.33 309.18 621.91 307.57 624.88 311.14 C 626.85 313.42 625.80 316.55 625.01 319.08 C 621.76 329.51 615.62 339.36 606.43 345.51 C 595.52 352.94 581.88 354.98 568.94 354.64 C 555.17 354.24 541.64 351.32 528.32 347.98 C 522.68 363.90 519.10 380.46 515.95 397.04 C 511.07 423.42 507.72 450.10 506.31 476.90 C 505.44 495.06 505.32 513.36 507.73 531.42 C 509.12 541.17 511.17 551.13 516.25 559.71 C 519.13 564.56 523.99 568.94 529.95 568.87 C 536.30 569.16 540.96 563.87 544.12 559.00 C 551.19 547.43 554.64 534.13 557.81 521.07 C 558.65 516.41 560.52 511.80 560.04 507.01 C 557.79 490.15 558.29 472.82 562.13 456.23 C 564.15 447.88 574.11 443.72 581.94 446.04 C 587.42 447.27 592.52 452.01 592.29 457.96 C 590.66 479.56 589.09 501.30 590.84 522.95 C 591.53 529.72 592.21 536.70 595.18 542.92 C 596.18 544.83 597.63 547.06 600.01 547.23 C 604.06 547.77 607.51 544.95 609.86 541.97 C 614.23 536.35 616.71 529.57 619.06 522.93 C 619.64 521.03 620.47 519.09 620.10 517.07 C 617.40 498.51 618.25 479.63 620.01 461.02 C 620.28 457.21 622.13 453.47 625.41 451.39 C 631.69 447.38 640.56 447.97 646.33 452.66 C 649.01 454.89 650.50 458.41 650.20 461.89 C 649.22 478.85 648.11 495.80 647.52 512.78 C 651.80 492.58 656.00 471.99 665.45 453.46 C 670.22 444.46 676.72 435.34 686.66 431.73 C 694.85 428.50 704.74 430.98 710.67 437.42 C 716.93 444.30 718.75 453.90 719.55 462.88 C 721.28 493.64 712.64 523.66 709.77 554.08 C 709.38 559.37 708.98 564.77 710.12 569.99 C 710.58 572.32 712.29 575.09 715.07 574.50 C 720.63 573.52 724.02 568.30 726.86 563.88 C 735.04 549.58 739.37 533.49 743.45 517.64 C 743.98 514.55 745.61 511.40 744.82 508.24 C 739.67 492.21 740.76 474.96 743.49 458.58 C 745.06 449.71 755.77 446.40 763.52 448.73 C 768.68 449.83 774.36 454.03 773.50 459.93 C 771.44 473.17 770.02 486.63 771.13 500.04 C 771.65 505.37 772.42 510.94 775.35 515.56 C 776.84 518.00 779.89 519.86 782.78 518.77 C 786.87 516.01 788.82 511.19 790.86 506.88 C 797.04 492.15 800.69 476.50 803.90 460.90 C 804.84 456.87 804.92 452.55 806.82 448.81 C 810.97 441.30 821.71 438.94 828.96 443.19 C 833.01 445.58 834.95 450.44 834.72 455.02 C 833.48 484.13 833.11 513.27 832.87 542.41 C 841.22 542.10 849.35 538.13 854.35 531.36 C 862.53 520.50 865.28 506.79 867.84 493.73 C 868.64 488.94 875.91 487.32 878.63 491.36 C 880.57 494.34 879.11 497.97 878.69 501.17 C 875.88 515.39 872.59 530.50 862.60 541.58 C 855.13 549.99 843.71 553.55 832.75 553.79 C 831.98 570.59 829.12 587.63 821.98 602.97 C 815.69 616.78 799.23 625.30 784.36 621.51 C 760.51 615.86 744.63 588.68 750.94 565.08 C 753.09 555.97 759.12 547.81 767.44 543.43 C 777.91 537.85 790.36 537.47 801.82 539.59 C 801.62 529.88 801.74 520.17 801.92 510.47 C 798.18 519.45 792.43 529.54 782.12 531.75 C 772.56 533.07 762.41 530.30 754.92 524.16 C 751.07 539.68 746.41 555.31 737.87 568.97 C 733.00 576.64 726.12 584.09 716.78 585.77 C 706.85 587.24 695.79 583.77 689.64 575.55 C 683.04 566.84 681.30 555.57 680.62 544.94 C 679.38 516.92 686.16 489.47 689.26 461.80 C 689.56 456.81 690.50 451.48 688.31 446.77 C 680.42 450.15 677.45 458.96 674.29 466.24 C 665.99 488.11 661.96 511.25 655.75 533.73 C 654.55 537.72 653.50 541.84 651.30 545.41 C 649.47 548.67 645.17 548.68 641.91 548.71 C 635.16 548.49 629.75 543.58 626.47 538.04 C 623.01 545.18 618.34 552.23 611.23 556.16 C 602.63 561.00 591.58 559.73 583.41 554.59 C 576.24 550.07 571.37 542.80 567.75 535.29 C 564.30 548.08 560.01 561.09 551.72 571.64 C 546.95 577.72 539.91 582.48 532.00 582.80 C 518.20 583.33 504.65 576.71 495.98 566.06 C 485.31 553.26 479.78 537.09 476.14 521.05 C 471.36 499.74 470.05 477.80 470.31 456.00 C 470.73 430.54 473.39 405.08 478.65 380.16 C 481.68 366.20 485.37 352.28 491.37 339.27 C 471.98 336.50 451.83 335.58 432.77 340.83 C 419.69 344.47 407.04 352.45 401.04 365.03 C 397.36 372.16 396.20 380.22 395.84 388.14 C 395.89 391.69 392.81 395.05 389.15 394.67 C 386.29 394.53 384.10 391.85 384.28 389.04 C 384.40 372.84 388.49 356.23 398.13 342.99 C 406.75 330.96 419.56 322.40 433.38 317.46 C 451.93 310.86 472.05 309.57 491.52 311.79 C 512.62 314.07 532.51 321.98 553.13 326.54 C 567.05 329.58 581.55 332.39 595.76 329.76 C 604.27 328.24 612.07 322.34 614.56 313.87 M 775.28 553.18 C 766.49 557.76 760.58 568.16 762.46 578.10 C 764.03 587.32 769.09 595.76 775.75 602.23 C 779.88 606.06 785.04 609.70 790.93 609.50 C 793.47 609.55 795.32 607.47 796.45 605.43 C 799.15 600.43 799.95 594.70 800.66 589.14 C 802.05 576.42 801.93 563.61 801.83 550.84 C 793.01 549.79 783.46 549.03 775.28 553.18 Z" />
<path fill="#000000" opacity="1.00" d=" M 320.47 312.38 C 321.28 310.20 324.61 310.64 325.25 312.75 C 328.77 319.53 332.06 326.45 335.58 333.24 C 343.04 334.18 350.53 335.00 357.96 336.12 C 359.99 336.23 360.77 339.09 359.30 340.39 C 354.49 346.23 348.99 351.50 344.21 357.38 C 344.73 365.67 347.49 373.82 348.44 382.13 C 348.03 383.94 345.82 384.56 344.35 383.59 C 337.71 380.37 331.23 376.83 324.69 373.42 C 318.30 377.06 312.12 381.05 305.74 384.71 C 304.19 386.04 301.14 385.23 301.32 382.95 C 302.07 374.87 303.33 366.83 304.30 358.77 C 299.43 353.96 294.51 349.19 289.58 344.44 C 288.40 343.18 286.63 341.98 287.01 340.00 C 287.57 338.24 289.59 338.23 291.07 337.85 C 297.75 336.63 304.41 335.28 311.11 334.10 C 314.30 326.89 317.18 319.54 320.47 312.38 Z" />
<path fill="#000000" opacity="1.00" d=" M 714.34 342.37 C 715.40 340.45 718.35 341.08 718.87 343.10 C 720.90 348.66 722.54 354.36 724.49 359.96 C 729.92 361.75 735.49 363.08 740.91 364.94 C 742.76 365.21 743.50 367.87 742.08 369.07 C 737.70 373.12 732.78 376.55 728.28 380.47 C 728.47 386.64 729.10 392.81 728.99 398.99 C 729.14 400.87 726.69 401.98 725.28 400.86 C 720.34 397.70 715.84 393.90 711.05 390.54 C 705.63 392.56 700.40 395.06 694.90 396.84 C 693.28 397.59 690.91 395.97 691.65 394.15 C 693.21 388.15 695.02 382.20 696.63 376.21 C 693.10 371.39 689.24 366.81 685.92 361.85 C 684.69 360.39 685.93 357.79 687.92 358.01 C 693.55 357.55 699.22 357.65 704.88 357.49 C 708.17 352.53 711.00 347.28 714.34 342.37 Z" />
<path fill="#000000" opacity="1.00" d=" M 939.13 409.12 C 939.63 407.43 942.40 407.23 943.23 408.78 C 946.69 414.10 949.59 419.77 952.84 425.22 C 958.88 425.66 964.95 425.67 970.98 426.27 C 973.12 426.26 974.04 429.16 972.57 430.59 C 968.77 435.55 964.75 440.35 960.86 445.24 C 962.42 451.53 964.12 457.79 965.42 464.14 C 965.99 465.93 963.81 467.62 962.18 466.79 C 956.56 464.64 951.12 462.03 945.58 459.66 C 940.16 462.97 935.25 467.06 929.79 470.29 C 928.40 471.11 927.11 469.78 925.93 469.26 C 926.79 462.37 927.06 455.43 927.69 448.52 C 923.02 444.45 918.16 440.60 913.64 436.37 C 912.06 435.00 913.07 432.22 915.13 432.06 C 920.86 430.47 926.62 428.99 932.37 427.47 C 934.64 421.36 936.75 415.19 939.13 409.12 Z" />
<path fill="#000000" opacity="1.00" d=" M 240.25 415.34 C 241.22 413.97 241.94 411.90 243.96 411.93 C 245.74 412.00 246.24 413.79 246.75 415.18 C 248.70 421.16 250.64 427.14 252.64 433.11 C 258.82 435.02 265.09 436.64 271.24 438.66 C 273.27 439.04 274.05 441.99 272.25 443.17 C 267.21 447.48 261.90 451.47 256.84 455.75 C 257.15 462.17 257.50 468.59 257.75 475.02 C 257.75 476.43 257.89 478.77 255.92 478.91 C 254.60 479.52 253.50 478.19 252.43 477.65 C 247.57 474.09 242.75 470.49 237.90 466.92 C 231.84 469.09 226.00 471.81 219.94 473.98 C 218.21 474.97 215.62 473.27 216.17 471.31 C 218.09 464.57 220.04 457.84 221.85 451.07 C 217.90 445.70 213.71 440.50 209.87 435.05 C 208.70 433.83 209.16 431.14 211.03 430.94 C 217.70 430.43 224.41 430.63 231.09 430.27 C 234.18 425.31 237.23 420.33 240.25 415.34 Z" />
<path fill="#000000" opacity="1.00" d=" M 575.30 412.41 C 582.76 409.28 592.34 413.13 595.16 420.80 C 598.25 428.01 594.95 437.34 587.65 440.49 C 580.22 444.19 570.10 440.73 566.94 432.94 C 563.45 425.35 567.30 415.24 575.30 412.41 Z" />
<path fill="#000000" opacity="1.00" d=" M 393.20 423.14 C 393.57 421.21 396.45 420.92 397.50 422.47 C 401.48 427.24 405.04 432.37 408.95 437.22 C 414.99 436.80 421.01 436.03 427.07 435.82 C 428.90 435.55 430.38 437.93 429.38 439.48 C 426.30 445.06 422.78 450.40 419.58 455.91 C 421.83 461.81 424.38 467.59 426.49 473.53 C 427.39 475.14 426.01 477.74 424.02 477.14 C 418.00 475.84 412.16 473.80 406.20 472.28 C 401.62 476.37 397.24 480.71 392.55 484.67 C 391.13 486.09 388.22 485.12 388.30 483.02 C 387.70 476.61 387.50 470.16 387.14 463.74 C 382.15 460.38 377.03 457.21 372.01 453.88 C 369.99 453.05 369.95 449.81 372.14 449.18 C 377.69 446.66 383.40 444.53 388.98 442.09 C 390.39 435.77 391.59 429.40 393.20 423.14 Z" />
<path fill="#000000" opacity="1.00" d=" M 300.56 498.56 C 307.92 491.69 317.76 487.11 327.97 487.63 C 340.19 487.31 352.46 492.24 360.82 501.20 C 374.22 514.63 379.14 533.84 381.87 552.04 C 383.09 564.33 383.34 576.71 383.05 589.05 C 388.47 578.20 395.95 568.05 406.05 561.14 C 415.07 555.34 426.60 553.26 436.96 556.39 C 447.61 558.75 455.86 567.36 460.07 577.13 C 467.43 596.20 466.97 617.13 465.09 637.17 C 462.82 667.05 456.04 696.33 452.78 726.10 C 451.18 736.98 450.32 748.09 451.58 759.06 C 452.36 763.76 453.49 768.70 456.61 772.46 C 460.09 776.67 467.11 777.98 471.51 774.45 C 476.04 771.05 479.72 766.65 482.90 762.00 C 491.60 749.00 497.55 734.38 502.53 719.62 C 503.72 716.87 502.60 713.95 502.39 711.13 C 500.91 694.81 501.99 678.31 505.25 662.27 C 506.20 657.64 509.37 653.62 513.57 651.48 C 522.32 646.47 535.98 650.53 538.16 661.03 C 538.47 670.37 537.03 679.68 536.58 689.00 C 535.81 704.70 535.93 720.43 536.91 736.12 C 538.12 744.41 538.43 753.52 543.58 760.52 C 547.77 764.47 553.95 760.66 556.91 756.95 C 564.18 747.70 567.54 736.10 570.54 724.90 C 575.30 708.12 577.12 690.73 578.47 673.40 C 566.36 673.10 554.24 667.97 546.22 658.77 C 535.43 646.44 536.10 626.11 547.23 614.22 C 553.56 607.10 563.82 603.38 573.15 605.90 C 579.62 607.79 583.74 613.84 586.27 619.74 C 591.44 632.66 592.14 646.78 592.28 660.54 C 600.09 660.54 607.89 659.58 615.50 657.79 C 620.55 656.63 625.84 655.87 630.98 656.92 C 636.99 658.12 642.07 663.66 642.00 669.92 C 642.17 688.95 640.21 707.92 640.51 726.96 C 640.03 753.97 643.17 781.64 654.54 806.41 C 667.64 799.74 681.26 793.59 695.90 791.33 C 709.68 788.95 724.76 788.88 737.31 795.83 C 746.26 800.34 752.45 809.91 752.56 819.98 C 752.57 825.28 752.50 830.95 749.66 835.64 C 745.20 843.72 736.84 848.98 728.13 851.43 C 713.18 856.14 696.88 854.11 682.43 848.63 C 670.39 843.96 659.19 836.73 650.63 827.00 C 605.54 854.07 565.68 889.08 519.65 914.68 C 490.52 931.13 458.47 942.92 425.11 946.69 C 407.01 948.20 388.33 949.67 370.68 944.31 C 354.02 939.69 338.06 930.38 328.09 915.95 C 319.89 904.12 317.03 889.12 319.01 874.97 C 321.79 858.70 331.39 844.34 343.55 833.50 C 353.73 824.37 365.68 817.25 378.53 812.58 C 389.97 808.29 401.91 804.95 414.15 804.17 C 433.31 802.24 453.33 803.79 470.97 812.00 C 489.00 820.03 503.54 835.94 509.05 854.98 C 511.02 862.15 512.56 869.51 512.68 876.97 C 512.58 883.34 507.73 890.04 501.00 890.26 C 496.46 890.81 491.65 888.33 489.94 884.02 C 487.73 878.97 489.00 873.40 489.42 868.16 C 487.32 855.69 481.68 843.40 471.89 835.13 C 461.96 826.30 449.03 821.41 435.96 819.77 C 413.61 816.73 390.63 822.15 371.00 832.95 C 354.82 842.01 340.44 856.35 335.80 874.77 C 334.08 883.41 333.92 892.86 337.88 900.95 C 343.69 914.04 356.32 922.62 369.35 927.53 C 388.35 934.74 409.28 934.57 429.07 931.14 C 459.28 925.91 487.37 912.72 513.98 897.95 C 558.00 873.06 598.36 842.44 640.65 814.86 C 623.79 797.44 616.50 773.37 612.90 749.97 C 609.57 724.09 609.94 697.96 610.04 671.93 C 604.01 672.53 597.97 672.95 591.93 673.32 C 590.89 692.47 587.60 711.44 583.11 730.07 C 579.45 744.03 574.74 758.79 563.57 768.66 C 555.13 776.43 541.99 776.71 531.93 772.17 C 521.14 767.09 514.51 756.42 509.99 745.83 C 504.33 759.70 497.00 773.47 485.51 783.42 C 480.13 788.33 473.22 791.67 465.91 792.21 C 453.20 792.76 439.85 790.17 429.54 782.35 C 419.03 774.44 413.15 761.76 410.96 749.05 C 408.09 736.55 408.75 723.62 409.30 710.92 C 411.62 681.94 418.42 653.60 423.76 625.08 C 426.34 613.17 428.39 601.12 429.42 588.96 C 429.80 583.18 430.18 576.88 427.32 571.63 C 425.94 569.11 422.56 569.64 420.26 570.26 C 411.47 572.77 405.40 580.26 400.68 587.66 C 389.24 606.29 382.35 627.22 375.91 647.98 C 370.81 666.46 365.95 685.03 362.63 703.92 C 361.50 709.48 356.60 713.86 351.06 714.80 C 345.13 716.06 338.28 712.81 336.22 706.95 C 333.79 701.47 336.44 695.61 336.99 690.03 C 341.39 652.26 342.78 614.16 341.87 576.16 C 340.93 555.29 340.15 534.07 334.05 513.94 C 332.59 510.03 331.13 505.27 327.05 503.38 C 321.09 503.30 316.47 507.70 312.78 511.86 C 302.10 525.60 296.34 542.25 290.39 558.39 C 275.42 604.83 265.89 652.84 258.81 701.06 C 256.91 712.48 256.25 724.06 254.67 735.53 C 253.82 743.66 253.47 751.83 253.22 760.00 C 253.14 762.85 252.00 765.98 249.28 767.31 C 241.89 771.22 231.39 767.19 228.75 759.16 C 221.26 740.58 216.73 720.98 212.41 701.47 C 208.00 680.87 204.63 660.03 202.66 639.04 C 200.07 610.75 199.24 582.06 203.47 553.89 C 204.47 548.91 204.72 543.63 207.06 539.03 C 211.33 532.20 219.34 528.59 227.11 527.61 C 233.81 526.74 241.41 527.53 246.59 532.29 C 250.75 535.86 252.48 541.68 251.63 547.02 C 249.02 561.86 249.25 576.99 248.59 592.00 C 248.31 609.77 247.40 627.57 248.46 645.33 C 248.83 636.83 250.87 628.55 252.14 620.18 C 257.25 593.83 263.55 567.59 273.48 542.59 C 280.12 526.67 287.83 510.58 300.56 498.56 M 565.78 617.72 C 562.99 622.23 563.30 627.89 563.77 632.97 C 564.84 642.83 569.45 653.15 578.46 658.11 C 578.12 647.49 577.22 636.81 574.59 626.49 C 573.44 623.17 572.34 619.54 569.61 617.16 C 568.53 616.07 566.42 616.17 565.78 617.72 M 663.89 819.31 C 679.43 834.26 702.31 842.24 723.64 837.69 C 729.81 836.04 735.91 831.62 737.10 825.00 C 737.60 820.19 736.21 814.79 732.30 811.68 C 725.36 805.73 715.73 804.71 706.95 805.01 C 691.68 806.13 677.18 811.98 663.89 819.31 Z" />
<path fill="#000000" opacity="1.00" d=" M 933.60 519.53 C 942.39 515.37 952.56 514.40 962.09 516.14 C 969.93 517.23 976.90 522.48 980.67 529.38 C 987.17 541.11 987.43 555.08 986.09 568.10 C 982.65 594.45 972.35 619.70 957.32 641.55 C 947.73 655.45 935.46 667.98 920.09 675.38 C 920.66 703.15 920.72 731.23 926.63 758.51 C 928.63 766.10 931.15 773.77 935.68 780.26 C 939.13 785.04 945.53 788.79 951.45 786.44 C 956.38 783.31 959.32 777.98 962.04 772.98 C 966.53 763.42 969.65 753.27 972.38 743.08 C 973.36 739.23 975.13 735.23 973.79 731.24 C 969.40 714.44 971.21 696.72 974.99 679.99 C 978.33 667.83 983.50 655.64 992.82 646.83 C 999.25 640.49 1008.00 636.76 1016.96 635.97 C 1024.10 635.27 1031.48 638.49 1035.63 644.39 C 1041.27 652.34 1042.87 662.42 1042.58 671.98 C 1042.74 682.84 1040.10 693.98 1033.73 702.91 C 1026.56 713.02 1014.54 719.21 1002.25 719.98 C 1002.97 731.86 1005.55 743.73 1010.53 754.57 C 1013.38 760.24 1016.84 766.18 1022.66 769.22 C 1026.40 771.30 1030.80 770.02 1034.53 768.60 C 1042.56 764.97 1047.82 757.36 1051.60 749.68 C 1056.39 739.63 1059.61 728.91 1062.11 718.09 C 1064.42 709.62 1065.20 700.81 1067.50 692.35 C 1069.41 687.19 1078.06 687.59 1079.36 693.01 C 1079.97 697.09 1078.52 701.09 1077.87 705.08 C 1074.51 724.25 1070.53 743.78 1061.01 760.97 C 1055.57 770.45 1047.55 779.25 1036.87 782.64 C 1029.93 785.04 1022.11 785.30 1015.17 782.80 C 1001.43 778.43 990.82 767.54 983.38 755.54 C 979.95 767.46 975.84 779.52 968.29 789.53 C 963.89 795.31 957.48 800.15 950.02 800.67 C 940.92 800.84 931.66 798.23 924.44 792.59 C 917.12 786.80 911.22 779.29 907.00 770.98 C 902.34 762.75 898.81 753.89 896.44 744.73 C 892.44 755.97 887.79 767.10 881.07 777.01 C 874.93 786.93 866.61 795.97 855.86 800.88 C 846.58 804.99 835.92 804.49 826.30 801.88 C 808.85 796.74 796.13 781.25 790.33 764.51 C 786.47 771.23 781.91 778.22 774.67 781.66 C 767.46 785.62 758.44 784.27 751.44 780.51 C 742.30 775.23 736.63 765.79 732.74 756.26 C 728.53 744.86 725.76 732.91 724.89 720.78 C 721.07 729.50 715.53 738.53 706.40 742.40 C 698.88 745.70 690.37 743.10 683.41 739.62 C 669.94 732.08 662.90 716.81 661.11 702.00 C 659.89 688.98 661.69 675.46 667.77 663.77 C 672.58 653.85 680.43 645.16 690.54 640.51 C 699.10 636.46 708.80 635.35 718.15 636.28 C 726.78 637.17 734.65 643.80 736.24 652.47 C 740.83 649.86 746.59 648.29 751.67 650.46 C 756.50 652.23 760.05 656.93 760.48 662.05 C 760.75 665.74 760.06 669.40 759.77 673.08 C 758.47 691.01 757.79 708.99 757.45 726.97 C 757.65 734.81 757.09 742.69 758.17 750.49 C 758.85 756.28 759.05 762.57 762.56 767.49 C 765.52 770.71 770.57 769.10 772.92 765.96 C 777.87 759.91 780.87 752.49 783.30 745.12 C 784.62 741.51 783.48 737.71 783.19 734.04 C 781.63 714.95 783.23 695.58 788.37 677.12 C 791.96 665.16 796.98 653.43 804.69 643.52 C 811.58 634.91 820.72 627.33 831.85 625.31 C 839.42 623.85 848.54 623.91 854.35 629.75 C 858.34 633.29 860.11 638.73 860.06 643.96 C 860.31 650.36 858.62 657.31 853.75 661.77 C 850.44 664.29 845.37 665.83 841.69 663.25 C 838.42 660.92 839.12 655.49 842.47 653.58 C 844.32 652.14 847.29 651.56 847.84 648.94 C 849.36 643.56 847.19 635.81 840.98 634.75 C 836.95 633.91 834.22 637.51 832.55 640.60 C 827.88 649.41 825.69 659.26 823.97 669.00 C 820.96 683.46 820.79 698.27 820.09 712.96 C 820.14 728.75 820.87 744.67 824.46 760.10 C 825.98 768.13 828.72 776.05 833.25 782.89 C 836.37 787.36 841.88 791.32 847.58 789.50 C 856.14 786.61 861.90 779.06 866.78 771.86 C 877.17 756.24 884.46 738.72 889.37 720.67 C 890.55 717.30 889.13 713.88 888.79 710.51 C 886.78 692.41 884.77 674.26 885.21 656.02 C 884.71 629.96 886.87 603.66 894.30 578.58 C 897.53 565.91 902.73 553.72 909.61 542.61 C 915.64 533.21 923.63 524.75 933.60 519.53 M 945.24 544.21 C 938.18 552.92 934.53 563.71 931.30 574.29 C 927.66 587.28 925.86 600.69 923.93 614.02 C 921.79 629.11 921.27 644.35 920.77 659.56 C 932.41 652.57 941.39 642.01 948.67 630.71 C 954.60 621.74 959.04 611.88 962.97 601.90 C 966.80 591.03 970.16 579.81 970.79 568.23 C 971.48 559.62 971.92 550.59 968.77 542.38 C 967.60 538.94 964.94 535.41 960.96 535.45 C 954.73 535.74 949.13 539.52 945.24 544.21 M 714.48 647.52 C 708.88 648.41 705.84 653.80 703.32 658.31 C 699.89 665.44 697.58 673.09 695.79 680.79 C 693.10 695.04 690.52 710.04 694.71 724.26 C 695.79 727.56 697.97 731.94 702.04 731.72 C 706.81 730.56 709.66 726.00 711.85 721.94 C 716.61 712.52 719.66 702.32 722.13 692.09 C 724.98 681.51 726.36 670.55 729.81 660.14 C 726.83 659.90 723.85 658.21 723.64 654.93 C 723.02 650.64 718.95 646.83 714.48 647.52 M 1016.68 648.61 C 1010.06 651.67 1007.42 659.12 1005.35 665.58 C 1002.00 679.28 1000.87 693.49 1001.65 707.56 C 1008.90 706.76 1015.86 703.20 1020.36 697.41 C 1027.04 689.20 1028.82 678.28 1029.32 668.02 C 1028.90 661.23 1026.98 653.91 1021.77 649.21 C 1020.43 647.79 1018.31 647.63 1016.68 648.61 Z" />
<path fill="#000000" opacity="1.00" d=" M 516.35 602.45 C 520.16 601.43 524.24 602.57 527.55 604.54 C 538.62 611.93 539.05 630.51 528.37 638.42 C 524.67 641.07 519.71 642.36 515.30 640.84 C 509.10 638.94 504.58 633.25 503.16 627.05 C 502.58 622.23 502.38 617.05 504.54 612.56 C 506.68 607.66 511.01 603.53 516.35 602.45 Z" />
</g>
</svg>
