<?xml version="1.0" encoding="UTF-8" ?>
<!DOCTYPE svg PUBLIC "-//W3C//DTD SVG 1.1//EN" "http://www.w3.org/Graphics/SVG/1.1/DTD/svg11.dtd">
<svg width="1200pt" height="1200pt" viewBox="0 0 1200 1200" version="1.1" xmlns="http://www.w3.org/2000/svg">
<g id="#000000ff">
<path fill="#000000" opacity="1.00" d=" M 660.94 159.07 C 663.26 156.89 666.71 157.70 669.47 158.42 C 688.92 163.83 708.43 169.02 727.92 174.31 C 736.05 176.64 738.60 185.60 743.43 191.58 C 747.17 196.10 748.96 202.95 754.95 205.05 C 870.93 246.26 965.34 343.17 1003.97 459.99 C 1007.43 470.31 1010.32 480.81 1013.01 491.36 C 1016.33 490.76 1019.59 489.74 1022.98 489.59 C 1027.34 489.45 1031.14 493.70 1030.38 498.02 C 1028.06 512.69 1025.48 527.32 1023.04 541.97 C 1022.47 544.93 1021.88 548.45 1019.03 550.11 C 1015.07 552.71 1009.37 550.59 1007.73 546.25 C 1001.65 533.39 995.38 520.63 989.11 507.87 C 987.61 505.01 986.50 501.39 988.58 498.51 C 990.92 494.79 995.79 495.18 999.53 494.07 C 986.82 439.58 961.00 388.47 926.30 344.71 C 879.72 285.86 816.48 239.83 745.16 215.95 C 738.75 218.98 732.22 221.75 725.85 224.87 C 722.85 226.38 719.34 226.26 716.14 225.57 C 696.48 221.23 676.78 217.10 657.12 212.74 C 654.39 212.09 651.03 210.92 650.33 207.84 C 649.57 205.26 651.35 202.72 653.72 201.82 C 661.94 198.44 670.35 195.53 678.55 192.09 C 672.63 184.16 666.51 176.40 660.59 168.47 C 658.42 165.84 658.06 161.33 660.94 159.07 Z" />
<path fill="#000000" opacity="1.00" d=" M 491.41 175.02 C 492.62 171.04 497.31 169.39 501.10 170.37 C 516.51 173.15 531.99 175.68 547.36 178.69 C 553.61 179.90 555.02 189.54 549.41 192.45 C 536.17 198.85 522.85 205.09 509.60 211.48 C 506.72 212.98 503.03 213.84 500.15 211.87 C 496.22 209.52 496.79 204.36 495.53 200.53 C 444.40 212.63 395.86 235.33 353.71 266.69 C 290.21 313.58 241.25 380.14 216.19 455.04 C 217.49 459.33 219.90 463.21 221.60 467.35 C 223.39 471.80 226.71 475.96 226.29 481.00 C 226.06 484.37 225.11 487.64 224.44 490.96 C 220.78 508.33 217.13 525.72 213.52 543.11 C 212.89 545.79 212.11 549.03 209.31 550.25 C 206.58 551.85 203.23 549.59 202.27 546.92 C 199.02 538.72 195.81 530.51 192.67 522.27 C 184.37 528.07 176.58 534.55 168.38 540.47 C 165.77 542.57 161.57 542.34 159.52 539.58 C 157.63 537.67 157.99 534.79 158.61 532.43 C 163.43 514.27 168.27 496.12 173.00 477.94 C 173.84 474.89 174.34 471.67 175.99 468.92 C 177.48 466.44 179.93 464.81 182.32 463.29 C 188.59 459.27 194.74 455.08 201.00 451.04 C 202.86 449.91 204.29 448.15 204.95 446.07 C 224.03 391.43 255.38 341.17 295.77 299.74 C 335.03 259.33 382.53 226.78 434.91 205.87 C 453.73 198.24 473.15 192.11 492.89 187.31 C 492.24 183.25 490.41 179.16 491.41 175.02 Z" />
<path fill="#000000" opacity="1.00" d=" M 606.20 170.27 C 615.24 166.99 625.89 174.26 626.05 183.88 C 627.01 191.98 620.21 199.88 612.06 200.11 C 605.13 200.82 598.25 196.13 596.28 189.47 C 593.59 181.75 598.45 172.65 606.20 170.27 Z" />
<path fill="#000000" opacity="1.00" d=" M 574.45 174.55 C 582.26 172.37 590.09 181.26 586.71 188.71 C 584.22 196.12 573.15 197.87 568.57 191.52 C 563.80 185.81 567.16 176.07 574.45 174.55 Z" />
<path fill="#000000" opacity="1.00" d=" M 640.30 175.42 C 647.45 172.75 655.56 179.57 653.99 187.09 C 653.25 195.11 642.38 198.84 636.67 193.33 C 630.53 188.43 632.70 177.49 640.30 175.42 Z" />
<path fill="#000000" opacity="1.00" d=" M 481.77 351.77 C 483.45 349.16 483.36 344.82 486.92 343.91 C 490.03 342.71 493.92 345.56 493.07 348.96 C 490.95 359.60 484.88 369.79 475.39 375.38 C 465.40 381.31 453.34 382.39 441.96 381.68 C 432.69 381.08 423.54 379.31 414.50 377.21 C 409.50 392.67 406.84 408.76 404.46 424.80 C 401.21 448.03 399.27 471.50 399.51 494.97 C 399.76 508.47 400.52 522.09 403.79 535.24 C 405.54 541.47 407.69 547.95 412.30 552.69 C 415.68 556.27 421.65 557.71 425.90 554.80 C 430.75 551.44 433.31 545.84 435.52 540.56 C 438.99 531.59 441.32 522.16 442.84 512.67 C 437.31 498.83 436.83 483.56 438.54 468.91 C 439.38 463.39 440.98 457.22 445.96 453.99 C 451.60 450.64 460.16 451.22 464.17 456.84 C 466.32 459.86 464.71 463.55 464.28 466.85 C 462.15 480.12 460.45 493.73 462.44 507.13 C 463.31 512.14 465.35 518.17 470.93 519.50 C 476.39 515.13 479.10 508.47 481.46 502.10 C 485.90 489.44 488.40 476.19 490.15 462.91 C 491.69 453.79 504.76 450.75 511.09 456.81 C 512.99 458.62 513.76 461.28 513.83 463.85 C 514.62 485.07 513.38 507.03 520.71 527.34 C 522.95 532.84 525.89 539.34 531.98 541.29 C 536.57 540.09 539.79 536.18 542.34 532.41 C 547.03 524.94 549.70 516.31 550.82 507.60 C 539.86 498.02 533.95 483.96 530.54 470.09 C 528.33 460.22 526.93 449.68 529.81 439.80 C 531.18 435.17 534.14 430.66 538.74 428.76 C 544.33 426.55 550.99 428.61 554.97 432.95 C 559.92 438.28 561.93 445.54 563.31 452.50 C 566.38 469.20 564.94 486.27 563.07 503.01 C 568.35 507.07 575.80 507.63 582.35 508.20 C 581.64 495.21 582.64 481.57 588.78 469.86 C 592.64 462.60 599.17 456.55 607.18 454.27 C 612.86 452.56 619.53 451.81 624.74 455.26 C 629.30 458.23 631.33 463.71 631.92 468.91 C 633.70 487.27 623.16 507.12 605.31 513.42 C 606.50 522.01 608.07 530.82 612.54 538.39 C 614.45 541.45 617.22 544.58 621.01 545.05 C 627.65 543.90 632.88 538.99 636.77 533.75 C 642.43 525.97 646.01 516.91 648.85 507.78 C 650.47 503.95 648.61 499.97 648.25 496.09 C 645.27 475.29 644.11 454.05 646.62 433.14 C 649.02 416.42 653.67 399.04 665.22 386.19 C 672.62 377.81 683.95 373.08 695.13 374.13 C 701.31 374.71 707.95 375.99 712.49 380.59 C 719.63 387.55 720.99 398.39 719.75 407.85 C 717.38 423.89 710.32 439.00 700.75 451.99 C 693.24 462.10 683.69 471.09 671.96 476.05 C 672.70 495.11 672.83 514.40 677.25 533.06 C 678.97 539.52 681.07 546.26 685.72 551.27 C 688.41 554.11 693.18 556.09 696.78 553.77 C 700.33 551.19 702.36 547.12 704.22 543.26 C 709.01 532.64 711.81 521.27 714.26 509.92 C 715.15 506.97 713.86 504.04 713.33 501.17 C 710.85 489.29 709.81 477.15 709.72 465.03 C 709.51 459.81 712.37 454.08 717.76 452.76 C 723.99 450.54 733.13 453.37 733.59 460.92 C 734.60 482.00 733.19 503.71 739.97 524.04 C 742.15 529.98 744.99 536.63 751.04 539.51 C 755.52 539.39 758.59 535.32 760.92 531.91 C 765.89 523.93 768.80 514.81 770.59 505.63 C 756.70 491.53 749.49 471.63 749.31 452.00 C 749.51 444.51 750.43 436.38 755.23 430.31 C 759.76 424.53 769.02 425.12 774.10 429.84 C 780.17 435.38 782.23 443.79 783.70 451.57 C 786.39 468.20 785.17 485.20 782.83 501.80 C 788.71 505.20 795.45 506.88 802.23 506.82 C 802.09 495.30 803.63 483.63 807.83 472.86 C 811.12 464.59 816.90 456.74 825.37 453.32 C 831.37 451.02 838.66 449.97 844.41 453.51 C 849.29 456.55 851.34 462.43 851.87 467.90 C 853.34 486.04 843.02 505.72 825.24 511.78 C 826.31 520.41 827.33 529.46 831.92 537.05 C 834.32 540.94 839.37 544.43 843.97 542.16 C 852.74 538.75 858.33 530.47 862.46 522.42 C 867.24 512.87 870.20 502.51 872.09 492.02 C 872.35 487.97 878.08 486.30 880.62 489.36 C 882.59 491.51 881.46 494.56 881.13 497.10 C 878.27 512.22 874.65 527.91 865.18 540.41 C 859.89 547.48 851.82 552.63 842.90 553.35 C 835.00 554.08 827.18 550.79 821.19 545.80 C 812.31 538.45 806.67 527.81 803.82 516.77 C 796.00 517.35 788.30 515.37 780.99 512.79 C 778.69 523.46 775.55 534.65 767.72 542.68 C 760.98 549.60 749.84 552.24 740.98 547.99 C 731.71 543.64 725.63 534.78 721.22 525.86 C 718.65 535.96 715.80 546.25 709.98 555.02 C 706.77 559.84 702.01 564.22 696.02 564.85 C 686.99 565.66 678.02 561.66 671.73 555.30 C 663.30 546.81 658.38 535.60 654.66 524.41 C 651.24 533.51 646.48 542.59 638.69 548.71 C 631.17 554.70 620.59 556.75 611.48 553.44 C 596.27 548.37 586.26 533.36 583.66 518.01 C 575.99 518.18 568.31 517.02 561.08 514.43 C 558.60 525.59 554.87 537.25 546.32 545.31 C 540.04 551.34 530.16 553.52 522.10 549.96 C 513.12 546.08 507.04 537.80 502.56 529.43 C 497.53 519.81 494.47 509.29 492.30 498.69 C 489.50 508.77 485.73 519.54 477.16 526.17 C 469.62 532.07 458.89 529.32 451.77 524.12 C 449.37 535.24 446.44 546.57 440.17 556.21 C 436.50 561.89 430.93 566.92 423.99 567.81 C 415.01 568.74 405.72 565.92 398.65 560.33 C 389.00 552.73 383.14 541.42 379.12 530.04 C 372.96 512.01 370.56 492.92 369.75 473.95 C 368.88 451.05 370.36 428.05 374.32 405.48 C 376.51 393.66 379.23 381.85 383.91 370.75 C 366.61 368.79 348.35 368.26 331.90 374.82 C 322.43 378.53 314.06 385.80 310.56 395.53 C 308.15 401.21 308.16 407.43 307.65 413.46 C 307.18 418.44 298.93 419.19 298.25 413.97 C 297.52 398.91 301.49 383.09 311.29 371.36 C 319.52 361.42 331.23 354.85 343.56 351.42 C 363.90 345.67 385.71 346.74 406.01 352.13 C 423.73 356.50 441.52 362.09 459.96 361.89 C 468.11 361.81 477.57 359.47 481.77 351.77 M 693.88 388.90 C 685.92 392.76 682.22 401.54 679.42 409.41 C 673.72 427.25 672.53 446.17 672.24 464.78 C 681.23 459.96 688.43 452.39 694.11 444.01 C 700.51 434.33 705.36 423.49 707.63 412.08 C 708.61 405.13 709.29 397.45 705.91 391.02 C 703.68 386.57 697.72 387.24 693.88 388.90 M 762.48 438.38 C 759.86 442.77 760.38 448.19 760.48 453.10 C 761.54 466.89 765.18 480.81 772.78 492.49 C 773.82 479.51 774.12 466.37 772.30 453.44 C 771.50 448.58 770.54 443.50 767.63 439.42 C 766.60 437.82 763.81 436.32 762.48 438.38 M 542.44 439.44 C 540.04 441.52 540.26 445.09 540.00 447.98 C 539.65 464.08 544.45 480.23 553.04 493.82 C 553.94 481.26 553.99 468.60 552.40 456.10 C 551.65 451.40 551.07 446.49 548.72 442.28 C 547.58 440.12 544.87 438.17 542.44 439.44 M 833.89 460.89 C 830.44 463.35 828.87 467.52 827.54 471.38 C 824.54 481.23 824.07 491.68 824.51 501.91 C 835.54 495.90 841.93 483.33 842.20 471.01 C 842.12 467.69 841.81 464.05 839.63 461.38 C 838.22 459.67 835.57 459.55 833.89 460.89 M 614.30 462.30 C 610.45 464.80 608.80 469.41 607.36 473.55 C 604.45 483.23 603.92 493.49 604.53 503.53 C 614.25 498.30 620.25 487.83 621.89 477.14 C 622.55 472.66 622.66 467.70 620.29 463.68 C 619.13 461.62 616.23 460.88 614.30 462.30 Z" />
<path fill="#000000" opacity="1.00" d=" M 182.45 549.68 C 190.18 546.42 199.06 554.63 196.42 562.56 C 194.67 569.74 184.88 572.50 179.46 567.62 C 173.28 562.96 175.05 552.08 182.45 549.68 Z" />
<path fill="#000000" opacity="1.00" d=" M 771.91 563.81 C 781.20 555.28 794.95 551.08 807.22 554.83 C 814.11 556.94 819.12 562.98 821.29 569.69 C 824.57 579.77 824.40 590.64 822.98 601.04 C 820.33 617.98 813.99 634.31 804.77 648.75 C 797.60 659.89 788.36 670.15 776.36 676.15 C 777.64 689.43 778.49 702.77 780.65 715.94 C 781.84 702.14 783.44 688.00 789.34 675.30 C 792.49 668.60 797.79 661.99 805.49 660.64 C 814.58 659.26 824.09 663.03 830.23 669.79 C 836.71 676.86 840.13 686.22 841.76 695.54 C 844.53 712.59 842.85 729.94 844.32 747.09 C 844.78 750.38 844.91 754.16 847.28 756.75 C 849.34 758.31 850.83 755.16 851.74 753.72 C 856.30 744.38 858.26 734.05 860.38 723.95 C 862.42 713.34 864.06 702.65 865.13 691.90 C 865.46 690.46 864.56 689.21 863.99 688.00 C 858.98 678.94 855.16 669.19 853.02 659.06 C 850.82 648.45 854.55 635.89 864.27 630.21 C 873.56 624.78 887.11 625.09 894.62 633.44 C 900.89 640.94 900.53 651.67 898.47 660.69 C 897.79 664.66 891.25 665.32 890.57 661.01 C 890.40 656.70 892.17 652.42 891.34 648.07 C 890.90 641.52 885.91 634.74 878.93 634.62 C 874.29 634.32 870.67 638.51 870.23 642.86 C 868.91 651.14 873.34 658.75 877.46 665.56 C 890.89 686.54 908.63 704.40 921.77 725.59 C 930.15 715.38 935.99 703.10 938.08 690.03 C 938.70 686.89 938.72 683.63 939.65 680.56 C 941.55 677.16 947.73 678.26 948.49 682.05 C 948.11 701.67 941.18 721.87 926.37 735.29 C 929.15 746.35 928.47 758.16 925.04 769.00 C 922.32 777.53 917.05 785.70 908.95 789.95 C 902.73 793.12 895.32 794.35 888.50 792.59 C 883.96 791.42 879.95 788.17 878.22 783.77 C 875.72 777.76 876.77 770.95 879.10 765.07 C 882.92 755.51 890.27 747.72 898.76 742.07 C 891.73 728.39 882.15 716.28 873.55 703.59 C 871.77 719.90 869.82 736.46 863.95 751.89 C 861.39 757.99 857.86 764.98 850.97 766.90 C 838.70 769.06 824.90 763.08 819.38 751.62 C 814.97 742.22 814.53 731.64 813.84 721.46 C 812.93 707.65 812.95 693.72 810.50 680.07 C 809.66 676.71 809.07 672.71 806.03 670.58 C 803.48 670.35 801.79 672.62 800.50 674.47 C 797.54 679.18 795.96 684.59 794.54 689.92 C 790.35 708.27 788.00 727.33 789.97 746.13 C 789.24 751.86 781.23 753.30 777.47 749.54 C 771.60 743.92 767.40 736.83 763.74 729.65 C 761.95 741.15 759.81 752.88 754.31 763.26 C 751.13 769.23 746.06 774.81 739.19 776.26 C 729.70 778.13 719.56 774.97 712.43 768.53 C 703.71 760.73 698.57 749.87 694.65 739.05 C 692.26 751.14 689.27 763.35 683.15 774.15 C 679.60 780.34 674.41 786.31 667.22 788.08 C 658.71 790.01 649.00 787.62 643.12 780.96 C 636.23 773.24 633.82 762.74 632.32 752.78 C 629.38 730.29 631.66 707.59 632.73 685.06 C 632.96 677.66 633.62 670.14 632.22 662.82 C 631.88 661.49 630.99 658.73 629.14 659.96 C 623.66 662.99 621.84 669.61 619.82 675.11 C 612.90 698.13 611.60 722.29 607.33 745.84 C 606.58 749.37 606.02 753.05 604.30 756.28 C 603.32 758.23 600.97 758.60 599.05 759.01 C 594.61 759.97 589.92 758.34 586.60 755.34 C 582.48 751.64 580.05 746.51 578.02 741.46 C 572.03 749.09 562.96 754.23 553.22 754.87 C 550.18 761.93 546.10 769.50 538.66 772.66 C 528.99 776.00 517.89 774.22 509.38 768.67 C 503.95 765.24 499.59 760.37 496.02 755.08 C 492.38 767.02 487.56 779.50 477.75 787.75 C 470.65 793.81 460.50 793.30 451.92 791.47 C 442.37 789.40 434.37 782.48 430.19 773.75 C 424.04 761.14 422.95 746.81 422.82 733.00 C 422.80 708.44 426.88 684.16 429.19 659.78 C 429.74 652.69 430.45 645.49 429.29 638.42 C 428.82 636.20 427.80 632.89 424.95 633.16 C 418.82 633.50 414.45 638.64 411.30 643.40 C 404.54 654.18 400.96 666.57 397.79 678.80 C 393.36 696.98 390.55 715.53 388.82 734.15 C 388.21 739.80 381.98 744.05 376.50 742.33 C 372.42 741.31 369.87 737.06 370.11 732.99 C 371.16 717.70 370.80 702.37 370.37 687.07 C 369.62 665.70 368.36 644.32 365.36 623.14 C 364.02 614.51 362.62 605.79 359.50 597.59 C 358.37 594.93 357.17 591.96 354.56 590.44 C 350.80 589.93 347.67 592.85 345.38 595.47 C 339.98 602.10 337.00 610.29 334.25 618.29 C 327.94 637.84 324.53 658.18 321.68 678.48 C 317.49 710.58 314.88 742.97 315.50 775.37 C 315.36 779.14 317.17 783.98 313.74 786.80 C 309.12 790.08 301.73 787.80 299.51 782.63 C 293.29 769.62 288.91 755.82 284.87 742.01 C 278.19 718.43 273.09 694.35 270.72 669.94 C 269.38 655.34 268.91 640.55 270.90 625.99 C 271.73 619.48 278.10 615.47 283.96 613.93 C 289.67 612.31 297.03 613.07 300.60 618.36 C 303.64 622.67 302.33 628.08 302.27 632.96 C 302.00 656.01 304.09 679.00 305.48 702.00 C 307.41 679.86 309.28 657.61 314.53 635.95 C 318.07 621.33 322.50 606.55 331.05 594.00 C 335.55 587.48 341.92 581.59 349.95 580.11 C 360.78 578.03 372.60 581.77 379.84 590.19 C 389.21 600.90 392.82 615.24 394.95 628.98 C 396.01 636.25 396.53 643.60 396.68 650.94 C 400.37 642.28 405.12 633.50 412.98 627.92 C 422.01 621.37 435.58 621.41 444.12 628.78 C 450.92 634.80 453.68 643.92 455.28 652.55 C 457.91 667.88 457.21 683.52 456.43 698.98 C 455.53 715.67 453.85 732.31 453.70 749.03 C 453.73 756.46 453.85 764.01 455.79 771.23 C 456.88 774.92 458.67 778.90 462.33 780.67 C 464.80 781.72 468.03 782.03 470.23 780.19 C 474.43 776.86 477.09 772.03 479.50 767.33 C 483.69 758.59 486.76 749.28 488.75 739.80 C 487.21 732.63 485.66 725.34 486.20 717.95 C 486.71 707.28 490.32 695.59 499.82 689.60 C 501.03 683.19 503.38 676.76 508.04 672.04 C 515.82 664.11 528.89 662.31 538.74 667.27 C 545.93 670.94 550.76 677.95 553.80 685.25 C 561.18 704.05 560.96 725.14 556.53 744.63 C 564.74 742.83 571.27 736.56 574.51 728.96 C 571.02 712.19 570.16 694.97 570.36 677.89 C 570.50 670.57 578.46 666.24 585.10 667.12 C 590.26 667.44 595.85 670.90 596.28 676.47 C 597.07 695.56 597.47 714.68 598.79 733.75 C 601.18 711.85 602.87 689.47 610.71 668.68 C 614.23 659.83 619.31 650.50 628.38 646.37 C 635.83 642.76 645.31 645.12 650.66 651.30 C 656.75 658.38 658.65 667.94 659.86 676.95 C 663.15 706.25 657.47 735.58 658.38 764.91 C 658.94 769.67 658.67 775.89 663.12 778.87 C 668.25 779.85 671.76 774.85 674.02 771.00 C 680.37 759.11 682.88 745.65 685.30 732.53 C 686.23 726.01 687.70 719.50 687.80 712.92 C 682.58 684.02 681.45 654.54 681.95 625.23 C 669.25 629.44 655.32 631.59 642.25 627.75 C 635.00 625.72 628.09 622.40 621.95 618.05 C 618.55 615.57 620.60 609.31 624.95 609.68 C 628.91 610.64 631.92 613.79 635.72 615.26 C 650.18 622.53 667.48 621.16 682.16 615.25 C 682.69 609.14 682.07 602.24 686.15 597.14 C 691.14 590.57 702.01 590.37 707.46 596.46 C 709.80 598.84 710.58 602.18 710.97 605.39 C 723.64 600.90 737.41 597.48 750.81 600.71 C 754.98 587.11 761.26 573.56 771.91 563.81 M 788.27 576.31 C 782.75 584.51 780.21 594.28 778.39 603.88 C 774.91 623.89 774.61 644.34 775.71 664.58 C 788.91 656.34 797.71 642.77 803.74 628.73 C 810.71 612.22 814.94 593.64 810.44 575.90 C 809.36 572.23 807.36 567.50 802.98 567.12 C 796.83 567.20 791.61 571.44 788.27 576.31 M 709.63 615.90 C 709.19 647.05 710.51 678.27 714.34 709.19 C 716.51 724.71 718.84 740.47 724.93 755.02 C 727.14 759.74 729.77 765.17 734.97 767.12 C 740.10 768.69 743.59 763.49 745.55 759.57 C 751.32 747.18 753.10 733.42 755.00 720.02 C 755.27 715.98 756.74 711.79 755.29 707.83 C 751.03 694.16 748.28 680.04 746.62 665.83 C 744.57 647.12 744.03 627.96 748.44 609.54 C 735.17 607.05 721.97 611.43 709.63 615.90 M 516.13 677.14 C 513.66 679.36 512.30 682.46 511.00 685.44 C 514.08 685.48 517.21 685.19 520.28 685.70 C 523.87 686.32 526.35 690.63 524.70 693.99 C 523.40 696.76 519.67 696.54 517.80 698.75 C 512.87 704.09 511.13 711.82 511.63 718.91 C 517.59 732.47 531.29 741.99 545.86 743.91 C 549.12 727.57 549.13 710.39 544.84 694.25 C 542.87 687.68 540.07 680.86 534.52 676.50 C 529.31 672.33 520.98 672.45 516.13 677.14 M 515.35 742.91 C 518.85 750.44 524.25 758.71 533.01 760.33 C 537.50 761.34 540.36 757.14 542.21 753.75 C 532.58 752.22 523.23 748.71 515.35 742.91 M 887.95 770.05 C 886.94 774.64 887.52 780.37 891.66 783.29 C 896.92 786.68 905.11 783.67 906.67 777.49 C 908.91 768.38 905.80 759.03 902.52 750.58 C 895.89 755.38 889.78 761.83 887.95 770.05 Z" />
<path fill="#000000" opacity="1.00" d=" M 1014.33 564.47 C 1021.43 561.98 1029.44 568.67 1027.97 576.12 C 1027.28 584.21 1016.24 587.89 1010.52 582.38 C 1004.40 577.47 1006.65 566.41 1014.33 564.47 Z" />
<path fill="#000000" opacity="1.00" d=" M 182.47 578.70 C 191.75 576.33 201.75 584.42 201.28 594.01 C 201.51 603.36 191.59 611.07 182.58 608.59 C 174.85 606.97 169.38 598.69 170.89 590.96 C 171.80 585.02 176.59 579.94 182.47 578.70 Z" />
<path fill="#000000" opacity="1.00" d=" M 1015.43 593.65 C 1023.66 591.58 1032.88 597.48 1033.85 606.03 C 1035.45 613.82 1029.71 621.93 1021.95 623.29 C 1013.52 625.35 1003.95 618.86 1003.54 610.03 C 1002.55 602.56 1007.99 594.96 1015.43 593.65 Z" />
<path fill="#000000" opacity="1.00" d=" M 182.31 616.38 C 189.35 614.03 197.27 620.78 195.77 628.14 C 195.15 636.16 184.19 640.04 178.54 634.38 C 172.15 629.49 174.46 618.25 182.31 616.38 Z" />
<path fill="#000000" opacity="1.00" d=" M 1015.23 631.37 C 1021.42 628.48 1029.55 633.11 1029.87 640.01 C 1030.66 645.46 1026.43 650.90 1020.94 651.38 C 1014.86 652.46 1008.53 647.24 1008.88 640.98 C 1008.69 636.79 1011.57 633.10 1015.23 631.37 Z" />
<path fill="#000000" opacity="1.00" d=" M 992.90 652.85 C 993.47 650.06 994.77 646.71 997.90 646.06 C 1000.62 645.35 1003.14 647.52 1004.02 649.97 C 1007.27 658.00 1010.20 666.16 1013.49 674.18 C 1021.83 668.38 1029.67 661.87 1037.97 656.00 C 1040.41 654.15 1044.32 654.20 1046.37 656.65 C 1048.51 658.60 1048.12 661.81 1047.52 664.36 C 1042.09 684.08 1036.80 703.84 1031.47 723.59 C 1030.77 726.70 1028.85 729.44 1026.15 731.14 C 1018.91 735.91 1011.69 740.70 1004.42 745.41 C 1002.31 746.66 1001.19 748.90 1000.42 751.12 C 975.18 822.65 928.25 885.86 868.92 932.83 C 826.32 966.80 776.66 991.74 724.12 1006.05 C 720.65 1007.00 717.19 1007.97 713.76 1009.02 C 714.55 1013.47 716.94 1018.26 714.71 1022.66 C 712.84 1026.10 708.46 1026.82 704.95 1025.95 C 689.98 1023.20 674.92 1020.90 659.98 1018.00 C 653.31 1017.22 652.00 1006.65 657.96 1003.98 C 671.20 997.53 684.50 991.20 697.75 984.78 C 700.81 983.19 704.92 982.92 707.63 985.35 C 710.43 988.04 710.29 992.23 711.07 995.78 C 748.06 986.44 783.78 971.96 816.69 952.63 C 875.09 918.05 924.48 868.33 958.65 809.68 C 971.24 787.85 981.57 764.74 989.82 740.93 C 987.14 735.04 984.52 729.13 981.60 723.36 C 979.55 719.45 979.56 714.83 980.47 710.62 C 984.73 691.38 988.74 672.10 992.90 652.85 Z" />
<path fill="#000000" opacity="1.00" d=" M 180.07 658.99 C 180.34 655.06 184.04 651.87 187.94 652.04 C 191.00 652.16 193.53 654.42 194.82 657.07 C 201.34 669.62 207.75 682.22 214.24 694.78 C 215.94 697.74 217.06 701.77 214.82 704.77 C 212.32 708.00 207.85 708.21 204.21 709.25 C 224.25 782.53 266.18 849.66 323.09 899.97 C 361.95 934.76 407.61 962.12 457.17 978.60 C 460.38 979.43 463.56 981.57 466.94 981.06 C 472.79 978.25 478.64 975.39 484.37 972.32 C 487.59 970.59 491.39 970.15 494.95 970.96 C 514.61 974.71 534.31 978.21 553.97 981.96 C 556.78 982.57 560.34 983.76 561.00 986.95 C 561.69 989.75 559.48 992.15 557.01 993.02 C 549.07 996.41 541.13 999.79 533.18 1003.14 C 539.49 1011.37 546.33 1019.20 552.48 1027.54 C 555.79 1031.92 551.45 1038.82 546.01 1037.20 C 525.50 1032.49 505.06 1027.38 484.56 1022.61 C 481.34 1021.99 478.57 1019.99 476.77 1017.30 C 472.10 1010.62 467.32 1004.03 462.78 997.27 C 461.39 994.87 459.12 993.18 456.45 992.50 C 408.16 976.85 363.15 951.44 324.39 918.71 C 294.61 893.78 268.16 864.82 246.46 832.60 C 221.75 795.80 202.73 755.11 191.02 712.34 C 186.44 712.94 181.45 715.58 176.99 713.18 C 173.85 711.56 172.91 707.64 173.61 704.41 C 175.91 689.29 177.62 674.08 180.07 658.99 Z" />
<path fill="#000000" opacity="1.00" d=" M 596.26 996.14 C 605.11 993.30 615.46 1000.55 615.27 1009.98 C 615.99 1018.51 608.50 1026.31 600.01 1026.25 C 591.07 1026.66 583.41 1017.67 585.00 1008.93 C 585.70 1002.87 590.38 997.66 596.26 996.14 Z" />
<path fill="#000000" opacity="1.00" d=" M 562.37 999.58 C 569.50 996.37 578.09 1003.26 576.49 1010.92 C 575.85 1019.16 564.57 1022.88 558.89 1017.12 C 553.32 1012.16 555.44 1002.11 562.37 999.58 Z" />
<path fill="#000000" opacity="1.00" d=" M 629.39 1002.44 C 636.48 999.64 644.57 1006.65 642.89 1014.05 C 642.08 1022.03 631.24 1026.02 625.50 1020.40 C 619.39 1015.39 622.00 1004.68 629.39 1002.44 Z" />
</g>
</svg>
