<?xml version="1.0" encoding="UTF-8" ?>
<!DOCTYPE svg PUBLIC "-//W3C//DTD SVG 1.1//EN" "http://www.w3.org/Graphics/SVG/1.1/DTD/svg11.dtd">
<svg width="1200pt" height="1200pt" viewBox="0 0 1200 1200" version="1.1" xmlns="http://www.w3.org/2000/svg">
<g id="#000000ff">
<path fill="#000000" opacity="1.00" d=" M 725.76 284.76 C 748.61 278.44 772.37 275.74 796.04 275.72 C 832.45 276.45 868.56 287.44 899.46 306.65 C 927.37 324.13 950.53 349.11 965.82 378.28 C 972.65 390.69 977.74 403.96 982.08 417.42 C 989.07 413.57 996.16 409.87 1003.03 405.81 C 1012.93 381.72 1022.58 357.48 1032.36 333.33 C 1033.89 329.30 1035.64 324.74 1039.89 322.90 C 1045.77 319.59 1053.83 322.94 1056.16 329.12 C 1057.68 332.49 1056.99 336.33 1055.58 339.60 C 1049.14 355.65 1042.57 371.65 1036.18 387.72 C 1040.15 385.45 1044.17 383.25 1048.18 381.05 C 1056.77 359.09 1065.63 337.24 1074.39 315.35 C 1076.98 308.31 1086.71 305.71 1092.54 310.37 C 1096.89 313.55 1098.43 319.67 1096.34 324.60 C 1091.28 337.43 1086.08 350.21 1081.02 363.03 C 1085.88 360.18 1090.93 357.65 1095.82 354.83 C 1096.96 354.30 1097.64 353.24 1098.10 352.11 C 1103.60 339.29 1109.25 326.53 1114.73 313.70 C 1116.21 309.60 1119.26 305.68 1123.75 304.78 C 1129.70 303.02 1136.52 307.01 1138.06 312.99 C 1139.72 317.90 1136.85 322.62 1135.02 327.02 C 1130.66 337.05 1126.29 347.07 1121.95 357.10 C 1131.11 360.21 1140.29 363.27 1149.42 366.49 C 1155.57 368.55 1159.26 376.23 1156.41 382.21 C 1154.31 387.71 1147.56 391.05 1141.95 389.05 C 1129.93 385.04 1117.94 380.92 1105.96 376.81 C 1101.47 379.17 1097.00 381.58 1092.66 384.19 C 1099.21 386.74 1105.84 389.09 1112.37 391.70 C 1118.52 393.95 1122.05 401.90 1118.82 407.79 C 1116.35 413.17 1109.67 416.12 1104.08 414.00 C 1091.04 409.15 1078.04 404.19 1065.03 399.26 C 1059.21 402.50 1053.37 405.70 1047.53 408.89 C 1057.15 413.13 1066.84 417.23 1076.43 421.55 C 1081.84 424.05 1084.26 430.79 1082.29 436.30 C 1080.21 442.27 1072.69 446.13 1066.80 443.28 C 1051.55 436.71 1036.35 430.01 1021.13 423.39 C 1010.19 429.51 999.19 435.51 988.20 441.53 C 999.68 497.27 998.30 556.16 980.58 610.46 C 964.20 662.20 933.65 709.99 891.21 744.17 C 880.12 753.97 867.38 761.60 855.60 770.49 C 839.13 782.19 823.69 795.25 807.98 807.94 C 792.93 819.82 778.71 832.71 763.99 844.99 C 747.33 859.38 730.39 873.45 713.59 887.69 C 699.80 898.83 686.67 910.77 672.76 921.77 C 655.35 936.00 638.05 950.37 620.44 964.35 C 615.51 968.45 608.04 968.60 602.67 965.27 C 598.76 962.86 597.07 958.30 593.77 955.26 C 584.33 945.97 573.89 937.76 563.38 929.74 C 518.23 895.76 471.11 864.54 424.82 832.15 C 390.44 808.05 355.80 784.32 321.65 759.89 C 289.02 777.38 256.59 795.24 224.06 812.90 C 233.53 822.47 243.17 831.86 252.65 841.41 C 254.54 843.08 254.33 846.75 251.86 847.75 C 249.99 848.38 247.97 848.11 246.04 848.16 C 212.38 847.48 178.71 846.75 145.04 846.36 C 143.08 846.09 140.41 846.60 139.19 844.64 C 137.27 841.75 139.88 838.72 141.17 836.17 C 161.60 800.58 181.93 764.94 202.31 729.33 C 203.76 725.71 209.96 726.95 209.59 730.96 C 210.64 750.68 211.83 770.40 212.70 790.14 C 241.92 774.04 271.32 758.26 300.56 742.21 C 274.44 717.42 254.47 686.52 240.77 653.31 C 232.83 635.09 227.39 615.90 223.21 596.50 C 214.07 552.74 213.96 507.17 222.28 463.28 C 227.61 437.91 235.43 412.82 248.22 390.15 C 254.63 378.59 262.03 367.57 270.60 357.51 C 290.68 333.18 315.64 312.65 344.25 299.17 C 391.99 275.77 448.04 271.21 499.46 283.86 C 530.93 292.31 559.48 310.58 580.92 335.04 C 591.69 347.20 601.43 360.37 609.01 374.77 C 618.07 358.56 629.26 343.46 642.56 330.46 C 665.62 308.23 694.90 292.93 725.76 284.76 M 778.04 299.08 C 757.60 300.83 737.25 304.82 718.12 312.35 C 686.93 323.87 659.65 345.50 641.08 373.05 C 633.11 384.67 626.69 397.29 621.27 410.28 C 619.70 414.16 616.18 417.14 612.06 417.93 C 605.75 419.34 598.88 415.45 596.63 409.42 C 582.54 373.10 558.10 339.83 524.36 319.61 C 509.26 310.60 492.28 304.94 474.88 302.63 C 444.35 298.03 412.73 300.09 383.20 309.20 C 355.64 317.64 329.84 332.11 308.66 351.70 C 289.64 369.08 274.30 390.41 263.93 414.00 C 254.53 436.35 248.59 460.13 245.74 484.19 C 239.13 536.86 245.45 591.34 265.29 640.66 C 273.80 660.18 283.79 679.24 296.84 696.15 C 305.74 707.70 315.61 718.59 326.81 727.97 C 337.00 722.41 347.21 716.90 357.37 711.30 C 360.15 709.79 362.94 708.13 366.11 707.67 C 371.67 706.90 377.50 710.28 379.47 715.56 C 382.21 721.41 379.01 728.72 373.42 731.56 C 365.33 735.98 357.21 740.36 349.12 744.78 C 363.28 754.57 377.24 764.66 391.38 774.47 C 446.76 813.92 503.06 852.07 557.95 892.21 C 576.61 906.30 595.66 920.06 612.43 936.43 C 638.36 915.08 664.09 893.46 689.48 871.46 C 703.44 858.70 718.34 847.04 732.47 834.47 C 751.53 817.88 770.87 801.61 790.12 785.23 C 806.71 771.35 823.73 757.99 841.04 745.01 C 851.78 737.05 863.27 730.11 873.54 721.51 C 890.64 707.32 906.18 691.16 919.20 673.13 C 945.33 636.44 961.67 592.91 966.78 548.19 C 970.45 517.23 968.76 485.80 963.52 455.13 C 946.23 464.64 928.97 474.21 911.64 483.64 C 906.94 486.23 900.83 484.43 897.65 480.30 C 893.05 474.84 894.72 465.48 901.07 462.07 C 920.06 451.57 939.07 441.09 958.12 430.68 C 950.71 401.07 936.65 372.75 915.74 350.33 C 893.64 326.21 863.72 309.94 832.00 302.47 C 814.41 298.01 796.06 297.57 778.04 299.08 Z" />
<path fill="#000000" opacity="1.00" d=" M 774.77 429.76 C 777.31 422.33 786.29 418.59 793.62 420.57 C 799.01 421.89 803.83 426.37 804.38 432.07 C 805.11 439.58 803.30 447.62 798.59 453.60 C 796.16 455.15 792.86 454.45 790.08 454.50 C 789.88 452.09 789.81 449.66 789.40 447.28 C 786.49 446.29 783.20 446.25 780.60 444.42 C 775.66 441.59 772.75 435.26 774.77 429.76 Z" />
<path fill="#000000" opacity="1.00" d=" M 351.31 446.95 C 352.25 439.48 352.68 431.73 355.75 424.77 C 361.66 426.78 367.59 428.78 373.47 430.90 C 371.31 440.78 370.70 450.91 370.29 460.99 C 369.90 474.04 370.13 487.19 372.38 500.08 C 373.77 507.22 375.67 514.80 380.99 520.12 C 385.77 516.10 387.21 509.72 388.89 503.99 C 393.71 484.65 395.11 464.70 396.92 444.91 C 402.32 445.16 407.67 446.03 413.09 446.11 C 414.25 446.26 416.77 445.93 416.29 447.93 C 414.97 465.96 415.44 484.13 417.56 502.08 C 418.53 508.72 419.34 515.62 422.67 521.57 C 427.91 516.14 430.59 508.91 433.02 501.92 C 440.64 478.52 442.47 453.80 444.51 429.45 C 450.78 428.84 457.14 429.81 463.46 429.77 C 463.68 432.05 463.67 434.36 463.49 436.66 C 461.96 459.96 459.65 483.47 452.57 505.83 C 449.17 515.94 444.75 526.33 436.47 533.43 C 429.81 539.21 419.34 541.07 411.63 536.29 C 406.99 533.55 404.35 528.61 402.39 523.78 C 399.39 528.51 395.57 533.05 390.27 535.23 C 381.80 538.82 371.29 536.83 364.75 530.36 C 358.62 524.41 355.71 516.05 353.74 507.93 C 349.25 487.96 349.52 467.23 351.31 446.95 Z" />
<path fill="#000000" opacity="1.00" d=" M 819.23 440.20 C 825.20 433.58 834.04 429.60 842.97 429.72 C 851.23 429.95 859.14 434.58 863.46 441.61 C 869.22 450.74 869.79 462.15 868.18 472.57 C 861.68 472.33 855.22 471.64 848.75 471.07 C 849.01 464.45 850.04 457.33 846.85 451.21 C 845.71 448.80 843.25 446.22 840.33 447.31 C 830.77 450.12 827.41 463.80 833.72 471.22 C 836.77 474.93 841.57 476.49 846.15 477.30 C 854.90 479.00 863.74 482.45 869.93 489.09 C 874.87 494.29 877.69 501.93 875.86 509.04 C 874.46 515.01 870.16 519.98 864.93 523.03 C 853.09 529.90 837.35 529.80 825.94 522.04 C 821.75 519.09 817.42 515.77 815.05 511.13 C 820.25 507.52 826.36 505.26 832.01 502.35 C 835.33 506.33 839.58 510.27 845.03 510.65 C 848.78 510.81 853.34 510.06 855.52 506.65 C 857.12 503.63 854.90 500.33 852.47 498.57 C 846.64 494.05 838.87 494.42 832.28 491.70 C 823.18 488.37 815.16 481.25 812.21 471.85 C 808.53 461.04 811.60 448.55 819.23 440.20 Z" />
<path fill="#000000" opacity="1.00" d=" M 658.98 435.93 C 667.33 432.69 678.04 433.84 684.23 440.78 C 689.46 446.63 690.14 455.13 688.74 462.55 C 686.24 476.21 680.29 489.13 672.35 500.47 C 668.40 506.05 663.68 511.10 658.20 515.19 C 660.27 518.79 662.89 522.56 667.06 523.85 C 671.48 525.12 676.13 523.32 679.77 520.80 C 685.77 516.53 690.18 510.42 693.80 504.09 C 691.70 480.78 691.40 457.13 694.69 433.92 C 701.03 434.53 707.40 434.92 713.72 435.78 C 712.95 438.86 712.41 441.99 712.09 445.16 C 717.35 438.93 724.86 434.53 733.07 433.83 C 743.41 432.55 753.92 437.62 759.92 446.02 C 766.04 454.63 768.36 465.28 769.74 475.58 C 771.27 489.86 770.62 504.75 765.35 518.26 C 762.08 526.57 755.52 533.79 747.05 536.93 C 737.95 540.35 727.37 538.75 719.29 533.48 C 719.11 534.05 718.75 535.19 718.57 535.75 C 712.23 537.02 705.83 538.19 699.40 538.84 C 698.10 533.33 697.03 527.76 696.14 522.18 C 692.11 529.10 687.02 535.95 679.60 539.47 C 672.48 542.81 664.05 542.00 656.91 539.16 C 648.99 535.97 643.12 529.17 639.40 521.65 C 635.29 528.52 630.12 535.46 622.42 538.47 C 613.05 541.96 601.94 539.07 594.84 532.20 C 588.65 526.25 585.12 518.12 583.00 509.93 C 582.20 510.01 580.59 510.18 579.78 510.27 C 580.34 519.58 581.35 528.86 582.89 538.06 C 583.53 539.91 581.11 539.74 580.03 540.01 C 574.44 540.64 568.87 541.54 563.25 541.90 C 559.69 523.07 558.83 503.81 559.16 484.67 C 556.14 485.84 553.12 487.02 550.10 488.20 C 550.66 501.57 547.40 515.42 539.25 526.22 C 532.82 534.95 522.96 541.36 512.08 542.60 C 501.57 543.95 490.70 540.22 482.97 533.04 C 472.73 523.67 467.63 509.69 467.23 496.01 C 466.86 481.35 471.34 466.21 481.14 455.10 C 487.69 447.61 496.95 442.13 507.02 441.49 C 516.55 440.75 526.16 444.35 533.23 450.71 C 539.48 456.21 543.83 463.54 546.72 471.28 C 551.06 471.30 555.41 471.32 559.76 471.32 C 560.55 459.74 561.71 448.15 563.90 436.74 C 570.30 437.37 576.65 438.41 583.00 439.40 C 582.74 442.24 582.31 445.06 581.88 447.89 C 590.28 441.68 601.73 439.96 611.59 443.39 C 618.59 445.81 624.14 451.96 625.83 459.17 C 627.53 465.93 626.18 473.08 623.51 479.40 C 619.23 489.53 611.35 497.89 601.96 503.48 C 603.34 509.50 605.10 515.88 609.57 520.38 C 612.88 523.80 618.16 522.66 622.05 521.00 C 628.00 518.43 631.97 513.02 634.93 507.47 C 631.91 490.60 633.45 472.79 639.85 456.86 C 643.51 447.99 649.74 439.45 658.98 435.93 M 732.40 451.65 C 728.12 453.26 725.20 457.11 723.15 461.04 C 718.65 469.96 717.16 480.14 717.27 490.05 C 717.67 497.14 718.17 504.67 722.18 510.79 C 725.35 515.71 729.99 520.38 735.99 521.36 C 739.86 521.92 742.90 518.72 744.73 515.71 C 748.40 509.42 749.52 502.03 750.14 494.89 C 750.83 484.81 750.22 474.54 747.36 464.82 C 745.85 460.11 743.79 455.13 739.63 452.16 C 737.54 450.62 734.72 450.81 732.40 451.65 M 659.78 459.70 C 654.46 470.27 653.16 482.43 653.50 494.12 C 657.44 489.04 660.81 483.52 663.62 477.73 C 667.42 469.59 670.92 460.58 669.17 451.45 C 664.43 451.50 661.89 456.12 659.78 459.70 M 505.41 467.63 C 510.92 472.26 518.68 470.68 525.31 471.06 C 521.81 464.83 515.85 457.93 507.96 458.92 C 503.67 459.15 502.11 465.05 505.41 467.63 M 598.31 459.35 C 593.59 460.75 590.35 464.83 587.85 468.85 C 583.46 476.22 580.81 484.51 579.19 492.90 C 590.50 491.42 600.83 483.76 605.17 473.16 C 606.58 469.62 607.43 465.54 606.24 461.83 C 605.01 458.70 601.07 458.66 598.31 459.35 M 493.66 516.40 C 496.76 520.91 501.39 525.05 507.08 525.49 C 512.96 525.80 518.09 521.97 521.65 517.64 C 528.21 509.55 530.68 498.76 530.01 488.50 C 524.01 488.34 518.00 488.54 512.02 488.10 C 503.75 487.42 495.54 484.28 489.60 478.38 C 485.71 490.83 486.22 505.33 493.66 516.40 Z" />
<path fill="#000000" opacity="1.00" d=" M 396.37 570.39 C 403.50 561.64 413.81 555.36 425.06 553.82 C 435.57 552.27 447.20 554.41 455.19 561.79 C 463.36 569.18 466.73 580.66 466.08 591.43 C 459.31 591.72 452.54 591.14 445.77 590.95 C 445.31 585.12 445.04 578.66 440.90 574.08 C 437.21 569.78 430.87 569.55 425.77 570.91 C 418.21 573.03 412.68 579.33 409.17 586.08 C 403.01 597.89 401.18 611.99 404.42 624.93 C 406.04 630.98 408.94 637.04 414.05 640.89 C 419.05 644.73 426.13 645.22 431.86 642.85 C 437.73 640.30 441.41 634.35 442.53 628.22 C 449.40 628.16 456.29 628.42 463.14 628.91 C 462.84 639.70 455.94 649.46 446.96 655.03 C 431.14 664.67 408.59 662.96 395.38 649.58 C 385.84 640.03 381.86 626.17 381.96 612.94 C 382.12 597.76 386.56 582.20 396.37 570.39 Z" />
<path fill="#000000" opacity="1.00" d=" M 789.30 558.00 C 790.67 556.96 792.50 558.07 794.05 558.09 C 799.03 559.08 804.08 559.70 809.02 560.92 C 808.73 563.31 808.42 565.71 808.12 568.11 C 814.13 567.64 820.13 566.94 826.16 566.66 C 827.00 572.13 827.72 577.62 828.19 583.14 C 821.21 584.04 814.18 584.43 807.18 585.10 C 807.10 597.46 807.45 609.94 810.18 622.04 C 811.55 627.25 813.11 632.98 817.36 636.61 C 822.16 637.75 827.33 636.13 831.03 632.97 C 836.43 628.44 839.46 621.76 841.06 615.04 C 844.34 615.25 847.60 615.78 850.78 616.64 C 849.00 626.78 845.98 637.25 838.85 644.98 C 831.16 653.58 817.75 656.57 807.25 651.69 C 800.13 648.39 795.33 641.61 792.60 634.45 C 786.89 619.28 786.25 602.79 786.40 586.76 C 781.29 586.99 776.21 587.89 771.10 587.53 C 770.75 582.06 769.78 576.63 769.82 571.14 C 775.69 570.60 781.58 570.25 787.46 569.76 C 787.97 565.82 788.22 561.83 789.30 558.00 Z" />
<path fill="#000000" opacity="1.00" d=" M 711.29 572.25 C 717.66 565.57 726.82 561.78 736.02 561.71 C 744.81 561.71 753.58 566.22 758.25 573.75 C 763.91 582.58 764.15 593.74 762.16 603.75 C 755.40 603.36 748.66 602.65 741.95 601.82 C 742.60 594.77 744.03 586.71 739.37 580.66 C 737.42 577.80 733.54 578.33 730.90 579.82 C 723.32 583.77 720.32 595.13 726.25 601.72 C 731.24 607.48 739.40 607.31 746.11 609.59 C 755.12 612.46 764.35 617.78 768.21 626.86 C 771.07 633.17 769.77 640.94 765.20 646.11 C 759.00 653.32 749.23 656.24 740.02 656.81 C 726.43 657.72 712.76 650.98 704.96 639.86 C 710.69 636.45 717.13 634.50 723.12 631.61 C 726.54 635.41 730.62 639.19 735.92 639.87 C 739.78 640.27 744.17 639.84 747.20 637.16 C 749.28 635.27 748.61 631.97 746.78 630.18 C 742.17 625.35 735.20 624.52 729.05 623.04 C 718.40 620.39 707.91 613.60 704.12 602.87 C 700.14 592.38 703.57 580.11 711.29 572.25 Z" />
<path fill="#000000" opacity="1.00" d=" M 532.44 567.06 C 539.11 567.36 545.69 568.56 552.32 569.22 C 549.80 600.43 546.50 632.04 551.30 663.23 C 544.83 664.07 538.34 664.75 531.85 665.33 C 530.05 665.88 530.05 663.59 529.77 662.50 C 528.55 655.05 528.04 647.51 527.85 639.97 C 523.46 647.82 518.64 655.86 511.24 661.24 C 503.79 666.79 493.13 665.06 485.80 660.17 C 477.86 654.78 474.95 644.89 473.75 635.85 C 471.89 619.82 474.15 603.64 477.41 587.94 C 478.68 582.18 480.02 576.41 482.07 570.87 C 488.50 572.26 494.79 574.25 501.14 575.97 C 496.58 592.23 493.99 609.12 494.02 626.03 C 494.25 633.39 494.66 641.41 499.37 647.48 C 504.73 641.69 507.98 634.39 511.36 627.37 C 520.13 607.93 526.98 587.65 532.44 567.06 Z" />
<path fill="#000000" opacity="1.00" d=" M 579.03 566.57 C 585.54 567.51 591.80 569.68 598.23 571.04 C 597.89 573.51 597.42 575.97 596.76 578.38 C 602.71 578.53 608.72 577.76 614.64 578.42 C 615.47 583.82 615.13 589.37 615.10 594.83 C 608.09 595.19 601.07 595.14 594.05 595.27 C 592.58 608.39 591.53 621.76 593.52 634.89 C 594.36 639.28 595.41 644.05 598.70 647.31 C 604.13 649.12 610.20 647.05 614.38 643.38 C 618.45 639.79 621.80 635.18 623.47 630.00 C 621.57 616.28 622.68 601.67 629.27 589.27 C 634.13 580.03 642.80 572.63 653.09 570.27 C 663.50 567.85 675.52 569.95 683.29 577.68 C 693.87 588.51 694.37 604.84 694.47 619.07 C 677.50 619.88 660.52 620.45 643.54 620.97 C 644.14 628.70 645.91 636.91 651.30 642.80 C 657.05 649.56 669.61 646.78 672.65 638.65 C 673.69 636.15 673.67 633.38 673.92 630.74 C 680.72 630.17 687.56 630.12 694.37 629.74 C 695.87 639.47 691.26 649.64 683.61 655.67 C 675.89 661.72 665.67 663.90 656.03 663.30 C 644.35 662.55 633.84 655.06 628.54 644.74 C 625.12 651.21 620.53 657.37 614.05 661.04 C 604.81 666.37 592.05 666.37 583.72 659.27 C 577.35 653.97 574.54 645.74 573.07 637.86 C 570.57 623.86 571.53 609.51 573.19 595.47 C 568.12 595.40 563.04 595.69 557.98 595.29 C 557.94 589.80 557.94 584.32 558.16 578.84 C 564.11 578.44 570.07 578.70 576.02 578.59 C 576.92 574.56 577.92 570.55 579.03 566.57 M 654.36 588.30 C 649.32 592.06 646.99 598.23 645.29 604.05 C 654.55 603.79 663.82 603.48 673.08 603.11 C 672.40 598.15 671.41 592.88 668.04 588.98 C 664.67 585.08 658.27 585.42 654.36 588.30 Z" />
<path fill="#000000" opacity="1.00" d=" M 748.34 681.49 C 754.15 679.94 760.08 678.75 766.00 677.70 L 766.68 678.16 C 771.18 694.41 774.47 711.12 775.46 727.98 C 775.97 740.69 775.28 754.31 768.42 765.42 C 760.29 778.47 742.01 782.38 728.33 776.57 C 719.48 772.79 713.82 763.41 713.76 753.90 C 720.34 753.48 726.92 752.86 733.52 752.84 C 734.16 756.07 734.86 760.19 738.27 761.66 C 741.99 762.76 746.64 762.42 749.44 759.43 C 752.98 755.82 754.11 750.69 755.11 745.91 C 746.73 751.20 735.73 752.67 726.59 748.49 C 719.34 745.39 714.25 738.77 711.42 731.59 C 705.99 717.13 705.44 701.09 707.95 685.97 C 714.22 686.53 720.41 687.79 726.62 688.85 C 725.26 698.94 725.67 709.28 727.94 719.21 C 729.16 723.98 730.80 729.00 734.51 732.46 C 737.26 735.16 742.01 734.06 744.39 731.37 C 748.03 727.28 749.32 721.71 750.21 716.46 C 751.60 705.79 751.72 694.70 748.68 684.29 C 748.40 683.37 748.28 682.44 748.34 681.49 Z" />
<path fill="#000000" opacity="1.00" d=" M 477.26 693.77 C 484.21 687.04 493.07 681.79 502.89 681.07 C 510.11 680.33 518.13 682.54 522.68 688.50 C 527.33 694.55 527.68 702.79 525.96 709.97 C 522.67 723.92 513.71 736.00 502.69 744.92 C 511.11 746.74 519.75 749.79 525.81 756.20 C 530.24 760.79 532.41 767.87 529.95 773.96 C 527.09 781.50 519.47 785.91 512.02 787.88 C 499.11 791.20 484.99 790.24 472.81 784.73 C 472.07 785.57 471.39 786.66 470.09 786.50 C 464.05 786.84 458.02 787.82 451.96 787.49 C 449.63 763.10 450.89 738.49 454.31 714.27 C 455.85 704.66 457.07 694.92 459.80 685.57 C 465.89 686.75 472.02 687.67 478.10 688.94 C 477.83 690.54 477.54 692.15 477.26 693.77 M 490.28 706.50 C 481.45 716.42 475.48 728.57 470.97 740.96 C 484.37 738.42 495.67 728.97 502.51 717.43 C 505.87 711.58 508.75 704.72 507.07 697.87 C 500.30 697.37 494.58 701.78 490.28 706.50 M 470.40 760.30 C 476.83 768.70 487.50 773.31 498.01 772.83 C 502.44 772.59 507.72 772.38 510.88 768.81 C 510.68 765.45 506.88 764.02 504.26 762.76 C 493.51 758.67 481.65 759.14 470.40 760.30 Z" />
<path fill="#000000" opacity="1.00" d=" M 625.91 684.97 C 632.25 685.28 638.63 685.62 644.90 686.67 C 644.04 696.21 643.71 705.78 643.62 715.35 C 653.22 704.38 670.71 701.01 683.30 708.72 C 694.46 715.41 700.15 728.38 701.63 740.88 C 703.23 754.01 700.12 768.78 689.87 777.86 C 679.42 787.22 663.02 788.04 651.20 780.79 C 651.07 781.43 650.81 782.71 650.68 783.35 C 644.43 784.86 638.01 785.69 631.69 786.89 C 627.76 772.25 626.20 757.07 625.00 741.99 C 623.77 723.01 623.84 703.89 625.91 684.97 M 657.62 727.59 C 652.56 735.30 650.93 744.66 649.97 753.68 C 654.17 759.45 659.05 765.27 665.79 768.11 C 670.22 770.01 675.38 767.65 677.72 763.65 C 682.96 755.32 682.98 744.65 680.35 735.43 C 678.68 730.20 676.04 724.52 670.81 722.08 C 665.75 719.97 660.32 723.33 657.62 727.59 Z" />
<path fill="#000000" opacity="1.00" d=" M 555.23 703.30 C 562.62 697.90 571.98 695.86 581.00 696.00 C 590.11 696.12 599.29 699.91 605.22 706.95 C 613.43 716.64 616.07 729.65 617.01 742.00 C 617.94 757.34 616.54 772.79 613.76 787.89 C 607.29 787.42 600.77 787.02 594.39 785.93 C 594.20 785.41 593.81 784.36 593.62 783.84 C 580.33 792.66 560.94 793.27 548.47 782.67 C 541.66 776.70 538.56 766.92 540.66 758.12 C 542.41 749.80 547.91 742.48 555.14 738.10 C 567.82 730.48 585.10 730.62 597.03 739.70 C 596.04 731.95 594.77 723.68 589.73 717.41 C 584.98 711.54 576.19 712.14 569.88 714.82 C 564.40 717.14 561.78 723.12 561.58 728.77 C 555.11 729.25 548.61 729.11 542.14 728.84 C 542.00 718.85 547.16 709.09 555.23 703.30 M 568.04 751.05 C 561.93 753.78 558.23 761.62 561.08 767.91 C 563.45 772.99 569.89 774.30 574.94 773.29 C 581.57 771.69 586.75 766.81 591.16 761.87 C 588.92 757.92 586.30 753.98 582.36 751.54 C 578.12 748.80 572.53 749.07 568.04 751.05 Z" />
</g>
</svg>
