<?xml version="1.0" encoding="utf-8"?>
<!-- Generator: Adobe Illustrator 23.0.3, SVG Export Plug-In . SVG Version: 6.00 Build 0)  -->
<svg version="1.1" id="Layer_1" xmlns="http://www.w3.org/2000/svg" xmlns:xlink="http://www.w3.org/1999/xlink" x="0px" y="0px"
	 viewBox="0 0 1133.9 1133.9" style="enable-background:new 0 0 1133.9 1133.9;" xml:space="preserve">
<style type="text/css">
	.st0{fill:#1E2121;}
	.st1{fill:#A81F26;}
	.st2{fill:#F2F1F2;}
	.st3{fill:#DD353A;}
	.st4{fill:#CFCFCE;}
	.st5{fill:#1D2121;}
	.st6{fill:none;}
	.st7{fill:#AA1F23;}
	.st8{fill:#FDFEFE;}
	.st9{fill:#EE742C;}
	.st10{fill:#BA5234;}
	.st11{fill:#ED1C24;}
	.st12{fill:#C42C3A;}
	.st13{fill:#058743;}
	.st14{fill:#0F4D70;}
	.st15{fill-rule:evenodd;clip-rule:evenodd;fill:#C42C3A;}
	.st16{fill-rule:evenodd;clip-rule:evenodd;fill:#1E2121;}
	.st17{fill:#E8E8E8;}
	.st18{fill:#186634;}
	.st19{fill:#BF2730;}
	.st20{fill:#B47A48;}
	.st21{fill:#3E1E14;}
	.st22{fill:#DBAD5D;}
	.st23{fill:#B84947;}
	.st24{fill:#C3976E;}
	.st25{fill:#9D2023;}
	.st26{fill:#3C2517;}
	.st27{fill:#4A3A31;}
	.st28{fill:#EDAD4F;}
	.st29{fill:#F8C018;}
</style>
<g>
	<g>
		<path class="st12" d="M160.6,719.3H160c-10.9,1.6-19.1,2.4-24.4,2.4l-1.4,0.5c-1.2,0.9-1.7,2.4-1.7,4.6c0,1.6,0.2,2.8,0.6,3.5
			c0.8,1.3,2.2,1.9,4.3,1.9l2.9-0.3c-0.6,4.9-0.9,12.2-0.9,22.1c0,15.3,0.3,33.1,0.9,53.5c0.6,20.4,1.3,37.4,2.3,50.8
			c-0.2-0.4-9-23.7-26.5-70.1c-0.6-1.1-1-2.2-1.3-3.2c-0.3-1.1-0.6-2.1-1-3l-10.1-27c-1.2-3.1-2.4-6.3-3.7-9.8
			c-1.3-3.5-2.1-5.3-2.3-5.5c-0.6-1.1-3.2-1.9-7.9-2.6c-4.7-0.6-8.4-0.9-11.1-0.9h-0.9c-2.5,0.2-4.1,1.4-4.7,3.8c-0.7,2.3-1,7-1,14
			c0,18.5,2.9,59.6,8.6,123.3v1.6h-3.2c-0.8,0-1.3,0.1-1.7,0.3c-1,0.5-1.6,1.1-2,1.6c-0.4,0.5-0.6,1.4-0.6,2.7
			c0,1.8,0.4,3.1,1.2,3.8c1.2,1.1,2.8,2,4.9,2.7l17.3,1.1c1.9,0.2,6,0.3,12.4,0.3c3.5,0,5.2-1.6,5.2-4.9c0-2.2-1.5-4-4.6-5.4
			l-0.9-0.3h-2.6c-6.7-60.6-10.1-97.1-10.1-109.5c6.9,21.4,19.2,51.5,36.8,90.4c1.9,4.5,4.2,8.3,6.9,11.3c1.7,2.2,3.8,3.2,6.3,3.2
			c2.3,0,4.3-1.2,6-3.5c1.7-2.3,2.6-5.8,2.6-10.3v-48.3v-17.5c-0.2-4.7-0.3-12.3-0.3-22.9c0-17.3,1-31.8,2.9-43.7
			c1.5,0,2.7-0.1,3.5-0.3c1.2-0.2,2.1-0.7,2.9-1.6c0.8-0.9,1.2-2,1.2-3.2c0-1.8-0.4-3.2-1.2-4.2
			C162.7,719.8,161.7,719.3,160.6,719.3z"/>
		<path class="st12" d="M259.5,879.2l-0.6-0.3l-8.6,0.8c-1.5-14.7-2.2-20.9-2-18.6l-4-33.8c3.5,0,6-0.3,7.8-0.8
			c1.7-0.5,2.6-2,2.6-4.5c0-2.4-0.6-4.1-1.9-5.1c-1.2-1-3-1.4-5.2-1.4c-2.2,0-3.7,0-4.5,0c-0.8-13.5-2.7-31.4-5.8-53.9
			c-3.1-22.5-5.9-35.4-8.6-38.9c-1-1.2-2.5-2.2-4.6-3c-2.1-0.8-4.5-1.2-7.2-1.2c-4.2,0-8.1,0.8-11.5,2.5c-3.5,1.7-5.6,4.1-6.3,7.2
			c-3.8,16.3-6.7,30.8-8.5,43.7c-1.8,12.8-3.3,27.5-4.5,43.9c-3.3-0.2-5.9,0.1-7.9,0.8c-2,0.7-3,2.8-3,6.3c0,2.4,0.8,3.9,2.4,4.3
			c1.6,0.4,4.2,0.7,7.6,0.7c-1.2,19.4-1.7,33.1-1.7,41.2c0,3.7,0.2,7.1,0.6,10.2H183l-1.2,0.5c-1.2,1-1.7,2.4-1.7,4.2
			c0,1.6,0.3,2.6,0.9,3.1c1.2,1,2.4,1.6,3.7,1.6l12.1-1l8.9-1c1.2-0.2,2.1-0.7,2.7-1.4c0.7-0.8,1-1.8,1-3c0-3.3-1.2-5-3.7-5h-0.6
			l-1.4,0.3v-49.3c8.1-0.5,17.5-0.8,28.5-0.8c1.5,8.6,3.4,23.9,5.5,45.9l0.6,7.3c-1.5,0.2-3.6,0.3-6.3,0.3c-0.4,0-1,0.2-1.7,0.5
			c-1.5,0.9-2.3,2.3-2.3,4.2c0,1,0.3,2.1,0.9,3.1c0.8,1,2.4,1.6,4.9,1.6l14.7-0.8c1.2-0.2,2.6-0.3,4.3-0.3c1.7,0,3.9-0.2,6.6-0.5
			c1.3-0.2,2.4-0.7,3.3-1.4c0.9-0.8,1.3-1.8,1.3-3c0-1.4-0.3-2.4-1-3C262.1,880.6,261,879.9,259.5,879.2z M205.1,815.2
			c1.3-16.8,3.3-31.6,5.8-44.4c2.5-12.8,6-25.6,10.6-38.4c0.8,0.7,1.8,6.6,3,17.6c1.2,11,2.5,23.9,3.9,38.8l2.3,25.7L205.1,815.2z"
			/>
		<path class="st12" d="M433.8,767.5l-3.5,1c-0.6-4.4-2-8.9-4.3-13.6c-3.1-7-6.9-12.8-11.5-17.3c-4.6-4.5-9.1-6.8-13.5-6.8
			c-11.7,0-21.1,6.6-28.3,19.7c-7.2,13.1-10.8,33.9-10.8,62.4c0,12.6,1.7,24.9,5,36.8c3.4,12,8,21.8,13.8,29.4
			c5.8,7.6,12.3,11.4,19.4,11.4c3.8,0,7.2-1.6,10.2-4.7c3-3.1,5.1-7.3,6.5-12.6c2.1-6.8,3.6-13.4,4.6-19.8c1-6.4,2.1-16.7,3.5-31.1
			l0.9-10.2c0-0.5,0-1,0.1-1.3c0.1-0.3,0.4-0.5,1-0.5c1.9,0,3.4-0.5,4.5-1.4c1.1-1,1.6-2.2,1.6-3.8c0-1.4-0.5-2.3-1.4-2.6
			c-1-0.3-2.9-0.5-5.8-0.5c-3.6,0-11.2,0.4-22.7,1.3l-6.9,0.5c-1.3,0.2-2.4,0.8-3.3,2c-0.9,1.1-1.3,2.3-1.3,3.5
			c0,2.5,1.4,3.7,4.3,3.7c2.3,0,4.2-0.1,5.8-0.3l11.8-0.3c0,4.9-0.6,12.8-1.9,23.7c-1.2,10.9-2.9,20.7-4.9,29.4
			c-2,8.7-4.2,13-6.5,13c-3.1,0-5.8-4-8.2-12.1c-2.4-8-4.3-17.5-5.8-28.4c-1.4-10.9-2.2-20.1-2.2-27.7c0-8.2,0.8-17.7,2.3-28.4
			c1.5-10.7,3.8-20,6.8-27.8c3-7.8,6.4-11.7,10.2-11.7c1.2,0,2.3,0.6,3.5,1.8c3.1,3.5,5.5,7.9,7.3,13.1c1.8,5.2,2.9,10.6,3.3,16v0.3
			c-1.1,0.5-2.2,0.9-3,1.2c-0.9,0.3-1.4,0.5-1.6,0.7c-1,0.4-1.4,1.2-1.4,2.6c0,1.7,0.8,3.3,2.3,4.7c0.6,0.5,1.3,0.8,2.3,0.8l2.3-0.3
			c12.8-4.4,18.9-6.6,18.1-6.6c2.1-0.5,3.2-1.8,3.2-3.9l-0.3-1.3C438.5,768.8,436.7,767.5,433.8,767.5z"/>
		<path class="st12" d="M540.2,883.8l-4.3,0.6c-0.4-10.6-1.1-22-2-34.5c-2.3-26.5-3.5-48.4-3.5-65.6c0-18.2,1-32.2,2.9-42.2l0.9-7.2
			v-1.7l4.6-0.6c1.3-0.2,2.4-0.7,3.2-1.5c0.8-0.8,1.1-1.9,1.1-3.2c0-1.7-0.4-3-1.1-3.9c-0.8-0.9-1.8-1.4-3.2-1.4h-0.6
			c-3.6,0.6-8.1,1.1-13.4,1.5c-5.3,0.5-9.6,0.7-13.1,0.7c-0.6,0-1.1,0.2-1.4,0.6c-1.3,1.1-2,2.6-2,4.4c0,1.7,0.3,2.8,0.9,3.3
			c1.2,1.1,2.8,1.7,4.9,1.7l5.5-0.3c-0.2,0.4-0.3,1-0.3,1.9c-1.9,12.2-2.9,28.7-2.9,49.5l0.6,28.3l0.3,6.9
			c-17.1,1.5-31.8,3.3-44.3,5.6c0-27.6,0.3-45.9,0.9-54.7c0.2-3.1,0.7-7.5,1.4-13.2c0.8-5.6,1.3-10,1.7-12.9h0.9
			c1.5-0.2,2.8-0.7,3.7-1.5c1-0.8,1.4-1.9,1.4-3.2c0-1.7-0.5-3-1.4-3.9c-1-0.9-2.2-1.4-3.7-1.4h-0.6c-4,0.6-8.9,1.1-14.5,1.5
			c-5.7,0.5-10.3,0.7-13.9,0.7c-0.6,0-1.2,0.2-2,0.6c-1.3,1.1-2,2.6-2,4.4c0,1.7,0.3,2.8,0.9,3.3c1.5,1.1,3.3,1.7,5.2,1.7h0.3
			c-2.5,10.7-3.7,26.3-3.7,46.7c0,13.5,0.5,28.2,1.4,43.9c1,15.7,2,28.5,3.2,38.4h-3.5l-1.7,0.6c-1.5,0.9-2.3,2.4-2.3,4.4
			c0,1.7,0.4,2.8,1.1,3.3c1.9,1.1,3.6,1.7,5.2,1.7l17-1.1l12.1-1.1c1.5-0.2,2.8-0.7,3.7-1.5c1-0.8,1.4-1.9,1.4-3.2
			c0-1.7-0.5-3-1.4-3.9c-1-0.9-2.2-1.4-3.7-1.4h-0.6l-2.6,0.3l-2.6-31.7l-0.3-5.6c3.1-0.9,10.4-2.1,22.1-3.6
			c11.7-1.5,19-2.2,21.9-2.2c0.2,7.4,0.6,16.3,1.1,26.5c0.6,10.3,1.2,19.4,2,27.4h-3.7c-0.2,0-0.7,0.2-1.4,0.6
			c-1.1,1.1-1.7,2.6-1.7,4.4c0,1.7,0.3,2.8,0.9,3.3c0.8,1.1,2.1,1.7,4,1.7l12.4-1.1l9.5-1.1c2.5-0.2,3.7-1.8,3.7-4.7
			c0-3.5,0-5.3,0-5.3s-1.2,0-3.7,0H540.2z"/>
		<path class="st12" d="M611.8,730.4l-58.4,3.7c-2.9,0.5-4.6,2.3-5.2,5.2c0,1.7,0.5,3.1,1.4,4.2c1,1,2.3,1.6,4,1.6
			c5.9-0.2,12.6-0.5,19.8-1l-1.7,8.7c-2.3,12.4-3.9,21.8-4.7,28.1c-0.9,6.3-1.3,12.9-1.3,19.9c0,19.4,1.9,45,5.8,76.8
			c0.8,5.9,1.7,10.4,2.9,13.4c0.4,1.2,2.3,2.3,5.6,3.1c3.4,0.9,6,1.3,7.9,1.3c2.1,0,3.8-0.8,5-2.5c1.2-1.7,1.7-3.3,1.3-4.9
			c-2.3-8.9-4.1-19.8-5.3-32.8c-1.2-12.9-1.9-26.3-1.9-40.1c0-14,0.6-27.3,1.9-40c1.2-12.7,3.1-23.3,5.6-31.9l6.6-0.8
			c4.8-0.7,8.6-1.1,11.5-1.3c2.3-0.2,4-0.8,5.2-1.8c1.1-1,1.6-2.4,1.4-4.2C618.7,732,616.2,730.4,611.8,730.4z"/>
		<path class="st12" d="M718.5,724.1h-0.6c-4.2,0.2-13.7,0.3-28.5,0.3l-1.7,0.3c-1.5,0.9-2.3,2.3-2.3,4.2c0,1.6,0.3,2.6,0.9,3.1
			c1.3,1.2,3,1.8,4.9,1.8h0.9c-11.5,22.4-20.7,39.9-27.6,52.4l-3.5,6.6c-1.9,3.5-3.6,6.3-5,8.3c-1.4,2-2.3,3-2.7,3
			c-1.9,0-3.4-3.1-4.3-9.2c-1-6.1-1.4-12.2-1.4-18.4c0-8.6,0.6-15.7,1.9-21.5c1.2-5.8,3.2-12.8,5.9-21l2.6-0.3
			c1.5-0.2,2.8-0.7,3.7-1.4c1-0.8,1.4-1.8,1.4-3c0-1.6-0.5-2.8-1.4-3.7c-1-0.9-2.2-1.3-3.7-1.3h-0.6c-11.7,1.4-21.9,2.1-30.5,2.1
			c-0.4,0-1,0.2-1.7,0.5c-1.5,0.9-2.3,2.3-2.3,4.2c0,1.4,0.4,2.4,1.2,3.1c1.1,1,3,1.6,5.5,1.6h2c-3.6,12.8-5.5,26.1-5.5,40.1
			c0,11,2.1,20.1,6.2,27.1c4.1,7.1,10.8,10.6,20,10.6c4,0,7.7-1.8,10.9-5.4c3.3-3.6,6.9-8.7,10.9-15.3c3.8-6.5,10.6-19.1,20.4-38
			c0,15.6-0.9,43.8-2.6,84.7c0,4,0,6.7-0.1,8.1c-0.1,1.4-0.1,2.2-0.1,2.4c-1,8-3.3,15.4-6.9,22c-3.6,6.6-8.2,10-13.5,10
			c-4.2,0-7.7-1.6-10.4-4.7c-2.7-3.1-4-7.2-4-12.1v-0.3c0.8,0,2.3-0.2,4.6-0.5c2.3-0.3,3.5-1.8,3.5-4.5c0-3.3-1.2-5-3.5-5h-0.6
			c-8.2,1.4-15.3,2.1-21.3,2.1c-0.4,0-0.8,0.2-1.1,0.5c-1.2,1-1.7,2.4-1.7,4.2c0,1,0.3,2.1,0.9,3.1c1,1,2.2,1.6,3.7,1.6l3.5-0.3v0.3
			c0,7.7,2.7,13.9,8.1,18.7c5.4,4.8,11.5,7.2,18.4,7.2c7.5,0,13.8-1,18.8-2.9c5.1-1.9,9.5-6.2,13.2-13c3.7-6.7,6.2-16.7,7.3-30
			c0.4-12.1,1-30.4,1.7-54.9c0.8-24.6,1.3-42.8,1.7-54.7v-3.7h4c1.5,0,2.7-0.4,3.6-1.2c0.9-0.8,1.3-1.8,1.3-3
			C722.8,725.9,721.3,724.1,718.5,724.1z"/>
		<path class="st12" d="M829,878.1c-1.7,0-3.4,0.7-4.9,2.1l-17.5,12.1c-6.3-29-9.5-63-9.5-102c0-7.5,0.1-14.9,0.4-22.3c0,0,0,0,0,0
			c0.1-1.3,0.1-2.6,0.2-3.8l1.4-30.3l2.8-0.3c3.4-0.3,5.1-1.8,5.1-4.4c0-1.6-0.5-2.8-1.4-3.7c-0.9-0.9-2.2-1.3-3.7-1.3h-0.6
			c-4.1,0.5-9.2,1-15.3,1.4c-6.1,0.4-11,0.7-14.8,0.7c-0.6,0-1.2,0.2-2,0.5c-1.5,0.9-2.3,2.3-2.3,4.2c0,1.6,0.4,2.6,1.1,3.1
			c1.9,1,3.7,1.6,5.3,1.6h1.7c0,8.2,0,16.2,0.1,23.9c0,0,0,0,0,0c0,2.9,0.1,5.7,0.2,8.5c0,0.1,0,0.2,0,0.3c0,0,0,0,0,0
			c0.5,23.7,1.5,45.2,2.9,64.2c2.2,29.6,6.4,52,12.5,67c1.7,3.8,4.7,5.8,8.9,5.8c2.5,0,5.2-0.5,8.1-1.6c2.7-1,7-3.6,12.9-7.6
			c5.9-4,10-7.2,12.1-9.4c1.2-1.4,1.7-2.5,1.7-3.4c0-1.4-0.5-2.6-1.6-3.7C831.8,878.6,830.5,878.1,829,878.1z"/>
		<path class="st12" d="M874.2,880.2h-0.6l-5.8,0.8l-0.6-14.2c-0.4-13.3-0.6-25.5-0.6-36.7c0-17,0.2-34,0.7-51
			c0.5-17,1-28.3,1.6-33.7c1.5,0,2.7-0.1,3.5-0.3c3.1-0.3,4.6-1.7,4.6-4.2c0-1.6-0.4-2.8-1.1-3.8c-0.8-1-1.8-1.4-3.2-1.4h-0.6
			c-3.5,0.5-7.5,0.9-12.1,1.2c-4.6,0.3-8.9,0.4-12.9,0.4c-0.6,0-1.1,0.2-1.4,0.5c-1.3,1-2,2.4-2,4.2c0,1.4,0.2,2.4,0.6,3.1
			c0.8,1,2.2,1.6,4.3,1.6h2l-0.9,7.1c-0.4,4.9-0.6,16.7-0.6,35.4c0,17.8,0.1,35.2,0.3,52.2c0.2,17,0.5,30.5,0.9,40.6l-3.7-0.3
			c-0.4,0-1,0.2-1.7,0.5c-1.5,0.9-2.3,2.3-2.3,4.2c0,1.6,0.3,2.6,0.9,3.1c1,0.9,2.6,1.5,4.9,1.8l14.7-0.8l10.9-1
			c3.1-0.3,4.6-1.7,4.6-4.2c0-1.6-0.4-2.8-1.2-3.8C876.6,880.6,875.5,880.2,874.2,880.2z"/>
		<path class="st12" d="M938.4,735.6c-5.9-3.9-11.6-6.2-17.4-6.7c-0.8-0.2-1.9-0.3-3.5-0.3c-5,0-9.3,1.3-12.9,3.9
			c-5.8,3.1-10.5,8.3-14.4,15.3c-3.8,7.1-5.8,14.3-5.8,21.6c0,11.4,3.8,23.5,11.5,36.4c11.9,19.8,20.9,35.4,26.9,46.9
			c6,11.5,9.1,20.5,9.1,26.7c0,6.3-3.6,9.1-10.6,8.4c-4.2-0.5-6.3-2.2-6.3-5c0-0.3,0.2-1.2,0.6-2.6l4,0.5c1.5,0.2,2.8-0.3,3.7-1.3
			c1-1,1.4-2.4,1.4-3.9c0-1.9-1.1-3.2-3.2-3.9c-1.5-0.5-5.1-1.1-10.8-1.8c-5.7-0.7-10-1-13.1-1c-1.3,0-2.4,0.7-3.3,2
			c-0.9,1.3-1.3,2.7-1.3,4.1c0,1.6,1.3,2.8,4,3.7l3.7,0.5l-0.6,3.4c-0.4,4.5,1.1,8.6,4.6,12.2c3.5,3.6,7.7,5.5,12.7,5.6
			c11.1,0.7,19.5-1.7,25-7.2c5.6-5.5,8.3-12.8,8.3-21.9c0-9.3-2.5-18.7-7.5-28.3c-1-1.9-5.3-9.9-12.9-23.9
			c-7.1-12.9-12.3-23-15.5-30.2c-3.3-7.2-5.4-14.2-6.3-21c-0.2-0.9-0.3-2.3-0.3-4.2c0-4.4,0.8-8.3,2.4-11.9c1.6-3.6,3.6-6.3,6-8.1
			c2.4-1.8,4.6-2.7,6.8-2.5c2.9,0.4,5.8,2.1,8.9,5.1c3.1,3.1,5.6,7,7.6,11.8c2,4.8,3,9.7,3,14.6c0,1.7-0.1,3.1-0.3,3.9
			c-0.2,1.2-0.5,2.6-0.9,4.1c-0.4,1.5-0.6,2.6-0.6,3.3c0,2.4,2.6,3.7,7.8,3.7c1.9,0,3.5-1,4.6-3.1c1.1-2.1,1.8-4,2-5.8
			c0.4-2.8,0.6-4.9,0.6-6.3c0-5.6-1.5-12.1-4.6-19.7C948.7,745.2,944.2,739.5,938.4,735.6z"/>
		<path class="st12" d="M1032,735.2c-0.6-3.1-3.1-4.7-7.5-4.7l-58.4,3.7c-2.9,0.5-4.6,2.3-5.2,5.2c0,1.7,0.5,3.1,1.4,4.2
			c1,1,2.3,1.6,4,1.6c5.9-0.2,12.6-0.5,19.8-1l-1.7,8.7c-2.3,12.4-3.9,21.8-4.7,28.1c-0.9,6.3-1.3,12.9-1.3,19.9
			c0,19.4,1.9,45,5.8,76.8c0.8,5.9,1.7,10.4,2.9,13.4c0.4,1.2,2.3,2.3,5.6,3.1c3.4,0.9,6,1.3,7.9,1.3c2.1,0,3.8-0.8,5-2.5
			c1.2-1.7,1.7-3.3,1.3-4.9c-2.3-8.9-4.1-19.8-5.3-32.8c-1.2-12.9-1.9-26.3-1.9-40.1c0-14,0.6-27.3,1.9-40
			c1.2-12.7,3.1-23.3,5.6-31.9l6.6-0.8c4.8-0.7,8.6-1.1,11.5-1.3c2.3-0.2,4-0.8,5.2-1.8C1031.7,738.3,1032.2,736.9,1032,735.2z"/>
		<path class="st12" d="M354.8,729c-0.9-0.6-1.5-1-1.9-1.2l-0.3-0.5l-5.8,0.3l-11.2-0.3c-2.3-0.2-5.5-0.3-9.5-0.3l-1.7,0.3
			c-1.3,1.2-2,3.1-2,5.5c0,1.6,0.2,2.9,0.6,3.9c1.3,1.6,3,2.4,4.9,2.6h5.8v0.5c-0.4,3.3-0.8,6.8-1.2,10.5l-1.7,19.9
			c-1.7,15.6-4.4,36.4-8.1,62.4l-1.7,11.8c-1.7,9.6-4,16.3-6.8,20.1c-2.8,3.8-5.2,5.6-7.3,5.4c-4,0-7.7-6-10.9-18.1
			c-2.9-10.1-5.1-22.4-6.8-36.7c-1.6-14.3-2.4-28.4-2.4-42.2c0-2.6,0-4.8,0.1-6.7c0,0,0-0.1,0-0.1c0-1.9,0.1-3.4,0.2-4.7
			c0-1,0-2,0-3c0.2-5.7,0.5-11.6,0.6-13.5l3.5-0.3c1.3-0.2,2.4-0.8,3.3-1.8c0.9-1,1.3-2.3,1.3-3.7c0-4.4-1.5-6.6-4.6-6.6h-0.9
			c-3.8,0.7-8.6,1.4-14.2,2c-5.7,0.6-10.3,0.9-13.9,0.9c-0.4,0-1,0.2-1.7,0.5c-1.3,1.2-2,3-2,5.2c0,2.1,0.4,3.5,1.2,4.2
			c0.8,1.2,2.4,1.8,4.9,1.8l2.6-0.3c-0.4,2.3-1.7,14.6-1.8,26.6v3.5c0,21.9,1.2,39.5,3.7,53c1.7,10.3,3.8,19.2,6.2,26.6
			c2.4,7.4,6,13.8,10.9,19.1c4.9,5.3,11.5,8,19.7,8c8.4,0,14.8-3.1,19.1-9.4c4.3-6.3,8.1-19,11.2-38.2c3.2-19.1,6.9-51.1,11.4-95.8
			v-0.8c2.1,0,3.8-0.1,5.2-0.3c3.1-0.2,4.6-2.1,4.6-5.8c0-1-0.2-1.9-0.6-2.6C356.3,730.3,355.7,729.7,354.8,729z"/>
	</g>
	<g>
		<path class="st13" d="M103.3,594.2h-0.6l-5.7,0.8l-0.6-14.2c-0.4-13.3-0.6-25.6-0.6-36.9c0-17,0.2-34.1,0.7-51.2
			c0.5-17.1,1-28.4,1.6-33.8c1.5,0,2.7-0.1,3.4-0.3c3-0.3,4.6-1.8,4.6-4.2c0-1.6-0.4-2.9-1.1-3.8c-0.8-1-1.8-1.4-3.1-1.4h-0.6
			c-3.4,0.5-7.4,0.9-12,1.2c-4.6,0.3-8.8,0.4-12.8,0.4c-0.6,0-1,0.2-1.4,0.5c-1.3,1.1-2,2.5-2,4.2c0,1.4,0.2,2.5,0.6,3.2
			c0.8,1.1,2.2,1.6,4.3,1.6h2l-0.9,7.1c-0.4,4.9-0.6,16.8-0.6,35.6c0,17.9,0.1,35.4,0.3,52.4c0.2,17,0.5,30.6,0.9,40.8l-3.7-0.3
			c-0.4,0-1,0.2-1.7,0.5c-1.5,0.9-2.3,2.3-2.3,4.2c0,1.6,0.3,2.6,0.9,3.2c0.9,0.9,2.6,1.5,4.8,1.8l14.5-0.8l10.8-1.1
			c3-0.3,4.6-1.8,4.6-4.2c0-1.6-0.4-2.9-1.1-3.8C105.7,594.7,104.6,594.2,103.3,594.2z"/>
		<path class="st13" d="M136.7,441.8c0.2-1.4,0.3-2.9,0.3-4.5v-0.5c-0.2-0.2-0.3-0.9-0.3-2.1c-0.4-2.6-2.4-4-6-4
			c-1.9,0-3.3,0.3-4.1,0.8c-0.9,0.5-1.4,1.4-1.6,2.6l-1.4,15.3c-0.6,4.4-0.9,7.8-0.9,10.3c0,1.9,0.2,3.4,0.6,4.3c0.4,1,1.1,2,2.3,3
			c0.6,0.5,1.4,1,2.4,1.3c1,0.4,1.9,0.5,2.7,0.5c0.9,0,1.8-0.4,2.6-1.2c0.8-0.8,1.1-1.6,1.1-2.5c0-1.9,0.5-7,1.4-15.3L136.7,441.8z"
			/>
		<path class="st13" d="M219,597.4l-0.6-0.3l-8.5,0.8c-1.5-14.8-2.2-21-2-18.7l-4-34c3.4,0,6-0.3,7.7-0.8c1.7-0.5,2.6-2,2.6-4.5
			c0-2.5-0.6-4.2-1.9-5.1c-1.2-1-2.9-1.4-5.1-1.4c-2.2,0-3.7,0-4.4,0c-0.8-13.5-2.7-31.6-5.7-54.1c-3-22.6-5.9-35.6-8.5-39.1
			c-1-1.2-2.5-2.2-4.6-3c-2.1-0.8-4.5-1.2-7.1-1.2c-4.2,0-8,0.8-11.4,2.5c-3.4,1.7-5.5,4.1-6.3,7.2c-3.8,16.3-6.6,31-8.4,43.9
			c-1.8,12.9-3.3,27.6-4.4,44.1c-3.2-0.2-5.8,0.1-7.8,0.8c-2,0.7-3,2.8-3,6.3c0,2.5,0.8,3.9,2.4,4.3c1.6,0.4,4.1,0.7,7.6,0.7
			c-1.1,19.5-1.7,33.3-1.7,41.4c0,3.7,0.2,7.1,0.6,10.3h-1.1l-1.1,0.5c-1.1,1.1-1.7,2.5-1.7,4.2c0,1.6,0.3,2.6,0.9,3.2
			c1.1,1.1,2.4,1.6,3.7,1.6l12-1.1l8.8-1.1c1.1-0.2,2-0.7,2.7-1.4c0.7-0.8,1-1.8,1-3c0-3.3-1.2-5-3.7-5h-0.6l-1.4,0.3V546
			c8-0.5,17.4-0.8,28.2-0.8c1.5,8.6,3.3,24,5.4,46.1l0.6,7.4c-1.5,0.2-3.6,0.3-6.3,0.3c-0.4,0-1,0.2-1.7,0.5
			c-1.5,0.9-2.3,2.3-2.3,4.2c0,1.1,0.3,2.1,0.9,3.2c0.8,1.1,2.4,1.6,4.8,1.6l14.5-0.8c1.1-0.2,2.6-0.3,4.3-0.3
			c1.7,0,3.9-0.2,6.6-0.5c1.3-0.2,2.4-0.7,3.3-1.4c0.9-0.8,1.3-1.8,1.3-3c0-1.4-0.3-2.4-1-3C221.6,598.8,220.5,598.1,219,597.4z
			 M165.2,533.1c1.3-16.9,3.2-31.7,5.7-44.6c2.5-12.9,6-25.8,10.5-38.6c0.8,0.7,1.8,6.6,3,17.6c1.2,11.1,2.5,24.1,3.8,39l2.3,25.8
			L165.2,533.1z"/>
		<path class="st13" d="M356,591.6c-0.8,0-2.8-0.2-6.3-0.5v-9.3c0-3.8,0.1-10,0.3-18.5c0.2-9.2,0.5-20.9,0.9-34.8l0,0l0,0
			c0.4-13,0.8-28,1.3-45l0.6-17.5l0.6-26c0-3.6-0.2-6.4-0.7-8.4c-0.5-2-1.7-3.7-3.6-5.2c-1.9-1.5-4.9-2.7-9.1-3.7
			c-2.5,0-5,0.3-7.7,1c-2.7,0.7-4.4,1.5-5.1,2.6c-8,11.7-15.7,27.7-23.2,48.1c-7.5,20.4-13.9,39.8-19.2,58.4l-4.8-19.3
			c0-0.3-1.6-7-4.8-20.1c-0.4-1.7-1-4.3-1.9-7.7c-0.9-3.4-1.9-7-3-10.8c-1.1-3.8-2.2-6.2-3.1-7.2c-2.5-2.7-5.1-4.1-8-4.1
			c-4,0-7.9,1.2-11.7,3.7c-3.8,2.5-6.2,6.1-7.1,10.7c-5.1,25.4-7.7,47.5-7.7,66.3c0,22.9,0.9,42.3,2.6,58.3h-4.3
			c-0.4,0-1.1,0.2-2.3,0.5c-1.5,0.9-2.3,2.2-2.3,4.1c0,1.4,0.4,2.4,1.1,3.1c1.1,1,3,1.5,5.7,1.5l17.1-1l12.8-1c1.7-0.2,3-0.6,4-1.4
			c0.9-0.8,1.4-1.8,1.4-3c0-3.3-1.8-4.9-5.4-4.9h-0.6l-5.4,0.5c-1-11.2-1.4-27.1-1.4-47.7c0-16.2,0.6-31.2,1.9-45.1
			c1.2-13.9,2.8-22.7,4.7-26.3l8,34.8c4,17.4,6.6,27.6,7.7,30.7c0.6,0.9,1.4,1.5,2.4,1.9c1,0.4,2.4,0.8,4.1,1.2c3.6,0.7,6.6,1,8.8,1
			c2.7,0,4.8-0.8,6.6-2.3c0.2-0.2,1.6-5.4,4.3-15.7c0.9-3.3,3-10.5,6.1-21.7c3.1-11.2,6.7-23.5,10.8-37.1
			c4.1-13.6,7.9-24.5,11.5-32.7c-1.3,15-2.7,40-4.1,75c-0.2,6.1-0.5,11.8-0.7,17.3l-1.7,54.2c-1.1-0.2-2.8-0.3-4.8-0.3
			c-0.8,0-1.4,0.1-2,0.3c-1.7,0.5-2.7,1.7-2.8,3.6c-0.6,2.2,0.5,3.7,3.1,4.5c2.7,0.8,8.1,1.7,16.2,2.7c3.4,0.5,6.2,0.8,8.3,0.8
			c1.1,0.2,2.8,0.4,5,0.6c2.2,0.3,4.3,0.4,6.4,0.4c1.7,0,3-0.4,4-1.2c0.9-0.8,1.4-1.8,1.4-3c0-1.5-0.4-2.8-1.3-3.7
			C358.7,592.1,357.5,591.6,356,591.6z"/>
		<path class="st13" d="M477.2,443.8l-57.9,3.7c-2.8,0.5-4.6,2.3-5.1,5.3c0,1.8,0.5,3.2,1.4,4.2c0.9,1.1,2.3,1.6,4,1.6
			c5.9-0.2,12.4-0.5,19.7-1.1l-1.7,8.7c-2.3,12.5-3.8,21.9-4.7,28.2c-0.9,6.3-1.3,13-1.3,20c0,19.5,1.9,45.2,5.7,77.2
			c0.8,6,1.7,10.4,2.8,13.4c0.4,1.2,2.2,2.3,5.6,3.2c3.3,0.9,5.9,1.3,7.8,1.3c2.1,0,3.7-0.8,5-2.5c1.2-1.7,1.7-3.3,1.3-4.9
			c-2.3-9-4-19.9-5.3-32.9c-1.2-13-1.9-26.4-1.9-40.3c0-14,0.6-27.4,1.9-40.2c1.2-12.7,3.1-23.4,5.6-32l6.6-0.8
			c4.7-0.7,8.5-1.1,11.4-1.3c2.3-0.2,4-0.8,5.1-1.8c1.1-1.1,1.6-2.5,1.4-4.2C484,445.4,481.6,443.8,477.2,443.8z"/>
		<path class="st13" d="M564.1,484.7c-1.9,0-4.4,0.7-7.4,2.1c-2.3-9.1-5.5-17.2-9.7-24.1c-4.2-6.9-9-11.8-14.5-14.6
			c-4.2-1.8-7.6-2.6-10.3-2.6c-5.3,0-10.2,1.6-14.5,4.7c-4.4,3.2-6.6,7.4-6.6,12.6c0,3.2,0.9,7.1,2.6,11.7c1.7,4.7,3.8,8.4,6.3,11.2
			c-14.4,2.3-21.7,14.1-21.7,35.6c0,10.2,1.3,21.2,4,32.9c2.7,12.8,7.4,24.5,14.1,34.9c6.7,10.4,15.8,15.7,27.2,15.7
			c3.8,0,7.3-1.6,10.5-4.9c3.2-3.2,5.8-7.4,7.7-12.5c3.2-10.4,5.5-20,6.8-28.8c1.3-8.9,2-18.2,2-28.1c0-3.3-0.4-11.5-1.1-24.5
			l-0.6-7.1c4.2-2.1,6.9-3.7,8.1-4.7c1.2-1.1,1.9-2.5,1.9-4.2C569,486.4,567.3,484.7,564.1,484.7z M522.8,457.5
			c3.6,0,7.3,2.9,11.1,8.7c3.6,5.8,6.6,13.2,8.8,22.1c-3.4-0.2-7.1-1.8-11.1-5c-4-3.2-7.3-6.7-10-10.5c-2.7-3.9-4-7.2-4-10
			C517.7,459.3,519.4,457.5,522.8,457.5z M541.9,565.5c-2.5,17.7-5.5,26.5-9.1,26.3c-3-0.2-6.2-4-9.4-11.3c-3-7.2-5.5-16-7.4-26.5
			c-1.9-10.4-2.8-20.6-2.8-30.4c0-17.2,2.9-27.6,8.8-31.1c5.5,3.7,13.1,6.2,22.8,7.6c0.6,1.8,0.9,6.5,0.9,14.2
			C545.6,528.8,544.4,545.9,541.9,565.5z"/>
		<path class="st13" d="M651.6,484.7c-1.9,0-4.4,0.7-7.4,2.1c-2.3-9.1-5.5-17.2-9.7-24.1c-4.2-6.9-9-11.8-14.5-14.6
			c-4.2-1.8-7.6-2.6-10.3-2.6c-5.3,0-10.2,1.6-14.5,4.7c-4.4,3.2-6.6,7.4-6.6,12.6c0,3.2,0.9,7.1,2.6,11.7c1.7,4.7,3.8,8.4,6.3,11.2
			c-14.4,2.3-21.7,14.1-21.7,35.6c0,10.2,1.3,21.2,4,32.9c2.7,12.8,7.4,24.5,14.1,34.9c6.7,10.4,15.8,15.7,27.2,15.7
			c3.8,0,7.3-1.6,10.5-4.9c3.2-3.2,5.8-7.4,7.7-12.5c3.2-10.4,5.5-20,6.8-28.8c1.3-8.9,2-18.2,2-28.1c0-3.3-0.4-11.5-1.1-24.5
			l-0.6-7.1c4.2-2.1,6.9-3.7,8.1-4.7c1.2-1.1,1.9-2.5,1.9-4.2C656.4,486.4,654.8,484.7,651.6,484.7z M610.3,457.5
			c3.6,0,7.3,2.9,11.1,8.7c3.6,5.8,6.6,13.2,8.8,22.1c-3.4-0.2-7.1-1.8-11.1-5c-4-3.2-7.3-6.7-10-10.5c-2.7-3.9-4-7.2-4-10
			C605.2,459.3,606.9,457.5,610.3,457.5z M629.4,565.5c-2.5,17.7-5.5,26.5-9.1,26.3c-3-0.2-6.2-4-9.4-11.3c-3-7.2-5.5-16-7.4-26.5
			c-1.9-10.4-2.8-20.6-2.8-30.4c0-17.2,2.9-27.6,8.8-31.1c5.5,3.7,13.1,6.2,22.8,7.6c0.6,1.8,0.9,6.5,0.9,14.2
			C633.1,528.8,631.8,545.9,629.4,565.5z"/>
		<path class="st13" d="M786.4,530.8c-1.3,0-2.6,0.5-3.8,1.6c-1.2,1.1-2,2.3-2.4,3.7c-5.5,17.7-9.8,30-12.8,36.9
			c-3,7.6-5.7,11.3-8,11.3c-2.3,0-4.4-3.3-6.3-10c-2.1-6.8-3.8-15.7-5.1-26.6c-1.3-10.9-2-21.8-2-32.7c0-10.7,0.8-20.2,2.3-28.6
			c1.5-8.3,4.2-15.4,8-21.2c2.1-3,4.5-4.5,7.1-4.5c3,0,5.9,1.7,8.7,5c2.8,3.3,4.7,7.6,5.8,12.9c1.1,3.7,3.2,5.5,6.3,5.5
			c1.9,0,3.4-0.6,4.6-1.7c1.1-1.1,1.7-2.7,1.7-4.6c0-3.5-1.4-7.5-4.1-12.1c-2.8-4.6-6.3-8.5-10.5-11.9c-4.3-3.3-8.5-5-12.7-5
			c-16.3,0-27.5,6.5-33.6,19.5c-6.1,13-9.1,29.9-9.1,50.8c0,11.8,1.5,23.9,4.4,36.4c2.9,12.5,7.1,22.8,12.4,31
			c5.3,8.2,11.3,12.2,18,12.2c4.2,0,8.5-1.8,12.8-5.3c7-5.8,15.1-24,24.2-54.5c0.4-2.3,0-4.2-1-5.8
			C790,531.5,788.5,530.8,786.4,530.8z"/>
		<path class="st13" d="M894,445.8c-0.9-0.6-1.5-1-1.9-1.2l-0.3-0.5l-5.7,0.3l-11.1-0.3c-2.3-0.2-5.4-0.3-9.4-0.3l-1.7,0.3
			c-1.3,1.2-2,3-2,5.5c0,1.6,0.2,2.9,0.6,3.9c1.3,1.6,2.9,2.4,4.8,2.6h5.7v0.5c-0.4,3.3-0.8,6.8-1.1,10.4l-1.7,19.9
			c-1.7,15.5-4.4,36.2-8,62.2l-1.7,11.8c-1.7,9.6-3.9,16.2-6.7,20c-2.8,3.7-5.2,5.5-7.3,5.4c-4,0-7.6-6-10.8-18
			c-2.8-10.1-5.1-22.3-6.7-36.6c-1.6-14.3-2.4-28.3-2.4-42.1c0-5.2,0.1-9.1,0.3-11.5c0-5.9,0.3-12.3,0.9-19.1l3.4-0.3
			c1.3-0.2,2.4-0.8,3.3-1.8c0.9-1,1.3-2.3,1.3-3.7c0-4.4-1.5-6.5-4.6-6.5h-0.9c-3.8,0.7-8.5,1.4-14.1,2c-5.6,0.6-10.2,0.9-13.8,0.9
			c-0.4,0-1,0.2-1.7,0.5c-1.3,1.2-2,3-2,5.2c0,2.1,0.4,3.5,1.1,4.2c0.8,1.2,2.4,1.8,4.8,1.8l2.6-0.3c-1,4.7-1.6,12.6-2,23.8v8.9
			c0,21.8,1.2,39.4,3.7,52.8c1.7,10.3,3.7,19.1,6.1,26.5c2.4,7.4,6,13.8,10.8,19.1c4.8,5.3,11.3,8,19.5,8c8.4,0,14.7-3.1,19-9.4
			c4.3-6.3,8-18.9,11.1-38c3.1-19.1,6.9-50.9,11.3-95.5v-0.8c2.1,0,3.8-0.1,5.1-0.3c3-0.2,4.6-2.1,4.6-5.7c0-1-0.2-1.9-0.6-2.6
			C895.4,447,894.8,446.4,894,445.8z"/>
		<path class="st13" d="M974.1,448.6c-0.6-3.2-3-4.7-7.4-4.7l-57.9,3.7c-2.8,0.5-4.6,2.3-5.1,5.3c0,1.8,0.5,3.2,1.4,4.2
			c0.9,1.1,2.3,1.6,4,1.6c5.9-0.2,12.4-0.5,19.7-1.1l-1.7,8.7c-2.3,12.5-3.8,21.9-4.7,28.2c-0.9,6.3-1.3,13-1.3,20
			c0,19.5,1.9,45.2,5.7,77.2c0.8,6,1.7,10.4,2.8,13.4c0.4,1.2,2.2,2.3,5.6,3.2c3.3,0.9,5.9,1.3,7.8,1.3c2.1,0,3.7-0.8,5-2.5
			c1.2-1.7,1.7-3.3,1.3-4.9c-2.3-9-4-19.9-5.3-32.9c-1.2-13-1.9-26.4-1.9-40.3c0-14,0.6-27.4,1.9-40.2c1.2-12.7,3.1-23.4,5.6-32
			l6.6-0.8c4.7-0.7,8.6-1.1,11.4-1.3c2.3-0.2,4-0.8,5.1-1.8C973.8,451.7,974.3,450.3,974.1,448.6z"/>
		<path class="st13" d="M1030.6,592.3c-1-1-2.3-1.4-4-1.4c-1.5,0-3.3,0.7-5.4,2.1c-2.9,1.9-5,3.3-6.4,4c-1.4,0.7-5.2,2.1-11.3,4.2
			l-4,1.3c-0.6-1.8-1.8-10.3-3.6-25.7c-1.8-15.4-2.7-24.8-2.7-28.3l16.5-7.6c2.7-1.4,4-3.2,4-5.5c0-1.2-0.3-2.2-1-3
			c-0.7-0.8-1.6-1.2-2.7-1.2c-0.8,0-3.4,1.2-7.8,3.6c-4.5,2.4-7.6,4.1-9.3,5.1c0-10.9,0.2-21.1,0.6-30.6c0.6-10.4,1.9-21.1,4.1-32.3
			c2.2-11.1,5-17.8,8.4-19.9c0.4-0.2,1.2-0.3,2.6-0.3c2.5,0,5.4,0.3,8.8,0.8c3.2,0.2,5.6-0.1,7-0.8c1.4-0.7,2.1-2.5,2.1-5.3
			c0-2.5-1.3-4.1-4-4.9c-2.7-0.8-6.3-1.2-10.8-1.2c-6.5,0-12.5,1.2-18.2,3.7c-5.7,2.5-10.2,6.4-13.4,11.9
			c-3.2,5.8-5.7,14.9-7.4,27.3c-1.7,12.4-2.6,26.7-2.6,43.1c0,16.2,0.8,31.4,2.4,45.8c1.6,14.4,3.7,24.8,6.1,31.1
			c1.7,3.5,5.5,5.3,11.4,5.3c4.7,0,12.1-1.5,22.1-4.5c10-3,16.2-6,18.7-9c0.8-1.2,1.1-2.5,1.1-4
			C1032,594.5,1031.6,593.2,1030.6,592.3z"/>
	</g>
	<g>
		<path class="st0" d="M997.3,662.6H965h-96.9h-13.3c-4.9,0-8.8,4-8.8,8.8c0,4.9,4,8.8,8.8,8.8h9.2h96.6h36.6c4.9,0,8.8-4,8.8-8.8
			C1006.1,666.6,1002.1,662.6,997.3,662.6z"/>
		<path class="st0" d="M364.9,662.6h-27.1h-99.5h-44.1h-87c-4.9,0-9.1,3.7-9.2,8.6c-0.1,5,3.9,9.1,8.8,9.1h88.8h38.2h99.6h31.2
			c4.9,0,9.1-3.7,9.2-8.6C373.8,666.7,369.8,662.6,364.9,662.6z"/>
		<path class="st0" d="M640.6,662.6h-8h-55.4h-8c-5,0-8.9,4.1-8.8,9.1c0.1,4.9,4.4,8.6,9.2,8.6h6.7h57.1h6.7c4.9,0,9.1-3.7,9.2-8.6
			C649.5,666.7,645.5,662.6,640.6,662.6z"/>
		<path class="st0" d="M455.6,653.3c-0.1,0.3-0.2,0.5-0.3,0.8C455.4,653.8,455.5,653.5,455.6,653.3z"/>
	</g>
	<g>
		<path class="st0" d="M554.7,644.9c0.1-3.3,0.1-7.2-0.2-11.7c-0.1-2.3-1-3.9-2.6-4.9c-1.6-1-3.4-1.5-5.3-1.5
			c-3.2,0-5.9,0.9-8.1,2.7c-3.8,3.1-7.2,7.1-10.2,12.1c-3,5-5.6,10-7.8,15c-2.2,5-3.9,9.8-5.1,14.2c-1.3,4.5-2.1,7.7-2.4,9.8
			c0-2.2,0.1-5.2,0.3-9.1c0.2-3.9,0.4-8,0.8-12.3c0.3-4.3,0.7-8.4,0.9-12.3c0.3-3.9,0.5-6.9,0.6-9.1c0.1-1.8-0.1-3.4-0.7-4.6
			c-0.6-1.3-1.4-2.3-2.4-3.1c-1-0.8-2.2-1.4-3.4-1.8c-1.3-0.4-2.6-0.6-3.9-0.6c-2.4,0-4.6,0.6-6.6,1.7c-2,1.1-3,2.7-3,4.8
			c0,1.6,0.1,4.5,0.3,8.7s0.5,9,0.9,14.4c0.3,5.4,0.7,11.1,1.2,17.2c0.5,6.1,0.9,11.7,1.3,17c0.4,5.3,0.8,9.9,1.1,13.8
			c0.3,3.9,0.6,6.6,0.7,8c0.2,1.3,1,2.3,2.2,3c1.3,0.7,2.7,1.1,4.3,1.1c1.9,0,3.9-0.6,5.8-1.9c1.9-1.3,3.2-3.4,3.8-6.4
			c1.3-6.1,2.7-12.2,4.4-18.3c1.7-6.2,3.5-12,5.5-17.6c2-5.5,4.2-10.7,6.7-15.4c2.5-4.7,5.1-8.8,7.8-12.1c-0.2,2.2-0.3,4.3-0.3,6.5
			c0,2.2-0.1,3.7-0.2,4.5c-0.1,1.9,0.5,3.4,1.7,4.4c1.3,1,2.7,1.5,4.3,1.5c1.9,0,3.8-0.6,5.5-1.9c1.7-1.3,2.5-3.1,2.4-5.7
			C554.6,651.7,554.6,648.2,554.7,644.9z"/>
		<path class="st0" d="M767.3,657.9c-0.7-5-1.6-9.3-2.7-13c-1.1-3.7-2.5-6.5-4-8.5c-1.5-1.9-3.3-2.6-5.2-1.9
			c-4.5,1.7-8.5,4-12.2,6.8s-7,6-10,9.6c-3,3.6-5.7,7.5-8.1,11.7c-2.3,4.2-4.4,8.5-6.1,12.9c-0.3-6.1-0.6-12.4-0.9-19.1
			c-0.2-6.7-0.4-13.4-0.5-20.1c-0.1-6.7-0.2-13.1-0.2-19.4s0-11.9-0.1-17.2c-0.1-5.2-0.1-9.7-0.2-13.5c-0.1-3.8-0.1-6.5-0.3-8.2
			c-0.2-2.5-1.3-4.4-3.2-5.7c-1.9-1.3-4-1.9-6.4-1.9c-1.7,0-3.4,0.3-5.2,0.9c-1.7,0.6-3.2,1.5-4.6,2.6c-1.4,1.2-2.5,2.7-3.4,4.6
			c-0.9,1.8-1.4,3.9-1.4,6.3c0,1.4,0.1,4.5,0.3,9.5c0.2,4,0.4,8.5,0.8,13.8c-1.4,0.1-2.8,0.1-4.2,0.2c-4,0.2-8,0.5-12,0.9
			c-0.1-5.9-0.1-11,0-15.3c0.1-4.2,0.3-8.6,0.5-13.2c0-2.3-0.9-4-2.8-5.2c-1.9-1.2-4.1-1.8-6.6-1.8c-1.7,0-3.4,0.3-5.1,0.9
			c-1.7,0.6-3.3,1.5-4.7,2.7c-1.4,1.2-2.6,2.7-3.5,4.4c-0.9,1.7-1.4,3.8-1.4,6.2v9.9c0,4.5,0.1,9.5,0.2,14.8
			c-3.3,0.5-6.8,1.1-10.5,2.1c-1.6,0.3-2.7,1.1-3.2,2.4c-0.5,1.3-0.6,2.5-0.3,3.8c0.3,1.3,1.1,2.3,2.1,3.2c1.1,0.9,2.5,1.1,4.2,0.8
			l7.7-1.5c0.1,3.8,0.3,8.3,0.4,13.5c0.2,5.2,0.5,10.7,0.9,16.4c0.4,5.7,0.9,11.5,1.5,17.4c0.6,5.9,1.3,11.5,2.3,16.8
			c1,5.3,2.1,10.1,3.4,14.5c1.3,4.3,2.9,7.8,4.7,10.5c1.4,1.9,3.4,2.9,6,2.9c1.3,0,2.5-0.3,3.8-0.8c1.3-0.5,2.4-1.2,3.3-2.1
			c1-0.9,1.7-2.1,2.3-3.4c0.6-1.4,0.7-2.9,0.5-4.6c-0.2-1.1-0.5-3.2-0.8-6.1c-0.3-2.9-0.6-6.3-0.9-10c-0.3-3.8-0.6-7.8-1-12.2
			c-0.4-4.3-0.7-8.5-1-12.6c-0.3-4.1-0.5-7.8-0.8-11.3c-0.2-3.5-0.4-6.2-0.5-8.1c-0.2-4.8-0.4-9.1-0.5-13c-0.1-3.9-0.2-7.5-0.3-10.8
			c4-0.5,8-0.8,12.1-0.9c1.6-0.1,3.2-0.1,4.8-0.1c0.4,5.3,0.8,10.9,1.3,16.9c0.7,8.5,1.5,16.8,2.4,25.1c0.9,8.3,1.9,16.2,3.1,23.7
			c1.1,7.5,2.4,13.8,3.8,19c0.7,2.6,1.8,4.5,3.3,5.7c1.5,1.2,3,1.8,4.6,1.8c2.4,0,4.6-1.2,6.4-3.7c1.9-2.5,2.5-5.8,1.8-10.2
			c1.9-4.9,3.9-9.9,6-15.1c2.1-5.1,4.1-9.9,6.2-14.4c2.1-4.5,4.2-8.4,6.4-11.8c2.2-3.4,4.3-5.9,6.3-7.6c1.1,1.8,2.1,4.8,3,9
			c0.9,4.2,1.6,8.7,2.1,13.5c0.6,4.9,0.9,9.7,1,14.7c0.1,4.9-0.1,9.1-0.5,12.5c-0.6,4-0.3,6.8,0.9,8.5c1.2,1.7,2.7,2.5,4.4,2.5
			c1.6,0,3.2-0.6,4.8-1.8c1.6-1.2,2.7-2.8,3.3-4.7c1.3-4,2.2-8.5,2.7-13.6c0.6-5.1,0.8-10.3,0.7-15.5
			C768.4,668,768,662.8,767.3,657.9z"/>
		<path class="st0" d="M835.5,682.8c-1.1,0-2.2,0.4-3.2,1.3c-1,0.9-1.4,2.1-1.3,3.7c0.1,2.9-0.2,5.4-1,7.6c-0.8,2.2-1.9,4.1-3.3,5.6
			c-1.4,1.5-2.9,2.6-4.6,3.4c-1.7,0.8-3.4,1.3-5.1,1.5c-2.4,0.3-4.5,0.1-6.2-0.7c-1.7-0.8-3.2-1.9-4.4-3.4c-1.2-1.5-2.1-3.2-2.8-5.2
			c-0.7-2-1.2-4.1-1.5-6.3c-0.9-5-1.1-10.8-0.7-17.3c4.9-2.5,9.7-4.9,14.2-7.2c3.9-1.9,7.8-3.9,11.7-5.8c4-1.9,7.1-3.5,9.3-4.8
			c0.8-0.5,1.3-1.6,1.6-3.5c0.3-1.9,0.3-4.1-0.1-6.7s-1-5.3-2.1-8.1c-1-2.9-2.5-5.5-4.3-8c-1.8-2.5-4.2-4.5-7-6.1
			c-2.8-1.6-6.1-2.4-9.9-2.4c-2.6,0-5.5,0.5-8.7,1.4c-3.1,0.9-6.6,2.5-10.4,4.6c-3.8,2.1-6.8,4.9-9,8.6c-2.2,3.7-4,7.7-5.2,12.1
			c-1.3,4.4-2.1,8.9-2.5,13.6s-0.6,9.2-0.6,13.5c0,5.3,0.9,10.3,2.7,15.2c1.8,4.9,4.2,9.1,7.3,12.8c3.1,3.7,6.8,6.6,11,8.7
			c4.2,2.2,8.8,3.1,13.7,2.9c8.2-0.3,14.7-2.5,19.5-6.6c4.8-4,7.2-10.5,7.2-19.5c0-1.7-0.5-3-1.4-3.8
			C837.9,683.2,836.8,682.8,835.5,682.8z M802.8,653.9c0.5-3.1,1.3-6.1,2.4-8.9s2.7-5.2,4.7-7.1c2-1.9,4.6-2.9,7.8-2.9
			c1.7,0,3.2,0.4,4.5,1.3c1.3,0.9,2.4,2,3.3,3.3c0.9,1.4,1.6,3,2.1,4.8c0.5,1.8,0.8,3.7,0.8,5.7c-4.3,2.1-8.7,4.1-13.2,6
			c-4.5,1.9-8.9,4-13.4,6.2C802,659.8,802.3,657.1,802.8,653.9z"/>
		<path class="st0" d="M175.2,272.6c-3.7-8.1-9.5-15.3-17.2-21.6c-3.2-2.6-6.7-4.5-10.5-5.6c-3.8-1.1-7.7-1.7-11.6-1.7
			c-3.5,0-7,0.4-10.5,1.1c-3.5,0.7-6.8,1.7-9.9,3c-3.1,1.2-5.9,2.6-8.4,4c-2.6,1.5-4.6,3-6.2,4.6c0.3-1.6,0.4-3.1,0.2-4.6
			c-0.1-1.2-0.5-2.3-1.2-3.4c-0.7-1.1-1.8-1.9-3.4-2.3c-1.2-0.3-2.6-0.5-4.4-0.5c-1.7-0.1-3.6-0.1-5.5,0c-1.9,0.1-3.7,0.3-5.4,0.5
			c-1.7,0.3-3,0.7-4.1,1.1c-2.9,1.2-4.6,2.9-5.1,5.2c-0.5,2.3-0.9,5-1.2,8.2c-0.6,7.3-0.8,15.8-0.5,25.6c0.2,9.8,0.8,19.9,1.6,30.5
			c0.9,10.5,1.9,21.1,3.1,31.7c1.2,10.6,2.4,20.4,3.7,29.4c1.3,9,2.5,16.8,3.7,23.5s2.1,11.4,2.8,14.1c1,3.8,3,6.7,5.8,8.5
			c2.8,1.9,5.8,2.8,8.9,2.8c3.1,0,5.7-0.8,8-2.5c2.3-1.7,3.4-4.2,3.4-7.6c5.3,2.1,11.2,3.1,17.8,3.1c5.8,0,11.5-0.8,16.9-2.3
			c5.4-1.5,9.6-3.9,12.7-7.1c3.1-3.2,6-6.8,8.8-10.7c2.8-4,5.2-8.5,7.3-13.6c2.1-5.1,3.9-11,5.4-17.8c1.5-6.7,2.5-14.5,3.1-23.2
			c0.4-6.6,0.8-14,1.2-22.2c0.4-8.3-0.2-16.7-1.5-25.2C181.5,289,179,280.7,175.2,272.6z M157.4,323.2c-0.1,4.9-0.3,8.9-0.4,11.9
			c-0.3,9.2-0.6,17.5-1,24.9c-0.4,7.4-1.1,13.9-2.3,19.6c-1.2,5.7-3,10.5-5.4,14.5c-2.4,3.9-5.9,7.2-10.4,9.6
			c-4.1,2.2-7.9,3.3-11.4,3.3c-5.3,0-9.3-2-12.3-6.1c-2.9-4.1-4.5-9-4.8-14.7c-0.6-3.4-1.1-7.4-1.6-11.9c-0.5-4.6-1-9.5-1.4-14.6
			c-0.4-5.1-0.9-10.4-1.3-15.9c-0.4-5.5-0.8-10.8-1.1-15.9c-0.7-12.1-1.5-24.8-2.2-37.9c-0.1-2.1,0.1-4.4,0.9-6.9
			c0.7-2.6,1.8-5,3.3-7.3c1.5-2.3,3.3-4.4,5.5-6.1c2.2-1.7,4.7-2.9,7.5-3.5c7.2-1.2,13.1-0.7,17.8,1.4c4.7,2.1,8.4,5.2,11.3,9.3
			c2.8,4.1,5,8.9,6.4,14.4c1.4,5.5,2.3,11,2.7,16.4C157.4,313.2,157.5,318.3,157.4,323.2z"/>
		<path class="st0" d="M266.9,381.2c-1.5,0-2.8,0.5-4.1,1.7c-1.2,1.1-1.8,2.7-1.6,4.7c0.1,3.7-0.3,6.9-1.3,9.8
			c-1,2.8-2.4,5.2-4.2,7.1c-1.8,1.9-3.7,3.4-5.9,4.4c-2.2,1-4.4,1.7-6.6,2c-3.1,0.4-5.7,0.1-7.9-0.9c-2.2-1-4-2.5-5.6-4.4
			c-1.5-1.9-2.7-4.1-3.6-6.7c-0.9-2.6-1.5-5.2-2-8c-1.2-6.4-1.5-13.8-0.9-22.1c6.3-3.2,12.3-6.3,18.2-9.2c5-2.5,10-5,15-7.4
			c5-2.5,9-4.5,11.9-6.1c1-0.6,1.7-2.1,2.1-4.5c0.4-2.4,0.3-5.3-0.1-8.5c-0.4-3.3-1.3-6.8-2.6-10.4c-1.3-3.6-3.1-7-5.5-10.2
			c-2.3-3.1-5.3-5.7-8.9-7.8c-3.6-2.1-7.8-3.1-12.6-3.1c-3.4,0-7.1,0.6-11.1,1.8c-4,1.2-8.4,3.1-13.3,5.9c-4.8,2.6-8.7,6.3-11.5,11
			c-2.9,4.7-5.1,9.8-6.7,15.4c-1.6,5.6-2.7,11.4-3.2,17.4c-0.5,6-0.8,11.8-0.8,17.3c0,6.7,1.1,13.2,3.4,19.4
			c2.3,6.2,5.4,11.7,9.3,16.3c4,4.7,8.6,8.4,14,11.2c5.4,2.8,11.2,4,17.5,3.7c10.5-0.4,18.8-3.2,25-8.4c6.1-5.2,9.2-13.5,9.2-24.9
			c0-2.2-0.6-3.8-1.7-4.8C269.9,381.7,268.5,381.2,266.9,381.2z M225.1,344.3c0.6-4,1.6-7.8,3.1-11.4c1.5-3.6,3.5-6.6,6-9.1
			c2.5-2.5,5.9-3.7,10-3.7c2.2,0,4.1,0.5,5.8,1.7c1.7,1.1,3.1,2.5,4.3,4.3c1.2,1.8,2.1,3.8,2.7,6.1c0.7,2.3,1,4.8,1,7.2
			c-5.6,2.6-11.2,5.2-16.9,7.7c-5.7,2.5-11.4,5.1-17.1,7.9C224.1,351.8,224.5,348.3,225.1,344.3z"/>
		<path class="st0" d="M365.1,422c1.2,0.4,2.4,0.7,3.7,0.7c1.5,0,2.9-0.2,4.4-0.7c1.5-0.4,2.7-1,3.8-1.8c1.1-0.7,1.9-1.7,2.4-2.8
			c0.5-1.2,0.6-2.4,0.3-3.7c-3.9-15.8-6.2-29.5-6.9-41.2c-0.7-11.7-0.8-21.6-0.3-29.7c0.4-8.1,0.9-14.6,1.4-19.6
			c0.5-5,0-8.6-1.6-10.9c-0.9-1.3-2.1-2.2-3.5-2.6c-1.5-0.4-3-0.7-4.6-0.7c-1.6,0-3.1,0.1-4.6,0.3c-1.5,0.2-2.8,0.5-3.9,0.8
			c-2.6,0.6-4.8,1.9-6.6,4.1c-1.8,2.1-3.3,4.6-4.5,7.6c-1.2,2.9-2.3,6-3.2,9.2c-0.9,3.2-1.8,6.2-2.8,9c-1.9-2.9-4-5.8-6.1-8.8
			c-2.2-2.9-4.5-5.6-6.9-7.9c-2.4-2.3-4.8-4.2-7.3-5.6c-2.5-1.4-5-2.1-7.7-2.1c-2.6,0-5.2,0.8-7.8,2.5c-2.6,1.7-5.1,4.6-7.6,8.7
			c-3.9,6.4-6.9,13.2-8.8,20.3c-1.9,7.1-3,14.1-3.2,20.9c-0.2,6.9,0.3,13.4,1.7,19.5c1.3,6.1,3.2,11.6,5.6,16.3
			c2.4,4.8,5.3,8.5,8.5,11.3c3.3,2.8,6.8,4.2,10.6,4.2c3.2,0,6.6-1.1,10.1-3.3c3.4-2.2,6.5-6.2,9.3-12.1c2.8-5.8,5.4-12.2,7.8-18.9
			c2.3-6.8,4.4-13.3,6.2-19.6c1.8-6.3,3.2-11,4.3-14c0,5.1,0.1,10.9,0.3,17.4c0.2,6.5,0.8,13,1.9,19.4c1,6.4,2.5,12.5,4.5,18.2
			c2,5.7,4.7,10.4,8.2,14C363,420.9,363.9,421.5,365.1,422z M327.9,378.3c-1,3.2-2.2,6.4-3.4,9.4s-2.5,5.7-3.6,8
			c-1.2,2.3-2.3,4-3.4,5.1c-1.1,1.2-2.1,1.5-3,1.1c-2.3-1.2-4.1-3.1-5.3-5.9c-1.2-2.8-2-6-2.5-9.5c-0.5-3.6-0.8-7.5-0.9-11.7
			c-0.1-4.2-0.1-8.4-0.1-12.5c0-2.8,0.2-5.9,0.7-9.4c0.4-3.5,1.1-6.8,2-10c0.9-3.1,2-5.8,3.5-8c1.5-2.2,3.1-3.3,5-3.3
			c1.7,0,3.8,1.1,6.1,3.3c1.6,1.6,3.2,3.4,4.7,5.3c1.5,1.9,2.9,3.7,4,5.5c1.3,1.9,2.6,3.9,3.7,5.9
			C332.9,361.7,330.3,370.6,327.9,378.3z"/>
		<path class="st0" d="M448.4,334.1c-0.3,2.8-0.4,5.6-0.4,8.3c0,2.8-0.1,4.7-0.2,5.7c-0.1,2.5,0.6,4.4,2.2,5.6
			c1.6,1.2,3.4,1.9,5.5,1.9c2.5,0,4.8-0.8,7-2.4c2.2-1.6,3.2-4,3.1-7.2c-0.3-4.5-0.4-8.9-0.2-13.1c0.1-4.2,0.1-9.2-0.2-14.9
			c-0.1-2.9-1.2-5-3.3-6.2c-2-1.3-4.3-1.9-6.8-1.9c-4.1,0-7.5,1.2-10.3,3.5c-4.8,3.9-9.2,9.1-13,15.4c-3.9,6.4-7.2,12.7-10,19.2
			c-2.8,6.4-5,12.5-6.6,18.2c-1.6,5.7-2.6,9.9-3.1,12.5c0-2.8,0.1-6.6,0.3-11.6c0.2-5,0.5-10.2,1-15.7c0.4-5.5,0.8-10.7,1.2-15.7
			c0.4-5,0.6-8.8,0.8-11.6c0.1-2.3-0.1-4.3-0.9-5.9c-0.7-1.6-1.8-2.9-3.1-3.9c-1.3-1-2.8-1.8-4.4-2.3c-1.6-0.5-3.3-0.8-5-0.8
			c-3.1,0-5.9,0.7-8.4,2.2c-2.6,1.5-3.8,3.5-3.8,6.1c0,2,0.1,5.8,0.4,11.2c0.3,5.4,0.7,11.5,1.1,18.4c0.4,6.9,0.9,14.2,1.5,21.9
			c0.6,7.7,1.1,15,1.6,21.7c0.5,6.7,1,12.6,1.4,17.6c0.4,5,0.7,8.4,0.9,10.2c0.3,1.6,1.2,2.9,2.8,3.8c1.6,0.9,3.4,1.4,5.5,1.4
			c2.5,0,5-0.8,7.5-2.4c2.5-1.6,4.1-4.3,4.8-8.1c1.6-7.7,3.5-15.6,5.6-23.5c2.1-7.9,4.4-15.4,7-22.5c2.6-7.1,5.4-13.7,8.5-19.7
			C441.6,343.5,444.9,338.3,448.4,334.1z"/>
		<path class="st0" d="M632.5,378.1c-2.2-3.6-4.7-7.1-7.7-10.4c-2.9-3.3-5.6-6.5-8.1-9.5c-6.6-8.3-13.2-16.1-19.9-23.4
			c-6.7-7.3-13.2-15.3-19.5-23.9c-1.8-2.5-3.6-5-5.4-7.5c-1.8-2.5-3.4-5-4.8-7.4c-1.4-2.5-2.4-5-3-7.7c-0.6-2.6-0.5-5.3,0.2-7.9
			c1.2-4.2,4.3-7.9,9.5-11c5.2-3.1,12.5-5,21.8-5.7c1.5-0.1,3.2-0.3,5.3-0.5c2-0.2,4.1-0.2,6.1,0.1c2.5,0,4.1,0.7,4.9,2.1
			c0.8,1.4,1,3.2,0.7,5.5c-0.4,2.3-1.1,4.8-2.3,7.6c-1.2,2.8-2.4,5.5-3.7,8.2c-1.3,2.7-2.5,5.2-3.5,7.6c-1,2.3-1.6,4.2-1.7,5.7
			c-0.4,4.5,0.3,7.6,2.2,9.2c1.9,1.6,4.6,3.1,8.1,4.6c0.7,0.3,1.7,0.6,2.7,1c1.1,0.4,2.2,0.5,3.4,0.5c1.6,0,3.2-0.5,4.8-1.5
			c1.6-1,3.1-3.1,4.4-6.1c1.2-2.8,2.5-5.9,4-9.3c1.5-3.4,2.8-7,3.7-10.9c0.9-3.8,1.5-7.6,1.7-11.4c0.1-3.8-0.6-7.4-2.1-10.7
			c-1.5-3.4-4.1-6.4-7.7-9c-3.6-2.6-8.6-4.6-15-5.9c-2.8-0.6-5.8-1.1-9.2-1.4c-3.4-0.4-6.8-0.5-10.3-0.5c-6.4,0-12.9,0.6-19.3,1.8
			c-6.4,1.2-12,3-16.6,5.5c-5.6,2.9-9.9,6.6-13,11.1c-3.1,4.5-5.2,9.3-6.2,14.5c-1,5.2-1.1,10.6-0.1,16.1c1,5.6,2.7,10.9,5.4,16.2
			c1.3,2.5,3.5,5.8,6.7,10c3.1,4.2,6.8,8.7,11,13.6c4.2,4.9,8.6,10,13.4,15.2c4.7,5.3,9.3,10.3,13.6,15c4.3,4.8,8.2,8.9,11.7,12.6
			c3.5,3.7,6.1,6.4,7.7,8.3c1.9,2.1,3.1,4.3,3.7,6.7c0.6,2.4,0.4,4.8-0.5,7.1c-0.9,2.3-2.8,4.4-5.6,6.4c-2.8,1.9-6.6,3.4-11.4,4.6
			c-1.9,0.4-4.1,0.3-6.5-0.3c-2.4-0.7-4.6-1.9-6.7-3.7c-2.1-1.8-3.8-4.2-5.2-7.1c-1.4-2.9-2-6.5-1.9-10.7c0-2.3-0.7-4-2-5
			c-1.3-1-2.9-1.5-4.6-1.5c-2.3,0-4.5,0.7-6.6,2.1c-2.1,1.4-3.1,3.3-3.1,5.8c0.1,6.3,1.4,11.6,3.8,16.1c2.4,4.5,5.6,8.1,9.4,11
			c3.9,2.8,8.3,4.9,13.3,6.1c5,1.3,10.1,1.7,15.3,1.2c4.2-0.3,8.4-0.9,12.5-1.9c4.1-0.9,7.9-2.3,11.3-4.2c3.4-1.8,6.4-4.1,9-6.8
			c2.6-2.7,4.4-6,5.6-10c1.5-5.1,1.8-9.8,0.9-14C636.2,385.7,634.7,381.8,632.5,378.1z"/>
		<path class="st0" d="M652.5,403.7c2.4,4.8,5.3,8.5,8.5,11.3c3.3,2.8,6.8,4.2,10.6,4.2c3.2,0,6.6-1.1,10.1-3.3
			c3.4-2.2,6.5-6.2,9.3-12.1c2.8-5.8,5.4-12.2,7.8-18.9c2.3-6.8,4.4-13.3,6.2-19.6c1.8-6.3,3.2-11,4.3-14c0,5.1,0.1,10.9,0.3,17.4
			c0.2,6.5,0.8,13,1.9,19.4c1,6.4,2.5,12.5,4.5,18.2c2,5.7,4.7,10.4,8.2,14c0.7,0.7,1.7,1.3,2.8,1.8c1.2,0.4,2.4,0.7,3.7,0.7
			c1.5,0,2.9-0.2,4.4-0.7c1.5-0.4,2.7-1,3.8-1.8c1.1-0.7,1.9-1.7,2.4-2.8c0.5-1.2,0.6-2.4,0.3-3.7c-4-15.8-6.2-29.5-6.9-41.2
			c-0.7-11.7-0.8-21.6-0.3-29.7c0.4-8.1,0.9-14.6,1.4-19.6c0.5-5,0-8.6-1.7-10.9c-0.9-1.3-2.1-2.2-3.5-2.6c-1.5-0.4-3-0.7-4.6-0.7
			c-1.6,0-3.1,0.1-4.6,0.3c-1.5,0.2-2.8,0.5-3.9,0.8c-2.6,0.6-4.8,1.9-6.6,4.1c-1.8,2.1-3.2,4.6-4.5,7.6c-1.2,2.9-2.3,6-3.2,9.2
			c-0.9,3.2-1.8,6.2-2.8,9c-1.9-2.9-3.9-5.8-6.1-8.8c-2.2-2.9-4.5-5.6-6.9-7.9c-2.4-2.3-4.9-4.2-7.3-5.6c-2.5-1.4-5-2.1-7.7-2.1
			c-2.6,0-5.2,0.8-7.8,2.5c-2.6,1.7-5.1,4.6-7.6,8.7c-4,6.4-6.9,13.2-8.8,20.3c-1.9,7.1-3,14.1-3.2,20.9c-0.2,6.9,0.3,13.4,1.6,19.5
			C648.2,393.5,650.1,398.9,652.5,403.7z M668.4,352.9c0.4-3.5,1.1-6.8,2-10c0.9-3.1,2.1-5.8,3.5-8c1.5-2.2,3.1-3.3,5-3.3
			c1.8,0,3.8,1.1,6.1,3.3c1.6,1.6,3.2,3.4,4.7,5.3c1.5,1.9,2.9,3.7,4.1,5.5c1.3,1.9,2.6,3.9,3.7,5.9c-2.6,10.1-5.2,19-7.7,26.7
			c-1,3.2-2.2,6.4-3.4,9.4c-1.3,3.1-2.5,5.7-3.6,8c-1.2,2.3-2.3,4-3.4,5.1c-1.1,1.2-2.1,1.5-3,1.1c-2.3-1.2-4.1-3.1-5.3-5.9
			c-1.2-2.8-2-6-2.5-9.5c-0.5-3.6-0.8-7.5-0.9-11.7c-0.1-4.2-0.1-8.4-0.1-12.5C667.7,359.6,668,356.4,668.4,352.9z"/>
		<path class="st0" d="M783,400.5c1.6-4.5,3.3-9.5,5.2-14.8c1.8-5.3,3.7-10.8,5.7-16.4c2-5.6,3.7-10.8,5.3-15.4
			c1.5-4.7,2.8-8.7,3.9-11.9c1.1-3.3,1.7-5.2,1.9-5.8v2c0,1.8,0,5-0.1,9.9c-0.1,4.8-0.1,10.1-0.2,15.9c-0.1,5.8-0.1,11.4-0.1,17
			v13.2c0.1,9.2,1.9,16.3,5.3,21.3c3.4,5,8.9,7.4,16.6,7.2c1.6,0,2.8-0.9,3.6-2.7c0.8-1.8,1.4-4,1.7-6.5c0.4-2.5,0.6-5,0.7-7.5
			c0.1-2.5,0.1-4.4,0.1-5.9c0-2.3,0-5.8,0.1-10.3c0.1-4.5,0.1-9.7,0.1-15.3c0-5.7-0.1-11.7-0.2-17.9c-0.1-6.2-0.4-12.1-0.7-17.6
			c-0.3-5.6-0.7-10.4-1.1-14.6c-0.4-4.2-1-7.1-1.7-8.7c-1.2-2.5-3.3-4.5-6.2-5.9c-3-1.5-6.2-2.2-9.5-2.2c-2.5,0-4.8,0.4-6.8,1.3
			c-3.1,1.5-5.6,3.7-7.6,6.8c-2,3.1-3.6,6.4-4.9,10.1c-1.3,3.6-2.5,7.3-3.4,11.1c-1,3.7-1.9,7.1-3,10l-9.2,26.3c0-0.1,0-0.3-0.1-0.3
			c-0.1-0.1-0.1-0.3-0.1-0.5c0-6.6-0.1-13.1-0.4-19.7c-0.3-6.6-0.4-13.9-0.4-21.9c0-4.5-0.5-8.3-1.4-11.3c-0.9-3-2.1-5.4-3.5-7.1
			c-1.4-1.7-2.9-3-4.6-3.7c-1.7-0.7-3.4-1.1-5.1-1.1c-2.9,0-5.4,0.7-7.6,2.1c-2.1,1.4-3.2,2.7-3.2,3.8c0,3.2,0,7.7,0.1,13.4
			c0.1,5.7,0.2,12.1,0.4,19.1c0.2,7,0.5,14.2,0.9,21.7c0.4,7.5,0.8,14.5,1.3,21c0.5,6.6,1.2,12.4,2,17.5c0.8,5.1,1.7,8.8,2.7,11
			c1.2,2.5,2.4,4.2,3.7,5.2c1.3,0.9,2.6,1.4,3.9,1.4c1.3,0,2.6-0.4,3.7-1.2c1.2-0.8,2.3-1.8,3.4-3.1c1.1-1.2,2.1-2.6,3-3.9
			c0.9-1.4,1.5-2.7,2-4.1C780.1,408.5,781.4,405,783,400.5z"/>
		<path class="st0" d="M905.3,299.2c2.2,0,3.8-0.7,4.9-2.1c1.1-1.4,1.6-3,1.6-4.7c0-1.8-0.5-3.3-1.6-4.7c-1.1-1.4-2.7-2.1-4.9-2.1
			c-5.3,0-10.4,0.1-15.6,0.4c-5.1,0.3-10.2,0.7-15.3,1.1c-0.1-7.6-0.1-14.1,0-19.5c0.1-5.4,0.4-11,0.7-16.9c0-2.9-1.2-5.2-3.6-6.7
			c-2.4-1.5-5.2-2.3-8.4-2.3c-2.2,0-4.4,0.4-6.6,1.1c-2.2,0.7-4.2,1.9-6,3.4c-1.8,1.5-3.3,3.4-4.5,5.6c-1.2,2.2-1.8,4.8-1.8,7.9
			v12.6c0,5.8,0.1,12.1,0.2,18.9c-4.2,0.6-8.7,1.5-13.4,2.6c-2.1,0.4-3.4,1.5-4.1,3.1c-0.7,1.6-0.8,3.2-0.3,4.8
			c0.4,1.6,1.3,3,2.7,4.1c1.4,1.1,3.2,1.4,5.4,1l9.9-2c0.1,4.8,0.3,10.5,0.5,17.2c0.2,6.7,0.6,13.6,1.1,20.9
			c0.5,7.3,1.1,14.7,1.9,22.2c0.7,7.5,1.7,14.7,3,21.5c1.3,6.8,2.7,13,4.4,18.5c1.7,5.6,3.7,10,6,13.4c1.8,2.5,4.3,3.7,7.7,3.7
			c1.6,0,3.2-0.3,4.8-1c1.6-0.7,3-1.6,4.3-2.7c1.2-1.2,2.2-2.6,3-4.4c0.7-1.8,0.9-3.7,0.7-5.9c-0.3-1.5-0.6-4.1-1-7.8
			c-0.4-3.7-0.7-8-1.1-12.8c-0.4-4.8-0.8-10-1.3-15.6c-0.5-5.6-1-10.9-1.3-16.1c-0.4-5.2-0.7-10-1-14.5c-0.3-4.5-0.5-7.9-0.7-10.4
			c-0.3-6.1-0.5-11.7-0.7-16.6c-0.1-5-0.3-9.6-0.4-13.8c5.1-0.6,10.3-1,15.4-1.2C895,299.3,900.2,299.2,905.3,299.2z"/>
		<path class="st0" d="M982.5,372.4c-0.7-11.7-0.8-21.6-0.3-29.7c0.4-8.1,0.9-14.6,1.4-19.6c0.5-5,0-8.6-1.6-10.9
			c-0.9-1.3-2.1-2.2-3.5-2.6c-1.5-0.4-3-0.7-4.6-0.7c-1.6,0-3.1,0.1-4.6,0.3c-1.5,0.2-2.8,0.5-3.9,0.8c-2.6,0.6-4.8,1.9-6.6,4.1
			c-1.7,2.1-3.2,4.6-4.5,7.6c-1.2,2.9-2.3,6-3.2,9.2c-0.9,3.2-1.8,6.2-2.8,9c-1.9-2.9-4-5.8-6.1-8.8c-2.2-2.9-4.5-5.6-6.9-7.9
			c-2.4-2.3-4.9-4.2-7.3-5.6c-2.5-1.4-5-2.1-7.7-2.1c-2.6,0-5.2,0.8-7.8,2.5c-2.6,1.7-5.1,4.6-7.6,8.7c-3.9,6.4-6.9,13.2-8.8,20.3
			c-1.9,7.1-3,14.1-3.2,20.9c-0.2,6.9,0.3,13.4,1.7,19.5c1.3,6.1,3.2,11.6,5.6,16.3c2.4,4.8,5.2,8.5,8.5,11.3
			c3.3,2.8,6.8,4.2,10.6,4.2c3.2,0,6.6-1.1,10.1-3.3c3.4-2.2,6.5-6.2,9.3-12.1c2.8-5.8,5.4-12.2,7.8-18.9c2.3-6.8,4.4-13.3,6.2-19.6
			c1.8-6.3,3.2-11,4.3-14c0,5.1,0.1,10.9,0.3,17.4c0.2,6.5,0.8,13,1.9,19.4c1,6.4,2.5,12.5,4.5,18.2c2,5.7,4.7,10.4,8.2,14
			c0.7,0.7,1.7,1.3,2.8,1.8c1.2,0.4,2.4,0.7,3.7,0.7c1.5,0,2.9-0.2,4.4-0.7c1.5-0.4,2.7-1,3.8-1.8c1.1-0.7,1.9-1.7,2.4-2.8
			c0.5-1.2,0.6-2.4,0.3-3.7C985.5,397.8,983.2,384.1,982.5,372.4z M937.5,378.3c-1,3.2-2.2,6.4-3.4,9.4c-1.2,3.1-2.5,5.7-3.6,8
			c-1.2,2.3-2.3,4-3.4,5.1c-1.1,1.2-2.1,1.5-3,1.1c-2.3-1.2-4.1-3.1-5.3-5.9c-1.2-2.8-2-6-2.5-9.5c-0.5-3.6-0.8-7.5-0.9-11.7
			c-0.1-4.2-0.1-8.4-0.1-12.5c0-2.8,0.2-5.9,0.7-9.4c0.4-3.5,1.1-6.8,2-10c0.9-3.1,2-5.8,3.5-8c1.5-2.2,3.1-3.3,5-3.3
			c1.8,0,3.8,1.1,6.1,3.3c1.6,1.6,3.2,3.4,4.7,5.3c1.5,1.9,2.9,3.7,4,5.5c1.3,1.9,2.6,3.9,3.7,5.9
			C942.5,361.7,940,370.6,937.5,378.3z"/>
		<path class="st0" d="M1030,396.8c-1.6-2.1-3.5-3.2-5.6-3.6c-2.1-0.4-4.1-0.4-5.8-0.1c-3.2,0.9-5.6,2.2-7.1,3.9
			c-1.5,1.8-2.5,3.6-2.8,5.6c-0.4,2-0.2,3.9,0.4,5.7c0.7,1.8,1.6,3.1,3,3.8c3.4,2.3,5.6,4.3,6.6,5.9c1,1.6,1.4,3.9,1.1,6.8
			c-0.1,1.8,0.1,3,0.7,3.6c0.6,0.7,1.2,1,2,1c1.5,0,2.8-0.6,4-1.7c3.8-3.8,6.2-8.5,7.2-14C1034.5,408.1,1033.3,402.4,1030,396.8z"/>
		<path class="st0" d="M414.8,570.8c-1.7-0.4-4.5-0.6-8.4-0.6c-5.4,0-9.8,1-13.2,3c-3.4,2-6.2,4.6-8.1,7.7c-2,3.1-3.4,6.7-4.4,10.5
			c-0.9,3.9-1.5,7.7-1.7,11.4c-0.2,3.7-0.3,7.2-0.1,10.3c0.2,3.1,0.3,5.6,0.3,7.3c-2.4,0.9-4.8,1.8-7.2,2.7c-2.4,0.9-4.7,1.9-7,3
			c-1.6,0.7-2.5,1.7-2.7,3c-0.2,1.3,0.1,2.5,0.8,3.7c0.7,1.1,1.7,2,3,2.6c1.3,0.6,2.7,0.5,4.2-0.2c1.6-0.8,3.1-1.5,4.6-2.1
			c1.5-0.6,3-1.1,4.6-1.7c0.2,6.1,0.5,12.3,0.7,18.6c0.2,6.4,0.5,12.6,0.7,18.8c0.2,6.2,0.5,12.1,0.7,17.9c0.2,5.8,0.5,11.1,0.7,16
			c0.2,3.3,1.5,5.7,3.9,7.2c2.3,1.5,5,2.2,8,2.2c1.8,0,3.6-0.3,5.3-0.8c1.7-0.5,3.3-1.3,4.6-2.3c1.4-1,2.5-2.3,3.3-3.8
			c0.8-1.5,1.1-3.1,1-5c-0.5-5.8-0.9-11.4-1.5-16.7c-0.5-5.3-1-10.8-1.5-16.5c-0.5-5.7-1.1-11.8-1.7-18.4
			c-0.6-6.6-1.2-14.2-1.8-22.8c1.9-0.3,3.9-0.6,5.8-0.8c1.9-0.2,3.9-0.4,5.8-0.6c1.7-0.1,3-0.7,3.8-1.9s1.2-2.4,1.2-3.7
			c0-1.3-0.4-2.5-1.2-3.5c-0.8-1-2.1-1.5-3.8-1.4c-2.1,0.2-4.1,0.4-6.2,0.6c-2.1,0.2-4.1,0.4-6.2,0.6c0-0.7-0.1-2.1-0.4-4.1
			c-0.3-2.1-0.5-4.5-0.7-7.3c-0.1-2.4-0.2-4.9-0.2-7.5c0.3-5.4,1.3-17.6,14.5-17.6c1.4,0,2.7-0.8,3.2-2.1c0.2-0.4,0.4-0.9,0.5-1.4
			c0,0,0,0,0,0c0.1-0.3,0.2-0.6,0.4-0.8c0.3-0.8,0.3-1.5-0.3-2.1C417.6,571.7,416.5,571.2,414.8,570.8z"/>
		<path class="st0" d="M485.7,654L485.7,654c-3.4-11.9-10.2-33.5-29-28.5l0,0c-2.2,0.5-4.2,1.4-6.1,2.7c-3.6,2.5-6.8,5.8-9.3,9.9
			c-2.6,4.1-4.6,8.8-6.1,14c-1.5,5.3-2.5,10.6-3.1,15.9c-0.6,5.4-0.8,10.5-0.6,15.4c0.2,4.9,0.7,9.1,1.6,12.5
			c1.4,5.5,4.2,10.1,8.4,13.8c4.2,3.7,9.1,5.6,14.6,5.6c4.2,0,8-1,11.4-3c3.4-2,6.4-4.5,8.9-7.6c2.6-3.1,4.7-6.5,6.4-10.4
			c1.7-3.8,2.9-7.6,3.6-11.2c0.7-3.6,1.1-7.5,1.2-11.5c0.1-4-0.1-8-0.7-11.8C486.7,658,486.2,656,485.7,654z M471.5,661.7
			c-0.2,3.1-0.4,5.8-0.5,8.1c-0.2,4.4-0.8,8.7-1.8,13c-1,4.3-2.6,8.4-4.9,12.2c-1.1,1.9-2.1,3.2-2.7,3.9c-0.7,0.7-2.1,0.9-4.1,0.5
			c-3-0.6-5-2.5-6.1-5.7c-1.1-3.2-1.6-6.8-1.5-10.8c0.1-4,0.5-8,1.2-11.8c0.7-3.9,1.3-6.7,1.8-8.6c0.7-2.4,1.5-5.2,2.5-8.5
			c2.1-6.7,12.2-24.7,15.4-11c0.5,2.9,0.8,6,0.9,9.2C471.8,655.5,471.8,658.6,471.5,661.7z"/>
	</g>
</g>
</svg>
