<?xml version="1.0" encoding="utf-8"?>
<!-- Generator: Adobe Illustrator 23.0.3, SVG Export Plug-In . SVG Version: 6.00 Build 0)  -->
<svg version="1.1" id="Layer_1" xmlns="http://www.w3.org/2000/svg" xmlns:xlink="http://www.w3.org/1999/xlink" x="0px" y="0px"
	 viewBox="0 0 1133.9 1133.9" style="enable-background:new 0 0 1133.9 1133.9;" xml:space="preserve">
<style type="text/css">
	.st0{fill:#1E2121;}
	.st1{fill:#A81F26;}
	.st2{fill:#F2F1F2;}
	.st3{fill:#DD353A;}
	.st4{fill:#CFCFCE;}
	.st5{fill:#1D2121;}
	.st6{fill:none;}
	.st7{fill:#AA1F23;}
	.st8{fill:#FDFEFE;}
	.st9{fill:#EE742C;}
	.st10{fill:#BA5234;}
	.st11{fill:#ED1C24;}
	.st12{fill:#C42C3A;}
	.st13{fill:#058743;}
	.st14{fill:#0F4D70;}
	.st15{fill-rule:evenodd;clip-rule:evenodd;fill:#C42C3A;}
	.st16{fill-rule:evenodd;clip-rule:evenodd;fill:#1E2121;}
	.st17{fill:#E8E8E8;}
	.st18{fill:#186634;}
	.st19{fill:#BF2730;}
	.st20{fill:#B47A48;}
	.st21{fill:#3E1E14;}
	.st22{fill:#DBAD5D;}
	.st23{fill:#B84947;}
	.st24{fill:#C3976E;}
	.st25{fill:#9D2023;}
	.st26{fill:#3C2517;}
	.st27{fill:#4A3A31;}
	.st28{fill:#EDAD4F;}
	.st29{fill:#F8C018;}
</style>
<g>
	<path class="st5" d="M466.3,639.1c-5.4,0.2-9.6,2.2-12.5,6.1c-2.7,3.7-4,8-3.8,13c0.1,2.5,0.7,5,1.9,7.3c1.2,2.5,3,4.5,5.4,6
		c2.4,1.6,5.4,2.3,8.9,2.2c5.6-0.2,9.8-2.3,12.6-6.4c2.6-3.8,3.9-8.2,3.7-13.1c-0.1-3.8-1.5-7.3-4.2-10.4
		C475.5,640.5,471.4,638.9,466.3,639.1z"/>
	<path class="st5" d="M401.7,441.7c3.7,1,7.8,1.5,12.1,1.5c7.6,0,14-1.3,19.1-3.8c5.1-2.5,9.2-5.5,12.2-9.1c3-3.5,5.3-7.6,6.6-12.2
		c1.3-4.4,2-9.6,2.1-15.5c0-3.5-0.2-7.1-0.7-10.7c7.5-4,13.8-8.2,18.9-12.6c0,0.1,0,0.2,0,0.3c0,6.2,0.7,11.6,2.2,16.1l0,0.1
		c1.4,3.8,3.5,6.7,6.2,8.6c2.7,1.9,5.7,2.9,9,2.9c4.2,0,7.9-0.9,10.8-2.7c2.9-1.8,5.4-4.3,7.4-7.5c2.5-4.1,4.4-8.6,5.6-13.2
		c3.9-0.1,8.5-0.6,13.7-1.6c2.7-0.5,5.4-1.2,8-2c0.5,6.2,1.9,12.1,3.9,17.4l0.1,0.1c2,4.5,4.8,7.9,8.2,10.1
		c3.4,2.3,6.8,3.4,10.2,3.4c3.6,0,6.7-1.1,9.3-3.4c2.4-2,4.6-5.2,6.5-9.4c0.3-0.7,0.6-1.4,0.8-2.1c0,0.2,0.1,0.4,0.1,0.6
		c1.2,6.2,2.8,10.7,5,13.7c2.5,3.5,5.5,5.3,9,5.3c2.9,0,5.7-0.7,8.1-2.1c2.2-1.3,4.4-3.1,6.6-5.3c2-2.1,4.1-4.6,6.3-7.4
		c3.5-4.5,6.9-9.5,10.2-14.7c3.2-5.2,6.1-10,8.5-14.3c0.9-1.5,1.7-2.9,2.4-4.2c2,0.8,4.1,1.7,6.2,2.4c-0.1,0.8-0.2,1.6-0.4,2.5
		c-0.5,3.2-1,7.3-1.6,12.1c-0.6,4.9-0.8,10.9-0.8,17.9c0,2.5,0.3,5.2,0.9,7.9c0.6,2.8,1.7,5.4,3.1,7.8c1.5,2.5,3.6,4.6,6.2,6.2
		c2.6,1.6,5.9,2.4,9.6,2.4c3,0,5.8-0.8,8.4-2.3c2.3-1.4,4.5-3.2,6.4-5.3c1.8-2,3.5-4.2,4.9-6.4c1.4-2.1,2.7-4.2,3.8-6.1
		c5-9,9.4-18.2,13.1-27.4c0.9-2.1,1.8-4.1,2.6-6c1.3,2.1,2.9,4.1,4.7,5.9c2.2,2.2,4.5,4.4,7,6.5c0.6,0.5,1.2,1.1,1.9,1.7
		c-3.9,1.9-8.1,4.6-12.3,8c-6.5,5.1-9.8,11.7-9.8,19.5c0,6.3,2.2,11.9,6.5,16.5c4.4,4.7,10,7.1,16.8,7.1c7.3,0,13.9-2.9,19.5-8.7
		c5.6-5.8,8.5-12.9,8.5-21.3c-0.1-5.8-1.3-10.7-3.5-14.5c-1.1-1.9-2.2-3.6-3.4-5.1c2.7-0.9,5.5-1.9,8.2-2.9
		c5.1-1.9,10.2-4.2,15.1-6.8c1.4-0.7,2.7-1.6,4.1-2.4c1.4,6.6,4.6,11.8,9.5,15.7c5,3.9,11.5,5.9,19.4,5.9c1.4,0,2.9-0.1,4.3-0.2
		c10.7-0.9,20.9-6.2,30.4-15.7c1.5-1.5,3-3,4.3-4.5c0.4,1.3,0.9,2.7,1.3,4c2.2,5.9,4.9,11.2,8.2,15.8c3.3,4.7,7.3,8.4,11.7,11
		c4,2.4,8.5,3.6,13.2,3.6c0.6,0,1.3,0,1.9-0.1c3.4-0.2,6.7-1.2,9.8-2.9c2.9-1.6,5.6-3.6,8.1-6c2.4-2.3,4.6-4.7,6.6-7.2
		c1.9-2.5,3.6-4.8,5-7c0.7-1,1.3-2.1,2-3.2c1.2,21.2,3.8,37.7,7.8,49.1c5.7,16.2,14,24.5,24.6,24.5c5.9,0,10.6-2.8,13.8-8.3
		c2.9-4.9,4.3-11.4,4.3-19.3c0-10.4-2-20.2-6.1-28.9c-2.7-5.8-6-10.6-10-14.4c3.9-0.5,7.2-1.1,10-2c4.1-1,9.1-2.6,14.8-4.7
		c5.8-2.2,11.3-4.8,16.5-7.8c5.5-3.1,9.5-6.6,12.1-10.2c0.5-0.7,0.7-1.5,0.7-2.4c0-1.9-1.1-3.4-2.8-4.1c-0.6-0.2-1.2-0.3-1.8-0.3
		c-1.5,0-2.9,0.7-3.8,1.9c-1.9,2.7-5.1,5.3-9.6,7.8c-4.8,2.7-9.8,5-15.1,7c-5.3,2-9.8,3.4-13.6,4.3l-0.1,0
		c-5.4,1.6-12.3,2.5-20.5,2.5c-2,0-3.6,1.1-4.3,3l-0.2,0.5v0.9c0,1.6,0.8,3,2.2,3.8l0.3,0.2l0.3,0.1c5.5,2,10.6,6.9,14.9,14.5
		c4.5,7.8,6.7,17.3,6.7,28.3c0,6.5-0.8,11.4-2.5,14.8c-1.3,2.7-3.4,4-6.4,4c-6.5,0-10-11-11.8-20.2c-2.8-14.5-4.3-36.5-4.5-65.4
		c5.2-1.5,10.7-3.9,16.1-7.2c6.3-3.8,12.3-8.4,17.7-13.7c5.5-5.3,10-11.1,13.5-17.1c3.6-6.2,5.5-12.3,5.5-18.2c0-6-2.3-11-6.9-14.7
		c-4.4-3.6-9.7-5.4-15.9-5.4c-7.2,0-13.5,1.4-18.9,4.1c-5.3,2.7-9.8,6.6-13.5,11.5c-3.5,4.8-6.4,10.4-8.6,16.7
		c-2.1,6.2-3.6,13.1-4.5,20.4c-0.9,7.2-1.3,14.8-1.3,22.6c0,1.5,0,3,0.1,4.5c-2.7,5.4-5.8,10.8-9.2,15.9c-1.1,1.8-2.6,3.9-4.2,6
		c-1.6,2.1-3.5,4.2-5.5,6.2c-1.9,1.9-4.1,3.5-6.3,4.8c-2,1.2-4.1,1.8-6.3,2c-0.2,0-0.3,0-0.5,0c-1.8,0-3.6-0.8-5.5-2.3
		c-2.3-1.9-4.5-4.7-6.5-8.3c-2.1-3.7-3.9-8.1-5.5-13.1c-1.3-4.2-2.4-8.6-3.2-13.3c4.8-1.8,9.8-4.4,14.7-7.8
		c5.8-4,11.1-8.7,15.9-14.1c4.9-5.4,8.8-11.2,11.7-17.3c3-6.3,4.3-12.5,3.9-18.5c-0.4-6.1-2.9-11.1-7.5-15c-4-3.4-9.1-5.2-14.9-5.2
		c-0.7,0-1.4,0-2.1,0.1c-6.8,0.5-12.8,2.3-17.9,5.6c-5,3.2-9.2,7.4-12.5,12.5c-3.2,5-5.7,10.7-7.4,16.9c-1.7,6.2-2.7,12.7-2.9,19.4
		c-0.2,3.8-0.1,7.6,0.1,11.4c0.2,2.8,0.5,5.7,0.9,8.5c0.2,1.5,0.5,3,0.8,4.5c-2.2,2.6-4.8,5.4-7.7,8.3c-7.9,8.1-16.3,12.5-25.1,13.3
		c-0.5,0-0.9,0.1-1.4,0.1c-3.8,0-7.1-1.4-10-4.2c-3.3-3.2-5.3-8.1-5.8-14.6c0-0.2,0-0.3,0-0.5c1.8,0.4,3.8,0.7,5.9,0.7
		c0.9,0,1.8,0,2.8-0.1c4-0.3,7.7-1.8,10.8-4.4c3.5-2.9,5.1-6.5,4.7-10.7c-0.4-4.7-2.7-8.3-6.6-10.4c-2.9-1.6-6.1-2.3-9.5-2.3
		c-0.6,0-1.3,0-1.9,0.1c-7.9,0.7-13.8,4.1-17.5,10.3c-2.5,4-4,8.4-4.4,12.9c-1.2,1-2.4,1.9-3.8,2.8c-4.3,2.8-9,5.2-14.1,7.2
		c-5.1,2-10.3,3.9-15.4,5.6c-1.4-1.3-2.9-2.7-4.4-4c-2.2-1.9-4.3-3.9-6.3-5.9c-1.8-1.8-3.3-3.8-4.4-5.8c-1-1.8-1.5-3.8-1.5-6.1
		c0-2.1,0.6-3.8,2-5.4c1.3-1.5,3-2.1,5.4-2.1c1.3,0,2.3,0.3,3,0.8c0.7,0.5,1.2,1.2,1.4,2c0.2,0.6,0.3,1.1,0.3,1.7
		c0,0.3,0,0.6-0.1,0.9c-0.1,0.6-0.1,1.1-0.1,1.5c0,1.2,0.5,2.4,1.4,3.2c0.6,0.5,1.6,1.1,3.1,1.1c2.3,0,4.1-1.4,4.5-3.6l0-0.1
		c0.2-1,0.2-2.1,0.2-3c0-4.2-1.6-7.7-4.8-10.4l-0.1-0.1c-3.8-2.8-7.8-4.2-11.8-4.2c-6.1,0-11.1,1.9-14.8,5.6
		c-3.4,3.4-5.3,7.6-5.6,12.5c-1.8,3.2-4.1,8.2-6.9,14.8c-2,4.5-4.1,9.2-6.4,14.1c-2.2,4.8-4.6,9.4-7.1,13.6
		c-2.4,4.1-4.8,7.5-7.3,10.1c-1.9,2.1-3.8,3.1-5.3,3.1c-1.7,0-2.8-0.6-3.7-1.9c-1.2-1.8-2-4.3-2.4-7.3c-0.3-2.4-0.5-4.9-0.5-7.7
		c0-1.1,0-2.2,0.1-3.3c0.2-4,0.5-8,1-11.9c0.5-3.9,1-7.4,1.5-10.4c0.7-5,0.8-5.9,0.8-6.4c0-1.9-1.1-3.4-2.9-4.1l-3.1-1.2
		c-3.4-1.1-6.7-2.4-9.9-3.9c1.6-2.2,3.2-4.6,4.8-7c2.3-3.6,4.3-7.2,5.9-10.8c1.7-3.8,2.6-7.3,2.6-10.6c0-3.3-1-6.2-3-8.6
		c-1.8-2.2-4.2-4-7.1-5.2c-2.8-1.2-5.7-1.7-8.7-1.7c-7.8,0-14.2,2.2-19,6.4c-4.9,4.4-7.4,10.2-7.4,17.4c0,5,1,9.3,3.1,12.9
		c2,3.5,4.7,6.6,8.1,9.1c1.8,1.3,3.8,2.6,6,3.8c-0.5,0.9-1.1,1.8-1.7,2.9c-2,3.5-4.4,7.4-7,11.8c-2.6,4.3-5.4,8.5-8.2,12.6
		c-2.7,3.9-5.4,7.3-7.9,9.9c-2.3,2.3-3.6,2.9-4.3,3.1c-0.1-0.2-0.3-0.4-0.5-0.8c-0.7-1.6-1.4-3.6-1.9-6.1c-0.5-2.6-1-5.4-1.3-8.1
		c-0.3-2.8-0.6-5.3-0.7-7.5c-0.2-2.8-0.2-3.9-0.2-4.3l0-0.1c-0.1-2.7-0.2-5.3-0.2-8c0-1.4,0-2.8,0.1-4.2c0-1.6-0.6-6.7-8.2-6.7
		c-7.1,0-8.3,4.4-8.6,6.4c-0.3,1.8-0.5,3.8-0.7,5.8c-0.5,3.7-1.2,7.5-1.9,11.3c-0.7,3.7-1.6,7.1-2.7,10.2c-1,2.9-2.1,5.2-3.4,6.9
		c-1.1,1.5-2,1.7-2.5,1.7c-1.6,0-2.7-0.6-3.8-1.8c-1.3-1.6-2.4-3.8-3.2-6.5c-0.9-2.9-1.5-6.1-1.9-9.5c-0.4-3.5-0.7-6.9-0.8-10.1
		c-0.1-3.2-0.2-6-0.2-8.3c0-1.1,0-2-0.1-2.9c-0.3-2.8-2-4.9-4.8-5.8c-1-0.3-2-0.4-2.9-0.4c-1.3,0-2.5,0.2-3.7,0.7
		c-2.8,1-4.4,3.2-4.5,6v2.6c0,1.9,0.1,4,0.2,6.4c-3,1-6.2,1.9-9.5,2.5c-3.8,0.7-7.2,1.1-10.1,1.3c0.1-1.2,0.2-2.3,0.2-3.3
		c0-2.9-0.4-5.9-1.2-9c-0.8-3.1-2.1-6-3.8-8.7c-1.8-2.8-4.2-5-7.1-6.7c-3-1.8-6.5-2.6-10.6-2.6c-5.4,0-9.9,1.4-13.5,4.1
		c-3.9,2.9-5.8,7.2-5.8,12.7c0,1.2,0.1,2.5,0.4,3.8c-0.1,0.4-0.2,0.9-0.2,1.5c-6.1,6.4-13.2,11.9-21.3,16.6c-1.1-6-2.4-11.7-3.8-17
		c-0.9-3.5-1.7-6.7-2.2-9.5l0-0.2l0-0.1c-0.8-2.5-2.7-4.1-5.3-4.7c-0.8-0.2-1.5-0.2-2.3-0.2c-1.3,0-2.6,0.2-3.7,0.6
		c-3.3,1.1-4.3,3.3-4.5,4.6c-0.2,1-0.4,2.5-0.7,4.6c-0.3,2.4-0.6,5.2-1.1,8.3c-0.5,3-1.1,6-1.9,8.9c-0.8,2.7-1.7,5-2.9,6.7
		c-1,1.6-1.8,1.6-2.1,1.6c-1.2,0-2.1-0.4-2.9-1.2c-1-1.1-1.9-2.6-2.5-4.5c-0.7-2.1-1.2-4.4-1.5-6.8c-0.3-2.4-0.5-4.8-0.6-7
		c0-1.5-0.1-2.8-0.1-3.9l0-2.4l0-0.1c-0.1-1.5-0.8-4.2-4.6-5.6c-1.3-0.5-2.6-0.7-3.8-0.7c-0.9,0-1.8,0.1-2.7,0.3
		c-2.9,0.8-4.7,2.9-4.8,5.9l0,0v4.1c0,1.6,0,3.4,0.1,5.3c0.1,2.9,0.5,5.7,1.1,8.5c0.6,3,1.7,5.8,3.1,8.2c1.6,2.7,3.8,4.9,6.6,6.5
		c2.8,1.7,6.5,2.5,10.8,2.5c1.2,0,2.4-0.1,3.5-0.3c-4.7,1.9-9.4,3.8-13.9,5.9c-3.5,1.6-6.9,3.5-10,5.6c-3.2,2.2-5.9,4.9-8,7.8
		c-2.2,3.1-3.3,6.7-3.3,10.6c0,3.8,1.3,7.3,4,10.1C394.3,438.7,397.6,440.7,401.7,441.7z M908.8,341.5c0.8-6.2,2-12,3.6-17.4
		c1.6-5.3,3.6-9.9,6-13.9c2.3-3.8,5.1-6.9,8.3-9c3-2.1,6.6-3.1,10.7-3.1c3.9,0,6.9,1,9.1,3.1c2.1,2.1,3.2,4.7,3.2,8.2
		c0,4.4-1.4,9.1-4.1,14c-2.9,5.2-6.7,10.1-11.3,14.8c-4.7,4.7-9.8,8.8-15.2,12.2c-3.9,2.4-7.7,4.4-11.5,5.7
		C907.8,351.2,908.2,346.3,908.8,341.5z M837.9,327.4c1-5.5,2.5-10.5,4.5-14.9c1.9-4.2,4.5-7.7,7.6-10.3c2.9-2.5,6.5-3.9,10.6-4.1
		c0.5,0,0.9,0,1.3,0c2.2,0,4.2,0.4,5.8,1.2c1.9,1,3.3,2.3,4.3,4.1c1.1,1.9,1.7,4.1,1.9,6.7c0.3,4.5-0.7,9.3-2.9,14.3
		c-2.4,5.2-5.6,10.2-9.7,15c-4.1,4.8-8.7,9-13.6,12.5c-3.6,2.6-7.2,4.7-10.8,6.2c-0.1-1.3-0.2-2.7-0.3-4c-0.2-3.1-0.3-6.2-0.3-9.3
		C836.4,338.8,836.9,333,837.9,327.4z M772.5,358c1.6-3.2,3.8-4.8,7.1-5.2c0.2,0,0.5,0,0.7,0c1.2,0,2.2,0.3,2.9,1
		c0.9,0.8,1.4,1.8,1.5,3.1c0.1,1.5-0.3,2.5-1.2,3.5c-1.2,1.1-2.6,1.7-4.5,1.9c-0.6,0-1.2,0.1-1.8,0.1c-2.2,0-4.2-0.3-5.8-0.9
		C771.6,360.1,772,359,772.5,358z M712.9,394.8c1.3,1.6,2.6,3.4,4,5.5c1.6,2.4,2.4,6.1,2.4,10.7c0,5.2-1.2,9.5-3.7,12.9
		c-2.3,3.2-5.1,4.6-9,4.6c-4.1,0-6.8-1.2-8.5-3.8c-1.9-2.9-2.9-6.5-2.9-10.6c0-4.7,1.7-8.5,5.2-11.7
		C703.8,399.4,708,396.8,712.9,394.8z M620.7,344.6c-1-2.3-1.6-5-1.6-8c0-2.2,0.5-4.4,1.5-6.4c0.9-2,2.3-3.6,4.1-4.9
		c1.7-1.2,3.9-1.8,6.5-1.8c2.5,0,4.5,0.6,6.2,1.9c1.5,1.1,2.1,2.6,2.1,4.8c0,3.5-1.2,7.6-3.6,12.3c-2.1,4.1-4.5,7.9-7.1,11.6
		c-1.4-1-2.7-2.1-3.8-3.3C623.2,349,621.8,346.9,620.7,344.6z M501.4,388.7c-1,2.6-2.3,4.8-4,6.5c-1.4,1.4-2.8,2.1-4.3,2.1
		c-0.4,0-1.6,0-3.1-2.8c-0.7-1.3-1.8-4.8-2.1-13.9c2.1,0.8,4.4,1.4,6.7,1.9c2.8,0.5,5.6,0.9,8.4,1.2
		C502.6,385.3,502,387,501.4,388.7z M492.3,353.6c2.4,0,4.4,0.5,5.8,1.5c1.5,1,2.8,2.4,3.6,4c1,1.8,1.7,3.9,2.1,6
		c0.4,2.3,0.6,4.5,0.6,6.6c0,0.9,0,1.9-0.1,3.1c-2.8-0.2-5.6-0.6-8.4-1.2c-2.8-0.6-5.4-1.5-7.6-2.7c0.4-2.8,1-5.6,1.8-8.4
		c0.2-0.8,0.3-1.5,0.3-2.2c0-1.8-0.7-3.4-2-4.5c-0.6-0.5-1.3-0.9-2.1-1.2C488,354,490,353.6,492.3,353.6z M429.1,392.7
		c2.2-2.1,3.9-4.7,5.1-7.8c0.4-1.1,0.8-2.3,1.2-3.5c0.6,2.9,1.1,5.8,1.6,8.8c-0.8,0.3-1.7,0.7-2.5,1l-0.1,0.1l-0.9,0.3l-1.4,0.6l0,0
		c-1.5,0.6-3,1.2-4.5,1.8c-0.2,0.1-0.4,0.1-0.6,0.2C427.8,393.9,428.5,393.3,429.1,392.7z M400.1,419.2c1.3-2.1,3.1-3.9,5.2-5.5
		c2.3-1.7,4.9-3.2,7.7-4.5c6-2.6,12.1-5.2,18.3-7.5c1.2-0.4,2.3-0.9,3.5-1.3l0,0l3.3-1.3c0.1,1.5,0.2,3,0.2,4.5c0,2-0.1,4-0.3,5.9
		c-0.4,4.4-1.6,8.4-3.6,11.9c-1.9,3.3-4.8,6.2-8.7,8.6c-3.8,2.3-9.2,3.5-15.8,3.5c-2.1,0-4.1-0.3-6.1-0.8c-1.6-0.4-2.9-1.2-3.9-2.5
		c-1-1.3-1.5-2.6-1.5-4.3C398.3,423.4,398.9,421.2,400.1,419.2z"/>
	<path class="st5" d="M1008.7,399.5c1.1,2.3,2.6,4.3,4.5,5.8c2.1,1.7,4.7,2.5,7.7,2.5c2.8,0,5.3-0.9,7.3-2.7
		c1.7-1.5,3.1-3.4,4.2-5.7c0.6,2.2,1.3,4.4,2.2,6.5c0.9,2.2,2.1,4.3,3.6,6.1c1.5,2,3.4,3.5,5.6,4.7c2.2,1.2,4.9,1.8,7.8,1.8
		c4.2,0,8.2-1.3,11.9-3.8c3.5-2.3,6.7-5.3,9.7-8.9c2.9-3.5,5.6-7.2,8-11.1c2.4-3.8,4.6-7.5,6.6-10.9c1.7-3,3.2-5.5,4.4-7.5
		c0.5-0.7,0.7-1.5,0.7-2.4c0-1.6-0.9-3.1-2.4-3.9c-0.7-0.4-1.4-0.6-2.2-0.6c-1.6,0-3,0.7-3.9,2.1c-1.1,1.7-2.4,4-4,6.8
		c-1.7,3-3.7,6.4-5.9,9.9c-2.1,3.5-4.5,6.8-6.9,10c-2.4,3.1-4.8,5.6-7.2,7.6c-2,1.6-4,2.5-5.8,2.5c-1,0-1.8-0.3-2.5-1
		c-1-0.9-1.8-2.2-2.5-3.9c-0.8-1.8-1.4-4-1.9-6.3c-0.7-3.7-1.2-7.6-1.4-11.6c-0.2-4.1-0.3-7.7-0.3-10.6c0-2.4-1-4.3-2.7-5.6
		c0-0.6-0.2-1.2-0.5-1.8c-0.8-1.7-1.9-3.2-3.2-4.3c-2.7-2.3-5.9-3.4-9.7-3.4l-0.5,0c-5.5,0.1-10.1,1.6-13.6,4.3
		c-3.5,2.7-6.1,6.2-7.7,10.4c-1.6,4-2.4,8.2-2.4,12.3c0,1.8,0.2,3.8,0.6,6.1C1007,395.1,1007.7,397.4,1008.7,399.5z M1022.5,381.1
		c0.3-2.1,0.9-4.2,1.7-6.2c0.7-1.8,1.8-3.3,3-4.5c1-1,2.3-1.4,4-1.4c0.8,0,1.4,0.1,1.9,0.3c-0.1,0.1-0.1,0.1-0.2,0.2
		c-0.9,0.8-1.6,1.6-2,2.5c-0.3,0.7-0.6,1.7-0.9,3c-0.4,2.3-1.2,5.3-2.1,8.9c-0.9,3.6-2,6.9-3.1,9.8c-0.4,0.9-0.7,1.6-0.9,2
		c0,0,0,0,0-0.1c-0.6-1.5-1.1-3.2-1.3-5c-0.3-2.6-0.4-3.6-0.4-4C1022,385.2,1022.2,383.3,1022.5,381.1z"/>
	<path class="st5" d="M78.8,388.2c1.1,2,2.6,3.8,4.2,5.3c2,1.8,4.5,2.7,7.5,2.7c1.8,0,3.3-0.4,4.5-1.2c1.5-1,2.4-2.6,2.4-4.4l0-0.1
		c0-1-0.1-2-0.1-3c0-6.1,1.2-12.2,3.4-18c0.4-1.1,1.1-2.3,1.9-3.6c0.7-1.2,1.7-2.2,2.7-3.1c0.8-0.6,1.5-0.9,2.4-0.9
		c1.4,0,1.7,0.5,1.9,0.8c0.6,1.1,1,2.8,1,4.9c0,3.1-0.2,6-0.6,8.8c-0.5,3.4-1,6.9-1.6,10.5c-0.6,3.6-1.2,7.1-1.7,10.6
		c-0.5,3.6-0.8,6.9-0.8,9.9c0,3.5,0.6,6.5,1.9,8.8c1.3,2.4,3.1,4.2,5.4,5.4c2.1,1.1,4.5,1.6,7,1.6c5.9,0,11.6-2.2,17.2-6.5l0.1-0.1
		c4.6-3.9,8.7-8.6,12.2-14.1c0.9-1.4,1.7-2.7,2.5-4c1,1.7,2.3,3.2,3.8,4.4c2.1,1.7,4.7,2.5,7.7,2.5c2.8,0,5.3-0.9,7.3-2.7
		c1.7-1.5,3.1-3.4,4.2-5.7c0.6,2.2,1.3,4.4,2.2,6.5c0.9,2.2,2.1,4.3,3.6,6.1c1.5,2,3.4,3.5,5.6,4.7c2.2,1.2,4.9,1.8,7.8,1.8
		c4.2,0,8.2-1.3,11.9-3.8c3.5-2.3,6.7-5.3,9.7-8.9c1.5-1.8,2.9-3.7,4.3-5.6c1.1,3.8,2.3,7.4,3.7,10.8c3.6,8.1,8.1,12.3,13.3,12.3
		h0.2l0.1,0c5-0.2,9.4-2.6,13.3-7.2c3.5-4.1,6.6-9.4,9.2-15.5c2.1-4.9,3.9-10,5.3-15c4.2,1.2,8.6,1.8,13.1,1.8c2.9,0,6-0.3,9.4-0.8
		c0.1,8.6,2.9,15.5,8.4,20.6c5.5,5.1,13.3,7.6,23.1,7.6c10.8,0,21.4-4.4,31.6-13.1c9.9-8.4,16.6-15.2,20-20.3
		c0.5-0.7,0.7-1.5,0.7-2.4c0-1.6-0.9-3.1-2.4-3.9c-0.7-0.4-1.4-0.6-2.2-0.6c-1.6,0-3,0.7-3.8,2c-2.9,4.3-8.9,10.4-17.8,18.2
		c-8.5,7.4-17.3,11.1-26.2,11.1c-4.4,0-8-1.6-11-5c-3-3.4-4.6-8.4-4.6-14.9c2,0.3,4.2,0.5,6.4,0.5c3.7,0,9.1-0.6,13.1-3.2
		c0.1,0,0.1-0.1,0.2-0.1c0.2-0.1,0.4-0.3,0.6-0.4l0.2,0.1l1.4-1.4c2.4-2.3,3.5-5.2,3.5-8.6c0-4.8-2-8.5-5.7-10.9
		c-3.3-2.1-7.1-3.2-11.2-3.2c-7.9,0-14.1,3-18.3,8.8c-2.2,3-3.8,6.2-4.8,9.7c-0.9,0.2-1.9,0.4-2.8,0.6c-2.9,0.5-5.5,0.7-7.8,0.7
		c-3.8,0-7.5-0.5-10.9-1.5c1.8-8,2.6-13.6,2.6-17.2c0-4.2-0.8-7.7-2.5-10.3c-1.7-2.8-4-4.6-6.8-5.5c-1.1-0.3-2.3-0.5-3.4-0.5
		c-1.5,0-3,0.3-4.5,0.9c-2.6,1-4.8,3-6.5,5.7c-1.6,2.7-2.5,6-2.5,10.1c0,5.2,1.3,9.8,3.9,13.6c2.1,3,4.7,5.6,7.9,7.6
		c-1.3,4.7-2.9,9.4-4.7,13.8c-2,5.1-4.2,9.3-6.5,12.7c-1.7,2.4-2.9,3.4-3.7,3.7c-0.2-0.3-0.3-0.6-0.6-1.1c-0.9-2-1.8-4.3-2.7-7
		c-0.9-2.7-1.7-5.3-2.3-7.6c-0.6-2.3-1-3.8-1.2-4.5c-1.4-5.8-2.5-11.8-3.1-17.8l0-0.1c-0.4-2.9-2-5.2-4.5-6.4
		c-1.4-0.7-2.8-1.1-4.2-1.1c-1,0-2.1,0.2-3.1,0.6c-1.5,0.6-4.1,2.3-4.1,6.9l0,0.1c0.2,3,0.9,7.8,2.2,14.6l-0.1,0.1
		c-2.1,3.5-4.5,6.8-6.9,10c-2.4,3.1-4.8,5.6-7.2,7.6c-2,1.6-4,2.5-5.8,2.5c-1,0-1.9-0.3-2.5-1c-1-0.9-1.8-2.2-2.5-3.9
		c-0.8-1.8-1.4-4-1.9-6.3c-0.7-3.7-1.2-7.6-1.4-11.6c-0.2-4.1-0.3-7.6-0.3-10.6c0-2.4-1-4.3-2.7-5.6c0-0.6-0.2-1.2-0.5-1.8
		c-0.8-1.7-1.9-3.2-3.2-4.3c-2.7-2.3-5.9-3.4-9.7-3.4l-0.5,0c-5.5,0.1-10.1,1.6-13.6,4.3c-3.5,2.7-6.1,6.2-7.7,10.4
		c-1.6,4-2.4,8.2-2.4,12.3c0,0.6,0,1.2,0.1,1.9c-1,1.8-2.1,3.6-3.1,5.3c-2.4,4-4.9,7.8-7.5,11.1c-2.5,3.2-5,5.8-7.5,7.8
		c-2.1,1.6-4.1,2.5-6,2.5c-1.5,0-1.8-0.6-2-0.8c-0.5-0.8-1-2.5-1.1-5.7c0-2.5,0.2-5.2,0.6-8.2c0.5-3.4,1.1-7,1.7-10.6
		c0.6-3.6,1.2-7.1,1.7-10.5c0.5-3.5,0.8-6.8,0.8-9.7c0-4.6-1.6-8.4-4.7-11.2c-3-2.7-6.6-4.1-10.7-4.1c-2.8,0-5.7,0.8-8.5,2.3
		c5.8-3.8,11.2-8.3,16.2-13.4c5.1-5.3,9.4-11,12.6-17c3.3-6.2,5-12.2,5-18c0-6-2.3-11-6.9-14.7c-4.4-3.6-9.7-5.4-15.9-5.4
		c-7.2,0-13.5,1.2-18.7,3.6c-5.2,2.4-9.6,5.7-13,9.9c-3.3,4.1-6,8.8-7.9,13.9c-1.8,5.1-3.1,10.4-3.9,15.9c-0.7,5.1-1,10.3-1,15.3
		c0,6.8,0.7,13.5,1.8,19.9c1.2,6.4,3,12.6,5.5,18.4C77,384.6,77.8,386.4,78.8,388.2z M306.5,370.6c1.8-3,4.2-4.5,7.6-4.6
		c1.6,0,2.7,0.4,3.4,1.2c0.8,0.9,1.2,1.9,1.2,3.3c0,0.6-0.1,1.2-0.3,1.7c-0.1,0.4-0.4,0.8-0.8,1.1c-1.6,1.3-4,2-7.1,2
		c-2.1,0-4.2-0.3-5.6-0.6C305.4,372.9,306,371.4,306.5,370.6z M255.5,366.3c-1.5-2.3-2.3-5.2-2.3-8.5c0-2.7,0.5-4.8,1.4-6.1
		c1-1.4,1.7-1.6,2-1.6h0.3c0.5,0,1,0.4,1.5,1.1c0.6,0.8,1.3,2.5,1.3,6.3c0,3.2-0.5,7.2-1.5,12.1
		C257.2,368.6,256.3,367.5,255.5,366.3z M165.2,378.8c0.3-2.1,0.9-4.2,1.7-6.2c0.7-1.8,1.8-3.3,3-4.5c1-1,2.3-1.4,4-1.4
		c0.8,0,1.4,0.1,1.9,0.3c-0.1,0.1-0.1,0.1-0.2,0.2c-0.9,0.8-1.6,1.6-2,2.5c-0.3,0.7-0.6,1.7-0.9,3c-0.4,2.3-1.2,5.3-2.1,8.9
		c-0.9,3.6-2,6.9-3.1,9.8c-0.4,0.9-0.7,1.6-0.9,2c0,0,0,0,0-0.1c-0.6-1.5-1.1-3.2-1.3-5c-0.3-2.6-0.4-3.6-0.4-4
		C164.7,382.9,164.9,381,165.2,378.8z M92.3,366.2L92.3,366.2c-1.1,2.8-2,5.6-2.6,8.4c-0.2-0.6-0.4-1.3-0.6-1.9
		c-1.1-3.5-1.9-7.1-2.5-10.6c4.5-1.4,9.1-3.4,13.7-6.2C97,358.2,94.3,361.6,92.3,366.2z M86.5,327.4c1.1-6.7,3.2-13,6.3-18.8
		c2.8-5.5,7-9.5,12.3-12c2.6-1.1,5.4-1.7,8.4-1.7c3.9,0,6.9,1,9.1,3.1c2.2,2.1,3.2,4.7,3.2,8.2c0,4.4-1.3,9.1-3.8,14
		c-2.7,5.1-6.2,10.1-10.5,14.8c-4.4,4.7-9.2,8.8-14.4,12.2c-3.9,2.6-7.8,4.5-11.6,5.9c-0.2-2.8-0.3-5.8-0.4-8.7
		C85,339.4,85.5,333.7,86.5,327.4z"/>
	<path class="st5" d="M547.2,534.2l-11.6,3.9c-1.1,0.3-3.6,1.3-12.9,5.5c-5.7,2.4-10,4.9-13,7.7c-2.8,2.1-5.5,5.3-8.4,9.7
		c-3.2,4.2-5,8.9-5.3,14.1l-0.3,2.9v0.2c0,6,2.3,11.3,6.8,15.9c4.6,5.5,11.2,8.2,19.8,8.2c16.8,0,30.4-9.3,40.4-27.7
		c3.9-7.5,7.5-18.3,10.6-32.1c1.5-0.5,3.4-1,5.7-1.6l0.1,0l5.3-1.6l3.7-0.9l0.1,0c4.6-1.4,7.3-2.3,7.5-4.8c0.2-2.1-0.5-4.6-2.2-7.6
		c-0.9-1.9-2.6-2.9-4.6-2.9c-1,0-2.2,0.3-3.4,0.8l-9.9,2.4l0.6-8.5l0.9-17.6c0.2-3,0.3-8.8,0.3-17.2v-0.1l0-0.1
		c-0.4-8.8-1-15.1-1.6-19.2c-0.9-5.6-2.2-11-3.9-16c-2.5-7.1-7.9-10.8-15.4-10.8l-0.1,0c-5.8,0.3-10.3,2.9-12.9,7.5
		c-10.8,19.9-22.4,37.4-34.6,52l0,0.1c-2.8,3.5-6.1,7-9.8,10.5c-0.8-3.1-1.5-8.6-1.5-18.4l0.3-25.8c0-8.2-3.6-10.7-6.7-11.4
		c-2.8-0.7-5-1-7-1c-2.2,0-4.1,0.5-5.6,1.4l-0.2,0.1l-0.2,0.1c-2.8,2.2-4.3,5.2-4.6,9c-1.1,8.8-1.6,16-1.6,21.4
		c0,10.6,1.3,19.3,4,25.9c4.2,10.7,9.5,16.2,16,16.2c0.6,0,1.1,0,1.7-0.1l0.1,0c6-1.1,11-2.8,15.1-5l0.4-0.2l0.3-0.3
		c7.5-7.9,12.4-13.5,15-16.9c5.7-7.6,11.2-15.7,16.5-24.1c4.2-6.6,7-10.8,8.8-13.5c0.5,4.3,0.7,9.8,0.7,16.6c0,7-0.1,12.5-0.3,16.5
		C549.8,515.3,548.7,527.8,547.2,534.2z M538.5,568.6c-4.5,10-9.6,16.7-15.1,19.7l-0.2,0.1l-0.2,0.1c-0.1,0.1-0.6,0.3-1.7,0.3
		c-0.4,0-1.2-0.1-2.7-1c-2.9-2.3-4.4-5.1-4.4-8.5c0-11.6,10.2-21.2,30.4-28.6C543.9,555.4,541.9,561.3,538.5,568.6z"/>
	<path class="st5" d="M690.7,560.5c0-0.1,0-0.3,0-0.6c0-0.5,0.1-1.3,0.1-2.3c0.1-2,0.3-5,0.4-9c2.8-47.1,4.1-76.2,4.1-88.9
		c0-11.6-3.2-18.1-9.6-19.3c-1.1-0.3-2.3-0.4-3.8-0.4c-4.8,0-8.3,2.3-9.7,6.4c-0.9,2.4-2.2,8.4-3.6,33.9l-0.9,16.7
		c-0.8,15-1.6,29.7-2.2,43.4c-0.2,3.8-0.3,9.1-0.3,16.2c0,26.6,3.6,32.6,4.8,34.6c4.2,6.9,13.9,10.3,29.6,10.3
		c8.4,0,16.9-1.1,25.5-3.2c1.6-0.3,3.2-1,4.8-2c2.1-1.3,2.9-3.4,2.3-5.6c-0.2-2.2-1.4-3.9-3.5-5l-0.3-0.1l-0.3-0.1
		c-1.9-0.5-3.7-0.7-5.4-0.7h-1.4l-7.7,0.6l-9.1,0.9c-5.7,0.5-7.6,0.6-8.2,0.6l-5.5-0.2v-26C690.7,560.7,690.7,560.6,690.7,560.5z"/>
	<path class="st5" d="M746.7,585.4l-4.7,0.9c-2.9,0.5-4.7,2.5-4.7,5.5c0,2.9,1.8,5,4.7,5.5c3.1,0.7,7.6,1.1,13.6,1.3
		c2.4,0.2,6,0.3,10.9,0.3c4.7,0,8.2-0.1,10.6-0.3c6.7-0.4,10.1-1.5,11.6-3.6c0.7-1.1,0.9-2.4,0.5-3.7c-1-3.5-5.3-5.4-14.1-6.1
		c-1.1-8.5-1.9-22.4-2.5-41.3c-0.4-16.1-0.6-26.8-0.6-31.7c0-7.3,0.1-12.4,0.3-15.2l0.9-19.6c0.2-3.6,0.7-8.5,1.5-14.5l0-0.1l0.8-11
		l1.3-0.2l5.9-1.6l0.1,0c1.9-0.6,2.7-1.7,3.1-2.5c0.3-0.7,0.6-1.7,0.2-3.1c-0.4-4.3-5.3-5.1-7.4-5.3c-2.2-0.2-5.7-0.3-10.3-0.3
		c-8.6,0-16.8,0.5-24.5,1.6c-1.7,0.1-3.5,0.7-5.5,1.9c-1.6,0.7-2.6,2.3-2.6,4.3c0,2.3,1.2,4,3.2,4.7c1,0.5,2.4,0.9,4.1,1.4
		c1.9,0.5,2.8,0.6,3.4,0.7c1,0.2,2.3,0.3,4.3,0.3h0.5c-4.2,22.8-6.3,42-6.3,57.1c0,16.9,1.4,34.8,4.1,53.3l2.7,21.1
		C749.8,585.1,748.1,585.2,746.7,585.4L746.7,585.4z"/>
	<path class="st5" d="M850.8,449.5c11.6,0,15.2-1.5,17.1-2.7c1.5-1,2.3-2.4,2.3-4.1c0-1.9-0.9-3.5-2.5-4.2c-2.1-1.4-8.1-4.1-54-4.8
		c-7.6,0-12.4,0.8-15.1,2.6c-2.1,1.1-2.7,2.5-2.9,3.6c-0.2,1,0,2.5,1.4,4.1c1.2,1.7,3.2,3,5.9,3.8l0.3,0.1l9.3,1l-0.4,5l-0.6,17.7
		l-0.3,15.8c0,4.3,0.1,7.5,0.3,9.9c0,10,0.3,20.4,0.9,30.8c0.2,10.1,1.2,21.5,2.9,33.9c1.7,12.1,3.6,23.9,5.7,35
		c0.3,2.7,1.8,5,4.2,6.5l0.1,0l0.1,0c2.3,1.3,5,2,8.1,2c3.2,0,6-0.6,8.3-1.9c2.2-1.2,3.5-3.3,3.5-6.1v-0.1l-0.6-8l0-0.1
		c-1.2-10.8-2.2-22.1-2.8-33.5c-1.9-32.5-2.8-58.8-2.8-78.2c0-12,0.3-21.3,1-27.6C841.6,449.9,844.8,449.7,850.8,449.5z"/>
	<path class="st5" d="M975.1,560.7c0-0.1,0-0.1,0-0.2c0-0.1,0-0.3,0-0.6c0-0.5,0.1-1.3,0.1-2.3c0.1-2,0.3-5,0.4-9
		c2.8-47.1,4.1-76.2,4.1-88.9c0-11.6-3.2-18.1-9.6-19.3c-1.1-0.3-2.3-0.4-3.8-0.4c-4.8,0-8.3,2.3-9.7,6.4c-0.9,2.3-2.2,8.4-3.6,33.9
		l-0.9,16.7c-0.8,15.1-1.6,29.7-2.2,43.4c-0.2,3.8-0.3,9.1-0.3,16.2c0,26.6,3.6,32.6,4.8,34.6c4.2,6.9,13.9,10.3,29.6,10.3
		c8.4,0,16.9-1.1,25.5-3.2c1.6-0.3,3.2-1,4.8-2c2.1-1.3,2.9-3.4,2.3-5.6c-0.2-2.2-1.4-3.9-3.5-5l-0.3-0.1l-0.3-0.1
		c-1.9-0.5-3.7-0.7-5.4-0.7h-1.4l-7.7,0.6l-9.1,0.9c-5.7,0.5-7.6,0.6-8.2,0.6l-5.5-0.2V560.7z"/>
	<path class="st5" d="M1048.8,532.7v-0.3c0-6.4,0.1-11.2,0.3-14.3l0-0.1v-0.1c0-1.6,0.1-6,0.6-17.8l0.9-18.9l0.9-16.6
		c0.4-6,0.7-10,0.9-11.8l0-0.2v-1.9h1l10.3,0.6c3.1,0.2,5.9,0.7,8.4,1.4l0.1,0l0.1,0c1,0.2,2,0.3,3,0.3c1.5,0,2.9-0.2,4.2-0.7
		c4.8-1.4,5.5-4.3,5.5-6v-1l-0.1-0.3c-1.1-4.8-7.5-6.6-12.3-7.5c-6.2-1.2-15.4-1.8-27.2-1.8c-1,0-2,0-3.1,0l-0.1,0
		c-9.7,0.5-16,5.5-18.5,14.5l0,0.1c-1.3,5.9-2.3,15.3-2.9,28.8c-0.6,8.4-0.9,16.2-0.9,23.1l0.3,11.1l0,0.1c0.2,3.1,0.3,9.5,0.3,19
		l0,0.1c0.6,26.2,1.6,42.5,2.9,49.8c1.5,8.5,5.5,13.9,12.1,15.9l0.1,0l0.1,0c3.3,0.7,7.5,1,12.5,1c5.6,0,10-0.2,13.5-0.6
		c10.9-0.9,18.8-2.5,24-5l0.1,0l0.1,0c3.6-2,4.4-4.4,4.4-6.1v-0.5l0-0.2c-0.3-1.8-1.4-4.2-5.3-5.8l-0.4-0.1l-5.9-0.7l-5.3,1.1
		l-4.9,1.2l-10.5,1.2c-4.5,0.5-7.8,0.8-10.1,0.9c-0.1-2.3-0.1-6.9-0.1-15.6c0-9.8,0.1-15,0.2-17.7c0.8,0,1.8-0.1,3.1-0.1
		c3.5,0,6-0.1,7.7-0.3l0.1,0c2.7-0.5,4.7-0.9,6.1-1.4l0.1,0l0.1,0c2.8-1.2,5.6-2.7,5.6-5.6c0-1.3-0.6-2.5-1.8-3.7
		c-1.9-1.9-4.8-2.8-9-2.8l-11.7-0.3l-0.1-1c0-1.4,0.1-2.6,0.3-3.4L1048.8,532.7z"/>
	<path class="st5" d="M1089.7,667.4c-0.9-0.5-1.8-0.7-2.8-0.7c-1.8,0.1-3.3,1-4.4,2.6l-0.1,0.2c-4.4,7.9-10.3,14.7-17.6,20.3
		c-7.4,5.7-15.7,10.8-24.7,15.1c-9.1,4.4-18.4,8.5-27.7,12.2l-0.1,0c0,0-0.2,0.1-0.2,0.1c-2.9-2.9-5.9-5.7-9-8.5
		c-4.1-3.6-7.9-7.4-11.5-11.2c-3.5-3.6-6.4-7.6-8.6-11.7c-2.2-3.9-3.3-8.5-3.5-13.4c-0.2-4.8,1.1-9,3.8-12.8
		c2.6-3.6,6.2-5.4,11.1-5.5c2.8-0.1,5,0.5,6.7,1.8c1.8,1.4,3,3.1,3.8,5.4c0.5,1.4,0.7,2.9,0.8,4.3c0,0.8,0,1.5-0.1,2.3
		c-0.1,1.1-0.1,1.8-0.1,2.4c0.1,1.5,0.6,2.7,1.6,3.6c0.7,0.7,1.9,1.4,3.9,1.4c2.8-0.1,4.8-1.8,5.2-4.7c0.2-1.8,0.3-3.6,0.2-5.4
		c-0.2-7.1-2.9-12.9-7.9-17.3l-0.1-0.1c-6.3-4.9-12.9-7.2-19.5-7c-10,0.3-18,4-23.8,10.8c-5.8,6.8-8.5,15.1-8.2,24.8
		c0.2,6.5,1.7,12.5,4.5,17.7c1,2,2.2,3.8,3.5,5.7c-14.2,43.4-22.6,45-23.6,45c-0.2,0-0.4,0-0.5-0.1l-0.3-0.1
		c-3.9-1.3-9.2-10.9-12.6-34c-0.5-3.6-0.9-7.1-1.1-10.5c-0.6-7.9-1-14.9-1.2-20.7c-0.2-5.1-2.8-7.6-4.9-8.8
		c-0.1-0.1-0.2-0.1-0.3-0.2c0.2-0.5,0.2-1,0.2-1.5c0-0.8-0.2-1.5-0.6-2.2c-1.4-2.9-3.1-5.3-5.1-7.3c-4.3-3.8-9.5-5.7-15.5-5.5
		l-0.8,0c-9,0.5-16.5,3.4-22.1,8.6c-5.5,5.1-9.5,11.6-11.9,19.2c-1.9,5.9-2.9,12-3.1,18c-3.6,9.3-7.6,19.3-11.8,29.8
		c-4.4,10.9-9,21.3-13.7,31c-0.7,1.5-1.5,3-2.1,4.3c-2,3.5-3.2,4.4-3.5,4.5c-2-1.5-4.4-12.2-4.3-22.9c0-7.9-0.1-16.5-0.5-25.7
		c-0.4-9.9-1.7-18.2-3.7-24.7l0-0.1c-1.9-5.1-4.6-8.9-8-11.3c-3.5-2.4-7.1-3.6-10.9-3.5c-4.4,0.2-8.2,1.6-11.1,4.4
		c-2.7,2.5-4.9,6-6.7,10.6c-1.6-7-3.7-13.6-6.1-19.8l-0.1-0.1c-2.6-5.7-5.8-10.1-9.5-13c-3.9-3.1-8-4.6-12-4.5
		c-4.7,0.2-8.4,2.2-11.2,6c-2.5,3.5-4.2,8.3-5.3,15c-0.3,2.1-0.7,6.2-1.3,12.6c-0.6,6-0.9,14.3-0.9,24.7c-0.9-6.1-1.6-12-2.3-17.5
		c-0.9-7.7-1.5-13-1.7-15.9l0-0.2c-0.5-3.2-2.5-5.7-6.2-7.6c-2.4-1.1-4.8-1.6-7.1-1.5c-1,0-2,0.2-3,0.4c-2.5,0.6-6.7,2.6-6.4,10
		c0.2,2.8,0.4,5.6,0.7,8.4c-0.5,2.3-0.9,4.5-1.3,6.7c-0.4,2.1-0.8,4-1.1,5.7c-3.2,16.2-6.6,32.5-10.2,48.5c-0.6,3-1.6,7.2-2.9,12.6
		c-1.3,5.3-2.9,11.3-4.7,17.7c-1.8,6.3-3.8,12.4-5.9,18.2c-4.4,11.5-7.2,11.7-7.3,11.7c-1.7,0.1-7.8-7.6-12.8-42.1L666,771
		c-0.1-0.8-0.2-1.6-0.3-2.4c-0.9-7.2-1.6-13.8-2-19.6c-0.4-5.8-0.7-10.1-0.8-13c-0.5-15.5-0.5-31.1,0-46.5
		c0.3-8.8,0.7-17.6,1.2-26.4c1.4-0.2,2.8-0.4,4.1-0.6c10.4-1.5,20.7-4.1,30.6-7.6c24.9-8.9,38.9-23.4,41.8-43.1
		c0.3-2.1,0.1-3.8-0.5-5.3c-0.8-1.8-2.5-3-4.7-3.3c-2.5-0.4-4.2,0.5-5.2,1.3c-1.4,1.1-2.3,2.9-2.6,5.3
		c-2.1,14.6-13.9,26.2-35.1,34.4c-8,3.1-16.2,5.4-24.5,6.9c-1.1,0.2-2.1,0.4-3.2,0.5c0.3-4,0.5-7.9,0.8-11.9h0l0.2-2.1
		c0.1-0.9,0.1-1.8,0.2-2.7c0,0,0,0,0,0l1-11.7h0c0.8-9.1,1.4-16.1,1.8-21c0.1-1.6,0.2-2.7,0.1-3.3c-0.2-5.8-3.6-8-5.7-8.7
		c-1.6-0.6-3.2-0.8-4.8-0.8c-1.8,0.1-3.7,0.5-5.5,1.4c-2.6,1.2-5.9,3.8-6.7,9.7l0,0.1c-0.5,5.8-1.2,13.1-1.9,21.8
		c-0.3,3-1.1,14.4-1.6,20.7c-0.2,3.2-0.4,6.3-0.6,9.5c-1.6,0.1-3.2,0.1-4.8,0.2c-2.6,0.1-5.2,0-7.8-0.1
		c-24.2-1.8-40.5-9.9-48.4-23.9c-3-6-6.5-9-10.6-9.2h-0.1c-4.7,0-7.7,2.8-8,7.7c-0.2,6.7,4.3,13.7,13.8,21.4
		c11.4,9,29.2,14,52.8,14.8c1.8,0,3.6,0,5.4,0c2.3,0,4.6-0.1,6.9-0.2c-0.5,8.7-0.9,17.3-1.2,25.9c-0.2,6.8-0.3,13.6-0.4,20.5
		c-7,5.2-14.7,9.8-22.9,13.8c-9.1,4.4-18.4,8.5-27.7,12.2l-0.1,0c0,0-0.2,0.1-0.2,0.1c-2.9-2.9-5.9-5.7-9-8.5
		c-4.1-3.7-7.9-7.4-11.5-11.2c-3.5-3.6-6.4-7.6-8.6-11.7c-2.2-3.9-3.3-8.5-3.5-13.4c-0.2-4.8,1.1-9,3.8-12.8
		c2.6-3.6,6.2-5.4,11.1-5.5c2.8-0.1,5,0.5,6.8,1.8c1.8,1.4,3,3.1,3.8,5.4c0.5,1.4,0.7,2.9,0.8,4.3c0,0.8,0,1.5-0.1,2.3
		c-0.1,1.1-0.1,1.8-0.1,2.4c0.1,1.4,0.6,2.7,1.6,3.6c0.7,0.6,1.9,1.4,3.9,1.4c2.8-0.1,4.8-1.8,5.2-4.7c0.2-1.8,0.3-3.6,0.2-5.4
		c-0.2-7.1-2.9-12.9-7.9-17.3l-0.2-0.1c-6.3-4.9-12.9-7.3-19.5-7c-10,0.3-18,4-23.9,10.8c-5.8,6.8-8.5,15.1-8.2,24.8
		c0.1,4.2,0.8,8.2,2,11.8c-0.7,1.7-1.4,3.4-2.1,5.3c-3.2,8.3-6.9,17.2-10.9,26.5c-4,9.3-8.2,18.3-12.6,26.6
		c-4.3,8.2-8.7,15.1-13,20.5c-3.9,4.8-7.5,7.3-10.6,7.4c-1.7,0.1-3.3-1.5-4.7-4.7c-1.8-4.2-3.3-9.8-4.5-16.7c-1.2-7-2-14.7-2.5-22.8
		c-0.3-4.9-0.6-9.7-0.7-14.5c-0.1-3.2-0.2-6.4-0.2-9.5c-0.1-7.8,0-14.9,0.2-21.4c0.4-8.7,0.4-10.5,0.4-11c-0.1-1.9-0.9-5.5-5.6-7.4
		c-2-0.8-4.1-1.2-6.3-1.1c-1.2,0-2.4,0.2-3.7,0.6c-3.9,1-6.4,3.7-7,7.4l0,0.1c-0.4,3.8-0.7,8.3-0.9,13.4c-1,4.4-2,9.4-3.1,15.1
		c-1.7,8.5-3.7,17.4-5.7,26.7c-2,9.2-4.4,18-6.9,26.1c-2.5,8-5.3,14.8-8.2,20.1c-1.2,2.1-2.4,3.8-3.6,5c-0.5,0.5-1.2,0.8-2,0.8
		c-0.5,0-1.6-0.1-2.3-1.2c-2.4-3.8-4.2-9.1-5.3-15.5c-0.7-4.7-1.2-9.9-1.3-15.3c-0.1-2.2-0.1-4.4-0.1-6.6c0.1-7.9,0.4-15.8,0.9-23.4
		c0.6-7.7,1.2-14.5,1.9-20.3c0.9-9.1,1-11.1,1-11.9c-0.1-2.3-1.3-4-3.5-4.8l-5.5-2c-4-1.3-8-2.8-11.9-4.4c-1.6-0.6-3.1-1.3-4.7-2
		c0.1-0.2,0.2-0.5,0.4-0.7c1-2.1,1.8-3.7,2.3-4.7c1.3-2.6,2.5-5.3,3.7-8.1c2.7-6.2,4.9-12.3,6.5-18.2c1.7-6.1,2.3-11.6,1.7-16.5
		c-0.5-4.7-2.3-8.7-5.3-11.9c-2.9-3.1-6.4-5.3-10.5-6.6c-4-1.3-8.2-1.8-12.4-1.3c-11,1.3-19.6,5.6-25.5,12.9
		c-5.9,7.4-8.3,16.6-7.1,27.5c0.9,7.6,3,14.1,6.4,19.2c3.4,5.1,7.7,9.4,12.9,12.7c3.7,2.4,7.7,4.4,12,6.2c-2.6,6-5,11.2-6,13.6
		c-3.3,8.2-12.1,30.2-23.1,51.8c-13.4,26.4-30,52.2-43.4,51.8c-2.8,0.1-4.6-0.8-5.8-3c-1.5-2.7-2.5-7-2.8-12.8
		c-0.2-4.9,0-10.4,0.5-16.4c0,0,0-0.1,0-0.2h0l0.5-4.6c0.6-5.9,1.2-11.1,1.8-16c0.1-0.8,0.2-1.6,0.3-2.4l0.2-1.6
		c0.2-2.1,0.4-4.3,0.6-6.5l0.1-1.8c0.1-1.1,0.2-2.2,0.3-3.3c0.5-8.1,0.5-14-0.1-18.2l0-0.3c0-0.2-0.1-0.5-0.1-0.7l-0.1-0.6
		c-1.1-5.4-3.5-9.9-7.3-13.4c-5-4.6-10.8-6.9-17.3-6.7c-5.6,0.2-11.2,2.5-16.6,6.8c-4.6,3.7-8.6,9.3-11.7,16.5l-0.3,0.7
		c-2.3,5.8-3.8,12.5-4.6,19.9c-2-4.5-3.8-9.1-5.3-13.9c-0.2-0.5-0.3-1.1-0.5-1.7c0,0,0,0,0,0c0.1-0.2,0.3-0.5,0.5-0.8c0,0,0,0,0.1,0
		c0.1-0.1,0.2-0.2,0.3-0.4c0,0,0,0,0,0l0,0c1-1.4,2.4-3.3,4.2-5.8c9.7-13.3,29.5-40.4,30.4-41.7c13.9-19.9,25.9-40.2,29.1-54.9
		c0-0.1,0-0.2,0.1-0.3c0-0.1,0-0.1,0-0.2c2.7-11.7,0.3-20.8-4.3-27.5c0,0,0,0,0,0c0,0,0,0-0.1-0.1c-4.8-6.9-12-11.2-18.6-13
		c-0.8-0.2-1.5-0.5-2.3-0.6c0,0-0.1,0-0.1,0c0,0,0,0,0,0c-22.3-5.4-47.5,10.5-58.6,26.8l0,0c-2.4,3.4-4.4,6.9-6.1,10.7
		c-3.8,8.7-6.3,18.2-7.3,28.4c-1,10-0.9,20.4,0.1,30.9c1,9.8,2.6,19.5,4.7,29c0.3,1.2,0.6,2.4,0.9,3.6c0.1,0.4,0.1,0.7,0.2,1.1
		c0.8,3.9,1.7,7.7,2.7,11.5c0.5,1.7-0.1-0.1,0.7,2.4c-31.7,37.7-69.3,81.5-83.4,69c-0.8-0.7-1.6-1.4-2.3-2
		c-3.3-3.1-6.2-6.9-8.8-11.4c-2.8-5.1-5.5-12.3-8-21.3c-20-61.1-8.4-104.4-0.8-126.9c1.1-3.8,2.3-7.3,3.6-10.5c0,0,0,0,0,0
		c2.4-6,5.2-11.1,8.3-15.1c5.2-6.8,10.3-10.9,15.2-12.1c0.2,0,0.4-0.1,0.6-0.1c6.7-1.4,12.3,1.4,16.9,8.4c0.4,0.6,1.2,2,1.2,2
		l0.1,0.1c0.1,0.1,0.4,0.5,0.9,1.9l0.1,0.2c0.8,1.5,1.5,3.1,2.4,4.8c0.2,0.5,0.4,0.8,0.8,1.1c6.3,15.2,10.2,36.8,11.6,64.1
		c0.1,1.8,0.7,3.3,1.7,4.3c1.1,1.1,2.7,1.6,4.6,1.6c0.7,0,1.3-0.1,1.8-0.2c2.6-0.7,4.1-2.8,4-5.9c-2-37.2-8.6-64.4-19.6-80.9
		c-3-4.7-6.2-8.6-9.7-11.4c-9.2-7.6-20.1-10.2-32.6-7.7c-0.6,0.1-1.3,0.3-1.9,0.4c-22.6,5.7-37.2,29.9-43.4,71.9
		c-0.8,5.2-1.4,10.4-1.9,15.8c-0.1,0-0.1,0-0.2,0c-0.2,2.4-0.3,4.7-0.4,7.1c-1.1,16.6-0.9,33.9,0.7,51.7c0.1,0,0.1,0,0.2,0
		c2.3,27.2,8,49.2,17,65.9c35.1,59.7,90.5,2.9,128.5-46.2l1.7,6c0,0,0,0,0,0c0,0,0,0,0,0.1l1.1,2.2c0.6,1.3,1.3,2.6,2,3.9
		c1.9,3.5,4.3,6.7,7.1,9.3c3.2,3,7,4.4,11.5,4.2c2.7-0.1,4.8-0.8,6.4-2.2c0.1-0.1,0.2-0.2,0.3-0.3c1.6-1.4,2.4-3.3,2.3-5.5
		c-0.1-1.6-0.2-3.3-0.3-5.3c0-0.6-0.1-1.4-0.1-2.3c-0.1-12,2.3-23.2,7.1-33.2c1.4-2.6,3.1-5,5.1-7c1.7-1.7,3.6-2.6,5.7-2.6
		c0.3,0,0.6,0,0.8,0c2.3,0.1,3.8,1,4.8,2.9c0.6,1.1,1.2,2.6,1.6,4.2l0.1,0.5l0,0l0.1,0.1l-0.1,0c2.7,10.6-1,40.3-2.4,51.5
		c-0.3,2.1-0.5,3.6-0.5,4.6c-0.7,6.8-0.9,13.1-0.7,18.7c0.2,6.2,1.4,11.4,3.5,15.3c0.9,1.7,1.9,3.2,3,4.5c4.7,4.8,12.5,9.1,23.8,6.2
		c38.1-8.6,67.5-86.6,75.7-109.1l6.6-17.4c1.9,0.7,3.7,1.5,5.7,2.2c0.8,0.3,1.6,0.6,2.4,0.9c-0.2,2.3-0.5,4.8-0.8,7.6
		c-0.7,6.3-1.4,14.2-2,23.5c-0.7,9.4-0.8,20.9-0.3,34.4c0.2,4.7,0.8,9.6,2,14.5c1.2,5.1,3.1,9.8,5.5,14l0.1,0.1l0.1,0.1
		c5.9,8.3,12.1,12.5,18.4,12.2c9-0.3,17.4-9.5,24.9-27.3c5-11.8,8.7-25.1,11.2-35.6c0.3,2.6,0.6,5.3,1,7.9
		c1.2,8.5,2.9,16.3,5.2,23.2c2.3,7.1,5.4,12.9,9.1,17.2c4.1,4.7,9.2,7,15.2,6.8c6.6-0.2,12.8-3.4,18.7-9.6
		c5.4-5.7,10.6-13.1,15.5-21.9c4.8-8.7,9.3-18.1,13.4-27.9c4.1-9.7,8-19.2,11.5-28.2c0.2-0.4,0.3-0.8,0.5-1.2c1.8,2.5,3.8,5,6,7.3
		c3.9,4.1,8.1,8.2,12.4,12.1c2.3,2.1,4.6,4.3,6.8,6.5c-7.8,4-16,10-24.5,18c-10.4,9.7-15.4,21.7-14.9,35.7
		c0.4,11.3,4.2,21.2,11.5,29.4c7.4,8.3,16.8,12.3,28,12c12.1-0.4,22.8-6.2,31.8-17.2c8.9-10.9,13.2-24.1,12.7-39.5
		c-0.5-10.6-2.8-19.4-6.7-26.3c-2.9-5-5.8-9.4-8.7-13.1c5.9-2.5,11.9-5,17.8-7.7c8.7-3.8,17.2-8.5,25.5-13.8
		c0.1,4.5,0.2,9.1,0.3,13.6c0.1,3.8,0.4,9,1,15.9c0.5,6.8,1.3,14.3,2.5,22.3c0.5,3.3,1,6.8,1.8,10.9c0.3,1.8,0.5,3.5,0.8,5.2
		c1.4,8.2,3.1,15.9,5.2,22.8c2.1,7.1,4.8,13,7.8,17.4c4.6,6.7,9.8,7.9,13.4,7.8c4.7-0.2,8.9-2.3,12.6-6.4c3.2-3.5,6.1-8.1,8.6-13.7
		c2.4-5.3,4.6-11.2,6.6-17.5c1.9-6.2,3.6-12.5,5.2-18.8c1.5-6.2,2.8-12.1,3.9-17.3c0.6-2.7,1.2-5.2,1.7-7.6c2.1-9.2,4.1-18.6,6-27.9
		c0.3,1.7,0.6,3.5,0.9,5.2c0.3,2.4,0.9,5.4,1.8,9.1c0.9,3.7,2.1,7.5,3.6,11.3c1.6,3.9,3.5,7.3,5.8,10c2.7,3.2,6.1,4.8,9.9,4.7
		c2.3-0.1,4.3-0.9,5.8-2.4c1.5-1.5,2.4-3.3,2.6-5.5c0.9-12,1.4-23.5,1.4-34.2c0-1.5,0.1-3.4,0.1-5.7c0-2.4,0.1-6.2,0.3-11.6
		c0.1-5.3,0.4-11,0.8-17c0.4-5.9,1-11,1.8-15.3c0.4-2.1,0.8-3.3,1-4c0.8,0.5,1.9,1.9,3,4.5c1.9,4.2,3.6,9.3,5,15.1
		c1.4,5.9,2.6,11.6,3.5,16.7s1.4,8.7,1.7,10.5c0.3,2.6,0.8,5.7,1.6,9.2c0.8,3.7,2.2,7.1,4,10.1c2.2,3.7,5.6,5.6,9.8,5.4l0.1,0
		c2.7-0.2,4.8-1.5,6.1-3.8c1-1.7,1.6-3.7,1.9-6c0.3-1.9,0.4-3.3,0.5-4.2c0.2-2.3,0.4-5.6,0.8-9.7c0.3-4.1,0.8-8.3,1.5-12.6
		c0.6-4.2,1.6-7.8,2.7-10.7c0.9-2.4,1.7-2.9,1.9-2.9c1.6-0.1,2.6,2.5,3.1,4.7c1.1,4.5,1.9,10.6,2.1,17.9c0.1,3.8,0.2,8,0.2,12.5
		l0,2.1c0,1.6,0,3.2,0,4.9c0.1,16.7,1.7,29.1,4.8,36.9c0.8,1.9,1.7,3.6,2.7,5.1l0,0l0.1,0.1l0,0.1c0.2,0.3,0.4,0.5,0.5,0.8
		c4.4,6.4,9.1,7.7,12.3,7.5c6.5-0.2,12.9-6,19.1-17.2c0.8-1.6,1.7-3.2,2.5-4.8l0.3-0.5l1.1,0.5l0.3-0.7l-1.1-0.5c0,0,0,0,0-0.1
		l1.1,0.5l-1.1-0.5c1.7-3.5,3.5-7.2,5.2-11.1c4.9-11.1,9.4-22,13.6-32.6c0.6,2,1.4,3.9,2.3,5.8c1.8,4,4.3,7.3,7.4,9.9
		c3.3,2.8,7.4,4.1,12.1,3.9c4.3-0.2,8-1.8,10.9-4.9c2.6-2.8,4.8-6.3,6.4-10.3c1.1-2.7,2.1-5.5,2.9-8.3c0.1,0.3,0.1,0.7,0.2,1
		c0.3,1.4,0.6,2.9,0.9,4.5c5.5,25.6,14.4,38.4,26.5,38c0,0,0,0,0,0c3-0.1,6.2-1.1,9.5-2.9c1.4-0.7,2.8-1.7,4.1-2.7l0.1-0.1l4.5-4.6
		c3.5-4.2,6.9-9.3,9.9-15.3c3.4-6.7,6.6-14,9.4-21.5c0.6-1.5,1.1-3,1.7-4.5c3.5,3.6,7.1,7.1,10.9,10.5c2.3,2.1,4.6,4.3,6.9,6.5
		c-7.8,4-16,10-24.5,18c-10.4,9.7-15.4,21.7-14.9,35.7c0.4,11.3,4.3,21.2,11.5,29.4c7.4,8.3,16.8,12.3,28,12
		c12.1-0.4,22.8-6.2,31.8-17.2c8.9-10.9,13.2-24.1,12.7-39.5c-0.5-10.6-2.8-19.4-6.7-26.3c-2.9-5-5.8-9.4-8.8-13.1
		c5.9-2.4,11.9-5,17.9-7.7c8.7-3.9,17.4-8.6,25.7-13.9c8.5-5.4,15.9-12.1,22.1-19.9c2.4-3,4.5-6.2,6.4-9.6c0.6-1,0.9-2,0.8-2.9
		C1092.6,670.8,1092.2,668.9,1089.7,667.4z M272,606.5c3.5,0.5,6.8,2.2,9.2,4.9c0,0,0,0,0,0l0,0c0.2,0.2,0.3,0.3,0.5,0.5
		c0.8,0.9,1.5,1.8,2.1,2.7c10.1,17.2-13.5,54.9-35.8,84.5c-1.9,2.5-4,5-6.1,7.7c-1.4,1.8-3.3,4.1-5.5,6.9c-2,2.4-3.9,4.8-5.9,7.1
		C220.1,687.2,215.9,598.3,272,606.5z M386.1,679.8c-1,2.3-2.3,5.1-3.7,8.2c0,0,0,0,0,0c-0.3,0.7-0.7,1.4-1,2c-3-1.7-5.8-3.7-8.4-6
		c-3.2-2.8-5.9-6.2-8-10.2c-2.2-3.9-3.6-8.6-4.2-14c-0.5-4.1-0.1-8.2,1-12.1c1.1-3.8,3.1-7.1,5.8-9.8c2.7-2.6,6.1-4.1,10.4-4.6
		c4.1-0.5,7.6,0.3,10.7,2.5c3,2.1,4.7,5.2,5.2,9.6c0.7,6.2-0.4,13.6-3.2,22c-0.8,2.6-1.8,5.1-2.7,7.6
		C387.8,675.8,387.1,677.5,386.1,679.8z M583.2,815.9c-4.2,7-9.9,10.6-17.4,10.8c-7.9,0.3-13.5-2.4-17.2-8.1
		c-3.9-6.1-6-13.6-6.3-22.3c-0.3-10.2,2.7-18.5,9.3-25.6c6.4-6.8,14.2-12.5,23.5-17.1c2.9,3.4,5.8,7.5,8.8,12.2
		c3.2,5.2,5,12.8,5.4,22.6C589.6,799.4,587.6,808.6,583.2,815.9z M906,672.2c-1.2,1.2-2.1,2.5-2.7,3.9c-0.4,1.2-0.8,2.8-1.2,5.1
		c-0.6,4.5-1.7,10.4-3.1,17.7c-1.4,7.2-3.1,13.8-5,19.7c-1.7,5.3-3.1,7-3.7,7.5c-1-0.4-1.9-1.5-2.6-3.4c-1.3-3.2-2.3-6.7-2.9-10.5
		c-0.6-3.9-0.9-6.7-1-8.2c-0.1-3.2,0.1-7,0.5-11.5c0.4-4.4,1.3-8.8,2.7-13c1.3-4,3.2-7.4,5.6-10.1c2.2-2.4,5-3.7,8.6-3.8
		c2.2-0.1,4,0.3,5.2,1.3c1,0.7,1.9,1.8,2.7,3.1C908,670.5,906.9,671.2,906,672.2z M1006.5,797.1c-4.2,7-9.9,10.6-17.4,10.8
		c-7.9,0.3-13.5-2.4-17.2-8.1c-3.9-6.1-6-13.6-6.3-22.3c-0.3-10.2,2.7-18.5,9.3-25.6c6.3-6.8,14.2-12.5,23.5-17.1
		c2.9,3.4,5.8,7.5,8.8,12.2c3.2,5.2,5,12.8,5.4,22.6C1012.9,780.5,1010.9,789.7,1006.5,797.1z"/>
	<path class="st5" d="M338.9,510.8c10.4-8.5,17.6-17.9,21.4-28c1.4-3.5,2.1-7,2.1-10.5c0-9.6-5.9-18.3-17.4-25.8l-0.1,0
		c-12.8-7.8-27.8-11.8-44.7-11.8c-3.7,0-6.6,0.1-8.6,0.3l-5.5-0.3h-7c-2.3,0-4.6,0.8-6.7,2.4c-2.8,1.7-4.4,4.4-4.8,7.8
		c-3.8,21-5.7,46.1-5.7,74.6c0,27.3,2,51.5,6,72.2c1.6,0.1,3.2,0.3,4.8,0.6l0-0.1l2.1,0.6l0.1,0c0.8,0.2,1.6,0.4,2.4,0.7
		c4.3,1.2,8.3,3.2,11.9,5.8l0.8-0.8c0.8-0.8,1.2-1.9,1.2-3.4v-1.8l-0.3-2.7l0-0.3l-0.1-0.3c0-0.1-0.2-0.7-0.2-2.8v-0.2l-0.6-4.8
		c-0.6-9.3-0.9-17.2-0.9-23.6c0-3.8,0.1-7,0.3-9.6c4.4,3.1,13.5,9.3,32.5,21.9l0.1,0c6.8,4.3,12.8,6.4,18.3,6.4h0.2l3-0.3
		c3.4-0.3,5.7-2.3,6.4-5.5l0.4-1.6l-0.6-0.6v-0.1l-0.9-1.7l-1.9-1.9h-0.3l-1.8-1.4l-0.3-0.1c-1.4-0.7-1.7-1-1.7-1l-0.2-0.2l-4-2.6
		l-4.9-3.6l-0.2-0.1c-0.3-0.2-1.4-0.9-5.9-4.2c-12.7-9.1-21.4-15.4-25-18c2-0.9,4.8-2.3,8.6-4.3
		C319.2,525.8,328.6,519.3,338.9,510.8z M290,518c0-0.9,0-1.9,0-3.2c0-8.6,0.2-16.3,0.6-23.1l0-0.1c0.6-16.7,1.6-30.7,3.1-41.5
		c1.4-0.1,3.5-0.2,6.8-0.2c3.4,0,6.3,0.1,8.6,0.3c6.9,0.6,12.6,2.7,16.9,6.2c4.6,3.9,8.1,8.2,10.2,12.7c0.5,1.1,0.7,2.4,0.7,3.8
		c0,3.4-1.7,7.7-5.1,12.8c-5,7.4-14.2,15.3-27.4,23.7C299.6,512.3,294.8,515.2,290,518z"/>
	<path class="st5" d="M219.8,532.7v-0.3c0-6.4,0.1-11.2,0.3-14.3l0-0.1v-0.1c0-1.6,0.1-6,0.6-17.8l0.9-18.9l0.9-16.6
		c0.4-6,0.7-10,0.9-11.8l0-0.2v-1.9h1l10.3,0.6c3.1,0.2,5.9,0.7,8.4,1.4l0.1,0l0.1,0c1,0.2,2,0.3,3,0.3c1.5,0,2.9-0.2,4.2-0.7
		c4.8-1.4,5.5-4.3,5.5-6v-1l-0.1-0.3c-1.1-4.8-7.5-6.6-12.3-7.5c-6.2-1.2-15.4-1.8-27.2-1.8c-1,0-2,0-3.1,0l-0.1,0
		c-9.7,0.5-16,5.5-18.5,14.5l0,0.1c-1.3,5.9-2.3,15.3-2.9,28.8c-0.6,8.4-0.9,16.2-0.9,23.1l0.3,11.1l0,0.1c0.2,3.1,0.3,9.5,0.3,19
		l0,0.1c0.6,26.2,1.6,42.5,2.9,49.8c1.5,8.5,5.5,13.9,12.1,15.9l0.1,0l0.1,0c3.3,0.7,7.5,1,12.5,1c5.6,0,10-0.2,13.5-0.6
		c2.2-0.2,4.3-0.4,6.3-0.6c6.4-3.3,13.4-5.6,20.4-6.4c1.4-1.5,1.7-3,1.7-4.1v-0.5l0-0.2c-0.3-1.8-1.4-4.2-5.3-5.8l-0.4-0.1l-5.9-0.7
		l-5.3,1.1l-4.9,1.2l-10.5,1.2c-4.5,0.5-7.8,0.8-10.1,0.9c-0.1-2.3-0.1-6.9-0.1-15.6c0-9.8,0.1-15,0.2-17.7c0.8,0,1.8-0.1,3.1-0.1
		c3.5,0,6-0.1,7.7-0.3l0.1,0c2.7-0.5,4.7-0.9,6.1-1.4l0.1,0l0.1,0c2.8-1.2,5.6-2.7,5.6-5.6c0-1.3-0.6-2.5-1.8-3.7
		c-1.9-1.9-4.8-2.8-9-2.8l-11.7-0.3l-0.1-1c0-1.4,0.1-2.6,0.3-3.4L219.8,532.7z"/>
	<path class="st5" d="M944.1,437.6c-0.4,4.1-1.1,7.7-2.3,10.9c2.3-0.5,3.6-1.1,4.4-1.7c1.5-1,2.3-2.4,2.3-4.1c0-1.9-0.9-3.5-2.5-4.2
		C945.5,438.3,945,438,944.1,437.6z"/>
	<path class="st5" d="M923.8,448.8c2.1,0,3.3-0.7,4.3-2.6c1.2-2.5,2-6.2,2.2-10.9c-3.9-0.4-8.8-0.7-15.1-0.9
		C917.4,443.5,920.5,448.8,923.8,448.8z"/>
	<path class="st5" d="M889.9,471.6l-0.3,15.8c0,4.3,0.1,7.5,0.3,9.9c0,10,0.3,20.4,0.9,30.8c0.2,10.1,1.2,21.5,2.9,33.9
		c1.7,12.1,3.6,23.9,5.7,35c0.3,2.7,1.8,5,4.2,6.5l0.1,0l0.1,0c2.3,1.3,5,2,8.1,2c3.2,0,6-0.6,8.3-1.9c2.2-1.2,3.5-3.3,3.5-6.1v-0.1
		l-0.6-8l0-0.1c-1.2-10.8-2.2-22-2.8-33.5c-1.9-32.5-2.8-58.8-2.8-78.2c0-6.1,0.1-11.5,0.3-16.2c-8.7-2.7-15.6-11.1-20.6-25.2
		c-0.3-0.8-0.6-1.7-0.8-2.5c-1.4,0-2.7,0-4.2-0.1c-7.6,0-12.4,0.8-15.1,2.6c-2.1,1.1-2.7,2.5-2.9,3.6c-0.2,1,0,2.5,1.4,4.1
		c1.2,1.7,3.2,3,5.9,3.8l0.3,0.1l9.3,1l-0.4,5L889.9,471.6z"/>
	<path class="st5" d="M366,524.6c0,28.1,2.1,53,6.3,74c0.3,2.6,1.9,6.1,7.8,7.8l0.1,0c1.9,0.5,3.4,0.7,4.5,0.7c1.9,0,4-0.5,6.1-1.6
		l0.1,0c0.9-0.1,1.6-0.5,2.3-1.1l0.9-0.9c0.8-0.8,1.2-1.9,1.2-3.4v-1.8l-0.3-2.7l0-0.3l-0.1-0.3c0-0.1-0.2-0.7-0.2-2.8V592l-0.6-4.8
		c-0.6-9.3-0.9-17.2-0.9-23.6c0-3.8,0.1-7,0.3-9.6c4.4,3.1,13.5,9.3,32.5,21.9l0.1,0c6.8,4.3,12.8,6.4,18.3,6.4h0.2l3-0.3
		c3.4-0.3,5.7-2.3,6.4-5.5l0.4-1.6l-0.6-0.6v-0.1l-0.8-1.7l-1.9-1.9h-0.3l-1.8-1.4l-0.3-0.1c-1.4-0.7-1.7-1-1.7-1l-0.2-0.2l-4-2.6
		l-4.9-3.6l-0.2-0.1c-0.3-0.2-1.5-1-5.9-4.2c-13-9.4-21.5-15.5-25-18c2-0.9,4.8-2.3,8.6-4.3c8.1-4.3,17.5-10.7,27.9-19.2
		c10.4-8.5,17.6-17.9,21.4-28c1.4-3.5,2.1-7,2.1-10.5c0-9.6-5.9-18.3-17.4-25.8l-0.1,0c-5.9-3.6-12.2-6.4-19-8.3
		c-4.6,1.6-10,2.4-16.1,2.4c-4.5,0-8.8-0.5-12.7-1.6c-3.3-0.9-6.1-2.2-8.5-4.1l-2.4-0.1h-7c-2.3,0-4.6,0.8-6.7,2.4
		c-2.8,1.7-4.4,4.4-4.8,7.8C367.9,471,366,496.1,366,524.6z M394.7,496.8L394.7,496.8c0.6-16.8,1.6-30.8,3.1-41.6
		c1.4-0.1,3.5-0.2,6.8-0.2c3.4,0,6.3,0.1,8.6,0.3c6.9,0.6,12.6,2.7,16.9,6.2c4.6,3.9,8.1,8.2,10.2,12.8c0.5,1.1,0.7,2.4,0.7,3.8
		c0,3.4-1.7,7.7-5.1,12.8c-5,7.4-14.2,15.3-27.4,23.7c-4.7,2.9-9.5,5.8-14.3,8.6c0-0.9,0-1.9,0-3.2
		C394.1,511.3,394.3,503.6,394.7,496.8z"/>
	<path class="st5" d="M80.4,595.6c1.2,3.2,4.2,7,11.6,7c1.4,0,2.6-0.1,3.7-0.3c2.4-2.6,4.9-4.8,7.5-6.7c0-1.1-0.2-2.8-0.7-5.7l0-0.1
		c-0.4-2-1.1-8.4-2.2-19.2c-0.8-8.4-1.2-20.1-1.2-34.6c0.2-17.2,0.5-30.8,0.8-40.7c1.5,4,3.3,8.3,5.4,12.9
		c3.4,8.5,7.5,16.4,12.1,23.6c1.4,2.6,4.3,5.6,10.1,5.6c5.8,0,8.7-2.8,10.1-5.2c2.6-4.2,6.8-13.4,12.8-28.1c1.6-4,3-7.5,4.3-10.7
		c0,0.8,0,1.7,0,2.6l0.6,33.4c0.6,19.5,1.9,41.1,3.8,64.3l0,0.1l0,0.1c0.4,2,1.8,5.5,7.2,6.8c1.5,0.5,2.9,0.7,4.3,0.7
		c2,0,3.8-0.4,5.4-1.1c3.8-1,6-3.9,6.1-8.1c0.2-3.1,0.3-9,0.3-17.7c0-15-0.4-32.5-1.3-52c-1.5-34.3-3.4-58-5.7-70.2
		c-0.9-5.2-4.5-8.1-10.2-8.1c-0.6,0-1.6,0.1-4.4,0.6c-1.3,0.1-2.3,0.4-3.1,1.2l-1.1,1.1l-1.2,1.6l-1.1,2.3l-1,2.6l-1.6,3.5l-1.6,4.5
		l-6,15.3l-15.9,38.7l-3.7-10.3l-11.4-30c-3.8-9.4-7.9-18.6-12.3-27.2c-1-2.5-3-4.2-5.9-4.8l-0.1,0l-0.1,0c-3.5-0.4-5.9-0.7-7.3-0.7
		c-9.5,0-12.6,4.8-13.6,8.9l0,0.1c-1.7,8.6-2.6,22.6-2.6,42.7c0,4.9,0.2,14.4,0.6,28.1C73.1,559.6,75.8,583.5,80.4,595.6z"/>
</g>
</svg>
