<?xml version="1.0" encoding="utf-8"?>
<!-- Generator: Adobe Illustrator 23.0.3, SVG Export Plug-In . SVG Version: 6.00 Build 0)  -->
<svg version="1.1" id="Layer_1" xmlns="http://www.w3.org/2000/svg" xmlns:xlink="http://www.w3.org/1999/xlink" x="0px" y="0px"
	 viewBox="0 0 1133.9 1133.9" style="enable-background:new 0 0 1133.9 1133.9;" xml:space="preserve">
<style type="text/css">
	.st0{fill:#1E2121;}
	.st1{fill:#A81F26;}
	.st2{fill:#F2F1F2;}
	.st3{fill:#DD353A;}
	.st4{fill:#CFCFCE;}
	.st5{fill:#1D2121;}
	.st6{fill:none;}
	.st7{fill:#AA1F23;}
	.st8{fill:#FDFEFE;}
	.st9{fill:#EE742C;}
	.st10{fill:#BA5234;}
	.st11{fill:#ED1C24;}
	.st12{fill:#C42C3A;}
	.st13{fill:#058743;}
	.st14{fill:#0F4D70;}
	.st15{fill-rule:evenodd;clip-rule:evenodd;fill:#C42C3A;}
	.st16{fill-rule:evenodd;clip-rule:evenodd;fill:#1E2121;}
	.st17{fill:#E8E8E8;}
	.st18{fill:#186634;}
	.st19{fill:#BF2730;}
	.st20{fill:#B47A48;}
	.st21{fill:#3E1E14;}
	.st22{fill:#DBAD5D;}
	.st23{fill:#B84947;}
	.st24{fill:#C3976E;}
	.st25{fill:#9D2023;}
	.st26{fill:#3C2517;}
	.st27{fill:#4A3A31;}
	.st28{fill:#EDAD4F;}
	.st29{fill:#F8C018;}
</style>
<g>
	<path class="st0" d="M491.4,145.2c0.2,0.8,0.6,1.6,1.2,2.2l34.5,36.1l0,0l0.3,0.4l-6.8,50c-0.2,1.8,0.5,3.4,1.9,4.5
		c1.4,1.1,3.2,1.2,4.9,0.4l45.5-21.9l45.5,21.9c1.6,0.8,3.4,0.6,4.9-0.4c1.5-1.1,2.2-2.7,1.9-4.5l-6.8-50l34.9-36.5
		c1.2-1.3,1.6-3.1,1.1-4.8c-0.6-1.7-1.9-2.9-3.7-3.2l-49.7-9L577.2,86c-0.9-1.6-2.4-2.5-4.2-2.5c-1.8,0-3.3,0.9-4.2,2.5l-23.9,44.4
		l-49.7,9c-1.8,0.3-3.1,1.5-3.7,3.2c0,0,0,0.1,0,0.1l0,0c-0.1,0.5-0.1,0.9-0.1,1.4C491.4,144.5,491.3,144.9,491.4,145.2z"/>
	<path class="st0" d="M295,483c0.1,0.4,0.3,0.7,0.6,1l16,16.7l0,0l0.2,0.2l-3.1,23.1c-0.1,0.8,0.2,1.6,0.9,2.1
		c0.7,0.5,1.5,0.6,2.3,0.2l21-10.1l21,10.1c0.8,0.4,1.6,0.3,2.3-0.2c0.7-0.5,1-1.3,0.9-2.1l-3.1-23.1l16.1-16.9
		c0.6-0.6,0.8-1.4,0.5-2.2c-0.3-0.8-0.9-1.3-1.7-1.5l-23-4.2l-11.1-20.6c-0.4-0.7-1.1-1.2-1.9-1.2c-0.8,0-1.5,0.4-1.9,1.2
		l-11.1,20.6l-23,4.2c-0.8,0.1-1.4,0.7-1.7,1.5c0,0,0,0,0,0l0,0c-0.1,0.2,0,0.4,0,0.7C295,482.7,295,482.9,295,483z"/>
	<path class="st0" d="M779.1,483c0.1,0.4,0.3,0.7,0.6,1l16,16.7l0,0l0.2,0.2l-3.1,23.1c-0.1,0.8,0.2,1.6,0.9,2.1
		c0.7,0.5,1.5,0.6,2.3,0.2l21-10.1l21,10.1c0.8,0.4,1.6,0.3,2.3-0.2c0.7-0.5,1-1.3,0.9-2.1l-3.1-23.1L854,484
		c0.6-0.6,0.8-1.4,0.5-2.2c-0.3-0.8-0.9-1.3-1.7-1.5l-23-4.2l-11.1-20.6c-0.4-0.7-1.1-1.2-1.9-1.2c-0.8,0-1.5,0.4-1.9,1.2
		l-11.1,20.6l-23,4.2c-0.8,0.1-1.4,0.7-1.7,1.5c0,0,0,0,0,0l0,0c-0.1,0.2,0,0.4,0,0.7C779.1,482.7,779,482.9,779.1,483z"/>
	<path class="st0" d="M908.1,789.3c0.1,0.4,0.3,0.7,0.6,1l16,16.7l0,0l0.2,0.2l-3.1,23.1c-0.1,0.8,0.2,1.6,0.9,2.1
		c0.7,0.5,1.5,0.6,2.3,0.2l21-10.1l21,10.1c0.8,0.4,1.6,0.3,2.3-0.2c0.7-0.5,1-1.3,0.9-2.1l-3.1-23.1l16.1-16.9
		c0.6-0.6,0.8-1.4,0.5-2.2c-0.3-0.8-0.9-1.3-1.7-1.5l-23-4.2l-11.1-20.6c-0.4-0.7-1.1-1.2-1.9-1.2c-0.8,0-1.5,0.4-1.9,1.2
		l-11.1,20.6l-23,4.2c-0.8,0.1-1.4,0.7-1.7,1.5c0,0,0,0,0,0l0,0c-0.1,0.2,0,0.4,0,0.7C908.1,789,908,789.1,908.1,789.3z"/>
	<path class="st0" d="M162.2,789.3c0.1,0.4,0.3,0.7,0.6,1l16,16.7l0,0l0.2,0.2l-3.1,23.1c-0.1,0.8,0.2,1.6,0.9,2.1
		c0.7,0.5,1.5,0.6,2.3,0.2l21-10.1l21,10.1c0.8,0.4,1.6,0.3,2.3-0.2c0.7-0.5,1-1.3,0.9-2.1l-3.1-23.1l16.1-16.9
		c0.6-0.6,0.8-1.4,0.5-2.2c-0.3-0.8-0.9-1.3-1.7-1.5l-23-4.2l-11.1-20.6c-0.4-0.7-1.1-1.2-1.9-1.2c-0.8,0-1.5,0.4-1.9,1.2L187,782.4
		l-23,4.2c-0.8,0.1-1.4,0.7-1.7,1.5c0,0,0,0,0,0l0,0c-0.1,0.2,0,0.4,0,0.7C162.3,789,162.2,789.1,162.2,789.3z"/>
	<path class="st0" d="M430.6,378.6c6.9,3.6,15,5.4,24.1,5.4c3.2,0,6.2-0.3,8.8-0.7c10.2-1.9,18.1-6.7,23.3-14.3
		c5.1-7.5,8.7-18.3,10.7-32c0.6-5.8,0.9-13.7,0.9-23.4c0-3.9,0-8-0.1-12.2c0,0,0,0,0,0c0-1.8-0.1-3.7-0.1-5.6c0-0.6,0-1.2,0-1.8
		c0,0,0,0,0,0c-0.1-4-0.2-8.2-0.4-12.5c-0.5-12.6-0.8-20.4-1.1-23.7l13.3-0.4V246l-1.3,0c-7.9-0.1-22.9-0.2-44.5-0.2h-1.3V258
		l13.8,0.2c2,13.6,3.2,26.8,3.6,39.2c0,0.8,0,1.6,0,2.3c0,17.2-0.5,30.4-1.4,39.3c-0.9,8.7-3.2,16-6.9,21.6c-3.7,5.5-9.5,8.4-17.9,9
		c-0.2,0-0.5,0-0.8,0c-2.3,0-4.9-0.9-7.8-2.7c-3-1.8-5.4-4.3-7.2-7.5c2.2-2.6,3.3-5.4,3.3-8.4c0-3.2-1.3-5.9-3.8-8
		c-2.5-2.1-5.5-3.1-8.9-3.1c-0.7,0-1.7,0.1-3.4,0.4c-7.3,1.6-11,5.5-11,11.5c0,2.1,0.6,5,1.7,8.9C418.8,369,423.6,374.9,430.6,378.6
		z"/>
	<path class="st0" d="M594.9,262.5c-7.3-4.7-16.1-7.1-26.4-7.1c-11.2,0-21.2,2.9-29.7,8.6c-8.5,5.7-15,13.5-19.5,23.2
		c-4.5,9.7-6.7,20.6-6.7,32.3c0,2.6,0.1,4.6,0.2,5.9c1.1,16.7,6.1,30,15,39.5c8.9,9.6,20.7,14.4,35.2,14.4c2.7,0,5.5-0.2,8.1-0.6
		c9.1-1.1,17.2-4.9,24.2-11.1c7-6.2,12.4-14.3,16.1-24.1c3.7-9.7,5.6-20.4,5.6-31.6c0-11-1.9-20.9-5.6-29.4
		C607.7,274,602.1,267.2,594.9,262.5z M541.4,342.9c-2.6-6.9-3.9-14.9-3.9-23.8c0-8.6,1.4-16.8,4.3-24.2c2.8-7.4,6.9-13.3,12.2-17.7
		c5.2-4.3,11.6-6.5,18.8-6.5c6.8,0,12.7,1.9,17.5,5.7c4.9,3.8,8.6,9,11.1,15.4c2.5,6.5,3.8,13.6,3.8,21.1c0,8.1-1.6,16.3-4.9,24.3
		c-3.2,7.9-7.8,14.5-13.7,19.5c-5.8,5-12.4,7.5-19.8,7.5c-5.5,0-10.5-1.8-14.8-5.5C547.5,355.1,544,349.7,541.4,342.9z"/>
	<path class="st0" d="M634.6,262.1l3.5-2.3l-5-5.9l-15.6,11.2l4,6.2l3.4-2.5l21.8,37.9c4.8,8.4,10.3,18.1,16.9,29.8
		c0.1,2.3,0.2,7.9,0.2,16.7c0,7.8,0,13.2-0.1,15.9l-7.3,0.2v10.8h33v-10.9l-6.9,0.2v-34.3c7.5-11.2,17-26,28.3-44
		c4.2-6.9,8.4-13.6,12.5-20.1l5.2,3l3.5-7.1l-27.1-15.8l-3.6,6.6l5.1,3.6l-6.3,11c-5.8,10.5-11.2,19.8-16,27.6
		c-4.5,7.3-9.7,14.8-15.4,22.3c-3.6-6.9-9.6-17.5-17.7-31.6C642.6,276.3,637.2,266.8,634.6,262.1z"/>
	<path class="st0" d="M387.4,524.3h52.4v-24.1h-8.6v12.5h-26.7c0.6-37.9,0.9-74.8,0.9-109.6h9.1v-8.5h-31.5v8.5h5.6L387.4,524.3z"/>
	<path class="st0" d="M468,410.6c-8.5,5.7-15,13.5-19.5,23.2c-4.5,9.7-6.7,20.6-6.7,32.3c0,2.6,0.1,4.6,0.2,5.9
		c1.1,16.7,6.1,30,15,39.5c8.9,9.6,20.7,14.4,35.2,14.4c2.7,0,5.5-0.2,8.1-0.6c9.1-1.1,17.2-4.9,24.2-11.1
		c7-6.2,12.4-14.3,16.1-24.1c3.7-9.7,5.6-20.4,5.6-31.6c0-11-1.9-20.9-5.6-29.4c-3.7-8.5-9.3-15.3-16.6-20
		c-7.3-4.7-16.1-7.1-26.4-7.1C486.5,402,476.5,404.9,468,410.6z M470.6,489.5c-2.6-6.9-3.9-14.9-3.9-23.8c0-8.6,1.4-16.8,4.3-24.2
		c2.8-7.4,6.9-13.3,12.2-17.7c5.2-4.3,11.6-6.5,18.8-6.5c6.8,0,12.7,1.9,17.5,5.7c4.9,3.8,8.6,9,11.1,15.4
		c2.5,6.5,3.8,13.6,3.8,21.1c0,8.1-1.6,16.3-4.9,24.3c-3.2,7.9-7.8,14.5-13.7,19.5c-5.8,5-12.4,7.5-19.8,7.5
		c-5.5,0-10.5-1.8-14.8-5.5C476.8,501.7,473.2,496.4,470.6,489.5z"/>
	<path class="st0" d="M608,501.4c-6-17.2-13.3-39.9-21.6-67.7c-2.7-9.1-4.4-15-5.3-17.6l5.7-2.4l-3.8-10.3l-34.3,13.1l3.7,11.9
		l8.4-3.6c8.2,23.8,19.6,56.1,34,95.9l0.3,0.9h17.5l0.3-0.9c6.6-18.5,14-38.9,22.1-60.6l14.6-40l4.6,2.2l3-10.1l-21.7-8.2l-2.9,9.7
		l5.8,2.7l-11.6,32.8C618.1,473.5,611.8,491,608,501.4z"/>
	<path class="st0" d="M704.1,407.8c-10.3,0-19.2,2.7-26.6,8c-7.4,5.3-13,12.4-16.8,21.1c-3.7,8.7-5.6,18.4-5.6,28.8
		c0,1.5,0.1,4,0.4,7.4c1.1,12.7,4.5,23.9,10.1,33.2c5.6,9.3,12.6,16.5,20.9,21.4c8.3,4.9,16.9,7.4,25.5,7.4c9.5,0,18-3,25.5-8.8
		c7.3-5.7,12.4-14,15.3-24.7l10.5-1.1l-0.7-11.9l-39.3,2.9l0.7,12.3L737,503c-2,6.8-5,12-8.8,15.5c-4.1,3.7-8.9,5.6-14.1,5.6
		c-5.4,0-10.8-1.9-16.1-5.6c-5.4-3.7-9.9-9-13.5-15.7c-3.4-6.3-5.4-13.6-5.9-21.6l78.7-7.3l-0.1-1.3c-0.3-5.3-0.4-6.8-0.4-7.2l0-0.1
		c-0.5-5.4-0.5-6.4-0.5-6.6v-0.1l0-0.1c-1.1-9.2-4-17.8-8.7-25.5c-4.7-7.7-10.9-13.9-18.4-18.5C721.7,410.2,713.2,407.8,704.1,407.8
		z M677.5,464.3c-0.2-2-0.2-3.6-0.2-4.7c0-6.1,1.1-11.9,3.3-17.4c2.2-5.4,5.3-9.9,9.1-13.3c3.8-3.4,7.9-5.2,12.5-5.6
		c1.2-0.1,3-0.2,5.3-0.2c11.5,0,19.9,3.1,25,9.3c5,6.1,8.5,14.8,10.3,26.1L677.5,464.3z"/>
	<path class="st0" d="M337.2,549.8l0.2-6.3l-28.6-0.2l-0.2,11.4l10.2,0.2c0.2,16.6,0.4,54.2,0.5,111.7h-8.4l0.2,11.3l35,0.6
		l-0.2-11.8h-8.1v-14c7.2,2.6,14.5,3.9,21.9,3.9c9.9,0,18.9-2.5,26.8-7.5c7.9-5,14.1-12.2,18.5-21.4c4.4-9.8,6.6-19.8,6.6-29.6
		c0-8.7-1.8-16.9-5.2-24.2c-3.5-7.4-8.5-13.5-15-18.2c-4.6-3.2-9.9-5.7-15.7-7.4c-5.8-1.7-11.9-2.6-17.9-2.6
		C350.2,545.7,343.3,547.1,337.2,549.8z M387.9,576c2.8,6.1,4.2,12.7,4.2,19.6c0,9-1.4,17.3-4.3,24.7c-2.8,7.4-7,13.3-12.4,17.6
		c-5.4,4.3-11.8,6.4-19,6.4c-5.4,0-11.3-1.3-17.7-3.9c0.1-7.3,0.2-22.3,0.2-44.7c0-19.5-0.1-31.3-0.2-35.3c6.8-3,13.1-4.6,19-4.6
		c6.8,0,12.9,1.8,18.1,5.5C381.1,565.1,385.1,570,387.9,576z"/>
	<path class="st0" d="M514.7,639.3l10.5-1.1l-0.7-11.9l-39.3,2.9l0.7,12.3l13.1-0.9c-2,6.8-5,12-8.8,15.5c-4.1,3.7-8.9,5.6-14.1,5.6
		c-5.4,0-10.8-1.9-16.1-5.6c-5.4-3.7-9.9-9-13.5-15.7c-3.4-6.3-5.4-13.6-5.9-21.6l78.7-7.3l-0.1-1.3c-0.3-5.3-0.4-6.8-0.4-7.2l0-0.1
		c-0.5-5.4-0.5-6.4-0.5-6.6v-0.1l0-0.1c-1.1-9.2-4-17.8-8.7-25.5c-4.7-7.7-10.9-13.9-18.4-18.5c-7.6-4.6-16-6.9-25.2-6.9
		c-10.3,0-19.2,2.7-26.6,8c-7.4,5.3-13,12.4-16.8,21.1c-3.7,8.7-5.6,18.4-5.6,28.8c0,1.5,0.1,4,0.4,7.4c1.1,12.7,4.5,23.9,10.1,33.2
		c5.6,9.3,12.6,16.5,20.9,21.4c8.3,4.9,16.9,7.4,25.5,7.4c9.5,0,18-3,25.5-8.8C506.7,658.3,511.9,650,514.7,639.3z M451.8,566.6
		c3.8-3.4,7.9-5.2,12.5-5.6c1.2-0.1,3-0.2,5.3-0.2c11.5,0,19.9,3.1,25,9.3c5,6.1,8.5,14.8,10.3,26.1l-65.3,5.7
		c-0.2-2-0.2-3.6-0.2-4.7c0-6.1,1.1-11.9,3.3-17.4C444.9,574.5,448,570,451.8,566.6z"/>
	<path class="st0" d="M609,657.2h26.6l0.2-10.1l-8.2,0.2l-10.2-29.6c-11.1-32.9-21.1-61.4-29.8-84.6l-0.3-0.8l-0.8-0.1
		c-2.8-0.4-5.3-0.6-7.5-0.6c0,0-6.9,0.2-6.9,0.2l-0.3,0.8c-11.8,32.4-24.9,69.7-38.9,110.9l-9.4,0.4l-0.2,9.9l32.6-0.4v-10.3h-3.3
		l5.1-15.5l12.9-0.3c7.6-0.2,19.4-0.5,36.1-0.7c2.9,7.7,5.4,14.6,7.4,20.6l-4.9,0.2L609,657.2z M602.7,611.4
		c-18.2,0-31.3,0.1-39.1,0.3c6.2-17.9,12.9-36.9,19.9-56.6c2.4,6.5,5,13.9,7.7,21.9c3.2,9.5,5.4,16.1,6.6,19.6
		C598.3,597.9,600,602.9,602.7,611.4z"/>
	<path class="st0" d="M659.2,663.7c6.7,4.1,14.3,6.2,22.6,6.2c2.3,0,4.9-0.2,7.4-0.6c8.4-1.2,16.1-4.7,23-10.2
		c6.8-5.5,11.9-12.5,15.3-20.8l0.3-0.8l-10-9.3l-0.8,1.7c-3.8,8.4-7.7,14.6-11.7,18.6c-3.9,3.9-8.2,6.3-12.8,7.4
		c-2.7,0.6-5,0.9-6.8,0.9c-8.1,0-14.7-3.5-20.1-10.6c-5.5-7.2-9.3-17.5-11.3-30.5c-0.5-2.7-0.7-5.8-0.7-9.2c0-7.7,1.2-15.2,3.6-22.4
		c2.3-7.2,5.6-13.1,9.8-17.6c4-4.4,8.5-6.6,13.3-6.6c2.3,0,4.8,0.6,7.2,1.7c-0.2,0.8-0.4,1.8-0.4,2.8c0,3.3,1.4,6.2,4.3,8.6
		c2.8,2.4,5.8,3.6,9,3.6c3.4,0,6.4-1.6,8.9-4.7c2.4-3,3.6-6.3,3.6-9.9c0-2.8-0.6-5.1-1.8-6.7c-1.2-1.6-2.9-2.9-5.1-3.9
		c-2.1-1-5.6-2.3-10.7-4.1c-4.2-1.2-8.6-1.9-12.9-1.9c-9.5,0-18,3-25.3,9c-7.3,5.9-13,13.9-17.1,23.7c-4,9.8-6.1,20.5-6.1,31.9
		c0,2.5,0.2,6.2,0.7,11c1.1,9.6,3.8,18.1,8,25.5C647,653.8,652.5,659.6,659.2,663.7z"/>
	<path class="st0" d="M735.1,574.6c-3.7,8.7-5.6,18.4-5.6,28.8c0,1.5,0.1,4,0.4,7.4c1.1,12.7,4.5,23.9,10.1,33.2
		c5.6,9.3,12.6,16.5,20.9,21.4c8.3,4.9,16.9,7.4,25.5,7.4c9.5,0,18-3,25.5-8.8c7.3-5.7,12.4-14,15.3-24.7l10.5-1.1l-0.7-11.9
		l-39.3,2.9l0.7,12.3l13.1-0.9c-2,6.8-5,12-8.8,15.5c-4.1,3.7-8.9,5.6-14.1,5.6c-5.4,0-10.8-1.9-16.1-5.6c-5.4-3.7-9.9-9-13.5-15.7
		c-3.4-6.3-5.4-13.6-5.9-21.6l78.7-7.3l-0.1-1.3c-0.3-5.3-0.4-6.8-0.4-7.2l0-0.1c-0.5-5.4-0.5-6.4-0.5-6.6v-0.1l0-0.1
		c-1.1-9.2-4-17.8-8.7-25.5c-4.7-7.7-10.9-13.9-18.4-18.5c-7.6-4.6-16-6.9-25.2-6.9c-10.3,0-19.2,2.7-26.6,8
		C744.5,558.7,738.8,565.8,735.1,574.6z M764.1,566.6c3.8-3.4,7.9-5.2,12.5-5.6c1.2-0.1,3-0.2,5.3-0.2c11.5,0,19.9,3.1,25,9.3
		c5,6.1,8.5,14.8,10.3,26.1l-65.3,5.7c-0.2-2-0.2-3.6-0.2-4.7c0-6.1,1.1-11.9,3.3-17.4C757.2,574.5,760.3,570,764.1,566.6z"/>
	<path class="st0" d="M284.4,803.4c7.3,3.5,14.9,5.3,22.6,5.3c8.4,0,16.3-1.9,23.5-5.8c7.2-3.8,12.7-9,16.5-15.4
		c5.4-9.2,8.2-19.2,8.2-29.5c0-8.5-1.9-16.6-5.6-24c-3.7-7.4-8.9-13.5-15.5-17.9c-7.9-5.3-17.6-8-28.7-8c-9.3,0-17.6,1.9-24.8,5.6
		l-0.5-31.6l10.7,0.2v-9.9l-36-0.2v9.6h6.2c0.2,17.9,0.4,38.5,0.6,61.3c0.2,23,0.3,42.6,0.3,58.5h-7l0.5,11l29.5,0.6L284.4,803.4z
		 M307.7,796.8c-7.4,0-16.3-2.7-26.2-8v-62.4c8.6-2.4,16.3-3.7,22.8-3.7c11,0,19.1,3.1,23.9,9.2c4.9,6.2,7.4,14.1,7.4,23.6
		c0,11.3-2.3,21.2-6.8,29.4C324.3,792.9,317.4,796.8,307.7,796.8z"/>
	<path class="st0" d="M431.6,778.9l0.7,12.3l13.1-0.9c-2,6.8-5,12-8.8,15.5c-4.1,3.7-8.9,5.6-14.1,5.6c-5.4,0-10.8-1.9-16.1-5.6
		c-5.4-3.7-9.9-9-13.5-15.7c-3.4-6.3-5.4-13.6-5.9-21.6l78.7-7.3l-0.1-1.3c-0.3-5.3-0.4-6.8-0.4-7.2l0-0.1c-0.4-5.1-0.5-6.4-0.5-6.6
		v-0.1l0-0.1c-1.1-9.2-4-17.8-8.7-25.5c-4.7-7.7-10.9-13.9-18.4-18.5c-7.6-4.6-16-6.9-25.2-6.9c-10.3,0-19.2,2.7-26.6,8
		c-7.4,5.3-13,12.4-16.8,21.1c-3.7,8.7-5.6,18.4-5.6,28.8c0,1.5,0.1,4,0.4,7.4c1.1,12.7,4.5,23.9,10.1,33.2
		c5.6,9.3,12.6,16.5,20.9,21.4c8.3,4.9,16.9,7.4,25.5,7.4c9.5,0,18-3,25.5-8.8c7.3-5.7,12.4-14,15.3-24.7l10.5-1.1l-0.7-11.9
		L431.6,778.9z M398.1,716.3c3.8-3.4,7.9-5.2,12.5-5.6c1.2-0.1,3-0.2,5.3-0.2c11.5,0,19.9,3.1,25,9.3c5,6.1,8.5,14.8,10.3,26.1
		l-65.3,5.7c-0.2-2-0.2-3.6-0.2-4.7c0-6.1,1.1-11.9,3.3-17.4C391.3,724.2,394.3,719.7,398.1,716.3z"/>
	<path class="st0" d="M480.7,705.7L480.7,705.7l-1,105.9H532v-24.1h-8.6V800h-26.7c0.4-28.3,0.7-56.4,0.8-83.4h0l0-1.3
		c0-5.5,0-11,0-16.4h9.1v-8.5h-31.5v8.5h5.6L480.7,705.7z"/>
	<path class="st0" d="M565.6,692.1c2.4-2.4,3.6-5.3,3.6-8.6c0-3.4-1.2-6.3-3.6-8.7c-2.4-2.4-5.3-3.6-8.6-3.6c-3.4,0-6.3,1.2-8.7,3.6
		c-2.4,2.4-3.7,5.3-3.7,8.7c0,3.4,1.2,6.3,3.7,8.7c2.4,2.4,5.4,3.6,8.7,3.6C560.4,695.7,563.3,694.5,565.6,692.1z"/>
	<polygon class="st0" points="566.7,716.5 573.7,716.5 573.7,705.7 539.5,705.9 539.5,716.7 548.8,716.7 548.4,778.1 548.2,802 
		539.5,802 539.5,812.3 573.7,812.1 573.7,801.9 566.1,801.9 566.3,777.6 	"/>
	<path class="st0" d="M634.2,822.5c9.5,0,18-3,25.5-8.8c7.3-5.7,12.4-14,15.3-24.7l10.5-1.1l-0.7-11.9l-39.3,2.9l0.7,12.3l13.1-0.9
		c-2,6.8-5,12-8.8,15.5c-4.1,3.7-8.9,5.6-14.1,5.6c-5.4,0-10.8-1.9-16.1-5.6c-5.4-3.7-9.9-9-13.5-15.7c-3.4-6.3-5.4-13.6-5.9-21.6
		l78.7-7.3l-0.1-1.3c-0.3-5.3-0.4-6.8-0.4-7.2l0-0.1c-0.4-5.1-0.5-6.4-0.5-6.6v-0.1l0-0.1c-1.1-9.2-4-17.8-8.7-25.5
		c-4.7-7.7-10.9-13.9-18.4-18.5c-7.6-4.6-16-6.9-25.2-6.9c-10.3,0-19.2,2.7-26.6,8c-7.4,5.3-13,12.4-16.8,21.1
		c-3.7,8.7-5.6,18.4-5.6,28.8c0,1.5,0.1,4,0.4,7.4c1.1,12.7,4.5,23.9,10.1,33.2c5.6,9.3,12.6,16.5,20.9,21.4
		C617,820,625.5,822.5,634.2,822.5z M612.1,716.3c3.8-3.4,7.9-5.2,12.5-5.6c1.2-0.1,3-0.2,5.3-0.2c11.5,0,19.9,3.1,25,9.3
		c5,6.1,8.5,14.8,10.3,26.1l-65.3,5.7c-0.2-2-0.2-3.6-0.2-4.7c0-6.1,1.1-11.9,3.3-17.4C605.2,724.2,608.2,719.7,612.1,716.3z"/>
	<path class="st0" d="M690,717.7c8.2,23.8,19.6,56.1,34,95.9l0.3,0.9h17.5l0.3-0.9c6.6-18.5,14.1-38.9,22.1-60.6l14.6-40l4.6,2.2
		l3-10.1l-21.7-8.2l-2.9,9.7l5.8,2.7l-11.6,32.8c-8.6,24.1-14.9,41.6-18.7,52.2c-6-17.2-13.3-40-21.6-67.7c-2.7-9.1-4.4-15-5.3-17.6
		l5.7-2.4l-3.8-10.3l-34.4,13.1l3.7,11.9L690,717.7z"/>
	<path class="st0" d="M814.6,815.1c8.3,4.9,16.9,7.4,25.5,7.4c9.5,0,18-3,25.5-8.8c7.3-5.7,12.4-14,15.3-24.7l10.5-1.1l-0.7-11.9
		l-39.3,2.9l0.7,12.3l13.1-0.9c-2,6.8-5,12-8.8,15.5c-4.1,3.7-8.9,5.6-14.1,5.6c-5.4,0-10.8-1.9-16.1-5.6c-5.4-3.7-9.9-9-13.5-15.7
		c-3.4-6.3-5.4-13.6-5.9-21.6l78.7-7.3l-0.1-1.3c-0.3-5.3-0.4-6.8-0.4-7.2l0-0.1c-0.5-5.4-0.5-6.4-0.5-6.6v-0.1l0-0.1
		c-1.1-9.2-4-17.8-8.7-25.5c-4.7-7.7-10.9-13.9-18.4-18.5c-7.6-4.6-16-6.9-25.2-6.9c-10.3,0-19.2,2.7-26.6,8
		c-7.4,5.3-13,12.4-16.8,21.1c-3.7,8.7-5.6,18.4-5.6,28.8c0,1.5,0.1,4,0.4,7.4c1.1,12.7,4.5,23.9,10.1,33.2
		C799.3,803,806.4,810.3,814.6,815.1z M818,716.3c3.8-3.4,7.9-5.2,12.5-5.6c1.2-0.1,3-0.2,5.3-0.2c11.5,0,19.9,3.1,25,9.3
		c5,6.1,8.5,14.8,10.3,26.1l-65.3,5.7c-0.2-2-0.2-3.6-0.2-4.7c0-6.1,1.1-11.9,3.3-17.4C811.1,724.2,814.2,719.7,818,716.3z"/>
	<path class="st0" d="M243.8,950c-4,4.5-8.1,7.9-12.1,10.1c-4,2.2-8.5,3.3-13.4,3.3c-5.1,0-9.8-1.1-14.1-3.3
		c-4.2-2.1-7.9-7-11.2-14.3c-3.3-7.5-5.2-18.6-5.5-33.1c-0.2-10.1,0.9-19.5,3.3-27.9c2.4-8.3,5.8-15,10.2-19.8c4.3-4.7,9.1-7,14.5-7
		c3.2,0,6.6,1,10.2,2.8c-2,2.5-3,5.5-3,8.9c0,4,1.4,7.4,4.2,10.3c2.8,2.9,6.3,4.3,10.4,4.3c4,0,7.4-1.4,10.2-4.3
		c2.8-2.8,4.2-6.3,4.2-10.3c0-2.5-0.8-5.1-2.4-7.6c-1.5-2.4-3.5-4.5-5.7-6.1c-7.8-7.1-16.9-10.6-27-10.6c-7.8,0-15.5,2.1-22.8,6.2
		c-7.3,4.1-13.3,9.7-17.9,16.8c-4.3,6.6-7.7,14-10.1,22.1c-2.4,8.1-3.7,15.9-3.7,23.2c0,12,2.7,23.1,8.1,33
		c5.4,9.9,12.6,17.8,21.4,23.5c8.8,5.7,18.2,8.7,27.8,8.7c12,0,22.9-4.4,32.3-13.1l0.7-0.6l-7.4-16.5L243.8,950z"/>
	<path class="st0" d="M359.4,958.3c0.1-2.2,0.2-5.4,0.2-9.4c0-24.8-3.6-44.1-10.6-57.4c-7.2-13.6-18.8-20.8-34.6-21.4
		c-0.4,0-0.8,0-1.2,0c-11.4,0-21.1,4.9-28.7,14.7l-1.6-38.4l10.4-0.2l-0.7-12.3l-35.7,0.8l0.7,11.9h6.3l4.8,119.3l-8.2,0.4l0.5,12.4
		l35.7-0.4l-0.5-12.8l-8.4,0.2c-0.5-7.3-0.8-14.4-0.8-21c0-40.2,10.3-60.5,30.6-60.5c7.8,0,13.4,3.1,17.3,9.4
		c3.9,6.5,6.5,14.3,7.5,23.1c1.1,8.9,1.8,20.3,2.2,33.9c0,3.6,0,6.3,0.1,8.3l-8.8,0.2v11.9h31.5v-12.3l-7.9,0.2L359.4,958.3z"/>
	<path class="st0" d="M436.6,936.6c8.8-4,16.4-9.5,22.4-16.4c6.1-7,9.2-14.7,9.2-23c0-14.5-4-25.4-12-32.4
		c-7.9-7-18.2-10.5-30.5-10.5c-9.6,0-19.3,2-29.1,5.9l0.2-6.9l-27.4-0.4v13.4l9.3,0.2L379,969h-5.2l-0.2,9.5l28.8,0.8v-10h-5.1v-21
		c11,7.4,19.5,13,25.4,16.7c6.2,3.9,12.6,7.6,19.2,11c4,2,7.7,3,10.8,3c3.8,0,6.8-1.3,8.9-3.9c2.1-2.5,3.1-5.6,3.1-9
		c0-4-1.2-7.2-3.7-9.6c-1.3-1.3-3.4-2-6.2-2c-2.4,0-4.6,0.6-6.4,1.8c-1.9,1.3-3,3.3-3,5.7c0,0.8,0.1,1.7,0.4,2.6l-34.7-22
		c0.2,0,0.5,0,0.7,0C419.5,942.6,427.8,940.6,436.6,936.6z M450.7,894.3c0,9-2.1,16.5-6.1,22.3c-4.1,5.8-9.3,10.1-15.6,12.8
		c-6.3,2.7-13.1,4.1-20.2,4.1c-4.1,0-8-0.4-11.6-1.3c-0.1-7.4-0.2-22.8-0.2-47.2v-13.5c9.7-4.3,18.6-6.4,26.2-6.4
		c8.6,0,15.4,2.6,20.2,7.8C448.3,878,450.7,885.3,450.7,894.3z"/>
	<polygon class="st0" points="476.1,882.4 485.3,882.4 485,943.8 484.8,967.7 476.1,967.7 476.1,978 510.3,977.8 510.3,967.6 
		502.7,967.6 502.9,943.3 503.2,882.2 510.3,882.2 510.3,871.4 476.1,871.6 	"/>
	<path class="st0" d="M484.8,840.5c-2.4,2.4-3.7,5.3-3.7,8.7c0,3.4,1.2,6.3,3.7,8.7c2.4,2.4,5.4,3.6,8.7,3.6c3.4,0,6.3-1.2,8.6-3.6
		c2.4-2.4,3.6-5.3,3.6-8.6c0-3.4-1.2-6.3-3.6-8.7c-2.4-2.4-5.3-3.6-8.6-3.6C490.2,836.9,487.3,838.1,484.8,840.5z"/>
	<path class="st0" d="M575.9,855.9c-6.1-2.5-12.5-3.7-19-3.7c-7.4,0-14.3,1.4-20.5,4.2c-6.2,2.8-11.3,7-15.1,12.3
		c-3.8,5.4-5.9,11.8-6.3,19.2c-0.3,4.3,0.6,8.6,2.7,12.8c2,4.1,4.8,7.8,8.3,10.9c2.5,2.3,8,5.7,16.8,10.3
		c9.8,5.3,17.6,10.1,23.2,14.4c5.3,4.1,8,8.2,8,12.4c0,4.3-1.4,8.1-4.1,11.5c-2.7,3.3-6.5,5-11.6,5c-2,0-4.5-0.5-7.4-1.5
		c-2.8-0.9-5.3-2.7-7.5-5.2c-1.9-2.1-2.9-5-2.9-8.6l5,0.2l0.8-8.8l-24.9-1l0.3,9.1h4.4c0.8,7.9,4,14.1,9.4,18.7
		c5.6,4.7,12.4,7.3,20.2,7.7c1.3,0.1,2.6,0.1,3.9,0.1c21.5,0,33.2-9,34.9-26.9c0.4-4.2-0.7-8.1-3.2-11.6c-2.4-3.4-5.6-6.4-9.5-9.1
		c-3.8-2.6-9-5.9-15.7-9.8c-7.1-4.2-12.8-7.8-16.9-10.7c-4-2.9-7.5-6.3-10.4-10.1c-2.8-3.7-4.2-7.8-4.2-12.4
		c0-7.2,2.2-12.4,6.7-15.7c4.6-3.4,10.1-5.1,16.3-5.1c4.1,0,8.8,0.8,14,2.4c3.6,1.1,6.7,2.8,9,5.1c-2.2,0.1-4.2,1.2-5.7,3.3
		c-1.6,2.1-2.3,4.3-2.3,6.5c0,5,2.2,10.9,12.9,10.9c2.6,0,5.1-1,7.4-3.1c2.3-2.1,3.6-4.8,3.7-8.1v-0.5c0-5.4-1.9-10.4-5.8-14.8
		C587,861.9,582,858.4,575.9,855.9z"/>
	<path class="st0" d="M667.5,951.8c-2.7,0-4.9,0.9-6.7,2.8c-1.8,1.8-2.6,4-2.6,6.4c0,2.6,1,4.9,3,6.7c-3.5,3.9-6.9,5.9-10.1,5.9
		c-0.8,0-1.7-0.2-2.7-0.5c-6-1.9-10.5-8.3-13.2-19c-2.8-11.1-4.2-25-4.2-41.2c0-7.2,0.3-15,0.8-23.3c5.5,0.3,13.1,0.7,22.7,1l1.4,0
		v-1.4c0-2.7,0.1-4.6,0.2-5.5l0-0.1v-5.9l-1.3,0c-6-0.2-13.5-0.6-22.2-1.2l1.3-26.8l5.2,0.2l0.8-7.9l-30.6-0.6l-0.8,7.9l4.3,0.2
		l-1,25.9c-4.2-0.4-7.5-0.6-9.8-0.6h-1.3l-0.7,13.7l1.9-0.9c0.1,0,0.2,0,0.4,0c0.5,0,1.1,0,1.9,0.1c1.6,0.1,3,0.2,4.2,0.4l2.5,0.1
		c-0.2,4.7-0.3,8.8-0.3,12.2c0,9.5,0.4,19.2,1.1,28.8c0.7,9.6,1.8,17.3,3.1,22.9c2.3,9.8,6.7,17.7,13,23.4
		c6.3,5.8,13.4,8.8,20.9,8.8c4.3,0,8.6-1.1,12.7-3.2c4.1-2.1,7.8-5.5,10.9-9.9c1.4-2.1,2.4-3.8,2.9-5.3c0.5-1.5,0.8-3.3,0.8-5.2
		c0-2.6-0.8-4.8-2.3-6.4C672.3,952.6,670.2,951.8,667.5,951.8z"/>
	<path class="st0" d="M786.5,921.5C786.5,921.5,786.5,921.5,786.5,921.5l0.1-26.6l0.4-49l-1.3-0.1c-2.4-0.1-4.3-0.3-5.6-0.5
		c-1.3-0.3-2.8-0.4-4.4-0.4h-0.8l-0.4,0.7c-9.9,17.3-22.6,39.9-37.8,67.3l-12.5-25c-3.3-6.5-7-14.1-11.2-22.6
		c-4.3-8.7-8-16.1-11.3-22.4l-0.4-0.8l-0.9,0.1c-0.8,0.1-3.9,0.5-9.1,1.1c-1,0-2.8,0.1-5.5,0.4l-1.2,0.1l0,1.2
		c0.3,17.2,0.5,48.8,0.7,67.3c0.1,16.7,0.2,33.5,0.2,50.2h-6v9.7l31.9-0.2v-9.7h-7.8c0-15.5-0.1-30.7-0.2-45.5c0,0,0,0,0,0
		c-0.1-9.2-0.2-34.1-0.3-43l9.8,18.9l18.9,36.6c1.4,2.8,1.6,3.2,2.2,3.2c0.1,0,0.2,0,0.4,0l0,0h4.7c0.6,0,1.3,0,2.1,0.1
		c0.3,0,0.7,0,1.1,0c0.8,0,1.8,0,2.9-0.1l0.7-0.1l0.4-0.6c12.9-21.3,20.9-34.5,24-39.3c1.1-1.8,2.1-3.3,2.9-4.5l-0.1,17l0,17.9
		l-0.3,45.5h-6.9v10.1l27.7-0.2v-10.1h-7.1L786.5,921.5z"/>
	<path class="st0" d="M891,933.1c-11.1-32.9-21.1-61.4-29.8-84.6l-0.3-0.7l-0.8-0.1c-2.8-0.4-5.3-0.6-7.5-0.6c0,0-6.9,0.2-6.9,0.2
		l-0.3,0.8c-11.8,32.4-24.9,69.7-38.9,110.9l-9.4,0.4l-0.2,9.9l32.6-0.4v-10.3h-3.3l5.1-15.5l12.9-0.3c7.5-0.2,19.3-0.5,36.1-0.7
		c2.9,7.7,5.4,14.6,7.4,20.6l-4.9,0.2l-0.2,9.7h26.6l0.2-10.1l-8.2,0.2L891,933.1z M876.3,926.7c-18.2,0-31.3,0.1-39.1,0.3
		c6.2-17.9,12.9-36.9,19.9-56.6c2.4,6.5,5,13.9,7.7,21.9c3.1,9.4,5.4,16,6.6,19.6C871.9,913.3,873.5,918.3,876.3,926.7z"/>
	<path class="st0" d="M962.1,875.3c-1.6,2.1-2.3,4.3-2.3,6.5c0,5,2.2,10.9,12.9,10.9c2.6,0,5.1-1,7.4-3.1c2.3-2.1,3.6-4.8,3.7-8.1
		v-0.5c0-5.4-1.9-10.4-5.8-14.8c-3.7-4.4-8.7-7.9-14.8-10.3c-6.1-2.5-12.5-3.7-19-3.7c-7.4,0-14.3,1.4-20.5,4.2
		c-6.2,2.8-11.3,7-15.1,12.3c-3.8,5.4-5.9,11.8-6.3,19.2c-0.3,4.3,0.6,8.6,2.7,12.8c2,4.1,4.8,7.8,8.3,10.9c2.5,2.3,8,5.7,16.8,10.3
		c9.8,5.3,17.6,10.1,23.2,14.4c5.3,4.1,8,8.2,8,12.4c0,4.3-1.4,8.1-4.1,11.5c-2.7,3.3-6.5,5-11.6,5c-2,0-4.5-0.5-7.4-1.5
		c-2.8-0.9-5.3-2.7-7.5-5.2c-1.9-2.1-2.9-5-2.9-8.6l5,0.2l0.8-8.8l-24.9-1l0.3,9.1h4.4c0.8,7.9,4,14.1,9.4,18.7
		c5.6,4.7,12.4,7.3,20.2,7.7c1.3,0.1,2.6,0.1,3.9,0.1c21.5,0,33.2-9,34.9-26.9c0.4-4.2-0.7-8.1-3.2-11.6c-2.4-3.4-5.6-6.4-9.5-9.1
		c-3.8-2.6-9-5.9-15.7-9.8c-7.1-4.2-12.8-7.8-16.9-10.7c-4-2.9-7.5-6.3-10.4-10.1c-2.8-3.7-4.2-7.8-4.2-12.4
		c0-7.2,2.2-12.4,6.7-15.7c4.6-3.4,10.1-5.1,16.3-5.1c4.1,0,8.8,0.8,14,2.4c3.6,1.1,6.7,2.8,9,5.1
		C965.6,872.1,963.7,873.2,962.1,875.3z"/>
</g>
</svg>
