<?xml version="1.0" encoding="utf-8"?>
<!-- Generator: Adobe Illustrator 23.0.3, SVG Export Plug-In . SVG Version: 6.00 Build 0)  -->
<svg version="1.1" id="Layer_1" xmlns="http://www.w3.org/2000/svg" xmlns:xlink="http://www.w3.org/1999/xlink" x="0px" y="0px"
	 viewBox="0 0 1133.9 1133.9" style="enable-background:new 0 0 1133.9 1133.9;" xml:space="preserve">
<style type="text/css">
	.st0{fill:#1E2121;}
	.st1{fill:#A81F26;}
	.st2{fill:#F2F1F2;}
	.st3{fill:#DD353A;}
	.st4{fill:#CFCFCE;}
	.st5{fill:#1D2121;}
	.st6{fill:none;}
	.st7{fill:#AA1F23;}
	.st8{fill:#FDFEFE;}
	.st9{fill:#EE742C;}
	.st10{fill:#BA5234;}
	.st11{fill:#ED1C24;}
	.st12{fill:#C42C3A;}
	.st13{fill:#058743;}
	.st14{fill:#0F4D70;}
	.st15{fill-rule:evenodd;clip-rule:evenodd;fill:#C42C3A;}
	.st16{fill-rule:evenodd;clip-rule:evenodd;fill:#1E2121;}
	.st17{fill:#E8E8E8;}
	.st18{fill:#186634;}
	.st19{fill:#BF2730;}
	.st20{fill:#B47A48;}
	.st21{fill:#3E1E14;}
	.st22{fill:#DBAD5D;}
	.st23{fill:#B84947;}
	.st24{fill:#C3976E;}
	.st25{fill:#9D2023;}
	.st26{fill:#3C2517;}
	.st27{fill:#4A3A31;}
	.st28{fill:#EDAD4F;}
	.st29{fill:#F8C018;}
</style>
<g>
	<path class="st0" d="M988.1,683.3c-3.6-2.2-8.4-1.1-9.8,2.9c-13.9,37.9-39,56.9-67.9,55.1c10.2-49.3,20.8-157.6-25.9-157.6
		c-59.5,0-62,160.9,7.7,171.5c-10.9,44.9-29.9,79.5-53.3,79.5c-27,0-20.1-97.4-12.4-144.5c2.6-15.3-41.2-22.6-43.8-2.2
		c-3.3,25.9-37.2,113.5-49.6,113.5c-15,0,0-93,8-121.1c4.7-19-37.6-21.5-43-4.4c-1.9,7.5-3.7,15-5.3,22.4
		c-13.5,29.8-31.9,44.5-57.4,42.9c10.2-49.3,10.2-106.9-32.8-106.9c-25.5,0-39.4,20.4-41.2,44.1c-5.8-2.9-12-4.7-15.7-4.7
		c-24.5,0-37.7,33.3-35.1,66.5c-5.3,19.4-10.9,38.8-14.5,49.9c-10.2,30.3-32.1,83.5-42,83.5c-8.8,0-3.6-68.2,0.7-111.3
		c6.2-56.9,11.7-116.7-33.2-116.7c-39.4,0-53.3,43.8-69,90.8l1.1-47.1c0-19.7-43.8-16.1-43.8-0.4l-0.2,7.9
		c-10.7,23-34.4,40.4-58.9,59.2c-11.7-14.2-54.7-42-54.7-78.1c0-31,44.5-54.4,46.7-4.7c0.4,10.9-0.7,17.5,11.7,17.5
		c6.2,0,9.5,1.8,9.8-15.3c1.8-79.2-114.2-83.2-114.2,17.5c0,18.5,11.9,35.4,28.5,52.3l19.8,18.9c6.4,5.7,12.9,11.5,19.2,17.5
		c-37.2,28.8-69.3,63.8-69.3,100c0,30.6,15,47.8,43.8,47.8c44.9,0,88.7-43,88.7-91.2c0-25.2-7.3-52.9-21.2-70.4
		c18.9-13.8,36.4-29.2,49.6-45.8l-1.8,76.5c-0.7,15,39.8,15.7,43.4,2.2c9.5-33.6,33.2-134.3,54.4-134.3c16.4,0,9.8,37.9,1.1,140.1
		c-4.7,47.1-2.2,95.6,30.6,95.6c30.3,0,54.4-51.4,73-107.6c2.7-8.4,5.2-16.7,7.6-24.8c8.8,20.7,25.7,36.5,52.3,36.5
		c29.6,0,51.1-23,62.4-50.3c18.9,0,37.5-4.8,53.8-22.2c-8.6,53.3-6.1,95.5,23.5,95.5c33.6,0,53.3-41.2,69.7-78.4
		c1.8,53.6,16.1,109.1,54.7,109.1c32.5,0,57.3-40.5,73.3-104c29.2,0,63.1-11.3,83.9-63.5C992.4,688.7,991.7,685.5,988.1,683.3z
		 M184.7,911.6c-15.3,0-21.9-8.4-21.9-28.5c0-32.8,28.1-62,62.7-89.4c8.4,13.5,11.3,28.5,11.3,47.4
		C236.9,871.5,211,911.6,184.7,911.6z M583.5,787.6c-28.8,0-35-56.2-21.2-89c4.7,26.3,23,51.8,54.7,56.5
		C609.7,772.3,597,787.6,583.5,787.6z M620.3,740.9c-48.5,0-60.9-91.9-17.9-91.9C630.9,649,629.1,697.1,620.3,740.9z M895.4,740.9
		c-48.5,0-54-142.6-10.9-142.6C916.6,598.3,904.2,697.1,895.4,740.9z"/>
	<path class="st0" d="M853.3,420.1c6.3,0.4,11.9-1.1,17-4.5c5.3-3.1,8.4-7,9.4-11.7c1-4.7-0.2-8.9-3.6-12.5c-3.4-3.6-8.1-5.6-14.1-6
		c-6-0.4-11.7,1-17,4.2c-5.1,3.4-8.2,7.4-9.4,12.1c-1.2,4.7-0.1,8.9,3.3,12.5C842.2,417.7,847,419.7,853.3,420.1z"/>
	<path class="st0" d="M181.7,442.1c1.6,2.8,4.7,4.4,7.9,4c1.2,0,2.8-0.4,4-1.2c4-2.4,4.4-6.7,1.6-10.7C168.3,386,140.6,225,196,225
		c43.5,0,45.5,73.6,41.5,129.7c-3.2,46.7-7.5,110.7-24.1,173.2c-25.3-5.5-56.9,4.7-62.9,26.5C145,573,162.4,590,186.1,590
		c21.5,0.7,41.2-7.5,56.3-26.1c0,0,0-0.1,0.1-0.1c0.5-0.6,0.9-1.2,1.3-1.8c32.9,18.6,83.2,32.7,121.8-27.6
		c0.6,5.9,1.6,11.7,2.9,17.3c2.4,9.7,6.2,18.1,11.6,25.4c5.3,7.3,12.3,12.9,20.8,16.8c8.5,3.9,18.9,5.5,30.9,4.6
		c10.1-0.8,20.2-4.7,30.3-11.6c10.1-6.9,19.8-15.2,29-25c4.8-5.3,9.9-11.8,15.6-19.6c5.6-7.7,11.1-15.8,16.6-24.4
		c2.4-3.8,4.8-7.6,7.2-11.5c0,0.3-0.1,0.6-0.1,0.9c-1.4,19.8-1,37.5,1.3,53.1c2.3,15.6,6.8,28.3,13.6,38.1
		c6.8,9.8,16.4,15,28.9,15.5c10-1.5,19.7-5,29.1-10.3c9.4-5.4,18.5-11.9,27.2-19.5c8.7-7.7,17-16.2,24.9-25.5
		c7.9-9.3,15.3-18.7,22.2-28.2c6.9-9.4,13.2-18.6,18.8-27.4c5.6-8.8,10.7-16.7,15.3-23.6c1.5-1.5,2.1-3.3,1.7-5.2
		c-0.4-1.9-1.3-3.5-2.7-4.8c-1.4-1.3-3.1-2.1-5-2.5c-1.9-0.4-3.8,0.1-5.6,1.3c-2.8,4.9-7.9,12.6-15.3,23.2
		c-7.4,10.6-16,21.9-25.7,33.9c-9.7,12-19.9,23.8-30.6,35.2c-10.7,11.5-20.8,20.7-30.1,27.6c-9.3,6.9-17.4,10.3-24.1,10.3
		c-6.8,0-11.1-5.4-12.8-16.1c-1.5-8.7-2.1-19.4-1.7-32.2c0.4-12.8,1.4-26.6,3.1-41.4c1.7-14.8,4-30.3,6.9-46.5
		c2.9-16.2,6.3-32.3,10.2-48.3c3.8-16,8-31.3,12.5-46.2c3.9-12.8,7.9-24.7,12-35.6c0,0,0,0,0-0.1c0.1-0.2,0.1-0.3,0.2-0.5
		c1.4-0.2,2.8-0.4,4.2-0.7c9.6-1.5,19.9-3.1,30.8-4.8c11-1.7,22.2-3.1,33.7-4.2c11.5-1.1,22.3-1.4,32.4-0.8
		c10.1,0.6,19,2.4,26.6,5.2c6.8,2.5,11.9,6.4,15.3,11.8c0.7,1.1,1.1,2.4,1.3,3.7c0.2,1.8,0.9,3.2,2,4.3c1.4,1.4,3.1,2.2,5,2.5
		c1.9,0.3,3.7-0.2,5.4-1.3c1-0.7,1.9-1.7,2.6-3c0.8-1.5,1.1-3.2,1-4.8c-0.3-7.1-2.3-13-5.9-17.5c-4-5-9.2-8.7-15.7-11.3
		c-6.5-2.6-14-4.2-22.4-5c-8.4-0.8-17-1-25.7-0.8c-8.7,0.3-17.2,0.9-25.5,1.9c-8.3,1-15.6,1.9-22,2.7c-7.4,0.8-15.8,1.8-25.1,3.1
		c-3.5,0.5-7.1,1-10.8,1.5c0.8-1.7,1.5-3.1,2-4.2c0,0-0.1,0-0.1,0c1.5-2.8,3.1-5.6,4.6-8.4c1.5-2.8,2.9-5.4,4.2-7.7
		c2.3-3.3,2.4-6.4,0.4-9.4c-2-2.9-5.1-5-9.2-6.1c-4.1-1.2-8.4-1.2-13,0c-4.6,1.1-8.4,4-11.5,8.6c-2.3,3.6-4.5,7.7-6.7,12.5
		c-1.6,3.5-3.4,7.3-5.2,11.4c-0.6,1.3-1.2,2.7-1.9,4.1c0,0,0,0,0,0c-0.3,0.7-0.7,1.4-1,2.2c-3.2,0.3-6.5,0.6-9.7,0.9
		c-9.8,0.8-19.3,1.3-28.3,1.7c-9.1,0.4-17.6,0.4-25.5,0c-7.9-0.4-14.8-1.3-20.7-2.9c-7.4-1.8-13.5-4.3-18.2-7.7
		c-4.7-3.3-7.3-9.1-7.9-17.2c0-2.6-0.8-4.5-2.5-5.7c-1.7-1.3-3.4-1.9-5.4-1.9c-1.9,0-3.7,0.6-5.4,1.9c-1.7,1.3-2.5,3.2-2.5,5.7
		c0.5,9.7,3.3,17.5,8.4,23.4c5.1,5.9,11.6,10.4,19.5,13.6c7.9,3.2,16.9,5.3,26.8,6.3c10,1,20,1.4,30.1,1.1
		c10.1-0.3,19.9-0.9,29.3-1.9c1.8-0.2,3.5-0.4,5.2-0.6c-5.4,15.3-10.7,32.5-15.9,51.5c-5.5,19.9-10.1,40.2-13.8,60.9
		c-1.2,6.8-2.3,13.5-3.2,20.1c-3.6,6.2-7.4,12.5-11.5,19.2c-4.9,8-10,15.9-15.3,23.8c-5.3,7.9-10.4,15.2-15.4,22.1
		c-4.9,6.9-9.5,12.7-13.7,17.5c-7.9,9.3-15.6,16.7-23.1,22.3c-7.6,5.6-14.2,8.7-19.8,9.3c-2.8,0.3-6.4-0.8-10.7-3.2
		c-4.4-2.4-8.2-6.5-11.6-12.2c-3.4-5.8-5.5-13.3-6.5-22.7c-1-9.4,0.5-21.1,4.4-35.1c7.8,0.6,15.8,0,23.8-1.7
		c8-1.7,15.6-4.3,22.9-7.8c7.3-3.5,13.8-8,19.6-13.5c5.7-5.5,10.2-11.8,13.2-19.1c5-14.3,3.9-25.7-3.4-34.1
		c-7.3-8.4-18.6-12.6-34.1-12.6c-13.5,0-25.7,3.1-36.6,9.3c-10.9,6.2-20.3,14.2-28,24.2c-7.7,10-13.7,21-17.9,33.2
		c-1.3,3.9-2.4,7.7-3.4,11.6c-3.4,6.9-6.7,13.4-10,19.4c-34.7,63.3-77.5,51.9-106.9,33.7c0.9-1.6,1.6-3.2,2.3-4.6
		c0.3-0.7,0.6-1.4,1-2.1c0.4-0.9,0.8-1.8,1.1-2.5c15-34.2,20.5-82.2,24.3-131.7c8.7-116.3,2.4-205.2-70-205.2
		c-75.6,0-67.3,103-49.4,174.5C162.6,387.2,172.1,424.6,181.7,442.1z M180.5,572.2c-7.9,2-16.6-6.7-15-13.4
		c3.2-11.9,23.3-18.6,41.9-15.8C201.1,555.2,192.8,569.9,180.5,572.2z M433.2,459.3c5.9-8.3,11.9-13.9,18.1-17
		c5.3-2.5,9.7-3.5,13.2-2.9c3.5,0.6,6,2,7.6,4.4c1.5,2.4,1.9,5.5,1.1,9.3c-0.8,3.8-2.7,7.6-5.5,11.6c-5.3,7.3-12.6,12.8-21.7,16.6
		c-9.1,3.8-18.3,6-27.5,6.5C422.4,477,427.3,467.6,433.2,459.3z"/>
	<path class="st0" d="M759.8,542.1l-8,8v-6.3l9.5-9.5c1.7-1.7,1.7-4.5,0-6.2c-1.7-1.7-4.5-1.7-6.2,0l-3.3,3.3v-5.7
		c0-2.4-2-4.4-4.4-4.4c-2.4,0-4.4,2-4.4,4.4v5.7l-3.3-3.3c-1.7-1.7-4.5-1.7-6.2,0c-1.7,1.7-1.7,4.5,0,6.2l9.5,9.5v6.3l-8-8
		c-1.7-1.7-4.5-1.7-6.2,0c-1.7,1.7-1.7,4.5,0,6.2l14.3,14.3v13.5l-11.7-6.8l-5.2-19.5c-0.6-2.3-3-3.7-5.4-3.1
		c-2.3,0.6-3.7,3-3.1,5.4l2.9,11L715,560l-3.5-13c-0.6-2.3-3-3.7-5.4-3.1c-2.3,0.6-3.7,3-3.1,5.4l1.2,4.5l-4.9-2.8
		c-2.1-1.2-4.8-0.5-6,1.6c-1.2,2.1-0.5,4.8,1.6,6l4.9,2.8l-4.5,1.2c-2.3,0.6-3.7,3-3.1,5.4c0.6,2.3,3,3.7,5.4,3.1l13-3.5l5.4,3.1
		l-11,2.9c-2.3,0.6-3.7,3-3.1,5.4c0.6,2.3,3,3.7,5.4,3.1l19.5-5.2l11.7,6.8l-11.7,6.8l-19.5-5.2c-2.3-0.6-4.8,0.8-5.4,3.1
		s0.8,4.8,3.1,5.4l11,2.9l-5.4,3.1l-13-3.5c-2.3-0.6-4.8,0.8-5.4,3.1c-0.6,2.3,0.8,4.8,3.1,5.4l4.5,1.2l-4.9,2.8
		c-2.1,1.2-2.8,3.9-1.6,6c1.2,2.1,3.9,2.8,6,1.6l4.9-2.8l-1.2,4.5c-0.6,2.3,0.8,4.8,3.1,5.4c2.3,0.6,4.8-0.8,5.4-3.1l3.5-13l5.4-3.1
		l-2.9,11c-0.6,2.3,0.8,4.8,3.1,5.4c2.3,0.6,4.8-0.8,5.4-3.1l5.2-19.5l11.7-6.8v13.5l-14.3,14.3c-1.7,1.7-1.7,4.5,0,6.2
		c1.7,1.7,4.5,1.7,6.2,0l8-8v6.3l-9.5,9.5c-1.7,1.7-1.7,4.5,0,6.2c1.7,1.7,4.5,1.7,6.2,0l3.3-3.3v5.7c0,2.4,2,4.4,4.4,4.4
		c2.4,0,4.4-2,4.4-4.4v-5.7l3.3,3.3c1.7,1.7,4.5,1.7,6.2,0c1.7-1.7,1.7-4.5,0-6.2l-9.5-9.5v-6.3l8,8c1.7,1.7,4.5,1.7,6.2,0
		c1.7-1.7,1.7-4.5,0-6.2l-14.3-14.3v-13.5l11.7,6.8l5.2,19.5c0.6,2.3,3,3.7,5.4,3.1c2.3-0.6,3.7-3,3.1-5.4l-2.9-11l5.4,3.1l3.5,13
		c0.6,2.3,3,3.7,5.4,3.1c2.3-0.6,3.7-3,3.1-5.4l-1.2-4.5l4.9,2.8c2.1,1.2,4.8,0.5,6-1.6c1.2-2.1,0.5-4.8-1.6-6l-4.9-2.8l4.5-1.2
		c2.3-0.6,3.7-3,3.1-5.4c-0.6-2.3-3-3.7-5.4-3.1l-13,3.5l-5.4-3.1l11-2.9c2.3-0.6,3.7-3,3.1-5.4c-0.6-2.3-3-3.7-5.4-3.1l-19.5,5.2
		l-11.7-6.8l11.7-6.8l19.5,5.2c2.3,0.6,4.8-0.8,5.4-3.1c0.6-2.3-0.8-4.8-3.1-5.4l-11-2.9l5.4-3.1l13,3.5c2.3,0.6,4.8-0.8,5.4-3.1
		c0.6-2.3-0.8-4.8-3.1-5.4l-4.5-1.2l4.9-2.8c2.1-1.2,2.8-3.9,1.6-6c-1.2-2.1-3.9-2.8-6-1.6l-4.9,2.8l1.2-4.5
		c0.6-2.3-0.8-4.8-3.1-5.4c-2.3-0.6-4.8,0.8-5.4,3.1l-3.5,13l-5.4,3.1l2.9-11c0.6-2.3-0.8-4.8-3.1-5.4c-2.3-0.6-4.8,0.8-5.4,3.1
		l-5.2,19.5l-11.7,6.8v-13.5l14.3-14.3c1.7-1.7,1.7-4.5,0-6.2C764.3,540.4,761.5,540.4,759.8,542.1z"/>
	<path class="st0" d="M1055.2,623.4c-0.5-2-2.6-3.2-4.6-2.7l-11.2,3l-4.7-2.7l9.5-2.5c2-0.5,3.2-2.6,2.7-4.6c-0.5-2-2.6-3.2-4.6-2.7
		l-16.8,4.5l-10.1-5.8l10.1-5.8l16.8,4.5c2,0.5,4.1-0.7,4.6-2.7c0.5-2-0.7-4.1-2.7-4.6l-9.5-2.5l4.7-2.7l11.2,3
		c2,0.5,4.1-0.7,4.6-2.7c0.5-2-0.7-4.1-2.7-4.6l-3.8-1l4.2-2.5c1.8-1,2.4-3.4,1.4-5.2c-1-1.8-3.4-2.4-5.2-1.4l-4.2,2.5l1-3.8
		c0.5-2-0.7-4.1-2.7-4.6c-2-0.5-4.1,0.7-4.6,2.7l-3,11.2l-4.7,2.7l2.5-9.5c0.5-2-0.7-4.1-2.7-4.6s-4.1,0.7-4.6,2.7l-4.5,16.8
		l-10.1,5.8v-11.6l12.3-12.3c1.5-1.5,1.5-3.9,0-5.4c-1.5-1.5-3.9-1.5-5.4,0l-6.9,6.9v-5.4l8.2-8.2c1.5-1.5,1.5-3.9,0-5.4
		c-1.5-1.5-3.9-1.5-5.4,0l-2.8,2.8v-4.9c0-2.1-1.7-3.8-3.8-3.8c-2.1,0-3.8,1.7-3.8,3.8v4.9l-2.8-2.8c-1.5-1.5-3.9-1.5-5.4,0
		c-1.5,1.5-1.5,3.9,0,5.4l8.2,8.2v5.4L997,574c-1.5-1.5-3.9-1.5-5.4,0c-1.5,1.5-1.5,3.9,0,5.4l12.3,12.3v11.6l-10.1-5.8l-4.5-16.8
		c-0.5-2-2.6-3.2-4.6-2.7c-2,0.5-3.2,2.6-2.7,4.6l2.5,9.5l-4.7-2.7l-3-11.2c-0.5-2-2.6-3.2-4.6-2.7c-2,0.5-3.2,2.6-2.7,4.6l1,3.8
		l-4.2-2.5c-1.8-1-4.1-0.4-5.2,1.4c-1,1.8-0.4,4.1,1.4,5.2l4.2,2.5l-3.8,1c-2,0.5-3.2,2.6-2.7,4.6c0.5,2,2.6,3.2,4.6,2.7l11.2-3
		l4.7,2.7l-9.5,2.5c-2,0.5-3.2,2.6-2.7,4.6c0.5,2,2.6,3.2,4.6,2.7l16.8-4.5l10.1,5.8l-10.1,5.8l-16.8-4.5c-2-0.5-4.1,0.7-4.6,2.7
		c-0.5,2,0.7,4.1,2.7,4.6l9.5,2.5l-4.7,2.7l-11.2-3c-2-0.5-4.1,0.7-4.6,2.7c-0.5,2,0.7,4.1,2.7,4.6l3.8,1l-4.2,2.5
		c-1.8,1-2.4,3.4-1.4,5.2c1,1.8,3.4,2.4,5.2,1.4l4.2-2.5l-1,3.8c-0.5,2,0.7,4.1,2.7,4.6c2,0.5,4.1-0.7,4.6-2.7l3-11.2l4.7-2.7
		l-2.5,9.5c-0.5,2,0.7,4.1,2.7,4.6c2,0.5,4.1-0.7,4.6-2.7l4.5-16.8l10.1-5.8v11.6l-12.3,12.3c-1.5,1.5-1.5,3.9,0,5.4
		c1.5,1.5,3.9,1.5,5.4,0l6.9-6.9v5.4l-8.2,8.2c-1.5,1.5-1.5,3.9,0,5.4c1.5,1.5,3.9,1.5,5.4,0l2.8-2.8v4.9c0,2.1,1.7,3.8,3.8,3.8
		c2.1,0,3.8-1.7,3.8-3.8v-4.9l2.8,2.8c1.5,1.5,3.9,1.5,5.4,0c1.5-1.5,1.5-3.9,0-5.4l-8.2-8.2v-5.4l6.9,6.9c1.5,1.5,3.9,1.5,5.4,0
		c1.5-1.5,1.5-3.9,0-5.4l-12.3-12.3v-11.6l10.1,5.8l4.5,16.8c0.5,2,2.6,3.2,4.6,2.7c2-0.5,3.2-2.6,2.7-4.6l-2.5-9.5l4.7,2.7l3,11.2
		c0.5,2,2.6,3.2,4.6,2.7c2-0.5,3.2-2.6,2.7-4.6l-1-3.8l4.2,2.5c1.8,1,4.1,0.4,5.2-1.4c1-1.8,0.4-4.1-1.4-5.2l-4.2-2.5l3.8-1
		C1054.5,627.5,1055.7,625.4,1055.2,623.4z"/>
	<path class="st0" d="M327.1,349.2c-2.1-0.6-4.3,0.7-4.8,2.8c-0.6,2.1,0.7,4.3,2.8,4.8l4,1.1l-4.4,2.6c-1.9,1.1-2.5,3.5-1.4,5.4
		c1.1,1.9,3.5,2.5,5.4,1.4l4.4-2.6l-1.1,4c-0.6,2.1,0.7,4.3,2.8,4.8c2.1,0.6,4.3-0.7,4.8-2.8l3.1-11.6l4.9-2.8l-2.6,9.9
		c-0.6,2.1,0.7,4.3,2.8,4.8c2.1,0.6,4.3-0.7,4.8-2.8l4.7-17.5l10.5-6.1v12.1L355,369.7c-1.5,1.5-1.5,4,0,5.6c1.5,1.5,4,1.5,5.6,0
		l7.2-7.2v5.6l-8.5,8.5c-1.5,1.5-1.5,4,0,5.6c1.5,1.5,4,1.5,5.6,0l2.9-2.9v5.1c0,2.2,1.8,4,4,4c2.2,0,4-1.8,4-4v-5.1l2.9,2.9
		c1.5,1.5,4,1.5,5.6,0c1.5-1.5,1.5-4,0-5.6l-8.5-8.5v-5.6l7.2,7.2c1.5,1.5,4,1.5,5.6,0c1.5-1.5,1.5-4,0-5.6l-12.8-12.8v-12.1
		l10.5,6.1l4.7,17.5c0.6,2.1,2.7,3.4,4.8,2.8c2.1-0.6,3.4-2.7,2.8-4.8l-2.6-9.9l4.9,2.8l3.1,11.6c0.6,2.1,2.7,3.4,4.8,2.8
		c2.1-0.6,3.4-2.7,2.8-4.8l-1.1-4l4.4,2.6c1.9,1.1,4.3,0.4,5.4-1.4c1.1-1.9,0.4-4.3-1.4-5.4l-4.4-2.6l4-1.1c2.1-0.6,3.4-2.7,2.8-4.8
		c-0.6-2.1-2.7-3.4-4.8-2.8l-11.6,3.1l-4.9-2.8l9.9-2.6c2.1-0.6,3.4-2.7,2.8-4.8c-0.6-2.1-2.7-3.4-4.8-2.8l-17.5,4.7l-10.5-6.1
		l10.5-6.1l17.5,4.7c2.1,0.6,4.3-0.7,4.8-2.8c0.6-2.1-0.7-4.3-2.8-4.8l-9.9-2.6l4.9-2.8l11.6,3.1c2.1,0.6,4.3-0.7,4.8-2.8
		c0.6-2.1-0.7-4.3-2.8-4.8l-4-1.1l4.4-2.6c1.9-1.1,2.5-3.5,1.4-5.4c-1.1-1.9-3.5-2.5-5.4-1.4l-4.4,2.6l1.1-4
		c0.6-2.1-0.7-4.3-2.8-4.8c-2.1-0.6-4.3,0.7-4.8,2.8l-3.1,11.6l-4.9,2.8l2.6-9.9c0.6-2.1-0.7-4.3-2.8-4.8c-2.1-0.6-4.3,0.7-4.8,2.8
		l-4.7,17.5l-10.5,6.1v-12.1l12.8-12.8c1.5-1.5,1.5-4,0-5.6c-1.5-1.5-4-1.5-5.6,0l-7.2,7.2v-5.6l8.5-8.5c1.5-1.5,1.5-4,0-5.6
		c-1.5-1.5-4-1.5-5.6,0l-2.9,2.9v-5.1c0-2.2-1.8-4-4-4c-2.2,0-4,1.8-4,4v5.1l-2.9-2.9c-1.5-1.5-4-1.5-5.6,0c-1.5,1.5-1.5,4,0,5.6
		l8.5,8.5v5.6l-7.2-7.2c-1.5-1.5-4-1.5-5.6,0c-1.5,1.5-1.5,4,0,5.6l12.8,12.8V331l-10.5-6.1l-4.7-17.5c-0.6-2.1-2.7-3.4-4.8-2.8
		c-2.1,0.6-3.4,2.7-2.8,4.8l2.6,9.9l-4.9-2.8l-3.1-11.6c-0.6-2.1-2.7-3.4-4.8-2.8c-2.1,0.6-3.4,2.7-2.8,4.8l1.1,4l-4.4-2.6
		c-1.9-1.1-4.3-0.4-5.4,1.4c-1.1,1.9-0.4,4.3,1.4,5.4l4.4,2.6l-4,1.1c-2.1,0.6-3.4,2.7-2.8,4.8c0.6,2.1,2.7,3.4,4.8,2.8l11.6-3.1
		l4.9,2.8l-9.9,2.6c-2.1,0.6-3.4,2.7-2.8,4.8c0.6,2.1,2.7,3.4,4.8,2.8l17.5-4.7l10.5,6.1l-10.5,6.1l-17.5-4.7
		c-2.1-0.6-4.3,0.7-4.8,2.8c-0.6,2.1,0.7,4.3,2.8,4.8l9.9,2.6l-4.9,2.8L327.1,349.2z"/>
	<path class="st0" d="M148.1,801.6c-0.7-2.6-3.3-4.1-5.9-3.4L128,802l-5.9-3.4l12.1-3.2c2.6-0.7,4.1-3.3,3.4-5.9
		c-0.7-2.6-3.3-4.1-5.9-3.4l-21.4,5.7l-12.8-7.4l12.8-7.4l21.4,5.7c2.6,0.7,5.2-0.8,5.9-3.4c0.7-2.6-0.8-5.2-3.4-5.9l-12.1-3.2
		l5.9-3.4l14.2,3.8c2.6,0.7,5.2-0.8,5.9-3.4c0.7-2.6-0.8-5.2-3.4-5.9l-4.9-1.3l5.4-3.1c2.3-1.3,3.1-4.3,1.8-6.6
		c-1.3-2.3-4.3-3.1-6.6-1.8l-5.4,3.1l1.3-4.9c0.7-2.6-0.8-5.2-3.4-5.9c-2.6-0.7-5.2,0.8-5.9,3.4l-3.8,14.2l-5.9,3.4l3.2-12.1
		c0.7-2.6-0.8-5.2-3.4-5.9c-2.6-0.7-5.2,0.8-5.9,3.4l-5.7,21.4L92.5,776v-14.8l15.7-15.7c1.9-1.9,1.9-4.9,0-6.8
		c-1.9-1.9-4.9-1.9-6.8,0l-8.8,8.8v-6.9l10.4-10.4c1.9-1.9,1.9-4.9,0-6.8c-1.9-1.9-4.9-1.9-6.8,0l-3.6,3.6v-6.2
		c0-2.7-2.2-4.8-4.8-4.8c-2.7,0-4.8,2.2-4.8,4.8v6.2l-3.6-3.6c-1.9-1.9-4.9-1.9-6.8,0c-1.9,1.9-1.9,4.9,0,6.8l10.4,10.4v6.9
		l-8.8-8.8c-1.9-1.9-4.9-1.9-6.8,0c-1.9,1.9-1.9,4.9,0,6.8l15.7,15.7V776L70,768.5l-5.7-21.4c-0.7-2.6-3.3-4.1-5.9-3.4
		c-2.6,0.7-4.1,3.3-3.4,5.9l3.2,12.1l-5.9-3.4l-3.8-14.2c-0.7-2.6-3.3-4.1-5.9-3.4c-2.6,0.7-4.1,3.3-3.4,5.9l1.3,4.9l-5.4-3.1
		c-2.3-1.3-5.3-0.5-6.6,1.8c-1.3,2.3-0.5,5.3,1.8,6.6l5.4,3.1l-4.9,1.3c-2.6,0.7-4.1,3.3-3.4,5.9c0.7,2.6,3.3,4.1,5.9,3.4l14.2-3.8
		l5.9,3.4l-12.1,3.2c-2.6,0.7-4.1,3.3-3.4,5.9c0.7,2.6,3.3,4.1,5.9,3.4l21.4-5.7l12.8,7.4l-12.8,7.4L43.8,786
		c-2.6-0.7-5.2,0.8-5.9,3.4c-0.7,2.6,0.8,5.2,3.4,5.9l12.1,3.2l-5.9,3.4l-14.2-3.8c-2.6-0.7-5.2,0.8-5.9,3.4
		c-0.7,2.6,0.8,5.2,3.4,5.9l4.9,1.3l-5.4,3.1c-2.3,1.3-3.1,4.3-1.8,6.6c1.3,2.3,4.3,3.1,6.6,1.8l5.4-3.1l-1.3,4.9
		c-0.7,2.6,0.8,5.2,3.4,5.9c2.6,0.7,5.2-0.8,5.9-3.4l3.8-14.2l5.9-3.4L55,819c-0.7,2.6,0.8,5.2,3.4,5.9c2.6,0.7,5.2-0.8,5.9-3.4
		l5.7-21.4l12.8-7.4v14.8l-15.7,15.7c-1.9,1.9-1.9,4.9,0,6.8c1.9,1.9,4.9,1.9,6.8,0l8.8-8.8v6.9l-10.4,10.4c-1.9,1.9-1.9,4.9,0,6.8
		c1.9,1.9,4.9,1.9,6.8,0l3.6-3.6v6.2c0,2.7,2.2,4.8,4.8,4.8c2.7,0,4.8-2.2,4.8-4.8v-6.2l3.6,3.6c1.9,1.9,4.9,1.9,6.8,0
		c1.9-1.9,1.9-4.9,0-6.8L92.5,828v-6.9l8.8,8.8c1.9,1.9,4.9,1.9,6.8,0c1.9-1.9,1.9-4.9,0-6.8l-15.7-15.7v-14.8l12.8,7.4l5.7,21.4
		c0.7,2.6,3.3,4.1,5.9,3.4c2.6-0.7,4.1-3.3,3.4-5.9l-3.2-12.1l5.9,3.4l3.8,14.2c0.7,2.6,3.3,4.1,5.9,3.4c2.6-0.7,4.1-3.3,3.4-5.9
		l-1.3-4.9l5.4,3.1c2.3,1.3,5.3,0.5,6.6-1.8c1.3-2.3,0.5-5.3-1.8-6.6l-5.4-3.1l4.9-1.3C147.2,806.8,148.8,804.2,148.1,801.6z"/>
	<circle class="st0" cx="333.4" cy="908.3" r="21.3"/>
	
		<ellipse transform="matrix(0.3827 -0.9239 0.9239 0.3827 -168.9332 1386.9847)" class="st0" cx="953.4" cy="819.9" rx="24.6" ry="24.6"/>
	<circle class="st0" cx="1050.2" cy="420.1" r="24.6"/>
	<circle class="st0" cx="123.6" cy="484.4" r="24.6"/>
	<path class="st0" d="M1075.7,347.1c-3.2-4-7.5-7.1-12.8-9.2c-5.2-2-11.2-3.4-17.9-4c-5-0.4-10.1-0.7-15.2-0.7c-1.7,0-3.4,0-5.1,0.1
		c-6.8,0.2-13.6,0.7-20.1,1.5c-6.5,0.8-12.3,1.5-17.2,2.1c-5.7,0.6-12.4,1.4-19.7,2.4c-2.9,0.4-6,0.8-9.1,1.3l0-0.1
		c0.2-1.3,0.4-2.5,0.6-3.7c0.4-2.5,0.8-4.9,1.3-7.3c0.3-2.2-0.3-4.1-1.7-5.7c-2.1-2.4-6.2-3.8-11.2-3.8c-7.1,0-15,3-15.6,8.5
		c-0.4,1.8-0.7,3.7-1,5.7c-0.1,0.9-0.3,1.7-0.4,2.6l0,0.3l-1.1,6c-1.9,0.2-3.7,0.3-5.6,0.5c-7.6,0.6-15.1,1-22.2,1.3
		c-3.5,0.1-7,0.2-10.3,0.2c-3.3,0-6.5-0.1-9.6-0.2c-6.1-0.3-11.5-1-16-2.2c-5.6-1.4-10.3-3.3-13.9-5.8c-3.4-2.4-5.3-6.7-5.7-12.6
		c0-2.3-0.8-4.2-2.4-5.4c-1.5-1.1-3.1-1.7-4.9-1.7c-1.7,0-3.4,0.6-4.9,1.7c-1.6,1.2-2.4,3-2.4,5.4c0.4,7.8,2.7,14.2,6.9,19
		c4.1,4.7,9.4,8.4,15.7,11c6.3,2.5,13.4,4.2,21.3,5c6.2,0.6,12.6,1,18.9,1c1.6,0,3.2,0,4.8-0.1c7.9-0.2,15.6-0.7,23.1-1.5l4.4-0.5
		c-4.9,29.6-10.5,66.7-14.4,95.1l-0.6,4.7c-0.2,1.8-0.5,3.6-0.7,5.3c-3.6,6.9-7.4,14.4-11.6,22.4c-3,5.7-5.9,11.3-8.9,16.7
		c-3.5,6.4-7,12.6-10.4,18.5c-6.4,11-12.3,20-17.9,27.1c-5.5,7.1-9.8,10.3-12.6,9.6c-1.4-0.5-2.2-3.1-2.2-7.9
		c0-4.8,0.4-10.9,1.3-18.2c0.8-7.3,1.9-15.4,3.3-24.2c1.3-8.8,2.8-17.2,4.3-25.3c1.6-8.1,2.9-15.4,4.2-22c1.2-6.6,2.2-11.4,2.9-14.3
		c1-3.8-0.2-6.8-3.4-8.9c-3.3-2-7.1-3.3-11.6-3.6c-4.5-0.4-8.7,0.2-12.8,1.6c-4.1,1.4-6.5,3.6-7.2,6.5c-0.5,2.9-1.5,8.1-3.1,15.5
		c-1.6,7.5-2.9,15.8-4.2,25.1c-1.2,9.3-1.9,18.9-2.2,28.9c-0.2,10,0.5,19.3,2.3,27.8c1.8,8.5,4.9,15.6,9.4,21.1
		c4.5,5.5,10.9,8.5,19.3,9c3.6,0.2,7.7-1.4,12.3-4.9c4.6-3.5,9.2-8.2,13.9-14.1c4.7-5.9,9.5-12.8,14.4-20.6
		c2.6-4.1,5.1-8.2,7.6-12.4c2.3-3.9,4.6-7.8,6.9-11.8c0.6-1.1,1.2-2.1,1.8-3.2c-0.2,2.3-0.4,4.6-0.5,6.9c0,0.8-0.1,1.5-0.1,2.3
		c-2,34.1,0.8,53.3,9.1,62.1c3.3,3.5,7.5,5.3,12.5,5.3c38.4,0,66.8-134.9,68-140.6c0.5-2.9-1.1-5.4-4-6.2c-0.5-0.1-0.9-0.2-1.4-0.2
		c-2.5,0-4.7,1.8-5.2,4.3c-4.8,22.5-14,53.6-22.7,77.5c-10.3,28.2-19.7,45.1-24.9,45.1c-0.2,0-0.6-0.1-1.1-0.6
		c-5-5.5-3.6-38.1-0.8-64.3c3.4-36.2,16.1-113.2,20.2-137.2l1.4-0.2c7.2-1.1,15.1-2.4,24.2-3.8c8.6-1.3,17.5-2.4,26.4-3.3
		c5.7-0.6,11.3-0.9,16.6-0.9c2.9,0,5.8,0.1,8.6,0.3c7.8,0.5,14.7,1.8,20.6,4c5,1.8,8.7,4.7,11.2,8.5c0.5,0.8,0.9,1.8,1.1,3
		c0.3,1.5,0.9,2.8,1.8,3.7c1.3,1.3,2.8,2,4.5,2.3c0.3,0,0.6,0.1,1,0.1c1.4,0,2.8-0.4,4-1.3c1.1-0.7,2-1.8,2.6-3.2
		c0.5-1,0.7-2.2,0.7-3.5C1080.3,355.8,1078.7,350.9,1075.7,347.1z"/>
</g>
</svg>
