<?xml version="1.0" encoding="utf-8"?>
<!-- Generator: Adobe Illustrator 23.0.3, SVG Export Plug-In . SVG Version: 6.00 Build 0)  -->
<svg version="1.1" id="Layer_1" xmlns="http://www.w3.org/2000/svg" xmlns:xlink="http://www.w3.org/1999/xlink" x="0px" y="0px"
	 viewBox="0 0 1133.9 1133.9" style="enable-background:new 0 0 1133.9 1133.9;" xml:space="preserve">
<style type="text/css">
	.st0{fill:#1E2121;}
	.st1{fill:#A81F26;}
	.st2{fill:#F2F1F2;}
	.st3{fill:#DD353A;}
	.st4{fill:#CFCFCE;}
	.st5{fill:#1D2121;}
	.st6{fill:none;}
	.st7{fill:#AA1F23;}
	.st8{fill:#FDFEFE;}
	.st9{fill:#EE742C;}
	.st10{fill:#BA5234;}
	.st11{fill:#ED1C24;}
	.st12{fill:#C42C3A;}
	.st13{fill:#058743;}
	.st14{fill:#0F4D70;}
	.st15{fill-rule:evenodd;clip-rule:evenodd;fill:#C42C3A;}
	.st16{fill-rule:evenodd;clip-rule:evenodd;fill:#1E2121;}
	.st17{fill:#E8E8E8;}
	.st18{fill:#186634;}
	.st19{fill:#BF2730;}
	.st20{fill:#B47A48;}
	.st21{fill:#3E1E14;}
	.st22{fill:#DBAD5D;}
	.st23{fill:#B84947;}
	.st24{fill:#C3976E;}
	.st25{fill:#9D2023;}
	.st26{fill:#3C2517;}
	.st27{fill:#4A3A31;}
	.st28{fill:#EDAD4F;}
	.st29{fill:#F8C018;}
</style>
<g>
	<path class="st0" d="M172.6,669.2c-1.7,0-3.4,0.9-5,2.7c-1.6,1.8-2.8,4.7-3.6,8.7c-0.8,4.8-2.3,9.2-4.6,13.2c-2.3,4-5,7.4-8.2,10
		c-3.1,2.7-6.6,4.8-10.5,6.3c-3.8,1.5-7.6,2.3-11.5,2.3c-5,0-9.6-1.4-14-4.3c-4.4-2.9-7.8-7.3-10.3-13.5
		c-5.3-14.9-8.9-30.6-10.6-47.1c-1.7-16.5-2.1-32.6-1-48.3c1-15.7,3.2-30.3,6.6-43.8c3.3-13.6,7.3-24.6,11.9-33.2
		c2.1-3.8,4.7-6.6,7.9-8.4c3.2-1.8,6.3-2.7,9.6-2.7c5.9,0,11.3,2.8,16.2,8.4c4.9,5.6,7.3,14.1,7.3,25.3c0,4.2,1,7.3,3,9.3
		c2,2,4.1,3,6.2,3c1.7,0,3.2-0.6,4.6-1.9c1.3-1.2,2-3.2,2-5.9c0-8.6-1.1-16-3.4-22.3c-2.3-6.3-5.4-11.5-9.3-15.8
		c-3.9-4.2-8.5-7.3-13.9-9.3c-5.3-2-11.2-3-17.5-3c-10.1,0-19,1.8-26.6,5.4c-7.6,3.6-14.2,8.4-19.8,14.5c-5.5,6-10.1,13-13.7,21
		c-3.6,8-6.5,16.4-8.7,25.2c-2.2,8.8-3.7,17.7-4.6,26.6c-0.9,9-1.3,17.6-1.3,25.8c-0.2,15.1,0.6,28.2,2.3,39.2
		c1.7,11.1,4.6,20.8,8.6,29.1c4,8.3,9.4,15.5,16.3,21.5c6.9,6,15.4,11.5,25.5,16.5c7.4,3.6,15.1,5.4,22.9,5.4
		c6.5,0,12.6-1.2,18.5-3.7c5.8-2.5,11.1-6,15.7-10.5c4.7-4.5,8.6-9.8,11.9-16c3.2-6.2,5.5-13,6.9-20.5c0.6-2.9,0.2-5.2-1-6.9
		C176.1,670.1,174.5,669.2,172.6,669.2z M76.4,666.8c-1.1,0.1-1.9-0.3-2.3-1.3c-3.6-9.7-6.3-20.8-7.9-33.1
		c-1.6-12.3-2.1-24.8-1.4-37.4c0.7-12.6,2.6-24.8,5.9-36.5c3.2-11.7,8-22,14.3-30.8c0.6-1,1.4-1.1,2.4-0.6c1,0.6,1.3,1.3,0.7,2.3
		c-5.9,10.3-10,21.1-12.3,32.4c-2.3,11.3-3.5,22.7-3.7,34.2c-0.2,11.6,0.4,23.2,1.7,34.8c1.3,11.6,2.7,23,4,34.1
		C78,666,77.5,666.7,76.4,666.8z M90.1,695.7c-1,0.7-1.8,0.5-2.6-0.4c-1.3-1.5-2.4-3.1-3.3-4.7c-0.9-1.6-1.7-3.2-2.4-4.7
		c-0.6-1.1-0.4-2,0.4-2.6c0.9-0.6,1.7-0.4,2.4,0.6c2.1,2.9,4.1,6,6,9.5C91.2,694.2,91,695,90.1,695.7z"/>
	<path class="st0" d="M312.6,628.4c-1.1-8.3-2.7-15.6-4.6-21.8c-1.9-6.2-4.2-10.9-6.7-14.2c-2.6-3.2-5.5-4.3-8.7-3.1
		c-7.4,2.9-14.2,6.6-20.3,11.3c-6.1,4.7-11.7,10-16.8,16c-5.1,6-9.5,12.5-13.5,19.5c-3.9,7-7.3,14.2-10.2,21.6
		c-0.6-10.1-1.1-20.8-1.4-31.9c-0.4-11.2-0.7-22.3-0.9-33.5c-0.2-11.2-0.3-22-0.3-32.4c0-10.4,0-19.9-0.1-28.6
		c-0.1-8.7-0.2-16.2-0.3-22.5c-0.1-6.3-0.2-10.9-0.4-13.7c-0.4-4.2-2.1-7.3-5.3-9.5c-3.2-2.1-6.7-3.2-10.7-3.2
		c-2.9,0-5.7,0.5-8.6,1.4c-2.9,1-5.4,2.4-7.7,4.4c-2.3,2-4.2,4.5-5.7,7.6c-1.5,3.1-2.3,6.6-2.3,10.6c0,2.3,0.2,7.6,0.6,15.9
		c0.4,8.3,1,18.3,1.7,30.1c0.8,11.7,1.7,24.7,2.9,38.8c1.1,14.1,2.5,28.1,4,42c1.5,13.8,3.2,27,5.2,39.5c1.9,12.5,4,23.1,6.3,31.6
		c1.1,4.4,3,7.6,5.4,9.6c2.5,2,5.1,3,7.7,3c4,0,7.6-2.1,10.7-6.2c3.1-4.1,4.2-9.8,3-17c3.2-8.2,6.6-16.6,10-25.2
		c3.4-8.6,6.9-16.6,10.3-24.1c3.4-7.4,7-14,10.6-19.8c3.6-5.7,7.2-9.9,10.6-12.6c1.9,3.1,3.6,8.1,5,15c1.4,7,2.6,14.5,3.6,22.6
		c1,8.1,1.5,16.3,1.7,24.5c0.2,8.2-0.1,15.2-0.9,20.9c-1,6.7-0.4,11.4,1.6,14.2c2,2.8,4.4,4.2,7.3,4.2c2.7,0,5.3-1,8-3
		c2.7-2,4.5-4.6,5.4-7.9c2.1-6.7,3.6-14.3,4.6-22.8c1-8.5,1.3-17.1,1.1-25.9C314.4,645.2,313.7,636.7,312.6,628.4z M214.5,679.4
		c-1.2,0.3-2.1-0.1-2.4-1.3c-3.2-14.3-5.9-28.8-7.9-43.5c-2-14.7-3.6-29.4-4.9-44.1c-1.2-14.7-2.3-29.5-3.2-44.4
		c-0.9-14.9-1.8-29.6-2.7-44.1c0-1.3,0.6-2,1.7-1.9c1.1,0.1,1.8,0.7,2,1.9c1.3,14.5,2.4,29.1,3.3,43.8c0.9,14.7,1.9,29.4,3.2,44.1
		c1.2,14.7,2.8,29.3,4.6,43.8c1.8,14.5,4.3,28.9,7.6,43.2C216.2,678.3,215.8,679.1,214.5,679.4z M221.7,703.7
		c-1.1,0.7-1.9,0.4-2.4-0.7c-0.8-1.5-1.5-3.1-2.1-4.9c-0.7-1.7-1.2-3.4-1.6-5.2c-0.4-1.1,0-1.9,1.1-2.1c1.1-0.3,1.9,0.1,2.3,1.3
		c0.6,1.5,1.1,3.1,1.7,4.6c0.6,1.5,1.1,3.1,1.7,4.6C223,702.2,222.7,703,221.7,703.7z M296.8,693.5c0,1.1-0.6,1.7-1.9,1.7
		c-1.2,0-1.9-0.6-1.9-1.7c0.4-7.8,0.6-15.5,0.7-23.1c0.1-7.5-0.1-15.1-0.7-22.6c-0.6-7.5-1.7-15-3.3-22.3c-1.6-7.3-4-14.6-7-21.6
		c-0.4-1,0-1.7,1-2.1c1-0.5,1.8-0.2,2.1,0.7c6.5,14.3,10.2,29.2,11,44.5C297.8,662.4,297.8,677.9,296.8,693.5z"/>
	<path class="st0" d="M430.6,606.8c0.2-5.5,0.1-12-0.3-19.5c-0.2-3.8-1.6-6.5-4.3-8.2c-2.7-1.6-5.6-2.4-8.9-2.4
		c-5.3,0-9.8,1.5-13.5,4.6c-6.3,5.2-12,11.9-17,20.2c-5.1,8.3-9.4,16.7-13,25.1c-3.6,8.4-6.5,16.3-8.6,23.8
		c-2.1,7.4-3.4,12.9-4,16.3c0-3.6,0.1-8.7,0.4-15.2c0.3-6.5,0.7-13.3,1.3-20.5c0.6-7.2,1.1-14,1.6-20.5c0.5-6.5,0.8-11.5,1-15.2
		c0.2-3.1-0.2-5.6-1.1-7.7c-1-2.1-2.3-3.8-4-5.2c-1.7-1.3-3.6-2.3-5.7-3c-2.1-0.7-4.3-1-6.6-1c-4,0-7.7,1-11,2.9c-3.3,1.9-5,4.6-5,8
		c0,2.7,0.2,7.5,0.6,14.6c0.4,7.1,0.9,15.1,1.4,24.1c0.6,9,1.2,18.5,2,28.6c0.8,10.1,1.5,19.6,2.1,28.4c0.7,8.8,1.3,16.5,1.9,23.1
		c0.6,6.6,1,11,1.1,13.3c0.4,2.1,1.6,3.8,3.7,5c2.1,1.2,4.5,1.9,7.2,1.9c3.2,0,6.5-1,9.7-3.1c3.2-2.1,5.3-5.6,6.3-10.6
		c2.1-10.1,4.5-20.3,7.3-30.6c2.8-10.3,5.8-20.1,9.2-29.4c3.3-9.3,7.1-17.8,11.2-25.8c4.1-7.9,8.4-14.6,13-20.2
		c-0.4,3.6-0.6,7.3-0.6,10.9c0,3.6-0.1,6.1-0.3,7.4c-0.2,3.2,0.8,5.7,2.9,7.3c2.1,1.6,4.5,2.4,7.2,2.4c3.2,0,6.3-1,9.2-3.1
		c2.9-2.1,4.2-5.2,4-9.5C430.5,618,430.4,612.3,430.6,606.8z M345.8,701c-1-18.5-1.9-37-2.7-55.6c-0.9-18.5-1.7-37-2.4-55.6
		c0-1.3,0.6-2,1.7-1.9c1.1,0.1,1.8,0.7,2,1.9c1,18.5,1.9,37,2.7,55.6c0.9,18.5,1.7,37,2.4,55.6c0.2,1.3-0.3,2-1.6,2
		C346.7,703,346,702.3,345.8,701z M353.1,721.3c-0.9,0.8-1.8,0.8-2.7,0c-1.1-1-2-2.1-2.4-3.3c-0.5-1.2-0.8-2.6-1-4.2
		c-0.2-1.1,0.3-1.7,1.6-1.7c1.2,0,1.9,0.6,1.9,1.7c0.2,1.7,1,3.3,2.6,4.9C353.9,719.7,354,720.6,353.1,721.3z"/>
	<path class="st0" d="M459.1,569.1c3.3,2.2,6.9,3.2,10.7,3c4.4-0.2,8.2-2,11.3-5.3c3.2-3.3,5.5-6.9,7-10.7c1.7-4.6,2-8.8,1-12.6
		c-1.1-3.8-2.7-7.1-4.9-9.7c-2.2-2.7-4.6-4.7-7.3-6.2c-2.7-1.4-4.8-2.1-6.3-2.1c-5.2,0.4-9.4,1.8-12.7,4.2c-3.3,2.4-5.8,5.3-7.3,8.6
		c-1.5,3.3-2.2,7-2,10.9c0.2,3.9,1.1,7.7,2.9,11.3C453.2,564,455.7,566.9,459.1,569.1z M455.2,543.2c1-4.2,3.2-7.7,6.6-10.6
		c1-0.8,1.9-0.7,2.7,0.1c0.9,0.9,0.8,1.7-0.1,2.4c-2.9,2.5-4.7,5.4-5.6,8.7c-0.9,3.3-0.5,6.6,1,9.9c0.4,1,0,1.7-1.1,2.1
		c-1.1,0.5-1.9,0.2-2.3-0.7C454.6,551.4,454.2,547.4,455.2,543.2z"/>
	<path class="st0" d="M485.6,679.9c-2.3-11-3.8-21.5-4.6-31.6c-0.8-10.1-0.9-19.6-0.3-28.5c0.6-8.9,1.8-16.7,3.7-23.3
		c0.4-1.5,0-3-1-4.3c-1.1-1.3-2.5-2.5-4.4-3.4c-1.9-1-4.2-1.8-6.9-2.4c-2.7-0.7-5.3-1-8-1c-3.8,0-7.4,0.8-10.9,2.4
		c-3.4,1.6-5.7,4.4-6.9,8.4c-1,6.1-1.6,13.6-2,22.3c-0.4,8.8,0,18.3,1.3,28.6c1.2,10.3,3.5,21,6.7,32.1c3.2,11.1,7.9,22,14,32.6
		c2.1,3.8,4.8,6.5,8,8c3.2,1.5,6.5,2.3,9.7,2.3c3.4,0,6.3-0.8,8.7-2.4c2.4-1.6,3.1-3.8,2.1-6.4C491,702,487.8,690.9,485.6,679.9z
		 M478.1,709.9c-1,1-1.9,1-2.9,0c-6.3-7.1-11.4-15.2-15.2-24.5c-3.8-9.3-6.6-18.9-8.3-28.9c-1.7-10-2.4-20.1-2-30.4
		c0.4-10.2,1.7-19.7,4-28.5c0.4-1.1,1.1-1.6,2.1-1.3c1,0.3,1.5,1,1.3,2.1c-1.1,8.8-1.8,18.1-2,27.9c-0.2,9.8,0.4,19.6,1.9,29.2
		c1.4,9.6,3.8,18.9,7.2,27.8c3.3,8.9,8,16.8,13.9,23.6C479.1,708,479.1,708.9,478.1,709.9z"/>
	<path class="st0" d="M590.5,653.3c-5.6-5.2-12.4-11.1-20.2-17.6c-3.2-2.3-7-5.4-11.3-9.5c-4.3-4-8-8.2-11.2-12.5
		c-3.2-4.3-5.2-8.4-6.2-12.5c-1-4,0.3-7.2,3.7-9.5c2.3-1.3,4.8-2.4,7.4-3.3c2.7-0.9,5.3-1.3,8-1.3c2.9,0,5.6,0.6,8.2,1.9
		c2.6,1.2,4.6,3.2,6.2,5.9c1.7,2.9,2.3,6.1,1.7,9.6c-0.6,3.5-1.1,6.8-1.4,9.9c-0.6,3.4,0.2,6.2,2.4,8.2c2.2,2,4.6,3,7.3,3
		c1.7,0,3.2-0.5,4.6-1.6c1.3-1,2.2-2.6,2.6-4.7c1.1-7.1,1.3-13.9,0.6-20.5c-0.8-6.6-3.8-12.8-9.2-18.8c-2.9-3.4-6.4-5.9-10.7-7.4
		c-4.3-1.5-8.8-2.3-13.6-2.3c-4.4,0-8.7,0.6-12.9,1.7c-4.2,1.1-8,2.7-11.5,4.6c-5.5,3.1-10.1,6.8-13.7,11.2c-3.6,4.4-6.2,9.1-7.7,14
		c-1.5,5-2,10-1.3,15.2c0.7,5.2,2.6,10,5.9,14.6c3.6,5.3,7.9,10.4,12.9,15c5,4.7,10.2,9,15.7,13c13.4,9.7,22.1,18.3,26.3,25.8
		c4.2,7.4,3.7,13.4-1.4,17.8c-3.6,2.3-7.5,3.4-11.7,3.4c-4.4,0-8.6-1.1-12.7-3.3c-4.1-2.2-7.6-4.9-10.6-8c-3-3.1-5-6.5-6.2-10
		c-1.1-3.5-0.9-6.7,0.9-9.6c2.1-3.6,2.2-6.9,0.4-9.9c-1.8-3-4.1-4.4-6.7-4.4c-2.5,0-4.6,1.2-6.3,3.7c-4.6,6.5-6.3,13.2-5.3,20.2
		c1.1,7,3.9,13.3,8.4,19c4.6,5.7,10.5,10.5,17.8,14.2c7.3,3.7,14.9,5.6,22.9,5.6c4,0,8-0.5,12-1.6c4-1,7.9-2.9,11.7-5.6
		c2.5-1.7,5.2-4.2,8.2-7.3c3-3.1,5.5-6.8,7.6-11c2.1-4.2,3.4-8.8,3.9-13.9c0.5-5.1-0.5-10.2-3-15.3
		C600.3,663.9,596.1,658.6,590.5,653.3z M579.2,591.9c-0.4-1.1,0-1.9,1.1-2.1c1.1-0.3,1.9,0.1,2.3,1.3c2.1,8,2.1,16,0,24.1
		c-0.4,1.1-1.1,1.5-2.3,1.1c-1.1-0.4-1.5-1.1-1.1-2.3c1-3.6,1.4-7.3,1.4-10.9C580.6,599.4,580.1,595.7,579.2,591.9z M526.1,693.1
		c-0.9,0.9-1.7,0.8-2.4-0.1c-2.7-2.9-4.2-6.1-4.7-9.7c-0.5-3.6,0-7.2,1.6-10.6c0.4-1,1.1-1.2,2.3-0.9c1.1,0.4,1.5,1.1,1.1,2
		c-1.5,2.7-2.1,5.5-1.6,8.4c0.5,3,1.8,5.7,3.9,8.2C527,691.3,526.9,692.2,526.1,693.1z M582.6,699.8c-0.4,1.1-1.1,1.5-2.3,1.1
		c-1.1-0.4-1.5-1.1-1.1-2.3c1-4,0.9-7.7-0.1-11c-1.1-3.3-2.7-6.4-5-9.3c-2.3-2.9-4.8-5.5-7.6-8c-2.8-2.5-5.4-5-7.9-7.4
		c-4-4-8-8-11.9-11.9c-3.9-3.9-7.8-7.9-11.6-11.9c-5-5.2-9.1-10.5-12.3-15.9c-3.2-5.4-4.4-11.9-3.4-19.3c0.2-1,0.9-1.5,2-1.6
		c1.1-0.1,1.7,0.4,1.7,1.6c-0.6,6.3,0.8,12.6,4.2,18.8c3.3,6.2,7.5,12.1,12.6,17.8c5.1,5.6,10.5,10.9,16.2,15.9
		c5.7,5,10.7,9.5,14.9,13.7c4.4,4.4,7.9,8.8,10.5,13.2C583.9,687.6,584.3,693.2,582.6,699.8z"/>
	<path class="st0" d="M698.6,563c2.9,0,5-0.9,6.4-2.7c1.4-1.8,2.1-3.9,2.1-6.2c0-2.3-0.7-4.3-2.1-6.2c-1.4-1.8-3.6-2.7-6.4-2.7
		c-6.9,0-13.7,0.2-20.3,0.6c-6.7,0.4-13.4,0.9-20,1.4c-0.2-9.9-0.2-18.4,0-25.5c0.2-7.1,0.5-14.4,0.9-22c0-3.8-1.6-6.7-4.7-8.7
		c-3.1-2-6.8-3-11-3c-2.9,0-5.7,0.5-8.6,1.4c-2.9,1-5.5,2.4-7.9,4.4c-2.4,2-4.3,4.4-5.9,7.3c-1.5,2.9-2.3,6.3-2.3,10.3
		c0,3.4,0,8.9,0,16.5c0,7.5,0.1,15.8,0.3,24.8c-5.5,0.8-11.4,1.9-17.5,3.4c-2.7,0.6-4.4,1.9-5.3,4c-0.9,2.1-1,4.2-0.4,6.3
		c0.6,2.1,1.8,3.9,3.6,5.3c1.8,1.4,4.2,1.9,7,1.3l12.9-2.6c0.2,6.3,0.4,13.8,0.7,22.5c0.3,8.7,0.8,17.8,1.4,27.3
		c0.7,9.5,1.5,19.2,2.4,29.1c1,9.8,2.2,19.2,3.9,28.1c1.6,8.9,3.5,16.9,5.7,24.2c2.2,7.3,4.8,13.1,7.9,17.5c2.3,3.2,5.6,4.9,10,4.9
		c2.1,0,4.2-0.4,6.3-1.3c2.1-0.9,4-2.1,5.6-3.6c1.6-1.5,2.9-3.4,3.9-5.7c1-2.3,1.2-4.9,0.9-7.7c-0.4-1.9-0.8-5.3-1.3-10.2
		c-0.5-4.9-1-10.5-1.4-16.8c-0.5-6.3-1.1-13.1-1.7-20.3c-0.7-7.3-1.2-14.3-1.7-21c-0.5-6.8-0.9-13.1-1.3-18.9
		c-0.4-5.8-0.7-10.4-0.9-13.6c-0.4-8-0.7-15.3-0.9-21.8c-0.2-6.5-0.4-12.5-0.6-18c6.7-0.8,13.4-1.3,20.2-1.6
		C685.2,563.1,691.9,563,698.6,563z M632.7,656.6c-4-25.6-6.8-51.3-8.3-77c-1.5-25.8-0.7-51.6,2.6-77.6c0.2-1.1,0.9-1.7,2-1.7
		c1.1,0,1.7,0.6,1.7,1.7c-3.4,51.9-1.6,103.2,5.4,153.8c0.4,1.1,0,1.9-1.3,2.3C633.6,658.4,632.9,657.9,632.7,656.6z M640.2,695.7
		c-1.1,0.3-1.9-0.1-2.3-1.3c-1-3.8-1.6-7.7-2-11.6c-0.4-3.9-0.6-7.9-0.6-11.9c0.2-1.1,0.9-1.7,2-1.7c1.1,0,1.7,0.6,1.7,1.7
		c0,7.6,0.9,15.2,2.6,22.6C641.8,694.7,641.3,695.4,640.2,695.7z"/>
	<path class="st0" d="M830.9,573.3c-2.9,0-5.9,0.8-9.2,2.3c-3.2,1.5-6.5,3.9-9.7,7.2c-6.7,6.7-11.9,14.4-15.6,23.2
		c-3.7,8.8-7.2,17.6-10.5,26.3c0-6.9-0.4-13.9-1.3-21c-0.9-7.2-2.1-13.6-3.9-19.5c-1.7-5.8-3.8-10.5-6.3-14.2
		c-2.5-3.6-5.4-5.4-8.9-5.4c-3.4,0-6.9,1.6-10.5,4.9c-3.5,3.2-7,7.4-10.3,12.6c-3.3,5.2-6.5,10.9-9.6,17.2
		c-3.1,6.3-5.8,12.5-8.2,18.6c-2.4,6.1-4.4,11.7-6.2,16.9c-1.7,5.2-3,9.2-3.7,12c0-1.9,0-5.7,0-11.3c0-5.6,0-11.9-0.1-18.8
		c-0.1-6.9-0.2-13.9-0.3-21c-0.1-7.2-0.2-13.1-0.4-17.9c-0.4-5-2.5-8.6-6.3-11c-3.8-2.4-8-3.6-12.6-3.6c-4.6,0-8.7,1.1-12.5,3.3
		c-3.7,2.2-5.6,5.2-5.6,9c0.2,5.9,0.5,13.4,0.9,22.3c0.4,9,0.9,18.4,1.6,28.2c0.7,9.8,1.5,19.8,2.4,29.8c1,10,2,19.2,3,27.5
		c1.1,8.3,2.2,15.2,3.6,20.8c1.3,5.5,2.7,8.9,4,10c3.1,2.1,6.2,3.2,9.4,3.2c3.6,0,6.7-1.1,9.2-3.4c2.7-2.5,4.3-4.8,4.9-6.9
		c0.6-2.1,0.9-4.9,0.9-8.3c-0.2-7.4,0.9-15.7,3.3-24.9c2.4-9.2,5.3-18.2,8.7-27.1c3.4-8.9,7-17.1,10.7-24.8
		c3.7-7.6,6.8-13.5,9.3-17.5c0.4,7.1,0.7,14.8,0.9,23.3c0.2,8.5,0.4,17.1,0.7,25.8c0.3,8.7,0.6,17.2,0.9,25.5s0.7,15.9,1.3,22.8
		c0.4,4.2,2.3,7.6,5.7,10.2c3.4,2.6,7.2,3.9,11.2,3.9c3.8,0,7.2-1.4,10-4.2c2.9-2.8,4.3-7.3,4.3-13.6c0-8.8,1-17.9,2.9-27.5
		c1.9-9.5,4.3-18.8,7.2-27.6c2.9-8.9,6.1-16.9,9.6-24.1c3.5-7.2,6.8-12.6,9.9-16.5c-1.1,7.1-1.9,14.5-2.3,22.3
		c-0.4,7.8-0.5,15.5-0.4,22.9c0.1,7.4,0.4,14.4,0.9,20.8c0.5,6.4,1,11.5,1.6,15.3c1.5,10.5,4.2,17.7,8.2,21.6
		c3.9,3.9,7.8,5.9,11.6,5.9c3.8,0,7.1-1.1,9.7-3.4c2.7-2.3,3.8-4.4,3.4-6.3c-2.3-9.2-3.8-19-4.4-29.6c-0.7-10.6-0.8-21-0.4-31.2
		c0.4-10.2,1.1-19.7,2.1-28.3c1-8.7,2.1-15.6,3-20.8c1.3-7.1,0.2-13.1-3.3-18.2C841.8,575.8,837,573.3,830.9,573.3z M696.3,702.1
		c-3.8-19.7-6.5-39.3-8-59c-1.5-19.7-1-39.4,1.4-59.3c0.2-1.1,0.9-1.7,2-1.7c1.1,0,1.7,0.6,1.7,1.7c-1.5,19.9-1.5,39.5,0.1,58.8
		c1.6,19.4,3.7,38.9,6.2,58.6c0.2,1.1-0.3,1.9-1.4,2.3C697.2,703.9,696.5,703.5,696.3,702.1z M701.5,715.7c-1.3,0.3-2.2-0.1-2.6-1.3
		c-0.2-0.4-0.3-0.9-0.4-1.4c-0.1-0.6-0.2-1-0.4-1.4c-0.4-1.1,0-1.9,1.1-2.1c1.1-0.3,1.9,0.1,2.3,1.3c0.4,1.1,0.8,2.1,1.1,2.9
		C703.2,714.7,702.8,715.4,701.5,715.7z M760.7,689.8c-0.6-16.4-1-32.8-1.3-49.1c-0.3-16.3-0.6-32.7-1-49.1
		c-0.2-1.1,0.3-1.7,1.6-1.7c1.2,0,1.9,0.6,1.9,1.7c1.1,32.5,2,65.2,2.6,98.2c0,1.1-0.6,1.7-1.9,1.7
		C761.4,691.5,760.7,691,760.7,689.8z M768,711.1c-0.9,0.9-1.7,0.8-2.4-0.1c-1.3-1.3-2.4-2.9-3.1-4.6c-0.8-1.7-1-3.5-0.6-5.4
		c0.2-1.1,0.9-1.7,2-1.7c1.1,0,1.7,0.6,1.7,1.7c0,3.2,0.9,5.7,2.6,7.4C768.9,709.4,768.9,710.3,768,711.1z M821.2,671.8
		c-1.1-13.7-1.2-27.2-0.3-40.4c1-13.2,2.3-26.6,4-40.4c0.2-1.1,0.9-1.5,2.1-1.1c1.2,0.4,1.7,1.1,1.3,2.3c-4,26.3-5.2,52.9-3.4,79.6
		c0,1.1-0.6,1.7-1.7,1.7C822,673.5,821.3,672.9,821.2,671.8z M832.5,705.4c-1.1,0.7-1.9,0.5-2.4-0.4c-1.7-3.1-3.2-6.1-4.6-9.2
		c-1.3-3.1-2.3-6.2-2.9-9.5c-0.4-1.1,0-1.9,1.1-2.3c1.1-0.4,1.9,0,2.3,1.1c1,3.2,2,6.3,3.1,9.2c1.1,2.9,2.5,5.7,4,8.6
		C833.8,703.9,833.5,704.8,832.5,705.4z"/>
	<path class="st0" d="M979.4,658.6c-0.9-15.3-1-28.2-0.4-38.8c0.6-10.6,1.2-19.1,1.9-25.6c0.7-6.5,0-11.3-2.1-14.3
		c-1.1-1.7-2.7-2.9-4.6-3.4c-1.9-0.6-3.9-0.9-6-0.9c-2.1,0-4.1,0.1-6,0.4c-1.9,0.3-3.6,0.6-5.2,1c-3.4,0.8-6.3,2.5-8.6,5.3
		c-2.3,2.8-4.3,6.1-5.9,9.9c-1.6,3.8-3,7.8-4.2,12c-1.1,4.2-2.4,8.1-3.7,11.7c-2.5-3.8-5.2-7.6-8-11.5c-2.9-3.8-5.9-7.3-9-10.3
		c-3.1-3.1-6.3-5.5-9.6-7.3c-3.2-1.8-6.6-2.7-10-2.7c-3.4,0-6.8,1.1-10.2,3.3c-3.3,2.2-6.6,6-9.9,11.3c-5.2,8.4-9,17.2-11.5,26.5
		c-2.5,9.3-3.9,18.4-4.2,27.3c-0.3,9,0.4,17.5,2.1,25.5c1.7,8,4.2,15.1,7.3,21.3c3.1,6.2,6.9,11.1,11.2,14.7
		c4.3,3.6,8.9,5.4,13.9,5.4c4.2,0,8.6-1.4,13.2-4.3c4.4-2.9,8.4-8.1,12.2-15.8c3.7-7.6,7.1-15.9,10.2-24.8
		c3.1-8.9,5.8-17.4,8.2-25.6c2.4-8.2,4.2-14.3,5.6-18.3c0,6.7,0.1,14.3,0.4,22.8c0.3,8.5,1.1,16.9,2.4,25.3
		c1.3,8.4,3.3,16.3,5.9,23.8c2.6,7.4,6.2,13.6,10.7,18.3c1,1,2.2,1.7,3.7,2.3c1.5,0.6,3.2,0.9,4.9,0.9c1.9,0,3.8-0.3,5.7-0.9
		c1.9-0.6,3.6-1.3,5-2.3c1.4-1,2.5-2.2,3.1-3.7c0.7-1.5,0.8-3.1,0.4-4.9C983.2,691.8,980.2,673.9,979.4,658.6z M871.4,649.6
		c-0.7,14.8,2.4,29.1,9.3,42.8c0.6,1.1,0.3,2.1-0.7,2.7c-1.1,0.7-1.9,0.4-2.4-0.7c-7.6-14.3-10.8-29.2-9.5-44.5c1.3-15.4,6-30,14-44
		c0.6-1,1.4-1.1,2.4-0.6c1,0.6,1.3,1.3,0.7,2.3C876.7,620.8,872.1,634.8,871.4,649.6z M895.2,710.9c-0.3,1.2-1,1.7-2.1,1.3
		c-1.9-0.4-3.5-1.1-4.9-2.3c-1.3-1.1-2.4-2.5-3.1-4c-0.6-1.1-0.3-2,0.9-2.6c1.1-0.6,1.9-0.4,2.3,0.6c1.1,2.5,3.1,4,5.7,4.6
		C895,708.8,895.5,709.6,895.2,710.9z M920.5,666.3c-1.3,4.2-2.8,8.3-4.4,12.3c-1.6,4-3.2,7.5-4.7,10.5c-1.5,3-3,5.2-4.4,6.7
		c-1.4,1.5-2.7,2-3.9,1.4c-3.1-1.5-5.3-4.1-6.9-7.7c-1.5-3.6-2.6-7.8-3.3-12.5c-0.7-4.7-1.1-9.8-1.1-15.3c-0.1-5.5-0.1-11-0.1-16.3
		c0-3.6,0.3-7.7,0.9-12.3c0.6-4.6,1.4-8.9,2.6-13c1.1-4.1,2.7-7.6,4.6-10.5c1.9-2.9,4.1-4.3,6.6-4.3c2.3,0,5,1.4,8,4.3
		c2.1,2.1,4.2,4.4,6.2,6.9c2,2.5,3.8,4.9,5.3,7.2c1.7,2.5,3.3,5.1,4.9,7.7C927.1,644.6,923.8,656.2,920.5,666.3z M962.3,700.4
		c-1.1,0.4-1.9-0.1-2.3-1.4c-5-17.9-8-36-9-54.1c-1.1-18.1,0.6-36.3,5-54.4c0.4-1.1,1.1-1.6,2.1-1.3c1,0.3,1.5,1,1.3,2.1
		c-3.2,18.1-4.5,36-3.7,53.5c0.8,17.6,3.3,35.3,7.7,53.3C963.9,699.3,963.5,700,962.3,700.4z M973.5,717.4c-0.6,1.1-1.3,1.2-2.3,0.4
		c-1.5-1-2.8-2-3.9-3.1c-1.1-1.1-2.1-2.4-3-3.7c-0.8-1-0.6-1.7,0.4-2.3c1-0.6,2-0.4,2.7,0.6c1.5,2.1,3.3,3.9,5.4,5.4
		C973.9,715.5,974.1,716.4,973.5,717.4z"/>
	<path class="st0" d="M1091.8,669.5c-2.7-5.5-6.8-10.9-12.5-16.2c-5.6-5.2-12.4-11.1-20.2-17.6c-3.2-2.3-7-5.4-11.3-9.5
		c-4.3-4-8-8.2-11.2-12.5c-3.2-4.3-5.2-8.4-6.2-12.5c-1-4,0.3-7.2,3.7-9.5c2.3-1.3,4.8-2.4,7.4-3.3c2.7-0.9,5.3-1.3,8-1.3
		c2.9,0,5.6,0.6,8.2,1.9c2.6,1.2,4.6,3.2,6.2,5.9c1.7,2.9,2.3,6.1,1.7,9.6c-0.6,3.5-1.1,6.8-1.4,9.9c-0.6,3.4,0.2,6.2,2.4,8.2
		c2.2,2,4.6,3,7.3,3c1.7,0,3.2-0.5,4.6-1.6c1.3-1,2.2-2.6,2.6-4.7c1.1-7.1,1.3-13.9,0.6-20.5c-0.8-6.6-3.8-12.8-9.2-18.8
		c-2.9-3.4-6.4-5.9-10.7-7.4c-4.3-1.5-8.8-2.3-13.6-2.3c-4.4,0-8.7,0.6-12.9,1.7c-4.2,1.1-8,2.7-11.5,4.6
		c-5.5,3.1-10.1,6.8-13.7,11.2c-3.6,4.4-6.2,9.1-7.7,14c-1.5,5-2,10-1.3,15.2c0.7,5.2,2.6,10,5.9,14.6c3.6,5.3,7.9,10.4,12.9,15
		c5,4.7,10.2,9,15.8,13c13.4,9.7,22.1,18.3,26.3,25.8c4.2,7.4,3.7,13.4-1.4,17.8c-3.6,2.3-7.5,3.4-11.7,3.4c-4.4,0-8.6-1.1-12.7-3.3
		c-4.1-2.2-7.6-4.9-10.6-8c-3-3.1-5-6.5-6.2-10c-1.1-3.5-0.9-6.7,0.9-9.6c2.1-3.6,2.2-6.9,0.4-9.9c-1.8-3-4.1-4.4-6.7-4.4
		c-2.5,0-4.6,1.2-6.3,3.7c-4.6,6.5-6.3,13.2-5.3,20.2c1.1,7,3.9,13.3,8.4,19c4.6,5.7,10.5,10.5,17.8,14.2c7.3,3.7,14.9,5.6,22.9,5.6
		c4,0,8-0.5,12-1.6c4-1,7.9-2.9,11.7-5.6c2.5-1.7,5.2-4.2,8.2-7.3c3-3.1,5.5-6.8,7.6-11c2.1-4.2,3.4-8.8,3.9-13.9
		C1095.2,679.7,1094.2,674.6,1091.8,669.5z M1068,591.9c-0.4-1.1,0-1.9,1.1-2.1c1.1-0.3,1.9,0.1,2.3,1.3c2.1,8,2.1,16,0,24.1
		c-0.4,1.1-1.1,1.5-2.3,1.1c-1.1-0.4-1.5-1.1-1.1-2.3c1-3.6,1.4-7.3,1.4-10.9C1069.4,599.4,1068.9,595.7,1068,591.9z M1014.9,693.1
		c-0.9,0.9-1.7,0.8-2.4-0.1c-2.7-2.9-4.2-6.1-4.7-9.7c-0.5-3.6,0-7.2,1.6-10.6c0.4-1,1.1-1.2,2.3-0.9c1.1,0.4,1.5,1.1,1.1,2
		c-1.5,2.7-2.1,5.5-1.6,8.4c0.5,3,1.8,5.7,3.9,8.2C1015.8,691.3,1015.7,692.2,1014.9,693.1z M1071.4,699.8c-0.4,1.1-1.1,1.5-2.3,1.1
		c-1.1-0.4-1.5-1.1-1.1-2.3c1-4,0.9-7.7-0.1-11c-1.1-3.3-2.7-6.4-5-9.3c-2.3-2.9-4.8-5.5-7.6-8c-2.8-2.5-5.4-5-7.9-7.4
		c-4-4-8-8-11.9-11.9c-3.9-3.9-7.8-7.9-11.6-11.9c-5-5.2-9.1-10.5-12.3-15.9c-3.2-5.4-4.4-11.9-3.4-19.3c0.2-1,0.9-1.5,2-1.6
		c1.1-0.1,1.7,0.4,1.7,1.6c-0.6,6.3,0.8,12.6,4.2,18.8c3.3,6.2,7.5,12.1,12.6,17.8c5.1,5.6,10.5,10.9,16.2,15.9
		c5.7,5,10.7,9.5,14.9,13.7c4.4,4.4,7.9,8.8,10.5,13.2C1072.7,687.6,1073.1,693.2,1071.4,699.8z"/>
	<path class="st0" d="M424.8,434c-1.5-15.3-2.6-31.8-3.3-49.5c-0.7-17.8-1-36-1-54.8c0-18.8,0.2-36.7,0.6-53.7
		c0.2-5-1.7-8.8-5.6-11.6c-3.9-2.8-8.4-4.2-13.3-4.2c-2.7,0-5.3,0.4-7.9,1.1c-2.6,0.8-5,2-7.3,3.7c-1.9,1.5-3.5,3.9-4.9,7.2
		c-1.3,3.2-3.2,7.4-5.7,12.3c-1.7,3.8-3.8,8.5-6.3,14.2c-2.5,5.6-5.1,11.6-7.9,17.8c-2.8,6.2-5.6,12.6-8.6,19
		c-3,6.5-5.8,12.5-8.4,18c-1.5,3.2-3.2,6.5-4.9,9.9c-1.7,3.3-3.3,6.6-4.9,9.9c-9.2-16.6-18.1-33.2-26.9-49.7
		c-8.8-16.5-17.5-33.2-26.1-50c-0.8-1.3-1.6-2.3-2.6-2.9c-1.7-2.3-4.1-4.1-7-5.3c-3-1.2-6.1-1.9-9.3-1.9c-4.6,0-8.3,0.7-11,2
		c-2.8,1.3-4.9,3.2-6.4,5.6c-1.5,2.4-2.6,5.2-3.3,8.4c-0.7,3.2-1.2,6.9-1.6,10.9l-1.4,42.7c-1,29.8-0.9,56.4,0.3,79.8
		c1.1,23.4,3.1,43.2,6,59.4c1.1,6.5,3.2,11.7,6.2,15.7c3,4,8.6,6,17,6c4.2,0,8-0.2,11.3-0.6c3.3-0.4,6.1-1.2,8.3-2.4
		c2.2-1.2,3.7-3.1,4.4-5.7c0.8-2.6,0.6-6-0.6-10.2c-2.3-8.4-4.1-18.6-5.4-30.6c-1.3-12-2.4-25.2-3.3-39.5c-0.9-14.3-1.4-29.3-1.6-45
		c-0.2-15.7-0.3-31.1-0.3-46.4c7.3,14.1,14.8,28.1,22.6,41.8c7.8,13.7,15.6,27.7,23.2,41.8c0.8,1.5,1.8,2.6,3,3.1
		c1.2,0.6,2.6,0.9,4.2,0.9c2.1,0,4.2-0.6,6.2-1.7c2-1.1,3.4-2.6,4.2-4.3c1.1-2.3,3.1-6.2,5.7-11.6c2.7-5.4,5.6-11.4,8.7-17.8
		c3.1-6.4,6.3-12.9,9.6-19.5c3.2-6.6,6-12.2,8.3-16.8c-1,29.8-0.7,56.3,0.7,79.6c1.4,23.3,3.4,43.1,5.9,59.3c1,6.5,3,11.8,6,15.9
		c3.1,4.1,8.7,6.2,16.9,6.2c4.2,0,8-0.2,11.5-0.6c3.4-0.4,6.3-1.2,8.4-2.6c2.2-1.3,3.7-3.2,4.4-5.7c0.8-2.5,0.6-5.8-0.6-10
		C428.4,461.8,426.3,449.2,424.8,434z M259.5,446.8c-6.7-26-10.3-53-10.9-81c-0.6-28.1,1-55.3,4.9-81.6c0.2-1,0.9-1.4,2.1-1.3
		c1.2,0.1,1.8,0.6,1.6,1.6c-1.1,13.7-2,27.3-2.4,40.5c-0.5,13.3-0.5,26.8-0.1,40.5c0.4,13.7,1.4,27.2,3.1,40.4
		c1.7,13.2,3.4,26.5,5.2,40.1c0.2,1.1-0.3,1.8-1.4,2C260.4,448.2,259.7,447.8,259.5,446.8z M265.8,470.9c-1.1,0.2-1.9-0.2-2.3-1.1
		c-0.4-1.5-0.7-3-0.9-4.3c-0.2-1.3-0.4-2.8-0.6-4.3c-0.2-1.3,0.3-2,1.4-2c1.1,0,1.9,0.6,2.3,1.7c0.4,1.5,0.7,2.9,0.9,4.2
		c0.2,1.2,0.4,2.6,0.6,4.2C267.4,470.1,267,470.7,265.8,470.9z M394.1,454.9c-2.5-14.1-4.3-28.5-5.3-43.1
		c-1.1-14.6-1.6-29.3-1.6-44.1c0-14.8,0.4-29.6,1.3-44.4c0.9-14.8,1.9-29.3,3-43.4c0-1.1,0.6-1.8,1.9-1.9c1.2-0.1,1.9,0.5,1.9,1.9
		c-0.6,14.5-1.1,29-1.6,43.5c-0.5,14.5-0.5,29-0.1,43.5c0.4,14.7,1.1,29.3,2.3,43.7c1.1,14.4,1.8,29,2,43.7c0,1-0.6,1.6-1.7,1.9
		C395,456.4,394.3,456,394.1,454.9z M399.7,476.3c-1.2,0.2-2-0.3-2.1-1.4c-0.4-1.1-0.7-2.3-0.9-3.6c-0.2-1.2-0.4-2.4-0.6-3.6
		c-0.2-1.1,0.2-1.8,1.3-2c1-0.2,1.8,0.3,2.1,1.4c0.4,1.1,0.6,2.3,0.7,3.6c0.1,1.2,0.3,2.4,0.7,3.6
		C401.4,475.5,400.9,476.2,399.7,476.3z"/>
	<path class="st0" d="M545.6,443.1c0-2.9-0.8-5-2.3-6.3c-1.5-1.3-3.3-2-5.4-2c-1.9,0-3.7,0.7-5.3,2.1c-1.6,1.4-2.3,3.5-2.1,6.2
		c0.2,4.8-0.4,9-1.7,12.7c-1.3,3.7-3.2,6.8-5.4,9.3c-2.3,2.5-4.9,4.4-7.7,5.7c-2.9,1.3-5.7,2.2-8.6,2.6c-4,0.6-7.4,0.2-10.3-1.1
		c-2.9-1.3-5.3-3.2-7.3-5.7c-2-2.5-3.6-5.4-4.7-8.7c-1.1-3.3-2-6.8-2.6-10.5c-1.5-8.4-1.9-18-1.1-28.9c8.2-4.2,16.1-8.2,23.8-12
		c6.5-3.2,13-6.5,19.6-9.7c6.6-3.2,11.8-5.9,15.6-8c1.3-0.8,2.2-2.7,2.7-5.9c0.5-3.1,0.4-6.9-0.1-11.2s-1.7-8.8-3.4-13.6
		c-1.7-4.8-4.1-9.2-7.2-13.3c-3.1-4.1-6.9-7.5-11.6-10.2c-4.7-2.7-10.2-4-16.5-4c-4.4,0-9.2,0.8-14.5,2.3c-5.3,1.5-11,4.1-17.3,7.7
		c-6.3,3.4-11.3,8.2-15,14.3c-3.7,6.1-6.6,12.8-8.7,20.2c-2.1,7.4-3.5,14.9-4.2,22.8c-0.7,7.8-1,15.4-1,22.6
		c0,8.8,1.5,17.2,4.4,25.3c3,8.1,7,15.2,12.2,21.3c5.2,6.1,11.3,11,18.3,14.6c7.1,3.6,14.7,5.3,22.9,4.9c13.7-0.6,24.6-4.2,32.6-11
		C541.6,468.9,545.6,458,545.6,443.1z M495.1,359.8c3.3-3.2,7.7-4.9,13-4.9c2.9,0,5.4,0.7,7.6,2.1c2.2,1.4,4.1,3.3,5.6,5.6
		c1.5,2.3,2.7,5,3.6,8c0.9,3.1,1.3,6.2,1.3,9.5c-7.3,3.4-14.6,6.8-22,10c-7.4,3.2-14.9,6.7-22.3,10.3c0.2-4,0.7-8.6,1.4-13.9
		c0.8-5.2,2.1-10.2,4-14.9C489.1,367,491.7,363,495.1,359.8z M467.4,455.6c-1.1,0.7-2,0.4-2.6-0.7c-5.5-9.7-9.1-19.9-10.6-30.4
		c-1.5-10.5-1.4-21.2,0.3-32.1c0.8-4.6,1.7-9.4,2.9-14.5c1.1-5.1,2.8-9.9,4.9-14.5c2.1-4.6,4.7-8.7,7.9-12.5c3.2-3.7,7-6.5,11.6-8.4
		c1-0.4,1.8-0.1,2.4,0.9c0.7,1,0.4,1.7-0.7,2.3c-4.4,2.1-8.1,5.1-11,9c-3,3.9-5.3,8.2-7.2,12.7c-1.8,4.6-3.2,9.4-4.3,14.5
		c-1.1,5.1-1.9,9.8-2.4,14.2c-2.7,19.9,0.6,38.8,9.7,56.7C468.9,454,468.6,454.9,467.4,455.6z M484.9,473.9
		c-0.6,1.1-1.3,1.3-2.3,0.7c-4.6-2.5-8.3-5.5-11.2-9.2c-0.8-1-0.8-1.8,0-2.6c0.8-0.8,1.6-0.7,2.6,0.3c1.5,1.7,3.2,3.2,4.9,4.6
		c1.7,1.3,3.5,2.6,5.4,3.7C485.3,472,485.5,472.9,484.9,473.9z"/>
	<path class="st0" d="M561.9,392.7c0.6,9,1.2,18.5,2,28.6c0.8,10.1,1.5,19.6,2.1,28.4c0.7,8.8,1.3,16.5,1.9,23.1
		c0.6,6.6,1,11,1.1,13.3c0.4,2.1,1.6,3.8,3.7,5c2.1,1.2,4.5,1.9,7.2,1.9c3.2,0,6.5-1,9.7-3.1c3.2-2.1,5.3-5.6,6.3-10.6
		c2.1-10.1,4.5-20.3,7.3-30.6c2.8-10.3,5.8-20.1,9.2-29.4c3.3-9.3,7.1-17.8,11.2-25.8c4.1-7.9,8.4-14.6,13-20.2
		c-0.4,3.6-0.6,7.3-0.6,10.9c0,3.6-0.1,6.1-0.3,7.4c-0.2,3.2,0.8,5.7,2.9,7.3c2.1,1.6,4.5,2.4,7.2,2.4c3.2,0,6.3-1,9.2-3.1
		c2.9-2.1,4.2-5.2,4-9.5c-0.4-5.9-0.5-11.6-0.3-17.2c0.2-5.5,0.1-12-0.3-19.5c-0.2-3.8-1.6-6.5-4.3-8.2c-2.7-1.6-5.6-2.4-8.9-2.4
		c-5.3,0-9.8,1.5-13.5,4.6c-6.3,5.2-12,11.9-17,20.2c-5.1,8.3-9.4,16.7-13,25.1c-3.6,8.4-6.5,16.3-8.6,23.8
		c-2.1,7.4-3.4,12.9-4,16.3c0-3.6,0.1-8.7,0.4-15.2c0.3-6.5,0.7-13.3,1.3-20.5c0.6-7.2,1.1-14,1.6-20.5c0.5-6.5,0.8-11.5,1-15.2
		c0.2-3.1-0.2-5.6-1.1-7.7c-1-2.1-2.3-3.8-4-5.2c-1.7-1.3-3.6-2.3-5.7-3c-2.1-0.7-4.3-1-6.6-1c-4,0-7.7,1-11,2.9c-3.3,1.9-5,4.6-5,8
		c0,2.7,0.2,7.5,0.6,14.6C560.9,375.7,561.3,383.8,561.9,392.7z M578.5,478.6c0.2,1.7,1,3.3,2.6,4.9c1,1,1,1.8,0.1,2.6
		c-0.9,0.8-1.8,0.8-2.7,0c-1.1-1-2-2.1-2.4-3.3c-0.5-1.2-0.8-2.6-1-4.2c-0.2-1.1,0.3-1.7,1.6-1.7
		C577.9,476.9,578.5,477.5,578.5,478.6z M570.5,352.8c1.1,0.1,1.8,0.7,2,1.9c1,18.5,1.9,37,2.7,55.6c0.9,18.5,1.7,37,2.4,55.6
		c0.2,1.3-0.3,2-1.6,2c-1.2,0-2-0.7-2.1-2c-1-18.5-1.9-37-2.7-55.6c-0.9-18.5-1.7-37-2.4-55.6C568.8,353.3,569.4,352.7,570.5,352.8z
		"/>
	<path class="st0" d="M671.6,392.7c0.6,9,1.2,18.5,2,28.6c0.8,10.1,1.5,19.6,2.1,28.4c0.7,8.8,1.3,16.5,1.9,23.1
		c0.6,6.6,1,11,1.1,13.3c0.4,2.1,1.6,3.8,3.7,5c2.1,1.2,4.5,1.9,7.2,1.9c3.2,0,6.5-1,9.7-3.1c3.2-2.1,5.3-5.6,6.3-10.6
		c2.1-10.1,4.5-20.3,7.3-30.6c2.8-10.3,5.8-20.1,9.2-29.4c3.3-9.3,7.1-17.8,11.2-25.8c4.1-7.9,8.4-14.6,13-20.2
		c-0.4,3.6-0.6,7.3-0.6,10.9c0,3.6-0.1,6.1-0.3,7.4c-0.2,3.2,0.8,5.7,2.9,7.3c2.1,1.6,4.5,2.4,7.2,2.4c3.2,0,6.3-1,9.2-3.1
		c2.9-2.1,4.2-5.2,4-9.5c-0.4-5.9-0.5-11.6-0.3-17.2c0.2-5.5,0.1-12-0.3-19.5c-0.2-3.8-1.6-6.5-4.3-8.2c-2.7-1.6-5.6-2.4-8.9-2.4
		c-5.3,0-9.8,1.5-13.5,4.6c-6.3,5.2-12,11.9-17,20.2c-5.1,8.3-9.4,16.7-13,25.1c-3.6,8.4-6.5,16.3-8.6,23.8
		c-2.1,7.4-3.4,12.9-4,16.3c0-3.6,0.1-8.7,0.4-15.2c0.3-6.5,0.7-13.3,1.3-20.5c0.6-7.2,1.1-14,1.6-20.5c0.5-6.5,0.8-11.5,1-15.2
		c0.2-3.1-0.2-5.6-1.1-7.7c-1-2.1-2.3-3.8-4-5.2c-1.7-1.3-3.6-2.3-5.7-3c-2.1-0.7-4.3-1-6.6-1c-4,0-7.7,1-11,2.9c-3.3,1.9-5,4.6-5,8
		c0,2.7,0.2,7.5,0.6,14.6C670.5,375.7,671,383.8,671.6,392.7z M688.2,478.6c0.2,1.7,1,3.3,2.6,4.9c1,1,1,1.8,0.1,2.6
		c-0.9,0.8-1.8,0.8-2.7,0c-1.1-1-2-2.1-2.4-3.3c-0.5-1.2-0.8-2.6-1-4.2c-0.2-1.1,0.3-1.7,1.6-1.7
		C687.6,476.9,688.2,477.5,688.2,478.6z M680.2,352.8c1.1,0.1,1.8,0.7,2,1.9c1,18.5,1.9,37,2.7,55.6c0.9,18.5,1.7,37,2.4,55.6
		c0.2,1.3-0.3,2-1.6,2c-1.2,0-2-0.7-2.1-2c-1-18.5-1.9-37-2.7-55.6c-0.9-18.5-1.7-37-2.4-55.6C678.5,353.3,679,352.7,680.2,352.8z"
		/>
	<path class="st0" d="M869.3,538.5c0.2-0.2,0.4-0.3,0.6-0.5c0.3-0.3,0.6-0.6,0.9-1c13.1-13.2,28-37.6,33-85.4c0,0,0,0,0,0
		c0-0.6,0.1-1.1,0.1-1.7c1-10.3,1.5-21.6,1.5-34.1c0.1-10.3-0.2-20.2-0.8-29.6c-0.4-6.5-1-12.5-1.7-18c0,0,0,0,0,0l0,0
		c-0.5-4.2-1.1-8.2-1.8-11.9c-1-6.1-3.9-10.6-8.9-13.5c-5-2.9-10.2-4.3-15.7-4.3c-2.9,0-5.6,0.4-8.2,1.1c-2.6,0.8-4.9,1.9-6.9,3.3
		c-2,1.4-3.6,3.2-4.7,5.3c-1.1,2.1-1.6,4.5-1.4,7.2v1.1c-3.1,5.2-6.1,11.4-9.2,18.6c-3.1,7.3-5.9,14.9-8.6,22.9
		c-2.7,8-5.2,16-7.4,23.9c-2.3,7.9-4.3,15.1-6,21.5c-1.7,6.4-3.2,11.6-4.4,15.7c-1.2,4.1-2.1,6.3-2.4,6.7c-4.4-1-7.2-4.2-8.3-9.6
		c-1.1-5.4-1.5-11.5-1.1-18.3c0.4-6.8,1.2-13.4,2.4-19.9c1.2-6.5,2-11.3,2.4-14.3c1-6.7,2.5-13.2,4.7-19.6
		c2.2-6.4,4.3-12.8,6.4-19.3c1-3.1,1-5.8,0.3-8.2c-0.8-2.4-2.1-4.4-3.9-6c-1.8-1.6-4.1-2.9-6.7-3.7c-2.7-0.9-5.4-1.3-8.3-1.3
		c-3.8,0-7.4,0.8-10.6,2.3c-3.2,1.5-5.4,3.9-6.6,7.2c-4.6,13.2-7.4,26.7-8.4,40.5c-1,13.8-0.1,27.6,2.7,41.4c0.8,3.8,2,8.3,3.6,13.3
		c1.6,5.1,3.8,9.9,6.4,14.5c2.7,4.6,5.9,8.5,9.7,11.9c3.8,3.3,8.3,5.2,13.5,5.6c5.2,0.4,9.3-0.7,12.5-3.2c3.2-2.5,5.7-5.7,7.7-9.7
		c2-4,3.6-8.4,4.9-13.3c1.2-4.9,2.5-9.4,3.9-13.6c2.5-7.8,4.6-15.6,6.4-23.3c1.8-7.7,4.4-15.4,7.9-23.1c0.7,8.9,1.3,18.1,1.8,27.5
		c0.8,16.4,1,37.3-1.1,56.3c-0.5,3.6-1,7.3-1.6,10.8c-1.9,10.8-4.8,20.4-8.7,29c-8.4,15.4-22.3,15.9-34.5,8
		c-0.8-0.6-1.7-1.2-2.5-1.8c-2.5-2.1-4.7-4.6-6.3-7.6c-1.7-3-2.6-6.2-2.8-9.6c-0.2-2.9-1.2-5-3.1-6.4c-1.9-1.4-4-2.1-6.3-2.1
		c-2.2,0-4.2,0.7-6,2.1c-1.9,1.4-2.7,3.6-2.5,6.4c0,5,1.1,10.2,3.2,15.7c2.2,5.5,5.2,10.6,9.1,15.3c3.9,4.7,8.7,8.5,14.2,11.6
		c5.6,3.1,11.8,4.4,18.6,4c7.4,0.8,14.5-0.7,21.3-4.4c1.6-0.9,3.2-1.8,4.8-2.8l0,0C860.1,546,864.6,543,869.3,538.5z M789.8,431.7
		c-2.1-12.4-2.7-24.7-1.7-36.8c1-12.1,3-24.2,6-36.2c0.4-1.1,1.1-1.6,2.3-1.3c1.1,0.3,1.5,1,1.1,2.1c-6.1,23.9-7.4,47.7-4,71.6
		c0.2,1-0.3,1.5-1.6,1.7C790.7,433,790,432.6,789.8,431.7z M800.4,454.7c-1,0.9-1.8,0.8-2.6-0.1c-1.5-1.7-2.8-3.5-3.7-5.3
		c-1-1.8-1.6-3.9-2-6.2c-0.2-1,0.3-1.6,1.4-2c1.1-0.4,1.8,0,2,1.1c0.6,3.8,2.2,7.1,4.9,9.7C801.4,452.9,801.4,453.8,800.4,454.7z
		 M866,349.8c1.1-0.4,1.9,0,2.3,1.1c4.2,27.1,6.5,54.2,7,81.2c0.1,5.2,0.1,10.3,0,15.5c-0.7,14.9-2,29.9-4,44.9
		c-0.2,1.1-0.9,1.8-2.1,1.9c-1.2,0.1-1.7-0.5-1.5-1.9c0.2-2.1,0.4-4.1,0.7-6.1c1.4-15.1,3.2-38.9,2.2-67.9
		c-0.2-5.7-0.5-11.4-0.9-17.1c0-0.1,0-0.2,0-0.2c-1.1-16.3-2.8-32.7-5.2-49.1C864.4,350.9,864.8,350.1,866,349.8z M854.7,528.4
		c-0.9-0.9-0.8-1.7,0.1-2.4c4.9-3.8,7.7-8.7,8.5-14.6c0.2-1.1,0.9-1.7,2.2-1.7c1.3,0,1.8,0.6,1.6,1.7c-1,7.3-4.2,13-9.7,17.2
		C856.6,529.3,855.6,529.3,854.7,528.4z"/>
</g>
</svg>
