<?xml version="1.0" encoding="utf-8"?>
<!-- Generator: Adobe Illustrator 23.0.3, SVG Export Plug-In . SVG Version: 6.00 Build 0)  -->
<svg version="1.1" id="Layer_1" xmlns="http://www.w3.org/2000/svg" xmlns:xlink="http://www.w3.org/1999/xlink" x="0px" y="0px"
	 viewBox="0 0 1133.9 1133.9" style="enable-background:new 0 0 1133.9 1133.9;" xml:space="preserve">
<style type="text/css">
	.st0{fill:#1E2121;}
	.st1{fill:#A81F26;}
	.st2{fill:#F2F1F2;}
	.st3{fill:#DD353A;}
	.st4{fill:#CFCFCE;}
	.st5{fill:#1D2121;}
	.st6{fill:none;}
	.st7{fill:#AA1F23;}
	.st8{fill:#FDFEFE;}
	.st9{fill:#EE742C;}
	.st10{fill:#BA5234;}
	.st11{fill:#ED1C24;}
	.st12{fill:#C42C3A;}
	.st13{fill:#058743;}
	.st14{fill:#0F4D70;}
	.st15{fill-rule:evenodd;clip-rule:evenodd;fill:#C42C3A;}
	.st16{fill-rule:evenodd;clip-rule:evenodd;fill:#1E2121;}
	.st17{fill:#E8E8E8;}
	.st18{fill:#186634;}
	.st19{fill:#BF2730;}
	.st20{fill:#B47A48;}
	.st21{fill:#3E1E14;}
	.st22{fill:#DBAD5D;}
	.st23{fill:#B84947;}
	.st24{fill:#C3976E;}
	.st25{fill:#9D2023;}
	.st26{fill:#3C2517;}
	.st27{fill:#4A3A31;}
	.st28{fill:#EDAD4F;}
	.st29{fill:#F8C018;}
</style>
<g>
	<path class="st0" d="M47.7,391.1c1,12.1,2.6,22.4,4.9,31c2.2,8.6,4.8,15.8,7.7,21.6c2.9,5.8,5.9,10.5,9.2,14.1
		c3.2,3.5,6.4,6.3,9.4,8.3c3,2,5.8,3.5,8.2,4.4c2.4,0.9,4.2,1.7,5.4,2.3c4.5,1.6,9,2.4,13.6,2.4c5.9,0,11.7-1,17.4-3.1
		c5.7-2.1,10.4-4.8,14.2-8.1c5.5-4.9,10-10,13.5-15.3c3.5-5.3,6.2-11.3,8-18.1c1.8-6.7,2.7-14.3,2.8-22.9c0.1-8.6-0.7-18.5-2.3-29.7
		c-0.7-6.5-1.6-13.4-2.6-20.8c-1-7.3-2.8-14.6-5.4-21.7c-2.6-7.1-6.3-13.8-11-19.9c-4.8-6.1-11.3-11.1-19.7-15
		c-3.2-1.4-6.3-2.4-9.3-3c-3-0.6-6-0.9-8.9-0.9c-3.3,0-6.4,0.3-9.3,0.9c-2.9,0.6-5.4,1.2-7.6,1.9c-2.6,0.9-4.9,1.8-6.9,2.8
		c-5.8,2.3-10.6,5.7-14.5,10.2c-3.9,4.5-7,9.5-9.4,15c-2.4,5.5-4.1,11.4-5.3,17.5c-1.2,6.1-1.9,12.1-2.4,17.8
		c-0.4,5.8-0.6,11.1-0.4,16.1C47.2,383.8,47.4,387.9,47.7,391.1z M74.6,447.3c-0.5,0.6-1.1,0.6-1.8,0c-1.9-1.6-3.4-3.3-4.6-5.2
		c-1.2-1.9-2.3-3.9-3.1-6.1c-0.3-0.9,0-1.4,0.9-1.7c0.9-0.3,1.5,0,1.9,0.9c0.9,1.7,1.9,3.5,3,5.2c1.2,1.7,2.4,3.4,3.7,5
		C75,446,75.1,446.7,74.6,447.3z M135.6,322c0.7-0.5,1.3-0.4,1.7,0.3c2.4,3.7,4.5,7.7,6.2,12c1.7,4.3,3,8.6,4.1,13.2s2,9.2,2.7,13.8
		c0.7,4.7,1.4,9.2,1.9,13.5c0.6,4,1.2,8.4,1.7,13.2c0.6,4.8,1,9.5,1.2,14.3c0.2,4.8,0.1,9.5-0.3,14.2c-0.4,4.7-1.4,9-3,13.1
		c-0.3,0.9-0.8,1.1-1.6,0.6c-0.8-0.4-1.1-1-1-1.7c1.2-8.6,1.7-17.3,1.6-25.8c-0.1-8.6-0.7-17.3-1.8-26c-0.6-4.3-1.2-8.8-1.8-13.4
		c-0.6-4.6-1.5-9.2-2.5-13.7c-1-4.5-2.3-9-3.8-13.3c-1.5-4.3-3.4-8.4-5.7-12.3C134.8,323.1,134.9,322.5,135.6,322z M91.7,313.5
		c2.8-1.7,5.8-2.6,9-2.6c3.3,0,6.4,1,9.4,3c3,2,5.1,4.9,6.4,8.6c1.4,4.2,2.6,9,3.6,14.4c0.9,5.4,1.8,11.2,2.6,17.3
		c0.8,6.1,1.5,12.4,2.2,18.8c0.6,6.4,1.3,12.6,2.1,18.7c1,7.9,1.8,15.9,2.5,23.9c0.6,8,0.7,15.3,0.2,21.8
		c-0.5,6.6-1.8,12.1-3.9,16.6c-2.1,4.5-5.3,7.3-9.6,8.3c-5,0.7-9.4,0-13-2.3c-3.6-2.2-6.6-5.3-9.1-9.3c-2.5-4-4.4-8.5-5.8-13.7
		c-1.4-5.2-2.6-10.4-3.4-15.7c-0.8-5.3-1.3-10.3-1.6-15c-0.3-4.8-0.6-8.6-0.9-11.7c-0.1-3.5-0.5-8.2-1.1-14.2
		c-0.6-6-0.9-12.4-1.1-19.3c-0.1-6.9,0.1-13.9,0.8-20.9c0.6-7,2.1-13.3,4.2-18.9C86.6,317.9,88.8,315.2,91.7,313.5z M53.1,372.9
		c0.1-5.5,0.5-10.7,1.1-15.6c2.2-18.6,10.5-33.9,25.1-46c0.7-0.6,1.4-0.5,1.9,0.2c0.6,0.7,0.5,1.4-0.2,1.9
		c-8.1,6.8-13.9,14.6-17.4,23.3c-3.5,8.8-5.5,18.4-5.9,28.8c-0.1,4.8,0,9.4,0.4,13.9c0.4,4.5,1,9,1.7,13.5c0.7,4.5,1.5,9,2.3,13.5
		c0.8,4.5,1.4,9.1,1.8,13.7c0,1-0.4,1.5-1.3,1.5c-0.9,0-1.4-0.4-1.7-1.1c-1.9-4.6-3.4-9.6-4.6-14.9c-1.2-5.3-2.1-10.8-2.6-16.3
		C53.1,383.9,52.9,378.4,53.1,372.9z"/>
	<path class="st0" d="M175.7,386.5c0.5,7.3,1.2,14.7,2.2,21.9c0.9,7.3,2,14.3,3.1,21.1c1.2,6.8,2.3,12.9,3.6,18.4
		c1.2,5.5,2.4,10.1,3.6,13.8c1.2,3.7,2.2,6.3,3,7.6c1.2,1.9,2.8,3.3,5.1,4.2c2.2,0.9,4.6,1.4,7,1.4c2.7,0,5-0.8,6.9-2.3
		c1.9-1.5,2.4-4,1.7-7.5c-2.2-10.4-3.8-20.3-4.9-29.8c-1.1-9.5-1.8-18-2.3-25.4c-0.4-7.4-0.7-13.5-0.8-18.3
		c-0.1-4.8-0.1-7.6-0.1-8.4c2.7-0.4,5.8-0.8,9.2-1c3.4-0.2,7-0.3,10.7-0.3c2.9,0,5.7,0.1,8.5,0.3c2.8,0.2,5.4,0.5,7.7,0.8
		c2,0.3,3.7-0.1,5.2-1.3c1.4-1.2,2.4-2.5,2.8-4.1c0.4-1.6,0.3-3.1-0.3-4.5c-0.6-1.4-2.1-2.4-4.2-2.8c-2.9-0.6-6.1-1-9.7-1.2
		c-3.6-0.2-7.3-0.3-11-0.3c-3.5,0-6.8,0.1-10.2,0.3c-3.3,0.2-6.3,0.5-9.1,0.8c-0.1-4.3-0.3-9.1-0.3-14.3c-0.1-5.2-0.1-10.4-0.2-15.6
		c-0.1-5.2-0.1-10.2,0-15c0.1-4.8,0.2-9.2,0.3-13.1c0.4,0,2.3,0,5.7,0c3.4,0,7.2,0,11.6,0c4.3,0,8.6,0.1,13,0.2
		c4.3,0.1,7.7,0.4,10.2,0.9c2.2,0.3,4-0.1,5.4-1.3c1.4-1.2,2.4-2.5,2.8-4.1c0.4-1.6,0.3-3.1-0.3-4.6c-0.6-1.5-2.1-2.5-4.2-2.9
		c-3.2-0.4-6.7-0.8-10.7-1c-4-0.2-8-0.3-12-0.3c-4,0-8,0-12,0.1c-4,0.1-7.6,0.1-10.9,0.1c-6.6,0-11.7,0.8-15.3,2.5
		c-3.6,1.7-6.3,3.6-8,5.8c-1.7,2.2-2.7,4.4-3,6.6c-0.3,2.2-0.4,3.7-0.4,4.8c-0.1,5.3-0.2,12.1-0.2,20.2c0,8.1,0.1,17,0.4,26.5
		C175.1,372.1,175.2,379.2,175.7,386.5z M194,452.9c0.9-0.3,1.4,0,1.7,0.9c0.4,1.2,0.8,2.3,1.2,3.4c0.4,1.1,0.7,2.2,1,3.4
		c0.3,0.9,0,1.4-0.9,1.7c-0.9,0.3-1.4,0-1.7-0.9c-0.3-1.2-0.6-2.3-1.1-3.4c-0.4-1.1-0.8-2.2-1.1-3.4
		C192.9,453.8,193.1,453.2,194,452.9z M181.7,347.8c0.3-10.9,0.7-21.7,1.3-32.2c0-0.9,0.5-1.3,1.5-1.4c1-0.1,1.5,0.3,1.5,1.2
		c-0.1,9.7-0.2,19.2-0.1,28.8c0.1,9.5,0,19-0.1,28.5c-0.1,7.8-0.2,14.5-0.1,20.2c0.1,5.7,0.3,11.1,0.8,16.3
		c0.4,5.2,1.2,10.6,2.2,16.1c1,5.5,2.4,12,4.3,19.3c0.3,0.9,0,1.4-1,1.5c-0.9,0.1-1.5-0.1-1.8-0.9c-2.5-10.2-4.3-20.8-5.6-31.7
		c-1.3-10.9-2.2-21.8-2.6-32.9C181.5,369.8,181.4,358.8,181.7,347.8z"/>
	<path class="st0" d="M262.6,386.5c0.5,7.3,1.2,14.7,2.2,21.9c0.9,7.3,2,14.3,3.1,21.1c1.2,6.8,2.3,12.9,3.6,18.4
		c1.2,5.5,2.4,10.1,3.6,13.8c1.2,3.7,2.2,6.3,3,7.6c1.2,1.9,2.8,3.3,5.1,4.2c2.2,0.9,4.6,1.4,7,1.4c2.7,0,5-0.8,6.9-2.3
		c1.9-1.5,2.4-4,1.7-7.5c-2.2-10.4-3.8-20.3-4.9-29.8c-1.1-9.5-1.8-18-2.3-25.4c-0.4-7.4-0.7-13.5-0.8-18.3
		c-0.1-4.8-0.1-7.6-0.1-8.4c2.7-0.4,5.8-0.8,9.2-1c3.4-0.2,7-0.3,10.7-0.3c2.9,0,5.7,0.1,8.5,0.3c2.8,0.2,5.4,0.5,7.7,0.8
		c2,0.3,3.7-0.1,5.2-1.3c1.4-1.2,2.4-2.5,2.8-4.1c0.4-1.6,0.3-3.1-0.3-4.5c-0.6-1.4-2.1-2.4-4.2-2.8c-2.9-0.6-6.1-1-9.7-1.2
		c-3.6-0.2-7.3-0.3-11-0.3c-3.5,0-6.8,0.1-10.2,0.3c-3.3,0.2-6.3,0.5-9.1,0.8c-0.1-4.3-0.3-9.1-0.3-14.3c-0.1-5.2-0.1-10.4-0.2-15.6
		c-0.1-5.2-0.1-10.2,0-15c0.1-4.8,0.2-9.2,0.3-13.1c0.4,0,2.3,0,5.7,0c3.4,0,7.2,0,11.6,0c4.3,0,8.6,0.1,13,0.2
		c4.3,0.1,7.7,0.4,10.2,0.9c2.2,0.3,4-0.1,5.4-1.3c1.4-1.2,2.4-2.5,2.8-4.1c0.4-1.6,0.3-3.1-0.3-4.6c-0.6-1.5-2.1-2.5-4.2-2.9
		c-3.2-0.4-6.7-0.8-10.7-1c-4-0.2-8-0.3-12-0.3c-4,0-8,0-12,0.1c-4,0.1-7.6,0.1-10.9,0.1c-6.6,0-11.7,0.8-15.3,2.5
		c-3.6,1.7-6.3,3.6-8,5.8c-1.7,2.2-2.7,4.4-3,6.6c-0.3,2.2-0.4,3.7-0.4,4.8c-0.1,5.3-0.2,12.1-0.2,20.2c0,8.1,0.1,17,0.4,26.5
		C262,372.1,262.1,379.2,262.6,386.5z M280.9,452.9c0.9-0.3,1.4,0,1.7,0.9c0.4,1.2,0.8,2.3,1.2,3.4c0.4,1.1,0.7,2.2,1,3.4
		c0.3,0.9,0,1.4-0.9,1.7c-0.9,0.3-1.4,0-1.7-0.9c-0.3-1.2-0.6-2.3-1.1-3.4c-0.4-1.1-0.8-2.2-1.1-3.4
		C279.8,453.8,280,453.2,280.9,452.9z M268.6,347.8c0.3-10.9,0.7-21.7,1.3-32.2c0-0.9,0.5-1.3,1.5-1.4c1-0.1,1.5,0.3,1.5,1.2
		c-0.1,9.7-0.2,19.2-0.1,28.8c0.1,9.5,0,19-0.1,28.5c-0.1,7.8-0.2,14.5-0.1,20.2c0.1,5.7,0.3,11.1,0.8,16.3
		c0.4,5.2,1.2,10.6,2.2,16.1c1,5.5,2.4,12,4.3,19.3c0.3,0.9,0,1.4-1,1.5c-0.9,0.1-1.6-0.1-1.8-0.9c-2.5-10.2-4.3-20.8-5.6-31.7
		c-1.3-10.9-2.2-21.8-2.6-32.9C268.4,369.8,268.3,358.8,268.6,347.8z"/>
	<path class="st0" d="M349.8,393.1c0.6,11.2,1.7,21.8,3,32c1.4,10.2,3.2,19.4,5.4,27.7c2.2,8.3,4.8,14.5,7.7,18.7
		c0.7,1.2,1.7,2,3,2.6c1.3,0.6,2.7,0.9,4.3,0.9c1.6,0,3.2-0.3,4.9-0.9c1.7-0.6,3.1-1.5,4.3-2.7c1.2-1.2,2.2-2.7,2.8-4.4
		c0.6-1.7,0.8-3.7,0.5-5.8c-0.1-1.4-0.4-4-0.8-7.6c-0.4-3.6-0.8-7.8-1.2-12.5c-0.4-4.8-0.9-9.9-1.3-15.3c-0.4-5.5-0.9-10.8-1.3-16
		c-0.4-5.2-0.8-9.9-1-14.3c-0.2-4.3-0.4-7.8-0.5-10.4c-0.1-6.9-0.1-14.6,0.1-22.9c0.2-8.4,0.4-16.4,0.6-24
		c0.2-7.6,0.3-14.4,0.2-20.3c-0.1-5.9-0.5-9.9-1.4-11.9c-1-1.9-2.2-3.6-3.7-5.3c-1.4-1.7-4.3-2.5-8.4-2.5c-3,0-6.6,0.5-10.8,1.5
		c-3.3,0.7-5.4,2.6-6.3,5.5c-0.9,3-1.3,6.2-1.3,9.6c-0.1,5.3-0.2,12.1-0.2,20.2c0,8.1,0.1,17,0.4,26.5
		C348.9,371.4,349.1,382,349.8,393.1z M366.9,440.1c0.9-0.3,1.4,0,1.7,0.9c0.6,2.5,1.3,4.7,2.2,6.8c0.9,2.1,1.9,4.2,3,6.4
		c0.4,0.7,0.3,1.3-0.4,1.8c-0.7,0.5-1.4,0.4-1.9-0.3c-2.7-3.9-4.5-8.5-5.4-13.8C365.8,441,366.1,440.4,366.9,440.1z M357.9,315.6
		c0-0.9,0.5-1.3,1.4-1.4c0.9-0.1,1.4,0.3,1.4,1.2c0,19,0.6,37.8,1.8,56.2c1.2,18.4,2.3,37.1,3.4,56c0.1,0.9-0.3,1.4-1.2,1.5
		c-0.9,0.1-1.5-0.1-1.6-0.9c-3.7-18.2-5.8-36.9-6.3-56.1C356.4,352.9,356.7,334.1,357.9,315.6z"/>
	<path class="st0" d="M511.7,393.1c0.6,11.2,1.7,21.8,3,32c1.4,10.2,3.2,19.4,5.4,27.7c2.2,8.3,4.8,14.5,7.7,18.7
		c0.7,1.2,1.7,2,3,2.6c1.3,0.6,2.7,0.9,4.3,0.9c1.6,0,3.2-0.3,4.9-0.9c1.7-0.6,3.1-1.5,4.3-2.7c1.2-1.2,2.2-2.7,2.8-4.4
		c0.6-1.7,0.8-3.7,0.5-5.8c-0.1-1.4-0.4-4-0.8-7.6c-0.4-3.6-0.8-7.8-1.2-12.5c-0.4-4.8-0.9-9.9-1.3-15.3c-0.4-5.5-0.9-10.8-1.3-16
		c-0.4-5.2-0.8-9.9-1-14.3c-0.2-4.3-0.4-7.8-0.5-10.4c-0.1-6.9-0.1-14.6,0.1-22.9c0.2-8.4,0.4-16.4,0.6-24
		c0.2-7.6,0.3-14.4,0.2-20.3c-0.1-5.9-0.5-9.9-1.4-11.9c-1-1.9-2.2-3.6-3.7-5.3c-1.4-1.7-4.3-2.5-8.4-2.5c-3,0-6.6,0.5-10.8,1.5
		c-3.3,0.7-5.4,2.6-6.3,5.5c-0.9,3-1.3,6.2-1.3,9.6c-0.1,5.3-0.2,12.1-0.2,20.2c0,8.1,0.1,17,0.4,26.5
		C510.8,371.4,511,382,511.7,393.1z M528.9,440.1c0.9-0.3,1.4,0,1.7,0.9c0.6,2.5,1.3,4.7,2.2,6.8c0.9,2.1,1.9,4.2,3,6.4
		c0.4,0.7,0.3,1.3-0.4,1.8c-0.7,0.5-1.4,0.4-1.9-0.3c-2.7-3.9-4.5-8.5-5.4-13.8C527.7,441,528,440.4,528.9,440.1z M519.8,315.6
		c0-0.9,0.5-1.3,1.4-1.4c0.9-0.1,1.4,0.3,1.4,1.2c0,19,0.6,37.8,1.8,56.2c1.2,18.4,2.3,37.1,3.4,56c0.1,0.9-0.3,1.4-1.2,1.5
		c-0.9,0.1-1.5-0.1-1.6-0.9c-3.7-18.2-5.8-36.9-6.3-56.1C518.3,352.9,518.6,334.1,519.8,315.6z"/>
	<path class="st0" d="M558.9,416.9c0.9,9.2,2.1,17.8,3.6,25.9c1.5,8.1,3.1,15.2,4.6,21.1c0.7,2.7,2.2,5.1,4.5,7.1
		c2.3,2,5,3.2,8.2,3.7c2.6,0.4,5.2,0.3,7.7-0.3c2.5-0.6,4.8-1.6,6.7-2.9c1.9-1.3,3.4-2.9,4.4-4.9c1-1.9,1.4-4,1.1-6.2
		c-1.4-9.5-2.8-19.3-4.2-29.5c-1.4-10.2-2.5-20.6-3.4-31.2c5-1.6,10.2-3.1,15.3-4.6c5.2-1.5,10.4-2.8,15.8-3.8
		c1.6,10.4,3.3,21.8,5.1,34.4c1.8,12.5,3.4,26.2,4.6,41.1c0.1,1.2,1,2.3,2.5,3.6c1.5,1.2,3.8,1.7,6.8,1.4c2.7-0.3,4.3-1.4,4.8-3.2
		c0.4-1.9,0.6-3.9,0.6-6.1c0-2.7-0.1-6.6-0.4-11.6c-0.3-5-0.8-10.7-1.4-17.2c-0.6-6.5-1.5-13.5-2.5-21.1c-1-7.6-2.2-15.3-3.5-23.2
		c0.9-0.1,1.7-0.2,2.6-0.2c0.9,0,1.7,0,2.6,0c1.3,0,2.2-0.4,2.8-1.3c0.6-0.9,0.9-1.8,0.9-2.7c0-0.9-0.3-1.8-0.9-2.7
		c-0.6-0.9-1.5-1.3-2.8-1.3c-1.2,0-2.2,0-3.2,0.1c-1,0.1-2.1,0.1-3.2,0.1c-1.6-8.8-3.4-17.4-5.5-25.8c-2.1-8.4-4.4-16.2-6.8-23.2
		c-2.5-7.1-5.2-13.1-8.1-18.1c-3-5-6.2-8.4-9.6-10.3c-3.3-1.4-6.6-2.2-9.7-2.2c-5.3,0-10.2,1.6-14.7,4.6c-4.5,3.1-8.3,6.7-11.5,10.9
		c-3.9,5-7,11.3-9.3,18.9c-2.3,7.6-4,15.8-5,24.8c-1,8.9-1.4,18.2-1.2,27.8C557.5,398.4,558,407.7,558.9,416.9z M591.2,358.3
		c0.5-11,2.1-21.7,4.6-31.9c0.4-1.7,0.9-3.5,1.4-5.4c0.5-1.9,1-3.5,1.5-5c0.5-1.4,1.1-2.6,1.7-3.5c0.6-0.9,1.3-1.2,2.1-0.9
		c1.6,0.6,4.2,6.7,7.9,18.3c3.7,11.6,7.5,29.4,11.6,53.5c-5.2,1-10.3,2.2-15.3,3.7c-5,1.4-10.1,3-15.1,4.5
		C590.8,380.5,590.7,369.3,591.2,358.3z M580.5,453.3c-0.9,0.3-1.4,0-1.7-0.9c-0.7-1.6-1.3-3.2-1.6-4.9c-0.4-1.7-0.7-3.3-1-4.9
		c-0.3-0.9,0-1.4,0.9-1.7c0.9-0.3,1.4,0,1.7,0.9c0.6,1.6,1,3.2,1.4,4.9c0.4,1.7,0.8,3.3,1.2,4.9C581.7,452.5,581.4,453,580.5,453.3z
		 M570.2,374.9c0.8-17.7,4.7-34.9,11.8-51.4c0.3-0.7,0.8-0.9,1.6-0.4c0.8,0.4,1,1,0.8,1.7c-3.6,8.5-6.2,17-7.9,25.5
		c-1.7,8.5-2.7,17-3,25.5c-0.4,8.5-0.2,17,0.4,25.6c0.6,8.6,1.5,17.3,2.5,26.3c0.1,1-0.3,1.5-1.2,1.5c-0.9,0-1.5-0.4-1.6-1.3
		C570.6,410.2,569.5,392.6,570.2,374.9z"/>
	<path class="st0" d="M664.3,389.9c0.6,10.2,1.6,19.8,2.8,29c1.2,9.2,2.8,17.4,4.8,24.6c1.9,7.3,4.4,12.9,7.2,16.8
		c3.9,5.3,8.5,9.1,13.9,11.3c5.4,2.2,11.1,3.4,17.2,3.4c9.2,0,16.8-1.3,22.6-3.8c5.8-2.5,10.5-5.4,13.9-8.6c3.5-3.2,6.1-6.5,7.8-9.8
		c1.7-3.3,3.2-5.7,4.3-7.1c0.3-0.4,0.4-1.4,0.2-2.8c-0.1-1.4-0.9-2.5-2.2-3.2c-1.4-0.7-2.8-1.1-4.1-1.1c-1.7,0-3,0.6-3.7,1.7
		c-4.3,6.1-9.2,10.7-14.5,13.9c-5.3,3.2-10.3,4.9-14.9,4.9c-4.9,0-9-1.8-12.4-5.5c-3.4-3.7-5.2-9.5-5.5-17.4
		c-0.3-7.3-0.7-15.4-1.2-24.1c-0.5-8.7-0.9-16.9-1.2-24.5c-0.7-15.1-1.2-29.1-1.5-42c-0.3-12.9-0.6-24-0.9-33.4c0-2-0.5-3.9-1.6-5.7
		c-1.1-1.8-2.5-3.3-4.2-4.5c-1.7-1.2-3.7-2.2-6.1-2.8c-2.3-0.6-4.8-0.8-7.3-0.5c-4.2,0.3-7.7,1.7-10.6,4.3c-2.9,2.6-4.4,5.7-4.5,9.3
		c-0.1,5.5-0.2,12.4-0.2,20.9c0,8.4,0.1,17.5,0.4,27.2C663.2,369.8,663.6,379.7,664.3,389.9z M679.3,440.1c0.4,3.3,1.4,6.4,2.9,9.3
		c1.5,2.9,3.2,5.8,5.1,8.6c0.4,0.7,0.3,1.4-0.3,1.9c-0.6,0.6-1.3,0.5-1.8-0.2c-2.3-2.9-4.1-5.9-5.4-9.1c-1.3-3.2-2.3-6.6-3-10.2
		c-0.1-0.7,0.2-1.2,1.1-1.3C678.7,439.1,679.2,439.4,679.3,440.1z M669.8,313.7c0-0.9,0.5-1.3,1.4-1.4c0.9-0.1,1.4,0.3,1.4,1.2
		c-0.1,18.4,0.2,36.6,1,54.6c0.8,17.9,2.2,36,4.2,54.2c0.1,1-0.3,1.5-1.3,1.5c-1,0-1.6-0.5-1.7-1.5c-2.5-18-4-36.1-4.5-54.3
		C669.6,349.8,669.5,331.7,669.8,313.7z"/>
	<path class="st0" d="M170.9,643.4c-6.7,0-15.2,0.5-25.5,1.4c-10.4,0.9-21.2,2.1-32.5,3.6c-11.3,1.5-22.3,3.2-33.2,5.1
		c-10.8,1.9-20,4-27.6,6.1c-2.2,0.6-3.6,1.9-4.4,3.7c-0.8,1.9-0.9,3.7-0.5,5.5c0.5,1.8,1.5,3.2,3.1,4.4c1.6,1.2,3.8,1.4,6.4,0.8
		c3.4-0.6,7.1-1.3,11.1-2.1c3.4-0.8,7.4-1.6,12.1-2.4c4.6-0.8,9.7-1.7,15.1-2.4c-0.2,5.9-0.2,12.8-0.2,20.8c0,8,0.2,16.6,0.5,25.9
		c-0.2,10.8,0.1,22.3,0.8,34.4c0.7,12.1,1.8,23.7,3.4,34.7c1.5,11,3.4,21,5.7,29.9c2.2,9,4.8,15.8,7.8,20.4c0.8,1.4,1.9,2.4,3.2,3
		c1.4,0.6,2.9,0.9,4.6,0.9c1.7,0,3.4-0.3,5.1-1c1.7-0.7,3.2-1.7,4.5-2.9c1.3-1.2,2.3-2.8,3-4.8c0.7-1.9,0.9-4.1,0.6-6.4
		c-0.2-1.5-0.5-4.3-0.9-8.2c-0.5-3.9-0.9-8.5-1.4-13.7c-0.5-5.2-0.9-10.7-1.4-16.7c-0.5-6-0.9-11.7-1.3-17.3
		c-0.4-5.6-0.7-10.7-1-15.4c-0.3-4.7-0.5-8.5-0.5-11.2c-0.2-6.2-0.2-12.9,0-20.1c0.2-7.2,0.3-14.3,0.6-21.5
		c0.2-7.1,0.4-13.8,0.5-20.1c0.1-6.3,0-11.6-0.3-15.9c7.9-1.1,15.5-2,22.8-2.7c7.3-0.7,14-1.1,19.8-1.3c2.3,0,4-0.8,5.1-2.3
		c1.1-1.5,1.6-3.2,1.6-5.1c0-1.9-0.5-3.5-1.6-5C174.9,644.1,173.2,643.4,170.9,643.4z M114.1,804.1c-1,0.2-1.7-0.2-2-1.2
		c-4.3-22.6-6.9-45.3-7.7-68.2c-0.8-22.9-0.3-45.8,1.4-68.7c0-0.9,0.5-1.4,1.5-1.4c1,0,1.4,0.5,1.3,1.4c-1.4,11.4-2.1,22.8-2.2,34.2
		c-0.1,11.4,0.3,22.7,1.2,34c0.8,11.3,2,22.6,3.4,34c1.4,11.4,2.8,22.8,4.2,34.2C115.5,803.4,115.1,803.9,114.1,804.1z M121.7,823.6
		c-0.8,0.5-1.5,0.3-2.1-0.5c-2.3-2.8-3.3-6.2-3-10.2c0-0.9,0.5-1.4,1.5-1.5c1-0.1,1.4,0.4,1.3,1.5c0,1.7,0.3,3.2,0.8,4.5
		c0.5,1.3,1.2,2.7,2,4.3C122.6,822.5,122.5,823.1,121.7,823.6z"/>
	<path class="st0" d="M264.6,648.5c-3.4-0.5-7.2-0.8-11.5-1c-4.3-0.2-8.5-0.4-12.9-0.5c-4.3-0.1-8.6-0.1-12.9,0
		c-4.3,0.1-8.2,0.1-11.7,0.1c-6.2,0-11.4,0.6-15.5,1.9c-4.2,1.2-7.5,2.8-10.1,4.6c-2.6,1.9-4.4,3.9-5.7,6.3
		c-1.2,2.3-2.1,4.6-2.7,6.7c-0.5,2.2-0.8,4.1-0.8,5.8c0,1.7,0,2.9,0,3.7c0,5.9,0,13.2-0.1,21.9c-0.1,8.7,0,18.2,0.3,28.4
		c0.3,15.6,1,30,2.1,43.1c0.5,5.7,1.1,11.4,2,17c0.8,5.6,1.8,11,2.9,16c1.1,5,2.4,9.4,3.9,13.2c1.5,3.8,3.2,6.7,5.1,8.7
		c2.5,2.5,4.9,4.5,7.2,6.1c2.3,1.6,4.7,2.9,7.2,3.8c2.5,0.9,5.2,1.5,8.2,1.9c3,0.3,6.5,0.5,10.3,0.5c4.3,0,8.1-0.6,11.4-1.9
		c3.2-1.2,6.1-2.7,8.6-4.5c2.5-1.8,4.6-3.7,6.5-5.7c1.9-2,3.5-3.7,4.9-5.1c0.8-0.8,1.3-1.9,1.5-3.2c0.2-1.4-0.2-2.5-1.3-3.2
		c-1.4-0.9-3.3-0.6-5.8,0.9c-3.9,2.5-7.9,4.8-11.9,6.8c-4.1,2.1-7.8,3.1-11.2,3.1c-3.7,0-6.8-1.6-9.2-4.9c-2.4-3.2-3.7-9.1-3.8-17.6
		c0-2.6,0-6-0.1-10c-0.1-4-0.2-8.5-0.3-13.3c-0.2-4.9-0.3-9.6-0.5-14.3c-0.2-8.2-0.4-17-0.7-26.4c2.9-0.5,6.2-0.8,9.9-1
		c3.6-0.2,7.5-0.3,11.5-0.3c3.1,0,6.1,0.1,9.2,0.2c3,0.2,5.8,0.5,8.2,0.9c2.2,0.5,4,0.1,5.6-1.2c1.5-1.2,2.6-2.7,3-4.4
		c0.5-1.7,0.3-3.4-0.3-5c-0.7-1.6-2.2-2.7-4.5-3.1c-3.1-0.6-6.6-1-10.4-1.3c-3.9-0.2-7.8-0.3-11.8-0.3c-3.7,0-7.3,0.1-10.9,0.3
		c-3.6,0.2-6.8,0.5-9.7,0.8c-0.2-4.6-0.3-9.7-0.3-15.2c-0.1-5.5-0.2-11-0.2-16.6c-0.1-5.6-0.1-11,0-16.2c0.1-5.3,0.2-10,0.3-14.1
		c0.5,0,2.5,0,6.1,0c3.6,0,7.8,0,12.4,0c4.6,0,9.3,0.1,13.9,0.2c4.6,0.2,8.3,0.5,10.9,0.9c2.3,0.3,4.3-0.2,5.8-1.4
		c1.5-1.2,2.6-2.7,3-4.4c0.5-1.7,0.3-3.4-0.3-5C268.4,649.7,266.9,648.8,264.6,648.5z M198.1,787.6c-1,0.2-1.6-0.2-1.7-0.9
		c-4-19.5-6.3-39.5-6.7-60.2c-0.5-20.6-0.1-40.9,1.2-60.7c0-0.9,0.5-1.4,1.5-1.5c1-0.1,1.5,0.3,1.5,1.3c0,20.4,0.7,40.5,2,60.3
		c1.3,19.8,2.5,39.8,3.6,60.1C199.5,786.9,199.1,787.5,198.1,787.6z M207.5,816.5c-0.8,0.5-1.5,0.4-2.1-0.3
		c-1.5-2.2-2.8-4.5-3.7-7.1c-0.9-2.6-1.6-5.1-2.1-7.8c-0.3-0.9,0-1.5,0.9-1.9c0.9-0.3,1.5,0,1.9,0.9c1.1,5,2.9,9.7,5.6,14.1
		C208.4,815.3,208.3,816,207.5,816.5z"/>
	<path class="st0" d="M386.6,785.5c-2.3-3.9-5-7.5-8.1-11c-3.1-3.5-6-6.8-8.6-10.1c-7-8.8-14-17.1-21.1-24.8
		c-7.1-7.7-14-16.2-20.6-25.3c-1.9-2.6-3.8-5.3-5.7-7.9c-1.9-2.6-3.6-5.3-5.1-7.9c-1.5-2.6-2.5-5.3-3.1-8.1
		c-0.6-2.8-0.5-5.6,0.2-8.3c1.2-4.5,4.6-8.3,10.1-11.6c5.5-3.2,13.2-5.3,23.1-6c1.5-0.2,3.4-0.3,5.6-0.6c2.2-0.2,4.3-0.2,6.5,0.1
		c2.6,0,4.4,0.7,5.2,2.2c0.8,1.5,1.1,3.4,0.7,5.8c-0.4,2.4-1.2,5.1-2.4,8c-1.2,2.9-2.6,5.8-3.9,8.7c-1.4,2.9-2.6,5.5-3.7,8
		c-1.1,2.5-1.7,4.5-1.9,6c-0.5,4.8,0.3,8,2.3,9.7c2,1.7,4.9,3.3,8.6,4.9c0.8,0.3,1.7,0.7,2.9,1c1.2,0.4,2.4,0.6,3.6,0.6
		c1.7,0,3.4-0.5,5.1-1.6c1.7-1.1,3.2-3.2,4.6-6.5c1.2-2.9,2.7-6.2,4.3-9.9c1.6-3.6,2.9-7.5,3.9-11.5c1-4,1.6-8,1.7-12.1
		c0.2-4-0.6-7.8-2.2-11.4c-1.6-3.6-4.3-6.7-8.1-9.5c-3.8-2.8-9.1-4.9-15.9-6.3c-2.9-0.6-6.2-1.1-9.7-1.5c-3.6-0.4-7.2-0.6-10.9-0.6
		c-6.8,0-13.6,0.6-20.4,1.9c-6.8,1.2-12.7,3.2-17.6,5.8c-5.9,3.1-10.5,7-13.8,11.7c-3.3,4.7-5.5,9.8-6.6,15.3
		c-1.1,5.5-1.1,11.2-0.1,17c1,5.9,2.9,11.6,5.7,17.2c1.4,2.6,3.7,6.1,7.1,10.6c3.3,4.4,7.2,9.2,11.6,14.4
		c4.4,5.2,9.1,10.6,14.1,16.1c5,5.6,9.8,10.9,14.4,15.9c4.6,5,8.7,9.5,12.4,13.3c3.7,3.9,6.4,6.8,8.1,8.8c2,2.2,3.3,4.5,3.9,7.1
		c0.6,2.6,0.4,5.1-0.6,7.5c-1,2.5-3,4.7-5.9,6.7c-2.9,2-7,3.6-12.1,4.9c-2,0.5-4.3,0.3-6.8-0.3c-2.6-0.7-4.9-2-7.1-3.9
		c-2.2-1.9-4-4.4-5.5-7.5c-1.5-3.1-2.1-6.9-2-11.4c0-2.5-0.7-4.3-2.1-5.3c-1.4-1.1-3-1.6-4.9-1.6c-2.5,0-4.8,0.7-7,2.2
		c-2.2,1.5-3.2,3.5-3.2,6.1c0.2,6.6,1.5,12.3,4.1,17c2.6,4.7,5.9,8.6,10,11.6c4.1,3,8.8,5.2,14,6.5c5.3,1.3,10.7,1.7,16.2,1.3
		c4.5-0.3,8.9-1,13.2-2c4.3-1,8.3-2.5,11.9-4.4c3.6-1.9,6.8-4.3,9.5-7.2c2.7-2.9,4.7-6.4,5.9-10.6c1.5-5.4,1.9-10.4,0.9-14.8
		C390.5,793.6,388.9,789.4,386.6,785.5z M372.4,704.1c1.7-2,3.6-4.7,5.6-8.1c2-3.4,3.6-7,4.8-10.7c1.2-3.7,1.6-7.4,1.3-11
		c-0.3-3.6-1.9-6.6-4.6-8.9c-0.8-0.6-0.8-1.3-0.1-2c0.7-0.7,1.4-0.8,2.2-0.3c3.2,2.5,5.1,5.7,5.6,9.6c0.5,3.9,0.1,8-1,12.2
		c-1.2,4.2-2.9,8.2-5.1,12.1c-2.2,3.9-4.4,7-6.4,9.3c-0.6,0.8-1.3,0.8-2.1,0.1C371.6,705.6,371.6,704.9,372.4,704.1z M359.9,781.1
		c-0.8,0.6-1.5,0.6-2.3,0c-6.5-6.5-13.1-13.4-19.9-20.6c-6.8-7.3-13.1-14.9-18.9-23c-5.8-8-10.8-16.5-15-25.4
		c-4.2-8.9-6.9-18.1-8.1-27.7c-0.2-0.9,0.2-1.4,1.2-1.4c0.9,0,1.5,0.5,1.6,1.4c1.1,9.9,3.7,19.1,8,27.5c4.3,8.4,9.4,16.4,15.3,23.9
		c6,7.5,12.3,14.8,19.1,21.8c6.8,7,13.2,14.2,19.3,21.5C360.7,779.8,360.7,780.5,359.9,781.1z M320.6,823.1c-0.7,0.8-1.4,0.8-2.2,0
		c-3.1-2.9-5.4-6.3-6.8-10c-1.5-3.7-2.4-7.7-2.7-11.8c0-0.9,0.5-1.4,1.5-1.4c1,0,1.5,0.5,1.5,1.4c0.3,3.9,1,7.5,2.2,10.9
		c1.2,3.4,3.3,6.3,6.4,8.8C321.2,821.6,321.3,822.3,320.6,823.1z M372.8,800.1c-1,0.2-1.6-0.2-1.7-0.9c-0.3-1.4-0.7-2.7-1.2-3.8
		c-0.5-1.2-1.2-2.4-2.1-3.6c-0.5-0.6-0.3-1.2,0.5-1.9c0.8-0.6,1.4-0.6,1.9,0c2.2,2.6,3.5,5.6,3.9,8.8
		C374.2,799.5,373.8,800,372.8,800.1z"/>
	<path class="st0" d="M756.6,809.5c-1.2-5.5-3-11.1-5.5-16.9c-2.5-5.8-5.7-11.4-9.7-16.8c-4-5.4-9.1-10-15.3-13.9
		c7.4-8.3,13.2-17.3,17.3-26.9c4.1-9.6,7-19.9,8.7-31.1c1.4-9.3,1-17.5-1-24.6c-2.1-7.1-5.4-13-10-17.7c-4.6-4.7-10.1-8.3-16.5-10.8
		c-6.4-2.5-13.3-3.7-20.8-3.7c-2.2,0-4.7,0.3-7.5,0.9c-2.9,0.6-5.8,1.5-8.7,2.7c-2.9,1.2-5.8,2.6-8.7,4.4c-2.9,1.8-5.4,3.8-7.5,6.1
		c-0.5-4.5-1.4-7.9-2.9-10.3c-1.5-2.4-5-3.6-10.6-3.6c-3.4,0-7.5,0.5-12.3,1.6c-3.6,0.8-5.8,2.8-6.7,6c-0.9,3.2-1.4,6.6-1.4,10.2
		c-0.2,5.7-0.2,13-0.2,21.7c0,8.7,0.2,18.2,0.5,28.4c-0.2,10.8,0.1,22.2,0.8,34.1c0.7,11.9,1.8,23.4,3.2,34.3
		c1.5,11,3.4,20.9,5.8,29.7c2.4,8.8,5.1,15.5,8.2,19.9c0.8,1.4,1.9,2.4,3.2,3c1.4,0.6,2.9,0.9,4.6,0.9c1.7,0,3.4-0.3,5.2-1
		c1.8-0.7,3.3-1.7,4.6-2.9c1.3-1.2,2.3-2.8,3-4.6c0.7-1.9,0.9-3.9,0.6-6.3c-0.2-1.5-0.3-3-0.6-4.3c-0.2-1.3-0.4-3-0.6-5
		c-0.2-2-0.4-4.6-0.7-7.9c-0.3-3.2-0.7-7.5-1.2-12.8c6.5-1.2,13-3.4,19.6-6.6c6.6-3.2,12.6-6.8,18-10.8c5.4,3.7,9.9,7.7,13.3,12.1
		c3.5,4.3,6.5,8.8,8.9,13.5c2.5,4.6,4.6,9.4,6.5,14.3c1.9,4.9,3.8,9.7,5.8,14.5c0.5,1.2,1.2,2.1,2.2,2.7c1,0.5,2.1,0.8,3.4,0.8
		c1.9,0,3.6-0.8,5.2-2.3c1.6-1.5,2.3-3.7,2-6.5C758.6,819.9,757.8,815,756.6,809.5z M726.4,744.7c2.8-6.3,5.3-12.8,7.7-19.5
		c2.3-6.6,3.9-13.4,4.8-20.3c0.8-6.9,0.7-13.7-0.6-20.4c-1.2-6.7-3.9-13.3-8.1-19.6c-0.5-0.8-0.3-1.4,0.5-1.9
		c0.8-0.5,1.5-0.3,2.1,0.5c4.6,6.5,7.6,13.2,8.8,20.1c1.2,6.9,1.4,13.9,0.5,21c-0.9,7.1-2.6,14.2-5,21.2c-2.4,7-4.9,13.9-7.5,20.5
		c-0.5,1.1-1.2,1.4-2.2,0.8C726.2,746.6,725.9,745.8,726.4,744.7z M655.4,796.4c-0.9,0.2-1.5-0.2-1.9-0.9
		c-5.4-21.3-8.3-43.1-8.8-65.4c-0.5-22.3,0.6-44.3,3.2-66.1c0.2-0.9,0.7-1.3,1.6-1c0.9,0.2,1.3,0.8,1.2,1.7
		c-1.4,11.1-2.2,22.1-2.3,32.9c-0.2,10.8,0.1,21.6,0.8,32.4c0.7,10.7,1.7,21.5,3,32.4c1.3,10.8,2.7,21.7,4.3,32.7
		C656.7,795.8,656.3,796.3,655.4,796.4z M663.5,825c-0.9,0.3-1.5,0-1.9-0.9c-0.3-1.2-0.7-2.4-1-3.4c-0.4-1-0.7-2.1-1-3.4
		c-0.3-0.9,0-1.5,0.9-1.7c0.9-0.2,1.5,0,1.9,0.8c0.3,1.2,0.7,2.4,1,3.5c0.4,1.1,0.7,2.2,1,3.2C664.7,824,664.4,824.7,663.5,825z
		 M716.6,716.2c-1.4,14.5-3.9,25.9-7.7,34.1c-3.7,8.2-7.8,14.3-12.2,18.3c-4.4,4-8.8,6.5-13.1,7.5c-4.3,1-7.8,1.7-10.4,2
		c-0.2-2.2-0.3-5.4-0.6-9.7c-0.2-4.3-0.4-9.3-0.6-14.8c-0.2-5.6-0.3-11.5-0.5-17.9c-0.2-6.3-0.3-12.6-0.3-18.7
		c-0.1-6.1-0.1-11.9,0-17.3c0.1-5.4,0.2-10,0.3-13.9c1.4-2.6,3.1-5.5,5.1-8.5c2-3,4.2-5.8,6.6-8.3c2.4-2.6,4.9-4.7,7.7-6.4
		c2.7-1.7,5.5-2.6,8.2-2.6c3.6,0,7,1.7,10.2,5.1c2.8,2.9,4.8,6.7,6,11.4c1.2,4.6,2,9.4,2.2,14.3c0.2,4.9,0.2,9.6-0.1,14.1
		C717.2,709.5,716.9,713.2,716.6,716.2z M720.1,756.5h-0.9c-0.9,0-1.4-0.5-1.5-1.6c-0.1-1.1,0.4-1.5,1.5-1.4h0.9
		c0.9,0,1.4,0.5,1.5,1.4C721.7,755.8,721.2,756.4,720.1,756.5z"/>
	<path class="st0" d="M408,442.2c3,6.3,7.1,11.7,12.3,16.2c5.2,4.5,11.6,8.7,19.2,12.4c2.4,1.2,4.8,2.1,7.2,2.7
		c7.8-3.6,16.7-5.5,26.5-5.5c1.5,0,3,0.1,4.5,0.2c1.7-1.2,3.4-2.5,4.9-4c3.5-3.4,6.5-7.4,9-12.1c2.4-4.7,4.2-9.8,5.2-15.5
		c0.4-2.2,0.2-3.9-0.8-5.2c-0.9-1.3-2.1-1.9-3.6-1.9c-1.3,0-2.6,0.7-3.8,2.1c-1.2,1.4-2.1,3.6-2.7,6.6c-0.6,3.6-1.7,6.9-3.5,9.9
		c-1.7,3-3.8,5.5-6.2,7.6c-2.4,2-5,3.6-7.9,4.8c-2.9,1.2-5.8,1.7-8.6,1.7c-3.8,0-7.3-1.1-10.6-3.2c-3.3-2.2-5.9-5.5-7.8-10.2
		c-4-11.2-6.7-23.1-8-35.6c-1.3-12.5-1.6-24.6-0.8-36.4c0.8-11.8,2.4-22.8,5-33.1c2.5-10.2,5.5-18.6,9-25.1c1.6-2.9,3.6-5,5.9-6.4
		c2.4-1.4,4.8-2.1,7.2-2.1c4.5,0,8.5,2.1,12.2,6.4c3.7,4.3,5.5,10.6,5.5,19.1c0,3.2,0.8,5.5,2.3,7c1.5,1.5,3.1,2.3,4.6,2.3
		c1.3,0,2.4-0.5,3.5-1.4c1-0.9,1.5-2.4,1.5-4.4c0-6.5-0.9-12.1-2.6-16.9c-1.7-4.8-4.1-8.7-7-11.9c-3-3.2-6.5-5.5-10.5-7
		c-4-1.5-8.4-2.3-13.2-2.3c-7.6,0-14.3,1.4-20.1,4.1c-5.8,2.7-10.7,6.4-14.9,10.9c-4.2,4.5-7.6,9.8-10.4,15.9
		c-2.7,6.1-4.9,12.4-6.6,19c-1.7,6.6-2.8,13.3-3.5,20.1c-0.6,6.8-1,13.3-1,19.5c-0.1,11.4,0.4,21.3,1.7,29.6
		C402.8,428.6,405,435.9,408,442.2z M430.3,449.5c-0.7,0.5-1.4,0.4-1.9-0.3c-1-1.2-1.8-2.3-2.5-3.6c-0.6-1.2-1.3-2.4-1.8-3.6
		c-0.4-0.9-0.3-1.5,0.3-1.9c0.6-0.4,1.3-0.3,1.8,0.4c1.6,2.2,3.1,4.5,4.5,7.1C431.1,448.4,431,449,430.3,449.5z M411.1,373.6
		c0.5-9.5,2-18.7,4.4-27.6c2.4-8.9,6.1-16.6,10.8-23.2c0.4-0.7,1-0.9,1.8-0.4c0.8,0.4,1,1,0.5,1.7c-4.5,7.8-7.6,15.9-9.3,24.4
		c-1.7,8.5-2.7,17.1-2.8,25.8c-0.1,8.7,0.3,17.5,1.3,26.3c1,8.8,2,17.4,3,25.7c0.1,0.9-0.2,1.3-1.1,1.4c-0.9,0.1-1.4-0.2-1.7-1
		c-2.7-7.3-4.7-15.7-5.9-25C411,392.5,410.6,383.1,411.1,373.6z"/>
	<path class="st0" d="M521.6,643.4c-6.7,0-15.2,0.5-25.5,1.4c-1.3,0.1-2.6,0.3-4,0.4c-1.5,1.2-3,2.2-4.4,3.1
		c-4,2.4-8.3,3.6-12.8,3.6c-4.1,0-8.2-1.1-12.3-3.3c-10.9,1.4-21.7,3.1-32.2,5c-10.8,1.9-20,4-27.6,6.1c-2.2,0.6-3.6,1.9-4.4,3.7
		c-0.8,1.9-0.9,3.7-0.5,5.5c0.5,1.8,1.5,3.2,3.1,4.4c1.6,1.2,3.8,1.4,6.4,0.8c3.4-0.6,7.1-1.3,11.1-2.1c3.4-0.8,7.4-1.6,12.1-2.4
		c4.6-0.8,9.7-1.7,15.1-2.4c-0.2,5.9-0.2,12.8-0.2,20.8c0,8,0.2,16.6,0.5,25.9c-0.2,10.8,0.1,22.3,0.8,34.4
		c0.7,12.1,1.8,23.7,3.4,34.7c1.5,11,3.4,21,5.7,29.9c2.2,9,4.8,15.8,7.8,20.4c0.8,1.4,1.9,2.4,3.2,3c1.4,0.6,2.9,0.9,4.6,0.9
		c1.7,0,3.4-0.3,5.1-1c1.7-0.7,3.2-1.7,4.5-2.9c1.3-1.2,2.3-2.8,3-4.8c0.7-1.9,0.9-4.1,0.6-6.4c-0.2-1.5-0.5-4.3-0.9-8.2
		c-0.5-3.9-0.9-8.5-1.4-13.7c-0.5-5.2-0.9-10.7-1.4-16.7c-0.5-6-0.9-11.7-1.3-17.3c-0.4-5.6-0.7-10.7-1-15.4
		c-0.3-4.7-0.5-8.5-0.5-11.2c-0.2-6.2-0.2-12.9,0-20.1c0.2-7.2,0.3-14.3,0.6-21.5c0.2-7.1,0.4-13.8,0.5-20.1
		c0.1-6.3,0-11.6-0.3-15.9c7.9-1.1,15.5-2,22.8-2.7c7.3-0.7,14-1.1,19.8-1.3c2.3,0,4-0.8,5.1-2.3c1.1-1.5,1.6-3.2,1.6-5.1
		c0-1.9-0.5-3.5-1.6-5C525.6,644.1,523.9,643.4,521.6,643.4z M464.8,804.1c-1,0.2-1.7-0.2-2-1.2c-4.3-22.6-6.9-45.3-7.7-68.2
		c-0.8-22.9-0.3-45.8,1.4-68.7c0-0.9,0.5-1.4,1.5-1.4c1,0,1.4,0.5,1.3,1.4c-1.4,11.4-2.1,22.8-2.2,34.2c-0.1,11.4,0.3,22.7,1.2,34
		c0.8,11.3,2,22.6,3.4,34c1.4,11.4,2.8,22.8,4.2,34.2C466.2,803.4,465.8,803.9,464.8,804.1z M472.4,823.6c-0.8,0.5-1.5,0.3-2.1-0.5
		c-2.3-2.8-3.3-6.2-3-10.2c0-0.9,0.5-1.4,1.5-1.5c1-0.1,1.4,0.4,1.3,1.5c0,1.7,0.3,3.2,0.8,4.5c0.5,1.3,1.2,2.7,2,4.3
		C473.3,822.5,473.2,823.1,472.4,823.6z"/>
	<path class="st0" d="M533.3,489.5c-2.7,3.4-4.1,7.5-4.1,12.2c0,2.4,0.5,4.7,1.6,7c1.1,2.3,2.7,4.3,4.9,5.8c2.2,1.5,5,2.3,8.3,2.3
		c5.2,0,9.3-1.9,12.1-5.6c2.6-3.5,4-7.7,4-12.3c0-3.6-1.2-7-3.6-10c-2.5-3.2-6.3-4.8-11.1-4.8C540.2,484.1,536.2,486,533.3,489.5z"
		/>
	<path class="st0" d="M615.3,648.5c-3.4-0.5-7.2-0.8-11.5-1c-4.3-0.2-8.5-0.4-12.9-0.5c-4.3-0.1-8.6-0.1-12.9,0
		c-1.1,0-2.1,0-3.2,0.1c-6,5.2-12.4,7.8-19.1,7.8c-4.3,0-8.2-1.1-11.7-3.3c-1.3,0.6-2.4,1.3-3.4,2c-2.6,1.9-4.4,3.9-5.7,6.3
		c-1.2,2.3-2.1,4.6-2.7,6.7c-0.5,2.2-0.8,4.1-0.8,5.8c0,1.7,0,2.9,0,3.7c0,5.9,0,13.2-0.1,21.9c-0.1,8.7,0,18.2,0.3,28.4
		c0.3,15.6,1,30,2.1,43.1c0.5,5.7,1.1,11.4,2,17c0.8,5.6,1.8,11,2.9,16c1.1,5,2.4,9.4,3.9,13.2c1.5,3.8,3.2,6.7,5.1,8.7
		c2.5,2.5,4.9,4.5,7.2,6.1c2.3,1.6,4.7,2.9,7.2,3.8c2.5,0.9,5.2,1.5,8.2,1.9c3,0.3,6.5,0.5,10.3,0.5c4.3,0,8.1-0.6,11.4-1.9
		c3.2-1.2,6.1-2.7,8.6-4.5c2.5-1.8,4.6-3.7,6.5-5.7c1.9-2,3.5-3.7,4.9-5.1c0.8-0.8,1.3-1.9,1.5-3.2c0.2-1.4-0.2-2.5-1.3-3.2
		c-1.4-0.9-3.3-0.6-5.8,0.9c-3.9,2.5-7.9,4.8-11.9,6.8c-4.1,2.1-7.9,3.1-11.3,3.1c-3.7,0-6.8-1.6-9.2-4.9c-2.4-3.2-3.7-9.1-3.8-17.6
		c0-2.6,0-6-0.1-10c-0.1-4-0.2-8.5-0.3-13.3c-0.2-4.9-0.3-9.6-0.5-14.3c-0.2-8.2-0.4-17-0.7-26.4c2.9-0.5,6.2-0.8,9.9-1
		c3.6-0.2,7.5-0.3,11.5-0.3c3.1,0,6.1,0.1,9.2,0.2c3,0.2,5.8,0.5,8.2,0.9c2.2,0.5,4,0.1,5.6-1.2c1.5-1.2,2.6-2.7,3-4.4
		c0.5-1.7,0.3-3.4-0.3-5c-0.7-1.6-2.2-2.7-4.5-3.1c-3.1-0.6-6.6-1-10.4-1.3c-3.9-0.2-7.8-0.3-11.8-0.3c-3.7,0-7.3,0.1-10.9,0.3
		c-3.6,0.2-6.8,0.5-9.7,0.8c-0.2-4.6-0.3-9.7-0.3-15.2c-0.1-5.5-0.2-11-0.2-16.6c-0.1-5.6-0.1-11,0-16.2c0.1-5.3,0.2-10,0.3-14.1
		c0.5,0,2.5,0,6.1,0c3.6,0,7.8,0,12.4,0c4.6,0,9.3,0.1,13.9,0.2c4.6,0.2,8.3,0.5,10.9,0.9c2.3,0.3,4.2-0.2,5.8-1.4
		c1.5-1.2,2.6-2.7,3-4.4c0.5-1.7,0.3-3.4-0.3-5C619.1,649.7,617.6,648.8,615.3,648.5z M548.8,787.6c-1,0.2-1.6-0.2-1.7-0.9
		c-4-19.5-6.3-39.5-6.7-60.2c-0.5-20.6-0.1-40.9,1.2-60.7c0-0.9,0.5-1.4,1.5-1.5c1-0.1,1.5,0.3,1.5,1.3c0,20.4,0.7,40.5,2,60.3
		c1.3,19.8,2.5,39.8,3.6,60.1C550.2,786.9,549.8,787.5,548.8,787.6z M558.2,816.5c-0.8,0.5-1.5,0.4-2.1-0.3
		c-1.5-2.2-2.8-4.5-3.7-7.1c-0.9-2.6-1.6-5.1-2.1-7.8c-0.3-0.9,0-1.5,0.9-1.9c0.9-0.3,1.5,0,1.9,0.9c1.1,5,2.9,9.7,5.6,14.1
		C559.1,815.3,559,816,558.2,816.5z"/>
	<path class="st0" d="M541.6,643.2c3.7,4.6,8.5,7,14.2,7c6.3,0,12.4-2.9,18.2-8.6c5.5-5.4,10.8-12.5,15.8-20.9
		c5-8.4,9.7-17.5,14.1-27c2.4-5.3,4.8-10.4,7-15.5c1.9,3.6,4.3,6.9,7.2,9.9c8.9,9.1,21.6,13.7,37.7,13.7c17.8,0,35.4-8.1,52.4-24.2
		c16.7-15.8,28.1-28.6,33.8-38c0.5-0.8,0.7-1.6,0.7-2.4c0-1.7-0.8-3.1-2.3-4c-0.8-0.5-1.5-0.7-2.4-0.7c-1.7,0-3.1,0.8-4,2.3
		c-5.2,8.6-15.7,20.5-31.2,35.5c-15.2,14.7-31.1,22.1-47.1,22.1c-8.5,0-15.5-3.5-21.3-10.8c-5.8-7.3-8.8-17.9-8.8-31.4
		c0-2,0.1-3.9,0.1-5.7c0.1-0.2,0.2-0.4,0.3-0.6c4.9,2.6,10.8,4,17.7,4c6.3,0,12.2-2,17.4-6.1c5.4-4.2,8.1-9.7,8.1-16.4
		c0-7.8-2.8-13.7-8.2-17.6c-5.2-3.7-11.1-5.6-17.6-5.6c-12.5,0-22.3,5.2-29,15.3c-6.5,9.9-9.8,21.1-9.8,33.5c0,5.1,0.5,9.9,1.5,14.3
		c-2.6,5.9-5.4,12.1-8.4,18.5c-4.2,9-8.7,17.7-13.3,25.8c-4.5,8-9.1,14.7-13.6,19.9c-4.1,4.8-7.9,7.2-11.2,7.2c-0.7,0-3,0-5.1-5.2
		c-1.7-4.2-3-9.9-3.9-16.7c-0.9-7-1.5-14.6-1.7-22.6c-0.2-4.8-0.2-9.6-0.2-14.3c0-3.1,0-6.3,0.1-9.3c0.2-7.7,0.5-14.7,0.9-21.1
		c0.6-8.6,0.7-10.3,0.7-10.8c0-2.1-0.9-5.1-4.9-6.8c-1.9-0.8-3.9-1.3-5.9-1.3c-1.1,0-2.3,0.1-3.5,0.4c-4.6,1.1-6.2,4.2-6.6,6.6
		l0,0.1c-0.7,5.1-1.3,11.4-1.7,18.8c-0.3,5.3-0.5,11-0.6,16.9c-3.3,5.2-6.5,10.5-9.5,15.9c-2.1,3.6-4.1,7.2-6.2,10.6l-0.7,1.1
		c-1.3,2.3-3.3,5.5-6,9.8c-2.6,4.2-5.6,8.6-8.9,13.2c-3.2,4.5-6.4,8.4-9.6,11.5c-3.6,3.7-5.7,4.2-6.6,4.2c-2.2,0-4.1-0.9-6-2.8
		c-2.1-2.1-4.1-5-5.8-8.4c-1.8-3.5-3.4-7.4-4.7-11.5c-1.4-4.1-2.5-8.2-3.5-12.2c-1-4-1.8-7.4-2.4-10.2l-0.4-1.7
		c3.9-2.1,7.4-5.2,10.4-9.2c3.5-4.6,5.3-8.9,5.3-12.9c0-3.2-1.2-5.8-3.5-7.7c-2.2-1.8-4.9-2.7-8.1-2.7c0,0,0,0,0,0
		c-2.9,0.1-5.6,0.7-7.9,1.9c-2.2,1.1-4.2,2.5-5.9,4.2l-0.1,0.1c-3.5,3.6-6,6.9-7.6,10c-3.5,6.2-6.2,12.7-7.9,19.4
		c-3.1-8-5.1-17.4-5.9-28.2c8-1.7,16.2-4.8,24.5-9.2c8.9-4.7,17.4-10.4,25.2-17c7.9-6.6,14.4-13.8,19.4-21.3
		c5.1-7.7,7.8-15.2,7.8-22.3c0-7.4-2.8-13.2-8.4-17.4c-5.4-4-12.5-6.1-21.2-6.1c-10.1,0-19.1,2.1-26.9,6.2
		c-7.7,4.1-14.3,9.7-19.5,16.5c-5.2,6.8-9.3,14.6-12.1,23c-2.8,8.4-4.5,17.2-5,26.1c-0.2,2.6-0.3,5.3-0.3,8c0,1.5,0,3,0.1,4.6
		c-0.8,0.5-1.7,0.9-2.6,1.4c-7.6,3.7-15.8,6.5-24.4,8.4c-8.5,1.8-15.8,2.7-21.6,2.8c0.5-4,0.7-7.6,0.7-10.7c0-5.4-0.7-10.9-2-16.6
		c-1.3-5.7-3.4-11-6.1-15.8c-2.8-4.9-6.5-9-11.1-12.1c-4.6-3.1-10.3-4.7-16.7-4.7c-8.6,0-15.8,2.5-21.4,7.4
		c-5.7,5-8.6,12.3-8.6,21.6c0,2,0.2,4.1,0.5,6.1c-3.3,4.8-8.5,8.9-15.4,12.2c-7.6,3.6-15.8,6.4-24.5,8.1c-8.5,1.8-15.8,2.7-21.6,2.7
		c0.5-3.8,0.7-7.3,0.7-10.3c0-5.2-0.7-10.6-2-16.1c-1.3-5.5-3.4-10.7-6.1-15.4c-2.8-4.8-6.6-8.7-11.1-11.7c-4.6-3-10.2-4.6-16.7-4.6
		c-8.6,0-15.8,2.4-21.4,7.2c-5.7,4.9-8.6,12-8.6,21.1c0,2.4,0.2,4.8,0.7,7.3c-0.2,1.1-0.3,2.1-0.5,3.3c-2.2,3.8-4.6,7.7-7.1,11.8
		c-3.9,6.4-8.2,12.9-12.8,19.1c-4.5,6.2-9.5,11.9-14.6,17c-5.1,5-10.6,9.1-16.3,12.1c-5.5,2.9-11.5,4.4-17.6,4.4
		c-5.8,0-10.9-1.4-14.9-4.1c-4.1-2.8-7.5-6.5-10.1-11.1c-2.6-4.7-4.5-10-5.7-15.7c-1.2-5.8-1.8-11.6-1.8-17.4
		c0-7.9,1.2-16.2,3.6-24.8c2.4-8.5,5.6-15.8,9.4-21.6c3.5-5.3,7.1-8,10.7-8c2.9,0,4.9,0.9,6.3,2.7c1.5,2.1,2.2,4.4,2.2,7.2
		c0,4-0.7,7.8-2.1,11.5c-0.3,0.7-0.4,1.3-0.4,1.9c0,0.5,0.1,1,0.3,1.5c0.4,1.1,1.2,2,2.2,2.6l0.3,0.2l0.3,0.1c0.5,0.1,1,0.2,1.5,0.2
		c0.5,0,1-0.1,1.5-0.2c1.3-0.3,2.3-1.2,2.8-2.5c2-4.4,3-9,3-13.7c0-3.4-0.6-6.7-1.8-9.8c-1.2-3.2-3.2-5.8-5.8-7.9
		c-2.7-2.1-6.2-3.1-10.3-3.1c-6.9,0-13.3,1.9-19,5.7c-5.6,3.7-10.4,8.6-14.4,14.5c-4,5.9-7.1,12.4-9.3,19.4
		c-2.2,7-3.2,13.9-3.2,20.6c0,8.1,0.9,15.9,2.8,23.4c1.9,7.5,4.8,14.4,8.8,20.3c4,6,9.2,10.8,15.4,14.4c6.3,3.5,13.7,5.3,22.2,5.3
		c8.1,0,15.9-1.7,22.9-5.1c7-3.3,13.6-7.9,19.6-13.4c6-5.5,11.6-11.8,16.8-18.6c4.5-5.9,8.7-12,12.7-18.2c0,1.3-0.1,2.6-0.1,3.9
		c0,11.4,1.2,21.3,3.5,29.5l0,0.1c2.2,6.5,5.4,11.4,9.5,14.6c4.1,3.2,8.8,4.9,13.7,4.9c6.7,0,12.4-1.6,17-4.7
		c4.5-3.1,8.4-7.4,11.7-13.1c4.6-8.3,7.9-17.4,9.9-27.1h1.2c6.8,0,15-1,24.4-3c9.5-2,18.5-5,26.8-9.1c3.4-1.7,6.4-3.5,9.1-5.6
		c-0.4,4.8-0.6,9.9-0.7,15.3c0,11.7,1.2,21.9,3.5,30.3l0,0.1c2.2,6.7,5.4,11.7,9.5,15c4.2,3.3,8.8,5,13.7,5c6.7,0,12.4-1.6,17-4.9
		c4.5-3.2,8.4-7.7,11.7-13.4c4.6-8.6,7.9-18,9.9-27.9h1.2c6.8,0,15-1,24.4-3c8.8-1.9,17.3-4.8,25.1-8.6c0.2,1.9,0.4,3.8,0.7,5.8
		c1.4,10,4.2,19.3,8.2,27.8c0.8,2,2.2,4.2,4.1,6.6c2.2,2.8,4.9,4.3,7.9,4.4l0.1,0c2,0,3.5-0.5,4.7-1.4c1.6-1.2,2-2.6,2.1-3.5
		c0.5-5.6,1.6-11.1,3.5-16.5c0.2,1.6,0.7,4,1.6,7.7c1,5.5,2.3,11.7,4,18.3c1.7,6.9,4.2,13.1,7.4,18.4l0.1,0.1
		c2.7,4.1,5.9,7.1,9.5,9.1c3.6,2,7.2,3,10.6,3c3.7,0,7.2-1,10.5-2.9c3-1.8,6.2-4.4,9.3-7.7c4.9-5.2,9.5-11.1,13.7-17.6
		c4.2-6.4,7.4-11.6,9.7-15.6c0.4-0.8,0.8-1.4,1.1-1.9l0-0.1c0,0,4.2-7.1,6.3-10.7c0.7-1.3,1.5-2.6,2.2-3.9c0.2,5.5,0.6,11,1.2,16.5
		c0.9,8.3,2.3,16,4.4,22.9C535.3,633.2,538.1,639,541.6,643.2z M630.8,523.6c3.7-6.9,8.9-10.3,15.7-10.5c3.6,0,6.3,1.1,8.2,3.5
		c2.1,2.4,3.1,5.4,3.1,9c0,4-1.3,7.1-3.9,9.5c-2.7,2.4-6,3.6-10,3.6c-5.8-0.1-10.8-1.3-14.8-3.4c-0.3-0.9-0.9-1.7-1.7-2.3
		C628.2,529.3,629.3,526.2,630.8,523.6z M218.4,591.4c-1.8,5.5-4.4,10.1-7.7,13.7c-3.1,3.4-6.2,5.1-9.7,5.1c-3.1,0-5.7-2.4-8.1-7.3
		c-2.6-5.4-4-16.9-4.1-34.2c4.7,2.5,9.9,4.3,15.4,5.5c5.9,1.3,11.9,2.1,17.8,2.5C221.3,581.7,220.1,586.6,218.4,591.4z M223.5,567.5
		c-5.9-0.3-12-1.2-17.9-2.5c-6.1-1.4-11.5-3.6-16-6.8c0.6-6.5,1.8-12.9,3.5-19.2c0.3-1.1,0.4-2.2,0.4-3.2c0-2.3-0.8-4.2-2.3-5.6
		c-1.6-1.5-3.7-2.3-6.2-2.3c-1.4,0-2.7,0.2-4,0.5c1.2-2.4,2.8-4.3,5-5.7c3.7-2.5,8.3-3.8,13.8-3.8c4.8,0,8.7,1.1,11.7,3.4
		c3.1,2.3,5.6,5.4,7.4,9.1c1.8,3.9,3.1,8.1,3.9,12.7c0.8,4.7,1.2,9.1,1.2,13.3C224,560.3,223.8,563.7,223.5,567.5z M344.6,593.8
		c-1.8,5.6-4.4,10.4-7.7,14.2c-3.1,3.5-6.2,5.3-9.7,5.3c-3,0-5.8-2.5-8.1-7.5c-2.6-5.6-4-17.5-4.1-35.4c4.7,2.5,9.9,4.5,15.4,5.7
		c5.9,1.3,11.9,2.2,17.8,2.6C347.4,583.7,346.2,588.8,344.6,593.8z M349.6,569.3c-5.9-0.3-11.9-1.2-17.9-2.6c-6.1-1.4-11.5-3.8-16-7
		c0.6-6.7,1.8-13.4,3.5-19.9c0.3-1.1,0.4-2.2,0.4-3.2c0-2.4-0.8-4.3-2.2-5.7c-1.6-1.6-3.7-2.3-6.2-2.3c-1.4,0-2.8,0.2-4.1,0.6
		c1.2-2.5,2.9-4.5,5.1-6.1c3.7-2.6,8.3-3.9,13.8-3.9c4.8,0,8.7,1.2,11.7,3.5c3.1,2.4,5.6,5.6,7.4,9.4c1.8,4,3.2,8.4,3.9,13.1
		c0.8,4.8,1.2,9.4,1.2,13.8C350.1,561.8,349.9,565.3,349.6,569.3z M425.6,555.6c0-9.2,1-18.5,3-27.6c2.3-10.7,6.2-20.4,11.4-28.6
		c5.2-8.1,12-13.8,20.2-17.1c4.1-1.6,8.5-2.3,13.1-2.3c6.6,0,11.8,1.4,15.7,4.3c3.7,2.7,5.6,6.6,5.6,11.9c0,6-2.3,12.3-6.8,19
		c-4.7,6.8-10.7,13.4-18.1,19.5c-7.3,6.1-15.2,11.5-23.4,15.8c-7.2,3.8-14.1,6.5-20.7,8C425.6,557.4,425.6,556.5,425.6,555.6z
		 M444.4,586.2c-0.5,0.2-1,0.4-1.4,0.8c1.2-3.1,2.7-6.1,4.4-9.1c0.6-1.1,1.6-2.5,3-4.4c1.3-1.8,2.9-3.5,4.6-5
		c1.4-1.2,2.7-1.8,3.9-1.8c0.6,0,1.4,0.1,1.8,0.5c0.2,0.3,0.6,0.7,0.6,1.6c0,3.3-1.7,6.7-5.1,10.1
		C452.5,582.3,448.6,584.8,444.4,586.2z"/>
	<path class="st0" d="M1049.6,536.3l-107.5-17.4c29.4-21.7,46.8-57.9,42.8-96.8c-6.1-58.5-58.5-101-117-94.9
		c-58.5,6.1-101,58.5-94.9,117c4,38.7,28.4,70.4,61.4,85.7l-102.6,39.5c-22,8.8-32.1,34.2-22.3,55.7c9.5,20.7,33.9,29.9,54.7,20.5
		l37.6-16.1c0,0,10.4-4.3,16.6,7.8c6.2,12-4.5,32.8-4.5,32.8l-40.2,85c-11.4,25.6,1.3,55.5,27.7,65l0,0c22.5,8.1,47.5-1.6,58.8-22.6
		l32.3-63.2v0c0,0,5.5-10.3,15.3-11.3c9.8-1,15.9,4.8,17.8,7l0.7,0.8l0,0L971,786c15.4,18.3,41.8,22.5,62.2,10v0
		c23.9-14.7,30.2-46.6,13.7-69.3L990,651.8h0c0,0-14.7-18.2-11.1-31.2c3.6-13,14.6-11,14.6-11l40.1,8c22.3,4.9,44.3-9.2,49.3-31.4
		C1088.1,563.1,1072.9,540.4,1049.6,536.3z M766.9,628.9c-2.9,4.8-9.4,6.5-10.2,6.7c-0.1,0-0.3,0.1-0.4,0.1
		c-1.6,0.2-3.2-0.9-3.6-2.5c-0.4-1.8,0.7-3.6,2.5-4c1.2-0.3,4.8-1.6,6-3.6c0.4-0.7,0.5-1.4,0.2-2.3c-0.6-2.1-2.2-3-4.8-4.3
		c-2.6-1.3-5.8-2.8-6.8-6.7c-1-3.9,0.9-7.1,2.3-9.7c1-1.8,2-3.4,1.8-4.8c-0.1-0.6-0.8-1-2.8-2c-2.8-1.4-6.6-3.2-7.9-8.1
		c-2.2-8,4.1-13.6,7.8-15.5c1.6-0.8,3.7-0.2,4.5,1.5c0.8,1.6,0.2,3.6-1.4,4.5c-0.3,0.2-5.7,3.1-4.4,7.8c0.5,1.9,2,2.7,4.5,3.9
		c2.5,1.3,6,3,6.5,7.2c0.4,3.6-1.3,6.5-2.6,8.9c-1.2,2.2-2,3.6-1.7,4.8c0.2,0.8,1.4,1.4,3.2,2.3c2.9,1.4,6.9,3.4,8.3,8.5
		C768.5,624,768.2,626.6,766.9,628.9z M822.6,407.1c-0.8-7.8,4.9-14.9,12.7-15.7c7.8-0.8,14.9,4.9,15.7,12.7
		c0.8,7.8-4.9,14.9-12.7,15.7C830.4,420.6,823.4,414.9,822.6,407.1z M849.6,788.9c-0.4,1.5-1.7,2.5-3.2,2.6c-0.5,0-1,0-1.4-0.1
		c-2-0.6-3.1-2.6-2.5-4.6c0.4-1.3,1.1-5.4-0.2-7.7c-0.4-0.8-1.1-1.3-2.1-1.5c-2.4-0.6-4.1,0.5-6.8,2.3c-2.6,1.8-5.9,4-10.1,2.8
		c-4.3-1.2-6.4-4.8-8-7.6c-1.2-2-2.2-3.8-3.6-4.4c-0.6-0.3-1.4,0.2-3.5,1.6c-2.8,1.9-6.7,4.5-12.2,3.2c-8.9-2.3-10.9-11.5-10.6-16
		c0.1-2,1.8-3.6,3.9-3.5c2,0.1,3.6,1.8,3.5,3.9c0,0.3-0.2,7.2,5.1,8.5c2.1,0.5,3.8-0.5,6.2-2.1c2.6-1.7,6.2-4.1,10.5-2.3
		c3.7,1.6,5.6,4.8,7.1,7.4c1.4,2.4,2.3,3.9,3.7,4.2c0.8,0.2,2.1-0.5,4-1.8c3-2,7.1-4.8,12.8-3.3c3,0.8,5.3,2.5,6.7,5
		C851.8,780.9,849.8,788.1,849.6,788.9z M878.9,570.9c-0.8-7.5,4.7-14.2,12.1-15c7.5-0.8,14.2,4.7,15,12.1c0.8,7.5-4.7,14.2-12.1,15
		S879.6,578.4,878.9,570.9z M883.9,619.3c-0.8-7.5,4.7-14.2,12.1-15c7.5-0.8,14.2,4.7,15,12.1c0.8,7.5-4.7,14.2-12.1,15
		C891.4,632.2,884.7,626.8,883.9,619.3z M904,680.2c-7.5,0.8-14.2-4.7-15-12.1c-0.8-7.5,4.7-14.2,12.1-15c7.5-0.8,14.2,4.7,15,12.1
		C916.9,672.7,911.5,679.4,904,680.2z M926.7,462.8c-2.4,3.9-15.8,23.5-41.8,26.3c0,0-0.1,0-0.1,0c-26.1,2.7-43.3-13.8-46.5-17.1
		c-2.3-2.4-2.2-6.2,0.2-8.5c2.4-2.3,6.2-2.2,8.5,0.2c1.5,1.6,15.6,15.6,36.5,13.4c0,0,0.1,0,0.1,0c20.9-2.2,31.7-18.8,32.8-20.7
		c1.8-2.8,5.5-3.7,8.3-2C927.6,456.2,928.4,459.9,926.7,462.8z M915.9,411.7c-7.8,0.8-14.9-4.9-15.7-12.7
		c-0.8-7.8,4.9-14.9,12.7-15.7c7.8-0.8,14.9,4.9,15.7,12.7C929.4,403.8,923.7,410.9,915.9,411.7z M983.8,755.6
		c5.3-2.6,9.9-0.8,13.2,0.6c2.2,0.9,3.5,1.4,4.3,1c1.2-0.6,1.8-2.3,2.7-4.9c1-2.9,2.1-6.4,5.4-8.7c3.9-2.7,7.9-1.1,10.8,0.1
		c2.8,1.1,4.6,1.8,6.5,0.8c4.9-2.4,3.3-9.1,3.2-9.4c-0.5-2,0.7-4,2.7-4.5c2-0.5,4,0.7,4.5,2.6c1.2,4.4,1.2,13.8-7.1,17.9
		c-5,2.5-9.4,0.7-12.6-0.6c-2.3-0.9-3.3-1.2-3.8-0.9c-1.3,0.9-1.9,2.8-2.6,5c-1,3.1-2.3,7-6.3,9.1c-3.9,2-7.5,0.5-10.5-0.7
		c-3-1.2-4.9-1.9-7.1-0.8c-0.9,0.5-1.5,1.1-1.8,1.9c-0.8,2.5,0.8,6.4,1.4,7.6c1,1.8,0.3,4-1.5,5c-0.4,0.2-0.9,0.4-1.4,0.4
		c-1.4,0.2-2.9-0.6-3.6-1.9c-0.4-0.7-3.8-7.4-2-13.3C979.2,759.1,981.1,756.9,983.8,755.6z M1033.3,605.4c-0.1,0-0.3,0-0.4,0
		c-0.7,0-7.3-0.3-11-4.3c-1.7-1.9-2.6-4.3-2.4-7c0.3-5.2,3.7-7.9,6.2-9.8c1.6-1.3,2.6-2.1,2.6-2.8c0-1.2-0.9-2.4-2.6-4.2
		c-1.8-2-4-4.5-4.3-7.9c-0.4-4.2,2.6-6.5,4.8-8.2c2.1-1.6,3.3-2.7,3.5-4.6c0.3-4.8-5.5-6.5-5.8-6.5c-1.7-0.5-2.7-2.3-2.3-4
		c0.5-1.7,2.3-2.7,4-2.3c3.9,1,11.1,5.1,10.5,13.2c-0.3,4.9-3.6,7.5-5.9,9.3c-1.7,1.4-2.4,2-2.3,2.5c0.1,1.3,1.3,2.7,2.7,4.2
		c1.9,2.2,4.4,4.9,4.2,8.8c-0.2,3.8-2.9,6-5.1,7.7c-2.2,1.7-3.6,2.9-3.8,5.1c-0.1,0.9,0.2,1.6,0.7,2.2c1.6,1.7,5.3,2.2,6.4,2.2
		c1.8,0.1,3.2,1.6,3.1,3.3C1036.2,603.9,1034.9,605.2,1033.3,605.4z"/>
</g>
</svg>
