<?xml version="1.0" encoding="utf-8"?>
<!-- Generator: Adobe Illustrator 23.0.3, SVG Export Plug-In . SVG Version: 6.00 Build 0)  -->
<svg version="1.1" id="Layer_1" xmlns="http://www.w3.org/2000/svg" xmlns:xlink="http://www.w3.org/1999/xlink" x="0px" y="0px"
	 viewBox="0 0 1133.9 1133.9" style="enable-background:new 0 0 1133.9 1133.9;" xml:space="preserve">
<style type="text/css">
	.st0{fill:#1E2121;}
	.st1{fill:#A81F26;}
	.st2{fill:#F2F1F2;}
	.st3{fill:#DD353A;}
	.st4{fill:#CFCFCE;}
	.st5{fill:#1D2121;}
	.st6{fill:none;}
	.st7{fill:#AA1F23;}
	.st8{fill:#FDFEFE;}
	.st9{fill:#EE742C;}
	.st10{fill:#BA5234;}
	.st11{fill:#ED1C24;}
	.st12{fill:#C42C3A;}
	.st13{fill:#058743;}
	.st14{fill:#0F4D70;}
	.st15{fill-rule:evenodd;clip-rule:evenodd;fill:#C42C3A;}
	.st16{fill-rule:evenodd;clip-rule:evenodd;fill:#1E2121;}
	.st17{fill:#E8E8E8;}
	.st18{fill:#186634;}
	.st19{fill:#BF2730;}
	.st20{fill:#B47A48;}
	.st21{fill:#3E1E14;}
	.st22{fill:#DBAD5D;}
	.st23{fill:#B84947;}
	.st24{fill:#C3976E;}
	.st25{fill:#9D2023;}
	.st26{fill:#3C2517;}
	.st27{fill:#4A3A31;}
	.st28{fill:#EDAD4F;}
	.st29{fill:#F8C018;}
</style>
<g>
	<g>
		<path class="st5" d="M575.5,778.1C575.5,778.1,575.5,778.1,575.5,778.1c0.3-0.1,1.1,0,1.3,0c0,0,0,0,0,0c-0.9-0.5-2.2-0.5-2.5-0.5
			c0,0,0,0,0,0c0.4-0.4,1.7-0.9,2-1c0,0,0,0,0,0c-1.2-1.3-5.4-0.3-5.9-0.2c0,0,0,0,0,0c0.1-0.6,1-1.3,1.2-1.5c0,0,0,0,0,0
			c-2.2-0.1-4.6,0.9-5,1.1c0,0,0,0,0,0l0.7-1c0,0,0,0,0,0c-1.5,0-3.1,0.4-4.5,0.8c0,0-0.1,0-0.1-0.1c0-0.5,0-0.9-0.1-1.2
			c-0.4-1.4-5-2.3-6.9-3c-0.9-0.4-2.3-0.4-3.6-0.4c-0.5-0.6-1-1.1-1-1.2c-0.1-0.2-0.1-0.5-0.3-0.9c0,0,0,0,0,0
			c-0.1-0.4-0.4-0.9-0.6-1c-0.1-0.1-0.2,0.1-0.2,0.1s-0.1-0.2-0.3-0.1c-0.1,0-0.1,0.2-0.1,0.2l-0.2-0.2c-0.1-0.1-0.3-0.1-0.4,0
			c0,0,0,0.2,0,0.4c0,0-0.1-0.1-0.1-0.1c-0.1-0.2-0.2-0.4-0.3-0.3c-0.2,0-0.2,0.2-0.2,0.4c0,0.2,0.2,0.7,0.2,0.7l0,0
			c0.1,0.2,0.2,0.6,0.3,0.7c0,0,0,0,0,0.1c-0.1,0.1-0.4,0-0.4,0c-0.5-0.3-0.7,0.1-0.7,0.2c0,0.1,0.4,0.3,0.6,0.5
			c0.2,0.2,1,0.3,1.1,0.3c0,0,0,0,0,0c0,0.1,0.1,0.3,0.2,0.4c-0.1,0-0.2,0-0.2,0c0,0-0.1,0-0.1,0c-1-0.3-1.8-0.1-2.4,0.1
			c0,0,0,0,0,0c-0.1-0.3-0.1-0.7-0.3-1c-0.3-0.6-2.5-1.5-2.5-1.5l0,0c-0.6-0.3-1.3-0.4-2-0.4c-1.5,0-2.8,0.6-3.7,1.6c0,0,0,0,0,0
			c0,0,0,0,0,0c-1.9,1.8-1.5,4.4-1.5,5.6c-0.5-0.1-1.8-0.5-2.3-0.6c0,0-0.1,0,0,0.1l0.7,1c0,0,0,0,0,0c-0.4-0.2-2.8-1.2-5-1.1
			c0,0,0,0,0,0c0.2,0.2,1.1,0.8,1.2,1.4c0,0,0,0.1-0.1,0c-0.6-0.1-4.8-1.1-5.9,0.2c0,0,0,0,0,0c0.3,0.1,1.6,0.6,2,1c0,0,0,0,0,0
			c-0.2,0-1.6,0-2.5,0.5c0,0,0,0,0,0c0.2,0,1-0.1,1.3,0c0,0,0,0,0,0c-0.2,0.1-1.7,1-2.5,2.1c0,0,0,0,0,0c0.3,0,1.6,0,2.2-0.2
			c0,0,0,0,0,0c-0.1,0.1-0.2,0.4-0.3,0.8c0,0,0,0,0,0c0.1,0,0.6,0,1-0.3c0,0,0,0,0,0l4.5,11c0,0,0,0,0,0h-0.5v1.9h1.3h2.7l-4.4,7.9
			l4.3,0.4l4.7-8.3h11.8h11.8l4.7,8.3l4.2-0.5l-4.4-7.8h2.7h1.3v-1.9h-0.6l4.5-11c0,0,0,0,0,0c0.5,0.2,0.9,0.2,1,0.3c0,0,0,0,0,0
			c-0.1-0.5-0.3-0.7-0.4-0.8c0,0,0,0,0,0c0.6,0.2,1.9,0.2,2.2,0.2c0,0,0,0,0,0C577.2,779.1,575.7,778.2,575.5,778.1z"/>
		<path class="st5" d="M673.3,665.6c-25-20.1-108.6-68.9-126.6-76.9c-1.3-0.6-2.8-0.6-4.1,0c-17.9,7.9-101.6,56.7-126.6,76.9
			c-1.1,0.9-0.5,2.7,0.9,2.7h8.3c0.7,0,1.2,0.6,1.2,1.2l-0.5,14.2l-4.8,121.4l16.3-1c0,0,2.7-78.2,2.7-86c0-0.2,0.1-0.4,0.3-0.5
			c6.5-3.8,25.2-18.7,32.2-29.4c0.3-0.5,0.9-0.8,1.5-0.8c8.7,0,70.5,0,70.5,0h71.1c0.2,0,0.4,0.1,0.5,0.3
			c6.7,10.7,25.9,26.1,32.6,30c0.2,0.1,0.3,0.3,0.3,0.5c0.1,7.8,2.7,87,2.7,87l16.2-2.6l-4.7-118.7l-0.5-14.2c0-0.7,0.5-1.2,1.2-1.2
			h8.3C673.8,668.3,674.4,666.5,673.3,665.6z M458.5,688.4c-6.1,6.4-13.9,10.3-16.7,11.6c-0.4,0.2-0.9-0.1-0.9-0.6l0.4-11.5
			c0-0.3,0.3-0.6,0.6-0.6H458C458.6,687.4,458.8,688.1,458.5,688.4z M492.7,668.2h-45.9c-0.6,0-0.8-0.8-0.3-1.1
			c9.4-6,19.4-12.2,29.2-18.2c0.2-0.1,0.6-0.1,0.7,0.1l16.7,18.1C493.5,667.5,493.2,668.2,492.7,668.2z M534.7,667.6
			c0,0.3-0.3,0.6-0.6,0.6h-24.2c-0.7,0-1.3-0.3-1.8-0.8l-22-23.9c-0.3-0.3-0.2-0.7,0.1-0.9c22.1-13.2,41.3-23.9,47.7-26.5
			c0.4-0.2,0.8,0.1,0.8,0.6L534.7,667.6z M579.5,668.2h-24.2c-0.3,0-0.6-0.3-0.6-0.6v-51c0-0.4,0.4-0.7,0.8-0.6
			c6.3,2.6,25.6,13.4,47.7,26.5c0.3,0.2,0.4,0.6,0.1,0.9l-22,23.9C580.8,667.9,580.1,668.2,579.5,668.2z M596.7,668.2
			c-0.5,0-0.8-0.6-0.4-1L613,649c0.2-0.2,0.5-0.3,0.7-0.1c9.8,5.9,19.8,12.1,29.2,18.2c0.5,0.3,0.3,1.1-0.3,1.1H596.7z M647.6,700.1
			c-2.8-1.3-10.5-5.2-16.7-11.6c-0.4-0.4-0.1-1,0.4-1h16.1c0.3,0,0.6,0.3,0.6,0.6l0.4,11.5C648.4,700,648,700.3,647.6,700.1z"/>
		<path class="st5" d="M522.8,799c-1-0.4-2.9-0.7-4.7-1.1c0.1-12.1,0.3-46.9,0.4-62.8c1.5-0.3,3.3-1.2,3.5-3.5
			c0.2-4-0.3-5.6-2.2-6.5c-0.9-0.4-1.1,0.3-1.1,0.3l0,0c0.2-5.2,0.7-8.8,1.1-11.7c0.5-3.3,3-3.9,5.4-10c1.8-6-3-10.2-7-10.2
			c-6.5,0.3-6.7,4.8-6.8,7c0.1,2.5,1.2,2.4,0.9,3.9c-0.1,0.7-2.9,3.2-3,4.3c0,1.1,0.8,0.8,1,0.7c0.2-0.1,2.1-1.8,3.3-3.9
			c1.4-2.3-0.2-2.8-0.5-5.9c-0.2-2.2,3.3-5,6.2-4.4c1.6,0.3,2.5,1.5,2.8,1.8c1.4,1.7,1.4,3.8,1.3,4.5c-0.1,2.3-1.5,4-3,6.4
			c-2.3,3.6-3.1,3-3.6,7.8c-0.1,0.7-0.2,4.7-0.3,10.5c-0.3,0.2-2.1,1.4-2.3,2.8c0,0.1,0,0.2-0.1,0.3c-1.4,1.9-3.6,5.5-3.9,6
			c0,0-0.1,0-0.1,0c-0.2,0-1.3-0.2-1.8,0.5c0,0,0,0,0,0l-1.8,2.1c-0.3,0.3-0.4,0.7-0.4,1.1v0.1c0,0.1,0,0.1-0.1,0.2
			c-0.3,0.2-1.3,1-1.8,2.6c0,0.1-0.1,0.1-0.1,0.1c-1,0.3-1.1,0.6-1.6,1c0,0-0.1,0-0.2,0c-1.2-0.2-7-2.1-13.4-9.8
			c-1.8-1.8-1.4-3.3-1.1-3.8c0-0.1,0.2-0.1,0.2,0c0.8,2.3,4.9,2,4.4-0.4c0,0,0-0.1,0.1-0.1c0.7-0.3,0.7-0.8,0.6-1c0,0,0,0,0,0
			c0.4,0,1.1,0.1,1.1-1c0,0,0-0.1,0.1-0.1c0.9,0,1.5,0.2,1.5-0.9c0-1.1-0.1-3-0.1-3.5c0.5-0.7,1.6,0.1,1.5-2.1
			c-0.1-1.7,0.7-2.1,0.6-4.6s-1.5-6.5-9.8-7.3c-6.7-0.7-7.9,9-8.1,11c-0.2,1.9-1.3,7.3-5.5,9.9c-5.1,2.9-4.5,6.2-7.1,10.9
			c-0.4,0.6-0.4,1.5,0.1,2c0.1,0.1,0.1,0.1,0,0.3c-0.1,0.4-1.8,1.4,0,13c1.8,11.6,1.7,12-1.1,15.6c-2.8,3.5-2.7,9.3-0.1,14.1
			c0,0.1,0,0.1-0.1,0.1c-2.8,0-4.8-0.4-4.8,2.5c-0.1,3,1.3,4.4,0.9,7c-0.3,2.6-0.8,6.6,2.2,7.1c3,0.5,3.6,0.5,3.6-2.7
			c0.1-3,0.8-5.2,2.9-5.5c0.2,0,0.3,0.1,0.3,0.3c0,0.4,0,0.7,0,0.9c0,0.7,0.4,1.3,0.9,1.7c1,0.6,2.5,1.7,3,3.5
			c0.2,0.7,0.8,1.1,1.5,1.1c8.4,0,28.8-0.1,39.6-0.2l1.7,1c0,0,0-0.3,0-1c3.2,0,5.2,0,5.2,0S525.1,799.9,522.8,799z M513,794.6
			c-2.2-4.7,1.1-4.5-0.8-8.2c-1.5-3.9,0.7-8.8,0.8-11.6c0.2-2.9,0.6-14.6-3.8-17.2c-5.5-2.7-15.9,1.1-19.2,4.2c-0.1,0.1-0.2,0-0.2,0
			c-2.6-5.2,0.3-5.8,0.5-8.6c0-0.1,0.7-3.7,0.7-4.3c0-0.1,0.1-0.1,0.1-0.1c2.1,2,3.2,2.5,3.8,2.2c0.1,0,0.2,0,0.3,0
			c1.6,1.4,4.1,3.6,8.3,4c1.3,0.1,1.5,0.4,2.3,0.3c0.9-0.1,1.1-0.8,2.2-1.2c1-0.3,4.1-3.2,4.2-6.2c0.1-2.5,0-4.4,0-5
			c0-0.1,0-0.3,0.1-0.4c0.5-1,2.8-5.6,3.4-7.1c0-0.1,0.1-0.2,0.2-0.2l0.5-0.1c0,0,0,0,0,0c-0.4,20.6-0.8,51.3-0.9,61.8
			C514.3,796.5,513.4,795.7,513,794.6z"/>
		<path class="st5" d="M633,797.3c-1.5-0.1-3.4-1.5-4.3-2.4c-0.9-0.9-3.1-4.3-4.3-4.5c-0.1,0-0.2-0.1-0.2-0.2c0,0,0,0,0,0
			c0-0.1,0.1-0.1,0.1-0.1c0.8-0.1,4.8-1,6.7-4.5c1.5-2.7,0.9-5.3,0.4-6.7c-0.2-0.6-0.3-1.2-0.2-1.8c0.1-0.6,0.1-1.7-0.1-3.4
			c-0.4-3.5-2.1-5.9-5.5-12c-4.2-7.6-3.9-15.7-5.1-18.2c-0.1-0.2,0-0.4,0.1-0.5c1.1-0.7,2-1.7,2.5-2.3c0.3-0.3,0.3-0.8,0.1-1.2
			c-5.1-7.1-3.1-8.8-5.2-11.5c-3.7-5.6-0.5-8.7-7.6-14c-4.3-3.6-8.3-3.3-12.2-1.9c-3.9,1.4-5.1,3.8-5,4.8c0,1-0.2,1.3-0.9,2
			c-0.7,0.7-0.3,1.4,0.3,2.2c0,0.1,0.1,0.1,0.1,0.2c0.6,4,1.8,5,2.4,5.6c0.1,0.1,0.1,0.2,0.1,0.3c0,0.8,0.1,3,0,3.5
			c0,0.5,1.6,0.3,1.6,0.3c0,0.1,0,0.1,0.1,0.3c0.2,0.5,0.1,1,1,1c0,0,0.1,0,0.1,0.1c0.1,0.8,0.4,1,1.1,1c0,0,0.1,0,0.1,0.1
			c1.1,1.9,2.2,1.2,2.9,0.7c0,0,0.1,0,0.1,0c0.2,0.3,0.6,1.4,0.5,2.9c-0.1,0.7-0.9,1.6-1.3,2c-0.1,0.1-0.1,0.3,0.1,0.3l0.5,0.1
			c0.1,0,0.1,0.1,0.1,0.2l-1.2,1.9c-0.2,0.3-0.1,0.6,0.2,0.8c0.1,0,0.1,0.1,0.2,0.1c0.1,0.1,0.2,0.3,0.1,0.4c-2,2.6-3.7,3.8-3.4,8.1
			c0,0.3-0.1,0.5-0.3,0.7c-0.7,0.5-1.1,0.8-1.9,1.4c-0.2,0.1-0.5,0-0.5-0.2c-0.7-2.6-4.2-6.8-5.2-8.1c-1-1.5-0.2-1.7,1-3.8
			c1.2-2.1,1-4.8,0.6-6.3c-0.4-1.5-0.7-1.2-1.4-0.4c0,0-0.1,0-0.1,0c0.1-0.9,0.3-2.7-0.4-3.3c0,0-0.1-0.1-0.1-0.2
			c0-0.9-0.3-1.4-0.9-1.3c-0.1,0-0.1,0-0.1-0.1c0-1-0.4-1.2-0.8-0.8c0,0-0.1,0-0.1,0c-0.2-0.5-0.8-0.2-1.3,0.7
			c-0.3,0.5-0.6,1-1.1,1.4c-2.7,2.7-2.2,11-1.4,12.5c0.9,1.7,1.7,5.9,2.5,9.1s4.4,10.8,4.7,11.7c0.3,0.8,1.1,0.9,1.8,0.8
			c0.2,0,0.4,0,0.7,0c2.4,0.5,5-1.5,7.9-3.3c0.1-0.1,0.2,0,0.3,0.1c0.5,2.9,2.5,5.2,3.7,7.6c0.4,0.9,0.6,1.8,0.5,2.8
			c-0.1,0.4-0.1,0.8-0.1,1.1c0,0.3-0.3,0.6-0.6,0.7c-0.1,0-0.3,0.1-0.5,0.1c-1.8,0.4-3.7,0.9-5.2,2.3c-0.6,0.6-1.5,1-2.4,1.1
			c-4.7,0.6-6.2,5.2-11.2,7.3c-1.2,0.7-2.7,0-4.5,0.8c-1.8,0.9-1.3,2.9-1.3,4s-0.9,1-0.9,3.1c0.3,2.9-0.3,5.4-0.4,6.9
			c-0.1,1.5,0.4,1.6,1.2,1.7c1.4-0.1,55.7,0,55.7,0s0.1-1.3,0.1-2.1C635.6,798.3,634.5,797.4,633,797.3z M621.1,790.8l-0.7,2
			c0,0-0.1,0.1-0.1,0l-1.4-1c0,0,0-0.1,0-0.1L621.1,790.8C621.1,790.7,621.2,790.8,621.1,790.8z"/>
		<path class="st5" d="M260.8,710.9c0-0.1,0-0.2,0-0.3c0-1-0.6-1.9-1.4-2.3c0.1-0.2,0.1-0.3,0.1-0.5c0-0.7-0.5-1.2-1.2-1.2
			c-0.7,0-1.2,0.5-1.2,1.2c0,0.2,0,0.4,0.1,0.5c-0.9,0.4-1.4,1.3-1.4,2.3c0,0.1,0,0.2,0,0.3c-2.6,0.3-4.5,1.4-4.5,4.4
			c0,2,0.9,4.5,2.2,6.5l-4.6-0.9l-1.5-3l2.5-6.1l-5.7-2.7l0.3-0.5l2.1,0.2c0.3,0,0.7-0.2,0.7-0.6l0.5-3.9l1.2-0.5
			c0.2-0.1,0.3-0.3,0.2-0.6l-1-2.2l-0.8-0.6l0.4-1.1l-0.9-2.9c0.2-0.1,0.4-0.5,0.5-0.6c0.4-0.5,0.7-1,0.9-1.6
			c0.6-2.4-2.3-3.7-4.3-3.5c-0.8-0.7-2.2-1-3.1-0.9c-2,0-4,1.9-4.7,3.7c-0.1,0.2-0.2,0.6-0.3,1c-0.6,0.4-1.1,0.9-1.7,1.4
			c-0.4,0.3-1.6,1.3-1.4,2c0.1,0.4,0.8,0.5,1.7,0.5l-4.2,13.3h1.1l-14.8,37l1.3,6.5l-11.9,49.7h56.1L248,735.7l4.6,1.6
			c0.5,0.3,1.1,0,1.3-0.5l4.3-9.3l0.4,0.1c0.6,0.2,1.4,0,1.7-0.6l1.6-2.9c0.1-0.2,0.1-0.5-0.1-0.7c2.1-2,3.6-5.4,3.6-8
			C265.3,712.3,263.4,711.3,260.8,710.9z"/>
		<path class="st5" d="M322.5,718.8c0-0.3,0-0.5,0-0.7h0.8c0-0.2-0.1-0.4-0.2-0.6h-0.8c-0.2-0.7-0.7-0.6-1.2-0.6
			c-0.5,0-0.9-0.1-1.2,0.6h-0.8c-0.1,0.1-0.1,0.3-0.2,0.6h0.8c0,0.2,0,0.4,0,0.7c-3.1,0-5.5,0.2-5.5,3.5c0,2.1,1,5.1,2.5,7.2
			l-4.2-0.8l-3.7-7.4l1.9-3.4l-7.1-8.1l0.6-1.1l2.1,0.2c0.3,0,0.6-0.2,0.7-0.5l0.5-3.7l1.1-0.4c0.2-0.1,0.3-0.3,0.2-0.5l-1-2.1
			l-0.8-0.6l0.3-1.1l-0.8-2.6l2.3-7.3l-2.3,0.2c-2.7-4.8-11.4-4.2-13.5,1.1l-3.2,0.3l3.7,6.5h0l-4.7,15.2l1.9,1.2l-13.5,33.3l1.2,6
			l-7.7,48.9h50.3l-9.8-49.5c4-3.8,7.3-6.8,7.3-7l1.4-11.6l1.4,0.5c0.6,0.2,1.3,0,1.6-0.6l1.5-2.8c0.1-0.3,0-0.6-0.2-0.8
			c2.1-2.1,3.6-5.9,3.6-8.5C328,719,325.6,718.8,322.5,718.8z"/>
		<path class="st5" d="M770.5,764.3c-2.4-2.2-5.5,1.2-6.8,2.8c-1.3-0.5-3.1,0.5-3.1,0.5c-1.4-3.9-5.6-0.8-5.6-0.8
			c-2.9-3.3-5.9,0.8-5.9,0.8c-0.2-0.3-0.4-0.6-0.7-0.8c-1.3-1.2-3.2-0.7-4.4-0.1c-0.2,0.1-0.4,0.2-0.5,0.3c-0.2-0.1-0.4-0.2-0.6-0.4
			c0.1-0.4,0.2-0.7,0.2-1c0-0.6-0.1-1-0.4-1.3c0,0-0.1-0.1-0.1-0.1c-0.6-0.8-1.5-1-1.5-1c0.2-0.5,0.2-0.9,0.2-1.3
			c0-0.3,0-0.5-0.1-0.7c0,0,0-0.1-0.1-0.1c0-0.1-0.1-0.2-0.2-0.2c-0.1-0.1-0.3-0.2-0.4-0.3c-0.6-0.3-1.4-0.1-1.4-0.1
			c0-0.2,0-0.3,0-0.5c0-0.2,0-0.3-0.1-0.4c-0.2-0.7-0.7-1-1.3-1.1c-0.7-0.1-1.5,0.1-1.5,0.1c0-0.1,0-0.2,0-0.2
			c0-0.2-0.1-0.3-0.1-0.4c0-0.1-0.1-0.2-0.2-0.3c-0.1-0.1-0.1-0.2-0.2-0.3c0,0-0.1-0.1-0.1-0.1c-0.8-0.6-2,0-2.5,0.4
			c-0.1,0.1-0.2,0.1-0.2,0.1c-0.1,0-0.1,0-0.2,0c-0.6-0.9-1.3-1.3-1.9-1.4c-0.1,0-0.1,0-0.2,0c-0.6,0-1.1,0.2-1.6,0.4
			c-0.1,0.1-0.2,0.1-0.3,0.2c-0.6,0.4-1,0.9-1,0.9s0,0,0,0c-0.5,0.1-0.9,0.4-1.3,0.6c-1.1,0.7-1.9,1.9-2.5,3.3
			c-1.6,0.6-3.7,1.3-4.6,2.1c-0.3,0.2-0.6,0.4-0.8,0.5c-0.2,0.1-0.4,0.1-0.5,0.2c-0.1,0-0.2,0.1-0.3,0.1c0,0,0,0,0,0
			c0,0-0.1,0-0.1,0.1c0,0,0,0,0,0c-0.7,0.3-1.1,0.9-1.1,3.3c0,0.8,0.4,1.5,1,2c0.2,0.1,0.4,0.3,0.5,0.4c0.1,0.1,0.2,0.1,0.3,0.2
			c0,0,0,0,0,0c0.1,0.1,0.2,0.1,0.3,0.2l0,0c1.2,0.6,2.7,1,4,1.2c0.2,1.6,1.8,1.9,1.8,1.9c0,3.4,2.2,2.4,2.2,2.4
			c0.7,2.5,3.5,1.2,3.5,1.2c-1.3,2.3,0.7,2.7,0.7,2.7c-1,2.8,1.2,3.1,1.2,3.1c-0.1,0.4-0.1,0.7-0.1,1c-0.1,0-0.1,0-0.2,0
			c0,0,0,0-0.1,0c-0.1,0-0.1,0-0.2,0c0,0,0,0,0,0c-0.1,0-0.2,0-0.3,0c0,0-0.1,0-0.1,0c-0.1,0-0.1,0-0.2,0c-0.6,0-1.3,0.1-1.7,0.3
			c-1.3,0.7-1.4,6.1-2.4,7.7c-0.1,0.2-0.3,0.4-0.4,0.6c0,0,0,0,0,0c-0.1,0.1-0.2,0.2-0.2,0.4c0,0.1-0.1,0.1-0.1,0.2
			c0,0,0,0.1-0.1,0.1c0,0.1-0.1,0.1-0.1,0.2c0,0,0,0.1-0.1,0.1c0,0.1-0.1,0.1-0.1,0.2c0,0,0,0.1-0.1,0.1c0,0.1-0.1,0.1-0.1,0.2
			c0,0,0,0.1-0.1,0.1c0,0.1-0.1,0.1-0.1,0.2c0,0,0,0.1,0,0.1c0,0.1-0.1,0.2-0.1,0.2c0,0,0,0.1,0,0.1c0,0.1-0.1,0.2-0.1,0.3
			c0,0,0,0.1,0,0.1c0,0.1,0,0.2,0,0.3c0,0,0,0.1,0,0.1c0,0.1,0,0.2,0,0.2c0,0,0,0.1,0,0.1c0,0.1,0,0.2,0,0.2c0,0.1,0,0.1,0,0.2
			c0,0.1,0,0.2,0,0.2c0,0.1,0,0.1,0,0.2c0,0.1,0,0.2,0,0.3c0,0,0,0.1,0,0.1c0,0.1,0.1,0.3,0.1,0.4c0,0,0.3,0,0.8,0
			c0.1,0,0.3,0,0.4,0c0.5,0,1.1-0.1,1.7-0.2c0.4-0.1,0.8-0.1,1.2-0.2c0.1,0,0.2,0,0.3-0.1c1.1-0.3,2-0.9,1.9-1.7c0-0.2,0-0.3,0-0.5
			c0,0,0,0,0,0c0-0.2,0-0.4,0-0.6c-0.1-2.5-0.1-6.1-0.1-6.1s0.9-0.1,2-0.2c0.1,0,0.2,0,0.3,0c0,0,0.1,0,0.1,0c0.1,0,0.2,0,0.3,0
			c0,0,0.1,0,0.1,0c0.1,0,0.2,0,0.3,0c0,0,0,0,0,0c0.4,0.7,1.1,0.9,1.7,0.9c-0.1,0.1-0.1,0.2-0.1,0.3c0,0.1,0,0.2,0,0.3
			c0,0.1,0,0.1,0,0.2c0,0,0,0.1,0,0.1c0,0,0,0,0,0c0.4,1.9,2.7,4.6,2.4,5.6c-0.3,1.1-1.5,4.8-3.8,6.4c0,0-0.1,0.1-0.1,0.1
			c-0.9,0.6-1.3,1.4-1.5,2.1c-0.3,1.2,0,2.4,0,2.4c1.8,0.1,5,0.7,6.5-0.4c0.1-0.1,0.2-0.1,0.3-0.2c0,0,0.1-0.1,0.1-0.1
			c0,0,0.1-0.1,0.1-0.1c0,0,0.1-0.1,0.1-0.2c0,0,0.1-0.1,0.1-0.1c0-0.1,0.1-0.1,0.1-0.2c0,0,0-0.1,0.1-0.1c0-0.1,0.1-0.2,0.1-0.2
			c0,0,0-0.1,0-0.1c0-0.1,0.1-0.2,0.1-0.3c0,0,0,0,0-0.1c0-0.1,0.1-0.2,0.1-0.3c0,0,0,0,0,0c0-0.1,0-0.2,0.1-0.4h0
			c0.2-1.1,0.2-2.3,0.4-3.3c0.3-1.3,0.5-3.8,0.9-5.7c0,0,0-0.1,0-0.1c0-0.1,0.1-0.3,0.1-0.4c0,0,0-0.1,0-0.1c0-0.1,0.1-0.2,0.1-0.3
			c0,0,0-0.1,0-0.1c0,0,0-0.1,0-0.1c1.4,0.1,2.8-1.1,2.8-1.1c2.3,3.3,5.4-0.2,5.4-0.2c2.9,2.9,5,0,5,0c0,0,0,0,0.1,0
			c0,0,0,0.1,0,0.1c0,0.1,0,0.1-0.1,0.2c0,0,0,0.1,0,0.1c0,0,0,0.1,0,0.1c0,0,0,0.1,0,0.1c0,0,0,0.1,0,0.1c-0.1,0.2-0.1,0.5-0.2,0.7
			c0,0,0,0.1,0,0.1c0,0.1-0.1,0.2-0.1,0.3c0,0,0,0.1,0,0.1c0,0.1-0.1,0.2-0.1,0.3c-0.6,1.5-1.5,3.4-3,4.5c-0.1,0-0.1,0.1-0.2,0.1
			c0,0,0,0,0,0c0,0-0.1,0.1-0.1,0.1c-0.1,0.1-0.1,0.1-0.2,0.2c0,0-0.1,0.1-0.1,0.2c-0.1,0.1-0.1,0.1-0.2,0.2c0,0.1-0.1,0.1-0.1,0.2
			c0,0.1-0.1,0.1-0.1,0.2c0,0.1-0.1,0.1-0.1,0.2c0,0.1-0.1,0.1-0.1,0.2c0,0.1,0,0.1-0.1,0.2c0,0.1-0.1,0.1-0.1,0.2
			c0,0.1,0,0.1,0,0.1c0,0.1,0,0.2-0.1,0.2c0,0,0,0.1,0,0.1c0,0.1,0,0.1,0,0.2c0,0,0,0.1,0,0.1c0,0.1,0,0.1,0,0.2c0,0,0,0.1,0,0.1
			c0,0.1,0,0.1,0,0.2c0,0,0,0.1,0,0.1c0,0.1,0,0.1,0,0.2c0,0,0,0.1,0,0.1c0,0.1,0,0.1,0,0.2c0,0,0,0.1,0,0.1c0,0,0,0.1,0,0.1
			c0,0,0,0.1,0,0.1c0,0,0,0.1,0,0.1c0,0,0,0,0,0.1c0,0,0,0.1,0,0.1c0,0,0,0,0,0.1c0,0,0,0,0,0c0,0,0,0,0,0c0.3,0,0.7,0,1.1,0
			c0.4,0,0.8,0,1.3,0c0.2,0,0.3,0,0.5,0c0.6,0,1.2,0,1.8-0.1c0.7-0.1,1.4-0.3,1.8-0.7c0.1-0.1,0.2-0.1,0.3-0.2c0,0,0.1-0.1,0.1-0.1
			c0-0.1,0.1-0.1,0.1-0.2c0,0,0.1-0.1,0.1-0.1c0,0,0.1-0.1,0.1-0.1c0-0.1,0.1-0.1,0.1-0.2c0,0,0-0.1,0.1-0.1c0-0.1,0.1-0.1,0.1-0.2
			c0,0,0-0.1,0-0.1c0-0.1,0-0.2,0.1-0.3c0,0,0-0.1,0-0.1c0-0.1,0-0.2,0.1-0.3c0,0,0,0,0,0c0.2-1.2,0.1-2.6,0.3-3.7
			c0.1-0.7,0.2-1.8,0.3-2.9c0,0,0-0.1,0-0.1c0-0.2,0-0.3,0-0.5c0,0,0-0.1,0-0.1c0-0.1,0-0.3,0-0.4c0,0,0-0.1,0-0.1c0,0,0,0,0,0
			c0.8-0.3,1.4-0.9,1.7-1.3c0,0,0.1,0.1,0.1,0.1c0.1,0.1,0.1,0.2,0.2,0.3c0,0.1,0.1,0.1,0.1,0.2c0.1,0.1,0.1,0.2,0.2,0.3
			c0,0.1,0.1,0.1,0.1,0.2c0.7,1.2,1.4,2.2,1.3,2.8c-0.3,1.1-1.4,5-3.7,6.7c-0.1,0-0.1,0.1-0.2,0.1c0,0,0,0,0,0c0,0-0.1,0.1-0.1,0.1
			c-0.1,0.1-0.1,0.1-0.2,0.2c0,0.1-0.1,0.1-0.1,0.2c-0.1,0.1-0.1,0.1-0.2,0.2c0,0.1-0.1,0.1-0.1,0.2c0,0.1-0.1,0.1-0.1,0.2
			c0,0.1-0.1,0.1-0.1,0.2c0,0.1-0.1,0.1-0.1,0.2c0,0.1,0,0.1-0.1,0.2c0,0.1-0.1,0.1-0.1,0.2c0,0,0,0.1,0,0.1c0,0.1,0,0.1-0.1,0.2
			c0,0,0,0.1,0,0.1c0,0.1,0,0.1,0,0.2c0,0,0,0.1,0,0.1c0,0.1,0,0.1,0,0.2c0,0,0,0.1,0,0.1c0,0.1,0,0.1,0,0.2c0,0,0,0.1,0,0.1
			c0,0.1,0,0.1,0,0.2c0,0,0,0.1,0,0.1c0,0.1,0,0.1,0,0.2c0,0,0,0.1,0,0.1c0,0,0,0.1,0,0.1c0,0,0,0,0,0.1c0,0,0,0.1,0,0.1
			c0,0,0,0,0,0.1c0,0,0,0.1,0,0.1c0,0,0,0,0,0c0,0,0,0.1,0,0.1c1.8,0,5,0.4,6.5-0.7c0.1-0.1,0.2-0.1,0.3-0.2c0,0,0.1-0.1,0.1-0.1
			c0-0.1,0.1-0.1,0.1-0.2c0,0,0.1-0.1,0.1-0.1c0,0,0.1-0.1,0.1-0.1c0-0.1,0.1-0.1,0.1-0.2c0,0,0-0.1,0.1-0.1c0-0.1,0.1-0.1,0.1-0.2
			c0,0,0-0.1,0-0.1c0-0.1,0-0.2,0.1-0.3c0,0,0-0.1,0-0.1c0-0.1,0-0.2,0.1-0.3c0,0,0,0,0,0c0.2-1.2,0.1-2.6,0.3-3.7
			c0.3-2,0.4-6.4,1.3-7.9c0.4-0.7,0.1-1.8-0.4-2.9c0,0,0,0,0,0c0-0.1-0.1-0.2-0.1-0.3c0,0,0-0.1-0.1-0.1c-0.1-0.1-0.1-0.2-0.2-0.3
			c0,0,0-0.1-0.1-0.1c0,0,0,0,0-0.1c1.5-0.3,1.9-2.8,1.9-2.8c1.9-2.5,0.7-4.2,0-4.9v0c-0.2-0.2-0.4-0.3-0.4-0.3l0,0
			c0-0.1,0.1-0.2,0.1-0.3c0,0,0-0.1,0-0.1c0-0.1,0-0.1,0.1-0.2c0,0,0-0.1,0-0.1c0-0.1,0-0.1,0-0.2c0,0,0-0.1,0-0.1
			c0-0.1,0-0.1,0-0.2c0,0,0-0.1,0-0.1c0-0.1,0-0.1,0-0.2c0,0,0-0.1,0-0.1c0-0.1,0-0.1,0-0.2c0,0,0,0,0-0.1c0-0.1,0-0.2,0-0.3
			c0,0,0,0,0-0.1c0-0.1,0-0.1,0-0.2c0,0,0-0.1,0-0.1c0-0.1,0-0.1,0-0.2c0,0,0-0.1,0-0.1c0-0.1,0-0.1,0-0.2c0,0,0,0,0-0.1
			c0-0.1,0-0.1-0.1-0.2c0,0,0,0,0-0.1c0-0.1-0.1-0.1-0.1-0.2c0,0,0,0,0,0c-0.1-0.2-0.2-0.4-0.3-0.6c0,0,0,0,0,0
			c0-0.1-0.1-0.1-0.1-0.2c0,0,0,0,0,0h0c0,0-0.1-0.1-0.1-0.1c0,0,0,0,0,0c-0.4-0.5-0.7-0.9-0.8-1c0,0,0,0,0,0c0,0,0,0,0,0l0,0
			c0.2-0.7,0.3-1.3,0.2-1.9c0-0.3-0.1-0.6-0.2-0.9C770,771,773.2,766.8,770.5,764.3z"/>
		<path class="st5" d="M404.7,750.1c-2-0.6-3.8-1.6-5.5-2.9c-0.1-0.1-0.3-0.1-0.5,0c-1.8,1.2-3.8,2.1-5.9,2.7
			c-0.2,0-0.3,0.2-0.3,0.4l0,2.9c0,0.1-0.1,0.1-0.1,0.1c-1.5-0.7-3.2,1.2-4.8,0.8c-0.2-0.1-0.5-0.2-0.7-0.2c-0.8-0.2-1.5,0.4-2.1,1
			c-0.6,0.5-1.4,1-2.1,0.8c0,0,0,0,0-0.1c0.4-1,0.3-2.1-0.1-3.1c-0.2-0.5-0.6-1-0.6-1.6c0-0.3,0-0.6,0-0.8c-0.1-0.6-0.6-1.1-1.1-1.5
			c-0.4-0.4-0.8-1-0.7-1.6c0-0.1,0.1-0.1,0.1-0.1c0.5,0,1-0.3,0.9-0.7c0,0,0-0.1,0,0c0.2,0.1,0.4,0.1,0.6,0.1c0.2,0,0.3-0.1,0.4-0.2
			c0.1-0.2,0.2-0.5,0.2-0.7c0,0,0,0,0,0c0.3,0.3,0.7,0.4,1.1,0.5c0.2,0,0.4-0.1,0.4-0.3c0.3-1.6,1-3,2.1-4.1c0,0,0.1,0,0.1,0
			c0.7,0.5,2,0.1,2.3-0.7c0,0,0-0.1,0.1,0c1.8,0.2,3.2-1.7,3.7-3.4c0.6-2,0.6-4.3-0.5-6.1c-1.1-1.8-3.4-2.8-5.3-2
			c-0.1,0-0.1,0-0.1-0.1c-0.3-1.8-0.7-3.6-1-5.4c-0.1-0.6-0.2-1.2-1-1.4c-0.7-0.2-1.4-0.1-1.9,0.4c-0.9,0.7-1.1,1.9-1.4,3
			c-0.3,1-0.6,2-1.5,2.6c0,0-0.1,0-0.1,0c-0.6-1.1-2-1.6-3.2-1.6c-1.3,0-2.5,0.6-3.5,1.4c-1,0.7-1.9,1.7-2.2,2.9
			c-0.1,0.5-0.1,1-0.3,1.5c-0.1,0.4-0.3,0.7-0.4,1.1c-0.2,0.9,0.2,1.9,0.9,2.4c0.3,0.3,0.3,0.7,0,1l-1.3,1.3c0,0-0.1,0-0.1,0
			c-1.4-1.8-3.4-3.1-5.6-3.5c-0.3-0.1-0.5,0.2-0.4,0.5c0.7,2.1,1,4,0.2,5.9c-0.6,1.6-2.7,2.5-3,4.2c-0.1,0.6,0,1.2,0,1.7
			c-0.1,0.7-0.5,1.4-0.8,2c-2.3,4-4.6,8-6.9,12c-1.1,2-2.3,4-3.4,6c-0.4,0.7-2.8,4-2.9,5c0,0.2-0.1,0.3-0.2,0.5
			c-1.7,2.1-2.2,5-2.9,7.6c-0.7,2.8-1.7,5.7-4.2,7.3c-1.3,0.8-2.8,1.1-4.1,1.8c-1.6,0.8-2.9,2-3.7,3.6c-0.2,0.4-0.3,0.9-0.3,1.3
			c0.1,1.4,0.2,4.8,0.2,5.2c0,0.4,1.1,2.5,1.8,3.8c0.3,0.6,0.8,1.1,1.5,1.4l9.5,4l36.8-2.9l13.7-3.5c0.1,0,0.1-0.1,0.2-0.2
			c0-0.2,0.1-0.3,0-0.5c0-0.1-0.2-0.2-0.3-0.2c-1.3,0.4-2.8,0.7-3.8-0.2c-0.6-0.6-0.8-1.4-1-2.2c-0.4-2-0.6-4.1-0.6-6.1
			c0-0.3,0-0.7,0.2-0.9c0.2-0.3,0.5-0.5,0.8-0.7c1.1-0.7,2.3-1.5,3.4-2.2c0.1,0,0.1-0.2,0-0.2c-2.6-2.4-2.6-6.5-2.3-10.1
			c0.3-3.6,0.5-7.7-2-10.3c0,0-0.1-0.1,0-0.2c0.6-0.9,0.9-2,1.4-2.9c0-0.1,0.1-0.1,0.2-0.1c0.8,0.2,1.7-0.2,2.3-0.8
			c0.6-0.7,0.8-1.5,0.8-2.4c0-0.1,0.1-0.1,0.1-0.1l1.6-0.1c0.1,0,0.1-0.1,0.1-0.1l0-1.9c0-0.1,0-0.1,0.1-0.1c1.7-0.1,3.5-0.1,5.3,0
			c0.1,0,0.2,0.1,0.2,0.1c0.2,0.4,0.4,0.8,0.5,1.2c0.1,0.3,0.3,0.5,0.6,0.4l1.5-0.1c0.5,0,0.9-0.4,0.9-0.9l0.4-9.2
			C405.1,750.3,404.9,750.1,404.7,750.1z"/>
		<path class="st5" d="M211.5,700.5c0.1,0,0.2,0,0.2-0.1c5-2,1.7-5.1,1.1-5.8c-0.2-0.2-0.4-0.4-0.6-0.6c-0.5-0.6-1.1-1.2-1.8-1.6
			c-0.6-0.3-1.2-0.4-1.9-0.5c-3.9-0.5-7.8,0.1-11.7-0.5c-2.6-0.4-5.1-1.3-7.8-1.6c-2.5-0.3-5.4,0.3-7.1,2.2c-0.1,0.1-0.3,0.1-0.4,0
			c-1.1-0.8-2.5-1.1-3.9-0.9c-0.1,0-0.2,0.1-0.1,0.2c0.5,1.9,1,3.7,1.6,5.6c-4.6,5.4-6.4,12.2-4.3,19c0.3,0.9,0.6,1.8,0.8,2.7
			c-0.1,0.1-0.3,0.1-0.4,0.2c-2.5,1-5.4,1.6-7.8,0.2c-3.3-1.9-4.2-6.3-7.1-8.6c-2.7-2.2-6.9-2.3-9.1-5c-1.1-1.3-1.5-3.1-2.1-4.7
			c-0.9-2.5-2.2-4.9-4-7c-1.4-1.7-3.1-3.2-5.3-3.6c-4.1-0.7-7.7,2.9-9.4,6.6c-1.1,2.3-1.8,4.8-3.4,6.7c-1.6,1.9-4.6,3-6.7,1.5
			c-1-0.7-1.6-1.9-2.1-3.1c-1-2.1-2-4.3-3-6.4c-1-2.1-2.1-4.4-4.1-5.5c-2.5-1.5-5.9-0.9-8.3,0.8c-2.4,1.6-4.1,4.1-5.8,6.6
			c-3.1,4.5-6.1,9.1-9.2,13.6c-2,2.9-4,5.9-7,7.6c-3.7,2.1-8.5,2.3-11.3,5.5c-1.8,2.1-2.1,4.8-1.9,7.5c0,0.2,0,0.4,0,0.6
			c-0.3,2.8-1,5.4-2.3,8c-1.3,2.5-3,4.7-4.2,7.2c-1.1,2.3-1.8,5-1.1,7.4c0.1,0.2,0.3,0.2,0.4,0c1.9-4.6,4.2-8.9,5.8-13.6
			c0.3-0.9,1.2-3.5,1.9-6.1c0-0.1,0.1-0.1,0.1,0c0.2,0.8,0.4,1.5,0.6,2.2c1.2,4.2,2.3,8.5,3.5,12.7c0.1,0.3,0.2,0.6,0.4,0.9
			c-0.3,2.6-1,5.3-1.5,8c-1.3,6.2-1.2,10.3-5.3,14.3c-0.7,0.7-1,1.7-0.6,2.6c2.3,6.3,3.7,14.5,6.1,20.5c0.9,2.3,1.9,4.8,1.2,7.1
			c-0.2,0.5-0.4,1.1-0.1,1.6c0.3,0.6,1.1,0.7,1.8,0.7c3.6,0,7.8-0.2,11.4-0.2c-0.8-2.5-3.9-3.7-6-5.2c-2.8-2-3.6-2.3-4.7-5.5
			c-0.9-2.6-1.8-7.5-1.9-10.3c-0.1-2.7-0.7-3.9-0.7-6.6c0-0.6,0-1.1,0.2-1.7c0.3-0.7,0.9-1.2,1.5-1.7c3.1-2.7,6.9-10.1,7-14.4
			c0-0.2,0.1-0.5,0.2-0.7c1.6-2.2,3.3-2.8,5.4-3.3c0.2,0,0.3,0.1,0.3,0.3c0,0.4-0.1,0.8-0.2,1.3c-0.6,2.8-2.6,5.6-1.8,8.3
			c0.3,0.8,0.7,1.5,1.1,2.3c1.7,4.1-1.7,9.1,0,13.2c1,2.4,3.4,3.9,5.4,5.6c5.3,4.4,8.7,11,9,17.9c4.8,0.1,9.6,0.1,14.4-0.1
			c-0.4-1.9-2.4-3-4.3-3.5c-1.9-0.5-3.9-0.8-5.4-2c-1.2-1-1.9-2.4-2.7-3.7c-2.7-4.4-7.1-8-8.3-13.1c-1.4-5.9,1.9-12,1.6-18.1
			c-0.1-1.5-0.3-3.1,0.5-4.3c0.5-0.7,2.3-5.9,3-6.4c0.3-0.2,0.6-0.4,0.9-0.6c0.1,0.1,0.2,0.1,0.2,0.2c6.5,5.2,14.9,7.6,23.1,8.5
			c5,0.5,10.4,0.4,14.4-2.6c0.3-0.2,0.7-0.5,1-0.8c0.1-0.1,0.2,0,0.1,0.1c-0.4,3.5-0.8,7-0.2,10.5c0.4,2.8,1.5,5.6,1.6,8.4
			c0.2,3-0.5,6.1-0.6,9.1c-0.2,0.2-0.4,0.4-0.6,0.5c-1.3,1.3-2.9,2.4-4.5,3c-1.5,0.5-2.4,1.9-2.1,3.4c0.5,2.7,0.9,5.9,1.4,8.1
			c0.9,0.4,1.9-2.1,2.4-3c0.5-0.9,0.7-1.9,1.1-2.8c0.6-1.3,1.7-2.2,2.7-3.1c0.3,0.1,0.2,0.1,0.4,0.1c0.5,2.3,0.7,4.6-0.7,6.4
			c-0.5,0.6-1.1,1.1-1.3,1.8c-0.5,1.9,2.3,2.8,4.3,2.8c3.5,0,7.1-0.1,10.6-0.1c-0.8-3.3-4.7-4.8-6.8-7.5c-1.7-2.2-2.2-5-2-7.8
			c1-0.9,1.9-1.8,2.9-2.7c2.6-2.4,5.2-4.8,8.3-6.1c0.7-0.3,1.5-0.6,2-1.2c0.6-0.7,0.6-1.7,0.7-2.6c0.1-4.7-0.6-9.3-2-13.7
			c-0.9-2.8-2.1-5.5-2.9-8.3c0.2-1.3,0.3-2.6,0.2-3.8c0,0,0,0,0,0c1.8-3.1,4.9-5.3,8.4-6c2.1-0.4,4.3-0.3,6.5-0.4
			c0.3,0,0.6,0.1,0.9,0.4c1.4,1.5,3.7,2.1,5.7,1.9c2.3-0.3,4.4-1.4,6.4-2.7c8.6-5.8,14.8-15.3,15.5-25.6c0.2-3.4-0.5-7.2-3.4-9
			c-0.1,0,0-0.1,0-0.1c1.1,0.1,2.1,0.6,3.2,0.7c2.3,0.2,4.4-1.4,6-3.1c1.6-1.7,3-3.7,5.2-4.6C208.9,701.3,210.4,700.9,211.5,700.5z
			 M149.1,780.1c-0.9,0.7-1.9,1-3,1.5c0.7-2.8,1.4-5.6,1.2-8.5c-0.2-2.5-1.1-5.2-0.1-7.5c0.2,0.3,0.3,0.5,0.5,0.8
			c1.1,1.9,2.2,3.7,3.6,5.3c0.1,0.1,0.1,0.2,0.1,0.3C151.5,775,151.3,778.3,149.1,780.1z"/>
		<path class="st5" d="M728.2,603.6c1.3,5.2,3.5,14.3,5.4,25.3l8.9,0.2l-8.2,3.8c1.3,8,2.4,16.3,3,25.3l4.8-0.5l-4.6,3.2
			c0.4,7.5,0.5,15.1-0.1,22.3c0,0,0,0,0,0c0,0,0,0,0,0c0,0,39.6-41.9-2.4-78.2c4.9,3.9,11.8,9.6,19.4,16.4l8.2-6.1l-4.8,9.2
			c5.1,4.7,10.3,9.8,15.5,15.2l5.6-5.6l-3.9,7.3c0,0,3.6,3.9,3.4,3.8l3.9-3.8l-2.6,5.4c5.7,6.5,11.8,14.1,16.3,21.1
			c0,0,7-73.4-68.6-69.1l0,0c2.1-0.2,10.4-1,22.4-1.2l2.1-6.9l0.3,6.8l7.2,0l1.8-9.2l2.4,9.2c8.6,0.1,17.5,0.5,26.9,1.5l0.3-5
			l2.4,5.4c7.9,0.9,15.8,2.3,23.2,4.2c0,0-40.4-54.5-89.4-5.1l0,0c2.6-3.1,21-24.7,35.6-35.7l-2.7-3l4.4,1.6c5-4,10.2-7.7,15.5-10.8
			c0,0-49.7-7.2-53,41.9c-0.4-59.5-60.3-53.8-60.3-53.8c5.2,3.4,14,10.6,14,10.6l4.1-1.8l-3,2.7l3,2.6l5.9-2.4l-4.4,3.8
			c6.7,6,12.6,12,18.1,17.9l8.4-3.9l-5.6,6.9c9.3,10.3,16,18.9,18.6,22.3c0,0,0,0,0,0c-34.7-43.6-76-7.5-76-7.5
			c11-0.9,17.4-0.3,17.4-0.3l3.8-4.5l-1.5,4.6c1.5,0,3.1,0.1,4.7,0.1c-24.5,9-35.7,35.8-35.7,35.8c6.9-3.8,14.5-7.1,22.2-10l1.1-6.9
			l1.6,5.9c9.2-3.3,18-5.9,26.5-8.2l0.1-9.8l3.1,8.9c8.1-2.2,15.3-3.8,20.9-4.8c-40.2,10.3-30.5,53.9-30.5,53.9
			c2.7-5.4,9.8-16.5,9.8-16.5l-3.1-4.6l4.2,3.1l3.1-4.6l-3.8-5.7l5.2,3.7c6.7-8.4,17.3-19.9,23.4-26.4c-1,2-2.1,4.1-3,6.2l0,0
			c-0.2,0.4-0.4,0.9-0.6,1.3c-0.1,0.2-0.1,0.3-0.2,0.5c-0.2,0.4-0.3,0.8-0.5,1.2c-0.2,0.4-0.3,0.8-0.5,1.1c-0.1,0.1-0.1,0.2-0.2,0.4
			c-22.6,53.5-24.8,136.5-24.7,171.9c0,7.1,0.2,12.6,0.3,16.3c0,0.3,0,0.5,0,0.5s2,1.1,7.9,1.5c0,0,0,0,0,0c2.1,0.2,4.4,0.2,6.8-0.2
			c0.3,0,0.4-0.1,0.4-0.1c0,0,0,0,0,0c2.3-0.4,4.7-1,7-2.2C695.3,695,722.6,617.7,728.2,603.6z"/>
		<path class="st5" d="M867.9,762.2c0.1,0.4,1.1,2.4,1.1,2.4c0.1-0.4-0.4-3.6-0.6-4c-0.2-0.4-0.4-2.3-0.6-3.8s-0.3-2.1-0.8-5.4
			c-0.5-3.3-1.3-5.7-1.6-6.5c-0.3-0.8-1.3-3-1.8-4c-0.5-1-1.6-2.7-1.8-2.9c-0.2-0.3-0.1-0.8-0.6-1.3c-0.5-0.5-0.9-1-1.4-1.1
			c-0.5-0.1-0.6-0.5-0.9-0.6c-0.3-0.1-1.1,0.1-1.5,0.2c-0.4,0.1-1.4-0.9-3.1-1.3c-1.6-0.4-1.8-0.2-2.9-0.5c-1.1-0.3-2.5-0.6-4.1-0.6
			c-1.6-0.1-4.6,1.1-5.7,1.4c-1.1,0.3-3.3,0.3-8.4,0.9c-5.1,0.6-8.1,1.2-15.2,1.5c-7,0.3-14,0-14,0h-0.6c0,0-0.8,0-1.3,0
			c-0.5,0-3.1-0.2-3.6-0.4c-0.5-0.2,0.9-0.5,1.1-0.6c0.3-0.1,0.6-0.8,0.4-0.6c-0.2,0.1-0.8,0-1.2,0.1c-0.4,0.1-1.1-0.1-1.1-0.1
			s-0.1,0-0.2,0c0.2,0,0.9-0.4,1.2-0.5c0.3-0.1,0.6-0.6,0.4-0.6s-3.8-0.1-3.8-0.1c0.4-0.2,0.4-0.9,0.4-0.9s0.2-0.6-0.1-0.6
			c-0.3,0.1-0.6,0.1-0.6,0.1s0.1-0.4-0.3-0.4s-0.3-0.2-0.3-0.2s0.2-0.2,0.3-0.3c0.1-0.2,0.3-0.3,0.2-0.3c-0.2,0-1.2,0.4-1.4,0.4
			c-0.3,0-1.8,0.7-1.9,0.4s1.6-1.5,1.6-1.5l-0.8,0.2c0,0-1,0.8-1.4,0.8c-0.4,0,0.4-0.8,0.4-0.8s0.3-0.6,0.1-0.6s-0.6,0.3-0.8,0.3
			s-1,0.6-1.3,0.4c-0.3-0.2,0.1-0.7-0.1-0.6c-0.3,0.1-0.6,0.1-0.7-0.1c-0.1-0.3,1.1-1.8,0.8-1.4c-0.3,0.3-0.5,0.2-0.5,0.2l-1.3,0.6
			l0.8-1.4l-0.8,0.3l0.3-0.6c0,0-0.4-0.2-0.8-0.2c-0.4,0-1,0.3-1.3,0.3c-0.3,0.1-0.7-0.4-0.5-0.5s0.8-1.1,0.8-1.1s-0.6,0.4-0.6,0.2
			c-0.1-0.2,0.3-0.6,0.3-0.6s-0.6,0.4-0.9,0.5c-0.3,0.1-1.1,0.8-1.1,0.8s0.2-0.6,0.3-0.9c0.1-0.3,0-0.9,0-0.9l-1.4,1
			c0,0,0,0,0.2-0.6c0.2-0.6,0-0.8,0-0.8l-1.2,0.4l0.3-1.7l-0.7,0.6l0.2-0.8c0,0-0.9,0.8-1,0.6c-0.1-0.2,0.5-0.9,0.6-1.1
			c0.1-0.2,0.2-0.9,0.2-0.9s-0.8,0.6-1.1,0.9c-0.3,0.3-0.9,0.1-1.1,0c-0.2-0.1,0.8-1.8,0.8-1.8s-0.9,0.9-0.8,0.4
			c0.1-0.4,0.4-0.8,0.4-0.8s-1.2,0.8-1.4,1.1c-0.3,0.3-1.8,2.4-1.8,2.4c0.3-0.9,0.7-1.9,0.9-2.4c0.2-0.4,0.2-1.9,0.2-1.9
			s-0.9,0.6-1.2,1.1c-0.3,0.6-1.1,2.4-1.1,2.4c0.1-0.3,0.1-2,0.1-2s-0.4-0.3-0.4-0.6c0-0.3-0.4-1.4-0.4-1.4s-0.2,2.7-0.2,2.9
			c0,0.2-0.4,0.1-0.4,0.1s-0.1-0.9-0.1-1.1c-0.1-0.2-0.6-1-0.8-1.3c-0.1-0.3-0.2,3.3-0.4,3.4c-0.2,0.1-0.5-0.5-0.9-1.1
			c-0.4-0.6-2.8-2.1-3.3-2.7s-0.6-0.9-0.9-1.6c-0.3-0.6-0.4-1.4-0.6-1.8c-0.1-0.4-0.4-0.1-0.6-0.1c-0.3,0-0.6-0.5-0.9-1
			c-0.3-0.5-0.5,0-0.5,0s-0.3,0.1-0.3,0.8s0.2,1.1,0.3,1.6c0.1,0.5,0.3,0.8,0.6,1.3c0.3,0.5,0.3,0.9,0.4,1.5
			c0.1,0.6,0.8,1.8,1.1,2.3c0.3,0.4,1.1,1.2,1.4,1.6c0.3,0.4,0,1.1,0,1.1s0.3,0.6,0.6,0.7c0.4,0.1,0.3,0.9,0.3,0.9
			c-1.9,0.6-2.7,1.6-3.6,2.3c-0.9,0.7-2,2.6-2.5,3.6c-0.5,0.9-1.6,2.8-1.9,3.1c-0.3,0.4-0.5,1.4-1.1,2.8c-0.6,1.4-4.6,6-5,6.8
			c-0.4,0.8-0.9,2.2-0.4,4.2c0.5,2,2.4,3.2,2.4,3.2s0.8,0.1,1,0.4c0.3,0.4,1.3,0.8,1.6,0.8c0.3,0,2.2,0.1,2.6-0.3
			c0.4-0.4,1.6-1.3,2.6-1.8c0.9-0.5,2.6-1.8,3.3-2.1c0.6-0.3,1.3-1.1,2.1-1.8c0.8-0.8,1.1-1.1,1.1-1.1s0.8-0.1,1.1-0.3
			c0.3-0.1,1.4-1.3,2.2-1.6c0.8-0.4,1.2,0.3,1.9,0.9c0.7,0.6,2.6,2.1,2.9,2.4s5.1,5.5,5.6,6c0.6,0.6,4.9,3.5,5.6,4
			c0.8,0.5,1.3,1.1,1.4,1.4c0.1,0.3,1.7,1.9,1.9,2.3c0.3,0.3,1.5,2.8,1.9,3.4s2.7,1.3,3,1.7c0.3,0.4,0.6,2.2,0.8,2.9
			s1.2,3.1,1.4,3.8c0.2,0.6,0.1,7.5,0.4,8.2c0.3,0.8,1.3,3.7,1.3,5.5c-0.1,1.8-0.7,5.2-0.9,5.8s-2,1.9-2.4,2.4
			c-0.4,0.5-0.2,1.1-0.2,1.6c0,0.5-0.8,0.9-1,1.3c-0.2,0.3-2.2,1.4-2.6,1.8c-0.4,0.3,0,0.5,0,0.5l2.8-0.1c0,0-0.8,0.8-1.1,1
			c-0.4,0.3-0.4,0.7-0.4,0.7c0,0.3,0.6,0.6,1.1,0.8c0.4,0.2,4.8-0.1,5.1-0.1c0.3,0,2.6-2.1,2.8-2.3s-0.3-0.8-0.5-1.1
			c-0.2-0.4-0.3-0.7-0.4-0.9s0.1-1.3,0.6-1.3c0.4-0.1,1.4-1.3,1.7-1.5c0.3-0.3,0.3-1.6,0.3-1.9c0-0.3-0.4-0.9-0.6-1.3s0-5.4-0.1-6
			c-0.1-0.6,0-3.9,0.1-4.4c0.1-0.5,0.3-1.5,0.3-1.9c0-0.4-0.5-1.5-0.5-1.9c0-0.4,0.1-1.6,0-2.4c-0.1-0.8-0.1-3.5-0.2-3.8
			c-0.1-0.3,0.7-1.4,0.8-1.7c0.1-0.3,0-1.9,0.4-2.5c0.4-0.6,3.2-0.9,5.1-0.9c1.9,0,8.2,0.6,10.9,0.4c2.8-0.2,5-0.6,8.7-1.4
			s6.4-3.3,6.4-3.3c0.6,1.1,2.2,1.5,2.6,1.7c0.4,0.2,0.8-0.1,1.1-0.3c0.3-0.2,0.6,0.1,0.6,0.1c0.5,0.6,1.6,1.8,2,2.4
			c0.4,0.6,3.4,6.2,3.6,6.8c0.3,0.6,1.4,1.9,2.2,3.1c0.8,1.1,1,2.2,1.3,2.9c0.3,0.7,0.9,2.1,1.3,3.5c0.4,1.4-0.3,5.8-0.3,6.9
			c-0.1,1.1-0.6,2.9-0.8,3.6c-0.2,0.6-0.4,0.9-0.6,1.5c-0.1,0.6-0.3,1.6-0.4,1.9c-0.1,0.3-1.3,1.7-1.9,2.1c-0.7,0.4-0.9,1.9-1.1,2.6
			c-0.3,0.6-1.4,1.7-1.7,1.8c-0.3,0.1,0,0.9,0,0.9l1.7,1.2h2.4l0.9-0.4l0.9-0.7l1.1-0.6l-0.1-1.8c0,0-0.1,0-0.1-0.3
			c0-0.3,0.3-0.6,0.3-0.6l0.2-0.3l0.6-0.5l0.8-1.1l0.6-0.6l0.4-0.8c0,0,0.4-0.2,0.5-0.4c0.1-0.3,0.3-5,0.3-6.1
			c0.1-1.1,1.5-7.1,1.6-7.6c0.1-0.6,0.2-2.1,0.3-2.7c0.1-0.6,0.3-1,0.3-1h0.4c0.3,0.6,2.1,3.8,2.1,3.8s0.2,11.5,0.1,12.1
			c-0.1,0.6-1.3,1.4-1.6,1.7c-0.3,0.3-0.3,0.8-0.3,1.1c0,0.3,0.2,0.5,0.2,0.9c0,0.4-2.1,2.8-2.1,2.8s-0.2,0.9-0.2,1.1
			c0,0.2,1.1,0.6,1.1,0.6h4.1c0.4,0,2-2,2.2-2.1c0.2-0.1-0.4-1.6-0.6-1.9c-0.1-0.3-0.1-1.4-0.1-1.6c0-0.3,1.1-0.6,1.6-1.1
			c0.5-0.5,0.8-1.9,0.8-2.3c0-0.3-0.6-1.6-0.8-2.1c-0.2-0.4-0.4-12-0.4-13.6c0-1.6,0-3.8-0.4-4.5c-0.4-0.7-5-8.4-5.3-9.5
			c-0.4-1.1,0.4-9.7,0.5-10.4c0.1-0.7,1.5-4,1.8-4.6c0.3-0.6,0.8-2.7,0.8-2.7s0.4,0.8,0.6,1.6c0.3,0.8-0.1,7.8-0.3,9.9
			c-0.2,2.1-0.7,6.4-0.6,7.2c0.1,0.8,0.1,1.1,0.8,1.6c0.6,0.5,0.9,0.8,1.2,1.3c0.3,0.5,0.5,1.6,0.8,2.1s0.3,1.6,0.3,1.6
			s0.4-0.4,0.4-0.8c0-0.4-0.3-2.1,0-1.9c0.3,0.3,0.9,1.9,0.9,1.9c0.2-0.1,0.1-0.6,0.1-0.8s-0.2-1.2-0.4-1.5c-0.3-0.3-1-1-1.2-1.3
			c-0.2-0.3,0-2.5,0.1-2.8c0.1-0.3,0.3,0.4,0.3,0.7s0.8,2.4,1.3,3.2c0.5,0.8,0.8,0.8,0.8,0.8c-0.1-0.2-0.6-4.6-0.6-4.6l0.8,2.6
			c0.3-0.2,0.1-1.1,0-1.6C868.8,766.5,867.8,761.8,867.9,762.2z"/>
		<path class="st5" d="M924.2,789.1c0,0-4-15.8-4.9-20.1c0,0,0.3,0,0.5-0.4c0,0-0.8-6.1-1.8-10.5c-1-4.3-1.2-9.9-4.4-13.9l0.1-0.6
			c1.4-0.9,0.5-5.4,0.5-5.4c-0.4-1.4,0.1-6.5,0.1-6.5c0.7-1.3,0.2-4.3,0.2-4.3h0.8l0.1-0.8l1.1-1c-0.1-0.7-0.3-6-0.3-6
			c0.6-4,0.1-9.3-1.4-11c-1.5-1.7-2.5-4.9-2.5-4.9c1.4-2.8-0.9-6.2-0.9-6.2v-1.5c-0.5-0.7-0.7-1.9-0.7-1.9c1.3-1,0.2-2.4,0.2-2.4
			c0.5-0.5-0.2-1-0.2-1c0.5-0.7,0-1.4,0-1.4c0-2.3-4.2-2.3-4.2-2.3c-0.4,0.2-2-0.8-2-0.8c-1.1-1.2-3.4-1.9-3.4-1.9
			c-3.7,0.3-3.2,1.9-3.2,1.9c-1.4-0.1-1.2,0.7-1.2,0.7c-0.9,1.3-0.6,2.8-0.6,2.8l-0.1,2c0,0,0.2,0.2,0.5,0.5l0.4,1.6
			c0,0-0.7,1.8-1.4,2.4c0,0,0.2,1,0.8,1c0,0,0,0.7,0.2,0.9c0,0-0.1,0.6,0,0.8c0,0,0.3,1,0.2,1.4c0,0-0.5,1.3,0.1,1.8
			c0,0,0.7,0.6,1.5,0.4c0,0,1.4-0.1,2.7-0.7c0,0,0,0.8-0.3,1.1c0,0-0.6,0.8-0.8,1.5c0,0-1.1,1-1.6,1.2l-0.1,0.5c0,0-1.7,2.5-1.6,3.4
			c0,0-1.3,0.9-0.5,1.4c0,0-0.8,0.7-1.2,4.3c-0.6,0.1-1.2,0.2-1.9,0.2l-0.7-0.5c0,0-1.2-1.2-3-0.7c0,0-2.5-0.9-3.2-0.9l-0.3,0.5
			l-0.9-0.6l-1.1-1.7c0,0-1.4-1.2-1.9-1.5c0,0-0.1,0-0.3,0l-1.1-11.7c-0.2-3.4-3-4.4-3-4.4c-4.2-2.1-8.5,1.6-7.4,5.3
			c0.8,2.6,0.5,3.9,0.5,3.9c-2,2.6,0.9,2.1,0.9,2.1c2-1.6,1.3-3.3,1.3-3.3c-1.3-3.3-0.4-4.4-0.4-4.4c4.3-3.2,5.8,1.4,5.8,1.4
			l1.2,11.8c-0.4,0.3-0.9,0.6-1.1,0.8c0,0-0.1,1.7,0,2.2c0,0,0.2,1.2,0.6,1.7c0,0,0.3,1.5,0.8,1.7c0,0,0.1,0,0.3,0l8.3,84.1
			c0.8,1.9,2.1,0,2.1,0l-8.1-84c0.6,0,1.1,0,1.5-0.1l1.1,0.6c0.2,2.1,0,9.1,0.8,9.2c0.4,0.1,0.8,0.1,1.1,0.2c0.1,0.5,0.1,1,0.1,1.3
			c0,0,1.3,0.5,2.5,0.4l0.2,0.6c0,0,1.4,2.1,2.6-0.9c0,0,0.4,1,1.4,1.3c0,0,0.5,0.2,1.2,0.3c0.2,2.4,0.2,6.7,0.2,6.7l0.8,0.8
			c-0.3,3.6,1.5,4.9,2,5.2c-0.2,0.7-0.3,1.6-0.3,2.6c0,0-0.4,27.8-0.9,29.7l1.3,1.2c0,0,0.7,16.3,0.4,20.3c0,0,2.2,1.6,6.1,1.4
			c-0.5,0.4-1.4,1-2.1,1.1c0,0-1.2-0.6-1.8,0.5c0,0-1.3,0.5-2,0.6c0,0-0.4,0.5,0,1.1h-0.5v1H914v-1.2c0,0,0.9-0.5,0.4-2
			c1.4-0.1,2.8-0.6,4.6-1.7c0,0,0-0.4-0.3-1.7c0,0,1.4,0.4,4.8-1.5c0,0-0.4-1.6-1.2-4.1C922.3,789.8,923.1,790,924.2,789.1z"/>
		<path class="st5" d="M1064.5,771.9c-0.1-0.6-0.1-1.1-0.3-1.7c-1.1-4.5-4.2-7.9-5.7-12.1c-0.1-0.2-0.2-0.4-0.2-0.6
			c-0.1-0.2-0.2-0.4-0.2-0.6c-0.2-0.6-0.4-1.3-0.6-2c-0.1-0.2-0.1-0.4-0.2-0.7c-0.3-1-0.5-1.9-0.8-2.9c-0.2-0.6-0.3-1.2-0.4-1.8
			c0-0.1,0-0.1,0-0.2c-0.2-0.7-0.3-1.3-0.5-2l-0.1-0.3c-0.1-0.5-0.2-1-0.4-1.6c-0.1-0.5-0.2-1-0.4-1.6c-0.1-0.5-0.2-1-0.3-1.5
			c-0.3-1.2-0.6-2.4-0.9-3.6c-0.1-0.3-0.2-0.7-0.3-1c0,0,0-0.1,0-0.1c0-0.1-0.1-0.3-0.1-0.4c-0.1-0.3-0.2-0.6-0.3-0.9
			c0-0.1,0-0.1,0-0.2c0,0,0,0,0,0c-3-9.5-7.9-16.7-21.2-14.6c-0.3,0.1-0.7,0.1-1.2,0.2c-0.6,0.1-1.2,0.2-1.8,0.4
			c-1,0.1-2.5,0.2-4.2,0.3c-2.4,0.3-4.7,0.4-7.1,0.4c-0.1,0-0.1,0-0.1,0c-1.7,0.1-4.1,0-6.1-0.1c-13.7-0.7-31.8-4.8-36.2-6.2
			c-1-0.3-2-0.7-3-1c-1-0.5-1.9-1.1-2.8-1.7c-0.1,0,0-0.1,0-0.1c0.3-0.1,0.6-0.3,1-0.4c1.7-0.9,3-2.6,3.5-4.4c0.2-1,0.3-2.2,0.9-3
			c0.1-0.1,0-0.2-0.1-0.2c-2.4-0.5-4.8,0.5-6.9,1.8c-1.3,0.9-2.6,1.9-3.9,2.8l-0.5-0.1c-0.4-0.5-1-0.9-1.6-1.2l-0.4-0.2
			c-0.8-0.5-1.7-1.1-2.6-1.5c-0.1-0.1-0.2-0.2-0.2-0.3c-0.8-1-1.3-2.1-1.7-3.3c-0.7-1.7-1.3-3.5-1.9-5.2c-0.1-0.2-0.2-0.5-0.3-0.7
			c-0.3-0.5-1-0.4-1.1,0.1c-0.8,2.9-0.7,6-0.1,9.1c-0.3,0.1-0.5,0.2-0.8,0.3c-1-1.2-1.9-2.4-2.7-3.8c-0.1-0.3-0.3-0.5-0.4-0.8
			l-0.7-2.1c-0.1-0.3-0.6-0.3-0.6,0c-0.7,3.1-0.2,6.4,1.2,9.1c1.3,2.7-10,13.7-12.3,15c0,0-0.1,0-0.1,0c-1,0.6-2,1.2-3,1.8
			c-0.3,0.2-0.6,0.3-0.9,0.5c-0.1,0-0.2,0.1-0.2,0.1c-0.2,0.1-0.4,0.2-0.5,0.4c-0.1,0.2-0.1,0.4-0.1,0.6c0,0,0,0.1,0,0.1
			c-0.1,0.4,0,0.9,0.1,1.3c0.1,0.7,0.2,1.4,0.5,2c0.4,1,1.3,2,2.4,2.2l0,0c0,0,0.1,0,0.1,0c-0.4,1,0.6,2.3,1.7,2.6
			c1.1,0.3,2.3-0.2,3.3-0.8c1-0.6,1.9-1.4,2.9-1.9c1.4-0.6,2.9-0.7,4.4-0.7c17.8-0.1,18,10.9,20.9,25.9c1.7,8.6,6.3,17.2,7.2,25.8
			c0.4,3.4-1,16.8-6.5,16.8c3.5,0.1,7.1,0.2,10.6,0.2c0.2-1.9,0.5-3.8,0.7-5.6c0-0.2,0.2-0.3,0.4-0.3l1,0c0.3,0,0.5-0.2,0.4-0.5
			c-0.8-3.8-1.7-7-0.8-10.8c0.9-3.9,2.3-7.7,2.3-11.6c0-0.1,0.1-0.1,0.1-0.1c0.2,0,0.4,0,0.7,0c0.1,0,0.2,0.1,0.2,0.2
			c1,6.5,5.3,12.6,5.6,19.3c0.1,1.3,0,2.8-0.6,4c-0.1,0.2-0.2,0.3-0.4,0.5c-1.7,1.5-3.3,3.1-4.7,4.8c3.5,0.2,7,0.2,10.5-0.1
			c0.3-1.4,0.7-2.7,1.2-4.1c0,0,0.1,0,0.1,0c0-0.1,0-0.2-0.1-0.4c-0.1-0.5-0.1-1-0.2-1.5c0,0,0-0.1,0.1-0.1c0.4,0.3,1,0.4,1.5,0.3
			c0.1,0,0.2-0.2,0.1-0.3c-1.5-1.4-2.6-3.1-3.1-5.1c-0.6-2-2.7-20.5-0.4-21.3c0.7-0.2,1.4-0.4,2.1-0.5c1.5-0.2,3.1,0.1,4.6,0.3
			c4.6,0.6,9.3,0.2,13.8-1.1c0.2-0.1,0.4,0,0.5,0.2c0.3,0.3,0.5,0.6,0.8,0.9c0.5,0.6,1,1.3,1.7,1.7c0,0,0,0.1,0,0.1
			c-0.6,1.1-1,2.3-1.1,3.5c0,0.1,0,0.2,0,0.2c0.1,0.1,0.2,0.1,0.3,0.1c0.4,0,0.7-0.2,1-0.4c0.9-0.6,1.7-1.6,2.1-2.6
			c0,0,0.1-0.1,0.1-0.1c1.1,0.2,2.3,0.4,3.5,0.6c0,0,0.1,0,0.1,0.1c-0.2,1.2-0.2,2.5,0.2,3.7c0,0.1,0.1,0.2,0.1,0.2
			c0.1,0,0.2,0,0.3,0c0.3-0.2,0.6-0.5,0.8-0.8c0.6-0.8,0.9-1.8,0.9-2.8c0-0.1,0-0.1,0.1-0.1c1,0.1,2,0.2,3.1,0.1c0,0,0.1,0,0.1,0.1
			c0.1,0.9,0.4,1.8,0.9,2.6c0.2,0.3,0.4,0.5,0.7,0.7c0.3,0.1,0.6,0.2,0.9,0.1c0,0,0.1-0.1,0.1-0.1c0.1-0.2,0.2-0.5,0.2-0.8
			c0-0.2,0-0.4,0-0.6c0.5,4.8-4.1,20-8.3,23c-1.9,1.4-3.7,2.9-5.3,4.5c2.2,0.1,4.4,0.2,6.7,0.2c1.4,0.1,2.9,0.1,4.3,0
			c0.3,0,0.6-0.1,0.9-0.3c0.2-0.2,0.4-0.5,0.5-0.7c0.6-1.2,1.2-2.4,1.7-3.6c-0.1,0-0.2,0-0.2,0c-0.1-0.9,0.6-1.7,1-2.5
			c0,0,0.1,0,0.1,0c0.6,0.7,0.6,0.5,1.4,0.7c0.1,0,0.1,0,0.1-0.1c-1.6-2.1-0.2-4,0.2-6.4c0.2-1,0.6-2,1.1-2.9
			c2.1-3.9,4.1-7.7,6.2-11.6c0.6-1,1.1-2.1,1.4-3.3c0,0,0,0,0.1,0c0.4,0.4,0.7,0.9,1,1.5c0.3,0.6,0.4,1.3,0.5,2
			c1.2,6.5,2.1,16.1,1.7,22.7c0,0.2-0.1,0.3-0.2,0.5c-1.4,1.3-2.6,2.6-3.9,4.1c2.9,0,5.9,0,8.8,0c0.5,0,0.9,0,1.4-0.2
			c0.7-0.3,1.3-0.9,1.6-1.7c0.3-0.7,0.5-1.6,0.6-2.4c-0.1,0-0.3,0.1-0.4,0.1c0.4-0.2,0.8-0.5,1.1-0.8c0.2-0.2,0.2-0.4,0.1-0.6
			c-2-2.9-2.4-6.8-2.1-10.3c0.3-3.8,2.3-8.6,1.6-12.7c-0.9-5.4-5.4-8.7-7.4-13.7c0-0.6-0.3-1.1-0.5-1.6c-0.8-1.9,0.6-19.8,0.5-19.9
			c0.2-2.2,0.2-4.5-0.2-6.7c-0.1-0.6-0.2-1.1-0.4-1.7c0-0.2,0.1-0.3,0.3-0.2c1.1,0.7,1.5,1.4,1.9,2.1c1.2,2.3,3.1,7.1,4.5,12.8
			c0.4,2.1,0.8,4.1,1.2,6.2c0,0,0,0,0,0l0,0c0.6,2.9,1.1,5.9,1.7,8.8c0.1,0.7,0.3,1.5,0.7,2.2c0,0.6,0.1,1.2,0.2,1.8
			c0.7,6,5,11.4,5.6,17.2c0.1,0.7,0.2,0.9,0.4,0.1c0-0.2,0.1-0.3,0.1-0.5c0,0,0,0,0,0c0,0,0,0,0,0
			C1064.1,777.4,1064.8,774.8,1064.5,771.9z"/>
	</g>
	<path class="st5" d="M1087.9,800.8H1019c-8.4-0.5-15.8-0.8-22.1-0.9c-22.5-0.5-48.3,0.5-58.4,0.8c-2.6,0.1-2.1,0.1-3.6,0.1h-27
		c-16.2-0.5-27.8-1.8-35.8-1.7c-6.8,0.1-14.9,0.5-24.3,1.7h-56.5c-7.3-1.6-15.8-2.8-24.5-2.7c-8.6,0-16.4,1.2-23,2.7h-48
		c-0.8-0.1-1.6-0.3-2.4-0.4c-1.8-0.3-13.9-2.3-25.3-2.4c-10.2-0.2-19.3,1.1-27.1,2.8h-189c-10.3-2-19.3-3.2-33.4-2.1
		c-6.5,0.5-11.8,1.3-16.6,2.1h-84.9c-6.6-1.2-10.3-2.2-12.6-2.7c-5.9-1.2-11.4,0.3-16.6,2.7h-49.7c-10.9-2.2-24.4-3.2-29-2.4
		c-4.2,0.8-7.5,1.6-10.4,2.4h-64.2c-3.9-0.8-8.5-1.5-14.4-1.8c-11.4-0.6-13.4,0.9-33.8,1.8H68c-9.5-1.7-29.3,0-31.5,0h-1.4
		c-2.6,0-4.7,2.1-4.7,4.7v4.8c0,2.6,2.1,4.7,4.7,4.7h509.5c12.2,0.9,25.1,1.1,37.9,0h505.4c2.6,0,4.7-2.1,4.7-4.7v-4.8
		C1092.6,802.9,1090.5,800.8,1087.9,800.8z"/>
	<g>
		<path class="st5" d="M291.1,316.8l-2.8-0.8l-0.9,2.8c-0.1,0.5-0.3,1.2-0.6,1.9c-4.4,14.5-8.6,25.6-12.6,33l-0.6,0.1l0.1,0.9
			c-0.7,1.2-1.3,2.3-1.9,3.3c-1.8,2.6-2.8,2.9-3,2.9c0,0,0,0-0.1,0c-0.1,0-0.1,0-0.2-0.1c-0.2-0.2-0.5-0.7-0.8-2.3
			c-0.3-1.3-0.4-3.2-0.3-5.6c0.1-2.5,0.2-4.6,0.2-6.4c0.1-1.7,0.2-4.1,0.5-7.4c0.5-6.1,0.8-10.8,0.9-14c0.1-3.2-0.2-6.9-0.8-10.9
			c-0.7-4.2-2-7.2-3.9-9c-1.7-1.7-3.9-2.6-6.4-2.6c-0.4,0-0.9,0-1.3,0.1c-9.3,1-16,12.6-20.3,35.3c-1-4.6-1.7-8.9-2.2-13
			c6.4-7,12.2-18.2,17.5-33.3c3.6-10.7,5.8-20.2,6.5-28.3c0.3-2.4,0.3-4.9,0.1-7.4c-0.2-2.8-0.7-5.2-1.4-7c-1.9-5-5.2-7.5-9.9-7.5
			c-0.5,0-1,0-1.6,0.1c-5.5,0.6-10.3,4.1-14.3,10.3c-6.6,10.6-10.4,26.3-11.1,46.8c-0.4,11.3,0.2,22.1,1.8,32.4
			c-1,1.6-2.2,3.3-3.6,5.2c-3.2,4.3-7,8.1-11.2,11.4c1.2-11.4,0.4-24.9-2.2-40.4c-1.3-7.5-3.1-14.6-5.5-21.1
			c-2.4-6.5-5.5-12.6-9.1-17.9c-3.7-5.4-8.3-9.5-13.7-12.1c-3.9-1.9-8-2.9-12.3-2.9c-1.7,0-3.6,0.2-5.4,0.5
			c-1.3,0.2-2.8,0.6-4.7,1.1c-1.9,0.5-4.8,1.9-8.8,4.2c-4,2.2-7.5,5-10.5,8.4c-11.1,12.2-14.8,29.3-11.1,51.1
			c1.1,6.5,3.5,12.9,7,18.8c3.5,5.9,7.9,11.1,13.2,15.5c2.5,1.9,5.1,3.7,7.8,5.2c2.4,4.9,5.2,9,8.1,12.3
			c6.4,7.2,13.7,10.8,21.6,10.8c1.5,0,3.1-0.1,4.7-0.4c9.3-1.6,15.8-9.1,19.2-22.2l0-0.1c0.1-0.7,0.3-1.5,0.5-2.3
			c6.3-4,11.7-9,16.2-14.8c0.5-0.6,1-1.3,1.4-1.9c1.1,5.3,2.6,10.5,4.3,15.5c1.2,3.6,3.1,5.4,5.8,5.4c0.2,0,0.5,0,0.7,0l0.2,0l0,0
			c1.7-0.3,3.2-1.3,4.5-2.9l0,0c0.9-1.3,1.4-2.7,1.2-4c1.5-11.7,3.6-21.4,6.2-28.9c3.3-9.4,5.9-11.1,7.1-11.2c0,0,0.1,0,0.1,0
			c0,0,0.1,0,0.1,0l0,0c0.3,0.3,0.7,0.9,1.1,2.5c0.3,1.3,0.5,3.2,0.6,5.7c0,2.5,0,4.7,0,6.4c0,1.7-0.1,4.2-0.3,7.4
			c-0.3,5.9-0.4,10.4-0.4,13.5c0,3.1,0.4,6.6,1.1,10.4c0.7,4,2,6.8,3.8,8.5c1.6,1.5,3.5,2.3,5.7,2.3c0.4,0,0.8,0,1.1-0.1
			c3.6-0.4,7-3.1,10.4-8.2l0.2-0.3l0-0.1c0.7-0.9,1.3-1.9,1.8-3c4.3-7.6,8.9-19.6,13.8-35.7c0.3-0.9,0.5-1.5,0.6-2
			c0.3-0.9,0.2-1.6-0.1-2.2C292.6,317.5,292,317.1,291.1,316.8z M184.8,374.7c-0.4,0.1-0.8,0.1-1.2,0.1c-2.1,0-4.4-0.9-6.9-2.6
			c-2.7-1.8-5.3-4.6-7.8-8.3c2.5,0.4,5,0.6,7.6,0.6c3.2,0,6.5-0.3,9.9-0.9c4.1-0.7,8.1-1.9,11.9-3.7
			C195.4,368.7,190.9,373.7,184.8,374.7z M200.1,352.2c-4.8,2.8-9.7,4.7-14.7,5.6c-2.9,0.5-5.9,0.8-8.7,0.8c-4,0-8-0.5-11.8-1.5
			c-4.3-8.6-7.6-19.6-9.8-32.7c-0.8-4.8-1.3-9.8-1.4-14.9c-0.1-5.1,0.2-9.9,0.7-14.5c0.6-4.5,1.5-8.5,2.8-11.8
			c0.8-2.1,1.4-6-2.8-7.8c-0.8-0.3-1.6-0.5-2.5-0.5c-0.9,0-1.8,0.1-2.8,0.4c-2.1,0.6-3.6,1.8-4.4,3.6c-2.3,4.8-3.7,12.1-4.2,21.6
			c-0.5,9.4-0.2,17.3,0.8,23.5c1.6,9.1,3.6,17.2,6.1,24.2c-4.3-3.4-7.9-7.5-10.9-12.2c-3.7-5.8-6.1-12-7.2-18.5
			c-3.4-19.9-0.1-35.4,9.7-46.1c3.2-3.5,6.7-6.2,10.5-8.2c3.9-1.9,7.2-3.2,9.9-3.6c1.4-0.2,2.8-0.4,4.2-0.4c2.7,0,5.3,0.5,7.8,1.4
			c3.8,1.4,7.1,3.6,9.9,6.6c2.8,3,5.4,6.8,7.8,11.3c2.4,4.4,4.3,9.2,5.8,14.1c1.5,4.9,2.8,10.2,3.7,15.6
			C201.6,325.8,202.1,340.5,200.1,352.2z M233.2,316.4c-0.4-7-0.3-14.2,0.4-21.6c0.8-8.5,2.1-16.1,3.8-22.6c1.7-6.5,3.7-12,6.1-16.3
			c2.2-4,4.4-6.3,6.3-6.5l0,0c0,0,0.1,0,0.2,0.2c0.8,0.8,1.7,2.7,2.1,7.3c0.1,1.8,0.1,3.7-0.1,5.7l-0.2,0.4l0.1,0.5
			c-0.7,7.6-2.8,16.5-6.2,26.5C242,300.8,237.8,309.8,233.2,316.4z"/>
		<path class="st5" d="M444.1,352.6l0-0.2l-0.3-0.3c-0.1-0.2-0.3-0.4-0.6-0.5c-0.1,0-0.1-0.1-0.2-0.1c-0.2-0.3-0.6-0.4-0.9-0.4
			l-0.1,0c-2.1-0.6-4.1-1.5-5.9-2.7c-1.8-1.2-3.4-2.8-4.6-4.8c-1.3-2.1-2.5-4.2-3.5-6.2c-1-2-1.9-4.6-2.6-7.7
			c-0.7-3.1-1.3-5.9-1.8-8.2c-0.5-2.3-0.9-5.3-1.2-8.9c-0.3-3.7-0.5-6.5-0.7-8.5c-0.2-1.9-0.3-4.5-0.5-8.1l-0.1-1.4
			c-0.2-3.6-0.2-7.4-0.2-11.1c0.7-0.7,1.4-1.4,2.2-2.2c10.9-10.9,16-24.5,15.2-40.2c-0.2-3.6-1-6.7-2.6-9.3c-1.6-2.6-3.8-4-6.8-4
			c-0.2,0-0.4,0-0.5,0l-0.2,0l0,0c-1.7,0.2-3.3,0.7-4.9,1.4c-1.6,0.8-3.4,2.5-5.4,5.1c-2,2.6-3.7,5.9-5.1,9.9c-1.4,4-2.6,9.7-3.6,17
			c-1,7.1-1.4,15.5-1.3,24.8c-5.1,3.6-11.9,7.5-20.3,11.7c0-10.7-0.3-19.6-0.9-26.6c-0.6-7.3-1.3-13.2-2-17.3
			c-0.6-3.2-1.2-6-1.9-8.4c-0.7-2.4-1.6-4.8-2.8-7.1c-1.2-2.4-2.7-4.3-4.4-5.6c-1.7-1.2-3.6-1.8-5.8-1.8c-0.2,0-0.4,0-0.6,0
			c-6,0.3-11,3.1-14.8,8.2c-3.7,5-5.6,11.2-5.4,18.4c-0.1,0.3-0.1,0.6-0.1,1l0,0.6c0.5,8.7,3.1,17.7,7.9,26.7
			c0.7,1.4,1.7,1.7,2.5,1.7c0.5,0,1-0.1,1.6-0.4c1.7-0.9,2.1-2.4,1.3-4c-4.4-8.2-6.8-16.3-7.2-24.2l-0.1-1.2c0-3.7,1.1-7.7,3.3-11.9
			c2.1-4,4.6-6,7.5-6.2c0.2,0,1.1,0.2,2.7,3.2c1.3,2.5,2.6,6.8,3.9,12.9c1.2,6.1,2.1,13.4,2.5,21.7c0.5,9.3,0.5,18.3-0.1,26.7
			c-8.3,4.4-15,8.7-20.2,12.7c-5.3,4.1-9.2,8.4-11.6,12.7c-2.4,4.3-3.5,9-3.3,13.8l0,0.8c0.5,5.3,2.5,9.6,6,12.8
			c3.3,3,6.9,4.5,10.8,4.5c0.3,0,0.5,0,0.8,0c7-0.4,13-3.6,17.6-9.6c7.3-9.3,11.6-25.2,12.7-47.4c8.3-4.1,15.2-7.9,20.6-11.3
			c0.9,31.5,6.2,50.9,16.1,59.2c3.9,3.2,8.4,4.8,13.5,4.8c0.4,0,0.9,0,1.3,0c0.9,0,1.9-0.2,2.8-0.3l0.1,0c0.3,0,0.5-0.1,0.7-0.3
			c0.1,0,0.2-0.1,0.3-0.1c0.1,0,0.1-0.1,0.2-0.1l0.8,0l0-0.9c0-0.1,0.1-0.1,0.1-0.2c0.3-0.4,0.3-0.7,0.3-1l-0.1-1.1
			C444.3,353,444.2,352.8,444.1,352.6z M423.8,251.5c0.6-2.9,1.2-5.5,1.8-7.9c0.6-2.3,1.2-4.2,1.8-5.6c0.5-1.4,1-2.5,1.4-3.2
			c0.2-0.4,0.4-0.7,0.5-0.9c0.4,0.1,0.7,0.3,1,0.5c0.5,0.4,0.8,0.8,1,1.4c0.3,0.7,0.5,1.4,0.7,2.2c0.2,0.8,0.3,1.5,0.4,2
			c0.1,0.5,0.1,1,0.1,1.4c0.7,12.9-3.2,24.2-11.5,33.6C421.5,266.6,422.4,258.7,423.8,251.5z M370.8,331.4
			c-3.8,13.7-9.2,20.9-16.2,21.3c-0.1,0-0.3,0-0.4,0c-2.1,0-3.9-0.8-5.6-2.4c-1.8-1.8-2.8-4-3-6.6l0-0.6c-0.3-5.6,1.9-11,6.5-16.1
			c4.5-4.9,11.9-10.2,22.1-15.8C373.4,318.8,372.2,325.6,370.8,331.4z"/>
		<path class="st5" d="M620.5,306.1c-0.6,0-1.3,0.2-1.9,0.7l-0.2,0.2l-0.1,0.2c-0.1,0.1-0.4,0.4-1.4,1.1l0,0
			c-7.2,5.4-14,10.9-20.1,16.4c0.4-10.4,0.6-19.9,0.5-28.1c-0.1-2.8-1-5-2.7-6.4c-1.2-1.1-2.7-1.6-4.3-1.6c-0.3,0-0.6,0-0.9,0.1
			c-2.5,0.3-4.3,1.7-5.4,4l-0.1,0.2l0,0.2l-0.2,0.3l0,0.1c-4.1,11.5-7.8,20.6-10.8,27c-1.2,2.6-2.4,4.8-3.5,6.7l-0.3,0.3l-0.1,0.1
			c-2.9,4.7-4.1,5.9-4.5,6.2c-0.8-0.1-1.4-0.5-1.9-1.3c-1.2-1.6-2-4.6-2.2-8.9c-0.3-4.4-0.2-9.1,0.5-13.9c0.6-4.8,1.5-9.2,2.5-13
			c0.6-2,0.5-3.9-0.4-5.4c-0.9-1.5-2.1-2.5-3.7-3c-0.8-0.2-1.5-0.3-2.3-0.3c-0.9,0-1.8,0.2-2.7,0.5c-1.7,0.6-2.9,1.8-3.6,3.6
			c-1.1,3.2-2,7.6-2.8,12.9c-0.4,2.4-0.6,5-0.7,7.6c-6.8,15-12.7,25.7-17.7,32c-0.9,0.8-1.4,0.9-1.7,0.9c-1.6,0-3.1-1.3-4.5-3.7
			c-3-5.7-4.5-16.1-4.6-31l0-4.2c5.9-8.7,12.1-19.1,18.5-30.9c6.5-12,10.8-22.4,12.8-31l0-0.1l0-0.2c0,0,0-0.1,0-0.1l0.1-0.2l0-0.7
			c0.3-1,0.5-2,0.6-3l0-0.1l0-0.2c0.4-3.9,0-7.1-1.1-9.4c-1.7-3.1-4.6-4.7-8.7-4.7l-0.1,0c-4.6,0-9.1,2.6-13.6,7.8
			c-4.3,5-8.4,12.1-11.9,21.1c-2.3,5.6-4.2,11.8-5.8,18.2c-1.6,6.5-2.9,13.1-3.7,19.8c-0.8,6.1-1.2,12-1.2,17.7
			c-2.2,2.6-4.8,5.3-7.8,7.9c-3.6,3.1-7.1,5.3-10.2,6.5c1-3.7,1.5-7.7,1.4-12.1c-0.1-4.5-0.8-8.5-2-12l0-0.4l-0.2-0.2l0,0
			c-1-2.5-2.3-4.6-3.9-6.3c-1.6-1.7-3.3-3-5-3.8c-1.7-0.8-3.5-1.2-5.3-1.2c-0.1,0-0.2,0-0.3,0c-5.1,0.1-9.7,2-13.7,5.5
			c-3.9,3.5-6.8,7.5-8.6,12c-1.8,4.5-2.6,9-2.5,13.2c0.1,2.5,0.3,4.9,0.7,7.2c0.4,2.2,1,4.2,1.7,5.7c0.7,1.5,1.5,3,2.3,4.2
			c0.9,1.3,1.9,2.3,3,3.2c1,0.8,2.1,1.5,3.1,2c1,0.5,2.1,0.9,3.3,1.2c1.1,0.2,2.1,0.4,2.8,0.4c0.5,0,1,0,1.5,0c0.3,0,0.6,0,0.9,0
			c4.9-0.1,9.4-2,13.4-5.7c1.9-1.8,3.5-3.8,4.8-6.1c4.8-0.7,10-3.3,15.5-7.8c2-1.7,3.9-3.3,5.5-4.9c0.2,5.6,0.8,10.5,1.6,14.8
			c1.1,6,2.6,10.5,4.4,13.5c1.9,3,3.8,5.2,5.7,6.5c2,1.3,4.2,1.9,6.5,1.9l0.1,0c3.5,0,7.2-2.6,11.4-7.8l0.2-0.3l0-0.1
			c0.5-0.5,1-1.2,1.6-2l0,0l0,0c0.2-0.3,0.4-0.6,0.5-0.8c1.2-1.9,2.6-4,4-6.4c2.1-3.6,4.4-7.8,6.7-12.6c0.6,4.9,1.9,8.8,3.8,11.6
			c2.5,3.4,5.8,5.2,9.9,5.2l0.1,0c3.5,0,7.3-3.2,11.5-9.7c3.3-5.2,7-12.7,11-22.3c0,8.8-0.4,18-1,27.7c-20.5,21.6-30.9,42-31.1,60.8
			c0,4.7,0.4,8.6,1.4,11.9c1,3.3,2.4,5.8,4.1,7.4c1.7,1.6,3.4,2.6,5,3.2c1.6,0.6,3.3,0.9,4.9,0.9l0.1,0c3.6,0,6.8-1.5,9.7-4.4
			c3-3,5.8-7.7,8.2-14c2.4-6.2,4.3-13.5,5.8-21.7c1.5-8.1,2.7-16.3,3.6-24.4c0.9-7.9,1.6-16.3,2.1-25c7-6.6,15-13.3,23.9-20.1
			c1.1-0.9,1.6-1.2,1.8-1.3l0,0l0,0c0.8-0.6,1.2-1.3,1.3-2.1c0.1-0.7-0.2-1.4-0.7-2.1C622,306.3,621.1,306.1,620.5,306.1z
			 M529.1,256.8c2-4.9,4.1-9.3,6.3-12.9c2.1-3.6,4-6.1,5.4-7.5c1.9-1.9,2.5-1.9,2.6-1.9l0-1.1v1.1c0.2,0,0.4,0,0.7,0.4
			c0.5,0.6,1,2,0.6,5.3c-1,6.5-4.3,15.5-9.8,26.6c-4.8,9.8-10,19.1-15.4,27.7C520.8,281.5,524.1,268.8,529.1,256.8z M481.1,321.7
			C481.1,321.7,481.1,321.7,481.1,321.7c-1.5,0.3-2.7,1-3.7,2.2c-1,1.2-1.4,2.5-1.3,4c0.1,1.1,0.5,2,1.2,2.7c-0.6,0.8-1.3,1.6-2,2.4
			l-0.4,0.4c-0.4,0.5-0.9,0.9-1.5,1.2l0,0c-1.6,1.2-3.3,1.9-5.1,1.9l-0.1,0c-2.2,0-3.9-1.4-5.3-4.2c-1.5-3.1-2.3-7.6-2.5-13.2
			c-0.1-4,0.6-7.6,2.1-10.8c1.4-3.2,3.3-5.6,5.5-7.2c2.2-1.6,4.4-2.4,6.8-2.4l0.1,0c2,0,3.6,1.4,5,4.3c1.1,2.8,1.8,6.3,1.9,10.3
			C482,316.1,481.7,319,481.1,321.7z M567.1,411.5c-1.4,1.5-2.9,2.3-4.3,2.3l0,0c-0.6,0-1.2-0.4-1.9-1.2c-0.8-1-1.5-2.3-2.1-4
			c-0.6-1.7-1.1-3.5-1.4-5.5c-0.1-1.2-0.1-2.5-0.1-3.9c0.2-15.8,8.4-33,24.6-51.3C579.2,382.6,574.2,404,567.1,411.5z"/>
		<path class="st5" d="M796.2,293.4c1.3,0.5,2.6,0.7,3.9,0.7c0.6,0,1.3-0.1,1.9-0.2c2-0.4,3.3-1.4,3.7-2.8c0.5-1.5,0-3-1.3-4.5
			c-1.2-1.4-2.9-2.4-5-3.1c-1.3-0.4-2.6-0.6-3.8-0.6c-0.7,0-1.3,0.1-2,0.2c-1.9,0.4-3.2,1.4-3.7,2.8c-0.5,1.5,0,3,1.3,4.5
			C792.5,291.7,794.2,292.7,796.2,293.4z"/>
		<path class="st5" d="M997.9,299.1c-8.1,0.9-15.3,1.3-21.1,1.3c-2.8,0-5.3-0.1-7.6-0.3c3.9-8.2,9-16.5,15.2-24.7
			c0.8-1.2,1.5-2,1.8-2.4l0.1-0.1l0.1-0.1c1.5-2.5,2.3-4.5,2.2-6.1c0-1.8-0.7-3.2-1.9-4.2c-1-0.9-2.3-1.4-3.7-1.4
			c-0.4,0-0.8,0-1.2,0.1c-1.8,0.3-3.4,1.2-4.7,2.7c-7.9,8.3-15.1,19.7-21.3,33.8c-6.2-2-11.1-5.9-14.3-11.6
			c-0.8-1.3-1.7-1.6-2.4-1.6c-0.5,0-1.1,0.2-1.7,0.5c-1.6,0.9-2,2.5-1.1,4.1c3.9,6.8,9.7,11.5,17.3,14c-4.1,10.1-7.3,21-9.7,32.6
			l-0.1,0.2c-0.3,0.5-0.6,1-1,1.7c-8,12.9-15,22.5-20.8,28.5l-0.6-0.1l-0.1,0.9c-1,1-1.9,1.9-2.7,2.7c-2.2,1.8-3.2,2-3.6,2
			c0,0-0.1,0-0.1,0c-0.1,0-0.2,0-0.2-0.1c-0.1-0.2-0.3-0.9-0.2-2.4c0.1-1.4,0.5-3.2,1.2-5.5c0.7-2.4,1.4-4.4,1.9-6.1
			c0.5-1.6,1.3-3.9,2.4-7.1c2-5.8,3.6-10.2,4.5-13.3c1-3.1,1.7-6.7,2.1-10.8c0.4-4.3,0-7.5-1.4-9.7c-1.4-2.5-3.7-4-6.8-4.5
			c-0.6-0.1-1.2-0.1-1.8-0.1c-8.7,0-17.6,9.5-27,28.9c0.2-4.7,0.7-9.1,1.3-13.1c8-5.1,16.6-14.3,25.6-27.6
			c6.3-9.3,10.9-18,13.6-25.7c0.9-2.2,1.6-4.6,2.1-7.1c0.5-2.8,0.7-5.2,0.4-7.2c-0.6-5.9-3.7-9.3-9.1-10.1c-0.8-0.1-1.6-0.2-2.4-0.2
			c-4.7,0-9.4,2.1-14.1,6.4c-9.2,8.4-16.9,22.7-23,42.3c-3.2,10.3-5.4,20.3-6.6,30.2c-6.3,3.9-12.3,7.9-17.7,11.9
			c1.5-10.2,2.6-19.6,3.4-27.9c0.2-2.8-0.5-5-2-6.7c-1.3-1.4-3-2.1-4.9-2.1l-0.1,0c-2.2,0-4,1-5.3,2.7c-1.8-1.6-4.3-2.5-7.2-2.9
			c-0.6-0.1-1.2-0.1-1.9-0.1c-5.5,0-11.1,2.8-16.7,8.3c-3,3-5.4,6.2-7.2,9.8c-5.6,7.8-10.1,13.6-13.5,17.1l-0.1,0.1l-0.2,0.3
			c-3.8,3.7-5.2,4.6-5.6,4.8c-1.3-0.2-2.3-0.7-3-1.7c-1.2-1.9-1.8-5.1-1.7-9.4c0.1-4.5,0.7-9,1.7-13.5c1-4.5,2.2-8.8,3.6-12.6
			c0.8-2,0.8-3.8,0-5.4c-0.8-1.6-2-2.7-3.7-3.3c-0.9-0.4-1.9-0.5-2.9-0.5c-0.7,0-1.4,0.1-2.1,0.3c-1.9,0.5-3.2,1.6-4,3.3
			c-1.3,3.1-2.6,7.4-3.8,12.7c-0.2,0.9-0.4,1.8-0.6,2.8c-0.7,0.6-1.3,1.2-1.9,1.9c-1.5,1.6-3,3.5-4.5,5.7c-1.5,2.2-2.7,4.1-3.6,5.5
			c-0.9,1.5-2.2,3.6-3.8,6.3c-2.2,3.6-3.8,6.1-4.8,7.6c-4.4,6.6-6.4,7.3-7,7.3l0,0c-0.8,0-1.4-0.4-1.9-1l0,0l0,0
			c-0.8-0.8-1.3-2.2-1.8-4c-0.4-1.9-0.6-4.4-0.6-7.5c0-3.1,0.1-6.1,0.3-8.8c0.2-2.7,0.5-6.4,1-10.9c0.5-4.5,1-8.2,1.4-10.9
			c0.4-2.8,1-6.7,1.7-11.7c1.3-8.7,2.3-15.4,2.8-20c0.6-4.5,1.1-10,1.6-16.3c0.5-6.4,0.4-11.5-0.2-15.3c-0.7-3.9-1.9-6.9-3.6-9
			c-1.7-2.1-3.9-3.2-6.6-3.4c-0.2,0-0.4,0-0.6,0c-5.9,0-11.4,4.8-17,14.6l-0.1,0.1l-0.2,0.2l-0.1,0.2c-3.8,7-7.7,16.6-11.5,28.7
			c-2.2,6.9-4.4,14.8-6.7,23.5c1.7-24.3,1.7-42.4-0.1-53.9c-0.7-4.7-2.3-8.5-4.8-11.4c-2.5-3-5.6-4.6-9.2-4.8
			c-0.6,0-1.3-0.1-1.9-0.1c-9.6,0-16.9,4.3-21.8,12.9c-2.8,5.2-4.6,11.4-5.1,18.5c-0.6,7.1-0.2,13.8,1.1,19.9
			c1.3,6.2,3.1,11,5.5,14.5c0.7,1.1,1.6,1.3,2.2,1.3c0.6,0,1.2-0.2,1.8-0.7c1.5-1.1,1.8-2.6,0.8-4.1c-2.7-3.8-4.5-9.7-5.4-17.3
			c-0.9-7.7-0.4-15.3,1.5-22.6l0-0.1l0-0.1c1.7-4.6,4.1-8.2,7.2-10.6c2.8-2.2,6-3.4,9.4-3.4c0.3,0,0.6,0,0.9,0
			c0.9,0.1,1.8,0.4,2.6,1c0.9,0.7,1.6,1.6,2.1,2.9c0.6,1.3,1,2.8,1.2,4.6l0,0c1.3,8.6,1.3,21.1,0.2,37.1
			c-1.1,16.1-2.4,30.3-3.7,42.2c-1.4,12.1-2.3,19.4-2.7,22.2c-0.8,4.4-0.4,7.4,1.1,9.3c1.1,1.4,2.6,2.2,4.4,2.3c0.1,0,0.2,0,0.3,0
			c0,0,0,0,0,0c3,0,5.1-2.1,6.4-6.2l0-0.1l0-0.5c0.4-1.4,1.1-4.7,2.3-10.3c5.7-27.6,11-49.3,15.8-64.4c3.7-11.5,7.4-20.7,10.9-27.4
			l0.1-0.1l0.1-0.1c4.8-8,6.5-8.2,6.7-8.2c0,0,0,0,0,0c0.5,0,1,0.2,1.3,0.7c1.6,1.9,3.2,7.2,1.5,22.2c-0.3,3.4-1.3,11.4-3.1,23.8
			c-3.3,23.2-5.1,38.4-5.5,45.1c-0.5,8.4,0.4,15.2,2.7,20.2c2.4,5.2,5.5,8,9.2,8.2c0.2,0,0.3,0,0.5,0c5.2,0,10.7-4.7,17-14.4
			l0.2-0.1l0.1-0.1c1-1.6,2.6-4.2,5-8.2c2-3.4,3.7-6.1,4.9-8c0.7-1.1,1.6-2.4,2.6-3.8c-0.1,1.3-0.1,2.5-0.2,3.8
			c-0.1,6.4,0.8,11.5,2.9,15c2.2,3.6,5.3,5.6,9.4,6c0.3,0,0.5,0,0.8,0c4.2,0,9-2.8,14.7-8.7l0.8-0.3l0-0.4c1.5-1.6,3.2-3.6,5.1-6
			c-0.3,5.3,0.7,9.4,2.8,12.4c2.5,3.5,5.6,5.6,9.5,6c0.6,0.1,1.1,0.1,1.7,0.1c5.9,0,11.4-3.6,16.5-10.8l0,0c0.1-0.1,0.1-0.2,0.1-0.2
			v0l0.1-0.1l0.1-0.1c0.2-0.4,0.5-0.7,0.7-1.1c-0.5,3.3-0.9,6.6-1.4,9.8c-22.6,19.3-35.1,38.6-37.2,57.3c-0.5,4.6-0.5,8.6,0.2,11.9
			c0.7,3.4,1.8,6,3.3,7.8c1.5,1.7,3.1,3,4.6,3.7c1.5,0.7,3.1,1.2,4.9,1.4c0.5,0.1,1,0.1,1.4,0.1c3.1,0,6.1-1.2,8.8-3.5
			c4.4-3.5,8.5-10.2,12.4-19.8c3.8-9.5,7-19.6,9.4-29.8c2.4-10,4.5-21.1,6.4-32.9c5.7-4.2,11.8-8.5,18.4-12.7
			c-0.5,6.3-0.5,12.5-0.1,18.6c0.3,5.1,2.8,6.5,4.9,6.8l0.2,0l0,0c0.2,0,0.4,0,0.5,0c1.5,0,3-0.5,4.5-1.6l0,0c1.3-1,2-2.2,2.3-3.6
			c4.5-10.9,9-19.7,13.6-26.3c5.1-7.4,8-9,9.5-9c0.1,0,0.2,0,0.3,0c0.1,0,0.2,0,0.2,0.1l0,0.1c0.2,0.4,0.5,1.1,0.4,2.7
			c0,1.4-0.3,3.3-1,5.6c-0.6,2.4-1.2,4.5-1.7,6.2c-0.5,1.7-1.2,4.1-2.2,7.1c-1.8,5.6-3.1,9.9-3.9,12.9c-0.8,3-1.4,6.5-1.7,10.3
			c-0.3,4.1,0.1,7.1,1.4,9.2c1.3,2.2,3.4,3.5,6.1,3.9c0.4,0.1,0.8,0.1,1.3,0.1c3.2,0,6.8-1.7,10.9-5.3l0.3-0.3l0,0
			c0.9-0.7,1.7-1.5,2.5-2.4c4.7-4.8,10.3-12,16.6-21.5c-0.8,8.3-0.4,15.6,1.1,21.6c2.3,9.5,6.3,14.8,11.9,16
			c0.4,0.1,0.8,0.1,1.3,0.1c3.9,0,7.9-3.5,12.2-10.6l0.5,0.1l0.2-1.1c1.3-2.3,3.4-6.2,6.3-11.6c4.3-8.4,7.7-14.4,10.2-17.8l0,0l0,0
			c0.9-1.5,0.6-3-0.8-4c-0.6-0.4-1.2-0.6-1.7-0.6c-0.6,0-1.5,0.2-2.4,1.4c-2.5,3.5-6.1,9.8-10.6,18.5c-2.9,5.5-5.1,9.4-6.4,11.6
			c-2.7,4.4-3.9,5.1-4.1,5.2c-0.1,0-0.1-0.1-0.3-0.2c-0.2-0.2-0.5-0.5-0.8-1c-0.3-0.5-0.7-1.2-1.1-1.9c-0.4-0.7-0.7-1.7-1-2.9
			c-0.3-1.3-0.6-2.7-0.9-4.2c-0.3-1.5-0.4-3.4-0.4-5.5c0-2.2,0-4.5,0.1-7c0.1-2.5,0.3-5.3,0.8-8.5c0.4-3.2,1-6.6,1.7-10.3
			c2.3-11.4,5.4-22,9.3-31.5c3,0.3,6.5,0.5,10.3,0.5c6.1,0,13.3-0.4,21.4-1.2C1002.7,304.6,1001.3,298.8,997.9,299.1z M898.2,298.6
			c3-8,6.2-15,9.5-20.9c3.3-5.8,6.7-10.6,10.2-14.2c3-3.1,5.4-4.6,7.3-4.6c0.2,0,0.3,0,0.5,0c0,0,0.1,0.1,0.2,0.2
			c0.5,0.9,1,3,0.2,7.6c-0.4,1.7-0.9,3.6-1.6,5.4l-0.3,0.4l-0.1,0.5c-2.7,7.2-7,15.2-12.9,23.9c-6.5,9.6-13,17.2-19.2,22.4
			C893.6,312.6,895.6,305.6,898.2,298.6z M821.1,424.2c-1.4,1.2-2.8,1.8-4.1,1.8c-0.2,0-0.3,0-0.5,0c-0.9-0.1-1.8-1.3-2.7-3.3
			c-1-2.3-1.5-5-1.5-8c0-1.2,0.1-2.5,0.3-3.9c1.8-15.7,11.8-32,29.7-48.5C836.1,396.7,829,417.5,821.1,424.2z M847.6,326.3
			c-0.1,0.3-0.2,0.5-0.2,0.7c-2.9,6.1-5.5,10.7-7.6,13.7l-0.2,0.2l0,0.2c-0.9,1.3-1.9,2.5-3,3.5c-1.1,1.1-2.3,1.9-3.5,2.6
			c-0.9,0.5-1.8,0.8-2.5,0.8c-0.1,0-0.2,0-0.3,0c-0.7-0.1-1.4-1.1-2.1-2.7c-0.8-2-1-4.7-0.6-8.1c0.7-6.3,2.8-11.4,6.2-15.1
			c3.4-3.7,6.8-5.8,10.1-6.3c0.5-0.1,0.9-0.1,1.3-0.1c1.5,0,2.6,0.4,3.2,1.4L847.6,326.3z"/>
	</g>
	<g>
		<polygon class="st5" points="553.3,490.4 561.7,478.8 549.2,487.1 544.9,446.6 541.4,485.4 532.6,477.5 540,490.2 501.9,493.6 
			539.1,497 528.9,509.4 541.8,501.5 545.1,550.5 549.7,500.4 562.1,508.8 552.4,496.7 595.3,493.7 		"/>
		<polygon class="st5" points="394.8,545.7 399.7,538.8 392.3,543.7 389.8,519.6 387.7,542.7 382.5,538 386.9,545.6 364.2,547.6 
			386.3,549.6 380.2,557 387.9,552.3 389.9,581.5 392.6,551.6 400,556.7 394.2,549.5 419.7,547.6 		"/>
		<polygon class="st5" points="730.4,452.1 735.3,445.2 727.9,450.1 725.3,426 723.3,449.1 718.1,444.4 722.4,452 699.8,454 
			721.9,456 715.8,463.4 723.5,458.7 725.5,487.9 728.2,458.1 735.6,463.1 729.8,455.9 755.3,454 		"/>
		<polygon class="st5" points="864.7,545.7 869.7,538.8 862.3,543.7 859.7,519.6 857.7,542.7 852.4,538 856.8,545.6 834.1,547.6 
			856.3,549.6 850.2,557 857.9,552.3 859.8,581.5 862.6,551.6 869.9,556.7 864.2,549.5 889.7,547.6 		"/>
		<polygon class="st5" points="1001.1,474.5 976.2,472.6 981.1,465.7 973.7,470.6 971.1,446.5 969.1,469.6 963.8,464.9 968.2,472.5 
			945.6,474.5 967.7,476.5 961.6,483.9 969.3,479.1 971.3,508.3 974,478.5 981.4,483.5 975.6,476.3 		"/>
		<polygon class="st5" points="272.5,464 277.5,457.1 270.1,462 267.5,437.9 265.4,461 260.2,456.3 264.6,463.9 241.9,465.9 
			264.1,467.9 258,475.3 265.7,470.6 267.6,499.8 270.4,469.9 277.7,475 272,467.8 297.5,465.9 		"/>
		<polygon class="st5" points="152.2,560.7 157.1,553.8 149.7,558.7 147.1,534.6 145.1,557.7 139.9,553 144.3,560.6 121.6,562.6 
			143.7,564.6 137.6,572 145.3,567.3 147.3,596.5 150,566.7 157.4,571.7 151.6,564.5 177.1,562.6 		"/>
	</g>
</g>
</svg>
