<?xml version="1.0" encoding="utf-8"?>
<!-- Generator: Adobe Illustrator 23.0.3, SVG Export Plug-In . SVG Version: 6.00 Build 0)  -->
<svg version="1.1" id="Layer_1" xmlns="http://www.w3.org/2000/svg" xmlns:xlink="http://www.w3.org/1999/xlink" x="0px" y="0px"
	 viewBox="0 0 1133.9 1133.9" style="enable-background:new 0 0 1133.9 1133.9;" xml:space="preserve">
<style type="text/css">
	.st0{fill:#1E2121;}
	.st1{fill:#A81F26;}
	.st2{fill:#F2F1F2;}
	.st3{fill:#DD353A;}
	.st4{fill:#CFCFCE;}
	.st5{fill:#1D2121;}
	.st6{fill:none;}
	.st7{fill:#AA1F23;}
	.st8{fill:#FDFEFE;}
	.st9{fill:#EE742C;}
	.st10{fill:#BA5234;}
	.st11{fill:#ED1C24;}
	.st12{fill:#C42C3A;}
	.st13{fill:#058743;}
	.st14{fill:#0F4D70;}
	.st15{fill-rule:evenodd;clip-rule:evenodd;fill:#C42C3A;}
	.st16{fill-rule:evenodd;clip-rule:evenodd;fill:#1E2121;}
	.st17{fill:#E8E8E8;}
	.st18{fill:#186634;}
	.st19{fill:#BF2730;}
	.st20{fill:#B47A48;}
	.st21{fill:#3E1E14;}
	.st22{fill:#DBAD5D;}
	.st23{fill:#B84947;}
	.st24{fill:#C3976E;}
	.st25{fill:#9D2023;}
	.st26{fill:#3C2517;}
	.st27{fill:#4A3A31;}
	.st28{fill:#EDAD4F;}
	.st29{fill:#F8C018;}
</style>
<g>
	<g>
		<path class="st12" d="M207.9,387.6c0.4,5.1,1,10,1.8,14.8c1.2,8.4,4.5,12.3,9.8,11.9c5.1-0.2,8.2-4.4,9.1-12.5
			c0.9-8.1,2.1-16.2,3.4-24.1c1.3-7.9,2.8-15.8,4.6-23.7c2-9.2,4.2-18.5,6.4-27.7c2.3-9.2,5.3-18,9.2-26.4c1.4-3.1,2.9-5.9,4.6-8.6
			c1.6-2.6,3.5-4.9,5.7-6.9c1.7-1.5,3.1-2.1,4.1-1.8c1,0.3,2,1.7,2.9,4.1c0.8,1.5,1.4,3.2,1.9,4.9c0.5,1.8,0.9,3.5,1.2,5.3
			c1.4,7.5,2.3,15,2.8,22.6c0.5,7.6,0.8,15.2,0.9,22.9c0.2,7.3,0.3,14.5,0.4,21.8c0.1,7.3,0.4,14.6,1,22.1c0.5,5.1,1.2,10.1,2.1,15
			c0.9,4.9,2.5,9.5,4.7,13.7c2.5,4.8,5.6,7.7,9.5,8.7c3.8,1,7.5-0.2,11.1-3.5c1.7-1.5,3.2-3.3,4.6-5.3c1.3-2,2.5-4,3.6-5.9
			c3.6-6.8,6.6-14,9.1-21.6c2.5-7.6,4.8-15.2,7-22.9c0.8-3.1,1.6-6.3,2.4-9.5c4.4,4.7,9.3,7.3,14.7,7.9c6.3,0.7,12.5-1.4,18.6-6.3
			c2.6-2.2,5-4.7,7.1-7.6c2.1-2.9,4.1-5.8,6-8.9c0.8-1.5,1.5-3,2.2-4.4c0.7-1.4,1.4-2.8,2.2-4.2c0.3,3.5,0.5,7.1,0.7,10.5
			c0.2,3.5,0.3,7,0.5,10.5c0.5,4.1,1,8.1,1.5,12.2c0.5,4.1,1.6,8,3.2,11.9c0.9,2.4,2.2,4.5,3.7,6.5c1.6,1.9,3.5,3.4,5.8,4.4
			c3.6,1.7,7,2,10.2,1c3.2-1,6.2-2.9,9-5.6c2.8-2.5,5.2-5.4,7.2-8.5c2-3.1,3.9-6.4,5.6-9.8c3.3-6.8,6.3-13.6,9.2-20.4
			c0.3-0.6,0.5-1.3,0.8-2c1.1,3.2,2.5,6.3,4.2,9.3c4.2,7.3,9.6,11.4,16.3,12.5c6.7,1.1,13-1.1,18.9-6.7c2-2,3.9-4.1,5.7-6.2
			c1.8-2.1,3.4-4.3,4.8-6.7c1.4-2.2,2.8-4.4,4.1-6.6c1.3-2.2,2.8-4.5,4.3-6.8c0,0.8,0,1.6,0,2.3c0,0.7-0.1,1.3-0.2,1.8
			c-0.6,5.1-0.8,10.1-0.5,15.2c0.3,5.1,0.8,10.1,1.4,14.9c0.5,4.4,1.3,8.7,2.5,12.8c1.2,4.1,3.1,8,5.7,11.5c2.6,3.5,5.8,5.8,9.6,6.8
			c3.7,1,7.5,0.6,11.4-1.3c4.4-2,8.3-5.2,11.9-9.6c4.7-5.9,8.7-12.2,12-19c3.3-6.8,6.4-13.7,9.2-20.8c0.6-1.4,1.2-2.8,1.8-4.2
			c0.8,0.8,1.7,1.5,2.6,2.2c4.7,3.4,9.8,5.1,15.4,4.9c5.6-0.2,11-2.3,16.1-6.5c2.8-2.3,5.4-4.9,7.8-7.7c2.4-2.8,4.8-5.6,7.1-8.4
			c3.3-4.2,6.4-8.6,9.5-13.1c3-4.5,6-9.1,8.8-13.8c0.2,3,0.3,6,0.5,9.1c0.2,3,0.4,6.1,0.7,9.3c0.2,2.2-0.8,3.9-2.8,5.3
			c-4.7,3.5-9.4,7.1-14.1,10.7c-4.7,3.6-9.5,7.3-14.1,10.9c-5.8,5-11.2,10.4-16.2,16c-5.1,5.6-9.5,12-13.2,19.2
			c-3.3,6.2-5.8,12.7-7.7,19.4c-1.9,6.7-2.3,13.7-1.4,21.1c0.6,5.5,2.7,10.5,6.3,15c3.6,4.4,7.9,7.3,13.1,8.4c5,1.2,9.8,1.2,14.5,0
			c4.7-1.2,9.1-3.2,13.3-6c5.9-4,10.9-8.9,14.9-14.6c4-5.7,7.7-11.7,11-18.1c5.3-10.4,9.1-21.2,11.6-32.3
			c2.4-11.2,3.5-22.7,3.4-34.6c0-2.2,0.3-4.1,0.9-5.7c0.6-1.6,1.9-3,3.7-4.2c2.6-1.6,5-3.4,7.5-5.3c0.1,5.2,0.2,10.4,0.5,15.6
			c0.5,9.3,0.9,18.6,1.4,27.9c0.3,3.2,1.2,5.9,2.8,8c1.6,2.1,3.7,3.3,6.3,3.4c5.8,0.5,9.3-2.8,10.7-9.9c1.9-8.8,4-17.5,6.4-26.1
			c2.4-8.6,5.2-17.1,8.3-25.6c2.2-5.6,4.7-10.9,7.6-16c2.9-5.1,6.4-9.6,10.6-13.7c1.2-1.2,2.1-1.7,2.6-1.5c0.5,0.2,0.9,1.1,1.4,2.8
			c1.1,3.9,1.8,7.9,2.1,11.9c0.3,4.1,0.6,8.1,0.9,12.2c0.3,7.3,0.5,14.6,0.7,21.9c0.2,7.3,0.4,14.7,0.7,21.9
			c0.2,4.2,0.5,8.4,1.1,12.4c0.5,4.1,1.7,8,3.4,11.9c3.1,7.1,7.5,11.2,13.3,12.3c5.8,1.1,11.2-1.1,16.3-6.7c2-2.2,3.7-4.6,5.1-7.1
			c1.4-2.5,2.6-5.1,3.7-7.9c2.5-5.8,4.8-11.7,6.9-17.7c0.2,1.4,0.5,2.9,0.8,4.3c1.2,6.1,2.8,12.1,4.6,18c1.8,5.9,4.4,11.4,7.8,16.5
			c5,7.8,10.9,11.9,17.6,12.5c6.8,0.6,13.3-2.3,19.5-8.7c3-3,5.5-6.4,7.7-10.1c2.2-3.7,4.2-7.5,6.1-11.4c4.1-8.8,7.5-17.8,10.2-27
			c2.9,3.6,6.3,6.1,10.4,7.5c6.5,2.3,13.1,1.3,20-2.9c2.8-1.7,5.4-3.6,7.7-5.8c2.3-2.2,4.5-4.6,6.5-7.3c2.5-3.2,4.8-6.5,6.9-9.9
			c2.1-3.4,4.2-6.8,6.4-10.1c-0.3,5.7-0.9,11.5-1.6,17.2c-0.8,5.7-1.7,11.5-2.8,17.2c-0.2,0.8-0.5,1.4-1.2,1.8
			c-0.6,0.3-1.2,0.7-1.9,1c-4.2,2.2-8.5,4.4-12.8,6.5c-4.4,2.1-8.6,4.4-12.8,7c-6.7,3.9-12.9,8.4-18.6,13.4
			c-5.7,5.1-10.3,11.3-13.9,18.7c-3.1,6.4-4.7,12.7-4.7,19c0,6.2,1.9,12.4,5.8,18.5c3,4.4,6.7,7.5,11.1,9.4c4.4,1.9,9.1,2.4,14,1.8
			c4.9-0.7,9.3-2.5,13.2-5.6c4-3,7.7-6.5,11-10.4c3.3-3.9,6.2-8.1,8.9-12.7c4.4-7.4,7.8-15.3,10.4-23.7c2.6-8.4,4.9-16.8,6.9-25.2
			c0.8-2.9,2.3-5,4.7-6.3c6.4-4.1,12.5-8.5,18.3-13.4c5.8-4.9,11.2-10.4,16.2-16.5c2-2.4,3-5,2.9-7.9c-0.1-2.9-1.1-5.3-2.9-7.3
			c-2-2-4.4-2.9-7-2.5c-2.6,0.3-5.1,1.8-7.2,4.3c-1.2,1.4-2.5,2.7-3.7,4.2c-1.2,1.4-2.6,2.8-4,4.2c-1.7,1.7-3.5,3.4-5.3,5.1
			c-1.8,1.7-3.9,3.2-6.2,4.6c0.6-4.7,1.2-9.3,1.6-13.8c0.5-4.5,0.9-8.9,1.2-13.3c0.6-6.9,1-13.9,1.1-20.9c0.1-7,0-14.1-0.1-21.2
			c0-0.8-0.2-2-0.5-3.5c-0.6-2.2-1.6-4-2.9-5.4c-1.3-1.4-3.1-2.2-5.3-2.4c-3.9-0.5-7,1.4-9.3,5.6c-1.2,2.2-2.3,4.5-3.3,6.8
			c-0.9,2.4-1.9,4.7-3,7.1c-3.1,7.4-6.4,14.8-9.9,22.2c-3.5,7.3-7.6,14.3-12.3,20.9c-1.6,2.4-3.3,4.5-5.1,6.5
			c-1.9,1.9-4,3.6-6.3,4.9c-3,1.7-5.3,1-7-2c-0.8-1.3-1.4-2.7-1.9-4.1c-0.5-1.3-0.9-2.7-1.2-4.1c-1.9-7.8-2.7-15.5-2.5-23.2
			c0.2-7.7,0.7-15.3,1.3-22.9c0.3-2,0.5-4,0.7-6c0.2-1.9,0.3-3.8,0.5-5.7c0-3-0.8-5.6-2.3-7.6c-1.6-2-3.6-3.2-6.1-3.5
			c-2.5-0.2-4.7,0.7-6.8,2.5c-2,1.9-3.2,4.2-3.5,7.1c-0.8,8.1-1.5,16.3-2.1,24.4c-0.5,7.2-0.5,14.5,0,21.8c-0.2,1-0.5,1.9-0.8,2.8
			c-1.7,7.9-3.7,15.8-5.8,23.6c-2.2,7.8-4.8,15.3-7.9,22.5c-1.7,4.1-3.5,7.9-5.5,11.5c-1.9,3.6-4.4,7-7.4,10
			c-1.7,1.7-3.1,2.5-4.1,2.4c-1-0.1-2.1-1.1-3.4-3.2c-1.7-2.5-3.1-5.1-4.2-7.9c-1.1-2.7-2-5.5-2.8-8.4c-2.6-9.5-4.5-19-5.6-28.6
			c-1.1-9.6-1.8-19.3-2.1-29.1c-0.3-11.3-0.3-22.6,0-33.9c0.3-11.3,1.1-22.5,2.3-33.7c0.3-2.2,1.4-3.3,3.3-3.3
			c4.4,0.2,8.6,0.3,12.8,0.3s8.5-0.1,12.8-0.3c4.2,0,8.4,0,12.7,0.1c4.3,0.1,8.6,0,13-0.1c2.8,0,5.1-1.1,6.8-3.2
			c1.7-2.1,2.5-4.8,2.3-8c-0.2-2.7-1.1-4.9-2.9-6.5c-1.8-1.6-4.1-2.4-6.9-2.4c-7.9,0-15.8,0-23.6,0c-7.8,0-15.6,0-23.6,0
			c-2,0-3.2-0.2-3.4-0.5c-0.2-0.3-0.3-1.6-0.1-3.8c0.3-1.7,0.6-3.4,0.8-5.2c0.2-1.8,0.4-3.6,0.6-5.4c0.2-3-0.6-5.6-2.2-7.6
			c-1.6-2-3.7-3.1-6.2-3.3c-2.3-0.3-4.5,0.3-6.4,2c-1.9,1.7-3.2,4-3.6,6.8c-0.5,1.9-0.8,3.8-1.1,5.7c-0.2,1.9-0.5,3.8-0.8,5.7
			c-0.5,2.5-0.9,4-1.3,4.4c-0.4,0.4-1.8,0.6-4.1,0.6c-4.2,0-8.4,0-12.7-0.1c-4.3-0.1-8.5,0-12.7,0.1c-3.7,0-6.6,1.6-8.5,4.7
			c-1.9,3.1-2.1,6.4-0.6,9.8c1.9,4.1,4.9,6.1,9.1,6.1c4,0,8.1,0,12.1,0.1c4,0.1,8.1,0,12.1-0.1c1.2,0,2.1,0.2,2.7,0.6
			c0.5,0.4,0.7,1.4,0.6,2.9c-0.5,6.3-0.9,12.5-1.4,18.7c-0.5,6.3-0.7,12.5-0.7,18.7c0,6.8,0,13.5-0.1,20.1c0,2.2,0,4.4,0,6.6
			c-0.3,0.5-0.6,1-0.8,1.5c-0.5,1.1-0.9,2.2-1.2,3.4c-2,7.8-4.2,15.5-6.5,23.2c-2.3,7.7-4.9,15.2-7.7,22.7c-0.9,2.4-1.9,4.8-2.9,7.2
			c-1,2.5-2.1,4.8-3.4,7c-0.3,0.2-0.5,0.4-0.7,0.8c-0.2,0.3-0.4,0.5-0.7,0.5c-0.5-0.2-0.7-0.4-0.8-0.8c-0.1-0.3-0.2-0.7-0.4-1
			c-0.6-2.4-1.1-4.8-1.3-7.3c-0.2-2.5-0.4-5.1-0.4-7.6c-0.3-8.8-0.6-17.6-0.8-26.3c-0.2-8.8-0.7-17.6-1.3-26.3
			c-0.3-4.2-0.8-8.4-1.5-12.7c-0.7-4.2-1.9-8.3-3.6-12.2c-3.7-8.9-9.7-13-18-12.2c-2,0.2-4,0.8-5.8,1.8c-1.9,1-3.7,2.2-5.4,3.5
			c-3.1,2.4-5.9,5.1-8.4,8.1c-2.5,3-4.8,6.3-7,9.6c-2.2,3.4-4.2,6.9-6,10.6c-1.8,3.7-3.5,7.6-5,11.7c0.2-7.3,0.4-14.4,0.6-21.4
			c0.2-7,0.6-14,1.1-20.9c0.3-4.9,0.7-9.8,1.1-14.8c0.4-5,0.8-9.9,1.3-14.8c0.3-4.7,0.7-9.4,1.3-14.1c0.5-4.6,0.8-9.3,0.8-14.1
			c0-2.9-0.8-5.2-2.5-7.1c-1.6-1.9-3.7-2.9-6.2-3c-2.5,0-4.7,0.9-6.7,2.8c-1.9,1.9-3,4.1-3.2,6.8c-0.6,8.1-1.3,16.1-2.1,24.1
			c-0.8,7.9-1.5,16-2.1,24.1c-0.6,9-1.1,18-1.5,27.1c-0.2,4.2-0.3,8.4-0.5,12.6c-0.2,0.2-0.4,0.5-0.6,0.7c-1.4,1.8-3,3.5-4.8,4.9
			c-1.8,1.4-3.6,2.8-5.5,4.2c-1.4,1.2-2.1,0.8-2.1-1.3c-0.3-3.2-0.5-6.4-0.7-9.7c-0.2-3.3-0.4-6.5-0.7-9.7c-0.9-8.6-2-16.9-3.3-24.9
			c-0.5-2.7-1.5-4.8-3-6.4c-1.6-1.6-3.5-2.3-5.8-2.1c-1.9,0.2-3.5-0.1-5-0.8c-1.5-0.7-2.9-1.6-4.3-2.8c-0.6-0.3-1.2-0.7-1.9-1
			c-0.6-0.3-1.2-0.7-1.9-1c-7.6-3.2-15-4.2-22.1-2.9c-7.1,1.3-13.9,4.3-20.4,9.2c-7,5-12.5,11.2-16.5,18.4c-4,7.2-7,15.1-9,23.6
			c-1.4,5.9-2.2,11.7-2.3,17.5c0,0.5,0,1.1,0,1.6c0,0.1-0.1,0.2-0.1,0.3c-0.2,0.6-0.4,1.2-0.6,1.9c-2.3,7.8-5,15.3-8.1,22.7
			c-3,7.3-6.4,14.6-10.2,21.7c-1.2,2.4-2.5,4.6-3.9,6.7c-1.3,2.1-2.8,4.2-4.6,6.2c-1.7,1.9-2.9,2.7-3.6,2.7
			c-0.7-0.1-1.4-1.4-2.2-3.9c-0.6-2-1.1-4-1.4-5.8c-1.4-9.1-1.9-18.2-1.5-27.1c0.4-9,1-17.9,1.8-26.9c0.6-6.8,1.3-13.4,2-19.9
			c0.7-6.5,1.6-13,2.7-19.6c0.6-4.1-0.9-7.3-4.4-9.9c-3.1-2.2-6.4-2.2-9.8,0c-3.3,2.4-5.4,5.2-6.5,8.6c-1.1,2.7-2.1,5.4-3,8
			c-0.9,2.6-1.9,5.3-3,8c-2.3,6.8-4.9,13.5-7.8,20.1c-2.9,6.7-6.2,13.1-9.9,19.4c-1.4,2.4-2.9,4.8-4.4,7.2c-1.6,2.5-3.3,4.7-5.4,6.7
			c-2.2,2.5-4,3.7-5.4,3.4c-1.4-0.3-2.8-1.9-4.2-4.9c-1.6-3.4-2.6-6.8-3.3-10.4c-0.6-3.5-1-7.2-1.2-10.9c-0.3-7.8-0.4-15.6-0.2-23.4
			c0.2-7.9,0.7-15.7,1.6-23.7c0.3-3.2-0.3-6-1.8-8.4c-1.5-2.4-3.6-3.7-6.4-4.1c-2.6-0.3-5,0.6-7.1,2.7c-2.1,2.1-3.2,4.7-3.4,7.7
			c-0.8,8.6-1.4,17.2-1.9,25.8c-0.2,3.4-0.2,6.8-0.2,10.3c-0.8,0.7-1.5,1.5-2.1,2.5c-0.5,0.8-0.9,1.8-1.3,2.8c-0.4,1-0.8,2-1.3,3
			c-2.3,6.8-4.8,13.5-7.5,20.1c-2.6,6.7-5.5,13.2-8.6,19.6c-0.9,2-2,4.1-3.2,6.1c-1.2,2-2.5,4-4.1,5.8c-0.2,0.3-0.4,0.7-0.7,1.1
			c-0.3,0.4-0.7,0.5-1.2,0.4c-0.5,0-0.7-0.3-0.8-0.8c-0.1-0.5-0.1-0.9-0.1-1.3c-0.3-1.2-0.6-2.4-0.8-3.7c-0.2-1.3-0.4-2.6-0.6-3.9
			c-1.1-7.8-1.5-15.5-1.3-23.2c0.2-7.7,0.5-15.4,0.8-23.2c0-2.4,0.1-4.7,0.2-7c0.2-2.3,0.3-4.6,0.5-7c0.3-4.4,0.6-8.7,0.9-13
			c0.3-4.3,0.4-8.7,0.2-13c-0.2-2.7-1.2-5-3.2-7c-1.9-1.9-4.2-2.7-6.7-2.4c-3,0.3-5.8-0.3-8.6-1.8c-1.7-1-3.4-1.7-5.1-2
			c-9.8-2.2-18.7-1.6-26.7,1.6c-8,3.3-15.2,8.9-21.6,16.8c-5.3,6.8-9,14-11.2,21.8c-2.2,7.8-3,16-2.6,24.6c0.1,1.8,0.3,3.6,0.5,5.3
			c-0.6,1-1,2-1.4,3.3c-0.3,0.9-0.6,1.8-0.8,2.8c-0.2,1-0.4,1.9-0.6,2.8c-1.7,7.3-3.5,14.5-5.5,21.6c-1.9,7.1-4.2,14.1-6.7,20.9
			c-0.8,2.4-1.7,4.8-2.7,7.3c-1,2.4-2.2,4.8-3.6,7.3c-0.9-3.5-1.5-7-1.8-10.4c-0.2-3.4-0.4-6.8-0.6-10.1
			c-0.5-10.1-0.7-20.2-0.8-30.3c-0.1-10.1-0.5-20.2-1.3-30.3c-0.5-6.6-1.2-13.1-2.2-19.5c-1-6.4-2.7-12.5-5-18.5
			c-4.4-10.3-9.8-16.4-16.3-18.1c-6.5-1.8-13.2,1-20.1,8.2c-3.1,3.5-5.9,7.4-8.4,11.7c-2.5,4.3-4.7,8.9-6.8,13.7
			c-2,4.6-3.9,9.4-5.5,14.3c-1.6,4.9-3.2,9.9-4.8,15c0-2.9,0-5.8-0.1-8.9c-0.1-3.1,0-6,0.1-8.9c0.3-7,0.7-14,1.1-20.9
			c0.4-6.9,0.8-13.8,1.3-20.6c0.2-4-0.6-7.3-2.2-9.9c-1.6-2.6-3.7-4.1-6.2-4.3c-2.8-0.2-5.1,0.8-6.9,3c-1.8,2.2-2.9,5.3-3.4,9.2
			c-1.6,16-2.4,32.5-2.6,49.5c0,11,0,22,0,33c0,11,0.5,22,1.4,33C207.1,377.6,207.5,382.6,207.9,387.6z M627.5,369.9
			c-2.2,8.4-5,16.4-8.5,24c-3.5,7.6-8.1,14.6-13.9,21c-1.7,1.8-3.6,3.5-5.6,5c-2,1.5-4.2,2.6-6.5,3.3c-4.2,1.3-7.4,1.1-9.5-0.8
			c-2.1-1.8-3.1-5.6-2.9-11.3c0.3-5,1.6-10.1,3.9-15.2c2.3-5.1,5-10.1,8.3-15c5-6.9,10.6-12.9,16.8-18.1
			c6.2-5.2,12.6-10.2,19.1-15.1c1.1-0.8,1.7-1,1.9-0.5c0.2,0.5,0.2,1.2,0.2,2C630.3,356.2,629.2,363,627.5,369.9z M888.5,402.9
			c-3,7.3-7.2,13.8-12.5,19.5c-0.9,1-1.9,2-3,2.9c-1.1,0.9-2.2,1.7-3.3,2.4c-1.7,1-3.5,1.6-5.3,1.9c-1.8,0.3-3.5-0.4-5.3-1.9
			c-1.6-1.2-2.6-2.7-3-4.7c-0.5-1.9-0.5-3.9-0.2-6c0.3-1.7,0.8-3.3,1.5-4.8c0.7-1.5,1.4-3,2.2-4.6c4.5-6.9,10-12.4,16.3-16.5
			c6.4-4.1,13.2-7.9,20.5-11.4C894.2,388,891.5,395.6,888.5,402.9z M576.8,287.5c2.8-7.5,7.7-13.8,14.7-19c3.3-2.3,6.7-4,10.3-4.9
			c3.6-0.9,7.3-0.9,11.2,0.1c2,0.7,3.7,1.5,4.9,2.5c2.3,2.2,3,4.7,1.9,7.5c-6.8,17.9-16.7,34-29.6,48c-0.9,0.8-1.9,1.7-2.8,2.6
			c-0.9,0.9-1.9,1.7-3,2.4c-4,2.7-7.4,1.8-10-2.5c-1.9-3-2.9-7.4-3-13.1C572.2,302.9,574,295,576.8,287.5z M344.8,291.2
			c5-7.4,11.4-12.2,19.1-14.4c2.6-0.8,5.3-1.2,7.9-1c2.6,0.2,5.2,1,7.7,2.5c1.6,0.8,2.1,2.1,1.6,3.8c-2.8,8.1-5.7,16.1-8.8,24.1
			c-3,7.9-6.6,15.6-10.6,23.1c-1.1,2-2.3,3.9-3.5,5.6c-1.2,1.7-2.6,3.2-4.2,4.6c-2.3,2.2-4.3,3.2-6,3c-1.6-0.2-3.4-1.6-5.3-4.3
			c-2-3.2-3.5-6.6-4.3-10.1c-0.9-3.5-1.3-7.3-1.3-11.1C337.3,307.2,339.8,298.7,344.8,291.2z"/>
		<path class="st12" d="M641.9,798.9c-2.4,2.3-3.6,5.2-3.6,8.6c0,3,1,5.5,3.1,7.6c2.1,2.1,4.6,3.1,7.5,3.1c3.1,0,5.7-1.1,7.9-3.4
			c2.2-2.2,3.2-5,3.2-8.1c0-3-1-5.6-3-7.9c-2-2.2-4.3-3.4-6.9-3.4C647.1,795.4,644.3,796.6,641.9,798.9z"/>
		<path class="st12" d="M944.3,862.5c-1.7,0.9-3.4,2.4-4.9,4.5c-1.6,2.1-3.3,3.9-5.3,5.5c-2,1.6-4,3.1-6.1,4.6
			c-1.6,1.3-2.3,0.8-2.3-1.4c-0.3-3.6-0.6-7.2-0.8-10.8c-0.2-3.6-0.4-7.2-0.8-10.8c-1-9.5-2.2-18.8-3.6-27.8c-0.5-3-1.6-5.4-3.4-7.2
			c-1.7-1.8-3.9-2.6-6.5-2.4c-2.1,0.2-3.9-0.1-5.6-0.8c-1.6-0.7-3.2-1.8-4.8-3.1c-0.7-0.4-1.4-0.7-2.1-1.1c-0.7-0.4-1.4-0.7-2.1-1.1
			c-8.4-3.6-16.6-4.6-24.4-3.2c-7.8,1.4-15.4,4.8-22.6,10.2c-7.8,5.6-13.8,12.4-18.2,20.5c-4.4,8-7.7,16.8-10,26.4
			c-1.4,6.1-2.3,12.1-2.5,18.1c-0.3,0.6-0.5,1.3-0.7,1.9c-0.3,0.8-0.5,1.6-0.6,2.4c-1.9,6.2-3.9,12.3-6.1,18.4
			c-2.2,6.1-4.6,12-7.4,17.8c-0.9,2.1-1.9,4.1-3,6.2c-1.1,2.1-2.5,4.1-4,6.2c-1-3-1.7-5.9-1.9-8.8c-0.3-2.9-0.5-5.8-0.6-8.6
			c-0.5-8.6-0.8-17.2-0.9-25.8c-0.1-8.6-0.6-17.2-1.4-25.8c-0.5-5.6-1.3-11.1-2.5-16.6c-1.1-5.4-3-10.7-5.6-15.7
			c-4.8-8.8-10.9-13.9-18.1-15.4c-7.2-1.5-14.6,0.8-22.2,7c-3.4,3-6.6,6.3-9.3,10c-2.8,3.6-5.3,7.5-7.5,11.6
			c-2.2,3.9-4.3,8-6.1,12.2c-1.8,4.2-3.6,8.5-5.3,12.8c0-2.4,0-5-0.1-7.6c-0.1-2.6,0-5.1,0.1-7.6c0.3-6,0.7-11.9,1.2-17.8
			c0.4-5.9,0.9-11.7,1.4-17.5c0.2-3.4-0.6-6.2-2.5-8.4c-1.8-2.2-4.1-3.5-6.9-3.6c-3.1-0.2-5.6,0.7-7.6,2.5c-2,1.9-3.2,4.5-3.7,7.9
			c-1.7,13.7-2.7,27.7-2.8,42.1c0,5.1,0,10.2,0,15.3c-0.3,0.6-0.5,1.2-0.8,1.8c-1.4,3.9-2.7,7.9-3.9,11.8c-1.2,3.9-2.6,7.8-4.1,11.5
			c-2.4,5.8-5,11.5-7.8,17c-2.8,5.5-6.2,10.6-10.3,15.3c-2.6,3-4.5,4.3-5.8,3.9c-1.3-0.4-2.6-2.4-4-6.2c-1.7-5-2.9-10.2-3.5-15.4
			c-0.6-5.2-1-10.6-1.2-16c-0.3-8.8-0.1-17.5,0.8-26.2c0.9-8.7,1.9-17.3,3.1-25.9c0.7-4.3-0.1-7.8-2.3-10.4
			c-2.9-3.6-6.4-4.8-10.3-3.6c-2.4,0.8-4.3,2.1-5.6,4.1s-2.1,4.3-2.5,6.9c-1.2,8.2-2.2,16.5-3,24.7c0,0.2,0,0.4,0,0.6
			c-0.3,0.5-0.6,1-0.9,1.5c-0.5,1.2-0.9,2.5-1.3,3.8c-2.2,8.6-4.7,17.2-7.2,25.7c-2.6,8.5-5.4,16.9-8.5,25.1c-1,2.6-2.1,5.3-3.2,8
			c-1.1,2.7-2.4,5.3-3.7,7.7c-0.3,0.2-0.6,0.5-0.8,0.8c-0.2,0.4-0.4,0.6-0.8,0.6c-0.5-0.2-0.8-0.5-0.9-0.8c-0.1-0.4-0.2-0.7-0.4-1.1
			c-0.7-2.6-1.2-5.3-1.4-8.1c-0.3-2.8-0.4-5.6-0.4-8.4c-0.3-9.7-0.6-19.4-0.9-29.2c-0.3-9.7-0.7-19.4-1.4-29.2
			c-0.3-4.7-0.9-9.3-1.7-14c-0.8-4.7-2.1-9.2-4-13.5c-4.1-9.9-10.8-14.4-19.9-13.5c-2.2,0.2-4.4,0.8-6.5,2c-2.1,1.1-4.1,2.4-5.9,3.9
			c-3.4,2.6-6.6,5.6-9.3,9c-2.8,3.4-5.3,6.9-7.8,10.7c-2.4,3.7-4.6,7.7-6.6,11.8c-2,4.1-3.8,8.4-5.6,12.9c0.2-8,0.4-15.9,0.6-23.7
			c0.3-7.8,0.6-15.5,1.2-23.1c0.3-5.4,0.7-10.9,1.2-16.4c0.4-5.5,0.9-11,1.4-16.4c0.3-5.2,0.8-10.4,1.4-15.6
			c0.6-5.1,0.9-10.3,0.9-15.6c0-3.2-0.9-5.8-2.7-7.9c-1.8-2.1-4.1-3.2-6.8-3.4c-2.8,0-5.2,1-7.4,3.1c-2.2,2.1-3.3,4.6-3.5,7.6
			c-0.5,7.1-1.2,14.1-1.8,21.1c-8,0-15.9,0-23.8,0c-8.6,0-17.3,0-26.1,0c-2.2,0-3.5-0.2-3.7-0.6c-0.3-0.4-0.3-1.8-0.1-4.2
			c0.3-1.9,0.6-3.8,0.9-5.8c0.3-2,0.5-4,0.6-6c0.2-3.4-0.6-6.2-2.5-8.4c-1.8-2.2-4.1-3.5-6.8-3.6c-2.6-0.4-5,0.4-7.1,2.2
			c-2.2,1.9-3.5,4.4-4,7.6c-0.5,2.1-0.9,4.2-1.2,6.3c-0.3,2.2-0.6,4.3-0.9,6.3c-0.5,2.8-1,4.4-1.4,4.9c-0.4,0.5-1.9,0.7-4.5,0.7
			c-4.7,0-9.3,0-14.1-0.1c-4.7-0.1-9.4,0-14.1,0.1c-4.1,0-7.3,1.7-9.4,5.2c-2.2,3.5-2.4,7.1-0.6,10.8c2.1,4.5,5.4,6.7,10.1,6.7
			c4.5,0,9,0,13.4,0.1c4.5,0.1,9,0,13.4-0.1c1.4,0,2.4,0.2,3,0.7c0.6,0.5,0.8,1.5,0.6,3.2c-0.5,6.9-1,13.8-1.6,20.8
			c-0.4,5.4-0.6,10.7-0.7,16.1c-6.6,2.6-13.2,3.7-19.7,3.3c-6.6-0.4-12.9-2.5-19.1-6.5c-2.8-1.7-5.5-3.4-8.3-5
			c-2.8-1.7-5.4-3.6-8-5.9c-5.7-5.2-11.6-7.2-17.8-6c-6.2,1.2-11.4,3.7-15.5,7.4c-3.6,3.4-6.7,7.3-9.3,11.8
			c-4.7,8-7.9,16.5-9.8,25.4c-0.6,2.9-1.1,5.8-1.5,8.8c-0.2,0.6-0.5,1.2-0.7,1.9c-0.3,0.8-0.5,1.6-0.6,2.4c-1.9,6.2-3.9,12.3-6,18.4
			c-2.1,6.1-4.6,12-7.3,17.8c-0.9,2.1-1.8,4.1-2.9,6.2c-1.1,2.1-2.4,4.1-4,6.2c-1-3-1.7-5.9-1.9-8.8c-0.3-2.9-0.5-5.8-0.6-8.6
			c-0.5-8.6-0.8-17.2-0.9-25.8c-0.1-8.6-0.6-17.2-1.4-25.8c-0.5-5.6-1.3-11.1-2.4-16.6c-1.1-5.4-2.9-10.7-5.5-15.7
			c-4.8-8.8-10.7-13.9-17.9-15.4c-7.2-1.5-14.5,0.8-22,7c-3.4,3-6.5,6.3-9.2,10c-2.7,3.6-5.2,7.5-7.4,11.6c-2.2,3.9-4.2,8-6,12.2
			c-1.8,4.2-3.5,8.5-5.2,12.8c0-2.4,0-5-0.1-7.6c-0.1-2.6,0-5.1,0.1-7.6c0.3-6,0.7-11.9,1.2-17.8c0.4-5.9,0.9-11.7,1.4-17.5
			c0.2-3.4-0.6-6.2-2.4-8.4c-1.8-2.2-4.1-3.5-6.8-3.6c-3.1-0.2-5.6,0.7-7.5,2.5c-2,1.9-3.2,4.5-3.7,7.9c-1.7,13.7-2.6,27.7-2.8,42.1
			c0,9.4,0,18.7,0,28.1c0,9.4,0.5,18.7,1.5,28.1c0.3,4.1,0.7,8.3,1.2,12.6c0.4,4.3,1.1,8.5,1.9,12.6c1.4,7.1,4.9,10.5,10.7,10.1
			c5.6-0.2,9-3.7,10-10.7c1-6.9,2.3-13.7,3.7-20.5c1.4-6.7,3.1-13.5,5-20.2c2.2-7.9,4.6-15.7,7-23.6c2.5-7.9,5.8-15.3,10.1-22.4
			c1.5-2.6,3.2-5,5-7.3c1.8-2.2,3.9-4.2,6.3-5.9c1.9-1.3,3.4-1.8,4.5-1.5c1.1,0.3,2.2,1.5,3.2,3.5c0.9,1.3,1.5,2.7,2,4.2
			c0.5,1.5,0.9,3,1.3,4.5c1.5,6.4,2.6,12.8,3.1,19.2c0.5,6.5,0.9,13,1,19.5c0.2,6.2,0.3,12.3,0.4,18.5c0.1,6.2,0.5,12.4,1.2,18.8
			c0.5,4.3,1.3,8.6,2.3,12.8c1,4.2,2.7,8.1,5.1,11.6c2.7,4.1,6.2,6.6,10.4,7.4c4.2,0.8,8.2-0.1,12.1-2.9c1.9-1.3,3.5-2.8,5-4.5
			c1.4-1.7,2.8-3.4,4-5c3.2-4.8,6-9.8,8.4-15c0.7,2,1.5,4,2.4,6c1.2,3,2.6,5.6,4.1,7.9c6,9.2,13.4,14,22.1,14.4
			c8.7,0.5,16.4-3.6,23.1-12.2c4.5-5.6,7.9-11.6,10.3-18.1c2.4-6.5,4.2-13.2,5.4-20.3c1-6,1.6-12,1.7-18c0.1-6-0.2-12-0.9-18
			c0-1.1,0-2.1,0.1-2.9c0.1-0.8,0.9-0.9,2.5-0.1c3.8,1.3,7.6,2.1,11.4,2.2c3.8,0.2,7.6,0.1,11.4-0.3c3.6-0.2,7.2-0.7,10.9-1.4
			c0.3-0.1,0.6-0.2,0.9-0.2c0,1.1,0,2.1,0,3.2c-0.1,7.4,0.1,14.7,0.6,22c0.5,7.7,1.2,15.2,1.9,22.6c0.8,7.4,1.9,14.8,3.2,22.3
			c1.4,6.7,3.1,13.4,5,19.9c2,6.5,4.9,12.6,8.7,18.2c5.5,8.6,12,13.2,19.5,13.9c7.5,0.7,14.7-2.6,21.6-9.7c3.3-3.4,6.1-7.1,8.5-11.2
			c2.4-4.1,4.7-8.3,6.7-12.6c1.8-3.9,3.5-7.8,5.1-11.7c1.7,2,3.9,3.1,6.6,3.3c6.4,0.6,10.3-3.1,11.9-10.9c2.1-9.7,4.4-19.4,7.1-28.9
			c2.7-9.5,5.7-19,9.2-28.3c2.4-6.2,5.2-12.1,8.4-17.7c3.2-5.6,7.1-10.7,11.8-15.1c1.4-1.3,2.3-1.9,2.8-1.7c0.5,0.2,1,1.2,1.6,3.1
			c1.2,4.3,2,8.7,2.3,13.2c0.3,4.5,0.7,9,1,13.5c0.3,8,0.6,16.1,0.8,24.3c0.2,8.1,0.4,16.2,0.8,24.3c0.2,4.7,0.6,9.3,1.2,13.7
			c0.6,4.5,1.9,8.9,3.7,13.2c3.4,7.9,8.4,12.4,14.7,13.6c6.4,1.2,12.4-1.3,18.1-7.4c2.2-2.4,4.1-5,5.7-7.9c1.6-2.8,2.9-5.7,4.1-8.7
			c1.9-4.3,3.6-8.7,5.3-13.1c0.5,2.1,1,4.2,1.5,6.2c1.5,5.3,3.9,10.2,7.4,14.7c2.2,2.8,4.8,5,7.6,6.6c2.8,1.6,6.1,2.3,9.7,2.1
			c4.3-0.2,8.1-1.4,11.5-3.5c3.4-2.1,6.4-4.9,9.2-8.3c5.5-6.5,10.3-13.5,14.2-21c0.1,0.5,0.1,1.1,0.2,1.6c0.4,4.3,1.1,8.5,1.9,12.6
			c1.4,7.1,5,10.5,10.9,10.1c5.7-0.2,9-3.7,10.1-10.7c1-6.9,2.3-13.7,3.7-20.5c1.5-6.7,3.1-13.5,5-20.2c2.2-7.9,4.6-15.7,7.1-23.6
			c2.5-7.9,5.9-15.3,10.2-22.4c1.6-2.6,3.2-5,5-7.3c1.8-2.2,3.9-4.2,6.3-5.9c1.9-1.3,3.4-1.8,4.5-1.5c1.1,0.3,2.2,1.5,3.2,3.5
			c0.9,1.3,1.6,2.7,2.1,4.2c0.5,1.5,0.9,3,1.3,4.5c1.6,6.4,2.6,12.8,3.1,19.2c0.5,6.5,0.9,13,1,19.5c0.2,6.2,0.3,12.3,0.4,18.5
			c0.1,6.2,0.5,12.4,1.2,18.8c0.5,4.3,1.3,8.6,2.3,12.8c1,4.2,2.8,8.1,5.2,11.6c2.8,4.1,6.2,6.6,10.5,7.4c4.2,0.8,8.3-0.1,12.3-2.9
			c1.9-1.3,3.6-2.8,5-4.5c1.5-1.7,2.8-3.4,4-5c4-5.8,7.3-11.9,10.1-18.4c2-4.7,3.9-9.4,5.7-14.1c1.1,1.2,2.3,2.2,3.6,3.2
			c5.2,3.8,10.9,5.7,17.1,5.5c6.2-0.2,12.1-2.6,17.8-7.3c3.1-2.6,6-5.5,8.7-8.6c2.7-3.1,5.3-6.2,7.9-9.4c3.6-4.7,7.1-9.5,10.5-14.6
			c3.4-5,6.6-10.2,9.7-15.4c0.2,3.4,0.3,6.7,0.5,10.1c0.2,3.4,0.4,6.8,0.8,10.4c0.2,2.4-0.9,4.4-3.1,5.9
			c-5.2,3.9-10.4,7.9-15.6,11.9c-5.3,4-10.5,8.1-15.6,12.2c-6.4,5.6-12.4,11.5-18,17.8c-5.6,6.3-10.5,13.4-14.6,21.5
			c-3.6,6.9-6.5,14.1-8.5,21.6c-2.1,7.5-2.6,15.3-1.6,23.6c0.7,6.2,3,11.7,7,16.7c4,5,8.8,8.1,14.5,9.4c5.5,1.3,10.9,1.3,16,0
			c5.2-1.3,10.1-3.6,14.7-6.7c6.5-4.5,12.1-9.9,16.5-16.3c4.5-6.4,8.5-13.1,12.2-20.2c5.9-11.6,10.1-23.6,12.8-36
			c2.7-12.4,3.9-25.3,3.7-38.6c0-2.4,0.3-4.5,1-6.3c0.7-1.8,2.1-3.3,4.1-4.6c2.9-1.9,5.8-3.9,8.5-6.2c2.8-2.2,5.5-4.5,8.3-6.7
			c1.9-1.7,3.7-3.5,5.4-5.3c1.7-1.9,3.2-4,4.4-6.5c2.4-4.9,1.8-9.3-1.8-13.2C952.8,860.7,948.8,860.1,944.3,862.5z M378.6,911.7
			c-1.3,6.3-3.5,12.5-6.6,18.7c-1.9,3.2-4,5.7-6.2,7.6c-2.8,2.2-5.3,2.1-7.8-0.6c-2.2-2.2-3.9-4.8-4.9-7.6c-1-2.8-1.9-5.7-2.6-8.7
			c-2.1-9.3-2.7-18.6-1.9-27.6c0.8-9.1,2.9-18,6.3-26.8c0.9-2.4,2-4.8,3.4-7c1.4-2.2,3-4.2,4.9-5.9c2.2-1.7,4.6-1.7,7,0
			c1.4,1.1,2.5,2.3,3.4,3.6c0.9,1.3,1.6,2.7,2.3,4.2c1.6,4.1,2.8,8.8,3.6,14c0.9,5.2,1.3,12,1.3,20.2
			C380.6,900.2,379.9,905.5,378.6,911.7z M515.7,818.7c-0.7,9.9-1.2,19.9-1.7,30c-0.4,10.1-0.7,20.1-0.9,30c-0.1,4.9-0.1,9.8,0,14.7
			c-0.2,0.5-0.3,1.1-0.5,1.6c-1.9,8.8-4.1,17.5-6.5,26.1c-2.4,8.6-5.3,16.9-8.8,25c-1.9,4.5-3.9,8.7-6.1,12.8
			c-2.2,4-4.9,7.7-8.1,11.1c-1.9,1.9-3.4,2.8-4.5,2.7c-1.1-0.1-2.4-1.3-3.7-3.5c-1.9-2.8-3.5-5.7-4.7-8.7c-1.2-3-2.2-6.1-3.1-9.3
			c-2.9-10.5-5-21-6.2-31.7c-1.2-10.7-2-21.4-2.3-32.3c-0.3-12.5-0.3-25.1,0-37.6c0.3-12.5,1.2-25,2.6-37.3c0.3-2.4,1.6-3.6,3.6-3.6
			c4.8,0.2,9.6,0.3,14.2,0.3s9.4-0.1,14.2-0.3c4.7,0,9.3,0,14.1,0.1c3.1,0.1,6.1,0,9.2,0C516.3,812.1,516,815.4,515.7,818.7z
			 M892.9,841.7c-7.6,20-18.5,37.9-32.8,53.6c-1,0.9-2.1,1.9-3.1,2.9c-1,1-2.2,1.9-3.4,2.7c-4.5,3-8.2,2.1-11.1-2.8
			c-2.1-3.4-3.2-8.2-3.4-14.6c1-9.3,3.1-18.2,6.2-26.5c3.1-8.3,8.5-15.4,16.3-21.2c3.6-2.6,7.4-4.4,11.4-5.5c4-1,8.1-1,12.4,0.1
			c2.2,0.8,4,1.7,5.4,2.8C893.4,835.8,894.1,838.6,892.9,841.7z M901.4,948.9c-2.4,9.4-5.6,18.3-9.4,26.8c-3.9,8.5-9,16.3-15.4,23.4
			c-1.9,2.1-4,3.9-6.2,5.6c-2.2,1.7-4.7,2.9-7.2,3.6c-4.7,1.5-8.1,1.2-10.5-0.8c-2.3-2.1-3.4-6.3-3.2-12.6c0.3-5.6,1.8-11.3,4.3-17
			c2.5-5.7,5.6-11.3,9.2-16.7c5.5-7.7,11.7-14.4,18.6-20.2c6.9-5.8,14-11.4,21.2-16.8c1.2-0.9,1.9-1.1,2.1-0.6
			c0.2,0.6,0.3,1.3,0.3,2.2C904.5,933.6,903.3,941.2,901.4,948.9z"/>
	</g>
	<g>
		<path class="st13" d="M228.6,220.7c2.7,5.5,6.1,9.7,10.3,12.5c4.1,2.8,8.6,4.3,13.2,4.5c0.3,0,0.7,0,1,0c4.3,0,8.6-1.2,12.6-3.6
			c4.4-2.6,8.2-6.5,11.3-11.6c4.4-6.9,7.4-14.3,9-21.9c1.6-7.5,2.4-14.7,2.6-21.3c0-9.2-0.6-17.8-1.8-25.4c-1.2-7.7-3.6-15.1-7.1-22
			c-3.3-6.5-7.7-11-13.2-13.6c-3.4-1.6-6.9-2.4-10.4-2.4c-2.2,0-4.4,0.3-6.5,0.9c-5.7,1.6-10.8,5.4-15.1,11.3
			c-4.7,6.4-8.3,13.8-10.6,22c-2.3,8.1-3.6,16.5-3.8,25.1c-0.2,8.5,0.4,16.8,1.9,24.7C223.4,207.7,225.6,214.7,228.6,220.7z
			 M239.6,172.4c0.2-5.7,0.9-11.4,2-17c1.1-5.5,2.9-10.8,5.4-16c0.4-1.1,0.9-2.1,1.4-3.1c0.5-0.9,1.1-1.9,1.7-2.8
			c1.9-2.6,3.7-3.9,5.4-3.9c1.7,0,3.4,1.3,5.2,3.7c1.8,2.5,3.2,5.3,4.4,8.2c1.9,4.9,3.5,9.9,4.5,14.8c1.1,4.8,1.5,9.1,1.3,12.9
			c-0.1,9.3-0.9,17.9-2.4,25.6c-1.5,7.6-4.2,14.7-8.2,21.2c-2.9,4.8-4.9,5.8-6.1,5.8c0,0,0,0,0,0c-1.2,0-3.2-1.1-6.2-6
			c-4-6.6-6.6-13.6-7.5-20.8C239.6,187.8,239.3,180.1,239.6,172.4z"/>
		<path class="st13" d="M367.9,239.7c3.5,0,6.1-0.9,7.8-2.6c1.8-1.8,3-4.8,3.5-9c0.6-5.5,0.7-11,0.4-16.5
			c-0.3-5.3-0.3-10.8-0.1-16.1c0.3-13.8,0.5-27.8,0.5-41.6c0-13.8-0.4-27.8-1-41.7c-0.3-3.3-1.3-5.8-2.9-7.7
			c-1.6-1.8-3.7-2.6-6.3-2.6c-0.2,0-0.4,0-0.6,0c-4.3,0.2-5.7,2.3-6.1,4.1c-0.4,1.9-0.6,4.1-0.6,6.3c-0.5,10.8-0.9,22.1-1.3,33.4
			c-0.4,11-0.8,22.3-1.3,33.4c-0.1,3.5-0.3,7.1-0.5,10.8c-0.1,2.3-0.3,4.7-0.4,7.3c-0.8-1.5-1.5-2.9-2.2-4.2
			c-1.3-2.5-2.6-4.9-3.9-7.3c-4.8-9.1-9.5-18.6-13.9-28.1c-4.4-9.6-9.5-19-15.1-27.8c-3.7-5.9-9-9.2-15.7-9.7c-0.5,0-1-0.1-1.5-0.1
			c-3,0-5.2,0.8-6.7,2.3c-1.7,1.8-2.5,4.6-2.5,8.8V161c-0.1,23.3,1.1,46.6,3.7,69.4c0.2,2.1,0.7,4.1,1.3,6c0.5,1.6,1.9,3.5,5.5,3.5
			c0.2,0,0.4,0,0.6,0c4.1-0.2,5.4-2.4,5.8-4.2c0.4-2,0.7-4,0.8-5.8c0.1-1.1,0.2-2.2,0.2-3.2v-63.9c0-1.1,0-2.3-0.1-3.6
			c0-0.4,0-0.8,0.2-1.2c0,0,0,0,0,0c0.3,0.7,0.7,1.5,1,2.1c1.9,3.8,3.7,7.6,5.5,11.3c1.8,3.8,3.7,7.6,5.5,11.2
			c4.1,8.4,8.2,16.7,12.3,24.8c4.1,8.2,8.8,16.3,13.9,24c3.4,5.3,8,8.1,13.7,8.4C367.4,239.7,367.7,239.7,367.9,239.7z"/>
		<path class="st13" d="M471.6,235.3c0-1.9-0.1-3.8-0.3-5.7v-5.7c0.1-7.8,0.3-15.9,0.4-24.2c0.2-7.8,0.3-15.9,0.4-24.2v-20.3
			c0-6.8,0.1-13.6,0.2-20.1c0-3.5,1.4-3.8,2.8-3.8c0.2,0,0.5,0,0.7,0l7.6,0.8l7.3,0.7c1.5,0.3,3.1,0.5,4.6,0.6c0.1,0,0.2,0,0.4,0
			c1.2,0,3.3-0.5,4.2-4.1c0.7-2.4,0.4-4.6-1.1-6.3c-1.2-1.4-2.5-2.7-4-3.7c-1.3-1-2.8-1.7-4.4-2c-1.4-0.3-2.8-0.6-4.3-0.9l-10.5-1.5
			c-3.5-0.5-7.1-0.9-10.5-1.1c-4.3-0.3-8.7-0.5-13-0.5c-0.7,0-1.4,0-2.2,0c-5.1,0.1-10.2,0.2-15.1,0.5c-1.3,0-2.6,0.3-3.8,0.8
			c-1,0.4-2.4,1.4-2.9,3.7c-0.8,2.5-0.1,4.2,0.6,5.2c0.8,1.1,1.6,2.1,2.7,3.1c2.3,2,5.1,3,8.2,3.2c1.3,0,2.7,0,4.1,0.1
			c1.4,0.1,2.8,0.1,4.2,0.1c1.7,0,2.9,0.4,3.5,1.1c0.6,0.7,0.7,1.9,0.5,3.6c-0.8,8-1.1,15.8-0.9,23.2c0.2,7.3,0.2,13.5,0,18.6v45.6
			c0,1.8,0.1,3.7,0.4,5.7c0.2,2,0.7,3.9,1.3,5.7c1.1,2.9,2.9,5,5.6,6.4c1.7,0.9,3.5,1.3,5.3,1.3c0.9,0,1.9-0.1,2.8-0.4
			C470.7,239.5,471.6,237.1,471.6,235.3z"/>
		<path class="st13" d="M561.6,217.6c0.5,1.8,0.9,4.9,1.3,9.4c0.2,2.4,0.7,4.7,1.3,6.9c0.7,2.5,2.3,4.6,4.6,6
			c1.5,1.1,3.2,1.6,4.8,1.6c1.5,0,3.1-0.5,4.6-1.4c2.3-1.3,2.6-3.2,2.5-4.5c-0.1-1.1-0.2-2.3-0.2-3.4c-0.2-7.9-0.6-15.9-1-23.9
			c-0.5-7.8-0.7-15.8-0.7-23.7c0-9.6-0.1-19.4-0.4-29c-0.3-9.5-0.6-19.2-0.8-28.8c-0.1-3.1-0.9-5.7-2.4-7.6c-1.5-2.1-3.9-3.2-7-3.3
			c-0.2,0-0.4,0-0.5,0c-3.8,0-5.2,2.1-5.7,3.9c-0.5,2-1,4.1-1.4,6.2c-0.1,1.1-0.2,2.1-0.2,3.1v36.6h0.3v15.9
			c0,5.8,0.1,11.6,0.2,17.3c0.1,3.5-1.3,4-2.8,4.1c0,0-23.1,1.3-27.7,1.5c-0.2,0-0.3,0-0.5,0c-1.3,0-2.6-0.4-2.7-3.7
			c-0.3-6.7-0.7-13.4-1.1-20.2c-0.4-6.7-0.9-13.6-1.5-20.4c-0.5-6.3-0.8-12.6-0.9-18.8c-0.1-6.2-0.2-12.6-0.2-18.9
			c0-3.2-0.8-5.7-2.5-7.3c-1.6-1.5-3.7-2.5-6.2-2.8c-0.6-0.1-1.1-0.1-1.7-0.1c-2,0-3.6,0.7-4.6,2.1c-1.2,1.6-1.8,3.7-2,6.2
			c-0.1,1.5-0.3,3-0.4,4.5c-0.2,1.6-0.3,3.1-0.4,4.7c-0.5,14.5-0.2,29.1,0.8,43.5c1,14.3,2.1,28.8,3.4,43c0.3,3.8,0.7,7.6,1.1,11.5
			c0.4,3.9,1.2,7.8,2.4,11.4c0.8,2.8,2.5,4.9,5.1,6.3c1.5,0.8,3.1,1.3,4.6,1.3c1,0,2-0.2,2.9-0.5c3.7-1.2,4.5-3.5,4.5-5.2
			c0-1.8-0.2-3.7-0.5-5.7c-0.3-2.1-0.6-4.2-0.7-6.3c-0.1-2.3-0.4-4.5-0.7-6.7c-0.3-2-0.1-3.4,0.5-4.4c0.6-0.9,2.1-1.1,3.2-1.1
			c0.2,0,0.4,0,0.6,0c1.5,0.1,3.1,0.1,4.6,0.1c1.5,0,3.1,0,4.6-0.1c3.1-0.1,6.2-0.5,9.2-1c2.9-0.4,5.2-0.5,6.8-0.5
			c0.6,0,1.1,0,1.5,0.1C560.6,215.7,561.2,216.3,561.6,217.6z"/>
		<path class="st13" d="M271.4,771.7l0-0.2c-0.1-0.8-0.3-1.5-0.4-2.3c-0.1-0.5-0.2-1.1-0.2-1.6v-0.1l0-0.1
			c-1.5-14-2.9-28.3-4.3-42.5c-1.3-14.2-3-28.5-4.9-42.5c-0.5-3.8-1.2-7.6-2-11.2c-0.8-3.6-1.7-7.3-2.7-11c-1-3.7-2.8-6.5-5.3-8.4
			c-2.4-1.8-5.4-2.9-8.7-3.3c-0.4,0-0.8,0-1.2,0c-2.9,0-5.4,0.9-7.2,2.6c-2,1.8-3.6,4.2-4.9,7.1c-5.6,13.1-10.1,26.8-13.4,40.7
			c-3.1,13.1-5.7,26.4-7.6,39.7c-1.9,13.2-3.3,26.7-4.1,40.1c-0.1,1.5,0,2.8,0.4,4c0.4,1,1.3,2.4,3.5,2.8c0.5,0.1,1,0.2,1.5,0.2
			c1.2,0,2.2-0.5,2.9-1.3c0.8-0.9,1.3-2,1.7-3.3c0.2-0.8,0.4-1.6,0.6-2.4c0.2-0.7,0.3-1.5,0.5-2.3l0-0.1l0-0.1c0.5-3,1.1-6,1.7-8.9
			c0.6-3,1.1-6,1.5-9c0.6-3.2,2-4.6,4.7-4.6l0.3,0c3.5,0,7-0.1,10.4-0.2c3.5-0.1,7-0.4,10.5-0.9l0.1,0l0.1,0
			c0.9-0.3,1.7-0.4,2.3-0.4c1.2,0,1.5,0.4,1.7,0.6c0.9,1,1.4,2.7,1.7,5c0.2,2.5,0.6,5.1,1.2,7.6c0.5,2.5,1.1,5,1.6,7.5
			c0.2,1.2,0.6,2.4,1.1,3.5c0.5,1.2,1.2,2.3,2.2,3.3c2.3,2.3,4.8,3.4,7.5,3.4c1.8,0,3.6-0.5,5.3-1.5c4-2,3.1-5.2,2.7-6.2
			C271.8,774.2,271.5,772.9,271.4,771.7z M247.9,739.3c0,0-0.4,0.5-2.1,0.7c-3.4,0.5-6.9,0.8-10.4,0.8c0,0-0.7,0-1.1,0
			c-0.6,0-1.1,0-1.7,0c-3.4,0-6.8,0.2-10.1,0.4c-0.1,0-0.2,0-0.3,0c0,0,0-0.1,0-0.1c2.5-11.7,5.3-23.4,8.5-34.9
			c2.7-9.5,6.2-18.8,10.5-27.9c0.6,4.8,1.1,9.6,1.7,14.3c0.9,6.8,1.7,13.6,2.4,20.3c0.4,4,0.8,8,1.2,12c0.4,4.1,0.8,8.1,1.4,12.1
			C248.2,738.8,247.9,739.3,247.9,739.3z"/>
		<path class="st13" d="M354.5,693.1c0-12.8-0.3-25.9-1-38.8c-0.3-3.1-1.2-5.6-2.9-7.4c-1.6-1.7-3.7-2.6-6.2-2.6c-0.2,0-0.4,0-0.6,0
			c-4.3,0.2-5.7,2.4-6.1,4.2c-0.4,1.8-0.6,3.8-0.6,5.9c-0.4,10.1-0.8,20.6-1.2,31c-0.4,10.3-0.8,20.7-1.2,31
			c-0.1,3.3-0.3,6.6-0.5,10c-0.1,1.6-0.2,3.3-0.3,5.1c-0.5-0.9-0.9-1.7-1.3-2.4c-1.2-2.3-2.4-4.5-3.6-6.7c-4.5-8.5-8.8-17.2-12.9-26
			c-4.1-8.9-8.8-17.6-14-25.8c-3.5-5.6-8.6-8.7-14.9-9.3c-0.5,0-1-0.1-1.4-0.1c-2.9,0-5.1,0.8-6.5,2.3c-1.7,1.7-2.5,4.5-2.5,8.5
			v27.9c-0.1,21.6,1,43.3,3.4,64.4c0.2,2,0.6,3.9,1.2,5.7c0.5,1.6,1.9,3.6,5.6,3.6c0.2,0,0.4,0,0.5,0c4.3-0.2,5.4-2.8,5.8-4.3
			c0.4-1.8,0.7-3.7,0.8-5.5c0.1-1,0.2-2,0.2-3v-59.3c0-0.9,0-1.8-0.1-2.7c0.1,0.2,0.2,0.3,0.3,0.5c1.7,3.5,3.4,7,5.1,10.5
			c1.7,3.5,3.4,7,5.1,10.4c3.8,7.7,7.6,15.4,11.4,23c3.8,7.6,8.2,15.1,12.9,22.3c3.2,5.1,7.6,7.8,13,8c0.3,0,0.5,0,0.8,0
			c3.3,0,5.9-0.9,7.5-2.5c1.8-1.8,2.9-4.6,3.4-8.7c0.5-5.1,0.7-10.3,0.4-15.4c-0.3-4.9-0.3-9.9-0.1-14.9
			C354.3,719,354.5,706,354.5,693.1z"/>
		<path class="st13" d="M415.6,677c-4.9-6.5-10.5-11.6-16.9-15.3c-5.5-3.2-11.8-4.8-18.6-4.8c-1.1,0-2.2,0-3.4,0.1
			c-4.3,0.4-8,1.7-10.9,3.9c-3.3,2.5-4.6,6.8-3.8,13c0.2,1.6,0.2,3.3,0.1,5c-0.1,1.8-0.2,3.7-0.2,5.6c-0.2,5.2-0.1,10.5,0.3,15.7
			c0.4,5.2,0.8,10.3,1.1,15.4c0.5,10.3,1.3,20.7,2.3,31c1,10.3,2.4,20.7,4.4,30.9c1.3,6.9,4.4,11.3,9.2,13.1
			c1.3,0.5,2.7,0.8,4.1,0.8c3.5,0,7.1-1.6,10.6-4.9c3.1-2.7,6.1-5.7,8.9-8.9c2.9-3.2,5.7-6.4,8.4-9.5c7.7-9.1,13.1-19,16.1-29.5
			c3-10.5,3.5-21.2,1.6-31.8C427.1,696.1,422.6,686.1,415.6,677z M412.4,720.4c-0.5,7.3-2.2,14.4-5.2,21
			c-2.8,6.2-6.2,11.9-10.1,17.1c-3.2,4.3-6.8,8.7-10.6,13.1c-1.1-8.8-2-17.5-2.5-25.8c-0.6-9.4-1.3-19.1-2.1-28.6
			c-0.5-7.1-1-14.3-1.5-21.5c-0.4-7.2-1-14.5-1.6-21.5c-0.2-2.5,0.2-3.5,0.5-3.8c0.2-0.2,0.8-0.7,2.7-0.7c0.2,0,0.4,0,0.6,0
			c3.8,0.2,7,1.3,9.7,3.2c2.8,2,5.4,4.5,7.7,7.4c4.6,5.5,7.9,11.8,10.1,18.7C412,705.8,412.9,713.1,412.4,720.4z"/>
		<path class="st13" d="M512.4,757.2c-1.1-0.6-2.3-0.9-3.7-0.9c-0.2,0-0.3,0-0.5,0c-1.2,0.1-2.4,0.1-3.6,0.1c-0.2,0-0.3,0-0.5,0
			c-0.6,0-1.5-0.1-1.9-0.6c-0.3-0.4-0.7-1.4-0.7-3.4c-0.4-12.6-0.8-25.4-1.2-38.1c-0.4-12.7-0.8-25.4-1.2-38.1l-0.1-1.9h-0.1
			c0-2.4,0.1-4.8,0.2-7.1c0.1-3.1,0.1-6.3-0.2-9.4c-0.4-3.2,0.2-3.9,0.2-4c0,0,0.2-0.1,0.5-0.1c0.3,0,1,0.1,2,0.4
			c1.1,0.4,2.3,0.6,3.5,0.6c0.2,0,0.4,0,0.6,0c2.1-0.1,3.5-1.6,3.8-4c0.5-2.4-0.3-4.3-2.1-5.4c-1.3-0.7-2.5-1.3-3.8-1.6
			c-4.9-1.1-9.9-1.6-14.8-1.7c-0.7,0-1.4,0-2.1,0c-4.1,0-8.4,0.2-12.6,0.5c-1.3,0.1-2.7,0.5-4.1,1c-2.1,0.7-3.2,2.7-3,5.4
			c0.2,3.8,2.3,4.9,3.6,5.2c1.5,0.4,2.9,0.5,4.3,0.5c0.8,0,1.5-0.1,2.2-0.3c0.8-0.3,1.5-0.4,2.1-0.4c0.2,0,0.6,0,0.8,0.2
			c0.2,0.3,0.8,1.2,0.8,4.2c-0.3,15.2-0.3,30.5,0.2,45.7c0.4,15.1,1.2,30.5,2.3,45.6c0.2,3.2,0.1,5.9-0.4,8
			c-0.1,0.6-0.5,2.3-4.5,2.9c-1.3,0.2-2.4,0.9-3.5,2c-1.1,1.3-1.6,2.9-1.4,4.9c0.4,2.8,1.6,4,2.6,4.6c1.1,0.6,2.3,1,3.7,1.2
			c0.4,0,0.8,0.1,1.1,0.1c1.1,0,2.3-0.2,3.4-0.5l0.1,0c3.2-1.3,6.5-2.1,9.9-2.5c3.5-0.5,7-0.8,10.6-1.1c1.1-0.1,2.4-0.2,3.7-0.3
			c1.7-0.1,3.1-0.6,4.3-1.4c1.4-1,2.2-2.8,2.2-5.3l0-0.1C514.7,759,513.4,757.7,512.4,757.2z"/>
		<path class="st13" d="M609.1,662.2c-4.8-3.6-10.7-6-17.5-7.3c-1.7-0.3-3.4-0.4-5-0.4c-3.1,0-6.2,0.5-9.1,1.4
			c-4.3,1.4-8.5,3.1-12.6,5.1c-1.9,0.8-3.3,1.9-4.3,3.2c-1.1,1.4-1.6,3.3-1.6,5.5c-0.1,2.5-0.2,4.9-0.2,7.3
			c-0.1,2.4-0.1,4.8-0.1,7.3c-0.3,12-0.3,24.2,0,36.2c0.3,11.7,0.6,23.8,0.8,36c0,1.3,0.2,2.7,0.5,4c0.3,1.2,0.6,2.5,0.9,3.7
			c0.7,2.4,1.9,4.1,3.7,5.1c1.4,0.8,3,1.2,4.7,1.2c0.3,0,0.5,0,0.7,0c4.5,0,7.2-2.7,7.7-7.7l0-0.1v-0.1c0-0.6,0.1-1.1,0.3-1.7
			c0.3-1,0.5-2,0.5-3.1c-0.1-2.1,0.3-2.8,0.5-2.9c0.3-0.2,0.8-0.3,1.9-0.3c0.6,0,1.2,0.1,2,0.2c4.6,0.6,9.4,1.1,14.1,1.5
			c1.3,0.1,2.6,0.2,3.8,0.2c3.6,0,7.3-0.5,10.9-1.3c1.2-0.3,2.4-0.6,3.5-1.2c1-0.4,2.7-1.7,2.7-4.8c0-2-0.7-3.6-2-4.7
			c-1-0.9-2.1-1.6-3.4-2.1c-1.3-0.6-2.6-0.8-4-0.8H592c0.7-0.6,1.4-1.2,2.2-1.8c4.4-3.8,8.5-8,12.2-12.4c3.8-4.5,7.2-9.4,10.2-14.6
			c3.6-6.4,5.6-12.9,6.1-19.2c0.5-6.3-0.5-12.3-2.8-17.6C617.6,670.4,613.9,665.8,609.1,662.2z M606.4,698.1
			c-2.4,5.7-5.5,10.9-9.3,15.5c-3.8,4.7-8.1,8.9-12.8,12.7c-1.3,1-2.6,2.5-3.9,4.2c-0.4,0.5-0.9,1.1-1.4,1.1c-0.1,0-0.3,0-0.4-0.1
			c-0.3-0.1-0.8-0.3-0.6-1.8c0.2-2.1,0.3-4,0.2-5.9c-0.8-8.4-1.4-16.9-2-25.1c-0.6-8.4-1.2-16.8-1.9-25c-0.2-2.7,1-3.4,2.3-3.8
			c1.9-0.6,3.8-1.1,5.8-1.5c1.9-0.4,3.6-0.6,5.1-0.6c9.6,0,16.2,2.8,19.6,8.4C610.4,681.8,610.3,689,606.4,698.1z"/>
		<path class="st13" d="M688.6,761.4c-0.4-0.1-0.7-0.1-1.1-0.1c-1,0-2.2,0.2-3.3,0.7c-1.3,0.5-2.6,1.1-3.6,1.6
			c-3.4,1.5-7,2.6-10.6,3.3c-3.6,0.7-7.3,1.1-11.1,1.1c-3.2,0-4.7-1.3-5-4.3c-0.4-3.9-0.9-7.8-1.4-11.7c-0.5-3.9-1-7.8-1.5-11.8
			c-0.1-0.6-0.1-1.4,0.2-1.8c0.3-0.4,1.1-0.7,2.2-0.8c2.7-0.2,5.3-0.6,8-1.2c2.7-0.6,5.3-1.4,7.7-2.4c1.3-0.5,2.5-1.1,3.7-1.8
			c0.9-0.5,2.8-2.2,1.6-5.7c-0.7-2.1-2.1-3.3-3.9-3.4c-0.4,0-0.8,0-1.2,0c-0.8,0-1.7,0-2.6,0.1c-2.4,0.3-4.7,0.7-7,1
			c-2.2,0.3-4.6,0.7-7,1.2c-0.5,0.1-0.9,0.1-1.2,0.1c-0.8,0-1.1-0.2-1.1-0.3c-0.2-0.2-0.6-0.8-0.6-2.6c-0.1-9.1,0-18.3,0.3-27.3
			c0.3-9.1,0.9-18.3,1.8-27.3c0.4-4.1,2.5-6,6.8-6c2.8,0,5.5-0.2,8.1-0.5l7.7-1c0.9,0,1.8-0.3,2.8-0.8c1.4-0.7,2.1-2.2,2-4
			c0-1.3-0.7-2.4-1.7-3.1c-0.7-0.5-1.5-0.8-2.4-1c-2.9-1-5.8-1.7-8.8-1.9c-1.9-0.2-3.8-0.2-5.7-0.2c-0.9,0-1.8,0-2.6,0.1h-3.4
			c-5.3,0-9.4,0.5-12.4,1.6c-3.3,1.2-5.8,3.3-7.3,6.4c-1.5,2.9-2.5,7.1-3,12.8c-1.6,15.6-2.4,31.4-2.3,47
			c0.1,15.6,1.6,31.5,4.4,47.1c1,5.7,3,9.8,5.7,12.3c2.7,2.5,6.8,4,12.4,4.5c1.6,0.1,3.1,0.2,4.7,0.2c4.2,0,8.5-0.5,12.6-1.4
			c5.5-1.2,11-3.1,16.3-5.5c1-0.4,2.1-1,3.2-1.5c1.4-0.7,2.6-1.6,3.4-2.6c0.8-1,1.5-2.7,0.4-5.3
			C691.4,762.3,689.7,761.5,688.6,761.4z"/>
		<path class="st13" d="M747,722.6c-0.9-0.1-1.9-0.1-2.8-0.1c-3.1,0-6.1,0.5-9,1.4l-10.7,3.5l-0.1,0.1c-1.1,0.5-2.3,1-3.5,1.6
			c-1.9,0.9-2.8,2.8-2.6,5.3c0.4,3.1,2,4.4,3.3,5c1.3,0.6,2.7,1,4,1.4l0.2,0c0.9,0.2,1.8,0.2,2.7,0.2c1.4,0,2.7-0.2,4-0.5
			c1.9-0.5,3.9-1,6-1.5l0.1,0c0.4-0.1,0.8-0.2,1.1-0.3c0,0,0,0,0,0.1c-0.3,5.3-1.1,10.6-2.2,15.5c-1.1,4.7-3.4,9.1-6.8,13.1
			c-1.1,1.3-2.1,2-2.9,2c-1,0-2-1.4-2.7-2.6l-2.3-3.9c-0.7-1.2-1.3-2.4-1.8-3.8c-3.3-8-5.5-16.3-6.6-24.7
			c-1.1-8.4-1.1-17.1-0.1-25.8c0.7-6.7,2.3-13.1,4.8-19c2.4-5.9,6-11.2,10.7-15.8c2.1-2.2,4.3-3.8,6.7-4.8c0.7-0.3,1.4-0.4,2.1-0.4
			c1.5,0,3.2,0.6,4.9,1.7c0.9,0.6,1.9,1,3.1,1.2c0.2,0,0.3,0,0.5,0c1.4,0,2.5-0.7,3.3-2.1c1.7-2.5,0.7-4.4,0.2-5.1
			c-0.6-0.9-1.3-1.7-2-2.5c-1.2-1.3-2.6-2.4-4.2-3.1c-1.4-0.7-2.9-1.3-4.6-1.8c-2.4-0.7-4.9-1-7.2-1c-6.1,0-11.8,2.2-16.9,6.6
			c-8.5,7.2-14.7,15.7-18.5,25.2c-3.7,9.5-5.6,20.1-5.5,31.6c0.1,9.1,1,18,2.7,26.6c1.7,8.7,5.1,17,10.1,24.7
			c4.2,6.4,9.2,10.8,14.9,13.1c2.6,1,5.2,1.6,7.8,1.6c3.2,0,6.4-0.8,9.6-2.4c5.2-2.7,9.1-6.6,11.6-11.5c2.4-4.7,4.3-10,5.4-15.6
			c0.8-3.8,1.1-7.7,1-11.6c-0.1-3.7,0.1-7.3,0.5-10.9c0.4-3.7-0.3-6.4-1.9-8.1C751.9,723.8,749.8,722.9,747,722.6z"/>
		<path class="st13" d="M811.9,662.2c-4.8-3.6-10.7-6-17.5-7.3c-1.7-0.3-3.4-0.4-5-0.4c-3.1,0-6.2,0.5-9.1,1.4
			c-4.3,1.4-8.5,3.1-12.6,5.1c-1.9,0.8-3.3,1.9-4.3,3.2c-1.1,1.4-1.6,3.3-1.6,5.5c-0.1,2.5-0.2,4.9-0.2,7.3
			c-0.1,2.3-0.1,4.8-0.1,7.3c-0.3,12-0.3,24.2,0,36.2c0.3,11.6,0.6,23.8,0.8,36c0,1.3,0.2,2.7,0.5,4c0.3,1.2,0.6,2.5,0.9,3.7
			c0.7,2.4,1.9,4.1,3.7,5.1c1.4,0.8,3,1.2,4.7,1.2c0.3,0,0.5,0,0.7,0c4.5,0,7.2-2.7,7.7-7.7l0-0.1v-0.1c0-0.6,0.1-1.1,0.3-1.7
			c0.3-1,0.5-2,0.5-3.1c-0.1-2.1,0.3-2.8,0.5-2.9c0.3-0.2,0.8-0.3,1.9-0.3c0.6,0,1.2,0.1,2,0.2c4.6,0.6,9.4,1.1,14.1,1.5
			c1.3,0.1,2.6,0.2,3.8,0.2c3.6,0,7.3-0.5,10.9-1.3c1.2-0.3,2.4-0.6,3.5-1.2c1-0.4,2.7-1.7,2.7-4.8c0-2-0.7-3.6-2-4.7
			c-1-0.9-2.1-1.6-3.4-2.1c-1.3-0.6-2.6-0.8-4-0.8h-16.6c0.7-0.6,1.4-1.2,2.2-1.8c4.4-3.8,8.5-8,12.2-12.4
			c3.8-4.5,7.2-9.4,10.2-14.6c3.6-6.4,5.6-12.9,6.1-19.2c0.5-6.3-0.5-12.3-2.8-17.6C820.4,670.4,816.8,665.8,811.9,662.2z
			 M809.2,698.1c-2.4,5.7-5.5,10.9-9.3,15.5c-3.8,4.7-8.1,8.9-12.8,12.7c-1.3,1-2.6,2.5-3.9,4.2c-0.4,0.5-0.9,1.1-1.4,1.1
			c-0.1,0-0.3,0-0.4-0.1c-0.3-0.1-0.8-0.3-0.6-1.8c0.2-2.1,0.3-4,0.2-5.9c-0.8-8.4-1.4-16.9-2-25.1c-0.6-8.4-1.2-16.8-1.9-25
			c-0.2-2.7,1-3.4,2.3-3.8c1.9-0.6,3.8-1.1,5.8-1.5c1.9-0.4,3.6-0.6,5.1-0.6c9.6,0,16.2,2.8,19.6,8.4
			C813.3,681.8,813.1,689,809.2,698.1z"/>
		<path class="st13" d="M891.4,766.7c-0.4-0.1-0.7-0.1-1.1-0.1c-1.1,0-2.2,0.2-3.4,0.7c-1.4,0.6-2.6,1.1-3.6,1.7
			c-3.4,1.6-7,2.7-10.5,3.5c-3.6,0.7-7.3,1.1-11.1,1.1c-3.2,0-4.7-1.4-5-4.6c-0.4-4.1-0.9-8.2-1.4-12.3c-0.5-4.1-1-8.2-1.5-12.3
			c-0.1-0.7-0.1-1.6,0.2-2.1c0.4-0.6,1.4-0.8,2.2-0.8c2.7-0.2,5.3-0.7,8-1.3c2.7-0.6,5.3-1.5,7.7-2.5c1.3-0.5,2.5-1.1,3.7-1.9
			c0.9-0.6,2.7-2.3,1.6-5.8c-0.9-2.9-2.9-3.5-3.9-3.5c-0.4,0-0.8,0-1.2,0c-0.8,0-1.7,0-2.6,0.1c-2.4,0.4-4.7,0.7-7,1.1
			c-2.2,0.3-4.6,0.8-7,1.2c-0.4,0.1-0.8,0.1-1.2,0.1c-0.5,0-0.9-0.1-1.1-0.3c-0.2-0.2-0.6-0.9-0.6-2.9c-0.1-9.5,0-19.1,0.3-28.7
			c0.3-9.5,0.9-19.2,1.8-28.6c0.4-4.4,2.5-6.3,6.8-6.3c2.8,0,5.5-0.2,8.1-0.5l7.7-1c0.9,0,1.8-0.3,2.8-0.8c1.4-0.8,2.1-2.2,2-4
			c0-1.3-0.6-2.4-1.7-3.2c-0.7-0.5-1.5-0.9-2.4-1c-2.9-1.1-5.8-1.7-8.8-2c-1.9-0.2-3.8-0.2-5.7-0.2c-0.9,0-1.8,0-2.6,0.1h-3.4
			c-5.3,0-9.4,0.6-12.5,1.7c-3.3,1.2-5.8,3.5-7.3,6.7c-1.5,3.1-2.5,7.4-3,13.3c-1.6,16.4-2.4,32.9-2.3,49.2
			c0.1,16.3,1.6,33,4.4,49.4c1,5.9,2.9,10.2,5.7,12.8c2.7,2.6,6.9,4.2,12.4,4.7c1.6,0.1,3.1,0.2,4.7,0.2c4.2,0,8.5-0.5,12.6-1.5
			c5.5-1.3,11-3.2,16.3-5.7c1-0.5,2.1-1,3.2-1.6c1.4-0.7,2.6-1.6,3.4-2.7c0.7-1,1.4-2.8,0.4-5.4
			C894.2,767.8,892.6,766.9,891.4,766.7z"/>
		<path class="st13" d="M959.8,664c-1.1-1.3-2.4-2.5-3.8-3.5c-1.3-1-2.7-1.6-4.2-2c-1.3-0.3-2.6-0.6-4-0.8l-9.7-1.4
			c-3.3-0.5-6.6-0.8-9.8-1.1c-4-0.3-8.1-0.5-12.1-0.5c-0.7,0-1.3,0-2,0c-4.7,0.1-9.5,0.2-14,0.4c-1.3,0-2.5,0.3-3.7,0.7
			c-1,0.4-2.4,1.5-3,3.7c-0.8,2.5-0.1,4.3,0.6,5.3c0.7,1,1.6,2,2.6,3c2.2,1.9,4.9,2.9,7.9,3c1.3,0,2.5,0,3.8,0.1
			c1.3,0.1,2.6,0.1,4,0.1c1,0,2.3,0.2,2.9,0.9c0.5,0.7,0.5,1.9,0.4,2.9c-0.8,7.4-1,14.7-0.8,21.6c0.2,6.8,0.2,12.5,0,17.2v42.3
			c0,1.7,0.1,3.5,0.3,5.3c0.2,1.9,0.6,3.7,1.2,5.4c1,2.8,2.9,4.9,5.4,6.2c1.6,0.9,3.3,1.3,5.1,1.3c0.9,0,1.8-0.1,2.7-0.3
			c4.2-1,5.1-3.4,5.1-5.3c0-1.7-0.1-3.5-0.3-5.3l0-5.3c0.1-7.5,0.2-15,0.4-22.4c0.2-7.5,0.3-15,0.4-22.5v-18.9
			c0-6.3,0.1-12.5,0.2-18.7c0-2.8,1-3,2.1-3c0.2,0,0.4,0,0.6,0l7,0.7l6.8,0.7c1.4,0.2,2.9,0.4,4.3,0.5c0.1,0,0.2,0,0.4,0
			c1.2,0,3.4-0.5,4.4-4.1C961.8,667.4,960.8,665.3,959.8,664z"/>
		<path class="st13" d="M650.4,233c1.5-0.7,2.7-1.5,3.5-2.5c0.7-0.9,1.4-2.4,0.4-4.8c-0.9-2.1-2.2-3.3-3.9-3.5
			c-0.4-0.1-0.7-0.1-1.1-0.1c-1.1,0-2.2,0.2-3.4,0.7c-1.4,0.5-2.8,1.1-3.9,1.7c-3.7,1.6-7.6,2.7-11.5,3.4c-3.9,0.7-8,1.1-12,1.1
			c-3.7,0-5.5-1.5-5.9-4.9c-0.5-4-1-8-1.5-12.1c-0.5-4-1.1-8-1.7-12.1c-0.2-1.1,0-1.9,0.4-2.4c0.5-0.6,1.4-0.9,2.7-1
			c2.8-0.2,5.7-0.6,8.5-1.2c2.8-0.6,5.6-1.4,8.2-2.5c1.3-0.5,2.7-1.1,3.9-1.8c1-0.6,2.6-2.1,1.5-5.1c-0.9-2.6-2.8-3.1-3.8-3.1
			c-0.4,0-0.9,0-1.3,0c-0.9,0-1.8,0-2.7,0.1c-2.6,0.3-5.1,0.7-7.5,1c-2.4,0.3-4.9,0.7-7.5,1.2c-0.5,0.1-1,0.1-1.4,0.1
			c-0.7,0-1.3-0.1-1.6-0.4c-0.5-0.5-0.8-1.6-0.8-3.1c0-2.6,0-5.3,0-8l0,0c0-5.1,0.1-28.6,1.6-38.4c0-0.1,0-0.2,0-0.3
			c0.1-1.2,0.4-2.2,0.8-3c0.1-0.2,0.1-0.3,0.2-0.4c0,0,0.1-0.1,0.1-0.1c1.2-2.1,3.4-3.1,6.7-3.1c3,0,5.9-0.2,8.7-0.5l8.3-1
			c0.9,0,1.8-0.3,2.8-0.7c1.3-0.7,2-1.9,1.8-3.5c0-1.1-0.6-2.1-1.6-2.7c-0.8-0.5-1.6-0.8-2.4-1c-3.1-1-6.2-1.7-9.4-1.9
			c-2.1-0.2-4.1-0.2-6.1-0.2c-1,0-1.9,0-2.8,0.1h-3.7c-5.6,0-10.1,0.5-13.3,1.6c-3.4,1.1-6,3.3-7.6,6.4c-1.6,2.9-2.6,7.1-3.2,12.9
			c-0.2,1.7-0.3,3.3-0.5,5c-0.9,11.6-1.3,27-1.3,33.3c0,0.1,0,0.2,0,0.4c0.1,16,1.7,32.2,4.7,48.3c1.1,5.7,3.1,9.8,5.9,12.3
			c0.6,0.6,1.4,1.1,2.2,1.5c0,0,0,0,0,0c2.2-0.4,4.5-0.6,6.8-0.6c5.3,0,10.9,1.1,16.4,3.3c2.1-0.2,4.1-0.6,6.2-1
			c5.9-1.3,11.8-3.2,17.4-5.6C647.9,234.1,649.1,233.6,650.4,233z"/>
	</g>
	<g>
		<path class="st14" d="M832.7,512.3c2.1,0.1,4.2-0.7,6.2-1.2c1-0.2,2.1-0.4,3.1-0.7c1.2-0.3,2.3-0.7,3.4-1c2.4-0.7,4.9-1.4,7.4-2.1
			c2.4-0.7,4.8-1.5,7.1-2.3c4.6-1.7,9.3-3.3,13.9-5.2c5-2.1,9.9-4.2,14.8-6.5c2.2-1,4.5-2.2,6.7-3.2c2.1-1,4.3-1.9,6.3-3.1
			c2-1.1,4-2.3,5.9-3.6c1.1-0.7,2.1-1.3,3.1-2.1c1.4-1.1,2.8-2.3,4.2-3.4c-0.2,0.1-0.3,0.3-0.5,0.4c1.1-0.9,2.2-1.8,3.2-2.7
			c1.3-1.2,2.3-2.6,3.3-4c0.6-0.9,1-2.1,1.4-3.1c0.2-0.6,0.4-1.3,0.5-2c0.8-4-0.6-8.8-4.1-11c-0.8-0.5-1.7-0.9-2.6-1.2
			c-1-0.4-2.1-0.4-3.1-0.4c-0.1,0-0.2,0-0.2,0c-0.6,0-1.3,0.1-1.9,0.2c-1.6,0.2-3.2,0.4-4.7,0.7c-2.8,0.6-5.5,1.6-8.1,2.8
			c-4.5,2-8.8,4.6-13,7.2c-4.5,2.8-9,5.8-13.3,8.9c-3,2.2-6,4.3-9,6.4c-3.1,2.1-6.2,4.2-9.2,6.3c-3.3,2.4-6.7,4.8-10.1,7.1
			c-0.6,0.4-1.2,0.8-1.8,1.1c-1.5,0.8-3,1.6-4.5,2.3c-2,1-4,2-5.9,3.2c-1.4,0.8-2.8,1.9-3.5,3.4c-0.5,1-0.7,1.8-0.7,2.9
			c0,1.2,0.3,1.8,0.7,2.9C828.6,511.3,830.8,512.3,832.7,512.3z"/>
		<path class="st14" d="M960.7,539.6c0-1.5-0.2-2.7-0.7-4.1c-1.9-5.4-6.5-8.9-11.1-11.4c-1.5-0.8-3.1-1.4-4.7-1.9
			c-2.3-0.8-4.7-1.4-7.1-1.7c-2.8-0.4-5.5-0.6-8.3-0.6c-1.5,0-2.9,0-4.4,0.1c-7.9,0.3-15.8,1.3-23.8,1.8c-7.8,0.5-15.6,2-23.4,3.3
			c-9.1,1.5-18.1,3.7-27.2,5.6c-8.2,1.7-16.3,3.6-24.5,5.2c-1.4,0.1-2.8,0.5-4,1.3c-1.5,1.1-2.4,2.8-1.8,4.7
			c0.4,1.3,1.2,2.3,2.3,3.1c1.7,1.3,4.6,2.3,6.8,1.9c0.3-0.1,0.7-0.1,1.1-0.2c0.4,0,0.9,0,1.3,0.1c2.7,0.2,5.4,0.3,8,0.6
			c4.5,0.5,9.1,0.5,13.6,0.7c4.4,0.3,8.8,0.6,13.2,0.8c3.5,0.3,7,0.7,10.6,1c3.5,0.3,7.1,0.7,10.6,1.2c7.2,1.1,14.3,2.1,21.5,2.7
			c7.7,0.5,15.4,1.6,23.1,1.5c3.6,0,7.1-0.3,10.6-0.7c4.5-0.6,9.6-1.9,13.2-5c1.3-1.2,2.6-2.5,3.4-4.1c0.6-1.2,1.1-2.5,1.5-3.9
			C960.7,540.9,960.7,540.3,960.7,539.6z"/>
		<path class="st14" d="M914.3,618.5c-0.6-1.6-1.3-3.2-2-4.8c-1.3-2.7-3.1-5.1-5.1-7.2c-1.8-1.9-3.7-3.6-5.6-5.3
			c-2.3-2.1-4.6-4-7-5.9c-8.7-6.9-17.6-13.7-27.6-18.6c-6.3-3.1-12.5-6.1-18.9-9c-2.8-1.3-5.7-2.4-8.6-3.6c-3.1-1.2-6.1-2.5-9.2-3.8
			c-0.4-0.2-0.8-0.2-1.3-0.2c-0.9,0-1.9,0.3-2.7,0.8c-1.2,0.7-2,1.9-2.4,3.2c-0.1,0.5-0.2,1.1-0.2,1.6c-0.1,0.5-0.2,1-0.2,1.5
			c0.1,1.6,0.5,3.1,1.6,4.2c0.5,0.5,1,0.9,1.5,1.4c1.3,1.1,2.5,2.2,3.8,3.2c1.3,1,2.6,1.9,3.9,2.9c4.6,3.8,9.4,7.4,14,11.1
			c4.1,3.4,8.1,6.8,12.2,10.2c7.2,6,13.9,12.5,20.7,19.1c4.1,3.9,8,8,12.4,11.5c2.4,1.9,5.3,3.1,8.2,3.6c1.3,0.2,2.7,0.5,4,0.5
			c1.7,0,3.6-0.7,5-1.6c3.3-2.1,4.6-6.5,4.1-10.4C915.1,621.4,914.8,620,914.3,618.5z"/>
		<path class="st14" d="M246.1,453.6c0.3,1,0.7,2.3,1.3,3.2c1,1.5,1.9,2.9,3.2,4.1c1,1,2,1.9,3.1,2.9c-0.2-0.1-0.3-0.3-0.5-0.4
			c1.3,1.2,2.7,2.4,4,3.6c1,0.8,2,1.5,3.1,2.2c1.9,1.3,3.8,2.6,5.8,3.8c2,1.2,4.1,2.3,6.2,3.4c2.2,1.1,4.4,2.3,6.6,3.5
			c4.8,2.5,9.7,4.9,14.6,7.2c4.5,2.1,9.1,3.9,13.7,5.8c2.3,0.9,4.7,1.9,7,2.7c2.4,0.8,4.9,1.6,7.3,2.4c1.1,0.4,2.3,0.8,3.4,1.1
			c1,0.3,2.1,0.5,3.1,0.8c2,0.6,4.1,1.4,6.2,1.4c1.9,0,4.1-0.8,5.1-2.7c0.5-1,0.8-1.7,0.9-2.8c0-1.1-0.2-1.9-0.6-2.9
			c-0.7-1.5-2.1-2.7-3.4-3.6c-1.8-1.2-3.8-2.3-5.7-3.4c-1.5-0.8-2.9-1.7-4.4-2.5c-0.6-0.4-1.2-0.8-1.8-1.2c-3.3-2.4-6.6-5-9.8-7.5
			c-3-2.3-6-4.4-9-6.7c-2.9-2.2-5.9-4.5-8.8-6.8c-4.2-3.3-8.5-6.5-13-9.5c-4.1-2.7-8.3-5.6-12.7-7.8c-2.6-1.3-5.2-2.5-8-3.2
			c-1.6-0.4-3.1-0.7-4.7-0.9c-0.6-0.1-1.3-0.2-1.9-0.2c-0.1,0-0.2,0-0.2,0c-1,0-2.2-0.1-3.2,0.3c-0.9,0.3-1.8,0.6-2.6,1.1
			c-3.6,2.1-5.1,6.8-4.5,10.9C245.8,452.3,245.9,453,246.1,453.6z"/>
		<path class="st14" d="M344.2,526.5c-1.2-0.8-2.5-1.3-4-1.5c-8.1-2-16.2-4.2-24.2-6.2c-9-2.3-17.9-4.9-27-6.8
			c-7.7-1.6-15.4-3.4-23.2-4.3c-7.9-0.9-15.8-2.1-23.7-2.8c-1.4-0.1-2.9-0.2-4.3-0.3c-2.8-0.1-5.6-0.1-8.3,0.2
			c-2.4,0.2-4.8,0.7-7.1,1.4c-1.6,0.5-3.2,0.9-4.8,1.7c-4.7,2.3-9.5,5.6-11.6,10.9c-0.5,1.3-0.7,2.6-0.8,4c0,0.7-0.1,1.4,0,2
			c0.3,1.4,0.7,2.7,1.3,3.9c0.8,1.6,2,3,3.3,4.3c3.5,3.3,8.5,4.8,13,5.6c3.5,0.6,7,1,10.6,1.2c7.7,0.4,15.4-0.3,23.1-0.5
			c7.2-0.2,14.4-1,21.6-1.7c3.5-0.4,7.1-0.6,10.6-0.7c3.5-0.2,7.1-0.4,10.6-0.5c4.4,0,8.8-0.2,13.2-0.3c4.5,0,9.1,0.1,13.7-0.1
			c2.7-0.2,5.4-0.2,8.1-0.3c0.4,0,0.9,0,1.3,0c0.3,0.1,0.7,0.2,1,0.2c2.2,0.5,5.1-0.4,6.9-1.7c1.1-0.7,1.9-1.7,2.4-3
			C346.4,529.3,345.6,527.6,344.2,526.5z"/>
		<path class="st14" d="M340.6,553.4c-0.3-1.4-1.1-2.6-2.3-3.3c-0.7-0.5-1.7-0.8-2.7-0.9c-0.4,0-0.9,0-1.3,0.2
			c-3.1,1.1-6.2,2.3-9.3,3.4c-2.9,1-5.8,2.1-8.7,3.2c-6.5,2.6-12.8,5.3-19.2,8.1c-10.1,4.5-19.2,10.8-28.2,17.3
			c-2.4,1.8-4.9,3.6-7.2,5.6c-2,1.6-4,3.2-5.8,5c-2.1,2-3.9,4.4-5.3,7c-0.8,1.5-1.5,3.1-2.2,4.7c-0.6,1.5-0.9,2.8-1.2,4.4
			c-0.6,3.8,0.5,8.3,3.7,10.6c1.4,1,3.2,1.8,5,1.9c1.4,0.1,2.7-0.1,4-0.3c3-0.4,5.9-1.5,8.3-3.3c4.5-3.3,8.6-7.3,12.8-11
			c7-6.2,14-12.5,21.4-18.2c4.2-3.2,8.4-6.5,12.6-9.7c4.8-3.6,9.7-6.9,14.4-10.5c1.3-0.9,2.6-1.8,4-2.7c1.4-0.9,2.6-2,3.9-3.1
			c0.5-0.4,1.1-0.9,1.6-1.3c1.2-1.1,1.6-2.6,1.8-4.1c0.1-0.5,0-1-0.1-1.5C340.8,554.5,340.8,554,340.6,553.4z"/>
	</g>
	<g>
		<path class="st14" d="M480.3,613.5c-3.3-1.9-6.8-3.3-10.3-4.3c-1.3-0.3-2.8-0.5-4.4-0.8c-1.6-0.2-3.2-0.3-4.8-0.1
			c-7.8-0.2-15.7-0.3-23.5-0.4c-7.8-0.1-15.7,0-23.6,0.3c-2.6,0.1-4.7-0.2-6.4-0.8c0,0,0.1,0,0.1,0.1c-7-2.4-6.1-12-6.2-16.7h0
			c-0.2-9-0.4-18.1-0.8-27.1c-0.4-10.6-0.8-21.2-1.2-31.8c-0.7-17.8-1.5-35.5-2.3-53.1c-0.8-17.7-1.5-35.2-2.3-52.8
			c-0.2-4.9-1.8-8.5-4.6-10.8c-2.8-2.2-6.3-3.5-10.4-3.7c-4.1-0.2-6.8,1-8.3,3.8c-1.5,2.8-2.4,6-2.8,9.6c-0.4,3.9-0.7,7.9-0.9,12
			c-0.2,4.1-0.4,8-0.6,12c0.8,27.4,0.5,54.6-0.6,81.8c-1.1,26.4-0.5,52.7,1.9,79.2c1.1,8.3,3.8,19,11.2,24.8c0.1,0,0.1,0.1,0.2,0.1
			c0.3,0.2,0.6,0.5,1,0.7c0.2,0.1,0.4,0.3,0.6,0.4c0.3,0.2,0.6,0.3,0.9,0.5c0.2,0.1,0.3,0.2,0.5,0.3c2.7,1.3,5.8,2.1,9.6,2.1
			c2.1,0,4.3-0.4,6.6-1c11.7-3.2,23.4-5.2,35-5.7c11.7-0.6,23.3-1.3,35-2c2.8-0.1,6-0.2,9.6-0.2c3.6,0,5.7-2.2,6.2-6.5
			C485.1,618.7,483.6,615.4,480.3,613.5z"/>
		<path class="st14" d="M579.6,609c-1.9-0.9-4.1-1.3-6.8-1.2c-2.7,0.1-5.1,0.2-7.3,0.2c-3.8,0.2-6.4-0.5-8-2.2
			c-1.5-1.7-2.3-4.4-2.3-8c-0.9-22.1-1.7-44.2-2.5-66.3c-0.8-22.1-1.6-44.2-2.5-66.3h-0.3c0-5.2,0.1-10.5,0.3-15.9
			c0.2-5.4,0.1-10.6-0.3-15.9c-0.7-4.8-0.2-8,1.3-9.6c1.2-1.2,3.3-1.6,6.3-1c-0.1-0.6-0.2-1.2-0.3-1.9c-0.4-3.4-0.6-6.7-0.4-10
			c-8-1.2-16-1.9-24-2c-9.8-0.1-19.7,0.2-29.7,0.9c-2.4,0.2-5,0.7-7.6,1.5c-2.7,0.8-3.9,2.8-3.6,6c0.2,3.4,1.7,5.4,4.5,6
			c2.8,0.6,5.5,0.9,8.1,0.9c1.3,0,2.4-0.1,3.3-0.3c4.6-1.4,7.8-1.2,9.6,0.5c1.8,1.7,2.7,5,2.7,9.7c-0.7,26.4-0.6,52.9,0.3,79.3
			c0.9,26.4,2.4,52.9,4.6,79.3c0.4,5.9,0.1,10.9-1,15c-1.1,4.1-5.2,6.6-12.3,7.5c-1.8,0.2-3.4,1.1-5,2.6c-1.5,1.5-2.2,3.4-2,5.6
			c0.4,2.7,1.6,4.6,3.5,5.5c1.9,0.9,3.9,1.5,6.1,1.7c2.7,0.2,5.3,0,8-0.7c6.9-2.3,13.9-3.8,21.1-4.6c7.2-0.8,14.4-1.4,21.7-1.9
			c2.4-0.2,5-0.4,7.8-0.5c2.8-0.1,5.1-0.7,7-1.9c1.9-1.1,2.8-3.3,2.8-6.5C582.6,611.7,581.5,609.9,579.6,609z"/>
		<path class="st14" d="M714.5,487.2c-0.6-11.3-2.1-20.9-4.6-28.9c-2.4-8-5.9-15.5-10.5-22.4c-6.7-9.9-15.2-16.5-25.3-19.8
			c-1.6-0.5-3.2-0.9-4.8-1.3l0,0c-12.8-3-25.9-1.1-36.9,4.2c-1.5,2.4-3,4.7-4.6,7c-4.4,6.2-9.8,11.5-16.1,15.8
			c-1.4,1-2.9,1.8-4.4,2.6c-0.6,1.3-1,2.6-1.5,4c0,0,0,0,0,0c-1.6,4.7-2.7,9.8-3.1,15.4c-1.3,14.1-0.2,27.2,3.2,39.3
			c1.3,4.2,2.6,7.8,3.9,11.1c0,0.1,0.1,0.2,0.1,0.3c0.2,0.4,0.3,0.8,0.5,1.2c0.6,1.5,1.3,2.9,2,4.4c0,0,0,0,0,0
			c6.5,13.4,13.4,18.4,21.3,30.5c0.1,0.1,0.2,0.3,0.3,0.4c1.2,1.6,2.4,3.2,3.5,4.9c5.9,8.4,10.7,17.5,14.4,27.3
			c1.5,3.6,2.7,7.1,3.5,10.6c0.8,3.5,0.7,7.1-0.2,11c-1.5,6.5-4.9,8.2-9.9,5c-3.3-1.9-6.2-4.3-8.8-7c-2.5-2.8-4.9-5.8-7.1-9.2
			c-2.2-3.1-4.8-4.7-7.8-4.9c-3-0.1-5.9,0.5-8.8,2c-5.5,2.6-7.6,7.1-6.3,13.3c1.1,4.3,3.8,8.9,8,13.9c4.2,4.9,9.1,9.2,14.6,12.8
			c5.5,3.6,10.6,5.6,15.3,6.1c19.9,1.9,33.6-6.4,41.1-24.8c3.8-9.1,4.8-17.9,3-26.3c-1.8-8.4-4.6-16.7-8.6-24.8
			c-2.1-4.1-4.4-8.2-6.8-12.1c-0.4-0.6-0.7-1.1-1-1.7c-0.8-1.2-1.5-2.4-2.3-3.7c-0.5-0.8-1-1.5-1.5-2.3c-0.8-1.2-1.7-2.5-2.5-3.7
			c-8.8-12.6-16.2-20.3-19.9-29.1c0,0,0,0,0,0c-8.1-15.9-11.4-33.7-9.9-53.4c1.1-13,8-19.4,20.9-19c6.9,0,12.2,2.3,16,6.7
			c3.8,4.4,7.2,9.3,10.1,14.7c5.7,10.4,9.1,21.3,10.4,32.7c1.3,11.3,1.3,22.9-0.1,34.8c-0.1,1.7-0.3,3.4-0.4,5.1
			c-0.1,1.7,0.6,3,2.2,3.8c1.6,1.1,3.2,1.3,4.8,0.6c1.6-0.7,3.2-1.6,4.7-2.6c1.9-1.6,3.4-3.4,4.5-5.5c1.1-2.1,2.1-4.4,3.1-6.9
			c1.9-5.2,2.8-10.5,2.6-15.9C714.4,497.9,714.3,492.5,714.5,487.2z"/>
		<path class="st14" d="M838.8,441.6c-3.8-5.9-6-12-6.5-18.1c-2.3-0.5-4.5-0.9-6.8-1.3c-6.6-0.9-13.3-1.8-19.9-2.7
			c-6.6-0.9-13.3-1.6-19.9-2c-9.5-0.7-19.1-1-28.7-0.8c-9.6,0.1-19.2,0.4-28.7,0.8c-2.2,0-4.3,0.4-6.3,1.2c-2,0.8-3.3,2.4-4,4.9
			c-0.9,2.7-0.7,5,0.7,6.8c1.3,1.8,2.9,3.5,4.6,5.1c4,3.2,8.6,4.9,13.9,5.1c2.7,0,5.3,0.1,8,0.2c2.7,0.1,5.3,0.2,8,0.2
			c8,0,11.4,3.8,10.3,11.5c-1.5,14.2-2.1,27.9-1.7,41.1c0.4,13.2,0.4,24.3,0,33.3c0,16.9,0,31.7,0,44.5c0,12.7,0,25.1,0,37
			c0,3.2,0.2,6.4,0.7,9.8c0.4,3.4,1.2,6.5,2.3,9.5c1.8,4.5,4.9,7.8,9.3,10c4.4,2.1,9,2.7,13.6,1.5c5.1-1.1,7.6-3.3,7.6-6.6
			c0-3.3-0.2-6.6-0.7-10c0-1.8,0-3.6,0-5.2c0-1.7,0-3.4,0-5.2c0.2-14.4,0.5-28.9,0.8-43.3c0.3-14.4,0.6-28.9,0.8-43.3
			c0-12.2,0-24.3,0-36.4c0-12.1,0.1-24.1,0.3-36c0-7,3.2-10.1,9.6-9.5c4.9,0.5,9.7,0.9,14.4,1.4c4.8,0.5,9.5,0.9,14.1,1.4
			c2.9,0.5,5.7,0.8,8.6,1c0.1,0,0.2,0,0.2,0C841.9,445.6,840.3,443.7,838.8,441.6z"/>
	</g>
</g>
</svg>
