<?xml version="1.0" encoding="utf-8"?>
<!-- Generator: Adobe Illustrator 23.0.3, SVG Export Plug-In . SVG Version: 6.00 Build 0)  -->
<svg version="1.1" id="Layer_1" xmlns="http://www.w3.org/2000/svg" xmlns:xlink="http://www.w3.org/1999/xlink" x="0px" y="0px"
	 viewBox="0 0 1133.9 1133.9" style="enable-background:new 0 0 1133.9 1133.9;" xml:space="preserve">
<style type="text/css">
	.st0{fill:#1E2121;}
	.st1{fill:#A81F26;}
	.st2{fill:#F2F1F2;}
	.st3{fill:#DD353A;}
	.st4{fill:#CFCFCE;}
	.st5{fill:#1D2121;}
	.st6{fill:none;}
	.st7{fill:#AA1F23;}
	.st8{fill:#FDFEFE;}
	.st9{fill:#EE742C;}
	.st10{fill:#BA5234;}
	.st11{fill:#ED1C24;}
	.st12{fill:#C42C3A;}
	.st13{fill:#058743;}
	.st14{fill:#0F4D70;}
	.st15{fill-rule:evenodd;clip-rule:evenodd;fill:#C42C3A;}
	.st16{fill-rule:evenodd;clip-rule:evenodd;fill:#1E2121;}
	.st17{fill:#E8E8E8;}
	.st18{fill:#186634;}
	.st19{fill:#BF2730;}
	.st20{fill:#B47A48;}
	.st21{fill:#3E1E14;}
	.st22{fill:#DBAD5D;}
	.st23{fill:#B84947;}
	.st24{fill:#C3976E;}
	.st25{fill:#9D2023;}
	.st26{fill:#3C2517;}
	.st27{fill:#4A3A31;}
	.st28{fill:#EDAD4F;}
	.st29{fill:#F8C018;}
</style>
<g>
	<g>
		<path d="M544.4,630.7L544.4,630.7c-8.1,0-15.1-6-16.3-14.2l0,0c-1.3-9,5-17.3,14-18.6l0,0c9-1.3,17.4,5,18.6,14l0,0
			c1.3,9-5,17.3-14,18.6C545.9,630.7,545.2,630.7,544.4,630.7z M495.2,630.4L495.2,630.4c-0.8,0-1.7-0.1-2.6-0.2l0,0
			c-9-1.4-15.2-9.8-13.7-18.8l0,0c1.4-9,9.8-15.1,18.8-13.7l0,0c9,1.4,15.1,9.8,13.7,18.8C510.2,624.5,503.2,630.4,495.2,630.4z
			 M591.7,616.9L591.7,616.9c-6.3,0-12.3-3.6-15-9.7l0,0c-3.8-8.3-0.1-18.1,8.2-21.8l0,0l0,0l0,0c8.3-3.8,18.1-0.1,21.8,8.2l0,0
			c3.8,8.3,0.1,18.1-8.2,21.8C596.3,616.5,594,616.9,591.7,616.9z M448,615.9L448,615.9c-2.3,0-4.7-0.5-7-1.6l0,0
			c-8.3-3.8-11.8-13.7-8-21.9l0,0c3.8-8.2,13.7-11.8,21.9-8l0,0c8.3,3.8,11.8,13.7,8,21.9C460.2,612.4,454.2,615.9,448,615.9z
			 M633.4,590.6L633.4,590.6c-4.7,0-9.3-2-12.6-5.8l0,0c-5.9-6.9-5.1-17.3,1.9-23.2l0,0l0,0l0,0c6.9-5.9,17.3-5.1,23.2,1.9l0,0
			c5.9,6.9,5.1,17.3-1.9,23.2C641,589.3,637.2,590.6,633.4,590.6z M406.5,589.3L406.5,589.3c-3.8,0-7.6-1.3-10.7-4l0,0
			c-6.9-5.9-7.7-16.3-1.7-23.2l0,0c5.9-6.9,16.3-7.7,23.2-1.7l0,0c6.9,5.9,7.7,16.3,1.7,23.2C415.8,587.3,411.1,589.3,406.5,589.3z"
			/>
	</g>
	<path d="M541.2,441.3c0,18.3,14.8,33.1,33.1,33.1c18.3,0,33.1-14.8,33.1-33.1c0-18.3-14.8-33.1-33.1-33.1
		C556,408.1,541.2,423,541.2,441.3z M569.8,432.5c0-6.8,5.5-12.3,12.3-12.3c6.8,0,12.3,5.5,12.3,12.3s-5.5,12.3-12.3,12.3
		C575.3,444.9,569.8,439.3,569.8,432.5z"/>
	<path d="M425.3,441.3c0,18.3,14.8,33.1,33.1,33.1c18.3,0,33.1-14.8,33.1-33.1c0-18.3-14.8-33.1-33.1-33.1
		C440.1,408.1,425.3,423,425.3,441.3z M453.9,432.5c0-6.8,5.5-12.3,12.3-12.3s12.3,5.5,12.3,12.3s-5.5,12.3-12.3,12.3
		S453.9,439.3,453.9,432.5z"/>
	<g>
		<path class="st9" d="M548.6,550.4c31.4-3,118.6-34.2,130-42.3c2-1.4,6.2-3.6,6.7-6.3c2.3-11.6-81.7-6-91.2-5
			c-13.5,1.3-27,2.7-40.4,5.1c-10.7,1.9-23.7,3.7-31.8,11.6c-4.7,4.6-6.2,11.1-5.1,17.5c1.2,6.7,3.3,14.1,9.5,17.8
			C532.7,552.4,541.6,551,548.6,550.4C548.5,550.4,548.5,550.4,548.6,550.4z"/>
		<path class="st10" d="M543.8,534.6c-2.1-5.3-2.7-11-2.7-16.6c0-3.6-0.2-9,2.2-11.9c0.1-0.1,0.2-0.1,0.2,0.1
			c-2.7,9-0.4,19,1.3,27.9C544.8,534.5,544,535.2,543.8,534.6z"/>
		<path class="st10" d="M558.3,545.7c-2.6-5.7-3.9-11.4-4.2-17.7c0-0.1,0.3-0.3,0.3-0.1c0.5,2.9,1,5.8,1.8,8.7
			c0.8,2.9,2.3,5.6,2.8,8.6C559.2,545.4,558.5,546.1,558.3,545.7z"/>
		<path class="st10" d="M563.1,541.8c-0.5-1.1-0.8-2.3-1-3.5c-0.2-1.3-0.1-2.7-0.7-3.9c0-0.1,0.1-0.3,0.2-0.2
			c0.5,0.9,0.7,1.7,0.8,2.7c0.3,1.5,0.9,2.9,1.3,4.5C563.8,541.6,563.3,542.1,563.1,541.8z"/>
		<path class="st10" d="M572.7,525.1c-1.7-6.7-2-13.7-1.1-20.5c0-0.2,0.4-0.4,0.4-0.1c0.3,6.8,1,13.5,1.5,20.3
			C573.4,525.1,572.8,525.6,572.7,525.1z"/>
		<path class="st10" d="M576.7,510.8c-0.3-2.3,0.3-4.7,0.4-7c0-0.1,0.1-0.2,0.2-0.1c0.6,2.1,0.6,4.5,0.3,6.7
			C577.5,510.8,576.8,511.4,576.7,510.8z"/>
		<path class="st10" d="M609.5,531.9c-0.8-1.5-1.4-3.1-2-4.8c-0.6-1.7-0.8-3.5-1.4-5.2c0-0.1,0.2-0.3,0.3-0.2c1,1.5,1.4,3.1,2.1,4.7
			c0.7,1.6,1.4,3.2,1.8,4.9C610.5,531.7,609.8,532.4,609.5,531.9z"/>
		<path class="st10" d="M621.8,505.3c-0.3-1.3-0.6-2.9-0.2-4.2c0,0,0,0,0,0c0-0.1,0-0.1,0.1-0.2c0,0,0,0,0,0c0,0,0,0,0,0l0,0
			c0.1-0.1,0.3-0.3,0.4-0.1c0.2,0.6,0.1,1.3,0.3,2c0.1,0.7,0.2,1.4,0.3,2.1C622.7,505.3,622,505.9,621.8,505.3z"/>
		<path class="st10" d="M633.9,508c-0.3-1.3-1.4-10.2-0.1-10.1c0,0-0.1,0-0.1,0c0,0,0,0,0,0c-0.2-0.3,0.4-0.7,0.5-0.4
			c0.5,3.3,0.5,6.9,0.4,10.2C634.6,508,634,508.5,633.9,508z"/>
		<path class="st10" d="M650.2,517.7c-1.1-1.6-0.6-3.7-1.2-5.5c0-0.1,0.1-0.2,0.2-0.1c0.5,0.6,0.8,1.5,1,2.2c0.3,1,0.8,1.9,0.7,2.9
			C651,517.6,650.5,518.1,650.2,517.7z"/>
		<path class="st10" d="M655.9,515.4c-0.9-1-1.1-2.5-1.5-3.8c-0.3-1.1-1-3.4-0.6-4c0,0-0.1,0-0.1,0c0-0.1,0-0.1,0-0.2
			c0-0.1,0.2-0.4,0.3-0.2c0.7,1.1,1.1,2.4,1.6,3.6c0.6,1.3,1.3,2.7,1.1,4.1C656.7,515.1,656.2,515.7,655.9,515.4z"/>
	</g>
	<path class="st11" d="M513,77.3l-0.6-0.5l0,0.3l0.3,0.2C512.8,77.3,512.9,77.3,513,77.3z"/>
	<path class="st11" d="M513,77.3c-0.1,0-0.2,0-0.3,0l-0.3-0.2l0,0.3C512.6,77.4,512.8,77.4,513,77.3L513,77.3z"/>
	<path class="st11" d="M513.2,370.4c0.1,0,0.1,0,0.2,0c-1.4,0.1-2.7,0.2-4.1,0.3C510.6,370.5,511.9,370.5,513.2,370.4z"/>
	<path class="st11" d="M386.8,96.6c0.6-0.2,1.1-0.3,1.7-0.5c0.3-0.1,0.6-0.2,0.9-0.3c0.3-0.1,0.5-0.1,0.8-0.2c5.7-1.7,12-3.3,19-4.8
		c1.4-0.3,2.7-0.6,4.1-0.9c3.7-0.8,7.6-1.6,11.6-2.3c3.9-0.7,7.8-1.4,11.9-2.1c3.9-0.7,8-1.3,12.1-1.9c3.8-0.6,7.6-1.1,11.5-1.6
		c8-1,16.2-2,24.7-2.8c1-0.1,2-0.2,3-0.2c-0.9,0.1-1.8,0.1-2.6,0.2c-8.5,0.8-16.8,1.7-24.7,2.7c-3.9,0.5-7.8,1-11.5,1.5
		c-4.1,0.6-8.2,1.2-12.1,1.9c-4.1,0.7-8.1,1.3-11.9,2.1c-4,0.7-7.9,1.5-11.6,2.3c-1.4,0.3-2.8,0.6-4.1,0.9c-7,1.5-13.3,3.1-19,4.8
		c-0.3,0.1-0.5,0.2-0.8,0.2c-0.3,0.1-0.6,0.2-0.9,0.3c-0.5,0.2-1.1,0.3-1.7,0.5c-3.5,1.2-6.4,2.6-8.8,4.2c-1,0.8-1.9,1.6-2.7,2.4
		c0.7-0.8,1.6-1.5,2.5-2.2C380.4,99.2,383.3,97.7,386.8,96.6z"/>
	<path class="st1" d="M671.1,258.1c-0.9-1.9-1.9-3.6-3.2-5c-1.6-1.8-3.6-3.2-5.9-4c-4.2-1.5-8.8-1.9-14-1.5
		c-5.5,0.5-14.3,1.6-24.9,6c-3.1,1.3-6.3,2.9-9.6,4.8c0-0.2-0.1-0.4-0.1-0.5c0,0,0-0.1,0-0.1c0-0.1,0-0.2-0.1-0.3
		c-0.3-1.7-0.7-3.4-1-5c-0.4-2-0.7-3.9-1.1-5.8c-0.2-1.2-0.4-2.3-0.6-3.5c-0.3-1.9-0.6-3.7-0.9-5.5c-0.3-1.7-0.5-3.4-0.7-5
		c-0.2-1.1-0.3-2.2-0.4-3.3c-0.1-0.7-0.2-1.3-0.2-2c-0.2-1.6-0.4-3.1-0.5-4.6c-0.2-2.3-0.5-4.5-0.6-6.6l-0.1-0.9l-0.1-0.7
		c-0.2-3-0.4-5.8-0.6-8.5c-0.3-5.6-0.5-10.5-0.5-14.9c0,0,0-15.2,1.1-46.9c0.1-3.7,0.3-7.6,0.5-11.7c0.1-1.4,0.1-2.9,0.2-4.3
		c0,0,0,0,0,0c0.1-1.5,0.1-3,0.2-4.6l0,0c0-0.9,0.1-1.8,0.1-2.6c0.2-3.2,0.3-6.1,0.6-8.7c0-0.8,0-1.7-0.1-2.6
		c-0.3-10.2-2.8-21.5-11.8-27.3c-0.6-0.4-1.2-0.7-1.9-1.1c-2.7-1.2-5.8-2.1-9.5-2.6c-0.6-0.1-1.2-0.1-1.7-0.2
		c-0.3,0-0.6-0.1-0.9-0.1c-0.3,0-0.5-0.1-0.8-0.1c-5.3-0.6-11.1-1-17.5-1.3c-3-0.1-6-0.3-9.2-0.3c-4.6-0.1-9.5-0.2-14.5-0.1
		c-4.6,0-9.3,0.1-14.1,0.2c-4.5,0.1-9,0.3-13.7,0.5c-0.2,0-0.4,0-0.6,0c-7.9,0.4-16,0.9-24.3,1.6c-1,0.1-2,0.2-3,0.2
		c-8.5,0.8-16.8,1.7-24.7,2.8c-3.9,0.5-7.8,1-11.5,1.6c-4.1,0.6-8.2,1.2-12.1,1.9c-4.1,0.7-8.1,1.4-11.9,2.1
		c-4,0.7-7.9,1.5-11.6,2.3c-1.4,0.3-2.8,0.6-4.1,0.9c-7,1.6-13.3,3.2-19,4.8c-0.3,0.1-0.5,0.2-0.8,0.2c-0.3,0.1-0.6,0.2-0.9,0.3
		c-0.5,0.2-1.1,0.3-1.7,0.5c-3.5,1.2-6.4,2.6-8.8,4.2c-0.9,0.7-1.7,1.4-2.5,2.2c-5.5,5.8-6.8,13.8-6.3,21.7c0.2,3.1,0.6,6.1,1.2,9
		c0.5,1.6,0.9,3.4,1.4,5.2c0.5,1.8,1,3.8,1.5,5.8l0,0c0.4,1.5,0.7,3,1.1,4.5c0,0,0,0,0,0c0.4,1.6,0.8,3.2,1.1,4.8
		c1.2,5.3,2.4,10.1,3.4,14.6c6.6,28.3,9.2,42.1,9.2,42.1c0.8,4.2,1.6,9,2.3,14.3c0,0.4,0.1,0.8,0.2,1.1c0.3,2.5,0.6,5.2,0.9,7.9
		c0.1,0.5,0.1,1,0.2,1.5c0.1,1,0.2,2.1,0.3,3.2c0,0,0,0.1,0,0.1c0,0,0,0.1,0,0.1l0,0.3c0,0,0,0,0,0c0,0.1,0,0.3,0,0.4
		c0,0.4,0.1,0.7,0.1,1.1c0.3,3.4,0.6,7,0.8,10.8c0,0.3,0,0.7,0,1c0,0.5,0.1,1.1,0.1,1.7c0,0.6,0.1,1.1,0.1,1.7
		c0.1,0.9,0.1,1.8,0.1,2.8c0.1,1.8,0.1,3.7,0.2,5.6c0,0.2,0,0.4,0,0.7c0,0.1,0,0.2,0,0.4c0,0.6,0,1.1,0,1.7c0.1,3.1,0.1,6.4,0,9.7
		c0,0.4,0,0.7,0,1.1c0,0.1,0,0.2,0,0.2c-6.5-2.3-12.5-3.6-17.8-4.3c-7.7-1-13.9-0.6-18.1-0.2c-5.2,0.5-9.6,1.8-13.5,3.9
		c-1.9,1.1-3.4,2.5-4.6,4.3c-1.4,2-2.3,4.4-2.8,7.2c-0.7,3.7-0.5,8,0.6,12.6c0.5,2.1,1.1,4.2,1.9,6.3c0.9,2.3,1.9,4.6,3.2,6.8
		c0.4,0.7,0.8,1.4,1.2,2c0.2,0.4,0.4,0.7,0.7,1.1c0.7,1.1,1.4,2.2,2.2,3.3c7.8,10.9,19.6,20.8,34.2,28.7c0,0,0,0,0,0
		c2.9,1.6,5.9,3.1,9.1,4.5c6,2.7,12.3,5,19,7.1c0,0,0,0,0,0c6.5,2,13.3,3.7,20.5,5.1c1.4,0.3,2.8,0.5,4.2,0.8
		c17.7,3.1,37.2,4.5,58.5,4c4.5-0.1,9-0.3,13.7-0.5c1.2-0.1,2.5-0.2,3.7-0.2c1.4-0.1,2.7-0.2,4.1-0.3c0.8-0.1,1.6-0.2,2.4-0.3
		c1-0.1,1.9-0.2,2.8-0.3c4.2-0.5,8.3-1,12.4-1.7c21.4-3.2,40.7-7.8,57.8-14c2.6-0.9,5.2-1.9,7.7-2.9c3.2-1.3,6.3-2.6,9.3-4
		c3.1-1.4,6.1-2.9,9.1-4.4c3-1.6,5.8-3.2,8.6-4.8c2.8-1.7,5.5-3.4,8.1-5.2c0,0,0.1-0.1,0.1-0.1c14-9.6,25.1-21,32.3-33
		c1.7-2.8,3.1-5.6,4.4-8.4c0.3-0.8,0.7-1.5,1-2.3c0.1-0.2,0.2-0.4,0.2-0.6c0.2-0.5,0.4-1,0.5-1.4c0.5-1.5,1-3.1,1.4-4.6
		c0.4-1.4,0.7-2.9,1-4.3c0.4-2.2,0.6-4.3,0.7-6.3C673.5,266.5,672.7,261.9,671.1,258.1z"/>
	<path d="M448.9,83.6c0.1,0,0.3,0,0.4-0.1l-0.1-0.1c-4.1,0.6-8.2,1.2-12.1,1.9l0.1,0.1C441,84.8,444.9,84.2,448.9,83.6z"/>
	<path d="M485.1,79.2c1-0.1,2-0.2,3-0.2c-0.9,0.1-1.8,0.1-2.6,0.2c-8.5,0.8-16.8,1.7-24.7,2.7l0,0C468.6,80.9,476.7,80,485.1,79.2z"
		/>
	<path d="M608.6,109.7C608.6,109.8,608.6,109.8,608.6,109.7l0.3,0.2c-0.3-10.3-2.8-21.8-12.1-27.6
		C605.8,88.3,608.3,99.5,608.6,109.7z"/>
	<path d="M518.7,369.8c-0.1,0-0.2,0-0.3,0l0,0c4.2-0.5,8.3-1,12.4-1.6l0,0C526.8,368.7,522.8,369.3,518.7,369.8z"/>
	<path d="M386.8,96.6c0.6-0.2,1.1-0.3,1.7-0.5c0.3-0.1,0.6-0.2,0.9-0.3c0.3-0.1,0.5-0.1,0.8-0.2c5.7-1.7,12-3.3,19-4.8
		c0.1,0,0.2,0,0.3-0.1l0-0.1c-7,1.5-13.3,3.1-19,4.8c-0.3,0.1-0.5,0.2-0.8,0.2c-0.3,0.1-0.6,0.2-0.9,0.3c-0.5,0.2-1.1,0.3-1.7,0.5
		c-3.5,1.2-6.4,2.6-8.8,4.2c-1,0.8-1.9,1.6-2.7,2.4c0.7-0.8,1.6-1.5,2.5-2.2C380.4,99.2,383.3,97.7,386.8,96.6z"/>
	<path d="M424.8,87.5c0.1,0,0.3,0,0.4-0.1l-0.1-0.1c-4,0.7-7.9,1.5-11.6,2.3l0.1,0.1C417.2,89,420.9,88.3,424.8,87.5z"/>
	<g>
		<path class="st5" d="M463.6,114.5l7.5-0.7l48,40.4l-1.1-13L484,112.8l12.7-1.1l20.2,16.9l-1.1-13l-6.1-5.1l5.6-0.5l-0.7-7.5
			l8.2,6.9l13-1.1l-22.3-18.7l-1.1-12.1c-7.9,0.4-16,0.9-24.3,1.6c-1,0.1-2,0.2-3,0.2c-8.4,0.8-16.5,1.7-24.4,2.7l1,12.1l-12.5-10.5
			c-0.1,0-0.3,0-0.4,0.1c-4,0.6-7.9,1.2-11.7,1.8l25.8,21.6L463.6,114.5z"/>
		<path class="st5" d="M561.4,106l-34.7-29.2c-4.5,0.1-9,0.3-13.7,0.5l35.4,29.8L561.4,106z"/>
		<path class="st5" d="M567,105.5l7.5-0.7l33.1,27.8c0,0,0,0,0-0.1c0.1-1.4,0.1-2.9,0.2-4.3c0,0,0,0,0,0c0.1-1.5,0.1-3,0.2-4.6l0,0
			c0-0.9,0.1-1.8,0.1-2.6l-20.6-17.3l12.7-1.1l8.5,7.1c0,0,0,0,0,0c-0.3-10.2-2.8-21.5-11.8-27.3c-0.6-0.4-1.2-0.7-1.9-1.1
			c-2.7-1.2-5.8-2.1-9.5-2.6c-0.6-0.1-1.2-0.1-1.7-0.2c-0.3,0-0.6-0.1-0.9-0.1c-0.3,0-0.5-0.1-0.8-0.1c-5.3-0.6-11.1-1-17.5-1.3
			l0.7,8l-9.9-8.3c-4.6-0.1-9.5-0.2-14.5-0.1L566.3,98L567,105.5z"/>
		<path class="st5" d="M391.5,234.2c0.1,0.5,0.1,1,0.2,1.5c0.1,1,0.2,2.1,0.3,3.2c0,0,0,0.1,0,0.1c0,0,0,0.1,0,0.1l0,0.3
			c0,0,0,0,0,0c0,0.1,0,0.1,0,0.2l0,0l32.7,27.4l-1.1-13l-33-27.7C390.9,228.8,391.2,231.4,391.5,234.2z"/>
		<path class="st5" d="M466.4,218.5l-49.6-41.6l-0.5-6.1l-6.1,0.5L371.7,139c0.5,1.8,1,3.8,1.5,5.8l0,0c0.4,1.5,0.7,3,1.1,4.5
			c0,0,0,0,0,0c0.4,1.6,0.8,3.2,1.1,4.8l21.8,18.3l-12.7,1.1l-5.7-4.8c6.6,28.3,9.2,42.1,9.2,42.1c0.8,4.2,1.6,9,2.3,14.3l11.6-1
			l20.5,17.2l-1.1-13L415,223l5.9-0.5l-0.6-7l7.6,6.3l13-1.1l-21.7-18.2l-1.1-12.7l35.5,29.8L466.4,218.5z"/>
		<path class="st5" d="M425.3,274.2l-5.9,0.5L393,252.5c0,0.1,0,0.1,0,0.2c0,0.5,0.1,1.1,0.1,1.7c0,0.6,0.1,1.1,0.1,1.7
			c0.1,0.9,0.1,1.8,0.1,2.8c0.1,1.8,0.1,3.7,0.2,5.6c0,0.2,0,0.3,0,0.5l13,10.9l-12.7,1.1l-0.2-0.2c0,0,0,0.1,0,0.1
			c0,0.4,0,0.7,0,1.1c0,0.1,0,0.2,0,0.2c-6.4-2.3-12.3-3.6-17.6-4.2l4.8,4.1l-7.2,0.6l0.5,5.9l-6.4-5.4l-13,1.1l20.5,17.2l1.1,12.7
			l-34.3-28.8l-2.3,0.2c-0.1,0.1-0.2,0.3-0.3,0.4c-1.3,2-2.2,4.3-2.7,7l40.7,34.2l0.6,7.2l7.2-0.6l43.9,36.9
			c1.4,0.3,2.8,0.5,4.2,0.8l-0.9-10l-34.3-28.8l12.7-1.1l20.5,17.2l-1.1-13l-6.4-5.4l5.9-0.5l-0.6-7.2l7.8,6.6l13-1.1l-22-18.4
			L427,293l35.7,30l13-1.1L425.8,280L425.3,274.2z"/>
		<path class="st5" d="M379.8,349.2l0.9,0.7c0,0,0,0,0,0c2.9,1.6,5.9,3.1,9.1,4.5c6,2.7,12.3,5,19,7.1l-30.1-25.3L379.8,349.2z"/>
		<path class="st5" d="M607.9,222.8c-0.2-2.3-0.5-4.5-0.6-6.6l-1.6-1.3l-9.2-7.7l10-0.9c0-0.1,0-0.2,0-0.2
			c-0.3-5.6-0.5-10.5-0.5-14.9c0,0,0-15.2,1.1-46.8l-39.7-33.3l1.1,13l36.1,30.3l-12.7,1.1l-22.3-18.7l1.1,13l8.2,6.9l-7.5,0.7
			l0.5,5.6l-6.1-5.1l-13,1.1l20.2,16.9l1.1,12.7L540.2,160l-13,1.1l48,40.4l0.7,7.5l7.5-0.7l9.2,7.8l15.9,13.4
			c-0.1-0.7-0.2-1.3-0.2-2C608.2,225.9,608,224.4,607.9,222.8z"/>
		<path class="st5" d="M667.9,253.1l-2.5,0.2l5.7,4.8C670.2,256.2,669.2,254.5,667.9,253.1z"/>
		<path class="st5" d="M652.7,254.4l-13,1.1l32,26.9c0.4-1.4,0.7-2.9,1-4.3c0.4-2.2,0.6-4.3,0.7-6.3L652.7,254.4z"/>
		<path class="st5" d="M485.4,365.9l6.6,5.5c4.5-0.1,9-0.3,13.7-0.5l-21.4-18L485.4,365.9z"/>
		<path class="st5" d="M483.2,340.2l35.2,29.6c0.1,0,0.2,0,0.3,0c4.1-0.5,8.1-1,12.1-1.6L482,327.2L483.2,340.2z"/>
		<polygon class="st5" points="528.8,265.2 522.6,265.7 473.1,224.1 474.2,237.1 509.7,266.8 497,267.9 475.3,249.7 476.4,262.7 
			484,269.1 477,269.7 477.6,275.5 471.2,270.2 458.2,271.3 478.7,288.5 478.7,288.5 479.8,301.2 445.5,272.4 432.5,273.5 
			480.9,314.2 481.5,321.4 488.7,320.8 537.1,361.4 536,348.4 501.7,319.6 514.4,318.5 534.9,335.7 533.8,322.8 527.4,317.4 
			533.2,316.9 532.6,309.9 540.2,316.3 553.2,315.2 531.5,297 530.4,284.3 565.9,314.1 578.9,312.9 529.3,271.3 		"/>
		<path class="st5" d="M588.6,354.2c0.1,0,0.2-0.1,0.3-0.1c2.5-0.9,5-1.8,7.4-2.8l-8.5-7.2L588.6,354.2z"/>
		<path class="st5" d="M586.6,331.5l18.9,15.9c0.1-0.1,0.2-0.1,0.4-0.2c3-1.4,5.9-2.8,8.7-4.3l-29.1-24.5L586.6,331.5z"/>
		<path class="st5" d="M415.7,163.8l-1.1-13l-34.5-29l12.7-1.1l20.8,17.5l-1.1-13l-6.7-5.6l6.1-0.5l-0.7-7.5l8.2,6.9l13-1.1
			l-22.3-18.7l-0.7-7.8c-0.1,0-0.2,0-0.3,0.1c-7,1.6-13.3,3.2-19,4.8c-0.3,0.1-0.5,0.2-0.8,0.2c-0.3,0.1-0.6,0.2-0.9,0.3
			c-0.5,0.2-1.1,0.3-1.7,0.5c-3.5,1.2-6.4,2.6-8.8,4.2c-0.9,0.7-1.7,1.4-2.5,2.2c-5.5,5.8-6.8,13.8-6.3,21.7L415.7,163.8z"/>
		<path class="st5" d="M458,115l-32.8-27.5c-0.1,0-0.3,0-0.4,0.1c-3.9,0.7-7.6,1.5-11.2,2.2l31.4,26.4L458,115z"/>
		<polygon class="st5" points="570.4,209.5 520.2,167.3 519.8,161.8 514.2,162.2 464,120.1 465.2,133.1 501.2,163.4 501.2,163.4 
			488.6,164.5 466.3,145.7 467.4,158.7 475.6,165.6 468,166.3 468.6,172.4 461.9,166.8 448.9,167.9 469.7,185.4 470.8,198 
			436.3,169 423.3,170.1 471.9,211 472.5,218 479.5,217.4 528.2,258.2 527,245.3 492.5,216.2 505.1,215.1 525.9,232.6 524.8,219.6 
			518.1,214 524.3,213.5 523.6,205.9 531.8,212.8 544.8,211.7 522.5,192.9 521.4,180.3 557.4,210.6 		"/>
		<path class="st5" d="M576.5,214.5l1.1,13l35.7,30c-0.3-1.7-0.7-3.4-1-5c-0.4-2-0.7-3.9-1.1-5.8c-0.2-1.2-0.4-2.3-0.6-3.5l-30.9-26
			L576.5,214.5z"/>
		<path class="st5" d="M632.2,256.2l-5.5,0.5l-3.5-3c-3.1,1.3-6.3,2.9-9.6,4.8c0-0.2-0.1-0.4-0.1-0.5c0,0,0-0.1,0-0.1l-12.4,1.1
			l-22.3-18.7l1.1,13l8.2,6.9l-7.5,0.7l0.5,6.1l-6.4-5.4l-0.3-0.2l-13,1.1l0.3,0.3l20.5,17.2l1.1,12.7l-34.6-29l-13,1.1l0.4,0.3
			l48.3,40.5l0.6,6.9l6.9-0.6l31.4,26.4c0.1-0.1,0.2-0.1,0.3-0.2c2.7-1.6,5.3-3.3,7.8-5l-26.6-22.3l12.7-1.1l20.8,17.5l-1.1-13
			l-6.7-5.6l6.1-0.5l-0.7-7.5l8.2,6.9l13-1.1l-22.3-18.7l-1.1-12.7l30.2,25.3c0.1-0.1,0.1-0.2,0.2-0.3c1.6-2.6,3-5.3,4.2-8l-35.7-30
			L632.2,256.2z"/>
		<path class="st5" d="M337.3,301.7c0.5,2.1,1.1,4.2,1.9,6.3c0.9,2.3,1.9,4.6,3.2,6.8c0.4,0.7,0.8,1.4,1.2,2
			c0.2,0.4,0.4,0.7,0.7,1.1c0.7,1.1,1.4,2.2,2.2,3.3l12.8,10.8l13-1.1l-35-29.4C337.3,301.6,337.3,301.6,337.3,301.7z"/>
	</g>
	<path class="st1" d="M392.1,239.8c0,0.4,0.1,0.7,0.1,1.1c0.3,3.4,0.6,7,0.8,10.8c0,0.3,0,0.7,0,1c0,0.5,0.1,1.1,0.1,1.7
		c0,0.6,0.1,1.1,0.1,1.7c0.1,0.9,0.1,1.8,0.1,2.8c0.1,1.8,0.1,3.7,0.2,5.6c0,0.2,0,0.4,0,0.7c0,0.1,0,0.2,0,0.4c0,0.6,0,1.1,0,1.7
		c0.1,3.1,0.1,6.4,0,9.7c0,0.4,0,0.7,0,1.1l23.2-2.2l8.8-0.8l14.6-1.3l14.2-1.3l14.5-1.3l6-0.5l58-5.4l8.2-0.7l14.5-1.3l14.2-1.3
		l14.5-1.3l6.6-0.6l22.4-2.1c0,0,0-0.1,0-0.1c-0.3-1.7-0.7-3.4-1-5c-0.4-2-0.7-3.9-1.1-5.8c-0.2-1.2-0.4-2.3-0.6-3.5
		c-0.3-1.9-0.6-3.7-0.9-5.5c-0.3-1.7-0.5-3.4-0.7-5c-0.2-1.1-0.3-2.2-0.4-3.3c-0.1-0.7-0.2-1.3-0.2-2c-0.2-1.6-0.4-3.1-0.5-4.6
		c-0.2-2.3-0.5-4.5-0.6-6.6l-0.1-0.9l-0.1-0.8c-0.2-3-0.4-5.8-0.6-8.5c0-0.5,0-0.9-0.1-1.4l-2.3,0.2l-14.6,1.4l-3.4,0.3l-58,5.4
		l-11.7,1.1l-14.2,1.3l-14.5,1.3l-14.6,1.3l-3.1,0.3l-58,5.4l-11,1l-10.7,1c0,0.2,0,0.3,0.1,0.5c0,0.4,0.1,0.8,0.2,1.1
		c0.3,2.5,0.6,5.2,0.9,7.9c0.1,0.5,0.1,1,0.2,1.5c0,0,0,0,0,0c0.1,1,0.2,2.1,0.3,3.1C392,239.1,392.1,239.5,392.1,239.8z"/>
	<path class="st1" d="M595,659.6c1.3-0.3,2.5-0.7,3.8-1c0.8-0.2,1.6-0.5,2.5-0.7c3-0.9,6-1.8,9.1-2.8c0.3-0.1,0.5-0.2,0.8-0.3
		c0.2-0.1,0.4-0.1,0.5-0.2c1.9-0.6,3.9-1.3,5.9-1.9c0.7-0.2,1.5-0.5,2.2-0.7c0.4-0.1,0.7-0.3,1.1-0.4c0.7-0.2,1.4-0.5,2.1-0.8
		c1.5-0.5,3.1-1.1,4.7-1.7c0.9-0.3,1.8-0.7,2.7-1c0,0,0,0,0,0c1.7-0.6,3.4-1.3,5.2-2c0.6-0.2,1.3-0.5,2-0.8c0.1,0,0.2-0.1,0.3-0.1
		c1.5-0.6,3-1.2,4.4-1.8c0.5-0.2,1.1-0.4,1.6-0.6c2-0.8,4-1.7,6.1-2.6c0.5-0.2,1.1-0.4,1.6-0.7c2.1-0.9,4.2-1.8,6.3-2.8
		c4.9-2.3,15.9-5.2,19.4,5.8c0.1,0.3,0.1,0.5,0.2,0.8c0.1,0.3,0.1,0.5,0.2,0.7c2.5,9.1,4,17.4,4.8,24.9c0.3,4.5,0.3,8.9,0.1,13.4
		c-0.1,1.4-0.1,2.8-0.3,4.1c-0.3,3.7-0.8,7.3-1.5,10.9c-0.6,3.3-1.5,6.5-2.6,9.7c-0.1,0.1-0.1,0.3-0.2,0.4c-1,2.6-2.2,5-3.5,7.3l0,0
		c-0.1,0.1-0.1,0.2-0.2,0.2c-0.2,0.4-0.4,0.7-0.6,1.1c-1.6,2.7-3.4,5.2-5.3,7.6c-0.8,1-1.6,1.9-2.4,2.9c-1.3,1.4-2.6,2.7-3.9,4
		c-4.8,5-10.2,9.4-16,13.3c-1.9-5.9-3.9-11.6-6-17c-5.7-15.1-12.1-28.6-19.8-39.7C614.5,677.8,606.2,667.5,595,659.6z"/>
	<path class="st1" d="M397.3,762.3c-5.2-1.2-10-2.6-14.4-3.9c-6.8-2.1-12.8-4.3-18-6.6c-0.3-0.1-0.6-0.2-0.9-0.3
		c-5.6-2-10.2-4.6-13.9-7.9c-8.2-7.2-12.1-17.2-13.2-28c-0.3-2.5-0.4-5.1-0.4-7.7c0-1.7,0-3.3,0.1-5c0.2-3.8,0.7-7.7,1.3-11.5
		c0.6-3.6,1.3-7.2,2.1-10.7c3.2-13.6,7.8-25.3,10.1-31.3c2-4.4,5.9-10.2,14.7-10.3c2.6,0,5.7,0.4,9.2,1.6l0,0c0,0,0,0,0,0
		c1.4,0.5,3.1,1.1,5,1.9c2.7,1.1,6,2.4,9.7,4c0.2,0.1,0.4,0.2,0.6,0.2c0.5,0.2,1,0.4,1.4,0.6c0.4,0.2,0.9,0.3,1.3,0.5
		c0.4,0.2,0.8,0.3,1.2,0.5c0.6,0.2,1.1,0.5,1.7,0.7c0.3,0.1,0.6,0.2,0.9,0.3c1.3,0.5,2.7,1,4,1.6c1.6,0.6,3.3,1.3,5,1.9
		c0.1,0,0.2,0.1,0.3,0.1c1,0.4,2,0.7,3,1.1c0.2,0.1,0.3,0.1,0.5,0.2c1,0.4,2,0.7,3.1,1.1c0.1,0.1,0.3,0.1,0.4,0.2
		c1.1,0.4,2.3,0.8,3.4,1.1c0,0,0.1,0,0.1,0c1.4,0.5,2.9,0.9,4.4,1.4c17.4,5.4,38.9,10.5,64.3,12.5l0-0.3l0.3,0.3
		c4.5,0.4,9.1,0.6,13.8,0.8c2.5,0.1,5,0.1,7.6,0.2l0.1,0c1.4,0,2.8,0,4.1,0c2.1,3.5,5.4,6.7,7.9,9.2c0.8,0.8,1.5,1.5,2.2,2.2
		l0.6,0.7c1.2,1.3,2.4,2.6,3.5,4.1c4.3,5.5,8.8,13,13.8,22.7c0.6,1.2,1.3,2.5,1.9,3.8l0.1,0.2c8.8,15.7,14.5,35.4,18.9,57.5
		c-2,0.2-4.2,0.3-6.4,0.5c-5.3,0.4-10.6,0.7-16,0.9c-3.9,0.1-7.7,0.2-11.6,0.3c-2,0-4,0-6,0c-2.4,0-4.7,0.1-7,0.1
		c-4.3,0-8.6,0-12.7,0c-4.5,0-9-0.2-13.3-0.3c-0.2,0-0.5,0-0.7,0c-20.9-0.7-39.6-2.4-56-4.7c-5.5-0.8-10.7-1.6-15.7-2.6
		C408,764.7,402.5,763.5,397.3,762.3z"/>
	<path class="st1" d="M580.7,910c-0.4,1.7-0.7,3.5-1.1,5.2c-0.8,3.5-1.5,7-2.3,10.5c-4.2,19.5-7.8,39-5.4,58.7
		c0.5,4.6,1.4,9.2,2.7,13.8c0.1,0.4,0.1,0.9,0.1,1.4c-0.4,2.6-3.2,5.4-5.7,5.2c-0.7-0.1-1.5-0.1-2.2-0.2c-3.8-0.3-7.7-0.7-11.6-1
		c-0.9-0.1-1.9-0.2-2.8-0.2c-4.4-0.4-8.7-0.8-13.1-1.1c-17.1-1.5-34.2-3-51.3-4.5c-2.2-0.2-4.3-0.4-6.5-0.6
		c-4.7-0.4-9.3-0.8-13.9-1.2c-2.6-0.2-5.3-0.5-7.9-0.7c-1.2-0.1-2-0.8-2-2c0-2.3,0-4.6,0.1-6.9c0-0.4,0-0.8,0-1.1
		c0.6-15,2.6-30,6.7-44.4c0.7-2.3,1.4-4.6,2.1-6.9c0.1-0.4,0.3-0.9,0.4-1.3c1.1-3.1,2.2-6.3,3.5-9.3c1.2-3,2.5-6.1,3.8-9.1
		c1.3-3,2.6-5.9,3.9-8.9c1-2.4,2.1-4.7,3.2-7.1c0.2-0.5,0.5-1.1,0.7-1.6c1.3-3,2.6-5.9,3.9-8.9c1.4-3.1,2.7-6.3,4-9.4
		c1.3-3,2.5-6,3.8-9.1c1.2-3,2.4-6,3.6-9c0.6-1.4,1.1-2.9,1.7-4.4c0.6-1.6,1.2-3.3,1.8-4.9c1.2-3.2,2.3-6.4,3.3-9.6
		c1.1-3.2,2.1-6.5,3.1-9.7c2-6.7,3.8-13.4,5.2-20.2c2.3-10.6,4.5-21.3,5.8-32.2c0.1-0.4,0.1-0.8,0.1-1.2c3.8-0.1,7.6-0.2,11.3-0.3
		c2.4-0.1,4.7-0.2,7.1-0.3c5.8-0.3,11.5-0.7,17-1.2c2.1-0.1,4.2-0.3,6.2-0.4c0.2,1.1,0.4,2.2,0.6,3.3c0.2,1.4,0.5,2.7,0.7,4.1
		c0.8,4.9,1.6,10,2.4,15.1c0.7,4.9,1.4,9.9,2.1,14.9c0.7,4.8,1.3,9.7,2,14.7c0.1,0.8,0.2,1.7,0.3,2.5c0.1,0.6,0.2,1.1,0.2,1.7
		c2.4,18,4.8,36.5,7.9,54.8c0.9,5.1,1.8,10.1,2.8,15.1C579.6,904.6,580.2,907.3,580.7,910z"/>
	<path class="st1" d="M784.6,1014.2c-0.8,0.9-2.3,2-4.5,3.3c-0.9,0.5-2,1.1-3.3,1.8c-2.2,1.2-5.1,2.8-8.3,4.6
		c-2.5,1.4-5.2,2.9-8.1,4.5c-2.7,1.5-5.4,3-8.3,4.6l0.2,0.2l-0.6,0c-2.3,1.3-4.5,2.5-6.9,3.8l0,1.8l-1.2-1.1
		c-2.8,1.6-5.6,3.1-8.3,4.6c-2.8,1.6-5.5,3.1-8.1,4.5c-3,1.7-5.8,3.2-8.3,4.6c-3.4,1.9-6.2,3.5-8.3,4.6c-1.6,0.9-2.8,1.6-3.5,1.9
		c-2,1.1-3.5,2-4.9,2.6c-2.4,1-4.6,1-8.5-0.5c-0.6-0.2-1.2-0.5-1.9-0.8c-16.8-6.4-31.1-14.9-43.2-25c-16.9-14.1-29.6-31.5-39.5-50.8
		c-0.5-1-1-2-1.5-3c-3.3-6.9-6.3-14-9-21.3c-2.3-6.1-4.3-12.4-6.2-18.8c-1.7-5.7-3.2-11.5-4.6-17.3c-1.3-5.4-2.5-10.8-3.6-16.3
		c-1-5.1-2-10.1-2.9-15.3c-4.4-24.7-7.4-49.9-10.6-73.8c-0.7-5-1.4-9.9-2.1-14.8c-0.7-5.1-1.5-10.1-2.3-15l0,0c-0.5-3-1-6-1.6-9
		c-4-22.5-9.2-42.9-17.2-59.8l0,0c-1.1-2.4-2.3-4.7-3.6-7c-5.5-11.1-10.9-20.4-16.1-27.2c-1.2-1.6-2.5-3.1-3.7-4.4l0,0
		c-1-1.1-2.3-2.3-3.7-3.7c-4.7-4.6-10.2-10.3-6.5-14.2c0,0,0,0,0,0c0.2-0.2,0.5-0.5,0.8-0.7c2.1-1.5,6.5-3.4,8.6-4.3
		c0.3-0.1,0.6-0.3,0.8-0.3l0,0c2.6-1.1,5.6-2.2,8.7-3.1c0.9-0.2,1.7-0.5,2.6-0.7c17.3-4.6,40.4-4.8,61.8,13c3.3,2.7,6.5,5.9,9.7,9.5
		c0,0,0,0,0,0c3.4,3.9,6.8,8.4,10,13.5c8,11.5,14.6,25.8,20.5,41.9c6,16.4,11.3,34.8,16.4,54c1.5,5.7,3,11.4,4.5,17.2
		c1.5,5.6,2.9,11.4,4.4,17.1c0.8,3.2,1.7,6.4,2.5,9.5c5.5,20.6,11.3,41.4,18.1,61.1c2.3,6.7,4.7,13.2,7.3,19.6l1.3,1.2l0,1.9
		c2.6,6.3,5.3,12.4,8.3,18.3c0.2,0.4,0.4,0.8,0.6,1.2c5.7,11.3,12,21.9,19,31.4c0,0,0,0,0,0c0,0,0,0,0,0c0,0,0,0,0,0c0,0,0,0,0,0
		c4.9,6.6,10.3,12.7,16,18.2c2.6,2.5,5.3,4.9,8.1,7.1c2.3,1.8,4.6,3.6,7.1,5.2c8.1,5.5,17,10.1,26.7,13.4c0.9,0.3,1.8,0.6,2.7,0.9
		l0,0c0,0,0,0,0,0C783.2,1009.5,787.7,1010.9,784.6,1014.2z"/>
	<g>
		<path class="st5" d="M382.4,709.4l-31.3-30.6l12.6-0.1l18.6,18.2l-0.1-12.9l-5.6-5.4l5.5-0.1l-0.1-7.2l7.3,7.2l12.9-0.1
			l-20.3-19.9l-0.1-12.6l33,32.3l12.9-0.1l-27.7-27.1c-1.4-0.5-2.7-1.1-4-1.6c-0.3-0.1-0.6-0.2-0.9-0.3c-0.6-0.2-1.2-0.5-1.7-0.7
			c-0.4-0.2-0.8-0.3-1.2-0.5c-0.4-0.2-0.9-0.3-1.3-0.5c-0.5-0.2-1-0.4-1.4-0.6c-0.2-0.1-0.4-0.2-0.6-0.2c-3.7-1.5-7-2.9-9.7-4
			c-1.9-0.8-3.6-1.4-5-1.9c0,0,0,0,0,0v0c-3.6-1.2-6.6-1.7-9.2-1.6c-8.8,0.1-12.7,5.9-14.7,10.3c-2.3,6-6.9,17.8-10.1,31.3
			l42.5,41.6L382.4,709.4z"/>
		<path class="st5" d="M433.3,677.9l7.2-0.1l44.5,43.6l-0.1-12.9l-31.5-30.8l12.6-0.1l18.8,18.4l-0.1-12.9l-5.8-5.7l5.7-0.1
			l-0.1-6.9c-25.4-2.1-46.9-7.1-64.3-12.5l13,12.7L433.3,677.9z"/>
		<path class="st5" d="M504.6,677.1l-6-5.8c-4.7-0.2-9.3-0.4-13.8-0.8l6.9,6.8L504.6,677.1z"/>
		<path class="st5" d="M520.5,676.9l9.5-0.1L514.8,662c-0.4,0.3-0.6,0.5-0.8,0.7c0,0,0,0,0,0C510.3,666.6,515.8,672.4,520.5,676.9z"
			/>
		<path class="st5" d="M535.8,676.8l7.1-0.1l44.6,43.6l-0.1-12.9l-31.6-30.9l12.6-0.1l18.9,18.5l-0.1-12.9l-5.9-5.8l5.8-0.1
			l-0.1-7.2l7.2,7.1l12.9-0.1c0,0,0,0,0,0l-9.7-9.5c-21.5-17.8-44.6-17.6-61.8-13l0,3.3l-2.7-2.6c-3.1,0.9-6.1,2-8.7,3.1l0,0
			c-0.2,0.1-0.5,0.2-0.8,0.3l12.3,12L535.8,676.8z"/>
		<path class="st5" d="M632.5,675.7l-21.3-20.9c-0.3,0.1-0.5,0.2-0.8,0.3c-3.1,1-6.1,1.9-9.1,2.8l18.4,18L632.5,675.7z"/>
		<path class="st5" d="M638.3,675.7l7.1-0.1l32.7,32c0.1-0.1,0.1-0.3,0.2-0.4c1.1-3.2,1.9-6.4,2.6-9.7l-22.6-22.1l12.6-0.1
			l11.5,11.3c0.1-1.4,0.2-2.8,0.3-4.1c0.2-4.5,0.1-8.9-0.1-13.4c-0.7-7.5-2.3-15.8-4.8-24.9c-0.1-0.2-0.1-0.5-0.2-0.7
			c-0.1-0.3-0.1-0.5-0.2-0.8c-3.5-11-14.5-8.1-19.4-5.8c-2.1,1-4.2,1.9-6.3,2.8c-0.5,0.2-1.1,0.4-1.6,0.7c-2,0.9-4,1.7-6.1,2.6
			c-0.5,0.2-1,0.4-1.6,0.6c-1.5,0.6-3,1.2-4.4,1.8l0.1,10.4l-7.6-7.5c-0.9,0.3-1.8,0.7-2.7,1c-1.6,0.6-3.1,1.1-4.7,1.7
			c-0.7,0.3-1.4,0.5-2.1,0.8l17.3,16.9L638.3,675.7z"/>
		<path class="st5" d="M382.6,729.7l-5.5,0.1l-39.3-38.4c-0.6,3.8-1.1,7.7-1.3,11.5l27.7,27.1l-12.5,0.1l-14.8-14.5
			c1.1,10.8,5,20.8,13.2,28c3.7,3.2,8.3,5.9,13.9,7.9c0.3,0.1,0.6,0.2,0.9,0.3c5.2,2.3,11.2,4.5,18,6.6l-0.1-10.3l14.5,14.2
			c5.2,1.3,10.7,2.4,16.6,3.5l-31.3-30.6L382.6,729.7z"/>
		<path class="st5" d="M486.1,887.7c-1.3,3-2.6,5.9-3.9,8.9l4.8,4.7l-0.1-12.9L486.1,887.7z"/>
		<path class="st5" d="M474.4,914.2l12.8,12.6l-0.1-12.9l-8.8-8.6C477,908.3,475.7,911.2,474.4,914.2z"/>
		<path class="st5" d="M490.2,878.3l4.1,4l12.9-0.1l-13.2-12.9C492.7,872.3,491.5,875.3,490.2,878.3z"/>
		<path class="st5" d="M532.6,881.9L501,851c-0.6,1.7-1.2,3.3-1.8,4.9c-0.5,1.5-1.1,2.9-1.7,4.4l22.2,21.7L532.6,881.9z"/>
		<path class="st5" d="M538.1,887.3l0.1,12.9l33.2,32.5l-12.6,0.1l-20.6-20.1l0.1,12.9l7.5,7.4l-7.5,0.1l0.1,6.1l-6.1-6l-12.9,0.1
			l19.2,18.7l0.1,12.6l-31.9-31.2l-12.9,0.1l44.9,43.9l0.1,6.9l6.9-0.1l20.7,20.3c0.7,0.1,1.5,0.1,2.2,0.2c2.5,0.2,5.3-2.6,5.7-5.2
			l-15.8-15.4l12.6-0.1l0.4,0.4c-2.4-19.7,1.2-39.2,5.4-58.7L538.1,887.3z"/>
		<path class="st5" d="M609.2,983.6l1.6,0l-3.1-3C608.2,981.6,608.7,982.6,609.2,983.6z"/>
		<path class="st5" d="M598.7,959.3l24.6,24.1l12.9-0.1l-43.7-42.8C594.3,946.9,596.4,953.2,598.7,959.3z"/>
		<path class="st5" d="M693.5,1033.9l-5.5,0.1l-46.3-45.3l0.1,12.9l33.2,32.5l-12.6,0.1l-20.6-20.1l0.1,12.9l7.5,7.4l-1,0
			c12.1,10.1,26.4,18.6,43.2,25c0.7,0.3,1.3,0.5,1.9,0.8l-0.1-7.9l8.6,8.4c1.4-0.6,2.9-1.5,4.9-2.6c0.6-0.4,1.8-1,3.5-1.9
			l-17.1-16.7L693.5,1033.9z"/>
		<path class="st5" d="M485.6,772.4l0.7,0.7c4.3,0.1,8.8,0.2,13.3,0.3l-14.2-13.9l-0.1-12.6l27.1,26.5c2.3,0,4.6,0,7-0.1
			c2,0,4,0,6,0l-40.1-39.3l-0.1-5.5l-5.7,0.1l-46-45l0.1,12.9l33,32.3l-12.6,0.1l-20.3-19.9l0.1,12.9l7.3,7.2l-7.2,0.1l0.1,5.5
			l-5.6-5.5l-12.9,0.1l18.6,18.2l0.1,12.6l-31.3-30.6l-12.9,0.1l39.6,38.7c16.4,2.3,35.1,4,56,4.7L485.6,772.4z"/>
		<path class="st5" d="M518.4,779.3l0.2,0.2l12.9-0.1l-1.6-1.6c-3.7,0.1-7.5,0.2-11.3,0.3C518.5,778.5,518.4,778.9,518.4,779.3z"/>
		<path class="st5" d="M567.8,827.7c-0.6-4.9-1.3-9.8-2-14.7L537,784.8l0.1,12.9L567.8,827.7z"/>
		<path class="st5" d="M558.4,881.6l12.6-0.1l5.4,5.3c-3.1-18.3-5.6-36.8-7.9-54.8c-0.1-0.6-0.2-1.1-0.2-1.7l-10.3,0.1l-20.6-20.1
			l0.1,12.9l7.6,7.4l-7.5,0.1l0.1,5.5l-5.6-5.4l-12.9,0.1l18.6,18.2l0.1,12.6l-30.5-29.8c-1,3.3-2,6.5-3.1,9.7l33.7,32.9l0.1,7.4
			l7.4-0.1l34.1,33.4c0.4-1.7,0.8-3.5,1.1-5.2c-0.6-2.7-1.1-5.4-1.6-8.1L558.4,881.6z"/>
		<path class="st5" d="M584.2,906.9c1.1,5.5,2.3,10.9,3.6,16.3l1.9,1.9l-0.1-12.9L584.2,906.9z"/>
		<path class="st5" d="M589.4,886.8l-5.6-5.4l5.5-0.1l-0.1-7.5l7.5,7.4l12.9-0.1l-20.6-20.1l-0.1-12.6l33.3,32.5l12.9-0.1
			l-46.3-45.3l-0.1-5.5l-5.5,0.1l-12.5-12.3c3.2,24,6.2,49.1,10.6,73.8l8.2,8L589.4,886.8z"/>
		<path class="st5" d="M693.4,1026.5l-0.1-12.9L662,983l12.6-0.1l18.6,18.2l-0.1-12.9l-5.6-5.4l5.5-0.1l-0.1-7.5l7.5,7.4l12.9-0.1
			l-20.6-20.1l-0.1-12.6l33.3,32.5l10.3-0.1c-5.8-5.5-11.1-11.6-16-18.2c0,0,0,0,0,0c0,0,0,0,0,0c0,0,0,0,0,0c0,0,0,0,0,0
			l-27.7-27.1l-0.1-5.5l-5.5,0.1l-46.3-45.3l0.1,12.9l33.3,32.5l-12.6,0.1l-20.6-20.1l0.1,12.9l7.5,7.4l-7.5,0.1l0.1,5.5l-5.6-5.4
			l-12.9,0.1l18.6,18.2l0.1,12.6l-31.3-30.6l-12.9,0.1l44.3,43.3l0.1,7.4l7.4-0.1L693.4,1026.5z"/>
		<path class="st5" d="M700.9,1033.9l18,17.7c2.5-1.4,5.3-3,8.3-4.6l-13.5-13.2L700.9,1033.9z"/>
		<path class="st5" d="M726.4,1033.6l9,8.8c2.7-1.5,5.5-3.1,8.3-4.6l-4.4-4.3L726.4,1033.6z"/>
		<path class="st5" d="M744.8,1037.1c2.3-1.3,4.6-2.6,6.9-3.8l-6.9,0.1L744.8,1037.1z"/>
		<path class="st5" d="M744.7,1025.9l7.3,7.2c2.8-1.6,5.6-3.2,8.3-4.6l-15.8-15.4L744.7,1025.9z"/>
		<path class="st5" d="M751.4,994.5c-2.4-1.7-4.8-3.4-7.1-5.2l0.1,11.2l24,23.5c3.2-1.8,6.1-3.4,8.3-4.6L751.4,994.5z"/>
		<path class="st5" d="M536.8,771.9l0,1.3c5.4-0.2,10.7-0.5,16-0.9c2.2-0.1,4.4-0.3,6.4-0.5c-4.4-22.1-10.1-41.9-18.9-57.5l-0.1-0.2
			c-0.6-1.3-1.3-2.6-1.9-3.8l-2.2-2.2l0.1,12.9l7.2,7.1l-7.1,0.1l0.1,5.5l-5.6-5.4l-12.9,0.1l18.6,18.2l0.1,12.6l-31.3-30.6
			l-12.9,0.1L536.8,771.9z"/>
		<path class="st5" d="M560.1,775.8c-2,0.2-4,0.3-6.2,0.4c-5.5,0.5-11.2,0.9-17,1.2l0,1.8l7.4-0.1l19.4,19
			c-0.7-5.1-1.6-10.1-2.4-15.1l-4.1-4l3.4,0C560.5,778,560.3,776.9,560.1,775.8z"/>
		<path class="st5" d="M588.7,822.6l-0.1-12.9L566.4,788c0.8,4.9,1.6,9.9,2.3,15L588.7,822.6z"/>
		<path class="st5" d="M608.3,778.5L588,758.6l-0.1-12.6l33,32.3l12.9-0.1l-46-45l-0.1-5.7l-5.8,0.1l-46-44.9l0.1,12.9l32.9,32.2
			l-12.6,0.1l-8.8-8.6c8,16.8,13.2,37.3,17.2,59.8l5-0.1l18.6,18.2l-0.1-12.9l-5.6-5.4l5.5-0.1l-0.1-7.2l7.3,7.1L608.3,778.5z"/>
		<path class="st5" d="M639.5,783.9l0.1,12.9l23.3,22.8c-1.5-5.7-2.9-11.4-4.4-17.1L639.5,783.9z"/>
		<path class="st5" d="M683.6,890.3c-6.9-19.8-12.7-40.5-18.1-61.1l-5.4,0.1l-20.3-19.9l0.1,12.9l7.3,7.1l-7.2,0.1l0.1,5.5l-5.6-5.4
			l-12.9,0.1l18.6,18.2l0.1,12.6l-31.3-30.6l-12.9,0.1l44.3,43.3l0.1,7.4l7.4-0.1l44.3,43.3l-0.1-12.9l-31.3-30.6l12.6-0.1
			L683.6,890.3z"/>
		<path class="st5" d="M700.5,931.3l-0.6,0l1.2,1.2C700.9,932.1,700.7,931.7,700.5,931.3z"/>
		<path class="st5" d="M594.8,727.4l44.6,43.6l0.1,7.2l7.2-0.1l7.4,7.2c-5.1-19.2-10.4-37.5-16.4-54l-4.5-4.4l-12.9,0.1l18.8,18.4
			l0.1,12.6l-31.5-30.9L594.8,727.4z"/>
		<path class="st5" d="M666.2,726.6l-7.3,0.1l-20.2-19.8l0.1,12.9l7.2,7.1l-5.7,0.1c2.1,5.5,4,11.2,6,17c5.8-3.9,11.1-8.4,16-13.3
			C663.6,729.3,664.9,728,666.2,726.6z"/>
		<path class="st5" d="M673.9,716.2l-35.5-34.7l0.1,12.9l30.1,29.4C670.5,721.4,672.3,718.9,673.9,716.2z"/>
		<path class="st5" d="M457.7,993.3c0,1.3,0.9,1.9,2,2c2.6,0.2,5.3,0.5,7.9,0.7l-9.8-9.6C457.7,988.7,457.7,991,457.7,993.3z"/>
		<path class="st5" d="M487.3,933.6l-6.1,0.1l-10.7-10.4c-1.2,3.1-2.4,6.2-3.5,9.3l1.3,1.2l-1.7,0c-0.8,2.3-1.5,4.6-2.1,6.9
			c-4.1,14.5-6.2,29.4-6.7,44.4l11.4-0.1l12.3,12.1c2.2,0.2,4.3,0.4,6.5,0.6l-0.1-7l-5.9-5.8l5.8-0.1l-0.1-6.9l7,6.8l12.9-0.1
			l-20-19.6l-0.1-12.6l32.7,32l12.9-0.1l-45.7-44.7L487.3,933.6z"/>
		<path class="st5" d="M539.4,1002.2c4.4,0.4,8.7,0.8,13.1,1.1l-13.2-12.9L539.4,1002.2z"/>
	</g>
</g>
</svg>
