<?xml version="1.0" encoding="utf-8"?>
<!-- Generator: Adobe Illustrator 23.0.3, SVG Export Plug-In . SVG Version: 6.00 Build 0)  -->
<svg version="1.1" id="Layer_1" xmlns="http://www.w3.org/2000/svg" xmlns:xlink="http://www.w3.org/1999/xlink" x="0px" y="0px"
	 viewBox="0 0 1133.9 1133.9" style="enable-background:new 0 0 1133.9 1133.9;" xml:space="preserve">
<style type="text/css">
	.st0{fill:#1E2121;}
	.st1{fill:#A81F26;}
	.st2{fill:#F2F1F2;}
	.st3{fill:#DD353A;}
	.st4{fill:#CFCFCE;}
	.st5{fill:#1D2121;}
	.st6{fill:none;}
	.st7{fill:#AA1F23;}
	.st8{fill:#FDFEFE;}
	.st9{fill:#EE742C;}
	.st10{fill:#BA5234;}
	.st11{fill:#ED1C24;}
	.st12{fill:#C42C3A;}
	.st13{fill:#058743;}
	.st14{fill:#0F4D70;}
	.st15{fill-rule:evenodd;clip-rule:evenodd;fill:#C42C3A;}
	.st16{fill-rule:evenodd;clip-rule:evenodd;fill:#1E2121;}
	.st17{fill:#E8E8E8;}
	.st18{fill:#186634;}
	.st19{fill:#BF2730;}
	.st20{fill:#B47A48;}
	.st21{fill:#3E1E14;}
	.st22{fill:#DBAD5D;}
	.st23{fill:#B84947;}
	.st24{fill:#C3976E;}
	.st25{fill:#9D2023;}
	.st26{fill:#3C2517;}
	.st27{fill:#4A3A31;}
	.st28{fill:#EDAD4F;}
	.st29{fill:#F8C018;}
</style>
<g id="Layer_2_1_">
	<path class="st5" d="M1019.3,830.3c-69.8-32.9-40.9-69.9-25.7-93.6c15.3-23.6,24.9-42.4,18.9-89.4c-2.7-23.4-2.9-25.8-1.8-33.6
		c2.2-18.7,50.2-33-29.2-86.2C886,464.9,854.3,385.3,849.3,373.4c-5-11.9-1-18.5,1.5-26.9c2.5-8.4-0.8-13.3-4.6-22.9
		c-3.7-9.6,10.7-14.6,1.4-28.6s-8.7-24.3-3.1-48.6C848.1,205.3,864.4,88,583,90.8c-281.3,2.8-254.7,135.7-250.7,176
		c0,0-0.7,0.1,2.7,18.7c2.1,12.3-0.8,10.2-4,15.5c-3.2,5.3,1,10.5,3.1,17.9c2.1,7.4-6.3,7.2-7.5,14.2c-1.2,6.9,5.9,11.4-1.5,30.1
		C279,482.3,160.9,529.7,140.8,547c-20.2,17.3-13.4,36.1-11.6,44.7c1.8,8.3,1.4,18.7-1,25.7c-0.2,0.1-0.3,0.2-0.3,0.4
		c-1.2,2.8-2.8,5.3-4.7,7.7c-1.9,2.5-3.6,5.1-5.3,7.6c-3.4,5.1-6.4,10.5-9,16c-2.6,5.4-4.7,11.1-6.1,17c-1.5,6-1.6,12.3-0.6,18.5
		c1.8,11,7.7,20.8,16.5,27.6c4.3,3.4,9.1,5.9,14.5,7.1c5.8,1.2,11.6,1.3,17.4,1.6c10.5,0.4,22.9,1.4,30.4,9.8c4.4,4.9,5.1,11,2.5,17
		c-2.8,6.5-8.2,11.8-13.3,16.4c-5.8,5.1-12.2,9.7-18.6,13.9c-5.2,3.6-10.6,6.8-15.7,10.6c-9.1,6.6-18.2,14.3-22.3,25.1
		c-2,5.2-2.7,10.9-2.2,16.5c0.3,2.7,0.7,5.3,1.5,7.9c0.6,2,1.3,4.9,3.1,6.2c5.8,4.2,7.5-7.5,8.2-10.8c2.1-11.6,5.9-23.2,15.7-30.5
		c4.6-3.5,9.9-6.1,14.9-8.8c5.8-3.1,11.5-6.3,17-10.1c9.1-6.5,18.6-13.9,23.7-24.1c4.7-9.3,5.8-20.5,3.2-30.6
		c-2.6-10.4-9.5-18.4-19.2-23c-10.7-5.1-22.6-4.6-34.1-6.1c-5.4-0.7-11.3-1.8-15.5-5.3c-4.2-3.6-6.4-8.9-6.9-14.2
		c-0.7-5.9-0.4-12.6,1.8-18.2c2.3-5.9,6.1-10.8,10.2-15.6c3.9-4.6,8.1-9,12.9-12.7c0.1-0.1,0.2-0.2,0.3-0.3c1.4-1.1,2.8-2,5-3.6
		c3.2-2.2,5.9-2.7,9.4,0.5s1.9,7.9,8.5,10c5.1,1.6,9.3,5.5,11.1,8.3c1.8,2.9,7.4,7.5,12.2,4.4s9.5-1,10.6,0.3s6.2,5.9,11.6,1.8
		c5.5-4.2,8.9-1.4,10-0.5c1.1,0.9,5.8,5.7,11.8,0.3c6-5.5,14.8-5.5,24.1-9.1c9.3-3.7,12.7-13.8,28.9-14.8c16.2-1.1,22.7-4.6,27.7-18
		c5-13.4,6.3-15.2,21.3-19.5c15-4.4,23.6-19,29.1-29.7c5.5-10.6-0.9-20.2,16.4-27.7c17.3-7.4,16.6-18.7,16.4-24.1
		c-0.2-5.4,9.7-8.4,9.3-17c-0.4-8.4,0.5-14.6,11.8-24.9s8.4-16.2,13.7-26.8c5.2-10.6,5.9-11.5,25.7-7.5c19.8,3.9,30.5-1.3,40.4-8.1
		c9.9-6.8,17.3-10.7,29.6-6.6c12.3,4.1,19.8,8.1,39.2,0.4c19.4-7.6,20.8-6.2,36.5,1.7c15.7,7.9,21.5,8,39.8,2.8s24.2,2.1,32.8,7.3
		c8.6,5.1,13,8.2,34.5,3.1c21.6-5.1,24.3,6.7,26.3,12.3c3.4,9.5-5.6,34.1,9.6,44.6c10.7,5.6,12.2,13.1,11.8,20.8
		c-0.4,7.6,0.7,12.5,12.2,19.8c11.4,7.3,11.8,14.6,12.9,20.4c1.1,5.9,6,12,12.7,16.2c6.7,4.3,6.9,7.3,7.9,14.4
		c1,7.1,11.4,20.5,19.9,23.9c8.5,3.4,9.6,5.3,17,11.6c7.3,6.3,6.3,17,17.5,17.9c11.2,0.9,17,6.1,19.1,8c2.1,1.9,7.3,9.8,18.5,10
		c14,0.3,12,2,21.7,7c12.3,6.3,20.9-0.7,27.5-8.6c24.9-29.7,40.3-7,46.1,15.1c5.8,22.1-21.3,64.9-26.9,76.5
		c-5.6,11.6-13.9,28.9-4.2,55.8s42.8,32.8,52.2,35.1C1026.5,839.8,1029.4,834.5,1019.3,830.3z M417,457.7c-1.5,5.2-1.8,8.7-7.1,12.3
		c-5.3,3.7-7.1,9.1-7.5,13.1c-0.4,4-1,9.4-5,12.4c-7.3,6-4.5,11-6.8,17.4c-2.3,6.4-2.4,9.5-10.9,13.1s-13.6,10.3-17,19.2
		c-3.5,8.9-9.1,29.8-23.2,35.6c-14,5.9-19.2-0.2-29.1,14.6c-9.9,14.7-7.3,23.3-16.9,23.5c-9.6,0.3-12.2,0.8-20,6.5
		c-7.9,5.7-12.3,11-17.7,11.6c-5.4,0.6-13.9,1.2-21.1,7c-7.2,5.8-12.4,1.8-14.3,0.9c-1.8-0.9-4.3-1.6-7.2,0c-2.9,1.6-6.4-1.5-7-2.1
		c-0.7-0.5-2.2-2.8-8.5-1.2c-6.4,1.6-7.1-1.6-9.9-2.9c-2.8-1.3-15.2-5.9-14.6-13.3s2.3-14.7,10.4-16.3c8.2-1.5,11.2-5.5,13.8-9.5
		c2.6-4,5.3-12.1,12.1-15.8c6.8-3.6,9.4-3.2,17.3-5.5c7.9-2.3,13.1-5.1,19.3-15.4c6.1-10.2,9.7-15.8,19.9-17.2
		c10.2-1.4,14.1-6.4,16.4-17c2.3-10.7,12.2-8.9,16.8-12.2c4.6-3.3,7.9-4.9,9.9-15.6c2-10.7,6.2-15.4,15-20.4
		c8.8-5.1,14.7-14.6,15.6-31.3c0.4-8,0.7-14.1,7.3-17c6.7-2.9,11.4-1.1,15.6,2.2c4.3,3.2,10,9.1,24.9,4.4c9.5-3.1,13,2.9,14.3,4.4
		c1.3,1.5,4.5,3.4,8.4,3.8C414.1,447.7,418.6,452.5,417,457.7z M744.8,427.9c-12.2-6-25.3-1-38,0c-11.6,0.9-21.7-3.1-31-9.9
		c-4.5-3.4-9.6-5.1-15.3-4.8c-5.5,0.3-10.9,1.7-16.4,2.3c-6,0.7-12.3,0.5-18.2-1.2c-5.7-1.7-10.5-5.1-15.6-7.9
		c-11-6-24.5-7.5-36.5-3.6c-3.1,1-5.9,2.3-8.8,3.8c-2.1,1.2-4.2,2.4-6.6,3.1c-5.1,1.5-10,0.4-14.8-1.6c-5.9-2.6-11.9-6.3-18.6-6.3
		c-5.6,0-10.6,2.7-14.9,5.9c-4.2,3-8,6.5-12.2,9.5c-4.8,3.5-10.1,5.9-16,6.8s-11.9,0.7-17.8,0c-6.5-0.7-13-2-19.4-0.7
		c-11.7,2.4-21.9,11.8-34.4,10.1c-5.6-0.8-9-5.5-14-7.5c-5.2-2-11.3-0.4-16.7-0.1c-8.8,0.4-16.2-4-19.8-12.2
		c-2.1-4.9-2.2-10.3-4.1-15.3c-2.1-5.6-5.5-10.7-9.9-14.6c-4-3.6-7.5-6.4-6.3-12.3c0.7-3.3,2.3-6.3,2.7-9.7c0.3-3.1-0.3-6.3-1-9.3
		c-1.2-5.2-2.8-10.6-1.9-16c1.1-6.1,6-11,6.3-17.3c0.1-2-0.4-3.6-1.6-5.2c-0.7-1.1-1.6-2-2-3.2c-0.6-1.7-0.4-3.4,0.3-5
		c0.9-2.3,2.5-4.2,3.8-6.2c1.9-2.9,2.5-5.7,2-9.1c-0.8-5.3-2.3-9.9,0.3-15c1.4-2.8,3.3-5.5,4.7-8.3c1.3-2.8,2.6-5.7,3.5-8.6
		c1-3.2,1.8-6.4,2.2-9.7c0.4-2.6,0.3-5.3,1.2-7.8c1.9-4.7,7.2-5.2,11.6-5.9c5.7-1.1,10.9-3.7,15.1-7.7c2.2-2,4.2-4.4,5.8-7
		c1-1.6,1.3-3,1.4-5c0.1-1,0.2-1.8,0.5-2.7c1.9-4.2,7.1-5.3,11.2-5.2c3.4,0.1,6.7,1,10.2,1c3.5,0.1,6.9-0.6,10.1-1.9
		c5.5-2,9.9-5.5,14.2-9.2c3.6-3.1,7.2-6.2,11.6-7.9c5.4-2.1,11.5-1.4,17,0.2c3.4,1,6.6,2.2,10,2.5c3.4,0.3,6.7-0.2,10-1
		c5.7-1.4,10.8-4,15.9-7.1c4.4-2.7,8.8-5.5,13.8-7.2c5.1-1.7,10.5-1.8,15.6-0.3c5.8,1.6,10.9,4.4,17,4.4c6.7,0.1,13.2-1.4,19.3-4.4
		c5-2.5,9.9-5.8,15.4-6.7c5.8-0.9,11,1.9,16.2,4.2c6.1,2.7,12.8,4.6,19.4,5.9c6.6,1.3,13.1-0.2,19.5-1.9c5.8-1.6,12.1-3.9,18.1-3.7
		c5.9,0.2,11.1,4.1,16,7c5.2,3.1,10.7,6.4,16.7,7.6c3.6,0.7,7.6,0.5,11.3,0.4c3.4-0.2,6.7-0.4,9.9-1.2c5.9-1.3,11.7-2.9,17.8-1.2
		c9.5,2.6,16.1,11.2,24.2,16.1c5.2,3.1,10.4,3.6,16.3,3.3c4.7-0.3,11.3-1.3,15.2,1.8c5.9,4.6,4.9,14,10.2,19.2
		c2.2,2.1,5.6,2.5,8.5,3.3c2.7,0.7,5.3,1.6,7.8,2.6c4.3,1.8,8.5,3.2,7.8,8.4c-0.4,2.8-1.2,5.3-0.7,8.3c0.5,3.2,2.2,5.7,4.4,8
		c3.7,4.2,6.6,7.6,7,13.4c0.4,5.9-0.8,11.8,1.4,17.6c1.9,4.8,5,9.3,5.9,14.5c0.4,2.1,0.2,4.2-0.6,6.2c-0.9,2.4-2.4,4.5-2.9,7
		c-0.9,3.9,1.1,8.2,1.8,11.9c0.4,2.8,0.7,5.7,0.5,8.5c-0.4,6.7-3.5,12.9-4,19.5c-0.3,3.4,0.7,6.6,1.1,9.9c0.3,2.4,0,4.9-0.8,7.2
		c-1.7,5.2-5.1,8.6-8.8,12.5c-3.6,3.9-5.9,8.4-7.5,13.4s-3,9.5-6.6,13.5c-3.2,3.6-7.3,6.5-11.8,8.2c-5.1,1.9-10.7,1.5-15.7,3.5
		c-5.3,2-7.4,7.9-12.7,10.2c-4.3,1.9-9.1,1.8-13.5,0.2C753,433.4,749.2,430,744.8,427.9z M953.2,632.1c-0.3,3.4,0.3,5.3-5.4,6.7
		c-5.7,1.4-7.9,6.7-11.3,12.3c-3.4,5.6-9.1,1.1-13.4-1.4c-4.4-2.6-13.1-4.7-17.7-4.5c-4.5,0.2-5.8-0.7-11.8-4.4
		c-6-3.6-9.6-11.9-19-12.3c-9.4-0.4-9-0.6-14.1-11.2c-5.1-10.6-15-14.7-21.6-16.3c-6.7-1.6-13.4-7.5-15.1-16.4
		c-1.8-9-5-14.7-13.7-21.3c-8.7-6.7-9.6-8.3-11.4-19.7c-1.8-11.4-10.5-17.3-15.9-21.5c-5.4-4.2-10.1-6.7-9.7-16.9
		c0.4-10.3-4.3-14.6-12.5-22.6c-8.3-8.1-5.4-22.1-4-27.1c1.3-4.6,5.7-7.1,13.8-8.4c8-1.3,12.3-8,16.3-10.7c4-2.7,18.3-1.6,23-1.6
		c4.7,0,9.4-2.3,13.2,6.1c3.6,8,0.5,9.8,1.6,17.2c1.1,7.5,11.8,13.3,14.6,15.5c2.8,2.3,2.4,2.8,1.9,4.3c-0.5,1.5-2.5,3.1-1.9,8.4
		c0.6,5.3,4.9,7.1,7.5,10.7c2.7,3.6,2.7,6.7,4.2,10.4c1.4,3.6,3.7,7.8,10.8,10c7.2,2.3,7.8,5.6,9.9,9.5c2,4,0.1,6,2.1,13.3
		s9.3,10.1,12.9,10.8c3.6,0.8,10.7,3.4,12.6,13c1.9,9.7,9.2,12.1,18.5,15.1c9.2,3,10.3,11.7,11.9,18.5s15.9,13,20,16.1
		C953.4,616.7,953.4,628.8,953.2,632.1z"/>
	<g>
		<path class="st5" d="M450.2,585.4c21.3-2.3,27.7-17.5,33-25.4v2c-5.1,52.6-32.8,55-39.9,39.2c-7.5-16.6-27.5-9.6-24.3,6.1
			c5.9,23.9,23.4,29,40.5,29.5c37.6,0.9,67.8-34.4,52-127c-3.4-18.1-31.2-16.2-33.5,2c-3.2,31.3-16.6,47.5-25.4,46.9
			c-9.4-0.2-1.1-42.2-1.1-45c2.6-20.2-29.7-21.9-34.8-4.9C415.4,511.9,393.5,584.3,450.2,585.4z"/>
		<path class="st5" d="M643.5,567.3c0.2-29.8-8.7-54-34.5-63.3c-6.6-8.3-30.5-8.7-42.4-3.6c-30.1,13.7-39.2,41.8-39.2,67.6
			c0,57.2,38.2,65.9,61,65.7C617.2,634.1,643.3,609.3,643.5,567.3z M589.6,607.6c-17.5,0.2-23.9-23-23.9-38.8
			c0-16.2,5.5-44.1,24.1-44.7c12.8,0.4,25.8,11.1,25.8,45C615.8,593.6,601.2,607.3,589.6,607.6z"/>
		<path class="st5" d="M707.1,635.1c43.2,0,45-47.3,46.4-60.8c1.5-14.7-0.6-59.5-2.1-66.3c-2.1-14-26.6-11.9-25.8,2.3
			c0,3.8,1.7,39.7,1.7,54.2c0,11.9-0.2,43.1-19.8,43.5c-28.4,0.6-11.9-96.6-11.9-99.6c2.3-17.3-35.6-14.7-36.2-2.8
			c-1.2,11.3-4.4,41.8-3.6,71.8C657.5,625.3,683.6,635.1,707.1,635.1z"/>
		<path class="st5" d="M272.3,750.6c10.5,3.5,25,8.8,22.6,20.3c-2.3,12.4-21.1,14.9-24-0.9c-2.3-14.1-24.1-13.7-24.1,1.7
			c0,13.7,9.6,32.5,40.1,33.1c10,0.2,37.4-2.6,42.1-32c3.8-26.7-18.8-39.8-30.4-44.8c-9.6-4.3-25-11.1-23.3-25.4
			c1.5-12.2,22.9-22,30.8,3.2c3.8,12.6,25,6.2,23.5-7.7c-5.6-45.1-89.3-45.1-93.1,7.9C234.3,739.1,265.1,747.8,272.3,750.6z"/>
		<path class="st5" d="M355.8,801.4c12.6,9.1,43.4-0.9,51.7-5.9c11.7-7.5,3.6-27.2-7.7-21.1c-2.8,0.9-6.8,3.2-11.1,5.1
			c-1.7,0.9-9,4.7-9.6-0.6c-0.4-3.4-0.2-9.6-0.4-13.1c1.5,0,16-4.3,24-5.9c9.6-3.5,6.4-20.7-3.8-19.9c-4.7,0.4-17.8,3-21,3.2
			c-0.2-6.2,1.5-43.4,3.2-55.3c4.7-0.2,23.3-0.2,27.2-0.2c10.5,0.2,11.4-17.8,3-19c-3.8-1.2-38.9-4.7-51.2-2
			c-6.8,0.9-12.8,4.9-14.6,17.8C344.9,689.7,331.6,784.1,355.8,801.4z"/>
		<path class="st5" d="M426.5,670.5c-5.6,3-6.2,21.1,2.3,20.5v1.5c-2,69.2,2.3,90.7,6.2,104.4c3,13.8,29.5,11.1,29.5,0
			c0.6-7.7,0.9-17.8,1.1-22.2c1.5,2.8,16.4,21.1,38.9,28.2c10.3,3.8,19.3-11.7,9.4-17.8c-4.3-3.4-15.4-7-19.6-17.8
			c25.8-16.7,32.7-35.2,31.4-54.5C521.7,651.7,431.6,668.3,426.5,670.5z M465.8,745c0,0,0.2-42.7,0.9-53
			c17.8,0.4,29.7,8.5,29.7,24.8C496.3,734.8,482.2,742.9,465.8,745z"/>
		<path class="st5" d="M575.5,688.2c0.6,0,2.8,0,3.5,0c10.9-1.2,11.1-21-0.6-20.5c-5.3,0.2-28.9-0.6-38.9,0.6
			c-9.4,1.5-8.8,21,3.5,19.9c-0.2,14.1-4.5,67.3-0.2,98.5c-1.2,0.4-2.6,0.9-3.5,1.1c-6.2,1.7-6.7,17.1,2.8,16.9
			c9.4-0.2,30.8-1.5,35.1-2.1c11.4-1.1,7.9-18.8,0-18.6c-1.5,0.2-2.1,0-3.6,0C576,765.1,575.8,696.1,575.5,688.2z"/>
		<path class="st5" d="M681.5,673.7c-6.7-8.3-30.5-8.8-42.5-3.6c-30.1,13.7-39.3,41.9-39.3,67.7c0,57.3,38.3,66,61.1,65.8
			c28.9,0.4,55.1-24.3,55.3-66.4C716.3,707.2,707.4,683.1,681.5,673.7z M662.1,777.5c-17.5,0.2-24-23.1-24-38.9
			c0-16.2,5.6-44.2,24.1-44.8c12.8,0.4,25.8,11.1,25.8,45.1C688.4,763.4,673.6,777.3,662.1,777.5z"/>
		<path class="st5" d="M731.9,675.4c-1.2,11.4-4.5,41.9-3.6,72c1.7,47.9,28,57.7,51.5,57.7c43.4,0,45.1-47.4,46.6-60.9
			c1.5-14.7-0.6-59.6-2.1-66.4c-2.1-14.1-26.7-12-25.8,2.3c0,3.8,1.7,39.8,1.7,54.2c0,12-0.2,43.1-19.9,43.6
			c-28.4,0.6-12-96.8-12-99.7C770.6,660.9,732.6,663.4,731.9,675.4z"/>
		<path class="st5" d="M898,728c-9.6-4.3-25-11.1-23.3-25.4c1.5-12.2,22.9-22,30.8,3.2c3.8,12.6,25,6.2,23.5-7.7
			C923.5,653,839.8,653,836,706c-2.3,33.1,28.4,41.9,35.7,44.7c10.5,3.5,25,8.8,22.6,20.3c-2.3,12.4-21.1,14.9-24-0.9
			c-2.3-14.1-24.1-13.7-24.1,1.7c0,13.7,9.6,32.5,40.1,33.1c10,0.2,37.4-2.6,42.1-32C932.2,746.1,909.6,733,898,728z"/>
		<path class="st5" d="M329.4,957.7c-3.7,11-10.3,22.2-23.2,20.6c-11.8-1.9-24.1-22.5-23.9-52.5c1.5-48.3,16-53.5,26.9-55.1
			c9.9-1.1,16.8,11,19.4,17c5,13.1,28.3,8.6,25.1-10.2c-1.2-7.3-7.1-37.9-44.6-39c-26.4-0.8-71.7,18.3-72.2,86.7
			c-0.5,64,36,83.9,65.3,84.2c36-1.6,53.7-24.1,55-41.5C358.8,947.8,333.4,945.5,329.4,957.7z"/>
		<path class="st5" d="M445.7,968.7c-3.7,0.5-35.8,5.5-40.7,6.8c-0.3-5.2,7.1-113.1,7.4-120.5c1-20.3-34.7-20.6-38.2-2.6
			c-1.2,4.4-13.6,94.5-2.5,138c4.2,9.9,7.9,21.4,31.3,18c17-1.9,27.9-4.4,46.1-8.1C467.2,996.2,463.2,966.6,445.7,968.7z"/>
		<path class="st5" d="M583.4,942.4c-2.7-1.6-8.9-1.6-11.5-1.6c0-1.9-2.2-60.1-23.4-88.9c-15-20.6-42.2-16.7-54,1.6
			c-2.5,4.4-21.7,27.4-23.9,95.3c-11.1,1.1-11.5,24.1-0.3,24.3c0,5.5-0.7,19.1,0,25.6c0.7,12.5,24.4,10.2,24.1-2.1
			c0-1.6,2-19.6,2-26.9c9.6-0.8,21.4-0.8,33-2.4c0,2.8,1,19.6,1.8,25.6c2.5,19.4,44.1,20.1,43.6-2.1c0-2.8-1-23-1-25.8
			c1.5,0,8.3-2.4,11.4-4.4C591.6,956.5,590.3,946,583.4,942.4z M498.5,945.2c2-44.4,10.1-70.3,15.5-70c5.4,0.5,9.9,31.3,12.6,68.2
			C518.2,943.9,508,943.9,498.5,945.2z"/>
		<path class="st5" d="M709.8,895.9c-4.4-74.9-108.4-54.6-114.3-52c-6.4,3.6-7.1,25.8,2.7,25v1.9c-2.2,84.6,2.7,111.1,7.1,127.8
			c3.5,17,34,13.6,34,0c0.7-9.4,1-21.7,1.2-27.2c1.8,3.4,19,25.8,44.8,34.5c11.8,4.7,22.2-14.4,10.8-21.7c-5-4.2-17.8-8.6-22.6-21.7
			C703.4,942.1,711.3,919.4,709.8,895.9z M640.9,935c0,0,0.3-52.2,1-64.8c20.4,0.5,34.3,10.5,34.3,30.3
			C676.1,922.5,659.9,932.4,640.9,935z"/>
		<path class="st5" d="M799.1,851.9c-2.7,3.6-21,39-36.9,67.4c0.7-18.6,2.2-64.8,1-69.2c-1.2-16.7-39.9-15.9-40.4-0.5
			c-1,10.5-6.7,106.4,3.5,150.5c3.9,11.3,32.2,14.4,33.5-2.6c0-1.3,0-8.6,0.3-15.9c13.5,9.7,28.3,18,39.2,23.3
			c13.1,6.8,23.2-14.1,14.6-21.4c-21.2-14.4-36.2-23.8-39.9-28.2c11.4-16.2,47.1-77.9,53.2-93C832.1,849.1,805.2,837.6,799.1,851.9z
			"/>
		<path class="st5" d="M866.8,973.2c-8.9,2.1-21.7,20.6-6.9,34.7c14.6,11.8,31.5,0.5,32-12.8C892.9,981,879.8,970.3,866.8,973.2z"/>
		<path class="st5" d="M838.7,893.7c5.7,17.2,33.5,12.1,27.3-7.8c-5.9-24.9,25.7-24.1,22.2-1.6c-5,34-34.5,33.7-31.3,66.9
			c1.2,19.6,33.5,17.5,31.5-3.9c-2-19.1,36-22.2,39.9-66.4C933.6,813.8,815,821.1,838.7,893.7z"/>
	</g>
</g>
</svg>
