<svg id="katman_1" data-name="katman 1" xmlns="http://www.w3.org/2000/svg" viewBox="0 0 566.93 517.66"><defs><style>.cls-1{fill:#d65b16;}</style></defs><path class="cls-1" d="M534.52,217.34c-.08-.41-.13-.65-.17-.87A258.18,258.18,0,0,0,426.78,67.64l-1.38-.94C423,65,420.52,63.3,417.14,63c-3.58-.34-7.24-.82-10.78-1.3-3.16-.41-6.31-.82-9.49-1.16-10.47-1.08-24.29-2-38.28.89-12.11,2.46-20.51,6.41-27.25,12.79-5.71,5.37-9.46,12.28-11.85,21.74L319.23,97l4.64.77c2.27.36,4.48.72,6.67,1.09a356.52,356.52,0,0,1,78.27,21.47c28.85,11.68,53.53,26.05,75.43,43.89,17.05,13.89,30.63,28.41,41.51,44.37L535.5,223Zm-154.12,14A31.89,31.89,0,0,0,377,236l4.09,4.94v-.46A46.48,46.48,0,0,0,380.4,231.38Zm162.4,37.84a7.9,7.9,0,0,0-.51-2.4q-2.82-7.56-6.31-14.76l-.72,4.52c-4,24.87-7.41,46.35-7.41,58.46v1.16c2.91-3.18,7.65-9.27,15.14-20.85A231.54,231.54,0,0,0,542.8,269.22Zm-28.58,81.5c-22.87,0-22.87-37.12-22.87-49.31,0-.77,0-1.56,0-2.33-16.42,27.11-31.59,41.67-45.31,43.43a301,301,0,0,1,19.53,55.38,197.92,197.92,0,0,1,5.75,55.59c-.07,1.39-.17,2.79-.27,4.19l-.19,2.74,2.05.8.48-.56,3.54-4.07c2.53-2.89,5.15-5.9,7.66-8.9a255.42,255.42,0,0,0,52.84-109.12C526.69,348.87,519.44,350.72,514.22,350.72Zm-3.78-137.5a234.57,234.57,0,0,0-41.1-37.15c-24.65-17.57-52.17-31.17-84.12-41.6a381.88,381.88,0,0,0-53.76-13c-2.55-.43-5.11-.77-7.73-1.13-1.2-.17-2.46-.34-3.71-.53l-1.15-.17,0,1.9c0,.41,0,.73,0,1l0,.36c.1,1,.17,2,.31,2.94a169.09,169.09,0,0,0,12.6,43.79,198.85,198.85,0,0,0,31.1,49.84c9.63-11.32,20.3-16.69,29.42-16.69,6.77,0,28.87,3.21,28.87,44.5A163.47,163.47,0,0,1,417,281.7c-.45,2.09-.89,4.14-1.3,6.13l2.53,3.93c4.41-34.82,31-67.34,57.06-67.34,9.32,0,17.89,4.14,24.87,11.82A29.58,29.58,0,0,1,511,229.43l.34-.65-.05.55A24.66,24.66,0,0,1,519,228a18.82,18.82,0,0,1,3.13.24A181.61,181.61,0,0,0,510.44,213.22Zm-31.93,34.46c-7.48,0-20,36.66-20,58.52v.73c5.23-6.31,14.59-20.73,28.8-48.81C481.84,248,478.56,247.68,478.51,247.68Zm-132.65-8.31a237.5,237.5,0,0,1-30-44.69c-11.34-22.12-17.92-43.93-20.11-66.69-.21-2.21-.36-4.43-.53-6.79l-.33-4.59H242.62l-.32,3.92c-.16,2-.31,3.78-.4,5.59-.37,5.89-.78,11.77-1.16,17.64-.92,13.39-1.83,27.21-2.34,40.86-.55,15.29-.84,30-.84,44.2a23.25,23.25,0,0,1,6-.79c10.55,0,17.65,7.25,17.65,18l-.05.82-.46,4-.89,5.71c-4,24.89-7.44,46.39-7.44,58.5,0,.39,0,.77,0,1.11,3.1-3.42,8.35-10.16,16.8-23.43V257.31c0-12.07,10.62-19.26,20.85-19.26,7.49,0,13.63,3.56,16.95,9.24,6.21-8.55,13.65-13.24,21.55-13.24,7.68,0,14.13,4.33,18.78,12.21.46-1.18.94-2.34,1.44-3.45C347.81,241.68,346.82,240.53,345.86,239.37ZM449.62,411.8c-5.32-19.4-13.48-39.48-24.92-61.32-.53-1-1.05-2-1.58-3-8.77,11.27-18,17.29-26.78,17.29-7.36,0-24.48-4.38-24.48-44.9,0-11.66,1.64-25.62,5-42.69,0-.1.05-.22.07-.31Q372.48,271,368,265.28c-.85-1.09-1.69-2.15-2.58-3.21a248.35,248.35,0,0,0-9.61,41.58c-2.35,15.82-12.88,21.41-21.18,21.41-11,0-19.65-8.45-19.65-19.24l0-2.38c1-8.86,1.63-16.38,2-22.71-1.78,7.18-3.73,16.47-5.73,28.29-3.87,24.56-18.08,26.46-22.34,26.46a20.41,20.41,0,0,1-16.25-8.67c-11.17,13.78-20.73,21.38-29.32,23.36,2,25.4,5.34,52,10.16,81.11,3.63,22,7.94,45.41,14.85,68.11,2.7,8.86,5.83,17.72,8.86,26.29,1.64,4.62,3.28,9.22,4.84,13.87.75,2.14,2,3,4.38,3h.17a264,264,0,0,0,95.8-19.33c24.27-9.92,46.68-23.43,68.57-41.27,4.43-3.63,6.35-7.56,6.38-13.17A209.68,209.68,0,0,0,449.62,411.8ZM203.08,247.68c-7.48,0-20.05,36.66-20.05,58.52,0,.27,0,.49,0,.73,5.2-6.31,14.59-20.73,28.77-48.81C206.38,248,203.11,247.68,203.08,247.68Zm17.41-128.5a3.11,3.11,0,0,1-.43-.14,1.41,1.41,0,0,0-.89-.12l-5.35,1c-13.86,2.5-28.21,5.08-42.27,7.75-1.38.24-2.53,2.05-2.73,3.18-3,17.48-8.52,35.22-17.21,55.81-4,9.53-8.45,19-13.27,28.31,4.27,6.62,7.42,16.76,7.42,32.34a163.6,163.6,0,0,1-4.19,34.43c-3.51,16-5.44,29.83-5.44,38.95,0,.48,0,.94,0,1.37a129.74,129.74,0,0,0,6.24-12.76c-.1-.82-.17-1.66-.24-2.53l0-.53v-4.4c0-38.33,29.16-77.38,57.76-77.38a30.41,30.41,0,0,1,12.55,2.69q.28-13.79,1.18-27.66c1.06-16.49,2.6-33.22,4.09-49.4l1.11-11.9c.36-4,1-8.16,1.59-12.13.28-1.9.57-3.8.84-5.71l.12-.89ZM268,540.42q-1.22-2.5-2.45-4.84a106.63,106.63,0,0,1-4.62-9.71c-1.09-2.79-2.2-5.56-3.33-8.35-4.5-11.32-9.17-23-13-34.79-9-27.45-15.91-57.9-21.26-93.08-2.84-18.73-4.76-34.33-6.06-49.11-1.06-12-2-24.58-2.85-39-17,27.37-32.59,41.19-46.63,41.19a20.13,20.13,0,0,1-13.41-5c-10.69,17.55-22.37,27.09-33.49,27.09-7.34,0-24.46-4.38-24.46-44.9,0-10.62,1.32-23.12,4.09-38.12-3.51,7.54-6.64,15.12-9.36,22.9-8,22.63-12.62,43.84-14.31,64.91-1.58,19.79-1,40.59,1.69,63.58,0,.56.12,1.16.17,1.74.29,2.91.6,6.18,2.31,8.35a303.74,303.74,0,0,0,21.26,24.17,245.15,245.15,0,0,0,43,34.48A260.5,260.5,0,0,0,201.78,529a253.84,253.84,0,0,0,48.88,11.29c3.63.46,7.22.8,11,1.13l5.27.48,1.85.2ZM60.31,400.51A238.2,238.2,0,0,1,64,324.43a19.56,19.56,0,0,1-24.48-18.61l0-2.38c1-8.86,1.61-16.38,2-22.71-1.78,7.2-3.75,16.47-5.75,28.29-1.28,8.14-3.68,13.77-6.52,17.7.09.72.21,1.42.33,2.14A254.15,254.15,0,0,0,53.4,400.37c1.21,2.4,2.51,4.76,3.81,7.12.58,1.09,1.18,2.14,1.76,3.25l.43.8,2.33-.92-.55-3.78C60.87,404.72,60.55,402.63,60.31,400.51ZM147,134.64l-.58.22c-1.71.65-3.42,1.25-5.15,1.87-3.76,1.33-7.66,2.7-11.37,4.36l-5.66,2.53c-9.17,4-18.65,8.23-27.61,13.1-17,9.17-33.76,21.3-52.85,38.16a16.62,16.62,0,0,0-5.2,7.7,281.63,281.63,0,0,0-9.75,41.17,18.5,18.5,0,0,1,2.72,3.54c6.21-8.55,13.65-13.24,21.55-13.24,7.68,0,14.13,4.33,18.78,12.21,11.82-29.74,30.36-43.49,45-43.49a22.29,22.29,0,0,1,2.91.2,398.24,398.24,0,0,0,21-44.66c1.92-4.87,3.68-9.85,5.39-14.69.79-2.26,1.59-4.5,2.41-6.77l.21-.65Zm-.25-66c-1.08-1.3-2.45-2.57-4.91-.91a273.19,273.19,0,0,0-32.48,25.4,245,245,0,0,0-37,42.3c-4.48,6.57-8.69,13.48-12.76,20.15-1.85,3.06-3.68,6.09-5.59,9.1l-.45.75,2.07,1.78.91-.67a3.82,3.82,0,0,0,.65-.49,259.38,259.38,0,0,1,50.3-34.26,285.85,285.85,0,0,1,42.8-18.29,4.53,4.53,0,0,0,3.59-4.27c.12-1.58.29-3.2.46-4.79A88.56,88.56,0,0,0,155,95.3C155,83.84,152.36,75.36,146.79,68.62Zm95.47-40.2a255.64,255.64,0,0,0-86.48,30.81l-1.16.68.94.94c13.58,13.62,15.29,30.74,15.26,44.13v1.25L225.4,95.8l.15-.67c5.1-25.54,10.76-46.3,17.84-65.34l.62-1.66Zm131,12.32a9.63,9.63,0,0,0-1.09-.46c-2.62-.81-5.24-1.66-7.87-2.5-5.82-1.88-11.87-3.8-17.91-5.3A255.84,255.84,0,0,0,261.54,26c-2.17.2-4.24.85-4.91,4.17-.87,4.48-1.81,8.91-2.74,13.36-1.26,6-2.56,12.21-3.69,18.35-1.32,7.17-2.43,14.23-3.61,21.69-.51,3.23-1,6.48-1.54,9.75l-.19,1.18h2.65l12.88,0c10.54,0,21.45,0,32.19.21h.33c2.82,0,4.43-.67,5.27-4A59.92,59.92,0,0,1,315.69,61c11.17-10.23,25.13-15.87,42.68-17.17,3.33-.26,6.77-.19,10.09-.12,1.57,0,3.13,0,4.7,0h.91l.29-2.53Z" transform="translate(0 -24.92)"/><path d="M562.52,279.72a4.29,4.29,0,0,0-3.61,2.4C539.66,314.2,529.24,327,524,327c-3.21,0-4.41-4.41-4.41-11.63,0-13.63,4-37.69,8.42-65.35l.4-3.61c0-7.62-4.81-10.83-10.43-10.83-6.81,0-14.83,4.81-18.84,13.23C492.35,237.22,483.53,232,474.31,232c-24.06,0-50.52,34.89-50.52,70.17v4.41c.1,1.41.25,2.78.43,4.12-7.36,17.4-12.8,24.75-16.46,24.75-2.81,0-4.41-5.21-4.41-14.44,0-9.62,2-24.05,5.61-40.49a154.7,154.7,0,0,0,4-32.88c0-25.26-9.22-37.29-21.65-37.29-15.64,0-36.09,20.85-44.91,61-2.4-19.65-10-29.67-18.84-29.67-9.23,0-19.65,10.82-26.07,32.87V258.06c0-8.41-6-12.42-12.42-12.42-6.82,0-13.64,4.41-13.64,12v37.52C261.25,317.7,253,327,248.58,327c-3.2,0-4.41-4.41-4.41-11.63,0-13.63,4-37.69,8.42-65.35l.4-3.61c0-7.62-4.81-10.83-10.42-10.83-6.82,0-14.83,4.81-18.84,13.23C216.91,237.22,208.09,232,198.87,232c-24.06,0-50.52,34.89-50.52,70.17v4.41c.1,1.41.25,2.78.42,4.12-7.35,17.4-12.8,24.75-16.46,24.75-2.8,0-4.41-5.21-4.41-14.44,0-9.62,2-24.05,5.62-40.49a155.35,155.35,0,0,0,4-32.88c0-25.26-9.23-37.29-21.66-37.29-15.63,0-36.08,20.85-44.9,61-2.41-19.65-10-29.67-18.85-29.67-9.22,0-19.64,10.82-26.06,32.87V258.06c0-8.41-6-12.42-12.43-12.42-6.81,0-13.63,4.41-13.63,12V317c0,5.61,6,11.62,12.43,11.62,6,0,12.83-5.21,15.24-20.45,6-35.68,12.83-54.52,16.84-54.52,2.4,0,3.6,5.61,3.6,16.44,0,8.41-.8,19.64-2.4,34.48v1.6c0,7.22,6,12,12.43,12,6,0,12.43-4.41,14-15.24,7.22-48.91,24.06-80.19,33.28-80.19,4,0,6.41,5.62,6.41,18.05,0,9.22-1.2,21.65-4.41,38.08s-4.81,30.08-4.81,41.3c0,25.26,7.22,37.69,17.24,37.69,9.47,0,21.49-11.18,32.62-33.2,3.16,6.89,8,11.15,14.29,11.15,12.83,0,32.48-18,57.34-68.56-1.21,13.23-2,24.46-2,34.48,0,27.66,5.21,42.1,15.64,42.1,9,0,21.54-10.8,37.68-33.77V317c0,5.61,6,11.62,12.43,11.62,6,0,12.83-5.21,15.24-20.45,6-35.68,12.83-54.52,16.84-54.52,2.4,0,3.61,5.61,3.61,16.44,0,8.41-.8,19.64-2.41,34.48v1.6c0,7.22,6,12,12.43,12,6,0,12.43-4.41,14-15.24,7.22-48.91,24.06-80.19,33.28-80.19,4,0,6.42,5.62,6.42,18.05,0,9.22-1.2,21.65-4.41,38.08s-4.81,30.08-4.81,41.3c0,25.26,7.21,37.69,17.24,37.69,9.47,0,21.49-11.18,32.62-33.2,3.15,6.89,8,11.15,14.28,11.15,12.83,0,32.48-18,57.34-68.56-1.2,13.23-2,24.46-2,34.48,0,27.66,5.22,42.1,15.64,42.1,11.63,0,29.27-18,52.93-57.34l.8-2.4A4.45,4.45,0,0,0,562.52,279.72Zm-383.3,38.49c-2.81,0-4.41-3.21-4.41-11.63,0-17.64,10.83-65.75,27.27-65.75,5.21,0,10.82,5.21,16.83,17.64C205.68,284.93,187.24,318.21,179.22,318.21Zm275.44,0c-2.8,0-4.41-3.21-4.41-11.63,0-17.64,10.83-65.75,27.27-65.75,5.21,0,10.82,5.21,16.84,17.64C481.13,284.93,462.68,318.21,454.66,318.21Z" transform="translate(0 -24.92)"/></svg>