<svg id="katman_1" data-name="katman 1" xmlns="http://www.w3.org/2000/svg" viewBox="0 0 566.93 189.13"><defs><style>.cls-1{fill:#d65b16;}</style></defs><path d="M33.65,307.25c4.19-2,8.88-6.38,8.88-21.72v-4c0-15.86-6.36-24.61-22.91-24.61H0V365H20.93c16.63,0,23.36-9.64,23.36-27.91v-8.19C44.29,313.21,37.92,309.17,33.65,307.25ZM14.24,270.71H18.8c7,0,9.87,3.47,9.87,12.43v4.22C28.67,298.08,26.2,301,18,301H14.24Zm15.55,66c0,10.46-2.13,14.71-10.63,14.71H14.24v-37H18c9.39,0,11.76,4.52,11.76,15.06Z" transform="translate(0 -188.91)"/><path d="M93,257H72.16L56.76,365h15l3.35-28.91H89.8L93.56,365H109ZM77,320.8c1.91-16,4.78-39.1,5.19-48h.54c1.09,12.22,3.19,29.65,5.37,48Z" transform="translate(0 -188.91)"/><path d="M144.27,255.23c-17.25,0-21.05,14.36-21.05,28.6,0,16,5.48,21.87,15.76,31.06,1.62,1.45,3.06,2.76,4.3,4V298.11a8.55,8.55,0,0,1,.25-2.06c-4.74-4.83-5.58-8.45-5.58-14.62,0-7.16,1.26-11.87,6.05-11.87s6,4.56,6,12.08V287h14.61v-5.78C164.63,269.47,161.91,255.25,144.27,255.23Zm19.17,63.07c-.28,1.48-.56,3.07-.85,4.76-1.82,11.49-8.35,12.38-10.31,12.38a7.14,7.14,0,0,1-.93-.06c.07,1.19.1,2.47.1,3.87,0,7-1.49,13.17-7.23,13.17s-7.74-4.47-7.74-12.52v-6.67H121.75v6.41c0,14.24,4.31,27,22,27,17.84,0,22.59-14.53,22.59-29.86C166.32,329,165.5,323.25,163.44,318.3Z" transform="translate(0 -188.91)"/><path d="M182.53,257v32.61c4.11-8.67,9.44-13.94,14.49-16.14V257Zm14.49,40V285.19c-.06-.25-.11-.45-.17-.62-2.88,2.32-9.51,14.18-12.71,35.91a14,14,0,0,1-1.61,4.93V365H197V345.79c-2.25-3-4.06-8.24-4.06-17.4a109.88,109.88,0,0,1,2.38-20.56C196.12,303.86,196.68,300.21,197,296.93Zm18.06,24.86v-2.13a39.69,39.69,0,0,1,1.26-9.75l-1.53-5.46c-.27,1.73-.62,3.52-1,5.36-1.71,7.78-2.64,14.52-2.64,19,0,1,0,1.72.09,2.34a49.89,49.89,0,0,0,4-7.77c-.05-.45-.09-.89-.12-1.35ZM214.27,257c-1.76,5-3.85,10.9-6,17,3.66,2.23,7.43,7.33,7.52,18.93L230.68,257Zm10.06,81.6a9.4,9.4,0,0,1-4-2.34c-3,5-6.14,8.74-9.3,11L215.66,365h16.06Z" transform="translate(0 -188.91)"/><path d="M244.07,293h-.15v15c1.5-2.73,3.15-5.87,5-9.47C246.05,293.12,244.28,293,244.07,293Zm26.53,7.38c-.91,5.64-1.72,10.85-2.3,15.33h8.14c.05-.08.11-.16.16-.25V300.33ZM243.92,257v25.83a16.11,16.11,0,0,1,10.61,5.89,14.07,14.07,0,0,1,4.13-3V272.42h22.17V257Zm14.74,92.76V342.4c-7.87-2.74-7.87-17.7-7.87-22.93,0-1,0-2,0-3.06a106,106,0,0,1-6.91,10.48V365H281l1.86-15.33Z" transform="translate(0 -188.91)"/><path d="M317.47,320.48c-1,6.43-4.79,9.21-8.3,9.79V365H323.9v-69.7A112,112,0,0,0,317.47,320.48ZM293.83,257v15.47h15.34v16.13A12.72,12.72,0,0,1,314,294c2.72-7.18,6.23-12.51,9.92-16.08v-5.47h9.68a11.69,11.69,0,0,1,2.09-.19,11.39,11.39,0,0,1,2,.19h1.62V257Z" transform="translate(0 -188.91)"/><path d="M372.67,257H353.06V300.8c3.48-6.95,8.6-12.7,14.22-15.74V270.71h4.57c7,0,9.87,3.47,9.87,12.43V284a17.91,17.91,0,0,1,6.13,4.7,13.27,13.27,0,0,1,7.72-4.11v-3C395.57,265.7,389.21,257,372.67,257Zm22,85.88c-10.55,0-10.55-17.59-10.55-23.36,0-1,0-2,.05-3.06-.83,1.41-1.64,2.75-2.46,4a27.58,27.58,0,0,1,1.12,9.07v7.21c0,10.46-2.11,14.71-10.62,14.71h-4.93V336.68a13.11,13.11,0,0,1-7,2.26,9.34,9.34,0,0,1-6.62-2.73c-.21.36-.42.7-.64,1.05V365H374c14.92,0,21.87-7.75,23.15-22.53A9.54,9.54,0,0,1,394.67,342.83Zm-14-46.91c-1.32,3.67-4.09,4.95-9.09,5a70.59,70.59,0,0,0-3.7,13.49h3.2c.84,0,1.64,0,2.38.11,2.35-3.9,5.24-9.12,8.74-16.05A28,28,0,0,0,380.68,295.92Z" transform="translate(0 -188.91)"/><path d="M446,257H425.2l-6.95,48.86h.28a5.12,5.12,0,0,1,5.12,5.12v.49l-.64,1.94-.17.27c-2.66,4.42-5.09,8.17-7.33,11.36L409.81,365h15l3.35-28.91h14.7L446.6,365H462ZM430,320.8c1.91-16,4.78-39.1,5.2-48h.53c1.1,12.22,3.18,29.65,5.37,48Z" transform="translate(0 -188.91)"/><path d="M491,350.14V257H476.22V365h37.52l1.25-14.9Z" transform="translate(0 -188.91)"/><path d="M542.89,350.14V257H528.15V365h37.53l1.25-14.9Z" transform="translate(0 -188.91)"/><rect y="182.78" width="323.62" height="6.35"/><rect class="cls-1" x="334.95" y="182.78" width="65.52" height="6.35"/><rect x="501.41" y="182.78" width="65.52" height="6.35"/><rect class="cls-1" x="410.91" y="182.78" width="42.76" height="6.35"/><rect class="cls-1" x="462.87" y="182.78" width="29.35" height="6.35"/><path class="cls-1" d="M368,253a55,55,0,0,0-.29-5.77A63.67,63.67,0,0,0,365,234.51a3.82,3.82,0,0,0-1.18-1.74,64.25,64.25,0,0,0-12-8.68c-2-1.09-4.18-2.05-6.27-3l-1.29-.57c-.84-.38-1.73-.69-2.58-1q-.58-.2-1.17-.42l-.13,0-.4.35,0,.14c.18.52.36,1,.55,1.54.39,1.09.79,2.23,1.22,3.33a105.17,105.17,0,0,0,8,15.85l1.36,2.21a59.55,59.55,0,0,1,3.83,6.81c.55,1.21,1.05,2.42,1.51,3.63h-5.37a61,61,0,0,0-4.34-7.9,92.7,92.7,0,0,1-7.48-14.16,58.42,58.42,0,0,1-3.91-12.68,1,1,0,0,0-.61-.72c-3.2-.61-6.46-1.2-9.61-1.76l-1.21-.22a.47.47,0,0,0-.21,0l-.1,0-.19.06,0,.2.18,1.29c.14.91.29,1.84.36,2.76l.26,2.7c.34,3.68.69,7.48.93,11.22a155,155,0,0,1,.13,17.49c0,.57-.06,1.12-.09,1.66h-5.81c.38-7,.43-14.41.13-22.51-.11-3.1-.32-6.25-.52-9.29l-.27-4c0-.42-.06-.83-.1-1.28l-.07-.89H306.79l-.08,1.05c0,.54-.07,1-.12,1.54A41.37,41.37,0,0,1,302,232.72a53.56,53.56,0,0,1-6.82,10.15c-.65.79-1.34,1.57-2,2.33-1,1.15-2.05,2.33-3,3.56S288,251.53,287,253h-7q1.2-1.8,2.5-3.62c2.69-3.74,5.58-7.15,8.82-10.9A45.28,45.28,0,0,0,298.41,227a38.14,38.14,0,0,0,2.86-9.94c0-.22.05-.44.07-.67v-.08a1.62,1.62,0,0,0,0-.23v-.44l-.26,0-.84.12c-.6.08-1.18.16-1.75.26a86.08,86.08,0,0,0-12.22,3,69.48,69.48,0,0,0-19.11,9.46,52.91,52.91,0,0,0-9.33,8.43,40.24,40.24,0,0,0-7.25,12.18,2.33,2.33,0,0,0-.11.55c-.07,1.08-.1,2.17-.1,3.29h-5.24a64.15,64.15,0,0,1,64-64h.05a64.14,64.14,0,0,1,64,64Zm-84.33-50.7c-.72.07-1.43.17-2.15.26s-1.64.21-2.45.29a4,4,0,0,0-1.88.85l-.31.21a58.59,58.59,0,0,0-24.43,33.81.69.69,0,0,0,0,.2l-.23,1.27,2.21-3.25a47.3,47.3,0,0,1,9.44-10.08,65.38,65.38,0,0,1,17.13-10A80.43,80.43,0,0,1,298.69,211l1.52-.25,1.05-.17-.06-.25a9.74,9.74,0,0,0-2.69-4.94,12,12,0,0,0-6.19-2.9A28.66,28.66,0,0,0,283.62,202.25Zm34.49,7.44c-.12-.75-.23-1.48-.35-2.22-.26-1.69-.51-3.29-.81-4.92-.26-1.39-.56-2.81-.85-4.17-.21-1-.42-2-.62-3a1.06,1.06,0,0,0-1.11-.95,58.11,58.11,0,0,0-19.28,1.47c-1.38.34-2.75.78-4.07,1.21l-1.79.57a.87.87,0,0,0-.24.1l-.25.11.06.58H289l1.07,0c.75,0,1.53,0,2.29,0a15.56,15.56,0,0,1,9.7,3.9,13.56,13.56,0,0,1,4,6.77,1,1,0,0,0,1.2.9h.08c2.44,0,4.91-.05,7.31-.06h3.53ZM338.4,202a58.31,58.31,0,0,0-19.65-7l-.4-.07.14.38a95.76,95.76,0,0,1,4.06,14.84l0,.16L335,212.62v-.28c0-3,.39-6.93,3.47-10l.22-.22Zm23.1,24-1.26-2.06c-.93-1.52-1.88-3.09-2.91-4.59a55.75,55.75,0,0,0-8.4-9.6,61.35,61.35,0,0,0-7.38-5.77.72.72,0,0,0-1.11.21,9.08,9.08,0,0,0-1.87,6,20.36,20.36,0,0,0,.14,2.08c0,.36.08.72.11,1.08a1,1,0,0,0,.81,1,64.79,64.79,0,0,1,9.72,4.16,58.22,58.22,0,0,1,11.43,7.78.53.53,0,0,0,.15.11l.21.16.46-.41Z" transform="translate(0 -188.91)"/><path d="M418.54,308.79a2.09,2.09,0,0,0-1.75,1.16c-9.32,15.53-14.36,21.74-16.88,21.74-1.56,0-2.14-2.14-2.14-5.63,0-6.6,1.94-18.24,4.08-31.63l.19-1.75c0-3.69-2.33-5.24-5-5.24-3.3,0-7.19,2.33-9.13,6.4-3.3-5.62-7.57-8.15-12-8.15-11.64,0-24.45,16.89-24.45,34v2.13c.05.68.12,1.35.2,2-3.56,8.42-6.19,12-8,12-1.36,0-2.14-2.52-2.14-7,0-4.66,1-11.65,2.72-19.6a74.87,74.87,0,0,0,1.94-15.92c0-12.22-4.46-18.05-10.48-18.05-7.57,0-17.47,10.1-21.74,29.5-1.16-9.51-4.85-14.36-9.12-14.36-4.46,0-9.51,5.24-12.61,15.92v-8a5.69,5.69,0,0,0-6-6c-3.3,0-6.6,2.14-6.6,5.82v18.16c-6.87,10.9-10.85,15.42-13,15.42-1.55,0-2.13-2.14-2.13-5.63,0-6.6,1.94-18.24,4.07-31.63l.2-1.75c0-3.69-2.33-5.24-5.05-5.24-3.3,0-7.18,2.33-9.12,6.4-3.3-5.62-7.57-8.15-12-8.15-11.65,0-24.46,16.89-24.46,34v2.13c.05.68.13,1.35.21,2-3.56,8.42-6.2,12-8,12-1.36,0-2.13-2.52-2.13-7,0-4.66,1-11.65,2.71-19.6a75,75,0,0,0,2-15.92c0-12.22-4.47-18.05-10.49-18.05-7.56,0-17.46,10.1-21.73,29.5-1.17-9.51-4.85-14.36-9.12-14.36-4.47,0-9.51,5.24-12.62,15.92v-8a5.69,5.69,0,0,0-6-6c-3.3,0-6.6,2.14-6.6,5.82v28.73c0,2.71,2.91,5.63,6,5.63,2.91,0,6.21-2.53,7.38-9.9,2.91-17.28,6.21-26.4,8.15-26.4,1.16,0,1.75,2.72,1.75,8a163,163,0,0,1-1.17,16.69v.78a5.88,5.88,0,0,0,6,5.82c2.91,0,6-2.14,6.79-7.38,3.49-23.67,11.65-38.81,16.11-38.81,1.94,0,3.1,2.72,3.1,8.73a98.85,98.85,0,0,1-2.13,18.44,107.44,107.44,0,0,0-2.33,20c0,12.23,3.49,18.24,8.35,18.24,4.58,0,10.4-5.41,15.79-16.07,1.52,3.33,3.85,5.4,6.91,5.4,6.21,0,15.72-8.73,27.75-33.19-.58,6.41-1,11.84-1,16.69,0,13.39,2.53,20.38,7.57,20.38,4.35,0,10.43-5.23,18.24-16.35v3.35c0,2.71,2.91,5.63,6,5.63,2.91,0,6.21-2.53,7.37-9.9,2.91-17.28,6.21-26.4,8.15-26.4,1.17,0,1.75,2.72,1.75,8a165.41,165.41,0,0,1-1.16,16.69v.78a5.88,5.88,0,0,0,6,5.82c2.91,0,6-2.14,6.8-7.38,3.49-23.67,11.64-38.81,16.1-38.81,1.94,0,3.11,2.72,3.11,8.73a98.18,98.18,0,0,1-2.14,18.44,107.32,107.32,0,0,0-2.32,20c0,12.23,3.49,18.24,8.34,18.24,4.58,0,10.4-5.41,15.79-16.07,1.53,3.33,3.85,5.4,6.91,5.4,6.22,0,15.73-8.73,27.76-33.19-.58,6.41-1,11.84-1,16.69,0,13.39,2.52,20.38,7.57,20.38,5.62,0,14.16-8.73,25.61-27.75l.39-1.17A2.15,2.15,0,0,0,418.54,308.79ZM233,327.42c-1.36,0-2.14-1.55-2.14-5.63,0-8.54,5.24-31.83,13.2-31.83,2.52,0,5.24,2.53,8.15,8.54C245.82,311.31,236.89,327.42,233,327.42Zm133.32,0c-1.36,0-2.13-1.55-2.13-5.63,0-8.54,5.24-31.83,13.19-31.83,2.53,0,5.24,2.53,8.15,8.54C379.14,311.31,370.21,327.42,366.33,327.42Z" transform="translate(0 -188.91)"/></svg>