<svg id="katman_1" data-name="katman 1" xmlns="http://www.w3.org/2000/svg" viewBox="0 0 566.93 487.6"><defs><style>.cls-1{fill:#d65b16;}</style></defs><path class="cls-1" d="M69.42,108.23v75l-15.1,18H15.79L0,183.21V57.73l15.79-18H54.32l15.1,18v23.6H48.77V57.73H20.31V183.21H48.77V126.46H35.58V108.23Z" transform="translate(0 -39.68)"/><path class="cls-1" d="M95.63,183.21H105L129.47,57.73h-6.42v-18h39.57v18h-6.25l24.3,125.48h8.68v18h-36.8v-18h10.24l-6.24-31.59H129.12l-6.07,31.59h9.72v18H95.63Zm37.14-49.81H152.9L142.83,81.33Z" transform="translate(0 -39.68)"/><path class="cls-1" d="M262.93,172.27l-20-84v94.94h9.55v18H212.43v-18h9.72V57.73h-9.72v-18H251l12.67,58.66,13-58.66H315v18h-9.55V183.21H315v18H274.91v-18h9.54V88.27l-20,84Z" transform="translate(0 -39.68)"/><path class="cls-1" d="M384.24,127.15H371.57v56.06h22.74V158.74h18.22v42.52H341.72v-18h9.2V57.73h-9.37v-18h69.6V81.33H392.92V57.73H371.57V109.1h12.67v-12h19.62v41.14H384.24Z" transform="translate(0 -39.68)"/><path d="M69.44,261V237.36l-15.12-18H15.8L0,237.36V362.84l15.79,18H54.32l15.12-18v-75H35.58v18.22h13.2v56.75H20.32V237.36H48.78V261Z" transform="translate(0 -39.68)"/><path d="M180.67,362.84,156.36,237.36h6.26v-18H123.05v18h6.41l-17.17,88.05c6.41-8.7,14.16-12.39,21.38-12.39h-.9l10.07-52,10.06,52H133.67c14.42,0,29.33,14.89,29.33,39.81a59.82,59.82,0,0,1-.55,8.24l.35,1.77h-.61a64.31,64.31,0,0,1-1.57,7.28c-1,3.74-2,7.34-3.1,10.76h19.35a41.54,41.54,0,0,1,12.47-7.77V362.84Zm-49.44,0c-1,5.51-1.88,11.63-2.52,18h4.06v-18Zm-35.59,0v18h2.87a165.34,165.34,0,0,1,1.16-18Z" transform="translate(0 -39.68)"/><path d="M315,237.36v-18H276.64l-13,58.66L251,219.32H212.44v18h9.71V362.84h-9.71v12.33a29,29,0,0,1,5.86,4.9,22.94,22.94,0,0,1,7.95-5l.49-.21.49-.11a18.86,18.86,0,0,1,5.49-.84c5.62,0,10,2.61,12.27,6.93h7.54v-18H243V267.91l20,84h1.54l20-84v94.93H274.9v9.42c7.31.73,12.33,3.89,13.78,8.62h11.86a18.15,18.15,0,0,1,9.49-5.83l1.48-.41,1.45-.17a19.38,19.38,0,0,1,2-.17V362.84h-9.54V237.36Z" transform="translate(0 -39.68)"/><path d="M394.31,338.38v24.46H371.56v-56h12.68V317.9h19.61V276.76H384.24v12H371.56V237.36h21.36V261h18.22V219.32h-69.6v18h9.37V362.84h-9.2v18h70.82v-42.5Z" transform="translate(0 -39.68)"/><path class="cls-1" d="M422.51,341.27a124.54,124.54,0,0,0,13-.67,143.2,143.2,0,0,0,28.57-6A8.58,8.58,0,0,0,468,332c8.64-9.77,14.85-18.37,19.55-27.07,2.48-4.59,4.63-9.44,6.71-14.14l1.3-2.91c.84-1.89,1.54-3.9,2.23-5.82.31-.88.62-1.76.95-2.64l.11-.3-.8-.89-.33.12-3.46,1.23c-2.47.87-5,1.77-7.52,2.75-11,4.32-22.37,10.07-35.73,18.12-1.66,1-3.33,2-5,3.06a133.09,133.09,0,0,1-15.37,8.64c-2.72,1.23-5.44,2.37-8.18,3.4V303.4a139.35,139.35,0,0,0,17.82-9.79,208.12,208.12,0,0,1,31.94-16.87,130.26,130.26,0,0,1,28.58-8.82,2.2,2.2,0,0,0,1.63-1.38c1.37-7.22,2.69-14.56,4-21.67l.5-2.74a1,1,0,0,0-.07-.46s0-.12-.07-.21l-.13-.45-.45.07-2.92.42c-2.05.31-4.15.63-6.22.81l-6.09.57c-8.29.77-16.87,1.56-25.32,2.1a348.86,348.86,0,0,1-39.43.3c-1.27-.07-2.52-.14-3.74-.19V232c15.87.87,32.49,1,50.77.32,7-.26,14.09-.74,20.94-1.2l9-.59c.94-.06,1.87-.14,2.87-.22l2-.16V203.34l-2.36-.18c-1.22-.08-2.34-.16-3.48-.27a93.69,93.69,0,0,1-34.17-10.29,122.06,122.06,0,0,1-22.89-15.38c-1.77-1.47-3.53-3-5.25-4.53-2.59-2.28-5.25-4.62-8-6.79-3.1-2.43-6.25-4.86-9.45-7.23V142.83q4.07,2.7,8.17,5.64c8.42,6.06,16.11,12.58,24.58,19.88A102.05,102.05,0,0,0,481,184.43a87.05,87.05,0,0,0,22.43,6.46c.5.07,1,.11,1.5.15h.19a4.27,4.27,0,0,0,.53,0l1,0-.08-.59c-.1-.64-.19-1.28-.28-1.9-.17-1.34-.36-2.65-.58-3.95A192.9,192.9,0,0,0,499,157.06,156.5,156.5,0,0,0,477.66,114a119.73,119.73,0,0,0-19-21.06,90.13,90.13,0,0,0-27.47-16.33,4.62,4.62,0,0,0-1.23-.26c-2.44-.16-4.9-.23-7.42-.23V64.27c79.58.06,144.36,64.78,144.42,144.35v.11a144.68,144.68,0,0,1-144.42,144.4ZM536.85,151.09c-.16-1.63-.38-3.24-.59-4.86-.24-1.82-.48-3.69-.66-5.53a8.92,8.92,0,0,0-1.9-4.23c-.17-.24-.33-.47-.48-.7A132.08,132.08,0,0,0,457,80.67a3,3,0,0,0-.44-.1l-2.88-.51,7.35,5a107.3,107.3,0,0,1,22.73,21.28A147.92,147.92,0,0,1,506.2,145a181.81,181.81,0,0,1,11,40.1c.18,1.13.36,2.26.56,3.42l.39,2.37.56-.13c4.83-1.22,8.37-3.15,11.13-6.07,3.26-3.45,5.28-7.76,6.55-14C537.85,163.53,537.41,156.45,536.85,151.09Zm-16.78,77.77,5-.78c3.82-.6,7.43-1.17,11.1-1.84,3.15-.59,6.33-1.25,9.4-1.9,2.28-.47,4.57-1,6.84-1.41a2.4,2.4,0,0,0,2.14-2.5,131.14,131.14,0,0,0-3.32-43.49c-.77-3.1-1.76-6.19-2.72-9.18-.43-1.34-.87-2.68-1.29-4a2.31,2.31,0,0,0-.23-.54l-.25-.55-1.29.13v.48c0,.79,0,1.59,0,2.41,0,1.69.07,3.45-.06,5.17-.67,9-3.56,16.13-8.8,21.87a30.56,30.56,0,0,1-15.26,8.95c-1.68.44-2,1.26-2,2.71v.18c.09,5.5.11,11.07.12,16.49V229Zm17.44,45.75a131.1,131.1,0,0,0,15.81-44.3l.15-.91-.86.33a216.5,216.5,0,0,1-33.47,9.14l-.35.07-5.34,27.95h.64c6.86,0,15.62.87,22.6,7.83l.49.49Zm-54,52.11c1.54-1,3.1-1.91,4.66-2.86,3.42-2.08,7-4.23,10.33-6.54a126,126,0,0,0,21.67-19,140.07,140.07,0,0,0,13-16.64,1.63,1.63,0,0,0-.47-2.51c-3.46-2.84-7.79-4.18-13.67-4.21a45,45,0,0,0-4.67.33l-2.45.23a2.29,2.29,0,0,0-2.18,1.83,146.34,146.34,0,0,1-9.39,21.94A131.73,131.73,0,0,1,482.8,325.1a1.91,1.91,0,0,0-.24.32l-.35.48.92,1.05Z" transform="translate(0 -39.68)"/><path d="M352.4,413.74a3.2,3.2,0,0,0-3.07,2.16c-4.62,12.92-11.39,20.92-19.08,26.77,0-17.85-1.23-39.39-2.15-50.15-.62-9.23-6.46-12.31-12-12.31-5.23,0-10.15,2.46-11.38,5.23-16.31,35.38-24.62,47.07-28.31,47.07-1.85,0-2.46-2.46-2.46-6.46,0-11.69,5.84-35.07,8.31-39.38a5.87,5.87,0,0,0,.92-2.77c0-4.31-6.46-5.84-11.69-5.84-2.77,0-4.93.61-5.54,1.23-5.23,5.53-8,18.46-8,31.07A80.92,80.92,0,0,0,259,423.9c-11.57,18.54-18.18,26.15-21.69,26.15-2.46,0-3.38-3.38-3.38-8.92,0-10.46,3.07-28.92,6.46-50.15l.3-2.77c0-5.85-3.69-8.31-8-8.31-5.24,0-11.39,3.69-14.47,10.15-5.23-8.92-12-12.92-19.07-12.92-18.46,0-38.77,26.77-38.77,53.84v3.39a51.63,51.63,0,0,0,.78,6c-3.89,8-8.53,11.57-13.39,11.57-8,0-16-9.54-22.45-24.93,16-18.46,23.69-36,29.53-58.45A58.17,58.17,0,0,0,157,352.83c0-20.31-11.38-33.85-23.38-33.85-13.84,0-29.23,18.16-29.23,64.92l.62,15.08a15.66,15.66,0,0,0-8.92-2.46c-16,0-36.62,19.69-39.08,40a33.21,33.21,0,0,0-.31,5.54c0,12.61,6.77,20.31,17.85,20.31,10.46,0,24.31-6.46,39.38-22.46,7.08,15.07,17.54,24,28.31,24,7.64,0,15.38-4.73,21.68-14.88,2.42,4.85,6,7.81,10.62,7.81,9.84,0,24.92-13.85,44-52.61C217.65,414.36,217,423,217,430.67c0,21.23,4,32.3,12,32.3,7.48,0,18.2-9.73,32.16-30.63,2.27,6.2,5.76,10.33,10.61,10.33,8.3,0,20.3-12.62,36.3-48.62.61,10.77,1.85,31.39,1.85,52.62v6.15c-4.62,2.77-9.23,4.61-13.85,6.77C274.26,468.51,266,484.2,266,498.05c0,14.15,8.92,26.76,21.84,28.92l4.31.3c30.15,0,37.54-52.3,38.15-76.3,9.85-6.46,19.38-16,25.23-32.92l.31-1.23A3.37,3.37,0,0,0,352.4,413.74ZM83.82,453.13c-5.23,0-7.38-4.93-7.38-11.7,0-14.76,10.15-38.15,20.92-38.15a5.49,5.49,0,0,1,3.07.62c7.08,3.38,5.23,13.23,10.77,29.23C98,447.59,89.05,453.13,83.82,453.13Zm39.38-34.77c-.92-3.08-1.54-8.92-1.54-16.31,0-25.84,6.16-68.91,18.16-70.45h.61c5.23,0,9.85,7.38,9.85,20C150.28,367,143.81,390.36,123.2,418.36Zm60.91,24.92c-2.15,0-3.38-2.46-3.38-8.92,0-13.54,8.31-50.46,20.92-50.46,4,0,8.31,4,12.92,13.54C204.42,417.74,190.27,443.28,184.11,443.28ZM289,520.2c-8.3,0-16-10.46-16-22.77,0-11.08,6.46-23.69,24.3-31.07A91.59,91.59,0,0,0,310,460.51C310,505.12,298.87,520.2,289,520.2Z" transform="translate(0 -39.68)"/></svg>