<svg id="katman_1" data-name="katman 1" xmlns="http://www.w3.org/2000/svg" viewBox="0 0 566.93 232.87"><defs><style>.cls-1{fill:#d65b16;}</style></defs><path d="M103.09,273.28a4.17,4.17,0,0,1-.23-2.84c.84-3.38,1.78-6.8,2.68-10.11,1-3.53,2-7.18,2.86-10.8.51-2.08,1-4.17,1.56-6.25,3.4-13.52,6.91-27.49,6.92-41.85,0-6.93-.79-12.57-2.44-17.21-1.84-5.21-5.63-8.63-10.38-9.39-4.92-.77-10,1.5-13.49,6.12a18.88,18.88,0,0,0-3.51,6l-1,3.36c-2,7.1-4.16,14.45-5.53,21.84-1.28,6.9-2.1,13.75-3,21-.19,1.52-.37,3.07-.56,4.64-.56-1.74-1.11-3.41-1.77-5.05l-1-2.48c-5-12.44-10.1-25.31-15.38-37.88a21.67,21.67,0,0,0-9.65-11.19c-5.67-3-12.08-1.83-15.25,2.88A26.7,26.7,0,0,0,29.67,196c-1.09,11,2.57,21.52,5.79,30.8,1.56,4.49,3.21,8.91,4.95,13.59.51,1.35,1,2.72,1.53,4.12l-1.14-.53c-8.72-4-18.69-1.07-23.19,6.79l-.25.44c-2.36,4.14-4.4,7.72-8.94,9.45-1.95.75-3.66,3.08-4.34,5l-.11.3C2.52,270,1,274.18.66,278.48c-1.41,16.39,4.53,31,11.17,44.38a57,57,0,0,0,31.26,28.43,52.29,52.29,0,0,0,19.08,3.46,57.33,57.33,0,0,0,29-7.77,46.94,46.94,0,0,0,23-35.28C116.31,294.47,112.9,282.62,103.09,273.28Zm-6.23-5.21c0,.15-.09.31-.14.47C87,263.37,78,260.82,69,260.82a49.42,49.42,0,0,0-12.84,1.73L54,257.17c-1.85-4.58-3.76-9.31-5.46-14q-1-2.83-2.06-5.65c-3-8.27-6.18-16.83-8.55-25.42-1.5-5.45-1.57-11.47-1.64-17.28v-.89a7.64,7.64,0,0,1,5.7-7.8c3.36-1,6.44.49,8.25,4a285.36,285.36,0,0,1,12.66,26.61c2.79,7,5.13,14.42,7.41,21.55,1,3.15,2,6.4,3.09,9.59.28.82.54,1.65.81,2.47.73,2.3,1.49,4.67,2.44,6.94a5.58,5.58,0,0,0,2.12,2.19c.31.22.61.44.86.65l1.13,1,.59-1.38c.12-.28.27-.58.44-.89a6.65,6.65,0,0,0,.91-2.54c.2-2.79.32-5.63.43-8.38a149.84,149.84,0,0,1,1.16-15.24c1.67-11.46,3.92-23.9,7.08-39.14a22.78,22.78,0,0,1,4.54-8.9c2-2.56,4.59-3.8,7-3.41s4.49,2.38,5.62,5.46a37.06,37.06,0,0,1,1.91,10.77c.7,13-2.31,25.7-5,36.94-1.78,7.53-3.74,15.15-5.65,22.52-.71,2.79-1.43,5.57-2.14,8.36C97.48,266.14,97.19,267,96.86,268.07Zm-47.09-2.13c-6.88,7.36-6.78,15.3.26,22.36a29.19,29.19,0,0,0,3.81,3.12c2.42,1.73,2.83,3.52,1.46,6.4-1.3,2.72-3.55,3.88-6.16,3.19-1.71-.46-2.34-1.27-2.69-3.48l-.3-1.94a132.79,132.79,0,0,0-4-19.61c-3.28-10.43-10.39-16.88-20.62-18.72a13.11,13.11,0,0,1,8.45-8.41,11.85,11.85,0,0,1,11.37,2.89C44,254.19,46.05,257.66,48,261c.73,1.24,1.47,2.53,2.25,3.75A2.51,2.51,0,0,1,49.77,265.94Zm-17.92,4.2a27.51,27.51,0,0,1,3.32,5.38A60.31,60.31,0,0,1,40,304.32c-.15,2.43-1.17,4.25-2.71,4.86s-3.21,0-4.83-1.52a25.86,25.86,0,0,1-6.51-10.12,71.18,71.18,0,0,1-2.49-11c-.34-2-.7-4-1.13-6a8.24,8.24,0,0,0-1.25-2.6c-.21-.33-.4-.64-.57-.95l-1-1.9-.91,2a10.93,10.93,0,0,1-.57,1,5.52,5.52,0,0,0-1.08,3c.35,9.07,2.05,16.76,5.18,23.52,1.81,3.9,4.64,8.6,10.51,10.28s10.38-.48,12.68-6.3c.21-.53.41-1.06.64-1.65l0-.12c10,1.41,12,.12,16.33-10.51l10.79,3.29c-.23.63-.47,1.25-.71,1.87-1,2.64-1.95,5.13-2.7,7.75a4.2,4.2,0,0,0,.74,3,10.49,10.49,0,0,1,.47,1l.62,1.6,1.18-1.24a9.09,9.09,0,0,1,.77-.7,4.6,4.6,0,0,0,1.83-2.38,15.07,15.07,0,0,1,6.53-9.67c.9-.6,2.5-2.72,1.77-4a5.23,5.23,0,0,0-3.5-2.24,50,50,0,0,1-20.22-6.87,25.47,25.47,0,0,1-6.81-5.91,8.07,8.07,0,0,1-1.78-7c.61-2.3,2.49-4.21,5.29-5.39,6-2.51,12.63-3,20.24-1.44,14.89,3,23.72,9,28.62,19.39,4.41,9.32,3.3,19,1.45,28.05-5.22,25.54-33,35.27-51,32.47-16.82-2.62-29.42-11.53-37.45-26.49C12.47,310.32,5.77,295.33,7,278c0-.12,0-.24,0-.36A6.35,6.35,0,0,1,7,277c1-6.76,2.72-11.3,8.58-13.06a12.34,12.34,0,0,1,3.57-.52A16.38,16.38,0,0,1,31.85,270.14Z" transform="translate(-0.45 -167.06)"/><circle cx="321.04" cy="100.09" r="5.55"/><circle cx="131.57" cy="100.09" r="5.55"/><path d="M304.93,198.08c-1.89-5.38-6.67-9.73-14.6-13.28-8.38-3.76-16.55-3.66-24.29.28-21.75,11.08-34.45,49.82-39.31,67.92-4-17-9.75-35.95-21.93-50.4a29.61,29.61,0,0,0-17.44-10.43c-6.67-1.19-14.93.44-22.1,4.34l-.12.07c-5.85,3.18-10.9,5.93-13.88,12.53-10.13,22.35,1.08,49.71,12.27,68.73.38.65.77,1.29,1.16,1.93l1,1.6c18.66,31.28,56,71.05,56.77,71.23l.21,0,.17-.12c3.85-2.65,7.06-6.73,10.17-10.68,1-1.25,1.92-2.44,2.86-3.55,8-9.5,16.05-19.84,24-30.76a459.75,459.75,0,0,0,25.57-38.46c8-13.67,16.15-28.3,19.3-43.79a48.06,48.06,0,0,0,1-8.43c0-1.41.12-2.86.21-4.28l.07-1.06C306.31,206.87,306.43,202.35,304.93,198.08Zm-15.15,28.68A170.47,170.47,0,0,1,279.47,245c-1.93,3.1-3.93,6.32-5.77,9.52C253,288.54,227.19,319,220,325.85c-3.17-2.73-30.38-39.13-33-43.15-8.68-13.26-19.38-30.9-25.18-49.69-.82-2.65-2.34-9.33,1.27-13.95,6-7.72,22.18-7.83,29.73-4.13,4.45,2.18,8.49,5.88,12,11,5,7.27,9.64,16.44,14.22,28l.51,1.31a83.6,83.6,0,0,1,4.65,14.09,2.21,2.21,0,0,0,2.12,1.73,1.19,1.19,0,0,0,.33,0c.58,2.36.86,3.71.87,3.73a2.11,2.11,0,0,0,2.12,1.73,2.13,2.13,0,0,0,2.08-1.77c3.47-19.52,10.38-38.26,19.48-52.77,6.36-10.16,14.2-17.2,23.33-20.93A17.32,17.32,0,0,1,285.22,200c5.4,1.44,7.6,4,8.13,9.37S292.67,220.51,289.78,226.76Z" transform="translate(-0.45 -167.06)"/><path class="cls-1" d="M11,399.53a7.7,7.7,0,0,1-1.9-.32c-.78-.21-1.25-.89-1.43-2q-.32-5.06-.32-22.51,0-6.5,0-8.65a2.15,2.15,0,0,1,1-1.82,6,6,0,0,1,2.54-.8,30.48,30.48,0,0,1,3.64-.19A10.5,10.5,0,0,1,20,364.53,9.48,9.48,0,0,1,23.46,368a13,13,0,0,1,1.66,6.56,18.21,18.21,0,0,1-.45,3.77,12.84,12.84,0,0,1-1.83,4.26,10.84,10.84,0,0,1-3.49,3.48,9.4,9.4,0,0,1-4.93,1.37l.07,7.18c0,1.26,0,2.22-.05,2.89s-.67,1.38-1.71,1.74A5.48,5.48,0,0,1,11,399.53Zm3.18-16a3.19,3.19,0,0,0,2.57-1.25,8.42,8.42,0,0,0,1.56-3.19,15.64,15.64,0,0,0,.53-4.11,15.75,15.75,0,0,0-.52-4.11,8.15,8.15,0,0,0-1.55-3.18,3.31,3.31,0,0,0-2.61-1.24c0,.62,0,1.59,0,2.89q0,4.14,0,7.89C14.21,379.22,14.22,381.31,14.22,383.49Z" transform="translate(-0.45 -167.06)"/><path class="cls-1" d="M39.79,399.72c-1.06,0-2.33,0-3.8-.13s-2.37-.45-2.69-1.09a66.94,66.94,0,0,1-.79-9.21q-.4-9.21-.41-17.12a53.09,53.09,0,0,1,.32-7.45c.42-1.14,3.11-1.71,8-1.71a43.16,43.16,0,0,1,5.52.29,2.23,2.23,0,0,1,2.1,2.38,3.54,3.54,0,0,1-.41,1.62,1.74,1.74,0,0,1-1.57,1.1H46a20.94,20.94,0,0,0-2.47-.12c-2.08,0-3.38.18-3.92.53a3.4,3.4,0,0,0-.46,1.8c-.09,1-.13,2.52-.13,4.52a41.1,41.1,0,0,0,.15,4.17c.08.31.45.5,1.12.56.51,0,1.06.05,1.67.05l1.49,0c.43,0,.81,0,1.15,0a1.72,1.72,0,0,1,1.62,1.89,3.24,3.24,0,0,1-.4,1.42,1.76,1.76,0,0,1-1.41,1H42.63q-1.08,0-2,0a2.61,2.61,0,0,0-1.25.26,6.6,6.6,0,0,0-.24,2.55c0,.67,0,1.5,0,2.5a29.67,29.67,0,0,0,.44,5.11c.16.35.76.52,1.81.52q1.09,0,2.55-.12c1-.08,1.88-.13,2.76-.13s1.47.74,1.47,2a4.21,4.21,0,0,1-.29,1.41,1.46,1.46,0,0,1-1.18,1c-.71.1-2.09.21-4.13.32C41.66,399.7,40.72,399.72,39.79,399.72Z" transform="translate(-0.45 -167.06)"/><path class="cls-1" d="M75.89,399.92c-1.85,0-2.93-.61-3.24-1.84-.55-3.8-1.09-6-1.61-6.46a5.09,5.09,0,0,0-2.18-.3,32.21,32.21,0,0,0-4.68.37,5.29,5.29,0,0,0-2.5.74c0,.06-.29.8-.78,2.2-.59,1.83-1.06,3.14-1.4,3.92q-.47.82-1,.87l-.66,0a3.18,3.18,0,0,1-1.87-.62,2,2,0,0,1-.73-1.66l0-.42q.65-3.4,2.55-9.71c1.28-4.2,2.68-8.41,4.23-12.61a76.68,76.68,0,0,1,4.17-9.74A3.3,3.3,0,0,1,68,363.11a6.25,6.25,0,0,1,1.62-.3,4.22,4.22,0,0,1,1.59.32,3.41,3.41,0,0,1,2,2Q74.6,369.4,77.53,386q2,11.2,2,11.66A2,2,0,0,1,78,399.53,6,6,0,0,1,75.89,399.92ZM66.65,387.8a16.59,16.59,0,0,0,2.33-.15,2.91,2.91,0,0,0,1.32-.39,1.65,1.65,0,0,0,.12-.79,47.24,47.24,0,0,0-.75-6.27q-1.07-6.39-1.62-6.63-.49.12-2.67,6.36-2.05,5.83-2.06,7.21c0,.44,1,.66,2.92.66Z" transform="translate(-0.45 -167.06)"/><path class="cls-1" d="M96.36,399.65a8.81,8.81,0,0,1-5.83-2,13.8,13.8,0,0,1-3.79-5.26,20.67,20.67,0,0,1-1.64-5.95c-.17-1.8-.25-3.2-.25-4.21a27.05,27.05,0,0,1,2.52-11.88,14.92,14.92,0,0,1,4-5.26,9.12,9.12,0,0,1,5.89-2,7.55,7.55,0,0,1,7.06,4.12,8.34,8.34,0,0,1,1.06,3.19q.09,1.31.09,1.65a13.45,13.45,0,0,1-.64,4c-.37,1-.86,1.51-1.46,1.64a6.19,6.19,0,0,1-1.31.2,3.25,3.25,0,0,1-1.65-.45,1.47,1.47,0,0,1-.77-1.34,2.66,2.66,0,0,1,.07-.61,9.76,9.76,0,0,0,.4-2.94,8.86,8.86,0,0,0-1-4.53,1.61,1.61,0,0,0-1.4-.91c-.8,0-1.49.65-2.08,1.95a19.66,19.66,0,0,0-1.37,5,35.59,35.59,0,0,0-.53,5c0,1.3,0,2.13,0,2.47q0,6.78,1.67,10.31c.6,1.31,1.41,2,2.42,2a2.62,2.62,0,0,0,1.94-.73,5.4,5.4,0,0,0,1.17-1.78,16,16,0,0,0,.71-2c.15-.48.29-.88.42-1.21a1.52,1.52,0,0,1,1.37-1A1.86,1.86,0,0,1,105,388a3.42,3.42,0,0,1,.63,2,10.4,10.4,0,0,1-.74,3.23,9.72,9.72,0,0,1-4.28,5.39A8.21,8.21,0,0,1,96.36,399.65Z" transform="translate(-0.45 -167.06)"/><path class="cls-1" d="M120.33,399.72c-1.06,0-2.32,0-3.79-.13s-2.37-.45-2.7-1.09a69.41,69.41,0,0,1-.78-9.21q-.42-9.21-.42-17.12a54.76,54.76,0,0,1,.32-7.45Q113.59,363,121,363a43,43,0,0,1,5.51.29,2.24,2.24,0,0,1,2.11,2.38,3.43,3.43,0,0,1-.42,1.62,1.74,1.74,0,0,1-1.57,1.1h-.1a20.83,20.83,0,0,0-2.47-.12c-2.07,0-3.38.18-3.92.53a3.43,3.43,0,0,0-.45,1.8c-.09,1-.14,2.52-.14,4.52a41.1,41.1,0,0,0,.15,4.17c.08.31.46.5,1.13.56.5,0,1.06.05,1.66.05l1.5,0c.42,0,.8,0,1.15,0a1.71,1.71,0,0,1,1.61,1.89,3.24,3.24,0,0,1-.4,1.42,1.76,1.76,0,0,1-1.41,1h-1.79c-.72,0-1.38,0-2,0a2.58,2.58,0,0,0-1.25.26,6.29,6.29,0,0,0-.25,2.55c0,.67,0,1.5,0,2.5a32,32,0,0,0,.44,5.11c.16.35.77.52,1.81.52q1.11,0,2.55-.12c1-.08,1.89-.13,2.77-.13s1.47.74,1.47,2a4.25,4.25,0,0,1-.3,1.41,1.43,1.43,0,0,1-1.17,1c-.72.1-2.1.21-4.14.32C122.2,399.7,121.26,399.72,120.33,399.72Z" transform="translate(-0.45 -167.06)"/><path class="cls-1" d="M172.86,399.79c-1.3,0-2.82-.06-4.57-.18s-2.87-.54-3.34-1.24q-.94-2.62-.95-20.78,0-9.55.24-14.42c.23-1.66,1.45-2.49,3.68-2.49a7.79,7.79,0,0,1,2.61.54,2.46,2.46,0,0,1,1.67,2.27l0,.73c0,1.53-.07,4.49-.21,8.91l-.22,9.09c-.06,3.17-.1,6.08-.1,8.74a16.17,16.17,0,0,0,.16,3.13c.14.3.93.45,2.36.45q1.53,0,4.2-.24c1.06-.09,1.9-.14,2.53-.16a1.6,1.6,0,0,1,1.42,1.21,4.06,4.06,0,0,1,.26,1.42,5.78,5.78,0,0,1-.23,1.36,1.66,1.66,0,0,1-1.4,1.16,50.23,50.23,0,0,1-5,.42C174.93,399.76,173.89,399.79,172.86,399.79Z" transform="translate(-0.45 -167.06)"/><path class="cls-1" d="M199.7,399.84a10.23,10.23,0,0,1-6.57-2.14,14.81,14.81,0,0,1-4.28-5.63,27.26,27.26,0,0,1-2.24-11.25,39.62,39.62,0,0,1,.48-5.63,22.62,22.62,0,0,1,2.18-6.76,15.7,15.7,0,0,1,4.48-5.64,10.41,10.41,0,0,1,6.58-2.14,9.9,9.9,0,0,1,6.48,2.14,14,14,0,0,1,4.08,5.64,26.7,26.7,0,0,1,1.94,10.35,38.57,38.57,0,0,1-.59,6.3,26,26,0,0,1-2.27,7,16.46,16.46,0,0,1-4.27,5.63A9.14,9.14,0,0,1,199.7,399.84Zm-.24-5.88a3.66,3.66,0,0,0,3.07-2.1,18.23,18.23,0,0,0,2.05-5.39,37.37,37.37,0,0,0,.9-8.35,36.46,36.46,0,0,0-.49-5.85,14,14,0,0,0-1.76-5,3.82,3.82,0,0,0-3.35-2.1,3.69,3.69,0,0,0-3.11,2.1,17.35,17.35,0,0,0-2,5.36,37.06,37.06,0,0,0-.89,8.35,34.47,34.47,0,0,0,.5,5.87,14.2,14.2,0,0,0,1.78,5.06A3.82,3.82,0,0,0,199.46,394Z" transform="translate(-0.45 -167.06)"/><path class="cls-1" d="M230.92,399.76a4.68,4.68,0,0,1-4.57-2.78,76.16,76.16,0,0,1-2.39-7.82c-1.08-4-2.12-8.38-3.11-13.08a83.12,83.12,0,0,1-1.77-11.91,3,3,0,0,1,1.68-2.94,5.2,5.2,0,0,1,2.26-.53,8.55,8.55,0,0,1,1.85.3,2.42,2.42,0,0,1,1.67,1.91q1.16,5.73,2.2,11.32.84,4.54,1.58,8.14,1.37,6.78,1.86,6.78c.13,0,.58-1.79,1.37-5.38q3.15-14.29,5-21.1a1.89,1.89,0,0,1,2-1.34,2.9,2.9,0,0,1,1.65.54,1.74,1.74,0,0,1,.79,1.54q0,1.15-2.29,11.48-3.78,17-5.7,22.35A4,4,0,0,1,230.92,399.76Z" transform="translate(-0.45 -167.06)"/><path class="cls-1" d="M258.66,399.92c-1.14,0-2.5-.05-4.07-.14s-2.54-.49-2.89-1.17a71.48,71.48,0,0,1-.84-9.88q-.45-9.87-.45-18.36a58.11,58.11,0,0,1,.34-8q.69-1.83,8.64-1.83a44.93,44.93,0,0,1,5.91.31,2.38,2.38,0,0,1,2.26,2.55,3.74,3.74,0,0,1-.44,1.73,1.86,1.86,0,0,1-1.69,1.18h-.1a23.83,23.83,0,0,0-2.65-.13c-2.23,0-3.63.2-4.21.58a3.63,3.63,0,0,0-.48,1.93c-.1,1.08-.15,2.69-.15,4.85A43.1,43.1,0,0,0,258,378c.09.34.49.54,1.21.61.54,0,1.14.05,1.78.05l1.61,0a11.51,11.51,0,0,1,1.23.06,1.83,1.83,0,0,1,1.74,2,3.46,3.46,0,0,1-.44,1.52,1.88,1.88,0,0,1-1.51,1H261.7c-.77,0-1.48,0-2.15,0a2.69,2.69,0,0,0-1.34.27,6.9,6.9,0,0,0-.26,2.73c0,.72,0,1.62.05,2.68a34,34,0,0,0,.47,5.49c.18.37.83.56,1.95.56.78,0,1.7-.05,2.73-.14s2-.13,3-.13,1.57.79,1.57,2.16a4.6,4.6,0,0,1-.31,1.51,1.57,1.57,0,0,1-1.26,1.06c-.77.11-2.25.22-4.44.34C260.66,399.89,259.66,399.92,258.66,399.92Z" transform="translate(-0.45 -167.06)"/><path d="M512.66,254.22a87.09,87.09,0,1,1-87-87.16A87.16,87.16,0,0,1,512.66,254.22ZM413,203c-.08,1-.16,1.8-.21,2.63-.37,6-.85,12-1.07,18-.37,10.45-.37,20.91.24,31.35.35,6.2.73,12.39,1.19,18.58.66,8.69,1.78,17.33,3.21,25.93a160.61,160.61,0,0,0,4.56,20.93c1.27,4.15,2.81,8.23,4.21,12.35a1,1,0,0,0,1.1.72,80.59,80.59,0,0,0,29.37-5.93,83,83,0,0,0,21-12.65,4.55,4.55,0,0,0,1.85-3.82,63.87,63.87,0,0,0-2.37-17.45,94.37,94.37,0,0,0-7.64-18.82,132.59,132.59,0,0,0-9-14.89q-4.05-5.76-8.41-11.29c-2.15-2.74-4.56-5.29-6.8-8A74.62,74.62,0,0,1,435,226.88a57.18,57.18,0,0,1-6.22-20.64c-.09-1-.15-2-.24-3.22Zm-7.2.77c-.16,0-.22-.08-.26-.07-4.89.88-9.78,1.76-14.66,2.68a1,1,0,0,0-.58.72A79.94,79.94,0,0,1,385,224.37a125.2,125.2,0,0,1-10.16,19.23,81,81,0,0,0-8.44,17.08,79.35,79.35,0,0,0-4.39,19.9,98.66,98.66,0,0,0,.52,19.51,6.14,6.14,0,0,0,.7,2.94,95.57,95.57,0,0,0,6.52,7.42A75.08,75.08,0,0,0,382.91,321a79.13,79.13,0,0,0,17.33,8.3,76.12,76.12,0,0,0,15,3.47c1.62.21,3.26.32,5,.5-.79-1.6-1.6-3-2.19-4.5-1.74-4.41-3.56-8.8-5-13.3a177.5,177.5,0,0,1-6.55-28.7c-.77-5-1.43-10.07-1.87-15.13-.58-6.57-1-13.16-1.31-19.75a208.73,208.73,0,0,1,.18-23.73c.4-6.3,1-12.59,1.6-18.88C405.22,207.47,405.55,205.65,405.8,203.79Zm77.49,104.52.21.08c1.15-1.33,2.32-2.64,3.44-4a79.1,79.1,0,0,0,17.84-54.7,2.35,2.35,0,0,0-.13-.65,53.83,53.83,0,0,0-9.75-16.41,71.71,71.71,0,0,0-12.6-11.38,94.82,94.82,0,0,0-25.8-12.76,117.18,117.18,0,0,0-16.51-4c-1.14-.19-2.3-.33-3.5-.51,0,.25,0,.38,0,.52,0,.33.05.66.1,1a51.29,51.29,0,0,0,3.85,13.4,60.57,60.57,0,0,0,9.61,15.36c4.14,4.81,8.25,9.64,12,14.79a143.4,143.4,0,0,1,11.51,18.75,97.55,97.55,0,0,1,8.12,21.41,61.91,61.91,0,0,1,1.78,17.2C483.39,307,483.33,307.67,483.29,308.31Zm-99.84-99.48-.23-.21c-1.69.63-3.42,1.17-5.07,1.91-3.44,1.53-6.92,3-10.22,4.79A87.09,87.09,0,0,0,351.73,227a4.82,4.82,0,0,0-1.52,2.22,86.09,86.09,0,0,0-3.57,17.1,78.76,78.76,0,0,0,.81,21.63,77.7,77.7,0,0,0,7.29,21.92c.55,1.07,1.14,2.12,1.71,3.18l.23-.09c-.14-.95-.29-1.91-.4-2.87a73.1,73.1,0,0,1,1.18-23.83,83.41,83.41,0,0,1,5.69-17.2c2-4.32,4.62-8.22,7.05-12.26a142,142,0,0,0,10.86-21.41C381.92,213.24,382.66,211,383.45,208.83ZM502.28,234c0-.29-.06-.4-.09-.5a79.1,79.1,0,0,0-33-45.63,6.18,6.18,0,0,0-2.82-1.38c-2.08-.2-4.16-.54-6.24-.75a38.2,38.2,0,0,0-11.69.26,16.23,16.23,0,0,0-8.23,3.86,13,13,0,0,0-3.56,6.54l3.14.51A109.47,109.47,0,0,1,464,203.56a90,90,0,0,1,23.29,13.56,64.83,64.83,0,0,1,12.84,13.72Zm-88.52-38.45h1c4.43,0,8.87,0,13.3.08.84,0,1.19-.1,1.42-1a18.71,18.71,0,0,1,5.48-9.32A21.38,21.38,0,0,1,448.31,180c1.51-.12,3.05,0,4.57,0l0-.27a3.12,3.12,0,0,0-.42-.18c-2.63-.81-5.24-1.74-7.92-2.4a78.29,78.29,0,0,0-26-2c-.71.07-1.08.29-1.22,1-.64,3.26-1.38,6.49-2,9.76S414.3,192.29,413.76,195.57Zm-1.12-19.71a78.93,78.93,0,0,0-26.51,9.45c3.92,3.94,4.8,8.8,4.79,13.81L407.14,196A130.78,130.78,0,0,1,412.64,175.86Zm-57.71,41.8.25.2.25-.18A79.06,79.06,0,0,1,371,207.09a88.09,88.09,0,0,1,13.22-5.66,1.08,1.08,0,0,0,.89-1c.1-1.42.33-2.84.32-4.26a12.07,12.07,0,0,0-2.45-8c-.32-.39-.55-.58-1.09-.22a85,85,0,0,0-10,7.79,74.83,74.83,0,0,0-11.34,13C358.58,211.59,356.81,214.65,354.93,217.66Z" transform="translate(-0.45 -167.06)"/><path class="cls-1" d="M309.09,399.61a39.06,39.06,0,0,1-4.67-.22,4.91,4.91,0,0,1-2.67-1,3.65,3.65,0,0,1-1.09-2.39q-.5-5-.5-16.81,0-8.24.31-18.59a2.17,2.17,0,0,1,1.7-1.86,18.88,18.88,0,0,1,5.78-.64c.86,0,1.71,0,2.56.08q5.49.35,8.07,3.16a10.72,10.72,0,0,1,2.87,6.61c0,.46.05.92.05,1.36a15.44,15.44,0,0,1-1.23,6,7.59,7.59,0,0,1-3.69,4.11,9.1,9.1,0,0,1,3.28,3.7,12.53,12.53,0,0,1,1.34,5.71,11.63,11.63,0,0,1-1.16,5,9.76,9.76,0,0,1-3.84,4.13A13.27,13.27,0,0,1,309.09,399.61Zm-.66-4.48a5.33,5.33,0,0,0,3.7-1.37,7.86,7.86,0,0,0,2.2-3.38,8.34,8.34,0,0,0,.47-2.7,13.57,13.57,0,0,0-.21-2,4.9,4.9,0,0,0-1.73-2.7,6.34,6.34,0,0,0-4.41-1.39c-.05.93-.08,2.22-.08,3.87,0,2.78,0,5.28,0,7.48Zm.11-17.61a5.14,5.14,0,0,0,3.27-1.11,8.27,8.27,0,0,0,2.26-2.84,9.75,9.75,0,0,0,1.06-4.45,8.49,8.49,0,0,0-.57-3,5.64,5.64,0,0,0-2.09-2.63,6.76,6.76,0,0,0-4-1.1c0,1.06,0,2.54.05,4.45l.09,8.8Q308.57,376.77,308.54,377.52Z" transform="translate(-0.45 -167.06)"/><path class="cls-1" d="M348.42,399.92c-2.09,0-3.32-.69-3.67-2.09q-.94-6.48-1.84-7.34a5.68,5.68,0,0,0-2.47-.34,35.75,35.75,0,0,0-5.32.42,5.92,5.92,0,0,0-2.84.84c0,.07-.33.9-.89,2.5q-1,3.12-1.58,4.45c-.36.63-.75,1-1.2,1l-.75,0a3.6,3.6,0,0,1-2.12-.69,2.32,2.32,0,0,1-.83-1.9l0-.47a111.13,111.13,0,0,1,2.89-11q2.18-7.17,4.8-14.33a86.69,86.69,0,0,1,4.75-11.06,3.79,3.79,0,0,1,2.08-1.81,7.23,7.23,0,0,1,1.84-.33,4.83,4.83,0,0,1,1.81.36,3.85,3.85,0,0,1,2.22,2.28q1.62,4.84,5,23.68,2.25,12.72,2.25,13.24a2.26,2.26,0,0,1-1.67,2.15A7,7,0,0,1,348.42,399.92Zm-10.49-13.77a19.46,19.46,0,0,0,2.65-.17,3.35,3.35,0,0,0,1.5-.44,1.85,1.85,0,0,0,.14-.9,52.5,52.5,0,0,0-.87-7.12c-.79-4.84-1.41-7.35-1.83-7.54-.37.09-1.38,2.51-3,7.24q-2.33,6.61-2.33,8.18c0,.5,1.1.75,3.31.75Z" transform="translate(-0.45 -167.06)"/><path class="cls-1" d="M368.47,399.53a11.5,11.5,0,0,1-8.41-3.2,10.68,10.68,0,0,1-3.11-5,5.59,5.59,0,0,1-.09-1.06,4.1,4.1,0,0,1,.87-2.55,4.42,4.42,0,0,1,2.06-1.81,5.39,5.39,0,0,1,1.3-.28,1.42,1.42,0,0,1,1.34.89,26,26,0,0,0,1.42,3.06q2,4,4.62,4a3,3,0,0,0,2.21-.81,3.09,3.09,0,0,0,.92-1.61,9.2,9.2,0,0,0,.12-1.26,5.5,5.5,0,0,0-.33-1.64,10.27,10.27,0,0,0-2.6-3.84,38.87,38.87,0,0,0-3.89-3.14,41.16,41.16,0,0,1-3.74-2.92,14.24,14.24,0,0,1-2.93-3.59,10.51,10.51,0,0,1-1.23-5.21,12.07,12.07,0,0,1,5.07-9.58,9.92,9.92,0,0,1,5.95-1.8q5.85,0,8.68,3.48A9.73,9.73,0,0,1,379,368c-.13,1.86-.61,3-1.46,3.45a4.86,4.86,0,0,1-2.24.67,4.17,4.17,0,0,1-1.22-.19c-1-.34-1.55-.9-1.59-1.7l0-.89a8.71,8.71,0,0,0-1.45-5,3.32,3.32,0,0,0-5.53.72,7.44,7.44,0,0,0,1.72,9.35,34.49,34.49,0,0,0,3.81,3.18,41.31,41.31,0,0,1,3.62,3,14.34,14.34,0,0,1,2.89,3.66,10.79,10.79,0,0,1,1.28,5.4,10.23,10.23,0,0,1-1.16,4.78,9.42,9.42,0,0,1-3.52,3.69A10.8,10.8,0,0,1,368.47,399.53Z" transform="translate(-0.45 -167.06)"/><path class="cls-1" d="M403.93,399.92a10.78,10.78,0,0,1-2.15-.31,2.52,2.52,0,0,1-1.92-1.86c-.11-.56-.57-2.06-1.37-4.51s-1.78-5-2.9-7.54a15.75,15.75,0,0,0-3.29-5.31v1c0,1.41,0,3.15.08,5.23s.08,4.4.08,6.79c0,1.56,0,2.87-.14,3.92a2.47,2.47,0,0,1-1.94,1.95,4.62,4.62,0,0,1-1.42.22,6.23,6.23,0,0,1-2.31-.57c-.91-.38-1.48-1.33-1.7-2.85q-.17-1.86-.39-8.9-.49-15.94-.5-25v-1.39a2.65,2.65,0,0,1,2.17-2.37,6.8,6.8,0,0,1,1.84-.25c2.7,0,4.19,1,4.45,2.87,0,.26,0,.67,0,1.25s0,1.53-.05,2.87-.07,3-.12,4.91-.09,3.43-.11,4.49c1.7-3,3.68-6.19,5.91-9.43a53,53,0,0,1,5.27-6.79,2.44,2.44,0,0,1,1.62-.61,3.29,3.29,0,0,1,2.67,1.25,1.72,1.72,0,0,1,.44,1.11,1.85,1.85,0,0,1-.25.89q-1.2,2-5.09,7.68-3.64,5.43-4.09,6.23a49.78,49.78,0,0,1,3,6.07c1.25,2.82,2.43,5.71,3.57,8.68q2.38,6.38,2.39,7.62a2.16,2.16,0,0,1-1.48,2.15A6,6,0,0,1,403.93,399.92Z" transform="translate(-0.45 -167.06)"/><path class="cls-1" d="M422,399.7c-1.2,0-2.64-.05-4.31-.16s-2.69-.51-3.06-1.23a78.32,78.32,0,0,1-.89-10.47q-.47-10.45-.47-19.44a62,62,0,0,1,.36-8.46q.72-1.95,9.15-1.95a48,48,0,0,1,6.26.33,2.53,2.53,0,0,1,2.4,2.7,3.83,3.83,0,0,1-.48,1.84,2,2,0,0,1-1.78,1.25h-.11a23.91,23.91,0,0,0-2.81-.14c-2.35,0-3.84.2-4.45.61a3.88,3.88,0,0,0-.51,2.05c-.11,1.14-.16,2.85-.16,5.13s.06,3.73.17,4.73c.09.35.52.57,1.28.64q.85.06,1.89.06l1.7,0a13,13,0,0,1,1.31.06,1.94,1.94,0,0,1,1.83,2.14,3.65,3.65,0,0,1-.46,1.61,2,2,0,0,1-1.6,1.09h-2c-.81,0-1.57,0-2.28,0a3,3,0,0,0-1.42.29,7.42,7.42,0,0,0-.28,2.89c0,.77,0,1.71.06,2.84a35.51,35.51,0,0,0,.5,5.82c.19.39.87.58,2.06.58.83,0,1.8,0,2.89-.14s2.15-.14,3.15-.14,1.67.84,1.67,2.29a4.79,4.79,0,0,1-.34,1.6,1.65,1.65,0,0,1-1.33,1.12q-1.23.17-4.71.36C424.12,399.67,423.05,399.7,422,399.7Z" transform="translate(-0.45 -167.06)"/><path class="cls-1" d="M448.52,399.42a4.5,4.5,0,0,1-1.64-.31,2.79,2.79,0,0,1-1.83-2.5q-.39-6.67-.39-20.28V365.25c-.62,0-1.44.08-2.48.17-1.21.11-2.41.18-3.62.22s-1.92-1.23-1.92-3.53a8.66,8.66,0,0,1,.14-1.51c.24-1.13.74-1.78,1.5-1.94,3.1-.24,6.75-.37,10.94-.37a84.06,84.06,0,0,1,9.26.37c1.23.27,1.84,1.36,1.84,3.25a5.16,5.16,0,0,1-.22,1.48,2,2,0,0,1-1.62,1.64c-.59,0-1.29.05-2.11.05l-2.37,0-1.53-.06-.58,0q.19,9.66.19,18.92,0,9.46-.22,12.91C451.64,398.57,450.53,399.42,448.52,399.42Z" transform="translate(-0.45 -167.06)"/><path class="cls-1" d="M474.33,399.61a39.13,39.13,0,0,1-4.68-.22,5,5,0,0,1-2.67-1A3.65,3.65,0,0,1,465.9,396q-.51-5-.5-16.81,0-8.24.3-18.59a2.18,2.18,0,0,1,1.7-1.86,18.91,18.91,0,0,1,5.79-.64c.85,0,1.7,0,2.56.08q5.47.35,8.07,3.16a10.71,10.71,0,0,1,2.86,6.61c0,.46.06.92.06,1.36a15.45,15.45,0,0,1-1.24,6,7.59,7.59,0,0,1-3.69,4.11,9.12,9.12,0,0,1,3.29,3.7,12.52,12.52,0,0,1,1.33,5.71,11.62,11.62,0,0,1-1.15,5,9.76,9.76,0,0,1-3.84,4.13A13.27,13.27,0,0,1,474.33,399.61Zm-.67-4.48a5.32,5.32,0,0,0,3.7-1.37,7.86,7.86,0,0,0,2.2-3.38,8.34,8.34,0,0,0,.47-2.7,13.57,13.57,0,0,0-.21-2,4.93,4.93,0,0,0-1.72-2.7,6.34,6.34,0,0,0-4.41-1.39q-.09,1.39-.09,3.87c0,2.78,0,5.28,0,7.48Zm.11-17.61a5.14,5.14,0,0,0,3.27-1.11,8.3,8.3,0,0,0,2.27-2.84,9.88,9.88,0,0,0,1.06-4.45,8.73,8.73,0,0,0-.57-3,5.77,5.77,0,0,0-2.09-2.63,6.77,6.77,0,0,0-4-1.1c0,1.06,0,2.54.06,4.45l.08,8.8Q473.8,376.77,473.77,377.52Z" transform="translate(-0.45 -167.06)"/><path class="cls-1" d="M513.65,399.92c-2.09,0-3.32-.69-3.67-2.09q-.94-6.48-1.83-7.34a5.74,5.74,0,0,0-2.48-.34,35.75,35.75,0,0,0-5.32.42,5.86,5.86,0,0,0-2.83.84c0,.07-.34.9-.89,2.5q-1,3.12-1.59,4.45-.53.94-1.2,1l-.75,0a3.57,3.57,0,0,1-2.11-.69,2.29,2.29,0,0,1-.84-1.9l0-.47q.72-3.87,2.89-11t4.8-14.33a88.16,88.16,0,0,1,4.75-11.06,3.81,3.81,0,0,1,2.09-1.81,7.17,7.17,0,0,1,1.83-.33,4.79,4.79,0,0,1,1.81.36,3.89,3.89,0,0,1,2.23,2.28q1.6,4.84,4.95,23.68,2.25,12.72,2.25,13.24a2.25,2.25,0,0,1-1.67,2.15A7,7,0,0,1,513.65,399.92Zm-10.49-13.77a19.46,19.46,0,0,0,2.65-.17,3.3,3.3,0,0,0,1.5-.44,1.85,1.85,0,0,0,.14-.9,53.67,53.67,0,0,0-.86-7.12q-1.2-7.26-1.84-7.54c-.37.09-1.38,2.51-3,7.24q-2.34,6.61-2.34,8.18c0,.5,1.1.75,3.31.75Z" transform="translate(-0.45 -167.06)"/><path class="cls-1" d="M532.22,399.56c-1.37,0-3-.07-4.84-.2s-3-.56-3.53-1.3q-1-2.79-1-22,0-10.12.25-15.28.36-2.64,3.89-2.64a8.29,8.29,0,0,1,2.77.57,2.63,2.63,0,0,1,1.77,2.41l0,.77c0,1.62-.08,4.76-.23,9.44l-.22,9.62q-.11,5-.11,9.27a17.64,17.64,0,0,0,.17,3.31c.15.32,1,.47,2.5.47,1.08,0,2.56-.08,4.45-.25,1.12-.09,2-.14,2.67-.16a1.66,1.66,0,0,1,1.51,1.28,4.25,4.25,0,0,1,.28,1.5,6.21,6.21,0,0,1-.24,1.45,1.79,1.79,0,0,1-1.49,1.22,53.16,53.16,0,0,1-5.31.45C534.42,399.53,533.32,399.56,532.22,399.56Z" transform="translate(-0.45 -167.06)"/><path class="cls-1" d="M557,399.56c-1.38,0-3-.07-4.84-.2s-3-.56-3.54-1.3q-1-2.79-1-22,0-10.12.25-15.28.36-2.64,3.9-2.64a8.23,8.23,0,0,1,2.76.57,2.63,2.63,0,0,1,1.77,2.41l0,.77c0,1.62-.07,4.76-.22,9.44l-.23,9.62q-.1,5-.11,9.27a17.64,17.64,0,0,0,.17,3.31c.15.32,1,.47,2.5.47,1.08,0,2.56-.08,4.46-.25,1.11-.09,2-.14,2.67-.16a1.66,1.66,0,0,1,1.5,1.28,4,4,0,0,1,.28,1.5,6.21,6.21,0,0,1-.24,1.45,1.78,1.78,0,0,1-1.49,1.22,53.16,53.16,0,0,1-5.31.45C559.23,399.53,558.12,399.56,557,399.56Z" transform="translate(-0.45 -167.06)"/></svg>