<svg id="katman_1" data-name="katman 1" xmlns="http://www.w3.org/2000/svg" viewBox="0 0 566.93 566.89"><defs><style>.cls-1{fill:#d65b16;}</style></defs><path class="cls-1" d="M283.63,0h-.22C207.92,0,136.82,29.55,83.18,83.18S0,208,0,283.51C.08,439.79,127.19,566.92,283.35,566.92s283.23-127,283.58-283.18C566.94,127.41,439.85.14,283.63,0ZM243.88,92c.53-3.29,1-6.55,1.55-9.8,1.17-7.5,2.28-14.59,3.62-21.81,1.13-6.17,2.45-12.41,3.71-18.45.94-4.47,1.88-8.94,2.76-13.42.66-3.36,2.76-4,4.92-4.2a257.59,257.59,0,0,1,85.35,6.53c6.09,1.5,12.15,3.45,18,5.34q3.94,1.27,7.91,2.51a6.47,6.47,0,0,1,1.09.46l1.08.49-.28,2.55h-.93c-1.57,0-3.14,0-4.71-.07-3.34-.06-6.8-.13-10.15.12-17.64,1.33-31.68,7-42.93,17.27a60.24,60.24,0,0,0-17.59,30c-.85,3.3-2.46,4-5.29,4h-.35c-10.79-.19-21.76-.21-32.38-.23l-12.93,0h-2.67ZM154.1,57.74a257.28,257.28,0,0,1,87-31l1.77-.3-.62,1.68c-7.12,19.15-12.82,40-17.95,65.7l-.13.69L169.24,105v-1.26c0-13.47-1.7-30.69-15.36-44.37l-.95-1Zm-102.27,106c1.89-3,3.75-6.09,5.61-9.14,4.09-6.72,8.32-13.66,12.83-20.27A246,246,0,0,1,107.48,91.8a276.44,276.44,0,0,1,32.66-25.54c2.47-1.67,3.84-.4,4.93.93,5.59,6.77,8.21,15.29,8.25,26.82a87,87,0,0,1-.62,9.17c-.17,1.6-.33,3.21-.45,4.82a4.56,4.56,0,0,1-3.61,4.28,286.87,286.87,0,0,0-43,18.41A259.2,259.2,0,0,0,55,165.14c-.2.17-.42.33-.64.49l-.92.67-2.09-1.8Zm6.29,237.16c.25,2.12.56,4.24.88,6.35l.55,3.81-2.36.91-.43-.8c-.59-1.09-1.18-2.18-1.78-3.27-1.29-2.37-2.59-4.74-3.81-7.15a255.1,255.1,0,0,1-23.94-71.9,260.84,260.84,0,0,1-2.66-70.94A282.73,282.73,0,0,1,36.3,201.87a16.65,16.65,0,0,1,5.24-7.74C60.73,177.18,77.61,165,94.66,155.76c9-4.88,18.55-9.09,27.77-13.17l5.7-2.53c3.74-1.67,7.65-3.06,11.43-4.4q2.59-.91,5.18-1.87l.59-.22,1.76,1.57-.24.66q-1.22,3.39-2.41,6.79c-1.72,4.86-3.49,9.88-5.41,14.76-8.49,21.64-19.79,43.92-35.55,70.12-2,3.27-4,6.52-6,9.78-6,9.64-12.2,19.61-17,30.16a272.29,272.29,0,0,0-18.52,56A240.21,240.21,0,0,0,58.12,400.91ZM265.91,543.06c-1.81-.18-3.58-.33-5.32-.49-3.82-.34-7.44-.67-11.08-1.13a254.36,254.36,0,0,1-49.14-11.37,261.38,261.38,0,0,1-56.83-27.24,246.92,246.92,0,0,1-43.23-34.68,305.48,305.48,0,0,1-21.38-24.31c-1.72-2.17-2-5.47-2.32-8.39-.06-.6-.11-1.19-.18-1.76-2.73-23.1-3.28-44-1.69-63.93,1.7-21.16,6.4-42.51,14.4-65.27a263.76,263.76,0,0,1,27.66-56,410,410,0,0,0,33.12-62.68c8.72-20.69,14.22-38.52,17.31-56.11.2-1.13,1.36-2.94,2.72-3.19,14.16-2.68,28.57-5.28,42.51-7.8l5.37-1a1.78,1.78,0,0,1,.92.13l.43.14.86.25-.13.88c-.26,1.93-.55,3.84-.84,5.75-.6,4-1.22,8.14-1.59,12.2l-1.1,12c-1.51,16.27-3.07,33.1-4.12,49.67a681.42,681.42,0,0,0-.58,77.41c1.31,26,2.63,45.91,4.26,64.47,1.31,14.85,3.25,30.54,6.1,49.38,5.36,35.37,12.35,66,21.36,93.59,3.86,11.81,8.55,23.59,13.09,35,1.12,2.8,2.24,5.6,3.34,8.4a107.4,107.4,0,0,0,4.64,9.76c.81,1.57,1.65,3.18,2.47,4.86l.82,1.66Zm185-60.24c-22,17.95-44.55,31.53-68.93,41.49a265.72,265.72,0,0,1-96.34,19.46h-.17c-2.38,0-3.66-.9-4.4-3.07-1.58-4.65-3.22-9.29-4.86-13.93-3.06-8.63-6.21-17.54-8.92-26.45-6.95-22.81-11.29-46.4-14.94-68.48-5.05-30.55-8.48-58.3-10.48-84.83-1.43-19.08-2.6-38.06-3.9-60.68-1.85-32-2.1-65.54-.77-102.52.5-13.7,1.43-27.62,2.34-41.08q.6-8.86,1.16-17.73c.11-1.83.26-3.66.42-5.63l.32-3.93H294l.33,4.61c.17,2.39.32,4.62.54,6.84,2.21,22.87,8.81,44.81,20.2,67.06a240,240,0,0,0,30.16,44.92c2.92,3.47,6,6.95,8.92,10.3,4.46,5.08,9.07,10.33,13.32,15.74,9.42,12,18.67,24.41,27.49,36.91a425.52,425.52,0,0,1,29.56,48.77c11.5,22,19.7,42.15,25.06,61.68a211.46,211.46,0,0,1,7.76,57.31C457.29,475.22,455.37,479.18,450.9,482.82Zm92.36-213.93a257.55,257.55,0,0,1-58.53,179.44c-2.5,3-5.13,6-7.67,8.95-1.19,1.36-2.39,2.73-3.57,4.1l-.48.56-2.07-.82.19-2.76c.11-1.4.21-2.79.27-4.19a198.8,198.8,0,0,0-5.79-55.91c-5.44-22.62-14.08-45.43-26.42-69.71a466.63,466.63,0,0,0-37.54-61.12c-11.88-16.53-24.69-31.63-39-48.24a200.46,200.46,0,0,1-31.55-50.46,170.25,170.25,0,0,1-12.67-44c-.14-1-.22-2-.31-3l0-.36c0-.31,0-.63,0-1v-1.9l1.19.17,3.72.51c2.63.37,5.21.72,7.76,1.16a379.64,379.64,0,0,1,54.06,13.12c32.12,10.48,59.79,24.16,84.58,41.84a234.45,234.45,0,0,1,41.33,37.33,177,177,0,0,1,32,53.91A8.46,8.46,0,0,1,543.26,268.89Zm-8.5-53c.06.23.1.47.17.88l1,5.64-9.8-14.4c-11-16.06-24.6-30.66-41.75-44.63-22-17.94-46.83-32.38-75.84-44.13a358,358,0,0,0-78.71-21.59c-2.21-.35-4.42-.72-6.71-1.1l-4.66-.77.27-1.09c2.39-9.49,6.17-16.44,11.91-21.86C337.42,66.38,345.86,62.42,358,60c14.07-2.87,28-2,38.5-.89,3.18.33,6.36.75,9.53,1.16,3.55.47,7.22,1,10.84,1.29,3.38.33,5.89,2.06,8.31,3.74l1.38.94A259.6,259.6,0,0,1,534.76,215.84Z" transform="translate(0 -0.03)"/></svg>