<svg id="katman_1" data-name="katman 1" xmlns="http://www.w3.org/2000/svg" viewBox="0 0 566.93 364.42"><defs><style>.cls-1{fill:#d65b16;}</style></defs><path class="cls-1" d="M242.35,411.81a4.26,4.26,0,0,0,.15-1.15,5.74,5.74,0,0,0-1.5-3.6,6.57,6.57,0,0,0-4.56-2.61,1.86,1.86,0,0,0-1.65.77l-.82.92a14.49,14.49,0,0,0-1.87,2.14,252,252,0,0,0-18.34,31.58c-.1.25-.21.52-.33.8s-.28.58-.45.88a2.09,2.09,0,0,1-.79.77,1.87,1.87,0,0,1-.45-1v-.61a6.58,6.58,0,0,1,.08-1.07l.67-8.66,1-7.67,1-8.35c0-2.09-1.28-3.68-3.82-4.75a5.77,5.77,0,0,0-2.39-.69q-1.35,0-2.25,2.22-3.36,8.5-3.37,24.37a126.19,126.19,0,0,0,1,15.48,47.48,47.48,0,0,0,1.42,7.74,12.1,12.1,0,0,0,4.71,6.06,4.23,4.23,0,0,0,1.95.69c.65,0,1-.43,1-1.27a2.19,2.19,0,0,1,.41-1.61,1.91,1.91,0,0,1,1.24-.34h.3c1.39,0,2.09-.67,2.09-2l-.07-1.22a3.48,3.48,0,0,1,.52-1.69l2.84-5.28c1.25-2.41,2.52-4.78,3.82-7.13l16.69-29.66A18,18,0,0,0,242.35,411.81Z" transform="translate(0 -101.64)"/><path class="cls-1" d="M255.52,412.19a7.93,7.93,0,0,0-.15-1.53,6.6,6.6,0,0,0-1.8-2.72,13.45,13.45,0,0,0-2.92-2.26,5.4,5.4,0,0,0-2.47-.84,1.14,1.14,0,0,0-.93.38,6.77,6.77,0,0,0-.86,2,20,20,0,0,0-.9,2.61,202.7,202.7,0,0,0-6.14,37.09q-.37,3.9-.37,8a8.45,8.45,0,0,0,1.46,4.63,10,10,0,0,0,3.78,3.49,4.11,4.11,0,0,0,1.87.61c1,0,1.59-.81,1.64-2.45a27,27,0,0,1,.15-2.91q2.33-16.32,5.47-32.34.74-3.82,2-12.11A9.19,9.19,0,0,0,255.52,412.19Z" transform="translate(0 -101.64)"/><path class="cls-1" d="M360.13,406.9a8.38,8.38,0,0,0-6-2.76,20.72,20.72,0,0,0-6.44,1.38,78.51,78.51,0,0,0-19.83,11.12,35.68,35.68,0,0,0-6.66,6.21,10.65,10.65,0,0,0-2.21,5.69,10.79,10.79,0,0,0-7.66-3.78h-4.71c-.9-.05-1.35-.48-1.35-1.3v-.23a12.16,12.16,0,0,1,1.49-4.9q1.2-2.07,4.64-2.15l.16-.08,2.91-.46a25.43,25.43,0,0,1,6.59-.84,27,27,0,0,1,2.84.15h.45c1.1,0,1.64-.3,1.64-.92a3.7,3.7,0,0,0-.89-1.91,10.36,10.36,0,0,0-6.21-4.3,38.3,38.3,0,0,0-5.84-.46,19.31,19.31,0,0,0-4.26.35,12.08,12.08,0,0,1-2.85.35,16.49,16.49,0,0,1-4-.54,2.37,2.37,0,0,0-.82-.16.75.75,0,0,0-.59.39,3.72,3.72,0,0,1-1.43,1.53l-3,1.38-.16.08a10.76,10.76,0,0,0-.67-1.16,11.59,11.59,0,0,0-4.26-4,9.68,9.68,0,0,0-4.19-1.15,7.09,7.09,0,0,0-1.72.23,28.44,28.44,0,0,0-10,5.06l-.6.46a7.06,7.06,0,0,1-2.69,1.68,10.06,10.06,0,0,0-5.91-5.74,3.54,3.54,0,0,0-1.57-.46,1.89,1.89,0,0,0-1.73,1.15,34,34,0,0,0-1.79,4.52A232.17,232.17,0,0,0,254,452v.61a11.55,11.55,0,0,0,5,9.5,8.76,8.76,0,0,0,5.76,2.38,7.27,7.27,0,0,0,1.42-.16,31.19,31.19,0,0,0,13-6,55.67,55.67,0,0,0,4.68-3.91,20.53,20.53,0,0,0,3.78-4.83,7.5,7.5,0,0,0,1-3.52c0-2.51-1.49-4.86-4.49-7.05a4.15,4.15,0,0,0-.82-.54,4.9,4.9,0,0,1-1.94-1.76,69.68,69.68,0,0,0,13-16.33,19.84,19.84,0,0,0,1.92-4.34,4.09,4.09,0,0,1,.18,1.12,3.81,3.81,0,0,1-.3,1.46q-1.2,3.53-2.24,7.2a11.31,11.31,0,0,1-1,2.38,4.18,4.18,0,0,1-1.87,1.69,1.46,1.46,0,0,0-1,1.38,3.15,3.15,0,0,0,.63,1.64,4,4,0,0,1,.72,1.8,6.49,6.49,0,0,1-.23,1.69,54.26,54.26,0,0,0-1.42,12,9,9,0,0,1-.52,3.14,4,4,0,0,1-2,2.14,1.25,1.25,0,0,0-.75,1.15,3.13,3.13,0,0,0,.75,1.69,46.84,46.84,0,0,0,4,5c.85.92,1.67,1.86,2.47,2.83a3.64,3.64,0,0,0,2.92,1.46h.3c.5-.06.77-.22.82-.5a4.37,4.37,0,0,0,.08-.72l-.08-.62v-.84a3.58,3.58,0,0,1,2.62-3.68q13.47-5.82,27.69-10.35,1.71-.54,1.71-1.53c0-.72-.59-1.61-1.79-2.68a10.12,10.12,0,0,0-6.88-2.92l-1.43.08a112.42,112.42,0,0,0-15.41,3.61l-3.89,1.14-.53-.53,2-9a2.14,2.14,0,0,1,1.71-1.53L314,433a9,9,0,0,1,2-.23,6.44,6.44,0,0,1,2.4.77,2.89,2.89,0,0,0,1.12.3.74.74,0,0,0,.25,0,19.65,19.65,0,0,0,1.09,2.49,26.23,26.23,0,0,0,13.18,12,73.72,73.72,0,0,0,8.83,2.83,2.76,2.76,0,0,1,1.94,1,2.25,2.25,0,0,1-1.42,1.53l-.45.23a31.65,31.65,0,0,1-13.92,3.68l-.82.07a8.77,8.77,0,0,1-3.67-.84,3.48,3.48,0,0,0-1.34-.46q-.75,0-.75.84a4.57,4.57,0,0,0,.22,1.23,9.07,9.07,0,0,0,3,4.41,9.86,9.86,0,0,0,5,2.3,37.74,37.74,0,0,0,5.58.42,31.66,31.66,0,0,0,14.66-3.45c3.39-1.79,5.1-3.91,5.1-6.36a8.5,8.5,0,0,0-2-5,17.51,17.51,0,0,0-7.4-6.28A83.59,83.59,0,0,0,336.11,441a38.72,38.72,0,0,1-5.84-2.22,2.32,2.32,0,0,1-1.57-2.06,2.11,2.11,0,0,1,.15-.77,12.68,12.68,0,0,1,2.17-4.06,57.34,57.34,0,0,1,19-15,3.24,3.24,0,0,0,.37-.27,1,1,0,0,1,.41-.23l.26,0a1.3,1.3,0,0,1,.6.23v.15c0,.21-.15.41-.45.62L348.6,420c-1.79,1.79-3.54,3.57-5.23,5.36a4.31,4.31,0,0,0-1.35,3.07,6.49,6.49,0,0,0,1.27,3.52c.85,1.28,1.77,1.92,2.77,1.92A3.08,3.08,0,0,0,348,433c.67-.57,2.63-2.25,5.87-5.06a39.78,39.78,0,0,0,10.33-11.34,9.65,9.65,0,0,0,.15-1.69Q364.32,410.89,360.13,406.9ZM265,453.11a10.26,10.26,0,0,1-.3-2.6,20,20,0,0,1,1.12-6.13h.15a1.42,1.42,0,0,1,.9.38,4.57,4.57,0,0,0,2.84,1.23,2.7,2.7,0,0,0,1.79-.69,8,8,0,0,1,5.39-1.91l.9.07A43.67,43.67,0,0,1,265,453.11Zm3.21-20.61q.6-2.76,3.82-6.7a50.21,50.21,0,0,1,7.22-7.21,19.52,19.52,0,0,1,7-4A68.33,68.33,0,0,1,268.16,432.5Zm61.58-11a15.78,15.78,0,0,1,4.16-4.06,61.84,61.84,0,0,1,6.84-4.44,28.47,28.47,0,0,1,6.22-2.76A96.29,96.29,0,0,0,329.74,421.54Z" transform="translate(0 -101.64)"/><polygon points="247.4 223.73 252.59 223.73 252.59 273.38 247.4 273.38 247.4 291.79 307.81 291.79 307.81 264.12 287.17 264.12 287.17 273.38 273.21 273.38 273.21 257.7 287.17 257.7 287.17 239.3 273.21 239.3 273.21 223.61 287.17 223.61 287.17 232.87 307.81 233 307.81 205.33 247.4 205.33 247.4 223.73"/><path d="M547.44,307a273.94,273.94,0,0,0-76.85-130.88A272.24,272.24,0,0,0,28.38,278.71,274.86,274.86,0,0,0,19.51,307H9.39L0,316.35v67.57l9.39,9.38H45.71l9.51-9.51V340.94H29.4v18.4h5.19v13.09L31.38,375H23.71l-3.2-2.59V328l3.2-2.6h7.67l.27.23L34.59,328v6.66H55.22V316.48L45.71,307H35.06c1.46-5.39,3.09-10.76,4.93-16.11,3.9-4.59,19.6-22.3,40.31-35.46,27.82-17.68,52.41-19.82,73.21-6.42A475,475,0,0,0,112,307H74v18.4h5.19l-4.75,23.28L71.71,362,69.05,375H63.86v18.41h31V375H89.67L91,367.24h12.73l1.35,7.78H99.93v18.41h31V375h-5.19l-1.59-7.8-7.64-37.49q1.17-2.18,2.4-4.36L120.8,322a453.6,453.6,0,0,1,44.29-63.43c15.65,16.58,25.73,44.09,33.62,76.82l-9.48,22.68L167.86,307H140.81v18.4H146V375h-5.18v18.41h31V375h-5.19V353.41l16.8,40h11.73l10.56-25.16L212,353.41V375h-5.18v18.41h31V375h-5.19V325.37h5.07V307H210.59l-2.39,5.73c-8-27.27-18.28-50.23-33.33-65.59q8.92-10.2,18.65-20.32,8.8-9.15,18.39-17.33C244.66,232.1,286.85,269,332.1,328.32q15.72,20.61,28.81,39.71v7h-5.19v18.41h50.89L416,384V316.48L406.61,307H355.72v18.4h5.19V342q-8-11.15-16.87-22.75c-26.68-35-54.63-65.4-83.07-90.39a444,444,0,0,0-36.84-29.17,260.21,260.21,0,0,1,35.32-22.36c13.4,8.77,30.83,17.52,52.05,26.13,17.94,7.26,34.33,13.53,50.19,19.59,65,24.84,109.08,41.71,143.14,84h-9.91v18.4h7.66l5.26,10.48L513.42,347l7.19,14.33V375h-5.19v18.41h31V375h-5.2V361.31l12.1-24.17,5.94-11.89h7.66V307ZM93,355.51l3.51-20.24.82-4.71.39,2.28,3.93,22.67Zm288.41-30.14h10.74l3.21,3.09v43.47L392.16,375H381.42V325.37Zm-198.72-109Q172.47,227,163.33,237.46c-26.2-17.92-57.66-16.08-91.39,5.46A180.48,180.48,0,0,0,55.35,255a255.72,255.72,0,0,1,72-85.34c7.42,1.43,28.58,6.65,58.35,23.36q6.22,3.49,13.23,7.88Q190.51,208.27,182.7,216.38ZM211,190.78q-9.57-6.18-19.1-11.49C171.53,168,155,161.67,143.53,158.23a259.52,259.52,0,0,1,83.4-35.13,29.24,29.24,0,0,0-1.26,12.18c1.11,10.73,7.91,21.49,20.22,32l.21.17A271.27,271.27,0,0,0,211,190.78Zm29.6-56.91c-.81-7.25,3.88-12.38,6.24-14.47a255.54,255.54,0,0,1,117.83,10.49q-57.49,7.31-104.07,30C245.25,148.33,241.24,139.39,240.62,133.87ZM367.05,209c-15.78-6-32.11-12.27-49.9-19.48-17.6-7.13-31.21-13.81-41.74-20,35.07-15.66,75.06-24.81,119.67-27.34,75.13,36.09,125.84,105.34,141,183.17h2.72L531,340.94l-3.49-7-4.3-8.58h2.72V307h-2.26C486.07,254.48,437.22,235.8,367.05,209Z" transform="translate(0 -101.64)"/><path d="M486.82,369.17,484.12,356l-6.24-30.59h5.18V307H436.25v18.4h5.19L431.31,375h-5.19v18.41h31V375h-5.19l1.36-7.78H466l.37,2.13,1,5.65h-5.19v18.41h31V375H488Zm-31.55-13.66,4.33-24.95,4.32,24.95Z" transform="translate(0 -101.64)"/></svg>