<svg id="katman_1" data-name="katman 1" xmlns="http://www.w3.org/2000/svg" viewBox="0 0 566.93 386.08"><defs><style>.cls-1{fill:#d65b16;}</style></defs><path d="M518.17,281.44c0-.21-.08-.4-.12-.59,0,0,0-.06,0-.09,0-.21-.09-.43-.14-.63a15.35,15.35,0,0,0-2.29-4.1c-1.41-2.11-2-3.73-2-5.29a6.26,6.26,0,0,1,1.15-3.71C487,165.36,393.93,90.45,283.63,90.37c-112.49-.09-207.36,78-233,182.8a25,25,0,0,1,1.79,3.48,26.4,26.4,0,0,1,2.16,10.69c0,6.88-2.5,10.82-4.83,13a26.83,26.83,0,0,1,9.37,17.57,31.59,31.59,0,0,1,.28,4.09c0,.95-.05,1.88-.13,2.79a9.11,9.11,0,0,0,2.39-2.93c.3-.58.56-1.16.78-1.7q1.93-4.65,3.66-10.12l.14-1.46a230.25,230.25,0,0,1,4.62-27.86c-.19-.6-.43-1.24-.69-1.9a17.1,17.1,0,0,1-1.49-6.25c0-3.62,2.17-6.3,6.47-8q.45-1.51.93-3a13.28,13.28,0,0,1,4.17-6.13c13.81-12.19,28.36-23.42,44.58-32.2,9.09-4.93,18.68-9,28.14-13.2,4.53-2,9.29-3.52,13.94-5.27.22.2.43.39.66.58-2.19,6.05-4.24,12.15-6.59,18.15a343.9,343.9,0,0,1-18.38,38.92,20.05,20.05,0,0,1,5.11-.79c1,0,2.56.19,7.86,1.42a8.6,8.6,0,0,0,1.78.25,6.77,6.77,0,0,1,2.74.59l.24.1a8.12,8.12,0,0,1,3,2.65q4.5-9.11,8.46-18.5c6.45-15.33,11.74-31,14.63-47.47a2.85,2.85,0,0,1,1.59-2c13.43-2.53,26.89-4.94,40.33-7.37.14,0,.28.06.74.2-.71,5.11-1.6,10.12-2.05,15.16-1.58,17.3-3.3,34.6-4.41,51.95-.08,1.42-.17,2.84-.26,4.26a9.89,9.89,0,0,1,6.06,2.58,6.33,6.33,0,0,1,1.83,4.51,10.47,10.47,0,0,1-2.54,6.21c-.69.93-2,2.22-6.1,5.77q-.35,13.05,0,26.07c1.1,2.11,2.22,4.51,3.37,7.24l.07.21c.31.85.72,1.86,1.17,2.92l.11.3a7.57,7.57,0,0,0,2.73,3,17.5,17.5,0,0,1,2.2,1.8c.31-.82.64-1.66,1-2.53a41,41,0,0,0,2.78-7.87h0a91.75,91.75,0,0,0,1.74-18.25,50.38,50.38,0,0,0-.73-9,28.78,28.78,0,0,0-2.56-6.56,14.25,14.25,0,0,1-1.69-6.05c0-5.52,4.43-8.67,13.07-9.38q.18-8.86.5-17.73c.59-16.52,1.93-33,2.94-49.52.14-2.29.36-4.57.57-7.24h42.65c.25,3.25.41,6.06.68,8.86,1.94,20.07,7.95,38.9,17.11,56.81,1.41,2.77,2.89,5.48,4.45,8.16l18.28-.14c2.05,0,4.93.71,7.7,3.9a7.51,7.51,0,0,1,2.67-2.3,170.28,170.28,0,0,1-18-31.62,141.42,141.42,0,0,1-10.61-36.85c-.14-.91-.2-1.83-.28-2.74,0-.37,0-.75,0-1.42,3.33.48,6.5.86,9.65,1.41a321.15,321.15,0,0,1,45.42,11c25.37,8.28,49.22,19.59,71,35.13A198.78,198.78,0,0,1,467,263c1.2-.25,2.28-.38,3-.47a51.16,51.16,0,0,1,5.9-.31c4.79,0,8.41.49,11.11,1.48a180.61,180.61,0,0,0-33.75-35.51c-19.4-15.81-40.95-27.92-64.11-37.31a301,301,0,0,0-66.5-18.24c-2.8-.44-5.59-.92-8.65-1.42,1.75-6.95,4.6-13.09,9.79-18,6.38-6,14.25-8.89,22.65-10.6,10.68-2.17,21.43-1.85,32.17-.73,5.74.6,11.44,1.52,17.18,2.07,3.14.3,5.37,2.21,7.75,3.79a217.64,217.64,0,0,1,90.76,125.58c.08.28.11.57.26,1.39-.73-1.06-1.43-2.08-2.09-3.07a13.67,13.67,0,0,1-2.75,4.67,9.39,9.39,0,0,0-1.62,2.55,19.34,19.34,0,0,0-.44,5.23,50.52,50.52,0,0,0,.24,5.29q1.5,2.39,2.91,4.85a6.48,6.48,0,0,0,4.66-1.63l.21-.18h0a6.68,6.68,0,0,0,.47-.48l.3-.3a14.5,14.5,0,0,1,6.42-3.67l.17,0a11.58,11.58,0,0,1,2.77-.09c6,.54,10,4.38,10.87,10.53,0,.17,0,.37.07.55,0-.12.07-.24.1-.33v0a44.65,44.65,0,0,0,1.65-12.41A26.79,26.79,0,0,0,518.17,281.44Zm-346.08-99.3a3,3,0,0,1-2.45,2.84,244.2,244.2,0,0,0-36.39,15.56,218.18,218.18,0,0,0-42.78,29.14,8.58,8.58,0,0,1-.71.52l-.67-.57c5.15-8.26,10-16.71,15.52-24.75a205.5,205.5,0,0,1,31.22-35.69,235.31,235.31,0,0,1,27.4-21.43c1.47-1,2.12-.46,3,.62,5.3,6.42,6.72,14.07,6.75,22C173,174.32,172.37,178.24,172.09,182.14Zm60.66-12-44.61,8.52c0-13.79-2.4-27.17-13.2-38a217.08,217.08,0,0,1,73-26C241,133.14,236.42,151.74,232.75,170.1Zm125.9-44.21c-4.2,0-8.41-.26-12.59,0-13.76,1-26.31,5.27-36.68,14.77a51.5,51.5,0,0,0-15.08,25.67c-.62,2.4-1.59,2.74-3.89,2.7-12.21-.23-24.42-.18-36.62-.23H251c1.46-9,2.74-17.85,4.36-26.6,1.65-9,3.68-17.89,5.45-26.84.39-2,1.4-2.67,3.36-2.84a215,215,0,0,1,71.62,5.48c7.35,1.81,14.54,4.36,21.8,6.59a11.64,11.64,0,0,1,1.14.51C358.7,125.4,358.68,125.65,358.65,125.89Z" transform="translate(-0.03 -90.37)"/><path class="cls-1" d="M6.51,282.82a33.15,33.15,0,0,0-2.93-7.07,10.15,10.15,0,0,1-1.26-3.88c0-2.15,2.26-3.61,6.79-4.48a28.4,28.4,0,0,1,5.61-.51l14.21.05c9.79,0,16.29,3.76,19.5,11.4a22.19,22.19,0,0,1,1.81,9c0,4.73-1.37,8.2-3.94,10.28a4,4,0,0,0-1.82,2.78A3.72,3.72,0,0,0,46.06,303a22.46,22.46,0,0,1,8.76,15.54,26.1,26.1,0,0,1,.24,3.51c0,6.73-2.22,12-6.63,15.35-4.6,3.53-11.08,4.35-19.35,2.4-5.81-1.38-8.71-2.12-14.52-3.75C5,333.3.22,328.84.19,323.35c0-2.16.88-4.69,2.61-7.69a26.73,26.73,0,0,0,3-7,74.2,74.2,0,0,0,1.65-15.57A54.25,54.25,0,0,0,6.51,282.82Zm28.57,6a7.7,7.7,0,0,0-2.84-6.11,5.47,5.47,0,0,0-3.31-1.46c-3.21-.18-5.29,1-6.24,3.54a6.69,6.69,0,0,0-.32,2c0,2.46,1.29,4.35,3.87,5.69a9.61,9.61,0,0,0,3.16.88q4.11.4,5.37-2.65A5.42,5.42,0,0,0,35.08,288.86Zm-6.07,31q5.28,1,6.71-3.92a9.29,9.29,0,0,0,.39-2.68,10.93,10.93,0,0,0-3.08-8,6.94,6.94,0,0,0-4-2.07c-2.74-.35-4.66,1-5.77,4.06a10.44,10.44,0,0,0-.63,3.67q0,5.07,3.4,7.59A7,7,0,0,0,29,319.82Zm7.57-48.54a1.26,1.26,0,0,0-1.34,1.28c0,.9.58,1.68,1.74,2.24a2.67,2.67,0,0,0,1.34.45,1.2,1.2,0,0,0,1.34-1.18,2.72,2.72,0,0,0-1.73-2.36A2.65,2.65,0,0,0,36.58,271.28Z" transform="translate(-0.03 -90.37)"/><path class="cls-1" d="M104.48,314.12c1.52,6.49,3.92,11.54,7.18,15.19a37.73,37.73,0,0,1,3.71,4.43A14.14,14.14,0,0,1,117,341c0,5.52-2,8.81-5.84,9.91a26.55,26.55,0,0,1-8,.44c-6.74-.38-11-2.17-12.79-5.17A12.34,12.34,0,0,1,89.08,340c0-.77,0-2.22.08-4.31.09-2.73.16-4.72.16-5.93,0-4.68-.81-7.57-2.45-8.61a4.24,4.24,0,0,0-2.05-.68c-3.65-.23-5.52,3.83-5.52,11.95,0,.49,0,1.29,0,2.31s.07,1.82.07,2.31q0,9-5.44,10.6a17.17,17.17,0,0,1-6.79.15c-5.53-.76-8.9-3-10.11-6.66a15.06,15.06,0,0,1-.71-4.76q0-4.35,2.37-6.07c.26-.17.71-.42,1.34-.74a14,14,0,0,0,5.53-5.75c.37-.72.68-1.41,1-2.08A160.82,160.82,0,0,0,74,297.88a62.18,62.18,0,0,0,2-12.73,22,22,0,0,0-1.82-7.94,13,13,0,0,1-1.18-4.64c0-2.49,2.73-4.2,8.21-5.16A30.1,30.1,0,0,1,86.4,267q8.3,0,12.32,3.7a5.52,5.52,0,0,1,1.81,3.1,15.28,15.28,0,0,1,.08,1.6C100.75,288.3,101.5,301.35,104.48,314.12Zm-21.71-8.07c0,2.34.87,3.76,2,3.81,1.46.06,2.39-1.58,2.37-4.54,0-6.64-.88-10.43-2-10.6-.83-.14-1.66,1.91-2.14,5.81A39.35,39.35,0,0,0,82.77,306.05Zm10.18-35c-1.17,0-1.87.61-1.89,1.57s.6,1.7,1.81,2.17a2.5,2.5,0,0,0,1,.24c1.12,0,1.79-.61,1.82-1.57a2.39,2.39,0,0,0-1.82-2.29A3.49,3.49,0,0,0,93,271.09Z" transform="translate(-0.03 -90.37)"/><path class="cls-1" d="M162.27,281.39c0,5.34-.82,9.54-2.45,12.66-.94,1.67-2,2.58-3.08,2.62a2.54,2.54,0,0,1-1-.22c-.95-.46-1.95-2.19-3-5.25-1.16-3.36-2.21-5.44-3.16-6.22a3.27,3.27,0,0,0-1.82-.58c-2.16,0-3.66,1.38-4.5,4.14a7.35,7.35,0,0,0-.23,1.72q0,2.88,4.5,5.85l3,1.81c5.63,3.41,9.58,6.52,11.84,9.38a25.13,25.13,0,0,1,5.13,15.86c0,7.87-2.22,14.33-6.63,19.58-5,6-12,9.19-20.92,9.28-9.27.09-15.24-3.69-17.92-11.26a40.93,40.93,0,0,1-1.9-13.56c0-6.22,1.11-10.74,3.32-13.5a4.37,4.37,0,0,1,3.47-1.93c1.74,0,3.61,1.62,5.61,4.72a38.31,38.31,0,0,0,4.26,5.86,7.46,7.46,0,0,0,5.13,2.3c2.26,0,3.74-.83,4.42-2.51a2.39,2.39,0,0,0,.16-.87c0-1.23-1.58-3.3-4.74-6.25a119.07,119.07,0,0,1-9.55-9.42c-4.16-5.13-6.29-10.2-6.31-15.13a24,24,0,0,1,6.31-15.92c4.72-5.43,10.27-8.48,15.63-8.6a49.78,49.78,0,0,1,6.79,1.31,13.55,13.55,0,0,0,2.77.36,2.59,2.59,0,0,1,1,.24c1.9.95,3.11,4.17,3.63,9.56A33.17,33.17,0,0,1,162.27,281.39Zm-8.68-10.33a1.36,1.36,0,0,0-1.35,1.42,3.1,3.1,0,0,0,1.74,2.71,2.37,2.37,0,0,0,1.34.47,1.33,1.33,0,0,0,1.34-1.41,3.08,3.08,0,0,0-1.73-2.71A2.34,2.34,0,0,0,153.59,271.06Z" transform="translate(-0.03 -90.37)"/><path class="cls-1" d="M192.35,291.32c0,2.59.54,3.95,1.34,3.92,1,0,2.92-2.52,5.61-7.33a3.74,3.74,0,0,1,.23-.46,51,51,0,0,0,3.56-8.95,17.58,17.58,0,0,1,2-4.54c3.42-4.63,8.32-6.95,14.53-6.92,4.06,0,6.25,1.08,6.23,2.85a6.56,6.56,0,0,1-1.66,3.63c-.68.94-3.15,3.14-7.42,6.76-2.73,2.47-5,4.68-6.71,6.57-3.52,4-5.34,7-5.37,8.89,0,.78.66,1.64,2,2.52,2.63,1.85,4.18,2.92,4.66,3.29,3.1,2.3,6.28,7.56,9.55,15.37.37,1,.84,2.15,1.34,3.39a11.61,11.61,0,0,0,4.26,4.95,9.57,9.57,0,0,1,3.48,3.79,10.42,10.42,0,0,1,.71,4c0,5.25-2.53,8.79-7.58,10.7a31.41,31.41,0,0,1-5.76,1.5q-10.19,1.8-12.87-1.77a9.24,9.24,0,0,1-1.35-5.38c0-10.67-.89-19-2.68-24.7-1-3.18-2.25-4.8-3.63-4.7s-2.71,1.63-3.55,4.42a14.9,14.9,0,0,0-.64,4.42,31.6,31.6,0,0,0,.48,5.82c.56,3,1.36,6.51,2.29,10.47a44.55,44.55,0,0,1,1.42,8.3c0,4.15-3.55,7.21-10.66,8l-1.66.12c-9.49.64-14.34-2.41-14.37-9,0-2.59.9-6,2.61-10.07a47,47,0,0,0,3-9.31A112.15,112.15,0,0,0,177.59,302a86.57,86.57,0,0,0-1.11-13.86,50.87,50.87,0,0,0-2.92-9A16.28,16.28,0,0,1,172.3,274c0-3,2.26-5,6.79-6.15a21.59,21.59,0,0,1,5.52-.71c5.48,0,9.24,1.29,11.29,3.8a5.43,5.43,0,0,1,1,2.86c0,1.12-.73,3.49-2.13,7A29,29,0,0,0,192.35,291.32Z" transform="translate(-0.03 -90.37)"/><path class="cls-1" d="M239.32,313.93a97,97,0,0,0,1.82-19.1,55.28,55.28,0,0,0-.79-9.8,33.61,33.61,0,0,0-2.92-7.66,10.74,10.74,0,0,1-1.26-4.13c0-3.38,4.18-5.16,12.39-5.22l27.55-.21c1.95,0,3.79,1.69,5.45,5a19.2,19.2,0,0,1,2.13,8.78c0,3.95-.95,6.31-2.84,7.11a3.07,3.07,0,0,1-1,.26c-1.42.12-2.84-.71-4.26-2.54a21.52,21.52,0,0,0-3.87-4.18,10,10,0,0,0-6.47-1.71,9.75,9.75,0,0,0-8,4.95,8.4,8.4,0,0,0-1.5,4.44c0,2,.92,3,2.77,3.13a4.92,4.92,0,0,0,.94,0c1.21-.11,2.71-1,4.5-2.71a4.62,4.62,0,0,1,2.14-1.37c1.31-.11,2.26,1.24,2.84,4a19.26,19.26,0,0,1,.31,3.56c0,3.71-.68,6.26-2.05,7.7a2,2,0,0,1-1.1.59c-.48.07-1.41-.47-2.77-1.45a5.59,5.59,0,0,0-3.87-1.27,3.27,3.27,0,0,0-3.15,3.44,9.19,9.19,0,0,0,2.76,6.34c1.26,1.16,2.45,1.7,3.47,1.57,3.14-.38,6-2.44,8.37-5.79a15,15,0,0,0,1-1.56c1.73-2.48,3.21-4,4.42-4.64a5.86,5.86,0,0,1,1.66-.47c4.05-.5,6.36,1.76,6.94,6.74a17.74,17.74,0,0,1,.16,2.46,34.15,34.15,0,0,1-3.87,15.43c-2.34,4.7-4.89,7.39-7.58,8-10.26,2-15.39,3.06-25.65,5-9.58,1.79-14.43-.32-14.45-6.27,0-2.38.86-5.64,2.6-9.64A45.4,45.4,0,0,0,239.32,313.93ZM273.9,269.8c-.81,0-1.32.46-1.34,1.09,0,.81.58,1.52,1.74,2a2.77,2.77,0,0,0,1.34.31c.81-.05,1.32-.47,1.34-1.09,0-.79-.58-1.49-1.74-2A2.7,2.7,0,0,0,273.9,269.8Z" transform="translate(-0.03 -90.37)"/><path class="cls-1" d="M320.48,286.69a72.21,72.21,0,0,0,1.82,16.71,23.11,23.11,0,0,0,3.23,6.47,11.83,11.83,0,0,1,2.29,6.32c-.05,4.92-4.93,8.49-14.37,10.34s-14.34.07-14.36-5.16c0-2.09.87-4.95,2.6-8.47a37.93,37.93,0,0,0,3-7.57,63.19,63.19,0,0,0,1.26-13.5,49.11,49.11,0,0,0-1.1-10.95c-.42-1.5-1.21-2.28-2.29-2.24-1.85.05-4.34,1.85-7.34,5.41l-.16.18c-1.37,2-2.58,3.16-3.63,3.53a4.06,4.06,0,0,1-1.11.26c-2.1.19-3.34-1.45-3.71-4.94-.05-.56-.08-1.12-.08-1.69a18.2,18.2,0,0,1,3.32-10.76c1.42-1.92,2.84-2.89,4.26-2.95l38-.29c1.94,0,3.76,1.26,5.44,3.78a12.27,12.27,0,0,1,2.21,7c0,3-.92,4.94-2.76,5.75a4.91,4.91,0,0,1-1.1.23,5.25,5.25,0,0,1-4.27-2l-.47-.54a15.92,15.92,0,0,0-4.66-3.36,6.31,6.31,0,0,0-2.92-.79C321.51,277.87,320.48,280.92,320.48,286.69Zm9.4-17.76c-.88,0-1.4.37-1.42.87s.57,1.18,1.73,1.57a3.56,3.56,0,0,0,1.34.24c.88-.05,1.4-.39,1.43-.87s-.58-1.15-1.74-1.55A3.61,3.61,0,0,0,329.88,268.93Z" transform="translate(-0.03 -90.37)"/><path class="cls-1" d="M347.24,278.24a19.66,19.66,0,0,0-2.92-5,6,6,0,0,1-1.26-2.86c0-1.61,2.26-2.77,6.79-3.42a37.91,37.91,0,0,1,5.61-.39l14.21-.05c9.79,0,16.29,1.86,19.5,5.89a7.42,7.42,0,0,1,1.81,4.86,6.85,6.85,0,0,1-4,6.14c-1.15.62-1.83,1.3-1.81,1.8s.63,1.05,1.58,1.45c4.94,1.88,7.87,4.77,8.76,8.85a10.32,10.32,0,0,1,.24,2.21c0,4.33-2.22,8.1-6.63,11.27-4.61,3.3-11.08,5.34-19.35,6.64-5.81.92-8.71,1.4-14.52,2.39-9.53,1.57-14.35-.09-14.37-4.92,0-1.92.87-4.52,2.6-7.69a31.88,31.88,0,0,0,3-6.76,53.15,53.15,0,0,0,1.66-12.73A29.14,29.14,0,0,0,347.24,278.24Zm28.58.76c0-1.48-.94-2.59-2.84-3.4a7.23,7.23,0,0,0-3.31-.61c-3.22.14-5.29,1.06-6.24,2.81a3.31,3.31,0,0,0-.32,1.33c0,1.63,1.29,2.73,3.87,3.25a13.39,13.39,0,0,0,3.16.13c2.74-.21,4.53-1,5.37-2.35A2.35,2.35,0,0,0,375.82,279Zm-6.07,21.64c3.52-.46,5.76-1.94,6.71-4.37a5.17,5.17,0,0,0,.39-1.91,4.91,4.91,0,0,0-3.08-4.69,7.48,7.48,0,0,0-4-.63,6.59,6.59,0,0,0-5.77,4,6.52,6.52,0,0,0-.63,2.78,4.36,4.36,0,0,0,3.4,4.67A7.38,7.38,0,0,0,369.75,300.64Zm7.57-31.83c-.82,0-1.31.32-1.34.74s.58.92,1.74,1.18a4.43,4.43,0,0,0,1.34.21c.82,0,1.32-.29,1.34-.67s-.58-.93-1.73-1.25A4.49,4.49,0,0,0,377.32,268.81Z" transform="translate(-0.03 -90.37)"/><path class="cls-1" d="M445.22,290.58a19.55,19.55,0,0,0,7.18,8.77,27.67,27.67,0,0,1,3.71,2.7,6.13,6.13,0,0,1,1.66,4.43c0,3.41-1.95,5.46-5.84,6.13a46.91,46.91,0,0,1-8,.33c-6.74-.12-11-1-12.79-2.86a5.44,5.44,0,0,1-1.35-3.8c0-.49,0-1.41.08-2.7.09-1.68.16-2.9.16-3.63,0-2.82-.82-4.47-2.45-5a6,6,0,0,0-2.05-.32c-3.66,0-5.53,2.45-5.53,7.51,0,.3,0,.81,0,1.44s.08,1.15.08,1.46a7.09,7.09,0,0,1-5.44,7.41,28.89,28.89,0,0,1-6.79.92c-5.53.22-8.9-.81-10.11-3.12a6.81,6.81,0,0,1-.71-3.16,4.74,4.74,0,0,1,2.37-4.37c.26-.14.71-.36,1.34-.64a15.67,15.67,0,0,0,5.53-4.22,14.72,14.72,0,0,0,.94-1.37,100.8,100.8,0,0,0,7.5-14.27c1.38-3.18,2.06-5.43,2.06-6.78a6.76,6.76,0,0,0-1.82-4,4.07,4.07,0,0,1-1.18-2.28c0-1.22,2.73-2,8.21-2.5q2.52-.21,5.13-.21,8.3,0,12.32,1.73a3.17,3.17,0,0,1,1.81,1.48,3.1,3.1,0,0,1,.08.78A51.74,51.74,0,0,0,445.22,290.58Zm-21.71-4.15a2,2,0,0,0,2.05,2.06,2.25,2.25,0,0,0,2.37-2.58c-.05-3.62-.83-5.59-2-5.67-.89-.06-1.66,1-2.14,3.15A12.12,12.12,0,0,0,423.51,286.43Zm10.18-18.06c-1.19,0-1.87.3-1.89.75s.6.82,1.81,1a4.89,4.89,0,0,0,1,.11c1.14,0,1.79-.31,1.82-.76s-.61-.87-1.82-1.09A7.66,7.66,0,0,0,433.69,268.37Z" transform="translate(-0.03 -90.37)"/><path class="cls-1" d="M466.69,294.94a39.55,39.55,0,0,0,1.82-12,21,21,0,0,0-.79-6,15.74,15.74,0,0,0-2.92-4.61,4.64,4.64,0,0,1-1.26-2.36c0-1.56,2.34-2.59,7-3.15a48.16,48.16,0,0,1,5.37-.28c5.53,0,9.32.68,11.37,2.06a2.44,2.44,0,0,1,1,1.65c0,.54-.66,1.67-2,3.3a13.46,13.46,0,0,0-2.37,4,23.94,23.94,0,0,0-.63,6.54c0,5.59.57,9.5,1.74,11.44a6.17,6.17,0,0,0,4.89,3,10.83,10.83,0,0,0,8.37-2.63,9.31,9.31,0,0,0,1-1,10.79,10.79,0,0,1,4.42-2.68,7,7,0,0,1,1.66-.05c4.05.36,6.36,2.61,6.94,6.79a12.36,12.36,0,0,1,.16,2,18.77,18.77,0,0,1-3.87,11.51c-2.34,3.11-4.89,4.49-7.58,4.16-10.26-1.44-15.39-2-25.65-2.82C465.88,313,461,310.63,461,306.5c0-1.65.86-3.76,2.6-6.17A20.75,20.75,0,0,0,466.69,294.94Z" transform="translate(-0.03 -90.37)"/><path class="cls-1" d="M521.09,299.73a49.2,49.2,0,0,0,1.81-13.61,28.5,28.5,0,0,0-.79-7.06,19.69,19.69,0,0,0-2.92-5.5,6,6,0,0,1-1.26-2.82c0-1.85,2.34-3.08,7-3.75a41.41,41.41,0,0,1,5.37-.33c5.52,0,9.31.86,11.36,2.6a3.27,3.27,0,0,1,1,2.06c0,.68-.66,2.08-2,4.08a16.76,16.76,0,0,0-2.37,4.81,34.47,34.47,0,0,0-.63,7.86c0,6.69.56,11.3,1.73,13.67a6.86,6.86,0,0,0,4.9,3.91,9,9,0,0,0,8.37-2.52,9.17,9.17,0,0,0,1-1.1c1.74-1.74,3.21-2.76,4.42-3a5.8,5.8,0,0,1,1.66,0q6.07,1,6.95,8.85a20.79,20.79,0,0,1,.16,2.52,24.11,24.11,0,0,1-3.87,13.64c-2.34,3.49-4.9,4.78-7.58,4.06-10.26-3-15.4-4.23-25.66-6.43-9.58-2.1-14.42-5.19-14.45-9.69,0-1.79.87-4,2.61-6.51A21.29,21.29,0,0,0,521.09,299.73Z" transform="translate(-0.03 -90.37)"/><path d="M116.48,476.41c-8.56-.19-23.93-.33-25.79-7.6-.21-.84,1.18-4,3.33-8.53a56,56,0,0,0,4.49-13.76c1.48-8,2.16-13.66,2.16-16.43,0-5.11-.65-7.88-1.83-8-2.87-.3-7.07,6.62-11.31,19.13-2.91,8.59-6.24,18.08-6.32,27.39,0,3-1.89,4.74-5.65,5.34a16.85,16.85,0,0,1-2,.1c-3.66,0-6-1.21-7.15-3.61a5.5,5.5,0,0,1-.5-2.23c-.14-10.81-3.7-21.86-7.16-32.14-4.31-12.85-8.07-20.43-10.64-20.73-1-.11-1.67,2.72-1.67,8.18A123.42,123.42,0,0,0,48.27,442a88.52,88.52,0,0,0,6.33,20c1.1,2.58,1.89,4.85,1.66,5.89-1.79,8-16.91,8.22-25.79,8.52-10.91.37-30.06-1.71-30.44-16-.11-4.1,1.82-9.51,5.49-15.23,3.38-5.27,5.6-9.4,6.49-12.68a110.46,110.46,0,0,0,3.16-29.19v-2.67a64.25,64.25,0,0,0-2-16.06c-.66-2.48-2.66-7.3-6-15-1.89-4.21-2.83-7.19-2.83-9,0-4.16,4.76-5.06,14.3-3.71a95.44,95.44,0,0,1,11.81,2.5c9.91,2.67,21.83,7.58,26,17.57s7.5,21.22,11.14,31.81c2.66,7.31,4.89,11.09,6.49,11.38,2,.37,4.19-2.68,6.32-8.88C84,400.88,86.26,394,87,391.54a86.18,86.18,0,0,1,3.5-9.48c4.64-9.35,17-10.61,26.11-10.21,11.32.49,19.47,2.24,23.79,6.29a7.5,7.5,0,0,1,2.16,4.65c.07,1.94-1.46,5.77-4.32,11.2-2.45,4.65-4,7.49-4.66,10a54.9,54.9,0,0,0-1.66,14.4c.22,12.21,1.36,20.95,2.83,26.4.75,2.78,3.1,6.68,7,11.41,3.32,4,5.27,7.65,5,9.95C145.54,476.37,125.1,476.6,116.48,476.41ZM37.13,371A6.61,6.61,0,0,0,42,375.29c2.54.61,4.55-.22,5-1.74,0-1.5-1.16-2.83-3.49-4A8.64,8.64,0,0,0,42,369c-2.55-.65-4.1-.2-4.66,1.37A2.74,2.74,0,0,0,37.13,371ZM124,382.24a5.41,5.41,0,0,0,5,3c2.57,0,4.68-1.49,4.83-3.14.12-1.37-1.11-2.57-3.33-3.19a7.09,7.09,0,0,0-1.5-.18q-4,0-4.82,2.71A3.77,3.77,0,0,0,124,382.24Z" transform="translate(-0.03 -90.37)"/><path d="M253.55,424c3.25,8.5,8.26,14.87,15.14,19.19,4.54,2.82,7.15,4.73,7.82,5.52,2.33,2.57,3.49,6.15,3.49,10.64,0,8.54-4.1,13.91-12.31,15.82-3.77.85-9.43,1.19-16.8,1.24-9.07.07-19-.27-26.95-5.17a9.44,9.44,0,0,1-2.83-7.19c0-.95,0-2.75.17-5.38.18-3.42.33-6,.33-7.54,0-6-1.72-9.5-5.16-10.23a12.41,12.41,0,0,0-4.32-.1c-7.73,1.11-11.65,7.09-11.65,16.68,0,.58,0,1.54,0,2.71s.17,2.09.17,2.65c0,6.89-3.83,11-11.48,12.54a80,80,0,0,1-14.3,1c-11.65,0-18.75-1.69-21.3-5.29a8.41,8.41,0,0,1-1.49-5c0-3.14,1.66-5.53,5-7.07.55-.24,1.49-.59,2.83-1.06q7.82-3.06,11.64-7.55a29.26,29.26,0,0,0,2-2.65A135.18,135.18,0,0,0,189.34,415c2.91-8.68,4.32-15.37,4.32-19.28,0-3.36-1.27-7.13-3.82-11.37-1.67-2.68-2.5-5-2.5-6.9,0-4,5.77-7.58,17.3-11.21a95.69,95.69,0,0,1,10.82-2.73c11.64-2.23,20.29-2.17,25.95.28,2.1.92,3.38,2.18,3.82,3.79a13.66,13.66,0,0,1,.17,2.35C245.63,387.93,247,406.88,253.55,424Zm-45.75-1.5c.11,3.1,1.81,4.7,4.33,4.25,3.2-.57,5-3.18,5-7.23-.11-9-1.83-14.18-4.16-13.92-1.86.2-3.49,3.51-4.49,9.15A37.93,37.93,0,0,0,207.8,422.5Zm21.46-55.44c-2.51.58-3.94,1.78-4,3.25s1.27,2.33,3.83,2.48a6.94,6.94,0,0,0,2.16-.11c2.4-.57,3.77-1.76,3.83-3.22s-1.28-2.48-3.83-2.64A10.31,10.31,0,0,0,229.26,367.06Z" transform="translate(-0.03 -90.37)"/><path d="M403.43,476.41c-9.51,0-25.57-2.89-25.78-15.17,0-2.19,1.17-7.8,3.33-16.3a182.27,182.27,0,0,0,4.49-24.58c1.48-13.56,2.16-22.12,2.16-26.25,0-7.61-1.11-11.56-1.83-11.3-6.35,2.31-9.23,21.12-11.31,30.79-3.35,15.53-6.21,31.89-6.32,48,0,5.49-1.89,9-5.66,10.2a9.66,9.66,0,0,1-2,.24c-3.67,0-6-2-7.16-6.06a14.8,14.8,0,0,1-.5-3.77c0-16.14-3.35-32.42-7.15-47.81-4-16.45-8.21-24-10.65-23.24-1,.31-1.66,4.09-1.66,11.09a207,207,0,0,0,1.83,23.89c1.14,9.31,3.82,18.43,6.32,27.48a32.24,32.24,0,0,1,1.67,9c-.41,12.07-16.18,13.79-25.79,13.8-10.85,0-30.06-2.19-30.44-16.19-.12-4.15,1.81-9.87,5.49-17,3.38-6.54,5.6-11.91,6.49-15.85,2.42-11,2.82-22.17,3.16-33.39v-2.89a57.6,57.6,0,0,0-2-15.93c-.67-2.2-2.66-6-6-11.26-1.89-2.86-2.83-5.18-2.83-6.94,0-4.08,4.77-8.05,14.31-11.8a81.87,81.87,0,0,1,11.81-3.56c8.73-2,20.91-3,25.95,4.09,5.28,7.46,8.17,19.07,11.15,28.88,2.66,8.19,5,12.61,6.48,12.46,2-.2,4.19-5.19,6.33-13.92,3.58-14.69,5.88-22.63,6.65-24.94a74.07,74.07,0,0,1,3.49-8.82c4.95-8.94,16.93-11.24,26.12-11.75,11.38-.64,19.46.51,23.79,3.5a5.1,5.1,0,0,1,2.16,3.5c.07,1.46-1.47,4.39-4.32,8.81a34.16,34.16,0,0,0-4.66,11.33,93.45,93.45,0,0,0-1.67,19.35c.18,13.43.79,27.42,2.83,40.74.72,4.7,3.1,11.42,7,20.24,3.32,7.53,5,14.06,5,19.38C433.79,470.67,416.68,476.36,403.43,476.41ZM324.08,348.7c.56,1.38,2.45,2.08,4.83,1.53,2.69-.63,4.54-2.17,5-3.66,0-1.28-1.17-1.94-3.49-2a9.2,9.2,0,0,0-1.5.16c-2.55.55-4.11,1.64-4.66,3.26A3.16,3.16,0,0,0,324.08,348.7Zm86.84-13.84c.66,1.23,2.56,2.12,5,2,2.65-.12,4.68-1.38,4.82-2.62.13-1-1.11-1.92-3.32-2.29a10,10,0,0,0-1.5-.06c-2.66.15-4.27.94-4.82,2.35A2,2,0,0,0,410.92,334.86Z" transform="translate(-0.03 -90.37)"/><path d="M540.51,411.8c2.81,10.15,7.63,20,15.13,27.54,4.55,4.49,7.16,7.11,7.82,8.11a19.47,19.47,0,0,1,3.5,11.66c0,8.65-4.11,13.81-12.31,15.88-3.77.92-9.48,1.32-16.8,1.42-8.83.13-21-.58-27-8.44-1.89-3.05-2.83-7-2.83-11.78,0-1.5,0-4.33.16-8.36.19-5.25.34-9,.34-11.32,0-8.87-1.72-14.3-5.16-16.42a8.9,8.9,0,0,0-4.32-1.47c-9.88.07-11.9,14.23-11.65,23.2,0,.95-.05,2.58,0,4.63s.15,3.69.17,4.66c.15,8.8-2.53,19.26-11.48,23.09-3.66,1.46-8.43,2.21-14.31,2.21-11.64,0-18.74-3.9-21.29-11.58a32.71,32.71,0,0,1-1.5-10.31c0-6.38,1.67-10.95,5-13.8.56-.43,1.5-1.06,2.83-1.9a35.87,35.87,0,0,0,11.65-13c.77-1.53,1.44-3,2-4.36a391.59,391.59,0,0,0,15.8-46.1c2.91-10.5,4.33-17.94,4.33-22.54a23,23,0,0,0-3.83-12.14c-1.66-2.59-2.49-4.6-2.49-6.08,0-3.13,5.76-4.91,17.3-4.55a67.92,67.92,0,0,1,10.81,1.08c8.84,1.76,18.53,4,25.95,10.11a10.79,10.79,0,0,1,3.83,5.06,10.91,10.91,0,0,1,.17,2.14A238.75,238.75,0,0,0,540.51,411.8Zm-45.75-20.32c.11,4.29,1.81,7,4.33,7.31,3.1.36,5-2.46,5-7.77-.11-11.93-1.78-18.72-4.16-19.34-1.78-.46-3.5,2.91-4.5,9.84A59.87,59.87,0,0,0,494.76,391.48Zm21.46-52.57c-2.5-.51-3.94,0-4,1.14s1.27,2.41,3.82,3.57a10.15,10.15,0,0,0,2.17.79c2.38.52,3.77.08,3.82-1.1s-1.27-2.65-3.82-3.81A12.93,12.93,0,0,0,516.22,338.91Z" transform="translate(-0.03 -90.37)"/></svg>