<svg id="katman_1" data-name="katman 1" xmlns="http://www.w3.org/2000/svg" viewBox="0 0 566.93 405.87"><defs><style>.cls-1{fill:#d65b16;}</style></defs><circle cx="250.07" cy="41.91" r="21.07"/><circle cx="230.9" cy="89.29" r="15.95"/><circle cx="268.94" cy="78.02" r="11.27"/><path d="M376.56,325.11c.36,2.5.56,5,1.13,7.5a41.84,41.84,0,0,0,2.49,8.11c2.36,5.13,7,7.32,12.23,8.48.81.17,1.62.35,2.42.56a1.5,1.5,0,0,1,.89.69c-1.13.29-2.24.67-3.39.86-7.94,1.27-12.47,6.09-14.26,13.7-.6,2.54-.93,5.13-1.41,7.69-.12.6-.35,1.18-.52,1.76l-.57,0c-.14-1.36-.19-2.74-.44-4.08-.6-3.19-.89-6.51-2-9.5-2.17-5.69-7.06-8.19-12.69-9.48l-3.9-.89V350c1.1-.28,2.19-.66,3.31-.84,9-1.43,13.65-7,15-15.69.29-1.87.51-3.76.76-5.63l.36-2.73Z" transform="translate(0 -80.54)"/><path d="M369.9,363.8c.22,1.55.35,3.13.7,4.65a25.47,25.47,0,0,0,1.54,5c1.47,3.19,4.34,4.54,7.59,5.26l1.5.35a1,1,0,0,1,.56.43c-.71.18-1.4.42-2.11.53-4.93.79-7.74,3.78-8.85,8.51-.37,1.57-.57,3.18-.87,4.77a11.3,11.3,0,0,1-.33,1.09l-.35,0c-.08-.84-.11-1.7-.27-2.53a33.69,33.69,0,0,0-1.26-5.89c-1.34-3.53-4.38-5.08-7.87-5.88l-2.42-.55v-.29c.68-.18,1.36-.42,2.05-.53,5.58-.88,8.47-4.32,9.29-9.73.18-1.16.32-2.33.47-3.5.08-.56.15-1.12.22-1.69Z" transform="translate(0 -80.54)"/><path d="M350.75,340.6c.23,1.55.35,3.13.7,4.65a26.18,26.18,0,0,0,1.55,5c1.46,3.19,4.34,4.54,7.58,5.26l1.5.35a1,1,0,0,1,.56.43,21.7,21.7,0,0,1-2.11.53c-4.92.79-7.73,3.78-8.84,8.51-.37,1.57-.58,3.18-.88,4.77a11.21,11.21,0,0,1-.32,1.09l-.35,0c-.09-.84-.12-1.7-.28-2.53a34.61,34.61,0,0,0-1.25-5.89c-1.35-3.53-4.38-5.08-7.88-5.88l-2.42-.55v-.29c.69-.18,1.36-.42,2.06-.53,5.58-.88,8.46-4.32,9.29-9.73.17-1.16.31-2.33.47-3.5.07-.56.14-1.12.22-1.69Z" transform="translate(0 -80.54)"/><path d="M24.74,113.4c-.7-3.3-2.81-8.19-6.36-14.45-1.83-3.31-2.75-5.77-2.75-7.44,0-4.89,5.1-8.15,15.29-10A77.42,77.42,0,0,1,42.6,80.6c8.16-.09,18.34.71,24.56,6.85a7.35,7.35,0,0,1,2.23,5.11c0,1.82-1.42,5.44-4.29,10.63a44.53,44.53,0,0,0-5,12.19,96.85,96.85,0,0,0-1.55,19.85,285.1,285.1,0,0,0,3.61,40.15q.33,1.56,5.84,13.56c4.1,8.93,6.15,16.05,6.18,21.21.11,16.68-20.83,14.87-31.26,13.16-12.17-2-31.25-9.79-31.26-24.58,0-7.59,4.91-15.36,8.42-22a45.54,45.54,0,0,0,3.78-8.11,220.88,220.88,0,0,0,2.92-32.23A106.07,106.07,0,0,0,24.74,113.4ZM53.42,87.32c-2.46,0-3.9,1-4,2.63s1.31,2.89,4,3.7a7.17,7.17,0,0,0,2.23.43c2.34,0,3.72-1,3.78-2.64s-1.32-3.11-4-3.9A9.76,9.76,0,0,0,53.42,87.32Z" transform="translate(0 -80.54)"/><path d="M95,176.51a175.65,175.65,0,0,0,3.78-34.86,122.51,122.51,0,0,0-2.58-25c-.69-3.33-2.81-8.56-6.35-15.65-1.84-3.88-2.75-6.81-2.75-8.8,0-4.91,4.92-8.34,14.77-10.36A57.59,57.59,0,0,1,114,80.6c10.12.05,22,2.24,26.79,12.3.35.68,1.38,4.84,3.1,12.43,3.14,13.1,6.92,41.82,14.59,45.11.82.35,2.35-3.7,2.58-11.13v-.39c0-9.69-.5-16.83-1.37-21.23-.71-3.59-2.81-9-6.36-16.21-2-3.93-2.92-6.93-2.92-9q0-7.77,14.77-10.66a60.59,60.59,0,0,1,12-1.24c8.2-.08,18.1.84,24.56,6.63a8.19,8.19,0,0,1,2.24,5c.06,2-1.6,6.09-4.47,11.87a51.92,51.92,0,0,0-4.64,12.73A104.92,104.92,0,0,0,193.39,137c.11,14.67,1,29.62,3.78,44.15a80.3,80.3,0,0,0,9.1,23.61c2.17,4,3.38,7.1,3.26,9-.58,9.39-14.15,13.45-22.33,15.28a85.46,85.46,0,0,1-10,1.07c-8.35.27-26.14.52-26.62-11.43-.57-14.35-3.69-30.15-7.38-44.29-2-7.64-6.12-24.84-11-25.88-.67-.14-1.73,2.9-1.72,7.9a232.2,232.2,0,0,0,1.89,25.74c1.07,9.51,3.88,18.84,6.53,28.08,1.14,3.71,1.79,6.65,1.71,8.6C140.15,231,123,231.37,114,231.37c-12,0-31.46-4.51-31.43-20.36,0-4.83,1.87-10.89,5.67-18.12C91.77,186.24,94.06,180.73,95,176.51Z" transform="translate(0 -80.54)"/><path d="M406,192.89c-7.07.3-25.88,1.1-26.62-9-.11-1.45,1.21-5.58,3.43-11.78a97.58,97.58,0,0,0,4.64-18c1.53-10,2.23-16.51,2.23-19.67,0-5.81-1-9-1.89-8.78-5.87,1.39-9.47,15.82-11.68,23.4-3.38,11.61-6.4,24.09-6.52,36.16a8.3,8.3,0,0,1-5.84,8.26,14.35,14.35,0,0,1-2.06.5c-3.78.62-6.25-.52-7.39-3.45a7.76,7.76,0,0,1-.51-2.81c0-12.74-3.48-25.94-7.39-37.69-2.29-6.87-6.37-19.68-11-20.29-.71-.09-1.72,3.53-1.72,9.67a148.89,148.89,0,0,0,1.89,20.66c.9,6.06,3.09,13.52,6.53,22.33,1.14,2.93,1.79,5.34,1.71,7-.46,10.57-18.21,14.61-26.62,15.91-9.62,1.49-31.12,5.1-31.42-10.21-.09-4.25,1.87-10.29,5.66-17.56,3.5-6.7,5.78-11.94,6.7-15.78a147.51,147.51,0,0,0,3.26-32.39v-2.83a57.81,57.81,0,0,0-2.06-16c-.68-2.28-2.74-6.37-6.18-12.41-1.95-3.3-2.92-5.88-2.92-7.68,0-4.18,4.92-7.18,14.77-8.84a60.11,60.11,0,0,1,12.19-1c8.87.29,21.61.56,26.8,9,4.93,8,8.06,18.05,11.5,27.29,2.75,7.24,5.08,11,6.7,10.91,2.06-.07,4.33-4,6.53-11.13,3.7-11.93,6.07-18.56,6.87-20.48a51,51,0,0,1,3.6-7.25c6.1-8.27,18-8,27-8.34,7.89-.26,17.46.23,24.56,4.57A5.2,5.2,0,0,1,433,88.66c.07,1.41-1.52,4.23-4.47,8.23a29.24,29.24,0,0,0-4.81,8.87A53.34,53.34,0,0,0,422,120.32c.15,9.75.77,20.11,2.92,29.67.74,3.33,3.2,8.08,7.21,14.19,3.43,5.22,5.22,9.74,5.15,13.31C437,191.44,415.47,192.49,406,192.89Zm-81.93-104c.58,1.46,2.48,2.49,5,2.39,2.74-.1,4.7-1.24,5.16-2.58,0-1.23-1.21-2.08-3.61-2.57a8.9,8.9,0,0,0-1.55-.13q-3.94,0-4.8,2.26A2.22,2.22,0,0,0,324.08,88.92Zm89.65-1c.69,1.2,2.62,2.17,5.16,2.23,2.73,0,4.83-1.06,5-2.22.12-1-1.15-1.9-3.44-2.37a11.55,11.55,0,0,0-1.54-.14q-4.12,0-5,1.94A1.82,1.82,0,0,0,413.73,87.93Z" transform="translate(0 -80.54)"/><path d="M511.11,89.35q5-6.42,21.13-8.28c2.29-.2,4.52-.31,6.69-.31q14.6,0,16.15,5.33a3.18,3.18,0,0,1,.17,1,9.16,9.16,0,0,1-1,3.14c-1.15,1.74-5,5-11.34,9.58a106.86,106.86,0,0,0-11.5,9.44c-5,5-7.67,7.5-7.9,7.79a36.64,36.64,0,0,0-5.33,7.83c-2.06,4.48-3.09,10-3.09,16.74a71.09,71.09,0,0,0,1.55,14.94c.23.86,2.17,4.63,5.84,11.48,4.1,7.67,6.2,13.87,6.18,18.22-.07,14.6-22.9,11.08-31.26,10-10.32-1.36-30.77-4.08-31.43-17.63-.2-4.22,2.81-11,8.42-19.68q3.43-5.49,3.95-7.24a46.61,46.61,0,0,0,1.2-9.34c-.06-6.61-2.27-13.5-6.52-20.13a124.47,124.47,0,0,0-11.51-15.72c-2.32-2.53-7.1-6.45-14.08-11.59q-5.5-4.12-7-6.22a3.45,3.45,0,0,1-.68-2c0-3.16,5.26-5.09,15.8-5.84,1.94-.09,4-.13,6.18-.14,10.07,0,20.56.84,30.06,4.54,2.86,1.19,5,2.52,5.83,3.88a10.41,10.41,0,0,1,1.38,5.5c0,.5.05,1.34,0,2.38s-.17,2.08-.17,2.67a21.75,21.75,0,0,0,1.2,7.65c1.72,5,3.09,7.5,4.12,7.56,1.26.06,2.23-2.25,2.92-7v-.3c.23-1.6.44-3.72.69-6.32C508.21,95.66,509.39,91.64,511.11,89.35Zm-26.79.08c-2.84,0-5.13,1.23-5.32,2.4s1.25,2,3.77,2.37a7.94,7.94,0,0,0,1.38.17q4.29-.36,5-2.54C488.56,90.46,486.74,89.44,484.32,89.43ZM534,88.82c.58,1.59,2.48,2.78,5,2.81,2.72,0,5-1.24,5.16-2.46s-1.26-2.44-3.78-2.8a9.16,9.16,0,0,0-1.38-.18Q534.64,86.61,534,88.82Z" transform="translate(0 -80.54)"/><path class="cls-1" d="M6.32,254.33a46.87,46.87,0,0,0-2.92-8.06,13.7,13.7,0,0,1-1.27-4.39c0-2.18,2.27-2.83,6.8-2.15a33,33,0,0,1,5.6,1.35c5.69,1.85,8.53,2.71,14.22,4.28,8.28,2.07,16.06,6.93,19.5,15a20.89,20.89,0,0,1,1.82,8.51c0,4.3-1.37,7.27-4,8.76-1.16.66-1.84,1.48-1.82,2.27a4.21,4.21,0,0,0,1.58,2.64,24.41,24.41,0,0,1,8.77,15.48,22.52,22.52,0,0,1,.24,3.25c0,6.19-2.22,9.57-6.64,11.94-4.6,2.47-11.08,2.63-19.34.05-5.82-1.82-8.72-2.81-14.53-5C4.85,304.69,0,299.57,0,293.94a13.72,13.72,0,0,1,2.61-7.35,21.22,21.22,0,0,0,3-6.36A69.15,69.15,0,0,0,7.27,265,59.31,59.31,0,0,0,6.32,254.33Zm28.59,13.13a9,9,0,0,0-2.85-6.37,7.55,7.55,0,0,0-3.31-2.15c-3.21-.95-5.29-.35-6.24,1.84a5.54,5.54,0,0,0-.32,1.82c0,2.38,1.29,4.52,3.87,6.38a12.26,12.26,0,0,0,3.16,1.54c2.74.84,4.53.36,5.37-1.39A4.21,4.21,0,0,0,34.91,267.46Zm-6.08,28.19q5.28,1.77,6.71-2.6a7.85,7.85,0,0,0,.39-2.48,11.85,11.85,0,0,0-3.08-8.05,9.15,9.15,0,0,0-4-2.73c-2.74-.87-4.66,0-5.77,2.76a8.85,8.85,0,0,0-.63,3.43,10.14,10.14,0,0,0,3.4,8A9,9,0,0,0,28.83,295.65Zm7.58-44.27c-.81-.17-1.32.16-1.34.87s.57,1.7,1.73,2.5a3.58,3.58,0,0,0,1.35.72c.8.17,1.31-.14,1.34-.79,0-.84-.58-1.73-1.74-2.58A3.55,3.55,0,0,0,36.41,251.38Z" transform="translate(0 -80.54)"/><path class="cls-1" d="M104.32,297.31c1.52,5.64,3.92,10.28,7.19,13a32.55,32.55,0,0,1,3.71,3.36,8.72,8.72,0,0,1,1.66,5.5c0,4.25-1.95,6.84-5.84,7.68a32.76,32.76,0,0,1-8,.3c-6.74-.37-11-1.88-12.79-4.26a8,8,0,0,1-1.35-4.75c0-.6,0-1.72.08-3.32.09-2.09.16-3.62.16-4.55,0-3.59-.82-6.33-2.45-7.33a5,5,0,0,0-2-.7c-3.65-.37-5.53,3.28-5.53,9.58,0,.38,0,1,0,1.79s.08,1.42.08,1.8c0,4.66-1.82,7.36-5.45,8a21.53,21.53,0,0,1-6.79-.26c-5.53-.94-8.9-3-10.11-6.07a10.56,10.56,0,0,1-.71-3.92c0-2.35.79-3.9,2.37-4.67.26-.11.71-.27,1.34-.47,2.48-.92,4.32-2,5.53-4.08.37-.63.68-1.23,1-1.81a129.38,129.38,0,0,0,7.5-20.7,45.88,45.88,0,0,0,2-11,18.49,18.49,0,0,0-1.81-7.14,11.2,11.2,0,0,1-1.19-4.2c0-2.17,2.74-3.26,8.22-3.47a37,37,0,0,1,5.13.17c5.53.55,9.63,1.88,12.32,4.13a5,5,0,0,1,1.81,2.72,8.16,8.16,0,0,1,.08,1.36A127.33,127.33,0,0,0,104.32,297.31Zm-21.71-7.9c0,2.06.86,3.36,2,3.47,1.47.14,2.39-1.26,2.37-3.84,0-5.8-.86-9.14-2-9.37-.84-.18-1.65,1.54-2.13,4.92A28.8,28.8,0,0,0,82.61,289.41ZM92.79,260c-1.18-.06-1.87.38-1.89,1.19s.6,1.5,1.81,2a3.19,3.19,0,0,0,1,.28c1.13.06,1.79-.4,1.82-1.21s-.61-1.59-1.82-2.07A4.67,4.67,0,0,0,92.79,260Z" transform="translate(0 -80.54)"/><path class="cls-1" d="M162.13,268.29c0,4.31-.82,7.78-2.45,10.45-1,1.44-2,2.26-3.08,2.37a3,3,0,0,1-1-.12q-1.41-.45-3-4.1c-1.15-2.68-2.21-4.33-3.16-4.91a3.69,3.69,0,0,0-1.81-.38c-2.16.1-3.66,1.29-4.5,3.59a4.81,4.81,0,0,0-.24,1.43c0,1.57,1.5,3.12,4.5,4.59l3,1.33c5.64,2.48,9.58,4.73,11.85,6.92a17.24,17.24,0,0,1,5.13,12.83,22.77,22.77,0,0,1-6.63,16.59c-5.06,5.22-12,8.1-20.93,8.45-9.27.37-15.24-2.54-17.93-8.33-1.26-2.73-1.89-5.68-1.89-10.44q0-8.07,3.32-11.68a4.75,4.75,0,0,1,3.47-1.72c1.74,0,3.61,1.27,5.61,3.83a31.15,31.15,0,0,0,4.26,4.81,7.59,7.59,0,0,0,5.13,1.69c2.27-.12,3.74-.93,4.43-2.4a2,2,0,0,0,.15-.75c0-1-1.57-2.69-4.73-5a95,95,0,0,1-9.56-7.53c-4.16-4.18-6.29-8.43-6.32-12.54,0-4.6,2.11-9.2,6.32-13.21,4.75-4.52,10.25-7.05,15.64-7.34a65.6,65.6,0,0,1,6.79.75,16.66,16.66,0,0,0,2.76.14,3.2,3.2,0,0,1,1,.13c1.89.65,3.11,3.12,3.63,7.41A20.91,20.91,0,0,1,162.13,268.29Zm-8.69-7.76a1.29,1.29,0,0,0-1.34,1.21c0,.85.58,1.58,1.74,2.08a2.56,2.56,0,0,0,1.34.31c.81-.08,1.32-.54,1.34-1.21,0-.84-.58-1.57-1.74-2.08A2.77,2.77,0,0,0,153.44,260.53Z" transform="translate(0 -80.54)"/><path class="cls-1" d="M192.22,273.45c0,2.08.53,3.14,1.34,3,1-.13,2.92-2.38,5.61-6.66a3.15,3.15,0,0,1,.23-.4,44.13,44.13,0,0,0,3.56-7.81,16.07,16.07,0,0,1,2-4c3.42-4.33,8.3-7.12,14.53-8.26,4.07-.75,6.26-.25,6.24,1.25a6.59,6.59,0,0,1-1.66,3.41,74.46,74.46,0,0,1-7.42,7q-4.11,3.79-6.71,6.53c-3.53,3.86-5.35,6.59-5.37,8.13,0,.65.65,1.3,2,1.89,2.63,1.26,4.18,2,4.66,2.28,3.1,1.62,6.29,5.81,9.55,12.49.37.88.84,1.86,1.35,2.93a9.91,9.91,0,0,0,4.26,4.14,8.2,8.2,0,0,1,3.48,3.21,8.5,8.5,0,0,1,.71,3.6q0,7.24-7.58,10.18a34.59,34.59,0,0,1-5.77,1.58c-6.79,1.34-11.08.94-12.87-1.11a7.26,7.26,0,0,1-1.34-4.71c0-9.4-.9-16.51-2.69-21.19-1-2.61-2.24-3.86-3.63-3.65s-2.71,1.59-3.56,4a11.28,11.28,0,0,0-.63,3.76,22.28,22.28,0,0,0,.48,4.88c.56,2.49,1.36,5.47,2.29,8.85a33.05,33.05,0,0,1,1.42,7.17c0,3.65-3.56,6.33-10.66,7.48l-1.66.21c-9.5,1.16-14.35-1.18-14.37-6.6,0-2.15.89-5,2.6-8.54a36.52,36.52,0,0,0,3-8.09,81.5,81.5,0,0,0,1.82-16.69,55.31,55.31,0,0,0-1.11-11.14,31.12,31.12,0,0,0-2.92-6.93,10.09,10.09,0,0,1-1.26-4c0-2.36,2.26-4.15,6.79-5.42a29.08,29.08,0,0,1,5.53-1.07c5.47-.52,9.24-.19,11.29,1.48a3.23,3.23,0,0,1,1,2.12c0,.89-.73,2.91-2.14,5.94C193,268.22,192.19,271.18,192.22,273.45Z" transform="translate(0 -80.54)"/><path class="cls-1" d="M239.2,288A85.48,85.48,0,0,0,241,270.21a43.71,43.71,0,0,0-.79-8.79,23.07,23.07,0,0,0-2.92-6.4,7.45,7.45,0,0,1-1.26-3.43c0-3,4.18-5.37,12.39-7.1q13.8-2.93,27.56-5.94c1.95-.43,3.79.9,5.45,3.92a17.65,17.65,0,0,1,2.14,8.61q0,6.07-2.85,7.7a3.13,3.13,0,0,1-.94.39c-1.43.33-2.85-.32-4.27-1.93a15.82,15.82,0,0,0-3.87-3.55,9.16,9.16,0,0,0-6.47-.59,12.3,12.3,0,0,0-8,6,8.8,8.8,0,0,0-1.5,4.43c0,1.85.92,2.71,2.76,2.59a5.05,5.05,0,0,0,.95-.13q1.81-.41,4.5-3.24a5.77,5.77,0,0,1,2.13-1.64q2-.44,2.85,3.52a18.13,18.13,0,0,1,.31,3.47q0,5.49-2,7.82a2.29,2.29,0,0,1-1.11.7c-.47.11-1.41-.32-2.76-1.13a5.3,5.3,0,0,0-3.87-.8,3.67,3.67,0,0,0-3.16,3.65,7.87,7.87,0,0,0,2.77,5.84,4.4,4.4,0,0,0,3.47,1.23c3.14-.65,6-2.9,8.37-6.46a18.79,18.79,0,0,0,1-1.65c1.74-2.65,3.21-4.34,4.42-5.1a6,6,0,0,1,1.66-.65q6.07-1.43,6.95,6.22a20.11,20.11,0,0,1,.16,2.51,37.08,37.08,0,0,1-3.87,16.07c-2.35,4.89-4.9,7.68-7.58,8.36q-12.83,3-25.67,5.84c-9.58,2.07-14.43.27-14.45-5.22,0-2.2.86-5.24,2.6-9A42.39,42.39,0,0,0,239.2,288Zm34.59-47a1.57,1.57,0,0,0-1.34,1.36c0,.8.58,1.38,1.74,1.66a2.57,2.57,0,0,0,1.34.05c.82-.21,1.32-.72,1.34-1.36s-.58-1.37-1.73-1.65A2.72,2.72,0,0,0,273.79,241Z" transform="translate(0 -80.54)"/><path class="cls-1" d="M320.39,251.46a91.51,91.51,0,0,0,1.81,19,27.53,27.53,0,0,0,3.24,7.21,14.39,14.39,0,0,1,2.29,7.14c-.05,5.6-4.94,9.61-14.37,11.72s-14.35.34-14.38-5.23c0-2.23.88-5.3,2.61-9.18a44.25,44.25,0,0,0,3-8.36,76.07,76.07,0,0,0,1.27-14.84,57.08,57.08,0,0,0-1.11-11.9c-.42-1.59-1.22-2.32-2.29-2.1-1.86.36-4.34,2.74-7.34,7l-.16.21q-2.06,3.45-3.64,4.25a4,4,0,0,1-1.1.43c-2.11.48-3.34-1-3.71-4.6-.05-.58-.08-1.16-.08-1.75a22.66,22.66,0,0,1,3.32-11.82q2.13-3.45,4.26-4,19-4.12,38-8.07,2.92-.58,5.45,3.78a16.66,16.66,0,0,1,2.22,8.49c0,3.79-.93,6.28-2.77,7.47a4.19,4.19,0,0,1-1.1.4q-2.22.47-4.27-2l-.47-.59a13.21,13.21,0,0,0-4.66-3.42,4.94,4.94,0,0,0-2.92-.5C321.41,241.05,320.39,244.79,320.39,251.46Zm9.39-22.58c-.87.21-1.39.71-1.42,1.32,0,.78.58,1.35,1.74,1.62a2.69,2.69,0,0,0,1.34.07c.88-.21,1.4-.71,1.42-1.32,0-.77-.58-1.34-1.73-1.62A2.73,2.73,0,0,0,329.78,228.88Z" transform="translate(0 -80.54)"/><path class="cls-1" d="M347.16,238a24.45,24.45,0,0,0-2.92-6.11,7.85,7.85,0,0,1-1.27-3.51c0-2.11,2.26-4,6.79-5.75a32.42,32.42,0,0,1,5.61-1.55c5.69-1,8.53-1.55,14.21-2.5,9.8-1.65,16.3.89,19.51,6.68a13.9,13.9,0,0,1,1.82,7.05,11.69,11.69,0,0,1-4,9.17c-1.16,1-1.84,2-1.82,2.7a2.43,2.43,0,0,0,1.58,1.87,14.05,14.05,0,0,1,8.77,11.21,18.6,18.6,0,0,1,.23,2.9,21.2,21.2,0,0,1-6.63,15.39c-4.6,4.48-11.08,7.22-19.35,8.65-5.81,1-8.72,1.53-14.53,2.64-9.53,1.76-14.35-.14-14.37-5.81,0-2.25.87-5.31,2.61-9.16a44.21,44.21,0,0,0,3-8.24,81.52,81.52,0,0,0,1.65-15.9A46.91,46.91,0,0,0,347.16,238Zm28.58-1.75a4.91,4.91,0,0,0-2.84-4.66,5,5,0,0,0-3.32-.55c-3.21.55-5.29,2.09-6.23,4.6a5.87,5.87,0,0,0-.32,1.86q0,3.34,3.87,4.12a9.86,9.86,0,0,0,3.16,0c2.73-.48,4.53-1.69,5.37-3.66A4.67,4.67,0,0,0,375.74,236.24Zm-6.08,29.35q5.29-.9,6.72-5.69a8.67,8.67,0,0,0,.39-2.51c0-2.86-1-4.94-3.08-6.22a5.76,5.76,0,0,0-4-.71c-2.73.48-4.66,2.3-5.76,5.46a10.66,10.66,0,0,0-.63,3.6q0,4.73,3.39,5.88A5.86,5.86,0,0,0,369.66,265.59Zm7.58-44.66a1.46,1.46,0,0,0-1.34,1.32c0,.76.58,1.31,1.74,1.58A3.25,3.25,0,0,0,379,224c.82-.12,1.32-.56,1.34-1.16,0-.75-.58-1.37-1.73-1.76A2.71,2.71,0,0,0,377.24,220.93Z" transform="translate(0 -80.54)"/><path class="cls-1" d="M445.16,247.66a26.71,26.71,0,0,0,7.19,11.47,33.15,33.15,0,0,1,3.71,3.85,11.4,11.4,0,0,1,1.66,6.39c0,4.93-2,7.9-5.85,8.95a33.48,33.48,0,0,1-8,.67c-6.74,0-11-1.15-12.8-3.66a9.48,9.48,0,0,1-1.34-5.3c0-.69,0-2,.08-3.84.09-2.41.16-4.17.16-5.22,0-4.1-.82-6.12-2.45-6.76a4.66,4.66,0,0,0-2.05-.31c-3.66.23-5.53,3.54-5.53,10.69,0,.44,0,1.14,0,2s.08,1.6.08,2q0,8-5.45,10.39a22.32,22.32,0,0,1-6.79,1.44c-5.53.44-8.9-.78-10.11-3.76a10.8,10.8,0,0,1-.71-4.12,7.54,7.54,0,0,1,2.37-6c.26-.21.71-.53,1.34-1a20.1,20.1,0,0,0,5.53-6.19c.36-.67.68-1.29.94-1.89a149.08,149.08,0,0,0,7.51-20c1.38-4.59,2.05-7.88,2.05-9.85a12.29,12.29,0,0,0-1.82-5.81,7.3,7.3,0,0,1-1.18-3.37c0-1.85,2.74-3.28,8.21-4.16a38.05,38.05,0,0,1,5.13-.46c5.53-.13,9.64.72,12.32,2.43a3.87,3.87,0,0,1,1.82,2.17,7.79,7.79,0,0,1,.08,1.13C441.49,229,442.21,238.59,445.16,247.66ZM423.44,243c.05,1.77.86,2.79,2.06,2.71,1.49-.09,2.39-1.42,2.36-3.65-.05-5-.86-7.76-2-7.82-.86,0-1.66,1.54-2.13,4.53A23.26,23.26,0,0,0,423.44,243Zm10.19-26.25c-1.19,0-1.87.48-1.9,1.16s.61,1.19,1.82,1.5a3.29,3.29,0,0,0,1,.15c1.13,0,1.79-.47,1.81-1.14s-.6-1.29-1.81-1.6A5.13,5.13,0,0,0,433.63,216.71Z" transform="translate(0 -80.54)"/><path class="cls-1" d="M466.64,253a65.66,65.66,0,0,0,1.82-15.7,38.06,38.06,0,0,0-.79-8.1,25.34,25.34,0,0,0-2.93-6.44,7.93,7.93,0,0,1-1.26-3.35c0-2.19,2.34-3.56,7-4a31.2,31.2,0,0,1,5.37,0c5.53.48,9.32,1.83,11.37,3.89a4,4,0,0,1,1,2.29c0,.72-.67,2.13-2,4.17a17.65,17.65,0,0,0-2.37,5,39.82,39.82,0,0,0-.63,8.47c0,7.22.56,12.17,1.74,14.64a6.41,6.41,0,0,0,4.9,3.9,9.37,9.37,0,0,0,8.37-2.87,10,10,0,0,0,1-1.13c1.74-1.77,3.21-2.76,4.43-3a5.16,5.16,0,0,1,1.65.07c4.06.77,6.37,3.72,6.95,8.74a17.57,17.57,0,0,1,.16,2.42,31.25,31.25,0,0,1-3.87,15c-2.34,4.16-4.89,6.07-7.58,5.66-8.46-1.5-17.1-2.62-25.66-3.34-9.59-.92-14.43-4.12-14.46-10.11,0-2.39.86-5.45,2.61-9.06A40.63,40.63,0,0,0,466.64,253Z" transform="translate(0 -80.54)"/><path class="cls-1" d="M521.05,261.45a63.72,63.72,0,0,0,1.82-15.68,42.06,42.06,0,0,0-.79-8.44,31.11,31.11,0,0,0-2.93-7.08,9.53,9.53,0,0,1-1.26-3.64c0-2.24,2.34-3.29,7-3a31.87,31.87,0,0,1,5.37.88c5.53,1.38,9.32,3.41,11.37,5.92a5.14,5.14,0,0,1,1,2.58c0,.76-.67,2.14-2,4a15.53,15.53,0,0,0-2.37,4.84,41.55,41.55,0,0,0-.63,8.72c0,7.51.56,12.74,1.74,15.56a8.71,8.71,0,0,0,4.9,5.09,7.94,7.94,0,0,0,8.37-1.22,6.44,6.44,0,0,0,1-1c1.74-1.5,3.21-2.23,4.43-2.2a5.42,5.42,0,0,1,1.65.42c4.06,1.68,6.37,5.34,6.95,10.84a21,21,0,0,1,.16,2.63,22.82,22.82,0,0,1-3.87,13.45c-2.34,3.35-4.89,4.58-7.58,3.6-8.48-3.11-16.94-6.13-25.66-8.52-9.59-2.75-14.43-6.73-14.46-12.67a18.27,18.27,0,0,1,2.61-8.46A32.07,32.07,0,0,0,521.05,261.45Z" transform="translate(0 -80.54)"/><path d="M63.08,433.36a128.57,128.57,0,0,0,4.8-35.75,81.14,81.14,0,0,0-2.08-19c-.85-3.48-3.42-8.75-7.73-16-2.23-3.81-3.56-6.92-3.34-8.44,1.37-9.29,25.8-5.48,32.78-4.89a532.18,532.18,0,0,0,72.87.88c5.15-.31,10,3.12,14.41,10.29A36.92,36.92,0,0,1,180.43,380c0,8.8-2.51,14-7.52,15.52a8.57,8.57,0,0,1-2.51.48q-5.62.21-11.27-5.77-6.67-7.06-10.23-9.07c-4.74-2.76-10.44-4.1-17.12-4.12-8.77,0-15.8,2.73-21.09,8.42-2.65,2.84-4,5.59-4,8.28,0,3.79,2.43,6.11,7.31,6.88a16.33,16.33,0,0,0,2.5.27c3.2.1,7.17-1.31,11.91-4.3,2.5-1.55,4.38-2.34,5.63-2.34q5.22,0,7.52,8.62a31.42,31.42,0,0,1,.83,7.28c0,7.5-1.81,12.45-5.42,14.93a5.54,5.54,0,0,1-2.93.87c-1.25,0-3.71-1.35-7.31-3.68a20.1,20.1,0,0,0-10.23-3.64c-5.36-.1-8.28,1.89-8.35,5.65-.07,4.22,2.44,8.74,7.31,13.23,3.34,2.68,6.41,4.08,9.19,4.25,7.5.47,17-3.32,22.13-8.81a26.28,26.28,0,0,0,2.71-2.85c4.6-4.53,8.49-7.34,11.7-8.35a20.38,20.38,0,0,1,4.38-.62c9.58-.41,17.43,5.9,18.38,15.65a32.44,32.44,0,0,1,.41,5.18c0,10.87-3.7,22.17-10.23,30.1-4.81,5.85-11.17,12.72-20,12.69q-33.93,0-67.86-.07c-12.09,0-38-.8-38.21-18,0-4.68,2.28-10.77,6.89-17.72C59.19,442.5,62,437.34,63.08,433.36Zm91.46-78.61c-2.18.17-3.49,1.12-3.55,2.46-.09,1.7,1.53,3.2,4.59,4.21a8.64,8.64,0,0,0,3.55.6c2.17-.17,3.48-1.14,3.55-2.5.08-1.7-1.53-3.18-4.6-4.18A9,9,0,0,0,154.54,354.75Z" transform="translate(0 -80.54)"/><path d="M209,435.84a139.53,139.53,0,0,0,4.59-33.55,97.57,97.57,0,0,0-3.13-24.69c-.83-3.12-3.41-7.78-7.72-14-2.23-3.44-3.57-6.44-3.34-8.14.93-7.05,10.75-11.31,17.95-13.63a102,102,0,0,1,14.83-4.13q18.81-3.89,37.58-8c16.92-3.86,39.89-5.66,51.16,10.64a30.68,30.68,0,0,1,5.22,17.15c.2,11.72-6.17,22.87-15,30.31a23.88,23.88,0,0,0-3.34,3.33c-.12.55,1.95,3.19,5.85,7.55a103.48,103.48,0,0,1,17.95,31c1.39,3.77,4.83,7.64,10.24,11.41,5.18,3.62,8.79,7.08,10.23,10.25,1.28,2.82,1.75,6.47,1.88,10.28.39,11.9-8,21.24-19.42,23.65a81,81,0,0,1-15.66,1.15c-10.8-.19-25.61-.05-34-8.58-2.36-3-3.48-7-3.55-11.78-.22-16.68-.56-35.66-7.72-51.39-2.65-5.27-5.71-7.75-9-7.35-3.83.48-7,3.45-9.4,8.58a21.6,21.6,0,0,0-1.87,8.82,43.77,43.77,0,0,0,1.25,11c1.51,5.8,3.68,12.75,6.26,20.82,2.54,7.91,3.86,13.61,3.76,16.45-.47,13.49-23.28,13.44-32.36,13.42-10.74,0-37.58-.34-38-16.67-.11-4.29,2.35-10.08,6.89-17.33C205.29,445.68,207.91,440,209,435.84Zm77-63.73c0-5.16-2.51-8.88-7.52-11.08a14.17,14.17,0,0,0-8.77-1c-8.49,1.68-14,5.55-16.49,11.56a13.35,13.35,0,0,0-.84,4.41c0,5.26,3.41,8.42,10.23,9.56a28.87,28.87,0,0,0,8.35-.21q10.86-1.86,14.2-9.14A10.74,10.74,0,0,0,286.08,372.11Zm4-37.89c-2.18.53-3.48,1.84-3.55,3.48-.07,1.88,1.53,3.16,4.6,3.64a7.8,7.8,0,0,0,3.55.1c2.17-.53,3.48-1.77,3.55-3.28.08-1.88-1.54-3.26-4.6-3.87A7.64,7.64,0,0,0,290,334.22Z" transform="translate(0 -80.54)"/><path d="M485.69,403.36c3.59,12.2,9.43,24.69,19,33.42,5.7,5.33,9,8.6,9.81,9.88,2.92,4.17,4.19,9.58,4.38,15.68.32,10.09-5.51,19.3-15.45,22.15-4.73,1.25-11.95,2.08-21.08,1.89-11.1-.22-26-.39-33.83-10.15-2.37-3.63-3.55-8.33-3.55-14.07,0-1.8,0-5.2.21-10.05.23-6.32.42-10.9.42-13.66,0-10.69-2.16-17.08-6.48-19.23a12.18,12.18,0,0,0-5.42-1.28c-13.29-.09-14.81,19-14.62,28.35,0,1.12-.07,3,0,5.39s.18,4.29.21,5.41c.27,10.59-3.87,22.44-14.41,26.79-4.59,1.67-10.75,2.34-17.95,2.5-9.68.23-22.33-2.44-26.73-12.33a29.81,29.81,0,0,1-1.88-11c0-6.84,2.09-11.91,6.27-15.34.69-.52,1.87-1.31,3.54-2.36a46.66,46.66,0,0,0,14.62-15.62c1-1.78,1.81-3.47,2.5-5.09,8.14-17.76,14.35-36.44,19.84-55,2.6-8.79,5.29-18.3,5.43-27.45.07-4.67-1.6-10.18-4.8-16.21-2.09-3.81-3.47-7.33-3.13-9.29,1.34-7.73,13.52-9.75,21.71-11.59A73.05,73.05,0,0,1,437.87,304c11.23.28,22.89,1.39,32.57,8.44,2.65,2,4.25,4.23,4.81,6.58a21.63,21.63,0,0,1,.21,3.23C475.63,349.35,477.94,377.07,485.69,403.36Zm-57.42-17.27c.13,5.08,2.28,8.13,5.43,8.12,3.93,0,6.42-3.82,6.26-10.14-.18-7.32-.55-20.79-5.22-22.68-1.47-.6-4.38,4.17-5.64,12.65A70.12,70.12,0,0,0,428.27,386.09Zm26.93-73.61c-3.12,0-4.94,1.13-5,3s1.6,3.48,4.8,4.52a8.61,8.61,0,0,0,2.72.57c3,.06,4.73-1.06,4.8-3s-1.6-3.77-4.8-4.83A12.9,12.9,0,0,0,455.2,312.48Z" transform="translate(0 -80.54)"/></svg>