<svg id="katman_1" data-name="katman 1" xmlns="http://www.w3.org/2000/svg" viewBox="0 0 470.07 566.93"><path d="M380,514.36a11.9,11.9,0,0,0-.68-1.22l-1-1.67c-.52-.8-1-1.56-1.28-2a51.2,51.2,0,0,0-4.45-3.94l-.62-.23a27.93,27.93,0,0,1-7.25-3.36,27,27,0,0,1-2.16-1.82,216,216,0,0,1-69.52,15l1.8,2.21a93.71,93.71,0,0,1,5.88,7.71,59.75,59.75,0,0,1,4,8.75l.18.53c.11.31.19.59.29.88a232.57,232.57,0,0,0,75.33-19.9ZM358.7,78.49c.13.34.26.6.34.84.28.73.78,2.24,1.22,3.59.26.78.47,1.51.6,1.85.24.63,2.21,7,2.27,10.42s-1.44,8.08-1.9,9.4a91.13,91.13,0,0,1-4.8,9.33c-.31.47-.73,1-1.53,2.08a124.11,124.11,0,0,1,21.88.6c5.62.58,11.22,1.49,16.85,2,3.07.29,5.26,2.17,7.61,3.73a213.5,213.5,0,0,1,89,123.13c.08.29.11.57.24,1.38-2.14-3.15-4-5.89-5.84-8.59C475,224.13,463.21,212,450,201.23c-19-15.49-40.17-27.37-62.88-36.59a291.92,291.92,0,0,0-59.21-16.88c-1.54,1.17-2.84,2.13-2.87,2.16l-.83.6c-1.93,1.33-3.15,2.21-3.62,2.6s-1.15,1.25-1.51,1.72c-1.25,2-4.35,6.1-4.79,6.64a61.81,61.81,0,0,1-6.44,5.55c-1.82,1.25-6.59,4.61-7.53,5.47s-2.13,2.19-2.81,2.92c-.65,1.56-2.16,5.31-2.4,6a22.62,22.62,0,0,1-1,2.24,5.36,5.36,0,0,0-.34.62v.11a158.69,158.69,0,0,0,15.06,43.21,200.59,200.59,0,0,0,25,37.28c6.05,7.21,12.56,14.09,18.37,21.49q11.71,14.93,22.68,30.45A359,359,0,0,1,399.23,357c8.52,16.28,15.76,33,20.63,50.79a172,172,0,0,1,6.38,47.13,12.07,12.07,0,0,1-5,10.26q-5.7,4.65-11.62,9c.52.7.94,1.28,1.18,1.56l.23.24c8.88,8.83,9.43,9.45,9.69,9.74.7.75,1.9,2.32,2.81,3.46l.34.45a235.26,235.26,0,0,0,94.64-188.2C518.51,198,451.56,109.93,358.7,78.49ZM480.24,385.84a208.9,208.9,0,0,1-31.15,51c-3,3.65-6.2,7.19-9.28,10.79l-.57-.24c.1-1.72.26-3.44.34-5.13a166.27,166.27,0,0,0-4.82-46.44c-4.84-20.19-12.5-39.31-21.88-57.78A388.32,388.32,0,0,0,381.8,287.4c-10-13.93-21.1-27-32.27-39.93A163.78,163.78,0,0,1,323.61,206a138.77,138.77,0,0,1-10.42-36.13c-.13-.88-.18-1.79-.26-2.68,0-.37,0-.73,0-1.41,3.26.47,6.36.86,9.46,1.38A315.59,315.59,0,0,1,366.93,178c24.88,8.13,48.27,19.23,69.63,34.44a191.87,191.87,0,0,1,34,30.71,145.47,145.47,0,0,1,26.34,44.28,7.08,7.08,0,0,1,.36,1.75,212.22,212.22,0,0,1-2.08,44.26A209.08,209.08,0,0,1,480.24,385.84ZM327,85.19a5.92,5.92,0,0,1-1,.15,16.48,16.48,0,0,1-7.61-2,9.91,9.91,0,0,0-1.36-.26,11,11,0,0,1-3-.76,13.59,13.59,0,0,1-2.77-1.72l-.23-.18a22,22,0,0,1-4.3-3.23c-.7-.1-1.46-.23-2.26-.39a15.16,15.16,0,0,1-1.57-.36l-.52,1.87a7,7,0,0,1,1.3,1.51l2,3.15-1.49,3.57a9,9,0,0,1-.8,1.41,206.67,206.67,0,0,1,23.1,3.46,10.75,10.75,0,0,1-.13-1.66A20.31,20.31,0,0,1,327,85.19Zm-68.41,338.4c-1.32-8-2.55-16-3.64-24.07h0a8.26,8.26,0,0,1-6-4.56c-.18-.42-.65-1.57-1.1-2.79-.2-.52-.39-1.07-.57-1.48a29.46,29.46,0,0,1-.44,5,8.2,8.2,0,0,1-5.92,6.59,12.78,12.78,0,0,1-2,.44c.05.55.1,1,.16,1.33s.23,1.54.41,2.76c.65,4.22.78,5.21.81,5.86.05.4.16,1.18.26,2.11.47,4,.68,5.79.68,6.91,0,.49,0,1.2,0,1.9,0,.34,0,.7,0,1,.75,1.13,1.85,2.66,2.21,3.13a49,49,0,0,1,3.86,6.2c.83,1.56,2.68,7.14,2.76,7.37a30.06,30.06,0,0,1,1.09,7.17v1c0,1,0,2.55,0,3.43.34,1.1,1.25,3.55,1.67,4.46.29.47.73,1.17,1.2,1.9s1.07,1.74,1.33,2.11c0,0,1.72,2.55,2.55,4.09.44.62,1.33,1.69,1.59,2a9,9,0,0,1,.94,1.39,26.16,26.16,0,0,1,7.45-.19C263.86,453.8,261.09,438.72,258.59,423.59Zm-6,110.49a6.1,6.1,0,0,1-.52-1c-.21-.41-.6-1.14-.91-1.69-1.12-.57-2.55-1.28-3.13-1.54a11.81,11.81,0,0,1-4.89-4.32,14.8,14.8,0,0,1-1.8-5.18c-.21-.86-.39-1.75-.6-2.3-.29-.75-.7-1.72-1.1-2.65l-.86-2.09a20.65,20.65,0,0,1-.88-3,198.45,198.45,0,0,1-22.77-6.3,214.28,214.28,0,0,1-46.75-22.4,204,204,0,0,1-35.59-28.53,251.59,251.59,0,0,1-17.58-20c-1.54-1.92-1.56-5.23-1.9-7.94a267,267,0,0,1-1.38-52.65,212.38,212.38,0,0,1,11.85-53.71,217.6,217.6,0,0,1,22.77-46.08,338.71,338.71,0,0,0,17.37-30.29c0-.16,0-.32-.08-.5l-.1-.83a108.78,108.78,0,0,1-.29-10.89s.05-3.88,0-5.18a32.85,32.85,0,0,1,.21-5.06c0-.78.1-1.48.1-1.77,0-.05.29-5.52.68-7.08,0-.32.36-2.35.42-3,.05-.42.05-1.1.05-1.72s0-1.07,0-1.43l0-.5c.07-1.59.18-3.41.36-4.87l.21-1.51c.21-1.51.42-3.18.55-4l.13-.83a36.09,36.09,0,0,1,1.48-7.3l.42-1.09c.31-.84.54-1.46.67-2s.37-1.75.63-3.07c-2,5.6-3.91,11.22-6.07,16.77-7.94,20.19-18.16,39.23-29.33,57.78-6.56,10.91-13.75,21.43-19,33.1a225.5,225.5,0,0,0-15.36,46.4,199.26,199.26,0,0,0-3.21,64.34c.31,2.57.73,5.15,1.1,7.73l-.6.24c-1.54-2.87-3.15-5.68-4.61-8.6a208.16,208.16,0,0,1-19.7-59.16,212.34,212.34,0,0,1-2.18-58.34A230.6,230.6,0,0,1,80.08,234a13.14,13.14,0,0,1,4.09-6c13.55-12,27.82-23,43.71-31.6,8.94-4.82,18.34-8.8,27.61-12.95,4.43-2,9.09-3.43,13.68-5.15l.49.44c.29-1.43.55-2.79.66-3.31a46.65,46.65,0,0,1,1.25-4.66c.13-.5.75-3.65.86-4.35s.59-3.78.72-4.51v-.23c.16-2,.4-4.9,3.13-7,.08-.05.16-.13.26-.21.13-.36.26-.75.39-1.09.18-.52.39-1.41.6-2.16s.39-1.49.52-1.9.39-1.28.73-2.43c1.12-3.9,1.56-5.34,1.82-6l.32-.83c.36-.89.83-2.14,1.07-2.82a33.64,33.64,0,0,0,.41-4.06v-5.73c0-.31-.08-.83-.15-1.46-.21-2-.39-3.67-.47-4.87A43,43,0,0,0,177,115.4c1.43-.83,2.89-1.64,4.35-2.42l-.1-1.14c0-.6-.45-3-.6-3.89a15.47,15.47,0,0,1-.34-2.18l0-.73c-.16-1.46-.37-3.94-.42-5.19,0-.62-.31-2.73-.44-3.62a22.31,22.31,0,0,1-.26-2.42c-.06-.47-.19-1.74-.32-3-77.2,38.58-130.42,118.47-130.4,210.39.06,119.07,89.12,217.85,204.15,233C252.55,534.11,252.55,534.11,252.55,534.08ZM108,178.42a202.06,202.06,0,0,1,30.64-35,229,229,0,0,1,26.85-21c1.46-1,2.09-.44,2.95.6,5.21,6.3,6.59,13.78,6.61,21.62,0,3.83-.6,7.66-.86,11.49a2.94,2.94,0,0,1-2.39,2.79,239,239,0,0,0-35.69,15.26,212.91,212.91,0,0,0-42,28.58,7.41,7.41,0,0,1-.71.49c-.21-.18-.41-.36-.65-.55C97.87,194.59,102.67,186.31,108,178.42Z" transform="translate(-48.43 0)"/><path d="M423.74,504a64.88,64.88,0,0,0-5.16-9.95c-.75-1-2.24-2.94-3-3.77s-9.19-9.25-9.82-9.88-5.34-7.08-5.88-7.89-5.81-8.88-6.41-9.77-3.88-3.78-5.71-5.81-7.34-2.58-13.1-2-6.15.86-7,.6a3,3,0,0,1-1.49-1.05c-.46-.46-1.06-1.32-1.82-2.13s-5.39-5.63-5.76-6.3-1.48-2.38-2.39-3.6-4.61-7-5.06-7.81-1.4-2.37-2.08-3.39-4.79-6.7-5.34-7.45a59.89,59.89,0,0,0-3.85-5A46,46,0,0,0,332,413a39,39,0,0,0-8.1-3.17c-2.79-.79-8-2.09-9.46-2.51a36.19,36.19,0,0,1-4.56-1.87,8.78,8.78,0,0,1-3.25-3.54c-.73-1.33-1.83-2.84-2.61-4.12a55.78,55.78,0,0,1-2.4-6.35c-.18-.53-.6-3.6-.93-5s-1.7-4.27-2-5.08a25.21,25.21,0,0,1-.86-4.19,21.44,21.44,0,0,0-1-4.3c-.16-.47-.83-3.33-1.17-4.4s-.78-4.35-1.15-5.42-1.15-4-1.33-4.87-.41-3.18-.62-4.71a14.38,14.38,0,0,0-1.28-4.43c-.42-.52-.94-1.36-1.61-2.27s-2.3-2-2.92-3.05-3-8.67-3.36-10-1.85-6.28-2-7-2.06-4.27-2.61-5.55a22.78,22.78,0,0,0-2.13-3.43,8.21,8.21,0,0,1-1.15-2.56,9.77,9.77,0,0,1,.1-3.12c.24-.94,2.79-3.73,3.08-4.4a11,11,0,0,0,.54-3.86,41.75,41.75,0,0,0-1-4.92c-.16-.55-1.69-5-2.11-6.31s-2.89-7.79-3.23-8.93-2.16-4.4-2.53-5.34-1.32-3.78-1.95-5.26-6.49-6.65-6.49-6.65a9.52,9.52,0,0,0,1.23-.31,29.11,29.11,0,0,0,3-1.59,26.79,26.79,0,0,0,4.45-5.39c.63-1.15,4.09-7.5,4.67-9.19s2.05-7.12,2.39-8.91,1.67-11,1.69-12.35.13-7.42.13-9.2a94.26,94.26,0,0,1,1.62-10.18c.21-.7,1.9-8.47,2.08-9.22s2.06-7.69,2.3-8.18a50.26,50.26,0,0,0,1.43-6.51,6.15,6.15,0,0,1-.18-2.16c.1-.86,1.59-3.42,1.85-4.2s2.78-7,3.07-7.42,2.45-2.71,3.85-4.12,8.31-6.09,8.5-6.22,4.29-3.44,5-4.28,4.06-5.52,4.27-6a28.32,28.32,0,0,1,2.4-2.79,64.31,64.31,0,0,1,5.26-3.91c.49-.36,6.77-5.15,6.95-5.39s2.43-2.89,3.6-4.5,5.31-7.9,6-9,5.68-6.23,6.56-7.3,5.89-6.9,6.49-7.89,3.62-6.51,4.17-8a25.32,25.32,0,0,0,1.51-7,43.77,43.77,0,0,0-1.83-8.13c-.36-.94-1.35-4.2-1.79-5.34s-3.13-6.36-3.55-7.43a40.4,40.4,0,0,1-.91-5.73,8.72,8.72,0,0,1,.24-3.9c.28-.65,1.53-2.32,2.16-3.34s.78-3.62.91-4.53.34-1.59.52-2.71.34-5.1.47-5.76,1.12-2.86,1.38-4.24a64.72,64.72,0,0,0,0-7.24,17.37,17.37,0,0,0-1.46-4.87c-.62-1.31-1.53-1.62-2-1.44s-.57.63-.73,0a69.18,69.18,0,0,0-1.53-6.77c-.81-2.63-5.47-10.31-8.18-13a55.61,55.61,0,0,0-11.13-8.15C325.46,1,319.89.11,316,0s-11.25,1.17-12.71,2-6.49,1.4-7.71,1.25A41.6,41.6,0,0,0,290,2.8c-1.1.1-3.52,1.48-4.07,1.72a24.62,24.62,0,0,0-3,1.9A14.25,14.25,0,0,0,281.05,9c-.21.28-2.45,2.29-3.52,3.17s-5.68,3.63-5.94,3.89-1.27,1.71-2,2.68a55,55,0,0,1-5,5.26c-.6.34-4.53.6-5.81.6s-7.84-.34-7.84-.34-2,.26-3.15.26-4.46-.18-6.41-.31-9.95-.34-11-.34a11.09,11.09,0,0,1-3.91-1.15c-.68-.36-4.35-.13-6.23-.2a23.23,23.23,0,0,0-5,.65,18.54,18.54,0,0,1-2.4.67,28.76,28.76,0,0,1-2.89-.23c-.93-.1-4.14,0-4.45,0s-3.31.31-3.88.44a36.47,36.47,0,0,0-4.25,1.36,34.8,34.8,0,0,0-4.5,2.19,27,27,0,0,0-4.3,5.47,55.73,55.73,0,0,0-2.69,6.09c-.26,1-.26,4.59-.39,6.88s.39,4.74.24,5.7-.34,4-.57,5.55-.68,7.5-.68,7.5,0,4,0,6.46,0,7.32,0,7.92.91,6.15,1,7.32.67,6.62.67,7.09.68,4.48.73,6.09.45,5.5.45,5.73.86,4.69.93,6,.53,7.17.53,8.65.62,6.7.62,7.16v6a33.76,33.76,0,0,1-.75,6.25c-.34,1-1.15,3.05-1.49,3.93s-2.11,7.17-2.42,8.08-.84,3.36-1.28,4.45-.75,2.48-1,2.77a22.26,22.26,0,0,1-2,1.61c-.34.26-.34,2.24-.47,2.92s-.6,3.57-.68,4.19-.91,4.82-1.14,5.6a32.85,32.85,0,0,0-1,3.73c-.21,1.14-1.28,6.48-1.59,7.79a27.45,27.45,0,0,1-1.35,3.93A52.25,52.25,0,0,0,173,195.3c-.19,1-.52,3.67-.73,5.26s-.29,4.06-.34,4.82,0,2.55-.13,3.43-.47,3.47-.6,4-.42,4.77-.47,5.7-.42,5.53-.34,5.76,0,6,0,6-.08,7.76.24,9.85.83,6,1,6.51a33.72,33.72,0,0,1,1.17,6v6c0,.26.66,1.95,1,3.15s1.41,3.21,2,5.16a8.37,8.37,0,0,1,.28,3.52c0,.41.05,3.15.08,4.58a29.66,29.66,0,0,0,.78,4.06c0,.21-.1,2.32-.1,3.05a43.15,43.15,0,0,1-.84,4.95c-.33,1.62-.93,4.77-1.06,5.26a24.1,24.1,0,0,0-.5,5.39c.08,2.19-.13,4.95,0,6.7a9.44,9.44,0,0,0,.76,2.73c0,.6-.08,3.1,0,4.33s0,4.79,0,5.18,1.14,3.65,1.14,4.61a9.29,9.29,0,0,1-.6,2.63c-.26.94.13,1.85.68,3.13a19.64,19.64,0,0,1,1.2,3.93c.1.91.42,2.84.42,3.49s.41,4.12.83,6.78.68,5.39.86,6.48.73,4.95.73,6,.57,3.72.68,4.74a16.31,16.31,0,0,1-.34,3.05c-.19,1.27.67,2,1,2.81a12.9,12.9,0,0,1,0,4.27,21.17,21.17,0,0,1-1.62,4.45c-.36.89,0,3.68,0,4.36s.45,3.95.68,5.1,1.46,4.64,1.46,5.76a25.25,25.25,0,0,0,1.28,4.89c.23.79.7,3.7,1,4.72a14.82,14.82,0,0,0,2.45,3.67,23.35,23.35,0,0,0,3.36,1.25s2,3.31,2.53,4.33,1.95,4,2.94,5.54,4,6.18,4.22,6.78a45.25,45.25,0,0,1,1.54,5.21c.26,1.35.75,4.92.88,5.34a34.76,34.76,0,0,0,1.28,3.38,26.16,26.16,0,0,0,2.37,3.23c.68.89.7,1.93,1.17,3.08s1.49,7,2,8.49a68.67,68.67,0,0,0,3.2,6.51c.34.55,4.09,7.84,4.66,8.78a46,46,0,0,0,3.62,5.08c1.05,1.09,3.6,4,4.77,5.5s4.19,5.6,4.53,6.12,1.8,2.78,2.5,3.8,2.09,3.23,3.18,4.61,4.92,6.41,5.52,7.42.63,2.87.84,3.81.94,4,1.61,5.86.86,3.72,1.41,5.08,1.38,3.33,2,4.82,1.28,5.52,1.74,6.22a5,5,0,0,0,2.09,1.83c.88.44,3.54,1.74,4.56,2.29s2.5,3.85,3.17,5.08,2,6.28,2.64,7.84.67,3.25,1.43,4.74,2.89,6.67,3.77,8.1a30.8,30.8,0,0,0,4.46,4.79c.88.76,3.59,5,4.74,6a25.83,25.83,0,0,0,7.66,4.06,34.11,34.11,0,0,0,9.25.21c2.37-.28,5.6-2.5,6.74-3.67s1-2,1.51-4.46a33.69,33.69,0,0,0,.6-9.71c-.34-3.21-3.18-12-3.51-13.08a57.3,57.3,0,0,0-3.26-7.21c-1-1.62-7.14-9.07-8.1-10.42a46.32,46.32,0,0,1-3.86-7.19,37.93,37.93,0,0,1-1.06-5.68c-.08-1.33-.63-9.79-.71-10.73a55.08,55.08,0,0,0-2-7.84,40.34,40.34,0,0,0-4.66-7,46.85,46.85,0,0,0-6.83-4.06c-1.4-.6-5.75,0-6.87.13s-3.73,1-3.89.89-2.29-4.28-2.7-4.8a26.65,26.65,0,0,1-2.3-3c-.21-.47-1.69-2.79-2.24-3.6s-2.34-3.72-2.81-4.4a43.92,43.92,0,0,1-2.58-6.95c-.08-.86-.05-4.38-.05-5.47a24.61,24.61,0,0,0-.7-4.95c-.34-1-1.91-5.55-2.35-6.36a51.52,51.52,0,0,0-2.94-4.92,50.56,50.56,0,0,1-3.83-5.55,39.19,39.19,0,0,1,0-5c0-1.41-.94-8.18-.94-8.68s-1-6.8-1.17-8.05-.76-7.81-.42-8.25,2.66-.55,4.07-.65a16.13,16.13,0,0,0,3.2-.45c.91-.26.94-1.12,1-1.51a28.94,28.94,0,0,0,.29-4,54.07,54.07,0,0,0-1-6.25c-.21-.89-.88-6.57-.91-7.48s-.23-3.2-.23-3.91a22.68,22.68,0,0,0-1-4.79c-.39-.7-2.58-3.73-2.61-4.09a3.5,3.5,0,0,1,0-1.8,12.27,12.27,0,0,0,.21-2.6c.08-.58.36-1.85.52-2.48a8.8,8.8,0,0,1,.89-2.58c.39-.36.6,1.46.7,1.75a15,15,0,0,0,.73,1.9c.23.47,3.46,4.64,3.65,4.82a23.67,23.67,0,0,1,1.85,2.58c.13.34,1.87,4.92,1.9,5s.88,3,1.14,3.6a35.85,35.85,0,0,0,1.75,3.62c.34.39,2.76,5.36,3.67,6.22s1.36,3.05,1.64,3.47,1.59,4.19,2,4.92.83.63,1.74.91a3.43,3.43,0,0,0,2.32-.49c.42-.21,2.08-1.69,2.34-1.82s.26.72.55,1.3,2.55,7.55,3.39,9.22,2.89,6.72,3.44,7.58,4.5,7.27,4.74,7.53,2.55,4,3.49,5.18a39.29,39.29,0,0,0,4.69,5.24c1.53,1.19,4.87,2.94,6.46,4.42a37.27,37.27,0,0,0,3.62,2.87c.18.13,5.47,1.35,8.15,2a48.67,48.67,0,0,1,8.73,2.9c1.22.7,4.06,2.91,5.28,3.72s7.32,5.44,8.34,6,5.31,3.8,6.67,4.61,4.69,2.71,6.22,3.67,4.25,2.81,5.71,3.86,3.77,4,5,5.1,4.27,4.2,5.21,4.95,2.21,2.11,3.57,3.2,1.09,2.61,1.48,3.08,2.79,2,3.26,3.18,2,6.9,2.76,8.28a16,16,0,0,0,1.93,3.44,35.42,35.42,0,0,0,4.45,4.5c1.75,1.25,5.08,2.24,6.67,2.82s6.59,5.44,7,5.94,1.7,2.63,2.76,4.27,1.31,2.81,2,3.41a38.74,38.74,0,0,1,3.6,3.88c.78,1,1.14,3.44,2.29,5.13a45.94,45.94,0,0,0,5.42,6.44c1.35,1.14,5,5,6.88,6s4.61,2.83,7.37,2.83,6.56-3.17,8.2-4.68,3.52-7.17,3.83-8.73.68-7.5.68-9.33A34.07,34.07,0,0,0,423.74,504ZM260.57,50.67a17.85,17.85,0,0,0,.45-2.73,14.8,14.8,0,0,0-.68-1.38c-.13-.31.05-2.09-.18-2.37s-1.18-1.25-1.59-.34a21.64,21.64,0,0,1-1.8,3.31,9.23,9.23,0,0,1-3.23,1.38,4,4,0,0,1-2.29-.86c-.26-.39-1.33-2.74-1.88-2.24a2.84,2.84,0,0,0-1,1.69c-.1.73.13,1.49-.34,1.69s-1.69-1-1.93-1.12a8,8,0,0,0-1.3-1c-.23-.08-1.95-2-2.16-2.11s-1.43-1.61-1.61-.73a4.3,4.3,0,0,0,0,2.11,25.64,25.64,0,0,1,.39,5.21c-.21,1.15-.57,4.93-.94,5.26s-1.2,0-1.67-.33A1.93,1.93,0,0,0,236.4,56a15.86,15.86,0,0,1-3.28,2.39c-.37.06-1.88-1.12-2.58-.28s-.57,1-1,1.53-1.59,1.59-1.75,1.75-.1,1-.34,1.22-2.42,1.31-2.89,1.83-.7,1.2.08,1,2.4-1.3,2.86-1.36,1.54.06.66.94a10.79,10.79,0,0,0-2.09,3.07c-.15.53,1.1.16,1.62-.39s1.59-2.34,2.65-3,1.8-1.69,1.8-.75a20.09,20.09,0,0,1-1.82,5.47c-.65,1.07-2.74,4.32-3.08,4.87s-1.51,1.43-1.79,1.82-.86,1.3-.55,1.85.81,1,.83,1.41a12.54,12.54,0,0,1-.26,2.92c-.18.18-1.17.41-1.27.54a1.44,1.44,0,0,0-.13.84c.1.18.93,1,.91,1.4a21.21,21.21,0,0,1-2.79,3.23c-.34.31-3.85,3.13-4.14,3.78a3.17,3.17,0,0,0-.39,1.87c.13.5,1,2,1.07,2.53,0,0,1,2.84-1,2.87,0,0-1.85-3.52-2.14-3.91s-1.17-1.69-1.35-2a12,12,0,0,1,0-2.63c.05-.73,1.3-4.37,1.22-6s.18-5.58.21-6.64.36-3.23.28-3.76,0-3.54,0-4.16-1.06-4.46-1.17-5.11-1-4.27-1.09-4.84-1.12-4.95-1.3-5.79a12.2,12.2,0,0,1-.47-2.73,5.44,5.44,0,0,1,1.07-2.4,50.1,50.1,0,0,1,7.6-2.66c1.59-.2,9.8-2.89,10.94-3.2a38.17,38.17,0,0,1,7.53-1.43c2.73-.08,8.83-.26,9.64-.26s7.27,0,9.22,0a29,29,0,0,1,5.89.57c.83.37,3.28,1,3.56,1.51a63.09,63.09,0,0,0,3.91,5.73c.91,1,2.84,2.63,3.13,3.1s1.38,1.67,1.72,2.16a2.33,2.33,0,0,0,2.18,1c.86-.26,1.36-.89,2.66-.94s2.68-.36,3.6.13,5.44,6.31,6.59,7.24a59.54,59.54,0,0,0,5.57,3.91c.7.39,6,3.18,8.94,3.73s5.15.86,5.34,1,.46,1.17.7,1.45a35.9,35.9,0,0,0,3.18,2.27,19.85,19.85,0,0,0,1.9,1.3c.57.24,3.25.37,4.66,1.15a10.12,10.12,0,0,0,3.91,1.28c.55,0,3.28-1.12,4.4-1.12s2.94-.16,3.36.54,1.51,3.83,1.38,4.87a17.25,17.25,0,0,1-.55,3.1,16.2,16.2,0,0,0-.7,3.94c0,1.25.63,2.39.76,3.51s-1.05,4.51-1.51,5.5a13.84,13.84,0,0,1-3.42,4.25c-1.46,1.06-2,2.42-4.82,3.46s-8,4.82-8.64,5.31-5.73,4.35-6.62,5.08-6.49,5.5-7,6.23-2.92,3.41-3.57,4.19a16.31,16.31,0,0,1-1.3,1.38,56.78,56.78,0,0,0-7.61,1.64c-1.88.73-3.07,1.41-4.27,1.85a4.84,4.84,0,0,1-2.5.39,30.22,30.22,0,0,1-7-.59c-2.81-.66-4.19-1.36-5.44-1.41s-4.69.05-5,.05-.44-1-.34-1.93.92-7.06,1.12-7.63.58-.65,1.15-1.07a3,3,0,0,1,2.5,0c.18.31.78.86,1,.29s.37-1.36.91-1.2a2.49,2.49,0,0,1,1.1.83c.08.11.81-.13,1.17-.36s1-.42,1.36.15.67,1.25,1.25,1.25.86.16,1.45-.41,1.15-.92,1.18-1.91-.68-1.9.39-1.66,1.51,1.4,1.79.7a17.89,17.89,0,0,0,.73-3c0-.26.32-.23.6.26s1.88,1.33,2.22,1a1.59,1.59,0,0,0,.31-1.46c-.18-.36-.55-1.35-.23-1.74a2.67,2.67,0,0,1,1.3-1c.73-.26.7-1.46.6-2.45a11.63,11.63,0,0,1-.21-2.74c.1-1.33.6-4.09.73-4.76A7.36,7.36,0,0,1,288,100c.15-.23.78-1.38,1.22-1.38a19.5,19.5,0,0,0,2.68.16c.37-.13,1-.86.73-1.2s-1.09-4.48-1.33-5a18.3,18.3,0,0,0-.78-2.37,19.93,19.93,0,0,1-1.43-2.77,2.65,2.65,0,0,1,1.85.6c.5.55,2.19,1.88,2.32,1.51a2.61,2.61,0,0,0-.39-2c-.47-.44-1.3-1.28-1.15-1.41s1.59.13,1.41-.47-1.38-1.25-1.38-1.25-.65-.8.21-.8a28.37,28.37,0,0,1,3.77.1c.6.16,1.9.55,2.17,0s-3.68-1.59-5.5-1.61-2.4-.11-3.26-.89-2.08-2.13-1.72-2.45a6.43,6.43,0,0,1,3-.41,34.44,34.44,0,0,0,3.59,0c.44-.11,1.59-.76,1.38-1a6.92,6.92,0,0,0-2.73-.86c-1.12,0-3.55-.47-4.56-.65s-3.6,0-3.78-1.1-.23-1.43.89-1.51,4-.39,4.74-.86,1.43-1,.88-1.79.11-1.23-1.43-1.44-3.65-.34-4.06-.34a17.71,17.71,0,0,1-3.76-2.08c0-.23.86-1.25,1.31-1.48s2-1.49,1.77-1.91a1,1,0,0,0-1.49-.65,11.35,11.35,0,0,1-3.15.78,12,12,0,0,1-3.31-.05c-.54-.21-3.33-2.26-3.33-2.89a7.13,7.13,0,0,1,1.09-2.32c.26-.36,1-1.69.47-1.74a2.5,2.5,0,0,0-2.08.34c-.73.57-3.88,3.23-3,1.53s2.73-3.36,2.73-3.54a4.73,4.73,0,0,0-2.37.52c-.65.44-2.79.91-3,.65s-1.06-2.08-1.3-2.47a7.39,7.39,0,0,0-2.76-1.12C262.61,52.32,260.47,51,260.57,50.67Z" transform="translate(-48.43 0)"/></svg>