<svg id="katman_1" data-name="katman 1" xmlns="http://www.w3.org/2000/svg" viewBox="0 0 566.93 316.94"><defs><style>.cls-1{fill:#d65b16;}</style></defs><path d="M462.06,230H462a93.86,93.86,0,1,0,.08,0Zm-13.17,30.46c.18-1.09.35-2.17.51-3.25.39-2.48.76-4.83,1.2-7.22.38-2,.81-4.11,1.23-6.11.31-1.48.63-3,.92-4.45a1.57,1.57,0,0,1,1.63-1.39,85.35,85.35,0,0,1,28.26,2.17c2,.49,4,1.14,6,1.76.87.29,1.74.57,2.62.83a2.83,2.83,0,0,1,.36.16l.36.16-.1.84h-.3l-1.56,0c-1.11,0-2.26,0-3.37,0-5.84.44-10.49,2.31-14.21,5.72a20,20,0,0,0-5.83,9.92,1.49,1.49,0,0,1-1.75,1.32h-.12c-3.57-.06-7.2-.07-10.72-.07h-5.16Zm-29.73-11.34A85.17,85.17,0,0,1,448,238.84l.58-.1-.21.56a141.47,141.47,0,0,0-5.94,21.76l0,.22-18.18,3.48v-.42c0-4.46-.56-10.16-5.08-14.7l-.32-.31Zm-33.87,35.1,1.86-3c1.35-2.23,2.75-4.53,4.24-6.72a81.68,81.68,0,0,1,12.33-14.09,91.73,91.73,0,0,1,10.81-8.45,1.07,1.07,0,0,1,1.64.3c1.85,2.25,2.72,5.07,2.73,8.89a27.69,27.69,0,0,1-.21,3c-.05.53-.11,1.07-.15,1.6a1.5,1.5,0,0,1-1.19,1.42,94.87,94.87,0,0,0-14.26,6.09,86.44,86.44,0,0,0-16.75,11.41,1.66,1.66,0,0,1-.21.16l-.3.23-.7-.6Zm2.08,78.54c.08.71.19,1.41.29,2.11l.18,1.26-.78.3-.14-.26c-.19-.37-.39-.73-.59-1.09-.43-.78-.86-1.57-1.26-2.37a84.39,84.39,0,0,1-7.93-23.81,86.2,86.2,0,0,1-.88-23.49,94.23,94.23,0,0,1,3.88-18.56,5.6,5.6,0,0,1,1.74-2.57,94.68,94.68,0,0,1,17.59-12.7c3-1.62,6.14-3,9.2-4.37l1.89-.83c1.23-.55,2.53-1,3.78-1.46l1.72-.62.19-.07.59.52-.08.22c-.27.74-.54,1.49-.8,2.24-.57,1.61-1.16,3.28-1.79,4.9a153.6,153.6,0,0,1-11.78,23.21c-.65,1.09-1.32,2.17-2,3.24a87.77,87.77,0,0,0-5.62,10,90.28,90.28,0,0,0-6.13,18.54A79.48,79.48,0,0,0,387.37,362.75Zm68.82,47.08-1.77-.16c-1.26-.11-2.46-.22-3.66-.38a83.93,83.93,0,0,1-16.28-3.76,86.46,86.46,0,0,1-18.82-9A81.94,81.94,0,0,1,401.34,385a101.15,101.15,0,0,1-7.08-8,5.42,5.42,0,0,1-.77-2.77c0-.2,0-.4-.05-.59a106,106,0,0,1-.56-21.17,85.47,85.47,0,0,1,4.76-21.62,87.29,87.29,0,0,1,9.17-18.54,136.51,136.51,0,0,0,11-20.76,85.55,85.55,0,0,0,5.74-18.58,1.42,1.42,0,0,1,.9-1.06c4.69-.88,9.46-1.75,14.08-2.58l1.78-.32a.59.59,0,0,1,.3,0l.14.05.28.08,0,.29c-.08.64-.18,1.28-.27,1.91-.2,1.32-.41,2.69-.53,4l-.37,4c-.5,5.39-1,11-1.36,16.45a224.25,224.25,0,0,0-.19,25.64c.43,8.61.87,15.2,1.41,21.34.43,4.92,1.07,10.12,2,16.36a192.1,192.1,0,0,0,7.07,31c1.28,3.91,2.83,7.82,4.34,11.59.37.92.74,1.85,1.1,2.78a35,35,0,0,0,1.54,3.23c.27.52.54,1.06.82,1.61l.27.55Zm61.26-19.95a86.91,86.91,0,0,1-54.73,20.19h-.06a1.34,1.34,0,0,1-1.46-1q-.78-2.31-1.61-4.61c-1-2.86-2-5.81-2.95-8.76A177.71,177.71,0,0,1,451.69,373c-1.67-10.12-2.81-19.31-3.47-28.09-.47-6.33-.86-12.61-1.29-20.1-.61-10.6-.7-21.71-.25-33.95.16-4.54.47-9.15.77-13.61q.19-2.92.38-5.87c0-.61.09-1.21.14-1.87l.11-1.3h17.41l.11,1.53c0,.79.1,1.53.17,2.26a60.89,60.89,0,0,0,6.69,22.21,79.43,79.43,0,0,0,10,14.88c1,1.15,2,2.3,2.95,3.41,1.48,1.68,3,3.42,4.42,5.22,3.12,4,6.18,8.08,9.1,12.22a141,141,0,0,1,9.79,16.15,102.29,102.29,0,0,1,8.3,20.43,69.94,69.94,0,0,1,2.57,19A5.21,5.21,0,0,1,517.45,389.88ZM548,319a85.32,85.32,0,0,1-19.38,59.43c-.83,1-1.7,2-2.55,3l-1.18,1.36-.16.19-.68-.27.06-.92c0-.46.07-.92.09-1.39a65.51,65.51,0,0,0-1.92-18.51,104.61,104.61,0,0,0-8.75-23.09,154,154,0,0,0-12.43-20.24c-3.93-5.48-8.18-10.48-12.92-16a66.24,66.24,0,0,1-10.44-16.71,56.19,56.19,0,0,1-4.2-14.58c-.05-.32-.07-.65-.1-1v-.11c0-.11,0-.21,0-.35v-.63l.39.05,1.23.17c.87.12,1.72.24,2.57.39a126.11,126.11,0,0,1,17.9,4.34,101.64,101.64,0,0,1,28,13.86,77.51,77.51,0,0,1,13.69,12.36,58.34,58.34,0,0,1,10.61,17.85A3,3,0,0,1,548,319Zm-2.82-17.57a2.84,2.84,0,0,1,.06.29l.33,1.87-3.25-4.77a69.33,69.33,0,0,0-13.82-14.77,96,96,0,0,0-25.12-14.62,118.28,118.28,0,0,0-26.06-7.15l-2.23-.36-1.54-.26.09-.36a14.19,14.19,0,0,1,3.94-7.24c2.25-2.12,5.05-3.43,9.08-4.25a42.32,42.32,0,0,1,12.75-.3c1.05.11,2.1.25,3.15.39s2.4.31,3.59.42a5.87,5.87,0,0,1,2.76,1.24l.45.31a86.71,86.71,0,0,1,15.93,13.51,86,86,0,0,1,19.89,36Z" transform="translate(0 -125.01)"/><path class="cls-1" d="M5.7,210.72V135.78H0V125H34l9.43,10.77v27.37l-7.67,8.91,7.67,8.5v30.16l-8.5,10.78H0V210.72Zm12.23-74.94V167.4H31.09V135.78Zm0,42.5v32.44H31.09V178.28Z" transform="translate(0 -125.01)"/><path class="cls-1" d="M54.83,210.72h5.59L75,135.78H71.2V125H94.83v10.77H91.1l14.51,74.94h5.19V221.5h-22V210.72h6.12l-3.73-18.86H74.83L71.2,210.72H77V221.5H54.83ZM77,181H89l-6-31.09Z" transform="translate(0 -125.01)"/><path class="cls-1" d="M120.43,196.11h12.34v14.61h16.48V176.83l-22.18-4.77-6.64-8.4V135.78L130,125h22.49l8.91,10.77v14.1H149.25v-14.1H132.77v25.5L155,165.94l6.42,7.57v37.21l-8.91,10.78H130l-9.54-10.78Z" transform="translate(0 -125.01)"/><path class="cls-1" d="M198.69,174.24l-7.47,15.44v21h5.7V221.5H173.29V210.72H179V135.78h-5.7V125h23.63v10.77h-5.7v30.89l14.93-30.89h-5.5V125H221.9v10.77h-4.46l-10.57,21.67,13.79,53.27h4.66V221.5H211Z" transform="translate(0 -125.01)"/><path class="cls-1" d="M260.87,177.24h-7.56v33.48h13.57V196.11h10.89V221.5H235.48V210.72H241V135.78h-5.6V125h41.57v24.87H266.05v-14.1H253.31v30.68h7.56v-7.15h11.71v24.57H260.87Z" transform="translate(0 -125.01)"/><path class="cls-1" d="M304.09,210.72h5.7V135.78h-8.91v14.1H290V125h51.83v24.87H330.93v-14.1H322v74.94h6.63V221.5H304.09Z" transform="translate(0 -125.01)"/><path class="cls-1" d="M358,210.72V135.78h-5.7V125h34l9.43,10.77v27.37L388,172.06l7.67,8.5v30.16l-8.5,10.78H352.28V210.72Zm12.23-74.94V167.4h13.17V135.78Zm0,42.5v32.44h13.17V178.28Z" transform="translate(0 -125.01)"/><path class="cls-1" d="M407.11,210.72h5.6l14.61-74.94h-3.83V125h23.63v10.77h-3.73l14.51,74.94h5.18V221.5h-22V210.72h6.11l-3.73-18.86H427.11l-3.62,18.86h5.8V221.5H407.11ZM429.29,181h12l-6-31.09Z" transform="translate(0 -125.01)"/><path class="cls-1" d="M496.24,135.78h-5.59v74.94h11.5V196.11h12.23V221.5H472.72V210.72h5.7V135.78h-5.7V125h23.52Z" transform="translate(0 -125.01)"/><path class="cls-1" d="M548.79,135.78h-5.6v74.94H554.7V196.11h12.23V221.5H525.26V210.72H531V135.78h-5.7V125h23.53Z" transform="translate(0 -125.01)"/><path d="M45.78,251H34.89v145.8H57.27V368.33h23.8v49.4H0v-21H11.09V251H0V230H45.78Z" transform="translate(0 -125.01)"/><path d="M102.24,396.76h11.09V251H102.24V230h46v21h-11.1v145.8h11.1v21h-46Z" transform="translate(0 -125.01)"/><path d="M222.22,331.63H207.5v65.13h12.91v21H172.82v-21h11.09V251H172.82V230h80.66v48.4H232.31V251H207.5v59.7h14.72V296.74h23v47.79h-23Z" transform="translate(0 -125.01)"/><path d="M325.67,331.63H311v65.13h26.42V368.33h21.17v49.4H276.26v-21H287V251H276.06V230h80.87v48.4H335.75V251H311v59.7h14.72V296.74h22.79v47.79H325.67Z" transform="translate(0 -125.01)"/><rect y="305.61" width="323.62" height="11.33"/><rect class="cls-1" x="334.95" y="305.61" width="65.52" height="11.33"/><rect x="501.41" y="305.61" width="65.52" height="11.33"/><rect class="cls-1" x="410.91" y="305.61" width="42.76" height="11.33"/><rect class="cls-1" x="462.87" y="305.61" width="29.35" height="11.33"/></svg>