<svg id="katman_1" data-name="katman 1" xmlns="http://www.w3.org/2000/svg" viewBox="0 0 566.93 546.74"><path d="M516.19,200.3a132.56,132.56,0,0,1-19.93,6.31,228.06,228.06,0,0,1,13.88,38,3.24,3.24,0,0,1,.15.78l.91,5.05-8.78-12.9A176.76,176.76,0,0,0,477,208.06a47.51,47.51,0,0,1-10.8-2.23,28.51,28.51,0,0,1-9-5.18c-4.27-3.71-7.75-9.24-8.4-15.17A271.22,271.22,0,0,0,397,158a321.36,321.36,0,0,0-70.58-19.37c-2-.31-3.95-.63-6-1l-4.19-.69.24-1c2.15-8.5,5.53-14.75,10.69-19.61,6.08-5.72,13.65-9.28,24.56-11.52,12.32-2.49,24.49-1.8,33.84-.84-1.52-5-2-11.37-1.41-19.2-6.29,3.88-13.47,6.81-19.87,5a18.2,18.2,0,0,1-2.78-1h-.87a89.42,89.42,0,0,0-9.11.11c-15.81,1.17-28.39,6.24-38.48,15.48a53.82,53.82,0,0,0-15.77,26.86c-.78,2.95-2.21,3.58-4.75,3.58a1.67,1.67,0,0,1-.32,0c-9.68-.15-19.51-.18-29-.2l-11.6,0h-2.39l.17-1.08q.72-4.42,1.39-8.79c1.07-6.72,2.06-13.08,3.26-19.54,1-5.56,2.19-11.15,3.32-16.56.84-4,1.69-8,2.47-12A4.73,4.73,0,0,1,261.07,74a23.53,23.53,0,0,1-3.49.58c-8.22.79-14.17-2.12-18-6.13-2.46,3.34-4.95,6.59-7.44,9.52q7.18-1.66,14.62-2.91l1.58-.26-.54,1.5c-6.4,17.18-11.5,35.9-16.1,58.91l-.13.63-49.2,9.4v-1.13c0-12.08-1.54-27.53-13.77-39.79l-.87-.86-9.72,6,.29.37a3.43,3.43,0,0,1,2.4,1.54c5,6.08,7.36,13.71,7.38,24.06a74.64,74.64,0,0,1-.54,8.22c-.16,1.43-.31,2.88-.42,4.32a4.09,4.09,0,0,1-3.23,3.84,257.66,257.66,0,0,0-38.59,16.5,232.06,232.06,0,0,0-45,30.59c0,.28,0,.58.07.87a53.26,53.26,0,0,1-1.54,16.09,232.15,232.15,0,0,1,36.68-25.07c8.07-4.36,16.61-8.16,24.9-11.8l5.1-2.28c3.36-1.5,6.85-2.74,10.26-3.93,1.54-.56,3.1-1.1,4.64-1.69l.52-.2,1.58,1.41-.21.59c-.74,2-1.46,4.06-2.17,6.1-1.54,4.36-3.13,8.85-4.84,13.23-7.61,19.41-17.74,39.39-31.89,62.86-1.75,2.95-3.58,5.86-5.38,8.79-5.38,8.63-11,17.57-15.22,27.05a243.73,243.73,0,0,0-16.6,50.17,215,215,0,0,0-3.47,69.52c.22,1.91.5,3.8.78,5.71l.5,3.41-2.1.82-.39-.72c-.53-1-1.07-1.95-1.59-2.92-1.17-2.13-2.34-4.26-3.43-6.43A228.73,228.73,0,0,1,55,346a234.34,234.34,0,0,1-2.39-63.63,253.18,253.18,0,0,1,9.72-47.63,13.43,13.43,0,0,1-1.54.17c-.22,0-.43,0-.65,0a13.1,13.1,0,0,1-9.37-4.05l-.28-.29a37.41,37.41,0,0,1-5.66-9.37,252.58,252.58,0,0,0-14.23,84.1c.06,140.13,114,254.15,254.08,254.15,139.89,0,254-113.93,254.27-253.93A252.84,252.84,0,0,0,516.19,200.3ZM269.08,538.07c-1.63-.15-3.21-.28-4.78-.44-3.42-.3-6.66-.58-9.93-1a228.15,228.15,0,0,1-44.08-10.17A235.45,235.45,0,0,1,159.34,502a221.4,221.4,0,0,1-38.77-31.08,273.62,273.62,0,0,1-19.15-21.8c-1.56-1.95-1.85-4.9-2.09-7.53-.06-.54-.1-1.06-.17-1.58a288.4,288.4,0,0,1-1.52-57.31c1.52-19,5.75-38.14,12.91-58.53a236.69,236.69,0,0,1,24.82-50.22,367.24,367.24,0,0,0,29.69-56.2c7.83-18.55,12.76-34.56,15.51-50.33.2-1,1.24-2.62,2.45-2.86,12.69-2.39,25.62-4.73,38.12-7l4.81-.87a1.37,1.37,0,0,1,.83.11l.39.13.78.21-.13.81c-.24,1.73-.48,3.45-.74,5.14-.54,3.6-1.11,7.31-1.43,11l-1,10.72c-1.34,14.6-2.73,29.69-3.69,44.55a610.26,610.26,0,0,0-.52,69.42c1.17,23.32,2.37,41.15,3.82,57.81,1.17,13.3,2.91,27.37,5.47,44.27,4.81,31.72,11.08,59.16,19.15,83.93,3.47,10.58,7.68,21.15,11.74,31.34,1,2.52,2,5,3,7.55a95.44,95.44,0,0,0,4.14,8.74c.74,1.41,1.48,2.87,2.22,4.36l.73,1.5Zm165.88-54a241.25,241.25,0,0,1-61.83,37.21,238.08,238.08,0,0,1-86.38,17.46h-.15a3.61,3.61,0,0,1-3.94-2.76c-1.41-4.18-2.89-8.33-4.37-12.49-2.73-7.75-5.57-15.73-8-23.71-6.23-20.46-10.11-41.61-13.38-61.41-4.54-27.4-7.62-52.28-9.4-76.08-1.3-17.11-2.34-34.12-3.51-54.4-1.65-28.7-1.87-58.76-.67-91.93.43-12.3,1.28-24.77,2.08-36.83.37-5.3.72-10.61,1-15.9.11-1.65.24-3.3.39-5.06l.28-3.53h47.14l.28,4.14c.15,2.15.31,4.14.48,6.14,2,20.5,7.92,40.17,18.11,60.13a215.69,215.69,0,0,0,27.07,40.28c2.61,3.1,5.34,6.23,8,9.24,4,4.56,8.13,9.26,11.95,14.1,8.44,10.76,16.75,21.89,24.64,33.1a384.89,384.89,0,0,1,26.51,43.74c10.33,19.69,17.66,37.78,22.47,55.31a188.74,188.74,0,0,1,6.94,51.39A14,14,0,0,1,435,484.05Zm64.29-86.44a229,229,0,0,1-33.95,55.53c-2.25,2.71-4.62,5.4-6.9,8l-3.18,3.69-.44.49-1.86-.73.17-2.48c.11-1.25.2-2.49.24-3.75a177.5,177.5,0,0,0-5.19-50.13c-4.88-20.28-12.62-40.74-23.68-62.52a417,417,0,0,0-33.67-54.79c-10.65-14.84-22.15-28.37-35-43.28a179.34,179.34,0,0,1-28.28-45.25A151.62,151.62,0,0,1,316.17,163c-.13-.89-.2-1.78-.28-2.65l0-.33a8.94,8.94,0,0,1,0-.95l0-1.71,1,.15c1.12.17,2.25.32,3.34.47,2.36.33,4.68.63,7,1a344.08,344.08,0,0,1,48.48,11.78c28.81,9.4,53.6,21.67,75.84,37.51a211.29,211.29,0,0,1,37.07,33.49,158.73,158.73,0,0,1,28.72,48.33,7.23,7.23,0,0,1,.46,2.17,235,235,0,0,1-18.53,105.38Z" transform="translate(-1.35 -12.74)"/><path d="M285.29,48.84l-.34,0c-1.27,0-2.95,1.15-7.41,4.63-5.67,4.41-13.86,11.36-18.81,11.81a3.47,3.47,0,0,1-2.57-.79c-1.3-1.09-3-5-3.17-7.36a2.84,2.84,0,0,1,0-.63,11,11,0,0,1,2.26-.75c8.91-2.34,18-10.23,17.85-16.2-.16-5.08-6.23-8.85-13.82-8.24a21.68,21.68,0,0,0-8,2.23c-7.24,3.64-12.69,13.21-12.53,21.63-10.57,14.19-18.48,24.57-21.36,25.24-.14,0-.57.14-.79-1.09-.44-2.38.27-7.63,2.61-15.71,3.38-11.7,4-14.29,3.56-17.5-.58-3.8-3.73-5.63-8.73-4.82-1.89.42-3.17,1.28-5.35,3.61-3.09,2.82-8.05,10.35-11.47,15.91-.12.21-.25.42-.38.63.46-1.78,1.29-4.54,2.92-9.55.56-1.72.85-2.59,1.43-4.31,5.09-14.3,6.61-18.94,5.91-22.79-.65-3.54-4-5.24-8.39-4.13a14.72,14.72,0,0,0-7,4.17C179.65,37.87,172.16,55.64,166.22,73c-1.67,4.9-3.33,10-4.43,12.77a146.84,146.84,0,0,1,1.85-19.68c.61-4.16,1.05-9,.78-9.89-.7-2.32-5.26-2.34-8.89-.82a7.64,7.64,0,0,0-4,3.13c-1.52,2.68-3.05,13.11-3,20.35a37.44,37.44,0,0,0,.3,4.28c-.3,1.08-.6,2.36-.94,3.82a149.05,149.05,0,0,1-10.27,31.14c-2.79,6.66-4.8,8.66-5.8,9.27-1.66,1-3.09-1.34-3.8-2.82-2.56-5.41-4.2-17.6-3.47-31.95.41-4.63.42-6.58-.07-7.73-1.22-2.8-7.48-1.11-11.62,1.39h0c-3.35,2.36-4,4.15-4.31,6.89-3.72-4.79-11-2.72-16.43,1a28.87,28.87,0,0,0-9.66,11.11,43.23,43.23,0,0,0-3.37,19.36c-4.25,4.71-9.93,12.82-13.93,18.93-1.35,2.07-2.72,4.21-3.58,5.53-.24-.64-.53-1.49-.81-2.33-1-3-2.36-7.14-3.84-9.2-1.31-1.83-3.39-1.73-5.54.32-2.36,2.25-4.8,7-10.2,31.5C37,188.5,35.36,198.86,34.41,202l-.2.62a11,11,0,0,1-1.05,2.69c-.42.55-1.6.54-3.51-1.35a28.81,28.81,0,0,1-3.59-4.52c-17.41-26.1-14.29-75,6.53-96,5.58-5.64,10.15-2.56,12.5.89a29.78,29.78,0,0,1,3.68,8.51,11.75,11.75,0,0,0,1.14,3.65c.93,1.35,3.91.19,6-1.65s2.17-3.34,2.28-5.7a24.46,24.46,0,0,0-3.29-12.3c-5.43-8.47-16.29-7.42-28.45,4.34C3.83,123-4.39,160.2,5.45,192.25c1,3.25,5,14.22,11.41,20.08,6.9,6.28,13.63,4.9,20.15-3.47,4.87-6.25,5.13-11,10.43-39.4,1-5.46,2.16-10.4,3-13.58.3.88.63,1.87,1,2.85.68,2,1.47,4.33,2.29,6.6-7.6,17.93-13.36,46.14.35,62.48,4.59,4.55,10.81,3.42,15.68-2.47s7-15.25,6.51-25.38c-.72-14.8-5.69-28.11-9.07-36.85-1.47-3.79-2.94-7.75-2.55-8.84,1.46-4.11,6.9-12.19,12-19l3.2-4.25a27.7,27.7,0,0,0,3.54,9.79c4.61,7.2,13.41,5.85,19.5,1.27a16,16,0,0,0,4.4-5.11c1.75-3.26,3.34-13.45,4.38-19.7.62,1.49,1.53,3.43,2.87,6,5.25,10.23,13.68,10.89,19.39,7.45a15.05,15.05,0,0,0,4.44-4.31c4.62-6.13,9.81-21.49,13.3-32.32a9.35,9.35,0,0,0,1.87,3.09c2.13,1.68,5,1.77,9,.31,3.07-1.35,6.23-8.42,7.3-12.78,4.72-19.37,12.54-38.61,23.87-54.52-.57,1.86-1.48,4.43-2.24,6.68-.56,1.63-1.13,3.35-1.65,5-2.86,8.91-5.67,20.08-4,26.51,1.14,4.43,3.82,5.85,8.8,4.77,3.11-1,4.9-3.73,9.69-12,1.05-1.82,3.13-5.33,5-8.2a73.56,73.56,0,0,0-2.29,7.42c-.52,2.32-2,10.48-.59,17.16,1,5,3.54,7.86,7.18,8.48l2.17-.06.26,0c7.61-1.85,18.13-16.84,24-25,2.35,5.59,8.27,10.27,17.42,9.4,14.59-1.39,29.63-17.9,30.3-18.6l.25-.27v-.35C287.88,50.07,286.89,49.21,285.29,48.84ZM254,50.34a39.83,39.83,0,0,1,2.46-6.27c3.18-5.76,5.21-6.18,5.58-6.2s1,.79,1.06,2.06a7.17,7.17,0,0,1-2.23,5.31A29.45,29.45,0,0,1,254,50.34ZM108.51,103.06c.12,3.75-4.53,19.32-5.91,24.61-.39,1.49-.66,2.56-.76,3-1,2.78-1.52,3.26-1.57,3.3s-.48,0-1.25-1.32c-4.26-7.39-5.2-31.3-1.29-34,.88-.59,2.52.39,4.43,2.7,2.25,2.17,3.28,2.83,6.28,1.69ZM56.4,172.28c3.11,7.72,9.76,25.42,10,39.36v0c.23,7-.87,9.15-1.38,9.77-1.3,1.58-3.59-.51-4.52-1.49a24.52,24.52,0,0,1-4.7-7.83C50.27,197.94,53.62,180.94,56.4,172.28Z" transform="translate(-1.35 -12.74)"/><path d="M564.41,198.86c-1-1.46-3.62-2.81-11.23-5.87-3.88-1.57-8.28-3.23-12.79-5.05-.74-.25-1.45-.47-2.1-.66l-.55-.17c3-1.71,12.28-5.29,30-9.78l.56-.14c0-.31,0-.47-.09-.79a14.15,14.15,0,0,0-2.5-6.52,6.64,6.64,0,0,0-2.48-2c-1.24-.55-9.05-.74-12-.43-2.33.42-23.47-3.4-32.48-5.31-8-1.7-10.18-3.27-10.65-3.72-.19-.19-.59-.57.19-1.63,1.4-1.9,5-4.29,12-7.47.78-.43,7.63-4.17,8.21-4.91l.12-.26c.53-2-1.66-5.46-4-7.72-1.75-1.69-3.28-2.58-4.57-2.72-2.75-.56-8.7,1.34-13.53,4.38-1.13.21-2.45.57-4,1a113,113,0,0,1-29.3,4.74c-6.54.44-9.08-.57-10-1.28-1.6-1.16-.51-3.73.28-5.16,2.88-5.19,11.42-12.8,22.85-19.05,3.78-1.85,5.29-2.79,5.92-3.84,1.55-2.57-2.91-8-6.89-10.93h0c-3.48-2.18-5.2-2-7.43-.92,1.83-6-3.37-12.28-8.86-15.79-4.26-2.71-9.11-4.22-13.15-4-5.39.23-11.31,2.58-16.48,6.41a6.72,6.72,0,0,0-1.73,1.11c-9.89,8.46-26.53,21-38.11,17.86-2.13-.58-3.75-3.4-4.15-7.25-.18-1.64.38-4.52,1.57-8.47,2.69-8.84,10.15-22.55,12.13-25l.43.17c.06-.2.1-.3.16-.5.61,0,1.77,0,2.82,0h3.38c21,.63,58.51-.75,69.6-22.08,4.92-9.47.5-21.59-11.13-27.76C444.89,1.56,413.68,30,398.05,56.6l-.15.27c-1-3.79-6.11-8.09-12.89-10.19-7.94-2.45-15.61-1.15-20.62,3.35a30.88,30.88,0,0,0-9.46,17c-1.68,9.58,2.32,16.34,10.62,18.62,8,2.19,19-6,24.16-10-4,26,1.86,34,7.81,36.49,5.65,2.34,13.87.38,23.65-4.59,1.65-.84,4.41-2.49,7.69-4.57-1.88,7.48,3,14.57,8.91,18a13.13,13.13,0,0,0,6,1.82c3.34.12,11.89-3.33,17.19-5.38-.83,1.36-1.88,3.2-3.22,5.82-5.25,10.23-1.61,18.91,3.88,22.92a13.59,13.59,0,0,0,5.54,2.32c7,1.62,21.54-.61,31.6-2.25-2.18,5-1.06,10.19,3.16,14.17,5.42,5.12,15.09,7.76,28.88,9.65,2.7.37,5.23.78,7.28,1.11-8.14,3-12.16,4.56-20.06,8-13.32-5.89-28-11.21-41.93-11.4-13.19-.18-18.87,5.27-21.07,8.93-4.35,7.23-.62,15.69,5.14,20.69a24.21,24.21,0,0,0,7.49,4.34c21.11,7,43.5-4,63-12.05,17.13,6.39,22.37,9.05,26.18,10.62,1.6.66,3,1.25,4.86,2.17s3.06,1.26,3.71.68C565.9,202.71,566.38,201.6,564.41,198.86ZM470.3,107.44c-2.81,2-17,5-21.69,6.27-1.33.35-2.28.61-2.67.74-2.58.43-3.22.11-3.28.08s-.24-.47.4-1.89c3.58-7.85,21.33-20.58,25.27-18,.89.58.95,2.69.12,5.72-.56,3.29-.56,4.64,1.79,7ZM412.37,62.61c12.06-15.73,24.42-31.42,42.08-38.21,11-4.24,17.43-2.14,20-.69,5.19,2.91,6.56,9.51,3.46,16.25-2.8,6.11-8.36,11.1-15.41,14.38C447.26,61.45,428.74,63.13,412.37,62.61Zm-43.8,16.78c-.85-.24-.8-2-.47-3.49a30.93,30.93,0,0,1,4.83-10.26c5-7.53,10.09-11.37,13.3-10.34a4.9,4.9,0,0,1,2.62,2.08c1.57,2.41,3.83,4.23,5.62,4.56a62.81,62.81,0,0,1-5.67,5.61C380.49,74.44,371.27,80.14,368.57,79.39Zm142.88,102.4c-14.78,6.14-30.24,14.08-46.25,10.3a10.07,10.07,0,0,1-4.2-1.89c-2.61-2.22-1.92-6.15-.05-9.09a13.12,13.12,0,0,1,5.56-5c11.61-5.29,28.15-1.15,39.06,3.42C507.54,180.35,509.61,181.09,511.45,181.79Z" transform="translate(-1.35 -12.74)"/></svg>