<svg id="katman_1" data-name="katman 1" xmlns="http://www.w3.org/2000/svg" viewBox="0 0 563.12 566.93"><defs><style>.cls-1{fill:#d65b16;}</style></defs><path class="cls-1" d="M412.32,426.57a120.66,120.66,0,0,1-.65,12.65,138.76,138.76,0,0,1-5.8,27.76,8.25,8.25,0,0,1-2.59,3.83c-9.51,8.4-17.87,14.44-26.32,19-4.46,2.4-9.17,4.5-13.74,6.51l-2.83,1.27c-1.84.81-3.79,1.5-5.66,2.17-.86.3-1.71.6-2.57.92l-.29.1L351,500l.11-.32c.4-1.12.79-2.24,1.2-3.37.84-2.39,1.73-4.88,2.67-7.3,4.2-10.72,9.8-21.75,17.62-34.73,1-1.62,2-3.24,3-4.84a132.71,132.71,0,0,0,8.4-14.94c1.2-2.65,2.3-5.29,3.3-7.95H375.52A136.52,136.52,0,0,1,366,443.89a201.74,201.74,0,0,0-16.4,31A126.53,126.53,0,0,0,341,502.72a2.15,2.15,0,0,1-1.35,1.58c-7,1.33-14.15,2.62-21.06,3.85l-2.66.49a.87.87,0,0,1-.44-.07l-.21-.06-.44-.13.07-.44c.13-.95.27-1.89.41-2.84.3-2,.61-4,.79-6l.55-5.93c.75-8.05,1.51-16.39,2-24.6A338.78,338.78,0,0,0,319,430.2c-.07-1.24-.13-2.45-.19-3.63H306.08c.84,15.42.95,31.58.3,49.35-.25,6.79-.71,13.69-1.16,20.35-.19,2.92-.39,5.85-.58,8.78-.05.9-.13,1.81-.21,2.79l-.15,1.94h-26l-.17-2.29c-.08-1.18-.16-2.27-.26-3.38a91.05,91.05,0,0,0-10-33.21,118.41,118.41,0,0,0-14.94-22.25c-1.43-1.72-3-3.43-4.41-5.1-2.21-2.52-4.49-5.11-6.59-7.8-2.37-3-4.73-6.08-7-9.18h-15.4q2.63,3.94,5.49,7.93c5.88,8.19,12.23,15.67,19.32,23.9a99.41,99.41,0,0,1,15.63,25,84.65,84.65,0,0,1,6.27,21.8c.07.49.11,1,.15,1.46v.19a3.86,3.86,0,0,1,0,.51l0,.95-.58-.08-1.84-.27c-1.3-.17-2.58-.35-3.84-.56a189.17,189.17,0,0,1-26.78-6.5,152.39,152.39,0,0,1-41.88-20.72,116,116,0,0,1-20.47-18.5A87.81,87.81,0,0,1,155,435a5,5,0,0,1-.25-1.2q-.22-3.55-.22-7.21H143.08c.06,77.34,63,140.32,140.31,140.37h.1A140.63,140.63,0,0,0,423.85,426.57ZM227.47,537.7c-1.58-.15-3.15-.36-4.73-.58-1.76-.22-3.58-.46-5.37-.63a8.66,8.66,0,0,1-4.11-1.85l-.68-.46A129,129,0,0,1,168,483.81a128.29,128.29,0,0,1-9-23.76,2.76,2.76,0,0,1-.09-.43l-.5-2.79,4.85,7.13A104.37,104.37,0,0,0,184,486.06a144,144,0,0,0,37.56,21.86,178.39,178.39,0,0,0,39,10.7c1.11.17,2.2.34,3.34.54l2.3.38-.13.54c-1.19,4.7-3.06,8.13-5.9,10.82-3.36,3.17-7.54,5.13-13.57,6.37C239.57,538.68,232.68,538.24,227.47,537.7Zm75.59-16.31c-.26,1.64-.51,3.26-.76,4.86-.58,3.71-1.13,7.23-1.79,10.8-.56,3.05-1.21,6.14-1.84,9.13-.46,2.21-.94,4.44-1.37,6.65a2.33,2.33,0,0,1-2.44,2.08,127.5,127.5,0,0,1-42.26-3.23c-3-.75-6-1.71-8.93-2.64-1.3-.42-2.6-.84-3.92-1.25a2.74,2.74,0,0,1-.53-.23l-.54-.25.13-1.25h.47l2.34,0c1.64,0,3.36.06,5-.05,8.72-.66,15.67-3.47,21.26-8.56a29.83,29.83,0,0,0,8.7-14.83,2.25,2.25,0,0,1,2.63-2h.17c5.34.09,10.77.11,16,.12h7.73Zm44.47,17a127.56,127.56,0,0,1-43.06,15.36l-.88.15.32-.83a212.12,212.12,0,0,0,8.88-32.54l.07-.35L340,515v.62c0,6.67.84,15.19,7.61,22l.47.47Zm50.65-52.5c-.93,1.5-1.85,3-2.77,4.53-2,3.33-4.13,6.77-6.36,10.05a122.7,122.7,0,0,1-18.43,21.06,137.66,137.66,0,0,1-16.18,12.65,1.57,1.57,0,0,1-2.43-.46c-2.77-3.36-4.07-7.57-4.1-13.29a42.73,42.73,0,0,1,.32-4.54c.08-.79.16-1.59.22-2.38a2.24,2.24,0,0,1,1.78-2.12,141.89,141.89,0,0,0,21.32-9.12,127.92,127.92,0,0,0,25.05-17.06,1.91,1.91,0,0,1,.32-.24l.46-.34,1,.9Z" transform="translate(-1.9 -0.01)"/><path class="cls-1" d="M85.13,316.41c-1.16-2.31-3.54-4-7.3-5.14A12.17,12.17,0,0,0,67,312.77c-9.13,6.2-12.63,24.28-13.79,32.66-2.73-7.38-6.4-15.55-12.67-21.34a13.31,13.31,0,0,0-8.41-3.69,16,16,0,0,0-9.66,3.19l-.05,0c-2.44,1.76-4.54,3.27-5.51,6.39-3.28,10.6,3.29,22.23,9.38,30.12l.63.8.53.66c10.13,13,29.09,28.68,29.47,28.71H57l.06-.06a22.66,22.66,0,0,0,4-5.36c.37-.62.72-1.2,1.08-1.75,3-4.71,6.07-9.8,9-15.14a206.7,206.7,0,0,0,9.29-18.69c2.83-6.57,5.64-13.59,6.17-20.71a21.32,21.32,0,0,0,0-3.84c-.06-.63-.11-1.29-.15-1.92l0-.48A15.39,15.39,0,0,0,85.13,316.41Z" transform="translate(-1.9 -0.01)"/><path class="cls-1" d="M551,331.32c-.16-2.58-1.71-5.05-4.72-7.57a12.17,12.17,0,0,0-10.59-2.85c-10.82,2.15-21.08,17.45-25.42,24.72.36-7.86.17-16.82-3.36-24.6a13.28,13.28,0,0,0-6.31-6.66,15.92,15.92,0,0,0-10.14-.82h-.06c-2.93.67-5.46,1.25-7.57,3.75-7.14,8.48-5.61,21.75-3.08,31.39.09.32.18.65.28,1s.15.54.22.81c4.29,15.89,15.63,37.75,16,37.93l.09,0,.08,0a22.73,22.73,0,0,0,5.73-3.4c.58-.42,1.14-.82,1.68-1.19,4.62-3.16,9.41-6.66,14.21-10.43a207.25,207.25,0,0,0,15.83-13.6c5.17-4.95,10.49-10.32,13.75-16.68a21.66,21.66,0,0,0,1.47-3.54c.19-.6.41-1.23.62-1.83l.16-.45A15.34,15.34,0,0,0,551,331.32Z" transform="translate(-1.9 -0.01)"/><path class="cls-1" d="M1.9,272.29H8.71V182.87H1.9V170H30.11v12.86H23.3v89.42h6.81v12.87H1.9Z" transform="translate(-1.9 -0.01)"/><path class="cls-1" d="M37.77,254.85H52.49v17.44H72.16V231.85l-26.47-5.69-7.92-10V182.87L49.15,170H76l10.64,12.86v16.82H72.16V182.87H52.49V213.3L79,218.86l7.67,9v44.4L76,285.16H49.15L37.77,272.29Z" transform="translate(-1.9 -0.01)"/><path class="cls-1" d="M178.27,182.87v89.42l-10.76,12.87H140.67l-11.25-12.87V182.87L140.67,170h26.84Zm-14.59,89.42V182.87H143.89v89.42Z" transform="translate(-1.9 -0.01)"/><path class="cls-1" d="M208.33,170l20.78,67.16v-54.3h-7.92V170h29.19v12.86h-6.55V285.16H229.11l-23-74.34v61.47h6.8v12.87H184.7V272.29h6.81V182.87H184.7V170Z" transform="translate(-1.9 -0.01)"/><path class="cls-1" d="M309.13,272.29h6.8V182.87H305.29v16.82h-13V170h61.84v29.68h-13V182.87H330.52v89.42h7.92v12.87H309.13Z" transform="translate(-1.9 -0.01)"/><path class="cls-1" d="M404.86,231.85H380.61v40.44h7.92v12.87H359.22V272.29H366V182.87h-6.8V170h29.31v12.86h-7.92v36h24.25v-36h-7.92V170h29.31v12.86h-6.8v89.42h6.8v12.87H396.94V272.29h7.92Z" transform="translate(-1.9 -0.01)"/><path class="cls-1" d="M432.31,272.29H439l17.44-89.42h-4.58V170h28.2v12.86H475.6l17.32,89.42h6.18v12.87H472.88V272.29h7.3l-4.45-22.51H456.18l-4.33,22.51h6.93v12.87H432.31Zm26.47-35.49h14.35L466,199.69Z" transform="translate(-1.9 -0.01)"/><path class="cls-1" d="M520,272.29h6.81V182.87H516.17v16.82h-13V170H565v29.68H552V182.87H541.4v89.42h7.92v12.87H520Z" transform="translate(-1.9 -0.01)"/><path d="M163.43,403.88l-12.32,10.64H117.59l-12-10.64V323.35l12-10.7H139l5.64,5.31v-5.31h18.8v27h-18.8v-8.24H124.4v64.26h20.23v-8.23h18.8Z" transform="translate(-1.9 -0.01)"/><path d="M231.65,403.88l-12.12,10.64h-35l-12-10.64V323.35l12-10.7h35l12.12,10.7Zm-18.87-8.17V331.45H191.32v64.26Z" transform="translate(-1.9 -0.01)"/><path d="M304.8,403.82l-12.32,10.7H258.17l-12.06-10.64V331.45h-5.38v-18.8H270.3v18.8h-5.38v64.26H286V331.45h-5.44v-18.8h29.63v18.8H304.8Z" transform="translate(-1.9 -0.01)"/><path d="M385.27,414.52H365.1l-16-41.5h-5.58v22.69h5.38v18.81H319.26V395.71h5.38V331.45h-5.38v-18.8h24.25V318l6.1-5.31h20.23l12,10.7v37.41l-12.84,12,8.94,22.95h7.33Zm-41.76-60.37H363v-22.7H343.51Z" transform="translate(-1.9 -0.01)"/><path d="M442.53,331.45h-5.25v64.26h5.38v18.81H413V395.71h5.38V331.45h-5.25v8.24H394.35v-27h67v27H442.53Z" transform="translate(-1.9 -0.01)"/><path d="M127.35,6.12C127.35,1.9,124,0,120.67,0s-7.14,1.75-7.81,5.59l-16.17,85L79.62,5c-.7-3.71-4.34-5-7.24-5-3.49,0-7.26,1.9-7.26,5V17.91c0,84.84-10.33,103.2-12.89,103.2-.45,0-1.11-1.14-1.11-3.58A24.92,24.92,0,0,1,55,105l.46-1.3,0-.25a3.06,3.06,0,0,0-3.07-2.88,2.33,2.33,0,0,0-2.19,1.31A28,28,0,0,0,45.73,117c0,8.14,3.86,14.29,9,14.29C65.43,131.25,78,105,79.17,31.78l14.48,72.38a2.83,2.83,0,0,0,5.55.21l15.06-78.59q.06,6.46.12,12.79c.36,39.84.67,74.25,4.79,84.95a7.66,7.66,0,0,0,7.2,5.25c3.5,0,7.06-2.31,7.06-4.59a3.37,3.37,0,0,0-.49-1.54C128.46,115.11,127.35,19.47,127.35,6.12Z" transform="translate(-1.9 -0.01)"/><path d="M199.75,85.56a2.77,2.77,0,0,0-2.64,1.85,33.74,33.74,0,0,1-10.26,15.18c-.07-11-.82-23.47-1.33-29.41-.52-7.74-6.41-8.34-8.2-8.34-3.43,0-6.84,1.62-7.75,3.69-12.25,26.56-15.94,28.63-16.78,28.63-.35,0-.73-.85-.73-3.21,0-7.06,3.57-21.39,5-23.89a4.43,4.43,0,0,0,.7-2.15c0-3.25-4.31-4.4-8-4.4-1.81,0-3.38.39-4,1-3.13,3.32-5.15,11.07-5.15,19.75,0,9.57,2.44,20.75,9.34,20.75,6.05,0,13.39-9.27,21.83-27.57.39,7,1,18,1,29.25V110a64.2,64.2,0,0,1-5.95,2.94l-2.12,1c-12,4.9-19.12,14-19.12,24.5,0,9.44,6,17.28,14.23,18.66l2.72.19c18.12,0,23.82-29.66,24.35-47.51,7.51-5,12.46-11.55,15.58-20.58l.19-.76,0-.19A2.87,2.87,0,0,0,199.75,85.56Zm-27,31c-.22,25.61-6.63,34.75-12.13,34.75-4.76,0-9.1-6.33-9.1-13.28,0-3.75,1.42-13,14.51-18.46A64,64,0,0,0,172.72,116.59Z" transform="translate(-1.9 -0.01)"/><path d="M518.13,98.68a2.79,2.79,0,0,0-2.65,1.84c-4.55,12.14-14.22,25.72-20.36,25.72-5.16,0-6.24-9.8-6.24-18,0-7.68,1-17.94,2.89-30.52a33.24,33.24,0,0,0,9.44,1.66c3.74,0,6.19-1.15,7.7-3.61l.46-1.31,0-.25a3.06,3.06,0,0,0-3.07-2.88A2.55,2.55,0,0,0,504,72.64c-.36.6-1.36.94-2.74.94a35.38,35.38,0,0,1-8.63-1.67c.78-5.29,1.86-11,2.57-14.21l.19-2.53c0-4.3-2.21-6.87-5.92-6.87-3.55,0-7.2,2.69-7.81,5.79l-2.52,14.53a28.42,28.42,0,0,0-7.54-1.31c-4.9,0-5.92,2.6-5.92,4.78a12.28,12.28,0,0,0,.81,4.29,3,3,0,0,0,2.64,2,3.06,3.06,0,0,0,3.07-2.88l-.25-1.05a7.73,7.73,0,0,1-.55-1.69.68.68,0,0,1,.39-.08,28.21,28.21,0,0,1,6.52,1.65,208.41,208.41,0,0,0-2.85,26,2.64,2.64,0,0,0-.79,1.08c-11.49,27.07-14.92,29.82-15.55,30.1a3.13,3.13,0,0,1-.23-1.47,47.27,47.27,0,0,1,1.51-9c1-5,1.91-10.1,1.91-13.84,0-3.54-.69-5.79-2.16-7.05a10.18,10.18,0,0,0-7-2.29,22.76,22.76,0,0,0-7.85,1.55,43.08,43.08,0,0,0,5.65-7.35,16.77,16.77,0,0,0,3-9.38c0-5.46-3.52-9.73-8-9.73s-9,4.24-11.75,11.33a29.64,29.64,0,0,0-2.34,10.94,19.18,19.18,0,0,0,.35,3.73A2.74,2.74,0,0,0,431,100.2c-8.33,13.88-13.66,20.91-15.86,20.91-.83,0-1.31-1.72-1.31-4.72,0-6,1.65-16.22,3.55-28.11l.44-2.79.2-1.8c0-4.37-3-5.92-5.74-5.92-3.39,0-6.92,2.2-9,5.5-3.13-4.73-7.16-7.22-11.75-7.22-9.2,0-19.22,10.17-23.12,23.32A2.83,2.83,0,0,0,365,101c-9.18,13.11-17,20.32-21.92,20.32-3.05,0-4.73-2.76-4.73-7.76a36.26,36.26,0,0,1,1.37-9.44c11.74-3.25,15.93-11.76,15.93-18.7a13.42,13.42,0,0,0-1.41-6.06c-3.35-6.7-20.34-5.57-27.3,19.24a23.06,23.06,0,0,0-5.36-.47h0l-5.66.16C315.45,75,313,42.33,310.74,19.38a4.8,4.8,0,0,0-5-4.73c-2.39,0-5,1.54-5,4v.27c2.12,21.68,4.71,55.44,5.12,79.8-4.9.41-8.34,1-11.39,1.49a75.82,75.82,0,0,1-13.2,1.29c.35-5.39.52-10.62.52-15.55,0-50.71-15.67-73.41-31.21-73.41-8.79,0-15.43,7.53-15.43,17.52,0,9.52,5.78,19.6,16.21,28.31a2.46,2.46,0,0,0,1.88.8,3.05,3.05,0,0,0,2.88-3.07A2.5,2.5,0,0,0,255.13,54c-8.88-7.09-14-15.81-14-23.9,0-6.15,3-10.62,7.2-10.62,6.76,0,19.55,13.27,19.55,63.47,0,5.66-.17,11.83-.52,18.33-5.66-.59-6.68-1.25-6.83-1.41v-.76a2.73,2.73,0,0,0-2.88-2.69A2.8,2.8,0,0,0,255,98.78l-.19,1.45c0,5.52,8.36,6.51,12.12,6.81-1,15.55-2.87,26.79-3.82,28.87l-.51.77v.24c0,2.12,4.17,3.83,7.63,3.83,4,0,6.53-2,7.43-5.75,1.72-7.64,2.84-20.46,3.39-27.9h.78a83,83,0,0,0,14.51-1.32c2.85-.44,5.78-.9,9.6-1.26v3.31c0,17.89-1.39,25.7-2.75,27.17a1.73,1.73,0,0,0-1.81,1.73c0,1.76,3,4.21,5.92,4.21a5.31,5.31,0,0,0,4-1.94c2.15-2.15,4.61-7.56,4.61-30.6V104c2.13-.14,4-.14,5.67-.14a20.63,20.63,0,0,1,4,.2,45.79,45.79,0,0,0-.82,8.51c0,10.69,4.89,17.33,12.76,17.33,8.71,0,19.05-7.64,29.3-21.59,0,.6-.05,1.2-.05,1.79v2.15c.64,9,4.3,14.61,9.53,14.61,7.09,0,16.28-10.36,26.05-29.28-.42,5.2-.6,8.94-.6,12.33,0,13.77,2.76,20.75,8.2,20.75,5.89,0,14.2-8.69,24.72-25.84a9.5,9.5,0,0,0,2.5,2.19,8,8,0,0,0,3.58.84,12.09,12.09,0,0,0,6-2.11,8.05,8.05,0,0,1,1.92-1s.22.23.22,1.33c0,2.13-.7,6.07-2.27,14.12a62.3,62.3,0,0,0-1.15,11.17c0,8.22,2.56,13.33,6.68,13.33,3.24,0,7-3,11.49-9.28,4.35-6.41,8.75-15.28,12-22.44,1.74,19.24,9.62,22.22,14.32,22.22,10.6,0,23.91-14,31-32.73l.19-.76,0-.19A2.93,2.93,0,0,0,518.13,98.68ZM448.71,83.5c0,4.29-5.85,10.69-9,13.81l-.09-1.64c0-9.53,4.14-14.8,7-14.8a1.74,1.74,0,0,1,1.63,1A3.06,3.06,0,0,1,448.71,83.5ZM382.2,116.93c-1.13,0-1.3-3-1.3-4.73,0-8.81,5.25-30.38,12.13-30.38,2.2,0,4.66,2.61,7.11,7.57C390,109.68,384.2,116.93,382.2,116.93ZM341.73,97c0-1.22,1.19-4.34,2.23-6.93,3.3-8,5.15-8.25,5.3-8.26s.59.82.59,2.45a15.86,15.86,0,0,1-1.64,6.52c-1,2.1-5.16,6.37-6.45,6.56A2,2,0,0,1,341.73,97Z" transform="translate(-1.9 -0.01)"/></svg>