<svg id="katman_1" data-name="katman 1" xmlns="http://www.w3.org/2000/svg" viewBox="0 0 566.93 449.51"><defs><style>.cls-1{fill:#d65b16;}</style></defs><path d="M150.5,77.84h-9.81V210.93H161V185h21.81v45.1h-74V210.93h10V77.84h-10V58.72H150.5Z" transform="translate(0 -58.72)"/><path d="M199.51,210.93h10.06V77.84H199.51V58.72h41.92V77.84H231.38V210.93h10.05v19.12H199.51Z" transform="translate(0 -58.72)"/><path d="M303.19,77.84h-9.56l17.65,98.29h1.47L330.4,77.84h-9.56V58.72h41.91V77.84h-11L324.27,230.05H299.76L272.31,77.84H261.52V58.72h41.67Z" transform="translate(0 -58.72)"/><path d="M428.2,151.37H414.71v59.56h24V185H458.1v45.1h-75V210.93h9.8V77.84h-10V58.72h73.78v44.12H437.27v-25H414.71v54.41H428.2v-12.5H449v43.39H428.2Z" transform="translate(0 -58.72)"/><path class="cls-1" d="M238.83,251.14h-.05a68,68,0,1,0,.05,0Zm-9.54,22.08c.13-.79.25-1.58.37-2.36.29-1.8.55-3.5.87-5.23.27-1.48.59-3,.89-4.43.23-1.07.45-2.15.67-3.22a1.13,1.13,0,0,1,1.18-1,61.86,61.86,0,0,1,20.48,1.57c1.46.36,2.92.83,4.33,1.28.63.2,1.26.41,1.9.6l.26.11.26.12-.07.61h-1.36a21.89,21.89,0,0,0-2.43,0,16.46,16.46,0,0,0-10.31,4.14,14.49,14.49,0,0,0-4.22,7.19,1.09,1.09,0,0,1-1.27,1h-.08c-2.59-.05-5.22-.05-7.77-.06h-3.75ZM207.74,265a61.59,61.59,0,0,1,20.87-7.44l.43-.07-.15.4a101.35,101.35,0,0,0-4.31,15.77l0,.16-13.17,2.52V276c0-3.24-.41-7.37-3.69-10.65l-.23-.23ZM183.2,290.44c.45-.73.9-1.46,1.34-2.19,1-1.62,2-3.28,3.08-4.87a59.48,59.48,0,0,1,8.93-10.21,66.65,66.65,0,0,1,7.84-6.13.78.78,0,0,1,1.19.22,9.66,9.66,0,0,1,2,6.44,20,20,0,0,1-.14,2.2c0,.39-.08.77-.11,1.16a1.11,1.11,0,0,1-.87,1,68.53,68.53,0,0,0-10.33,4.41A62.4,62.4,0,0,0,184,290.77l-.16.12-.21.16-.51-.43Zm1.5,56.92c.06.51.14,1,.22,1.53l.13.91-.57.22-.1-.19L184,349c-.31-.57-.62-1.14-.91-1.71a61.22,61.22,0,0,1-5.75-17.26,62.74,62.74,0,0,1-.64-17,68,68,0,0,1,2.82-13.45,3.9,3.9,0,0,1,1.26-1.86,68.21,68.21,0,0,1,12.75-9.21c2.16-1.17,4.45-2.18,6.66-3.16l1.37-.61c.9-.4,1.83-.73,2.74-1.05l1.25-.45.14-.05.42.37-.06.16-.58,1.63c-.41,1.17-.83,2.37-1.29,3.54a110.43,110.43,0,0,1-8.54,16.83c-.47.79-1,1.57-1.44,2.35a62.33,62.33,0,0,0-4.07,7.24,65.45,65.45,0,0,0-4.45,13.43A57.83,57.83,0,0,0,184.7,347.36Zm49.88,34.12-1.28-.12c-.92-.08-1.78-.16-2.66-.27a60.74,60.74,0,0,1-11.79-2.73,62.46,62.46,0,0,1-13.64-6.53,59.29,59.29,0,0,1-10.38-8.33,73.13,73.13,0,0,1-5.13-5.83,4,4,0,0,1-.56-2c0-.14,0-.28,0-.42a77.08,77.08,0,0,1-.41-15.34,61.84,61.84,0,0,1,3.46-15.67,63.55,63.55,0,0,1,6.64-13.44,98.41,98.41,0,0,0,8-15,61.91,61.91,0,0,0,4.15-13.47,1,1,0,0,1,.66-.77c3.39-.64,6.85-1.26,10.2-1.87l1.29-.23a.38.38,0,0,1,.22,0l.1,0,.21.06,0,.21c-.06.47-.13.93-.2,1.38-.15,1-.3,2-.39,2.93l-.26,2.87c-.36,3.91-.74,7.95-1,11.93a164.86,164.86,0,0,0-.14,18.58c.32,6.24.63,11,1,15.47.31,3.56.77,7.33,1.46,11.85a138.69,138.69,0,0,0,5.13,22.46c.92,2.84,2,5.67,3.14,8.4.27.67.53,1.34.8,2s.7,1.54,1.11,2.34c.2.38.4.76.6,1.16l.19.4ZM279,367a64.31,64.31,0,0,1-16.55,10,63.66,63.66,0,0,1-23.12,4.67h0a1,1,0,0,1-1.05-.73c-.38-1.12-.78-2.24-1.17-3.35-.73-2.07-1.49-4.21-2.14-6.35a128.29,128.29,0,0,1-3.59-16.43c-1.21-7.34-2-14-2.51-20.36-.35-4.59-.63-9.14-.94-14.57-.44-7.68-.5-15.73-.18-24.6.11-3.3.34-6.63.56-9.86.09-1.42.19-2.84.27-4.26,0-.44.07-.88.11-1.35l.07-1h12.62l.08,1.11c0,.57.08,1.11.13,1.64a44.2,44.2,0,0,0,4.84,16.1,57.88,57.88,0,0,0,7.25,10.78c.69.83,1.43,1.67,2.13,2.47,1.08,1.22,2.18,2.48,3.2,3.78,2.26,2.88,4.48,5.86,6.6,8.86a101.91,101.91,0,0,1,7.1,11.7,74.69,74.69,0,0,1,6,14.81,50.57,50.57,0,0,1,1.86,13.75A3.78,3.78,0,0,1,279,367Zm22.17-51.34a61.91,61.91,0,0,1-14,43.07c-.6.72-1.23,1.44-1.84,2.14l-.86,1-.11.13-.5-.2,0-.66c0-.33.05-.67.06-1a47.69,47.69,0,0,0-1.39-13.41A76.36,76.36,0,0,0,276.17,330a111.62,111.62,0,0,0-9-14.66c-2.85-4-5.93-7.6-9.36-11.58a48,48,0,0,1-7.57-12.12,40.86,40.86,0,0,1-3-10.56c0-.24-.05-.47-.07-.71v-.8l.29,0,.89.13c.63.09,1.25.17,1.86.27a91.33,91.33,0,0,1,13,3.16,73.45,73.45,0,0,1,20.3,10,56.59,56.59,0,0,1,9.92,9A42.44,42.44,0,0,1,301,315.1,2.06,2.06,0,0,1,301.15,315.68Zm-2-12.74,0,.21.24,1.36L297,301.05a50.62,50.62,0,0,0-10-10.71,69.72,69.72,0,0,0-18.21-10.59,85.88,85.88,0,0,0-18.89-5.19l-1.61-.26-1.12-.18.07-.27a10.29,10.29,0,0,1,2.86-5.24,12.7,12.7,0,0,1,6.57-3.09,31,31,0,0,1,9.24-.21c.77.08,1.53.18,2.29.28s1.73.23,2.6.31a4.13,4.13,0,0,1,2,.9l.33.22a63.16,63.16,0,0,1,11.54,9.79,62.24,62.24,0,0,1,10.07,14.62A63,63,0,0,1,299.11,302.94Z" transform="translate(0 -58.72)"/><path d="M140.21,266.33h-7.79V372h16.16V351.39h17.33v35.82H107.12V372h8V266.33h-8V251.14h33.09Z" transform="translate(0 -58.72)"/><path d="M336.79,266.33h-7.6l14,78.05h1.17l14-78.05H350.8V251.14h33.29v15.19h-8.76l-21.8,120.88H334.06l-21.8-120.88H303.7V251.14h33.09Z" transform="translate(0 -58.72)"/><path d="M436.06,324.72H425.35V372h19.08V351.39h15.38v35.82H400.24V372H408V266.33h-8V251.14h58.59v35H443.26V266.33H425.35v43.21h10.71v-9.93h16.55v34.46H436.06Z" transform="translate(0 -58.72)"/><path class="cls-1" d="M5.79,497.21V420.5H0v-11H34.75l9.61,11v28l-7.77,9.18,7.77,8.62v30.94l-8.62,11H0v-11ZM18.37,420.5v32.35H31.79V420.5Zm0,43.51v33.2H31.79V464Z" transform="translate(0 -58.72)"/><path class="cls-1" d="M54.53,497.21h5.79l15-76.71h-4v-11H95.5v11H91.69l14.83,76.71h5.37v11H89.43v-11h6.21l-3.81-19.35H75l-3.68,19.35h5.94v11H54.53ZM77.28,466.7H89.57l-6.08-31.79Z" transform="translate(0 -58.72)"/><path class="cls-1" d="M120.22,482.24H132.8v15h16.95V462.46L127,457.65,120.22,449V420.5l9.75-11h23l9,11v14.41H149.75V420.5H132.8v26.13l22.74,4.81,6.5,7.63v38.14l-9,11H130l-9.75-11Z" transform="translate(0 -58.72)"/><path class="cls-1" d="M198.91,459.92l-7.63,15.68v21.61h5.8v11H172.92v-11h5.79V420.5h-5.79v-11h24.16v11h-5.8v31.64l15.26-31.64h-5.65v-11h21.76v11h-4.52l-10.88,22.18,14.13,54.53h4.8v11H211.49Z" transform="translate(0 -58.72)"/><path class="cls-1" d="M261.07,462.88H253.3v34.33h13.85v-15h11.16v26H235.08v-11h5.65V420.5h-5.79v-11h42.52v25.43H266.3V420.5h-13v31.36h7.77v-7.2h12v25h-12Z" transform="translate(0 -58.72)"/><path class="cls-1" d="M303.88,497.21h5.79V420.5h-9v14.41H289.47V409.48h53v25.43H331.29V420.5h-9.05v76.71H329v11H303.88Z" transform="translate(0 -58.72)"/><path class="cls-1" d="M357.56,497.21V420.5h-5.79v-11h34.75l9.61,11v28l-7.77,9.18,7.77,8.62v30.94l-8.62,11H351.77v-11Zm12.57-76.71v32.35h13.43V420.5Zm0,43.51v33.2h13.43V464Z" transform="translate(0 -58.72)"/><path class="cls-1" d="M406.3,497.21h5.79l15-76.71h-4v-11h24.16v11h-3.81l14.83,76.71h5.37v11H441.2v-11h6.21l-3.81-19.35H426.79l-3.68,19.35h5.94v11H406.3Zm22.75-30.51h12.29l-6.08-31.79Z" transform="translate(0 -58.72)"/><path class="cls-1" d="M496,420.5h-5.65v76.71h11.73v-15h12.57v26H472v-11h5.8V420.5H472v-11h24Z" transform="translate(0 -58.72)"/><path class="cls-1" d="M548.28,420.5h-5.65v76.71h11.72v-15h12.58v26H524.26v-11h5.8V420.5h-5.8v-11h24Z" transform="translate(0 -58.72)"/></svg>