<svg id="katman_1" data-name="katman 1" xmlns="http://www.w3.org/2000/svg" viewBox="0 0 566.93 286.72"><defs><style>.cls-1{fill:#d65b16;}</style></defs><path d="M45.63,269.22l-8.81-8.71H22.18l-4.46,4.33v-4.33H0v15.24H4v52.33H0v15.3H36.82l8.81-8.66V309.19l-5.3-7.33,5.3-7.17ZM31.84,328.08H17.72V309.62H31.84Zm0-33.81H17.72V275.81H31.84Z" transform="translate(0 -140.12)"/><path d="M104.35,328.08,92.22,260.51H72.89L60.76,328.08H57.12v15.3H78.76v-15.3h-4l1.19-6.7H89.14l1.19,6.7H86.45v15.3h21.64v-15.3Zm-25.59-22,3.79-21.25,3.85,21.25Z" transform="translate(0 -140.12)"/><path d="M157,334.39c-1.3.26-4,3.17-7.12,9h2.27l5.95-5.87A6.82,6.82,0,0,0,157,334.39ZM161,282.51v-22H147.2v4.33l-4.41-4.33H128.44l-8.86,8.71v31.69l8.86,8.71H147.2v18.46H133.32v-6.7H119.58v13.34l8.86,8.66H137c6.85-14.18,16-21.8,24-23.57V303l-8.77-8.7H133.32V275.81H147.2v6.7Z" transform="translate(0 -140.12)"/><path d="M225.07,275.81v-15.3H201.76v15.3h1.89L190.1,295V275.81H194v-15.3h-21.6v15.3h3.93v49.13c3,3.52,5.63,9.21,6.37,18.44H194v-15.3H190.1V319.9l6.63-9.44,8.2,17.62h-3.17v15.3h1.93c6-5.4,12.77-8.68,19.53-8.68a17,17,0,0,1,1.85.09v-6.71h-4.6L206,297.22l15.11-21.41Z" transform="translate(0 -140.12)"/><path d="M280,282.51v-22H236.55v15.3h3.93v52.27h-3.93v11.63a26.78,26.78,0,0,1,3.61,3.67h1.19a17.67,17.67,0,0,1,12.78-6.13c4.68,0,8.15,2.29,9.65,6.13H280v-22H266.26v6.7h-12V309.62H273V294.27H254.22V275.81h12v6.7Z" transform="translate(0 -140.12)"/><path d="M340.43,282.51v-22H291.48v22h13.74v-6.7h3.83v52.27h-3.92v15.3h2.49a13.07,13.07,0,0,1,6.61-1.87,11.36,11.36,0,0,1,6.28,1.87h6.27v-15.3h-3.94V275.81h3.84v6.7Z" transform="translate(0 -140.12)"/><path d="M351.91,334.51v8.87h1.46C353.31,337.13,352.31,335.08,351.91,334.51Zm45.63-65.29-8.81-8.71H374.08l-4.45,4.33v-4.33H351.91v15.24h4v44a15.37,15.37,0,0,1,13.74,3.62V309.62h14.12v18.46H373.37c2,3.51,3.59,8.43,4.14,15.3h11.22l8.81-8.66V309.19l-5.31-7.33,5.31-7.17Zm-13.79,25H369.63V275.81h14.12Z" transform="translate(0 -140.12)"/><path d="M456.26,328.08l-12.13-67.57H424.8l-12.13,67.57H409v8.48a23.64,23.64,0,0,1,9-1.86,20.29,20.29,0,0,1,12.68,4.47V328.08h-4l1.19-6.7h13.17l1.18,6.7h-3.88v13.19a16.94,16.94,0,0,1,10.56-4c4.69,0,8.16,2.29,9.66,6.13H460v-15.3Zm-25.58-22,3.79-21.25,3.83,21.25Z" transform="translate(0 -140.12)"/><path d="M499.68,321.38v6.7H489.21V275.81h3.92v-15.3H471.49v15.3h3.93v52.27h-3.93v15.3h42v-22Z" transform="translate(0 -140.12)"/><path d="M553.14,321.38v6.7H542.67V275.81h3.94v-15.3H525v15.3h3.93v52.27H525v15.3h42v-22Z" transform="translate(0 -140.12)"/><path class="cls-1" d="M389.23,255.34A99.43,99.43,0,0,0,388.7,245a113.81,113.81,0,0,0-4.76-22.78,6.82,6.82,0,0,0-2.13-3.15,115.68,115.68,0,0,0-21.6-15.6c-3.66-2-7.53-3.69-11.28-5.35l-2.32-1c-1.51-.66-3.11-1.23-4.65-1.78l-2.1-.75-.24-.09-.72.64.1.26c.33.91.65,1.83,1,2.76.69,2,1.41,4,2.19,6a187.81,187.81,0,0,0,14.46,28.5c.79,1.33,1.62,2.66,2.44,4A106.94,106.94,0,0,1,366,248.81c1,2.17,1.89,4.35,2.71,6.53H359a110.85,110.85,0,0,0-7.81-14.22,166.11,166.11,0,0,1-13.46-25.48,104.55,104.55,0,0,1-7-22.81,1.73,1.73,0,0,0-1.1-1.29c-5.76-1.1-11.61-2.15-17.29-3.17l-2.18-.4a.85.85,0,0,0-.37.05l-.17.06-.35.11.05.35c.11.78.23,1.56.33,2.34.25,1.63.51,3.3.65,5l.46,4.86c.61,6.61,1.24,13.45,1.67,20.19a278.25,278.25,0,0,1,.24,31.47c-.06,1-.11,2-.15,3H302c.69-12.67.78-25.92.25-40.51-.21-5.57-.59-11.24-.95-16.7-.17-2.4-.33-4.81-.48-7.21,0-.75-.11-1.49-.17-2.29l-.13-1.6H279.19l-.14,1.88c-.07,1-.13,1.87-.22,2.78A74.85,74.85,0,0,1,270.62,219a97.36,97.36,0,0,1-12.27,18.26c-1.17,1.41-2.42,2.82-3.62,4.19-1.81,2.06-3.68,4.19-5.41,6.4-1.94,2.47-3.88,5-5.77,7.54H230.91q2.16-3.24,4.51-6.52c4.83-6.72,10-12.86,15.86-19.61a81.72,81.72,0,0,0,12.82-20.52,69.57,69.57,0,0,0,5.16-17.89c.05-.4.08-.8.12-1.2v-.15c0-.13,0-.25,0-.42v-.78l-.48.07-1.51.21c-1.07.14-2.12.29-3.16.47a155.31,155.31,0,0,0-22,5.33,125,125,0,0,0-34.38,17,95.54,95.54,0,0,0-16.81,15.18,72.13,72.13,0,0,0-13,21.91,3.86,3.86,0,0,0-.2,1q-.19,2.91-.19,5.92h-9.43c.06-63.49,51.69-115.18,115.17-115.22h.09A115.42,115.42,0,0,1,398.7,255.34ZM237.5,164.11c-1.3.13-2.58.31-3.88.48-1.45.18-2.94.38-4.41.52a7.14,7.14,0,0,0-3.37,1.52l-.56.38a105.56,105.56,0,0,0-36.61,41.34,105.25,105.25,0,0,0-7.35,19.5,1.51,1.51,0,0,0-.08.36l-.41,2.29,4-5.86a85.56,85.56,0,0,1,17-18.14,118.48,118.48,0,0,1,30.83-17.94,145.73,145.73,0,0,1,32-8.78c.91-.14,1.8-.28,2.73-.44l1.89-.32-.1-.44a17.53,17.53,0,0,0-4.84-8.88c-2.76-2.61-6.19-4.22-11.14-5.23A52.18,52.18,0,0,0,237.5,164.11Zm62.05,13.39c-.21-1.34-.42-2.67-.62-4-.48-3-.93-5.93-1.47-8.86-.47-2.5-1-5-1.52-7.5-.37-1.81-.76-3.64-1.12-5.45a1.92,1.92,0,0,0-2-1.71,104.73,104.73,0,0,0-34.69,2.65c-2.48.61-4.94,1.4-7.33,2.17l-3.22,1a1.78,1.78,0,0,0-.43.18l-.44.2.1,1h.38l1.93,0c1.35,0,2.75,0,4.12,0,7.17.54,12.87,2.84,17.45,7a24.46,24.46,0,0,1,7.15,12.17,1.85,1.85,0,0,0,2.16,1.62h.14c4.38-.07,8.84-.08,13.16-.09h6.34Zm36.5-13.92A104.64,104.64,0,0,0,300.71,151l-.72-.12.25.69a173.39,173.39,0,0,1,7.3,26.71l0,.28,22.3,4.25v-.5c0-5.48.69-12.47,6.25-18l.39-.39Zm41.58,43.09c-.77-1.23-1.52-2.47-2.28-3.71-1.66-2.74-3.38-5.56-5.22-8.25A100.94,100.94,0,0,0,355,177.42,111.06,111.06,0,0,0,341.72,167a1.28,1.28,0,0,0-2,.38c-2.27,2.75-3.34,6.21-3.36,10.9a35.39,35.39,0,0,0,.25,3.73c.07.65.13,1.31.19,1.95a1.82,1.82,0,0,0,1.46,1.74,117.48,117.48,0,0,1,17.5,7.49,105.53,105.53,0,0,1,20.56,14,1.51,1.51,0,0,0,.26.2l.38.28.84-.73Z" transform="translate(0 -140.12)"/><path d="M480.38,371.54a3,3,0,0,0-2.55,1.71c-13.61,22.68-21,31.75-24.67,31.75-2.26,0-3.12-3.12-3.12-8.22,0-9.64,2.84-26.65,6-46.22l.28-2.55c0-5.39-3.4-7.66-7.37-7.66-4.82,0-10.49,3.41-13.33,9.36-4.82-8.22-11.05-11.91-17.58-11.91-17,0-35.72,24.67-35.72,49.62v3.12c.07,1,.18,2,.3,2.92-5.2,12.3-9.05,17.5-11.64,17.5-2,0-3.12-3.69-3.12-10.21,0-6.81,1.42-17,4-28.64a109.78,109.78,0,0,0,2.83-23.25c0-17.86-6.52-26.37-15.31-26.37-11.06,0-25.52,14.75-31.75,43.1-1.7-13.89-7.09-21-13.33-21-6.52,0-13.89,7.65-18.43,23.25V356.23c0-6-4.25-8.79-8.79-8.79-4.82,0-9.64,3.12-9.64,8.51v26.53c-10,15.92-15.86,22.52-19,22.52-2.27,0-3.12-3.12-3.12-8.22,0-9.64,2.83-26.65,5.95-46.22l.28-2.55c0-5.39-3.4-7.66-7.37-7.66-4.82,0-10.49,3.41-13.32,9.36-4.82-8.22-11.06-11.91-17.58-11.91-17,0-35.73,24.67-35.73,49.62v3.12c.07,1,.18,2,.3,2.92-5.2,12.3-9,17.5-11.64,17.5-2,0-3.12-3.69-3.12-10.21,0-6.81,1.42-17,4-28.64a109.21,109.21,0,0,0,2.84-23.25c0-17.86-6.52-26.37-15.32-26.37-11.05,0-25.51,14.75-31.75,43.1-1.7-13.89-7.09-21-13.33-21-6.52,0-13.89,7.65-18.43,23.25V356.23c0-6-4.25-8.79-8.79-8.79-4.82,0-9.64,3.12-9.64,8.51v42c0,4,4.25,8.23,8.79,8.23,4.25,0,9.07-3.69,10.78-14.46,4.25-25.24,9.07-38.57,11.9-38.57,1.71,0,2.56,4,2.56,11.63a240.6,240.6,0,0,1-1.7,24.38v1.14a8.58,8.58,0,0,0,8.78,8.5c4.26,0,8.79-3.11,9.93-10.77,5.1-34.59,17-56.71,23.53-56.71,2.84,0,4.54,4,4.54,12.76,0,6.52-.85,15.31-3.12,26.94s-3.4,21.26-3.4,29.2c0,17.87,5.1,26.65,12.19,26.65,6.7,0,15.2-7.9,23.07-23.48,2.23,4.87,5.63,7.89,10.1,7.89,9.08,0,23-12.76,40.55-48.49-.85,9.36-1.42,17.3-1.42,24.39,0,19.56,3.69,29.77,11.06,29.77,6.35,0,15.24-7.64,26.65-23.88v4.88c0,4,4.25,8.23,8.79,8.23,4.25,0,9.07-3.69,10.77-14.46,4.26-25.24,9.08-38.57,11.91-38.57,1.7,0,2.55,4,2.55,11.63a237.68,237.68,0,0,1-1.7,24.38v1.14a8.59,8.59,0,0,0,8.79,8.5c4.26,0,8.79-3.11,9.93-10.77,5.1-34.59,17-56.71,23.53-56.71,2.84,0,4.54,4,4.54,12.76,0,6.52-.85,15.31-3.12,26.94s-3.4,21.26-3.4,29.2c0,17.87,5.1,26.65,12.19,26.65,6.7,0,15.2-7.9,23.07-23.48,2.23,4.87,5.63,7.89,10.1,7.89,9.07,0,23-12.76,40.55-48.49-.85,9.36-1.42,17.3-1.42,24.39,0,19.56,3.69,29.77,11.06,29.77,8.22,0,20.7-12.76,37.43-40.54l.56-1.71A3.14,3.14,0,0,0,480.38,371.54ZM209.32,398.76c-2,0-3.12-2.26-3.12-8.22,0-12.47,7.66-46.5,19.29-46.5,3.68,0,7.65,3.69,11.9,12.48C228,375.23,215,398.76,209.32,398.76Zm194.79,0c-2,0-3.12-2.26-3.12-8.22,0-12.47,7.66-46.5,19.28-46.5,3.69,0,7.66,3.69,11.91,12.48C422.82,375.23,409.78,398.76,404.11,398.76Z" transform="translate(0 -140.12)"/></svg>