<svg id="katman_1" data-name="katman 1" xmlns="http://www.w3.org/2000/svg" viewBox="0 0 566.93 379.72"><path d="M158.7,243.16c-1.2-3.3-3.25-5-6.1-5.18-2.7.07-6.33.3-10.83.66a2.82,2.82,0,0,1-.4,0c-.56,1.79-1.06,3.67-1.5,5.67a111.06,111.06,0,0,0-2.57,17.24c7.13-.45,12.31-.95,15.54-1.46,3.39-.83,5.39-2.5,6-5a25.85,25.85,0,0,0,1-5.89A17,17,0,0,0,158.7,243.16ZM115,106.21c-.52-5-2.92-8.22-7.16-9.77A34,34,0,0,0,96.6,94.13c-9.56,0-14.81,3.58-15.8,10.73q-1,20.88-1,62,0,19.95.25,35.5a34,34,0,0,1,7.89,7.07,38.26,38.26,0,0,1,8.85,24.69v.24l0,.21c-.59,8.38-3.18,13.65-7.93,16.17A25,25,0,0,1,83,253a24.27,24.27,0,0,0,.83,3.15q3,4.52,14.34,5.3l2.19.14c.28-3.2.7-6.64,1.22-10.26A86.22,86.22,0,0,1,109.76,226c1-2,2-3.87,3.1-5.68,0-10.31.19-21.52.45-33.57l.92-39.06q.88-28.42.89-38.26Z" transform="translate(-0.3 -93.56)"/><path d="M262.69,223a4.71,4.71,0,0,0-.28-.4,11.4,11.4,0,0,0-2.33,3.69,69.4,69.4,0,0,0-4.69,17.14c-.12.8-.26,1.58-.37,2.33a74,74,0,0,0,10-15.35A20.13,20.13,0,0,0,262.69,223Zm7-95.59a60.48,60.48,0,0,0-17.49-24.22Q240.93,94,224.34,94q-16.35,0-28.28,9.21a67.57,67.57,0,0,0-19.25,24.22,98.48,98.48,0,0,0-9.37,29.08,173.41,173.41,0,0,0-2,24.2,137.27,137.27,0,0,0,1,16.46,38,38,0,0,1,13.67,7.11,55,55,0,0,1,15.94,22,96.38,96.38,0,0,1,7.09,32.7,38.89,38.89,0,0,0,5.7,1.9,104.5,104.5,0,0,1,5.39-25.12,18.91,18.91,0,0,1-7.89-7.6,60.27,60.27,0,0,1-7.67-21.75,150.31,150.31,0,0,1-2.15-25.24,157.93,157.93,0,0,1,3.84-35.88q3.15-14,8.74-23c3.74-6,8.19-9,13.39-9,5.94,0,10.74,3,14.39,9A60.43,60.43,0,0,1,244.37,144a151.8,151.8,0,0,1,2.1,25.12,162.74,162.74,0,0,1-2.61,29.78,42,42,0,0,1,16.9-3.37,37.15,37.15,0,0,1,14.88,2.85,159.6,159.6,0,0,0,2.45-26.44Q278.09,147.45,269.73,127.44Z" transform="translate(-0.3 -93.56)"/><path d="M341.7,187.38q-3.18-15.47-6.78-35-4.51-24-9.49-48.67c-1.27-4.59-3.67-7.32-7.15-8.19a36.17,36.17,0,0,0-8-1.29,22.35,22.35,0,0,0-9.73,2.26c-4.73,2.33-7.15,6.54-7.22,12.64Q294.6,130,301,160.36t13.38,56.22c.42,1.53.82,3,1.22,4.45a59.33,59.33,0,0,1,14.13-16.77,39,39,0,0,1,14-7.2C343.09,194.16,342.41,190.94,341.7,187.38Zm17.21,59.28.14-.47a31,31,0,0,0,1.18-9.2c0-6.12-.94-10.81-2.85-14a2,2,0,0,0-.26-.4,11.21,11.21,0,0,0-2.33,3.69,70.67,70.67,0,0,0-4.71,17.14,133.36,133.36,0,0,0-1.88,17.85v.54a16.17,16.17,0,0,0,11.3-6.73,11.67,11.67,0,0,1-1-4.83A16.52,16.52,0,0,1,358.91,246.66Zm33.6-147.4A12.53,12.53,0,0,0,385.4,97c-4.22,0-7,1.93-8.36,5.77q-7.92,29.25-21.45,90.64c-.16.73-.33,1.44-.47,2.14h.35c7.4,0,13.89,1.72,19.26,5.14a8.46,8.46,0,0,1,.73.49q4.77-19.74,10.6-45.91,9.84-44.39,9.84-49.34A7.54,7.54,0,0,0,392.51,99.26Z" transform="translate(-0.3 -93.56)"/><path d="M471.23,241.25c-4.42.38-8.35.56-11.74.56-4.81,0-7.59-.8-8.34-2.37a81.42,81.42,0,0,1-1.53-12.76c-1,0-2.14-.05-3.29-.05a54.31,54.31,0,0,0-10.18.68c-.11.64-.23,1.51-.32,2.71-.33,3.58-.5,9.09-.5,16.41,0,4.92.09,8.9.28,11.89,1.39.07,3.06.12,4.85.12l5.49-.1c1.79.07,3.51.07,5,.21l.33,0a12.83,12.83,0,0,1,8,4.12c1.89-.05,3.77-.14,5.65-.24,3.72-.21,7-.4,9.77-.59v-2.42c0-6.76,0-12.9.08-18.46C473.61,241.06,472.43,241.15,471.23,241.25Zm9.26-146.32a189.42,189.42,0,0,0-25.41-1.37q-34.18,0-37.12,7.91-1.48,8.48-1.49,34.33,0,28.24,1.16,60.18a141.94,141.94,0,0,1,17.23-.85c5.37,0,10.17.14,14.36.45a6.38,6.38,0,0,1,.8-3c1-.69,2.9-1.09,5.75-1.18s6-.19,9.25-.19h8.26a8,8,0,0,0,6.48-4.4,15,15,0,0,0,1.86-6.55q0-7.56-7.44-8.68a50.19,50.19,0,0,0-5.3-.24l-6.9.12q-4.17,0-7.67-.21-4.63-.47-5.21-2.62-.66-6.07-.66-19.19c0-9.25.19-16.19.62-20.83s1.1-7.39,2.09-8.29q3.71-2.51,18.06-2.49a96,96,0,0,1,11.39.56h.45c3.11,0,5.51-1.69,7.23-5.08a15.52,15.52,0,0,0,1.93-7.44Q490.21,96.63,480.49,94.93Z" transform="translate(-0.3 -93.56)"/><path d="M443.12,343.5c-2,.09-4.12.18-6.16.21,0,.21-.1.44-.17.66A155.55,155.55,0,0,1,422,383l-12.66-7.75c1.69-12.76,2.56-22.69,2.61-29.5,0-.85,0-1.72,0-2.63v-.66c-3.22-.83-6.8-2.52-8.64-6.1l-.28-.57-.14-.59c-1-4.07-1.86-12.76-2.61-26.43-.22,0-.43,0-.64-.05-2.52-.12-5.11-.28-7.75-.5-.21,0-.42,0-.63,0A62.88,62.88,0,0,1,389,316c-3.58,10.2-9.77,17.94-18.34,23-5,3-11.37,4.57-18.72,4.57a40,40,0,0,1-19-4.48,5.48,5.48,0,0,1-.31.52c-4.87,8.48-10.05,17.35-15.46,26.6l-63-.37q-7.87-12.43-15.45-25.83c-.21-.33-.4-.68-.59-1a37.72,37.72,0,0,1-6.07-4.12,56.31,56.31,0,0,1-15.63-21.66c-1.34-3.16-2.5-6.22-3.44-9.18a5.51,5.51,0,0,1-.61.11c-4.9,1.06-10.48,2-16.67,2.74-.24,0-.47.07-.71.09-.87,2.17-1.83,4.31-2.87,6.47a62.52,62.52,0,0,1-16.29,21.45,36.87,36.87,0,0,1-16.64,8v.61c0,.5,0,1,0,1.46,0,6.85.78,17.14,2.31,30.56l-12.81,7.7a154.85,154.85,0,0,1-15.8-42.85,6.69,6.69,0,0,1-.16-.75,38.81,38.81,0,0,1-7.42-4.62c-1.11-.89-2.19-1.81-3.22-2.8,0,.33.09.68.16,1,12,79.41,80.82,140.39,163.51,140.18,78.49-.21,144.34-55.66,160.63-129.35,0-.21.09-.42.14-.63C445.43,343.35,444.32,343.42,443.12,343.5ZM253.34,457.16c-.89.92-1.81,1.93-2.75,3a156.68,156.68,0,0,1-97.28-69.12L166,383.47c4.9,3.86,8.9,6.92,11.92,9.07,7.39,6,21,13.27,40.47,21.68A174.93,174.93,0,0,0,235,437.41,180.28,180.28,0,0,0,254.47,456C254.12,456.41,253.72,456.76,253.34,457.16ZM286,453.09c-4.78,0-12-.21-21.49-.73-8-6.66-15.75-13.28-22.51-21a164.63,164.63,0,0,1-14.86-20.45c6.88-10,15.54-21.71,25.78-34.85l.8-1.06,63.88.38c10.17,13.14,18.88,25.38,25.94,36.4-4.85,8-10.19,16.36-16.43,23.35a124.83,124.83,0,0,1-19.45,17.07C298.31,452.81,291,453.11,286,453.09Zm34.16,7.06c-1.08-1.27-2.12-2.42-3.15-3.48a124.21,124.21,0,0,0,17-15.42c6.88-7.73,12.74-16.93,18-25.78,15.58-7.75,26.48-13.59,32.39-17.31a178.43,178.43,0,0,0,20.49-14.85l12.45,7.62A156.7,156.7,0,0,1,320.11,460.15Z" transform="translate(-0.3 -93.56)"/><path d="M56.21,338q-17,0-27.7-10.55-8.27-8.16-10.28-16.51a20.54,20.54,0,0,1-.27-3.49A13.62,13.62,0,0,1,20.8,299q3.68-5,6.79-6a18.64,18.64,0,0,1,4.31-.92,4.7,4.7,0,0,1,4.4,2.94A85.11,85.11,0,0,0,41,305.14q6.71,13.2,15.23,13.21a9.76,9.76,0,0,0,7.29-2.66,9.92,9.92,0,0,0,3-5.32,28.17,28.17,0,0,0,.41-4.13,17.16,17.16,0,0,0-1.1-5.41,33.16,33.16,0,0,0-8.57-12.66,125.86,125.86,0,0,0-12.8-10.37,131.78,131.78,0,0,1-12.34-9.63,46.93,46.93,0,0,1-9.68-11.84,34.71,34.71,0,0,1-4-17.15,39.81,39.81,0,0,1,16.69-31.6,32.79,32.79,0,0,1,19.63-5.92q19.27,0,28.62,11.47a32.33,32.33,0,0,1,7.53,21q-.65,9.18-4.82,11.38a16.2,16.2,0,0,1-7.38,2.2,13.8,13.8,0,0,1-4-.64c-3.36-1.1-5.11-3-5.23-5.6l.09-2.93q-.36-10.65-4.77-16.52-2.94-3.84-8.62-3.85c-4.34,0-7.56,2.08-9.63,6.24a26.51,26.51,0,0,0-3.12,11.83q.18,10.56,8.8,19a113.91,113.91,0,0,0,12.57,10.46,149.69,149.69,0,0,1,11.93,9.77,48,48,0,0,1,9.54,12.06,35.86,35.86,0,0,1,4.22,17.8,33.88,33.88,0,0,1-3.85,15.78A30.65,30.65,0,0,1,75,333.25Q67.22,338,56.21,338Z" transform="translate(-0.3 -93.56)"/><path d="M151.47,338.25q-13.49,0-22.93-7.47a51.71,51.71,0,0,1-15-19.68q-7.8-17.43-7.8-39.26a140.59,140.59,0,0,1,1.66-19.68,79.86,79.86,0,0,1,7.61-23.62,54.68,54.68,0,0,1,15.64-19.68,36.51,36.51,0,0,1,23-7.48q13.49,0,22.66,7.48a48.87,48.87,0,0,1,14.22,19.68,92.91,92.91,0,0,1,6.79,36.14,132.78,132.78,0,0,1-2.07,22,91.24,91.24,0,0,1-7.93,24.4,57.51,57.51,0,0,1-14.91,19.68A31.91,31.91,0,0,1,151.47,338.25Zm-.83-20.54q6.24,0,10.74-7.34a63.74,63.74,0,0,0,7.15-18.81,131.63,131.63,0,0,0,3.12-29.17A124.64,124.64,0,0,0,170,242a49.24,49.24,0,0,0-6.14-17.66q-4.45-7.33-11.7-7.34-6.33,0-10.87,7.34T134.13,243A128.55,128.55,0,0,0,131,272.2a122.17,122.17,0,0,0,1.75,20.51A49.35,49.35,0,0,0,139,310.37Q143.49,317.71,150.64,317.71Z" transform="translate(-0.3 -93.56)"/><path d="M257.19,338.25q-12.85,0-21.84-7.47a51.1,51.1,0,0,1-14.17-19.68A76.37,76.37,0,0,1,215,288.81q-1-10.1-1-15.78,0-24.85,9.45-44.49a55.63,55.63,0,0,1,15.18-19.68,34.19,34.19,0,0,1,22.06-7.48q9.45,0,16.1,4.22a29,29,0,0,1,10.33,11.24q3.66,7,4,11.93t.32,6.19a51.09,51.09,0,0,1-2.39,15.14c-1.41,3.6-3.22,5.65-5.46,6.14a25.9,25.9,0,0,1-4.9.74,12.06,12.06,0,0,1-6.2-1.7,5.47,5.47,0,0,1-2.89-5,10.38,10.38,0,0,1,.28-2.29,36.33,36.33,0,0,0,1.47-11q0-10.83-3.67-17-2-3.4-5.23-3.4-4.5,0-7.8,7.29a75.13,75.13,0,0,0-5.14,18.63,137.4,137.4,0,0,0-2,18.67q-.14,7.33-.14,9.26,0,25.41,6.24,38.62,3.39,7.35,9.08,7.34a9.81,9.81,0,0,0,7.25-2.75,20.63,20.63,0,0,0,4.4-6.65,62.75,62.75,0,0,0,2.66-7.48q.82-2.66,1.56-4.49,1.85-3.76,5.14-3.76a7,7,0,0,1,5.92,3.34,12.78,12.78,0,0,1,2.34,7.48q0,4.41-2.75,12.11-4.79,13.57-16.06,20.18Q266.82,338.26,257.19,338.25Z" transform="translate(-0.3 -93.56)"/><path d="M351.9,338.25q-12.86,0-21.84-7.47a51,51,0,0,1-14.17-19.68,76.37,76.37,0,0,1-6.15-22.29q-1-10.1-1-15.78,0-24.85,9.45-44.49a55.63,55.63,0,0,1,15.18-19.68,34.19,34.19,0,0,1,22.06-7.48q9.45,0,16.1,4.22a28.93,28.93,0,0,1,10.32,11.24q3.67,7,4,11.93t.33,6.19a51.09,51.09,0,0,1-2.39,15.14q-2.11,5.4-5.46,6.14a25.86,25.86,0,0,1-4.91.74,12,12,0,0,1-6.19-1.7,5.47,5.47,0,0,1-2.89-5,9.81,9.81,0,0,1,.28-2.29,36.64,36.64,0,0,0,1.47-11q0-10.83-3.67-17-2-3.4-5.23-3.4-4.5,0-7.8,7.29a74.69,74.69,0,0,0-5.14,18.63,137.4,137.4,0,0,0-2,18.67q-.13,7.33-.14,9.26,0,25.41,6.24,38.62,3.39,7.35,9.08,7.34a9.83,9.83,0,0,0,7.25-2.75,20.8,20.8,0,0,0,4.4-6.65,62.75,62.75,0,0,0,2.66-7.48q.82-2.66,1.56-4.49,1.84-3.76,5.14-3.76a7,7,0,0,1,5.92,3.34,12.78,12.78,0,0,1,2.34,7.48q0,4.41-2.76,12.11Q379.23,327.79,368,334.4,361.53,338.26,351.9,338.25Z" transform="translate(-0.3 -93.56)"/><path d="M432.29,338.53q-6,0-14.21-.51T408,333.94q-1.65-6.78-2.93-34.49-1.56-34.49-1.56-64.12,0-21,1.19-27.89,2.38-6.42,30.18-6.42a155.57,155.57,0,0,1,20.64,1.1q7.89,1.37,7.89,8.9a12.74,12.74,0,0,1-1.56,6q-2.1,4.13-5.87,4.13h-.36a76.24,76.24,0,0,0-9.27-.46q-11.65,0-14.68,2-1.18,1.1-1.7,6.74t-.5,16.93A155.93,155.93,0,0,0,430,262c.31,1.16,1.71,1.87,4.22,2.11q2.85.18,6.24.18l5.59-.09c1.59,0,3,.06,4.32.19q6,.91,6.05,7.06a12.2,12.2,0,0,1-1.51,5.32,6.55,6.55,0,0,1-5.28,3.58h-6.69c-2.7,0-5.2,0-7.53.14s-3.88.41-4.68,1q-.92,1-.91,9.54,0,3.76.18,9.36.56,15,1.65,19.17c.61,1.28,2.88,1.93,6.79,1.93,2.75,0,5.93-.16,9.54-.46s7.07-.46,10.37-.46q5.5.36,5.5,7.52a16.21,16.21,0,0,1-1.1,5.28,5.46,5.46,0,0,1-4.4,3.71q-4,.56-15.51,1.19Q437.53,338.54,432.29,338.53Z" transform="translate(-0.3 -93.56)"/><path d="M541.59,338.62c-.43,0-1.7-.08-3.81-.23s-4.2-1.6-6.28-4.36q-2.94-5.31-6.52-18.34-2.28-8.18-5-16.24-5.88-17.25-11.74-17.25l-1.2.19q-.45,9.54-.64,24.12-.18,15.14-.82,22.75a9.4,9.4,0,0,1-6.79,7.71,15,15,0,0,1-4.59.73q-11.66,0-12.75-10.73-.82-21.29-.83-67.52,0-35.68.83-48.16Q482.88,201,512.51,201q24.86,0,34.12,18.16a46.32,46.32,0,0,1,4.68,21q0,17.34-8.62,29.45-4.5,6.33-10.37,8.44,3.21,3.12,6.52,11.78t6.51,19q3.48,10.92,6.7,19.36a8,8,0,0,1,.55,2.75,6.16,6.16,0,0,1-2.75,5.32A14.7,14.7,0,0,1,541.59,338.62Zm-33.3-67.24A13.37,13.37,0,0,0,518,267.3a28.62,28.62,0,0,0,6.52-10.51,45.89,45.89,0,0,0,2.75-15.87,40.64,40.64,0,0,0-1.74-11.69,22.72,22.72,0,0,0-6-10q-4.28-4.12-11.24-4.13Z" transform="translate(-0.3 -93.56)"/><path d="M562.8,129.46a11.07,11.07,0,0,0-9.68-2.45c-9.8,2.11-18.93,16.17-22.77,22.84.22-7.16-.08-15.31-3.4-22.33a12.17,12.17,0,0,0-5.83-6,14.61,14.61,0,0,0-9.24-.6l-.05,0c-2.65.64-4.95,1.21-6.84,3.51-6.37,7.81-4.8,19.86-2.35,28.59.08.3.16.6.26.89l.21.75c4.12,14.38,14.75,34.11,15.06,34.27l.07,0,.09,0a21.13,21.13,0,0,0,5.16-3.17c.52-.4,1-.77,1.51-1.12,4.16-2.93,8.46-6.18,12.78-9.68,5.49-4.44,10.13-8.56,14.21-12.59,4.63-4.58,9.39-9.54,12.27-15.36a20.38,20.38,0,0,0,1.3-3.25c.16-.55.35-1.12.53-1.67l.14-.41a13.92,13.92,0,0,0,1-5.46C567,133.93,565.57,131.7,562.8,129.46Z" transform="translate(-0.3 -93.56)"/><path d="M63.17,132.92a20,20,0,0,0-.5-3.45c-.14-.56-.26-1.15-.38-1.72l-.08-.43a14,14,0,0,0-1.88-5.21c-1.32-1.94-3.68-3.15-7.21-3.71a11.08,11.08,0,0,0-9.61,2.7c-7.45,6.72-8.35,23.45-8.35,31.15-3.38-6.31-7.7-13.23-14.08-17.66a12.13,12.13,0,0,0-8-2.28,14.56,14.56,0,0,0-8.31,4.09l0,0c-2,1.88-3.69,3.51-4.17,6.45-1.64,10,5.73,19.61,12.21,26,.21.22.44.43.67.64L14,170c10.75,10.42,29.79,22.22,30.14,22.2h.08l.06-.07a21.22,21.22,0,0,0,2.9-5.32c.25-.6.5-1.17.75-1.72,2.15-4.61,4.25-9.58,6.26-14.76a189.18,189.18,0,0,0,6-18C61.92,146.08,63.57,139.41,63.17,132.92Z" transform="translate(-0.3 -93.56)"/></svg>