<svg id="katman_1" data-name="katman 1" xmlns="http://www.w3.org/2000/svg" viewBox="0 0 566.93 503.84"><path d="M130.55,225.3h-.14a50.41,50.41,0,0,0,.13,100.81h.14a50.41,50.41,0,0,0-.13-100.81ZM151.16,266c3.91-3,7.56-5.62,10.84-7.73a46.58,46.58,0,0,1,6.95,4.9,37.22,37.22,0,0,1,5.12,5.82c.19,2.79.28,5,.27,6.51s-.06,3.61-.21,6.45a58.72,58.72,0,0,1-6.32,6.76,48.91,48.91,0,0,1-6.07,4.41c-3-2.07-6.53-4.68-10.46-7.74l-.23-.18Zm24.53-.28a37.46,37.46,0,0,0-4.56-5,51.86,51.86,0,0,0-7.82-5.48c-2.35-4.71-4.11-8-5.24-9.81a53.52,53.52,0,0,0-4.44-6.13l2.11-3.45A47.53,47.53,0,0,1,176.47,265Q176.05,265.38,175.69,265.72Zm-27.79.42-.12,18.92c-5.34,3.37-11.17,6.66-17.32,9.78L114,285.31l0-.72c0-.42,0-.84,0-1.31l0-1.21,0-1.39c0-.38,0-.75,0-1.13V275.9l0-2.54.19-6.09.06-1.21,0-.46,16.4-9.4C135.67,259,141.5,262.38,147.9,266.14Zm2.87-28.41a74.76,74.76,0,0,0-8.84-.78H141c-2.07,0-4.94.17-8.53.51a44,44,0,0,0-7.6-3.62,50.39,50.39,0,0,0-7.69-1.84c.1-.49.19-1,.26-1.58a47.15,47.15,0,0,1,13-1.84h.12a47.2,47.2,0,0,1,22.38,5.64ZM129,253.31c-7.69,4.4-13.4,7.67-16.59,9.51-4.13-1.56-8.27-3.3-12.33-5.17a36,36,0,0,1,.46-7.14,52.12,52.12,0,0,1,2.7-8.88c3-2,5.15-3.35,6.52-4.11A57.66,57.66,0,0,1,115,235a51.71,51.71,0,0,1,8.78,2,38.78,38.78,0,0,1,6.65,3.15A115.47,115.47,0,0,1,129,253.31Zm-16.67,34.84L129,297.77a79,79,0,0,1,1.49,13.34,86.34,86.34,0,0,1-8.07,3.22,56.93,56.93,0,0,1-7.34,1.84c-2.8-1.39-4.9-2.48-6.24-3.24-1.6-.9-3.5-2.05-5.64-3.42a40.35,40.35,0,0,1-2.4-7.63,51.13,51.13,0,0,1-.68-8.31C104.37,291.63,108.49,289.81,112.37,288.15Zm11.06,29.28a87.62,87.62,0,0,0,9.06-3.65,84.55,84.55,0,0,0,9.17.52,88,88,0,0,0,9.17-.69l2.14,3.57a47.31,47.31,0,0,1-22.3,5.66h-.2A46.89,46.89,0,0,1,117.36,321c-.1-.69-.21-1.31-.32-1.86A58.24,58.24,0,0,0,123.43,317.43Zm32.91-8.92c1.83-2.25,4-6.38,6.6-12.28a45.72,45.72,0,0,0,12.54-10.82l.17.17c.25.24.53.5.83.76a47.48,47.48,0,0,1-20.7,29.18l-2.1-3.5Q155.38,309.86,156.34,308.51Zm-59-58.58a38.92,38.92,0,0,0-.51,8.13c-2.82,4-4.76,7-5.76,8.81a55.75,55.75,0,0,0-3.24,6.91l-4.42.06a47.53,47.53,0,0,1,14.85-32.51,9.3,9.3,0,0,0,1.4.57A50.14,50.14,0,0,0,97.37,249.93Zm.21,52.55a40.37,40.37,0,0,0,2,6.85c-.49.13-1,.3-1.6.48a46.72,46.72,0,0,1-14.58-32.7l4.39-.06a77.25,77.25,0,0,0,4,8.66,63.49,63.49,0,0,0,5,7.47A55.85,55.85,0,0,0,97.58,302.48Z" transform="translate(-0.02 -31.57)"/><path d="M13.75,65.08c-.67-3.4-2.73-8.44-6.19-14.85-1.78-3.39-2.72-5.94-2.67-7.59.18-7.15,9.46-8.72,14.88-10.12a66.38,66.38,0,0,1,11.37-1c8.28,0,17.84.84,23.91,7.15a8,8,0,0,1,2.18,5.34c0,1.91-1.39,5.68-4.18,11.08A47.36,47.36,0,0,0,48.2,67.78a107.77,107.77,0,0,0-1.51,20.67,304.76,304.76,0,0,0,3.52,42.05c.22,1.1,2.26,6,5.68,14.48,2.88,7.18,6,14.84,6,22.62.07,16.21-18.91,15-30.43,11.73C18.67,175.67,1,166.22,1,151.43c0-7.69,4.55-15,8.19-21.85a42.7,42.7,0,0,0,3.68-8.07,190.5,190.5,0,0,0,2.85-32.89A117.18,117.18,0,0,0,13.75,65.08ZM41.68,38.55c-2.39,0-3.8,1.05-3.85,2.71s1.28,3,3.85,3.85a6.36,6.36,0,0,0,2.17.46c2.28,0,3.63-1,3.68-2.72s-1.28-3.24-3.85-4.08A9.21,9.21,0,0,0,41.68,38.55Z" transform="translate(-0.02 -31.57)"/><path d="M90.71,133.7a231.79,231.79,0,0,0,3.68-37.11c.08-8.9-1.11-17.82-2.51-26.69-1.24-5.78-3.71-11.34-6.19-16.68C83.91,49.09,83,45.93,83,43.86c.17-6.69,8.68-10,14.39-11a56.06,56.06,0,0,1,11.87-1.3c9.8-.12,22.15,2.93,26.09,13.16.33.73,1.33,5.18,3,13.31,2.82,13.07,6.17,45.13,14.21,48.44.83.34,2.28-4,2.51-11.94v-.42c0-7.57,0-15.37-1.34-22.79-1.09-6-3.66-11.83-6.19-17.39-1.89-4.22-2.88-7.47-2.84-9.62.13-6.94,8.42-10.46,14.38-11.42a51.65,51.65,0,0,1,11.71-1.33c8.34,0,17.66,1.07,23.91,7.17a9.38,9.38,0,0,1,2.18,5.36c.06,2.23-1.56,6.59-4.35,12.85A60.18,60.18,0,0,0,188,70.69a124.82,124.82,0,0,0-1.5,21.78c.1,16,.89,32.14,3.68,47.86,1.57,8.89,5.08,17.09,8.86,25.29,2.12,4.24,3.23,7.49,3.18,9.67-.24,9.9-13.47,15-21.74,16.22a78.84,78.84,0,0,1-9.7,1.06c-8.41.29-25.93.18-25.92-12.66,0-16-3.54-32.28-7.19-47.72-1.53-6.47-5.43-27.2-10.7-27.86-.75-.09-1.69,3.1-1.68,8.45a264.63,264.63,0,0,0,1.84,27.62c1.11,10.18,3.7,20.26,6.36,30.24a37.27,37.27,0,0,1,1.67,9.28c-.05,12.94-17.17,13.1-25.92,12.84-13.52-.4-30.5-7.13-30.6-22.59,0-6.51,2.73-13.26,5.52-19.15C86.79,145.54,89.46,139.78,90.71,133.7Z" transform="translate(-0.02 -31.57)"/><path d="M410.68,143.13c-6.57.24-25.54,1.36-25.92-9.06-.06-1.51,1.13-5.53,3.34-11.7a93.34,93.34,0,0,0,4.52-17.86c.92-6.43,2.09-13.06,2.17-19.52.07-5.7-.94-8.9-1.84-8.72-5.79,1.12-9.44,16.46-11.37,23.08-3.28,11.3-6.36,23.64-6.35,35.74q0,6-5.69,8.47a14.13,14.13,0,0,1-2,.59q-5.52,1.17-7.2-3.14a8.3,8.3,0,0,1-.5-2.8c0-12.75-3.56-25.4-7.19-37.46-1.54-5.13-6.06-20-10.7-20.06-.82,0-1.7,3.6-1.67,9.74a143.58,143.58,0,0,0,1.84,20.71,105.17,105.17,0,0,0,6.35,22.21,19.54,19.54,0,0,1,1.67,7c-.4,10.78-17.43,15.33-25.92,17.28-8.91,2-30.94,6.95-30.6-9,.14-6.41,3-12.62,5.52-18.24,2.35-5.23,5.16-10.64,6.52-16.35a177.94,177.94,0,0,0,3.18-33V78.1a60.68,60.68,0,0,0-2-16.2c-.67-2.32-2.67-6.44-6-12.56-1.9-3.33-2.91-6-2.84-7.79.25-6.11,9.46-8.33,14.38-9a69.48,69.48,0,0,1,11.87-1c8.33-.07,21.49,1,26.09,9,4.74,8.24,7.88,17.89,11.2,27,2.68,7.15,5,10.79,6.53,10.71,2-.1,4.2-4.1,6.35-11.12,2.06-6.72,4.12-13.65,6.69-20.15a48.5,48.5,0,0,1,3.51-7.14c5.54-7.79,17.74-8.31,26.26-8.27,7.91.05,16.92.26,23.91,4.55a5.17,5.17,0,0,1,2.17,3.48c.07,1.41-1.47,4.21-4.34,8.2a28.93,28.93,0,0,0-4.69,8.81,52.55,52.55,0,0,0-1.67,14.48c.21,9.63.68,20,2.85,29.54.75,3.34,3.11,8.07,7,14.21,3.33,5.24,5,9.73,5,13.33C441,142.1,419.93,142.8,410.68,143.13ZM330.91,39.91c.56,1.46,2.42,2.49,4.85,2.38,2.66-.12,4.57-1.26,5-2.6q0-1.84-3.51-2.56a8.48,8.48,0,0,0-1.51-.13q-3.84.06-4.68,2.28A2.57,2.57,0,0,0,330.91,39.91Zm87.3-1.06c.66,1.2,2.55,2.17,5,2.22,2.66.06,4.7-1,4.85-2.2.12-1-1.11-1.89-3.34-2.35a9.63,9.63,0,0,0-1.51-.14q-4,0-4.85,1.92A1.93,1.93,0,0,0,418.21,38.85Z" transform="translate(-0.02 -31.57)"/><path d="M521.59,40.66c4.72-5.8,13.46-7.9,20.56-8.59,2.23-.22,4.45-.29,6.53-.33,5.58-.1,12.71.19,15.71,5.68a3.56,3.56,0,0,1,.17,1.06,10.05,10.05,0,0,1-1,3.34c-1.12,1.84-4.91,5.3-11,10.06a108.47,108.47,0,0,0-11.2,9.77c-4.91,5.11-7.47,7.68-7.69,8a37.14,37.14,0,0,0-5.19,8c-2.27,5.09-3.1,11.86-3,17.28a86.81,86.81,0,0,0,1.51,15.54c.22.91,2.09,4.93,5.68,12.21,2.93,5.92,5.86,12.65,6,19.32.36,14.88-22.13,9.8-30.43,8.25-10.19-1.89-30.78-6.42-30.61-19.58.1-7,4.62-13.54,8.2-19.55q3.34-5.41,3.84-7.19a42.27,42.27,0,0,0,1.18-9.45c-.44-7.69-2.55-13.77-6.36-20.62a96.66,96.66,0,0,0-11.2-16.1c-3.86-4.37-8.94-8.17-13.72-11.8-3.57-2.79-5.85-4.87-6.85-6.28a3.06,3.06,0,0,1-.67-2c1.05-4.7,10-5.23,15.38-5.86,1.9-.1,3.93-.17,6-.14,9.69.12,20.13.63,29.27,4.66,2.78,1.23,4.84,2.61,5.68,4a11.26,11.26,0,0,1,1.34,5.68c0,.51.05,1.38,0,2.45s-.17,2.14-.17,2.75a23.47,23.47,0,0,0,1.18,7.9c1.67,5.13,3,7.78,4,7.86,1.22.09,2.17-2.28,2.84-7.13v-.32c.22-1.65.43-3.84.67-6.52C518.76,47.18,519.91,43,521.59,40.66Zm-26.09,0c-2.76,0-5,1.23-5.19,2.42s1.23,2.09,3.68,2.45a6.79,6.79,0,0,0,1.34.18c2.79-.22,4.4-1.08,4.85-2.57C499.62,41.68,497.85,40.63,495.5,40.61Zm48.33-.4c.55,1.68,2.42,2.95,4.85,3,2.61,0,4.82-1.27,5-2.57s-1.23-2.59-3.68-3a7,7,0,0,0-1.33-.2Q544.5,37.91,543.83,40.21Z" transform="translate(-0.02 -31.57)"/><path d="M69.68,243.44c.13,4.86-.91,11.86-4,16-1.57,1.87-3.32,2.65-5.09,2.23a6,6,0,0,1-1.69-.76q-2.36-1.54-5-8.38Q51,245,48.68,242.78a8.7,8.7,0,0,0-3-1.69c-3.56-1.14-6-.21-7.43,2.88a6,6,0,0,0-.39,2.09c0,2.49,2.48,6,7.43,10.26,1.05.85,2.7,2.21,5,4,6.88,5.61,13.93,11.18,19.56,18.09a41.7,41.7,0,0,1,8.48,24.06c.06,9-3,18.39-11,23.32-10.79,6.67-23.74,3.34-34.56-.93a52.35,52.35,0,0,1-29.6-30.25C.83,288.27.2,281.56,0,275c-.2-7.79,1.82-12.51,5.47-13.89a6.69,6.69,0,0,1,5.74.78c2.87,1.6,6,5.25,9.26,11a103.8,103.8,0,0,0,7,11.21A23,23,0,0,0,36,291.07c3.74,1.61,6.18,1.42,7.31-.44a2.34,2.34,0,0,0,.26-1.09c0-1.69-2.61-5.47-7.83-11.6-5.41-6.36-10.91-12.7-15.78-19.5-4.77-7.4-9.84-15.39-10.43-24.37-.5-7.44,5.28-12.24,10.43-15,7.47-4,17.4-3.67,25.82-1.71,1.17.28,5,2,11.22,4.69a29.67,29.67,0,0,0,4.57,1.55,6.61,6.61,0,0,1,1.69.7c3.13,1.93,5.13,6.51,6,13.79A44.9,44.9,0,0,1,69.68,243.44ZM55.34,226.56c-1.34-.3-2.18.19-2.22,1.24,0,1.37,1,2.86,2.87,4.28a5.88,5.88,0,0,0,2.22,1.18c1.33.28,2.17-.23,2.21-1.3.06-1.37-1-2.83-2.87-4.23A5.89,5.89,0,0,0,55.34,226.56Z" transform="translate(-0.02 -31.57)"/><path d="M257.15,226c.1,5.32-1.23,12.19-4,16.9-1.57,2.57-3.29,4.26-5.09,4.87a5.35,5.35,0,0,1-1.69.25c-1.57-.08-3.22-1.74-5-5-1.91-3.61-3.7-5.66-5.35-6.14a5.93,5.93,0,0,0-3,.17c-5.67,1.83-8.83,8.81-10.43,14.15-1.92,6.4-3.69,13-3.39,19.65.27,6.12.32,15.72,8.08,17.75a10.7,10.7,0,0,0,5.74-.36q4.57-1.43,9.52-9.51c3.14-5.13,5.18-8.3,6.13-9.46a13.72,13.72,0,0,1,5.87-4.32c4.44-1.46,7.65.62,9.65,6.2a30.53,30.53,0,0,1,1.57,10c.15,14.54-5.87,28.67-18.52,36.58A56.24,56.24,0,0,1,232.89,324c-13.74,3.91-30,4.76-39-9.24-5-7.76-6.16-16.5-6.39-25.25-.39-14.4,4-29.62,10.82-42.47,6.59-12.37,15-24,28.17-30.29a37.5,37.5,0,0,1,6.65-2.56c1.22-.34,5-.84,11.35-1.61a31.94,31.94,0,0,0,4.57-.89,5.72,5.72,0,0,1,1.69-.21q4.69.34,6,9.79A32,32,0,0,1,257.15,226Zm-14.34-8.3a2.8,2.8,0,0,0-2.22,2.38c-.05,1.3.95,2.18,2.87,2.48a4.42,4.42,0,0,0,2.21-.08,2.8,2.8,0,0,0,2.22-2.38c.05-1.29-1-2.16-2.87-2.46A4.43,4.43,0,0,0,242.81,217.72Z" transform="translate(-0.02 -31.57)"/><path d="M346.39,198.71a30,30,0,0,1-4.05,15.86c-1.56,2.43-3.28,4-5.08,4.6a5.42,5.42,0,0,1-1.7.24c-1.56-.07-3.22-1.65-4.95-4.73q-2.88-5.07-5.35-5.68a6.2,6.2,0,0,0-3,.24c-5.58,1.83-8.62,8.6-10.44,13.72-2,5.64-3.66,13-3.39,18.94s.4,15.24,8.09,16.9a11.26,11.26,0,0,0,5.74-.5c3-1,6.23-4.13,9.52-9.38a102.28,102.28,0,0,1,6.13-9.16,13.1,13.1,0,0,1,5.87-4.08q6.64-2,9.65,6.34a30,30,0,0,1,1.56,9.86c.15,14.45-5.89,28.4-18.52,36.17a61.3,61.3,0,0,1-14.34,6.36c-13.26,4-29.8,6-39-7.43-5.07-7.37-6.16-15.85-6.39-24.29-.39-14.25,4-29.35,10.83-42,6.62-12.29,15.09-23.68,28.17-30a39.26,39.26,0,0,1,6.65-2.59,114,114,0,0,1,11.35-1.74,37.32,37.32,0,0,0,4.56-.87,6.15,6.15,0,0,1,1.7-.2q4.69.3,6,9.08A24.58,24.58,0,0,1,346.39,198.71ZM332,191c-1.36.43-2.18,1.27-2.22,2.23-.05,1.2,1,2,2.87,2.25a4.7,4.7,0,0,0,2.22-.1c1.36-.43,2.17-1.27,2.22-2.23.05-1.18-1-2-2.87-2.25A4.7,4.7,0,0,0,332,191Z" transform="translate(-0.02 -31.57)"/><path d="M376.54,238.43a150,150,0,0,0,3-27,55.11,55.11,0,0,0-1.3-13.06q-.8-3.42-4.83-9.13c-1.39-2-2.21-3.78-2.09-4.86.82-7.2,14.11-9,20.48-9.55,15.18-1.39,30.27-2.18,45.52-2.24,3.21,0,6.25,2.45,9,7.27a25.65,25.65,0,0,1,3.52,12.81c0,5.69-1.57,8.95-4.7,9.81a5,5,0,0,1-1.56.23c-2.35,0-4.7-1.4-7.05-4.13-2.77-3.23-4.91-5.26-6.39-6.14A18,18,0,0,0,419.45,190a16.81,16.81,0,0,0-13.17,7,10.46,10.46,0,0,0-2.48,6.15c0,2.66,1.52,4,4.56,4.17a9.14,9.14,0,0,0,1.57,0c2-.18,4.48-1.47,7.43-3.8a7.84,7.84,0,0,1,3.52-1.88c2.18-.13,3.74,1.78,4.7,5.71a23.45,23.45,0,0,1,.52,5.06q0,7.89-3.39,10.84a3.32,3.32,0,0,1-1.83.78c-.78.06-2.32-.76-4.56-2.2a10,10,0,0,0-6.39-1.83c-3.35.4-5.18,2.15-5.22,4.92,0,3.11,1.52,6.16,4.57,9,2.08,1.67,4,2.49,5.74,2.35,5.18-.44,9.91-3.18,13.82-7.78a20.89,20.89,0,0,0,1.7-2.15c2.86-3.39,5.3-5.4,7.3-6.12a10.38,10.38,0,0,1,2.74-.42c6.59-.17,11,5.1,11.48,11.4a26.2,26.2,0,0,1,.26,3.7c0,8.51-2.9,16.43-6.39,23.89-2.31,4.9-6.51,10.9-12.53,11.54A396.39,396.39,0,0,0,391,274.82c-7.31,1.3-24,3.37-23.87-8.52,0-3.53,1.42-8.52,4.3-14.64C374.11,246,375.84,241.61,376.54,238.43Zm57.13-63.16c-1.36,0-2.18.63-2.22,1.49-.05,1.1.95,2.09,2.87,2.82a5.56,5.56,0,0,0,2.21.48c1.36,0,2.18-.6,2.22-1.46.05-1.1-1-2.1-2.87-2.84A5.41,5.41,0,0,0,433.67,175.27Z" transform="translate(-0.02 -31.57)"/><path d="M474.38,233.67a115.24,115.24,0,0,0,2.87-21.58,68.89,68.89,0,0,0-1.95-16.41c-.53-2.12-2.13-5.54-4.83-10.17-1.39-2.53-2.09-4.39-2.09-5.61,0-3,3.74-4.83,11.22-5a45.86,45.86,0,0,1,9.26.67q11.83,2,23.48,5c13.35,3.37,25.74,11.18,31.95,23.83a33.75,33.75,0,0,1,3.26,12.6c.33,5.22-3.57,12.16-9.39,12.76a7.27,7.27,0,0,0-2.09.8c-.08.31,1.22,2.65,3.65,6.75a167.6,167.6,0,0,1,11.22,25.71c.87,2.83,3,6.5,6.39,11.1,3.26,4.4,5.48,8.06,6.39,10.64a25.51,25.51,0,0,1,1.18,6.94c.41,7.27-6.39,9.41-12.13,6.71A106.4,106.4,0,0,1,543,294c-7.53-3.75-16.5-7.75-21.26-15.18a19.84,19.84,0,0,1-2.22-9.33c-.15-11.65-.42-24.48-4.83-35.65-1.65-4-3.54-6.45-5.6-7.09-2.38-.74-4.4.29-5.87,3a10.78,10.78,0,0,0-1.18,5.15,32,32,0,0,0,.79,7.32c.94,4.08,2.29,8.6,3.91,15.29s2.35,11,2.35,13.21c0,9.39-15.05,6.26-20.22,5.19-9.39-1.95-23.77-5.81-23.74-18.07a28.13,28.13,0,0,1,4.31-13.65A41.05,41.05,0,0,0,474.38,233.67Zm48.13-22.24c0-3.16-1.57-6.26-4.7-9.17a13.34,13.34,0,0,0-5.47-3.25c-5.31-1.47-8.74-.55-10.31,2.51a6.42,6.42,0,0,0-.52,2.51c0,3.26,2.13,6.08,6.39,8.68a25.56,25.56,0,0,0,5.22,2.25c4.52,1.35,7.48,1,8.87-1.27A4.8,4.8,0,0,0,522.51,211.43ZM525,189.56c-1.34-.38-2.18,0-2.22,1,0,1.14,1,2.42,2.87,3.73a7.55,7.55,0,0,0,2.22,1.25c1.34.41,2.17.08,2.21-.8.06-1.14-1-2.52-2.87-3.92A7.09,7.09,0,0,0,525,189.56Z" transform="translate(-0.02 -31.57)"/><path d="M17.68,464.82a199.86,199.86,0,0,0,5.52-46,118.11,118.11,0,0,0-2.4-25.12c-1.74-7.88-5.47-15.48-8.89-22.84C9.34,365.21,8,361,8.06,358.77c.51-12,32.68,1.5,37.74,3.14,27.49,8.4,55.16,12.18,83.88,12.41,8.07.2,12.85,7.05,16.58,12.91,4.2,6.59,6.29,15.2,6.49,23.15.16,6.52-1.5,15.6-8.65,18a9.76,9.76,0,0,1-2.89.47q-6.5,0-13-7.35c-5.12-5.83-9-9.68-11.77-11.43-5.86-3.89-12.93-5.77-19.71-6.56-8.59-1-17.9,1.24-24.28,7.44q-4.56,4.62-4.56,9.57c0,4.66,2.8,7.85,8.41,9.39a19.75,19.75,0,0,0,2.88.62c3.69.49,8.25-.79,13.7-3.9,2.89-1.61,5-2.37,6.49-2.25q6,.52,8.65,10.95a42,42,0,0,1,1,8.75c.08,6-.89,13.67-6.25,17.49a5.83,5.83,0,0,1-3.37.85c-1.44-.1-4.27-1.85-8.41-5s-8.29-4.95-11.78-5.31c-6.17-.62-9.52,1.49-9.61,6.13-.13,6.67,4.45,12,8.41,16.88,3.85,3.53,7.46,5.53,10.58,5.79a32.73,32.73,0,0,0,25.47-9.43,29.13,29.13,0,0,0,3.13-3.26c5.28-5.17,9.77-8.32,13.46-9.39a20.29,20.29,0,0,1,5-.56c11.67,0,19.72,7.29,21.15,18.88a37.93,37.93,0,0,1,.48,6.09c0,12.51-4.22,25.59-11.77,35.22-5.82,7.42-12.77,14.39-23.08,14.89q-39-.06-78.11-.26c-16.86-.55-44-3-44-24.93,0-8.48,3.92-16.33,7.93-23.59C11.78,478.35,15.74,472,17.68,464.82ZM123,379.29c-2.49,0-4,1-4.09,2.62-.1,2,1.76,3.93,5.29,5.35a9.89,9.89,0,0,0,4.08,1c2.49-.05,4-1.12,4.09-2.72.1-2-1.77-3.85-5.29-5.24A10.41,10.41,0,0,0,123,379.29Z" transform="translate(-0.02 -31.57)"/><path d="M198,476.6c3-13.18,5.49-26.64,5.29-40a153.72,153.72,0,0,0-3.61-29.35c-1.76-5.93-5.4-11.37-8.89-16.39-2.57-4-4-7.61-3.85-9.84.61-8.85,13.34-14,20.67-17.47a117.59,117.59,0,0,1,17.07-6.2c14.48-4.23,28.88-8.71,43.26-13.31,19.1-5.65,45.65-11.48,58.88,8.34,4,7.48,5.65,12.81,6,20.93.64,14.28-6.48,28.68-17.3,38.83-2.41,2.53-3.78,4-3.85,4.36-.14.71,2.24,3.83,6.73,9a143.91,143.91,0,0,1,20.67,38c2.06,6,7.17,10.26,11.78,14.13,4.35,3.65,9.53,7.42,11.77,12.81,1.49,3.56,2.1,8.13,2.17,13.11.2,14.62-7.7,26.94-22.36,30.34a90.88,90.88,0,0,1-18,1.47c-12,0-30.44.05-39.18-10.57-2.72-3.71-4-8.54-4.08-14.44-.2-20.37-.5-43.41-8.9-62.65-3-6.29-6.58-9.1-10.33-8.4-4.41.83-8.09,4.66-10.82,11a28.11,28.11,0,0,0-2.16,10.78,54.44,54.44,0,0,0,1.44,13.24c2.11,8.36,4.78,16.72,7.21,24.92,1.89,6.37,4.34,13.35,4.33,19.84,0,15.82-26.33,16.29-37.25,16.27-12.55,0-43.93-.55-43.74-19.36.07-7.22,4.25-13.76,7.93-19.85S196.06,483.55,198,476.6Zm88.69-81.94c0-6.35-2.89-10.71-8.66-13a15.66,15.66,0,0,0-10.09-.4c-8.07,2.17-15.72,7.58-19,15.54a18.92,18.92,0,0,0-1,5.42c-.12,6.62,5.66,10.48,11.78,10.82a33,33,0,0,0,9.61-.91c6.83-1.63,13.51-5.57,16.34-12.34A14.63,14.63,0,0,0,286.67,394.66Zm4.56-47c-2.51.87-4,2.59-4.08,4.63-.09,2.31,1.76,3.74,5.28,4a8.46,8.46,0,0,0,4.09-.21c2.51-.85,4-2.49,4.08-4.37.1-2.33-1.76-3.89-5.28-4.34A8.33,8.33,0,0,0,291.23,347.65Z" transform="translate(-0.02 -31.57)"/><path d="M528.74,437.16c4.07,15.16,10.84,30,21.87,41.44,6.57,6.72,10.33,10.69,11.29,12.21,3.42,4.76,5.13,12.28,5.05,17.9-.16,11.51-6,21.54-17.78,24.53-8,1.93-16.32,2.2-24.28,2.17C512.4,535.37,494,535,486,523c-3-4.77-4.21-12-4.09-17.38.05-2.17.05-6.39.24-12.39.18-5.58.44-11.25.48-16.84.06-7.91-.33-19-7.45-24.18a13.69,13.69,0,0,0-6.25-1.89c-16.34-.81-16.69,24.16-16.82,34.88,0,1.42-.08,3.77,0,6.77s.23,5.36.24,6.79c.05,12.89-3.36,28.09-16.59,33.55-6.54,2.5-13.76,3.14-20.66,3.15-12,0-26.41-3.24-30.77-16.06A45.54,45.54,0,0,1,382.13,505c-.07-7,1.71-14.68,7.21-19.55q1.2-.93,4.08-2.82c6.86-5.49,12.81-11.18,16.83-19.14q1.68-3.37,2.88-6.42A545.75,545.75,0,0,0,436,387.9c2.89-11,6.24-23,6.24-34.45,0-7.17-2.42-14.39-5.52-20.89-2.41-5-3.73-9.1-3.61-12,.41-10,17.51-12.23,25-12.8a70.42,70.42,0,0,1,15.62.3c13.61,1.92,27.29,6.23,37.49,16.4,3,3.08,4.89,6.14,5.53,9.12a27.45,27.45,0,0,1,.24,4C517.09,370.94,520,404.74,528.74,437.16Zm-66.1-27.07c.16,6.4,2.64,10.34,6.25,10.55,4.48.26,7.34-4.2,7.21-12.14-.11-6.81-1.6-28.51-6-28.82-3.13-.22-5.67,10.14-6.49,15.36A87.25,87.25,0,0,0,462.64,410.09Zm31-88.61c-3.58-.62-5.7.55-5.77,2.92s1.84,4.59,5.53,6.43a10.67,10.67,0,0,0,3.12,1.18c3.42.61,5.45-.44,5.53-2.79.08-2.55-1.85-5-5.53-6.88A14.72,14.72,0,0,0,493.65,321.48Z" transform="translate(-0.02 -31.57)"/><circle cx="250.34" cy="46.26" r="20.33"/><circle cx="231.85" cy="91.98" r="15.39"/><circle cx="268.56" cy="81.11" r="10.87"/><path d="M396,316.36c.49,3.35.76,6.76,1.52,10.05a56.18,56.18,0,0,0,3.33,10.86c3.17,6.88,9.37,9.81,16.39,11.36,1.08.24,2.16.48,3.24.75a2,2,0,0,1,1.2.94c-1.52.38-3,.89-4.55,1.14-10.64,1.7-16.71,8.16-19.11,18.36-.79,3.4-1.24,6.88-1.89,10.31a21.81,21.81,0,0,1-.7,2.35l-.75,0c-.19-1.82-.26-3.67-.59-5.47-.8-4.26-1.2-8.71-2.72-12.72-2.91-7.62-9.46-11-17-12.7l-5.23-1.19v-.63a43.1,43.1,0,0,1,4.44-1.13c12-1.91,18.28-9.34,20.06-21,.38-2.51.68-5,1-7.55l.48-3.65Z" transform="translate(-0.02 -31.57)"/><path d="M387,368.2c.31,2.08.48,4.19,1,6.23a35.06,35.06,0,0,0,2.06,6.74c2,4.27,5.82,6.09,10.17,7.05.67.15,1.34.3,2,.47a1.31,1.31,0,0,1,.75.58c-.94.24-1.87.55-2.83.7-6.6,1.06-10.36,5.07-11.85,11.4-.49,2.1-.77,4.26-1.17,6.39-.1.5-.29,1-.44,1.46l-.46,0c-.12-1.13-.16-2.28-.37-3.39-.5-2.65-.74-5.41-1.69-7.89-1.8-4.73-5.87-6.81-10.55-7.88l-3.24-.74v-.39c.92-.24,1.82-.56,2.75-.71,7.48-1.18,11.35-5.79,12.45-13,.24-1.56.42-3.13.63-4.69.1-.75.19-1.51.29-2.26Z" transform="translate(-0.02 -31.57)"/><path d="M361.38,337.12c.3,2.08.47,4.19.94,6.23a34.61,34.61,0,0,0,2.07,6.74c2,4.26,5.82,6.08,10.17,7.05.67.14,1.34.29,2,.46a1.27,1.27,0,0,1,.74.58c-.94.24-1.86.56-2.82.71-6.6,1.06-10.36,5.06-11.85,11.39-.5,2.11-.77,4.27-1.18,6.4a13.43,13.43,0,0,1-.43,1.46l-.47,0c-.11-1.13-.15-2.28-.36-3.4-.5-2.64-.74-5.4-1.69-7.89-1.8-4.73-5.87-6.8-10.55-7.88l-3.24-.74v-.39c.92-.24,1.82-.55,2.75-.7,7.48-1.18,11.35-5.79,12.45-13,.23-1.56.42-3.12.63-4.68.1-.76.19-1.51.29-2.27Z" transform="translate(-0.02 -31.57)"/></svg>