<svg id="katman_1" data-name="katman 1" xmlns="http://www.w3.org/2000/svg" viewBox="0 0 514.37 566.93"><path d="M470.36,107.06V7.42A7.66,7.66,0,0,0,462.46,0a8.27,8.27,0,0,0-5.59,2.15,7.31,7.31,0,0,0-2.32,5.26V559.53a7.67,7.67,0,0,0,7.91,7.41,8.11,8.11,0,0,0,5.58-2.18,7.12,7.12,0,0,0,2.32-5.23V460a256.64,256.64,0,0,0,0-352.92Zm0,21.55a243,243,0,0,1,49.83,100.57c-2,1.65-3.81,3.29-5.43,4.89a194.18,194.18,0,0,0-24.07-26.48A190.73,190.73,0,0,0,470.36,192Zm0,81c3.74,2.78,7.36,5.69,10.77,8.73,10.7,9.55,19.12,20.2,26.62,30.31,1,14.53,1.44,25.88,1.41,33.78.08,7.48-.31,18.75-1.13,33.53-10.38,12.49-20.7,24.56-32.76,35.08-1.56,1.37-3.2,2.74-4.91,4.15Zm0,163.71c5.25-3.87,10.09-7.7,14.37-11.45,11-9.67,20.49-20.27,29-30.37.56.59,1.15,1.18,1.75,1.77,1.43,1.39,3,2.84,4.71,4.31a243,243,0,0,1-49.87,100.78Z" transform="translate(-26.28 -0.01)"/><path d="M337.26,0a8.29,8.29,0,0,0-5.59,2.15,7.21,7.21,0,0,0-2.33,5.26v23a256.9,256.9,0,0,0-45.86-4.1h-.7A257.18,257.18,0,0,0,102.08,465.8a255.58,255.58,0,0,0,181.37,74.86h.69a257.92,257.92,0,0,0,45.2-4.1v23a7.68,7.68,0,0,0,7.92,7.41,8.15,8.15,0,0,0,5.56-2.18,7.06,7.06,0,0,0,2.33-5.23V7.42A7.67,7.67,0,0,0,337.26,0Zm-194.54,108c15.38-10.24,26.74-17.41,33.82-21.32a292.6,292.6,0,0,1,27.31-13.38c17.65,2.79,32.17,5.59,45.52,10.21,13.15,4.54,24.57,10.64,34.95,16.58a587.75,587.75,0,0,1-7.46,69.28c-40.12,23-69.88,40-86.05,49.3-21.54-8.12-43.23-17.21-64.48-27.05-.24-10.95-.09-23.89,2.37-37.54C131.28,139.94,136.17,125.43,142.72,108.05Zm-24.8-2.21a53.78,53.78,0,0,0,8.94,3.61c-4.4,12-9.62,27.33-12.29,42.13-2.78,15.32-2.88,29.72-2.59,41.82-14.52,20.73-24.5,36-29.67,45.4-5.25,9-10.92,21.15-16.85,36l-24.67.34A244.39,244.39,0,0,1,117.92,105.84Zm-1.54,353.83A240.73,240.73,0,0,1,40.73,289.52l24.51-.34c8.32,20.6,15.24,35.74,20.57,45,5.27,9.76,14,22.7,26,38.46.34,18.35,1.13,33.55,3.83,47.88,2.6,13.87,7.06,26.46,10.79,36.12C123.43,457.44,120,458.46,116.38,459.67Zm55.23,15.67c-8.35-4.7-18.22-10.67-29.33-17.78-4.61-11.44-9.7-24.85-12.49-39.7-2.44-13-3.2-26.87-3.55-43.56,22.35-10.18,43.91-19.72,64.14-28.36l86.17,49.86c4,17.81,6.63,41.32,7.83,69.89a438.72,438.72,0,0,1-42.22,16.89A303.64,303.64,0,0,1,204,492.16C189.44,484.93,178.55,479.28,171.61,475.34ZM284.1,526.29h-1a241.58,241.58,0,0,1-68.28-9.84c-.6-4.37-1.28-8.18-2-11.38a302.32,302.32,0,0,0,33.85-8.84,454.94,454.94,0,0,0,46.61-18.81c14.33,1.43,26.4,2.3,36.08,2.61v41.89A244.57,244.57,0,0,1,284.1,526.29Zm45.24-168.14Q306.89,370.83,283,382.92L197.41,333.4l-.14-4.35c-.06-2.16-.12-4.3-.17-6.69,0-2.09-.09-4.17-.14-6.25l-.1-7.1c0-1.95-.06-3.88-.07-5.81l0-7.47c0-1.79,0-3.57,0-5.34l0-1.29c0-1.69,0-3.39,0-5.07l.15-12.62,1-31.21c.11-2.06.21-4.11.31-6.19l.13-3c16.75-9.65,48.49-27.82,85.23-48.83,14.23,7.91,29.53,16.56,45.78,25.9Zm0-272c-9.71.31-21.86,1.15-36.21,2.52C281.54,81.93,268.79,75.06,254.05,70c-13.75-4.75-28.67-7.62-40.46-9.59a100.28,100.28,0,0,0,1.67-10,242.76,242.76,0,0,1,67.57-9.71h.63A243.6,243.6,0,0,1,329.34,45Z" transform="translate(-26.28 -0.01)"/></svg>