<svg id="katman_1" data-name="katman 1" xmlns="http://www.w3.org/2000/svg" viewBox="0 0 566.26 565.66"><path d="M525.4,171.57l-.11,0c-4.57,1.79-9.3,3.64-14.12,5.32a252.33,252.33,0,0,1,22.9,61.6c-2.09,1.74-4,3.46-5.73,5.14A203.75,203.75,0,0,0,503,215.81c-12.67-11.3-27.78-20.91-42.25-29.62l-5.21-10.36c-4.87-4-8.69-10.18-8.58-16.66-6.08-11.55-11-20.3-14.64-26.1C426.49,123.3,418.3,112,408,99.45l1.14-1.88c-5.83,1.42-10.7,1.35-14.75-.21a15.9,15.9,0,0,1-7.74-6.24C369.56,89,356,87.93,346.34,87.88c-1.53,0-3.16-.08-4.9-.08-11.25,0-26.84,1-46.32,2.81C282.93,83.58,269.51,76.34,254,71a217,217,0,0,0-25.16-6.81c-4.5,4.6-9,8-13.22,9l-1.16.14-2.56.07-.43-.06c-3.24-.52-9-2.69-10.91-11.42a25.33,25.33,0,0,1-.6-4.06,11.87,11.87,0,0,1-5.47,3.39l-.35.08a18.75,18.75,0,0,1-3.54.39l-7.19,10.83,3.18-11.42a10.4,10.4,0,0,1-6.55-7.51,19.73,19.73,0,0,1-.63-4.38,160,160,0,0,0-6.49,19.55c-.88,3.39-4.41,12.69-10,15l-.26.09a23.49,23.49,0,0,1-4,1l-2.27,5.38-.1-5.19h0a12,12,0,0,1-3.89-.63c-3.34,9.2-7,18.18-10.67,23.46,13.72-9.06,24-15.52,30.72-19.2a304.7,304.7,0,0,1,28.74-14.09c18.56,2.93,33.85,5.89,47.89,10.73,13.85,4.79,25.86,11.21,36.78,17.46A620.58,620.58,0,0,1,278,175.64c-42.23,24.16-73.54,42.06-90.54,51.88C164.78,219,142,209.41,119.59,199.06c-.24-11.52-.09-25.14,2.51-39.51,2.58-14.16,7.33-28.63,13.71-45.72a10.13,10.13,0,0,1-.89.55,17.66,17.66,0,0,1-13.51,1.67,17.11,17.11,0,0,1-2.24-.81c-4.4,12.18-9.33,27.14-12,41.61-2.91,16.14-3,31.28-2.7,44-15.29,21.81-25.8,37.89-31.23,47.77-5.53,9.52-11.5,22.26-17.74,37.89l-25.95.35a255.21,255.21,0,0,1,18-85.48,37.87,37.87,0,0,1-6.88-16.94c-.38.52-.79,1-1.24,1.57a31.43,31.43,0,0,1-3.78,3.85A270.76,270.76,0,0,0,284.94,566.3h.73C434.9,565.92,556,444.19,555.61,295A268.79,268.79,0,0,0,525.4,171.57ZM394.93,242.71c21.54-16.66,41.63-31,59.71-42.55,13.17,8,26.87,16.72,38.33,26.93,11.25,10.06,20.12,21.27,28,31.91,1,15.28,1.54,27.23,1.51,35.54.08,7.86-.34,19.74-1.21,35.29-10.91,13.15-21.78,25.85-34.47,36.92a269.46,269.46,0,0,1-33.57,24.38c-16.39-11.29-35.63-25.51-57.2-42.29l-1.71-1.33ZM193.71,301.59c0-1.79,0-3.57,0-5.34l.15-13.27,1-32.85q.14-3.25.32-6.52l.14-3.19c17.61-10.17,51-29.28,89.68-51.39,27.94,15.53,59.82,33.8,94.76,54.34l-.61,103.47c-29.21,18.44-61.08,36.42-94.77,53.48l-90-52.11-.14-4.58c-.08-2.27-.14-4.53-.18-7.05-.06-2.2-.11-4.38-.14-6.56l-.12-7.49c0-2,0-4.09-.08-6.12l0-7.86c0-1.88,0-3.74,0-5.62ZM109.12,481.07A253.42,253.42,0,0,1,29.51,302l25.8-.35c8.76,21.67,16,37.61,21.65,47.35,5.54,10.26,14.76,23.88,27.38,40.47.37,19.33,1.21,35.31,4,50.39,2.73,14.58,7.42,27.83,11.36,38C116.54,478.74,113,479.79,109.12,481.07Zm58.12,16.49c-8.78-4.93-19.16-11.22-30.85-18.72-4.84-12-10.22-26.13-13.15-41.75-2.58-13.72-3.37-28.29-3.72-45.84C143,380.53,165.71,370.49,187,361.4l90.7,52.47c4.21,18.73,7,43.48,8.23,73.55a462.88,462.88,0,0,1-44.43,17.77,318,318,0,0,1-40.15,10.08C186,507.67,174.55,501.71,167.24,497.56Zm118.39,53.63h-1.06a254.3,254.3,0,0,1-71.84-10.35c-.64-4.6-1.36-8.63-2.13-12a324.66,324.66,0,0,0,35.61-9.3,471.16,471.16,0,0,0,49-19.82c21.54,2.17,38.26,3.12,49.65,2.86,11.26,0,28.12-1.28,50.13-3.8l12.62,21.05A256,256,0,0,1,285.63,551.19Zm135.07-39-12.42-20.74c6.33-8.05,11.32-14.61,14.83-19.56,9.85-12.1,21.82-34.42,35.6-66.36a289.2,289.2,0,0,0,38.05-27.37c11.63-10.18,21.55-21.34,30.54-32,.6.61,1.23,1.24,1.87,1.86,1.49,1.47,3.16,3,4.94,4.54A257.17,257.17,0,0,1,420.7,512.18Z" transform="translate(-0.33 -0.65)"/><path d="M283.93,34.25l-.33,0c-1.27,0-3,1.07-7.4,4.3-5.67,4.11-13.85,10.58-18.79,11a3.65,3.65,0,0,1-2.57-.72c-1.3-1-3-4.62-3.17-6.85a2.61,2.61,0,0,1,0-.6,12.81,12.81,0,0,1,2.26-.69c8.9-2.18,18-9.52,17.83-15.08-.16-4.72-6.22-8.24-13.8-7.67A22.87,22.87,0,0,0,250,20c-7.23,3.39-12.68,12.29-12.52,20.13C226.9,53.31,219,63,216.12,63.59c-.14,0-.57.12-.79-1-.44-2.21.27-7.1,2.6-14.62,3.38-10.89,4-13.3,3.56-16.28-.58-3.54-3.73-5.24-8.72-4.49-1.88.39-3.17,1.19-5.35,3.37-3.08,2.61-8,9.62-11.44,14.8l-.39.59c.46-1.66,1.29-4.23,2.92-8.89.56-1.61.84-2.41,1.42-4,5.09-13.3,6.61-17.62,5.91-21.21-.65-3.29-4-4.87-8.38-3.83a14.83,14.83,0,0,0-7,3.87C178.42,24,170.94,40.57,165,56.75c-1.67,4.56-3.32,9.27-4.43,11.88a127.39,127.39,0,0,1,1.85-18.31c.61-3.87,1-8.37.78-9.21-.7-2.15-5.26-2.17-8.88-.76a7.59,7.59,0,0,0-4,2.91c-1.51,2.5-3,12.21-3,18.94a34.5,34.5,0,0,0,.31,4c-.31,1-.6,2.2-.94,3.56a132.56,132.56,0,0,1-10.26,29c-2.79,6.2-4.79,8.06-5.79,8.63-1.66.93-3.09-1.25-3.79-2.63-2.57-5-4.2-16.37-3.47-29.73.41-4.31.42-6.13-.08-7.19-1.21-2.61-7.47-1-11.6,1.29h0c-3.34,2.19-4,3.86-4.3,6.41-3.72-4.45-11-2.53-16.42.95a27.55,27.55,0,0,0-9.64,10.33,37.81,37.81,0,0,0-3.37,18C73.7,109.2,68,116.74,64,122.43c-1.35,1.93-2.72,3.92-3.58,5.15-.24-.6-.53-1.39-.81-2.17-1-2.8-2.36-6.65-3.83-8.56-1.31-1.71-3.39-1.61-5.54.29-2.36,2.1-4.79,6.48-10.18,29.32-4.2,17.76-5.8,27.4-6.75,30.28-.08.23-.12.34-.19.58a9.75,9.75,0,0,1-1,2.49c-.43.52-1.6.5-3.51-1.25a27.37,27.37,0,0,1-3.58-4.2C7.62,150.06,10.74,104.57,31.54,85c5.56-5.25,10.13-2.39,12.48.82a26.58,26.58,0,0,1,3.67,7.92,10.37,10.37,0,0,0,1.14,3.4c.93,1.25,3.91.17,6-1.54s2.17-3.1,2.27-5.3a21.5,21.5,0,0,0-3.29-11.45c-5.41-7.88-16.26-6.9-28.41,4-22.62,20.4-30.82,55-21,84.85,1,3,5,13.23,11.4,18.68,6.89,5.85,13.61,4.57,20.12-3.23,4.86-5.81,5.12-10.19,10.42-36.66,1-5.09,2.16-9.68,3-12.64.29.82.62,1.74.95,2.65.68,1.88,1.47,4,2.29,6.14-7.6,16.69-13.34,42.95.35,58.15,4.59,4.23,10.8,3.18,15.66-2.3s7-14.19,6.5-23.61c-.72-13.78-5.68-26.17-9.06-34.3-1.47-3.53-2.93-7.21-2.55-8.23,1.46-3.82,6.9-11.35,12-17.71,1.1-1.39,2.18-2.72,3.19-4a24.52,24.52,0,0,0,3.53,9.1c4.61,6.71,13.4,5.46,19.49,1.19a15.32,15.32,0,0,0,4.39-4.75c1.75-3,3.33-12.52,4.37-18.34.62,1.39,1.52,3.19,2.86,5.62,5.25,9.52,13.67,10.14,19.38,6.94a14.69,14.69,0,0,0,4.43-4c4.62-5.71,9.8-20,13.28-30.08a8.67,8.67,0,0,0,1.88,2.87c2.12,1.57,5,1.65,8.95.29,3.06-1.26,6.23-7.83,7.29-11.89,4.72-18,12.53-35.93,23.84-50.74-.56,1.73-1.47,4.13-2.24,6.22-.56,1.52-1.12,3.11-1.64,4.61-2.86,8.29-5.66,18.68-4,24.67,1.15,4.12,3.82,5.45,8.79,4.44,3.11-.88,4.9-3.47,9.68-11.16,1-1.69,3.13-5,5-7.62a64.73,64.73,0,0,0-2.28,6.9c-.52,2.16-2,9.75-.59,16,1,4.61,3.53,7.31,7.17,7.89l2.16-.06.26,0c7.61-1.71,18.12-15.66,24-23.25,2.34,5.2,8.26,9.56,17.4,8.75,14.58-1.29,29.6-16.66,30.26-17.32l.26-.25v-.32C286.52,35.39,285.53,34.59,283.93,34.25Zm-31.21,1.4a36.46,36.46,0,0,1,2.46-5.84c3.18-5.36,5.21-5.75,5.57-5.78s1,.74,1.06,1.92a6.43,6.43,0,0,1-2.23,4.95A29.41,29.41,0,0,1,252.72,35.65ZM107.36,84.71c.12,3.48-4.52,18-5.9,22.9-.39,1.38-.66,2.38-.76,2.81-1,2.58-1.52,3-1.57,3.07s-.48,0-1.25-1.23c-4.25-6.88-5.19-29.13-1.29-31.6.88-.56,2.53.36,4.43,2.5,2.25,2,3.28,2.64,6.28,1.58Zm-52,64.41c3.11,7.18,9.74,23.65,10,36.63v0c.22,6.51-.87,8.52-1.38,9.1-1.3,1.47-3.59-.48-4.51-1.39a22.46,22.46,0,0,1-4.71-7.29C49.19,173,52.54,157.18,55.32,149.12Z" transform="translate(-0.33 -0.65)"/><path d="M562.73,173.86c-1.05-1.36-3.62-2.62-11.22-5.47-3.88-1.45-8.26-3-12.78-4.69-.73-.24-1.44-.44-2.09-.62l-.55-.15c3-1.6,12.26-4.93,29.95-9.1l.56-.14c0-.29-.06-.44-.09-.73a12.6,12.6,0,0,0-2.5-6.07,6.66,6.66,0,0,0-2.47-1.89c-1.25-.52-9-.69-12-.4-2.33.4-23.44-3.16-32.45-4.94-8-1.58-10.17-3-10.64-3.47-.19-.17-.59-.52.19-1.51,1.4-1.77,5-4,12-7,.77-.4,7.61-3.88,8.19-4.57l.12-.24c.53-1.82-1.66-5.09-4-7.19a8.7,8.7,0,0,0-4.56-2.53c-2.74-.52-8.69,1.25-13.51,4.07-1.13.2-2.45.54-4,.93a119.77,119.77,0,0,1-29.28,4.41c-6.52.42-9.06-.53-10-1.18-1.6-1.08-.51-3.47.28-4.8,2.87-4.84,11.41-11.91,22.82-17.74,3.77-1.71,5.28-2.59,5.92-3.57,1.54-2.39-2.91-7.47-6.89-10.17h0c-3.48-2-5.2-1.85-7.43-.85,1.83-5.62-3.37-11.44-8.85-14.7a25.14,25.14,0,0,0-13.13-3.77,32.36,32.36,0,0,0-16.47,6,7,7,0,0,0-1.72,1c-9.88,7.87-26.5,19.56-38.06,16.62-2.14-.54-3.75-3.17-4.15-6.75-.18-1.52.37-4.21,1.57-7.88,2.68-8.23,10.13-21,12.11-23.29l.43.17c.06-.19.1-.28.16-.47.61,0,1.77,0,2.82,0h3.37c21,.59,58.45-.69,69.52-20.54,4.92-8.81.5-20.1-11.12-25.84-29.44-14.56-60.62,11.91-76.22,36.67-.06.08-.11.17-.16.25-1-3.53-6.1-7.53-12.87-9.48-7.93-2.29-15.59-1.07-20.6,3.11A28.28,28.28,0,0,0,353.5,51.2c-1.69,8.91,2.31,15.21,10.6,17.33,8,2,19-5.58,24.14-9.33-4,24.15,1.85,31.65,7.8,34,5.64,2.18,13.85.36,23.62-4.27,1.65-.78,4.4-2.31,7.67-4.25-1.87,7,3,13.56,8.91,16.78a13.8,13.8,0,0,0,6,1.69c3.34.11,11.88-3.1,17.17-5-.83,1.26-1.87,3-3.21,5.41-5.25,9.52-1.62,17.6,3.87,21.33A14.25,14.25,0,0,0,465.6,127c7,1.5,21.52-.57,31.57-2.1-2.18,4.68-1.06,9.48,3.15,13.19,5.42,4.76,15.07,7.22,28.85,9,2.69.34,5.22.72,7.27,1-8.13,2.77-12.14,4.25-20,7.42-13.31-5.49-28-10.44-41.89-10.61-13.17-.17-18.85,4.9-21,8.31-4.34,6.72-.61,14.6,5.14,19.26a24.56,24.56,0,0,0,7.49,4c21.08,6.52,43.44-3.72,63-11.21,17.11,5.94,22.34,8.42,26.15,9.88,1.6.62,3,1.16,4.85,2s3.06,1.18,3.71.63C564.22,177.44,564.69,176.41,562.73,173.86Zm-94-85.08c-2.81,1.83-17,4.68-21.67,5.83-1.32.33-2.27.57-2.67.69-2.57.4-3.21.1-3.27.07s-.24-.43.4-1.75c3.57-7.31,21.3-19.15,25.25-16.77.88.54.94,2.51.11,5.32-.56,3.07-.56,4.32,1.79,6.57ZM410.87,47.06c12-14.64,24.39-29.24,42-35.56,11-3.95,17.41-2,20-.64,5.18,2.71,6.54,8.85,3.45,15.12C473.56,31.67,468,36.31,461,39.36,445.71,46,427.22,47.55,410.87,47.06ZM367.12,62.67c-.85-.22-.8-1.82-.47-3.24a28.06,28.06,0,0,1,4.83-9.55c5-7,10.07-10.58,13.28-9.63a4.93,4.93,0,0,1,2.62,1.94c1.57,2.25,3.82,3.94,5.61,4.25a62.9,62.9,0,0,1-5.67,5.22C379,58.07,369.82,63.38,367.12,62.67ZM509.83,158c-14.76,5.71-30.2,13.1-46.2,9.58a10.17,10.17,0,0,1-4.18-1.76c-2.61-2.06-1.92-5.72-.06-8.46a12.84,12.84,0,0,1,5.56-4.65c11.59-4.93,28.11-1.07,39,3.18C505.93,156.63,508,157.32,509.83,158Z" transform="translate(-0.33 -0.65)"/></svg>