<svg id="katman_1" data-name="katman 1" xmlns="http://www.w3.org/2000/svg" viewBox="0 0 566.93 497.81"><path d="M513.83,215.35A238,238,0,0,0,78.61,153.7l-.34.55a236.46,236.46,0,0,0-32.8,115.59c1.35,0,3.9.26,12.29,2a18.2,18.2,0,0,0,3.34.41,10.88,10.88,0,0,1,3.83.74l.34.13a14,14,0,0,1,7,7.54l7.75,0c3.25,8.41,6,15.14,8.17,20q1.14,3.12,2.83,6.75c.79-1.83,1.6-3.62,2.49-5.41,8.46-17.2,19.21-27.63,32-31a30.11,30.11,0,0,1,8.16-1.12c14.2,0,26.49,8.75,36.55,26A109.73,109.73,0,0,1,183.69,335a118,118,0,0,1,10.06-33.25,83.13,83.13,0,0,1,8.36-14.07c.19-19.5,1-39.56,2.32-60l79.79-44.8,3.53,2c1.74,1,3.48,1.94,5.41,3l5,2.84,5.71,3.26c1.56.91,3.11,1.79,4.65,2.7l6,3.49c1.42.84,2.84,1.67,4.24,2.51l1,.62,4,2.39,10,6.07,24.39,15.51c1.6,1,3.19,2.09,4.79,3.15l2.36,1.55c-.12,10.59-.35,26.81-.66,46.41h3.64c1.62-3.05,5.22-4.74,9.76-5.66v0c.27-17.63.44-31.45.57-40.95,16.62-13.32,34.1-26.31,51.94-38.58,8.84,5,19.08,11.19,28.78,19.6,10.08,8.73,19.34,19.46,30.09,32.88.53,10,.87,18.41,1,25.15h1l23.3.09q3.48,0,6.65.26A238.71,238.71,0,0,0,513.83,215.35Zm-382.49-70a411.71,411.71,0,0,0-7,46c-11.29,15.33-19.5,27.55-24.42,36.28-5,8.52-11.63,21.86-19.58,39.64l-21.59.12a225.18,225.18,0,0,1,31-106.4l.48-.8a224.19,224.19,0,0,1,40-49.71c3.76,1.58,7.13,2.82,10,3.75A277.84,277.84,0,0,0,131.34,145.34Zm146.21,26.07-80.36,45.11c-16.05-5.21-36-14.19-59.32-26.73a405.11,405.11,0,0,1,6.45-41.57,280.4,280.4,0,0,1,10.37-34.92c12.63-8.18,22.26-14.19,28.68-17.86,7.67-4.42,17.09-9.46,28-15,11.27,1.72,24.34,4,37.49,8.77,11.53,4.2,22.9,10.13,36.35,17.72C282.78,129.57,280.21,151.23,277.55,171.41ZM381.78,98.54c-20.33-3.09-35.66-4.72-45.54-4.84-10.26-.41-24.68.46-42.9,2.59-14.78-8.39-27.27-14.92-39.94-19.54a190.55,190.55,0,0,0-33.85-8.44c.8-2.79,1.58-6,2.34-9.46a222.75,222.75,0,0,1,171.17,20Zm114,133.83c-7.47-9.16-17.22-20.55-27.73-29.65-10.89-9.44-22.32-16.3-32.09-21.79-9.67-21.34-17.12-36.51-22.16-45-4.74-8.45-11.69-18.67-20.72-30.39l11.35-19.8A226.05,226.05,0,0,1,502.92,227,50.22,50.22,0,0,0,495.82,232.37Z" transform="translate(-0.01 -36.88)"/><path d="M69.09,298.36c0,7.78-1.34,13.85-4,18.17-1.55,2.3-3.29,3.46-5,3.35a5.11,5.11,0,0,1-1.69-.49c-1.55-.8-3.19-3.46-4.91-7.93-1.9-4.93-3.63-8-5.18-9.14a6.31,6.31,0,0,0-3-1c-3.54-.25-6,1.47-7.38,5.09a7.55,7.55,0,0,0-.39,2.3c0,2.6,2.46,5.51,7.38,8.81l4.91,3.1c9.23,5.83,15.7,11.13,19.41,15.81a39.54,39.54,0,0,1,8.41,24.93c0,12-3.65,21.45-10.87,27.93-8.28,7.43-19.71,9.23-34.28,4.37-15.18-5.07-25-14.74-29.37-26.21A50.74,50.74,0,0,1,0,349.14c0-7.73,1.81-12.7,5.43-15.23a6.8,6.8,0,0,1,5.69-1.06c2.85.69,5.91,3.39,9.19,8.27a85.3,85.3,0,0,0,7,9.52,17.51,17.51,0,0,0,8.41,5.17c3.71.86,6.13.19,7.25-1.95a2.9,2.9,0,0,0,.26-1.19c0-1.76-2.59-5.23-7.77-10.32C27.26,334.41,22,329.27,19.8,326.68,13,318.74,9.49,311.93,9.45,305.85c0-6.81,3.47-13.19,10.35-19,7.78-6.57,16.8-10.64,25.62-10.8,1.18,0,4.91.59,11.12,1.84a26.47,26.47,0,0,0,4.53.52,4.73,4.73,0,0,1,1.68.35c3.11,1.37,5.09,6,6,13.83A43.14,43.14,0,0,1,69.09,298.36ZM54.86,283.18a2,2,0,0,0-2.2,1.93c0,1.49,1,2.82,2.85,3.87a4.28,4.28,0,0,0,2.2.73,2,2,0,0,0,2.2-1.93c.05-1.5-.95-2.86-2.85-3.9A4.37,4.37,0,0,0,54.86,283.18Z" transform="translate(-0.01 -36.88)"/><path d="M133.32,408.13c-18.2.31-31.1-8.44-38.69-25.05-4.22-9.16-6.33-19.75-6.33-31.86A103.85,103.85,0,0,1,99,304.66c7.45-15.13,16.73-24.75,28-27.69a24.05,24.05,0,0,1,6.59-.92c12.08,0,22.46,7.94,31.18,22.91a106.3,106.3,0,0,1,13.85,45.77q.26,4,.25,7.59c0,17.83-4.44,31.25-13.32,41.37C157.51,402.82,146.77,407.91,133.32,408.13Zm.12-41.56c6.73.05,11.09-4.87,13.07-14.88a59.13,59.13,0,0,0,.91-10.7c0-10.82-1.86-20.24-5.57-28.08-2.58-5.34-5.45-8.18-8.41-8.27-4.05-.12-7.56,4.58-10.34,13.51a75.28,75.28,0,0,0-3.37,22.49c0,12.8,2.67,20.78,8,24.2A10.21,10.21,0,0,0,133.44,366.57ZM144.18,284a2.14,2.14,0,0,0-2.2,2.2c0,1.66,1,3.11,2.85,4.22a4,4,0,0,0,2.2.73,2.13,2.13,0,0,0,2.2-2.19c.05-1.65-.95-3.11-2.85-4.22A4,4,0,0,0,144.18,284Z" transform="translate(-0.01 -36.88)"/><path d="M257.7,295.5c0,6.78-1.34,12.26-4,16.61-1.56,2.35-3.28,3.76-5.05,4a4.64,4.64,0,0,1-1.68-.09c-1.55-.4-3.19-2.5-4.92-6.4-1.89-4.29-3.66-7-5.3-7.87a5.8,5.8,0,0,0-3-.55c-4.14.32-7.57,4.75-10.34,13.23a67.57,67.57,0,0,0-3.37,21.06c0,11.73,2.67,18.43,8,20.37a10.05,10.05,0,0,0,5.69.35c3-.62,6.19-3.54,9.45-8.68a91.9,91.9,0,0,1,6.08-8.92,10.81,10.81,0,0,1,5.82-3.52c4.4-.79,7.59,1.85,9.57,7.72A31.54,31.54,0,0,1,266.24,353c0,16.73-6.13,28.34-18.37,35.14a57.17,57.17,0,0,1-14.24,5.46c-18.19,4.55-31.09.52-38.68-12.88q-6.33-11.06-6.34-28.74a110.79,110.79,0,0,1,10.74-47.52c7.45-15.65,16.73-24.91,28-27.59a26,26,0,0,1,6.59-.83c1.21,0,5,.61,11.26,1.72a27.15,27.15,0,0,0,4.53.43,5.43,5.43,0,0,1,1.68.3c3.1,1.19,5.09,5.22,5.95,12A32.52,32.52,0,0,1,257.7,295.5Zm-14.23-12.71a2.06,2.06,0,0,0-2.2,1.94c-.05,1.41.95,2.64,2.84,3.49a4.32,4.32,0,0,0,2.2.53c1.34-.11,2.16-.84,2.2-1.93.05-1.37-.95-2.57-2.84-3.46A4.51,4.51,0,0,0,243.47,282.79Z" transform="translate(-0.01 -36.88)"/><path d="M347.54,289.4a18.62,18.62,0,0,1-4,12.12,8.54,8.54,0,0,1-5,3.14,6.34,6.34,0,0,1-1.68,0c-1.55-.27-3.19-1.81-4.92-4.66-1.89-3.14-3.66-5-5.3-5.67a7.61,7.61,0,0,0-3-.34c-4.14.33-7.57,3.63-10.34,10.17a42.18,42.18,0,0,0-3.37,16.55c0,9.36,2.67,14.87,8,16.26a12.1,12.1,0,0,0,5.69.05c3-.63,6.19-3.19,9.45-7.5a71.65,71.65,0,0,1,6.08-7.4,11.88,11.88,0,0,1,5.82-3c4.4-.73,7.59,1.26,9.57,6a21.52,21.52,0,0,1,1.56,8.39c0,14-6.13,24.61-18.37,30.92a67,67,0,0,1-14.24,5.26c-18.19,4.69-31.09,1.86-38.68-9.46-4.22-6.23-6.34-14.41-6.34-24.32a74,74,0,0,1,10.74-38.68c7.44-12.17,16.73-18.76,27.95-20.65a36.88,36.88,0,0,1,6.59-.58c1.21,0,5,.43,11.26,1.17a39.73,39.73,0,0,0,4.53.29,7.46,7.46,0,0,1,1.68.19c3.1.8,5.09,3.49,5.95,8.19A16,16,0,0,1,347.54,289.4Zm-14.23-8.72c-1.35.07-2.16.6-2.2,1.37-.05,1,.95,1.83,2.84,2.41a6,6,0,0,0,2.2.35c1.35-.1,2.16-.63,2.2-1.38,0-.93-1-1.77-2.84-2.37A6,6,0,0,0,333.31,280.68Z" transform="translate(-0.01 -36.88)"/><path d="M378.77,323.16a73.33,73.33,0,0,0,3-20.51,32.27,32.27,0,0,0-1.29-9.64c-.53-1.67-2.12-4.08-4.79-7.05-1.38-1.58-2.08-2.81-2.07-3.64,0-3,6.86-4.49,20.31-4.5,18.06,0,27.09,0,45.15,0,3.19,0,6.2,1.66,8.93,5.12a15.06,15.06,0,0,1,3.49,9.41c0,4.26-1.55,6.77-4.66,7.39a6.79,6.79,0,0,1-1.55.15c-2.33-.06-4.66-1.16-7-3.24A30,30,0,0,0,432,292a24.32,24.32,0,0,0-10.61-2.16c-5.44,0-9.79,1.41-13.07,4.39-1.64,1.49-2.46,2.94-2.46,4.33,0,2,1.51,3.1,4.53,3.4a11.5,11.5,0,0,0,1.55.08c2,0,4.44-.82,7.38-2.4a8.51,8.51,0,0,1,3.49-1.22c2.15,0,3.71,1.48,4.66,4.49a14.23,14.23,0,0,1,.51,3.86c0,4-1.12,6.8-3.36,8.21a3.66,3.66,0,0,1-1.81.51c-.78,0-2.31-.73-4.53-2a12.74,12.74,0,0,0-6.34-1.84c-3.33.08-5.13,1.3-5.17,3.44-.05,2.4,1.51,4.94,4.53,7.45a10.2,10.2,0,0,0,5.69,2.29,20.36,20.36,0,0,0,13.71-5.38,16.54,16.54,0,0,0,1.68-1.62c2.85-2.54,5.26-4,7.25-4.51a10.9,10.9,0,0,1,2.71-.24c6.64.16,10.44,3.24,11.39,9.37a17.15,17.15,0,0,1,.26,3q0,9.31-6.34,18c-3.84,5.27-8,8.09-12.42,8.21a375.44,375.44,0,0,0-42.05,2.58c-15.69,1.58-23.63-.7-23.67-8.27,0-3,1.41-7.24,4.27-12.25C376.36,329.11,378.08,325.62,378.77,323.16Zm56.67-43.43c-1.35,0-2.16.44-2.2,1-.05.76.95,1.49,2.84,2a7.26,7.26,0,0,0,2.2.36c1.35,0,2.16-.43,2.2-1s-1-1.49-2.84-2A7.58,7.58,0,0,0,435.44,279.73Z" transform="translate(-0.01 -36.88)"/><path d="M477.15,324.62A62.79,62.79,0,0,0,480,307,46.54,46.54,0,0,0,478.06,294c-.52-1.64-2.12-4.22-4.79-7.61-1.38-1.84-2.07-3.21-2.07-4.13,0-2.28,3.71-3.82,11.13-4.72a69.56,69.56,0,0,1,9.18-.54l23.29.09c15.61.07,26.17,3.91,31.69,12.56a19.6,19.6,0,0,1,3.24,10.62c0,6.79-3.11,11.64-9.32,14.25a9.84,9.84,0,0,0-2.07,1.2c-.07.28,1.21,2.13,3.63,5.36a84.8,84.8,0,0,1,11.12,21.4c.86,2.47,3,5.47,6.34,9,3.23,3.41,5.44,6.36,6.34,8.6a17.23,17.23,0,0,1,1.16,6.4c0,7.38-4,9.85-12,7.91a102.2,102.2,0,0,1-9.7-3.28c-11.13-4.24-18.16-7.86-21.09-11.9a12.72,12.72,0,0,1-2.2-7.26c-.08-13.3-1.77-23.3-4.78-29.75-1.64-3.32-3.53-5.16-5.57-5.48-2.36-.37-4.35.72-5.82,3.11a8.83,8.83,0,0,0-1.16,4.49,23.71,23.71,0,0,0,.77,6.24c.94,3.44,2.28,7.63,3.89,12.58s2.35,8.26,2.32,9.91c-.08,5-6.89,5.85-20.05,3.67-15.58-2.57-23.5-6.61-23.54-13.52,0-2.73,1.46-6.08,4.26-9.93A32.27,32.27,0,0,0,477.15,324.62Zm47.74-23.1c0-2.77-1.55-5.15-4.66-7.06a11.58,11.58,0,0,0-5.43-1.79c-5.26-.33-8.67.9-10.22,3.64a5,5,0,0,0-.52,2.15c0,2.71,2.11,4.83,6.34,6.48a23,23,0,0,0,5.18,1.2c4.48.5,7.41-.31,8.79-2.55A4.33,4.33,0,0,0,524.89,301.52Zm2.46-19.59c-1.35,0-2.16.53-2.2,1.37s1,1.87,2.84,2.55a5.87,5.87,0,0,0,2.2.55c1.35,0,2.16-.47,2.2-1.26.05-1-.95-2-2.84-2.71A5.93,5.93,0,0,0,527.35,281.93Z" transform="translate(-0.01 -36.88)"/><path d="M110.48,534.68c-16.14,0-24.41-2.63-24.46-7.67,0-1.15,1.11-4,3.15-8.53a58.24,58.24,0,0,0,4.26-13.62c1.41-7.84,2.06-13.33,2.06-16,0-4.94-.62-7.62-1.74-7.76-2.73-.34-6.48,6.11-10.73,18.49-4,11.73-6,20.83-6,27.23,0,3-1.79,4.78-5.36,5.39a17.41,17.41,0,0,1-1.9.1c-3.47,0-5.73-1.22-6.78-3.64a5.65,5.65,0,0,1-.48-2.24c0-7.3-2.22-17.63-6.78-32-4-12.68-7.67-20.16-10.1-20.46-1-.12-1.58,2.67-1.58,8.05a128.57,128.57,0,0,0,1.73,18.33,92.52,92.52,0,0,0,6,19.9,17,17,0,0,1,1.58,5.9c-.11,5.63-8.41,8.6-24.46,8.56C9.78,534.64.06,529.27,0,518.89c0-4.14,1.72-9.41,5.2-15.12,3.21-5.24,5.32-9.37,6.16-12.63a122.62,122.62,0,0,0,3-28.92v-2.64a65.19,65.19,0,0,0-1.9-15.84c-.63-2.45-2.52-7.16-5.68-14.51-1.79-4.05-2.68-7-2.68-8.72,0-4,4.52-4.29,13.57-1.7a108.17,108.17,0,0,1,11.21,3.9c13.23,5.35,21.49,10.47,24.62,16.9,2.74,5.64,6.25,15.28,10.57,28.09,2.53,7.15,4.64,10.88,6.16,11.18,1.87.37,4-2.58,6-8.55,3.4-10,5.58-16.13,6.31-17.85a49.51,49.51,0,0,1,3.32-6.57c3.26-5.12,11.52-6.8,24.78-6.33,10.94.39,18.46,1.67,22.56,4.69a5.23,5.23,0,0,1,2.06,3.51c.06,1.46-1.4,4.39-4.11,8.4a30.56,30.56,0,0,0-4.42,8.62,50,50,0,0,0-1.57,13.45c.2,11.53,1.28,20,2.68,25.25.71,2.69,2.94,6.49,6.63,11.13,3.15,4,4.77,7.25,4.73,9.81C139.1,531.27,129.34,534.69,110.48,534.68ZM35.2,433a6.81,6.81,0,0,0,4.58,3.9c2.45.74,4.31.28,4.73-.85,0-1.16-1.1-2.31-3.31-3.52a10.61,10.61,0,0,0-1.42-.62c-2.43-.8-3.9-.64-4.42.56A1.7,1.7,0,0,0,35.2,433Zm82.38,14.24c.63,1.23,2.42,2.24,4.74,2.3,2.49.07,4.43-1.07,4.57-2.27.12-1-1-1.91-3.15-2.38a8.7,8.7,0,0,0-1.42-.14c-2.53,0-4.06.64-4.58,1.94A1.93,1.93,0,0,0,117.58,447.23Z" transform="translate(-0.01 -36.88)"/><path d="M250.22,483.71c3.08,8.23,7.83,14.43,14.36,18.66,4.31,2.76,6.78,4.62,7.41,5.4,2.21,2.51,3.32,6,3.32,10.35,0,8.3-3.9,13.5-11.68,15.36-3.58.82-8.89,1.2-15.94,1.2-13.47,0-22-1.75-25.57-5.09a9.5,9.5,0,0,1-2.68-7.07c0-.92,0-2.69.16-5.25.17-3.33.32-5.84.32-7.33,0-5.81-1.64-9.2-4.9-9.9a11.42,11.42,0,0,0-4.1-.09c-7.33,1.07-11,6.77-11,16.1,0,.56-.05,1.5,0,2.64s.16,2,.16,2.59c0,6.75-3.63,10.8-10.89,12.37a72.13,72.13,0,0,1-13.57,1c-11,0-17.78-1.7-20.2-5.28a8.52,8.52,0,0,1-1.42-4.91c0-3.1,1.58-5.44,4.73-7,.53-.22,1.42-.56,2.68-1q7.42-3,11-7.32a25.41,25.41,0,0,0,1.9-2.55,125.33,125.33,0,0,0,15-30.92c2.76-8.13,4.1-14.36,4.1-18,0-3.1-1.21-6.51-3.63-10.29a12,12,0,0,1-2.37-6.2c0-3.58,5.47-7.07,16.42-10.88a103.07,103.07,0,0,1,10.26-3c11-2.61,19.25-3.05,24.61-1,2,.77,3.21,1.89,3.64,3.38a10.69,10.69,0,0,1,.15,2.2C242.24,448.25,244.39,468.14,250.22,483.71Zm-43.4-1.22c.1,2.94,1.71,4.45,4.1,4,3-.57,4.78-3.07,4.73-6.92-.1-8.61-1.73-13.4-3.94-13.12-1.77.22-3.32,3.37-4.26,8.7A34.69,34.69,0,0,0,206.82,482.49ZM227.17,430c-2.38.66-3.73,1.83-3.78,3.19s1.2,2.09,3.63,2.12a6.77,6.77,0,0,0,2-.2c2.28-.62,3.58-1.79,3.63-3.15s-1.21-2.25-3.63-2.28A11.26,11.26,0,0,0,227.17,430Z" transform="translate(-0.01 -36.88)"/><path d="M402.11,534.68c-16.07,0-24.41-5.3-24.47-14.94,0-2.2,1.12-7.71,3.16-16.18A185.94,185.94,0,0,0,385.06,479c1.41-13.66,2.05-22.38,2.05-26.6,0-7.77-.64-11.63-1.73-11.61-2.69,0-6.48,10.05-10.73,31.31-4,20.14-6,36.34-6,48,0,5.47-1.79,8.87-5.37,10.07a8.14,8.14,0,0,1-1.89.23c-3.47,0-5.74-2-6.79-6a15.45,15.45,0,0,1-.47-3.74c0-12.19-2.21-28.84-6.79-47.9-4-16.75-7.81-24.33-10.1-23.6-1,.31-1.58,4.16-1.58,11.24a223,223,0,0,0,1.74,24.12c.82,7.2,2.84,16.2,6,27.56a34.71,34.71,0,0,1,1.57,9c-.1,9-8.41,13.74-24.46,13.68-19.08-.06-28.83-5.62-28.88-16.3,0-4.27,1.72-9.91,5.21-17,3.21-6.54,5.31-11.92,6.16-15.87A171,171,0,0,0,306,452v-2.91a61.08,61.08,0,0,0-1.89-16c-.63-2.2-2.52-6-5.68-11.22-1.79-2.85-2.68-5.14-2.68-6.91,0-4.08,4.52-8.25,13.57-12.43a66.82,66.82,0,0,1,11.2-4.09c13.2-3.53,21.5-2.2,24.62,3.7,2.75,5.2,6.26,14.87,10.58,30.06,2.52,8.43,4.7,13,6.15,12.8,1.87-.2,4-5.29,6-14.36,3.4-15.24,5.58-23.74,6.31-26.22a90,90,0,0,1,3.32-9.47c3.26-7.47,11.52-12.31,24.77-14,10.94-1.41,18.47,0,22.57,3.78a7.18,7.18,0,0,1,2.05,4.5c.07,1.91-1.39,5.7-4.1,11.21a48.9,48.9,0,0,0-4.42,12.13,104.05,104.05,0,0,0-1.58,19.83c.21,17.64,1.28,31.92,2.69,41.24.71,4.73,2.93,11.44,6.62,20.22,3.15,7.49,4.78,14,4.74,19.22C430.72,527,420.88,534.7,402.11,534.68ZM326.83,405.59c.52,1.44,2.35,2.12,4.57,1.51,2.55-.7,4.32-2.35,4.74-3.93,0-1.35-1.11-2-3.32-2a6.66,6.66,0,0,0-1.42.2c-2.42.63-3.89,1.81-4.42,3.52A3.53,3.53,0,0,0,326.83,405.59Zm82.38-16a4.75,4.75,0,0,0,4.73,2.49c2.45-.12,4.43-1.68,4.58-3.28.12-1.32-1-2.42-3.16-2.84a5.84,5.84,0,0,0-1.42-.06c-2.52.22-4.05,1.22-4.58,2.95A3.67,3.67,0,0,0,409.21,389.55Z" transform="translate(-0.01 -36.88)"/><path d="M541.84,471.08c3,11.29,7.84,20.36,14.36,27.06,4.32,4.39,6.79,6.95,7.42,7.93a19.73,19.73,0,0,1,3.31,11.51c0,8.55-3.89,13.67-11.67,15.71-3.58.9-8.89,1.39-15.94,1.39-13.47,0-22-2.68-25.57-8.25-1.79-3-2.68-6.85-2.68-11.54,0-1.48,0-4.25.16-8.21.17-5.15.31-8.88.31-11.13,0-8.73-1.63-14.09-4.89-16.19a9.28,9.28,0,0,0-4.1-1.45c-7.3-.74-11.05,6.87-11.05,22.86,0,1-.05,2.54,0,4.56s.16,3.61.16,4.58q0,17.91-10.89,22.62c-3.48,1.42-8,2.15-13.57,2.15-11.05,0-17.79-3.81-20.21-11.35a33.54,33.54,0,0,1-1.42-10.15q0-9.42,4.74-13.61c.52-.42,1.42-1.05,2.68-1.87A34.52,34.52,0,0,0,464,484.89c.73-1.51,1.37-2.95,1.89-4.32a388.23,388.23,0,0,0,15-45.89c2.77-10.49,4.1-18,4.1-22.64,0-4-1.21-8.81-3.63-14.37q-2.37-5.28-2.37-8.32c0-4.31,5.47-6.8,16.41-6.32a53.65,53.65,0,0,1,10.26,1.47c11.05,2.64,19.26,7.4,24.62,13.14a13.6,13.6,0,0,1,3.63,6.17,16,16,0,0,1,.16,2.58C534.08,428.11,536.19,450.07,541.84,471.08ZM498.44,451c.1,4.27,1.72,7,4.11,7.29,2.93.36,4.78-2.43,4.73-7.7-.1-11.87-1.69-18.67-3.94-19.31-1.67-.47-3.32,2.89-4.27,9.79A63,63,0,0,0,498.44,451Zm20.36-56.3c-2.35-.63-3.74,0-3.79,1.52s1.21,3.11,3.63,4.54a8.59,8.59,0,0,0,2.05,1c2.25.6,3.58,0,3.64-1.48s-1.22-3.32-3.64-4.79A10.92,10.92,0,0,0,518.8,394.67Z" transform="translate(-0.01 -36.88)"/></svg>