<svg id="katman_1" data-name="katman 1" xmlns="http://www.w3.org/2000/svg" viewBox="0 0 566.93 418.36"><path d="M40,105.81c-2.15-2.47-5.88-5.25-11.2-8.23L25.91,96c-2.84-1.68-4.26-3.19-4.26-4.56a3.49,3.49,0,0,1,.23-1.22,4,4,0,0,1,4.26-2.75,3.75,3.75,0,0,1,1.7.5c.91.61,1.9,2.18,3,4.75,1,2.33,2,3.73,2.84,4.14a3,3,0,0,0,1,.24,3.56,3.56,0,0,0,2.91-1.79c1.55-2.27,2.31-5.46,2.31-9.5a20.06,20.06,0,0,0-.22-3c-.49-4.06-1.64-6.44-3.43-7.15a3.31,3.31,0,0,0-1-.17,17.15,17.15,0,0,1-2.61-.28,58.52,58.52,0,0,0-6.42-.94,24.71,24.71,0,0,0-14.79,5.77c-4,3.16-6,6.72-6,10.43,0,3.31,2,6.91,6,11,1.29,1.31,4.31,3.9,9,7.94,3,2.6,4.49,4.4,4.49,5.34a1.36,1.36,0,0,1-.16.65q-1,1.75-4.17,1.23a9.83,9.83,0,0,1-4.86-2.51,44.9,44.9,0,0,1-4-4.88c-1.89-2.5-3.66-3.84-5.29-4.08a4.23,4.23,0,0,0-3.29.87C1.05,107.6,0,110.47,0,114.75a25.1,25.1,0,0,0,1.79,9.87c2.54,6,8.19,10.39,17,12.57q12.61,3.13,19.78-2.89c4.17-3.51,6.28-8.64,6.28-15.12A20.17,20.17,0,0,0,40,105.81ZM31.65,78a2.62,2.62,0,0,1,1.27.36c1.1.53,1.68,1.23,1.65,2,0,.62-.5,1-1.27,1A2.72,2.72,0,0,1,32,81c-1.09-.54-1.68-1.24-1.65-2C30.41,78.39,30.89,78,31.65,78Z" transform="translate(0 -74.29)"/><path d="M103.06,112.9a58.22,58.22,0,0,0-8-26.26c-5-8.26-11-12.35-18-12.35a15.66,15.66,0,0,0-3.81.48C66.8,76.3,61.44,81.24,57.15,89.14A50.51,50.51,0,0,0,51,113.81a40.68,40.68,0,0,0,3.66,17.54c3.23,8.42,13.58,15.6,22.32,16.35,7.54.63,14-1.13,18.59-6.08,5.13-5.48,7.69-13.59,7.69-24.22Q103.21,115.27,103.06,112.9Zm-18.52,2.68c-1.14,5.61-3.65,8.24-7.53,7.93a6.67,6.67,0,0,1-3.29-1.22c-3.09-2.14-4.63-6.68-4.63-13.67A37.78,37.78,0,0,1,71,96.5c1.61-4.76,3.63-7.23,6-7.12,1.71.07,3.36,1.62,4.85,4.56a35,35,0,0,1,3.2,15.62A32.15,32.15,0,0,1,84.54,115.58Zm.3-33.29a3.36,3.36,0,0,1-2.91-2.65,1.17,1.17,0,0,1,1.27-1.16,2.34,2.34,0,0,1,1.27.4,2.55,2.55,0,0,1,1.64,2.25A1.17,1.17,0,0,1,84.84,82.29Z" transform="translate(0 -74.29)"/><path d="M152.74,121.51c-1.15-4.43-3-6.67-5.53-6.69a4.75,4.75,0,0,0-3.36,1.68,51.54,51.54,0,0,0-3.51,5.25c-1.87,3-3.71,4.5-5.45,4.48a5.93,5.93,0,0,1-3.28-1c-3.08-2-4.63-6.75-4.63-14.18a43.13,43.13,0,0,1,1.94-13c1.6-5.12,3.59-7.74,6-7.72a3.23,3.23,0,0,1,1.72.52q1.42,1,3.06,5.48c1,2.71,1.94,4.26,2.84,4.67a2.47,2.47,0,0,0,1,.21c1,0,2-.83,2.91-2.31,1.55-2.75,2.31-6.47,2.31-11.16a27.29,27.29,0,0,0-.22-3.47q-.75-7-3.43-8.3a2.85,2.85,0,0,0-1-.2,14.4,14.4,0,0,1-2.61-.31A54.41,54.41,0,0,0,135,74.29a14.8,14.8,0,0,0-3.8.51c-6.47,1.63-11.83,7-16.13,15.71a60.74,60.74,0,0,0-6.19,27.22,44.89,44.89,0,0,0,3.65,18.72c4.38,9.73,11.83,14.83,22.33,15a23.28,23.28,0,0,0,8.21-1.16c7.07-2.47,10.6-9.56,10.6-21.4A30,30,0,0,0,152.74,121.51ZM140.49,78.7a2.36,2.36,0,0,1,1.27.41,2.69,2.69,0,0,1,1.64,2.36,1.2,1.2,0,0,1-1.27,1.22,2.36,2.36,0,0,1-1.27-.41,2.69,2.69,0,0,1-1.64-2.36A1.22,1.22,0,0,1,140.49,78.7Z" transform="translate(0 -74.29)"/><path d="M204.58,119.32c-1.14-4.09-3-6-5.53-5.8a5.39,5.39,0,0,0-3.35,2,50.61,50.61,0,0,0-3.51,5.52c-1.89,3.18-3.71,4.85-5.45,4.89a5.68,5.68,0,0,1-3.29-.9c-3.09-1.88-4.63-6.5-4.63-13.92a43.65,43.65,0,0,1,1.94-13c1.61-5.15,3.58-7.8,6-7.82a3.18,3.18,0,0,1,1.71.51q1.43,1,3.06,5.29c1,2.61,1.94,4.05,2.85,4.39a2.37,2.37,0,0,0,1,.13c1-.09,2-1,2.92-2.44,1.53-2.77,2.31-6.38,2.31-10.91a24.85,24.85,0,0,0-.23-3.33c-.5-4.53-1.64-7.22-3.44-8a2.73,2.73,0,0,0-1-.21,14.27,14.27,0,0,1-2.62-.28,54.93,54.93,0,0,0-6.49-1.12,14.88,14.88,0,0,0-3.81.51c-6.47,1.65-11.77,7.22-16.12,16a65.56,65.56,0,0,0-6.2,27.76c.11,7.12,1.22,13.44,3.66,18.68,4.38,9.52,11.82,14,22.32,13.57.26,0,.53,0,.78-.06A166.86,166.86,0,0,1,202.38,141c2.07-3.8,3.09-8.72,3.09-14.78A25.56,25.56,0,0,0,204.58,119.32ZM192.34,78.65a2.41,2.41,0,0,1,1.27.39,2.62,2.62,0,0,1,1.64,2.29A1.22,1.22,0,0,1,194,82.55a2.35,2.35,0,0,1-1.27-.36,2.59,2.59,0,0,1-1.64-2.31A1.23,1.23,0,0,1,192.34,78.65Z" transform="translate(0 -74.29)"/><path d="M261.79,113.83c-.54-4.69-2.73-6.84-6.56-6.4a5.45,5.45,0,0,0-1.58.43c-1.13.58-2.52,2-4.17,4.33a12.2,12.2,0,0,1-1,1.47c-2.23,3.14-4.94,5.06-7.91,5.4a4.45,4.45,0,0,1-3.28-1.52,8.81,8.81,0,0,1-2.62-6,3.07,3.07,0,0,1,3-3.22,5.37,5.37,0,0,1,3.66,1.24c1.29.94,2.17,1.47,2.62,1.4a1.91,1.91,0,0,0,1-.54c1.29-1.35,1.94-3.75,1.94-7.25a18.21,18.21,0,0,0-.3-3.37c-.55-2.61-1.44-3.89-2.69-3.79a4.22,4.22,0,0,0-2,1.27c-1.7,1.56-3.11,2.41-4.26,2.5a5.43,5.43,0,0,1-.9,0c-1.74-.15-2.61-1.14-2.61-3a7.74,7.74,0,0,1,1.42-4.15,9.14,9.14,0,0,1,7.54-4.6,9.46,9.46,0,0,1,6.12,1.66,20,20,0,0,1,3.67,4c1.34,1.74,2.68,2.54,4,2.44a2.74,2.74,0,0,0,.9-.24q2.69-1.09,2.68-6.71a18.43,18.43,0,0,0-2-8.35c-1.57-3.13-3.31-4.75-5.15-4.74l-26.06.17c-7.76,0-11.69,1.69-11.71,4.82a9.74,9.74,0,0,0,1.19,3.84,31.56,31.56,0,0,1,2.76,7.17,51.76,51.76,0,0,1,.75,9.2,91.42,91.42,0,0,1-1.72,18,43.9,43.9,0,0,1-2.91,8.32,28.59,28.59,0,0,0-2.36,7.75,161.88,161.88,0,0,1,48.21-14.25,28.78,28.78,0,0,0,.44-5A15.71,15.71,0,0,0,261.79,113.83Zm-10.52-35.9a2.75,2.75,0,0,1,1.27.31c1.09.5,1.67,1.16,1.64,1.91,0,.59-.5,1-1.26,1a2.7,2.7,0,0,1-1.27-.3c-1.1-.49-1.68-1.15-1.65-1.92C250,78.37,250.5,78,251.27,77.93Z" transform="translate(0 -74.29)"/><path d="M326.48,113.64a8.86,8.86,0,0,0-3.66-2.43,7,7,0,0,1-3.65-3,34.11,34.11,0,0,0-6.42-9.09c-1.4-1.36-2.14-2.23-2.1-2.4a7.34,7.34,0,0,1,1.2-1c3.58-2.38,5.37-5.29,5.37-8.83a8.93,8.93,0,0,0-1.86-5.38c-3.19-4.32-9.29-6.59-18.3-6.56l-13.43,0a27.73,27.73,0,0,0-5.3.47c-4.28.79-6.42,2.17-6.42,4.1a8,8,0,0,0,1.2,3.39,27,27,0,0,1,2.75,5.91A46.38,46.38,0,0,1,277,98.79a64.55,64.55,0,0,1-1.65,13.61,34.29,34.29,0,0,1-2.84,7.14c-.08.17-.16.34-.23.51,3.56-.25,7.15-.37,10.76-.38h.44q5.37,0,10.67.33c-.09-.27-.18-.57-.28-.88-.92-2.79-1.7-5.28-2.24-7.37a16,16,0,0,1-.45-4,7.85,7.85,0,0,1,.67-3.2c.84-1.84,2-2.86,3.36-3,1.17-.11,2.26.78,3.21,2.61,1.68,3.42,2.64,8.89,2.75,16.44A161.49,161.49,0,0,1,320.69,124c4.31-1.69,6.46-4.21,6.46-7.6A4.91,4.91,0,0,0,326.48,113.64ZM302.59,91.45c-.8,1.54-2.49,2.43-5.08,2.64a10.8,10.8,0,0,1-3-.18c-2.43-.61-3.65-1.88-3.65-3.76a4.51,4.51,0,0,1,.3-1.54q1.35-3,5.89-3.25a5.81,5.81,0,0,1,3.15.76,4.42,4.42,0,0,1,2.68,4A3.11,3.11,0,0,1,302.59,91.45ZM306,80.53a3,3,0,0,1-1.27-.25c-1.1-.33-1.67-.85-1.64-1.46s.49-.88,1.26-.91a3.43,3.43,0,0,1,1.28.24c1.09.39,1.67.93,1.64,1.53S306.73,80.48,306,80.53Z" transform="translate(0 -74.29)"/><path d="M432.71,103.16a16.14,16.14,0,0,1-3.14-4.86,41.12,41.12,0,0,1-1.27-10.07,14.36,14.36,0,0,1,.74-4.94,9.58,9.58,0,0,1,2.1-3c1.28-1.36,2-2.32,1.93-2.79s-.36-.81-1-1.19c-1.93-1-5.5-1.56-10.67-1.56-6.27,0-10.17.92-11.72,2.8a15.55,15.55,0,0,0-1.56,2.4c-.35.63-1.39,2.82-3,6.66-1,2.27-1.94,3.5-2.84,3.47-.72,0-1.72-1.31-2.91-3.7a49.29,49.29,0,0,0-5-8.82c-1.48-1.84-5.4-2.79-11.64-2.81a44.06,44.06,0,0,0-5.31.29c-4.28.49-6.42,1.36-6.42,2.58a4.09,4.09,0,0,0,1.27,2.23A19.33,19.33,0,0,1,375,83.5a12,12,0,0,1,.91,4.77v.86a33.24,33.24,0,0,1-1.43,9.94,22.38,22.38,0,0,1-2.9,5c-1.65,2.32-2.48,4.26-2.47,5.66,0,3.47,4.63,4,13.67,3.61,7.59-.29,11.51-1.64,11.56-4a5.8,5.8,0,0,0-.74-2.35,31.38,31.38,0,0,1-2.84-7.45,36,36,0,0,1-.82-6.62c0-1.94.28-3,.75-3,1.16-.1,2.87,2.22,4.77,6.78,2.16,5.19,3.21,9.45,3.21,12.54a2.2,2.2,0,0,0,.23.94c.49,1,1.57,1.49,3.2,1.46a7.11,7.11,0,0,0,.91-.07c1.68-.31,2.53-1.13,2.53-2.45,0-2.82.94-6.78,2.84-11.66,2-5.16,3.77-7.69,5.08-7.65.52,0,.82,1,.82,3a42,42,0,0,1-1,6.55,26.1,26.1,0,0,1-2,5.92,14.83,14.83,0,0,0-1.5,3.84c0,2.27,4,3.44,11.57,3.47,8.93,0,13.55-1.61,13.6-4.86C435,106.51,434.19,105,432.71,103.16ZM387.92,78a2.48,2.48,0,0,1-2.18-.75,1,1,0,0,1,.08-.18c.25-.44.95-.67,2.1-.67a5.73,5.73,0,0,1,.66,0c1,.16,1.57.42,1.57.79C390,77.64,389.12,78,387.92,78Zm36.8-.75a.55.55,0,0,1,.07-.19c.25-.43,1-.66,2.16-.65a5.6,5.6,0,0,1,.68,0c1,.17,1.54.49,1.49.81s-.95.77-2.17.75A2.94,2.94,0,0,1,424.72,77.24Z" transform="translate(0 -74.29)"/><path d="M494.55,95.53a23.42,23.42,0,0,0-8-14.67,26,26,0,0,0-18-6.57,28.24,28.24,0,0,0-3.81.25,27,27,0,0,0-16.12,7.53c-4.1,4-6.2,8.5-6.2,13.56a14.73,14.73,0,0,0,3.66,9.79c4.38,5.21,11.82,8.13,22.32,8.94,7.77.6,14-.26,18.59-2.85,5.13-2.88,7.69-7.4,7.69-13.42A23,23,0,0,0,494.55,95.53ZM476,96.4c-1.14,3.07-3.65,4.48-7.53,4.27a10.41,10.41,0,0,1-3.29-.7q-4.62-1.8-4.63-7.51a12.07,12.07,0,0,1,1.94-6.53c1.6-2.53,3.61-3.83,6-3.76a7,7,0,0,1,4.85,2.45,12.06,12.06,0,0,1,3.21,8.48A10,10,0,0,1,476,96.4Zm.3-17.93a3.77,3.77,0,0,1-1.27-.22c-1.09-.31-1.67-.74-1.64-1.18s.49-.59,1.27-.6a4,4,0,0,1,1.27.21c1.1.31,1.67.74,1.64,1.19S477.12,78.46,476.33,78.47Z" transform="translate(0 -74.29)"/><path d="M564.68,117.82a32.79,32.79,0,0,1-3.13-7.59,87.51,87.51,0,0,1-1.27-14.89A30.11,30.11,0,0,1,561,88a15.5,15.5,0,0,1,2.09-4.46c1.28-2,2-3.5,1.93-4.26a2.86,2.86,0,0,0-1-1.86C562.15,75.8,558.58,75,553.41,75c-6.27,0-10.17,1.3-11.72,3.89a26,26,0,0,0-1.57,3.29c-.34.86-1.38,3.86-3,8.83-1,3-1.94,4.44-2.83,4.31-.71-.11-1.72-1.87-2.91-5.06a71.6,71.6,0,0,0-5-11.69c-1.47-2.43-5.39-3.65-11.64-3.68a36.91,36.91,0,0,0-5.3.32c-4.28.56-6.42,1.49-6.42,2.86a5.16,5.16,0,0,0,1.27,2.59A22.69,22.69,0,0,1,507,85a16.31,16.31,0,0,1,.9,5.57v1a37.31,37.31,0,0,1-1.42,10.87,16.69,16.69,0,0,1-2.91,4.7c-1.65,2-2.47,3.82-2.46,5.27,0,3.61,4.61,6.08,13.66,7.63,7.6,1.31,11.52.64,11.57-2.08a8.6,8.6,0,0,0-.75-2.93,49.44,49.44,0,0,1-2.83-9.37,54.38,54.38,0,0,1-.82-8.08c0-2.34.29-3.57.75-3.57,1.13,0,2.86,3,4.77,8.92,2.16,6.68,3.21,12.11,3.21,15.84a3.25,3.25,0,0,0,.23,1.18,4,4,0,0,0,3.2,2.5,7.18,7.18,0,0,0,.9.12,2.19,2.19,0,0,0,2.54-2.45c0-3.52.93-8.27,2.84-14.38,2-6.44,3.79-9.76,5.08-9.58.52.08.82,1.47.82,4.13a69.19,69.19,0,0,1-1,8.68,34.1,34.1,0,0,1-2,7.41,18.79,18.79,0,0,0-1.5,4.63c0,2.91,3.94,5.31,11.58,7.32,8.9,2.34,13.54,1.27,13.59-3.43C566.94,123.14,566.17,120.72,564.68,117.82ZM519.89,79a2.36,2.36,0,0,1-2.17-1,.9.9,0,0,1,.08-.24c.25-.55,1-.82,2.09-.8a3.39,3.39,0,0,1,.67.07c1,.21,1.58.56,1.58,1C521.93,78.58,521.09,79,519.89,79Zm36.81-.23a1,1,0,0,1,.07-.29c.25-.65,1-1,2.16-.95a4.45,4.45,0,0,1,.68.08c1,.26,1.54.75,1.49,1.26s-1,1.15-2.17,1.09A2.6,2.6,0,0,1,556.7,78.75Z" transform="translate(0 -74.29)"/><path d="M40,189.26c-2.15-2.89-5.88-6.46-11.2-10.78-1.3-1-2.25-1.82-2.84-2.31-2.84-2.42-4.26-4.32-4.26-5.67a2.9,2.9,0,0,1,.23-1.14c.79-1.68,2.21-2.18,4.26-1.52a5.1,5.1,0,0,1,1.7,1c.91.84,1.9,2.65,3,5.46,1,2.55,2,4.15,2.84,4.78a3.87,3.87,0,0,0,1,.47,2.78,2.78,0,0,0,2.91-1c1.55-1.85,2.31-4.79,2.31-8.74a20.32,20.32,0,0,0-.22-3c-.49-4.07-1.64-6.68-3.43-7.82a3.9,3.9,0,0,0-1-.42,18.28,18.28,0,0,1-2.61-.94c-3.59-1.57-5.74-2.49-6.42-2.67a21.76,21.76,0,0,0-14.79,1.2c-3.92,1.83-6,4.7-6,8.4,0,3.31,2,7.59,6,12.84q1.94,2.56,9,10.53,4.49,5.1,4.49,6.49a1.15,1.15,0,0,1-.16.6c-.64,1-2,1-4.17.08a14.11,14.11,0,0,1-4.86-3.86,64.57,64.57,0,0,1-4-6c-1.89-3.06-3.66-5-5.29-5.73a3.93,3.93,0,0,0-3.29-.23c-2.09.89-3.14,3.4-3.14,7.68a29.72,29.72,0,0,0,1.79,10.46c2.54,6.8,8.19,13,17,17.54,8.41,4.34,15,4.84,19.78,1.93,4.17-2.52,6.28-7.12,6.28-13.43A23.73,23.73,0,0,0,40,189.26ZM31.65,160a3.65,3.65,0,0,1,1.27.69c1.1.81,1.68,1.64,1.65,2.4,0,.58-.51.85-1.27.66a3.73,3.73,0,0,1-1.27-.69c-1.09-.82-1.68-1.65-1.65-2.4C30.41,160.07,30.9,159.81,31.65,160Z" transform="translate(0 -74.29)"/><path d="M103.06,205a57.31,57.31,0,0,0-8-25.54c-5-8.33-11-12.91-18-13.91a17.43,17.43,0,0,0-3.81-.09c-6.47.49-11.83,4.31-16.12,11.16A41.59,41.59,0,0,0,51,199.35,42.68,42.68,0,0,0,54.61,217a31.79,31.79,0,0,0,22.32,18.86c7.75,1.69,14,.21,18.59-4.18,5.13-4.86,7.69-12.41,7.69-22.46C103.21,207.89,103.16,206.46,103.06,205Zm-18.52,1c-1.14,5.24-3.65,7.51-7.53,6.75a7.44,7.44,0,0,1-3.29-1.57q-4.64-3.66-4.63-13.77A32.7,32.7,0,0,1,71,186c1.61-4.34,3.63-6.42,6-6,1.71.31,3.36,2,4.85,5a34.57,34.57,0,0,1,3.2,15.31A28.38,28.38,0,0,1,84.54,206Zm.3-31.77a3.86,3.86,0,0,1-2.91-2.89c0-.66.5-1,1.27-1a3,3,0,0,1,1.27.55,2.85,2.85,0,0,1,1.64,2.35C86.09,173.89,85.61,174.27,84.84,174.19Z" transform="translate(0 -74.29)"/><path d="M148.48,179.26c-.49-4.35-1.64-6.92-3.43-7.69a3,3,0,0,0-1-.18,14.4,14.4,0,0,1-2.61-.31c-3.64-.71-5.81-1.11-6.51-1.12a16.13,16.13,0,0,0-3.8.38c-6.47,1.38-11.83,6.16-16.13,14.15a52.93,52.93,0,0,0-6.19,25.36,41.13,41.13,0,0,0,3.65,17.8c2.93,6.21,7.23,10.47,12.9,12.6a161.34,161.34,0,0,1,7.78-22.14,6.29,6.29,0,0,1-1.56-.72Q127,214.54,127,204.11A37.53,37.53,0,0,1,128.92,192c1.6-4.75,3.59-7.16,6-7.12a3.58,3.58,0,0,1,1.72.49q1.42,1,3.06,5.12c1,2.51,1.94,3.94,2.84,4.32a2.6,2.6,0,0,0,1,.19c1,0,2-.79,2.91-2.17,1.55-2.57,2.31-6,2.31-10.36A23.09,23.09,0,0,0,148.48,179.26Zm-6.35-1.41a3.3,3.3,0,0,1-2.91-2.59,1.16,1.16,0,0,1,1.27-1.13,2.61,2.61,0,0,1,1.27.39c1.1.58,1.67,1.34,1.64,2.19A1.17,1.17,0,0,1,142.13,177.85Z" transform="translate(0 -74.29)"/><path d="M432.71,155.75a18.79,18.79,0,0,1-3.14-5.49,53,53,0,0,1-1.27-11.49,18.55,18.55,0,0,1,.74-5.65,10.91,10.91,0,0,1,2.1-3.43c1.28-1.55,2-2.63,1.93-3.17a2,2,0,0,0-1-1.38c-1.93-1.22-5.5-1.87-10.67-1.87-6.27,0-10.17,1.16-11.72,3.38a19.43,19.43,0,0,0-1.56,2.86c-.35.73-1.39,3.33-3,7.88-1,2.7-1.94,4.18-2.84,4.18-.71,0-1.72-1.46-2.91-4.21a59.75,59.75,0,0,0-5-10.2c-1.48-2.12-5.4-3.09-11.64-2.76a19.59,19.59,0,0,0-5.31.71c-4.28,1.44-6.42,2.91-6.42,4.34a4.14,4.14,0,0,0,1.27,2.4,17.37,17.37,0,0,1,2.68,3.84,15.24,15.24,0,0,1,.91,5.52v1a51.2,51.2,0,0,1-.33,5.9,162.33,162.33,0,0,1,18.31,14.52c-.08-.24-.18-.49-.29-.74a38,38,0,0,1-2.84-8.54,48.22,48.22,0,0,1-.82-7.74c0-2.28.28-3.5.75-3.57,1.14-.18,2.87,2.45,4.77,7.71,2.16,6,3.21,10.83,3.21,14.41a2.81,2.81,0,0,0,.23,1.09c.49,1.13,1.57,1.62,3.2,1.48a7.38,7.38,0,0,0,.91-.13,3,3,0,0,0,2.53-3c0-3.27.94-7.91,2.84-13.66,2-6.07,3.78-9.06,5.08-9,.52,0,.82,1.15.82,3.4a56.66,56.66,0,0,1-1,7.6,34.17,34.17,0,0,1-2,6.92,19.5,19.5,0,0,0-1.5,4.5c0,2.62,4,3.71,11.57,3.45,8.92-.32,13.55-2.21,13.6-5.9C435,159.49,434.19,157.76,432.71,155.75ZM387.92,128a2.23,2.23,0,0,1-2.18-.78,1.08,1.08,0,0,1,.09-.23c.24-.54.94-.84,2.09-.89a3.8,3.8,0,0,1,.66,0c1,.13,1.57.42,1.57.87C390,127.47,389.12,127.91,387.92,128Zm36.8-1.85a.7.7,0,0,1,.07-.22c.25-.5,1-.75,2.16-.73a4.27,4.27,0,0,1,.68.06c1,.18,1.54.56,1.49.93s-1,.88-2.17.85A2.74,2.74,0,0,1,424.72,126.14Z" transform="translate(0 -74.29)"/><path d="M494.55,150.62a29.75,29.75,0,0,0-8-16.73,27,27,0,0,0-18-9.1,25.61,25.61,0,0,0-3.81-.07,23,23,0,0,0-16.12,7.42,21.43,21.43,0,0,0-6.2,15.08,17.82,17.82,0,0,0,3.66,11c4.38,5.87,11.82,9.14,22.32,10.49,7.77,1,14,.51,18.59-1.85,5.13-2.61,7.69-7.1,7.69-13.52A26.59,26.59,0,0,0,494.55,150.62Zm-18.52-1c-1.14,3.25-3.65,4.59-7.53,4.13a10,10,0,0,1-3.29-1q-4.62-2.22-4.63-8.52a13.76,13.76,0,0,1,1.94-7.12c1.61-2.68,3.61-4,6-3.7a7.44,7.44,0,0,1,4.85,3.1,15,15,0,0,1,3.21,9.52A11.24,11.24,0,0,1,476,149.61Zm.3-19.49a3.75,3.75,0,0,1-1.27-.37c-1.09-.45-1.67-1-1.64-1.45s.49-.6,1.27-.53a4.23,4.23,0,0,1,1.27.36c1.1.45,1.67,1,1.64,1.47S477.11,130.19,476.33,130.12Z" transform="translate(0 -74.29)"/><path d="M564.68,189.18a45.61,45.61,0,0,1-3.13-8.65,95.18,95.18,0,0,1-1.27-15.36,27.47,27.47,0,0,1,.75-7.08,10.27,10.27,0,0,1,2.09-3.76c1.28-1.58,2-2.83,1.93-3.59a4.28,4.28,0,0,0-1-2.21c-1.94-2.35-5.51-4.41-10.68-6.09-6.27-2-10.17-1.8-11.72.42a18.57,18.57,0,0,0-1.57,2.91c-.34.78-1.38,3.58-3,8.25-1,2.78-2,4-2.83,3.7-.73-.3-1.72-2.33-2.91-5.9a95.87,95.87,0,0,0-5-13.24c-1.47-2.86-5.38-5.08-11.64-6.41a33.41,33.41,0,0,0-5.3-.71c-4.28-.23-6.42.41-6.42,1.86a6.64,6.64,0,0,0,1.27,3,30.52,30.52,0,0,1,2.68,5.08,19.47,19.47,0,0,1,.9,6v1a38.84,38.84,0,0,1-1.42,11.21,14.87,14.87,0,0,1-2.91,4.52c-1.65,1.94-2.47,3.72-2.46,5.24,0,3.84,4.61,6.92,13.66,10,7.59,2.58,11.52,2.71,11.57-.09a10.27,10.27,0,0,0-.75-3.17,55.5,55.5,0,0,1-3.65-18.8c0-2.43.29-3.65.75-3.55,1.15.23,2.86,3.72,4.77,10.23,2.16,7.37,3.21,13.17,3.21,17a3.8,3.8,0,0,0,.23,1.27,5.4,5.4,0,0,0,3.2,3.27c.3.12.61.23.9.32,1.69.38,2.54-.26,2.54-1.95,0-3.6.93-8.25,2.84-14,2-6.05,3.8-9,5.08-8.4.53.22.82,1.73.82,4.42a65.83,65.83,0,0,1-1,8.56,29,29,0,0,1-2,7,15.74,15.74,0,0,0-1.5,4.33c0,3,3.92,6.3,11.58,10.48,8.9,4.85,13.54,5.37,13.59.7C566.94,195.23,566.17,192.57,564.68,189.18Zm-44.79-51.64a3,3,0,0,1-2.17-1.48.8.8,0,0,1,.08-.24c.25-.51,1-.64,2.09-.38a4,4,0,0,1,.67.22c1,.45,1.58.93,1.58,1.42C521.93,137.57,521.07,137.81,519.89,137.54Zm39,11.7a3.91,3.91,0,0,1-2.23-1.94.83.83,0,0,1,.07-.26q.38-.87,2.16-.24a3.94,3.94,0,0,1,.68.31c1,.6,1.55,1.26,1.49,1.78S560.09,149.69,558.93,149.24Z" transform="translate(0 -74.29)"/><path d="M40,270.77c-2.15-3.23-5.88-7.4-11.2-12.81-1.3-1.31-2.25-2.28-2.84-2.9-2.84-3-4.26-5.25-4.26-6.58a2.45,2.45,0,0,1,.23-1.07c.79-1.46,2.21-1.61,4.26-.5a7.2,7.2,0,0,1,1.7,1.35,20.45,20.45,0,0,1,3,6q1.5,4.07,2.84,5.27a5.06,5.06,0,0,0,1,.66,2.49,2.49,0,0,0,2.91-.45c1.55-1.51,2.31-4.24,2.31-8.09a20.12,20.12,0,0,0-.22-2.95c-.49-4.09-1.64-6.85-3.43-8.35a6.26,6.26,0,0,0-1-.61,21.67,21.67,0,0,1-2.61-1.48c-3.59-2.32-5.74-3.74-6.42-4.09-5.08-2.54-10.29-3.45-14.79-2.62-3.87.7-6,3-6,6.64,0,3.31,2,8.17,6,14.43,1.29,2.05,4.31,6.34,9,12.69,3,4.06,4.49,6.5,4.49,7.42a.89.89,0,0,1-.16.54c-.64.84-2,.57-4.17-.85a19.42,19.42,0,0,1-4.86-5q-1.11-1.56-4-7c-1.89-3.53-3.66-5.9-5.29-7.14a4.58,4.58,0,0,0-3.29-1.14C1.05,252.46,0,254.68,0,259a34,34,0,0,0,1.79,11c2.54,7.49,8.19,15.26,17,21.68,8.41,6.17,15,7.83,19.78,5.8,4.17-1.77,6.28-5.92,6.28-12.06C44.8,280.53,43.17,275.69,40,270.77Zm-8.3-30.32a5.16,5.16,0,0,1,1.27,1c1.1,1,1.68,2,1.65,2.69,0,.56-.51.73-1.27.39a4.82,4.82,0,0,1-1.27-1c-1.09-1-1.68-2-1.65-2.72C30.41,240.26,30.9,240.11,31.65,240.45Z" transform="translate(0 -74.29)"/><path d="M103.06,292a54.28,54.28,0,0,0-8-24.43c-5-8.13-11-12.94-18-14.56a19,19,0,0,0-3.81-.49c-6.47-.22-11.83,2.74-16.12,8.74-4.08,5.7-6.2,12.63-6.2,21.16A43.68,43.68,0,0,0,54.61,300c4.08,9.72,12,17.48,22.32,20.27,7.76,2.12,14,.86,18.59-3.2,5.13-4.5,7.69-11.6,7.69-21.08C103.21,294.73,103.16,293.39,103.06,292Zm-18.52.24c-1.14,4.92-3.65,7-7.53,5.93a8.2,8.2,0,0,1-3.29-1.77c-3.09-2.6-4.63-7.17-4.63-13.64A28.61,28.61,0,0,1,71,272c1.61-4,3.63-5.79,6-5.18,1.72.45,3.36,2.21,4.85,5.18a33.16,33.16,0,0,1,3.2,14.81A25.57,25.57,0,0,1,84.54,292.21Zm.3-30.28a4.19,4.19,0,0,1-2.91-3c0-.61.5-.92,1.27-.79a3.25,3.25,0,0,1,1.27.61c1.1.76,1.67,1.58,1.64,2.36C86.09,261.74,85.61,262.06,84.84,261.93Z" transform="translate(0 -74.29)"/><path d="M119.66,283.9a167.89,167.89,0,0,1,1-18.54,34.7,34.7,0,0,0-5.61,7.48,47,47,0,0,0-6.19,23.79,36.35,36.35,0,0,0,3.65,16.69c2.83,5.59,6.93,9.38,12.32,11.16A164.12,164.12,0,0,1,119.66,283.9Z" transform="translate(0 -74.29)"/><path d="M432.71,214.91a19.82,19.82,0,0,1-3.14-6,65.11,65.11,0,0,1-1.27-12.84,23.91,23.91,0,0,1,.74-6.41,13.59,13.59,0,0,1,2.1-3.95c1.28-1.79,2-3,1.93-3.64a2.2,2.2,0,0,0-1-1.52c-1.93-1.31-5.5-1.92-10.67-1.67-4.53.23-7.82,1.12-9.89,2.6a164,164,0,0,1,23.37,39.57,5.47,5.47,0,0,0,0-.59C435,219,434.19,217.07,432.71,214.91Zm-8-32.88a.79.79,0,0,1,.07-.25c.25-.58,1-.9,2.16-.94a4.11,4.11,0,0,1,.68,0c1,.17,1.54.57,1.49,1s-1,1-2.17,1.06A2.54,2.54,0,0,1,424.72,182Z" transform="translate(0 -74.29)"/><path d="M494.55,209.26a35.39,35.39,0,0,0-8-18.41c-5-6.19-11-9.81-18-10.74A22,22,0,0,0,448.64,188a25.69,25.69,0,0,0-6.2,16.91A20.47,20.47,0,0,0,446.1,217c4.38,6.32,11.82,9.54,22.32,10.91,7.77,1,14,.63,18.59-1.73,5.13-2.6,7.69-7.17,7.69-14C494.7,211.27,494.65,210.29,494.55,209.26Zm-18.52-2c-1.14,3.48-3.65,4.89-7.53,4.36a9.68,9.68,0,0,1-3.29-1c-3.08-1.62-4.63-4.7-4.63-9.32a16.14,16.14,0,0,1,1.94-7.78c1.61-2.92,3.62-4.3,6-3.95,1.72.26,3.36,1.44,4.85,3.51a17.61,17.61,0,0,1,3.21,10.43A12.81,12.81,0,0,1,476,207.28Zm.3-21.06a4.1,4.1,0,0,1-1.27-.46c-1.09-.54-1.67-1.11-1.64-1.65s.49-.62,1.27-.52A4.33,4.33,0,0,1,476,184c1.1.56,1.67,1.15,1.64,1.68S477.11,186.34,476.33,186.22Z" transform="translate(0 -74.29)"/><path d="M564.68,260.64a58.32,58.32,0,0,1-3.13-9.53,102.55,102.55,0,0,1-1.27-15.77,25.3,25.3,0,0,1,.75-6.91,7.1,7.1,0,0,1,2.09-3.16c1.27-1.21,2-2.25,1.93-3a5.94,5.94,0,0,0-1-2.52c-1.94-2.94-5.51-6.1-10.68-9.19-6.27-3.76-10.17-4.38-11.72-2.49a14.73,14.73,0,0,0-1.57,2.63c-.34.72-1.38,3.35-3,7.79-1,2.66-2,3.77-2.83,3.24s-1.72-2.7-2.91-6.59a121.19,121.19,0,0,0-5-14.55c-1.47-3.22-5.38-6.24-11.64-8.54a31.55,31.55,0,0,0-5.3-1.49c-4.28-.81-6.42-.35-6.42,1.17a8.1,8.1,0,0,0,1.27,3.27,37,37,0,0,1,2.68,5.65,22.45,22.45,0,0,1,.9,6.43v1.07a41.11,41.11,0,0,1-1.42,11.63,13.93,13.93,0,0,1-2.91,4.5,8.45,8.45,0,0,0-2.46,5.34c0,4,4.61,7.53,13.66,11.66,7.59,3.47,11.52,4.19,11.57,1.32a11.9,11.9,0,0,0-.75-3.38,72,72,0,0,1-2.83-11,68.87,68.87,0,0,1-.82-9c0-2.52.3-3.74.75-3.57,1.17.44,2.86,4.3,4.77,11.32,2.16,8,3.21,14.08,3.21,18a4.23,4.23,0,0,0,.23,1.33,6.83,6.83,0,0,0,3.2,3.86,7.19,7.19,0,0,0,.9.48c1.69.69,2.54.18,2.54-1.55a43,43,0,0,1,2.84-13.75c2-5.77,3.8-8.34,5.08-7.49.54.36.82,2,.82,4.68a63.49,63.49,0,0,1-1,8.48,25.31,25.31,0,0,1-2,6.7,13.68,13.68,0,0,0-1.5,4.13c0,3,3.91,7.07,11.58,13,8.9,6.94,13.54,8.84,13.59,4.19C566.94,267.33,566.17,264.45,564.68,260.64Zm-44.79-62.22a3.66,3.66,0,0,1-2.17-1.89.66.66,0,0,1,.08-.22c.25-.5,1-.53,2.09-.07a4.4,4.4,0,0,1,.67.32c1,.65,1.58,1.23,1.58,1.74C521.93,198.78,521.06,198.87,519.89,198.42Zm36.81,17.93a.64.64,0,0,1,.07-.24c.25-.51,1-.39,2.16.38a4.85,4.85,0,0,1,.68.5c1,.89,1.55,1.71,1.49,2.22s-1,.51-2.17-.27A5.78,5.78,0,0,1,556.7,216.35Z" transform="translate(0 -74.29)"/><path d="M40,343.36c-2.15-2.79-5.88-6.56-11.2-11.78-1.3-1.27-2.25-2.22-2.84-2.82-2.84-2.95-4.26-5.1-4.26-6.27a1.74,1.74,0,0,1,.23-.89c.79-1.14,2.21-1,4.26.3a9.63,9.63,0,0,1,1.7,1.42,20.65,20.65,0,0,1,3,5.5,13.4,13.4,0,0,0,2.84,4.74,5.69,5.69,0,0,0,1,.67,2.89,2.89,0,0,0,2.91.06c1.55-1,2.31-3,2.31-6.09a13.51,13.51,0,0,0-.22-2.38c-.49-3.34-1.64-5.78-3.43-7.35a7.81,7.81,0,0,0-1-.71A28.36,28.36,0,0,1,32.63,316c-3.59-2.68-5.73-4.39-6.42-4.85-5.1-3.34-10.25-5.43-14.79-5.58-3.85-.12-6,1.74-6,5.27,0,3.19,2,8.1,6,14.17,1.29,2,4.31,6.16,9,12,3,3.73,4.49,5.88,4.49,6.65a.68.68,0,0,1-.16.46c-.64.67-2,.39-4.17-.91a18.64,18.64,0,0,1-4.86-4.52,67.09,67.09,0,0,1-4-6.47c-1.89-3.31-3.66-5.61-5.29-6.84a4.7,4.7,0,0,0-3.29-1.16c-2.09.28-3.14,2.54-3.14,6.82a31.42,31.42,0,0,0,1.79,10.68c2.54,7,8.19,13.39,17,18.32,8.41,4.73,15,5.87,19.78,4.36,4.17-1.35,6.28-4.42,6.28-9.19C44.8,351.5,43.17,347.62,40,343.36Zm-8.3-25.79a6.47,6.47,0,0,1,1.27,1c1.1,1.08,1.68,1.94,1.65,2.54,0,.44-.5.49-1.27.06a5.8,5.8,0,0,1-1.27-1c-1.09-1.08-1.68-2-1.65-2.57S30.89,317.12,31.65,317.57Z" transform="translate(0 -74.29)"/><path d="M103.06,364a33.07,33.07,0,0,0-8-17.61,35,35,0,0,0-18-11.74,27.31,27.31,0,0,0-3.81-.76c-6.47-.91-11.84.45-16.12,4.35C53.07,342,51,347,51,353.48a27.36,27.36,0,0,0,3.66,13.57c4.38,7.83,11.82,13.33,22.32,15.79,7.77,1.82,14,1.19,18.59-1.46,5.13-2.94,7.69-7.83,7.69-14.52Q103.21,365.51,103.06,364Zm-18.52-.71c-1.14,3.43-3.65,4.73-7.53,3.76a9.9,9.9,0,0,1-3.29-1.48c-3.09-2.06-4.63-5.5-4.63-10.19A14.87,14.87,0,0,1,71,347.78c1.61-2.73,3.62-3.82,6-3.16,1.72.48,3.36,1.88,4.85,4.11a19.34,19.34,0,0,1,3.2,10.78A12.72,12.72,0,0,1,84.54,363.3Zm.3-21.52a4.2,4.2,0,0,1-1.27-.54c-1.1-.63-1.67-1.28-1.64-1.84s.49-.62,1.27-.47a4.52,4.52,0,0,1,1.27.55c1.1.62,1.67,1.25,1.64,1.81S85.62,341.92,84.84,341.78Z" transform="translate(0 -74.29)"/><path d="M142.73,367.4c-.62.61-1.42,1.46-2.39,2.51-1.88,2-3.71,3.07-5.45,3.12a8,8,0,0,1-3.28-.55Q127,370.7,127,363.65a18.6,18.6,0,0,1,1.94-8.27c1.36-2.8,3-4.5,4.92-5-1.41-3.15-2.72-6.36-3.93-9.6A27.57,27.57,0,0,0,115,350.61a26.36,26.36,0,0,0-6.19,16.87,20.15,20.15,0,0,0,3.65,11.89c4.38,6.26,11.83,9.65,22.33,9.52a32.74,32.74,0,0,0,8.21-1c4.29-1.14,7.27-3.38,8.95-6.67A160.55,160.55,0,0,1,142.73,367.4Z" transform="translate(0 -74.29)"/><path d="M494.55,281.42a57.37,57.37,0,0,0-8-25c-5-8.4-11-13.22-18-14.14a14.31,14.31,0,0,0-3.81,0c-6.47.65-11.83,4.9-16.12,12.28a43.21,43.21,0,0,0-3,6.13,165.65,165.65,0,0,1,1.58,22.4q0,6.68-.5,13.21c4.46,8,11.67,12.39,21.66,13.72,7.77,1,14-.24,18.59-4.08,5.13-4.28,7.69-11,7.69-20.42C494.7,284.18,494.65,282.84,494.55,281.42Zm-18.52-1c-1.14,5-3.65,7.17-7.53,6.65a7.47,7.47,0,0,1-3.29-1.3c-3.08-2.14-4.63-6.44-4.63-13a31.38,31.38,0,0,1,1.94-11.11c1.61-4.26,3.63-6.31,6-6,1.72.27,3.36,1.86,4.85,4.7A31.49,31.49,0,0,1,476.56,275,25.88,25.88,0,0,1,476,280.4Zm.3-29.9a3.29,3.29,0,0,1-1.27-.58c-1.09-.7-1.67-1.48-1.64-2.25,0-.59.5-.92,1.27-.82a3.06,3.06,0,0,1,1.27.57c1.1.71,1.67,1.51,1.64,2.28C477.58,250.29,477.1,250.61,476.33,250.5Z" transform="translate(0 -74.29)"/><path d="M564.68,333a53,53,0,0,1-3.13-9.47,109.86,109.86,0,0,1-1.27-16.45,27.17,27.17,0,0,1,.75-7.19,6.32,6.32,0,0,1,2.09-3.08c1.27-1.08,2-2,1.93-2.78a6.94,6.94,0,0,0-1-2.72C562.15,288,558.58,284,553.41,280c-6.27-4.87-10.17-5.87-11.72-3.68a17.21,17.21,0,0,0-1.57,3.08c-.34.85-1.38,4-3,9.42-1,3.27-2,4.72-2.83,4.18s-1.72-3.15-2.91-7.87c-2-8.42-3.71-14.44-5-18-1.47-4-5.38-7.9-11.64-10.77a25.09,25.09,0,0,0-5.3-1.79c-4.28-.92-6.42-.17-6.42,1.93a13,13,0,0,0,1.27,4.37,57.63,57.63,0,0,1,2.68,7.48,39.33,39.33,0,0,1,.9,8.61v1.46a76.86,76.86,0,0,1-1.42,15.87,24.91,24.91,0,0,1-2.91,6.54,15.77,15.77,0,0,0-2.46,7.68c0,5.51,4.61,9.54,13.66,12.86,7.59,2.78,11.52,2.61,11.57-1.06a16.57,16.57,0,0,0-.75-4.1,97.24,97.24,0,0,1-2.83-13.48,106.58,106.58,0,0,1-.82-11.4c0-3.25.31-4.84.75-4.68,1.16.42,2.86,5.21,4.77,13.75,2.16,9.68,3.21,17,3.21,21.88a6.34,6.34,0,0,0,3.43,5.54,7.14,7.14,0,0,0,.9.34c1.69.38,2.54-.45,2.54-2.53a65,65,0,0,1,2.84-17c2-7.15,3.81-10.19,5.08-9.32.54.38.82,2.18.82,5.33a87.55,87.55,0,0,1-1,9.87,39,39,0,0,1-2,8.16,20.7,20.7,0,0,0-1.5,5.17c0,3.56,3.92,7.34,11.58,11.89,8.89,5.3,13.54,6.12,13.59,1.46C566.94,339.44,566.17,336.68,564.68,333Zm-44.79-68.45a4,4,0,0,1-2.17-2.37,1.21,1.21,0,0,1,.08-.3c.25-.66,1-.72,2.09-.17a4.17,4.17,0,0,1,.67.42c1,.8,1.58,1.53,1.58,2.2C521.93,264.94,521,265.08,519.89,264.55Zm36.81,22.14a.83.83,0,0,1,.07-.26c.25-.52,1-.3,2.16.68a7.34,7.34,0,0,1,.68.63c1,1.08,1.55,2,1.49,2.53s-1,.41-2.17-.55A7.16,7.16,0,0,1,556.7,286.69Z" transform="translate(0 -74.29)"/><path d="M40,406.18c-2.15-2.38-5.88-5.44-11.2-9.55-1.3-1-2.25-1.76-2.84-2.23-2.84-2.34-4.26-4.15-4.26-5.29a1.94,1.94,0,0,1,.23-.93c.79-1.28,2.21-1.44,4.26-.55a6.94,6.94,0,0,1,1.7,1.08,15.8,15.8,0,0,1,3,4.83q1.5,3.24,2.84,4.14a5.52,5.52,0,0,0,1,.49,3.07,3.07,0,0,0,2.91-.42c1.55-1.21,2.31-3.29,2.31-6.25a12.31,12.31,0,0,0-.22-2.29c-.49-3.16-1.64-5.36-3.43-6.63a5.41,5.41,0,0,0-1-.54,26.75,26.75,0,0,1-2.61-1.32c-3.59-2.05-5.73-3.33-6.42-3.66-5.1-2.34-10.28-3.34-14.79-2.41-3.88.8-6,3.24-6,6.76,0,3.16,2,7.5,6,12.53a127.34,127.34,0,0,0,9,9.72c3,3,4.49,4.81,4.49,5.57a.75.75,0,0,1-.16.48c-.64.8-2,.83-4.17,0a13.25,13.25,0,0,1-4.86-3.32,47.63,47.63,0,0,1-4-5.39c-1.89-2.8-3.66-4.62-5.29-5.39a4,4,0,0,0-3.29-.23c-2.09.87-3.14,3.46-3.14,7.74a26.9,26.9,0,0,0,1.79,10.12c2.54,6.25,8.19,10.82,17,13.51,8.41,2.57,15,2.37,19.78,0a10.29,10.29,0,0,0,6.28-9.9C44.8,413.31,43.17,409.8,40,406.18Zm-8.3-23.77a5.74,5.74,0,0,1,1.27.82c1.1.86,1.68,1.62,1.65,2.2s-.5.57-1.27.27a4.62,4.62,0,0,1-1.27-.81c-1.09-.86-1.68-1.64-1.65-2.23S30.89,382.11,31.65,382.41Z" transform="translate(0 -74.29)"/><path d="M103.06,421.18c-.74-5.81-3.43-11.14-8-16.17a33.61,33.61,0,0,0-18-10.57,27.6,27.6,0,0,0-3.81-.56c-6.47-.56-11.84,1.12-16.12,5.24A20.33,20.33,0,0,0,51,414.39a23,23,0,0,0,3.66,12.53c4.38,6.93,11.82,11.2,22.32,12.68,7.77,1.11,14,.23,18.59-2.36,5.13-2.86,7.69-7.33,7.69-13.45A23.92,23.92,0,0,0,103.06,421.18Zm-18.52-.26c-1.14,3.24-3.65,4.57-7.53,3.9a9.55,9.55,0,0,1-3.29-1.16c-3.09-1.73-4.63-4.84-4.63-9.27a14,14,0,0,1,1.94-7.3c1.6-2.68,3.61-3.81,6-3.3a8.65,8.65,0,0,1,4.85,3.66,16.56,16.56,0,0,1,3.2,9.93A11.16,11.16,0,0,1,84.54,420.92Zm.3-20.05a4.14,4.14,0,0,1-1.27-.47c-1.1-.56-1.67-1.15-1.64-1.68s.49-.59,1.27-.46a4.14,4.14,0,0,1,1.27.47c1.1.56,1.67,1.14,1.64,1.65S85.62,401,84.84,400.87Z" transform="translate(0 -74.29)"/><path d="M152.74,427.12a5.65,5.65,0,0,0-5.53-3.67,6.84,6.84,0,0,0-3.36,1,38.19,38.19,0,0,0-3.51,3,8.12,8.12,0,0,1-5.45,2.53,9.12,9.12,0,0,1-3.28-.62c-3.08-1.18-4.63-3.86-4.63-8.08a14.89,14.89,0,0,1,1.94-7.34c1.6-2.88,3.59-4.36,6-4.35a5.22,5.22,0,0,1,1.72.29,7.71,7.71,0,0,1,3.06,3.12c1,1.53,1.94,2.41,2.84,2.63a4.32,4.32,0,0,0,1,.1,4.38,4.38,0,0,0,2.91-1.38,10,10,0,0,0,2.09-8.5c-.49-2.71-1.64-4.28-3.43-4.7a4.93,4.93,0,0,0-1-.09,23.26,23.26,0,0,1-2.61-.1c-3.64-.36-5.81-.58-6.51-.58a25.19,25.19,0,0,0-3.8.28A25.7,25.7,0,0,0,115,409.12a22.2,22.2,0,0,0-6.19,15.23,17.14,17.14,0,0,0,3.65,10.81c4.38,5.67,11.83,8.69,22.33,8.9a39.08,39.08,0,0,0,8.21-.62c7.07-1.37,10.6-5.39,10.6-12.11A10.16,10.16,0,0,0,152.74,427.12Zm-12.25-24.26a3.52,3.52,0,0,1,1.27.21c1.1.33,1.67.8,1.64,1.33s-.49.69-1.27.73a3.52,3.52,0,0,1-1.27-.21c-1.09-.34-1.67-.81-1.64-1.33S139.72,402.89,140.49,402.86Z" transform="translate(0 -74.29)"/><path d="M194.8,421.26c-.64.71-1.51,1.76-2.61,3.11-1.89,2.3-3.71,3.56-5.45,3.7a8.59,8.59,0,0,1-3.29-.32c-3.09-.93-4.63-3.56-4.63-8a18,18,0,0,1,1.94-8c.08-.16.15-.32.23-.46q-4.71-3.8-9.17-8a35.34,35.34,0,0,0-4.94,5.25c-4.09,5.34-6.2,10.81-6.2,16.58a16,16,0,0,0,3.66,10.6c4.38,5.32,11.82,7.75,22.32,7.15a24.22,24.22,0,0,0,8.22-2.08q9.52-4,10.48-13.29Q200,424.61,194.8,421.26Z" transform="translate(0 -74.29)"/><path d="M432.71,379.43a38.4,38.4,0,0,1-3.14-9,103.23,103.23,0,0,1-1-11,164.19,164.19,0,0,1-18,27.28,21.63,21.63,0,0,0-.72,3.89c0,4.13,4,6.24,11.57,6.24,8.9,0,13.55-3.05,13.6-9.08A21.25,21.25,0,0,0,432.71,379.43Z" transform="translate(0 -74.29)"/><path d="M494.55,367a58.45,58.45,0,0,0-8-25.53c-5-8.47-11-13.33-18-14.23a15.19,15.19,0,0,0-3.81,0c-6.47.71-11.82,5.1-16.12,12.87a51.38,51.38,0,0,0-6.2,25.24,42.12,42.12,0,0,0,3.66,18c4.38,9.47,11.82,14.51,22.32,15.48,7.77.7,14-1.15,18.59-5.6,5.13-4.94,7.69-12.21,7.69-22.05C494.7,369.86,494.65,368.46,494.55,367Zm-18.52.28c-1.14,5.33-3.65,7.76-7.53,7.34a6.59,6.59,0,0,1-3.29-1.27q-4.62-3.25-4.63-13.64a35.43,35.43,0,0,1,1.94-11.82c1.61-4.53,3.63-6.71,6-6.39,1.71.25,3.36,1.9,4.85,4.85a33.85,33.85,0,0,1,3.21,15.21A28.91,28.91,0,0,1,476,367.28Zm.3-31.5a3,3,0,0,1-1.27-.55c-1.09-.72-1.67-1.52-1.64-2.34,0-.63.5-1,1.27-.9a3.06,3.06,0,0,1,1.27.57,2.89,2.89,0,0,1,1.64,2.34C477.58,335.53,477.1,335.87,476.33,335.78Z" transform="translate(0 -74.29)"/><path d="M564.68,405.78a40.34,40.34,0,0,1-3.13-8.57,103.67,103.67,0,0,1-1.27-16.15,29.78,29.78,0,0,1,.75-7.43,8.89,8.89,0,0,1,2.09-3.65c1.27-1.45,2-2.56,1.93-3.33a5.52,5.52,0,0,0-1-2.47c-1.94-2.81-5.51-5.8-10.68-8.62-6.27-3.41-10.17-3.62-11.72-1.07a21.49,21.49,0,0,0-1.57,3.46c-.34.93-1.38,4.3-3,10.2-1,3.54-2,5.21-2.83,4.84-.72-.32-1.72-2.86-2.91-7.46a176.49,176.49,0,0,0-5-17.51c-1.47-3.91-5.38-7.21-11.64-9.33a23.14,23.14,0,0,0-5.3-1.19c-4.28-.44-6.42.53-6.42,2.71a12.9,12.9,0,0,0,1.27,4.41,55.69,55.69,0,0,1,2.68,7.44,40.57,40.57,0,0,1,.9,8.8v1.51A85.11,85.11,0,0,1,506.45,379a30.39,30.39,0,0,1-2.91,7.16,18.64,18.64,0,0,0-2.46,8.28c0,5.73,4.62,9.39,13.66,11.29,7.59,1.59,11.52.57,11.57-3.2a15.87,15.87,0,0,0-.75-4.07,90.47,90.47,0,0,1-2.83-13.29,108.69,108.69,0,0,1-.82-11.56c0-3.34.31-5,.75-5,1.13.23,2.86,4.88,4.77,13.25,2.17,9.51,3.21,16.75,3.21,21.75a5.78,5.78,0,0,0,.23,1.6,4.35,4.35,0,0,0,3.2,3.3,4.87,4.87,0,0,0,.9.16c1.69,0,2.54-1,2.54-3.15a74.41,74.41,0,0,1,2.84-17.91c2-7.73,3.81-11.22,5.08-10.63.53.26.82,2,.82,5.19a95.82,95.82,0,0,1-1,10.25,47,47,0,0,1-2,8.76,25.49,25.49,0,0,0-1.5,5.6c0,3.63,3.94,6.59,11.58,9,8.89,2.87,13.54,2.13,13.59-2.56C566.94,411.53,566.17,409,564.68,405.78Zm-44.79-59.37a3.36,3.36,0,0,1-2.17-2.13,1.3,1.3,0,0,1,.08-.32c.25-.73,1-.89,2.09-.48a3.73,3.73,0,0,1,.67.33c1,.66,1.58,1.34,1.58,2C521.93,346.5,521,346.78,519.89,346.41ZM556.7,361.5a1,1,0,0,1,.07-.28c.25-.58,1-.55,2.16.12a5.27,5.27,0,0,1,.68.47c1,.81,1.55,1.61,1.49,2.15s-1,.67-2.17,0A5,5,0,0,1,556.7,361.5Z" transform="translate(0 -74.29)"/><path d="M40,467c-2.15-1.84-5.88-4-11.2-6.78-1.3-.66-2.25-1.16-2.84-1.48-2.84-1.59-4.26-3-4.26-4.12a2.21,2.21,0,0,1,.23-1c.79-1.47,2.21-2,4.26-1.62a5.43,5.43,0,0,1,1.7.65,11.11,11.11,0,0,1,3,4c1,1.89,2,3,2.84,3.39a4.78,4.78,0,0,0,1,.27,3.66,3.66,0,0,0,2.91-1.05c1.55-1.49,2.31-3.65,2.31-6.53a10.77,10.77,0,0,0-.22-2.16c-.49-3-1.64-4.89-3.43-5.76a4.64,4.64,0,0,0-1-.33,22.21,22.21,0,0,1-2.61-.74c-3.59-1.23-5.74-2-6.42-2.14a22.53,22.53,0,0,0-14.79,1.49c-3.93,1.93-6,5-6,8.53,0,3.13,2,6.79,6,10.59a90.68,90.68,0,0,0,9,7c3,2.14,4.49,3.52,4.49,4.26a.93.93,0,0,1-.16.52q-1,1.44-4.17,1.17a9.54,9.54,0,0,1-4.86-1.87,30.13,30.13,0,0,1-4-4.13c-1.89-2.19-3.66-3.45-5.29-3.67a4.26,4.26,0,0,0-3.29.85C1.05,468,0,471,0,475.25a22.24,22.24,0,0,0,1.79,9.48c2.54,5.34,8.19,7.85,17,7.85,8.41,0,15-1.86,19.78-5.24,4.17-2.93,6.28-6.5,6.28-10.93C44.8,472.94,43.17,469.87,40,467Zm-8.3-21.32a3.88,3.88,0,0,1,1.27.52c1.1.6,1.68,1.24,1.65,1.8s-.5.65-1.27.52a3.64,3.64,0,0,1-1.27-.5c-1.09-.6-1.68-1.25-1.65-1.82S30.89,445.57,31.65,445.71Z" transform="translate(0 -74.29)"/><path d="M103.06,473.29c-.74-5.23-3.43-10-8-14.33a30.68,30.68,0,0,0-18-8.51,26,26,0,0,0-3.81-.19,21.6,21.6,0,0,0-16.12,6.92A22.26,22.26,0,0,0,51,472.8a18.25,18.25,0,0,0,3.66,11.32c4.38,5.81,11.82,8.47,22.32,8.48,7.77,0,14-1.44,18.59-4.18,5.13-3.05,7.69-7.23,7.69-12.78A19.39,19.39,0,0,0,103.06,473.29Zm-18.52,1.1c-1.14,3.1-3.65,4.59-7.53,4.42a9.83,9.83,0,0,1-3.29-.69q-4.64-1.85-4.63-8.11a13.77,13.77,0,0,1,1.94-7.1c1.6-2.71,3.61-4,6-3.73a7.57,7.57,0,0,1,4.85,3,13.55,13.55,0,0,1,3.2,8.92A10.09,10.09,0,0,1,84.54,474.39Zm.3-18.59a4.16,4.16,0,0,1-1.27-.34c-1.1-.44-1.67-.95-1.64-1.43s.49-.59,1.27-.53a3.92,3.92,0,0,1,1.27.35c1.1.43,1.67.94,1.64,1.41S85.62,455.85,84.84,455.8Z" transform="translate(0 -74.29)"/><path d="M152.74,478a5.87,5.87,0,0,0-5.53-3.31,7.53,7.53,0,0,0-3.36.82,36.36,36.36,0,0,0-3.51,2.58,8.83,8.83,0,0,1-5.45,2.19,10.35,10.35,0,0,1-3.28-.52c-3.08-1-4.63-3.36-4.63-7.1a12.09,12.09,0,0,1,1.94-6.51c1.6-2.54,3.59-3.84,6-3.8a6.13,6.13,0,0,1,1.72.28,7.67,7.67,0,0,1,3.06,2.79,5.5,5.5,0,0,0,2.84,2.36,5.06,5.06,0,0,0,1,.11,4.67,4.67,0,0,0,2.91-1.14,7.08,7.08,0,0,0,2.31-5.59,7.21,7.21,0,0,0-.22-1.77c-.5-2.37-1.64-3.78-3.43-4.21a4.42,4.42,0,0,0-1-.12,25.77,25.77,0,0,1-2.61-.17c-3.64-.42-5.81-.66-6.51-.67a26.58,26.58,0,0,0-3.8.18A25.73,25.73,0,0,0,115,462c-4.08,4.15-6.19,8.81-6.19,13.91a13.77,13.77,0,0,0,3.65,9.55c4.38,4.87,11.83,7.17,22.33,7.17A48.31,48.31,0,0,0,143,492c7.07-1.21,10.6-4.57,10.6-10.35A7.8,7.8,0,0,0,152.74,478Zm-12.25-21.45a4,4,0,0,1,1.27.22c1.1.32,1.67.75,1.64,1.2s-.49.61-1.27.62a4,4,0,0,1-1.27-.22c-1.09-.33-1.67-.76-1.64-1.22S139.72,456.56,140.49,456.55Z" transform="translate(0 -74.29)"/><path d="M204.58,476.56a5.16,5.16,0,0,0-5.53-3.08,7.58,7.58,0,0,0-3.35,1.19,45.61,45.61,0,0,0-3.51,3,8.46,8.46,0,0,1-5.45,2.55,10.73,10.73,0,0,1-3.29-.46c-3.09-.95-4.63-3.25-4.63-7a12.87,12.87,0,0,1,1.94-6.67c1.61-2.66,3.58-4.1,6-4.18a5.12,5.12,0,0,1,1.71.22,6.74,6.74,0,0,1,3.06,2.5,4.65,4.65,0,0,0,2.84,2.07,5.15,5.15,0,0,0,1,0,5.09,5.09,0,0,0,2.92-1.59,9,9,0,0,0,2.31-6.34,7.7,7.7,0,0,0-.23-1.86c-.5-2.48-1.64-3.81-3.44-3.95a4.27,4.27,0,0,0-1,.06,25.73,25.73,0,0,1-2.62.28c-3.62.22-5.79.2-6.49.23a26.75,26.75,0,0,0-3.81.42,28,28,0,0,0-16.12,8.66c-4.1,4.36-6.2,9-6.2,13.94a12.85,12.85,0,0,0,3.66,9.19c4.38,4.64,11.82,6.89,22.32,6.89a46.35,46.35,0,0,0,8.22-.63q10.59-1.94,10.59-11.48A8.69,8.69,0,0,0,204.58,476.56Zm-12.24-21.37a3.4,3.4,0,0,1,1.27,0c1.08.15,1.67.52,1.64,1s-.5.72-1.27.86a3.89,3.89,0,0,1-1.27,0c-1.1-.15-1.67-.51-1.64-1S191.55,455.34,192.34,455.19Z" transform="translate(0 -74.29)"/><path d="M261.79,473.13q-.81-6-6.56-5.39a6.49,6.49,0,0,0-1.58.37,13.63,13.63,0,0,0-4.17,3.46,9.14,9.14,0,0,1-1,1.12,11.47,11.47,0,0,1-7.91,3.9,5.44,5.44,0,0,1-3.28-1.17c-1.75-1.39-2.64-2.82-2.62-4.26s1.07-2.12,3-2.36a6.55,6.55,0,0,1,3.66.81,6.79,6.79,0,0,0,2.61,1,2.24,2.24,0,0,0,1.05-.43q1.94-1.54,1.94-5.57a10.47,10.47,0,0,0-.3-2.57c-.55-2-1.44-2.85-2.69-2.68a5.63,5.63,0,0,0-2,1.13,9.63,9.63,0,0,1-4.26,2.17,6.58,6.58,0,0,1-.9.06c-1.74,0-2.61-.6-2.61-1.89a5.06,5.06,0,0,1,1.42-3.08,12,12,0,0,1,7.54-4.27,10.62,10.62,0,0,1,6.12.5,14.23,14.23,0,0,1,3.67,2.74,4.85,4.85,0,0,0,4,1.63,3.09,3.09,0,0,0,.9-.27c1.79-.75,2.68-2.72,2.68-5.89a11.9,11.9,0,0,0-2-6.73l-.06-.09q-5.07-.76-10-1.85C241,445,235.93,446,227.3,447.67c-7.76,1.49-11.69,3.22-11.71,5.17a3.9,3.9,0,0,0,1.19,2.21,13,13,0,0,1,2.76,4.17,20.48,20.48,0,0,1,.75,5.78,37.22,37.22,0,0,1-1.72,11.44,19.68,19.68,0,0,1-2.91,5.09c-1.65,2.25-2.48,4.05-2.47,5.41,0,3.41,4.61,5.12,13.67,5.13l24.25-.07c2.54-.05,5-1.69,7.18-5.05A21.28,21.28,0,0,0,262,475.11,11.59,11.59,0,0,0,261.79,473.13Zm-10.52-28.7a2.74,2.74,0,0,1,1.27,0c1.09.18,1.67.63,1.65,1.23s-.5.89-1.27,1.05a3.22,3.22,0,0,1-1.27,0c-1.1-.2-1.68-.64-1.65-1.23S250.49,444.6,251.27,444.43Z" transform="translate(0 -74.29)"/><path d="M326.48,479.68a11.35,11.35,0,0,0-3.66-3.89,10,10,0,0,1-3.65-4.38,42.34,42.34,0,0,0-6.42-11.94c-1.4-1.71-2.14-2.75-2.1-3a7.65,7.65,0,0,1,1.2-1.22,14.2,14.2,0,0,0,5.37-11.36,1,1,0,0,0,0-.17c-4.95,1.06-10,1.86-15.11,2.45a4.75,4.75,0,0,1,.79,2.74,4.2,4.2,0,0,1-.3,1.56c-.8,1.82-2.49,2.9-5.08,3.26a9.38,9.38,0,0,1-3,0c-2.43-.53-3.65-1.77-3.65-3.76a5.22,5.22,0,0,1,.3-1.66,6.58,6.58,0,0,1,.67-1.26q-3.94.19-7.94.21h-.44q-4.57,0-9.1-.24a13.06,13.06,0,0,1,1.5,3.21,40.53,40.53,0,0,1,1.13,9.3,57.34,57.34,0,0,1-1.65,12.89,26.94,26.94,0,0,1-2.84,6.46c-1.62,2.85-2.47,5.15-2.45,6.93,0,4.48,4.59,6.81,13.58,6.84,7.59,0,11.52-1.8,11.57-5.25a27.25,27.25,0,0,0-1.34-6.43c-.93-3.16-1.7-5.87-2.24-8.14a18.41,18.41,0,0,1-.45-4.27,8.59,8.59,0,0,1,.67-3.37c.84-1.94,2-3,3.36-3.15,1.17-.12,2.26.88,3.21,2.93,1.75,4,2.71,10.7,2.76,19.82a7.7,7.7,0,0,0,1.27,4.55c1.69,2.18,5.75,3.31,12.17,3.31a31.8,31.8,0,0,0,5.6-.43c4.63-1,6.94-3.92,6.94-8.73A9.61,9.61,0,0,0,326.48,479.68Z" transform="translate(0 -74.29)"/><path d="M432.71,473.81a42.89,42.89,0,0,1-3.14-9.6,161,161,0,0,1-1.27-20.29,57.77,57.77,0,0,1,.74-10.06,25.51,25.51,0,0,1,2.1-6.14c1.28-2.79,2-4.72,1.93-5.74a4.28,4.28,0,0,0-1-2.45c-1.93-2.17-5.5-3.3-10.67-3.33-6.27,0-10.17,2-11.72,5.86a49.67,49.67,0,0,0-1.56,5c-.35,1.3-1.39,5.85-3,13.66-1,4.66-2,7.12-2.84,7-.69-.05-1.72-2.64-2.91-7.48-2.05-8.7-3.7-14.64-5-17.95-1.48-3.76-5.41-5.6-11.64-5.38a15.36,15.36,0,0,0-5.31.85l-.78.31h0c-1.54,1.08-3.1,2.11-4.68,3.14a4,4,0,0,0-.93,2.51,10.46,10.46,0,0,0,1.27,4.14,41.45,41.45,0,0,1,2.68,6.87,43,43,0,0,1,.91,9.27v1.66a113.63,113.63,0,0,1-1.43,18.87,46.11,46.11,0,0,1-2.9,8.79c-1.66,3.95-2.48,7.22-2.47,9.71,0,6.27,4.64,9.55,13.67,9.59,7.57,0,11.51-2.36,11.56-6.88a20.2,20.2,0,0,0-.74-4.6,104.74,104.74,0,0,1-2.84-14.66c-.56-5.55-.82-9.9-.82-13.08,0-3.83.3-5.89.74-5.95,1.07-.16,2.88,4.46,4.78,13.57,2.17,10.36,3.21,18.71,3.21,24.72a7.73,7.73,0,0,0,.23,1.84c.49,2,1.57,3,3.2,3a4.78,4.78,0,0,0,.91-.1c1.68-.56,2.53-2.13,2.53-4.73,0-5.53.93-13.28,2.84-23.05,2-10.31,3.81-15.48,5.08-15.4.51,0,.82,2.05.82,6,0,2.13-.31,6.51-1,13.15a88.84,88.84,0,0,1-2,11.76,49.35,49.35,0,0,0-1.5,7.56c0,4.48,4,6.88,11.57,6.89,8.89,0,13.55-3.44,13.6-9.9A23.94,23.94,0,0,0,432.71,473.81Zm-44.79-50.45a2.11,2.11,0,0,1-2.18-1.48,3.79,3.79,0,0,1,.08-.38,2,2,0,0,1,2.1-1.41,2.75,2.75,0,0,1,.66.07c1,.29,1.57.82,1.57,1.59A2.34,2.34,0,0,1,387.92,423.36Zm36.8-2a2,2,0,0,1,.07-.39c.25-.91,1-1.36,2.16-1.34a2.94,2.94,0,0,1,.68.1c1,.34,1.54,1,1.49,1.68A2,2,0,0,1,427,423,2.48,2.48,0,0,1,424.72,421.38Z" transform="translate(0 -74.29)"/><path d="M494.55,456.13a57.2,57.2,0,0,0-8-25.63c-5-8.31-11-12.9-18-13.43a15.14,15.14,0,0,0-3.81.19c-6.47,1.09-11.82,5.87-16.12,14.26a58.47,58.47,0,0,0-6.2,27.06,46.57,46.57,0,0,0,3.66,19.09q6.57,14.86,22.32,14.87c7.77,0,14-2.74,18.59-8,5.13-5.85,7.69-13.81,7.69-24C494.7,459.09,494.65,457.63,494.55,456.13ZM476,458.64c-1.14,5.69-3.65,8.51-7.53,8.4a6.16,6.16,0,0,1-3.29-1.07c-3.08-2.06-4.63-6.79-4.63-14.12a40.34,40.34,0,0,1,1.94-12.61c1.61-4.89,3.63-7.31,6-7.12,1.71.14,3.36,1.76,4.85,4.75a35.31,35.31,0,0,1,3.21,15.7A32.9,32.9,0,0,1,476,458.64Zm.3-33.12a2.75,2.75,0,0,1-1.27-.49,2.78,2.78,0,0,1-1.64-2.33,1.07,1.07,0,0,1,1.27-1,2.54,2.54,0,0,1,1.27.49,2.74,2.74,0,0,1,1.64,2.32C477.58,425.15,477.1,425.55,476.33,425.52Z" transform="translate(0 -74.29)"/><path d="M564.68,478.67a28.52,28.52,0,0,1-3.13-7.51,96.67,96.67,0,0,1-1.27-15.8,32.91,32.91,0,0,1,.75-7.7,13.22,13.22,0,0,1,2.09-4.33c1.28-1.86,2-3.2,1.93-4a4,4,0,0,0-1-2.15c-1.94-2.2-5.51-4.08-10.68-5.42-6.27-1.63-10.17-.88-11.72,2.1a31,31,0,0,0-1.57,3.92c-.34,1.05-1.38,4.72-3,11.15-1,3.83-2,5.81-2.83,5.63-.71-.14-1.72-2.49-2.91-6.9a159,159,0,0,0-5-16.8c-1.47-3.67-5.39-6.23-11.64-7.31a22.7,22.7,0,0,0-5.3-.32c-4.28.24-6.42,1.55-6.42,3.81a12.19,12.19,0,0,0,1.27,4.37,51.78,51.78,0,0,1,2.68,7.28,41.32,41.32,0,0,1,.9,8.95v1.56a95.12,95.12,0,0,1-1.42,17.44,38.3,38.3,0,0,1-2.91,7.93,22.46,22.46,0,0,0-2.46,9c0,5.92,4.63,9,13.66,9,7.59,0,11.52-2,11.57-5.92a14.73,14.73,0,0,0-.75-4,82.13,82.13,0,0,1-2.83-13,109.2,109.2,0,0,1-.82-11.69c0-3.43.3-5.23.75-5.23,1.09,0,2.86,4.39,4.77,12.51,2.17,9.23,3.21,16.34,3.21,21.45a5.33,5.33,0,0,0,.23,1.57,3.11,3.11,0,0,0,3.2,2.54,4.49,4.49,0,0,0,.9-.07c1.69-.46,2.54-1.75,2.54-3.91,0-4.58.92-11,2.84-19,2-8.4,3.81-12.43,5.08-12.18.52.1.82,1.81.82,5a105.72,105.72,0,0,1-1,10.65,58.28,58.28,0,0,1-2,9.47,32.13,32.13,0,0,0-1.5,6.13c0,3.65,4,5.6,11.58,5.61,8.9,0,13.54-2.52,13.59-7.25C566.94,483.63,566.17,481.4,564.68,478.67Zm-44.79-48.11a2.63,2.63,0,0,1-2.17-1.77,1.82,1.82,0,0,1,.08-.35c.25-.77,1-1.08,2.09-.88a3.87,3.87,0,0,1,.67.21c1,.47,1.58,1.05,1.58,1.76A1.89,1.89,0,0,1,519.89,430.56Zm39,8.05a3.34,3.34,0,0,1-2.23-1.81,1.1,1.1,0,0,1,.07-.29c.25-.66,1-.85,2.16-.53a3.37,3.37,0,0,1,.68.25c1,.52,1.55,1.15,1.49,1.7S560.08,438.92,558.93,438.61Z" transform="translate(0 -74.29)"/><path d="M283.47,124.79H283a158.68,158.68,0,0,0,.41,317.36h.43c87.49-.23,158.49-71.6,158.26-159.1C441.91,195.78,370.73,124.79,283.47,124.79Zm-104.22,77.3a126.08,126.08,0,0,0-1.59,25.8c-9,12.79-15.12,22.22-18.31,28A176.11,176.11,0,0,0,149,278.12l-15.21.21a150.74,150.74,0,0,1,47.58-104.46,34.17,34.17,0,0,0,5.52,2.23C184.12,183.5,180.91,193,179.25,202.09ZM179.93,368a127.92,127.92,0,0,0,6.66,22.29c-1.87.49-4,1.12-6.22,1.86a148.51,148.51,0,0,1-46.68-105l15.13-.21c5.13,12.71,9.41,22.05,12.69,27.76,3.25,6,8.65,14,16.06,23.73C177.78,349.81,178.27,359.18,179.93,368ZM284.85,169.94Zm63.09,82.48c12.63-9.77,24.41-18.16,35-24.94,7.72,4.66,15.75,9.79,22.47,15.79A120.31,120.31,0,0,1,421.84,262c.6,9,.9,16,.88,20.84,0,4.61-.19,11.57-.7,20.69-6.4,7.71-12.78,15.15-20.22,21.65a155,155,0,0,1-19.68,14.28c-9.61-6.61-20.89-14.95-33.53-24.78l-1-.78Zm78.22.57a119.34,119.34,0,0,0-14.84-16.34C403.9,230,395,224.39,386.54,219.29c-7.46-15-13.07-25.47-16.66-31.16a169.41,169.41,0,0,0-14.29-19.7l7.33-12A150.79,150.79,0,0,1,429.51,250C428.3,251,427.17,252,426.16,253Zm-195.88,58.6c0-1.33-.07-2.65-.1-4.13,0-1.29-.06-2.57-.08-3.85l-.07-4.39c0-1.2,0-2.4,0-3.59l0-4.6v-4.09c0-1.05,0-2.09,0-3.13l.1-7.78.6-19.26c.06-1.27.12-2.54.19-3.82l.08-1.87c10.33-6,29.92-17.17,52.58-30.13,16.39,9.1,35.07,19.82,55.56,31.85l-.36,60.67c-17.12,10.81-35.81,21.36-55.56,31.35l-52.8-30.55ZM226,322l53.17,30.77c2.47,11,4.09,25.48,4.82,43.12a272.82,272.82,0,0,1-26,10.41,187,187,0,0,1-23.54,5.92c-9-4.46-15.71-8-20-10.39-5.15-2.89-11.24-6.58-18.1-11-2.84-7.05-6-15.33-7.7-24.48-1.51-8.05-2-16.59-2.19-26.88C200.25,333.22,213.55,327.34,226,322ZM347.82,164.15c-12.27-1.63-21.82-2.47-28.37-2.51-.89,0-1.85,0-2.87,0-6.6,0-15.74.55-27.16,1.65a136.91,136.91,0,0,0-24.1-11.51,158.55,158.55,0,0,0-25-5.93,60,60,0,0,0,1-6.17,150.38,150.38,0,0,1,41.69-6h.39A149.91,149.91,0,0,1,355.27,152ZM279.39,213.1c-24.76,14.16-43.11,24.66-53.09,30.42-13.3-5-26.68-10.62-39.79-16.69A114.89,114.89,0,0,1,188,203.67c1.59-8.76,4.6-17.71,8.64-28.44,9.49-6.31,16.5-10.74,20.87-13.15a182.91,182.91,0,0,1,16.86-8.26c10.89,1.72,19.84,3.45,28.08,6.3A125.08,125.08,0,0,1,284,170.35,364.28,364.28,0,0,1,279.39,213.1ZM260.75,414.74a278.69,278.69,0,0,0,28.76-11.61c12.63,1.26,22.42,1.82,29.1,1.67s16.49-.75,29.4-2.23l7.39,12.34a150.13,150.13,0,0,1-71.55,18.37h-.61a149,149,0,0,1-42.12-6.07c-.38-2.69-.8-5-1.26-7A187.8,187.8,0,0,0,260.75,414.74Zm103.72-28c5.77-7.09,12.79-20.18,20.86-38.9a169.4,169.4,0,0,0,22.31-16.05,172.53,172.53,0,0,0,17.92-18.74c.34.36.71.72,1.08,1.09.88.86,1.86,1.75,2.9,2.66a150.79,150.79,0,0,1-66.49,93.58l-7.29-12.17C359.48,393.54,362.4,389.68,364.47,386.78Z" transform="translate(0 -74.29)"/></svg>