<svg id="katman_1" data-name="katman 1" xmlns="http://www.w3.org/2000/svg" viewBox="0 0 566.93 435.8"><path d="M41.6,98.57C39.38,96,35.49,93.06,30,89.94l-3-1.66c-3-1.76-4.43-3.33-4.43-4.77a3.76,3.76,0,0,1,.23-1.27,4.2,4.2,0,0,1,4.43-2.88,3.87,3.87,0,0,1,1.79.53c.94.64,2,2.29,3.11,5,1,2.45,2,3.91,3,4.33a3,3,0,0,0,1,.26,3.7,3.7,0,0,0,3-1.87q2.41-3.57,2.41-9.94a20.62,20.62,0,0,0-.24-3.13q-.76-6.37-3.57-7.48a3,3,0,0,0-1-.19A17.37,17.37,0,0,1,34,66.56a58.1,58.1,0,0,0-6.69-1,25.72,25.72,0,0,0-15.4,6c-4.13,3.29-6.25,7-6.22,10.86,0,3.45,2.13,7.21,6.22,11.47,1.35,1.37,4.48,4.08,9.41,8.33,3.11,2.72,4.67,4.62,4.67,5.6a1.44,1.44,0,0,1-.16.67q-1,1.84-4.35,1.27a10.11,10.11,0,0,1-5.06-2.66,42.66,42.66,0,0,1-4.2-5.11c-2-2.62-3.81-4-5.52-4.28a4.38,4.38,0,0,0-3.43.88C1.09,100.27,0,103.26,0,107.72A26.34,26.34,0,0,0,1.87,118C4.51,124.27,10.4,129,19.52,131.3q13.14,3.38,20.61-2.92c4.34-3.66,6.53-9,6.53-15.81A21.11,21.11,0,0,0,41.6,98.57ZM33,69.43a2.85,2.85,0,0,1,1.32.37c1.14.56,1.74,1.31,1.7,2.12,0,.64-.52,1-1.31,1a3.06,3.06,0,0,1-1.33-.39c-1.13-.57-1.74-1.29-1.71-2.09C31.67,69.86,32.18,69.44,33,69.43Z" transform="translate(0 -65.57)"/><path d="M107.35,106A61,61,0,0,0,99,78.5C93.8,69.85,87.55,65.57,80.3,65.57a15.94,15.94,0,0,0-4,.5c-6.74,1.6-12.33,6.78-16.8,15.06A53.18,53.18,0,0,0,53.08,107a42.84,42.84,0,0,0,3.81,18.37c3.36,8.8,14.13,16.32,23.25,17.08,7.86.66,14.54-1.21,19.36-6.41,5.34-5.75,8-14.24,8-25.34C107.51,109.17,107.46,107.6,107.35,106ZM88.07,108.8c-1.19,5.87-3.81,8.62-7.86,8.3a6.68,6.68,0,0,1-3.41-1.27c-3.22-2.23-4.82-7-4.82-14.31a39.84,39.84,0,0,1,2-12.69c1.68-5,3.79-7.57,6.23-7.45,1.78.07,3.5,1.69,5.06,4.76a36.83,36.83,0,0,1,3.34,16.36A34.21,34.21,0,0,1,88.07,108.8Zm.31-34.86a2.66,2.66,0,0,1-1.32-.42,2.7,2.7,0,0,1-1.71-2.36A1.22,1.22,0,0,1,86.67,70a2.57,2.57,0,0,1,1.33.42,2.67,2.67,0,0,1,1.7,2.36A1.22,1.22,0,0,1,88.38,73.94Z" transform="translate(0 -65.57)"/><path d="M159.11,114.75c-1.19-4.61-3.11-6.94-5.76-6.94a5,5,0,0,0-3.5,1.76,52.12,52.12,0,0,0-3.65,5.48c-2,3.15-3.87,4.72-5.68,4.7a6,6,0,0,1-3.42-1.08c-3.21-2.1-4.82-7-4.82-14.77a45,45,0,0,1,2-13.55C136,85,138,82.26,140.52,82.27a3.31,3.31,0,0,1,1.79.54c1,.71,2.05,2.62,3.19,5.71,1,2.82,2,4.44,3,4.85a2.66,2.66,0,0,0,1,.23c1,0,2.1-.88,3-2.42q2.4-4.31,2.41-11.63a27.36,27.36,0,0,0-.24-3.61c-.52-4.9-1.7-7.8-3.57-8.65a2.64,2.64,0,0,0-1-.22,14.17,14.17,0,0,1-2.72-.33,58.83,58.83,0,0,0-6.77-1.17,15.19,15.19,0,0,0-4,.53c-6.74,1.71-12.32,7.31-16.8,16.43A63.7,63.7,0,0,0,113.38,111a46.8,46.8,0,0,0,3.81,19.55c4.56,10.14,12.31,15.41,23.26,15.54A24.14,24.14,0,0,0,149,144.8c7.36-2.62,11-10,11-22.33A30.87,30.87,0,0,0,159.11,114.75ZM146.36,70.17a2.66,2.66,0,0,1,1.32.42,2.8,2.8,0,0,1,1.7,2.47,1.26,1.26,0,0,1-1.32,1.28,2.52,2.52,0,0,1-1.32-.44A2.78,2.78,0,0,1,145,71.45,1.26,1.26,0,0,1,146.36,70.17Z" transform="translate(0 -65.57)"/><path d="M213.11,111.42c-1.2-4.15-3.11-6.13-5.75-5.86a5.64,5.64,0,0,0-3.5,2.06,55.63,55.63,0,0,0-3.66,5.69c-2,3.28-3.86,5.06-5.67,5.29a5.58,5.58,0,0,1-3.42-.58c-3.22-1.62-4.82-6.52-4.82-14.22a45.5,45.5,0,0,1,2-13.52c1.68-5.34,3.73-8.2,6.23-8.3a3.23,3.23,0,0,1,1.78.44c1,.65,2.05,2.45,3.19,5.38,1,2.65,2,4.13,2.95,4.47a2.51,2.51,0,0,0,1,.12c1.05-.1,2.1-1,3-2.5,1.61-2.84,2.42-6.53,2.42-11.13a26.06,26.06,0,0,0-.24-3.41c-.52-4.61-1.72-7.34-3.58-8.15a3,3,0,0,0-1-.2,14.53,14.53,0,0,1-2.72-.3,64.13,64.13,0,0,0-6.77-1.13,14.65,14.65,0,0,0-4,.53c-6.74,1.71-12.32,7.34-16.8,16.61a65.63,65.63,0,0,0-6.45,28.88q0,11.26,3.8,19.4c3.14,6.77,7.79,11.39,13.95,13A169.17,169.17,0,0,1,213,128a39.56,39.56,0,0,0,1.05-9.48A25.34,25.34,0,0,0,213.11,111.42ZM200.35,70a2.49,2.49,0,0,1,1.32.39,2.65,2.65,0,0,1,1.72,2.34A1.27,1.27,0,0,1,202.07,74a2.46,2.46,0,0,1-1.32-.38A2.64,2.64,0,0,1,199,71.28,1.25,1.25,0,0,1,200.35,70Z" transform="translate(0 -65.57)"/><path d="M272.71,105.17c-.56-4.7-2.84-6.84-6.84-6.36a6.46,6.46,0,0,0-1.63.45c-1.2.59-2.65,2-4.36,4.41a13.54,13.54,0,0,1-1,1.49c-2.33,3.2-5.15,5.17-8.24,5.54a4.59,4.59,0,0,1-3.43-1.49,8.67,8.67,0,0,1-2.72-6.07,3.18,3.18,0,0,1,3.12-3.28,5.73,5.73,0,0,1,3.81,1.21c1.34.94,2.26,1.45,2.72,1.39a2,2,0,0,0,1.08-.56c1.36-1.37,2-3.8,2-7.33a18.15,18.15,0,0,0-.31-3.38c-.58-2.64-1.5-3.92-2.8-3.81A4.51,4.51,0,0,0,252,88.67c-1.76,1.59-3.23,2.46-4.42,2.56a4.92,4.92,0,0,1-.94,0,2.65,2.65,0,0,1-2.72-3A7.71,7.71,0,0,1,245.42,84a9.6,9.6,0,0,1,7.85-4.67A10.16,10.16,0,0,1,259.65,81a21,21,0,0,1,3.81,4c1.4,1.74,2.8,2.54,4.2,2.42a3,3,0,0,0,.94-.24c1.86-.76,2.79-3,2.79-6.74a17.67,17.67,0,0,0-2.1-8.34c-1.63-3.14-3.44-4.76-5.36-4.75-10.86.08-16.29.12-27.15.18-8.08.06-12.18,1.72-12.21,4.9a10,10,0,0,0,1.25,3.89,31.09,31.09,0,0,1,2.88,7.26,51,51,0,0,1,.78,9.32,91.57,91.57,0,0,1-1.79,18.34,45.21,45.21,0,0,1-3,8.51c-.64,1.45-1.16,2.8-1.57,4a169.62,169.62,0,0,1,49.2-10.58,29.29,29.29,0,0,0,.58-5.72A15.71,15.71,0,0,0,272.71,105.17Zm-11-35.95a2.74,2.74,0,0,1,1.32.32c1.14.48,1.74,1.15,1.71,1.9,0,.58-.51,1-1.32,1a2.86,2.86,0,0,1-1.33-.3c-1.14-.48-1.73-1.15-1.7-1.92C260.45,69.66,261,69.25,261.75,69.22Z" transform="translate(0 -65.57)"/><path d="M340.1,104.2c-.54-.78-1.88-1.56-3.81-2.37s-3.3-1.84-3.82-2.9A32.84,32.84,0,0,0,325.78,90c-1.45-1.33-2.22-2.18-2.17-2.34a7,7,0,0,1,1.25-1c3.73-2.38,5.59-5.25,5.59-8.73a8.45,8.45,0,0,0-1.94-5.27c-3.32-4.22-9.67-6.45-19.05-6.42-5.6,0-8.4,0-14,0a31.81,31.81,0,0,0-5.52.47c-4.46.77-6.69,2.16-6.69,4.08a7.88,7.88,0,0,0,1.24,3.38,25.24,25.24,0,0,1,2.88,5.87A44.25,44.25,0,0,1,288.54,90a61.59,61.59,0,0,1-1.72,13.62,34.3,34.3,0,0,1-2.95,7.19c-.37.72-.7,1.42-1,2.08h.6a170,170,0,0,1,23.9,1.67,33.24,33.24,0,0,0-1.26-4.46c-1-2.78-1.77-5.24-2.34-7.32a15,15,0,0,1-.47-4,7.58,7.58,0,0,1,.71-3.2c.87-1.85,2.06-2.86,3.49-3,1.22-.11,2.36.77,3.34,2.56,1.82,3.51,2.83,9.24,2.88,17.22a5.29,5.29,0,0,0,1,3.39c2.35.43,4.69.91,7,1.45a47.17,47.17,0,0,0,6-.93,48.08,48.08,0,0,0,5.84-1.55q7.23-2.59,7.23-7.81A4.83,4.83,0,0,0,340.1,104.2ZM315.21,82.47c-.83,1.53-2.6,2.41-5.29,2.65a11.59,11.59,0,0,1-3.11-.16c-2.54-.59-3.81-1.83-3.81-3.7a4.44,4.44,0,0,1,.31-1.53c.94-2,3-3.09,6.15-3.24a6.24,6.24,0,0,1,3.26.73c1.87,1,2.8,2.26,2.8,3.94A2.9,2.9,0,0,1,315.21,82.47Zm3.5-10.78a3.44,3.44,0,0,1-1.32-.23c-1.14-.32-1.74-.83-1.72-1.44s.53-.87,1.33-.9a3.45,3.45,0,0,1,1.32.25c1.14.37,1.75.9,1.71,1.49S319.52,71.65,318.71,71.69Z" transform="translate(0 -65.57)"/><path d="M438.93,85.63q-1-8-8.25-13.56c-5.23-4.07-11.52-6-18.89-6h-13c-1.87,0-3.64.09-5.29.25-4.62.48-6.92,1.39-6.92,2.74a3.71,3.71,0,0,0,1.23,2,12.93,12.93,0,0,1,2.88,3.88,19.23,19.23,0,0,1,1,6.14,27.7,27.7,0,0,1-1.55,9.09,18.69,18.69,0,0,1-3,4.73c-1.7,2.16-2.57,4-2.56,5.36,0,3.47,4.77,5.09,14.16,4.9,5.24-.12,7.88-.16,13.14-.2,7.66-.07,13.88-1.32,18.58-3.82,5.7-3,8.56-7.56,8.56-13.41A15.65,15.65,0,0,0,438.93,85.63Zm-19.28,1.16c-1.09,3.17-3.68,4.78-7.78,4.79a7.51,7.51,0,0,1-1.56-.16c-2.8-.65-4.2-3.45-4.2-8.24V81c0-5.16,2-7.74,5.76-7.73a7.31,7.31,0,0,1,5.06,2.29,11.18,11.18,0,0,1,3.26,8.16A8.73,8.73,0,0,1,419.65,86.79Zm-.4-16.74a4.33,4.33,0,0,1-1.32-.2c-1.14-.26-1.74-.65-1.71-1.08s.51-.62,1.32-.63a4.64,4.64,0,0,1,1.33.19c1.14.3,1.74.71,1.7,1.13S420.07,70,419.25,70.05Z" transform="translate(0 -65.57)"/><path d="M502.65,101A30.29,30.29,0,0,0,499,98.22a20.29,20.29,0,0,1-7.08-8.59,48.58,48.58,0,0,1-3.8-19.56,3.55,3.55,0,0,0-.08-.77,3.16,3.16,0,0,0-1.79-1.49c-2.65-1.18-6.69-1.76-12.14-1.77-1.7,0-3.39.06-5.05.2-5.39.45-8.09,1.24-8.09,2.4a3.87,3.87,0,0,0,1.16,2.17,6.31,6.31,0,0,1,1.8,3.77c0,1.26-.66,3.34-2,6.15a64.6,64.6,0,0,1-7.39,12,11.2,11.2,0,0,1-.94,1.09,13.75,13.75,0,0,1-5.44,3.12c-.62.19-1.06.33-1.32.43a3.4,3.4,0,0,0-2.34,3.31,4.6,4.6,0,0,0,.71,2.52c1.19,1.9,4.51,3,9.95,3.26a33.43,33.43,0,0,0,6.69-.14c3.58-.56,5.36-2.44,5.36-5.61,0-.25-.05-.69-.07-1.21s0-1,0-1.22c0-4.26,1.83-6.29,5.43-6.09a6.6,6.6,0,0,1,2,.4c1.61.57,2.41,2.1,2.41,4.55,0,.63-.07,1.68-.15,3.12-.07,1.1-.08,1.89-.08,2.3a4.66,4.66,0,0,0,1.32,3.35c1.77,1.71,6,2.9,12.61,3.72a51.76,51.76,0,0,0,7.84.56c3.84-.18,5.76-1.83,5.76-5A5.92,5.92,0,0,0,502.65,101Zm-30.1-14.23a1.94,1.94,0,0,1-2-1.94,10.21,10.21,0,0,1,.31-2.73c.47-1.92,1.22-2.91,2.1-2.84,1.13.11,1.89,2,1.94,5.28A2,2,0,0,1,472.55,86.77Zm8.95-16.89a4.69,4.69,0,0,1-1-.12c-1.19-.23-1.81-.61-1.78-1s.68-.73,1.86-.74a7.38,7.38,0,0,1,.93.06c1.2.23,1.82.62,1.79,1.1S482.62,69.88,481.5,69.88Z" transform="translate(0 -65.57)"/><path d="M566.77,96.41a37.25,37.25,0,0,0-8.24-21c-5.24-6.31-11.53-9.12-18.9-9.14l-13,0a44.11,44.11,0,0,0-5.29.3c-4.62.61-6.92,1.7-6.92,3.36a5.09,5.09,0,0,0,1.23,2.51,17,17,0,0,1,2.88,4.91,29.37,29.37,0,0,1,1,7.58A36.66,36.66,0,0,1,518,95.58a18,18,0,0,1-3,5c-1.7,2.2-2.58,4.08-2.57,5.64,0,3.9,4.78,6.64,14.16,8.58,5.25,1.07,7.89,1.64,13.15,2.87,7.66,1.8,13.88,1.82,18.59-.56,5.68-2.87,8.55-8.9,8.55-17.61C566.93,98.57,566.88,97.52,566.77,96.41Zm-19.28-1c-1.09,4.18-3.68,5.86-7.78,5.2a7.38,7.38,0,0,1-1.55-.45c-2.81-1.3-4.21-5-4.21-11.23V86.1c0-6.72,2-10.1,5.76-9.91,1.77.1,3.5,1.27,5.06,3.47A20.33,20.33,0,0,1,548,91.27,15.2,15.2,0,0,1,547.49,95.44ZM547.09,72a3.3,3.3,0,0,1-1.32-.32c-1.14-.4-1.74-1-1.71-1.58s.52-.86,1.33-.87a3.65,3.65,0,0,1,1.32.31c1.14.44,1.74,1,1.7,1.65S547.9,72,547.09,72Z" transform="translate(0 -65.57)"/><path d="M41.6,185.89c-2.22-3-6.11-6.79-11.65-11.36-1.36-1.11-2.34-1.93-3-2.44-3-2.56-4.43-4.55-4.43-6a3.18,3.18,0,0,1,.23-1.19c.82-1.74,2.3-2.25,4.43-1.55a5.58,5.58,0,0,1,1.79,1c.94.89,2,2.8,3.11,5.73,1,2.68,2,4.35,3,5a3.55,3.55,0,0,0,1,.51,2.88,2.88,0,0,0,3-1.07c1.61-1.94,2.41-5,2.41-9.13a21,21,0,0,0-.24-3.13q-.76-6.39-3.57-8.2a4.08,4.08,0,0,0-1-.44,18.71,18.71,0,0,1-2.72-1c-3.73-1.66-6-2.64-6.69-2.83A22.65,22.65,0,0,0,11.9,151c-4.08,1.86-6.25,4.83-6.22,8.68,0,3.45,2.13,7.94,6.22,13.49,1.35,1.8,4.48,5.52,9.41,11.12,3.11,3.59,4.67,5.88,4.67,6.84a1.13,1.13,0,0,1-.16.61q-1,1.55-4.35.05a14.74,14.74,0,0,1-5.06-4.11,63.21,63.21,0,0,1-4.2-6.37c-2-3.22-3.81-5.23-5.52-6.07a4.09,4.09,0,0,0-3.43-.29c-2.17.87-3.26,3.46-3.26,7.92a31.3,31.3,0,0,0,1.87,10.94c2.64,7.15,8.53,13.79,17.66,18.65,8.75,4.67,15.63,5.25,20.6,2.25,4.34-2.63,6.53-7.43,6.53-14A24.8,24.8,0,0,0,41.6,185.89ZM33,155.22a3.92,3.92,0,0,1,1.32.73c1.14.85,1.74,1.72,1.7,2.51,0,.62-.52.89-1.32.7a4.15,4.15,0,0,1-1.32-.74c-1.13-.86-1.74-1.74-1.71-2.52C31.67,155.3,32.18,155,33,155.22Z" transform="translate(0 -65.57)"/><path d="M107.35,202.11A59.58,59.58,0,0,0,99,175.52c-5.24-8.67-11.49-13.44-18.74-14.44a16.08,16.08,0,0,0-4-.1c-6.74.53-12.33,4.53-16.8,11.69a43.73,43.73,0,0,0-6.45,23.8A44.94,44.94,0,0,0,56.89,215a32.91,32.91,0,0,0,23.25,19.64c8.07,1.71,14.54.1,19.36-4.53,5.34-5.13,8-13,8-23.51C107.51,205.15,107.46,203.67,107.35,202.11Zm-19.28,1.2c-1.19,5.48-3.81,7.87-7.86,7.09a7.65,7.65,0,0,1-3.41-1.63Q72,205,72,194.39a34.39,34.39,0,0,1,2-11.9c1.68-4.54,3.79-6.72,6.22-6.29,1.79.31,3.51,2.07,5.07,5.19a36.17,36.17,0,0,1,3.34,16A30.27,30.27,0,0,1,88.07,203.31Zm.31-33.21a2.88,2.88,0,0,1-1.32-.56,3,3,0,0,1-1.71-2.45c0-.68.52-1.07,1.32-1a3.12,3.12,0,0,1,1.33.55,3,3,0,0,1,1.7,2.46C89.68,169.78,89.18,170.17,88.38,170.1Z" transform="translate(0 -65.57)"/><path d="M151.1,166.89a3,3,0,0,0-1-.19,15.24,15.24,0,0,1-2.72-.28,66.18,66.18,0,0,0-6.77-1.12,16.5,16.5,0,0,0-4,.45c-6.74,1.49-12.32,6.51-16.8,14.9a55.38,55.38,0,0,0-6.45,26.5,42.43,42.43,0,0,0,3.81,18.5,28.89,28.89,0,0,0,3.65,5.89A168,168,0,0,1,132.38,204c-.07-1-.1-2-.1-3a39.37,39.37,0,0,1,2-12.63c1.67-5,3.74-7.49,6.22-7.47a3.63,3.63,0,0,1,1.79.49,7.9,7.9,0,0,1,2.2,3q4.55-6.36,9.71-12.32Q153.26,167.79,151.1,166.89Zm-3,6.55a3.39,3.39,0,0,1-3-2.66,1.24,1.24,0,0,1,1.33-1.19,2.7,2.7,0,0,1,1.32.39c1.14.59,1.74,1.38,1.7,2.26A1.23,1.23,0,0,1,148.06,173.44Z" transform="translate(0 -65.57)"/><path d="M438.93,139.06a23.91,23.91,0,0,0-8.25-15.5,26.55,26.55,0,0,0-18.89-6.89c-5.2.08-7.79.15-13,.34a41,41,0,0,0-5.29.5c-4.62.78-6.92,2-6.92,3.6a4.36,4.36,0,0,0,1.23,2.34,14.53,14.53,0,0,1,2.88,4.46,25.93,25.93,0,0,1,1,7.2,39.09,39.09,0,0,1-1.55,10.82,17.57,17.57,0,0,1-1.5,3.34,166.76,166.76,0,0,1,14.85,13.12c2.67-.25,5-.42,8.43-.64,7.66-.49,13.88-2.14,18.58-5.09,5.7-3.57,8.56-8.63,8.56-15.24A19.63,19.63,0,0,0,438.93,139.06Zm-19.28,1.51q-1.63,5.51-7.78,5.78a6.83,6.83,0,0,1-1.56-.11c-2.8-.64-4.2-3.82-4.2-9.4v-2.57c0-6,2-9.12,5.76-9.2a6.71,6.71,0,0,1,5.06,2.56,13.81,13.81,0,0,1,3.26,9.36A11.66,11.66,0,0,1,419.65,140.57Zm-.4-19.34a4.07,4.07,0,0,1-1.32-.21c-1.14-.3-1.74-.74-1.71-1.24s.51-.72,1.32-.75a3.86,3.86,0,0,1,1.33.22c1.14.33,1.74.8,1.7,1.3S420.06,121.21,419.25,121.23Z" transform="translate(0 -65.57)"/><path d="M502.65,160.33a35.94,35.94,0,0,0-3.65-3.46,25.66,25.66,0,0,1-7.08-10.06,59.11,59.11,0,0,1-3.8-21.47,4.53,4.53,0,0,0-.08-.85,4,4,0,0,0-1.79-1.85c-2.65-1.63-6.69-2.8-12.14-3.38a48.14,48.14,0,0,0-5.05-.3c-5.39,0-8.09.67-8.09,2a4.91,4.91,0,0,0,1.16,2.5,7.82,7.82,0,0,1,1.8,4.3c0,1.38-.66,3.62-2,6.65a73.23,73.23,0,0,1-7.39,13,14.6,14.6,0,0,1-.94,1.17,13.25,13.25,0,0,1-5.44,3.36c-.62.2-1.06.36-1.32.47a3.76,3.76,0,0,0-2.34,3.69,5.65,5.65,0,0,0,.71,2.82c1.19,2.12,4.51,3.29,9.95,3.73a33.65,33.65,0,0,0,6.69,0c3.58-.51,5.36-2.46,5.36-5.94,0-.28-.05-.75-.07-1.33s0-1,0-1.34c0-4.66,1.83-6.79,5.43-6.31a6.73,6.73,0,0,1,2,.59q2.42,1.13,2.41,5.13c0,.69-.07,1.83-.15,3.38-.07,1.19-.08,2-.08,2.48a5.61,5.61,0,0,0,1.32,3.72c1.77,2,6,3.54,12.61,5.08a59.75,59.75,0,0,0,7.84,1.47c3.84.27,5.76-1.19,5.76-4.5A7.35,7.35,0,0,0,502.65,160.33Zm-30.1-18.57a2.23,2.23,0,0,1-2-2.28,12,12,0,0,1,.31-3c.47-2.06,1.24-3.08,2.1-2.92,1.13.22,1.89,2.33,1.94,5.93C474.91,141.12,474.05,141.94,472.55,141.76Zm8.95-17.49a5.42,5.42,0,0,1-1-.24c-1.19-.4-1.81-.87-1.78-1.35s.69-.7,1.86-.57a5.26,5.26,0,0,1,.93.18c1.2.38,1.82.88,1.79,1.4S482.62,124.4,481.5,124.27Z" transform="translate(0 -65.57)"/><path d="M566.77,171.46a52.1,52.1,0,0,0-8.24-24c-5.24-8.17-11.54-13.11-18.9-15.28-5.2-1.51-7.79-2.22-13-3.54a39.12,39.12,0,0,0-5.28-1c-4.62-.44-6.92.25-6.92,2a6.92,6.92,0,0,0,1.23,2.89,23.16,23.16,0,0,1,2.88,5.71,34.47,34.47,0,0,1,1,8.12A36.38,36.38,0,0,1,518,157.21a15,15,0,0,1-3,4.72c-1.7,2-2.58,3.83-2.57,5.46,0,4.08,4.78,7.61,14.16,11.53,5.25,2.16,7.89,3.34,13.15,5.89,7.66,3.73,13.88,5.54,18.59,4.62,5.68-1.09,8.55-6.06,8.55-14.77C566.93,173.67,566.88,172.62,566.77,171.46Zm-19.28-7.26c-1.09,3.93-3.68,4.89-7.78,3.15a9.63,9.63,0,0,1-1.55-.87c-2.81-2-4.21-6.2-4.21-12.56V151c0-6.89,2-9.85,5.76-8.6,1.78.6,3.5,2.29,5,5A25.87,25.87,0,0,1,548,160.13,13.93,13.93,0,0,1,547.49,164.2Zm-.4-23.88a4.78,4.78,0,0,1-1.32-.73c-1.14-.76-1.74-1.5-1.71-2.12s.53-.72,1.33-.49a4.72,4.72,0,0,1,1.32.72c1.14.8,1.74,1.59,1.7,2.22S547.89,140.57,547.09,140.32Z" transform="translate(0 -65.57)"/><path d="M41.6,271.08c-2.22-3.38-6.11-7.77-11.65-13.49-1.36-1.39-2.34-2.42-3-3.07-3-3.2-4.43-5.54-4.43-6.94a2.64,2.64,0,0,1,.23-1.12c.83-1.51,2.3-1.64,4.43-.45A7.55,7.55,0,0,1,29,247.44a22.12,22.12,0,0,1,3.11,6.32c1,2.85,2,4.71,3,5.54a4.87,4.87,0,0,0,1,.7,2.56,2.56,0,0,0,3-.43c1.61-1.58,2.41-4.42,2.41-8.44a20.8,20.8,0,0,0-.24-3.09c-.51-4.27-1.7-7.17-3.57-8.75a6.5,6.5,0,0,0-1-.65A23.1,23.1,0,0,1,34,237.07c-3.73-2.46-6-4-6.69-4.35-5.3-2.73-10.72-3.76-15.4-3-4,.65-6.25,2.93-6.22,6.77,0,3.45,2.13,8.58,6.22,15.22,1.35,2.16,4.48,6.72,9.41,13.43C24.42,269.44,26,272,26,273a.94.94,0,0,1-.16.57c-.67.86-2.12.55-4.35-1a20.62,20.62,0,0,1-5.06-5.29c-.78-1.11-2.17-3.58-4.2-7.4s-3.81-6.25-5.52-7.59A4.92,4.92,0,0,0,3.26,251c-2.17.23-3.26,2.49-3.26,6.95a36.09,36.09,0,0,0,1.87,11.48c2.64,7.89,8.53,16.21,17.66,23.11,8.75,6.61,15.63,8.43,20.6,6.35,4.34-1.8,6.53-6.15,6.53-12.55C46.66,281.31,45,276.26,41.6,271.08ZM33,239.34a5.27,5.27,0,0,1,1.32,1c1.14,1.09,1.75,2.06,1.7,2.83,0,.59-.52.76-1.31.39a5.19,5.19,0,0,1-1.33-1c-1.13-1.09-1.74-2.08-1.71-2.85C31.67,239.11,32.18,239,33,239.34Z" transform="translate(0 -65.57)"/><path d="M107.35,292.79A55.86,55.86,0,0,0,99,267.47c-5.24-8.42-11.49-13.35-18.74-15a21.39,21.39,0,0,0-4-.48c-6.74-.19-12.33,2.92-16.8,9.19-4.24,6-6.45,13.2-6.45,22.11a45.68,45.68,0,0,0,3.81,18.41c4.23,10.11,12.51,18.21,23.25,21,8.08,2.12,14.54.69,19.36-3.63,5.35-4.78,8-12.23,8-22.09C107.51,295.65,107.46,294.25,107.35,292.79Zm-19.28.53c-1.19,5.15-3.81,7.3-7.85,6.27a8.2,8.2,0,0,1-3.42-1.8C73.58,295.1,72,290.34,72,283.58a30.19,30.19,0,0,1,2-11.22c1.68-4.19,3.79-6.06,6.22-5.45,1.8.46,3.51,2.28,5.07,5.36a34.5,34.5,0,0,1,3.34,15.42A26.94,26.94,0,0,1,88.07,293.32Zm.31-31.58a3.22,3.22,0,0,1-1.32-.63c-1.14-.78-1.74-1.63-1.71-2.46,0-.65.52-1,1.32-.85a3.25,3.25,0,0,1,1.33.63c1.14.77,1.74,1.62,1.7,2.45C89.68,261.52,89.18,261.86,88.38,261.74Z" transform="translate(0 -65.57)"/><path d="M438.93,199a26.75,26.75,0,0,0-8.25-17,23.05,23.05,0,0,0-15.51-6.86c.68.81,1.34,1.65,2,2.48a2.2,2.2,0,0,1,.37-.07,3.34,3.34,0,0,1,1.33.17c1.14.31,1.74.8,1.7,1.38s-.51.78-1.32.85H419a171.15,171.15,0,0,1,18.53,30.23,22.46,22.46,0,0,0,1.56-8.53A24.22,24.22,0,0,0,438.93,199Z" transform="translate(0 -65.57)"/><path d="M502.65,222.94A41,41,0,0,0,499,219a30.06,30.06,0,0,1-7.08-11.18,69,69,0,0,1-3.8-23.19,5,5,0,0,0-.08-.9,4.55,4.55,0,0,0-1.79-2.13c-2.65-2-6.69-3.49-12.14-4.39a40.08,40.08,0,0,0-5.05-.53c-5.39-.23-8.09.52-8.09,1.94a5.72,5.72,0,0,0,1.16,2.76,9.25,9.25,0,0,1,1.8,4.74c0,1.51-.66,3.95-2,7.26a86.15,86.15,0,0,1-7.39,14.3,12.61,12.61,0,0,1-6.38,5.2c-.62.24-1.06.43-1.32.56a4.44,4.44,0,0,0-2.34,4.19,6.55,6.55,0,0,0,.71,3.09c1.19,2.29,4.51,3.4,9.95,3.68a32.48,32.48,0,0,0,6.69-.16c3.58-.64,5.36-2.77,5.36-6.54,0-.31-.05-.83-.07-1.47s0-1.13,0-1.43c0-5.08,1.84-7.41,5.43-6.83a6.56,6.56,0,0,1,2,.67q2.42,1.28,2.41,5.6c0,.74-.06,2-.15,3.64-.07,1.29-.08,2.19-.08,2.67a6.47,6.47,0,0,0,1.32,4c1.77,2.15,6,3.87,12.61,5.79a69.24,69.24,0,0,0,7.84,2c3.84.53,5.76-.83,5.76-4.32A8.64,8.64,0,0,0,502.65,222.94Zm-30.1-21.37a2.42,2.42,0,0,1-2-2.52,14,14,0,0,1,.31-3.22c.47-2.23,1.25-3.3,2.1-3.1,1.13.27,1.89,2.57,1.94,6.47C474.92,200.93,474,201.79,472.55,201.57ZM481.5,183a4.23,4.23,0,0,1-1-.33c-1.19-.49-1.81-1-1.78-1.54s.69-.73,1.86-.51a5.54,5.54,0,0,1,.93.24c1.2.49,1.82,1.08,1.79,1.63S482.62,183.24,481.5,183Z" transform="translate(0 -65.57)"/><path d="M566.77,246.52A67.94,67.94,0,0,0,558.53,220c-5.24-9.75-11.54-16.5-18.9-20.42-5.2-2.77-7.79-4-13-6.38a37.9,37.9,0,0,0-5.28-2c-4.62-1.26-6.92-.87-6.92.93a8.49,8.49,0,0,0,1.23,3.21,28.88,28.88,0,0,1,2.88,6.39,39.17,39.17,0,0,1,1,8.59,37,37,0,0,1-1.56,11,13.39,13.39,0,0,1-3,4.54c-1.7,1.87-2.57,3.7-2.57,5.39,0,4.28,4.78,8.35,14.17,13.75,5.24,3,7.88,4.65,13.14,8.26,7.66,5.24,13.88,8.55,18.59,8.86,5.67.38,8.55-3.67,8.55-12.38C566.93,248.78,566.88,247.7,566.77,246.52ZM547.49,234c-1.09,3.71-3.68,4.1-7.78,1.48a10.88,10.88,0,0,1-1.55-1.19c-2.81-2.65-4.21-7.17-4.21-13.69v-3c0-7.07,2-9.7,5.76-7.6,1.79,1,3.5,3.15,5.06,6.25A31.51,31.51,0,0,1,548,230,13.12,13.12,0,0,1,547.49,234Zm-.4-24.33a6.73,6.73,0,0,1-1.32-1.07c-1.14-1.06-1.74-1.94-1.71-2.58s.53-.61,1.33-.16a6.21,6.21,0,0,1,1.32,1.05c1.14,1.11,1.74,2,1.7,2.69C548.39,210,547.89,210.09,547.09,209.63Z" transform="translate(0 -65.57)"/><path d="M41.6,346.72c-2.22-2.92-6.11-6.87-11.65-12.38-1.36-1.36-2.34-2.36-3-3-3-3.12-4.43-5.38-4.43-6.59a1.83,1.83,0,0,1,.23-.93c.83-1.16,2.3-1,4.43.4A10,10,0,0,1,29,325.74a22.16,22.16,0,0,1,3.11,5.76,13.93,13.93,0,0,0,3,5,6.66,6.66,0,0,0,1,.72,3,3,0,0,0,3,.08q2.41-1.51,2.41-6.28a13.67,13.67,0,0,0-.24-2.48c-.51-3.47-1.7-6-3.57-7.67a7.05,7.05,0,0,0-1-.75c-.73-.44-1.63-1.06-2.72-1.88-3.73-2.84-6-4.68-6.69-5.16-5.31-3.57-10.67-5.89-15.4-6.18-4-.25-6.25,1.62-6.22,5.3,0,3.31,2.13,8.5,6.22,14.93,1.35,2.09,4.48,6.52,9.41,12.71,3.11,3.95,4.67,6.2,4.67,7a.71.71,0,0,1-.16.47c-.67.69-2.12.37-4.35-1a19.44,19.44,0,0,1-5.06-4.82,68.89,68.89,0,0,1-4.2-6.82c-2-3.49-3.81-5.94-5.52-7.27A5,5,0,0,0,3.26,326Q0,326.36,0,333a33.11,33.11,0,0,0,1.87,11.17c2.64,7.41,8.53,14.19,17.65,19.49,8.76,5.1,15.64,6.37,20.61,4.83,4.34-1.33,6.53-4.51,6.53-9.46C46.66,355.21,45,351.18,41.6,346.72ZM33,319.83a7.51,7.51,0,0,1,1.32,1.1c1.14,1.13,1.75,2,1.7,2.66,0,.46-.51.51-1.31,0a6.32,6.32,0,0,1-1.33-1.09c-1.13-1.13-1.74-2.07-1.71-2.69C31.67,319.39,32.18,319.35,33,319.83Z" transform="translate(0 -65.57)"/><path d="M107.35,367.83A33.79,33.79,0,0,0,99,349.61,35.88,35.88,0,0,0,80.3,337.68a29.74,29.74,0,0,0-4-.76c-6.74-.89-12.34.54-16.8,4.59-4.25,3.86-6.45,9.07-6.45,15.79a28.4,28.4,0,0,0,3.81,14.1c4.56,8.13,12.3,13.85,23.25,16.35,8.09,1.83,14.54,1.11,19.36-1.71,5.34-3.12,8-8.26,8-15.24A28,28,0,0,0,107.35,367.83Zm-19.28-.45c-1.19,3.57-3.81,4.95-7.86,4a10.17,10.17,0,0,1-3.41-1.51c-3.22-2.13-4.82-5.68-4.82-10.56a15.47,15.47,0,0,1,2-7.91c1.67-2.85,3.78-4,6.23-3.34,1.79.48,3.5,1.92,5.06,4.23a19.85,19.85,0,0,1,3.34,11.16A13.44,13.44,0,0,1,88.07,367.38ZM88.38,345a4.24,4.24,0,0,1-1.32-.53c-1.14-.64-1.74-1.31-1.71-1.9s.51-.65,1.32-.5a4.23,4.23,0,0,1,1.33.54c1.14.63,1.74,1.28,1.7,1.87S89.19,345.12,88.38,345Z" transform="translate(0 -65.57)"/><path d="M140.38,376.53a8,8,0,0,1-3.28-.49q-4.82-1.76-4.82-9.14a19,19,0,0,1,.32-3.54,167.44,167.44,0,0,1-7.22-15.42,32.84,32.84,0,0,0-5.55,5.62,28.21,28.21,0,0,0-6.45,17.77,20.7,20.7,0,0,0,3.81,12.35c4.56,6.44,12.31,9.84,23.26,9.48a34.71,34.71,0,0,0,8.55-1.24,17.4,17.4,0,0,0,2.11-.75A168.39,168.39,0,0,1,140.38,376.53Z" transform="translate(0 -65.57)"/><path d="M502.65,303.24a45.62,45.62,0,0,0-3.65-4.79,38.75,38.75,0,0,1-7.08-14.51,124.44,124.44,0,0,1-3.8-32.13,9.89,9.89,0,0,0-.08-1.27,6,6,0,0,0-1.79-2.88c-2.65-2.59-6.69-4.52-12.14-5.47a28.08,28.08,0,0,0-5.05-.43c-5.39,0-8.09,1.22-8.09,3.24a9.83,9.83,0,0,0,1.16,3.87,16.22,16.22,0,0,1,1.8,6.64c0,2.17-.66,5.66-2,10.43a142.8,142.8,0,0,1-7.39,20.41c-.14.32-.3.64-.47,1a171,171,0,0,1-1.91,22,23.14,23.14,0,0,0,3,.41,21,21,0,0,0,6.69-.3c3.58-1,5.36-4.08,5.36-9.39,0-.43-.05-1.13-.07-2s0-1.6,0-2c0-7.15,1.84-10.53,5.43-10a5,5,0,0,1,2,.8c1.61,1.08,2.41,3.65,2.41,7.69,0,1-.06,2.78-.15,5.14-.07,1.83-.08,3.1-.08,3.78a10.87,10.87,0,0,0,1.32,5.52c1.77,2.86,6,4.88,12.61,6.52a39.33,39.33,0,0,0,7.84,1.38c3.84,0,5.76-2.25,5.76-7A13.12,13.12,0,0,0,502.65,303.24Zm-30.1-26.31c-1.17-.18-2-1.45-2-3.42a28.07,28.07,0,0,1,.31-4.59c.47-3.2,1.27-4.78,2.1-4.55,1.11.29,1.89,3.49,1.94,9C474.92,275.87,474,277.14,472.55,276.93ZM481.5,250a3.64,3.64,0,0,1-1-.4c-1.19-.62-1.81-1.33-1.78-2.08s.7-1.08,1.86-.86a5,5,0,0,1,.93.3c1.2.62,1.82,1.39,1.79,2.2S482.61,250.22,481.5,250Z" transform="translate(0 -65.57)"/><path d="M566.77,321.64c-.67-8.5-3.71-17.91-8.24-27.76-3.9-8.49-10.86-18.86-18.9-24.31-5.2-3.55-7.79-5.18-13-8.15a35,35,0,0,0-5.29-2.46c-4.62-1.56-6.92-.94-6.92,1.46a13,13,0,0,0,1.23,4.17,43,43,0,0,1,2.88,8.2,64.24,64.24,0,0,1,1,11.08,65.11,65.11,0,0,1-1.56,14.6,23.73,23.73,0,0,1-3,6.47,15.08,15.08,0,0,0-2.57,7.64c0,5.68,4.78,10.12,14.16,14.41,5.25,2.37,7.89,3.66,13.15,6.46,7.66,4.1,13.88,5.94,18.59,5.27,5.67-.82,8.55-5.14,8.55-13.85C566.93,323.89,566.88,322.81,566.77,321.64Zm-19.28-12.2c-1.09,4.35-3.68,5.24-7.78,2.84a9.33,9.33,0,0,1-1.55-1.16c-2.81-2.69-4.21-8-4.21-16v-3.68c0-8.66,2-11.94,5.76-9.5,1.8,1.19,3.5,3.69,5.06,7.26a40,40,0,0,1,3.26,15.6A17.52,17.52,0,0,1,547.49,309.44Zm-.4-27.75a8.24,8.24,0,0,1-1.32-1.29c-1.14-1.27-1.74-2.32-1.71-3s.53-.69,1.33-.13a7.12,7.12,0,0,1,1.32,1.29c1.14,1.34,1.74,2.44,1.7,3.18C548.39,282.22,547.89,282.25,547.09,281.69Z" transform="translate(0 -65.57)"/><path d="M41.6,411.86c-2.22-2.47-6.11-5.68-11.65-10-1.36-1.06-2.34-1.85-3-2.35-3-2.46-4.43-4.37-4.43-5.56a2,2,0,0,1,.23-.95c.82-1.32,2.3-1.47,4.43-.52A7.88,7.88,0,0,1,29,393.61a17.15,17.15,0,0,1,3.11,5.06c1,2.26,2,3.69,3,4.32a4.64,4.64,0,0,0,1,.52,3.19,3.19,0,0,0,3-.4c1.61-1.24,2.41-3.38,2.41-6.47a12.35,12.35,0,0,0-.24-2.36c-.51-3.29-1.7-5.58-3.57-6.93a7,7,0,0,0-1-.56,27.79,27.79,0,0,1-2.72-1.4c-3.73-2.17-6-3.54-6.69-3.88C22,379,16.59,377.86,11.9,378.73c-4,.74-6.25,3.23-6.22,6.89,0,3.29,2.13,7.86,6.22,13.16A133.08,133.08,0,0,0,21.31,409c3.11,3.16,4.67,5.05,4.67,5.84a.83.83,0,0,1-.16.5c-.67.82-2.12.82-4.35,0a13.78,13.78,0,0,1-5.06-3.51,49.6,49.6,0,0,1-4.2-5.67c-2-3-3.81-4.88-5.52-5.71a4.21,4.21,0,0,0-3.43-.31Q0,401.45,0,408.14a28.24,28.24,0,0,0,1.87,10.58c2.64,6.55,8.53,11.4,17.66,14.28,8.75,2.77,15.63,2.61,20.6.24A10.55,10.55,0,0,0,46.66,423C46.66,419.3,45,415.65,41.6,411.86ZM33,387.14a5.91,5.91,0,0,1,1.32.85c1.14.92,1.74,1.71,1.7,2.32,0,.45-.51.57-1.32.25a5.5,5.5,0,0,1-1.32-.84c-1.13-.92-1.74-1.74-1.71-2.34S32.18,386.8,33,387.14Z" transform="translate(0 -65.57)"/><path d="M107.35,427.34c-.77-6-3.56-11.54-8.31-16.71A34.77,34.77,0,0,0,80.3,399.79a30.19,30.19,0,0,0-4-.58c-6.74-.55-12.34,1.18-16.8,5.44a21,21,0,0,0-6.45,15.79,23.76,23.76,0,0,0,3.81,13c4.56,7.19,12.3,11.61,23.25,13.14,8.09,1.13,14.54.2,19.36-2.51,5.34-3,8-7.66,8-14A23.51,23.51,0,0,0,107.35,427.34Zm-19.28-.13c-1.19,3.36-3.81,4.75-7.86,4.06a10,10,0,0,1-3.41-1.19c-3.22-1.78-4.82-5-4.82-9.59a14.49,14.49,0,0,1,2-7.57c1.67-2.79,3.77-4,6.22-3.44a8.94,8.94,0,0,1,5.07,3.77,17.12,17.12,0,0,1,3.34,10.28A11.8,11.8,0,0,1,88.07,427.21Zm.31-20.81a4,4,0,0,1-1.32-.47c-1.14-.57-1.74-1.19-1.71-1.72s.51-.63,1.32-.51a4.83,4.83,0,0,1,1.33.49c1.14.57,1.74,1.17,1.7,1.71S89.19,406.53,88.38,406.4Z" transform="translate(0 -65.57)"/><path d="M159.11,432.92a5.74,5.74,0,0,0-5.76-3.78,7.07,7.07,0,0,0-3.5,1.1,39.32,39.32,0,0,0-3.65,3.19c-2,1.81-3.87,2.71-5.68,2.7a9.59,9.59,0,0,1-3.42-.6c-3.21-1.2-4.82-4-4.82-8.37a15.75,15.75,0,0,1,2-7.69c1.67-3,3.74-4.62,6.22-4.65a5.36,5.36,0,0,1,1.79.27,8.06,8.06,0,0,1,3.19,3.21c1,1.59,2,2.5,3,2.71a4,4,0,0,0,1,.1,4.69,4.69,0,0,0,3-1.5,9.7,9.7,0,0,0,2.41-6.86,9.27,9.27,0,0,0-.24-2.1c-.52-2.83-1.7-4.46-3.57-4.86a4.52,4.52,0,0,0-1-.07,26.56,26.56,0,0,1-2.72-.06c-3.79-.3-6.05-.49-6.77-.47a28.89,28.89,0,0,0-20.77,9.46c-4.25,4.77-6.45,10.05-6.45,15.93a17.63,17.63,0,0,0,3.81,11.21c4.56,5.85,12.31,8.95,23.26,9a40.48,40.48,0,0,0,8.55-.71c7.36-1.52,11-5.77,11-12.82A10.4,10.4,0,0,0,159.11,432.92Zm-12.75-25.24a4,4,0,0,1,1.32.2c1.14.32,1.74.82,1.7,1.36s-.51.75-1.32.79a3.55,3.55,0,0,1-1.32-.19c-1.14-.33-1.74-.82-1.71-1.37S145.54,407.74,146.36,407.68Z" transform="translate(0 -65.57)"/><path d="M197.49,430.93a7.92,7.92,0,0,1-3,1.59,8.91,8.91,0,0,1-3.42.25c-3.22-.43-4.82-3.35-4.82-8,0-.32,0-.64,0-.95q-6.69-4.64-13-10c-4,5.48-6,11.06-6,16.88a16.71,16.71,0,0,0,3.8,11.08c4.57,5.52,12.32,8.81,23.25,6.45a43.6,43.6,0,0,0,8.56-2.66,18.36,18.36,0,0,0,8.68-7.24Q204.42,435,197.49,430.93Z" transform="translate(0 -65.57)"/><path d="M438.93,364.74a60.7,60.7,0,0,0-1.15-8.47,171.32,171.32,0,0,1-30.52,44.51l4.69-.08c7.66-.12,13.89-2.47,18.58-7.15,5.7-5.68,8.56-14,8.56-24.91C439.09,367.4,439,366.11,438.93,364.74Z" transform="translate(0 -65.57)"/><path d="M502.65,392.31A42.93,42.93,0,0,0,499,387.8a35.47,35.47,0,0,1-7.08-14.35c-2.86-10.88-3.61-22.24-3.8-33.27,0-.55,0-1-.08-1.32a5.92,5.92,0,0,0-1.79-2.91c-2.65-2.55-6.69-4.36-12.14-5.23a31,31,0,0,0-5.05-.36c-5.39.09-8.09,1.33-8.09,3.48a11,11,0,0,0,1.16,4.11,18,18,0,0,1,1.8,7.05c0,2.29-.66,6-2,11.08a159.57,159.57,0,0,1-7.39,21.75c-.27.63-.58,1.29-.94,2a15.21,15.21,0,0,1-5.44,5.75c-.62.37-1.06.63-1.32.82-1.56,1.23-2.34,3.27-2.34,6.1a13.83,13.83,0,0,0,.71,4.59c1.19,3.42,4.51,5.26,9.95,5.61a19.26,19.26,0,0,0,6.69-.5c3.58-1.16,5.36-4.52,5.36-10.14,0-.46-.05-1.2-.07-2.16s0-1.69,0-2.15c0-7.55,1.85-11.18,5.43-10.75a4.78,4.78,0,0,1,2,.73c1.61,1.06,2.41,3.7,2.41,8,0,1.1-.06,2.92-.15,5.42-.07,1.92-.08,3.26-.08,4a11.34,11.34,0,0,0,1.32,5.72c1.77,2.88,6,4.69,12.61,5.69a33.31,33.31,0,0,0,7.84.49c3.84-.49,5.76-3.12,5.76-8A12.8,12.8,0,0,0,502.65,392.31Zm-30.1-24.89c-1.17-.13-2-1.45-2-3.53a31.39,31.39,0,0,1,.31-4.85c.47-3.39,1.28-5.09,2.1-4.89,1.11.28,1.89,3.62,1.94,9.46C474.91,366.22,474,367.59,472.55,367.42Zm8.95-28.74a3.48,3.48,0,0,1-1-.37c-1.19-.6-1.81-1.33-1.78-2.12s.7-1.16,1.86-1a5.71,5.71,0,0,1,.93.27c1.2.6,1.82,1.38,1.79,2.22S482.61,338.85,481.5,338.68Z" transform="translate(0 -65.57)"/><path d="M566.77,396.79c-.67-8.29-3.42-16.73-8.24-25.43-5.24-9.47-11.54-16.46-18.9-20-5.2-2.52-7.79-3.68-13-5.82a28.87,28.87,0,0,0-5.28-1.66c-4.62-.87-6.92.07-6.92,2.53a12.36,12.36,0,0,0,1.23,4.13,39.69,39.69,0,0,1,2.88,8,65.15,65.15,0,0,1,1,11.24A72.53,72.53,0,0,1,518,385.05a29.57,29.57,0,0,1-3,7.16,18.2,18.2,0,0,0-2.57,8.32c0,5.84,4.78,9.73,14.16,12.16,5.25,1.33,7.89,2,13.15,3.59,7.66,2.26,13.89,2.31,18.59.22,5.68-2.54,8.55-7.82,8.55-16.52C566.93,399,566.88,397.93,566.77,396.79ZM547.49,390c-1.09,4.69-3.68,6.27-7.78,4.8a7,7,0,0,1-1.55-.82q-4.21-3.12-4.21-15.35v-3.76c0-8.84,2.06-12.57,5.76-10.9,1.78.8,3.5,3,5,6.22a35.36,35.36,0,0,1,3.27,15A19.51,19.51,0,0,1,547.49,390Zm-.4-28a5.27,5.27,0,0,1-1.32-1c-1.14-1-1.74-2-1.71-2.71s.53-.8,1.33-.43a5.41,5.41,0,0,1,1.32,1c1.14,1.08,1.74,2.06,1.7,2.8C548.39,362.21,547.89,362.35,547.09,362Z" transform="translate(0 -65.57)"/><path d="M41.6,474.88c-2.22-1.92-6.11-4.19-11.65-7.07-1.36-.69-2.34-1.21-3-1.55-3-1.66-4.43-3.13-4.43-4.29a2.42,2.42,0,0,1,.23-1c.83-1.51,2.3-2,4.43-1.64A5.66,5.66,0,0,1,29,460a11.84,11.84,0,0,1,3.11,4.2c1,1.95,2,3.12,3,3.52a4.41,4.41,0,0,0,1,.28,3.81,3.81,0,0,0,3-1.06c1.61-1.55,2.41-3.78,2.41-6.75a10.73,10.73,0,0,0-.24-2.24c-.51-3.09-1.7-5.08-3.57-6a5.46,5.46,0,0,0-1-.34,21.67,21.67,0,0,1-2.72-.78c-3.73-1.3-6-2.1-6.69-2.26A23.47,23.47,0,0,0,11.9,450c-4.09,2-6.25,5.16-6.22,8.81,0,3.26,2.13,7.1,6.22,11.07a91.88,91.88,0,0,0,9.41,7.3c3.11,2.24,4.67,3.67,4.67,4.44a1,1,0,0,1-.16.53q-1,1.5-4.35,1.21a10.12,10.12,0,0,1-5.06-2,32.06,32.06,0,0,1-4.2-4.3c-2-2.29-3.81-3.61-5.52-3.86a4.49,4.49,0,0,0-3.43.87C1.09,475.71,0,478.8,0,483.25a23.13,23.13,0,0,0,1.87,9.88c2.64,5.56,8.53,8.17,17.66,8.17,8.75,0,15.62-1.92,20.6-5.41,4.34-3,6.53-6.72,6.53-11.3C46.66,481,45,477.83,41.6,474.88ZM33,452.76a4.33,4.33,0,0,1,1.32.55c1.14.63,1.74,1.29,1.7,1.86s-.51.69-1.31.55a4.23,4.23,0,0,1-1.33-.54c-1.13-.63-1.74-1.3-1.71-1.89S32.18,452.61,33,452.76Z" transform="translate(0 -65.57)"/><path d="M107.35,481.37c-.77-5.41-3.56-10.31-8.31-14.81A32,32,0,0,0,80.3,457.8a25.51,25.51,0,0,0-4-.18,22.58,22.58,0,0,0-16.8,7.13,22.86,22.86,0,0,0-6.45,16.12,18.72,18.72,0,0,0,3.81,11.69c4.56,6,12.3,8.75,23.25,8.76,8.09,0,14.54-1.47,19.36-4.31,5.34-3.14,8-7.46,8-13.2A19,19,0,0,0,107.35,481.37Zm-19.28,1.17c-1.19,3.2-3.81,4.73-7.85,4.55a9.82,9.82,0,0,1-3.42-.7Q72,484.47,72,478a14.16,14.16,0,0,1,2-7.34c1.67-2.78,3.77-4.11,6.22-3.84a8,8,0,0,1,5.07,3.05,14,14,0,0,1,3.34,9.21A10.53,10.53,0,0,1,88.07,482.54Zm.31-19.22a4.56,4.56,0,0,1-1.32-.35c-1.14-.45-1.74-1-1.71-1.47s.51-.62,1.32-.56a4.53,4.53,0,0,1,1.33.35c1.14.45,1.74,1,1.7,1.47S89.19,463.37,88.38,463.32Z" transform="translate(0 -65.57)"/><path d="M159.11,486.11a6.05,6.05,0,0,0-5.76-3.42,7.76,7.76,0,0,0-3.5.86,37.39,37.39,0,0,0-3.65,2.69,9.09,9.09,0,0,1-5.68,2.29,10.58,10.58,0,0,1-3.42-.53c-3.21-1.05-4.82-3.47-4.82-7.35a12.53,12.53,0,0,1,2-6.76c1.67-2.66,3.74-4,6.22-4a6.27,6.27,0,0,1,1.79.29,7.85,7.85,0,0,1,3.19,2.89,5.66,5.66,0,0,0,3,2.44,4.63,4.63,0,0,0,1,.11,4.79,4.79,0,0,0,3-1.21,7.48,7.48,0,0,0,2.41-5.85,7.32,7.32,0,0,0-.24-1.84c-.52-2.47-1.7-3.94-3.57-4.37a5.45,5.45,0,0,0-1-.11,25.2,25.2,0,0,1-2.72-.17c-3.79-.4-6.05-.63-6.77-.64a28.91,28.91,0,0,0-4,.22,27.1,27.1,0,0,0-16.8,8c-4.25,4.32-6.45,9.15-6.45,14.42a14.14,14.14,0,0,0,3.81,9.88c4.56,5,12.31,7.41,23.26,7.41a50.15,50.15,0,0,0,8.55-.63c7.36-1.26,11-4.76,11-10.78A8.15,8.15,0,0,0,159.11,486.11Zm-12.75-22.3a4.13,4.13,0,0,1,1.32.23c1.14.33,1.74.77,1.7,1.24s-.51.63-1.32.64a4.07,4.07,0,0,1-1.32-.21c-1.14-.33-1.74-.78-1.71-1.26S145.54,463.83,146.36,463.81Z" transform="translate(0 -65.57)"/><path d="M213.11,483.89a5.3,5.3,0,0,0-5.75-3.3,7.66,7.66,0,0,0-3.5,1.3,45.45,45.45,0,0,0-3.66,3.25,9.45,9.45,0,0,1-5.67,2.89,10.2,10.2,0,0,1-3.42-.29c-3.22-.82-4.82-3.28-4.82-7.22a13.66,13.66,0,0,1,2-7c1.66-2.81,3.73-4.69,6.23-5.05a5.58,5.58,0,0,1,1.78,0,6.4,6.4,0,0,1,3.19,2.6c1,1.37,2,2.12,2.95,2.22a5.67,5.67,0,0,0,1,0,5.34,5.34,0,0,0,3-1.74,9.91,9.91,0,0,0,2.42-6.83,8.83,8.83,0,0,0-.24-2c-.52-2.66-1.72-4.07-3.58-4.2a4.14,4.14,0,0,0-1,.08c-.73.12-1.64.23-2.72.32-3.79.26-6,.45-6.77.59a31,31,0,0,0-4,1c-6.74,2.11-12.34,4.62-16.8,9.44-4.27,4.6-6.45,9.46-6.45,14.64a13.38,13.38,0,0,0,3.8,9.56c4.57,4.85,12.32,7.2,23.25,7.2a45.93,45.93,0,0,0,8.56-.68q11.06-2.11,11.05-12.48A9.71,9.71,0,0,0,213.11,483.89ZM200.35,461a3.9,3.9,0,0,1,1.32,0c1.15.15,1.75.54,1.72,1.05s-.51.78-1.32.94a4.18,4.18,0,0,1-1.32,0c-1.14-.16-1.74-.54-1.72-1.05S199.54,461.12,200.35,461Z" transform="translate(0 -65.57)"/><path d="M272.71,480.09q-.84-6.57-6.84-5.87a6,6,0,0,0-1.63.41,14.24,14.24,0,0,0-4.36,3.75,11.39,11.39,0,0,1-1,1.24,11.81,11.81,0,0,1-8.24,4.24,5.59,5.59,0,0,1-3.43-1.27c-1.81-1.5-2.75-3-2.72-4.63,0-1.39,1.11-2.3,3.12-2.56a6.59,6.59,0,0,1,3.81.87,6.83,6.83,0,0,0,2.72,1.09,2.3,2.3,0,0,0,1.08-.46c1.36-1.12,2-3.15,2-6.06a12.26,12.26,0,0,0-.31-2.78c-.58-2.13-1.5-3.09-2.8-2.89a5.73,5.73,0,0,0-2.11,1.22,9.83,9.83,0,0,1-4.42,2.36,5,5,0,0,1-.94.06c-1.81,0-2.72-.64-2.72-2a5.62,5.62,0,0,1,1.48-3.34,12.46,12.46,0,0,1,7.85-4.65,10.73,10.73,0,0,1,6.38.52,15,15,0,0,1,3.81,3,5,5,0,0,0,4.2,1.75,3.5,3.5,0,0,0,.94-.29c1.86-.82,2.79-3,2.79-6.39a13.4,13.4,0,0,0-.5-3.71,174.37,174.37,0,0,1-23.23-3.29c-3.23.68-6.64,1.38-10.88,2.24-8.08,1.66-12.18,3.54-12.21,5.64a4.31,4.31,0,0,0,1.25,2.38,14,14,0,0,1,2.88,4.48,22.75,22.75,0,0,1,.78,6.24,42.18,42.18,0,0,1-1.79,12.39,21.53,21.53,0,0,1-3,5.53c-1.72,2.45-2.58,4.41-2.57,5.9,0,3.71,4.8,5.57,14.22,5.58l25.28-.08c2.65-.05,5.16-1.84,7.47-5.5a24.06,24.06,0,0,0,3.81-12.93A13.37,13.37,0,0,0,272.71,480.09Z" transform="translate(0 -65.57)"/><path d="M340.1,487.25a12.22,12.22,0,0,0-3.81-4.23,10.88,10.88,0,0,1-3.82-4.77,46,46,0,0,0-6.69-13c-1.45-1.85-2.22-3-2.17-3.21a9.34,9.34,0,0,1,1.25-1.32,15.57,15.57,0,0,0,5.59-12.28c0-.31,0-.6,0-.91q-7.62,2.18-15.54,3.66a5.24,5.24,0,0,1,.64,2.64,4.77,4.77,0,0,1-.31,1.7c-.83,2-2.6,3.13-5.29,3.53a9.83,9.83,0,0,1-3.11-.06q-3.81-.86-3.81-4.08a6,6,0,0,1,.31-1.79,1.89,1.89,0,0,1,.09-.21q-8.1,1-16.43,1.12a8.48,8.48,0,0,1,.4,1.16,45.51,45.51,0,0,1,1.17,10.08,64.17,64.17,0,0,1-1.72,14,30.37,30.37,0,0,1-2.95,7c-1.69,3.11-2.58,5.62-2.57,7.56,0,4.9,4.8,7.44,14.16,7.47,7.91,0,12-2,12.05-5.72a31.28,31.28,0,0,0-1.39-7c-1-3.45-1.77-6.41-2.34-8.87a20.52,20.52,0,0,1-.47-4.64,9.71,9.71,0,0,1,.71-3.67c.87-2.1,2.06-3.29,3.49-3.43,1.22-.11,2.36,1,3.34,3.2,1.82,4.38,2.83,11.63,2.88,21.58a8.68,8.68,0,0,0,1.32,5c1.76,2.38,6,3.6,12.68,3.6a31.32,31.32,0,0,0,5.84-.47c4.82-1.07,7.23-4.27,7.23-9.49A11,11,0,0,0,340.1,487.25Z" transform="translate(0 -65.57)"/><path d="M438.93,461.66q-1-15.89-8.25-27.42-7.85-12.57-18.89-12.48c-5.2,0-7.79.09-13,.21a26.78,26.78,0,0,0-5.29.64c-4.62,1.13-6.92,3.09-6.92,5.83a11,11,0,0,0,1.23,4.07,32.94,32.94,0,0,1,2.88,7.81,75.54,75.54,0,0,1,1,12.34,104,104,0,0,1-1.55,18,48.55,48.55,0,0,1-3,9.13c-1.7,4.15-2.57,7.58-2.56,10.25,0,6.69,4.77,10.15,14.16,10.22H412c7.66,0,13.89-2.58,18.58-7.66,5.71-6.19,8.56-15.18,8.56-26.82C439.09,464.49,439,463.11,438.93,461.66Zm-19.28,2.59c-1.09,6.39-3.68,9.62-7.78,9.61a4.33,4.33,0,0,1-1.56-.31c-2.8-1.33-4.2-6.92-4.2-16.6v-4.44c0-10.47,2.06-15.83,5.76-15.84,1.75,0,3.5,1.62,5.06,4.7q3.26,6.76,3.26,16.63A34.39,34.39,0,0,1,419.65,464.25Zm-.4-34.2a2.57,2.57,0,0,1-1.32-.42,2.46,2.46,0,0,1-1.71-2.23,1.26,1.26,0,0,1,1.32-1.31,2.46,2.46,0,0,1,1.33.41,2.62,2.62,0,0,1,1.7,2.33A1.23,1.23,0,0,1,419.25,430.05Z" transform="translate(0 -65.57)"/><path d="M502.65,484.67a36.9,36.9,0,0,0-3.65-4c-3.22-3.34-5.55-8-7.08-13.83-2.91-11.19-3.61-22.88-3.8-34.22,0-.57,0-1-.08-1.37a5.4,5.4,0,0,0-1.79-2.84c-2.65-2.38-6.69-3.87-12.14-4.36a30.44,30.44,0,0,0-5.05,0c-5.39.42-8.09,1.84-8.09,4.11a11.68,11.68,0,0,0,1.16,4.3,19.37,19.37,0,0,1,1.8,7.36c0,2.42-.65,6.38-2,11.84a185.3,185.3,0,0,1-7.39,23.46c-.27.7-.58,1.41-.94,2.17a17.25,17.25,0,0,1-5.44,6.38c-.62.4-1.06.71-1.32.92q-2.34,2.07-2.34,6.59a15.37,15.37,0,0,0,.71,4.87q1.79,5.38,9.95,5.39a18.13,18.13,0,0,0,6.69-1q5.37-2.29,5.36-11.18c0-.48-.05-1.26-.07-2.27s0-1.78,0-2.26c0-8,1.85-11.92,5.43-11.83a4.34,4.34,0,0,1,2,.58c1.61.94,2.41,3.63,2.41,8.1,0,1.15-.06,3.06-.15,5.7-.07,2-.08,3.42-.08,4.17a11.45,11.45,0,0,0,1.32,5.84c1.77,2.81,6,4.19,12.61,4.19a29.08,29.08,0,0,0,7.84-.79c3.84-1.18,5.76-4.28,5.76-9.34A12,12,0,0,0,502.65,484.67Zm-30.1-21.92c-1.15,0-2-1.36-2-3.55a35.27,35.27,0,0,1,.31-5.13c.47-3.61,1.28-5.46,2.1-5.32,1.09.19,1.89,3.65,1.94,9.77C474.92,461.25,474,462.79,472.55,462.75Zm8.95-31a2.93,2.93,0,0,1-1-.3c-1.19-.51-1.81-1.21-1.78-2.05s.7-1.28,1.86-1.19a4.49,4.49,0,0,1,.93.18c1.2.52,1.82,1.26,1.79,2.16S482.61,431.8,481.5,431.72Z" transform="translate(0 -65.57)"/><path d="M566.77,472a47.16,47.16,0,0,0-8.24-22.69c-5.24-7.83-11.54-13-18.9-14.76-5.2-1.21-7.79-1.78-13-2.83a27.39,27.39,0,0,0-5.28-.58c-4.62,0-6.92,1.42-6.92,4a11.14,11.14,0,0,0,1.23,4,34.79,34.79,0,0,1,2.88,7.67,65.05,65.05,0,0,1,1,11.34A81.84,81.84,0,0,1,518,474.14a38.32,38.32,0,0,1-3,8c-1.7,3.63-2.57,6.71-2.57,9.11,0,6,4.78,9.12,14.17,9.22l13.14,0c7.66,0,13.88-2,18.59-5.78,5.69-4.56,8.55-10.91,8.55-19.63C566.93,474.1,566.88,473.06,566.77,472Zm-19.28-.46c-1.09,5.09-3.68,7.49-7.78,7.15a5.12,5.12,0,0,1-1.55-.39q-4.21-2-4.21-14.52v-3.82c0-9,2-13.32,5.76-12.61,1.77.34,3.5,2.07,5.06,4.93A30.33,30.33,0,0,1,548,466.48,22,22,0,0,1,547.49,471.49Zm-.4-28.22a3.7,3.7,0,0,1-1.32-.64c-1.14-.71-1.74-1.5-1.71-2.27s.53-1,1.33-.8a3.43,3.43,0,0,1,1.32.65c1.14.78,1.74,1.6,1.7,2.35C548.39,443.14,547.89,443.42,547.09,443.27Z" transform="translate(0 -65.57)"/><path d="M283.47,118.17H283a165.3,165.3,0,0,0,.42,330.6h.45C375,448.53,449,374.18,448.76,283,448.52,192.13,374.37,118.17,283.47,118.17ZM174.91,198.69a131.44,131.44,0,0,0-1.66,26.89c-9.33,13.32-15.76,23.14-19.07,29.18a182.79,182.79,0,0,0-10.84,23.14l-15.85.21A157.06,157.06,0,0,1,177.06,169.3a35.74,35.74,0,0,0,5.75,2.33C180,179.33,176.63,189.19,174.91,198.69Zm.71,172.86a131.65,131.65,0,0,0,6.94,23.22c-1.95.51-4.13,1.16-6.49,1.94a154.75,154.75,0,0,1-48.62-109.36l15.76-.21c5.35,13.24,9.8,23,13.22,28.92,3.38,6.27,9,14.58,16.72,24.72C173.38,352.58,173.89,362.34,175.62,371.55ZM284.91,165.2Zm65.73,85.93c13.15-10.18,25.42-18.92,36.46-26,8,4.86,16.41,10.21,23.41,16.45a125.69,125.69,0,0,1,17.1,19.49c.63,9.33.94,16.63.92,21.71.05,4.8-.2,12-.73,21.55-6.67,8-13.31,15.78-21.06,22.55a163.14,163.14,0,0,1-20.5,14.88c-10-6.89-21.76-15.57-34.93-25.82l-1.05-.81Zm81.48.59a124.67,124.67,0,0,0-15.46-17c-7.74-6.9-17-12.77-25.82-18.09-7.77-15.6-13.62-26.53-17.35-32.45a177.82,177.82,0,0,0-14.89-20.53l7.64-12.48a157.1,157.1,0,0,1,69.37,97.42C434.34,249.64,433.17,250.69,432.12,251.72Zm-204,61c0-1.39-.08-2.77-.11-4.31,0-1.34-.06-2.68-.09-4l-.07-4.57c0-1.25,0-2.5,0-3.74l0-4.79v-4.26c0-1.09,0-2.18,0-3.26l.09-8.11.63-20.06c.06-1.33.13-2.65.19-4l.09-2c10.76-6.21,31.17-17.88,54.78-31.39,17.07,9.49,36.53,20.65,57.87,33.19L341,314.72C323.19,326,303.73,337,283.15,347.39l-55-31.83Zm-4.44,10.85L279,355.67c2.58,11.44,4.27,26.55,5,44.92a281.93,281.93,0,0,1-27.13,10.85,193.48,193.48,0,0,1-24.53,6.16C223,413,216,409.31,211.57,406.78c-5.36-3-11.7-6.86-18.85-11.43-3-7.35-6.23-16-8-25.5-1.58-8.38-2.06-17.28-2.28-28C196.78,335.3,210.64,329.17,223.63,323.62ZM350.5,159.18c-12.78-1.7-22.72-2.58-29.54-2.62-.94,0-1.94,0-3,0-6.87,0-16.39.58-28.29,1.71a143.19,143.19,0,0,0-25.11-12,165,165,0,0,0-26-6.16c.43-2,.79-4.11,1.07-6.43a156.3,156.3,0,0,1,43.42-6.24h.41a156.32,156.32,0,0,1,74.81,19.06Zm-71.28,51c-25.79,14.75-44.91,25.7-55.3,31.69-13.85-5.21-27.79-11.06-41.45-17.38A119.69,119.69,0,0,1,184,200.34c1.65-9.12,4.79-18.45,9-29.62,9.88-6.58,17.19-11.19,21.74-13.7a185.7,185.7,0,0,1,17.56-8.6C243.64,150.21,253,152,261.55,155A129.84,129.84,0,0,1,284,165.64,380.22,380.22,0,0,1,279.22,210.16ZM259.8,420.21a286.63,286.63,0,0,0,30-12.09c13.16,1.31,23.36,1.89,30.32,1.74s17.18-.78,30.62-2.32l7.71,12.85a156.26,156.26,0,0,1-74.54,19.14h-.64a155.09,155.09,0,0,1-43.87-6.32c-.39-2.81-.84-5.26-1.31-7.32A191.1,191.1,0,0,0,259.8,420.21ZM367.85,391.1c6-7.4,13.32-21,21.73-40.54a175.28,175.28,0,0,0,23.24-16.72,177.39,177.39,0,0,0,18.66-19.52c.37.38.74.76,1.13,1.14.92.9,1.94,1.83,3,2.77a157.05,157.05,0,0,1-69.27,97.48L358.78,403C362.65,398.13,365.7,394.12,367.85,391.1Z" transform="translate(0 -65.57)"/></svg>