<svg id="katman_1" data-name="katman 1" xmlns="http://www.w3.org/2000/svg" viewBox="0 0 566.93 506.28"><path d="M389.77,30.38a176.14,176.14,0,0,0-128,55.6c.1.16.18.33.27.5a34.32,34.32,0,0,1,3.44,10,167.82,167.82,0,0,1,87.48-52c1.14,1.37,2.27,2.62,3.37,3.75a131.73,131.73,0,0,0-18.19,16.52c-7.39,8.27-13.65,18.14-19.34,27.58-16.68,8.32-28.35,14.58-34.69,18.56a187.15,187.15,0,0,0-21.94,15.92L248.8,118.6c.19-.31.37-.6.58-.89a15.2,15.2,0,0,1-5.7-4.84l-.74-1c-.26-.32-.52-.65-.81-1q-2.56,3.89-4.87,7.94a152.69,152.69,0,0,0,1.17,19q2.48-5.44,5.36-10.73l13.58,8.3c-1.81,13.67-2.75,24.29-2.8,31.58,0,1,0,2.07,0,3.21,0,7.35.61,17.51,1.83,30.23l4.45,2c4.36-4.3,11.72-7.28,18.45-9.56,16.44-5.55,24.71-8.34,41.2-13.44,2.31-.71,8-1.58,13.17,4.45,6.92-12.1,14.43-25.06,22.45-38.73l67.56.4c12,19.06,23.77,39.87,34.91,61.86l-34,58.8-3,.09c-1.49,0-3,.09-4.6.12l-4.29.09-4.88.07-4,.05-5.13,0H394.1l-3.47,0-8.67-.09-21.45-.68-4.26-.21-2.08-.1-1-1.68a13.78,13.78,0,0,1-6.38-2.76c-2-1.58-4.37-4.56-4.39-9.78a21,21,0,0,1,.67-5.06c-.7-1.21-1.42-2.47-2.17-3.75a56.85,56.85,0,0,1-3.56,13.62c3.37,5.89,6.18,10.78,8.37,14.58q-4.28,11.37-9.07,22.77c3.41-4.52,10.32-8.25,20.23-10.83,16.67-4.34,25.08-6.08,41.92-7.76,3.83-.39,9.3,1.11,13.77,10.41a37.45,37.45,0,0,1,3.75,16.49c0,8.85-2.6,14.38-7.72,16.46a9.83,9.83,0,0,1-3.36.76c-4.05.16-7.82-2-11.12-6.49-3-4.1-4.24-4.92-4.29-5a7.84,7.84,0,0,0-5.78-1.08c-3.19.47-5.77,2.34-7.9,5.73a8.44,8.44,0,0,0-.44.74,22,22,0,0,0,1.69-1.53c2.49-2.39,4.39-3.49,6.46-3.75,2.44-.3,8.34.11,10.46,10.43a36.91,36.91,0,0,1,.58,6.6,43.54,43.54,0,0,1-.28,5,13.44,13.44,0,0,1,2.85-1.82l.24-.11a13.11,13.11,0,0,1,4.39-.94c4.29-.18,14.52,1.23,16.18,17.56.09.61.13,1.24.18,1.9,2.54-1.25,4.73-2.4,6.59-3.47,1.37-.74,2.84-1.58,4.39-2.53A118.56,118.56,0,0,0,431,322.21a98.73,98.73,0,0,0-1.68-17.51c-.21-1-1-3.78-3.89-9.83-1.71-3.74-2.44-6.37-2.44-8.65,0-2.89,1.23-9.36,11.77-11.49-.55-1.24-1.08-2.47-1.6-3.7l34.27-59.19c12.23-2.76,28.37-4.57,48-5.38a302.09,302.09,0,0,1,11.6,29,211.29,211.29,0,0,1,6.59,26.21c-5,10-8.86,17.5-11.57,22.26-3.22,5.73-7.33,12.51-12.22,20.16-2.55,1-5.21,2.06-8,3.08.18.35.34.73.5,1.08a43.13,43.13,0,0,1,2.66,8.28c1.49-.53,2.91-1.07,4.23-1.58.55,2.08,1.26,4.4,2.08,6.92-1.94,2-3.9,4-5.92,6-1.08,6.57-4.46,10.34-8.14,12.5.23.41.47.86.73,1.34.69,1.31,1.36,2.62,2,3.93a176.74,176.74,0,0,0,67-138.51v-.47C566.67,109.19,487.2,30.13,389.77,30.38ZM425,134.56l-.87,1.12-68.41-.39c-10.88-14.08-20.22-27.18-27.78-39,5.18-8.59,10.91-17.55,17.58-25A135.29,135.29,0,0,1,366.3,53c10-.67,17.77-1,23.21-1,5.13,0,12.88.23,23,.79,8.59,7.12,16.88,14.22,24.1,22.5a175.78,175.78,0,0,1,15.91,21.92C445.19,107.93,435.91,120.49,425,134.56Zm80.33-17.69c-7.89-6.42-22.47-14.23-43.32-23.22a187.17,187.17,0,0,0-17.88-24.84,188.92,188.92,0,0,0-20.87-20c.4-.38.82-.79,1.23-1.21.95-1,1.95-2.06,2.95-3.24A168,168,0,0,1,531.6,118.46L518,126.57C512.8,122.44,508.51,119.18,505.28,116.87Zm51.77,90.46a166.52,166.52,0,0,1-6.74,46.9c-3,.42-5.64.89-7.83,1.41a210.18,210.18,0,0,0-6.07-23.26,311.44,311.44,0,0,0-12.93-32c1.41-14.05,2-25,1.86-32.4,0-7.35-.84-18.35-2.49-32.73L536.6,127a166.77,166.77,0,0,1,20.45,79.66Z" transform="translate(0 -30.38)"/><path d="M8.71,141.11a103.89,103.89,0,0,0,2.71-24.49,66.21,66.21,0,0,0-1.18-13A41.11,41.11,0,0,0,5.89,93.32C4.63,91,4,89.23,4,88.07c0-4.14,6.24-6.22,18.48-6.15,16.43.09,24.64.13,41.07.18,2.9,0,5.64,3,8.12,8.87a40.52,40.52,0,0,1,3.18,15.75q0,10.48-4.24,11.88a3.46,3.46,0,0,1-1.41.21c-2.12-.13-4.24-1.93-6.36-5.33-2.5-4-4.43-6.58-5.76-7.73a15.11,15.11,0,0,0-9.65-3.86c-4.94-.26-8.91,1.81-11.89,6.06a10.79,10.79,0,0,0-2.23,6.21,5.15,5.15,0,0,0,4.11,5.46,8.14,8.14,0,0,0,1.42.29c1.8.19,4-.75,6.7-2.9,1.42-1.11,2.48-1.66,3.18-1.6,2,.16,3.37,2.54,4.24,7.18a35.85,35.85,0,0,1,.47,5.86q0,9-3.06,11.65a2.24,2.24,0,0,1-1.65.5c-.7-.1-2.08-1.33-4.12-3.42s-4.06-3.28-5.76-3.49c-3-.38-4.67,1-4.71,3.89,0,3.28,1.37,6.92,4.12,10.86,1.88,2.39,3.64,3.84,5.18,4.15,4.62.94,8.94-.93,12.47-5.39a16.92,16.92,0,0,0,1.53-2.13c2.59-3.37,4.79-5.39,6.59-6a6.76,6.76,0,0,1,2.47-.19c6,.59,9.49,5.33,10.36,14.29a41.47,41.47,0,0,1,.23,4.37,53.38,53.38,0,0,1-5.76,24.77C67.83,189,64,192,60,191.31a266.59,266.59,0,0,1-38.25-9.93C7.49,176.61.27,169.39.24,161.6c0-3.11,1.28-6.66,3.88-10.75A34.36,34.36,0,0,0,8.71,141.11ZM60.26,85.38a1.83,1.83,0,0,0-2,1.76c0,1.34.87,2.54,2.59,3.47a4.05,4.05,0,0,0,2,.64,1.81,1.81,0,0,0,2-1.76c0-1.36-.86-2.57-2.58-3.49A3.91,3.91,0,0,0,60.26,85.38Z" transform="translate(0 -30.38)"/><path d="M159.28,146.41c2.3,9,5.84,15.87,10.71,20.61a51.09,51.09,0,0,1,5.53,5.76q2.47,3.76,2.47,9.82c0,7.68-2.9,12.55-8.71,14.67a43.4,43.4,0,0,1-11.88,1.8c-10.05.43-16.4-1.57-19.07-5.66a16.4,16.4,0,0,1-2-8.59c0-1.1,0-3.19.12-6.21.13-3.92.23-6.79.23-8.53,0-6.72-1.21-10.78-3.64-12.14a6.45,6.45,0,0,0-3.07-.81c-5.43,0-8.23,6-8.23,17.76,0,.72,0,1.87,0,3.35s.11,2.64.11,3.35c0,8.7-2.7,14-8.11,16a26.32,26.32,0,0,1-10.12.91c-8.24-.59-13.26-3.71-15.07-9a21.36,21.36,0,0,1-1.06-7q0-6.42,3.53-9.11c.39-.26,1.06-.66,2-1.18a22.18,22.18,0,0,0,8.24-8.81q.83-1.62,1.41-3.12a243.3,243.3,0,0,0,11.18-35.24c2.07-8.46,3.06-14.71,3.06-18.5a30.73,30.73,0,0,0-2.7-11.45,18.24,18.24,0,0,1-1.77-6.7q0-5.41,12.24-7.5a45.22,45.22,0,0,1,7.65-.64q12.36,0,18.36,5.17a7.79,7.79,0,0,1,2.71,4.36,20.79,20.79,0,0,1,.11,2.25C153.8,110.07,154.72,128.65,159.28,146.41Zm-32.36-9.95c.07,3.36,1.3,5.35,3,5.34,2.2,0,3.57-2.42,3.54-6.66-.08-9.51-1.32-14.9-2.95-15.1-1.24-.16-2.47,2.81-3.17,8.45A52.72,52.72,0,0,0,126.92,136.46ZM142.1,86.12c-1.76,0-2.79.89-2.83,2.25s.9,2.42,2.71,3.06a4,4,0,0,0,1.53.33c1.67-.05,2.67-.9,2.71-2.26s-.91-2.57-2.71-3.22A5.31,5.31,0,0,0,142.1,86.12Z" transform="translate(0 -30.38)"/><path d="M231.59,117.87a148.09,148.09,0,0,0,2.71,29.69c.54,2.67,2.15,6.39,4.82,11,2.27,3.89,3.44,7.38,3.41,10.48-.07,8.23-7.35,14.59-21.42,18.32s-21.37.85-21.41-8.12c0-3.59,1.3-8.52,3.88-14.66a71.79,71.79,0,0,0,4.47-13.27,132,132,0,0,0,1.89-24.12,111.43,111.43,0,0,0-1.65-20.07c-.63-2.8-1.82-4.26-3.42-4.21-2.74.08-6.47,3.41-10.94,9.93l-.23.32c-2,3.61-3.85,5.75-5.42,6.41a5.11,5.11,0,0,1-1.65.46c-3.13.28-5-2.73-5.53-9.16-.07-1-.12-2.08-.12-3.13a40.18,40.18,0,0,1,5-20c2.12-3.61,4.23-5.44,6.35-5.55l56.61-.29c2.9,0,5.61,2.46,8.12,7.23a27.47,27.47,0,0,1,3.29,13c0,5.55-1.37,9-4.11,10.53a5.92,5.92,0,0,1-1.65.43c-2.2.24-4.32-.94-6.36-3.63l-.7-1a25.62,25.62,0,0,0-6.95-6.21,7.9,7.9,0,0,0-4.35-1.46C233.12,101.63,231.59,107.37,231.59,117.87Zm14-33.05c-1.29.06-2.08.69-2.12,1.63,0,1.2.87,2.26,2.59,3a4.23,4.23,0,0,0,2,.46c1.29-.08,2.08-.71,2.11-1.63,0-1.17-.86-2.2-2.59-3A4.35,4.35,0,0,0,245.59,84.82Z" transform="translate(0 -30.38)"/><path d="M62.85,242.06c0,6.54-1.22,11.44-3.65,14.6-1.42,1.66-3,2.31-4.59,1.85a5.57,5.57,0,0,1-1.53-.76c-1.42-1-2.91-3.65-4.48-7.88q-2.58-7-4.7-9.1a8.55,8.55,0,0,0-2.71-1.65c-3.22-1.16-5.45-.4-6.71,2.35a5.44,5.44,0,0,0-.35,1.89c0,2.25,2.24,5.52,6.71,9.63q1.41,1.24,4.47,3.89C53.7,264.1,59.59,269.73,63,274.34a37.77,37.77,0,0,1,7.65,22.58c0,10.29-3.32,18.1-9.89,22.69-7.52,5.25-17.92,5-31.18-2.81-13.81-8.17-22.71-20.14-26.72-32.08A55.57,55.57,0,0,1,0,267c0-7.06,1.65-10.89,4.94-11.84a6.31,6.31,0,0,1,5.18,1.1c2.59,1.62,5.37,5.08,8.36,10.46a107,107,0,0,0,6.35,10.56,23.07,23.07,0,0,0,7.65,6.84c3.37,1.71,5.57,1.68,6.59.06a2,2,0,0,0,.24-1c0-1.53-2.36-5.13-7.06-11C24.79,263,20.05,256.71,18,253.67c-6.2-9.33-9.38-16.86-9.42-22.36,0-6.13,3.26-10.46,9.42-13a35,35,0,0,1,23.3-.85c1.08.33,4.47,2,10.12,4.56a27.62,27.62,0,0,0,4.12,1.53,5.86,5.86,0,0,1,1.53.68q4.23,2.78,5.41,12.87A34.81,34.81,0,0,1,62.85,242.06Zm-13-15.95c-1.2-.3-2,.12-2,1.09,0,1.25.86,2.64,2.59,4a5.29,5.29,0,0,0,2,1.15c1.2.3,2-.15,2-1.13,0-1.26-.87-2.63-2.59-4A5.46,5.46,0,0,0,49.9,226.11Z" transform="translate(0 -30.38)"/><path d="M89.85,298a131.09,131.09,0,0,0,2.7-27.42A83.14,83.14,0,0,0,91.38,256q-.72-4-4.36-11.9-1.87-4.2-1.88-6.24c0-4,3.49-6.13,10.47-6.85a48.69,48.69,0,0,1,8,0c8.23.65,13.88,2.48,16.94,5.88a7.29,7.29,0,0,1,1.53,4c0,1.33-1,4-2.94,8a39.12,39.12,0,0,0-3.53,9.46,87.3,87.3,0,0,0-.94,15.23c0,12.81.83,21.28,2.59,25.36,1.57,3.65,4.12,5.61,7.29,5.59,4.72,0,8.95-2.7,12.48-7.65a21.41,21.41,0,0,0,1.53-2.33c2.59-3.69,4.78-6,6.59-6.9a8.25,8.25,0,0,1,2.47-.64c6-.56,9.49,3.07,10.35,11a30.28,30.28,0,0,1,.24,3.88,53.49,53.49,0,0,1-5.77,23.88c-3.49,7.1-7.29,11-11.29,11.62-15.3,2-23,2.34-38.25,1.29-14.28-1.07-21.5-7.41-21.54-16.22,0-3.52,1.28-7.82,3.89-12.86A48.58,48.58,0,0,0,89.85,298Z" transform="translate(0 -30.38)"/><path d="M178.16,293.86a128.68,128.68,0,0,0,2.71-26.76,66.62,66.62,0,0,0-1.18-13.26c-.48-2.32-1.92-5.57-4.35-10a13,13,0,0,1-1.89-5.53c0-4.65,6.24-7.81,18.48-11.26,16.43-4.63,24.64-7.25,41.07-12.63,2.9-1,5.65.69,8.12,4.78a22.84,22.84,0,0,1,3.18,12.05q0,8.79-4.24,11.78a5.89,5.89,0,0,1-1.41.79c-2.12.8-4.24.18-6.35-1.88-2.51-2.43-4.44-3.92-5.77-4.41q-4-1.59-9.65.31c-4.94,1.68-8.91,5.11-11.89,10.38a14.48,14.48,0,0,0-2.23,6.88c0,2.75,1.37,3.89,4.11,3.38a7.22,7.22,0,0,0,1.42-.36q2.7-.93,6.7-5.64a10.34,10.34,0,0,1,3.18-2.83c2-.7,3.37.85,4.24,4.61a25.24,25.24,0,0,1,.47,5c0,5.36-1,9.31-3.06,11.89a4.27,4.27,0,0,1-1.65,1.27c-.7.26-2.11-.17-4.12-1.06a7.68,7.68,0,0,0-5.76-.37c-3,1.13-4.67,3.21-4.71,6a9.85,9.85,0,0,0,4.12,8c1.88,1.21,3.66,1.57,5.18,1,4.71-1.66,8.94-5.62,12.47-11.35.39-.58.9-1.46,1.53-2.65q3.88-6.37,6.59-8.46a11.46,11.46,0,0,1,2.47-1.35q9.06-3.58,10.36,7.06a26.32,26.32,0,0,1,.23,3.54q0,11.28-5.76,24c-3.5,7.65-7.3,12.39-11.3,14.14-15.3,6.4-22.95,9.46-38.25,14.68-14.28,4.78-21.49,2.17-21.53-6,0-3.27,1.28-7.8,3.88-13.44A62.89,62.89,0,0,0,178.16,293.86Zm51.55-75.49a2.66,2.66,0,0,0-2,2.24c0,1.18.87,1.95,2.59,2.15a4,4,0,0,0,2-.16,2.68,2.68,0,0,0,2-2.24c0-1.16-.87-1.92-2.59-2.13A4,4,0,0,0,229.71,218.37Z" transform="translate(0 -30.38)"/><path d="M267.3,260A117.89,117.89,0,0,0,270,235a52.08,52.08,0,0,0-1.17-11.82c-.48-2-1.93-4.69-4.36-8a8.31,8.31,0,0,1-1.88-4.41c0-4.12,6.24-8.34,18.48-12.47,16.43-5.55,24.64-8.32,41.07-13.4,2.9-.9,5.65.42,8.12,3.91a17.64,17.64,0,0,1,3.18,10.43c0,5.14-1.42,8.62-4.24,10.4a5.83,5.83,0,0,1-1.41.71q-3.18,1.09-6.36-1.56c-2.5-2.1-4.43-3.34-5.76-3.72-2.67-.83-5.89-.6-9.65.72a22.4,22.4,0,0,0-11.89,9.9,12.73,12.73,0,0,0-2.24,6.29c0,2.46,1.38,3.36,4.12,2.71a9.9,9.9,0,0,0,1.42-.42c1.8-.69,4-2.52,6.7-5.46a10.46,10.46,0,0,1,3.18-2.69c2-.72,3.37.59,4.24,3.91a20.13,20.13,0,0,1,.47,4.48q0,7.23-3.06,10.89a4.43,4.43,0,0,1-1.65,1.23c-.71.28-2.12-.06-4.12-.75a8.14,8.14,0,0,0-5.76,0c-3,1.24-4.67,3.26-4.71,5.81-.05,2.83,1.37,5.24,4.12,7.07a6.23,6.23,0,0,0,5.17.65c4.73-1.79,8.95-5.62,12.48-11,.39-.55.9-1.37,1.53-2.47,2.59-4,4.78-6.55,6.59-7.83a11.94,11.94,0,0,1,2.47-1.25q9.06-3.27,10.36,6.62a22.76,22.76,0,0,1,.23,3.29q0,10.5-5.76,22.4c-3.5,7.2-7.3,11.7-11.3,13.36-15.3,6.08-22.95,9.45-38.25,16.19-14.28,6.2-21.5,5.42-21.53-2.34,0-3.12,1.28-7.73,3.88-13.67A72.93,72.93,0,0,0,267.3,260Zm51.54-71.69c-1.23.42-2,1.17-2,2,0,1,.87,1.64,2.59,1.76a4.55,4.55,0,0,0,2-.2c1.24-.43,2-1.17,2-2,.05-1-.86-1.62-2.59-1.75A4.73,4.73,0,0,0,318.84,188.32Z" transform="translate(0 -30.38)"/><path d="M356.55,227.22a93.13,93.13,0,0,0,2.59-20.93,52.81,52.81,0,0,0-1.64-13.36c-.48-1.75-1.93-4.22-4.36-7.35-1.26-1.73-1.88-3.13-1.88-4.2,0-2.64,3.37-5.73,10.12-7.45a49,49,0,0,1,8.35-1.4c8.48-.71,12.71-1,21.19-1.29,11.77-.43,20.67,2.75,26.71,9,3.77,3.94,5.65,8.29,5.65,13,0,6.24-3.13,11.13-9.3,15.06-5.8,3.69-13.41,5.81-22.83,6.61-5,.43-7.92,1.14-8.71,2a3.3,3.3,0,0,0-.82,2.39,23.81,23.81,0,0,0,.71,6.18c.85,3.2,2.07,7,3.53,11.42s2.11,7.36,2.11,9c0,4.65-5.06,7.83-15.18,10.4l-2.94.65-.23.06c-14.28,3.16-21.5,1.86-21.54-5.68,0-3,1.29-7.25,3.88-12.58A59.79,59.79,0,0,0,356.55,227.22ZM391,199.51c4.62-.3,7.57-1.8,8.82-4.61a4.83,4.83,0,0,0,.47-2c0-2.68-1.65-4.63-4.94-5.8a15.58,15.58,0,0,0-6.24-.83q-5.64.31-7.77,4.49a5.42,5.42,0,0,0-.7,2.58c0,2.74,1.6,4.6,4.82,5.61A15.61,15.61,0,0,0,391,199.51Zm8.82-24.19c-1.3.06-2.08.58-2.12,1.36s.87,1.65,2.59,2.16a5.42,5.42,0,0,0,2,.38c1.3-.05,2.08-.53,2.12-1.23.05-.89-.86-1.71-2.59-2.29A5.38,5.38,0,0,0,399.86,175.32Z" transform="translate(0 -30.38)"/><path d="M62.84,372c0,5-1.21,8.51-3.64,10.64a4.72,4.72,0,0,1-4.59.9,7,7,0,0,1-1.53-.76c-1.42-.95-2.91-3.17-4.48-6.71-1.72-3.89-3.29-6.55-4.7-7.91a11.83,11.83,0,0,0-2.71-1.78c-3.22-1.5-5.45-1.31-6.71.74a3.44,3.44,0,0,0-.35,1.5c0,1.87,2.24,5,6.71,8.86.94.79,2.43,2,4.47,3.69C53.7,387.93,59.59,392.66,63,396.4c5.1,5.72,7.65,11.35,7.65,17.31,0,7.61-3.31,13.22-9.88,16.69-7.53,4-17.93,4.3-31.19-.65C15.73,424.59,6.83,416,2.82,405.12A49.37,49.37,0,0,1,0,388c0-7.06,1.65-11,4.94-12a6.49,6.49,0,0,1,5.18,1.13c2.59,1.6,5.37,4.92,8.36,9.79a78.83,78.83,0,0,0,6.35,9.37,22.07,22.07,0,0,0,7.65,5.9c3.37,1.47,5.57,1.5,6.59.23a1.33,1.33,0,0,0,.24-.78c0-1.25-2.36-4.21-7.06-9.37a183,183,0,0,1-14.24-17c-6.2-8.88-9.38-16.51-9.42-21.72,0-5.78,3.32-9.22,9.42-9.85,7.1-.73,15.27,1.39,23.3,5.25,1.09.52,4.47,2.66,10.12,5.81a34.76,34.76,0,0,0,4.12,2,8.73,8.73,0,0,1,1.53.8c2.82,1.92,4.63,5.44,5.41,10.66A20.75,20.75,0,0,1,62.84,372ZM49.9,357.7c-1.21-.47-2-.27-2,.46,0,1,.86,2.26,2.59,3.62a7.29,7.29,0,0,0,2,1.25c1.21.44,2,.2,2-.53,0-1-.87-2.18-2.59-3.54A8,8,0,0,0,49.9,357.7Z" transform="translate(0 -30.38)"/><path d="M121.27,446.76c-16.56-.42-28.29-6.64-35.19-17.61a37.49,37.49,0,0,1-5.77-20.45,41.55,41.55,0,0,1,9.77-27.22A40.83,40.83,0,0,1,115.5,366.6a39.62,39.62,0,0,1,6-.66c11-.38,20.44,3.06,28.36,11.24a45.63,45.63,0,0,1,12.6,27.64c.15,1.74.23,3.4.23,5,0,11.84-4,21.3-12.12,28.07C143.28,444,133.51,447.07,121.27,446.76Zm.12-26c6.12.08,10.08-3.08,11.88-9.37a25.74,25.74,0,0,0,.82-6.68c0-6.71-1.68-12.39-5.05-17-2.36-3.12-4.95-4.72-7.65-4.71-3.72,0-6.9,2.82-9.42,8.13a31,31,0,0,0-3.06,13.49q0,11.66,7.3,15A12.6,12.6,0,0,0,121.39,420.76Zm9.76-50.62c-1.22.13-2,.69-2,1.46,0,1,.86,1.82,2.59,2.35a4.86,4.86,0,0,0,2,.29c1.22-.14,2-.72,2-1.51,0-1-.86-1.79-2.59-2.31A4.66,4.66,0,0,0,131.15,370.14Z" transform="translate(0 -30.38)"/><path d="M234.41,351.63a28.93,28.93,0,0,1-3.65,14.69,10.85,10.85,0,0,1-4.58,4.58,5.7,5.7,0,0,1-1.54.37q-2.12.12-4.47-3.7-2.58-4.2-4.82-4.52a6.31,6.31,0,0,0-2.71.45c-3.76,1.45-6.89,5.71-9.41,12.6a46.78,46.78,0,0,0-3.06,16.18c0,8.59,2.43,13.11,7.29,13.71a11.13,11.13,0,0,0,5.18-.65c2.75-1,5.62-3.73,8.59-8.38,2.83-4.42,4.67-7.21,5.53-8.24a13.89,13.89,0,0,1,5.3-4c4-1.55,6.9,0,8.71,4.57a23,23,0,0,1,1.41,8.37c0,14.24-5.57,24.77-16.71,31.3a59.32,59.32,0,0,1-12.95,5.51c-16.55,5.05-28.28,3.81-35.18-5.84-3.85-5.32-5.77-11.89-5.77-19.92,0-11.13,3.32-21.87,9.77-33.7,6.76-12.4,15.22-21.62,25.42-27.42a43.55,43.55,0,0,1,6-2.91c1.1-.43,4.51-1.31,10.24-2.76a33.41,33.41,0,0,0,4.12-1.34,6.13,6.13,0,0,1,1.53-.39c2.82-.21,4.63,2.31,5.41,7.53A21.26,21.26,0,0,1,234.41,351.63Zm-12.94-5.27c-1.24.54-2,1.38-2,2.25-.05,1.08.86,1.71,2.59,1.73a4.61,4.61,0,0,0,2-.33,2.89,2.89,0,0,0,2-2.26c0-1.08-.87-1.7-2.59-1.72A4.56,4.56,0,0,0,221.47,346.36Z" transform="translate(0 -30.38)"/><path d="M316.14,316.9a31.66,31.66,0,0,1-3.65,15.42c-1.41,2.43-3,4.06-4.59,4.75a5,5,0,0,1-1.53.35c-1.41.06-2.9-1.29-4.47-4-1.73-3-3.34-4.59-4.83-4.81a6.09,6.09,0,0,0-2.7.51c-3.77,1.59-6.89,6.17-9.42,13.61a54.33,54.33,0,0,0-3.06,17.51c0,9.33,2.43,14.31,7.3,15a10.26,10.26,0,0,0,5.18-.7c2.74-1,5.62-4.07,8.59-9.14,2.82-4.82,4.66-7.82,5.53-8.92a13,13,0,0,1,5.29-4.19c4-1.51,6.91.32,8.71,5.54a28.85,28.85,0,0,1,1.41,9.4c0,15.89-5.57,27.55-16.71,34.57a56.93,56.93,0,0,1-12.94,5.9c-16.56,5.43-28.29,3.27-35.19-6.1-3.84-5.15-5.77-12-5.77-20.81,0-12.17,3.32-24.69,9.77-37.71,6.77-13.65,15.22-23.94,25.42-30.37a41.54,41.54,0,0,1,6-3.22,105.12,105.12,0,0,1,10.24-3,34.58,34.58,0,0,0,4.12-1.34,5.72,5.72,0,0,1,1.53-.38c2.83-.16,4.63,2.49,5.41,8A23.5,23.5,0,0,1,316.14,316.9Zm-12.95-5.79a3,3,0,0,0-2,2.34c0,1.12.86,1.76,2.59,1.8a4.29,4.29,0,0,0,2-.33,2.92,2.92,0,0,0,2-2.34c.05-1.12-.86-1.77-2.59-1.81A4.31,4.31,0,0,0,303.19,311.11Z" transform="translate(0 -30.38)"/><path d="M344.55,352.76a133,133,0,0,0,2.71-26.7,59,59,0,0,0-1.18-12.6c-.48-2.15-1.92-5-4.35-8.51-1.26-1.86-1.9-3.38-1.89-4.56,0-4.21,6.24-9.07,18.48-12.26,16.43-4.28,24.64-6,41.07-7.6,2.9-.3,5.64,2.1,8.12,7.24a32,32,0,0,1,3.18,14q0,9.56-4.24,11.25a4,4,0,0,1-1.41.33c-2.12.09-4.24-1.33-6.35-4.2-2.51-3.4-4.44-5.49-5.77-6.35a13.26,13.26,0,0,0-9.65-1.92c-4.94.72-8.91,3.55-11.89,8.32a12.52,12.52,0,0,0-2.23,6.5c0,2.76,1.37,4.12,4.12,4.15a8.34,8.34,0,0,0,1.41-.08q2.7-.4,6.71-4.33c1.41-1.36,2.47-2.08,3.17-2.17,2-.24,3.38,1.73,4.24,5.95a30.7,30.7,0,0,1,.47,5.47c0,5.72-1,9.66-3.06,11.79a2.81,2.81,0,0,1-1.65.85c-.7.07-2.09-.82-4.12-2.34a8,8,0,0,0-5.76-1.91c-3,.44-4.67,2.26-4.71,5.14,0,3.23,1.37,6.42,4.12,9.52,1.88,1.81,3.66,2.75,5.18,2.65,4.65-.32,8.94-3.17,12.47-8.19a21.12,21.12,0,0,0,1.53-2.35q3.89-5.58,6.59-6.83a7.38,7.38,0,0,1,2.47-.53c6-.22,9.49,4,10.36,12.49a37.28,37.28,0,0,1,.23,4.16A56.14,56.14,0,0,1,407.16,374c-3.49,7.16-7.3,10.87-11.3,11.06-15.3.36-22.95,1-38.25,2.6-14.28,1.44-21.49,1.16-21.53-7.4,0-3.43,1.28-8.26,3.88-14.35A73.79,73.79,0,0,0,344.55,352.76Zm51.55-68.93c-1.22.18-2,.89-2,1.84,0,1.21.87,2.18,2.59,2.82a4.14,4.14,0,0,0,2,.34c1.21-.16,2-.84,2-1.81,0-1.21-.87-2.23-2.59-2.86A3.89,3.89,0,0,0,396.1,283.83Z" transform="translate(0 -30.38)"/><path d="M434,347a130.89,130.89,0,0,0,2.59-24.74,104.24,104.24,0,0,0-1.76-18.52c-.48-2.38-1.93-6.17-4.36-11.25a17,17,0,0,1-1.88-6.22c0-3.42,3.37-5.74,10.12-6.39a31.71,31.71,0,0,1,8.35.29A133.83,133.83,0,0,1,468.29,285a44.69,44.69,0,0,1,28.83,25.49,32.58,32.58,0,0,1,2.94,12.77c0,7.33-2.82,11.61-8.47,13.44a6.55,6.55,0,0,0-1.88,1c-.09.34,1.09,2.68,3.29,6.69a133.32,133.32,0,0,1,10.12,24.68c.79,2.68,2.7,6,5.77,9.8,2.93,3.66,4.94,6.66,5.77,8.89a18.15,18.15,0,0,1,1.06,6.27c0,7.16-3.65,9.8-11,8.62a72.25,72.25,0,0,1-8.83-2.42c-10.12-3.33-16.51-6.78-19.18-11.34a17.92,17.92,0,0,1-2-8.61c-.08-16.25-1.61-28.55-4.35-36.82-1.5-4.25-3.21-6.74-5.06-7.25-2.14-.58-4,.74-5.3,3.86A15.44,15.44,0,0,0,459,346a42.84,42.84,0,0,0,.71,8.14c.85,4.46,2.07,9.83,3.53,16.06s2.14,10.28,2.12,12.36c-.08,6.31-6.29,8.25-18.25,6.62-14.15-1.94-21.38-7-21.41-16.3,0-3.68,1.33-8.3,3.88-13.7A56.42,56.42,0,0,0,434,347Zm43.43-28.56a14.11,14.11,0,0,0-4.24-9.72,11,11,0,0,0-4.94-3.32c-4.79-1.39-7.89-.19-9.3,3.31a9.23,9.23,0,0,0-.47,2.84c0,3.65,1.92,6.67,5.77,9.25a18.52,18.52,0,0,0,4.7,2.1c4.08,1.15,6.75.55,8-2A6.25,6.25,0,0,0,477.47,318.39Zm2.23-23.59c-1.2-.41-2,0-2,1,0,1.24.86,2.6,2.59,4a6.53,6.53,0,0,0,2,1.33c1.2.42,2,.09,2-.84,0-1.22-.86-2.69-2.59-4.19A6.09,6.09,0,0,0,479.7,294.8Z" transform="translate(0 -30.38)"/><path d="M9.06,503.61a86.35,86.35,0,0,0,2.59-20.11,78.65,78.65,0,0,0-1.76-15.76c-.47-2.1-1.93-5.6-4.36-10.69-1.25-2.76-1.88-4.78-1.88-6,0-3,3.37-3.73,10.12-2.46a60.48,60.48,0,0,1,8.36,2.19c8.47,2.79,12.71,4,21.18,6.16,14.2,3.59,23.81,8.59,28.83,16a15.36,15.36,0,0,1,2.94,8.63c0,5.34-2.82,9.16-8.47,11.54a8.93,8.93,0,0,0-1.88,1.07c-.07.23,1.1,1.74,3.29,4.17a66.48,66.48,0,0,1,10.12,15.12c.79,1.68,2.72,3.51,5.77,5.31s5,3.21,5.77,4.49a7.48,7.48,0,0,1,1.06,4c0,4.94-3.65,7.86-10.95,8.89a73.54,73.54,0,0,1-8.83.45c-10.12,0-16.51-1.31-19.18-4.07a8.41,8.41,0,0,1-2-5.75c-.08-11.45-1.61-20.18-4.35-26-1.49-3-3.21-4.75-5.06-5.05-2.15-.35-4,.69-5.3,3.07A9.44,9.44,0,0,0,34,503.3a23.85,23.85,0,0,0,.71,6.07c.85,3.29,2.07,7.2,3.53,11.61s2.14,7.25,2.12,8.75c-.08,4.55-6.27,7-18.24,6.93C8,536.63.74,532.58.71,524.77c0-3.09,1.33-7,3.88-11.35A40.86,40.86,0,0,0,9.06,503.61Zm43.43-21.82c0-2.53-1.41-4.81-4.24-7a12.26,12.26,0,0,0-4.94-2.35c-4.79-1-7.89-.27-9.3,2.37a5.51,5.51,0,0,0-.47,2.17c0,2.82,1.92,5.25,5.77,7.15A18.8,18.8,0,0,0,44,485.64c4.07.69,6.74,0,8-2A3.78,3.78,0,0,0,52.49,481.79ZM54.72,464c-1.21-.22-2,.15-2,.93s.87,1.9,2.59,2.78a6.14,6.14,0,0,0,2,.79c1.22.19,2-.16,2-.85,0-.9-.86-1.89-2.58-2.84A6.42,6.42,0,0,0,54.72,464Z" transform="translate(0 -30.38)"/><path d="M110.79,511.1a55.91,55.91,0,0,0,2.71-17.69,34.45,34.45,0,0,0-1.18-9.36q-.7-2.54-4.35-7.57c-1.26-1.78-1.89-3.14-1.88-4,0-3.14,6.23-4.27,18.47-4,16.43.36,24.65.14,41.08-.77,2.9-.16,5.64,1.6,8.12,5.26a17.42,17.42,0,0,1,3.17,9.89c0,4.45-1.41,7.05-4.23,7.85a6,6,0,0,1-1.42.24q-3.17.1-6.35-2.91a27.84,27.84,0,0,0-5.77-4.56,20,20,0,0,0-9.65-1.95q-7.41.14-11.88,4.6c-1.5,1.49-2.24,2.91-2.24,4.27q0,2.88,4.12,3.34a11.14,11.14,0,0,0,1.41.1c1.81,0,4-.77,6.71-2.35a7.67,7.67,0,0,1,3.18-1.24c2,0,3.37,1.41,4.23,4.3a13.9,13.9,0,0,1,.47,3.68c0,3.8-1,6.32-3.06,7.6a3.43,3.43,0,0,1-1.64.46c-.71,0-2.1-.65-4.12-1.79a11.92,11.92,0,0,0-5.77-1.71c-3,0-4.67,1.07-4.71,3,0,2.12,1.38,4.35,4.12,6.55a9.81,9.81,0,0,0,5.18,2.05,18,18,0,0,0,12.47-4.6,14,14,0,0,0,1.54-1.45c2.58-2.32,4.78-3.76,6.58-4.28a10.53,10.53,0,0,1,2.48-.32c6-.13,9.49,2.54,10.35,7.84a13.92,13.92,0,0,1,.24,2.61,23.79,23.79,0,0,1-5.77,15.29c-3.49,4.26-7.3,6.36-11.3,6.41-15.3,0-22.94,0-38.24,0-14.28-.06-21.5-2.9-21.54-8.47,0-2.23,1.29-5.15,3.88-8.56C108.6,515.62,110.17,513.06,110.79,511.1ZM162.34,470c-1.23.09-2,.58-2,1.26-.05.86.86,1.62,2.59,2.12a5.21,5.21,0,0,0,2,.3c1.22-.09,2-.58,2-1.27,0-.86-.86-1.62-2.59-2.12A5.22,5.22,0,0,0,162.34,470Z" transform="translate(0 -30.38)"/><path d="M200.05,509.92a68.61,68.61,0,0,0,2.59-18.37A45.31,45.31,0,0,0,201,479.2c-.47-1.61-1.92-4-4.35-7.1q-1.89-2.57-1.89-4.11c0-2.54,3.38-5.11,10.12-7.86a63.5,63.5,0,0,1,8.36-2.76c8.47-2.19,12.71-3.33,21.18-5.64,11.77-3.21,20.68-2.2,26.72,3.61a18.8,18.8,0,0,1,5.65,14c0,7.53-3.13,14.27-9.3,19.82-5.81,5.22-13.42,8.36-22.83,9.68-5,.7-7.93,1.46-8.71,2.29a3.26,3.26,0,0,0-.82,2.36,23,23,0,0,0,.7,6c.86,3.11,2.08,6.83,3.53,11.15s2.12,7.23,2.12,8.8q0,6.66-15.18,7.17h-3.18c-14.28-.06-21.5-3-21.53-8.8,0-2.3,1.29-5.32,3.88-9.16A33.75,33.75,0,0,0,200.05,509.92Zm34.48-27.17c4.63-.88,7.57-3,8.83-6.29a6.59,6.59,0,0,0,.47-2.28c0-3-1.65-4.87-5-5.56a14.24,14.24,0,0,0-6.23.18,10.59,10.59,0,0,0-7.77,5.95,6.41,6.41,0,0,0-.7,2.77c0,2.84,1.6,4.58,4.82,5.29A14,14,0,0,0,234.53,482.75Zm8.83-28.48c-1.31.38-2.08,1.15-2.12,2.06s.86,1.7,2.59,1.88a4.47,4.47,0,0,0,2,0c1.31-.37,2.08-1.11,2.12-1.95,0-1.05-.87-1.77-2.59-2A4.45,4.45,0,0,0,243.36,454.27Z" transform="translate(0 -30.38)"/><path d="M283.3,499A118.35,118.35,0,0,0,286,473.39a59.67,59.67,0,0,0-1.18-12.65c-.48-2.2-1.92-5.22-4.35-8.93-1.26-2-1.9-3.54-1.88-4.71,0-4.19,6.23-8.07,18.47-11.39,16.43-4.46,24.65-6.65,41.07-10.6,2.91-.69,5.65,1.42,8.12,6.45A32.34,32.34,0,0,1,349.44,446c0,6.78-1.41,11-4.23,12.57a4.22,4.22,0,0,1-1.42.54c-2.12.37-4.23-.89-6.35-3.68-2.51-3.3-4.44-5.29-5.77-6.06-2.67-1.64-5.88-2-9.65-1.2-4.94,1.08-8.9,4.19-11.89,9.19a13.5,13.5,0,0,0-2.23,6.74q0,4.23,4.12,4.15a6.72,6.72,0,0,0,1.41-.12c1.8-.33,4-1.89,6.71-4.73,1.41-1.49,2.47-2.3,3.18-2.44,2-.37,3.37,1.58,4.23,5.91a31.7,31.7,0,0,1,.47,5.66c0,5.95-1,10.11-3.06,12.4a3,3,0,0,1-1.64.94c-.71.09-2.1-.78-4.12-2.29a7.87,7.87,0,0,0-5.77-1.82c-3,.5-4.67,2.35-4.71,5.27,0,3.28,1.38,6.5,4.12,9.65,1.88,1.85,3.66,2.81,5.18,2.69,4.66-.34,8.94-3.36,12.47-8.76A20.6,20.6,0,0,0,332,488c2.59-4,4.79-6.59,6.59-7.63a7.53,7.53,0,0,1,2.48-.77c6-.82,9.49,3.21,10.35,12.25a39.71,39.71,0,0,1,.24,4.45,65.86,65.86,0,0,1-5.77,27c-3.49,7.78-7.3,11.65-11.3,11.77l-38.24.16c-14.28,0-21.5-4.07-21.54-12,0-3.18,1.28-7.36,3.88-12.57A53.68,53.68,0,0,0,283.3,499Zm51.55-70a2.39,2.39,0,0,0-2,2.17c-.05,1.27.86,2.19,2.59,2.65a3.64,3.64,0,0,0,2,.11,2.39,2.39,0,0,0,2-2.16c.05-1.29-.87-2.23-2.59-2.68A3.63,3.63,0,0,0,334.85,429Z" transform="translate(0 -30.38)"/><path d="M433.87,482.2c2.31,9.11,5.85,16.4,10.71,21.62a56,56,0,0,1,5.53,6.36,19.8,19.8,0,0,1,2.47,10.4q0,12-8.71,14.83c-2.66.83-6.63,1.25-11.88,1.25q-15.06,0-19.07-6.58a18.43,18.43,0,0,1-2-9.13c0-1.17,0-3.37.12-6.53.13-4.11.24-7.09.24-8.88,0-7-1.22-11.12-3.65-12.51a6.19,6.19,0,0,0-3.06-.83c-5.44,0-8.24,6.15-8.24,18.46,0,.74,0,1.95,0,3.51s.12,2.77.12,3.51c0,9.17-2.71,15-8.12,17.37a26.83,26.83,0,0,1-10.12,1.61c-8.24,0-13.26-2.76-15.07-8.21a23.71,23.71,0,0,1-1.05-7.37q0-6.86,3.53-10c.39-.32,1.05-.8,2-1.45a26.52,26.52,0,0,0,8.23-9.86c.55-1.16,1-2.26,1.42-3.32a290.74,290.74,0,0,0,11.18-36c2.06-8.38,3.05-14.42,3.05-18.07a27.57,27.57,0,0,0-2.7-10.86,16.18,16.18,0,0,1-1.77-6.28c0-3.39,4.08-5.87,12.24-7.19a44.19,44.19,0,0,1,7.65-.55c8.24.12,14.36,2,18.36,5.45a7.67,7.67,0,0,1,2.71,4.22,18.35,18.35,0,0,1,.11,2.11C428.4,446.78,429.48,464.86,433.87,482.2Zm-32.36-10.81c.07,3.34,1.31,5.33,3.06,5.32,2.19,0,3.56-2.42,3.53-6.63-.08-9.43-1.31-14.66-2.94-14.87-1.25-.15-2.47,2.73-3.18,8.28A52.93,52.93,0,0,0,401.51,471.39Zm15.18-48.29c-1.76,0-2.79.75-2.83,2s.91,2.29,2.71,3a4.5,4.5,0,0,0,1.53.36c1.68,0,2.67-.74,2.71-2s-.9-2.46-2.71-3.13A5.78,5.78,0,0,0,416.69,423.1Z" transform="translate(0 -30.38)"/><path d="M506.18,469a163.55,163.55,0,0,0,2.71,30.64c.55,2.87,2.15,7.15,4.82,12.64,2.27,4.66,3.45,8.53,3.42,11.68-.08,8.31-7.39,12.73-21.42,12.73s-21.38-4.93-21.42-14.33c0-3.76,1.3-8.56,3.88-14.19a59.6,59.6,0,0,0,4.47-12.4A126.7,126.7,0,0,0,484.53,472a114.45,114.45,0,0,0-1.65-20.22c-.63-2.88-1.8-4.58-3.41-4.91-2.73-.56-6.48,1.81-11,7.19-.08.08-.15.17-.23.26-2,3.06-3.85,4.78-5.42,5.09a4.35,4.35,0,0,1-1.64.11q-4.71-.51-5.53-9.85-.12-1.5-.12-3c0-7.05,1.65-13.1,4.94-18,2.12-3,4.24-4.39,6.36-4.13a318.89,318.89,0,0,1,56.6,14.95c2.9,1.06,5.62,4.54,8.12,10.21a34.64,34.64,0,0,1,3.3,14c0,5.42-1.37,8.28-4.12,8.69a5.83,5.83,0,0,1-1.65-.2c-2.2-.6-4.31-2.54-6.35-5.93l-.71-1.22a41.42,41.42,0,0,0-6.94-8.57,11.57,11.57,0,0,0-4.36-2.9C507.71,453.38,506.18,458.53,506.18,469Zm14-27.86c-1.29-.4-2.08-.05-2.12.85-.05,1.17.86,2.5,2.59,3.85a6.15,6.15,0,0,0,2,1.19c1.28.39,2.08.06,2.12-.82.05-1.14-.87-2.48-2.59-3.86A6.27,6.27,0,0,0,520.19,441.11Z" transform="translate(0 -30.38)"/></svg>