<svg id="katman_1" data-name="katman 1" xmlns="http://www.w3.org/2000/svg" viewBox="0 0 566.93 471.76"><path d="M503.53,366.82a24.74,24.74,0,0,1-12.24-3.32,224.61,224.61,0,0,1-89.53,108.67L390.92,454.1c5.53-7,9.89-12.74,12.94-17,8.58-10.56,19-30,31-57.85A253.06,253.06,0,0,0,468,355.36c3.37-2.93,6.58-6,9.63-9.06a51.49,51.49,0,0,1-2.88-14.14c-5.3,7.48-9.43,12.26-12.34,14.21a25.46,25.46,0,0,1-8.38,3.48,249.94,249.94,0,0,1-23.95,16.82c-10-6.9-21.25-15-33.57-24.35-6.66,3.85-10.49,3.85-12.44,3.85h-.7l-4.93-1.1-.68-.32c-5.1-2.53-11.06-8.11-12.19-20.6l0,3.93c-25.43,16.07-53.21,31.74-82.57,46.6l-33.79-19.54a53.45,53.45,0,0,1-10.59,8.06c-.3.17-.63.35-.93.5l39.4,22.8c3.68,16.32,6.08,37.87,7.18,64.1a401.44,401.44,0,0,1-38.72,15.47,274.43,274.43,0,0,1-35,8.78c-13.37-6.6-23.35-11.81-29.71-15.42-7.66-4.3-16.7-9.78-26.91-16.31-4.2-10.49-8.88-22.78-11.44-36.4-2.25-12-2.93-24.65-3.25-40,13.09-5.95,25.88-11.68,38.27-17.12a23.71,23.71,0,0,1-5.88.75,30.75,30.75,0,0,1-30.49-26.95c-14.79,15.82-24,20.62-29.38,22.07,4,5.89,8.76,12.49,14.26,19.73.33,16.84,1,30.76,3.51,43.9a189.94,189.94,0,0,0,9.91,33.14c-2.78.73-5.88,1.65-9.26,2.78A220.57,220.57,0,0,1,61.6,302.67c-2-3.15-3-7.23-3-12.26a59.19,59.19,0,0,1,2.27-14.94c.06-1.71.13-3.41.23-5.09-4.28,6.81-8.79,14.32-13.37,22.46A235.9,235.9,0,0,0,283.44,519.36l.63,0c100.52-.25,186.39-63.67,220-152.53A5.43,5.43,0,0,1,503.53,366.82ZM284,506.17h-.92a221.32,221.32,0,0,1-62.6-9c-.56-4-1.18-7.5-1.88-10.46a274.41,274.41,0,0,0,31.06-8.08,421.77,421.77,0,0,0,42.75-17.27c18.77,1.87,33.32,2.7,43.25,2.48,9.81,0,24.51-1.11,43.71-3.31l11,18.35A223,223,0,0,1,284,506.17Zm-.57-458.58h-.63a236,236,0,0,0-232.58,200,315.41,315.41,0,0,1,19.23-25.56,224,224,0,0,1,62.14-101.49,49.09,49.09,0,0,0,8.19,3.3c-4,11-8.81,25.08-11.26,38.65-2.56,14-2.63,27.25-2.38,38.34q-5.57,8-10.16,14.72a16,16,0,0,1,.2,2.7c0,7.86-2.46,15.45-11.84,35.09,4.1-3.5,7.51-5.53,12.29-5.53h.47c.5,0,1,.1,1.45.18l3.56.57,2.38,1.1c6.2,2.86,9.83,8.76,9.83,16.6s-1.75,13.57-10.51,34.72c-3.55,9-5.63,15.11-6.83,19.32,6.73-6,17.57-17.6,31.23-34.84,5.44-12.79,13.07-23.93,21-30.66a38.35,38.35,0,0,1,23.78-8.24,33.61,33.61,0,0,1,11.76,2.08l.15-4.88c.1-1.88.18-3.78.28-5.68l.12-2.78c15.37-8.86,44.48-25.51,78.17-44.78,18.4,10.21,38.77,21.83,60.75,34.59,6.11-7.48,12.26-14,18.22-18.72a22.72,22.72,0,0,1,14.62-5.61,16.65,16.65,0,0,1,3,.28l.42,0,.35.1c7.54,1.67,12.67,8.33,12.67,17a36,36,0,0,1-1.18,9.09c13.84-10.34,26.88-19.43,38.92-27.13,11.47,6.93,23.43,14.56,33.42,23.47,9.78,8.76,17.52,18.55,24.4,27.81,0,.35,0,.7.08,1a22.87,22.87,0,0,1,5.43,5.86,19.23,19.23,0,0,1,7.86-2.33l.62,0a30.15,30.15,0,0,1,15,3.73C506.21,140.83,405.39,47.59,283.47,47.59Zm-6.06,131.29c-36.8,21-64.1,36.64-78.92,45.2-19.77-7.43-39.67-15.79-59.15-24.81-.22-10-.1-21.92,2.18-34.44,2.35-13,6.83-26.3,12.84-42.25,14.12-9.38,24.53-16,31-19.55a261.86,261.86,0,0,1,25-12.29c16.17,2.56,29.49,5.14,41.73,9.37,12.06,4.18,22.55,9.76,32.06,15.21A543.67,543.67,0,0,1,277.41,178.88Zm101.72-72.77c-18.25-2.42-32.44-3.68-42.18-3.73-1.32,0-2.75-.07-4.28-.07-9.81,0-23.37.82-40.34,2.45C281.69,98.63,270,92.32,256.48,87.64c-12.61-4.35-26.3-7-37.12-8.78a92.23,92.23,0,0,0,1.56-9.19,222.33,222.33,0,0,1,62-8.89l.57,0A223,223,0,0,1,390.19,88ZM495.59,238.17a178.61,178.61,0,0,0-22.07-24.3c-11-9.84-24.21-18.22-36.85-25.81-11.08-22.25-19.42-37.84-24.75-46.3a250.71,250.71,0,0,0-21.25-29.29l10.91-17.82a224.11,224.11,0,0,1,99,139C498.75,235.19,497.07,236.69,495.59,238.17Z" transform="translate(0.01 -47.59)"/><path d="M564.89,284.69a3.32,3.32,0,0,1-.93-.25l-.49-.1c-3.55,0-6,4.37-10.33,12.31-6.08,11.07-15.27,27.78-34.6,46.52-8.45,8.74-13.24,10.57-15.77,10.57-3.69,0-4.47-5.28-4.47-9.7,0-12.23,6.26-35.21,16.31-59.94,3.43-7.65,4.58-11,4.58-13.44,0-5.68-9.22-8.71-16-8.71h0c-6.67.67-8.15,3.45-10.84,9.46-.52-13.94-12-18.92-21.88-18.92a31.74,31.74,0,0,0-19.71,6.77c-7.39,6.24-14.54,16.83-19.63,29.08-16.83,21.31-36.55,42.76-42.76,42.76-.43,0-1.74,0-1.74-3.23,0-4.91,2.91-14.6,8.87-29.62,8.79-21.25,10-26,10-32.32,0-7.19-4.14-11.63-11.45-12.19-2.75,0-4.81,1.06-8.69,4.46-5.43,3.95-15.71,16.44-22.52,24.71l-3.64,4.4c.94-3.19,2.88-7.31,9.29-21l3.55-7.58c12.16-24.81,15.3-33.21,15.3-40.85,0-6.7-4.1-11.2-10.2-11.2A16.65,16.65,0,0,0,366.41,211c-19.18,15.22-41.37,51.12-56.05,74.88-6.14,9.95-12.48,20.2-15,22.94.52-4.63,5.61-18.76,13.06-38.42,3.08-7.82,5.56-16,5.56-17.62,0-4.4-6.17-7.47-11.7-7.47-3,0-5.35.84-6.64,2.39-3.33,3.6-10.5,21.54-14.47,34.61-.71,2.64-1.31,5.31-1.86,8.15-1.05,1.73-2.21,3.83-3.54,6.25-6.08,11.05-15.26,27.74-34.6,46.49-8.45,8.74-13.24,10.57-15.77,10.57-3.69,0-4.47-5.28-4.47-9.7,0-12.23,6.26-35.21,16.31-59.94,3.43-7.65,4.59-11,4.59-13.44,0-5.68-9.23-8.71-16-8.71h0c-6.67.67-8.15,3.45-10.84,9.46-.52-13.94-12-18.92-21.87-18.92a31.75,31.75,0,0,0-19.72,6.77c-7.39,6.25-14.54,16.84-19.63,29.08-16.83,21.31-36.55,42.76-42.76,42.76-.43,0-1.73,0-1.73-3.23,0-4.91,2.9-14.6,8.86-29.62,8.79-21.25,10-26,10-32.32,0-7.19-4.14-11.63-11.45-12.19-2.75,0-4.81,1.06-8.69,4.46-5.43,3.95-15.71,16.44-22.52,24.71l-3.64,4.4c.94-3.19,2.88-7.31,9.29-21l3.55-7.58C106.81,234,110,225.56,110,217.92c0-6.7-4.1-11.2-10.2-11.2A16.69,16.69,0,0,0,89,211c-19.18,15.22-41.37,51.12-56,74.88-6.14,9.95-12.47,20.2-15,22.94.52-4.63,5.61-18.76,13.06-38.42,3.08-7.82,5.56-16,5.56-17.62,0-4.4-6.17-7.47-11.7-7.47-3,0-5.35.84-6.64,2.39-3.32,3.6-10.5,21.54-14.46,34.6A108.22,108.22,0,0,0,0,309c0,5.21.33,8.41,1.11,10.48,2.22,4.7,6.34,7.15,13.07,7.68,4.78,0,13.22-9.46,17.28-17.59,27.28-53,54-85.69,60.08-90.91-.89,2.89-4,9.3-6.74,15.06-1.36,2.82-2.77,5.74-4.08,8.57-7.35,15.38-15.79,34.71-15.79,47.8,0,8.79,3.31,12.88,11.2,13.69,4.93,0,9-4.35,18.9-17.41,3.12-4.12,10.16-13.4,14.13-18-.67,1.49-1.52,3.26-2.31,4.93-2,4.15-4.41,9.3-6,13.66s-6.54,19-6.54,32.51c0,9.79,3,16.45,8.93,19.38l3.51.78c11.66,0,29.92-19.87,41.71-34.4a61.06,61.06,0,0,0-1.4,12.26c0,17.12,12.69,26.37,24.63,26.37a18.69,18.69,0,0,0,9.91-2.95c5.42-3.68,17-21.65,22.47-30.53-.3,3.45-.54,8.5-.54,16.56,0,22.9,11.73,33.34,22.64,33.34a19,19,0,0,0,9.54-2.89c11.64-6.24,30.73-30.84,41.72-47.19,0,4.53.38,7.4,1.1,9.31,2.22,4.7,6.34,7.15,13.07,7.68,4.78,0,13.22-9.46,17.28-17.59,27.28-53,54-85.69,60.08-90.91-.89,2.89-4,9.3-6.74,15.06-1.36,2.82-2.77,5.74-4.08,8.57-7.36,15.38-15.8,34.71-15.8,47.8,0,8.79,3.32,12.88,11.2,13.69,4.94,0,9.06-4.35,18.91-17.41,3.12-4.12,10.16-13.4,14.13-18-.67,1.49-1.52,3.26-2.31,4.93-2,4.15-4.41,9.3-6,13.66s-6.54,19-6.54,32.51c0,9.79,3,16.45,8.92,19.38l3.52.78c11.66,0,29.91-19.87,41.71-34.4a61.06,61.06,0,0,0-1.4,12.26c0,17.12,12.69,26.37,24.63,26.37a18.63,18.63,0,0,0,9.9-2.95c5.43-3.68,17-21.65,22.48-30.53-.3,3.45-.55,8.5-.55,16.56,0,22.9,11.74,33.34,22.65,33.34a19,19,0,0,0,9.54-2.89C529.71,348.41,567,296,566.92,287,566.58,285.69,566.29,284.87,564.89,284.69Zm-77.8.3c-1.18,5.72-19.45,27.63-26.36,35.91-1.72,2.06-3,3.55-3.43,4.16-3.54,3.53-4.93,3.8-5.28,3.8-1.29,0-1.48-2.8-1.48-4.47,0-16.72,16.08-59.2,24.12-59.2,2.61,0,4,5.52,4.76,10.24,1.54,6.42,2.47,8.19,6.73,9.4C486.77,284.93,487,285.07,487.09,285ZM209.7,285c-1.18,5.72-19.45,27.63-26.36,35.91-1.72,2.06-3,3.55-3.43,4.16-3.54,3.53-4.93,3.8-5.27,3.8-1.3,0-1.49-2.8-1.49-4.47,0-16.72,16.08-59.2,24.12-59.2,2.61,0,4,5.52,4.76,10.24,1.54,6.42,2.47,8.19,6.73,9.4C209.38,284.93,209.64,285.07,209.7,285Z" transform="translate(0.01 -47.59)"/></svg>