<svg id="katman_1" data-name="katman 1" xmlns="http://www.w3.org/2000/svg" viewBox="0 0 566.93 537.72"><path d="M281.12,208.28h-.33a121.67,121.67,0,0,0,.31,243.34h.33a121.82,121.82,0,0,0,121.36-122C402.61,262.72,348,208.28,281.12,208.28Zm-79.91,59.27A96.7,96.7,0,0,0,200,287.34c-6.87,9.81-11.6,17-14,21.47a134.85,134.85,0,0,0-8,17l-11.67.16a115.64,115.64,0,0,1,36.49-80.1,25.06,25.06,0,0,0,4.23,1.72A123.79,123.79,0,0,0,201.21,267.55Zm.52,127.23a97.21,97.21,0,0,0,5.11,17.09c-1.44.38-3,.86-4.77,1.43a113.85,113.85,0,0,1-35.79-80.49l11.59-.16c3.94,9.74,7.22,16.91,9.73,21.29a152.58,152.58,0,0,0,12.32,18.19C200.08,380.82,200.46,388,201.73,394.78ZM282.18,242.9Zm48.38,63.24c9.68-7.49,18.71-13.92,26.84-19.12a115.25,115.25,0,0,1,17.23,12.11,92.15,92.15,0,0,1,12.59,14.34c.46,6.87.69,12.24.68,16,0,3.53-.15,8.87-.54,15.86a142.07,142.07,0,0,1-15.5,16.6,119.32,119.32,0,0,1-15.1,10.95c-7.37-5.07-16-11.46-25.71-19l-.77-.6Zm60,.44a92.89,92.89,0,0,0-11.38-12.53c-5.7-5.08-12.5-9.4-19-13.31-5.72-11.49-10-19.53-12.77-23.89a130.39,130.39,0,0,0-11-15.11l5.62-9.19a115.59,115.59,0,0,1,51.06,71.71C392.17,305.05,391.31,305.82,390.54,306.58Zm-150.2,44.93c0-1-.06-2-.08-3.16s0-2-.07-3l-.05-3.36,0-2.75,0-3.53v-3.14c0-.8,0-1.6,0-2.39l.07-6,.46-14.77.15-2.93.06-1.44c7.92-4.56,22.94-13.16,40.32-23.1,12.56,7,26.89,15.2,42.6,24.43L323.49,353c-13.13,8.28-27.46,16.37-42.61,24L240.4,353.57Zm-3.27,8,40.78,23.59c1.89,8.43,3.13,19.55,3.69,33.07a205.87,205.87,0,0,1-20,8,142.53,142.53,0,0,1-18,4.54c-6.89-3.42-12-6.1-15.32-8-3.95-2.22-8.62-5.05-13.88-8.42a98.78,98.78,0,0,1-5.91-18.77,126.38,126.38,0,0,1-1.67-20.61C217.31,368.1,227.51,363.59,237.07,359.5Zm93.39-121a185,185,0,0,0-21.75-1.92c-.69,0-1.42,0-2.2,0-5.06,0-12.07.42-20.83,1.26a105.39,105.39,0,0,0-18.48-8.83,122.75,122.75,0,0,0-19.14-4.54,46.56,46.56,0,0,0,.79-4.73,115,115,0,0,1,32-4.59h.3a115.06,115.06,0,0,1,55.07,14ZM278,276c-19,10.86-33.06,18.91-40.71,23.33-10.19-3.84-20.45-8.15-30.51-12.8a88.19,88.19,0,0,1,1.13-17.76c1.22-6.71,3.53-13.58,6.63-21.8,7.27-4.84,12.65-8.24,16-10.09a138.44,138.44,0,0,1,12.92-6.33c8.35,1.32,15.22,2.65,21.53,4.83a95.48,95.48,0,0,1,16.54,7.85A279.63,279.63,0,0,1,278,276ZM263.7,430.6a211.8,211.8,0,0,0,22.05-8.9A196.65,196.65,0,0,0,308.07,423a215.31,215.31,0,0,0,22.54-1.71l5.67,9.47a115.13,115.13,0,0,1-54.87,14.08h-.47a114.19,114.19,0,0,1-32.29-4.65q-.43-3.1-1-5.39A139.8,139.8,0,0,0,263.7,430.6Zm79.53-21.43c4.42-5.44,9.8-15.48,16-29.83A130.7,130.7,0,0,0,376.33,367a131.18,131.18,0,0,0,13.74-14.37c.26.28.54.56.83.84.68.66,1.42,1.34,2.23,2a115.68,115.68,0,0,1-51,71.75L336.55,418C339.4,414.35,341.64,411.39,343.23,409.17Z" transform="translate(0.06 -14.44)"/><path d="M115.78,440.1a897,897,0,0,0,89.39,68.71c8.05,5.42,15.59-7.61,7.59-13a868.28,868.28,0,0,1-86.34-66.35c-7.26-6.35-18,4.25-10.64,10.63Z" transform="translate(0.06 -14.44)"/><path d="M149.33,422.89a634,634,0,0,0,62.4,48c8.05,5.42,15.59-7.6,7.6-13A601.54,601.54,0,0,1,160,412.26c-7.26-6.34-17.95,4.25-10.64,10.63Z" transform="translate(0.06 -14.44)"/><path d="M440.15,216.12a895.87,895.87,0,0,0-89.39-68.71c-8.05-5.42-15.59,7.61-7.59,13a867.12,867.12,0,0,1,86.34,66.35c7.27,6.35,17.95-4.25,10.64-10.63Z" transform="translate(0.06 -14.44)"/><path d="M406.6,233.33a632.83,632.83,0,0,0-62.4-48c-8.05-5.42-15.59,7.6-7.59,13A602.59,602.59,0,0,1,396,244c7.27,6.34,18-4.25,10.64-10.63Z" transform="translate(0.06 -14.44)"/><path d="M485.39,354.82a1.9,1.9,0,0,1,2-2.78l14.92,2.38a1.89,1.89,0,0,0,1.67-.56l10.42-10.94a1.91,1.91,0,0,1,3.26,1L520,358.86a1.91,1.91,0,0,0,1,1.42l13.62,6.53a1.9,1.9,0,0,1,0,3.41l-13.46,6.83a1.92,1.92,0,0,0-1,1.45l-2,15a1.9,1.9,0,0,1-3.23,1.09l-10.66-10.7a1.9,1.9,0,0,0-1.69-.52l-14.86,2.72a1.9,1.9,0,0,1-2-2.74l6.87-13.44a1.88,1.88,0,0,0,0-1.77Z" transform="translate(0.06 -14.44)"/><path d="M420.68,305.55a2.52,2.52,0,0,1,2.61-3.68L443,305a2.54,2.54,0,0,0,2.22-.75l13.79-14.48a2.52,2.52,0,0,1,4.31,1.35l3.1,19.75a2.52,2.52,0,0,0,1.4,1.88l18,8.65a2.51,2.51,0,0,1,.05,4.51L468.11,335a2.53,2.53,0,0,0-1.36,1.91l-2.65,19.82a2.51,2.51,0,0,1-4.27,1.44L445.71,344a2.51,2.51,0,0,0-2.24-.7l-19.66,3.6a2.52,2.52,0,0,1-2.7-3.62l9.1-17.8a2.51,2.51,0,0,0,0-2.34Z" transform="translate(0.06 -14.44)"/><path d="M416.66,400.59a3,3,0,0,1,3.07-4.32l23.16,3.7a3,3,0,0,0,2.6-.88l16.19-17a3,3,0,0,1,5.05,1.58l3.64,23.17a2.93,2.93,0,0,0,1.64,2.2l21.15,10.15a3,3,0,0,1,.06,5.29L472.3,435.12a2.94,2.94,0,0,0-1.58,2.24l-3.11,23.25a3,3,0,0,1-5,1.7L446,445.7a2.92,2.92,0,0,0-2.62-.82l-23.07,4.23a3,3,0,0,1-3.16-4.25L427.85,424a2.94,2.94,0,0,0,0-2.75Z" transform="translate(0.06 -14.44)"/><path d="M61.4,422a2.32,2.32,0,0,0-2.41-3.4l-18.21,2.91a2.29,2.29,0,0,1-2-.69L26,407.48a2.32,2.32,0,0,0-4,1.24l-2.86,18.22a2.31,2.31,0,0,1-1.29,1.73l-16.63,8a2.32,2.32,0,0,0-.05,4.16l16.45,8.35a2.32,2.32,0,0,1,1.25,1.76l2.44,18.28a2.33,2.33,0,0,0,3.95,1.33l13-13.06a2.31,2.31,0,0,1,2.06-.64l18.14,3.32A2.32,2.32,0,0,0,61,456.81l-8.4-16.42a2.3,2.3,0,0,1,0-2.16Z" transform="translate(0.06 -14.44)"/><path d="M119,489.57a3,3,0,0,0-3.06-4.32L92.78,489a3,3,0,0,1-2.61-.88L74,471.09a3,3,0,0,0-5,1.58L65.3,495.84a3,3,0,0,1-1.64,2.21L42.51,508.19a3,3,0,0,0-.06,5.29L63.36,524.1A3,3,0,0,1,65,526.34l3.11,23.26a3,3,0,0,0,5,1.69l16.56-16.61a2.94,2.94,0,0,1,2.62-.82l23.08,4.23a3,3,0,0,0,3.16-4.25L107.82,513a3,3,0,0,1,0-2.74Z" transform="translate(0.06 -14.44)"/><path d="M283.4,543.38l-10.07,8.78H245.38l-9.9-8.78v-66.5L245.54,468h17.3l5,4.39V468H283.4v22.33H267.87v-6.8H251.06v53.06h16.81V517.89h-10.6V502.31H283.4Z" transform="translate(0.06 -14.44)"/><path d="M346.3,543.38l-10,8.78H307.38l-9.91-8.78v-66.5l9.91-8.84h28.91l10,8.84Zm-15.58-6.75V483.57H313v53.06Z" transform="translate(0.06 -14.44)"/><path d="M393.52,552.16V536.63h4.39l-1.34-6.8H381.69l-1.34,6.8h4.5v15.53H360.38V536.63h4.12L378.21,468h21.84l13.71,68.59H418v15.53Zm-8.67-37.86h8.62l-4.34-21.57Z" transform="translate(0.06 -14.44)"/><path d="M432.07,552.16V536.63h4.44V483.57h-4.44V468h24.47v15.53h-4.45v53.06h11.84v-6.8h15.58v22.33Z" transform="translate(0.06 -14.44)"/><path d="M540.32,543.38l-9.9,8.78H503.59l-10-8.78V529.83h15.53v6.8H524.8V517.89H503.59l-10-8.83V476.88l10-8.84h16.23l5,4.39V468h15.52v22.33H524.8v-6.8H509.11v18.74h21.31l9.9,8.84Z" transform="translate(0.06 -14.44)"/><path d="M54.42,161.05a15.22,15.22,0,0,1-4,1.57,5.71,5.71,0,0,1-5.25-1.41C42.53,159,38.48,154.72,33,148.8s-11.17-12.27-17.13-19.07S5,117,1,111.89l-.21-.36a5.87,5.87,0,0,1,.13-6.3,12.77,12.77,0,0,1,4-4.3A26.54,26.54,0,0,1,8,99.35a4.88,4.88,0,0,1,5.14,1c2.05,1.63,6.82,7.05,14,15.86,4.05,5,7.73,9.43,11,13.36S43.46,135.29,44,135q.59-.34-.29-4.79T41.6,120c-1-4.66-1.84-8.74-2.25-12a8.93,8.93,0,0,1,2.06-6.93,11.38,11.38,0,0,1,3.24-2.74A15.44,15.44,0,0,1,48.56,97a6.8,6.8,0,0,1,5.65,1.65c2.79,2.16,7.28,6.85,13.28,13.79,2,2.36,3.73,4.31,5.1,5.85s2.18,2.23,2.44,2.09c.45-1-1.25-10.32-4.7-27.92-1.82-9.29-3.08-16.63-3.78-21.93a4.59,4.59,0,0,1,2.82-4.79,5.25,5.25,0,0,1,3-.42,3,3,0,0,1,2.5,2c.09.23,2.42,11.66,7.64,34.05,4.22,18.1,6.74,29.14,6.9,33a10.06,10.06,0,0,1-5.68,9.94c-3.87,2-7.63,1.89-10.53-.55-2.12-1.79-4.78-5.12-8-9.17-2.24-2.87-4.4-5.35-6.36-7.43s-3.37-3-4.22-2.62C53.29,125.78,54,132.34,57,144c1,3.75,1.74,6.74,2,8.75a7.58,7.58,0,0,1-2,6.08A11.79,11.79,0,0,1,54.42,161.05Z" transform="translate(0.06 -14.44)"/><path d="M118.79,128.3a15.31,15.31,0,0,1-3.69.87c-1.58.22-3.1-.74-4.17-2.77-1.92-3.65-5.88-14-12.08-30.4-5.6-14.79-10.27-26.54-12.43-34.37-.8-2.89,1.45-5.75,6.46-7.83a20.2,20.2,0,0,1,5.79-1.29c2.32-.21,4,.72,4.65,2.57,1.45,4.14,2.8,9.1,4.45,13.92,2.19,6.22,3.28,9.33,5.46,15.56.34.77,2.32.43,6-1a24.71,24.71,0,0,0,5-2.48c1.17-.77,1.75-1.52,1.63-2.16-.33-1.89-1.38-5.47-2.9-10.56-2.37-8-4.16-13.93-4.82-17.53-.46-2.54.65-4.85,3.08-6.52a14.44,14.44,0,0,1,3.43-1.75,15.71,15.71,0,0,1,5.35-.65,4.67,4.67,0,0,1,4.51,3.5c1.27,3.9,2.95,10.78,5.38,20s4.81,18.12,7.13,26.87,4,14.69,4.68,17.57a5.39,5.39,0,0,1-1.85,5.55,10.77,10.77,0,0,1-3.41,1.93A17,17,0,0,1,143,118,3.59,3.59,0,0,1,139.4,116c-1.66-3-3.26-7.86-5.09-13.46-1.07-3.25-2.12-6.12-3.06-8.57s-1.77-3.9-2.36-4.1c-.85-.28-2.84.19-5.63,1.24-4.45,1.68-6.78,3.34-6.71,4.51.15,2.12,1.34,5.76,2.92,10.34.17.48.25.72.41,1.19a114.37,114.37,0,0,1,4.24,14.07c.33,1.7-.48,3.51-2.19,5.08A11.22,11.22,0,0,1,118.79,128.3Z" transform="translate(0.06 -14.44)"/><path d="M206.68,102.26c-3.81.74-6.27-.1-7.39-2.57-2.62-7.86-4.63-12.19-5.95-13-.81-.26-2.4-.13-4.77.41a62.61,62.61,0,0,0-9.79,3.15c-2.8,1.15-4.46,2.13-4.93,2.91,0,.16-.29,1.89-.58,5.08-.38,4.11-.57,7.29-1,9a3.05,3.05,0,0,1-1.71,2.42l-1.33.46a6.3,6.3,0,0,1-4.13-.19,4.17,4.17,0,0,1-2.4-3c-.07-.35-.1-.53-.17-.88a178.71,178.71,0,0,1,.23-21.88q.84-14.39,3-29.05a134.23,134.23,0,0,1,5.17-23,8.16,8.16,0,0,1,3.65-4.4,17,17,0,0,1,3.73-1.5,11,11,0,0,1,3.92-.15,7.43,7.43,0,0,1,5.44,3.29c7.34,13.33,12.36,28.23,17.53,42.52,5.52,15.28,8.06,23.5,8.16,24.16.28,1.86-.54,3.4-2.43,4.58A12.75,12.75,0,0,1,206.68,102.26ZM182.32,80.7a43,43,0,0,0,5-1.48,6.6,6.6,0,0,0,2.7-1.48,3.2,3.2,0,0,0-.05-1.72,93,93,0,0,0-4.24-12.94c-3.33-8.69-5.52-13.1-6.45-13.25-.71.35-1.85,5.34-3.22,14.91-1.28,9-1.63,14.4-1.2,16.33.21.93,2.4.85,6.59-.16Z" transform="translate(0.06 -14.44)"/><path d="M236.31,96.64a8.25,8.25,0,0,1-3.08-.2,5.22,5.22,0,0,1-3.94-4.29c-1.73-8-3.32-21.12-5.41-38.29-1-8.38-1.54-12.57-2.56-21-1.26.21-3,.55-5.08,1.05-2.46.58-5,1.21-7.4,1.59-2.56.41-4.31-1.65-5-6a13.78,13.78,0,0,1-.13-2.88c.18-2.21,1.11-3.75,2.61-4.2,6-1.83,14.14-2.92,23-4s15.7-1.57,19.72-1.27c2.53.19,4.07,2.3,4.3,5.9a9.3,9.3,0,0,1-.28,2.84A4,4,0,0,1,250,29.34c-1.18.22-2.7.33-4.39.48s-3.3.29-4.92.41l-3.19.22-1.21.18q2.16,18.3,3.81,35.89c1.14,12,1.91,20.31,1.91,24.55C242,94.25,240,96.19,236.31,96.64Z" transform="translate(0.06 -14.44)"/><path d="M270.24,34.72c-1.49.06-2.5-.32-3-1.14a2.25,2.25,0,0,1-.45-1.26,133.34,133.34,0,0,1-1.63-13.26,4.11,4.11,0,0,1,2.74-3.85,9,9,0,0,1,3.24-.76q3.75-.13,5.28,2.12a6.21,6.21,0,0,1,.73,3.27,33.89,33.89,0,0,1-.5,5.85A27.74,27.74,0,0,1,275,32.06a4.62,4.62,0,0,1-2.35,2A6.52,6.52,0,0,1,270.24,34.72Z" transform="translate(0.06 -14.44)"/><path d="M310.71,94.08c-6.34-.3-11.45-2.45-15.46-6.57-3.1-3.18-5.07-6.37-5.86-9.59a12.22,12.22,0,0,1-.16-2A7.89,7.89,0,0,1,290.88,71c1.43-1.91,2.77-3.08,4-3.42a10.83,10.83,0,0,1,2.55-.5A2.72,2.72,0,0,1,300,68.85c.32.82,1.16,2.89,2.62,5.91,2.48,5.16,5.29,7.81,8.55,8a5.64,5.64,0,0,0,4.24-1.32,5.74,5.74,0,0,0,1.89-3,15.6,15.6,0,0,0,.36-2.37,9.52,9.52,0,0,0-.48-3.17,18.76,18.76,0,0,0-4.71-7.58A62.62,62.62,0,0,0,305,59c-2.52-1.82-5-3.73-7.31-5.75a28.68,28.68,0,0,1-5.84-6.91,19.23,19.23,0,0,1-2.49-9.93A20.56,20.56,0,0,1,292,26.56a21.88,21.88,0,0,1,20.78-11.35c8.31.38,14.36,3.09,18,7.8a17.29,17.29,0,0,1,3.87,12.53c-.38,3.36-1.7,5.6-3.48,6.3a10.75,10.75,0,0,1-4.65.9,9.61,9.61,0,0,1-2.46-.55c-2-.79-3.06-1.93-3.06-3.46l.15-1.69q.11-6.16-2.51-9.72a6.73,6.73,0,0,0-5.38-2.52,6.39,6.39,0,0,0-6.22,3.36A14,14,0,0,0,305,34.94c-.06,4,1.71,7.78,5.12,11.18a82.62,82.62,0,0,0,7.41,6.43,74.09,74.09,0,0,1,6.87,6.12,27,27,0,0,1,5.21,7.41,20.41,20.41,0,0,1,1.71,10.49,19.79,19.79,0,0,1-2.89,8.9,18,18,0,0,1-7,6.5A20.23,20.23,0,0,1,310.71,94.08Z" transform="translate(0.06 -14.44)"/><path d="M394.39,106.18c-2.49-.61-5.4-1.42-8.73-2.41s-5.33-2.25-6-3.83c.17-14,3-27.94,5.28-41.65,2.13-12.62,3.78-22.59,5.46-28.54.87-3.09,4.1-4.31,9.05-3.22a19.51,19.51,0,0,1,5.61,2.38,5.28,5.28,0,0,1,2.77,5.35c-.09.59-.14.88-.24,1.46q-.93,4.52-4,17.46c-1.65,7.13-2.47,10.7-4.11,17.83q-2.12,9.33-3.72,17.22c-.7,3.42-1.06,5.56-.95,6.24s1.65,1.31,4.46,2c2,.5,4.77,1,8.32,1.67,2.09.37,3.82.7,5,1s2,1.48,2.19,3.14a8.19,8.19,0,0,1-.18,2.92,11.72,11.72,0,0,1-1.09,2.54,3.18,3.18,0,0,1-3.25,1.49c-1.82-.12-5.14-.82-9.79-1.77Q397.36,106.91,394.39,106.18Z" transform="translate(0.06 -14.44)"/><path d="M431.94,117.18a39.66,39.66,0,0,1-6.3-2.52,2.44,2.44,0,0,1-1.2-2,7.08,7.08,0,0,1,.18-2.37c.47-1.64,1.4-2.55,2.61-2.55a14.49,14.49,0,0,1,4.35.81q3-11.4,8.85-32.16,4.69-16.59,8.53-27.26a9.08,9.08,0,0,0-.95-.37c-1.47-.48-3.06-.83-4.4-1.26s-1.78-1.82-1.24-3.83a7.21,7.21,0,0,1,1.2-2.38,3.23,3.23,0,0,1,3.1-1.5c3.16.52,8.34,2.21,15.08,4.61,5,1.77,8.06,3,9,3.62,1.26.87,1.64,2.65.93,4.57s-1.76,2.87-2.84,2.69c-.48-.07-1.66-.37-3.55-.88q-.74,3.1-2.77,9.52T457.11,80q-8.42,24.6-11.54,33a19.59,19.59,0,0,1,4.11,2c1,.67,1.23,2.07.63,3.9-.75,2.27-2,3.28-3.56,2.92C443.11,121,438.09,119.26,431.94,117.18Z" transform="translate(0.06 -14.44)"/><path d="M466.06,129.87a17.27,17.27,0,0,1-3.74-2.41c-1.45-1.16-1.92-3.33-1.16-6.08,1.11-4,3.82-11.39,7.45-21.76,4.92-14,9.81-28.84,17.16-41.73,1.7-1.91,8.41-.53,19.92,4.79a103.61,103.61,0,0,1,13.14,6.94,4.17,4.17,0,0,1,1.77,4.1,7.17,7.17,0,0,1-.6,2.45c-1.26,2.92-3.15,4-5.38,3.16-1-.39-2.46-1.06-4.18-1.88-7.78-3.69-12.82-5.4-14.9-5.1-.83.28-1.76,1.3-2.77,3.07a53.06,53.06,0,0,0-3.41,7.44c-1.77,4.64-2.61,7.53-2.34,8.25s1.31,1.33,3,2.08,3.91,1.62,6.37,2.55a46.77,46.77,0,0,1,4.39,1.79,4.19,4.19,0,0,1,2.13,3.89,7.12,7.12,0,0,1-.54,2.89,10.63,10.63,0,0,1-1.5,2.3q-1.11,1.38-3.86.61c-.94-.41-2-.88-3.1-1.42l-2.41-1.14-3-1.5c-.45-.21-1.11-.48-2-.82a2.4,2.4,0,0,0-1.94-.16,7.28,7.28,0,0,0-.67,1.43c-.48,1.24-1.12,3.22-1.85,5.89-1.55,5.62-3,10.37-4.47,14.09a34.64,34.64,0,0,1-2.61,5.67c-.78,1.25-2.61,1.78-5.1,1.57A12.59,12.59,0,0,1,466.06,129.87Z" transform="translate(0.06 -14.44)"/><path d="M515.68,155.5c-2-1.18-4.39-2.65-7.13-4.4s-4.31-3.59-4.2-5c.19-2.37,2.78-8.88,6.74-18.68q7.41-18.3,14.46-33.67c3.34-7.26,5.77-12.36,7.35-14.08s8.51.32,19.39,6.72a97.12,97.12,0,0,1,11.77,7.84c2.8,2.29,3.51,4.82,2.14,7.31a6.13,6.13,0,0,1-2.54,2.45,4.17,4.17,0,0,1-4.47,0l-.2-.13a56.19,56.19,0,0,0-5.17-3.48c-4.45-2.7-7.45-4-9-4-.65.11-1.55,1.06-2.69,2.87s-2.68,4.62-4.58,8.46a58.38,58.38,0,0,0-3.66,8.12c-.16.62.48,1.53,1.8,2.43,1,.68,2.14,1.38,3.38,2.13s1.86,1.07,3.09,1.8q1.31.8,2.31,1.53c2.05,1.66,2.51,3.53,1.41,5.58a6.23,6.23,0,0,1-2.25,2.15,3.85,3.85,0,0,1-3.79,0l-3.61-2.19q-2.17-1.31-4.1-2.35a5.84,5.84,0,0,0-2.78-1c-.46.08-1.47,1.68-2.92,4.58-.63,1.27-1.4,2.88-2.27,4.82-2.35,5.18-3.85,8.76-4,10.27-.08.75,1,1.84,3,3,1.42.85,3.1,1.75,5,2.73a50.42,50.42,0,0,1,5.44,3.07c1.8,1.2,2.07,3.15.76,5.52a8.36,8.36,0,0,1-2,2.27,2.93,2.93,0,0,1-3.22.46c-1.43-.61-4.17-2.09-8.14-4.21Q518.34,157.06,515.68,155.5Z" transform="translate(0.06 -14.44)"/><path d="M117.54,275.5a7,7,0,0,0,.1-5.79,8.46,8.46,0,0,0-3.6-4.52,5.21,5.21,0,0,0-4-.63,4.7,4.7,0,0,0-3.15,2.72,8,8,0,0,0,3.47,10.11,6,6,0,0,0,4.15.66A4.28,4.28,0,0,0,117.54,275.5Z" transform="translate(0.06 -14.44)"/><path d="M325.85,151a3,3,0,0,0-2,0c-.65.31-1.24,1.36-1.77,3.11a118.09,118.09,0,0,1-5.76,15.69,32.85,32.85,0,0,1-4.25,6.81c-1.45,1.75-2.69,2.71-3.78,2.86-1.3.19-2.54-.91-3.56-3.22a103.45,103.45,0,0,1-4.81-15.68,247.55,247.55,0,0,1-5-26.38c-1.2-8.89-1.58-13.81-1.4-14.67.06-.29,1.31-.48,3.77-.53a16.15,16.15,0,0,1,5.15.47,4,4,0,0,0,2.68-.15c.84-.37,1.19-.9,1.06-1.63a2.29,2.29,0,0,0-1.39-1.65,10.5,10.5,0,0,0-3.68-.7c-1.66-.08-2.91-.1-3.76-.09s-2.18.1-4,.27q-.51-4.78-.54-4.92a2.23,2.23,0,0,0-1.74-1.91,13.77,13.77,0,0,0-4.5.21c-2.85.46-4.75,1.18-5.71,2.11-.52.56-.73,2.24-.63,5,.12,1,.18,1.48.29,2.47a44.25,44.25,0,0,0-4.66,1.57c-2.59,1-4.33,1.69-5.25,2.09-1.19.37-1.65,1-1.36,1.89s1.15,1.14,2.6.81c.36-.09,1.55-.51,3.6-1.23a37.08,37.08,0,0,1,4.19-1.3c.74-.15,1.13-.13,1.18,0,.1.36.26,1.49.48,3.42s.53,4.24.93,6.93.79,4.93,1.19,6.73c.33,2,1.33,5.84,3,11.52.7,2.4,1.41,4.6,2.14,6.72,0,0,0,0,0,0-1.27,9.53-2.58,16.55-4.55,20.77-1,1.86-1.76,2.89-2.43,3.07-.86.23-2.15-2.05-3.86-6.86a95.23,95.23,0,0,1-4.28-17.4c-.55-2.95-.81-4.43-1.33-7.4a3.38,3.38,0,0,0-1.75-2.19,5.27,5.27,0,0,0-3.31.12,12.09,12.09,0,0,0-4.95,2.32,2,2,0,0,1-.44.28c-.45.42-.56,2.36-.27,5.77.84,10,1.05,18.11.55,24.1-.39,4.72-1.35,7.84-3.15,9.26a2.6,2.6,0,0,1-.89.5c-1.36.55-2.56-.26-3.62-2.45-1.38-2.86-2.78-7.62-4.08-14.21-1.44-7.29-2.26-11.33-2.54-11.92-.5-1.1-1.95-1.21-4.3-.25s-3.81,1.89-4.42,2.76-.74,2.36-.39,4.46a40.61,40.61,0,0,0,1.13,4.86,7.93,7.93,0,0,1-1.63,3,20.1,20.1,0,0,1-6.4,4.75,14.72,14.72,0,0,1-2.63,1.05c-.23-.52-.34-.78-.57-1.29-.48-1-1-2-1.49-2.87a21.3,21.3,0,0,0-6.8-7.46,11.8,11.8,0,0,0-8.34-1.92,12.92,12.92,0,0,0-4.72,1.61,9.22,9.22,0,0,0-4.43,5.53,7,7,0,0,0,.92,6.12c1.88,2.71,4.87,4.36,8.91,5.12a33,33,0,0,0,11.89.08,3.9,3.9,0,0,1,1.58-.08c.49.8.79,2.74,1,5.72a23,23,0,0,1-.81,8.8,11.42,11.42,0,0,1-3.58,5.71c-.67.54-1.21.79-1.61.71-.75-.07-2-1-3.64-2.67a43.66,43.66,0,0,1-3.92-5,79.67,79.67,0,0,1-7.87-13.58,34.23,34.23,0,0,0-1.73-3.6c-.7-1-2.31-.7-4.77,1s-3.83,3.07-4.13,4.1c-.22,1.47,1,4.18,3.69,8.07,0,.46.11.95.21,1.5a93.1,93.1,0,0,1,1.53,17.2,53.46,53.46,0,0,1-.52,7c-.34,2.26-.73,3.6-1.23,4-.14.13-.55-.19-1.25-1-2.13-2.39-6.21-8.52-11.78-18.62a41.52,41.52,0,0,0-4.15-6.5,9,9,0,0,0-6.92-3.49c-2.65,0-5.32,1.17-7.93,3.59a11.94,11.94,0,0,0-2.77,3.59c-1.25,2.67-.69,8.1,1.91,15.94a89.67,89.67,0,0,0,7.13,16.25l1.07,1.78L172,236a45.46,45.46,0,0,1-3.75-3.22c-13.56-13.35-28.73-30.35-29.6-50.8a45.17,45.17,0,0,1,1.49-13.42,38.06,38.06,0,0,1,5-11.66,26.92,26.92,0,0,1,5.2-5.88c4.26-3.39,8.07-2.94,11.25,1.15,2.37,3.06,3.53,7.76,3.66,13.92.14,6.47-1.15,13.62-3.43,21.46a92.53,92.53,0,0,1-8.42,20.56,13.38,13.38,0,0,0-1.52,2.85,1.31,1.31,0,0,0,.54,1.09,1.26,1.26,0,0,0,1.06.31,2,2,0,0,0,1.22-.68,31.84,31.84,0,0,0,3.47-5.35c1.51-2.66,2.8-5.07,3.85-7.23a100.63,100.63,0,0,0,6.45-22c1.49-8.12,1.68-15.1.26-20.87a19.84,19.84,0,0,0-3.08-7.19c-4.87-6.48-12.42-6.29-21.86,1.45a40,40,0,0,0-4.7,4.5c-10.79,12.31-14.13,27-10.09,42.05,3.59,13.37,12.69,25.45,26.06,36.8,1.16,1,2.28,1.9,3.37,2.78l.08.15a141.75,141.75,0,0,1,7.35,16,39.35,39.35,0,0,1,2.07,8.14c.3,2.33.17,3.91-.42,4.76-.69,1-2.25,1-4.52-.12a110.85,110.85,0,0,1-14-9c-6.88-4.93-14.15-10.61-21.6-17.16-7-6.12-10.64-9.69-11.12-10.49-.16-.26.51-1.25,2-2.93a12.59,12.59,0,0,1,3.6-3.08,3.36,3.36,0,0,0,1.59-1.92,1.64,1.64,0,0,0-.47-2,2.11,2.11,0,0,0-2-.36,8.17,8.17,0,0,0-2.82,1.91c-1.11,1-1.92,1.87-2.45,2.45s-1.32,1.54-2.35,2.87q-3.66-3.37-3.78-3.47a2,2,0,0,0-2.44-.31,11.6,11.6,0,0,0-2.73,3.18c-1.51,2.28-2.23,4.13-2.2,5.5.06.78,1.08,2.24,3.09,4.34l1.91,1.73a45,45,0,0,0-1.92,4.39c-1,2.51-1.64,4.25-2,5.2-.51,1.1-.37,1.9.43,2.39s1.54.12,2.25-1.13c.18-.31.66-1.46,1.48-3.41a37.34,37.34,0,0,1,1.81-3.86c.38-.61.65-.86.8-.76.31.21,1.21,1,2.69,2.35s3.29,2.94,5.41,4.78,4,3.31,5.46,4.44c1.6,1.33,4.92,3.66,9.93,7,1.8,1.19,3.52,2.27,5.19,3.29.24.43.51.9.83,1.45A77.39,77.39,0,0,1,147.61,280a28.56,28.56,0,0,1,1.48,7.2,6.09,6.09,0,0,1-.32,2.84c-.55,1.14-2.13,1-4.76-.45a56.11,56.11,0,0,1-10.24-8.11c-5.37-5.07-8.41-8.06-9.22-8.52-1.14-.66-2.31.19-3.46,2.56s-1.54,4-1.35,5.18,1.17,2.55,2.87,4.18c.78.74,1.6,1.47,2.46,2.18a20.34,20.34,0,0,1,2,11.43,13.35,13.35,0,0,1-.86,3.42c-.93,2.46-1.61,3.6-2.13,3.38a15.49,15.49,0,0,1-1.95-1.55,55.26,55.26,0,0,0-12.67-8.33A13.55,13.55,0,0,0,103,294a3.69,3.69,0,0,0-3.55,2.52,10.31,10.31,0,0,0-.48,2.27c.06,2.43,1.23,4.79,3.47,7a23.55,23.55,0,0,0,8.32,5.27c4.84,1.89,9,1.91,12.44.25a1.34,1.34,0,0,1,1.48-.08,84.3,84.3,0,0,1,6.31,6.24,50.36,50.36,0,0,1,8.36,10.87,4.75,4.75,0,0,1,.82,2.79c-.18.66-2.75.13-7.73-1.59a106.26,106.26,0,0,1-15.22-6.29c-3.88-2.09-6.11-3.37-6.64-3.55-1.22-.44-2.41,1.39-3.41,5.54a7.32,7.32,0,0,0-.27,3.27,6.54,6.54,0,0,0,2.17,2.61c2.66,2.23,7,6.28,12.92,11.81s8.9,9,8.63,10.82c-.18,1.22-1.67,1.77-4.46,1.67a44.2,44.2,0,0,1-8.08-1,51.78,51.78,0,0,1-15.49-5.93,12.28,12.28,0,0,0-2.38-1.26.82.82,0,0,0-1,.49,10.73,10.73,0,0,0-1.79,5.16,6.56,6.56,0,0,0,.45,3.95,8,8,0,0,0,2.69,2.57,36.15,36.15,0,0,0,13.22,5c7.55,1.34,13.19.1,17.08-3.38a8.36,8.36,0,0,0,3.29-5.21,9.22,9.22,0,0,0-.2-3.3c-.66-2.95-3.86-7-9.5-12.43-1.79-1.71-2.81-2.74-3-3l2.18.32c6.6,1.65,11.75,1.61,15.39,0q3.79-1.68,4.6-4.75a8.47,8.47,0,0,0-.47-5.09,42.94,42.94,0,0,0-3.85-6.48,94.53,94.53,0,0,0-10.8-11.63l-1.2-1.2c.3-.54.46-.82.77-1.36a18.09,18.09,0,0,0,1.38-3,24.42,24.42,0,0,0,1.22-11.32c-.07-.59-.18-1.13-.28-1.69,1.61,1,3.28,2,5.08,2.91a27.8,27.8,0,0,0,6.66,2.55c4.44.92,7.55-.52,9.44-4.41q2.32-4.8-.36-13a101.34,101.34,0,0,0-5.52-13.56c6.11,3.21,11.2,5,15.13,5.61,4.58.68,7.72-.06,9.4-2.52a8.7,8.7,0,0,0,1.34-2.66c1.26-5-1-12.85-6.11-24,2.14,1.55,4.38,3.11,6.79,4.66,3,1.93,4.71,2.92,5.18,2.95.88.13,1.94-.56,3.24-2.06,1.91-2.21,2.35-3.79,1.24-4.82-1.59-1.47-3.84-5-6.59-10.6a110.11,110.11,0,0,1-6.51-16.28,44.17,44.17,0,0,1-1.79-7.68,5.41,5.41,0,0,1,.79-3.79,2,2,0,0,1,.78-.73.79.79,0,0,1,.84.18c.3.24.55.43.75.56a7.88,7.88,0,0,1,1,.93A116.86,116.86,0,0,1,179,215.77a84.62,84.62,0,0,0,8.48,10.48c3,3.15,5.63,4.73,7.9,4.81a6.21,6.21,0,0,0,5-1.45,7.58,7.58,0,0,0,1.84-2.37q1.69-3.54,1.93-10.31a98.39,98.39,0,0,0-.46-13.44c0-.28-.05-.54-.08-.81a36.35,36.35,0,0,0,8.5,7.36c3.65,2.2,6.8,3,9.54,2.25a7.87,7.87,0,0,0,1.94-.94,14.92,14.92,0,0,0,4.45-4.81,20.81,20.81,0,0,0,2.72-8.62,34.64,34.64,0,0,0-.42-10.53c-.13-.69-.19-1-.32-1.74a17.47,17.47,0,0,0,3.14-1.32,25.42,25.42,0,0,0,8.23-6.08c.65,1.59,1.37,3.19,2.2,4.79,3.68,7.06,7.92,10.54,12.67,10.67a6.12,6.12,0,0,0,3.1-.52,8.77,8.77,0,0,0,3.49-2.41c2.35-2.74,3.41-8.68,3.64-17.84,0-.94,0-1.41.06-2.36l1,2.47c2.25,4.83,4.48,8.27,6.64,10.31,2.48,2.34,5,3.13,7.63,2.41s4.62-3,6.17-6.73a72.65,72.65,0,0,0,3.63-13.39A48.92,48.92,0,0,0,299,178.28c3.19,3.63,6.25,5.33,9.38,4.87a10,10,0,0,0,3-.83c5.52-2.88,10.16-12,15-26.87a10.83,10.83,0,0,0,.75-3.31A1.93,1.93,0,0,0,325.85,151ZM119.38,307a4,4,0,0,1,.88.89c-.43.4-1.72.54-3.78.36a14.12,14.12,0,0,1-4-1.11c-3.78-1.54-6.53-3.45-8.2-5.75a5.23,5.23,0,0,1-1.11-1.68c-.31-.69-.4-1.07-.27-1.15a4.18,4.18,0,0,1,2.08.15,15.48,15.48,0,0,1,2.87.86A47.12,47.12,0,0,1,119.38,307ZM224.64,183.28a12.7,12.7,0,0,1-3.08.35c-1.78.09-3.13.14-4,.11-5.05-.3-8.48-1.62-10.21-4.2a3.94,3.94,0,0,1-.55-3.48,4.86,4.86,0,0,1,2.27-2.85,6.91,6.91,0,0,1,2.94-.91c4.12-.41,7.93,2.27,11.38,8Q225,183.06,224.64,183.28Z" transform="translate(0.06 -14.44)"/></svg>