<svg id="katman_1" data-name="katman 1" xmlns="http://www.w3.org/2000/svg" viewBox="0 0 566.93 525.06"><path d="M283.72,21H283A260.64,260.64,0,0,0,117,80.65c2.84,1.09,5.66,2.07,7.08,2.43.11,0,12.82,3.42,16.94,6.21,1.25.86,7.63,5.27,9.39,7.36a7.79,7.79,0,0,0,.67.53c10.22-6.66,18.11-11.54,23.51-14.52A293.57,293.57,0,0,1,202.44,69c18,2.84,32.82,5.71,46.45,10.42,1.7.59,3.4,1.2,5,1.84.17-.39.36-.78.56-1.14a6.76,6.76,0,0,1,.25-.92,11.1,11.1,0,0,1,.95-2.32,11.87,11.87,0,0,1,.94-4.45c1-2.09,1.73-3.68,2.34-4.91-1.72-.69-3.51-1.33-5.29-2-14-4.85-29.28-7.8-41.29-9.8a103.32,103.32,0,0,0,1.7-10.23,248.56,248.56,0,0,1,69-9.89h.64A248,248,0,0,1,402.52,65.92L390.18,86.09c-20.29-2.71-36.08-4.1-46.92-4.15-.5,0-1,0-1.56,0l.86,2.62-.75.41v.17a7.86,7.86,0,0,1-.64,3.29c0,.31-.06.64-.06,1-.14,2-.33,5.35-2.92,7.95-.42.41-.78.72-1.09,1a7,7,0,0,1-1,1.87,11.1,11.1,0,0,1,.28,1.5c.42,3.79-1.87,7.91-2.87,9.53a2.32,2.32,0,0,1-.22.36,28.75,28.75,0,0,0,.47,5.18c.14.59.34,1.23.5,1.79.76,2.45,1.67,5.46,0,8.52a9.75,9.75,0,0,1-4.74,5.32,15.43,15.43,0,0,1-6.13,1.79,2.75,2.75,0,0,1-.41,0c-.11.14-.25.31-.37.48l-.44.61a17.93,17.93,0,0,1-4.46,4.71.07.07,0,0,0-.05,0,9.23,9.23,0,0,1-3.26,4.71c-.39.39-1.15,1.25-2,2.17-.67.75-1.26,1.39-1.79,2,4.29,3.79,7,6.27,8.42,8.58,1.59,2.62,3,7.08,4.87,13.1.59,1.92,1.12,3.65,1.54,4.82,1.39,3.87,4.71,9.94,5.9,11.17l1.06.95c2,1.81,5.66,5.15,8,6,4.43,1.48,14.15,5.07,17.16,6.21,4.12,1.59,9.67,4.29,10.14,9.75.31,3.43-2.37,11.15-3.59,13.38-.37.64-.89,1.45-1.54,2.37,4.3,2.48,8.64,5,13,7.6l0,4.35c4.21,2.9,9.08,6.27,10.7,7.33l1.42.94c.89.59,1.7,1.15,2.51,1.68l.08-14.94c20.9-16.16,40.37-30,57.9-41.26,12.79,7.72,26.08,16.21,37.19,26.13,10.9,9.75,19.51,20.62,27.17,30.93,1,14.85,1.47,26.44,1.45,34.49,0,7.64-.34,19.14-1.17,34.22-10.59,12.76-21.15,25.07-33.44,35.83a262.37,262.37,0,0,1-32.57,23.62c-15.91-10.95-34.55-24.74-55.47-41l-1.67-1.28.27-46.81c-3.7-1.61-7.16-3.17-8.44-3.9-.78-.42-3.2-1.5-6.18-2.79l-.31,52.83c-4.15,2.62-8.33,5.24-12.59,7.83,2.56,1.73,4.93,3.29,6,3.82l2.73,1.36c4.57,2.34,12.23,6.22,16,7.66,5.65,2.15,17.41,6.61,25.41,17.72a47.56,47.56,0,0,1,6.94,13.66c.75,2.14,1.11,3.15,1.92,4.06a87.56,87.56,0,0,0,11.59,10.34c.92.7,2.56,2.12,5.68,4.79l5.07,4.32Q448,400,452.25,390a278.83,278.83,0,0,0,36.89-26.55c11.31-9.86,20.93-20.67,29.65-31,.58.58,1.17,1.2,1.81,1.81,1.45,1.42,3.06,2.9,4.79,4.37a247.66,247.66,0,0,1-46.14,96.94c3.12,2.47,5.94,4.7,7.94,6.32.45.36,1.39,1.17,2.68,2.28.25.23.5.45.75.65a261,261,0,0,0,55.61-162.08C545.84,138.41,428.1,21,283.72,21ZM519.79,233.06a197.51,197.51,0,0,0-24.55-27c-12.28-11-26.94-20.28-41-28.72-12.37-24.8-21.65-42.13-27.58-51.55a282.69,282.69,0,0,0-23.63-32.6l12.12-19.83A249.3,249.3,0,0,1,525.33,228.07C523.33,229.74,521.46,231.41,519.79,233.06ZM415.36,493.51l-12-20.11c5-6.44,9.22-11.9,12.45-16.3-2.9-1.7-5.88-3.49-7.8-4.71-4.74-3.07-17.05-16.11-19.81-20.56l-.92-1.45c-2-3.29-8.19-13.32-10.25-15.55s-9.92-7.3-14-7.91c-2.37-.36-6.13-.56-10.09-.76a139.83,139.83,0,0,1-15-1.28c-6.74-1.17-23.65-4.62-27.75-5.85-1-.3-1.89-.61-2.65-.89a23.27,23.27,0,0,1-5,3c-.25.08-.5.22-.7.3a10.67,10.67,0,0,1-11.36-.5c-1.37-.83-2.51-1.59-3.35-2.11-.11-.09-.22-.14-.33-.23a78.58,78.58,0,0,0-10.28-2c-1.12-.09-2.18-.23-3.18-.39l3.29,1.89c4.09,18.19,6.77,42.18,8,71.36a447.63,447.63,0,0,1-43.11,17.21,310.28,310.28,0,0,1-38.95,9.81c-14.85-7.38-26-13.18-33.07-17.19-3.15-1.78-6.49-3.73-10.06-5.85a.29.29,0,0,1-.17-.08q-4.84-2.92-10.25-6.27c-3-1.9-6.18-3.88-9.44-6-1.06-2.59-2.12-5.26-3.15-8.05a29,29,0,0,1-5.21-5.93c-.5-.89-3.51-5.32-4.49-6.77l-.92-1.34c-.44-.67-.89-1.53-2-3.59s-4.1-7.78-5.19-9-3.7-4.63-7.27-9.39c.31,2.14.67,4.23,1.06,6.32a210.2,210.2,0,0,0,11,36.87c-3.12.8-6.57,1.83-10.31,3.09A245.84,245.84,0,0,1,42.51,341c-.75-.5-1.47-1-2.08-1.39l-1.82-1.2A65.34,65.34,0,0,1,29,331.24l-1.08-1.11a20.64,20.64,0,0,0-3-2.73A262.54,262.54,0,0,0,283.69,546h.69a261.48,261.48,0,0,0,174.06-66.75c-4.4-2.34-9.2-4.85-13.85-7.27A247.49,247.49,0,0,1,415.36,493.51Zm-131,37.84h-1a245.84,245.84,0,0,1-69.69-10.06c-.61-4.46-1.31-8.33-2.06-11.62a307,307,0,0,0,34.55-9,456.34,456.34,0,0,0,47.56-19.22c20.9,2.09,37.11,3,48.17,2.76,10.93,0,27.28-1.23,48.62-3.68L402.74,501A248.38,248.38,0,0,1,284.36,531.35ZM201.94,214.61c-.33-.92-.7-2.31-1.11-4-4.46,2.53-8.36,4.79-11.71,6.71-22-8.27-44.13-17.55-65.81-27.58-.25-11.2-.11-24.41,2.43-38.34.78-4.32,1.78-8.66,3-13.12a8.2,8.2,0,0,1-.5-.92c-.06-.09-.11-.2-.17-.31a3,3,0,0,0-.47-.42,48.35,48.35,0,0,0-4.77-3c-1.61-.95-3.17-1.84-4.32-2.65l-.52-.36-2-1.39a189.91,189.91,0,0,0-4.68,19.5c-2.85,15.66-3,30.34-2.65,42.71-14.82,21.15-25,36.75-30.29,46.34C73,247.1,67.23,259.47,61.15,274.63L36,275A249.45,249.45,0,0,1,99.66,117.52a61.56,61.56,0,0,1-5.38-4.43c-1.14-1.12-3.26-3-5.68-5.27A260.47,260.47,0,0,0,21.17,284.19c0,.39,0,.78,0,1.17a9.1,9.1,0,0,1,2-.65c4.27-.78,10.06-1.25,12.93,2.85a45.77,45.77,0,0,1,11.43,1.92L61,289.31c1,2.45,1.95,4.82,2.93,7.13a64.33,64.33,0,0,0,7.46,1.48c1.4.22,2.54.42,3.4.61l1.56.39a5.42,5.42,0,0,0,.64.14,2.69,2.69,0,0,0,.45-.16,12,12,0,0,1,6.21-.9,26,26,0,0,1,6.91,2.15l.5.22a12.92,12.92,0,0,1,7.08,6.22l.56,1.06a15.57,15.57,0,0,1,2.25,6.65,28.87,28.87,0,0,1,0,7.42,37.37,37.37,0,0,0-.31,5.48v.67a5.6,5.6,0,0,0,.2,1.84v0l.08.25a5.48,5.48,0,0,0,.2.86c1.53,1.59,8.49,8.14,10.25,9.7.53.47,3.76,3.09,6.88,5.63,9.92,8,17.66,14.29,19.81,16.44.84.83,2.59,2.64,4.65,4.82q22-9.92,42.6-18.7c0-.5-.11-1-.16-1.39-.76-4.52-.48-16.61.44-20.23s3.76-8.83,5.13-11c.47-1.12,1.36-4.79,1.84-6.77A58.71,58.71,0,0,1,194.2,303a11.26,11.26,0,0,1,1-2.14l0-4.82c0-1.84,0-3.65,0-5.46v-1.31c0-1.73,0-3.46,0-5.18l.14-12.88,1-31.87c.08-2.09.19-4.18.31-6.3l.13-3.12c2.35-1.34,5-2.84,7.86-4.48C203.5,220.74,202.25,215.53,201.94,214.61Z" transform="translate(-0.24 -20.95)"/><path d="M566.11,454.83c-.64-.63-.59-1.75-.59-2.82a34.4,34.4,0,0,0,.27-3.94,32.6,32.6,0,0,0-1.39-9.32,17.08,17.08,0,0,0-2.5-4.15c-.69-.91-3.57-1.39-4.9-1.18s-3.19,2.83-4.85,4.85-4.2,6.18-6.39,8.73a73,73,0,0,1-8.09,7.67c-1.81,1.44-10.65,7-12.84,8.21s-10.22,2.45-12.41,2.34-7.93-1.81-11.5-3.36-16.41-13.15-18-14.43-23.33-18.69-29.19-22.21S431.52,407.06,429,405.14a94.42,94.42,0,0,1-12.67-11.34c-3.84-4.42-2.51-8.79-9.27-18.22s-17.15-13.37-22.21-15.28-15.55-7.41-19.39-9.32-17-11.46-19.49-12.84-9.06-7.94-12-9.75-15.72-8-18.17-9.05-16.45-5.54-18.32-7.4-1.76-3.84-2.29-7.78a9,9,0,0,0-2.5-5.7c-.64-.91-1.33-1.28-1.49-2.18s.42-.91.85-2,.05-1,.27-2.39a13.09,13.09,0,0,1,1.11-4c.8-1.93,1.76-3.82,1.55-5.53s-.85-2.18-.85-3.57.53-1.91.95-5.11a24.54,24.54,0,0,0,.22-4.37c.1-1.65,1.38-2.93,1.81-4.74s.64-1.65,1.33-3.19a6.75,6.75,0,0,0,.69-4,3,3,0,0,1,.7-2.55c.47-.91,1.17-10,1.59-11.14s.64-14.27.75-14.75,1.12-.85,1.6-.74a67.07,67.07,0,0,1,6.87,5.59c.85.9,11.87,10.54,14.48,13.05s11.61,8.57,14.17,10,19.76,9.53,23.33,10.76S382.25,275.45,385,277s17.31,7.72,19,8.2,11.67,2.4,13.74,2.61,13-.43,15.45-1.12a9,9,0,0,0,4.74-2.82c1.76-1.65.64-.75,2.61-1.76a19.12,19.12,0,0,0,3.57-2.18c2.34-1.6.9-2.29,1.12-4.53s2.18-6.71,2.34-8.42a6.52,6.52,0,0,0-1.06-3.94c-.64-1.28-2.88-2.18-6.56-3s-12.3-1.81-14.59.32-8.09,3.46-9.85,3.73-7-.86-12.52-2.24-17.63-9.8-20.4-11.61-16.08-11-17.73-12.3S352,227.62,352,227.62s5-6.17,6.13-8.2,2.87-8.2,2.77-9.43-2.77-2.71-5.7-3.83-12.57-4.69-16.89-6.13-9.1-6.17-11.55-8.36-6.4-10.12-7.78-13.95-3.94-13.58-5.81-16.67-12.41-11-12.57-12.41,1.66-1.49,3-2.56,5.11-5.59,6.28-6.6,1.12-1.07,1.18-2-.11-.9.26-1.81,1.6-.8,2.56-1.44,1.6-1.54,3-3.4,2.19-3,3.25-3.57,1.92,0,3,0a8.8,8.8,0,0,0,3.36-1.07c1.17-.58,1.28-1.54,1.7-2.34s-.64-3.2-1.17-5.49a32.49,32.49,0,0,1-.58-8.36c.21-1.92.69-1.6,1.22-2.45s2-3.62,1.84-5.06-.64-.8-1.36-1.84-.32-.64-.32-1.83.72-1.28,1.92-2.08.64-.48.48-1,0-.56.8-1.36,1.11-.8,2.23-1.92.72-3.59,1.12-5.52.48-.87.48-1.75a6,6,0,0,0-.72-2.71c-.56-1.28.08-1,0-1.2s-1.12-.64-1.84-1.28-.32-.48-.87-2.16.08-2.15-1.36-2.79-1-1.68-1-1.68a10.57,10.57,0,0,1-3-1.2c-1.2-.8-1.36-.64-1.36-1.2s-1-.32-1.75-1.35-.72-.4-.72-.4-3-.24-3.52-1.44c-.25-.64,0-.73.22-.71-.5-.16-1.43-.4-1.5-.89s0,0-1.83-.64-1.84-1.36-1.36-1.84-.72-.24-1.2-.48-1.28-.32-1.52-.95,1-.88,1-.88l-1.12-.56s-2-1.68-2.31-1.84-1.92-.64-1.92-1-1.2-.88-2-1.36-1.28-.88-1.44-1.36-1.75-1-2-1-2.16-.32-2.24-.56-1-.8-1-.8-5.17.58-5.65.69a14.7,14.7,0,0,1-3.72.16c-.38-.21-2.08.32-3.2.53a41.73,41.73,0,0,1-4.63.64c-.8,0-2.83,2.29-3.62,2.45a3.61,3.61,0,0,1-1.44,0s-1.92,1.49-2.24,1.65a.65.65,0,0,1-.59,0s-1,2-1.59,3.09-.59.22-.75.43-2.82,2.66-2.82,2.66-.91,1.17-1.39,2-3.62,7.51-4,8.31-.27,3.09-.48,3.68a15.23,15.23,0,0,0-1.07,2.13c-.32,1.06-.16,1.54-.64,2.07a3.8,3.8,0,0,0-.63,2.45c0,1,.32,9.11.32,11.29a38.25,38.25,0,0,1-3.73,16.84c-3.84,8.41-8.79,8.94-10.71,8.62s-9.27-2.66-12.46-3.62-27.75-2.24-30.63-2.24-17.31-.21-19.65-.58a43,43,0,0,1-7.4-2.5c-1.17-.48-4.21-2-6-2.77s-10.44-2.4-11.4-2.83-8.09-3.14-9.21-3.62a16,16,0,0,1-4.26-3.14c-.85-1-5.81-4.58-8-6.07s-11.29-4.37-14.7-5.22-12.68-4.32-16.3-6.45S90,73.38,89,72.37a18.29,18.29,0,0,1-5.6-6.93c-2-4.42-7.93-8.68-9.8-10.3A12.64,12.64,0,0,0,69.4,53,18.39,18.39,0,0,1,67.85,52a8,8,0,0,0-2.66-.64,12.47,12.47,0,0,0-2.88,0,7.09,7.09,0,0,1-2.13,0h-2a5.56,5.56,0,0,0-1.7.69,29.36,29.36,0,0,1-5,1.23c-1,0-1.44.32-1.6.58s-.85.54-1.38.86-1.76-.16-2.72,0-6.39,4.36-6.39,4.36l-.19,1.79a37,37,0,0,1,6,.48c2.24.48,8.31,2.15,8.71,2.55s.64,2.56.64,3.84,3.2,4.23,4.56,5.91,6.95,8.07,9.5,9.51,3.44.88,5,1.28,3.59,2.87,5.75,5.19,16.06,14.86,19.81,18.45,21.25,15.82,23.41,17.34,7.27,4.07,9.51,5.91,2.23,3,3,3.92,8.55,3.35,11.51,4.55,9.66,3.12,12.14,5.27,6.79,12.23,9.83,14,14.46,6.39,17.57,7.59,8.07,2.72,8.87,3.36,1.12,2.32,1.52,4.07,3.19,11.35,3.67,13.26,1.6,3.52,2.48,5.44,1.44,4,2.48,6.87,2.71,10.46,3.51,12.78,7,29,8.23,32.2,3.12,9.18,2.64,11.42-1.68,1.76-3.12,2.64A14.18,14.18,0,0,0,212.7,262c-1.28,1.52-1.36,4.24-1,7.35s1.84,2.16,2.87,5,.4,6.39.24,9.09-1.11,3.77-1.59,6.17-3.68,3.67-5.12,5.59-6.31,7.35-7.35,10.14-2.71,12.07-4.07,14.22a45,45,0,0,0-4.4,9.27c-.63,2.48-1,13.5-.31,17.34a68.64,68.64,0,0,1,.55,11.82c-.16,1-1.91,3.92-3,5.91s-6,7.27-7,9.19-5.75,6.39-6.95,9.19-2,4.95-2.64,6.55-6.47,11.43-6.87,11.9a6.73,6.73,0,0,1-2.4,1.36,28.1,28.1,0,0,1-5.27-5.59c-1.2-1.92-6.47-8.71-7.91-10.55s-14.22-15.33-17.33-18.45-24.77-20.29-26.45-21.81S97.33,337.1,96,335.66s-1.52-2.31-2-4.31a12.85,12.85,0,0,1-.4-4.16,47.6,47.6,0,0,1,.4-6.63,22.42,22.42,0,0,0,0-5.67c-.16-1.92-1-2.95-2.08-5.11s-2.64-2.56-4.23-3.28a19.44,19.44,0,0,0-5-1.6c-1.67-.23-2.79.72-4.47,1s-1.68.16-5-.64-12.07-1-21.49-6.47-19-4.07-20-4.47-.72-1.76-1.12-2.64-4.31-.48-6.07-.16-3.59,3.12-4.39,3.44a5.67,5.67,0,0,1-3.28-.24,14.12,14.12,0,0,0-5-.24c-2.4.16-.56.64-.88,1s-2.71,1.92-4.39,3.51-3.84,5.2-5.67,7.35.87,3.84,5,5.83,18.77,6.88,21.65,8.55,4,3,6.47,5.52,7,5.27,10.39,7.51,10.22,7.19,11.9,8.62,9.11,7.91,11.9,11.19,14.62,16.06,16.46,18.53,22.77,28.13,23.62,29,13.32,18.06,15.61,20.56,7,12.14,7.83,13.42,5.11,7.46,5.8,8.79,6,6.12,7.57,7.46,4.42,6.07,7.88,9.74,14.65,8.74,18,9.11a21.85,21.85,0,0,0,9.16-.75c3-.9,7.35-6.39,9.91-8.94s16.72-19.34,18.85-21.79,13.53-16.77,15.77-19.12,20.4-20.18,22-22.42,8.73-10.81,9.53-11.56,6.29.27,9.69,1.33a49.75,49.75,0,0,0,11.3,2.67,98.39,98.39,0,0,1,12.41,2.45c.21.05,2,1.27,4.63,2.93s3.67.47,5.8-.38,4.85-3.41,6-3.94,2.77.53,6.29,1.6,19.7,4.42,26.89,5.64,19,1.12,24.93,2,15.18,7,18,10.07,9.64,14.27,12,18,13.95,16,17.68,18.38,11.61,7,14.65,8.62,20.5,10.18,20.5,10.18,30.31,15.82,33.18,17.63,16.41,9.58,19.18,12,18.58,14.81,21.83,16.78,13.69,4.26,15.77,4,9.21-.9,10-1.06,1-.64,1.07-1.76-.64-1.44-2-2.29-1.6-.85-1.81-1.28.05-.64.63-1.44.91-.16,2.08-.37,1.07-.21,1.23-.69a1.73,1.73,0,0,0-.32-1.6c-.43-.64-1.55-1.12-2.35-2.4s-.58-1.7-.32-3.25,1.92-6.12,2.61-8.25a52.44,52.44,0,0,1,3.84-8.42,13.76,13.76,0,0,1,4.21-3.14c1-.53,1-.11,2.07-.32s.64-.21,1.07-.74a1.45,1.45,0,0,0,.27-1.55c-.16-.75-.43-.64-.59-1.33s.8-1.23,1.49-1.44.43-.11.59-.48a4.21,4.21,0,0,0,.42-1.81c-.1-.43-.58-.8-.9-1.44s.69-2.39,1.17-3.19.85,0,1.7,0,.75-1,1.18-2.23-.11-1.23-.38-1.5a4.19,4.19,0,0,1-1.06-2.29,3.44,3.44,0,0,1,1.7-2.24c.69-.32,2.4-.42,2.56-.85a6.14,6.14,0,0,0,0-2.24C567,455,566.75,455.47,566.11,454.83Z" transform="translate(-0.24 -20.95)"/></svg>