<svg id="katman_1" data-name="katman 1" xmlns="http://www.w3.org/2000/svg" viewBox="0 0 554.83 566.93"><path d="M47.55,559.16,38.76,567H14.94l-8.89-7.8v-12H19.83v6H33.77V536.53H14.94l-8.89-7.84V500.11l8.89-7.84h14.4l4.43,3.9v-3.9H47.55V512.1H33.77v-6H19.83V522.7H38.76l8.79,7.84Z" transform="translate(-6.05 -0.03)"/><path d="M103.41,559.16,94.52,567H68.85l-8.8-7.8v-59l8.8-7.84H94.52l8.89,7.84Zm-13.83-6V506.06H73.84v47.11Z" transform="translate(-6.05 -0.03)"/><path d="M158.32,559.16l-9,7.8H124.71l-8.8-7.8v-59l8.8-7.84H140.4l4.13,3.9v-3.9h13.79V512.1H144.53v-6H129.7v47.11h14.83v-6h13.79Z" transform="translate(-6.05 -0.03)"/><path d="M213.23,559.16l-9,7.8H179.61l-8.79-7.8v-59l8.79-7.84h15.7l4.13,3.9v-3.9h13.79V512.1H199.44v-6H184.61v47.11h14.83v-6h13.79Z" transform="translate(-6.05 -0.03)"/><path d="M225.73,567V553.17h3.94V506.06h-3.94V492.27h43.6V512.1H255.54v-6H243.46V522.7h18.88v13.83H243.46v16.64h12.08v-6h13.79V567Z" transform="translate(-6.05 -0.03)"/><path d="M330.23,567H315.44L303.7,536.53h-4.09v16.64h3.94V567H281.82V553.17h3.95V506.06h-3.95V492.27h17.79v3.9l4.47-3.9h14.83l8.8,7.84v27.44l-9.42,8.79,6.56,16.83h5.38ZM299.61,522.7h14.31V506.06H299.61Z" transform="translate(-6.05 -0.03)"/><path d="M372.34,567V553.17h3.94V506.06h-3.94V492.27h21.73v13.79h-3.95v47.11h10.51v-6h13.83V567Z" transform="translate(-6.05 -0.03)"/><path d="M427,567V553.17h4V506.06h-4V492.27h21.73v13.79h-3.95v47.11h3.95V567Z" transform="translate(-6.05 -0.03)"/><path d="M491,506.06H479V522.7H497.8v13.83H479v16.64h3.9V567H461.19V553.17h3.94V506.06h-3.94V492.27h43.59V512.1H491Z" transform="translate(-6.05 -0.03)"/><path d="M517.28,567V553.17h4V506.06h-4V492.27h43.6V512.1H547.09v-6H535V522.7h18.87v13.83H535v16.64h12.07v-6h13.79V567Z" transform="translate(-6.05 -0.03)"/><path d="M310.66,342.82a49.39,49.39,0,0,1-1.79-7.15c-.26-1.24-.49-2.35-.64-2.92-.31-1.2-.63-3.62-1.26-8.61-.21-1.6-.38-3-.46-3.45a6.59,6.59,0,0,1-.13-1,9.15,9.15,0,0,1-2.61-4.16,18,18,0,0,1-.65-3.7c-.06-.61-.17-1.56-.27-2.11-.25-.36-.59-.9-1-1.51-3-4.53-4.1-6.29-4.56-7.77-.11-.42-.45-1.47-.87-2.71-1.32,2.67-3.61,7-3.93,7.51s-.86,1.51-1.14,2.1c0,.4-.1.93-.16,1.5a32.77,32.77,0,0,1-.64,4.62c-.73,2.51-4,6.34-7.4,6.61a6.78,6.78,0,0,1-2.65-.36c-.27.17-.59.4-.86.59-.63.46-1.29.91-2,1.33a18,18,0,0,1-2.21,1.17l-.44.89c-.61,1.26-1.75,3.6-2,4.16-4.56,12.52-5.8,14.22-6.2,14.77l-1.64,2.21c-1.56,2.1-5.12,6.88-5.92,8-.1.21-.23.46-.37.73a29.21,29.21,0,0,0-2.09,4.5,41.58,41.58,0,0,1-1.74,5l-.4,1.13c-.17.53-.63,2-.82,2.68-.07,1.07-.26,3-.47,5,18.14-.31,37.53-.5,58-.59.07-1.43.19-3.17.32-5.32.1-1.22.16-2.15.17-2.48s0-2.84,0-5.49,0-5.64,0-6.08c0-.72.08-1.6.19-2.78a4.38,4.38,0,0,0,0-.52C311.89,347.13,311,343.62,310.66,342.82Zm35.08,134.07-.86-.22a19.83,19.83,0,0,1-6.46-3.45l-.94-.77c-.82-.66-1.79-1.46-2.3-1.83-.69-.51-1.53-1.06-1.93-1.29s-.8-.21-1.31-.37-1.22-.34-1.79-.49H230.72v.78a19.61,19.61,0,0,1-.51,5.91,11.74,11.74,0,0,1-2.44,4.12H355.63C353.42,478.86,350.29,478.09,345.74,476.89ZM143.1,229.38l-.63.39A275.48,275.48,0,0,0,14.91,399.49a278.44,278.44,0,0,0-8.86,69v10.81H195.31a10.13,10.13,0,0,1-2.82-6.79,17.58,17.58,0,0,1,.72-4H174.64l-1.2-2.25c7.19-12.62,19.1-33.47,33.55-58.69,0-.15,0-.29,0-.38,0-.42.1-2.21.19-4.16.12-2.46.25-5.14.31-5.87.05-.89.28-2.42.59-4.5.11-.8.23-1.48.24-1.77,0-.49.08-1.29.16-2.19.11-1.62.24-3.7.26-4.27a51.73,51.73,0,0,1,.9-6.33c0-.25.09-.53.13-.82-22,38.41-38.42,67-47.48,83-18.7,3.24-37.78,6-57,8.22H84.14C78,458.42,71.39,446.59,66.45,433.13,61,418.3,57.57,401.79,54.1,381.63c8.86-18.28,15.65-31.4,20.17-39a323.32,323.32,0,0,1,18.53-28c18.31-7.21,33.64-12.62,48.81-15.69s29.53-3.58,43-3.72l0,.1a629.42,629.42,0,0,1,29.24,63.93c.75-2.1,1.6-4.5,1.78-5.13.41-1.71,2.63-8,2.85-8.48a75.84,75.84,0,0,1,3.15-6.92c.21-.3.67-1,.95-1.51.42-1,2-5.47,2.63-7.39.54-1.49.94-2.61,1-2.73.23-.59,2.27-6.15,2.81-8.23a43.33,43.33,0,0,0,.91-5.28,7.91,7.91,0,0,1-2.12-5v-.36c-.09-2-.2-4.76,1.89-6.86l.5-.48a2.07,2.07,0,0,1,.21-.21c0-.07,0-.13,0-.21s0-.24.07-.36c0-.4.08-1.12.12-1.94.11-1.85.24-3.95.4-5.3a20.65,20.65,0,0,1,.93-3.95c.06-.17.11-.34.15-.49,0-.86,0-1.47,0-2.56a23.75,23.75,0,0,1,.46-3.92l.09-.52c0-.42.27-4.13.33-5,0-.28,0-.86,0-1.5,0-3.28,0-4.48.44-5.74.38-1,1.75-3.78,2-4.27.44-.76,3.14-6,3.54-7,0-.11.14-.51.27-1,.76-2.9,1.45-5.26,2.74-7a23.4,23.4,0,0,1,1.59-1.89c.21-.23.49-.55.68-.8s.21-.95.29-1.41q-8.29,4.05-14.2,7.47c-1.37.76-2.82,1.58-4.35,2.48-10,5.91-23.48,14.94-40,26.85-14.64.1-30.44.67-47,4-15.53,3.12-31,8.61-44.35,13.74a106.75,106.75,0,0,0-4.73-12.52,264.86,264.86,0,0,1,58.84-47.14l.59-.34a265.09,265.09,0,0,1,97.39-33.93c.11-2.92.28-6.54.45-7.45.08-.69.27-3.72.29-5.34A275.91,275.91,0,0,0,143.1,229.38ZM54.6,437.49a197.88,197.88,0,0,0,14.85,31H18.88A264.19,264.19,0,0,1,30.12,392a58,58,0,0,0,12.64-1.91C45.45,405.05,49,422.15,54.6,437.49Zm467.8-110a276.68,276.68,0,0,0-176.64-129c0,.45,0,1,.07,1.5.14,2,.27,4.16.25,5.53s0,3.93.08,5.89A265.39,265.39,0,0,1,476.78,287.5a102.3,102.3,0,0,0-3.08,9.91c-9.69-4-23.51-9.13-38.32-12.1-17.1-3.41-35.64-4.06-53.18-4.23q-14.58-9.52-26-16.6c.17.95.36,2.3.65,4.28.17,1.13.32,2.14.42,2.75.32,2.06.7,8,.7,9.72,0,.69.29,4.14.48,6.42.32,4.2.36,4.9.36,5.36s.1,1.28.17,2.33c.1,1.56.23,3.29.23,4.09,0,.65.08,1.64.12,2.58,0,1.18.09,2.32.09,2.78,0,3.24-.4,4.56-.84,5.49a7.17,7.17,0,0,1-1.5,2.1c0,1.94-.23,3.77-.23,3.81a31.62,31.62,0,0,1-1.22,5.89,19.85,19.85,0,0,1-3,6.21,14.24,14.24,0,0,1-1.7,1.87c0,1.11,0,2.52,0,3.28V335c0,.49,0,1.35,0,2.3,0,1.68.06,3.64,0,4.6s0,2.23.08,3.29c0,.78.05,1.43.05,1.76v.89c0,.54,0,1.2,0,1.74,0,.13.1.28.16.45.55,1.57,1.48,4.24,1.75,4.87a18.7,18.7,0,0,1,.93,4.61c10-24.76,20-46.85,29.64-65.74,16.34.19,33.57.82,49.3,4,15.44,3.11,29.41,8.56,42.22,14,9,13.25,15.82,23.75,20.18,31.22,4.23,7.06,10.14,18,17.61,32.5-2.89,17.69-6,34.94-11.51,51.51a276.38,276.38,0,0,1-17.65,40.23c-20.7-1.44-45.56-4.08-73.92-7.79l-2.95-.38-51.79-89.4c.07.93.15,1.73.21,2.1a34.41,34.41,0,0,1,0,4.8c0,1.16-.1,3.11-.06,3.66s.09,1.52.11,2.36a.12.12,0,0,0,0,.08,6.38,6.38,0,0,1,2,4.14l.21,2.63s.29,4.13.29,5.49c0,.47-.06,1.73-.19,4.46l38,65.55c-.61,1.2-1.24,2.42-1.87,3.62H375.49a6.05,6.05,0,0,1,0,2.08c-.76,4.59-3.3,7.83-6.73,8.73H560.88V468.14A275.78,275.78,0,0,0,522.4,327.51Zm-25.13,141a281.21,281.21,0,0,0,16.09-37.55c4.84-14.47,7.84-28.86,10.71-45.77,1.32.4,2.71.78,4.16,1.15,2.33.57,4.86,1.1,7.53,1.58a263,263,0,0,1,12.52,80.59Z" transform="translate(-6.05 -0.03)"/><path d="M97.06,21.41s-3.91-6-4.09-6.66a16.44,16.44,0,0,1-.48-2.2,5.07,5.07,0,0,0-.23-1.16c-.07-.22-1-1.84-1.31-2.77a8.89,8.89,0,0,1-.5-2.12c0-.28.07-1.09.43-1.32a5,5,0,0,1,.93-.5,1,1,0,0,0,.43-.48c0-.1-.35-1.14-.35-1.14a3.72,3.72,0,0,1-.53-1.16c-.08-.48,0-1.49.27-1.61A3.54,3.54,0,0,1,93.3.08a5.15,5.15,0,0,1,1,.68c.38.36.4.46,1,.56a7.74,7.74,0,0,1,1.37.23,5,5,0,0,1,1,.45c.3.2.65.48,1,.73s0-.22.73.53,4.31,4.83,4.64,5.31a39,39,0,0,0,2.73,3.13c.63.58,2.4,1.91,2.85,2.34s1.72,1.34,2,1.62a20.24,20.24,0,0,1,2.47,2c.36.53.46.6,1.29.88a7,7,0,0,0,2.53.28c.48-.08,1.23-.28,1.66-.3s.71-.69.38-1.42-1.59-4.21-2-5.42-.74-1.9-.53-2.66a7.71,7.71,0,0,1,1.44-2.67c.3-.13,1.71-.48,2.27-.05a8.22,8.22,0,0,1,1.79,2,13.91,13.91,0,0,1,1.34,3c.2.91.28,1.79.4,2.42a5.61,5.61,0,0,0,.61,1.62,21.09,21.09,0,0,0,1.56,3c.56.68,1.64,1.79,1.79,2.73a44.36,44.36,0,0,1,.64,6.05c-.13.94-.46,3.69-.46,4.22a2.34,2.34,0,0,0,.47,1.56c.36.38,3.42,3.44,3.9,4s7.6,5.56,7.93,5.81,4.64,3.23,5.7,3.79,7.78,4.26,8.53,4.72,5.66,3.2,6.84,3.86,6.72,4,7.78,4.74,4.32,2.86,6.76,4.8,7.43,6.21,7.93,6.61a10.48,10.48,0,0,0,2.75,1.44c.81.23,3.76,1.09,6.34,1.59a58.78,58.78,0,0,1,10,3.71c1.46.79,7.42,4.67,8.73,5.28s5.13,3.13,6.19,3.53,2.52.81,3,1,1,.08,1.82.43a13.6,13.6,0,0,1,2.27,1.27,19.35,19.35,0,0,0,2.93,1.86,18.69,18.69,0,0,0,4.09.86c1.09,0,4.62.38,5.15.48s1.69.28,2.9.46,6.49,1.84,7.9,2.17,8.13,2.47,10.15,3.15,7.15,3.59,8.38,4.19,3.28,1.47,3.76,1.37a3.55,3.55,0,0,0,1.72-1.22,24.39,24.39,0,0,0,1.24-5.17c.12-1.26-.15-7.27-.23-7.88s.05-4.21-.86-5.4a14.9,14.9,0,0,0-2.67-2.7c-.48-.3-.81.15-1.32-.35a36.65,36.65,0,0,1-2.42-2.88,5.84,5.84,0,0,1-1.26-2.27,12.87,12.87,0,0,1-.51-2.58c0-.7,1.27-1-.1-2.27S263,69.4,263,69.05s.55-1.21-.25-1.67-.56-2.27-.86-2.82-.36-1.47,0-1.62A4,4,0,0,0,263,61.48a9.58,9.58,0,0,1,.6-1.27s.05-1.31-.2-1.61.31-1.11.61-1.31.91-.86.76-1.37-.51-1.11.75-1.51,1.47-.61,1.21-1.06-1.21-.85-.4-1.34,1.31-.48,1-1.09,2.12-2.32,2.78-3.18a7.12,7.12,0,0,1,2.12-1.56s.86-1.16,1.26-1.11,1.26,0,1.56-.31.11-1.56,1-1.31,1.52-.45,1.77-.5.35-.66,1.31-.61,1-.66,1.77-.66,3-1.16,4.14-.7,1.46.65,2.22.5,1.06-1.26,2.12-.55.1.6,1.31.75,1.32-.3,1.82.11-.15.25.66.75,1.82.15,1.87.51-1.11.15,0,.81,1.41.4,1.86,1.11,1.64,1.29,1.84,1.8.91.3.94,1.48-.13.84.61,1.71a10.56,10.56,0,0,1,1.14,1.42c.71,1,4.07,4.27,4.51,4.95s1,.8.94,1.88-.16,3.64-.16,3.94a8,8,0,0,0,.53,3.7,11.53,11.53,0,0,1,1,4.31c0,1-1.18,3.23-1.18,4.11a54.47,54.47,0,0,1-.7,5.65c-.21.88-.78,5-1,5.92a5.27,5.27,0,0,1-1.14,2.29c-.61.84-2,.71-2,2.33s-.57,3.16-.54,4.88-.2,6.12-.07,7.43a35.55,35.55,0,0,0,1.38,4.89,5.7,5.7,0,0,0,1.25,2c.54.48,1.41.91,3.5.91s5.59-.5,6.16-.94,2.52-2.79,3.13-3.1a2.82,2.82,0,0,1,2.12-.53,15.18,15.18,0,0,0,3.5-.31,3.76,3.76,0,0,1,2-1.11c1.14-.17,3.66-.23,4.57-.37s3.07-.7,3.4-.77,5.79-.61,6.87-.61,5.32.07,6.46.07,3.4.3,4,.3,8.68-3.33,8.85-3.43A77.36,77.36,0,0,1,367,96.65c2-.44,7.57-3.2,7.84-3.3a43.56,43.56,0,0,1,4.64-.84c.68,0,2.56-.07,2.76-.1s6.36-4.65,7.37-5.22A98.71,98.71,0,0,1,403,80.56c5.55-2,11.91-4.64,14.2-5.15a42.14,42.14,0,0,0,5.36-1.51c.37-.21,8.28-4.72,9-5a42.66,42.66,0,0,0,5.52-3.47,21.49,21.49,0,0,0,2.05-3.2c.37-.57.64-5.82.84-6.63a8.24,8.24,0,0,1,.54-2.52c.47-.78,1.58-2.76,2.42-4.34s2-4.48,2.19-4.72.17-1.21.54-1.44a5.15,5.15,0,0,1,2.86.23,2.94,2.94,0,0,1,.77,1.58,17,17,0,0,1-.2,2.93,10.89,10.89,0,0,1-.64,2c-.2.51-.57.88-.87,1.48a2.24,2.24,0,0,0-.31,1.35c0,.74-.13,1.51.21,1.85a2.15,2.15,0,0,0,1.27.47,2.77,2.77,0,0,1,1.28.41,2.35,2.35,0,0,0,1.28.36c.51,0,2.76-1.14,4.82-2.42a64.33,64.33,0,0,0,6.59-5c.81-.78,3.71-3.13,3.91-3.3a3.28,3.28,0,0,1,1.38-.71,6.68,6.68,0,0,1,2,.57c.44.24.78.48.78.68s.54.13.54.13a6,6,0,0,1,1.51.31,3.15,3.15,0,0,1,.57.77,1.82,1.82,0,0,1,.14,1,8,8,0,0,1-.14.8,2.34,2.34,0,0,1,1.55,0c.57.33,1.38.74,1.45,1.38a6.43,6.43,0,0,1-.14,2.22,6.51,6.51,0,0,1-1.88,1.41,7.47,7.47,0,0,0-1.35,1.21s1.45.19,1.62.94a4.38,4.38,0,0,1,.23,2.23,12.9,12.9,0,0,1-1.48,1.92s-3.06,2.08-4.41,3.16-4.57,4-5.58,4.78-.44,2.36-3.74,3.47-7.14,1.65-8.55,2a35.57,35.57,0,0,0-5.42,2.32c-.67.44-5.11,3.3-6.22,4.14s-6.47,4.31-7.31,5-6.76,4.82-8.18,5.89-7.44,5-9,5.89-8.62,4.24-9.87,5-6.69,3.5-9.12,4.67-10.4,4.35-12.89,5.59-5.89,3.27-6.33,3.6-6.29,5.35-7,5.79-3.23,3.13-4.95,4.68-6.63,3.94-6.94,4.17-4,3.74-6.76,5.15a73,73,0,0,0-8,5.05c-.37.37-3.06,2.8-3.16,3a29.49,29.49,0,0,0-.67,5.65c0,2.26.4,8.89.4,9.12s.17,7.21.17,8-.47,8.62-.54,9.26,0,9.26,0,9.66.53,11,.53,12.49.44,6.36.41,8.38.1,7,.13,8.38a15.7,15.7,0,0,0,.61,4.07c.3.74,2.72,7.54,3.26,8.72a31.89,31.89,0,0,1,1.75,5.62c.17,1.18.91,6.33,1.18,6.87a68.43,68.43,0,0,1,1.58,7.3c.47,2.69.51,10,.61,10.4s.57,6.09.81,7,1,6.73,1.34,8.61.68,8.11.64,8.82.84,11.07.84,11.78.37,5.15.41,6.56.2,4.41.2,5.22a10.81,10.81,0,0,1-.3,3.06c-.27.58-1.08,1-1.45,1.45s-.67,1-.61,1.18-.1,4.44-.16,4.95a28.89,28.89,0,0,1-1,4.84,14.39,14.39,0,0,1-2.22,4.62c-1.18,1.58-2.63,1.95-2.76,3.29s0,5.42,0,6.77.11,5.28.07,6.76.14,4.41.14,5.19-.07,3.5,0,3.77,2,5.69,2.29,6.39.84,5.76,1.08,7.27.64,7,.8,8.15-.2,6.53,0,8.21,0,4.28.47,4.85,1.62,1.14,1.65,1.61.17,2.19.2,2.63.27,4.07.27,5.05-.54,10.63-.54,11.58-1.11,11.74-1.17,12.68a24.87,24.87,0,0,1-1.15,4.18c-.17.37-.91.84-1,1.45s0,4.91,0,5.89a44.77,44.77,0,0,0,.27,6.22c.34,2.33.27,3.77.71,4.24a3.39,3.39,0,0,0,2.59.95c1.35,0,1.78-.54,2.25.43a4.26,4.26,0,0,1,.51,2.09c0,.34.6,1,.34,1.31a8.46,8.46,0,0,1-2.49.74c-.51.1-.91.51-.78,1s4.24,6.42,6.13,7.8,8.58,7.71,9.69,9,2.49,4.31,2.32,5.32-.91,4-2.89,4.2-5.62.21-7.81.21-11.41-2.53-12.86-2.9a13.79,13.79,0,0,1-4.27-2.36c-.88-.7-2.66-2.18-3.44-2.76a17.27,17.27,0,0,0-3.43-2.08c-.81-.24-3.67-1-4.78-1.35a6.1,6.1,0,0,1-2.52-1.78,14.69,14.69,0,0,1-2.12-5,21.66,21.66,0,0,1-.17-4.88c.23-1.31,1.24-2.83,1.45-3.67s.67-3,.7-3.4,1.48-3.8,1.52-4.91a28.31,28.31,0,0,0,0-4.41c-.2-1-.67-5.92-.67-7.14s-1.35-10.53-1.75-12-1.75-10-1.79-10.16-1.85-6.72-2.49-8.16-3.26-6.82-3.83-8.67-1.55-10-1.75-11.58.64-12.52.64-13.29.06-10.81.06-11.68.27-3.1.27-3.61a67.69,67.69,0,0,0-2-7.57c-.48-1.11-1.75-7.61-2.19-9.32s-1.42-10.47-1.65-11.72.47-2.39-.81-3.33a4.53,4.53,0,0,1-2.12-2.56c-.37-1.14-.5-5.38-1.11-6.46s-4.91-7.17-5.32-8.51-2.86-8.62-3.33-9.73a19.29,19.29,0,0,1-.88-3.23,30.92,30.92,0,0,1,.58-4.56c0-.43.65-2.38.6-2.6s-.33-.66-.63-.33-3,6.82-3.73,8-3.36,7.09-3.54,7.62-3.71,7.45-4.16,8.15a22.46,22.46,0,0,0-1.9,3.71c-.17.74-.48,5.05-.75,6a5.55,5.55,0,0,1-2.33,2.47c-.33,0-2-.88-3.46-.43s-2.87,1.77-4.59,2.83-3.43,1.41-3.58,1.87-3,6.11-3.39,7.22-4.34,11.86-5.45,13.38-7.77,10.4-7.93,10.8-2.47,4.44-3,6.62a50.31,50.31,0,0,1-1.81,5.09c-.15.51-1.27,3.89-1.27,4.3s-1.11,11.66-1.36,13.12a87.2,87.2,0,0,1-2.88,10c-.8,1.92-5.35,10.4-5.45,10.8s-3.68,10.81-4.14,12.17-2.57,9.34-3.13,11.66a69.2,69.2,0,0,0-1.51,6.87c0,.91-.81,3.74-.81,4.59s.1,5,.2,6.42-.55,8.33-.4,10a18.32,18.32,0,0,1,0,4c-.15,1.52.1,3.13-.66,4.65s-2,1.86-2.73,3.88-.05,7.43-.6,9.14-2.73,4.09-6.56,5.25-10.91.41-12.42,0a19.82,19.82,0,0,1-5.86-2.82,4.81,4.81,0,0,1-1.72-3.34c0-1.36,1.92-7.17,2.58-8.28s2.52-4.09,3-4.94,1.86-4.25,2.42-4.95,2.78-3.54,3.28-4a3.82,3.82,0,0,0,1-1.36c.05-.31-.37-5.73-.17-7s1.55-3.47,1.69-4.48a23.77,23.77,0,0,0-.31-3.8c0-.17.78-6.84.78-7.58s.43-6.8.33-8-.16-9.59-.1-10.4.41-8.75.51-10.07.84-5.89.84-6.22.44-6.1.44-6.9,1.58-9.8,1.58-10.54,1.68-8.75,1.85-9.15,2.93-7.88,3.26-9.23,2.43-7.27,2.63-7.77,2.25-5.35,2.59-5.86.94-1.41,1.35-2.18,3.58-10,3.73-10.39,2.43-6.51,3.08-9a36.78,36.78,0,0,0,1.16-8.17c-.15-1.06-2.17-2.83-2.17-3.54s-.2-2.78.21-3.18a19.46,19.46,0,0,0,1.81-1.87,18.19,18.19,0,0,0,.61-2.47c.1-.41.3-5.4.55-7.52s1.06-3.49,1.12-4.6.05-1.77.05-3.08a31.8,31.8,0,0,1,.5-3.78c0-.56.3-4.45.35-5.41s-.1-5,.1-5.6,1.42-3,1.62-3.38,3.48-6.67,3.89-7.73,1.21-5.25,2.27-6.66,2.68-2.83,3-3.94a27.46,27.46,0,0,0,.76-3.79c0-.25.5-5.25.25-6.36a22.76,22.76,0,0,1-.25-4,16.56,16.56,0,0,1,.5-3.58,7,7,0,0,0,.91-2,52.91,52.91,0,0,0,.5-9c-.25-2.62.06-8.43.11-10.1s.35-9.69.5-10.5a55.52,55.52,0,0,0,.35-7.67c-.15-1.72-1-8-1.06-10.65S251,170,251,168.21s-1.21-5.86-1.46-8-2.27-9.14-3.08-10.5-3-3.69-3.59-4.55-2.42-6.36-2.92-6.81-1.52-3.18-2.73-4-6.21-4.39-7.37-5.25a22.33,22.33,0,0,0-3.79-2.78c-1.31-.55-4.14-4.69-5.45-5.85s-6.72-4-7.12-4.5-2.88-2.88-3.53-3.58-2.48-2.93-3.08-3.18-6.82-5.25-7.73-6S189,95.55,187.51,94.34s-7.93-5-10-6.11-9.59-5.45-12-6.86S152,71.27,150.55,70.06s-10.8-9.19-13.38-11.92a92.86,92.86,0,0,0-9.64-8.68c-2.07-1.46-4.8-3.74-6.06-4.64S118.39,41,117,40.27s-6.72-4.59-8.13-5.75-9.39-9.29-9.84-9.9S97.06,21.41,97.06,21.41Z" transform="translate(-6.05 -0.03)"/></svg>