<svg id="katman_1" data-name="katman 1" xmlns="http://www.w3.org/2000/svg" viewBox="0 0 566.93 566.92"><path d="M283.44,0h-.76A283.47,283.47,0,0,0,83.52,484.44a281.66,281.66,0,0,0,199.89,82.5h.76c156.3-.41,283.13-127.9,282.72-284.2C566.48,126.84,439.32,0,283.44,0ZM97.28,138.1c-3.06,16.89-3.17,32.75-2.84,46.1-16,22.85-27,39.69-32.71,50-5.79,10-12,23.31-18.58,39.68L16,274.29a269.36,269.36,0,0,1,85-186.6,59.9,59.9,0,0,0,9.85,4C106,104.89,100.23,121.79,97.28,138.1Zm1.21,296.42c2.87,15.28,7.77,29.16,11.9,39.81-3.35.88-7.07,2-11.12,3.33A265.32,265.32,0,0,1,15.89,290.13l27-.37c9.17,22.7,16.8,39.4,22.67,49.6,5.8,10.75,15.45,25,28.69,42.39C94.65,402,95.53,418.73,98.49,434.52ZM285.91,80.67ZM398.62,228c22.56-17.45,43.59-32.43,62.53-44.56,13.79,8.33,28.14,17.5,40.14,28.21,11.79,10.53,21.07,22.27,29.33,33.42,1.08,16,1.61,28.52,1.58,37.22.08,8.24-.35,20.67-1.26,37-11.44,13.77-22.82,27.07-36.11,38.67a280.11,280.11,0,0,1-35.16,25.52c-17.17-11.81-37.31-26.7-59.9-44.28l-1.8-1.39Zm139.73,1a214.4,214.4,0,0,0-26.51-29.18c-13.27-11.84-29.1-21.9-44.27-31-13.34-26.76-23.36-45.5-29.77-55.66C431.67,103,423.09,91.11,412.28,78l13.09-21.41c60,37.61,103.26,98.38,119,167.07C542.16,225.45,540.15,227.26,538.35,229ZM188.43,333.71c-.07-2.37-.13-4.73-.19-7.38q-.08-3.45-.14-6.88l-.13-7.83c0-2.15-.05-4.28-.07-6.41l0-8.23c0-2,0-3.93,0-5.88v-1.42c0-1.87,0-3.74,0-5.59l.17-13.9,1.07-34.41q.16-3.41.34-6.82l.15-3.35C208.06,215,243.05,195,283.54,171.79c29.27,16.26,62.65,35.41,99.24,56.91l-.64,108.37c-30.58,19.31-64,38.15-99.25,56l-94.31-54.57Zm-7.6,18.62,95,54.95c4.41,19.63,7.31,45.53,8.61,77a481.08,481.08,0,0,1-46.53,18.61,329.25,329.25,0,0,1-42.05,10.56c-16-8-28.06-14.2-35.71-18.54-9.2-5.17-20.07-11.76-32.32-19.6-5.07-12.6-10.69-27.38-13.76-43.74-2.7-14.37-3.53-29.63-3.91-48C134.78,372.36,158.55,361.85,180.83,352.33Zm217.56-282c-21.91-2.91-39-4.42-50.66-4.49-1.61,0-3.32-.06-5.14-.06-11.79,0-28.11,1-48.51,2.93C281.31,61.34,267.26,53.76,251,48.15c-15.16-5.23-31.61-8.4-44.6-10.57a109.64,109.64,0,0,0,1.84-11,268.18,268.18,0,0,1,74.46-10.7h.7a267.9,267.9,0,0,1,128.29,32.7ZM276.16,157.77c-44.23,25.29-77,44.06-94.84,54.34-23.76-9-47.66-19-71.08-29.82-.26-12.06-.1-26.33,2.62-41.37,2.84-15.64,8.22-31.63,15.44-50.79,16.95-11.29,29.48-19.19,37.29-23.5a320.69,320.69,0,0,1,30.1-14.75c19.45,3.07,35.45,6.17,50.16,11.25,14.5,5,27.09,11.72,38.53,18.28A652.94,652.94,0,0,1,276.16,157.77ZM242.85,518a496.07,496.07,0,0,0,51.38-20.74c22.56,2.25,40.06,3.25,52,3,11.79,0,29.46-1.34,52.51-4l13.22,22A268.16,268.16,0,0,1,284.13,551.1H283a266.45,266.45,0,0,1-75.24-10.84c-.67-4.82-1.42-9-2.25-12.56A329.19,329.19,0,0,0,242.85,518ZM428.14,468C438.45,455.36,451,432,465.41,398.53a301,301,0,0,0,39.84-28.67c12.2-10.65,22.6-22.34,32-33.47.62.64,1.27,1.29,1.94,1.95,1.57,1.53,3.32,3.13,5.19,4.74-15.64,68.7-58.86,129.5-118.79,167.17l-13-21.73C419.22,480.1,424.45,473.21,428.14,468Z" transform="translate(0.03 -0.01)"/></svg>