<svg id="katman_1" data-name="katman 1" xmlns="http://www.w3.org/2000/svg" viewBox="0 0 566.93 457.45"><path d="M156.19,336.52l-10.51,9.17v-9.17H103.86v32.32h9.39V479.77h-9.39V512.2h86.89l20.8-18.34V439.74L199,424.19,211.55,409V355l-20.8-18.45ZM179,479.77H145.68V440.63H179Zm0-71.68H145.68V369H179Z" transform="translate(0 -54.75)"/><path d="M313,440.19l22.14-20.69V355l-20.68-18.45H279.54L269,345.69v-9.17H227.2V369h9.28V479.77H227.2V512.2h51.11V479.77H269V440.63h9.62l27.62,71.57H341V479.77H328.4Zm-10.29-32.1H269V369h33.66Z" transform="translate(0 -54.75)"/><path d="M377.38,336.52,356.69,355V493.86l20.69,18.34h60.39l20.91-18.34V355l-20.91-18.45Zm48.76,143.25h-37V369h37Z" transform="translate(0 -54.75)"/><path d="M123.83,172.41c0-2.39-1.56-4-4.65-4.77a7.68,7.68,0,0,1-2.88-.95c0-.16.1-.9,1.85-4.11,7.48-11.92,11.27-25.78,11.27-41.2a81.67,81.67,0,0,0-4.57-27.09c-8.91-26.24-27-39.54-53.67-39.54A59.27,59.27,0,0,0,35.71,66.4,80.46,80.46,0,0,0,11.07,94.73a101.52,101.52,0,0,0-10.72,35c-.23,2.55-.35,6.1-.35,10.53a113.88,113.88,0,0,0,3.51,28.63,108.19,108.19,0,0,0,10.54,26,235.34,235.34,0,0,0,13.14,21c4,5.68,9.41,12.45,15.92,20.13,6.75,8.15,11.8,14.43,15,18.68S65.59,265.16,70.68,273a87.74,87.74,0,0,1,10.94,23.43,88.51,88.51,0,0,1,3.3,24.13,34.57,34.57,0,0,1-9.11,24.06c-6,6.6-13.35,9.95-21.76,9.95A19.24,19.24,0,0,1,43.54,351c-3.54-2.31-5.33-5-5.33-8.07a7,7,0,0,1,1.3-3.87c.22-.33,1.1-1.11,4.47-2.58,2.89-1.26,4.37-3.09,4.37-5.43a4.63,4.63,0,0,0-1.46-3.7c-1.34-1.17-3.49-1.51-6.54-1.08a16.36,16.36,0,0,0-10,5.07,14.74,14.74,0,0,0-4.18,10.54A20.67,20.67,0,0,0,34.82,359a31.31,31.31,0,0,0,19.58,6.59c15.25,0,27.58-5.65,36.62-16.81s13.59-24.71,13.59-40.38a91.69,91.69,0,0,0-3.34-24.62,100,100,0,0,0-10.72-24.26c-4.89-8.14-9.13-14.68-12.62-19.44s-8.71-11.48-15.38-19.77c-5.54-6.92-9.95-12.67-13.09-17.09S42.69,193,38.66,186.09a83.39,83.39,0,0,1-8.86-21.34A92.54,92.54,0,0,1,27,142,97.63,97.63,0,0,1,41.27,90.24c9.39-15.35,21-23.14,34.45-23.14,13.94,0,24.71,5.27,32,15.66s11.07,23.33,11.07,38.28a71.72,71.72,0,0,1-13.3,42A45.91,45.91,0,0,0,97,162c-12.67,0-19.1,4.43-19.1,13.16a11.61,11.61,0,0,0,2.95,8.27A10.66,10.66,0,0,0,89,186.62c5,0,10.22-2.65,15.39-7.82a45.35,45.35,0,0,1,4.42-3.42c.1,0,.85-.13,4.44,1.06,3.18,1.24,5.39,1.58,6.71,1.05C122.53,176.47,123.83,174.76,123.83,172.41Zm-33.55.88a15.63,15.63,0,0,1,6.06-1c.3,0,.51,0,.66,0a10.68,10.68,0,0,1-3.37,2.18h0a15.5,15.5,0,0,1-5.26,1.89s-.19-.2-.19-1.19C88.18,174.36,89.32,173.7,90.28,173.29Z" transform="translate(0 -54.75)"/><path d="M485.19,245.62c-2.67-1.32-4.33-.27-5.22.8-.48.49-1.42,1.83-4,7.88-6.7,15.94-14.54,28.46-23.29,37.21-8.23,8.46-16.2,12.75-23.7,12.75-5.18,0-9.13-2.53-12.07-7.73s-4.46-11.73-4.46-19.34l-.31-3.68,2.65-.59A41.89,41.89,0,0,0,437,259.81c6.25-6.84,9.42-14.14,9.42-21.71a19.51,19.51,0,0,0-5.05-13.49A17.22,17.22,0,0,0,428,219c-6.89,0-13.49,3.11-19.63,9.25-8.95,8.77-14.4,20.14-16.21,33.8A92.18,92.18,0,0,1,384,276.38a81,81,0,0,1-16.82,18.22c-7.33,5.49-13.91,8.27-19.57,8.27a5.27,5.27,0,0,1-5.07-3.18c-3.44-6.64-5.18-16.54-5.18-29.43a141,141,0,0,1,4-33.41c2.65-10.85,5.87-19.73,9.54-26.39,3.59-5.62,7-8.46,10-8.46a8.64,8.64,0,0,1,8.5,8.84,9.88,9.88,0,0,1-2.58,7.24,5.23,5.23,0,0,0-2,4.3c0,3.13,1.65,4.78,4.78,4.78a6.87,6.87,0,0,0,4.24-1.91A19.47,19.47,0,0,0,380,210.5c0-6.44-2.31-11.59-6.86-15.31s-10.17-5.55-16.79-5.55c-13.68,0-24.66,7-32.66,20.74-7,12-10.94,26-11.78,41.56l-.5,1.36a88.63,88.63,0,0,1-11.63,23.08,81,81,0,0,1-16.82,18.22c-7.33,5.49-13.91,8.27-19.57,8.27a5.27,5.27,0,0,1-5.07-3.18c-3.43-6.64-5.18-16.54-5.18-29.43a141,141,0,0,1,4-33.41c2.65-10.85,5.87-19.73,9.54-26.39,3.59-5.62,7-8.46,10-8.46a8.64,8.64,0,0,1,8.5,8.84,9.92,9.92,0,0,1-2.57,7.24,5.21,5.21,0,0,0-2,4.3c0,3.13,1.65,4.78,4.78,4.78a6.87,6.87,0,0,0,4.24-1.91,19.44,19.44,0,0,0,6.13-14.75c0-6.44-2.31-11.59-6.86-15.31s-10.17-5.55-16.79-5.55c-13.68,0-24.66,7-32.66,20.74-6.72,11.57-10.65,25-11.66,39.93a17.07,17.07,0,0,1-6.79,6c-4.68,2.39-10.52,3.6-17.38,3.6a28.3,28.3,0,0,1-5.66-.57l.3-3c.23-2.87.35-5.59.35-8.08,0-9.35-1.54-17.6-4.59-24.53s-7.52-11.82-13.22-14.44a24.64,24.64,0,0,0-10.38-2.5,19.56,19.56,0,0,0-14.57,6.12,20.07,20.07,0,0,0-5.94,14.38c0,.71,0,1.41.08,2.11-.45-2.95-3.86-4.44-10.15-4.44-6.61,0-10.79.84-12.85,2.65-3.15,3.64-4.68,14.85-4.68,34.28,0,13.76,2,25.65,5.8,35.33s9.24,16,15.94,18.35a19.42,19.42,0,0,0,5.4.72,34.66,34.66,0,0,0,16-4.25c6.11-3.06,11.83-8.18,17-15.21a83.11,83.11,0,0,0,12-23.57l1.23-3.69a36.44,36.44,0,0,0,7.31.59c10.32,0,18.67-1.91,24.85-5.68.63,11.78,3,21.81,7.13,29.83,6.6,12.5,16.06,18.84,28.12,18.84,8.24,0,16.83-3.34,25.51-9.9a90,90,0,0,0,19.88-20.94c1.56-2.23,3.07-4.61,4.69-7.39a66.1,66.1,0,0,0,6,19.39c6.6,12.5,16.06,18.84,28.12,18.84,8.24,0,16.83-3.34,25.51-9.9A89.5,89.5,0,0,0,392.13,283c1.21,8,3.93,14.75,8.12,20.11,5.91,7.56,15,11.4,27,11.4a46.22,46.22,0,0,0,10.3-1.07c13.83-4.22,26.52-15.83,37.72-34.5a143.61,143.61,0,0,0,8.25-16.14c4.28-9.51,4.77-11.67,4.77-12.47A5,5,0,0,0,485.19,245.62Zm-71.32,16.81c.07-2,1.58-6,4.48-11.83h0a64.58,64.58,0,0,1,8.14-12.3c4-4.88,6.07-5.9,7.06-5.9,1.82,0,2.21,3.29,2.21,6,0,4.49-2.07,9.06-6.14,13.59a35.76,35.76,0,0,1-13.07,9.63,8.37,8.37,0,0,1-2.63.77ZM160.52,227.62a10.38,10.38,0,0,1,3-7.63,9.5,9.5,0,0,1,6.92-3,12.48,12.48,0,0,1,6,1.68c7.67,4.07,11.56,14.36,11.56,30.59,0,5.69-.4,7.09-.59,7.44-.44-.09-1.79-.57-5.87-2.88-3.48-2-6-3.55-7.62-4.67C165,242.33,160.52,235.08,160.52,227.62ZM150,230.07V230c.66,7.25,4,14,9.82,20.21a61.8,61.8,0,0,0,22.55,15.34,17.23,17.23,0,0,1,2.8,1.41c-.09,2.28-1.72,6.71-4.84,13.18a53.4,53.4,0,0,1-12.61,17.63c-4.89,4.33-9.78,6.75-14.53,7.2-2.39.26-3.32-.15-3.75-.57-.89-.73-2.17-3.08-3.29-10.14-.46-2.49-.7-7.74-.7-15.62A220.23,220.23,0,0,1,148.63,240C149.59,234.16,150,231,150,230.07Z" transform="translate(0 -54.75)"/><path d="M564,243.69h0a5.1,5.1,0,0,0-5.29.22c-.51.33-1.44,1.31-3.68,5.8a209.51,209.51,0,0,1-24.76,37c-10.83,13.42-16,17.25-18.42,17.86.07-.12.17-.32.34-.59a6.68,6.68,0,0,0,.76-1.74,5.34,5.34,0,0,1,.82-1.6c1.17-2.1,3.57-6.68,7.35-14s6.16-11.74,7.32-13.62c7-12.83,10.56-22.8,10.56-29.64,0-8.73-2.4-15.68-7.13-20.65a21.56,21.56,0,0,0-7.19-5.21A159.11,159.11,0,0,0,509.52,212l-2.8-.7c-.9-.23-1.53-.4-1.87-.52a1,1,0,0,1-.57-.47,1.53,1.53,0,0,1-.25-.89,13.6,13.6,0,0,1,.33-2.31,52.29,52.29,0,0,0,1.06-12c0-7.05-1.55-13.21-4.62-18.3s-7.65-7.8-13.43-7.8a17.84,17.84,0,0,0-13.72,6.49,23,23,0,0,0-5.74,15.77,19.33,19.33,0,0,0,2.89,10.62c1.9,3,5.25,6,9.86,9a19.5,19.5,0,0,0,3.46,2c2,1,3.73,2,5.24,2.79a10.88,10.88,0,0,1,2,1.2c-.07.65-.59,2.54-2.92,8-2.56,6.06-3.27,6.94-3.42,7.07-1.32.75-2.62,2.29-1.32,5.21a3.48,3.48,0,0,0,3.92,2.69,6.29,6.29,0,0,0,4.8-2.85,64.11,64.11,0,0,0,7.41-14.45,12.92,12.92,0,0,1,1-2.08c.46.07,1.84.39,5.78,1.53,4.4,1.29,5.86,1.91,6.36,2.23,1.65.83,2.48,2.77,2.48,5.78,0,3.63-1.75,10-5.2,19-7.43,19-11.91,32.72-13.32,40.65a45.76,45.76,0,0,0-.7,8.14c0,5,1.33,9.14,4,12.26a12.88,12.88,0,0,0,10.23,4.75,18.73,18.73,0,0,0,10.1-3.23,47.1,47.1,0,0,0,9-7.61c2.7-2.95,7.24-8.43,13.47-16.27,3-3.51,7.81-10.47,14.2-20.69,6.53-10.44,9.7-16.6,9.7-18.83A4.72,4.72,0,0,0,564,243.69Zm-83-60.61c1.86-2.29,3.88-3.45,6-3.45,2.55,0,4.43,1.54,5.75,4.71a29,29,0,0,1,2.05,11.13c0,8.92-.65,10.62-.9,10.94-.94-.06-3.27-1-9-5.12-4.48-3.36-6.75-6.85-6.75-10.36A12.21,12.21,0,0,1,481,183.08Z" transform="translate(0 -54.75)"/></svg>