<svg id="katman_1" data-name="katman 1" xmlns="http://www.w3.org/2000/svg" viewBox="0 0 566.93 475"><path d="M123.83,163.63c0-2.39-1.56-4-4.65-4.77a7.68,7.68,0,0,1-2.88-1c0-.15.1-.89,1.85-4.11,7.48-11.92,11.27-25.78,11.27-41.19a81.73,81.73,0,0,0-4.57-27.1C115.94,59.28,97.88,46,71.18,46A59.27,59.27,0,0,0,35.71,57.62,80.4,80.4,0,0,0,11.07,86a101.53,101.53,0,0,0-10.72,35C.12,123.5,0,127,0,131.48a114,114,0,0,0,3.51,28.63,108.52,108.52,0,0,0,10.54,26,238.27,238.27,0,0,0,13.14,21c4,5.67,9.41,12.45,15.92,20.13,6.75,8.14,11.8,14.42,15,18.67s7.46,10.46,12.55,18.31a87.88,87.88,0,0,1,10.94,23.43,88.51,88.51,0,0,1,3.3,24.13,34.61,34.61,0,0,1-9.11,24.07c-6,6.6-13.35,9.94-21.76,9.94a19.3,19.3,0,0,1-10.51-3.57c-3.54-2.32-5.33-5-5.33-8.07a7,7,0,0,1,1.3-3.87c.22-.34,1.1-1.12,4.47-2.59,2.89-1.26,4.37-3.09,4.37-5.43a4.65,4.65,0,0,0-1.46-3.7c-1.34-1.16-3.48-1.5-6.54-1.07a16.25,16.25,0,0,0-10,5.07,14.71,14.71,0,0,0-4.18,10.54,20.68,20.68,0,0,0,8.61,17.06,31.37,31.37,0,0,0,19.58,6.59C69.65,356.77,82,351.11,91,340s13.59-24.71,13.59-40.38A91.8,91.8,0,0,0,101.27,275a100.29,100.29,0,0,0-10.72-24.26c-4.89-8.13-9.13-14.67-12.62-19.44s-8.71-11.48-15.38-19.76c-5.54-6.92-9.95-12.67-13.09-17.1s-6.77-10.15-10.8-17.08A83.39,83.39,0,0,1,29.8,156,92.4,92.4,0,0,1,27,133.23,97.66,97.66,0,0,1,41.27,81.46c9.39-15.35,21-23.13,34.45-23.13,13.94,0,24.71,5.26,32,15.65s11.07,23.34,11.07,38.28a71.7,71.7,0,0,1-13.3,42,45.91,45.91,0,0,0-8.48-1c-12.67,0-19.1,4.43-19.1,13.16a11.61,11.61,0,0,0,2.95,8.27A10.66,10.66,0,0,0,89,177.84c5,0,10.22-2.64,15.39-7.82a43.86,43.86,0,0,1,4.42-3.41c.11,0,.85-.13,4.44,1.06,3.18,1.23,5.39,1.58,6.71,1.05C122.53,167.69,123.83,166,123.83,163.63Zm-33.55.89a15.45,15.45,0,0,1,6.06-1,5.28,5.28,0,0,1,.66,0,11,11,0,0,1-3.37,2.17h0a15.73,15.73,0,0,1-5.26,1.89s-.19-.21-.19-1.2C88.18,165.59,89.32,164.92,90.28,164.52Z" transform="translate(0 -45.97)"/><path d="M485.19,236.84h0c-2.67-1.32-4.33-.27-5.22.81-.48.48-1.42,1.83-4,7.87-6.7,15.94-14.54,28.46-23.29,37.22-8.23,8.46-16.2,12.75-23.7,12.75-5.18,0-9.13-2.54-12.07-7.74s-4.46-11.73-4.46-19.33l-.31-3.69,2.65-.58A42,42,0,0,0,437,251c6.25-6.84,9.42-14.15,9.42-21.71a19.52,19.52,0,0,0-5.05-13.5A17.22,17.22,0,0,0,428,210.22c-6.89,0-13.49,3.11-19.63,9.26-8.95,8.76-14.4,20.13-16.21,33.79A92.28,92.28,0,0,1,384,267.61a81.16,81.16,0,0,1-16.82,18.22c-7.33,5.48-13.91,8.26-19.57,8.26a5.25,5.25,0,0,1-5.07-3.18c-3.44-6.63-5.18-16.54-5.18-29.43a141,141,0,0,1,4-33.41c2.65-10.84,5.87-19.73,9.54-26.38,3.59-5.62,7-8.47,10-8.47a8.66,8.66,0,0,1,8.5,8.85,9.86,9.86,0,0,1-2.58,7.23,5.23,5.23,0,0,0-2,4.3c0,3.13,1.65,4.78,4.78,4.78a6.87,6.87,0,0,0,4.24-1.91A19.46,19.46,0,0,0,380,201.72c0-6.44-2.31-11.59-6.86-15.31s-10.17-5.54-16.79-5.54c-13.68,0-24.66,7-32.66,20.73-7,12-10.94,26-11.78,41.56l-.5,1.37a88.78,88.78,0,0,1-11.63,23.08,81.16,81.16,0,0,1-16.82,18.22c-7.33,5.48-13.91,8.26-19.57,8.26a5.25,5.25,0,0,1-5.07-3.18c-3.43-6.63-5.18-16.54-5.18-29.43a141,141,0,0,1,4-33.41c2.65-10.84,5.87-19.73,9.54-26.38,3.59-5.62,7-8.47,10-8.47a8.66,8.66,0,0,1,8.5,8.85,9.89,9.89,0,0,1-2.57,7.23,5.21,5.21,0,0,0-2,4.3c0,3.13,1.65,4.78,4.78,4.78a6.87,6.87,0,0,0,4.24-1.91,19.42,19.42,0,0,0,6.13-14.75c0-6.44-2.31-11.59-6.86-15.31s-10.17-5.54-16.79-5.54c-13.68,0-24.66,7-32.66,20.73-6.72,11.57-10.65,25-11.66,39.93a17.07,17.07,0,0,1-6.79,6c-4.68,2.4-10.52,3.61-17.38,3.61a27.6,27.6,0,0,1-5.66-.58l.3-3c.23-2.86.35-5.58.35-8.08,0-9.34-1.54-17.6-4.59-24.52s-7.52-11.83-13.22-14.45a24.64,24.64,0,0,0-10.38-2.5,19.6,19.6,0,0,0-14.57,6.12,20.07,20.07,0,0,0-5.94,14.38c0,.71,0,1.41.08,2.11-.45-2.94-3.86-4.44-10.15-4.44-6.61,0-10.79.85-12.85,2.65-3.15,3.64-4.68,14.86-4.68,34.28,0,13.76,2,25.65,5.8,35.34s9.24,16,15.94,18.34a19.42,19.42,0,0,0,5.4.72,34.66,34.66,0,0,0,16-4.25c6.11-3.06,11.83-8.17,17-15.21a82.84,82.84,0,0,0,12-23.57l1.23-3.69a35.72,35.72,0,0,0,7.31.59c10.32,0,18.67-1.91,24.85-5.67.63,11.78,3,21.8,7.13,29.82C241.5,298,251,304.35,263,304.35c8.24,0,16.83-3.33,25.51-9.9a89.91,89.91,0,0,0,19.88-20.93c1.56-2.23,3.07-4.61,4.69-7.4a66.1,66.1,0,0,0,6,19.39c6.6,12.5,16.06,18.84,28.12,18.84,8.24,0,16.83-3.33,25.51-9.9a89.5,89.5,0,0,0,19.38-20.22c1.21,8,3.93,14.75,8.12,20.11,5.91,7.56,15,11.4,27,11.4a45.64,45.64,0,0,0,10.3-1.07c13.83-4.22,26.52-15.83,37.72-34.49A144.8,144.8,0,0,0,483.54,254c4.28-9.5,4.77-11.67,4.77-12.47A5,5,0,0,0,485.19,236.84Zm-71.32,16.81c.07-2,1.58-6,4.48-11.83h0a64.52,64.52,0,0,1,8.14-12.29c4-4.88,6.07-5.91,7.06-5.91,1.82,0,2.21,3.3,2.21,6.06,0,4.49-2.07,9.06-6.14,13.58a35.68,35.68,0,0,1-13.07,9.64,8.5,8.5,0,0,1-2.63.76Zm-253.35-34.8a10.36,10.36,0,0,1,3-7.63,9.5,9.5,0,0,1,6.92-3,12.47,12.47,0,0,1,6,1.67C184.11,214,188,224.28,188,240.51c0,5.69-.4,7.1-.59,7.44-.44-.08-1.79-.57-5.87-2.88-3.48-2-6-3.55-7.62-4.67C165,233.55,160.52,226.3,160.52,218.85ZM150,221.29v-.07c.66,7.25,4,14,9.82,20.22a61.89,61.89,0,0,0,22.55,15.33,17.23,17.23,0,0,1,2.8,1.41c-.09,2.28-1.72,6.72-4.84,13.18A53.45,53.45,0,0,1,167.76,289c-4.89,4.32-9.78,6.74-14.53,7.19-2.38.27-3.33-.15-3.75-.57-.89-.73-2.17-3.08-3.29-10.13-.46-2.49-.7-7.75-.7-15.62a220.34,220.34,0,0,1,3.14-38.7C149.59,225.39,150,222.25,150,221.29Z" transform="translate(0 -45.97)"/><path d="M564,234.91h0a5.12,5.12,0,0,0-5.29.22c-.51.34-1.44,1.31-3.68,5.8a209.59,209.59,0,0,1-24.76,37c-10.83,13.41-16,17.24-18.42,17.85.07-.12.17-.31.34-.59a6.49,6.49,0,0,0,.76-1.73,5.35,5.35,0,0,1,.82-1.61c1.17-2.1,3.57-6.68,7.35-14s6.16-11.74,7.32-13.62c7-12.83,10.56-22.8,10.56-29.63,0-8.74-2.4-15.69-7.13-20.66a21.84,21.84,0,0,0-7.19-5.21,159.11,159.11,0,0,0-15.13-5.45l-2.8-.7c-.9-.22-1.53-.4-1.87-.51a1.09,1.09,0,0,1-.57-.48,1.48,1.48,0,0,1-.25-.89,13.42,13.42,0,0,1,.33-2.3,52.35,52.35,0,0,0,1.06-12c0-7.06-1.55-13.22-4.62-18.3s-7.65-7.8-13.43-7.8a17.86,17.86,0,0,0-13.72,6.48,23,23,0,0,0-5.74,15.77,19.3,19.3,0,0,0,2.89,10.62c1.9,3,5.25,6,9.86,9a20.9,20.9,0,0,0,3.46,2l5.24,2.79a11.23,11.23,0,0,1,2,1.21c-.07.64-.59,2.53-2.92,8-2.56,6.05-3.27,6.94-3.42,7.06-1.32.76-2.62,2.29-1.32,5.21a3.51,3.51,0,0,0,3.92,2.7,6.31,6.31,0,0,0,4.8-2.86,63.79,63.79,0,0,0,7.41-14.44,11.94,11.94,0,0,1,1-2.08c.46.07,1.84.39,5.78,1.53,4.4,1.28,5.86,1.9,6.36,2.23,1.65.83,2.48,2.77,2.48,5.77,0,3.63-1.75,10-5.2,19-7.43,19-11.91,32.72-13.32,40.65a45.76,45.76,0,0,0-.7,8.14c0,5,1.33,9.14,4,12.27a12.87,12.87,0,0,0,10.23,4.74,18.65,18.65,0,0,0,10.1-3.23,47.1,47.1,0,0,0,9-7.61c2.7-2.94,7.24-8.42,13.47-16.27,3-3.5,7.81-10.46,14.2-20.69,6.53-10.44,9.7-16.6,9.7-18.83A4.72,4.72,0,0,0,564,234.91Zm-83-60.6c1.86-2.3,3.88-3.46,6-3.46,2.55,0,4.43,1.54,5.75,4.71a29,29,0,0,1,2.05,11.13c0,8.92-.65,10.62-.9,10.94-.94-.06-3.27-1-9-5.11-4.48-3.37-6.75-6.86-6.75-10.37A12.19,12.19,0,0,1,481,174.31Z" transform="translate(0 -45.97)"/><polygon points="200.69 287.82 189 277.52 150.91 277.52 127.4 298.26 127.4 373.81 150.91 394.55 200.69 394.55 200.69 438.55 163.85 438.55 163.85 422.58 127.4 422.58 127.4 454.39 150.91 475 213.89 475 237.14 454.39 237.14 378.71 213.89 357.97 163.85 357.97 163.85 313.97 200.69 313.97 200.69 329.94 237.14 329.94 237.14 277.52 200.69 277.52 200.69 287.82"/><polygon points="254.74 313.97 265.18 313.97 265.18 438.55 254.74 438.55 254.74 475 312.19 475 312.19 438.55 301.76 438.55 301.76 313.97 312.19 313.97 312.19 277.52 254.74 277.52 254.74 313.97"/><polygon points="403.07 287.82 391.38 277.52 353.3 277.52 329.79 298.26 329.79 373.81 353.3 394.55 403.07 394.55 403.07 438.55 366.24 438.55 366.24 422.58 329.79 422.58 329.79 454.39 353.3 475 416.27 475 439.53 454.39 439.53 378.71 416.27 357.97 366.24 357.97 366.24 313.97 403.07 313.97 403.07 329.94 439.53 329.94 439.53 277.52 403.07 277.52 403.07 287.82"/></svg>