<svg id="katman_1" data-name="katman 1" xmlns="http://www.w3.org/2000/svg" viewBox="0 0 566.93 463.13"><path d="M269.46,51.86h-.41A158.44,158.44,0,0,0,113.91,180.32a46.8,46.8,0,0,1,6.78,4.68c.11.09.22.18.32.28a151.44,151.44,0,0,1,46.08-85.47,33.6,33.6,0,0,0,6.32,2.54c-3,8.08-6.13,17.39-7.77,26.46a126,126,0,0,0-1.58,25.91c-9,12.88-15.22,22.36-18.41,28.16a176.21,176.21,0,0,0-10.51,22.5h-.22a39.37,39.37,0,0,1,1.75,11.8v.09c4.45,10.81,8.2,18.88,11.15,24,3.25,6,8.68,14,16.14,23.84.09,4.86.24,9.38.5,13.64a21.4,21.4,0,0,1,7.61-3.69c-.13-2.88-.23-5.9-.29-9.08,14-6.39,27.53-12.36,40.21-17.78L249.66,270a25.41,25.41,0,0,1,9.42-3.56l-43.32-25.07-.09-3c0-1.32-.07-2.66-.1-4v-.16c0-1.29-.06-2.58-.08-3.86l0-1.4c0-.87,0-1.73,0-2.6V226c0-1.2,0-2.4,0-3.6v-.51c0-1.15,0-2.3,0-3.46v-.64c0-1.1,0-2.2,0-3.3v-.79c0-1.06,0-2.11,0-3.14l.09-7.8.6-19.3.18-3.82.11-2.18c10.42-6,30.24-17.35,53.17-30.46,16.52,9.18,35.41,20,56.17,32.21l-.37,61.35C309.8,250.37,293,260,275.23,269.14a20.85,20.85,0,0,1,5,4.12c5.58,6.2,7.8,14.45,6.6,24.52a8.53,8.53,0,0,1-3,5.47,8.38,8.38,0,0,1-11.44-.1,8.65,8.65,0,0,1-2.8-5.3c-.47-3.22-.95-5.66-1.38-7.5-.13.27-.26.56-.38.86a313,313,0,0,1,2.72,31.91c-3.37,1.56-7.52,3.38-11.91,5.17q-.29,4.2-.3,8.55c6.36-2.52,12.46-5.2,17.06-7.37,9.53,1,17.46,1.52,23.67,1.67q3-7.11,6.09-15.23c1.61-12,5.13-22.56,10.48-31.32,7.54-12.26,16.61-18.47,27-18.47,7.17,0,13,2.4,17.21,7.14a26.36,26.36,0,0,1,6.19,12.24q2.42-5.21,5-11.17a166.74,166.74,0,0,0,22.4-16.11,170,170,0,0,0,18.28-19.16c.47.5,1,1,1.48,1.52.95.92,2,1.88,3.13,2.84A148.15,148.15,0,0,1,407.64,270a27.84,27.84,0,0,1,9.28-2,157.42,157.42,0,0,0,10.89-58.15C427.58,122.7,356.55,51.86,269.46,51.86Zm-3.58,88.22c-25,14.28-43.53,24.9-53.61,30.72-13.52-5.08-27.1-10.78-40.42-17a116.6,116.6,0,0,1,1.47-23.63c1.59-8.81,4.65-17.87,8.74-28.73,9.59-6.38,16.66-10.85,21.08-13.28a178.22,178.22,0,0,1,17.06-8.37c11,1.74,20.08,3.49,28.37,6.35a128.58,128.58,0,0,1,22,10.46A366.7,366.7,0,0,1,265.88,140.08Zm39.6-51.33c-.89,0-1.85,0-2.86,0-6.63,0-15.82.57-27.31,1.67a138.3,138.3,0,0,0-24.2-11.57,158.7,158.7,0,0,0-25.47-6,58.78,58.78,0,0,0,1.19-7,151.22,151.22,0,0,1,42.23-6.12h.4a150.74,150.74,0,0,1,72.66,18.67l-7.94,13C321.74,89.65,312.09,88.8,305.48,88.75ZM408.72,230.47c-6.48,7.82-13,15.37-20.41,21.87a157.16,157.16,0,0,1-20.08,14.55c-9.7-6.67-21.1-15.09-33.88-25l-1.22-1,.36-62.06c12.84-9.93,24.8-18.46,35.58-25.34,7.92,4.77,16.11,10,22.87,16a122,122,0,0,1,16.61,18.94c.61,9.06.91,16.14.89,21.06C409.49,214.21,409.25,221.25,408.72,230.47Zm3.57-50a119.78,119.78,0,0,0-15.15-16.76c-7.41-6.6-16.32-12.27-24.87-17.4-7.51-15.07-13.14-25.61-16.74-31.3a168.68,168.68,0,0,0-14.5-20l7.82-12.8a151.33,151.33,0,0,1,67.45,94.59Q414.07,178.74,412.29,180.49Z" transform="translate(0.06 -51.86)"/><path d="M320.41,487.08c-1.7,4.21-4,7.25-7,9.06a24.77,24.77,0,0,1-9.66,3.62,22.63,22.63,0,0,1-9-.43c-3.07-.83-4.18-1.61-4.57-2-.09-.34-.28-1.17-.67-3.16-.5-2.52-1.07-5.7-1.7-9.45s-1.34-7.91-2.12-12.24-1.48-8.45-2.11-12.2-1.17-6.94-1.61-9.45c-.22-1.29-.4-2.23-.55-2.88s-.58-2.64-2.39-2.37c-1.45.23-1.65,1.59-1.78,2.59-.1.69-.21,1.67-.34,3-.26,2.64-.53,5.95-.8,9.85s-.59,8.15-.93,12.68-.65,8.68-.93,12.7-.53,7.23-.78,9.83c-.18,1.91-.29,2.82-.35,3.24a22.66,22.66,0,0,1-4.52,3.5c-.46.27-1.8,1-4.66-.4l-29.43-56.73,10.31,60.77a18.48,18.48,0,0,1-5.07,4.68,22.33,22.33,0,0,1-8.72,3.38,25.87,25.87,0,0,1-10.4-.49,21.32,21.32,0,0,1-9.8-5.75L191.64,391.17a16.38,16.38,0,0,1,6.12-5.82,30.48,30.48,0,0,1,8.87-3.13,31.54,31.54,0,0,1,8.91-.44,30.14,30.14,0,0,1,6.23,1.19l33.66,54.45,7.73-46.11a35.3,35.3,0,0,0,3.87.21c5.51,0,11-2,16.44-5.85A59.81,59.81,0,0,0,296.34,373Z" transform="translate(0.06 -51.86)"/><path d="M420,410a63.51,63.51,0,0,0-7.23-20.23,41.06,41.06,0,0,0-13-13.88c-5.18-3.4-11.48-5.13-18.75-5.13-1.18,0-2.36,0-3.53.12-.4.59-.8,1.15-1.21,1.7a59.86,59.86,0,0,1-13.23,13.12c-5.4,3.88-10.93,5.85-16.44,5.85a35.38,35.38,0,0,1-6.65-.61,72.56,72.56,0,0,0-12.13,22.18,88,88,0,0,0-4.6,29,76.67,76.67,0,0,0,3.4,23.11,60.86,60.86,0,0,0,9.43,18.64,46.22,46.22,0,0,0,14.26,12.47,36.66,36.66,0,0,0,18,4.55,45.91,45.91,0,0,0,21.51-7A59.48,59.48,0,0,0,406,478.42a77.65,77.65,0,0,0,10.52-21.13,101.78,101.78,0,0,0,4.7-23.8A92.16,92.16,0,0,0,420,410ZM387.1,439a66.86,66.86,0,0,1-3.18,14.85,33.89,33.89,0,0,1-6.45,11.5,13.17,13.17,0,0,1-10.16,4.76h-.6c-2.5-.27-5.92-1.67-8-6.74a36.13,36.13,0,0,1-2.4-12.9,83.8,83.8,0,0,1,5.56-30.81,43.11,43.11,0,0,1,6.45-11.44c2.79-3.36,5.93-4.73,9.35-4.05l.22.06c2.79.93,5,3.36,6.65,7.22a41.19,41.19,0,0,1,2.81,12.47A82.74,82.74,0,0,1,387.1,439Z" transform="translate(0.06 -51.86)"/><path d="M545,382.87l-13.32,117c-2.95,3.44-6.12,5.6-9.45,6.38a24.64,24.64,0,0,1-10.31.39,22.44,22.44,0,0,1-8.41-3.25c-2.65-1.75-3.46-2.85-3.7-3.35,0-.35.09-1.19.36-3.21.32-2.54.78-5.73,1.37-9.49s1.22-7.9,1.85-12.29,1.26-8.46,1.85-12.25,1.08-6.94,1.46-9.47c.19-1.29.32-2.24.39-2.9.09-.81.28-2.7-1.52-3-1.46-.24-2.06,1-2.51,1.9-.31.61-.72,1.51-1.28,2.75-1.07,2.42-2.38,5.48-3.86,9.09s-3.19,7.7-4.88,11.74-3.34,8-4.89,11.75-2.8,6.69-3.85,9.09c-.78,1.75-1.17,2.58-1.36,3a22.4,22.4,0,0,1-5.4,1.89c-.52.12-2,.43-4.29-1.85l-10-63.12-9.41,60.91a18.35,18.35,0,0,1-6.28,2.84,22.45,22.45,0,0,1-9.34.45,26,26,0,0,1-9.72-3.74,21.4,21.4,0,0,1-7.48-8.55l16.47-103a37.63,37.63,0,0,0,7.43-5.06,63.18,63.18,0,0,0,11.37-13.15l.55.07a31.36,31.36,0,0,1,8.6,2.4,30.43,30.43,0,0,1,5.53,3.1l14.74,62.29,22.88-43.16c.39.28.8.55,1.21.81a28.12,28.12,0,0,0,8.34,3.81,30,30,0,0,0,6.9.81c6,0,11.75-3.17,17-9.43.76-.91,1.5-1.87,2.23-2.88A4.4,4.4,0,0,1,545,382.87Z" transform="translate(0.06 -51.86)"/><path d="M565.59,294l-.05,0a4,4,0,0,0-3.8-.67,4.22,4.22,0,0,0-3.08,3.31c-4.33,19.32-9.13,36.91-14.26,52.31a150.25,150.25,0,0,1-8.7,21.54c-2.73,5.21-4.66,8.33-5.74,9.29a4.68,4.68,0,0,1-2.26,1.36,6.27,6.27,0,0,1-1.59-2.31c-.7-1.41-1.45-4.33-2.24-8.7A94.07,94.07,0,0,1,522.69,354c0-2.65.33-9.78,1-21.19.54-8,.8-13.18.8-15.69,0-10.89-1.57-18.58-4.65-22.88s-8.65-6.53-16.44-6.53a36.28,36.28,0,0,0-9.23,1.4,21.06,21.06,0,0,1-4.45.78,3.49,3.49,0,0,1-.61-.06,1.26,1.26,0,0,0,.41-.43c1.62-2.56,3.61-7.81,6.1-16.07a79.62,79.62,0,0,0,3.68-22.64,35.09,35.09,0,0,0-1.81-12,15.56,15.56,0,0,0-4.81-7.24,20.25,20.25,0,0,0-5.69-3.15,18.47,18.47,0,0,0-5.79-.91c-5.67,0-11,2.92-15.83,8.69-5.72,6.93-8.63,15.77-8.63,26.27,0,12.22,3.28,21.87,9.75,28.67a49.31,49.31,0,0,0,4.28,4,337.18,337.18,0,0,1-15.44,40.49c-11.1,24-21,36.22-29.52,36.22a4,4,0,0,1-2-1,19,19,0,0,1-3.47-3.77,38.9,38.9,0,0,1-3.92-6.67,45.37,45.37,0,0,1-3.14-10.79A84.58,84.58,0,0,1,412,334.17c0-4,.18-8.15.54-12.28,7.27,2.22,13.8,0,19.2-6.87a32.42,32.42,0,0,0,6.44-20.11c0-7.34-1.71-13.12-5.07-17.15s-8.3-6.11-14.63-6.11c-9.78,0-17.92,5.27-24.19,15.68-6.11,10.15-9.26,23.11-9.37,38.52a237.41,237.41,0,0,1-14.49,30.49c-8.2,14.06-15.54,21.19-21.81,21.19a5.06,5.06,0,0,1-2.54-.92,16.29,16.29,0,0,1-3.65-3.66,30.17,30.17,0,0,1-3.9-6.93,56.37,56.37,0,0,1-3-11.8,102.07,102.07,0,0,1-1.28-16.88,114.54,114.54,0,0,1,5.33-35.65c3.4-10.39,6.4-16.93,8.91-19.46,1.26,1.15,3,4.79,4.47,15.11a4.86,4.86,0,0,0,1.63,3.06,4.66,4.66,0,0,0,6.46,0,4.79,4.79,0,0,0,1.75-3.07c1.06-8.95-.84-16.21-5.67-21.58-3.52-3.91-8.37-5.9-14.42-5.9-9,0-17,5.61-23.79,16.68-5.14,8.41-8.52,18.6-10,30.28-6.05,16.13-12.11,29.42-18,39.52-8.2,14.06-15.54,21.19-21.81,21.19a5.06,5.06,0,0,1-2.54-.92,16.29,16.29,0,0,1-3.64-3.66,30.17,30.17,0,0,1-3.91-6.93,56.37,56.37,0,0,1-3-11.8,102.25,102.25,0,0,1-1.28-16.88,114.54,114.54,0,0,1,5.33-35.65c3.4-10.39,6.39-16.93,8.91-19.46,1.26,1.15,3,4.78,4.47,15.11A4.86,4.86,0,0,0,275,300.4a4.65,4.65,0,0,0,6.46,0,4.79,4.79,0,0,0,1.75-3.07c1.06-8.95-.84-16.21-5.67-21.58-3.52-3.91-8.37-5.9-14.42-5.9-9,0-17,5.61-23.79,16.68a72.1,72.1,0,0,0-8.81,23c-1.41,2.07-3,4.22-4.8,6.4-3.76,4.62-7.59,7.79-11.38,9.42v-1.69c0-13.24-2.46-23.87-7.31-31.57s-11.6-11.72-19.92-11.72a8.76,8.76,0,0,0-1.85.15c-1.69-1.55-4.4-2.33-8.07-2.33-7.12,0-13.29,4.31-18.36,12.83a4.94,4.94,0,0,0-3.95-1.53c-17.9,1.58-38.62,7.37-61.61,17.2-.25-.13-.62-.35-1.17-.68s-1.15-.67-1.4-.8c-6.46-3.56-11.3-6.26-14.37-8s-7.45-4.46-12.87-7.92A96.68,96.68,0,0,1,51,280.19,120.22,120.22,0,0,1,42,271a34.51,34.51,0,0,1-6.75-10.86,33.65,33.65,0,0,1-2.06-11.64,43.75,43.75,0,0,1,2.07-12.06A65.73,65.73,0,0,1,42,221.58,80.41,80.41,0,0,1,53.28,207a50.57,50.57,0,0,1,16.61-11,55,55,0,0,1,21.73-4.33c9.61,0,16.78,2.1,21.3,6.23s6.79,10.75,6.79,19.69a63.66,63.66,0,0,1-4.14,22.84,49.15,49.15,0,0,0-1.4,4.83c-.71,3.52.31,6,3,7.25,2.32,1,4.43.37,6.31-1.94,1.36-1.9,3.23-6.52,5.71-14.1s3.69-14,3.69-19.28c0-11.32-4.92-21.18-14.64-29.3s-23.87-12.21-42.13-12.21c-22.64,0-41.17,8.26-55.08,24.56A73.85,73.85,0,0,0,8,222.18c-2.84,7.67-4.29,14.73-4.29,21A54.31,54.31,0,0,0,6,259.05a69.86,69.86,0,0,0,5.49,13.28,50.28,50.28,0,0,0,9.21,11.61,130.52,130.52,0,0,0,10.74,9.45,123.43,123.43,0,0,0,13,8.46C50,305,54.41,307.46,57.7,309.1s7.8,3.87,13.88,6.84a6.35,6.35,0,0,0,1,.42l.05,0c-21,11.11-38.46,24.16-52,38.79C6.92,370.06-.06,386.41-.06,403.77c0,9.77,4.78,17.71,14.2,23.59s22.08,8.79,37.82,8.79c28,0,51.78-8.11,70.69-24.1a81.23,81.23,0,0,0,19-23.13c4.58-8.49,6.9-17,6.9-25.4,0-10.26-4.15-19.51-12.34-27.5-8-7.77-19.35-15.9-33.86-24.18,20.61-8.16,38.44-12.94,53-14.22-.24.55-.48,1.11-.72,1.69a106.89,106.89,0,0,0-6.77,35.85c0,14.58,3.67,26.62,10.91,35.78s15.62,13.86,24.85,13.86c11.67,0,20.22-8.32,25.42-24.72a114.28,114.28,0,0,0,4.56-24.74,30.46,30.46,0,0,0,14.75-8.56c-.08,1.78-.11,3.6-.11,5.41,0,17.07,4,30.91,11.79,41.12,7.33,9.6,16.39,14.46,26.94,14.46,4.7,0,9.49-1.73,14.24-5.14a56.06,56.06,0,0,0,12.4-12.3,119.82,119.82,0,0,0,10.55-17.91c1.54-3.15,3-6.17,4.27-9,1.39,12,5.15,22,11.18,29.9,7.32,9.6,16.39,14.46,26.93,14.46,4.71,0,9.5-1.73,14.25-5.14a56.06,56.06,0,0,0,12.4-12.3,119.82,119.82,0,0,0,10.55-17.91c1.2-2.45,2.34-4.84,3.4-7.13a61.65,61.65,0,0,0,9.46,20.18c7.85,11,17.25,16.55,27.94,16.55,6.16,0,12.17-2.47,17.85-7.35s10.74-11.55,15.17-20A230,230,0,0,0,469.26,329c3.29-8.72,6.36-18.39,9.12-28.76.05-.11.1-.23.15-.37a19.41,19.41,0,0,0,7.22,1.47,30.42,30.42,0,0,0,13.79-3,28,28,0,0,1,1,7.46c0,1-.45,7.31-1.38,19.19-1.06,11.05-1.59,18.94-1.59,23.45a77.2,77.2,0,0,0,2.1,18.95c1.39,5.45,3.08,9.63,5,12.44A26.49,26.49,0,0,0,519,390a26.5,26.5,0,0,0,6,.7c4.87,0,9.63-2.72,14.13-8.09s8.37-12.65,11.68-21.85,6.24-18.69,8.74-28.3,4.78-20.26,6.75-31.64a6.06,6.06,0,0,1,.1-.92c.05-.35.09-.63.1-.87l.16-.16,0-.14A4.93,4.93,0,0,0,565.59,294Zm-76.54-39.33a66.62,66.62,0,0,1-6,27.81,37.9,37.9,0,0,1-1-9.17c0-15.64,1.65-26.41,4.91-32.05C488.35,243.71,489.05,248.22,489.05,254.66Zm-64.84,29.6c.06,0,.38.05,1,1a15.47,15.47,0,0,1,1.52,4.12,28.87,28.87,0,0,1,.78,7.12,27.6,27.6,0,0,1-1.17,8.49,17.82,17.82,0,0,1-2.5,5.31,12.33,12.33,0,0,1-3.16,2.87,10.56,10.56,0,0,1-2.54,1.33,4.86,4.86,0,0,1-1.08.18c-1.25,0-2.27-.85-3.11-2.61V312a105.52,105.52,0,0,1,5.42-19.89C422.23,285,423.71,284.26,424.21,284.26ZM192.6,314.89a32.69,32.69,0,0,1-4.88-17.6c0-6.14.82-7.55,1.25-7.87,3.18.08,6.26,3.29,9.17,9.55s4.52,15.16,4.71,26.31c-3.75-2-7.19-5.49-10.25-10.39Zm-2.68,56.62c-1.89,1.76-3.38,2.65-4.41,2.65-1.3-.11-2.91-1.65-4.81-4.55s-3.79-7.94-5.49-14.73A94.91,94.91,0,0,1,172.65,332a92.17,92.17,0,0,1,2.26-20.83,53.84,53.84,0,0,0,11.24,15.31,32.31,32.31,0,0,0,16.48,8.87c-1.21,17.3-5.49,29.46-12.71,36.17ZM50.85,340.29a182.19,182.19,0,0,1,20-13.26c3.21-1.92,7-3.95,11.27-6,12.75,6.26,22.66,12.51,29.43,18.57s10.16,13.42,10.16,22c0,9.63-3.93,19.4-11.69,29.06a91.1,91.1,0,0,1-30.29,24c-12.31,6.22-24.71,9.37-36.87,9.37-19.31,0-28.69-7.37-28.69-22.54a59,59,0,0,1,5-23.71,74.44,74.44,0,0,1,13.69-20.89A144.36,144.36,0,0,1,50.85,340.29Z" transform="translate(0.06 -51.86)"/><path d="M472.33,193.94A536,536,0,0,0,525.73,235c4.81,3.24,9.32-4.55,4.54-7.76a518.54,518.54,0,0,1-51.59-39.65c-4.34-3.79-10.72,2.55-6.35,6.36Z" transform="translate(0.06 -51.86)"/><path d="M492.37,183.66a377.45,377.45,0,0,0,37.28,28.65c4.81,3.25,9.32-4.54,4.54-7.76a358.37,358.37,0,0,1-35.46-27.25c-4.34-3.79-10.73,2.55-6.36,6.36Z" transform="translate(0.06 -51.86)"/><path d="M81.15,448.24c-.09-3.1,1.48-6.24,4.81-9.6A14.62,14.62,0,0,1,98.32,434c13.2,1.35,27.22,18.51,33.23,26.73-1.32-9.37-2.09-20.12,1.25-29.83a16,16,0,0,1,6.81-8.7,19.22,19.22,0,0,1,12-2.13h.07c3.59.48,6.68.88,9.49,3.64,9.51,9.35,9.18,25.42,7.23,37.25-.07.4-.14.8-.22,1.2l-.18,1c-3.34,19.51-14.46,47-14.85,47.22l-.09.06-.11,0a27.26,27.26,0,0,1-7.24-3.42c-.75-.44-1.46-.86-2.15-1.24-5.89-3.26-12-6.92-18.2-10.89a248.89,248.89,0,0,1-20.49-14.5C98.17,475.07,91.2,469.23,86.57,462a25.16,25.16,0,0,1-2.16-4.07c-.3-.71-.63-1.43-1-2.13l-.24-.52A18.53,18.53,0,0,1,81.15,448.24Z" transform="translate(0.06 -51.86)"/></svg>