<svg id="katman_1" data-name="katman 1" xmlns="http://www.w3.org/2000/svg" viewBox="0 0 566.93 473.45"><path d="M269.47,46.28H269A158.46,158.46,0,0,0,114,174.5c0,.08,0,.16,0,.24a44.27,44.27,0,0,1,6.78,4.68c.12.09.21.18.32.28,0-.08,0-.17,0-.25A151.36,151.36,0,0,1,167.1,94.23a33,33,0,0,0,6.31,2.54c-3,8.07-6.12,17.39-7.77,26.46a126.57,126.57,0,0,0-1.57,25.91c-9,12.88-15.23,22.35-18.42,28.15a175,175,0,0,0-10.5,22.5h-.23a39.31,39.31,0,0,1,1.75,11.79v.1l.21.5a220.21,220.21,0,0,0,10.93,23.5c3.26,6,8.69,14.05,16.16,23.83.09,4.77.22,9.21.47,13.38a21.59,21.59,0,0,1,7.62-3.65q-.18-4.22-.27-8.85c14-6.39,27.52-12.37,40.2-17.78l37.45,21.68a25.39,25.39,0,0,1,9.34-3.62l-43-24.9-.09-3c0-1.33-.07-2.66-.1-4v-.16l-.09-3.86,0-1.41c0-.87,0-1.73,0-2.6v-.39c0-1.2,0-2.4,0-3.6v-.5c0-1.15,0-2.31,0-3.46v-.65c0-1.1,0-2.2,0-3.3v-.79c0-1,0-2.1,0-3.13l.08-7.81.61-19.29c.06-1.29.13-2.54.19-3.83l.1-2.17c10.42-6,30.25-17.36,53.17-30.47,16.52,9.18,35.41,20,56.17,32.21L325.33,235c-15.46,9.78-32.2,19.34-49.85,28.48a20.68,20.68,0,0,1,5,4.09c5.62,6.25,7.86,14.56,6.65,24.7a8.72,8.72,0,0,1-3.09,5.6,8.61,8.61,0,0,1-11.74-.1,8.9,8.9,0,0,1-2.87-5.48c-.42-2.84-.83-5.06-1.23-6.79-.09.18-.17.38-.26.59,1.29,9,2.19,19.53,2.68,31.49-3.32,1.52-7.37,3.32-11.69,5.06h0c-.2,2.81-.31,5.65-.31,8.56,6.28-2.49,12.29-5.14,16.84-7.28,9.4.95,17.25,1.5,23.42,1.66,2-4.75,4.08-9.86,6.12-15.28,1.62-12,5.15-22.6,10.52-31.38,7.58-12.33,16.72-18.58,27.17-18.58,7.23,0,13.07,2.43,17.38,7.22a26.46,26.46,0,0,1,6.17,12.07q2.34-5.07,4.85-10.85a168.38,168.38,0,0,0,22.39-16.11,170,170,0,0,0,18.28-19.16c.47.5,1,1,1.48,1.51.95.92,2,1.88,3.13,2.84a147.84,147.84,0,0,1-8.56,26.28l-.12.29a28,28,0,0,1,9.27-2l.09-.21a157.76,157.76,0,0,0,10.81-57.93C427.58,117.12,356.55,46.28,269.47,46.28Zm-3.59,88.21c-25,14.28-43.54,24.91-53.61,30.72-13.51-5.08-27.1-10.78-40.42-17a118.15,118.15,0,0,1,1.47-23.63c1.6-8.81,4.65-17.87,8.75-28.72,9.58-6.39,16.66-10.85,21.07-13.29a184.39,184.39,0,0,1,17.06-8.37c11,1.75,20.08,3.49,28.37,6.36a127.82,127.82,0,0,1,22,10.45A366.48,366.48,0,0,1,265.88,134.49Zm39.61-51.33c-.9,0-1.86,0-2.87,0-6.63,0-15.82.56-27.31,1.66a139,139,0,0,0-24.2-11.57,160.87,160.87,0,0,0-25.47-6,56.34,56.34,0,0,0,1.19-7,151.22,151.22,0,0,1,42.23-6.12h.4a150.71,150.71,0,0,1,72.66,18.67l-7.94,13C321.75,84.07,312.09,83.21,305.49,83.16ZM408.73,224.89c-6.49,7.81-13,15.36-20.42,21.87a156.2,156.2,0,0,1-20.08,14.54c-9.7-6.66-21.1-15.08-33.88-25l-1.22-.95.36-62.06c12.85-9.94,24.8-18.46,35.58-25.35,7.92,4.78,16.11,10,22.87,16.05a121.14,121.14,0,0,1,16.61,18.94c.6,9.06.91,16.13.89,21.05C409.49,208.63,409.24,215.67,408.73,224.89Zm3.57-50a119.35,119.35,0,0,0-15.16-16.76c-7.41-6.61-16.31-12.27-24.86-17.41-7.52-15.06-13.16-25.6-16.74-31.3a168.9,168.9,0,0,0-14.51-20l7.82-12.79a151.27,151.27,0,0,1,67.45,94.58C414.81,172.52,413.47,173.73,412.3,174.91Z" transform="translate(0.05 -46.28)"/><path d="M472.33,188.36a535.89,535.89,0,0,0,53.4,41c4.81,3.24,9.32-4.54,4.54-7.76A516.94,516.94,0,0,1,478.68,182c-4.34-3.79-10.72,2.54-6.35,6.36Z" transform="translate(0.05 -46.28)"/><path d="M492.37,178.07a377.55,377.55,0,0,0,37.28,28.66c4.81,3.24,9.32-4.54,4.54-7.76a359.9,359.9,0,0,1-35.46-27.25c-4.34-3.79-10.72,2.54-6.36,6.35Z" transform="translate(0.05 -46.28)"/><path d="M69.71,446.65c-.09-3.1,1.48-6.24,4.81-9.59a14.6,14.6,0,0,1,12.36-4.61c13.2,1.36,27.22,18.52,33.22,26.74-1.31-9.38-2.09-20.13,1.26-29.84a16.06,16.06,0,0,1,6.8-8.7,19.18,19.18,0,0,1,12.06-2.12h.07c3.59.47,6.68.88,9.49,3.63,9.51,9.35,9.18,25.42,7.23,37.25-.07.4-.14.81-.22,1.21l-.18,1c-3.34,19.51-14.47,47-14.85,47.22l-.09.07-.11,0a27.78,27.78,0,0,1-7.25-3.42c-.74-.45-1.45-.86-2.14-1.25-5.9-3.25-12-6.92-18.2-10.89a248.89,248.89,0,0,1-20.49-14.5c-6.75-5.35-13.72-11.18-18.35-18.42A26.51,26.51,0,0,1,73,456.34c-.29-.71-.62-1.43-.94-2.13l-.24-.53A18.35,18.35,0,0,1,69.71,446.65Z" transform="translate(0.05 -46.28)"/><path d="M290.6,425.21c-1.89-13.83-5.85-26-11.75-36.19q-1.39-2.38-2.94-4.55a24.89,24.89,0,0,1-8.87,1.68c-11.85,0-22-5.39-30.09-16a54.17,54.17,0,0,1-4.24-6.5c-.67.07-1.35.15-2,.24-10.56,1.45-18.43,3.2-23.87,5.34a31.19,31.19,0,0,1-10.14,10.38,10.51,10.51,0,0,0,0,1.24V381c.55,8,2.16,21.86,4.82,41.21,2.18,16,4.89,34,8.05,53.6,2.69,17.2,4.61,28.37,5.68,33.2l0,.17c3.57,12.81,24.69,9.92,31.63,9a39.64,39.64,0,0,0,23.89-12.18,67.86,67.86,0,0,0,14.66-24.56C291.57,463.94,293.32,445.05,290.6,425.21Zm-34,34.67a60.57,60.57,0,0,1-4.44,18.75,14.75,14.75,0,0,1-3.7,5.41c-1.69-12-4.1-27.83-7.18-47.25s-5.65-34.63-7.65-45.4a13.38,13.38,0,0,1,8.6,4.54,42.64,42.64,0,0,1,9,15.59,106,106,0,0,1,4.67,19.66A127.53,127.53,0,0,1,256.65,459.88Z" transform="translate(0.05 -46.28)"/><path d="M411.84,458.18c-8.22-46.33-14.15-74.7-18.16-86.73l-.07-.19a17.29,17.29,0,0,0-9.93-10.13,20.76,20.76,0,0,0-2.66-.89c-1.53,2.51-3.06,4.79-4.57,6.85a59.62,59.62,0,0,1-13.27,13.17,30.41,30.41,0,0,1-12.5,5.54c-3,7-6.18,15-9.5,24-6.37,17.37-12.27,35-17.54,52.38s-8.86,31.08-10.62,40.54l-.16,2.14v.19a11.67,11.67,0,0,0,4.27,9.47l.15.11a16.21,16.21,0,0,0,9.61,3.15c.16,0,.42,0,2.95-.16,2.8-.18,5.17-1.95,7-5.28l.15-.29c1.48-3.38,3.4-8.79,5.87-16.45,1.68-4.85,2.49-7.09,2.85-8.11.79-.39,2.89-1.14,8.11-1.88a127.18,127.18,0,0,1,18.87-1.49,26.47,26.47,0,0,1,7,.61c.75,1.23,2.79,6.09,5.49,24.55l.06.33c1.17,4.6,5,10.09,16.58,10.09A28.28,28.28,0,0,0,412,517.88c6.74-2.7,8.16-7.41,8.16-10.88C420.11,506.23,420.11,504.79,411.84,458.18Zm-36,3.59a21.28,21.28,0,0,1-3.12.62,67.38,67.38,0,0,1-9.17.57h-1.72c-5.16,0-7.59-.39-8.67-.68.38-3,2.11-10.12,8.23-27.48,3.58-10.25,5.92-16.31,7.44-19.88.91,3.69,2.21,9.92,3.94,20.45,2.05,12.41,3.1,21,3.1,25.41C375.91,461.2,375.89,461.51,375.88,461.77Z" transform="translate(0.05 -46.28)"/><path d="M539.32,398.55a60.67,60.67,0,0,0-4.8-12.19,18.24,18.24,0,0,1-9.51,2.76,30.06,30.06,0,0,1-7-.81,28.48,28.48,0,0,1-8.4-3.83,28.85,28.85,0,0,1-8.22-8c-2.2-3.19-4.08-7.81-5.6-13.72-.1-.43-.21-.86-.31-1.3-11.6-1.25-19.82-1.16-25.11.27-5.86,1.6-7.83,5.13-8.43,7.83l0,.11c-1.53,7.87-3.51,21.68-5.91,41.06-2,16-4,34.12-5.95,53.88-1.81,17.32-2.83,28.6-3,33.53v.18c.18,13.31,21.33,15.93,28.28,16.79a39.69,39.69,0,0,0,26.21-5.65,67.83,67.83,0,0,0,20.47-20c10.4-15.24,16.92-33.06,19.38-52.94C543.13,422.7,542.43,409.93,539.32,398.55Zm-33,34.89a128.4,128.4,0,0,1-6.64,27.92c-2.62,7.06-5.68,12.77-9.1,17a14.77,14.77,0,0,1-5,4.28c1.43-12,3.18-27.95,5.18-47.51s3.41-34.93,4.23-45.85a13.46,13.46,0,0,1,7.16,6.6,42.67,42.67,0,0,1,4.66,17.37A107.56,107.56,0,0,1,506.36,433.44Z" transform="translate(0.05 -46.28)"/><path d="M565.59,288.4l-.05,0a4,4,0,0,0-3.8-.66,4.19,4.19,0,0,0-3.08,3.31c-4.33,19.31-9.13,36.91-14.26,52.3a152.26,152.26,0,0,1-8.69,21.55c-2.74,5.2-4.67,8.33-5.75,9.28a4.83,4.83,0,0,1-2.26,1.37,6.26,6.26,0,0,1-1.59-2.32c-.7-1.4-1.45-4.33-2.23-8.7a92.79,92.79,0,0,1-1.19-16.08c0-2.65.34-9.77,1-21.18.54-8.05.8-13.18.8-15.7,0-10.88-1.57-18.58-4.65-22.87s-8.65-6.54-16.44-6.54a36.28,36.28,0,0,0-9.23,1.4,21.06,21.06,0,0,1-4.45.78,3.48,3.48,0,0,1-.61-.05,1.26,1.26,0,0,0,.41-.43c1.62-2.56,3.61-7.82,6.1-16.08a79.59,79.59,0,0,0,3.69-22.63,34.83,34.83,0,0,0-1.82-12,15.65,15.65,0,0,0-4.81-7.25,20.2,20.2,0,0,0-5.69-3.14,18.19,18.19,0,0,0-5.79-.92c-5.67,0-11,2.93-15.82,8.7-5.73,6.93-8.64,15.76-8.64,26.27,0,12.22,3.28,21.87,9.75,28.67a49.31,49.31,0,0,0,4.28,4A338.47,338.47,0,0,1,455.32,330c-11.1,24-21,36.22-29.52,36.22a4.07,4.07,0,0,1-2-1,18.46,18.46,0,0,1-3.47-3.77,38.4,38.4,0,0,1-3.92-6.66A45.37,45.37,0,0,1,413.26,344,84.66,84.66,0,0,1,412,328.59c0-4,.19-8.16.54-12.28,7.28,2.22,13.8,0,19.2-6.88a32.4,32.4,0,0,0,6.44-20.11c0-7.34-1.71-13.11-5.07-17.15s-8.3-6.11-14.63-6.11c-9.78,0-17.91,5.28-24.19,15.69-6.11,10.15-9.26,23.11-9.36,38.52a239.33,239.33,0,0,1-14.5,30.49C362.21,364.82,354.87,372,348.6,372a4.94,4.94,0,0,1-2.53-.93,15.87,15.87,0,0,1-3.65-3.66,29.8,29.8,0,0,1-3.91-6.93,56.2,56.2,0,0,1-3-11.8,102,102,0,0,1-1.28-16.87,114.5,114.5,0,0,1,5.33-35.65c3.4-10.39,6.4-16.94,8.91-19.46,1.26,1.15,3,4.78,4.47,15.11a4.91,4.91,0,0,0,1.63,3.06,4.67,4.67,0,0,0,6.46,0,4.81,4.81,0,0,0,1.75-3.07c1.07-8.95-.84-16.22-5.67-21.58-3.51-3.92-8.37-5.9-14.42-5.9-9,0-17,5.61-23.79,16.67-5.14,8.42-8.51,18.61-10,30.29-6.06,16.12-12.12,29.42-18,39.52C282.63,364.82,275.29,372,269,372a4.94,4.94,0,0,1-2.53-.93,15.87,15.87,0,0,1-3.65-3.66,29.75,29.75,0,0,1-3.91-6.93,56.37,56.37,0,0,1-3-11.8,102.12,102.12,0,0,1-1.28-16.87,114.5,114.5,0,0,1,5.33-35.65c3.4-10.39,6.4-16.94,8.91-19.46,1.26,1.15,3,4.78,4.47,15.11a4.91,4.91,0,0,0,1.63,3.06,4.67,4.67,0,0,0,6.46,0,4.81,4.81,0,0,0,1.75-3.07c1.07-8.95-.84-16.22-5.67-21.58-3.51-3.92-8.37-5.9-14.42-5.9-9,0-17,5.61-23.79,16.67a72.25,72.25,0,0,0-8.81,23c-1.41,2.06-3,4.22-4.8,6.4-3.76,4.62-7.59,7.78-11.38,9.42v-1.69c0-13.25-2.46-23.87-7.31-31.58s-11.6-11.71-19.92-11.71a8.89,8.89,0,0,0-1.85.14c-1.69-1.54-4.4-2.33-8.06-2.33-7.13,0-13.3,4.32-18.37,12.84a4.87,4.87,0,0,0-3.95-1.53c-17.89,1.58-38.62,7.36-61.61,17.2-.25-.13-.62-.35-1.17-.68s-1.15-.67-1.4-.8c-6.46-3.56-11.29-6.26-14.37-8s-7.44-4.45-12.87-7.92A96.77,96.77,0,0,1,51,274.61a122.37,122.37,0,0,1-9-9.19,34.4,34.4,0,0,1-6.75-10.86,33.6,33.6,0,0,1-2.05-11.64,43.69,43.69,0,0,1,2.06-12.06A65.87,65.87,0,0,1,42,216a80.17,80.17,0,0,1,11.24-14.59,50.42,50.42,0,0,1,16.61-11,55,55,0,0,1,21.73-4.33c9.61,0,16.78,2.09,21.3,6.23s6.79,10.74,6.79,19.68a63.83,63.83,0,0,1-4.13,22.84,47.56,47.56,0,0,0-1.41,4.83c-.71,3.52.31,6,3,7.26,2.32,1,4.43.37,6.31-1.94,1.36-1.91,3.23-6.52,5.71-14.11s3.69-14,3.69-19.27c0-11.33-4.92-21.19-14.64-29.31s-23.87-12.2-42.13-12.2c-22.64,0-41.17,8.26-55.08,24.55A74,74,0,0,0,8,216.59c-2.84,7.68-4.29,14.74-4.29,21A54.33,54.33,0,0,0,6,253.47a69.75,69.75,0,0,0,5.49,13.27,50.07,50.07,0,0,0,9.21,11.61,128.66,128.66,0,0,0,10.74,9.45,121.71,121.71,0,0,0,13,8.47c5.48,3.16,9.92,5.6,13.21,7.25s7.8,3.87,13.88,6.84a9.52,9.52,0,0,0,1,.42h.05c-21,11.12-38.46,24.16-52,38.8C6.92,364.48,0,380.83,0,398.18c0,9.78,4.77,17.71,14.19,23.59s22.08,8.8,37.82,8.8c28,0,51.78-8.11,70.69-24.1a81.1,81.1,0,0,0,19-23.14c4.58-8.49,6.9-17,6.9-25.4,0-10.26-4.15-19.51-12.33-27.49-8-7.77-19.36-15.91-33.87-24.19,20.62-8.15,38.44-12.93,53-14.21-.24.54-.48,1.1-.71,1.68a106.76,106.76,0,0,0-6.78,35.86c0,14.57,3.67,26.61,10.91,35.77s15.62,13.86,24.85,13.86c11.67,0,20.22-8.31,25.42-24.72a114.28,114.28,0,0,0,4.56-24.74,30.26,30.26,0,0,0,14.75-8.56c-.08,1.79-.11,3.6-.11,5.41,0,17.08,4,30.91,11.79,41.13,7.33,9.59,16.39,14.46,26.94,14.46,4.7,0,9.49-1.73,14.24-5.15a56,56,0,0,0,12.4-12.29,120,120,0,0,0,10.55-17.92c1.54-3.15,3-6.17,4.28-9,1.38,12,5.14,22,11.17,29.91,7.33,9.59,16.39,14.46,26.94,14.46,4.7,0,9.49-1.73,14.24-5.15a56,56,0,0,0,12.4-12.29,120.48,120.48,0,0,0,10.55-17.92c1.2-2.45,2.34-4.84,3.41-7.12a61.47,61.47,0,0,0,9.45,20.17c7.85,11,17.25,16.56,27.94,16.56,6.16,0,12.17-2.48,17.85-7.35s10.74-11.56,15.17-20a228.39,228.39,0,0,0,11.63-25.73,299,299,0,0,0,9.12-28.75,2.74,2.74,0,0,0,.15-.38,19.21,19.21,0,0,0,7.22,1.47,30.39,30.39,0,0,0,13.79-3,28,28,0,0,1,1,7.46c0,1-.46,7.31-1.39,19.19-1.05,11-1.59,18.93-1.59,23.44a77.14,77.14,0,0,0,2.1,18.95c1.39,5.45,3.08,9.64,5,12.44A26.49,26.49,0,0,0,519,384.45a26.58,26.58,0,0,0,6,.71c4.87,0,9.63-2.72,14.13-8.1s8.37-12.65,11.68-21.85,6.24-18.68,8.74-28.29,4.78-20.26,6.76-31.65a5.77,5.77,0,0,1,.09-.91,6.76,6.76,0,0,0,.1-.88l.16-.16,0-.13A4.93,4.93,0,0,0,565.59,288.4Zm-76.53-39.33a66.57,66.57,0,0,1-6,27.81,37.9,37.9,0,0,1-1-9.17c0-15.63,1.65-26.4,4.91-32C488.35,238.13,489.06,242.63,489.06,249.07Zm-64.85,29.61c.06,0,.38.05,1,1a15.22,15.22,0,0,1,1.52,4.13,28.81,28.81,0,0,1,.78,7.12,27.53,27.53,0,0,1-1.17,8.48,18,18,0,0,1-2.5,5.32,12.29,12.29,0,0,1-3.16,2.86,10.81,10.81,0,0,1-2.54,1.34,4.86,4.86,0,0,1-1.08.18c-1.25,0-2.26-.86-3.11-2.62v-.05a104.84,104.84,0,0,1,5.43-19.9C422.23,279.44,423.71,278.68,424.21,278.68Zm-231.6,30.63a32.62,32.62,0,0,1-4.89-17.61c0-6.13.82-7.54,1.25-7.86,3.18.08,6.26,3.29,9.17,9.54s4.52,15.16,4.71,26.32c-3.74-2-7.19-5.5-10.24-10.39Zm-2.69,56.61c-1.88,1.76-3.38,2.65-4.41,2.66-1.3-.12-2.91-1.65-4.81-4.56s-3.79-7.94-5.49-14.73a94.91,94.91,0,0,1-2.56-22.89,92.3,92.3,0,0,1,2.26-20.83,53.88,53.88,0,0,0,11.24,15.32,32.31,32.31,0,0,0,16.48,8.87c-1.21,17.29-5.49,29.46-12.71,36.16ZM50.85,334.7a181.38,181.38,0,0,1,20-13.26c3.2-1.92,7-3.95,11.26-6,12.76,6.26,22.66,12.51,29.44,18.56s10.15,13.42,10.15,22c0,9.62-3.93,19.4-11.69,29.06a91.23,91.23,0,0,1-30.29,24c-12.31,6.21-24.71,9.36-36.87,9.36-19.31,0-28.69-7.37-28.69-22.54a59,59,0,0,1,5-23.7,74.11,74.11,0,0,1,13.7-20.89A143.7,143.7,0,0,1,50.85,334.7Z" transform="translate(0.05 -46.28)"/></svg>