<svg id="katman_1" data-name="katman 1" xmlns="http://www.w3.org/2000/svg" viewBox="0 0 495.96 566.93"><path d="M405.41,28h-.34a125.72,125.72,0,0,0-88.34,214.86,124.91,124.91,0,0,0,88.66,36.59h.34A125.87,125.87,0,0,0,531.13,153.4C531,84.26,474.55,28,405.41,28ZM322.83,89.25a100.56,100.56,0,0,0-1.26,20.45c-7.1,10.14-12,17.61-14.5,22.2a137.7,137.7,0,0,0-8.24,17.6l-12.06.16a119.42,119.42,0,0,1,37.7-82.76,27.1,27.1,0,0,0,4.37,1.77A128.76,128.76,0,0,0,322.83,89.25Zm.54,131.48a101.31,101.31,0,0,0,5.28,17.66c-1.48.39-3.14.88-4.93,1.48a117.69,117.69,0,0,1-37-83.18l12-.17c4.07,10.07,7.45,17.48,10,22a155.94,155.94,0,0,0,12.73,18.8C321.67,206.3,322.06,213.73,323.37,220.73ZM406.5,63.78Zm50,65.36c10-7.74,19.34-14.39,27.74-19.77,6.11,3.69,12.48,7.76,17.8,12.51a95.62,95.62,0,0,1,13,14.82c.48,7.1.72,12.66.7,16.52,0,3.65-.15,9.16-.56,16.39-5.07,6.1-10.12,12-16,17.15a124.61,124.61,0,0,1-15.6,11.32C476,192.84,467,186.23,457,178.44l-.79-.62Zm62,.44a95.34,95.34,0,0,0-11.76-12.94c-5.89-5.25-12.91-9.71-19.64-13.76C481.16,91,476.71,82.7,473.87,78.2a134.93,134.93,0,0,0-11.32-15.61l5.81-9.5a119.46,119.46,0,0,1,52.76,74.1C520.16,128,519.27,128.8,518.47,129.58ZM363.27,176c0-1.05-.06-2.1-.09-3.28,0-1-.05-2-.06-3.05l-.06-3.47,0-2.84,0-3.65v-3.24c0-.83,0-1.66,0-2.48l.07-6.17.48-15.26.15-3,.07-1.48c8.18-4.72,23.7-13.6,41.66-23.87,13,7.21,27.79,15.7,44,25.24l-.29,48.07c-13.56,8.56-28.37,16.92-44,24.84l-41.83-24.21Zm-3.38,8.25L402,208.65c2,8.7,3.25,20.19,3.83,34.17a216.67,216.67,0,0,1-20.64,8.25,147.54,147.54,0,0,1-18.65,4.68c-7.12-3.53-12.45-6.3-15.84-8.22-4.08-2.29-8.9-5.22-14.34-8.7a101.9,101.9,0,0,1-6.1-19.4,129.49,129.49,0,0,1-1.74-21.29C339.47,193.16,350,188.5,359.89,184.27ZM456.39,59.2a193.76,193.76,0,0,0-22.47-2q-1.07,0-2.28,0c-5.23,0-12.47.44-21.52,1.3A109,109,0,0,0,391,49.36a125,125,0,0,0-19.78-4.69,46.92,46.92,0,0,0,.82-4.89,118.86,118.86,0,0,1,33-4.75h.31a119,119,0,0,1,56.9,14.5ZM402.18,98c-19.62,11.22-34.17,19.54-42.07,24.1-10.54-4-21.14-8.41-31.53-13.22a91.31,91.31,0,0,1,1.17-18.35c1.25-6.94,3.64-14,6.85-22.53,7.51-5,13.07-8.51,16.53-10.42A140.42,140.42,0,0,1,366.49,51c8.62,1.36,15.72,2.74,22.24,5a98.61,98.61,0,0,1,17.09,8.11A289.12,289.12,0,0,1,402.18,98ZM387.4,257.74a216.67,216.67,0,0,0,22.79-9.2,205.24,205.24,0,0,0,23.06,1.33,224.69,224.69,0,0,0,23.29-1.77l5.86,9.78a119,119,0,0,1-56.69,14.56h-.49a118.17,118.17,0,0,1-33.37-4.81q-.45-3.21-1-5.57A145.11,145.11,0,0,0,387.4,257.74Zm82.19-22.14c4.57-5.63,10.13-16,16.53-30.83a133.77,133.77,0,0,0,17.67-12.72A135.28,135.28,0,0,0,518,177.2c.27.29.56.58.86.87.69.68,1.47,1.39,2.3,2.1a119.51,119.51,0,0,1-52.69,74.15l-5.77-9.64C465.63,241,468,237.89,469.59,235.6Z" transform="translate(-35.17 -0.59)"/><path d="M522.71,59.62a599.19,599.19,0,0,1-59.6-45.8c-5-4.38-12.38,2.93-7.34,7.34a620.11,620.11,0,0,0,61.7,47.42C523,72.32,528.23,63.33,522.71,59.62Z" transform="translate(-35.17 -0.59)"/><path d="M527.24,33.42a415,415,0,0,1-41-31.48c-5-4.38-12.39,2.94-7.34,7.34A436.86,436.86,0,0,0,522,42.39C527.56,46.13,532.76,37.14,527.24,33.42Z" transform="translate(-35.17 -0.59)"/><path d="M59.15,186.21a266.85,266.85,0,0,0,7.66-64.95A148.16,148.16,0,0,0,63.48,88q-2-9-12.32-26c-3.55-6-5.33-10.54-5.33-13.66q0-13.65,29.64-18.65A148.15,148.15,0,0,1,98.12,28q35,0,48,11.32a14.81,14.81,0,0,1,4.33,9q0,4.68-8.33,18.32-7.67,12.66-10,22-2.67,11.32-2.66,35.31,0,44.63,7.33,59.28,7,13,20.64,13.32,20.32,0,35.31-17a48.16,48.16,0,0,0,4.33-5.33q11-12.66,18.65-15.32a24.06,24.06,0,0,1,7-1q25.65,0,29.31,29.64a68.89,68.89,0,0,1,.67,9.66q0,30-16.32,57.28-15,24.66-32,25H96.12q-60.62-.33-60.95-32,0-12.66,11-32.31Q56.48,197.2,59.15,186.21Z" transform="translate(-35.17 -0.59)"/><path d="M199.7,331.72q4.67-13.32,32.31-18a104.06,104.06,0,0,1,16.32-1.33q27.63,0,34.3,10.33a9.55,9.55,0,0,1,1.67,5,23.77,23.77,0,0,1-1,4q-1.68,5.32-15.32,20Q256.65,364,251.32,373q-16,28-32.3,92.25-2.34,9.33-3.67,16.32-3,15-3,39.3,0,24-5,32.31-9.33,14.32-44.29,14.32-41.31,0-53.29-15.32-7.66-9.66-10.33-37-2.67-25.31-4-33.64a501.85,501.85,0,0,0-21-86.92,146.82,146.82,0,0,0-9-21.65q-4.67-8.65-20.31-26.65-8-9.31-9.66-14.65a11,11,0,0,1-.34-2.67q0-11.64,30.64-15.65a183,183,0,0,1,19.32-1q35,0,51,11.33,5.32,3.66,6.66,8a19.83,19.83,0,0,1,.67,4.66q0,2.67-4,18.32a52.51,52.51,0,0,0-2.33,14.65q0,12.67,7,37,2.32,7.67,6.66,25.32,11,42.63,16.32,45.62a2.51,2.51,0,0,0,1,.34q5.66,0,17.32-40.3,7-24.32,9.33-31,8-26,9-32.3.33-3.66.33-7,0-5.32-4-21.64a43.5,43.5,0,0,1-1-8A18.56,18.56,0,0,1,199.7,331.72Zm-96.92-1.67q2,4.33,10,5.33,8.66-1,10-5.33,0-4-7-5.66a15.57,15.57,0,0,0-3-.33q-8,0-9.66,4.66A5.36,5.36,0,0,0,102.78,330.05Zm138.55,0q2,4.33,10,5.33,8.67-1,10-5.33,0-4-7-5.66a15.58,15.58,0,0,0-3-.33c-5.32,0-8.55,1.56-9.65,4.66A5.36,5.36,0,0,0,241.33,330.05Z" transform="translate(-35.17 -0.59)"/><path d="M337.63,474.27a267.34,267.34,0,0,0,7.66-64.95A148.74,148.74,0,0,0,342,376q-2-9-12.33-26-5.33-9-5.33-13.66.33-16.65,52.29-16.65H492.83q12.32,0,23,19.32a71.39,71.39,0,0,1,9,34.3q0,23-12,26.65a12.65,12.65,0,0,1-4,.66q-9,0-18-11-10.66-13-16.32-16.65-11.33-7.66-27.31-7.66-21,0-33.64,16-6.33,8-6.33,15.33,0,10.32,11.66,12a23.48,23.48,0,0,0,4,.34q7.65,0,19-8.33,6-4.32,9-4.33,8.33,0,12,15.66a64.42,64.42,0,0,1,1.34,13.32q0,20.65-8.66,27.64a8,8,0,0,1-4.67,1.67q-3,0-11.65-6.67-9-6.31-16.32-6.32-13,.33-13.32,11,0,12,11.65,24.31,8,7.33,14.66,7.66,20.31,0,35.3-17a48.16,48.16,0,0,0,4.33-5.33q11-12.66,18.65-15.32a24.06,24.06,0,0,1,7-1q25.65,0,29.31,29.64a67.41,67.41,0,0,1,.67,9.66q0,30-16.32,57.28-15,24.66-32,25H374.59q-60.61-.33-60.94-32,0-12.66,11-32.31Q335,485.26,337.63,474.27ZM483.5,327.06q-5.33.33-5.66,4,0,4.68,7.33,7.66a13.94,13.94,0,0,0,5.66,1.34q5.32-.33,5.66-4,0-4.67-7.32-7.66A14,14,0,0,0,483.5,327.06Z" transform="translate(-35.17 -0.59)"/><circle cx="185.03" cy="42.35" r="23.89"/><circle cx="163.3" cy="96.07" r="18.09"/><circle cx="206.44" cy="83.3" r="12.78"/><circle cx="247.32" cy="481.79" r="23.89"/><circle cx="225.58" cy="428.06" r="18.09"/><circle cx="268.72" cy="440.84" r="12.78"/></svg>