<?xml version="1.0" encoding="utf-8"?>
<!-- Generator: Adobe Illustrator 23.0.3, SVG Export Plug-In . SVG Version: 6.00 Build 0)  -->
<svg version="1.1" id="Layer_1" xmlns="http://www.w3.org/2000/svg" xmlns:xlink="http://www.w3.org/1999/xlink" x="0px" y="0px"
	 viewBox="0 0 1133.9 1133.9" style="enable-background:new 0 0 1133.9 1133.9;" xml:space="preserve">
<style type="text/css">
	.st0{fill:#1E2121;}
	.st1{fill:#A81F26;}
	.st2{fill:#F2F1F2;}
	.st3{fill:#DD353A;}
	.st4{fill:#CFCFCE;}
	.st5{fill:#1D2121;}
	.st6{fill:none;}
	.st7{fill:#AA1F23;}
	.st8{fill:#FDFEFE;}
	.st9{fill:#EE742C;}
	.st10{fill:#BA5234;}
	.st11{fill:#ED1C24;}
	.st12{fill:#C42C3A;}
	.st13{fill:#058743;}
	.st14{fill:#0F4D70;}
	.st15{fill-rule:evenodd;clip-rule:evenodd;fill:#C42C3A;}
	.st16{fill-rule:evenodd;clip-rule:evenodd;fill:#1E2121;}
	.st17{fill:#E8E8E8;}
	.st18{fill:#186634;}
	.st19{fill:#BF2730;}
	.st20{fill:#B47A48;}
	.st21{fill:#3E1E14;}
	.st22{fill:#DBAD5D;}
	.st23{fill:#B84947;}
	.st24{fill:#C3976E;}
	.st25{fill:#9D2023;}
	.st26{fill:#3C2517;}
	.st27{fill:#4A3A31;}
	.st28{fill:#EDAD4F;}
	.st29{fill:#F8C018;}
</style>
<g>
	<g>
		<path class="st5" d="M126.4,777.3c0,1.1,0.9,2,2,2c1.1,0,2-0.9,2-2v-2.6l1.5,1.5c0.8,0.8,2,0.8,2.8,0c0.8-0.8,0.8-2,0-2.8
			l-4.3-4.3v-2.8l3.6,3.6c0.8,0.8,2,0.8,2.8,0c0.8-0.8,0.8-2,0-2.8l-6.5-6.5v-6.1l5.3,3.1l2.4,8.8c0.3,1.1,1.4,1.7,2.4,1.4
			c1.1-0.3,1.7-1.4,1.4-2.4l-1.3-5l2.5,1.4l1.6,5.9c0.3,1.1,1.4,1.7,2.4,1.4c1.1-0.3,1.7-1.4,1.4-2.4l-0.5-2l2.2,1.3
			c1,0.5,2.2,0.2,2.7-0.7c0.5-1,0.2-2.2-0.7-2.7l-2.2-1.3l2-0.5c1.1-0.3,1.7-1.4,1.4-2.4s-1.4-1.7-2.4-1.4l-5.9,1.6l-2.5-1.4l5-1.3
			c1.1-0.3,1.7-1.4,1.4-2.4c-0.3-1.1-1.4-1.7-2.4-1.4l-8.8,2.4l-5.3-3.1l5.3-3.1l8.8,2.4c1.1,0.3,2.2-0.3,2.4-1.4
			c0.3-1.1-0.3-2.2-1.4-2.4l-5-1.3l2.5-1.4l5.9,1.6c1.1,0.3,2.2-0.3,2.4-1.4c0.3-1.1-0.3-2.2-1.4-2.4l-2-0.5l2.2-1.3
			c1-0.5,1.3-1.8,0.7-2.7c-0.5-1-1.8-1.3-2.7-0.7l-2.2,1.3l0.5-2c0.3-1.1-0.3-2.2-1.4-2.4c-1.1-0.3-2.2,0.3-2.4,1.4l-1.6,5.9
			l-2.5,1.4l1.3-5c0.3-1.1-0.3-2.2-1.4-2.4c-1.1-0.3-2.2,0.3-2.4,1.4l-2.4,8.8l-5.3,3.1v-6.1l6.5-6.5c0.8-0.8,0.8-2,0-2.8
			c-0.8-0.8-2-0.8-2.8,0l-3.6,3.6V733l4.3-4.3c0.8-0.8,0.8-2,0-2.8c-0.8-0.8-2-0.8-2.8,0l-1.5,1.5v-2.6c0-1.1-0.9-2-2-2
			c-1.1,0-2,0.9-2,2v2.6l-1.5-1.5c-0.8-0.8-2-0.8-2.8,0c-0.8,0.8-0.8,2,0,2.8l4.3,4.3v2.8l-3.6-3.6c-0.8-0.8-2-0.8-2.8,0
			c-0.8,0.8-0.8,2,0,2.8l6.5,6.5v6.1l-5.3-3.1l-2.4-8.8c-0.3-1.1-1.4-1.7-2.4-1.4c-1.1,0.3-1.7,1.4-1.4,2.4l1.3,5l-2.5-1.4l-1.6-5.9
			c-0.3-1.1-1.4-1.7-2.4-1.4c-1.1,0.3-1.7,1.4-1.4,2.4l0.5,2l-2.2-1.3c-1-0.5-2.2-0.2-2.7,0.7c-0.5,1-0.2,2.2,0.7,2.7l2.2,1.3
			l-2,0.5c-1.1,0.3-1.7,1.4-1.4,2.4c0.3,1.1,1.4,1.7,2.4,1.4l5.9-1.6l2.5,1.4l-5,1.3c-1.1,0.3-1.7,1.4-1.4,2.4
			c0.3,1.1,1.4,1.7,2.4,1.4l8.8-2.4l5.3,3.1l-5.3,3.1l-8.8-2.4c-1.1-0.3-2.2,0.3-2.4,1.4c-0.3,1.1,0.3,2.2,1.4,2.4l5,1.3l-2.5,1.4
			l-5.9-1.6c-1.1-0.3-2.2,0.3-2.4,1.4c-0.3,1.1,0.3,2.2,1.4,2.4l2,0.5l-2.2,1.3c-1,0.5-1.3,1.8-0.7,2.7c0.5,1,1.8,1.3,2.7,0.7
			l2.2-1.3l-0.5,2c-0.3,1.1,0.3,2.2,1.4,2.4c1.1,0.3,2.2-0.3,2.4-1.4l1.6-5.9l2.5-1.4l-1.3,5c-0.3,1.1,0.3,2.2,1.4,2.4
			c1.1,0.3,2.2-0.3,2.4-1.4l2.4-8.8l5.3-3.1v6.1l-6.5,6.5c-0.8,0.8-0.8,2,0,2.8c0.8,0.8,2,0.8,2.8,0l3.6-3.6v2.8l-4.3,4.3
			c-0.8,0.8-0.8,2,0,2.8c0.8,0.8,2,0.8,2.8,0l1.5-1.5V777.3z"/>
		<path class="st5" d="M699.8,805.1c-1.1-0.3-2.2,0.3-2.4,1.4c-0.3,1.1,0.3,2.2,1.4,2.4l2,0.5l-2.2,1.3c-1,0.5-1.3,1.8-0.7,2.7
			c0.5,1,1.8,1.3,2.7,0.7l2.2-1.3l-0.5,2c-0.3,1.1,0.3,2.2,1.4,2.4c1.1,0.3,2.2-0.3,2.4-1.4l1.6-5.9l2.5-1.4l-1.3,5
			c-0.3,1.1,0.3,2.2,1.4,2.4c1.1,0.3,2.2-0.3,2.4-1.4l2.4-8.8l5.3-3.1v6.1l-6.5,6.5c-0.8,0.8-0.8,2,0,2.8c0.8,0.8,2,0.8,2.8,0
			l3.6-3.6v2.8l-4.3,4.3c-0.8,0.8-0.8,2,0,2.8c0.8,0.8,2,0.8,2.8,0l1.5-1.5v2.6c0,1.1,0.9,2,2,2c1.1,0,2-0.9,2-2V823l1.5,1.5
			c0.8,0.8,2,0.8,2.8,0s0.8-2,0-2.8l-4.3-4.3v-2.8l3.6,3.6c0.8,0.8,2,0.8,2.8,0c0.8-0.8,0.8-2,0-2.8l-6.5-6.5v-6.1l5.3,3.1l2.4,8.8
			c0.3,1.1,1.4,1.7,2.4,1.4c1.1-0.3,1.7-1.4,1.4-2.4l-1.3-5l2.5,1.4l1.6,5.9c0.3,1.1,1.4,1.7,2.4,1.4c1.1-0.3,1.7-1.4,1.4-2.4
			l-0.5-2l2.2,1.3c1,0.5,2.2,0.2,2.7-0.7c0.5-1,0.2-2.2-0.7-2.7l-2.2-1.3l2-0.5c1.1-0.3,1.7-1.4,1.4-2.4c-0.3-1.1-1.4-1.7-2.4-1.4
			l-5.9,1.6l-2.5-1.4l5-1.3c1.1-0.3,1.7-1.4,1.4-2.4c-0.3-1.1-1.4-1.7-2.4-1.4l-8.8,2.4l-5.3-3.1l5.3-3.1l8.8,2.4
			c1.1,0.3,2.2-0.3,2.4-1.4c0.3-1.1-0.3-2.2-1.4-2.4l-5-1.3l2.5-1.4l5.9,1.6c1.1,0.3,2.2-0.3,2.4-1.4c0.3-1.1-0.3-2.2-1.4-2.4
			l-2-0.5l2.2-1.3c1-0.5,1.3-1.8,0.7-2.7c-0.5-1-1.8-1.3-2.7-0.7l-2.2,1.3l0.5-2c0.3-1.1-0.3-2.2-1.4-2.4c-1.1-0.3-2.2,0.3-2.4,1.4
			l-1.6,5.9l-2.5,1.4l1.3-5c0.3-1.1-0.3-2.2-1.4-2.4c-1.1-0.3-2.2,0.3-2.4,1.4l-2.4,8.8l-5.3,3.1v-6.1l6.5-6.5c0.8-0.8,0.8-2,0-2.8
			c-0.8-0.8-2-0.8-2.8,0l-3.6,3.6v-2.8l4.3-4.3c0.8-0.8,0.8-2,0-2.8c-0.8-0.8-2-0.8-2.8,0l-1.5,1.5v-2.6c0-1.1-0.9-2-2-2
			c-1.1,0-2,0.9-2,2v2.6l-1.5-1.5c-0.8-0.8-2-0.8-2.8,0c-0.8,0.8-0.8,2,0,2.8l4.3,4.3v2.8l-3.6-3.6c-0.8-0.8-2-0.8-2.8,0
			c-0.8,0.8-0.8,2,0,2.8l6.5,6.5v6.1l-5.3-3.1l-2.4-8.8c-0.3-1.1-1.4-1.7-2.4-1.4c-1.1,0.3-1.7,1.4-1.4,2.4l1.3,5l-2.5-1.4l-1.6-5.9
			c-0.3-1.1-1.4-1.7-2.4-1.4c-1.1,0.3-1.7,1.4-1.4,2.4l0.5,2l-2.2-1.3c-1-0.5-2.2-0.2-2.7,0.7c-0.5,1-0.2,2.2,0.7,2.7l2.2,1.3
			l-2,0.5c-1.1,0.3-1.7,1.4-1.4,2.4c0.3,1.1,1.4,1.7,2.4,1.4l5.9-1.6l2.5,1.4l-5,1.3c-1.1,0.3-1.7,1.4-1.4,2.4
			c0.3,1.1,1.4,1.7,2.4,1.4l8.8-2.4l5.3,3.1l-5.3,3.1l-8.8-2.4c-1.1-0.3-2.2,0.3-2.4,1.4c-0.3,1.1,0.3,2.2,1.4,2.4l5,1.3l-2.5,1.4
			L699.8,805.1z"/>
		<path class="st5" d="M455,537.7c-1.2-0.3-2.5,0.4-2.8,1.6c-0.3,1.2,0.4,2.5,1.6,2.8l2.4,0.6l-2.6,1.5c-1.1,0.6-1.5,2.1-0.9,3.2
			c0.6,1.1,2.1,1.5,3.2,0.9l2.6-1.5l-0.6,2.4c-0.3,1.2,0.4,2.5,1.6,2.8c1.2,0.3,2.5-0.4,2.8-1.6l1.8-6.8l2.9-1.7l-1.6,5.8
			c-0.3,1.2,0.4,2.5,1.6,2.8c1.2,0.3,2.5-0.4,2.8-1.6l2.8-10.3l6.2-3.6v7.1l-7.5,7.5c-0.9,0.9-0.9,2.4,0,3.3c0.9,0.9,2.4,0.9,3.3,0
			l4.3-4.3v3.3l-5,5c-0.9,0.9-0.9,2.4,0,3.3c0.9,0.9,2.4,0.9,3.3,0l1.7-1.7v3c0,1.3,1,2.3,2.3,2.3c1.3,0,2.3-1,2.3-2.3v-3l1.7,1.7
			c0.9,0.9,2.4,0.9,3.3,0c0.9-0.9,0.9-2.4,0-3.3l-5-5v-3.3l4.3,4.3c0.9,0.9,2.4,0.9,3.3,0c0.9-0.9,0.9-2.4,0-3.3l-7.5-7.5v-7.1
			l6.2,3.6l2.8,10.3c0.3,1.2,1.6,2,2.8,1.6c1.2-0.3,2-1.6,1.6-2.8l-1.6-5.8l2.9,1.7l1.8,6.8c0.3,1.2,1.6,2,2.8,1.6
			c1.2-0.3,2-1.6,1.6-2.8l-0.6-2.4l2.6,1.5c1.1,0.6,2.5,0.3,3.2-0.9c0.6-1.1,0.3-2.5-0.9-3.2l-2.6-1.5l2.4-0.6
			c1.2-0.3,2-1.6,1.6-2.8c-0.3-1.2-1.6-2-2.8-1.6l-6.8,1.8l-2.9-1.7l5.8-1.6c1.2-0.3,2-1.6,1.6-2.8c-0.3-1.2-1.6-2-2.8-1.6
			l-10.3,2.8l-6.2-3.6l6.2-3.6l10.3,2.8c1.2,0.3,2.5-0.4,2.8-1.6c0.3-1.2-0.4-2.5-1.6-2.8l-5.8-1.6l2.9-1.7l6.8,1.8
			c1.2,0.3,2.5-0.4,2.8-1.6c0.3-1.2-0.4-2.5-1.6-2.8l-2.4-0.6l2.6-1.5c1.1-0.6,1.5-2.1,0.9-3.2c-0.6-1.1-2.1-1.5-3.2-0.9l-2.6,1.5
			l0.6-2.4c0.3-1.2-0.4-2.5-1.6-2.8c-1.2-0.3-2.5,0.4-2.8,1.6l-1.8,6.8l-2.9,1.7l1.6-5.8c0.3-1.2-0.4-2.5-1.6-2.8
			c-1.2-0.3-2.5,0.4-2.8,1.6l-2.8,10.3l-6.2,3.6v-7.1l7.5-7.5c0.9-0.9,0.9-2.4,0-3.3c-0.9-0.9-2.4-0.9-3.3,0l-4.3,4.3V510l5-5
			c0.9-0.9,0.9-2.4,0-3.3c-0.9-0.9-2.4-0.9-3.3,0l-1.7,1.7v-3c0-1.3-1-2.3-2.3-2.3c-1.3,0-2.3,1-2.3,2.3v3l-1.7-1.7
			c-0.9-0.9-2.4-0.9-3.3,0c-0.9,0.9-0.9,2.4,0,3.3l5,5v3.3l-4.3-4.3c-0.9-0.9-2.4-0.9-3.3,0c-0.9,0.9-0.9,2.4,0,3.3l7.5,7.5v7.1
			l-6.2-3.6l-2.8-10.3c-0.3-1.2-1.6-2-2.8-1.6c-1.2,0.3-2,1.6-1.6,2.8l1.6,5.8l-2.9-1.7l-1.8-6.8c-0.3-1.2-1.6-2-2.8-1.6
			c-1.2,0.3-2,1.6-1.6,2.8l0.6,2.4l-2.6-1.5c-1.1-0.6-2.5-0.3-3.2,0.9s-0.3,2.5,0.9,3.2l2.6,1.5l-2.4,0.6c-1.2,0.3-2,1.6-1.6,2.8
			c0.3,1.2,1.6,2,2.8,1.6l6.8-1.8l2.9,1.7l-5.8,1.6c-1.2,0.3-2,1.6-1.6,2.8c0.3,1.2,1.6,2,2.8,1.6l10.3-2.8l6.2,3.6l-6.2,3.6
			l-10.3-2.8c-1.2-0.3-2.5,0.4-2.8,1.6c-0.3,1.2,0.4,2.5,1.6,2.8l5.8,1.6l-2.9,1.7L455,537.7z"/>
		<path class="st5" d="M134.9,441.5c3.5,9.9,8.5,17.9,15,23.8c-2.3,3.5-3.5,7.3-3.5,11.3c0,5.7,1.8,10.1,5.3,13.1
			c3.4,2.9,7.8,4.3,12.9,4.3c5.6,0,11.7-2,18-6c6.2-3.9,11.9-9.9,16.7-17.8c4.6-7.6,7.9-17.2,9.6-28.6l5.1-2
			c14.5-5.3,28.1-11,40.6-16.9c5.5-2.6,10.3-5.4,14.4-8.4c-0.5,3.3-0.8,6.5-0.8,9.8c0,3.2,0.3,6.9,1,10.9c0.7,4.1,1.8,8.1,3.4,11.9
			c1.6,3.9,3.9,7.2,6.8,9.7c3,2.7,6.8,4.1,11.3,4.1c4.1,0,7.5-1.4,10.4-4.3c2.6-2.6,4.8-5.9,6.5-9.8c1.7-3.8,3.1-7.7,4.1-11.6
			c0.1-0.3,0.2-0.6,0.2-0.9c0.2,1.8,0.5,3.6,0.7,5.5c1,6.8,2.7,13.4,5,19.7c1.5,4,3.4,7.7,5.7,10.9c2.4,3.3,5.3,6,8.6,8
			c3.4,2,7.5,3,12.1,3c6.6,0,12.9-2.2,18.8-6.6c5.7-4.3,11.2-9.8,16.1-16.4c4.9-6.6,9.5-13.6,13.7-21c3.6-6.4,7-12.6,10-18.4
			c0.2,1.4,0.5,2.7,0.7,4.1c2.5,13.1,5.8,23.9,9.9,31.9c4.4,8.6,9.5,13,15.3,13h0.1l0.1,0c2.5-0.2,4.1-0.9,5.1-2.2
			c0.8-1.1,1.2-2.4,1.3-3.8c1.5-14.4,6.1-27.9,13.7-40c1.2-1.9,2.8-3.4,4.6-4.7c1.7-1.2,3.4-1.8,5-1.8c1.6,0,3,0.7,4.2,2.2
			c0.9,1.1,2,3.7,2,9.7c0,4.8-0.4,10.5-1.1,17c-2.6,1.4-5.4,3-8.4,4.9c-3.4,2.1-6.8,4.6-9.9,7.3c-3.2,2.8-5.9,5.9-8.1,9.3
			c-2.2,3.5-3.4,7.3-3.4,11.2c0,4.1,1.1,7.5,3.4,10.1c2.3,2.7,5.7,4.1,10.1,4.1c6.7,0,12.7-2.5,17.8-7.3c5-4.7,9.1-10.7,12.3-17.9
			c3-6.8,5.2-13.9,6.6-21.4c5.2-2.2,10.2-4.2,14.9-6c5.9-2.3,10.7-4.4,14.3-6c7.1-3.2,15.1-7.5,23.9-12.6c4-2.3,7.5-4.8,10.6-7.4
			c0,0.5,0,1,0,1.6c0.2,5.4,0.8,10.7,1.7,16c0.9,5.3,2.4,10.3,4.6,14.8c2.2,4.6,5.3,8.3,9.2,11.2c4,2.9,9.2,4.3,15.4,4.3
			c5.4,0,9.8-1.9,13.1-5.8c3.1-3.6,5.5-8.1,7.2-13.5c1.7-5.3,2.9-10.8,3.7-16.5c0.4-2.8,0.7-5.5,1-8c2.5,12.2,4.6,25.3,6.4,39.1
			c-5.8,2.9-11.6,5.8-17.4,8.5c-9.9,4.6-19.7,9.5-29.2,14.8c-5.4,2.9-10.5,6.5-15.2,10.5c-4.8,4.1-8.7,8.8-11.7,14.2
			c-3,5.4-4.6,11.6-4.6,18.3c0,6.4,1.8,12.1,5.4,16.9c3.6,4.8,8.3,8.2,14.1,10.1c5.6,1.8,11.8,2.8,18.4,2.8
			c11.5,0,21.2-2.3,28.8-6.9c7.6-4.5,13.7-10.1,18.3-16.6c4.5-6.4,7.8-13.9,9.8-22.1c2-8.1,3.1-17.9,3.2-29c0-7.4-0.4-14.9-1.3-22.3
			c13.1-7.5,24.8-15.7,35-24.5c10.5-9.1,19.5-19.8,26.8-31.9c0.4-0.7,0.6-1.3,0.6-2c0-1.4-0.7-2.7-2-3.4c-0.6-0.4-1.3-0.6-2-0.6
			c-1.4,0-2.7,0.7-3.4,2c-6.8,11.4-15.4,21.5-25.4,30.1c-9.4,8.1-19.7,15.4-30.7,21.7c-2-13.8-4.3-26.8-6.8-38.7
			c-1.4-6.8-2.6-13.1-3.6-18.6l0-0.1l0-0.1c-1.1-4.3-3.8-5.8-5.9-6.3c-1-0.3-2-0.4-3-0.4c-1.7,0-3.3,0.3-4.8,1
			c-2.8,1.1-4.5,3.1-4.9,5.9c-0.3,1.9-0.6,4.6-1,8.5c-0.4,4.7-1,10.1-1.8,16.2c-0.8,6-1.8,12-3.1,17.8c-1.3,5.7-3,10.4-4.9,14.2
			c-1.7,3.3-3.7,4.9-6,4.9c-2.8,0-5.1-1.2-6.9-3.5c-2-2.6-3.6-6.1-4.7-10.3c-1.2-4.4-2-9-2.6-13.9c-0.5-4.9-0.8-9.6-0.9-14.1
			c-0.1-2.9-0.1-5.6-0.1-7.8l0-4.7c-0.2-3.3-1.9-5.8-5.1-7.2c-1.7-0.8-3.4-1.1-5-1.1c-1.2,0-2.4,0.2-3.5,0.5c-2.2,0.7-5,2.7-5.2,7.8
			v4.1c-3.7,4.5-9.1,8.8-15.8,12.7c-8.5,4.9-16,8.9-22.3,11.8c-4,1.8-9.1,3.9-15.3,6.3c-2.9,1.1-5.8,2.3-8.9,3.6
			c0.2-2,0.3-3.9,0.3-5.9c0-7.7-1.5-14.5-4.5-20c-3.2-5.9-8.1-9-14.6-9.4l-0.1,0l-0.1,0c-5.2,0.2-10.1,2.3-14.5,6.2
			c-4.2,3.8-7.7,7.7-10.1,11.6c-5.7,8.9-9.9,18.6-12.4,28.9c-3.1-11.9-5.3-26.4-6.8-43.1c9.6-2.9,19.4-7.8,29.2-14.7
			c10.3-7.2,19.9-16,28.6-26c8.7-10.1,15.8-20.8,21.2-31.9c5.5-11.3,8.2-22.3,8.2-32.7c0-10.3-3.6-18.8-10.6-25.2
			c-7-6.4-15.6-9.6-25.5-9.6c-11.1,0-20.9,2.3-29.2,6.9c-8.3,4.6-15.4,10.9-21.1,18.8c-5.7,7.8-10.3,16.8-13.8,26.9
			c-3.5,10-6,20.6-7.5,31.6c-1.5,10.5-2.3,21.1-2.3,31.7v1.6c0,8.1,0.4,16,1.1,23.5c-1,1.9-2.1,4.1-3.3,6.4
			c-3,5.9-6.5,12.4-10.3,19.3c-3.8,6.9-7.9,13.5-12.3,19.7c-4.3,6.2-8.7,11.3-13.1,15.3c-4.2,3.8-8.3,5.7-12.2,5.7
			c-2.7,0-4.9-1-6.8-3c-2.1-2.2-3.8-5.2-5.2-8.9c-1.5-3.8-2.6-8.2-3.5-13.1c-1.3-7.4-2.1-15.2-2.4-23.1c-0.4-8-0.5-14.9-0.5-20.7
			c0-4.6-2.3-7-4.2-8.1c-0.3-0.2-0.7-0.4-1-0.6c0,0,0.1-0.2,0.1-0.2c0.3-0.6,0.5-1.2,0.5-1.7c0-0.6-0.1-1.2-0.4-1.8
			c-1.2-2.8-2.8-5.2-4.6-7.1c-4-3.8-8.9-5.7-14.6-5.7l-0.8,0c-8.8,0.2-16.1,2.7-21.7,7.6c-4.2,3.6-7.6,8.1-10.1,13.3
			c0,0-0.1,0.1-0.1,0.1c-4.4,6.8-12.3,12.9-23.5,18.2c-11.4,5.4-24.2,10.7-38,15.7c-0.9,0.3-1.8,0.6-2.7,1c0-0.4,0-0.7,0-1.1
			c0-2.4-0.1-5.1-0.4-8c-0.5-4.6-1.5-9.2-3-13.6c-1.6-4.6-4-8.4-7.1-11.5c-3.3-3.2-7.7-4.8-13.1-4.8c-4.3,0-8.7,1.5-12.9,4.5
			c-4.1,2.9-7.9,7.2-11.3,12.7c-3.4,5.8-5.9,12.5-7.6,20.2c-0.8,3.5-1.4,6.9-1.9,10.2c-2.7-12-4.5-24.7-5.3-37.8
			c9.3-2.6,18.9-6.7,28.6-12.4c10.2-6,19.8-13.3,28.5-21.8c8.8-8.5,16-17.9,21.6-28c5.6-10.2,8.4-20.7,8.4-31.3
			c0-10.2-3.6-18.7-10.6-25.1c-7-6.4-15.6-9.7-25.6-9.7c-13.1,0-24.5,3-33.7,8.8c-9.2,5.8-16.8,13.7-22.5,23.6
			c-5.7,9.7-9.9,21-12.5,33.4c-2.6,12.3-3.9,25.3-3.9,38.7c0,8.3,0.6,18.3,1.9,29.7C128.8,420.1,131.2,431.2,134.9,441.5z
			 M185.6,412c1.8,3.2,3,7.3,3.4,12.3c0.1,1.5,0.1,3,0.1,4.5c0,3.6-0.3,7.5-0.9,11.5c-11.3,4.6-20.9,9.6-28.4,15.1
			c0.2-2.1,0.4-4.4,0.7-6.9c0.5-4.4,1.2-9.1,2.1-13.9c0.9-4.8,2.2-9.3,3.7-13.4c1.5-4,3.3-7.4,5.5-9.9c2-2.3,4.2-3.4,6.9-3.4
			C181.8,407.9,184,409.2,185.6,412z M159.3,467.3c3-3.2,7.1-6.3,12.3-9.2c4.3-2.4,9.1-4.8,14.4-7.1c-1.3,4.7-3,9.2-5.2,13.5
			c-2.6,5.3-5.8,9.7-9.5,13c-3.5,3.2-7.4,4.8-11.7,4.8c-1.8,0-2.9-0.4-3.5-1.2c-0.7-1.1-1.1-2.5-1.1-4.3
			C155.1,473.4,156.5,470.3,159.3,467.3z M179.1,288.7c5.7-3.6,12.1-5.4,19.1-5.4c7.7,0,14.3,2.4,19.5,7.2
			c5.3,4.8,7.9,10.9,7.9,18.8c0,9.3-2.5,18.6-7.5,27.6c-5.1,9.1-11.7,17.7-19.8,25.5c-8.1,7.8-17,14.5-26.4,20.1
			c-8.5,5.1-17,8.8-25.2,11.2c-0.2-5.4-0.4-10.3-0.4-14.8c0-8.2,0.5-17,1.5-26.1c1-9,2.8-18,5.4-26.5c2.6-8.5,6.3-16.3,11-23.2
			C168.3,297.2,173.3,292.4,179.1,288.7z M314.3,387.3c1.4,1.1,2.5,2.6,3.4,4.6c-1.6,0.4-2.9,1.1-4,2.2c-1.2,1.1-2,2.2-2.5,3.5
			c-0.5,1.1-0.9,2.7-1.3,4.9c-0.8,4.5-2,10.4-3.7,17.5c-1.7,7.2-3.5,13.7-5.6,19.5c-2.3,6.4-4,7.8-4.7,8.1c-0.8-0.2-2.3-0.8-3.6-4.2
			c-1.3-3.3-2.1-6.9-2.6-10.8c-0.5-4-0.7-6.8-0.7-8.3c0-3.2,0.3-7.1,0.9-11.6c0.6-4.4,1.7-8.8,3.2-13c1.5-4.1,3.6-7.5,6.2-10.2
			c2.4-2.5,5.5-3.8,9.3-3.8C311,385.7,312.9,386.2,314.3,387.3z M421.8,393.7c-0.3-5.3-0.4-10.6-0.4-15.9c0-5.5,0.2-11,0.5-16.6
			c0.6-11.8,2-23.2,4.2-34c2.2-10.7,5.4-20.4,9.6-28.8c4.1-8.3,9.3-15,15.6-19.8c6.1-4.8,13.7-7.2,22.5-7.2c7.7,0,13.6,2.3,18.1,7.1
			c4.5,4.8,6.8,11.1,6.8,19c0,9.2-2.4,19-7.1,29.2c-4.7,10.3-11.1,20.2-18.8,29.5c-7.7,9.3-16.4,17.5-25.6,24.3
			C438.6,386.6,430.1,391,421.8,393.7z M443.8,480.7c-0.7-1.1-1-2.4-1-4c0-4.3,2-8.2,6.2-12.1c3.6-3.3,8-6.5,13.1-9.4
			c-1.3,6.6-3.2,12.5-5.5,17.6c-2.6,5.7-5.8,8.6-9.9,9.1C444.8,481.9,444.1,481.2,443.8,480.7z M552.9,538.8
			c-3.2-1.1-5.8-3.1-7.9-6.2c-2.1-3.1-3.1-6.8-3.1-10.9c0-5.6,1.1-10.6,3.4-15c2.3-4.5,5.4-8.5,9.1-11.9c3.8-3.5,8.1-6.6,12.8-9.2
			c9.5-5.1,19.3-10,29-14.7c4.9-2.3,9.8-4.7,14.6-7.1c0.4,5,0.6,9.9,0.6,14.6c0,4-0.1,8-0.4,11.8c-0.7,9.2-2.7,17.5-6,24.7
			c-3.3,7.1-8.3,13.2-14.9,18.2c-6.6,4.9-15.5,7.4-26.6,7.4C559.8,540.5,556.3,539.9,552.9,538.8z"/>
		<path class="st5" d="M157.1,590.9v2c0,4.6,0.3,9.3,0.8,13.8c0.5,4.6,1.3,8.9,2.4,12.7c1.2,4,2.7,7.2,4.7,9.6
			c2.2,2.7,5.1,4.1,8.5,4.1c3.7,0,7.2-1.7,10.6-5c3.1-3,6-6.9,8.8-11.6c2.7-4.6,5.3-9.6,7.8-14.8c2.4-5.2,4.6-10.2,6.7-15
			c0,0.2,0,0.4,0,0.6c0.2,3.7,0.5,7.8,0.9,12.1c0.5,4.4,1.1,8.9,2,13.3c0.9,4.5,2.1,8.7,3.6,12.4c1.5,3.9,3.5,7.1,5.9,9.6
			c2.6,2.7,5.7,4,9.3,4c3.3,0,6.4-1,9.2-2.9c2.6-1.8,5.1-4.2,7.3-7.1c2.1-2.8,4.1-6,5.8-9.4c1.7-3.3,3.3-6.7,4.7-10.1
			c1.4-3.3,2.6-6.4,3.7-9.2c0.6-1.4,1.1-2.8,1.6-4.1c3.4-8.6,6.6-17.4,9.6-26.1l1-3.1c0.7-2,1.4-4.2,2.2-6.4
			c0.8-2.1,1.6-3.9,2.3-5.2c0.3-0.6,0.5-1.1,0.5-1.8c0-1.2-0.6-2.3-1.7-2.9c-0.6-0.3-1.1-0.5-1.7-0.5c-1.2,0-2.3,0.6-3,1.8
			c-0.9,1.7-1.8,3.7-2.7,6.1c-0.9,2.3-1.7,4.6-2.4,6.7c-0.4,1.1-0.7,2.2-1,3.1c-3,8.7-6.2,17.4-9.6,25.9c-0.6,1.6-1.5,3.9-2.7,6.7
			c-1.2,2.9-2.7,6.1-4.3,9.4c-1.6,3.4-3.4,6.6-5.3,9.7c-1.8,3-3.8,5.5-5.7,7.4c-1.6,1.6-3.2,2.5-4.6,2.5c-1.3,0-2.5-0.8-3.5-2.3
			c-1.4-1.9-2.5-4.6-3.5-7.8c-1-3.3-1.8-7-2.5-11c-0.6-4-1.1-8-1.5-11.9c-0.4-3.9-0.6-7.4-0.7-10.6c-0.1-3.1-0.2-5.5-0.2-7
			c0-8.3,0.3-16.7,0.8-25c0.7-9.6,1.5-19.3,2.6-28.8c7.2-1.7,14.1-4.3,20.5-7.7c12.8-6.8,19.3-15.7,19.3-26.6c0-1.3-0.3-2.3-0.8-3.1
			c-0.7-1-1.8-1.6-3.2-1.6c-1.6,0-2.5,0.7-3.1,1.3c-0.8,0.8-1.1,1.9-1.1,3.4c0,7.7-5.3,14.7-15.8,20.6c-4.8,2.7-9.8,4.8-14.9,6.3
			c0.5-4.5,1-8,1.2-10.5c0.1-0.9,0.1-1.5,0.1-1.9c0-3.4-2-4.8-3.2-5.3c-0.9-0.4-1.8-0.5-2.7-0.5c-1.1,0-2.1,0.2-3.2,0.7
			c-1.5,0.6-3.5,2.1-4.1,5.6c-0.5,3.8-1.1,8.7-1.8,14.5c-2.4,0.2-4.8,0.3-7.3,0.3c-12.9-0.5-21.7-4.5-26.1-11.7
			c-1.9-3.4-3.9-5-6.3-5c-2.9,0.1-4.7,1.9-4.7,4.8c0,3.8,2.6,7.6,8.1,11.7c6.4,4.7,16.2,7.1,29,7.1c2.2,0,4.4-0.1,6.6-0.3
			c-0.9,8.6-1.7,17.5-2.3,26.2c-0.4,5.7-0.6,11.3-0.7,17c-1.4,2.7-3.1,6.4-5.2,11.2c-1.9,4.4-4,9.1-6.3,14.1
			c-2.3,4.9-4.7,9.7-7.2,14.1c-2.4,4.3-4.9,7.9-7.3,10.7c-2,2.4-3.9,3.6-5.5,3.6c-0.7,0-1.3-0.8-1.9-2.3c-0.9-2.2-1.6-5.2-2.1-8.9
			c-0.5-3.8-0.8-7.9-0.9-12.3c-0.1-2.6-0.1-5.3-0.1-7.8c0-1.7,0-3.4,0.1-5.1c0.1-4.2,0.3-8.1,0.5-11.5c0.3-4.7,0.4-5.6,0.4-6
			c0-1.2-0.4-3.3-3.2-4.5c-1.1-0.5-2.4-0.8-3.6-0.8c-0.7,0-1.4,0.1-2.1,0.2c-2.4,0.5-3.9,2.1-4.3,4.4c-0.4,2.8-0.7,6.3-0.9,10.4
			C157.2,583.3,157.1,587,157.1,590.9z"/>
		<path class="st5" d="M162,558.8c1.4,0.9,3.1,1.4,5.1,1.4c3.2,0,5.6-1.2,7.3-3.4c1.6-2.1,2.3-4.5,2.3-7.3c0-2.2-0.7-4.2-2.2-6
			c-1.6-2-3.8-2.9-6.8-2.9c-3.1,0-5.5,1.1-7.3,3.3c-1.6,2-2.4,4.5-2.4,7.2c0,1.4,0.3,2.8,0.9,4.2C159.7,556.7,160.7,557.9,162,558.8
			z"/>
		<path class="st5" d="M300.8,531.3c-2.7,4.6-5.8,8.4-9.1,11.2c-0.9,0.8-1.3,1.8-1.1,3c0.1,0.6,0.4,1.1,0.8,1.6
			c0.7,0.7,1.7,1.1,2.7,1l0.1,0l0.1,0c0.6-0.1,1.1-0.3,1.5-0.7c3.8-3.3,7.3-7.7,10.4-12.9c3.1-5.2,5.4-10.7,7-16.6
			c1.6-5.9,1.9-12.2,0.8-18.7c-0.9-4.9-2.5-8.8-4.8-11.5c-2.6-3-5.8-4.3-9.3-3.7c-2.5,0.4-4.5,1.7-5.8,3.7c-1.3,2-1.7,4.2-1.3,6.6
			c0.2,1.2,0.7,2.3,1.4,3.4c0.8,1.1,1.8,2,3,2.6c1.3,0.6,2.8,0.8,4.6,0.5c1.6-0.3,3-0.9,4.1-1.9c0.6,1.3,1.1,2.9,1.4,4.8
			c0.7,4.2,0.5,8.8-0.6,13.5C305.6,521.9,303.6,526.6,300.8,531.3z"/>
		<path class="st5" d="M335.4,554.8c0,0.9,0.3,1.7,1,2.4c0.4,0.4,1.2,1,2.4,1c1.8,0,3.1-1.1,3.4-2.9c0.1-1,0.2-2,0.2-3
			c0-4-1.4-7.3-4.1-9.9l-0.1-0.1c-3.4-2.8-7-4.3-10.7-4.3c-5.5,0-10.1,1.9-13.4,5.6c-3.3,3.6-5,8.2-5,13.6c0,3.6,0.7,6.9,2.2,9.8
			c1.4,2.8,3.2,5.4,5.3,7.8c2,2.3,4.2,4.6,6.5,6.8c1,1,2.1,2,3.1,3.1c-4.1,2-8.5,5.1-13,9c-5.9,5.1-8.8,11.7-8.8,19.4
			c0,6.2,1.9,11.7,5.8,16.4c3.9,4.7,9.1,7.1,15.2,7.1c6.7,0,12.7-3,17.8-8.8c5.1-5.8,7.7-13,7.7-21.4c-0.1-5.8-1.2-10.7-3.2-14.5
			c-1.3-2.5-2.7-4.8-4.1-6.7c3.1-1.2,6.1-2.4,9.1-3.6c4.8-1.9,9.6-4.3,14.2-7.1c4.7-2.8,8.9-6.3,12.4-10.4c1.4-1.6,2.6-3.3,3.6-5.1
			c0.4-0.6,0.6-1.2,0.6-1.8c0-0.7-0.2-1.9-1.8-2.9c-0.6-0.3-1.1-0.5-1.7-0.5c-1.1,0-2.2,0.6-2.9,1.6l-0.1,0.1
			c-2.5,4.1-5.7,7.6-9.7,10.5c-4.1,2.9-8.6,5.5-13.5,7.6c-4.9,2.2-10,4.2-15,6c-1.5-1.5-3-3-4.5-4.5c-2.1-2-4.1-4.1-6-6.2
			c-1.8-2-3.2-4.1-4.4-6.4c-1.1-2.1-1.6-4.5-1.6-7.1c0-2.5,0.7-4.6,2.2-6.5c1.3-1.7,3.2-2.6,5.7-2.6c1.4,0,2.4,0.3,3.3,1
			c0.9,0.7,1.4,1.6,1.8,2.7c0.2,0.7,0.3,1.5,0.3,2.2c0,0.4,0,0.8-0.1,1.2C335.5,554.1,335.4,554.5,335.4,554.8z M313.1,611.8
			c0-5.3,1.7-9.7,5.3-13.2c3.4-3.4,7.6-6.2,12.4-8.5c1.4,1.8,2.8,4,4.2,6.4c1.6,2.8,2.4,6.8,2.4,12c0,5.7-1.2,10.5-3.7,14.3
			c-2.3,3.6-5.3,5.3-9.1,5.3c-4.1,0-6.9-1.4-8.6-4.4C314.1,620.4,313.1,616.4,313.1,611.8z"/>
		<path class="st5" d="M508.7,707.7c0.9-2.9,1.6-5.7,2.3-8.2c0.4,1.7,0.8,3.5,1.2,5.3c1.1,4.9,2.7,9.9,4.5,14.7
			c1.9,4.9,4.2,9.4,7.1,13.4c2.9,4.1,6.3,7.4,10.3,9.9c4,2.5,8.8,3.8,14.2,3.8c4.1,0,7.8-0.9,10.9-2.7c3-1.7,6-4.2,9-7.3
			c6.1-6.6,11.9-14.7,17.4-24.1c5.4-9.3,10.1-17.9,14-25.7c2.1-4.2,3.9-7.6,5.4-10.3c0.4-0.6,0.5-1.3,0.5-1.9c0-1.4-0.6-2.5-1.8-3.3
			c-0.6-0.4-1.2-0.6-1.9-0.6c-1.3,0-2.4,0.7-3.1,1.9c-1.3,2.4-3,5.6-5,9.5c-2.6,5.1-5.7,11-9.2,17.4c-3.5,6.3-7.2,12.6-11.2,18.5
			c-3.9,5.9-7.8,10.8-11.7,14.7c-3.7,3.6-7.1,5.5-10.2,5.5c-4.2,0-7.8-2.3-11.2-7c-3.6-5-6.7-11.7-9.2-20.1
			c-2.6-8.5-4.5-18.1-5.8-28.6c-1.1-9.6-1.7-19.5-1.7-29.5v-1.6c7.6-2.1,14.9-5.5,21.5-10c7-4.8,13.2-10.6,18.5-17.3
			c4.1-5,7.8-10.9,11-17.6c3.3-6.8,5-13.7,5.2-20.5v-0.5c0-4-0.7-7.7-2.1-11.2c-1.4-3.6-3.7-6.6-6.6-8.8c-3-2.3-6.7-3.5-11.1-3.5
			c-7.9,0-15,1.8-21,5.4c-5.9,3.5-11,8.4-15.1,14.3c-4.1,5.9-7.4,12.7-10,20.2c-2.5,7.5-4.4,15.5-5.5,23.8
			c-1.1,8.3-1.7,16.5-1.7,24.6c0,4.8,0.1,9.6,0.2,14.4c-2.1-1.2-4.1-2.2-6.1-2.9c-3-1-5.9-1.5-8.9-1.5c-7.9,0-14.3,3.5-18.9,10.3
			c-1.2,1.8-2.3,3.8-3.2,5.9c-6.3,10.4-17.3,27-21.7,33.3c-1.9,2.8-4.2,5.9-6.8,9.1c-2.6,3.2-5.6,6.3-8.8,9.2
			c-3.1,2.9-6.5,5.3-10,7.1c-3.4,1.8-6.8,2.7-10.3,2.7c-3.6,0-6.9-1.6-10.1-4.9c-3.4-3.5-6.4-8.3-9.1-14.4
			c-2.7-6.1-4.9-13.3-6.8-21.2c-1.7-7.5-3-15.6-3.7-23.9c7.6-2.1,15.4-5.8,23.4-10.9c8.4-5.4,16.3-12,23.6-19.6
			c7.3-7.6,13.2-15.9,17.8-24.7c4.6-8.8,7-17.7,7-26.4c0-8.5-2.8-15.7-8.3-21.4c-5.6-5.8-12.9-8.7-21.9-8.7
			c-9.3,0-17.7,2.1-24.8,6.4c-7.1,4.2-13.2,9.9-18.2,17.1c-4.9,7.1-8.9,15.3-11.8,24.4c-2.9,9-4.9,18.7-5.9,28.8
			c-0.6,5.7-0.9,11.5-0.9,17.2c0,4.3,0.2,8.6,0.5,12.9c0.3,3.8,0.7,7.6,1.3,11.3c-2.7,3.1-6.5,5.8-11.2,8.1
			c-6.3,3-13.2,5.3-20.3,6.8c-7.1,1.5-13.2,2.2-18,2.2c0.4-3.2,0.6-6.1,0.6-8.6c0-4.3-0.5-8.8-1.6-13.4c-1.1-4.6-2.8-8.9-5.1-12.8
			c-2.3-4-5.4-7.3-9.2-9.7c-3.8-2.5-8.5-3.8-13.8-3.8c-7.1,0-13.1,2-17.8,6c-4.8,4-7.2,9.9-7.2,17.5c0,0.6,0,1.2,0.1,1.9
			c-0.9,1.5-1.8,3.2-2.8,4.9c-2.7,4.7-5.8,9.8-9.1,15.2c-3.3,5.4-6.8,10.7-10.6,15.9c-3.8,5.1-7.9,9.9-12.2,14.1
			c-4.3,4.2-8.8,7.5-13.5,10c-4.6,2.4-9.5,3.7-14.7,3.7c-4.9,0-9-1.2-12.4-3.4c-3.5-2.3-6.3-5.4-8.4-9.3c-2.2-3.9-3.8-8.3-4.7-13.1
			c-1-4.8-1.5-9.7-1.5-14.5c0-6.6,1-13.5,3-20.6c2-7.1,4.7-13.1,7.9-18c2.9-4.5,6-6.7,9-6.7c2.4,0,4.1,0.8,5.3,2.3
			c1.3,1.7,1.9,3.7,1.9,6c0,3.3-0.6,6.5-1.7,9.6c-0.2,0.5-0.3,1.1-0.3,1.6c0,0.4,0.1,0.8,0.2,1.2c0.3,0.9,1,1.7,1.8,2.1l0.2,0.1
			l0.2,0.1c0.4,0.1,0.8,0.2,1.2,0.2c0.4,0,0.8-0.1,1.2-0.2c1.1-0.3,1.9-1,2.3-2c1.7-3.6,2.5-7.5,2.5-11.4c0-2.8-0.5-5.6-1.5-8.1
			c-1-2.6-2.6-4.8-4.8-6.5c-2.2-1.7-5.1-2.6-8.5-2.6c-5.7,0-11,1.6-15.8,4.7c-4.6,3.1-8.7,7.1-12,12c-3.3,4.9-5.9,10.3-7.7,16.1
			c-1.8,5.8-2.7,11.6-2.7,17.1c0,6.7,0.8,13.2,2.3,19.4c1.6,6.3,4,11.9,7.3,16.9c3.3,5,7.6,9,12.8,11.9c5.2,2.9,11.4,4.4,18.5,4.4
			c6.8,0,13.2-1.4,19-4.2c5.8-2.8,11.3-6.5,16.3-11.2c5-4.6,9.7-9.8,14-15.5c4.3-5.7,8.3-11.5,12-17.4c1.7-2.8,3.4-5.6,5.1-8.3
			c-0.2,3.3-0.4,6.8-0.4,10.5c0,9.5,1,17.7,3,24.6c1.8,5.4,4.5,9.5,7.9,12.1c3.4,2.7,7.3,4,11.3,4c5.6,0,10.3-1.3,14.1-3.9
			c3.7-2.5,7-6.2,9.7-10.8c3.8-6.9,6.6-14.5,8.2-22.5h1c5.6,0,12.5-0.8,20.3-2.5c7.9-1.6,15.4-4.2,22.3-7.6c3.3-1.6,6.2-3.5,8.7-5.6
			c0.6,2.9,1.3,5.7,2,8.5c2.5,9,5.8,17.2,9.8,24.3c4.1,7.2,9.1,13,14.8,17.2c5.8,4.3,12.5,6.5,19.8,6.5c4.6,0,9-1.1,13.2-3.2
			c4.1-2.1,7.9-4.7,11.5-8c3.5-3.2,6.8-6.6,9.8-10.1c2.9-3.5,5.5-6.9,7.7-10.1c4.2-6,8.1-12.3,11.8-18.6c0,0.3,0,0.5,0,0.8
			c0,6,0.7,12,2.2,17.7c1.5,5.8,3.6,10.7,6.4,14.4c3,4,6.8,6.1,11.2,6.1l0.1,0c5.8-0.4,10.6-3.4,14.3-9
			C503.9,720.4,506.7,714.3,508.7,707.7z M273.9,659.7c3.1-2.1,6.9-3.1,11.5-3.1c4,0,7.3,1,9.8,2.8c2.6,1.9,4.7,4.5,6.1,7.6
			c1.5,3.2,2.6,6.8,3.2,10.6c0.6,3.9,1,7.6,1,11.1c0,2.3-0.1,5.1-0.4,8.3c-5-0.3-10-1-15-2.1c-5.1-1.1-9.6-3-13.4-5.7
			c0.5-5.4,1.5-10.8,2.9-16c0.2-0.9,0.4-1.8,0.4-2.6c0-1.9-0.6-3.5-1.9-4.6c-1.3-1.2-3.1-1.9-5.1-1.9c-1.2,0-2.4,0.2-3.4,0.5
			C270.7,662.5,272.1,660.9,273.9,659.7z M276.4,697.8C276.4,697.8,276.4,697.8,276.4,697.8c3.9,2,8.3,3.6,12.9,4.6
			c4.9,1.1,9.9,1.8,14.9,2.1c-0.7,4.1-1.8,8.2-3.1,12.3c-1.5,4.5-3.7,8.4-6.4,11.4c-2.6,2.9-5.2,4.3-8.1,4.3c-2.6,0-4.8-2-6.8-6.1
			C277.7,721.8,276.5,712.2,276.4,697.8z M381.8,655.9c0-4.8,0.2-9.7,0.5-14.5c0.6-9.2,2-18.3,4-26.9c2-8.6,4.7-16.4,8.1-23.2
			c3.4-6.7,7.6-12.1,12.6-16.1c4.8-3.9,10.6-5.8,17.1-5.8c4.5,0,8.4,1,11.4,2.9c3,2,5.4,4.7,6.9,8.1c1.6,3.5,2.4,7.5,2.4,11.8
			c0,7.5-2,15.3-5.9,23.2c-4,8-9.3,15.6-15.7,22.7c-6.4,7.1-13.5,13.2-21.1,18.3c-6.7,4.5-13.4,7.8-19.9,9.8
			C381.9,662.9,381.8,659.4,381.8,655.9z M492.3,724c-0.6,0.6-1.2,1-1.8,1.1c-1.4-0.1-2.6-1.5-3.6-4.3c-1.3-3.5-2.3-7.7-2.9-12.6
			c-0.6-5-0.9-9.5-0.9-13.6c0-3.5,0.4-7.3,1.2-11.3c0.8-3.8,2.2-7.1,4.1-9.8c1.8-2.5,4.4-3.7,7.7-3.9c2.1,0,4.2,0.5,6.2,1.5
			c1.9,0.9,3.6,2.1,5.1,3.5c0.1,1.2,0.2,2.3,0.3,3.4c-0.8,6.5-2.3,14.1-4.5,22.5c-2.1,8.4-5.1,15.5-8.9,21.1
			C493.8,722.3,493.1,723.1,492.3,724z M544.4,575.8c4.4-4,9.4-6,15.3-6c2.9,0,5,0.7,6.5,2.1c1.6,1.5,2.6,3.4,3.3,5.9
			c0.6,2.3,1,4.9,1,7.7l0,0.7c-0.1,5.7-1.4,11.6-3.8,17.6c-2.4,6-5.4,11.3-8.9,15.7c-4.8,6-10.3,11.2-16.5,15.5
			c-5.5,3.8-11.5,6.8-17.8,8.7c0.4-9.2,1.3-18,2.8-26.4c1.6-9.1,3.9-17.3,7-24.5C536.2,585.6,539.9,579.9,544.4,575.8z"/>
		<path class="st5" d="M487.2,782.2c-4.2,0-7.5,1.5-9.8,4.4c-2.2,2.7-3.3,6.1-3.3,9.8c0,1.9,0.4,3.9,1.3,5.7c0.9,1.9,2.2,3.5,4,4.8
			c1.8,1.3,4.1,1.9,6.8,1.9c4.3,0,7.6-1.6,9.9-4.6c2.1-2.8,3.2-6.2,3.2-9.9c0-2.9-1-5.7-3-8.1C494.2,783.6,491.1,782.2,487.2,782.2z
			"/>
		<path class="st5" d="M748.2,844.7c-0.7-0.4-1.5-0.7-2.3-0.7c-1.6,0-3,0.8-3.8,2.2c-3.9,6.4-11.7,15.3-23.4,26.6
			c-11.3,10.9-23,16.4-34.8,16.4c-6.1,0-11.1-2.5-15.3-7.8c-4.3-5.4-6.4-13.1-6.4-23c0-1.1,0-2.2,0.1-3.3c3.6,1.7,7.8,2.5,12.6,2.5
			c5,0,9.6-1.6,13.7-4.8c4.3-3.3,6.5-7.8,6.5-13.2c0-6.2-2.2-10.9-6.6-14.1c-4.1-2.9-8.7-4.4-13.8-4.4c-9.8,0-17.5,4-22.7,12
			c-3.8,5.8-6.2,12.2-7.1,19.2c-1.6,2.8-3.2,5.8-5,8.9c-3.3,5.7-6.8,11.4-10.5,16.7c-3.6,5.3-7.3,9.7-11,13.2
			c-3.3,3.1-6.3,4.7-9,4.7c-3.6,0-6.8-1.9-9.8-5.9c-3.3-4.4-6.2-10.4-8.6-17.9c-2.4-7.6-4.3-16.3-5.5-25.7
			c-1.1-8.6-1.6-17.6-1.6-26.6V819c7.1-2,13.8-5,19.9-9c6.7-4.4,12.7-9.7,17.8-15.8c3.9-4.6,7.5-10,10.6-16.2
			c3.2-6.3,4.9-12.7,5.1-19.1v-0.4c0-3.8-0.7-7.3-2.1-10.5c-1.4-3.4-3.7-6.3-6.6-8.4c-3-2.2-6.8-3.3-11.2-3.3
			c-7.7,0-14.6,1.7-20.4,5c-5.7,3.3-10.7,7.8-14.7,13.3c-3.9,5.4-7.1,11.7-9.6,18.6c-2.4,6.8-4.2,14.2-5.2,21.8
			c-1.1,7.5-1.6,15.1-1.6,22.5c0,3.7,0.1,7.5,0.2,11.3c-1.5-0.7-2.9-1.3-4.4-1.8c-2.9-0.9-5.8-1.4-8.7-1.4c-7.9,0-14.2,3.3-18.7,9.7
			c-3.4,4.9-5.5,10.9-6.2,17.9c-0.7,1.6-1.5,3.3-2.3,4.9c-3.2,6.8-6.5,13.3-10,19.4c-3.4,6-6.8,11-10.1,14.8
			c-2.9,3.3-5.5,5.1-7.7,5.1c-1.3,0-2.3-1.8-2.9-3.3c-1.3-3.1-2.2-7.3-2.9-12.3c-0.7-5.2-1.1-10.9-1.3-17c-0.1-3.6-0.2-7.2-0.2-10.7
			c0-2.4,0-4.7,0.1-7c0.1-5.8,0.4-11.1,0.7-15.8c0.5-7.3,0.5-7.9,0.5-8.2c0-1.6-0.6-4.4-4.3-6.1c-1.5-0.7-3.2-1-4.9-1
			c-0.9,0-1.9,0.1-2.8,0.3c-3.1,0.7-5.2,2.8-5.7,5.7l0,0.1c-0.5,3.9-1,8.7-1.3,14.3c0,0.5-0.1,1-0.1,1.5c-4.5,2.9-9.4,5.5-14.6,7.8
			c-6.8,3-13.8,5.8-20.8,8.3c-2-2.1-4.1-4.2-6.3-6.3c-2.9-2.8-5.7-5.7-8.3-8.6c-2.5-2.8-4.5-5.7-6-8.8c-1.5-2.9-2.2-6.2-2.2-9.8
			c0-3.5,1-6.5,3.1-9.1c1.9-2.4,4.5-3.6,8-3.6c1.9,0,3.5,0.5,4.6,1.4c1.2,1,2,2.2,2.5,3.9c0.3,1,0.4,2,0.4,3.1c0,0.5,0,1.1-0.1,1.7
			c-0.1,0.8-0.2,1.4-0.2,1.8c0,1.2,0.4,2.3,1.2,3.1c0.6,0.6,1.6,1.2,3.2,1.2c2.3,0,4-1.4,4.5-3.7l0-0.1c0.2-1.4,0.3-2.7,0.3-4.1
			c0-5.4-1.9-9.9-5.6-13.4l-0.1-0.1l-0.1-0.1c-4.7-3.9-9.6-5.8-14.6-5.8c-7.6,0-13.7,2.6-18.3,7.6c-4.2,4.6-6.5,10.4-6.8,17.1
			c-1.1,2.2-2.2,4.7-3.3,7.6c-1.2,3.2-2.3,6.3-3.2,9.2c-0.5,1.6-1,3-1.4,4.2c-4.1,12-8.6,24-13.2,35.7c-0.8,2.2-2.1,5.3-3.8,9.3
			c-1.7,4-3.7,8.3-5.9,13c-2.2,4.6-4.7,9.1-7.3,13.3c-2.6,4.1-5.2,7.6-7.9,10.2c-2.3,2.3-4.5,3.5-6.4,3.5c-1.9,0-3.5-1.1-5.1-3.3
			c-1.9-2.7-3.5-6.3-4.9-10.8c-1.4-4.6-2.5-9.7-3.4-15.2c-0.9-5.5-1.6-11.1-2.1-16.4c-0.5-5.4-0.8-10.3-1-14.6
			c-0.2-4.3-0.3-7.5-0.3-9.6c0-11.5,0.4-23,1.2-34.4c0.7-10.2,1.6-20.5,2.7-30.8c2.3-0.6,4.7-1.2,7-1.9c7.2-2.2,14.2-5.1,20.8-8.6
			c17.5-9.3,26.4-21.6,26.4-36.5c0-1.7-0.3-3-1-4.1c-0.9-1.4-2.4-2.1-4.2-2.1c-2.1,0-3.4,0.9-4.1,1.7c-1,1.1-1.5,2.6-1.5,4.6
			c0,10.8-7.4,20.4-21.9,28.6c-5.1,2.9-10.4,5.3-15.9,7.2c-1.5,0.5-3.1,1-4.6,1.5l1.1-9.1c0,0,0,0,0,0c0.8-6.3,1.3-11.3,1.8-14.8
			c0.1-1.2,0.2-2,0.2-2.5c0-4.6-2.7-6.4-4.3-7.1c-1.2-0.5-2.5-0.7-3.7-0.7c-1.4,0-2.9,0.3-4.3,0.9c-2.1,0.8-4.7,2.8-5.5,7.4l0,0.1
			c-0.6,4.7-1.3,10.6-2.2,17.8l-1.2,10.9c-2.2,0.2-4.3,0.3-6.6,0.4c-1.1,0-2.2,0.1-3.3,0.1c-17.8-0.7-29.9-6.2-36.1-16.3
			c-2.5-4.5-5.3-6.7-8.5-6.7c0,0,0,0,0,0c-3.9,0.1-6.2,2.5-6.3,6.4c0,5.1,3.6,10.3,11,15.9c8.8,6.5,22.2,9.7,39.8,9.7
			c0.5,0,1,0,1.5,0c2.5-0.1,5-0.2,7.4-0.4c-0.9,9.3-1.7,18.6-2.3,27.8c-0.5,8-0.9,16-1,24c-0.3,0.6-0.6,1.1-0.9,1.7
			c-3.4,6.2-7,12.4-10.7,18.2c-3.6,5.8-7.1,10.6-10.5,14.4c-3.8,4.3-6,5-6.9,5c0,0-0.6-0.3-1.5-2.3c-1-2.4-1.9-5.5-2.6-9.3
			c-0.7-3.9-1.3-7.8-1.7-11.9c-0.4-4.1-0.7-7.7-0.9-10.9c-0.3-3.9-0.3-5.6-0.3-6.3l0-0.1c-0.2-3.9-0.3-7.8-0.3-11.6c0-2,0-4,0.1-6.1
			c0-2.4-0.9-7.8-9.2-7.8c-8.1,0-9.5,5.3-9.7,7.6c-0.4,2.6-0.7,5.5-1,8.4c-0.7,5.4-1.6,10.9-2.5,16.4c-1,5.4-2.1,10.4-3.5,14.9
			c-1.3,4.4-2.9,7.9-4.6,10.5c-2.1,3.1-3.8,3.1-4.4,3.1c-2.4,0-4.3-1-5.9-3.2c-1.9-2.6-3.4-6-4.5-10.1c-1.2-4.4-2-9.1-2.6-14.1
			c-0.6-5-0.9-10-1.1-14.7c-0.1-4.7-0.2-8.7-0.2-12c0-1.5,0-2.8-0.1-4c-0.3-3.3-2.1-5.7-5.2-6.7c-1.2-0.4-2.3-0.6-3.5-0.6
			c-1.5,0-2.9,0.3-4.3,0.9c-3,1.2-4.7,3.6-4.8,6.9v3.8c0,1.6,0,3.2,0.1,5c-4.4,1.8-9.1,3.2-14,4.2c-5.8,1.2-10.9,1.9-15,2
			c0.3-2.5,0.4-4.7,0.4-6.7c0-4-0.5-8.2-1.5-12.4c-1-4.3-2.6-8.3-4.7-11.9c-2.2-3.7-5.1-6.8-8.7-9.2c-3.7-2.4-8.1-3.6-13.1-3.6
			c-6.7,0-12.4,1.9-16.8,5.7c-4.6,3.9-6.9,9.5-6.9,16.7c0,1.8,0.2,3.6,0.5,5.5c-1,5.9-1.5,12.9-1.7,20.8c0,8.7,0.9,16.2,2.7,22.5
			l0,0.1c1.7,5.1,4.2,8.9,7.5,11.5c3.3,2.6,7,3.9,10.9,3.9c5.2,0,9.8-1.3,13.4-3.7c3.5-2.4,6.6-5.8,9.1-10.2
			c3.4-6.1,5.9-12.8,7.4-19.9h0.1c5.2,0,11.4-0.8,18.6-2.2c4.1-0.9,8.2-2,12-3.4c0.1,2.5,0.3,5,0.5,7.7c0.7,8.8,2.3,17.1,5,24.5
			l0,0.1c2.5,6.1,5.9,10.8,10,13.8c4.2,3.1,8.4,4.7,12.5,4.7c4.3,0,8.1-1.5,11.3-4.5c3-2.8,5.6-7,8-12.9c1.1-2.8,2-5.8,2.9-8.9
			c0.3,2.4,0.6,4.8,1,7.2c1.5,8.7,3.5,14.9,6.2,19c2.9,4.6,6.5,6.9,10.6,6.9c3.6,0,7-1,10-2.9c2.8-1.8,5.5-4.3,8.2-7.4
			c2.5-3,5.2-6.5,8.1-10.6c2.9-4.1,5.7-8.5,8.5-13.1c0,1.4,0.1,2.8,0.2,4.4c0.2,5.1,0.6,10.7,1.3,16.7c0.6,6.1,1.6,12.2,2.8,18.3
			c1.2,6.2,2.9,11.9,5,17.1c2.1,5.3,4.8,9.8,8,13.1c3.5,3.6,7.7,5.5,12.6,5.5c4.5,0,8.7-1.3,12.5-3.9c3.6-2.5,7-5.7,9.9-9.7
			c2.9-3.9,5.6-8.2,8-12.9c2.4-4.6,4.6-9.2,6.5-13.8c1.9-4.6,3.6-8.9,5-12.7c0.8-2,1.5-3.8,2.2-5.6c4.6-11.8,9.1-23.9,13.3-36
			l1.4-4.3c0.5-1.4,0.9-2.7,1.4-4.2c1.8,3.6,4.1,7,6.9,10.1c2.8,3.2,5.8,6.3,8.9,9.3c1.5,1.5,3,3,4.4,4.5c-5.7,2.8-11.8,7-18.1,12.5
			c-8,7-12.1,16-12.1,26.5c0,8.5,2.7,16.1,7.9,22.4c5.4,6.5,12.4,9.7,20.8,9.7c9.1,0,17.3-4.1,24.4-12.1c7-7.9,10.5-17.8,10.5-29.3
			c-0.1-8-1.6-14.7-4.3-19.9c-1.9-3.6-3.8-6.7-5.8-9.5c4.3-1.6,8.6-3.3,12.8-5c5.4-2.2,10.8-4.8,16-7.7c0,1,0,2,0,3v2.7
			c0.1,6.4,0.4,12.8,1.1,19c0.7,6.3,1.8,12.2,3.3,17.4c1.6,5.4,3.8,9.9,6.4,13.2c3,3.7,6.9,5.6,11.5,5.6c5,0,9.9-2.3,14.4-6.8
			c4.2-4.1,8.3-9.5,12.1-16c2.7-4.5,5.2-9.2,7.7-14.2c0.2,0.9,0.4,1.9,0.7,2.8c1.4,5.4,3.6,9.9,6.3,13.5c3.1,3.9,6.9,5.9,11.4,5.9
			l0.2,0c5.8-0.3,10.6-3.2,14.3-8.6c3.4-4.9,6-10.4,8-16.6c0.4-1.2,0.7-2.4,1.1-3.6c0.1,0.3,0.1,0.6,0.2,0.9c1.1,4.5,2.6,9,4.3,13.4
			c1.8,4.5,4.1,8.6,6.8,12.4c2.8,3.8,6.2,6.9,10.1,9.3c4,2.4,8.7,3.6,14,3.6c4.1,0,7.7-0.9,10.8-2.6c2.9-1.6,5.9-3.9,8.7-6.8
			c5.8-6,11.4-13.4,16.6-22c0.9-1.6,1.8-3.1,2.7-4.6c1.5,7.2,4.6,13.3,9.3,18.1c6.9,7,16.7,10.6,29.1,10.6
			c13.7,0,27.2-6.2,40.2-18.5c12.9-12.1,21.2-21.6,25.6-28.9c0.4-0.7,0.7-1.5,0.7-2.3C750.5,847,749.7,845.6,748.2,844.7z
			 M140.6,805.9c2.6-1.8,5.9-2.7,9.9-2.7c3.4,0,6.2,0.8,8.3,2.4c2.3,1.7,4,3.8,5.3,6.5c1.3,2.8,2.3,6,2.9,9.3
			c0.6,3.5,0.9,6.8,0.9,9.9c0,1.8-0.1,4-0.3,6.5c-4.1-0.3-8.3-0.9-12.4-1.8c-4.2-1-8-2.5-11.3-4.6c0.5-4.6,1.3-9.2,2.6-13.8
			c0.2-0.9,0.3-1.8,0.3-2.6c0-2.5-1.1-4.1-2-4.9c-1.4-1.3-3.2-2-5.3-2c-0.3,0-0.7,0-1,0C138.9,807.2,139.7,806.5,140.6,805.9z
			 M143.3,841.3c3.2,1.5,6.7,2.7,10.4,3.5c4.1,0.9,8.3,1.5,12.5,1.8c-0.6,3.3-1.5,6.6-2.6,9.8c-1.3,4-3.2,7.4-5.6,10
			c-2.1,2.4-4.2,3.5-6.6,3.5c-1.9,0-3.6-1.7-5.2-4.9C145,862.5,143.5,856.2,143.3,841.3z M682.4,833.6c1.4,1.7,2.1,3.7,2.1,6.1
			c0,2.7-0.9,4.8-2.6,6.4c-1.9,1.7-4.1,2.5-6.9,2.5c-4.7-0.1-8.5-1.1-11.5-3c0.6-2.7,1.4-5,2.5-6.9c2.6-4.8,6.2-7.3,11-7.4
			C679.3,831.3,681.1,832.1,682.4,833.6z M603.6,750.4c3.9-3.5,8.5-5.2,13.9-5.2c2.4,0,4.3,0.5,5.5,1.6c1.3,1.2,2.3,2.8,2.8,4.8
			c0.6,2,0.9,4.3,0.9,6.7l0,0.6c-0.1,5.1-1.3,10.3-3.5,15.6c-2.3,5.4-5.1,10.1-8.3,13.9c-4.5,5.3-9.7,10-15.4,13.8
			c-4.7,3.2-9.8,5.6-15.2,7.3c0.4-7.7,1.3-15.2,2.6-22.3c1.5-8.2,3.7-15.6,6.5-22C596,759,599.5,754,603.6,750.4z M554.6,881.2
			c-0.4,0.6-1,1.3-1.8,2c-0.5,0.5-0.8,0.6-1.1,0.7c-1.1-0.2-2.1-2.3-2.4-3.2c-1.2-3.1-2.1-6.9-2.7-11.2c-0.6-4.4-0.9-8.5-0.9-12.2
			c0-3.1,0.4-6.4,1.1-10c0.7-3.3,1.9-6.2,3.7-8.4c1.5-2,3.7-3,6.5-3.2c1.8,0,3.7,0.4,5.4,1.3c1.6,0.7,3,1.6,4.3,2.7
			c0.1,0.9,0.2,1.7,0.2,2.6c-0.8,5.8-2.2,12.6-4.2,20.2C560.9,869.8,558.1,876.2,554.6,881.2z M431,913.2c-3.2,5-7.4,7.4-12.7,7.4
			c-5.7,0-9.7-2-12.1-6.2c-2.7-4.6-4.1-10.1-4.1-16.4c0-7.4,2.4-13.4,7.4-18.4c4.8-4.7,10.6-8.7,17.4-11.8c2,2.5,4,5.5,5.9,8.9
			c2.2,3.9,3.3,9.4,3.3,16.6C436.1,901.3,434.4,908,431,913.2z"/>
	</g>
	<g>
		<path class="st5" d="M807.3,624.5L807.3,624.5c-7.7,0-14.4-5.7-15.5-13.5l0,0c-1.2-8.6,4.8-16.5,13.3-17.7l0,0
			c8.6-1.2,16.5,4.8,17.7,13.3l0,0c1.2,8.6-4.8,16.5-13.3,17.7C808.7,624.5,808,624.5,807.3,624.5z M760.5,624.2L760.5,624.2
			c-0.8,0-1.6-0.1-2.4-0.2l0,0c-8.6-1.3-14.4-9.3-13.1-17.9l0,0c1.3-8.6,9.3-14.4,17.9-13.1l0,0c8.5,1.3,14.4,9.3,13.1,17.9
			C774.8,618.7,768.1,624.2,760.5,624.2z M852.3,611.4L852.3,611.4c-6,0-11.6-3.4-14.3-9.2l0,0c-3.6-7.9-0.1-17.2,7.8-20.7l0,0l0,0
			l0,0c7.9-3.6,17.2-0.1,20.7,7.8l0,0c3.6,7.9,0.1,17.2-7.8,20.7C856.6,611,854.4,611.4,852.3,611.4z M715.7,610.4L715.7,610.4
			c-2.2,0-4.5-0.5-6.6-1.5l0,0c-7.8-3.7-11.2-13-7.6-20.8l0,0c3.7-7.8,13-11.2,20.8-7.6l0,0c7.8,3.7,11.2,13,7.6,20.8
			C727.2,607.1,721.6,610.4,715.7,610.4z M891.9,586.4L891.9,586.4c-4.4,0-8.8-1.9-11.9-5.5l0,0c-5.6-6.6-4.8-16.5,1.8-22.1l0,0l0,0
			l0,0c6.6-5.6,16.5-4.8,22.1,1.8l0,0c5.6,6.6,4.8,16.5-1.8,22.1C899.1,585.1,895.4,586.4,891.9,586.4z M676.2,585.1L676.2,585.1
			c-3.6,0-7.3-1.2-10.2-3.8l0,0c-6.6-5.6-7.3-15.5-1.7-22.1l0,0c5.6-6.6,15.5-7.3,22.1-1.7l0,0c6.6,5.6,7.3,15.5,1.7,22.1
			C685,583.3,680.6,585.1,676.2,585.1z"/>
	</g>
	<g>
		<path class="st5" d="M835.7,413c-17.4,0-31.5,14.1-31.5,31.5c0,17.4,14.1,31.5,31.5,31.5c17.4,0,31.5-14.1,31.5-31.5
			C867.2,427.1,853.1,413,835.7,413z M843.1,447.9c-6.5,0-11.7-5.3-11.7-11.7c0-6.5,5.3-11.7,11.7-11.7c6.5,0,11.7,5.3,11.7,11.7
			C854.8,442.6,849.6,447.9,843.1,447.9z"/>
		<path class="st5" d="M725.6,413c-17.4,0-31.5,14.1-31.5,31.5c0,17.4,14.1,31.5,31.5,31.5c17.4,0,31.5-14.1,31.5-31.5
			C757.1,427.1,743,413,725.6,413z M733,447.9c-6.5,0-11.7-5.3-11.7-11.7c0-6.5,5.3-11.7,11.7-11.7c6.5,0,11.7,5.3,11.7,11.7
			C744.7,442.6,739.5,447.9,733,447.9z"/>
	</g>
	<g>
		<path class="st9" d="M811.2,548.2c29.9-2.8,112.7-32.5,123.6-40.2c1.9-1.4,5.9-3.4,6.4-6c2.2-11-77.6-5.7-86.6-4.8
			c-12.8,1.3-25.7,2.5-38.4,4.8c-10.1,1.8-22.5,3.5-30.2,11.1c-4.4,4.3-5.9,10.6-4.8,16.6c1.1,6.4,3.1,13.4,9,16.9
			C796.1,550.1,804.6,548.8,811.2,548.2C811.2,548.2,811.2,548.2,811.2,548.2z"/>
		<path class="st10" d="M806.7,533.2c-2-5-2.5-10.4-2.6-15.8c0-3.4-0.2-8.5,2.1-11.3c0.1-0.1,0.2-0.1,0.2,0
			c-2.6,8.5-0.4,18.1,1.2,26.5C807.7,533.1,806.9,533.8,806.7,533.2z"/>
		<path class="st10" d="M820.5,543.7c-2.5-5.4-3.7-10.9-4-16.8c0-0.1,0.2-0.3,0.3-0.1c0.5,2.7,1,5.5,1.7,8.2
			c0.8,2.8,2.2,5.3,2.7,8.2C821.3,543.5,820.7,544.1,820.5,543.7z"/>
		<path class="st10" d="M825,540c-0.5-1.1-0.7-2.2-0.9-3.3c-0.2-1.3-0.1-2.5-0.6-3.7c0-0.1,0.1-0.3,0.2-0.2c0.5,0.8,0.6,1.7,0.8,2.6
			c0.3,1.4,0.9,2.8,1.2,4.2C825.7,539.8,825.2,540.3,825,540z"/>
		<path class="st10" d="M834.1,524.1c-1.6-6.4-1.9-13-1.1-19.5c0-0.2,0.3-0.4,0.3-0.1c0.2,6.5,0.9,12.8,1.5,19.3
			C834.9,524.2,834.2,524.6,834.1,524.1z"/>
		<path class="st10" d="M838,510.6c-0.3-2.2,0.3-4.4,0.3-6.7c0-0.1,0.1-0.2,0.2-0.1c0.6,2,0.5,4.3,0.3,6.4
			C838.7,510.5,838,511.1,838,510.6z"/>
		<path class="st10" d="M869.2,530.6c-0.8-1.5-1.3-3-1.9-4.5c-0.6-1.6-0.7-3.4-1.4-5c0-0.1,0.2-0.3,0.3-0.2c0.9,1.4,1.4,3,2,4.5
			c0.7,1.5,1.3,3,1.7,4.6C870.1,530.4,869.4,531.1,869.2,530.6z"/>
		<path class="st10" d="M880.9,505.3c-0.3-1.2-0.6-2.7-0.2-4c0,0,0,0,0,0c0-0.1,0-0.1,0.1-0.2c0,0,0,0,0,0c0,0,0,0,0,0l0,0
			c0.1-0.1,0.3-0.3,0.4-0.1c0.2,0.6,0.1,1.2,0.2,1.9c0.1,0.7,0.2,1.3,0.3,2C881.7,505.3,881,505.9,880.9,505.3z"/>
		<path class="st10" d="M892.3,507.9c-0.3-1.2-1.3-9.7-0.1-9.6c0,0-0.1,0-0.1,0c0,0,0,0,0,0c-0.1-0.3,0.4-0.7,0.5-0.3
			c0.5,3.1,0.5,6.5,0.4,9.7C893,507.9,892.4,508.4,892.3,507.9z"/>
		<path class="st10" d="M907.8,517.1c-1.1-1.5-0.5-3.6-1.1-5.2c0-0.1,0.1-0.2,0.2-0.1c0.5,0.6,0.8,1.4,1,2.1
			c0.3,0.9,0.8,1.8,0.7,2.8C908.5,517,908.1,517.5,907.8,517.1z"/>
		<path class="st10" d="M913.3,514.9c-0.9-1-1-2.4-1.4-3.6c-0.3-1-1-3.2-0.6-3.8c0,0-0.1,0-0.1,0c0-0.1,0-0.1,0-0.2
			c0-0.1,0.2-0.4,0.3-0.2c0.7,1,1,2.3,1.5,3.4c0.5,1.3,1.2,2.5,1,3.9C914,514.6,913.6,515.2,913.3,514.9z"/>
	</g>
	<path class="st11" d="M765.7,377.1c0.1,0,0.1,0,0.2,0c-1.3,0.1-2.6,0.2-3.9,0.3C763.2,377.3,764.4,377.2,765.7,377.1z"/>
	<path d="M770.9,376.5c-0.1,0-0.2,0-0.3,0l0,0c4-0.5,7.9-1,11.8-1.5l0,0C778.6,375.6,774.8,376.1,770.9,376.5z"/>
	<g>
		<path class="st1" d="M933.5,280.7c-0.7-1.9-1.6-3.6-2.7-5c-1.4-1.8-3.2-3.2-5.3-4.1c-3.9-1.6-8.2-2.4-13.2-2.3
			c-5.2,0.1-13.7,0.6-24,4.2c-3,1-6.1,2.3-9.4,3.9c0-0.2,0-0.3-0.1-0.5c0,0,0-0.1,0-0.1c0-0.1,0-0.2,0-0.3c-0.2-1.6-0.4-3.2-0.6-4.8
			c-0.2-1.9-0.4-3.7-0.7-5.5c-0.1-1.1-0.2-2.2-0.3-3.3c-0.2-1.8-0.3-3.5-0.5-5.2c-0.1-1.6-0.3-3.2-0.4-4.8c-0.1-1.1-0.1-2.1-0.2-3.2
			c0-0.6-0.1-1.3-0.1-1.9c-0.1-1.5-0.2-3-0.2-4.4c-0.1-2.2-0.2-4.3-0.2-6.3l0-0.9l0-0.7c-0.1-2.8-0.1-5.5,0-8.1
			c0-5.3,0.2-10,0.5-14.1c0,0,0.9-14.4,4-44.4c0.4-3.5,0.7-7.2,1.1-11.1c0.1-1.3,0.3-2.7,0.4-4.1c0,0,0,0,0,0
			c0.1-1.4,0.3-2.9,0.5-4.3l0,0c0.1-0.9,0.2-1.7,0.3-2.5c0.3-3,0.7-5.8,1.1-8.2c0-0.8,0.1-1.6,0.1-2.5c0.3-9.7-1.3-20.6-9.5-26.7
			c-0.6-0.4-1.1-0.8-1.7-1.1c-2.4-1.3-5.4-2.3-8.8-3.1c-0.6-0.1-1.1-0.2-1.6-0.3c-0.3,0-0.5-0.1-0.8-0.2c-0.3,0-0.5-0.1-0.8-0.1
			c-5-0.9-10.5-1.6-16.5-2.3c-2.8-0.3-5.7-0.6-8.7-0.9c-4.4-0.4-9-0.7-13.7-1c-4.3-0.3-8.8-0.5-13.4-0.6c-4.2-0.2-8.6-0.3-13-0.4
			c-0.2,0-0.4,0-0.6,0c-7.5-0.1-15.2-0.1-23.2,0c-0.9,0-1.9,0-2.8,0c-8.1,0.2-16,0.6-23.6,1.1c-3.7,0.2-7.4,0.5-11,0.8
			c-4,0.3-7.8,0.7-11.6,1c-3.9,0.4-7.8,0.8-11.5,1.2c-3.8,0.5-7.6,1-11.1,1.5c-1.4,0.2-2.7,0.4-4,0.6c-6.7,1-12.8,2.2-18.3,3.4
			c-0.2,0.1-0.5,0.1-0.8,0.2c-0.3,0.1-0.5,0.1-0.8,0.2c-0.5,0.1-1,0.2-1.6,0.4c-3.4,0.9-6.3,2.1-8.6,3.5c-0.9,0.6-1.7,1.2-2.5,1.9
			c-5.5,5.1-7.3,12.7-7.3,20.2c0,2.9,0.2,5.9,0.5,8.6c0.3,1.6,0.7,3.2,1,5c0.3,1.8,0.7,3.6,1,5.6l0,0c0.2,1.5,0.5,2.9,0.7,4.3
			c0,0,0,0,0,0c0.3,1.6,0.5,3.1,0.8,4.6c0.9,5.1,1.6,9.8,2.3,14.1c4.5,27.3,6.1,40.5,6.1,40.5c0.5,4,1,8.6,1.3,13.7
			c0,0.4,0.1,0.7,0.1,1.1c0.2,2.4,0.3,4.9,0.4,7.6c0,0.5,0,1,0.1,1.4c0,1,0.1,2,0.1,3c0,0,0,0.1,0,0.1c0,0,0,0.1,0,0.1l0,0.2
			c0,0,0,0,0,0c0,0.1,0,0.2,0,0.4c0,0.3,0,0.7,0,1c0.1,3.3,0.1,6.7,0.1,10.3c0,0.3,0,0.6,0,1c0,0.5,0,1,0,1.6c0,0.5,0,1.1,0,1.6
			c0,0.9,0,1.8,0,2.7c-0.1,1.7-0.1,3.5-0.2,5.3c0,0.2,0,0.4,0,0.6c0,0.1,0,0.2,0,0.3c0,0.5,0,1.1-0.1,1.6c-0.1,3-0.3,6-0.6,9.2
			c0,0.4,0,0.7-0.1,1.1c0,0.1,0,0.1,0,0.2c-6.1-2.6-11.7-4.2-16.7-5.2c-7.3-1.4-13.2-1.4-17.2-1.3c-5,0.1-9.2,1.1-13,2.9
			c-1.8,0.9-3.4,2.2-4.6,3.8c-1.4,1.8-2.4,4.1-3.1,6.6c-0.9,3.5-0.9,7.6-0.2,11.9c0.3,2,0.8,4,1.4,6.1c0.7,2.2,1.6,4.4,2.6,6.6
			c0.3,0.7,0.7,1.3,1,2c0.2,0.4,0.4,0.7,0.6,1.1c0.6,1.1,1.2,2.2,1.9,3.2c6.7,10.8,17.3,21,30.6,29.3c0,0,0,0,0,0
			c2.7,1.7,5.4,3.3,8.3,4.8c5.5,2.9,11.4,5.5,17.6,7.9c0,0,0,0,0,0c6.1,2.3,12.4,4.3,19.1,6.1c1.3,0.3,2.6,0.7,4,1
			c16.6,4.1,35,6.5,55.3,7.4c4.3,0.2,8.6,0.3,13,0.3c1.2,0,2.3,0,3.5,0c1.3,0,2.6,0,3.9,0c0.8,0,1.5-0.1,2.3-0.1
			c0.9,0,1.8-0.1,2.7-0.1c4-0.2,8-0.5,11.9-0.8c20.5-1.7,39-4.9,55.7-9.7c2.6-0.7,5.1-1.5,7.5-2.3c3.1-1,6.1-2.1,9-3.2
			c3-1.2,6-2.4,8.9-3.6c2.9-1.3,5.7-2.7,8.5-4.1c2.8-1.4,5.4-2.9,8-4.4c0,0,0.1,0,0.1-0.1c13.9-8.3,25.1-18.4,32.6-29.3
			c1.7-2.5,3.3-5.1,4.7-7.7c0.4-0.7,0.7-1.4,1-2.1c0.1-0.2,0.2-0.4,0.3-0.6c0.2-0.4,0.4-0.9,0.6-1.3c0.6-1.4,1.1-2.8,1.6-4.3
			c0.4-1.3,0.8-2.7,1.2-4c0.5-2,0.8-4.1,1-6C935.3,288.8,934.9,284.3,933.5,280.7z"/>
		<g>
			<path class="st5" d="M745.6,131.7l7.2-0.2l43.1,41.2l-0.3-12.4l-30.4-29.1l12.1-0.3l18.1,17.3l-0.3-12.4l-5.4-5.2l5.3-0.1
				l-0.2-7.2l7.3,7l12.4-0.3l-20-19.1l-0.3-11.6c-7.5-0.1-15.2-0.1-23.2,0c-0.9,0-1.9,0-2.8,0c-8,0.2-15.8,0.6-23.3,1.1l0.3,11.5
				l-11.2-10.7c-0.1,0-0.2,0-0.4,0c-3.8,0.3-7.6,0.6-11.2,1l23.1,22.1L745.6,131.7z"/>
			<path class="st5" d="M838.9,129.7l-31.1-29.8c-4.2-0.2-8.6-0.3-13-0.4l31.8,30.4L838.9,129.7z"/>
			<path class="st5" d="M844.2,129.6l7.2-0.2l29.7,28.4c0,0,0,0,0-0.1c0.1-1.3,0.3-2.7,0.4-4.1c0,0,0,0,0,0c0.1-1.4,0.3-2.9,0.5-4.3
				l0,0c0.1-0.8,0.2-1.7,0.3-2.5l-18.5-17.7l12.1-0.3l7.6,7.3c0,0,0,0,0,0c0.3-9.7-1.3-20.6-9.5-26.7c-0.6-0.4-1.1-0.8-1.7-1.1
				c-2.4-1.3-5.4-2.3-8.8-3.1c-0.6-0.1-1.1-0.2-1.6-0.3c-0.3,0-0.5-0.1-0.8-0.2c-0.3,0-0.5-0.1-0.8-0.1c-5-0.9-10.5-1.6-16.5-2.3
				l0.2,7.6l-8.8-8.5c-4.4-0.4-9-0.7-13.7-1l22.9,21.9L844.2,129.6z"/>
			<path class="st5" d="M669.9,240.7c0,0.5,0,1,0.1,1.4c0,1,0.1,2,0.1,3c0,0,0,0.1,0,0.1c0,0,0,0.1,0,0.1l0,0.2c0,0,0,0,0,0
				c0,0.1,0,0.1,0,0.2l0,0l29.3,28l-0.3-12.4l-29.6-28.3C669.6,235.6,669.8,238.1,669.9,240.7z"/>
			<path class="st5" d="M741.9,230.5L697.5,188l-0.1-5.8l-5.8,0.1l-34.5-33c0.3,1.8,0.7,3.6,1,5.6l0,0c0.2,1.5,0.5,2.9,0.7,4.3
				c0,0,0,0,0,0c0.3,1.6,0.5,3.1,0.8,4.6l19.6,18.7l-12.1,0.3l-5.1-4.9c4.5,27.3,6.1,40.5,6.1,40.5c0.5,4,1,8.6,1.3,13.7l11-0.2
				l18.4,17.6l-0.3-12.4l-5.7-5.5l5.6-0.1l-0.1-6.6l6.8,6.5l12.4-0.3L698,212.4l-0.3-12.1l31.8,30.4L741.9,230.5z"/>
			<path class="st5" d="M699.5,280.8l-5.6,0.1l-23.7-22.7c0,0.1,0,0.1,0,0.2c0,0.5,0,1,0,1.6c0,0.5,0,1.1,0,1.6c0,0.9,0,1.8,0,2.7
				c-0.1,1.7-0.1,3.5-0.2,5.3c0,0.2,0,0.3,0,0.5l11.6,11.1l-12.1,0.3l-0.2-0.2c0,0,0,0.1,0,0.1c0,0.4,0,0.7-0.1,1.1
				c0,0.1,0,0.1,0,0.2c-6-2.6-11.5-4.2-16.4-5.1l4.3,4.1l-6.9,0.2l0.1,5.6l-5.7-5.5l-12.4,0.3l18.4,17.6l0.3,12.1l-30.7-29.4l-2.2,0
				c-0.1,0.1-0.2,0.2-0.3,0.4c-1.4,1.8-2.4,4-3,6.4l36.5,35l0.2,6.9l6.9-0.2l39.4,37.7c1.3,0.3,2.6,0.7,4,1l-0.2-9.5l-30.7-29.4
				l12.1-0.3l18.4,17.6l-0.3-12.4l-5.7-5.5l5.6-0.1l-0.2-6.9l7,6.7l12.4-0.3l-19.7-18.8l-0.3-12.1l32,30.7l12.4-0.3l-44.7-42.8
				L699.5,280.8z"/>
			<path class="st5" d="M651.6,349.1l0.8,0.7c0,0,0,0,0,0c2.7,1.7,5.4,3.3,8.3,4.8c5.5,2.9,11.4,5.5,17.6,7.9l-27-25.8L651.6,349.1z
				"/>
			<path class="st5" d="M875.7,243.3c-0.1-2.2-0.2-4.3-0.2-6.3l-1.4-1.4l-8.2-7.9l9.6-0.2c0-0.1,0-0.2,0-0.2c0-5.3,0.2-10,0.5-14.1
				c0,0,0.9-14.4,3.9-44.3l-35.6-34l0.3,12.4l32.3,31l-12.1,0.3l-20-19.1l0.3,12.4l7.3,7l-7.2,0.2l0.1,5.3L840,179l-12.4,0.3
				l18.1,17.3l0.3,12.1l-30.4-29.1l-12.4,0.3l43.1,41.2l0.2,7.2l7.2-0.2l8.3,7.9l14.3,13.7c0-0.6-0.1-1.3-0.1-1.9
				C875.9,246.2,875.8,244.8,875.7,243.3z"/>
			<path class="st5" d="M930.8,275.7l-2.4,0.1l5.1,4.9C932.8,278.8,931.9,277.1,930.8,275.7z"/>
			<path class="st5" d="M916.3,276l-12.4,0.3l28.7,27.4c0.4-1.3,0.8-2.7,1.2-4c0.5-2,0.8-4.1,1-6L916.3,276z"/>
			<path class="st5" d="M750.8,371.4l5.9,5.6c4.3,0.2,8.6,0.3,13,0.3L750.5,359L750.8,371.4z"/>
			<path class="st5" d="M750.3,347l31.6,30.2c0.1,0,0.2,0,0.3,0c3.9-0.2,7.7-0.5,11.5-0.8L750,334.6L750.3,347z"/>
			<polygon class="st5" points="798.1,278.6 792.3,278.7 747.8,236.2 748.1,248.6 779.9,279 767.8,279.3 748.4,260.7 748.7,273 
				755.4,279.5 748.8,279.7 748.9,285.3 743.2,279.8 730.8,280.1 749.2,297.7 749.2,297.7 749.5,309.7 718.7,280.3 706.4,280.6 
				749.7,322.1 749.9,329 756.8,328.8 800.1,370.4 799.9,358 769.1,328.6 781.2,328.3 799.6,345.9 799.3,333.5 793.6,328 
				799.2,327.9 799.1,321.3 805.8,327.8 818.2,327.5 798.8,308.9 798.5,296.8 830.3,327.2 842.7,327 798.2,284.4 			"/>
			<path class="st5" d="M849.4,366.7c0.1,0,0.2-0.1,0.3-0.1c2.4-0.7,4.8-1.4,7.2-2.2l-7.7-7.3L849.4,366.7z"/>
			<path class="st5" d="M848.9,345l17,16.3c0.1,0,0.2-0.1,0.4-0.1c2.9-1.1,5.8-2.3,8.5-3.5l-26.1-25L848.9,345z"/>
			<path class="st5" d="M697.2,175.5l-0.3-12.4l-31-29.7l12.1-0.3l18.6,17.8l-0.3-12.4l-6-5.7l5.8-0.1l-0.2-7.2l7.3,7l12.4-0.3
				l-20-19.1l-0.2-7.5c-0.1,0-0.2,0-0.3,0c-6.7,1-12.8,2.2-18.3,3.4c-0.2,0.1-0.5,0.1-0.8,0.2c-0.3,0.1-0.5,0.1-0.8,0.2
				c-0.5,0.1-1,0.2-1.6,0.4c-3.4,0.9-6.3,2.1-8.6,3.5c-0.9,0.6-1.7,1.2-2.5,1.9c-5.5,5.1-7.3,12.7-7.3,20.2L697.2,175.5z"/>
			<path class="st5" d="M740.3,131.8l-29.4-28.1c-0.1,0-0.3,0-0.4,0c-3.7,0.4-7.3,0.9-10.7,1.4l28.2,26.9L740.3,131.8z"/>
			<polygon class="st5" points="841.1,228.3 796.1,185.2 796,180 790.7,180.1 745.7,137 745.9,149.4 778.3,180.4 778.3,180.4 
				766.2,180.6 746.2,161.5 746.5,173.9 753.8,180.9 746.6,181 746.8,186.9 740.8,181.2 728.4,181.4 747,199.3 747.3,211.4 
				716.3,181.7 703.9,182 747.6,223.7 747.7,230.4 754.3,230.2 798,272 797.7,259.6 766.7,229.9 778.8,229.7 797.4,247.5 
				797.2,235.1 791.2,229.4 797,229.3 796.9,222.1 804.2,229.1 816.6,228.9 796.6,209.7 796.3,197.6 828.7,228.6 			"/>
			<path class="st5" d="M846.5,233.5l0.3,12.4l32,30.7c-0.2-1.6-0.4-3.2-0.6-4.8c-0.2-1.9-0.4-3.7-0.7-5.5c-0.1-1.1-0.2-2.2-0.3-3.3
				l-27.7-26.6L846.5,233.5z"/>
			<path class="st5" d="M896.8,276.4l-5.3,0.1l-3.2-3c-3,1-6.1,2.3-9.4,3.9c0-0.2,0-0.3-0.1-0.5c0,0,0-0.1,0-0.1l-11.8,0.3l-20-19.1
				l0.3,12.4l7.3,7l-7.2,0.2l0.1,5.8l-5.7-5.5l-0.2-0.2l-12.4,0.3l0.3,0.3l18.4,17.6l0.3,12.1l-31-29.7l-12.4,0.3l0.4,0.3l43.3,41.4
				l0.1,6.6l6.6-0.1l28.1,26.9c0.1-0.1,0.2-0.1,0.3-0.2c2.7-1.4,5.2-2.8,7.7-4.3l-23.8-22.8l12.1-0.3l18.6,17.8l-0.3-12.4l-6-5.7
				l5.9-0.1l-0.2-7.2l7.3,7l12.4-0.3l-20-19.1l-0.3-12.1l27,25.9c0.1-0.1,0.1-0.2,0.2-0.3c1.7-2.4,3.2-4.9,4.5-7.3l-32-30.6
				L896.8,276.4z"/>
			<path class="st5" d="M614.3,301.5c0.3,2,0.8,4,1.4,6.1c0.7,2.2,1.6,4.4,2.6,6.6c0.3,0.7,0.7,1.3,1,2c0.2,0.4,0.4,0.7,0.6,1.1
				c0.6,1.1,1.2,2.2,1.9,3.2l11.5,11l12.4-0.3l-31.4-30.1C614.3,301.3,614.3,301.4,614.3,301.5z"/>
		</g>
		<path class="st1" d="M670.1,246.1c0,0.3,0,0.7,0,1c0.1,3.3,0.1,6.7,0.1,10.3c0,0.3,0,0.6,0,1c0,0.5,0,1,0,1.6c0,0.5,0,1.1,0,1.6
			c0,0.9,0,1.8,0,2.7c-0.1,1.7-0.1,3.5-0.2,5.3c0,0.2,0,0.4,0,0.6c0,0.1,0,0.2,0,0.3c0,0.5,0,1.1-0.1,1.6c-0.1,3-0.3,6-0.6,9.2
			c0,0.3,0,0.7-0.1,1l22.2-0.6l8.4-0.2l13.9-0.4l13.5-0.4l13.9-0.4l5.7-0.2l55.4-1.5l7.8-0.2l13.8-0.4l13.5-0.4l13.9-0.4l6.3-0.2
			l21.4-0.6c0,0,0-0.1,0-0.1c-0.2-1.6-0.4-3.2-0.6-4.8c-0.2-1.9-0.4-3.7-0.7-5.5c-0.1-1.1-0.2-2.2-0.3-3.3c-0.2-1.8-0.3-3.5-0.5-5.2
			c-0.1-1.6-0.3-3.2-0.4-4.8c-0.1-1.1-0.1-2.1-0.2-3.2c0-0.6-0.1-1.3-0.1-1.9c-0.1-1.5-0.2-3-0.2-4.4c-0.1-2.2-0.2-4.3-0.2-6.3
			l0-0.9l0-0.7c-0.1-2.8-0.1-5.5,0-8.1c0-0.5,0-0.9,0-1.3l-2.2,0.1l-13.9,0.4l-3.2,0.1l-55.4,1.5l-11.1,0.3l-13.5,0.4l-13.9,0.4
			l-13.9,0.4l-2.9,0.1l-55.4,1.5l-10.5,0.3l-10.2,0.3c0,0.2,0,0.3,0,0.5c0,0.4,0.1,0.7,0.1,1.1c0.2,2.4,0.3,4.9,0.4,7.6
			c0,0.5,0,1,0.1,1.4c0,0,0,0,0,0c0,1,0.1,2,0.1,3C670.1,245.5,670.1,245.8,670.1,246.1z"/>
		<g>
			<path class="st1" d="M884.5,675.4c7.1,10.7,12.9,23.8,18.1,38.3c1.9,5.3,3.6,10.7,5.4,16.4c5.6-3.7,10.8-7.8,15.5-12.4
				c1.3-1.2,2.6-2.4,3.8-3.7c0.8-0.9,1.6-1.8,2.4-2.7c1.9-2.2,3.6-4.6,5.2-7.1c0.2-0.3,0.4-0.7,0.6-1c0.1-0.1,0.1-0.1,0.2-0.2l0,0
				c1.3-2.2,2.4-4.5,3.5-6.9c0.1-0.1,0.1-0.2,0.2-0.4c1.1-3,2-6.1,2.7-9.2c0.8-3.4,1.3-6.9,1.7-10.4c0.1-1.3,0.3-2.6,0.3-4
				c0.3-4.3,0.3-8.5,0.1-12.8c-0.6-7.2-1.9-15.2-4.1-23.9c-0.1-0.2-0.1-0.4-0.2-0.7c-0.1-0.2-0.1-0.5-0.2-0.7
				c-3.1-10.6-13.7-8-18.4-5.9c-2,0.9-4.1,1.7-6.1,2.5c-0.5,0.2-1,0.4-1.5,0.6c-2,0.8-3.9,1.6-5.9,2.3c-0.5,0.2-1,0.4-1.5,0.6
				c-1.4,0.6-2.9,1.1-4.3,1.6c-0.1,0-0.2,0.1-0.3,0.1c-0.6,0.2-1.3,0.5-1.9,0.7c-1.7,0.6-3.3,1.2-5,1.8c0,0,0,0,0,0
				c-0.9,0.3-1.7,0.6-2.6,0.9c-1.5,0.5-3,1-4.5,1.5c-0.7,0.2-1.4,0.5-2.1,0.7c-0.4,0.1-0.7,0.2-1.1,0.3c-0.7,0.2-1.4,0.4-2.1,0.7
				c-1.9,0.6-3.8,1.2-5.7,1.7c-0.2,0.1-0.4,0.1-0.5,0.1c-0.3,0.1-0.5,0.2-0.8,0.2c-2.9,0.9-5.9,1.7-8.8,2.4
				c-0.8,0.2-1.6,0.4-2.4,0.6c-1.2,0.3-2.4,0.6-3.6,0.9C871.1,656.3,878.9,666.3,884.5,675.4z"/>
			<path class="st1" d="M754.5,754.8c4.1,0.2,8.4,0.4,12.7,0.5c4,0.1,8,0.2,12.2,0.3c2.2,0,4.4,0.1,6.7,0.1c1.9,0,3.8,0.1,5.7,0.1
				c3.7,0,7.4,0,11,0c5.1-0.1,10.2-0.3,15.3-0.6c2.1-0.1,4.2-0.2,6.1-0.3c-3.7-21.2-8.8-40.2-16.9-55.3l-0.1-0.2
				c-0.6-1.3-1.2-2.5-1.7-3.7c-4.5-9.3-8.7-16.5-12.7-21.9c-1-1.4-2.1-2.8-3.2-4l-0.6-0.7c-0.6-0.6-1.3-1.3-2-2.1
				c-2.4-2.4-5.5-5.5-7.4-8.9c-1.3,0-2.6,0-4-0.1l-0.1,0c-2.4-0.1-4.9-0.2-7.2-0.3c-4.5-0.2-8.9-0.6-13.2-1l-0.3-0.3l0,0.3
				c-24.2-2.5-44.7-7.7-61.2-13.2c-1.4-0.5-2.8-0.9-4.2-1.4c0,0-0.1,0-0.1,0c-1.1-0.4-2.2-0.8-3.3-1.2c-0.1-0.1-0.3-0.1-0.4-0.2
				c-1-0.4-1.9-0.7-2.9-1.1c-0.1-0.1-0.3-0.1-0.4-0.2c-1-0.4-1.9-0.7-2.9-1.1c-0.1,0-0.2-0.1-0.3-0.1c-1.7-0.6-3.3-1.3-4.8-1.9
				c-1.3-0.5-2.6-1.1-3.8-1.6c-0.3-0.1-0.5-0.2-0.8-0.3c-0.6-0.2-1.1-0.5-1.7-0.7c-0.4-0.2-0.7-0.3-1.1-0.5
				c-0.4-0.2-0.8-0.3-1.2-0.5c-0.5-0.2-0.9-0.4-1.4-0.6c-0.2-0.1-0.4-0.2-0.6-0.2c-3.5-1.5-6.6-2.9-9.2-4c-1.8-0.8-3.4-1.4-4.8-1.9
				c0,0,0,0,0,0l0,0c-3.4-1.2-6.3-1.7-8.8-1.7c-8.4-0.1-12.3,5.4-14.3,9.6c-2.4,5.7-7,16.8-10.3,29.7c-0.9,3.3-1.6,6.7-2.3,10.2
				c-0.7,3.6-1.2,7.3-1.4,11c-0.1,1.6-0.2,3.2-0.2,4.8c-0.1,2.5,0,4.9,0.2,7.4c0.9,10.4,4.3,20,12.1,27c3.5,3.2,7.8,5.8,13.1,7.8
				c0.3,0.1,0.6,0.2,0.9,0.3c4.9,2.3,10.6,4.5,17.1,6.7c4.2,1.4,8.8,2.8,13.7,4c4.9,1.3,10.2,2.5,15.8,3.7c4.7,1,9.7,1.9,14.9,2.8
				c15.6,2.6,33.4,4.5,53.4,5.6C754.1,754.8,754.3,754.8,754.5,754.8z"/>
			<path class="st1" d="M838.3,865.2c-2.6-17.6-4.6-35.3-6.5-52.5c-0.1-0.6-0.1-1.1-0.2-1.6c-0.1-0.8-0.2-1.6-0.3-2.4
				c-0.5-4.7-1.1-9.4-1.6-14c-0.6-4.8-1.1-9.6-1.7-14.3c-0.6-4.9-1.3-9.7-2-14.4c-0.2-1.3-0.4-2.6-0.6-3.9c-0.2-1-0.3-2.1-0.5-3.1
				c-1.9,0.1-3.9,0.2-5.9,0.3c-5.3,0.4-10.7,0.7-16.2,0.9c-2.2,0.1-4.5,0.1-6.8,0.2c-3.5,0.1-7.2,0.1-10.8,0.1
				c0,0.4-0.1,0.8-0.2,1.2c-1.4,10.3-3.8,20.6-6.2,30.6c-1.6,6.5-3.4,12.9-5.4,19.2c-1,3.1-2,6.2-3.1,9.2c-1.1,3-2.2,6.1-3.3,9.1
				c-0.6,1.6-1.2,3.1-1.8,4.7c-0.6,1.4-1.1,2.8-1.7,4.1c-1.2,2.8-2.4,5.7-3.6,8.5c-1.2,2.9-2.5,5.7-3.8,8.6c-1.3,3-2.7,6-4.1,8.9
				c-1.3,2.8-2.6,5.6-3.9,8.4c-0.2,0.5-0.5,1-0.7,1.5c-1,2.2-2.1,4.5-3.2,6.7c-1.3,2.8-2.6,5.6-3.9,8.4c-1.3,2.8-2.6,5.7-3.8,8.6
				c-1.2,2.9-2.4,5.9-3.5,8.8c-0.2,0.4-0.3,0.8-0.4,1.2c-0.8,2.2-1.5,4.4-2.2,6.6c-4.2,13.7-6.5,28-7.3,42.3c0,0.4,0,0.7-0.1,1.1
				c-0.1,2.2-0.2,4.4-0.3,6.6c0,1.2,0.8,1.8,1.9,2c2.5,0.3,5,0.5,7.5,0.8c4.4,0.5,8.9,1,13.3,1.4c2.1,0.2,4.1,0.4,6.2,0.7
				c16.3,1.8,32.6,3.5,48.9,5.3c4.2,0.4,8.3,0.9,12.5,1.3c0.9,0.1,1.8,0.2,2.7,0.3c3.7,0.4,7.3,0.8,11,1.2c0.7,0.1,1.4,0.2,2.1,0.2
				c2.3,0.3,5.1-2.4,5.5-4.8c0.1-0.4,0.1-0.9,0-1.3c-1.1-4.4-1.9-8.8-2.3-13.2c-1.9-18.8,2-37.5,6.4-56c0.8-3.3,1.6-6.7,2.4-10
				c0.4-1.6,0.8-3.3,1.2-4.9c-0.5-2.6-1-5.2-1.4-7.7C839.8,874.9,839,870,838.3,865.2z"/>
			<path class="st1" d="M1031.2,985.8C1031.2,985.8,1031.2,985.8,1031.2,985.8L1031.2,985.8c-0.9-0.3-1.8-0.6-2.6-0.9
				c-9.2-3.3-17.6-7.8-25.2-13.3c-2.3-1.6-4.5-3.3-6.7-5.1c-2.6-2.2-5.2-4.5-7.6-6.9c-5.4-5.4-10.4-11.3-14.9-17.7c0,0,0,0,0,0
				c0,0,0,0,0,0c0,0,0,0,0,0c0,0,0,0,0,0c-6.6-9.3-12.4-19.4-17.6-30.4c-0.2-0.4-0.4-0.8-0.6-1.2c-2.7-5.7-5.2-11.6-7.5-17.7l0-1.8
				l-1.2-1.2c-2.3-6.1-4.5-12.4-6.6-18.8c-6.2-19-11.3-39-16.1-58.7c-0.8-3.1-1.5-6.1-2.2-9.2c-1.3-5.5-2.6-11-3.9-16.4
				c-1.3-5.6-2.6-11.1-4-16.5c-4.5-18.4-9.2-36.1-14.6-51.9c-5.3-15.5-11.4-29.3-18.7-40.4c-3-4.9-6.1-9.2-9.3-13.1c0,0,0,0,0,0
				c-2.9-3.5-6-6.6-9.1-9.2c-20.1-17.5-42.2-17.7-58.8-13.7c-0.9,0.2-1.7,0.4-2.5,0.6c-3,0.8-5.8,1.8-8.4,2.8l0,0
				c-0.2,0.1-0.5,0.2-0.8,0.3c-2,0.8-6.3,2.6-8.3,4c-0.3,0.2-0.6,0.5-0.8,0.7c0,0,0,0,0,0c-3.6,3.7,1.6,9.3,6,13.7
				c1.3,1.3,2.5,2.5,3.4,3.6l0,0c1.1,1.3,2.3,2.7,3.5,4.3c4.9,6.6,9.8,15.5,14.8,26.3c1.2,2.2,2.3,4.4,3.3,6.8l0,0
				c7.3,16.3,11.9,35.9,15.3,57.4c0.5,2.8,0.9,5.7,1.3,8.6l0,0c0.7,4.7,1.3,9.5,1.9,14.3c0.6,4.7,1.1,9.4,1.7,14.2
				c2.6,23,5,47,8.7,70.7c0.8,4.9,1.6,9.8,2.5,14.6c1,5.2,2,10.5,3.1,15.6c1.2,5.6,2.6,11.2,4.1,16.6c1.7,6.1,3.5,12.2,5.6,18.1
				c2.4,7,5.1,13.9,8.2,20.5c0.4,1,0.9,2,1.4,2.9c9,18.7,20.8,35.5,36.7,49.3c11.4,9.9,24.8,18.3,40.8,24.8c0.6,0.3,1.2,0.5,1.8,0.8
				c3.7,1.5,5.8,1.5,8.1,0.6c1.4-0.5,2.8-1.3,4.7-2.4c0.6-0.3,1.8-0.9,3.4-1.8c2-1.1,4.8-2.5,8-4.3c2.4-1.3,5.1-2.7,8-4.3
				c2.5-1.3,5.1-2.7,7.8-4.2c2.6-1.4,5.3-2.8,8-4.3l1.1,1.1l0-1.7c2.2-1.2,4.4-2.4,6.6-3.5l0.6,0l-0.2-0.2c2.8-1.5,5.5-2.9,8-4.3
				c2.8-1.5,5.4-2.9,7.8-4.1c3.1-1.7,5.9-3.1,8-4.2c1.3-0.7,2.4-1.3,3.2-1.7c2.2-1.2,3.6-2.2,4.4-3
				C1037.6,988,1033.4,986.5,1031.2,985.8z"/>
		</g>
		<g>
			<path class="st5" d="M656.5,691.9l-29.3-29.8l12,0.1l17.4,17.7l0.1-12.3l-5.2-5.3l5.2,0.1l0.1-6.9l6.8,7l12.3,0.1l-19-19.4
				l0.1-12l30.9,31.5l12.3,0.1l-25.9-26.4c-1.3-0.5-2.6-1.1-3.8-1.6c-0.3-0.1-0.5-0.2-0.8-0.3c-0.6-0.2-1.1-0.5-1.7-0.7
				c-0.4-0.2-0.7-0.3-1.1-0.5c-0.4-0.2-0.8-0.3-1.2-0.5c-0.5-0.2-0.9-0.4-1.4-0.6c-0.2-0.1-0.4-0.2-0.6-0.2c-3.5-1.5-6.6-2.9-9.2-4
				c-1.8-0.8-3.4-1.4-4.8-1.9c0,0,0,0,0,0l0,0c-3.4-1.2-6.3-1.7-8.8-1.7c-8.4-0.1-12.3,5.4-14.3,9.6c-2.4,5.7-7,16.8-10.3,29.7
				l39.8,40.6L656.5,691.9z"/>
			<path class="st5" d="M705.8,662.9l6.9,0.1l41.7,42.5l0.1-12.3L725,663l12,0.1l17.6,18l0.1-12.3l-5.4-5.5l5.5,0.1l0.1-6.6
				c-24.2-2.5-44.7-7.7-61.2-13.2l12.2,12.4L705.8,662.9z"/>
			<path class="st5" d="M773.9,663.5l-5.6-5.7c-4.5-0.2-8.9-0.6-13.2-1l6.5,6.6L773.9,663.5z"/>
			<path class="st5" d="M798.2,663.8L784,649.2c-0.3,0.2-0.6,0.5-0.8,0.7c0,0,0,0,0,0c-3.6,3.7,1.6,9.3,6,13.7L798.2,663.8z"/>
			<path class="st5" d="M803.7,663.8l6.8,0.1l41.8,42.6l0.1-12.3L822.8,664l12,0.1l17.7,18l0.1-12.3l-5.5-5.6l5.6,0.1l0.1-6.8
				l6.8,6.9l12.3,0.1c0,0,0,0,0,0l-9.1-9.2c-20.1-17.5-42.2-17.7-58.8-13.7l0,3.2l-2.5-2.5c-3,0.8-5.8,1.8-8.4,2.8l0,0
				c-0.2,0.1-0.5,0.2-0.8,0.3l11.5,11.7L803.7,663.8z"/>
			<path class="st5" d="M896.1,664.7l-19.9-20.3c-0.3,0.1-0.5,0.2-0.8,0.2c-2.9,0.9-5.9,1.7-8.8,2.4l17.2,17.5L896.1,664.7z"/>
			<path class="st5" d="M901.7,664.8l6.8,0.1l30.6,31.2c0.1-0.1,0.1-0.2,0.2-0.4c1.1-3,2-6.1,2.7-9.2L920.8,665l12,0.1l10.8,11
				c0.1-1.3,0.3-2.6,0.3-4c0.3-4.3,0.3-8.5,0.1-12.8c-0.6-7.2-1.9-15.2-4.1-23.9c-0.1-0.2-0.1-0.4-0.2-0.7c-0.1-0.2-0.1-0.5-0.2-0.7
				c-3.1-10.6-13.7-8-18.4-5.9c-2,0.9-4.1,1.7-6.1,2.5c-0.5,0.2-1,0.4-1.5,0.6c-2,0.8-3.9,1.6-5.9,2.3c-0.5,0.2-1,0.4-1.5,0.6
				c-1.4,0.6-2.9,1.1-4.3,1.6l-0.1,9.9l-7.1-7.3c-0.9,0.3-1.7,0.6-2.6,0.9c-1.5,0.5-3,1-4.5,1.5c-0.7,0.2-1.4,0.5-2.1,0.7l16.2,16.5
				L901.7,664.8z"/>
			<path class="st5" d="M656.3,711.3l-5.2-0.1l-36.7-37.5c-0.7,3.6-1.2,7.3-1.4,11l25.9,26.4l-12-0.1l-13.9-14.2
				c0.9,10.4,4.3,20,12.1,27c3.5,3.2,7.8,5.8,13.1,7.8c0.3,0.1,0.6,0.2,0.9,0.3c4.9,2.3,10.6,4.5,17.1,6.7l0.1-9.8l13.6,13.9
				c4.9,1.3,10.2,2.5,15.8,3.7l-29.3-29.8L656.3,711.3z"/>
			<path class="st5" d="M752.8,865l-0.7-0.7c-1.3,2.8-2.6,5.6-3.9,8.4l4.5,4.6L752.8,865z"/>
			<path class="st5" d="M740.4,889.4l12,12.3l0.1-12.3l-8.2-8.4C743,883.8,741.7,886.5,740.4,889.4z"/>
			<path class="st5" d="M756.1,855.4l3.8,3.9l12.3,0.1l-12.3-12.6C758.7,849.7,757.4,852.6,756.1,855.4z"/>
			<path class="st5" d="M796.6,859.7L767,829.5c-0.6,1.6-1.2,3.1-1.8,4.7c-0.6,1.4-1.1,2.8-1.7,4.1l20.8,21.2L796.6,859.7z"/>
			<path class="st5" d="M801.7,864.9l-0.1,12.3l31.1,31.7l-12-0.1l-19.2-19.6l-0.1,12.3l7.1,7.2l-7.1-0.1l-0.1,5.8l-5.7-5.9
				l-12.3-0.1l17.9,18.3l-0.1,12l-29.8-30.4l-12.3-0.1l42,42.8l-0.1,6.6l6.6,0.1l19.4,19.8c0.7,0.1,1.4,0.2,2.1,0.2
				c2.3,0.3,5.1-2.4,5.5-4.8l-14.8-15.1l12,0.1l0.4,0.4c-1.9-18.8,2-37.5,6.4-56L801.7,864.9z"/>
			<path class="st5" d="M867.7,958.3l1.5,0l-2.9-2.9C866.8,956.4,867.3,957.4,867.7,958.3z"/>
			<path class="st5" d="M858.2,934.9l23.1,23.5l12.3,0.1l-40.9-41.7C854.3,923,856.1,929,858.2,934.9z"/>
			<path class="st5" d="M947.3,1008.1l-5.2-0.1l-43.3-44.2l-0.1,12.3l31.1,31.7l-12-0.1l-19.2-19.6l-0.1,12.3l7.1,7.2l-1,0
				c11.4,9.9,24.8,18.3,40.8,24.8c0.6,0.3,1.2,0.5,1.8,0.8l0.1-7.6l8,8.2c1.4-0.5,2.8-1.3,4.7-2.4c0.6-0.3,1.8-0.9,3.4-1.8l-16-16.3
				L947.3,1008.1z"/>
			<path class="st5" d="M753.9,754.1l0.7,0.7c4.1,0.2,8.4,0.4,12.7,0.5L754,741.8l0.1-12l25.3,25.8c2.2,0,4.4,0.1,6.7,0.1
				c1.9,0,3.8,0.1,5.7,0.1l-37.6-38.3l0.1-5.2l-5.5-0.1l-43.1-43.9l-0.1,12.3l30.9,31.5l-12-0.1l-19-19.4l-0.1,12.3l6.8,7l-6.9-0.1
				l-0.1,5.3l-5.2-5.3l-12.3-0.1l17.4,17.7l-0.1,12l-29.3-29.9l-12.3-0.1l37,37.8c15.6,2.6,33.4,4.5,53.4,5.6L753.9,754.1z"/>
			<path class="st5" d="M785,761.4l0.2,0.2l12.3,0.1l-1.5-1.5c-3.5,0.1-7.2,0.1-10.8,0.1C785.2,760.6,785.1,761,785,761.4z"/>
			<path class="st5" d="M802.6,779.3l28.7,29.3c-0.5-4.7-1.1-9.4-1.6-14l-27-27.6L802.6,779.3z"/>
			<path class="st5" d="M821.2,859.9l12,0.1l5.1,5.2c-2.6-17.6-4.6-35.3-6.5-52.5c-0.1-0.6-0.1-1.1-0.2-1.6l-9.9-0.1l-19.2-19.6
				l-0.1,12.3l7.1,7.2l-7.1-0.1l-0.1,5.3l-5.2-5.3l-12.3-0.1l17.4,17.7l-0.1,12l-28.5-29.1c-1,3.1-2,6.2-3.1,9.2l31.5,32.1l-0.1,7.1
				l7.1,0.1l32,32.6c0.4-1.6,0.8-3.3,1.2-4.9c-0.5-2.6-1-5.2-1.4-7.7L821.2,859.9z"/>
			<path class="st5" d="M848.5,900.2l1.8,1.9l0.1-12.3l-5.1-5.2C846.4,889.8,847.4,895,848.5,900.2z"/>
			<path class="st5" d="M870.2,860.4L851,840.8l0.1-12l31.1,31.7l12.3,0.1l-43.3-44.2l0.1-5.2l-5.2-0.1l-11.7-12
				c2.6,23,5,47,8.7,70.7l7.7,7.8l0.1-12.3l-5.2-5.3l5.3,0.1l0.1-7.1l7.1,7.2L870.2,860.4z"/>
			<path class="st5" d="M948.2,910.1l-5.2-0.1l-43.3-44.2l-0.1,12.3l31.1,31.7l-12-0.1l-19.2-19.6l-0.1,12.3l7.1,7.2l-7.1-0.1
				l-0.1,5.3l-5.2-5.3l-12.3-0.1l17.4,17.7l-0.1,12l-29.3-29.9l-12.3-0.1l41.4,42.3l-0.1,7.1l7.1,0.1l41.4,42.3l0.1-12.3l-29.3-29.9
				l12,0.1l17.4,17.7l0.1-12.3l-5.2-5.3l5.3,0.1l0.1-7.1l7.1,7.2l12.3,0.1l-19.2-19.6l0.1-12l31.1,31.7l9.9,0.1
				c-5.4-5.4-10.4-11.3-14.9-17.7c0,0,0,0,0,0c0,0,0,0,0,0c0,0,0,0,0,0c0,0,0,0,0,0l-25.9-26.4L948.2,910.1z"/>
			<path class="st5" d="M954.4,1008.2l16.9,17.2c2.4-1.3,5.1-2.7,8-4.3l-12.6-12.9L954.4,1008.2z"/>
			<path class="st5" d="M978.7,1008.4l8.4,8.6c2.6-1.4,5.3-2.8,8-4.3l-4.1-4.2L978.7,1008.4z"/>
			<path class="st5" d="M996.2,1012.1c2.2-1.2,4.4-2.4,6.6-3.5l-6.6-0.1L996.2,1012.1z"/>
			<path class="st5" d="M996.3,1001.4l6.9,7c2.8-1.5,5.5-2.9,8-4.3l-14.8-15.1L996.3,1001.4z"/>
			<path class="st5" d="M1003.3,971.6c-2.3-1.6-4.5-3.3-6.7-5.1l-0.1,10.7l22.5,22.9c3.1-1.7,5.9-3.1,8-4.2L1003.3,971.6z"/>
			<path class="st5" d="M802.8,754.7l0,1.2c5.1-0.1,10.2-0.3,15.3-0.6c2.1-0.1,4.2-0.2,6.1-0.3c-3.7-21.2-8.8-40.2-16.9-55.3
				l-0.1-0.2c-0.6-1.3-1.2-2.5-1.7-3.7l-2.1-2.1l-0.1,12.3l6.8,6.9l-6.8-0.1l-0.1,5.3l-5.2-5.3l-12.3-0.1l17.4,17.7l-0.1,12
				l-29.3-29.9l-12.3-0.1L802.8,754.7z"/>
			<path class="st5" d="M824.9,758.9c-1.9,0.1-3.9,0.2-5.9,0.3c-5.3,0.4-10.7,0.7-16.2,0.9l0,1.7l7.1,0.1l18.1,18.5
				c-0.6-4.9-1.3-9.7-2-14.4l-3.9-3.9l3.3,0C825.3,760.9,825.1,759.9,824.9,758.9z"/>
			<path class="st5" d="M851.3,804.1l0.1-12.3l-20.7-21.1c0.7,4.7,1.3,9.5,1.9,14.3L851.3,804.1z"/>
			<path class="st5" d="M851.8,755.4l6.8,7l12.3,0.1l-19-19.4l0.1-12l30.9,31.5l12.3,0.1l-43.1-43.9l0.1-5.5l-5.5-0.1l-43-43.8
				l-0.1,12.3l30.8,31.4l-12-0.1l-8.2-8.4c7.3,16.3,11.9,35.9,15.3,57.4l4.8,0l17.4,17.7l0.1-12.3l-5.2-5.3l5.3,0.1L851.8,755.4z"/>
			<path class="st5" d="M900.5,780.5l21.8,22.3c-1.3-5.5-2.6-11-3.9-16.4l-17.8-18.2L900.5,780.5z"/>
			<path class="st5" d="M931.1,861l9.5,9.7c-6.2-19-11.3-39-16.1-58.7l-5.2-0.1l-19-19.4l-0.1,12.3l6.8,7l-6.9-0.1l-0.1,5.3
				l-5.2-5.3l-12.3-0.1l17.4,17.7l-0.1,12l-29.3-29.9l-12.3-0.1l41.4,42.3l-0.1,7.1l7.1,0.1l41.4,42.3l0.1-12.3l-29.3-29.9
				L931.1,861z"/>
			<path class="st5" d="M955.9,910.2l-0.6,0l1.2,1.2C956.3,911,956.1,910.6,955.9,910.2z"/>
			<path class="st5" d="M871.4,713.5l-12.3-0.1l41.7,42.5l-0.1,6.9l6.9,0.1l6.9,7.1c-4.5-18.4-9.2-36.1-14.6-51.9l-4.2-4.3
				l-12.3-0.1l17.6,18l-0.1,12L871.4,713.5z"/>
			<path class="st5" d="M901.3,706.9l6.7,6.9l-5.4-0.1c1.9,5.3,3.6,10.7,5.4,16.4c5.6-3.7,10.8-7.8,15.5-12.4
				c1.3-1.2,2.6-2.4,3.8-3.7l-6.9-0.1l-18.9-19.3L901.3,706.9z"/>
			<path class="st5" d="M934.8,704.2l-33.2-33.9l-0.1,12.3l28.1,28.7C931.5,709.1,933.3,706.8,934.8,704.2z"/>
			<path class="st5" d="M722.8,964.6c0,1.2,0.8,1.8,1.9,2c2.5,0.3,5,0.5,7.5,0.8l-9.2-9.3C723,960.2,722.9,962.4,722.8,964.6z"/>
			<path class="st5" d="M752.3,908.2l-5.8-0.1l-10-10.2c-1.2,2.9-2.4,5.9-3.5,8.8l1.2,1.2l-1.6,0c-0.8,2.2-1.5,4.4-2.2,6.6
				c-4.2,13.7-6.5,28-7.3,42.3L734,957l11.5,11.8c2.1,0.2,4.1,0.4,6.2,0.7l0.1-6.7l-5.5-5.6l5.6,0.1l0.1-6.6l6.5,6.7l12.3,0.1
				L752,938.3l0.1-12l30.6,31.2l12.3,0.1L752.3,914L752.3,908.2z"/>
			<path class="st5" d="M800.6,974.7c4.2,0.4,8.3,0.9,12.5,1.3l-12.3-12.6L800.6,974.7z"/>
		</g>
	</g>
</g>
</svg>
