<?xml version="1.0" encoding="utf-8"?>
<!-- Generator: Adobe Illustrator 18.0.0, SVG Export Plug-In . SVG Version: 6.00 Build 0)  -->
<!DOCTYPE svg PUBLIC "-//W3C//DTD SVG 1.1//EN" "http://www.w3.org/Graphics/SVG/1.1/DTD/svg11.dtd">
<svg version="1.1" id="Layer_1" xmlns="http://www.w3.org/2000/svg" xmlns:xlink="http://www.w3.org/1999/xlink" x="0px" y="0px"
	 viewBox="0 0 720 720" style="enable-background:new 0 0 720 720;" xml:space="preserve">
<g>
	<path d="M683.6,339.9c-1-0.6-1.8-0.5-2.4,0.5c-0.1,0.2-0.3,0.4-0.4,0.6c-0.8,1.4-1.6,2.6-2.3,3.5c-0.7,0.9-2.2,2.3-4.5,4
		c-2.2,1.7-4.8,3.2-7.6,4.3c-2.8,1.1-6.8,2.1-11.8,3c-5,0.9-10.7,1.3-17,1.3c-6.6,0-18.4-1.2-35.5-3.6c-6.9-0.9-12.1-1.6-15.7-2
		c-3.6-0.4-8.6-0.9-15-1.5c-6.4-0.5-11.5-0.8-15.2-0.7c-3.7,0.1-8.1,0.4-13.1,1c-5,0.5-9,1.5-12.1,2.8c-3.1,1.3-6,3.2-8.8,5.5
		c-2.8,2.3-4.9,5.2-6.4,8.5v0.2c-1.3,3-2.8,6.8-4.5,11.5c-0.1,0.1-0.2,0.2-0.2,0.4c-0.1,0.1-0.1,0.3-0.1,0.4
		c-0.1,0.1-0.1,0.3-0.1,0.4c-0.1,0.1-0.1,0.3-0.2,0.4l-0.1,0.4c-0.9,2.3-1.7,3.9-2.4,4.7c-0.7,0.8-1.7,1.3-3.1,1.3
		c-0.3,0-0.7-0.1-1.1-0.4c-0.4-0.3-1-0.9-1.7-1.7c-0.7-0.8-1.4-1.9-2.1-3.1c-0.7-1.2-1.4-2.9-2.1-5.1c-0.7-2.1-1.3-4.5-1.9-7.2
		c-0.5-2.6-1-5.9-1.3-9.7c-0.4-3.8-0.5-8.1-0.5-12.7c0-11.7,1-22.5,3-32.5c7.6-0.6,17.7-2.8,30.4-6.7c5.1-1.6,9.1-2.8,12-3.6
		c2.9-0.8,6.8-1.6,11.8-2.4c4.9-0.8,9.8-1.2,14.4-1.2c5,0,9.9,0.9,14.6,2.7c4.7,1.8,7.9,4.2,9.4,7.3c0.5,1.1,1.3,1.4,2.4,0.8
		c1.1-0.5,1.3-1.3,0.7-2.3c-1.7-3.8-5.2-6.8-10.6-8.9c-5.3-2.1-10.9-3.2-16.5-3.2c-4.9,0-9.9,0.4-15,1.3c-5.1,0.8-9.1,1.7-12.1,2.5
		c-2.9,0.8-7,2-12.2,3.6c-12.1,3.7-21.6,5.9-28.6,6.6c2.1-9.1,5.4-18.4,10-27.8c0.6-1.2,1-2.1,1.3-2.7c0.9-2.5,1.2-4.4,0.9-5.7
		c-0.3-1.3-1-2.2-2.1-2.8c-1.2-0.7-2.5-0.8-3.9-0.2c-1.4,0.5-2.5,1.6-3.4,3.1c-6,9.5-10.6,21.7-13.8,36.5c-7-0.6-12.8-3.5-17.4-8.7
		c-0.8-0.9-1.6-0.9-2.5-0.1c-0.9,0.8-0.9,1.6-0.1,2.4c5.1,5.9,11.6,9.2,19.5,9.9c-2.1,10.7-3.1,22-3.1,33.8c0,0.9,0,1.7,0,2.6
		c-0.5,0.8-1,1.7-1.7,2.8c-2.5,4.1-4.6,7.4-6.2,10c-1.6,2.5-3.9,5.8-6.8,9.8c-2.9,4-5.6,7.3-8.2,10c-2.6,2.6-5,4.5-7.3,5.6
		c-2.6-0.1-4.9-2.2-6.8-6.2c-1.9-4-3-9.8-3.1-17.1c-0.1-7.4,1.6-13.9,5.2-19.5c3.6-5.6,7.3-8.9,11.2-10c1.4-0.4,2.5-0.3,3.3,0.1
		c0.4,0.4,0.7,0.8,1,1.2c0.2,0.3,0.4,0.7,0.7,1.2c0.2,0.2,0.4,0.4,0.6,0.7c0.7,1,1.5,1.2,2.5,0.5c0.9-0.6,1.1-1.5,0.5-2.5
		c-0.3-0.4-0.5-0.6-0.6-0.7c-0.3-0.6-0.6-1-0.9-1.3c-0.5-0.8-1.1-1.4-1.8-1.9c-2.1-1.8-5-2.7-8.8-2.7c-2.6,0-5.4,0.9-8.3,2.7
		c-2.9,1.8-5.6,4.2-8,7.2c-3,3.8-5.2,8-6.6,12.4c-0.3,0.5-0.7,1-1,1.4c-1,1.5-2.6,3.6-4.6,6.4c-2,2.7-3.9,5-5.5,6.7
		c-1.6,1.7-3.4,3.5-5.5,5.2c-2.1,1.7-4,3-5.8,3.8c-2.6,0.5-4.8,0-6.7-1.5c-2.6-2-3.9-5.8-3.9-11.4c0-1.8,0-3.5,0.1-5.1
		c4.4-2.1,8.4-4.9,12.1-8.5c3.6-3.5,5.5-7.4,5.6-11.5v-0.1c0-2.6-1-4.6-3-6c-1.7-1.2-3.8-1.8-6.3-1.8c-5.4,0-10.1,2.4-14.1,7.3
		c-4,4.9-6.1,11.6-6.1,20.2c0,0.8,0,1.6,0.1,2.3c-0.6,1.7-1.5,3.9-2.6,6.6c-1.2,2.9-2.6,5.3-4.3,7.3c-1.6,1.9-3.4,3.3-5.2,4.1
		c-1.9,0.8-3.9,1-6.1,0.6c-0.2-5.7-0.3-12.1-0.3-19.3c0-6.1,0.2-12.1,0.6-18.1c6-9.3,11.4-18.6,16.2-28c5.4-10.8,8.9-19.5,10.5-26.2
		v-0.1c0.6-2.6,0.9-4.8,0.9-6.7c-0.1-0.1-0.1-0.2-0.1-0.3c0-2.1-0.4-3.8-1-5.2c-1.4-2.8-3.9-4.2-7.5-4.2c-4.2,0-8.2,2.4-12.1,7.1
		c-3.8,4.7-7.2,11.6-10.1,20.4c-4.8,14.3-7.6,30.7-8.5,49h-1.4c-1.1,0-2.1-0.4-2.9-1.3c-0.8-0.9-1.9-2.4-3.2-4.5
		c-0.9-1.7-1.7-3-2.3-3.9c-0.7-0.9-1.6-2-2.8-3.3c-1.2-1.3-2.7-2.2-4.3-2.8c-1.6-0.6-3.5-0.9-5.6-0.9c-3,0-5.9,1.5-8.8,4.5
		c-2.9,3-5.5,7.4-7.8,13.2c-0.1,0.2-0.1,0.4-0.1,0.4c-2.3,6-4.1,13.1-5.4,21.3c-2.6-10.4-2.5-21.2,0.1-32.3c0.3-1.2,0.3-2.3,0-3.2
		c-0.3-0.9-0.8-1.7-1.4-2.2c-0.6-0.5-1.4-1-2.3-1.3c-1.4-0.4-2.8-0.3-4.3,0.2c-1.4,0.5-2.4,1.5-2.8,2.8c-1.6,4.4-2.4,10.6-2.3,18.4
		c-0.5,0.7-1,1.4-1.4,2c-1,1.5-2.6,3.6-4.6,6.4c-2,2.7-3.9,5-5.5,6.7c-1.6,1.7-3.4,3.5-5.5,5.2c-2.1,1.7-4,3-5.8,3.8
		c-2.6,0.5-4.8,0-6.7-1.5c-2.6-2-3.9-5.8-3.9-11.4c0-1.8,0-3.5,0.1-5.1c4.4-2.1,8.4-4.9,12.1-8.5c3.6-3.5,5.5-7.4,5.6-11.5v-0.1
		c0-2.6-1-4.6-3-6c-1.7-1.2-3.8-1.8-6.3-1.8c-5.4,0-10.1,2.4-14.1,7.3c-3.2,3.8-5.1,8.8-5.8,15c-0.7,0.5-1.4,1.1-2.1,1.6
		c-2.7,1.8-5.1,3.2-7.3,4.1c-2.2,0.9-5.2,2-9,3.3c1-4.7,1.5-9.2,1.5-13.5c0-5.1-0.7-9.1-2.2-12.1c-1.8-3.8-4.5-5.7-8.1-5.7
		c-4.2,0-8.5,2-12.9,6.1c-1.6,1.4-3,2.9-4.3,4.6c-2,2.6-3.8,5.4-5.5,8.4c0.6-5.8,1.2-9.8,1.8-12.1c0.4-1.8,0.2-3.3-0.5-4.4
		c-0.7-1.1-1.8-1.9-3.1-2.3c-0.8-0.2-1.6-0.2-2.5-0.2c-0.8,0.1-1.6,0.4-2.4,0.9c-0.7,0.5-1.3,1.1-1.6,1.9c-2.8,3.8-6,6.9-9.5,9.4
		c-3.5,2.5-7.6,4.3-12.3,5.3c-4.6,1-8.9,1.8-12.7,2.2c-3.8,0.4-8.8,0.3-15-0.4c-6.1-0.6-11-1.2-14.6-1.8c-3.6-0.5-8.8-1.5-15.7-2.8
		c-16.5-3-28.2-4.5-35.2-4.5c-5.6,0-10.7,0.3-15.3,0.9c-4.6,0.6-8.5,1.5-11.7,2.7c-3.1,1.2-5.8,2.3-8.1,3.4c-2.2,1.1-4.2,2.4-5.8,4
		c-1.6,1.6-2.7,2.8-3.4,3.6c-0.7,0.8-1.4,1.8-2.2,3.1l-0.3,0.4c-0.7,1-0.5,1.8,0.4,2.5c0.3,0.2,0.6,0.3,1,0.3c0.6,0,1.1-0.3,1.5-0.9
		c0.1-0.2,0.2-0.4,0.3-0.6c0.9-1.3,1.7-2.4,2.5-3.4c0.7-0.9,2.2-2.3,4.5-4c2.2-1.7,4.8-3.2,7.6-4.3c2.8-1.1,6.8-2.1,11.8-3
		c5-0.9,10.7-1.3,17-1.3c6.8,0,18.3,1.5,34.6,4.5c5.4,1,9.5,1.7,12.4,2.2c2.8,0.4,6.9,1,12.1,1.7c5.2,0.7,9.4,1,12.6,1
		c3.2,0,7-0.1,11.5-0.4c4.5-0.2,8.3-0.9,11.5-1.9c3.1-1,6.4-2.5,9.8-4.3c3.4-1.8,6.4-4,9.1-6.7c-1.2,8.5-2.1,19.3-2.6,32.6
		c-0.5,13.2-0.4,27.6,0.5,43.2c0.9,15.6,2.8,27.4,5.7,35.6c0.3,1,0.8,1.9,1.6,2.8c0.7,0.9,1.5,1.6,2.4,2c0.8,0.4,1.7,0.7,2.6,0.7
		c0.4,0,0.7-0.1,1-0.1c1.7-0.5,2.5-1.8,2.5-4c0-0.8-0.1-1.7-0.3-2.7c-4-15.4-5.8-36.6-5.5-63.8c0.1-9.1,0.4-18,1-26.6
		c3.2-9.1,7.7-16.3,13.6-21.6c2.1-1.6,3.7-2.4,4.9-2.4c1.3,0,2.3,1.3,3.1,3.9c0.8,2.6,1.2,5.5,1.2,8.8c0,5.2-0.8,10.9-2.5,17.2
		c-8.5,3.8-14.6,9-18.3,15.7c-1,1.7-1.5,3.3-1.5,4.9c0,1.3,0.3,2.4,0.9,3.4c0.4,0.7,0.9,1.3,1.6,1.8l0.1,0.1c1.1,0.7,2.2,1,3.4,1
		c5.5,0,10.4-2.6,14.7-7.9c4.3-5.2,7.5-11.8,9.7-19.5c0.6-0.2,1-0.3,1.3-0.4c4.3-1.5,7.6-2.7,9.9-3.7c2.3-0.9,5-2.5,8.1-4.5
		c0,0.2,0,0.5,0,0.7c0,7.2,1.9,12.8,5.6,16.8c3.7,4,7.8,6,12.1,6c1.8,0,3.6-0.3,5.5-1c0.2-0.1,0.4-0.2,0.6-0.3
		c2.5-1.1,5-2.7,7.6-4.9c2.5-2.1,5.1-4.9,7.7-8.2c2.6-3.3,4.6-6,6.1-8c0.1-0.1,0.1-0.2,0.2-0.3c0.5,7.2,1.8,13,3.8,17.4
		c0.8,1.5,2,2.8,3.6,3.8c1.6,1,3.1,1.6,4.6,1.6c0.6,0,1.1-0.1,1.6-0.3c0.9-0.4,1.4-1.1,1.5-2.1v-0.1c1.2-11.3,3.2-20.8,6.1-28.6
		v-0.2c3.3-7.9,6.3-11.8,9.1-11.8c1,0,1.8,0.3,2.4,0.9c0.6,0.6,1.3,1.7,2.2,3.3c0.6,1.1,1.1,1.9,1.4,2.5c0.3,0.5,0.9,1.3,1.8,2.2
		c0.8,0.9,1.7,1.7,2.5,2.2c0.8,0.5,2,0.9,3.4,1.3c1.4,0.4,2.9,0.6,4.5,0.6h0.1c0.6,0,1.3,0,2,0s1.6,0,2.7,0s1.9,0,2.5,0h1.2h0
		c-0.1,3.2-0.2,6.5-0.2,9.9c0,22.5,1.3,38.6,3.9,48.5c2.6,9.9,6.9,14.8,12.9,14.8c2.6,0,5-1,7.3-2.8c2.3-1.9,4.1-4.4,5.4-7.5
		c0.7-1.6,1.2-3.3,1.5-5.1c0.8-4.7,0.1-9.4-1.9-14.1s-5.9-8.8-11.4-12.3c0.6-0.2,1.1-0.4,1.6-0.6c2.3-1,4.4-2.5,6.2-4.6
		c1.8-2,3.4-4.6,4.8-7.7c0.3-0.8,0.6-1.5,0.9-2.2c0.9,2.9,2.4,5.5,4.3,7.5c3.7,4,7.8,6,12.1,6c1.8,0,3.6-0.3,5.5-1
		c0.2-0.1,0.4-0.2,0.6-0.3c2.5-1.1,5-2.7,7.6-4.9c2.5-2.1,5.1-4.9,7.7-8.2c1.5-2,2.9-3.7,4-5.2c-0.1,1.2-0.1,2.4-0.1,3.6
		c0,5.6,0.5,10.4,1.6,14.4c1,4,2.5,7,4.3,8.9c1.8,1.9,3.7,3.3,5.6,4.1c1.9,0.8,3.9,1.2,6.1,1.2c1.5,0,3.1-0.4,4.8-1
		c0.2-0.1,0.4-0.2,0.6-0.3c2.5-1.2,5.1-3.1,7.9-5.8c2.8-2.7,5.7-6.1,8.7-10.3c3-4.1,5.3-7.5,7-10.2c1.5-2.3,3.3-5.2,5.5-8.8
		c0.7,9.9,2.5,18.1,5.4,24.4c3.8,8.1,8.2,12.2,13.3,12.2c1.8,0,3.3-0.3,4.6-0.8c1.2-0.5,2.3-1.6,3.3-3.1c0.9-1.5,1.7-2.9,2.2-4.1
		c0.5-1.2,1.3-3.2,2.3-5.9c1.7-4.7,3.2-8.5,4.5-11.4c0.9-2.1,2.1-4,3.5-5.7c1.4-1.7,3.3-3.1,5.5-4.3c2.2-1.1,4.3-2.1,6.4-3
		c2.1-0.8,4.7-1.4,7.9-1.8c3.2-0.3,6-0.6,8.5-0.9c2.4-0.2,5.7-0.3,9.7-0.1c4,0.2,7.3,0.4,9.8,0.5c2.5,0.1,6,0.5,10.5,1
		c4.4,0.5,7.9,0.9,10.3,1.3c2.4,0.4,5.9,0.8,10.5,1.4c17.4,2.4,29.4,3.6,36.1,3.6c5.6,0,10.7-0.3,15.3-1c4.6-0.6,8.5-1.5,11.7-2.7
		c3.1-1.1,5.8-2.3,8.1-3.4c2.2-1.1,4.2-2.4,5.8-4c1.6-1.6,2.7-2.8,3.4-3.7c0.6-0.8,1.4-1.9,2.2-3.1c0-0.1,0-0.2,0.1-0.3
		c0.1-0.1,0.1-0.2,0.1-0.3C684.8,341.4,684.6,340.6,683.6,339.9z M409,337.8c1.5-1,2.7-1.3,3.6-1c0.9,0.3,1.3,1,1.3,2.2
		c-0.1,2.8-1.5,5.6-4.1,8.4c-2.6,2.8-5.8,5.2-9.4,7.2C402,346.3,404.8,340.7,409,337.8z M378.6,298.6c1.7-4.9,3.5-9.1,5.4-12.5
		c1.9-3.4,3.4-5.8,4.6-7c1.2-1.2,2.2-1.8,3-1.8c0.7,0,1.2,0.3,1.6,0.7c0.7,1,0.9,2.7,0.7,5.1c0,0.3-0.1,0.7-0.1,1c0,0.2,0,0.4,0,0.6
		c-0.1,0.6-0.3,1.3-0.4,2.1c-0.1,0.1-0.1,0.2-0.1,0.3c-2.6,11.6-10,27.3-22.3,47.2C372.5,320.9,375,308.9,378.6,298.6z M276.5,337.8
		c1.5-1,2.7-1.3,3.6-1c0.9,0.3,1.3,1,1.3,2.2c-0.1,2.8-1.5,5.6-4.1,8.4c-2.6,2.8-5.8,5.2-9.4,7.2
		C269.5,346.3,272.3,340.7,276.5,337.8z M210,389.4c-0.2-0.1-0.3-0.2-0.3-0.3c-0.8-1.3-0.6-2.9,0.6-4.9c3-5.4,7.6-9.6,13.8-12.7
		C220.3,382.6,215.6,388.6,210,389.4z M378.2,389c2.2,2,3.8,3.9,4.7,5.8c0.9,1.9,1.6,3.8,2.2,5.7c0.6,1.9,0.8,3.5,0.6,4.8
		c-0.2,1.3-0.3,2.4-0.3,3.3c-0.2,1.4-0.5,2.8-1,4.2c-1.7,3.4-3.1,5.1-4.3,5.1c-3.7,0-6.4-5.1-8.2-15.3c-0.8-5-1.4-11.3-1.8-19
		C373.3,385.2,376,387,378.2,389z"/>
	<path d="M452.4,442.5c-1.5-2.3-3.5-4.1-5.9-5.5c-2.4-1.4-5.2-2.1-8.4-2.1c-3.3,0-6.2,0.8-8.6,2.3c-2.5,1.5-4.6,3.7-6.2,6.5v-30.8
		c-0.4-0.2-1.2-0.2-2.6,0c-1.3,0.2-2.7,0.5-4.2,0.8c-1.5,0.3-2.9,0.7-4.2,1c-1.3,0.4-2.2,0.6-2.7,0.7v0.5c0.7,0.2,1.4,0.3,2.2,0.2
		c0.8-0.1,1.5,0,2.2,0c0.7,0.1,1.2,0.3,1.6,0.7c0.4,0.4,0.6,1.1,0.6,2.3l-0.1,63.7h1l3-4.7c2.1,2.1,4.3,3.6,6.5,4.4
		c2.3,0.9,4.8,1.3,7.7,1.3c3.6,0,6.8-0.7,9.5-2.1c2.7-1.4,5-3.3,6.9-5.5c1.9-2.3,3.3-4.9,4.3-7.8c1-2.9,1.5-5.9,1.7-8.9
		c0.1-3-0.2-6-0.9-8.9C455.1,447.4,454,444.8,452.4,442.5z M447.1,471.5c-1.3,2.8-2.9,4.8-4.8,6.1c-1.9,1.3-4,2.1-6.2,2.2
		c-2.2,0.1-4.3-0.3-6.2-1.2c-1.9-0.9-3.5-2.3-4.8-4.1c-1.3-1.8-1.9-3.9-1.9-6.4v-14.2c0-2.8,0.6-5.3,1.9-7.3
		c1.3-2.1,2.9-3.6,4.8-4.6c1.9-1,4-1.5,6.2-1.3c2.2,0.1,4.3,0.9,6.2,2.4c1.9,1.4,3.5,3.6,4.8,6.6c1.3,2.9,1.9,6.7,1.9,11.3
		C449.1,465.1,448.4,468.7,447.1,471.5z M477.9,481c0.9,0.6,2,0.8,3.5,0.8v0.8h-16.2v-0.8c1.8,0,2.9-0.2,3.5-0.6
		c0.6-0.4,0.8-1.6,0.8-3.5V419c0-1-0.1-1.7-0.2-2.2c-0.1-0.5-0.4-0.7-0.7-0.8c-0.4-0.1-0.8-0.1-1.4,0c-0.6,0.1-1.3,0.1-2.1,0.1v-2.1
		c0.5-0.1,1.2-0.4,2.4-0.7c1.1-0.3,2.3-0.6,3.5-0.9c1.2-0.3,2.4-0.5,3.4-0.7c1.1-0.2,1.8-0.2,2.2,0V478
		C476.7,479.5,477.1,480.5,477.9,481z M529.8,456c-0.3-2.8-0.8-5.4-1.5-8c-0.7-2.6-1.8-4.8-3.2-6.8c-1.4-2-3.2-3.5-5.4-4.7
		c-2.2-1.2-4.9-1.8-8.1-1.8c-3.5,0-6.6,0.7-9.2,2.2c-2.6,1.5-4.7,3.4-6.4,5.8c-1.7,2.4-3,5.1-3.8,8.2c-0.8,3-1.2,6.1-1.2,9.3
		s0.4,6.1,1.1,9c0.8,2.8,1.9,5.3,3.5,7.5c1.6,2.1,3.6,3.8,6.1,5.1c2.5,1.2,5.5,1.9,8.9,1.9c3.9,0,7.4-0.9,10.8-2.6
		c3.3-1.7,5.9-4.3,7.7-7.8l-1-1.5c-0.7,1.2-1.7,2.1-2.8,2.9c-1.1,0.8-2.4,1.3-3.7,1.8c-1.3,0.4-2.7,0.7-4.1,0.9
		c-1.4,0.2-2.7,0.3-4,0.3c-2.9,0-5.5-0.6-7.5-1.8c-2.1-1.2-3.7-2.8-5-4.7c-1.3-2-2.2-4.2-2.8-6.6c-0.6-2.5-1-5-1-7.5h32.6L529.8,456
		z M497.5,453c0.3-1.8,0.7-3.6,1.3-5.3c0.6-1.7,1.5-3.1,2.5-4.4c1-1.3,2.3-2.3,3.8-3c1.5-0.8,3.3-1.1,5.4-1.1c2,0,3.6,0.4,4.9,1.2
		c1.3,0.8,2.4,1.9,3.2,3.2c0.8,1.3,1.4,2.8,1.9,4.5c0.4,1.6,0.7,3.3,0.8,4.9H497.5z M580.3,481.9v0.8h-13.5v-0.8
		c1.7,0,2.7-0.3,3-0.8c0.3-0.5,0.5-1.6,0.5-3.3v-26.3c0-1.5-0.2-2.9-0.5-4.3c-0.3-1.4-0.9-2.6-1.6-3.6c-0.8-1-1.7-1.9-2.9-2.5
		c-1.2-0.6-2.6-0.9-4.2-0.9c-2.8,0-5.1,0.8-7.1,2.3c-2,1.5-3.5,3.6-4.4,6c-0.1,0.3-0.3,0.8-0.5,1.5c-0.2,0.7-0.3,1.2-0.3,1.5V478
		c0,1.1,0,2,0.1,2.8c0.1,0.7,0.8,1.1,2.1,1.1v0.8h-12.6v-0.8c1.6,0,2.6-0.3,2.9-0.8c0.3-0.6,0.4-1.7,0.4-3.3v-35.9
		c0-1-0.1-1.8-0.2-2.1c-0.1-0.4-0.3-0.6-0.6-0.6c-0.3,0-0.6,0-1.1,0.1c-0.5,0.1-1,0-1.7-0.1v-1l8.4-2.9l1.9,0.1v8.6
		c1.9-2.8,4-5,6.4-6.6c2.4-1.7,5.4-2.5,8.9-2.5c2.4,0,4.5,0.4,6.2,1.3c1.7,0.9,3.1,2.1,4.2,3.6c1.1,1.5,1.9,3.2,2.4,5.2
		c0.5,2,0.8,4.1,0.8,6.3V478c0,0.9,0.2,1.8,0.6,2.6C578.4,481.5,579.2,481.9,580.3,481.9z M633.2,479.2c-0.7-0.2-1-0.9-1-2.3v-64.2
		c-1.9,0.4-3.5,0.7-4.7,1c-1.2,0.3-2.4,0.6-3.6,0.9c-1.1,0.3-1.9,0.5-2.4,0.6v1c0.5,0.1,0.9,0.2,1.3,0.1c0.4,0,0.8,0,1.2,0
		c0.7,0.1,1.1,0.5,1.1,1.2c0,0.7,0,1.3,0,1.8v22.1c-3.1-4.5-7.4-6.8-12.9-6.8c-3.5,0-6.5,0.7-9.1,2.2c-2.6,1.4-4.7,3.3-6.4,5.7
		c-1.7,2.4-3,5-3.8,8.1c-0.8,3-1.2,6.1-1.2,9.2c0,3.1,0.4,6.2,1.1,9c0.8,2.9,1.9,5.4,3.5,7.6s3.6,3.9,6.1,5.2c2.5,1.3,5.5,1.9,9,1.9
		c5.8,0,10.4-2.6,13.7-7.7v7.2l10.8-2.9v-0.8C634.8,479.5,633.9,479.4,633.2,479.2z M625,465.8c0,2.9-0.6,5.3-1.9,7.3
		c-1.3,2-2.9,3.5-4.8,4.4c-1.9,1-4,1.3-6.2,1.1c-2.2-0.2-4.3-1.1-6.2-2.6c-1.9-1.5-3.5-3.8-4.8-6.8c-1.3-3-1.9-6.8-1.9-11.5
		c0-4.3,0.6-7.9,1.9-10.8s2.9-5,4.8-6.3c1.9-1.4,4-2.1,6.2-2.2c2.2-0.1,4.3,0.5,6.2,1.7c1.9,1.2,3.5,3,4.8,5.4
		c1.3,2.4,1.9,5.3,1.9,8.7V465.8z"/>
	<path d="M166,239.9l0.3,11.8h-1c-0.5-2.6-1.4-4.4-2.5-5.4c-1.1-0.9-3-1.4-5.6-1.4h-12.8v55.7c0,1.2,0.1,2.1,0.2,2.7
		c0.1,0.6,0.4,1.1,0.8,1.4c0.4,0.3,0.9,0.5,1.6,0.6c0.7,0.1,1.6,0.1,2.7,0.1v1h-19v-1c1,0,1.9,0,2.6-0.1c0.7-0.1,1.2-0.3,1.6-0.6
		c0.4-0.3,0.7-0.8,0.8-1.4c0.2-0.6,0.2-1.5,0.2-2.7v-55.7h-13c-2.6,0-4.4,0.5-5.6,1.5c-1.2,1-2.1,2.8-2.6,5.3h-0.9l0.4-11.8H166z
		 M217.3,304.9c-0.2-0.3-0.4-0.6-0.4-1.1c0-0.5,0-1.2,0-2V275c0-3.2-0.5-5.9-1.5-8.2c-1-2.3-2.3-4.1-3.9-5.4
		c-1.6-1.3-3.5-2.2-5.5-2.7c-2.1-0.4-4.2-0.4-6.4,0.1c-2.2,0.5-4.3,1.5-6.4,3c-2.1,1.5-3.9,3.4-5.5,5.8v-31.2l-1.9-0.1l-8.5,2.7v0.5
		c0.7,0.2,1.2,0.3,1.6,0.2c0.4,0,0.8,0,1,0c0.3,0.1,0.4,0.3,0.5,0.7s0.1,1.1,0.1,2.3v58.7c0,1.6-0.2,2.7-0.5,3.3
		c-0.3,0.6-1.3,0.8-2.9,0.8v0.8h14.2v-0.8c-0.9,0-1.5,0-2-0.1c-0.5-0.1-0.9-0.2-1.1-0.4c-0.3-0.2-0.4-0.6-0.5-1.1
		c-0.1-0.5-0.1-1.2-0.1-2.2v-26.7c0-0.3,0.1-0.8,0.3-1.5c0.2-0.7,0.4-1.2,0.5-1.5c1-2.5,2.5-4.5,4.6-6c2.1-1.5,4.5-2.3,7.2-2.3
		c1.7,0,3.2,0.3,4.4,0.9c1.2,0.6,2.2,1.4,3,2.5c0.8,1,1.4,2.2,1.7,3.6c0.4,1.4,0.5,2.8,0.5,4.4v26.3c0,1.8-0.2,2.9-0.6,3.4
		c-0.4,0.5-1.5,0.7-3.2,0.7v0.8h14.2v-0.8c-0.8,0-1.4,0-1.9-0.1C217.9,305.4,217.5,305.2,217.3,304.9z M268.2,295.5l1,1.5
		c-1.8,3.5-4.4,6.1-7.7,7.8c-3.3,1.7-6.9,2.6-10.8,2.6c-3.5,0-6.5-0.6-8.9-1.9c-2.5-1.2-4.5-2.9-6.1-5.1c-1.6-2.1-2.8-4.6-3.5-7.5
		c-0.8-2.8-1.1-5.8-1.1-9s0.4-6.2,1.2-9.3c0.8-3,2.1-5.8,3.8-8.2c1.7-2.4,3.8-4.3,6.4-5.8c2.6-1.5,5.6-2.2,9.2-2.2
		c3.2,0,5.9,0.6,8.1,1.8c2.2,1.2,4,2.8,5.4,4.7c1.4,2,2.5,4.2,3.2,6.8c0.7,2.6,1.2,5.2,1.5,8l0.1,1h-32.6c0.1,2.6,0.4,5.1,1,7.5
		c0.6,2.5,1.6,4.7,2.8,6.6c1.3,2,2.9,3.5,5,4.7c2.1,1.2,4.6,1.8,7.5,1.8c1.2,0,2.6-0.1,4-0.3c1.4-0.2,2.8-0.5,4.1-0.9
		c1.3-0.4,2.5-1,3.7-1.8C266.6,297.6,267.5,296.7,268.2,295.5z M237.5,276.7h23.9c-0.1-1.6-0.4-3.3-0.8-4.9c-0.4-1.6-1-3.1-1.9-4.5
		c-0.8-1.3-1.9-2.4-3.2-3.2c-1.3-0.8-2.9-1.2-4.9-1.2c-2.1,0-3.9,0.4-5.4,1.1c-1.5,0.8-2.8,1.8-3.8,3c-1,1.3-1.9,2.8-2.5,4.4
		C238.2,273.1,237.8,274.9,237.5,276.7z"/>
</g>
</svg>
