<?xml version="1.0" encoding="utf-8"?>
<!-- Generator: Adobe Illustrator 18.0.0, SVG Export Plug-In . SVG Version: 6.00 Build 0)  -->
<!DOCTYPE svg PUBLIC "-//W3C//DTD SVG 1.1//EN" "http://www.w3.org/Graphics/SVG/1.1/DTD/svg11.dtd">
<svg version="1.1" id="Layer_1" xmlns="http://www.w3.org/2000/svg" xmlns:xlink="http://www.w3.org/1999/xlink" x="0px" y="0px"
	 viewBox="0 0 720 720" style="enable-background:new 0 0 720 720;" xml:space="preserve">
<g>
	<path d="M681.8,328c-1.5-1.8-3.2-2-5.2-0.6c-0.2,0.4-1.3,1.3-3.3,2.7c-15.3,11.7-29.2,23.4-41.7,35.1c0.8-22,1-41.6,0.6-58.7
		c-0.2-4.8-1.7-8.3-4.5-10.7c-2.4-2-5.2-2.8-8.3-2.4c-4,0.6-6.9,2.8-8.6,6.6c0,0.2,0,0.4,0,0.6l-0.6,0.9
		c-7.7,22.2-14.5,39.6-20.3,52.1c-2.4,5.2-4.7,9.6-6.9,13.4c-0.2,0.2-0.4,0.4-0.6,0.6c-4.8,7.9-8,12.3-9.8,13.1
		c-2.4,0-4.4-1.1-6-3.3c-2.6-3.4-4.2-9.4-4.9-18c-0.7-8.6-0.5-17.6,0.6-27c1.1-9.3,2.6-17.8,4.6-25.3c1-3.4,0.8-6.3-0.6-8.6
		c-1.4-2.4-3.4-4-6-4.8c-2.8-0.8-5.5-0.7-8.2,0.3c-2.7,1-4.5,2.9-5.5,5.7c-2,6.2-3.7,14.3-5.1,24.4c-0.4,3-0.7,6.2-0.9,9.4
		c-2.6,2.6-5.4,4.9-8.6,7.1c-5.4,3.7-10.2,6.4-14.6,8.2c-4.4,1.8-10.3,4-17.9,6.6c2-9.3,3-18.3,3-26.8c0-10.1-1.5-18.2-4.5-24.1
		c-3.6-7.5-9-11.3-16.4-11.3c-8.1,0-16.5,4.1-25,12.2c-3.4,2.8-6.4,6-8.9,9.5c-4,4.8-7.6,10.2-11,16.4c1.2-11.3,2.4-19.4,3.6-24.1
		c0.8-3.6,0.4-6.5-1-8.8c-1.5-2.3-3.5-3.8-6.1-4.6c-2.6-0.8-5.2-0.6-7.9,0.4c-2.7,1.1-4.4,2.9-5.2,5.5c-1.6,4.7-3.2,15.5-4.7,32.1
		c-2.9,3.2-6.3,6.2-10.2,8.8c-5.4,3.7-10.2,6.4-14.6,8.2c-4.4,1.8-10.3,4-17.9,6.6c2-9.3,3-18.3,3-26.8c0-10.1-1.5-18.2-4.5-24.1
		c-3.6-7.5-9-11.3-16.4-11.3c-8.1,0-16.5,4.1-25,12.2c-3.4,2.8-6.4,6-8.9,9.5c-4,4.8-7.6,10.2-11,16.4c1.2-11.3,2.4-19.4,3.6-24.1
		c0.8-3.6,0.4-6.5-1-8.8c-1.5-2.3-3.5-3.8-6.1-4.6c-2.6-0.8-5.2-0.6-7.9,0.4c-2.7,1.1-4.4,2.9-5.2,5.5c-1.7,4.9-3.3,16.2-4.8,33.8
		c-9.5,16.4-17.2,28.4-23.2,35.9H265l-0.3,0.6c-5.8,6.8-9.5,10.4-11.3,11c-3.2,0.2-5.9-1-8-3.6c-3-3.8-4.8-10-5.4-18.8
		c-0.6-8.7-0.3-17.6,0.9-26.5s2.8-17.3,4.8-25c1-3.4,0.7-6.3-0.7-8.6s-3.6-4-6.4-4.8c-1.8-0.4-3.6-0.5-5.5-0.3
		c-1.9,0.2-3.7,0.8-5.4,1.9c-1.7,1.1-2.7,2.5-3.1,4.3h-0.3c-0.4-0.4-0.8-0.7-1.2-0.9c-4.2-3.8-10.1-5.7-17.9-5.7
		c-11.1,0-22.1,6.8-32.9,20.3c-8.7,10.9-13.9,22.6-15.6,35.2c-8.9,19.4-17,34.4-24.4,44.9c0,0.2-0.1,0.3-0.3,0.3v0.3
		c-1.8,2.4-3.4,4.6-4.8,6.6c-3.4,3.8-6.1,5.7-8,5.7c-0.8,0-1.5-0.3-2.1-0.9c-0.8-1-1.3-2.9-1.6-5.7c-0.3-2.8-0.1-6.6,0.6-11.3
		c0.7-4.8,1.3-8.8,1.8-12.1c0.5-3.3,1.3-8,2.5-14.1c2.2-11.5,3.7-20.3,4.6-26.4c0.9-6.1,1.1-12.9,0.7-20.6
		c-0.4-7.6-2.1-13.3-5.1-16.8c-3-3.8-7.1-5.7-12.5-5.7c-18.1,0-33.8,23.7-47.1,71.2c-1.8-13.3-2.7-25.5-2.7-36.6
		c13.7-11.7,27.2-31.6,40.5-59.6c9.1-19.5,15.2-36.8,18.2-52.1c1-4.4,1.6-8.9,1.8-13.7c0.2-5.2-0.2-9.5-1.2-13.1
		C115,179,108.9,174,99.4,174c-9.9,0-19.2,5.3-27.7,15.8C57,208.2,46.8,236.8,41,275.6c-5.8,38.7-5,74.7,2.4,107.8
		c1.4,6.6,4.5,9.8,9.2,9.8h0.3c2.8-0.2,5.4-1.5,7.7-3.9c1.8-2,2.7-4.1,2.7-6.3c5.4-22.2,11.4-40.4,18.2-54.4c6.7-14,12.7-21,17.9-21
		c1,0,1.7,0.3,2.1,0.9c1,1.2,1.7,3.2,2.1,6c0.4,2.8,0.3,6.6-0.1,11.5c-0.5,4.9-0.9,8.9-1.3,12.2c-0.4,3.3-1.1,8-2.1,14.1
		c-1.8,11.1-3,19.6-3.6,25.5c-0.6,5.9-0.6,12.4-0.1,19.7c0.5,7.3,2.1,12.5,4.9,15.8c2.8,3.3,6.5,4.9,11,4.9c6.2,0,12.8-4.3,20-12.8
		c0.2-0.2,0.4-0.4,0.6-0.6c1.4-1.6,2.7-3.3,3.9-5.1c6-8.3,12.6-19.8,19.8-34.3c0.9,8.3,3.3,14.6,7.2,19.1c5.1,5.8,11,8.6,17.7,8.6
		c11.9,0,22.2-8,31-24.1c2-3.8,3.9-7.9,5.7-12.5c1,12.3,3.7,21.5,8,27.7c4.4,6,10.1,8.9,17.3,8.9c7.7,0,16.6-6.2,26.5-18.5
		c0.2,0,0.3-0.1,0.3-0.3l0.6-0.3c0-0.2,0.1-0.4,0.3-0.6c4.5-5.8,9.9-13.8,16.3-24.1c-1.1,16-1.9,33.3-2.3,52.1
		c-0.6,24,0.1,48.7,2.2,74s5.6,45.1,10.6,59.4c1,3.2,2.8,5.8,5.4,7.9c2.6,2.1,5.2,3.1,7.7,3.1c0.8,0,1.5-0.1,2.1-0.3
		c3.4-1,5.1-3.7,5.1-8c0-1.6-0.2-3.4-0.6-5.4c-7.9-30.6-11.6-72.9-11-126.9c0.2-17.9,0.8-35.4,1.8-52.7c3-8.3,6.9-16.4,11.8-24.1
		c4.9-7.7,10.1-14.1,15.6-19.1c4.2-3.2,7.4-4.8,9.8-4.8c1.8,0,3.3,1.3,4.6,3.9c1.3,2.6,2.3,5.8,3,9.5c0.7,3.8,1,7.7,1,11.9
		c0,10.3-1.7,21.7-5.1,34.3c-16.9,7.5-29,18-36.3,31.3c-2,3.4-3,6.7-3,9.8c0,2.6,0.6,4.9,1.8,6.9c0.8,1.4,1.9,2.6,3.3,3.6l0.3,0.3
		c2,1.4,4.3,2.1,6.9,2.1c10.9,0,20.7-5.2,29.2-15.6c8.5-10.4,15-23.4,19.4-38.9c0.4-0.2,0.9-0.4,1.5-0.6c0.6-0.2,1-0.3,1.2-0.3
		c8.5-3,15.1-5.4,19.7-7.3c4.6-1.9,10-4.9,16.2-9.1c2-1.3,3.9-2.7,5.7-4.2c-1.3,17.9-2.3,37.6-2.8,59.3c-0.6,24,0.1,48.7,2.2,74
		s5.6,45.1,10.6,59.4c1,3.2,2.8,5.8,5.4,7.9c2.6,2.1,5.2,3.1,7.7,3.1c0.8,0,1.5-0.1,2.1-0.3c3.4-1,5.1-3.7,5.1-8
		c0-1.6-0.2-3.4-0.6-5.4c-7.9-30.6-11.6-72.9-11-126.9c0.2-17.9,0.8-35.4,1.8-52.7c3-8.3,6.9-16.4,11.8-24.1
		c4.9-7.7,10.1-14.1,15.6-19.1c4.2-3.2,7.4-4.8,9.8-4.8c1.8,0,3.3,1.3,4.6,3.9c1.3,2.6,2.3,5.8,3,9.5c0.7,3.8,1,7.7,1,11.9
		c0,10.3-1.7,21.7-5.1,34.3c-16.9,7.5-29,18-36.3,31.3c-2,3.4-3,6.7-3,9.8c0,2.6,0.6,4.9,1.8,6.9c0.8,1.4,1.9,2.6,3.3,3.6l0.3,0.3
		c2,1.4,4.3,2.1,6.9,2.1c10.9,0,20.7-5.2,29.2-15.6c8.5-10.4,15-23.4,19.4-38.9c0.4-0.2,0.9-0.4,1.5-0.6c0.6-0.2,1-0.3,1.2-0.3
		c8.5-3,15.1-5.4,19.7-7.3c4.6-1.9,10-4.9,16.2-9.1c1.6-1,3.1-2.1,4.5-3.3c0,4.6,0.1,9.3,0.4,14.1c0.8,12,3.4,21,7.7,27
		c4.4,6,10.1,8.9,17.3,8.9c11.9,0,26.7-23.5,44.4-70.6c0.4,20.3,0,41.9-1.2,64.9c-38.9,41.7-58.4,80.4-58.4,116.2
		c0,8.7,0.9,16.1,2.8,22c1.9,6,4.4,10.3,7.4,13.1c3.1,2.8,6.1,4.7,8.9,5.7c2.9,1,5.8,1.5,8.8,1.5c6.4,0,12.1-2.7,17.3-8
		c5.6-5.6,10.5-14.3,14.9-26.2c4.4-11.9,7.9-25.7,10.6-41.3c2.7-15.6,4.8-31.1,6.4-46.6c1.6-15.5,2.8-31.7,3.6-48.6
		c13.5-13.1,28.9-26.3,46.2-39.6c1.8-1.4,3-2.3,3.6-2.7C683.1,331.5,683.3,329.8,681.8,328z M63.9,270.3
		c3.4-16.2,7.4-30.4,12.1-42.6c4.7-12.2,9.8-22.3,15.3-30.2c5.6-7.9,10.6-11.9,15.2-11.9c0.8,0,1.5,0.4,2.1,1.2
		c2.2,2.8,3.2,8,3,15.8c-0.2,3.6-0.7,7.3-1.5,11.3l-0.3,0.6c0,0.2,0,0.4,0,0.6c-3,14.7-8.8,31.3-17.6,49.7
		c-10.9,23-22.2,40.6-34,52.7C58.7,302.3,60.6,286.5,63.9,270.3z M218.2,335.1c-0.2,0.2-0.3,0.5-0.4,0.9c-0.1,0.4-0.1,0.7-0.1,0.9
		c-4.2,12.5-8,21.9-11.6,28.3v0.3c-2.4,4.6-5.3,8.5-8.6,11.8c-3.4,3.3-6.6,4.9-9.5,4.9c-2.2,0-4.3-1.9-6.4-5.8
		c-2.1-3.9-3.1-9.3-3.1-16.2c0-13.3,3.7-25.5,11.2-36.5s15-17.6,22.8-19.8c2.6-0.6,4.7-0.5,6.3,0.3c0.8,0.8,1.5,1.6,2.1,2.4
		c0.4,0.6,0.8,1.3,1.2,2.1C220,317,218.8,325.8,218.2,335.1z M318.3,409.3c-0.2-0.2-0.4-0.4-0.6-0.6c-1.6-2.4-1.2-5.7,1.2-9.8
		c5.8-10.5,14.9-19,27.4-25.3C338.8,395.8,329.4,407.7,318.3,409.3z M445.2,409.3c-0.2-0.2-0.4-0.4-0.6-0.6
		c-1.6-2.4-1.2-5.7,1.2-9.8c5.8-10.5,14.9-19,27.4-25.3C465.6,395.8,456.3,407.7,445.2,409.3z M580.4,528.7
		c-3.2,3.4-6.5,5.1-9.8,5.1c-1.8,0-3.5-1-5.2-3.1c-1.7-2.1-3.2-4.8-4.5-8.2c-1.3-3.4-2.2-7.1-2.8-11c-0.2-2.4-0.3-5-0.3-7.7
		c0-32.2,16.9-67.1,50.6-104.8C604,470.2,594.7,513.4,580.4,528.7z"/>
	<path d="M266.5,249.5c0.3,0.4,0.4,1.1,0.4,2.1c0,1-0.1,1.7-0.4,2c-6.5-0.2-10.5-0.2-12-0.2c-1.4,0-5.2,0.1-11.5,0.2
		c-0.3-0.4-0.5-1.1-0.5-2.1c0-1,0.1-1.7,0.5-2c3.1-0.3,5-1,5.8-2c0.8-1.1,1.2-3.8,1.2-8.2v-17c0-4-0.5-6.9-1.4-8.7
		c-1.4-2.7-3.4-4.1-6-4.1c-5.1,0-9.9,2.2-14.5,6.6c-1.3,1.4-1.9,3-1.9,4.7v18.4c0,3.2,0.2,5.4,0.6,6.8c0.4,1.3,1,2.2,1.8,2.6
		c0.8,0.4,2.3,0.7,4.4,0.9c0.3,0.4,0.5,1,0.5,2c0,1-0.2,1.7-0.5,2c-6.4-0.2-10.1-0.2-11.2-0.2c-2.1,0-6.2,0.1-12.5,0.2
		c-0.3-0.4-0.5-1-0.5-2c0-1,0.2-1.7,0.5-2c1.9-0.1,3.2-0.3,4-0.5c0.8-0.2,1.6-0.6,2.3-1.4c0.7-0.7,1.1-1.7,1.3-3
		c0.2-1.3,0.2-3.1,0.2-5.5v-47.7c0-1.2-0.2-2.3-0.6-3.1c-0.4-0.9-1.1-1.5-2-2c-0.9-0.5-1.8-0.9-2.7-1.2s-2-0.5-3.6-0.6
		c-1.5-0.1-2.8-0.1-3.7-0.2c-0.9,0-2.3,0-4.1,0s-3.1,0.1-3.7,0.1h-2.5c-2,0-3.3,1-4.1,2.9s-1.1,4.8-1.1,8.7v43.2
		c0,4.5,0.6,7.3,1.9,8.4c1.3,1.1,4.3,1.7,9,1.9c0.4,0.4,0.6,1.1,0.6,2.1c0,1-0.2,1.7-0.6,2c-7.6-0.2-12.8-0.2-15.7-0.2
		c-3.2,0-8.4,0.1-15.8,0.2c-0.3-0.3-0.4-1-0.4-2c0-1,0.1-1.7,0.4-2.1c4.7-0.1,7.7-0.8,9-1.9s1.9-3.9,1.9-8.5v-43.6
		c0-3.7-0.4-6.5-1.2-8.4c-0.8-1.9-2.2-2.8-4.2-2.8h-5.5c-3.9,0-7.1,0.9-9.6,2.8c-2.5,1.8-4.3,5-5.3,9.5c-1.6,0-2.9-0.2-3.9-0.6
		c1.5-6.4,2.5-11.9,2.8-16.3c0-0.2,0.2-0.3,0.5-0.3c7.6,0.6,16.4,0.9,26.4,0.9h9.8c6.5,0,14-0.2,22.3-0.5c2-0.1,3.8-0.4,5.5-0.9
		s3.5-1.2,5.3-2.1c1.8-0.9,2.8-1.3,2.8-1.4c1,0,1.5,0.4,1.5,1.1c-0.3,3-0.5,6.9-0.5,11.8l-0.1,24.4c0.1,0.8,0.4,0.8,1.1,0
		c5.5-6.1,11.9-9.2,19.2-9.2c4.3,0,7.5,1.3,9.4,3.8c2,2.6,3.1,7.7,3.1,15.1v16.7c0,4.4,0.4,7.2,1.3,8.2
		C261,248.5,263.1,249.1,266.5,249.5z M283.7,191.4c1.5,0,2.9-0.6,4.1-1.8c1.2-1.2,1.8-2.4,1.8-3.7c0-1.4-0.5-2.7-1.6-4
		c-1.1-1.3-2.4-1.9-3.8-1.9c-1.4,0-2.7,0.6-4,1.7c-1.3,1.1-1.9,2.4-1.9,3.7c0,1.4,0.6,2.8,1.7,4
		C281.1,190.8,282.4,191.4,283.7,191.4z M290,247.5c-0.9-1-1.4-3.8-1.4-8.3v-22.4c0-1.1,0-2.2,0-3.5c0-1.3,0.1-2.4,0.1-3.4
		s0.1-2,0.1-3c0-1.1,0.1-1.8,0.1-2.1c0-0.3,0.1-0.6,0.1-0.8c0-0.5-0.5-0.8-1.5-0.8c-3.3,1.3-8.5,2.3-15.5,3.3
		c-0.3,0.8-0.2,1.9,0.2,3.2c3.2,0.3,5.2,0.8,6.1,1.7c0.9,0.8,1.3,2.8,1.3,5.9v21.9c0,4.5-0.5,7.3-1.4,8.3c-0.9,1-3.2,1.7-6.8,2
		c-0.3,0.4-0.4,1.1-0.4,2.1c0,1,0.1,1.7,0.4,2c6.4-0.2,10.6-0.2,12.7-0.2c1.9,0,6.1,0.1,12.6,0.2c0.4-0.3,0.6-1,0.6-2
		c0-1-0.2-1.7-0.6-2.1C293.1,249.2,290.9,248.6,290,247.5z M325.2,225.2c-1.8-0.7-3.1-1.2-3.9-1.5c-0.8-0.3-1.8-0.8-3-1.4
		c-1.2-0.6-2-1.3-2.5-1.8c-0.5-0.6-1-1.4-1.4-2.3c-0.4-0.9-0.6-2-0.6-3.2c0-2.2,0.8-3.9,2.5-5.2c1.6-1.3,3.5-1.9,5.5-1.9
		c0.8,0,1.7,0.1,2.6,0.3c0.9,0.2,1.9,0.6,3.1,1.3s2.3,1.7,3.1,3.1s1.5,3.3,1.9,5.5c0.4,0.3,1,0.4,1.8,0.4c0.8,0,1.5-0.2,1.8-0.6
		c0-1.5,0.1-3.6,0.3-6.4c0.2-2.7,0.3-4.6,0.3-5.6c-0.5-0.1-1.8-0.3-3.8-0.7c-2-0.4-4-0.8-5.8-1c-1.8-0.3-3.6-0.4-5.4-0.4
		c-4.3,0-8.1,1.2-11.2,3.7c-3.2,2.5-4.8,5.5-4.8,9.1c0,4,0.9,7,2.8,9.2c1.9,2.2,5.1,4.2,9.6,6c4.6,1.8,7.7,3.5,9.2,5
		c1.5,1.5,2.3,3.5,2.3,5.9c0,2.5-1,4.4-3,5.8c-2,1.3-4.2,2-6.6,2c-3.7,0-6.4-0.9-8-2.7c-1.7-1.6-3.1-5-4.4-10.3
		c-0.4-0.3-1-0.4-1.8-0.4c-0.8,0-1.4,0.2-1.8,0.5c0.5,6.6,0.8,11.8,0.8,15.8c1.1-0.3,2.1-0.4,2.8-0.4c1,0,1.8,0.1,2.3,0.3
		c3.2,0.8,6.6,1.2,10.3,1.2c1.8,0,3.7-0.2,5.7-0.7s3.9-1.2,5.9-2.2c2-1,3.6-2.5,4.9-4.5c1.3-2,1.9-4.4,1.9-7
		C338.8,233.4,334.2,228.5,325.2,225.2z"/>
	<path d="M399.9,249.5c0.4,0.4,0.6,1.1,0.6,2.1c0,1-0.2,1.7-0.6,2c-6.5-0.2-10.7-0.2-12.6-0.2c-2.1,0-6.3,0.1-12.7,0.2
		c-0.3-0.3-0.4-1-0.4-2c0-1,0.1-1.7,0.4-2.1c3.6-0.3,5.9-0.9,6.8-2s1.4-3.8,1.4-8.3v-21.9c0-3.1-0.4-5.1-1.3-5.9
		c-0.9-0.8-2.9-1.4-6.1-1.7c-0.4-1.3-0.5-2.4-0.2-3.2c7-0.9,12.2-2,15.5-3.3c1,0,1.5,0.3,1.5,0.8c0,0.2,0,0.5-0.1,0.8
		c0,0.4-0.1,1.1-0.1,2.1c0,1.1-0.1,2.1-0.1,3s-0.1,2.1-0.1,3.4c0,1.3,0,2.4,0,3.5v22.4c0,4.5,0.5,7.3,1.4,8.3
		C394,248.6,396.3,249.2,399.9,249.5z M386.9,191.4c1.5,0,2.9-0.6,4.1-1.8c1.2-1.2,1.8-2.4,1.8-3.7c0-1.4-0.5-2.7-1.6-4
		c-1.1-1.3-2.4-1.9-3.8-1.9c-1.4,0-2.7,0.6-4,1.7c-1.3,1.1-1.9,2.4-1.9,3.7c0,1.4,0.6,2.8,1.7,4S385.5,191.4,386.9,191.4z
		 M428.4,225.2c-1.8-0.7-3.1-1.2-3.9-1.5c-0.8-0.3-1.8-0.8-3-1.4c-1.2-0.6-2-1.3-2.5-1.8c-0.5-0.6-1-1.4-1.4-2.3
		c-0.4-0.9-0.6-2-0.6-3.2c0-2.2,0.8-3.9,2.5-5.2c1.6-1.3,3.5-1.9,5.5-1.9c0.8,0,1.7,0.1,2.6,0.3c0.9,0.2,1.9,0.6,3.1,1.3
		s2.3,1.7,3.1,3.1c0.9,1.5,1.5,3.3,1.9,5.5c0.4,0.3,1,0.4,1.8,0.4c0.8,0,1.5-0.2,1.8-0.6c0-1.5,0.1-3.6,0.3-6.4
		c0.2-2.7,0.3-4.6,0.3-5.6c-0.5-0.1-1.8-0.3-3.8-0.7c-2-0.4-4-0.8-5.8-1c-1.8-0.3-3.6-0.4-5.4-0.4c-4.3,0-8.1,1.2-11.2,3.7
		c-3.2,2.5-4.8,5.5-4.8,9.1c0,4,0.9,7,2.8,9.2c1.9,2.2,5.1,4.2,9.6,6c4.6,1.8,7.7,3.5,9.2,5c1.5,1.5,2.3,3.5,2.3,5.9
		c0,2.5-1,4.4-3,5.8c-2,1.3-4.2,2-6.6,2c-3.7,0-6.4-0.9-8-2.7c-1.7-1.6-3.1-5-4.4-10.3c-0.4-0.3-1-0.4-1.8-0.4
		c-0.8,0-1.4,0.2-1.8,0.5c0.5,6.6,0.8,11.8,0.8,15.8c1.1-0.3,2.1-0.4,2.8-0.4c1,0,1.8,0.1,2.3,0.3c3.2,0.8,6.6,1.2,10.3,1.2
		c1.8,0,3.7-0.2,5.7-0.7c1.9-0.4,3.9-1.2,5.9-2.2c2-1,3.6-2.5,4.9-4.5c1.3-2,1.9-4.4,1.9-7C442,233.4,437.4,228.5,428.4,225.2z"/>
	<path d="M516.8,207.6c-3.7-2.7-8.3-4-13.7-4c-7.3,0-13.3,2.6-17.8,7.9c-4.2,4.9-6.3,11.1-6.3,18.6c0,6.4,2.1,12.1,6.2,17
		s10,7.4,17.6,7.4c6.8,0,12.3-2.1,16.7-6.3c4.9-4.8,7.4-11.2,7.4-19.1c0-4.2-0.7-8.2-2.2-11.9C523.2,213.5,520.6,210.3,516.8,207.6z
		 M513.3,246.3c-2.6,2.7-5.5,4.1-8.8,4.1c-2.8,0-5.3-0.8-7.4-2.3c-2.1-1.5-3.7-3.5-4.9-5.9c-1.1-2.4-2-4.8-2.5-7.3
		c-0.6-2.5-0.9-4.9-0.9-7.3c0-13.2,4.2-19.8,12.6-19.8c4.9,0,8.8,2.2,11.6,6.5c2.8,4.3,4.2,10.5,4.2,18.5
		C517.1,239,515.9,243.6,513.3,246.3z M589.9,246.9c0.4,0.4,0.6,0.9,0.6,1.6c0,0.7-0.2,1.2-0.6,1.5c-6.3,0.7-10.9,2.2-13.7,4.5
		c-0.8,0.2-1.6,0.2-2.2,0c-0.8-2.7-1.3-4.9-1.3-6.6c0-0.8-0.4-0.9-1.3-0.1c-5.5,4.5-10.6,6.8-15.3,6.8c-5.2,0-8.9-1.4-11.2-4.3
		c-2.3-2.9-3.4-6.5-3.4-11v-21.6c0-3.5-0.5-5.8-1.4-7s-2.8-1.8-5.6-2c-0.3-0.3-0.4-1-0.4-2c0-1,0.1-1.7,0.4-2.1
		c5.6,0.2,9.5,0.2,11.6,0.2c1.9,0,3.2-0.1,4-0.2c0.6,0,0.9,0.3,0.9,0.8c-0.3,5.5-0.4,9.4-0.4,11.7v20.6c0,4.5,0.9,7.5,2.8,9.2
		c1.8,1.7,3.9,2.5,6.3,2.5c3.4,0,7.2-1.8,11.3-5.4c1.2-1.1,1.8-2.5,1.8-4.4v-21.7c0-3.6-0.5-6-1.4-7.1c-0.9-1.2-2.8-1.8-5.7-2
		c-0.4-0.3-0.6-1-0.6-2c0-1,0.2-1.7,0.6-2.1c5.6,0.2,9.5,0.2,11.6,0.2c1.9,0,3.2-0.1,4-0.2c0.6,0,0.9,0.3,0.9,0.8
		c-0.3,5.5-0.4,9.4-0.4,11.7v21.7c0,2.9,0.5,5,1.5,6.1C584.2,245.9,586.4,246.6,589.9,246.9z M632.2,209c0,1.4-0.5,2.7-1.6,3.9
		c-1.1,1.2-2.3,1.8-3.7,1.8c-0.5,0-1-0.1-1.6-0.4c-0.5-0.3-0.9-0.5-1.2-0.8c-0.3-0.3-0.6-0.6-1-1.1s-0.7-0.8-0.9-1
		c-0.5-0.5-1.3-0.8-2.4-0.8c-0.9,0-2.7,1.8-5.2,5.5c-1.8,2.7-2.7,5.2-2.7,7.5v15.6c0,4.5,0.5,7.2,1.5,8.2c1,1,3.6,1.7,7.8,2
		c0.4,0.4,0.6,1.1,0.6,2.1c0,1-0.2,1.7-0.6,2c-6.5-0.2-11.1-0.2-13.7-0.2c-2.3,0-6.6,0.1-12.9,0.2c-0.3-0.3-0.4-1-0.4-2
		c0-1,0.1-1.7,0.4-2.1c3.7-0.2,6-0.9,7-1.9c1-1.1,1.4-3.8,1.4-8.3v-21.9c0-3.1-0.4-5.1-1.3-5.9c-0.9-0.8-2.9-1.4-6.1-1.7
		c-0.4-1.3-0.5-2.4-0.2-3.2c5.9-0.7,10.7-1.8,14.3-3.3c0.6,0,1,0.3,1.3,0.9c0.6,1.4,0.9,4.2,0.9,8.6c0,0.4,0.1,0.6,0.2,0.8
		c0.1,0.1,0.3,0,0.7-0.5c1.5-2.6,3.4-4.8,5.6-6.6c2.2-1.8,4.5-2.8,6.9-2.8c2.2,0,3.9,0.6,5,1.7C631.6,206.5,632.2,207.7,632.2,209z"
		/>
	<path d="M81.3,462.2c-4.7,0-9.2,2.4-13.3,7.3c-0.1,0.2-0.3,0.2-0.5,0.2s-0.3-0.3-0.3-0.6c0-3.1-0.3-5.2-0.8-6.4
		c-0.3-0.5-0.6-0.8-1.1-0.8c-3.1,1.2-7.2,2.2-12.2,2.8c-0.3,0.7-0.2,1.6,0.2,2.7c2.7,0.3,4.4,0.7,5.2,1.4c0.7,0.7,1.1,2.4,1.1,5.1
		v41.1c0,3.9-0.4,6.3-1.2,7.2c-0.8,0.9-2.7,1.5-5.8,1.6c-0.3,0.3-0.4,1-0.4,1.8s0.1,1.4,0.4,1.7c5.5-0.1,9.1-0.2,10.9-0.2
		c2.3,0,6.2,0.1,11.7,0.2c0.3-0.3,0.5-0.8,0.5-1.7s-0.2-1.5-0.5-1.8c-3.6-0.2-5.8-0.7-6.6-1.6c-0.9-0.9-1.3-3.3-1.3-7.1v-10.4
		c0-0.6,0.1-0.9,0.3-1c0.2-0.1,0.5,0,1,0.3c2.5,1,5.3,1.6,8.4,1.6c5.7,0,10.5-1.8,14.3-5.4c4.8-4.7,7.1-10.8,7.1-18.4
		c0-5.3-1.6-9.9-4.9-13.8C90.2,464.2,86.1,462.2,81.3,462.2z M89.4,490.7c-0.4,1.9-1.1,3.8-2.1,5.6c-1,1.8-2.4,3.3-4.3,4.3
		c-1.9,1.1-4.1,1.6-6.7,1.6c-1.1,0-2.3-0.2-3.7-0.5c-1.3-0.3-2.4-0.8-3.2-1.5c-0.7-0.7-1.2-1.2-1.5-1.6c-0.3-0.4-0.5-0.9-0.6-1.5
		c-0.1-0.6-0.2-1.5-0.2-2.7v-17.5c0-1.5,0.5-2.9,1.5-4.2c1.3-1.6,2.9-3,4.9-4.2c1.9-1.2,3.6-1.8,4.9-1.8c3.2,0,6,1.7,8.2,5
		c2.2,3.3,3.3,7.6,3.3,12.9C90.1,486.7,89.9,488.8,89.4,490.7z M125.9,501.5c0.3,0.3,0.4,1,0.4,1.8s-0.1,1.4-0.4,1.7
		c-5.5-0.1-9.1-0.2-10.8-0.2c-1.8,0-5.4,0.1-10.8,0.2c-0.3-0.3-0.5-0.8-0.5-1.7s0.2-1.5,0.5-1.8c3-0.1,4.9-0.7,5.7-1.6
		c0.8-0.9,1.2-3.3,1.2-7.2v-42.1c0-2.1-0.1-3.6-0.2-4.6c-0.1-1-0.5-1.8-1.2-2.3c-0.7-0.5-1.3-0.7-1.6-0.8c-0.4,0-1.5-0.1-3.2-0.2
		c-0.7-0.7-0.9-1.7-0.6-2.9c5.7-0.4,10.3-1.3,13.6-2.7c0.9,0,1.3,0.3,1.3,1c-0.3,2.6-0.4,6-0.4,10.1v44.4c0,3.9,0.4,6.3,1.2,7.2
		C121,500.8,122.9,501.3,125.9,501.5z M170.5,499.8c-0.1,0-0.4,0.3-0.9,0.8c-0.6,0.5-1.2,0.8-2,0.8c-1.2,0-2.1-0.4-2.7-1.2
		c-0.6-0.8-1-1.7-1.1-2.7c-0.1-1-0.1-2.4-0.1-4.2v-14.3c0-11-4.9-16.6-14.7-16.6c-3.9,0-7.6,1.1-11,3.4c-3.4,2.3-5,4.7-5,7.4
		c0,2.3,1.1,3.4,3.4,3.4c1.3,0,2.3-0.3,3.1-1s1.2-1.4,1.2-2.1c0-0.8-0.1-1.3-0.3-1.7c-0.1-0.3-0.2-1-0.2-1.8c0-1.3,0.8-2.3,2.4-3
		s3.5-1,5.6-1c5.2,0,7.8,4.1,7.8,12.4c0,0.6-0.2,1-0.6,1.1l-8.4,2.1c-4.8,1.2-8.7,3-11.7,5.5c-3,2.5-4.5,5.3-4.5,8.5
		c0,3.6,1.1,6.2,3.4,7.9c2.3,1.7,5.3,2.5,9.1,2.5c2.2,0,3.9-0.3,5.3-0.8c1.4-0.5,3.1-1.6,5.2-3.3l1.9-1.5h0.2
		c1.1,3.7,3.6,5.6,7.6,5.6c1.4,0,2.8-0.3,4.2-1c1.4-0.7,2.4-1.4,3.1-2c0.7-0.7,1-1.1,1-1.3c0-0.3-0.2-0.7-0.5-1
		C171,500,170.7,499.8,170.5,499.8z M156,495.1c0,1-0.5,1.9-1.4,2.5c-3.4,2.8-6.2,4.2-8.5,4.2c-2.3,0-4-0.7-5.2-2.2
		c-1.2-1.4-1.8-3-1.8-4.8c-0.1-5.6,3-9.1,9.1-10.7l7.7-2V495.1z M210.3,496c-2.3,3.7-4.6,6.3-7.1,7.7c-2.5,1.4-5.4,2-8.6,2
		c-6,0-10.7-1.9-14.1-5.7c-3.4-3.8-5.1-8.9-5.1-15.3c0-6.6,2-12,6.1-16.2c4.1-4.2,8.7-6.3,13.8-6.3c4.5,0,8.1,0.9,10.8,2.6
		c2.6,1.7,4,3.9,4,6.6c0,1.4-0.5,2.4-1.5,3.2c-1,0.8-2.1,1.1-3.2,1.1c-2.2,0-3.4-1.1-3.7-3.4c-0.1-1.4-0.3-2.5-0.6-3.2
		c-0.3-0.8-1-1.5-2-2.3c-1-0.7-2.5-1.1-4.3-1.1c-3.2,0-5.9,1.5-7.9,4.6c-2.1,3-3.1,7.2-3.1,12.3c0,5.5,1.3,9.9,3.8,13.3
		c2.5,3.4,5.6,5,9.2,5c4.4,0,8.3-2.1,11.6-6.3C209.3,494.8,210,495.2,210.3,496z M250.9,495.8c-1.9,1.9-3.6,3.3-5.4,4
		c-1.7,0.8-3.9,1.2-6.6,1.2c-4.2,0-7.7-2.3-10.6-7c-2-3.4-3.1-7.9-3.1-13.3l25.7,0.2c1.2,0,1.8-0.6,1.8-1.7
		c0-11.2-5.5-16.8-16.4-16.8c-4.7,0-9.2,2.1-13.3,6.2c-4.1,4.2-6.2,9.7-6.2,16.5c0,6.1,1.5,10.8,4.6,14.3c3.5,4.1,8.5,6.2,14.9,6.2
		c6.7,0,12.2-2.8,16.5-8.4C252.7,496.4,252,495.9,250.9,495.8z M227.6,471.1c1-1.7,2.1-2.8,3.3-3.5c1.2-0.7,2.2-1.1,3-1.3
		s1.7-0.3,2.5-0.3c2.2,0,4.1,0.7,5.7,2.2c1.6,1.5,2.4,4,2.4,7.5c0,0.8-0.4,1.3-1.4,1.3l-17.5,0.3C226,474.8,226.7,472.8,227.6,471.1
		z"/>
</g>
</svg>
