<?xml version="1.0" encoding="utf-8"?>
<!-- Generator: Adobe Illustrator 18.0.0, SVG Export Plug-In . SVG Version: 6.00 Build 0)  -->
<!DOCTYPE svg PUBLIC "-//W3C//DTD SVG 1.1//EN" "http://www.w3.org/Graphics/SVG/1.1/DTD/svg11.dtd">
<svg version="1.1" id="Layer_1" xmlns="http://www.w3.org/2000/svg" xmlns:xlink="http://www.w3.org/1999/xlink" x="0px" y="0px"
	 viewBox="0 0 720 720" style="enable-background:new 0 0 720 720;" xml:space="preserve">
<g>
	<path d="M308.9,304.1c0-1.4,0.6-3,1.7-4.6c2.3-4.4,4.3-6.6,6-6.6l1.3,0.1c3.4,0.8,5.1,2,5.1,3.7c0,0.9-0.8,2.1-2.4,3.5
		c-0.8,0.8-1.7,1.8-2.8,3.1c-2.3,2.4-3.7,3.8-4.4,4.1C310.4,307.2,308.9,306.2,308.9,304.1z M385.1,340.8c0,2.1-3.7,7.2-11.1,15.3
		c-4.9,5.3-9.3,9.5-13.2,12.7c-2.3,1.7-4.1,3.1-5.2,4.4c0.4,1.5,0.6,3.1,0.6,4.9c0,9-3.4,17.3-10.1,24.8c-4.7,5.2-9.8,8.1-15.2,8.9
		c-4.5,0-7.6-1.4-9.3-4.2c-0.7-1.2-1.1-2.6-1.1-4.1c0-2.5,0.9-5.4,2.8-8.7c3.4-5.3,7.4-9.3,12-12.2c1.8-1.1,3.3-2.3,4.6-3.5
		c-0.3-1.2-0.8-3.1-1.7-5.8c-2.7-7.5-4.5-14.9-5.2-22.1c-3,4.3-7.1,10.1-12.4,17.2c-6.7,9.9-12.9,14.9-18.9,14.9
		c-3.3,0-6.8-1.4-10.7-4.2c-4.7-3.7-7-9.8-7-18.4c0-0.5,0-1,0-1.4c-5.7,12.5-11.4,22.5-16.9,30c-4.9,6.7-10.3,11.2-16.3,13.5
		c-1.7,0.5-3.3,0.7-4.9,0.7c-6.9,0-11.6-3.4-13.9-10.1c-0.8-2.9-1.3-6-1.3-9.3c0-9.8,4.1-22.6,12.2-38.4c2.1-4.3,3.9-8.3,5.5-12
		c1.6-3.7,2.5-6.8,2.7-9.3c-8.7,4.8-16.1,11.9-22.2,21.4c-6.1,9.5-11.3,19-15.5,28.7c-1.6,4.5-3.6,6.8-5.9,6.8c-1,0-2.2-0.3-3.5-0.8
		c-2-1.2-3-4.7-3-10.4c0-2,0.1-4.2,0.4-6.5c-0.2,0.3-0.3,0.6-0.5,1c-14.1,27.7-24.6,46-31.5,54.9c-7.7,10.4-15.3,15.6-22.9,15.6
		c-1.5,0-3.1-0.1-4.8-0.4c-12.4-2.8-18.6-14-18.6-33.5c0.7-21.5,4.2-44.1,10.6-67.7c6.4-23.7,12.5-40.5,18.4-50.4
		c10.4-20.7,18.8-31.1,25.2-31.1c1.2,0,2.2,0.5,2.8,1.4c0.4,0.5,0.6,1.1,0.6,2c0,1.6-0.8,3.9-2.3,6.9c-8.3,14.5-13.5,24.7-15.8,30.4
		c-15.7,39-24.8,74-27.3,104.8c-0.3,2.6-0.4,5.2-0.4,7.7c0,6.2,0.9,11.7,2.8,16.6c2.4,4.9,5.6,7.3,9.6,7.3c0.9,0,3-0.5,6.3-1.4
		c5.4-1.5,14.9-14.3,28.3-38.4c10.3-18.4,18.3-33.3,24.1-44.6c3-8.5,7.4-18.7,13.4-30.6c6.9-14,15-27.3,24.1-40.1
		c6.9-9.7,13.8-17.6,20.8-23.9c-21-1.4-45.6-2.2-73.8-2.2c-16,0-30.4,0.4-43,1.1c-26.3,1.6-47.7,5.3-64.3,11.3
		C69.8,264.7,61,271,56.6,278.8c-2.7,4.9-4.1,9-4.1,12.2c0,0.8,0.1,1.6,0.2,2.3c0.1,0.7,0.2,1.3,0.2,1.9c0,2.3-0.9,3.4-2.7,3.5
		c-1.6,0-2.8-1.2-3.5-3.7c-0.5-1.4-0.7-2.9-0.7-4.4c0-3.8,1.3-7.8,3.9-12.2c5.5-9.1,15.6-16.3,30.1-21.5c7.8-2.8,17.7-5.5,29.7-8
		c10.1-2.1,28.2-3.9,54.2-5.5c17.3-1,36.3-1.5,57.1-1.5c25.1,0,42.2,0.4,51.2,1.2c2-1.4,3.9-2.7,5.9-3.8c4.1-2.3,7.7-3.5,10.7-3.5
		c2.4,0,4.2,1.1,5.3,3.4c0.6,1.2,0.8,2.5,0.8,3.9c0,3.1-1.4,7.1-4.1,11.9c-2.7,4.8-6.3,9.9-10.8,15.3c-12.2,14.5-27.7,29.9-46.4,46
		c-2.6,1.8-4.7,4.2-6.3,7.3c-3,5.2-6.2,12.1-9.7,20.8c-2.9,7.2-4.9,13.6-6,19.1c0.6-0.6,3.1-4.8,7.6-12.8c3.6-5.6,7.9-11.3,13.2-17
		c5.2-5.7,10.6-10.1,16.1-13.3c1.8-0.9,3.6-1.4,5.5-1.4c0.8,0,2.2,0.2,3.9,0.7c2.7,0.6,4.1,3.5,4.1,8.9c0,1.6-0.2,3.6-0.7,6
		c-0.8,4-3.5,11-7.9,20.8c-4,9.6-6.8,16.8-8.3,21.7c-1.9,6.4-2.8,11.5-2.8,15.3c0,4.6,1.3,6.9,3.9,6.9c0.7,0,1.4-0.1,2.1-0.3
		c4.5-1.7,8.3-4.4,11.5-8.2c8.1-9.3,16.8-24.6,26.2-45.9c2-7.3,5.3-14.5,10.1-21.8c2.9-4.4,5.6-6.6,8.2-6.6c0.8,0,1.9,0.2,3.1,0.7
		c2.5,1,3.8,2.5,3.8,4.5c0,1.5-1.8,6.7-5.5,15.5c-6.5,15.8-9.7,27.3-9.7,34.7c0,3.9,1.5,5.9,4.4,5.9c4.9,0,11.6-5.8,20.1-17.4
		l12-16.3c0-0.4,0-0.9,0-1.3c0-2.2,0.1-4.3,0.3-6.5c2.3-18.1,9.4-30.8,21.1-38c4.4-2.5,8.4-3.8,12-3.8c3.4,0,5.9,1.2,7.6,3.5
		c1.1,1.5,1.7,3.6,1.7,6.3c0,8.1-3.2,15.8-9.7,23.2c-5.4,6.3-10.8,10.6-16,13.1v1.8c0,7.9,1,14.5,3,20l2.3,6.3
		c9.2-6.5,18.4-16,27.6-28.6c0.7-0.8,1.3-1.3,1.8-1.3C384.7,339.3,385.1,339.8,385.1,340.8z M349.7,337.6l5.2-4.5
		c9.8-7.5,15.1-15.6,16.2-24.2c0.3-0.7,0.4-1.9,0.4-3.7c0-1.5-0.6-2.9-1.7-4.1c-0.6-0.7-1.3-1-2.3-1c-0.3,0-0.9,0.1-1.8,0.4
		c-0.9,0.2-2.4,2-4.4,5.4c-3.3,5.3-5.8,10.3-7.7,15.1C351.8,325.9,350.5,331.4,349.7,337.6z M233.6,311.7c0.4-0.2,2.8-2.3,7.4-6.3
		c4.5-4,10-9.1,16.4-15.3c6.4-6.2,12.5-12.7,18.3-19.4c5.8-6.8,10.2-13,13.1-18.7c1.7-3.1,2.5-5.8,2.5-8.2c0-1.9-0.6-3.5-1.7-4.9
		c-3.2,0.6-6.6,2.4-10.2,5.5c0.1,0,0.2,0.1,0.2,0.1c1.3,1.1,2,2.4,2,3.8c0,1.4-1.2,2.2-3.5,2.4c-1,0-2.3-0.1-3.7-0.3
		c-0.3,0-0.7-0.1-1-0.1c-5.8,6.6-11.3,13.8-16.5,21.7c-5.2,7.9-9.6,15.1-13.2,21.6C239.5,300.5,236.1,306.5,233.6,311.7z
		 M342.3,390.6c0-2.9-0.5-6-1.5-9.1c-1.2,1.1-2.5,2.2-3.9,3.2l-2.8,2.1c-6.6,5.8-9.8,11-9.8,15.6c0,2.4,0.8,4.3,2.5,5.5
		c0.7,0.5,1.5,0.7,2.4,0.7c0.8,0,1.8-0.2,3-0.7c3.7-1.8,6.6-5.1,8.7-9.8C341.7,395.7,342.3,393.2,342.3,390.6z"/>
	<path d="M436.9,304.1c0-1.4,0.6-3,1.7-4.6c2.3-4.4,4.3-6.6,6-6.6l1.3,0.1c3.4,0.8,5.1,2,5.1,3.7c0,0.9-0.8,2.1-2.4,3.5
		c-0.8,0.8-1.7,1.8-2.8,3.1c-2.3,2.4-3.7,3.8-4.4,4.1C438.4,307.2,436.9,306.2,436.9,304.1z M513.1,340.8c0,2.1-3.7,7.2-11.1,15.3
		c-4.9,5.3-9.3,9.5-13.2,12.7c-2.3,1.7-4.1,3.1-5.2,4.4c0.4,1.5,0.6,3.1,0.6,4.9c0,9-3.4,17.3-10.1,24.8c-4.7,5.2-9.8,8.1-15.2,8.9
		c-4.5,0-7.6-1.4-9.3-4.2c-0.7-1.2-1.1-2.6-1.1-4.1c0-2.5,0.9-5.4,2.8-8.7c3.4-5.3,7.4-9.3,12-12.2c1.8-1.1,3.3-2.3,4.6-3.5
		c-0.3-1.2-0.8-3.1-1.7-5.8c-2.7-7.5-4.5-14.9-5.2-22.1c-3,4.3-7.1,10.1-12.4,17.2c-6.7,9.9-12.9,14.9-18.9,14.9
		c-3.3,0-6.8-1.4-10.7-4.2c-4.7-3.7-7-9.8-7-18.4c0-12.4,4.1-24.8,12.2-37.1c2.9-4.4,5.6-6.6,8.2-6.6c0.8,0,1.9,0.2,3.1,0.7
		c2.5,1,3.8,2.5,3.8,4.5c0,1.5-1.8,6.7-5.5,15.5c-6.5,15.8-9.7,27.3-9.7,34.7c0,3.9,1.5,5.9,4.4,5.9c4.9,0,11.6-5.8,20.1-17.4
		l12-16.3c0-0.4,0-0.9,0-1.3c0-2.2,0.1-4.3,0.3-6.5c2.3-18.1,9.4-30.8,21.1-38c4.4-2.5,8.4-3.8,12-3.8c3.4,0,5.9,1.2,7.6,3.5
		c1.1,1.5,1.7,3.6,1.7,6.3c0,8.1-3.2,15.8-9.7,23.2c-5.4,6.3-10.8,10.6-16,13.1v1.8c0,7.9,1,14.5,3,20l2.3,6.3
		c9.2-6.5,18.4-16,27.6-28.6c0.7-0.8,1.3-1.3,1.8-1.3C512.8,339.3,513.1,339.8,513.1,340.8z M477.7,337.6l5.2-4.5
		c9.8-7.5,15.1-15.6,16.2-24.2c0.3-0.7,0.4-1.9,0.4-3.7c0-1.5-0.6-2.9-1.7-4.1c-0.6-0.7-1.3-1-2.3-1c-0.3,0-0.9,0.1-1.8,0.4
		c-0.9,0.2-2.4,2-4.4,5.4c-3.3,5.3-5.8,10.3-7.7,15.1C479.9,325.9,478.5,331.4,477.7,337.6z M470.4,390.6c0-2.9-0.5-6-1.5-9.1
		c-1.2,1.1-2.5,2.2-3.9,3.2l-2.8,2.1c-6.6,5.8-9.8,11-9.8,15.6c0,2.4,0.8,4.3,2.5,5.5c0.7,0.5,1.5,0.7,2.4,0.7c0.8,0,1.8-0.2,3-0.7
		c3.7-1.8,6.6-5.1,8.7-9.8C469.8,395.7,470.3,393.2,470.4,390.6z"/>
	<path d="M672.8,339.3c-0.6,0-1.2,0.4-1.8,1.3c-9.2,12.6-18.4,22.1-27.6,28.6l-2.3-6.3c-2-5.4-3-12.1-3-20V341
		c5.3-2.4,10.6-6.8,16-13.1c6.5-7.4,9.7-15.1,9.7-23.2c0-2.7-0.6-4.8-1.7-6.3c-1.7-2.3-4.2-3.5-7.6-3.5c-3.6,0-7.6,1.3-12,3.8
		c-11.7,7.2-18.8,19.9-21.1,38c-0.2,2.2-0.3,4.3-0.3,6.5c0,0.6,0,1.2,0,1.8c-0.8,1.6-1.8,3.4-2.9,5.6l-13.8,28.4
		c-8,15.4-15.4,23.1-22.2,23.1l-2.1-0.1c-1.4-2.3-2.1-5.2-2.1-8.7c0-10.3,4.7-25.6,14.2-45.7c6.1-13,9.3-20.5,9.7-22.4
		c-1.2-1.9-2.6-2.8-4.1-2.8c-4.9,0-10.8,5.5-17.7,16.6c-2.1,3.3-3.6,6.1-4.6,8.6c-4.4,10.8-7,17.1-7.9,18.9
		c-5.4,7.2-10.6,10.8-15.3,10.8l-1.4-0.1c-0.8-0.9-1.1-2.3-1.1-3.9c0-5.8,4-16.8,12.1-32.9c2.8-5.5,4.2-9.6,4.2-12.1
		c0-3.7-2.4-5.5-7.3-5.5c-4.3,0-8.4,3.2-12.4,9.7c-5.3,9-8,18.2-8,27.7c0,10.2,3.7,16.9,11,20c1.7,0.6,3.3,0.8,4.8,0.8
		c2.8,0,6.1-1.7,9.8-5.2l2.4-2l-0.3,8.6c0,6.7,1.7,12.3,5.1,17c3.4,4.7,6.4,7.1,8.9,7.2h3.9c5.3,0,10.6-4.1,15.6-12.2
		c4.7-6.9,8.9-14.4,12.5-22.2c0.5-1.1,1.5-3.3,3.1-6.5c2.2-4.4,4.3-8.7,6.4-13c0.8,6.8,2.5,13.7,5,20.8c0.8,2.6,1.4,4.5,1.7,5.8
		c-1.3,1.2-2.9,2.4-4.6,3.5c-4.6,2.9-8.6,7-12,12.2c-1.9,3.3-2.8,6.2-2.8,8.7c0,1.5,0.4,2.9,1.1,4.1c1.7,2.8,4.8,4.2,9.3,4.2
		c5.4-0.8,10.5-3.7,15.2-8.9c6.8-7.5,10.1-15.8,10.1-24.8c0-1.8-0.2-3.4-0.6-4.9c1.1-1.2,2.9-2.7,5.2-4.4c3.9-3.2,8.3-7.4,13.2-12.7
		c7.4-8.2,11.1-13.3,11.1-15.3C673.9,339.8,673.6,339.3,672.8,339.3z M642.5,321c1.8-4.8,4.4-9.9,7.7-15.1c2.1-3.4,3.5-5.2,4.4-5.4
		c0.9-0.2,1.5-0.4,1.8-0.4c0.9,0,1.7,0.3,2.3,1c1.1,1.2,1.7,2.6,1.7,4.1c0,1.8-0.1,3-0.4,3.7c-1,8.6-6.4,16.7-16.2,24.2l-5.2,4.5
		C639.3,331.4,640.7,325.9,642.5,321z M629.6,398.1c-2.2,4.8-5.1,8.1-8.7,9.8c-1.1,0.5-2.1,0.7-3,0.7c-0.9,0-1.7-0.2-2.4-0.7
		c-1.7-1.2-2.5-3-2.5-5.5c0-4.6,3.3-9.8,9.8-15.6l2.8-2.1c1.4-1,2.7-2.1,3.9-3.2c1,3.2,1.5,6.2,1.5,9.1
		C631.1,393.2,630.6,395.7,629.6,398.1z"/>
	<path d="M84.6,445.1c-0.9-0.5-1.9-0.8-2.8-0.8c-3.5,0-6.2,2.9-8,8.8c-1.3,4-1.9,8.3-1.9,12.8c0,7.8,1.8,13.2,5.3,16.3
		c1.1,0.7,2.1,1,3.1,1h0.3c1.9-0.2,3.6-1.5,5-4c0.9-1.7,1.8-4.3,2.5-7.8c0.9-4.2,1.4-8.3,1.5-12.6C89.6,451.9,87.9,447.3,84.6,445.1
		z M81,476.5c-0.3,0.6-0.5,0.8-0.8,0.8c-0.4,0-0.9-0.8-1.5-2.5l-0.1-0.6c-0.2-0.7-0.3-1.1-0.3-1.3c0-0.1,0-0.1,0.1-0.1
		c0,0,0.2,0.1,0.4,0.4c0.2,0.2,0.5,0.5,0.9,0.8c0.4,0.3,0.8,0.6,1.3,1c0.3,0.2,0.4,0.4,0.4,0.6C81.3,475.8,81.1,476.1,81,476.5z
		 M82.5,469c-0.9,0-2-1.7-3.3-5c-0.5-1.2-0.8-2.5-0.8-3.7c0-3.1,1-6.2,3.1-9.2c0.2-0.6,0.4-0.8,0.6-0.8c1.2,0,1.8,3.8,1.8,11.4
		C83.9,466.5,83.4,469,82.5,469z M110.6,446.2c0.5,0.5,0.8,1.2,0.9,2.1l-0.3,5.5c-0.3,5.9-0.6,11.3-1,16.3c-0.7,8.2-3,12.3-6.9,12.3
		c-3-0.1-5.3-1.7-6.8-4.7c-1.8-3.5-2.7-8.3-2.7-14.5c0-2.5,0.1-5.5,0.4-8.8c0.3-4.6,1-7.6,1.8-9.1c0.5-0.6,1.1-0.8,1.8-0.8
		c0.3,0,0.7,0.1,1,0.2c0.4,0.1,0.7,0.4,1,0.7c0.3,0.3,0.4,0.6,0.4,1c0,1.1-0.1,3.3-0.4,6.5c-0.3,4.3-0.5,7.3-0.5,9.1
		c0,4.7,0.5,8.5,1.5,11.4c0.6,1.7,1.2,2.6,1.9,2.6l0.4-0.1c1.1-0.7,1.9-7.6,2.6-20.9c0.2-3.8,0.3-6.3,0.3-7.4
		c0.5-1.4,1.4-2.1,2.7-2.1C109.4,445.5,110.1,445.7,110.6,446.2z M130.5,466.5c1.7-1.4,3.1-3.1,4.3-5.1c1.5-2.7,2.3-5.3,2.3-8
		c0-2.4-0.7-4.6-2.2-6.4c-1.1-1.1-2-1.6-2.8-1.7c-0.8-0.1-1.4-0.1-1.6-0.1c-1.1,0-2.3,0.3-3.4,0.9c-0.9,0.7-1.5,1.3-2,1.6
		c-0.4,0.4-0.8,0.7-1,1c-0.2,0.3-0.5,0.7-0.7,1.2c-0.3,0.5-0.7,1.2-1.3,2.1c-0.2-2.2-0.9-3.3-2.2-3.3c-0.9,0-1.6,0.3-2,0.9
		c-0.5,0.7-0.8,1.9-1,3.6c0,0.3,0,0.6-0.1,0.9c-0.6,5.6-0.9,12-0.9,19c0,5.5,0.3,8.7,0.8,9.5c0.5,0.6,1,1,1.3,1c0.4,0,0.6,0,0.7,0
		c0.6,0,1.1-0.2,1.7-0.7c0.5-0.4,0.9-1.1,1.1-2c0.1-0.7,0.2-1.7,0.3-2.8c0.3-3.4,0.6-5.4,0.6-5.8c0.7,1.5,1.8,3.1,3.4,5
		c1.8,2.1,3.5,3.3,5.2,3.6c0.4,0,0.8-0.1,1.1-0.3c0.4-0.2,0.7-0.5,0.9-0.8c0.2-0.3,0.3-0.8,0.3-1.3c-0.3-1.3-1.1-2.7-2.4-4.2
		l-1.7-1.8c-1.4-1.5-2.1-2.5-2.1-2.9C127.2,469.3,128.3,468.3,130.5,466.5z M125.6,463.7c-0.6,0.4-1,0.6-1.3,0.6
		c-0.2,0-0.3-0.2-0.3-0.6c0-0.8,0.4-2.3,1.2-4.7c1.3-3.7,2.6-6.2,3.7-7.6c0.7-0.5,1.3-0.8,1.7-0.8c0.8,0,1.1,0.8,1.1,2.2
		c0,2.3-0.7,4.5-2,6.6C128.7,461.1,127.3,462.5,125.6,463.7z"/>
	<path d="M171.7,479.8c0,1.7-1.2,2.5-3.7,2.5H166c-0.9-0.1-1.7-0.1-2.4-0.1c-1,0-1.9-0.1-2.5-0.3c-1.4-0.2-2.4-1-2.8-2.5
		c-0.4-1.5-0.7-5.9-0.8-13.1c0-12.8,0.7-19.7,2.1-20.8c0.5-0.3,1.1-0.5,2-0.5c0.3,0,0.7,0.3,1.2,0.9c0.5,0.5,0.7,1.5,0.7,2.8
		c-0.3,1.2-0.4,7.2-0.4,18.2c0,5.5,0.1,8.5,0.4,9.1c0.3,0.6,1.3,0.9,3.1,0.9c1.8,0,3.1,0.2,3.9,0.7
		C171.3,477.9,171.7,478.7,171.7,479.8z M184.1,450.3c0.4-0.2,0.7-0.7,0.7-1.5c0-0.7-0.3-1.2-0.8-1.5c-0.8-0.6-2.1-1-4-1
		c-1,0-2.3,0.1-3.9,0.2c-0.6,0.1-0.9,0.1-1.1,0.1c-1.3,0.1-1.9,0.8-1.9,2.2c0,1.2,0.7,1.8,2,2l1.3-0.1c-0.3,1.4-0.4,3.1-0.4,5.3
		c0,0.5,0,0.8-0.1,1.1c-0.1,2.6-0.1,5.2-0.1,7.9c0,6,0.3,10.8,0.8,14.4H176c-0.6,0.1-0.9,0.1-1.1,0.1c-1.3,0.1-1.9,0.8-1.9,2.2
		c0,1.2,0.7,1.8,2,2c2.1-0.2,3.8-0.3,5.3-0.3l2.2,0.1c0.7,0,1.2-0.1,1.7-0.3c0.4-0.2,0.7-0.7,0.7-1.5c0-0.7-0.3-1.2-0.8-1.6
		c-0.5-0.4-1.1-0.6-1.9-0.8c-0.6-4.3-0.9-8.8-0.9-13.5c0-1.2,0.1-5.9,0.3-14.1c0-0.5,0-0.9-0.1-1.3c0.3,0,0.6,0.1,1.1,0.1
		C183.1,450.5,183.7,450.4,184.1,450.3z M198.7,444.8c-2,0-4.1,0.2-6.2,0.6c-1.4,0.4-2.2,1.4-2.5,3c-0.8,4.6-1.1,12.6-1.1,24
		c0,1.6,0,3.2-0.1,4.8c0,0.8,0.1,1.5,0.3,2.2c0.2,0.7,0.5,1.2,0.9,1.6c0.4,0.3,0.9,0.5,1.5,0.5c1.3,0,2.1-0.5,2.6-1.5
		c0.3-0.7,0.5-1.4,0.5-2.1c0-1.7,0-3-0.1-3.7s-0.1-1.5-0.1-2.2c0-1.5,0.2-2.5,0.6-3c0.4-0.3,1.4-0.6,3-0.8c2.2-0.3,3.5-0.7,4.1-1.2
		c0.4-0.3,0.6-0.7,0.6-1.1c0-1.7-1.7-2.5-5.1-2.5c-1.5,0-2.4-0.2-2.7-0.6c-0.3-0.4-0.4-1.6-0.4-3.7c0-1.4,0.1-3.2,0.3-5.5
		c0.2-2.2,0.4-3.4,0.6-3.4c0.2,0,0.4,0,0.6-0.1c0.2,0,0.4,0,0.5-0.1c0.1,0,0.3,0,0.5,0l1.8,0.1c2.2,0.2,3.7,0.3,4.8,0.3
		c1.1,0,1.8-0.2,2.3-0.5c0.4-0.6,0.6-1.2,0.6-1.7C206.4,445.9,203.9,444.8,198.7,444.8z M220.7,475c-0.9,0-1.7,0.4-2.2,1.1
		c-0.6,0.9-1.4,1.3-2.4,1.3c-2.1,0-3.3-1.8-3.5-5.5l-0.1-1.9c0-0.8,0-1.4,0.1-1.9c0.1-0.4,0.5-0.8,1.2-1c0.7-0.2,1.6-0.6,2.6-1.1
		c1.3-0.8,1.9-1.6,1.9-2.4c0-0.5-0.2-0.9-0.5-1.3c-0.5-0.5-1.2-0.8-2.1-0.9c-0.8,0-1.4-0.1-2-0.3c-0.4-0.1-0.6-0.5-0.6-1.3
		c0-1.1,0.1-2.4,0.3-4.1c0.3-2.3,0.8-4,1.6-5c0.7-0.7,2.1-1.1,4.1-1.1c1.9-0.1,3.1-0.4,3.6-1c0.4-0.3,0.6-0.9,0.6-1.7
		c0-2-1.4-3.1-4.2-3.1c-1.7,0-3.3,0.3-5.1,1c-2.2,0.8-3.6,1.8-4.2,2.9c-1.1,2.6-1.9,7.1-2.4,13.3c-0.3,2.8-0.4,5.7-0.4,8.7
		c0,8.9,3,13.4,9,13.4c2.7,0,4.7-0.9,5.9-2.7c0.6-0.9,1-1.9,1-2.9C223,475.9,222.3,475.1,220.7,475z"/>
	<path d="M278.2,445.1c-0.9-0.5-1.9-0.8-2.8-0.8c-3.5,0-6.2,2.9-8,8.8c-1.3,4-1.9,8.3-1.9,12.8c0,7.8,1.8,13.2,5.3,16.3
		c1.1,0.7,2.1,1,3.1,1h0.3c1.9-0.2,3.6-1.5,5-4c0.9-1.7,1.8-4.3,2.5-7.8c0.9-4.2,1.4-8.3,1.5-12.6
		C283.2,451.9,281.5,447.3,278.2,445.1z M274.5,476.5c-0.3,0.6-0.5,0.8-0.8,0.8c-0.4,0-0.9-0.8-1.5-2.5l-0.1-0.6
		c-0.2-0.7-0.3-1.1-0.3-1.3c0-0.1,0-0.1,0.1-0.1s0.2,0.1,0.4,0.4c0.2,0.2,0.5,0.5,0.9,0.8c0.4,0.3,0.8,0.6,1.3,1
		c0.3,0.2,0.4,0.4,0.4,0.6C274.8,475.8,274.7,476.1,274.5,476.5z M276.1,469c-0.9,0-2-1.7-3.3-5c-0.5-1.2-0.8-2.5-0.8-3.7
		c0-3.1,1-6.2,3.1-9.2c0.2-0.6,0.4-0.8,0.6-0.8c1.2,0,1.8,3.8,1.8,11.4C277.5,466.5,277,469,276.1,469z M304.2,446.2
		c0.5,0.5,0.8,1.2,0.9,2.1l-0.3,5.5c-0.3,5.9-0.6,11.3-1,16.3c-0.7,8.2-3,12.3-6.9,12.3c-3-0.1-5.3-1.7-6.8-4.7
		c-1.8-3.5-2.7-8.3-2.7-14.5c0-2.5,0.1-5.5,0.4-8.8c0.3-4.6,1-7.6,1.8-9.1c0.5-0.6,1.1-0.8,1.8-0.8c0.3,0,0.7,0.1,1,0.2
		c0.4,0.1,0.7,0.4,1,0.7c0.3,0.3,0.4,0.6,0.4,1c0,1.1-0.1,3.3-0.4,6.5c-0.3,4.3-0.5,7.3-0.5,9.1c0,4.7,0.5,8.5,1.5,11.4
		c0.6,1.7,1.2,2.6,1.9,2.6l0.4-0.1c1.1-0.7,1.9-7.6,2.6-20.9c0.2-3.8,0.3-6.3,0.3-7.4c0.5-1.4,1.4-2.1,2.7-2.1
		C303,445.5,303.6,445.7,304.2,446.2z M324.1,466.5c1.7-1.4,3.1-3.1,4.3-5.1c1.5-2.7,2.3-5.3,2.3-8c0-2.4-0.7-4.6-2.2-6.4
		c-1.1-1.1-2-1.6-2.8-1.7c-0.8-0.1-1.4-0.1-1.6-0.1c-1.1,0-2.3,0.3-3.4,0.9c-0.9,0.7-1.5,1.3-2,1.6c-0.4,0.4-0.8,0.7-1,1
		c-0.2,0.3-0.5,0.7-0.7,1.2c-0.3,0.5-0.7,1.2-1.3,2.1c-0.2-2.2-0.9-3.3-2.2-3.3c-0.9,0-1.6,0.3-2,0.9c-0.5,0.7-0.8,1.9-1,3.6
		c0,0.3,0,0.6-0.1,0.9c-0.6,5.6-0.9,12-0.9,19c0,5.5,0.3,8.7,0.8,9.5c0.5,0.6,1,1,1.3,1c0.4,0,0.6,0,0.7,0c0.6,0,1.1-0.2,1.7-0.7
		c0.5-0.4,0.9-1.1,1.1-2c0.1-0.7,0.2-1.7,0.3-2.8c0.3-3.4,0.6-5.4,0.6-5.8c0.7,1.5,1.8,3.1,3.4,5c1.8,2.1,3.5,3.3,5.2,3.6
		c0.4,0,0.8-0.1,1.1-0.3c0.4-0.2,0.7-0.5,0.9-0.8c0.2-0.3,0.3-0.8,0.3-1.3c-0.3-1.3-1.1-2.7-2.4-4.2l-1.7-1.8
		c-1.4-1.5-2.1-2.5-2.1-2.9C320.7,469.3,321.9,468.3,324.1,466.5z M319.1,463.7c-0.6,0.4-1,0.6-1.3,0.6c-0.2,0-0.3-0.2-0.3-0.6
		c0-0.8,0.4-2.3,1.2-4.7c1.3-3.7,2.6-6.2,3.7-7.6c0.7-0.5,1.3-0.8,1.7-0.8c0.8,0,1.1,0.8,1.1,2.2c0,2.3-0.7,4.5-2,6.6
		C322.3,461.1,320.9,462.5,319.1,463.7z"/>
	<path d="M365.7,454v2.5c-0.1,2.4-1.2,3.6-3.2,3.6c-1.2,0-1.9-0.6-2.2-1.8c-0.2-0.6-0.3-1.6-0.3-3c0-3.9-0.6-5.8-1.8-5.8
		c-0.2,0-0.4,0.1-0.8,0.3c-0.3,0.2-0.7,0.9-1,2.2c-0.3,1.3-0.5,2.6-0.5,3.8c0,0.9,0.1,1.9,0.4,2.9c0.4,1.3,1.4,3.3,3,5.8
		c2.9,4.4,4.3,7.9,4.3,10.4c0,0.5-0.1,1.2-0.2,2.2c-0.1,0.9-0.8,2.1-1.9,3.4c-1.5,1.7-3.1,2.6-4.9,2.6c-1.3,0-2.5-0.4-3.7-1.3
		c-1.7-1.2-2.5-2.6-2.5-4.3c0-0.9,0.3-1.7,1-2.4c0.6-0.6,1.4-1,2.4-1c0.7,0.1,1.5,0.7,2.4,2c0.5,0.6,1,0.9,1.3,0.9
		c0.3-0.1,0.4-0.5,0.4-1.3c0-0.7-0.1-1.4-0.3-2c-0.4-1.4-1.5-3.4-3.3-6.2c-1.4-2.2-2.3-3.8-2.8-4.9c-0.9-2-1.3-4.2-1.3-6.6
		c0-3,0.7-5.6,2.2-7.8c1.1-1.7,2.7-3.1,4.8-4.1c0.8-0.4,1.6-0.6,2.4-0.6c0.6,0,1.3,0.2,2,0.5C364.4,445.1,365.7,448.5,365.7,454z
		 M380.1,445.1c-2,0-4.1,0.2-6.2,0.5c-4.2,0.7-6.4,2.1-6.4,4c0,0.8,0.3,1.5,1,1.8c0.5,0.3,1,0.4,1.5,0.4c0.4,0,1.2-0.1,2.4-0.4
		c0.6-0.2,1.1-0.3,1.4-0.3c0.4,0,0.6,0.2,0.7,0.6c0,0.4,0,0.8,0,1c0,1.2,0,2.3-0.1,3.3c-0.2,3.6-0.3,6.8-0.3,9.5
		c0.1,2.1,0.2,4.2,0.2,6.4c0,4.6,0.1,7.7,0.4,9.1c0.5,1.3,1.4,2,2.7,2c1.3,0,2.2-0.7,2.7-2c0.1-0.3,0.1-0.7,0.1-1.2
		c0-0.5,0-1-0.1-1.5s-0.1-1-0.1-1.6c0-1.7-0.1-3.5-0.2-5.1c-0.1-1.9-0.2-7.9-0.2-18c0.1-1.6,0.6-2.6,1.6-2.9
		c0.4-0.1,0.9-0.2,1.5-0.2c1.4-0.1,2.4-0.5,3.2-1c0.5-0.4,0.7-0.7,0.7-1v-0.5C386.5,446.1,384.3,445.1,380.1,445.1z M405.2,458.9
		c-0.1,4.2-0.6,8.4-1.5,12.6c-0.8,3.6-1.6,6.2-2.5,7.8c-1.4,2.5-3,3.8-5,4h-0.3c-1,0-2-0.3-3.1-1c-3.6-3-5.3-8.5-5.3-16.3
		c0-4.5,0.6-8.8,1.9-12.8c1.8-5.8,4.5-8.8,8-8.8c0.9,0,1.9,0.3,2.8,0.8C403.5,447.3,405.2,451.9,405.2,458.9z M397,475.5
		c0-0.2-0.1-0.4-0.4-0.6c-0.5-0.3-0.9-0.7-1.3-1c-0.4-0.3-0.7-0.6-0.9-0.8c-0.2-0.2-0.4-0.4-0.4-0.4s-0.1,0-0.1,0.1
		c0,0.2,0.1,0.6,0.3,1.3l0.1,0.6c0.6,1.7,1,2.5,1.5,2.5c0.3,0,0.5-0.3,0.8-0.8C396.8,476.1,396.9,475.8,397,475.5z M399.5,461.6
		c0-7.6-0.6-11.4-1.8-11.4c-0.2,0-0.4,0.3-0.6,0.8c-2,3.1-3.1,6.1-3.1,9.2c0,1.2,0.3,2.5,0.8,3.7c1.3,3.3,2.4,5,3.3,5
		C399,469,399.5,466.5,399.5,461.6z M428.5,447c1.4,1.9,2.2,4,2.2,6.4c0,2.7-0.8,5.3-2.3,8c-1.1,1.9-2.6,3.6-4.3,5.1
		c-2.2,1.8-3.4,2.8-3.4,2.9c0,0.5,0.7,1.4,2.1,2.9l1.7,1.8c1.4,1.5,2.2,2.9,2.4,4.2c0,0.5-0.1,0.9-0.3,1.3c-0.2,0.3-0.5,0.6-0.9,0.8
		c-0.4,0.2-0.8,0.3-1.1,0.3c-1.7-0.3-3.4-1.4-5.2-3.6c-1.6-1.8-2.7-3.5-3.4-5c-0.1,0.5-0.3,2.4-0.6,5.8c-0.1,1.1-0.2,2.1-0.3,2.8
		c-0.2,0.9-0.6,1.6-1.1,2s-1.1,0.7-1.7,0.7c-0.1,0-0.3,0-0.7,0c-0.4,0-0.8-0.3-1.3-1c-0.5-0.8-0.8-4-0.8-9.5c0-7,0.3-13.4,0.9-19
		c0-0.3,0.1-0.6,0.1-0.9c0.1-1.7,0.4-2.8,1-3.6c0.4-0.6,1-0.9,2-0.9c1.3,0,2.1,1.1,2.2,3.3c0.6-0.9,1-1.6,1.3-2.1
		c0.3-0.5,0.5-0.9,0.7-1.2c0.2-0.3,0.6-0.6,1-1c0.4-0.4,1.1-0.9,2-1.6c1.1-0.6,2.2-0.9,3.4-0.9c0.3,0,0.8,0,1.6,0.1
		C426.5,445.4,427.5,446,428.5,447z M425.4,452.7c0-1.4-0.4-2.1-1.1-2.2c-0.4,0-1,0.3-1.7,0.8c-1.2,1.4-2.4,3.9-3.7,7.6
		c-0.8,2.4-1.2,3.9-1.2,4.7c0,0.4,0.1,0.6,0.3,0.6c0.3,0,0.7-0.2,1.3-0.6c1.7-1.1,3.2-2.6,4.3-4.4
		C424.8,457.2,425.4,455,425.4,452.7z M451.4,445.9c-1.1,0-2,0.6-2.5,1.7l-0.4,1.2c-3,10.6-5.7,16.5-8.2,17.7
		c-0.4-0.8-0.6-1.6-0.6-2.5v-1.8c0-2.7,0.5-7.5,1.6-14.5c0.2-0.5,0.3-1.1,0.3-1.7c0-0.5-0.1-0.9-0.3-1.3c-0.2-0.4-0.5-0.7-0.9-1
		c-0.4-0.2-0.8-0.3-1.2-0.3c-0.6,0-1.2,0.2-1.7,0.6c-0.6,0.6-1.3,2.7-2,6.4c-0.9,4.3-1.3,8.4-1.3,12.1c0,6.9,1.8,10.3,5.5,10.3
		c1.9,0,3.8-1,5.7-3.1c0.8-0.8,1.2-1.1,1.5-1.1c0.3,0,0.4,0.5,0.4,1.6c0,1.8-0.1,3.6-0.4,5.5c-0.2,1.3-0.4,2.1-0.6,2.5
		c-0.3,0.3-1,0.5-1.9,0.6c-1.4,0.2-2.4,0.6-2.8,1.1c-0.3,0.3-0.4,0.7-0.4,1.3c0,1.1,0.4,1.9,1.1,2.4s1.7,0.8,2.7,0.8
		c2,0,3.8-0.7,5.3-2.1c0.8-0.8,1.3-1.7,1.6-2.9c0.5-2.4,0.9-6.6,1.1-12.5c0.1-3.9,0.5-8.9,1.1-15.1c0.1-0.8,0.1-1.5,0.1-2.2
		C454.2,447,453.3,445.9,451.4,445.9z"/>
	<path d="M510.3,445.1c-0.9-0.5-1.9-0.8-2.8-0.8c-3.5,0-6.2,2.9-8,8.8c-1.3,4-1.9,8.3-1.9,12.8c0,7.8,1.8,13.2,5.3,16.3
		c1.1,0.7,2.1,1,3.1,1h0.3c1.9-0.2,3.6-1.5,5-4c0.9-1.7,1.8-4.3,2.5-7.8c0.9-4.2,1.4-8.3,1.5-12.6
		C515.3,451.9,513.6,447.3,510.3,445.1z M506.7,476.5c-0.3,0.6-0.5,0.8-0.8,0.8c-0.4,0-0.9-0.8-1.5-2.5l-0.1-0.6
		c-0.2-0.7-0.3-1.1-0.3-1.3c0-0.1,0-0.1,0.1-0.1s0.2,0.1,0.4,0.4c0.2,0.2,0.5,0.5,0.9,0.8c0.4,0.3,0.8,0.6,1.3,1
		c0.3,0.2,0.4,0.4,0.4,0.6C507,475.8,506.8,476.1,506.7,476.5z M508.2,469c-0.9,0-2-1.7-3.3-5c-0.5-1.2-0.8-2.5-0.8-3.7
		c0-3.1,1-6.2,3.1-9.2c0.2-0.6,0.4-0.8,0.6-0.8c1.2,0,1.8,3.8,1.8,11.4C509.6,466.5,509.1,469,508.2,469z M536.3,446.2
		c0.5,0.5,0.8,1.2,0.9,2.1l-0.3,5.5c-0.3,5.9-0.6,11.3-1,16.3c-0.7,8.2-3,12.3-6.9,12.3c-3-0.1-5.3-1.7-6.8-4.7
		c-1.8-3.5-2.7-8.3-2.7-14.5c0-2.5,0.1-5.5,0.4-8.8c0.3-4.6,1-7.6,1.8-9.1c0.5-0.6,1.1-0.8,1.8-0.8c0.3,0,0.7,0.1,1,0.2
		c0.4,0.1,0.7,0.4,1,0.7c0.3,0.3,0.4,0.6,0.4,1c0,1.1-0.1,3.3-0.4,6.5c-0.3,4.3-0.5,7.3-0.5,9.1c0,4.7,0.5,8.5,1.5,11.4
		c0.6,1.7,1.2,2.6,1.9,2.6l0.4-0.1c1.1-0.7,1.9-7.6,2.6-20.9c0.2-3.8,0.3-6.3,0.3-7.4c0.5-1.4,1.4-2.1,2.7-2.1
		C535.1,445.5,535.8,445.7,536.3,446.2z M556.2,466.5c1.7-1.4,3.1-3.1,4.3-5.1c1.5-2.7,2.3-5.3,2.3-8c0-2.4-0.7-4.6-2.2-6.4
		c-1.1-1.1-2-1.6-2.8-1.7c-0.8-0.1-1.4-0.1-1.6-0.1c-1.1,0-2.3,0.3-3.4,0.9c-0.9,0.7-1.5,1.3-2,1.6c-0.4,0.4-0.8,0.7-1,1
		c-0.2,0.3-0.5,0.7-0.7,1.2c-0.3,0.5-0.7,1.2-1.3,2.1c-0.2-2.2-0.9-3.3-2.2-3.3c-0.9,0-1.6,0.3-2,0.9c-0.5,0.7-0.8,1.9-1,3.6
		c0,0.3,0,0.6-0.1,0.9c-0.6,5.6-0.9,12-0.9,19c0,5.5,0.3,8.7,0.8,9.5c0.5,0.6,1,1,1.3,1c0.4,0,0.6,0,0.7,0c0.6,0,1.1-0.2,1.7-0.7
		c0.5-0.4,0.9-1.1,1.1-2c0.1-0.7,0.2-1.7,0.3-2.8c0.3-3.4,0.6-5.4,0.6-5.8c0.7,1.5,1.8,3.1,3.4,5c1.8,2.1,3.5,3.3,5.2,3.6
		c0.4,0,0.8-0.1,1.1-0.3c0.4-0.2,0.7-0.5,0.9-0.8c0.2-0.3,0.3-0.8,0.3-1.3c-0.3-1.3-1.1-2.7-2.4-4.2l-1.7-1.8
		c-1.4-1.5-2.1-2.5-2.1-2.9C552.9,469.3,554,468.3,556.2,466.5z M551.3,463.7c-0.6,0.4-1,0.6-1.3,0.6c-0.2,0-0.3-0.2-0.3-0.6
		c0-0.8,0.4-2.3,1.2-4.7c1.3-3.7,2.6-6.2,3.7-7.6c0.7-0.5,1.3-0.8,1.7-0.8c0.8,0,1.1,0.8,1.1,2.2c0,2.3-0.7,4.5-2,6.6
		C554.4,461.1,553,462.5,551.3,463.7z"/>
	<path d="M600,446.8c0.3,0.6,0.5,1.1,0.5,1.6c0,0.3,0,0.8-0.1,1.6c-0.1,0.7-0.4,3-0.7,6.9c-0.4,4.3-0.6,9-0.6,14.2
		c0,1.6,0,3.1,0.1,4.5c0.1,1.1,0.1,2.1,0.2,3.2c0,0.8-0.3,1.4-0.8,1.8c-0.5,0.4-1.1,0.6-1.8,0.6c-1.3,0-2.2-0.6-2.9-1.7
		c-0.6-1.4-0.8-3.8-0.8-7.2c0-2.5-0.1-4.1-0.4-4.8c-0.3-0.5-0.8-0.7-1.5-0.7c-0.6,0-1.2,0.2-1.6,0.5c-0.4,0.4-0.6,1.5-0.6,3.4
		c0,3.1,0.1,5.5,0.3,7.1v1.7c-0.1,1.2-1,1.8-2.7,2c-0.2,0-0.5-0.1-1-0.3c-1.1-0.5-1.9-1.7-2.2-3.7c-0.2-1-0.3-3.9-0.3-8.7
		c0.1-11.1,0.7-18,1.6-20.8c0.6-1.5,1.5-2.2,2.7-2.2c1.8,0,2.7,1,2.7,2.9c0,0.8-0.1,2.6-0.4,5.6c-0.2,1.7-0.3,3.1-0.3,4.2
		c0,0.9,0.1,1.7,0.3,2.2c0.3,0.8,0.9,1.1,2,1.1c1.2,0,1.9-1.2,2.1-3.5c0.4-4.4,1-7.8,2-10.3c0.7-1.4,1.6-2.2,2.7-2.2h0.6
		C599.3,446,599.7,446.3,600,446.8z M622,458.9c-0.1,4.2-0.6,8.4-1.5,12.6c-0.8,3.6-1.6,6.2-2.5,7.8c-1.4,2.5-3,3.8-5,4h-0.3
		c-1,0-2-0.3-3.1-1c-3.6-3-5.3-8.5-5.3-16.3c0-4.5,0.6-8.8,1.9-12.8c1.8-5.8,4.5-8.8,8-8.8c0.9,0,1.9,0.3,2.8,0.8
		C620.3,447.3,622,451.9,622,458.9z M613.7,475.5c0-0.2-0.1-0.4-0.4-0.6c-0.5-0.3-0.9-0.7-1.3-1c-0.4-0.3-0.7-0.6-0.9-0.8
		c-0.2-0.2-0.4-0.4-0.4-0.4c0,0-0.1,0-0.1,0.1c0,0.2,0.1,0.6,0.3,1.3l0.1,0.6c0.6,1.7,1,2.5,1.5,2.5c0.3,0,0.5-0.3,0.8-0.8
		C613.5,476.1,613.6,475.8,613.7,475.5z M616.3,461.6c0-7.6-0.6-11.4-1.8-11.4c-0.2,0-0.4,0.3-0.6,0.8c-2,3.1-3.1,6.1-3.1,9.2
		c0,1.2,0.3,2.5,0.8,3.7c1.3,3.3,2.4,5,3.3,5C615.8,469,616.3,466.5,616.3,461.6z M647.6,445.6c-2.8,0-5.7,4.6-8.8,13.7
		c-0.2,0.5-0.3,0.8-0.4,0.8s-0.3-0.7-0.4-2c-0.7-3.5-1.2-5.9-1.6-7.3c-0.8-3.2-2.1-4.8-3.8-4.8c-3.4,0-5.6,7-6.5,20.9
		c-0.3,2.4-0.4,4.3-0.4,5.7l0.1,4.8l-0.1,1.3c0,2.1,0.8,3.2,2.4,3.4c1.7-0.2,2.6-1.1,2.8-2.8c0.1-0.7,0.1-1.6,0.1-2.5
		c0-2.1,0.3-6.3,1-12.7v-1.8c0-2.1,0.1-3.2,0.2-3.2c0.1,0,0.4,0.9,0.9,2.8c0.3,2.4,0.6,4.2,1,5.6c0.8,3.1,2.2,4.7,4.1,4.7
		c1.2,0,2.2-0.6,3-1.8c0.9-1.5,1.7-3.7,2.4-6.8c0.7-2.8,1.3-4.5,2-5.1c0,0,0.1,0.2,0.1,0.6c-0.3,2.3-0.5,7.3-0.5,14.9v5
		c0,3,1,4.6,3,4.6c1.7,0,2.6-1.4,2.6-4.1c0-0.5,0-1-0.1-1.6c0-0.5-0.1-1.6-0.1-3.2c0-3.6,0.1-7.8,0.3-12.6c0.3-3.3,0.4-6.2,0.4-8.7
		C651,448.2,649.9,445.6,647.6,445.6z M669.5,475c-0.9,0-1.7,0.4-2.2,1.1c-0.6,0.9-1.4,1.3-2.4,1.3c-2.1,0-3.3-1.8-3.5-5.5l-0.1-1.9
		c0-0.8,0-1.4,0.1-1.9c0.1-0.4,0.5-0.8,1.2-1c0.7-0.2,1.6-0.6,2.6-1.1c1.3-0.8,1.9-1.6,1.9-2.4c0-0.5-0.2-0.9-0.5-1.3
		c-0.5-0.5-1.2-0.8-2.1-0.9c-0.8,0-1.4-0.1-2-0.3c-0.4-0.1-0.6-0.5-0.6-1.3c0-1.1,0.1-2.4,0.3-4.1c0.3-2.3,0.8-4,1.6-5
		c0.7-0.7,2.1-1.1,4.1-1.1c1.9-0.1,3.1-0.4,3.6-1c0.4-0.3,0.6-0.9,0.6-1.7c0-2-1.4-3.1-4.2-3.1c-1.7,0-3.3,0.3-5.1,1
		c-2.2,0.8-3.6,1.8-4.2,2.9c-1.1,2.6-1.9,7.1-2.4,13.3c-0.3,2.8-0.4,5.7-0.4,8.7c0,8.9,3,13.4,9,13.4c2.7,0,4.7-0.9,5.9-2.7
		c0.6-0.9,1-1.9,1-2.9C671.8,475.9,671,475.1,669.5,475z"/>
	<path d="M254.5,458.1c0.1,1.2-0.2,2.4-0.7,3.6c-0.2,0.5-0.5,1.1-0.8,1.6c-2.3,3.5-4.7,7-7.5,10.1c-0.4,0.4-0.7,0.8-1.1,1.1
		c-0.8,0.6-1.5,0.5-2.1-0.3c-0.3-0.4-0.5-0.7-0.9-1c-2.7-2.7-5.3-5.4-6.9-8.9c-0.9-2-1.6-4-1.5-6.2c0-0.5,0.1-1,0.2-1.4
		c0.6-2.1,2.5-2.8,4.3-1.6c1.2,0.8,2.2,1.9,3,3.1c0.6,0.9,1.1,1.9,1.6,2.8c0.1,0.2,0.3,0.5,0.5,0.9c0.3-0.5,0.5-0.8,0.7-1.1
		c0.9-1.6,1.9-3.1,3.3-4.3c0.8-0.6,1.7-1.3,2.6-1.7C251.9,453.5,254.3,455.1,254.5,458.1z M481.1,454.8c-0.9,0.4-1.8,1-2.6,1.7
		c-1.4,1.2-2.4,2.7-3.3,4.3c-0.2,0.3-0.4,0.7-0.7,1.1c-0.3-0.4-0.4-0.7-0.5-0.9c-0.5-0.9-1-1.9-1.6-2.8c-0.8-1.2-1.8-2.3-3-3.1
		c-1.8-1.2-3.7-0.5-4.3,1.6c-0.1,0.5-0.2,0.9-0.2,1.4c-0.1,2.2,0.6,4.2,1.5,6.2c1.6,3.5,4.2,6.2,6.9,8.9c0.3,0.3,0.6,0.6,0.9,1
		c0.6,0.8,1.3,0.9,2.1,0.3c0.4-0.3,0.8-0.7,1.1-1.1c2.9-3.1,5.2-6.6,7.5-10.1c0.3-0.5,0.6-1,0.8-1.6c0.5-1.1,0.8-2.3,0.7-3.6
		C486.2,455.1,483.8,453.5,481.1,454.8z"/>
</g>
</svg>
