<?xml version="1.0" encoding="utf-8"?>
<!-- Generator: Adobe Illustrator 18.0.0, SVG Export Plug-In . SVG Version: 6.00 Build 0)  -->
<!DOCTYPE svg PUBLIC "-//W3C//DTD SVG 1.1//EN" "http://www.w3.org/Graphics/SVG/1.1/DTD/svg11.dtd">
<svg version="1.1" id="Layer_1" xmlns="http://www.w3.org/2000/svg" xmlns:xlink="http://www.w3.org/1999/xlink" x="0px" y="0px"
	 viewBox="0 0 720 720" style="enable-background:new 0 0 720 720;" xml:space="preserve">
<g>
	<path d="M119.7,271.1c-21.1,1.3-38.4,4.3-51.7,9.1c-10.6,3.8-17.6,8.9-21.2,15.2c-2.2,3.9-3.3,7.2-3.3,9.8c0,0.7,0.1,1.3,0.2,1.9
		c0.1,0.6,0.2,1.1,0.2,1.5c0,1.8-0.7,2.8-2.1,2.8c-1.3,0-2.2-1-2.8-2.9c-0.4-1.1-0.6-2.3-0.6-3.5c0-3,1.1-6.3,3.2-9.8
		C46,287.8,54,282,65.7,277.8c6.3-2.3,14.2-4.4,23.9-6.5c8.1-1.7,22.7-3.1,43.6-4.4c13.9-0.8,29.2-1.2,45.9-1.2
		c29.6,0,45.3,0.7,47.1,2.1c1.1,0.9,1.6,1.9,1.6,3.1c0,1.1-0.9,1.8-2.8,1.9c-0.8,0-1.8-0.1-2.9-0.2c-18.6-1.6-41.1-2.4-67.7-2.4
		C141.4,270.2,129.9,270.5,119.7,271.1z M681.6,345.6c0,2.5-0.9,3.7-2.6,3.7c-0.7-0.1-1.2-0.3-1.5-0.8c-0.3-0.5-0.6-1.4-0.7-2.7
		c-0.2-3-2.4-6.5-6.4-10.3c-5-4.8-13.1-7.1-24.3-7.1c-6.4,0-13.6,0.7-21.6,2.2c-8,1.5-16.3,3.4-24.9,5.9c-8.6,2.5-18.4,5.4-29.4,8.9
		c-6.2,2-12.1,3.8-17.7,5.4c-5.6,1.7-10.7,3-15.3,4.1c-4.6,1.1-8.8,1.6-12.4,1.7c-3.3,0-6.3-0.8-8.8-2.5l-0.7,1.6
		c-4.8,11.3-8,18.6-9.5,21.7c-2.1,4.6-4.3,8.9-6.7,12.9c-4.1,6.8-8.6,10.2-13.5,10.2c-0.9,0-2.2-0.2-3.9-0.6c-1.7-0.4-3.4-1.8-5-4
		c-2.6-4.2-3.8-8.9-3.8-13.9c0-5.4,1.6-13.4,4.8-24.1c0.4-1.5,1-3.2,1.8-5.1c0.8-1.9,1.2-3.1,1.2-3.5c-2,0-3.9-0.2-5.8-0.7
		c-0.1,0.3-0.3,0.5-0.4,0.8c-3.2,5.9-7.5,12.4-12.9,19.6s-10.8,12.1-16.1,14.7c-2,0.8-3.8,1.1-5.7,1.1c-2.6,0-5.3-1-8.3-3.1
		c-2.9-2-5.2-5.4-6.8-10.1c-0.5-1.8-0.8-3.6-0.9-5.5c-3.6,7.2-7.2,13.2-10.7,18c-3.9,5.4-8.3,9-13.1,10.9c-1.4,0.4-2.7,0.6-4,0.6
		c-5.6,0-9.3-2.7-11.2-8.1c-0.7-2.3-1-4.8-1-7.5c0-7.8,3.3-18.1,9.8-30.9c1.7-3.5,3.1-6.7,4.4-9.6c1.3-2.9,2-5.4,2.2-7.5
		c-7,3.8-13,9.6-17.9,17.2c-4.9,7.6-9.1,15.3-12.4,23.1c-1.3,3.6-2.9,5.4-4.8,5.4c-0.8,0-1.8-0.2-2.8-0.7c-1.6-1-2.4-3.8-2.4-8.4
		c0-0.4,0-0.8,0-1.1c-1.6,3.7-3.3,7.3-5,10.9c-6.5,14.4-13.4,21.6-20.8,21.6c-5.4,0-9.4-2.3-12-6.8c-3.1-5.3-4.6-12.1-4.6-20.4
		c0-3.9,0.5-8.9,1.6-15c-2.3,3.5-4.9,7.2-7.9,11.1c-5.4,7.2-10.8,12.1-16.1,14.7c-2,0.8-3.8,1.1-5.7,1.1c-2.6,0-5.3-1-8.3-3.1
		c-2.9-2-5.2-5.4-6.8-10.1c-0.6-2-0.9-4.1-0.9-6.3c0-2.3,0.4-5.2,1.3-8.6c-2.7,3.3-5.2,6.1-7.3,8.2c-3.3,3.4-7.4,7.3-12.3,11.7
		c-2.9,2.6-4.9,4.5-5.8,5.6c-0.9,1.1-1.6,2.7-2.1,4.8c-0.2,1.2-0.9,4-2.3,8.3c-3.2,11.1-6.6,21.2-10.4,30.4
		c-3.8,9.2-8.8,17-15.2,23.5c-5.1,5.1-9.9,7.6-14.5,7.6c-7-0.8-10.5-5-10.5-12.4c0-2.3,0.5-4.8,1.4-7.2c2-5.7,5.2-11.1,9.4-16.1
		c8.6-11.4,17.6-21,27-28.7c1.8-1.5,2.9-2.9,3.4-4.3c0.5-1.4,1.1-3.8,2-7.2c1.8-6.6,2.8-11.5,3.1-14.6c-0.5,0.5-1.1,1.5-2,2.8
		c-5.1,7.8-9.8,11.8-13.9,11.8c-1.5,0-3.1-0.6-4.8-1.7c-4.4-3.5-6.6-7.6-6.6-12.4c0-5.9,1.4-11.9,4.1-18c-7.6,4.1-14.5,6.2-20.5,6.2
		H196c-4.5,13.6-12,20.9-22.4,21.8c-4.9,0-8.6-1.9-11.1-5.8c-0.6-1-1.1-2-1.4-3.2c-10.4,20.3-18.3,33.8-23.6,40.6
		c-6.2,8.4-12.3,12.6-18.4,12.6c-1.2,0-2.5-0.1-3.8-0.3c-10-2.3-14.9-11.2-14.9-26.9c0.5-17.3,3.4-35.4,8.5-54.5
		c5.2-19,10.1-32.6,14.8-40.6c8.4-16.7,15.1-25,20.3-25c1,0,1.7,0.4,2.3,1.1c0.3,0.4,0.5,0.9,0.5,1.6c0,1.3-0.6,3.1-1.8,5.5
		c-6.6,11.7-10.9,19.8-12.7,24.4c-12.6,31.4-19.9,59.5-22,84.3c-0.2,2.1-0.3,4.2-0.3,6.2c0,5,0.8,9.4,2.3,13.4
		c2,3.9,4.5,5.9,7.7,5.9c0.8,0,2.5-0.4,5.1-1.1c4.4-1.2,12-11.5,22.7-30.9c4.9-8.9,9.2-16.7,12.9-23.5c0.5-5.9,2.9-11,7.3-15.4
		c0.6-0.5,1.2-0.9,1.8-1.2c0.6-0.3,1-0.6,1.4-1c-0.3-0.6-0.7-1.2-1.1-1.9c-1.7-2.6-2.5-5.1-2.5-7.6c0-1.3,0.2-2.7,0.6-4.3
		c1.6-5.1,4.7-8.9,9.4-11.4c2.3-1.1,4.5-1.6,6.7-1.6c4.8,0,8.7,2.1,11.8,6.3c2.8,3.9,4.2,9,4.2,15.2c0,4.7-0.9,9.4-2.6,14.3
		c3.5,0,6.7-0.5,9.7-1.4c3-0.9,7.1-2.8,12.3-5.6c0.1-0.1,0.2-0.1,0.3-0.1c1-1.8,2-3.6,3.2-5.4c2.9-4.5,6.2-8.1,10-10.9
		c2.8-2,5.6-3.1,8.5-3.1c1,0,2,0.1,2.9,0.3c2.6,0.8,4.4,1.9,5.2,3.2c0.8,1.3,1.4,3,1.7,4.9l0.7,3.2l0.8-1.4
		c3.5-6.6,7.1-9.8,10.5-9.8c1.7,0,3.4,0.9,5.2,2.6c-0.1,1.4-1.3,4-3.6,7.8c-0.9,1.4-1.6,2.6-2,3.6c-7.2,15.2-11.4,27.4-12.6,36.5
		c6-4.4,15.2-13.9,27.7-28.6c0.1-0.1,0.2-0.2,0.3-0.3c4.1-9.8,10.3-17.7,18.5-23.5c3.8-2.4,6.9-3.6,9.3-3.6c0.1,0,0.7,0,2,0.1
		c1.2,0,2.2,1,3,2.8c0.5,1.3,0.7,2.6,0.7,4.1c0,2.7-1.1,6.1-3.2,10.1c-2.1,4-5.2,8-9.4,11.9c-4.1,3.9-7.9,6.3-11.2,7.1
		c-0.7,1.8-1.2,3.4-1.5,4.9c-1.2,4.8-1.8,8.8-1.8,11.8c0,2.6,0.7,4.5,2,5.8c0.7,0.7,1.6,1,2.8,1c1.2,0,2.7-0.3,4.5-1
		c5-2.4,10.1-6.8,15.4-13.1c4.6-5.5,8.4-10.8,11.4-15.8c4-19.7,8.7-36,14.2-49.1l-13.2,5.3c-8.6,3.3-15.8,5-21.7,5
		c-3.5,0-6.1-1.2-7.7-3.5c-0.5-0.8-0.7-1.7-0.7-2.7c0-1.4,0.5-2.1,1.5-2.1c0.8,0,1.5,0.6,2.2,1.8c1,2.2,3.5,3.3,7.6,3.3
		s11.1-2,21.2-6l12.7-5.2c1.8-4.1,3.1-7.1,3.7-8.9c2.9-6.4,4.6-9.9,5.1-10.5c1.8-3.6,3.7-5.4,5.5-5.4c2.6,0,3.8,1.7,3.8,5.1
		c0,2.5-0.2,4.5-0.6,6c-0.3,1.2-1.2,3.9-2.8,8.1l2.4-0.8c8.1-2.2,16.6-3.5,25.5-4c1.7,0,3.5,0.1,5.7,0.3c4.3,0.4,8,1.1,11,2
		c8.6-11.5,17.3-19.8,26.1-24.8c3.3-1.9,6.2-2.8,8.6-2.8c2,0,3.4,0.9,4.3,2.7c0.5,1,0.7,2,0.7,3.2c0,2.5-1.1,5.7-3.3,9.6
		c-2.2,3.9-5.1,8-8.7,12.3c-9.8,11.7-22.3,24-37.3,37c-2.1,1.4-3.8,3.4-5.1,5.9c-2.4,4.1-5,9.7-7.8,16.7c-2.3,5.8-4,10.9-4.9,15.4
		c0.5-0.5,2.5-3.9,6.1-10.3c2.9-4.5,6.4-9.1,10.6-13.6c4.2-4.6,8.5-8.1,13-10.7c1.4-0.8,2.9-1.1,4.4-1.1c0.7,0,1.7,0.2,3.2,0.6
		c2.2,0.5,3.3,2.8,3.3,7.1c0,1.3-0.2,2.9-0.6,4.9c-0.7,3.2-2.8,8.8-6.3,16.7c-3.2,7.7-5.5,13.5-6.7,17.4c-1.5,5.1-2.3,9.2-2.3,12.3
		c0,3.7,1.1,5.5,3.2,5.5c0.5,0,1.1-0.1,1.7-0.2c3.6-1.4,6.7-3.5,9.3-6.6c5.6-6.5,11.7-16.6,18.1-30.4c0,0,0,0,0-0.1
		c3.8-13.6,10.9-24.1,21.3-31.5c3.8-2.4,6.9-3.6,9.3-3.6c0.1,0,0.7,0,2,0.1c1.2,0,2.2,1,3,2.8c0.5,1.3,0.7,2.6,0.7,4.1
		c0,2.7-1.1,6.1-3.2,10.1c-2.1,4-5.2,8-9.4,11.9c-4.1,3.9-7.9,6.3-11.2,7.1c-0.7,1.8-1.2,3.4-1.5,4.9c-1.2,4.8-1.8,8.8-1.8,11.8
		c0,2.6,0.7,4.5,2,5.8c0.7,0.7,1.6,1,2.8,1c1.2,0,2.7-0.3,4.5-1c5-2.4,10.1-6.8,15.4-13.1s9.5-12.3,12.6-17.9c0,0,0,0,0,0
		c-0.8-0.3-1.5-0.6-2.3-1c-3.5-2.3-5.2-6.2-5.2-11.5c0-1.2,0.1-2.6,0.2-4.1c0.2-2.3,1-4.9,2.6-7.8c2.9-5.7,6.5-8.9,11-9.4
		c2.1,0,3.8,1,5,2.9c0.8,1.4,1.2,3.1,1.2,5.1c0,0.8-0.1,1.7-0.2,2.5c-1.5,6.6-4.4,13.3-8.8,20.2c0.1,0.2,0.2,0.5,0.2,0.9
		c1.2,0.7,3,1,5.6,1c3.1,0,5.8-0.2,8.1-0.7c1.5-0.2,2.8-0.3,4-0.3c1.4,0.1,2.2,0.8,2.2,2c0,1.1-0.5,2.6-1.5,4.8
		c-2.7,5.5-5.2,11.5-7.6,17.9c-2.3,6.4-3.5,12.8-3.5,19.2c0,5,1.1,7.5,3.4,7.5c1.1,0,2.4-0.5,4-1.4c5.3-4.2,13.1-18.6,23.4-43
		c-2.1-2.2-3.2-4.7-3.2-7.6c0-2.9,0.9-5.3,2.6-7.2c1.5-1.7,3.1-2.6,4.9-2.6c1.1,0,2,0.4,2.7,1.1c0.8,0.8,1.1,1.7,1.1,2.7
		c0,1.4-0.5,3.4-1.5,6c-0.8,2-1.1,3.4-1.1,4.2c0,2.2,1.5,3.3,4.5,3.3c7,0,23.8-4,50.2-12c15.8-4.8,28.4-8.2,37.9-10.3
		c12.8-2.9,24-4.3,33.4-4.3c15.5,0,26.3,3.7,32.4,11C680.4,339.8,681.6,342.7,681.6,345.6z M438.6,353.4c5.6-2.6,10.5-6.9,14.7-13
		c3.5-5.2,5.2-10,5.2-14.4c0-0.8,0-1.6-0.1-2.4c-2.5,0.8-6.4,5.6-11.7,14.4C441.7,346.4,439,351.5,438.6,353.4z M288.4,353.4
		c5.6-2.6,10.5-6.9,14.7-13c3.5-5.2,5.2-10,5.2-14.4c0-0.8,0-1.6-0.1-2.4c-2.5,0.8-6.4,5.6-11.7,14.4
		C291.5,346.4,288.8,351.5,288.4,353.4z M193.2,354.8c-0.7,0-1.4-0.1-2.2-0.2c-4.9-0.8-8.9-2.3-12-4.8c-0.8,1-1.9,2.8-3.3,5.3
		c-2.9,5.5-4.3,10-4.3,13.6c0,3.2,1.3,4.8,4,4.8c2.8,0,5.8-1.7,9.2-5.1C187.6,365,190.4,360.5,193.2,354.8z M197.1,337.6
		c0-5.6-1.2-10.1-3.6-13.7c-1.9-2.6-3.8-4-5.8-4c-1.7,0-3.8,1.1-6.1,3.2c-2.8,2.6-4.2,5.9-4.2,10.1c0,1.6,0.2,3.3,0.6,5.1
		c1.9,7.1,6.5,11.4,13.8,13c0.9,0.2,1.8,0.4,2.7,0.5C196.2,346.9,197.1,342.2,197.1,337.6z M233.5,396.3c-1.6,0.6-4.6,3.3-9.2,8
		c-4.5,4.7-9.1,10-13.8,15.7c-4.7,5.8-8,10.5-9.8,14.2c-1.2,2.5-2.2,5.6-2.8,9.4c-0.2,1-0.2,1.9-0.2,2.8c0,2.4,0.8,4.4,2.3,6
		c0.9,0.6,1.8,0.9,2.8,0.9c2.3,0,4.9-1.4,7.8-4.1c3.2-2.9,6-6.6,8.5-11.3c1.7-3.2,4.2-9.2,7.4-18.1
		C231,407.2,233.4,399.3,233.5,396.3z M248.8,336.1c0-2.1-0.7-4.1-2.1-6c-2.6,1.7-5.2,4.8-7.7,9.2c-1.7,2.9-4.2,7.8-7.7,14.7
		c-5,9.1-7.5,15.6-7.5,19.4l0.1,1.4c3.2-0.7,7.7-4.7,13.4-12.1c2.2-2.8,3.8-5.1,4.8-6.8c0.5-0.9,1.1-1.8,1.8-2.6
		c0.7-0.8,1.3-1.8,1.8-2.8c0.5-1,0.9-1.8,1.2-2.3C247.7,346.7,248.4,342.7,248.8,336.1z M403.4,292.4c1,0.9,1.7,1.9,2.2,3l-0.1,0.2
		c0.1,0.3,0.2,0.6,0.2,0.9c0,1.1-0.5,1.8-1.6,2.1c-0.8-0.1-1.7-0.7-2.6-1.9c-0.2-0.2-0.4-0.3-0.6-0.5c-2.5,4-4.7,7.7-6.6,11.1
		c-3.4,5.5-6.1,10.3-8.1,14.5c0.3-0.2,2.3-1.8,5.9-5c3.7-3.2,8.1-7.3,13.2-12.3c5.1-5,10-10.2,14.7-15.6c4.7-5.4,8.2-10.4,10.5-15
		c1.4-2.5,2-4.7,2-6.6c0-1.5-0.5-2.8-1.4-4c-3.8,0.7-8.1,3.7-12.9,9.1c-4.8,5.4-9.2,11.2-13.4,17.6
		C404.4,290.8,403.9,291.6,403.4,292.4z M359.6,359c1.6-4.3,3-7.8,4.2-10.5c2.4-7,6-15.3,10.9-25.1c5.5-11.1,11.8-21.6,19-31.8
		c-2.7-1.2-5.7-1.9-8.8-2.2c-1.9-0.2-3.8-0.2-5.8-0.2c-10,0-19.7,1.8-29,5.3l-5.2,13.1c-4,10-7.2,19.5-9.6,28.6
		c-4.1,15-6.1,28-6.1,38.9c0,13,2,19.6,6.1,19.6c1.4,0,3-0.8,5-2.4c2.7-2.5,5.2-5.6,7.4-9.3c3.4-5.7,5.1-8.9,5.1-9.4
		C355.2,368.9,357.5,363.9,359.6,359z M471.3,337.2c0,2,0.7,3.8,2,5.4l1-1.8c4.8-8.2,7.2-14.2,7.2-18c-0.2-3.5-1.2-5.3-2.8-5.3
		c-0.2,0-0.9,0.1-2.1,0.4c-1.2,0.3-2.5,2.2-3.9,5.8C471.8,326.9,471.3,331.4,471.3,337.2z"/>
	<path d="M298.1,422.6c0.2,0.2,0.3,0.5,0.3,1s-0.1,0.8-0.3,1c-1.3,0.1-2.3,0.4-2.9,1.1s-1.2,1.6-1.8,2.9l-7.2,17.4
		c-0.3,0.8-0.7,1.1-1.3,1.1c-0.6,0-1-0.4-1.3-1.1l-5.7-13.6l-5.6,13.5c-0.4,0.8-0.8,1.2-1.3,1.2c-0.6,0-1-0.4-1.3-1.1l-7.2-17.7
		c-0.6-1.4-1.1-2.4-1.7-2.8s-1.4-0.7-2.7-0.8c-0.2-0.2-0.3-0.5-0.3-1c0-0.5,0.1-0.8,0.3-1c1.9,0.1,3.5,0.1,4.8,0.1
		c1.1,0,3,0,5.7-0.1c0.2,0.2,0.3,0.5,0.3,1s-0.1,0.8-0.3,1c-1.3,0.1-2,0.4-2.2,0.9c-0.2,0.5,0,1.5,0.6,2.8l4.4,11.3
		c0.3,0.6,0.4,1,0.6,1.1s0.3,0.1,0.4,0c0.1-0.2,0.3-0.6,0.6-1.2l3.9-9.7l-0.3-0.9c-0.1-0.1-0.1-0.3-0.2-0.5
		c-0.3-0.7-0.5-1.2-0.6-1.5s-0.4-0.7-0.7-1.1c-0.3-0.4-0.7-0.7-1.1-0.8c-0.4-0.2-1-0.3-1.6-0.3c-0.1-0.2-0.2-0.5-0.2-1
		c0-0.5,0.1-0.8,0.2-1c2.7,0.1,4.3,0.1,4.8,0.1c1,0,2.8,0,5.5-0.1c0.1,0.2,0.2,0.5,0.2,1s-0.1,0.8-0.2,1c-1.4,0.1-2.3,0.4-2.5,0.8
		c-0.2,0.4-0.1,1.3,0.5,2.6l4.8,12c0.3,0.6,0.4,1,0.5,1c0.1,0,0.2-0.1,0.3-0.4c0,0,0.1-0.3,0.4-0.9l4.6-11.4
		c0.2-0.5,0.3-0.9,0.4-1.1c0.1-0.3,0.1-0.6,0.1-0.9s-0.1-0.6-0.3-0.8c-0.2-0.2-0.6-0.4-1-0.5c-0.5-0.2-1.1-0.3-2-0.3
		c-0.2-0.2-0.3-0.5-0.3-1c0-0.5,0.1-0.8,0.3-1c2.7,0.1,4.6,0.1,5.7,0.1C295,422.7,296.3,422.7,298.1,422.6z M320.9,442.1
		c-2.5,3.2-5.6,4.8-9.4,4.8c-3.7,0-6.5-1.2-8.5-3.5c-1.7-2-2.6-4.7-2.6-8.2c0-3.9,1.2-7,3.5-9.4s4.9-3.6,7.6-3.6
		c6.2,0,9.3,3.2,9.3,9.5c0,0.7-0.3,1-1,1l-14.6-0.1c0,3.1,0.6,5.6,1.7,7.6c1.6,2.6,3.6,4,6,4c1.5,0,2.8-0.2,3.8-0.7
		c1-0.4,2-1.2,3.1-2.3C320.3,441.3,320.7,441.6,320.9,442.1z M305.3,430.7l10-0.2c0.6,0,0.8-0.2,0.8-0.7c0-2-0.4-3.4-1.3-4.3
		c-0.9-0.8-2-1.3-3.2-1.3c-0.5,0-1,0.1-1.4,0.2c-0.5,0.1-1,0.4-1.7,0.8s-1.3,1.1-1.9,2S305.5,429.3,305.3,430.7z"/>
	<path d="M379.6,444.5c0.1,0.2,0.2,0.5,0.2,1s-0.1,0.8-0.2,1c-3.2-0.1-5.1-0.1-5.7-0.1c-0.7,0-2.5,0-5.6,0.1c-0.1-0.2-0.2-0.5-0.2-1
		s0.1-0.8,0.2-1c1.5-0.1,2.5-0.4,2.8-1s0.6-1.9,0.6-4v-9.6c0-1.7-0.3-3-0.8-3.7c-0.5-0.8-1.4-1.1-2.5-1.1c-2.6,0-5.1,1.2-7.3,3.6
		c0,0.4,0.1,1.2,0.1,2.2v8.7c0,2.2,0.2,3.5,0.6,4c0.4,0.5,1.3,0.8,2.7,0.9c0.1,0.2,0.2,0.5,0.2,1c0,0.5-0.1,0.8-0.2,1
		c-3.2-0.1-5-0.1-5.4-0.1c-0.7,0-2.5,0-5.6,0.1c-0.1-0.2-0.2-0.5-0.2-1s0.1-0.8,0.2-1c1.5-0.1,2.5-0.4,2.9-0.9
		c0.4-0.5,0.6-1.9,0.6-4.1V430c0-3.3-1.2-5-3.6-5c-1.8,0-3.7,1.1-5.9,3.2c-0.6,0.7-0.9,1.4-0.9,2.3v9c0,1.5,0.1,2.6,0.3,3.3
		c0.2,0.6,0.5,1.1,0.9,1.3s1.1,0.4,2.1,0.5c0.1,0.2,0.2,0.5,0.2,1c0,0.5-0.1,0.8-0.2,1c-3.1-0.1-4.9-0.1-5.5-0.1c-1,0-2.9,0-5.9,0.1
		c-0.1-0.2-0.2-0.5-0.2-1s0.1-0.8,0.2-1c1.6-0.1,2.6-0.4,3.1-1c0.4-0.5,0.7-1.9,0.7-4v-10.6c0-1.5-0.2-2.5-0.6-2.9
		c-0.4-0.4-1.4-0.7-3-0.8c-0.2-0.6-0.3-1.1-0.1-1.6c2.9-0.4,5.2-0.9,7-1.6c0.3,0,0.5,0.1,0.7,0.4c0.3,0.7,0.4,2.1,0.4,4.2
		c0,0.4,0.1,0.5,0.4,0.1c0.1-0.1,0.1-0.1,0.1-0.1c2.8-3,5.6-4.5,8.4-4.5c1.4,0,2.6,0.4,3.6,1.1c1,0.8,1.6,1.7,1.9,2.9
		c0.1,0.4,0.3,0.4,0.6,0c0.9-1,1.9-1.8,3-2.4c1.1-0.6,2.1-1.1,3.1-1.3s2-0.4,3-0.4c2.2,0,3.8,0.7,4.5,2.2c0.8,1.5,1.2,3.7,1.2,6.5
		v8.6c0,2.2,0.2,3.5,0.6,4C377,444,378,444.4,379.6,444.5z M405.1,443.8c0.2,0.2,0.3,0.4,0.3,0.6c0,0.1-0.2,0.4-0.6,0.7
		c-0.4,0.4-1,0.8-1.7,1.2s-1.6,0.6-2.4,0.6c-2.2,0-3.7-1-4.3-3.2h-0.1l-1.1,0.9c-1.2,0.9-2.2,1.6-3,1.9c-0.8,0.3-1.8,0.4-3,0.4
		c-2.1,0-3.9-0.5-5.2-1.4c-1.3-0.9-1.9-2.4-1.9-4.5c0-1.8,0.9-3.4,2.6-4.9s3.9-2.4,6.6-3.1l4.8-1.2c0.2-0.1,0.3-0.3,0.3-0.6
		c0-4.7-1.5-7-4.5-7c-1.2,0-2.3,0.2-3.2,0.6c-0.9,0.4-1.4,0.9-1.4,1.7c0,0.5,0,0.9,0.1,1c0.1,0.2,0.2,0.5,0.2,1
		c0,0.4-0.2,0.8-0.7,1.2c-0.4,0.4-1,0.6-1.8,0.6c-1.3,0-1.9-0.6-1.9-1.9c0-1.5,1-2.9,2.9-4.2c1.9-1.3,4-1.9,6.2-1.9
		c5.6,0,8.4,3.1,8.4,9.4v8.1c0,1.1,0,1.9,0.1,2.4s0.3,1.1,0.6,1.5c0.4,0.5,0.9,0.7,1.5,0.7c0.4,0,0.8-0.1,1.2-0.4s0.5-0.4,0.5-0.4
		C404.8,443.5,404.9,443.6,405.1,443.8z M396.4,433.5l-4.4,1.1c-3.5,0.9-5.2,2.9-5.2,6.1c0,1,0.3,1.9,1,2.7s1.7,1.2,2.9,1.2
		s2.9-0.8,4.8-2.4c0.5-0.4,0.8-0.8,0.8-1.4V433.5z M430.4,443.9c-0.7-0.3-1.4-0.8-2-1.5l-7.3-9.1c-0.3-0.3-0.4-0.6-0.4-0.8
		c0-0.2,0.1-0.4,0.2-0.6l4.8-4.9c1.3-1.3,3.2-2.1,5.8-2.4c0.2-0.2,0.3-0.5,0.3-1s-0.1-0.8-0.3-1c-2.7,0.1-4.3,0.1-4.8,0.1
		c-0.9,0-2.7,0-5.4-0.1c-0.1,0.2-0.2,0.6-0.2,1c0,0.5,0.1,0.8,0.2,1c0.7,0,1.3,0.2,1.6,0.4s0.5,0.5,0.4,0.8
		c-0.1,0.3-0.2,0.6-0.3,0.8s-0.3,0.5-0.4,0.7c-1.6,2-3.1,3.5-4.4,4.4c-1.3,1-2.6,1.5-3.7,1.7v-19.2c0-2.4,0.1-4.3,0.2-5.8
		c0-0.4-0.2-0.6-0.7-0.6c-1.9,0.8-4.4,1.3-7.7,1.5c-0.2,0.7-0.1,1.2,0.3,1.6c1,0.1,1.6,0.1,1.8,0.1c0.2,0,0.5,0.2,0.9,0.4
		c0.4,0.3,0.6,0.7,0.7,1.3c0.1,0.6,0.1,1.5,0.1,2.6v24c0,2.2-0.2,3.6-0.6,4.1c-0.4,0.5-1.4,0.8-3.1,0.9c-0.2,0.2-0.3,0.5-0.3,1
		s0.1,0.8,0.3,1c3.1-0.1,5.1-0.1,5.9-0.1c0.2,0,1.8,0,5,0.1c0.2-0.2,0.3-0.5,0.3-1s-0.1-0.8-0.3-1c-1.2-0.1-2-0.4-2.3-1
		c-0.3-0.5-0.5-1.8-0.5-4v-4.7c1.1,0,1.9,0.1,2.4,0.3c0.6,0.4,1.2,1,1.8,1.8l4,5.4c1.3,1.8,2.1,3.1,2.3,3.9c0,0.2,0.1,0.3,0.2,0.3
		c1.5-0.1,2.6-0.1,3.4-0.1s2.3,0,4.5,0.1c0.2-0.2,0.3-0.5,0.3-1s-0.1-0.8-0.3-1C432,444.3,431.1,444.1,430.4,443.9z M455.4,442.1
		c-2.5,3.2-5.6,4.8-9.4,4.8c-3.7,0-6.5-1.2-8.5-3.5c-1.7-2-2.6-4.7-2.6-8.2c0-3.9,1.2-7,3.5-9.4s4.9-3.6,7.6-3.6
		c6.2,0,9.3,3.2,9.3,9.5c0,0.7-0.3,1-1,1l-14.6-0.1c0,3.1,0.6,5.6,1.7,7.6c1.6,2.6,3.6,4,6,4c1.5,0,2.8-0.2,3.8-0.7
		c1-0.4,2-1.2,3.1-2.3C454.8,441.3,455.2,441.6,455.4,442.1z M439.8,430.7l10-0.2c0.6,0,0.8-0.2,0.8-0.7c0-2-0.4-3.4-1.3-4.3
		c-0.9-0.8-2-1.3-3.2-1.3c-0.5,0-1,0.1-1.4,0.2c-0.5,0.1-1,0.4-1.7,0.8s-1.3,1.1-1.9,2S440,429.3,439.8,430.7z"/>
	<path d="M496.1,443.8c-0.2-0.2-0.3-0.3-0.4-0.3c0,0-0.2,0.1-0.5,0.4s-0.7,0.4-1.2,0.4c-0.7,0-1.2-0.2-1.5-0.7
		c-0.3-0.5-0.6-1-0.6-1.5s-0.1-1.4-0.1-2.4v-8.1c0-6.3-2.8-9.4-8.4-9.4c-2.2,0-4.3,0.6-6.2,1.9c-1.9,1.3-2.9,2.7-2.9,4.2
		c0,1.3,0.6,1.9,1.9,1.9c0.7,0,1.3-0.2,1.8-0.6c0.4-0.4,0.7-0.8,0.7-1.2c0-0.4-0.1-0.8-0.2-1c-0.1-0.2-0.1-0.5-0.1-1
		c0-0.8,0.5-1.3,1.4-1.7c0.9-0.4,2-0.6,3.2-0.6c3,0,4.5,2.3,4.5,7c0,0.4-0.1,0.6-0.3,0.6l-4.8,1.2c-2.7,0.7-4.9,1.7-6.6,3.1
		s-2.6,3-2.6,4.9c0,2.1,0.6,3.6,1.9,4.5c1.3,0.9,3,1.4,5.2,1.4c1.2,0,2.2-0.1,3-0.4c0.8-0.3,1.8-0.9,3-1.9l1.1-0.9h0.1
		c0.6,2.1,2.1,3.2,4.3,3.2c0.8,0,1.6-0.2,2.4-0.6s1.3-0.8,1.7-1.2c0.4-0.4,0.6-0.6,0.6-0.7C496.4,444.2,496.3,444,496.1,443.8z
		 M487.4,440.8c0,0.6-0.3,1.1-0.8,1.4c-1.9,1.6-3.5,2.4-4.8,2.4s-2.3-0.4-2.9-1.2s-1-1.7-1-2.7c0-3.2,1.7-5.2,5.2-6.1l4.4-1.1V440.8
		z"/>
	<path d="M529.6,414.1c-0.9,0-1.6-0.6-2.2-1.7c-0.4-0.9-0.8-1.6-1.3-2c-0.5-0.4-1.2-0.6-2-0.6c-2.9,0-4.3,3.2-4.3,9.7v3.1h6
		c0.3,0,0.4,0.1,0.4,0.3v1c0,0.4-0.4,0.7-1.3,0.6h-5.1v14.8c0,2.2,0.2,3.6,0.7,4.1c0.5,0.5,1.7,0.8,3.6,1c0.1,0.2,0.2,0.5,0.2,1
		s-0.1,0.8-0.2,1c-3.2-0.1-5.3-0.1-6.5-0.1c-0.8,0-2.7,0-5.8,0.1c-0.2-0.2-0.3-0.5-0.3-1s0.1-0.8,0.3-1c1.6-0.1,2.6-0.4,3-0.9
		c0.4-0.5,0.6-1.9,0.6-4.1v-14.8h-3.8c-0.2,0-0.3-0.1-0.3-0.3v-0.7c0-0.7,0.4-1,1.3-1h2.8v-2.2c0-4,1-7.1,3-9.3s4.2-3.3,6.8-3.3
		c2.2,0,3.8,0.4,4.9,1.2c1.2,0.9,1.7,1.8,1.7,2.8c0,0.6-0.3,1.1-0.7,1.5S530.1,414.1,529.6,414.1z M552.1,443.8
		c0.2,0.2,0.3,0.4,0.3,0.6c0,0.1-0.2,0.4-0.6,0.7c-0.4,0.4-1,0.8-1.7,1.2s-1.6,0.6-2.4,0.6c-2.2,0-3.7-1-4.3-3.2h-0.1l-1.1,0.9
		c-1.2,0.9-2.2,1.6-3,1.9c-0.8,0.3-1.8,0.4-3,0.4c-2.1,0-3.9-0.5-5.2-1.4c-1.3-0.9-1.9-2.4-1.9-4.5c0-1.8,0.9-3.4,2.6-4.9
		s3.9-2.4,6.6-3.1l4.8-1.2c0.2-0.1,0.3-0.3,0.3-0.6c0-4.7-1.5-7-4.5-7c-1.2,0-2.3,0.2-3.2,0.6c-0.9,0.4-1.4,0.9-1.4,1.7
		c0,0.5,0,0.9,0.1,1c0.1,0.2,0.2,0.5,0.2,1c0,0.4-0.2,0.8-0.7,1.2c-0.4,0.4-1,0.6-1.8,0.6c-1.3,0-1.9-0.6-1.9-1.9
		c0-1.5,1-2.9,2.9-4.2c1.9-1.3,4-1.9,6.2-1.9c5.6,0,8.4,3.1,8.4,9.4v8.1c0,1.1,0,1.9,0.1,2.4s0.3,1.1,0.6,1.5
		c0.4,0.5,0.9,0.7,1.5,0.7c0.4,0,0.8-0.1,1.2-0.4s0.5-0.4,0.5-0.4C551.8,443.5,551.9,443.6,552.1,443.8z M543.4,433.5l-4.4,1.1
		c-3.5,0.9-5.2,2.9-5.2,6.1c0,1,0.3,1.9,1,2.7s1.7,1.2,2.9,1.2s2.9-0.8,4.8-2.4c0.5-0.4,0.8-0.8,0.8-1.4V433.5z M592.3,443.5
		c-0.4-0.5-0.6-1.9-0.6-4v-8.6c0-2.8-0.4-5-1.2-6.5c-0.8-1.5-2.3-2.2-4.5-2.2c-1,0-2,0.1-3,0.4s-2,0.7-3.1,1.3
		c-1.1,0.6-2.1,1.4-3,2.4c-0.3,0.3-0.5,0.3-0.6,0c-0.3-1.2-0.9-2.1-1.9-2.9c-1-0.8-2.2-1.1-3.6-1.1c-2.7,0-5.5,1.5-8.4,4.5
		c0,0-0.1,0.1-0.1,0.1c-0.3,0.4-0.4,0.3-0.4-0.1c0-2.1-0.1-3.5-0.4-4.2c-0.2-0.3-0.4-0.4-0.7-0.4c-1.8,0.7-4.1,1.2-7,1.6
		c-0.1,0.4-0.1,0.9,0.1,1.6c1.5,0.1,2.5,0.4,3,0.8c0.4,0.4,0.6,1.4,0.6,2.9v10.6c0,2.2-0.2,3.5-0.7,4c-0.4,0.5-1.5,0.9-3.1,1
		c-0.1,0.2-0.2,0.5-0.2,1s0.1,0.8,0.2,1c3-0.1,5-0.1,5.9-0.1c0.6,0,2.4,0,5.5,0.1c0.1-0.2,0.2-0.5,0.2-1c0-0.5-0.1-0.8-0.2-1
		c-1-0.1-1.8-0.3-2.1-0.5s-0.7-0.6-0.9-1.3c-0.2-0.6-0.3-1.7-0.3-3.3v-9c0-0.9,0.3-1.6,0.9-2.3c2.2-2.2,4.2-3.2,5.9-3.2
		c2.4,0,3.6,1.7,3.6,5v9.5c0,2.2-0.2,3.5-0.6,4.1c-0.4,0.5-1.3,0.8-2.9,0.9c-0.1,0.2-0.2,0.5-0.2,1s0.1,0.8,0.2,1
		c3.1-0.1,5-0.1,5.6-0.1c0.4,0,2.3,0,5.4,0.1c0.1-0.2,0.2-0.5,0.2-1c0-0.5-0.1-0.8-0.2-1c-1.4-0.1-2.3-0.4-2.7-0.9
		c-0.4-0.5-0.6-1.9-0.6-4v-8.7c0-1,0-1.7-0.1-2.2c2.2-2.4,4.7-3.6,7.3-3.6c1.1,0,1.9,0.4,2.5,1.1c0.5,0.8,0.8,2,0.8,3.7v9.6
		c0,2.2-0.2,3.5-0.6,4s-1.3,0.9-2.8,1c-0.1,0.2-0.2,0.5-0.2,1s0.1,0.8,0.2,1c3.1-0.1,5-0.1,5.6-0.1c0.6,0,2.5,0,5.7,0.1
		c0.1-0.2,0.2-0.5,0.2-1s-0.1-0.8-0.2-1C593.7,444.4,592.7,444,592.3,443.5z M606.6,443.5c-0.4-0.5-0.7-1.9-0.7-4v-10.9
		c0-0.5,0-1.1,0-1.7s0-1.2,0.1-1.6c0-0.5,0-1,0.1-1.5s0-0.9,0.1-1c0-0.2,0-0.3,0-0.4c0-0.3-0.2-0.4-0.7-0.4
		c-1.6,0.6-4.1,1.1-7.5,1.6c-0.1,0.4-0.1,0.9,0.1,1.6c1.5,0.1,2.5,0.4,2.9,0.8c0.4,0.4,0.6,1.4,0.6,2.9v10.6c0,2.2-0.2,3.5-0.7,4
		c-0.4,0.5-1.6,0.8-3.3,1c-0.1,0.2-0.2,0.5-0.2,1s0.1,0.8,0.2,1c3.1-0.1,5.2-0.1,6.2-0.1c0.9,0,3,0,6.1,0.1c0.2-0.2,0.3-0.5,0.3-1
		s-0.1-0.8-0.3-1C608.1,444.4,607,444,606.6,443.5z M603.6,416.2c0.7,0,1.4-0.3,2-0.9c0.6-0.6,0.9-1.2,0.9-1.8
		c0-0.7-0.3-1.3-0.8-1.9c-0.5-0.6-1.1-0.9-1.8-0.9c-0.7,0-1.3,0.3-1.9,0.8c-0.6,0.5-0.9,1.2-0.9,1.8c0,0.7,0.3,1.4,0.8,2
		C602.3,415.9,602.9,416.2,603.6,416.2z M621.2,443.6c-0.5-0.5-0.7-1.9-0.7-4.1v-25.3c0-2.4,0.1-4.3,0.2-5.8c0-0.4-0.2-0.6-0.7-0.6
		c-1.9,0.8-4.5,1.3-7.7,1.5c-0.2,0.7-0.1,1.2,0.3,1.6c1,0.1,1.6,0.1,1.8,0.1s0.5,0.2,0.9,0.4c0.4,0.3,0.6,0.7,0.7,1.3
		c0.1,0.6,0.1,1.5,0.1,2.6v24c0,2.2-0.2,3.6-0.7,4.1c-0.5,0.5-1.6,0.8-3.3,0.9c-0.2,0.2-0.3,0.5-0.3,1s0.1,0.8,0.3,1
		c3.1-0.1,5.1-0.1,6.2-0.1c0.9,0,3,0,6.1,0.1c0.1-0.2,0.2-0.5,0.2-1s-0.1-0.8-0.2-1C622.7,444.4,621.7,444.1,621.2,443.6z
		 M653.2,422.6c-1.8,0.1-3.1,0.1-3.9,0.1c-0.6,0-2.3,0-5-0.1c-0.2,0.2-0.3,0.6-0.3,1c0,0.5,0.1,0.8,0.3,1c1.1,0.1,1.9,0.3,2.5,0.7
		s0.6,0.9,0.2,1.8l-5.5,12.6c-0.1,0.2-0.2,0.4-0.3,0.5c-0.1,0.1-0.2,0.2-0.3,0.2s-0.2,0-0.3-0.2c-0.1-0.1-0.2-0.3-0.3-0.6l-4.9-11.4
		c0-0.1-0.1-0.2-0.1-0.3c-0.2-0.5-0.4-0.9-0.5-1.1c-0.1-0.2-0.1-0.5-0.2-0.8c0-0.3,0-0.5,0.2-0.7c0.2-0.1,0.5-0.3,0.8-0.4
		c0.4-0.1,0.9-0.2,1.5-0.3c0.1-0.2,0.2-0.5,0.2-1s-0.1-0.8-0.2-1c-2.7,0.1-4.8,0.1-6.2,0.1c-1.5,0-3,0-4.5-0.1
		c-0.1,0.2-0.2,0.6-0.2,1c0,0.5,0.1,0.8,0.2,1c0.8,0.1,1.5,0.2,1.9,0.4s0.8,0.6,1.1,1.1c0.3,0.5,0.8,1.4,1.3,2.6l6.2,14.4
		c1,2.2,1.2,3.9,0.8,5.2c-0.6,1.6-1.3,3.2-2.2,5c-0.6,1.1-1.5,1.6-2.8,1.6c-0.3,0-0.5,0-0.8-0.1c-0.3-0.1-0.6-0.1-0.7-0.1
		c-0.7,0-1.3,0.3-1.7,0.8c-0.5,0.5-0.7,1.1-0.7,1.5c0,0.6,0.2,1.1,0.7,1.5c0.5,0.4,1.1,0.6,1.8,0.6c2.1,0,3.9-1.3,5.4-3.9
		c0.7-1.3,1.5-2.9,2.3-4.7c4.1-10,7.4-17.5,9.7-22.4c0.4-0.9,1.1-1.7,1.9-2.4c0.8-0.7,1.7-1.1,2.6-1.2c0.2-0.2,0.3-0.5,0.3-1
		S653.3,422.8,653.2,422.6z"/>
</g>
</svg>
