<?xml version="1.0" encoding="utf-8"?>
<!-- Generator: Adobe Illustrator 18.0.0, SVG Export Plug-In . SVG Version: 6.00 Build 0)  -->
<!DOCTYPE svg PUBLIC "-//W3C//DTD SVG 1.1//EN" "http://www.w3.org/Graphics/SVG/1.1/DTD/svg11.dtd">
<svg version="1.1" id="Layer_1" xmlns="http://www.w3.org/2000/svg" xmlns:xlink="http://www.w3.org/1999/xlink" x="0px" y="0px"
	 viewBox="0 0 720 720" style="enable-background:new 0 0 720 720;" xml:space="preserve">
<g>
	<path d="M664.6,565.3c-0.8-0.5-1.7-0.7-2.7-0.5c-1,0.3-1.7,1-2.1,2.2c-1.7,7.1-4.4,15.4-8,24.8c-3.7,9.4-8.1,18.5-13.3,27.2
		c-5.2,8.7-11.1,15.3-17.6,20c-6.5,4.7-13.5,5.8-21.1,3.4c-4.8-1.7-8.3-5.4-10.6-11.1c-2.3-5.7-3.6-11.9-4.1-18.8
		c-0.5-6.9-0.7-13-0.5-18.4c11.7-2.6,21.1-9,28.2-19c7.1-10.1,10.5-21.1,10.3-33c-0.5-9.2-2.8-16.2-6.8-21c-4.1-4.8-9-7.3-14.8-7.7
		c-5.8-0.4-11.5,1.5-17.2,5.6c-6.8,5.6-12.5,14.1-17,25.4c-4.3,10.9-7.2,22.9-8.7,35.8c-1.3,5.8-3.3,13.8-6,23.8
		c-3.5,13.1-7.4,25.8-12,38.1c-5.5,13.6-11.1,19.9-16.6,18.9c-5.6-1.1-10.1-8-13.5-20.8c-2.6-11.4-3.7-25.1-3.4-40.8
		c0.4-15.8,1-29.7,2-41.6c0.5-7.6,0.8-12.9,0.8-15.9c-0.1-5-1.5-9.9-4.1-14.7c-2.7-4.8-6.3-7.7-10.8-8.9c-4.6-1.2-9.9,1.2-16,7.1
		c-6.1,5.9-12.7,17.1-19.9,33.6c0-0.9,0-1.8,0-2.6c-0.6-12.5-2.4-22.7-5.3-30.5c-1.5-4.5-4-9.2-7.4-14.1c-3.5-4.9-7.6-7.7-12.6-8.4
		c-4.9-0.8-10.3,2.8-16.2,10.5c-5.9,7.8-12.2,22-18.8,42.8c-1.7-10-4.6-18.7-8.6-25.9c-1.4-2.9-3.6-4.6-6.5-5
		c-1.9-0.1-3.5,0.5-4.9,1.7c-1.4,1.2-2.1,2.8-2.3,4.7c-0.1,2-0.3,4.5-0.6,7.5c-0.6,6.9-1.2,16.5-1.7,28.6c-0.1,2.1-0.2,4.3-0.2,6.6
		c-4.1,7.5-9,13.2-14.6,17.1c-5.6,3.9-12.9,5.5-21.8,5c3.3-20,2.9-35.4-1.4-46.2c-4.2-10.8-10.1-17.6-17.6-20.4
		c-7.5-2.8-14.5-2-20.9,2.2c-0.9,0.6-1.7,1.3-2.4,2c-1.8-1.7-4.4-2.2-7.8-1.4c-10.7,3.6-18.8,10.7-24.1,21.1
		c-3,5.9-5.1,12.2-6.3,18.8c-0.7,0.3-1.2,0.8-1.6,1.7c-0.3,1-0.8,2.3-1.4,3.9c-2.7,7.8-6.8,18.6-12.3,32.2
		c-5.5,13.6-11.6,25.9-18.2,36.9c-8.8,13.1-16.1,18.1-21.9,15c-5.8-3.2-8.4-12.8-7.7-29c0.5-7.7,1.7-15.2,3.7-22.5
		c2-7.3,4-14.3,6.2-21c4.3-11.5,7-22.3,8-32.3c0.3-7-1-13.4-3.8-19.2c-2.9-5.8-7-10-12.5-12.7c-5.5-2.7-11.9-2.9-19.3-0.5
		c-8.2,2.8-16.3,8.7-24.1,17.8c-7.9,9-14.5,20.7-20,35c-5.5,14.3-8.8,30.8-9.9,49.6c-3-8.2-5.5-17.4-7.5-27.6
		c-2-10.2-3.6-19.6-4.7-28.2c17.1-17.4,31.8-37.8,44.4-61.4c12.5-23.6,19.9-47.9,22-73.1c0.9-19.1-0.9-33.2-5.4-42.6
		c-4.5-9.3-10.5-14.8-17.9-16.3c-7.4-1.6-15.1-0.3-23,3.8c-7.9,4.1-14.9,10-20.9,17.6c-12.2,16.2-20.4,36.2-24.6,59.7
		c-4.2,23.6-5.2,47.8-3.2,72.8c2.1,25,6.3,47.7,12.9,68.1c6.5,20.4,14.3,35.6,23.3,45.7c1.6,1.6,3.3,2.3,5.2,2
		c1.9-0.3,3.4-1.1,4.5-2.6c1.2-1.5,1.5-3.3,1-5.4c1.4-13.3,4.2-27.2,8.3-41.6c4.1-14.4,9.5-26.8,16.2-37.3
		c6.7-10.5,14.4-16.4,23.2-17.8c4.3-0.7,7.3-0.2,9.1,1.7c1.8,1.8,2.1,5.7,1,11.6c-1,4.7-2.5,10.1-4.4,16.1
		c-2.7,8.3-5.1,17.7-7.2,28.1c-2.1,10.4-2.7,21.6-1.7,33.8c0.7,5.9,2.8,12.4,6.3,19.3c3.5,7,8.1,12.6,13.8,16.9
		c5.7,4.3,12,5.4,19,3.2c7-2.2,14.3-9.5,21.8-21.8c6.9-12.2,12.7-25.6,17.4-40c2-6.1,3.7-11.7,5.2-16.9c1,10.1,4,19.3,8.9,27.7
		c6,10.1,14.9,16.7,26.7,19.7c7.4,1.6,14.9,0,22.6-5c7.6-4.9,14.2-14.6,19.9-29.2c10.2,0.6,19.4-1.9,27.5-7.4
		c4.8-3.3,8.8-7.5,12.1-12.6c0,7.1,0.2,14.7,0.6,22.9c0.1,3.5,0.3,7.6,0.8,12.4c0.4,4.8,0.8,8.9,1.2,12.3c0.8,3.1,2.6,4.9,5.4,5.5
		c2.8,0.6,5.1-0.5,6.9-3.1c7.4-13.6,11.5-31.4,12.2-53.4c7.6-24.1,13.5-40.8,17.7-50.3c4.2-9.4,7.1-13.2,9-11.4
		c1.8,1.9,3.1,7.6,3.8,17.2c0.7,10.1,1,21.4,0.9,33.9c-0.3,17.5,0.5,32.4,2.3,45c0.9,3.4,2.9,5.3,6,5.8c3.1,0.5,5.6-0.9,7.4-4
		c3.2-6.5,6.2-16.7,8.9-30.7c3.6-8.4,7.6-17,11.9-25.7c4.3-8.7,8.2-15.9,11.8-21.8c3.6-5.9,6.1-8.9,7.6-9.1
		c1.5-0.2,1.4,3.9-0.5,12.3c-8.5,36-8,68.6,1.7,97.8c4.5,13.6,10.7,23.3,18.6,29.1c7.9,5.8,15.9,6.3,24.1,1.7
		c8.2-4.7,15.1-15.7,20.8-33.2c2.5-8.3,4.6-16.8,6.5-25.3c0.2,1.3,0.4,2.6,0.7,3.9c2.4,12.4,6.9,22.4,13.8,30.1
		c6.8,7.7,16.2,11.3,28.3,10.8h0.2h0.2c12.2-2,22.9-8.1,32.1-18.2c9.2-10.1,16.5-22,21.9-35.7c5.4-13.7,8.6-27,9.6-39.8
		C665.8,566.8,665.4,565.9,664.6,565.3z M589,559.2c2.2-10.9,5.2-19.3,9.3-25.1l-0.2,0.2c1.4-1.8,3.1-2.9,5-3.4c2-0.5,3.7,0.2,5.3,2
		c1.6,1.8,2.5,5,2.7,9.7c0.4,7.6-1.5,15.8-5.6,24.7c-4.1,8.8-11,15.2-20.6,19.3C585.5,579.2,586.8,570.2,589,559.2z M109.8,472.9
		c4.3-26.5,11-46.4,20.2-59.7c6.8-9.5,12.9-14.4,18.3-14.7c5.4-0.2,9.5,3.1,12.4,10.1c2.9,7,4.1,16.5,3.6,28.7
		c-0.3,7.2-1.7,16.2-4.1,26.9c-2.4,10.7-6.6,23.2-12.6,37.5c-11.9,25.6-24.9,46.2-38.8,61.8C105.2,529.5,105.5,499.4,109.8,472.9z
		 M305.8,626.1c-7.6-1-13.9-6.7-18.8-17.4c-4.9-10.6-6.2-24.2-3.8-40.8c1.2,12,6,21.7,14.5,29c8.5,7.3,17.8,11.2,28.1,11.6
		C320.1,621.2,313.4,627.1,305.8,626.1z M328.9,593.8c-9-4.4-15-10.3-18.1-17.5c-3-7.3-4.1-14.1-3.4-20.4c0.8-6.3,2.2-10.3,4.4-12
		c2.6-1.6,5.5-0.8,8.7,2.3c3.2,3.2,5.7,8.7,7.6,16.7C330.1,570.9,330.3,581.2,328.9,593.8z"/>
	<path d="M218.2,83.3c0.7,10.9,0.6,22.9-0.5,36c-1.1,13.1-2.9,26-5.5,38.7c-5.5,24.7-12.4,42.1-20.7,52.2
		c-8.3,10.1-16.4,12.3-24.4,6.4c-8-5.9-14.3-20.6-19-44.1c-4.8,18.8-10.9,33.2-18.3,43.1c-7.5,9.9-15,14.6-22.5,14.1
		c-7.6-0.5-13.8-7.2-18.7-19.9c-4.9-12.7-7.3-32.3-6.9-58.9c0.3-9.5,0.6-18.4,1-26.7c0.6-11.9,0.9-22.4,1-31.4
		c0.1-9-0.5-16.2-1.7-21.6c-0.2-1.1-0.6-2.4-1.2-3.9c-0.6-1.5-1.4-2.5-2.3-3.1c-1.4-0.5-3.3-0.3-5.7,0.8c-2.4,1.1-4.7,2.4-6.9,3.9
		c-2.3,1.5-3.9,2.7-4.9,3.5c-1,0.7-2,0.9-3.1,0.7c-1.1-0.2-2-0.7-2.7-1.6c-0.6-0.9-0.9-1.8-0.8-2.7c0.1-0.9,0.4-1.8,1.1-2.5
		c2.3-2.6,4.9-5.1,7.7-7.4c2.8-2.3,5.8-4.1,9-5.4c7.8-2.5,13.9-0.7,18.4,5.3c3.5,4.9,5.8,11.9,7,21c1.2,9,1.8,19.3,1.6,30.6
		c-0.1,11.4-0.5,23-1,34.8c-0.1,1.6-0.1,3.2-0.2,4.8c-0.9,25.2,0.1,43.6,2.9,55.3c2.9,11.7,6.9,17.3,12,16.7
		c5.1-0.6,10.6-6.7,16.5-18.5c5.8-11.8,11.3-28.6,16.4-50.5c-1.3-18.5,0.4-34.9,5.1-49.2c0.6-1.5,1.6-2.3,2.8-2.7
		c1.3-0.3,2.5-0.1,3.6,0.6c1.1,0.7,1.7,1.9,1.7,3.5c-0.2,17.1,1.4,37.3,4.7,60.7c2.7,17.7,6,29.7,9.7,36c3.7,6.3,7.6,8.1,11.7,5.5
		c4.1-2.7,7.9-8.6,11.5-17.8c3.6-9.2,6.6-20.6,9-34c2.1-11.8,3.6-23.8,4.7-35.8c1.1-12.1,1.6-23.2,1.5-33.4
		c-0.1-10.2-0.8-18.3-2.1-24.4c-1.3-6.1-3.4-9.2-6.2-9.1c-0.1,0-0.2,0-0.3,0c-0.1,0-0.1,0-0.2,0c-0.1,0-0.1,0-0.2,0.1
		c-0.7,0-1.3-0.3-1.6-0.8c-0.3-0.5-0.4-1.1-0.3-1.6c0.2-0.6,0.6-1,1.3-1.2c4.8-0.9,8.4,1.9,11.1,8.2
		C215.8,63.7,217.4,72.3,218.2,83.3z M661.3,156.8c-0.6,7.8-2.6,15.9-5.8,24.2c-3.3,8.3-7.7,15.6-13.3,21.7
		c-5.6,6.2-12.1,9.8-19.5,11.1h-0.1h-0.1c-7.3,0.3-13-1.9-17.2-6.5c-4.1-4.7-6.9-10.8-8.4-18.3c-0.1-0.8-0.3-1.6-0.4-2.4
		c-1.1,5.2-2.4,10.3-3.9,15.4c-3.4,10.6-7.6,17.3-12.6,20.2c-5,2.8-9.9,2.5-14.7-1c-4.8-3.5-8.5-9.4-11.3-17.7
		c-5.8-17.7-6.2-37.5-1-59.4c1.1-5.1,1.2-7.6,0.3-7.5c-0.9,0.1-2.5,2-4.6,5.5c-2.2,3.6-4.6,8-7.2,13.3c-2.6,5.3-5,10.5-7.2,15.6
		c-1.6,8.5-3.4,14.7-5.4,18.6c-1.1,1.9-2.6,2.7-4.5,2.4c-1.9-0.3-3.1-1.4-3.7-3.5c-1.1-7.6-1.6-16.7-1.4-27.3
		c0.1-7.6-0.1-14.4-0.5-20.6c-0.4-5.8-1.2-9.3-2.3-10.5c-1.1-1.1-2.9,1.2-5.4,6.9c-2.5,5.7-6.1,15.9-10.7,30.5
		c-0.4,13.3-2.9,24.2-7.4,32.4c-1.1,1.6-2.5,2.2-4.2,1.9c-1.7-0.3-2.8-1.4-3.3-3.3c-0.2-2.1-0.5-4.6-0.7-7.4
		c-0.2-2.9-0.4-5.4-0.5-7.5c-0.2-5-0.3-9.6-0.4-13.9c-2,3.1-4.4,5.7-7.3,7.7c-4.9,3.4-10.5,4.8-16.7,4.5
		c-3.4,8.8-7.4,14.7-12.1,17.7c-4.6,3-9.2,4-13.7,3c-7.2-1.8-12.6-5.8-16.2-12c-3.5-5.9-5.3-12.5-5.6-19.8c-2.2,3.9-4.5,7.5-6.9,11
		c-4.6,6.6-10.3,12.8-16.9,18.6c-6.6,5.9-13.4,9.6-20.3,11.3c-6.9,1.6-13.6,0.2-20.1-4.5c-5.3-4.3-8.6-10-9.8-17.1
		c-0.2-1-0.3-2.1-0.4-3.2c-1.3,3.7-2.8,7.2-4.6,10.5c-3,5.4-6.8,9.2-11.5,11.3c-6.3,2.6-12.7,1.1-19.2-4.3
		c-6.6-5.5-12.2-14.4-17.1-26.7c-0.8-1.9-1.5-4-2.1-6.1c-0.9,3.1-1.9,6.3-3.2,9.5c-3.3,8.3-7.7,15.6-13.3,21.7
		c-5.6,6.2-12.1,9.8-19.5,11.1H247H247c-7.3,0.3-13-1.9-17.2-6.5c-4.1-4.7-6.9-10.8-8.4-18.3c-1.4-7.5-1.7-15.4-0.9-23.7
		c0.9-8.3,2.7-15.8,5.4-22.7c2.7-6.9,6.2-12,10.3-15.4c3.4-2.5,6.9-3.6,10.4-3.4c3.5,0.2,6.5,1.8,9,4.7c2.5,2.9,3.9,7.1,4.2,12.8
		c0.1,7.3-2,13.9-6.3,20.1s-10,10-17.1,11.6c-0.1,3.3,0,7,0.3,11.2c0.3,4.2,1.1,8,2.5,11.4c1.4,3.4,3.5,5.7,6.4,6.7
		c4.6,1.5,8.8,0.8,12.8-2.1c4-2.8,7.5-6.9,10.7-12.2c3.2-5.3,5.9-10.8,8.1-16.5c1.3-3.3,2.4-6.4,3.3-9.3c-2.1-9-3.5-19.1-4.2-30.3
		c-0.8-19.4,0.9-36.2,5-50.4c4.1-14.1,9.9-24.7,17.1-31.7c7.3-7,15.2-9.6,23.6-7.7c4.1,1.1,7.2,3.8,9.1,8.2
		c1.9,4.4,3.1,9.5,3.4,15.4c0.3,5.9,0.1,11.8-0.7,17.7c-0.8,5.9-1.9,11-3.3,15.3c-6.3,20.4-18,39.9-35.3,58.7c1,7.4,2.6,15,4.6,22.8
		c2,7.8,4.7,14,8,18.5c3.4,4.5,7.6,5.5,12.6,3c3-1.8,5.7-4.9,8.1-9.2c2.4-4.3,4.5-8.9,6.2-13.8c1.7-4.8,3-8.9,3.8-12.3
		c0.9-3.4,1.2-4.9,1.2-4.8c0.2-0.6,0.5-1,1-1.2c1.7-5.5,3.9-10.8,6.6-15.8c3.8-7,8.1-12.5,12.8-16.5c5.2-4,10.4-5.4,15.6-4.1
		c5.2,1.3,9.3,5.6,12.3,12.8c3,7.3,3.6,18,2,32.1c-0.4,2.3-1.4,4.1-3.2,5.5c-1.7,1.3-3.8,1.9-6.1,1.6c-2.3-0.4-4.2-1.4-5.5-3.2
		s-1.9-3.8-1.7-6.2c0.2-0.7,0.6-2,1.4-3.9c0.8-2.2,1.6-4.8,2.6-7.9c0.9-3.1,1.5-6.3,1.8-9.6c0.2-3.9-0.1-6.7-0.9-8.4
		c-0.8-1.7-1.8-2.7-3.1-2.8c-1.2-0.2-2.5,0-3.7,0.7c-1.2,0.6-2.1,1.3-2.7,2.1h0.1c-2.6,3.1-5.1,7.6-7.6,13.4
		c-2.5,5.8-4.6,12-6.1,18.6c-1.6,6.6-2.1,12.6-1.7,17.9c0.4,5.4,2.3,9.1,5.7,11.2c5.4,2.9,10.7,3.4,16.1,1.3s10.6-5.6,15.5-10.5
		c5-4.9,9-9.4,12-13.6c3-4.1,5.8-8.3,8.4-12.3c0.5-0.8,0.9-1.4,1.3-2.1c0.7-4.3,2-8.3,4-12.1c3.2-6.4,8.1-10.6,14.6-12.8
		c2.1-0.5,3.7-0.2,4.8,0.8c0.4-0.4,0.9-0.8,1.5-1.2c3.9-2.6,8.1-3,12.7-1.3c4.6,1.7,8.1,5.8,10.7,12.4c2.6,6.6,2.8,15.9,0.8,28.1
		c5.4,0.3,9.8-0.7,13.3-3.1c3.4-2.3,6.4-5.8,8.9-10.4c0-1.4,0.1-2.7,0.1-4c0.3-7.4,0.7-13.2,1.1-17.4c0.2-1.8,0.3-3.4,0.4-4.6
		c0.1-1.2,0.6-2.1,1.4-2.8c0.8-0.7,1.8-1.1,3-1c1.8,0.2,3.1,1.2,3.9,3c2.4,4.4,4.2,9.6,5.2,15.7c4-12.6,7.8-21.3,11.4-26
		c3.6-4.7,6.9-6.9,9.9-6.4c3,0.5,5.5,2.2,7.6,5.1c2.1,3,3.6,5.8,4.5,8.5c1.8,4.8,2.8,10.9,3.2,18.6c0,0.5,0,1,0,1.6
		c4.3-10,8.3-16.8,12.1-20.4c3.7-3.6,7-5,9.7-4.3c2.8,0.7,5,2.5,6.6,5.4c1.6,2.9,2.5,5.9,2.5,8.9c0,1.8-0.2,5.1-0.5,9.7
		c-0.6,7.3-1,15.7-1.2,25.3c-0.2,9.6,0.5,17.9,2.1,24.8c2.1,7.8,4.8,12,8.2,12.7c3.4,0.6,6.7-3.2,10.1-11.5
		c2.7-7.5,5.2-15.2,7.3-23.2c1.6-6.1,2.8-10.9,3.6-14.5c0.9-7.9,2.6-15.1,5.3-21.8c2.7-6.9,6.2-12,10.3-15.4
		c3.4-2.5,6.9-3.6,10.4-3.4c3.5,0.2,6.5,1.8,9,4.7c2.5,2.9,3.9,7.1,4.2,12.8c0.1,7.3-2,13.9-6.3,20.1c-4.3,6.1-10,10-17.1,11.6
		c-0.1,3.3,0,7,0.3,11.2c0.3,4.2,1.1,8,2.5,11.4c1.4,3.4,3.5,5.7,6.4,6.7c4.6,1.5,8.8,0.8,12.8-2.1c4-2.8,7.5-6.9,10.7-12.2
		c3.2-5.3,5.9-10.8,8.1-16.5c2.2-5.7,3.9-10.8,4.9-15.1c0.2-0.7,0.7-1.2,1.3-1.3c0.6-0.2,1.2-0.1,1.6,0.3
		C661,155.5,661.3,156.1,661.3,156.8z M612.2,168c5.8-2.4,10-6.3,12.5-11.7c2.5-5.4,3.6-10.4,3.4-15c-0.1-2.9-0.7-4.8-1.6-5.9
		c-1-1.1-2.1-1.5-3.2-1.2s-2.2,1-3.1,2.1l0.1-0.1c-2.4,3.5-4.3,8.6-5.6,15.3C613.3,158.1,612.5,163.7,612.2,168z M236.7,168
		c5.8-2.4,10-6.3,12.5-11.7c2.5-5.4,3.6-10.4,3.4-15c-0.1-2.9-0.7-4.8-1.6-5.9c-1-1.1-2.1-1.5-3.2-1.2s-2.2,1-3.1,2.1l0.1-0.1
		c-2.4,3.5-4.3,8.6-5.6,15.3C237.8,158.1,237,163.7,236.7,168z M294.6,152c2.3-2.7,5.1-6.4,8.4-11.1c9.1-13.1,16.1-27.7,20.9-43.8
		c0.8-2.9,1.5-6.7,2.2-11.5c0.7-4.8,1.1-9.7,1.2-14.7c0.1-5-0.4-9.2-1.5-12.7c-1.1-3.5-3.6-5.4-7.5-5.8c-3.9-0.3-7.9,2.5-12.1,8.6
		c-4.1,6.1-7.5,14.5-10,25.2c-2.5,10.7-3.8,22.9-3.8,36.5C292.5,132.7,293.2,142.5,294.6,152z M454.7,181.5c-6.2-0.2-11.9-2.6-17-7
		c-5.1-4.4-8.1-10.3-8.8-17.6c-1.5,10.1-0.7,18.3,2.3,24.8c3,6.5,6.8,10,11.4,10.6C447.2,192.7,451.2,189.2,454.7,181.5z
		 M456.2,153.7c-1.1-4.8-2.7-8.2-4.6-10.1c-2-1.9-3.7-2.4-5.3-1.4c-1.3,1-2.2,3.5-2.7,7.3c-0.5,3.8,0.2,8,2.1,12.4
		c1.8,4.4,5.5,8,11,10.6C457.5,164.8,457.3,158.6,456.2,153.7z"/>
	<path d="M183.7,342.7c-8,8.9-17,13.3-27.2,13.3c-10.4,0-15.6-6.7-15.6-20.1v-61.3H129c-0.7,0-1-0.4-1-1.1v-2.5
		c0-2.5,1.2-3.7,3.6-3.7h9.3c0-4.1,0-7.7,0-10.7c0-3-0.1-5.2-0.1-6.6c-0.1-1.4-0.1-2.5-0.2-3.3c-0.1-0.8-0.1-1.4-0.1-1.8
		c0-0.4,0-0.8,0-1.1c0-0.5,0.3-0.9,0.8-1.3c0.5-0.4,1.1-0.7,1.7-0.9c0.6-0.2,1.5-0.5,2.6-0.8c1.1-0.3,2-0.6,2.6-0.9
		c0.8-0.3,1.8-0.8,3.1-1.5c1.2-0.7,2.3-1.2,3.2-1.6c0.9-0.4,1.5-0.6,1.9-0.6c1.1,0,1.6,0.6,1.6,1.8c-0.5,5.4-0.8,12.5-0.8,21.3v7.8
		h24.3c1.1,0,1.6,0.4,1.6,1.2v3.7c0,1.6-1.6,2.4-4.8,2.4h-21v51.5c0,6.6,0.5,11.4,1.4,14.4c1,3,2.7,4.4,5.3,4.4
		c6.2,0,11.7-1.9,16.6-5.8C182.2,339.4,183.4,340.5,183.7,342.7z M280.3,310.8c0,14.1-4.4,25.4-13.1,34
		c-7.7,7.6-17.6,11.3-29.7,11.3c-13.5,0-23.9-4.4-31.3-13.1c-7.4-8.8-11.1-18.9-11.1-30.3c0-13.3,3.7-24.4,11.1-33.1
		c8-9.4,18.6-14.1,31.7-14.1c9.7,0,17.8,2.4,24.5,7.1c6.7,4.8,11.3,10.4,14,17C279,296.2,280.3,303.3,280.3,310.8z M262.9,317.2
		c0-14.3-2.5-25.3-7.5-33c-5-7.7-11.9-11.5-20.6-11.5c-14.9,0-22.4,11.8-22.4,35.3c0,4.3,0.5,8.7,1.5,13.1c1,4.4,2.5,8.8,4.5,13
		c2,4.3,4.9,7.8,8.7,10.5c3.8,2.7,8.2,4.1,13.2,4.1c5.9,0,11.2-2.4,15.7-7.2C260.6,336.7,262.9,328.6,262.9,317.2z"/>
	<path d="M414.6,272.6c-6.7-4.8-14.8-7.1-24.5-7.1c-13.1,0-23.6,4.7-31.7,14.1c-7.4,8.7-11.1,19.8-11.1,33.1
		c0,11.5,3.7,21.6,11.1,30.3c7.4,8.8,17.8,13.1,31.3,13.1c12.1,0.1,22-3.7,29.7-11.3c8.7-8.6,13.1-19.9,13.1-34
		c0-7.6-1.3-14.6-3.9-21.2C425.9,283,421.3,277.3,414.6,272.6z M408.3,341.5c-4.6,4.8-9.8,7.2-15.7,7.2c-5,0-9.4-1.4-13.2-4.1
		c-3.8-2.7-6.7-6.3-8.7-10.5c-2-4.3-3.5-8.6-4.5-13c-1-4.4-1.5-8.8-1.5-13.1c0-23.5,7.5-35.3,22.4-35.3c8.7,0,15.6,3.8,20.6,11.5
		c5,7.7,7.5,18.7,7.5,33C415.2,328.6,412.9,336.7,408.3,341.5z M544.8,342.5c0.7,0.7,1,1.6,1,2.8c0,1.2-0.3,2.1-1,2.7
		c-11.3,1.3-19.5,4-24.5,8c-1.5,0.4-2.8,0.4-3.8,0c-1.5-4.9-2.3-8.8-2.3-11.8c0-1.5-0.8-1.6-2.4-0.2c-9.9,8-19,12-27.3,12
		c-9.3,0-15.9-2.6-20-7.7c-4-5.1-6.1-11.7-6.1-19.6v-38.4c0-6.3-0.8-10.4-2.5-12.4c-1.7-2-5-3.2-10-3.6c-0.5-0.6-0.8-1.7-0.8-3.5
		s0.3-3,0.8-3.8c10,0.3,16.9,0.4,20.6,0.4c3.4,0,5.7-0.1,7.1-0.4c1.1,0,1.6,0.5,1.6,1.4c-0.5,9.8-0.8,16.8-0.8,20.8v36.6
		c0,7.9,1.6,13.4,4.9,16.3c3.3,3,7,4.4,11.2,4.4c6,0,12.8-3.2,20.2-9.6c2.2-1.9,3.2-4.5,3.2-7.8v-38.6c0-6.4-0.8-10.6-2.4-12.7
		c-1.6-2.1-5-3.3-10.1-3.5c-0.7-0.6-1-1.7-1-3.5s0.3-3,1-3.8c10,0.3,16.9,0.4,20.6,0.4c3.4,0,5.7-0.1,7.1-0.4c1.1,0,1.6,0.5,1.6,1.4
		c-0.5,9.8-0.8,16.8-0.8,20.8v38.7c0,5.3,0.9,8.9,2.8,10.9C534.6,340.8,538.6,342,544.8,342.5z M620.2,275.1c0,2.6-1,4.9-2.9,7
		c-1.9,2.1-4.1,3.2-6.6,3.2c-0.9,0-1.9-0.2-2.8-0.7c-1-0.5-1.7-1-2.1-1.4c-0.5-0.5-1.1-1.1-1.8-2c-0.8-0.9-1.3-1.5-1.5-1.7
		c-0.9-0.9-2.3-1.4-4.2-1.4c-1.6,0-4.7,3.3-9.3,9.8c-3.2,4.8-4.8,9.3-4.8,13.4v27.8c0,8,0.9,12.9,2.7,14.7c1.8,1.8,6.4,3,13.9,3.6
		c0.7,0.7,1,2,1,3.8c0,1.8-0.3,3-1,3.5c-11.6-0.3-19.7-0.4-24.5-0.4c-4,0-11.7,0.1-23.1,0.4c-0.5-0.6-0.8-1.8-0.8-3.5
		c0-1.8,0.3-3,0.8-3.8c6.6-0.4,10.7-1.5,12.4-3.4c1.7-1.9,2.6-6.8,2.6-14.8v-39c0-5.6-0.8-9.1-2.3-10.6c-1.5-1.5-5.1-2.5-10.8-3
		c-0.8-2.3-0.9-4.2-0.4-5.7c10.5-1.3,19-3.3,25.4-5.8c1.1,0,1.8,0.5,2.4,1.6c1.1,2.4,1.7,7.5,1.7,15.3c0,0.7,0.1,1.1,0.3,1.4
		c0.2,0.3,0.6-0.1,1.3-1c2.7-4.6,6-8.5,10-11.8c4-3.3,8.1-4.9,12.4-4.9c3.9,0,6.9,1,9,3.1C619.2,270.6,620.2,272.8,620.2,275.1z"/>
	<path d="M577.8,447.9c-1.5-1.6-3.9-3.2-7.2-4.8c-1.9-1-3.5-1.4-4.9-1.4c-1.8,0-3.9-0.8-6.2-2.2c-1.1-0.7-7.3-3.2-18.5-7.6
		c-1.7-0.6-3.5-1.1-5.3-1.4c-0.6-0.1-1.3-0.3-2.2-0.7c-15.2-6.8-33.4-18.7-54.6-35.6c-12-9.5-21.1-15.4-27.5-17.8
		c-10.5-4-17.7-4.1-21.9-0.3c-4.1,3.7-3.9,8,0.5,12.9c7,7.7,30.5,18.1,70.6,31.2c-18.3-1.5-28.3-2.5-30.2-3.2c-2.3-1-7.2-1.3-14.6-1
		c-7.1,0.3-14.6-0.6-22.4-2.8c-7.8-2.2-15.6-4.2-23.4-6.2c-2.8-0.7-8-2.8-15.4-6c-23.9-10.7-42.3-16.6-55.1-17.8
		c-8-0.8-13.9,0.5-17.8,4c-0.7,0.6-1.4,1.4-2,2.2c1,3.3,2.6,6.2,4.8,8.7c2,2.3,4.6,4.2,7.8,5.7c6.6,3.4,12.9,5.7,19,7.1l11.4,2.5
		c8,2,21.2,4,39.7,6.1l6.5,0.8c-5.7,1.4-13.1,2.3-22.3,2.7c-9.2,0.4-16.7,1.4-22.6,3c-5.9,1.7-11.8,2.2-17.8,1.4
		c-3.1-0.4-5-0.4-5.7,0c-0.2,0.2-1.4,0.4-3.6,0.7c-20.7,2.7-31.3,4.2-31.9,4.5c-1,0.4-8.2,0.9-21.8,1.7c-3.4,0.2-9.1,1.1-17.1,2.8
		c-8,1.7-14.7,3.7-20,6c-5.3,2.3-9,4.3-10.9,6.1c-2.2,2-3.3,4.1-3.4,6.4c-0.4,3,0.3,5.4,1.9,7.2c0.6,0.6,1.3,1.2,2.1,1.7
		c3.1,1.9,6.2,2.7,9.3,2.4c3.1-0.3,5.5-0.5,7.3-0.8c3.2-0.5,7-0.8,11.2-0.9c9-0.2,17.7-1.8,26.1-4.8c3.4-1.3,6.8-2.4,10.1-3.4
		c6.3-1.7,12.4-4.4,18.4-8.2c1.8-1.1,6.4-3,13.8-5.5c2.7-0.9,4.4-1.4,5.1-1.5c-3,1.9-8.2,4.5-15.5,7.8c-7.4,3.3-14,6.5-20,9.7
		c-5.9,3.2-10.3,6-13,8.5c-1.7,1.5-3,3.1-4.1,4.6c-1.7,2.6-1.6,5,0.4,7.3c6.5,7.2,17.3,4.1,32.4-9.2l6.4-5.8
		c3.2-2.9,5.5-5.1,6.9-6.6c2.8-2.9,5.4-5.5,8-7.8c10.8-9.7,21.2-15,31.4-15.9c5.5-0.5,10.7-0.4,15.7,0.2c7.1,0.8,14.4,0.2,21.9-1.8
		c9.5-2.6,18.3-3.5,26.3-2.7c-20.6,7.6-32.2,11.8-34.9,12.6c-12,3.5-20.8,7.7-26.4,12.7c-3.4,3.1-5.5,6.9-6.3,11.2
		c-0.6,4-0.4,6.7,0.6,8.1c1,1.4,1.6,2.2,1.8,2.5c1.9,2.1,4.9,2.8,9,2.2c6.5-1.1,10.5-2.3,12.1-3.3c1.6-1.1,2.6-1.9,3.2-2.4
		c2-1.8,3.8-4,5.6-6.5c4.4-6.5,9.1-12.1,14.3-16.7c13.4-12,31.4-18.2,54-18.5c3.1-0.1,5.5,0.2,7.3,0.9c3.7,1.5,8.6,1.4,14.7-0.2
		c3.2-0.8,6-1.2,8.4-1.1c4.5,0.2,11.8,1.9,21.9,5c4.1,1.3,6.9,2.4,8.4,3.3c-6,1-12,1.6-17.9,2c-9.9,0.6-20.7,2.2-32.1,5.1
		c-13.1,3.4-21.9,7.1-26.4,11.2c-2.8,2.5-4.5,5.7-5.2,9.5c-0.6,3.2,0.5,6.3,3.1,9.2c1,1.1,2.3,2.3,3.8,3.4
		c7.4-1.3,13.9-3.4,19.6-6.2c5.7-2.9,13.8-7.6,24.3-14.2c5.1-3.1,12-6.1,20.8-9.2c12.7-4.3,22.3-5.7,28.8-4.1c3,0.8,5.7,1.6,8.1,2.4
		c3.7,1.4,6.1,2.6,7.2,3.5c0.7,0.5,1.5,1.2,2.5,2.1c0.9,0.9,2.4,2.2,4.4,4c4.3-0.6,7.4-1.7,9.1-3.2
		C580.3,453.1,580.2,450.7,577.8,447.9z M434.5,386.5c-2.7-3-2.9-5.4-0.7-7.4c2.5-2.2,7-2.1,13.6,0.2c8.1,2.8,14.6,6.8,19.4,12.2
		c1,1.1,1.7,2.3,1.9,3.4c-11-7.1-17.8-10-20.7-8.7c-0.1,1.3,0.4,2.6,1.5,3.8c1.4,1.5,3.6,3.1,6.7,4.7c3.4,1.8,5.4,2.8,6,3
		c1.2,0.3,4.2,1.9,9,4.7c3.5,2.1,5.6,3.4,6.1,4c0.4,0.4,0.7,0.9,0.9,1.5C453,398,438.4,390.9,434.5,386.5z M371.3,410.9
		c-6.5-1.2-13-2.6-19.4-4.3c-6.4-1.7-10.6-3-12.6-4c-1-0.5-2.6-1.5-4.7-2.9c-2.2-1.4-4-2.7-5.4-3.9c-1.4-1.2-2.5-2.1-3-2.7
		c-0.4-0.5-0.7-1-0.9-1.4c-0.1-0.4-0.3-0.8-0.6-1.1c-0.3-0.3-0.3-0.5-0.1-0.7c3.6-3.2,10.4-3.7,20.4-1.6c8.2,1.8,16.2,4.1,23.9,7
		c7.7,2.9,12.8,5.2,15.3,7c-1.7-0.2-3.6-0.5-5.7-1c-1.7-0.4-3.2-0.7-4.6-0.8c-3.4-0.5-7-1.4-10.7-2.6c-4.7-1.5-8.5-2.5-11.4-2.9
		c-2.5-0.4-4.8,0.3-6.7,2.1l1.2,1.4c1.3,1.4,4.4,2.6,9.3,3.7c3.1,0.6,6.9,1.5,11.5,2.8c9.4,2.7,15.5,5.1,18.2,7.1
		C382.5,412.4,377.8,412.1,371.3,410.9z M259.4,454.1c1.3,1.5,4.3,1.5,8.9,0c7.5-2.4,18.4-4.3,32.6-5.6c-3.4,1.8-8.6,3.8-15.6,5.9
		c-6.9,2.1-14.1,3.8-21.5,5.1c-7.4,1.3-13,1.7-16.7,1.2c-3.7-0.5-6.1-1.3-7.1-2.4c-0.9-1.1-1.2-2.4-0.7-4c0.3-1.1,0.8-2.1,1.8-2.9
		c2.5-2.3,7.4-3.8,14.5-4.7c29.2-3.8,44.9-5.4,47.1-5c-23.7,4.7-36.2,6.9-37.4,6.8c-2.1,0-3.9,0.6-5.2,1.8
		C258.5,451.6,258.3,452.9,259.4,454.1z M295.3,478.4c-2.6,0.3-4.4-0.2-5.5-1.4c-1.8-2-1.1-4.5,2.1-7.4c3.2-2.8,5.6-4,7.3-3.3
		c0.3,0.9,0.6,1.5,1,2c1.5,1.7,5.7,0.2,12.5-4.4c5.2-3.5,8.9-5.5,11.2-5.9C309.2,471.2,299.6,478,295.3,478.4z M402.4,454.4
		c-2,2.1-4.6,5.6-7.7,10.6c-1,1.7-2.4,3.3-4.2,4.9c-3.2,2.9-7.3,4.7-12.2,5.3l-3.4,0.4c-3.8-4.6-4.9-8.3-3.3-11
		c1.6-2.7,3.2-4.8,4.9-6.3c1.6-1.5,3.5-2.8,5.6-3.9c4.5-2.4,8.5-4.1,12-5.1c-0.3,2.3-1.9,4.8-4.7,7.3l-1.7,1.5
		c-1.9,1.7-3.2,3.1-4,4.3c-0.8,1.2-0.8,2.7,0,4.7c2-0.4,3.6-1.1,4.7-2.1c1.1-0.9,1.9-1.6,2.4-2.1c1.3-1.2,2.6-2.5,3.8-3.9
		c1.2-1.4,2.4-2.6,3.5-3.6c2.4-2.2,5-3.8,7.8-4.9C404.7,451.9,403.6,453.2,402.4,454.4z M473.3,463.6c3.5-0.8,6.8-1.9,10.1-3.5
		c1.4-0.7,2.7-1.3,3.9-1.8l-0.1,1.2l-1.8,1.8c-1.3,1.2-4.2,2.9-8.5,5.2c-9.9,5.1-16.6,7.6-20.2,7.5c-1.7,0-3-0.6-3.9-1.6
		c-1.6-1.8-1.8-4-0.6-6.6c0.5-1,1.2-1.9,2.2-2.7c2.2-2,5.4-3.9,9.7-5.7c6.2-2.6,12.4-4.7,18.7-6.4c6.3-1.6,10.5-2.3,12.7-2.1
		c-3.8,2.2-8.3,4.1-13.6,5.7c-5.1,1.9-8.7,3.1-11,3.6c-3,0.6-5.1,1.5-6.4,2.7C467,463.5,469.9,464.4,473.3,463.6z"/>
</g>
</svg>
