<?xml version="1.0" encoding="utf-8"?>
<!-- Generator: Adobe Illustrator 18.0.0, SVG Export Plug-In . SVG Version: 6.00 Build 0)  -->
<!DOCTYPE svg PUBLIC "-//W3C//DTD SVG 1.1//EN" "http://www.w3.org/Graphics/SVG/1.1/DTD/svg11.dtd">
<svg version="1.1" id="Layer_1" xmlns="http://www.w3.org/2000/svg" xmlns:xlink="http://www.w3.org/1999/xlink" x="0px" y="0px"
	 viewBox="0 0 720 720" style="enable-background:new 0 0 720 720;" xml:space="preserve">
<g>
	<path d="M175.7,570.2c0.2,0.3,0.4,0.7,0.4,1.4s-0.1,1.1-0.4,1.3c-4.3-0.1-7-0.2-8.3-0.2c-1.4,0-4.2,0.1-8.4,0.2
		c-0.2-0.2-0.3-0.6-0.3-1.3s0.1-1.1,0.3-1.4c2.4-0.2,3.9-0.6,4.5-1.3c0.6-0.7,0.9-2.5,0.9-5.4v-14.4c0-2.1-0.3-3.4-0.9-3.9
		c-0.6-0.5-1.9-0.9-4-1.1c-0.3-0.8-0.3-1.6-0.1-2.1c4.6-0.6,8-1.3,10.2-2.1c0.7,0,1,0.2,1,0.5c0,0.1,0,0.3,0,0.5
		c0,0.2,0,0.7-0.1,1.4c0,0.7-0.1,1.4-0.1,2c0,0.6-0.1,1.4-0.1,2.2c0,0.8,0,1.6,0,2.3v14.7c0,3,0.3,4.8,0.9,5.5
		C171.9,569.6,173.4,570.1,175.7,570.2z M167.2,532.1c1,0,1.9-0.4,2.7-1.2c0.8-0.8,1.2-1.6,1.2-2.4c0-0.9-0.4-1.8-1.1-2.6
		c-0.7-0.8-1.5-1.2-2.5-1.2c-0.9,0-1.8,0.4-2.6,1.1c-0.8,0.7-1.3,1.6-1.3,2.5c0,0.9,0.4,1.8,1.1,2.7
		C165.5,531.6,166.3,532.1,167.2,532.1z M230.9,568.9c-0.5-0.7-0.8-2.5-0.8-5.5v-11.6c0-3.8-0.5-6.7-1.6-8.7c-1-2-3.1-3-6.1-3
		c-1.3,0-2.7,0.2-4,0.5c-1.3,0.3-2.7,0.9-4.2,1.8c-1.5,0.8-2.8,1.9-4.1,3.2c-0.4,0.5-0.7,0.4-0.8,0c-0.4-1.6-1.2-2.9-2.6-3.9
		c-1.4-1-3-1.5-4.9-1.5c-3.7,0-7.5,2-11.3,6c0,0-0.1,0.1-0.2,0.2c-0.3,0.5-0.5,0.4-0.5-0.2c0-2.9-0.2-4.8-0.6-5.7
		c-0.2-0.4-0.5-0.6-0.9-0.6c-2.4,0.9-5.5,1.7-9.4,2.1c-0.2,0.6-0.1,1.3,0.1,2.1c2.1,0.2,3.4,0.6,4,1.1c0.6,0.5,0.9,1.8,0.9,3.9v14.4
		c0,2.9-0.3,4.7-0.9,5.4c-0.6,0.7-2,1.2-4.2,1.3c-0.2,0.3-0.3,0.7-0.3,1.4s0.1,1.1,0.3,1.3c4.1-0.1,6.7-0.2,8-0.2
		c0.8,0,3.2,0.1,7.4,0.2c0.2-0.2,0.3-0.7,0.3-1.3s-0.1-1.1-0.3-1.3c-1.4-0.1-2.4-0.4-2.9-0.6c-0.5-0.3-0.9-0.8-1.2-1.7
		c-0.3-0.9-0.4-2.3-0.4-4.4v-12.1c0-1.2,0.4-2.2,1.3-3.1c3-2.9,5.6-4.4,8-4.4c3.3,0,4.9,2.3,4.9,6.7v12.8c0,3-0.2,4.8-0.7,5.5
		c-0.5,0.7-1.8,1.1-3.9,1.3c-0.2,0.3-0.3,0.7-0.3,1.4s0.1,1.1,0.3,1.3c4.2-0.1,6.7-0.2,7.6-0.2c0.6,0,3,0.1,7.3,0.2
		c0.2-0.2,0.3-0.7,0.3-1.3c0-0.7-0.1-1.1-0.3-1.3c-1.9-0.2-3.2-0.6-3.7-1.3c-0.5-0.7-0.7-2.5-0.7-5.5v-11.7c0-1.4,0-2.4-0.1-3
		c3-3.3,6.3-4.9,9.9-4.9c1.5,0,2.6,0.5,3.3,1.5c0.7,1,1.1,2.7,1.1,5.1v13c0,2.9-0.3,4.7-0.8,5.4c-0.5,0.7-1.8,1.2-3.8,1.3
		c-0.2,0.2-0.3,0.6-0.3,1.3s0.1,1.1,0.3,1.4c4.2-0.1,6.7-0.2,7.6-0.2c0.8,0,3.4,0.1,7.7,0.2c0.2-0.3,0.3-0.7,0.3-1.4
		s-0.1-1.1-0.3-1.3C232.8,570.1,231.5,569.6,230.9,568.9z M267.9,544.6c2.5,3,3.8,6.5,3.8,10.6c0,5.8-1.8,10.5-5.5,14.1
		c-2.9,2.8-6.6,4.2-11,4.2c-2.4,0-4.6-0.4-6.5-1.2c-0.4-0.2-0.7-0.3-0.8-0.2c-0.1,0-0.2,0.3-0.2,0.8v8c0,3,0.3,4.8,1,5.5
		c0.7,0.7,2.4,1.1,5.1,1.3c0.2,0.3,0.4,0.7,0.4,1.4s-0.1,1.1-0.4,1.3c-4.3-0.1-7.3-0.2-9-0.2c-1.4,0-4.2,0.1-8.4,0.2
		c-0.2-0.2-0.3-0.6-0.3-1.3s0.1-1.1,0.3-1.4c2.3-0.1,3.8-0.5,4.4-1.2c0.6-0.7,0.9-2.6,0.9-5.5v-31.6c0-2.1-0.3-3.4-0.9-3.9
		c-0.6-0.5-1.9-0.9-4-1.1c-0.3-0.8-0.3-1.6-0.1-2.1c3.9-0.5,7-1.2,9.4-2.1c0.4,0,0.7,0.2,0.9,0.6c0.4,0.9,0.6,2.5,0.6,4.9
		c0,0.2,0.1,0.4,0.2,0.5c0.1,0.1,0.3,0,0.4-0.1c3.2-3.7,6.6-5.6,10.2-5.6C262.2,540.1,265.4,541.6,267.9,544.6z M265.3,557.2
		c0-4-0.9-7.3-2.6-9.9c-1.7-2.5-3.8-3.8-6.3-3.8c-1,0-2.3,0.5-3.8,1.4c-1.5,0.9-2.7,2-3.7,3.2c-0.8,1-1.2,2.1-1.2,3.2v13.5
		c0,0.9,0,1.6,0.1,2.1c0.1,0.5,0.3,0.9,0.5,1.2c0.2,0.3,0.6,0.7,1.2,1.2c0.6,0.5,1.4,0.9,2.5,1.2c1,0.3,2,0.4,2.8,0.4
		c2,0,3.7-0.4,5.1-1.2c1.4-0.8,2.5-1.9,3.3-3.3c0.7-1.4,1.3-2.8,1.6-4.3C265.1,560.5,265.3,558.9,265.3,557.2z M305.4,567
		c-3.3,4.3-7.5,6.5-12.7,6.5c-5,0-8.8-1.6-11.5-4.8c-2.3-2.7-3.5-6.4-3.5-11c0-5.3,1.6-9.5,4.8-12.7c3.2-3.2,6.6-4.8,10.2-4.8
		c8.4,0,12.6,4.3,12.6,12.9c0,0.9-0.5,1.3-1.4,1.3l-19.8-0.1c0,4.2,0.8,7.6,2.4,10.2c2.2,3.6,4.9,5.3,8.1,5.3c2.1,0,3.8-0.3,5.1-0.9
		c1.3-0.6,2.7-1.6,4.1-3.1C304.7,565.9,305.2,566.3,305.4,567z M284.4,551.6l13.5-0.2c0.7,0,1.1-0.3,1.1-1c0-2.7-0.6-4.7-1.8-5.8
		s-2.7-1.7-4.4-1.7c-0.7,0-1.3,0.1-1.9,0.2c-0.6,0.2-1.4,0.5-2.3,1c-0.9,0.5-1.8,1.4-2.5,2.7C285.2,548.2,284.7,549.8,284.4,551.6z
		 M330.4,540.1c-1.6,0-3.1,0.6-4.6,1.8c-1.5,1.2-2.7,2.7-3.7,4.3c-0.2,0.3-0.4,0.5-0.5,0.4c-0.1-0.1-0.1-0.3-0.1-0.5
		c0-2.9-0.2-4.8-0.6-5.7c-0.2-0.4-0.5-0.6-0.9-0.6c-2.4,0.9-5.5,1.7-9.4,2.1c-0.2,0.6-0.1,1.3,0.1,2.1c2.1,0.2,3.4,0.6,4,1.1
		c0.6,0.5,0.9,1.8,0.9,3.9v14.4c0,3-0.3,4.8-0.9,5.5c-0.6,0.7-2.2,1.1-4.6,1.3c-0.2,0.3-0.3,0.7-0.3,1.4s0.1,1.1,0.3,1.3
		c4.2-0.1,7-0.2,8.5-0.2c1.7,0,4.7,0.1,9,0.2c0.2-0.2,0.4-0.6,0.4-1.3s-0.1-1.1-0.4-1.4c-2.7-0.2-4.4-0.7-5.1-1.3
		c-0.7-0.7-1-2.5-1-5.4v-10.3c0-1.5,0.6-3.2,1.8-4.9c1.7-2.4,2.8-3.6,3.4-3.6c0.7,0,1.2,0.2,1.6,0.5c0.1,0.1,0.3,0.3,0.6,0.6
		c0.3,0.3,0.5,0.6,0.7,0.7c0.2,0.2,0.4,0.3,0.8,0.5c0.4,0.2,0.7,0.3,1,0.3c0.9,0,1.7-0.4,2.4-1.2c0.7-0.8,1.1-1.6,1.1-2.6
		c0-0.8-0.4-1.7-1.2-2.4C332.9,540.5,331.8,540.1,330.4,540.1z M364.2,528.3c0.7-0.6,1-1.3,1-2.1c0-1.3-0.8-2.6-2.4-3.8
		c-1.5-1.1-3.6-1.6-6.6-1.6c-3.5,0-6.5,1.5-9.2,4.5c-2.7,3-4,7.2-4,12.6v3h-3.8c-1.1,0-1.7,0.5-1.7,1.4v0.9c0,0.3,0.1,0.4,0.4,0.4
		h5.1v19.9c0,3-0.3,4.8-0.8,5.5c-0.6,0.7-1.9,1.1-4,1.3c-0.2,0.3-0.4,0.7-0.4,1.4s0.1,1.1,0.4,1.3c4.2-0.1,6.8-0.2,7.9-0.2
		c1.6,0,4.5,0.1,8.8,0.2c0.2-0.2,0.3-0.6,0.3-1.3s-0.1-1.1-0.3-1.4c-2.6-0.2-4.2-0.6-4.9-1.3c-0.7-0.7-1-2.5-1-5.5v-19.9h6.9
		c1.1,0,1.7-0.3,1.7-0.9v-1.4c0-0.3-0.2-0.4-0.6-0.4h-8v-4.2c0-8.8,2-13.2,5.9-13.2c1.1,0,2,0.3,2.7,0.8c0.7,0.5,1.3,1.4,1.7,2.6
		c0.7,1.6,1.7,2.3,2.9,2.3C362.8,529.2,363.5,528.9,364.2,528.3z M389.4,567c-3.3,4.3-7.5,6.5-12.7,6.5c-5,0-8.8-1.6-11.5-4.8
		c-2.3-2.7-3.5-6.4-3.5-11c0-5.3,1.6-9.5,4.8-12.7c3.2-3.2,6.6-4.8,10.2-4.8c8.4,0,12.6,4.3,12.6,12.9c0,0.9-0.5,1.3-1.4,1.3
		l-19.8-0.1c0,4.2,0.8,7.6,2.4,10.2c2.2,3.6,4.9,5.3,8.1,5.3c2.1,0,3.8-0.3,5.1-0.9c1.3-0.6,2.7-1.6,4.1-3.1
		C388.7,565.9,389.2,566.3,389.4,567z M368.3,551.6l13.5-0.2c0.7,0,1.1-0.3,1.1-1c0-2.7-0.6-4.7-1.8-5.8c-1.2-1.1-2.7-1.7-4.4-1.7
		c-0.7,0-1.3,0.1-1.9,0.2c-0.6,0.2-1.4,0.5-2.3,1c-0.9,0.5-1.8,1.4-2.5,2.7C369.2,548.2,368.7,549.8,368.3,551.6z M420.7,565
		c-2.5,3.2-5.5,4.9-8.9,4.9c-2.8,0-5.1-1.3-7.1-3.9c-1.9-2.6-2.9-6-2.9-10.2c0-4,0.8-7.2,2.4-9.5c1.6-2.3,3.6-3.5,6.1-3.5
		c1.4,0,2.5,0.3,3.3,0.8c0.8,0.6,1.3,1.1,1.5,1.7c0.2,0.6,0.4,1.4,0.5,2.5c0.2,1.7,1.1,2.6,2.8,2.6c0.9,0,1.7-0.3,2.4-0.9
		s1.2-1.4,1.2-2.4c0-2.1-1-3.8-3-5.1c-2-1.3-4.8-2-8.3-2c-3.9,0-7.5,1.6-10.6,4.9c-3.1,3.2-4.7,7.4-4.7,12.4c0,4.9,1.3,8.8,3.9,11.7
		c2.6,2.9,6.2,4.4,10.8,4.4c2.5,0,4.7-0.5,6.6-1.6c1.9-1,3.7-3,5.5-5.9C422,565.4,421.5,565.1,420.7,565z M445.6,567.3
		c-1.8,1.4-3.8,2.1-6.1,2.1c-0.9,0-1.6-0.5-1.9-1.6c-0.4-1.1-0.5-2.9-0.5-5.3v-19h7.7c1.2,0,1.8-0.3,1.8-0.9v-1.4
		c0-0.3-0.2-0.4-0.6-0.4h-8.9v-2.9c0-3.2,0.1-5.9,0.3-7.9c0-0.4-0.2-0.7-0.6-0.7c-0.1,0-0.4,0.1-0.7,0.2c-0.3,0.1-0.7,0.3-1.2,0.6
		c-0.5,0.2-0.8,0.4-1.1,0.5c-0.2,0.1-0.6,0.2-1,0.3c-0.4,0.1-0.7,0.2-0.9,0.3c-0.2,0.1-0.4,0.2-0.6,0.3c-0.2,0.1-0.3,0.3-0.3,0.5
		c0,0.1,0,0.3,0,0.4c0,0.1,0,0.4,0.1,0.7c0,0.3,0,0.7,0.1,1.2c0,0.5,0,1.3,0.1,2.4c0,1.1,0,2.4,0,3.9h-3.4c-0.9,0-1.3,0.5-1.3,1.4
		v0.9c0,0.3,0.1,0.4,0.4,0.4h4.4v22.6c0,4.9,1.9,7.4,5.7,7.4c3.8,0,7.1-1.6,10-4.9C446.8,567.8,446.4,567.4,445.6,567.3z"/>
	<path d="M485,570.2c0.2,0.3,0.3,0.7,0.3,1.4s-0.1,1.1-0.3,1.3c-4.3-0.1-7-0.2-8.3-0.2c-1.4,0-4.1,0.1-8.3,0.2
		c-0.2-0.2-0.4-0.6-0.4-1.3s0.1-1.1,0.4-1.4c2.3-0.1,3.8-0.5,4.4-1.2c0.6-0.7,0.9-2.6,0.9-5.5v-32.4c0-1.6,0-2.8-0.1-3.6
		c-0.1-0.8-0.4-1.4-0.9-1.7c-0.5-0.4-1-0.6-1.3-0.6c-0.3,0-1.1-0.1-2.5-0.2c-0.6-0.6-0.7-1.3-0.4-2.2c4.4-0.3,7.9-1,10.5-2
		c0.7,0,1,0.3,1,0.8c-0.2,2-0.3,4.6-0.3,7.8v34.1c0,3,0.3,4.8,0.9,5.5C481.2,569.7,482.7,570.1,485,570.2z M496.6,532.1
		c1,0,1.9-0.4,2.7-1.2c0.8-0.8,1.2-1.6,1.2-2.4c0-0.9-0.4-1.8-1.1-2.6c-0.7-0.8-1.5-1.2-2.5-1.2c-0.9,0-1.8,0.4-2.6,1.1
		c-0.8,0.7-1.3,1.6-1.3,2.5c0,0.9,0.4,1.8,1.1,2.7C494.9,531.6,495.7,532.1,496.6,532.1z M500.7,568.9c-0.6-0.7-0.9-2.5-0.9-5.5
		v-14.7c0-0.7,0-1.5,0-2.3c0-0.8,0-1.6,0.1-2.2c0-0.6,0.1-1.3,0.1-2c0-0.7,0-1.2,0.1-1.4c0-0.2,0-0.4,0-0.5c0-0.3-0.3-0.5-1-0.5
		c-2.2,0.8-5.6,1.5-10.2,2.1c-0.2,0.6-0.1,1.3,0.1,2.1c2.1,0.2,3.4,0.6,4,1.1c0.6,0.5,0.9,1.8,0.9,3.9v14.4c0,3-0.3,4.8-0.9,5.4
		c-0.6,0.7-2.1,1.1-4.5,1.3c-0.2,0.3-0.3,0.7-0.3,1.4s0.1,1.1,0.3,1.3c4.2-0.1,7-0.2,8.4-0.2c1.2,0,4,0.1,8.3,0.2
		c0.2-0.2,0.4-0.6,0.4-1.3s-0.1-1.1-0.4-1.4C502.8,570.1,501.3,569.6,500.7,568.9z M534.7,528.3c0.7-0.6,1-1.3,1-2.1
		c0-1.3-0.8-2.6-2.4-3.8c-1.5-1.1-3.6-1.6-6.6-1.6c-3.5,0-6.5,1.5-9.2,4.5c-2.7,3-4,7.2-4,12.6v3h-3.8c-1.1,0-1.7,0.5-1.7,1.4v0.9
		c0,0.3,0.1,0.4,0.4,0.4h5.1v19.9c0,3-0.3,4.8-0.8,5.5c-0.6,0.7-1.9,1.1-4,1.3c-0.2,0.3-0.4,0.7-0.4,1.4s0.1,1.1,0.4,1.3
		c4.2-0.1,6.8-0.2,7.9-0.2c1.6,0,4.5,0.1,8.8,0.2c0.2-0.2,0.3-0.6,0.3-1.3s-0.1-1.1-0.3-1.4c-2.6-0.2-4.2-0.6-4.9-1.3
		c-0.7-0.7-1-2.5-1-5.5v-19.9h6.9c1.1,0,1.7-0.3,1.7-0.9v-1.4c0-0.3-0.2-0.4-0.6-0.4h-8v-4.2c0-8.8,2-13.2,5.9-13.2
		c1.1,0,2,0.3,2.7,0.8c0.7,0.5,1.3,1.4,1.7,2.6c0.7,1.6,1.7,2.3,2.9,2.3C533.4,529.2,534.1,528.9,534.7,528.3z M560,567
		c-3.3,4.3-7.5,6.5-12.7,6.5c-5,0-8.8-1.6-11.5-4.8c-2.3-2.7-3.5-6.4-3.5-11c0-5.3,1.6-9.5,4.8-12.7c3.2-3.2,6.6-4.8,10.2-4.8
		c8.4,0,12.6,4.3,12.6,12.9c0,0.9-0.5,1.3-1.4,1.3l-19.8-0.1c0,4.2,0.8,7.6,2.4,10.2c2.2,3.6,4.9,5.3,8.1,5.3c2.1,0,3.8-0.3,5.1-0.9
		c1.3-0.6,2.7-1.6,4.1-3.1C559.2,565.9,559.8,566.3,560,567z M538.9,551.6l13.5-0.2c0.7,0,1.1-0.3,1.1-1c0-2.7-0.6-4.7-1.8-5.8
		c-1.2-1.1-2.7-1.7-4.4-1.7c-0.7,0-1.3,0.1-1.9,0.2c-0.6,0.2-1.4,0.5-2.3,1c-0.9,0.5-1.8,1.4-2.5,2.7
		C539.8,548.2,539.3,549.8,538.9,551.6z"/>
	<path d="M259.5,140.7c-3.6,4.2-6.5,9.1-8.8,14.7c-2.3,5.6-4.2,11.7-5.7,18.3c-1.5,6.5-2.8,13.4-3.9,20.5
		c-1.1,7.1-2.2,14.3-3.4,21.6c-1.2,7.3-2.7,14.5-4.3,21.5c-1.6,7-3.7,13.7-6.3,20c-2.1,4.9-4.5,8.8-7.1,11.7
		c-2.7,2.8-5.4,4.4-8.2,4.6c-2.8,0.2-5.6-0.8-8.2-3.2c-2.7-2.4-4.9-6.4-6.8-12c-2.2-5.7-3.7-11.5-4.5-17.3
		c-0.8-5.9-1.4-11.7-1.8-17.5c-0.2-3-0.4-5.9-0.5-8.9c-0.1-3,0-5.9,0.1-8.9c0-1.7,0-3.5,0.1-5.4c0.1-1.9,0.2-3.7,0.3-5.6
		c-1.9,7-3.7,13.9-5.6,20.6c-1.9,6.7-4.2,13.2-7,19.6c-2.6,5.9-5.4,9.9-8.4,11.8c-3,1.9-5.8,2.4-8.4,1.4c-2.6-1-4.8-3.3-6.5-6.9
		c-1.7-3.6-2.6-8-2.6-13.2c-0.5-9.6-0.2-19.2,0.7-28.8c1-9.6,1.5-19.1,1.5-28.6c0-1.9,0-3.8-0.1-5.7c-0.1-2-0.2-3.9-0.6-5.7
		c-0.3-1.8-0.8-3.5-1.5-5c-0.7-1.5-1.7-2.8-3.1-3.8c-1.4-1.1-2.9-1.5-4.5-1.2c-1.7,0.3-3.3,1-4.9,2.1c-1.6,1.1-3.2,2.5-4.6,4.3
		c-1.5,1.7-2.7,3.4-3.5,5c-2.2,4-3.6,7.6-4.2,10.8c-0.6,3.3-0.2,6,1,8.1c0.7,1.2,1.6,2,2.6,2.2c1,0.2,2,0.2,3-0.3
		c1-0.4,1.9-1.1,2.7-1.9c0.8-0.9,1.4-1.9,1.8-3c0.4-1.2,1-2,1.9-2.4c0.9-0.4,1.8-0.4,2.6,0c0.8,0.4,1.4,1,1.7,1.9
		c0.3,0.9,0.1,2.1-0.6,3.4c-1,1.9-2.3,3.4-4.1,4.5c-1.7,1.2-3.6,1.9-5.5,2.1c-1.9,0.2-3.8,0-5.6-0.6c-1.8-0.7-3.2-1.9-4.4-3.8
		c-0.5-0.7-0.9-1.8-1.3-3.1c-0.4-1.3-0.5-2.9-0.5-4.8c0.1-1.9,0.5-4.1,1.2-6.7c0.7-2.5,2-5.4,3.7-8.6c1.5-2.6,3.2-4.9,5.2-7
		c2-2.1,4.1-3.8,6.4-5.1c2.3-1.3,4.6-2.2,7-2.6c2.4-0.4,4.7-0.4,6.8,0.1c1.1,0.4,2.4,1,3.9,1.9c1.5,0.9,2.8,2.3,4.1,4.2
		c1.2,1.9,2.3,4.5,3.1,7.7c0.8,3.2,1.1,7.2,1,12c-0.4,10.9-1,21.3-1.8,31.3c-0.8,10-1,20-0.5,29.8c0.4,6.9,1.5,11.2,3.3,12.8
		c2-0.9,3.6-2.4,4.7-4.6s2.2-4.2,3.1-5.9c2.8-7,5.2-13.8,7-20.4l5.6-19.6c1-3.2,1.9-6.2,2.9-9.1c0.9-2.8,2.1-5.6,3.4-8.3
		c0.6-1.2,1.4-2.4,2.2-3.4c0.9-1,1.9-1.9,3-2.5c1.1-0.6,2.3-1,3.5-1c1.2-0.1,2.5,0.3,3.9,1c0.9,0.6,1.4,1.4,1.6,2.3
		c0.2,0.9-0.3,1.6-1.4,1.9c-0.5,0.4-1.2,1.9-2,4.6c-0.9,2.7-1.6,7.6-2.2,14.6c-0.6,5.9-0.9,12.2-0.7,18.7c0.1,6.5,0.5,12.9,1.1,19.1
		c0.5,4.8,1.1,9.2,1.9,13.3c0.8,4,1.7,7.6,2.7,10.8c1.5,4.6,3.1,7.6,4.8,9c1.7,1.4,3.4,1.9,5,1.3c1.6-0.6,3.1-1.8,4.4-3.6
		c1.3-1.9,2.3-3.8,2.9-5.7c2.2-5.8,4.1-12.2,5.6-19.1c1.5-6.9,2.8-14,4.1-21.2c1.2-7.2,2.4-14.5,3.6-21.9c1.2-7.4,2.6-14.5,4.3-21.3
		c1.7-6.9,3.6-13.3,5.8-19.4s5-11.4,8.3-16.1c1.7-2.2,3.8-3.9,6.1-5.1c2.3-1.2,4.8-1.9,7.3-2.1s5,0,7.4,0.8c2.4,0.8,4.5,2.1,6.2,3.8
		c1,1,1.5,2,1.4,3.1c-0.1,1-0.4,1.9-1.1,2.5s-1.6,1-2.7,1.1c-1.1,0.1-2.1-0.3-3-1.3C270,134.8,264.3,135.1,259.5,140.7z
		 M597.3,219.6c0,0.1-0.4,0.7-1.1,1.9c-0.7,1.1-1.7,2.6-2.9,4.4c-1.2,1.8-2.6,3.8-4.3,6s-3.5,4.5-5.5,6.9c-2.1,2.6-4.4,5.1-6.9,7.4
		c-2.5,2.3-5.2,4.4-8.2,6.1c-2.6,1.5-5.3,2.4-8.2,2.7c-2.9,0.3-5.6,0-8.1-0.9c-2.5-0.9-4.7-2.5-6.6-4.6c-1.9-2.2-3.2-5-3.8-8.4
		c-0.3-1.6-0.6-3.4-0.7-5.1c-0.1,0.4-0.3,0.7-0.4,1.1c-2.2,5.3-4.3,9.8-6.1,13.5c-0.7,1.5-1.6,3.1-2.6,4.8c-1,1.7-2.1,3.3-3.3,4.7
		c-1.2,1.4-2.6,2.6-4.1,3.5c-1.5,0.9-3.2,1.4-5,1.4c-1.9,0-3.3-0.5-4.4-1.6c-1.1-1-2-2.3-2.6-3.8c-0.6-1.5-1-3.1-1.2-4.7
		c-0.2-1.7-0.3-3.2-0.3-4.5c0-0.7,0.1-2.7,0.4-5.7c0.2-3.1,0.5-6.6,0.6-10.6c0.2-4,0.3-8.1,0.5-12.4c0.1-4.3,0.1-8.1-0.2-11.4
		c-0.2-3.3-0.7-5.7-1.5-7.3c-0.7-1.6-1.8-1.7-3.2-0.4c-2,2.1-3.7,4.8-5.3,8c-1.5,3.2-2.8,6.6-3.9,10.2c-1.1,3.6-1.9,7.1-2.4,10.7
		c-0.6,3.5-0.7,6.6-0.5,9.2c-0.1,1.5-0.6,2.6-1.4,3.2c-0.8,0.7-1.7,1-2.8,1s-2.1-0.2-3.2-0.7c-1.1-0.5-2-1.2-2.8-2
		c-1.4-1.6-2.2-4-2.6-7c-0.4-3.1-0.7-6.4-0.9-10c-0.1-1.9-0.3-3.7-0.5-5.5s-0.4-3.4-0.6-4.9c-0.1-1-0.3-1.8-0.5-2.4
		c-0.2-0.6-0.4-1.1-0.6-1.5c-3,3-5.7,8.6-8.2,16.9c-1,3.6-1.8,7.1-2.5,10.5c-0.7,3.4-1,6.8-1,10.1c-0.5,1.4-1.3,2.3-2.3,3
		s-2.1,0.9-3.2,0.7s-2.2-0.5-3.2-1.2c-1.1-0.7-1.8-1.6-2.1-2.9c-1.2-3.6-2-7.6-2.4-12c-0.2-2.8-0.4-5.5-0.4-8.1
		c-1.5,2.3-3.4,4.6-5.6,7c-2.3,2.4-5.1,4.4-8.4,6c-3.1,1.5-5.8,2-8.2,1.7c-1.1,3.5-3,6.5-5.7,9.1c-2.7,2.6-5.7,4.4-9.1,5.4
		c-3.3,1-6.7,1-10.2,0.2c-3.5-0.9-6.5-3-9.1-6.3c-1.7-2.3-3.1-5.3-4-8.8c-0.9-3.4-1.3-7.2-1.2-11.3c-0.2,0.4-0.5,0.8-0.7,1.2
		c-1.4,2.2-2.8,4.5-4.4,6.9c-1.6,2.2-3.3,4.4-5,6.7c-1.7,2.2-3.6,4.2-5.6,6s-4.1,3.2-6.3,4.3c-2.2,1.1-4.6,1.6-7,1.6
		c-4.3-0.2-7.8-1.6-10.5-4.2c-2.7-2.5-4.5-5.7-5.5-9.4c-1-3.3-1.5-6.8-1.5-10.5c-1.4,3-2.7,5.9-4,8.5c-3.1,6.3-6.1,11.7-8.9,16.1
		c-2.5,4-5.2,7-8.1,9.2s-5.7,3.3-8.3,3.3c-2.7,0.1-5-1.1-7.1-3.3c-2.1-2.3-3.6-5.8-4.4-10.7c-1-4.4-1.6-9.8-1.9-16
		c-0.2-4.5-0.3-9.3-0.2-14.5c0,0.1-0.1,0.1-0.1,0.2c-1.2,1.8-2.6,3.8-4.3,6c-1.7,2.2-3.5,4.5-5.5,6.9c-2.1,2.6-4.4,5.1-6.9,7.4
		c-2.5,2.3-5.2,4.4-8.2,6.1c-2.6,1.5-5.3,2.4-8.2,2.7c-2.9,0.3-5.6,0-8.1-0.9c-2.5-0.9-4.7-2.5-6.6-4.6c-1.9-2.2-3.2-5-3.8-8.4
		c-0.6-3-0.9-6.2-0.7-9.6c0.1-3.5,0.6-6.9,1.5-10.4c1.1-4.4,2.9-8.7,5.4-12.9c2.5-4.1,6.1-7.2,10.7-9.2c3.3-1.4,6.5-1.9,9.5-1.5
		s5.4,1.4,7.3,3.1c1.9,1.7,3.1,4,3.4,6.9c0.4,2.8-0.4,6.1-2.4,9.6c-1,1.9-2.6,3.6-4.8,5.4c-2.2,1.7-4.8,3.3-7.6,4.6
		c-4.6,2.1-8.6,3.1-12.2,3.1c-0.2,3.3-0.1,6.6,0.6,9.8c0.4,1.9,1,3.6,1.8,5.1c0.8,1.5,1.8,2.7,3,3.5c1.2,0.8,2.6,1.2,4.2,1.2
		c1.6,0,3.4-0.6,5.4-1.7c4-2.2,8.5-6.4,13.5-12.4c1.9-2.2,3.6-4.4,5.2-6.6c1.6-2.2,3-4.1,4.2-5.9c1.2-1.8,2.1-3.2,2.9-4.3l1.1-1.6
		c0,0,0-0.1,0.1-0.1c0.1-4.4,0.4-9.2,0.8-14.4c0.4-6.1,1.2-12.3,2.3-18.4c1.1-6.2,2.7-12.1,4.7-17.9c2-5.7,4.8-10.8,8.4-15.1
		c2.3-2.7,5.3-4.8,8.7-6.1c3.5-1.4,6.8-1.8,9.9-1.4c3.2,0.4,5.8,1.9,8.1,4.3c2.2,2.4,3.3,6,3.3,10.7c0,4.1-0.8,8.8-2.4,14.1
		c-1.6,5.3-3.8,10.7-6.7,16.3c-3.7,7-7.9,13.2-12.5,18.4c-4.6,5.3-9.4,9.1-14.2,11.6v0.2c-0.2,6.3-0.2,12.2,0.1,17.7
		c0.3,5.5,0.8,10.4,1.4,14.7c1.2,7.7,3.1,11.5,5.5,11.5c2.4,0,5.6-3.1,9.5-9.3c3.5-5.3,6.5-10.9,9.1-16.8c2.6-5.9,5.5-12.5,8.7-19.9
		c0.1-0.2,0.1-0.4,0.2-0.5c0.3-1.2,0.7-2.3,1.1-3.4c1.1-3.1,2.5-5.7,4.3-7.8c1.9-2.2,3.9-3.9,6.2-5.1c2.3-1.2,4.6-1.9,6.9-2
		c2.3-0.2,4.5,0.1,6.6,0.9c2,0.8,3.7,2.1,5.1,4c1.4,1.7,2,3.6,1.9,5.7s-0.4,4.1-1,5.9c-0.4,1.4-1.1,2.8-2.1,4.3
		c-1.1,1.5-2.3,2.2-3.8,2.2c-0.6,0-1.1-0.2-1.6-0.6c-0.4-0.4-0.6-1-0.6-1.6s0.2-1.1,0.6-1.6c0.4-0.4,0.9-0.6,1.5-0.6
		c0.2-0.2,0.5-0.6,0.8-1c0.3-0.4,0.6-1.1,1-2.1c1-2.7,1.1-4.8,0.5-6.3c-0.7-1.5-1.7-2.4-3.2-2.8c-1.4-0.4-3.1-0.2-4.9,0.5
		c-1.9,0.7-3.4,1.9-4.6,3.8c-2.5,3.5-4.2,8-5.2,13.5c-0.6,3.2-0.9,6.4-0.9,9.5c0,3.1,0.3,6.1,0.9,8.8c0.4,1.5,1.1,3.3,2.2,5.5
		s2.7,3.6,4.8,4.4c2.5,0.7,5.3-0.2,8.6-2.7c3.3-2.5,6.8-6.6,10.5-12.1c1.6-2.2,3.1-4.4,4.4-6.7c1.3-2.2,2.4-4.2,3.4-5.9
		c1.1-2.1,2.1-4.1,3-6.1c0-0.1,0.1-0.1,0.1-0.2c1.1-3.9,2.7-7.4,4.8-10.5c2.3-3.3,5.2-5.8,8.7-7.5c3.5-1.7,7.8-2,12.9-0.9
		c2.2,0.5,4.4,1.5,6.4,3.2c2,1.6,3.2,3.6,3.6,6.1c0.2,0.6,0.2,1.2-0.2,1.7c-0.4,0.5-0.9,0.8-1.5,0.9c-0.6,0.2-1.2,0.2-1.7-0.1
		c-0.5-0.3-0.8-0.8-0.9-1.4c0-1.7-1-3.2-2.9-4.4c-1.9-1.2-3.7-1.8-5.5-1.8c-2.7,0-5,1.1-6.9,3.3s-3.5,4.9-4.6,8
		c-1.2,3.1-2,6.3-2.6,9.5c-0.6,3.3-0.8,6-0.8,8.1c0,6.1,1.1,11,3.2,14.8c1.6,2.8,3.5,4.6,5.6,5.2c2.1,0.6,4.2,0.5,6.2-0.3
		c2-0.8,3.9-2.2,5.7-4.2c1.7-2,3-4.1,3.7-6.5c-0.2-0.2-0.5-0.4-0.7-0.6c-1.4-1.1-2.5-2.6-3.3-4.4c-0.9-1.8-1.5-3.7-1.9-5.7
		c-0.4-2-0.5-4.1-0.4-6.2c0.1-2.1,0.4-4,0.9-5.7c1.2-4,3.2-6.1,5.9-6.3c0.6-0.1,1.4-0.1,2.2,0.2c0.9,0.2,1.7,0.9,2.4,2
		c0.6,1,1.1,2.1,1.5,3.4c0.4,1.3,0.6,2.7,0.6,4.1s0.1,2.7,0.1,4c0,1.2-0.1,2.2-0.2,3c-0.1,3.2-0.7,6.4-1.7,9.6
		c1.6,0,3.2-0.4,4.8-1.3c2.8-1.4,5.3-3.2,7.3-5.4c2-2.2,3.7-4.4,5.1-6.5c1.5-2.3,2.8-4.8,3.9-7.4c0-0.1,0.1-0.2,0.1-0.2
		c0.1-1.4,0.2-2.7,0.3-3.9c0.3-2.8,0.5-4.3,0.5-4.5c0.4-2.3,1.3-4,2.7-5c1.4-1,2.8-1.4,4.2-1.3c2.7,0.2,4.1,1.4,4.1,3.5
		c0,0.2-0.1,1.3-0.4,3.1c-0.2,1.8-0.5,4-0.6,6.7c-0.2,2.7-0.3,5.7-0.5,9.1c-0.1,3.4,0,6.8,0.4,10.1c0.2-1.4,0.5-2.7,0.8-4.2
		c0.3-1.4,0.7-2.9,1.2-4.4c1.5-5.3,3.2-9.7,5.2-13.1s4-5.9,6.1-7.5c1.9-1.4,3.9-2,6.1-1.9c2.2,0.1,3.8,1.1,4.8,3
		c1.1,2,1.8,4.5,2.1,7.5c0.3,3,0.6,6.2,0.8,9.5c0,0.5,0,1,0.1,1.4c0.1,0.4,0.1,0.9,0.1,1.4c1-4.9,2.5-9.9,4.5-15
		c2-5.1,4.5-9.1,7.3-12.2c1.5-1.6,3.1-2.8,4.8-3.5c1.7-0.7,3.4-1,5-0.8c1.6,0.2,3.1,0.8,4.4,1.8c1.4,1,2.3,2.4,3,4.3
		c1.2,3.3,1.9,7.1,2,11.2c0.1,4.1,0,8.4-0.3,12.9c-0.3,4.4-0.7,8.8-1.2,13.2c-0.5,4.3-0.7,8.3-0.7,11.9c0,3.1,0.2,5.2,0.6,6.4
		c0.4,1.2,0.7,1.9,0.9,2.1c0.7-0.4,1.7-1.3,2.9-2.8c1.2-1.5,2.8-4.3,4.9-8.3c1.9-3.6,3.9-7.9,6-13.1c2.2-5.1,4.4-10.8,6.6-17.1
		c0.1-0.1,0.1-0.2,0.2-0.3c1.1-3.1,2.5-6.1,4.2-9c2.5-4.1,6.1-7.2,10.7-9.2c3.3-1.4,6.5-1.9,9.5-1.5c3,0.4,5.4,1.4,7.3,3.1
		c1.9,1.7,3.1,4,3.4,6.9c0.4,2.8-0.4,6.1-2.4,9.6c-1,1.9-2.6,3.6-4.8,5.4c-2.2,1.7-4.8,3.3-7.6,4.6c-4.6,2.1-8.6,3.1-12.2,3.1
		c-0.2,3.3-0.1,6.6,0.6,9.8c0.4,1.9,1,3.6,1.8,5.1c0.8,1.5,1.8,2.7,3,3.5c1.2,0.8,2.6,1.2,4.2,1.2c1.6,0,3.4-0.6,5.4-1.7
		c4-2.2,8.5-6.4,13.5-12.4c1.9-2.2,3.6-4.4,5.2-6.6c1.6-2.2,3-4.1,4.2-5.9c1.2-1.8,2.1-3.2,2.9-4.3l1.1-1.6c0.4-0.6,0.8-1,1.4-1
		c0.6-0.1,1.1,0,1.6,0.3c0.5,0.2,0.8,0.6,1,1.2C597.8,218.4,597.7,219,597.3,219.6z M552.5,225.7c1.6-0.1,3.4-0.5,5.4-1.1
		c2-0.6,4-1.5,5.9-2.5c2-1,3.8-2.2,5.4-3.4c1.6-1.2,2.8-2.5,3.5-3.9c1.2-2.2,1.9-4.3,1.9-6.2c0-1.9-0.5-3.4-1.5-4.5
		c-1-1.1-2.4-1.6-4.2-1.6c-1.8,0.1-3.8,1-6,2.7c-3.2,2.3-5.6,5.4-7,9.1C554.3,217.9,553.2,221.8,552.5,225.7z M314.4,213.8
		c4-2.5,7.9-6,11.8-10.7c3.9-4.6,7.4-10,10.5-16c2.7-5.2,4.8-10.2,6.3-15.1c1.5-4.9,2.3-9.2,2.4-12.9c0-3.2-0.6-5.7-1.9-7.5
		c-1.3-1.8-2.9-2.8-4.7-3.1c-1.9-0.2-3.8,0.2-5.8,1.5c-2,1.2-3.9,3.2-5.5,5.9c-4.7,8.6-7.9,17.9-9.5,27.6
		C316.1,193.4,315,203.5,314.4,213.8z M262.3,225.7c1.6-0.1,3.4-0.5,5.4-1.1c2-0.6,4-1.5,5.9-2.5c2-1,3.8-2.2,5.4-3.4
		c1.6-1.2,2.8-2.5,3.5-3.9c1.2-2.2,1.9-4.3,1.9-6.2c0-1.9-0.5-3.4-1.5-4.5c-1-1.1-2.4-1.6-4.2-1.6c-1.8,0.1-3.8,1-6,2.7
		c-3.2,2.3-5.6,5.4-7,9.1C264.1,217.9,263,221.8,262.3,225.7z M430.7,221.3c-0.2-2-0.5-3.3-0.8-4.1c-0.3-0.7-0.6-1.1-0.8-1.1
		c-0.7,0-1.5,1.1-2.2,3.2c-0.4,1.2-0.6,2.6-0.6,4.2c-0.1,1.5,0,3.1,0.2,4.7c0.2,1.6,0.6,3.1,1.1,4.5c0.6,1.4,1.2,2.6,1.9,3.4
		c0.1-0.5,0.2-0.9,0.3-1.3c0.1-0.4,0.2-0.8,0.3-1.3c0.5-2.1,0.8-4.2,0.9-6.4C431,224.9,431,223,430.7,221.3z"/>
	<path d="M676.8,415.5c-1.3-2.7-3-5.1-5.2-7c-2.1-1.9-4.6-3.4-7.4-4.5c-2.8-1.1-5.6-1.4-8.6-1.1c-2.6,0.3-5.2,1-7.6,2.2
		c-2.4,1.2-4.5,2.7-6.3,4.6c-1.8,1.9-3.1,4.1-4.1,6.7c-1,2.5-1.3,5.3-1,8.3c0.2,2.3,0.9,4.5,2.2,6.5c1.3,2,3,3.6,5.1,4.9
		c2,1.1,4.4,1.6,7.1,1.6c2.7-0.1,4.9-1.1,6.8-3.3c0.7-0.8,1-1.7,0.8-2.6c-0.2-0.9-0.6-1.7-1.3-2.3c-0.7-0.6-1.5-1-2.5-1.1
		c-1-0.1-1.8,0.3-2.7,1.2c-1.1,1.1-2.3,1.7-3.5,1.7c-1.2,0.1-2.4-0.2-3.5-0.8c-1.1-0.6-2.1-1.5-2.9-2.7c-0.8-1.2-1.3-2.5-1.4-3.9
		c-0.2-2.3,0.1-4.5,0.8-6.5c0.7-2,1.7-3.8,3.1-5.5c1.4-1.6,3-2.9,4.9-3.9c1.9-1,3.9-1.6,6.1-1.8c2.5-0.3,4.9,0,7.2,1
		c2.3,1,4.3,2.3,6,3.9s3.1,3.7,4.1,6c1,2.3,1.5,4.7,1.5,7.1c0,3.7-0.7,7.1-2.1,10.2c-1.4,3-3.4,5.6-5.9,7.8c-2.5,2.2-5.5,3.9-9,5.1
		c-3.5,1.2-7.3,1.9-11.3,2c-6.6,0.2-12.9-0.5-19-2.2c-6.1-1.7-12-3.5-17.9-5.5c-5.9-2-11.7-3.9-17.5-5.7c-5.8-1.8-11.6-2.7-17.5-2.8
		c-5.9-0.1-12,1-18.2,3.3c-6.2,2.3-12.8,6.4-19.7,12.4c0.2-1.9,0.4-3.9,0.5-6c0.2-2.1,0.2-4.1,0.2-6.1c0.1-4.1,0.1-8,0.1-11.6
		c-0.1-3.6-0.2-6.7-0.3-9.4c-0.2-2.7-0.3-4.8-0.4-6.4l-0.2-2.4c0-1.1-0.4-1.9-1.2-2.5c-0.8-0.6-1.7-0.8-2.7-0.8c-1,0-2,0.3-3,0.8
		c-1,0.5-1.5,1.3-1.7,2.3c-0.9,4.8-1.9,9.3-3,13.7c-1.1,4.4-2.6,8.6-4.6,12.6c-1,2.1-2.1,4-3.3,5.8c-1.2,1.7-2.3,2.8-3.3,3.3
		c-1,0.5-1.9,0.1-2.7-1c-0.8-1.1-1.3-3.4-1.6-7c-0.2-2.1-0.2-4.4,0.2-6.8c0.3-2.4,0.7-4.7,1.2-6.9c0.5-2.2,1.1-4.3,1.7-6.1
		c0.6-1.9,1.2-3.4,1.7-4.5c0.1-0.2,0.2-0.5,0.2-0.9c0-0.7-0.3-1.3-0.9-1.8c-1.4-0.8-2.8-1-4.2-0.5c-1.4,0.5-2.5,1.3-3.3,2.5
		c-0.8,1.2-1.2,1.9-1.4,2.4c-1.1,3.3-2,6.8-2.7,10.3c-0.1,0.6-0.2,1.2-0.3,1.8c0,0.1-0.1,0.2-0.1,0.3c-1.1,3.2-2.4,6.7-3.7,10.3
		c-1.4,3.6-2.8,7.3-4.3,10.9c-1.5,3.6-3,7.1-4.5,10.3c-1.5,3.2-3,6-4.4,8.2c-1.5,2.4-2.9,4.1-4.2,4.9c-1.3,0.9-2.4,1.1-3.4,0.7
		c-1-0.4-1.9-1.3-2.7-2.6c-0.8-1.3-1.5-2.9-2-4.9c-0.5-1.6-0.9-3.9-1.3-7c-0.4-3-0.6-6.3-0.8-9.8c-0.2-3.5-0.4-7-0.5-10.5
		c-0.1-3.5-0.1-6.5,0-9v-0.2c3.9-2,7.8-5.2,11.6-9.5c3.8-4.3,7.2-9.3,10.2-15.1c2.3-4.6,4.1-9,5.5-13.4c1.3-4.4,2-8.2,2-11.5
		c0-3.8-0.9-6.8-2.7-8.7c-1.8-2-4-3.1-6.6-3.5c-2.6-0.4-5.3,0-8.1,1.1s-5.2,2.8-7.1,5c-2.9,3.5-5.2,7.7-6.9,12.4
		c0,0.1,0,0.1-0.1,0.2c-2.5-0.2-5.1-0.5-7.8-0.8c-3.6-0.5-7.2-1.1-10.9-1.8c-3.6-0.7-7.1-1.4-10.3-2.1c0.2-1,0.5-2.5,0.8-4.3
		c0.4-1.9,0.8-3.8,1.3-5.8c0.5-2,1-3.9,1.6-5.8c0.6-1.8,1.2-3.2,1.9-4.3c0.2-0.2,0.3-0.6,0.2-1.2c-0.1-0.6-0.7-1-1.7-1.2
		c-4.1-0.6-7.2,1.5-9.1,6.2c-0.3,0.7-0.6,1.8-1,3.3c-0.4,1.5-0.7,3-1.1,4.6c-0.4,1.6-0.7,3.1-0.9,4.5c-0.3,1.4-0.4,2.3-0.5,2.7
		c-5.1-0.8-10-1.5-14.9-2.1c-4.9-0.6-9.4-0.8-13.7-0.6c-11.9-0.3-20.2,1.7-24.9,6.1c-3.1,2.8-4.1,6-3,9.4c0.7,2.3,2,3.9,3.9,4.6
		c1.9,0.8,3.8,1,5.9,0.6c2.1-0.4,4-1.2,5.9-2.6c1.9-1.4,3.2-3.1,3.9-5.1c0.5-1.4,0.3-2.4-0.5-2.9c-0.9-0.5-1.7-0.2-2.7,0.9
		c-1.1,1.9-2.3,3.2-3.4,3.9c-1.2,0.7-2.2,0.9-3,0.8c-0.7-0.1-1.3-0.4-1.7-1c-0.4-0.6-0.6-1.2-0.7-1.8c-0.1-0.7,0-1.4,0.2-2.1
		c0.2-0.8,0.4-1.4,0.7-1.9c1.1-1.9,3.4-3.3,6.8-4.2c3.4-0.9,7.6-1.3,12.7-1.1c4.6,0,9.1,0.3,13.6,0.9c4.5,0.6,9.2,1.3,14,2.1
		c-1.2,6.1-2.2,12.7-2.8,19.8c-0.7,7.1-1.1,14.2-1.3,21.1c0,1,0,2-0.1,2.9c-0.7,1.6-1.5,3.2-2.4,4.9c-0.8,1.4-1.7,3-2.8,4.9
		c-1.1,1.8-2.3,3.6-3.6,5.5c-3,4.6-5.9,7.9-8.6,9.9c-2.7,2.1-5,2.8-7.1,2.2c-1.7-0.6-3-1.8-3.9-3.6c-0.9-1.8-1.5-3.3-1.8-4.5
		c-0.5-2.2-0.8-4.6-0.8-7.2c0-2.6,0.3-5.2,0.8-7.8c0.8-4.6,2.2-8.2,4.2-11.1c1-1.5,2.3-2.6,3.8-3.1c1.5-0.6,2.9-0.7,4-0.4
		c1.2,0.3,2,1.1,2.6,2.3c0.6,1.2,0.4,2.9-0.4,5.2c-0.3,0.8-0.6,1.4-0.8,1.7c-0.3,0.4-0.5,0.6-0.7,0.8c-0.5,0-0.9,0.2-1.2,0.5
		c-0.3,0.4-0.5,0.8-0.5,1.3c0,0.5,0.2,0.9,0.5,1.3c0.4,0.4,0.8,0.5,1.3,0.5c1.2,0,2.3-0.6,3.1-1.8c0.9-1.2,1.4-2.4,1.7-3.5
		c0.5-1.5,0.8-3.1,0.8-4.9c0.1-1.7-0.5-3.3-1.6-4.7c-1.1-1.5-2.5-2.6-4.2-3.3c-1.7-0.7-3.5-0.9-5.4-0.8c-1.9,0.2-3.8,0.7-5.7,1.7
		c-1.9,1-3.6,2.4-5.1,4.2c-1.4,1.7-2.6,3.8-3.5,6.4c-0.4,1-0.7,2-1,3c0,0-0.1,0.1-0.1,0.1l-0.9,1.3c-0.6,0.9-1.4,2-2.4,3.5
		c-1,1.5-2.1,3.1-3.4,4.9c-1.3,1.8-2.7,3.6-4.3,5.4c-4.1,5-7.8,8.3-11.1,10.2c-1.6,0.9-3.1,1.4-4.4,1.4c-1.3,0-2.5-0.3-3.4-1
		c-1-0.7-1.8-1.6-2.4-2.9c-0.7-1.3-1.1-2.7-1.4-4.2c-0.5-2.6-0.7-5.3-0.5-8c2.9,0,6.3-0.9,10-2.6c2.3-1.1,4.4-2.4,6.2-3.8
		c1.8-1.4,3.1-2.9,3.9-4.4c1.6-2.9,2.3-5.6,2-7.9c-0.3-2.3-1.2-4.2-2.8-5.6c-1.6-1.4-3.6-2.3-6-2.6c-2.4-0.3-5,0.1-7.7,1.2
		c-3.8,1.6-6.8,4.1-8.8,7.5c-1.4,2.4-2.6,4.9-3.4,7.4c-0.1,0.1-0.1,0.2-0.2,0.3c-1.2,2.4-2.8,4.8-4.6,7.1c-1.9,2.3-4,4.2-6.3,5.9
		c-2.3,1.7-4.8,3-7.4,4c-2.6,1-5.3,1.5-8,1.5c-0.6,0-1.1,0.2-1.4,0.5c0.6-5.5,1.5-11.2,2.7-17.3c0.6-0.5,1.7-1.4,3.2-2.6
		c1.5-1.2,3.1-2.7,4.9-4.4c4.8-4.6,7.7-8.6,9-12.1c0.6-1.9,0.6-3.7,0-5.2c-0.6-1.6-1.5-2.8-2.8-3.6c-1.3-0.8-2.8-1.2-4.5-1.2
		s-3.3,0.5-4.9,1.5c-1.1,0.7-2.3,1.7-3.6,3c-1.3,1.3-2.5,3-3.7,5.1c-1.2,2.1-2.4,4.7-3.4,7.7c-1,2.9-1.9,6.2-2.7,10.2
		c-2.3,5.1-4.8,9.6-7.3,13.5c-2.5,3.9-5,7.2-7.4,9.9c-0.5,0.5-1.3,1.3-2.5,2.4c-1.2,1.1-2.4,2-3.8,2.7c-1.4,0.8-2.7,1.2-3.9,1.4
		c-1.2,0.2-2.1-0.3-2.7-1.5c-1.1-2.1-1.5-5.1-1.1-9c0.4-3.9,1.1-8,2.2-12.2s2.4-8.3,3.9-12.1c1.5-3.8,2.8-6.7,3.9-8.7
		c0.5-0.9,0.4-1.7-0.5-2.3c-0.8-0.7-1.6-0.7-2.4,0.2l-1.9,1.6c-1.3,1.1-2.9,2.3-4.9,3.6c-2,1.4-4.2,2.7-6.7,3.9
		c-2.5,1.3-5,2.1-7.7,2.5c0.6-1.5,1.3-3.5,2-6.1c0.8-2.5,1.1-5.2,1-7.9c-0.1-2.7-0.8-4.9-2-6.5c-1.3-1.6-2.8-2.5-4.7-2.9
		c-1.9-0.4-3.9-0.1-6,0.8c-2.1,0.9-4,2.4-5.8,4.6c-2,2.5-3.2,5.2-3.4,8c-0.3,2.8,0.2,5.3,1.3,7.6c1.1,2.3,2.8,4.1,5.1,5.5
		c1.5,1,3.2,1.5,5.1,1.7l-0.3,0.5c-0.6,0.9-1.4,2-2.4,3.5c-1,1.5-2.1,3.1-3.4,4.9c-1.3,1.8-2.7,3.6-4.3,5.4
		c-4.1,5-7.8,8.3-11.1,10.2c-1.6,0.9-3.1,1.4-4.4,1.4s-2.5-0.3-3.4-1c-1-0.7-1.8-1.6-2.4-2.9c-0.7-1.3-1.1-2.7-1.4-4.2
		c-0.5-2.6-0.7-5.3-0.5-8c2.9,0,6.3-0.9,10-2.6c2.3-1.1,4.4-2.4,6.2-3.8c1.8-1.4,3.1-2.9,3.9-4.4c1.6-2.9,2.3-5.6,2-7.9
		c-0.3-2.3-1.2-4.2-2.8-5.6c-1.6-1.4-3.6-2.3-6-2.6c-2.4-0.3-5,0.1-7.7,1.2c-3.8,1.6-6.8,4.1-8.8,7.5c-1.4,2.4-2.5,4.8-3.4,7.3
		c-0.1,0.1-0.2,0.2-0.2,0.4c-2.3,5.4-5.4,9.5-9.2,12.3c-3.8,2.8-7.7,5-11.8,6.4c2-3.1,3.6-6.6,4.6-10.2c1.1-3.7,1.6-7.4,1.6-11
		c0-1.6-0.2-3.3-0.5-5.1c-0.4-1.8-0.9-3.4-1.7-4.9c-0.8-1.5-1.9-2.8-3.3-3.7c-1.4-1-3.1-1.4-5.1-1.4c-4.6,0-8.5,1.8-11.8,5.5
		c-4.3,4.5-7.5,11.9-9.9,22.3c0.5-4.7,1-8.4,1.6-11.2c0.6-2.8,0.9-4.6,1.1-5.3c0.3-0.7,0.3-1.2-0.2-1.6c-0.4-0.4-0.9-0.6-1.6-0.7
		c-0.7-0.1-1.4-0.1-2.1,0.1s-1.3,0.4-1.7,0.7c-1.1,0.8-2,1.7-2.7,2.7c0,0.1,0,0.2-0.1,0.2c-0.1,0-0.1,0.1-0.1,0.2
		c-1.6,2.7-3.8,5.3-6.7,7.7c-2.8,2.4-5.7,4.2-8.7,5.4c-4.3,1.7-8.6,2.4-12.9,2.1c-4.4-0.3-8.7-1.2-13.1-2.8
		c-4.4-1.6-8.9-3.5-13.4-5.8c-4.5-2.3-9-4.5-13.5-6.8c-4.5-2.2-9-4.2-13.4-5.9c-4.4-1.7-8.8-2.8-13.1-3.2c-4.1-0.4-8.2-0.1-12.1,1.1
		s-7.4,2.9-10.5,5.3c-3,2.4-5.5,5.5-7.4,9.2c-1.9,3.7-2.8,7.9-2.8,12.7c0,3,0.7,5.9,2,8.7c1.3,2.7,3,5.1,5.2,7.1
		c2.1,2,4.6,3.5,7.4,4.5c2.8,1,5.6,1.4,8.6,1.1c2.6-0.2,5.2-1,7.6-2.3c2.4-1.3,4.5-3,6.3-4.9c1.8-2,3.1-4.2,4.1-6.8
		c1-2.5,1.3-5.2,1-7.9c-0.3-2.3-1.1-4.5-2.3-6.5c-1.2-2-2.9-3.6-5-4.9c-2-1.1-4.4-1.6-7.1-1.6c-2.7,0.1-4.9,1.1-6.8,3.3
		c-0.8,0.8-1.1,1.7-0.9,2.6c0.2,0.9,0.7,1.7,1.4,2.3c0.7,0.6,1.5,1,2.5,1.1c1,0.1,1.8-0.3,2.7-1.2c1-1,2.1-1.5,3.3-1.6
		c1.2-0.1,2.3,0.3,3.3,0.9c1.1,0.7,2,1.6,2.8,2.7c0.8,1.2,1.4,2.4,1.8,3.6c0.6,2,0.6,4-0.1,6.1c-0.7,2-1.7,3.9-3.2,5.5
		c-1.5,1.7-3.2,3.1-5.3,4.2c-2.1,1.1-4.2,1.8-6.3,2c-2.5,0.3-4.9,0-7.2-0.9c-2.3-0.9-4.3-2.2-6-3.9s-3.1-3.7-4.1-6.1
		c-1-2.3-1.5-4.7-1.5-7.1c0-3.7,0.7-7.2,2-10.5c1.4-3.2,3.3-6,5.8-8.3c2.5-2.3,5.5-4,9-5.2s7.3-1.5,11.5-1.1
		c4.7,0.4,9.2,1.5,13.7,3.3c4.5,1.8,8.9,3.8,13.3,6.1c4.4,2.3,8.8,4.6,13.1,6.9c4.4,2.3,8.8,4.2,13.2,5.8c4.5,1.5,9,2.4,13.5,2.7
		c4.6,0.3,9.3-0.4,14.1-2.1c4.4-1.5,8.3-4.1,12-7.7c-0.5,3.1-0.9,6.8-1.3,10.9c-0.4,4.1-0.6,8.7-0.8,13.9c-0.2,7-0.1,14,0.2,21
		c0.4,7,1.1,14.5,2.2,22.4c0.3,1.2,0.9,2.1,1.9,2.7c1,0.6,2,0.9,3,0.8c1.1-0.1,2-0.4,2.8-1.1c0.8-0.7,1.2-1.6,1.1-3
		c-0.6-9.2-0.9-17.9-0.8-26.2c0.1-8.2,0.6-15.8,1.4-22.5c1.8-16,5.4-26.8,10.6-32.3c2-2.1,4.2-3.4,6.7-3.9c1.4,1,2.5,2.8,3.3,5.4
		c0.8,2.6,1,5.6,0.8,9.2c-0.2,3.5-0.9,7.2-2.2,10.9c-1.3,3.7-3.1,7-5.5,9.9h-0.3c-2.6,0.6-4.8,1.2-6.5,1.8c-1.7,0.6-2.9,1.5-3.6,2.6
		c-0.4,0.7-0.5,1.6-0.3,2.7s0.9,1.7,2,1.7c2.9,0,5.6-0.6,8-1.7c2.4-1.2,4.8-2.8,7.2-4.9c5.8-1.5,11.3-4,16.5-7.6
		c2.5-1.7,4.8-3.8,6.7-6.1c0,0.5-0.1,0.9-0.1,1.4c-0.1,2.8,0.1,5.5,0.6,7.9c0.5,2.8,1.5,5.1,3.1,6.9c1.6,1.8,3.4,3,5.4,3.8
		c2,0.8,4.2,1,6.6,0.8c2.4-0.3,4.6-1,6.8-2.2c2.4-1.4,4.7-3.1,6.7-5c2-1.9,3.9-3.9,5.6-6.1c1.6-1.9,3.1-3.8,4.5-5.6
		c1.4-1.8,2.5-3.5,3.5-4.9c1-1.5,1.7-2.7,2.4-3.6c0.6-0.9,0.9-1.4,0.9-1.5c0.2-0.3,0.3-0.7,0.3-1c1.7-0.1,3.1-0.3,4.3-0.6
		c1.5-0.4,2.8-0.8,3.9-1.2c1.1-0.5,2.2-1,3.1-1.5c1-0.6,2-1.1,3.1-1.7c-0.7,2.2-1.6,5.2-2.7,9s-1.8,7.6-2.4,11.5
		c-0.5,3.9-0.5,7.5,0.1,10.8s2.2,5.5,4.8,6.6c1.8,0.7,3.7,0.9,5.5,0.7c1.9-0.3,3.7-0.8,5.4-1.7c1.7-0.9,3.3-1.9,4.9-3.1
		c1.5-1.2,2.9-2.4,4.1-3.6c3.5-3.7,6.8-8.4,10.1-14.1c-0.6,4.2-1.1,8.3-1.4,12.1c-0.6,7-0.8,13.4-0.5,19.1
		c0.6,11.6,3.2,19.9,7.7,24.9c2.5,2.7,5.1,4.4,7.7,5.1c2.6,0.7,4.9,0.5,7.1-0.4c2.1-0.9,3.9-2.5,5.5-4.7s2.6-4.9,3.2-7.9
		c0.7-3.7,0.9-7.6,0.5-11.6c-0.4-4-1.2-7.8-2.7-11.3c-2.6-7.1-6.7-12.3-12.1-15.8c5.4-1.6,10.1-4,14.2-7.2c1.7-1.3,3.2-2.8,4.6-4.4
		c0,0.6-0.1,1.1-0.1,1.7c-0.1,2.8,0.1,5.5,0.6,7.9c0.5,2.8,1.5,5.1,3.1,6.9c1.6,1.8,3.4,3,5.4,3.8c2,0.8,4.2,1,6.6,0.8
		c2.4-0.3,4.6-1,6.8-2.2c2.4-1.4,4.7-3.1,6.7-5c2-1.9,3.9-3.9,5.6-6.1c1.6-1.9,3.1-3.8,4.5-5.6c0.8-1.1,1.6-2.1,2.2-3.1
		c-0.3,4.5,0.1,8.8,1.2,12.7c0.8,3,2.3,5.6,4.5,7.7c2.2,2.1,5,3.2,8.6,3.4c2,0,3.9-0.4,5.8-1.3c1.8-0.9,3.5-2,5.2-3.5
		c1.6-1.5,3.1-3.1,4.6-4.9c1.4-1.8,2.8-3.6,4.1-5.5c1.3-1.9,2.5-3.8,3.6-5.6c0.7-1.2,1.4-2.4,2-3.5c0,2.9,0.1,5.8,0.2,8.6
		c0.3,6.2,0.9,11.3,1.7,15.5c0.6,3.1,1.6,5.6,3,7.4s3,2.9,4.8,3.3c1.8,0.4,3.8,0.1,5.9-0.9c2.1-1,4.2-2.8,6.2-5.5
		c2.6-3.4,5.4-8.1,8.3-14.1c1.9-3.9,3.9-8.2,6-13.1c0,0.7,0,1.3,0,2c0.1,3.4,0.2,6.9,0.4,10.3c0.2,3.4,0.5,6.8,1,9.9
		c0.5,3.2,1,6,1.7,8.6c0.9,3.3,2.2,5.9,3.9,7.8c1.7,1.9,3.6,2.9,5.8,3.2c2.1,0.3,4.4-0.3,6.7-1.7c2.3-1.4,4.5-3.7,6.5-7
		c1.1-1.8,2.4-4.2,3.8-7.3c1.4-3,2.9-6.4,4.5-10.2c1.6-3.7,3.2-7.6,4.8-11.7c0.3-0.8,0.6-1.5,0.9-2.3c0.5,5.4,2.2,9,5.2,10.7
		c2.4,1.5,5.1,1.7,7.9,0.6c5.8-2.6,10.6-11.4,14.6-26.3c0.1,2.3,0.2,4.9,0.2,7.7c0.1,2.8,0,5.8-0.1,8.8c-0.2,3.5-0.4,6.8-0.5,9.7
		c-0.2,2.9-0.4,5.9-0.8,9c-3.4,2.5-6.5,4.8-9,6.7c-2.6,1.9-4.8,3.7-6.7,5.2c-1.9,1.6-3.4,3-4.7,4.2c-1.3,1.2-2.4,2.4-3.3,3.5
		c-3,3.5-4.8,6.9-5.3,10.1c-0.5,3.2-0.2,6,0.9,8.3c1.1,2.4,2.9,4.2,5.2,5.6c2.4,1.4,5,2,7.7,1.8c2.8-0.2,5.6-1.2,8.3-3
		c2.8-1.9,5.1-4.8,7.1-8.9c1.6-3.4,3.1-7.3,4.3-11.5c1.3-4.2,2.3-8.9,3.1-14c0.2-1.5,0.4-3,0.6-4.3c0.2-1.4,0.4-2.9,0.6-4.6
		c6.6-6.5,12.9-11,19-13.6c6.1-2.6,12-3.9,17.9-4c5.9-0.1,11.7,0.7,17.5,2.4c5.8,1.7,11.6,3.5,17.5,5.5c5.9,2,12,3.8,18.2,5.5
		c6.2,1.6,12.8,2.4,19.7,2.3c4.1-0.1,8.2-0.7,12.1-1.9c3.9-1.2,7.4-2.9,10.5-5.2c3-2.3,5.5-5.2,7.4-8.7c1.9-3.5,2.8-7.7,2.8-12.4
		C678.8,421.1,678.1,418.2,676.8,415.5z M355.8,421.3c1.2-3,3.1-5.5,5.8-7.4c1.8-1.4,3.5-2.2,4.9-2.2c1.5-0.1,2.6,0.4,3.4,1.3
		c0.8,0.9,1.2,2.2,1.2,3.7c0,1.6-0.5,3.3-1.5,5.1c-0.6,1.1-1.6,2.2-2.9,3.2c-1.3,1-2.8,1.9-4.4,2.8c-1.6,0.9-3.2,1.5-4.9,2
		c-1.6,0.5-3.1,0.8-4.4,0.9C353.6,427.4,354.5,424.3,355.8,421.3z M325.5,408.1c1.3-2.7,2.5-4.6,3.6-5.7c0.7-0.8,1.5-1.3,2.3-1.5
		c0.8-0.2,1.5-0.2,2.1,0.2c0.6,0.3,1,0.8,1.2,1.6c0.2,0.8,0.1,1.6-0.5,2.7c-0.4,1.2-1.1,2.5-2,3.7c-0.9,1.3-1.9,2.6-3.1,3.9
		c-1.2,1.3-2.4,2.6-3.6,3.7c-1.3,1.2-2.5,2.3-3.7,3.3C323,414.7,324.2,410.8,325.5,408.1z M231.6,421.3c1.2-3,3.1-5.5,5.8-7.4
		c1.8-1.4,3.5-2.2,4.9-2.2c1.5-0.1,2.6,0.4,3.4,1.3c0.8,0.9,1.2,2.2,1.2,3.7c0,1.6-0.5,3.3-1.5,5.1c-0.6,1.1-1.6,2.2-2.9,3.2
		c-1.3,1-2.8,1.9-4.4,2.8c-1.6,0.9-3.2,1.5-4.9,2c-1.6,0.5-3.1,0.8-4.4,0.9C229.5,427.4,230.4,424.3,231.6,421.3z M267.2,414.6
		c-0.9,2.5-1.6,4.3-2.2,5.3c-2.1-0.4-3.7-1.2-4.6-2.4c-1-1.2-1.5-2.6-1.7-4c-0.2-1.5-0.1-2.9,0.2-4.4c0.4-1.5,0.8-2.7,1.3-3.7
		c0.6-1.2,1.4-2.2,2.4-3c1-0.8,1.9-1.2,2.8-1.3c0.9-0.1,1.7,0.3,2.3,1.1c0.6,0.8,0.9,2.2,0.9,4.1C268.5,409.3,268,412.1,267.2,414.6
		z M328.4,452.9c2.5,3.1,4.4,6.4,5.7,9.9c1.3,3.5,2.1,7.1,2.3,10.8c0.2,3.6,0.1,6.8-0.5,9.6c-0.3,1.8-0.8,3.6-1.6,5.2
		c-0.8,1.7-1.7,3-2.7,3.9c-1.1,0.9-2.3,1.3-3.6,1.1c-1.4-0.2-2.9-1.2-4.6-3c-3.5-4.1-5.6-11.5-6.2-22.2c-0.2-3.4-0.3-7.1-0.2-10.9
		c0.1-3.8,0.4-7.9,0.9-12.2c0.2,0.3,0.5,0.6,0.8,0.8C322.6,447.5,325.9,449.8,328.4,452.9z M485,368.7c1.7-1,3.3-1.4,4.8-1.2
		c1.5,0.2,2.8,1,3.9,2.5c1.1,1.5,1.6,3.5,1.6,6.1c-0.1,3-0.8,6.6-2,10.6c-1.2,4-2.9,8.1-5.2,12.4c-2.5,5-5.4,9.3-8.6,13.1
		c-3.2,3.8-6.4,6.7-9.6,8.7c0.5-8.5,1.4-16.7,2.8-24.7c0.6-3.6,1.5-7.1,2.6-10.4c1.7-0.1,3.4-0.3,5.1-0.6c2.9-0.5,5.1-1.4,6.6-2.6
		c1.5-1.2,2.5-2.8,3-4.9c0.2-0.9,0.1-1.7-0.4-2.3c-0.5-0.6-1-1-1.7-1.1c-0.7-0.1-1.4,0.1-2,0.6c-0.7,0.5-1.1,1.4-1.3,2.6
		c-0.2,1.4-0.9,2.4-2,3c-1.1,0.6-2.5,1.1-4.1,1.4c-0.6,0.1-1.2,0.2-1.9,0.3c1.1-3,2.5-5.8,4-8.7C481.8,371.4,483.3,369.8,485,368.7z
		 M453.6,441.7c-2.6,6.1-5.8,11.8-9.6,16.9c-2.6,3.3-4.6,4.6-5.8,3.7c-1.3-0.9-2.2-3.2-2.8-7.1c-0.6-5.2-1.1-10.3-1.4-15.4
		c-0.4-5.1-0.5-10.4-0.4-16c0.2-6.5,0.6-13.5,1.1-20.9s1.5-14.6,2.8-21.3c3.3,0.5,6.8,1.1,10.3,1.8c3.5,0.7,7.1,1.3,10.8,1.7
		c2.5,0.3,5.1,0.5,7.7,0.7c-1.1,3.6-2,7.2-2.7,11c-0.9,5.1-1.5,10.1-1.9,15.1c-0.3,4.3-0.5,8.2-0.6,11.8c0,0,0,0.1-0.1,0.1
		C458.6,429.6,456.2,435.6,453.6,441.7z M523.5,475.5c-1.2,4.4-2.6,8.3-4.3,11.8c-1.6,3.2-3.3,5.6-5.2,7.1c-1.8,1.5-3.6,2.2-5.2,2.3
		s-3.1-0.5-4.3-1.5c-1.2-1.1-2-2.5-2.5-4.3c-0.5-1.8-0.4-3.9,0.2-6.3c0.6-2.4,2-4.8,4.1-7.4c1.7-2,4-4.1,6.8-6.2
		c2.8-2.1,5.9-4.4,9.3-6.8l4.1-2.9C525.7,466.3,524.7,471.1,523.5,475.5z"/>
	<path d="M290.1,326c-2.9,3.3-6.3,4.9-10,4.9c-3.8,0-5.7-2.5-5.7-7.4v-22.6h-4.4c-0.2,0-0.4-0.1-0.4-0.4v-0.9c0-0.9,0.4-1.4,1.3-1.4
		h3.4c0-1.5,0-2.8,0-3.9c0-1.1,0-1.9-0.1-2.4c0-0.5,0-0.9-0.1-1.2c0-0.3,0-0.5-0.1-0.7c0-0.1,0-0.3,0-0.4c0-0.2,0.1-0.3,0.3-0.5
		c0.2-0.1,0.4-0.3,0.6-0.3c0.2-0.1,0.5-0.2,0.9-0.3c0.4-0.1,0.7-0.2,1-0.3c0.3-0.1,0.7-0.3,1.1-0.5c0.5-0.2,0.8-0.4,1.2-0.6
		c0.3-0.1,0.5-0.2,0.7-0.2c0.4,0,0.6,0.2,0.6,0.7c-0.2,2-0.3,4.6-0.3,7.9v2.9h8.9c0.4,0,0.6,0.1,0.6,0.4v1.4c0,0.6-0.6,0.9-1.8,0.9
		h-7.7v19c0,2.4,0.2,4.2,0.5,5.3c0.4,1.1,1,1.6,1.9,1.6c2.3,0,4.3-0.7,6.1-2.1C289.5,324.8,290,325.2,290.1,326z M325.7,314.3
		c0,5.2-1.6,9.4-4.8,12.5c-2.8,2.8-6.5,4.2-10.9,4.1c-5,0-8.8-1.6-11.5-4.8c-2.7-3.2-4.1-7-4.1-11.2c0-4.9,1.4-9,4.1-12.2
		c3-3.5,6.8-5.2,11.7-5.2c3.6,0,6.6,0.9,9,2.6c2.5,1.8,4.2,3.8,5.1,6.3C325.2,308.9,325.7,311.5,325.7,314.3z M319.3,316.6
		c0-5.3-0.9-9.3-2.8-12.2c-1.8-2.8-4.4-4.2-7.6-4.2c-5.5,0-8.3,4.3-8.3,13c0,1.6,0.2,3.2,0.6,4.8c0.4,1.6,0.9,3.2,1.7,4.8
		c0.7,1.6,1.8,2.9,3.2,3.9c1.4,1,3,1.5,4.9,1.5c2.2,0,4.1-0.9,5.8-2.7C318.4,323.8,319.3,320.8,319.3,316.6z"/>
	<path d="M375.2,300.1c-2.5-1.8-5.5-2.6-9-2.6c-4.8,0-8.7,1.7-11.7,5.2c-2.7,3.2-4.1,7.3-4.1,12.2c0,4.2,1.4,7.9,4.1,11.2
		c2.7,3.2,6.6,4.8,11.5,4.8c4.5,0,8.1-1.4,10.9-4.1c3.2-3.2,4.8-7.3,4.8-12.5c0-2.8-0.5-5.4-1.5-7.8
		C379.4,304,377.7,301.9,375.2,300.1z M372.9,325.6c-1.7,1.8-3.6,2.7-5.8,2.7c-1.8,0-3.5-0.5-4.9-1.5c-1.4-1-2.5-2.3-3.2-3.9
		c-0.7-1.6-1.3-3.2-1.7-4.8c-0.4-1.6-0.6-3.2-0.6-4.8c0-8.7,2.7-13,8.3-13c3.2,0,5.8,1.4,7.6,4.2c1.8,2.8,2.8,6.9,2.8,12.2
		C375.4,320.8,374.5,323.8,372.9,325.6z M423.2,325.9c0.2,0.2,0.4,0.6,0.4,1c0,0.4-0.1,0.8-0.4,1c-4.2,0.5-7.2,1.5-9,2.9
		c-0.6,0.1-1,0.1-1.4,0c-0.6-1.8-0.8-3.2-0.8-4.4c0-0.6-0.3-0.6-0.9-0.1c-3.6,3-7,4.4-10.1,4.4c-3.4,0-5.9-0.9-7.4-2.8
		c-1.5-1.9-2.2-4.3-2.2-7.2v-14.2c0-2.3-0.3-3.8-0.9-4.6c-0.6-0.7-1.8-1.2-3.7-1.3c-0.2-0.2-0.3-0.6-0.3-1.3c0-0.6,0.1-1.1,0.3-1.4
		c3.7,0.1,6.2,0.2,7.6,0.2c1.2,0,2.1-0.1,2.6-0.2c0.4,0,0.6,0.2,0.6,0.5c-0.2,3.6-0.3,6.2-0.3,7.7v13.5c0,2.9,0.6,4.9,1.8,6
		c1.2,1.1,2.6,1.6,4.1,1.6c2.2,0,4.7-1.2,7.5-3.5c0.8-0.7,1.2-1.7,1.2-2.9v-14.2c0-2.4-0.3-3.9-0.9-4.7c-0.6-0.8-1.8-1.2-3.7-1.3
		c-0.2-0.2-0.4-0.6-0.4-1.3c0-0.6,0.1-1.1,0.4-1.4c3.7,0.1,6.2,0.2,7.6,0.2c1.2,0,2.1-0.1,2.6-0.2c0.4,0,0.6,0.2,0.6,0.5
		c-0.2,3.6-0.3,6.2-0.3,7.7v14.3c0,1.9,0.3,3.3,1,4C419.4,325.3,420.9,325.7,423.2,325.9z M451,301.1c0,0.9-0.4,1.8-1.1,2.6
		c-0.7,0.8-1.5,1.2-2.4,1.2c-0.3,0-0.7-0.1-1-0.3s-0.6-0.4-0.8-0.5c-0.2-0.2-0.4-0.4-0.7-0.7c-0.3-0.3-0.5-0.5-0.6-0.6
		c-0.3-0.3-0.9-0.5-1.6-0.5c-0.6,0-1.7,1.2-3.4,3.6c-1.2,1.8-1.8,3.4-1.8,4.9v10.3c0,3,0.3,4.8,1,5.4c0.7,0.7,2.4,1.1,5.1,1.3
		c0.2,0.3,0.4,0.7,0.4,1.4c0,0.7-0.1,1.1-0.4,1.3c-4.3-0.1-7.3-0.2-9-0.2c-1.5,0-4.3,0.1-8.5,0.2c-0.2-0.2-0.3-0.6-0.3-1.3
		c0-0.7,0.1-1.1,0.3-1.4c2.4-0.1,3.9-0.6,4.6-1.3c0.6-0.7,0.9-2.5,0.9-5.5v-14.4c0-2.1-0.3-3.4-0.9-3.9c-0.6-0.5-1.9-0.9-4-1.1
		c-0.3-0.8-0.3-1.6-0.1-2.1c3.9-0.5,7-1.2,9.4-2.1c0.4,0,0.7,0.2,0.9,0.6c0.4,0.9,0.6,2.8,0.6,5.7c0,0.2,0,0.4,0.1,0.5
		c0.1,0.1,0.2,0,0.5-0.4c1-1.7,2.2-3.1,3.7-4.3c1.5-1.2,3-1.8,4.6-1.8c1.4,0,2.5,0.4,3.3,1.1C450.6,299.4,451,300.2,451,301.1z"/>
</g>
</svg>
