<?xml version="1.0" encoding="utf-8"?>
<!-- Generator: Adobe Illustrator 18.0.0, SVG Export Plug-In . SVG Version: 6.00 Build 0)  -->
<!DOCTYPE svg PUBLIC "-//W3C//DTD SVG 1.1//EN" "http://www.w3.org/Graphics/SVG/1.1/DTD/svg11.dtd">
<svg version="1.1" id="Layer_1" xmlns="http://www.w3.org/2000/svg" xmlns:xlink="http://www.w3.org/1999/xlink" x="0px" y="0px"
	 viewBox="0 0 720 720" style="enable-background:new 0 0 720 720;" xml:space="preserve">
<g>
	<path d="M108.2,475.6c-0.2,0-0.6-0.1-1.1-0.3c-0.5-0.2-0.8-0.4-1.1-0.8c-0.3-0.3-0.5-0.8-0.7-1.4l-9.7-26.9c-1,0.6-1.9,0.9-2.6,0.9
		l-10.7,25.2c-0.6,1.3-1.2,2.2-1.9,2.6c-0.7,0.4-1.6,0.6-2.8,0.7c-0.2,0.2-0.2,0.5-0.2,0.9s0.1,0.7,0.2,0.8c2.3-0.1,3.7-0.1,4.2-0.1
		c1.7,0,3.7,0,6,0.1c0.1-0.1,0.2-0.4,0.2-0.8s-0.1-0.7-0.2-0.9c-0.4,0-0.7-0.1-0.9-0.1c-0.2,0-0.5-0.1-0.9-0.1
		c-0.4-0.1-0.6-0.2-0.8-0.2c-0.1-0.1-0.3-0.2-0.6-0.4s-0.3-0.4-0.3-0.6c0.1-0.2,0.1-0.5,0.1-0.8l2.6-6.7c0.1-0.3,0.3-0.5,0.5-0.6
		c0.2-0.1,0.6-0.2,1.2-0.2h10l2.7,7.9c0.1,0.2,0.1,0.4,0.1,0.5c0,0.2,0,0.3,0,0.4c0,0.1-0.1,0.2-0.2,0.3c-0.1,0.1-0.2,0.2-0.4,0.2
		c-0.2,0.1-0.3,0.1-0.4,0.1s-0.3,0.1-0.6,0.1c-0.3,0-0.5,0.1-0.6,0.1c-0.2,0-0.4,0-0.7,0.1c-0.3,0-0.5,0-0.7,0
		c-0.1,0.2-0.2,0.5-0.2,0.9s0.1,0.7,0.2,0.8c2.3-0.1,4.4-0.1,6.2-0.1c1.3,0,3.1,0,5.4,0.1c0.2-0.1,0.2-0.4,0.2-0.8s-0.1-0.7-0.2-0.9
		C108.9,475.6,108.4,475.6,108.2,475.6z M89.7,464c-0.2,0-0.4,0-0.5,0c-0.1,0-0.3,0-0.4-0.1s-0.2-0.1-0.2-0.1s-0.1-0.1-0.1-0.2
		c0-0.1,0-0.2,0-0.3l4.8-12.2h0.3L98,464H89.7z M142.7,446.8c0.1,0.2,0.2,0.5,0.2,0.9s-0.1,0.7-0.2,0.8c-1.8,0.2-2.9,0.5-3.4,1
		s-0.7,1.7-0.7,3.7v23c0,1-0.4,1.6-1.1,1.6c-0.7,0-1.3-0.4-1.9-1.2l-16.5-20.7c-0.8-1-1.3-1.5-1.6-1.5c-0.3,0-0.4,0.8-0.4,2.3V471
		c0,1.1,0,1.9,0.2,2.5c0.1,0.6,0.3,1,0.7,1.3c0.4,0.3,0.8,0.5,1.2,0.6c0.4,0.1,1.1,0.2,2.1,0.3c0.1,0.2,0.2,0.5,0.2,0.9
		s-0.1,0.7-0.2,0.8c-3.1-0.1-4.9-0.1-5.2-0.1c-0.4,0-2.2,0-5.3,0.1c-0.2-0.1-0.2-0.4-0.2-0.8c0-0.4,0.1-0.7,0.2-0.9
		c1.8-0.2,2.9-0.5,3.4-1c0.5-0.5,0.7-1.7,0.7-3.7v-19.5c-0.2-0.7-0.6-1.3-1.3-2s-1.5-1-2.5-1c-0.2-0.1-0.2-0.4-0.2-0.8
		s0.1-0.7,0.2-0.9l6.4,0.1l16.2,20.8c0.2,0.3,0.4,0.6,0.7,0.9c0.3,0.4,0.4,0.6,0.6,0.8s0.3,0.3,0.4,0.5c0.1,0.2,0.3,0.3,0.3,0.3
		c0.1,0.1,0.2,0.1,0.2,0.1c0.2,0,0.3-0.5,0.3-1.4v-15.6c0-1.1,0-1.9-0.1-2.5c-0.1-0.6-0.3-1-0.7-1.3c-0.4-0.3-0.8-0.5-1.2-0.6
		c-0.4-0.1-1.1-0.2-2.1-0.3c-0.2-0.1-0.2-0.4-0.2-0.8s0.1-0.7,0.2-0.9c3.1,0.1,4.9,0.1,5.2,0.1C137.9,446.9,139.6,446.9,142.7,446.8
		z M170.5,451.5c-3.2-3.1-7-4.7-11.5-4.7c-1.1,0-2.6,0-4.4,0c-1.8,0-2.9,0-3.5,0c-0.9,0-2.9,0-6.1-0.1c-0.2,0.2-0.2,0.4-0.2,0.9
		c0,0.4,0.1,0.7,0.2,0.8c1.7,0.1,2.9,0.3,3.3,0.8c0.5,0.5,0.7,1.6,0.7,3.5v18.8c0,1.9-0.2,3-0.7,3.5s-1.6,0.7-3.3,0.8
		c-0.2,0.2-0.2,0.4-0.2,0.8c0,0.4,0.1,0.7,0.2,0.8c3.1-0.1,5.1-0.1,6.1-0.1c0.3,0,1.4,0,3.1,0c1.8,0,3.6,0,5.5,0
		c1.8,0,3.6-0.2,5.3-0.7s3.3-1.2,4.9-2.2c1.6-1,2.9-2.6,3.8-4.6c1-2,1.4-4.4,1.4-7.2C175.2,458.4,173.7,454.6,170.5,451.5z
		 M169.7,469.7c-0.6,1.6-1.6,2.8-2.8,3.7c-1.2,0.8-2.5,1.4-3.9,1.8c-1.4,0.4-3,0.5-4.8,0.5c-2.1,0-3.5-0.2-4.2-0.6
		c-0.6-0.4-1-1-1-1.8v-22.5c0-1.5,1.3-2.3,4-2.3c2.4,0,4.5,0.5,6.4,1.4c1.8,0.9,3.2,2.1,4.2,3.7c1,1.5,1.8,3.2,2.2,4.9
		c0.5,1.7,0.7,3.6,0.7,5.5C170.7,466.2,170.4,468.1,169.7,469.7z"/>
	<path d="M218.3,452.7v18.7c0,1.9,0.2,3,0.7,3.5c0.5,0.4,1.6,0.7,3.3,0.8c0.2,0.2,0.2,0.5,0.2,0.9s-0.1,0.7-0.2,0.8
		c-3.1-0.1-5.2-0.1-6.1-0.1c-1,0-3.1,0-6.2,0.1c-0.1-0.1-0.1-0.4-0.1-0.8s0.1-0.7,0.2-0.9c1.7-0.1,2.9-0.3,3.4-0.8
		c0.5-0.5,0.7-1.6,0.7-3.5v-9.3h-16.1v9.3c0,1.9,0.2,3,0.7,3.5c0.5,0.4,1.6,0.7,3.4,0.8c0.1,0.2,0.2,0.5,0.2,0.9s-0.1,0.7-0.2,0.8
		c-3.2-0.1-5.2-0.1-6.1-0.1c-1,0-3,0-6.1,0.1c-0.2-0.1-0.2-0.4-0.2-0.8s0.1-0.7,0.2-0.9c1.7-0.1,2.9-0.3,3.3-0.8s0.7-1.6,0.7-3.5
		v-18.7c0-1.9-0.2-3-0.7-3.5s-1.6-0.7-3.3-0.8c-0.2-0.1-0.2-0.4-0.2-0.8s0.1-0.7,0.2-0.9c3.1,0.1,5.2,0.1,6.1,0.1c1,0,3.1,0,6.1-0.1
		c0.1,0.2,0.2,0.5,0.2,0.9s-0.1,0.7-0.2,0.8c-1.8,0.1-2.9,0.3-3.4,0.8c-0.5,0.4-0.7,1.6-0.7,3.5v7.5h16.1v-7.5c0-1.9-0.2-3-0.7-3.5
		c-0.5-0.4-1.6-0.7-3.4-0.8c-0.1-0.1-0.2-0.4-0.2-0.8s0-0.7,0.1-0.9c3.2,0.1,5.2,0.1,6.1,0.1c1,0,3,0,6.1-0.1
		c0.2,0.2,0.2,0.5,0.2,0.9s-0.1,0.7-0.2,0.8c-1.7,0.1-2.9,0.3-3.3,0.8C218.5,449.7,218.3,450.9,218.3,452.7z M250.6,450.5
		c2.9,2.8,4.3,6.6,4.3,11.3c0,3.9-1,7.3-2.9,10.1c-1.3,1.9-3,3.4-5.1,4.4c-2.1,1-4.4,1.6-6.9,1.6c-4.1,0-7.6-1.4-10.5-4.2
		c-2.9-2.8-4.3-6.4-4.3-11c0-4.2,1.1-7.7,3.2-10.7c1.3-1.8,3-3.2,4.9-4.2s4.1-1.5,6.4-1.5C244.1,446.3,247.7,447.7,250.6,450.5z
		 M250.4,462.7c0-4.6-1.1-8.2-3.2-10.8c-2.1-2.6-4.8-3.9-8.1-3.9c-1.1,0-2.2,0.3-3.3,0.8c-1.1,0.5-2.1,1.4-3,2.4
		c-0.9,1.1-1.7,2.5-2.2,4.4c-0.6,1.9-0.9,4-0.9,6.3c0,4.3,1.1,7.8,3.3,10.3c2.2,2.6,4.8,3.9,7.9,3.9c2.8,0,5-1.2,6.8-3.6
		C249.5,470,250.4,466.8,250.4,462.7z M300.1,446.8c-2.3,0.1-3.7,0.1-4.1,0.1c-0.9,0-2.7,0-5.2-0.1c-0.2,0.2-0.2,0.5-0.2,0.9
		s0.1,0.7,0.2,0.8c0.3,0,0.6,0.1,0.8,0.1c0.2,0,0.5,0,0.8,0.1c0.3,0,0.5,0.1,0.7,0.2c0.2,0.1,0.3,0.1,0.5,0.3
		c0.2,0.1,0.3,0.2,0.4,0.4s0.1,0.4,0.1,0.6c0,0.2,0,0.5-0.1,0.7l-7.5,21.4h-0.1l-6.8-20.9c-0.2-0.5-0.3-0.9-0.2-1.3s0.2-0.6,0.3-0.8
		c0.1-0.2,0.3-0.3,0.6-0.4s0.6-0.2,0.8-0.2c0.2,0,0.5-0.1,1-0.1c0.1-0.2,0.2-0.4,0.2-0.8s-0.1-0.7-0.2-0.9c-3,0.1-4.9,0.1-5.8,0.1
		c-0.6,0-2.2,0-4.7-0.1c-0.1,0.2-0.2,0.5-0.2,0.9s0.1,0.7,0.2,0.8c1.1,0.1,2.1,0.4,2.7,0.9s1.1,1.2,1.4,1.9l0.7,2.2
		c0.2,0.5,0.2,0.9,0.2,1.3c0,0.6-0.1,1.2-0.3,1.8l-5.9,15.5h-0.1l-7.1-21.8c-0.2-0.5-0.1-0.9,0-1.1c0.2-0.3,0.4-0.4,0.8-0.5
		s0.8-0.1,1.5-0.2c0.1-0.2,0.2-0.4,0.2-0.8s-0.1-0.7-0.2-0.9c-2.1,0.1-3.8,0.1-5.3,0.1c-0.4,0-1.9,0-4.4-0.1
		c-0.1,0.2-0.2,0.5-0.2,0.9s0.1,0.7,0.2,0.8c1.1,0.1,1.9,0.2,2.3,0.5s0.8,1,1.2,2.1l8.6,25.7c0.2,0.8,0.7,1.2,1.4,1.2
		c0.6,0,1-0.4,1.3-1.1l6.6-16.8c0.3-0.8,0.5-1.2,0.7-1.2c0.2,0,0.4,0.4,0.6,1.3l5.5,16.7c0.3,0.8,0.8,1.1,1.5,1.1
		c0.6,0,1-0.4,1.3-1.1l9.3-25.5c0.3-0.9,0.8-1.6,1.3-2.1c0.6-0.5,1.5-0.7,2.7-0.8c0.1-0.2,0.2-0.4,0.2-0.8S300.2,447,300.1,446.8z"
		/>
	<path d="M336.1,469.7c-0.3,2.7-0.7,5.3-1.2,7.7c-2.9-0.1-4.8-0.1-5.6-0.1h-10c-2.5,0-4.6,0.1-6.1,0.1c-0.2-0.1-0.2-0.4-0.2-0.8
		s0.1-0.7,0.2-0.9c1.7-0.1,2.9-0.3,3.3-0.8c0.5-0.5,0.7-1.6,0.7-3.5v-18.7c0-1.9-0.2-3-0.7-3.5c-0.5-0.4-1.6-0.7-3.3-0.8
		c-0.2-0.1-0.2-0.4-0.2-0.8s0.1-0.7,0.2-0.9c3.1,0.1,5.2,0.1,6.1,0.1c1,0,3.1,0,6.1-0.1c0.1,0.2,0.1,0.5,0.1,0.9s-0.1,0.7-0.2,0.8
		c-1.7,0.1-2.9,0.3-3.3,0.8c-0.5,0.5-0.7,1.6-0.7,3.5v20.5c0,0.7,0.2,1.3,0.6,1.7c0.4,0.4,0.9,0.6,1.6,0.6h3.5c2.3,0,4-0.5,5.2-1.6
		c1.1-1.1,2-2.6,2.5-4.6C335.1,469.4,335.6,469.4,336.1,469.7z M364.2,450.5c2.9,2.8,4.3,6.6,4.3,11.3c0,3.9-1,7.3-2.9,10.1
		c-1.3,1.9-3,3.4-5.1,4.4c-2.1,1-4.4,1.6-6.9,1.6c-4.1,0-7.6-1.4-10.5-4.2c-2.9-2.8-4.3-6.4-4.3-11c0-4.2,1.1-7.7,3.2-10.7
		c1.3-1.8,3-3.2,4.9-4.2s4.1-1.5,6.4-1.5C357.7,446.3,361.3,447.7,364.2,450.5z M364,462.7c0-4.6-1.1-8.2-3.2-10.8
		c-2.1-2.6-4.8-3.9-8.1-3.9c-1.1,0-2.2,0.3-3.3,0.8c-1.1,0.5-2.1,1.4-3,2.4c-0.9,1.1-1.7,2.5-2.2,4.4c-0.6,1.9-0.9,4-0.9,6.3
		c0,4.3,1.1,7.8,3.3,10.3c2.2,2.6,4.8,3.9,7.9,3.9c2.8,0,5-1.2,6.8-3.6C363.1,470,364,466.8,364,462.7z M397.6,446.9
		c-0.3,0-2.1,0-5.2-0.1c-0.2,0.2-0.3,0.5-0.2,0.9s0.1,0.7,0.2,0.8c1,0.1,1.7,0.2,2.1,0.3c0.4,0.1,0.8,0.3,1.2,0.6
		c0.4,0.3,0.6,0.8,0.7,1.3c0.1,0.6,0.1,1.4,0.1,2.5v15.6c0,0.9-0.1,1.4-0.3,1.4c-0.1,0-0.1,0-0.2-0.1c-0.1-0.1-0.2-0.2-0.3-0.3
		c-0.1-0.2-0.3-0.3-0.4-0.5s-0.3-0.4-0.6-0.8c-0.3-0.4-0.5-0.7-0.7-0.9l-16.2-20.8l-6.4-0.1c-0.2,0.2-0.2,0.5-0.2,0.9
		s0.1,0.7,0.2,0.8c1,0.1,1.8,0.4,2.5,1s1.1,1.3,1.3,2V471c0,2-0.2,3.2-0.7,3.7c-0.5,0.5-1.6,0.8-3.4,1c-0.2,0.2-0.3,0.5-0.2,0.9
		c0,0.4,0.1,0.7,0.2,0.8c3.1-0.1,4.8-0.1,5.3-0.1c0.3,0,2.1,0,5.2,0.1c0.1-0.1,0.2-0.4,0.2-0.8s-0.1-0.7-0.2-0.9
		c-1-0.1-1.7-0.2-2.1-0.3c-0.4-0.1-0.8-0.3-1.2-0.6c-0.4-0.3-0.6-0.8-0.7-1.3c-0.1-0.6-0.2-1.4-0.2-2.5v-14.3c0-1.5,0.1-2.3,0.4-2.3
		c0.3,0,0.8,0.5,1.6,1.5l16.5,20.7c0.6,0.8,1.2,1.2,1.9,1.2c0.7,0,1.1-0.5,1.1-1.6v-23c0-2,0.2-3.2,0.7-3.7s1.6-0.8,3.4-1
		c0.1-0.2,0.2-0.4,0.2-0.8s-0.1-0.7-0.2-0.9C399.8,446.9,398,446.9,397.6,446.9z M433,465.1c0.3-0.3,0.9-0.5,1.6-0.6
		c0.2-0.2,0.2-0.4,0.2-0.9c0-0.4-0.1-0.7-0.2-0.9c-1.9,0.1-3.3,0.1-4.2,0.1c-0.9,0-2.9,0-5.9-0.1c-0.1,0.2-0.1,0.5-0.1,0.9
		c0,0.4,0.1,0.7,0.2,0.8c1.5,0.1,2.5,0.3,3,0.6c0.5,0.3,0.8,0.8,0.8,1.7v7c-1.6,1.5-3.9,2.3-6.9,2.3c-2,0-3.9-0.4-5.5-1.3
		s-3-2-4.1-3.4c-1-1.4-1.8-2.9-2.4-4.6c-0.6-1.6-0.9-3.3-0.9-4.9c0-4.1,1.1-7.4,3.2-10c2.2-2.6,4.9-3.9,8.1-3.9c3.1,0,5.5,0.7,7,2.1
		c1.6,1.4,2.7,3.4,3.4,5.8l1.6-0.3c-0.4-1.9-0.8-4.3-1-7.3c-0.7,0-2.1-0.3-4.1-1s-4.1-1-6.3-1c-2.7,0-5.3,0.6-7.7,1.9
		c-2.4,1.3-4.4,3.2-6,5.8c-1.6,2.6-2.4,5.5-2.4,8.8c0,4.2,1.5,7.7,4.5,10.6c3,2.9,6.8,4.4,11.4,4.4c5.1,0,9.3-1.5,12.8-4.4
		c-0.5-0.4-0.8-0.8-0.8-1.3v-5.3C432.5,466,432.7,465.5,433,465.1z"/>
	<path d="M474.9,447.7c0,0.4-0.1,0.7-0.2,0.8c-1.1,0.1-2,0.3-2.6,0.7c-0.6,0.4-1.2,1.1-1.9,2.3l-5.6,10.1c-0.2,0.4-0.4,0.9-0.6,1.3
		s-0.2,0.7-0.2,1c0,0.3,0,0.7,0,1.3v6.3c0,1.9,0.3,3,0.8,3.5s1.8,0.7,3.7,0.8c0.1,0.2,0.2,0.5,0.2,0.9s-0.1,0.7-0.2,0.8
		c-3.1-0.1-5.3-0.1-6.5-0.1c-1.3,0-3.5,0-6.6,0.1c-0.2-0.1-0.2-0.4-0.2-0.8s0.1-0.7,0.2-0.9c2-0.1,3.2-0.3,3.7-0.8s0.8-1.6,0.8-3.5
		v-5.9c0-0.8-0.1-1.5-0.2-1.9s-0.4-1-0.8-1.7l-6.2-10.3c-0.5-0.9-1-1.6-1.5-2c-0.4-0.4-0.9-0.7-1.3-0.9s-1-0.2-1.7-0.3
		c-0.2-0.2-0.2-0.5-0.2-0.9s0.1-0.7,0.2-0.9c1.9,0.1,3.5,0.1,4.8,0.1c1.1,0,2.9,0,5.4-0.1c0.2,0.2,0.2,0.5,0.2,0.9s-0.1,0.7-0.2,0.8
		c-1.3,0.1-2.1,0.3-2.3,0.6c-0.2,0.3,0,1,0.6,2l5.5,9.5c0.2,0.4,0.4,0.6,0.5,0.6s0.3-0.2,0.5-0.5l5.2-9.8c0.2-0.5,0.4-0.9,0.4-1.2
		c0-0.3,0-0.5-0.2-0.7c-0.2-0.2-0.4-0.3-0.7-0.4c-0.3-0.1-0.8-0.1-1.3-0.2c-0.2-0.1-0.2-0.4-0.2-0.8s0.1-0.7,0.2-0.9
		c2.5,0.1,3.9,0.1,4.3,0.1c0.7,0,2,0,3.9-0.1C474.8,447,474.9,447.3,474.9,447.7z M500.3,450.5c2.9,2.8,4.3,6.6,4.3,11.3
		c0,3.9-1,7.3-2.9,10.1c-1.3,1.9-3,3.4-5.1,4.4c-2.1,1-4.4,1.6-6.9,1.6c-4.1,0-7.6-1.4-10.5-4.2c-2.9-2.8-4.3-6.4-4.3-11
		c0-4.2,1.1-7.7,3.2-10.7c1.3-1.8,3-3.2,4.9-4.2s4.1-1.5,6.4-1.5C493.8,446.3,497.4,447.7,500.3,450.5z M500,462.7
		c0-4.6-1.1-8.2-3.2-10.8c-2.1-2.6-4.8-3.9-8.1-3.9c-1.1,0-2.2,0.3-3.3,0.8c-1.1,0.5-2.1,1.4-3,2.4c-0.9,1.1-1.7,2.5-2.2,4.4
		c-0.6,1.9-0.9,4-0.9,6.3c0,4.3,1.1,7.8,3.3,10.3c2.2,2.6,4.8,3.9,7.9,3.9c2.8,0,5-1.2,6.8-3.6C499.1,470,500,466.8,500,462.7z
		 M537,446.8c-3.1,0.1-4.7,0.1-4.8,0.1c-0.5,0-2.3,0-5.5-0.1c-0.1,0.2-0.2,0.5-0.2,0.9s0.1,0.7,0.2,0.8c1.1,0.1,1.8,0.2,2.2,0.3
		c0.4,0.1,0.8,0.3,1.2,0.5c0.4,0.3,0.7,0.7,0.7,1.2s0.1,1.3,0.1,2.3v11.6c0,1.3,0,2.3-0.1,3.3c-0.1,0.9-0.3,1.9-0.6,3
		c-0.3,1.1-0.8,2-1.4,2.7c-0.6,0.7-1.4,1.3-2.6,1.8c-1.1,0.5-2.4,0.7-4,0.7c-2.1,0-4-0.8-5.6-2.4c-0.7-0.7-1.3-1.6-1.7-2.7
		c-0.4-1.1-0.6-2.1-0.7-2.9c-0.1-0.8-0.1-1.9-0.1-3.2v-11.9c0-1.9,0.3-3,0.8-3.5s1.7-0.7,3.6-0.8c0.1-0.2,0.2-0.4,0.2-0.8
		s0-0.7-0.1-0.9c-3.1,0.1-5.2,0.1-6.4,0.1c-0.6,0-2.5,0-5.6-0.1c-0.1,0.2-0.2,0.5-0.2,0.9s0.1,0.7,0.2,0.8c1.5,0.1,2.5,0.3,2.9,0.8
		c0.4,0.5,0.7,1.6,0.7,3.5v13.5c0,2.3,0.4,4.2,1.1,5.8s1.7,2.8,2.9,3.6c1.2,0.8,2.4,1.3,3.5,1.7c1.1,0.3,2.3,0.5,3.6,0.5
		c2.4,0,4.3-0.3,6-1c1.6-0.7,2.8-1.7,3.7-3c0.9-1.3,1.5-2.8,1.8-4.5c0.3-1.6,0.5-3.6,0.5-5.8v-10.7c0-1.3,0.1-2.2,0.4-2.8
		c0.2-0.6,0.6-0.9,1-1.1c0.4-0.1,1.2-0.3,2.3-0.4c0.1-0.2,0.2-0.4,0.2-0.8S537.2,447,537,446.8z"/>
	<path d="M570.1,465.7c0.3,0.9,0.5,1.9,0.5,2.9c0,1.5-0.4,2.9-1.2,4.3c-0.8,1.4-1.9,2.5-3.3,3.3c-1.7,1-3.6,1.5-5.9,1.5
		c-1.5,0-3.2-0.2-4.9-0.5s-3-0.5-3.9-0.5c-0.5-2-0.8-4.4-0.9-7.1c0.5-0.3,1-0.3,1.5-0.1c1,4.5,3.9,6.7,8.6,6.7
		c1.9,0,3.3-0.5,4.4-1.5s1.5-2.4,1.5-4.3c0-0.9-0.1-1.6-0.4-2.4s-0.6-1.3-0.9-1.7c-0.3-0.4-0.8-0.9-1.5-1.3
		c-0.6-0.4-1.2-0.7-1.6-0.9c-0.4-0.2-1-0.4-1.8-0.7c-0.8-0.3-1.3-0.5-1.6-0.6c-1.4-0.6-2.6-1.2-3.6-1.9c-1-0.7-1.8-1.5-2.5-2.6
		c-0.7-1.1-1-2.3-1-3.7c0-2.4,0.9-4.4,2.7-6s4-2.3,6.6-2.3c1.8,0,3.4,0.2,4.7,0.6c1.3,0.4,2.2,0.7,2.6,0.7c0.4,2.2,0.7,4.2,0.9,6.1
		c-0.2,0.2-0.7,0.3-1.5,0.3c-0.2-0.5-0.3-0.9-0.4-1.3c-0.1-0.4-0.3-0.8-0.5-1.2c-0.2-0.4-0.5-0.8-0.7-1.1c-0.3-0.3-0.6-0.6-0.9-0.9
		c-0.4-0.3-0.7-0.6-1.2-0.8c-0.4-0.2-0.9-0.4-1.4-0.5c-0.5-0.1-1.1-0.2-1.8-0.2c-1.4,0-2.6,0.5-3.6,1.6c-1,1.1-1.6,2.3-1.6,3.6
		c0,0.7,0.2,1.4,0.5,2.1c0.3,0.7,0.7,1.2,1.2,1.6s1.1,0.9,1.8,1.3c0.7,0.4,1.4,0.7,1.9,1s1.1,0.5,1.9,0.7c0.8,0.3,1.2,0.5,1.4,0.6
		c0.9,0.4,1.7,0.8,2.5,1.3c0.7,0.5,1.4,1,2.1,1.7C569.2,464.1,569.7,464.8,570.1,465.7z M600,453.4c-0.4-2.5-0.6-4.7-0.6-6.7
		c0-0.1,0-0.1-0.1-0.1c-2.9,0.2-6.4,0.4-10.6,0.4h-4.1c-4.2,0-7.8-0.1-11-0.4c-0.1,0-0.2,0-0.2,0.1c-0.2,1.9-0.5,4.1-1.2,6.8
		c0.4,0.2,1,0.2,1.6,0.2c0.4-1.9,1.2-3.2,2.2-4c1-0.8,2.4-1.2,4-1.2h2.3c0.8,0,1.4,0.4,1.7,1.2c0.3,0.8,0.5,2,0.5,3.5v18.1
		c0,1.9-0.3,3.1-0.8,3.5c-0.5,0.5-1.8,0.7-3.7,0.8c-0.1,0.2-0.2,0.5-0.2,0.9s0,0.7,0.1,0.8c3.1-0.1,5.3-0.1,6.6-0.1
		c1.2,0,3.4,0,6.6,0.1c0.2-0.1,0.2-0.4,0.2-0.8s-0.1-0.7-0.2-0.9c-2-0.1-3.2-0.3-3.8-0.8c-0.5-0.5-0.8-1.6-0.8-3.5v-18
		c0-1.6,0.2-2.8,0.5-3.6c0.3-0.8,0.9-1.2,1.7-1.2h1c1.9,0,3.3,0.4,4.4,1.1c1.1,0.8,1.8,2,2.2,3.9C599.1,453.6,599.7,453.5,600,453.4
		z M630.3,475.7c0.2,0.2,0.2,0.5,0.2,0.9s-0.1,0.7-0.2,0.8c-2.3-0.1-4.1-0.1-5.4-0.1c-1.8,0-3.9,0-6.2,0.1c-0.1-0.1-0.2-0.4-0.2-0.8
		s0.1-0.7,0.2-0.9c0.2,0,0.4,0,0.7,0c0.3,0,0.5,0,0.7-0.1c0.2,0,0.4,0,0.6-0.1c0.3,0,0.4-0.1,0.6-0.1s0.3-0.1,0.4-0.1
		c0.2-0.1,0.3-0.1,0.4-0.2c0.1-0.1,0.1-0.2,0.2-0.3c0-0.1,0.1-0.3,0-0.4c0-0.2-0.1-0.3-0.1-0.5l-2.7-7.9h-10c-0.6,0-1,0.1-1.2,0.2
		c-0.2,0.1-0.4,0.3-0.5,0.6l-2.6,6.7c0,0.3-0.1,0.6-0.1,0.8c-0.1,0.2,0,0.4,0.3,0.6s0.4,0.3,0.6,0.4c0.1,0.1,0.4,0.2,0.8,0.2
		c0.4,0.1,0.7,0.1,0.9,0.1c0.2,0,0.5,0,0.9,0.1c0.1,0.2,0.2,0.5,0.2,0.9s-0.1,0.7-0.2,0.8c-2.3-0.1-4.3-0.1-6-0.1
		c-0.5,0-1.9,0-4.2,0.1c-0.2-0.1-0.2-0.4-0.2-0.8s0.1-0.7,0.2-0.9c1.2-0.1,2.1-0.3,2.8-0.7c0.7-0.4,1.3-1.3,1.9-2.6l10.7-25.2
		c0.7,0,1.6-0.3,2.6-0.9l9.7,26.9c0.2,0.6,0.4,1,0.7,1.4c0.3,0.3,0.6,0.6,1.1,0.8c0.5,0.2,0.8,0.3,1.1,0.3
		C629.1,475.6,629.6,475.6,630.3,475.7z M618.7,464l-4.4-12.8H614l-4.8,12.2c0,0.1-0.1,0.2,0,0.3c0,0.1,0,0.1,0.1,0.2
		s0.1,0.1,0.2,0.1s0.2,0,0.4,0.1c0.1,0,0.3,0,0.5,0H618.7z M654.2,446.8c-1.9,0.1-3.2,0.1-3.9,0.1c-0.3,0-1.8,0-4.3-0.1
		c-0.2,0.2-0.2,0.5-0.2,0.9s0.1,0.7,0.2,0.8c0.6,0,1,0.1,1.3,0.2c0.3,0.1,0.6,0.2,0.7,0.4c0.2,0.2,0.2,0.4,0.2,0.7
		c0,0.3-0.2,0.7-0.4,1.2l-5.2,9.8c-0.2,0.3-0.4,0.5-0.5,0.5s-0.3-0.2-0.5-0.6l-5.5-9.5c-0.6-1-0.8-1.7-0.6-2c0.2-0.3,1-0.5,2.3-0.6
		c0.2-0.2,0.2-0.4,0.2-0.8s-0.1-0.7-0.2-0.9c-2.5,0.1-4.3,0.1-5.4,0.1c-1.3,0-2.9,0-4.8-0.1c-0.1,0.2-0.2,0.5-0.2,0.9
		s0.1,0.7,0.2,0.9c0.7,0,1.3,0.1,1.7,0.3s0.8,0.4,1.3,0.9c0.4,0.4,0.9,1.1,1.5,2l6.2,10.3c0.4,0.7,0.7,1.3,0.8,1.7s0.2,1.1,0.2,1.9
		v5.9c0,1.9-0.3,3-0.8,3.5s-1.8,0.7-3.7,0.8c-0.2,0.2-0.2,0.5-0.2,0.9s0.1,0.7,0.2,0.8c3.1-0.1,5.3-0.1,6.6-0.1c1.2,0,3.4,0,6.5,0.1
		c0.1-0.1,0.2-0.4,0.2-0.8s-0.1-0.7-0.2-0.9c-2-0.1-3.2-0.3-3.7-0.8s-0.8-1.6-0.8-3.5v-6.3c0-0.5,0-1,0-1.3c0-0.3,0.1-0.7,0.2-1
		s0.3-0.8,0.6-1.3l5.6-10.1c0.6-1.1,1.2-1.9,1.9-2.3c0.6-0.4,1.5-0.6,2.6-0.7c0.2-0.2,0.2-0.4,0.2-0.8S654.3,447,654.2,446.8z"/>
	<path d="M157.6,268.7c0.5,7,0.4,14.6-0.3,22.9c-0.7,8.3-1.9,16.5-3.5,24.6c-3.5,15.7-7.9,26.8-13.1,33.2c-5.3,6.5-10.5,7.8-15.5,4
		c-5.1-3.8-9.1-13.1-12.1-28.1c-3,12-6.9,21.1-11.7,27.4c-4.7,6.3-9.5,9.3-14.3,8.9c-4.8-0.3-8.8-4.6-11.9-12.6
		c-3.1-8.1-4.6-20.6-4.4-37.5c0.2-6,0.4-11.7,0.6-17c0.4-7.6,0.6-14.2,0.6-20c0-5.7-0.3-10.3-1.1-13.7c-0.1-0.7-0.4-1.5-0.8-2.5
		c-0.4-0.9-0.9-1.6-1.5-1.9c-0.9-0.3-2.1-0.2-3.6,0.5c-1.5,0.7-3,1.5-4.4,2.5c-1.4,1-2.5,1.7-3.1,2.2c-0.6,0.4-1.3,0.6-1.9,0.5
		c-0.7-0.1-1.2-0.5-1.7-1c-0.4-0.5-0.6-1.1-0.5-1.7c0-0.6,0.3-1.1,0.7-1.6c1.5-1.7,3.1-3.2,4.9-4.7c1.8-1.5,3.7-2.6,5.8-3.4
		c5-1.6,8.9-0.5,11.7,3.4c2.2,3.1,3.7,7.6,4.5,13.3c0.8,5.8,1.1,12.2,1,19.5c-0.1,7.2-0.3,14.6-0.6,22.1c0,1-0.1,2-0.1,3
		c-0.6,16,0,27.7,1.9,35.2c1.8,7.5,4.4,11,7.6,10.6c3.3-0.4,6.7-4.3,10.5-11.8c3.7-7.5,7.2-18.2,10.4-32.1
		c-0.9-11.8,0.2-22.2,3.3-31.3c0.4-0.9,1-1.5,1.8-1.7c0.8-0.2,1.6-0.1,2.3,0.4c0.7,0.5,1.1,1.2,1.1,2.2c-0.1,10.8,0.9,23.7,3,38.6
		c1.7,11.2,3.8,18.9,6.2,22.9c2.4,4,4.9,5.2,7.4,3.5s5-5.5,7.3-11.3c2.3-5.9,4.2-13.1,5.8-21.6c1.3-7.5,2.3-15.1,3-22.8
		c0.7-7.7,1-14.7,0.9-21.2c-0.1-6.5-0.5-11.7-1.4-15.5c-0.9-3.9-2.2-5.8-4-5.8c-0.1,0-0.1,0-0.2,0c0,0-0.1,0-0.1,0
		c0,0-0.1,0-0.1,0.1c-0.5,0-0.8-0.2-1-0.5c-0.2-0.3-0.3-0.7-0.2-1s0.4-0.6,0.8-0.8c3-0.5,5.4,1.2,7,5.2
		C156.1,256.3,157.1,261.8,157.6,268.7z M439.3,315.5c-0.4,5-1.6,10.1-3.7,15.4c-2.1,5.3-4.9,9.9-8.5,13.8s-7.7,6.3-12.4,7h-0.1
		h-0.1c-4.6,0.2-8.3-1.2-10.9-4.2c-2.6-3-4.4-6.8-5.3-11.6c-0.1-0.5-0.2-1-0.3-1.5c-0.7,3.3-1.6,6.6-2.5,9.8c-2.2,6.7-4.8,11-8,12.8
		c-3.2,1.8-6.3,1.6-9.3-0.6c-3-2.2-5.4-6-7.2-11.2c-3.7-11.3-3.9-23.9-0.6-37.8c0.7-3.3,0.8-4.8,0.2-4.8s-1.6,1.2-2.9,3.5
		c-1.4,2.3-2.9,5.1-4.6,8.4c-1.7,3.4-3.2,6.7-4.6,9.9c-1,5.4-2.2,9.3-3.4,11.9c-0.7,1.2-1.6,1.7-2.8,1.5c-1.2-0.2-2-0.9-2.3-2.2
		c-0.7-4.8-1-10.6-0.9-17.4c0-4.8-0.1-9.2-0.3-13.1c-0.3-3.7-0.8-5.9-1.5-6.7c-0.7-0.7-1.9,0.7-3.5,4.4s-3.9,10.1-6.8,19.4
		c-0.3,8.5-1.8,15.4-4.7,20.6c-0.7,1-1.6,1.4-2.7,1.2c-1.1-0.2-1.8-0.9-2.1-2.1c-0.2-1.3-0.3-2.9-0.5-4.7c-0.2-1.8-0.3-3.4-0.3-4.8
		c-0.1-3.2-0.2-6.1-0.2-8.8c-1.3,2-2.8,3.6-4.7,4.9c-3.1,2.1-6.7,3.1-10.6,2.8c-2.2,5.6-4.7,9.4-7.7,11.3c-2.9,1.9-5.8,2.5-8.7,1.9
		c-4.6-1.2-8-3.7-10.3-7.6c-2.2-3.7-3.4-7.9-3.6-12.6c-1.4,2.5-2.9,4.8-4.4,7c-2.9,4.2-6.5,8.1-10.8,11.9c-4.2,3.7-8.5,6.1-12.9,7.2
		c-4.4,1-8.6,0.1-12.8-2.8c-3.4-2.7-5.4-6.3-6.2-10.9c-0.1-0.7-0.2-1.3-0.3-2c-0.8,2.3-1.8,4.6-3,6.7c-1.9,3.4-4.3,5.8-7.3,7.2
		c-4,1.6-8.1,0.7-12.2-2.8c-4.2-3.5-7.8-9.1-10.9-17c-0.5-1.2-0.9-2.5-1.4-3.9c-0.6,2-1.2,4-2,6.1c-2.1,5.3-4.9,9.9-8.5,13.8
		s-7.7,6.3-12.4,7H176h-0.1c-4.6,0.2-8.3-1.2-10.9-4.2c-2.6-3-4.4-6.8-5.3-11.6c-0.9-4.8-1.1-9.8-0.6-15.1
		c0.5-5.2,1.7-10.1,3.4-14.4s3.9-7.7,6.6-9.8c2.2-1.6,4.4-2.3,6.6-2.2c2.2,0.1,4.2,1.1,5.7,3c1.6,1.8,2.4,4.5,2.6,8.1
		c0.1,4.6-1.2,8.9-4,12.8s-6.4,6.3-10.9,7.4c-0.1,2.1,0,4.5,0.2,7.1c0.2,2.7,0.7,5.1,1.6,7.3c0.9,2.2,2.2,3.6,4.1,4.3
		c2.9,0.9,5.6,0.5,8.1-1.3c2.5-1.8,4.8-4.4,6.8-7.7c2-3.4,3.7-6.8,5.1-10.5c0.8-2.1,1.5-4.1,2.1-5.9c-1.3-5.7-2.2-12.1-2.7-19.2
		c-0.5-12.4,0.6-23,3.2-32c2.6-9,6.3-15.7,10.9-20.2c4.6-4.5,9.6-6.1,15-4.9c2.6,0.7,4.6,2.4,5.8,5.2c1.2,2.8,2,6,2.1,9.8
		c0.2,3.8,0,7.5-0.5,11.3c-0.5,3.8-1.2,7-2.1,9.7c-4,12.9-11.5,25.4-22.4,37.3c0.7,4.7,1.6,9.5,2.9,14.5c1.3,5,3,8.9,5.1,11.7
		s4.8,3.5,8,1.9c1.9-1.2,3.6-3.1,5.1-5.9c1.5-2.8,2.8-5.7,3.9-8.7c1.1-3.1,1.9-5.7,2.4-7.8c0.5-2.1,0.8-3.1,0.8-3
		c0.1-0.4,0.3-0.6,0.6-0.8c1.1-3.5,2.5-6.9,4.2-10c2.4-4.5,5.1-7.9,8.2-10.5c3.3-2.6,6.6-3.4,9.9-2.6c3.3,0.8,5.9,3.5,7.8,8.2
		c1.9,4.6,2.3,11.4,1.2,20.4c-0.2,1.5-0.9,2.6-2,3.5c-1.1,0.9-2.4,1.2-3.9,1c-1.5-0.2-2.6-0.9-3.5-2c-0.9-1.1-1.2-2.4-1.1-3.9
		c0.1-0.5,0.4-1.3,0.9-2.5c0.5-1.4,1-3.1,1.6-5s1-4,1.2-6.1c0.1-2.5-0.1-4.3-0.6-5.3c-0.5-1.1-1.2-1.7-1.9-1.8s-1.6,0-2.3,0.4
		c-0.8,0.4-1.3,0.8-1.7,1.3h0.1c-1.6,2-3.2,4.8-4.9,8.5c-1.6,3.7-2.9,7.6-3.9,11.8c-1,4.2-1.3,8-1.1,11.4c0.3,3.4,1.5,5.8,3.6,7.1
		c3.4,1.9,6.8,2.1,10.3,0.8c3.4-1.3,6.7-3.5,9.9-6.7c3.2-3.1,5.7-6,7.6-8.6s3.7-5.3,5.3-7.8c0.3-0.5,0.6-0.9,0.8-1.3
		c0.5-2.7,1.3-5.3,2.5-7.7c2.1-4,5.2-6.8,9.3-8.2c1.3-0.3,2.3-0.1,3,0.5c0.3-0.3,0.6-0.5,0.9-0.8c2.5-1.6,5.2-1.9,8.1-0.8
		c2.9,1.1,5.2,3.7,6.8,7.9s1.8,10.1,0.5,17.8c3.4,0.2,6.3-0.5,8.4-1.9c2.2-1.5,4-3.7,5.6-6.6c0,0,0,0,0,0c0-0.9,0-1.7,0.1-2.6
		c0.2-4.7,0.4-8.4,0.7-11c0.1-1.2,0.2-2.1,0.2-2.9c0.1-0.7,0.4-1.3,0.9-1.8c0.5-0.5,1.2-0.7,1.9-0.6c1.1,0.2,2,0.8,2.5,1.9
		c1.5,2.8,2.7,6.1,3.3,10c2.6-8,5-13.5,7.3-16.5c2.3-3,4.4-4.4,6.3-4.1c1.9,0.3,3.5,1.4,4.9,3.3c1.3,1.9,2.3,3.7,2.9,5.4
		c1.1,3,1.8,7,2,11.8c0,0.3,0,0.6,0,1c2.8-6.4,5.3-10.7,7.7-13c2.4-2.3,4.4-3.2,6.2-2.8c1.8,0.4,3.2,1.6,4.2,3.4
		c1,1.8,1.6,3.7,1.6,5.7c0,1.2-0.1,3.2-0.3,6.2c-0.4,4.6-0.6,10-0.8,16.1c-0.1,6.1,0.3,11.4,1.3,15.8c1.3,5,3.1,7.6,5.2,8
		s4.3-2,6.4-7.3c1.7-4.8,3.3-9.7,4.6-14.7c1-4,1.8-7,2.3-9.3c0.6-5,1.7-9.6,3.3-13.7c1.7-4.4,3.9-7.7,6.6-9.8
		c2.2-1.6,4.4-2.3,6.6-2.2c2.2,0.1,4.2,1.1,5.7,3c1.6,1.8,2.4,4.5,2.6,8.1c0.1,4.6-1.2,8.9-4,12.8s-6.4,6.3-10.9,7.4
		c-0.1,2.1,0,4.5,0.2,7.1c0.2,2.7,0.7,5.1,1.6,7.3c0.9,2.2,2.2,3.6,4.1,4.3c2.9,0.9,5.6,0.5,8.1-1.3c2.5-1.8,4.8-4.4,6.8-7.7
		c2-3.4,3.7-6.8,5.1-10.5c1.4-3.6,2.5-6.8,3.1-9.6c0.2-0.5,0.4-0.7,0.8-0.8c0.4-0.1,0.7,0,1,0.2C439.2,314.7,439.3,315,439.3,315.5z
		 M408.1,322.6c3.7-1.5,6.4-4,8-7.4c1.6-3.4,2.3-6.6,2.2-9.5c-0.1-1.8-0.4-3.1-1-3.7c-0.6-0.7-1.3-0.9-2.1-0.8
		c-0.8,0.2-1.4,0.6-1.9,1.3l0.1-0.1c-1.5,2.2-2.7,5.5-3.6,9.7C408.8,316.3,408.3,319.8,408.1,322.6z M169.4,322.6
		c3.7-1.5,6.4-4,8-7.4c1.6-3.4,2.3-6.6,2.2-9.5c-0.1-1.8-0.4-3.1-1-3.7c-0.6-0.7-1.3-0.9-2.1-0.8c-0.8,0.2-1.4,0.6-1.9,1.3l0.1-0.1
		c-1.5,2.2-2.7,5.5-3.6,9.7C170.1,316.3,169.6,319.8,169.4,322.6z M206.2,312.4c1.5-1.7,3.3-4.1,5.3-7c5.8-8.3,10.2-17.6,13.3-27.8
		c0.5-1.8,1-4.3,1.4-7.3c0.4-3,0.7-6.2,0.8-9.3c0.1-3.2-0.3-5.9-1-8.1c-0.7-2.2-2.3-3.4-4.8-3.7c-2.5-0.2-5,1.6-7.7,5.5
		c-2.6,3.9-4.7,9.2-6.3,16c-1.6,6.8-2.4,14.5-2.4,23.2C204.9,300.2,205.3,306.3,206.2,312.4z M308,331.2c-4-0.2-7.6-1.6-10.8-4.5
		c-3.3-2.8-5.1-6.6-5.6-11.2c-0.9,6.4-0.4,11.6,1.5,15.7c1.9,4.1,4.3,6.3,7.3,6.7C303.2,338.3,305.8,336,308,331.2z M308.9,313.5
		c-0.7-3.1-1.7-5.2-2.9-6.5c-1.2-1.2-2.4-1.5-3.4-0.9c-0.9,0.7-1.4,2.2-1.7,4.6c-0.3,2.4,0.1,5.1,1.3,7.9c1.2,2.8,3.5,5.1,7,6.8
		C309.7,320.6,309.7,316.6,308.9,313.5z M482.5,305.6c-3.4-1-14.4-1.3-18.1-1.6c-6.4,0.3-8.6,0.1-14.7,1.8c-1.3,0.4-1.8,1-1.8,1.6
		c0,1.3,1.8,2.7,3.1,2.9c0.4,0.1,0.8,0.1,1.2,0.1c3.7,0,9-1.6,16.5-1.6c3.1,0,6.7,0.3,10.7,1c0.6,0.1,1.1,0.1,1.6,0.1
		c2.3,0,3.3-1.2,3.3-2.3C484.2,306.9,483.6,306,482.5,305.6z"/>
	<path d="M507,281.8v48.1c0,4.8,0.6,7.8,1.9,8.9c1.3,1.2,4.1,1.8,8.6,2c0.3,0.4,0.5,1.2,0.5,2.3c0,1.1-0.1,1.8-0.5,2.1
		c-8.1-0.2-13.3-0.3-15.7-0.3c-2.6,0-7.8,0.1-15.7,0.3c-0.4-0.3-0.6-1.1-0.6-2.1c0-1.1,0.2-1.8,0.6-2.3c4.5-0.2,7.3-0.8,8.6-2
		c1.2-1.2,1.8-4.2,1.8-9v-48.1c0-4.8-0.6-7.8-1.8-8.9c-1.2-1.2-4.1-1.8-8.6-2c-0.4-0.3-0.6-1.1-0.6-2.1s0.2-1.8,0.6-2.3
		c8.1,0.2,13.2,0.3,15.6,0.3c2.6,0,7.9-0.1,15.8-0.3c0.3,0.4,0.5,1.2,0.5,2.2c0,1.1-0.1,1.8-0.5,2.2c-4.5,0.2-7.4,0.8-8.7,2
		C507.7,274,507,277,507,281.8z M569.5,309.2c-1.7-1.7-3.4-3.1-5.3-4.2c-1.9-1.2-4-2.3-6.3-3.3c-0.5-0.2-1.7-0.7-3.7-1.4
		c-1.9-0.7-3.5-1.4-4.8-1.9c-1.3-0.5-2.9-1.3-4.8-2.4s-3.5-2.2-4.6-3.3c-1.2-1.1-2.2-2.5-3.1-4.2s-1.3-3.4-1.3-5.3
		c0-3.4,1.3-6.5,4-9.3s5.7-4.2,9.2-4.2c1.7,0,3.2,0.1,4.6,0.4c1.4,0.3,2.6,0.7,3.7,1.2c1.1,0.5,2.1,1.2,3,1.9
		c0.9,0.8,1.7,1.6,2.3,2.4c0.7,0.8,1.3,1.8,1.8,2.9s1,2.2,1.4,3.2c0.4,1,0.8,2.1,1.2,3.4c2.1,0,3.4-0.3,4-0.7
		c-0.4-4.8-1.1-10.1-2.2-15.6c-1.1-0.2-3.3-0.8-6.7-1.9c-3.3-1.1-7.3-1.6-11.9-1.6c-6.6,0-12.2,2-16.9,5.9c-4.7,3.9-7,9-7,15.3
		c0,3.5,0.9,6.7,2.7,9.6c1.8,2.8,3.9,5.1,6.4,6.8c2.5,1.7,5.6,3.3,9.2,4.8c0.7,0.3,2.1,0.9,4.1,1.6c2,0.8,3.5,1.4,4.6,1.9
		c1.1,0.5,2.4,1.2,4.1,2.3c1.6,1,2.9,2.1,3.8,3.2c0.9,1.1,1.7,2.6,2.4,4.4c0.7,1.8,1,3.8,1,6c0,4.8-1.3,8.5-3.9,11.1
		c-2.6,2.5-6.4,3.8-11.2,3.8c-12,0-19.4-5.7-22-17.2c-1.4-0.4-2.7-0.3-4,0.4c0.4,7.2,1.2,13.3,2.3,18.4c2.4,0,5.7,0.5,10.1,1.4
		c4.4,0.9,8.5,1.4,12.5,1.4c5.8,0,10.8-1.3,15.1-4c3.5-2.2,6.3-5,8.4-8.5s3.1-7.2,3.1-11c0-2.8-0.4-5.3-1.3-7.5
		S571.1,310.9,569.5,309.2z M655.5,338.8c-1.2-1.2-1.8-4.1-1.8-8.9v-48.1c0-4.8,0.6-7.8,1.8-8.9c1.2-1.2,4.1-1.8,8.6-2
		c0.4-0.4,0.6-1.1,0.6-2.2s-0.2-1.8-0.6-2.2c-7.9,0.2-13.1,0.3-15.7,0.3c-2.4,0-7.6-0.1-15.7-0.3c-0.2,0.4-0.4,1.2-0.4,2.3
		s0.2,1.8,0.5,2.1c4.5,0.2,7.4,0.8,8.6,2c1.2,1.2,1.9,4.1,1.9,8.9V301h-41.4v-19.2c0-4.8,0.6-7.8,1.9-8.9s4.1-1.8,8.7-2
		c0.4-0.4,0.5-1.1,0.5-2.2c0-1.1-0.2-1.8-0.5-2.2c-7.9,0.2-13.2,0.3-15.8,0.3c-2.3,0-7.5-0.1-15.6-0.3c-0.4,0.4-0.6,1.2-0.6,2.3
		s0.2,1.8,0.6,2.1c4.5,0.2,7.3,0.8,8.6,2c1.2,1.2,1.8,4.1,1.8,8.9v48.1c0,4.8-0.6,7.8-1.8,9c-1.2,1.2-4.1,1.8-8.6,2
		c-0.4,0.4-0.6,1.2-0.6,2.3c0,1.1,0.2,1.8,0.6,2.1c7.9-0.2,13.1-0.3,15.7-0.3c2.3,0,7.6,0.1,15.7,0.3c0.4-0.3,0.5-1.1,0.5-2.1
		c0-1.1-0.2-1.8-0.5-2.3c-4.5-0.2-7.4-0.9-8.6-2c-1.3-1.2-1.9-4.1-1.9-8.9v-23.8h41.4v23.8c0,4.8-0.6,7.8-1.9,8.9
		c-1.3,1.2-4.1,1.8-8.6,2c-0.3,0.4-0.5,1.2-0.5,2.3c0,1.1,0.1,1.8,0.4,2.1c8-0.2,13.2-0.3,15.8-0.3c2.3,0,7.5,0.1,15.6,0.3
		c0.4-0.3,0.6-1.1,0.6-2.1c0-1.1-0.2-1.8-0.6-2.3C659.6,340.6,656.7,340,655.5,338.8z"/>
	<path d="M78.5,385.7c-1.1,0-2.6,0-4.4,0c-1.8,0-2.9,0-3.5,0c-0.9,0-2.9,0-6.1-0.1c-0.2,0.2-0.2,0.4-0.2,0.9c0,0.4,0.1,0.7,0.2,0.8
		c1.7,0.1,2.9,0.3,3.3,0.8s0.7,1.6,0.7,3.5v18.8c0,1.9-0.2,3-0.7,3.5c-0.5,0.5-1.6,0.7-3.3,0.8c-0.2,0.2-0.2,0.4-0.2,0.8
		c0,0.4,0.1,0.7,0.2,0.8c3.1-0.1,5.1-0.1,6.1-0.1c0.3,0,1.4,0,3.1,0c1.8,0,3.6,0,5.5,0c1.8,0,3.6-0.2,5.3-0.7
		c1.7-0.5,3.3-1.2,4.9-2.2c1.6-1,2.9-2.6,3.8-4.6c1-2,1.4-4.4,1.4-7.2c0-4.4-1.6-8.2-4.7-11.3C86.8,387.3,83,385.7,78.5,385.7z
		 M89.2,408.6c-0.6,1.6-1.6,2.8-2.8,3.7c-1.2,0.8-2.5,1.4-3.9,1.8c-1.4,0.4-3,0.5-4.8,0.5c-2.1,0-3.5-0.2-4.2-0.6
		c-0.6-0.4-1-1-1-1.8v-22.5c0-1.5,1.3-2.3,4-2.3c2.4,0,4.5,0.5,6.4,1.4c1.8,0.9,3.2,2.1,4.2,3.7c1,1.5,1.8,3.2,2.2,4.9
		c0.5,1.7,0.7,3.6,0.7,5.5C90.2,405.1,89.9,407,89.2,408.6z M121.3,408.5c-0.4,2.5-1,5.1-1.8,7.8c-2.5-0.1-4.5-0.1-6-0.1h-10.1
		c-2.5,0-4.6,0.1-6.1,0.1c-0.1-0.1-0.2-0.4-0.2-0.8s0.1-0.7,0.2-0.9c1.7-0.1,2.9-0.3,3.4-0.8c0.5-0.5,0.7-1.6,0.7-3.5v-18.7
		c0-1.9-0.2-3-0.7-3.5c-0.5-0.4-1.6-0.7-3.4-0.8c-0.1-0.1-0.2-0.4-0.2-0.8s0.1-0.7,0.2-0.9l6.1,0.1h12c0.8,0,1.6-0.1,2.3-0.2
		c0.1,0,0.2,0,0.2,0.1c0.2,1.1,0.6,3.3,1.1,6.8c-0.5,0.3-1,0.3-1.6,0.2c-0.6-1.9-1.2-3.3-1.9-4.1s-1.8-1.2-3.4-1.2h-5
		c-0.5,0-0.9,0.2-1.2,0.6s-0.4,0.9-0.4,1.5v9.7h4.3c1.9,0,3.1-0.2,3.5-0.6c0.4-0.4,0.7-1.3,0.7-2.7c0.1-0.2,0.4-0.2,0.8-0.2
		s0.7,0.1,0.8,0.2c-0.1,1.9-0.1,3.3-0.1,4.1c0,0.6,0,2,0.1,4.1c-0.2,0.2-0.4,0.3-0.8,0.3c-0.4,0-0.6-0.1-0.8-0.2
		c-0.1-0.9-0.2-1.5-0.3-1.9c-0.1-0.4-0.5-0.7-1.1-1c-0.6-0.3-1.6-0.4-2.9-0.4h-4.3v11.5c0,1.4,0.6,2,1.7,2h6.4c3,0,5-2.1,6.2-6.2
		C120.2,408.2,120.7,408.2,121.3,408.5z M144.3,388.4c-0.7-0.9-1.8-1.6-3.2-2.1c-1.4-0.5-3.1-0.8-5.1-0.8c-0.4,0-1.4,0.1-3,0.2
		s-2.8,0.2-3.5,0.2c-0.9,0-2.9,0-6.1-0.1c-0.2,0.2-0.2,0.5-0.2,0.9c0,0.4,0.1,0.7,0.2,0.8c1.7,0.1,2.9,0.3,3.3,0.8
		c0.5,0.4,0.7,1.6,0.7,3.5v18.7c0,1.9-0.2,3-0.7,3.5c-0.5,0.5-1.6,0.7-3.3,0.8c-0.2,0.2-0.2,0.5-0.2,0.9s0.1,0.7,0.2,0.8
		c3.1-0.1,5.1-0.1,6.1-0.1c1.4,0,3.7,0,6.8,0.1c0.1-0.1,0.2-0.4,0.2-0.8s-0.1-0.7-0.2-0.9c-2-0.1-3.3-0.4-3.9-0.8
		c-0.6-0.4-0.9-1.6-0.9-3.4v-7.9c1,0.3,2.3,0.5,3.8,0.5c2,0,3.7-0.3,5.2-0.9c1.5-0.6,2.6-1.4,3.4-2.4c0.8-1,1.3-2,1.7-3.1
		c0.4-1.1,0.5-2.1,0.5-3.3c0-0.8-0.1-1.7-0.4-2.5C145.5,390.1,145,389.3,144.3,388.4z M140.4,399.6c-1.2,1.1-2.9,1.7-5.3,1.7
		c-1.8,0-3-0.1-3.6-0.2v-10.9c0-2,1.4-3,4.1-3c1.9,0,3.5,0.5,4.7,1.5s1.8,2.8,1.8,5.6C142.2,396.7,141.6,398.5,140.4,399.6z
		 M173.6,408.5c-0.4,2.5-1,5.1-1.8,7.8c-2.5-0.1-4.5-0.1-6-0.1h-10.1c-2.5,0-4.6,0.1-6.1,0.1c-0.1-0.1-0.2-0.4-0.2-0.8
		s0.1-0.7,0.2-0.9c1.7-0.1,2.9-0.3,3.4-0.8c0.5-0.5,0.7-1.6,0.7-3.5v-18.7c0-1.9-0.2-3-0.7-3.5c-0.5-0.4-1.6-0.7-3.4-0.8
		c-0.1-0.1-0.2-0.4-0.2-0.8s0.1-0.7,0.2-0.9l6.1,0.1h12c0.8,0,1.6-0.1,2.3-0.2c0.1,0,0.2,0,0.2,0.1c0.2,1.1,0.6,3.3,1.1,6.8
		c-0.5,0.3-1,0.3-1.6,0.2c-0.6-1.9-1.2-3.3-1.9-4.1s-1.8-1.2-3.4-1.2h-5c-0.5,0-0.9,0.2-1.2,0.6s-0.4,0.9-0.4,1.5v9.7h4.3
		c1.9,0,3.1-0.2,3.5-0.6c0.4-0.4,0.7-1.3,0.7-2.7c0.1-0.2,0.4-0.2,0.8-0.2s0.7,0.1,0.8,0.2c-0.1,1.9-0.1,3.3-0.1,4.1
		c0,0.6,0,2,0.1,4.1c-0.2,0.2-0.4,0.3-0.8,0.3c-0.4,0-0.6-0.1-0.8-0.2c-0.1-0.9-0.2-1.5-0.3-1.9c-0.1-0.4-0.5-0.7-1.1-1
		c-0.6-0.3-1.6-0.4-2.9-0.4h-4.3v11.5c0,1.4,0.6,2,1.7,2h6.4c3,0,5-2.1,6.2-6.2C172.5,408.2,173,408.2,173.6,408.5z M207.6,385.7
		c0.1,0.2,0.2,0.5,0.2,0.9c0,0.4-0.1,0.7-0.2,0.8c-1.8,0.2-2.9,0.5-3.4,1c-0.5,0.5-0.7,1.7-0.7,3.7v23c0,1-0.4,1.6-1.1,1.6
		c-0.7,0-1.3-0.4-1.9-1.2L184,394.8c-0.8-1-1.3-1.5-1.6-1.5c-0.3,0-0.4,0.8-0.4,2.3v14.3c0,1.1,0,1.9,0.2,2.5c0.1,0.6,0.3,1,0.7,1.3
		c0.4,0.3,0.8,0.5,1.2,0.6c0.4,0.1,1.1,0.2,2.1,0.3c0.1,0.2,0.2,0.5,0.2,0.9s-0.1,0.7-0.2,0.8c-3.1-0.1-4.9-0.1-5.2-0.1
		c-0.4,0-2.2,0-5.3,0.1c-0.2-0.1-0.2-0.4-0.2-0.8c0-0.4,0.1-0.7,0.2-0.9c1.8-0.2,2.9-0.5,3.4-1c0.5-0.5,0.7-1.7,0.7-3.7v-19.5
		c-0.2-0.7-0.6-1.3-1.3-2s-1.5-1-2.5-1c-0.2-0.1-0.2-0.4-0.2-0.8s0.1-0.7,0.2-0.9l6.4,0.1l16.2,20.8c0.2,0.3,0.4,0.6,0.7,0.9
		c0.3,0.4,0.4,0.6,0.6,0.8c0.1,0.2,0.3,0.3,0.4,0.5c0.1,0.2,0.3,0.3,0.3,0.3s0.2,0.1,0.2,0.1c0.2,0,0.3-0.5,0.3-1.4v-15.6
		c0-1.1,0-1.9-0.1-2.5c-0.1-0.6-0.3-1-0.7-1.3c-0.4-0.3-0.8-0.5-1.2-0.6c-0.4-0.1-1.1-0.2-2.1-0.3c-0.2-0.1-0.2-0.4-0.2-0.8
		s0.1-0.7,0.2-0.9c3.1,0.1,4.9,0.1,5.2,0.1C202.8,385.8,204.5,385.8,207.6,385.7z M223.8,385.7c-1.1,0-2.6,0-4.4,0
		c-1.8,0-2.9,0-3.5,0c-0.9,0-2.9,0-6.1-0.1c-0.2,0.2-0.2,0.4-0.2,0.9c0,0.4,0.1,0.7,0.2,0.8c1.7,0.1,2.9,0.3,3.3,0.8
		s0.7,1.6,0.7,3.5v18.8c0,1.9-0.2,3-0.7,3.5c-0.5,0.5-1.6,0.7-3.3,0.8c-0.2,0.2-0.2,0.4-0.2,0.8c0,0.4,0.1,0.7,0.2,0.8
		c3.1-0.1,5.1-0.1,6.1-0.1c0.3,0,1.4,0,3.1,0c1.8,0,3.6,0,5.5,0c1.8,0,3.6-0.2,5.3-0.7c1.7-0.5,3.3-1.2,4.9-2.2
		c1.6-1,2.9-2.6,3.8-4.6c1-2,1.4-4.4,1.4-7.2c0-4.4-1.6-8.2-4.7-11.3C232.2,387.3,228.4,385.7,223.8,385.7z M234.6,408.6
		c-0.6,1.6-1.6,2.8-2.8,3.7c-1.2,0.8-2.5,1.4-3.9,1.8c-1.4,0.4-3,0.5-4.8,0.5c-2.1,0-3.5-0.2-4.2-0.6c-0.6-0.4-1-1-1-1.8v-22.5
		c0-1.5,1.3-2.3,4-2.3c2.4,0,4.5,0.5,6.4,1.4c1.8,0.9,3.2,2.1,4.2,3.7c1,1.5,1.8,3.2,2.2,4.9c0.5,1.7,0.7,3.6,0.7,5.5
		C235.6,405.1,235.3,407,234.6,408.6z M263.5,407.6c0,1.5-0.4,2.9-1.2,4.3c-0.8,1.4-1.9,2.5-3.3,3.3c-1.7,1-3.6,1.5-5.9,1.5
		c-1.5,0-3.2-0.2-4.9-0.5c-1.7-0.4-3-0.5-3.9-0.5c-0.5-2-0.8-4.4-0.9-7.1c0.5-0.3,1-0.3,1.5-0.1c1,4.5,3.9,6.7,8.6,6.7
		c1.9,0,3.3-0.5,4.4-1.5c1-1,1.5-2.4,1.5-4.3c0-0.9-0.1-1.6-0.4-2.4c-0.3-0.7-0.6-1.3-0.9-1.7c-0.3-0.4-0.8-0.9-1.5-1.3
		c-0.6-0.4-1.2-0.7-1.6-0.9c-0.4-0.2-1-0.4-1.8-0.7c-0.8-0.3-1.3-0.5-1.6-0.6c-1.4-0.6-2.6-1.2-3.6-1.9c-1-0.7-1.8-1.5-2.5-2.6
		c-0.7-1.1-1-2.3-1-3.7c0-2.4,0.9-4.4,2.7-6c1.8-1.5,4-2.3,6.6-2.3c1.8,0,3.4,0.2,4.7,0.6c1.3,0.4,2.2,0.7,2.6,0.7
		c0.4,2.2,0.7,4.2,0.9,6.1c-0.2,0.2-0.7,0.3-1.5,0.3c-0.2-0.5-0.3-0.9-0.4-1.3c-0.1-0.4-0.3-0.8-0.5-1.2c-0.2-0.4-0.5-0.8-0.7-1.1
		s-0.6-0.6-0.9-0.9c-0.4-0.3-0.7-0.6-1.2-0.8c-0.4-0.2-0.9-0.4-1.4-0.5c-0.5-0.1-1.1-0.2-1.8-0.2c-1.4,0-2.6,0.5-3.6,1.6
		c-1,1.1-1.6,2.3-1.6,3.6c0,0.7,0.2,1.4,0.5,2.1c0.3,0.7,0.7,1.2,1.2,1.6c0.5,0.4,1.1,0.9,1.8,1.3c0.7,0.4,1.4,0.7,1.9,1
		s1.1,0.5,1.9,0.7s1.2,0.5,1.4,0.6c0.9,0.4,1.7,0.8,2.5,1.3c0.7,0.5,1.4,1,2.1,1.7c0.6,0.7,1.1,1.4,1.5,2.3
		C263.3,405.5,263.5,406.5,263.5,407.6z"/>
	<path d="M293,385.2c-2.3,0-4.4,0.5-6.4,1.5c-1.9,1-3.6,2.4-4.9,4.2c-2.2,2.9-3.2,6.5-3.2,10.7c0,4.5,1.4,8.2,4.3,11
		c2.8,2.8,6.3,4.2,10.5,4.2c2.6,0,4.9-0.5,6.9-1.6s3.7-2.5,5.1-4.4c2-2.8,2.9-6.1,2.9-10.1c0-4.7-1.4-8.5-4.3-11.3
		C301,386.6,297.4,385.2,293,385.2z M301,411.4c-1.8,2.4-4,3.6-6.8,3.6c-3.1,0-5.7-1.3-7.9-3.9c-2.2-2.6-3.3-6-3.3-10.3
		c0-2.3,0.3-4.4,0.9-6.3c0.6-1.9,1.3-3.3,2.2-4.4c0.9-1.1,1.9-1.9,3-2.4c1.1-0.5,2.2-0.8,3.3-0.8c3.2,0,5.9,1.3,8.1,3.9
		c2.1,2.6,3.2,6.2,3.2,10.8C303.7,405.7,302.8,408.9,301,411.4z M342.7,386.6c0,0.4-0.1,0.7-0.2,0.8c-1.8,0.2-2.9,0.5-3.4,1
		c-0.5,0.5-0.7,1.7-0.7,3.7v23c0,1-0.4,1.6-1.1,1.6c-0.7,0-1.3-0.4-1.9-1.2L319,394.8c-0.8-1-1.3-1.5-1.6-1.5
		c-0.3,0-0.4,0.8-0.4,2.3v14.3c0,1.1,0,1.9,0.2,2.5c0.1,0.6,0.3,1,0.7,1.3c0.4,0.3,0.8,0.5,1.2,0.6c0.4,0.1,1.1,0.2,2.1,0.3
		c0.1,0.2,0.2,0.5,0.2,0.9s-0.1,0.7-0.2,0.8c-3.1-0.1-4.9-0.1-5.2-0.1c-0.4,0-2.2,0-5.3,0.1c-0.2-0.1-0.2-0.4-0.2-0.8
		c0-0.4,0.1-0.7,0.2-0.9c1.8-0.2,2.9-0.5,3.4-1c0.5-0.5,0.7-1.7,0.7-3.7v-19.5c-0.2-0.7-0.6-1.3-1.3-2s-1.5-1-2.5-1
		c-0.2-0.1-0.2-0.4-0.2-0.8s0.1-0.7,0.2-0.9l6.4,0.1l16.2,20.8c0.2,0.3,0.4,0.6,0.7,0.9c0.3,0.4,0.4,0.6,0.6,0.8
		c0.1,0.2,0.3,0.3,0.4,0.5c0.1,0.2,0.3,0.3,0.3,0.3s0.2,0.1,0.2,0.1c0.2,0,0.3-0.5,0.3-1.4v-15.6c0-1.1,0-1.9-0.1-2.5
		c-0.1-0.6-0.3-1-0.7-1.3c-0.4-0.3-0.8-0.5-1.2-0.6c-0.4-0.1-1.1-0.2-2.1-0.3c-0.2-0.1-0.2-0.4-0.2-0.8s0.1-0.7,0.2-0.9
		c3.1,0.1,4.9,0.1,5.2,0.1c0.4,0,2.2,0,5.3-0.1C342.7,385.9,342.7,386.2,342.7,386.6z"/>
	<path d="M399.3,385.7c0.1,0.2,0.2,0.5,0.2,0.9c0,0.4-0.1,0.7-0.2,0.8c-1.2,0.1-2.1,0.3-2.7,0.8c-0.6,0.5-1,1.2-1.3,2.1l-9.3,25.5
		c-0.2,0.7-0.7,1.1-1.3,1.1c-0.7,0-1.2-0.4-1.5-1.1l-5.5-16.7c-0.3-0.9-0.5-1.3-0.6-1.3c-0.2,0-0.4,0.4-0.7,1.2l-6.6,16.8
		c-0.3,0.7-0.7,1.1-1.3,1.1c-0.7,0-1.2-0.4-1.4-1.2l-8.6-25.7c-0.4-1.1-0.8-1.8-1.2-2.1c-0.4-0.3-1.2-0.4-2.3-0.5
		c-0.1-0.1-0.2-0.4-0.2-0.8s0.1-0.7,0.2-0.9c2.5,0.1,4,0.1,4.4,0.1c1.5,0,3.2,0,5.3-0.1c0.1,0.2,0.2,0.5,0.2,0.9
		c0,0.4-0.1,0.7-0.2,0.8c-0.7,0-1.2,0.1-1.5,0.2s-0.6,0.3-0.8,0.5c-0.2,0.3-0.2,0.6,0,1.1l7.1,21.8h0.1l5.9-15.5
		c0.2-0.6,0.3-1.2,0.3-1.8c0-0.4-0.1-0.8-0.2-1.3l-0.7-2.2c-0.2-0.7-0.7-1.3-1.4-1.9c-0.7-0.5-1.6-0.8-2.7-0.9
		c-0.1-0.1-0.2-0.4-0.2-0.8s0.1-0.7,0.2-0.9c2.5,0.1,4.1,0.1,4.7,0.1c0.9,0,2.8,0,5.8-0.1c0.1,0.2,0.2,0.5,0.2,0.9
		c0,0.4-0.1,0.7-0.2,0.8c-0.4,0-0.8,0.1-1,0.1c-0.2,0-0.5,0.1-0.8,0.2c-0.3,0.1-0.6,0.3-0.6,0.4c-0.1,0.2-0.2,0.4-0.3,0.8
		s0,0.8,0.2,1.3l6.8,20.9h0.1l7.5-21.4c0.1-0.3,0.1-0.5,0.1-0.7s0-0.4-0.1-0.6c-0.1-0.2-0.2-0.3-0.4-0.4c-0.2-0.1-0.4-0.2-0.5-0.3
		c-0.2-0.1-0.4-0.1-0.7-0.2c-0.3,0-0.6-0.1-0.8-0.1c-0.2,0-0.5,0-0.8-0.1c-0.2-0.1-0.2-0.4-0.2-0.8s0.1-0.7,0.2-0.9
		c2.5,0.1,4.2,0.1,5.2,0.1C395.6,385.8,397,385.8,399.3,385.7z M430.8,388.2c0.5-0.4,1.6-0.7,3.3-0.8c0.2-0.2,0.2-0.4,0.2-0.8
		c0-0.4-0.1-0.7-0.2-0.9c-3.1,0.1-5.1,0.1-6.1,0.1c-0.9,0-3,0-6.1-0.1c-0.1,0.2-0.1,0.5-0.1,0.9s0.1,0.7,0.2,0.8
		c1.7,0.1,2.9,0.3,3.4,0.8c0.5,0.4,0.7,1.6,0.7,3.5v7.5h-16.1v-7.5c0-1.9,0.2-3,0.7-3.5s1.6-0.7,3.4-0.8c0.1-0.2,0.2-0.4,0.2-0.8
		c0-0.4-0.1-0.7-0.2-0.9c-3.1,0.1-5.1,0.1-6.1,0.1c-0.9,0-2.9,0-6.1-0.1c-0.2,0.2-0.2,0.5-0.2,0.9s0.1,0.7,0.2,0.8
		c1.7,0.1,2.9,0.3,3.3,0.8c0.5,0.4,0.7,1.6,0.7,3.5v18.7c0,1.9-0.2,3-0.7,3.5c-0.5,0.5-1.6,0.7-3.3,0.8c-0.2,0.2-0.2,0.5-0.2,0.9
		s0.1,0.7,0.2,0.8c3.1-0.1,5.1-0.1,6.1-0.1c0.9,0,2.9,0,6.1,0.1c0.1-0.1,0.2-0.4,0.2-0.8s-0.1-0.7-0.2-0.9c-1.7-0.1-2.9-0.3-3.4-0.8
		c-0.5-0.4-0.7-1.6-0.7-3.5v-9.3H426v9.3c0,1.9-0.2,3-0.7,3.5c-0.5,0.5-1.6,0.7-3.4,0.8c-0.1,0.2-0.2,0.5-0.2,0.9s0,0.7,0.1,0.8
		c3.1-0.1,5.2-0.1,6.2-0.1c0.9,0,2.9,0,6.1,0.1c0.2-0.1,0.2-0.4,0.2-0.8s-0.1-0.7-0.2-0.9c-1.7-0.1-2.9-0.3-3.3-0.8
		c-0.5-0.4-0.7-1.6-0.7-3.5v-18.7C430.1,389.8,430.3,388.6,430.8,388.2z M466.7,400.7c0,3.9-1,7.3-2.9,10.1c-1.3,1.9-3,3.4-5.1,4.4
		s-4.4,1.6-6.9,1.6c-4.1,0-7.6-1.4-10.5-4.2c-2.9-2.8-4.3-6.4-4.3-11c0-4.2,1.1-7.7,3.2-10.7c1.3-1.8,3-3.2,4.9-4.2
		c1.9-1,4.1-1.5,6.4-1.5c4.4,0,8,1.4,10.9,4.2C465.3,392.2,466.7,395.9,466.7,400.7z M462.2,401.6c0-4.6-1.1-8.2-3.2-10.8
		c-2.1-2.6-4.8-3.9-8.1-3.9c-1.1,0-2.2,0.3-3.3,0.8c-1.1,0.5-2.1,1.4-3,2.4c-0.9,1.1-1.7,2.5-2.2,4.4c-0.6,1.9-0.9,4-0.9,6.3
		c0,4.3,1.1,7.8,3.3,10.3c2.2,2.6,4.8,3.9,7.9,3.9c2.8,0,5-1.2,6.8-3.6C461.3,408.9,462.2,405.7,462.2,401.6z"/>
	<path d="M507.3,386.6c0,0.4-0.1,0.7-0.2,0.8c-1.1,0.1-2,0.3-2.6,0.7c-0.6,0.4-1.2,1.1-1.9,2.3l-5.6,10.1c-0.2,0.4-0.4,0.9-0.6,1.3
		c-0.1,0.4-0.2,0.7-0.2,1c0,0.3,0,0.7,0,1.3v6.3c0,1.9,0.3,3,0.8,3.5c0.5,0.4,1.8,0.7,3.7,0.8c0.1,0.2,0.2,0.5,0.2,0.9
		s-0.1,0.7-0.2,0.8c-3.1-0.1-5.3-0.1-6.5-0.1c-1.3,0-3.5,0-6.6,0.1c-0.2-0.1-0.2-0.4-0.2-0.8s0.1-0.7,0.2-0.9c2-0.1,3.2-0.3,3.7-0.8
		c0.5-0.5,0.8-1.6,0.8-3.5v-5.9c0-0.8-0.1-1.5-0.2-1.9c-0.1-0.4-0.4-1-0.8-1.7l-6.2-10.3c-0.5-0.9-1-1.6-1.5-2
		c-0.4-0.4-0.9-0.7-1.3-0.9c-0.4-0.1-1-0.2-1.7-0.3c-0.2-0.2-0.2-0.5-0.2-0.9c0-0.4,0.1-0.7,0.2-0.9c1.9,0.1,3.5,0.1,4.8,0.1
		c1.1,0,2.9,0,5.4-0.1c0.2,0.2,0.2,0.5,0.2,0.9c0,0.4-0.1,0.7-0.2,0.8c-1.3,0.1-2.1,0.3-2.3,0.6c-0.2,0.3,0,1,0.6,2l5.5,9.6
		c0.2,0.4,0.4,0.6,0.5,0.6c0.1,0,0.3-0.2,0.5-0.5l5.2-9.8c0.2-0.5,0.4-0.9,0.4-1.2c0-0.3,0-0.5-0.2-0.7c-0.2-0.2-0.4-0.3-0.7-0.4
		c-0.3-0.1-0.8-0.1-1.3-0.2c-0.2-0.1-0.2-0.4-0.2-0.8s0.1-0.7,0.2-0.9c2.5,0.1,3.9,0.1,4.3,0.1c0.7,0,2,0,3.9-0.1
		C507.2,385.9,507.3,386.2,507.3,386.6z M532.7,389.4c2.9,2.8,4.3,6.6,4.3,11.3c0,3.9-1,7.3-2.9,10.1c-1.3,1.9-3,3.4-5.1,4.4
		s-4.4,1.6-6.9,1.6c-4.1,0-7.6-1.4-10.5-4.2c-2.9-2.8-4.3-6.4-4.3-11c0-4.2,1.1-7.7,3.2-10.7c1.3-1.8,3-3.2,4.9-4.2
		c1.9-1,4.1-1.5,6.4-1.5C526.2,385.2,529.8,386.6,532.7,389.4z M532.4,401.6c0-4.6-1.1-8.2-3.2-10.8c-2.1-2.6-4.8-3.9-8.1-3.9
		c-1.1,0-2.2,0.3-3.3,0.8c-1.1,0.5-2.1,1.4-3,2.4c-0.9,1.1-1.7,2.5-2.2,4.4c-0.6,1.9-0.9,4-0.9,6.3c0,4.3,1.1,7.8,3.3,10.3
		c2.2,2.6,4.8,3.9,7.9,3.9c2.8,0,5-1.2,6.8-3.6C531.6,408.9,532.4,405.7,532.4,401.6z M569.4,385.7c-3.1,0.1-4.7,0.1-4.8,0.1
		c-0.5,0-2.3,0-5.5-0.1c-0.1,0.2-0.2,0.5-0.2,0.9s0.1,0.7,0.2,0.8c1.1,0.1,1.8,0.2,2.2,0.3c0.4,0.1,0.8,0.3,1.2,0.5
		c0.4,0.3,0.7,0.7,0.7,1.2c0.1,0.5,0.1,1.3,0.1,2.3v11.6c0,1.3,0,2.3-0.1,3.3c-0.1,0.9-0.3,1.9-0.6,3c-0.3,1.1-0.8,2-1.4,2.7
		c-0.6,0.7-1.4,1.3-2.6,1.8s-2.4,0.7-4,0.7c-2.1,0-4-0.8-5.6-2.4c-0.7-0.7-1.3-1.6-1.7-2.7c-0.4-1.1-0.6-2.1-0.7-2.9
		c-0.1-0.8-0.1-1.9-0.1-3.2v-11.9c0-1.9,0.3-3,0.8-3.5c0.5-0.5,1.7-0.7,3.6-0.8c0.1-0.2,0.2-0.4,0.2-0.8c0-0.4,0-0.7-0.1-0.9
		c-3.1,0.1-5.2,0.1-6.4,0.1c-0.6,0-2.5,0-5.6-0.1c-0.1,0.2-0.2,0.5-0.2,0.9s0.1,0.7,0.2,0.8c1.5,0.1,2.5,0.3,2.9,0.8
		c0.4,0.5,0.7,1.6,0.7,3.5v13.5c0,2.2,0.4,4.2,1.1,5.8c0.7,1.6,1.7,2.8,2.9,3.6s2.4,1.3,3.5,1.7c1.1,0.3,2.3,0.5,3.6,0.5
		c2.4,0,4.3-0.3,6-1c1.6-0.7,2.8-1.7,3.7-3c0.9-1.3,1.5-2.8,1.8-4.5c0.3-1.6,0.5-3.6,0.5-5.8v-10.7c0-1.3,0.1-2.2,0.4-2.8
		c0.2-0.6,0.6-0.9,1-1.1s1.2-0.3,2.3-0.4c0.1-0.2,0.2-0.4,0.2-0.8C569.6,386.2,569.6,385.9,569.4,385.7z"/>
	<path d="M612.6,414.5c-0.2,0-0.6-0.1-1.1-0.3c-0.5-0.2-0.8-0.4-1.1-0.8c-0.3-0.3-0.5-0.8-0.7-1.4l-9.7-26.9c-1,0.6-1.9,0.9-2.6,0.9
		l-10.7,25.2c-0.6,1.3-1.2,2.2-1.9,2.6s-1.6,0.6-2.8,0.7c-0.2,0.2-0.2,0.5-0.2,0.9s0.1,0.7,0.2,0.8c2.3-0.1,3.7-0.1,4.2-0.1
		c1.7,0,3.7,0,6,0.1c0.1-0.1,0.2-0.4,0.2-0.8s-0.1-0.7-0.2-0.9c-0.4,0-0.7-0.1-0.9-0.1c-0.2,0-0.5-0.1-0.9-0.1s-0.6-0.2-0.8-0.2
		c-0.1-0.1-0.3-0.2-0.6-0.4c-0.2-0.2-0.3-0.4-0.3-0.6c0.1-0.2,0.1-0.5,0.1-0.8l2.6-6.7c0.1-0.3,0.3-0.5,0.5-0.6s0.6-0.2,1.2-0.2h10
		l2.7,7.9c0.1,0.2,0.1,0.4,0.1,0.5c0,0.2,0,0.3,0,0.4c0,0.1-0.1,0.2-0.2,0.3c-0.1,0.1-0.2,0.2-0.4,0.2c-0.2,0.1-0.3,0.1-0.4,0.1
		c-0.1,0-0.3,0.1-0.6,0.1c-0.3,0-0.5,0.1-0.6,0.1s-0.4,0-0.7,0.1c-0.3,0-0.5,0-0.7,0c-0.1,0.2-0.2,0.5-0.2,0.9s0.1,0.7,0.2,0.8
		c2.3-0.1,4.4-0.1,6.2-0.1c1.3,0,3.1,0,5.4,0.1c0.2-0.1,0.2-0.4,0.2-0.8s-0.1-0.7-0.2-0.9C613.3,414.5,612.8,414.5,612.6,414.5z
		 M594.1,402.9c-0.2,0-0.4,0-0.5,0c-0.1,0-0.3,0-0.4-0.1c-0.1,0-0.2-0.1-0.2-0.1c0,0-0.1-0.1-0.1-0.2c0-0.1,0-0.2,0-0.3l4.8-12.2
		h0.3l4.4,12.8H594.1z M639.6,414.3c-0.7-0.6-1.4-1.5-2.1-2.7l-5.9-9.9c1.4-0.5,2.7-1.4,4-2.8c1.3-1.4,2-3.1,2-5.3
		c0-2.4-0.8-4.4-2.4-5.9c-1-0.9-2.1-1.6-3.3-1.8c-1.3-0.3-2.8-0.4-4.6-0.4c-0.4,0-1.3,0.1-2.7,0.2s-2.5,0.2-3.2,0.2
		c-0.9,0-2.9,0-6.1-0.1c-0.2,0.2-0.2,0.5-0.2,0.9c0,0.4,0.1,0.7,0.2,0.8c1.7,0.1,2.9,0.3,3.3,0.8c0.5,0.4,0.7,1.6,0.7,3.5v18.7
		c0,1.9-0.2,3-0.7,3.5c-0.5,0.5-1.6,0.7-3.3,0.8c-0.2,0.2-0.2,0.5-0.2,0.9c0,0.4,0.1,0.7,0.2,0.8c3.1-0.1,5.1-0.1,6.1-0.1
		c0.9,0,2.9,0,6.1,0.1c0.1-0.1,0.1-0.4,0.1-0.8c0-0.4-0.1-0.7-0.2-0.9c-1.7-0.1-2.8-0.3-3.3-0.8s-0.7-1.6-0.7-3.4v-7.8
		c1.8,0,3.1,0.1,3.8,0.4c0.7,0.3,1.3,0.7,1.7,1.3l5,8c1.7,2.9,3.8,4.3,6.2,4.3c0.9,0,1.5-0.1,2-0.3c0.2-0.3,0.2-0.7,0-1.1
		C641.1,415.2,640.3,414.9,639.6,414.3z M625.6,400.9h-2.3v-10.7c0-2,1.3-3,3.9-3c4.2,0,6.3,2.2,6.3,6.6c0,2.7-0.7,4.6-2,5.6
		C630.1,400.4,628.2,400.9,625.6,400.9z M666.7,408.5c-0.4,2.5-1,5.1-1.8,7.8c-2.5-0.1-4.5-0.1-6-0.1h-10.1c-2.5,0-4.6,0.1-6.1,0.1
		c-0.1-0.1-0.2-0.4-0.2-0.8s0.1-0.7,0.2-0.9c1.7-0.1,2.9-0.3,3.4-0.8c0.5-0.5,0.7-1.6,0.7-3.5v-18.7c0-1.9-0.2-3-0.7-3.5
		c-0.5-0.4-1.6-0.7-3.4-0.8c-0.1-0.1-0.2-0.4-0.2-0.8s0.1-0.7,0.2-0.9l6.1,0.1h12c0.8,0,1.6-0.1,2.3-0.2c0.1,0,0.2,0,0.2,0.1
		c0.2,1.1,0.6,3.3,1.1,6.8c-0.5,0.3-1,0.3-1.6,0.2c-0.6-1.9-1.2-3.3-1.9-4.1s-1.8-1.2-3.4-1.2h-5c-0.5,0-0.9,0.2-1.2,0.6
		s-0.4,0.9-0.4,1.5v9.7h4.3c1.9,0,3.1-0.2,3.5-0.6c0.4-0.4,0.7-1.3,0.7-2.7c0.1-0.2,0.4-0.2,0.8-0.2s0.7,0.1,0.8,0.2
		c-0.1,1.9-0.1,3.3-0.1,4.1c0,0.6,0,2,0.1,4.1c-0.2,0.2-0.4,0.3-0.8,0.3c-0.4,0-0.6-0.1-0.8-0.2c-0.1-0.9-0.2-1.5-0.3-1.9
		c-0.1-0.4-0.5-0.7-1.1-1c-0.6-0.3-1.6-0.4-2.9-0.4h-4.3v11.5c0,1.4,0.6,2,1.7,2h6.4c3,0,5-2.1,6.2-6.2
		C665.6,408.2,666.1,408.2,666.7,408.5z"/>
</g>
</svg>
