<?xml version="1.0" encoding="utf-8"?>
<!-- Generator: Adobe Illustrator 18.0.0, SVG Export Plug-In . SVG Version: 6.00 Build 0)  -->
<!DOCTYPE svg PUBLIC "-//W3C//DTD SVG 1.1//EN" "http://www.w3.org/Graphics/SVG/1.1/DTD/svg11.dtd">
<svg version="1.1" id="Layer_1" xmlns="http://www.w3.org/2000/svg" xmlns:xlink="http://www.w3.org/1999/xlink" x="0px" y="0px"
	 viewBox="0 0 720 720" style="enable-background:new 0 0 720 720;" xml:space="preserve">
<path d="M260.8,306.3c-1.1-8.7,2.7-15.1,7.3-15.7c3.4-0.4,7.2,2.5,8.8,6.3c0.8,2-2.3,3.2-3.2,1.2c-0.9-2.2-3.1-4.6-5.2-4.3
	c-3.6,0.4-5.1,6.5-4.4,12c0.9,6.8,3.8,14.1,7.4,13.7c2.2-0.3,3.6-3.1,4.1-5.4c0.4-2.1,3.7-1.4,3.2,0.7c-0.9,3.9-3.7,7.6-7,8
	C267.5,323.3,262.2,317.1,260.8,306.3z M288.5,303.3c-0.8-8.8,3.2-15,7.9-15.4c4.6-0.4,9.7,5.1,10.3,13.9c0.7,10.9-3.3,18-7.6,18.3
	C294.7,320.5,289.5,314.1,288.5,303.3z M291.8,303c0.6,6.9,3.4,14.2,7,13.9c3.6-0.3,5.1-8,4.6-14.9c-0.4-5.5-3.1-11.2-6.7-10.9
	C293,291.4,291.3,297.4,291.8,303z M356.6,317.5c3.7,0,7.5,0,11.2,0c2.2,0,2.2-3.2,0-3.2c-3.2,0-6.4,0-9.6,0c0-4.3,0-8.6-0.1-12.8
	c2.2,0,4.5,0,6.7,0c2.2,0,2.2-3.2,0-3.2c-2.2,0-4.5,0-6.7,0c0-3.3,0-6.5-0.1-9.8c3.3,0,6.6,0,9.9,0c2.2,0,2.3-3.2,0-3.2
	c-3.9,0-7.8,0-11.7,0c-0.6,0.5-1.1,1.1-1.7,1.6c0.1,9.7,0.2,19.4,0.3,29.1C355.5,316.5,356.1,317,356.6,317.5z M242.2,325.2
	c0.6,0.4,1.2,0.9,1.9,1.3c2.9-0.5,5.9-0.9,8.8-1.3c2.1-0.3,1.7-3.5-0.5-3.2c-2.4,0.3-4.8,0.7-7.2,1.1c-1.4-9.1-2.7-18.1-4.1-27.2
	c-0.3-2.1-3.7-1.6-3.4,0.5C239.2,306,240.7,315.6,242.2,325.2z M324.5,316.8c-0.3-5.5-0.5-11-0.8-16.4c1.8,5.5,3.5,11.1,5.2,16.7
	c1.1-0.1,2.1-0.1,3.2-0.2c1.2-5.6,2.5-11.3,3.8-16.9c0.2,5.4,0.4,10.9,0.6,16.3c0.1,2.1,3.3,2,3.3-0.1c-0.3-9.7-0.6-19.4-0.9-29.1
	c-1.1-0.1-2.2-0.2-3.3-0.3c-1.8,7.7-3.5,15.5-5.2,23.2c-2.3-7.6-4.8-15.2-7.2-22.8c-1.1,0.2-2.2,0.4-3.3,0.6
	c0.5,9.7,1,19.4,1.5,29.1C321.3,319.1,324.6,319,324.5,316.8z M197.5,304c-0.2-2.1-3.6-1.8-3.4,0.3c0.5,6.6,1,13.3,1.6,19.9
	c-2.9-6.2-5.8-12.4-8.7-18.5c-1.1,0.2-2.2,0.5-3.2,0.7c0,6.8,0,13.7,0,20.5c-2.3-6.2-4.7-12.5-7.1-18.7c-0.8-2-4-0.9-3.2,1.2
	c3.5,9.1,7,18.3,10.5,27.4c1.1-0.2,2.1-0.4,3.2-0.6c-0.1-7.5-0.1-14.9,0-22.4c3.2,6.7,6.4,13.5,9.5,20.3c1-0.3,2.1-0.5,3.1-0.8
	C198.9,323.5,198.2,313.7,197.5,304z M216.6,331.3c3.7-0.7,7.4-1.4,11.1-2c2.1-0.4,1.6-3.6-0.6-3.2c-3.2,0.6-6.3,1.1-9.5,1.7
	c-0.8-4.2-1.6-8.4-2.4-12.6c2.2-0.4,4.4-0.8,6.6-1.2c2.2-0.4,1.6-3.6-0.6-3.2c-2.2,0.4-4.4,0.8-6.6,1.2c-0.6-3.2-1.2-6.4-1.8-9.6
	c3.3-0.6,6.5-1.2,9.8-1.8c2.2-0.4,1.7-3.6-0.6-3.2c-3.8,0.7-7.7,1.4-11.5,2.1c-0.5,0.6-0.9,1.3-1.4,1.9c1.8,9.5,3.7,19,5.5,28.6
	C215.3,330.4,215.9,330.9,216.6,331.3z M432.1,320.6c-4.4-0.4-8.4-7.5-7.6-18.4c0.7-8.8,5.8-14.2,10.4-13.8
	c4.6,0.4,8.7,6.7,7.8,15.5C441.6,314.7,436.4,321,432.1,320.6z M439.4,303.6c0.5-5.5-1.1-11.6-4.7-11.9c-3.7-0.3-6.4,5.3-6.8,10.9
	c-0.6,6.9,0.9,14.6,4.5,14.9C435.9,317.7,438.7,310.4,439.4,303.6z M414,286.8c-4.3-0.3-8.6-0.5-12.8-0.7c-2.2-0.1-2.4,3.1-0.2,3.2
	c1.6,0.1,3.2,0.2,4.8,0.2c-0.5,9.1-1,18.3-1.5,27.4c-0.1,2.1,3.1,2.3,3.3,0.2c0.5-9.1,1.1-18.3,1.6-27.4c1.6,0.1,3.1,0.2,4.7,0.3
	C416.1,290.2,416.3,287,414,286.8z M508.4,331.3c3.6,0.7,7.9-2.8,9.2-9.1c1.3-6.5,2.6-13,4-19.6c0.5-2.1-2.9-2.9-3.4-0.7
	c-1.3,6.5-2.6,13.1-3.8,19.6c-0.7,3.5-2.9,7-5.4,6.6c0,0,0,0,0,0c-2.5-0.5-3.2-4.6-2.5-8.1c1.2-6.5,2.5-13.1,3.7-19.6
	c0.5-2.1-2.9-2.8-3.4-0.7c-1.2,6.6-2.4,13.1-3.6,19.7C502,325.8,504.8,330.6,508.4,331.3z M473.7,307.6c1.2-8.7,6.6-13.9,11.3-13.1
	c4.6,0.7,8.3,7.2,6.8,15.9c-1.8,10.7-7.4,16.7-11.7,16.1C475.8,325.8,472.2,318.4,473.7,307.6z M480.6,323.3
	c3.6,0.5,6.8-6.6,7.9-13.4c0.9-5.5-0.4-11.6-4-12.2c-3.7-0.6-6.7,4.9-7.5,10.4C476.1,314.9,477,322.7,480.6,323.3z M529.9,334.1
	c2.1-9.5,4.2-18.9,6.3-28.4c0.7-0.4,1.3-0.8,2-1.2c2.4,0.5,4.8,1.1,7.3,1.6c3.2,0.7,5.6,4.9,4.3,10.2c-0.7,3.1-2.9,5.1-5.3,5.6
	c0.7,2.5,1,6.1,0.2,15.3c-0.2,2.1-3.5,1.9-3.3-0.3c0.8-10,0.5-12.8-0.5-15.2c-1.6-0.4-3.1-0.7-4.7-1.1c-1.1,4.7-2.1,9.4-3.2,14.1
	C532.7,336.9,529.5,336.2,529.9,334.1z M537,317.6c1.8,0.4,3.5,0.8,5.3,1.2c0.2,0,0.4,0,0.5,0.1c1.7,0.3,3.3-1.4,3.7-3.3
	c0.6-2.5,0.3-5.8-1.8-6.3c-1.9-0.4-3.7-0.9-5.6-1.3C538.4,311.2,537.7,314.4,537,317.6z M193.2,400.1c0,6.7-2.7,14.6-8.3,18.7
	c-2.5,1.8-5.4,2.7-8.1,2.7c-12.5,0-12.9-20.6-13.4-29.4c-0.1-1.9,0-5.1,0.4-8.6c-14.5-2.4-37,6.4-44.6,15.2l-0.1,0.2
	c7.4,7.4,2,23.8-4,30.5c-11.4,12.7-20.4-6.2-1.2-29.9c-10.2-9.8-51.2,15.7-76,5.4c-4.4-1.8-11.3-5.4-11-8.7c0.3-3.2,2.3-5,5.4-3.1
	c2.8,1.5,4.2,7.8,6.3,8.4c25.4,7,62.8-12.2,77.8-4.6l0.1-0.1c17-17.5,40.4-18.5,47.9-18.1c1.7-11.6,5.7-25.5,13-25.5
	c7.8,0,8.5,9.7,6.7,18c-1.8,7.8-4.3,13.5-14.1,12.9c-0.7,8.6-0.4,16.8,0,19.9c0.2-1.3,0.7-2.5,1.1-3.9c1.6-4.7,5.1-13.3,10.7-13.3
	C190.6,386.9,193.2,393,193.2,400.1z M170.8,379.1c1.5,0.3,7.7,0.4,10.1-8.2c1.8-6,1.3-11.3-0.8-12
	C175.2,359,171.8,374.5,170.8,379.1z M116.5,401.5c-8.3,11.7-14.3,40.3-2.9,27.5C118.5,423.6,121.9,407.6,116.5,401.5z M182.8,393.5
	c-5.2-3.5-9.1,5-9.3,12.3c-0.3,9.6,5,17.3,9.5,8C184.8,410.2,189,397.7,182.8,393.5z M408.2,398.4c-0.3,1.2-7.5,22.8-14.3,23.6
	c-5.1,0.6-8.3-6.9-9.7-17c-2.5,6.1-7.2,15.8-11.4,15.8h-0.4c-7.8-1.1-1.5-25.8-3-26.3c-0.3-0.1-0.6,0.6-1.2,3.1
	c-0.4,2.1-0.8,5-1.5,7.8c-3.8,16.1-17.5,16.5-17.9-0.2c0-0.9,0-1.8,0.1-2.7c-5,3.5-8.4,2.5-11.6-0.1c4.1,12.4,6.8,32.2-1.3,32.2
	c-4.3,0-7.4-12.6-8.2-27.4c-2.3,5-6.4,11.3-10.8,11.5c-8,0.4-11.2-28.3-0.9-28.3c6.6,0-1.9,24.1,3.1,24.1c3.5,0,7.1-10.6,8.1-14.1
	c0.1-0.3,0.2-0.6,0.3-0.9c0-10.3,1.1-20.8,3.6-28.3c-0.3-0.4-0.8-0.8-1.7-1c-7.1-1.4-15.8-0.2-22.8,1.2c-3.3,9.5-5.3,45.4-0.2,52.8
	c0.4,0.6,2.6-1.2,2,1.8c-0.3,1.7-3.2,0.1-4.3-0.8c-3.3-2.9-5.1-11-5.8-20.3c-2.5,6.1-7.1,15.6-11.3,15.6h-0.4
	c-7.8-1.1-1.5-25.8-3-26.3c-0.3-0.1-0.6,0.6-1.2,3.1c-0.4,2.1-0.8,5-1.5,7.8c-3.5,14.8-15.4,16.4-17.6,3.5
	c-2.4,5.2-5.8,10.2-9.5,10.2c-8.6,0-6.1-19.8-6-24.9c-2.5,6.8-5.6,17.4-14.5,17.4c-4.2,0-6.4-2.3-7.4-5.3c-2.7,5.2-6.4,8.7-12.5,9.1
	c-12.7-0.1-15-9.8-15-17.3c0-18.9,20.2-19.6,20.2-7.4c0,10.5-11.9,9.8-12.8,7.7c0,3.7,0.6,14.4,9.1,14.4c4.2,0,8.3-6,10.3-11
	c0-0.3,0-0.5,0-0.8c0-8.9,5.3-22.6,15.8-22.6c4.8,0,5.8,2.8,7.1,5.9c0.5-2,0.4-4.3,3.3-4.3c4.7,0,5.3,3.3,4.4,8
	c-0.7,3-5.3,27.4-0.3,27.4c2.1,0,4.6-5,7.6-13.7c0.4-5.7,1.9-10.9,3.6-11.5c0.3-0.1,0.6-0.1,0.9-0.1c2.6,0,3.4,3.1,3.4,5.7
	c0,1.3-0.9,5.8-1.3,9.9c-1.2,11.2,5.5,10.5,8.3-0.6c2.3-9,3.2-21.8,8.4-21.8c10,0-1.1,32,2.9,32c1.8,0,7.2-11,8.8-15.4
	c-0.4-10.6,0.6-21.7,2.5-27.5c-2.6,0.2-14.2,1.5-14.2-2.3c0-0.5,0.7-1.6,1.4-1.6c0.3,0,0.4,0.1,0.6,0.2c4.7,1.4,8.1,1.5,12.9,0.8
	c0.8-3.9,4.5-16.1,9.3-16.1c1,0,2.8-0.1,2.8,0.9c0,2-4.7,10.6-5.6,14.1c7.7-1.4,15.2-1.7,22.9-1.3c0.6,0,1.3,0.1,2,0.3
	c2.1-4.2,4.8-6.7,8.3-6.7c1.9,0,3.2,3.3,2.8,6.5c-1.2,8.3-9,22.8-10.6,25.7c2.2,4.5,4.4,10.8,10.6,9.9c1.3-0.2,3.2-1.3,5.3-3.8
	c0.6-4.5,1.9-8.3,3.3-8.8c0.3-0.1,0.6-0.1,0.9-0.1c2.6,0,3.4,3.1,3.4,5.7c0,1.3-0.9,5.8-1.3,9.9c-1.2,11.2,5.5,10.5,8.3-0.6
	c2.3-9,3.2-21.8,8.4-21.8c10,0-1.1,32,2.9,32c1.8,0,7-10.5,8.7-15.1c-1.3-18.3,3-41.4,14-41.6c11.1,0-5.6,35.9-7.8,40.6
	c0,7.3,0.9,17.4,5,17.7c5.3,0.3,11.2-19.8,12.4-20.8C408.8,395.1,408.5,397.3,408.2,398.4z M205.5,396.6c5.7,1.3,9.3-1.4,8.9-6.2
	c-0.1-1.2-1.6-3.5-3.3-3.5C208.8,386.9,205.5,391.6,205.5,396.6z M242.3,382.3c-7.4,0-12.7,26.7-7.4,26.7c2.7,0,8.1-8.7,10.2-16.1
	C246.7,387.3,244.8,382.3,242.3,382.3z M331.8,390.4c2.8-3.4,11.5-22.8,8.4-23C336.2,367.2,332.3,387.5,331.8,390.4z M332.3,398.5
	h-0.1c0.1,0.3,0.3,11.8,1.7,20.4c1,6.2,3,10.4,3.4,10.4c0.2,0,0.4-0.8,0.4-2.6C337.8,420,335.1,404.6,332.3,398.5z M398.5,365.8
	c-0.3-1-0.6-1.4-1-1.4c-2.5,0-8.6,16.3-8,29.5C391.2,390.7,399.5,371.5,398.5,365.8z M314.9,385c1.8,0,3.9-1.9,3.9-6.3
	c0-1.7-1-2.7-2.5-2.7c-3.5,0-5.8,4-4.6,6.7C312.2,384.1,313.6,385,314.9,385z M693.1,404.5c-0.3,12.2-13.7,17-24.4,16.3
	c-10.1-0.9-15.5-4.8-17.6-8.4c-4.3-7.6,5.3-13.3,8.1-6.3c0.6,1.4,0.1,3.1-1,4.4c1.4,11.1,31.8,11.8,32.3-6.1
	c0.3-10.3-11-14.1-19.7-14.7c-30.8-2.2-64.1,23.9-89.5,26.7c0,0.2,0,0.4,0,0.6c-0.1,6.3-3.5,12-12,12c-4.6,0-8.6-2.2-8.9-6.4
	c-0.2-3.7,1.8-9.1,13-10.4c-2.3-3.8-6.5-7.7-8.8-12c-2.4,3.5-7.1,7.2-10.2,6.8c-2.2,4.9-5.6,7.8-9.8,7.8c-5.1,0-7.7-4-8.7-8.4
	c-2.4,6-6.3,12.9-10.6,12.9c-8.6,0-6.1-19.8-6-24.9c-2.5,6.8-5.6,17.4-14.5,17.4c-4,0-6.2-2.1-7.3-4.9c-3.2,7.1-8.4,16-12.2,16
	c-12.9,0-0.4-33.9-3.8-33.6c-7.4,0.7-9.7,21.9-14,23.4c-3.4,1.1-4.6-2.2-5.6-7c-3,6.4-8.6,12.5-14.9,12.5c-9.8,0-12.3-10-12.3-17.9
	c0-6.5,3.4-14.8,11.8-14.8c6.8,0,8.7,5.5,8.4,9.4c-0.3,5.1-4.9,4.8-6,2.9c-1-1.4,1.1-2.6,1.9-3.4c1.9-2,0.2-6.6-3.4-6.6
	c-4.8,0-5.8,27.7,0.4,27.7c6.6,0,10.5-10.8,13.3-16.3c-0.9-16,2-49.4,17.8-49.4c12.3,0-8.5,43.5-12.4,48.5
	c-0.2,1.3-0.4,11.3,1.6,9.8c1-0.7,5.1-22.7,14.3-23.1c15.9-0.8-1.2,33.2,4.3,33.2c1.4,0,4-2.6,6.5-7.9c1.1-2.4,2.2-5.8,3.2-8.8
	c0,0,0-0.1,0-0.1c0-8.9,5.3-22.6,15.8-22.6c4.8,0,5.8,2.8,7.1,5.9c0.5-2,0.4-4.3,3.3-4.3c4.7,0,5.3,3.3,4.4,8
	c-0.7,3-5.3,27.4-0.3,27.4c2.2,0,5-5.8,8.3-15.8c0.2-3.9,2-4.9,3.6-4.9c-1.5-2-0.4-9,7.3-9c9.1,0,11.1,11.8,8.8,18.7
	c4.3,0.6,6.6-4.4,8.5-7.2c-0.2-0.7-0.4-1.5-0.4-2.2c-0.5-6.7,3.2-12.8,10.8-12.8c3.5,0,6.2,2.2,5.2,5.9c-0.8,2.5-2.6,3.4-4.3,3.4
	c-1.5,0-2.8-0.9-2.6-1.9c0.1-1.5,2.6-1.1,2.8-2.8c0.2-1.5-0.9-2-2-2c-1.9,0-3.5,1.2-4,3.3c-0.3,1.6-0.1,3.3,0.5,5.2
	c2.9,8.3,9.6,10.7,11.4,19c7.7-0.2,17.5-3.7,24.6-6.4c22.3-8.6,43.2-22,66.3-20.4C681.8,386.2,693.4,392.7,693.1,404.5z
	 M466.6,394.3c2-3.3,16.2-37.7,12.2-38.1C472.6,355.5,466.2,391.8,466.6,394.3z M513.9,382.3c-7.4,0-12.7,26.7-7.4,26.7
	c2.7,0,8.1-8.7,10.2-16.1C518.4,387.3,516.5,382.3,513.9,382.3z M551.8,407c-4.7-0.5-7.9-3.4-10-6.7c-0.2-0.3-0.2-0.1-0.2,0
	c-0.9,5-0.3,11.5,3.7,11.5C548.1,411.8,551.2,409.4,551.8,407z M552.1,393.9c-0.7-1.7-1.7-2.5-2.8-2.2s-2,1.2-2.7,2.7
	c-0.7,1.5-0.7,3.2,0,5.1c0.7,1.9,2.5,3.4,5.5,4.8l0.2,0.1l0.1-0.6C553,399,552.9,395.8,552.1,393.9z M574.5,417.1
	c-0.1-1.4-7.7-0.8-9.7,3.1c-1.2,2.4,0.5,5.9,3.2,5.9C572.2,426.1,575.1,422.3,574.5,417.1z M572.6,347.4c1,0.5,1.1,0.5,1.8-0.3
	c2-2.3,3.9-4.7,5.8-7.1c0.8-1,1.5-2.2,2.1-3.4c0.5-1,0.7-2.1,0.5-3.2c-0.3-1.7-2.2-3.2-3.9-2.8c-1.2,0.3-2.3,0.7-3.3,1.5
	c-1.3,1.1-2,2.6-2.7,4.1c-0.1,0.4-0.3,0.7-0.5,1.2c-0.1-0.3-0.1-0.5-0.2-0.7c-0.5-1.2-1-2.4-1.7-3.5c-0.6-1.1-1.6-1.9-2.8-2.4
	c-1.7-0.7-3.4,0.1-4.1,1.8c-0.2,0.5-0.3,1-0.3,1.5c-0.1,2,0.4,3.8,1.3,5.5C566.5,343,569,345.7,572.6,347.4z M146.7,339.9
	c1.9,2.4,3.8,4.8,5.8,7.1c0.7,0.8,0.8,0.8,1.8,0.3c3.5-1.7,6.1-4.3,7.9-7.8c0.9-1.7,1.4-3.6,1.3-5.5c0-0.5-0.1-1-0.3-1.5
	c-0.6-1.7-2.4-2.5-4.1-1.8c-1.2,0.5-2.1,1.3-2.8,2.4c-0.6,1.1-1.1,2.3-1.7,3.5c-0.1,0.2-0.1,0.4-0.2,0.7c-0.2-0.5-0.4-0.9-0.5-1.2
	c-0.6-1.5-1.4-3-2.7-4.1c-0.9-0.9-2.1-1.3-3.3-1.5c-1.7-0.4-3.6,1.1-3.9,2.8c-0.2,1.1,0,2.2,0.5,3.2
	C145.2,337.7,145.9,338.8,146.7,339.9z"/>
</svg>
