<?xml version="1.0" encoding="utf-8"?>
<!-- Generator: Adobe Illustrator 18.0.0, SVG Export Plug-In . SVG Version: 6.00 Build 0)  -->
<!DOCTYPE svg PUBLIC "-//W3C//DTD SVG 1.1//EN" "http://www.w3.org/Graphics/SVG/1.1/DTD/svg11.dtd">
<svg version="1.1" id="Layer_1" xmlns="http://www.w3.org/2000/svg" xmlns:xlink="http://www.w3.org/1999/xlink" x="0px" y="0px"
	 viewBox="0 0 720 720" style="enable-background:new 0 0 720 720;" xml:space="preserve">
<g>
	<path d="M667.9,394.8c-2.2,0-4.2,0.8-6,2.3c-12.9,14.2-24.4,26.3-34.4,36.5c-10,10.2-18.9,18.5-26.8,25.1
		c-7.8,6.6-14.8,11.5-21,14.5c-6.2,3.1-11.7,4.6-16.6,4.6c-6.2,0-9.2-4.9-9.2-14.8c0-4.3,0.8-9.2,2.3-14.8
		c1.5-5.5,3.8-12.3,6.9-20.3l2.8-1.8c5.8-3.1,12.9-7.2,21.2-12.5c8.3-5.2,16.9-11.8,25.8-19.8c8.6-8,12.9-15.7,12.9-23.1
		c0-5.8-2-10.5-6-14.1c-4-3.5-9.1-5.3-15.2-5.3c-4.9,0-9.7,0.9-14.3,2.8c-4.6,1.8-9.5,5.1-14.8,9.7c-13.5,11.3-24.1,24.1-31.7,38.4
		c-17.5,22.2-31.9,40.1-43,53.7c-12,14.6-22.1,26.1-30.5,34.4c-4.6,4.6-8.9,8.6-12.9,12c-4,3.4-7.1,5.3-9.2,5.8
		c-2.2,0.5-3-1.2-2.5-4.8c0.5-3.7,2.8-10.3,7.2-19.8c8.3-17.8,17.4-33.8,27.2-48c9.8-14.1,18.3-28.3,25.4-42.5
		c3.7-7.4,5.7-15.1,6-23.3c0.3-8.1-1.1-14.9-4.2-20.3c-3.1-5.4-7.8-8.5-14.1-9.2c-6.3-0.8-14.4,2.5-24.2,9.9
		c-6.2,5.2-12.4,11-18.7,17.3c-6.3,6.3-11.8,12.5-16.4,18.7c0-2.1,0-4.5,0-6.9c0-2.5-0.2-4.9-0.5-7.4c-0.6-4.3-1.9-8.1-3.9-11.5
		c-2-3.4-6.1-5.1-12.2-5.1c-2.8,0-5.8,0.8-9,2.3c-3.2,1.5-6.5,3.5-9.9,6c-8,5.8-16.2,13.7-24.5,23.5c-8.3,9.8-16,19.4-23.1,28.6
		l24.9-62.3c1.2-2.8,0.8-5-1.2-6.7c-2-1.7-4.6-2.6-7.8-2.8c-3.2-0.2-6.5,0.4-9.9,1.6c-3.4,1.2-6,3.2-7.8,6l-18.8,48.8
		c-5,6.7-10.5,12.5-16.7,17.4c-7.1,5.7-15.5,9.3-25.4,10.8c4.9-8,9-17.3,12.2-27.9c3.2-10.6,4.8-20.1,4.8-28.4
		c0-13.8-3.8-24.1-11.3-30.7c-7.5-6.6-16.2-9.9-26.1-9.9c-8.3,0-15.9,1.7-22.8,5.1c-6.9,3.4-12.8,8-17.8,13.8
		c-4.9,5.8-8.8,12.7-11.8,20.5c-2.9,7.8-4.4,16.2-4.4,25.1c-1.6,2.1-3.2,4.3-4.7,6.6c-3.1,3.8-6.4,7.7-9.9,11.8
		c-5.4,6.5-10.8,12.9-16.4,19.4c-5.5,6.5-11,12.6-16.4,18.5c-5.4,5.8-10.5,11.1-15.5,15.7c-4.3,4.3-8.3,7.8-12,10.6
		c-3.7,2.8-6.4,4.1-8.1,3.9c-1.7-0.2-2.2-2.2-1.6-6c0.6-3.8,3.1-10.4,7.4-19.6c2.1-4.9,5.6-11.2,10.4-18.9
		c4.8-7.7,9.6-15.6,14.5-23.8c4.9-8.1,9.5-16.2,13.8-24c4.3-7.8,7.2-14.5,8.8-20.1c2.5-8.6,2.8-15.8,1.2-21.5
		c-1.7-5.7-4.8-9.6-9.2-11.8c-4.5-2.1-10.2-2.3-17.1-0.5c-6.9,1.8-14.2,5.8-21.9,12c-4.3,3.4-8.8,7.6-13.6,12.7
		c-4.8,5.1-9.6,10.5-14.5,16.4c-4.9,5.8-9.8,11.7-14.5,17.5c-4.8,5.8-9.2,11.2-13.2,16.2c4.9-13.2,9.1-23.8,12.5-31.8
		c3.4-8,6.2-14.3,8.3-18.9c2.1-4.6,3.6-7.8,4.4-9.7c0.8-1.8,1.2-3.1,1.2-3.7c11.1-8.6,22.8-17.7,35.3-27.2
		c12.5-9.5,24.7-19.4,36.7-29.5s23.5-20.5,34.4-30.9c10.9-10.5,20.5-20.8,28.6-31.1c8.1-10.3,14.7-20.6,19.6-30.9
		c4.9-10.3,7.4-20.2,7.4-29.8c0-10.8-3.2-19.4-9.5-25.8c-6.3-6.5-14.4-9.7-24.2-9.7c-8,0-16.1,1.4-24.2,4.2
		c-8.2,2.8-16.7,8.1-25.6,15.9c-8.9,7.8-18.2,18.8-27.9,32.8c-9.7,14-20.1,32.1-31.1,54.2c-11.1,22.1-22.9,49-35.5,80.5
		c-12.6,31.5-26.2,68.8-40.6,111.9c-1.2,3.7-1,6.7,0.7,9c1.7,2.3,3.9,3.9,6.7,4.6c2.8,0.8,5.6,0.7,8.5-0.2c2.9-0.9,5-2.8,6.2-5.5
		c9.8-13.5,21.3-27.4,34.4-41.5c13.1-14.1,25.6-26.9,37.6-38.3c3.1-3.1,6.3-5.8,9.7-8.1c3.4-2.3,6-3.6,7.8-3.9
		c1.8-0.3,2.8,0.9,2.8,3.7s-1.8,7.7-5.5,14.8c-1.8,3.7-4.4,8.3-7.6,13.8c-3.2,5.5-6.7,11.6-10.4,18.2c-3.7,6.6-7.4,13.5-11.1,20.5
		c-3.7,7.1-6.9,13.8-9.7,20.3c-4.9,11.7-7.3,21.8-7.2,30.2c0.2,8.5,2.2,14.4,6.2,17.8c4,3.4,9.5,4,16.6,1.8
		c7.1-2.2,15.1-7.8,24-17.1c4-4.3,8-8.6,12-12.9c4-4.3,8.2-9.1,12.7-14.3c3.1-3.7,6.6-7.7,10.4-12.1c-1.8,6.9-2.8,13.9-2.8,20.9
		c0,11.1,2.8,19.8,8.5,26.3c5.7,6.5,13,9.7,21.9,9.7c9.5,0,19-3.7,28.4-11.1c9.4-7.4,19.5-19.2,30.2-35.5c7.7-0.3,14.6-1.5,20.8-3.7
		c6.2-2.1,11.7-5,16.6-8.5c0.8-0.6,1.6-1.2,2.4-1.8l-11.7,30.2c-1.2,2.8-0.8,5,1.2,6.7c2,1.7,4.6,2.8,7.8,3.2
		c3.2,0.5,6.5,0.2,9.9-0.9c3.4-1.1,5.7-2.8,6.9-5.3l-0.5,0.5c4.3-5.8,9.3-12.8,15-20.8c5.7-8,11.7-16.2,18-24.5
		c6.3-8.3,12.5-16.1,18.5-23.3c6-7.2,11.3-13.2,15.9-17.8c0.3-0.3,1.2-1.2,2.5-2.5s2.9-2.5,4.6-3.5c1.7-0.9,3.2-1.5,4.4-1.6
		c1.2-0.2,1.8,0.9,1.8,3c0,4.6-1.2,10.5-3.5,17.8c-2.3,7.2-7.3,17.9-15,32.1c-2.5,4.6-3.1,8.2-1.8,10.6c1.2,2.5,3.4,4,6.5,4.6
		c3.1,0.6,6.5,0.3,10.2-0.9c3.7-1.2,6.6-3.2,8.8-6c0-0.3,1.8-3.2,5.3-8.5c3.5-5.4,8-11.8,13.4-19.1c5.4-7.4,11.2-15,17.5-22.8
		c6.3-7.8,12.2-14.2,17.8-19.1c5.8-4.6,10.2-7.2,12.9-7.6c2.8-0.5,4.5,0.5,5.3,2.8c0.8,2.3,0.7,5.5-0.2,9.7
		c-0.9,4.2-2.3,8.4-4.2,12.7c-3.7,9.2-7.9,18.1-12.7,26.5c-4.8,8.5-9.7,16.5-14.8,24.2c-5.1,7.7-9.9,15.2-14.5,22.4
		c-4.6,7.2-8.3,14.4-11.1,21.5c-4.3,11.1-6.2,20.4-5.8,27.9c0.5,7.5,2.8,12.8,6.9,15.9c4.2,3.1,9.8,3.5,16.8,1.2
		c7.1-2.3,15.2-7.8,24.5-16.4c12.9-11.7,26.5-26.4,40.6-44.1c4.7-5.8,9.3-11.7,14-17.7c-1,5.8-1.6,11.5-1.6,17.1
		c0,12,2.8,20.5,8.5,25.6c5.7,5.1,12.5,7.6,20.5,7.6c8.6,0,17.2-2.2,25.8-6.5c8.6-4.3,17.1-9.8,25.6-16.4c8.5-6.6,16.6-14,24.5-22.1
		c7.8-8.1,15.5-16.1,22.8-23.8l14.8-15.7c0.6-1.2,0.9-2.9,0.9-5.1C672.5,396.6,671,394.8,667.9,394.8z M580,394.8
		c2.9-4.9,6-9.2,9.2-12.9c3.2-3.7,6.5-6.7,9.7-9s6.4-3.5,9.5-3.5c2.8,0,4.2,1.2,4.2,3.7c0,2.5-2.5,6-7.4,10.6
		c-5.2,4.6-10.8,9.2-16.8,13.8c-6,4.6-11.6,8.6-16.8,12C574.3,404.6,577.1,399.7,580,394.8z M129.2,292.8c6-12.9,12.5-26,19.4-39.2
		c6.9-13.2,14-26.1,21.2-38.5c7.2-12.5,14.4-23.3,21.5-32.5c9.2-12.9,17.8-22.1,25.8-27.7c8-5.5,14.6-8.3,19.8-8.3
		c5.2,0,9.3,2,12.2,6c2.9,4,4.4,9.4,4.4,16.2c0,10.8-4.3,23.4-12.9,37.8h0.5c-5.5,9.5-13.3,19.6-23.3,30.2c-10,10.6-21,21.2-33,31.8
		c-12,10.6-24.3,21-36.9,31.1c-12.6,10.2-24.2,19.4-34.6,27.7C117.9,317.2,123.2,305.7,129.2,292.8z M256.6,452.2
		c-2.9,3.9-6.1,7.4-9.5,10.6c-3.4,3.2-6.9,5.9-10.6,8.1c-3.7,2.2-7.4,3.2-11.1,3.2c-3.1,0-5.6-1.2-7.6-3.7c-2-2.5-3.2-6.6-3.5-12.5
		c0-4.3,0.6-9.9,1.8-16.8c1.2-6.9,3.4-14.1,6.5-21.5c6.1,6.5,13.2,11.5,21.2,15.2c8,3.7,14.9,5.8,20.8,6.5
		C262.2,444.7,259.5,448.4,256.6,452.2z M272,428.9c-1.8,0-4.7-0.4-8.5-1.2c-3.9-0.8-7.8-2-12-3.7c-4.2-1.7-8.3-3.9-12.5-6.7
		c-4.2-2.8-7.5-6.3-9.9-10.6c3.4-7.1,7.5-13.2,12.2-18.5c4.8-5.2,10.1-8.1,15.9-8.8c0.6,0,1.2-0.5,1.8-1.4c0.6-0.9,0.9-1.9,0.9-3
		c0-1.1-0.7-2.1-2.1-3s-3.9-1.4-7.6-1.4c-8.3,0-17.1,3.9-26.3,11.5c4.9-13.5,11.5-23.2,19.6-29.1c8.1-5.8,16.1-8.8,23.8-8.8
		c6.8,0,12.5,2.2,17.3,6.5c4.8,4.3,7.2,11.2,7.2,20.8c0,8-1.8,16.9-5.3,26.8C283,408.3,278.2,418.4,272,428.9z"/>
	<path d="M60.4,548c-0.7-0.8-1-1.6-1-2.5c0-0.8,0.4-1.6,1.2-2.3c0.8-0.7,1.6-1,2.4-1c0.9,0,1.6,0.4,2.3,1.1c0.7,0.8,1,1.6,1,2.4
		c0,0.8-0.4,1.5-1.1,2.3c-0.7,0.7-1.6,1.1-2.5,1.1C61.8,549.1,61.1,548.8,60.4,548z M66.5,583.4c-0.6-0.6-0.8-2.3-0.8-5.1v-13.6
		c0-0.6,0-1.4,0-2.1c0-0.8,0-1.5,0.1-2.1c0-0.6,0.1-1.2,0.1-1.9s0-1.1,0.1-1.3c0-0.2,0-0.4,0-0.5c0-0.3-0.3-0.5-0.9-0.5
		c-2,0.8-5.2,1.4-9.5,2c-0.2,0.5-0.1,1.2,0.1,2c1.9,0.2,3.2,0.5,3.7,1c0.5,0.5,0.8,1.7,0.8,3.6v13.3c0,2.7-0.3,4.4-0.8,5.1
		c-0.6,0.6-1.9,1-4.2,1.2c-0.2,0.2-0.3,0.7-0.3,1.3c0,0.6,0.1,1,0.3,1.2c3.9-0.1,6.5-0.1,7.8-0.1c1.1,0,3.7,0,7.7,0.1
		c0.2-0.2,0.3-0.6,0.3-1.2c0-0.6-0.1-1-0.3-1.3C68.4,584.4,67,584,66.5,583.4z M88,569.8c-1.1-0.4-1.9-0.7-2.4-0.9
		c-0.5-0.2-1.1-0.5-1.8-0.9c-0.7-0.4-1.2-0.8-1.5-1.1c-0.3-0.4-0.6-0.8-0.8-1.4c-0.2-0.6-0.4-1.2-0.4-2c0-1.3,0.5-2.4,1.5-3.2
		c1-0.8,2.1-1.2,3.4-1.2c0.5,0,1,0.1,1.6,0.2c0.5,0.1,1.2,0.4,1.9,0.8c0.7,0.4,1.4,1,1.9,1.9s0.9,2,1.2,3.3c0.2,0.2,0.6,0.3,1.1,0.3
		c0.5,0,0.9-0.1,1.1-0.3c0-0.9,0.1-2.2,0.2-3.9c0.1-1.7,0.2-2.8,0.2-3.4c-0.3,0-1.1-0.2-2.3-0.5c-1.2-0.3-2.4-0.5-3.6-0.6
		c-1.1-0.2-2.2-0.2-3.3-0.2c-2.6,0-4.9,0.8-6.9,2.3c-1.9,1.5-2.9,3.4-2.9,5.6c0,2.4,0.6,4.3,1.7,5.6c1.1,1.3,3.1,2.5,5.9,3.7
		c2.8,1.1,4.7,2.1,5.6,3.1c0.9,0.9,1.4,2.1,1.4,3.6c0,1.5-0.6,2.7-1.8,3.5c-1.2,0.8-2.6,1.2-4.1,1.2c-2.3,0-3.9-0.5-4.9-1.6
		c-1-1-1.9-3.1-2.7-6.3c-0.2-0.2-0.6-0.3-1.1-0.3c-0.5,0-0.9,0.1-1.1,0.3c0.3,4,0.5,7.2,0.5,9.7c0.7-0.2,1.3-0.2,1.7-0.2
		c0.6,0,1.1,0.1,1.4,0.2c1.9,0.5,4,0.8,6.3,0.8c1.1,0,2.3-0.1,3.5-0.4c1.2-0.3,2.4-0.7,3.6-1.4c1.2-0.6,2.2-1.6,3-2.8
		c0.8-1.2,1.2-2.7,1.2-4.3C96.3,574.8,93.5,571.8,88,569.8z"/>
	<path d="M166.9,557.1c0.2,0.2,0.3,0.7,0.4,1.3c0,0.6-0.1,1-0.4,1.2c-1.6,0.1-2.8,0.5-3.6,1.3c-0.8,0.8-1.5,2-2.2,3.6l-9,21.8
		c-0.4,1-0.9,1.4-1.6,1.4c-0.7,0-1.2-0.5-1.7-1.4l-7.1-17l-7,16.9c-0.5,1-1,1.5-1.7,1.5c-0.7,0-1.2-0.5-1.7-1.4l-9.1-22.2
		c-0.7-1.8-1.4-3-2.1-3.5c-0.7-0.5-1.8-0.9-3.4-1.1c-0.2-0.2-0.3-0.6-0.4-1.2c0-0.6,0.1-1,0.4-1.3c2.4,0.1,4.4,0.1,6.1,0.1
		c1.4,0,3.8,0,7.2-0.1c0.2,0.2,0.3,0.7,0.3,1.3c0,0.6-0.1,1-0.3,1.2c-1.6,0.1-2.5,0.5-2.8,1.1c-0.3,0.7,0,1.8,0.7,3.5l5.5,14.1
		c0.3,0.8,0.6,1.3,0.7,1.4c0.2,0.2,0.3,0.2,0.5,0c0.2-0.2,0.4-0.7,0.7-1.5l4.9-12.2l-0.4-1.1c-0.1-0.2-0.2-0.4-0.3-0.6
		c-0.3-0.9-0.6-1.5-0.8-1.9c-0.2-0.4-0.5-0.8-0.9-1.3c-0.4-0.5-0.8-0.8-1.4-1.1c-0.5-0.2-1.2-0.4-2-0.4c-0.2-0.2-0.3-0.6-0.3-1.2
		c0-0.6,0.1-1,0.3-1.3c3.4,0.1,5.4,0.1,6.1,0.1c1.2,0,3.5,0,6.9-0.1c0.2,0.2,0.3,0.7,0.3,1.3c0,0.6-0.1,1-0.3,1.2
		c-1.8,0.1-2.8,0.5-3.1,1c-0.3,0.5-0.1,1.6,0.6,3.2l6,15c0.3,0.8,0.5,1.2,0.7,1.3c0.1,0,0.2-0.1,0.4-0.5c0,0,0.2-0.4,0.4-1.1
		l5.8-14.3c0.2-0.6,0.4-1.1,0.5-1.4c0.1-0.3,0.1-0.7,0.1-1.2c0-0.4-0.1-0.8-0.4-1s-0.7-0.5-1.3-0.7c-0.6-0.2-1.4-0.3-2.4-0.4
		c-0.2-0.2-0.3-0.6-0.3-1.2c0-0.6,0.1-1,0.3-1.3c3.4,0.1,5.8,0.1,7.2,0.1C163,557.3,164.6,557.2,166.9,557.1z M200.1,583.3
		c-0.5-0.6-0.8-2.3-0.8-5v-10.2c0-4.5-0.6-7.6-1.9-9.2c-1.2-1.6-3.1-2.3-5.7-2.3c-4.5,0-8.4,1.9-11.8,5.6c-0.4,0.5-0.6,0.5-0.7,0
		l0.1-15.6c0-3,0.1-5.4,0.3-7.3c0-0.5-0.3-0.7-0.9-0.7c-2.4,0.9-5.6,1.6-9.7,1.9c-0.2,0.9-0.1,1.5,0.4,2.1c1.2,0.1,2,0.1,2.3,0.2
		c0.3,0,0.7,0.2,1.2,0.6c0.5,0.3,0.8,0.9,0.9,1.6c0.1,0.7,0.1,1.8,0.1,3.3v30.1c0,1.5-0.1,2.6-0.2,3.4c-0.1,0.8-0.4,1.4-0.8,1.8
		c-0.4,0.4-0.9,0.7-1.4,0.8c-0.5,0.1-1.3,0.2-2.5,0.3c-0.2,0.2-0.3,0.6-0.3,1.2c0,0.6,0.1,1,0.3,1.2c3.8-0.1,6.3-0.1,7.6-0.1
		c0.7,0,2.9,0,6.8,0.1c0.2-0.2,0.3-0.6,0.3-1.2c0-0.6-0.1-1-0.3-1.2c-1.3-0.1-2.2-0.3-2.7-0.5c-0.5-0.2-0.9-0.8-1.1-1.6
		s-0.4-2.2-0.4-4.1v-11.2c0-1.1,0.4-2,1.2-2.9c2.8-2.7,5.7-4,8.8-4c1.6,0,2.8,0.8,3.7,2.5c0.5,1.1,0.8,2.9,0.8,5.3v10.4
		c0,2.7-0.2,4.4-0.7,5c-0.5,0.6-1.7,1.1-3.6,1.2c-0.2,0.2-0.3,0.7-0.3,1.3c0,0.6,0.1,1,0.3,1.2c3.9-0.1,6.2-0.1,7.1-0.1
		c0.9,0,3.4,0,7.3,0.1c0.2-0.2,0.3-0.7,0.3-1.3c0-0.6-0.1-1-0.3-1.2C201.9,584.4,200.6,584,200.1,583.3z M236.9,572.2
		c0,4.8-1.5,8.7-4.5,11.6c-2.6,2.6-6,3.9-10.2,3.9c-4.6,0-8.2-1.5-10.7-4.5c-2.5-3-3.8-6.5-3.8-10.4c0-4.6,1.3-8.3,3.8-11.3
		c2.7-3.2,6.4-4.8,10.8-4.8c3.3,0,6.1,0.8,8.4,2.4c2.3,1.6,3.9,3.6,4.8,5.8C236.5,567.1,236.9,569.6,236.9,572.2z M231,574.3
		c0-4.9-0.9-8.7-2.6-11.3c-1.7-2.6-4.1-3.9-7.1-3.9c-5.1,0-7.7,4-7.7,12.1c0,1.5,0.2,3,0.5,4.5s0.9,3,1.6,4.5c0.7,1.5,1.7,2.7,3,3.6
		c1.3,0.9,2.8,1.4,4.5,1.4c2,0,3.8-0.8,5.4-2.5C230.2,581,231,578.2,231,574.3z"/>
	<path d="M276.3,584.6c0.2,0.2,0.3,0.7,0.3,1.3c0,0.6-0.1,1-0.3,1.2c-4.6-0.1-7.6-0.1-8.9-0.1c-1.5,0-4.5,0-9,0.1
		c-0.2-0.2-0.3-0.6-0.3-1.2c0-0.6,0.1-1,0.3-1.3c2.6-0.1,4.2-0.5,4.9-1.1c0.7-0.7,1.1-2.4,1.1-5.1v-27.4c0-2.7-0.4-4.4-1.1-5.1
		c-0.7-0.7-2.3-1-4.9-1.1c-0.2-0.2-0.3-0.6-0.3-1.2c0-0.6,0.1-1,0.3-1.3c4.6,0.1,7.6,0.1,8.9,0.1c1.5,0,4.5,0,9-0.1
		c0.2,0.2,0.3,0.7,0.3,1.3c0,0.6-0.1,1-0.3,1.2c-2.6,0.1-4.2,0.5-4.9,1.1c-0.7,0.7-1.1,2.4-1.1,5.1v27.4c0,2.7,0.4,4.4,1.1,5.1
		C272.1,584.1,273.8,584.5,276.3,584.6z"/>
	<path d="M319.3,578.8c0,1.6-0.4,3.1-1.2,4.3c-0.8,1.2-1.8,2.1-3,2.8c-1.2,0.6-2.4,1.1-3.6,1.4c-1.2,0.3-2.3,0.4-3.5,0.4
		c-2.3,0-4.3-0.3-6.3-0.8c-0.3-0.1-0.8-0.2-1.4-0.2c-0.5,0-1,0.1-1.7,0.2c0-2.4-0.2-5.7-0.5-9.7c0.2-0.2,0.6-0.3,1.1-0.3
		c0.5,0,0.9,0.1,1.1,0.3c0.8,3.2,1.7,5.3,2.7,6.3c1,1.1,2.6,1.6,4.9,1.6c1.5,0,2.8-0.4,4.1-1.2c1.2-0.8,1.8-2,1.8-3.5
		c0-1.5-0.5-2.7-1.4-3.6c-0.9-0.9-2.8-1.9-5.6-3.1c-2.8-1.1-4.7-2.4-5.9-3.7c-1.1-1.3-1.7-3.2-1.7-5.6c0-2.2,1-4,2.9-5.6
		c1.9-1.5,4.2-2.3,6.9-2.3c1.1,0,2.2,0.1,3.3,0.2c1.1,0.2,2.3,0.4,3.6,0.6c1.2,0.3,2,0.4,2.3,0.5c0,0.6-0.1,1.8-0.2,3.4
		c-0.1,1.7-0.2,3-0.2,3.9c-0.2,0.2-0.6,0.3-1.1,0.3c-0.5,0-0.9-0.1-1.1-0.3c-0.2-1.3-0.6-2.4-1.2-3.3s-1.2-1.5-1.9-1.9
		c-0.7-0.4-1.4-0.6-1.9-0.8c-0.5-0.1-1.1-0.2-1.6-0.2c-1.2,0-2.4,0.4-3.4,1.2c-1,0.8-1.5,1.8-1.5,3.2c0,0.7,0.1,1.4,0.4,2
		c0.2,0.6,0.5,1,0.8,1.4c0.3,0.4,0.8,0.7,1.5,1.1c0.7,0.4,1.3,0.7,1.8,0.9c0.5,0.2,1.3,0.5,2.4,0.9
		C316.5,571.8,319.3,574.8,319.3,578.8z M354.2,583.3c-0.5-0.6-0.8-2.3-0.8-5v-10.2c0-4.5-0.6-7.6-1.9-9.2c-1.2-1.6-3.1-2.3-5.7-2.3
		c-4.5,0-8.4,1.9-11.8,5.6c-0.4,0.5-0.6,0.5-0.7,0l0.1-15.6c0-3,0.1-5.4,0.3-7.3c0-0.5-0.3-0.7-0.9-0.7c-2.4,0.9-5.6,1.6-9.7,1.9
		c-0.2,0.9-0.1,1.5,0.4,2.1c1.2,0.1,2,0.1,2.3,0.2c0.3,0,0.7,0.2,1.2,0.6c0.5,0.3,0.8,0.9,0.9,1.6c0.1,0.7,0.1,1.8,0.1,3.3v30.1
		c0,1.5-0.1,2.6-0.2,3.4c-0.1,0.8-0.4,1.4-0.8,1.8c-0.4,0.4-0.9,0.7-1.4,0.8c-0.5,0.1-1.3,0.2-2.5,0.3c-0.2,0.2-0.3,0.6-0.3,1.2
		c0,0.6,0.1,1,0.3,1.2c3.8-0.1,6.3-0.1,7.6-0.1c0.7,0,2.9,0,6.8,0.1c0.2-0.2,0.3-0.6,0.3-1.2c0-0.6-0.1-1-0.3-1.2
		c-1.3-0.1-2.2-0.3-2.7-0.5c-0.5-0.2-0.9-0.8-1.1-1.6s-0.4-2.2-0.4-4.1v-11.2c0-1.1,0.4-2,1.2-2.9c2.8-2.7,5.7-4,8.8-4
		c1.6,0,2.8,0.8,3.7,2.5c0.5,1.1,0.8,2.9,0.8,5.3v10.4c0,2.7-0.2,4.4-0.7,5c-0.5,0.6-1.7,1.1-3.6,1.2c-0.2,0.2-0.3,0.7-0.3,1.3
		c0,0.6,0.1,1,0.3,1.2c3.9-0.1,6.2-0.1,7.1-0.1c0.9,0,3.4,0,7.3,0.1c0.2-0.2,0.3-0.7,0.3-1.3c0-0.6-0.1-1-0.3-1.2
		C356,584.4,354.7,584,354.2,583.3z M390.2,583.8c0.2,0.3,0.4,0.5,0.4,0.7c0,0.1-0.2,0.4-0.7,0.9c-0.5,0.5-1.2,1-2.2,1.5
		c-1,0.5-2,0.7-3,0.7c-2.8,0-4.6-1.3-5.4-4h-0.1l-1.4,1.1c-1.5,1.2-2.8,2-3.7,2.3c-1,0.4-2.2,0.6-3.8,0.6c-2.7,0-4.9-0.6-6.5-1.8
		c-1.6-1.2-2.4-3.1-2.4-5.6c0-2.3,1.1-4.3,3.2-6.1c2.2-1.8,4.9-3.1,8.3-3.9l6-1.5c0.3-0.1,0.4-0.4,0.4-0.8c0-5.9-1.9-8.8-5.6-8.8
		c-1.5,0-2.9,0.2-4,0.7c-1.1,0.5-1.7,1.2-1.7,2.1c0,0.6,0,1.1,0.1,1.3c0.1,0.3,0.2,0.7,0.2,1.2c0,0.5-0.3,1-0.8,1.5
		c-0.6,0.5-1.3,0.7-2.2,0.7c-1.6,0-2.4-0.8-2.4-2.4c0-1.9,1.2-3.6,3.6-5.3c2.4-1.6,5-2.4,7.8-2.4c7,0,10.5,3.9,10.5,11.8v10.2
		c0,1.3,0,2.3,0.1,3c0.1,0.7,0.3,1.3,0.8,1.9c0.4,0.6,1.1,0.9,1.9,0.9c0.6,0,1-0.2,1.5-0.5c0.4-0.4,0.6-0.5,0.7-0.5
		C389.8,583.4,390,583.5,390.2,583.8z M379.3,570.9l-5.5,1.4c-4.4,1.1-6.6,3.7-6.5,7.6c0,1.2,0.4,2.4,1.3,3.4s2.1,1.5,3.7,1.5
		c1.6,0,3.6-1,6.1-3c0.7-0.5,1-1,1-1.8V570.9z M411.2,556.6c-1.5,0-2.9,0.6-4.2,1.7c-1.4,1.1-2.5,2.5-3.4,4
		c-0.2,0.3-0.4,0.4-0.4,0.3c-0.1-0.1-0.1-0.2-0.1-0.5c0-2.7-0.2-4.4-0.6-5.3c-0.2-0.4-0.5-0.5-0.8-0.5c-2.2,0.9-5.1,1.5-8.7,2
		c-0.2,0.5-0.1,1.2,0.1,2c1.9,0.2,3.2,0.5,3.7,1c0.5,0.5,0.8,1.7,0.8,3.6v13.3c0,2.7-0.3,4.4-0.9,5.1c-0.6,0.6-2,1-4.3,1.2
		c-0.2,0.2-0.3,0.7-0.3,1.3c0,0.6,0.1,1,0.3,1.2c3.9-0.1,6.5-0.1,7.9-0.1c1.6,0,4.4,0,8.4,0.1c0.2-0.2,0.3-0.6,0.3-1.2
		c0-0.6-0.1-1-0.3-1.3c-2.5-0.2-4.1-0.6-4.7-1.2c-0.6-0.6-0.9-2.3-0.9-5v-9.5c0-1.4,0.6-2.9,1.7-4.6c1.6-2.2,2.6-3.3,3.2-3.3
		c0.7,0,1.1,0.2,1.5,0.5c0.1,0.1,0.3,0.3,0.5,0.6c0.3,0.3,0.5,0.5,0.6,0.7c0.2,0.2,0.4,0.3,0.7,0.5c0.3,0.2,0.6,0.3,1,0.3
		c0.8,0,1.6-0.4,2.2-1.1c0.7-0.7,1-1.5,1-2.4c0-0.8-0.4-1.5-1.1-2.2C413.5,557,412.5,556.6,411.2,556.6z M444,581.6
		c-3.1,4-7,6-11.8,6c-4.6,0-8.2-1.5-10.7-4.4c-2.2-2.5-3.3-5.9-3.3-10.2c0-4.9,1.5-8.8,4.4-11.8c3-3,6.1-4.5,9.5-4.5
		c7.8,0,11.7,4,11.7,12c0,0.8-0.4,1.2-1.3,1.2l-18.4-0.1c0,3.9,0.7,7,2.2,9.5c2,3.3,4.5,5,7.5,5c1.9,0,3.5-0.3,4.7-0.8
		c1.2-0.6,2.5-1.5,3.8-2.9C443.4,580.6,443.8,580.9,444,581.6z M424.5,567.3l12.5-0.2c0.7,0,1-0.3,1-0.9c0-2.5-0.6-4.3-1.7-5.4
		c-1.1-1.1-2.5-1.6-4-1.6c-0.6,0-1.2,0.1-1.8,0.2c-0.6,0.2-1.3,0.5-2.2,1c-0.9,0.5-1.6,1.3-2.3,2.5
		C425.3,564.1,424.8,565.6,424.5,567.3z"/>
	<path d="M481.4,584.6c0.2,0.2,0.3,0.7,0.3,1.3c0,0.6-0.1,1-0.3,1.2c-4-0.1-6.5-0.1-7.7-0.1c-1.3,0-3.9,0-7.8,0.1
		c-0.2-0.2-0.3-0.6-0.3-1.2c0-0.6,0.1-1,0.3-1.3c2.2-0.2,3.6-0.6,4.2-1.2c0.6-0.6,0.8-2.3,0.8-5.1V565c0-1.9-0.3-3.1-0.8-3.6
		c-0.5-0.5-1.8-0.8-3.7-1c-0.3-0.8-0.3-1.4-0.1-2c4.3-0.6,7.4-1.2,9.5-2c0.6,0,0.9,0.2,0.9,0.5c0,0.1,0,0.3,0,0.5
		c0,0.2,0,0.6-0.1,1.3s-0.1,1.3-0.1,1.9c0,0.6-0.1,1.3-0.1,2.1c0,0.8,0,1.5,0,2.1v13.6c0,2.7,0.3,4.4,0.8,5.1
		C477.9,584,479.2,584.4,481.4,584.6z M473.5,549.1c0.9,0,1.8-0.4,2.5-1.1c0.7-0.7,1.1-1.5,1.1-2.3c0-0.9-0.3-1.7-1-2.4
		c-0.7-0.8-1.4-1.1-2.3-1.1c-0.8,0-1.6,0.3-2.4,1c-0.8,0.7-1.2,1.4-1.2,2.3c0,0.9,0.3,1.7,1,2.5
		C471.9,548.8,472.7,549.1,473.5,549.1z M502.3,581.9c-1.7,1.3-3.6,2-5.7,2c-0.9,0-1.5-0.5-1.8-1.5c-0.3-1-0.5-2.7-0.5-4.9v-17.6
		h7.2c1.1,0,1.7-0.2,1.7-0.8v-1.3c0-0.3-0.2-0.4-0.5-0.4h-8.3v-2.7c0-3,0.1-5.4,0.3-7.3c0-0.4-0.2-0.6-0.5-0.6
		c-0.1,0-0.3,0.1-0.6,0.2c-0.3,0.1-0.7,0.3-1.1,0.5c-0.4,0.2-0.8,0.4-1,0.5c-0.2,0.1-0.5,0.2-0.9,0.3c-0.4,0.1-0.7,0.2-0.9,0.3
		c-0.2,0.1-0.4,0.2-0.6,0.3c-0.2,0.1-0.3,0.3-0.3,0.4c0,0.1,0,0.2,0,0.4c0,0.1,0,0.3,0.1,0.6c0,0.3,0,0.6,0.1,1.1s0,1.2,0.1,2.2
		c0,1,0,2.2,0,3.7h-3.2c-0.8,0-1.2,0.4-1.2,1.3v0.8c0,0.3,0.1,0.4,0.3,0.4h4.1v21c0,4.6,1.8,6.9,5.3,6.9c3.5,0,6.6-1.5,9.3-4.6
		C503.4,582.3,503,581.9,502.3,581.9z"/>
	<path d="M572.7,557.1c0.2,0.2,0.3,0.7,0.4,1.3c0,0.6-0.1,1-0.4,1.2c-1.6,0.1-2.8,0.5-3.6,1.3c-0.8,0.8-1.5,2-2.2,3.6l-9,21.8
		c-0.4,1-0.9,1.4-1.6,1.4c-0.7,0-1.2-0.5-1.7-1.4l-7.1-17l-7,16.9c-0.5,1-1,1.5-1.7,1.5c-0.7,0-1.2-0.5-1.7-1.4l-9.1-22.2
		c-0.7-1.8-1.4-3-2.1-3.5c-0.7-0.5-1.8-0.9-3.4-1.1c-0.2-0.2-0.3-0.6-0.4-1.2c0-0.6,0.1-1,0.4-1.3c2.4,0.1,4.4,0.1,6.1,0.1
		c1.4,0,3.8,0,7.2-0.1c0.2,0.2,0.3,0.7,0.3,1.3c0,0.6-0.1,1-0.3,1.2c-1.6,0.1-2.5,0.5-2.8,1.1c-0.3,0.7,0,1.8,0.7,3.5l5.5,14.1
		c0.3,0.8,0.6,1.3,0.7,1.4c0.2,0.2,0.3,0.2,0.5,0c0.2-0.2,0.4-0.7,0.7-1.5l4.9-12.2l-0.4-1.1c-0.1-0.2-0.2-0.4-0.3-0.6
		c-0.3-0.9-0.6-1.5-0.8-1.9c-0.2-0.4-0.5-0.8-0.9-1.3c-0.4-0.5-0.8-0.8-1.4-1.1c-0.5-0.2-1.2-0.4-2-0.4c-0.2-0.2-0.3-0.6-0.3-1.2
		c0-0.6,0.1-1,0.3-1.3c3.4,0.1,5.4,0.1,6.1,0.1c1.2,0,3.5,0,6.9-0.1c0.2,0.2,0.3,0.7,0.3,1.3c0,0.6-0.1,1-0.3,1.2
		c-1.8,0.1-2.8,0.5-3.1,1c-0.3,0.5-0.1,1.6,0.6,3.2l6,15c0.3,0.8,0.5,1.2,0.7,1.3c0.1,0,0.2-0.1,0.4-0.5c0,0,0.2-0.4,0.4-1.1
		l5.8-14.3c0.2-0.6,0.4-1.1,0.5-1.4c0.1-0.3,0.1-0.7,0.1-1.2c0-0.4-0.1-0.8-0.4-1s-0.7-0.5-1.3-0.7c-0.6-0.2-1.4-0.3-2.4-0.4
		c-0.2-0.2-0.3-0.6-0.3-1.2c0-0.6,0.1-1,0.3-1.3c3.4,0.1,5.8,0.1,7.2,0.1C568.8,557.3,570.4,557.2,572.7,557.1z M586.8,583.4
		c-0.6-0.6-0.8-2.3-0.8-5.1v-13.6c0-0.6,0-1.4,0-2.1c0-0.8,0-1.5,0.1-2.1c0-0.6,0.1-1.2,0.1-1.9s0-1.1,0.1-1.3c0-0.2,0-0.4,0-0.5
		c0-0.3-0.3-0.5-0.9-0.5c-2,0.8-5.2,1.4-9.5,2c-0.2,0.5-0.1,1.2,0.1,2c1.9,0.2,3.2,0.5,3.7,1c0.5,0.5,0.8,1.7,0.8,3.6v13.3
		c0,2.7-0.3,4.4-0.8,5.1c-0.6,0.6-1.9,1-4.2,1.2c-0.2,0.2-0.3,0.7-0.3,1.3c0,0.6,0.1,1,0.3,1.2c3.9-0.1,6.5-0.1,7.8-0.1
		c1.1,0,3.7,0,7.7,0.1c0.2-0.2,0.3-0.6,0.3-1.2c0-0.6-0.1-1-0.3-1.3C588.8,584.4,587.4,584,586.8,583.4z M583,549.1
		c0.9,0,1.8-0.4,2.5-1.1c0.7-0.7,1.1-1.5,1.1-2.3c0-0.9-0.3-1.7-1-2.4c-0.7-0.8-1.4-1.1-2.3-1.1c-0.8,0-1.6,0.3-2.4,1
		c-0.8,0.7-1.2,1.4-1.2,2.3c0,0.9,0.3,1.7,1,2.5C581.4,548.8,582.2,549.1,583,549.1z M611.8,581.9c-1.7,1.3-3.6,2-5.7,2
		c-0.9,0-1.5-0.5-1.8-1.5c-0.3-1-0.5-2.7-0.5-4.9v-17.6h7.2c1.1,0,1.7-0.2,1.7-0.8v-1.3c0-0.3-0.2-0.4-0.5-0.4h-8.3v-2.7
		c0-3,0.1-5.4,0.3-7.3c0-0.4-0.2-0.6-0.5-0.6c-0.1,0-0.3,0.1-0.6,0.2c-0.3,0.1-0.7,0.3-1.1,0.5c-0.4,0.2-0.8,0.4-1,0.5
		c-0.2,0.1-0.5,0.2-0.9,0.3c-0.4,0.1-0.7,0.2-0.9,0.3c-0.2,0.1-0.4,0.2-0.6,0.3c-0.2,0.1-0.3,0.3-0.3,0.4c0,0.1,0,0.2,0,0.4
		c0,0.1,0,0.3,0.1,0.6c0,0.3,0,0.6,0.1,1.1s0,1.2,0.1,2.2c0,1,0,2.2,0,3.7h-3.2c-0.8,0-1.2,0.4-1.2,1.3v0.8c0,0.3,0.1,0.4,0.3,0.4
		h4.1v21c0,4.6,1.8,6.9,5.3,6.9c3.5,0,6.6-1.5,9.3-4.6C612.9,582.3,612.5,581.9,611.8,581.9z M650.2,584.6c-2-0.2-3.3-0.6-3.8-1.3
		c-0.5-0.6-0.8-2.3-0.8-5v-10.2c0-4.5-0.6-7.6-1.9-9.2c-1.2-1.6-3.1-2.3-5.7-2.3c-4.5,0-8.4,1.9-11.8,5.6c-0.4,0.5-0.6,0.5-0.7,0
		l0.1-15.6c0-3,0.1-5.4,0.3-7.3c0-0.5-0.3-0.7-0.9-0.7c-2.4,0.9-5.6,1.6-9.7,1.9c-0.2,0.9-0.1,1.5,0.4,2.1c1.2,0.1,2,0.1,2.3,0.2
		c0.3,0,0.7,0.2,1.2,0.6c0.5,0.3,0.8,0.9,0.9,1.6c0.1,0.7,0.1,1.8,0.1,3.3v30.1c0,1.5-0.1,2.6-0.2,3.4c-0.1,0.8-0.4,1.4-0.8,1.8
		c-0.4,0.4-0.9,0.7-1.4,0.8c-0.5,0.1-1.3,0.2-2.5,0.3c-0.2,0.2-0.3,0.6-0.3,1.2c0,0.6,0.1,1,0.3,1.2c3.8-0.1,6.3-0.1,7.6-0.1
		c0.7,0,2.9,0,6.8,0.1c0.2-0.2,0.3-0.6,0.3-1.2c0-0.6-0.1-1-0.3-1.2c-1.3-0.1-2.2-0.3-2.7-0.5c-0.5-0.2-0.9-0.8-1.1-1.6
		s-0.4-2.2-0.4-4.1v-11.2c0-1.1,0.4-2,1.2-2.9c2.8-2.7,5.7-4,8.8-4c1.6,0,2.8,0.8,3.7,2.5c0.5,1.1,0.8,2.9,0.8,5.3v10.4
		c0,2.7-0.2,4.4-0.7,5c-0.5,0.6-1.7,1.1-3.6,1.2c-0.2,0.2-0.3,0.7-0.3,1.3c0,0.6,0.1,1,0.3,1.2c3.9-0.1,6.2-0.1,7.1-0.1
		c0.9,0,3.4,0,7.3,0.1c0.2-0.2,0.3-0.7,0.3-1.3C650.5,585.2,650.4,584.8,650.2,584.6z"/>
	<path d="M373.6,178.9c0.2,0.2,0.3,0.6,0.3,1.2c0,0.6-0.1,1-0.3,1.2c-1.7,0.1-3,0.5-3.8,1.1c-0.8,0.7-1.4,1.6-1.9,2.9l-13,35.7
		c-0.3,1-0.9,1.5-1.8,1.5c-1,0-1.7-0.5-2.1-1.6l-7.8-23.4c-0.4-1.2-0.7-1.8-0.9-1.8c-0.3,0-0.6,0.5-0.9,1.6l-9.2,23.6
		c-0.4,1.1-1,1.6-1.8,1.6c-1,0-1.7-0.5-2-1.6l-12.1-36c-0.6-1.6-1.1-2.6-1.7-2.9c-0.5-0.4-1.6-0.6-3.2-0.7c-0.2-0.2-0.3-0.6-0.3-1.2
		c0-0.6,0.1-1,0.3-1.2c3.5,0.1,5.6,0.1,6.2,0.1c2.1,0,4.5,0,7.5-0.1c0.2,0.2,0.3,0.6,0.3,1.2c0,0.6-0.1,1-0.3,1.2
		c-0.9,0-1.6,0.1-2.1,0.2c-0.5,0.1-0.9,0.4-1.1,0.7s-0.3,0.9-0.1,1.6l9.9,30.5h0.1l8.3-21.8c0.3-0.8,0.5-1.7,0.5-2.5
		c0-0.6-0.1-1.2-0.3-1.8l-1-3.1c-0.3-1-0.9-1.9-1.9-2.7s-2.3-1.2-3.8-1.3c-0.2-0.2-0.3-0.6-0.3-1.2c0-0.6,0.1-1,0.3-1.2
		c3.5,0.1,5.7,0.1,6.6,0.1c1.2,0,3.9,0,8.1-0.1c0.2,0.2,0.3,0.6,0.3,1.2c0,0.6-0.1,1-0.3,1.2c-0.6,0-1.1,0.1-1.4,0.1
		c-0.3,0-0.7,0.1-1.1,0.3c-0.5,0.2-0.8,0.4-0.9,0.6c-0.1,0.2-0.2,0.6-0.4,1.1c-0.2,0.5-0.1,1.1,0.3,1.8l9.5,29.4h0.1l10.5-30.1
		c0.1-0.4,0.2-0.7,0.2-1c0-0.3,0-0.6-0.1-0.8c-0.1-0.2-0.3-0.4-0.5-0.6c-0.3-0.2-0.5-0.3-0.7-0.4c-0.2-0.1-0.5-0.2-1-0.2
		c-0.4-0.1-0.8-0.1-1.1-0.1c-0.3,0-0.7-0.1-1.1-0.1c-0.2-0.2-0.3-0.6-0.3-1.2c0-0.6,0.1-1,0.3-1.2c3.5,0.1,6,0.1,7.3,0.1
		C368.4,179.1,370.3,179,373.6,178.9z M405.1,218.3c-0.5-0.6-0.8-2.2-0.8-4.8v-9.8c0-4.3-0.6-7.3-1.8-8.8c-1.1-1.5-3-2.2-5.5-2.2
		c-4.3,0-8.1,1.8-11.3,5.4c-0.4,0.5-0.6,0.5-0.6,0l0.1-14.9c0-2.9,0.1-5.2,0.3-6.9c0-0.5-0.3-0.7-0.8-0.7c-2.3,0.9-5.4,1.5-9.3,1.8
		c-0.2,0.8-0.1,1.5,0.4,2c1.2,0.1,1.9,0.1,2.2,0.2c0.3,0,0.6,0.2,1.1,0.5c0.5,0.3,0.8,0.8,0.8,1.5c0.1,0.7,0.1,1.8,0.1,3.2v28.8
		c0,1.4,0,2.5-0.1,3.2c-0.1,0.7-0.4,1.3-0.8,1.7c-0.4,0.4-0.9,0.7-1.3,0.8c-0.5,0.1-1.3,0.2-2.4,0.3c-0.2,0.2-0.3,0.6-0.3,1.2
		c0,0.6,0.1,1,0.3,1.2c3.6-0.1,6.1-0.1,7.3-0.1c0.6,0,2.8,0,6.5,0.1c0.2-0.2,0.3-0.6,0.3-1.2c0-0.6-0.1-1-0.3-1.2
		c-1.2-0.1-2.1-0.3-2.6-0.5c-0.5-0.2-0.8-0.7-1.1-1.5c-0.2-0.8-0.3-2.1-0.3-4v-10.8c0-1,0.4-1.9,1.1-2.8c2.7-2.6,5.5-3.9,8.5-3.9
		c1.6,0,2.7,0.8,3.5,2.4c0.5,1,0.8,2.7,0.8,5.1v10c0,2.6-0.2,4.2-0.7,4.8c-0.5,0.6-1.6,1-3.4,1.2c-0.2,0.2-0.3,0.6-0.3,1.2
		s0.1,1,0.3,1.2c3.7-0.1,6-0.1,6.8-0.1c0.9,0,3.2,0,7,0.1c0.2-0.2,0.3-0.6,0.3-1.2s-0.1-1-0.3-1.2
		C406.8,219.3,405.6,218.9,405.1,218.3z M439.6,218.7c0.2,0.3,0.3,0.5,0.3,0.7c0,0.1-0.2,0.4-0.7,0.9c-0.5,0.5-1.2,0.9-2.1,1.4
		c-0.9,0.5-1.9,0.7-2.8,0.7c-2.7,0-4.4-1.2-5.2-3.8H429l-1.3,1c-1.5,1.1-2.7,1.9-3.6,2.2c-0.9,0.4-2.1,0.5-3.6,0.5
		c-2.6,0-4.6-0.6-6.2-1.7c-1.6-1.1-2.3-2.9-2.3-5.4c0-2.2,1-4.1,3.1-5.8c2.1-1.7,4.7-2.9,8-3.7l5.7-1.4c0.3-0.1,0.4-0.3,0.4-0.8
		c0-5.6-1.8-8.5-5.4-8.5c-1.5,0-2.7,0.2-3.8,0.7s-1.6,1.1-1.6,2c0,0.6,0,1,0.1,1.3c0.1,0.3,0.2,0.6,0.2,1.2c0,0.5-0.3,1-0.8,1.4
		c-0.5,0.5-1.2,0.7-2.1,0.7c-1.6,0-2.3-0.8-2.3-2.3c0-1.8,1.1-3.5,3.4-5c2.3-1.5,4.8-2.3,7.5-2.3c6.7,0,10,3.8,10,11.3v9.8
		c0,1.3,0,2.2,0.1,2.9c0.1,0.7,0.3,1.3,0.7,1.8c0.4,0.6,1,0.9,1.8,0.9c0.5,0,1-0.2,1.4-0.5c0.4-0.3,0.6-0.5,0.6-0.5
		C439.2,218.3,439.4,218.5,439.6,218.7z M429.1,206.3l-5.2,1.3c-4.2,1.1-6.3,3.5-6.2,7.3c0,1.2,0.4,2.3,1.2,3.3c0.8,1,2,1.5,3.5,1.5
		c1.5,0,3.5-1,5.8-2.9c0.6-0.4,0.9-1,0.9-1.7V206.3z M458.7,216.9c-1.6,1.3-3.4,1.9-5.4,1.9c-0.8,0-1.4-0.5-1.7-1.5
		c-0.3-1-0.5-2.5-0.5-4.7v-16.9h6.9c1.1,0,1.6-0.2,1.6-0.8v-1.2c0-0.3-0.2-0.4-0.5-0.4h-8v-2.6c0-2.9,0.1-5.2,0.3-7
		c0-0.4-0.2-0.6-0.5-0.6c-0.1,0-0.3,0.1-0.6,0.2c-0.3,0.1-0.6,0.3-1,0.5c-0.4,0.2-0.7,0.4-1,0.5c-0.2,0.1-0.5,0.2-0.9,0.3
		c-0.4,0.1-0.6,0.2-0.8,0.3c-0.2,0.1-0.4,0.2-0.6,0.3c-0.2,0.1-0.3,0.3-0.3,0.4c0,0.1,0,0.2,0,0.4c0,0.1,0,0.3,0,0.6
		c0,0.3,0,0.6,0.1,1.1c0,0.5,0,1.2,0,2.2c0,1,0,2.2,0,3.5h-3c-0.8,0-1.2,0.4-1.2,1.2v0.8c0,0.2,0.1,0.4,0.3,0.4h3.9v20.1
		c0,4.4,1.7,6.6,5.1,6.6c3.3,0,6.3-1.5,8.9-4.4C459.8,217.3,459.4,216.9,458.7,216.9z"/>
	<path d="M495.9,219.5c0.2,0.2,0.3,0.6,0.3,1.2s-0.1,1-0.3,1.2c-4.4-0.1-7.3-0.1-8.6-0.1c-1.4,0-4.3,0-8.6,0.1
		c-0.2-0.2-0.3-0.6-0.3-1.2s0.1-1,0.3-1.2c2.5-0.1,4-0.4,4.7-1.1c0.7-0.6,1-2.3,1-4.9v-26.3c0-2.6-0.3-4.2-1-4.9
		c-0.7-0.6-2.2-1-4.7-1.1c-0.2-0.2-0.3-0.6-0.3-1.2c0-0.6,0.1-1,0.3-1.2c4.4,0.1,7.2,0.1,8.5,0.1c1.4,0,4.3,0,8.6-0.1
		c0.2,0.2,0.3,0.6,0.3,1.2c0,0.6-0.1,1-0.3,1.2c-2.5,0.1-4.1,0.4-4.7,1.1c-0.7,0.6-1,2.3-1,4.9v26.3c0,2.6,0.3,4.3,1,4.9
		C491.9,219,493.4,219.4,495.9,219.5z"/>
	<path d="M530,219.5c0.2,0.2,0.3,0.6,0.3,1.2s-0.1,1-0.3,1.2c-3.8-0.1-6.2-0.1-7.4-0.1c-1.2,0-3.7,0-7.4,0.1
		c-0.2-0.2-0.3-0.6-0.3-1.2s0.1-1,0.3-1.2c2.1-0.1,3.4-0.5,3.9-1.1c0.6-0.6,0.8-2.3,0.8-4.9v-28.8c0-1.4,0-2.5-0.1-3.2
		c-0.1-0.7-0.4-1.2-0.8-1.5c-0.5-0.3-0.9-0.5-1.1-0.5c-0.3,0-1-0.1-2.2-0.2c-0.5-0.5-0.6-1.2-0.4-2c3.9-0.3,7-0.9,9.3-1.8
		c0.6,0,0.9,0.2,0.9,0.7c-0.2,1.8-0.3,4.1-0.3,6.9v30.4c0,2.6,0.3,4.3,0.8,4.9C526.6,219,527.9,219.4,530,219.5z M560.5,200.6
		c0.9,2.2,1.3,4.5,1.3,7c0,4.6-1.4,8.3-4.3,11.1c-2.5,2.5-5.8,3.7-9.7,3.7c-4.4,0-7.8-1.4-10.3-4.3s-3.6-6.2-3.6-9.9
		c0-4.4,1.2-8,3.7-10.9c2.6-3.1,6.1-4.6,10.4-4.6c3.2,0,5.8,0.8,8,2.3S559.6,198.5,560.5,200.6z M556.1,209.7
		c0-4.7-0.8-8.3-2.5-10.8c-1.6-2.5-3.9-3.8-6.8-3.8c-4.9,0-7.3,3.9-7.3,11.6c0,1.4,0.2,2.8,0.5,4.3c0.3,1.4,0.8,2.9,1.5,4.3
		c0.7,1.4,1.6,2.6,2.8,3.5c1.2,0.9,2.7,1.3,4.3,1.3c1.9,0,3.7-0.8,5.2-2.4C555.3,216.1,556.1,213.4,556.1,209.7z M591.9,193.3
		c-1,0-3.1,0-6.4-0.1c-0.2,0.3-0.4,0.7-0.3,1.3c0,0.6,0.1,1,0.3,1.1c1.8,0.1,2.8,0.5,3.1,1c0.3,0.6,0.1,1.7-0.6,3.4l-5.3,12.9
		c-0.5,1.3-0.9,1.9-1.2,1.9c-0.3-0.1-0.7-0.8-1.2-2.1l-4.8-12.7c-0.1-0.2-0.2-0.6-0.4-1.1s-0.3-0.8-0.3-0.9c0-0.1-0.1-0.4-0.2-0.7
		c-0.1-0.3-0.1-0.5,0-0.6c0.1-0.1,0.2-0.2,0.3-0.4s0.3-0.3,0.5-0.4c0.3-0.1,0.6-0.1,0.9-0.2c0.4-0.1,0.8-0.1,1.3-0.2
		c0.2-0.2,0.3-0.6,0.3-1.2c0-0.6-0.1-1-0.3-1.2c-3.3,0.1-5.6,0.1-7,0.1c-0.6,0-2.5,0-5.8-0.1c-0.2,0.3-0.4,0.7-0.3,1.3
		c0,0.6,0.1,1,0.3,1.1c1.7,0.2,2.8,0.5,3.3,1.1c0.5,0.5,1.1,1.6,1.8,3.1c0.1,0.2,0.2,0.4,0.2,0.6l8.5,20.8c0.3,0.9,0.9,1.4,1.6,1.4
		c0.6,0,1.2-0.5,1.6-1.5l8.8-20.6c0.4-0.9,0.7-1.6,0.9-2c0.2-0.4,0.5-0.9,1-1.4c0.4-0.5,0.9-0.9,1.5-1.1c0.6-0.2,1.3-0.4,2.2-0.4
		c0.2-0.2,0.4-0.6,0.3-1.2c0-0.6-0.1-1-0.3-1.2C594.4,193.3,592.9,193.3,591.9,193.3z M623.5,216.7c-3,3.8-6.7,5.8-11.3,5.8
		c-4.4,0-7.8-1.4-10.2-4.2c-2.1-2.4-3.1-5.7-3.1-9.8c0-4.7,1.4-8.4,4.2-11.3c2.8-2.8,5.9-4.3,9.1-4.3c7.5,0,11.2,3.8,11.2,11.5
		c0,0.8-0.4,1.2-1.2,1.2l-17.6-0.1c0,3.7,0.7,6.7,2.1,9.1c1.9,3.2,4.3,4.8,7.2,4.8c1.9,0,3.4-0.3,4.5-0.8c1.2-0.5,2.4-1.4,3.7-2.8
		C622.9,215.7,623.3,216,623.5,216.7z M604.8,202.9l12-0.2c0.7,0,1-0.3,1-0.9c0-2.4-0.5-4.1-1.6-5.2c-1.1-1-2.4-1.5-3.9-1.5
		c-0.6,0-1.2,0.1-1.7,0.2c-0.6,0.1-1.2,0.5-2.1,0.9c-0.8,0.5-1.6,1.3-2.2,2.4C605.6,199.9,605.1,201.3,604.8,202.9z"/>
	<path d="M307.7,286.1c0.2,0.2,0.3,0.6,0.3,1.2s-0.1,1-0.3,1.2c-3.8-0.1-6.1-0.1-6.8-0.1c-0.8,0-3.1,0-6.8,0.1
		c-0.2-0.2-0.3-0.6-0.3-1.2s0.1-1,0.3-1.2c1.8-0.1,2.9-0.5,3.4-1.2c0.5-0.6,0.7-2.3,0.7-4.8v-11.5c0-2.1-0.3-3.6-1-4.5
		c-0.7-0.9-1.6-1.4-3-1.4c-3.2,0-6.1,1.5-8.8,4.4c0,0.5,0.1,1.4,0.1,2.6v10.4c0,2.6,0.2,4.2,0.7,4.9c0.4,0.6,1.5,1,3.3,1.1
		c0.2,0.2,0.3,0.6,0.3,1.2s-0.1,1-0.3,1.2c-3.8-0.1-6-0.1-6.5-0.1c-0.8,0-3,0-6.7,0.1c-0.2-0.2-0.3-0.6-0.3-1.2s0.1-1,0.3-1.2
		c1.9-0.1,3-0.5,3.4-1.1c0.4-0.6,0.7-2.2,0.7-4.9v-11.4c0-4-1.5-6-4.4-6c-2.1,0-4.5,1.3-7.1,3.9c-0.8,0.8-1.1,1.7-1.1,2.8v10.8
		c0,1.8,0.1,3.1,0.3,3.9c0.2,0.8,0.6,1.3,1,1.5s1.3,0.4,2.6,0.6c0.2,0.2,0.3,0.6,0.3,1.2c0,0.6-0.1,1-0.3,1.2
		c-3.7-0.1-5.9-0.1-6.6-0.1c-1.1,0-3.5,0-7.1,0.1c-0.2-0.2-0.3-0.6-0.3-1.2s0.1-1,0.3-1.2c1.9-0.1,3.2-0.5,3.7-1.2
		c0.5-0.6,0.8-2.3,0.8-4.8v-12.8c0-1.8-0.3-3-0.8-3.5c-0.5-0.5-1.7-0.8-3.6-1c-0.3-0.8-0.3-1.4-0.1-1.9c3.5-0.4,6.2-1.1,8.4-1.9
		c0.3,0,0.6,0.2,0.8,0.5c0.3,0.8,0.5,2.5,0.5,5c0,0.5,0.2,0.6,0.5,0.2c0.1-0.1,0.1-0.1,0.2-0.2c3.4-3.6,6.7-5.4,10-5.4
		c1.7,0,3.1,0.5,4.3,1.4c1.2,0.9,2,2.1,2.3,3.5c0.1,0.4,0.3,0.4,0.7,0c1.1-1.2,2.3-2.1,3.6-2.9c1.3-0.8,2.6-1.3,3.8-1.6
		c1.2-0.3,2.4-0.4,3.6-0.4c2.7,0,4.5,0.9,5.4,2.7c0.9,1.8,1.4,4.4,1.4,7.8v10.3c0,2.6,0.2,4.2,0.7,4.9
		C304.6,285.6,305.8,286,307.7,286.1z M337.9,267.2c0.9,2.2,1.3,4.5,1.3,7c0,4.6-1.4,8.3-4.3,11.1c-2.5,2.5-5.8,3.7-9.7,3.7
		c-4.4,0-7.8-1.4-10.3-4.3s-3.6-6.2-3.6-9.9c0-4.4,1.2-8,3.7-10.9c2.6-3.1,6.1-4.6,10.4-4.6c3.2,0,5.8,0.8,8,2.3
		S337.1,265.1,337.9,267.2z M333.5,276.3c0-4.7-0.8-8.3-2.5-10.8c-1.6-2.5-3.9-3.8-6.8-3.8c-4.9,0-7.3,3.9-7.3,11.6
		c0,1.4,0.2,2.8,0.5,4.3c0.3,1.4,0.8,2.9,1.5,4.3c0.7,1.4,1.6,2.6,2.8,3.5c1.2,0.9,2.7,1.3,4.3,1.3c1.9,0,3.7-0.8,5.2-2.4
		C332.8,282.7,333.5,280,333.5,276.3z M357.4,271.9c-1-0.4-1.8-0.7-2.3-0.9c-0.5-0.2-1.1-0.5-1.7-0.8c-0.7-0.4-1.2-0.7-1.5-1.1
		c-0.3-0.3-0.6-0.8-0.8-1.4c-0.2-0.6-0.4-1.2-0.4-1.9c0-1.3,0.5-2.3,1.4-3c1-0.8,2-1.1,3.2-1.1c0.5,0,1,0.1,1.5,0.2
		c0.5,0.1,1.1,0.4,1.8,0.7c0.7,0.4,1.3,1,1.8,1.8s0.9,1.9,1.1,3.2c0.2,0.2,0.6,0.3,1.1,0.3c0.5,0,0.9-0.1,1.1-0.3
		c0-0.9,0.1-2.1,0.2-3.7c0.1-1.6,0.2-2.7,0.2-3.3c-0.3,0-1-0.2-2.2-0.4c-1.2-0.2-2.3-0.4-3.4-0.6c-1.1-0.2-2.1-0.2-3.2-0.2
		c-2.5,0-4.7,0.7-6.6,2.2c-1.9,1.5-2.8,3.2-2.8,5.3c0,2.3,0.5,4.1,1.6,5.4c1.1,1.3,3,2.4,5.6,3.5c2.7,1.1,4.5,2.1,5.4,2.9
		s1.4,2,1.4,3.5c0,1.5-0.6,2.6-1.7,3.4c-1.2,0.8-2.5,1.2-3.9,1.2c-2.2,0-3.7-0.5-4.7-1.6c-1-0.9-1.8-2.9-2.6-6
		c-0.2-0.2-0.6-0.3-1-0.3c-0.5,0-0.8,0.1-1,0.3c0.3,3.8,0.5,6.9,0.5,9.3c0.7-0.1,1.2-0.2,1.6-0.2c0.6,0,1,0,1.3,0.1
		c1.9,0.5,3.9,0.7,6,0.7c1.1,0,2.2-0.1,3.3-0.4c1.1-0.3,2.3-0.7,3.4-1.3c1.2-0.6,2.1-1.5,2.9-2.7c0.7-1.2,1.1-2.5,1.1-4.1
		C365.3,276.7,362.7,273.8,357.4,271.9z M386.5,283.5c-1.6,1.3-3.4,1.9-5.4,1.9c-0.8,0-1.4-0.5-1.7-1.5c-0.3-1-0.5-2.5-0.5-4.7
		v-16.9h6.9c1.1,0,1.6-0.2,1.6-0.8v-1.2c0-0.3-0.2-0.4-0.5-0.4h-8v-2.6c0-2.9,0.1-5.2,0.3-7c0-0.4-0.2-0.6-0.5-0.6
		c-0.1,0-0.3,0.1-0.6,0.2c-0.3,0.1-0.6,0.3-1,0.5c-0.4,0.2-0.7,0.4-1,0.5c-0.2,0.1-0.5,0.2-0.9,0.3c-0.4,0.1-0.6,0.2-0.8,0.3
		c-0.2,0.1-0.4,0.2-0.6,0.3c-0.2,0.1-0.3,0.3-0.3,0.4c0,0.1,0,0.2,0,0.4c0,0.1,0,0.3,0,0.6c0,0.3,0,0.6,0.1,1.1c0,0.5,0,1.2,0,2.2
		c0,1,0,2.2,0,3.5h-3c-0.8,0-1.2,0.4-1.2,1.2v0.8c0,0.2,0.1,0.4,0.3,0.4h3.9v20.1c0,4.4,1.7,6.6,5.1,6.6c3.3,0,6.3-1.5,8.9-4.4
		C387.6,283.9,387.2,283.6,386.5,283.5z"/>
	<path d="M434.6,285c0,0-0.3,0.2-0.6,0.5c-0.4,0.3-0.9,0.5-1.4,0.5c-0.8,0-1.4-0.3-1.8-0.9c-0.4-0.6-0.7-1.2-0.7-1.8
		c-0.1-0.7-0.1-1.6-0.1-2.9v-9.8c0-7.5-3.3-11.3-10-11.3c-2.7,0-5.2,0.8-7.5,2.3c-2.3,1.5-3.4,3.2-3.4,5c0,1.6,0.7,2.3,2.3,2.3
		c0.9,0,1.6-0.2,2.1-0.7c0.5-0.5,0.8-1,0.8-1.4c0-0.5-0.1-0.9-0.2-1.2c-0.1-0.2-0.1-0.7-0.1-1.3c0-0.9,0.5-1.6,1.6-2
		s2.4-0.7,3.8-0.7c3.6,0,5.4,2.8,5.4,8.5c0,0.4-0.1,0.7-0.4,0.8l-5.7,1.4c-3.3,0.8-5.9,2.1-8,3.7c-2.1,1.7-3.1,3.6-3.1,5.8
		c0,2.5,0.8,4.3,2.3,5.4c1.6,1.1,3.6,1.7,6.2,1.7c1.5,0,2.7-0.2,3.6-0.5c0.9-0.4,2.1-1.1,3.6-2.2l1.3-1h0.1c0.8,2.6,2.5,3.8,5.2,3.8
		c1,0,1.9-0.2,2.8-0.7c0.9-0.5,1.6-0.9,2.1-1.4c0.5-0.5,0.7-0.8,0.7-0.9c0-0.2-0.1-0.5-0.3-0.7C434.9,285.1,434.7,285,434.6,285z
		 M424.6,281.8c0,0.7-0.3,1.3-0.9,1.7c-2.3,1.9-4.3,2.9-5.8,2.9c-1.5,0-2.7-0.5-3.5-1.5c-0.8-1-1.2-2.1-1.2-3.3c0-3.8,2-6.2,6.2-7.3
		l5.2-1.3V281.8z M453.9,259.3c-2.7,0-5.2,1-7.4,3c-0.4,0.4-0.6,0.3-0.6-0.3v-12.2c0-2.9,0.1-5.2,0.3-7c0-0.5-0.3-0.7-0.9-0.7
		c-2.3,0.9-5.4,1.5-9.3,1.8c-0.2,0.8-0.1,1.5,0.4,2c1.2,0.1,1.9,0.1,2.2,0.2c0.3,0,0.6,0.2,1.1,0.5c0.5,0.3,0.8,0.9,0.8,1.6
		c0.1,0.7,0.1,1.8,0.1,3.2v32.3c0,2.3-0.1,3.8-0.3,4.7c0.3,0.5,0.8,0.8,1.5,0.8c0.2-0.3,0.4-0.4,0.5-0.5c0.1-0.1,0.3-0.3,0.5-0.5
		c0.2-0.3,0.4-0.5,0.6-0.7c0.3-0.4,0.6-0.6,0.9-0.6c0.2,0,0.6,0.1,0.9,0.5c1.3,1.2,3.2,1.7,5.8,1.7c3.7,0,7-1.6,10.1-4.7
		s4.6-7.1,4.6-12.1c0-3.8-1.2-6.9-3.6-9.3C459.7,260.5,457,259.3,453.9,259.3z M457.6,283c-1.6,2.4-3.9,3.6-7,3.6
		c-1.5,0-3.1-1-4.8-3.1v-16.5c0-1.2,0.3-2.1,1.1-2.8c1.6-1.4,3.5-2.1,5.6-2.1c2,0,3.8,1.1,5.2,3.3c1.4,2.2,2.2,4.8,2.2,8
		C460,277.4,459.2,280.6,457.6,283z M493.2,261.6c-2.2-1.6-4.9-2.3-8-2.3c-4.3,0-7.8,1.5-10.4,4.6c-2.4,2.9-3.7,6.5-3.7,10.9
		c0,3.8,1.2,7.1,3.6,9.9s5.8,4.3,10.3,4.3c4,0,7.2-1.2,9.7-3.7c2.9-2.8,4.3-6.5,4.3-11.1c0-2.5-0.4-4.8-1.3-7
		C496.9,265.1,495.4,263.2,493.2,261.6z M491.2,284.3c-1.5,1.6-3.2,2.4-5.2,2.4c-1.6,0-3.1-0.4-4.3-1.3c-1.2-0.9-2.2-2.1-2.8-3.5
		c-0.7-1.4-1.2-2.8-1.5-4.3c-0.3-1.4-0.5-2.9-0.5-4.3c0-7.7,2.4-11.6,7.3-11.6c2.9,0,5.1,1.3,6.8,3.8c1.6,2.5,2.5,6.1,2.5,10.8
		C493.4,280,492.7,282.7,491.2,284.3z M535.9,284.6c0.2,0.2,0.3,0.5,0.3,0.9s-0.1,0.7-0.3,0.9c-3.7,0.4-6.4,1.3-8,2.6
		c-0.5,0.1-0.9,0.1-1.3,0c-0.5-1.6-0.7-2.9-0.7-3.9c0-0.5-0.3-0.5-0.8-0.1c-3.2,2.6-6.2,3.9-9,3.9c-3,0-5.2-0.8-6.5-2.5
		c-1.3-1.7-2-3.8-2-6.4v-12.6c0-2.1-0.3-3.4-0.8-4.1c-0.5-0.7-1.6-1.1-3.3-1.2c-0.2-0.2-0.3-0.6-0.3-1.1c0-0.6,0.1-1,0.3-1.3
		c3.3,0.1,5.5,0.1,6.8,0.1c1.1,0,1.9,0,2.3-0.1c0.3,0,0.5,0.2,0.5,0.5c-0.2,3.2-0.3,5.5-0.3,6.8v12c0,2.6,0.5,4.4,1.6,5.4
		c1.1,1,2.3,1.5,3.7,1.5c2,0,4.2-1,6.6-3.1c0.7-0.6,1.1-1.5,1-2.6v-12.7c0-2.1-0.3-3.5-0.8-4.2c-0.5-0.7-1.6-1.1-3.3-1.2
		c-0.2-0.2-0.3-0.6-0.3-1.1c0-0.6,0.1-1,0.3-1.3c3.3,0.1,5.5,0.1,6.8,0.1c1.1,0,1.9,0,2.3-0.1c0.3,0,0.5,0.2,0.5,0.5
		c-0.2,3.2-0.3,5.5-0.3,6.8v12.7c0,1.7,0.3,2.9,0.9,3.6C532.6,284,533.9,284.4,535.9,284.6z M556.9,284.7c-2.6,2.9-5.6,4.4-8.9,4.4
		c-3.4,0-5.1-2.2-5.1-6.6v-20.1h-3.9c-0.2,0-0.3-0.1-0.3-0.4v-0.8c0-0.8,0.4-1.2,1.2-1.2h3c0-1.4,0-2.5,0-3.5c0-1,0-1.7,0-2.2
		c0-0.5,0-0.8-0.1-1.1c0-0.3,0-0.5,0-0.6c0-0.1,0-0.2,0-0.4c0-0.2,0.1-0.3,0.3-0.4c0.2-0.1,0.4-0.2,0.6-0.3c0.2-0.1,0.5-0.2,0.8-0.3
		c0.4-0.1,0.6-0.2,0.9-0.3c0.3-0.1,0.6-0.3,1-0.5c0.4-0.2,0.8-0.4,1-0.5c0.3-0.1,0.5-0.2,0.6-0.2c0.3,0,0.5,0.2,0.5,0.6
		c-0.2,1.8-0.3,4.1-0.3,7v2.6h8c0.3,0,0.5,0.1,0.5,0.4v1.2c0,0.5-0.5,0.8-1.6,0.8h-6.9v16.9c0,2.2,0.2,3.7,0.5,4.7
		c0.3,1,0.9,1.5,1.7,1.5c2,0,3.8-0.6,5.4-1.9C556.4,283.6,556.8,283.9,556.9,284.7z"/>
	<path d="M625.9,286.1c0.2,0.2,0.3,0.6,0.3,1.2s-0.1,1-0.3,1.2c-3.8-0.1-6.1-0.1-6.8-0.1c-0.8,0-3.1,0-6.8,0.1
		c-0.2-0.2-0.3-0.6-0.3-1.2s0.1-1,0.3-1.2c1.8-0.1,2.9-0.5,3.4-1.2c0.5-0.6,0.7-2.3,0.7-4.8v-11.5c0-2.1-0.3-3.6-1-4.5
		c-0.7-0.9-1.6-1.4-3-1.4c-3.2,0-6.1,1.5-8.8,4.4c0,0.5,0.1,1.4,0.1,2.6v10.4c0,2.6,0.2,4.2,0.7,4.9c0.4,0.6,1.5,1,3.3,1.1
		c0.2,0.2,0.3,0.6,0.3,1.2s-0.1,1-0.3,1.2c-3.8-0.1-6-0.1-6.5-0.1c-0.8,0-3,0-6.7,0.1c-0.2-0.2-0.3-0.6-0.3-1.2s0.1-1,0.3-1.2
		c1.9-0.1,3-0.5,3.4-1.1c0.4-0.6,0.7-2.2,0.7-4.9v-11.4c0-4-1.5-6-4.4-6c-2.1,0-4.5,1.3-7.1,3.9c-0.8,0.8-1.1,1.7-1.1,2.8v10.8
		c0,1.8,0.1,3.1,0.3,3.9c0.2,0.8,0.6,1.3,1,1.5s1.3,0.4,2.6,0.6c0.2,0.2,0.3,0.6,0.3,1.2c0,0.6-0.1,1-0.3,1.2
		c-3.7-0.1-5.9-0.1-6.6-0.1c-1.1,0-3.5,0-7.1,0.1c-0.2-0.2-0.3-0.6-0.3-1.2s0.1-1,0.3-1.2c1.9-0.1,3.2-0.5,3.7-1.2
		c0.5-0.6,0.8-2.3,0.8-4.8v-12.8c0-1.8-0.3-3-0.8-3.5c-0.5-0.5-1.7-0.8-3.6-1c-0.3-0.8-0.3-1.4-0.1-1.9c3.5-0.4,6.2-1.1,8.4-1.9
		c0.3,0,0.6,0.2,0.8,0.5c0.3,0.8,0.5,2.5,0.5,5c0,0.5,0.2,0.6,0.5,0.2c0.1-0.1,0.1-0.1,0.2-0.2c3.4-3.6,6.7-5.4,10-5.4
		c1.7,0,3.1,0.5,4.3,1.4c1.2,0.9,2,2.1,2.3,3.5c0.1,0.4,0.3,0.4,0.7,0c1.1-1.2,2.3-2.1,3.6-2.9c1.3-0.8,2.6-1.3,3.8-1.6
		c1.2-0.3,2.4-0.4,3.6-0.4c2.7,0,4.5,0.9,5.4,2.7c0.9,1.8,1.4,4.4,1.4,7.8v10.3c0,2.6,0.2,4.2,0.7,4.9
		C622.8,285.6,624,286,625.9,286.1z M660.1,259.8c-2.2,0.1-3.8,0.1-4.7,0.1c-0.8,0-2.8,0-6-0.1c-0.2,0.3-0.3,0.7-0.3,1.3
		c0,0.6,0.1,1,0.3,1.1c1.3,0.1,2.3,0.4,3,0.8c0.6,0.4,0.7,1.1,0.2,2.2l-6.6,15.1c-0.1,0.3-0.3,0.5-0.4,0.6c-0.1,0.1-0.3,0.2-0.4,0.2
		c-0.1,0-0.3-0.1-0.4-0.2c-0.1-0.2-0.3-0.4-0.4-0.7l-5.9-13.7c0-0.1-0.1-0.2-0.2-0.4c-0.3-0.6-0.4-1.1-0.6-1.4s-0.2-0.6-0.2-1
		c0-0.4,0.1-0.6,0.3-0.8c0.2-0.2,0.5-0.3,1-0.5s1.1-0.2,1.8-0.3c0.2-0.2,0.3-0.6,0.3-1.2c0-0.6-0.1-1-0.3-1.2
		c-3.3,0.1-5.7,0.1-7.5,0.1c-1.8,0-3.6,0-5.4-0.1c-0.2,0.3-0.3,0.7-0.3,1.3c0,0.6,0.1,1,0.3,1.1c1,0.1,1.8,0.3,2.3,0.5
		c0.5,0.3,1,0.7,1.4,1.3c0.4,0.6,0.9,1.6,1.6,3.1l7.5,17.3c1.2,2.6,1.5,4.7,0.9,6.2c-0.7,1.9-1.5,3.9-2.6,6
		c-0.7,1.3-1.8,1.9-3.3,1.9c-0.3,0-0.6,0-1-0.1c-0.4-0.1-0.7-0.1-0.9-0.1c-0.8,0-1.5,0.3-2.1,1c-0.5,0.7-0.8,1.3-0.8,1.9
		c0,0.7,0.3,1.3,0.9,1.8c0.6,0.5,1.3,0.7,2.2,0.7c2.5,0,4.7-1.6,6.4-4.7c0.9-1.6,1.8-3.5,2.7-5.7c5-12.1,8.9-21,11.7-26.9
		c0.5-1.1,1.3-2,2.2-2.8c0.9-0.8,2-1.3,3.1-1.4c0.2-0.2,0.3-0.6,0.3-1.2C660.4,260.5,660.3,260.1,660.1,259.8z"/>
</g>
</svg>
