<?xml version="1.0" encoding="utf-8"?>
<!-- Generator: Adobe Illustrator 18.0.0, SVG Export Plug-In . SVG Version: 6.00 Build 0)  -->
<!DOCTYPE svg PUBLIC "-//W3C//DTD SVG 1.1//EN" "http://www.w3.org/Graphics/SVG/1.1/DTD/svg11.dtd">
<svg version="1.1" id="Layer_1" xmlns="http://www.w3.org/2000/svg" xmlns:xlink="http://www.w3.org/1999/xlink" x="0px" y="0px"
	 viewBox="0 0 720 720" style="enable-background:new 0 0 720 720;" xml:space="preserve">
<g>
	<path d="M191.2,284.5c-3.5,19.7-21.5,41.4-47.4,52.9c43.2,4.6,26.8,54.2,7.5,71.3c-19,16.8-48,7.7-44-17.7
		c2.9-11.5,11.3-22.4,21.9-25.7c6.4,0,5.3,4.2,0.2,6.2c-6.6,2.2-13.3,10.2-15.3,19.9c-3.1,16.4,14.6,25.7,29.2,9.3
		c12.4-13.9,20.6-56-10-57.8c-15.3,0-3.5-7.3,2.9-10.8c15.9-9.5,34.7-29.2,38.1-48c1.8-9.7,1.8-40.3-14.8-20.6
		c-23.7,29.2-39.6,100.3-61.3,133.7c-9.1,13.7-25.5,25-40.9,18.4c-12.2-5.3-18.4-21.9-12.4-35c2-4.2,8.6-0.2,5.8,3.8
		c-2.7,6.2-1.3,18.1,8.9,22.6c11.5,5.1,24.3-6.9,29.2-20.1c12-34.1,16.6-76.8,26.3-138.1c-9.1-0.4-18.1,3.5-24.1,12
		c-2.4,3.3-2,8.4,1.5,10c4.9,3.8,0.9,8.2-4.9,6c-5.5-2-8-12-3.3-19c6.9-10.4,16.6-13.9,29.7-15.3c3.5-0.2,11.1-0.4,20.4,0.7
		c-4,30.1-11.1,73.3-19,104.9c10-26.1,25.5-70.6,39.4-87.6C175.1,235.2,196.3,256.4,191.2,284.5z M443.5,319.7
		c4.9,0,8.9-4.4,9.1-8.6c0-4.4-3.3-8.6-8.2-8.6s-8.9,4.2-8.9,8.6C435.3,315.3,438.7,319.7,443.5,319.7z M674.8,349.2
		c-15,5.3-25.5,12.2-34.1,18.6c5.8,12.6,7.1,25.2,5.8,34.7c-3.5,23.2-32.3,24.8-36.5,3.8c-3.3-14.6,7.5-26.3,16.2-35
		c-2.7-6-4.9-12.6-5.9-19.4c-5.2,5.6-13.6,14.1-27.5,29.1c-4.2,16.8-6.9,30.1-13.5,48.9c-4.9,13.3-10.6,25.2-17.5,34.5
		c-21.2,29-40.3,13.5-27.9-15c9.3-22.4,27.9-47.1,40.9-62.4c4.9-21.2,6.2-24.1,6.2-24.3c-9.5,17.9-30.1,35.4-39.2,16.4
		c-0.8-3.3-1-6.7-0.9-10.1c-11.5,16.3-20.6,26.5-30.8,26.5c-8.9,0-12.2-11.1-12.4-22.1c0-5.1,1.1-12.8,3.1-20.6
		c0.9-4.4,4.6-19,4.6-19c-9.7,9.3-18.4,28.3-23.5,42.3l-6.6,16.8c-0.9,3.8-4.4,5.5-8,5.5c-4.4,0-8-2.4-7.3-6
		c2.2-11.8,3.9-21.6,5.5-30.5c-14.1,21.2-24.7,36.1-36.3,36.1c-8.9,0-12.2-11.1-12.4-22.1c0.1-6,1.6-15.5,4.3-24.7
		c-12.5,5-21.6,11.1-29.3,16.8c5.8,12.6,7.1,25.2,5.8,34.7c-3.5,23.2-32.3,24.8-36.5,3.8c-3.3-14.6,7.5-26.3,16.2-35
		c-2.9-6.5-5.3-13.8-6.1-21.3c-13.8,5.2-23.5,11.6-31.7,17.7c5.8,12.6,7.1,25.2,5.8,34.7c-3.5,23.2-32.3,24.8-36.5,3.8
		c-3.3-14.6,7.5-26.3,16.2-35c-2.4-5.4-4.4-11.3-5.6-17.4c-10.1,16.3-38.9,51.6-57.1,51.2c-12.4,0.5-19.3-12.7-19.5-28.4
		c-12.9,24.4-26.8,46.5-37.4,45.7c-16.4-1.1-16.2-45.1-9.7-81.9c7.7-36.1,17.3-66,31.2-85c21.2-29,40.3-13.5,27.9,15
		c-9.3,22.4-29.7,50-41.4,64.2c-1.8,8-2.9,13.1-3.8,18.4c-3.3,19.9-10,62.4-1.8,62.4c7.8,0,29.1-44.4,40.5-65.9
		c3.8-9.3,9.4-17.5,16.1-22.4c27-20.1,35.6,19.3,11.7,29.9c-4.4,1.8-7.7,2.7-16.2,3.1c-0.7,2.4-1.3,5.8-1.8,8.2
		c-2.2,12.8-3.3,29.7,5.5,29.4c15.8-0.4,44.5-40.2,54.6-53.3c0-2.7,0.2-5.3,0.7-8c2.9-17,20.6-27.4,35.4-20.4c2,1.5,1.3,7.1-2.2,6.6
		c-9.5-6.2-16.8,6.6-18.1,14.6c-1.5,8.6,0.4,16.2,3.5,24.1c12.6-8.9,18.9-12.1,33.2-17.7c0-2.5,0.2-4.9,0.7-7.4
		c2.9-17,20.6-27.4,35.4-20.4c2,1.5,1.3,7.1-2.2,6.6c-9.5-6.2-16.8,6.6-18.1,14.6c-1.5,8.6,0.4,16.2,3.5,24.1
		c12.7-9,18.9-12.1,33.3-17.7c3.9-11,9.2-20.1,15.2-20.6c4.6,0,8.2,2,7.3,6.2c-0.4,1.5-0.9,3.5-1.8,5.5
		c-4.2,11.7-10.6,29.2-12.8,41.8c-1.3,6.6-2.2,14.2,0.2,14.2c6.7,0,19.3-18.9,37.2-46.2c1.3-7,2.6-13.7,4-20.8
		c0.4-2.9,4.2-4.6,8-4.6c8.4,0,7.7,10,5.8,20.4l-1.8,10c4.9-10.4,13.9-22.6,22.8-25.2c10.2-1.8,14.4,11.5,10.2,29
		c-1.8,7.5-4.4,14.8-5.5,21c-1.3,6.6-2.2,14.2,0.2,14.2c6.4,0,17.4-14.6,33.8-39.4c2.9-6,6.8-11.2,11.2-15c10.2-8.6,24.6-6,30.3,6.2
		c1.3-3.3,6.2-17.9,12.6-17.9c4.6,0,8.2,2,7.3,6.2L596,368.2c6.2-7.2,19.8-21,23.7-24.3c0-2.4,0.2-4.9,0.7-7.3
		c2.9-17,20.6-27.4,35.4-20.4c2,1.5,1.3,7.1-2.2,6.6c-9.5-6.2-16.8,6.6-18.1,14.6c-1.5,8.6,0.4,16.2,3.5,24.1
		c12.8-9.1,19-12.2,33.9-17.9C678.3,342.1,678.6,346.7,674.8,349.2z M262.7,352.5c4,0,8-0.9,11.5-2.7c15.7-7.3,10.4-30.8-3.1-13.7
		C268,340.3,264.9,346.3,262.7,352.5z M215.8,322.8c6.4-7.3,24.6-35.9,32.5-53.6c10.4-23.2,0.9-34.1-12.6-7.3
		C230.2,273,224.7,290.7,215.8,322.8z M332.9,400.5c0-6-2.4-16.2-4.9-22.4c-6.9,7.5-14.2,17.5-11.1,27.4
		C320.5,417.3,332.7,418.4,332.9,400.5z M385.3,400.5c0-6-2.4-16.2-4.9-22.4c-6.9,7.5-14.2,17.5-11.1,27.4
		C372.9,417.3,385.1,418.4,385.3,400.5z M571.9,400.7c-7.1,7.5-23.7,32.3-31.6,50c-10.4,23.2-0.9,34.1,12.6,7.3
		c3.8-7.7,7.7-18.6,12.6-35.2C567.7,415.5,569.2,410.7,571.9,400.7z M584.7,347.2c-4.2-12.2-12.8-13.1-18.4-4.9
		c-4.6,6.9-8.4,17.3-10.8,24.8c-1.1,3.8-3.3,13.5,2,13.5c6.4,0,16.8-18.1,26.3-30.8L584.7,347.2z M634.1,400.5
		c0-6-2.4-16.2-4.9-22.4c-6.9,7.5-14.2,17.5-11.1,27.4C621.7,417.3,633.9,418.4,634.1,400.5z"/>
	<path d="M57.4,447.9v27c0,0.6,0,1,0.1,1.4c0.1,0.3,0.2,0.6,0.4,0.7c0.2,0.1,0.5,0.2,0.8,0.3c0.3,0,0.8,0,1.3,0v0.5h-9.4v-0.5
		c0.5,0,1,0,1.3,0c0.3,0,0.6-0.1,0.8-0.3s0.3-0.4,0.4-0.7c0.1-0.3,0.1-0.8,0.1-1.4v-27c0-0.6,0-1-0.1-1.4c-0.1-0.3-0.2-0.6-0.4-0.7
		c-0.2-0.1-0.5-0.2-0.8-0.3c-0.3,0-0.8,0-1.3,0v-0.5H60v0.5c-0.5,0-1,0-1.3,0c-0.3,0-0.6,0.1-0.8,0.3c-0.2,0.1-0.3,0.4-0.4,0.7
		C57.5,446.9,57.4,447.3,57.4,447.9z"/>
	<path d="M105.7,473.7l0.2,0.8c-1.5,1.4-3.2,2.4-5.1,3c-1.9,0.6-3.8,0.9-5.8,0.9c-2.6,0-4.9-0.4-6.9-1.2c-2-0.8-3.7-2-5.1-3.5
		c-1.4-1.5-2.5-3.3-3.2-5.3c-0.7-2.1-1.1-4.4-1.1-6.9c0-2.4,0.4-4.7,1.2-6.7c0.8-2.1,1.9-3.9,3.3-5.4c1.4-1.5,3.2-2.7,5.2-3.6
		c2-0.9,4.3-1.3,6.7-1.3c1.7,0,3.4,0.2,5.1,0.6c0.2,0.1,0.4,0.1,0.7,0.2c0.3,0.1,0.6,0.2,0.9,0.3c0.3,0.1,0.6,0.2,0.9,0.2
		c0.3,0.1,0.5,0.1,0.7,0.1c0.6,0,1-0.3,1.2-0.9h0.5c0,0.5,0,1.1,0,1.8c0,0.6,0,1.3,0,2c0,0.7,0,1.3-0.1,2c0,0.6-0.1,1.2-0.3,1.7
		c-1.1-1.8-2.4-3.2-3.8-4.2c-1.4-0.9-3.2-1.4-5.4-1.4c-2.2,0-4,0.4-5.6,1.2c-1.6,0.8-2.9,1.8-3.9,3.2c-1,1.3-1.8,2.9-2.3,4.6
		c-0.5,1.8-0.7,3.6-0.7,5.6c0,2,0.3,3.9,0.8,5.7c0.5,1.8,1.3,3.3,2.3,4.6s2.4,2.3,4,3.1c1.6,0.8,3.5,1.1,5.7,1.1c0.8,0,1.6,0,2.5,0
		c0.9,0,1.8-0.1,2.7-0.3c0.9-0.1,1.7-0.4,2.5-0.7C104.3,474.6,105,474.2,105.7,473.7z M137,454c0.9,2.1,1.3,4.6,1.3,7.5
		c0,2.3-0.3,4.5-1,6.5c-0.7,2-1.7,3.8-3,5.4c-1.3,1.5-2.9,2.8-4.8,3.6c-1.9,0.9-4.1,1.3-6.5,1.3c-2.5,0-4.7-0.4-6.6-1.3
		c-1.9-0.9-3.5-2.1-4.8-3.6c-1.3-1.5-2.3-3.3-2.9-5.4c-0.7-2.1-1-4.3-1-6.6c0-2.9,0.4-5.4,1.3-7.5c0.9-2.1,2-3.9,3.5-5.3
		c1.4-1.4,3.1-2.5,4.9-3.2c1.8-0.7,3.7-1.1,5.6-1c1.9,0,3.8,0.4,5.6,1.1c1.8,0.7,3.5,1.8,4.9,3.2C135,450.1,136.2,451.8,137,454z
		 M134,461.5c0-1.7-0.2-3.4-0.6-5.1c-0.4-1.8-1-3.3-1.9-4.8c-0.9-1.4-2-2.6-3.4-3.5c-1.4-0.9-3.1-1.4-5.1-1.4c-2,0-3.7,0.5-5.1,1.4
		c-1.4,0.9-2.5,2.1-3.4,3.5c-0.9,1.4-1.5,3-1.9,4.7s-0.6,3.5-0.6,5.2c0,1.7,0.2,3.4,0.6,5.2c0.4,1.8,1,3.3,1.9,4.7
		c0.9,1.4,2,2.5,3.4,3.4c1.4,0.9,3.1,1.3,5.1,1.3c2,0,3.7-0.4,5.1-1.3c1.4-0.9,2.5-2,3.4-3.5c0.9-1.4,1.5-3,1.9-4.7
		S134,463.2,134,461.5z M164.2,445.6c0.7,0,1.2,0.1,1.5,0.3c0.4,0.2,0.6,0.4,0.7,0.7c0.1,0.3,0.2,0.7,0.2,1.2s0,1,0,1.6v17.5
		c0,2.8-0.8,5-2.3,6.6c-1.6,1.6-3.8,2.4-6.6,2.4c-3.1,0-5.3-0.9-6.7-2.6c-1.4-1.7-2.1-4.1-2.1-7v-18.4c0-0.5,0-1,0.1-1.3
		c0.1-0.3,0.2-0.6,0.4-0.7c0.2-0.2,0.4-0.3,0.7-0.3c0.3,0,0.7,0,1.2,0v-0.5h-9v0.5h0.7c0.8,0,1.3,0.2,1.5,0.7c0.2,0.4,0.2,1,0.2,1.7
		v18.3c0,3.9,1.1,6.9,3.2,9c2.1,2.1,5.1,3.1,9,3.1c3.9,0,6.9-1,9-3.1c2.1-2.1,3.2-5,3.2-8.9v-16.9c0-0.4,0-0.8,0-1.2
		c0-0.5,0-0.9,0.1-1.3c0.1-0.4,0.3-0.7,0.5-1c0.3-0.3,0.6-0.4,1.1-0.4h0.7v-0.5h-7.7V445.6z M199.9,445.6c0.7,0,1.2,0.1,1.6,0.2
		c0.4,0.1,0.6,0.3,0.8,0.6c0.1,0.3,0.2,0.7,0.2,1.1c0,0.5,0,1,0,1.6v22.3c-3-4.5-6-8.9-9-13.2c-3.1-4.3-6.1-8.7-9-13.2h-6.4v0.5
		c0.5,0,0.8,0,1.1,0.1c0.2,0,0.4,0.1,0.6,0.3c0.2,0.1,0.3,0.4,0.4,0.6c0.1,0.3,0.3,0.6,0.5,1v26.2c0,0.6,0,1.2,0,1.6
		c0,0.4-0.1,0.8-0.3,1.1c-0.2,0.3-0.4,0.5-0.8,0.6c-0.4,0.1-0.9,0.2-1.5,0.2v0.5h7.8v-0.5c-0.6,0-1.1-0.1-1.5-0.2
		c-0.4-0.1-0.6-0.3-0.7-0.6c-0.1-0.3-0.2-0.7-0.2-1.1c0-0.4,0-1,0-1.6v-23.5l19.4,27.7h2.5v-28.9c0-0.6,0-1.1,0-1.6
		c0-0.5,0.1-0.8,0.2-1.1c0.1-0.3,0.4-0.5,0.7-0.7c0.4-0.1,0.9-0.2,1.5-0.2v-0.5h-7.8V445.6z M236.8,445.1h-25.4l-0.2,5.8h0.4
		c0.3-1.3,0.7-2.1,1.3-2.6c0.6-0.5,1.5-0.7,2.8-0.7h6.4v27.4c0,0.6,0,1-0.1,1.3c-0.1,0.3-0.2,0.5-0.4,0.7c-0.2,0.2-0.5,0.3-0.8,0.3
		c-0.3,0-0.8,0-1.3,0v0.5h9.3v-0.5c-0.5,0-1,0-1.3,0c-0.3,0-0.6-0.1-0.8-0.3c-0.2-0.2-0.3-0.4-0.4-0.7c-0.1-0.3-0.1-0.7-0.1-1.3
		v-27.4h6.3c1.3,0,2.2,0.2,2.8,0.7c0.6,0.5,1,1.3,1.2,2.6h0.5L236.8,445.1z"/>
	<path d="M283.8,445.6c-1.3,0.1-2.3,0.8-3,1.9l-10.2,15.8v11.6c0,0.6,0,1,0.1,1.4c0.1,0.3,0.2,0.6,0.5,0.7c0.2,0.1,0.5,0.2,0.9,0.3
		c0.4,0,0.8,0,1.4,0v0.5h-9.7v-0.5c0.5,0,1,0,1.4,0c0.4,0,0.6-0.1,0.8-0.3c0.2-0.1,0.4-0.4,0.4-0.7c0.1-0.3,0.1-0.8,0.1-1.4v-11.5
		l-10.7-15.8c-0.4-0.6-0.8-1.1-1.2-1.5c-0.4-0.4-0.9-0.5-1.7-0.6v-0.5h9.1v0.5c-0.4,0-0.7,0-1,0.1c-0.3,0-0.5,0.1-0.7,0.3
		c-0.2,0.1-0.2,0.3-0.2,0.6c0,0.3,0.2,0.6,0.5,1l8.6,13.3l8.5-13.5c0.2-0.4,0.3-0.6,0.3-0.9c0-0.2-0.1-0.4-0.3-0.5
		c-0.2-0.1-0.4-0.2-0.7-0.3c-0.3,0-0.6-0.1-0.8-0.1v-0.5h7.5V445.6z M312.1,454c0.9,2.1,1.3,4.6,1.3,7.5c0,2.3-0.3,4.5-1,6.5
		c-0.7,2-1.7,3.8-3,5.4c-1.3,1.5-2.9,2.8-4.8,3.6c-1.9,0.9-4.1,1.3-6.5,1.3c-2.5,0-4.7-0.4-6.6-1.3c-1.9-0.9-3.5-2.1-4.8-3.6
		c-1.3-1.5-2.3-3.3-2.9-5.4c-0.7-2.1-1-4.3-1-6.6c0-2.9,0.4-5.4,1.3-7.5c0.9-2.1,2-3.9,3.5-5.3c1.4-1.4,3.1-2.5,4.9-3.2
		c1.8-0.7,3.7-1.1,5.6-1c1.9,0,3.8,0.4,5.6,1.1c1.8,0.7,3.5,1.8,4.9,3.2C310,450.1,311.2,451.8,312.1,454z M309,461.5
		c0-1.7-0.2-3.4-0.6-5.1c-0.4-1.8-1-3.3-1.9-4.8c-0.9-1.4-2-2.6-3.4-3.5c-1.4-0.9-3.1-1.4-5.1-1.4c-2,0-3.7,0.5-5.1,1.4
		c-1.4,0.9-2.5,2.1-3.4,3.5c-0.9,1.4-1.5,3-1.9,4.7s-0.6,3.5-0.6,5.2c0,1.7,0.2,3.4,0.6,5.2c0.4,1.8,1,3.3,1.9,4.7
		c0.9,1.4,2,2.5,3.4,3.4c1.4,0.9,3.1,1.3,5.1,1.3c2,0,3.7-0.4,5.1-1.3c1.4-0.9,2.5-2,3.4-3.5c0.9-1.4,1.5-3,1.9-4.7
		S309,463.2,309,461.5z M339.2,445.1v0.5c0.7,0,1.2,0.1,1.5,0.3c0.4,0.2,0.6,0.4,0.7,0.7c0.1,0.3,0.2,0.7,0.2,1.2s0,1,0,1.6v17.5
		c0,2.8-0.8,5-2.3,6.6c-1.6,1.6-3.8,2.4-6.6,2.4c-3.1,0-5.3-0.9-6.7-2.6c-1.4-1.7-2.1-4.1-2.1-7v-18.4c0-0.5,0-1,0.1-1.3
		c0.1-0.3,0.2-0.6,0.4-0.7c0.2-0.2,0.4-0.3,0.7-0.3c0.3,0,0.7,0,1.2,0v-0.5h-9v0.5h0.7c0.8,0,1.3,0.2,1.5,0.7c0.2,0.4,0.2,1,0.2,1.7
		v18.3c0,3.9,1.1,6.9,3.2,9c2.1,2.1,5.1,3.1,9,3.1c3.9,0,6.9-1,9-3.1c2.1-2.1,3.2-5,3.2-8.9v-16.9c0-0.4,0-0.8,0-1.2
		c0-0.5,0-0.9,0.1-1.3c0.1-0.4,0.3-0.7,0.5-1c0.3-0.3,0.6-0.4,1.1-0.4h0.7v-0.5H339.2z"/>
	<path d="M389.8,445.1l0.1,5.8h-0.5c-0.3-1.3-0.7-2.2-1.2-2.6c-0.6-0.5-1.5-0.7-2.8-0.7h-6.3v27.4c0,0.6,0,1,0.1,1.3
		c0.1,0.3,0.2,0.5,0.4,0.7c0.2,0.2,0.5,0.3,0.8,0.3c0.3,0,0.8,0,1.3,0v0.5h-9.3v-0.5c0.5,0,0.9,0,1.3,0c0.3,0,0.6-0.1,0.8-0.3
		c0.2-0.2,0.3-0.4,0.4-0.7c0.1-0.3,0.1-0.7,0.1-1.3v-27.4h-6.4c-1.3,0-2.2,0.2-2.8,0.7c-0.6,0.5-1,1.4-1.3,2.6h-0.4l0.2-5.8H389.8z
		 M432.1,445.6c1,0.1,1.5,0.3,1.7,0.8c0.2,0.5,0.2,1.1-0.1,1.9l-7.5,23.1l-7.9-24.1c-0.1-0.4-0.2-0.7-0.1-0.9
		c0.1-0.2,0.2-0.4,0.4-0.5c0.2-0.1,0.4-0.2,0.7-0.2c0.3,0,0.6,0,0.9,0v-0.5h-8.9v0.5c0.5,0,1,0.1,1.3,0.2c0.3,0.1,0.6,0.5,0.9,1
		l1.5,3.5l-6.7,20.9l-7.7-24c-0.3-0.7-0.2-1.2,0.1-1.4c0.3-0.2,0.8-0.3,1.5-0.3v-0.5h-8v0.5c0.8,0,1.3,0.3,1.7,0.8
		c0.4,0.5,0.6,1.1,0.9,1.7l9.7,30h2.1l7.9-24.6l8,24.6h2.1c1.6-5.2,3.2-10.3,4.8-15.4c1.6-5.1,3.3-10.2,5.1-15.3
		c0.2-0.6,0.5-1,0.8-1.3c0.3-0.3,0.8-0.4,1.4-0.5v-0.5h-6.7V445.6z M444.4,445.6c0.5,0,1,0,1.3,0c0.3,0,0.6,0.1,0.8,0.3
		c0.2,0.1,0.3,0.4,0.4,0.7c0.1,0.3,0.1,0.8,0.1,1.4v27c0,0.6,0,1-0.1,1.4c-0.1,0.3-0.2,0.6-0.4,0.7s-0.5,0.2-0.8,0.3
		c-0.3,0-0.8,0-1.3,0v0.5h9.4v-0.5c-0.5,0-1,0-1.3,0c-0.3,0-0.6-0.1-0.8-0.3c-0.2-0.1-0.3-0.4-0.4-0.7c-0.1-0.3-0.1-0.8-0.1-1.4v-27
		c0-0.6,0-1,0.1-1.4c0.1-0.3,0.2-0.6,0.4-0.7c0.2-0.1,0.5-0.2,0.8-0.3c0.3,0,0.8,0,1.3,0v-0.5h-9.4V445.6z M484,474.9
		c-0.8,0.3-1.7,0.5-2.5,0.7c-0.9,0.1-1.8,0.2-2.7,0.3c-0.9,0-1.7,0-2.5,0c-2.2,0-4.1-0.4-5.7-1.1c-1.6-0.8-2.9-1.8-4-3.1
		s-1.8-2.8-2.3-4.6c-0.5-1.8-0.8-3.7-0.8-5.7c0-2,0.2-3.8,0.7-5.6c0.5-1.8,1.3-3.3,2.3-4.6c1-1.3,2.3-2.4,3.9-3.2
		c1.6-0.8,3.4-1.2,5.6-1.2c2.2,0,4,0.5,5.4,1.4c1.4,0.9,2.6,2.3,3.8,4.2c0.1-0.5,0.2-1,0.3-1.7c0-0.6,0.1-1.3,0.1-2c0-0.7,0-1.3,0-2
		c0-0.7,0-1.3,0-1.8h-0.5c-0.2,0.6-0.5,0.9-1.2,0.9c-0.2,0-0.4,0-0.7-0.1c-0.3-0.1-0.6-0.1-0.9-0.2c-0.3-0.1-0.6-0.2-0.9-0.3
		c-0.3-0.1-0.6-0.2-0.7-0.2c-1.7-0.4-3.4-0.6-5.1-0.6c-2.5,0-4.7,0.4-6.7,1.3c-2,0.9-3.7,2-5.2,3.6c-1.4,1.5-2.5,3.3-3.3,5.4
		c-0.8,2.1-1.2,4.3-1.2,6.7c0,2.5,0.4,4.8,1.1,6.9c0.7,2.1,1.8,3.9,3.2,5.3c1.4,1.5,3.1,2.6,5.1,3.5c2,0.8,4.3,1.2,6.9,1.2
		c2,0,4-0.3,5.8-0.9c1.9-0.6,3.5-1.6,5.1-3l-0.2-0.8C485.5,474.2,484.8,474.6,484,474.9z M512.5,472c-0.3,0.7-0.7,1.3-1,1.8
		c-0.4,0.4-0.8,0.8-1.2,1c-0.5,0.3-1,0.4-1.5,0.5c-0.6,0.1-1.2,0.1-2,0.1h-8c-0.2,0-0.4,0-0.7,0c-0.3,0-0.5,0-0.8,0
		c-0.2,0-0.5-0.1-0.6-0.3c-0.2-0.1-0.3-0.4-0.3-0.7v-12.6h9.8c0.5,0,1,0,1.4,0.1c0.4,0,0.7,0.2,0.9,0.3c0.2,0.2,0.4,0.4,0.6,0.7
		c0.1,0.3,0.2,0.8,0.3,1.4h0.6v-7.3h-0.6c-0.1,0.5-0.2,1-0.3,1.3c-0.1,0.3-0.3,0.6-0.6,0.7c-0.2,0.2-0.6,0.3-0.9,0.3
		c-0.4,0-0.8,0.1-1.4,0.1h-9.8v-11.1c0-0.5,0-0.8,0.1-0.9c0.1-0.1,0.4-0.2,0.9-0.2h9.8c1.1,0,2,0.1,2.6,0.4c0.6,0.3,1,1,1.1,2.2h0.7
		l0-5H490v0.5c1,0,1.6,0.1,1.9,0.4c0.3,0.3,0.4,0.9,0.4,2v27c0,1-0.1,1.7-0.4,2c-0.3,0.3-0.9,0.4-1.9,0.4v0.5h22l1.2-5.7H512.5z"/>
	<path d="M314,256h5.7v0.4c-0.5,0.1-0.9,0.2-1.2,0.4c-0.2,0.2-0.5,0.6-0.7,1.1c-1.5,4.3-2.9,8.7-4.3,13s-2.7,8.7-4.1,13.1h-1.8
		l-6.8-20.8l-6.7,20.8h-1.8l-8.2-25.4c-0.2-0.5-0.4-1-0.7-1.5c-0.3-0.4-0.8-0.6-1.4-0.7V256h6.8v0.4c-0.5,0-1,0.1-1.2,0.2
		c-0.3,0.1-0.3,0.5-0.1,1.2l6.5,20.3l5.7-17.7l-1.3-2.9c-0.2-0.5-0.5-0.8-0.8-0.9c-0.3-0.1-0.7-0.2-1.1-0.2V256h7.5v0.4
		c-0.2,0-0.5,0-0.7,0c-0.2,0-0.4,0.1-0.6,0.2c-0.2,0.1-0.3,0.3-0.3,0.4c-0.1,0.2,0,0.4,0.1,0.8l6.7,20.4l6.3-19.6
		c0.2-0.7,0.2-1.3,0.1-1.6s-0.7-0.6-1.5-0.7V256z M341.3,256.4c0.4,0,0.8,0,1.1,0.1c0.3,0,0.5,0.1,0.6,0.3c0.1,0.1,0.2,0.3,0.3,0.6
		c0.1,0.3,0.1,0.6,0.1,1.1v10H330v-10c0-0.4,0-0.8,0.1-1.1c0-0.3,0.1-0.5,0.3-0.6c0.1-0.1,0.3-0.2,0.6-0.3c0.3,0,0.6-0.1,1-0.1V256
		h-7.5v0.4c0.4,0,0.8,0,1.1,0.1c0.3,0,0.5,0.1,0.6,0.3c0.1,0.1,0.2,0.3,0.3,0.6c0.1,0.3,0.1,0.6,0.1,1.1v22.8c0,0.5,0,0.8-0.1,1.1
		c-0.1,0.3-0.1,0.5-0.3,0.6c-0.1,0.1-0.3,0.2-0.6,0.3c-0.3,0-0.6,0.1-1.1,0.1v0.4h7.5v-0.4c-0.4,0-0.8,0-1-0.1
		c-0.3,0-0.5-0.1-0.6-0.3c-0.1-0.1-0.2-0.3-0.3-0.6c0-0.3-0.1-0.6-0.1-1.1v-10.7h13.4v10.7c0,0.5,0,0.8-0.1,1.1
		c-0.1,0.3-0.1,0.5-0.3,0.6c-0.1,0.1-0.3,0.2-0.6,0.3c-0.3,0-0.6,0.1-1.1,0.1v0.4h7.5v-0.4c-0.4,0-0.8,0-1-0.1s-0.5-0.1-0.6-0.3
		c-0.2-0.1-0.2-0.3-0.3-0.6c0-0.3-0.1-0.6-0.1-1.1v-22.8c0-0.4,0-0.8,0.1-1.1c0-0.3,0.1-0.5,0.3-0.6c0.1-0.1,0.4-0.2,0.6-0.3
		c0.3,0,0.6-0.1,1-0.1V256h-7.5V256.4z M372.5,280.2c-0.3,0.4-0.6,0.7-1,0.9c-0.4,0.2-0.8,0.4-1.3,0.4c-0.5,0.1-1,0.1-1.7,0.1h-6.7
		c-0.2,0-0.4,0-0.6,0c-0.2,0-0.4,0-0.7,0c-0.2,0-0.4-0.1-0.5-0.2c-0.1-0.1-0.2-0.3-0.2-0.6v-10.7h8.3c0.5,0,0.9,0,1.2,0.1
		c0.3,0,0.6,0.1,0.8,0.3c0.2,0.1,0.4,0.4,0.5,0.6c0.1,0.3,0.2,0.7,0.2,1.1h0.5v-6.2h-0.5c-0.1,0.5-0.1,0.8-0.2,1.1
		c-0.1,0.3-0.3,0.5-0.5,0.6c-0.2,0.1-0.5,0.2-0.8,0.3c-0.3,0-0.7,0.1-1.1,0.1h-8.3v-9.4c0-0.4,0-0.7,0.1-0.8
		c0.1-0.1,0.3-0.1,0.8-0.1h8.3c1,0,1.7,0.1,2.2,0.3c0.5,0.2,0.8,0.9,1,1.9h0.6l0-4.2h-18.2v0.4c0.8,0,1.4,0.1,1.6,0.3
		c0.2,0.2,0.3,0.8,0.3,1.7v22.8c0,0.9-0.1,1.4-0.3,1.7c-0.2,0.2-0.7,0.3-1.6,0.3v0.4H373l1-4.9h-0.7
		C373.1,279.4,372.8,279.9,372.5,280.2z M395.5,256v0.4c0.6,0,1,0.1,1.3,0.2c0.3,0.1,0.5,0.3,0.7,0.5s0.2,0.6,0.2,0.9
		c0,0.4,0,0.8,0,1.4v18.9c-2.5-3.8-5.1-7.5-7.6-11.2c-2.6-3.6-5.1-7.4-7.6-11.2H377v0.4c0.4,0,0.7,0,0.9,0.1c0.2,0,0.4,0.1,0.5,0.2
		c0.1,0.1,0.3,0.3,0.4,0.5c0.1,0.2,0.2,0.5,0.4,0.9v22.2c0,0.5,0,1,0,1.4c0,0.4-0.1,0.7-0.2,0.9c-0.1,0.2-0.4,0.4-0.7,0.5
		c-0.3,0.1-0.7,0.2-1.3,0.2v0.4h6.6v-0.4c-0.5,0-1-0.1-1.3-0.2c-0.3-0.1-0.5-0.3-0.6-0.5s-0.2-0.6-0.2-0.9c0-0.4,0-0.8,0-1.3v-19.9
		l16.4,23.4h2.1v-24.4c0-0.5,0-1,0-1.3c0-0.4,0.1-0.7,0.2-0.9s0.3-0.4,0.6-0.6c0.3-0.1,0.7-0.2,1.3-0.2V256H395.5z"/>
	<path d="M423.6,258.4v22.8c0,0.5,0,0.9,0.1,1.1c0.1,0.3,0.2,0.5,0.3,0.6c0.2,0.1,0.4,0.2,0.7,0.2c0.3,0,0.7,0,1.1,0v0.4h-7.9v-0.4
		c0.5,0,0.8,0,1.1,0c0.3,0,0.5-0.1,0.7-0.2c0.2-0.1,0.3-0.3,0.3-0.6c0.1-0.3,0.1-0.7,0.1-1.1v-22.8c0-0.5,0-0.9-0.1-1.1
		c-0.1-0.3-0.2-0.5-0.3-0.6c-0.2-0.1-0.4-0.2-0.7-0.2c-0.3,0-0.7,0-1.1,0V256h7.9v0.4c-0.5,0-0.8,0-1.1,0c-0.3,0-0.5,0.1-0.7,0.2
		c-0.2,0.1-0.3,0.3-0.3,0.6C423.6,257.5,423.6,257.9,423.6,258.4z"/>
	<path d="M464.4,280.1l0.2,0.7c-1.3,1.2-2.7,2-4.3,2.5c-1.6,0.5-3.2,0.8-4.9,0.8c-2.2,0-4.1-0.3-5.8-1c-1.7-0.7-3.2-1.7-4.4-2.9
		c-1.2-1.3-2.1-2.8-2.7-4.5c-0.6-1.8-0.9-3.7-0.9-5.8c0-2,0.3-3.9,1-5.7c0.7-1.8,1.6-3.3,2.8-4.6c1.2-1.3,2.7-2.3,4.4-3
		c1.7-0.7,3.6-1.1,5.7-1.1c1.4,0,2.9,0.2,4.3,0.5c0.2,0.1,0.4,0.1,0.6,0.2c0.3,0.1,0.5,0.1,0.8,0.2c0.3,0.1,0.5,0.2,0.8,0.2
		c0.2,0.1,0.4,0.1,0.6,0.1c0.5,0,0.8-0.2,1-0.7h0.4c0,0.4,0,0.9,0,1.5c0,0.5,0,1.1,0,1.7c0,0.6,0,1.1-0.1,1.7c0,0.5-0.1,1-0.2,1.4
		c-1-1.6-2-2.7-3.2-3.5c-1.2-0.8-2.7-1.2-4.6-1.2c-1.8,0-3.4,0.3-4.7,1c-1.3,0.7-2.4,1.6-3.3,2.7c-0.9,1.1-1.5,2.4-1.9,3.9
		c-0.4,1.5-0.6,3.1-0.6,4.7c0,1.7,0.2,3.3,0.7,4.8c0.4,1.5,1.1,2.8,2,3.9c0.9,1.1,2,2,3.3,2.6c1.3,0.6,2.9,1,4.8,1
		c0.7,0,1.4,0,2.1,0c0.8,0,1.5-0.1,2.3-0.2c0.7-0.1,1.5-0.3,2.1-0.6C463.2,281,463.8,280.6,464.4,280.1z M490.9,263.5
		c0.7,1.8,1.1,3.9,1.1,6.3c0,2-0.3,3.8-0.9,5.5c-0.6,1.7-1.4,3.2-2.5,4.6c-1.1,1.3-2.5,2.3-4.1,3.1c-1.6,0.7-3.4,1.1-5.5,1.1
		c-2.1,0-3.9-0.4-5.6-1.1c-1.6-0.7-3-1.8-4.1-3.1c-1.1-1.3-1.9-2.8-2.5-4.6c-0.6-1.7-0.8-3.6-0.8-5.6c0-2.4,0.4-4.5,1.1-6.3
		c0.7-1.8,1.7-3.3,2.9-4.5c1.2-1.2,2.6-2.1,4.2-2.7c1.6-0.6,3.1-0.9,4.7-0.9c1.6,0,3.2,0.3,4.7,0.9c1.6,0.6,2.9,1.5,4.2,2.7
		C489.2,260.2,490.1,261.7,490.9,263.5z M488.3,269.8c0-1.4-0.2-2.9-0.5-4.4c-0.3-1.5-0.9-2.8-1.6-4c-0.7-1.2-1.7-2.2-2.9-2.9
		c-1.2-0.8-2.6-1.1-4.3-1.1c-1.7,0-3.2,0.4-4.3,1.1c-1.2,0.8-2.1,1.7-2.9,2.9c-0.7,1.2-1.3,2.5-1.6,4c-0.3,1.5-0.5,2.9-0.5,4.4
		s0.2,2.9,0.5,4.4c0.3,1.5,0.9,2.8,1.6,4s1.7,2.2,2.9,2.9c1.2,0.7,2.6,1.1,4.3,1.1c1.7,0,3.1-0.4,4.3-1.1c1.2-0.7,2.1-1.7,2.9-2.9
		c0.7-1.2,1.3-2.5,1.6-4C488.1,272.7,488.3,271.3,488.3,269.8z M513.8,256.4c0.6,0,1,0.1,1.3,0.2c0.3,0.1,0.5,0.4,0.6,0.6
		c0.1,0.3,0.2,0.6,0.2,1c0,0.4,0,0.9,0,1.4v14.8c0,2.4-0.7,4.2-2,5.6c-1.3,1.4-3.2,2-5.6,2c-2.6,0-4.5-0.7-5.7-2.2
		c-1.2-1.5-1.7-3.4-1.7-5.9v-15.6c0-0.5,0-0.8,0.1-1.1c0.1-0.3,0.2-0.5,0.3-0.6c0.1-0.1,0.4-0.2,0.6-0.2c0.3,0,0.6,0,1,0V256h-7.6
		v0.4h0.6c0.7,0,1.1,0.2,1.3,0.6c0.1,0.4,0.2,0.9,0.2,1.5v15.5c0,3.3,0.9,5.8,2.7,7.6c1.8,1.8,4.3,2.7,7.6,2.7
		c3.3,0,5.8-0.9,7.6-2.6c1.8-1.7,2.7-4.3,2.7-7.6v-14.3c0-0.3,0-0.6,0-1c0-0.4,0-0.7,0.1-1.1s0.2-0.6,0.4-0.8
		c0.2-0.2,0.5-0.3,0.9-0.3h0.6V256h-6.5V256.4z M544.1,256.4c0.6,0,1,0.1,1.3,0.2c0.3,0.1,0.5,0.3,0.7,0.5s0.2,0.6,0.2,0.9
		c0,0.4,0,0.8,0,1.4v18.9c-2.5-3.8-5.1-7.5-7.6-11.2c-2.6-3.6-5.1-7.4-7.6-11.2h-5.4v0.4c0.4,0,0.7,0,0.9,0.1c0.2,0,0.4,0.1,0.5,0.2
		c0.1,0.1,0.3,0.3,0.4,0.5c0.1,0.2,0.2,0.5,0.4,0.9v22.2c0,0.5,0,1,0,1.4c0,0.4-0.1,0.7-0.2,0.9c-0.1,0.2-0.4,0.4-0.7,0.5
		c-0.3,0.1-0.7,0.2-1.3,0.2v0.4h6.6v-0.4c-0.5,0-1-0.1-1.3-0.2c-0.3-0.1-0.5-0.3-0.6-0.5s-0.2-0.6-0.2-0.9c0-0.4,0-0.8,0-1.3v-19.9
		l16.4,23.4h2.1v-24.4c0-0.5,0-1,0-1.3c0-0.4,0.1-0.7,0.2-0.9s0.3-0.4,0.6-0.6c0.3-0.1,0.7-0.2,1.3-0.2V256h-6.6V256.4z M575.3,256
		h-21.5l-0.2,4.9h0.4c0.2-1.1,0.6-1.8,1.1-2.2c0.5-0.4,1.3-0.6,2.3-0.6h5.4v23.2c0,0.5,0,0.9-0.1,1.1c-0.1,0.3-0.2,0.5-0.3,0.6
		c-0.2,0.1-0.4,0.2-0.7,0.2c-0.3,0-0.6,0-1.1,0v0.4h7.9v-0.4c-0.5,0-0.8,0-1.1,0c-0.3,0-0.5-0.1-0.7-0.2c-0.2-0.1-0.3-0.3-0.3-0.6
		c-0.1-0.3-0.1-0.6-0.1-1.1V258h5.3c1.1,0,1.9,0.2,2.3,0.6c0.5,0.4,0.8,1.1,1,2.2h0.4L575.3,256z"/>
	<path d="M615.9,256h6.2v0.4c-0.4,0-0.8,0-1,0.1c-0.3,0-0.5,0.1-0.6,0.3c-0.1,0.1-0.2,0.3-0.3,0.6c0,0.3-0.1,0.6-0.1,1.1v22.8
		c0,0.5,0,0.8,0.1,1.1c0,0.3,0.1,0.5,0.3,0.6c0.1,0.1,0.3,0.2,0.6,0.3c0.3,0,0.6,0.1,1,0.1v0.4h-7.5v-0.4c0.4,0,0.8,0,1.1-0.1
		c0.3,0,0.5-0.1,0.6-0.3c0.1-0.1,0.3-0.3,0.3-0.6c0.1-0.3,0.1-0.6,0.1-1.1v-22.1l-10.5,24.5h-1.4l-10.5-23.9v20.5c0,0.5,0,1,0,1.3
		c0,0.4,0.1,0.7,0.2,1c0.1,0.3,0.3,0.4,0.6,0.6c0.3,0.1,0.7,0.2,1.3,0.2v0.4H590v-0.4c0.6,0,1-0.1,1.3-0.2c0.3-0.1,0.5-0.3,0.7-0.6
		c0.1-0.2,0.2-0.6,0.2-0.9c0-0.4,0-0.8,0-1.4v-21.8c0-0.5,0-0.9-0.1-1.1c-0.1-0.3-0.2-0.5-0.3-0.6c-0.2-0.1-0.4-0.2-0.7-0.2
		c-0.3,0-0.6,0-1.1,0V256h6.4l9.9,22.6L615.9,256z M644.3,256v0.4c0.2,0,0.5,0,0.7,0.1c0.2,0,0.4,0.1,0.6,0.2
		c0.1,0.1,0.2,0.3,0.2,0.4c0,0.2-0.1,0.4-0.2,0.7l-7.2,11.4l-7.3-11.2c-0.2-0.4-0.4-0.6-0.4-0.9c0-0.2,0-0.4,0.2-0.5
		s0.3-0.2,0.6-0.2c0.3,0,0.6-0.1,0.9-0.1V256h-7.7v0.4c0.7,0,1.1,0.2,1.4,0.5c0.3,0.3,0.6,0.7,1,1.3l9,13.4v9.7c0,0.5,0,0.9-0.1,1.1
		c-0.1,0.3-0.2,0.5-0.4,0.6c-0.2,0.1-0.4,0.2-0.7,0.2c-0.3,0-0.7,0-1.1,0v0.4h8.2v-0.4c-0.5,0-0.8,0-1.1,0c-0.3,0-0.5-0.1-0.7-0.2
		c-0.2-0.1-0.3-0.3-0.4-0.6c-0.1-0.3-0.1-0.7-0.1-1.1v-9.8l8.7-13.4c0.6-1,1.4-1.5,2.5-1.6V256H644.3z"/>
</g>
</svg>
