<?xml version="1.0" encoding="utf-8"?>
<!-- Generator: Adobe Illustrator 18.0.0, SVG Export Plug-In . SVG Version: 6.00 Build 0)  -->
<!DOCTYPE svg PUBLIC "-//W3C//DTD SVG 1.1//EN" "http://www.w3.org/Graphics/SVG/1.1/DTD/svg11.dtd">
<svg version="1.1" id="Layer_1" xmlns="http://www.w3.org/2000/svg" xmlns:xlink="http://www.w3.org/1999/xlink" x="0px" y="0px"
	 viewBox="0 0 720 720" style="enable-background:new 0 0 720 720;" xml:space="preserve">
<g>
	<path d="M633.3,570c-0.4-1.1-1-1.9-2-2.4s-2-0.7-3.1-0.6c-1.1,0.1-2,0.8-2.8,2l-2.2,3.1c-1.5,2.1-3.4,4.9-5.7,8.5
		c-2.3,3.6-5.1,7.5-8.3,11.8c-3.2,4.3-6.6,8.6-10.3,13.1c-10.1,12-19,20.2-26.8,24.6c-3.9,2.2-7.5,3.3-10.7,3.3s-5.9-0.8-8.3-2.4
		c-2.3-1.6-4.3-3.9-5.9-7c-1.6-3.1-2.8-6.4-3.5-10.1c-1.2-6.4-1.6-12.9-1.1-19.5c7.1,0,15.2-2.1,24.3-6.3c5.6-2.7,10.7-5.8,15.1-9.2
		c4.4-3.4,7.6-7,9.6-10.7c3.9-7.1,5.5-13.5,4.8-19.1c-0.7-5.6-3-10.2-6.8-13.6c-3.8-3.4-8.6-5.5-14.5-6.3
		c-5.9-0.7-12.1,0.2-18.8,2.9c-9.3,3.9-16.4,10-21.3,18.2c-3.5,5.8-6.3,11.8-8.4,17.9c-0.2,0.2-0.3,0.4-0.4,0.6
		c-4.4,12.5-8.8,23.8-13.1,34c-4.3,10.2-8.3,18.8-11.9,25.9c-4.2,8.1-7.4,13.6-9.7,16.5c-2.3,2.9-4.2,4.8-5.7,5.5
		c-0.5-0.5-1.1-1.9-1.8-4.2c-0.7-2.3-1.1-6.6-1.1-12.7c0-7.1,0.5-15,1.5-23.5c1-8.6,1.8-17.3,2.4-26.1c0.6-8.8,0.8-17.3,0.6-25.6
		s-1.6-15.6-4-22.2c-1.2-3.7-3.2-6.5-5.9-8.5s-5.6-3.1-8.8-3.5c-3.2-0.4-6.5,0.2-9.9,1.7c-3.4,1.5-6.6,3.8-9.6,7
		c-5.6,6.1-10.5,14.2-14.5,24.3c-4,10-7,20-9,29.8c0-1-0.1-1.9-0.2-2.8c-0.1-0.9-0.2-1.8-0.2-2.8c-0.5-6.6-1-12.9-1.7-18.9
		s-2-11-4.2-14.9c-2-3.7-5.1-5.6-9.6-5.9s-8.5,1-12.1,3.7c-4.2,3.2-8.2,8.2-12.1,14.9s-7.4,15.4-10.3,25.9c-1,2.9-1.8,5.8-2.4,8.6
		c-0.6,2.8-1.2,5.6-1.7,8.3c-0.7-6.6-1-13.3-0.7-20s0.6-12.7,0.9-18c0.4-5.3,0.8-9.7,1.3-13.2s0.7-5.6,0.7-6.1c0-4.2-2.7-6.5-8.1-7
		c-2.7-0.2-5.5,0.6-8.3,2.6s-4.6,5.3-5.3,9.9c0,0.5-0.3,3.5-0.9,9c-0.3,2.4-0.5,5-0.7,7.8c-0.1,0.1-0.2,0.3-0.2,0.5
		c-2.2,5.1-4.8,10-7.7,14.7c-2.7,4.2-6.1,8.5-10.1,12.9s-8.9,8-14.5,10.7c-3.2,1.7-6.4,2.6-9.6,2.6c2-6.4,3.1-12.7,3.3-19.1
		c0.2-1.5,0.4-3.4,0.4-5.9s-0.1-5.1-0.2-7.9c-0.1-2.8-0.6-5.5-1.3-8.1c-0.7-2.6-1.7-4.8-2.9-6.8c-1.5-2.2-3.1-3.6-4.8-4
		s-3.2-0.6-4.4-0.4c-5.4,0.5-9.3,4.7-11.8,12.5c-1,3.4-1.6,7.2-1.8,11.4c-0.2,4.2,0,8.3,0.7,12.3c0.7,4,2,7.8,3.7,11.4
		c1.7,3.6,3.9,6.4,6.6,8.6c0.5,0.2,1,0.6,1.5,1.1c-1.5,4.7-3.9,8.9-7.4,12.9s-7.2,6.7-11.2,8.3c-4,1.6-8.2,1.8-12.3,0.6
		s-7.8-4.7-11-10.3c-4.2-7.6-6.3-17.4-6.3-29.4c0-4.2,0.6-9.5,1.7-16s2.8-12.8,5.1-18.9c2.3-6.1,5.4-11.4,9.2-15.8
		c3.8-4.4,8.4-6.6,13.8-6.6c3.4,0,7,1.2,10.8,3.5c3.8,2.3,5.7,5.2,5.7,8.6c0.2,1.2,0.9,2.1,1.8,2.8c1,0.6,2.1,0.7,3.3,0.2
		c1.2-0.2,2.2-0.9,2.9-1.8s0.9-2.1,0.4-3.3c-0.7-4.9-3.1-8.9-7.2-12.1s-8.3-5.3-12.7-6.3c-10-2.2-18.6-1.6-25.6,1.8
		c-7,3.4-12.7,8.4-17.3,14.9c-4.4,6.3-7.6,13.4-9.7,21.5c0,0,0,0,0,0.1c-3.4,10.8-7.4,20.2-12,28.3c-4.5,8.1-9.1,15-13.6,20.8
		s-8.8,10.4-12.9,13.8s-7.4,5.9-10.1,7.4h-0.4c0.2-5.9,0.6-10.4,0.9-13.6c0.4-3.2,0.8-6.1,1.3-8.8c0.7-5.1,1.5-10.4,2.2-15.8
		s1.1-10.6,1.1-15.6s-0.4-9.6-1.3-13.6c-0.9-4-2.5-7.4-5-10.1c-2.9-3.7-7.2-5.5-12.9-5.5c-5.9,0.2-11.2,2.7-15.8,7.4
		c-4.7,4.7-8.8,10.2-12.3,16.5c-3.6,6.4-6.5,12.9-8.8,19.5s-4.1,12-5.3,16.2c-3.4,11.3-5.9,21.3-7.4,30.2c-2-8.8-3.4-19.5-4.2-32
		c-0.9-12.5-1.2-25.9-0.9-40.1c9.8-4.9,19.3-12.6,28.5-23c9.2-10.4,17.6-22.7,25.2-37c4.9-9.8,8.9-19.4,12-28.7
		c3.1-9.3,5-17.9,5.7-25.7c1.2-11.5-0.4-20-5-25.4s-10.4-8.4-17.5-9c-7.1-0.6-14.5,0.8-22.2,4.2c-7.7,3.4-14,8.2-18.9,14.3
		c-6.4,8.1-11.3,17.5-14.7,28.3c-3.4,10.8-6,21.2-7.7,31.3c-1,6.4-2,14.2-3.1,23.3c-1.1,9.2-2,18.9-2.6,29.2c-0.6,10.3-1,21-1.1,32
		c-0.1,11,0.2,21.6,1.1,31.8c0.9,10.2,2.3,19.6,4.2,28.3c2,8.7,4.7,16,8.1,21.9c1.2,2.2,3,3.9,5.3,5.1c2.3,1.2,4.6,1.8,6.8,1.7
		c2.2-0.1,4.2-0.9,5.9-2.4c1.7-1.5,2.6-3.8,2.6-7c-0.5-8.6,0.2-17,2-25.2c1.8-8.2,4-16.1,6.4-23.7c1.2-4.4,2.6-9.1,4.2-14
		c1.6-4.9,3.5-9.7,5.7-14.3c2.2-4.7,4.8-9,7.7-13.1s6.3-7.3,9.9-9.7c1.7,2,2.8,4.8,3.3,8.5s0.7,7.8,0.6,12.5s-0.5,9.4-1.1,14.3
		s-1.3,9.4-2,13.6c-0.5,4.2-1,8-1.5,11.4s-0.7,6.5-0.7,9.2c0,4.2,0.9,7.3,2.6,9.4s3.8,3.5,6.3,4.2c2.5,0.7,5.1,0.9,8.1,0.4
		s5.6-1.3,8.1-2.6c6.6-3.4,12.7-8.1,18.4-14c5.6-5.9,10.7-12.3,15.3-19.3c2.9-4.5,5.6-9.1,8-13.8c0.3,5.7,1,11.1,2.3,16
		c1.8,7,4.5,12.8,7.9,17.5c5.1,6.6,11.2,10.8,18,12.5c6.9,1.7,13.6,1.6,20.2-0.4c6.6-2,12.6-5.5,18-10.7c5.4-5.1,9.2-11.2,11.4-18
		c4.7,0.7,10.1-0.4,16.2-3.3c6.6-3.2,12.2-7.2,16.7-12c4.5-4.8,8.2-9.4,11.2-13.9c0.1,5.2,0.3,10.5,0.8,16.1
		c0.7,8.7,2.3,16.6,4.8,23.7c0.7,2.5,2.1,4.4,4.2,5.7c2.1,1.3,4.2,2.1,6.4,2.4c2.2,0.2,4.4-0.2,6.4-1.5c2.1-1.2,3.6-3.2,4.6-5.9
		c0-6.6,0.7-13.3,2-20c1.3-6.7,3-13.7,5-20.8c4.9-16.4,10.3-27.6,16.2-33.5c0.5,0.7,0.9,1.7,1.3,2.9s0.7,2.8,0.9,4.8
		c0.5,2.9,0.9,6.2,1.3,9.7s0.7,7.2,0.9,10.8c0.5,7.1,1.1,13.7,1.8,19.9s2.5,10.8,5.1,14c1.5,1.7,3.3,3.1,5.5,4
		c2.2,1,4.4,1.5,6.4,1.5s3.9-0.7,5.5-2c1.6-1.3,2.5-3.5,2.8-6.4c-0.5-5.1-0.2-11.2,0.9-18.2c1.1-7,2.7-14,4.8-21.1
		c2.1-7.1,4.7-13.8,7.7-20.2c3.1-6.4,6.6-11.6,10.5-15.8c2.7-2.7,4.8-2.5,6.3,0.7c1.5,3.2,2.5,8,2.9,14.5s0.6,14,0.4,22.6
		c-0.2,8.6-0.6,16.8-0.9,24.6c-0.4,7.8-0.8,14.8-1.3,21s-0.7,9.9-0.7,11.4c0,2.7,0.2,5.7,0.6,9c0.4,3.3,1.2,6.4,2.4,9.4
		c1.2,2.9,2.9,5.5,5.1,7.5c2.2,2.1,5.1,3.1,8.8,3.1s7-0.9,9.9-2.8c2.9-1.8,5.6-4.2,8.1-7c2.5-2.8,4.7-5.9,6.6-9.4s3.7-6.6,5.1-9.6
		c3.7-7.4,7.7-16.3,12.1-26.8c0.3-0.7,0.6-1.4,0.9-2.1c0.2,3.5,0.7,6.9,1.3,10.2c1.2,6.9,3.7,12.4,7.5,16.7
		c3.8,4.3,8.2,7.4,13.1,9.2c4.9,1.8,10.2,2.5,16,1.8c5.8-0.6,11.2-2.4,16.4-5.3c5.9-3.4,11.3-7.5,16.2-12.1
		c4.9-4.7,9.4-9.6,13.6-14.7c3.9-4.7,7.5-9.2,10.8-13.6s6.1-8.4,8.5-12s4.2-6.4,5.7-8.6s2.2-3.4,2.2-3.7
		C633.4,572.3,633.6,571.1,633.3,570z M550.3,562.9c2.9-7.4,7.6-13.4,14-18c4.4-3.4,8.4-5.2,12-5.3c3.6-0.1,6.3,0.9,8.3,3.1
		s2.9,5.2,2.9,9s-1.2,7.9-3.7,12.3c-1.5,2.7-3.8,5.3-7,7.7c-3.2,2.5-6.7,4.7-10.7,6.8c-3.9,2.1-7.8,3.7-11.8,5
		c-3.9,1.2-7.5,2-10.7,2.2C545.2,577.8,547.4,570.2,550.3,562.9z M121.1,499.3c3.8-19.4,8.9-34.7,15.3-46
		c3.4-6.1,7.7-10.9,12.7-14.3c5-3.4,9.7-5.1,14.2-5s8,2.2,10.7,6.3c2.7,4,3.4,10.5,2.2,19.3c-0.7,7.1-2.5,15.1-5.3,23.9
		c-2.8,8.8-6.7,17.8-11.6,26.8c-6.4,12-13.5,22.7-21.3,32.2c-7.8,9.4-15.8,16.6-23.9,21.5C114.9,540.2,117.3,518.6,121.1,499.3z
		 M302.5,588.4c-0.2,4.3-0.9,8.5-1.8,12.7c-0.2,1-0.4,1.8-0.6,2.6s-0.3,1.6-0.6,2.6c-1.5-1.7-2.8-4-3.9-6.8s-1.8-5.8-2.2-9
		c-0.4-3.2-0.5-6.3-0.4-9.4c0.1-3.1,0.6-5.8,1.3-8.3c1.5-4.2,2.9-6.3,4.4-6.3c0.5,0,1,0.7,1.7,2.2s1.2,4.2,1.7,8.1
		C302.6,580.3,302.8,584.1,302.5,588.4z"/>
	<path d="M580.4,201.6c-2.7-1-4.7-0.1-6,2.6c-4.5,12-11,22.9-19.4,32.9c-8.5,10-17.7,19.3-27.7,28c0.5-4.7,0.9-9.5,1.1-14.4
		c0.2-4.9,0.4-9.8,0.4-14.8c0.2-10.2,0.3-19.8,0.2-28.6c-0.1-8.8-0.4-16.6-0.7-23.2c-0.4-6.6-0.7-11.8-0.9-15.7l-0.4-5.8
		c0-2.7-1-4.8-3-6.2s-4.2-2.1-6.7-2.1c-2.5,0-4.9,0.6-7.3,1.9s-3.8,3.1-4.3,5.6c-2.2,11.7-4.7,22.9-7.5,33.7
		c-2.7,10.7-6.5,21.1-11.2,31c-2.5,5.2-5.2,10-8,14.2c-2.9,4.2-5.5,6.9-8,8c-2.5,1.1-4.7,0.3-6.5-2.4s-3.2-8.5-3.9-17.2
		c-0.5-5.2-0.4-10.8,0.4-16.6c0.7-5.9,1.7-11.5,3-17s2.6-10.5,4.1-15.1c1.5-4.6,2.9-8.3,4.1-11c0.2-0.5,0.4-1.2,0.4-2.2
		c0-1.7-0.7-3.2-2.2-4.5c-3.5-2-7-2.4-10.5-1.1c-3.5,1.2-6.2,3.3-8,6.2c-1.9,2.9-3.1,4.8-3.6,5.8c-2.7,8.2-5,16.7-6.7,25.4
		c-0.3,1.6-0.6,3.2-0.9,4.8c-0.1,0.2-0.2,0.3-0.3,0.5c0,0.2-1.4,3.7-4.1,10.3s-6.1,13.9-10.1,21.9c-4.2,8.2-7.8,14.5-10.7,18.7
		c-2.9,4.2-5.3,7.4-7.3,9.3h-0.4c-1.2,1.5-2.3,2.4-3.2,2.8s-1.4,0.6-1.7,0.6c-0.2,0-0.6-0.1-0.9-0.2c-0.4-0.1-0.8-0.7-1.3-1.7
		c-7-10.7-8.4-29.7-4.1-56.8c0.7-5.2,1.6-10.2,2.4-14.8c0.9-4.6,1.7-8.7,2.6-12.2c0.9-3.5,1.6-6.2,2.2-8.2l0.9-3
		c1.2-5,1.1-8.4-0.6-10.1c-1.6-1.7-2.9-2.9-3.9-3.4c-2.7-1.2-5.8-0.8-9.2,1.3c-3.4,2.1-5.9,5.2-7.7,9.2v0.4
		c-0.2,0.2-0.8,2.1-1.7,5.4s-1.9,7.9-3.2,13.6c-0.2,0.2-0.4,0.7-0.4,1.5c-5-9-12.1-13.5-21.3-13.5c-4.2,0-8.6,1-13.1,3
		c-4.5,2-8.6,5-12.3,9c-4.9,4.9-8.9,10.8-11.8,17.6c-2.3,3.3-4.9,6.2-7.8,8.6c-3.6,3-7.7,5.5-12.2,7.5c-4.5,2-9.3,3.7-14.6,5
		c-5.2,1.4-10.6,2.6-16.1,3.6c0-0.7,0.1-1.5,0.2-2.2c0.1-0.7,0.2-1.5,0.2-2.2c2.7-21.9,4.2-43.8,4.5-65.4c0.2-21.7,0.1-41-0.4-58
		c-0.2-10.5-0.3-19.6-0.2-27.3c0.1-7.7,0.4-13.2,0.9-16.5c1.5-4.2,0.9-8.1-1.9-11.6c-2.7-3.2-6.2-4.2-10.5-3
		c-1.2,0.5-2.8,1.6-4.7,3.2s-3.3,4.7-4.3,9.2c-0.2,1.2-0.4,2.7-0.6,4.3c-0.1,1.6-0.2,3.4-0.2,5.4c-1,6.5-2.5,15.6-4.5,27.5
		c-2,11.8-4.9,24.4-8.6,37.6c-2.2,8-4.9,16.2-8,24.7s-6.7,16.3-10.8,23.4s-8.8,13.3-14.2,18.5c-5.4,5.2-11.3,8.6-17.8,10.1
		c-0.2,0-0.4-0.1-0.4-0.2c0-0.1-0.1-0.2-0.4-0.2c-3.5-1.5-6-4.9-7.7-10.3c-1.6-5.4-2.6-12.4-3-21.1c-0.4-8.7-0.2-19.1,0.4-31.2
		c0.6-12.1,1.3-25.7,2.1-40.9c0-5.7-0.4-11.3-1.1-16.8c-0.7-5.5-2.2-10.5-4.3-15c-2.1-4.5-5-8.4-8.8-11.6c-3.7-3.2-8.6-5.5-14.6-6.7
		c-5.2-1-10.5-1-15.9,0s-10.5,2.7-15.3,5.2c-4.9,2.5-9.3,5.5-13.3,9.2c-4,3.6-7.2,7.4-9.7,11.4c-6.2,10.2-9.4,18.4-9.5,24.7
		s0.8,11.1,2.8,14.6c2.2,4,5.1,6.7,8.6,8.2c3.5,1.5,7.1,2.1,10.8,1.7c3.7-0.4,7.3-1.6,10.7-3.6c3.4-2,6-4.5,8-7.5
		c1.7-3.2,2.3-6.1,1.7-8.6c-0.6-2.5-1.7-4.2-3.4-5.2c-1.6-1-3.5-1.2-5.6-0.6c-2.1,0.6-3.9,2.3-5.4,5c-1.2,2-2.6,3.8-4.1,5.4
		c-1.5,1.6-3.1,2.9-4.7,3.7c-1.6,0.9-3.2,1.1-4.9,0.7c-1.6-0.4-2.9-1.7-3.9-3.9C93.7,107,96,97.1,104,83.8c2.2-3.7,5-7.1,8.2-10.1
		c3.2-3,6.7-5.4,10.3-7.3c3.6-1.9,7.3-3.1,11-3.7c3.7-0.6,7.1-0.4,10.1,0.6c5.2,1.7,9.1,5.7,11.6,12c2.5,6.2,3.4,15.3,2.6,27.3
		c-1,15-1.8,28.4-2.4,40.2c-0.6,11.8-0.7,22.2-0.2,31.2c0.2,10,1.2,17.9,2.8,23.7c1.6,5.9,4.2,10.4,7.7,13.6
		c5,4.5,11.6,6.2,19.8,5.2c15-1.5,28.2-11.2,39.6-29.2c9-14,16.6-32,22.8-54.2c0.7-2.7,1.4-5.5,2.1-8.2c0.6-2.7,1.3-5.5,2.1-8.2
		c0.2,16.2,0.1,33.8-0.4,52.9s-1.9,38-4.1,56.7c-0.2,1.2-0.4,2.4-0.4,3.4s-0.1,2.1-0.4,3.4c-9,1.5-17.9,2.9-26.9,4.3
		c-9,1.4-17.8,3.1-26.4,5.2c-8.6,2.1-17,4.9-25.1,8.2c-8.1,3.4-15.9,7.9-23.4,13.6c-11.5,9-18.8,18.1-21.9,27.5
		c-3.1,9.3-3.2,18-0.4,26c2.9,8,8.2,15,15.9,20.9c7.7,6,16.6,10,26.7,12.2s20.7,1.9,31.8-0.6c11.1-2.5,21.5-8.2,31.2-17.2
		c6.2-6,11.6-12.7,16.1-20.2s8.2-15.4,11.2-23.7c3-8.4,5.4-16.8,7.1-25.4c1.7-8.6,3.2-16.9,4.5-24.9c6.5-1,12.7-2.2,18.7-3.7
		c6-1.5,11.7-3.4,17-5.6c4-1.7,7.8-3.8,11.2-6.2c-0.6,3.9-0.9,7.6-0.9,11.1c0,5,0.4,9.5,1.1,13.5c1.2,5,3,8.7,5.2,11s4.4,4.1,6.4,5
		c1.7,0.7,3.7,1.1,6,1.1c9.5,0,18.8-6.9,28-20.6c1.7-2.7,3.7-5.9,6-9.5c2.2-3.6,4.5-7.7,6.7-12.2c-1.5,21.2,1,37.1,7.5,47.9
		c3,5,8,7.7,15,8.2c0.2,0.3,0.7,0.4,1.5,0.4c6.7,0,12.6-2.9,17.6-8.6c2.5-2.5,5.3-6.1,8.4-10.8c3.1-4.7,6.8-11.2,11-19.4
		c1.8-3.6,3.5-7,5.1-10.3c1,14.2,5.3,23.5,12.8,27.9c6,3.7,12.5,4.2,19.4,1.5c14.2-6.5,26.2-28,35.9-64.7c0.2,5.7,0.4,12.1,0.6,19.1
		c0.1,7,0.1,14.2-0.2,21.7c-0.5,8.7-1,17.1-1.5,25.1c-0.5,8-1.2,15.7-2.2,23.2l-16.8,12.3c-8.7,6.2-16.6,12-23.7,17.4
		c-7.1,5.4-12.9,10.8-17.4,16.3c-7.5,8.7-11.8,17-13.1,24.9c-1.2,7.9-0.5,14.7,2.2,20.6c2.7,5.9,7,10.5,12.9,13.8s12.2,4.9,19.1,4.5
		c6.9-0.4,13.7-2.9,20.6-7.5c6.9-4.6,12.7-11.9,17.4-21.9c4-8.5,7.5-17.9,10.7-28.2c3.1-10.3,5.7-21.9,7.7-34.6
		c0.5-3.7,1-7.5,1.5-11.4s1-7.9,1.5-12.2c12-9.5,23-20,33.1-31.6c10.1-11.6,18-24.5,23.7-38.7C584,204.9,583.1,202.9,580.4,201.6z
		 M210.2,328c-7.5,6.7-15.3,11-23.6,12.7s-16,1.6-23.4-0.4s-13.7-5.4-19.1-10.3c-5.4-4.9-9-10.5-11-17c-2-6.5-1.7-13.3,0.7-20.6
		c2.5-7.2,8-14.2,16.5-20.9c7-5.2,14.3-9.5,21.9-12.9c7.6-3.4,15.5-6,23.6-8c8.1-2,16.3-3.6,24.7-4.7s16.6-2.3,24.9-3.6
		C238.6,284.3,226.9,312.8,210.2,328z M362.3,223.7c-3.7,6.5-7,11.8-9.7,16.1c-2.5,3.5-4.8,6.4-6.9,8.6c-2.1,2.2-4.2,4-6.2,5.2
		c-2-2.2-3.4-6.1-4.3-11.6c-0.9-5.5-0.3-12.8,1.7-22.1c2-9.7,5.5-17.4,10.5-23c5-5.6,9.8-9.3,14.6-11l0.4-0.4
		c5.2,2.2,8.8,7.6,10.8,16.1C369.7,209.9,366.1,217.2,362.3,223.7z M494.7,331.6c-3,10.8-6.5,20.5-10.5,29c-4,8-8.2,13.8-12.7,17.4
		c-4.5,3.6-8.8,5.5-12.9,5.6c-4.1,0.1-7.7-1.1-10.7-3.7c-3-2.6-5-6.2-6.2-10.7c-1.1-4.5-0.9-9.7,0.6-15.5s4.9-11.9,10.1-18.1
		c4.2-5,9.8-10.1,16.6-15.3c6.9-5.2,14.5-10.8,23-16.8c1.7-1.2,3.4-2.4,5-3.6c1.6-1.1,3.3-2.3,5-3.6
		C500.2,309,497.7,320.7,494.7,331.6z M611.8,132.1v0.4v0.4v0.7v2.6v5.2v6v6.2c0,2.1-0.1,4.3-0.4,6.5v6.7c-0.2,1.2-0.4,2.4-0.4,3.4
		v3.4c0,1.2-0.1,2.4-0.2,3.6c-0.1,1.1-0.2,2.3-0.2,3.6c-0.2,1.2-0.4,2.4-0.4,3.6v3.6c-0.2,2.2-0.4,4.5-0.6,6.9
		c-0.1,2.4-0.3,4.7-0.6,6.9c-0.2,1.2-0.4,2.4-0.4,3.4s-0.1,2.1-0.4,3.4c0,1.2-0.1,2.4-0.2,3.4s-0.2,2.1-0.2,3.4
		c-0.5,2.2-0.8,4.4-0.9,6.5c-0.1,2.1-0.3,4.2-0.6,6.2c-0.2,0.5-0.4,1.5-0.4,3c-0.2,0.5-0.4,1.4-0.4,2.6c-0.5,2.5-0.7,4.4-0.7,5.6
		c-0.5,1.7-0.8,3.4-0.9,5c-0.1,1.6-0.4,3.2-0.9,4.7c-0.2,1-0.9,2.5-1.9,4.5c-0.5,0.5-0.9,1.1-1.3,1.9s-0.8,1.4-1.3,1.9
		c-1.2,0.7-2.5,1.4-3.7,1.9h-3.4c-0.7,0-1.2-0.1-1.5-0.4h-0.7c-2-0.5-2.7-1.9-2.2-4.1c0.2-0.5,0.4-1.1,0.4-1.9s0.1-1.7,0.4-3
		c0.2-2,0.4-4.2,0.6-6.5s0.4-5,0.9-8c0.2-3.2,0.4-6.6,0.6-10.1c0.1-3.5,0.3-7.1,0.6-10.8c0.2-4,0.4-8,0.4-12c0-4,0.1-8,0.4-12
		c0.2-8.2,0.4-16.3,0.4-24.1s-0.2-14.8-0.7-20.8c0-3-0.1-5.7-0.2-8.2s-0.3-4.6-0.6-6.4c-0.2-1-0.4-2-0.4-3c-1.2-1.5-1.5-3.1-0.7-4.9
		c0.7-1.7,2.2-2.6,4.5-2.6h0.4l2.2-0.7h3.4h2.4c0.9,0,1.8,0.3,2.8,0.7c1,0.5,1.9,1.1,2.6,1.9c1.2,0.7,2,1.6,2.2,2.6
		c1.2,2,1.9,4,1.9,6C611.4,131.3,611.5,131.8,611.8,132.1z M600.5,270.4c1.7,3.7,2.6,7,2.6,9.7s-1.1,5-3.4,6.9
		c-2.2,1.9-5,2.8-8.2,2.8s-6-0.9-8.2-2.8c-2.2-1.9-3.4-4.2-3.4-6.9c0-1.2,0.4-2.7,1.1-4.5c0.7-1.7,1.7-3.4,3-5s2.7-3,4.3-4.1
		s3.2-1.7,4.7-1.7C596.3,264.8,598.8,266.7,600.5,270.4z"/>
	<path d="M264.5,428.7c-0.9,0.5-1.8,1.4-2.6,2.7l-19.4,29.9v22.1c0,1.7,0.2,2.9,0.7,3.5s1.5,1,3.1,1h1.6v0.9h-18.3v-0.9h1.5
		c1.6,0,2.6-0.3,3.1-1s0.7-1.8,0.7-3.5v-21.8l-20.2-29.9c-0.6-0.9-1.1-1.6-1.6-2.2c-0.5-0.5-0.9-0.9-1.2-1.1
		c-0.4-0.2-0.7-0.4-1.1-0.5c-0.4-0.1-0.9-0.1-1.4-0.1v-0.9h17.3v0.9c-1.6,0-2.8,0.2-3.4,0.6c-0.2,0.2-0.3,0.4-0.3,0.7
		c0,0.3,0.1,0.6,0.2,1c0.1,0.4,0.3,0.8,0.6,1.3l16.4,25.2l16.2-25.5c0.3-0.6,0.5-1.1,0.5-1.5l-0.1-0.7c-0.2-0.7-1.3-1.1-3.2-1.1
		v-0.9h14.3v0.9C266.4,427.9,265.4,428.2,264.5,428.7z M313.3,434.6c5.4,5.9,8.1,13.7,8.1,23.2c0,9.5-2.7,17.2-8.1,23.2
		c-5.3,5.9-12.3,8.9-21,8.9c-8.7,0-15.7-3-21-8.9c-5.3-5.9-8-13.6-8-23.2s2.7-17.3,8-23.2c5.3-6,12.3-9,21-9
		C301,425.7,307.9,428.7,313.3,434.6z M313.1,457.9c0-8.2-1.9-14.9-5.7-20.1c-3.7-5.2-8.8-7.8-15.1-7.8c-6.4,0-11.5,2.6-15.2,7.8
		c-3.7,5.1-5.6,11.8-5.6,20.1c0,8.2,1.9,14.9,5.6,20.1c3.7,5.1,8.8,7.7,15.2,7.7c6.3,0,11.3-2.6,15.1-7.7
		C311.2,472.8,313.1,466.1,313.1,457.9z M367.9,426.9v0.9h1.4c1.4,0,2.3,0.5,2.7,1.6c0.4,1.1,0.6,3,0.6,5.7v33.1
		c0,5.4-1.5,9.6-4.5,12.6c-3,3-7.1,4.5-12.4,4.5c-11,0-16.6-6.1-16.6-18.2v-34.9c0-1.7,0.2-2.9,0.6-3.5c0.4-0.6,1.3-1,2.7-1h1.3
		v-0.9h-17v0.9h1.4c1.3,0,2.2,0.3,2.7,1c0.4,0.6,0.6,1.8,0.6,3.5v34.7c0,7.4,2,13.1,6,17c4,4,9.7,5.9,17.1,5.9
		c7.4,0,13.1-2,17.1-5.9c4-3.9,6-9.6,6-16.9v-32c0-2.7,0.2-4.7,0.6-5.7c0.4-1.1,1.3-1.6,2.7-1.6h1.4v-0.9H367.9z"/>
	<path d="M468.8,484.9l-24.3-58.7h-4.1l-23.4,56.3c-0.7,1.5-1.5,2.8-2.5,3.8c-1,1-2.1,1.5-3.5,1.6v0.9h13.7v-0.9
		c-1.5,0-2.5-0.3-3.1-0.9c-0.2-0.2-0.4-0.6-0.4-1.2c0-0.6,0.2-1.6,0.7-2.8l5.1-12.8h27.5l5.7,13.9c0.4,0.8,0.5,1.5,0.4,2
		c0,0.5-0.1,0.9-0.4,1.1c-0.6,0.5-1.6,0.7-3.1,0.7v0.9h15.6v-0.9c-0.7-0.1-1.4-0.3-2-0.6C470.2,487,469.5,486.2,468.8,484.9z
		 M428.9,465.7l12.1-29.8l12.1,29.8H428.9z M528.7,483c-0.7-1.4-1.5-2.9-2.2-4.5c-0.8-1.6-1.7-3.1-2.7-4.4c-1.2-1.6-2.3-3-3.4-4.4
		c-1-1.3-2-2.5-2.8-3.6c-0.9-1-2-2.2-3.3-3.6c-1.4-1.3-2.9-2.8-4.7-4.4c5.3-0.7,9.3-2.4,11.9-5.1c2.6-2.7,3.9-5.9,3.9-9.8
		c0-5.4-1.8-9.4-5.4-12.2c-3.6-2.8-8.6-4.2-15.1-4.2h-21.9v0.9h1.3c1.2,0,2,0.3,2.4,1c0.4,0.6,0.6,1.8,0.6,3.5v51.2
		c0,1.7-0.2,2.9-0.6,3.5c-0.4,0.6-1.2,1-2.4,1h-1.3v0.9h16.7v-0.9h-1.3c-1.4,0-2.3-0.3-2.7-1c-0.4-0.6-0.6-1.8-0.6-3.5v-23.5
		l5.7-0.1c4.1,3.1,7,5.6,8.8,7.8c0.9,1.1,2.2,2.7,3.8,4.8c1.6,2.1,3.2,4.3,4.7,6.6c0.5,0.9,1.1,2,1.8,3.1c0.6,1.2,1.2,2.2,1.7,3.2
		c0.5,1,1.1,2.2,1.7,3.5h11.2v-0.9c-1.2,0-2.3-0.5-3.2-1.4C530.3,485.5,529.5,484.4,528.7,483z M499.4,455.5H495v-22.8
		c0.6-0.7,1.4-1.2,2.5-1.3c1.1-0.2,2.6-0.2,4.5-0.2c5,0,8.8,0.9,11.3,2.7c2.6,1.8,3.8,4.6,3.8,8.5c0,4.4-1.6,7.7-4.8,9.9
		C509.3,454.4,504.9,455.5,499.4,455.5z M588.4,477.9l-2.3,10.9h-41.7v-0.9h1.3c1.2,0,2-0.3,2.4-1c0.4-0.6,0.6-1.8,0.6-3.5v-51.2
		c0-1.7-0.2-2.9-0.6-3.5c-0.4-0.6-1.2-1-2.4-1h-1.3v-0.9h40.8l0.1,9.4H584c-0.4-2.4-1.2-3.9-2.4-4.4c-1.1-0.4-2.7-0.6-4.7-0.6h-18.5
		c-1.1,0-1.7,0.1-1.8,0.4c-0.1,0.2-0.2,0.8-0.2,1.7v21H575c2.4,0,3.9-0.3,4.6-0.9c0.7-0.6,1.1-1.8,1.3-3.7h1.2v13.8H581
		c-0.1-0.9-0.3-1.7-0.5-2.3c-0.2-0.6-0.5-1.1-0.9-1.5c-0.4-0.4-1-0.6-1.7-0.8c-0.8-0.2-1.7-0.2-2.9-0.2h-18.6v23.9
		c0,0.9,0.3,1.4,0.9,1.5c0.6,0.2,1.8,0.2,3.6,0.2h15.1c1.5,0,2.7-0.1,3.8-0.2c1.1-0.2,2-0.5,2.9-1c0.9-0.5,1.6-1.1,2.3-2
		c0.7-0.8,1.3-1.9,1.9-3.3H588.4z"/>
</g>
</svg>
