<?xml version="1.0" encoding="utf-8"?>
<!-- Generator: Adobe Illustrator 18.0.0, SVG Export Plug-In . SVG Version: 6.00 Build 0)  -->
<!DOCTYPE svg PUBLIC "-//W3C//DTD SVG 1.1//EN" "http://www.w3.org/Graphics/SVG/1.1/DTD/svg11.dtd">
<svg version="1.1" id="Layer_1" xmlns="http://www.w3.org/2000/svg" xmlns:xlink="http://www.w3.org/1999/xlink" x="0px" y="0px"
	 viewBox="0 0 720 720" style="enable-background:new 0 0 720 720;" xml:space="preserve">
<g>
	<path d="M328.1,638.1c-9.8,2.1-3.3-4.3-7.8-15.5c-4-10.2-16.6-16.1-25.4-8.7c-9.2,7.9-14.7,21.1-14,33.5c-1.6,3.9-3.2,7.6-4.7,11.6
		c-2.7,6.8-4,8.1-7.4,14.2c-0.9,1.6-4.1,4-5.6,3c-5-3.4-5.2-18-5-22.8c0.1-11.7,2.8-27.8,4.4-38.5c0.4-3.3,0-6.2,1-8
		c0.1-0.3,0.3-0.6,0.3-1v-0.6c6.5-1.9,17-1,16.4-4.7c-0.9-4.6-7.2-2.1-9.6-1.9c-7.5,0.3-5,3.5-4.4-10.2c0.3-7.7-6.1-8.4-6.5-4.6
		c-0.1,0.9-4.9,15.7-5.3,16.6c-2.5,4-21,1.9-20.1,5.9c0.7,3.7,7.2,1.6,9.6,1.5c3.8-0.1,6.7-1.2,8-0.6c0,0.4-0.1,2.4-0.1,3
		c-2.5,9.2-3.7,16.3-5,25.7c-1.5,10.1-0.9,14.3-0.6,23.8c0.1,5.9,3,16.1,7.4,20c5.8,5,10.8,0.1,15.4-3.5c2.4-1.5,4-5.6,5.6-7.7
		c1-1.3,5.3-11.1,5.6-12.7c0.4-1.9,0.9-2.9,1.3-3.6c0.9,4.4,2.6,8.5,5.2,12.2c5,5.5,9.2,7.1,16.6,5.6c5.9-1.2,10.2-1.9,13.5-7.4
		c4.6-7.8,3.8-16.6,5-19.1c1.3-3,15.4-1.3,16-3C338.6,637.6,329.6,637.8,328.1,638.1z M309.5,661.3c-15.2,7.1-16.4-17.6-15.4-26.5
		c3.1-16.9,0.9-5,9.9,2.1c4.6,3.4,9.5,4,10.8,4.7C316.6,643,314.3,658.9,309.5,661.3z M314.3,637.5c-4.6-2.1-9.6-7.2-11.7-12
		c-0.7-3.3-2.7-10.9,3.1-10.4c8.3,0.7,9,8,9.8,14.9C315.7,631.9,317.3,638.8,314.3,637.5z"/>
	<path d="M496.7,639.6c-7.1,8-12.1,17.9-22.2,23.8c-10.8,6.4-12.6-17.7-11.7-20c0.9-2.1,11.7-3.3,11.8-3.4c6.2-4.4,9-8.4,5.6-16
		c-2.5-4.3-5.3-7.5-10.6-7.7c-13.9-0.3-18.4,19-18.3,32c-4.2,9.5-9.2,21.2-10.2,23.3c-1.2,2.4-2.5,6.2-4.3,3.1
		c-7-11.8,9.8-49.5-0.6-58.4c-8.3-7-17.7,3.7-22.3,9.9c-1.8,2.5-12,21.1-12.1,21.1c-0.7-1.3,1.6-19.5,1.8-22.8
		c0.4-5.5,3.1-14.8-2.7-17.5c-10.2-4.4-17.6,10.2-20.9,17.5c-5.6,12.6-4.6,19.4-5.8,3.3c-0.7-10.5-11.7-7.8-11.1-4.7
		c1,4.7,1.2,5.9,1.3,10.9c0.4,8.7-0.4,31.6,6.8,36.7c7.7,5.2,7.1-5,6.7-10.1c-0.3-3.5-0.1-3.3-0.1-6.2c0.3-5.2,0.9-9.2,2.4-14.2
		c1.3-4.3,12.4-33,18.2-31.2c4.4,1.3-6.4,44.7,0.9,46.4c3.8-1,8.7-10.4,11.1-13.8c2.8-4,21.1-34.8,18.9-12.9
		c-0.7,8.4-2.4,14.6-2.4,23.5c-0.1,7.2-1.8,26,6.4,28.5c5.3,1.6,6.2-1.3,8.7-5c2.8-4.4,1.2-2.1,2.7-5.5c2.2-4.5,4.8-11.2,7-16.9
		c0,0.2,0.1,0.4,0.1,0.6c2.2,14.9,12.9,20.7,25.3,11.1c9-7.1,15.1-14,21.6-23.5C503.5,634.7,501.3,634.5,496.7,639.6z M470.2,621.7
		c3.7-0.6,4.9,9,4,11.4c-1.6,4.4-10.2,7.2-10.8,4.7C462.5,633.8,467.2,624.5,470.2,621.7z"/>
	<path d="M442.5,257.5c3.8,1,2.8-0.6,4.4,3.4c0.1,0.6-0.9,7.4-4.4,7.5C437.2,267.1,440.1,256.9,442.5,257.5z M439.2,345.6
		c-0.9,6.5-16,9.9-22.9-7.7c-8.9-22.5-2.4-44.1,1-66.4c2.1-13.6-7.5,0.6-9.6,4.4c-6.4,12.4-9.3,22.9-13.3,36.1
		c-0.6,1.8-3.1,9.6-4.3,10.4c-2.5,1.6-7.4-0.1-9-3.1c-4-6.8-4.4-20.9-3.5-34.5c-5.5,11.2-13.2,25.6-13.3,25.6
		c-1.9,3.1-5.6,8.6-8.7,10.5c-2.2,1.8-5.8,2.2-8.4,1.3c-7.4-2.4-12.1-17.6-11.8-25c0.1-4.4,0.3-3.8,0-8.4c-1.2-18.6,1.3-33.7,3-51.6
		c0.3-4-0.1-3.7-4.9-3.4c-28.4,2.2-25.3,12.1-28.8,13.2c-2.5,0.7-5.3,1.3-4.9-2.7c1.3-8.9,31.1-15.2,38.2-14.3
		c3.7-0.4,1.6-13.9,5.6-15.2c2.8-0.9,8.7-1.5,8.9,2.7c0.1,4.3-5,12.7-1.2,13.2c6.7,0.9,24.1,1.2,29.7-3.1c2.8-2.1,9.5-11.1,9.8-5.6
		c0.1,3.3-7.7,8.9-10.4,10.1c-10.9,4.6-18.3,1.6-28.8,2.4c-4.9,0.3-4.7,23.7-5.2,28.4c-0.4,7.4-1.5,21-0.6,28.5
		c0.9,7-0.4,7.1,1.6,15.2c1,4,1.2,7.8,5.2,10.4c0.6,0.4,0.6,0.4,1.2,0c8.3-6.4,18.8-29.7,24.5-39.3c0.7-7.7,1.9-14.8,3-19.4
		c2.7-12,6.5-24.3,14-34.2c9.2-11.5,23.5-9.8,15.5,11.2c-3,7.8-11.2,24.7-17,30.3c-7.8,7.7-6.1,7.1-6.4,19.1c0,0.7,0.1,38,2.7,29.1
		c2.7-9.3,17-61.5,31.9-50.3c6.4,4.7,2.1,21.4,2.4,29.4c0.3,5.2-0.9,7.2-0.7,12.4c0,6.5-0.4,19.7,1.3,26c1.3,4.3,4.3,17.9,11.7,14.2
		C438.2,344.7,440.4,337.2,439.2,345.6z M388.8,264.7c5.6-2.2,16-25.3,17.7-31.6c0.4-2.1,3.3-15.1-3-10.5c-2.2,1.6-5.3,8.4-6.8,11.2
		C394.7,239.3,388.1,259.8,388.8,264.7z M583.3,289.9c-5.8,8.6-5.9,7.4-12.4,14c-1.2,1.2-3.3,3.8-4.3,6.4c-0.7,1.9-0.3,4-0.6,6.4
		c-0.7,4.9-1.2,13.5-1.9,16.3c-0.4,2.7-1.2,5-1.9,7.5c-1.6,5.2-2.2,8.9-4.1,13.9c-2.1,5.9-0.9,5-5.3,11.1
		c-3.7,5.2-11.5,10.4-17.6,12c-4.7,1.2-9.5,1.5-12.6-3.5c-2.2-3.3-0.3-9.9,0.7-13.2c5.8-16.1,18.3-27.2,28.5-40.5
		c6.2-7.8,4.9-4.9,5-16.4c0-8.7-0.1-20.3-0.6-29.1c-0.6,1.2-1,4.9-2.1,7.4c-2.8,6.1-3.5,11.2-7,18.2c-1.6,3.1-3.1,6.1-4.9,9.2
		c-3,5.6-6.2,12.9-13.5,8.7c-4.2-2.3-5.9-8.4-6.4-14.8c-3,10-6.8,21.2-6.9,21.3c-2.5,4.4-3.3,8-8.6,7.2c-24.4-3.4,0.6-79.3-8.4-74.7
		c-1.3,0.7-3.8,3.8-4.7,4.9c-7,7.8-12.3,26.2-13.9,37c-0.6,3.7-5,19.1-7.7,20.9c-3.7,2.4-6.8-1.5-7.2-5.5c-0.8-5.9-0.9-12.4-0.9-19
		c-2.4,7.1-8.9,24-13.5,27.1c-2.7,1.9-3.8,2.7-7,2.7c-12.6-3.8-8.3-23.7-8.3-33.6c0-5.3-0.6-4.1,0.7-10.6c1-4.7,0.3-7,6.2-6.2
		c6.8,0.9,2.8,13.8,2.1,18.9c-0.3,2.8-2.1,33.9,5,26c4.3-4.6,11.3-23.7,14.7-30.2c0-3.8,0.1-7.6,0-11.2c-0.3-8-3.8-8.6,3-8.1
		c10.1,0.6,5.8,29.9,7.1,32.7c1.2-3.1,3.3-13,4.4-17.2c2.5-8.6,11.4-37.3,24.5-32.5c7.7,4.3,6.1,17,5.5,24.4
		c-0.7,10.6-1.8,22.2-2.4,32.7c-0.3,5.5-0.4,11.7,3.8,15.8c0.3,0.3,0.4,0,0.7-0.4c5.9-8.1,8.5-22,11.6-30.6c0.2-2.8,0.5-5.3,0.8-7.2
		c1.3-6.1,2.7-8.4,5.2-13.6c3.1-6.7,7-9.8,14.2-7.5c12.3,4.1,7.8,11.1,11.5-4.4c0,0,1.6-4.9,1.8-4.9c2.1-1.3,8.4,2.4,8.3,6.7
		c0,1.9,1,8,1.2,11.1c0.4,9.2,1.6,16.6,1.2,25.6c-0.1,4.3,1.2,1.2,3.7-1.2c2.7-2.5,13.6-15.7,14.8-16
		C588.9,282.6,583.7,289.1,583.3,289.9z M547.2,276.8c-5-1.3-8.1,2.7-10.4,6.7c-2.4,4.6-3.1,8-3.7,12.9c-0.7,5.8-1.5,8.6,0.6,14.2
		c1,3.3,0.7,3.3,3.4-1c5-8.4,9.6-17.9,12.4-27.5C550.6,278.8,550.3,277.7,547.2,276.8z M555,323.1c-1.9,0.7-18.6,21.4-21.1,24.8
		c-1.6,2.4-6.7,9.9-6.8,13.3c-0.1,3.4-1.6,4-0.6,8.3c1.5,5.5,8.7,0,11.2-1.8c8.4-8.1,12.9-22,15.7-33.4
		C554,331.7,555.3,325.7,555,323.1z"/>
	<path d="M312.9,227.5c-5.6,4.3-23.1,4-29.7,3.1c-3.8-0.4,1.2-8.9,1-13.2c0-4.1-5.9-3.5-8.7-2.7c-3.5,1.2-3.1,14.8-4.4,14.6
		c-10.4-2.1-14.3-4.1-26.3-3.8c-3,0.1-9.8,1.8-10.5,3.7c-2.1,5,4.9,1.3,8.7,0.3c5.6-1.5,16.3,0.6,23.2,2.7c2.8,0.9,4.3,1.5,4,5
		c-1.5,17.9-4,33-3,51.6c0.1,0.6,0.1,1.2,0.1,1.6c-3.4-0.1-8.4,0.3-8.9,0.4c-7.1,1.5-9,2.4-12.1-3.7c-5.6-10.9-12.9-18.6-14.2-31.1
		c-0.9-7.1,2.2-15.4,9.9-16.1c11.2-1.2,4.4,17.5,11.8,16c8.3-1.6,0-22.3-13.8-20.6l-2.5,0.9l-2.2,1c-18.9,8.3-7,34.8-0.6,48.8
		c0.4,0.8,0.7,1.6,1,2.3c-0.7,0.6-1.6,1.4-2.5,2.4c-7.1,8-12.1,17.9-22.2,23.8c-10.8,6.4-12.6-17.7-11.7-20
		c0.9-2.1,11.7-3.3,11.8-3.4c6.2-4.4,9-8.4,5.6-16c-2.5-4.3-5.3-7.5-10.6-7.7c-10.1-0.2-15.2,9.9-17.2,20.3
		c-3.6,2.8-8.8,6.7-11.1,7.5c-0.1,0,9.3-21.4-0.7-27.8c-14.5-9.2-28,21.3-32.1,30.5c-1.5,3.4-1.6,6.4-2.2,2.1
		c-1.9-15.7-1.6-23.1,1.2-38c0.4-1.8,7.4-3.5,9.2-4.3c10.8-4,11.1-4.7,17.9-13.3c1.9-2.4,3.1-6.1,4.3-7.7c2.5-3.5,1.8-5.2,2.7-8.1
		c0.7-2.7-0.9-9.2-2.8-10.9c-4.6-4.3-4.3-2.2-6.7-2.7c-0.9-0.1-5.6,2.5-6.4,3c-6.5,4.1-8,5.6-12.6,12c-6.1,8.4-7.2,12.4-10.8,21.9
		c-2.2,5.9-3.4,11.4-4.3,17.7c-0.6,4.7-4.4,48.7,7.8,41.7c1.6-0.9,5.2-7.4,5.9-9.3c3.4-7.8,7.5-14.2,12.3-21.3
		c12.9-18.5,14-9.2,8.4,7.7c-5.8,17-3.8,13.5-18.2,22.8c-6.4,4.1-6.7,12.9-1.9,12.7c4.1,0,6.8-2.5,10.1-4.3c6.2-3.5,3.4-1.9,7.7-6.8
		c5-5.5,5-7.5,8.7-12.1c0.1-0.3,4.1-3.4,4.7-3.8c3.4-2,5.8-3.5,8.4-5.4c-0.7,5.2-0.6,10.3-0.1,14c2.2,14.9,12.9,20.7,25.3,11.1
		c9-7.1,15.1-14,21.6-23.5c0.7-1,1.2-1.8,1.6-2.6c2.7,5.2,3.6,6.3-1.9,11c-7.8,6.5-19.1,23.1-15.7,33.4c3.1,9.2,12.3,6.1,18.6,3.7
		c9.8-3.5,16.3-18.8,15.5-29c-0.3-3.3-2.5-11.7-2.5-12.9c0-3.7,11.2-4,16.6-4.7c0,1.5-0.1,2.2-0.3,5.2c-0.3,7.4,4.6,22.6,11.8,25
		c2.8,0.9,6.2,0.4,8.6-1.3c3.1-1.9,6.8-7.4,8.7-10.5c0,0,6.7-12.4,12-23.2v-0.3c0-1.5-1.2-1.5-2.7-1.2
		c-5.9,11.1-13.6,26.2-20.1,31.1c-0.4,0.4-0.4,0.4-1,0c-4.1-2.5-4.1-6.4-5.2-10.4c-2.1-8.1-0.9-8.3-1.6-15.2
		c-0.9-7.5,0-21.1,0.6-28.5c0.3-4.7,0.3-28.1,5-28.4c10.6-0.7,18,2.2,28.8-2.4c2.7-1.2,10.5-6.8,10.4-10.1
		C322.4,216.4,315.7,225.4,312.9,227.5z M206.9,273c3.7-0.6,4.9,9,4,11.4c-1.6,4.4-10.2,7.2-10.8,4.7
		C199.2,285.1,203.9,275.8,206.9,273z M151.3,242.7c1.5-4.1,17-27.7,22.6-21c1.2,1.3,0.9,4.3,0.3,5.8c-0.1,0-0.4,3.1-0.7,3.8
		c-1.6,6.2-6.4,13.2-10.9,18c-1,1-2.2,1.8-3.5,2.7c-1.6,1.2-11.2,5.5-12.7,5.5C145.8,256.3,150.4,244.8,151.3,242.7z M149.4,318.3
		c-3.5-3,8.3-8.9,10.4-10.4C164.6,304.9,154,316.2,149.4,318.3z M240.8,326.8c-1.9,5.5-12.3,13-16.7,8.1
		c-6.7-7.4,8.7-29.6,14.8-32.8h1l0.6,1C242.1,307.2,242.5,321.5,240.8,326.8z"/>
	<path d="M351.1,110.2c-4-6.2-1.6-13.9-1.9-20.7c-0.7-11.5,1.3-24.5,0.1-35.6c-0.4-5-3.5-9.6-8.7-6.5c-0.1,0.4,0,1.6-0.3,2.7
		c-2.2,9-2.8,16.7-5.9,26.3c-1.2,3.8-7.4,20.1-11.5,20.1c-4.1-6.2-1.6-18-0.6-25.3c1-6.5-0.9-14.3-9.2-10.9
		c-0.2,2.8-1.4,9.1-2.3,15.9c-1.9-0.1-3.8,0-4.4,0.1c-9.8,2.1-3.3-4.3-7.8-15.5c-4-10.2-16.6-16.1-25.4-8.7
		c-6.4,5.4-11,13.4-13,21.9c-4,4.6-12.3,13.2-17.6,17.1c-0.1-2.5,0.3-4,0.3-6.7c0-6.2,4.6-40.5,2.4-43.6c-2.7-3.8-5.6-2.5-9-1.2
		c0.7,3.3,0.3,5.5-0.4,8.7c-3.7,15.8-11.7,29.6-21.1,42.7c-3.8,5.3-7.4,11.1-6.7,0.3c0.9-14.6,4.4-22.6,2.8-38.5
		c-0.7-6.8-5.9-10.6-12.6-8c-0.6,0.6,0.4,0.7,1.6,1.6c2.7,1.8,1.5,16.1,1.3,18c-0.6,4.7-1.2,9.6-1.6,14.5
		c-0.7,6.8-3.8,21.6,6.2,23.1c7.8,1,18.2-15.1,22-21c7.1-11.2,6.4-12.9,6.1,2.2c-0.3,12.9,1.5,12-7.1,20.6
		c-11.1,11.1-18.6,17.2-24.7,32.7c-3,7.7-7.2,24,5.5,25.4c9.8,1,21.6-5.9,25.7-15.2c6.4-13.8,8-26.2,8.9-41.1
		c0-0.9,0.3-11.2,0.3-11.2c3.9-2.8,11.9-10.7,17-15.8c-1,8.4,0.7,16.9,5.7,23.7c5,5.5,9.2,7.1,16.6,5.6c5.9-1.2,10.2-1.9,13.5-7.4
		c4.6-7.8,3.8-16.6,5-19.1c0.8-1.8,6.1-1.9,10.3-2.1c-1.3,13-0.3,26.4,12.4,21.4c5.5-2.1,12.4-16.9,15.1-21.7c0.6,1-2.7,24.8,4.6,33
		c2.7,3,8.1,3.3,9.2,1.2c0.7-0.6,2.4-3.7,2.5-5.9C354.5,102.1,351.3,110.1,351.1,110.2z M227.9,137.2c-2.2,5.5-11.8,22.2-19.5,16.3
		c-8.9-6.8,6.4-30,10.6-35.8c2.1-2.7,11.5-12.6,14-14.5l0.4,1.2C234.6,112.2,230.9,129.6,227.9,137.2z M287.8,99.4
		c-15.2,7.1-16.4-17.6-15.4-26.5c3.1-16.9,0.9-5,9.9,2.1c4.6,3.4,9.5,4,10.8,4.7C294.9,81.1,292.7,97.1,287.8,99.4z M292.7,75.6
		c-4.6-2.1-9.6-7.2-11.7-12c-0.7-3.3-2.7-10.9,3.1-10.4c8.3,0.7,9,8,9.8,14.9C294,70,295.7,77,292.7,75.6z"/>
	<path d="M303.8,178.7c-0.1,0-0.4,0.3-1,0.8c-0.6,0.6-1.4,0.8-2.2,0.8c-1.3,0-2.2-0.5-2.9-1.4s-1.1-1.9-1.2-2.9
		c-0.1-1.1-0.2-2.6-0.2-4.6v-15.6c0-12-5.3-18-16-18c-4.3,0-8.3,1.2-12,3.7c-3.7,2.5-5.5,5.1-5.5,8c0,2.5,1.2,3.7,3.7,3.7
		c1.4,0,2.5-0.4,3.4-1.1c0.8-0.8,1.3-1.5,1.3-2.3c0-0.8-0.1-1.5-0.3-1.9c-0.1-0.4-0.2-1-0.2-2c0-1.4,0.9-2.5,2.6-3.2
		s3.8-1.1,6.1-1.1c5.7,0,8.5,4.5,8.5,13.5c0,0.7-0.2,1.1-0.6,1.2l-9.1,2.3c-5.2,1.3-9.5,3.3-12.7,6s-4.9,5.8-4.9,9.3
		c0,3.9,1.2,6.8,3.7,8.6c2.5,1.8,5.8,2.7,9.9,2.7c2.4,0,4.3-0.3,5.8-0.8c1.5-0.6,3.4-1.8,5.7-3.6l2.1-1.6h0.2c1.2,4.1,4,6.1,8.3,6.1
		c1.5,0,3.1-0.4,4.5-1.1c1.5-0.7,2.6-1.5,3.3-2.2c0.7-0.7,1.1-1.2,1.1-1.4c0-0.3-0.2-0.7-0.5-1.1C304.3,178.9,304,178.7,303.8,178.7
		z M287.9,173.6c0,1.1-0.5,2-1.5,2.7c-3.7,3.1-6.8,4.6-9.3,4.6c-2.5,0-4.3-0.8-5.6-2.3c-1.3-1.6-1.9-3.3-1.9-5.2
		c-0.1-6.1,3.2-9.9,10-11.7l8.4-2.1V173.6z M341.4,139.4c1.1,1.1,1.7,2.2,1.7,3.4c0,1.3-0.5,2.6-1.5,3.7c-1,1.1-2.2,1.7-3.4,1.7
		c-0.5,0-1-0.1-1.5-0.4c-0.5-0.3-0.9-0.5-1.1-0.7c-0.2-0.2-0.6-0.6-1-1.1c-0.4-0.5-0.7-0.8-0.8-0.9c-0.5-0.5-1.2-0.7-2.2-0.7
		c-0.9,0-2.5,1.7-4.8,5.1c-1.7,2.5-2.5,4.9-2.5,7V171c0,4.2,0.5,6.8,1.4,7.7c0.9,0.9,3.4,1.6,7.2,1.9c0.3,0.4,0.5,1,0.5,2
		c0,0.9-0.2,1.5-0.5,1.9c-6.1-0.2-10.3-0.2-12.8-0.2c-2.1,0-6.1,0.1-12.1,0.2c-0.3-0.3-0.4-0.9-0.4-1.9c0-0.9,0.1-1.6,0.4-2
		c3.4-0.2,5.6-0.8,6.5-1.8c0.9-1,1.3-3.6,1.3-7.8v-20.4c0-2.9-0.4-4.8-1.2-5.5c-0.8-0.8-2.7-1.3-5.6-1.6c-0.4-1.2-0.5-2.2-0.2-3
		c5.5-0.7,9.9-1.7,13.3-3c0.5,0,1,0.3,1.2,0.8c0.6,1.3,0.9,3.9,0.9,8c0,0.3,0.1,0.6,0.2,0.7c0.1,0.1,0.3,0,0.7-0.5
		c1.4-2.4,3.2-4.4,5.2-6.2c2.1-1.7,4.2-2.6,6.5-2.6C338.7,137.8,340.3,138.3,341.4,139.4z M384.6,174.4c-2,2.1-4,3.6-5.8,4.4
		c-1.9,0.8-4.3,1.3-7.2,1.3c-4.6,0-8.4-2.5-11.5-7.6c-2.2-3.7-3.3-8.6-3.3-14.5l28.1,0.2c1.3,0,2-0.6,2-1.9
		c0-12.2-5.9-18.3-17.8-18.3c-5.2,0-10,2.3-14.5,6.8c-4.5,4.5-6.8,10.5-6.8,18c0,6.6,1.7,11.8,5,15.6c3.8,4.5,9.2,6.8,16.3,6.8
		c7.3,0,13.3-3.1,18-9.2C386.5,175,385.8,174.4,384.6,174.4z M359.3,147.5c1.1-1.8,2.2-3.1,3.5-3.8c1.3-0.7,2.4-1.2,3.3-1.5
		c0.9-0.2,1.8-0.3,2.7-0.3c2.4,0,4.5,0.8,6.2,2.4c1.7,1.6,2.6,4.4,2.6,8.2c0,0.9-0.5,1.4-1.5,1.4l-19.1,0.3
		C357.4,151.5,358.2,149.3,359.3,147.5z"/>
	<path d="M449,178.2c-4.2,4.6-8.9,7-14.2,7c-5.4,0-8.1-3.5-8.1-10.5v-32.1h-6.2c-0.3,0-0.5-0.2-0.5-0.6v-1.3c0-1.3,0.6-2,1.9-2h4.8
		c0-2.2,0-4,0-5.6c0-1.6,0-2.7-0.1-3.4s-0.1-1.3-0.1-1.7c0-0.4-0.1-0.7-0.1-0.9c0-0.2,0-0.4,0-0.6c0-0.2,0.1-0.5,0.4-0.7
		c0.3-0.2,0.6-0.4,0.9-0.5c0.3-0.1,0.8-0.2,1.3-0.4c0.6-0.2,1-0.3,1.4-0.5c0.4-0.2,0.9-0.4,1.6-0.8c0.7-0.3,1.2-0.6,1.7-0.8
		c0.4-0.2,0.8-0.3,1-0.3c0.5,0,0.8,0.3,0.8,0.9c-0.3,2.8-0.4,6.5-0.4,11.1v4.1h12.7c0.5,0,0.8,0.2,0.8,0.6v2c0,0.9-0.8,1.3-2.5,1.2
		h-11v26.9c0,3.5,0.2,6,0.7,7.5c0.5,1.5,1.4,2.3,2.8,2.3c3.2,0,6.1-1,8.7-3C448.2,176.5,448.8,177.1,449,178.2z M500,178.6
		c-0.8-1-1.2-3.5-1.2-7.6v-15.6c0-6.9-0.9-11.6-2.8-14c-1.8-2.4-4.7-3.6-8.8-3.6c-6.8,0-12.8,2.8-18,8.5c-0.6,0.7-1,0.7-1,0
		l0.1-23.8c0-4.6,0.1-8.3,0.4-11.1c0-0.7-0.4-1.1-1.3-1.1c-3.6,1.4-8.5,2.4-14.8,2.9c-0.4,1.3-0.2,2.4,0.6,3.1
		c1.9,0.1,3.1,0.2,3.5,0.3c0.4,0,1,0.3,1.8,0.8s1.2,1.4,1.3,2.5c0.1,1.1,0.2,2.8,0.2,5.1V171c0,2.3-0.1,4-0.2,5.1
		c-0.2,1.2-0.6,2.1-1.2,2.7c-0.7,0.7-1.4,1.1-2.1,1.3c-0.8,0.2-2,0.3-3.8,0.5c-0.3,0.3-0.5,1-0.5,1.9c0,0.9,0.2,1.6,0.5,1.9
		c5.8-0.2,9.7-0.2,11.6-0.2c1,0,4.5,0.1,10.4,0.2c0.3-0.3,0.5-1,0.5-1.9c0-0.9-0.2-1.6-0.5-1.9c-2-0.2-3.3-0.4-4.1-0.8
		c-0.8-0.4-1.3-1.2-1.7-2.4c-0.4-1.2-0.5-3.3-0.5-6.3v-17.2c0-1.6,0.6-3.1,1.8-4.4c4.2-4.1,8.7-6.2,13.5-6.2c2.5,0,4.3,1.3,5.6,3.8
		c0.8,1.7,1.2,4.4,1.2,8.1V171c0,4.1-0.4,6.7-1.1,7.7c-0.7,1-2.6,1.6-5.4,1.9c-0.3,0.4-0.4,1-0.4,2c0,0.9,0.1,1.5,0.4,1.9
		c5.9-0.2,9.5-0.2,10.8-0.2c1.4,0,5.1,0.1,11.2,0.2c0.3-0.4,0.4-1,0.4-2c0-0.9-0.1-1.5-0.4-1.9C502.8,180.2,500.8,179.6,500,178.6z
		 M550.6,176c-4.7,6.1-10.7,9.2-18,9.2c-7,0-12.5-2.3-16.3-6.8c-3.3-3.8-5-9-5-15.6c0-7.5,2.3-13.5,6.8-18c4.5-4.5,9.3-6.8,14.5-6.8
		c11.9,0,17.8,6.1,17.8,18.3c0,1.3-0.7,1.9-2,1.9l-28.1-0.2c0,5.9,1.1,10.7,3.3,14.5c3.1,5.1,6.9,7.6,11.5,7.6c3,0,5.4-0.4,7.2-1.3
		c1.9-0.8,3.8-2.3,5.8-4.4C549.6,174.4,550.3,175,550.6,176z M520.7,154.1l19.1-0.3c1.1,0,1.6-0.5,1.5-1.4c0-3.9-0.9-6.6-2.6-8.2
		c-1.7-1.6-3.8-2.4-6.2-2.4c-0.9,0-1.8,0.1-2.7,0.3c-0.9,0.2-2,0.7-3.3,1.5c-1.3,0.7-2.5,2-3.5,3.8
		C522,149.3,521.2,151.5,520.7,154.1z"/>
	<path d="M200.4,437.7c-4.2,4.6-8.9,7-14.2,7c-5.4,0-8.1-3.5-8.1-10.5v-32.1h-6.2c-0.3,0-0.5-0.2-0.5-0.6v-1.3c0-1.3,0.6-2,1.9-2
		h4.8c0-2.2,0-4,0-5.6c0-1.6,0-2.7-0.1-3.4s-0.1-1.3-0.1-1.7c0-0.4-0.1-0.7-0.1-0.9c0-0.2,0-0.4,0-0.6c0-0.2,0.1-0.5,0.4-0.7
		c0.3-0.2,0.6-0.4,0.9-0.5c0.3-0.1,0.8-0.2,1.3-0.4s1-0.3,1.4-0.5c0.4-0.2,0.9-0.4,1.6-0.8c0.7-0.3,1.2-0.6,1.7-0.8
		c0.4-0.2,0.8-0.3,1-0.3c0.5,0,0.8,0.3,0.8,0.9c-0.3,2.8-0.4,6.5-0.4,11.1v4.1h12.7c0.5,0,0.8,0.2,0.8,0.6v2c0,0.9-0.8,1.3-2.5,1.2
		h-11v26.9c0,3.5,0.2,6,0.7,7.5c0.5,1.5,1.4,2.3,2.8,2.3c3.2,0,6.1-1,8.7-3C199.6,435.9,200.2,436.5,200.4,437.7z M251.4,438.1
		c-0.8-1-1.2-3.5-1.2-7.6v-15.6c0-6.9-0.9-11.6-2.8-14c-1.8-2.4-4.7-3.6-8.8-3.6c-6.8,0-12.8,2.8-18,8.5c-0.6,0.8-1,0.7-1,0
		l0.1-23.8c0-4.6,0.1-8.3,0.4-11.1c0-0.7-0.4-1.1-1.3-1.1c-3.6,1.4-8.5,2.4-14.8,2.9c-0.4,1.3-0.2,2.4,0.6,3.1
		c1.9,0.1,3.1,0.2,3.5,0.3c0.4,0,1,0.3,1.8,0.8s1.2,1.4,1.3,2.5c0.1,1.1,0.2,2.8,0.2,5.1v45.9c0,2.3-0.1,4-0.2,5.1
		c-0.2,1.2-0.6,2.1-1.2,2.7c-0.7,0.7-1.4,1.1-2.1,1.3c-0.8,0.2-2,0.3-3.8,0.5c-0.3,0.3-0.5,1-0.5,1.9c0,0.9,0.2,1.6,0.5,1.9
		c5.8-0.2,9.7-0.2,11.6-0.2c1,0,4.5,0.1,10.4,0.2c0.3-0.3,0.5-1,0.5-1.9c0-0.9-0.2-1.6-0.5-1.9c-2-0.2-3.3-0.4-4.1-0.8
		c-0.8-0.4-1.3-1.2-1.7-2.4c-0.4-1.2-0.5-3.3-0.5-6.3v-17.2c0-1.6,0.6-3.1,1.8-4.4c4.2-4.1,8.7-6.2,13.5-6.2c2.5,0,4.3,1.3,5.6,3.8
		c0.8,1.7,1.2,4.4,1.2,8.1v15.9c0,4.1-0.4,6.7-1.1,7.7c-0.7,1-2.6,1.6-5.4,1.9c-0.3,0.4-0.4,1-0.4,2s0.1,1.5,0.4,1.9
		c5.9-0.2,9.5-0.2,10.8-0.2c1.4,0,5.1,0.1,11.2,0.2c0.3-0.4,0.4-1,0.4-2c0-0.9-0.1-1.5-0.4-1.9C254.2,439.7,252.2,439.1,251.4,438.1
		z M306.4,438.8c0.4,0.4,0.5,0.8,0.5,1.1c0,0.2-0.4,0.7-1.1,1.4s-1.8,1.5-3.3,2.2c-1.5,0.7-3,1.1-4.5,1.1c-4.3,0-7-2-8.3-6.1h-0.2
		l-2.1,1.6c-2.3,1.8-4.2,3-5.7,3.6c-1.5,0.6-3.4,0.8-5.8,0.8c-4.1,0-7.4-0.9-9.9-2.7c-2.5-1.8-3.7-4.7-3.7-8.6
		c0-3.5,1.6-6.6,4.9-9.3c3.3-2.7,7.5-4.7,12.7-6l9.1-2.3c0.4-0.1,0.6-0.5,0.6-1.2c0-9-2.8-13.5-8.5-13.5c-2.3,0-4.4,0.4-6.1,1.1
		s-2.6,1.8-2.6,3.2c0,1,0.1,1.6,0.2,2c0.2,0.4,0.3,1,0.3,1.9c0,0.8-0.4,1.5-1.3,2.3c-0.8,0.8-2,1.1-3.4,1.1c-2.5,0-3.7-1.2-3.7-3.7
		c0-2.9,1.8-5.6,5.5-8c3.7-2.5,7.7-3.7,12-3.7c10.7,0,16,6,16,18v15.6c0,2,0.1,3.5,0.2,4.6c0.1,1.1,0.5,2,1.2,2.9s1.6,1.4,2.9,1.4
		c0.9,0,1.6-0.3,2.2-0.8c0.6-0.5,1-0.8,1-0.8C305.8,438.2,306.1,438.4,306.4,438.8z M289.8,419l-8.4,2.1c-6.7,1.7-10,5.6-10,11.7
		c0,1.9,0.6,3.6,1.9,5.2s3.2,2.3,5.6,2.3c2.5,0,5.6-1.5,9.3-4.6c1-0.7,1.5-1.6,1.5-2.7V419z M336.9,435.9c-2.5,2-5.4,3-8.7,3
		c-1.3,0-2.3-0.8-2.8-2.3c-0.5-1.5-0.7-4-0.7-7.5v-26.9h11c1.7,0,2.5-0.4,2.5-1.2v-2c0-0.4-0.3-0.6-0.8-0.6h-12.7v-4.1
		c0-4.6,0.1-8.3,0.4-11.1c0-0.6-0.3-0.9-0.8-0.9c-0.2,0-0.5,0.1-1,0.3c-0.4,0.2-1,0.5-1.7,0.8c-0.7,0.3-1.2,0.6-1.6,0.8
		c-0.3,0.1-0.8,0.3-1.4,0.5s-1,0.3-1.3,0.4c-0.3,0.1-0.6,0.3-0.9,0.5c-0.3,0.2-0.4,0.4-0.4,0.7c0,0.2,0,0.4,0,0.6
		c0,0.2,0,0.5,0.1,0.9c0,0.4,0.1,1,0.1,1.7s0.1,1.9,0.1,3.4c0,1.6,0,3.4,0,5.6h-4.8c-1.3,0-1.9,0.7-1.9,2v1.3c0,0.4,0.2,0.6,0.5,0.6
		h6.2v32.1c0,7,2.7,10.5,8.1,10.5c5.3,0,10.1-2.3,14.2-7C338.6,436.5,338,435.9,336.9,435.9z"/>
	<path d="M407.8,433.8c-2,2.1-4,3.6-5.8,4.4s-4.3,1.3-7.2,1.3c-4.6,0-8.4-2.5-11.5-7.6c-2.2-3.7-3.3-8.6-3.3-14.5l28.1,0.2
		c1.3,0,2-0.6,2-1.9c0-12.2-5.9-18.3-17.8-18.3c-5.2,0-10,2.3-14.5,6.8c-4.5,4.5-6.8,10.5-6.8,18c0,6.6,1.7,11.8,5,15.6
		c3.8,4.5,9.2,6.8,16.3,6.8c7.3,0,13.3-3.1,18-9.2C409.7,434.5,409,433.9,407.8,433.8z M382.4,406.9c1.1-1.8,2.2-3.1,3.5-3.8
		c1.3-0.7,2.4-1.2,3.3-1.5c0.9-0.2,1.8-0.3,2.7-0.3c2.4,0,4.5,0.8,6.2,2.4s2.6,4.4,2.6,8.2c0,0.9-0.5,1.4-1.5,1.4l-19.1,0.3
		C380.6,411,381.4,408.7,382.4,406.9z M464.7,398.1c0.3,0.4,0.5,1,0.5,2c0,0.9-0.2,1.6-0.5,1.9c-1.4,0.1-2.6,0.4-3.6,0.7
		c-0.9,0.3-1.8,0.9-2.5,1.7c-0.7,0.8-1.2,1.5-1.5,2.2c-0.3,0.6-0.8,1.7-1.4,3.1l-14.1,32.8c-0.7,1.6-1.5,2.4-2.5,2.5
		c-1.2,0-2.1-0.7-2.6-2.2l-13.5-33.2c-0.1-0.2-0.2-0.5-0.4-0.9c-1-2.5-1.9-4.2-2.8-5s-2.6-1.4-5.3-1.7c-0.3-0.3-0.5-0.9-0.5-1.8
		s0.2-1.6,0.5-2c5.2,0.1,8.3,0.2,9.3,0.2c2.3,0,6-0.1,11.2-0.2c0.3,0.4,0.5,1,0.5,2s-0.2,1.6-0.5,1.9c-0.8,0.1-1.5,0.2-2.1,0.3
		s-1.1,0.2-1.5,0.3c-0.4,0.1-0.7,0.3-0.9,0.6c-0.2,0.3-0.3,0.5-0.4,0.6c-0.1,0.1-0.1,0.4,0,0.9c0.1,0.5,0.2,0.9,0.3,1.1
		c0.1,0.2,0.2,0.7,0.5,1.5c0.3,0.8,0.5,1.3,0.7,1.7l7.6,20.2c0.9,2.2,1.5,3.3,2,3.4c0.4,0.1,1.1-0.9,2-3l8.5-20.6
		c1.1-2.7,1.4-4.4,0.9-5.4s-2.2-1.5-5-1.7c-0.3-0.3-0.5-0.9-0.5-1.8c0-0.9,0.2-1.6,0.5-2c5.2,0.1,8.6,0.2,10.1,0.2
		S461.6,398.2,464.7,398.1z M505.9,433.8c-2,2.1-4,3.6-5.8,4.4s-4.3,1.3-7.2,1.3c-4.6,0-8.4-2.5-11.5-7.6c-2.2-3.7-3.3-8.6-3.3-14.5
		l28.1,0.2c1.3,0,2-0.6,2-1.9c0-12.2-5.9-18.3-17.8-18.3c-5.2,0-10,2.3-14.5,6.8c-4.5,4.5-6.8,10.5-6.8,18c0,6.6,1.7,11.8,5,15.6
		c3.8,4.5,9.2,6.8,16.3,6.8c7.3,0,13.3-3.1,18-9.2C507.8,434.5,507.1,433.9,505.9,433.8z M480.5,406.9c1.1-1.8,2.2-3.1,3.5-3.8
		c1.3-0.7,2.4-1.2,3.3-1.5c0.9-0.2,1.8-0.3,2.7-0.3c2.4,0,4.5,0.8,6.2,2.4s2.6,4.4,2.6,8.2c0,0.9-0.5,1.4-1.5,1.4l-19.1,0.3
		C478.7,411,479.5,408.7,480.5,406.9z M549.9,402.3c0,1.3-0.5,2.6-1.5,3.7s-2.2,1.7-3.4,1.7c-0.5,0-1-0.1-1.5-0.4
		c-0.5-0.3-0.9-0.5-1.1-0.7c-0.2-0.2-0.6-0.6-1-1.1c-0.4-0.5-0.7-0.8-0.8-0.9c-0.5-0.5-1.2-0.7-2.2-0.7c-0.9,0-2.5,1.7-4.8,5.1
		c-1.7,2.5-2.5,4.9-2.5,7v14.6c0,4.2,0.5,6.8,1.4,7.7c0.9,0.9,3.4,1.6,7.2,1.9c0.3,0.4,0.5,1,0.5,2s-0.2,1.5-0.5,1.9
		c-6.1-0.2-10.3-0.2-12.8-0.2c-2.1,0-6.1,0.1-12.1,0.2c-0.3-0.3-0.4-0.9-0.4-1.9s0.1-1.6,0.4-2c3.4-0.2,5.6-0.8,6.5-1.8
		c0.9-1,1.3-3.6,1.3-7.8v-20.4c0-2.9-0.4-4.8-1.2-5.5c-0.8-0.8-2.7-1.3-5.6-1.6c-0.4-1.2-0.5-2.2-0.2-3c5.5-0.7,9.9-1.7,13.3-3
		c0.5,0,1,0.3,1.2,0.8c0.6,1.3,0.9,3.9,0.9,8c0,0.3,0.1,0.6,0.2,0.7c0.1,0.1,0.3,0,0.7-0.5c1.4-2.4,3.2-4.4,5.2-6.2
		c2.1-1.7,4.2-2.6,6.5-2.6c2,0,3.6,0.5,4.7,1.6C549.4,400,549.9,401.1,549.9,402.3z"/>
	<path d="M204.8,537.3c0.3,0.3,0.4,0.9,0.4,1.9c0,0.9-0.1,1.6-0.4,2c-6.1-0.2-9.8-0.2-11.2-0.2c-1.3,0-4.9,0.1-10.8,0.2
		c-0.3-0.3-0.4-0.9-0.4-1.9s0.1-1.6,0.4-2c2.9-0.3,4.7-0.9,5.4-1.9c0.7-1,1.1-3.5,1.1-7.7v-15.9c0-3.7-0.4-6.4-1.2-8.1
		c-1.3-2.5-3.1-3.8-5.6-3.8c-4.8,0-9.3,2.1-13.5,6.2c-1.2,1.3-1.8,2.8-1.8,4.4v17.2c0,3,0.2,5.1,0.5,6.3c0.4,1.2,0.9,2.1,1.7,2.4
		c0.8,0.4,2.1,0.6,4.1,0.8c0.3,0.3,0.5,1,0.5,1.9c0,0.9-0.1,1.6-0.5,1.9c-5.9-0.2-9.4-0.2-10.4-0.2c-1.9,0-5.8,0.1-11.6,0.2
		c-0.3-0.3-0.5-1-0.5-1.9c0-0.9,0.2-1.6,0.5-1.9c1.8-0.1,3-0.3,3.8-0.5c0.8-0.2,1.5-0.6,2.1-1.3c0.7-0.7,1.1-1.6,1.2-2.7
		c0.2-1.2,0.2-2.9,0.2-5.1v-45.9c0-2.3-0.1-3.9-0.2-5.1c-0.1-1.1-0.5-1.9-1.3-2.5s-1.4-0.8-1.8-0.8c-0.4,0-1.6-0.1-3.5-0.3
		c-0.8-0.8-1-1.8-0.6-3.1c6.3-0.5,11.2-1.4,14.8-2.9c0.9,0,1.4,0.4,1.3,1.1c-0.3,2.8-0.4,6.5-0.4,11.1l-0.1,23.8
		c0.1,0.8,0.4,0.8,1,0c5.2-5.7,11.2-8.5,18-8.5c4,0,6.9,1.2,8.8,3.6c1.9,2.5,2.8,7.1,2.8,14v15.6c0,4.1,0.4,6.7,1.2,7.6
		C199.8,536.3,201.7,537,204.8,537.3z M254,536c0.4,0.4,0.5,0.8,0.5,1.1c0,0.2-0.4,0.7-1.1,1.4s-1.8,1.5-3.3,2.2
		c-1.5,0.7-3,1.1-4.5,1.1c-4.3,0-7-2-8.3-6.1h-0.2l-2.1,1.6c-2.3,1.8-4.2,3-5.7,3.6c-1.5,0.6-3.4,0.8-5.8,0.8
		c-4.1,0-7.4-0.9-9.9-2.7c-2.5-1.8-3.7-4.7-3.7-8.6c0-3.5,1.6-6.6,4.9-9.3c3.3-2.7,7.5-4.7,12.7-6l9.1-2.3c0.4-0.1,0.6-0.5,0.6-1.2
		c0-9-2.8-13.5-8.5-13.5c-2.3,0-4.4,0.4-6.1,1.1s-2.6,1.8-2.6,3.2c0,1,0.1,1.6,0.2,2c0.2,0.4,0.3,1,0.3,1.9c0,0.8-0.4,1.5-1.3,2.3
		c-0.8,0.8-2,1.1-3.4,1.1c-2.5,0-3.7-1.2-3.7-3.7c0-2.9,1.8-5.6,5.5-8c3.7-2.5,7.7-3.7,12-3.7c10.7,0,16,6,16,18v15.6
		c0,2,0.1,3.5,0.2,4.6c0.1,1.1,0.5,2,1.2,2.9s1.6,1.4,2.9,1.4c0.9,0,1.6-0.3,2.2-0.8c0.6-0.5,1-0.8,1-0.8
		C253.3,535.4,253.6,535.6,254,536z M237.3,516.3l-8.4,2.1c-6.7,1.7-10,5.6-10,11.7c0,1.9,0.6,3.6,1.9,5.2s3.2,2.3,5.6,2.3
		c2.5,0,5.6-1.5,9.3-4.6c1-0.7,1.5-1.6,1.5-2.7V516.3z M300,500.9c3.6,4.3,5.4,9.3,5.4,15c0,8.3-2.6,15-7.8,20
		c-4.2,4-9.4,5.9-15.6,5.9c-3.4,0-6.5-0.6-9.2-1.7c-0.6-0.3-0.9-0.4-1.1-0.3c-0.2,0.1-0.3,0.4-0.3,1.1v11.3c0,4.2,0.5,6.8,1.4,7.8
		c0.9,1,3.4,1.6,7.2,1.8c0.3,0.4,0.5,1,0.5,2c0,0.9-0.2,1.5-0.5,1.9c-6.1-0.2-10.3-0.2-12.8-0.2c-2,0-5.9,0.1-11.9,0.2
		c-0.3-0.3-0.4-0.9-0.4-1.9c0-0.9,0.1-1.6,0.4-2c3.3-0.1,5.4-0.7,6.3-1.7c0.9-1,1.3-3.6,1.3-7.8v-44.8c0-2.9-0.4-4.8-1.2-5.6
		c-0.8-0.8-2.7-1.3-5.6-1.6c-0.4-1.2-0.5-2.2-0.2-3c5.5-0.7,9.9-1.7,13.3-3c0.5,0,1,0.3,1.2,0.8c0.6,1.3,0.9,3.6,0.9,7
		c0,0.3,0.1,0.6,0.3,0.6c0.2,0.1,0.4,0,0.5-0.2c4.5-5.3,9.3-7.9,14.5-7.9C292,494.5,296.4,496.6,300,500.9z M296.3,518.8
		c0-5.7-1.2-10.4-3.6-14c-2.4-3.6-5.4-5.4-8.9-5.4c-1.5,0-3.3,0.6-5.4,1.9c-2.1,1.3-3.9,2.8-5.3,4.6c-1.1,1.4-1.7,2.9-1.7,4.6v19.1
		c0,1.3,0.1,2.3,0.2,2.9c0.1,0.7,0.4,1.2,0.7,1.6c0.3,0.4,0.9,1,1.7,1.7c0.9,0.8,2,1.3,3.5,1.7c1.5,0.4,2.8,0.5,4,0.5
		c2.8,0,5.3-0.6,7.3-1.7c2-1.2,3.6-2.7,4.6-4.7c1-2,1.8-4,2.3-6.1C296.1,523.4,296.3,521.2,296.3,518.8z M354.8,500.9
		c3.6,4.3,5.4,9.3,5.4,15c0,8.3-2.6,15-7.8,20c-4.2,4-9.4,5.9-15.6,5.9c-3.4,0-6.5-0.6-9.2-1.7c-0.6-0.3-0.9-0.4-1.1-0.3
		c-0.2,0.1-0.3,0.4-0.3,1.1v11.3c0,4.2,0.5,6.8,1.4,7.8c0.9,1,3.4,1.6,7.2,1.8c0.3,0.4,0.5,1,0.5,2c0,0.9-0.2,1.5-0.5,1.9
		c-6.1-0.2-10.3-0.2-12.8-0.2c-2,0-5.9,0.1-11.9,0.2c-0.3-0.3-0.4-0.9-0.4-1.9c0-0.9,0.1-1.6,0.4-2c3.3-0.1,5.4-0.7,6.3-1.7
		c0.9-1,1.3-3.6,1.3-7.8v-44.8c0-2.9-0.4-4.8-1.2-5.6c-0.8-0.8-2.7-1.3-5.6-1.6c-0.4-1.2-0.5-2.2-0.2-3c5.5-0.7,9.9-1.7,13.3-3
		c0.5,0,1,0.3,1.2,0.8c0.6,1.3,0.9,3.6,0.9,7c0,0.3,0.1,0.6,0.3,0.6c0.2,0.1,0.4,0,0.5-0.2c4.5-5.3,9.3-7.9,14.5-7.9
		C346.8,494.5,351.2,496.6,354.8,500.9z M351.1,518.8c0-5.7-1.2-10.4-3.6-14c-2.4-3.6-5.4-5.4-8.9-5.4c-1.5,0-3.3,0.6-5.4,1.9
		c-2.1,1.3-3.9,2.8-5.3,4.6c-1.1,1.4-1.7,2.9-1.7,4.6v19.1c0,1.3,0.1,2.3,0.2,2.9c0.1,0.7,0.4,1.2,0.7,1.6c0.3,0.4,0.9,1,1.7,1.7
		c0.9,0.8,2,1.3,3.5,1.7c1.5,0.4,2.8,0.5,4,0.5c2.8,0,5.3-0.6,7.3-1.7c2-1.2,3.6-2.7,4.6-4.7c1-2,1.8-4,2.3-6.1
		C350.8,523.4,351.1,521.2,351.1,518.8z M408,532.7c-4.7,6.1-10.7,9.2-18,9.2c-7,0-12.5-2.3-16.3-6.8c-3.3-3.8-5-9-5-15.6
		c0-7.5,2.3-13.5,6.8-18c4.5-4.5,9.3-6.8,14.5-6.8c11.9,0,17.8,6.1,17.8,18.3c0,1.3-0.7,1.9-2,1.9l-28.1-0.2
		c0,5.9,1.1,10.7,3.3,14.5c3.1,5.1,6.9,7.6,11.5,7.6c3,0,5.4-0.4,7.2-1.3s3.8-2.3,5.8-4.4C407,531.1,407.7,531.7,408,532.7z
		 M378.2,510.9l19.1-0.3c1.1,0,1.6-0.5,1.5-1.4c0-3.9-0.9-6.6-2.6-8.2s-3.8-2.4-6.2-2.4c-0.9,0-1.8,0.1-2.7,0.3
		c-0.9,0.2-2,0.7-3.3,1.5c-1.3,0.7-2.5,2-3.5,3.8S378.6,508.2,378.2,510.9z M461.6,535.4c-0.8-1-1.2-3.5-1.2-7.6v-15.6
		c0-6.8-0.9-11.5-2.8-14c-1.8-2.4-4.7-3.6-8.8-3.6c-6.4,0-12.1,2.8-17.3,8.5c-0.6,0.9-0.9,0.9-1,0c0-4.1-0.3-6.8-0.8-8
		c-0.3-0.5-0.7-0.8-1.3-0.8c-3.4,1.3-7.8,2.4-13.3,3c-0.3,0.8-0.2,1.8,0.2,3c3,0.3,4.9,0.8,5.7,1.6c0.8,0.8,1.2,2.6,1.2,5.5v20.4
		c0,4.2-0.4,6.8-1.2,7.7c-0.8,1-2.9,1.6-6.1,1.8c-0.3,0.4-0.4,1-0.4,2s0.1,1.5,0.4,1.9c5.8-0.2,9.7-0.2,11.6-0.2
		c1,0,4.5,0.1,10.4,0.2c0.4-0.3,0.6-0.9,0.5-1.9s-0.2-1.6-0.5-2c-2.8-0.3-4.6-0.9-5.3-1.9c-0.7-1-1.1-3.5-1.1-7.6v-17.2
		c0-1.6,0.6-3.1,1.8-4.4c4.3-4.1,8.6-6.2,12.9-6.2c2.4,0,4.3,1.3,5.6,3.8c0.8,1.7,1.2,4.4,1.2,8.1v15.9c0,4.1-0.4,6.7-1.1,7.7
		c-0.7,1-2.6,1.6-5.4,1.9c-0.3,0.4-0.4,1-0.4,2s0.1,1.5,0.4,1.9c5.9-0.2,9.5-0.2,10.8-0.2c1.4,0,5.1,0.1,11.2,0.2
		c0.3-0.4,0.4-1,0.4-2c0-0.9-0.1-1.5-0.4-1.9C464.4,537,462.4,536.3,461.6,535.4z M512.5,532.7c-4.7,6.1-10.7,9.2-18,9.2
		c-7,0-12.5-2.3-16.3-6.8c-3.3-3.8-5-9-5-15.6c0-7.5,2.3-13.5,6.8-18c4.5-4.5,9.3-6.8,14.5-6.8c11.9,0,17.8,6.1,17.8,18.3
		c0,1.3-0.7,1.9-2,1.9l-28.1-0.2c0,5.9,1.1,10.7,3.3,14.5c3.1,5.1,6.9,7.6,11.5,7.6c3,0,5.4-0.4,7.2-1.3s3.8-2.3,5.8-4.4
		C511.5,531.1,512.2,531.7,512.5,532.7z M482.6,510.9l19.1-0.3c1.1,0,1.6-0.5,1.5-1.4c0-3.9-0.9-6.6-2.6-8.2s-3.8-2.4-6.2-2.4
		c-0.9,0-1.8,0.1-2.7,0.3c-0.9,0.2-2,0.7-3.3,1.5c-1.3,0.7-2.5,2-3.5,3.8S483.1,508.2,482.6,510.9z M570.1,536.3
		c0,0.6-0.2,1.1-0.5,1.4c-5.9,0.7-10.2,2.1-12.8,4.2c-0.8,0.2-1.5,0.2-2,0c-0.8-2.5-1.2-4.5-1.1-6.2c0-0.2,0-0.3-0.1-0.4
		c-0.1-0.1-0.2-0.1-0.3-0.1s-0.3,0-0.4,0.1c-0.1,0.1-0.3,0.2-0.4,0.3c-5.2,4.2-9.6,6.3-13.2,6.3c-5.6,0-10-2.1-13.2-6.2
		c-3.2-4.1-4.8-9.5-4.8-16.2c0-7.5,2.4-13.7,7.3-18.6c4.4-4.2,9.7-6.4,15.8-6.4c1.1,0,2.2,0.2,3.5,0.5c1.3,0.3,2.4,0.6,3.3,0.9
		c0.9,0.3,1.4,0.5,1.5,0.5c0.6,0,0.9-0.3,1-1v-13.5c0-2.3-0.1-4-0.2-5.1c-0.1-1.1-0.6-1.9-1.3-2.5c-0.8-0.5-1.4-0.8-1.8-0.9
		c-0.4,0-1.6-0.1-3.5-0.3c-0.8-0.8-1-1.8-0.6-3.1c6.3-0.5,11.2-1.4,14.8-2.9c0.9,0,1.4,0.4,1.4,1.1c-0.3,2.8-0.4,6.5-0.5,11.1v47.9
		c0,2.8,0.5,4.7,1.4,5.7c1,1,3.1,1.7,6.3,2C569.9,535.2,570.1,535.7,570.1,536.3z M553.5,507.8c0-1.6-0.1-2.8-0.3-3.4
		c-0.2-0.7-0.7-1.4-1.5-2.3c-2.2-2.5-5-3.8-8.6-3.8c-4.2,0-7.5,1.7-9.9,5.2c-2,2.9-3,7.5-3,14c0,6.2,1.2,11,3.5,14.3
		c2.3,3.4,5,5.1,8.1,5.1c2.8,0,6.1-1.7,10-5c1.1-1,1.7-2.4,1.7-4.1V507.8z"/>
</g>
</svg>
