<?xml version="1.0" encoding="utf-8"?>
<!-- Generator: Adobe Illustrator 18.0.0, SVG Export Plug-In . SVG Version: 6.00 Build 0)  -->
<!DOCTYPE svg PUBLIC "-//W3C//DTD SVG 1.1//EN" "http://www.w3.org/Graphics/SVG/1.1/DTD/svg11.dtd">
<svg version="1.1" id="Layer_1" xmlns="http://www.w3.org/2000/svg" xmlns:xlink="http://www.w3.org/1999/xlink" x="0px" y="0px"
	 viewBox="0 0 720 720" style="enable-background:new 0 0 720 720;" xml:space="preserve">
<g>
	<path d="M612.5,511.5c-1.3-2.2-3-4-4.9-5.3c-2-1.3-4.1-2.1-6.3-2.3c-2.2-0.2-4,0.8-5.3,3c-11.9,20.7-22.2,37.4-31,50.1
		c-8.8,12.8-16.3,23-22.4,30.7c-6.2,7.7-11.2,13.4-15.2,17.1c-4,3.7-7,6.7-9.2,8.9c-10.6,8.8-19.8,11.4-27.7,7.9
		c-6.6-2.6-11.7-8.8-15.2-18.5c-3.5-9.7-4.8-22.4-4-38.3c10.6-3.5,21.2-8.5,32-14.8c10.8-6.4,19.2-14.8,25.4-25.4
		c4-7.5,5.9-14.7,5.9-21.8c0-7-1.4-13.5-4.3-19.5c-2.9-5.9-7-10.9-12.5-14.8c-5.5-4-11.5-6.6-18.1-7.9c-14.1-0.4-26.1,3.4-35.9,11.5
		c-9.9,8.1-17.6,18.7-23.1,31.7c-2.7,6.5-4.9,13.3-6.5,20.3c-6.3,17.6-12.7,34.8-19.2,51.6c-8.6,22.2-16.6,40.3-24.1,54.4
		c-8.4,16.3-15,25.3-19.8,27c-3.5,1.3-6.2-0.6-7.9-5.6c-1.8-5.1-3-11.1-3.6-18.1c-0.7-7-1-13.7-1-20.1c0-6.4,0-10.5,0-12.2
		c0-15.8,1.6-33.4,4.9-52.8c3.3-19.3,4.5-37.6,3.6-54.7c-1.3-18.5-5.9-32.5-13.9-42.2c-7.9-9.7-16.3-14.5-25.1-14.5
		c-10.1,0-19.4,5.8-27.7,17.5c-8.4,11.7-15.2,25.2-20.4,40.6c-1.3,4-2.8,8-4.3,12.2c-1.5,4.2-3.2,8.5-4.9,12.9
		c-0.4-5.7-1.4-11.9-3-18.5c-1.5-6.6-3.7-12.9-6.6-18.8c-2.9-5.9-6.5-11.3-10.9-16.2c-4.4-4.8-9.5-8.3-15.2-10.6
		c-4.4-1.8-9.2-1.9-14.5-0.3c-5.3,1.5-10.6,5.4-15.8,11.5c-4.8,6.2-9.5,16.4-13.9,30.7c-4.4,14.3-9.7,28.9-15.8,43.9
		c1.3-9.7,2.4-19.2,3.3-28.7c0.9-9.5,1.6-18.1,2.3-26.1c0.7-7.9,1.3-14.8,2-20.8c0.7-5.9,1-10.2,1-12.9c-14.5-2.2-25.6-0.3-33.3,5.6
		c-7.7,5.9-12,14.8-12.9,26.7c0,1.8-0.3,8.5-1,20.1c-0.7,11.7,0.8,29.1,4.3,52.4c0.9,4.4,2.3,8.9,4.3,13.5s4.3,8.4,6.9,11.2
		c2.6,2.9,5.7,4.3,9.2,4.3c3.5,0,7.5-2.4,11.9-7.3c3.5-6.2,7.1-13.7,10.9-22.8c3.7-9,7.5-18.1,11.2-27.4c3.7-9.2,7.4-18,10.9-26.4
		c3.5-8.3,6.6-15.2,9.2-20.4c2.6-5.3,5.1-5,7.3,0.7c2.2,5.7,3.7,13.7,4.6,24.1c0.9,10.3,1.2,21.1,1,32.3c-0.2,11.2-1.2,19.7-3,25.4
		c2.2,0.9,5.1,2.2,8.6,4c3.5,1.8,7.4,2.8,11.5,3c4.2,0.2,8.5-0.9,12.9-3.3c4.4-2.4,9-7.4,13.9-14.8c3.1-5.3,5.9-11.2,8.6-17.8
		c2.6-6.6,5-13.4,7.3-20.4c0-0.4,1.1-3.7,3.3-9.9c2.2-6.2,4.9-13,8.2-20.4c3.3-7.5,6.7-14.4,10.2-20.8c3.5-6.4,6.8-10,9.9-10.9
		c2.2-0.9,3.4,1.2,3.6,6.3c0.2,5.1-0.1,12-1,20.8c-0.4,5.7-1.3,14-2.6,24.7c-1.3,10.8-2.3,22.8-3,35.9c-0.7,13.2-0.7,27,0,41.6
		c0.7,14.5,2.7,28.1,6.3,40.9c4,14.1,9.2,25.5,15.8,34.3c6.6,8.8,13.9,14.3,21.8,16.5c7.9,2.2,16.2,0.8,24.7-4.3
		c8.6-5.1,17-14.4,25.4-28c5.3-9.2,10.3-19.2,15.2-30c3.3-7.4,6.5-14.8,9.6-22.3c3.7,13.8,9.9,25.5,18.4,35.1
		c8.6,9.7,19.9,15.4,34,17.1c6.6,0.4,13.5-0.4,20.8-2.6c7.3-2.2,14.6-6.6,22.1-13.2c6.2-5.3,13.2-12.5,21.1-21.8
		c7.9-9.2,15.7-19,23.4-29.4c7.7-10.3,14.9-20.7,21.8-31c6.8-10.3,12.2-19.2,16.2-26.7C614.1,515.9,613.8,513.7,612.5,511.5z
		 M479,523c2-7.3,4.3-13.9,6.9-19.8c2.6-5.9,5.6-10.8,8.9-14.5c3.3-3.7,6.9-5.6,10.9-5.6c3.5,0,6.2,1.2,7.9,3.6
		c1.8,2.4,2.9,5.3,3.3,8.6c0.4,3.3,0.3,6.6-0.3,9.9c-0.7,3.3-1.6,5.8-3,7.6c-8.4,13.6-21.5,24-39.6,31
		C475.3,537.2,477,530.3,479,523z"/>
	<path d="M613.6,108.9c-1-2.2-2.4-3.8-4-4.8c-1.7-1-3.6-1.2-5.8-0.5c-2.2,0.7-4.1,2.5-5.8,5.5c-5,16.8-10.3,32.7-15.6,47.7
		c-5.4,15-10.5,27.5-15.4,37.6c-4.9,10.1-9.3,17-13.1,20.7c-3.9,3.7-6.6,3-8.3-2c-3-9.4-4.6-20.3-4.8-32.5
		c-0.2-12.3,0.3-24.8,1.5-37.6c1.2-12.8,2.7-25,4.5-36.8c1.8-11.8,3.1-22,3.8-30.8c-6.4-2-12.1-2.6-17.1-1.8
		c-5,0.8-9.3,2.7-12.9,5.5c-3.5,2.9-6.6,6.4-9.1,10.6c-2.5,4.2-4.5,8.7-5.8,13.4l-26.2,69.1c-2,5-4,8.9-5.8,11.6
		c-1.9,2.7-3.5,3.9-5,3.5c-1.5-0.3-2.8-2.4-3.8-6.3c-1-3.9-1.7-10-2-18.4l0.5-24.2c1.3-12.4,2.9-24.4,4.8-35.8
		c1.8-11.4,3.1-21.3,3.8-29.8c-6.7-2-12.5-2.6-17.4-1.8c-4.9,0.8-9.1,2.7-12.6,5.5c-3.5,2.9-6.5,6.4-8.8,10.6
		c-2.4,4.2-4.2,8.7-5.5,13.4c-0.4,3.4-0.7,7.2-0.7,11.3c-1.5,3.2-3.4,6.4-5.6,9.6c-2.9,4.2-6.2,8.1-10.1,11.6
		c-3.9,3.5-8.1,6.4-12.6,8.6c-4.5,2.2-9,3.3-13.4,3.3c2-10.1,2.9-20.5,2.5-31.3c-0.3-10.8-1.2-18.7-2.5-23.7
		c-7.4-27.9-22.7-43.2-45.9-45.9c-3.4-0.3-7.4,0-12.1,1c-4.7,1-9.2,3-13.4,6.1c-4.2,3-7.7,7.2-10.6,12.6c-2.9,5.4-4.1,12.3-3.8,20.7
		c-6.7,4-11.9,9.8-15.6,17.4c-1.4,2.8-2.6,5.8-3.5,8.8c-5.1,5.1-10.9,11-17.6,17.9c-7.4,7.6-15.3,15.9-23.7,25
		c-1.3-9.4-2.7-18.6-4-27.5c-1.3-8.9-2.9-16.6-4.5-22.9c-1.3-5.7-4.1-11.2-8.3-16.4c-4.2-5.2-7.5-7.6-9.8-7.3
		c-0.3,0.3-0.7,1.1-1,2.3c-0.3,1.2-1.7,4.7-4,10.6c-2.4,5.9-5.9,15.1-10.6,27.5c-4.7,12.4-11.4,29.9-20.2,52.5
		c-2,5-3.9,8.9-5.5,11.6c-1.7,2.7-3.3,3.9-4.8,3.5c-1.5-0.3-2.8-2.4-3.8-6.3c-1-3.9-1.5-10-1.5-18.4l1.5-24.2
		c1.7-12.4,3.4-24.4,5.3-35.8c1.8-11.4,3.1-21.3,3.8-29.8c-6.4-2-12-2.6-16.9-1.8c-4.9,0.8-9.2,2.7-12.9,5.5
		c-3.7,2.9-6.8,6.4-9.3,10.6c-2.5,4.2-4.5,8.7-5.8,13.4c-1,7.7-1.2,17.1-0.5,28.2c0.7,11.1,2.5,22.4,5.5,33.8
		c2.3,8.7,5.9,16.1,10.6,21.9c4.7,5.9,9.7,9.9,15.1,12.1c5.4,2.2,10.8,2,16.1-0.5c5.4-2.5,10.1-7.8,14.1-15.9
		c2.7-5.4,5.5-12,8.6-19.9c3-7.9,5.2-14,6.6-18.4l7.1-19.7c-0.3,10.8-0.6,21.3-0.8,31.5c-0.2,10.3-0.4,20.6-0.8,31
		c-9.1,10.1-18.1,20.5-27,31.3c-8.9,10.8-17.3,21.3-25.2,31.8c-7.9,10.4-15.1,20.6-21.7,30.5c-6.6,9.9-12,19.1-16.4,27.5
		c-7.4,14.8-11.4,28.7-12.1,41.9c-0.7,13.1,1,24.8,5,35.1c4,10.3,10,18.6,17.9,25c7.9,6.4,16.6,10.2,26.2,11.3
		c9.6,1.2,19.5-0.8,29.8-5.8c10.3-5,19.9-13.8,29-26.2c9.4-13.1,16.5-28.4,21.2-45.9c4.7-17.5,7.9-35.8,9.6-55c1.7-19.2,2-38.5,1-58
		c-1-19.5-2.5-38.2-4.5-56c9.7-10.1,19-19.4,27.7-28c2.9-2.8,5.7-5.5,8.4-8.2c0.2,5.9,0.9,11.9,2.2,18c2,9.4,5.5,17.9,10.6,25.5
		c5,7.6,11.3,13.8,18.9,18.7c7.6,4.9,16.6,7.1,27,6.8c6.4,0,12.1-1.4,17.1-4.3c5-2.9,9.4-6.4,13.1-10.6c3.7-4.2,6.9-9,9.6-14.4
		c2.7-5.4,4.7-10.6,6.1-15.6c6.4,0.7,12.8-0.1,19.2-2.3c6.4-2.2,12.2-5.4,17.4-9.6c3.7-3,7.2-6.4,10.5-10.1c1.2,8.1,3,16.2,5.4,24.5
		c2.3,8.7,5.9,16.1,10.6,21.9c4.7,5.9,9.8,9.9,15.4,12.1c5.5,2.2,11,2,16.4-0.5c5.4-2.5,10.1-7.8,14.1-15.9c2.7-5.4,5.4-12,8.1-19.9
		c2.7-7.9,4.7-14,6.1-18.4c-0.3,6.4,0.3,14.6,1.8,24.7c1.5,10.1,4,19.8,7.6,29.3c3.5,9.4,8.2,17.6,14.1,24.5
		c5.9,6.9,13.2,10.3,21.9,10.3c7.4,0,14.2-4,20.4-12.1c6.2-8.1,11.9-18.1,17.1-30c5.2-11.9,10-24.5,14.4-37.6
		c4.4-13.1,8.2-24.7,11.6-34.8C614.6,113.5,614.6,111.1,613.6,108.9z M204.1,226.2c-0.7,6.1-1.3,11.9-2,17.7
		c-3.7,21.2-8,42-12.9,62.5c-4.9,20.5-11.2,38.3-18.9,53.5c-7.4,14.8-15.1,24.3-22.9,28.5c-7.9,4.2-14.4,4.2-19.4,0
		c-5-4.2-8-11.9-8.8-22.9c-0.8-11.1,2.1-24.7,8.8-40.9c7.4-17.1,18.2-35.9,32.3-56.2c14.1-20.3,29.4-40.3,45.9-59.8
		C205.4,214.2,204.8,220.1,204.1,226.2z M359.2,167.9c-1.9,3.9-4,7.5-6.6,10.8c-2.5,3.4-5.5,6.1-8.8,8.1c-3.4,2-7.1,2.9-11.1,2.5
		c-6.4-0.3-11.3-3.8-14.9-10.3s-6-14.1-7.3-22.7c-1.3-8.6-1.8-16.9-1.3-25c0.5-8.1,1.6-13.8,3.3-17.1c5,9.4,12.1,18.2,21.2,26.2
		c9.1,8.1,19,13.5,29.8,16.1C362.5,160.3,361,164,359.2,167.9z M369.5,120c-0.3,6.9-1.2,14.2-2.5,21.9c-3.7-1.3-7.9-3.4-12.6-6.3
		c-4.7-2.9-9.3-6.3-13.9-10.3c-4.5-4-8.6-8.3-12.1-12.9c-3.5-4.5-6-9.2-7.3-13.9c2.7-4,6.4-5.5,11.1-4.5c4.7,1,8.4,3.5,11.1,7.6
		c0.7,0.7,1.8,1,3.3,1c1.5,0,2.9-0.4,4-1.3c1.2-0.8,1.9-2.1,2.3-3.8c0.3-1.7,0-4-1-7.1c-3-6.7-8.3-11.2-15.9-13.4
		c-7.6-2.2-14.5-1.9-20.9,0.8c0.3-6.7,2.8-11.9,7.3-15.4c4.5-3.5,10.2-4.3,16.9-2.3c6.7,2,12.9,5.7,18.7,11.1
		c5.7,5.4,9.4,15,11.1,28.7C369.7,106.5,369.9,113.1,369.5,120z"/>
	<path d="M404.5,315.2c-0.9-0.6-1.7-1.2-2.4-1.9c2.2-1.1,4.6-1.9,6.9-2.2c2.7-0.3,4.9-0.2,6.5,0.2c1.4,0.4,2.4,1,3,1.6
		c0.5,0.6,0.6,1.2,0.5,1.8c-0.2,0.7-0.6,1.4-1.3,2c-0.8,0.6-1.9,1.1-3.3,1.3c-1.4,0.3-3.1,0-5.1-0.6
		C407.5,316.9,405.9,316.1,404.5,315.2z M517.5,376.3l-1.1,1.1c-40.2-6.5-80.1,5.7-118,16.9C357,407.7,291.5,407,281.6,379.4
		c20.3-10.7,39.1-18.4,48.3-34.9c-24.5-11.9-58.6-63.2-37.5-83.5c20.3,25.3,57.1,11.9,82.7,1.1c31.4-13.4,50.6-18.8,75.8-21.8
		c30.3-3.1,60.9,0.8,70.9,26.4c-18,3.1-40.2,11.1-42.5,29.1v3.4C505.2,313.9,529,349.9,517.5,376.3z M440.7,309.4l-0.1-0.3l-0.2-0.2
		c-0.6-0.9-1.4-1.6-2.3-1.8c-0.9-0.3-1.8-0.2-2.6,0.2c-0.7,0.4-1.3,1-1.6,1.7c-0.4,0.7-0.4,1.6-0.2,2.6c-0.3,2.6-1.2,4.7-2.7,6.4
		c-1.7,1.9-3.7,3.6-6,5.1c-2.4,1.5-5,3-7.7,4.3c-2.8,1.4-5.5,2.9-7.8,4.7c-2.4,1.8-4.4,3.9-5.9,6.4c-1.5,2.6-2.2,5.7-2,9.4
		c0,1.4,0.6,2.2,1,2.7c0.6,0.6,1.3,1,2.1,1.1c0.9,0.1,1.7-0.1,2.5-0.6c0.7-0.5,1.2-1.3,1.5-2.3l0.1-0.2l0-0.2
		c-0.1-2,0.2-3.8,1.1-5.3c0.9-1.6,2.2-3.1,3.8-4.5c1.7-1.4,3.6-2.7,5.7-3.9c1.9-1.1,3.9-2.2,6-3.4c1.5,0.8,2.6,2,3.6,3.7
		c1.1,2.1,1.9,4.4,2.4,6.9c0.5,3.4,0.2,6.8-0.9,10.2c-1.1,3.4-2.8,6.6-5.1,9.3c-2.3,2.8-5,5.1-8.1,6.9c-3.1,1.8-6.3,2.7-9.6,2.7
		c-2.9,0.1-5.8-0.3-8.5-1.1c-2.7-0.8-5.2-2.1-7.4-3.9c-2.2-1.8-4.1-4-5.6-6.7c-1.5-2.7-2.5-5.9-3.1-9.6c-0.6-3.8-0.5-7.7,0.2-11.6
		c0.7-3.9,2.3-7.7,4.6-11.3c1.1-1.7,2.4-3.3,3.7-4.8c1-1.2,2.1-2.4,3.3-3.4c1.1,0.8,2.3,1.5,3.5,2.2c1.6,0.9,3.4,1.6,5.2,2.1
		c4,1.2,7.5,1.6,10.4,1.1c3-0.5,5.4-1.5,7.1-3c1.8-1.6,2.9-3.4,3.2-5.6c0.3-2.2-0.1-4.2-1.3-6.1c-1.2-1.8-3.1-3.3-5.7-4.5
		c-1.9-0.8-4.1-1.2-6.8-1.2c-1,0-2,0.1-3.2,0.2c-3.7,0.6-7.1,1.6-10.1,2.8c-0.9-1.8-1.5-3.7-1.8-5.7c-0.4-2.5-0.6-4.9-0.4-7.2
		c0.3-2.4,0.9-4.8,1.8-7c0.9-2.2,2.1-4,3.6-5.4c1.7-1.6,3.6-2.7,5.6-3.1c2-0.4,3.8-0.3,5.5,0.3c1.7,0.6,3,1.7,4,3.4
		c1.1,1.7,1.6,3.8,1.5,6.4l0,0.3l0.1,0.3c0.4,1,1,1.7,1.8,2.1c0.8,0.4,1.7,0.5,2.6,0.2c0.7-0.2,1.4-0.7,1.9-1.4
		c0.5-0.6,0.9-1.4,1-2.4c0.3-3.9-0.6-7.3-2.5-10c-1.9-2.7-4.4-4.7-7.4-6c-3-1.3-6.3-1.8-9.9-1.6c-3.6,0.2-6.9,1.3-9.9,3.2
		c-3.7,2.2-6.5,5.1-8.4,8.7c-1.8,3.5-2.8,7.4-3,11.5c-0.2,3.4,0.2,6.8,1.2,10.2c0.8,2.9,2.1,5.6,3.7,8.1c-2.6,1.9-4.9,4-7,6.3
		c-4.4,4.8-7.4,10-9.1,15.6c-1.6,5.6-2.1,11.2-1.4,16.6c0.7,5,2.3,9.4,4.6,13c2.3,3.7,5.2,6.7,8.5,9.1c3.3,2.3,7,4.1,11.1,5.2
		c3.3,0.9,6.7,1.4,10.1,1.4c0.7,0,1.5,0,2.2-0.1c4.6-0.2,9.1-1.5,13.3-3.8c4.2-2.3,7.8-5.2,10.8-8.7c3-3.5,5.3-7.5,6.8-11.8
		c1.5-4.4,1.9-8.9,1-13.5c-0.6-3.1-1.6-6-3.2-8.6c-1.2-1.9-2.6-3.6-4.2-4.9c1-0.7,1.9-1.4,2.8-2.2c1.5-1.3,2.8-2.7,3.9-4.2
		c1.1-1.6,1.9-3.3,2.3-5.2C441.2,313.8,441.2,311.7,440.7,309.4z"/>
</g>
</svg>
