<?xml version="1.0" encoding="utf-8"?>
<!-- Generator: Adobe Illustrator 18.0.0, SVG Export Plug-In . SVG Version: 6.00 Build 0)  -->
<!DOCTYPE svg PUBLIC "-//W3C//DTD SVG 1.1//EN" "http://www.w3.org/Graphics/SVG/1.1/DTD/svg11.dtd">
<svg version="1.1" id="Layer_1" xmlns="http://www.w3.org/2000/svg" xmlns:xlink="http://www.w3.org/1999/xlink" x="0px" y="0px"
	 viewBox="0 0 720 720" style="enable-background:new 0 0 720 720;" xml:space="preserve">
<g>
	<path d="M434.6,560.2c-10.5-0.8-21.8,32.5-30.9,38.8c-4.6-5,0.6-23.6,2.2-30.1c3.4-14.1,20.8-44.9-2.2-46.7
		c-10.3-0.8-10.5,3.6-8.1-3.6c3-9.9,7.3-23.6-4-29.1c-10.9-5.5-37.6,32.9-23.4,40.8c10.1,5.7,20.6-5,12.5,10.1
		c-0.2,0-0.2,0.2-0.4,0.4c-1.2,2.4-3,5.3-5.1,9.1c-5.1,8.9-13.7,11.5-14.5,10.5c-2-2.6,1.2-10.9-3-21.2
		c-5.3-13.7-22.2-21.6-34.1-11.7c-9.4,8-15.8,20-18,32.6c-5.1,10.2-18,40.7-20,44.8c-1.6,3.2-3.4,8.3-5.7,4.2
		c-9.3-15.8,13.1-66.3-0.8-78.2c-11.1-9.3-23.8,5-29.9,13.3c-2.4,3.4-16,28.3-16.2,28.3c-1-1.8,2.2-26.1,2.4-30.5
		c0.6-7.3,4.2-19.8-3.6-23.4c-13.7-5.9-23.6,13.7-27.9,23.4c-7.5,16.8-6.1,25.9-7.7,4.4c-1-14.1-15.6-10.5-14.9-6.3
		c1.4,6.3,1.6,7.9,1.8,14.7c0.1,1.6,0.1,3.5,0.2,5.6c-3.4-0.7-8.1-0.5-9.3-0.3c-13.1,2.8-4.4-5.7-10.5-20.8
		c-5.3-13.7-22.2-21.6-34.1-11.7c-12.4,10.5-19.7,28.2-18.7,44.8c-2.1,5.2-4.2,10.1-6.2,15.6c-3.6,9.1-5.3,10.9-9.9,19
		c-1.2,2.2-5.5,5.3-7.5,4c-6.7-4.6-6.9-24.2-6.7-30.5c0.2-15.6,3.8-37.2,5.9-51.5c0.6-4.4,0-8.3,1.4-10.7c0.2-0.4,0.4-0.8,0.4-1.4
		v-0.8c8.7-2.6,22.8-1.4,22-6.3c-1.2-6.1-9.7-2.8-12.9-2.6c-10.1,0.4-6.7,4.8-5.9-13.7c0.4-10.3-8.1-11.3-8.7-6.1
		c-0.2,1.2-6.5,21-7.1,22.2c-3.4,5.3-28.1,2.6-26.9,7.9c1,5,9.7,2.2,12.9,2c5.1-0.2,8.9-1.6,10.7-0.8c0,0.6-0.2,3.2-0.2,4
		c-3.4,12.3-5,21.8-6.7,34.5c-2,13.5-1.2,19.2-0.8,31.9c0.2,7.9,4,21.6,9.9,26.7c7.7,6.7,14.5,0.2,20.6-4.8c3.2-2,5.3-7.5,7.5-10.3
		c1.4-1.8,7.1-14.9,7.5-17c0.6-2.6,1.1-3.9,1.7-4.8c1.2,5.8,3.4,11.4,7,16.3c6.7,7.3,12.3,9.5,22.2,7.5c7.9-1.6,13.7-2.6,18-9.9
		c6.1-10.5,5.1-22.2,6.7-25.5c1.3-3,12.2-2.5,17.9-3c0.3,14,1.2,34.3,8.9,39.6c10.3,6.9,9.5-6.7,8.9-13.5c-0.4-4.8-0.2-4.4-0.2-8.3
		c0.4-6.9,1.2-12.3,3.2-19c1.8-5.7,16.6-44.2,24.4-41.8c5.9,1.8-8.5,59.8,1.2,62.2c5.1-1.4,11.7-13.9,14.9-18.4
		c3.8-5.3,28.3-46.5,25.3-17.2c-1,11.3-3.2,19.6-3.2,31.5c-0.2,9.7-2.4,34.8,8.5,38.2c7.1,2.2,8.3-1.8,11.7-6.7
		c3.8-5.9,1.6-2.8,3.6-7.3c4-8.3,9.1-22,12.5-30.5c0.1-0.4,1-2.2,2-4.4c-0.2,9.5,2.3,18.9,7.9,26.6c6.7,7.3,12.3,9.5,22.2,7.5
		c7.9-1.6,13.7-2.6,18-9.9c6.1-10.5,5.1-22.2,6.7-25.5c1.8-4,12.7,2,23.2-22.8l1.4-2.6c2.6-5,3.2-10.5,7.9-12.1
		c11.7-3.8,12.1-4,8.9,6.9c-4.4,14.7-7.9,24.2-9.9,40.2c-1.2,9.1-2.2,37.4,14.9,25c5.1-5.1,6.5-9.7,10.7-14.9
		c5-6.3,10.7-20.2,15.8-23.8C433.6,562.4,441.1,560.8,434.6,560.2z M149,591.1c-20.4,9.5-22-23.6-20.6-35.4
		c4.2-22.6,1.2-6.7,13.3,2.8c6.1,4.6,12.7,5.3,14.5,6.3C158.6,566.5,155.6,587.9,149,591.1z M155.6,559.2c-6.1-2.8-12.9-9.7-15.6-16
		c-1-4.4-3.6-14.7,4.2-13.9c11.1,1,12.1,10.7,13.1,20C157.4,551.7,159.5,561,155.6,559.2z M343.3,591.1c-20.4,9.5-22-23.6-20.6-35.4
		c4.2-22.6,1.2-6.7,13.3,2.8c6.1,4.6,12.7,5.3,14.5,6.3C352.8,566.5,349.8,587.9,343.3,591.1z M349.8,559.2
		c-6.1-2.8-12.9-9.7-15.6-16c-1-4.4-3.6-14.7,4.2-13.9c11.1,1,12.1,10.7,13.1,20C351.6,551.7,353.8,561,349.8,559.2z M386.3,524.2
		c-17.6,3.8-1.8-20.8,2.2-25.9c2.2-2.4,1.8-2.4,4.4-3.4C397.8,492.5,393.6,522.8,386.3,524.2z M671.4,493.5
		c-5.5-4.6-13.1,5-16.4,8.7c-10.5,11.9-13.5,35-15.6,50.3c-2.8,21-1.8,43.6-5.1,63.2c-0.4,1.8-0.8,6.5-2.6,4
		c-12.3-18.4-11.7-43.8-16.4-64.6c-2.8-12.3-2.6-34.9-20-33.1c-8.3,1-11.7,23-12.9,29.5c-2.8,16-2.4,18.8-7.9,34.7
		c-0.6,2-3.8,16.4-6.3,10.9c-4.4-9.5-4.2-52.9-6.1-69.7c-0.8-8.3-6.3-13.7-13.7-8.7c0.2,5,4.8,6.1,3.4,19c-1,8.5-1.3,15.6-1.1,22.4
		c-3.2-0.4-6.8-0.2-7.8,0c-13.1,2.8-4.4-5.7-10.5-20.8c-5.3-13.7-22.2-21.6-34.1-11.7c-10.7,9.1-17.7,23.6-18.7,38.2
		c-7.8,9.6-15.6,28.7-22.1,33.3c-4.8-5,0.4-23.6,2-30.1c3.6-14.1,21-44.9-2-46.7c-10.3-0.8-10.5,3.6-8.3-3.6
		c3.2-9.9,7.3-23.6-3.8-29.1c-11.1-5.5-37.8,32.7-23.4,40.8c11.9,6.7,24.6-9.7,5.3,22c-3.4,5.3-7.7,6.9-4,9.5
		c2.8,1.8,13.3-17.6,14.5-20c2.8-5,3.2-10.5,8.1-12.1c11.5-3.8,11.9-4,8.7,6.9c-4.2,14.7-7.9,24.2-9.9,40.2
		c-1.2,9.1-2.2,37.4,14.9,25c5.3-5.1,6.7-9.7,10.7-14.9c2.9-3.7,6.1-9.7,9.2-14.9c0.4,8.2,2.9,16.2,7.9,23
		c6.7,7.3,12.3,9.5,22.2,7.5c7.9-1.6,13.7-2.6,18-9.9c6.1-10.5,5.1-22.2,6.7-25.5c1.2-2.7,10.5-2.5,16.5-2.9
		c0.5,8,1.7,16.1,3.3,26.2c2.8,17,14.5,22.8,25.1,6.7c5.5-8.5,11.1-36,13.5-47.3c1.2-5.5,2.6-21,4.4-7.3c2.4,16.4,3.6,28.7,7.5,44.9
		c3.2,13.5,7.5,45.1,27.9,39.2c9.3-2.8,11.5-38,11.9-46.1c1.2-20.4,2.8-61.4,17.6-77.6C666.3,498.4,675.6,497.2,671.4,493.5z
		 M439.9,524.2c-17.6,3.8-2-20.8,2.2-25.9c2.2-2.4,1.8-2.4,4.2-3.4C451.2,492.5,447.1,522.8,439.9,524.2z M517.8,591.1
		c-20.4,9.5-22-23.6-20.6-35.4c4.2-22.6,1.2-6.7,13.3,2.8c6.1,4.6,12.7,5.3,14.5,6.3C527.3,566.5,524.3,587.9,517.8,591.1z
		 M524.3,559.2c-6.1-2.8-12.9-9.7-15.6-16c-1-4.4-3.6-14.7,4.2-13.9c11.1,1,12.1,10.7,13.1,20C526.1,551.7,528.2,561,524.3,559.2z"
		/>
	<path d="M215.9,95.5c-2,0.2-3.5,0.6-4.6,1.3s-2.2,2-3.3,4l-9.9,17.7c-0.4,0.8-0.8,1.5-1,2.2c-0.2,0.7-0.4,1.3-0.4,1.8
		c-0.1,0.5-0.1,1.3-0.1,2.2v11.2c0,3.3,0.5,5.3,1.4,6.1c0.9,0.8,3.1,1.3,6.6,1.4c0.2,0.3,0.3,0.8,0.3,1.5s-0.1,1.2-0.3,1.5
		c-5.5-0.1-9.4-0.2-11.5-0.2c-2.3,0-6.2,0.1-11.6,0.2c-0.3-0.2-0.4-0.7-0.4-1.5s0.1-1.2,0.4-1.5c3.5-0.1,5.7-0.6,6.6-1.4
		c0.9-0.8,1.4-2.8,1.4-6.1v-10.4c0-1.5-0.1-2.6-0.3-3.3c-0.2-0.7-0.7-1.8-1.4-3L176.9,101c-0.9-1.6-1.8-2.7-2.6-3.5
		s-1.5-1.3-2.2-1.5c-0.7-0.2-1.7-0.4-3-0.5c-0.3-0.3-0.4-0.8-0.4-1.5s0.1-1.2,0.3-1.5c3.3,0.1,6.2,0.2,8.5,0.2
		c1.9,0,5.1-0.1,9.5-0.2c0.3,0.3,0.4,0.8,0.4,1.5c0,0.7-0.1,1.2-0.4,1.5c-2.3,0.1-3.6,0.5-4,1c-0.4,0.6,0,1.7,1,3.5l9.7,16.8
		c0.4,0.7,0.7,1,0.9,1c0.2,0,0.5-0.3,0.9-0.9l9.2-17.2c0.4-0.8,0.7-1.5,0.8-2c0.1-0.5,0-1-0.3-1.3c-0.3-0.3-0.8-0.6-1.3-0.7
		c-0.6-0.1-1.3-0.2-2.3-0.3c-0.3-0.2-0.4-0.7-0.4-1.5s0.1-1.3,0.4-1.5c4.4,0.1,6.9,0.2,7.5,0.2c1.3,0,3.6-0.1,6.9-0.2
		c0.3,0.3,0.4,0.8,0.4,1.5C216.3,94.8,216.2,95.3,215.9,95.5z M248.1,119.7c1.1,2.7,1.6,5.6,1.6,8.7c0,5.8-1.8,10.4-5.4,14
		c-3.2,3.1-7.2,4.7-12.2,4.6c-5.5,0-9.8-1.8-12.9-5.4c-3-3.6-4.6-7.8-4.6-12.5c0-5.5,1.5-10,4.6-13.6c3.3-3.9,7.6-5.8,13-5.8
		c4,0,7.3,1,10.1,2.9S247,117,248.1,119.7z M242.6,131.1c0-5.9-1-10.4-3.1-13.6s-4.9-4.7-8.5-4.7c-6.1,0-9.2,4.8-9.2,14.5
		c0,1.8,0.2,3.6,0.6,5.4c0.4,1.8,1,3.6,1.9,5.4c0.8,1.8,2,3.2,3.6,4.3c1.6,1.1,3.4,1.7,5.4,1.7c2.4,0,4.6-1,6.5-3
		C241.6,139.1,242.6,135.8,242.6,131.1z M295.9,141.5c-2.5-0.2-4.2-0.7-4.9-1.6s-1.1-2.3-1.1-4.5v-15.9c0-1.6,0.1-4.5,0.3-8.5
		c0-0.4-0.2-0.6-0.6-0.6c-0.6,0.1-1.5,0.2-2.9,0.2c-1.5,0-4.4-0.1-8.5-0.2c-0.3,0.3-0.4,0.8-0.4,1.6c0,0.7,0.1,1.2,0.4,1.4
		c2.1,0.1,3.5,0.6,4.2,1.4c0.7,0.9,1,2.6,1,5.2V136c0,1.4-0.4,2.4-1.3,3.2c-3.1,2.6-5.8,3.9-8.3,3.9c-1.7,0-3.3-0.6-4.6-1.8
		c-1.4-1.2-2-3.5-2-6.7v-15.1c0-1.6,0.1-4.5,0.3-8.5c0-0.4-0.2-0.6-0.6-0.6c-0.6,0.1-1.5,0.2-2.9,0.2c-1.5,0-4.4-0.1-8.5-0.2
		c-0.2,0.3-0.3,0.8-0.3,1.6c0,0.7,0.1,1.2,0.3,1.4c2.1,0.2,3.4,0.7,4.1,1.5c0.7,0.8,1,2.5,1,5.1v15.8c0,3.3,0.8,5.9,2.5,8.1
		c1.7,2.1,4.4,3.2,8.2,3.2c3.4,0,7.2-1.6,11.2-4.9c0.6-0.6,1-0.5,1,0.1c0,1.2,0.3,2.9,0.9,4.9c0.4,0.2,1,0.2,1.6,0
		c2.1-1.6,5.4-2.7,10.1-3.3c0.3-0.2,0.4-0.6,0.4-1.1S296.2,141.8,295.9,141.5z"/>
	<path d="M354.7,142c-0.1,0-0.3,0.2-0.8,0.6c-0.5,0.4-1.1,0.6-1.7,0.6c-1,0-1.8-0.4-2.3-1.1s-0.8-1.5-0.9-2.3s-0.1-2-0.1-3.6V124
		c0-9.5-4.2-14.2-12.6-14.2c-3.4,0-6.5,1-9.4,2.9c-2.9,1.9-4.3,4-4.3,6.3c0,1.9,0.9,2.9,2.9,2.9c1.1,0,2-0.3,2.7-0.9s1-1.2,1-1.8
		c0-0.7-0.1-1.1-0.2-1.5c-0.1-0.3-0.2-0.8-0.2-1.6c0-1.1,0.7-2,2.1-2.5c1.4-0.6,3-0.9,4.8-0.9c4.5,0,6.7,3.5,6.7,10.6
		c0,0.5-0.2,0.9-0.5,1l-7.2,1.8c-4.1,1-7.4,2.6-10,4.7s-3.9,4.5-3.9,7.3c0,3.1,1,5.4,2.9,6.8c1.9,1.4,4.5,2.1,7.8,2.1
		c1.9,0,3.4-0.2,4.5-0.7s2.7-1.4,4.5-2.8l1.7-1.3h0.2c1,3.2,3.1,4.8,6.5,4.8c1.2,0,2.4-0.3,3.6-0.9c1.2-0.6,2-1.2,2.6-1.7
		c0.6-0.6,0.9-1,0.9-1.1c0-0.3-0.1-0.6-0.4-0.9C355.1,142.1,354.9,142,354.7,142z M342.3,137.9c0,0.9-0.4,1.6-1.2,2.1
		c-2.9,2.4-5.3,3.6-7.3,3.6c-1.9,0-3.4-0.6-4.4-1.8s-1.5-2.6-1.5-4.1c-0.1-4.8,2.6-7.8,7.8-9.2l6.6-1.7V137.9z M384.3,111.1
		c0.9,0.9,1.3,1.8,1.3,2.7c0,1.1-0.4,2-1.2,2.9c-0.8,0.9-1.7,1.3-2.7,1.3c-0.4,0-0.8-0.1-1.2-0.3c-0.4-0.2-0.7-0.4-0.9-0.6
		c-0.2-0.2-0.4-0.5-0.8-0.8c-0.3-0.4-0.5-0.6-0.6-0.7c-0.4-0.4-1-0.6-1.7-0.6c-0.7,0-1.9,1.3-3.8,4c-1.3,2-2,3.8-2,5.5v11.4
		c0,3.3,0.4,5.3,1.1,6c0.7,0.7,2.6,1.2,5.7,1.5c0.3,0.3,0.4,0.8,0.4,1.5s-0.1,1.2-0.4,1.5c-4.8-0.1-8.1-0.2-10.1-0.2
		c-1.6,0-4.8,0.1-9.5,0.2c-0.2-0.2-0.3-0.7-0.3-1.5s0.1-1.2,0.3-1.5c2.7-0.2,4.4-0.6,5.1-1.4s1.1-2.8,1.1-6.1v-16
		c0-2.3-0.3-3.8-1-4.4c-0.6-0.6-2.1-1-4.4-1.2c-0.3-0.9-0.4-1.7-0.2-2.4c4.3-0.5,7.8-1.3,10.5-2.4c0.4,0,0.8,0.2,1,0.6
		c0.5,1,0.7,3.1,0.7,6.3c0,0.3,0,0.5,0.1,0.6s0.3,0,0.5-0.4c1.1-1.9,2.5-3.5,4.1-4.8c1.6-1.4,3.3-2,5.1-2
		C382.2,109.8,383.4,110.2,384.3,111.1z M418.3,138.6c-1.6,1.6-3.1,2.8-4.6,3.5c-1.5,0.7-3.4,1-5.7,1c-3.6,0-6.6-2-9.1-6
		c-1.8-2.9-2.6-6.7-2.6-11.4l22.1,0.2c1,0,1.5-0.5,1.5-1.5c0-9.6-4.7-14.4-14-14.4c-4.1,0-7.9,1.8-11.4,5.4
		c-3.5,3.6-5.3,8.3-5.3,14.2c0,5.2,1.3,9.3,3.9,12.3c3,3.5,7.3,5.3,12.8,5.3c5.7,0,10.4-2.4,14.1-7.2
		C419.8,139,419.2,138.6,418.3,138.6z M398.4,117.4c0.8-1.4,1.8-2.4,2.8-3c1-0.6,1.9-1,2.6-1.1c0.7-0.2,1.4-0.3,2.1-0.3
		c1.9,0,3.5,0.6,4.9,1.9s2,3.4,2,6.5c0,0.7-0.4,1.1-1.2,1.1l-15,0.2C396.9,120.6,397.5,118.8,398.4,117.4z"/>
	<path d="M508.5,143.4c0.2,0.2,0.3,0.7,0.3,1.5c0,0.7-0.1,1.2-0.3,1.5c-4.8-0.1-7.6-0.2-8.6-0.2c-1,0-3.8,0.1-8.5,0.2
		c-0.2-0.3-0.3-0.8-0.3-1.5c0-0.7,0.1-1.2,0.3-1.5c2.3-0.2,3.7-0.6,4.3-1.4c0.6-0.8,0.9-2.8,0.9-6.1v-14.5c0-2.6-0.4-4.5-1.2-5.6
		c-0.8-1.1-2.1-1.7-3.7-1.7c-4,0-7.6,1.8-11,5.5c0.1,0.7,0.1,1.8,0.1,3.3v13.1c0,3.3,0.3,5.3,0.8,6.1c0.6,0.8,1.9,1.2,4.1,1.4
		c0.2,0.2,0.3,0.7,0.3,1.5s-0.1,1.3-0.3,1.5c-4.8-0.1-7.5-0.2-8.2-0.2c-1,0-3.8,0.1-8.5,0.2c-0.2-0.2-0.3-0.7-0.3-1.5
		s0.1-1.2,0.3-1.5c2.3-0.2,3.8-0.6,4.3-1.4c0.6-0.8,0.8-2.8,0.8-6.1v-14.3c0-5-1.8-7.5-5.5-7.5c-2.6,0-5.6,1.6-8.9,4.9
		c-0.9,1-1.4,2.1-1.4,3.5v13.5c0,2.3,0.1,3.9,0.4,4.9c0.3,1,0.7,1.6,1.3,1.9c0.6,0.3,1.7,0.5,3.2,0.7c0.2,0.3,0.3,0.8,0.3,1.5
		c0,0.7-0.1,1.2-0.3,1.5c-4.7-0.1-7.4-0.2-8.2-0.2c-1.4,0-4.4,0.1-8.9,0.2c-0.2-0.2-0.3-0.7-0.3-1.5s0.1-1.2,0.3-1.5
		c2.4-0.2,4-0.6,4.6-1.4c0.7-0.8,1-2.8,1-6.1v-16c0-2.3-0.3-3.8-1-4.4c-0.6-0.6-2.1-1-4.5-1.2c-0.3-0.9-0.4-1.7-0.2-2.4
		c4.3-0.5,7.8-1.3,10.5-2.4c0.4,0,0.8,0.2,1,0.6c0.4,1,0.7,3.1,0.7,6.3c0,0.7,0.2,0.7,0.6,0.2c0.1-0.1,0.1-0.1,0.2-0.2
		c4.3-4.5,8.5-6.7,12.6-6.7c2.1,0,3.9,0.6,5.4,1.7c1.5,1.1,2.5,2.6,2.9,4.3c0.1,0.5,0.4,0.5,0.9,0c1.4-1.4,2.9-2.6,4.5-3.6
		c1.6-0.9,3.2-1.6,4.7-2c1.5-0.4,3-0.5,4.5-0.5c3.4,0,5.7,1.1,6.8,3.4c1.2,2.3,1.7,5.5,1.7,9.8v13c0,3.3,0.3,5.3,0.9,6.1
		C504.6,142.8,506.1,143.2,508.5,143.4z M551.3,110.4c-2.8,0.1-4.7,0.2-5.9,0.2c-0.9,0-3.5-0.1-7.6-0.2c-0.3,0.3-0.4,0.8-0.4,1.6
		c0,0.7,0.1,1.2,0.4,1.4c1.7,0.2,2.9,0.5,3.7,1c0.8,0.5,0.9,1.4,0.3,2.7l-8.2,18.9c-0.2,0.3-0.3,0.6-0.5,0.8s-0.3,0.3-0.5,0.3
		c-0.2,0-0.3-0.1-0.5-0.3c-0.2-0.2-0.3-0.5-0.5-0.9l-7.4-17.2c-0.1-0.1-0.1-0.3-0.2-0.4c-0.3-0.8-0.6-1.4-0.7-1.7
		c-0.1-0.4-0.2-0.8-0.3-1.3c0-0.5,0.1-0.8,0.3-1c0.3-0.2,0.7-0.4,1.2-0.6c0.6-0.2,1.3-0.3,2.3-0.4c0.2-0.2,0.3-0.7,0.3-1.5
		c0-0.7-0.1-1.3-0.3-1.5c-4.1,0.1-7.2,0.2-9.4,0.2c-2.3,0-4.5-0.1-6.7-0.2c-0.2,0.3-0.3,0.8-0.3,1.6c0,0.7,0.1,1.2,0.3,1.4
		c1.3,0.1,2.2,0.3,2.9,0.6c0.6,0.3,1.2,0.9,1.7,1.6c0.5,0.8,1.2,2.1,2,3.9l9.4,21.7c1.5,3.3,1.9,5.9,1.2,7.8
		c-0.8,2.4-1.9,4.9-3.2,7.6c-0.9,1.6-2.3,2.4-4.2,2.4c-0.4,0-0.8,0-1.3-0.1c-0.5-0.1-0.8-0.1-1.1-0.1c-1.1,0-1.9,0.4-2.6,1.2
		c-0.7,0.8-1,1.6-1,2.3c0,0.9,0.4,1.6,1.1,2.2c0.7,0.6,1.7,0.9,2.8,0.9c3.2,0,5.9-2,8.1-5.9c1.1-2,2.2-4.4,3.4-7.1
		c6.2-15.1,11.1-26.4,14.7-33.7c0.7-1.3,1.6-2.5,2.8-3.5c1.2-1,2.5-1.6,3.9-1.7c0.3-0.2,0.4-0.7,0.4-1.5
		C551.7,111.3,551.6,110.7,551.3,110.4z"/>
	<path d="M225.1,442.5c-1.6,3-3.7,4.5-6.3,4.5c-0.7,0-1.6-0.5-2.8-1.4c-1.2-0.9-2.4-2.2-3.6-3.9l-3-4.2c2.2-3.2,4.7-7.2,7.4-12
		c1.9-3.4,3.3-5.4,4.3-6.2s2.7-1.2,5.2-1.4c0.3-0.3,0.4-0.8,0.4-1.5c0-0.7-0.1-1.2-0.4-1.5c-2.2,0.1-4.5,0.2-7,0.2
		c-3.1,0-5.7-0.1-7.9-0.2c-0.2,0.2-0.3,0.7-0.3,1.5c0,0.7,0.1,1.2,0.3,1.5c1.3,0.1,2.2,0.1,2.8,0.3c0.6,0.1,1,0.4,1.3,0.9
		c0.3,0.4,0.3,1.1,0.1,1.9c-0.3,0.8-0.8,2-1.6,3.4c-1.9,3.7-4.1,7.2-6.4,10.6c-5-6.8-8.4-11.7-10.1-14.6l-0.3-0.7
		c3.6-2.1,6.5-4.4,8.9-6.9c2.3-2.5,3.5-4.8,3.5-7c0-2.6-1-4.8-3.1-6.5c-2.1-1.7-4.6-2.5-7.5-2.5c-4,0-7.2,1.1-9.6,3.4
		c-2.4,2.2-3.6,4.7-3.6,7.4c0,2.9,1.5,6.9,4.5,11.7c-5.5,3.1-9.4,6-11.8,8.9c-2.4,2.9-3.6,6-3.6,9.3c0,4.8,1.5,8.2,4.4,10.4
		c2.9,2.2,6.8,3.3,11.7,3.3c6.1,0,11.3-2.9,15.5-8.6l2.4,3.1c1.2,1.7,2.4,3,3.7,3.8c1.2,0.9,2.3,1.4,3,1.5c0.8,0.1,1.7,0.2,2.8,0.2
		c1.6,0,3.2-0.7,4.8-2c1.6-1.4,2.8-3.4,3.7-6.1C226.3,442.7,225.7,442.5,225.1,442.5z M194.4,401.9c1.4-1.3,2.8-2,4.1-2
		c1.6,0,2.9,0.5,3.9,1.6c0.9,1.1,1.4,2.5,1.4,4.4c0,1.5-0.7,3.2-2.2,5.2c-1.5,1.9-3.5,3.8-6.1,5.4c-2.1-3.9-3.2-6.9-3.2-9
		C192.3,405.1,193,403.2,194.4,401.9z M198.3,446.5c-1.8,1.3-4.1,1.9-6.8,1.9c-3,0-5.5-0.9-7.3-2.6c-1.9-1.7-2.8-4.4-2.8-8.2
		c0-3.2,0.7-6,2.2-8.3c1.5-2.3,4.4-4.6,8.6-6.8c0.5,0.9,2.1,3.4,4.8,7.3s5.2,7.3,7.5,10.3C202.2,443.2,200.1,445.3,198.3,446.5z"/>
	<path d="M287.3,446.3c-0.1,0-0.3,0.2-0.8,0.6c-0.5,0.4-1.1,0.6-1.7,0.6c-1,0-1.8-0.4-2.3-1.1s-0.8-1.5-0.9-2.3s-0.1-2-0.1-3.6
		v-12.3c0-9.5-4.2-14.2-12.6-14.2c-3.4,0-6.5,1-9.4,2.9c-2.9,1.9-4.3,4-4.3,6.3c0,1.9,0.9,2.9,2.9,2.9c1.1,0,2-0.3,2.7-0.9
		s1-1.2,1-1.8c0-0.7-0.1-1.1-0.2-1.5c-0.1-0.3-0.2-0.8-0.2-1.6c0-1.1,0.7-2,2.1-2.5c1.4-0.6,3-0.9,4.8-0.9c4.5,0,6.7,3.5,6.7,10.6
		c0,0.5-0.2,0.9-0.5,1l-7.2,1.8c-4.1,1-7.4,2.6-10,4.7s-3.9,4.5-3.9,7.3c0,3.1,1,5.4,2.9,6.8c1.9,1.4,4.5,2.1,7.8,2.1
		c1.9,0,3.4-0.2,4.5-0.7s2.7-1.4,4.5-2.8l1.7-1.3h0.2c1,3.2,3.1,4.8,6.5,4.8c1.2,0,2.4-0.3,3.6-0.9c1.2-0.6,2-1.2,2.6-1.7
		c0.6-0.6,0.9-1,0.9-1.1c0-0.3-0.1-0.6-0.4-0.9C287.7,446.5,287.5,446.3,287.3,446.3z M274.8,442.3c0,0.9-0.4,1.6-1.2,2.1
		c-2.9,2.4-5.3,3.6-7.3,3.6c-1.9,0-3.4-0.6-4.4-1.8s-1.5-2.6-1.5-4.1c-0.1-4.8,2.6-7.8,7.8-9.2l6.6-1.7V442.3z M308.9,447.8
		c0.2,0.3,0.3,0.8,0.3,1.5s-0.1,1.2-0.3,1.5c-4.7-0.1-7.8-0.2-9.2-0.2c-1.5,0-4.6,0.1-9.3,0.2c-0.3-0.2-0.4-0.7-0.4-1.5
		s0.1-1.2,0.4-1.5c2.6-0.1,4.2-0.6,4.9-1.4s1-2.9,1-6.2v-36.1c0-1.8,0-3.1-0.1-4c-0.1-0.9-0.4-1.5-1.1-1.9s-1.1-0.6-1.4-0.7
		c-0.3,0-1.2-0.1-2.8-0.2c-0.6-0.6-0.8-1.4-0.5-2.5c4.9-0.4,8.8-1.1,11.7-2.3c0.7,0,1.1,0.3,1.1,0.9c-0.2,2.2-0.3,5.1-0.4,8.7v38.1
		c0,3.3,0.3,5.4,1,6.2C304.6,447.2,306.3,447.6,308.9,447.8z M331.1,449.3c0,0.7-0.1,1.2-0.3,1.5c-4.7-0.1-7.8-0.2-9.2-0.2
		c-1.5,0-4.6,0.1-9.3,0.2c-0.3-0.2-0.4-0.7-0.4-1.5s0.1-1.2,0.4-1.5c2.6-0.1,4.2-0.6,4.9-1.4s1-2.9,1-6.2v-36.1c0-1.8,0-3.1-0.1-4
		c-0.1-0.9-0.4-1.5-1.1-1.9s-1.1-0.6-1.4-0.7c-0.3,0-1.2-0.1-2.8-0.2c-0.6-0.6-0.8-1.4-0.5-2.5c4.9-0.4,8.8-1.1,11.7-2.3
		c0.7,0,1.1,0.3,1.1,0.9c-0.2,2.2-0.3,5.1-0.4,8.7v38.1c0,3.3,0.3,5.4,1,6.2c0.7,0.8,2.3,1.3,4.9,1.4
		C331,448.1,331.1,448.6,331.1,449.3z"/>
	<path d="M384.1,417.1c-2.7-2-6.1-2.9-10.1-2.9c-5.4,0-9.7,1.9-13,5.8c-3.1,3.6-4.6,8.1-4.6,13.6c0,4.7,1.5,8.9,4.6,12.5
		c3,3.6,7.3,5.4,12.9,5.4c5,0,9-1.5,12.2-4.6c3.6-3.5,5.4-8.2,5.4-14c0-3.1-0.5-6-1.6-8.7C388.7,421.4,386.8,419.1,384.1,417.1z
		 M381.5,445.4c-1.9,2-4,3-6.5,3c-2.1,0-3.9-0.6-5.4-1.7c-1.6-1.1-2.7-2.6-3.6-4.3c-0.8-1.8-1.4-3.5-1.9-5.4
		c-0.4-1.8-0.6-3.6-0.6-5.4c0-9.7,3.1-14.5,9.2-14.5c3.6,0,6.4,1.6,8.5,4.7s3.1,7.7,3.1,13.6C384.3,440.1,383.4,443.5,381.5,445.4z
		 M427.5,398.6c0,0.8-0.4,1.6-1.1,2.3c-0.8,0.7-1.5,1.1-2.2,1.1c-1.4,0-2.5-0.9-3.2-2.6c-0.5-1.4-1.2-2.4-1.9-2.9
		c-0.8-0.6-1.8-0.8-3-0.8c-4.4,0-6.5,4.9-6.5,14.7v4.7h9c0.4,0,0.6,0.2,0.6,0.5v1.5c0,0.7-0.6,1-1.9,1h-7.7v22.2
		c0,3.3,0.4,5.4,1.1,6.1s2.5,1.2,5.4,1.4c0.2,0.3,0.3,0.8,0.3,1.5s-0.1,1.2-0.3,1.5c-4.8-0.1-8-0.2-9.8-0.2c-1.2,0-4.1,0.1-8.8,0.2
		c-0.3-0.2-0.4-0.7-0.4-1.5s0.1-1.2,0.4-1.5c2.4-0.2,3.9-0.6,4.5-1.4s0.9-2.8,0.9-6.2V418h-5.7c-0.3,0-0.4-0.1-0.4-0.5v-1
		c0-1,0.6-1.5,1.9-1.5h4.2v-3.3c0-6,1.5-10.7,4.4-14c3-3.3,6.4-5,10.3-5c3.3,0,5.7,0.6,7.3,1.8C426.6,395.7,427.5,397.1,427.5,398.6
		z"/>
	<path d="M505.9,447.8c0.2,0.2,0.3,0.7,0.3,1.5c0,0.7-0.1,1.2-0.3,1.5c-4.8-0.1-7.6-0.2-8.6-0.2c-1,0-3.8,0.1-8.5,0.2
		c-0.2-0.3-0.3-0.8-0.3-1.5c0-0.7,0.1-1.2,0.3-1.5c2.3-0.2,3.7-0.6,4.3-1.4c0.6-0.8,0.9-2.8,0.9-6.1v-14.5c0-2.6-0.4-4.5-1.2-5.6
		c-0.8-1.1-2.1-1.7-3.7-1.7c-4,0-7.6,1.8-11,5.5c0.1,0.7,0.1,1.8,0.1,3.3v13.1c0,3.3,0.3,5.3,0.8,6.1c0.6,0.8,1.9,1.2,4.1,1.4
		c0.2,0.2,0.3,0.7,0.3,1.5s-0.1,1.3-0.3,1.5c-4.8-0.1-7.5-0.2-8.2-0.2c-1,0-3.8,0.1-8.5,0.2c-0.2-0.2-0.3-0.7-0.3-1.5
		s0.1-1.2,0.3-1.5c2.3-0.2,3.8-0.6,4.3-1.4c0.6-0.8,0.8-2.8,0.8-6.1V426c0-5-1.8-7.5-5.5-7.5c-2.6,0-5.6,1.6-8.9,4.9
		c-0.9,1-1.4,2.1-1.4,3.5v13.5c0,2.3,0.1,3.9,0.4,4.9c0.3,1,0.7,1.6,1.3,1.9c0.6,0.3,1.7,0.5,3.2,0.7c0.2,0.3,0.3,0.8,0.3,1.5
		c0,0.7-0.1,1.2-0.3,1.5c-4.7-0.1-7.4-0.2-8.2-0.2c-1.4,0-4.4,0.1-8.9,0.2c-0.2-0.2-0.3-0.7-0.3-1.5s0.1-1.2,0.3-1.5
		c2.4-0.2,4-0.6,4.6-1.4c0.7-0.8,1-2.8,1-6.1v-16c0-2.3-0.3-3.8-1-4.4c-0.6-0.6-2.1-1-4.5-1.2c-0.3-0.9-0.4-1.7-0.2-2.4
		c4.3-0.5,7.8-1.3,10.5-2.4c0.4,0,0.8,0.2,1,0.6c0.4,1,0.7,3.1,0.7,6.3c0,0.7,0.2,0.7,0.6,0.2c0.1-0.1,0.1-0.1,0.2-0.2
		c4.3-4.5,8.5-6.7,12.6-6.7c2.1,0,3.9,0.6,5.4,1.7c1.5,1.1,2.5,2.6,2.9,4.3c0.1,0.5,0.4,0.5,0.9,0c1.4-1.4,2.9-2.6,4.5-3.6
		c1.6-0.9,3.2-1.6,4.7-2c1.5-0.4,3-0.5,4.5-0.5c3.4,0,5.7,1.1,6.8,3.4c1.2,2.3,1.7,5.5,1.7,9.8v13c0,3.3,0.3,5.3,0.9,6.1
		C502,447.1,503.5,447.6,505.9,447.8z M548.7,414.8c-2.8,0.1-4.7,0.2-5.9,0.2c-0.9,0-3.5-0.1-7.6-0.2c-0.3,0.3-0.4,0.8-0.4,1.6
		c0,0.7,0.1,1.2,0.4,1.4c1.7,0.2,2.9,0.5,3.7,1c0.8,0.5,0.9,1.4,0.3,2.7l-8.2,18.9c-0.2,0.3-0.3,0.6-0.5,0.8s-0.3,0.3-0.5,0.3
		c-0.2,0-0.3-0.1-0.5-0.3c-0.2-0.2-0.3-0.5-0.5-0.9l-7.4-17.2c-0.1-0.1-0.1-0.3-0.2-0.4c-0.3-0.8-0.6-1.4-0.7-1.7
		c-0.1-0.4-0.2-0.8-0.3-1.3c0-0.5,0.1-0.8,0.3-1c0.3-0.2,0.7-0.4,1.2-0.6c0.6-0.2,1.3-0.3,2.3-0.4c0.2-0.2,0.3-0.7,0.3-1.5
		c0-0.7-0.1-1.3-0.3-1.5c-4.1,0.1-7.2,0.2-9.4,0.2c-2.3,0-4.5-0.1-6.7-0.2c-0.2,0.3-0.3,0.8-0.3,1.6c0,0.7,0.1,1.2,0.3,1.4
		c1.3,0.1,2.2,0.3,2.9,0.6c0.6,0.3,1.2,0.9,1.7,1.6c0.5,0.8,1.2,2.1,2,3.9l9.4,21.7c1.5,3.3,1.9,5.9,1.2,7.8
		c-0.8,2.4-1.9,4.9-3.2,7.6c-0.9,1.6-2.3,2.4-4.2,2.4c-0.4,0-0.8,0-1.3-0.1c-0.5-0.1-0.8-0.1-1.1-0.1c-1.1,0-1.9,0.4-2.6,1.2
		c-0.7,0.8-1,1.6-1,2.3c0,0.9,0.4,1.6,1.1,2.2c0.7,0.6,1.7,0.9,2.8,0.9c3.2,0,5.9-2,8.1-5.9c1.1-2,2.2-4.4,3.4-7.1
		c6.2-15.1,11.1-26.4,14.7-33.7c0.7-1.3,1.6-2.5,2.8-3.5c1.2-1,2.5-1.6,3.9-1.7c0.3-0.2,0.4-0.7,0.4-1.5
		C549.1,415.6,549,415.1,548.7,414.8z"/>
	<path d="M662.4,243.9l-1.6-0.4c-13.7-2.6-26.5,14.5-37.8,5.1c-5.3-4.4-4-5.7,0-9.1c3.8-3.4,8.1-8.9,7.7-14.5
		c-0.6-6.7-14.1-11.5-15.6,7.5c-0.4,3.4,1.2,7.3-1.8,8.7c-4.2,1.6-7.9,1.4-12.1,0c-10.3-3.8-20.6-7.3-31.9-6.7
		c-11.7,0.8-28.7,12.5-38,20c-6.9,5.5-14.1,13.1-21.8,20.8c-0.2-2.8,0.4-4.8,0.4-7.9c0-8.5,6.1-54.3,3.2-58.4
		c-3.6-5.1-7.5-3.4-12.1-1.6c1,4.4,0.4,7.3-0.6,11.7c-5,21.2-15.6,39.6-28.3,57.2c-5.1,7.1-9.9,14.9-8.9,0.4
		c1.2-19.6,5.9-30.3,3.8-51.5c-1-9.1-7.9-14.3-16.8-10.7c-0.8,0.8,0.6,1,2.2,2.2c3.6,2.4,2,21.6,1.8,24.2c-0.3,2.6-0.6,5.2-1,7.9
		c-1.9,4.2-4.1,10.3-4.2,10.5c-3,7.3-11.5,26.3-15.6,31.9c-6.5,8.3-7.3,10.3-6.9-2c0.2-7.1,1-13.1,1.4-19.8
		c0.8-15.4,6.9-35,2.8-48.9c-1.8-5.9-12.5-10.9-15.6-3c-7.3,19.4-0.2,5-17.2,5.7c-5.1,0.4-5.9,3-8.1,4c-5.3,2.6-8.3,7.9-10.9,13.1
		c-2.3,5.1-4.6,13-5.3,20.6c-2.3,6.9-5.4,14.6-6.7,21c-1.6,7.3-4.6,19.4-9.5,24.6c-2.8,3-6.1-8.9-6.5-11.3c-0.8-6.5-1.6-7.9-2-15.6
		c-0.2-7.3,0.2-15.2,0.6-22.6c0.8-9.9,0-7.3,6.7-11.7c8.1-5.3,16.4-13.9,21-22.4c5.9-11.5,8.1-18.6,9.9-30.9
		c1.4-9.5,0.4-18.6-11.1-21c-14.9-3.2-31.9,33.7-35.2,45.1c-0.6,2.6-1.6,12.1-3,11.9c-7.9-1.4-5.5-5.9-15.2-1
		c-10.7,5.3-14.7,18.4-15.9,29.6c-3.3-0.5-7.4-0.4-8.4-0.1c-13.1,2.8-4.4-5.7-10.5-20.8c-5.3-13.7-22.2-21.6-34.1-11.7
		c-8.6,7.3-14.8,18.1-17.4,29.6c-1.1,2.3-2.2,5.3-3,7.2c-3,8.3-6.3,15.6-9.3,23.6c-3.4,9.1-5.1,10.9-9.7,19c-1.4,2.2-5.7,5.3-7.7,4
		c-6.5-4.6-6.7-24.2-6.7-30.5c0.4-15.6,3.8-37.2,5.9-51.5c0.8-4.4,0.2-8.3,1.6-10.7l0.4-1.4v-0.8c8.5-2.6,22.6-1.4,21.8-6.3
		c-1-6.1-9.5-2.8-12.7-2.6c-10.1,0.4-6.7,4.8-5.9-13.7c0.4-10.3-8.3-11.3-8.7-6.1c-0.2,1.2-6.5,21-7.1,22.2
		c-3.4,5.3-28.1,2.6-26.9,7.9c1,5,9.5,2.2,12.7,2c5.3-0.2,9.1-1.6,10.9-0.8c0,0.6-0.2,3.2-0.4,4l-3.2,13.5
		c-7.9,8.3-15.8,16.4-24.6,23c-20.6,15.6-32.7,0.6-51.7,2.2c-1.6,0-8.3,1.6-8.3,1.6c-1-0.2-7.7-12.7-22.2-6.9
		c-7.7,3.2-20.4,13.1-28.3,6.9c-10.9-8.3,15.8-27.3,16-17.6c0,3.8-4.2,5.9-7.1,7.1c-3.6,1.4-0.6,3.2,1.8,2.4
		c8.1-2.8,11.3-14.5,5.1-16c-5.9-1.6-14.1,4.4-17.4,9.1c-5.3,7.7-5.5,17.2,5.1,19.6l1.6,0.2c13.9,1.4,25.5-16.4,37.4-8.1
		c5.5,4,4.4,5.5,0.6,9.1c-3.6,3.8-7.3,9.7-6.5,15c1.2,6.7,14.9,10.3,15-8.7c0-3.4-1.8-7.3,1.2-8.7c4-2.2,7.7-2.2,11.9-1
		c10.7,3,21,5.7,32.3,4.2c11.7-1.6,27.3-14.3,36-22.4l-1.4,10.1c-2.2,13.5-1.2,19.2-0.8,31.9c0.2,7.9,3.8,21.6,9.9,26.7
		c7.7,6.7,14.5,0.2,20.4-4.8c3.2-2,5.5-7.5,7.7-10.3c1.4-1.8,6.9-14.9,7.5-17c1.2-5.3,2.4-5.1,3.2-8.1c0.6-2.1,1.4-4.4,2.2-6.4
		c-0.1,9.3,2.4,18.4,7.9,26c6.7,7.3,12.3,9.5,22.2,7.5c7.9-1.6,13.7-2.6,18-9.9c6.1-10.5,5.1-22.2,6.7-25.5
		c1.2-2.8,10.8-2.5,16.7-2.9c-0.4,6.3-0.7,7.9,2.1,15.4c2.6,7.7,10.7,6.5,15.8,4.4c3.2-1.2,5.9-4.6,8.3-6.9c2.6-2.6,5.1-7.5,5-5
		c-1,11.5,0.8,22.8,3.8,33.9c4.2,14.3,16.4,11.7,22.2,2.2c3.3-5.5,7.3-19.1,10.7-31.4c2,7.3,7.5,11.2,19.4,5.9
		c5.5-2.6,12.7-19.2,14.7-25.1c1.6-4.8,8.3-19,10.9-23.4c0.8,1.6-2.8,21.4-2.8,26.1c-0.4,8.5-1.4,19.2-1,26.9
		c0.4,6.3-0.2,14.7,6.1,17.8c7.3,3.6,9.5-1,13.1-5.7c6.7-9.1,8.3-12.1,13.3-22.6c1.2-2.4,2.5-5.2,3.8-8.2
		c-1.3,9.9-2.6,24.5,8.9,26.2c10.5,1.4,24.4-20.2,29.5-28.1c9.5-15,8.5-17.2,8.1,3c-0.4,17.2,2,16-9.5,27.5
		c-14.9,14.9-24.9,23-33.1,43.8c-4,10.3-9.7,32.1,7.3,34.1c13.1,1.4,28.9-7.9,34.5-20.4c8.5-18.4,10.7-35,11.9-55
		c0-1,0.2-9.3,0.4-13.1c15.2-13.3,29.7-28.7,45.7-39c22-14.1,32.9,2,51.9,1.8c1.4,0,8.3-1,8.5-1c0.8,0.2,6.5,13.3,21.6,8.5
		c7.7-2.4,21.2-11.5,28.7-4.8c10.1,9.3-18,26.1-17.4,16.4c0.4-3.8,4.6-5.5,7.5-6.5c3.8-1,1-3.2-1.4-2.6c-8.3,2.4-12.5,13.5-6.5,15.6
		c5.9,2.2,14.5-3.2,18.2-7.7C671.9,256.4,673.1,247.1,662.4,243.9z M356.3,213.2c1.8-6.3,14.3-29.7,18.8-34.7
		c9.5-4.6,6.5,6.3,5.9,13.1c-0.6,9.5-6.3,24-11.1,32.1c-1.8,3-14.7,18.4-18.8,18.8C346.6,243.1,355.9,214.4,356.3,213.2z M92.9,279
		c-1.2-3.8,4.4-12.3,7.7-13.3c1,1.6,1,5.1,1,6.9C101.2,278,96.7,289.5,92.9,279z M272.9,287.7c-20.4,9.5-22-23.6-20.6-35.4
		c4.2-22.6,1.2-6.7,13.3,2.8c6.1,4.6,12.7,5.3,14.5,6.3C282.4,263.1,279.4,284.5,272.9,287.7z M279.4,255.8
		c-6.1-2.8-12.9-9.7-15.6-16c-1-4.4-3.6-14.7,4.2-13.9c11.1,1,12.1,10.7,13.1,20C281.2,248.3,283.4,257.6,279.4,255.8z M336.5,244.1
		c-0.6,6.7,0.6,11.5-2.8,17.4c-3.8,6.3-5,7.3-9.5,13.3c-2.2,3-3-3.6-3.2-5c-0.2-3-0.2-5.7-0.2-8.7c0.4-6.9,3.8-27.1,12.7-28.3
		C339.6,231.8,337.1,240,336.5,244.1z M405,242.7c-1.2,3.2-14.3,31.9-16.4,31.9c-3-9.1,1.2-26.5,5-35c1.8-4,5.3-7.9,10.1-5.9
		C408.7,235.6,406.8,237.6,405,242.7z M489.9,338.2c-3,7.3-15.8,29.7-26.1,21.8c-11.9-9.1,8.5-40.2,14.3-47.9
		c2.8-3.6,15.4-16.8,18.8-19.4l0.6,1.6C498.8,304.7,493.9,328.1,489.9,338.2z M618.4,238.6c-1-1.6-0.6-5.1-0.4-6.9
		c0.6-5.3,6.1-16.4,9.1-5.7C627.9,229.9,621.8,238,618.4,238.6z"/>
</g>
</svg>
