<?xml version="1.0" encoding="utf-8"?>
<!-- Generator: Adobe Illustrator 25.2.0, SVG Export Plug-In . SVG Version: 6.00 Build 0)  -->
<svg version="1.1" id="Layer_1" xmlns="http://www.w3.org/2000/svg" xmlns:xlink="http://www.w3.org/1999/xlink" x="0px" y="0px"
	 viewBox="0 0 2200 2200" style="enable-background:new 0 0 2200 2200;" xml:space="preserve">
<g>
	<path d="M1817.78,1457.97c-6.56-25.9-23.15-47.27-40.88-52.77c-9.93-3.1-18.45-1.77-32.55,4.97c-4.61,2.22-8.51,3.99-8.69,3.99
		c-0.18,0-0.35-1.51-0.35-3.37c0-5.14-2.48-14.19-5.5-20.4c-5.41-11-14.99-18.09-28.29-21.02c-8.69-1.86-22.97-1.68-31.75,0.44
		c-27.32,6.56-42.84,31.57-36.1,57.91c0.89,3.37,1.42,6.21,1.15,6.47c-0.18,0.27-3.81-0.27-7.98-1.06
		c-6.39-1.24-8.69-1.33-13.66-0.53c-12.5,2.13-22.7,9.76-27.76,20.93c-5.5,12.15-8.25,36.89-5.41,48.42
		c1.86,7.63,6.65,17.21,10.47,21.02c8.07,8.07,18.71,10.38,34.59,7.63l2.84-0.44l-4.79,7.18c-6.21,9.31-7.8,14.63-7.36,25.27
		c0.35,10.64,3.64,17.74,11.35,24.74c6.65,5.94,22.26,14.9,31.48,18c16.23,5.41,32.55,3.55,41.42-4.79
		c5.5-5.14,8.16-9.67,10.11-17.03c0.8-3.19,1.6-6.3,1.77-7.01c0.27-0.71,1.33,0.09,2.93,2.39c11.88,16.32,30.6,21.82,47.09,14.01
		c11.97-5.68,29.44-21.82,34.76-32.02c7.36-14.46,8.43-24.48,3.55-34.41c-3.1-6.21-8.96-12.24-15.96-16.32
		c-4.17-2.48-3.99-3.1,1.6-4.26c1.69-0.36,6.39-2.13,10.46-3.99c11.8-5.5,18.89-13.66,21.91-25.45
		C1820,1469.76,1819.91,1466.39,1817.78,1457.97z M1712.25,1540.53c-6.39,1.69-18.62,1.69-25.28,0
		c-16.05-4.26-29.27-17.12-34.23-33.52c-2.48-7.98-2.04-22.35,0.8-30.33c5.68-15.43,19.69-27.76,35.56-31.13
		c5.59-1.15,13.84-1.42,18.71-0.62c17.21,2.84,32.37,15.88,38.14,32.73C1754.99,1503.91,1739.21,1533.35,1712.25,1540.53z
		 M580.78,1432.6c-4.97-0.8-7.27-0.71-13.66,0.53c-4.17,0.8-7.8,1.33-7.98,1.06c-0.27-0.27,0.27-3.1,1.15-6.47
		c6.74-26.34-8.78-51.35-36.1-57.91c-8.78-2.13-23.06-2.31-31.75-0.44c-13.3,2.93-22.88,10.02-28.29,21.02
		c-3.02,6.21-5.5,15.25-5.5,20.4c0,1.86-0.18,3.37-0.35,3.37c-0.18,0-4.08-1.77-8.69-3.99c-14.1-6.74-22.61-8.07-32.55-4.97
		c-17.74,5.5-34.32,26.87-40.88,52.77c-2.13,8.43-2.22,11.8-0.44,18.54c3.02,11.8,10.11,19.95,21.91,25.45
		c4.08,1.86,8.78,3.64,10.46,3.99c5.59,1.15,5.76,1.77,1.6,4.26c-7.01,4.08-12.86,10.11-15.96,16.32
		c-4.88,9.93-3.81,19.95,3.55,34.41c5.32,10.2,22.79,26.34,34.76,32.02c16.5,7.8,35.21,2.31,47.09-14.01
		c1.6-2.31,2.66-3.1,2.93-2.39c0.18,0.71,0.98,3.81,1.77,7.01c1.95,7.36,4.61,11.88,10.11,17.03c8.87,8.34,25.19,10.2,41.42,4.79
		c9.22-3.1,24.83-12.06,31.48-18c7.72-7.01,11-14.1,11.35-24.74c0.44-10.64-1.15-15.96-7.36-25.27l-4.79-7.18l2.84,0.44
		c15.87,2.75,26.52,0.44,34.59-7.63c3.81-3.81,8.6-13.39,10.46-21.02c2.84-11.53,0.09-36.27-5.41-48.42
		C603.49,1442.36,593.29,1434.73,580.78,1432.6z M541.23,1507.01c-4.97,16.41-18.18,29.27-34.23,33.52
		c-6.65,1.69-18.89,1.69-25.28,0c-26.96-7.18-42.75-36.63-33.7-62.88c5.76-16.85,20.93-29.89,38.14-32.73
		c4.88-0.8,13.13-0.53,18.71,0.62c15.87,3.37,29.89,15.7,35.56,31.13C543.27,1484.66,543.71,1499.03,541.23,1507.01z"/>
	<path d="M850.43,1536.81c0.33,8.97,1,16.61,1,22.59c0,26.91-5.65,44.52-16.61,52.5c-4.32,2.99-18.28,4.32-42.2,4.32
		c-6.65,0-15.62,0-27.25,0.33c-9.63,0.33-18.94,0-27.91,0l-62.47-0.33c-11.3,0-16.95-5.65-16.95-16.28c0-4.32,1.66-7.97,4.98-11.3
		c5.65-5.65,8.64-8.97,9.3-10.3l6.31-9.97c2.99-4.98,4.98-17.61,5.65-37.88l2.66-85.73c0.33-7.31,1-13.62,0.33-19.27
		c-1-11.63-3.99-18.94-7.97-21.93c-1.99-1-4.65-2.66-8.31-4.98c-2.66-2.66-3.99-6.31-3.99-11.3c0-8.97,5.65-15.95,17.28-20.27
		c9.63-3.66,21.27-5.65,35.22-5.32c5.32,0,18.94,1.33,24.59,1.33c7.64,0,19.94-0.66,36.88-1.66c16.95-1,29.24-1.66,36.22-1.66
		c9.64,0,16.95,5.98,22.26,17.94c3.99,9.3,5.98,19.27,5.98,30.23c0,6.98-1.33,12.63-3.99,17.28c-3.66,5.65-8.31,8.64-14.62,8.64
		c-5.98,0-10.96-2.66-15.29-8.31c-6.31-8.31-10.96-13.29-14.29-15.62c-8.3-5.65-20.27-8.64-36.22-8.64h-7.31
		c-2.33,1-3.65,3.65-4.65,7.97c-0.33,1.66-0.66,2.99-0.66,4.65c0,7.31,3.66,13.29,10.97,17.94c6.31,3.99,13.96,5.98,22.93,5.98
		c3.65,0,9.3-7.31,12.96-7.31c3.32,0,4.98,2.33,4.98,7.31c0,7.64-1,15.29-2.99,22.26c-2.99,9.97-6.98,14.95-12.63,14.95
		c-3.65,0-6.98-2.66-10.3-8.31c-2.99-5.65-7.64-8.31-13.96-8.31c-6.98,0-10.63,5.98-10.63,17.61c0,27.58,15.95,41.53,48.18,41.53
		c2.66,0,9.97-2.33,12.96-1.33c1.66,0.33,2.99,0.33,3.99,0.33c5.65,0,9.97-2.66,13.62-7.97c3.66-5.32,6.65-7.97,8.97-7.97
		c6.64,0,12.29,11.3,12.29,18.94C849.76,1521.86,849.76,1527.51,850.43,1536.81z M1072.39,1365.69c-7.64-2.99-16.28-4.65-25.92-4.65
		c-32.9,0-49.51,8.64-49.51,26.25c0,6.31,2.33,10.63,7.31,13.29c4.98,2.66,7.64,6.64,7.64,11.63c0,10.63-2.66,23.26-7.97,38.21
		c-6.31,17.28-13.29,26.91-20.93,29.24c-5.65-2.66-11.63-11.96-17.94-27.58c-5.65-14.29-8.64-25.92-8.97-34.23
		c-1-14.95,8.31-24.59,8.64-27.24c0.33-1.66,0.66-3.32,0.66-5.65c0-7.31-3.32-12.63-10.3-16.28c-7.97-4.32-21.93-6.64-41.53-6.98
		c-13.95-0.33-25.58,1.66-35.22,5.32c-11.63,4.32-17.28,11.29-17.28,20.27c0,4.98,1.33,8.64,3.99,11.3c3.65,2.33,6.31,3.99,8.3,4.98
		c4.32,3.32,8.31,10.63,12.3,21.93l8.31,24.59c1.33,4.32,6.98,23.59,15.62,57.15c8.3,32.23,15.95,56.49,23.26,72.44
		c10.97,23.92,23.26,35.88,36.88,35.88c4.32,0,9.64-1,15.62-2.99c7.64-2.66,12.96-5.98,15.95-9.97
		c7.31-10.3,17.61-38.88,30.57-85.73c14.62-52.17,25.92-86.39,33.89-102.67c1-2.33,5.32-6.64,12.96-12.63
		c5.98-4.98,8.97-10.3,8.97-16.61C1087.34,1376.32,1082.36,1370.01,1072.39,1365.69z M1283.06,1536.81
		c-0.66-9.3-0.66-14.95-0.66-17.28c0-7.64-5.65-18.94-12.29-18.94c-2.33,0-5.32,2.66-8.97,7.97c-3.65,5.32-7.97,7.97-13.62,7.97
		c-1,0-2.33,0-3.99-0.33c-2.99-1-10.3,1.33-12.96,1.33c-32.23,0-48.18-13.96-48.18-41.53c0-11.63,3.65-17.61,10.63-17.61
		c6.31,0,10.97,2.66,13.96,8.31c3.32,5.65,6.64,8.31,10.3,8.31c5.65,0,9.64-4.98,12.63-14.95c1.99-6.98,2.99-14.62,2.99-22.26
		c0-4.98-1.66-7.31-4.99-7.31c-3.65,0-9.3,7.31-12.96,7.31c-8.97,0-16.61-1.99-22.93-5.98c-7.31-4.65-10.97-10.63-10.97-17.94
		c0-1.66,0.33-2.99,0.66-4.65c1-4.32,2.33-6.98,4.65-7.97h7.31c15.95,0,27.91,2.99,36.22,8.64c3.32,2.33,7.98,7.31,14.29,15.62
		c4.32,5.65,9.31,8.31,15.29,8.31c6.31,0,10.96-2.99,14.62-8.64c2.66-4.65,3.99-10.3,3.99-17.28c0-10.96-1.99-20.93-5.98-30.23
		c-5.32-11.96-12.63-17.94-22.26-17.94c-6.98,0-19.27,0.66-36.22,1.66c-16.95,1-29.24,1.66-36.88,1.66
		c-5.65,0-19.27-1.33-24.59-1.33c-13.96-0.33-25.58,1.66-35.22,5.32c-11.63,4.32-17.28,11.29-17.28,20.27
		c0,4.98,1.33,8.64,3.99,11.3c3.65,2.33,6.31,3.99,8.31,4.98c3.99,2.99,6.98,10.3,7.97,21.93c0.66,5.65,0,11.96-0.33,19.27
		l-2.66,85.73c-0.66,20.27-2.66,32.9-5.65,37.88l-6.31,9.97c-0.66,1.33-3.65,4.65-9.3,10.3c-3.32,3.32-4.98,6.98-4.98,11.3
		c0,10.63,5.65,16.28,16.95,16.28l62.47,0.33c8.97,0,18.28,0.33,27.91,0c11.63-0.33,20.6-0.33,27.25-0.33
		c23.92,0,37.88-1.33,42.2-4.32c10.97-7.97,16.61-25.58,16.61-52.5C1284.06,1553.42,1283.4,1545.78,1283.06,1536.81z
		 M1534.6,1603.59c0,2.33-1.99,4.32-5.65,6.65l-7.97,4.98c-3.99,0.33-10.63,1-19.6,2.66c-7.64,1.33-13.96,1.99-19.27,1.99
		c-22.93,0-38.88-8.97-47.51-27.24c-4.32-8.97-8.31-27.58-11.96-56.15c-3.32-23.92-8.97-39.54-16.95-46.52
		c-2.66-2.33-5.98-2.99-9.63-1.99c-6.31,1.66-8.97,5.32-7.98,10.97c4.65,31.56,8.97,50.84,14.29,57.15
		c5.32,6.65,13.62,13.62,13.62,20.6c0,18.28-4.65,29.24-13.62,33.56c-6.98,3.32-25.92,4.98-56.82,4.98c-25.25,0-42.2-2.33-50.5-6.98
		c-8.31-4.98-11.96-14.62-11.3-29.24c0.33-3.32,2.33-6.98,6.31-10.97c4.98-4.98,7.64-7.97,8.64-9.63
		c2.99-6.31,6.98-22.26,11.3-48.18c3.99-23.26,6.98-45.19,8.97-66.12c-0.66-22.59-3.65-36.22-8.97-40.54
		c-1.99-1-4.65-2.66-8.31-4.98c-2.66-2.66-3.99-6.31-3.99-11.3c0-8.97,5.65-15.95,17.28-20.27c9.3-3.66,20.93-5.98,35.22-5.32
		l13.96,0.66c19.6-1,32.23-1.33,37.21-1.33c18.28,0,34.56,3.65,48.51,10.97c17.28,8.97,25.92,21.6,25.92,38.54
		c0,20.93-11.3,37.88-33.89,50.17c2.33,6.98,6.98,11.96,14.29,15.28c10.97,4.98,16.28,7.31,16.61,7.31
		c8.97,7.64,15.95,15.28,20.27,23.59c3.99,7.31,7.31,17.28,9.97,29.57c3.66,18.27,9.31,33.89,16.95,46.85
		c0.33,1,3.32,3.99,8.64,9.63C1532.6,1597.28,1534.6,1600.6,1534.6,1603.59z M1408.34,1420.51c0-16.28-6.31-24.59-19.27-24.59
		c-5.65,0-11.63,4.98-10.63,10.63l2.66,34.23c0.33,5.65,2.33,8.64,5.98,8.64c6.64,0,11.96-3.32,15.95-9.64
		C1406.68,1434.14,1408.34,1427.49,1408.34,1420.51z"/>
	<path d="M576.88,1977.84c-8.84-6.69-14.74-13.39-17.68-19.53c-22.99-43.52-45.98-108.23-68.96-194.15
		c-5.9-21.76-10.61-36.27-14.74-43.52c-12.97-22.88-22.99-37.38-29.47-43.52c-14.73-13.39-35.95-21.2-63.66-23.99
		c-16.51-1.67-42.44,1.67-78.39,8.93c-41.85,8.93-63.07,19.53-63.07,31.8c0,2.23,2.36,5.58,7.66,10.04
		c6.48,5.58,10.61,11.16,13.56,16.18c5.3,9.49,7.66,20.64,7.66,34.59c0,35.71-8.25,77.55-24.17,125.53
		c-18.86,55.24-40.67,90.94-65.43,107.68c-21.22,13.95-31.24,32.36-31.24,55.23c0.59,25.67,27.11,38.5,81.34,38.5
		c35.96,0,61.3-1.67,74.86-5.58c28.29-7.25,42.44-23.99,42.44-49.65c0-6.69-3.54-13.95-11.2-21.76
		c-11.2-11.71-18.86-19.53-21.81-23.99c-7.66-12.27-11.2-26.78-11.2-43.52c0-22.88,7.07-38.5,21.81-46.86
		c11.2-1.68,16.51-2.79,16.51-2.79c15.32,0,29.47,2.23,42.44,7.25c17.1,6.14,25.94,15.62,25.94,27.34
		c0,34.59-8.84,60.25-26.52,76.99c-2.95,10.6-4.12,20.64-4.12,29.01c0,22.88,10.61,37.94,32.42,45.75
		c12.97,5.02,34.19,7.25,63.66,7.25c29.47,0,54.23-3.35,74.86-9.49c31.24-8.93,48.33-23.99,49.51-45.75
		c1.18-13.95-1.18-24.55-5.89-32.36C591.03,1989.56,585.72,1983.98,576.88,1977.84z M377.06,1819.95
		c-1.77-1.11-7.07-1.67-14.74-1.67c-4.72,0-18.86,1.67-23.58,1.67c-10.02,0-15.32-1.67-15.32-5.02c0-7.25,2.95-17.85,9.43-31.8
		c7.66-16.18,14.74-23.99,21.22-23.99c11.2,0,20.04,7.81,26.52,22.88c7.07,16.74,10.61,26.78,10.61,29.57
		C391.21,1816.6,386.49,1819.39,377.06,1819.95z M938.17,1678.24c7.66,15.62,11.2,32.36,11.2,50.77c0,11.72-2.36,21.2-7.66,29.01
		c-5.89,9.49-14.15,14.5-25.34,14.5c-9.43,0-17.68-5.02-24.17-15.06c-10.02-15.06-17.1-24.55-21.22-27.89
		c-11.79-10.04-28.88-15.07-50.69-14.51c-27.11,0.56-40.67,7.81-40.67,21.2c0,13.95,5.89,24.55,17.09,31.8
		c10.02,6.14,22.99,9.49,38.31,9.49c6.49,0,18.27-10.6,25.35-10.6c6.48,0,9.43,22.32,9.43,66.39c0,11.16-7.66,21.76-19.45,21.76
		c-4.13,0-11.2-5.02-20.63-15.07c-9.43-10.04-20.04-15.06-31.24-15.06c-8.84,0-14.74,2.79-17.1,8.37
		c-1.18,2.79-1.77,10.04-2.36,21.2c-1.77,46.31,2.95,88.71,12.38,127.76c2.36,8.37,12.97,21.76,32.42,39.06
		c17.68,16.18,25.94,29.57,24.76,41.28c-1.18,12.28-13.56,18.41-37.72,18.41c-6.48,0-15.32-0.56-27.7-1.67
		c-12.38-0.56-20.63-1.11-25.94-1.11l-110.81,1.11c-20.04,0-30.06-9.49-30.06-27.89c0-7.25,4.13-16.74,14.15-26.78l22.4-23.43
		c11.79-12.27,15.91-27.34,15.91-44.07l-2.36-161.24v-0.56c0-37.38-5.89-60.25-15.91-68.06c-3.54-1.67-8.25-4.46-14.74-8.37
		c-4.71-4.46-7.07-10.6-7.07-18.97c0-15.06,10.02-26.78,30.65-34.03c17.1-6.14,37.72-9.49,62.48-8.93c1.77,0,4.72,0,8.84,0.56h7.89
		h0.36c2.33,0,15.87,0,40.67,0c13.56,0,34.19-1.67,60.71-4.46c26.52-3.35,46.57-5.02,58.94-5.02
		C915.77,1648.11,928.74,1658.15,938.17,1678.24z M1164.49,1730.68c0,0-1.77,0.56-5.89,2.23l8.25,70.85l2.95,20.64
		c4.72,32.92,9.43,64.72,15.91,95.96c7.07,35.15,12.38,56.91,18.27,63.05c9.43,11.16,24.76,22.88,24.76,34.59
		c0,30.69-8.25,49.1-24.76,56.35c-12.38,5.58-45.98,8.37-100.79,8.37c-43.62,0-73.09-3.91-87.83-12.28
		c-14.73-8.37-21.81-24.55-21.81-48.54c0-5.58,3.54-11.72,11.2-18.41c8.84-8.37,14.15-13.39,15.32-16.18
		c5.89-10.6,12.97-37.94,20.63-80.9c7.66-41.28,12.97-78.11,15.91-111.02c0.59-8.37,1.77-28.45,2.36-60.25
		c-5.9-2.23-8.84-3.35-8.84-3.35c-5.3,0-9.43,4.46-13.56,13.39c-5.3,12.83-10.61,21.2-14.73,25.11
		c-8.84,8.93-22.4,13.39-39.49,13.39c-14.73,0-24.17-4.46-28.29-13.39c-2.95-5.58-4.13-16.18-4.13-32.36
		c0-16.74,5.3-34.03,15.91-52.44c11.79-21.2,25.34-31.8,40.67-31.8c5.3,0,13.56,1.67,24.76,4.46c11.2,2.79,19.45,3.9,24.76,3.9
		c66.01,0,110.22-1.12,132.62-2.79c4.12-0.56,12.38-6.14,17.68-6.14c16.5,0,30.65,10.04,42.44,30.68
		c10.02,17.29,15.33,35.15,15.33,52.45c0,31.8-12.38,47.42-37.72,47.42c-14.15,0-25.94-8.93-34.78-26.22
		C1182.77,1739.61,1173.33,1730.68,1164.49,1730.68z M1601.24,1989c0,45.19-10.02,74.76-29.47,88.15
		c-7.66,5.02-32.42,7.25-74.86,7.25c-11.79,0-27.7,0-48.33,0.56c-17.1,0.56-33.6,0-49.51,0l-110.81-0.56
		c-20.04,0-30.06-9.49-30.06-27.34c0-7.25,2.95-13.39,8.84-18.97c10.02-9.49,15.33-15.07,16.5-17.3l11.2-16.74
		c5.3-8.37,8.84-29.57,10.02-63.6l4.72-143.94c0.59-12.28,1.77-22.88,0.59-32.36c-1.77-19.53-7.07-31.8-14.15-36.82
		c-3.54-1.67-8.25-4.46-14.74-8.37c-4.71-4.46-7.07-10.6-7.07-18.97c0-15.06,10.02-26.78,30.65-34.03
		c17.09-6.14,37.72-9.49,62.48-8.93c9.43,0,33.6,2.23,43.62,2.23c13.56,0,35.37-1.11,65.43-2.79c30.06-1.67,51.87-2.79,64.25-2.79
		c17.09,0,30.06,10.04,39.49,30.13c7.07,15.62,10.61,32.36,10.61,50.77c0,11.71-2.36,21.2-7.07,29.01
		c-6.49,9.49-14.74,14.51-25.94,14.51c-10.61,0-19.45-4.46-27.11-13.95c-11.2-13.95-19.45-22.32-25.34-26.22
		c-14.74-9.49-35.96-14.51-64.25-14.51h-12.97c-4.13,1.68-6.49,6.14-8.25,13.39c-0.59,2.79-1.18,5.02-1.18,7.81
		c0,12.28,6.49,22.32,19.45,30.13c11.2,6.69,24.76,10.04,40.67,10.04c6.48,0,16.5-12.28,22.99-12.28c5.89,0,8.84,3.91,8.84,12.28
		c0,12.83-1.77,25.67-5.3,37.38c-5.3,16.74-12.38,25.11-22.4,25.11c-6.48,0-12.38-4.46-18.27-13.95
		c-5.3-9.48-13.56-13.95-24.76-13.95c-12.38,0-18.86,10.04-18.86,29.57c0,46.31,28.29,69.74,85.47,69.74
		c4.72,0,17.68-3.9,22.99-2.23c2.95,0.56,5.3,0.56,7.07,0.56c10.02,0,17.68-4.46,24.17-13.39c6.49-8.93,11.79-13.39,15.91-13.39
		c11.79,0,21.81,18.97,21.81,31.8c0,3.9,0,13.39,1.18,29.01C1600.06,1966.12,1601.24,1978.96,1601.24,1989z M2035.04,2045.35
		c-9.43-9.49-14.73-14.5-15.33-16.18c-13.56-21.76-23.58-47.98-30.06-78.67c-4.72-20.64-10.61-37.38-17.68-49.66
		c-7.66-13.95-20.04-26.78-35.96-39.61c-0.59,0-10.02-3.91-29.47-12.28c-12.97-5.58-21.22-13.95-25.34-25.66
		c40.08-20.64,60.12-49.1,60.12-84.24c0-28.46-15.32-49.66-45.98-64.72c-24.76-12.27-53.64-18.41-86.06-18.41
		c-8.84,0-31.24,0.56-66.01,2.23l-24.76-1.12c-25.35-1.11-45.98,2.79-62.48,8.93c-20.63,7.25-30.65,18.97-30.65,34.03
		c0,8.37,2.36,14.5,7.07,18.97c6.48,3.91,11.2,6.7,14.73,8.37c9.43,7.25,14.74,30.13,15.91,68.06
		c-3.54,35.15-8.84,71.97-15.91,111.02c-7.66,43.52-14.73,70.3-20.04,80.9c-1.77,2.79-6.49,7.81-15.33,16.18
		c-7.07,6.7-10.61,12.83-11.2,18.41c-1.18,24.55,5.3,40.73,20.04,49.1c14.74,7.81,44.8,11.72,89.59,11.72
		c54.82,0,88.41-2.79,100.79-8.37c15.91-7.25,24.17-25.66,24.17-56.35c0-11.71-14.74-23.43-24.17-34.59
		c-9.43-10.6-17.09-42.96-25.34-95.96c-1.77-9.49,2.95-15.62,14.15-18.41c6.48-1.67,12.38-0.56,17.09,3.35
		c14.15,11.71,24.17,37.94,30.06,78.11c6.49,47.98,13.56,79.22,21.22,94.29c15.33,30.69,43.62,45.75,84.29,45.75
		c9.43,0,20.63-1.12,34.19-3.35c15.91-2.79,27.7-3.91,34.78-4.46l14.15-8.37c6.49-3.9,10.02-7.25,10.02-11.16
		C2045.65,2058.18,2042.11,2052.6,2035.04,2045.35z M1812.23,1788.15c-7.07,10.6-16.5,16.18-28.29,16.18
		c-6.49,0-10.02-5.02-10.61-14.5l-4.72-57.47c-1.77-9.48,8.84-17.85,18.86-17.85c22.99,0,34.19,13.95,34.19,41.29
		C1821.66,1767.51,1818.72,1778.66,1812.23,1788.15z"/>
	<path d="M1595.54,1283.8l-2.2-6.65l-0.14-11.01c-0.14-11.74-0.41-14.03-2.43-19.58c-1.56-4.31-3.85-7.84-10.36-16.19
		c-2.75-3.53-8.53-11.05-12.8-16.74c-9.77-13.03-13.26-16.56-19.08-19.45c-4.86-2.39-8.99-3.62-19.72-6.01
		c-4.13-0.92-12.7-3.07-19.03-4.86c-6.38-1.74-15.82-4.22-21.01-5.46c-10.6-2.61-13.62-3.62-19.49-6.65
		c-9.08-4.68-15.78-10.23-25.46-21.1c-14.17-15.96-15.64-17.98-21.24-29.45c-4.68-9.59-7.25-12.98-14.77-19.58
		c-2.93-2.57-7.16-6.42-9.45-8.58c-4.68-4.45-6.83-6.01-11.65-8.39c-5.92-2.98-8.9-3.53-21.88-3.85
		c-11.47-0.32-11.51-0.32-13.35-1.56c-2.2-1.47-4.82-4.77-8.81-11.15c-1.61-2.48-3.81-5.73-4.95-7.15
		c-4.17-5.37-10.82-9.4-21.24-13.03c-7.38-2.57-8.07-2.89-9.91-4.91c-1.83-1.93-2.61-3.44-4.59-9.22
		c-0.92-2.57-2.98-7.75-4.63-11.56c-1.7-3.76-4.31-9.77-5.87-13.35c-3.49-7.98-7.93-15.5-11.1-18.76c-1.33-1.38-4.59-3.94-7.2-5.73
		c-5.55-3.76-7.43-5.73-7.89-8.12c-0.18-0.92-0.05-5,0.32-9.04c0.41-4.82,0.64-13.76,0.64-25.73c0-18.12-0.04-18.48-1.51-29.81
		c-3.07-23.16-3.72-24.95-12.89-34.9c-15.96-17.34-26.05-30.64-33.76-44.45c-13.9-24.86-22.93-45.22-36.69-82.56
		c-6.7-18.25-10.27-27.29-17.2-43.35c-2.98-6.92-8.67-20.27-12.66-29.58c-3.94-9.36-9.77-22.34-12.93-28.9
		c-9.31-19.45-10.87-23.48-16.1-40.91c-5.46-18.07-8.16-23.71-16.51-34.22c-3.95-4.95-7.39-8.21-12.57-11.88
		c-5.55-3.94-6.7-5.6-10.18-14.82c-4.45-11.74-11.6-25.69-17.75-34.72c-4.68-6.83-10.69-11.61-16.88-13.39
		c-3.07-0.92-9.13-1.29-12.02-0.74c-5.92,1.06-10.18,3.49-16.33,9.22l-1.97,1.83l-0.78-1.47c-1.33-2.57-2.66-3.44-7.29-4.82
		c-4.95-1.47-7.93-1.6-10.14-0.46c-1.93,1.01-7.57,6.56-8.49,8.35c-1.24,2.43-2.29,8.67-1.7,9.82c0.6,1.15,0.69,1.01-2.75,3.44
		c-3.76,2.66-10.87,8.9-13.76,11.97c-5.05,5.46-7.11,11.28-7.06,19.91c0.05,6.01,0.92,10.14,3.67,17.02
		c1.56,3.95,1.7,4.63,1.61,8.44c-0.09,5.18-1.15,11.88-2.34,14.91c-1.19,3.03-1.15,4.27,0.14,5.78c0.83,0.96,1.61,1.28,3.49,1.47
		c1.97,0.18,2.34,0.32,2.11,0.96c-1.61,3.99,0.32,7.38,4.17,7.38c1.28,0,1.28-0.09,0.41,2.06c-1.24,2.94,0,4.91,4.4,6.88
		c2.57,1.15,2.71,1.29,2.71,2.8c0,3.3,2.29,5.82,6.56,7.29c2.57,0.87,2.8,0.87,7.15,0.14c2.66-0.46,5.64-1.33,7.11-2.06l2.57-1.24
		l0.83,1.1c0.41,0.64,2.57,4.77,4.72,9.17c2.2,4.4,4.45,8.53,5,9.08c0.55,0.6,0.83,1.24,0.64,1.47c-0.23,0.23-2.25,1.1-4.49,2.02
		c-2.29,0.92-5.46,2.43-7.11,3.44c-4.68,2.75-9.04,4.5-14.54,5.78c-2.75,0.64-6.24,1.56-7.75,2.06c-1.51,0.51-3.16,0.87-3.67,0.83
		c-0.92-0.04-9.95,4.04-20.64,9.4c-7.43,3.72-12.89,6.05-21.1,9.04c-9.91,3.58-14.45,4.68-24.95,5.96
		c-3.76,0.46-3.95,0.41-5.96-0.73c-1.15-0.69-3.44-2.2-5.09-3.39c-3.81-2.75-12.66-8.07-20.64-12.38
		c-9.86-5.32-11.83-6.83-21.14-16.56c-4.73-4.91-9.08-9.54-9.77-10.37c-1.51-1.83-6.24-5.55-9.04-7.2
		c-5.46-3.12-16.88-6.15-26.92-7.11c-2.34-0.23-4.36-0.5-4.5-0.6c-0.09-0.14-0.09-0.6,0.09-1.01c0.28-0.69,0.73-0.73,3.16-0.51
		c4.73,0.51,5.18,0.19,6.7-5.32c1.15-4.08,3.95-10.09,6.33-13.67c1.83-2.71,1.97-2.8,3.85-2.8c4.77,0,6.93-1.65,9.54-7.24
		c1.74-3.76,6.56-11.24,8.12-12.57c0.51-0.46,2.06-0.78,4.45-0.92c5.23-0.32,7.57-1.61,11.83-6.61c1.79-2.11,3.67-4.54,4.13-5.37
		c1.19-2.16,0.96-4.95-0.78-10.19c-2.61-7.7-5.41-12.7-10.55-18.81c-1.65-1.93-4.45-5.82-6.24-8.71
		c-5.18-8.39-9.04-11.28-18.67-14.03c-6.01-1.7-6.74-2.15-12.94-7.61c-2.66-2.38-5.73-4.82-6.79-5.46
		c-4.08-2.43-10.6-3.17-15.96-1.79c-6.42,1.65-24.4,12.11-28.71,16.74c-1.19,1.24-3.58,4.68-5.27,7.66
		c-1.74,2.98-4.4,7.06-5.96,9.08c-1.51,2.02-3.62,5.09-4.68,6.79c-2.43,4.08-6.24,13.12-6.97,16.6c-0.32,1.51-1.15,3.67-1.83,4.82
		c-0.73,1.15-1.42,2.57-1.61,3.21c-0.55,2.11-1.28,3.21-2.16,3.21c-0.46,0-2.98-0.83-5.64-1.83c-2.66-1.01-5.46-1.83-6.24-1.83
		c-1.42,0-3.17,0.69-3.67,1.51c-0.18,0.28-1.15,0.23-2.57-0.14c-1.29-0.32-2.84-0.46-3.49-0.27c-0.69,0.14-3.72,2.7-6.74,5.69
		c-3.07,2.94-6.01,5.51-6.56,5.73c-0.55,0.18-4.08,1.01-7.89,1.88c-8.16,1.88-19.22,2.84-27.11,2.38
		c-7.94-0.41-11.38,0.6-17.84,5.46c-6.6,4.95-7.61,6.06-19.81,22.16c-8.07,10.69-12.02,20.64-14.54,36.88
		c-1.15,7.2-1.38,9.4-3.26,34.31c-0.59,7.94-1.65,21.56-2.34,30.27c-1.47,18.16-1.47,18.39,2.2,30.73l1.93,6.65v10.78
		c0,12.2-0.32,14.86-2.98,23.16c-2.38,7.52-4.54,15.32-7.06,25.69c-3.85,15.73-7.11,27.84-10.18,37.84
		c-1.65,5.41-3.48,12.02-4.08,14.63c-1.33,5.96-1.1,6.56,3.62,9.26c1.79,1.06,5,3.03,7.02,4.41c2.07,1.33,5.73,3.35,8.17,4.49
		c2.43,1.15,4.4,2.16,4.4,2.25c0,0.09,1.1,8.62,2.48,18.9c1.38,10.32,2.75,21.65,2.98,25.18c1.05,13.49,0.37,53.57-1.1,64.68
		c-0.36,3.03-1.83,11.05-3.21,17.89c-3.21,16.05-3.3,16.7-4.13,30.73c-0.36,6.56-1.19,17.39-1.83,24.08
		c-2.16,23.39-2.52,27.38-3.44,39.45c-0.96,12.2-1.7,18.21-3.9,31.88c-0.64,4.04-1.42,10.96-1.7,15.37
		c-0.5,7.34-0.41,9.59,0.69,26.14c0.69,9.96,1.47,21.84,1.7,26.38c1.01,17.02,2.39,26.65,5.32,36.37c0.96,3.17,1.1,4.36,0.87,6.88
		c-0.32,3.03,0.28,9.86,1.24,14.77c0.96,5,3.21,7.66,7.57,8.99c2.75,0.83,15.46,1.74,25.13,1.74c8.49,0.05,9.54-0.28,13.99-4.22
		c2.2-1.93,3.53-2.62,10.09-5c4.17-1.52,8.81-3.12,10.32-3.58c6.97-1.93,15.09-6.24,21.88-11.6c2.89-2.25,7.93-8.3,9.17-11.01
		c1.51-3.21,0.82-7.71-1.51-10.41c-1.47-1.65-6.15-4.54-9.59-5.92c-4.86-1.93-14.91-2.75-20.64-1.65c-1.33,0.28-2.48,0.41-2.57,0.32
		c-0.05-0.05-0.55-2.2-1.06-4.77c-0.55-2.57-1.74-7.2-2.66-10.32c-4.82-16.33-5.78-21.05-6.47-30.87c-0.55-7.84,0-11.97,2.57-19.95
		c1.28-3.9,2.98-10.23,3.85-13.99c1.61-7.29,1.74-9.68,1.38-25.69c-0.14-4.13,0.14-7.34,1.01-12.84c0.64-4.03,1.47-9.72,1.88-12.61
		c1.51-10.5,5.27-33.48,7.07-43.12c1.01-5.41,2.8-15.32,3.9-22.02c1.15-6.69,2.84-15.78,3.71-20.18c1.56-7.61,3.62-19.68,4.82-27.84
		c0.51-3.44,1.42-5.78,1.97-5.18c0.14,0.14,0.78,3.03,1.42,6.42c1.83,9.73,4.63,21.42,7.34,30.96c1.38,4.77,3.44,12.43,4.63,16.97
		c3.99,15.5,5.69,19.59,11.97,28.35c4.45,6.15,5.78,8.62,6.79,12.48c1.19,4.68,2.48,15.28,2.71,22.25c0.23,5.96,0.6,8.3,3.53,22.48
		c1.79,8.72,4.5,21.7,5.96,28.9c5.69,27.75,7.66,36.37,10.87,47.7c3.48,12.38,3.39,11.79,3.8,32.11c0.37,17.43,1.1,28.67,2.34,34.68
		c0.73,3.67,2.8,5.73,8.39,8.39c8.9,4.27,13.9,5.32,18.99,3.99c3.17-0.78,26.37-12.06,30.64-14.86c1.51-1.01,4.59-3.49,6.74-5.55
		c2.2-2.02,4.08-3.72,4.22-3.72c0.14,0,1.28,0.55,2.52,1.24c2.02,1.15,2.29,1.42,2.06,2.43c-0.14,0.64-0.36,4.36-0.5,8.26
		c-0.28,6.7-0.28,7.25,0.73,9.54c1.93,4.5,5.32,6.33,13.99,7.61c14.86,2.2,25.14,5.32,38.3,11.51c9.77,4.63,15.78,6.7,22.25,7.8
		c5.73,1.01,15.27,1.01,21.79,0.05c6.15-0.92,11.92-0.92,15.32-0.05c3.94,1.06,8.62,3.67,11.33,6.38
		c2.61,2.61,8.39,10.18,12.8,16.79c7.8,11.65,14.04,14.13,25.87,10.28c6.7-2.16,9.31-2.02,18.39,0.92
		c10.92,3.62,20.6,5.14,29.72,4.72c9.31-0.41,16.1-2.66,31.19-10.32c13.71-6.97,22.38-10,31.97-11.1
		c8.21-0.96,12.98-0.27,25.69,3.85c12.2,3.99,16.01,4.63,26.6,4.59h8.94l13.76-2.84c18.07-3.67,20-3.95,27.29-3.9
		c9.63,0.05,15.6,1.51,29.49,7.43c10.92,4.63,19.04,7.06,30.82,9.31c4.73,0.87,7.02,1.05,16.28,1.05c12.34,0,13.07-0.09,27.29-4.22
		c22.93-6.7,25.73-7.2,39.68-7.2c9.04-0.05,12.02,0.14,18.35,1.06c6.79,1.01,9.31,1.1,25,1.19c19.72,0.09,17.89-0.18,29.54,4.41
		c6.19,2.43,11.51,3.99,18.16,5.32c3.44,0.69,6.38,0.82,17.89,0.78c13.58,0,13.95-0.05,27.52-1.93c22.8-3.21,23.21-3.17,34.13,1.38
		c14.95,6.24,20.91,6.46,37.2,1.47c13.94-4.31,23.39-7.61,25.96-9.17c5.27-3.07,9.17-8.67,10.96-15.55
		C1600.27,1300.82,1599.58,1296,1595.54,1283.8z M798.22,682.01c1.19,1.47,2.75,3.08,3.49,3.63c2.38,1.74,2.52,1.97,2.2,2.98
		c-0.14,0.5-0.46,3.58-0.64,6.74l-0.41,5.73l-2.34,4.13c-1.28,2.29-2.34,4.41-2.34,4.72c0,0.32-0.18,0.41-0.46,0.27
		c-0.27-0.18-0.46-3.03-0.46-7.06c0-3.76-0.23-7.94-0.5-9.26c-0.28-1.38-0.55-5.18-0.6-8.49l-0.14-6.01L798.22,682.01z
		 M969.31,770.45c-0.96,7.62-1.1,7.84-6.01,9.91c-5.41,2.29-13.94,8.4-19.36,13.85c-2.66,2.75-6.74,6.83-9.08,9.08
		c-8.48,8.3-11.83,14.22-16.01,28.07c-1.79,5.87-5.46,13.35-9.45,19.22c-6.05,8.85-11.01,21.1-17.2,42.2
		c-3.62,12.34-6.38,20.69-11.1,33.48c-1.79,4.77-5.14,14.4-7.48,21.33c-2.34,6.93-5.87,17.16-7.8,22.7
		c-5.73,16.56-12.02,37.89-18.35,62.61c-2.16,8.44-5.37,20.23-7.11,26.15c-3.49,12.02-4.77,16.83-8.26,31.1
		c-1.28,5.37-3.99,14.82-6.01,21.01c-3.44,10.78-6.61,22.52-7.8,29.17c-0.32,1.74-0.64,3.07-0.69,2.98
		c-0.05-0.05-0.87-4.13-1.79-9.04c-0.92-4.91-3.07-15.37-4.82-23.16c-7.89-35.59-9.63-48.89-11.01-83.25
		c-1.19-30.04-3.12-49.95-7.34-76.14c-1.01-6.19-1.93-11.97-2.06-12.84c-0.23-1.47-2.06-21.6-2.06-22.48c0-0.23,0.87-1.28,1.88-2.34
		l1.93-1.97l-0.27-3.26c-0.46-5.32-3.85-18.21-9.77-36.69c-4.59-14.4-4.5-13.67-4.54-36.23c-0.05-17.75-0.14-20.5-1.1-27.66
		c-0.55-4.41-0.96-8.07-0.83-8.17c0.09-0.09,1.51,0.41,3.12,1.19c1.61,0.73,4.36,1.7,6.1,2.16c2.7,0.64,3.62,0.69,6.42,0.23
		c4.4-0.74,9.08-3.12,12.75-6.52c2.93-2.66,7.8-9.31,10.78-14.68c0.78-1.38,3.16-5.64,5.32-9.4c6.24-11.05,8.94-17.47,12.93-30.55
		c1.19-3.9,2.8-8.53,3.58-10.27c1.15-2.66,1.47-4.08,1.7-8.03c0.32-5.23,0.78-6.42,3.4-9.59c2.25-2.66,2.11-3.72-0.64-6.65
		c-2.06-2.2-2.29-2.62-2.29-4.54c0-1.15-0.37-3.12-0.87-4.31c-0.46-1.19-1.05-3.58-1.38-5.23c-0.28-1.65-0.92-4.22-1.42-5.69
		c-1.24-3.58-1.15-5.92,0.32-9.45c1.1-2.57,1.24-3.58,1.24-7.98c0.05-4.59-0.09-5.37-1.38-8.71c-0.78-2.02-1.61-4.36-1.74-5.18
		c-0.32-1.24-0.23-1.47,0.55-1.47c0.46,0,1.15,0.37,1.56,0.78c0.37,0.46,0.87,1.33,1.15,1.97c0.73,1.74,7.34,10.28,12.89,16.65
		c1.93,2.25,11.79,12.11,21.88,21.92c12.48,12.11,19.22,19.04,21.1,21.6c2.98,4.08,4.82,5.6,7.71,6.38c2.2,0.6,3.39,0.46,12.48-1.15
		c3.81-0.69,10.09-1.42,13.99-1.65c10.32-0.55,17.38-2.2,28.21-6.56l5.96-2.43L960,715.5c-2.39,5-3.76,16.01-2.71,21.65
		c0.78,3.9,3.21,8.67,7.06,13.81c5.23,6.88,5.83,7.98,5.83,10.6C970.18,762.83,969.77,766.87,969.31,770.45z M1113.7,843.47
		c-2.39-2.15-5.96-5.46-7.98-7.38c-3.71-3.53-14.08-11.47-19.22-14.68c-5.82-3.67-15.69-6.88-23.9-7.8
		c-6.24-0.69-7.34-1.19-8.72-4.18c-0.92-1.97-1.15-3.16-1.15-6.1c0-2.02,0.23-4.49,0.46-5.5c0.23-1.01,0.73-4.45,1.1-7.61
		c0.73-6.61,1.65-9.04,5.92-16.47c2.38-4.13,4.49-8.39,7.2-14.45c0.55-1.19,0.64-1.24,0.78-0.46c0.14,0.51,0.6,2.2,1.1,3.76
		c1.19,3.67,3.16,5.5,6.38,5.92c1.93,0.28,2.57,0.6,3.53,1.88c2.15,2.84,4.95,3.58,8.26,2.2c0.87-0.37,1.93-0.69,2.29-0.69
		c1.01,0,1.83,2.52,3.3,9.96c1.7,8.39,3.76,16.33,5.87,22.61c2.66,7.8,11.37,28.12,15.37,35.78l3.71,7.07L1113.7,843.47z"/>
	<path d="M825.21,387.08c-3.16-1.74-8.38-3.88-16.05-5.32c-7.85-1.81-13.81-4.53-17.7-7.78c-28.92-22.4-64.75-59.17-107.48-110.31
		c-10.87-12.93-18.62-21.3-23.63-24.95c-15.77-11.5-26.92-18.24-33.08-20.4c-13.81-4.53-29.97-3.28-48.65,3.37
		c-11.13,3.95-26.68,14.22-47.38,30.22c-23.93,18.95-34.09,32.68-30.1,41c0.73,1.51,3.33,3.05,8.19,4.44
		c5.98,1.78,10.44,4.29,13.97,6.79c6.49,4.79,11.64,11.63,16.18,21.08c11.63,24.2,19.97,55.1,25.39,92.52
		c5.89,43.24,3.54,74.17-6.89,93.14c-7.91,13.95-9.24,27.58-4.51,41.12c-8.07-6.08-22.43-9.24-43.21-9.85
		c-49.49-25.62-87.42-51.65-114.07-77.8c-13.48-13.22-22.79-25.29-27.95-36.81c-3.03-6.5-5.18-14.48-6.16-23.67
		c-0.66-7.11-2.49-11.84-5.18-14.48c-14.08-13.8-37.12-4.09-69.14,28.56c-10.57,10.78-18.18,21.53-23.42,32.26
		c-6.97,14.9-5.97,26.46,2.71,34.98c5.69,5.58,12.83,7.29,21.11,4.84c8.87-2.46,17.51,0.72,26.79,9.83
		c6.59,6.46,7.84,13.57,3.76,20.73c-1.46,2.68-6.44,8.37-15.55,17.65c-9.4,9.58-16.17,15.29-19.71,17.1
		c-7.68,3.63-15.71,1.64-23.49-6c-5.69-5.58-8.74-13.86-8.54-24.24c0.2-10.38-1.95-17.78-6.14-21.89
		c-14.08-13.8-37.12-4.09-69.14,28.56c-10.87,11.08-18.48,21.83-23.42,32.26c-6.97,14.9-6.27,26.76,2.42,35.28
		c5.39,5.29,10.75,7.01,16.07,5.78c8.58-2.16,13.61-3.1,15.39-3.12c7.72,1.11,16.68,6.96,26.87,17.54l11.09,11.46
		c-0.59,0.6,11.72,16.2,36.94,46.81c27.32,33.26,43.28,57.72,47.87,72.8c0.91,2.07,0.96,7.41,0.76,16.6
		c0.07,7.12,1.6,12.15,4.59,15.08c14.97,14.69,30.43,18.1,46.38,10.82c8.56-3.94,22.39-15.64,40.9-34.51
		c2.94-2.99,7.05-7.19,12.64-12.29c5.88-5.4,9.7-9.29,12.05-11.68c12.63-12.88,19.64-24.22,21.33-33.73
		c2.25-12.48-3.81-26.07-18.19-40.17c-3.3-3.23-9.54-5.25-18.44-5.16c-10.38-0.2-17.22-1.61-20.8-3.36
		c-4.47-2.63-15.84-12.6-34.11-30.52c-12.58-12.34-19.78-20.57-21.3-24.41c-4.23-8.26-1.06-17.49,8.63-27.37
		c9.4-9.58,15.35-7.86,24.93,1.54c6.89,6.76,18.25,16.14,33.2,27.86c14.94,11.72,26.01,20.81,32.9,27.57
		c2.4,2.35,3.64,8.27,3.44,18.06c-0.5,9.5,1.64,16.3,5.83,20.41c11.98,11.75,25.64,12.8,41.26,2.86
		c4.72-3.01,15.88-13.8,34.39-32.67c30.49-31.09,44.35-54.39,41.88-70.12c10.83,9.4,30.26,7.38,58.99-6.43
		c23.06-11.09,38.77-20.03,46.2-26.86c15.79-13.64,19.41-29.34,11.05-46.73c-2.18-4.54-6.81-8.36-14.27-11.29
		c-11-4.49-18.46-7.42-21.8-9.53c-8.91-5.95-15.9-14.69-21.36-26.04c-7.45-15.5-8-28.27-1.28-38.48c6.64-4.59,9.68-6.98,9.68-6.98
		c9.83-4.73,19.63-7.57,29.59-8.17c12.96-1.11,21.72,2.59,25.54,10.53c11.27,23.44,13.96,43.56,8.07,60.35
		c1.56,8.09,4.08,15.26,6.8,20.93c7.45,15.5,19.16,22.44,35.7,21.01c9.95-0.59,24.29-5.63,43.2-14.71
		c18.9-9.09,33.69-18.99,44.93-29.51c17.13-15.68,23.19-31.16,16.85-46.27C835.74,397.37,830.78,390.92,825.21,387.08z
		 M629.56,336.37c-1.5-0.21-5.08,1.05-10,3.41c-3.03,1.45-11.55,6.95-14.58,8.4c-6.43,3.09-10.37,3.59-11.47,1.32
		c-2.36-4.92-3.92-13.01-4.31-24.46c-0.36-13.33,1.64-20.8,5.8-22.8c7.19-3.45,15.4-0.88,24.46,7.32
		c9.99,9.16,15.53,14.88,16.44,16.77C637.54,329.74,635.43,333.09,629.56,336.37z M947.69,114.11c-8.78,0.86-17.08,2.08-25.26,4.12
		c-11.91,2.59-18.85,4.46-20.45,5.12c-3.97,0.58-7.14,1.06-9.18,1.73c0-0.11-2.13-0.07-6.18,0.52
		c-17.56,1.72-31.66,6.76-43.02,13.09c-13.73,7.52-19.51,17.27-17.87,28.48c0.91,6.22,3.24,10.55,7.05,13.38
		c4.99,2.23,8.62,3.82,11.29,4.7c7.91,4.78,12.87,15.5,15.3,32.1l4.01,27.39c2.69,73.37,0.84,118.58-4.67,135.92
		c-0.94,2.26-4.13,6.54-9.44,13.68c-4.25,5.71-6.07,10.64-5.46,14.79c4.32,29.47,15.8,38.38,54.18,37
		c17.26-0.83,32.44-1.36,45.73-3.31c13.28-1.95,23.89-4.77,31.47-8c31.12-7.53,38.44-18.35,33.39-52.8
		c-1.28-8.71-12.93-15.91-20.79-23.24c-6.78-5.79-16.36-30.67-29.74-72.8c4.73-5.36,17.87-11.1,39.57-16.39
		c21.63-5.71,36.26-12.95,44.71-21.81c13.24-13.81,17.67-35.66,13.35-65.13C1047.94,129.95,1011.97,107.24,947.69,114.11z
		 M968.1,215.84c-4.18,9.09-10.63,14.27-19.76,15.61c-2.55-0.05-4.21,0.19-4.69-0.16c-7.13-2.35-6.98-10-8.37-16.58
		c-1.33-6.17-3.63-18.97-6.49-38.48c-1.4-9.55,1.25-14.6,8.31-15.63c19.51-2.86,31.11,6.89,34.33,28.89
		C972.85,199.03,971.58,207.7,968.1,215.84z M1312.67,268.26c16.28-10.05,26.05-30.09,29.25-59.71
		c5.74-52.97-23.4-83.98-87.36-93.44c-8.71-1.37-17.05-2.27-25.49-2.34c-12.18-0.48-19.36-0.41-21.08-0.17
		c-3.99-0.43-7.18-0.77-9.32-0.63c0.02-0.1-2.05-0.6-6.12-1.04c-17.43-2.73-32.34-1.39-44.93,1.89
		c-15.18,3.84-23.22,11.83-24.44,23.09c-0.68,6.26,0.49,11.03,3.47,14.72c4.27,3.42,7.38,5.86,9.75,7.38
		c6.46,6.61,8.58,18.23,6.77,34.92l-2.98,27.53c-15.79,71.72-28.92,115.02-38.6,130.43c-1.48,1.95-5.64,5.3-12.57,10.88
		c-5.55,4.46-8.55,8.78-9,12.95c-3.21,29.61,5.67,41.13,43.18,49.41c16.92,3.52,31.75,6.81,45.1,8.26
		c13.35,1.45,24.33,1.37,32.48,0.14c32.01,0.52,41.81-8.13,45.56-42.75c0.95-8.76-8.53-18.65-14.3-27.71
		c-5.12-7.31-8.15-33.8-10.55-77.94c5.92-4,20.09-6.27,42.42-5.95C1286.29,278.06,1302.26,274.73,1312.67,268.26z M1258.67,194.05
		c-1.04,9.59-4.44,17.66-9.84,24.67c-6.33,7.75-13.87,11.16-23.04,10.16c-2.46-0.69-4.13-0.87-4.5-1.33
		c-6.31-4.06-4.25-11.43-3.94-18.15c0.26-6.3,1.25-19.28,3.37-38.88c1.04-9.59,4.87-13.82,11.96-13.05
		C1252.28,159.6,1261.07,171.94,1258.67,194.05z M1465.79,424.6c3.77,9.72,11.1,21.98,8.24,30.32
		c-7.48,21.83-17.52,33.02-30.4,34.37c-9.69,1.11-32.99-4.65-69.9-17.29c-29.76-10.2-48.26-19.63-56.14-28.98
		c-7.88-9.35-8.7-22.49-2.86-39.56c1.36-3.97,5.24-7.52,12.03-10.51c7.99-3.91,12.79-6.26,14.26-7.98
		c6.15-6.32,17.44-23.73,33.2-52.93c14.28-26.15,26.82-51.12,37.76-75.31c8.71-26.73,10.71-44.22,5.87-52.09
		c-1.97-2.01-4.47-5.08-7.88-9.35c-2.09-4.26-2.18-9.17-0.14-15.12c3.67-10.72,13.27-16.74,28.93-17.14
		c13-0.42,27.71,1.95,44.24,8.06c23.28,8.42,39,16.9,46.75,25.32c6.84,7.22,8.63,14.93,5.64,23.66
		c-5.3,15.48-18.53,11.39-26.71,21.01c-8.31,10.01-17.2,26.92-25.36,50.73l-0.68,1.98c-5.37,23.44-9.69,49.01-13.49,75.64
		C1465.07,399.52,1463.19,417.94,1465.79,424.6z M1701.24,543.35c-18.58,30.43-35.92,48.36-52.08,54.7
		c-8.37,3.24-16.92,1.95-25.51-3.29c-1.43-0.87-3.58-2.19-6.58-4.51c-2.29-1.89-4.44-3.2-5.73-3.5l-18.69-10.43
		c-11.97-5.35-26.51-13.73-43.84-24.8c-29.64-19.08-43.74-28.18-42.66-27.53c-30.07-18.36-38.33-38.64-24.56-61.2
		c3.06-5.01,11.75-11.99,26.28-21.31c15.9-9.95,26.54-17.71,31.55-23.5c22.14-25.8,42.28-52.33,58.97-80.48
		c16.83-27.57,22.95-46.44,19.65-56.32c-1.49-2.39-3.26-5.93-5.67-10.84c-1.11-4.61-0.14-9.42,3.14-14.8
		c5.9-9.67,16.58-13.47,31.95-10.47c12.79,2.4,26.63,7.91,41.45,17.44c20.9,13.26,34.41,24.95,40.16,34.85
		c5.11,8.53,5.2,16.44,0.39,24.32c-8.53,13.96-20.56,7.11-30.62,14.73c-10.28,7.98-21.53,20.77-32.9,39.38
		c-15.96,26.14-24.35,40.68-25.74,43.76c-14.52,35.86-16.71,57.14-6.32,63.48c6.8,4.15,14.92,6.16,23.98,5.8
		c13.38-0.18,22.23-0.19,26.33,0.35c7.97,1.43,13.5,2.84,16.72,4.81c3.22,1.97,5.43,4.79,7.34,8.9c3.32,7.44,4.8,12.27,4.78,14.71
		C1712.41,522.65,1708.67,531.18,1701.24,543.35z M2045.47,600.58c-3.96,3.75-7.87,5.72-11.72,5.33c-7.12-0.19-11.59,0.58-24.48-5.7
		c-10.26-4.73-16.42-7.56-19.96-8.25c-3.26-0.38-8.3-0.22-16.05,0.76c-24.05,0.25-39.19,0.74-45.75,1.75
		c-16.37,1.64-28.36,6.07-35.66,13l-5.18,4.91c-34.42,44.2-52.36,71.62-54.42,82.24c-0.88,10.66-0.65,24.32-7.04,30.38
		c-16.75,15.88-30.83,21.14-42.88,16.37c-9.11-3.51-26.79-19.11-53.64-47.43c-21.65-22.83-33.66-39.78-36.31-51.72
		c-2.65-11.94,2.71-23.97,15.81-36.38c3.04-2.89,8.13-4.24,15.24-4.05c8.9,0.24,14.23,0.38,16.62-0.15
		c7.77-2.17,23.45-11.25,46.41-26.66c19.94-13.12,34.76-23.71,44.76-31.46c0.91-0.86,1.91-4.7,3.59-12.07
		c1.73-9.15,4.61-17.09,8.07-24.42c3.23-10,7.72-22.35,12.86-37.05c0.72-4.73,0.86-10.07-0.15-16.62
		c-1.49-10.72-2.23-16.38-2.23-16.38c-0.82-2.69-1.6-6.57-2.65-11.94c0.41-4.44,2.61-8.83,7.18-13.16
		c8.22-7.79,19.52-8.68,33.58-1.78c11.43,5.35,23.36,14.27,35.47,27.65c16.73,18.25,26.43,32.75,29.69,44.12
		c2.42,9.27,0.44,16.93-6.26,23.28c-8.22,7.79-14.99,5.53-22.09,4.75c-7.1-0.78-15.18,1.67-20.11,8.66
		c-10.18,14.27-11.37,25.81-3.58,34.03c2.89,3.05,10.01,3.23,21.64,0.87c4.52-2.55,10.51-4.77,17.69-6.95
		c5.39-1.64,8.69-3.03,9.91-4.19c1.22-1.16,0.37-2.66-0.64-9.22c0.13-4.75,2.32-9.14,6.89-13.47c15.53-14.72,38.74-6.09,69.05,25.88
		C2052.51,570.19,2057.95,588.74,2045.47,600.58z"/>
</g>
</svg>
