<?xml version="1.0" encoding="utf-8"?>
<!-- Generator: Adobe Illustrator 25.2.0, SVG Export Plug-In . SVG Version: 6.00 Build 0)  -->
<svg version="1.1" id="Layer_1" xmlns="http://www.w3.org/2000/svg" xmlns:xlink="http://www.w3.org/1999/xlink" x="0px" y="0px"
	 viewBox="0 0 2200 2200" style="enable-background:new 0 0 2200 2200;" xml:space="preserve">
<g>
	<path d="M455.9,972.62c-2.17-1.09-7.6-2.71-12.21-3.66c-13.16-2.58-27.14,1.09-39.49,10.45l-4.34,3.26l-0.81-5.16
		c-1.63-10.18-3.53-17.1-6.38-22.66c-12.62-25.24-40.98-37.05-70.97-29.85c-20.22,4.89-42.07,20.63-48.17,34.74
		c-4.07,9.5-5.02,24.83-2.17,36.77c1.22,5.16,2.17,9.36,2.17,9.5c0,0.14-8.14,0.27-18.05,0.27c-16.28,0-18.59,0.27-24.7,3.39
		c-13.3,6.51-23.48,20.9-28.77,40.71c-3.53,12.89-3.39,43.83,0.14,54.82c3.39,10.18,13.16,21.03,23.61,26.19
		c7.19,3.53,8.96,3.8,24.29,3.8c10.58,0,16.15,0.54,15.61,1.36c-0.41,0.68-2.58,3.93-4.61,7.06c-13.03,19.13-10.58,38.54,6.78,55.64
		c9.91,9.77,19.68,15.06,38.27,20.9c18.86,5.84,31.21,6.11,42.2,0.95c13.98-6.38,23.34-17.78,27-32.7c0.95-3.53,2.17-6.38,2.85-6.38
		c0.68,0,1.22,0.54,1.22,1.22c0,3.12,14.79,17.1,21.03,20.08c13.3,6.11,31.08,2.71,48.04-9.09c12.08-8.55,26.73-26.6,33.65-41.52
		c9.63-20.76,0.81-44.65-21.85-59.16l-6.51-4.34l8.01-2.17c17.5-4.75,29.31-15.06,33.11-28.9c2.31-8.68,0.81-27.14-3.26-37.72
		C484.27,1001.25,467.3,978.59,455.9,972.62z M413.43,1089.59c-2.44,13.43-8.28,24.7-17.37,33.79
		c-30.26,29.85-78.71,21.3-97.84-17.23c-4.88-9.91-5.02-10.45-5.02-25.78c0-14.93,0.27-16.28,4.34-24.97
		c4.88-10.31,15.74-22.53,24.7-27.82c13.03-7.6,31.75-10.31,45.73-6.51C398.5,1029.2,418.72,1059.87,413.43,1089.59z M1920.23,864.9
		c1.93-7.28,0.68-22.74-2.73-31.61c-6.14-16.03-20.35-35.02-29.9-40.02c-1.82-0.91-6.37-2.27-10.23-3.07
		c-11.03-2.16-22.74,0.91-33.09,8.75l-3.64,2.73l-0.68-4.32c-1.36-8.53-2.96-14.33-5.34-18.99c-10.57-21.15-34.34-31.04-59.46-25.01
		c-16.94,4.09-35.25,17.28-40.36,29.11c-3.41,7.96-4.21,20.81-1.82,30.81c1.02,4.32,1.82,7.85,1.82,7.96s-6.82,0.23-15.12,0.23
		c-13.64,0-15.58,0.23-20.69,2.84c-11.14,5.46-19.67,17.51-24.1,34.11c-2.96,10.8-2.84,36.72,0.11,45.93
		c2.84,8.53,11.03,17.62,19.78,21.94c6.03,2.96,7.5,3.18,20.35,3.18c8.87,0,13.53,0.45,13.08,1.14c-0.34,0.57-2.16,3.3-3.87,5.91
		c-10.92,16.03-8.87,32.29,5.68,46.62c8.3,8.19,16.49,12.62,32.06,17.51c15.8,4.89,26.15,5.12,35.36,0.8
		c11.71-5.34,19.56-14.9,22.63-27.4c0.8-2.96,1.82-5.34,2.39-5.34c0.57,0,1.02,0.45,1.02,1.02c0,2.61,12.39,14.33,17.62,16.83
		c11.14,5.12,26.04,2.27,40.25-7.62c10.12-7.16,22.4-22.28,28.2-34.79c8.07-17.4,0.68-37.41-18.3-49.57l-5.46-3.64l6.71-1.82
		C1907.15,885.14,1917.04,876.5,1920.23,864.9z M1852.01,891.28c-2.05,11.26-6.94,20.69-14.55,28.31
		c-25.35,25.01-65.94,17.85-81.98-14.44c-4.09-8.3-4.21-8.75-4.21-21.6c0-12.51,0.23-13.64,3.64-20.92
		c4.09-8.64,13.19-18.87,20.69-23.31c10.91-6.37,26.6-8.64,38.32-5.46C1839.5,840.68,1856.44,866.38,1852.01,891.28z"/>
	<path d="M625.34,641.63c3.34,8.37,5.33,25.18,5.33,50.99c0,64.53-8.67,107.94-25.34,132.96c-8.66,12.9-21.33,19.17-37.33,19.34
		c-2.67,0.03-6.77,0.15-12.66-0.66c-4.6-0.63-8.67-0.72-10.67,0.01c-13.6,0.58-20.4,0.82-34,1.15c-20.67,2.59-47.4,2.58-80-0.42
		c-55.9-5.14-82.67-10.02-80.67-9.78c-56-6.76-84-35.39-84-81.8c0-10.31,5.92-27.87,18-53.48c13.11-27.77,21.33-48.76,23.33-62.04
		c8.67-59.08,13.67-118.99,13.33-178.22c-0.33-58.44-7.33-94.5-20-107.17c-4-2.43-10.69-6.36-16.66-12.01
		c-5.33-5.05-8-14.68-8-26.08c0-20.52,11.46-36.27,34.67-46.21c19.29-8.26,42.78-12.93,70.66-12.21
		c39.17,1.02,67.38,6.67,83.34,16.92c13.82,8.88,20.66,21.7,20.66,39.26c0,31.12-22.15,31.72-29.33,53.66
		c-7.41,22.63-11.99,54.17-11.99,94.83c0,57.05,0.66,87.94,1.33,94.16c10,70.85,24.67,106.63,44.01,107.24
		c12.66,0.4,25.33-3.9,37.33-12.9c18-12.75,30-21.18,35.99-24.21c12.01-5.33,20.67-8.42,26.67-8.43c6-0.01,11.34,2.29,17.34,6.86
		C617.34,631.79,623.34,637.82,625.34,641.63z M1017.38,367.89c29.77,62.77,44.66,132.99,44.66,216.27
		c0,56.87-21.31,108.65-63.34,156.62c-39.59,45.18-87.99,75.38-144.66,87.3c-63.34,13.32-114.28-4.44-152-57.85
		c-34.05-48.22-51.34-111.04-51.34-186.58c0-83.27,17.3-157.64,52.01-222.23c39.89-74.24,93.99-112.5,162-112.5
		C930.71,248.91,981.28,291.76,1017.38,367.89z M916.05,514.57c0-31.83-6.67-66.55-19.34-104.68c-16-48.19-36.01-72.54-59.34-71.54
		c-14,0.6-24.44,13.06-32,36.99c-5.67,17.94-8.67,37.65-8.67,58.39c0,34.58,4.78,67,14.67,95.13
		c13.41,38.15,32.66,54.66,58.67,50.89C900.71,575.32,916.05,553.62,916.05,514.57z M1506.77,259.91
		c-15.03-4.86-32.66-7.32-51.99-7.31c-66,0.02-99.34,14.74-99.34,44.82c0,10.78,4.66,18.02,14.66,22.08
		c10.01,4.06,15.34,10.51,15.34,18.96c0,18.03-5.26,40.02-16,66.89c-12.46,31.18-26.67,50.25-42.01,56.35
		c-11.32-3.38-23.5-18.76-35.99-45.74c-11.39-24.61-17.13-45.76-18-60.56c-1.56-26.62,16.5-45.39,17.33-49.92
		c0.53-2.88,1.34-5.96,1.34-10.09c0-12.99-6.81-22.18-20.66-28.61c-15.94-7.4-44.14-11.58-83.34-12.19
		c-27.92-0.43-51.38,3.45-70.67,10.82c-23.23,8.87-34.67,23.29-34.67,41.47c0,10.1,2.79,18.55,8,22.5
		c6.01,4.56,12.66,7.38,16.67,9.15c8.67,6.15,16.67,20.22,24.67,41.84c6.67,18.86,10,28.2,16.67,46.74
		c2.65,8.16,13.98,44.78,31.33,107.04c16.66,59.78,32,103.45,46.66,131.07c22,41.43,46.67,58.64,74,52.68
		c8.67-1.89,19.44-6.06,31.34-12.37c15.29-8.1,26-16.6,32-25.22c14.66-22.08,35.23-79.96,61.33-165.53
		c29.11-95.46,51.99-150.5,67.99-177.08c2.01-3.8,11.01-10.81,26-20.58c11.95-7.79,18.25-16.84,18.01-26.65
		C1537.11,277,1526.57,266.31,1506.77,259.91z M1929.5,560.46c-0.99-16.42-1.33-26.71-1.33-30.83c0-13.55-11.34-34.77-24.67-36.1
		c-4.66-0.47-10.67,3.59-18,12.14c-7.34,8.55-16,12.31-27.34,11.3c-2-0.18-4.66-0.41-8-1.28c-6-2.23-20.66,0.6-26,0.2
		c-64.67-4.85-96.67-29.19-96.67-75.27c0-19.42,7.33-29.13,21.33-28.68c12.66,0.41,21.92,5.56,27.99,14.9
		c6.29,9.67,13.35,14.56,20.68,14.93c11.32,0.57,19.5-7.49,25.33-23.97c4.06-11.47,6-24.41,6-37.27c0-8.39-3.34-12.43-10-12.68
		c-7.33-0.27-18.67,11.53-26.01,11.27c-18-0.64-33.36-4.4-45.99-11.28c-14.66-7.99-22-17.95-22-29.88c0-2.71,0.67-4.87,1.34-7.57
		c2-7,4.66-11.28,9.33-12.84c5.86,0.08,8.8,0.13,14.66,0.22c32,0.5,56.01,5.92,72.67,15.8c6.67,4.06,16,12.63,28.66,27.18
		c8.67,9.9,18.68,14.92,30.67,15.55c12.66,0.66,22.5-4.02,29.33-13.33c5.4-7.36,8-17.43,8-29.48c0-18.95-3.95-36.47-11.99-52.3
		c-10.43-20.52-25.34-30.61-44.68-30.62c-13.99-0.01-38.66,1.08-72.66,2.65c-34.01,1.58-58.67,2.6-74.01,2.58
		c-11.32-0.02-38.76-2.06-49.33-2.16c-27.75-0.28-51.37,2.66-70.67,8.35c-23.25,6.85-34.67,17.84-34.67,32.14
		c0,7.94,2.84,14.74,8,18.06c6.22,4.01,12.68,6.42,16.67,8.02c8,4.81,13.68,16.99,16,35.47c1.13,9.03,0,19.48-0.67,31.47
		c-2.13,56.25-3.2,84.96-5.33,143.59c-1.33,34.66-5.33,56.73-11.34,65.55c-5.07,7.05-7.6,10.59-12.66,17.73
		c-1.33,2.37-7.33,8.34-18.67,18.77c-6.66,6.13-10,12.77-10,20.47c0,18.95,11.34,28.46,34,27.61c50.13-1.64,75.2-1.81,125.33-0.23
		c18.01,0.48,36.72,1.8,56,2.43c23.27,0.77,41.34,2.41,54.67,3.69c48,4.61,75.99,6.93,84.66,2.92c22-10.85,33.33-40.58,33.33-88.66
		C1931.49,590.34,1930.45,576.19,1929.5,560.46z"/>
	<path d="M768.43,1213.37c0,27.91-7.26,46.36-21.48,55.25c-10.73,6.71-39.9,14.22-87.48,19.59c-38.36,4.33-63.42,2.55-76.21-3.79
		c-12.79-6.34-18.93-19.84-18.93-40.46c0-4.8,3.31-10.25,9.72-16.51c7.67-7.49,12.27-12.43,13.3-15.2
		c4.6-10.61,10.66-37.03,17.39-79.8c6.04-38.45,12.58-76.67,13.81-109.97c1.3-35.06-5.11-59.63-13.81-67.09
		c-3.06-1.54-8.22-4.04-12.78-7.89c-4.04-3.4-6.14-10.48-6.14-18.94c0-15.23,8.8-27.27,26.6-35.35
		c14.81-6.72,32.82-10.92,54.22-11.78c30.07-1.22,51.72,0.84,63.94,6.76c10.61,5.13,15.85,13.33,15.85,25.35
		c0,21.29-16.98,23.65-22.5,39.44c-5.69,16.29-9.22,41.32-9.22,73.61c0,1.08,0,1.61,0,2.69c3.08,30.27,8.11,62.17,14.33,94.08
		c7.02,35.98,12.27,57.1,17.9,62.7C755.12,1194.2,768.43,1202.7,768.43,1213.37z M1027.28,972.36
		c-13.81-8.11-39.4-16.12-77.25-24.77c-28.13-6.43-41.94-15.32-41.94-26.44c0-18.56,12.28-31.02,37.35-37.15
		c11.24-2.75,22.96,4.74,34.77,21.28c11.94,16.71,25.07,23.24,38.37,19.71c18.93-5.02,28.64-20,28.64-44.3
		c0-42.92-9.2-61.92-27.62-57.42c-10.74,2.62-25.62,4.22-45.01,5.11c-18.88,0.86-33.76,2.12-43.99,4.48
		c-32.23,7.43-59.34,22.07-81.34,43.52c-24.99,24.37-37.33,52.95-37.33,85.62c0,18.21,7.67,34.66,23.52,49
		c4.61,4.76,18.93,14.72,42.46,29.84c15.86,9.7,23.54,18.11,23.54,25.92c0,22.9-11.77,37.39-35.3,43.2
		c-13.81,3.41-24.1,3.67-31.73,0.39c-7.06-3.04-14.32-4.46-20.96-2.95c-20.98,4.76-31.71,17.43-31.71,38.11
		c0,41.38,14.35,69.44,43.47,84.72c25.99,13.63,60.36,15.76,102.3,4.72c40.93-10.78,74.67-33.54,101.29-67.34
		c26.89-34.13,40.41-71.82,40.41-113.36C1069.23,1016.3,1055.41,988.97,1027.28,972.36z M1627.36,1021.03
		c-1.28,20.92-16.06,36.64-42.97,47.76c-17.84,7.37-39.38,12.88-64.96,16.1c-25.59,3.23-43.99,3.93-55.25,1.02
		c-18.93-4.33-28.14-16.21-28.14-37.39c0-7.75,1.03-17.23,3.58-27.49c15.36-18.47,23.03-43.26,23.03-74.37
		c0-10.53-7.91-17.78-22.51-20.44c-11.13-2.03-23.54-1.63-36.84,1.3c0,0-4.59,2-14.32,5.69c-12.78,10.39-18.93,25.86-18.93,46.56
		c0,15.14,3.08,27.61,9.72,37.28c2.56,3.48,9.2,9.12,18.93,17.77c6.64,5.74,9.72,11.78,9.72,17.99c0,23.78-12.28,42.03-36.84,54.52
		c-11.76,6.39-33.76,13.13-64.96,21.06c-47.07,11.97-70.34,6.28-70.59-17.08c-0.23-20.93,8.88-40.68,27.1-58.36
		c21.48-20.84,40.67-58.75,56.78-112.28c13.93-46.31,20.98-85.23,20.98-116.61c0-12.25-2.05-21.54-6.65-28.79
		c-2.56-3.81-6.15-7.92-11.77-11.45c-4.55-2.86-6.65-5.3-6.65-7.25c0-10.73,18.52-24.55,54.73-39.6c31-12.88,53.72-19.9,68.05-21.17
		c24.04-2.15,42.45,3.85,55.24,14.05c5.63,4.68,14.33,16.16,25.59,34.53c3.58,5.84,7.67,17.73,12.79,35.77
		c19.95,71.25,39.91,125.52,59.84,161.49c2.56,5.1,7.73,10.73,15.36,15.6c7.4,4.73,12.27,9.22,14.82,12.8
		C1626.35,997.25,1628.18,1007.56,1627.36,1021.03z M1446.28,851.13c0-2.45-3.05-10.77-9.22-24.09
		c-5.56-12.02-13.29-17.28-23.02-15.25c-5.62,1.17-11.84,9.29-18.42,24.91c-5.65,13.39-8.18,23.39-8.18,29.8
		c0,2.97,4.61,3.41,13.29,1.51c4.1-0.89,16.37-4.99,20.47-5.85c6.65-1.39,11.25-1.85,12.79-1.18
		C1442.18,858.81,1446.28,855.54,1446.28,851.13z"/>
	<path d="M228.87,1392.36c10.7-11.05,22.93-20.77,22.93-39.32c0-17.15-8.87-32.08-26.76-45.89c-14.14-10.91-31.35-19.68-51.61-26.57
		c-1.91-0.65-6.88-2.33-14.91-5.57c-8.03-3.24-14.52-5.69-20.26-7.9c-49.7-19.13-74.8-23.7-75.69-7.17
		c-0.33,6.2,1.14,11.89,3.82,16.13c5.35,6.98,8.02,10.44,13.37,17.26c0.61,0.57,0.92,0.85,1.53,1.42
		c5.74,12.22,8.98,27.57,8.79,45.48c-0.15,14.36-2.27,31.14-6.88,50.27c-3.79,15.71-8.25,31.55-11.86,47.7
		c-2.38,10.67-7.8,18.3-16.06,22.55c-7.22,3.72-11.08,10.11-11.08,18.52c0,1.91,0,4.21,0.38,7.01
		c1.53,15.07,18.73,30.33,51.99,43.93c10.32,4.07,32.88,11.27,67.28,19.31c84.48,19.75,126.91-3.75,126.91-59.89
		c0-22.93-7.47-43.36-22.17-62.61C257.52,1412.5,244.16,1400.69,228.87,1392.36z M156.24,1324.47c0-9.4,3.44-12.88,9.93-10.7
		c11.09,3.72,19.49,17.4,19.49,28.47c0,17.84-6.5,24.91-19.88,20.68c-3.44-1.09-5.89-6.97-7.64-17.23
		C156.93,1338.56,156.24,1331.33,156.24,1324.47z M175.73,1460.97c-10.32-2.75-14.15-12.1-13.38-28.02
		c0.61-10.58,0.92-15.87,1.53-26.45c0.38-4.92,3.82-6.36,11.08-4.24c16.44,4.8,24.47,16.75,24.47,36.89
		C199.43,1457.87,191.4,1465.15,175.73,1460.97z M517.14,1514.44c0.55,8.88,1.15,16.77,1.15,22.78c0,27.07-6.5,44.47-19.11,52.04
		c-4.97,2.84-21.03,3.78-48.55,2.34c-7.64-0.4-18-1.01-31.35-1.56c-11.05-0.46-21.78-1.59-32.11-2.49
		c-28.75-2.61-43.12-4.2-71.86-8.05c-13-1.68-19.5-8.38-19.5-19.23c0-4.42,1.91-7.86,5.73-10.7c6.5-4.82,9.94-7.72,10.71-8.97
		c2.91-3.66,4.36-5.49,7.26-9.15c3.44-4.6,5.73-17.13,6.5-37.75c1.22-34.87,1.83-52.4,3.06-87.63c0.38-7.49,1.04-13.99,0.38-19.88
		c-1.33-11.99-4.59-20.36-9.17-24.24c-2.3-1.41-6.01-3.61-9.56-6.84c-3.04-2.76-4.59-7.41-4.59-12.61c0-9.37,6.56-15.35,19.88-17.66
		c11.06-1.92,24.61-1.79,40.52,0.4c6.05,0.83,21.79,3.94,28.29,4.59c8.79,0.88,22.94,1.53,42.43,1.68
		c19.5,0.16,33.64-0.13,41.67,0.08c11.08,0.28,19.63,6.67,25.61,19.15c4.62,9.65,6.89,20.14,6.89,31.54
		c0,7.25-1.49,13.31-4.59,17.86c-3.92,5.75-9.56,8.8-16.82,8.62c-6.88-0.17-12.62-3.08-17.59-9.1
		c-7.26-8.83-12.62-14.22-16.44-16.81c-9.55-6.29-23.32-10.11-41.66-11.62c-3.36-0.28-5.05-0.42-8.41-0.72
		c-2.68,0.79-4.2,3.39-5.35,7.75c-0.38,1.67-0.77,3.01-0.77,4.72c0,7.54,4.2,14.11,12.62,19.59c7.26,4.71,16.05,7.44,26.38,8.08
		c4.21,0.26,10.7-6.88,14.91-6.67c3.82,0.19,5.74,2.67,5.74,7.8c0,7.84-1.12,15.69-3.45,22.65c-3.35,9.98-8.03,14.86-14.52,14.47
		c-4.21-0.26-8.24-3.26-11.85-9.26c-3.49-5.8-8.79-9.11-16.06-9.7c-8.03-0.66-12.23,5.07-12.23,16.94
		c0,28.16,18.34,44.21,55.42,46.09c3.06,0.16,11.47-1.8,14.91-0.65c1.91,0.4,3.45,0.46,4.59,0.51c6.5,0.25,11.47-2.28,15.68-7.55
		c4.2-5.29,7.64-7.91,10.32-7.85c7.65,0.16,14.15,11.73,14.15,19.49C516.38,1499.3,516.57,1505.19,517.14,1514.44z M806.17,1510.99
		c-5.68-2.92-9.56-6.62-11.47-10.14c-14.91-24.68-29.81-62.8-44.73-115.82c-3.82-13.42-6.88-22.66-9.54-27.05
		c-8.41-13.87-14.92-22.52-19.12-25.98c-9.56-7.52-23.33-10.81-41.29-10.57c-10.7,0.14-27.68,4.11-50.84,10.77
		c-27.03,7.77-40.9,15.19-40.9,22.92c0,1.41,1.58,3.44,4.98,6.06c4.19,3.24,6.88,6.65,8.79,9.71c3.43,5.77,4.96,12.71,4.96,21.45
		c0,22.39-5.26,48.95-15.67,78.52c-12.03,34.15-26.42,56.08-42.43,65.96c-13.61,8.4-20.43,19.43-20.26,32.87
		c0.19,15.09,17.59,23.29,52.75,22.98c23.32-0.2,39.75-1.64,48.55-4.24c18.35-4.86,27.53-15.35,27.53-30.93
		c0-4.06-2.3-8.37-7.26-12.9c-7.26-6.81-12.24-11.35-14.15-14c-4.96-7.27-7.26-16.02-7.26-26.26c0-14.01,4.59-23.84,14.15-29.54
		c7.26-1.44,10.69-2.35,10.69-2.35c9.94-0.61,19.19,0.28,27.53,2.67c10.92,3.13,16.82,8.51,16.82,15.82
		c0,21.57-5.73,37.82-17.2,48.73c-1.91,6.6-2.68,12.77-2.68,17.87c0,13.94,6.88,22.73,21.03,26.73c8.41,2.61,22.17,3.24,41.29,2.01
		c19.1-1.23,35.19-7.22,48.55-13.3c20.11-9.15,31.15-20.88,32.11-34.53c0.62-8.82-0.77-15.37-3.83-19.71
		C815.33,1516.62,811.7,1513.83,806.17,1510.99z M676.57,1428.57c-1.14-0.61-4.58-0.68-9.55-0.29c-3.06,0.24-12.24,1.97-15.3,2.19
		c-6.5,0.45-9.93-0.38-9.93-2.48c0-4.54,1.89-11.33,6.11-20.4c4.92-10.55,9.56-15.91,13.76-16.27c7.26-0.62,13.04,3.84,17.2,13.03
		c4.61,10.18,6.88,16.39,6.88,18.15C685.75,1425.67,682.7,1427.71,676.57,1428.57z M1099.02,1252.1c0,5.73-2.29,11.04-6.5,15.92
		c-5.63,6.54-9.18,11.28-10.32,14.27c-4.59,12.31-6.88,31.94-6.88,58.95c0,8.75,0,21.67,0.38,38.68
		c0.38,17.01,0.77,29.46,0.77,38.19c0,24.7-10.69,50.67-32.49,77.49c-21.63,26.61-45.12,42.17-69.96,47.3
		c-45.1,9.31-76.86,7.42-95.18-4.78c-18.94-12.62-28.68-38.96-28.68-80.38c0-7.92,0.21-20.1,1.15-36.03
		c0.95-16.04,1.53-28.36,1.53-36.4c0-17.9-1.91-30.34-6.11-37.83c-1.91-3.6-6.2-6.65-11.86-9.78c-4.18-2.31-6.5-5.88-6.5-11.41
		c0-10.71,7.3-20.12,21.79-28.41c9.93-5.69,21.8-10.45,35.56-13.88c41.67-10.38,62.69-7.48,62.69,10.11c0,5.61-2.28,10.77-6.5,15.51
		c-5.63,6.33-9.56,11.4-10.71,14.3c-4.2,11.12-6.5,28.04-6.5,51.31c-0.15-0.26-0.23-0.39-0.38-0.65
		c0.38,22.44,2.68,37.31,6.88,44.03c6.51,9.84,20.65,12.07,42.43,6.84c36.71-8.81,47.02-24.5,47.02-61.71
		c0-19.18-0.74-33.71-2.29-44.18c-1.87-12.65-6.24-20.44-13.39-22.43c-6.32-1.76-9.56-6.1-9.56-12.87c0-19.2,20.27-34.51,60.4-45.69
		c10.32-2.88,19.57-3.96,27.53-2.72C1093.6,1237.45,1099.02,1242.92,1099.02,1252.1z M1236.28,1240.08c0,0-1.13,0.69-3.82,2.56
		c2.14,19.27,3.21,28.94,5.35,48.33c0.77,5.61,1.15,8.42,1.91,14.05c3.06,22.43,6.2,44.25,10.32,65.41
		c4.65,23.82,8.03,38.73,11.84,42.29c6.13,6.63,16.05,12.92,16.05,21.37c0,22.12-5.43,36.55-16.05,43.97
		c-8.02,5.6-29.81,12.06-65.37,19.47c-28.28,5.9-47.41,7.21-56.96,3.45c-9.54-3.76-14.14-13.93-14.14-30.49
		c0-3.86,2.46-8.62,7.26-14.38c5.75-6.9,9.18-11.39,9.94-13.49c3.82-8.25,8.32-28.41,13.37-59.37c4.86-29.82,8.62-56.56,10.33-79.71
		c0.43-5.86,1.15-20.06,1.53-42.19c-3.83-0.52-5.73-0.78-5.73-0.78c-3.45,0.93-6.28,4.82-8.79,11.63
		c-3.54,9.59-6.89,16.5-9.56,19.91c-5.73,7.69-14.52,13.1-25.61,16.05c-9.56,2.54-15.59,0.85-18.35-4.3
		c-1.75-3.27-2.67-10.37-2.67-21.46c0-11.46,3.56-24.29,10.31-38.77c7.7-16.51,16.44-26.41,26.38-29.18
		c3.45-0.96,8.79-1.32,16.05-1.41c7.26-0.09,12.62-0.8,16.05-1.75c42.82-11.84,71.48-20.25,86.02-25.26
		c2.67-1.09,8.03-6.39,11.46-7.29c10.71-2.81,19.87,1.89,27.53,14.38c6.44,10.49,9.94,22.23,9.94,34.45
		c0,22.46-8.03,35.5-24.46,39.57c-9.18,2.27-16.96-2.17-22.57-12.82C1248.1,1243.37,1242.03,1238.58,1236.28,1240.08z
		 M1449.63,1400.65c0,22.98-5.44,37.79-16.05,45.07c-8.02,5.5-29.81,11.3-65.37,17.82c-28.66,5.26-47.4,6.03-56.96,1.8
		c-9.56-4.24-14.14-15.07-14.14-32.46c0-4.05,2.47-8.99,7.26-14.88c5.75-7.07,9.18-11.65,9.94-13.82
		c3.43-8.43,7.96-28.94,12.99-61.36c4.52-29.13,9.41-57.66,10.32-82.04c0.95-25.21-3.83-41.99-10.32-45.97
		c-2.3-0.62-6.18-1.61-9.56-3.6c-2.89-1.69-4.58-6.36-4.58-12.26c0-10.62,6.57-20.47,19.87-28.84
		c11.08-6.96,24.53-12.55,40.52-15.89c22.5-4.7,38.66-5.37,47.8-2.27c7.95,2.7,11.84,8.21,11.84,16.93
		c0,15.47-12.69,18.53-16.82,30.54c-4.24,12.34-6.88,30.96-6.88,55.13c0,0.8,0,1.2,0,2c2.3,22.49,6.05,46.54,10.71,71.35
		c5.24,27.94,9.18,45.16,13.37,49.79C1439.69,1384.45,1449.63,1391.87,1449.63,1400.65z M1946.25,1175.73c0,6.2-2.31,10.74-6.5,13.8
		c-5.6,4.1-9.18,7.49-10.32,10.16c-4.59,11.07-6.88,31.44-6.88,61.15c0,9.62,0,23.85,0.38,42.8c0.38,18.95,0.77,32.91,0.77,42.57
		c0,27.35-10.71,51.26-32.49,73.09c-21.58,21.62-45.11,31.53-69.96,29.25c-45.1-4.13-76.82-15.23-95.18-35.29
		c-18.94-20.7-28.68-55.48-28.68-104.62c0-9.4,0.2-23.67,1.15-42.16c0.95-18.5,1.53-32.64,1.53-41.94c0-20.7-1.91-35.46-6.11-45.16
		c-1.91-4.63-6.2-9.29-11.86-14.31c-1.81-1.61-3.2-3.43-4.27-5.43c0.47,4.08,0.8,8.24,0.8,12.55c0,8.79-1.69,15.97-4.96,21.82
		c-3.88,6.95-9.18,10.95-16.44,11.04c-6.13,0.08-11.47-3.6-15.67-11.03c-6.51-11.14-11.09-18.04-13.77-20.44
		c-7.64-7.21-18.76-10.41-32.88-9.2c-17.53,1.5-26.37,7.53-26.37,17.41c0,10.28,3.85,18.04,11.08,22.8
		c6.35,4.19,14.91,6.19,24.85,5.74c4.21-0.19,11.86-8.43,16.44-8.59c4.21-0.15,6.11,16.43,6.11,49.69c0,8.43-4.96,16.56-12.61,16.79
		c-2.68,0.08-7.26-3.58-13.38-10.89c-6.13-7.31-13.01-10.76-20.27-10.38c-5.73,0.3-9.56,2.61-11.09,6.86
		c-0.75,2.13-1.19,7.63-1.52,15.97c-1.36,34.54,1.9,66.68,8.03,96.26c1.52,6.33,8.58,16.29,21.02,29.31
		c11.48,12.01,16.8,22.5,16.06,31.56c-0.78,9.49-8.79,14.34-24.47,14.66c-4.2,0.09-10.14-0.45-17.97-0.86
		c-7.8-0.41-13.37-0.46-16.82-0.34c-28.75,1.32-43.12,2.18-71.86,4.18c-12.99,0.75-19.49-6.02-19.49-19.92
		c0-5.47,2.67-12.8,9.16-20.83c5.81-7.46,8.72-11.19,14.54-18.65c7.64-9.76,10.31-21.28,10.31-33.83
		c-0.61-48.31-0.91-72.17-1.52-119.29c0-0.16,0-0.25,0-0.41c0-27.35-3.83-43.48-10.32-48.36c-2.3-0.93-6.15-2.42-9.56-4.87
		c-2.97-2.14-4.58-7.04-4.58-13.02c0-10.79,6.57-20.01,19.87-26.93c11.07-5.76,24.46-9.89,40.52-11.2c1.15-0.12,3.06-0.33,5.73-0.2
		c2.15-0.22,3.22-0.33,5.36-0.55c-1.91,0.19,6.88-0.8,26.38-2.45c8.78-0.74,22.41-2.88,39.37-6.12c17.04-3.25,30.19-5.24,38.22-5.5
		c10.71-0.36,19.05,7.08,25.23,21.83c1.87,4.46,3.27,9.14,4.42,13.93c0.89-10.92,8.07-19,21.61-23.99c9.93-3.65,21.8-5.59,35.56-5.1
		c41.67,1.48,62.69,13.56,62.69,33.32c0,6.3-2.29,11.23-6.5,14.98c-5.61,5-9.56,9.33-10.71,12.2c-4.2,11.07-6.5,29.46-6.5,56.19
		c-0.15-0.35-0.23-0.53-0.38-0.88c0.38,25.9,2.68,43.97,6.88,53.24c6.51,13.7,20.65,21.16,42.43,23.44
		c36.71,3.85,47.02-9.16,47.02-50.96c0-21.54-0.74-38.1-2.28-50.49c-1.87-14.99-6.16-25.54-13.39-30.97
		c-6.31-4.74-9.56-10.98-9.56-18.53c0-21.41,20.27-30.16,60.4-22.21c10.32,2.05,19.57,5.69,27.53,11.26
		C1940.87,1156.92,1946.25,1165.79,1946.25,1175.73z M2155.77,1438.76c0,32.49-4.98,52.85-14.54,62.49
		c-4.96,4.95-12.23,5.8-21.4,3.06c-1.53-0.46-3.9-1.12-7.26-2.55c-2.66-1.13-4.96-1.84-6.11-1.78c-7.8-1.94-11.7-2.87-19.5-4.68
		c-11.86-1.64-27.19-5.2-45.87-10.07c-32.07-8.35-47.41-11.65-46.26-11.41c-32.11-6.53-48.16-22.07-48.16-48.55
		c0-5.88,3.4-15.92,10.33-29.91c7.51-15.17,12.23-26.27,13.37-33.51c4.98-32.18,7.83-64.29,7.64-96.39
		c-0.19-31.6-4.2-51.83-11.46-60.3c-2.3-1.81-6.05-4.68-9.56-8.6c-3.11-3.47-4.58-8.98-4.58-15.18c0-11.17,6.56-18.26,19.87-19.99
		c11.05-1.44,24.5,0.01,40.52,5.54c22.45,7.75,38.61,16.66,47.78,25.26c7.96,7.46,11.86,15.35,11.86,24.11
		c0,15.54-12.71,11.24-16.82,20.96c-4.25,10.04-6.88,25.36-6.88,46.32c0,29.44,0.38,45.71,0.77,49.05
		c5.73,38.52,14.14,59.46,25.23,62.9c7.26,2.25,14.52,2.18,21.4-0.26c10.33-3.27,17.2-5.09,20.64-5.42
		c6.89-0.24,11.86,0.09,15.3,1.4c3.43,1.3,6.5,3.65,9.93,7.3c6.12,6.61,9.56,11.04,10.71,13.4
		C2154.62,1416.91,2155.77,1425.77,2155.77,1438.76z"/>
	<path d="M372.21,1708.76c-11.66,11.4-17.38,24.55-17.38,39.38c0,40.54,17.9,61.3,53.7,62.64c8.7,0.32,23.08-3.98,41.95-12.99
		c19.28-9.2,32.22-13.91,38.36-13.76c3.58,0.09,6.65,1.43,9.2,3.6c12.28,12.5,18.42,35.33,18.42,68.09
		c0,28.6-11.88,50.52-34.79,65.58c-21.46,14.11-50.12,21.56-85.94,21.47c-46.55-0.13-86.45-15.36-118.67-48.24
		c-30.58-31.21-46.05-69.53-46.05-112.27c0-44.1,15.34-83.16,45.53-116.81c33.16-36.96,74.17-52.33,121.75-48.69
		c15.86,1.21,31.83,6.16,46.55,13.98c15.31,8.13,24.56,11.65,28.13,11.79c4.1,0.16,11.9-6.39,16.37-5.97
		c13.35,1.27,22,10.26,26.09,28.15c1.03,5.66,2.05,17.85,2.05,36.37c0,17.65-21.48,32.17-41.95,31.51
		c-9.71-0.31-18.93-7.07-26.6-20.34c-7.67-13.26-16.88-20.23-27.1-20.8C401.88,1690.33,385,1696.24,372.21,1708.76z M899.64,1865.98
		c-19.95-56.53-29.66-104.14-29.66-145.04c0-20.69,2.56-37.7,8.18-51.63c3.08-7.92,8.18-16.79,15.34-25.87
		c5.55-7.04,8.19-12.71,8.19-16.96c0-22.25-28.14-27.79-83.9-18.29c-18.41,3.14-34.4,8-48.08,14.33
		c-18.86,8.72-28.13,19.07-28.13,32.05c0,8.49,4.72,15.08,13.81,18.32c9.65,3.44,14.32,11.9,14.32,25.69
		c0,9.79-5.11,16.62-14.84,20.01c-3.58,1.32-12.79,2.38-28.65,2.88c-16.37,0.51-27.1-0.1-31.71-1.28
		c-9.71-2.8-14.84-10.05-14.84-21.4c0-8.29,4.61-16.72,13.81-24.51c9.22-7.79,13.81-15.09,13.81-21.31
		c0-20.9-28.13-29.56-83.88-28.42c-18.93,0.39-34.83,2.72-48.09,6.73c-18.9,5.71-28.65,14.8-28.65,27.43
		c0,7.83,3.06,13.07,8.7,16.15c9.2,4.84,14.32,7.88,15.85,9.18c5.63,6.51,8.19,17.33,7.67,32.37c-0.2,6.53-0.3,9.78-0.51,16.28
		c-1.03,0-4.06,20.29-9.2,59.74c-5.59,42.83-13.31,70.72-22.51,84.23c-1.03,2.05-5.85,5.69-13.81,11.81
		c-6.12,4.7-9.2,9.36-9.2,13.45c0,20.46,10.23,33.44,30.18,39.51c10.74,3.23,32.74,4.85,64.96,4.86c5.11,0,12.28,0,21.48,0.4
		c9.72,0.41,16.37,0.41,20.46,0.41c22,0,37.87-2.83,47.58-8.05c12.76-6.87,19.45-20.2,19.45-39.88c0-4.5-3.78-10.22-11.25-16.37
		c-8.68-7.13-13.54-13.22-14.84-16.84c-1.68-4.66-2.56-19.79-2.56-45.43c0-17.65,1.03-28.74,3.06-32.59
		c3.58-8.99,14.33-13.47,31.21-13.86c16.37-0.37,19.95,4.76,19.95,18.47c0,9.86,1.53,24.67,4.09,43.51
		c2.56,18.85,4.09,33,4.09,42.61c0,3.33-4.14,8.92-12.78,15.44c-8.33,6.28-12.79,12.4-12.79,18.12c0,16.32,10.75,26.34,32.74,30.3
		c6.65,1.2,25.57,1.52,57.8,1.36c68.03-0.34,101.8-11.9,101.8-34.83C928.29,1897.56,918.57,1883.09,899.64,1865.98z
		 M1327.83,1851.14c4.1,7.89,5.94,19.01,5.11,33.4c-1.29,22.4-16.07,38.71-42.97,48.23c-17.83,6.31-39.39,9.91-64.96,10.04
		c-25.59,0.12-43.99-1.98-55.25-6.67c-18.93-7.31-28.13-21.28-28.13-42.78c0-7.86,1.01-17.33,3.57-27.44
		c15.36-16.53,23.03-41.58,23.03-74.45c0-11.13-7.93-19.27-22.51-23.64c-11.15-3.34-23.54-4.29-36.83-2.87c0,0-4.61,1.53-14.33,4.08
		c-12.79,9-18.93,23.73-18.93,44.42c0,15.14,3.08,28.01,9.72,38.77c2.56,3.9,9.2,10.6,18.93,20.9c6.65,6.87,9.72,13.46,9.72,19.65
		c0,23.73-12.28,39.47-36.84,46.21c-11.76,3.62-33.75,5.2-64.96,5.34c-47.07,0.21-70.34-10.5-70.59-31.52
		c-0.22-18.72,8.88-34.54,27.1-47.42c21.45-15.16,40.68-47.54,56.78-97.92c13.93-43.61,20.98-82.54,20.98-114.54
		c0-12.5-2.05-22.16-6.65-29.84c-2.56-4.03-6.15-8.45-11.77-12.34c-4.54-3.15-6.65-5.73-6.65-7.72c0-10.92,18.53-24.05,54.74-39.07
		c30.97-12.84,53.7-20.45,68.03-21.76c24.04-2.2,42.45,1.51,55.24,11.83c5.63,4.76,14.33,16.92,25.59,37.01
		c3.58,6.36,7.67,19.63,12.79,39.96c19.95,80.31,39.91,143.03,59.84,185.89c2.56,6.05,7.72,12.86,15.36,18.96
		C1320.36,1841.72,1325.27,1847.22,1327.83,1851.14z M1151.87,1689.04c0-2.62-3.05-11.71-9.22-26.35
		c-5.56-13.19-13.29-19.2-23.02-17.62c-5.62,0.91-11.84,9.16-18.42,24.99c-5.65,13.59-8.18,23.69-8.18,30.31
		c0,3.07,4.61,3.96,13.29,2.77c4.1-0.56,16.37-3.8,20.47-4.36c6.65-0.92,11.25-1.04,12.79-0.2
		C1147.76,1696.95,1151.87,1693.76,1151.87,1689.04z M1635.82,1578.79c22.85,55.07,34.27,119.31,34.27,193.91
		c0,50.94-16.35,94.1-48.59,128.82c-30.31,32.65-67.53,49.57-111,49.57c-48.6,0-87.71-23.43-116.64-67.34
		c-26.14-39.67-39.39-87.16-39.39-143.56c0-62.18,13.27-117.09,39.89-167.03c30.62-57.44,72.14-89.74,124.31-91.83
		C1569.32,1479.29,1608.11,1512,1635.82,1578.79z M1558.06,1693.26c0-26.37-5.11-55.55-14.82-86.67
		c-12.28-39.33-27.62-58.01-45.52-57.37c-10.75,0.39-18.77,9.74-24.56,27.64c-4.35,13.44-6.65,28.21-6.65,44.04
		c0,26.37,3.67,51.71,11.25,74.71c10.29,31.2,25.07,46.82,45.01,46.63C1546.3,1742.01,1558.06,1725.62,1558.06,1693.26z
		 M1926.93,1679.06c-13.81-14.55-39.39-33.81-77.25-57.22c-28.12-17.39-41.94-31.76-41.94-44.06c0-20.51,12.28-30.25,37.35-28.01
		c11.26,1.01,22.92,13.49,34.78,36.35c11.99,23.13,25.07,35.43,38.37,36.87c18.93,2.04,28.65-10.41,28.65-37.11
		c0-47.15-9.22-71.8-27.62-74.36c-10.75-1.49-25.65-5.71-45.02-12c-18.9-6.14-33.76-9.96-43.99-10.89
		c-32.23-2.95-59.35,4.77-81.34,21.76c-24.95,19.28-37.33,47.21-37.33,83.35c0,20.14,7.67,40.57,23.52,61.37
		c4.61,6.7,18.93,22.09,42.46,46.88c15.86,16.15,23.54,28.39,23.54,37.32c0,26.22-11.76,38.95-35.3,38.29
		c-13.81-0.39-24.06-3.17-31.71-9.25c-7.05-5.6-14.33-9.37-20.98-9.51c-20.98-0.43-31.71,11.51-31.71,35.83
		c0,48.61,14.32,86.39,43.47,113.39c25.97,24.06,60.36,36.9,102.32,36.96c40.92,0.06,74.67-15.82,101.28-45.34
		c26.83-29.76,40.41-66.76,40.41-112.91C1968.87,1744.63,1955.06,1708.76,1926.93,1679.06z"/>
</g>
</svg>
