<?xml version="1.0" encoding="utf-8"?>
<!-- Generator: Adobe Illustrator 25.0.1, SVG Export Plug-In . SVG Version: 6.00 Build 0)  -->
<svg version="1.1" id="Layer_1" xmlns="http://www.w3.org/2000/svg" xmlns:xlink="http://www.w3.org/1999/xlink" x="0px" y="0px"
	 viewBox="0 0 2400 2400" style="enable-background:new 0 0 2400 2400;" xml:space="preserve">
<g>
	<path transform="translate(0.000000,2400.000000) scale(0.100000,-0.100000)" d="M6045,21743c-323-29-620-187-824-437
		c-180-220-309-489-368-766c-28-130-25-406,5-517c69-256,188-437,608-928c531-622,757-925,985-1322c96-167,232-439,227-453
		c-2-4-102-102-223-217c-469-447-875-890-1176-1283c-397-519-635-985-745-1455c-25-108-28-137-28-300c0-193,11-256,68-395
		c82-203,245-355,469-435c623-223,1448,71,1979,705c537,640,739,1503,567,2425c-49,267-161,637-267,888l-50,117l176,168
		c97,92,205,194,241,227l64,60l-7-51c-45-353-51-654-17-879c90-598,409-1195,754-1409c147-92,331-135,517-122c128,9,208,29,315,81
		c137,66,249,173,353,335c59,91,158,307,207,450c172,502,231,990,180,1495l-6,60l93,62c51,34,126,89,166,122c39,34,72,55,72,49
		c0-7-9-87-20-178c-62-532-46-941,56-1350c128-518,357-829,674-917c49-13,101-18,210-18c163,0,238,17,360,81
		c237,124,511,544,678,1040c133,394,192,739,192,1128v205l75,57c117,87,254,213,346,317c46,52,85,91,87,86s-2-73-8-151
		c-6-79-14-318-17-533c-8-573,15-1063,88-1850c17-181,36-406,44-499c15-197,20-208,111-246c51-21,74-24,174-24c95,0,125,4,172,23
		c86,33,98,54,98,165c0,50-7,170-14,267c-21,273,6,510,104,914c218,902,683,1835,1160,2327l109,113l1-95c0-174-46-465-195-1220
		c-199-1014-267-1530-268-2030c0-339,33-612,109-908c58-229,113-341,193-396c120-84,361-87,491-8c62,38,110,105,184,257
		c149,303,306,737,606,1670c78,242,193,597,257,788c131,396,129,375,27,398c-64,14-151,0-179-30c-39-44-242-539-447-1091
		c-312-842-416-1104-554-1404c-79-172-73-175-103,44c-64,466-52,931,39,1558c46,314,81,505,205,1132c129,649,168,875,192,1105
		c27,266,0,401-99,490c-86,77-219,112-397,102c-128-7-200-25-306-78c-194-95-397-296-650-644c-173-238-403-653-542-978l-50-119
		l-7,102c-8,110-1,465,15,760c11,209,38,485,74,768c33,256,33,266-8,307c-45,45-117,65-237,65c-115,0-186-19-235-61
		c-19-17-65-81-102-143c-120-201-303-466-428-623c-64-80-193-225-204-230c-3-2-19,34-34,80c-133,385-383,639-708,721
		c-237,59-512,30-711-76c-128-68-258-195-334-325c-20-35-42-63-48-63c-7,0-35-11-63-25c-38-19-67-47-119-112
		c-109-138-250-299-362-413l-102-105l-39,95c-160,395-390,640-728,774c-257,102-574,112-820,26c-280-97-497-345-536-612
		c-11-74-13-80-43-94c-49-23-141-103-369-320c-115-109-234-222-264-251l-55-51l-61,106c-245,429-525,803-1064,1422
		c-356,408-481,599-543,828c-28,105-30,329-4,452c66,308,210,585,406,781c81,80,112,104,189,143c112,56,148,58,235,16
		c85-41,176-113,278-218c155-161,249-303,418-630c60-118,105-193,122-206c20-14,48-20,105-23c67-4,84-1,122,19c27,14,52,36,63,58
		c60,115-37,448-205,700c-231,347-520,540-867,580C6218,21750,6128,21751,6045,21743z M11517,19010c67-38,157-127,211-207
		c96-142,182-369,223-587l22-118l-22-17c-38-29-183-82-250-91c-132-18-270,35-395,151c-183,171-230,434-115,649
		c59,112,199,250,253,250C11455,19040,11489,19026,11517,19010z M8907,18826c245-117,415-332,527-669c41-122,80-297,69-307
		c-14-13-136-58-213-79c-293-80-557-25-735,154c-119,118-185,273-185,431c0,145,51,270,157,384c87,94,165,134,246,127
		C8811,18864,8857,18849,8907,18826z M10978,17890c114-70,299-128,476-150c145-19,380-7,515,25l24,6l-7-118
		c-37-628-294-1349-615-1721l-63-73l-25,23c-36,34-104,140-156,244c-171,341-262,880-237,1405c13,280,23,389,35,389
		C10928,17920,10952,17907,10978,17890z M8510,17567c183-56,236-62,510-62c225,0,268,3,365,23c61,12,121,25,134,29l24,6l-6-194
		c-9-288-47-530-128-818c-75-267-189-539-291-697c-55-86-154-194-178-194c-9,0-55,39-101,88c-249,257-460,726-536,1187
		c-14,88-18,166-18,395c0,157,4,293,7,302c6,16,13,15,70-11C8397,17605,8463,17581,8510,17567z M6878,16803c75-252,115-430,149-668
		c28-199,25-628-5-824c-27-173-87-410-137-547c-82-222-247-516-385-684c-238-291-541-514-833-611c-182-62-288-39-404,84
		c-115,124-172,279-180,494c-6,153,5,243,52,428c82,322,269,716,508,1074c154,231,412,558,647,821c133,150,532,570,541,570
		C6834,16940,6856,16878,6878,16803z M9398,14544c-4-3-293-9-645-13c-606-6-640-8-678-26c-31-15-40-26-40-45s9-30,40-45
		c36-18,64-20,312-23l273-4l-5-36c-13-99-27-576-26-902c1-400,18-1082,29-1145c6-33,14-43,42-57c19-10,57-18,85-18s66,8,85,18
		c44,22,45,27,59,337c22,483,31,980,21,1198c-12,251-27,459-40,542c-6,33-10,63-10,66c0,4,60,10,133,13c373,19,514,35,566,67
		c71,43,23,79-105,79C9444,14550,9401,14547,9398,14544z M11293,14466c-90-23-164-66-237-138c-37-37-70-68-73-68s-2,11,1,24
		c8,33-25,56-82,56c-53,0-94-20-110-55c-31-68-48-452-32-730c19-345,49-601,95-829c14-66,24-120,22-121c-1,0-14-6-29-13
		c-41-17-37-52,11-95c86-77,245-111,526-111c220,1,308,13,402,59c70,35,145,119,193,219c62,130,75,190,74,351c-1,124-4,149-28,225
		c-83,257-258,420-517,484l-87,21l94,105c213,238,269,362,213,477c-25,52-66,88-138,121C11525,14479,11377,14488,11293,14466z
		 M11485,14338c30-23,55-74,55-111s-54-136-114-209c-74-90-328-309-342-295c-9,9,23,184,52,283C11208,14257,11380,14421,11485,14338
		z M11258,13613l138,2l86-42c113-56,189-136,252-265c56-114,75-185,82-308c10-161-32-303-117-395c-52-56-95-80-174-94
		c-63-12-286-15-348-5c-34,6-36,8-23,23s14,34,6,132c-13,156-27,268-61,514c-19,138-29,252-29,332v123l25-10
		C11109,13615,11183,13611,11258,13613z M12529,14470c-157-19-260-62-304-129c-43-65-54-157-66-556c-9-280-9-464,0-755
		c12-390,19-471,47-569c45-157,190-177,669-91c297,53,345,67,345,100c0,12-13,28-32,40c-45,28-184,26-448-4c-113-13-207-22-209-20
		c-10,9-20,230-23,489l-3,280l160,7c294,13,406,36,413,85c6,42-24,46-313,47l-270,1l-3,85c-5,135,17,607,33,694c16,89,37,126,80,138
		c53,14,228,37,364,48c147,12,174,20,169,53c-4,26-37,44-108,57C12970,14481,12627,14481,12529,14470z M9613,14159
		c-140-18-262-132-367-346c-156-314-200-745-105-1033c45-140,121-245,232-324c135-95,230-126,390-126c276,0,400,116,502,466
		c56,192,78,329,78,484c1,219-35,376-115,502c-61,94-356,349-425,367C9747,14163,9672,14167,9613,14159z M9876,13848
		c175-179,203-223,231-351c24-115,13-346-21-462c-61-205-142-361-237-458c-67-69-69-69-156,19c-69,69-127,187-155,320
		c-18,81-22,133-22,284c0,207,20,357,75,544c31,103,103,266,118,266C9713,14010,9789,13937,9876,13848z M6243,12316
		c-67-22-100-51-121-109c-45-119-104-431-258-1352c-397-2383-494-2866-770-3820c-216-745-389-1253-523-1540c-31-64-51-120-49-135
		c7-63,143-78,232-26c183,107,402,506,659,1196c350,943,578,1888,828,3437c13,78,24,141,25,140s12-108,24-237
		c93-1033,260-2042,375-2271c45-89,132-124,284-117c69,3,99,10,136,29c79,40,85,57,195,593c105,508,164,786,241,1136
		c68,305,224,963,254,1065c13,44,13-10,7-475c-10-752-7-1694,7-1985c48-1016,175-1777,362-2160c117-241,249-329,489-328
		c133,1,213,25,291,87c158,124,301,467,499,1194c142,522,209,872,235,1237l7,90l81,55c98,65,350,313,457,448c40,51,74,91,75,90
		c2-2-1-28-6-58c-53-331-101-725-131-1085c-17-205-17-963,0-1115c41-372,97-600,189-785c116-231,229-315,423-315
		c156,0,236,49,308,188c122,234,781,1792,897,2120c11,29,24,51,30,48c18-7,337-227,415-286c178-135,339-297,467-466l56-75l-19-24
		c-10-13-104-121-207-241c-248-286-487-586-563-704c-156-241-213-426-201-648c13-267,145-503,328-590c109-52,185-66,354-65
		c128,0,164,4,247,26c225,60,414,189,574,393c189,242,286,507,315,862c12,154,3,326-27,470c-35,172-122,392-211,531
		c-32,50-34,57-22,77c29,47,345,390,569,618c275,280,440,433,602,558c65,51,120,100,124,110c14,44-55,78-157,78c-73,0-105-12-214-79
		c-267-164-511-369-943-795l-223-220l-92,90c-160,158-279,251-548,432c-224,151-329,262-386,410c-34,89-43,262-19,367
		c34,142,141,331,243,426c88,83,149,105,226,82c91-27,166-82,333-245c104-101,178-165,205-178c82-37,199-18,199,33
		c0,33-70,183-124,266c-138,214-322,323-594,352c-332,34-641-87-831-325c-268-337-308-713-109-1001l35-49l-72-166
		c-195-445-785-1725-907-1965l-36-70l-15,38c-28,66-76,274-96,415c-41,283-46,376-46,842c0,580,16,815,115,1657
		c69,592,67,642-23,694c-38,22-53,24-168,24c-122,0-127-1-174-30c-59-37-107-93-300-356c-150-204-311-404-378-468l-36-34l-5,34
		c-3,19-13,81-22,139c-42,271-136,438-272,484c-73,26-186,31-265,12c-173-41-266-142-333-363c-24-77-27-106-28-233
		c-1-128,2-154,23-219c48-145,141-248,266-292c47-17,91-23,203-26l143-5l-5-37c-3-20-8-61-11-91c-43-387-262-1194-451-1658
		c-85-210-214-447-239-439c-5,2-24,37-42,78c-124,290-240,946-297,1689c-43,553-55,984-66,2305c-12,1498-28,1793-96,1874
		c-33,39-102,61-193,61c-143,0-197-31-230-133c-11-34-34-118-51-187s-85-327-152-575c-171-643-382-1488-483-1935
		c-48-212-88-386-89-387c-1-2-21,120-44,270c-161,1034-258,2084-302,3265c-11,293-15,308-88,344C6474,12330,6310,12338,6243,12316z
		 M9258,8758c72-128,122-376,122-609v-57l-51-21c-28-12-58-21-67-19c-24,5-78,80-101,143c-46,122-51,287-15,448c17,75,58,167,73,167
		C9224,8810,9242,8786,9258,8758z M13159,6229c87-344,54-762-84-1066c-87-190-265-397-398-463c-62-30-70-32-94-19
		c-55,30-128,152-158,266c-23,86-30,211-16,298c41,250,177,471,644,1043c35,44,63,70,68,65S13144,6292,13159,6229z M14831,5590
		c-97-21-142-53-255-186c-78-91-107-155-108-238c-1-182,156-288,381-256c161,23,240,103,305,308c57,180,22,307-98,357
		C15008,5595,14892,5603,14831,5590z"/>
</g>
</svg>
