<?xml version="1.0" encoding="utf-8"?>
<!-- Generator: Adobe Illustrator 25.0.1, SVG Export Plug-In . SVG Version: 6.00 Build 0)  -->
<svg version="1.1" id="Layer_1" xmlns="http://www.w3.org/2000/svg" xmlns:xlink="http://www.w3.org/1999/xlink" x="0px" y="0px"
	 viewBox="0 0 2500 2500" style="enable-background:new 0 0 2500 2500;" xml:space="preserve">
<style type="text/css">
	.st0{fill:#231F20;}
</style>
<path transform="translate(0.000000,2500.000000) scale(0.100000,-0.100000)" class="st0" d="M12546,24579c-346-51-744-268-1131-618
	c-433-393-948-1077-1350-1796c-161-287-447-872-600-1226c-23-56-47-105-52-110c-15-15-425,105-1193,348c-829,262-1228,362-1600,402
	c-497,53-938-18-1345-218c-496-242-806-614-910-1091c-48-218-22-513,62-703c113-259,309-417,618-499c116-30,127-32,330-32
	c183-1,214,1,243,17c40,22,42,51,5,65c-16,6-80,10-143,10c-92,0-135,5-215,26c-282,73-431,233-491,526c-23,117-15,372,15,484
	c126,458,387,774,816,988c365,183,680,212,1145,107c262-60,496-131,1460-442c306-99,640-197,888-260c95-25,175-47,178-50
	s-29-92-71-199c-153-384-295-768-457-1233c-44-126-88-255-99-285s-53-161-94-290c-264-836-434-1619-509-2350c-19-179-40-690-33-779
	l5-66l-111-245c-138-304-358-750-462-935c-64-115-178-307-192-324c-8-11-14,14-32,140c-110,755-58,1584,164,2651
	c86,413,89,458,24,512c-94,79-364,79-458,0c-25-21-38-49-67-142l-36-116l-22,35c-43,70-81,111-142,155c-131,93-269,129-473,121
	c-108-4-154-10-225-31c-181-54-326-146-491-311c-187-186-324-388-471-690c-213-439-314-857-314-1295c0-262,29-423,105-585
	c77-166,194-261,371-301c105-23,340-15,434,15c247,78,437,320,757,966l144,290l-5-85c-53-788,54-1411,279-1633
	c92-90,194-127,350-127c154,0,228,25,301,102c118,123,371,582,569,1030c62,141,85,177,85,132c0-39,89-281,141-384
	c100-197,197-293,353-348c94-34,325-44,427-18c198,50,324,175,454,450c86,179,286,699,375,969c12,37,24,67,27,67s2-102-1-227
	c-8-259,5-618,29-777c74-497,246-677,635-664c339,12,435,138,803,1053c131,327,226,555,236,567c3,4,6-151,6-345c0-289,3-373,18-467
	c64-412,208-692,408-792c185-94,471-92,652,4c213,113,450,512,613,1035c56,182,140,488,189,688c39,163,125,540,125,549
	c0,3,12,6,26,6c15,0,74,7,131,16c58,8,106,14,108,12s-10-65-26-142c-48-236-71-439-76-691c-10-475,47-606,292-670
	c78-20,281-20,358,0c204,53,313,180,597,694c41,73,76,129,78,123s-8-79-22-164c-39-238-50-366-50-598c0-238,15-332,71-448
	c36-75,123-161,196-196c157-74,392-75,535-2c152,77,241,220,408,655c122,316,194,494,204,504c4,5,11-18,15-49c4-32,16-88,27-124
	c73-237,212-334,478-333c242,0,354,60,539,288c126,156,334,427,446,583c91,127,106,144,99,115c-30-133-104-585-188-1140l-24-163
	l-384-382c-656-654-887-915-1125-1273c-212-318-333-575-409-871c-26-98-28-126-28-274c0-128,4-179,17-229c67-240,231-400,484-473
	c68-20,101-23,263-23c150,0,198,4,255,19c301,81,549,290,770,646c122,198,272,528,365,805c173,513,339,1292,425,1990l27,220l292,289
	c160,158,388,382,507,497l216,208l179-211c98-116,216-258,262-317c95-122,242-335,249-361c3-12-10-29-40-54c-24-20-47-36-51-36
	s-36,20-70,45c-147,105-262,139-466,139c-166,0-231-13-350-72c-99-48-236-183-297-292c-92-165-136-362-135-610
	c0-391,123-712,369-971c181-190,389-306,643-360c147-31,381-31,527,0c386,81,707,321,829,621c106,262,116,589,27,920
	c-54,203-181,500-296,693c-26,43-47,82-46,85c1,25,746,561,1043,751c63,41,118,81,121,88c17,47-54,77-166,71c-64-3-88-10-180-54
	c-206-99-463-259-806-500c-88-63-165-114-170-114c-6,0-44,44-85,98c-41,53-178,216-303,362c-256,298-311,370-366,485
	c-96,198-104,409-25,643c113,330,436,716,601,716c82,0,235-116,319-243c117-176,125-343,29-600c-36-98-35-110,11-111
	c87-1,266,243,311,425c64,256-81,555-327,674c-100,48-171,67-298,80c-257,25-533-52-741-209c-92-69-271-258-351-371
	c-37-52-92-143-122-204c-172-343-180-637-25-923c32-61,37-78,27-87c-7-7-60-50-118-96c-112-89-312-262-525-452
	c-71-64-131-115-133-113c-9,9,103,813,154,1106c13,80,54,295,90,478c104,532,146,845,123,911c-29,84-196,60-283-40
	c-82-95-247-505-390-969c-22-72-43-109-138-245c-206-297-483-657-708-920c-128-149-302-327-311-318c-19,20-39,266-39,487
	c0,435,56,849,191,1406c28,113,53,241,56,286c5,79,5,81-22,102c-40,32-100,45-185,40c-154-9-208-68-335-361
	c-157-363-274-807-310-1170c-9-89-20-182-26-207c-10-44-328-688-469-950c-85-157-161-275-221-344c-42-48-43-48-52-25
	c-19,45-20,421-3,619c48,552,228,1438,441,2175c97,335,108,385,96,413c-19,40-91,64-193,64c-77,0-95-3-146-28c-72-37-110-86-204-269
	c-61-119-73-137-82-121c-123,210-248,317-421,361c-87,22-253,20-351-5c-217-55-398-202-571-464c-75-113-183-333-238-486
	c-21-58-47-115-58-127c-37-42-274-139-293-120c-3,2,7,83,20,178c54,370,55,563,5,724c-28,92-60,145-120,199c-114,103-312,113-488,25
	c-149-74-258-215-335-429c-104-289-62-568,109-728c101-95,270-164,458-187c47-6,57-10,53-24c-3-9-17-61-31-116
	c-100-380-241-813-365-1125c-68-171-173-377-259-507c-78-118-240-303-266-303c-14,0-63,103-95,198c-97,292-138,674-127,1182
	c9,412,31,699,92,1215c22,187,20,226-9,254c-78,73-298,66-373-11c-61-63-129-254-193-544c-16-72-33-142-39-155
	c-23-61-678-1381-751-1514c-115-211-285-465-310-465c-10,0-35,134-54,297c-29,237-39,515-33,938c11,741,48,1232,147,1950
	c39,282,39,328,3,361c-65,60-270,74-369,24c-43-22-53-34-85-98c-95-191-220-740-273-1202c-15-128-20-146-100-355
	c-203-533-362-884-586-1285c-134-242-328-525-346-507c-16,16-89,203-118,305c-87,295-111,499-110,962c1,557,51,1015,184,1657
	c151,728,362,1432,750,2493c78,215,279,742,284,748c2,1,83-7,182-18c525-59,1053-47,1454,31c700,137,1257,429,1715,900
	c158,163,239,262,356,438c300,450,438,959,400,1475c-30,406-167,733-415,994c-198,208-437,338-679,371
	C12836,24592,12632,24591,12546,24579z M12914,24317c302-143,537-464,616-841c75-354,31-743-127-1131c-127-313-333-615-603-885
	c-435-435-959-705-1555-801c-163-26-565-37-765-20c-189,15-416,42-430,51c-25,16,343,826,588,1295c391,747,882,1441,1323,1870
	c209,203,406,350,583,435C12721,24374,12784,24379,12914,24317z M13377,17274c43-33,76-86,104-166c19-54,23-84,23-213
	c0-82-5-184-12-225c-26-156-74-397-82-410c-7-11-15-11-50,5c-73,33-138,126-186,265c-16,46-19,83-18,235c0,204,15,282,79,412
	c30,61,82,123,102,123C13341,17300,13358,17288,13377,17274z M15136,17205c123-72,243-191,321-319l36-58l-53-157
	c-29-86-61-172-71-192c-16-33-308-479-575-880c-118-176-353-490-371-497c-16-5-17,63-3,283c48,759,276,1481,568,1796
	C15050,17248,15059,17250,15136,17205z M6353,16880c120-76,236-242,313-448l24-63l-26-62c-179-427-747-1426-987-1737
	c-74-95-209-250-218-250c-10,0-44,109-59,189c-33,182-30,528,6,751c88,553,353,1136,671,1480c72,78,187,170,214,170
	C6299,16910,6327,16897,6353,16880z M19621,14382c47-30,169-155,169-173c0-6-43-52-95-101c-153-145-247-286-296-448
	c-26-84-30-190-11-257c29-99,119-190,220-220c83-25,256-22,343,6c163,52,284,178,354,373c74,204,72,376-6,564l-32,77l27,24
	c15,12,31,23,35,23s30-53,58-117c136-316,192-570,180-817c-15-307-129-532-339-672c-135-90-208-102-319-55c-191,81-395,286-507,507
	c-134,266-176,633-106,924c34,138,126,295,213,363C19552,14417,19566,14417,19621,14382z M19917,13768c-3-75-12-123-31-178
	c-30-84-85-182-101-177c-23,8-28,92-10,172c22,98,115,285,143,285C19920,13870,19920,13824,19917,13768z M17700,13611
	c0-54-138-656-215-936c-158-575-366-1051-589-1348c-62-83-239-257-261-257c-20,0-71,69-105,142c-49,104-63,192-57,348
	c10,229,70,436,212,725c196,399,396,672,889,1212C17680,13613,17700,13631,17700,13611z M12137,13195c-402-57-898-341-1084-620
	c-164-246-219-540-147-786c57-194,196-414,418-661c53-59,96-110,96-112c0-3-71-53-157-112c-357-242-521-385-696-604
	c-168-210-293-449-331-634c-20-98-20-251,0-336c94-400,568-681,1109-657c80,4,161,14,210,26c232,60,494,250,880,637
	c99,99,212,217,250,262l70,80l24-21c34-31,270-328,388-487c261-353,433-614,433-656c0-47,63-58,101-18c38,41,33,131-16,259
	c-113,299-374,751-625,1079c-44,58-80,108-80,111c0,2,38,56,83,117c341,460,543,840,762,1432c63,174,72,209,57,232s-78,47-137,52
	c-99,7-106,1-192-189c-185-408-350-716-529-988c-101-153-244-350-267-370c-12-9-35,11-117,101c-57,62-211,224-342,359
	c-131,136-238,251-238,256c0,6,62,60,138,120c415,332,623,554,804,855c130,215,178,371,179,578c1,145-19,242-71,346
	c-82,167-249,279-500,335C12494,13207,12265,13214,12137,13195z M12589,12902c52-52,82-118,107-232c65-304-89-645-455-1011
	c-145-144-444-393-464-386c-23,7-150,197-202,302c-70,139-95,237-95,366c0,161,60,347,162,497c154,229,617,504,861,511
	C12536,12950,12548,12943,12589,12902z M11784,10663c176-161,577-549,651-629l87-95l-78-87c-119-133-446-457-564-558
	c-426-366-638-456-832-352c-126,67-222,204-255,363c-29,144,1,299,97,503c109,228,292,466,500,647c105,92,319,255,334,255
	C11729,10710,11756,10689,11784,10663z M4430,11194c-374-43-612-181-744-433c-107-205-108-493-2-716c93-196,259-329,501-401
	c75-22,116-27,242-31c160-6,246,4,342,38c30,10,57,16,60,14c2-3-3-184-12-403c-10-218-22-532-28-697c-5-165-12-323-15-352l-5-51
	l-86-41c-121-58-213-123-289-204c-66-70-114-151-114-195c0-58,52-92,140-92c66,0,109,19,166,72c52,49,165,130,172,123
	c2-2-1-163-7-357c-26-802-31-1076-31-1743c0-963,18-1434,56-1493c69-106,391-130,529-39c44,29,53,45,64,119c45,287,74,1710,59,2922
	c-5,400-7,730-5,732c2,3,67,0,143-5c277-20,1102-36,1256-24c217,18,345,66,411,155c29,39,12,72-51,101c-58,26-202,30-300,7
	c-67-15-61-15-707,30c-154,11-387,23-517,27l-237,6l-5,61c-3,34-8,288-11,566c-6,554-18,1005-36,1378c-7,133-10,245-7,247
	c2,3,64-22,136-55c225-101,496-193,722-244c698-156,1772-187,2435-71c504,89,839,232,1089,467c70,66,89,89,89,111
	c-1,69-80,102-248,102c-142-1-153-5-299-104c-303-206-617-292-1177-321c-449-24-1152,31-1532,120c-238,55-412,124-847,335
	c-184,89-356,171-382,181c-39,16-48,24-58,57c-21,72-128,105-241,73c-55-15-65-15-173,4C4767,11189,4505,11203,4430,11194z
	 M4678,10839c40-11,107-33,148-51l76-32l-6-40c-7-50-34-476-44-676l-7-144l-37-8c-21-4-63-22-94-39c-78-45-177-52-249-18
	c-111,52-198,176-231,330c-19,88-13,251,12,344c49,184,225,376,328,359C4591,10861,4638,10850,4678,10839z M18579,9929
	c-332-28-569-213-625-489c-30-151,6-291,118-462c243-370,773-673,1438-822l105-23l3-114c17-660-364-1602-899-2224
	c-90-104-237-250-325-322c-202-164-503-312-671-329c-54-5-62-3-107,27c-93,62-230,257-295,420c-40,101-77,232-95,337
	c-35,206-48,472-23,472c23,0,280,134,371,193c125,82,216,157,326,267c291,292,426,608,389,911c-44,370-243,549-608,549
	c-134,0-248-23-348-71c-162-77-338-270-506-553c-185-313-290-630-333-1011c-8-77-18-159-20-182l-5-42l-65-6c-119-13-330,12-459,55
	l-60,20l4,241c5,347-20,555-94,776c-85,253-227,450-378,522c-188,90-443,52-586-88c-62-60-140-179-174-264c-63-156-72-347-27-522
	c88-338,422-667,838-826c34-13,62-30,62-37c0-53-97-411-168-622c-131-386-320-763-491-977c-23-29-46-53-51-53c-15,0-108,157-180,305
	c-239,494-418,1108-515,1765c-53,368-76,454-134,502c-49,42-95,53-221,53c-100,0-121-3-163-23c-82-41-86-60-96-432l-8-295l-42-195
	c-171-784-328-1206-570-1530c-152-204-398-395-536-415c-81-13-210,61-336,191c-74,77-117,141-176,259c-66,131-76,105,107,282
	c438,424,653,788,737,1248c23,124,23,348,0,435c-54,202-181,334-367,381c-89,22-279,17-375-10c-153-43-286-130-432-286
	c-238-251-390-582-449-980c-25-170-23-412,5-569c17-98,81-313,115-388c6-14-7-27-71-68c-99-64-273-149-385-189
	c-101-35-240-63-265-54c-67,24-150,135-184,242c-78,250,2,704,270,1532c78,243,94,313,95,414c1,120-17,167-94,238
	c-90,84-252,142-452,162c-38,4-68,10-68,13s11,34,25,68c54,134,69,226,69,404c-1,190-18,272-80,390c-145,277-528,452-900,412
	c-295-32-525-184-654-433c-179-344-55-686,316-872c139-70,390-135,613-160l114-12l-63-80c-135-171-316-331-564-496
	c-137-91-436-251-497-264l-26-6l-7,107c-26,403-147,717-358,926c-197,195-400,281-658,280s-444-91-577-280c-26-37-74-96-106-132
	c-199-219-387-619-461-981c-47-228-59-376-53-664c6-345,41-562,126-781c105-270,322-452,625-521c111-26,356-23,470,5
	c229,57,397,181,546,404c216,323,404,888,437,1315c5,74,9,86,27,93c12,5,80,27,151,49c429,135,1030,564,1290,920l60,82l66-5
	c132-9,167-45,156-159c-6-66-40-168-157-467c-132-339-226-650-277-910c-34-176-38-434-9-545c66-255,249-433,522-506
	c116-31,364-31,523,0c184,36,341,91,526,183l100,49l39-48c108-131,246-241,401-319c173-87,254-106,470-111c169-4,186-3,279,21
	c232,60,430,207,606,451c171,237,296,541,418,1019l48,189l18-84c64-296,207-705,331-949c169-329,339-479,608-534
	c111-23,322-21,419,3c238,61,354,194,512,585c135,332,268,833,350,1317l6,35l78-13c42-8,181-16,309-20l231-6l7-81
	c24-303,73-504,173-702c217-431,559-624,1062-600c271,12,524,88,780,231c419,235,772,646,1069,1242c271,544,427,1105,449,1615l7,148
	l335,3c256,3,360,8,440,21c266,43,476,104,694,201c66,29,122,50,124,45s-60-260-137-567c-252-1007-309-1316-342-1843
	c-32-512,47-1153,190-1550l31-85l-28-22c-73-61-772-517-1266-826c-1623-1015-2539-1448-4081-1927c-283-88-710-210-735-210
	c-30,0-339,142-611,280c-589,300-1041,526-1173,585c-569,254-1050,368-1606,382c-405,10-688-38-938-160c-210-101-391-286-452-459
	c-31-88-38-241-16-328c71-277,322-521,716-695c697-309,1801-395,2940-229c233,34,549,93,795,149c287,66,247,66,441-3
	c510-181,865-281,1359-381c434-89,718-126,1088-141c855-35,1525,103,2203,454c186,96,269,153,353,241c177,187,142,367-93,480
	c-108,51-167,65-285,65c-96,0-169-17-222-53c-29-19-34-28-34-62c0-38,2-41,54-67c32-16,71-28,93-28c52,0,88-35,88-85
	c0-92-83-171-285-270c-238-117-531-224-776-284c-443-109-965-119-1524-30c-263,42-646,127-921,204c-161,45-582,184-588,193
	c-3,4,100,39,227,77c1933,574,3014,1099,5052,2454c220,146,405,267,411,269s34-35,62-81c131-213,315-423,462-526
	c145-102,312-174,493-213c125-26,405-32,527-9c341,62,567,226,801,585c209,318,312,614,311,896c0,264-66,452-208,594
	c-99,99-208,154-380,192c-121,27-377,24-514-5c-280-59-548-190-958-467c-85-57-157-104-161-104c-16,0-68,284-98,530
	c-22,184-25,791-5,1000c31,311,76,608,167,1095c141,752,182,1120,136,1221c-36,79-141,124-290,124c-111,0-192-23-375-104
	c-431-193-622-250-926-277c-135-11-305-7-450,12c-131,17-130,16-130,54c0,50-37,258-65,362c-35,133-88,270-162,417
	c-84,169-159,281-262,389C19250,9827,18926,9958,18579,9929z M18857,9640c105-52,224-141,303-228c135-147,281-405,356-626
	c33-101,87-326,80-334c-7-7-204,71-311,123c-211,102-379,217-503,343c-82,84-170,211-201,289c-64,162-36,338,69,443
	c39,39,45,42,83,37C18755,9684,18811,9663,18857,9640z M9404,8301c118-51,224-148,278-256c65-128,86-361,49-540
	c-19-88-56-201-69-209c-4-2-50,2-102,10c-355,53-536,175-595,401c-42,160,18,373,146,516C9214,8339,9276,8355,9404,8301z
	 M17844,7930c92-175,88-406-10-601c-110-220-320-433-593-604l-44-27l8,79c20,215,82,476,162,678c81,204,232,470,325,570l41,46l38-37
	C17792,8013,17825,7967,17844,7930z M15317,7847c120-129,199-301,245-529c20-99,22-144,23-365c0-138-3-254-7-258
	c-11-11-129,88-215,180c-230,247-324,574-241,843c32,106,86,202,113,202C15242,7920,15279,7887,15317,7847z M7495,7234
	c173-104,290-237,368-418c74-171,123-430,115-606l-3-75l-95,3c-236,8-402,79-546,234c-129,140-160,302-103,548
	c32,138,148,350,192,350C7430,7270,7462,7254,7495,7234z M12199,6900c60-98,75-159,75-320c1-166-14-250-74-431
	c-71-214-186-409-363-614c-110-128-153-170-160-158c-14,22-29,276-23,373c25,382,119,691,292,957c49,76,197,243,214,243
	C12165,6950,12182,6928,12199,6900z M7118,6081c190-95,388-139,665-148c207-7,189,13,152-167c-111-548-399-1086-678-1267l-59-38
	l-30,22c-39,29-113,127-148,197c-146,293-219,963-155,1435c8,61,15,111,15,113c0,1,35-22,78-52C7000,6147,7072,6104,7118,6081z
	 M23481,5051c162-102,238-382,183-671c-67-356-422-869-703-1016c-67-34-102-34-172,1c-186,94-356,289-541,620
	c-53,95-138,276-138,295c0,8,528,403,685,512c44,31,127,85,185,121C23248,5078,23382,5115,23481,5051z M12096,2211
	c389-66,713-190,1379-530c741-379,867-442,968-487c59-26,107-50,107-54c0-13-460-102-725-139c-276-40-443-53-752-58
	c-328-6-497,3-745,37c-591,83-997,287-1139,575c-44,88-44,89-44,199c0,105,2,115,33,180c65,138,216,254,377,290
	C11651,2246,11931,2239,12096,2211z"/>
</svg>
