<?xml version="1.0" encoding="utf-8"?>
<!-- Generator: Adobe Illustrator 25.2.0, SVG Export Plug-In . SVG Version: 6.00 Build 0)  -->
<svg version="1.1" id="Layer_1" xmlns="http://www.w3.org/2000/svg" xmlns:xlink="http://www.w3.org/1999/xlink" x="0px" y="0px"
	 viewBox="0 0 2200 2200" style="enable-background:new 0 0 2200 2200;" xml:space="preserve">
<g>
	<path d="M579.29,1038.82c0,3.24-1.63,4.11-8.88,5.21c-5.27,0.8-105.58,6.85-132.54,6.59c-2.4-0.02-11.09-0.13-19.33-0.32
		c-8.2-0.19-17.66-0.52-20.93-0.69c-13.48-0.68-26.63-1.68-29.33-1.95c-2.63-0.27-2.85-0.28-2.54,0.28
		c0.17,0.34,5.22,6.19,11.22,12.94c31.14,35.1,57.55,63.55,57.72,64.1c0.24,0.66-0.91,0.24-2.4-0.88c-5.92-4.45-7.91-6-11.46-8.96
		c-2.19-1.85-17.1-13.89-33.09-27.21c-15.99-13.32-30.24-25.61-31.63-26.85c-1.4-1.2-2.58-2.15-2.65-2.1
		c-0.04,0.06-0.45,5.17-0.87,11.37c-0.9,13.33-2.04,28.16-2.3,29.47c-0.1,0.5-0.49,5.04-0.87,10.06s-0.87,10.37-1.04,11.96
		c-0.18,1.56-0.73,8.15-1.22,14.65c-0.49,6.47-1.11,14-1.4,16.69c-0.28,2.69-0.66,7.2-0.87,10c-0.21,2.8-0.68,8.07-1.04,11.73
		c-0.36,3.62-0.75,8.09-0.87,9.81c-0.12,1.73-0.51,6.32-0.87,10.13c-0.36,3.81-0.84,9.16-1.04,11.85c-0.21,2.69-0.51,6.34-0.7,8.05
		c-0.19,1.71-0.59,5.54-0.87,8.5c-0.56,5.64-0.77,6.86-1.71,11.1c-0.9,4.13-1.22,4.85-2.19,5.44c-1.18,0.72-3.21,0.49-4.39-0.48
		c-1.04-0.89-1.46-2.02-1.95-5.48c-0.62-4.73-0.64-5.21-1.43-23.94c-0.2-4.84-0.42-10.44-0.52-12.37
		c-0.11-1.97-0.31-7.53-0.52-12.39c-0.38-9.63-0.6-15.46-0.87-21.44c-0.1-2.12-0.33-7.96-0.52-12.92
		c-0.19-4.96-0.44-10.75-0.52-12.78c-0.09-2.02-0.24-6.22-0.35-9.23c-0.11-3.04-0.24-7.32-0.35-9.56c-0.11-2.24-0.24-6.55-0.35-9.57
		c-0.11-3.05-0.24-7.5-0.35-9.91c-0.11-2.41-0.24-7.38-0.35-11.05c-0.11-3.67-0.28-8.43-0.35-10.58c-0.07-2.15-0.26-9.26-0.38-15.79
		c-0.12-6.52-0.28-11.93-0.31-12c-0.07-0.08-7.7,4.43-16.96,9.89c-9.23,5.47-23.97,13.91-32.67,18.79
		c-8.71,4.88-17.66,9.83-19.86,11.12c-3.55,2.05-5.55,3.11-11.46,6.02c-3.26,1.6-3.24-0.13,0.04-2.94
		c4.46-3.83,10.52-9.02,11.57-9.92c1.98-1.62,8.78-7.41,9.89-8.37c0.45-0.43,4.32-3.66,6.16-5.23c0.21-0.15,2.3-1.97,4.7-4.03
		c2.4-2.02,5.29-4.52,6.45-5.48c1.15-0.96,3.97-3.38,6.27-5.38c3.97-3.43,6.51-5.66,9.72-8.4c0.8-0.68,2.75-2.4,4.39-3.82
		c1.64-1.42,3.38-2.96,3.9-3.42c0.84-0.71,0.87-0.84,0.35-1.12c-0.31-0.15-4.74-1.07-9.82-2.09c-11.81-2.31-16.04-3.2-34.31-7.75
		c-8.21-2.05-16.93-4.35-19.33-5c-27-7.19-127.28-43.89-132.54-46.44c-7.27-3.52-8.88-5.05-8.88-8.19c0-2.51,1.22-2.65,8.01-1.27
		c5.89,1.21,8.36,1.91,18.81,4.84c5.64,1.59,14.91,4.1,20.55,5.55c5.64,1.46,12.98,3.28,16.2,4.08c3.26,0.81,7.82,1.86,10.1,2.35
		c2.28,0.48,8.35,1.87,13.41,2.99c5.07,1.13,9.79,2.11,10.45,2.17c0.66,0.07,6.86,1.36,13.76,2.73c6.9,1.37,15.68,2.92,19.51,3.53
		c3.83,0.61,9.79,1.58,13.24,2.13c3.45,0.55,9.34,1.42,13.06,1.91c3.73,0.49,11.45,1.56,17.07,2.33c5.63,0.77,14.63,1.92,19.96,2.55
		c5.33,0.63,11.08,1.31,12.78,1.59c1.74,0.28,3.14,0.39,3.14,0.2c0-0.15-1.5-2.24-3.38-4.7c-18.67-24.66-47.72-64.56-55.7-76.02
		c-6.2-8.92-10.94-16.5-10.94-17.43c0-0.11,0.38-0.11,0.84-0.01c1.92,0.4,5.57,3.5,11.53,9.73c3.83,3.99,19.09,20.91,23.55,26.1
		c2.23,2.6,5.33,6.06,6.86,7.67c6.86,7.27,40.93,41.8,41.03,41.7c0.07-0.06,0.66-6.79,1.36-15c2.3-27.88,5.61-63.23,12.36-132.71
		c5.1-52.45,5.01-51.41,5.96-57.72c0.75-5.01,1.43-7.16,2.54-7.92c0.38-0.26,1.39-0.38,2.23-0.29c1.67,0.18,3.03,1.42,3.34,3.08
		c0.24,1.32,1.2,9.74,1.43,12.6c0.37,4.75,1.81,117.69,2.16,170.52c0.12,17.65,0.28,32.06,0.35,32.07c0.04,0,7.66-5.61,16.93-12.62
		c9.23-7.01,23.93-18.39,32.64-25.21c8.71-6.83,17.66-14.02,19.86-15.87c3.55-2.97,5.54-4.5,11.46-8.98c2.4-1.82,3.17-1.48,1.6,0.72
		c-0.49,0.69-0.8,1.5-0.7,1.84c0.11,0.31-0.49,1.44-1.36,2.56c-3.93,5.19-35.01,38.88-61.58,65.63c-6.38,6.42-8.5,8.72-8.08,8.95
		c0.31,0.15,2.58,0.5,5.05,0.76c2.44,0.26,8.82,1.16,14.14,1.95c5.33,0.79,14.34,2.05,19.96,2.79c5.63,0.74,13.34,1.76,17.07,2.29
		c3.73,0.53,9.61,1.27,13.06,1.67c3.45,0.4,9.4,1.09,13.24,1.54c3.83,0.46,12.61,1.37,19.51,1.96c6.9,0.59,13.1,1.09,13.76,1.22
		c0.66,0.12,5.38,0.51,10.45,0.87c5.07,0.35,11.13,0.77,13.41,0.97c2.28,0.2,6.88,0.51,10.1,0.69c3.26,0.18,10.56,0.58,16.2,0.88
		c5.64,0.29,14.91,0.71,20.55,0.92c10.45,0.42,12.92,0.55,18.81,1.3C578.08,1035.65,579.29,1036.23,579.29,1038.82z M2086.72,930.74
		c-5.88-3.12-8.36-4.3-18.81-8.62c-5.64-2.32-14.91-6.03-20.55-8.21c-5.64-2.19-12.92-4.88-16.2-6.07c-3.24-1.15-7.8-2.81-10.1-3.68
		c-2.3-0.84-8.33-2.94-13.41-4.65c-5.09-1.68-9.79-3.23-10.45-3.5c-0.66-0.28-6.86-2.29-13.76-4.39c-6.9-2.1-15.67-4.71-19.51-5.86
		c-3.83-1.15-9.79-2.84-13.24-3.79s-9.34-2.55-13.06-3.57c-3.72-1.03-11.44-2.99-17.07-4.33c-5.62-1.33-14.63-3.37-19.96-4.53
		c-5.33-1.16-11.7-2.4-14.14-2.78c-2.47-0.38-4.74-0.82-5.05-0.97c-0.42-0.23,1.71-2.15,8.08-7.31
		c26.57-21.5,57.65-46.2,61.58-50.11c0.87-0.84,1.46-1.73,1.36-2.01c-0.11-0.32,0.21-0.97,0.7-1.49c1.57-1.67,0.8-2.09-1.6-0.88
		c-5.92,2.98-7.91,4.03-11.46,6.11c-2.19,1.3-11.15,6.32-19.86,11.27c-8.71,4.94-23.41,13.49-32.64,18.99
		c-9.27,5.49-16.9,10.11-16.93,10.1c-0.07-0.01-0.23-12.57-0.35-27.84c-0.35-45.72-1.79-141.38-2.16-145.37
		c-0.22-2.4-1.18-9.49-1.43-10.6c-0.31-1.4-1.67-2.48-3.34-2.67c-0.84-0.09-1.85-0.02-2.23,0.19c-1.11,0.6-1.79,2.39-2.54,6.58
		c-0.94,5.27-0.86,4.18-5.96,48.53c-6.75,58.74-10.07,89.51-12.36,113.72c-0.7,7.13-1.29,12.99-1.36,13.05
		c-0.1,0.09-34.17-28.56-41.03-34.35c-1.54-1.28-4.64-4.03-6.87-6.09c-4.46-4.13-19.71-17.24-23.55-20.25
		c-5.95-4.71-9.61-6.91-11.53-7c-0.45-0.02-0.84,0.02-0.84,0.12c0,0.8,4.74,6.74,10.94,13.74c7.98,9,37.03,40.8,55.7,61.52
		c1.88,2.06,3.38,3.84,3.38,3.96c0,0.16-1.39,0.12-3.13-0.05c-1.71-0.17-7.46-0.49-12.78-0.7c-5.33-0.21-14.34-0.48-19.96-0.61
		c-5.62-0.13-13.34-0.17-17.07-0.12c-3.73,0.05-9.61,0.1-13.06,0.13s-9.4,0.14-13.24,0.26c-3.83,0.12-12.61,0.36-19.51,0.57
		c-6.9,0.21-13.1,0.49-13.76,0.58c-0.66,0.09-5.38,0.31-10.45,0.57c-5.07,0.26-11.13,0.63-13.41,0.82
		c-2.28,0.19-6.84,0.52-10.1,0.75c-3.23,0.22-10.56,0.78-16.2,1.28c-5.64,0.49-14.91,1.37-20.55,1.94
		c-10.45,1.08-12.93,1.45-18.81,2.67c-6.79,1.43-8.01,2.11-8.01,4.47c0,2.96,1.64,3.73,8.88,4.2c5.27,0.34,105.55,4.39,132.54,6.78
		c2.4,0.22,11.13,1.02,19.33,1.9c18.26,1.95,22.5,2.57,34.31,3.91c5.09,0.6,9.51,1.25,9.82,1.39c0.52,0.27,0.49,0.42-0.35,1.31
		c-0.52,0.58-2.26,2.5-3.9,4.28c-1.64,1.78-3.59,3.95-4.39,4.81c-3.21,3.48-5.75,6.31-9.72,10.73c-2.3,2.58-5.12,5.71-6.27,6.97
		c-1.15,1.26-4.04,4.51-6.45,7.18c-2.4,2.7-4.49,5.1-4.7,5.31c-1.85,2.08-5.71,6.39-6.17,6.96c-1.11,1.28-7.91,9.06-9.89,11.27
		c-1.04,1.21-7.11,8.26-11.57,13.51c-3.27,3.85-3.29,5.84-0.04,3.37c5.92-4.48,7.91-6.04,11.46-9.03
		c2.19-1.86,11.15-9.09,19.86-15.96c8.71-6.86,23.44-18.31,32.68-25.4c9.27-7.08,16.89-12.67,16.96-12.59
		c0.03,0.08,0.19,6.26,0.31,13.75c0.12,7.49,0.31,15.67,0.38,18.14c0.07,2.47,0.24,7.94,0.35,12.18c0.11,4.24,0.24,9.98,0.35,12.76
		c0.11,2.78,0.24,7.92,0.35,11.46c0.11,3.5,0.24,8.5,0.35,11.09c0.11,2.6,0.24,7.57,0.35,11.11c0.11,3.5,0.26,8.38,0.35,10.74
		c0.09,2.36,0.33,9.11,0.52,14.91c0.19,5.79,0.43,12.63,0.52,15.11c0.27,7.01,0.49,13.84,0.87,25.17c0.21,5.72,0.42,12.28,0.52,14.6
		c0.11,2.28,0.32,8.89,0.52,14.61c0.79,22.16,0.8,22.77,1.43,28.37c0.49,4.11,0.9,5.44,1.95,6.46c1.18,1.11,3.21,1.32,4.39,0.43
		c0.97-0.73,1.29-1.61,2.19-6.55c0.94-5.09,1.15-6.54,1.71-13.25c0.28-3.53,0.68-8.08,0.87-10.11c0.19-2.04,0.49-6.37,0.7-9.56
		c0.21-3.19,0.68-9.53,1.04-14.04c0.37-4.51,0.75-9.92,0.87-11.96c0.12-2.04,0.51-7.3,0.87-11.57c0.37-4.3,0.84-10.51,1.04-13.79
		c0.21-3.28,0.59-8.57,0.87-11.73c0.28-3.16,0.9-11.98,1.39-19.53c0.49-7.59,1.04-15.27,1.22-17.08c0.18-1.85,0.66-8.08,1.04-13.9
		c0.38-5.82,0.77-11.08,0.87-11.66c0.26-1.52,1.39-18.67,2.3-34.01c0.42-7.13,0.83-12.98,0.87-13.06c0.07-0.06,1.25,1.03,2.65,2.42
		c1.39,1.43,15.64,15.64,31.63,31.99c15.99,16.35,30.9,31.97,33.09,34.36c3.55,3.84,5.54,5.85,11.46,11.78
		c1.5,1.49,2.65,2.13,2.4,1.34c-0.17-0.66-26.58-37.47-57.72-79.15c-5.99-8.01-11.04-14.83-11.22-15.23
		c-0.31-0.64-0.09-0.63,2.54-0.24c2.7,0.39,15.85,2.02,29.33,3.98c3.28,0.48,12.74,1.78,20.94,3.05c8.24,1.28,16.93,2.78,19.33,3.21
		c26.97,4.76,127.27,30.26,132.54,31.62c7.24,1.86,8.88,1.6,8.88-1.45C2094.73,935.48,2093.51,934.37,2086.72,930.74z"/>
	<path d="M301.9,232.25c2.46,12.9,3.38,42.4,3.38,88.49c0,31.95,0,48.85-0.31,50.7c-2.77,20.59-11.67,30.42-26.73,29.5
		c-8.91-0.61-19.67-6.14-32.57-16.29c-16.29-13.21-26.42-20.59-31.03-23.04c-0.92,0-3.07-0.31-6.45-1.23
		c-3.38-0.92-5.53-1.23-6.76-1.54c-4.61-0.31-7.99,3.69-10.14,5.53c-2.46,2.15-6.14,11.06-6.14,27.35c0,19.05-0.61,35.95,2.15,40.86
		c1.84,3.69,8.6,6.45,13.21,6.76c4.61,0.61,12.91-3.07,24.28-10.45c11.37-7.68,19.97-11.37,26.12-11.06
		c13.21,0.92,20.89,17.51,23.35,49.78c0.31,4.92,0.61,21.82,0.61,50.39c0,22.12-0.92,36.26-3.07,43.32
		c-3.99,14.75-15.06,22.43-28.27,19.36c-1.84-0.31-4.3-1.84-6.76-3.38c-6.76-4.61-18.13-15.36-34.11-32.57
		c-0.31-0.31-1.23-0.61-2.76-0.92c-1.23-0.31-4.61,2.77-10.45,8.91c-0.61,7.99-0.92,14.75-0.92,20.28c0,14.75,1.54,35.03,4.92,60.53
		c2.77,19.66,3.99,32.26,3.99,38.1c0,4.3-0.61,7.37-1.54,9.22c-2.46,7.99-20.89,9.83-55.61,3.38c-14.13-2.46-20.89-3.69-20.89-3.69
		c-0.92-0.31-2.46-0.92-4.61-1.84c-2.77-0.92-4.61-1.54-5.22-1.84c-15.98-3.99-26.73-9.83-31.96-16.9
		c-4.92-15.06-7.37-32.88-7.37-53.46c0-6.45,0.31-16.29,0.92-29.5c0.61-12.9,0.92-22.74,0.92-29.5v-30.11
		c-0.31-3.99-0.61-6.76-0.61-7.37c0-14.13,0.61-35.03,1.84-62.37c1.54-27.35,2.15-48.24,2.15-62.37c0-5.53-0.31-14.44-0.92-25.81
		c-0.61-11.37-0.92-19.97-0.92-25.81c0-35.95-3.38-62.68-10.14-79.89c0-15.06,3.38-24.89,9.53-29.5
		c12.29-8.6,39.64-12.91,82.35-12.91c3.38,0,29.5,0.31,78.97,1.84c35.03,0.61,54.69,3.07,59.61,6.45
		C298.51,223.03,301.28,227.33,301.9,232.25z M599.01,346.86c6.14,28.88,9.22,69.44,9.22,121.37c0,123.52-26.43,203.4-79.28,242.12
		c-16.28,11.98-39.33,17.82-68.82,16.59c-24.89-1.23-44.86-8.6-59.92-21.82c-37.18-31.65-58.99-86.34-65.75-163.15
		c-1.84-21.51-2.77-36.26-2.77-43.63c0-71.59,10.75-136.42,32.88-195.11c22.43-60.53,60.84-91.87,114.91-91.87
		c30.72,0,53.77,9.53,69.75,28.58C573.82,269.74,590.41,305.69,599.01,346.86z M504.69,443.34c0-49.47-11.68-74.36-35.64-74.97
		c-6.76,0-13.21,3.99-18.75,11.98c-7.68,11.06-11.37,41.48-11.37,90.95c0,23.04,1.23,39.94,4,50.7
		c4.92,20.59,14.75,31.34,29.5,31.95c14.13,0.31,23.35-6.76,27.96-21.2c2.77-9.22,4.3-23.04,4.3-41.79V443.34z M920.71,537.67
		c2.77,12.6,4.3,24.89,4.3,37.18c0,32.26-4.91,59.3-15.36,82.04c-13.52,29.8-33.8,47.32-61.14,51.31
		c-9.52,1.54-17.2,0.92-23.35-1.84c-19.05-7.99-31.95-25.2-37.48-50.7c-3.38-15.06-7.68-38.1-14.14-68.83
		c-0.31-0.31-2.46-3.99-6.45-11.37c-2.45-4.61-5.53-6.76-8.91-6.45c-5.22,0.61-8.6,6.45-10.45,17.51
		c-0.61,4.92-0.92,12.29-0.92,21.2c0,7.68,0.62,18.74,1.54,33.18c1.23,14.75,1.84,25.5,1.84,32.88c0,10.14-0.61,18.43-1.84,23.96
		c-2.15,10.76-16.59,16.9-43.01,18.44c-2.15,0-7.99,0.61-17.51,1.84c-9.22,1.23-15.06,2.15-17.82,2.15
		c-15.06,0.61-23.35-4.92-24.89-16.59c-0.31-0.61-0.61-15.06-0.61-43.02c0-34.11,0.92-86.03,2.46-156.7
		c1.84-70.36,2.77-124.44,2.77-160.39c0-6.45-2.15-17.21-6.76-32.26c-4.3-15.06-6.45-26.42-6.45-34.41c0-9.83,3.38-18.43,9.83-26.12
		c9.22-11.06,22.12-19.36,38.41-24.58c4.3-1.54,19.05-4.61,44.55-9.52c2.46-0.62,3.69-0.92,6.14-1.23c4.61-0.92,9.22-2.15,12.9-2.76
		c13.83-1.84,23.97-1.23,26.12-1.23c5.84,0,15.98,1.23,30.73,3.69c35.95,6.45,64.22,20.59,84.19,41.48
		c21.81,23.04,32.88,52.85,32.88,90.03c0,33.49-7.99,63.91-24.27,92.18c-4.92,8.6-14.75,19.97-29.19,34.72
		c-8.6,8.91-12.9,15.67-12.9,19.66c0,7.68,3.38,13.83,10.14,18.74c6.76,4.91,14.13,7.07,21.51,6.14c1.54-0.31,3.99-0.92,7.06-2.46
		c3.38-1.23,5.84-2.15,7.07-2.15C910.27,512.17,916.41,520.46,920.71,537.67z M808.56,390.18c0-24.58-9.83-36.56-30.11-35.64
		c-4.3,0.31-7.37,0.62-8.29,1.23c-9.83,3.99-14.75,17.21-14.75,39.02v17.51c0,10.75,8.91,15.36,27.04,14.13
		c7.99-0.61,14.44-4.3,19.05-11.37C806.41,408.31,808.56,400.01,808.56,390.18z M1077.72,321.05c1.84,0.31,10.14,0,24.89-0.92
		c9.22-0.62,21.51,2.76,36.87,9.83c15.06,6.76,26.12,9.83,32.88,9.52c18.13-1.23,27.04-15.36,27.04-42.4
		c0-11.67-0.61-21.51-2.15-29.8c-1.23-5.22-1.84-9.22-1.84-11.37c-1.54-23.04-7.07-37.18-14.75-38.71
		c-27.96-5.84-58.38-4.3-77.12-4.3c-1.54,0-5.84-0.31-13.21-0.92c-7.07-0.31-11.98-0.61-14.13-0.61h-55.31c0,0-5.22,0.61-15.67,1.23
		c-26.12,1.54-44.86,7.37-56.23,17.82c-3.38,7.37-5.23,15.36-5.23,23.97c0,9.22,2.46,22.12,7.37,38.1
		c5.53,17.21,7.99,30.11,7.99,38.71c-1.23,63.3-1.84,94.64-3.38,157.01c-1.54,67.6-2.15,118.3-2.15,152.4
		c0,26.12,7.99,39.94,24.27,41.79c8.3,0.92,27.35-1.23,56.84-6.45c53.15-9.22,88.49-15.36,106.31-18.74
		c1.84-0.31,3.38-0.61,4.91-0.92c1.84-0.31,2.77-0.31,4.61-0.61c11.37-2.15,21.81-6.15,31.34-12.29
		c9.83-16.9,14.75-43.63,14.75-80.5c0-3.07,0.31-9.52,1.23-19.66c0.62-9.83,0.92-16.29,0.92-19.36c0-4.61-0.62-9.83-1.54-15.06
		c-1.23-5.22-3.69-10.45-7.37-15.67c-3.99-4.92-7.37-7.07-10.75-6.76c-4.3,0.61-18.13,7.07-41.48,20.28
		c-23.66,13.21-41.17,20.89-52.85,22.43c-9.22,1.23-15.67,0.61-19.36-2.46c-5.84-4.61-8.6-14.13-8.6-28.58
		c0-23.35,3.69-35.33,11.37-35.95c6.45,2.46,14.75,6.15,24.89,10.14c16.28,6.45,30.11,8.91,41.48,7.37
		c5.53-0.61,10.45-4.92,14.75-12.9c3.99-6.76,6.14-12.91,7.07-18.75v-8.29c0-5.84,0.31-15.06,0.92-27.04
		c0.92-11.98,1.23-20.89,1.23-27.04c0-11.68-1.23-19.66-3.38-23.35c-3.69-6.45-10.75-9.22-20.89-8.6
		c-6.76,0.61-17.52,4.61-32.88,12.29c-15.36,7.99-26.12,11.98-31.65,12.6c-3.07,0-5.84-0.61-8.91-2.76c-2.77-10.14-4-18.74-4-25.81
		C1056.83,334.88,1063.9,325.35,1077.72,321.05z M1507.89,213.2c-31.34,0-56.54,3.38-75.59,10.45
		c-11.98,4.3-18.13,11.98-18.13,23.04c0,3.69,0.62,7.68,2.15,11.98c3.07,8.3,4.61,17.21,4.61,27.35c0,23.35-2.77,55-8.6,95.87
		c-1.84,14.13-2.77,21.51-4.3,35.64c-0.92,5.84-1.54,9.22-1.84,9.83c-1.54,8.6-5.23,13.21-10.75,13.83
		c-4.92,0.61-9.22-10.14-11.37-30.42c-6.45-59-9.22-100.78-10.75-123.52c-2.15-31.65-4.61-51.62-6.76-59.3
		c-3.38-11.06-12.9-16.59-27.96-16.59c-2.15,0-9.22,0.31-20.59,1.54c-28.58,2.46-46.7,4.61-54.38,6.76
		c-23.97,5.84-35.64,15.98-35.64,30.11c0,7.99,6.15,19.05,12.29,31.65c4.91,9.83,6.76,19.36,7.37,23.97
		c8.29,50.08,14.13,84.5,17.51,103.55c17.21,108.46,27.35,171.45,30.72,187.74c3.38,16.28,10.45,25.5,21.2,27.35
		c8.6,1.54,29.5-0.31,62.37-5.22c32.57-4.91,54.69-11.68,66.06-20.89c7.37-6.14,12.6-15.06,15.67-28.27
		c17.52-74.05,26.42-109.69,43.94-178.82c21.82-87.57,32.88-138.57,32.88-158.55C1538,219.35,1527.86,213.2,1507.89,213.2z
		 M1699.62,302c1.84,0.31,10.14,0.61,24.89,0.92c9.22,0,21.51,3.69,36.87,10.75c15.06,7.07,26.12,10.75,32.87,11.06
		c18.13,0.31,27.04-11.67,27.04-36.26c0-10.45-0.61-19.36-2.15-26.73c-0.92-4.91-1.85-8.29-1.85-10.14
		c-1.54-20.9-7.06-33.49-14.75-35.03c-28.58-5.53-58.07-3.99-77.12-3.99c-1.54,0-5.84,0-13.21-0.61
		c-7.06-0.61-11.68-0.61-14.13-0.61h-55.31c0,0-5.22,0.31-15.67,0.92c-26.12,1.23-44.86,5.53-56.23,13.52
		c-3.38,5.53-5.22,11.68-5.22,18.13c0,7.37,2.46,17.21,7.68,29.8c5.22,13.52,7.68,23.66,7.68,30.42
		c-1.23,49.78-1.85,75.28-3.38,126.59c-1.54,55.92-2.15,98.94-2.15,128.74c0,22.43,7.99,35.64,24.27,39.33
		c8.29,1.84,27.35,2.46,56.84,2.76c53.15,0.31,88.49,2.15,106.31,3.07c1.84,0,3.69,0,5.22,0.31h4.3
		c11.37,0.92,21.81-0.62,31.34-3.99c9.83-13.21,14.75-36.87,14.75-70.67c0-2.46,0.31-8.6,1.23-17.51
		c0.61-8.91,0.92-14.75,0.92-17.51c0-4.3-0.31-9.22-1.54-14.13c-1.23-5.22-3.69-10.45-7.37-15.67c-3.69-5.22-7.37-7.99-10.75-7.99
		c-4.3-0.31-18.13,3.38-41.48,11.37c-23.66,7.99-41.17,11.98-52.85,11.68c-9.22-0.31-15.67-1.84-19.36-4.91
		c-5.53-4.61-8.6-13.52-8.6-25.81c0-19.97,4-29.5,11.37-29.5c6.45,3.07,14.75,7.07,25.19,11.98c16.29,7.68,30.11,11.68,41.48,12.29
		c5.22,0,10.14-3.07,14.75-9.52c3.69-5.22,5.84-10.45,6.76-15.67V412c0-5.22,0.31-13.21,1.23-23.66
		c0.62-10.75,0.92-18.74,0.92-23.97c0-10.45-0.92-17.51-3.38-21.2c-3.68-5.84-10.44-8.91-20.58-9.22
		c-6.76-0.31-17.82,2.46-33.18,7.68c-15.36,5.53-25.81,7.99-31.65,7.99c-2.77,0-5.84-1.23-8.91-3.07c-2.46-8.6-4-15.98-4-21.82
		C1678.72,312.14,1685.79,304.77,1699.62,302z M2136.54,549.96c0,30.42-4.92,54.38-15.36,71.9c-13.52,22.74-34.11,30.42-61.15,23.96
		c-9.52-2.15-17.2-5.53-23.35-9.83c-19.05-13.82-31.95-32.88-37.48-56.84c-3.38-13.83-7.68-35.03-14.14-62.68
		c-0.31-0.62-2.46-4-6.45-11.06c-2.45-4.61-5.53-7.07-8.91-7.37c-5.53-0.61-8.6,3.69-10.45,12.9c-0.62,3.99-0.92,9.83-0.92,17.51
		c0,6.45,0.61,15.67,1.54,28.27c1.23,12.6,1.84,22.12,1.84,28.27c0,8.91-0.61,15.67-1.84,20.28c-2.15,8.6-16.59,11.06-43.02,7.38
		c-2.46-0.31-7.99-0.61-17.51-1.23c-9.22-0.61-15.06-0.92-17.82-1.23c-15.06-1.54-23.35-7.07-24.89-16.9
		c-0.31-0.62-0.62-12.6-0.62-35.34c0-27.96,0.92-70.06,2.46-125.06c1.84-55.31,2.77-96.48,2.77-123.52c0-4.92-2.15-13.21-6.76-24.27
		c-4.3-11.37-6.45-19.97-6.45-25.81c0-7.37,3.38-13.52,9.83-19.05c9.22-7.99,22.12-14.13,38.41-18.13
		c4.3-0.92,19.05-3.07,44.55-6.76c2.46-0.31,3.69-0.61,6.14-0.92c4.61-0.92,8.91-1.84,12.91-2.15c14.13-1.54,23.97-0.92,26.12-0.92
		c5.84,0,15.97,0.92,30.72,3.07c35.95,5.22,64.22,17.51,84.19,36.87c21.81,21.2,32.88,49.78,32.88,84.19
		c0,31.03-8.3,57.77-24.27,79.89c-4.91,6.76-14.75,15.36-29.19,24.89c-8.6,6.14-12.91,11.06-12.91,14.75
		c0,6.45,3.38,12.9,10.14,19.05c6.76,6.14,14.13,9.83,21.51,11.06c1.54,0.31,3.99,0.31,7.07,0c3.38-0.31,5.84-0.62,7.07-0.31
		c8.6,1.54,14.75,10.75,18.74,28.27C2135,525.99,2136.54,538.28,2136.54,549.96z M2020.09,357.92c0-20.59-9.83-31.65-30.11-32.57
		c-4.3-0.31-7.38-0.31-8.29,0c-9.83,2.15-15.06,11.98-15.06,29.81v13.82c0,8.6,9.22,13.83,27.34,15.36
		c7.99,0.62,14.44-1.54,19.05-6.76C2017.94,372.67,2020.09,365.91,2020.09,357.92z"/>
	<path d="M896.75,967.52c-9.83-69.75-8.3-143.8-19.36-185.59c-2.77-10.75-20.28-16.59-42.71-13.21c-14.13,3.69-21.51,5.22-35.64,8.6
		c-40.25,9.83-73.44,21.51-99.55,38.41c-6.46,3.99-9.83,6.45-10.76,7.37c-5.53,5.84-8.6,13.83-8.6,23.35
		c0,6.45,2.15,15.98,6.14,28.27c3.99,11.98,5.84,21.51,5.84,27.65c0,22.74-4.3,55.31-12.9,98.02c-8.6,39.94-12.6,58.69-21.2,95.86
		c-11.37,50.7-17.82,82.04-19.66,95.86c-2.46,16.9-4,26.73-4,29.5c-0.61,7.38,2.77,13.52,8.3,16.59c5.22,3.38,16.29,4.3,33.18,3.38
		c15.67-0.92,31.65-3.69,47.62-8.91c4-2.15,6.15-3.38,10.14-5.53c4.3-1.85,7.07-3.69,8.6-5.53c1.54-9.83,3.38-19.66,5.23-29.8
		c3.69-20.59,6.76-33.8,8.91-39.02c14.44-4.3,23.04-6.76,25.5-7.37c7.99-1.23,17.82-0.31,19.97,2.46
		c2.77,3.38,3.38,18.74,4.61,34.41c0.92,13.83,3.07,25.2,6.15,33.8c12.29,5.84,27.96,7.07,47.62,3.69
		c18.74-3.07,35.95-8.91,51.93-17.21c10.45-5.53,15.67-12.6,15.67-21.2c0-1.23-1.54-13.82-4.92-37.18
		C912.42,1074.45,907.19,1039.42,896.75,967.52z M793.2,1015.76c-4.92,4.61-9.83,7.07-14.75,7.99c-8.29,1.23-12.29-3.38-12.29-14.13
		c0-16.9,6.14-47.32,19.05-92.79c2.46,0.92,3.69,1.54,5.84,2.46c-0.31,2.46-0.62,6.14-0.62,11.37c0,7.07,0.92,17.82,2.15,32.26
		c1.54,14.13,2.46,24.58,2.46,31.95C795.04,1001.94,794.43,1009,793.2,1015.76z M1251.02,710.96c0.62,4.3,0.62,12.6,0.62,24.89
		c0,17.82-0.92,40.25-2.15,67.91c-1.54,29.5-2.76,52.54-3.07,68.83c0,17.21-0.31,49.16-0.92,95.25c-0.92,42.09-1.54,63.29-2.46,106
		c0,38.41-5.84,61.45-18.13,68.83c-15.06,8.91-37.49,16.28-67.6,21.82c-13.21,2.77-24.58,3.69-34.11,3.07
		c-5.22,0-9.83-6.45-13.52-19.67c-5.84-19.05-8.6-28.57-14.13-47.62c-5.84-19.36-16.59-52.85-32.57-100.17
		c-0.61-2.15-2.45-4.3-5.53-6.76c-2.77,6.15-4,13.83-4,23.05c0,2.77,0.31,8.91,1.23,18.74c0.61,9.83,0.92,16.28,0.92,19.36v10.75
		c-0.31,3.07-0.31,6.45-0.31,10.45c0,8.91,0.92,22.43,2.77,39.95c1.84,17.51,2.77,30.73,2.77,39.94c0,3.38-1.54,7.68-4.91,13.52
		c-3.07,5.84-6.15,9.52-9.22,11.06c-9.52,5.53-23.66,10.14-42.71,13.83c-11.06,2.15-19.97,2.46-26.73,0.92
		c-8.6,2.77-13.83-2.15-15.67-14.44c0.31,0,0.31-9.52,0.31-29.19c0-32.57,1.54-81.12,4.61-147.18
		c3.07-65.75,4.61-116.14,4.61-149.63c0-7.07-2.46-17.21-7.07-30.73c-4.92-13.52-7.07-24.27-7.07-32.26c0-5.53,0.92-11.37,3.38-16.9
		c9.52-9.53,21.51-17.51,36.26-23.97c13.52-6.14,38.72-15.67,71.59-23.35c15.67-3.69,27.65-1.23,32.88,5.53
		c3.38,4.91,8.29,20.59,14.75,47.01c2.46,11.68,5.84,29.19,11.37,51.93c5.22,20.9,12.9,43.63,22.12,67.6
		c1.84,0.61,3.99,0.92,5.84,0.31c1.54-0.31,2.46-0.62,2.77-0.92c2.15-11.98,3.38-23.04,3.38-33.49c0-7.99-0.61-16.9-1.54-26.42
		c-5.53-44.24-7.99-74.36-7.99-90.33c0-15.36,5.53-25.81,16.29-31.03c18.74-9.52,39.94-16.59,64.22-20.89
		c0.92-0.31,2.46,0,4.61,0.31C1245.49,698.06,1250.4,702.97,1251.02,710.96z M1527.55,711.88c-5.22-7.99-9.22-13.52-12.29-16.9
		c-22.74-23.97-61.15-35.03-114.91-26.73c-31.04,4.61-60.84,14.44-89.72,29.8c-8.91,4.91-13.83,7.37-14.75,7.99
		c-10.14,7.99-15.36,16.59-15.36,25.81c0,7.38,3.07,17.21,8.91,29.5c5.84,12.29,8.91,21.82,8.91,28.88c0,1.23,0.31,4.3,0.31,9.53
		c0.31,4.61,0,8.91,0,12.6c-0.62,46.09-0.92,68.83-1.54,115.84c-0.92,37.18-1.23,68.52-1.23,94.02c0,16.59,0.62,36.26,1.23,58.69
		c0.31,16.59,0.61,25.19,1.23,25.5c2.76,15.98,11.98,24.28,26.73,24.58c10.45,0.31,25.81-1.54,45.78-4.61
		c29.5-4.91,56.54-12.6,80.81-19.66c39.33-11.68,68.83-43.63,88.49-95.86c4.3-11.68,7.37-22.43,9.22-32.57
		c0.92-5.84,2.77-16.9,4.3-32.26c4.92-41.17,7.07-74.05,7.07-97.71C1560.73,790.54,1549.67,745.37,1527.55,711.88z M1426.46,956.46
		c-2.77,0.31-10.45,1.54-15.67-0.31c-2.77-1.23-5.23-4.92-5.84-7.38c-1.23-6.14-1.23-25.19-1.23-54.69c0-59.3,3.07-90.03,8.6-94.33
		c3.99-2.77,7.37-4.61,10.75-5.22c9.52-1.23,16.28,3.07,20.59,13.21c8.91,22.12,13.52,46.09,13.52,71.59
		C1457.19,927.27,1447.05,953.39,1426.46,956.46z"/>
	<path d="M371.33,1486.48c-9.83-62.99-9.52-129.35-19.36-166.23c-2.77-10.75-20.28-19.66-42.71-22.12
		c-14.13-0.92-21.2-1.23-35.64-2.15c-40.25-2.46-73.13-0.61-99.24,7.68c-6.45,1.84-10.14,3.07-11.06,3.69
		c-5.53,3.99-8.3,10.14-8.3,19.05c0,5.84,1.84,14.75,5.84,26.73c4,11.98,5.84,20.89,5.84,26.73c0,20.59-4.3,49.16-12.9,86.65
		c-8.3,35.03-12.6,52.54-20.89,88.18c-11.37,48.86-18.13,81.12-19.97,95.25c-2.46,17.21-3.69,27.35-3.99,30.11
		c-0.61,7.99,2.77,14.44,8.3,18.13c5.53,3.38,16.59,5.23,33.18,5.23c15.98,0,31.65-2.15,47.63-5.84c3.99-1.84,6.14-2.77,10.14-4.61
		c4.3-1.54,7.07-3.07,8.6-4.61c1.54-9.22,3.38-18.74,5.22-27.96c3.69-19.05,6.76-31.03,8.91-35.95c14.44-1.54,23.04-2.15,25.81-2.15
		c7.68,0.31,17.21,2.46,19.67,5.84c2.76,3.69,3.38,17.82,4.61,32.57c1.23,12.9,3.38,23.66,6.15,31.95
		c12.29,7.07,28.27,10.76,47.93,10.76c18.43,0,35.64-2.46,51.62-7.38c10.45-3.07,15.98-8.6,15.98-15.98
		c0-1.23-1.84-12.29-5.22-33.49C387.01,1583.58,381.78,1551.62,371.33,1486.48z M267.79,1505.84c-4.91,3.07-9.83,4.3-14.75,3.99
		c-8.3-0.61-12.29-5.84-12.29-15.67c0-15.06,6.45-41.48,19.36-78.96c2.15,1.54,3.38,2.46,5.53,3.99c-0.31,1.84-0.61,5.22-0.61,9.53
		c0,6.76,0.92,16.59,2.46,29.49c1.54,12.9,2.15,22.74,2.15,29.19C269.63,1494.16,269.02,1500.31,267.79,1505.84z M557.84,1434.25
		c-3.38,45.17-5.22,78.35-5.22,100.17v10.44c-7.99-5.84-17.82-9.22-27.65-9.22c-37.18,0-58.38,32.57-65.14,43.32
		c-7.99,12.29-15.67,27.04-22.12,43.02c0.31-12.29,0.62-25.2,1.23-39.02c1.54-51.62,2.46-77.74,4-130.58
		c0.31-12.6,0.61-26.12,0.61-40.56c0-1.23-0.61-5.22-1.84-11.98c-3.38-22.12-7.37-40.25-12.29-54.69c-0.92-2.15-1.23-3.99-1.23-6.14
		c0-7.37,3.38-12.6,10.14-15.36c21.51-8.6,48.24-12.29,80.19-11.98c11.37,0.31,21.2,0.92,30.11,2.46c3.38,2.15,4.92,3.38,8.6,5.53
		c2.15,3.69,5.22,8.6,6.14,12.29C567.06,1349.75,561.53,1389.39,557.84,1434.25z M648.48,1572.52c5.84,15.36,3.38,39.64,3.38,53.77
		c0,32.26-3.07,53.46-8.91,63.91c-3.07,5.53-12.91,9.83-27.35,10.45c-6.14,0-15.06,0.31-25.5,0.92c-12.91,0.62-21.51,0.62-25.5,0.92
		c-2.77,0-5.53,0-8.3,0.31c3.68-10.45,6.76-19.97,9.22-27.96c7.99-27.65,11.68-53.46,11.37-73.43c0-8.6-0.92-15.98-2.76-22.74
		c6.14-0.31,15.06-3.38,27.35-8.91c12.9-6.14,21.81-9.22,27.04-9.22C636.19,1560.53,646.02,1565.45,648.48,1572.52z
		 M1133.64,1267.71c0,3.38-0.31,6.14-0.61,8.6c-11.06,66.67-16.29,99.55-27.35,165.3c-6.15,39.94-17.52,111.54-34.72,211.7
		c-0.92,6.14-2.46,13.21-4.3,21.51c-0.61,1.84-2.46,4.92-6.45,8.91c-11.68,13.21-33.8,19.66-66.37,19.66H966.5
		c-14.75,0-24.27-4-28.27-11.98c-9.52-18.74-18.13-57.46-26.12-117.07c-0.92-7.07-2.77-20.59-6.45-41.17
		c-0.61-1.84-1.54-2.76-2.15-2.46c-4.61,0.31-9.22,12.6-12.9,35.95c-5.53,32.57-10.75,65.14-16.59,96.17
		c-3.38,16.9-10.45,27.65-21.2,31.95c-4,1.84-19.05,4-44.55,6.45c-2.77,0.31-7.68,1.23-15.06,2.15h-23.04
		c-20.28,0-31.96-5.23-35.33-15.67c-1.84-5.84-7.37-55.61-16.59-155.47c-1.23-20.28-3.38-50.7-7.37-90.95
		c-3.07-32.26-11.37-62.68-24.28-89.72c-1.23-2.46-1.84-4.61-1.84-6.76c0-12.29,13.52-22.43,40.25-30.73
		c19.36-5.84,38.41-10.14,57.15-12.9c8.6-1.23,16.28-2.77,19.66-2.15c0.92,0.31,4,2.15,8.91,4.92c2.45,1.54,5.22,4.91,5.84,8.91
		c3.07,15.36,3.07,68.83,6.76,148.71v24.89c0.62,10.14,3.69,14.75,9.83,14.44c3.38-0.61,6.76-10.45,9.53-29.5
		c1.84-11.37,8.3-47.01,19.97-109.38c1.84-9.22,4.61-24.89,9.22-46.09c2.15-11.68,14.75-21.2,36.26-28.58
		c7.99-1.54,20.28-5.84,34.72-8.3c5.84-1.23,14.75,0,25.5,2.15c4.61,3.07,7.37,10.76,8.6,23.35c2.46,26.73,7.99,74.36,16.29,142.57
		c2.46,15.98,3.38,24.27,3.38,24.58c0,9.22,2.46,13.52,7.37,12.9c0.31,0,0.92-0.31,1.23-0.61c0.31-0.61,0.62-0.61,1.23-0.61
		c3.69-2.46,6.76-13.83,9.53-34.72c0.31-4.91,0.92-13.21,1.84-24.89c2.77-38.1,4.3-60.22,4.3-65.45c0-6.76-1.23-16.28-4-29.19
		c-3.07-12.6-4.3-22.12-4.3-28.88c0-9.22,7.07-18.43,21.82-27.96c14.44-9.53,33.49-16.29,56.53-20.28
		c13.52-2.46,22.74-3.38,27.04-2.46C1128.73,1251.12,1133.64,1257.27,1133.64,1267.71z M1433.53,1417.04
		c-9.83-78.05-8.29-155.78-19.36-199.41c-2.76-11.06-20.28-17.82-42.71-14.44c-14.13,3.38-21.51,5.22-35.64,8.6
		c-40.25,9.83-73.44,24.27-99.55,43.32c-6.45,4.61-9.83,7.07-10.75,7.99c-5.53,6.45-8.6,14.44-8.6,23.66
		c0,6.45,2.15,15.36,6.15,27.04c4,11.98,5.84,20.89,5.84,27.35c0,22.43-4.3,55.31-12.91,98.63c-8.6,40.56-12.6,60.84-21.2,101.09
		c-11.37,55-17.82,89.72-19.66,105.08c-2.46,18.44-4,29.5-4,32.57c-0.61,8.6,2.77,15.36,8.3,19.05c5.22,3.99,16.29,5.84,33.18,5.84
		c15.67,0,31.65-2.15,47.63-6.76c3.99-2.46,6.14-3.38,10.14-5.84c4.3-1.54,7.07-3.38,8.6-5.53c1.54-11.37,3.07-22.43,5.23-33.49
		c3.68-23.35,6.76-38.1,8.91-43.94c14.44-3.07,23.04-4.61,25.5-4.92c7.99-0.31,17.51,1.84,19.97,5.53
		c3.07,4.61,3.38,21.82,4.61,40.56c0.92,16.28,3.07,30.11,6.15,40.87c12.29,8.91,27.96,13.52,47.63,13.52
		c18.74,0,35.95-3.38,51.93-10.14c10.45-4.3,15.67-11.68,15.67-22.12c0-1.84-1.54-17.21-4.91-45.78
		C1449.2,1539.95,1443.98,1498.16,1433.53,1417.04z M1329.98,1459.75c-4.91,4.61-9.83,7.07-14.75,7.68
		c-8.3,0.61-12.29-4.61-12.29-15.98c0-18.13,6.14-50.39,19.05-97.4c2.46,1.23,3.38,1.84,5.84,3.07c-0.31,2.46-0.61,6.14-0.61,11.68
		c0,7.68,0.61,19.05,2.15,34.11c1.54,15.06,2.46,26.73,2.46,34.41C1331.83,1445.31,1331.21,1452.68,1329.98,1459.75z
		 M1799.78,1217.33c0,9.83-4.92,28.88-14.75,57.76c-0.61,2.46-2.15,7.37-4.61,14.44c-0.31,0.92-7.68,18.43-22.12,52.85
		c-14.44,34.1-30.11,71.59-47.01,112.76c-9.22,21.81-13.83,47.62-13.83,77.74c0,12.6,0.92,31.65,3.07,57.15
		c1.84,25.5,2.77,44.55,2.77,57.46c0,10.75-0.31,17.51-0.62,20.59c-1.84,13.83-8.6,23.04-20.59,27.96
		c-6.45,2.46-17.51,3.99-33.49,3.99c-5.22,0-13.21,0.61-23.66,1.54c-10.76,1.23-18.75,1.85-23.97,1.85
		c-14.44,0-26.12-6.15-28.88-14.75c-4.61-13.83-4-27.65-4-31.65c0-3.07,1.23-14.75,4-34.41c1.84-14.75,2.77-28.27,2.77-41.17v-46.09
		c0-39.64-4-72.82-11.98-99.55c-3.38-10.14-9.22-28.57-16.9-54.38c-5.84-19.67-11.68-39.94-17.82-59.92
		c-6.76-23.05-15.06-41.79-23.66-55.92c-6.45-10.45-9.83-19.36-9.83-26.43c0-4.61,1.54-8.91,4.61-13.83
		c4.61-7.07,21.51-15.98,50.7-26.12c24.89-8.6,43.63-12.9,56.23-13.21c10.45,0,15.67,7.37,18.75,12.9
		c2.45,4.61,10.75,29.81,17.51,74.66c6.45,41.48,11.98,62.68,16.9,62.68c5.53,0,10.14-10.45,14.44-31.03
		c3.69-18.13,5.53-31.34,5.53-39.94c0-10.76-3.38-22.74-4.61-31.65c-1.84-16.9,23.66-33.49,66.98-37.48
		c12.9-1.23,23.04-1.54,30.42-1.23C1790.56,1196.12,1799.78,1203.5,1799.78,1217.33z M2087.07,1556.23
		c0,21.51-3.69,42.09-11.37,62.68c-8.3,22.74-19.66,40.56-34.41,53.16c-23.97,20.28-65.76,31.34-125.36,31.34
		c0-0.31-0.31-0.31-1.23-0.31c-1.23-0.31-3.38-0.61-6.45-0.92c-8.91-1.23-22.74-1.84-40.25-3.38c-15.06-1.23-26.12-9.22-32.57-23.35
		c-0.92-15.06-2.46-31.34-4.3-48.55c-2.15-19.66-3.38-35.64-3.38-47.93c0-22.12,3.69-42.4,11.37-61.45
		c5.22-4.92,11.68-7.07,19.05-6.76c4.92,0.31,16.9,8.6,35.33,24.89c18.43,16.28,33.8,24.58,45.47,25.19c3.07,0.31,5.22,0,6.14-0.31
		c5.84-3.38,8.6-10.45,8.6-20.59c0-12.6-10.14-28.88-30.72-49.47c-30.73-30.73-49.78-51.93-57.46-62.99
		c-20.28-29.5-30.42-60.84-30.42-93.71c0-30.73,6.45-55.31,19.05-73.74c20.89-29.5,50.7-46.09,89.41-49.47
		c10.45-0.61,17.21-0.92,20.28-0.31c1.84,0.31,6.14,1.23,12.9,2.77c6.46,1.54,10.76,2.46,12.29,2.76
		c32.57,5.84,53.77,11.98,63.91,16.59c15.36,13.83,22.74,38.1,22.74,72.51c0,18.13-1.54,33.8-4.3,47.32
		c-3.38,15.06-10.45,21.82-21.2,19.97c-8.6-1.54-21.2-9.22-38.1-23.35c-16.59-14.13-28.58-21.81-36.26-22.74
		c-5.53-0.92-11.06,0-16.59,2.46c-1.23,3.38-2.15,6.76-2.15,11.06c0,11.06,11.06,28.58,33.49,52.23
		c35.34,37.48,56.23,60.53,62.99,70.67C2076.01,1494.47,2087.07,1525.5,2087.07,1556.23z"/>
	<path d="M2078.08,1792.48c-2.01,0-4.03,1.01-5.55,2.02c-53.98,45.4-151.84,69.62-222.46,79.2c-9.58,1.51-18.67,2.02-27.24,3.03
		c2.53-4.04,2.53-9.59,1.01-13.62c-1.51-4.54-4.04-7.57-7.06-10.59c-12.1-13.12-32.29-27.75-39.34-43.89
		c-4.54-10.09-4.54-16.14-2.53-20.68c2.02-4.54,6.05-8.07,11.6-11.1c10.59-5.55,24.72-7.06,24.72-7.06c4.54-0.5,8.57-4.04,8.57-8.57
		c0-5.05-4.03-9.08-9.08-9.08h-0.51c0,0-17.15,1.01-32.29,9.08c-7.57,4.04-15.64,10.09-19.67,19.67c-1.64,3.9-2.49,8.32-2.56,13.06
		c-0.35,0.18-0.7,0.37-0.99,0.56c-52.46,42.38-103.41,41.87-155.87,44.39c-18.67,1.01-37.33,3.03-56,7.06
		c1.51-40.36-2.01-74.15-2.01-74.15c-0.51-4.54-4.54-8.07-9.08-8.07h-0.5c-3.53,0-7.06,3.03-8.08,6.05
		c-1.01,2.52-5.55,10.59-12.1,20.18s-14.63,20.18-23.71,30.77c-9.08,10.59-18.67,20.18-27.24,27.24
		c-8.58,7.06-16.65,10.09-18.67,10.09c-5.05,0-8.58-1.52-11.1-3.53c-2.52-2.02-3.53-4.04-4.54-8.07
		c-1.51-8.07,0.5-21.69,10.59-40.36c0.51-1.01,1.01-3.03,1.01-4.54c0-5.05-4.04-9.08-9.08-9.08c-0.23,0-0.46,0.11-0.69,0.13
		c-0.44-0.06-0.88-0.13-1.34-0.13c-1.51,0-4.04,1.01-5.55,2.02c-29.76,22.2-91.81,54.48-143.26,61.04
		c-25.73,3.53-47.42,0-62.55-11.1c-15.14-11.1-24.72-31.28-23.21-68.61c0-5.04-4.03-9.08-9.08-9.08c-3.53,0-7.57,2.52-8.58,5.55
		c-1.01,2.52-4.54,9.08-9.08,17.15c-4.54-3.03-11.1-7.06-19.67-9.58c-15.56-4.86-37.2-4.52-55.91,12.67
		c-1.37,0.08-2.72,0.49-3.64,0.95c-59.53,31.78-114.51,33.29-155.87,23.2c-20.68-5.05-38.34-13.12-50.95-21.19
		c-12.61-8.07-20.68-17.15-22.7-21.69c-1.51-2.52-5.04-5.05-8.07-5.05c-4.03,0-8.07,3.03-9.08,7.06c0,0-5.05,21.69-12.1,43.39
		c-3.53,11.1-8.07,21.69-12.11,29.26c-2.02,3.53-4.03,6.56-5.55,8.07c-1.01,1.01-2.02,1.52-2.02,1.52c-3.03,0-5.55-2.02-9.08-6.56
		c-3.53-5.05-6.56-12.61-9.08-20.18c-4.54-15.14-6.56-30.77-6.56-30.77c-0.51-4.54-4.54-8.07-9.08-8.07c-3.53,0-7.57,2.52-8.58,6.05
		c0,0-5.55,15.64-14.12,31.28c-4.54,7.57-9.58,15.64-14.63,20.68c-5.05,5.05-9.58,7.57-13.12,7.57c-0.51,0-3.53-1.52-7.06-6.56
		c-3.53-5.05-6.56-12.61-9.58-20.18c-5.55-15.64-8.57-31.28-8.57-31.28c-0.51-4.03-5.05-7.57-9.08-7.57c-0.26,0-0.5,0.06-0.76,0.08
		c-0.26-0.02-0.5-0.08-0.77-0.08c-1.51,0-4.04,0.5-5.05,1.51c-28.25,18.67-86.26,46.41-136.71,58.52
		c-25.23,6.05-48.43,8.57-64.57,4.54c-16.14-4.04-25.73-11.6-28.25-29.76c-1.01-7.06-1.51-14.63-2.02-22.2
		c43.39-34.81,71.13-90.8,85.26-138.73c7.06-24.72,10.59-47.42,10.09-65.07c0-8.58-1.01-16.14-4.03-22.7
		c-3.03-6.56-9.58-12.11-17.15-12.11c-16.14,0-28.25,12.11-39.35,29.26c-11.1,17.15-21.69,39.85-30.27,66.08
		c-13.11,40.29-22.38,88.02-22.62,131.57c-0.78,0.33-1.53,0.71-2.12,1.1c-29.76,22.2-91.81,54.48-143.26,61.04
		c-25.73,3.53-47.42,0-62.55-11.1c-15.14-11.1-24.72-31.28-23.21-68.61c0-5.04-4.03-9.08-9.08-9.08c-3.53,0-7.57,2.52-8.58,5.55
		c-1.01,2.52-4.54,9.08-9.08,17.15c-4.54-3.03-11.1-7.06-19.67-9.58c-16.14-5.05-38.84-4.54-58.01,14.63
		c-15.64,15.64-22.19,35.31-20.18,51.96c1.01,8.57,4.04,16.14,9.59,22.2c5.55,6.05,13.11,9.58,22.19,10.09
		c11.1,0.5,20.68-6.05,29.76-14.13c9.08-8.07,18.67-18.16,27.24-29.26c7.57-9.58,14.12-19.17,19.67-28.25
		c4.04,23.71,13.62,40.86,28.25,51.96c20.18,15.64,47.92,17.66,76.17,14.13c52.46-7.03,109.65-35.78,143.82-59.24
		c0.37,5.43,0.81,10.87,1.48,15.86c3.53,24.21,20.18,39.35,41.37,44.39c21.18,5.04,46.91,2.52,73.65-4.04
		c48.49-11.89,100.64-36.21,132.9-55.32c1.63,6.21,3.95,14.3,6.85,22.52c3.03,8.58,6.56,17.15,11.6,24.21
		c5.05,7.06,11.6,14.13,21.69,14.13c10.59,0,18.66-5.55,25.73-12.61c7.06-7.06,12.61-15.64,17.66-24.21
		c1.51-2.52,3.03-5.04,4.04-7.57c0.5,2.02,1.01,3.53,1.51,5.55c2.52,8.57,6.05,17.66,11.6,25.22c5.55,7.57,13.62,13.62,24.21,13.62
		c6.06,0,10.09-2.52,13.62-6.05c3.53-3.53,6.56-7.57,9.08-12.11c5.05-9.08,9.58-20.68,13.62-32.29c3.53-10.09,6.05-19.67,8.07-27.74
		c4.54,4.54,10.59,9.08,17.15,13.11c14.63,9.08,33.8,17.66,56.5,23.21c39.76,9.72,89.97,9.76,144.53-13.08
		c-3.15,8.74-4.25,17.58-3.26,25.69c1.01,8.57,4.04,16.14,9.59,22.2c5.55,6.05,13.11,9.58,22.19,10.09
		c11.1,0.5,20.68-6.05,29.76-14.13c9.08-8.07,18.67-18.16,27.25-29.26c7.57-9.58,14.12-19.17,19.67-28.25
		c4.04,23.71,13.62,40.86,28.25,51.96c20.18,15.64,47.92,17.66,76.17,14.13c45.95-6.15,95.56-28.99,130.13-50.33
		c-2.91,10.16-3.69,19.39-1.99,27.63c1.51,7.57,5.05,13.62,11.1,18.16c6.05,4.54,13.62,6.56,21.69,7.06
		c11.1,0.5,20.18-5.55,30.27-13.62c10.09-8.07,20.18-18.16,29.76-29.26c9.08-10.09,17.15-21.19,23.71-30.77
		c0.5,13.62,1.01,30.77,0,48.93c-27.75,9.08-54.99,25.73-80.21,57.01c-5.05,6.56-18.66,23.2-22.7,41.87
		c-2.01,9.08-1.51,20.18,6.06,28.25c7.57,8.07,20.68,11.1,37.83,10.59c25.73-1.01,43.89-17.15,54.99-38.34
		c11.1-21.19,16.65-47.92,19.67-74.15l1.51-12.11c18.66-4.54,37.84-6.05,58.01-7.06c50.07-2.43,104.83-2.65,159.76-43.73
		c0.38,0.95,0.74,1.91,1.18,2.87c10.09,22.7,33.29,38.34,42.38,48.43c1.51,1.52,2.52,2.52,3.03,3.53c-1.01,0.51-2.02,1.01-3.53,1.51
		c-4.04,1.51-10.09,2.52-18.67,3.53c-6.55,1.01-11.1,1.51-15.13,2.52c-4.04,1.01-6.05,1.01-9.58,3.03c-1.01,0.5-2.02,1.01-3.53,3.53
		s-1.01,7.06,0.51,9.58c3.03,5.04,5.05,4.04,6.56,4.54c3.03,0.5,5.55,1.01,9.08,1.01c15.14,0.5,44.39-1.01,80.71-6.05
		c72.64-10.09,172.02-32.79,231.55-82.73c2.01-1.51,3.03-4.54,3.03-7.06C2087.16,1796.51,2083.13,1792.48,2078.08,1792.48z
		 M472.34,1667.37c8.07-24.72,18.16-46.41,28.25-61.54c10.09-15.13,19.67-21.69,24.22-21.69l1.01,2.02
		c1.01,2.52,2.52,8.07,2.52,15.64c0.51,14.63-2.52,35.82-9.58,59.53c-12.1,40.86-34.81,88.28-67.6,120.06
		C452.67,1743.54,460.74,1702.18,472.34,1667.37z M151.5,1824.26c-8.07,10.59-16.64,20.68-24.71,27.24s-15.14,9.58-17.15,9.58
		c-4.54,0-7.57-2.02-10.09-4.54c-2.52-2.52-4.54-7.06-5.04-12.1c-1.01-10.59,3.03-25.22,15.13-37.33
		c9.08-9.08,17.66-12.11,25.73-12.11h1.01c4.54,0,9.08,0.5,13.12,2.02c6.55,2.02,12.1,5.05,15.64,7.57
		C160.58,1811.14,156.54,1817.7,151.5,1824.26z M1141.79,1824.26c-8.07,10.59-16.64,20.68-24.71,27.24s-15.14,9.58-17.15,9.58
		c-4.54,0-7.57-2.02-10.09-4.54c-2.52-2.52-4.54-7.06-5.04-12.1c-1.01-10.59,3.03-25.22,15.13-37.33
		c9.08-9.08,17.66-12.11,25.73-12.11h1.01c4.54,0,9.08,0.5,13.12,2.02c6.55,2.02,12.1,5.05,15.64,7.57
		C1150.87,1811.14,1146.83,1817.7,1141.79,1824.26z M1522.66,1874.2c-2.53,25.22-8.07,49.94-17.66,67.6
		c-9.58,17.66-21.69,28.25-40.36,28.75c-15.14,0.51-21.19-2.52-23.71-5.04c-2.52-2.52-3.03-5.55-1.51-11.6
		c2.53-12.11,14.63-28.25,19.17-34.3c20.69-26.23,42.38-41.36,64.57-49.94C1523.17,1871.17,1522.66,1872.68,1522.66,1874.2z"/>
</g>
</svg>
