<?xml version="1.0" encoding="utf-8"?>
<!-- Generator: Adobe Illustrator 25.0.1, SVG Export Plug-In . SVG Version: 6.00 Build 0)  -->
<svg version="1.1" id="Layer_1" xmlns="http://www.w3.org/2000/svg" xmlns:xlink="http://www.w3.org/1999/xlink" x="0px" y="0px"
	 viewBox="0 0 2400 2400" style="enable-background:new 0 0 2400 2400;" xml:space="preserve">
<g>
	<path transform="translate(0.000000,2400.000000) scale(0.100000,-0.100000)" d="M6520,22201c-97-21-159-88-245-266
		c-138-286-220-660-260-1185c-17-236-34-628-35-811v-126l-144-299c-79-164-146-308-150-319c-10-35,9-50,63-50c45,0,54,4,91,40
		c22,22,63,73,90,113l50,74v-189c1-478,33-1122,60-1200c20-57,125-82,205-49c40,17,55,42,55,90c0,45,44,284,76,411
		c82,325,232,752,381,1081c60,131,151,294,164,294c41,0,22-591-31-972c-23-163-50-505-50-633c0-218,36-411,93-497
		c31-47,98-78,168-78c102,0,160,34,204,120c24,48,158,403,215,573c18,53,36,95,38,92c3-3,15-45,28-93c37-149,96-246,182-300
		c146-93,353-81,486,30c99,81,234,318,326,568c24,63,46,119,50,123s10-36,14-90c16-230,75-498,140-636c61-127,130-177,246-177
		c72,0,131,22,167,61c12,14,38,58,57,99c55,120,254,731,381,1170c31,107,62,213,69,235l13,40l7-60c56-501,130-873,256-1290
		c85-282,119-325,260-333c63-4,85-1,124,16c62,28,79,67,146,327c155,603,321,1186,456,1596c41,124,74,233,74,242s-9,21-19,27
		c-27,14-112,12-132-3c-31-23-134-269-244-582c-62-177-283-876-336-1062c-13-46-26-83-29-83c-7,0-115,407-160,600
		c-37,160-89,436-135,715c-67,406-79,445-133,466c-45,17-159,7-182-17c-14-13-41-96-84-259c-109-406-251-853-436-1367
		c-96-267-95-264-109-213c-17,67-49,266-60,376c-27,271-34,437-35,857l-1,454l-28,24c-15,13-46,27-68,30c-30,5-43,14-54,33
		c-21,42-101,110-158,136c-165,75-400,49-570-65c-186-125-307-329-418-705c-18-61-63-189-101-285c-39-96-110-281-160-410
		c-49-129-126-327-171-440c-79-200-81-204-89-165c-18,101-3,397,42,795c82,734,69,1065-48,1175c-43,40-84,53-167,54
		c-116,1-175-38-266-176c-106-162-264-507-390-853l-24-65l-6,145c-4,80-7,286-8,459l-1,314l118,236c292,584,435,965,498,1331
		c24,138,24,374,0,480c-31,138-93,243-165,280C6668,22201,6571,22212,6520,22201z M6605,22030c68-131,63-409-11-703
		c-49-196-201-611-302-827l-30-65l-1,70c-2,164,40,630,75,840c43,262,119,517,192,645C6574,22072,6581,22076,6605,22030z
		 M8546,19935c28-14,62-37,77-52l26-28l-29-132c-114-511-346-1140-522-1415c-64-100-74-109-89-72c-6,16-20,72-32,124
		c-30,135-29,409,1,602c68,433,203,785,356,926C8417,19964,8466,19975,8546,19935z M4530,22154c-254-70-582-197-1060-409
		c-532-235-823-392-909-490c-60-68-32-125,61-125c39,0,75,14,205,79c199,99,735,353,738,349c1-2-1-75-5-163c-5-88-13-279-20-425
		c-6-146-20-409-30-585c-22-348-42-1309-39-1790l2-300l-234-143c-348-214-499-326-499-370c0-34,37-52,106-52c57,0,73,6,240,90
		c98,49,287,156,419,238c817,507,974,600,1155,685c58,27,108,55,112,61c31,46-31,82-128,73c-34-3-99-18-145-33
		c-104-35-354-157-548-269c-81-47-152-85-156-85s-5,44-1,98c18,254,56,924,66,1152c5,140,12,289,14,330c6,107-12,848-24,1020
		c-12,163-46,463-60,524c-5,23-6,44-2,48c22,21,544,247,812,350c113,43,213,87,224,97c11,12,16,26,12,38
		C4819,22201,4707,22203,4530,22154z M14506,21789c-298-70-649-630-940-1499c-82-247-163-530-210-735l-37-160l-52-48
		c-59-55-183-148-252-189c-30-18-45-34-45-48c0-48,137-66,238-31c62,21,58,31,38-120c-49-348-61-772-31-1032c27-236,97-470,179-606
		c78-128,192-227,324-279c59-23,81-26,187-26c101,0,129,3,177,23c170,67,273,263,297,563c23,284-40,685-165,1050
		c-76,222-138,340-250,480c-61,75-66,88-35,88s228,87,321,142c52,31,131,82,175,113c44,32,85,59,91,62c9,3,12-33,12-139
		c0-163,18-282,60-409c101-297,250-419,512-419c174,0,285,44,400,160c157,156,264,416,277,676l6,111l51,31c28,17,85,55,126,85
		s76,54,77,53s-9-44-22-96c-50-193-69-335-69-505c0-147,3-167,27-240c52-156,134-223,282-233c135-8,227,31,305,133
		c55,71,138,223,198,359l47,109l7-84c32-363,148-510,392-497c184,10,259,107,398,508l43,125l6-170c11-297,32-355,137-375
		c53-10,134-1,172,20c12,6,26,33,35,68c72,257,145,443,247,627c120,215,221,358,336,478c88,90,105,96,96,35c-18-134-34-197-155-603
		c-122-407-170-634-172-810c-2-136,15-197,67-250c54-54,108-69,224-63c73,3,96,9,134,31c56,33,149,133,220,237l53,77l39-33
		c61-52,135-77,251-82c154-6,267,31,400,131c61,46,75,49,75,18c0-39,51-218,80-280c35-75,77-123,135-154c35-19,56-22,155-22
		c105,1,122,3,191,31c257,103,458,337,618,716c46,109,50,133,22,148c-25,13-114,13-143-1c-14-6-42-47-73-106
		c-68-130-188-313-263-400c-72-83-171-166-255-213c-67-37-64-38-96,47c-40,104-71,344-71,552v104l92,161c210,368,330,629,438,956
		c108,325,148,548,137,757c-10,174-47,223-169,223c-71,0-130-31-180-94c-150-187-348-582-453-903c-3-9-16-7-49,8
		c-100,44-245,34-366-24c-82-40-207-162-279-272c-163-250-292-587-321-833c-8-68-17-98-50-160c-48-89-155-251-199-302l-30-35l-1,90
		c0,170,30,349,125,745c85,351,105,462,105,573s-16,151-75,185c-35,20-51,22-135,20c-112-4-151-19-250-101c-127-106-353-396-471-605
		l-54-97l-7,120c-15,265-29,425-39,453c-13,37-45,52-112,52c-74,0-92-16-120-108c-102-329-402-1002-448-1002c-23,0-65,195-79,371
		c-12,145-4,323,30,712c26,288,26,283-6,303c-38,25-112,29-152,7c-31-17-38-30-81-158c-97-285-239-617-382-895
		c-78-149-195-340-210-340c-14,0-30,66-41,168c-21,192,16,485,107,841c25,96,45,184,45,196c0,52-94,92-188,81c-72-9-94-21-192-113
		c-122-112-299-253-318-253c-6,0-12,10-16,23c-12,47-100,181-156,237c-65,65-147,112-237,135c-84,22-242,19-338-5
		c-152-39-315-152-413-285c-46-62-45-62-224-191c-266-191-440-283-616-325c-46-11-88-19-93-17c-6,2,38,44,97,93
		c208,172,484,463,655,690c392,519,588,999,549,1345c-29,253-121,352-324,349C14577,21798,14528,21794,14506,21789z M14586,21405
		c-3-108-10-161-30-232c-104-376-349-803-715-1241c-56-68-105-121-108-119c-6,7,80,322,142,517c199,628,388,1006,619,1235l70,69
		l14-44C14588,21557,14590,21507,14586,21405z M20540,20680c-20-160-95-419-195-670c-43-110-156-352-162-347c-5,6,53,293,87,427
		c66,261,132,453,223,645c49,102,52,107,55,75C20550,20791,20546,20732,20540,20680z M15239,20011c93-48,202-210,235-349l14-63
		l-46-23c-114-57-277-92-376-82c-77,8-158,47-194,94c-37,49-37,125,1,199c59,114,214,242,295,243
		C15186,20030,15218,20021,15239,20011z M19806,19988c30-34,54-75,70-120c13-38,12-51-20-202c-50-232-66-349-73-536l-6-165l-47-60
		c-100-125-287-285-334-285c-36,0-78,105-91,225c-31,294,207,944,412,1124C19770,20016,19779,20018,19806,19988z M15476,19331
		c-14-103-96-303-169-411c-73-107-162-190-203-190c-31,0-110,96-158,193c-46,92-96,263-110,375l-7,54l58-9c32-4,139-7,238-6
		c142,1,197,5,260,21c44,11,84,20,89,21C15479,19379,15480,19358,15476,19331z M13668,19077c128-148,213-334,292-642
		c117-451,128-849,31-1106c-23-61-77-149-92-149c-21,0-139,131-173,192c-173,312-226,864-151,1573c20,180,23,197,39,188
		C13621,19128,13646,19104,13668,19077z M11523,20250c-100-50-215-194-336-420c-230-427-327-1057-242-1556c40-234,112-356,234-399
		c65-23,207-20,284,6c207,69,437,254,600,481c37,51,106,171,155,266l87,174l-24,19c-26,21-118,27-151,9c-10-6-48-59-84-118
		c-201-333-425-563-649-667c-62-29-68-25-96,55c-49,140-71,330-71,614v202l88,90c174,179,307,362,396,547c111,227,150,432,111,580
		c-28,108-64,138-170,144C11592,20281,11579,20279,11523,20250z M11642,20043c-2-152-85-366-227-578c-88-132-134-188-135-163
		c0,33,69,286,106,384c73,199,223,469,246,446C11638,20126,11642,20087,11642,20043z M6050,16915c-25-8-64-30-87-50
		c-138-118-300-550-403-1074c-33-164-36-169-145-221c-101-49-264-72-593-86l-163-7l5,24c3,13,19,128,36,254c17,127,46,327,66,445
		c80,490,87,565,54,595c-42,38-167,28-190-15c-13-25-115-389-165-590c-23-96-64-281-89-410c-26-129-49-245-51-256
		c-4-20-13-22-152-28c-272-13-464-51-650-130c-320-136-475-359-238-344c54,3,70,9,102,36c150,126,331,206,563,247
		c90,16,340,32,340,22c0-3-11-75-25-159c-79-492-116-883-122-1308c-10-658,49-1013,206-1237c51-72,93-107,176-145
		c44-20,65-23,185-23c157,0,207,15,309,90c111,82,215,240,381,577l97,198l7-63c14-118,37-230,57-278c28-65,76-89,177-89
		c86,0,147,22,166,59c8,14,30,91,51,171c72,286,199,629,370,1005c140,309,454,918,493,957c4,4,6-9,4-30c-12-122-58-462-93-677
		c-118-742-131-849-131-1095c0-204,14-302,58-400c55-121,140-170,298-170c175,0,282,53,450,222c87,88,100,98,109,81
		c24-45,116-121,173-143c89-35,239-39,336-10c270,81,533,314,737,650c87,144,321,630,321,667c0,19-60,43-107,43c-82,0-95-15-235-270
		c-213-385-361-592-530-741c-124-109-288-209-322-196c-36,14-102,154-131,279l-13,59l74,116c172,270,341,656,419,963
		c91,356,68,646-59,758c-45,39-91,52-192,52c-70,0-89-4-143-31c-37-18-76-49-99-75c-171-203-325-655-378-1110c-19-161-14-499,9-622
		l14-73l-30-42c-121-168-343-407-379-407c-16,0-49,139-59,252c-19,200-1,413,96,1113c71,513,89,690,89,890c1,171,0,182-22,212
		c-33,47-95,67-187,61c-99-7-149-37-235-145c-186-233-568-949-781-1467c-38-93-59-133-62-120c-3,11-11,93-17,184l-12,165l70,190
		c202,550,399,1216,476,1610c72,369,91,747,45,910c-21,75-60,135-107,162C6218,16929,6118,16937,6050,16915z M6170,16669
		c51-316-74-943-363-1819l-55-165l-1,120c-1,144,14,400,35,585c73,659,182,1128,312,1345l36,59l13-31
		C6154,16746,6164,16703,6170,16669z M5476,15293c-26-184-36-300-46-522c-8-200,0-654,16-827l6-71l-92-218c-169-396-367-775-480-917
		c-47-58-123-128-140-128c-25,0-97,126-124,221c-91,312-112,1022-51,1734c20,223,53,557,68,670l12,90l175,7c206,9,449,38,575,70
		c66,17,91,20,93,11C5490,15406,5484,15352,5476,15293z M7994,14830c0-132-4-172-28-273c-44-191-157-497-240-652l-27-50l6,100
		c22,350,111,742,225,980c37,78,44,86,54,69C7991,14992,7995,14929,7994,14830z M19075,16671c-60-11-96-33-162-104
		c-209-223-398-744-512-1407l-30-175l-68-63c-107-100-101-103-95,54c8,215-17,307-97,361c-46,31-174,32-239,3
		c-88-40-201-189-254-336c-29-80-29-175-1-230c42-80,142-147,241-161c24-3,46-12,48-18c7-16-81-278-153-459c-63-160-208-479-261-576
		s-133-211-146-207c-6,2-21,29-33,59c-57,142-83,302-90,564c-7,231,4,390,48,699c38,273,38,280-3,305c-24,15-51,20-99,20
		c-108,0-119-11-199-220c-128-333-355-840-467-1045c-51-93-112-179-120-171c-15,15-33,156-39,301c-10,252,15,500,107,1070
		c58,358,71,503,45,524c-25,21-97,25-138,8c-31-13-39-24-62-83c-81-215-186-627-248-974c-26-152-31-206-35-410c-4-190-2-253,11-330
		c38-218,120-299,313-308c220-10,311,69,483,423c48,99,91,191,97,205c8,20,11,2,17-90c25-409,119-652,273-704c55-19,188-21,243-5
		c131,40,259,226,425,619c104,247,219,577,260,748c10,43,22,72,30,72c7,0,48,18,91,39c43,22,79,39,80,38s-2-38-6-82
		c-5-44-14-204-21-355c-12-289-2-717,19-771c15-39,84-63,162-57c77,5,108,28,136,99c99,254,128,323,195,459c122,250,248,452,429,695
		c88,117,140,178,140,163c0-3-29-97-65-209c-203-632-246-926-165-1142c44-118,139-185,277-194c180-12,283,52,445,279l56,77l6-50
		c18-136,88-271,173-334c78-57,163-78,296-73c165,7,261,52,386,181c200,205,334,528,387,928c8,68,16,124,17,125
		c205,115,346,214,462,325c105,101,245,277,245,308c0,13-11,26-30,36c-37,19-152,20-188,1c-15-8-70-58-122-111
		c-144-148-351-309-369-289c-4,5-13,50-20,99c-15,114-61,251-111,336c-75,126-172,188-313,196c-249,16-447-126-605-434
		c-74-145-104-252-107-388c-1-60-5-123-10-140c-13-49-138-314-198-422c-31-55-83-140-115-189c-61-92-199-264-212-264
		c-17,0-23,40-28,169c-7,195,22,373,138,856c78,325,85,418,40,492c-27,44-73,65-155,71c-98,6-163-20-250-100
		c-140-129-439-524-587-778c-30-50-38-59-38-40c0,131,54,853,66,871c2,3,41,56,86,117c210,279,421,697,487,963c70,280,40,512-69,533
		C19138,16676,19114,16677,19075,16671z M19116,16444c15-148-43-366-165-621c-72-147-179-338-187-330c-6,6,51,281,87,415
		c34,129,96,312,134,399c33,74,106,203,116,203C19105,16510,19112,16480,19116,16444z M18004,15070c-1-77-8-149-23-220
		c-12-57-24-106-26-109c-11-10-55,33-75,74c-18,38-22,58-18,108c6,67,53,197,95,261c23,36,26,38,37,20
		C18000,15193,18005,15139,18004,15070z M20793,15151c74-82,129-228,147-386c14-123,13-190-3-203c-42-35-443-169-473-158
		c-54,21-59,222-9,376c51,159,153,334,232,399C20729,15214,20738,15211,20793,15151z M20899,14233c-50-229-165-494-284-653
		c-39-54-155-168-191-191c-42-26-61-17-103,49c-75,117-96,246-87,526c3,111,9,216,12,234c6,31,7,32,43,25c20-5,90-8,156-8
		c126,0,222,20,390,79c39,13,73,25,77,25C20915,14320,20909,14281,20899,14233z M13135,15770c-235-91-622-703-905-1434l-58-148
		l-6,68c-12,123-26,553-26,784c0,253-13,437-32,477c-7,15-28,38-47,50c-28,19-47,23-113,23c-130,0-149-16-416-335
		c-139-167-307-345-315-334c-2,2-13,42-26,89c-58,222-169,360-330,411c-80,24-255,26-345,3c-129-33-246-118-334-243
		c-25-36-67-91-93-121c-127-149-240-378-337-680c-158-493-170-888-36-1169c47-97,150-204,243-250c193-98,458-95,640,6
		c81,45,200,161,268,263c223,333,373,853,373,1296v131l79,67c110,92,266,258,406,430c66,80,120,144,120,143c1-1-2-47-6-102
		s-13-238-19-406c-17-412,4-881,55-1226c36-240,72-283,235-283c87,0,144,26,159,72c6,18,22,111,36,206c14,96,34,220,45,275
		c102,510,401,1212,673,1579c74,100,186,220,200,211c17-10,0-216-32-388c-16-88-48-257-70-375c-100-524-144-882-145-1160
		c0-364,61-566,206-680c88-70,142-85,308-85c167,0,212,13,326,91l63,43l33-62c47-89,138-178,213-207c73-28,206-37,288-20
		c118,24,189,71,348,229c325,324,613,757,723,1089c41,123,44,147,16,162c-33,18-103,23-148,11c-42-12-43-13-112-150
		c-38-76-94-180-125-232c-194-321-537-725-759-894c-31-24-39-26-47-14c-58,87-100,182-134,305l-23,81l75,109
		c350,510,538,1089,520,1599c-14,375-87,485-316,473c-135-7-201-50-297-194c-181-272-341-807-385-1287c-18-202-3-579,27-679
		c6-20-168-206-237-254c-37-25-40-26-58-10c-60,54-112,211-130,391c-28,277-3,577,116,1385c50,340,56,404,57,550c1,158,0,167-25,221
		c-42,89-101,119-233,118C13211,15789,13169,15783,13135,15770z M14461,15230c29-241-27-614-138-917c-45-123-196-443-209-443
		c-11,0,5,283,26,445c39,299,106,577,197,814c50,131,93,215,104,204C14445,15328,14454,15282,14461,15230z M10741,15287
		c106-71,181-265,204-524l6-73l-53-33c-124-80-249-129-328-130c-146-2-244,167-206,354c17,82,89,239,110,239c8,0,33-9,57-20
		c69-31,159-23,159,14c0,21-53,62-105,81c-25,10-45,20-45,22c0,8,62,58,94,75C10676,15315,10701,15314,10741,15287z M10308,14412
		c56-21,89-26,204-30c149-5,234,8,357,54c35,13,66,23,68,21s-3-52-12-111c-75-534-334-1085-587-1248l-50-31l-35,18
		c-49,27-117,106-153,178c-108,221-116,568-25,995c22,102,46,199,60,240c3,8,21,0,56-24C10219,14453,10272,14426,10308,14412z
		 M12994,11756c-66-31-112-72-172-154c-135-185-245-436-356-812c-211-718-317-1519-276-2097l12-181l-75-114c-73-110-181-239-217-258
		c-15-8-22-3-43,33c-71,120-97,287-97,612c0,479,66,944,188,1313c40,123,39,135-14,161c-41,20-161,19-201-2c-18-10-43-36-57-60
		c-31-53-103-268-151-448c-42-160-157-434-317-754c-191-380-299-545-412-627c-38-27-40-27-59-11c-53,49-101,170-122,313
		c-42,274,9,667,156,1212c29,111,49,203,47,224c-5,55-41,78-131,82c-127,7-138,0-322-177c-212-205-294-276-304-265c-4,5-14,25-21,44
		c-23,61-78,153-127,214c-63,78-153,139-256,172c-70,22-100,26-207,27c-142,0-217-15-320-65c-90-43-221-176-272-276
		c-38-74-154-214-417-506l-126-139l-34,74c-76,167-194,359-350,569c-150,202-187,294-178,444c13,246,205,527,341,502
		c51-10,151-90,211-169c29-37,85-131,126-209c43-82,84-148,99-157c30-20,111-21,134-1c22,18,17,55-25,182c-61,183-151,323-260,403
		c-92,68-153,87-293,93c-140,5-201-5-305-55c-179-85-353-349-377-571c-14-137,37-289,148-442c160-221,190-264,252-367
		c79-132,151-288,207-452l41-120l-97-108c-533-589-840-1208-749-1512c20-67,73-121,150-152c85-33,257-33,364,0
		c302,92,555,365,676,728c53,158,74,277,81,458c7,188-12,363-58,544l-28,114l137,155c75,85,149,169,164,186c32,37,32,38,11-100
		c-23-152-23-462,0-612c54-348,160-522,356-583c81-25,262-27,342-3c93,27,179,82,264,168c100,101,175,213,259,386
		c122,255,175,456,185,716l6,162l90,69c50,39,117,94,149,124c33,30,57,46,53,36c-17-46-98-393-116-499c-76-442-31-769,128-928
		c57-57,108-85,193-105c125-29,270-11,381,47c118,63,236,203,351,418l44,83l7-99c24-355,114-558,283-641c53-26,66-28,182-28
		c120,0,128,1,193,32c45,22,93,56,138,100c38,36,70,64,72,62s16-49,31-104c36-132,94-252,144-297c60-54,135-78,246-78
		c165,0,274,48,407,180c129,128,232,293,322,515c68,168,159,433,155,452c-6,30-48,44-121,41c-51-3-72-8-86-23c-11-11-52-92-91-180
		c-146-323-232-475-350-618c-57-70-163-167-182-167c-11,0-57,128-81,230c-35,142-63,301-77,440l-12,115l125,255
		c300,611,486,1102,616,1620c129,511,144,906,45,1117c-45,95-100,123-239,123C13062,11780,13034,11775,12994,11756z M13156,11459
		c24-122,14-385-20-582c-68-391-227-879-465-1425c-39-89-75-170-81-180c-26-40,18,422,70,734c106,643,273,1224,431,1501
		c19,33,35,51,40,46S13148,11506,13156,11459z M9565,10035c54-32,117-98,159-169c45-75,88-204,90-268l1-50l-70-40
		c-106-61-254-117-343-130c-70-10-85-10-126,6c-165,63-169,358-7,563C9362,10065,9463,10095,9565,10035z M9818,9248
		c-31-243-143-536-289-758c-63-96-201-244-252-269c-26-14-29-13-62,19c-74,71-135,244-171,482c-17,110-27,508-13,522c3,3,43-4,89-15
		c73-19,103-21,249-16c173,5,278,25,391,76C9827,9319,9828,9318,9818,9248z M8124,8533c21-341-84-726-264-964
		c-87-116-256-259-307-259c-7,0-20,15-30,33c-21,39-23,175-4,257c66,288,219,584,484,940C8117,8694,8113,8694,8124,8533z
		 M16138,11700c-118-21-233-99-345-233c-413-496-769-1460-869-2357c-10-92-18-262-20-463l-4-318l-117-147c-166-209-523-640-620-750
		c-46-51-83-100-83-108s17-22,37-31c52-21,116-11,178,31c113,75,333,291,561,553c49,56,93,102,98,103c4,0,24-45,42-101
		c71-212,169-343,290-389c74-28,210-38,285-20c176,42,269,148,461,530c85,170,88,174,88,130c0-25,7-85,15-135
		c57-349,222-516,515-519c124-1,190,13,284,62c287,149,541,726,596,1352c5,63,10,143,10,178v62l98,118c53,65,109,133,124,152l27,35
		l-4-30c-10-62-45-428-61-640c-25-331-10-777,32-922c31-112,111-159,258-151c149,8,195,46,398,341c170,244,444,692,514,839
		c19,40,13,38,178,52l58,5l-6-32c-34-168-32-457,3-590c47-178,137-300,256-348c52-20,77-23,190-23c148,0,197,13,305,85
		c158,106,573,674,763,1046c23,46,44,83,47,83c11,0,148-221,195-315c53-106,105-249,129-351l14-61l-121-134
		c-290-324-572-663-669-806c-175-260-195-487-53-580c63-42,138-56,264-51c98,4,129,10,202,37c244,90,515,353,658,639
		c50,99,102,253,128,372c24,115,25,470,1,575l-16,69l76,85c125,139,546,563,637,642c103,90,109,117,29,132c-100,19-229-75-631-460
		l-179-172l-33,77c-51,119-131,255-276,473c-140,208-151,233-143,320c10,104,139,310,247,395c61,48,144,84,194,84
		c51,0,125-51,214-144c78-83,83-86,125-86c67,0,83,16,74,76c-14,105-90,210-185,259c-172,87-450,72-667-36c-159-78-313-239-402-418
		c-44-89-47-99-47-175c0-84,15-127,77-227l22-36l-62-113c-35-62-97-167-139-234c-256-410-669-906-754-906c-43,0-103,106-140,245
		c-41,157-35,479,13,670c13,48,15,51,93,93c283,156,560,429,699,692c56,106,79,186,78,270c-1,155-91,240-251,240
		c-259-1-497-227-721-685c-70-142-144-328-181-453c-7-24-20-47-28-51c-20-11-162-43-167-38c-2,2,12,40,30,84c138,327,163,625,61,728
		c-58,58-189,73-301,35c-74-26-180-103-234-172c-53-66-112-183-140-277c-31-99-26-221,12-303c32-69,98-138,167-173
		c28-14,51-28,51-31c0-35-547-894-595-934c-34-28-31,664,5,1180c27,375,29,515,10,555c-22,45-71,65-162,65c-42,0-89-5-105-11
		c-41-15-92-68-215-221c-102-129-128-154-128-127c0,6-18,49-39,95c-96,204-276,305-517,290c-184-11-337-86-473-232
		c-183-195-301-452-286-621c6-71,5-75-47-195c-67-159-298-623-384-775c-79-141-191-307-232-346l-29-28l-33,51
		c-65,102-124,296-155,510c-23,162-24,155,58,261c647,837,1081,1684,1223,2390c35,175,45,447,20,552c-44,188-149,281-329,292
		C16217,11707,16164,11705,16138,11700z M16263,11518c90-146,67-481-65-913c-134-441-536-1220-883-1710l-57-80l6,125
		c18,348,65,658,153,1005c164,653,422,1238,665,1509c57,64,125,118,142,113C16230,11565,16248,11543,16263,11518z M20130,10130
		c7-18,11-59,9-103c-4-60-11-87-42-150c-78-158-281-395-444-520l-62-47l23,67c84,245,224,514,344,658c45,53,130,125,148,125
		C20112,10160,20123,10147,20130,10130z M18910,9533c-14-81-51-195-97-295l-37-80l-19,39c-29,54-34,170-12,253c24,92,86,220,131,270
		l39,43l3-84C18920,9633,18916,9567,18910,9533z M17036,9672c100-73,178-251,198-452l7-65l-71-60c-139-117-297-204-437-240
		c-79-21-97-19-134,12c-97,82-91,250,18,466c85,170,185,292,281,341C16960,9707,16989,9706,17036,9672z M17230,8836
		c0-46-41-262-70-373c-98-366-275-693-437-804c-23-16-49-29-58-29c-24,0-100,82-128,137c-36,70-66,174-82,283c-15,99-20,409-9,555
		l7,81l156-4c142-3,165-1,256,22c67,17,141,47,225,89c69,36,128,65,133,66C17227,8859,17230,8849,17230,8836z M21070,7961
		c-38-295-175-570-389-781c-111-110-203-172-224-151c-7,7-11,42-11,84c1,88,29,180,90,293c59,110,283,409,484,646l55,64l3-35
		C21080,8062,21076,8008,21070,7961z M5383,10680c-12-5-29-19-37-32s-44-153-81-313c-123-541-212-862-317-1145
		c-48-129-120-283-151-325c-14-19-15-18-35,14c-33,55-79,208-101,337c-47,280-48,635-4,992l16,133l-21,22c-18,17-37,22-96,25
		c-78,4-126-11-145-46c-15-29-48-168-66-282c-27-173-166-669-315-1125c-76-232-165-471-180-480c-11-7-43,96-67,213
		c-15,74-18,140-18,447c1,386,8,505,67,1005c38,330,41,431,13,480c-32,56-92,80-195,80c-165-1-244-63-390-310
		c-121-203-232-444-336-724l-62-170l-6,100c-19,295-28,396-41,458c-30,141-78,196-190,217c-118,22-234-12-314-92
		c-88-88-209-306-316-567c-21-51-39-91-40-90c0,2,2,206,7,453l8,450l-26,23c-30,26-90,30-134,7c-35-18-50-62-79-237
		c-40-240-111-937-132-1300c-12-207-8-990,5-1020c23-52,173-77,261-44c55,22,62,40,68,201c11,245,86,653,183,989
		c93,323,246,716,347,894c39,69,42,72,49,46c11-42,27-305,38-634c19-573,44-892,74-964c25-60,146-86,236-50c43,17,60,52,60,126
		c0,65,39,342,66,469c93,443,255,892,452,1254c35,66,71,129,79,140l15,20l-6-20c-3-11-16-112-30-225c-109-896-97-1366,43-1655
		c46-95,87-139,159-173c48-22,64-24,151-20c148,6,200,43,269,198c35,76,109,297,177,528l49,162l23-82c53-182,135-303,241-355
		c51-25,67-28,162-28c88,0,113,4,155,23c91,42,152,116,222,272c27,61,43,86,43,70c0-33-50-609-55-635c-2-11-35-57-73-102
		c-213-251-428-602-546-890c-132-323-199-626-199-908c0-343,74-470,287-492c293-30,518,249,671,832c90,340,158,782,200,1290
		c8,105,18,223,21,263l6,73l91,97c50,53,305,322,567,597c558,586,605,636,682,733c61,78,70,105,39,122c-25,13-106,13-130,0
		c-10-5-292-283-626-617l-607-608l6,55c4,30,20,325,36,655c58,1189,58,1146,18,1182c-15,13-39,19-97,20
		C5439,10689,5395,10686,5383,10680z M5084,7898c-2-13-17-124-34-248c-94-682-220-1155-375-1401l-28-44l-14,39c-39,113-40,353-3,569
		c46,268,124,504,250,752c72,144,194,355,204,355C5086,7920,5086,7910,5084,7898z M13365,6465c-193-44-369-139-577-312
		c-437-362-789-916-962-1512c-20-69-38-126-40-128c-1-2-77,79-167,179c-499,555-798,838-1024,973c-123,74-224,106-350,112
		c-291,15-468-98-564-361c-186-514-35-1194,402-1811c260-367,638-764,1163-1223c297-259,1126-946,1209-1002c44-29,100-61,125-71
		c38-14,47-23,56-55c15-54,56-76,153-82c84-5,145,8,183,37c31,25,69,104,157,326c70,178,123,354,260,860c38,143,122,435,186,648
		c300,1004,481,1778,551,2357c25,209,26,547,0,655c-49,211-149,329-330,393c-61,21-92,25-221,28C13472,6478,13406,6475,13365,6465z
		 M7847,5825c-184-37-339-158-568-442c-292-364-518-785-660-1234l-43-135l-141,119c-159,136-398,318-527,401
		c-303,197-530,257-773,204c-142-31-228-119-241-246c-16-154,95-459,271-742c247-397,720-892,1188-1243c380-286,985-634,1237-712
		c47-14,105-36,130-47c54-25,169-35,227-19c85,23,78,1,143,451c32,223,74,504,94,624c49,293,194,1671,226,2134c5,85,10,238,10,340
		c-1,263-22,368-92,447C8244,5821,8041,5863,7847,5825z M17384,5200c-168-44-356-171-574-390c-206-205-359-408-452-600
		c-24-49-46-89-49-90c-4,0-67,56-140,124c-312,289-493,427-678,521c-272,137-592,135-732-5c-131-132-126-435,15-795
		c97-248,243-492,488-820c288-385,666-796,910-989l87-68l-21-52c-44-110-48-127-38-147c22-39,69-54,175-54c152,0,177,21,314,264
		c279,495,983,2015,1126,2431c147,429,103,625-153,679C17584,5225,17465,5222,17384,5200z"/>
</g>
</svg>
