<?xml version="1.0" standalone="no"?>
<!DOCTYPE svg PUBLIC "-//W3C//DTD SVG 20010904//EN"
 "http://www.w3.org/TR/2001/REC-SVG-20010904/DTD/svg10.dtd">
<svg version="1.0" xmlns="http://www.w3.org/2000/svg"
 width="2400.000000pt" height="2400.000000pt" viewBox="0 0 2400.000000 2400.000000"
 preserveAspectRatio="xMidYMid meet">

<g transform="translate(0.000000,2400.000000) scale(0.100000,-0.100000)"
fill="#000000" stroke="none">
<path d="M6520 22201 c-97 -21 -159 -88 -245 -266 -138 -286 -220 -660 -260
-1185 -17 -236 -34 -628 -35 -811 l0 -126 -144 -299 c-79 -164 -146 -308 -150
-319 -10 -35 9 -50 63 -50 45 0 54 4 91 40 22 22 63 73 90 113 l50 74 0 -189
c1 -478 33 -1122 60 -1200 20 -57 125 -82 205 -49 40 17 55 42 55 90 0 45 44
284 76 411 82 325 232 752 381 1081 60 131 151 294 164 294 41 0 22 -591 -31
-972 -23 -163 -50 -505 -50 -633 0 -218 36 -411 93 -497 31 -47 98 -78 168
-78 102 0 160 34 204 120 24 48 158 403 215 573 18 53 36 95 38 92 3 -3 15
-45 28 -93 37 -149 96 -246 182 -300 146 -93 353 -81 486 30 99 81 234 318
326 568 24 63 46 119 50 123 4 4 10 -36 14 -90 16 -230 75 -498 140 -636 61
-127 130 -177 246 -177 72 0 131 22 167 61 12 14 38 58 57 99 55 120 254 731
381 1170 31 107 62 213 69 235 l13 40 7 -60 c56 -501 130 -873 256 -1290 85
-282 119 -325 260 -333 63 -4 85 -1 124 16 62 28 79 67 146 327 155 603 321
1186 456 1596 41 124 74 233 74 242 0 9 -9 21 -19 27 -27 14 -112 12 -132 -3
-31 -23 -134 -269 -244 -582 -62 -177 -283 -876 -336 -1062 -13 -46 -26 -83
-29 -83 -7 0 -115 407 -160 600 -37 160 -89 436 -135 715 -67 406 -79 445
-133 466 -45 17 -159 7 -182 -17 -14 -13 -41 -96 -84 -259 -109 -406 -251
-853 -436 -1367 -96 -267 -95 -264 -109 -213 -17 67 -49 266 -60 376 -27 271
-34 437 -35 857 l-1 454 -28 24 c-15 13 -46 27 -68 30 -30 5 -43 14 -54 33
-21 42 -101 110 -158 136 -165 75 -400 49 -570 -65 -186 -125 -307 -329 -418
-705 -18 -61 -63 -189 -101 -285 -39 -96 -110 -281 -160 -410 -49 -129 -126
-327 -171 -440 -79 -200 -81 -204 -89 -165 -18 101 -3 397 42 795 82 734 69
1065 -48 1175 -43 40 -84 53 -167 54 -116 1 -175 -38 -266 -176 -106 -162
-264 -507 -390 -853 l-24 -65 -6 145 c-4 80 -7 286 -8 459 l-1 314 118 236
c292 584 435 965 498 1331 24 138 24 374 0 480 -31 138 -93 243 -165 280 -43
21 -140 32 -191 21z m85 -171 c68 -131 63 -409 -11 -703 -49 -196 -201 -611
-302 -827 l-30 -65 -1 70 c-2 164 40 630 75 840 43 262 119 517 192 645 46 82
53 86 77 40z m1941 -2095 c28 -14 62 -37 77 -52 l26 -28 -29 -132 c-114 -511
-346 -1140 -522 -1415 -64 -100 -74 -109 -89 -72 -6 16 -20 72 -32 124 -30
135 -29 409 1 602 68 433 203 785 356 926 83 76 132 87 212 47z"/>
<path d="M4530 22154 c-254 -70 -582 -197 -1060 -409 -532 -235 -823 -392
-909 -490 -60 -68 -32 -125 61 -125 39 0 75 14 205 79 199 99 735 353 738 349
1 -2 -1 -75 -5 -163 -5 -88 -13 -279 -20 -425 -6 -146 -20 -409 -30 -585 -22
-348 -42 -1309 -39 -1790 l2 -300 -234 -143 c-348 -214 -499 -326 -499 -370 0
-34 37 -52 106 -52 57 0 73 6 240 90 98 49 287 156 419 238 817 507 974 600
1155 685 58 27 108 55 112 61 31 46 -31 82 -128 73 -34 -3 -99 -18 -145 -33
-104 -35 -354 -157 -548 -269 -81 -47 -152 -85 -156 -85 -4 0 -5 44 -1 98 18
254 56 924 66 1152 5 140 12 289 14 330 6 107 -12 848 -24 1020 -12 163 -46
463 -60 524 -5 23 -6 44 -2 48 22 21 544 247 812 350 113 43 213 87 224 97 11
12 16 26 12 38 -17 54 -129 56 -306 7z"/>
<path d="M14506 21789 c-298 -70 -649 -630 -940 -1499 -82 -247 -163 -530
-210 -735 l-37 -160 -52 -48 c-59 -55 -183 -148 -252 -189 -30 -18 -45 -34
-45 -48 0 -48 137 -66 238 -31 62 21 58 31 38 -120 -49 -348 -61 -772 -31
-1032 27 -236 97 -470 179 -606 78 -128 192 -227 324 -279 59 -23 81 -26 187
-26 101 0 129 3 177 23 170 67 273 263 297 563 23 284 -40 685 -165 1050 -76
222 -138 340 -250 480 -61 75 -66 88 -35 88 31 0 228 87 321 142 52 31 131 82
175 113 44 32 85 59 91 62 9 3 12 -33 12 -139 0 -163 18 -282 60 -409 101
-297 250 -419 512 -419 174 0 285 44 400 160 157 156 264 416 277 676 l6 111
51 31 c28 17 85 55 126 85 41 30 76 54 77 53 1 -1 -9 -44 -22 -96 -50 -193
-69 -335 -69 -505 0 -147 3 -167 27 -240 52 -156 134 -223 282 -233 135 -8
227 31 305 133 55 71 138 223 198 359 l47 109 7 -84 c32 -363 148 -510 392
-497 184 10 259 107 398 508 l43 125 6 -170 c11 -297 32 -355 137 -375 53 -10
134 -1 172 20 12 6 26 33 35 68 72 257 145 443 247 627 120 215 221 358 336
478 88 90 105 96 96 35 -18 -134 -34 -197 -155 -603 -122 -407 -170 -634 -172
-810 -2 -136 15 -197 67 -250 54 -54 108 -69 224 -63 73 3 96 9 134 31 56 33
149 133 220 237 l53 77 39 -33 c61 -52 135 -77 251 -82 154 -6 267 31 400 131
61 46 75 49 75 18 0 -39 51 -218 80 -280 35 -75 77 -123 135 -154 35 -19 56
-22 155 -22 105 1 122 3 191 31 257 103 458 337 618 716 46 109 50 133 22 148
-25 13 -114 13 -143 -1 -14 -6 -42 -47 -73 -106 -68 -130 -188 -313 -263 -400
-72 -83 -171 -166 -255 -213 -67 -37 -64 -38 -96 47 -40 104 -71 344 -71 552
l0 104 92 161 c210 368 330 629 438 956 108 325 148 548 137 757 -10 174 -47
223 -169 223 -71 0 -130 -31 -180 -94 -150 -187 -348 -582 -453 -903 -3 -9
-16 -7 -49 8 -100 44 -245 34 -366 -24 -82 -40 -207 -162 -279 -272 -163 -250
-292 -587 -321 -833 -8 -68 -17 -98 -50 -160 -48 -89 -155 -251 -199 -302
l-30 -35 -1 90 c0 170 30 349 125 745 85 351 105 462 105 573 0 111 -16 151
-75 185 -35 20 -51 22 -135 20 -112 -4 -151 -19 -250 -101 -127 -106 -353
-396 -471 -605 l-54 -97 -7 120 c-15 265 -29 425 -39 453 -13 37 -45 52 -112
52 -74 0 -92 -16 -120 -108 -102 -329 -402 -1002 -448 -1002 -23 0 -65 195
-79 371 -12 145 -4 323 30 712 26 288 26 283 -6 303 -38 25 -112 29 -152 7
-31 -17 -38 -30 -81 -158 -97 -285 -239 -617 -382 -895 -78 -149 -195 -340
-210 -340 -14 0 -30 66 -41 168 -21 192 16 485 107 841 25 96 45 184 45 196 0
52 -94 92 -188 81 -72 -9 -94 -21 -192 -113 -122 -112 -299 -253 -318 -253 -6
0 -12 10 -16 23 -12 47 -100 181 -156 237 -65 65 -147 112 -237 135 -84 22
-242 19 -338 -5 -152 -39 -315 -152 -413 -285 -46 -62 -45 -62 -224 -191 -266
-191 -440 -283 -616 -325 -46 -11 -88 -19 -93 -17 -6 2 38 44 97 93 208 172
484 463 655 690 392 519 588 999 549 1345 -29 253 -121 352 -324 349 -39 -1
-88 -5 -110 -10z m80 -384 c-3 -108 -10 -161 -30 -232 -104 -376 -349 -803
-715 -1241 -56 -68 -105 -121 -108 -119 -6 7 80 322 142 517 199 628 388 1006
619 1235 l70 69 14 -44 c10 -33 12 -83 8 -185z m5954 -725 c-20 -160 -95 -419
-195 -670 -43 -110 -156 -352 -162 -347 -5 6 53 293 87 427 66 261 132 453
223 645 49 102 52 107 55 75 2 -19 -2 -78 -8 -130z m-5301 -669 c93 -48 202
-210 235 -349 l14 -63 -46 -23 c-114 -57 -277 -92 -376 -82 -77 8 -158 47
-194 94 -37 49 -37 125 1 199 59 114 214 242 295 243 18 0 50 -9 71 -19z
m4567 -23 c30 -34 54 -75 70 -120 13 -38 12 -51 -20 -202 -50 -232 -66 -349
-73 -536 l-6 -165 -47 -60 c-100 -125 -287 -285 -334 -285 -36 0 -78 105 -91
225 -31 294 207 944 412 1124 53 47 62 49 89 19z m-4330 -657 c-14 -103 -96
-303 -169 -411 -73 -107 -162 -190 -203 -190 -31 0 -110 96 -158 193 -46 92
-96 263 -110 375 l-7 54 58 -9 c32 -4 139 -7 238 -6 142 1 197 5 260 21 44 11
84 20 89 21 5 0 6 -21 2 -48z m-1808 -254 c128 -148 213 -334 292 -642 117
-451 128 -849 31 -1106 -23 -61 -77 -149 -92 -149 -21 0 -139 131 -173 192
-173 312 -226 864 -151 1573 20 180 23 197 39 188 7 -5 32 -29 54 -56z"/>
<path d="M11523 20250 c-100 -50 -215 -194 -336 -420 -230 -427 -327 -1057
-242 -1556 40 -234 112 -356 234 -399 65 -23 207 -20 284 6 207 69 437 254
600 481 37 51 106 171 155 266 l87 174 -24 19 c-26 21 -118 27 -151 9 -10 -6
-48 -59 -84 -118 -201 -333 -425 -563 -649 -667 -62 -29 -68 -25 -96 55 -49
140 -71 330 -71 614 l0 202 88 90 c174 179 307 362 396 547 111 227 150 432
111 580 -28 108 -64 138 -170 144 -63 4 -76 2 -132 -27z m119 -207 c-2 -152
-85 -366 -227 -578 -88 -132 -134 -188 -135 -163 0 33 69 286 106 384 73 199
223 469 246 446 6 -6 10 -45 10 -89z"/>
<path d="M6050 16915 c-25 -8 -64 -30 -87 -50 -138 -118 -300 -550 -403 -1074
-33 -164 -36 -169 -145 -221 -101 -49 -264 -72 -593 -86 l-163 -7 5 24 c3 13
19 128 36 254 17 127 46 327 66 445 80 490 87 565 54 595 -42 38 -167 28 -190
-15 -13 -25 -115 -389 -165 -590 -23 -96 -64 -281 -89 -410 -26 -129 -49 -245
-51 -256 -4 -20 -13 -22 -152 -28 -272 -13 -464 -51 -650 -130 -320 -136 -475
-359 -238 -344 54 3 70 9 102 36 150 126 331 206 563 247 90 16 340 32 340 22
0 -3 -11 -75 -25 -159 -79 -492 -116 -883 -122 -1308 -10 -658 49 -1013 206
-1237 51 -72 93 -107 176 -145 44 -20 65 -23 185 -23 157 0 207 15 309 90 111
82 215 240 381 577 l97 198 7 -63 c14 -118 37 -230 57 -278 28 -65 76 -89 177
-89 86 0 147 22 166 59 8 14 30 91 51 171 72 286 199 629 370 1005 140 309
454 918 493 957 4 4 6 -9 4 -30 -12 -122 -58 -462 -93 -677 -118 -742 -131
-849 -131 -1095 0 -204 14 -302 58 -400 55 -121 140 -170 298 -170 175 0 282
53 450 222 87 88 100 98 109 81 24 -45 116 -121 173 -143 89 -35 239 -39 336
-10 270 81 533 314 737 650 87 144 321 630 321 667 0 19 -60 43 -107 43 -82 0
-95 -15 -235 -270 -213 -385 -361 -592 -530 -741 -124 -109 -288 -209 -322
-196 -36 14 -102 154 -131 279 l-13 59 74 116 c172 270 341 656 419 963 91
356 68 646 -59 758 -45 39 -91 52 -192 52 -70 0 -89 -4 -143 -31 -37 -18 -76
-49 -99 -75 -171 -203 -325 -655 -378 -1110 -19 -161 -14 -499 9 -622 l14 -73
-30 -42 c-121 -168 -343 -407 -379 -407 -16 0 -49 139 -59 252 -19 200 -1 413
96 1113 71 513 89 690 89 890 1 171 0 182 -22 212 -33 47 -95 67 -187 61 -99
-7 -149 -37 -235 -145 -186 -233 -568 -949 -781 -1467 -38 -93 -59 -133 -62
-120 -3 11 -11 93 -17 184 l-12 165 70 190 c202 550 399 1216 476 1610 72 369
91 747 45 910 -21 75 -60 135 -107 162 -54 32 -154 40 -222 18z m120 -246 c51
-316 -74 -943 -363 -1819 l-55 -165 -1 120 c-1 144 14 400 35 585 73 659 182
1128 312 1345 l36 59 13 -31 c7 -17 17 -60 23 -94z m-694 -1376 c-26 -184 -36
-300 -46 -522 -8 -200 0 -654 16 -827 l6 -71 -92 -218 c-169 -396 -367 -775
-480 -917 -47 -58 -123 -128 -140 -128 -25 0 -97 126 -124 221 -91 312 -112
1022 -51 1734 20 223 53 557 68 670 l12 90 175 7 c206 9 449 38 575 70 66 17
91 20 93 11 2 -7 -4 -61 -12 -120z m2518 -463 c0 -132 -4 -172 -28 -273 -44
-191 -157 -497 -240 -652 l-27 -50 6 100 c22 350 111 742 225 980 37 78 44 86
54 69 7 -12 11 -75 10 -174z"/>
<path d="M19075 16671 c-60 -11 -96 -33 -162 -104 -209 -223 -398 -744 -512
-1407 l-30 -175 -68 -63 c-107 -100 -101 -103 -95 54 8 215 -17 307 -97 361
-46 31 -174 32 -239 3 -88 -40 -201 -189 -254 -336 -29 -80 -29 -175 -1 -230
42 -80 142 -147 241 -161 24 -3 46 -12 48 -18 7 -16 -81 -278 -153 -459 -63
-160 -208 -479 -261 -576 -53 -97 -133 -211 -146 -207 -6 2 -21 29 -33 59 -57
142 -83 302 -90 564 -7 231 4 390 48 699 38 273 38 280 -3 305 -24 15 -51 20
-99 20 -108 0 -119 -11 -199 -220 -128 -333 -355 -840 -467 -1045 -51 -93
-112 -179 -120 -171 -15 15 -33 156 -39 301 -10 252 15 500 107 1070 58 358
71 503 45 524 -25 21 -97 25 -138 8 -31 -13 -39 -24 -62 -83 -81 -215 -186
-627 -248 -974 -26 -152 -31 -206 -35 -410 -4 -190 -2 -253 11 -330 38 -218
120 -299 313 -308 220 -10 311 69 483 423 48 99 91 191 97 205 8 20 11 2 17
-90 25 -409 119 -652 273 -704 55 -19 188 -21 243 -5 131 40 259 226 425 619
104 247 219 577 260 748 10 43 22 72 30 72 7 0 48 18 91 39 43 22 79 39 80 38
1 -1 -2 -38 -6 -82 -5 -44 -14 -204 -21 -355 -12 -289 -2 -717 19 -771 15 -39
84 -63 162 -57 77 5 108 28 136 99 99 254 128 323 195 459 122 250 248 452
429 695 88 117 140 178 140 163 0 -3 -29 -97 -65 -209 -203 -632 -246 -926
-165 -1142 44 -118 139 -185 277 -194 180 -12 283 52 445 279 l56 77 6 -50
c18 -136 88 -271 173 -334 78 -57 163 -78 296 -73 165 7 261 52 386 181 200
205 334 528 387 928 8 68 16 124 17 125 205 115 346 214 462 325 105 101 245
277 245 308 0 13 -11 26 -30 36 -37 19 -152 20 -188 1 -15 -8 -70 -58 -122
-111 -144 -148 -351 -309 -369 -289 -4 5 -13 50 -20 99 -15 114 -61 251 -111
336 -75 126 -172 188 -313 196 -249 16 -447 -126 -605 -434 -74 -145 -104
-252 -107 -388 -1 -60 -5 -123 -10 -140 -13 -49 -138 -314 -198 -422 -31 -55
-83 -140 -115 -189 -61 -92 -199 -264 -212 -264 -17 0 -23 40 -28 169 -7 195
22 373 138 856 78 325 85 418 40 492 -27 44 -73 65 -155 71 -98 6 -163 -20
-250 -100 -140 -129 -439 -524 -587 -778 -30 -50 -38 -59 -38 -40 0 131 54
853 66 871 2 3 41 56 86 117 210 279 421 697 487 963 70 280 40 512 -69 533
-62 12 -86 13 -125 7z m41 -227 c15 -148 -43 -366 -165 -621 -72 -147 -179
-338 -187 -330 -6 6 51 281 87 415 34 129 96 312 134 399 33 74 106 203 116
203 4 0 11 -30 15 -66z m-1112 -1374 c-1 -77 -8 -149 -23 -220 -12 -57 -24
-106 -26 -109 -11 -10 -55 33 -75 74 -18 38 -22 58 -18 108 6 67 53 197 95
261 23 36 26 38 37 20 6 -11 11 -65 10 -134z m2789 81 c74 -82 129 -228 147
-386 14 -123 13 -190 -3 -203 -42 -35 -443 -169 -473 -158 -54 21 -59 222 -9
376 51 159 153 334 232 399 42 35 51 32 106 -28z m106 -918 c-50 -229 -165
-494 -284 -653 -39 -54 -155 -168 -191 -191 -42 -26 -61 -17 -103 49 -75 117
-96 246 -87 526 3 111 9 216 12 234 6 31 7 32 43 25 20 -5 90 -8 156 -8 126 0
222 20 390 79 39 13 73 25 77 25 3 1 -3 -38 -13 -86z"/>
<path d="M13135 15770 c-235 -91 -622 -703 -905 -1434 l-58 -148 -6 68 c-12
123 -26 553 -26 784 0 253 -13 437 -32 477 -7 15 -28 38 -47 50 -28 19 -47 23
-113 23 -130 0 -149 -16 -416 -335 -139 -167 -307 -345 -315 -334 -2 2 -13 42
-26 89 -58 222 -169 360 -330 411 -80 24 -255 26 -345 3 -129 -33 -246 -118
-334 -243 -25 -36 -67 -91 -93 -121 -127 -149 -240 -378 -337 -680 -158 -493
-170 -888 -36 -1169 47 -97 150 -204 243 -250 193 -98 458 -95 640 6 81 45
200 161 268 263 223 333 373 853 373 1296 l0 131 79 67 c110 92 266 258 406
430 66 80 120 144 120 143 1 -1 -2 -47 -6 -102 -4 -55 -13 -238 -19 -406 -17
-412 4 -881 55 -1226 36 -240 72 -283 235 -283 87 0 144 26 159 72 6 18 22
111 36 206 14 96 34 220 45 275 102 510 401 1212 673 1579 74 100 186 220 200
211 17 -10 0 -216 -32 -388 -16 -88 -48 -257 -70 -375 -100 -524 -144 -882
-145 -1160 0 -364 61 -566 206 -680 88 -70 142 -85 308 -85 167 0 212 13 326
91 l63 43 33 -62 c47 -89 138 -178 213 -207 73 -28 206 -37 288 -20 118 24
189 71 348 229 325 324 613 757 723 1089 41 123 44 147 16 162 -33 18 -103 23
-148 11 -42 -12 -43 -13 -112 -150 -38 -76 -94 -180 -125 -232 -194 -321 -537
-725 -759 -894 -31 -24 -39 -26 -47 -14 -58 87 -100 182 -134 305 l-23 81 75
109 c350 510 538 1089 520 1599 -14 375 -87 485 -316 473 -135 -7 -201 -50
-297 -194 -181 -272 -341 -807 -385 -1287 -18 -202 -3 -579 27 -679 6 -20
-168 -206 -237 -254 -37 -25 -40 -26 -58 -10 -60 54 -112 211 -130 391 -28
277 -3 577 116 1385 50 340 56 404 57 550 1 158 0 167 -25 221 -42 89 -101
119 -233 118 -55 0 -97 -6 -131 -19z m1326 -540 c29 -241 -27 -614 -138 -917
-45 -123 -196 -443 -209 -443 -11 0 5 283 26 445 39 299 106 577 197 814 50
131 93 215 104 204 4 -5 13 -51 20 -103z m-3720 57 c106 -71 181 -265 204
-524 l6 -73 -53 -33 c-124 -80 -249 -129 -328 -130 -146 -2 -244 167 -206 354
17 82 89 239 110 239 8 0 33 -9 57 -20 69 -31 159 -23 159 14 0 21 -53 62
-105 81 -25 10 -45 20 -45 22 0 8 62 58 94 75 42 23 67 22 107 -5z m-433 -875
c56 -21 89 -26 204 -30 149 -5 234 8 357 54 35 13 66 23 68 21 2 -2 -3 -52
-12 -111 -75 -534 -334 -1085 -587 -1248 l-50 -31 -35 18 c-49 27 -117 106
-153 178 -108 221 -116 568 -25 995 22 102 46 199 60 240 3 8 21 0 56 -24 28
-21 81 -48 117 -62z"/>
<path d="M12994 11756 c-66 -31 -112 -72 -172 -154 -135 -185 -245 -436 -356
-812 -211 -718 -317 -1519 -276 -2097 l12 -181 -75 -114 c-73 -110 -181 -239
-217 -258 -15 -8 -22 -3 -43 33 -71 120 -97 287 -97 612 0 479 66 944 188
1313 40 123 39 135 -14 161 -41 20 -161 19 -201 -2 -18 -10 -43 -36 -57 -60
-31 -53 -103 -268 -151 -448 -42 -160 -157 -434 -317 -754 -191 -380 -299
-545 -412 -627 -38 -27 -40 -27 -59 -11 -53 49 -101 170 -122 313 -42 274 9
667 156 1212 29 111 49 203 47 224 -5 55 -41 78 -131 82 -127 7 -138 0 -322
-177 -212 -205 -294 -276 -304 -265 -4 5 -14 25 -21 44 -23 61 -78 153 -127
214 -63 78 -153 139 -256 172 -70 22 -100 26 -207 27 -142 0 -217 -15 -320
-65 -90 -43 -221 -176 -272 -276 -38 -74 -154 -214 -417 -506 l-126 -139 -34
74 c-76 167 -194 359 -350 569 -150 202 -187 294 -178 444 13 246 205 527 341
502 51 -10 151 -90 211 -169 29 -37 85 -131 126 -209 43 -82 84 -148 99 -157
30 -20 111 -21 134 -1 22 18 17 55 -25 182 -61 183 -151 323 -260 403 -92 68
-153 87 -293 93 -140 5 -201 -5 -305 -55 -179 -85 -353 -349 -377 -571 -14
-137 37 -289 148 -442 160 -221 190 -264 252 -367 79 -132 151 -288 207 -452
l41 -120 -97 -108 c-533 -589 -840 -1208 -749 -1512 20 -67 73 -121 150 -152
85 -33 257 -33 364 0 302 92 555 365 676 728 53 158 74 277 81 458 7 188 -12
363 -58 544 l-28 114 137 155 c75 85 149 169 164 186 32 37 32 38 11 -100 -23
-152 -23 -462 0 -612 54 -348 160 -522 356 -583 81 -25 262 -27 342 -3 93 27
179 82 264 168 100 101 175 213 259 386 122 255 175 456 185 716 l6 162 90 69
c50 39 117 94 149 124 33 30 57 46 53 36 -17 -46 -98 -393 -116 -499 -76 -442
-31 -769 128 -928 57 -57 108 -85 193 -105 125 -29 270 -11 381 47 118 63 236
203 351 418 l44 83 7 -99 c24 -355 114 -558 283 -641 53 -26 66 -28 182 -28
120 0 128 1 193 32 45 22 93 56 138 100 38 36 70 64 72 62 2 -2 16 -49 31
-104 36 -132 94 -252 144 -297 60 -54 135 -78 246 -78 165 0 274 48 407 180
129 128 232 293 322 515 68 168 159 433 155 452 -6 30 -48 44 -121 41 -51 -3
-72 -8 -86 -23 -11 -11 -52 -92 -91 -180 -146 -323 -232 -475 -350 -618 -57
-70 -163 -167 -182 -167 -11 0 -57 128 -81 230 -35 142 -63 301 -77 440 l-12
115 125 255 c300 611 486 1102 616 1620 129 511 144 906 45 1117 -45 95 -100
123 -239 123 -63 0 -91 -5 -131 -24z m162 -297 c24 -122 14 -385 -20 -582 -68
-391 -227 -879 -465 -1425 -39 -89 -75 -170 -81 -180 -26 -40 18 422 70 734
106 643 273 1224 431 1501 19 33 35 51 40 46 5 -5 17 -47 25 -94z m-3591
-1424 c54 -32 117 -98 159 -169 45 -75 88 -204 90 -268 l1 -50 -70 -40 c-106
-61 -254 -117 -343 -130 -70 -10 -85 -10 -126 6 -165 63 -169 358 -7 563 93
118 194 148 296 88z m253 -787 c-31 -243 -143 -536 -289 -758 -63 -96 -201
-244 -252 -269 -26 -14 -29 -13 -62 19 -74 71 -135 244 -171 482 -17 110 -27
508 -13 522 3 3 43 -4 89 -15 73 -19 103 -21 249 -16 173 5 278 25 391 76 67
30 68 29 58 -41z m-1694 -715 c21 -341 -84 -726 -264 -964 -87 -116 -256 -259
-307 -259 -7 0 -20 15 -30 33 -21 39 -23 175 -4 257 66 288 219 584 484 940
114 154 110 154 121 -7z"/>
<path d="M16138 11700 c-118 -21 -233 -99 -345 -233 -413 -496 -769 -1460
-869 -2357 -10 -92 -18 -262 -20 -463 l-4 -318 -117 -147 c-166 -209 -523
-640 -620 -750 -46 -51 -83 -100 -83 -108 0 -8 17 -22 37 -31 52 -21 116 -11
178 31 113 75 333 291 561 553 49 56 93 102 98 103 4 0 24 -45 42 -101 71
-212 169 -343 290 -389 74 -28 210 -38 285 -20 176 42 269 148 461 530 85 170
88 174 88 130 0 -25 7 -85 15 -135 57 -349 222 -516 515 -519 124 -1 190 13
284 62 287 149 541 726 596 1352 5 63 10 143 10 178 l0 62 98 118 c53 65 109
133 124 152 l27 35 -4 -30 c-10 -62 -45 -428 -61 -640 -25 -331 -10 -777 32
-922 31 -112 111 -159 258 -151 149 8 195 46 398 341 170 244 444 692 514 839
19 40 13 38 178 52 l58 5 -6 -32 c-34 -168 -32 -457 3 -590 47 -178 137 -300
256 -348 52 -20 77 -23 190 -23 148 0 197 13 305 85 158 106 573 674 763 1046
23 46 44 83 47 83 11 0 148 -221 195 -315 53 -106 105 -249 129 -351 l14 -61
-121 -134 c-290 -324 -572 -663 -669 -806 -175 -260 -195 -487 -53 -580 63
-42 138 -56 264 -51 98 4 129 10 202 37 244 90 515 353 658 639 50 99 102 253
128 372 24 115 25 470 1 575 l-16 69 76 85 c125 139 546 563 637 642 103 90
109 117 29 132 -100 19 -229 -75 -631 -460 l-179 -172 -33 77 c-51 119 -131
255 -276 473 -140 208 -151 233 -143 320 10 104 139 310 247 395 61 48 144 84
194 84 51 0 125 -51 214 -144 78 -83 83 -86 125 -86 67 0 83 16 74 76 -14 105
-90 210 -185 259 -172 87 -450 72 -667 -36 -159 -78 -313 -239 -402 -418 -44
-89 -47 -99 -47 -175 0 -84 15 -127 77 -227 l22 -36 -62 -113 c-35 -62 -97
-167 -139 -234 -256 -410 -669 -906 -754 -906 -43 0 -103 106 -140 245 -41
157 -35 479 13 670 13 48 15 51 93 93 283 156 560 429 699 692 56 106 79 186
78 270 -1 155 -91 240 -251 240 -259 -1 -497 -227 -721 -685 -70 -142 -144
-328 -181 -453 -7 -24 -20 -47 -28 -51 -20 -11 -162 -43 -167 -38 -2 2 12 40
30 84 138 327 163 625 61 728 -58 58 -189 73 -301 35 -74 -26 -180 -103 -234
-172 -53 -66 -112 -183 -140 -277 -31 -99 -26 -221 12 -303 32 -69 98 -138
167 -173 28 -14 51 -28 51 -31 0 -35 -547 -894 -595 -934 -34 -28 -31 664 5
1180 27 375 29 515 10 555 -22 45 -71 65 -162 65 -42 0 -89 -5 -105 -11 -41
-15 -92 -68 -215 -221 -102 -129 -128 -154 -128 -127 0 6 -18 49 -39 95 -96
204 -276 305 -517 290 -184 -11 -337 -86 -473 -232 -183 -195 -301 -452 -286
-621 6 -71 5 -75 -47 -195 -67 -159 -298 -623 -384 -775 -79 -141 -191 -307
-232 -346 l-29 -28 -33 51 c-65 102 -124 296 -155 510 -23 162 -24 155 58 261
647 837 1081 1684 1223 2390 35 175 45 447 20 552 -44 188 -149 281 -329 292
-40 2 -93 0 -119 -5z m125 -182 c90 -146 67 -481 -65 -913 -134 -441 -536
-1220 -883 -1710 l-57 -80 6 125 c18 348 65 658 153 1005 164 653 422 1238
665 1509 57 64 125 118 142 113 6 -2 24 -24 39 -49z m3867 -1388 c7 -18 11
-59 9 -103 -4 -60 -11 -87 -42 -150 -78 -158 -281 -395 -444 -520 l-62 -47 23
67 c84 245 224 514 344 658 45 53 130 125 148 125 6 0 17 -13 24 -30z m-1220
-597 c-14 -81 -51 -195 -97 -295 l-37 -80 -19 39 c-29 54 -34 170 -12 253 24
92 86 220 131 270 l39 43 3 -84 c2 -46 -2 -112 -8 -146z m-1874 139 c100 -73
178 -251 198 -452 l7 -65 -71 -60 c-139 -117 -297 -204 -437 -240 -79 -21 -97
-19 -134 12 -97 82 -91 250 18 466 85 170 185 292 281 341 62 33 91 32 138 -2z
m194 -836 c0 -46 -41 -262 -70 -373 -98 -366 -275 -693 -437 -804 -23 -16 -49
-29 -58 -29 -24 0 -100 82 -128 137 -36 70 -66 174 -82 283 -15 99 -20 409 -9
555 l7 81 156 -4 c142 -3 165 -1 256 22 67 17 141 47 225 89 69 36 128 65 133
66 4 0 7 -10 7 -23z m3840 -875 c-38 -295 -175 -570 -389 -781 -111 -110 -203
-172 -224 -151 -7 7 -11 42 -11 84 1 88 29 180 90 293 59 110 283 409 484 646
l55 64 3 -35 c2 -19 -2 -73 -8 -120z"/>
<path d="M5383 10680 c-12 -5 -29 -19 -37 -32 -8 -13 -44 -153 -81 -313 -123
-541 -212 -862 -317 -1145 -48 -129 -120 -283 -151 -325 -14 -19 -15 -18 -35
14 -33 55 -79 208 -101 337 -47 280 -48 635 -4 992 l16 133 -21 22 c-18 17
-37 22 -96 25 -78 4 -126 -11 -145 -46 -15 -29 -48 -168 -66 -282 -27 -173
-166 -669 -315 -1125 -76 -232 -165 -471 -180 -480 -11 -7 -43 96 -67 213 -15
74 -18 140 -18 447 1 386 8 505 67 1005 38 330 41 431 13 480 -32 56 -92 80
-195 80 -165 -1 -244 -63 -390 -310 -121 -203 -232 -444 -336 -724 l-62 -170
-6 100 c-19 295 -28 396 -41 458 -30 141 -78 196 -190 217 -118 22 -234 -12
-314 -92 -88 -88 -209 -306 -316 -567 -21 -51 -39 -91 -40 -90 0 2 2 206 7
453 l8 450 -26 23 c-30 26 -90 30 -134 7 -35 -18 -50 -62 -79 -237 -40 -240
-111 -937 -132 -1300 -12 -207 -8 -990 5 -1020 23 -52 173 -77 261 -44 55 22
62 40 68 201 11 245 86 653 183 989 93 323 246 716 347 894 39 69 42 72 49 46
11 -42 27 -305 38 -634 19 -573 44 -892 74 -964 25 -60 146 -86 236 -50 43 17
60 52 60 126 0 65 39 342 66 469 93 443 255 892 452 1254 35 66 71 129 79 140
l15 20 -6 -20 c-3 -11 -16 -112 -30 -225 -109 -896 -97 -1366 43 -1655 46 -95
87 -139 159 -173 48 -22 64 -24 151 -20 148 6 200 43 269 198 35 76 109 297
177 528 l49 162 23 -82 c53 -182 135 -303 241 -355 51 -25 67 -28 162 -28 88
0 113 4 155 23 91 42 152 116 222 272 27 61 43 86 43 70 0 -33 -50 -609 -55
-635 -2 -11 -35 -57 -73 -102 -213 -251 -428 -602 -546 -890 -132 -323 -199
-626 -199 -908 0 -343 74 -470 287 -492 293 -30 518 249 671 832 90 340 158
782 200 1290 8 105 18 223 21 263 l6 73 91 97 c50 53 305 322 567 597 558 586
605 636 682 733 61 78 70 105 39 122 -25 13 -106 13 -130 0 -10 -5 -292 -283
-626 -617 l-607 -608 6 55 c4 30 20 325 36 655 58 1189 58 1146 18 1182 -15
13 -39 19 -97 20 -42 2 -86 -1 -98 -7z m-299 -2782 c-2 -13 -17 -124 -34 -248
-94 -682 -220 -1155 -375 -1401 l-28 -44 -14 39 c-39 113 -40 353 -3 569 46
268 124 504 250 752 72 144 194 355 204 355 2 0 2 -10 0 -22z"/>
<path d="M13365 6465 c-193 -44 -369 -139 -577 -312 -437 -362 -789 -916 -962
-1512 -20 -69 -38 -126 -40 -128 -1 -2 -77 79 -167 179 -499 555 -798 838
-1024 973 -123 74 -224 106 -350 112 -291 15 -468 -98 -564 -361 -186 -514
-35 -1194 402 -1811 260 -367 638 -764 1163 -1223 297 -259 1126 -946 1209
-1002 44 -29 100 -61 125 -71 38 -14 47 -23 56 -55 15 -54 56 -76 153 -82 84
-5 145 8 183 37 31 25 69 104 157 326 70 178 123 354 260 860 38 143 122 435
186 648 300 1004 481 1778 551 2357 25 209 26 547 0 655 -49 211 -149 329
-330 393 -61 21 -92 25 -221 28 -103 2 -169 -1 -210 -11z"/>
<path d="M7847 5825 c-184 -37 -339 -158 -568 -442 -292 -364 -518 -785 -660
-1234 l-43 -135 -141 119 c-159 136 -398 318 -527 401 -303 197 -530 257 -773
204 -142 -31 -228 -119 -241 -246 -16 -154 95 -459 271 -742 247 -397 720
-892 1188 -1243 380 -286 985 -634 1237 -712 47 -14 105 -36 130 -47 54 -25
169 -35 227 -19 85 23 78 1 143 451 32 223 74 504 94 624 49 293 194 1671 226
2134 5 85 10 238 10 340 -1 263 -22 368 -92 447 -84 96 -287 138 -481 100z"/>
<path d="M17384 5200 c-168 -44 -356 -171 -574 -390 -206 -205 -359 -408 -452
-600 -24 -49 -46 -89 -49 -90 -4 0 -67 56 -140 124 -312 289 -493 427 -678
521 -272 137 -592 135 -732 -5 -131 -132 -126 -435 15 -795 97 -248 243 -492
488 -820 288 -385 666 -796 910 -989 l87 -68 -21 -52 c-44 -110 -48 -127 -38
-147 22 -39 69 -54 175 -54 152 0 177 21 314 264 279 495 983 2015 1126 2431
147 429 103 625 -153 679 -78 16 -197 13 -278 -9z"/>
</g>
</svg>
