<?xml version="1.0" encoding="utf-8"?>
<!-- Generator: Adobe Illustrator 25.2.0, SVG Export Plug-In . SVG Version: 6.00 Build 0)  -->
<svg version="1.1" id="Layer_1" xmlns="http://www.w3.org/2000/svg" xmlns:xlink="http://www.w3.org/1999/xlink" x="0px" y="0px"
	 viewBox="0 0 2200 2200" style="enable-background:new 0 0 2200 2200;" xml:space="preserve">
<g>
	<path d="M492.42,1736c3.93,4.66,10.31,10.06,10.31,15.22c0,13.49-3.44,21.59-10.31,24.78c-5.15,2.45-19.14,3.68-41.96,3.68
		c-18.4,0-30.42-1.72-36.56-5.4c-6.14-3.68-9.08-10.8-9.08-21.35c0-2.45,1.47-5.15,4.66-8.1c3.68-3.68,5.89-5.89,6.38-7.11
		c2.21-4.66,5.15-16.44,8.34-35.58c2.94-17.17,5.15-33.37,6.62-48.82c-0.25-16.44-2.45-26.5-6.62-29.94
		c-1.47-0.74-3.44-1.96-6.14-3.68c-1.96-1.96-2.94-4.66-2.94-8.34c0-6.63,4.17-11.78,12.76-14.97c7.11-2.7,15.7-4.17,26.01-3.92
		c14.48,0.24,24.78,1.96,30.67,5.15c5.15,2.7,7.61,6.63,7.61,12.02c0,9.57-8.1,9.82-10.8,16.69c-2.7,7.11-4.42,18.16-4.42,32.88
		v1.23c1.47,13.98,3.92,28.95,6.87,44.41C487.27,1722.26,489.72,1732.81,492.42,1736z M626.87,1667.54
		c-6.63-5.64-18.9-12.76-37.05-21.35c-13.5-6.38-20.12-12.02-20.12-17.17c0-8.59,5.89-13.01,17.91-13.01
		c5.4,0,11.04,4.66,16.68,13.99c5.89,9.32,12.02,13.98,18.4,13.98c9.08,0,13.74-5.89,13.74-17.42c0-20.36-4.42-30.42-13.25-30.42
		c-5.15,0-12.27-0.98-21.59-2.7c-9.08-1.71-16.19-2.7-21.1-2.7c-15.46,0-28.46,3.92-39.01,11.53
		c-12.02,8.59-17.91,20.37-17.91,35.34c0,8.34,3.68,16.68,11.29,25.03c2.21,2.7,9.08,8.83,20.36,18.64
		c7.61,6.38,11.29,11.29,11.29,14.97c0,10.8-5.64,16.2-16.93,16.2c-6.62,0-11.53-0.98-15.21-3.44c-3.44-2.21-6.87-3.68-10.06-3.68
		c-10.06,0-15.21,4.9-15.21,14.72c0,19.63,6.87,34.6,20.86,45.39c12.51,9.57,28.95,14.72,49.07,14.72
		c19.63,0,35.82-6.38,48.58-19.14c13-12.76,19.38-28.95,19.38-48.83C646.99,1694.05,640.37,1679.08,626.87,1667.54z M842.77,1597.61
		c-6.14-3.19-16.2-4.91-30.67-5.15c-10.55-0.25-19.14,1.23-26.01,3.92c-8.59,3.19-12.76,8.34-12.76,14.97c0,3.68,0.98,6.38,2.7,8.34
		c2.7,1.72,4.66,2.95,6.14,3.68c4.17,3.44,6.38,13.5,6.62,30.18c0,0.49,0.25,0.98,0.49,1.47c0.74,13.5,0.98,22.09,0.98,26.01
		c0,25.27-6.38,37.79-19.38,37.79c-5.15,0-9.57-3.19-13.01-9.32c-3.19-6.14-7.11-9.32-11.78-9.32c-1.47,0-3.19,0.25-5.15,0.74
		c-4.17,0.74-7.61,4.9-10.31,12.51c-2.21,6.14-3.44,11.54-3.44,16.2c0,17.18,5.15,30.18,15.7,39.01
		c9.81,8.35,23.56,12.51,40.97,12.51c35.09,0,55.7-21.1,55.7-56.43c0-7.85-0.74-18.89-1.96-32.88c-1.46-15.63-2.44-26.63-2.69-33.02
		c0.03-14.52,1.49-25.44,4.41-32.49c2.94-6.63,10.8-7.36,10.8-16.69C850.13,1604.24,847.68,1600.31,842.77,1597.61z
		 M1015.01,1595.65c-5.15-2.21-11.04-3.19-17.67-3.19c-25.76,0-38.77,6.38-38.77,18.89c0,4.42,1.96,7.85,6.14,10.06
		c4.66,2.7,7.36,8.34,8.59,16.93c0.98,7.11,1.47,16.68,1.47,29.2c0,24.29-6.62,32.88-30.18,32.88c-13.99,0-23.07-3.68-27.24-11.29
		c-2.7-5.15-4.17-15.46-4.42-30.43l0.25,0.49c0-15.46,1.47-26.26,4.17-32.88c0.74-1.72,3.19-4.42,6.87-7.61
		c2.7-2.45,4.17-5.4,4.17-9.08c0-11.53-13.5-17.17-40.24-17.17c-8.83,0-16.44,1.23-22.82,3.43c-9.32,3.19-13.98,8.35-13.98,15.46
		c0,3.68,1.47,6.38,4.17,8.59c3.68,2.94,6.38,5.64,7.61,8.34c2.7,5.64,3.93,14.23,3.93,26.26c0,5.4-0.25,13.49-0.98,24.29
		c-0.49,10.8-0.74,18.89-0.74,24.29c0,28.22,6.14,47.85,18.4,59.13c11.78,11.04,32.14,16.44,61.09,16.44
		c15.95,0,30.92-7.11,44.9-21.35c13.99-14.48,20.86-29.44,20.86-45.39c0-5.64-0.25-13.74-0.49-24.78
		c-0.25-11.04-0.25-19.38-0.25-25.03c0-17.42,1.47-29.69,4.42-36.81c0.74-1.72,2.94-4.17,6.62-7.36c2.7-2.45,4.17-5.4,4.17-9.08
		C1025.07,1603.02,1021.63,1598.6,1015.01,1595.65z M1139.64,1667.54c-6.63-5.64-18.9-12.76-37.05-21.35
		c-13.5-6.38-20.12-12.02-20.12-17.17c0-8.59,5.89-13.01,17.91-13.01c5.4,0,11.04,4.66,16.68,13.99
		c5.89,9.32,12.02,13.98,18.4,13.98c9.08,0,13.74-5.89,13.74-17.42c0-20.36-4.42-30.42-13.25-30.42c-5.15,0-12.27-0.98-21.59-2.7
		c-9.08-1.71-16.19-2.7-21.1-2.7c-15.46,0-28.46,3.92-39.01,11.53c-12.02,8.59-17.91,20.37-17.91,35.34
		c0,8.34,3.68,16.68,11.29,25.03c2.21,2.7,9.08,8.83,20.36,18.64c7.61,6.38,11.29,11.29,11.29,14.97c0,10.8-5.64,16.2-16.93,16.2
		c-6.62,0-11.53-0.98-15.21-3.44c-3.44-2.21-6.87-3.68-10.06-3.68c-10.06,0-15.21,4.9-15.21,14.72c0,19.63,6.87,34.6,20.86,45.39
		c12.51,9.57,28.95,14.72,49.07,14.72c19.63,0,35.82-6.38,48.58-19.14c13-12.76,19.38-28.95,19.38-48.83
		C1159.76,1694.05,1153.13,1679.08,1139.64,1667.54z M1271.63,1590.74c-2.21,0-5.64,2.45-7.36,2.7c-9.32,0.74-27.73,1.23-55.21,1.23
		c-2.21,0-5.64-0.49-10.3-1.71c-4.66-1.23-8.1-1.96-10.31-1.96c-6.38,0-12.02,4.66-16.93,13.98c-4.42,8.1-6.62,15.7-6.62,23.07
		c0,7.11,0.49,11.77,1.72,14.23c1.72,3.92,5.64,5.89,11.78,5.89c7.11,0,12.76-1.97,16.44-5.89c1.72-1.72,3.93-5.4,6.14-11.04
		c1.72-3.93,3.44-5.89,5.64-5.89c0,0,1.23,0.49,3.68,1.48c-0.24,13.98-0.74,22.82-0.98,26.5c-1.23,14.48-3.44,30.67-6.62,48.82
		c-3.19,18.9-6.13,30.92-8.59,35.58c-0.49,1.23-2.7,3.44-6.38,7.11c-3.19,2.95-4.66,5.64-4.66,8.1c0,10.55,2.94,17.67,9.08,21.35
		c6.13,3.68,18.4,5.4,36.56,5.4c22.82,0,36.8-1.23,41.96-3.68c6.87-3.19,10.3-11.29,10.3-24.78c0-5.16-6.38-10.31-10.3-15.22
		c-2.45-2.7-4.66-12.27-7.61-27.73c-2.7-13.74-4.66-27.73-6.62-42.2l-1.23-9.08l-3.44-31.16c1.72-0.74,2.45-0.98,2.45-0.98
		c3.68,0,7.61,3.93,11.29,11.78c3.68,7.61,8.59,11.54,14.48,11.54c10.55,0,15.7-6.87,15.7-20.86c0-7.61-2.21-15.46-6.38-23.06
		C1284.39,1595.16,1278.5,1590.74,1271.63,1590.74z M1470.35,1636.63c3.68,7.61,8.59,11.54,14.48,11.54
		c10.55,0,15.7-6.87,15.7-20.86c0-7.61-2.21-15.46-6.38-23.06c-4.91-9.08-10.8-13.5-17.67-13.5c-2.21,0-5.64,2.45-7.36,2.7
		c-9.32,0.74-27.73,1.23-55.21,1.23c-2.21,0-5.64-0.49-10.3-1.71c-4.66-1.23-8.1-1.96-10.31-1.96c-6.38,0-12.02,4.66-16.93,13.98
		c-4.42,8.1-6.62,15.7-6.62,23.07c0,7.11,0.49,11.77,1.72,14.23c1.72,3.92,5.64,5.89,11.78,5.89c7.11,0,12.76-1.97,16.44-5.89
		c1.72-1.72,3.93-5.4,6.14-11.04c1.72-3.93,3.44-5.89,5.64-5.89c0,0,1.23,0.49,3.68,1.48c-0.24,13.98-0.74,22.82-0.98,26.5
		c-1.23,14.48-3.44,30.67-6.62,48.82c-3.19,18.9-6.13,30.92-8.59,35.58c-0.49,1.23-2.7,3.44-6.38,7.11
		c-3.19,2.95-4.66,5.64-4.66,8.1c0,10.55,2.94,17.67,9.08,21.35c6.13,3.68,18.4,5.4,36.56,5.4c22.82,0,36.8-1.23,41.96-3.68
		c6.87-3.19,10.3-11.29,10.3-24.78c0-5.16-6.38-10.31-10.3-15.22c-2.45-2.7-4.66-12.27-7.61-27.73c-2.7-13.74-4.66-27.73-6.62-42.2
		l-1.23-9.08l-3.44-31.16c1.72-0.74,2.45-0.98,2.45-0.98C1462.75,1624.85,1466.67,1628.78,1470.35,1636.63z M1661.73,1656.75
		c0-11.04,1.23-19.87,3.93-26.74c1.47-3.93,3.92-8.1,7.36-12.27c2.7-3.19,3.93-5.89,3.93-8.1c0-11.53-13.5-17.17-40.24-17.17
		c-8.84,0-16.44,1.23-23.07,3.43c-9.08,3.19-13.5,8.35-13.5,15.46c0,4.66,2.21,8.34,6.62,10.8c4.66,2.7,6.87,7.61,6.87,15.21
		c0,5.4-2.45,8.83-7.12,10.06c-1.72,0.49-6.13,0.74-13.74,0.74c-7.85,0-13.01-0.49-15.21-1.23c-4.66-1.72-7.11-5.89-7.11-12.27
		c0-4.66,2.21-9.32,6.62-13.49c4.42-4.17,6.62-8.1,6.62-11.54c0-11.53-13.5-17.17-40.24-17.17c-9.08,0-16.68,1.23-23.07,3.43
		c-9.08,3.19-13.74,8.35-13.74,15.46c0,4.42,1.47,7.36,4.17,9.08c4.42,2.7,6.87,4.42,7.61,5.16c2.7,3.68,3.92,9.81,3.68,18.4
		l-0.25,9.32c-0.49,0-1.96,11.53-4.42,34.6c-2.7,25.03-6.38,41.71-10.8,49.81c-0.49,1.23-2.7,3.44-6.62,7.11
		c-2.94,2.95-4.42,5.64-4.42,8.1c0,12.27,4.91,20.12,14.48,23.8c5.15,1.96,15.7,2.95,31.16,2.95c2.45,0,5.89,0,10.3,0.24
		c4.66,0.25,7.85,0.25,9.82,0.25c10.55,0,18.16-1.72,22.82-4.91c6.14-4.17,9.32-12.27,9.32-24.04c0-2.7-1.72-6.14-5.4-9.82
		c-4.17-4.42-6.38-7.85-7.12-10.06c-0.74-2.95-1.23-11.78-1.23-26.75c0-10.3,0.49-16.68,1.47-18.89c1.72-5.15,6.87-7.61,14.97-7.61
		c7.85,0,9.57,3.19,9.57,11.04c0,5.64,0.74,14.23,1.96,25.27c1.23,11.04,1.96,19.38,1.96,25.03c0,1.96-1.96,4.91-6.14,8.83
		c-4.17,3.68-6.13,7.36-6.13,10.8c0,9.82,5.15,15.95,15.7,18.4c3.19,0.74,12.27,0.98,27.73,0.98c32.63,0,48.83-6.14,48.83-18.4
		c0-6.14-4.66-13.99-13.74-23.8C1666.39,1705.08,1661.73,1678.59,1661.73,1656.75z M1836.89,1721.77
		c-0.49-6.87-0.49-11.04-0.49-12.76c0-5.64-4.17-13.98-9.08-13.98c-1.72,0-3.93,1.96-6.62,5.89c-2.7,3.92-5.89,5.89-10.06,5.89
		c-0.74,0-1.72,0-2.95-0.25c-2.21-0.74-7.61,0.98-9.57,0.98c-23.8,0-35.58-10.3-35.58-30.67c0-8.58,2.7-13,7.85-13
		c4.66,0,8.1,1.96,10.31,6.13c2.45,4.17,4.91,6.14,7.61,6.14c4.17,0,7.11-3.68,9.32-11.04c1.47-5.15,2.21-10.8,2.21-16.44
		c0-3.68-1.23-5.4-3.68-5.4c-2.7,0-6.87,5.4-9.57,5.4c-6.62,0-12.27-1.47-16.93-4.42c-5.4-3.43-8.1-7.85-8.1-13.25
		c0-1.23,0.24-2.21,0.49-3.43c0.74-3.19,1.72-5.15,3.44-5.89h5.4c11.78,0,20.61,2.21,26.74,6.38c2.45,1.71,5.89,5.4,10.55,11.53
		c3.19,4.17,6.87,6.14,11.29,6.14c4.66,0,8.1-2.21,10.8-6.38c1.96-3.43,2.95-7.61,2.95-12.76c0-8.1-1.47-15.46-4.42-22.33
		c-3.93-8.83-9.32-13.25-16.44-13.25c-5.15,0-14.23,0.49-26.74,1.22c-12.51,0.74-21.59,1.23-27.24,1.23
		c-4.17,0-14.23-0.98-18.16-0.98c-10.31-0.25-18.89,1.23-26.01,3.92c-8.59,3.19-12.76,8.34-12.76,14.97c0,3.68,0.98,6.38,2.95,8.34
		c2.7,1.72,4.66,2.95,6.13,3.68c2.94,2.21,5.15,7.61,5.89,16.2c0.49,4.17,0,8.83-0.25,14.23l-1.96,63.3
		c-0.49,14.97-1.96,24.29-4.17,27.97l-4.66,7.36c-0.49,0.98-2.7,3.43-6.87,7.61c-2.45,2.45-3.68,5.15-3.68,8.34
		c0,7.85,4.17,12.02,12.51,12.02l46.13,0.24c6.62,0,13.5,0.25,20.61,0c8.59-0.24,15.21-0.24,20.12-0.24
		c17.67,0,27.97-0.98,31.16-3.19c8.1-5.89,12.27-18.89,12.27-38.77C1837.63,1734.04,1837.14,1728.39,1836.89,1721.77z"/>
	<path d="M341.17,1910.47c9.23-12.86,19.78-24.73,19.78-42.21c0-16.16-7.58-28.36-23.08-36.6c-12.2-6.59-27.04-9.89-44.52-9.89
		c-1.65,0-5.93,0-12.86-0.33c-6.93-0.33-12.53-0.33-17.48-0.33c-42.87,0-64.63,7.59-65.29,22.42c-0.33,5.6,0.99,9.89,3.3,12.53
		l11.54,9.9l1.32,0.66c4.95,8.57,7.91,20.78,7.58,36.93c0,12.86-1.98,28.36-5.94,46.83c-3.3,15.17-6.92,30.33-10.22,45.83
		c-1.98,10.22-6.59,18.47-13.85,24.73c-6.26,5.6-9.56,12.2-9.56,19.45c0,1.65,0,3.63,0.33,5.94c1.32,12.53,16.16,20.44,44.84,24.07
		c8.9,0.99,28.36,1.65,58.03,1.65c72.87,0,109.47-27.04,109.47-81.11c0-22.1-6.26-40.56-19.12-56.06
		C365.9,1922.99,354.36,1914.75,341.17,1910.47z M278.52,1867.27c0-8.57,2.97-12.86,8.57-12.86c9.56,0,16.82,10.22,16.82,20.45
		c0,16.48-5.6,24.73-17.15,24.73c-2.97,0-4.95-4.62-6.59-13.52C279.18,1879.8,278.52,1873.53,278.52,1867.27z M295.34,1987.3
		c-8.9,0-12.2-7.59-11.54-22.42l1.32-24.73c0.33-4.62,3.3-6.93,9.56-6.93c14.18,0,21.1,9.23,21.1,28.03
		C315.78,1978.72,308.86,1987.3,295.34,1987.3z M589.78,1995.87c0.33,8.9,0.99,16.49,0.99,22.42c0,26.71-5.61,44.18-16.49,52.1
		c-4.29,2.97-18.14,4.29-41.88,4.29c-6.59,0-15.5,0-27.04,0.33c-9.56,0.33-18.8,0-27.7,0l-61.99-0.33
		c-11.21,0-16.82-5.61-16.82-16.16c0-4.28,1.65-7.91,4.95-11.21c5.61-5.61,8.57-8.9,9.23-10.22l6.27-9.89
		c2.97-4.95,4.95-17.48,5.6-37.59l2.64-85.07c0.33-7.25,0.99-13.52,0.33-19.12c-0.99-11.55-3.96-18.8-7.91-21.76
		c-1.98-0.99-4.62-2.64-8.24-4.95c-2.64-2.64-3.96-6.26-3.96-11.21c0-8.9,5.61-15.83,17.15-20.11c9.56-3.63,21.1-5.61,34.95-5.28
		c5.28,0,18.79,1.32,24.4,1.32c7.58,0,19.78-0.66,36.6-1.65c16.82-0.99,29.02-1.65,35.94-1.65c9.56,0,16.82,5.94,22.09,17.81
		c3.96,9.23,5.94,19.12,5.94,30.01c0,6.93-1.32,12.53-3.96,17.14c-3.63,5.61-8.24,8.57-14.51,8.57c-5.94,0-10.88-2.64-15.17-8.24
		c-6.27-8.25-10.88-13.19-14.18-15.5c-8.24-5.6-20.11-8.57-35.94-8.57h-7.26c-2.31,0.99-3.63,3.63-4.62,7.91
		c-0.33,1.65-0.66,2.97-0.66,4.62c0,7.26,3.63,13.19,10.88,17.81c6.26,3.95,13.85,5.94,22.75,5.94c3.63,0,9.23-7.26,12.86-7.26
		c3.3,0,4.95,2.31,4.95,7.26c0,7.58-0.99,15.17-2.97,22.09c-2.97,9.89-6.92,14.84-12.53,14.84c-3.63,0-6.93-2.64-10.22-8.25
		c-2.97-5.6-7.59-8.24-13.85-8.24c-6.93,0-10.55,5.94-10.55,17.48c0,27.37,15.83,41.22,47.81,41.22c2.64,0,9.89-2.31,12.86-1.32
		c1.65,0.33,2.97,0.33,3.96,0.33c5.61,0,9.89-2.64,13.52-7.91c3.63-5.28,6.59-7.91,8.9-7.91c6.59,0,12.2,11.21,12.2,18.8
		C589.13,1981.03,589.13,1986.64,589.78,1995.87z M815.98,1921.02c0.33,4.95-1.32,9.24-4.62,13.52l-7.91,10.55
		c-2.97,7.58-3.96,14.83-2.64,22.09c4.95,26.05,7.26,44.18,7.26,54.08c0,4.29-0.66,7.25-1.98,8.57c-2.97,2.97-7.58,5.28-13.52,6.26
		c-5.94,0.99-9.56,1.98-10.55,2.97c-18.8,14.84-31,23.74-35.94,26.38c-10.88,5.61-26.38,8.25-46.49,8.25
		c-30.01,0-54.74-13.85-73.86-41.22c-17.15-24.4-25.72-52.43-25.72-84.09c0-31.98,9.23-60.67,27.7-86.06
		c20.45-28.36,46.17-42.53,77.49-42.53c4.62,0,11.21,0.99,19.78,3.3c8.9,2.31,15.17,3.29,19.45,3.29c4.29,0,15.5-5.93,19.78-5.93
		c6.93,0,12.2,3.95,15.83,12.2c2.64,6.26,3.96,13.19,3.96,20.77c0,13.19-0.99,22.42-2.97,28.03c-3.63,9.24-10.88,13.85-21.76,13.85
		c-8.9,0-15.17-2.97-19.13-8.57l-8.24-16.49c-4.29-5.6-10.88-8.57-19.79-8.57c-10.22,0-18.79,5.28-26.38,16.16
		c-6.92,9.89-10.55,20.11-10.55,30.34c0,15.17,6.27,26.71,19.13,34.62c10.22,6.26,23.41,9.23,39.24,9.23
		c8.9,0,13.52-2.97,13.52-9.23c0-1.98-2.31-4.62-6.59-7.91c-4.29-3.3-6.59-6.6-6.59-9.89c0-9.24,12.2-13.85,36.93-13.85
		c-0.33,0,10.55-0.99,17.48-0.99C806.41,1910.14,815.65,1913.76,815.98,1921.02z M936.65,2014.99c5.28,6.26,13.85,13.52,13.85,20.44
		c0,18.14-4.62,29.02-13.85,33.3c-6.93,3.3-25.72,4.95-56.39,4.95c-24.73,0-40.89-2.31-49.13-7.25c-8.24-4.95-12.2-14.51-12.2-28.69
		c0-3.3,1.98-6.93,6.26-10.88c4.95-4.94,7.91-7.91,8.57-9.56c2.97-6.27,6.92-22.1,11.21-47.82c3.96-23.08,6.93-44.84,8.9-65.62
		c-0.33-22.09-3.3-35.61-8.9-40.23c-1.98-0.99-4.62-2.64-8.24-4.95c-2.64-2.64-3.96-6.26-3.96-11.21c0-8.9,5.61-15.83,17.15-20.11
		c9.56-3.63,21.1-5.61,34.95-5.28c19.45,0.33,33.3,2.64,41.22,6.93c6.92,3.63,10.22,8.9,10.22,16.16
		c0,12.86-10.88,13.19-14.51,22.42c-3.63,9.56-5.93,24.4-5.93,44.19v1.65c1.98,18.79,5.28,38.91,9.23,59.68
		C929.72,1996.53,933.02,2010.71,936.65,2014.99z M1203.73,1845.18c0,12.86-10.55,13.19-14.51,22.42l-7.91,14.18
		c-4.62,7.91-5.93,17.14-5.93,27.37c0-0.33,0,0.99,0,4.29c0.33,12.2,3.95,30.33,10.22,54.74c5.93,23.41,8.9,41.55,8.9,54.41
		c0,17.14-1.32,29.02-4.29,35.61c-4.62,10.22-14.18,15.5-28.69,15.5c-16.16,0-30.67-10.55-43.53-31.33
		c-3.3-5.6-12.2-24.73-27.04-58.03c-9.24-20.78-17.48-31.33-25.06-31.33c-2.31,0-3.63,1.98-3.63,5.61c0,5.6,1.65,15.49,5.94,30.33
		c3.96,14.51,7.25,23.41,9.56,26.38l7.58,9.24c2.97,3.63,5.28,7.25,5.93,10.88c0.66,4.29,0.99,8.25,0.99,11.87
		c0,9.56-3.63,16.48-10.55,20.44c-5.6,2.97-15.83,5.28-30.66,5.6c-6.93,1.32-21.76,1.32-44.51,1.32c-8.9,0-17.81-1.65-27.04-5.28
		c-8.24-2.97-13.52-6.93-16.16-12.2c-2.31-3.63-3.63-8.24-3.63-13.19v-6.26c0-2.97,1.32-5.94,4.29-8.9l7.58-7.59
		c6.59-25.06,11.21-48.47,14.18-69.9c2.31-17.48,3.96-33.3,4.95-47.48c1.32-20.78-1.65-34.29-8.9-40.23
		c-1.98-0.99-4.62-2.64-8.24-4.95c-2.64-2.64-3.95-6.26-3.95-11.21c0-8.9,5.6-15.83,17.14-20.11c9.24-3.63,20.78-5.61,34.95-5.28
		c24.07,0.33,39.24,3.95,46.16,10.22c10.22,6.93,19.78,23.09,28.03,48.8c9.23,27.7,18.14,45.83,27.04,54.41
		c2.31,1.98,4.62,2.64,7.26,1.64c2.64-3.29,3.96-8.24,3.96-14.51c0-2.31-0.33-6.26-0.99-11.21v-1.65l-0.33-0.66
		c-0.66-5.28-1.32-10.88-2.31-16.82c-3.63-12.2-9.89-21.76-18.14-28.69c-1.98-0.99-4.62-2.64-8.24-4.95
		c-2.31-2.64-3.63-6.26-3.63-11.21c0-8.9,5.61-15.83,17.15-20.11c9.23-3.63,20.78-5.61,34.95-5.28c19.45,0.33,32.97,2.64,41.22,6.93
		C1200.43,1832.65,1203.73,1837.93,1203.73,1845.18z M1452.67,1845.18c0,12.86-10.55,13.19-14.51,22.42l-7.91,14.18
		c-4.62,7.91-5.93,17.14-5.93,27.37c0-0.33,0,0.99,0,4.29c0.33,12.2,3.95,30.33,10.22,54.74c5.93,23.41,8.9,41.55,8.9,54.41
		c0,17.14-1.32,29.02-4.29,35.61c-4.62,10.22-14.18,15.5-28.69,15.5c-16.16,0-30.67-10.55-43.53-31.33
		c-3.3-5.6-12.2-24.73-27.04-58.03c-9.24-20.78-17.48-31.33-25.06-31.33c-2.31,0-3.63,1.98-3.63,5.61c0,5.6,1.65,15.49,5.94,30.33
		c3.96,14.51,7.25,23.41,9.56,26.38l7.58,9.24c2.97,3.63,5.28,7.25,5.93,10.88c0.66,4.29,0.99,8.25,0.99,11.87
		c0,9.56-3.63,16.48-10.55,20.44c-5.6,2.97-15.83,5.28-30.66,5.6c-6.93,1.32-21.76,1.32-44.51,1.32c-8.9,0-17.81-1.65-27.04-5.28
		c-8.24-2.97-13.52-6.93-16.16-12.2c-2.31-3.63-3.63-8.24-3.63-13.19v-6.26c0-2.97,1.32-5.94,4.29-8.9l7.58-7.59
		c6.59-25.06,11.21-48.47,14.18-69.9c2.31-17.48,3.96-33.3,4.95-47.48c1.32-20.78-1.65-34.29-8.9-40.23
		c-1.98-0.99-4.62-2.64-8.24-4.95c-2.64-2.64-3.95-6.26-3.95-11.21c0-8.9,5.6-15.83,17.14-20.11c9.24-3.63,20.78-5.61,34.95-5.28
		c24.07,0.33,39.24,3.95,46.16,10.22c10.22,6.93,19.78,23.09,28.03,48.8c9.23,27.7,18.14,45.83,27.04,54.41
		c2.31,1.98,4.62,2.64,7.26,1.64c2.64-3.29,3.96-8.24,3.96-14.51c0-2.31-0.33-6.26-0.99-11.21v-1.65l-0.33-0.66
		c-0.66-5.28-1.32-10.88-2.31-16.82c-3.63-12.2-9.89-21.76-18.14-28.69c-1.98-0.99-4.62-2.64-8.24-4.95
		c-2.31-2.64-3.63-6.26-3.63-11.21c0-8.9,5.61-15.83,17.15-20.11c9.23-3.63,20.78-5.61,34.95-5.28c19.45,0.33,32.97,2.64,41.22,6.93
		C1449.37,1832.65,1452.67,1837.93,1452.67,1845.18z M1575.32,2014.99c5.28,6.26,13.85,13.52,13.85,20.44
		c0,18.14-4.62,29.02-13.85,33.3c-6.93,3.3-25.72,4.95-56.39,4.95c-24.73,0-40.89-2.31-49.13-7.25c-8.24-4.95-12.2-14.51-12.2-28.69
		c0-3.3,1.98-6.93,6.26-10.88c4.95-4.94,7.91-7.91,8.57-9.56c2.97-6.27,6.92-22.1,11.21-47.82c3.96-23.08,6.93-44.84,8.9-65.62
		c-0.33-22.09-3.3-35.61-8.9-40.23c-1.98-0.99-4.62-2.64-8.24-4.95c-2.64-2.64-3.96-6.26-3.96-11.21c0-8.9,5.61-15.83,17.15-20.11
		c9.56-3.63,21.1-5.61,34.95-5.28c19.45,0.33,33.3,2.64,41.22,6.93c6.92,3.63,10.22,8.9,10.22,16.16
		c0,12.86-10.88,13.19-14.51,22.42c-3.63,9.56-5.93,24.4-5.93,44.19v1.65c1.98,18.79,5.28,38.91,9.23,59.68
		C1568.39,1996.53,1571.69,2010.71,1575.32,2014.99z M1842.4,1845.18c0,12.86-10.55,13.19-14.51,22.42l-7.91,14.18
		c-4.62,7.91-5.93,17.14-5.93,27.37c0-0.33,0,0.99,0,4.29c0.33,12.2,3.95,30.33,10.22,54.74c5.93,23.41,8.9,41.55,8.9,54.41
		c0,17.14-1.32,29.02-4.29,35.61c-4.62,10.22-14.18,15.5-28.69,15.5c-16.16,0-30.67-10.55-43.53-31.33
		c-3.3-5.6-12.2-24.73-27.04-58.03c-9.24-20.78-17.48-31.33-25.06-31.33c-2.31,0-3.63,1.98-3.63,5.61c0,5.6,1.65,15.49,5.94,30.33
		c3.96,14.51,7.25,23.41,9.56,26.38l7.58,9.24c2.97,3.63,5.28,7.25,5.93,10.88c0.66,4.29,0.99,8.25,0.99,11.87
		c0,9.56-3.63,16.48-10.55,20.44c-5.6,2.97-15.83,5.28-30.66,5.6c-6.93,1.32-21.76,1.32-44.51,1.32c-8.9,0-17.81-1.65-27.04-5.28
		c-8.24-2.97-13.52-6.93-16.16-12.2c-2.31-3.63-3.63-8.24-3.63-13.19v-6.26c0-2.97,1.32-5.94,4.29-8.9l7.58-7.59
		c6.59-25.06,11.21-48.47,14.18-69.9c2.31-17.48,3.96-33.3,4.95-47.48c1.32-20.78-1.65-34.29-8.9-40.23
		c-1.98-0.99-4.62-2.64-8.24-4.95c-2.64-2.64-3.95-6.26-3.95-11.21c0-8.9,5.6-15.83,17.14-20.11c9.24-3.63,20.78-5.61,34.95-5.28
		c24.07,0.33,39.24,3.95,46.16,10.22c10.22,6.93,19.78,23.09,28.03,48.8c9.23,27.7,18.14,45.83,27.04,54.41
		c2.31,1.98,4.62,2.64,7.26,1.64c2.64-3.29,3.96-8.24,3.96-14.51c0-2.31-0.33-6.26-0.99-11.21v-1.65l-0.33-0.66
		c-0.66-5.28-1.32-10.88-2.31-16.82c-3.63-12.2-9.89-21.76-18.14-28.69c-1.98-0.99-4.62-2.64-8.24-4.95
		c-2.31-2.64-3.63-6.26-3.63-11.21c0-8.9,5.61-15.83,17.15-20.11c9.23-3.63,20.78-5.61,34.95-5.28c19.45,0.33,32.97,2.64,41.22,6.93
		C1839.1,1832.65,1842.4,1837.93,1842.4,1845.18z M2052.76,1945.09c-2.97,7.58-3.96,14.83-2.64,22.09
		c4.95,26.05,7.26,44.18,7.26,54.08c0,4.29-0.66,7.25-1.98,8.57c-2.97,2.97-7.58,5.28-13.52,6.26c-5.94,0.99-9.56,1.98-10.55,2.97
		c-18.8,14.84-31,23.74-35.94,26.38c-10.88,5.61-26.38,8.25-46.49,8.25c-30.01,0-54.74-13.85-73.86-41.22
		c-17.15-24.4-25.72-52.43-25.72-84.09c0-31.98,9.23-60.67,27.7-86.06c20.45-28.36,46.17-42.53,77.49-42.53
		c4.62,0,11.21,0.99,19.78,3.3c8.9,2.31,15.17,3.29,19.45,3.29c4.29,0,15.5-5.93,19.78-5.93c6.93,0,12.2,3.95,15.83,12.2
		c2.64,6.26,3.96,13.19,3.96,20.77c0,13.19-0.99,22.42-2.97,28.03c-3.63,9.24-10.88,13.85-21.76,13.85c-8.9,0-15.17-2.97-19.13-8.57
		l-8.24-16.49c-4.29-5.6-10.88-8.57-19.79-8.57c-10.22,0-18.79,5.28-26.38,16.16c-6.92,9.89-10.55,20.11-10.55,30.34
		c0,15.17,6.27,26.71,19.13,34.62c10.22,6.26,23.41,9.23,39.24,9.23c8.9,0,13.52-2.97,13.52-9.23c0-1.98-2.31-4.62-6.59-7.91
		c-4.29-3.3-6.59-6.6-6.59-9.89c0-9.24,12.2-13.85,36.93-13.85c-0.33,0,10.55-0.99,17.48-0.99c18.14,0,27.37,3.63,27.7,10.88
		c0.33,4.95-1.32,9.24-4.62,13.52L2052.76,1945.09z"/>
	<path d="M1586.07,1484.09c0,0.26,1.04,2.66,2.26,5.29c2.22,4.73,4.98,13.58,4.98,15.99c0,2.45-2.67,4.43-7.83,5.84
		c-1.58,0.43-2.85,1.07-3.26,1.63c-0.32,0.52-1.04,3.35-1.58,6.32c-1.86,10.66-5.34,20.37-9.37,26.13
		c-4.12,5.89-6.65,6.96-16.83,6.96c-10.68,0-16.15,0.6-23.57,2.58c-10.14,2.71-15.3,2.41-16.79-0.95
		c-0.73-1.68-0.27-7.86,0.91-12.03c1.22-4.51,2.76-8.04,5.7-13.06c2.58-4.47,5.79-12.12,6.6-15.64c0.45-2.02,0.36-2.36-2.35-8.9
		c-1.54-3.74-3.94-8.94-5.34-11.52c-2.08-3.91-2.53-5.2-2.67-7.48c-0.27-3.65,0.5-6.7,2.9-11.69c1.58-3.26,1.99-4.64,1.99-6.45
		c0-4.43-2.76-12.42-8.96-25.95c-7.92-17.27-11.67-30.17-12.76-43.4c-1.58-20.2-1.9-21.53-7.87-33.3
		c-10.32-20.33-12.08-26.73-13.85-50.02c-0.9-11.56-3.26-17.57-11.86-30.34c-8.87-13.19-12.67-19.12-14.89-22.99
		c-4.84-8.64-13.8-29.26-17.83-41.04c-1.4-4.13-3.8-11.09-5.3-15.47c-3.35-9.71-10.31-25.48-10.99-24.84
		c-0.14,0.09,0.18,2.19,0.68,4.68c2.13,10.74,2.58,21.06,1.85,41.43c-1.54,44.22-1.85,50.84-3.21,64.03
		c-1.22,12.12-1.77,20.93-2.08,34.81c-0.41,16.07,0.32,24.15,3.89,44.91c1.94,11.17,4.21,27.59,5.02,36.48
		c0.54,6.23,0.36,20.93-0.5,32.62c-0.32,4.94-0.36,10.1,0,17.4c0.5,11.34,1.09,15.86,3.26,23.72c1.36,4.81,1.45,5.63,1.4,12.25
		c0,3.91-0.09,9.5-0.18,12.46l-0.18,5.37l2.13,4.3c2.44,4.98,3.53,8.25,3.53,10.66c0,4.68-7.47,10.87-14.98,12.5
		c-1.58,0.35-6.47,0.73-10.81,0.9c-4.34,0.13-11.67,0.51-16.29,0.86c-4.62,0.39-17.92,0.95-29.64,1.25
		c-23.67,0.69-34.26,0.47-44.8-1.03c-3.49-0.52-10-1.07-14.48-1.33c-9.82-0.47-14.66-1.03-19.46-2.11
		c-9.46-2.11-10.72-3.39-7.96-7.95c3.17-5.24,6.74-7.05,16.92-8.6c2.44-0.34,6.61-1.16,9.28-1.76c2.67-0.56,7.69-1.46,11.18-1.93
		c10.59-1.46,13.3-2.28,18.28-5.46c6.42-4.08,6.11-3.48,5.7-10.66c-0.32-6.88-0.18-7.52,2.98-10.78c0.95-0.95,1.95-2.58,2.26-3.61
		c0.54-1.68,0.5-2.06-0.68-5.07c-3.21-8.16-3.48-10.78-2.13-19.89c1.49-9.88,1.54-11.86,0.5-23.76
		c-1.27-14.27-1.09-30.64,0.45-43.62c0.81-6.66,0.95-9.75,0.72-15.04c-0.41-10.7-2.67-26.64-5.97-41.68
		c-4.21-19.17-3.89-16.97-3.67-26.43c0.09-4.73,0.05-10.4-0.18-12.59c-0.5-4.98-3.08-21.01-5.2-32.01
		c-6.33-33.22-6.83-38.12-6.11-60.03c0.27-7.69,0.77-18.82,1.18-24.71c0.36-5.93,0.86-16.16,1.13-22.78
		c0.99-25.22,1.76-32.79,5.61-56.29c1.31-7.86,2.17-15.6,3.21-28.15c1.31-16.11,2.44-22.73,5.66-33.65
		c0.72-2.41,2.13-7.52,3.17-11.39c4.43-16.89,4.39-16.16,2.71-40.95c-0.63-9.41,0.09-30.73,1.36-40.09
		c0.5-3.7,1.63-10.18,2.49-14.35c2.44-11.9,2.94-15.64,2.94-23.08c0-7.22-0.68-14.74-2.22-24.06c-0.5-3.09-1.22-8.59-1.63-12.25
		c-1.45-13.84-3.08-21.19-5.88-26.86c-0.86-1.63-3.89-6.7-6.83-11.17c-2.9-4.51-7.69-12.16-10.63-17.06
		c-2.94-4.9-6.2-10.19-7.24-11.78c-2.44-3.82-6.42-10.53-12.62-21.23c-12.49-21.57-18.15-29.22-35.52-47.91
		c-3.49-3.78-8.69-9.5-11.54-12.68c-8.06-9.07-13.76-15.08-21.54-22.82c-3.98-3.91-8.55-8.94-10.27-11.17
		c-2.94-3.91-11.99-20.33-18.19-33.04c-5.57-11.34-9.95-18.74-22.76-38.24c-11.04-16.76-17.6-28.53-22.49-40.18
		c-1.22-2.84-3.17-6.75-4.39-8.68c-2.81-4.51-2.81-5.24,0.05-7.3c1.27-0.9,2.26-1.76,2.26-1.89c0.05-0.17-0.54-0.86-1.22-1.59
		c-1.54-1.55-3.35-2.06-9.19-2.58c-4.71-0.43-8.19-1.63-11.27-3.95l-1.72-1.29l-2.62,1.12c-3.08,1.29-13.12,6.75-18.15,9.84
		c-5.61,3.52-5.25,1.93-4.57,18.91c0.32,8.04,0.59,20.88,0.63,28.58c0.05,10.91,0.18,14.83,0.77,17.83
		c0.41,2.11,1.27,7.82,1.86,12.68c0.63,4.86,1.36,9.75,1.58,10.96c0.23,1.16,0.32,2.28,0.23,2.4c-0.09,0.17,0.77,0.65,1.95,1.07
		c6.97,2.41,15.02,6.14,19.64,9.02c4.53,2.84,8.15,6.75,10.59,11.43c2.53,4.9,3.21,7.99,3.8,16.97c0.72,11.04,1.81,15.08,8.32,30.85
		c4.57,11.09,7.15,19.9,8.01,27.2c0.36,3.22,0.32,5.97-0.23,12.12c-1.22,14.31-1.04,16.11,2.58,25.57c1.85,4.94,1.95,5.37,1.9,9.88
		c0,4.64-0.05,4.81-2.22,9.88c-1.9,4.51-2.22,5.67-2.4,8.98c-0.14,2.19,0.04,5.5,0.41,7.52c1.04,6.57,0.82,9.93-1.17,15.51
		c-2.22,6.15-2.31,9.2-0.5,14.44c2.13,6.32,2.08,6.96-1.31,15.43c-2.04,5.03-1.86,6.27,2.04,13.97c4.48,8.85,4.48,9.32,0.32,18.05
		c-3.75,7.91-5.56,12.93-6.42,18.3c-0.77,4.69-0.59,6.23,1.63,14.05c0.95,3.31,1,3.82,0.41,4.17c-1.4,0.86-3.8,0.47-6.11-1.03
		c-4.43-2.84-8.6-6.49-9.64-8.42c-0.95-1.76-1.04-2.36-0.86-6.23c0.14-2.58,0.59-5.67,1.22-7.69c1.45-4.9,1.13-8.64-0.91-11.94
		c-1-1.63-1.68-2.32-1.86-1.93c-0.18,0.3-0.59,2.96-0.86,5.89c-0.59,5.67-0.36,14.57,0.5,20.5c0.27,1.85,0.41,4.26,0.27,5.33
		c-0.32,2.32-3.26,10.14-4.3,11.22c-0.81,0.9-4.25,1.07-4.93,0.22c-0.27-0.26-0.59-1.89-0.72-3.52c-0.18-1.68-0.77-4.47-1.4-6.23
		c-0.59-1.76-1.31-4.94-1.58-7.05c-0.45-3.48-0.68-4.17-3.21-8.25c-1.54-2.53-3.08-5.59-3.49-7.18c-0.72-2.66-0.72-3.09,0.23-10.23
		c0.54-4.12,1-7.86,1-8.34c-0.05-1.03-0.72,0.34-3.03,6.23c-4.07,10.31-9.55,18.65-18.42,28.15
		c-10.09,10.74-13.03,16.54-11.99,23.76c0.77,5.54,2.08,8.64,6.61,15.86c8.78,13.92,11.76,21.4,15.52,38.59
		c3.98,18.35,7.87,51.61,7.83,66.82c-0.04,7.65-0.54,11.6-3.12,24.28c-2.22,10.91-2.76,16.07-2.08,21.01
		c0.41,3.31,4.34,19.77,11.18,46.88c0.68,2.58,2.08,8.89,3.21,13.96c3.85,17.79,17.78,71.33,20.72,79.71
		c2.4,6.79,7.83,18.69,15.47,33.77c11.86,23.51,19.87,42.24,27.51,64.29c4.3,12.46,6.24,19.08,12.22,41.17
		c5.43,20.24,7.69,27.59,13.17,42.54c7.51,20.54,8.82,24.32,10.36,29.99c2.13,7.91,2.71,11.82,2.13,14.52
		c-0.95,4.04-2.94,6.66-6.56,8.42c-2.85,1.42-17.46,5.8-24.03,7.22c-14.71,3.18-22.72,3.05-34.3-0.51
		c-3.12-0.95-3.71-1.03-4.98-0.52c-0.77,0.3-4.07,3.09-7.33,6.19c-6.2,5.93-9.28,7.91-14.66,9.41c-4.07,1.12-9.82,0.9-15.65-0.6
		c-5.79-1.5-10.41-1.76-13.12-0.69c-0.95,0.39-4.12,1.98-7.06,3.52c-6.61,3.48-9.77,4.47-14.43,4.47c-4.44,0-8.1-1.07-12.9-3.7
		c-1.99-1.12-4.89-2.66-6.43-3.48c-3.62-1.89-9.09-2.92-13.62-2.54c-4.21,0.3-14.21,2.41-22.94,4.77
		c-9.28,2.49-12.44,2.92-19.95,2.71l-6.29-0.21l-10.63-3.22c-5.84-1.81-12.04-3.48-13.8-3.74c-5.3-0.77-14.89-1.33-23.26-1.33
		c-9.09,0-18.14-0.86-24.16-2.32c-7.96-1.93-20.59-7.56-31.18-13.84c-20.63-12.33-34.93-19.25-52.62-25.52
		c-16.97-6.06-20.04-7.91-32.13-19.51c-11.04-10.61-11.59-10.91-30.32-15.9c-17.78-4.73-29.19-9.54-42.31-17.87
		c-5.48-3.48-8.51-4.86-10.63-4.86c-1,0-3.94,0.82-6.65,1.76c-8.42,3.09-12.03,3.09-16.29,0.04c-2.62-1.85-3.03-1.93-6.92-1.07
		c-9.68,2.11-11.9,1.25-18.51-7.26c-1.49-1.89-4.98-5.59-7.78-8.16c-4.07-3.83-5.2-5.16-5.84-6.88c-1.77-4.69-2.4-5.8-3.39-5.8
		c-0.54,0-2.94,0.99-5.39,2.19c-6.74,3.35-10.45,3.31-12.26-0.04c-1-1.89-2.08-7.05-2.53-12.12c-0.27-3.53-0.23-3.83,0.86-5.59
		c1.63-2.71,4.93-5.42,8.15-6.79c1.54-0.65,5.57-1.89,8.91-2.75c3.35-0.86,7.65-2.1,9.5-2.71c5.43-1.76,13.08-6.79,21.95-14.53
		c6.42-5.59,8.23-6.96,15.61-11.9c9.09-6.15,26.7-16.03,38.73-21.74c20.5-9.75,36.56-21.49,47.06-34.46
		c10.86-13.41,13.26-16.29,17.51-20.71c4.48-4.64,9.64-9.28,18.64-16.89c15.43-12.98,25.43-23.2,38.55-39.32
		c2.99-3.65,7.78-9.58,10.72-13.11c6.2-7.52,21.31-28.15,25.75-35.11c1.67-2.67,5.02-8.55,7.42-13.02
		c4.03-7.56,7.74-13.97,14.52-25.01c2.4-3.95,2.71-4.73,2.94-7.52c0.18-1.72,0.68-4.99,1.18-7.22c1.31-6.19,1.49-11.35,0.72-19.55
		c-1.09-11.9-0.95-15.94,1.4-37.81c0.59-5.93,1.54-14.83,1.99-19.77c1.76-17.83,3.3-23.29,10.54-36.74c2.49-4.6,5.2-9.75,6.11-11.39
		c3.12-5.98,6.56-14.78,9.19-23.64c1.45-4.99,3.58-11.99,4.71-15.6c1.13-3.61,2.26-7.86,2.49-9.5l0.5-2.92l-3.48-9.2
		c-4.16-11.09-4.48-13.32-2.94-21.66c0.54-2.84,1.09-7.18,1.22-9.67l0.23-4.51l-1.09,1.25c-1.22,1.33-2.31,4.6-2.8,8.34
		c-0.27,1.89-0.5,2.28-1.4,2.49c-2.35,0.56-3.08-0.04-5.52-4.64c-2.9-5.5-3.48-8.34-2.81-13.54c0.27-2.06,0.81-4.86,1.18-6.15
		c0.45-1.42,0.86-5.54,1.09-10.31c0.41-8.77,0.77-10.27,3.89-15.94c3.44-6.23,12.13-15.73,24.12-26.47
		c7.19-6.45,14.98-12.38,22.67-17.36c2.85-1.85,2.94-1.98,3.48-4.47c0.82-3.65,1.22-8.12,0.86-9.37c-0.14-0.56-1.72-2.36-3.44-4
		c-4.21-3.87-6.11-7.31-5.79-10.57c0.32-3.27,1.86-6.32,5.97-11.73c1.99-2.58,5.02-6.66,6.7-8.98l3.08-4.3v-4.38
		c0-6.1,0.95-10.61,4.3-20.32c1.58-4.64,3.48-10.79,4.25-13.66c2.26-8.51,3.57-12.03,6.61-17.96c3.44-6.7,7.37-12.38,11.45-16.59
		c3.89-4.04,11.27-9.58,15.93-11.99l3.62-1.93v-7.95c0-4.38,0.32-12.2,0.68-17.4c0.36-5.2,0.68-12.55,0.68-16.33
		c0-13.66,1.63-28.4,4.3-39.75c0.36-1.55,0.86-5.11,1.13-7.95c0.63-6.45,2.31-13.24,4.16-16.93c2.58-5.11,8.51-9.97,15.61-12.76
		c1.45-0.56,3.39-1.03,4.34-1.03c1.36,0,1.68-0.17,1.68-0.86c0-0.52,0.36-1.59,0.86-2.49c0.45-0.86,0.95-2.1,1.13-2.75
		c0.36-1.5,2.76-3.61,5.97-5.24c2.58-1.33,2.62-1.37,3.35-4.17c1.09-4.3,2.62-6.06,6.02-6.88c0.77-0.17,7.56-0.3,15.03-0.21
		c13.17,0.13,13.66,0.13,16.79,1.2c1.77,0.6,4.34,1.8,5.75,2.66c3.8,2.41,9.28,8.16,13.71,14.44c2.17,3.05,5.57,7.39,7.6,9.58
		c2.04,2.19,4.39,4.9,5.25,6.02c1.49,1.93,1.67,2.02,3.17,1.76c3.57-0.64,4.84-0.13,9.32,3.95c4.03,3.7,6.38,7.13,8.55,12.46
		c2.08,5.07,2.94,6.02,11.54,12.59c7.37,5.63,14.57,10.27,21.72,14.01c9.68,5.03,19.37,12.59,21.72,16.93
		c0.9,1.76,0.95,2.23,0.68,6.53l-0.32,4.64l2.26,2.11c1.27,1.16,4.89,3.74,8.1,5.76c7.96,5.07,14.43,11.39,20.9,20.5
		c2.58,3.61,5.48,7.35,6.47,8.29c0.95,0.9,4.66,3.48,8.19,5.67c9.05,5.59,10.5,7.26,11.9,13.92c1.18,5.28,1.58,5.8,8.33,9.54
		c6.83,3.78,10.27,6.19,14.03,9.97l3.89,3.87l4.12,0.3c2.4,0.21,4.53,0.6,4.98,0.95c0.45,0.34,2.04,1.55,3.48,2.67
		c3.89,3.05,5.52,3.91,9.5,5.11l3.57,1.12l-0.27-2.11c-0.13-1.16-0.41-2.32-0.54-2.53c-0.14-0.21-1.49-0.9-2.99-1.55
		c-2.99-1.29-4.48-2.75-4.48-4.34c0-1.89,1.36-5.59,2.76-7.52c5.97-8.12,6.61-9.24,6.92-12.08c0.36-3.09,0.09-6.96-0.91-13.37
		c-0.36-2.36-0.54-4.85-0.36-5.59c0.77-3.65,6.38-18.65,8.42-22.52c1.85-3.61,2.99-5.16,6.11-8.25c6.47-6.44,9.87-8.08,21.45-10.31
		c3.85-0.73,9.5-1.98,12.63-2.79c12.62-3.27,15.88-3.52,26.24-2.06c3.62,0.52,8.14,1.12,10.14,1.33c2.67,0.34,4.48,0.86,7.33,2.19
		c2.08,0.99,3.8,1.98,3.8,2.19c0,0.17,0.86,0.82,1.94,1.42c4.3,2.45,10.63,10.23,14.93,18.26c7.15,13.41,7.87,20.07,4.25,40.05
		c-1.13,6.27-2.26,13.62-2.58,16.33c-0.77,7.65-1.31,12.55-1.63,14.22c-0.27,1.46-0.14,1.63,3.3,4.55
		c3.62,3.09,4.98,4.99,9.86,13.62c1.22,2.15,2.94,4.68,3.94,5.67c1.81,1.85,1.99,1.98,10.36,7.18c8.96,5.54,19.55,15.04,29.55,26.51
		c11.18,12.76,16.56,18.22,24.25,24.49c6.06,4.94,8.24,7.82,10.41,13.92c2.13,5.97,3.17,12.08,3.62,21.74
		c0.23,4.9,0.72,9.97,1.09,11.39c0.36,1.42,2.31,6.06,4.25,10.36c3.98,8.55,5.43,12.55,6.97,19.17c1.45,6.1,1.36,15.69-0.27,30.38
		c-1.4,13.11-1.49,20.45-0.27,30.81c0.99,8.59,1.13,13.58,0.45,19.29c-0.95,8.21-3.85,22.82-6.61,33.47
		c-3.17,12.16-3.35,13.88-2.17,19.64c1.09,5.33,0.68,10.7-1.13,15.77c-2.31,6.57-4.44,9.41-10.63,14.14
		c-4.52,3.44-5.84,5.29-7.33,9.97c-2.76,8.98-3.94,12.08-5.84,15.51c-5.02,9.02-4.98,8.9-4.93,12.89c0.05,3.48,0.36,5.2,3.08,17.32
		c3.26,14.61,2.53,30.85-2.67,60.89c-2.53,14.61-3.12,20.02-3.08,29.43c0.14,33.3,0.59,62.78,1.04,65.19
		c0.95,5.16,2.35,9.2,6.79,19.47c2.44,5.72,4.89,11.77,5.38,13.54c1.18,4.04,1.22,8.34,0.05,15.69c-1.45,9.07-1.22,10.91,2.76,23.08
		c7.55,23.42,12.76,53.03,15.34,88.01c1.81,24.54,4.84,40.35,10.5,54.75c5.11,13.11,6.29,16.89,6.56,21.1
		c0.41,6.02-0.81,7.48-6.74,8.16C1587.2,1483.44,1586.07,1483.79,1586.07,1484.09z"/>
	<path d="M445.61,699.59c6.06,6.96,3.31,16.46-8.53,28.83c-3.18,3.32-7.81,7.55-14.48,13.3c-6.37,6.05-10.71,9.98-13.31,12.69
		l-53.68,57.27c-9.82,10.25-19.85,10.47-29.8,0.94c-3.92-3.75-7.03-10.77-7.55-21.1l-1.69-23.59c-0.86-12.38-6.98-22.29-16.03-30.95
		l-88.31-82.25l-0.3-0.29c-20.21-19.34-35.46-28.17-44.59-27.08c-2.64,0.94-6.45,1.91-11.74,3.21c-4.72,0.1-9.2-1.87-13.72-6.2
		c-8.14-7.8-9.57-18.99-3.38-33.29c5.06-11.92,13.35-24.21,25.78-36.59c0.87-0.9,2.31-2.41,4.63-4.23l4.04-4.22
		c-1.44,1.51,5.2-5.43,19.92-20.81c6.64-6.94,15.84-18.36,27.33-33.37c11.19-15.31,20.1-26.42,26.16-32.76
		c8.09-8.44,19.87-9.88,35.34-4.31c12.2,4.16,22.98,11.02,32.93,20.55c6.33,6.06,10.31,12.18,11.93,18.93
		c2.24,7.93,0.91,14.74-4.58,20.48c-4.62,4.82-11.38,6.45-19.98,4.57c-13.05-2.67-21.64-3.96-25.48-3.58
		c-11.2,0.83-22.29,6.98-32.67,18.43c-12.98,14.16-15.7,24.85-8.46,31.78c7.54,7.22,16.16,9.69,25.56,7.72
		c8.23-1.95,16.39-6.86,23.9-14.69c3.18-3.32,3.22-14.83,6.69-18.46c3.18-3.31,16.68,6.73,40.51,29.54
		c6.03,5.78,8.01,15.18,2.23,21.21c-2.02,2.11-8.2,3.13-18.25,2.76c-10.05-0.37-17.96,2.46-23.45,8.19
		c-4.33,4.53-5.71,8.98-3.85,13.08c0.93,2.05,4.56,6.11,10.3,12.18c24.16,24.87,49.39,44.4,75.12,59.79
		c5.68,3.12,18.11,4.63,36.99,3.63C428.57,690.21,439.85,692.92,445.61,699.59z M651.94,428.97c18.75,29.64,23.08,61.48,13.56,95.66
		c-9.34,32.09-28.73,57.69-58.72,76.65c-33.52,21.2-68.6,25.11-105.45,11.36c-33.17-12.61-60.87-36.1-82.74-70.68
		c-24.1-38.11-35.9-77.08-35.63-117.27c0.42-46.21,18.51-80.87,54.5-103.63c34.93-22.09,74.47-18.94,118.74,8.88
		C592.85,352.72,624.49,385.56,651.94,428.97z M545.43,431.61c-9.82-15.52-24.28-30.58-42.82-45.04
		c-23.42-18.29-41.37-23.24-53.72-15.43c-7.41,4.68-9.71,13.55-6.67,26.94c1.96,10.12,6.12,19.84,12.15,29.37
		c10.04,15.88,22.11,29.49,36.11,39.9c18.89,14.24,34.92,16.95,48.68,8.24C555.39,465.33,557.48,450.67,545.43,431.61z
		 M1223.45,346.67c0.6,11.27,1.59,20.86,1.71,28.37c0.55,33.82-6.19,56.06-19.81,66.3c-5.37,3.85-22.87,5.8-52.93,6.28
		c-8.35,0.14-19.62,0.32-34.22,0.97c-12.1,0.61-23.8,0.38-35.07,0.57l-78.49,0.85c-9.07,0.15-15.25-2.68-18.62-8.2l-5.36,6
		c-4.69,1.8-12.48,4.94-22.72,10.09c-8.76,4.29-16.14,7.3-22.55,9.17c-27.66,8.05-50.06,2.83-66.9-16.19
		c-8.36-9.31-19.71-30.36-34.15-63.56c-12.41-27.7-24.71-44.56-36.78-50.18c-4.02-1.87-8.27-1.51-12.33,0.98
		c-7.03,4.22-8.96,9.57-5.77,16.03c16.7,36.45,28.68,58.19,37.31,63.94c8.75,6.15,21.22,11.65,23.67,20.08
		c6.42,22.05,4.65,36.92-4.65,45.28c-7.25,6.46-29.52,15.11-66.81,25.96c-30.47,8.87-51.74,12.01-63.39,9.31
		c-11.77-3.09-19.57-13.44-23.9-31.31c-0.77-4.13,0.36-9.24,3.77-15.45c4.26-7.76,6.42-12.31,7.04-14.66
		c1.39-8.67,0.6-29.31-3.29-62.1c-3.36-29.46-7.45-56.98-12.39-82.93c-8.74-27.03-17.13-42.42-25.06-45.76
		c-2.75-0.5-6.55-1.57-11.77-3.09c-4.14-2.28-7.03-6.22-8.78-12.23c-3.15-10.82,1.22-21.23,13.73-30.53
		c9.94-7.68,23.16-14.57,40.63-18.78l17.07-4.1c23.3-8.09,38.42-12.92,44.44-14.67c22.05-6.42,42.98-7.73,62.38-3.81
		c24,4.76,38.86,16.96,44.81,37.41c7.35,25.26-0.33,49.67-23.28,72.44c5.26,7.6,12.62,11.98,22.61,13.42
		c14.98,2.17,22.21,3.1,22.61,2.99c13.51,6.08,24.61,12.85,32.74,21.35c7.38,7.42,14.89,18.28,22.41,32.18
		c10.82,20.77,23.13,37.63,36.9,50.58c0.75,1.09,5.41,3.65,13.81,8.59c1.27,0.76,2.35,1.5,3.4,2.23c0.94-1.69,2.08-3.33,3.59-4.89
		c6.98-7.21,10.67-11.45,11.48-13.13l7.73-12.65c3.66-6.32,5.9-22.23,6.33-47.7l1.6-107.76c0.27-9.19,0.98-17.14,0.03-24.22
		c-1.49-14.59-5.4-23.71-10.46-27.39c-2.53-1.21-5.9-3.24-10.54-6.1c-3.39-3.28-5.14-7.85-5.24-14.11
		c-0.18-11.27,6.77-20.15,21.29-25.82c12.03-4.79,26.6-7.53,44.14-7.39c6.68-0.11,23.82,1.28,30.92,1.17
		c9.6-0.15,25.03-1.24,46.3-2.84c21.27-1.59,36.7-2.68,45.47-2.82c12.1-0.2,21.41,7.17,28.33,22.09c5.2,11.61,7.9,24.09,8.13,37.87
		c0.14,8.76-1.41,15.89-4.66,21.79c-4.48,7.17-10.26,11.02-18.19,11.15c-7.51,0.12-13.83-3.11-19.37-10.12
		c-8.1-10.31-14.05-16.47-18.27-19.33c-10.55-6.93-25.64-10.44-45.68-10.12l-9.18,0.15c-2.9,1.3-4.52,4.67-5.68,10.11
		c-0.39,2.1-0.78,3.77-0.74,5.86c0.15,9.19,4.86,16.62,14.14,22.32c8.01,4.88,17.65,7.23,28.93,7.05
		c4.59-0.07,11.54-9.37,16.13-9.45c4.17-0.07,6.31,2.82,6.41,9.08c0.16,9.6-0.94,19.23-3.3,28.03
		c-3.55,12.58-8.46,18.93-15.56,19.04c-4.59,0.07-8.82-3.2-13.11-10.23c-3.87-7.03-9.77-10.28-17.7-10.15
		c-8.77,0.14-13.24,7.73-13,22.35c0.56,34.65,20.88,51.85,61.37,51.2c3.34-0.05,12.48-3.12,16.25-1.93
		c2.09,0.38,3.76,0.36,5.02,0.34c7.1-0.11,12.47-3.54,16.96-10.3c4.48-6.75,8.19-10.15,11.11-10.2
		c8.35-0.13,15.68,13.94,15.83,23.55C1222.31,327.91,1222.43,335,1223.45,346.67z M776.39,252.43
		c-5.72-19.65-16.25-27.45-31.89-22.9c-6.82,1.98-12.28,10.09-9.1,16.56l15.22,40.36c2.38,6.7,5.84,9.61,10.25,8.33
		c8.02-2.33,13.27-8.21,15.86-17.23C779.17,269.45,778.84,260.85,776.39,252.43z M1550.15,246.63c8.8-4.27,14.05-9.85,15.96-17.55
		c2.2-10.64-1.97-19.84-12.82-28.12c-8.42-5.96-18.45-10.59-30.2-13.5c-40.12-9.94-62.99-4.42-68.32,17.06
		c-1.91,7.7-0.38,13.67,4.9,18.42c5.28,4.75,7.32,10.41,5.81,16.49c-3.21,12.97-10.27,27.57-21.27,44.2
		c-12.92,19.17-24.34,28.81-34.36,29.34c-6.09-4.95-10.57-18.1-13.55-39.06c-2.57-19.14-2.71-34.22-0.6-44.45
		c3.3-18.54,17.56-27.48,18.77-30.62c0.91-1.93,1.81-3.86,2.52-6.69c2.21-8.92-0.24-16.4-7.65-22.97
		c-8.42-7.68-24.74-14.73-48.55-21.06c-16.92-4.62-31.71-5.7-44.56-4.15c-15.49,1.75-24.49,8.56-27.2,19.5
		c-1.51,6.08-0.99,10.94,1.45,14.99c3.76,3.94,6.5,6.77,8.63,8.58c4.26,5.36,6.92,15.48,8.37,30.46l2.7,32.5
		c0.32,5.67,1.38,30.88,1.79,74.42c0.39,41.82,2.39,73.71,6.49,95.37c6.15,32.49,17.53,50.8,34.14,54.91
		c5.27,1.31,12.05,1.69,19.95,1.07c10.12-0.93,17.61-3.38,22.46-7.34c12.03-10.36,33.22-42.1,63.18-95.33
		c33.59-59.21,57.71-97.54,72.35-114.99C1532.44,255.58,1539.02,251.62,1550.15,246.63z M2034.51,591.16
		c-18.32,18.87-43.34,24.26-74.47,15.56c-4.01,8.33-4.18,16.89-0.5,26.28c5.52,14.09,8.28,20.84,8.58,21.13
		c1.4,14.74,1,27.74-2.38,39.01c-2.8,10.08-8.53,21.98-16.9,35.39c-12.7,19.67-21.28,38.7-25.73,57.07
		c-0.57,1.19-0.49,6.5-0.65,16.25c-0.19,7.38-1.3,12.12-3.92,14.82c-2.03,2.1-5.58,2.15-10.91,1.05l-11.55-2.49
		c-3.88-3.19-10.46-8.41-20-14.76c-8.05-5.49-14.33-10.42-19.12-15.07c-20.67-20.07-27.19-42.12-18.98-66.15
		c3.96-11.87,16.65-32.14,38.37-61.09c17.95-24.48,26.52-43.5,25.44-56.77c-0.36-4.42-2.77-7.93-6.94-10.23
		c-7.14-4.03-12.74-3.06-16.79,2.9c-23.44,32.53-36.41,53.69-37.15,64.03c-1.02,10.65,0.36,24.21-5.75,30.5
		c-16,16.47-29.79,22.29-41.66,18.33c-9.2-3.11-27.73-18.19-55.59-45.24c-22.77-22.1-36.01-39.03-39.42-50.5
		c-0.85-3.2-1.03-6.4-0.66-9.63c-6.51,4.97-13.06,7.9-19.61,8.73c-6.57,0.67-22.74-6.32-49.07-20.82
		c-7.32-4.02-17.19-9.46-30.19-16.15c-10.81-5.47-20.85-11.48-30.72-16.91l-68.56-38.22c-12.44-6.85-15.23-16.48-8.79-28.19
		c2.62-4.76,6.66-7.77,12.33-9.42c9.64-2.79,14.95-4.64,16.48-5.7l12.99-7.15c6.31-3.67,16.16-16.36,29.17-38.27l54.87-92.75
		c4.8-7.84,9.35-14.39,12.04-21.01c5.95-13.4,7.09-23.26,4.51-28.97c-1.59-2.31-3.51-5.74-6.12-10.52
		c-1.32-4.54-0.56-9.37,2.46-14.85c5.44-9.88,15.88-14.13,31.3-11.84c12.82,1.82,26.83,6.67,41.99,15.49
		c5.85,3.22,20.04,12.94,26.26,16.36c8.41,4.63,22.35,11.35,41.61,20.52c19.26,9.18,33.19,15.89,40.87,20.12
		c10.61,5.84,15.03,16.86,13.63,33.24c-1.25,12.65-5.1,24.83-11.74,36.91c-4.23,7.68-9.11,13.1-14.86,16.6
		c-7.45,4-14.38,4.48-21.33,0.65c-6.58-3.63-10.46-9.57-11.79-18.41c-1.92-12.97-4.02-21.28-6.26-25.85
		c-5.72-11.25-17.08-21.79-34.63-31.46l-8.05-4.43c-3.16-0.31-6.24,1.81-9.95,5.96c-1.37,1.63-2.54,2.89-3.55,4.72
		c-4.43,8.05-4.03,16.85,1.2,26.39c4.53,8.22,11.74,15.04,21.61,20.48c4.02,2.22,14.67-2.41,18.69-0.19
		c3.66,2.02,4.08,5.58,1.06,11.07c-4.63,8.41-10.36,16.22-16.78,22.69c-9.33,9.16-16.74,12.23-22.96,8.81
		c-4.02-2.22-6.07-7.15-6.3-15.39c0.13-8.03-3.38-13.78-10.33-17.6c-7.68-4.23-15.33,0.14-22.38,12.94
		c-16.71,30.36-7.61,55.39,27.86,74.92c2.93,1.61,12.38,3.48,15.07,6.39c1.63,1.38,3.09,2.18,4.19,2.78
		c6.22,3.43,12.58,3.11,19.83-0.52c7.24-3.64,12.15-4.75,14.71-3.34c7.32,4.02,6.69,19.89,2.06,28.3
		c-1.41,2.56-4.83,8.78-9.74,19.42c-5.07,10.08-8.97,18.89-12.6,25.48c-1.65,3-3.31,5.83-4.98,8.55c1.78-0.29,3.69-0.5,5.85-0.53
		c8.86-0.13,13.87-0.5,16.23-1.13c8.22-3.07,25.78-13.96,52.36-33.54c23.95-17.48,45.85-34.63,65.97-51.76
		c19.18-20.95,28.41-35.85,27.4-44.4c-0.92-2.64-1.87-6.47-3.12-11.76c-0.07-4.72,1.93-9.19,6.29-13.68
		c7.85-8.09,19.05-9.43,33.32-3.15c11.59,4.85,24.11,12.93,36.4,26.04l12,12.82c18.55,16.26,30.22,27.02,34.71,31.38
		c16.47,16,27.95,33.54,34.13,52.35C2052.61,556.93,2049.34,575.88,2034.51,591.16z M1969.13,502.06
		c-5.09-4.94-14.85-5.69-18.89,0.28l-27.56,33.18c-4.65,5.39-5.46,9.83-2.17,13.03c5.99,5.81,13.69,7.47,22.81,5.27
		c8.24-1.89,15.55-6.43,21.66-12.72C1979.23,526.42,1980.81,513.41,1969.13,502.06z"/>
</g>
</svg>
