<?xml version="1.0" encoding="utf-8"?>
<!-- Generator: Adobe Illustrator 25.0.1, SVG Export Plug-In . SVG Version: 6.00 Build 0)  -->
<svg version="1.1" id="Layer_1" xmlns="http://www.w3.org/2000/svg" xmlns:xlink="http://www.w3.org/1999/xlink" x="0px" y="0px"
	 viewBox="0 0 2500 2500" style="enable-background:new 0 0 2500 2500;" xml:space="preserve">
<style type="text/css">
	.st0{fill:#231F20;}
</style>
<path transform="translate(0.000000,2500.000000) scale(0.100000,-0.100000)" class="st0" d="M5790,15260c-525-53-937-272-1397-743
	c-420-430-885-1134-1277-1932c-344-699-629-1483-811-2230c-375-1536-315-3007,161-3945c340-671,854-1117,1499-1299
	c184-52,263-62,505-68c199-5,239-3,349,16c435,74,759,300,1046,731c96,145,244,444,328,665c77,204,263,767,413,1253
	c60,195,111,345,113,335s-2-180-8-378c-34-1073-47-1860-33-2037c7-84,17-142,30-170c23-53,79-103,129-117c51-14,186-14,234,1
	c74,22,75,26,82,214c3,93,13,270,21,394c18,268,40,679,61,1145c61,1356,66,1944,24,2463c-6,73-9,136-6,139s66-2,140-11
	c422-51,820-42,1079,24c186,48,313,116,431,231c61,59,68,70,65,100c-6,65-96,102-248,102c-109,0-150-12-262-76
	c-248-142-482-138-1343,18c-420,76-551,94-755,102c-363,14-673-48-965-191c-370-182-609-422-515-516c31-31,64-40,148-40
	c78,0,128,16,145,45c25,45,208,158,381,236c333,151,558,188,849,140c114-19,296-55,338-67c14-4,7-36-46-227
	c-324-1160-800-2645-1005-3138c-229-547-513-906-834-1055c-185-85-350-84-571,3c-574,226-1064,862-1286,1669
	c-166,605-211,1349-128,2153c125,1225,597,2672,1257,3851c369,660,696,1117,1038,1450c273,266,525,422,746,460
	c256,45,606-219,799-602c89-177,132-325,194-668c20-107,43-207,53-223c9-17,33-38,52-48c69-37,250-17,265,30c9,30,25,255,25,367
	c0,297-56,550-171,775c-152,296-400,507-709,604C6244,15250,5970,15278,5790,15260z M10720,9681c-400-89-682-379-751-776
	c-10-61-14-67-58-99c-25-19-82-71-125-116c-44-44-82-77-86-73s-60,79-124,166c-126,171-164,204-265,234c-37,10-80,14-140,11
	c-106-5-177-35-252-105c-118-110-317-467-453-815c-36-91-66-171-66-177s-4-11-8-11s-16,96-25,213c-44,511-93,974-108,1015
	c-19,48-145,69-216,35c-101-47-132-290-188-1458c-42-881-42-1346,0-1685c29-234,58-322,118-359c128-79,408-63,490,27
	c38,42,47,342,22,755c-13,226-13,245,5,370c74,500,258,1139,449,1557c58,128,162,311,207,365l25,30l17-25c65-96,179-237,258-318
	l94-97l-41-93c-80-182-143-404-170-592c-20-136-17-458,5-585c81-478,268-789,561-930c147-72,221-87,435-92c162-4,198-2,290,17
	c428,88,741,371,1007,911c159,323,259,627,317,969c6,33,11,37,121,89c64,30,159,83,211,118c53,35,93,56,90,47c-16-43-90-325-121-463
	c-95-432-110-819-44-1156c92-469,311-748,653-835c112-28,340-28,452,0c178,46,323,141,467,305c301,346,554,986,654,1651
	c13,88,17,181,17,354c0,235-4,277-50,491c-5,22,4,33,68,84c40,33,162,147,271,254c108,107,197,189,197,184c0-6-13-69-29-139
	c-165-725-284-1740-285-2434c-1-352,7-427,57-515c29-52,95-101,165-122c82-26,287-25,360,1c69,23,119,68,131,114c6,21,24,163,41,317
	c74,682,148,1051,285,1428c153,424,380,863,590,1142c106,141,259,305,263,282c2-9-11-105-28-214c-32-201-138-952-187-1318
	c-20-149-26-246-27-382c-1-169,0-183,20-210c53-71,185-109,350-100c185,9,272,61,294,172c88,446,281,912,548,1325
	c130,200,379,524,509,660l62,65l-20-89c-27-128-105-426-199-761c-189-679-279-1114-335-1625c-22-200-31-640-16-810
	c48-540,262-999,521-1118c46-22,73-26,170-30c134-4,197,13,269,74c131,112,276,449,385,894c55,224,218,1027,214,1055
	c-7,48-120,70-198,39c-39-16-41-18-69-113c-36-117-93-324-156-566c-67-260-148-536-201-683c-48-132-164-384-182-396
	c-14-9-47,82-83,229c-80,331-95,695-53,1235c42,539,109,982,259,1710c109,524,128,657,129,875c1,174,0,182-25,236
	c-48,103-137,144-292,137c-167-8-252-68-544-383c-341-369-536-597-654-765c-24-33-44-58-46-56s-8,175-13,384c-13,537-27,634-100,703
	c-50,48-107,62-222,57c-82-3-100-8-156-37c-138-74-372-332-572-631c-148-220-343-578-488-895l-32-70l5,155c8,206,29,511,61,865
	c15,160,27,355,28,435c1,128-2,151-20,191c-41,89-123,125-267,117c-111-6-144-25-242-140c-143-167-457-471-567-549l-27-20l-42,83
	c-63,125-133,223-237,330c-181,187-327,263-551,288c-377,41-805-146-940-413c-48-95-67-203-53-302l12-80l-68-62
	c-107-100-265-223-365-286l-92-58l-7,123c-20,368-114,674-278,906c-124,176-264,277-467,338C11102,9702,10850,9710,10720,9681z
	 M11108,9479c244-82,448-356,524-704c22-103,35-414,21-530l-8-70l-55-13c-86-22-349-21-430,1c-91,25-215,88-277,139
	c-109,91-197,232-233,374c-29,111-29,110,31,117c130,16,133,91,5,147l-48,22l6,51c10,72,57,206,97,274c44,74,131,163,189,191
	C10986,9505,11029,9506,11108,9479z M13493,9244c198-101,389-308,475-516c50-123,53-111-34-148c-166-69-378-104-498-81
	c-102,19-201,79-250,152c-67,98-75,281-18,403c36,77,107,153,178,190C13408,9276,13429,9276,13493,9244z M14074,8358
	c14-76,18-349,7-463c-72-703-444-1503-841-1810c-98-75-98-75-146-21c-89,101-171,298-217,522c-44,209-52,295-52,569
	c0,326,21,507,116,1003c25,130,34,162,46,158c8-3,60-16,116-28c135-29,450-32,597-5c111,20,248,58,311,86
	C14069,8395,14067,8395,14074,8358z M10218,8192c37-33,89-74,116-92c124-83,321-161,516-202c118-25,520-37,651-19c45,6,84,9,86,7
	c8-8-100-312-152-429c-202-448-485-826-753-1004c-90-60-202-112-243-113c-64,0-179,128-254,285c-191,400-228,962-95,1461
	c33,124,47,164,56,164C10149,8250,10182,8224,10218,8192z"/>
</svg>
