<?xml version="1.0" encoding="utf-8"?>
<!-- Generator: Adobe Illustrator 25.0.1, SVG Export Plug-In . SVG Version: 6.00 Build 0)  -->
<svg version="1.1" id="Layer_1" xmlns="http://www.w3.org/2000/svg" xmlns:xlink="http://www.w3.org/1999/xlink" x="0px" y="0px"
	 viewBox="0 0 2400 2400" style="enable-background:new 0 0 2400 2400;" xml:space="preserve">
<g>
	<path transform="translate(0.000000,2400.000000) scale(0.100000,-0.100000)" d="M5757,19411c-281-61-871-265-1077-371
		c-149-78-199-142-200-257c0-34,36-288,79-565c105-665,160-1031,216-1443c140-1040,169-1233,226-1560c37-210,108-534,149-678
		c54-191,77-217,197-217c78,0,113,14,131,52c16,33,1,181-69,683c-60,434-108,825-189,1535c-34,294-70,605-80,689
		c-11,85-18,157-15,159c2,2,99,28,217,57c117,29,252,66,299,83c171,60,397,153,413,171c62,68-49,130-212,117c-96-7-458-97-632-156
		c-63-21-116-38-117-36c-5,5-133,1047-133,1087c0,88,22,101,405,240c149,53,347,129,440,167c142,58,182,70,245,75
		c129,9,185,53,145,113c-9,14-38,35-63,47C6065,19433,5880,19437,5757,19411z M13840,19345c-289-59-539-255-739-577
		c-78-124-173-314-232-462l-44-109l-5,364c-3,200-9,372-14,382c-30,64-212,69-258,7c-44-60-102-544-150-1240
		c-27-392-32-1212-10-1485c40-492,122-1010,173-1094c30-49,87-71,192-71c89,0,143,14,179,47c14,13,18,32,18,92c0,84-19,320-51,626
		c-18,172-20,233-14,430c4,127,10,263,14,304l6,75l24-60c14-32,65-144,114-249c49-104,160-344,247-531c206-445,261-552,433-839
		c194-324,233-359,397-360c100,0,160,19,184,57c12,19,17,6-114,293c-45,99-115,257-155,350c-65,152-269,566-585,1185
		c-113,223-170,360-170,411c0,24,9,36,46,62c298,207,557,461,765,751c255,356,438,789,456,1080c15,246-66,416-244,508
		C14183,19355,13995,19377,13840,19345z M14033,19133c14-16,38-55,54-88c27-57,28-66,27-200c-1-162-22-257-101-455
		c-143-364-357-684-653-980c-142-143-382-341-396-328c-3,4,6,75,21,160c145,850,447,1543,787,1804c71,55,181,114,212,114
		C13996,19160,14018,19148,14033,19133z M15900,19304c-169-12-380-38-476-59c-310-70-400-194-478-655c-69-408-101-823-131-1720
		c-9-245-22-562-30-705c-34-597-65-1204-65-1265c0-94,20-126,105-170c67-34,71-35,207-38c161-4,196,1,498,73c124,30,385,93,580,140
		s399,99,452,115c175,54,205,115,83,166c-75,31-204,21-600-46c-198-33-458-83-578-111c-121-28-220-49-222-47c-1,2,8,174,21,383
		c42,691,54,965,66,1483c7,282,15,517,18,522c12,19,919,190,1008,190c57,0,122,27,122,51c0,26-23,49-67,66c-65,25-230,22-433-6
		c-164-23-569-88-608-98l-24-6l6,104c21,346,29,443,47,619c49,475,106,691,196,743c39,22,169,50,363,77c183,25,443,50,529,50
		c113,0,171,47,111,91c-56,41-132,52-395,54C16068,19306,15930,19306,15900,19304z M10230,19114c-565-27-886-67-1230-153
		c-174-44-241-67-318-111c-173-100-6-190,239-129c77,20,411,80,415,76c1-1-2-23-6-48c-5-26-14-138-19-250c-40-754-56-1819-41-2584
		c23-1182,29-1386,42-1413c22-44,61-57,178-57c173,0,197,27,219,250c6,55,15,174,21,265c9,151,17,323,51,1160c18,431-2,1886-31,2320
		c-12,172-33,314-54,365l-14,33l31,6c116,20,670,77,751,77c111-1,157,8,207,42c67,45,43,103-56,132
		C10563,19111,10365,19120,10230,19114z M11771,19039c-24-5-54-15-66-23c-21-14-23-20-18-98c15-257-184-2931-268-3598
		c-23-183-60-390-69-390c-4,0-23,35-43,78c-136,298-238,773-301,1402c-41,410-60,753-81,1475c-15,495-23,621-44,677
		c-14,38-68,58-153,58c-100,0-137-20-160-86c-20-59-51-303-75-584c-22-262-25-1230-5-1490c58-737,155-1197,324-1534
		c129-259,270-390,456-426c90-18,242-8,316,20c265,101,341,509,411,2210c38,914,45,1170,45,1590c0,556-15,673-92,704
		C11902,19043,11823,19049,11771,19039z M6332,18825c-65-28-78-108-92-579c-25-855,55-1917,200-2646c204-1029,456-1411,929-1410
		c234,1,372,79,468,267c84,164,144,390,192,719c29,200,126,1185,151,1524c80,1119,104,1556,99,1812c-4,161-7,187-24,218
		c-29,50-79,71-169,72c-115,0-185-42-157-94c10-19,10-50,1-149c-16-178-122-1135-185-1674c-30-253-79-696-110-985
		c-77-728-107-930-176-1162c-30-100-96-258-108-258c-11,0-90,114-125,180c-99,186-191,493-281,930c-136,663-218,1395-285,2530
		c-29,486-43,619-71,672c-6,11-26,26-44,34C6501,18844,6375,18844,6332,18825z M10078,13435c-164-41-318-145-529-355
		c-361-360-704-860-1045-1525c-224-437-380-798-529-1230l-63-180l-5,1090c-5,1084-10,1265-42,1439c-28,153-76,208-198,227
		c-73,11-154,1-213-27c-130-62-303-311-509-729c-360-731-663-1627-890-2630c-20-88-38-162-41-164c-2-2-2,38,1,90s7,229,10,394
		c13,788,90,1711,215,2580c57,399,60,445,29,474c-57,53-228,52-277-2c-25-28-51-108-168-527c-118-426-186-644-271-870
		c-155-415-329-762-511-1020c-124-176-338-370-408-370c-11,0-31,11-43,24l-23,24l30,44c122,177,199,431,190,627
		c-7,149-36,208-125,248c-50,23-64,25-161,21c-96-3-113-7-161-33c-90-50-151-139-188-275c-24-90-24-319,0-410c17-64,81-204,112-247
		c16-21,15-23-42-67c-105-83-204-114-273-86c-43,18-96,83-121,149c-44,116-30,432,21,486c27,29,28,100,1,115c-29,15-118,12-151-5
		c-59-30-110-123-141-252c-29-121-24-300,11-388c32-82,123-173,203-203c195-73,422-44,595,77c57,40,57,40,97,26c26-9,82-14,155-14
		c101-1,125,3,195,27c139,49,255,136,381,285c77,91,182,242,251,362c50,85,177,341,223,447c18,43,35,76,37,74s-7-116-21-252
		c-51-508-81-966-97-1519c-22-760,16-1523,132-2655c16-162,36-375,44-472c7-98,17-183,21-189c17-28,90-49,169-49c95,0,159,24,175,65
		c19,49,8,382-36,1100c-16,265-15,316,12,655c72,920,259,1885,551,2840c189,618,456,1275,678,1665c73,130,202,325,215,325
		c22,0,27-636,9-1255c-27-939-3-1990,53-2277c18-98,83-135,217-126c79,6,129,30,149,71c7,14,31,122,53,239
		c137,734,379,1436,756,2188c333,665,677,1170,1036,1516c119,115,262,223,336,254c30,12,35,12,47-4c36-50,44-227,19-423
		c-37-281-110-594-289-1233c-189-675-248-898-361-1350c-314-1256-441-1928-486-2572c-16-235-7-713,16-838c62-339,189-514,424-584
		c80-24,285-22,383,3c253,65,487,281,762,704c343,528,823,1589,1086,2402l52,160l99,33c272,90,661,301,945,513c59,44,111,82,115,85
		c4,2-20-53-53-123c-95-200-232-526-317-757c-272-732-444-1417-527-2096c-22-182-30-641-15-807c42-440,154-706,336-796
		c81-41,133-51,250-50c179,1,272,43,423,193c278,276,633,844,863,1382c127,296,273,721,258,749c-19,37-139,52-202,25
		c-29-12-40-30-116-207c-301-693-574-1175-899-1584c-97-122-291-325-311-325c-18,0-59,81-95,190c-113,343-121,935-20,1590
		c120,779,383,1669,719,2435c95,216,301,632,376,757c80,134,81,149,16,179c-53,23-162,25-215,3c-23-9-90-69-177-158
		c-317-322-650-588-975-779c-99-57-401-210-406-204c-2,1,8,45,21,97c66,259,101,544,92,735c-14,267-89,422-240,491
		c-59,28-69,29-202,29c-109,0-152-4-195-18c-243-82-477-407-556-774c-22-104-22-285,0-378c69-286,278-456,583-472l102-6l-58-166
		c-129-369-309-811-491-1206c-115-248-342-694-430-845c-207-355-434-646-598-770c-62-47-153-90-188-90c-26,0-110,88-143,150
		c-133,249-142,884-26,1700c96,667,343,1751,721,3155c309,1146,374,1563,288,1827c-21,65-91,140-156,168
		C10341,13450,10166,13457,10078,13435z M11606,10976c77-81,110-232,101-471c-8-212-42-402-124-697l-35-126l-35-7
		c-88-16-203,55-272,170c-105,175-115,466-24,720c50,138,127,275,202,359c35,39,115,96,135,96C11559,11020,11582,11000,11606,10976z
		 M4550,10840c19-104-3-252-60-404c-35-91-45-56-44,149c0,150,3,178,23,235c12,36,29,76,38,89C4527,10940,4534,10928,4550,10840z
		 M14615,6911c-42-19-94-71-119-119c-8-15-24-60-36-101c-20-63-22-88-17-170c9-128,20-164,70-215c96-101,289-102,384-4
		c169,175,142,510-49,609C14798,6937,14672,6937,14615,6911z"/>
</g>
</svg>
