<?xml version="1.0" encoding="utf-8"?>
<!-- Generator: Adobe Illustrator 25.2.0, SVG Export Plug-In . SVG Version: 6.00 Build 0)  -->
<svg version="1.1" id="Layer_1" xmlns="http://www.w3.org/2000/svg" xmlns:xlink="http://www.w3.org/1999/xlink" x="0px" y="0px"
	 viewBox="0 0 2200 2200" style="enable-background:new 0 0 2200 2200;" xml:space="preserve">
<g>
	<path d="M1950.92,127.58c-2.82-7.91-9.04-14.69-16.38-17.51c-5.65-2.26-11.3-2.82-17.51-2.82c-10.73,0-22.03,2.26-35.02,6.21
		c-41.24,11.86-96.61,39.55-150.85,62.14c-54.23,22.6-108.47,40.68-141.8,37.29c-16.95-1.7-27.68-7.91-35.02-20.34
		c-7.35-12.43-10.17-33.9-5.09-67.23c0-0.56,0.56-0.56,0.56-1.13c0-5.65-4.52-10.17-10.17-10.17c-3.95,0-8.47,2.82-9.6,6.21
		c0,0-9.04,24.86-23.73,49.15c-7.34,11.86-15.82,23.73-24.85,31.64c-9.04,7.91-17.52,11.87-24.86,11.3
		c-9.04-0.56-12.43-3.39-15.26-7.91c-2.82-4.52-5.09-11.3-5.09-18.65c-0.56-14.69,3.96-29.94,3.96-29.94c0-0.56,0.56-1.7,0.56-2.82
		c0-5.65-4.52-10.17-10.17-10.17c-0.27,0-0.56,0.05-0.83,0.09c-0.28-0.02-0.55-0.09-0.85-0.09c-1.7,0-4.52,0.57-5.65,1.7
		c-84.75,54.8-168.36,72.31-230.5,66.67c-17.51-1.7-33.9-5.09-47.46-10.17l5.09-10.17c9.6-23.73,10.17-50.85-3.39-67.23
		c-10.17-12.43-24.86-18.64-38.98-18.64h-1.7c-2.26,0-3.96,0-6.21,0.56c-8.47,1.13-16.38,5.09-22.03,11.86
		c-5.65,6.78-8.47,16.38-7.91,27.12c1.7,23.73,15.25,44.63,36.72,59.32c1.7,1.13,3.96,2.82,6.21,3.96
		c-7.34,5.09-15.82,8.47-27.11,8.47c-11.87,0-16.95-3.39-20.34-7.91s-5.65-10.73-5.65-18.65c0-15.82,6.21-33.33,6.21-33.33
		c0.57-1.13,0.57-2.26,0.57-3.39c0-5.36-4.09-9.66-9.34-10.09c-0.28-0.02-0.54-0.08-0.82-0.08c0,0,0,0,0,0c0,0,0,0-0.01,0
		c-0.58,0-1.17,0.08-1.76,0.19c0,0,0,0-0.01,0c-0.52,0.1-1.05,0.25-1.56,0.44c-1.3,0.43-2.53,1.02-3.44,1.63
		c-58.75,47.46-115.82,46.89-174.57,49.72c-20.9,1.13-41.81,3.39-62.71,7.91c1.69-45.2-2.26-83.05-2.26-83.05
		c-0.56-5.09-5.09-9.04-10.17-9.04h-0.56c-3.96,0-7.91,3.39-9.04,6.78c-1.13,2.82-6.22,11.87-13.56,22.6
		c-7.35,10.73-16.38,22.6-26.56,34.47c-10.17,11.86-20.9,22.6-30.51,30.51c-9.6,7.91-18.64,11.3-20.9,11.3
		c-5.65,0-9.61-1.7-12.43-3.96c-2.82-2.26-3.95-4.52-5.09-9.04c-1.69-9.04,0.57-24.29,11.87-45.2c0.56-1.13,1.13-3.39,1.13-5.09
		c0-5.65-4.52-10.17-10.17-10.17h-1.13h-1.7h-0.56c-1.69,0-4.52,0.57-5.65,1.7c-18.08,11.86-58.75,29.94-108.47,46.33
		c-49.72,16.38-107.91,31.64-160.45,40.67c-52.54,9.04-99.99,12.43-127.11,5.65c-13.56-3.39-20.91-9.04-23.17-14.69
		c-2.26-5.65-1.69-15.25,7.35-31.07c0.56-1.13,1.13-3.39,1.13-5.09c0-5.65-4.52-10.17-10.17-10.17c-3.39,0-6.78,2.82-8.47,5.65
		c-10.73,18.65-14.69,34.47-8.47,48.59c6.21,14.12,20.34,22.03,36.72,25.99c33.33,8.47,81.92,4.52,135.59-5.09
		c53.67-9.6,112.99-24.86,163.27-41.24c36.73-11.87,68.36-24.86,91.52-36.16c-3.95,12.43-5.08,23.73-2.82,33.9
		c1.7,8.47,5.65,15.25,12.43,20.34c6.78,5.09,15.25,7.35,24.29,7.91c12.43,0.56,22.6-6.21,33.9-15.26
		c11.3-9.04,22.6-20.34,33.33-32.76c10.17-11.3,19.21-23.73,26.55-34.47c0.56,15.26,1.13,34.47,0,54.8
		c-31.07,10.17-61.58,28.81-89.83,63.84c-5.65,7.35-20.91,25.99-25.42,46.89c-2.26,10.17-1.7,22.6,6.78,31.64
		s23.17,12.43,42.37,11.86c28.82-1.13,49.15-19.21,61.58-42.93c12.43-23.73,18.64-53.67,22.03-83.05l1.69-13.56
		c20.91-5.09,42.37-6.78,64.97-7.91c51.68-2.51,107.82-2.82,164.46-38.87c-0.49,4.28-0.76,8.82-0.64,13.45
		c0,10.17,2.26,21.47,9.61,31.07c7.34,9.61,19.77,15.26,36.16,15.26c19.21,0,35.02-7.35,46.32-18.65
		c16.95,6.78,36.72,11.3,58.75,13.56c62.78,5.8,143.29-10.09,225.43-58.68c-0.47,4.37-0.74,9.13-0.59,14.05
		c0.56,9.6,2.26,19.77,8.47,28.81c6.21,9.04,16.95,15.82,30.51,16.95c15.25,1.13,28.81-6.21,40.11-16.38
		c11.3-10.17,20.34-23.17,28.25-36.16c1.69-2.82,2.82-5.09,4.52-7.35c1.7,11.86,4.52,22.03,9.04,30.51
		c10.73,18.65,29.38,27.68,50.28,29.94c42.38,3.95,97.17-15.82,151.98-38.98c54.8-23.17,110.17-49.72,148.59-61.02
		c19.2-5.65,33.9-6.22,39.55-3.96c2.82,1.13,3.39,2.82,4.52,5.65c1.13,2.82,2.26,8.47,0.57,16.95c0,0.57-0.57,1.13-0.57,1.7
		c0,5.65,4.52,10.17,10.17,10.17c4.52,0,9.61-3.96,10.17-8.47C1953.75,143.96,1953.75,135.49,1950.92,127.58z M789.96,234.35
		c-2.82,28.25-9.04,55.93-19.77,75.71c-10.73,19.77-24.29,31.64-45.2,32.2c-16.95,0.56-23.73-2.82-26.55-5.65
		c-2.83-2.82-3.39-6.21-1.7-13c2.82-13.55,16.38-31.64,21.47-38.41c23.16-29.38,47.46-46.33,72.31-55.94
		C790.52,230.97,789.96,232.66,789.96,234.35z M1131.75,182.95c-1.13,3.39-2.82,6.78-4.52,9.6l-8.47-5.09
		c-17.51-12.43-27.11-27.68-28.25-44.63c-0.56-6.78,0.56-9.6,2.82-12.43s5.65-4.52,10.17-5.09c1.13,0,2.26-0.56,3.39-0.56
		c8.47,0,18.65,3.95,24.86,11.86C1136.83,142.83,1139.09,164.3,1131.75,182.95z"/>
	<path d="M354.93,549.83c0.71,3.54,0.94,10.87,0.94,21.74c0,43.01-9.45,75.62-28.12,96.65c-4.96,5.67-9.69,9.69-13.94,12.29
		c-13.7,8.03-30.72,9.69-50.8,4.49c-0.95-0.24-3.31-0.94-6.85-2.6c-27.88-11.11-47.5-28.12-58.84-48.92
		c-20.09-36.39-30.01-79.16-30.01-129.49c0-136.35,42.77-204.4,128.78-204.4c29.54,0,45.13,6.62,46.79,19.38
		c1.65,10.63,2.36,26.23,2.36,46.79c0,5.2-0.47,22.92-1.42,53.41c-0.24,11.58-0.71,19.14-1.42,22.45
		c-1.42,8.74-4.73,14.65-10.16,17.96c-0.94,0.24-2.6,0.24-4.96,0c-9.45-0.71-21.5-9.22-35.68-25.05
		c-14.41-15.83-21.74-23.39-22.45-23.39c-4.49-0.47-8.04,1.65-10.63,6.38c-0.71,0.95-4.25,6.38-5.91,13.47
		c-3.31,14.18-1.65,31.19-1.65,41.83c0,49.39,11.58,76.09,34.74,79.87c8.27,1.18,18.91-3.55,31.9-14.65
		c12.76-11.11,20.56-16.54,23.63-16.31C347.37,522.42,352.1,531.63,354.93,549.83z M586.27,410.65
		c4.73,23.87,7.09,57.42,7.09,100.19c0,102.08-20.79,167.78-62.62,198.02c-12.76,9.22-30.72,13.23-53.88,11.11
		c-19.61-1.65-35.45-8.27-47.26-19.61c-29.07-27.18-46.32-72.07-51.75-134.22c-1.42-17.49-2.36-29.3-2.36-35.45
		c0-57.66,8.74-109.65,25.99-156.91c17.72-48.68,47.97-74.2,90.5-74.2c24.1,0,42.54,7.8,54.82,23.39
		C566.19,347.55,579.42,376.85,586.27,410.65z M511.84,488.86c0-40.41-9.21-60.97-28.12-61.44c-5.2-0.24-10.4,3.07-14.65,9.45
		c-5.91,8.98-8.98,33.79-8.98,73.96c0,18.67,0.95,32.61,3.07,41.35c4.02,17.01,11.58,25.76,23.39,26.47
		c10.87,0.71,18.2-4.73,21.74-16.54c2.36-7.56,3.54-18.9,3.54-34.03V488.86z M930.81,320.38c0-12.05-10.87-18.2-32.61-18.2
		c-2.6,0-15.6,1.42-38.52,4.25c-6.14,0.71-10.63,1.42-13.47,1.65c-14.89,3.31-24.1,9.45-27.65,17.96
		c-5.67,20.56-8.98,34.74-10.16,42.3c-4.02,23.39-6.85,41.12-8.51,52.93c-3.07,18.67-6.85,36.39-11.58,51.99
		c-1.18,1.42-2.36,2.13-3.31,2.13c-0.94,0-1.42-0.71-1.65-2.13c-5.44-17.49-9.69-43.24-12.52-77.03c-0.71-7.8-1.42-15.36-2.13-22.21
		c-12.52,7.56-26.46,11.58-41.59,12.29h-4.73c-25.52,0-43.72-6.38-56-19.38c-12.52-13.47-17.01-32.61-12.52-52.93
		c0.24-0.94,0.47-1.65,0.71-2.6c-2.36,0.47-4.49,0.94-6.62,1.42c-18.9,4.25-28.36,16.3-28.36,35.68c0,4.96,0.95,11.11,2.83,17.96
		c2.13,8.27,3.31,13.94,3.55,16.31c0.94,11.58,0.71,20.09,0.94,24.1c0.24,30.72,0.71,49.86,0.71,56.71c0,17.01,0,43.01-0.24,77.51
		c-0.47,34.26-0.47,59.78-0.47,76.56c0,32.61,0.24,58.6,0.71,78.22c0.47,11.82,2.84,19.85,7.33,24.34
		c10.4,4.25,16.54,6.14,18.67,6.14c15.6-0.24,28.36-3.07,38.52-8.98c6.85-3.78,10.16-12.29,10.16-25.52
		c0-13.23-0.94-33.55-3.31-60.73c-2.13-27.18-3.31-47.97-3.31-61.68c0-1.18,0.24-4.49,0.47-9.21c0.23-4.73,0.47-7.8,0.47-9.22
		c0-1.42-0.47-4.25-0.94-8.51c-0.71-4.25-0.94-6.85-0.94-7.8c0-2.84,0.71-6.38,2.36-10.16c1.42-4.02,3.07-5.91,4.73-5.91
		c1.18,0,2.13,0.94,2.36,2.6c1.65,9.22,2.83,15.83,3.07,19.61c3.31,20.79,5.67,35.45,7.09,44.19c4.25,29.3,7.33,51.28,8.98,65.93
		c6.62,44.19,13.94,66.16,21.98,67.11c10.4,1.18,18.67,1.42,25.05,1.18c16.31-0.94,25.52-5.43,27.65-11.82
		c3.31-9.92,5.43-16.78,6.38-20.56c1.42-7.56,2.36-13,3.07-15.83c5.2-30.72,7.8-46.32,13-77.27c4.73-28.59,9.69-54.35,14.65-76.8
		c1.42-7.09,3.55-11.82,6.38-14.18c3.54,0.95,5.2,4.25,5.2,9.93c0,0-0.24,1.42-0.47,4.02c-1.18,17.49-1.89,29.77-2.13,36.63
		c-3.07,44.9-4.49,86.72-4.49,125.24c0,9.45,0.95,16.07,3.07,19.85c1.18,2.13,3.78,4.02,7.56,5.91c3.78,1.65,6.85,2.36,9.22,1.89
		c31.43-5.91,52.46-13.94,63.33-23.63c4.25-10.4,6.14-17.25,6.14-20.56v-33.79c-0.24-9.93-0.24-21.27-0.24-34.03
		c0-19.38,0-48.92,0.24-88.61c0.47-39.46,0.47-69.47,0.47-89.32c0-8.04,0.47-20.09,1.18-36.15c0.71-16.07,1.18-28.12,1.18-36.16
		c0-2.13-0.24-6.14-0.47-12.05C931.04,325.81,930.81,322.03,930.81,320.38z M1142.77,351.1c10.87,22.69,16.54,50.57,16.54,84.83
		c0,38.99-10.4,71.84-30.96,99.96c-15.36,21.03-50.1,30.25-68.29,40.41c-2.6,1.42-4.49,7.8-4.49,13.47c0,0.94,0.24,3.31,0.47,6.85
		c0.24,3.55,0.47,6.14,0.47,7.33v2.6c-0.47,0.95-0.47,1.89-0.47,2.84c0,2.13,0.47,6.85,1.65,14.42c1.18,7.33,1.89,12.29,1.89,14.65
		c0,5.43-1.18,10.4-3.07,14.89c-14.42,12.05-32.14,20.56-53.17,25.28c-15.13,3.31-24.81,4.49-29.54,3.55
		c-4.73-0.94-7.56-4.73-8.04-11.58c-0.71-6.85-0.94-22.92-0.94-48.44c0-21.27,0.23-47.73,0.94-78.93c0.47-31.66,0.71-47.5,1.18-79.4
		c0-6.85,0-13.23-0.47-18.9c-0.24-5.91-0.24-12.05,0-18.67c0.47-6.62,0.71-9.92,0.94-16.54c0-5.2-0.47-13.23-1.18-23.63
		c-0.95-10.63-1.42-18.67-1.42-23.87c0-3.78-1.42-9.45-3.78-16.78c-2.6-7.33-3.78-11.82-3.78-13c0-3.31,1.18-6.85,3.54-10.4
		c1.18-1.42,3.31-3.31,6.62-5.67c16.54-11.34,43.24-16.78,80.58-16.78h4.02c18.67,0,36.63,4.96,53.88,14.18
		C1122.92,323.21,1135.21,335.74,1142.77,351.1z M1078.73,433.1c0-19.61-5.44-29.07-16.54-28.36c-6.14,0.47-9.93,2.36-11.11,5.2
		c-0.94,1.65-1.42,6.14-1.42,13.47c0,2.36,0,8.27-0.47,17.49c-0.24,9.45-0.24,15.36-0.24,18.2c0,8.51,3.78,12.52,11.58,11.58
		c5.2-0.71,8.98-2.6,10.63-5.91C1076.37,455.31,1078.73,444.91,1078.73,433.1z M1335.83,488.15c-4.25,0.47-11.34,4.02-21.5,10.4
		c-10.16,6.38-17.49,10.16-22.21,10.87c-8.51,1.18-13.47-1.42-15.36-7.56c-0.47-1.89-0.71-10.87-0.71-26.7
		c0-18.19,1.42-45.37,4.25-81.29c2.6-35.68,7.09-65.93,4.02-79.4c-0.47-2.6-3.07-6.38-4.73-8.98c-2.84-1.89-4.02-2.6-6.85-4.25
		c-6.85-1.18-14.65-1.65-23.63-1.65c-25.05,0-46.08,4.02-63.09,12.05c-5.2,2.6-8.03,7.09-8.03,13.23c0,1.65,0.24,3.31,0.95,4.96
		c3.78,11.58,7.09,26.47,9.92,44.43c0.71,5.67,1.18,8.98,1.18,10.16c0,11.82,0,23.16-0.47,33.79c-1.18,44.9-1.89,67.58-3.07,112.95
		c-0.95,29.77-1.42,56.24-1.42,79.4c0,12.29,4.96,19.38,14.41,21.27c5.67,1.18,16.07,0,31.19-3.31
		c19.85-4.02,38.04-8.51,54.59-12.05c3.31-0.71,10.16-2.36,20.09-4.96c8.51-2.13,15.36-3.55,20.32-4.73
		c11.34-2.84,18.9-7.8,21.27-13c4.73-9.92,7.33-28.36,7.33-54.82c0-11.82,1.89-31.67-2.84-43.24
		C1349.54,490.75,1341.74,487.21,1335.83,488.15z M1477.85,365.98c1.42,0.24,8.04,0.24,19.61,0.24c7.32,0,17.01,2.36,29.06,7.33
		c11.81,4.96,20.56,7.33,25.76,7.56c14.18,0,21.27-8.98,21.27-26.47c0-7.33-0.47-13.94-1.65-19.14c-0.95-3.31-1.42-5.91-1.42-7.33
		c-1.18-14.65-5.67-23.63-11.58-24.81c-22.68-4.02-45.84-2.84-60.73-2.84c-1.18,0-4.73,0-10.4-0.47c-5.67-0.24-9.45-0.47-11.11-0.47
		h-43.48c0,0-4.26,0.24-12.52,0.71c-20.56,0.94-35.21,4.25-44.19,10.4c-2.6,4.25-4.02,8.98-4.02,13.94c0,5.43,1.89,13,5.91,22.45
		c4.02,10.16,6.14,17.72,6.14,22.92c-0.94,37.81-1.65,57.19-2.6,96.65c-1.18,42.53-1.89,75.85-1.89,98.3
		c0,17.25,6.38,26.47,19.38,27.41c6.38,0.47,21.27-0.47,44.66-1.65c41.59-2.13,69.47-2.84,83.42-3.07h7.8
		c8.98-0.24,17.02-1.89,24.58-4.96c7.8-10.16,11.58-27.88,11.58-52.7c0-1.89,0.24-6.38,0.94-13c0.47-6.62,0.71-10.87,0.71-12.76
		c0-3.31-0.24-6.62-1.18-10.4c-0.95-3.78-2.84-7.33-5.91-11.11c-2.83-3.55-5.67-5.43-8.51-5.43c-3.31,0-14.18,3.07-32.61,9.92
		c-18.43,6.62-32.37,10.4-41.59,10.4c-7.09,0.24-12.05-0.71-15.12-2.84c-4.49-3.55-6.62-9.92-6.62-19.14
		c0-14.89,2.84-22.21,8.74-22.21c5.2,2.13,11.82,4.73,19.85,8.03c12.76,5.2,23.63,7.8,32.61,7.8c4.02,0,8.03-2.36,11.58-7.33
		c3.07-4.02,4.73-8.03,5.44-11.58v-5.43c0-3.78,0.24-9.69,0.71-17.49c0.71-7.8,0.94-13.47,0.94-17.25c0-7.8-0.94-12.76-2.6-15.36
		c-3.07-4.25-8.51-6.38-16.31-6.38c-5.44,0-14.18,1.89-26.23,6.14c-12.05,4.25-20.32,6.38-24.58,6.38c-2.36,0-4.72-0.71-7.09-2.13
		c-2.13-6.38-3.07-11.58-3.07-15.83C1461.54,373.78,1466.98,368.11,1477.85,365.98z M1801.11,305.25
		c-10.87-3.78-45.37-5.67-103.27-5.67c-60.73,0-92.39,3.07-95.23,5.2c-3.78,3.31-8.51,11.82-8.51,26.7c0,0.71,0.47,2.6,0.47,5.2
		c0.24,2.6,0,5.2,0,7.33v24.34c0,1.89,0.24,4.49,0,6.85c0,2.6-0.47,4.25-0.47,4.73c0,16.54,4.49,24.81,13,25.05
		c5.44,0,12.76-3.07,21.74-9.45c8.98-6.38,16.54-9.69,22.21-9.45c3.31,1.89,4.73,5.43,4.49,10.16c-0.47,5.43-0.47,9.45,0.71,11.11
		c-2.83,38.99-5.43,69.47-6.62,89.8c-0.24,5.67-0.94,14.42-2.13,26.23c-0.94,8.74-1.42,15.12-1.42,18.9v3.07
		c0.24,1.42,0.47,2.36,0.47,2.84c0,1.65-0.24,4.49-0.47,8.98c-0.23,4.49-0.47,7.33-0.47,8.27c0,11.82,4.73,20.09,14.41,24.81
		c5.91,0.24,8.98,0.47,15.12,0.71c29.54,1.65,46.08,3.07,50.1,2.6c18.19-1.42,27.17-9.92,27.17-25.28c0-4.73-0.94-11.82-2.83-21.5
		c-1.89-9.69-2.84-16.78-2.84-21.5c0-14.18-0.24-35.21-0.47-63.09c-0.47-27.65-0.47-48.21-0.47-62.15c0-5.2,2.36-8.74,7.56-9.92
		c4.49,0.47,10.87,3.78,19.14,10.16c8.51,6.38,14.65,9.69,18.9,9.92c11.82,0.71,17.72-8.51,17.72-27.41c0-0.47,0.24-2.36,0-5.2
		c0-2.6-0.24-5.2-0.24-7.56v-12.76c0-3.31,0.24-8.04,0.71-14.18c0.71-6.38,0.94-11.11,0.94-14.42
		C1810.57,315.18,1807.49,307.38,1801.11,305.25z M2025.13,529.03c-3.07-4.96-5.67-7.8-8.51-8.51c-3.31-0.71-14.18,1.18-32.61,5.2
		c-18.43,4.02-32.38,5.2-41.59,3.55c-7.09-1.42-12.29-3.55-15.12-6.38c-4.49-4.73-6.85-12.05-6.85-22.45
		c0-16.31,3.07-24.1,8.98-23.39c5.2,3.31,11.58,7.33,19.61,12.52c13,8.04,23.87,13.23,32.85,14.65c4.02,0.94,8.04-1.42,11.58-6.38
		c2.84-4.25,4.73-8.74,5.2-13v-6.38c0-4.73,0.47-11.58,0.94-21.03c0.71-9.22,0.94-16.31,0.94-20.79c0-9.21-0.94-15.6-2.6-18.9
		c-3.07-5.67-8.51-8.74-16.31-9.45c-5.44-0.71-14.18,0.95-26.23,4.73c-12.05,3.78-20.32,5.2-24.81,4.96
		c-2.36-0.24-4.73-1.42-7.09-3.07c-1.89-7.56-3.07-13.71-3.07-18.67c0-10.63,5.67-16.54,16.54-18.43c1.42,0.47,8.04,0.94,19.38,1.65
		c7.56,0.71,17.25,4.25,29.07,11.11c12.05,7.09,20.8,10.87,25.99,11.58c14.18,1.42,21.27-8.98,21.27-31.43
		c0-9.45-0.47-17.96-1.65-24.58c-0.95-4.49-1.42-7.8-1.42-9.45c-1.18-19.14-5.67-30.96-11.58-32.14
		c-21.98-4.96-45.84-3.78-60.73-3.78c-1.42,0-4.73,0-10.4-0.47c-5.67-0.47-9.45-0.71-11.11-0.71h-43.71c0,0-4.02,0.24-12.29,0.71
		c-20.56,1.18-35.21,4.72-44.19,11.11c-2.6,4.49-4.02,9.45-4.02,14.65c0,5.91,1.89,13.94,5.91,24.1
		c4.02,11.11,6.14,19.38,6.14,24.81c-1.18,40.17-1.65,60.26-2.6,100.67c-1.18,43.48-1.89,76.8-1.89,99.72
		c0,17.25,6.38,28.36,19.38,34.03c6.38,2.84,21.27,6.14,44.66,11.34c41.59,8.98,69.47,17.25,83.42,21.27
		c1.65,0.47,2.83,0.71,4.02,1.18c1.65,0.47,2.36,0.71,3.78,0.95c8.74,2.84,17.01,3.54,24.57,2.36c7.56-9.69,11.58-29.3,11.58-59.08
		c0-2.36,0.24-7.56,0.94-15.36c0.47-8.04,0.71-13,0.71-15.6c0-3.78-0.47-8.03-1.18-12.76
		C2030.09,538.96,2028.2,534.23,2025.13,529.03z"/>
	<path d="M354.93,999.52c0.71,3.55,0.94,10.63,0.94,21.27c0,41.59-9.45,71.84-28.12,89.32c-4.96,4.73-9.69,8.04-13.94,9.69
		c-13.7,5.67-30.72,4.02-50.8-5.2c-0.95-0.24-3.31-1.65-6.85-4.02c-27.88-17.01-47.5-39.23-58.84-63.09
		c-20.09-42.06-30.01-88.14-30.01-138.48c0-136.35,42.77-185.73,128.78-164.7c29.54,7.33,45.13,16.54,46.79,29.3
		c1.65,10.63,2.36,25.76,2.36,45.84c0,4.96-0.47,22.21-1.42,51.51c-0.24,11.34-0.71,18.67-1.42,21.74
		c-1.42,8.03-4.73,13.23-10.16,15.36c-0.94,0-2.6-0.24-4.96-0.71c-9.45-2.84-21.5-13.47-35.68-32.14
		c-14.41-18.67-21.74-28.12-22.45-28.36c-4.49-1.42-8.04-0.24-10.63,3.54c-0.71,0.71-4.25,5.67-5.91,11.58
		c-3.55,13.47-1.65,30.48-1.65,40.88c0,48.68,11.58,78.22,34.74,86.72c8.27,2.84,18.91,0.47,31.9-7.8
		c12.76-8.51,20.56-12.52,23.63-11.82C347.37,971.63,352.1,981.56,354.93,999.52z M586.27,884.44c4.73,22.21,7.09,53.4,7.09,93.1
		c0,95.23-20.79,157.38-62.62,186.21c-12.76,8.74-30.72,12.52-53.88,9.92c-19.61-2.13-35.45-9.45-47.26-21.03
		c-29.07-28.12-46.32-73.49-51.75-134.22c-1.42-17.01-2.36-28.36-2.36-34.26c0-55.77,8.74-104.68,25.99-147.69
		c17.72-44.43,47.97-64.28,90.5-60.73c24.1,1.89,42.54,10.4,54.82,25.52C566.19,825.12,579.42,852.77,586.27,884.44z M511.84,956.04
		c0-38.05-9.21-57.89-28.12-59.79c-5.2-0.47-10.4,2.13-14.65,8.03c-5.91,8.03-8.98,31.43-8.98,69.47c0,17.96,0.95,31.19,3.07,39.7
		c4.02,16.54,11.58,25.28,23.39,26.47c10.87,1.18,18.2-3.78,21.74-14.89c2.36-7.09,3.54-17.72,3.54-31.9V956.04z M930.81,764.16
		c0-11.34-10.87-14.65-32.61-9.69c-2.6,0.47-15.6,4.73-38.52,12.05c-6.14,1.89-10.63,3.31-13.47,4.25
		c-14.89,6.14-24.1,13.23-27.65,21.74c-5.67,19.85-8.98,33.32-10.16,40.41c-4.02,21.98-6.85,38.52-8.51,49.39
		c-3.07,17.25-6.85,34.03-11.58,48.44c-1.18,1.42-2.36,2.36-3.31,2.36c-0.94,0-1.42-0.47-1.65-1.65
		c-5.44-15.36-9.69-38.04-12.52-68.53c-3.31-33.32-6.85-56.95-10.4-70.66c-2.6-10.63-10.4-15.36-23.16-14.65
		c-3.31,0.24-11.11,1.18-23.39,3.31c-25.99,4.02-48.21,8.03-66.17,12.05c-18.67,4.25-28.12,15.36-28.12,33.32
		c0,4.73,0.95,10.4,2.83,16.78c2.13,7.8,3.31,12.76,3.55,15.12c0.94,10.63,0.71,18.43,0.94,22.21c0.24,28.59,0.71,46.31,0.71,52.46
		c0,16.07,0,40.17-0.47,71.84c-0.24,31.9-0.24,55.53-0.24,70.89c0,30.25,0.24,54.35,0.71,72.55c0.47,10.63,2.84,18.19,7.33,21.98
		c10.4,2.84,16.54,4.25,18.67,4.02c15.6-1.42,28.36-5.67,38.52-11.82c6.85-4.25,10.16-12.52,10.16-24.34
		c0-12.29-0.94-30.48-3.31-55.06c-2.13-24.81-3.31-43.48-3.31-56c0-1.42,0.24-4.25,0.47-8.51c0.23-4.49,0.47-7.33,0.47-8.51
		c0-1.42-0.47-3.78-0.94-7.8c-0.71-3.78-0.94-6.14-0.94-7.09c0-2.6,0.71-5.67,2.36-9.45c1.42-3.55,3.07-5.67,4.73-5.67
		c1.18-0.23,2.13,0.71,2.36,2.13c1.65,8.27,2.83,14.18,3.07,17.72c3.31,18.67,5.67,31.9,7.09,39.7c4.25,26.23,7.33,45.84,8.98,59.08
		c6.62,39.23,13.94,58.13,21.98,57.89c10.4-0.24,18.67-0.94,25.05-2.36c16.31-3.07,25.52-7.8,27.65-13.71
		c3.31-9.22,5.43-15.6,6.38-19.14c1.42-6.85,2.36-11.82,3.07-14.41c5.2-28.36,7.8-42.54,13-71.13c4.73-26.47,9.69-50.57,14.65-71.84
		c1.42-6.62,3.55-11.11,6.38-13.7c3.54,0.24,5.2,3.31,5.2,8.27c0,0,0,1.18-0.47,3.78c-1.18,16.07-1.89,27.41-2.13,33.79
		c-3.07,41.35-4.49,79.63-4.49,114.84c0,8.51,0.95,14.41,3.07,17.72c1.18,1.89,3.78,3.31,7.56,4.73c3.78,1.18,6.85,1.42,9.22,0.94
		c31.43-8.27,52.46-17.96,63.33-28.12c4.25-10.16,6.14-17.01,6.14-19.85v-31.9c-0.24-9.22-0.24-19.85-0.24-31.9
		c0-18.2,0-45.84,0.24-83.18c0.47-37.34,0.47-65.69,0.47-84.36c0-7.56,0.47-18.9,1.18-34.26c0.71-15.36,1.18-26.7,1.18-34.26
		c0-1.89-0.24-5.67-0.47-11.34C931.04,769.59,930.81,765.81,930.81,764.16z M1142.77,746.67c10.87,20.56,16.54,48.21,16.54,83.18
		c0,39.94-10.4,75.38-30.96,106.81c-15.36,23.39-49.62,37.33-68.29,50.1c-2.84,1.89-4.49,8.27-4.49,14.18
		c0,0.71,0.24,3.07,0.47,6.62c0.24,3.31,0.47,5.67,0.47,6.85v2.84c-0.47,0.95-0.47,1.89-0.47,2.84c0,2.13,0.47,6.62,1.65,13.71
		c1.18,7.09,1.89,12.05,1.89,14.41c0,5.44-1.18,10.4-3.07,14.89c-14.42,13.71-32.14,23.87-53.17,30.48
		c-15.13,4.73-24.81,6.85-29.54,6.62c-4.73-0.24-7.56-3.78-8.04-10.16c-0.71-6.38-0.94-21.74-0.94-46.08
		c0-20.09,0.23-45.13,0.94-75.14c0.47-30.25,0.71-45.37,1.18-75.85c0-6.62,0-12.52-0.47-17.96c-0.24-5.43-0.24-11.34,0-17.72
		c0.47-6.38,0.71-9.69,0.94-16.07c0-4.96-0.47-12.29-1.18-22.21c-0.95-9.92-1.42-17.25-1.42-22.21c0-3.78-1.42-8.98-3.78-15.36
		c-2.6-6.38-3.78-10.4-3.78-11.58c0-3.07,1.18-6.62,3.54-10.63c1.18-1.65,3.31-3.78,6.62-6.85c16.54-14.65,43.24-26.23,80.58-35.21
		c1.65-0.23,2.36-0.47,4.02-0.94c18.67-4.49,36.63-4.02,53.88,1.42C1122.92,722.8,1135.21,732.49,1142.77,746.67z M1078.73,842.14
		c0-19.38-5.44-27.65-16.54-24.58c-6.14,1.65-9.93,4.25-11.11,7.09c-0.94,1.89-1.42,6.38-1.42,13.7c0,2.36,0,8.03-0.47,17.25
		c-0.24,9.21-0.24,15.12-0.24,17.72c0,8.51,3.78,11.58,11.58,9.45c5.2-1.65,8.98-4.25,10.63-7.8
		C1076.37,864.82,1078.73,853.95,1078.73,842.14z M1335.83,858.68c-4.25,1.18-11.34,5.67-21.5,13.94
		c-10.16,8.04-17.49,13-22.21,14.18c-8.51,2.36-13.47,0.24-15.36-6.14c-0.47-2.13-0.71-11.58-0.71-28.59
		c0-19.38,1.42-49.15,4.25-88.14c2.6-38.99,7.33-72.07,4.02-86.49c-0.47-2.84-3.07-6.38-4.73-8.98c-2.84-1.18-4.02-1.89-6.85-3.07
		c-6.85,0.47-14.65,1.65-23.63,3.78c-25.05,5.67-46.08,14.89-63.09,27.17c-5.2,4.02-8.03,9.22-8.03,15.6c0,1.65,0.24,3.31,0.95,4.96
		c3.78,11.11,7.09,25.76,9.92,43.72c0.71,5.67,1.18,8.98,1.18,10.16c0,12.52,0,24.34-0.47,35.45c-1.18,46.55-1.89,70.18-3.07,117.44
		c-0.95,30.72-1.42,58.13-1.42,82.23c0,12.52,4.96,19.61,14.41,20.56c5.67,0.71,16.07-1.42,31.19-6.14
		c19.85-6.14,38.04-12.29,54.59-17.25c3.31-0.95,10.16-3.07,20.09-6.62c8.51-2.84,15.36-4.96,20.32-6.38
		c11.34-3.78,18.9-9.69,21.27-15.6c4.73-11.11,7.33-31.66,7.33-61.2c0-13,2.13-34.97-2.84-47.73
		C1349.54,860.33,1341.74,857.02,1335.83,858.68z M1477.85,706.26c1.42,0.24,8.04-0.24,19.61-0.95c7.32-0.47,17.01,1.89,29.06,6.85
		c11.81,4.96,20.56,7.56,25.76,7.33c14.18-0.47,21.27-10.4,21.27-29.77c0-8.27-0.47-15.6-1.65-21.27c-0.95-3.78-1.42-6.62-1.42-8.27
		c-1.18-16.3-5.67-26.47-11.58-27.41c-22.45-4.25-45.84-2.13-60.73-1.65h-10.4c-5.67-0.24-9.45-0.24-11.11-0.24
		c-17.49,0.94-26.47,1.42-43.48,2.84c0,0-4.26,0.47-12.52,1.42c-20.56,2.6-35.21,10.63-44.19,19.14c-2.6,5.43-4.02,10.87-4.02,16.54
		c0,6.14,1.89,14.41,5.91,24.34c4.02,10.87,6.14,19.14,6.14,24.81c-0.94,43.24-1.65,65.22-2.6,109.88
		c-1.18,47.97-1.89,85.54-1.89,110.83c0,19.38,6.38,29.3,19.38,30.01c6.38,0.24,21.27-2.36,44.66-6.62
		c41.59-7.56,69.47-10.87,83.42-12.52c1.65-0.24,3.07-0.24,4.25-0.47c1.42,0,2.13-0.24,3.54-0.24c8.98-0.94,17.02-3.54,24.58-7.33
		c7.8-12.05,11.58-31.9,11.58-59.31c0-2.13,0.24-7.09,0.94-14.41c0.47-7.33,0.71-12.05,0.71-14.18c0-3.55-0.24-7.33-1.18-11.34
		c-0.95-4.02-2.84-8.03-5.91-12.05c-2.83-4.02-5.67-5.91-8.51-5.67c-3.31,0.24-14.18,4.25-32.61,13.23
		c-18.43,8.74-32.37,13.94-41.59,15.12c-7.09,0.71-12.05,0.24-15.12-1.89c-4.49-3.54-6.62-10.4-6.62-21.03
		c0-16.78,2.84-25.28,8.74-25.99c5.2,1.89,11.82,4.49,19.85,7.56c12.76,4.73,23.63,6.85,32.61,6.14c4.02-0.24,8.03-3.31,11.58-8.98
		c3.07-4.73,4.73-9.22,5.44-13.23v-5.91c0-4.49,0.24-10.87,0.71-19.61c0.71-8.74,0.94-15.12,0.94-19.61c0-8.51-0.94-13.94-2.6-16.78
		c-3.07-4.73-8.51-6.85-16.31-6.62c-5.44,0.47-14.18,3.07-26.23,8.74c-12.05,5.44-20.32,8.51-24.58,8.98
		c-2.36,0-4.72-0.47-7.09-1.89c-2.13-7.09-3.07-13.23-3.07-17.96C1461.54,716.19,1466.98,709.33,1477.85,706.26z M1801.11,650.49
		c-10.87-5.67-45.37-13.23-103.27-17.72c-60.73-4.49-92.39-0.94-95.23,1.42c-3.78,3.54-8.51,13-8.51,29.54
		c0,0.71,0.47,2.84,0.47,5.91c0.24,2.84,0,5.67,0,8.03v26.7c0,2.36,0.24,5.2,0,7.8c0,2.84-0.47,4.73-0.47,5.2
		c0,18.2,4.49,27.41,13,27.41c5.44,0,12.76-3.55,21.74-10.4c8.98-6.85,16.54-10.16,22.21-9.93c3.31,2.13,4.73,5.91,4.49,11.11
		c-0.47,6.14-0.47,10.16,0.71,12.29c-2.83,42.3-5.43,75.38-6.62,97.59c-0.24,6.14-0.94,15.83-2.13,28.59
		c-0.94,9.69-1.42,16.54-1.42,20.79v3.07c0.24,1.65,0.47,2.84,0.47,3.31c0,1.65-0.24,4.96-0.47,9.69c-0.23,4.96-0.47,8.03-0.47,8.98
		c0,13,4.73,21.74,14.41,26.7c5.91,0,8.98,0.24,15.12,0.47c29.54,1.42,46.08,3.31,50.1,2.84c18.19-1.18,27.17-9.45,27.17-25.99
		c0-4.72-0.94-12.52-2.83-22.92c-1.89-10.4-2.84-17.96-2.84-23.16c0-14.89-0.24-37.34-0.47-67.11c-0.47-29.54-0.47-51.51-0.47-66.16
		c0-5.67,2.36-9.22,7.56-9.92c4.49,0.71,10.87,4.96,19.14,12.52c8.51,7.56,14.65,11.82,18.9,12.52
		c11.82,2.13,17.72-6.62,17.72-26.47c0-0.47,0.24-2.36,0-5.43c0-2.84-0.24-5.67-0.24-8.03v-13.47c0-3.31,0.24-8.27,0.71-14.89
		c0.71-6.38,0.94-11.34,0.94-14.65C1810.57,662.55,1807.49,653.8,1801.11,650.49z M2025.13,931.7c-3.07-6.14-5.67-9.92-8.51-11.34
		c-3.31-1.65-14.18-3.31-32.61-4.49c-18.43-0.95-32.38-3.07-41.59-6.85c-7.09-3.07-12.29-6.38-15.12-9.92
		c-4.49-5.67-6.85-13.71-6.85-24.34c0-16.78,3.07-24.1,8.98-21.74c5.2,4.25,11.58,9.93,19.61,17.25
		c13,11.34,23.87,19.38,32.85,23.39c4.02,1.89,8.04,0.94,11.58-3.31c2.84-3.31,4.73-7.33,5.2-11.34v-6.38
		c0-4.73,0.47-11.58,0.94-20.79c0.71-9.22,0.94-16.07,0.94-20.79c0-9.45-0.94-16.07-2.6-19.85c-3.07-6.62-8.51-11.58-16.31-14.65
		c-5.44-2.13-14.18-3.07-26.23-2.6c-12.05,0.71-20.32,0.24-24.81-1.18c-2.36-0.94-4.73-2.6-7.09-4.96
		c-1.89-8.27-3.07-14.65-3.07-19.61c0-10.87,5.67-15.83,16.54-14.89c1.42,0.71,8.04,3.07,19.38,7.09
		c7.56,2.6,17.25,8.98,29.07,19.61c12.05,10.63,20.8,17.49,25.99,19.85c14.18,6.14,21.27-1.65,21.27-24.1
		c0-9.45-0.47-18.2-1.65-25.28c-0.95-4.73-1.42-8.27-1.42-9.92c-1.18-19.61-5.44-32.85-11.58-36.39
		c-21.98-12.76-45.84-19.14-60.73-23.63c-1.42-0.24-4.73-1.42-10.4-3.54c-5.67-2.13-9.45-3.31-11.11-3.78
		c-17.49-4.96-26.47-7.09-43.71-10.87c0,0-4.25-0.71-12.29-2.13c-20.56-3.55-35.21-2.36-44.19,2.36c-2.6,4.25-4.02,9.22-4.02,14.89
		c0,5.91,1.89,14.65,5.91,25.99c4.02,12.29,6.14,21.27,6.14,26.94c-1.18,41.59-1.65,62.38-2.6,104.45
		c-1.18,45.37-1.89,79.87-1.89,103.74c0,17.96,6.38,30.48,19.14,37.81c6.62,3.78,21.5,9.22,44.9,18.2
		c41.59,16.54,69.47,31.66,83.42,39.46c1.65,0.71,2.83,1.65,4.02,2.13c1.65,0.95,2.36,1.18,3.78,2.13
		c8.74,4.96,17.01,8.03,24.57,9.22c7.56-7.56,11.58-25.99,11.58-55.77c0-2.36,0.24-7.56,0.94-15.12c0.47-7.8,0.71-12.76,0.71-15.12
		c0-3.78-0.47-8.27-1.18-13.23C2030.09,943.27,2028.2,937.6,2025.13,931.7z"/>
	<path d="M354.93,1396.74c0.71,2.84,0.94,8.74,0.94,17.49c0,34.26-9.45,59.08-28.12,74.67c-4.96,4.25-9.69,7.33-13.94,8.98
		c-13.7,5.67-30.72,6.14-50.8,0.47c-0.95-0.23-3.31-1.18-6.85-2.6c-27.88-11.58-47.5-28.59-58.84-49.62
		c-20.09-36.63-30.01-81.76-30.01-132.09c0-136.35,42.77-171.79,128.78-138c29.54,11.82,45.13,21.5,46.79,32.37
		c1.65,8.98,2.36,21.98,2.36,38.52c0,4.25-0.47,18.43-1.42,42.53c-0.24,9.45-0.71,15.6-1.42,17.96
		c-1.42,6.85-4.73,10.87-10.16,12.29c-0.94,0-2.6-0.23-4.96-0.94c-9.45-3.07-21.5-12.76-35.68-30.25
		c-14.41-17.49-21.74-26.7-22.45-26.94c-4.49-1.89-8.04-1.18-10.63,1.89c-0.71,0.47-4.25,4.73-5.91,9.93
		c-3.31,11.34-1.65,27.17-1.65,36.39c0,43.72,11.58,70.18,34.74,77.51c8.27,2.6,18.91,0.47,31.9-6.38
		c12.76-6.85,20.56-9.92,23.63-8.98C347.37,1373.59,352.1,1381.86,354.93,1396.74z M586.27,1309.07
		c4.73,17.72,7.09,42.77,7.09,74.67c0,76.09-20.79,124.77-62.62,146.27c-12.76,6.62-30.72,9.22-53.88,7.09
		c-19.61-1.89-35.45-7.56-47.26-16.54c-29.07-21.98-46.32-58.37-51.75-107.99c-1.42-13.7-2.36-23.16-2.36-27.88
		c0-45.61,8.74-85.07,25.99-118.39c17.72-34.5,47.97-47.73,90.5-43.72c24.1,2.13,42.54,8.74,54.82,20.56
		C566.19,1262.05,579.42,1283.79,586.27,1309.07z M511.84,1366.02c0-30.01-9.21-45.84-28.12-47.97c-5.2-0.47-10.4,1.42-14.65,5.91
		c-5.91,6.14-8.98,24.81-8.98,55.06c0,14.18,0.95,24.81,3.07,31.43c4.02,13.23,11.58,20.32,23.39,21.5
		c10.87,0.95,18.2-2.84,21.74-11.34c2.36-5.67,3.54-13.94,3.54-25.28V1366.02z M930.81,1181.47c0-10.63-10.87-12.52-32.61-6.38
		c-2.6,0.71-15.6,5.44-38.52,13.94c-6.14,2.36-10.63,3.78-13.47,4.73c-14.89,6.62-24.1,13.7-27.65,21.5
		c-5.67,18.2-8.98,30.25-10.16,36.63c-4.02,19.85-6.85,34.74-8.51,44.66c-3.07,15.6-6.85,30.48-11.58,43.48
		c-1.18,1.42-2.36,2.13-3.31,2.13c-0.94,0.24-1.42-0.24-1.65-1.42c-5.44-13.23-9.69-33.08-12.52-59.55
		c-3.31-29.06-6.85-49.39-10.4-60.97c-2.6-8.98-10.4-12.05-23.16-9.93c-3.31,0.47-11.11,2.36-23.39,5.44
		c-25.99,6.38-48.21,11.82-66.17,16.3c-18.67,4.96-28.12,14.41-28.12,29.07c0,3.78,0.95,8.27,2.83,13.47
		c2.13,6.14,3.31,10.4,3.55,12.05c0.94,8.51,0.71,15.12,0.94,17.96c0.24,23.16,0.71,37.57,0.71,42.77c0,13,0,32.37-0.47,58.13
		c-0.24,25.76-0.24,44.66-0.24,57.19c0,24.34,0.24,43.72,0.71,58.37c0.47,8.51,2.84,14.65,7.33,17.96
		c10.4,3.07,16.54,4.49,18.67,4.49c15.6-0.47,28.36-2.84,38.52-7.33c6.85-3.07,10.16-9.69,10.16-19.38
		c0-10.16-0.94-25.52-3.31-46.08c-2.13-20.8-3.31-36.39-3.31-46.79c0-1.18,0.24-3.55,0.47-7.09c0.23-3.55,0.47-5.91,0.47-7.09
		c0-1.18-0.47-3.31-0.94-6.38c-0.71-3.31-0.94-5.2-0.94-6.14c0-2.13,0.71-4.73,2.36-7.8c1.42-3.07,3.07-4.73,4.73-4.73
		c1.18-0.24,2.13,0.47,2.36,1.65c1.65,7.09,2.83,11.82,3.07,14.89c3.31,15.6,5.67,26.7,7.09,33.32c4.25,22.21,7.33,38.99,8.98,50.33
		c6.62,33.32,13.94,50.1,21.98,50.57c10.4,0.71,18.67,0.95,25.05,0.47c16.31-1.18,25.52-5.2,27.65-10.4
		c3.31-8.04,5.43-13.71,6.38-16.78c1.42-6.14,2.36-10.4,3.07-12.76c5.2-25.05,7.8-37.57,13-63.33c4.73-23.63,9.69-45.13,14.65-64.51
		c1.42-5.91,3.55-10.16,6.38-12.52c3.54,0.47,5.2,2.84,5.2,7.56c0,0,0,0.94-0.47,3.31c-1.18,14.65-1.89,24.58-2.13,30.25
		c-3.07,37.34-4.49,71.6-4.49,103.03c0,7.8,0.95,13,3.07,16.07c1.18,1.65,3.78,3.07,7.56,4.25c3.78,1.42,6.85,1.65,9.22,1.18
		c31.43-6.62,52.46-14.41,63.33-23.39c4.25-9.22,6.14-15.36,6.14-18.2v-29.3c-0.24-8.74-0.24-18.43-0.24-29.54
		c0-16.78,0-42.53,0.24-77.04c0.47-34.5,0.47-60.73,0.47-78.22c0-6.85,0.47-17.49,1.18-31.67c0.71-14.41,1.18-25.05,1.18-31.9
		c0-1.89-0.24-5.43-0.47-10.63C931.04,1186.2,930.81,1182.89,930.81,1181.47z M1142.77,1149.33c10.87,20.32,16.54,48.68,16.54,84.6
		c0,40.88-10.4,77.51-30.96,108.46c-15.36,23.39-49.62,35.92-68.29,47.73c-2.84,1.65-4.49,8.03-4.49,13.47
		c0,0.94,0.24,3.07,0.47,6.62c0.24,3.31,0.47,5.67,0.47,6.85v2.6c-0.47,1.18-0.47,1.89-0.47,2.84c0,2.13,0.47,6.62,1.65,13.7
		c1.18,7.09,1.89,11.58,1.89,13.94c0,5.43-1.18,10.16-3.07,14.65c-14.42,12.29-32.14,20.79-53.17,25.76
		c-15.13,3.54-24.81,4.96-29.54,4.49c-4.73-0.71-7.56-4.02-8.04-9.93c-0.71-6.14-0.94-20.56-0.94-43.24
		c0-19.14,0.23-42.77,0.94-70.66c0.47-28.59,0.71-42.77,1.18-71.6c0-5.91,0-11.58-0.47-16.78c-0.24-5.2-0.24-10.63,0-16.54
		c0.47-6.14,0.71-9.22,0.94-15.12c0-4.73-0.47-11.82-1.18-21.03c-0.95-9.22-1.42-16.31-1.42-20.79c0-3.55-1.42-8.27-3.78-14.18
		c-2.6-5.91-3.78-9.45-3.78-10.63c0-2.84,1.18-6.38,3.54-10.4c1.18-1.42,3.31-3.78,6.62-6.85c16.54-15.12,43.24-28.59,80.58-40.65
		c1.65-0.47,2.36-0.71,4.02-1.18c18.67-6.14,36.63-7.33,53.88-3.31C1122.92,1126.17,1135.21,1135.15,1142.77,1149.33z
		 M1078.73,1247.63c0-19.14-5.44-27.17-16.54-23.63c-6.14,1.89-9.93,4.49-11.11,7.56c-0.94,1.65-1.42,6.14-1.42,13.23
		c0,2.36,0,8.04-0.47,17.01c-0.24,8.74-0.24,14.65-0.24,17.25c0,8.27,3.78,11.34,11.58,8.98c5.2-1.65,8.98-4.25,10.63-7.8
		C1076.37,1270.08,1078.73,1259.21,1078.73,1247.63z M1335.83,1268.19c-4.25,0.95-11.34,5.67-21.5,14.18
		c-10.16,8.51-17.49,13.47-22.21,14.65c-8.51,2.13-13.47-0.24-15.36-7.33c-0.47-2.36-0.71-12.76-0.71-30.96
		c0-21.03,1.42-52.93,4.25-95.47c2.6-42.3,7.56-77.98,4.02-94.05c-0.47-3.07-3.07-6.62-4.73-9.45c-2.84-1.18-4.02-1.65-6.85-2.84
		c-6.85,0.71-14.65,2.36-23.63,5.2c-25.05,7.56-46.08,18.67-63.09,32.61c-5.2,4.49-8.03,9.92-8.03,16.54c0,1.89,0.24,3.55,0.95,5.2
		c3.78,11.34,7.09,26.47,9.92,45.13c0.71,5.67,1.18,9.22,1.18,10.4c0,13,0,25.28-0.47,36.86c-1.18,48.92-1.89,73.26-3.07,122.41
		c-0.95,32.14-1.42,60.49-1.42,85.54c0,13.23,4.96,20.79,14.41,22.92c5.67,1.18,16.07-0.24,31.19-3.78
		c19.85-4.49,38.28-9.22,54.59-13.23c3.31-0.71,10.16-2.6,20.09-5.44c8.51-2.36,15.36-4.02,20.32-5.43
		c11.34-2.84,18.9-8.74,21.27-15.12c4.73-12.05,7.33-34.74,7.33-67.35c0-14.41,2.36-38.04-2.84-53.17
		C1349.54,1270.32,1341.74,1266.78,1335.83,1268.19z M1477.85,1095.93c1.42,0.24,8.04-0.47,19.61-1.89
		c7.32-0.71,17.01,1.65,29.06,7.33c11.81,5.67,20.56,8.51,25.76,8.27c14.18-0.95,21.27-13.47,21.27-37.57
		c0-10.4-0.47-19.38-1.65-26.47c-0.95-4.73-1.42-8.04-1.42-9.92c-1.18-20.56-5.67-32.85-11.58-33.79
		c-21.74-3.31-45.84,0.94-60.73,3.07c-1.18,0.24-4.73,0.47-10.4,0.71c-5.67,0.47-9.45,0.94-11.11,1.18
		c-17.49,2.84-26.47,4.25-43.48,7.8c0,0-4.26,0.94-12.52,3.07c-20.56,5.43-35.21,13.47-44.19,23.16c-2.6,6.14-4.02,12.29-4.02,18.67
		c0,7.09,1.89,16.07,5.91,27.41c4.02,12.05,6.14,21.5,6.14,27.88c-0.94,48.44-1.65,73.02-2.6,122.88
		c-1.18,53.88-1.89,95.47-1.89,123.82c0,21.5,6.38,33.08,19.38,34.5c6.38,0.71,21.27,0,44.66-1.42c41.59-2.84,69.47-3.55,83.42-4.02
		h7.8c8.98-0.24,17.02-2.36,24.58-6.62c7.8-13.94,11.58-38.04,11.58-71.6c0-2.84,0.24-8.74,0.94-17.72
		c0.47-8.98,0.71-14.89,0.71-17.72c0-4.25-0.24-8.98-1.18-13.94c-0.95-4.96-2.84-9.93-5.91-14.89c-2.83-4.96-5.67-7.33-8.51-7.09
		c-3.31,0-14.18,4.72-32.61,14.65c-18.43,9.92-32.37,15.36-41.59,15.83c-7.09,0.71-12.05-0.47-15.12-3.07
		c-4.49-4.25-6.62-12.52-6.62-24.81c0-19.61,2.84-29.54,8.74-30.01c5.2,2.36,11.82,5.44,19.85,9.45
		c12.76,6.14,23.63,8.98,32.61,8.51c4.02-0.24,8.03-3.78,11.58-10.4c3.07-5.91,4.73-11.11,5.44-16.07v-7.56
		c0-5.2,0.24-13,0.71-23.63c0.71-10.63,0.94-18.67,0.94-23.87c0-10.4-0.94-17.25-2.6-20.79c-3.07-5.43-8.51-8.03-16.31-7.33
		c-5.44,0.47-14.18,4.02-26.23,10.63c-12.05,6.85-20.32,10.63-24.58,11.11c-2.36,0.23-4.72-0.24-7.09-1.89
		c-2.13-8.27-3.07-15.36-3.07-21.03C1461.54,1108.45,1466.98,1100.18,1477.85,1095.93z M1801.11,1018.66
		c-10.87-7.33-45.37-18.19-103.27-22.68c-60.73-4.73-92.16,1.89-95.23,5.43c-3.54,4.25-8.51,16.78-8.51,37.34
		c0,0.94,0.47,3.54,0.47,7.33c0.24,3.54,0,7.09,0,10.16v33.55c0,2.84,0.24,6.14,0,9.69c0,3.31-0.47,5.67-0.47,6.38
		c0,22.69,4.49,34.26,13,34.03c5.44,0,12.76-4.49,21.74-13.47c8.98-8.98,16.54-13.23,22.21-13c3.31,2.84,4.73,7.56,4.49,13.94
		c-0.47,7.8-0.47,13,0.71,15.6c-2.83,53.64-5.43,95.23-6.62,123.35c-0.24,7.56-0.94,19.61-2.13,35.68
		c-0.94,12.29-1.42,20.79-1.42,25.99v4.02c0.24,2.13,0.47,3.55,0.47,4.02c0,2.13-0.24,6.14-0.47,12.29
		c-0.23,6.14-0.47,9.92-0.47,11.34c0,16.07,4.73,27.18,14.41,33.32c5.91,0.47,8.98,0.47,15.12,0.94c29.54,1.89,46.08,3.07,50.1,2.36
		c18.19-2.36,27.17-13.71,27.17-34.26c0-6.14-0.94-15.6-2.83-28.36c-1.89-13-2.84-22.69-2.84-29.06c0-18.91-0.24-47.03-0.47-84.12
		c-0.47-37.34-0.47-64.98-0.47-83.65c0-7.33,2.36-11.58,7.56-12.76c4.49,0.94,10.87,6.14,19.14,15.36
		c8.51,9.45,14.65,14.65,18.9,15.36c11.82,2.36,17.72-8.51,17.72-33.08c0-0.71,0.24-3.07,0-6.85c0-3.55-0.24-7.09-0.24-9.92v-16.54
		c0-4.25,0.24-10.4,0.71-18.43c0.71-8.03,0.94-14.18,0.94-18.43C1810.57,1034.02,1807.49,1023.15,1801.11,1018.66z M2025.13,1337.19
		c-3.07-5.91-5.67-9.45-8.51-10.63c-3.31-1.42-14.18-2.6-32.61-1.65c-18.43,0.71-32.38,0.24-41.59-3.07
		c-7.09-2.36-12.29-5.43-15.12-9.22c-4.49-5.91-6.85-15.12-6.85-27.17c0-19.14,3.07-27.65,8.98-25.52
		c5.2,4.73,11.58,10.63,19.61,18.2c13,11.58,23.87,19.38,32.85,23.16c4.02,1.65,8.04,0.24,11.58-4.25c2.84-4.02,4.73-8.04,5.2-12.29
		v-6.85c0-4.96,0.47-12.29,0.94-21.74c0.71-9.69,0.94-17.01,0.94-21.74c0-9.92-0.94-16.78-2.6-21.03
		c-3.07-7.09-8.51-12.52-16.31-16.31c-5.44-2.6-14.18-4.02-26.23-3.78c-12.05,0.47-20.32,0-24.81-1.65
		c-2.36-0.94-4.73-2.84-7.09-5.67c-1.89-9.45-3.07-16.78-3.07-22.69c0-12.29,5.67-17.72,16.54-16.07c1.42,0.95,8.04,3.78,19.38,8.98
		c7.56,3.31,17.25,11.11,29.07,23.39c12.05,12.53,20.8,20.09,25.99,22.92c14.18,7.56,21.27,0.71,21.27-21.74
		c0-9.45-0.47-18.19-1.65-25.76c-0.95-4.96-1.42-8.27-1.42-10.16c-1.18-19.85-5.2-34.03-11.58-39.46
		c-22.21-18.43-45.84-29.77-60.73-37.1c-1.42-0.71-4.73-2.6-10.4-5.67c-5.67-3.07-9.45-4.96-11.11-5.91
		c-17.72-8.03-26.7-11.58-44.42-18.19c-1.65-0.47-5.43-1.42-11.58-3.31c-20.56-6.14-35.21-5.67-44.19,0
		c-2.6,4.96-4.02,11.11-4.02,17.72c0,7.56,1.89,18.2,5.91,32.14c4.02,15.12,6.14,25.99,6.14,32.85c-1.18,50.57-1.65,75.85-2.6,126.9
		c-1.18,55.06-1.89,97.36-1.89,126.19c0,21.74,6.38,35.92,19.38,42.53c6.38,3.31,21.27,7.33,44.66,13
		c41.59,10.16,69.47,19.14,83.42,23.63c1.65,0.71,2.83,0.94,4.02,1.42c1.65,0.47,2.36,0.71,3.78,1.18
		c8.74,3.07,17.01,4.02,24.57,3.07c7.56-9.45,11.58-28.83,11.58-58.84c0-2.36,0.24-7.33,0.94-15.12c0.47-7.8,0.71-13,0.71-15.36
		c0-3.78-0.47-8.27-1.18-13C2030.09,1348.54,2028.2,1343.1,2025.13,1337.19z"/>
	<path d="M354.93,1754.27c0.71,2.6,0.94,8.04,0.94,16.54c0,32.85-9.22,58.13-28.12,77.04c-4.96,5.2-9.69,8.98-13.94,11.58
		c-13.7,8.51-30.72,13-50.8,13c-0.95,0-3.07-0.24-6.85-0.94c-27.88-3.55-47.5-13.71-58.84-30.72
		c-20.09-29.77-30.01-71.36-30.01-121.7c0-136.11,42.77-187.63,128.78-168.72c29.54,6.38,45.13,14.18,46.79,24.58
		c1.65,8.27,2.36,20.56,2.36,36.63c0,4.02-0.47,17.72-1.42,41.35c-0.24,8.98-0.71,14.89-1.18,17.49
		c-1.65,6.62-4.96,10.87-10.4,13.23c-0.94,0.24-2.6,0-4.96-0.24c-9.45-1.18-21.5-8.51-35.68-22.69
		c-14.41-14.41-21.74-21.98-22.45-21.98c-4.49-0.94-8.04,0.47-10.63,4.25c-0.71,0.71-4.25,5.2-5.91,11.11
		c-3.31,11.82-1.65,27.18-1.65,36.39c0,43.01,11.58,65.46,34.74,67.58c8.51,0.71,18.91-3.55,31.9-12.52
		c12.76-8.98,20.56-13.23,23.63-13C347.37,1733,352.1,1740.33,354.93,1754.27z M586.27,1659.51c4.73,16.31,7.09,39.23,7.09,68.06
		c0,69.24-20.79,112.72-62.62,134.69c-12.76,6.62-30.72,10.16-53.88,10.16c-19.61,0-35.45-3.54-47.26-10.63
		c-29.07-17.25-46.32-49.15-51.75-95.7c-1.42-13-2.36-21.98-2.36-26.47c0-43.48,8.74-82.47,25.99-115.55
		c17.72-34.5,47.97-48.68,90.5-45.37c24.1,1.89,42.54,8.27,54.82,19.61C566.19,1616.03,579.42,1636.36,586.27,1659.51z
		 M512.07,1711.74c0-27.88-9.45-42.53-28.36-43.72c-5.2-0.24-10.16,1.65-14.65,6.14c-5.91,5.91-8.98,23.4-8.98,51.99
		c0,13.23,0.95,22.92,3.07,29.3c4.02,11.82,11.58,17.96,23.39,18.43c10.87,0.24,18.2-3.55,21.74-11.58c2.36-5.2,3.78-13,3.78-23.63
		V1711.74z M930.81,1568.54c0-9.92-10.87-12.76-32.61-8.27c-2.6,0.47-15.6,4.25-38.52,10.63c-6.14,1.65-10.63,3.07-13.47,3.78
		c-14.89,5.2-24.1,11.11-27.65,17.96c-5.67,15.83-8.98,26.47-10.16,32.14c-4.02,17.25-6.85,30.25-8.51,38.75
		c-3.07,13.47-6.85,26.47-11.58,37.57c-1.18,0.94-2.36,1.42-3.31,1.42c-0.94,0-1.42-0.47-1.65-1.42
		c-5.44-12.05-9.69-30.01-12.52-53.41c-3.31-25.99-6.85-44.43-10.4-55.06c-2.6-8.04-10.4-11.82-23.16-11.11
		c-3.31,0-11.11,0.94-23.16,2.36c-26.23,3.31-48.44,6.14-66.17,8.98c-18.9,3.07-28.36,11.34-28.36,24.58
		c0,3.31,0.95,7.56,2.83,12.29c2.13,5.67,3.31,9.45,3.55,11.11c0.94,7.8,0.71,13.71,0.94,16.3c0.24,21.03,0.71,34.03,0.71,38.52
		c0,11.82,0,29.3-0.24,52.46c-0.47,23.16-0.47,40.41-0.47,51.51c0,21.98,0.24,39.23,0.71,52.46c0.47,7.8,2.84,13.23,7.33,16.07
		c10.4,2.84,16.54,4.25,18.67,4.25c15.6,0,28.36-1.89,38.52-5.43c6.85-2.6,10.16-8.27,10.16-17.01c0-8.98-0.94-22.45-3.31-40.88
		c-2.13-18.2-3.31-32.14-3.31-41.59c0-0.94,0.24-2.84,0.47-6.14c0.23-3.31,0.47-5.43,0.47-6.38c0-0.95-0.47-2.84-0.94-5.67
		c-0.71-2.84-0.94-4.72-0.94-5.43c0-1.89,0.71-4.02,2.36-6.85c1.42-2.6,3.07-4.02,4.73-4.02c1.18,0,2.13,0.71,2.36,1.89
		c1.65,6.14,2.83,10.63,3.07,13.23c3.31,14.18,5.67,24.1,7.09,30.01c4.25,19.85,7.33,34.74,8.98,44.9
		c6.62,29.77,13.94,44.66,21.98,45.61c10.4,1.18,18.67,1.65,25.05,1.65c16.31,0,25.52-2.13,27.65-6.14
		c3.31-6.62,5.43-11.34,6.38-13.71c1.42-5.2,2.36-8.98,3.07-10.87c5.2-21.03,7.8-31.9,13-53.88c4.73-20.32,9.69-38.75,14.65-55.53
		c1.42-4.96,3.55-8.51,6.38-10.4c3.54,0.71,5.2,3.07,5.2,7.09c0,0,0,0.94-0.47,3.07c-1.18,13-1.89,21.98-2.13,26.94
		c-3.07,33.08-4.49,63.33-4.49,91.45c0,6.62,0.95,11.58,3.07,14.65c1.18,1.65,3.78,3.54,7.56,5.2c3.78,1.89,6.85,2.84,9.22,2.84
		c31.43-0.24,52.46-3.07,63.33-8.98c4.25-7.8,6.14-13,6.14-15.6v-27.41c-0.24-8.03-0.24-17.25-0.24-27.65c0-15.6,0-39.46,0.24-71.6
		c0.47-32.14,0.47-56.71,0.47-73.02c0-6.38,0.47-16.31,1.18-29.54c0.71-13,1.18-22.92,1.18-29.54c0-1.65-0.24-4.96-0.47-9.92
		C931.04,1573.03,930.81,1569.72,930.81,1568.54z M1142.77,1559.56c10.87,22.21,16.54,51.99,16.54,88.85
		c0,41.82-10.4,77.51-30.96,104.68c-15.36,20.56-50.1,25.76-68.29,33.79c-2.6,0.94-4.49,6.85-4.49,12.29c0,0.94,0.24,3.07,0.47,6.62
		c0.24,3.31,0.47,5.67,0.47,6.85v2.6c-0.47,0.94-0.47,1.65-0.47,2.6c0,2.13,0.47,6.62,1.65,13.94c1.18,7.09,1.89,11.82,1.89,14.18
		c0,5.2-1.18,9.69-3.07,13.47c-14.42,8.74-32.14,13-53.17,13c-15.13,0-24.81-0.94-29.54-2.36c-4.73-1.65-7.56-5.44-8.04-11.34
		c-0.71-5.91-0.94-19.38-0.94-41.12c0-17.96,0.23-40.17,0.94-66.64c0.47-26.7,0.71-40.17,1.18-67.35c0-5.91,0-11.11-0.47-16.07
		c-0.24-4.96-0.24-10.16,0-15.83c0.47-5.67,0.71-8.51,0.94-14.18c0-4.49-0.47-11.11-1.18-20.09c-0.95-8.74-1.42-15.36-1.42-19.85
		c0-3.31-1.42-8.03-3.78-13.71c-2.6-5.67-3.78-9.21-3.78-10.4c0-2.84,1.18-5.91,3.54-9.45c1.18-1.42,3.31-3.31,6.62-5.91
		c16.54-13,43.24-23.63,80.58-31.9c1.65-0.24,2.36-0.47,4.02-0.95c18.67-4.02,36.63-3.31,53.88,2.6
		C1122.92,1533.8,1135.21,1544.43,1142.77,1559.56z M1078.73,1649.35c0-19.14-5.44-27.65-16.54-25.76
		c-6.14,0.94-9.93,3.07-11.11,5.67c-0.94,1.65-1.42,5.91-1.42,13c0,2.36,0,7.8-0.47,16.54c-0.24,8.74-0.24,14.41-0.24,17.01
		c0,8.04,3.78,11.58,11.58,10.4c5.2-0.71,8.98-2.6,10.63-5.67C1076.37,1671.33,1078.73,1660.93,1078.73,1649.35z M1335.83,1715.52
		c-4.25,0.47-11.34,4.25-21.5,11.58c-10.16,7.33-17.49,11.11-22.21,11.58c-8.51,0.71-13.47-3.07-15.36-10.87
		c-0.47-2.6-0.71-13.71-0.71-33.08c0-22.45,1.42-56.24,4.25-101.14c2.6-44.66,7.33-82.23,4.02-99.96
		c-0.47-3.31-3.07-7.33-4.73-10.63c-2.84-1.42-4.02-2.13-6.85-3.78c-6.85,0-14.65,1.18-23.63,3.07
		c-25.05,5.2-46.08,14.42-63.09,26.94c-5.2,4.02-8.03,9.22-8.03,16.07c0,1.89,0.24,3.55,0.95,5.43c3.78,12.05,7.09,28.12,9.92,47.97
		c0.71,5.91,1.18,9.69,1.18,10.87c0,13.47,0,26.23-0.47,38.04c-1.18,50.33-1.89,75.38-3.07,125.95c-0.95,32.85-1.42,62.15-1.42,87.9
		c0,13.47,4.96,22.69,14.41,26.94c5.67,2.6,16.07,4.02,31.19,4.02c19.85,0,38.28-0.71,54.59-1.18c3.31,0,10.16-0.24,20.09-0.94
		c8.27-0.71,15.36-0.71,20.32-1.18c11.11-0.47,18.9-5.2,21.27-11.58c4.73-12.05,7.33-36.15,7.33-71.84c0-15.6,2.36-40.65-2.84-58.37
		C1349.3,1720.01,1341.74,1715.05,1335.83,1715.52z M1477.85,1545.85c1.42,0.24,8.04,0.24,19.61,0c7.32,0,17.01,3.31,29.06,10.63
		c11.81,7.33,20.56,10.87,25.76,10.87c14.18,0,21.27-13,21.27-39.23c0-11.11-0.47-20.8-1.65-28.59c-0.95-5.2-1.42-8.98-1.42-11.11
		c-1.18-21.98-5.67-35.68-11.58-37.1c-21.27-5.43-45.84-3.54-60.73-3.07c-1.18,0-4.73-0.24-10.4-0.47
		c-5.67-0.24-9.45-0.47-11.11-0.24c-17.49,0.71-26.47,0.94-43.48,2.13c0,0-4.26,0.47-12.52,1.65c-20.56,2.6-35.21,11.11-44.19,21.03
		c-2.6,6.62-4.02,13.23-4.02,20.32c0,7.8,1.89,17.96,5.91,30.72c4.02,13.94,6.14,24.34,6.14,31.67c-0.94,53.4-1.65,80.34-2.6,135.17
		c-1.18,59.08-1.89,104.68-1.89,135.87c0,23.63,6.38,37.57,19.38,41.83c6.38,2.36,21.27,3.31,44.66,3.31h91.21
		c8.98,0,17.02-2.13,24.58-6.62c7.8-15.12,11.58-40.88,11.58-77.03c0-3.07,0.24-9.45,0.94-19.14c0.47-9.69,0.71-16.07,0.71-18.91
		c0-4.72-0.24-9.69-1.18-15.12c-0.95-5.44-2.84-10.87-5.91-16.3c-2.83-5.44-5.67-8.04-8.51-8.04c-3.31,0-14.18,4.73-32.61,14.41
		c-18.43,9.69-32.37,14.65-41.59,14.65c-7.09,0-12.05-1.42-15.12-4.72c-4.49-4.96-6.62-14.42-6.62-27.89
		c0-21.5,2.84-32.14,8.74-32.14c5.2,3.07,11.82,7.09,19.85,12.05c12.76,7.8,23.63,11.82,32.61,11.58c4.02,0,8.03-3.54,11.58-10.63
		c3.07-6.14,4.73-11.82,5.44-17.01v-8.04c0-5.67,0.24-14.41,0.71-25.99c0.71-11.34,0.94-20.09,0.94-25.76
		c0-11.11-0.94-18.67-2.6-22.68c-3.07-6.38-8.51-9.45-16.31-9.45c-5.44,0.24-14.18,3.31-26.23,9.69
		c-12.05,6.14-20.32,9.45-24.58,9.45c-2.36,0.24-4.72-0.94-7.09-2.84c-2.13-9.45-3.07-17.25-3.07-23.63
		C1461.54,1557.67,1466.98,1549.16,1477.85,1545.85z M1801.11,1468.34c-10.87-6.62-45.37-14.42-103.27-18.43
		c-60.73-4.25-92.16,0.24-95.23,3.78c-3.54,4.25-8.51,17.49-8.51,39.7c0,0.94,0.47,3.78,0.47,7.8c0.24,4.02,0,7.8,0,11.11v35.92
		c0,3.31,0.24,6.85,0,10.63c0,3.78-0.47,6.14-0.47,6.85c0,24.57,4.49,36.86,13,37.1c5.44,0.24,12.76-4.49,21.74-13.94
		c8.98-9.45,16.54-14.18,22.21-13.94c3.31,3.07,4.73,8.03,4.49,15.12c-0.47,8.27-0.47,13.71,0.71,16.31
		c-2.83,57.42-5.43,101.61-6.62,131.62c-0.24,8.03-0.94,20.79-2.13,38.04c-0.94,13-1.42,22.21-1.42,27.65v4.49
		c0.24,2.13,0.47,3.54,0.47,4.25c0,2.13-0.24,6.62-0.47,13c-0.23,6.62-0.47,10.63-0.47,12.05c0,17.01,4.73,28.83,14.41,34.97h15.12
		c29.54,0,46.08-0.47,50.1-1.65c18.19-4.25,27.17-17.25,27.17-38.75c0-6.38-0.94-16.3-2.83-29.54c-1.89-13.47-2.84-23.39-2.84-30.25
		c0-19.61-0.24-49.15-0.47-88.14c-0.47-38.99-0.47-68.29-0.47-87.67c0-7.56,2.36-12.29,7.56-13.94c4.49,0.71,10.87,5.44,19.14,14.42
		c8.51,8.98,14.65,13.7,18.9,14.18c11.82,0.94,17.72-11.11,17.72-36.63c0-0.71,0.24-3.31,0-7.09c0-3.55-0.24-7.33-0.24-10.16v-17.25
		c0-4.49,0.24-10.87,0.71-19.38c0.71-8.27,0.94-14.65,0.94-19.14C1810.57,1483.23,1807.49,1472.12,1801.11,1468.34z
		 M2025.13,1744.82c-3.07-4.73-5.67-7.33-8.51-7.8c-3.31-0.47-14.18,2.36-32.61,8.74c-18.43,6.38-32.38,9.69-41.59,8.98
		c-7.09-0.71-12.29-2.6-15.12-5.67c-4.49-4.96-6.85-13.71-6.85-25.99c0-19.38,3.07-28.83,8.98-28.12c5.2,3.31,11.58,7.8,19.61,13.23
		c13,8.51,23.87,13.23,32.85,14.42c4.02,0.47,8.04-2.13,11.58-7.8c2.84-4.73,4.73-9.45,5.2-13.94v-7.09
		c0-4.73,0.47-12.29,0.94-22.21c0.71-9.69,0.94-17.01,0.94-21.98c0-9.92-0.94-16.54-2.6-20.32c-3.07-6.14-8.51-10.16-16.31-11.82
		c-5.44-0.95-14.18,0-26.23,3.31c-12.05,3.31-20.32,4.96-24.81,4.25c-2.36-0.47-4.73-1.89-7.09-4.02
		c-1.89-9.21-3.07-16.54-3.07-22.45c0-12.52,5.67-19.38,16.54-20.09c1.42,0.47,8.04,1.89,19.38,4.25
		c7.56,1.65,17.25,7.09,29.07,16.07c12.05,9.22,20.8,14.42,25.99,15.6c14.18,3.07,21.27-6.14,21.27-28.59
		c0-9.45-0.47-17.96-1.65-25.05c-0.95-4.73-1.42-8.03-1.42-9.92c-1.18-19.38-5.44-32.61-11.58-35.92
		c-21.74-11.82-45.84-17.49-60.73-21.5c-1.42-0.24-4.73-1.42-10.4-3.31c-5.67-1.89-9.45-3.07-11.11-3.55
		c-17.49-4.25-26.47-6.38-43.71-9.92c-0.71,0-4.96-0.47-12.29-1.42c-20.56-2.84-35.21-0.47-44.19,6.38
		c-2.6,5.43-4.02,11.82-4.02,18.9c0,7.8,1.89,18.67,5.91,32.61c4.02,14.89,6.14,25.99,6.14,32.85c-1.18,52.46-1.65,78.69-2.6,131.62
		c-1.18,57.19-1.89,100.9-1.89,130.68c0,22.45,6.38,35.92,19.14,40.17c6.62,1.89,21.5,3.07,44.9,3.07h91.22
		c8.74,0,17.01-1.89,24.57-5.44c7.56-12.29,11.58-33.32,11.58-63.09c0-2.36,0.24-7.56,0.94-15.6c0.47-8.04,0.71-13.23,0.71-15.6
		c0-3.78-0.47-8.03-1.18-12.76C2030.09,1754.51,2028.2,1749.78,2025.13,1744.82z"/>
	<path d="M1947.4,1909.61c-11.23-11.93-27.37-15.44-45.61-15.44h-3.51c-40,0.7-95.43,17.55-156.48,39.3
		c-61.05,21.75-128.41,47.71-190.86,68.76c-62.45,21.05-119.99,35.79-158.58,35.79c-21.75,0-37.89-4.21-47.71-10.52
		c-9.82-6.32-14.03-13.33-14.74-21.05c-0.7-8.42,2.81-18.24,11.93-28.77c25.26,18.95,46.31,26.66,64.55,25.96
		c20.35-0.7,35.79-13.33,40.7-28.77c4.91-15.44,0.7-33.68-13.33-44.21c-14.03-10.52-35.08-12.63-60.34-2.8
		c-15.2,6.22-27.65,13.8-38.07,22.07c-0.71,0.35-1.37,0.72-1.93,1.09c0,0-0.35,0.26-0.86,0.62c-0.5,0.26-0.97,0.52-1.23,0.78
		c-0.15,0.13-0.27,0.26-0.41,0.39c-8.63,6.09-39.51,27.18-80.99,47.32c-49.12,23.86-112.27,45.61-166.3,39.29
		c-21.76-2.8-32.98-8.42-40-15.43c-7.01-7.02-10.52-14.74-11.93-24.56c-1.41-9.82-2.1-20.35-3.51-30.17
		c-0.7-4.91-1.4-10.53-4.21-15.44c-2.81-4.91-9.82-9.82-16.14-11.22c-13.33-2.81-23.85,4.21-32.98,11.93
		c-9.12,7.72-17.54,18.24-25.96,27.37c-8.42,9.12-16.84,18.24-23.86,23.16c-7.02,4.91-11.23,6.31-14.74,5.61
		c-4.91-1.4-4.21-1.4-4.91-4.91c-0.7-3.51-0.7-9.82,0-17.54c0.7-7.72,2.11-16.14,0-25.26c-2.1-9.12-10.52-19.64-21.75-22.45
		c-2.1-0.7-4.21-1.4-6.31-1.4h-2.81c-13.33,0-25.96,7.72-33.68,16.84c-9.82,11.22-16.14,26.66-22.45,40.7
		c-6.32,14.03-11.23,27.37-16.14,35.79c-2.1,3.51-4.21,6.31-4.91,7.01c-2.1-1.4-4.21-4.21-5.61-9.82
		c-2.11-7.01-2.11-16.84-1.4-26.66c0.7-19.64,4.91-39.29,4.91-39.29c0-0.7,0.7-2.1,0.7-2.8c0-7.02-5.61-12.63-12.63-12.63h-1.4h-0.7
		h-0.7c-2.1,0-5.61,0.7-7.01,2.11c-22.45,14.74-72.98,37.19-134.73,57.54c-61.75,20.35-134.03,39.29-199.28,50.52
		c-65.26,11.22-124.2,15.43-157.88,7.01c-16.84-4.21-25.96-11.22-28.77-18.24c-2.81-7.01-2.11-18.94,9.12-38.59
		c0.7-1.4,1.4-4.21,1.4-6.32c0-7.01-5.61-12.63-12.63-12.63c-4.21,0-8.42,3.51-10.53,7.02c-13.33,23.16-18.24,42.8-10.52,60.34
		c7.72,17.54,25.26,27.37,45.61,32.28c41.4,10.53,101.74,5.61,168.4-6.32c66.66-11.93,140.34-30.87,202.79-51.22
		c49.12-16.14,91.22-32.98,120.69-48.42c-0.7,5.61-2.11,11.93-2.11,18.24c-0.7,11.22,0,23.15,2.81,34.38
		c2.8,11.22,9.12,23.16,21.75,27.37c7.72,2.8,16.14,0.7,21.75-3.51c5.61-4.21,9.12-9.12,12.63-14.74
		c6.32-11.23,11.93-25.26,17.54-38.59c5.61-13.34,12.63-26.67,18.95-34.39c6.32-7.72,9.82-9.82,16.84-7.72
		c4.21,1.4,2.8,0.7,3.51,4.21c0.7,3.51,0,9.82-0.7,17.54c-0.7,7.72-2.11,16.14,0.7,25.96c2.8,9.82,11.22,18.95,23.16,22.45
		c13.33,3.51,26.66-1.4,36.48-9.12c9.82-7.72,18.95-16.84,27.37-26.66c8.42-9.82,16.14-19.64,23.16-25.26
		c6.32-5.61,9.82-6.32,11.23-6.32c0,0.7,0.7,2.81,1.4,5.61c0.7,7.01,1.4,18.24,3.51,30.87c2.1,12.63,7.01,26.66,18.94,37.89
		c11.93,11.22,29.47,19.64,54.73,22.45c62.45,7.01,129.11-16.84,180.34-41.4c16.59-7.96,31.53-16.19,44.19-23.71
		c-0.25,3.23-0.32,6.46,0.03,9.68c1.4,15.44,11.22,30.87,25.96,40c14.74,9.12,35.79,14.74,61.05,14.74
		c44.91,0,103.15-16.84,166.3-37.89c63.15-21.05,131.22-47.71,191.57-68.76c60.34-21.05,115.08-37.19,148.06-37.89
		c16.84-0.7,26.66,3.51,30.87,7.72c4.21,4.21,7.01,13.33,2.1,31.58c0,0.7-0.7,2.11-0.7,2.81c0,7.01,5.61,12.63,12.63,12.63
		c5.61,0,10.53-3.51,11.93-9.12C1960.73,1941.89,1959.33,1922.24,1947.4,1909.61z M1382.54,1951.01c8.42-3.51,15.43-4.91,21.05-4.91
		h2.11c5.61,0,9.82,2.1,12.63,4.21c4.91,4.21,7.01,11.23,4.91,16.84c-2.11,5.61-6.32,10.53-17.54,11.23
		c-9.12,0-23.86-4.21-43.51-17.54C1367.8,1957.32,1374.81,1953.82,1382.54,1951.01z"/>
</g>
</svg>
