<?xml version="1.0" standalone="no"?>
<!DOCTYPE svg PUBLIC "-//W3C//DTD SVG 20010904//EN"
 "http://www.w3.org/TR/2001/REC-SVG-20010904/DTD/svg10.dtd">
<svg version="1.0" xmlns="http://www.w3.org/2000/svg"
 width="2500.000000pt" height="2500.000000pt" viewBox="0 0 2500.000000 2500.000000"
 preserveAspectRatio="xMidYMid meet">

<g transform="translate(0.000000,2500.000000) scale(0.100000,-0.100000)"
fill="#000000" stroke="none">
<path d="M12140 23129 c-35 -14 -69 -48 -91 -91 -79 -154 32 -316 202 -294
l46 6 59 -87 c85 -126 163 -230 222 -294 l52 -56 -398 -6 c-423 -6 -555 -13
-912 -53 -477 -52 -1060 -166 -1494 -291 l-88 -25 -77 81 c-139 146 -324 294
-531 423 -338 211 -742 354 -1195 424 -311 47 -353 45 -375 -22 -9 -27 -8 -40
3 -63 8 -16 104 -139 212 -273 381 -467 602 -651 905 -752 95 -31 142 -42 264
-61 36 -6 24 -12 -205 -104 -466 -188 -878 -393 -1273 -633 -71 -43 -132 -78
-135 -78 -3 0 -13 13 -23 29 -27 49 -185 166 -308 230 -339 175 -695 241
-1059 196 -139 -17 -178 -31 -209 -70 -31 -39 -28 -78 9 -119 33 -38 323 -237
483 -330 235 -139 488 -211 671 -191 40 5 57 4 50 -3 -5 -5 -103 -79 -216
-164 -271 -203 -530 -414 -874 -713 -51 -44 -202 -122 -325 -168 -301 -112
-600 -174 -1028 -213 l-183 -17 -36 42 c-48 57 -99 81 -170 81 -99 -1 -187
-56 -232 -145 -35 -70 -38 -115 -11 -171 31 -64 103 -99 205 -99 114 1 185 37
225 115 l19 37 88 7 c320 25 594 65 792 116 138 35 140 38 -87 -125 -288 -206
-444 -301 -741 -449 l-93 -47 -39 15 c-78 32 -182 13 -231 -41 -28 -30 -58
-105 -58 -144 0 -59 47 -138 99 -166 100 -53 244 -17 303 76 24 38 29 55 27
99 l-3 54 165 84 c217 113 329 181 534 323 94 65 171 117 173 116 2 -2 -54
-72 -125 -157 -443 -528 -875 -1179 -1203 -1813 -45 -88 -116 -224 -157 -303
l-74 -142 -29 20 c-16 11 -59 35 -97 53 -67 31 -71 32 -208 32 -268 -1 -405
-54 -795 -309 -152 -99 -274 -166 -397 -219 -34 -14 -71 -35 -82 -46 -27 -27
-28 -82 -2 -105 11 -10 91 -42 178 -71 87 -29 202 -69 256 -89 215 -79 532
-96 753 -40 36 9 68 14 71 11 3 -3 -19 -66 -48 -139 -29 -73 -87 -234 -130
-358 l-77 -225 -188 -7 c-104 -4 -462 -11 -795 -17 -510 -8 -612 -12 -643 -25
-50 -21 -48 -56 5 -73 74 -24 2091 -70 4064 -93 2196 -25 4051 -35 9770 -50
1914 -5 4632 -15 6040 -21 2368 -11 2564 -11 2616 4 31 9 68 26 83 38 55 44
17 108 -83 141 -26 8 -334 13 -1111 18 -591 4 -1112 8 -1157 9 l-82 1 -16 56
c-9 32 -14 68 -10 83 9 36 196 218 281 274 40 26 123 74 185 108 88 47 117 58
129 49 104 -75 277 -39 338 69 25 44 29 126 10 182 -45 134 -189 203 -291 140
-77 -47 -136 -142 -137 -217 0 -37 -3 -42 -37 -58 -87 -41 -256 -142 -329
-196 -43 -33 -79 -58 -81 -56 -2 1 8 41 22 87 32 105 74 271 119 468 19 83 54
222 77 310 l41 159 44 30 c61 43 88 100 89 184 0 58 -4 72 -30 110 -65 92
-174 136 -259 104 -49 -19 -108 -71 -131 -116 -24 -47 -36 -126 -25 -173 11
-52 71 -111 127 -126 l39 -11 -57 -232 c-31 -128 -76 -312 -99 -408 -23 -96
-61 -233 -84 -303 l-41 -129 -84 224 c-213 569 -530 1225 -880 1822 -44 76
-81 141 -81 143 0 3 40 48 88 101 222 245 334 400 418 577 162 344 248 829
215 1213 -21 244 -65 439 -211 952 -45 157 -95 346 -112 420 -32 146 -50 180
-98 180 -14 0 -34 -6 -43 -12 -9 -7 -69 -110 -133 -228 -77 -144 -187 -323
-334 -545 -321 -485 -434 -691 -523 -952 -53 -152 -85 -294 -94 -405 -3 -43
-9 -78 -12 -77 -3 0 -41 42 -84 94 -43 51 -131 151 -195 222 -110 119 -119
133 -145 208 -56 166 -94 495 -83 740 12 309 62 527 242 1065 l85 255 51 25
c178 87 97 380 -104 380 -83 0 -163 -61 -194 -149 -17 -48 -17 -134 0 -174 12
-30 60 -80 85 -89 5 -1 -23 -100 -63 -218 -125 -372 -192 -631 -228 -885 -14
-99 -18 -483 -5 -555 12 -65 -4 -43 -57 83 -103 243 -146 392 -212 735 l-46
243 29 41 c23 35 28 51 28 103 0 102 -58 166 -155 173 -45 3 -61 0 -90 -20
-83 -57 -111 -190 -55 -263 15 -21 46 -45 68 -55 l41 -18 47 -244 c77 -400
119 -540 253 -841 l27 -59 -113 99 c-254 221 -545 444 -823 628 -171 113 -452
285 -467 285 -14 0 -9 30 31 165 57 194 75 316 74 530 0 368 -63 659 -227
1054 -62 150 -76 174 -111 197 -20 13 -30 14 -59 4 -38 -12 -43 -20 -114 -190
-23 -52 -62 -140 -87 -195 -137 -292 -206 -472 -235 -617 -37 -181 -25 -399
31 -539 10 -27 14 -49 9 -49 -5 0 -70 30 -144 66 -122 59 -142 72 -200 135
-144 156 -309 451 -391 700 l-49 147 26 30 c52 63 45 165 -17 227 -83 82 -223
68 -280 -29 -29 -49 -34 -126 -11 -179 17 -41 79 -96 117 -104 16 -3 32 -10
37 -17 5 -6 28 -72 52 -146 48 -148 142 -345 232 -482 32 -49 52 -88 45 -88
-7 0 -82 34 -167 76 -566 278 -993 436 -1595 589 -486 124 -928 201 -1361 239
-106 9 -172 20 -193 30 -76 40 -213 200 -373 436 -83 123 -84 126 -75 165 17
77 -25 170 -92 205 -43 22 -118 26 -161 9z m685 -969 c315 -20 626 -58 910
-111 152 -28 486 -101 482 -105 -2 -2 -109 14 -238 36 -619 105 -1049 143
-1644 143 -526 0 -957 -33 -1460 -112 -66 -10 -121 -18 -123 -16 -11 10 281
84 377 96 243 30 426 49 576 58 94 7 190 13 215 15 119 7 764 5 905 -4z m430
-264 c290 -22 629 -54 760 -72 548 -76 1435 -352 2080 -647 463 -212 569 -273
885 -508 835 -620 1495 -1307 2162 -2249 548 -775 1156 -1903 1505 -2795 50
-126 173 -463 173 -471 0 -2 -60 -4 -134 -4 l-135 0 -26 88 c-187 621 -427
1226 -706 1784 -51 102 -89 190 -89 207 0 20 -9 37 -28 53 -15 12 -58 79 -96
148 -545 990 -1262 1850 -2136 2561 -814 663 -1716 1112 -2770 1380 -821 209
-1646 299 -2610 286 -671 -9 -1143 -54 -1665 -158 -1018 -202 -2013 -663
-2949 -1363 -751 -562 -1374 -1212 -1928 -2012 -408 -590 -808 -1355 -1105
-2114 -76 -195 -210 -568 -248 -692 l-26 -88 -145 0 -144 0 15 38 c8 20 35 96
61 167 330 925 835 1838 1525 2755 785 1043 1619 1824 2744 2569 559 371 1352
808 1590 876 160 46 477 124 570 139 159 27 1088 114 1445 135 231 14 1180 5
1425 -13z m-3955 -260 c0 -8 -47 -30 -122 -56 -669 -235 -1400 -597 -2015
-996 -62 -40 -113 -72 -113 -69 0 6 180 129 335 227 422 269 889 508 1375 705
173 71 516 201 533 202 4 1 7 -5 7 -13z m3675 -135 c365 -27 744 -72 1025
-122 167 -29 167 -29 43 -54 -61 -12 -140 -32 -175 -44 -69 -23 -212 -101
-290 -158 -94 -69 -264 -268 -395 -464 -70 -105 -85 -154 -60 -193 27 -41 65
-42 185 -2 173 57 264 75 497 97 268 25 389 48 520 100 192 77 325 176 410
309 46 72 85 158 85 189 0 32 15 33 92 11 632 -183 1225 -447 1777 -790 72
-45 131 -85 131 -91 0 -5 -43 -9 -98 -9 -138 0 -346 -29 -735 -104 -57 -10
-69 -10 -79 1 -22 27 -67 43 -121 43 -72 0 -135 -39 -177 -112 -25 -43 -30
-61 -27 -95 15 -146 235 -205 346 -94 20 20 42 55 50 77 l13 41 157 27 c86 14
206 35 266 47 163 30 461 37 580 14 105 -20 112 -24 310 -182 521 -414 960
-851 1371 -1365 60 -75 125 -158 144 -184 33 -46 33 -47 9 -40 -107 30 -153
38 -289 51 -85 7 -234 18 -330 24 -96 6 -219 18 -273 27 -93 16 -102 16 -152
0 -59 -18 -115 -64 -115 -93 0 -10 21 -47 46 -82 85 -117 131 -195 248 -419
202 -390 336 -569 536 -716 222 -164 593 -267 811 -226 72 14 224 73 283 111
27 16 50 28 52 26 7 -7 167 -345 236 -497 129 -288 215 -501 325 -805 60 -169
193 -578 193 -596 0 -5 -246 -6 -547 -3 -302 2 -1261 9 -2133 14 -872 6 -2368
17 -3325 25 -957 8 -2390 20 -3185 26 -795 7 -2670 12 -4167 13 -1808 1 -2723
4 -2723 11 0 6 14 39 30 73 17 35 28 68 25 72 -12 19 194 567 343 915 426 996
945 1833 1597 2573 118 134 356 385 360 380 2 -2 -14 -55 -36 -118 -52 -156
-70 -265 -76 -455 -4 -125 -2 -180 12 -250 35 -187 140 -450 189 -473 33 -16
72 -9 85 16 6 11 26 95 46 188 20 93 59 234 86 314 108 312 130 384 149 496
43 248 11 470 -85 601 -16 21 -12 24 142 153 396 332 869 658 1298 895 233
129 719 364 731 353 4 -5 -156 -227 -300 -417 -231 -305 -207 -278 -253 -283
-57 -7 -127 -51 -163 -100 -78 -107 -57 -237 45 -295 51 -29 142 -31 201 -4
110 50 167 207 113 312 l-20 41 56 71 c31 40 104 137 163 216 297 400 345 461
408 522 63 61 78 70 170 102 227 80 569 172 840 226 238 48 772 119 819 109 9
-1 -41 -29 -112 -60 -155 -70 -314 -163 -437 -257 -270 -205 -555 -596 -655
-898 -47 -142 -48 -157 -13 -193 17 -16 38 -30 47 -30 22 0 70 25 140 75 113
79 263 164 576 326 625 321 771 419 934 622 100 124 195 336 195 436 l0 24
428 -6 c235 -3 495 -10 577 -16z m-4235 -252 c-8 -5 -100 -61 -205 -125 -530
-323 -1113 -744 -1570 -1134 -477 -407 -989 -940 -1396 -1455 -809 -1022
-1386 -2036 -1769 -3115 -34 -96 -67 -181 -72 -187 -15 -19 -408 -18 -408 0 0
26 142 474 212 667 236 655 424 1046 756 1574 272 431 575 836 939 1255 163
188 686 711 874 874 653 568 1293 1001 2024 1369 310 157 703 333 615 277z
m9085 -896 c187 -124 447 -316 620 -458 356 -292 787 -727 1079 -1088 67 -83
79 -104 84 -145 l5 -47 -103 125 c-195 235 -343 395 -614 665 -409 408 -728
679 -1176 1000 -186 133 -142 111 105 -52z m278 -416 c820 -663 1566 -1524
2120 -2447 349 -583 648 -1231 866 -1875 58 -174 141 -442 141 -458 0 -4 -59
-6 -131 -5 l-131 3 -58 165 c-162 466 -327 849 -587 1370 -513 1028 -1071
1889 -1723 2659 -173 205 -311 353 -530 570 -209 208 -205 211 33 18z m2339
-2514 c274 -480 514 -964 688 -1383 102 -245 320 -846 320 -882 0 -5 -16 -8
-36 -6 l-36 3 -34 120 c-58 202 -208 639 -293 852 -190 479 -424 957 -673
1376 -32 55 -58 101 -58 103 0 23 32 -25 122 -183z"/>
<path d="M11793 18416 c-304 -70 -466 -425 -359 -789 50 -170 130 -300 284
-459 47 -48 83 -90 81 -91 -2 -2 -28 -9 -57 -15 -188 -42 -336 -200 -388 -417
-24 -101 -22 -275 5 -388 47 -196 153 -363 286 -449 95 -62 172 -81 318 -77
109 4 128 7 178 31 78 39 142 107 189 204 55 113 117 304 133 406 l12 85 120
-45 c104 -39 133 -46 215 -50 85 -4 98 -2 120 16 25 21 25 21 5 40 -11 10 -42
27 -70 37 -27 9 -117 52 -200 95 -82 43 -184 90 -225 106 -69 26 -86 28 -220
29 -136 0 -148 -2 -200 -26 -111 -52 -200 -143 -185 -189 3 -10 22 -24 42 -31
55 -18 107 -6 154 35 43 37 139 79 161 71 7 -2 32 -9 56 -15 41 -11 42 -12 42
-53 0 -117 -139 -495 -216 -586 -125 -149 -313 -8 -396 297 -28 103 -30 316
-5 412 43 162 146 312 233 338 37 11 47 10 89 -9 57 -25 157 -29 201 -8 22 11
29 21 29 44 0 25 -9 36 -52 65 -113 77 -314 339 -366 477 -68 185 -76 383 -20
543 33 96 90 189 135 221 l29 21 64 -31 c79 -39 146 -111 175 -188 11 -31 28
-103 37 -160 9 -59 23 -111 31 -119 24 -25 75 -14 91 20 23 49 27 235 6 312
-33 123 -150 241 -279 279 -73 23 -208 28 -283 11z"/>
<path d="M8517 18325 c-105 -40 -211 -173 -429 -540 -98 -166 -162 -280 -243
-437 l-75 -143 0 105 c0 184 -20 571 -35 690 -32 250 -87 324 -245 325 -98 0
-139 -20 -196 -98 -84 -113 -346 -668 -520 -1097 l-59 -145 -6 455 c-4 303
-10 467 -17 491 -14 43 -44 59 -112 59 -68 0 -99 -14 -115 -53 -25 -60 -116
-713 -172 -1237 -23 -215 -27 -300 -28 -545 0 -247 3 -300 18 -355 33 -122 77
-155 207 -155 138 0 172 28 189 160 14 99 31 404 31 546 0 128 19 210 119 509
148 441 378 955 531 1187 l51 78 -5 -225 c-6 -247 -29 -734 -47 -1015 -7 -99
-13 -261 -13 -360 -1 -152 2 -185 16 -211 36 -65 187 -93 289 -55 66 25 68 28
99 181 64 311 196 661 384 1025 128 247 301 528 381 620 l26 30 -7 -55 c-3
-30 -33 -185 -66 -345 -120 -591 -168 -939 -175 -1287 -9 -417 33 -611 155
-718 57 -50 117 -71 227 -77 335 -19 649 245 910 766 96 191 201 470 235 624
l13 58 111 -3 c110 -3 111 -3 114 -28 1 -14 -21 -90 -49 -170 -117 -332 -167
-505 -218 -752 -45 -217 -64 -378 -56 -471 17 -205 82 -276 249 -277 121 0
149 12 242 104 185 185 335 492 465 951 l40 140 -22 18 c-15 12 -39 17 -79 17
-41 0 -64 -5 -78 -17 -11 -10 -41 -76 -67 -148 -66 -182 -138 -352 -201 -476
-53 -103 -189 -319 -201 -319 -9 0 6 143 33 305 44 266 84 455 146 705 92 367
88 444 -29 501 -43 21 -66 23 -210 27 l-163 4 8 57 c13 103 7 311 -12 381 -38
145 -99 231 -188 270 -45 19 -65 22 -162 18 -100 -3 -118 -7 -178 -35 -262
-123 -317 -434 -111 -623 71 -65 170 -113 297 -143 l94 -22 -34 -114 c-145
-477 -401 -911 -654 -1106 -59 -45 -150 -95 -174 -95 -38 0 -72 117 -87 299
-23 288 28 805 167 1696 16 107 27 216 28 295 1 115 -1 129 -24 174 -35 69
-78 90 -190 93 -55 2 -98 -3 -123 -12z m1040 -542 c31 -34 65 -108 84 -183 14
-60 15 -281 1 -340 -10 -42 -26 -42 -115 -3 -110 49 -187 166 -187 285 0 50
24 124 57 171 25 36 103 97 125 97 5 0 21 -12 35 -27z"/>
<path d="M15270 18249 c-19 -6 -47 -20 -62 -30 -58 -42 -237 -342 -462 -779
l-111 -215 -7 75 c-50 499 -119 755 -226 837 -82 63 -235 67 -322 9 -137 -91
-328 -433 -465 -834 l-43 -124 -6 104 c-3 57 -8 198 -11 313 -8 268 -21 451
-36 493 -14 42 -35 52 -103 52 -80 0 -87 -13 -119 -212 -89 -552 -157 -1725
-116 -1978 20 -125 67 -170 186 -178 87 -6 149 5 180 32 27 24 27 24 35 212
34 850 232 1559 541 1942 28 34 54 62 57 62 23 0 48 -296 60 -715 14 -490 35
-642 94 -701 50 -50 151 -68 237 -43 61 19 74 41 114 198 20 79 50 187 67 240
65 205 206 529 325 746 63 115 179 295 191 295 10 0 -9 -218 -32 -370 -14 -85
-45 -266 -70 -401 -123 -670 -136 -1032 -45 -1304 38 -114 67 -162 125 -214
64 -56 130 -74 248 -69 119 5 184 34 270 121 90 89 173 221 286 452 149 304
255 581 290 763 l13 62 93 0 94 0 0 -62 c0 -34 -13 -145 -30 -247 -41 -262
-52 -375 -52 -541 0 -279 70 -459 218 -557 53 -35 63 -38 143 -41 77 -3 90 -1
121 20 25 17 40 38 52 73 9 28 62 257 117 510 56 253 111 503 124 555 l23 95
66 -95 c66 -96 166 -256 227 -363 l33 -57 -59 -68 c-185 -210 -244 -319 -259
-483 -15 -171 49 -300 181 -361 44 -20 66 -23 175 -23 121 0 128 1 192 33 79
39 178 138 224 227 84 159 67 321 -64 599 l-56 119 51 47 c63 58 218 174 293
220 30 18 100 52 155 75 79 32 101 45 103 62 11 75 -210 52 -393 -39 -66 -34
-209 -124 -267 -170 l-37 -29 -24 38 c-138 217 -200 313 -253 397 -104 164
-126 272 -68 326 24 24 25 24 57 7 84 -46 224 -203 269 -304 20 -46 43 -58 93
-49 53 10 78 50 71 110 -14 126 -154 310 -281 372 -58 28 -66 29 -200 29 -156
0 -207 -14 -302 -79 -89 -62 -117 -171 -73 -288 l19 -51 -40 -131 c-44 -142
-153 -577 -215 -853 -21 -95 -40 -170 -43 -167 -4 3 -6 243 -6 532 0 395 -3
536 -13 563 -20 60 -54 102 -105 127 -42 22 -64 25 -191 30 l-144 5 -5 131
c-5 159 -23 221 -78 281 -53 57 -112 80 -209 80 -98 0 -156 -23 -210 -81 -77
-84 -109 -192 -79 -271 32 -87 128 -165 250 -205 38 -12 69 -27 69 -32 0 -27
-52 -219 -80 -300 -114 -322 -350 -766 -468 -880 l-41 -39 -10 39 c-41 152
-41 451 -1 794 6 47 31 249 56 450 105 836 62 1074 -196 1086 -36 2 -81 -1
-100 -7z m834 -725 c20 -53 36 -264 20 -264 -20 0 -83 52 -104 85 -31 50 -25
133 14 193 15 24 32 42 39 39 7 -2 20 -26 31 -53z m1610 -1442 c36 -111 49
-202 37 -269 -13 -67 -61 -159 -106 -203 -33 -32 -35 -33 -59 -16 -35 22 -74
103 -82 168 -8 68 10 156 46 228 35 68 119 182 130 175 5 -3 20 -40 34 -83z"/>
<path d="M18425 15946 c-42 -19 -62 -44 -76 -98 -17 -62 -3 -93 54 -118 51
-24 92 -25 161 -5 117 34 158 131 85 201 -28 27 -37 29 -112 32 -53 1 -92 -3
-112 -12z"/>
<path d="M10865 15745 c-58 -20 -74 -45 -65 -95 14 -76 66 -105 176 -98 86 5
116 28 128 97 7 43 6 54 -8 70 -35 39 -157 52 -231 26z"/>
<path d="M6580 10104 c-2594 -14 -5035 -56 -5428 -94 -128 -12 -175 -47 -107
-78 42 -19 321 -33 1233 -58 l232 -6 -5 -37 c-13 -77 -14 -79 -49 -85 -18 -4
-52 -20 -75 -36 -87 -64 -126 -172 -97 -271 26 -90 98 -160 185 -180 77 -17
204 57 254 150 41 75 46 144 15 212 -24 53 -80 119 -100 119 -10 0 -8 22 8
104 l6 29 101 -7 c55 -3 102 -8 104 -9 2 -2 23 -83 47 -179 55 -215 111 -409
176 -612 57 -176 60 -214 35 -429 -25 -215 -83 -462 -150 -643 -55 -147 -179
-416 -194 -421 -99 -31 -185 -100 -211 -168 -38 -99 37 -263 143 -314 81 -39
203 -16 264 50 89 97 82 282 -14 373 l-30 28 80 181 c121 277 195 519 237 776
l12 74 73 -179 c40 -99 108 -258 152 -355 78 -173 79 -176 62 -200 -11 -14
-43 -138 -78 -294 -105 -472 -129 -646 -138 -980 -10 -392 30 -646 154 -985
59 -163 358 -756 470 -933 27 -42 76 -77 111 -77 36 0 80 27 97 60 17 33 226
593 281 755 45 131 90 309 104 413 12 92 15 339 4 398 -8 46 -12 51 101 -96
122 -157 258 -322 384 -464 58 -65 124 -138 145 -163 l39 -45 -6 -76 c-3 -42
-18 -147 -32 -232 -35 -214 -44 -325 -46 -535 0 -99 -4 -191 -8 -205 -5 -18
-16 -26 -44 -32 -113 -23 -191 -117 -189 -228 1 -93 36 -150 117 -193 53 -27
143 -27 205 0 95 43 180 146 180 219 0 43 -46 129 -88 164 l-36 29 3 198 c3
236 12 340 48 574 l27 176 196 -186 c172 -164 373 -346 481 -436 36 -30 36
-30 42 -130 6 -99 31 -234 82 -436 87 -348 243 -668 436 -896 199 -235 608
-504 947 -623 127 -45 176 -39 196 27 5 16 -28 130 -103 360 -139 428 -239
738 -237 740 1 1 71 -37 156 -84 686 -379 1477 -687 2246 -875 157 -39 174
-45 174 -64 0 -33 42 -81 296 -335 l235 -235 -17 -61 c-20 -74 -14 -116 26
-172 36 -50 95 -81 153 -81 89 0 194 94 217 194 26 117 -86 232 -219 224 l-59
-3 -158 156 c-88 85 -188 186 -224 223 l-65 69 35 -6 c19 -3 141 -24 270 -46
774 -131 1533 -164 2333 -100 l147 12 77 -84 c238 -262 421 -395 692 -505 209
-85 461 -124 806 -124 527 0 1180 90 1440 199 201 84 278 168 229 250 -22 37
-17 35 -189 72 -313 67 -504 127 -865 271 -274 110 -441 170 -539 194 -88 21
-97 15 137 84 415 122 840 284 1277 485 105 48 295 132 423 186 l233 98 92
-30 c51 -16 179 -64 285 -107 151 -60 191 -80 186 -92 -4 -8 -9 -40 -11 -70
-6 -73 17 -115 86 -157 99 -60 207 -51 284 24 47 45 67 91 67 155 0 150 -180
267 -314 203 -42 -20 -46 -19 -245 65 -75 31 -160 65 -190 75 l-53 17 233 118
c428 214 764 422 1129 697 58 43 111 82 117 86 8 5 31 -5 59 -23 111 -77 289
-142 449 -165 182 -26 610 -15 782 21 104 21 354 104 446 148 215 103 511 348
537 445 13 51 4 82 -32 104 -22 14 -568 83 -848 107 -210 18 -523 10 -655 -16
l-30 -6 35 37 c19 20 100 87 180 149 402 313 759 669 1117 1116 83 104 134
158 156 168 17 7 67 18 110 24 91 12 198 2 410 -38 l137 -26 0 -29 c0 -105
121 -197 244 -187 141 12 251 156 216 284 -44 157 -255 212 -385 101 l-40 -34
-110 23 c-61 13 -158 29 -217 36 -60 7 -108 15 -108 19 0 8 464 240 537 268
l52 20 43 -24 c71 -39 110 -41 173 -10 45 21 61 37 85 78 50 88 50 186 -2 260
-61 86 -214 81 -300 -10 -32 -34 -67 -108 -68 -143 0 -23 -12 -31 -107 -74
-60 -27 -186 -88 -282 -137 -96 -49 -176 -87 -178 -85 -2 2 39 68 91 148 236
360 441 759 614 1198 55 141 229 652 258 760 9 32 13 35 44 34 180 -8 483 99
710 251 114 76 267 218 363 337 l69 85 476 6 c495 6 528 8 610 51 42 22 58 55
42 86 -20 37 -111 71 -219 82 -56 6 -1289 13 -2956 18 -2871 9 -13263 19
-14245 14z m-3481 -281 c179 -695 403 -1298 711 -1914 60 -118 134 -274 165
-345 137 -308 328 -681 495 -963 33 -56 56 -100 51 -97 -15 9 -241 350 -343
516 -327 532 -591 1071 -814 1663 -36 94 -72 195 -80 222 -7 28 -34 109 -59
180 -51 144 -123 389 -184 623 l-39 152 43 0 c43 0 45 -1 54 -37z m204 -18 c7
-40 77 -394 102 -515 3 -14 -2 -7 -10 15 -20 50 -141 467 -150 518 -7 38 -7
39 21 35 26 -3 30 -8 37 -53z m537 -47 c354 -1452 1027 -2740 1923 -3682 500
-525 1120 -1000 1792 -1371 1187 -657 2741 -1137 4200 -1299 655 -73 1395 -86
1995 -36 85 7 123 6 148 -2 27 -10 38 -9 65 5 21 11 105 26 237 42 896 110
1842 369 2799 766 90 37 160 64 155 60 -24 -22 -224 -158 -336 -229 -449 -286
-1033 -566 -1480 -708 -998 -318 -1990 -493 -2967 -523 -286 -8 -475 -2 -791
29 -1006 99 -2100 391 -3019 807 -226 102 -603 292 -822 413 -809 449 -1400
887 -2018 1495 -654 644 -1208 1373 -1619 2130 -153 283 -367 898 -512 1478
-52 207 -124 541 -145 675 l-7 42 190 0 190 0 22 -92z m16811 53 c-26 -32 -28
-40 -15 -45 18 -7 19 -2 -42 -251 -231 -932 -665 -1965 -1181 -2815 -52 -85
-98 -158 -101 -162 -4 -4 -8 66 -8 155 -2 255 -33 375 -167 647 -56 113 -65
126 -95 134 -27 7 -38 5 -60 -11 -22 -17 -31 -38 -53 -139 -15 -65 -48 -177
-74 -249 -150 -417 -161 -465 -153 -648 4 -89 11 -129 35 -197 36 -105 92
-192 144 -223 l38 -23 -100 -125 c-205 -254 -425 -502 -664 -748 -123 -127
-434 -421 -445 -421 -3 0 15 84 41 188 25 103 66 283 90 401 l43 213 37 24
c68 42 114 123 125 218 25 211 -196 336 -379 215 -59 -39 -93 -91 -113 -172
-15 -58 -15 -76 -4 -125 16 -74 74 -135 144 -154 42 -11 46 -15 42 -38 -87
-426 -166 -760 -188 -787 -23 -29 -99 59 -223 261 l-76 125 16 48 c14 41 15
56 4 106 -14 70 -58 133 -104 153 -45 18 -126 18 -173 -2 -56 -23 -91 -62
-108 -121 -35 -120 49 -234 184 -250 28 -3 54 -8 59 -12 5 -3 48 -69 94 -145
58 -96 108 -164 160 -219 l76 -79 -96 -45 c-157 -73 -433 -191 -631 -268 -210
-83 -576 -215 -596 -215 -7 0 9 36 38 88 87 150 215 422 258 548 79 235 136
530 116 607 -3 14 -18 39 -32 56 -22 27 -32 31 -75 31 -45 0 -71 -12 -292
-137 -315 -178 -535 -290 -787 -403 -405 -182 -818 -401 -1004 -534 -95 -68
-266 -234 -336 -328 -90 -119 -135 -227 -155 -370 -7 -55 7 -51 -235 -69 -170
-12 -920 -25 -920 -15 0 3 24 39 53 79 30 39 70 98 90 130 123 193 269 571
322 836 19 93 10 141 -31 168 -45 29 -79 11 -198 -105 -144 -140 -255 -232
-451 -372 -267 -190 -389 -286 -464 -366 -80 -84 -160 -199 -187 -270 l-18
-46 -60 6 c-284 32 -651 89 -961 151 -289 58 -406 86 -403 96 5 13 248 167
408 259 80 46 179 104 221 130 69 44 77 47 100 34 135 -73 310 59 283 214 -10
60 -50 119 -100 148 -38 22 -54 26 -99 22 -68 -6 -138 -47 -179 -106 -25 -35
-30 -53 -31 -102 -1 -72 14 -59 -240 -205 -93 -54 -257 -154 -363 -223 -186
-120 -195 -124 -235 -119 -41 6 -522 141 -601 169 l-39 14 70 42 c187 110 376
282 511 465 174 233 329 503 373 649 18 58 19 73 9 99 -16 37 -46 59 -82 59
-15 0 -152 -31 -305 -69 -153 -38 -393 -92 -533 -121 -397 -80 -576 -129 -775
-210 -233 -95 -454 -249 -551 -385 l-22 -29 -133 63 c-839 398 -1575 917
-2178 1535 -73 76 -131 139 -129 141 2 3 36 -4 74 -16 218 -63 442 -64 709 -3
61 14 205 45 320 68 256 53 287 61 316 85 l22 18 -39 59 c-21 32 -43 64 -49
70 -16 17 -470 247 -606 307 -292 129 -522 177 -844 177 -160 0 -420 -32 -445
-55 -16 -14 -25 -3 -127 152 -106 161 -274 439 -288 476 -8 20 18 22 135 7 41
-6 159 -17 262 -25 l186 -15 34 -34 c62 -62 160 -70 245 -21 88 52 117 168 61
252 -86 131 -320 106 -371 -40 -5 -12 -14 -16 -29 -13 -13 3 -66 7 -118 11
-110 6 -393 36 -399 41 -8 7 41 55 136 134 l93 77 72 -4 c63 -3 79 -1 113 19
157 92 118 349 -54 348 -114 -1 -214 -95 -215 -203 l0 -48 -85 -68 c-47 -38
-108 -92 -136 -120 -27 -28 -53 -51 -58 -51 -11 0 -153 296 -241 502 -68 158
-227 571 -222 576 2 1 36 -13 77 -32 99 -46 207 -73 359 -92 270 -32 483 -61
695 -96 225 -36 294 -26 319 45 15 42 -9 78 -111 162 -53 44 -122 112 -154
152 -56 71 -73 96 -237 355 -100 159 -193 272 -294 359 l-70 61 1073 -9 c1352
-10 10167 -7 12224 5 847 5 1771 9 2053 10 l514 2 -31 -39z m579 16 c0 -83
-150 -566 -285 -917 -361 -940 -869 -1839 -1468 -2600 -303 -385 -680 -796
-1022 -1114 -141 -131 -134 -115 26 57 638 687 1121 1399 1531 2262 367 771
628 1517 779 2228 l22 107 209 0 208 0 0 -23z m490 3 c0 -11 -15 -57 -34 -103
-41 -97 -76 -219 -76 -261 0 -78 -54 -283 -155 -591 -300 -911 -695 -1625
-1300 -2350 -113 -135 -353 -405 -360 -405 -2 0 38 58 90 129 181 247 391 576
539 845 370 666 675 1491 871 2348 38 167 83 347 100 396 3 9 45 12 165 12
153 0 160 -1 160 -20z m-1141 -2111 c-325 -723 -782 -1423 -1325 -2029 -164
-183 -253 -264 -404 -366 -74 -50 -142 -94 -150 -99 -8 -5 66 75 165 176 673
690 1245 1471 1687 2305 39 74 73 133 75 131 2 -2 -20 -55 -48 -118z m-15609
-1585 c353 -428 814 -890 1230 -1235 568 -469 1177 -857 1955 -1245 171 -84
306 -154 302 -154 -14 0 -326 130 -517 215 -699 312 -1265 654 -1745 1055
-477 397 -982 953 -1309 1440 -87 129 -79 122 84 -76z m13270 -1373 c0 -11
-224 -180 -377 -284 -129 -89 -223 -149 -223 -144 0 3 44 37 98 77 53 41 160
124 238 186 186 149 264 197 264 165z m-9740 -1271 c8 -5 11 -10 5 -10 -5 0
-17 5 -25 10 -8 5 -10 10 -5 10 6 0 17 -5 25 -10z m-80 -130 c8 -5 11 -10 5
-10 -5 0 -17 5 -25 10 -8 5 -10 10 -5 10 6 0 17 -5 25 -10z m285 -105 c567
-205 1158 -366 1746 -474 512 -95 837 -127 1433 -141 226 -6 412 -13 415 -16
12 -13 -816 5 -999 20 -740 64 -1366 185 -2039 396 -249 78 -757 267 -810 301
-21 14 -22 14 254 -86z"/>
<path d="M11275 9310 c-404 -30 -766 -100 -819 -159 -28 -30 -17 -71 24 -92
42 -23 139 -25 178 -5 27 14 180 46 220 46 l21 0 -6 -332 c-11 -646 39 -1660
97 -1946 21 -104 36 -134 83 -162 45 -28 159 -28 205 0 31 19 32 22 27 68 -7
61 -22 495 -35 982 -20 749 -51 1144 -106 1364 -8 32 -13 60 -11 62 7 7 230
31 352 39 85 5 126 3 178 -9 118 -28 224 -14 241 31 13 33 -51 73 -156 98 -78
19 -332 27 -493 15z"/>
<path d="M8178 9240 c-124 -12 -194 -28 -266 -62 -99 -46 -139 -116 -161 -278
-42 -307 -80 -1312 -62 -1656 11 -213 40 -401 71 -451 27 -45 82 -66 181 -71
105 -5 132 2 339 96 315 142 537 213 788 250 75 12 144 27 158 37 35 23 28 55
-16 78 -31 16 -51 18 -179 12 -231 -10 -465 -57 -743 -149 -75 -25 -139 -46
-143 -46 -5 0 4 930 9 937 4 5 198 45 332 68 94 17 185 26 247 26 103 -1 162
14 173 44 10 25 -25 54 -85 72 -75 21 -356 13 -526 -16 -66 -11 -123 -21 -127
-21 -23 0 12 669 44 833 18 94 17 93 228 118 131 16 250 23 408 24 192 1 225
3 239 18 13 13 14 21 6 40 -22 47 -135 82 -318 97 -137 11 -468 11 -597 0z"/>
<path d="M9622 9179 c-24 -4 -67 -19 -95 -32 -220 -103 -269 -362 -125 -654
24 -49 85 -169 135 -268 154 -304 239 -523 310 -803 31 -124 37 -164 37 -257
1 -128 -14 -185 -47 -185 -12 0 -51 13 -85 30 -87 41 -161 118 -197 206 -39
95 -52 107 -123 112 -80 6 -122 -15 -122 -61 0 -48 24 -129 56 -187 74 -136
265 -235 477 -247 177 -10 285 41 337 159 29 66 38 214 20 326 -44 273 -189
644 -420 1072 -114 213 -143 295 -144 415 0 72 4 100 21 137 24 53 64 98 87
98 34 0 170 -105 228 -176 63 -77 93 -94 162 -94 45 0 84 16 99 41 26 42 -58
173 -162 253 -139 107 -292 146 -449 115z"/>
<path d="M13040 9168 c-160 -56 -264 -156 -299 -285 -16 -58 -2 -90 43 -98 65
-13 89 0 142 77 53 78 122 138 199 174 65 31 77 30 119 -6 67 -59 88 -168 62
-318 -31 -179 -179 -592 -388 -1081 -165 -387 -309 -754 -315 -806 -6 -47 12
-68 74 -91 62 -22 153 -16 331 20 213 44 638 122 766 141 105 15 146 34 146
65 0 27 -36 48 -104 62 -89 17 -379 -13 -723 -76 -68 -13 -123 -21 -123 -20 0
2 77 182 171 401 225 525 314 750 409 1033 90 269 104 339 98 471 -3 74 -9
106 -30 151 -34 72 -96 133 -178 172 -61 29 -73 31 -200 34 -120 2 -142 0
-200 -20z"/>
<path d="M15395 9160 c-112 -20 -227 -90 -285 -175 -69 -101 -56 -145 47 -153
57 -4 61 -3 79 24 35 52 113 123 161 148 78 39 128 49 160 32 76 -39 117 -126
117 -246 -1 -97 -12 -159 -60 -317 -43 -142 -329 -876 -494 -1268 -105 -248
-137 -347 -125 -381 14 -38 64 -70 133 -85 122 -25 191 -16 742 101 153 32
293 66 309 75 49 25 40 56 -27 93 -36 20 -176 26 -292 13 -100 -12 -380 -55
-428 -66 -22 -5 -22 -5 -6 32 125 291 341 904 434 1233 43 154 75 318 85 440
21 244 -97 429 -306 483 -74 20 -184 27 -244 17z"/>
<path d="M16610 9145 c-187 -42 -345 -191 -366 -345 -7 -53 12 -77 69 -87 65
-10 83 1 123 77 64 123 202 227 315 238 45 4 51 2 79 -28 37 -40 60 -114 60
-194 -1 -120 -33 -229 -292 -996 -131 -386 -204 -640 -242 -840 -12 -59 -11
-72 1 -90 45 -64 142 -71 427 -31 121 18 311 40 424 51 210 19 257 32 250 68
-6 29 -65 60 -131 68 -105 13 -344 6 -510 -16 -87 -11 -164 -20 -172 -20 -17
0 0 50 225 675 210 584 274 778 300 906 51 246 -4 420 -162 513 -92 54 -279
78 -398 51z"/>
<path d="M14270 9007 c-158 -36 -284 -154 -390 -366 -115 -230 -183 -585 -160
-831 13 -138 32 -204 95 -335 132 -272 311 -406 560 -422 322 -20 532 149 658
527 59 177 72 256 71 430 -1 181 -24 288 -93 435 -96 206 -192 331 -308 405
-38 24 -88 63 -113 86 -25 24 -62 50 -82 59 -52 21 -171 27 -238 12z m225
-245 c89 -68 135 -127 213 -270 163 -303 169 -598 19 -939 -69 -157 -159 -272
-247 -318 -46 -24 -71 -13 -139 61 -70 76 -149 226 -180 342 -91 334 -16 926
150 1182 l40 63 32 -30 c18 -16 68 -57 112 -91z"/>
<path d="M11707 7000 c-86 -26 -73 -94 25 -135 79 -33 209 -10 207 37 -1 39
-33 82 -70 95 -39 14 -121 15 -162 3z"/>
</g>
</svg>
