<?xml version="1.0" encoding="utf-8"?>
<!-- Generator: Adobe Illustrator 25.0.1, SVG Export Plug-In . SVG Version: 6.00 Build 0)  -->
<svg version="1.1" id="Layer_1" xmlns="http://www.w3.org/2000/svg" xmlns:xlink="http://www.w3.org/1999/xlink" x="0px" y="0px"
	 viewBox="0 0 2500 2500" style="enable-background:new 0 0 2500 2500;" xml:space="preserve">
<style type="text/css">
	.st0{fill:#231F20;}
</style>
<path transform="translate(0.000000,2500.000000) scale(0.100000,-0.100000)" class="st0" d="M12140,23129c-35-14-69-48-91-91
	c-79-154,32-316,202-294l46,6l59-87c85-126,163-230,222-294l52-56l-398-6c-423-6-555-13-912-53c-477-52-1060-166-1494-291l-88-25
	l-77,81c-139,146-324,294-531,423c-338,211-742,354-1195,424c-311,47-353,45-375-22c-9-27-8-40,3-63c8-16,104-139,212-273
	c381-467,602-651,905-752c95-31,142-42,264-61c36-6,24-12-205-104c-466-188-878-393-1273-633c-71-43-132-78-135-78s-13,13-23,29
	c-27,49-185,166-308,230c-339,175-695,241-1059,196c-139-17-178-31-209-70s-28-78,9-119c33-38,323-237,483-330
	c235-139,488-211,671-191c40,5,57,4,50-3c-5-5-103-79-216-164c-271-203-530-414-874-713c-51-44-202-122-325-168
	c-301-112-600-174-1028-213l-183-17l-36,42c-48,57-99,81-170,81c-99-1-187-56-232-145c-35-70-38-115-11-171c31-64,103-99,205-99
	c114,1,185,37,225,115l19,37l88,7c320,25,594,65,792,116c138,35,140,38-87-125c-288-206-444-301-741-449l-93-47l-39,15
	c-78,32-182,13-231-41c-28-30-58-105-58-144c0-59,47-138,99-166c100-53,244-17,303,76c24,38,29,55,27,99l-3,54l165,84
	c217,113,329,181,534,323c94,65,171,117,173,116c2-2-54-72-125-157c-443-528-875-1179-1203-1813c-45-88-116-224-157-303l-74-142
	l-29,20c-16,11-59,35-97,53c-67,31-71,32-208,32c-268-1-405-54-795-309c-152-99-274-166-397-219c-34-14-71-35-82-46
	c-27-27-28-82-2-105c11-10,91-42,178-71s202-69,256-89c215-79,532-96,753-40c36,9,68,14,71,11s-19-66-48-139s-87-234-130-358
	l-77-225l-188-7c-104-4-462-11-795-17c-510-8-612-12-643-25c-50-21-48-56,5-73c74-24,2091-70,4064-93c2196-25,4051-35,9770-50
	c1914-5,4632-15,6040-21c2368-11,2564-11,2616,4c31,9,68,26,83,38c55,44,17,108-83,141c-26,8-334,13-1111,18c-591,4-1112,8-1157,9
	l-82,1l-16,56c-9,32-14,68-10,83c9,36,196,218,281,274c40,26,123,74,185,108c88,47,117,58,129,49c104-75,277-39,338,69
	c25,44,29,126,10,182c-45,134-189,203-291,140c-77-47-136-142-137-217c0-37-3-42-37-58c-87-41-256-142-329-196c-43-33-79-58-81-56
	c-2,1,8,41,22,87c32,105,74,271,119,468c19,83,54,222,77,310l41,159l44,30c61,43,88,100,89,184c0,58-4,72-30,110
	c-65,92-174,136-259,104c-49-19-108-71-131-116c-24-47-36-126-25-173c11-52,71-111,127-126l39-11l-57-232c-31-128-76-312-99-408
	s-61-233-84-303l-41-129l-84,224c-213,569-530,1225-880,1822c-44,76-81,141-81,143c0,3,40,48,88,101c222,245,334,400,418,577
	c162,344,248,829,215,1213c-21,244-65,439-211,952c-45,157-95,346-112,420c-32,146-50,180-98,180c-14,0-34-6-43-12
	c-9-7-69-110-133-228c-77-144-187-323-334-545c-321-485-434-691-523-952c-53-152-85-294-94-405c-3-43-9-78-12-77c-3,0-41,42-84,94
	c-43,51-131,151-195,222c-110,119-119,133-145,208c-56,166-94,495-83,740c12,309,62,527,242,1065l85,255l51,25
	c178,87,97,380-104,380c-83,0-163-61-194-149c-17-48-17-134,0-174c12-30,60-80,85-89c5-1-23-100-63-218c-125-372-192-631-228-885
	c-14-99-18-483-5-555c12-65-4-43-57,83c-103,243-146,392-212,735l-46,243l29,41c23,35,28,51,28,103c0,102-58,166-155,173
	c-45,3-61,0-90-20c-83-57-111-190-55-263c15-21,46-45,68-55l41-18l47-244c77-400,119-540,253-841l27-59l-113,99
	c-254,221-545,444-823,628c-171,113-452,285-467,285c-14,0-9,30,31,165c57,194,75,316,74,530c0,368-63,659-227,1054
	c-62,150-76,174-111,197c-20,13-30,14-59,4c-38-12-43-20-114-190c-23-52-62-140-87-195c-137-292-206-472-235-617
	c-37-181-25-399,31-539c10-27,14-49,9-49s-70,30-144,66c-122,59-142,72-200,135c-144,156-309,451-391,700l-49,147l26,30
	c52,63,45,165-17,227c-83,82-223,68-280-29c-29-49-34-126-11-179c17-41,79-96,117-104c16-3,32-10,37-17c5-6,28-72,52-146
	c48-148,142-345,232-482c32-49,52-88,45-88s-82,34-167,76c-566,278-993,436-1595,589c-486,124-928,201-1361,239
	c-106,9-172,20-193,30c-76,40-213,200-373,436c-83,123-84,126-75,165c17,77-25,170-92,205C12258,23142,12183,23146,12140,23129z
	 M12825,22160c315-20,626-58,910-111c152-28,486-101,482-105c-2-2-109,14-238,36c-619,105-1049,143-1644,143c-526,0-957-33-1460-112
	c-66-10-121-18-123-16c-11,10,281,84,377,96c243,30,426,49,576,58c94,7,190,13,215,15C12039,22171,12684,22169,12825,22160z
	 M13255,21896c290-22,629-54,760-72c548-76,1435-352,2080-647c463-212,569-273,885-508c835-620,1495-1307,2162-2249
	c548-775,1156-1903,1505-2795c50-126,173-463,173-471c0-2-60-4-134-4h-135l-26,88c-187,621-427,1226-706,1784c-51,102-89,190-89,207
	c0,20-9,37-28,53c-15,12-58,79-96,148c-545,990-1262,1850-2136,2561c-814,663-1716,1112-2770,1380c-821,209-1646,299-2610,286
	c-671-9-1143-54-1665-158c-1018-202-2013-663-2949-1363c-751-562-1374-1212-1928-2012c-408-590-808-1355-1105-2114
	c-76-195-210-568-248-692l-26-88h-145h-144l15,38c8,20,35,96,61,167c330,925,835,1838,1525,2755c785,1043,1619,1824,2744,2569
	c559,371,1352,808,1590,876c160,46,477,124,570,139c159,27,1088,114,1445,135C12061,21923,13010,21914,13255,21896z M9300,21636
	c0-8-47-30-122-56c-669-235-1400-597-2015-996c-62-40-113-72-113-69c0,6,180,129,335,227c422,269,889,508,1375,705
	c173,71,516,201,533,202C9297,21650,9300,21644,9300,21636z M12975,21501c365-27,744-72,1025-122c167-29,167-29,43-54
	c-61-12-140-32-175-44c-69-23-212-101-290-158c-94-69-264-268-395-464c-70-105-85-154-60-193c27-41,65-42,185-2
	c173,57,264,75,497,97c268,25,389,48,520,100c192,77,325,176,410,309c46,72,85,158,85,189c0,32,15,33,92,11
	c632-183,1225-447,1777-790c72-45,131-85,131-91c0-5-43-9-98-9c-138,0-346-29-735-104c-57-10-69-10-79,1c-22,27-67,43-121,43
	c-72,0-135-39-177-112c-25-43-30-61-27-95c15-146,235-205,346-94c20,20,42,55,50,77l13,41l157,27c86,14,206,35,266,47
	c163,30,461,37,580,14c105-20,112-24,310-182c521-414,960-851,1371-1365c60-75,125-158,144-184c33-46,33-47,9-40
	c-107,30-153,38-289,51c-85,7-234,18-330,24s-219,18-273,27c-93,16-102,16-152,0c-59-18-115-64-115-93c0-10,21-47,46-82
	c85-117,131-195,248-419c202-390,336-569,536-716c222-164,593-267,811-226c72,14,224,73,283,111c27,16,50,28,52,26
	c7-7,167-345,236-497c129-288,215-501,325-805c60-169,193-578,193-596c0-5-246-6-547-3c-302,2-1261,9-2133,14
	c-872,6-2368,17-3325,25s-2390,20-3185,26c-795,7-2670,12-4167,13c-1808,1-2723,4-2723,11c0,6,14,39,30,73c17,35,28,68,25,72
	c-12,19,194,567,343,915c426,996,945,1833,1597,2573c118,134,356,385,360,380c2-2-14-55-36-118c-52-156-70-265-76-455
	c-4-125-2-180,12-250c35-187,140-450,189-473c33-16,72-9,85,16c6,11,26,95,46,188s59,234,86,314c108,312,130,384,149,496
	c43,248,11,470-85,601c-16,21-12,24,142,153c396,332,869,658,1298,895c233,129,719,364,731,353c4-5-156-227-300-417
	c-231-305-207-278-253-283c-57-7-127-51-163-100c-78-107-57-237,45-295c51-29,142-31,201-4c110,50,167,207,113,312l-20,41l56,71
	c31,40,104,137,163,216c297,400,345,461,408,522s78,70,170,102c227,80,569,172,840,226c238,48,772,119,819,109c9-1-41-29-112-60
	c-155-70-314-163-437-257c-270-205-555-596-655-898c-47-142-48-157-13-193c17-16,38-30,47-30c22,0,70,25,140,75
	c113,79,263,164,576,326c625,321,771,419,934,622c100,124,195,336,195,436v24l428-6C12633,21514,12893,21507,12975,21501z
	 M8740,21249c-8-5-100-61-205-125c-530-323-1113-744-1570-1134c-477-407-989-940-1396-1455c-809-1022-1386-2036-1769-3115
	c-34-96-67-181-72-187c-15-19-408-18-408,0c0,26,142,474,212,667c236,655,424,1046,756,1574c272,431,575,836,939,1255
	c163,188,686,711,874,874c653,568,1293,1001,2024,1369C8435,21129,8828,21305,8740,21249z M17825,20353c187-124,447-316,620-458
	c356-292,787-727,1079-1088c67-83,79-104,84-145l5-47l-103,125c-195,235-343,395-614,665c-409,408-728,679-1176,1000
	C17534,20538,17578,20516,17825,20353z M18103,19937c820-663,1566-1524,2120-2447c349-583,648-1231,866-1875c58-174,141-442,141-458
	c0-4-59-6-131-5l-131,3l-58,165c-162,466-327,849-587,1370c-513,1028-1071,1889-1723,2659c-173,205-311,353-530,570
	C17861,20127,17865,20130,18103,19937z M20442,17423c274-480,514-964,688-1383c102-245,320-846,320-882c0-5-16-8-36-6l-36,3l-34,120
	c-58,202-208,639-293,852c-190,479-424,957-673,1376c-32,55-58,101-58,103C20320,17629,20352,17581,20442,17423z M11793,18416
	c-304-70-466-425-359-789c50-170,130-300,284-459c47-48,83-90,81-91c-2-2-28-9-57-15c-188-42-336-200-388-417c-24-101-22-275,5-388
	c47-196,153-363,286-449c95-62,172-81,318-77c109,4,128,7,178,31c78,39,142,107,189,204c55,113,117,304,133,406l12,85l120-45
	c104-39,133-46,215-50c85-4,98-2,120,16c25,21,25,21,5,40c-11,10-42,27-70,37c-27,9-117,52-200,95c-82,43-184,90-225,106
	c-69,26-86,28-220,29c-136,0-148-2-200-26c-111-52-200-143-185-189c3-10,22-24,42-31c55-18,107-6,154,35c43,37,139,79,161,71
	c7-2,32-9,56-15c41-11,42-12,42-53c0-117-139-495-216-586c-125-149-313-8-396,297c-28,103-30,316-5,412c43,162,146,312,233,338
	c37,11,47,10,89-9c57-25,157-29,201-8c22,11,29,21,29,44c0,25-9,36-52,65c-113,77-314,339-366,477c-68,185-76,383-20,543
	c33,96,90,189,135,221l29,21l64-31c79-39,146-111,175-188c11-31,28-103,37-160c9-59,23-111,31-119c24-25,75-14,91,20
	c23,49,27,235,6,312c-33,123-150,241-279,279C12003,18428,11868,18433,11793,18416z M8517,18325c-105-40-211-173-429-540
	c-98-166-162-280-243-437l-75-143v105c0,184-20,571-35,690c-32,250-87,324-245,325c-98,0-139-20-196-98c-84-113-346-668-520-1097
	l-59-145l-6,455c-4,303-10,467-17,491c-14,43-44,59-112,59s-99-14-115-53c-25-60-116-713-172-1237c-23-215-27-300-28-545
	c0-247,3-300,18-355c33-122,77-155,207-155c138,0,172,28,189,160c14,99,31,404,31,546c0,128,19,210,119,509
	c148,441,378,955,531,1187l51,78l-5-225c-6-247-29-734-47-1015c-7-99-13-261-13-360c-1-152,2-185,16-211c36-65,187-93,289-55
	c66,25,68,28,99,181c64,311,196,661,384,1025c128,247,301,528,381,620l26,30l-7-55c-3-30-33-185-66-345c-120-591-168-939-175-1287
	c-9-417,33-611,155-718c57-50,117-71,227-77c335-19,649,245,910,766c96,191,201,470,235,624l13,58l111-3c110-3,111-3,114-28
	c1-14-21-90-49-170c-117-332-167-505-218-752c-45-217-64-378-56-471c17-205,82-276,249-277c121,0,149,12,242,104
	c185,185,335,492,465,951l40,140l-22,18c-15,12-39,17-79,17c-41,0-64-5-78-17c-11-10-41-76-67-148c-66-182-138-352-201-476
	c-53-103-189-319-201-319c-9,0,6,143,33,305c44,266,84,455,146,705c92,367,88,444-29,501c-43,21-66,23-210,27l-163,4l8,57
	c13,103,7,311-12,381c-38,145-99,231-188,270c-45,19-65,22-162,18c-100-3-118-7-178-35c-262-123-317-434-111-623
	c71-65,170-113,297-143l94-22l-34-114c-145-477-401-911-654-1106c-59-45-150-95-174-95c-38,0-72,117-87,299c-23,288,28,805,167,1696
	c16,107,27,216,28,295c1,115-1,129-24,174c-35,69-78,90-190,93C8585,18339,8542,18334,8517,18325z M9557,17783c31-34,65-108,84-183
	c14-60,15-281,1-340c-10-42-26-42-115-3c-110,49-187,166-187,285c0,50,24,124,57,171c25,36,103,97,125,97
	C9527,17810,9543,17798,9557,17783z M15270,18249c-19-6-47-20-62-30c-58-42-237-342-462-779l-111-215l-7,75c-50,499-119,755-226,837
	c-82,63-235,67-322,9c-137-91-328-433-465-834l-43-124l-6,104c-3,57-8,198-11,313c-8,268-21,451-36,493c-14,42-35,52-103,52
	c-80,0-87-13-119-212c-89-552-157-1725-116-1978c20-125,67-170,186-178c87-6,149,5,180,32c27,24,27,24,35,212
	c34,850,232,1559,541,1942c28,34,54,62,57,62c23,0,48-296,60-715c14-490,35-642,94-701c50-50,151-68,237-43c61,19,74,41,114,198
	c20,79,50,187,67,240c65,205,206,529,325,746c63,115,179,295,191,295c10,0-9-218-32-370c-14-85-45-266-70-401
	c-123-670-136-1032-45-1304c38-114,67-162,125-214c64-56,130-74,248-69c119,5,184,34,270,121c90,89,173,221,286,452
	c149,304,255,581,290,763l13,62h93h94v-62c0-34-13-145-30-247c-41-262-52-375-52-541c0-279,70-459,218-557c53-35,63-38,143-41
	c77-3,90-1,121,20c25,17,40,38,52,73c9,28,62,257,117,510c56,253,111,503,124,555l23,95l66-95c66-96,166-256,227-363l33-57l-59-68
	c-185-210-244-319-259-483c-15-171,49-300,181-361c44-20,66-23,175-23c121,0,128,1,192,33c79,39,178,138,224,227
	c84,159,67,321-64,599l-56,119l51,47c63,58,218,174,293,220c30,18,100,52,155,75c79,32,101,45,103,62c11,75-210,52-393-39
	c-66-34-209-124-267-170l-37-29l-24,38c-138,217-200,313-253,397c-104,164-126,272-68,326c24,24,25,24,57,7c84-46,224-203,269-304
	c20-46,43-58,93-49c53,10,78,50,71,110c-14,126-154,310-281,372c-58,28-66,29-200,29c-156,0-207-14-302-79c-89-62-117-171-73-288
	l19-51l-40-131c-44-142-153-577-215-853c-21-95-40-170-43-167c-4,3-6,243-6,532c0,395-3,536-13,563c-20,60-54,102-105,127
	c-42,22-64,25-191,30l-144,5l-5,131c-5,159-23,221-78,281c-53,57-112,80-209,80c-98,0-156-23-210-81c-77-84-109-192-79-271
	c32-87,128-165,250-205c38-12,69-27,69-32c0-27-52-219-80-300c-114-322-350-766-468-880l-41-39l-10,39c-41,152-41,451-1,794
	c6,47,31,249,56,450c105,836,62,1074-196,1086C15334,18258,15289,18255,15270,18249z M16104,17524c20-53,36-264,20-264
	c-20,0-83,52-104,85c-31,50-25,133,14,193c15,24,32,42,39,39C16080,17575,16093,17551,16104,17524z M17714,16082
	c36-111,49-202,37-269c-13-67-61-159-106-203c-33-32-35-33-59-16c-35,22-74,103-82,168c-8,68,10,156,46,228c35,68,119,182,130,175
	C17685,16162,17700,16125,17714,16082z M18425,15946c-42-19-62-44-76-98c-17-62-3-93,54-118c51-24,92-25,161-5
	c117,34,158,131,85,201c-28,27-37,29-112,32C18484,15959,18445,15955,18425,15946z M10865,15745c-58-20-74-45-65-95
	c14-76,66-105,176-98c86,5,116,28,128,97c7,43,6,54-8,70C11061,15758,10939,15771,10865,15745z M6580,10104
	c-2594-14-5035-56-5428-94c-128-12-175-47-107-78c42-19,321-33,1233-58l232-6l-5-37c-13-77-14-79-49-85c-18-4-52-20-75-36
	c-87-64-126-172-97-271c26-90,98-160,185-180c77-17,204,57,254,150c41,75,46,144,15,212c-24,53-80,119-100,119c-10,0-8,22,8,104
	l6,29l101-7c55-3,102-8,104-9c2-2,23-83,47-179c55-215,111-409,176-612c57-176,60-214,35-429s-83-462-150-643
	c-55-147-179-416-194-421c-99-31-185-100-211-168c-38-99,37-263,143-314c81-39,203-16,264,50c89,97,82,282-14,373l-30,28l80,181
	c121,277,195,519,237,776l12,74l73-179c40-99,108-258,152-355c78-173,79-176,62-200c-11-14-43-138-78-294c-105-472-129-646-138-980
	c-10-392,30-646,154-985c59-163,358-756,470-933c27-42,76-77,111-77c36,0,80,27,97,60s226,593,281,755c45,131,90,309,104,413
	c12,92,15,339,4,398c-8,46-12,51,101-96c122-157,258-322,384-464c58-65,124-138,145-163l39-45l-6-76c-3-42-18-147-32-232
	c-35-214-44-325-46-535c0-99-4-191-8-205c-5-18-16-26-44-32c-113-23-191-117-189-228c1-93,36-150,117-193c53-27,143-27,205,0
	c95,43,180,146,180,219c0,43-46,129-88,164l-36,29l3,198c3,236,12,340,48,574l27,176l196-186c172-164,373-346,481-436
	c36-30,36-30,42-130c6-99,31-234,82-436c87-348,243-668,436-896c199-235,608-504,947-623c127-45,176-39,196,27c5,16-28,130-103,360
	c-139,428-239,738-237,740c1,1,71-37,156-84c686-379,1477-687,2246-875c157-39,174-45,174-64c0-33,42-81,296-335l235-235l-17-61
	c-20-74-14-116,26-172c36-50,95-81,153-81c89,0,194,94,217,194c26,117-86,232-219,224l-59-3l-158,156c-88,85-188,186-224,223l-65,69
	l35-6c19-3,141-24,270-46c774-131,1533-164,2333-100l147,12l77-84c238-262,421-395,692-505c209-85,461-124,806-124
	c527,0,1180,90,1440,199c201,84,278,168,229,250c-22,37-17,35-189,72c-313,67-504,127-865,271c-274,110-441,170-539,194
	c-88,21-97,15,137,84c415,122,840,284,1277,485c105,48,295,132,423,186l233,98l92-30c51-16,179-64,285-107c151-60,191-80,186-92
	c-4-8-9-40-11-70c-6-73,17-115,86-157c99-60,207-51,284,24c47,45,67,91,67,155c0,150-180,267-314,203c-42-20-46-19-245,65
	c-75,31-160,65-190,75l-53,17l233,118c428,214,764,422,1129,697c58,43,111,82,117,86c8,5,31-5,59-23c111-77,289-142,449-165
	c182-26,610-15,782,21c104,21,354,104,446,148c215,103,511,348,537,445c13,51,4,82-32,104c-22,14-568,83-848,107
	c-210,18-523,10-655-16l-30-6l35,37c19,20,100,87,180,149c402,313,759,669,1117,1116c83,104,134,158,156,168c17,7,67,18,110,24
	c91,12,198,2,410-38l137-26v-29c0-105,121-197,244-187c141,12,251,156,216,284c-44,157-255,212-385,101l-40-34l-110,23
	c-61,13-158,29-217,36c-60,7-108,15-108,19c0,8,464,240,537,268l52,20l43-24c71-39,110-41,173-10c45,21,61,37,85,78
	c50,88,50,186-2,260c-61,86-214,81-300-10c-32-34-67-108-68-143c0-23-12-31-107-74c-60-27-186-88-282-137s-176-87-178-85
	s39,68,91,148c236,360,441,759,614,1198c55,141,229,652,258,760c9,32,13,35,44,34c180-8,483,99,710,251c114,76,267,218,363,337
	l69,85l476,6c495,6,528,8,610,51c42,22,58,55,42,86c-20,37-111,71-219,82c-56,6-1289,13-2956,18C17954,10099,7562,10109,6580,10104z
	 M3099,9823c179-695,403-1298,711-1914c60-118,134-274,165-345c137-308,328-681,495-963c33-56,56-100,51-97c-15,9-241,350-343,516
	c-327,532-591,1071-814,1663c-36,94-72,195-80,222c-7,28-34,109-59,180c-51,144-123,389-184,623l-39,152h43
	C3088,9860,3090,9859,3099,9823z M3303,9805c7-40,77-394,102-515c3-14-2-7-10,15c-20,50-141,467-150,518c-7,38-7,39,21,35
	C3292,9855,3296,9850,3303,9805z M3840,9758c354-1452,1027-2740,1923-3682c500-525,1120-1000,1792-1371
	c1187-657,2741-1137,4200-1299c655-73,1395-86,1995-36c85,7,123,6,148-2c27-10,38-9,65,5c21,11,105,26,237,42
	c896,110,1842,369,2799,766c90,37,160,64,155,60c-24-22-224-158-336-229c-449-286-1033-566-1480-708c-998-318-1990-493-2967-523
	c-286-8-475-2-791,29c-1006,99-2100,391-3019,807c-226,102-603,292-822,413c-809,449-1400,887-2018,1495
	c-654,644-1208,1373-1619,2130c-153,283-367,898-512,1478c-52,207-124,541-145,675l-7,42h190h190L3840,9758z M20651,9811
	c-26-32-28-40-15-45c18-7,19-2-42-251c-231-932-665-1965-1181-2815c-52-85-98-158-101-162c-4-4-8,66-8,155c-2,255-33,375-167,647
	c-56,113-65,126-95,134c-27,7-38,5-60-11c-22-17-31-38-53-139c-15-65-48-177-74-249c-150-417-161-465-153-648c4-89,11-129,35-197
	c36-105,92-192,144-223l38-23l-100-125c-205-254-425-502-664-748c-123-127-434-421-445-421c-3,0,15,84,41,188c25,103,66,283,90,401
	l43,213l37,24c68,42,114,123,125,218c25,211-196,336-379,215c-59-39-93-91-113-172c-15-58-15-76-4-125c16-74,74-135,144-154
	c42-11,46-15,42-38c-87-426-166-760-188-787c-23-29-99,59-223,261l-76,125l16,48c14,41,15,56,4,106c-14,70-58,133-104,153
	c-45,18-126,18-173-2c-56-23-91-62-108-121c-35-120,49-234,184-250c28-3,54-8,59-12c5-3,48-69,94-145c58-96,108-164,160-219l76-79
	l-96-45c-157-73-433-191-631-268c-210-83-576-215-596-215c-7,0,9,36,38,88c87,150,215,422,258,548c79,235,136,530,116,607
	c-3,14-18,39-32,56c-22,27-32,31-75,31c-45,0-71-12-292-137c-315-178-535-290-787-403c-405-182-818-401-1004-534
	c-95-68-266-234-336-328c-90-119-135-227-155-370c-7-55,7-51-235-69c-170-12-920-25-920-15c0,3,24,39,53,79c30,39,70,98,90,130
	c123,193,269,571,322,836c19,93,10,141-31,168c-45,29-79,11-198-105c-144-140-255-232-451-372c-267-190-389-286-464-366
	c-80-84-160-199-187-270l-18-46l-60,6c-284,32-651,89-961,151c-289,58-406,86-403,96c5,13,248,167,408,259c80,46,179,104,221,130
	c69,44,77,47,100,34c135-73,310,59,283,214c-10,60-50,119-100,148c-38,22-54,26-99,22c-68-6-138-47-179-106c-25-35-30-53-31-102
	c-1-72,14-59-240-205c-93-54-257-154-363-223c-186-120-195-124-235-119c-41,6-522,141-601,169l-39,14l70,42c187,110,376,282,511,465
	c174,233,329,503,373,649c18,58,19,73,9,99c-16,37-46,59-82,59c-15,0-152-31-305-69s-393-92-533-121c-397-80-576-129-775-210
	c-233-95-454-249-551-385l-22-29l-133,63c-839,398-1575,917-2178,1535c-73,76-131,139-129,141c2,3,36-4,74-16c218-63,442-64,709-3
	c61,14,205,45,320,68c256,53,287,61,316,85l22,18l-39,59c-21,32-43,64-49,70c-16,17-470,247-606,307c-292,129-522,177-844,177
	c-160,0-420-32-445-55c-16-14-25-3-127,152c-106,161-274,439-288,476c-8,20,18,22,135,7c41-6,159-17,262-25l186-15l34-34
	c62-62,160-70,245-21c88,52,117,168,61,252c-86,131-320,106-371-40c-5-12-14-16-29-13c-13,3-66,7-118,11c-110,6-393,36-399,41
	c-8,7,41,55,136,134l93,77l72-4c63-3,79-1,113,19c157,92,118,349-54,348c-114-1-214-95-215-203v-48l-85-68c-47-38-108-92-136-120
	c-27-28-53-51-58-51c-11,0-153,296-241,502c-68,158-227,571-222,576c2,1,36-13,77-32c99-46,207-73,359-92c270-32,483-61,695-96
	c225-36,294-26,319,45c15,42-9,78-111,162c-53,44-122,112-154,152c-56,71-73,96-237,355c-100,159-193,272-294,359l-70,61l1073-9
	c1352-10,10167-7,12224,5c847,5,1771,9,2053,10l514,2L20651,9811z M21230,9827c0-83-150-566-285-917c-361-940-869-1839-1468-2600
	c-303-385-680-796-1022-1114c-141-131-134-115,26,57c638,687,1121,1399,1531,2262c367,771,628,1517,779,2228l22,107h209h208V9827z
	 M21720,9830c0-11-15-57-34-103c-41-97-76-219-76-261c0-78-54-283-155-591c-300-911-695-1625-1300-2350c-113-135-353-405-360-405
	c-2,0,38,58,90,129c181,247,391,576,539,845c370,666,675,1491,871,2348c38,167,83,347,100,396c3,9,45,12,165,12
	C21713,9850,21720,9849,21720,9830z M20579,7719c-325-723-782-1423-1325-2029c-164-183-253-264-404-366c-74-50-142-94-150-99
	s66,75,165,176c673,690,1245,1471,1687,2305c39,74,73,133,75,131S20607,7782,20579,7719z M4970,6134c353-428,814-890,1230-1235
	c568-469,1177-857,1955-1245c171-84,306-154,302-154c-14,0-326,130-517,215c-699,312-1265,654-1745,1055c-477,397-982,953-1309,1440
	C4799,6339,4807,6332,4970,6134z M18240,4761c0-11-224-180-377-284c-129-89-223-149-223-144c0,3,44,37,98,77c53,41,160,124,238,186
	C18162,4745,18240,4793,18240,4761z M8500,3490c8-5,11-10,5-10c-5,0-17,5-25,10s-10,10-5,10C8481,3500,8492,3495,8500,3490z
	 M8420,3360c8-5,11-10,5-10c-5,0-17,5-25,10s-10,10-5,10C8401,3370,8412,3365,8420,3360z M8705,3255c567-205,1158-366,1746-474
	c512-95,837-127,1433-141c226-6,412-13,415-16c12-13-816,5-999,20c-740,64-1366,185-2039,396c-249,78-757,267-810,301
	C8430,3355,8429,3355,8705,3255z M11275,9310c-404-30-766-100-819-159c-28-30-17-71,24-92c42-23,139-25,178-5c27,14,180,46,220,46
	h21l-6-332c-11-646,39-1660,97-1946c21-104,36-134,83-162c45-28,159-28,205,0c31,19,32,22,27,68c-7,61-22,495-35,982
	c-20,749-51,1144-106,1364c-8,32-13,60-11,62c7,7,230,31,352,39c85,5,126,3,178-9c118-28,224-14,241,31c13,33-51,73-156,98
	C11690,9314,11436,9322,11275,9310z M8178,9240c-124-12-194-28-266-62c-99-46-139-116-161-278c-42-307-80-1312-62-1656
	c11-213,40-401,71-451c27-45,82-66,181-71c105-5,132,2,339,96c315,142,537,213,788,250c75,12,144,27,158,37c35,23,28,55-16,78
	c-31,16-51,18-179,12c-231-10-465-57-743-149c-75-25-139-46-143-46c-5,0,4,930,9,937c4,5,198,45,332,68c94,17,185,26,247,26
	c103-1,162,14,173,44c10,25-25,54-85,72c-75,21-356,13-526-16c-66-11-123-21-127-21c-23,0,12,669,44,833c18,94,17,93,228,118
	c131,16,250,23,408,24c192,1,225,3,239,18c13,13,14,21,6,40c-22,47-135,82-318,97C8638,9251,8307,9251,8178,9240z M9622,9179
	c-24-4-67-19-95-32c-220-103-269-362-125-654c24-49,85-169,135-268c154-304,239-523,310-803c31-124,37-164,37-257
	c1-128-14-185-47-185c-12,0-51,13-85,30c-87,41-161,118-197,206c-39,95-52,107-123,112c-80,6-122-15-122-61c0-48,24-129,56-187
	c74-136,265-235,477-247c177-10,285,41,337,159c29,66,38,214,20,326c-44,273-189,644-420,1072c-114,213-143,295-144,415
	c0,72,4,100,21,137c24,53,64,98,87,98c34,0,170-105,228-176c63-77,93-94,162-94c45,0,84,16,99,41c26,42-58,173-162,253
	C9932,9171,9779,9210,9622,9179z M13040,9168c-160-56-264-156-299-285c-16-58-2-90,43-98c65-13,89,0,142,77c53,78,122,138,199,174
	c65,31,77,30,119-6c67-59,88-168,62-318c-31-179-179-592-388-1081c-165-387-309-754-315-806c-6-47,12-68,74-91c62-22,153-16,331,20
	c213,44,638,122,766,141c105,15,146,34,146,65c0,27-36,48-104,62c-89,17-379-13-723-76c-68-13-123-21-123-20c0,2,77,182,171,401
	c225,525,314,750,409,1033c90,269,104,339,98,471c-3,74-9,106-30,151c-34,72-96,133-178,172c-61,29-73,31-200,34
	C13120,9190,13098,9188,13040,9168z M15395,9160c-112-20-227-90-285-175c-69-101-56-145,47-153c57-4,61-3,79,24
	c35,52,113,123,161,148c78,39,128,49,160,32c76-39,117-126,117-246c-1-97-12-159-60-317c-43-142-329-876-494-1268
	c-105-248-137-347-125-381c14-38,64-70,133-85c122-25,191-16,742,101c153,32,293,66,309,75c49,25,40,56-27,93c-36,20-176,26-292,13
	c-100-12-380-55-428-66c-22-5-22-5-6,32c125,291,341,904,434,1233c43,154,75,318,85,440c21,244-97,429-306,483
	C15565,9163,15455,9170,15395,9160z M16610,9145c-187-42-345-191-366-345c-7-53,12-77,69-87c65-10,83,1,123,77
	c64,123,202,227,315,238c45,4,51,2,79-28c37-40,60-114,60-194c-1-120-33-229-292-996c-131-386-204-640-242-840c-12-59-11-72,1-90
	c45-64,142-71,427-31c121,18,311,40,424,51c210,19,257,32,250,68c-6,29-65,60-131,68c-105,13-344,6-510-16c-87-11-164-20-172-20
	c-17,0,0,50,225,675c210,584,274,778,300,906c51,246-4,420-162,513C16916,9148,16729,9172,16610,9145z M14270,9007
	c-158-36-284-154-390-366c-115-230-183-585-160-831c13-138,32-204,95-335c132-272,311-406,560-422c322-20,532,149,658,527
	c59,177,72,256,71,430c-1,181-24,288-93,435c-96,206-192,331-308,405c-38,24-88,63-113,86c-25,24-62,50-82,59
	C14456,9016,14337,9022,14270,9007z M14495,8762c89-68,135-127,213-270c163-303,169-598,19-939c-69-157-159-272-247-318
	c-46-24-71-13-139,61c-70,76-149,226-180,342c-91,334-16,926,150,1182l40,63l32-30C14401,8837,14451,8796,14495,8762z M11707,7000
	c-86-26-73-94,25-135c79-33,209-10,207,37c-1,39-33,82-70,95C11830,7011,11748,7012,11707,7000z"/>
</svg>
