<?xml version="1.0" encoding="utf-8"?>
<!-- Generator: Adobe Illustrator 25.2.0, SVG Export Plug-In . SVG Version: 6.00 Build 0)  -->
<svg version="1.1" id="Layer_1" xmlns="http://www.w3.org/2000/svg" xmlns:xlink="http://www.w3.org/1999/xlink" x="0px" y="0px"
	 viewBox="0 0 2200 2200" style="enable-background:new 0 0 2200 2200;" xml:space="preserve">
<g>
	<path d="M552.43,1525.84c0,1.77-1.03,2.27-5.6,2.66c-3.32,0.29-66.61,0.99-83.63,0.4c-1.52-0.05-7-0.25-12.2-0.47
		c-5.18-0.22-11.14-0.51-13.21-0.64c-8.51-0.53-16.8-1.18-18.51-1.35c-1.66-0.17-1.8-0.17-1.6,0.16c0.11,0.21,3.3,3.8,7.08,7.95
		c19.65,21.61,36.31,39.41,36.42,39.75c0.15,0.41-0.57,0.14-1.52-0.57c-3.74-2.8-4.99-3.77-7.23-5.62
		c-1.39-1.16-10.79-8.69-20.88-16.94c-10.09-8.25-19.08-15.77-19.96-16.53c-0.88-0.73-1.63-1.32-1.67-1.28
		c-0.02,0.04-0.28,3.17-0.55,6.97c-0.57,8.17-1.29,17.28-1.45,18.08c-0.06,0.31-0.31,3.1-0.55,6.18c-0.24,3.08-0.55,6.37-0.66,7.35
		c-0.11,0.96-0.46,5.01-0.77,9.01c-0.31,3.98-0.7,8.62-0.88,10.28c-0.18,1.66-0.42,4.44-0.55,6.16c-0.13,1.72-0.43,4.98-0.66,7.23
		c-0.23,2.23-0.47,4.99-0.55,6.06c-0.08,1.07-0.32,3.9-0.55,6.25c-0.23,2.35-0.53,5.66-0.66,7.32c-0.13,1.66-0.32,3.92-0.44,4.97
		c-0.12,1.06-0.37,3.42-0.55,5.26c-0.35,3.48-0.48,4.24-1.08,6.87c-0.57,2.56-0.77,3-1.38,3.37c-0.75,0.45-2.02,0.31-2.77-0.28
		c-0.66-0.55-0.93-1.25-1.23-3.38c-0.41-2.9-0.41-3.22-0.9-14.78c-0.13-2.99-0.26-6.44-0.33-7.63c-0.07-1.21-0.2-4.64-0.33-7.64
		c-0.24-5.93-0.38-9.53-0.55-13.21c-0.06-1.31-0.21-4.9-0.33-7.95c-0.12-3.05-0.27-6.61-0.33-7.86c-0.05-1.24-0.15-3.82-0.22-5.67
		c-0.07-1.87-0.15-4.5-0.22-5.88c-0.07-1.38-0.15-4.02-0.22-5.88c-0.07-1.87-0.15-4.6-0.22-6.08c-0.07-1.48-0.15-4.53-0.22-6.78
		c-0.07-2.25-0.18-5.17-0.22-6.49c-0.04-1.32-0.16-5.68-0.24-9.68c-0.08-4-0.18-7.31-0.2-7.35c-0.04-0.04-4.86,2.78-10.7,6.23
		c-5.82,3.46-15.12,8.86-20.62,12.01c-5.49,3.15-11.14,6.38-12.53,7.22c-2.24,1.34-3.5,2.03-7.23,3.95c-2.06,1.06-2.04,0,0.02-1.8
		c2.81-2.45,6.64-5.78,7.3-6.34c1.22-1.04,5.54-4.73,6.24-5.34c0.28-0.28,2.72-2.33,3.89-3.33c0.13-0.1,1.45-1.25,2.97-2.56
		c1.52-1.28,3.34-2.86,4.07-3.47c0.73-0.61,2.51-2.14,3.96-3.4c2.51-2.16,4.11-3.57,6.13-5.29c0.5-0.43,1.74-1.51,2.77-2.4
		c1.03-0.89,2.13-1.85,2.46-2.14c0.53-0.44,0.55-0.52,0.22-0.69c-0.2-0.09-2.99-0.6-6.2-1.15c-7.45-1.25-10.12-1.74-21.65-4.11
		c-5.18-1.06-10.68-2.23-12.2-2.56c-17.03-3.64-80.31-20.91-83.63-22.1c-4.58-1.65-5.6-2.44-5.6-4.27c0-1.46,0.77-1.62,5.06-1.19
		c3.71,0.39,5.27,0.66,11.87,1.86c3.56,0.66,9.41,1.7,12.97,2.31c3.56,0.61,8.19,1.39,10.22,1.74c2.06,0.35,4.94,0.8,6.37,1.01
		c1.44,0.21,5.26,0.81,8.46,1.31c3.2,0.5,6.18,0.94,6.59,0.96c0.42,0.02,4.33,0.6,8.68,1.24c4.35,0.63,9.89,1.36,12.31,1.64
		c2.42,0.29,6.18,0.74,8.35,1.01c2.18,0.27,5.89,0.69,8.24,0.93c2.35,0.24,7.22,0.78,10.77,1.18c3.55,0.4,9.23,1.01,12.59,1.35
		c3.36,0.34,6.99,0.72,8.07,0.87c1.1,0.16,1.98,0.22,1.98,0.12c0-0.08-0.95-1.21-2.13-2.54c-11.78-13.33-30.11-35.01-35.14-41.28
		c-3.91-4.88-6.9-9.04-6.9-9.54c0-0.06,0.24-0.06,0.53,0c1.21,0.23,3.52,1.94,7.27,5.35c2.42,2.19,12.04,11.44,14.86,14.27
		c1.41,1.42,3.36,3.3,4.33,4.18c4.33,3.96,25.82,22.72,25.89,22.67c0.04-0.03,0.42-3.64,0.86-8.04c1.45-14.93,3.54-33.88,7.8-70.79
		c3.21-27.87,3.16-27.27,3.76-30.61c0.47-2.65,0.9-3.77,1.61-4.15c0.24-0.13,0.88-0.17,1.41-0.1c1.05,0.14,1.91,0.83,2.11,1.72
		c0.15,0.71,0.76,5.2,0.9,6.73c0.24,2.53,1.14,62.64,1.36,90.86c0.07,9.42,0.18,17.14,0.22,17.14c0.02,0,4.84-2.92,10.68-6.54
		c5.82-3.62,15.1-9.45,20.59-12.94c5.49-3.49,11.14-7.15,12.53-8.1c2.24-1.52,3.49-2.29,7.23-4.57c1.52-0.93,2-0.73,1.01,0.41
		c-0.31,0.36-0.51,0.78-0.44,0.97c0.07,0.16-0.31,0.76-0.86,1.33c-2.48,2.69-22.09,20.01-38.86,33.96c-4.02,3.35-5.36,4.56-5.1,4.69
		c0.2,0.08,1.63,0.3,3.19,0.46c1.54,0.17,5.56,0.73,8.92,1.22c3.36,0.5,9.05,1.3,12.59,1.79c3.55,0.49,8.42,1.16,10.77,1.52
		c2.35,0.35,6.07,0.86,8.24,1.14c2.18,0.28,5.93,0.77,8.35,1.09c2.42,0.32,7.96,1,12.31,1.48c4.35,0.47,8.26,0.9,8.68,0.98
		c0.42,0.08,3.4,0.41,6.59,0.73c3.2,0.32,7.02,0.7,8.46,0.87c1.44,0.17,4.34,0.46,6.37,0.65c2.06,0.19,6.66,0.61,10.22,0.94
		c3.56,0.32,9.41,0.83,12.97,1.12c6.59,0.55,8.15,0.71,11.87,1.31C551.67,1524.07,552.43,1524.43,552.43,1525.84z M1944.49,1379.14
		c-3.71-1.62-5.28-2.19-11.87-4.31c-3.56-1.14-9.41-2.97-12.97-4.06c-3.56-1.09-8.18-2.47-10.22-3.05
		c-2.05-0.59-4.93-1.44-6.37-1.88c-1.44-0.44-5.26-1.53-8.46-2.4c-3.19-0.87-6.18-1.68-6.59-1.84c-0.42-0.16-4.33-1.22-8.68-2.33
		c-4.35-1.11-9.89-2.54-12.31-3.17c-2.42-0.64-6.18-1.58-8.35-2.1c-2.18-0.53-5.89-1.43-8.24-2.02c-2.35-0.59-7.22-1.72-10.77-2.49
		c-3.55-0.77-9.23-1.97-12.59-2.66c-3.36-0.69-6.99-1.38-8.07-1.53c-1.1-0.16-1.98-0.35-1.98-0.47c0-0.09,0.95-1.16,2.13-2.39
		c11.78-12.31,30.11-31.34,35.14-36.77c3.91-4.22,6.9-7.89,6.9-8.49c0-0.07-0.24-0.16-0.53-0.22c-1.21-0.23-3.52,0.84-7.27,3.4
		c-2.42,1.64-12.04,8.97-14.86,11.33c-1.41,1.18-3.36,2.73-4.33,3.43c-4.33,3.21-25.82,18.88-25.89,18.8
		c-0.05-0.05-0.42-4.49-0.86-9.9c-1.45-18.34-3.54-41.72-7.8-86.75c-3.22-34-3.16-33.19-3.76-37.3c-0.47-3.26-0.9-4.71-1.6-5.35
		c-0.24-0.22-0.88-0.45-1.41-0.51c-1.05-0.13-1.91,0.45-2.11,1.44c-0.15,0.79-0.76,5.94-0.9,7.7c-0.24,2.93-1.14,74.07-1.36,107.92
		c-0.07,11.31-0.18,20.58-0.22,20.58c-0.02,0-4.84-4.77-10.68-10.51c-5.82-5.74-15.1-14.8-20.59-20.1
		c-5.49-5.3-11.14-10.73-12.53-12.12c-2.24-2.22-3.5-3.38-7.23-6.73c-1.52-1.36-2-1.2-1.01,0.33c0.31,0.48,0.51,1.02,0.44,1.23
		c-0.07,0.19,0.31,0.96,0.86,1.74c2.48,3.64,22.09,27.94,38.86,48.7c4.02,4.98,5.36,6.78,5.1,6.87c-0.2,0.05-1.63-0.03-3.19-0.2
		c-1.54-0.16-5.56-0.42-8.92-0.56c-3.36-0.14-9.05-0.35-12.59-0.46c-3.55-0.11-8.42-0.19-10.77-0.19c-2.35,0-6.07-0.02-8.24-0.03
		c-2.18-0.02-5.93-0.02-8.35,0.01c-2.42,0.03-7.96,0.06-12.31,0.07c-4.35,0.01-8.26,0.07-8.68,0.12c-0.42,0.05-3.4,0.1-6.59,0.16
		c-3.2,0.05-7.02,0.16-8.46,0.23c-1.44,0.07-4.34,0.18-6.37,0.24c-2.06,0.06-6.66,0.23-10.22,0.39c-3.56,0.16-9.41,0.45-12.97,0.64
		c-6.59,0.37-8.16,0.52-11.87,1.15c-4.28,0.73-5.06,1.17-5.06,2.88c0,2.14,1.03,2.75,5.6,3.36c3.32,0.44,66.62,6.33,83.63,8.35
		c1.52,0.18,7,0.84,12.2,1.52c5.18,0.67,11.14,1.51,13.21,1.77c8.51,1.1,16.8,2.25,18.51,2.44c1.66,0.19,1.8,0.22,1.6,0.58
		c-0.11,0.23-3.3,3.81-7.08,8.01c-19.65,21.83-36.31,41.18-36.42,41.59c-0.15,0.47,0.57,0.26,1.52-0.45
		c3.74-2.83,4.99-3.79,7.23-5.68c1.39-1.18,10.79-8.76,20.88-16.69c10.09-7.93,19.08-14.84,19.96-15.53
		c0.87-0.67,1.63-1.19,1.67-1.14c0.02,0.05,0.29,3.91,0.55,8.59c0.57,10.07,1.29,21.34,1.45,22.36c0.06,0.39,0.31,3.85,0.55,7.67
		c0.24,3.82,0.55,7.91,0.66,9.13c0.11,1.2,0.46,6.24,0.77,11.21c0.31,4.94,0.7,10.72,0.88,12.8c0.18,2.08,0.42,5.54,0.55,7.69
		c0.13,2.15,0.43,6.21,0.66,9.03c0.23,2.8,0.47,6.24,0.55,7.57c0.08,1.33,0.32,4.87,0.55,7.82c0.23,2.95,0.53,7.09,0.66,9.17
		c0.13,2.08,0.32,4.9,0.44,6.24c0.12,1.34,0.37,4.31,0.55,6.61c0.35,4.38,0.48,5.34,1.08,8.74c0.57,3.29,0.77,3.9,1.38,4.5
		c0.75,0.74,2.04,0.88,2.77,0.32c0.66-0.5,0.93-1.32,1.23-3.87c0.41-3.49,0.41-3.88,0.9-17.97c0.13-3.64,0.26-7.85,0.33-9.29
		c0.07-1.47,0.2-5.65,0.33-9.29c0.24-7.21,0.38-11.56,0.55-16.03c0.06-1.58,0.21-5.93,0.33-9.63c0.12-3.7,0.28-8,0.33-9.5
		c0.05-1.51,0.15-4.62,0.22-6.86c0.07-2.26,0.15-5.44,0.22-7.09c0.07-1.66,0.15-4.85,0.22-7.09c0.07-2.26,0.15-5.55,0.22-7.33
		c0.07-1.78,0.15-5.45,0.22-8.17c0.07-2.72,0.18-6.22,0.22-7.8c0.04-1.58,0.16-6.83,0.24-11.64c0.08-4.82,0.18-8.78,0.2-8.83
		c0.04-0.04,4.86,4.74,10.7,10.69c5.82,5.95,15.12,15.44,20.62,21.08c5.49,5.64,11.14,11.5,12.53,13c2.24,2.4,3.5,3.67,7.23,7.34
		c2.06,2.02,2.04,0.75-0.02-2.16c-2.81-3.96-6.64-9.32-7.3-10.23c-1.23-1.68-5.54-7.62-6.24-8.6c-0.28-0.43-2.72-3.74-3.89-5.33
		c-0.13-0.16-1.45-2-2.97-4.08c-1.52-2.06-3.34-4.56-4.07-5.54s-2.51-3.4-3.96-5.39c-2.51-3.42-4.11-5.62-6.13-8.33
		c-0.5-0.67-1.74-2.36-2.77-3.76c-1.03-1.39-2.13-2.89-2.46-3.35c-0.53-0.7-0.55-0.8-0.22-0.89c0.2-0.04,2.99,0.2,6.2,0.57
		c7.45,0.89,10.13,1.12,21.65,2.47c5.18,0.6,10.68,1.3,12.2,1.5c17.03,2.22,80.3,12.8,83.63,13.26c4.57,0.64,5.6,0.33,5.6-1.75
		C1949.55,1381.66,1948.78,1381.02,1944.49,1379.14z"/>
	<path d="M430.84,646.66c-14.23-23.49-23.09-47.21-23.06-62.17c0.06-33.91,34.79-40.64,54.41-10.86
		c2.49,3.78,7.69,13.93,11.53,22.22c2.74,6.13,4.11,9.19,6.85,15.31c1.54-4.11,2.31-6.17,3.84-10.29
		c5.17-13.74,11.49-25.2,18.38-33.02c6.37-7.23,11.06-10.26,18.26-11.5c10.67-1.83,21.61,2.7,27.03,11.29
		c10.71,16.98,7.02,47.36-9.25,74.86c-10.46,17.69-46.36,65.23-50.81,67.4c-3.24,1.56-8.77-1.97-18.74-12.18
		C460.66,688.9,439.26,660.56,430.84,646.66z M267.87,671.4c9.97,11.3,15.51,15.53,18.74,14.46c4.44-1.47,40.35-43.23,50.81-59.39
		c16.26-25.12,19.96-54.74,9.25-72.44c-5.42-8.95-16.36-14.41-27.03-13.68c-7.19,0.49-11.89,2.97-18.26,9.32
		c-6.88,6.86-13.21,17.26-18.38,29.96c-1.54,3.81-2.31,5.71-3.84,9.51c-2.74-6.24-4.11-9.36-6.85-15.59
		c-3.84-8.45-9.04-18.8-11.53-22.72c-19.63-30.86-54.35-28.34-54.41,3.79c-0.03,14.18,8.83,37.83,23.06,62.28
		C237.85,631.33,259.25,661.63,267.87,671.4z M588.78,827.88c-14-15.48-31.18-31.09-37.29-33.95c-0.74-0.35-2.33-0.62-4.25-0.71
		c-2.59-0.13-3.35-0.05-4.94,0.6c-6.84,2.79-8.82,12.39-3.79,18.39c1.44,1.71,4.13,3.45,5.54,3.57c0.34,0.03,0.91,0.24,1.26,0.51
		c0.77,0.5,6.47,5.53,9.36,8.17c0.78,0.72,1.17,1.08,1.96,1.79c-0.5,0.86-0.75,1.3-1.25,2.16c-2.73,4.67-7.42,12-10.78,16.83
		c-19.84,28.44-43.54,50.87-70.81,66.31c-30.6,17.31-63.34,24.35-97.54,20.23c-7.76-0.93-23.16-4.53-30.81-7.19
		c-6.74-2.34-14.33-5.53-20.26-8.45c-53.45-26.41-96.31-80.49-118.15-142.62c-2.94-8.36-3.1-8.89-2.65-9.12
		c0.58-0.27,8.77-0.91,12.41-1c3.83-0.09,5.57-0.64,7.12-2.19c4.13-4.21,2.6-12.71-3.16-17.56c-1.39-1.17-2.09-1.54-4.25-2.27
		c-2.32-0.78-3.03-0.83-6.65-0.69c-11.91,0.43-28.19,2.75-34.82,5.18c-4.94,1.82-10.72,5.7-12.48,8.45c-1.33,2.08-1.54,5.5-0.53,8.5
		c1.27,3.8,4.01,7.18,7.69,9.47c1.89,1.18,4.65,1.82,6.77,1.63c1.78-0.16,4.01-1.49,4.91-2.88c0.66-1.01,3.51-3.01,3.77-2.59
		c0.06,0.08,0.9,2.57,1.86,5.46c2.11,6.36,5.27,14.47,8.73,22.51c23.94,55.88,63.79,105.32,111.72,133.56
		c58.82,34.66,125.28,33.85,182.39-1.47c30.86-19.09,57.83-47.13,78.78-80.67c1.87-2.99,3.54-5.47,3.66-5.46
		c0.31,0.02,3.25,3.33,7.79,8.74c4.13,4.96,5.16,5.56,8.99,5.74c3.34,0.16,5.04-0.52,7.53-2.94c2.97-2.9,4.07-7.64,2.86-11.97
		C598.84,839.65,595.71,835.53,588.78,827.88z M1912.73,584.62c3.24,2.06,8.78,0.44,18.74-5.49c8.62-5.13,30.03-22.95,38.44-32.21
		c14.22-15.66,23.09-33.15,23.06-45.82c-0.06-28.76-34.83-42.95-54.41-22.85c-2.49,2.56-7.69,9.75-11.53,15.71
		c-2.74,4.43-4.11,6.65-6.85,11.07c-1.54-3.7-2.31-5.54-3.84-9.23c-5.16-12.29-11.48-22.78-18.38-30.33
		c-6.37-6.97-11.06-10.17-18.26-12.29c-10.67-3.14-21.62-1.03-27.03,5.06c-10.71,12.06-7.03,36.54,9.25,61.35
		C1872.38,535.54,1908.29,581.78,1912.73,584.62z M2036.77,707.1c-1.76-3.76-7.54-11.13-12.48-15.89
		c-6.63-6.38-22.92-18.09-34.82-24.86c-3.62-2.06-4.33-2.39-6.65-2.9c-2.17-0.47-2.86-0.51-4.25-0.17
		c-5.78,1.36-7.29,8.18-3.16,14.04c1.54,2.18,3.29,3.57,7.12,5.71c3.64,2.04,11.84,7.16,12.41,7.74c0.45,0.46,0.29,0.86-2.65,6.75
		c-21.82,43.85-64.76,66.59-118.14,68.86c-5.93,0.25-13.53,0.23-20.26-0.08c-7.65-0.34-23.05-2.09-30.81-3.5
		c-34.2-6.2-66.94-18.14-97.54-36.16c-27.27-16.07-51.01-35.88-70.81-59.86c-3.36-4.07-8.04-10.21-10.78-14.09
		c-0.5-0.72-0.75-1.08-1.25-1.8c0.78-0.58,1.17-0.87,1.95-1.44c2.89-2.11,8.59-6.09,9.36-6.48c0.35-0.21,0.92-0.36,1.26-0.38
		c1.4-0.05,4.1-1.39,5.54-2.73c5.04-4.71,3.05-12.63-3.79-15.14c-1.59-0.58-2.35-0.68-4.94-0.65c-1.92,0.02-3.51,0.2-4.25,0.47
		c-6.12,2.19-23.28,14.68-37.29,27.76c-6.92,6.47-10.06,10.02-10.71,11.95c-1.23,3.65-0.12,7.54,2.86,9.86
		c2.49,1.93,4.19,2.44,7.53,2.22c3.83-0.25,4.85-0.78,8.99-4.95c4.54-4.56,7.48-7.3,7.79-7.31c0.12-0.01,1.79,2.03,3.67,4.51
		c20.93,27.79,47.92,51.59,78.78,70.44c57.11,34.86,123.57,51.43,182.39,46.28c47.92-4.2,87.75-24.05,111.72-60.38
		c3.45-5.23,6.63-10.76,8.73-15.27c0.96-2.07,1.81-3.84,1.86-3.88c0.26-0.23,3.12,3.38,3.77,4.73c0.92,1.86,3.12,4.49,4.91,5.78
		c2.14,1.56,4.88,2.74,6.77,2.89c3.68,0.27,6.42-1.04,7.69-3.75C2038.31,713.3,2038.11,709.94,2036.77,707.1z M1711.33,560.67
		c3.23,1.56,8.77-0.75,18.74-7.77c8.62-6.07,30.03-25.85,38.44-35.68c14.23-16.61,23.09-34.05,23.06-45.94
		c-0.06-26.98-34.82-36.96-54.41-15.78c-2.49,2.7-7.69,10.1-11.53,16.22c-2.74,4.54-4.11,6.81-6.85,11.35
		c-1.54-3.38-2.31-5.07-3.84-8.44c-5.17-11.24-11.48-20.69-18.38-27.28c-6.36-6.08-11.06-8.74-18.26-10.11
		c-10.67-2.04-21.62,1.01-27.03,7.45c-10.71,12.77-7.02,36.51,9.25,58.94C1670.98,518.06,1706.89,558.52,1711.33,560.67z"/>
	<path d="M430.29,132.77c0,6.37-1.28,11.26-4.26,14.17c-5.1,5.82-7.87,10.11-21.27,15.85c-10.57,4.52-17.22,7.48-19.99,9.85
		c-2.55,2.18-5.96,6.67-10.64,13.79c-16.59,19.88-26.8,32.36-30.63,38.42c-10.21,14.43-15.31,27.44-15.31,38.82
		c0,3.23,0,4.84,0,8.07c8.51,63.06,16,100.5,22.55,110.14c6.41,9.43,17.44,20.81,17.44,30.79c0,26.16-6.04,41.3-17.87,46.34
		c-8.91,3.79-32.76,4.03-72.32-1.14c-31.91-4.17-52.76-10.77-63.39-19.23c-10.64-8.48-15.74-22.33-15.74-41.65
		c0-4.5,2.55-9.06,7.65-13.77c6.38-5.88,10.22-9.48,11.49-11.59c3.83-7.21,7.97-25.92,12.76-55.01c4.13-25.07,6.81-44.72,8.08-58.42
		c0-1.38-2.08-5.4-6.38-12.37c-5.29-8.56-9.07-17.74-12.34-25.46c-4.22-9.99-11.06-23.39-18.29-38.64
		c-2.97-4.2-6.81-8.42-12.33-12.67c-8.94-7.1-13.61-10.8-13.61-10.8c-2.56-1.43-7.05-3.7-10.64-7.02
		c-2.97-2.75-4.68-8.56-4.68-15.21c0-11.94,7.43-21.04,22.13-26.87c11.84-4.69,26.85-7.51,45.09-7.08
		c25.02,0.59,42.74,3.76,53.18,9.98c8.47,5.05,12.76,12.81,12.76,23.18c0,12.74-6.38,16.4-11.91,21.43
		c-5.53,5.04-9.34,13.35-7.66,22.74c3.43,19.23,11.06,29.43,22.55,29.89c4.26,0.17,9.36-5.26,15.74-16.41
		c1.28-5.65,3.83-12.2,7.23-19.72c2.55-5.63,3.83-9.43,3.83-11.33c0-1.91-2.58-2.37-7.24-6.79c-3.4-3.23-5.1-9.11-5.1-16.24
		c0-24.2,22.55-36.53,67.22-36.48C412.84,102.33,430.29,112.67,430.29,132.77z M672.41,182.95c19,46.22,28.5,99.09,28.5,159.11
		c0,41-13.61,75.42-40.43,102.92c-25.23,25.88-56.15,39.06-92.32,38.53c-40.4-0.59-72.92-19.74-96.99-56.99
		c-21.73-33.63-32.76-74.36-32.76-121.9c0-52.4,11.04-97.99,33.18-137.58c25.45-45.51,59.99-69.13,103.37-69.13
		C617.09,97.92,649.36,126.89,672.41,182.95z M607.73,277.99c0-21.69-4.26-45.95-12.34-72.28c-10.21-33.29-22.97-49.83-37.86-49.9
		c-8.93-0.04-15.59,7.67-20.41,22.72c-3.61,11.27-5.53,23.75-5.53,37.08c0,22.24,3.05,43.5,9.36,62.72
		c8.56,26.1,20.84,39.13,37.44,39.3C597.96,317.83,607.73,304.61,607.73,277.99z M993.66,107.84c-8.84-4.04-19.15-5.82-30.62-5.8
		c-44.67,0.09-67.23,12.47-67.23,36.53c0,8.51,3.64,14.96,10.63,19.03c8.01,4.67,12.8,15.54,14.89,31.68
		c1.73,13.37,2.55,31.42,2.55,54.97c0,45.72-11.48,62.86-52.32,66.52c-24.25,2.17-40-3.57-47.22-17.85
		c-4.69-9.68-7.24-29.66-7.67-59.11c0.17,0.38,0.26,0.56,0.43,0.94c0-30.43,2.55-51.94,7.24-65.2c1.28-3.44,5.69-8.9,11.91-15.34
		c4.67-4.84,7.24-10.79,7.24-18.05c0-22.7-23.4-33.83-69.78-33.75c-15.32,0.03-28.52,2.56-39.57,7.05
		c-16.12,6.54-24.25,17.05-24.25,31.54c0,7.51,2.55,13.04,7.22,17.46c6.32,5.98,11.06,11.43,13.2,16.9
		c4.67,11.42,6.81,28.79,6.81,52.97c0,10.86-0.66,27.35-1.71,48.75c-1.05,21.39-1.28,37.73-1.28,48.45
		c0,56.1,10.83,94.42,31.9,115.77c20.42,20.7,55.75,25.03,105.95,17.93c27.64-3.91,53.78-21.13,77.84-50.59
		c24.28-29.73,36.17-58.44,36.17-87.52c0-10.29-0.43-25-0.85-45.15c-0.43-20.15-0.43-35.45-0.43-45.78
		c0-31.94,2.55-54.65,7.65-67.86c1.28-3.18,5.26-7.8,11.49-13.79c4.67-4.48,7.22-10,7.22-16.7
		C1011.1,121.15,1005.11,113.07,993.66,107.84z M1777.48,355.85c5.1,5.1,7.65,9.04,7.65,12.39c0,2.61-2.55,4.67-7.24,6.97
		c-4.08,1.96-6.12,2.95-10.2,4.92c-5.1,0.06-13.66,0.33-25.11,1.51c-9.74,1-17.87,1.33-24.68,1.03
		c-29.35-1.3-49.77-11.76-60.83-32.15c-5.53-10-10.47-30.84-15.32-61.86c-4.07-26.03-11.48-43.13-21.7-50.75
		c-3.4-2.55-7.67-3.28-12.34-2.25c-8.03,1.76-11.48,5.66-10.2,11.77c5.95,34.18,11.64,55.34,18.29,62.32
		c6.81,7.16,17.46,15.13,17.46,22.79c0,20.08-5.98,32.14-17.46,36.77c-8.9,3.59-33.17,5.14-72.74,5.58
		c-32.33,0.36-54.25-1.57-64.67-6.57c-9.26-4.45-14.41-13.81-14.65-26.65c-2.51,12.45-14.44,20.8-35.2,28.98
		c-14.85,5.85-32.76,10.54-54.03,13.4c-21.27,2.86-36.59,3.49-45.94,1.3c-15.75-3.25-23.4-12.77-23.4-28.79
		c0-5.85,0.85-12.98,2.98-20.62c12.75-13.21,19.15-31.6,19.15-55.33c0-8.05-6.57-13.83-18.72-17.09
		c-9.29-2.49-19.58-3.31-30.64-2.34c0,0-3.83,1.12-11.91,3.02c-10.63,6.84-15.75,18.43-15.75,34.71c0,11.92,2.55,21.98,8.08,30.05
		c2.14,2.93,7.67,7.81,15.75,15.09c5.53,4.82,8.08,9.6,8.08,14.33c0,18.13-10.22,31.42-30.64,39.67
		c-9.77,4.25-28.07,8.22-54.03,12.23c-39.14,6.04-58.5-0.76-58.71-19.76c-0.19-16.97,7.41-31.99,22.56-44.3
		c17.83-14.5,33.84-43.01,47.22-84.06c11.58-35.53,17.44-65.84,17.44-91.29c0-9.95-1.71-17.81-5.53-24.47
		c-2.12-3.52-5.11-7.48-9.79-11.33c-3.79-3.11-5.53-5.5-5.53-7.09c0-8.82,15.44-16.87,45.53-23.03c25.79-5.28,44.67-7.4,56.58-6.27
		c20.01,1.88,35.31,7.06,45.96,15.77c4.67,4,11.91,13.47,21.27,28.2c2.98,4.67,6.38,14.05,10.63,28.12
		c16.59,55.57,33.19,95.73,49.79,124.01c2.12,3.99,6.43,8.53,12.75,12.58c6.17,3.94,10.22,7.49,12.34,10.02
		c2.84,4.23,4.28,9.92,4.33,16.93c0.89-3.19,3.36-6.77,7.66-10.57c6.38-5.65,9.79-9,11.06-10.86c3.83-7.03,8.86-24.82,14.46-52.99
		c5.03-25.33,10.68-50.6,11.49-71.47c0.87-22.39-4.69-38.6-11.49-43.17c-2.55-1.05-6.7-2.64-10.63-5.26
		c-3.29-2.18-5.1-6.68-5.1-11.96c0-9.48,7.39-16.76,22.13-21.38c11.85-3.72,26.8-6.28,45.08-5.58c7.15,0.28,10.72,0.42,17.87,0.71
		c25.11-1.04,41.27-1.39,47.65-1.39c23.4,0,44.27,3.9,62.12,11.66c22.06,9.6,33.17,23.18,33.17,41.4c0,22.52-14.46,40.6-43.39,53.45
		c2.98,7.57,8.94,13.04,18.3,16.81c14.03,5.65,20.84,8.35,21.27,8.36c11.49,8.57,20.38,17.33,25.95,26.45
		c4.97,8.14,9.51,19.37,12.77,32.96c4.81,20.11,11.91,37.98,21.7,52.96C1766.83,345.58,1770.73,349.11,1777.48,355.85z
		 M1313.68,206.07c0-1.91-2.53-8.65-7.67-19.79c-4.63-10.04-11.05-15.16-19.15-14.83c-4.67,0.2-9.83,5.81-15.3,17.35
		c-4.7,9.91-6.81,17.52-6.81,22.6c0,2.34,3.83,3.27,11.06,2.8c3.4-0.22,13.61-2.03,17.01-2.25c5.53-0.35,9.36-0.2,10.63,0.48
		C1310.27,211.61,1313.68,209.49,1313.68,206.07z M1623.46,163.4c0-17.36-8.08-26.18-24.68-26.22c-7.24-0.02-14.89,5.24-13.61,11.24
		c1.36,14.53,2.04,21.82,3.4,36.45c0.43,6.04,2.98,9.25,7.67,9.27c8.5,0.04,15.31-3.54,20.42-10.2
		C1621.27,177.93,1623.46,170.84,1623.46,163.4z M2036.62,316.62c-0.64-11.38-0.86-18.5-0.86-21.36c0-9.4-7.22-24.06-15.73-24.95
		c-2.98-0.31-6.81,2.53-11.49,8.47c-4.67,5.94-10.2,8.53-17.44,7.77c-1.28-0.13-2.98-0.31-5.1-0.94
		c-3.83-1.59-13.18,0.24-16.59-0.09c-41.27-4.08-61.68-21.63-61.68-53.33c0-13.37,4.67-20,13.61-19.52
		c8.08,0.44,13.97,4.1,17.86,10.68c4.01,6.77,8.51,10.25,13.2,10.58c7.22,0.5,12.45-5.06,16.16-16.52
		c2.59-8.01,3.83-17.06,3.83-26.1c0-5.9-2.12-8.74-6.38-8.94c-4.69-0.21-11.92,8.03-16.59,7.81c-11.49-0.55-21.28-3.3-29.36-8.23
		c-9.36-5.72-14.03-12.72-14.03-21.08c0-1.89,0.42-3.4,0.85-5.29c1.28-4.91,2.98-7.91,5.96-8.99c3.74,0.09,5.61,0.13,9.36,0.22
		c20.42,0.48,35.74,4.36,46.37,11.37c4.26,2.89,10.2,8.96,18.29,19.22c5.53,6.99,11.92,10.51,19.58,10.92
		c8.08,0.43,14.37-2.91,18.72-9.48c3.47-5.24,5.12-12.34,5.12-20.86c0-13.4-2.52-25.78-7.67-37.05
		c-6.65-14.57-16.16-21.81-28.5-21.82c-8.93-0.01-24.68,0.79-46.37,1.91c-21.7,1.12-37.43,1.83-47.22,1.81
		c-7.24-0.02-24.75-1.48-31.48-1.56c-17.69-0.2-32.78,1.86-45.1,5.8c-14.84,4.74-22.13,12.3-22.13,22.13
		c0,5.47,1.8,10.14,5.12,12.47c3.92,2.76,8.08,4.51,10.63,5.65c5.1,3.38,8.71,11.81,10.2,24.49c0.73,6.2,0,13.29-0.42,21.41
		c-1.36,38.11-2.05,57.23-3.41,95.61c-0.85,22.67-3.4,36.72-7.24,42.05c-3.23,4.26-4.85,6.39-8.08,10.64
		c-0.85,1.42-4.67,4.89-11.91,10.73c-4.26,3.44-6.38,7.38-6.38,12.23c0,11.92,7.22,18.76,21.7,19.94
		c31.99,2.74,47.99,4.38,79.98,8.27c11.49,1.34,23.43,3.18,35.74,4.48c14.86,1.57,26.37,3.29,34.88,4.58
		c30.64,4.64,48.51,6.34,54.04,3.68c14.03-7.24,21.27-27.67,21.27-60.83C2037.89,337.25,2037.22,327.5,2036.62,316.62z"/>
	<path d="M1156.48,838.47c0,17.04-14.41,31.49-42.71,44.98c-12.75,5.79-32.73,13.13-61.03,21.07c-27.73,7.78-47.71,11.6-60.46,12.84
		c-27.73,1.95-41.61-5.2-41.61-22.23c0-5.11,1.11-9.95,5-14.94c4.22-5.42,6.33-8.12,10.54-13.54c3.89-4.97,6.21-18.12,8.87-40.89
		c2.31-19.78,3.34-34.96,3.34-44.64c0-12.52,0-18.79,0-31.33c-1.66-12.71-7.87-18.62-16.09-16.18c-4.26,1.27-8.23,8.97-11.66,22.82
		c-5.85,23.68-9.98,36.81-10.53,39.23c-5.55,14.52-12.77,23.18-21.09,25.19c-9.43,2.28-17.19-2.19-22.73-14.18
		c-1.68-3.66-5.2-15.12-10.54-34.67c-3.41-12.5-7.77-18.07-11.66-17.23c-9.43,2.05-20,33.29-14.98,73.75
		c1.39,11.18,6.11,20.05,8.88,23.46c9.43,8.79,23.3,18.11,23.3,30.17c0,17.21-2.75,31.32-5.55,40.32
		c-3.52,11.34-14.5,23.79-33.84,32.23c-14.84,6.48-33.84,11.73-78.78,20.97c-41.6,8.56-68.78,4.85-82.65-2.65
		s-20.52-24.14-20.52-49.66c0-5.93,3.6-12.72,10.54-20.37c8.34-9.19,13.3-15.25,14.41-18.31c7.21-15.42,15.04-52.82,23.86-111.59
		C727.16,717.35,731,677,731,653.25c0-28.62-10-48.36-29.41-60c-4.43-14.02-6.66-20.79-6.66-20.79c0-17.93,10.57-31.32,31.07-40.02
		c14.37-6.1,31.62-8.97,52.14-11.82c34.95-4.86,57.72-5.84,68.23-2.7c9.38,2.8,16.09,10.73,19.41,24.55
		c7.77,29.83,13.32,47.74,16.09,54.34c4.43,12.8,8.81,26.29,13.87,38.65c7.51,18.35,14.98,26.86,22.19,25.36
		c10-2.08,17.75-20.55,21.64-55.08c3.11-26.46,4.66-39.69,7.77-66.16c5.55-20.83,17.2-35.66,34.39-44.97
		c9.98-5.17,27.87-10.38,53.25-14.87c57.46-10.17,86.55-2.33,86.55,23.56c0,6.59-5.56,16.99-16.09,30.69
		c-10.54,13.7-15.54,27.55-15.54,41.46c0,30.05,3.29,68.96,12.21,114.98c7.17,37.02,15.54,73.63,22.75,110.34
		c1.11,6.89,6.76,12.9,16.64,18.13C1151.16,824.01,1156.48,830.23,1156.48,838.47z M1463.85,413.59
		c-58.24,2.09-87.65,22.34-87.65,48.09c0,7.58,2.39,13.55,6.66,16.11c6.13,3.67,9.43,3.51,9.43,5.53c0,2.03-1.66,6.33-5,12.98
		c-4.43,8.85-7.76,16.56-9.42,22.98c-8.33,13.7-14.98,21.12-20.54,22.16c-14.96,2.79-24.91-6.23-29.39-26.5
		c-2.19-9.89,2.77-20.09,9.98-26.99c7.22-6.89,15.54-12.39,15.54-26.1c0-11.19-5.63-18.58-16.65-22.25
		c-13.66-4.54-36.67-4.36-69.33,0.38c-23.79,3.45-43.33,10-58.8,18.35c-19.17,10.35-28.84,23.32-28.84,37.88
		c0,8.09,2.41,14.81,6.1,17.18c4.64,2.98,10.54,4.42,13.87,5.38c0,0,6.11,3.13,17.75,8.85c7.22,3.38,12.2,7.18,16.09,11.2
		c9.43,15.66,18.5,29.24,23.86,39.15c4.19,7.73,9.22,17.23,16.08,25.17c5.57,6.45,8.32,10.37,8.32,11.96
		c-1.66,16.21-5.14,39.81-10.53,70.89c-6.24,35.95-11.66,60.13-16.64,70.54c-1.68,3.11-6.66,9.2-14.98,19.44
		c-6.66,8.2-10,15.05-10,20.47c0,23.32,6.66,37.32,20.52,41.79c13.87,4.47,41.05,0.95,82.66-9.17
		c51.58-12.55,82.66-21.63,94.31-29.28c15.43-10.14,23.3-27.93,23.3-56.82c0-11.04-14.49-21.42-22.75-29.55
		c-8.33-8.19-18.3-47.4-29.39-113.31c0-3.51,0-5.26,0-8.76c0-12.35,6.64-28,19.96-46.07c5-7.47,18.32-23.2,39.94-45.33
		c6.11-7.82,10.57-12.69,13.88-15.14c3.65-2.7,12.29-6.23,26.07-11.47c17.5-6.67,21.07-11.02,27.73-17.07
		c3.89-3.03,5.55-7.96,5.55-14.32C1531.53,421.93,1508.78,411.98,1463.85,413.59z"/>
	<path d="M465.88,1287.86c15.91,17,24.07,30,24.07,39.94c0,19.87-28.36,29.73-85.53,22.16c-27.08-3.58-42.99-7.07-48.58-9.3
		c-18.48-7.41-27.51-19.5-27.51-35.49c0-5.6,3.67-10.74,10.74-15.24c7.26-4.62,10.75-8.98,10.75-12.18c0-9.18-1.29-23.03-3.44-41.51
		c-2.15-18.48-3.44-31.97-3.44-42.49c0-14.65-3.01-21.14-16.77-24.4c-14.18-3.36-23.21-1.3-26.22,7.45
		c-1.72,3.63-2.58,14.53-2.58,31.5c0,24.63,0.73,39.58,2.15,44.53c1.11,3.87,5.14,10.84,12.46,19.68c6.3,7.61,9.46,13.91,9.46,18.31
		c0,19.21-5.61,31.14-16.34,35.31c-8.16,3.18-21.5,2.68-39.97-2.76c-3.44-1.01-9.05-2.66-17.2-5.66
		c-7.73-2.84-13.75-4.88-18.06-6.34c-27.08-9.22-45.56-18.5-54.59-25.6c-16.76-13.23-25.36-30.77-25.36-51.78
		c0-4.2,2.64-7.79,7.74-10.23c6.63-3.18,10.74-5.12,11.6-6.8c7.73-10.28,14.22-33.08,18.91-76.29c4.33-39.85,6.88-59.83,7.74-59.47
		c0.17-6.72,0.26-10.08,0.43-16.8c0.43-15.45-1.72-27.49-6.45-36.1c-1.29-1.87-5.58-6.73-13.32-14.91
		c-4.72-5.12-7.3-11.56-7.3-19.53c0-12.85,8.2-18.6,24.07-18.22c11.15,0.26,24.5,2.91,40.4,8.17
		c46.86,15.49,70.49,30.75,70.49,52.34c0,6.42-3.87,12.83-11.6,18.55c-7.74,5.72-11.6,13.25-11.6,21.93
		c0,11.87,4.29,20.88,12.46,26.31c3.86,2.43,12.89,5.83,26.65,9.11c13.32,3.18,21.06,4.29,24.07,3.99
		c8.16-0.6,12.46-6.24,12.46-16.38c0-14.29-3.88-24.33-12.03-30.94c-7.63-6.19-11.6-13.95-11.6-22.69
		c0-13.37,7.85-21.49,23.64-24.41c11.48-2.12,24.93-2.14,40.4,0.01c46.86,6.52,70.49,17.99,70.49,39.79c0,4.17-2.22,9.13-6.87,14.8
		c-6.03,7.34-10.32,14.94-12.89,22.1c-4.73,12.55-6.88,28.96-6.88,49.7C440.95,1189,449.11,1236.12,465.88,1287.86z M825.72,1262.1
		c3.44,5.12,5,12.89,4.3,23.49c-1.08,16.4-13.5,30.93-36.11,42.65c-15,7.78-33.1,13.88-54.59,16.84
		c-21.49,2.96-36.96,3.08-46.42,0.44c-15.9-3.96-23.64-14.24-23.64-31.05c0-6.14,0.86-13.62,3.01-21.68
		c12.89-13.79,19.34-33.77,19.34-59.67c0-8.76-6.66-14.79-18.91-17.85c-9.37-2.34-19.77-2.87-30.95-1.64c0,0-3.87,1.28-12.04,3.33
		c-10.74,7.26-15.9,19.15-15.9,35.91c0,12.26,2.58,22.67,8.17,31.21c2.15,3.09,7.73,8.36,15.9,16.22c5.59,5.23,8.17,10.3,8.17,15.18
		c0,18.76-10.32,31.89-30.95,38.33c-9.89,3.4-28.37,5.63-54.59,6.02c-39.54,0.58-59.1-9.92-59.31-28.01
		c-0.19-16.1,7.46-29.1,22.78-39.01c18.02-11.66,34.97-38.44,47.72-78.95c12.1-38.48,17.62-73.81,17.62-102.99
		c0-11.4-1.72-20.45-5.59-28.09c-2.15-4.04-5.16-8.57-9.89-12.97c-3.81-3.55-5.58-6.28-5.58-8.12c0-10.12,15.59-19.2,45.99-27.95
		c26.03-7.49,45.13-11.76,57.17-11.51c20.2,0.41,35.67,4.95,46.42,14.34c4.73,4.34,12.04,15.05,21.49,31.82
		c3.01,5.32,6.45,16.3,10.75,32.73c16.76,64.86,33.53,110.62,50.29,140.04c2.15,4.2,6.53,8.59,12.9,11.96
		C819.46,1256.4,823.57,1259.64,825.72,1262.1z M677.85,1149.15c0-2.21-2.54-9.94-7.73-22.72c-4.67-11.5-11.18-17.15-19.34-16.36
		c-4.73,0.45-9.96,7.27-15.48,20.8c-4.75,11.64-6.88,20.44-6.88,26.28c0,2.7,3.87,3.72,11.18,3c3.44-0.34,13.76-2.77,17.19-3.15
		c5.59-0.62,9.46-0.64,10.75,0.1C674.43,1155.83,677.85,1153.15,677.85,1149.15z M1090.59,1013.2c0,30.54-7.74,54.35-23.21,71.02
		c-9.89,10.71-25.9,20.91-48.58,29.94c-22.52,8.97-36.96,16.84-42.55,23.15c7.31,42.45,13.64,67.12,19.34,72.24
		c6.86,6.16,17.63,12.41,17.63,21.37c0,35.4-12.17,46.57-41.7,59.83c-7.87,3.53-19.34,8.72-33.1,12.42
		c-13.75,3.7-29.32,6.23-46.85,8.94c-38.86,6-49.43-2.4-49.43-32.34c0-4.22,2.58-9.49,7.74-15.82c6.44-7.92,10.31-12.7,11.6-15.13
		c8.17-18.57,16.77-65.44,24.93-143.12c0-11.47,0-17.21,0-28.71c0-17.44-3.44-28.35-10.74-32.63c-2.58-0.66-6.94-1.7-10.75-3.88
		c-3.25-1.86-5.16-7.06-5.16-13.63c0-11.86,7.39-22.87,22.35-32.38c12.46-7.92,28.02-14.6,45.57-18.82
		c4.14-0.99,6.34-1.36,6.33-1.27c2.19-0.94,6.02-1.58,9.56-2.97c1.61-0.63,9.26-3.62,21.49-8.01c8.52-3.06,17.25-5.56,26.22-7.66
		C1057.28,940.29,1090.59,958.57,1090.59,1013.2z M1004.19,1032.86c0-22.96-10.32-31.72-30.52-26.08
		c-7.31,2.04-10.75,7.79-10.75,17.8c0,20.44,0.44,33.78,0.86,40.15c0.44,6.81-0.86,15,6.02,16.52c0.43,0.31,2.39-0.01,4.73-0.48
		c8.87-1.77,16.93-9.18,22.35-19.4C1001.66,1052.37,1004.19,1042.83,1004.19,1032.86z M1342.52,942.65
		c0,30.05-7.74,53.26-23.21,69.18c-9.89,10.23-25.91,19.76-48.58,28.32c-22.52,8.5-36.96,16.29-42.55,22.62
		c7.31,42.79,13.64,68.03,19.34,73.31c6.87,6.37,17.63,12.96,17.63,22.11c0,36.15-12.25,47.32-41.7,60.72
		c-7.86,3.58-19.34,8.87-33.1,12.76c-13.75,3.88-29.32,6.69-46.85,9.91c-38.85,7.13-49.43-0.77-49.43-31.26
		c0-4.3,2.58-9.79,7.74-16.47c6.44-8.35,10.31-13.37,11.6-15.89c8.17-19.21,16.77-67.53,24.93-144.56c0-11.32,0-16.98,0-28.29
		c0-17.15-3.44-27.7-10.74-31.57c-2.58-0.53-6.93-1.34-10.75-3.29c-3.22-1.65-5.16-6.65-5.16-13.08c0-11.6,7.38-22.72,22.35-32.61
		c12.46-8.23,28-15.27,45.57-19.81c4.15-1.07,6.35-1.47,6.33-1.39c2.19-0.96,6.01-1.66,9.56-3.08c1.62-0.64,9.26-3.71,21.49-8.11
		c8.53-3.07,17.25-5.56,26.22-7.61C1309.21,869.45,1342.52,888.9,1342.52,942.65z M1256.12,959.8c0-22.51-10.32-31.14-30.52-25.5
		c-7.31,2.04-10.75,7.69-10.75,17.48c0,19.99,0.44,33.09,0.86,39.36c0.44,6.69-0.86,14.75,6.02,16.21c0.43,0.3,2.38-0.02,4.73-0.49
		c8.88-1.78,16.93-9.06,22.35-19.08C1253.59,978.92,1256.12,969.57,1256.12,959.8z M1496.89,1080.46
		c-4.72-5.13-9.14-23.71-15.04-53.77c-5.23-26.66-9.46-51.69-12.04-75.28c0-0.84,0-1.25,0-2.09c0-25.26,2.97-44.59,7.74-57.2
		c4.64-12.26,18.91-14.53,18.91-30.57c0-9.06-4.37-15.1-13.32-18.56c-10.28-3.98-28.44-5.87-53.73-1.16
		c-17.99,3.35-33.12,9.19-45.57,16.56c-14.97,8.86-22.35,19.41-22.35,30.76c0,6.29,1.91,11.27,5.16,13.07
		c3.84,2.12,8.17,3.14,10.75,3.8c7.3,4.21,12.66,22.14,11.6,48.91c-1.02,25.93-6.51,56.38-11.6,87.78
		c-5.65,34.93-10.75,57.2-14.62,66.42c-0.86,2.37-4.71,7.46-11.17,15.34c-5.4,6.59-8.17,12.06-8.17,16.44
		c0,18.81,5.16,30.26,15.9,34.31c10.75,4.04,31.81,2.09,64.05-4.66c39.98-8.37,64.5-11.87,73.5-17.35
		c11.95-7.28,18.06-22.77,18.06-47.39C1514.95,1096.4,1503.77,1087.95,1496.89,1080.46z M1751.83,1016.47
		c-3.87-3.07-7.31-4.71-11.18-4.98c-3.87-0.28-9.45,1.18-17.19,3.97c-3.87,1.63-11.61,6.28-23.21,13.74
		c-7.74,5.28-15.91,7.89-24.07,7.84c-12.47-0.06-21.93-24.27-28.37-61.01c-0.43-3.24-0.86-19.49-0.86-48.92
		c0-20.96,2.95-37.17,7.73-48.7c4.64-11.2,18.92-11.56,18.92-27.07c0-8.75-4.38-15.16-13.33-19.6c-10.29-5.1-28.45-7.89-53.73-7.41
		c-17.99,0.35-33.13,3.68-45.56,8.96c-14.97,6.36-22.35,15.58-22.35,26.59c0,6.1,1.83,11.15,5.15,13.37
		c3.89,2.61,8.17,4.15,10.75,5.15c8.17,5.81,12.68,24.3,12.89,55.64c0.21,31.69-3,65.57-8.59,102c-1.29,8.2-6.59,21.76-15.05,40.57
		c-7.78,17.28-11.6,29.06-11.6,35.35c0,28.35,18.05,40.36,54.16,38.32c-1.29,0.07,15.96-0.81,52.01-0.52
		c21.02,0.17,38.26-0.06,51.58-1.53c8.77-0.12,13.15-0.14,21.92-0.08c1.29-0.4,3.91-0.21,6.88,0.36c3.8,0.73,6.45,0.84,8.17,0.95
		c10.31,0.65,18.48-2.4,24.07-9.81c10.74-14.37,16.33-40.65,16.33-79.85c0-15.67-1.29-25.93-3.44-31.2
		C1762.57,1026.18,1758.72,1022.11,1751.83,1016.47z M1996.89,881.87c-45.14-16.74-67.92-11.72-67.92,8.87
		c0,6.04,1.69,11.48,5.16,15.25c4.88,5.3,7.31,6.29,7.31,7.91c0,1.62-1.29,4.46-3.87,8.51c-3.44,5.42-6.02,10.3-7.31,14.77
		c-6.45,7.74-11.6,11.09-15.9,9.87c-11.61-3.3-19.31-13.77-22.78-31.03c-1.69-8.43,2.15-14.72,7.73-17.7
		c5.59-2.98,12.04-4.47,12.04-15.31c0-8.84-4.32-16.59-12.9-22.99c-10.57-7.88-28.45-14.82-53.73-19.94
		c-18.44-3.74-33.63-3.51-45.56-0.94c-14.87,3.21-22.35,10.66-22.35,21.35c0,5.93,1.73,11.27,4.73,14.01
		c3.73,3.41,8.16,5.76,10.74,7.29c0,0,4.73,3.75,13.76,11.02c5.58,4.39,9.45,8.58,12.46,12.65c7.31,14.3,14.18,26.85,18.49,36.31
		c3.24,7.11,7.09,15.72,12.46,24.03c4.34,6.71,6.45,10.57,6.45,11.76c-1.29,11.77-4,29.15-8.17,53.88
		c-4.84,28.71-9.02,47.42-12.89,54.55c-1.29,2.06-5.16,5.49-11.61,11.34c-5.16,4.68-7.74,9.37-7.74,14
		c0,19.86,5.16,34.05,15.91,42.84c10.74,8.79,31.81,15.59,64.04,23.51c39.98,9.83,64.1,15.9,73.08,14.51
		c11.95-1.85,18.05-14.33,18.05-39.03c0-9.44-11.03-23.39-17.62-34.41c-6.64-11.09-14.19-52.76-22.78-109.46c0-2.77,0-4.16,0-6.93
		c0-9.76,5.15-19.47,15.47-28.46c3.87-3.94,14.19-11.34,30.95-22.1c4.73-4.33,8.25-6.85,10.75-7.7c2.81-0.96,9.58-0.9,20.2-0.34
		c13.59,0.71,16.33-1.63,21.49-4.32c3.01-1.15,4.3-4.74,4.3-10.21C2049.32,912,2031.69,894.78,1996.89,881.87z"/>
	<path d="M823.96,1550.96c0.54,9.18,1.11,17.23,1.11,23.49c0,28.2-6.32,47.74-18.58,58.25c-4.83,3.99-20.45,10.21-47.2,12.08
		c-7.43,0.52-17.51,1.17-30.48,2.31c-10.76,0.95-21.19,1.2-31.23,1.68c-27.95,1.2-41.92,1.63-69.86,2.03
		c-12.64,0.24-18.97-5.35-18.97-15.98c0-4.32,1.87-8.01,5.58-11.39c6.32-5.76,9.67-9.19,10.41-10.54c2.82-4.07,4.24-6.12,7.06-10.21
		c3.35-5.12,5.58-17.92,6.32-38.54c1.19-34.89,1.79-52.47,2.98-87.92c0.37-7.57,1-14.23,0.37-19.95
		c-1.3-11.75-4.46-19.39-8.93-22.24c-2.22-0.91-5.9-2.34-9.28-4.69c-2.89-2.01-4.46-6.32-4.46-11.5c0-9.32,6.38-16.83,19.32-22.23
		c10.76-4.49,23.97-7.46,39.4-8.71c5.89-0.48,21.19-0.68,27.51-1.36c8.54-0.93,22.29-3.17,41.26-6.73
		c18.95-3.56,32.7-7.11,40.5-8.77c10.78-2.3,19.12,2.42,24.92,13.96c4.49,8.94,6.69,19.31,6.69,31.09c0,7.5-1.44,14.1-4.46,19.52
		c-3.83,6.88-9.3,11.28-16.36,12.77c-6.69,1.42-12.26-0.27-17.1-5.31c-7.06-7.42-12.26-11.6-15.97-13.62
		c-9.3-4.87-22.68-6.38-40.52-4.44c-3.27,0.36-4.91,0.53-8.19,0.87c-2.6,1.34-4.08,4.29-5.19,8.96c-0.37,1.78-0.76,3.22-0.76,4.98
		c0,7.69,4.1,13.61,12.28,17.68c7.05,3.5,15.6,4.73,25.64,3.62c4.09-0.45,10.41-8.93,14.49-9.41c3.72-0.44,5.58,1.72,5.58,7.02
		c0,8.14-1.08,16.54-3.34,24.1c-3.25,10.87-7.82,16.64-14.13,17.27c-4.08,0.41-8.04-2.06-11.52-7.57c-3.39-5.37-8.54-7.88-15.6-7.22
		c-7.82,0.73-11.89,7.33-11.89,19.44c0,28.72,17.84,41.94,53.89,38.48c2.97-0.28,11.15-4.42,14.49-4.03
		c1.87-0.02,3.35-0.31,4.46-0.52c6.32-1.24,11.15-4.99,15.25-11.41c4.08-6.42,7.43-9.93,10.03-10.47
		c7.43-1.54,13.76,9.06,13.76,17.13C823.22,1535.36,823.41,1541.49,823.96,1550.96z M1072.2,1302.85
		c-8.35-1.07-18.21-0.01-28.99,3.03c-36.79,10.39-55.38,24.99-55.38,44.38c0,6.94,2.6,10.99,8.17,12.4c5.58,1.42,8.56,5,8.56,10.49
		c0,11.71-2.94,26.51-8.93,44.39c-6.96,20.75-14.86,33.3-23.42,37.99c-6.32-1.3-13.11-9.79-20.07-24.95
		c-6.35-13.85-9.55-25.88-10.04-34.71c-0.88-15.79,9.21-29.39,9.67-32.29c0.29-1.86,0.74-3.82,0.74-6.38c0-8-3.8-12.79-11.52-14.77
		c-8.86-2.28-24.58-0.67-46.46,4.45c-15.54,3.64-28.64,9.02-39.39,15.52c-12.96,7.84-19.34,16.82-19.34,26.52
		c0,5.39,1.67,9.64,4.46,11.16c3.32,1.81,7.06,2.66,9.3,3.21c4.83,2.44,9.28,9.29,13.75,20.4c3.72,9.72,5.58,14.57,9.3,24.27
		c1.48,4.28,7.8,23.52,17.47,57.19c9.28,32.34,17.84,56.28,26.01,71.5c12.26,22.82,26.01,32.72,41.26,29.43
		c4.83-1.04,10.83-3.38,17.47-7.01c8.52-4.67,14.49-9.65,17.84-14.73c8.17-13.01,19.64-46.75,34.2-101.83
		c16.24-61.42,28.98-103.02,37.91-123.58c1.11-2.9,6.14-9.03,14.49-18.07c6.7-7.26,10.17-14.42,10.04-21.34
		C1089.12,1310.16,1083.16,1304.25,1072.2,1302.85z M1307.8,1436.49c-0.55-10.56-0.74-17.33-0.74-20.04
		c0-8.94-6.32-20.65-13.76-18.9c-2.6,0.61-5.93,4.5-10.03,11.64s-8.93,11.36-15.25,12.86c-1.11,0.26-2.6,0.62-4.45,0.67
		c-3.35-0.35-11.52,4.29-14.5,5c-36.05,8.66-53.89-2.78-53.89-34.23c0-13.25,4.09-21.13,11.89-23.16c7.06-1.83,12.21,0.1,15.62,5.48
		c3.47,5.47,7.43,7.62,11.52,6.59c6.32-1.59,10.86-8.49,14.12-20.75c2.26-8.51,3.35-17.64,3.35-26.42c0-5.72-1.87-7.9-5.58-6.94
		c-4.09,1.06-10.41,11.06-14.5,12.13c-10.03,2.61-18.6,2.59-25.64-0.1c-8.16-3.11-12.26-8.82-12.26-17.12c0-1.9,0.37-3.5,0.74-5.48
		c1.11-5.21,2.61-8.63,5.21-10.47c3.27-0.89,4.9-1.33,8.17-2.21c17.84-4.82,31.22-4.95,40.52-0.92c3.72,1.68,8.91,6.03,15.99,13.77
		c4.82,5.26,10.4,6.92,17.08,5.24c7.07-1.77,12.52-6.59,16.36-14.04c3.04-5.92,4.46-13,4.46-21.03c0-12.64-2.19-23.66-6.69-33.09
		c-5.8-12.16-14.13-16.92-24.9-14.08c-7.82,2.06-21.56,6.46-40.52,12.75c-18.95,6.29-32.7,10.87-41.26,13.26
		c-6.32,1.76-21.6,4.62-27.49,6.21c-15.4,4.16-28.63,10.02-39.4,17.13c-12.95,8.55-19.32,18.12-19.32,28.17
		c0,5.58,1.67,9.93,4.45,11.4c3.29,1.74,7.07,2.5,9.3,3c4.46,2.11,7.6,9.65,8.91,22.16c0.64,6.04,0,13.44-0.37,21.76
		c-1.19,38.85-1.78,58.28-2.97,97.13c-0.74,22.98-2.98,37.71-6.32,44.11c-2.82,5.15-4.24,7.73-7.06,12.86
		c-0.74,1.66-4.09,6.19-10.41,13.98c-3.72,4.57-5.58,9.09-5.58,13.91c0,11.87,6.32,16.75,18.95,13.91
		c27.95-6.13,41.93-9.2,69.88-15.24c10.04-2.22,20.46-4.17,31.22-6.87c12.96-3.25,23.05-5.4,30.48-6.99
		c26.77-5.75,42.37-10.53,47.2-15.07c12.26-11.94,18.58-34.09,18.58-65.7C1308.92,1455.71,1308.34,1446.73,1307.8,1436.49z
		 M1589.13,1483.72c0,2.89-2.22,5.37-6.32,8.32c-3.57,2.52-5.36,3.79-8.93,6.32c-4.45,0.49-11.94,1.53-21.92,3.78
		c-8.49,1.91-15.62,2.93-21.56,3.14c-25.64,0.93-43.48-9.11-53.15-30.77c-4.83-10.61-9.13-33.16-13.38-67
		c-3.56-28.36-10.04-46.52-18.95-53.92c-2.98-2.46-6.7-2.84-10.78-1.26c-7.02,2.72-10.04,8.17-8.93,14.65
		c5.21,36.42,10.22,58.88,15.99,65.94c5.97,7.31,15.25,15.21,15.25,23.64c0,22.11-5.22,35.85-15.25,41.77
		c-7.77,4.58-28.99,10.15-63.56,16.66c-28.24,5.32-47.43,6.47-56.49,2.75c-9.2-3.78-13.78-14.97-12.64-31.88
		c0.26-3.9,2.6-8.76,7.06-14.42c5.58-7.07,8.54-11.24,9.67-13.43c3.34-8.15,7.75-28,12.64-59.42c4.39-28.23,9.31-56.07,10.03-79.58
		c0.75-24.6-4.08-41.1-10.03-44.68c-2.24-0.62-6.02-1.6-9.3-3.52c-2.81-1.65-4.46-6.2-4.46-11.94c0-10.34,6.49-19.9,19.34-28.05
		c10.36-6.58,23.42-12.49,39.39-15.33c6.25-1.11,9.37-1.65,15.62-2.72c21.93-5.96,36.05-9.09,41.63-9.86
		c20.44-2.83,38.67-0.76,54.26,6.14c19.27,8.52,28.99,22.74,28.99,42.93c0,24.94-12.64,46.11-37.91,63.01
		c2.6,8.08,7.8,13.59,15.97,16.94c12.26,5.03,18.21,7.49,18.58,7.47c10.04,8.53,17.79,17.51,22.68,27.2
		c4.34,8.62,8.31,20.69,11.15,35.51c4.22,21.97,10.41,41.1,18.95,56.88c0.37,1.22,3.78,4.81,9.67,11.68
		C1586.91,1475.89,1589.13,1480.03,1589.13,1483.72z M1447.89,1271.28c0-19.11-7.06-28.49-21.55-25.52
		c-6.32,1.3-13.02,8.5-11.89,14.84c1.19,15.7,1.78,23.58,2.97,39.39c0.37,6.55,2.61,9.59,6.69,8.77c7.44-1.5,13.36-6.27,17.84-14.15
		C1445.98,1287.52,1447.89,1279.47,1447.89,1271.28z"/>
	<path d="M551.29,1997.59c-9.25-6.06-15.53-12.74-18.63-18.56c-24.24-41.28-48.48-103.24-72.71-188.19
		c-6.21-21.53-11.19-36.05-15.54-43.46c-13.67-23.34-24.23-38.61-31.07-45.3c-15.54-14.65-37.91-24.67-67.12-31.47
		c-17.4-4.05-44.95-4.87-82.66-4.43c-43.89,0.51-66.5,6.32-66.5,19.29c0,2.36,2.53,6.47,8.08,12.37
		c6.84,7.27,11.18,14.04,14.29,19.89c5.6,11,8.08,23.06,8.08,37.55c0,37.12-8.55,79.25-25.48,127.14
		c-19.52,55.24-42.96,91.92-68.99,107.89c-22.12,13.57-33.21,33.74-32.94,58.93c0.31,28.3,28.59,43.1,85.76,43.43
		c37.91,0.22,64.64-1.37,78.93-5.2c29.83-7.08,44.74-23.31,44.74-48.66c0-6.62-3.73-13.89-11.8-21.97
		c-11.81-12.11-19.89-20.39-22.99-25.05c-8.08-12.78-11.81-27.74-11.81-44.71c0-23.21,7.46-38.42,22.99-45.46
		c11.81-0.62,17.4-1.28,17.4-1.28c16.16,1.37,31.17,4.95,44.75,10.61c17.73,7.39,27.34,16.99,27.34,28.4
		c0,33.67-9.32,58.08-27.96,73.78c-3.11,10.23-4.35,20.02-4.35,28.17c0,22.3,11.19,37.11,34.18,44.73
		c13.67,4.89,36.04,7.05,67.11,7.13c31.08,0.07,57.25-3.13,78.93-8.62c32.73-8.29,50.63-22.33,52.19-42.1
		c1-12.71-1.23-22.79-6.21-30.11C566.21,2008.68,560.32,2003.5,551.29,1997.59z M340.62,1836.48c-1.87-1.29-7.46-2.37-15.54-3.19
		c-4.97-0.5-19.89-0.41-24.86-0.96c-10.57-1.18-16.16-3.55-16.16-6.93c0-7.34,3.08-17.79,9.94-30.93
		c7.98-15.29,15.53-22.2,22.37-21.35c11.81,1.47,21.21,10.39,27.97,26.05c7.48,17.33,11.18,27.64,11.18,30.4
		C355.53,1834.54,350.57,1836.86,340.62,1836.48z M932.22,1676.4c7.85,14.85,11.8,31.96,11.8,51.37c0,12.35-2.74,22.82-8.08,31.86
		c-6.29,10.66-14.9,17.54-26.72,19.39c-9.94,1.55-18.64-2.3-25.48-11.54c-10.56-13.83-18.02-22.31-22.36-25.04
		c-12.44-8.24-30.51-10.26-53.45-6.11c-28.51,5.15-42.89,14.23-42.89,27.53c0,13.86,6.3,23.87,18.02,29.21
		c10.36,4.72,24.25,6.12,40.4,3.84c6.84-0.97,19.26-13.46,26.72-14.58c6.84-1.02,9.95,21.34,9.95,65.77
		c0,11.24-8.08,22.84-20.51,24.26c-4.36,0.5-11.8-3.66-21.76-12.43c-9.94-8.77-21.13-12.36-32.94-10.97
		c-9.31,1.1-15.54,4.55-18.02,10.25c-1.25,2.76-1.96,9.92-2.49,20.65c-2.21,44.49,3.11,84.88,13.05,121.24
		c2.49,7.78,13.94,19.73,34.18,35.5c18.61,14.5,27.32,27.56,26.1,38.79c-1.27,11.76-14.3,17.71-39.77,17.84
		c-6.84,0.03-16.38-0.71-29.2-1.38c-12.8-0.68-21.76-1-27.35-0.99c-46.74,0.44-70.11,0.65-116.85,1.04
		c-21.13-0.01-31.69-8.7-31.69-25.66c0-6.67,4.35-15.42,14.92-24.67c9.44-8.64,14.17-12.97,23.61-21.65
		c12.43-11.37,16.79-25.41,16.79-41.09c-1-60.4-1.5-91.07-2.49-153.33c0-0.22,0-0.32,0-0.54c0-36.08-6.21-58.42-16.77-65.94
		c-3.74-1.61-9.82-4.06-15.54-8.08c-4.83-3.39-7.46-10.33-7.46-18.53c0-14.74,10.66-26.19,32.31-33.78
		c18-6.31,39.77-10.32,65.88-10.89c1.87-0.08,4.98-0.22,9.33,0.14c3.48-0.16,5.22-0.24,8.71-0.42c-3.11,0.15,11.18-0.42,42.87-2.41
		c14.3-0.89,36.38-7.29,64.01-15.4c27.79-8.16,49.1-14.36,62.15-16.91C908.59,1649.32,922.18,1657.41,932.22,1676.4z
		 M1170.85,1688.19c0,0-1.87,0.98-6.21,3.68c3.48,31.66,5.22,47.55,8.71,79.51c1.24,9.27,1.86,13.92,3.1,23.22
		c4.97,37.11,10.08,73.29,16.79,108.83c7.54,39.98,13.05,65.35,19.26,72.18c9.94,12.51,26.1,25.63,26.1,39.62
		c0,36.64-8.85,58.88-26.1,67.67c-13.01,6.63-48.48,10.15-106.27,10.43c-45.99,0.23-77.08-3.89-92.6-12.56
		c-15.53-8.68-23-25.41-23-50.61c0-5.86,4.02-12.45,11.8-19.96c9.32-8.99,14.92-15.05,16.16-18.11
		c6.21-11.7,13.55-41.65,21.76-88.85c7.9-45.46,14.02-86.93,16.77-123.19c0.7-9.17,1.87-31.47,2.49-66.5
		c-6.21-1.31-9.33-1.96-9.33-1.96c-5.59,1.02-10.2,6.81-14.3,17.19c-5.75,14.59-11.18,24.95-15.53,29.9
		c-9.33,11.19-23.62,18.25-41.64,21.1c-15.54,2.46-25.36-1.08-29.84-9.38c-2.86-5.3-4.35-16.3-4.35-33.34
		c0-17.63,5.81-36.92,16.79-58.61c12.51-24.73,26.71-39.39,42.87-42.76c5.59-1.17,14.3-1.18,26.1-0.61
		c11.8,0.58,20.51-0.01,26.1-1.18c69.61-14.55,116.22-25.61,139.83-32.41c4.35-1.54,13.05-9.76,18.64-10.92
		c17.41-3.61,32.29,5.05,44.76,26.71c10.47,18.2,16.15,38.3,16.15,58.75c0,37.59-13.05,58.16-39.77,62.35
		c-14.92,2.34-27.53-6.16-36.66-24.48C1190.05,1695.06,1180.18,1686.49,1170.85,1688.19z M1631.32,1969.76
		c0,58.53-10.56,97.2-31.07,114.74c-8.08,6.57-34.18,9.5-78.93,9.51c-12.43,0-29.29-0.07-50.97,0.74
		c-17.96,0.67-35.41,0.01-52.2,0.06c-46.73-0.15-70.1-0.22-116.83-0.33c-21.13,0.08-31.69-11.47-31.69-33.17
		c0-8.8,3.1-16.32,9.31-23.31c10.57-11.89,16.16-18.98,17.41-21.77c4.72-8.4,7.08-12.61,11.8-21.08
		c5.59-10.56,9.31-36.98,10.56-78.82c1.99-70.8,2.98-105.97,4.97-175.81c0.62-14.92,1.68-28.04,0.62-39.1
		c-2.18-22.83-7.46-36.98-14.9-41.7c-3.74-1.37-10.03-3.54-15.54-7.28c-4.79-3.25-7.46-11.23-7.46-21.12
		c0-17.79,10.67-33.57,32.31-46.3c18.01-10.59,40.15-18.49,65.88-22.7c9.85-1.61,35.43-3.41,45.99-5.13
		c14.3-2.34,37.31-3.96,68.99-7.35c31.68-3.39,54.69-5.26,67.74-5.48c18.02-0.31,31.9,12.16,41.63,37.15
		c7.53,19.33,11.2,40.49,11.2,63.61c0,14.71-2.37,27.01-7.46,36.42c-6.35,11.75-15.54,18.17-27.35,18.18
		c-11.18,0-20.51-5.57-28.59-17.41c-11.8-17.42-20.51-27.72-26.72-32.46c-15.53-11.52-37.91-17.17-67.73-15.91
		c-5.47,0.23-8.2,0.35-13.67,0.6c-4.36,2.27-6.84,7.88-8.71,16.93c-0.62,3.48-1.25,6.26-1.25,9.72c0,15.18,6.84,27.38,20.51,36.61
		c11.77,7.95,26.1,11.72,42.89,11.34c6.84-0.15,17.4-15.78,24.23-15.9c6.21-0.11,9.33,4.76,9.33,15.28
		c0,16.15-1.81,32.49-5.61,47.25c-5.44,21.15-13.05,31.96-23.61,32.12c-6.84,0.1-13.43-5.6-19.26-17.32
		c-5.72-11.49-14.3-17.28-26.1-16.96c-13.05,0.35-19.89,13.14-19.89,37.74c0,58.36,29.82,87.71,90.11,87.42
		c4.97-0.02,18.64-5.09,24.23-2.94c3.11,0.71,5.61,0.71,7.46,0.71c10.57,0,18.66-5.71,25.49-17.14
		c6.82-11.41,12.43-17.1,16.77-17.07c12.43,0.09,23,24.53,23,41.02c0,5.01,0.31,17.48,1.23,37.36
		C1630.35,1939.85,1631.32,1956.76,1631.32,1969.76z M2088.71,2051.33c-9.85-10.99-15.54-16.99-16.16-18.92
		c-14.3-25.35-24.65-56.59-31.69-92.41c-4.76-24.19-11.38-44.53-18.64-59.68c-8.16-17.03-21.13-33.99-37.92-51.37
		c-0.61-0.08-10.56-5.99-31.07-18.55c-13.67-8.37-22.38-19.49-26.72-34.22c42.27-19.88,63.4-49.41,63.4-90.86
		c0-33.55-16.26-62.1-48.48-86.28c-26.09-19.58-56.56-32.41-90.73-36.98c-9.33-1.25-32.94-3.78-69.61-5.02
		c-10.44-1.49-15.66-2.19-26.1-3.52c-26.72-3.39-48.59,0.65-65.88,7.36c-21.44,8.33-32.31,22.64-32.31,41.48
		c0,10.48,2.49,19.34,7.46,23.95c5.58,5.17,11.8,8.74,15.53,10.97c9.95,9.43,18.11,40.96,16.79,86.26
		c-1.22,41.95-9.45,90.93-16.79,140.64c-8.17,55.35-15.53,90.04-21.12,103.68c-1.87,3.59-6.84,10.02-16.16,20.79
		c-7.46,8.62-11.36,16.73-11.8,23.83c-1.94,31.14,5.67,53.53,21.13,64.08c15.12,10.32,47.22,15.35,94.45,15.44
		c57.81,0.1,93.25-3.32,106.27-10.29c16.78-8.97,25.48-31.87,25.48-70.05c0-14.58-15.48-29.97-25.48-44.04
		c-9.67-13.6-18.02-54.6-26.72-121.45c-1.85-11.99,3.19-19.3,14.92-21.97c6.81-1.55,13.05,0.28,18.02,5.51
		c14.92,15.68,25.76,49.1,31.71,98.84c7.09,59.31,14.28,98.45,22.36,117.16c16.16,38.12,45.99,56.39,88.88,56.39
		c9.94,0,21.84-1.27,36.04-3.89c16.72-3.09,29.22-4.38,36.67-4.97c5.97-3.76,8.95-5.63,14.92-9.31c6.84-4.29,10.56-7.93,10.56-12.29
		C2099.9,2066.03,2096.18,2059.66,2088.71,2051.33z M1853.79,1725.02c-7.49,12.22-17.4,18.34-29.82,17.3
		c-6.84-0.57-10.57-7.12-11.2-18.99c-1.99-28.78-2.98-43.16-4.97-71.86c-1.87-11.93,9.33-21.25,19.89-20.13
		c24.23,2.58,36.05,21.29,36.05,54.89C1863.74,1700.62,1860.53,1714.01,1853.79,1725.02z"/>
</g>
</svg>
