<?xml version="1.0" encoding="utf-8"?>
<!-- Generator: Adobe Illustrator 25.0.1, SVG Export Plug-In . SVG Version: 6.00 Build 0)  -->
<svg version="1.1" id="Layer_1" xmlns="http://www.w3.org/2000/svg" xmlns:xlink="http://www.w3.org/1999/xlink" x="0px" y="0px"
	 viewBox="0 0 2400 2400" style="enable-background:new 0 0 2400 2400;" xml:space="preserve">
<g>
	<path transform="translate(0.000000,2400.000000) scale(0.100000,-0.100000)" d="M8053,21230c-229-32-465-181-774-490
		c-379-379-733-859-1024-1390c-73-132-86-153-91-147c-3,2-14,92-25,198c-26,261-82,646-119,825c-122,583-322,872-665,959
		c-93,24-312,24-409,1c-512-122-1128-874-1364-1666c-78-260-107-473-99-715c9-240,44-390,138-581c83-169,195-271,343-310
		c110-30,302-13,328,29c23,36-23,67-100,67c-142,0-242,148-298,439c-122,634,226,1598,796,2204c157,167,385,337,452,337
		c61,0,177-124,252-270c134-261,209-658,291-1550c13-135,29-384,51-765l6-110l-72-180c-247-620-516-1476-684-2170
		c-128-535-229-1061-276-1453c-12-92-25-194-30-227c-15-97-38-417-56-751c-15-287-15-331,0-570c20-311,38-452,76-605
		c80-322,194-459,405-490c92-14,222,0,291,31c261,115,428,510,568,1340c72,423,148,1051,182,1500c9,124,21,235,25,248
		c6,16,16,22,39,22c55,0,117,21,155,52c20,17,83,92,140,168c99,131,188,222,355,362c334,280,817,531,993,516c72-6,140-43,198-106
		c101-111,163-263,207-507c25-142,26-168,26-465c0-283-3-338-28-539c-40-330-121-735-206-1033c-13-44-91-109-1045-870
		c-436-348-575-469-790-689c-229-234-370-428-454-625c-53-124-66-182-66-309c0-99,3-116,27-167c49-105,147-178,289-214
		c49-13,99-15,233-12c150,4,182,8,261,32c303,91,655,341,941,666c441,503,775,1122,1046,1936l81,242l191,169
		c238,209,766,735,912,907c406,478,681,954,794,1375l22,80l86,55c48,30,136,93,196,140s111,84,113,82s-17-53-42-112
		c-563-1316-872-2533-842-3314c22-554,141-804,422-886c72-20,274-23,356-4c145,33,293,144,420,314c215,287,490,885,845,1835
		c55,145,100,257,102,249c2-9-4-114-13-234c-23-310-30-826-16-1059c20-316,60-577,122-795c80-282,175-433,313-497
		c59-27,67-28,216-28s157,1,211,28c121,59,196,175,360,554c71,165,207,527,290,773c40,118,74,217,76,219c8,11,14-14,28-125
		c51-387,178-726,337-901c147-160,368-231,637-204c336,33,568,224,859,708c45,76,119,211,165,300c45,90,85,163,88,163
		c4,0,12-36,18-81c7-44,27-142,46-217c105-428,270-684,518-806c132-65,187-77,367-83c269-9,449,44,640,187l55,41l20-37
		c86-156,208-290,313-343c121-61,192-76,357-75c136,0,158,3,235,28c206,68,418,222,700,512c540,555,958,1281,1209,2099
		c48,158,122,474,119,508c-5,50-53,72-158,72c-94-1-144-19-160-58c-5-12-36-106-69-208c-114-358-206-582-371-907
		c-323-638-782-1237-1214-1584c-110-89-241-178-261-178c-32,0-134,169-194,322c-17,42-49,136-71,209l-40,131l78,132
		c330,550,705,1381,910,2016c94,290,159,554,208,845c25,143,28,185,28,400c0,229-1,244-27,340c-69,256-202,402-405,444
		c-79,16-287,14-357-4c-84-22-195-76-264-129c-213-164-407-502-582-1016c-229-668-310-1213-296-1975c8-420,32-671,92-956
		c8-39,15-79,15-89c0-65-343-415-427-436c-70-18-218,202-296,441c-66,199-124,547-147,875c-15,217-22,693-12,855l9,150l71,197
		c243,673,727,2213,927,2948c20,74,50,182,66,240c123,446,252,1058,304,1440c81,597,41,1109-100,1294c-70,92-282,120-420,55
		c-214-100-484-668-735-1544c-180-630-372-1542-491-2329c-11-71-21-131-23-134c-2-2-32,15-66,39c-138,94-311,135-530,126
		c-457-19-821-258-1107-724c-75-123-194-359-248-496c-20-51-47-103-59-117c-15-16-32-59-46-120c-13-52-47-180-77-285
		c-29-104-63-235-74-290c-97-455-432-1481-702-2150c-128-317-299-685-317-685c-17,0-71,209-104,397c-43,248-62,455-82,908
		c-7,156,6,536,32,925c32,498,131,1244,230,1741c22,112,16,134-44,162c-37,17-65,22-132,22c-117-1-161-24-196-103
		c-56-125-197-471-507-1242c-509-1265-598-1474-835-1947c-126-252-195-374-297-528c-69-104-177-235-195-235c-16,0-53,108-76,220
		c-81,393-40,1006,112,1680c186,821,518,1794,908,2661c60,134,106,249,106,267c0,38-43,77-103,93c-63,17-234,7-277-15
		c-19-11-141-122-269-249c-263-257-491-468-501-462c-4,2-10,48-13,102c-17,284-173,492-408,548c-75,17-245,20-321,4
		c-29-6-91-29-137-51c-160-76-325-272-403-477c-31-82-32-93-33-226v-141l38-76c62-127,160-202,332-254c83-25,104-28,267-28
		c98-1,178-5,178-9c0-20-78-194-144-322c-163-316-385-625-694-966c-168-185-489-506-497-497c-4,4,5,89,19,190c41,291,46,348,56,569
		c19,424-20,778-111,1014c-144,377-418,539-878,522c-229-9-373-44-605-148c-60-27-111-48-112-46c-2,1,38,75,88,162
		c160,282,328,602,494,940c549,1118,897,2124,1020,2950c69,461,28,765-124,927c-56,60-105,90-195,117
		C8288,21233,8143,21243,8053,21230z M8192,21018c38-40,51-66,79-158c22-69,24-91,24-295c-1-195-4-238-29-380
		c-115-661-346-1382-726-2264c-160-373-469-1002-685-1396c-255-465-619-1065-646-1065c-6,0-8,30-4,83c46,648,58,2048,24,2664
		l-13,232l43,98c152,342,428,870,596,1138c333,533,787,1060,1096,1272c55,38,179,103,197,103C8156,21050,8175,21036,8192,21018z
		 M17439,20415c14-112,14-382,1-535c-38-439-214-1203-466-2019c-143-462-318-1007-374-1166c-25-68-29-75-29-45c-1,37,22,225,63,525
		c179,1310,403,2366,638,3015c73,201,135,337,147,324C17424,20509,17433,20465,17439,20415z M5770,17123c-1-216-22-1127-30-1283
		c-26-503-42-782-55-955c-24-314-55-684-65-780c-6-49-19-175-30-280c-60-562-153-1108-236-1380c-53-175-139-365-167-365
		c-17,0-79,152-108,266c-53,216-63,334-63,789c-1,304,4,468,17,635c10,124,20,232,22,240s13,100,25,205c23,209,69,530,100,700
		c145,786,326,1506,563,2243C5760,17209,5770,17196,5770,17123z M10008,16891c71-52,125-150,148-269c24-127,13-456-18-515
		c-20-39-176-97-262-97c-195,1-313,251-237,500c34,113,97,226,167,300c51,54,129,109,155,110C9964,16920,9985,16907,10008,16891z
		 M15559,16724c109-55,252-217,331-377l41-82l-31-270c-17-149-35-306-40-350c-8-70-29-314-60-700c-6-66-14-219-19-340l-8-220
		l-91-210c-290-677-566-1210-783-1515c-41-57-116-147-167-199l-92-96l-25,30c-41,49-101,172-143,296c-103,299-157,722-157,1229
		c1,575,74,1037,249,1577c107,327,245,630,384,838c78,118,240,284,324,333c77,46,167,81,204,82C15492,16750,15530,16738,15559,16724
		z M18590,16595c56-120,86-305,75-475c-27-464-212-1093-535-1825c-81-185-342-715-351-715c-30,0-22,814,10,1090
		c38,320,72,513,137,775c149,597,328,1016,516,1208l59,60l30-29C18548,16668,18574,16628,18590,16595z M7756,12617
		c-340-793-791-1412-1258-1725c-101-68-234-132-274-132c-59,0-94,76-94,203c0,171,65,320,249,567c111,150,411,451,641,641
		c272,226,804,641,808,631C7830,12796,7797,12713,7756,12617z M13043,17780c-29-4-67-17-86-29c-94-58-275-299-393-525
		c-51-97-52-98-67-75c-8,13-50,87-92,164c-96,171-126,217-160,239c-64,42-225,39-272-5c-49-47-14-192,103-419
		c92-177,265-390,375-460c36-24,49-38,49-56c0-67,135-106,255-73c54,15,131,96,222,232c123,185,214,378,279,592
		c60,198,65,316,13,371C13232,17775,13140,17793,13043,17780z M11477,10689c-103-11-182-53-293-156c-135-126-175-191-159-264
		c9-40,58-95,108-120c90-46,253-61,378-35c81,18,136,45,191,94c80,72,119,158,119,265c1,111-43,178-131,205
		C11637,10693,11553,10698,11477,10689z M17450,10233c-754-40-998-98-1180-282c-134-135-197-317-259-754c-31-214-39-291-71-667
		c-59-715-74-1723-35-2405c18-319,28-396,60-461c42-86,154-147,316-173c83-14,313-14,437,0c155,16,962,181,1272,260
		c250,63,359,130,305,189c-22,24-103,50-157,50c-37,0-460-64-963-145c-383-62-670-103-677-96c-35,32-52,530-44,1296
		c3,347,9,669,13,718c6,84,7,88,32,93c98,19,332,82,916,246c99,27,208,54,243,58c75,10,112,31,112,64c0,36-51,74-108,81
		c-26,3-58,7-72,9c-82,12-330-34-825-153c-137-34-258-61-267-61c-21,0-22,10-8,199c5,75,17,237,25,361c24,352,67,674,116,872
		c51,207,124,324,233,373c69,32,215,60,431,84c802,91,861,100,914,132c48,29,41,67-19,97c-43,22-50,22-365,20
		C17649,10237,17480,10235,17450,10233z M9431,10065c-310-70-587-279-809-613c-160-240-339-617-437-919c-9-29-21-53-26-53s-9,2-9,5
		s-11,83-25,178c-39,263-81,423-123,471c-52,58-207,76-292,34c-36-18-46-30-53-58c-39-159,45-2072,118-2690c8-69,22-195,30-280
		c9-85,20-186,26-225c5-38,21-153,35-255c13-102,34-234,46-294c27-139,48-166,150-197c100-31,258-24,340,13c84,39,92,56,84,186
		c-4,59-14,170-22,247s-26,253-40,390c-13,138-30,279-36,315c-17,97-12,368,12,604c11,116,22,211,24,213c1,2,19-34,38-80
		c20-45,100-217,178-382s191-410,252-545c159-356,388-800,666-1294c124-220,163-267,241-290c105-31,252-14,316,36
		c55,43,45,72-261,801c-236,562-388,874-709,1462c-138,252-195,360-195,368c0,3,49,32,108,65c153,86,257,166,411,316
		c455,447,716,900,818,1426c22,113,27,164,27,315c1,156-2,192-22,270c-60,238-185,375-407,445C9794,10079,9532,10088,9431,10065z
		 M9657,9788c87-94,135-326,114-553c-43-444-222-867-530-1252c-236-296-443-480-661-588c-41-21-87-46-102-57l-28-19v23
		c0,35,47,308,76,443c106,494,238,894,414,1260c184,380,388,633,610,754C9608,9831,9619,9830,9657,9788z M13303,9970
		c-137-15-225-78-179-129c15-16,16-122,15-1252c0-1100,2-1286,20-1714c28-637,37-773,67-1009c41-321,89-453,203-566
		c82-80,179-130,328-167c98-25,125-27,283-27c143,0,194,5,280,23c273,59,491,177,701,378c384,369,539,835,408,1227
		c-58,174-144,300-321,472c-189,183-365,303-668,457c-96,49-176,92-177,95c-2,4,64,39,145,78c357,174,650,431,878,771
		c81,121,158,278,179,364c75,322-119,620-542,829c-238,117-418,151-913,170C13713,9981,13411,9981,13303,9970z M13815,9724
		c363-29,539-61,661-118c245-116,381-262,415-448c10-57,10-76-4-135c-66-268-376-650-706-873c-115-77-473-252-487-238
		c-3,3-12,124-20,269c-14,269-56,821-74,984c-24,213-68,470-96,568c-5,17-1,18,58,13C13596,9742,13711,9733,13815,9724z M13875,7540
		c298-130,517-257,690-401c277-231,389-454,372-737c-8-127-27-194-92-327c-150-310-500-630-750-686c-64-14-101,2-144,61
		c-87,121-123,315-161,865c-11,165-22,323-25,350c-4,39-55,905-55,937C13710,7611,13721,7607,13875,7540z M6860,9703
		c-47-1-188-7-315-13c-126-6-430-19-675-30c-530-23-517-22-1060-75c-435-42-658-94-688-161c-11-23-9-28,16-54c63-63,67-63,1120-9
		c118,6,215,9,217,7s-2-42-10-88c-22-133-44-464-56-839c-13-410-6-1818,10-1971c6-58,22-283,36-500s32-471,40-565
		c8-93,22-255,30-360c18-214,48-429,67-469c21-47,79-69,193-74s170,7,214,44c28,23,30,29,33,117c7,157-11,1837-22,2122
		c-6,149-17,365-25,480c-8,116-24,399-35,630s-25,485-30,565c-6,80-19,282-30,450s-25,345-31,393c-7,48-10,89-8,92c2,2,78,8,169,14
		s251,18,355,26c105,8,294,22,420,30c236,16,611,51,655,62c45,11,99,43,116,69c16,24,16,27-3,52c-39,53-90,61-368,60
		C7058,9707,6907,9705,6860,9703z M11465,9691c-97-25-112-51-125-223c-28-337-21-1885,10-2388c5-80,14-224,19-320
		c16-251,30-414,51-585c10-82,24-202,30-265c21-213,89-741,115-893c33-190,52-233,120-267c103-51,306-36,370,27l28,28l-7,385
		c-7,418-30,1063-46,1310c-16,241-50,673-55,690c-2,8-13,168-25,355c-11,187-27,432-35,545s-22,322-30,465c-9,143-29,379-45,525
		c-44,398-90,553-174,594C11624,9695,11514,9704,11465,9691z"/>
</g>
</svg>
