<?xml version="1.0" encoding="utf-8"?>
<!-- Generator: Adobe Illustrator 25.2.0, SVG Export Plug-In . SVG Version: 6.00 Build 0)  -->
<svg version="1.1" id="Layer_1" xmlns="http://www.w3.org/2000/svg" xmlns:xlink="http://www.w3.org/1999/xlink" x="0px" y="0px"
	 viewBox="0 0 2200 2200" style="enable-background:new 0 0 2200 2200;" xml:space="preserve">
<g>
	<path d="M2077.35,433.13c-1.62,0-4.33,1.08-5.95,2.16c-31.93,23.82-98.51,58.46-153.72,65.49c-27.61,3.79-50.88,0-67.12-11.91
		s-26.52-33.56-24.9-73.61c0-5.41-4.33-9.74-9.74-9.74c-3.79,0-7.58,2.71-8.66,5.95c-9.2,23.27-18.94,30.85-25.98,32.48
		c-3.25,0.54-7.04,0.54-10.83-1.08c7.58-10.28,9.2-22.73,7.58-33.56c-1.08-7.04-3.79-13.53-8.12-18.4
		c-4.33-4.87-10.83-8.12-17.86-8.12h-0.54c-7.58,0-15.16,2.71-19.49,8.66c-4.33,5.96-4.87,12.45-4.33,18.95
		c0.87,10.43,5.62,21.19,12.48,30.64c-116.3,61.38-284.18,61.38-284.18,61.38h-0.54c-16.78,0-28.69-3.25-36.26-8.12
		c-7.58-4.87-10.83-10.28-11.37-16.24c-0.54-6.5,2.16-14.07,9.2-22.19c19.48,14.61,35.72,20.57,49.8,20.03
		c15.7-0.54,27.61-10.28,31.39-22.19c3.79-11.91,0.54-25.98-10.28-34.1c-5.41-4.33-11.91-6.49-20.03-7.04h-3.25
		c-7.04,0-14.61,1.62-23.27,4.87c-11.02,4.51-20.56,9.96-28.37,15.89c-1.37,0.24-2.83,0.7-3.56,1.43
		c-30.31,20.03-92.56,49.8-146.68,62.79c-27.06,6.49-52.5,9.2-69.82,4.87c-17.32-4.33-27.06-12.45-29.77-31.94
		c-1.08-8.12-2.16-17.32-2.16-26.52c14.61-24.9,40.05-77.94,61.16-129.36c42.22-1.62,81.19-1.08,112.58,7.58
		c0.54,0,2.16,0.54,2.71,0.54c5.41,0,9.74-4.33,9.74-9.74c0-4.33-3.25-8.12-7.04-9.2c-26.52-7.58-56.83-9.74-88.23-9.74
		c-7.58,0-14.62,0.54-22.19,0.54c8.66-22.73,16.24-43.84,20.57-60.62c2.71-10.28,4.33-18.4,4.33-25.44c0-3.79,0-7.04-2.16-10.83
		c-2.17-3.79-7.04-7.04-11.91-7.04c-17.32,0-30.31,12.99-42.22,31.39s-23.27,42.76-32.47,70.91c-0.54,1.63-1.08,3.79-1.63,5.41
		c-24.9,2.17-50.34,3.79-74.69,4.87c-5.41,0-9.2,4.33-9.2,9.74s4.33,9.74,9.74,9.74h0.54c22.19-1.08,44.92-2.71,67.66-4.33
		c-10.26,36.94-16.55,77.25-16.73,115c-1.29,0.25-2.6,0.69-3.28,1.37c-30.31,20.03-92.56,49.8-146.68,62.79
		c-27.06,6.49-52.5,9.2-69.82,4.87c-17.32-4.33-27.06-12.45-29.77-31.94c-1.08-8.12-2.16-17.32-2.16-26.52
		c14.61-24.9,40.05-77.94,61.16-129.36c42.22-1.62,81.19-1.08,112.58,7.58c0.54,0,2.16,0.54,2.71,0.54c5.41,0,9.74-4.33,9.74-9.74
		c0-4.33-3.25-8.12-7.04-9.2c-26.52-7.58-56.83-9.74-88.23-9.74c-7.58,0-14.61,0.54-22.19,0.54c8.66-22.73,16.24-43.84,20.57-60.62
		c2.71-10.28,4.33-18.4,4.33-25.44c0-3.79,0-7.04-2.16-10.83c-2.17-3.79-7.04-7.04-11.91-7.04c-17.32,0-30.31,12.99-42.22,31.39
		s-23.27,42.76-32.47,70.91c-0.54,1.63-1.08,3.79-1.63,5.41c-24.9,2.17-50.34,3.79-74.69,4.87c-5.41,0-9.2,4.33-9.2,9.74
		s4.33,9.74,9.74,9.74h0.54c22.19-1.08,44.92-2.71,67.66-4.33c-10.26,36.95-16.56,77.26-16.73,115.02
		c-1.25,0.35-2.53,0.97-3.28,1.35c-116.37,67.66-295.53,67.66-295.53,67.66h-0.54c-16.78,0-28.69-3.25-36.27-8.12
		c-7.58-4.87-10.82-10.28-11.36-16.24c-0.54-6.5,2.16-14.07,9.2-22.19c19.49,14.61,35.72,20.57,49.8,20.03
		c15.7-0.54,27.61-10.28,31.39-22.19c3.79-11.91,0.54-25.98-10.28-34.1c-5.41-4.33-11.91-6.49-20.03-7.04h-3.25
		c-7.04,0-14.61,1.62-23.27,4.87c-10.95,4.48-20.44,9.9-28.22,15.78c-1.55,0.18-3.39,0.68-4.24,1.54
		c-63.87,41.14-144.52,37.35-217.05,32.48c-4.87-0.54-10.28-0.54-15.16-1.08c1.62-7.04,1.08-14.61-2.16-21.11
		c-5.95-11.91-18.95-20.57-35.73-24.36c-49.8-10.83-80.65,12.99-96.34,38.43c-0.54,1.08-1.63,2.17-2.17,3.25V447.2
		c57.37-70.91,82.82-132.07,90.39-176.99c3.79-22.73,2.71-41.14-1.08-54.67c-2.17-7.04-4.87-12.99-9.2-17.32
		c-4.33-4.33-9.74-7.58-16.24-7.58c-8.12,0-14.61,4.87-20.03,10.83c-5.41,5.95-10.83,14.07-15.7,23.82
		c-9.74,19.48-19.48,46.01-27.61,76.86c-15.7,61.71-25.44,141.27-16.78,212.18c0,0.54,0.54,1.08,0.54,1.62
		c1.08,3.79,4.87,6.49,8.66,6.49c72.53,2.71,115.83-13.53,134.77-37.35c7.58,0.54,15.16,0.54,22.73,1.08
		c62.63,4.21,134.94,8.79,198.82-19.31c-0.89,4.26-1.19,8.55-0.73,12.81c1.08,11.91,8.66,23.82,20.03,30.85
		c11.37,7.04,27.06,11.37,46.55,11.37c0,0,177.06,1.52,300.32-67.3c0.42,6.35,0.92,12.75,1.69,18.59
		c3.79,25.98,21.65,42.22,44.38,47.63c22.73,5.41,50.34,2.71,79.02-4.33c53.78-13.19,111.83-40.65,146.09-61.42
		c0.41,6.2,0.9,12.42,1.66,18.12c3.79,25.98,21.65,42.22,44.38,47.63c22.73,5.41,50.34,2.71,79.02-4.33
		c42.47-10.42,87.58-29.73,121.56-47.62c-0.57,3.6-0.71,7.23-0.33,10.82c1.08,11.91,8.66,23.82,20.03,30.85
		c11.37,7.04,27.06,11.37,46.55,11.37c0,0,175.58,1.51,298.76-66.44c8.87,6.32,19.83,9.83,31.39,7.44
		c8.12-1.62,15.7-6.49,22.73-14.62c4.33,25.44,15.15,44.38,30.85,56.29c21.65,16.78,50.88,18.94,81.19,15.16
		c60.62-8.12,127.2-43.3,162.38-69.28c2.17-1.63,4.33-4.87,4.33-7.58C2087.09,437.46,2082.76,433.13,2077.35,433.13z
		 M1448.42,435.29c6.49-2.71,11.91-3.79,16.24-3.79h1.63c4.33,0,7.58,1.63,9.74,3.25c3.79,3.25,5.41,8.66,3.79,12.99
		c-1.62,4.33-4.87,8.12-13.53,8.66c-7.04,0-18.41-3.25-33.56-13.53C1437.05,440.16,1442.46,437.46,1448.42,435.29z M1214.06,232.86
		c7.58-11.91,16.24-18.94,21.65-21.65c-0.54,4.33-1.63,10.28-3.79,17.86c-4.33,17.32-12.45,40.59-22.73,66.04l-24.36,1.62
		C1193.49,270.75,1203.77,248.56,1214.06,232.86z M1178.33,316.76c7.58-0.54,14.61-0.54,22.19-1.08
		c-12.45,29.77-25.98,60.08-37.89,83.9C1165.34,371.96,1170.76,342.73,1178.33,316.76z M942.9,232.86
		c7.58-11.91,16.24-18.94,21.65-21.65c-0.54,4.33-1.63,10.28-3.79,17.86c-4.33,17.32-12.45,40.59-22.73,66.04l-24.36,1.62
		C922.33,270.75,932.61,248.56,942.9,232.86z M907.17,316.76c7.58-0.54,14.61-0.54,22.19-1.08c-12.45,29.77-25.98,60.08-37.89,83.9
		C894.18,371.96,899.6,342.73,907.17,316.76z M564.03,435.29c6.49-2.71,11.91-3.79,16.24-3.79h1.63c4.33,0,7.58,1.63,9.74,3.25
		c3.79,3.25,5.41,8.66,3.79,12.99c-1.62,4.33-4.87,8.12-13.53,8.66c-7.04,0-18.41-3.25-33.56-13.53
		C552.66,440.16,558.08,437.46,564.03,435.29z M175.42,307.01c7.58-29.77,17.32-55.75,25.98-73.07c4.33-8.66,8.66-15.7,12.45-19.48
		c3.79-3.79,5.95-4.87,5.95-4.87c0.54,0,0.54,0,2.17,1.62c1.62,1.63,3.25,4.87,4.87,9.74c2.71,9.74,3.79,25.44,0.54,46.01
		c-5.95,36.26-25.98,86.6-69.82,146.14C160.8,375.21,167.29,338.95,175.42,307.01z M168.38,503.49
		c10.28-9.74,24.36-15.16,42.76-17.86c9.74-1.62,20.57-2.17,31.93-2.17h3.25h9.2C239.28,493.75,210.6,502.95,168.38,503.49z
		 M273.38,465.06c-23.27-1.08-45.47-1.08-64.95,1.63c-14.61,2.16-28.14,5.95-39.51,12.45c1.62-3.25,3.25-6.49,5.41-9.74
		c10.28-16.78,25.44-31.94,54.13-31.94c6.49,0,14.07,0.54,22.19,2.17c12.99,2.71,19.48,8.66,22.19,14.07
		C274.47,456.94,275.01,460.73,273.38,465.06z M1755.84,429.88c-4.87-7.04-8.12-15.7-8.66-21.11c-0.54-3.25,0-5.41,0.54-5.96
		c0.54-0.54,0.54-1.08,3.79-1.08h0.54c1.08,0,1.62,0.54,3.25,2.17c1.63,1.62,3.25,4.87,3.79,8.66
		C1760.17,417.97,1759.08,424.47,1755.84,429.88z"/>
	<path d="M371.28,730.31c15.17-23.23,32.51-45.04,32.51-78.09c0-30.56-12.61-53.96-37.92-69.7c-20.02-12.44-44.43-18.69-73.14-18.74
		c-2.71,0-9.76-0.03-21.13-0.64c-11.37-0.62-20.59-0.62-28.71-0.63c-70.42-0.09-106.01,12.77-107.27,37.42
		c-0.47,9.32,1.63,16.65,5.42,21.25c7.59,6.99,11.38,10.53,18.97,17.67c0.87,0.5,1.3,0.75,2.17,1.24
		c8.12,15.07,12.73,36.7,12.46,64.11c-0.21,21.87-3.22,48.47-9.75,78.96c-5.37,25.05-11.67,49.97-16.79,74.82
		c-3.38,16.38-11.04,28.8-22.75,36.43c-10.26,6.69-15.71,16.25-15.71,28.17c0,2.71,0,5.97,0.54,9.9
		c2.17,21.2,26.55,41.91,73.68,59.49c14.63,5.22,46.59,14.14,95.35,22.57c119.72,20.68,179.86-28.51,179.86-129.42
		c0-41.22-10.64-76.49-31.42-106.48C411.87,755.9,392.95,739.34,371.28,730.31z M268.35,646.18c0-15.5,4.88-23.12,14.09-22.86
		c15.71,0.43,27.63,19.54,27.63,38.32c0,30.28-9.21,44.89-28.17,43.72c-4.88-0.3-8.36-9.03-10.84-25.09
		C269.32,669.01,268.35,657.49,268.35,646.18z M295.98,865.22c-14.63-1.68-20.04-15.97-18.97-42.5c0.87-17.67,1.3-26.53,2.17-44.27
		c0.54-8.28,5.42-12.01,15.71-11.17c23.3,1.9,34.67,19.62,34.67,54C329.57,853.22,318.19,867.77,295.98,865.22z M779.79,893.57
		c0.78,15.97,1.62,29.9,1.62,40.68c0,48.47-9.21,81.01-27.08,96.25c-7.05,5.74-29.81,9.64-68.81,11.2
		c-10.83,0.43-25.52,0.92-44.42,2.03c-15.67,0.92-30.88,0.58-45.51,0.65c-40.74-0.05-61.11-0.49-101.84-2.51
		c-18.42-0.8-27.63-11.67-27.63-31.09c0-7.89,2.71-14.41,8.12-20.21c9.21-9.88,14.09-15.78,15.17-18.18
		c4.12-7.15,6.18-10.73,10.3-17.92c4.87-8.99,8.12-32.14,9.2-69.8c1.74-63.7,2.6-95.87,4.34-160.89
		c0.54-13.86,1.47-25.99,0.54-36.65c-1.9-21.87-6.5-36.25-13.01-42.05c-3.25-1.94-8.71-5.11-13.54-9.69
		c-4.34-4.11-6.5-12.14-6.5-21.68c0-17.17,9.33-30.45,28.17-38.79c15.68-6.94,34.99-10.57,57.42-10.25
		c8.54,0.12,30.88,2.61,40.09,2.61c12.46,0,32.51-1.28,60.13-3.23c27.63-1.95,47.68-3.25,59.05-3.25c15.71,0,27.81,11.8,36.29,34.87
		c6.57,17.87,9.76,37.14,9.76,58.13c0,13.34-2.06,24.53-6.5,33.09c-5.54,10.68-13.54,16.56-23.84,16.66
		c-9.75,0.09-17.87-4.88-24.92-15.63c-10.28-15.8-17.87-25.37-23.29-29.83c-13.54-10.83-33.05-16.59-59.05-16.63
		c-4.77-0.01-7.15-0.01-11.92-0.02c-3.79,1.93-5.97,7.05-7.59,15.36c-0.54,3.2-1.09,5.76-1.09,8.95c0,14.06,5.97,25.57,17.89,34.46
		c10.25,7.65,22.75,11.44,37.38,11.4c5.95-0.02,15.16-14.01,21.12-14.03c5.42-0.02,8.12,4.41,8.12,13.9
		c0,14.55-1.56,29.17-4.87,42.29c-4.74,18.82-11.38,28.33-20.59,28.4c-5.95,0.04-11.69-5.05-16.79-15.61
		c-4.99-10.34-12.47-15.7-22.75-15.71c-11.38-0.01-17.34,11.36-17.34,33.32c0,52.09,26,78.21,78.55,77.26
		c4.33-0.08,16.25-4.63,21.13-2.89c2.71,0.55,4.87,0.5,6.49,0.46c9.21-0.22,16.26-5.31,22.22-15.28
		c5.97-9.99,10.83-15.04,14.63-15.14c10.83-0.28,20.04,19.63,20.04,33.61C778.7,866.44,778.98,877.04,779.79,893.57z
		 M1280.41,627.48c0,0-1.62,0.55-5.42,2.18c3.04,24.71,4.55,37.08,7.59,61.86c1.08,7.2,1.62,10.81,2.71,18.01
		c4.33,28.73,8.78,56.61,14.63,83.68c6.57,30.42,11.37,49.41,16.79,54.14c8.68,8.76,22.75,17.14,22.75,27.65
		c0,27.51-7.68,45.41-22.75,54.62c-11.35,6.94-42.26,14.89-92.63,24.2c-40.09,7.41-67.19,8.91-80.73,3.43
		c-13.54-5.49-20.04-19.91-20.04-43.02c0-5.37,3.5-11.87,10.3-19.46c8.14-9.09,13.01-14.94,14.08-17.77
		c5.42-10.99,11.81-38.24,18.97-79.53c6.89-39.75,12.24-75.01,14.63-105.57c0.61-7.75,1.62-26.6,2.16-56.05
		c-5.42-1.82-8.12-2.72-8.12-2.72c-4.88,0.22-8.9,4.64-12.45,13.1c-5.02,11.95-9.76,20.5-13.54,24.45
		c-8.13,8.97-20.59,14.15-36.31,15.3c-13.54,0.99-22.09-3.03-26-11.18c-1.53-3.2-2.61-8.36-3.21-15.51
		c-3.81,19.57-14.74,29.91-33.11,31.25c-13.01,0.95-23.99-7.23-31.96-24.24c-8.18-17.47-16.8-26.42-24.93-26.06
		c0,0-1.62,0.64-5.42,2.53c3.04,29.11,4.55,43.56,7.59,72.29c1.08,8.35,1.62,12.52,2.71,20.83c4.33,33.15,8.78,64.94,14.63,95.5
		c6.58,34.35,11.37,55.38,16.79,60.64c8.67,9.74,22.75,18.97,22.75,30.53c0,30.27-7.69,49.76-22.75,59.8
		c-11.35,7.57-42.26,16.39-92.63,25.46c-40.09,7.22-67.19,7.77-80.73,1.31c-13.54-6.46-20.04-22.33-20.04-47.54
		c0-5.86,3.52-12.83,10.3-20.88c8.15-9.67,13.01-15.94,14.08-19.02c5.42-11.92,11.81-41.67,18.97-87.85
		c6.89-44.45,12.24-84.51,14.63-119.69c0.61-8.92,1.62-30.57,2.16-64.93c-5.42-2.18-8.13-3.26-8.13-3.26
		c-4.88,0.21-8.9,5.32-12.45,15.1c-5.04,13.87-9.76,23.61-13.54,28.09c-8.13,10.21-20.59,15.92-36.31,16.92
		c-13.54,0.86-22.07-3.87-26-13.31c-2.5-6.02-3.79-17.91-3.79-36.15c0-18.87,5.09-38.76,14.63-59.69
		c10.92-23.96,23.29-36.13,37.38-36.13c4.88,0,12.46,1.87,22.75,4.93c10.3,3.06,17.89,4.23,22.75,4.21
		c60.68-0.31,101.31-1.7,121.9-3.49c3.78-0.59,11.37-6.28,16.25-6.28c15.16,0,28.14,10.24,39,30.33
		c6.9,12.77,11.41,25.76,13.21,38.66c2.03-12.1,6.53-24.62,13.37-37.52c10.91-20.6,23.29-30.93,37.38-30.93
		c4.88,0,12.46,1.59,22.75,4.16c10.3,2.58,17.89,3.56,22.75,3.54c60.68-0.33,101.31-1.52,121.9-3.01c3.78-0.5,11.37-5.23,16.25-5.23
		c15.16,0,28.15,8.48,39,25.24c9.13,14.1,14.09,28.61,14.09,42.95c0,26.36-11.38,40.25-34.67,41.78
		c-13.01,0.86-23.99-6.12-31.96-20.59C1297.17,634.69,1288.54,627.13,1280.41,627.48z M1681.88,834.03
		c0,38.05-9.21,63.01-27.08,74.15c-7.05,4.18-29.81,5.56-68.81,6.05c-10.83,0.14-25.51,0.34-44.42,1.45
		c-15.68,0.92-30.88,1.07-45.51,1.75c-40.74,1.7-61.11,2.55-101.86,8.65c-18.41,2.85-27.62-4.22-27.62-20.24
		c0-6.5,2.71-12.41,8.13-18.19c9.21-9.83,14.08-15.44,15.16-17.57c4.12-6.5,6.18-9.74,10.3-16.17c4.87-8,8.13-27.04,9.21-56.44
		c1.73-49.73,2.6-74.07,4.33-121.63c0.54-10.15,1.46-19.02,0.54-26.58c-1.89-15.51-6.5-25.57-12.99-29.42
		c-3.26-1.24-8.55-3.12-13.56-6.35c-4.18-2.7-6.49-8.48-6.49-15.32c0-12.3,9.29-21.92,28.17-27.85c15.68-4.92,34.88-7.35,57.42-7.14
		c8.58,0.08,30.88,1.74,40.09,1.74c12.45,0,32.5-0.87,60.13-2.17c27.63-1.31,47.68-2.17,59.05-2.17c15.71,0,27.81,7.89,36.29,23.77
		c6.54,12.25,9.76,25.73,9.76,40.48c0,9.37-2.12,17.3-6.5,23.21c-5.56,7.5-13.54,11.5-23.84,11.39
		c-9.75-0.11-17.87-3.77-24.93-11.42c-10.28-11.25-17.87-17.94-23.29-21.07c-13.54-7.6-33.05-11.62-59.05-11.61
		c-4.77,0-7.15,0-11.92,0.01c-3.79,1.34-5.97,4.88-7.59,10.65c-0.54,2.22-1.09,4.01-1.09,6.23c0,9.79,5.97,17.85,17.89,24.08
		c10.26,5.37,22.75,8.03,37.38,8.06c5.95,0.01,15.16-9.83,21.12-9.8c5.42,0.02,8.14,3.17,8.14,9.9c0,10.32-1.59,20.8-4.88,30.19
		c-4.74,13.51-11.38,20.41-20.59,20.4c-5.95,0-11.68-3.72-16.79-11.39c-4.94-7.41-12.47-11.33-22.75-11.29
		c-11.38,0.05-17.34,8.25-17.34,24.28c0,38.02,26,57.11,78.55,57.26c4.33,0.01,16.25-3.16,21.12-1.73c2.72,0.48,4.88,0.5,6.5,0.52
		c9.21,0.1,16.26-3.5,22.22-10.78c5.95-7.29,10.83-10.87,14.63-10.8c10.83,0.22,20.04,16.14,20.04,26.8
		c0,3.25,0.28,11.37,1.09,24.21C1681.03,814.49,1681.88,825.57,1681.88,834.03z M2080.64,938.31c-8.6-11.51-13.54-17.51-14.09-19.25
		c-12.45-23.96-21.49-50.95-27.63-80.62c-4.15-20.08-9.92-36.79-16.25-49.12c-7.1-13.84-18.42-27.46-33.05-40.83
		c-0.54-0.06-9.2-4.73-27.08-14.03c-11.92-6.2-19.49-14.29-23.29-24.95c36.83-15.18,55.25-39.67,55.25-71.55
		c0-25.81-14.15-45.52-42.26-59.14c-22.73-11.01-49.3-16.29-79.09-16.32c-8.13-0.01-28.71,0.45-60.67,1.77
		c-9.1-0.38-13.65-0.57-22.75-0.94c-23.3-0.94-42.35,2.37-57.44,7.09c-18.76,5.85-28.17,15-28.17,27.05c0,6.69,2.3,12.42,6.5,15.27
		c5.03,3.41,10.3,5.52,13.54,6.91c8.68,5.99,15.75,26.84,14.63,55.66c-1.05,26.73-8.23,58.97-14.63,91.16
		c-7.12,35.82-13.54,58.26-18.41,67c-1.64,2.29-5.97,6.33-14.09,13.11c-6.5,5.43-9.91,10.67-10.3,15.24
		c-1.7,20.05,4.97,35.02,18.42,42.43c13.25,7.3,41.17,11.63,82.35,15.13c50.39,4.28,81.29,6.45,92.63,3.13
		c14.61-4.27,22.22-19.42,22.22-46.4c0-10.31-13.52-22.57-22.22-33.08c-8.45-10.21-15.7-39.13-23.29-85.04
		c-1.62-8.24,2.76-13.13,13.01-14.76c5.93-0.95,11.37,0.41,15.7,4.15c13.01,11.19,22.45,35.06,27.63,70.82
		c6.17,42.59,12.46,71.62,19.51,86.21c14.08,29.69,40.09,48.14,77.47,57.07c8.66,2.07,19.02,3.65,31.41,4.74
		c14.55,1.28,25.46,3.19,31.96,4.52c5.2-1.72,7.8-2.58,13.01-4.29c5.97-2.03,9.21-4.32,9.21-8.11
		C2090.38,953.46,2087.15,947.02,2080.64,938.31z M1875.85,674.76c-6.52,8.61-15.16,12.95-26,12.38c-5.97-0.31-9.21-4.71-9.76-12.73
		c-1.73-19.45-2.6-29.12-4.33-48.37c-1.62-7.97,8.12-14.73,17.34-14.52c21.13,0.48,31.43,12.62,31.43,35.99
		C1884.52,657.53,1881.73,666.98,1875.85,674.76z"/>
	<path d="M308.46,1094.41c6.5,14.07,10.01,28.07,10.01,41.01c0,23.82-8.09,34.12-24.65,30.79c-9.25-1.86-17.05-10.2-22.72-24.19
		c-5.82-14.35-11.94-22.4-17.72-23.71c0,0-1.15,0.16-3.85,0.77c2.16,21.34,3.24,32.02,5.39,53.36c0.77,6.25,1.16,9.38,1.93,15.64
		c3.08,24.93,6.23,49.1,10.4,73.04c4.68,26.88,8.09,43.8,11.94,49.25c6.16,9.72,16.18,20.72,16.18,29.32
		c0,22.55-5.46,31.79-16.18,33.83c-8.05,1.54-30.04-1.8-65.86-13.54c-28.5-9.35-47.76-19.65-57.39-29.2
		c-9.63-9.55-14.25-22.32-14.25-39.14c0-3.91,2.54-7.13,7.31-9.81c5.7-3.21,9.25-5.67,10.01-7.34c3.85-5.95,8.39-23.61,13.48-52.28
		c4.89-27.51,8.7-53,10.4-75.78c0.43-5.82,1.15-20.02,1.54-42.73c-3.85-2.72-5.78-4.11-5.78-4.11c-3.47-1.03-6.36,1.43-8.86,6.89
		c-3.57,7.78-6.93,12.89-9.62,14.77c-5.78,4.44-14.64,4.59-25.81,0.57c-9.62-3.47-15.71-9.13-18.49-16.14
		c-1.8-4.52-2.69-12.2-2.69-23.39c0-11.58,3.63-22.29,10.4-32.77c7.75-12,16.56-16.92,26.58-13.96c3.47,1.03,8.86,3.79,16.18,7.86
		c7.31,4.06,12.71,6.33,16.18,7.27c43.14,11.66,72.02,16.53,86.66,18.17c2.69,0.13,8.09-2.98,11.55-2.34
		C291.51,1068.54,300.73,1077.68,308.46,1094.41z M534.16,1163.1c17.21,39.61,25.81,84.36,25.81,135.2
		c0,34.72-12.35,65.93-36.6,86.02c-22.86,18.94-50.83,27.6-83.57,24.93c-36.59-2.98-66.02-16.8-87.82-51.47
		c-19.68-31.3-29.66-67.79-29.66-108.42c0-44.78,10-82.05,30.04-113.18c23.04-35.79,54.31-52.28,93.6-49.44
		C484.08,1089.49,513.3,1115.08,534.16,1163.1z M475.61,1241.98c0-18.46-3.85-39.29-11.17-62.16c-9.25-28.92-20.8-43.79-34.28-44.94
		c-8.09-0.69-14.12,5.37-18.49,17.8c-3.26,9.28-5,19.77-5,31.15c0,18.98,2.76,37.39,8.47,54.31c7.74,22.92,18.87,34.98,33.89,36.09
		C466.76,1275.55,475.61,1264.65,475.61,1241.98z M791.43,1191.91c-8.08,1.38-20.8,4.67-20.42,4.61
		c-28.88,4.71-43.13,10.09-43.13,21.4c0,4.05,2.69,7.83,7.71,11.34c5.01,3.51,7.7,6.43,7.7,8.82c0,7.62-5.4,11.83-15.8,12.92
		c-18.48,1.93-33.89-0.31-45.82-7.11c-15.02-8.58-22.35-22.54-22.35-41.53c0-12.81,4.24-25.89,12.32-38.8
		c8.86-14.19,18.87-21.41,30.82-22.2c10.4-0.68,18.1,2.48,23.1,9.08c3.85,7.92,5.78,11.85,9.63,19.68
		c4.62,6.54,11.95,9.53,22.35,8.51c12.7-1.24,21.17-8.32,25.42-20.34c2.3-7.26,3.46-18.78,3.46-35.09c0-9.37-1.5-17.79-4.62-25.02
		c-4.12-9.55-10.4-13.48-18.48-12.86c-5.01,0.38-18.1,8.79-23.11,9.14s-12.39-0.34-22.72-2.67c-9.97-2.24-17.71-3.16-23.11-2.88
		c-36.58,1.89-66.6,20.99-90.5,57.57c-21.46,32.84-32.35,69.47-32.35,109.76c0,39.88,10.07,74.8,30.04,103.73
		c22.36,32.39,51.23,43.9,86.27,40.19c23.49-2.48,41.59-7.82,54.31-16.02c5.78-3.83,20.03-16.05,41.99-37.11
		c1.14-1.35,5.39-3.23,12.32-5.6c6.92-2.37,12.33-6.04,15.79-10.16c1.54-1.82,2.32-5.46,2.32-10.51c0-11.66-2.71-32.55-8.47-62.68
		c-1.55-8.4-0.39-17.3,3.07-27.05c3.7-5.74,5.55-8.62,9.25-14.38c3.84-5.86,5.71-11.44,5.39-17.3
		C823.32,1190.78,812.62,1188.29,791.43,1191.91z M1049.49,1219.98c0-8.91-6.55-20.55-14.25-18.77c-2.69,0.62-6.17,4.53-10.4,11.72
		c-4.24,7.2-9.24,11.47-15.79,12.98c-1.16,0.27-2.71,0.62-4.63,0.67c-3.46-0.37-11.93,4.29-15.02,4.99
		c-37.35,8.51-55.85-3.91-55.85-36.57c0-13.78,4.24-21.77,12.32-23.49c7.33-1.56,12.65,0.68,16.18,6.36
		c3.59,5.78,7.71,8.12,11.95,7.18c6.55-1.44,11.25-8.39,14.63-20.84c2.35-8.68,3.48-18,3.48-27.03c0-5.89-1.93-8.22-5.78-7.39
		c-4.24,0.91-10.79,10.96-15.03,11.87c-10.4,2.22-19.27,1.73-26.58-1.5c-8.46-3.74-12.7-10.06-12.7-18.8c0-1.99,0.38-3.65,0.77-5.72
		c1.16-5.41,2.69-8.9,5.39-10.63c3.39-0.68,5.08-1.02,8.47-1.71c18.49-3.75,32.35-3.07,41.99,1.6c3.85,1.94,9.24,6.71,16.57,14.93
		c5,5.58,10.78,7.45,17.71,5.93c7.31-1.6,12.97-6.39,16.94-13.85c3.15-5.92,4.62-13.07,4.62-21.26c0-12.85-2.26-24.17-6.92-34.04
		c-6.02-12.73-14.64-18.16-25.81-15.92c-8.1,1.62-22.35,5.27-41.99,10.3c-19.64,5.05-33.89,8.58-42.75,10.27
		c-6.55,1.25-22.39,2.7-28.5,3.75c-15.95,2.75-29.66,7.48-40.83,13.88c-13.42,7.69-20.03,17.37-20.03,28.32
		c0,6.08,1.67,10.97,4.63,12.94c3.41,2.26,7.31,3.52,9.62,4.31c4.62,2.78,7.9,11.23,9.25,24.8c0.65,6.57,0,14.41-0.39,23.26
		c-1.23,41.43-1.85,61.96-3.09,102.62c-0.77,24.04-3.07,39.23-6.55,45.73c-2.93,5.23-4.39,7.85-7.31,13.06
		c-0.77,1.69-4.24,6.26-10.79,14.02c-3.85,4.56-5.78,9.14-5.78,14.12c0,12.24,6.55,17.5,19.65,14.95
		c28.96-5.49,43.44-8.44,72.4-14.56c10.4-2.25,21.22-4.29,32.35-7.14c13.43-3.43,23.88-5.78,31.59-7.55
		c27.73-6.38,43.91-11.78,48.91-16.41c12.72-12.21,19.26-34.14,19.26-65.43c0-6.94-0.6-15.84-1.16-26
		C1049.68,1229.44,1049.49,1222.69,1049.49,1219.98z M1220.11,1068.4c5.66,10.41,13.48,14.82,22.72,12.87
		c16.57-3.5,24.65-15.67,24.65-36.91c0-11.54-3.52-22.75-10.01-32.98c-7.72-12.16-16.95-17.13-27.73-15.02
		c-3.46,0.68-8.85,5.47-11.56,6.38c-14.63,4.02-43.52,10.56-86.65,19.39c-3.48,0.71-8.86,1.05-16.18,0.63
		c-7.31-0.42-12.72-0.48-16.18,0.22c-10.01,2.04-18.82,11.33-26.58,27.51c-6.81,14.2-10.4,27.03-10.4,38.67
		c0,11.25,0.93,18.52,2.69,21.9c2.78,5.35,8.86,7.34,18.49,5.2c11.17-2.49,20.02-7.55,25.79-14.99c2.71-3.29,6.07-10.04,9.63-19.39
		c2.54-6.66,5.4-10.39,8.86-11.13c0,0,1.93,0.36,5.78,1.06c-0.39,21.89-1.11,35.9-1.55,41.68c-1.72,22.86-5.5,49.21-10.4,78.74
		c-5.08,30.65-9.62,50.74-13.47,58.97c-0.78,2.11-4.22,6.62-10.02,13.59c-4.84,5.81-7.31,10.61-7.31,14.47
		c0,16.57,4.62,26.62,14.25,30.08c9.63,3.47,28.88,1.53,57.38-5.22c35.83-8.49,57.78-15.49,65.87-21.17
		c10.71-7.52,16.18-21.62,16.18-42.69c0-8.04-10.02-13.81-16.18-20.05c-3.85-3.32-7.26-17.51-11.95-40.39
		c-4.16-20.32-7.31-41.33-10.4-63.01c-0.77-5.44-1.16-8.16-1.93-13.59c-2.16-18.76-3.23-28.13-5.39-46.84
		c2.69-1.7,3.85-2.33,3.85-2.33C1208.17,1052.83,1214.29,1057.7,1220.11,1068.4z M1542.87,1166.67
		c-15.02-45.43-22.35-84.12-22.35-116.09c0-16.15,1.93-29.12,6.17-39.29c2.3-5.81,6.15-12.1,11.56-18.28
		c4.18-4.78,6.16-8.71,6.16-11.88c0-16.47-21.17-23.92-63.16-21.35c-13.87,0.85-25.92,3.41-36.21,7.45
		c-14.19,5.57-21.19,14.34-21.19,24.83c0,6.87,3.56,11.54,10.4,14.57c7.3,3.24,10.79,10.25,10.79,21.54c0,8-3.85,13.48-11.17,16.06
		c-2.69,1-9.63,2.42-21.57,4.42c-12.32,2.07-20.42,2.75-23.88,2.27c-7.33-1.29-11.17-6.88-11.17-16.42c0-6.97,3.46-14.56,10.4-21.95
		c6.92-7.39,10.4-13.76,10.4-18.85c0-17.03-21.19-21.99-63.17-14.51c-14.25,2.54-26.22,6.54-36.21,11.73
		c-14.23,7.39-21.56,16.62-21.56,27.38c0,6.66,2.32,10.66,6.55,12.43c6.94,2.71,10.79,4.54,11.95,5.43
		c4.23,4.73,6.16,13.61,5.78,26.71c-0.16,5.68-0.23,8.53-0.39,14.22c-0.77,0.15-3.06,18.09-6.94,54.28
		c-4.2,39.27-10.01,66.49-16.94,80.59c-0.77,2.08-4.4,6.28-10.4,13.37c-4.63,5.47-6.94,10.33-6.94,14.16
		c0,19.16,7.71,29.96,22.72,32.54c8.1,1.36,24.65-0.68,48.92-5.58c3.85-0.78,9.26-1.85,16.18-2.83c7.3-1.04,12.33-2.02,15.41-2.61
		c16.55-3.16,28.5-8.05,35.82-14.37c9.6-8.31,14.63-21.96,14.63-40.38c0-4.21-2.87-9.12-8.47-13.86
		c-6.53-5.52-10.19-10.54-11.17-13.65c-1.29-4.12-1.93-17.95-1.93-40.91c0-15.82,0.77-25.66,2.32-29.29
		c2.69-8.34,10.78-13.5,23.49-15.65c12.33-2.08,15.02,2.45,15.02,14.41c0,8.58,1.16,21.55,3.08,38.28
		c1.93,16.72,3.09,29.48,3.09,38.25c0,3.04-3.08,8.2-9.63,15.22c-6.36,6.81-9.63,13.1-9.63,18.49c0,15.43,8.08,23.7,24.65,25.23
		c5.01,0.44,19.26-1.25,43.52-4.17c51.23-6.15,76.64-17.62,76.64-37.73C1564.44,1190.82,1557.12,1180.15,1542.87,1166.67z
		 M1795.53,1147.38c-0.58-9.84-0.77-16.01-0.77-18.48c0-8.13-6.55-20.84-14.25-21.61c-2.69-0.27-6.16,2.21-10.4,7.46
		c-4.24,5.26-9.24,7.65-15.79,7.15c-1.16-0.09-2.71-0.21-4.62-0.71c-3.48-1.32-11.95,0.59-15.03,0.4
		c-37.35-2.25-55.85-17.06-55.85-46.23c0-12.31,4.24-18.51,12.33-18.26c7.33,0.23,12.66,3.45,16.18,9.33
		c3.62,6.05,7.7,9.08,11.95,9.29c6.55,0.33,11.26-4.71,14.63-14.92c2.35-7.13,3.46-15.13,3.46-23.14c0-5.22-1.91-7.77-5.76-8
		c-4.24-0.25-10.79,7.03-15.03,6.83c-10.4-0.51-19.27-2.93-26.58-7.34c-8.47-5.11-12.7-11.49-12.7-19.12c0-1.73,0.38-3.11,0.77-4.83
		c1.16-4.48,2.69-7.21,5.39-8.16c3.39,0.1,5.08,0.15,8.47,0.27c18.49,0.64,32.35,4.52,41.99,10.99c3.85,2.66,9.24,8.19,16.57,17.4
		c5,6.27,10.78,9.5,17.71,10.1c7.31,0.63,13.01-2.03,16.94-7.48c3.12-4.33,4.62-10.31,4.62-17.6c0-11.44-2.26-22.17-6.92-32.15
		c-6.03-12.94-14.64-19.9-25.81-20.73c-8.1-0.6-22.35-0.92-41.99-0.87c-19.64,0.07-33.89,0.36-42.75,0.14
		c-6.55-0.16-22.4-1.74-28.5-1.86c-16.01-0.33-29.68,1.66-40.83,5.54c-13.43,4.67-20.03,12.12-20.03,21.53
		c0,5.23,1.64,9.63,4.63,11.75c3.52,2.48,7.31,4.03,9.62,5.03c4.63,3.05,7.91,10.89,9.26,22.92c0.65,5.86,0,12.63-0.39,20.39
		c-1.23,36.39-1.85,54.79-3.08,92.02c-0.77,22-3.07,35.93-6.55,41.58c-2.93,4.53-4.39,6.81-7.31,11.38
		c-0.77,1.51-4.24,5.09-10.79,12.41c-3.85,4.31-5.78,8.9-5.78,14.15c0,12.92,6.55,19.33,19.65,18.62
		c28.96-1.42,43.44-1.78,72.4-1.64c10.4-0.01,21.23,0.49,32.35,0.4c13.43-0.11,23.88,0.42,31.59,0.83
		c27.73,1.46,43.91,1.51,48.91-1.74c12.72-8.72,19.26-30.01,19.26-58.79C1796.68,1165.24,1796.08,1156.8,1795.53,1147.38z
		 M2087.08,1303.97c0,2.7-2.32,3.93-6.55,4.71c-3.7,0.65-5.54,0.99-9.24,1.7c-4.62-1.63-12.4-4.16-22.72-6.47
		c-8.82-1.97-16.18-4.06-22.35-6.38c-26.58-10-45.06-26.55-55.08-51.92c-5-12.48-9.48-34.43-13.86-66.74
		c-3.69-27.18-10.4-46.08-19.64-55.95c-3.08-3.29-6.96-4.92-11.18-4.86c-7.28,0.1-10.4,3.33-9.24,9.69
		c5.39,35.33,10.55,57.6,16.57,66.08c6.18,8.71,15.79,19.24,15.79,26.88c0,20.03-5.41,33.05-15.79,35.56
		c-8.06,1.95-30.05-1.99-65.87-8.78c-29.27-5.55-49.12-10.93-58.54-18.02c-9.6-7.23-14.27-21.78-13.09-36.89
		c0.27-3.43,2.69-7.17,7.31-10.87c5.78-4.63,8.86-7.42,10.01-9.04c3.48-6.29,8.04-22.8,13.11-49.59c4.55-24.03,9.65-48.22,10.4-68.6
		c0.82-22.3-4.24-38.75-10.4-44.05c-2.32-1.34-6.07-3.4-9.63-6.41c-3.05-2.58-4.62-7.14-4.62-12.34c0-9.36,6.69-15.85,20.03-18.77
		c10.7-2.34,24.26-3.13,40.81,0.11c6.47,1.27,9.71,1.92,16.18,3.27c22.72,2.7,37.37,5.28,43.15,6.42
		c21.19,4.2,40.07,12.42,56.24,24.44c19.97,14.84,30.04,31.94,30.04,50.84c0,23.35-13.09,38-39.29,44.14
		c2.71,8.42,8.1,15.44,16.57,21.71c12.7,9.4,18.87,14.12,19.26,14.25c10.4,11.97,18.44,23.6,23.49,34.7
		c4.52,9.92,8.6,22.83,11.56,37.94c4.36,22.27,10.77,42.98,19.64,61.86c0.38,1.32,3.9,6.37,10.01,15.79
		C2084.77,1295.52,2087.08,1300.5,2087.08,1303.97z M1940.72,1048.45c0-17.59-7.31-28.21-22.33-31.2
		c-6.55-1.3-13.48,2.71-12.33,8.96c1.23,14.85,1.85,22.3,3.08,37.22c0.38,6.13,2.69,9.83,6.92,10.73c7.71,1.65,13.87-0.6,18.49-6.3
		C1938.72,1062.74,1940.72,1055.99,1940.72,1048.45z"/>
	<path d="M308.47,1448.05c6.5,12.38,10.01,24.4,10.01,35.39c0,20.22-8.09,28.75-24.65,25.41c-9.25-1.87-17.04-9.28-22.72-21.67
		c-5.82-12.69-11.94-20.07-17.72-21.52c0,0-1.15,0.08-3.85,0.48c2.16,18.91,3.24,28.33,5.39,47.11c0.77,5.51,1.16,8.25,1.93,13.74
		c3.08,21.89,6.24,43,10.4,63.73c4.67,23.28,8.09,37.77,11.94,42.32c6.16,8.14,16.18,17.13,16.18,24.5
		c0,19.31-5.46,30.03-16.18,33.01c-8.06,2.24-30.04,0.91-65.86-5.88c-28.5-5.4-47.76-12.32-57.39-20.16
		c-9.63-7.84-14.25-19.97-14.25-36.21c0-3.78,2.52-7.27,7.31-10.5c5.73-3.87,9.25-6.58,10.01-8.25c3.85-6.09,8.39-23.28,13.48-50.38
		c4.89-26.02,8.7-49.7,10.4-70.78c0.43-5.38,1.15-18.53,1.54-39.54c-3.85-2.72-5.78-4.12-5.78-4.12c-3.47-1.14-6.36,0.99-8.86,6
		c-3.56,7.13-6.93,11.86-9.62,13.58c-5.78,4.05-14.64,4.08-25.81,0.04c-9.62-3.48-15.71-9.1-18.49-16.09
		c-1.8-4.51-2.69-12.19-2.69-23.33c0-11.53,3.64-22.06,10.4-31.8c7.74-11.16,16.56-14.92,26.58-11.03
		c3.47,1.35,8.86,4.56,16.18,9.12c7.31,4.56,12.71,7.17,16.18,8.38c43.14,14.93,72.02,21.31,86.66,23.85
		c2.69,0.32,8.09-1.97,11.55-1.15C291.52,1424.83,300.74,1433.35,308.47,1448.05z M534.17,1510.54
		c17.21,32.82,25.81,70.16,25.81,112.35c0,28.82-12.36,52.76-36.61,71.01c-22.87,17.22-50.83,25.12-83.57,23
		c-36.59-2.37-66.01-17.65-87.82-46.08c-19.66-25.64-29.66-56.36-29.66-90.75c0-37.9,10.01-69.34,30.04-94.73
		c23.04-29.2,54.31-41.4,93.6-38.38C484.09,1449.9,513.32,1470.78,534.17,1510.54z M475.62,1575.26c0-15.18-3.85-32.36-11.17-51.27
		c-9.25-23.92-20.8-36.34-34.28-37.55c-8.09-0.73-14.14,4.19-18.49,14.33c-3.26,7.6-5,16.25-5,25.67c0,15.7,2.76,30.97,8.47,44.99
		c7.73,18.99,18.87,29,33.89,30.07C466.76,1602.74,475.62,1593.91,475.62,1575.26z M791.45,1533.1c-8.08,1.36-20.8,4.52-20.42,4.46
		c-28.88,4.65-43.13,9.08-43.13,19.14c0,3.6,2.69,6.98,7.7,10.18c5.01,3.2,7.71,5.86,7.71,8.01c0,6.83-5.4,10.47-15.8,11.21
		c-18.48,1.3-33.89-0.99-45.82-7.07c-15.02-7.66-22.35-19.66-22.35-36c0-11.02,4.24-22.29,12.32-33.62
		c8.86-12.45,18.87-19.05,30.82-20.09c10.4-0.9,18.1,1.65,23.1,7.39c3.85,6.94,5.78,10.41,9.63,17.34
		c4.62,5.77,11.95,8.39,22.35,7.35c12.7-1.27,21.17-7.85,25.42-18.9c2.3-6.67,3.46-17.23,3.46-32.15c0-8.57-1.51-16.25-4.62-22.78
		c-4.12-8.63-10.4-12.11-18.48-11.07c-5.01,0.65-18.1,9-23.11,9.58c-5.01,0.59-12.38,0.35-22.72-1.17
		c-9.97-1.46-17.71-1.86-23.11-1.34c-36.58,3.52-66.61,21.2-90.5,52.46c-21.47,28.08-32.35,58.5-32.35,92.07
		c0,33.24,10.06,62.37,30.04,87.42c22.35,28.04,51.23,41.95,86.27,40.93c23.49-0.68,41.59-4.15,54.31-10.59
		c5.78-3.02,20.03-12.32,41.99-31.26c1.14-1.22,5.39-2.88,12.33-4.97c6.92-2.08,12.32-5.36,15.79-9.08
		c1.54-1.65,2.32-4.97,2.32-9.59c0-10.68-2.71-29.85-8.47-57.42c-1.55-7.69-0.39-15.83,3.07-24.78c3.7-5.28,5.55-7.93,9.25-13.24
		c3.84-5.4,5.71-10.56,5.39-15.94C823.33,1531.7,812.63,1529.54,791.45,1533.1z M1049.5,1560.79c0-8.75-6.55-20.33-14.25-18.74
		c-2.69,0.55-6.17,4.31-10.4,11.21c-4.24,6.92-9.24,10.94-15.79,12.25c-1.16,0.23-2.71,0.54-4.63,0.54
		c-3.46-0.44-11.93,3.87-15.02,4.48c-37.35,7.38-55.85-4.63-55.85-35.51c0-13.03,4.24-20.6,12.32-22.27
		c7.33-1.51,12.66,0.61,16.18,6.02c3.59,5.52,7.7,7.77,11.95,6.89c6.55-1.35,11.26-7.99,14.63-19.97
		c2.35-8.35,3.48-17.34,3.48-26.03c0-5.67-1.93-7.9-5.78-7.06c-4.24,0.92-10.79,10.63-15.03,11.54c-10.4,2.22-19.27,1.84-26.58-1.13
		c-8.46-3.44-12.7-9.34-12.7-17.6c0-1.88,0.38-3.46,0.77-5.42c1.16-5.14,2.69-8.48,5.39-10.18c3.39-0.72,5.08-1.09,8.47-1.82
		c18.49-3.99,32.35-3.66,41.99,0.65c3.85,1.8,9.24,6.29,16.57,14.16c5,5.34,10.78,7.12,17.71,5.59c7.31-1.61,12.97-6.32,16.94-13.67
		c3.15-5.82,4.62-12.86,4.62-20.89c0-12.6-2.26-23.67-6.92-33.19c-6.01-12.28-14.64-17.24-25.81-14.67
		c-8.1,1.87-22.35,5.93-41.99,11.47c-19.64,5.55-33.89,9.41-42.75,11.32c-6.55,1.41-22.39,3.34-28.5,4.55
		c-15.96,3.15-29.66,8.03-40.83,14.32c-13.42,7.57-20.03,16.68-20.03,26.79c0,5.62,1.7,10.1,4.63,11.83
		c3.45,2.04,7.31,3.09,9.62,3.77c4.62,2.47,7.91,10.25,9.25,22.8c0.65,6.08,0,13.37-0.39,21.58c-1.23,38.43-1.85,57.44-3.08,95.05
		c-0.77,22.23-3.07,36.23-6.55,42.17c-2.93,4.77-4.39,7.15-7.31,11.9c-0.77,1.54-4.24,5.67-10.79,12.69
		c-3.85,4.14-5.78,8.32-5.78,12.91c0,11.3,6.55,16.34,19.65,14.42c28.96-4.1,43.44-6.26,72.4-10.67c10.4-1.64,21.22-3.03,32.35-5.16
		c13.43-2.57,23.88-4.23,31.59-5.5c27.73-4.56,43.91-8.79,48.91-13.01c12.72-11.18,19.26-32.43,19.26-63.19
		c0-6.83-0.6-15.6-1.16-25.6C1049.69,1570.08,1049.5,1563.45,1049.5,1560.79z M1220.12,1410.1c5.66,10.86,13.48,15.57,22.72,13.61
		c16.57-3.51,24.65-16.28,24.65-38.76c0-12.21-3.52-24.08-10.01-34.8c-7.72-12.76-16.94-17.78-27.73-15.35
		c-3.46,0.78-8.85,5.89-11.56,6.89c-14.63,4.48-43.52,11.86-86.65,21.98c-3.48,0.82-8.86,1.31-16.18,1.1s-12.72-0.09-16.18,0.72
		c-10.01,2.36-18.82,11.92-26.58,28.15c-6.81,14.24-10.4,26.95-10.4,38.44c0,11.1,0.94,18.26,2.69,21.59
		c2.78,5.27,8.86,7.23,18.49,5.08c11.17-2.49,20.02-7.55,25.79-15.03c2.71-3.31,6.07-10.09,9.63-19.54
		c2.54-6.73,5.4-10.52,8.86-11.31c0,0,1.93,0.34,5.78,1.01c-0.39,22.15-1.11,36.32-1.55,42.17c-1.72,23.11-5.5,49.7-10.4,79.3
		c-5.08,30.72-9.62,50.67-13.47,58.73c-0.78,2.08-4.23,6.44-10.02,13.08c-4.83,5.54-7.31,10.19-7.31,14.03
		c0,16.52,4.62,26.83,14.25,30.96c9.63,4.13,28.88,3.58,57.38-1.21c35.83-6.02,57.78-11.67,65.87-16.97
		c10.71-7.02,16.18-21.24,16.18-43.35c0-8.43-10.02-15.07-16.18-21.92c-3.85-3.67-7.26-18.67-11.95-42.66
		c-4.16-21.31-7.31-43.21-10.4-65.75c-0.77-5.65-1.16-8.48-1.93-14.12c-2.16-19.48-3.23-29.18-5.39-48.54
		c2.69-1.78,3.85-2.43,3.85-2.43C1208.19,1393.92,1214.31,1398.93,1220.12,1410.1z M1520.54,1394.83c0-18.59,1.93-33.51,6.17-45.28
		c2.3-6.73,6.15-14.03,11.56-21.29c4.18-5.61,6.16-10.24,6.16-13.93c0-19.21-21.17-27.31-63.16-22.78
		c-13.87,1.5-25.93,4.88-36.21,9.76c-14.19,6.75-21.19,16.34-21.19,27.86c0,7.54,3.56,12.76,10.4,15.98
		c7.29,3.45,10.79,11.19,10.79,23.69c0,8.86-3.85,14.9-11.17,17.67c-2.69,1.08-9.63,2.53-21.57,4.54
		c-12.32,2.07-20.42,2.69-23.88,2.11c-7.33-1.51-11.17-7.65-11.17-18.02c0-7.58,3.46-15.8,10.4-23.81c6.92-8,10.4-14.96,10.4-20.51
		c0-18.61-21.19-24.08-63.17-15.71c-14.25,2.84-26.22,7.27-36.21,12.9c-14.24,8.04-21.57,17.9-21.57,29.31
		c0,7.07,2.32,11.3,6.55,13.19c6.94,2.88,10.79,4.85,11.95,5.8c4.23,5.06,6.16,14.57,5.78,28.55c-0.16,6.07-0.23,9.1-0.39,15.19
		c-0.77,0.15-3.06,19.3-6.94,57.73c-4.2,41.7-10.01,70.34-16.95,84.9c-0.77,2.16-4.41,6.44-10.4,13.56
		c-4.63,5.52-6.94,10.49-6.94,14.53c0,20.19,7.7,31.88,22.72,35.61c8.1,1.98,24.65,1.01,48.92-2.65c3.85-0.58,9.26-1.37,16.18-1.99
		c7.3-0.65,12.32-1.4,15.41-1.85c16.55-2.4,28.5-7.01,35.82-13.48c9.6-8.5,14.63-23.11,14.63-43.2c0-4.59-2.87-10.06-8.47-15.45
		c-6.54-6.29-10.19-11.86-11.17-15.3c-1.29-4.55-1.93-19.59-1.93-44.59c0-17.22,0.77-27.91,2.32-31.83
		c2.69-9.01,10.78-14.45,23.49-16.51c12.33-2,15.02,3.07,15.02,16.19c0,9.42,1.16,23.69,3.08,42.19c1.93,18.5,3.09,32.64,3.09,42.27
		c0,3.34-3.07,8.3-9.63,15.74c-6.35,7.2-9.63,13.95-9.63,19.82c0,16.81,8.08,26.07,24.65,29.53c5.01,1.02,19.26,0.75,43.52-0.13
		c51.23-1.85,76.64-12.75,76.64-34.27c0-10.74-7.31-24.41-21.57-41.04C1527.87,1476.17,1520.54,1431.62,1520.54,1394.83z
		 M1795.54,1511.51c-0.58-11.86-0.77-19.27-0.77-22.25c0-9.8-6.55-24.91-14.25-25.61c-2.69-0.24-6.16,2.85-10.4,9.31
		c-4.24,6.48-9.24,9.5-15.79,9.03c-1.16-0.08-2.71-0.2-4.62-0.76c-3.48-1.53-11.95,0.91-15.03,0.73
		c-37.35-2.26-55.85-20.5-55.85-55.73c0-14.86,4.24-22.37,12.33-22.1c7.33,0.24,12.64,4.07,16.18,11.22
		c3.62,7.3,7.71,10.95,11.95,11.17c6.55,0.34,11.26-5.82,14.63-18.26c2.36-8.7,3.46-18.42,3.46-28.14c0-6.34-1.91-9.41-5.76-9.64
		c-4.24-0.26-10.79,8.67-15.03,8.47c-10.4-0.51-19.27-3.38-26.58-8.67c-8.47-6.13-12.7-13.81-12.7-23.04c0-2.1,0.38-3.76,0.77-5.85
		c1.16-5.43,2.69-8.76,5.39-9.94c3.39,0.08,5.08,0.13,8.47,0.23c18.49,0.55,32.35,5.09,41.99,12.83c3.85,3.18,9.24,9.83,16.57,20.92
		c5,7.54,10.77,11.37,17.71,11.97c7.31,0.64,13.02-2.72,16.95-9.38c3.15-5.34,4.62-12.57,4.62-21.4c0-13.85-2.26-26.78-6.92-38.87
		c-6.03-15.62-14.64-24.02-25.81-24.91c-8.1-0.64-22.36-0.88-41.99-0.5c-19.63,0.37-33.89,1-42.75,0.9
		c-6.55-0.07-22.41-1.66-28.5-1.68c-15.97-0.05-29.68,2.67-40.83,7.55c-13.42,5.88-20.03,14.84-20.03,25.97
		c0,6.19,1.6,11.35,4.63,13.85c3.44,2.83,7.31,4.7,9.62,5.87c4.63,3.58,7.91,12.85,9.26,27.21c0.66,6.99,0,15.04-0.39,24.26
		c-1.23,43.29-1.85,65.12-3.08,109.16c-0.77,26.03-3.07,42.38-6.55,48.85c-2.93,5.18-4.39,7.77-7.31,12.96
		c-0.77,1.72-4.24,6.05-10.79,13.45c-3.85,4.35-5.78,9.13-5.78,14.74c0,13.82,6.55,21.1,19.65,21.06
		c28.96,0.08,43.44,0.29,72.4,1.15c10.4,0.25,21.23,0.97,32.35,0.99c13.43,0.02,23.88,0.57,31.59,0.96
		c27.73,1.41,43.91,0.92,48.91-2.59c12.72-9.42,19.26-31.66,19.26-66.33C1796.7,1532.99,1796.1,1522.89,1795.54,1511.51z
		 M2087.1,1647.14c0,2.7-2.32,4.4-6.55,6.03c-3.7,1.38-5.54,2.09-9.24,3.52c-4.62-0.74-12.39-1.78-22.72-2.23
		c-8.81-0.39-16.18-1.23-22.35-2.54c-26.58-5.64-45.06-19.9-55.08-44.37c-5-12.03-9.47-36.16-13.86-72.2
		c-3.68-30.28-10.4-51.17-19.64-61.8c-3.08-3.54-6.96-5.15-11.18-4.79c-7.27,0.62-10.4,4.57-9.24,11.85
		c5.39,40.5,10.57,65.55,16.57,74.52c6.19,9.25,15.79,19.91,15.79,28.58c0,22.74-5.41,35.47-15.79,39.19
		c-8.06,2.89-30.05,1.43-65.87-2.87c-29.27-3.51-49.13-8.21-58.54-15.15c-9.6-7.08-14.28-20.63-13.09-38.97
		c0.27-4.16,2.69-8.76,7.31-13.46c5.78-5.87,8.86-9.4,10.01-11.42c3.48-7.75,8.04-27.83,13.11-60.21
		c4.55-29.04,9.64-57.87,10.4-82.59c0.82-27.01-4.24-46.32-10.4-52.6c-2.32-1.58-6.14-4.07-9.63-7.57c-3.1-3.1-4.62-8.54-4.62-14.82
		c0-11.29,6.72-19.2,20.03-22.74c10.69-2.84,24.26-3.74,40.81,0.2c6.47,1.55,9.71,2.35,16.18,4c22.72,3.41,37.37,6.72,43.14,8.17
		c21.19,5.31,40.06,15.31,56.24,29.15c19.97,17.08,30.04,35.73,30.04,56.08c0,25.15-13.09,41.12-39.29,49.31
		c2.71,9.23,8.1,16.7,16.57,23.02c12.7,9.48,18.87,14.07,19.26,14.18c10.4,12.17,18.43,23.82,23.49,35.06
		c4.51,10.03,8.6,23.14,11.56,38.52c4.36,22.7,10.78,43.15,19.64,60.73c0.38,1.27,3.91,5.72,10.01,13.96
		C2084.79,1639.15,2087.1,1643.67,2087.1,1647.14z M1940.73,1388.26c0-20.1-7.31-32.24-22.33-35.63
		c-6.55-1.48-13.48,3.25-12.33,10.52c1.23,17.29,1.85,25.95,3.08,43.27c0.38,7.12,2.69,11.32,6.92,12.2
		c7.71,1.59,13.86-1.26,18.49-7.97C1938.74,1404.63,1940.73,1396.87,1940.73,1388.26z"/>
	<path d="M308.47,1760.4c6.5,11.45,10.01,22.79,10.01,33.43c0,19.58-8.09,28.51-24.65,26.99c-9.25-0.85-17.05-7.19-22.72-18.62
		c-5.81-11.71-11.94-18.21-17.72-18.92c0,0-1.15,0.22-3.85,0.95c2.16,18.25,3.24,27.33,5.39,45.42c0.77,5.28,1.16,7.92,1.93,13.19
		c3.08,21.01,6.24,41.23,10.4,60.9c4.68,22.1,8.09,35.75,11.94,39.67c6.16,7.11,16.18,14.57,16.18,21.73
		c0,18.75-5.46,29.86-16.18,34.29c-8.07,3.33-30.04,5.06-65.86,4.94c-28.5-0.09-47.76-2.71-57.39-8.38
		c-9.63-5.67-14.25-16.67-14.25-32.83c0-3.76,2.5-7.79,7.31-12.07c5.77-5.13,9.25-8.53,10.01-10.34
		c3.85-6.86,8.39-24.87,13.48-52.68c4.89-26.75,8.7-50.8,10.4-71.99c0.43-5.39,1.15-18.53,1.54-39.38c-3.85-2.05-5.78-3.1-5.78-3.1
		c-3.47-0.54-6.35,2.05-8.86,7.49c-3.56,7.7-6.93,13.02-9.62,15.23c-5.78,5.1-14.64,6.84-25.81,5.13
		c-9.62-1.47-15.71-5.74-18.49-12.11c-1.78-4.09-2.69-11.59-2.69-22.73c0-11.53,3.62-22.82,10.4-33.97
		c7.75-12.74,16.56-18.18,26.58-16.15c3.47,0.7,8.86,2.92,16.18,6.18c7.31,3.26,12.71,4.97,16.18,5.6
		c43.14,7.81,72.02,10.99,86.66,11.92c2.69,0.02,8.09-2.76,11.55-2.31C291.52,1739.32,300.74,1746.8,308.47,1760.4z M534.16,1812.27
		c17.21,30.85,25.81,65.66,25.81,104.87c0,26.78-12.36,48.93-36.59,66.52c-22.88,16.6-50.83,25.08-83.57,25.08
		c-36.59-0.01-66.02-11.85-87.82-37.08c-19.66-22.75-29.66-51.38-29.66-84.64c0-36.66,10.01-68.12,30.04-93.91
		c23.05-29.66,54.31-42.72,93.6-40.47C484.09,1754.8,513.32,1774.92,534.16,1812.27z M475.62,1873.38
		c0-14.32-3.85-30.43-11.17-48.16c-9.25-22.43-20.8-34.01-34.28-34.77c-8.09-0.46-14.14,4.44-18.49,14.27c-3.26,7.38-5,15.71-5,24.7
		c0,14.98,2.76,29.41,8.47,42.48c7.73,17.7,18.87,26.64,33.89,27.07C466.76,1899.48,475.62,1890.96,475.62,1873.38z M791.43,1844.25
		c-8.08,0.72-20.8,2.81-20.42,2.78c-28.88,2.48-43.13,5.52-43.13,14.65c0,3.26,2.69,6.48,7.71,9.67c5.01,3.19,7.7,5.75,7.7,7.69
		c0,6.18-5.4,9.16-15.8,9.27c-18.48,0.2-33.89-2.58-45.82-8.65c-15.02-7.65-22.35-18.93-22.35-33.9c0-10.1,4.24-20.26,12.32-30.22
		c8.86-10.95,18.87-16.43,30.82-16.66c10.4-0.2,18.1,2.63,23.1,8.17c3.85,6.56,5.78,9.83,9.63,16.37
		c4.62,5.53,11.95,8.36,22.35,8.12c12.7-0.3,21.17-5.76,25.42-15.57c2.3-5.93,3.46-15.47,3.46-29.04c0-7.79-1.51-14.86-4.62-20.89
		c-4.12-8-10.4-11.26-18.48-10.95c-5.01,0.2-18.1,6.79-23.11,6.96s-12.38-0.58-22.72-2.67c-9.97-2.02-17.71-2.89-23.11-2.76
		c-36.58,0.88-66.61,15.64-90.5,43.73c-21.47,25.24-32.35,53.41-32.35,84.57c0,30.85,10.06,57.9,30.04,81.15
		c22.35,26.02,51.23,38.96,86.27,38.96c23.49,0,41.59-2.48,54.31-7.77c5.78-2.49,20.03-10.61,41.99-25.39
		c1.14-0.98,5.39-2.04,12.33-3.18c6.92-1.14,12.32-3.53,15.79-6.54c1.54-1.34,2.32-4.29,2.32-8.5c0-9.75-2.71-27.59-8.47-53.23
		c-1.55-7.14-0.39-14.47,3.07-22.37c3.7-4.53,5.55-6.8,9.25-11.39c3.84-4.65,5.71-9.25,5.39-14.22
		C823.32,1845.17,812.62,1842.37,791.43,1844.25z M1049.49,1896.46c0-8.62-6.55-20.86-14.25-20.25c-2.69,0.21-6.17,3.47-10.4,9.7
		c-4.24,6.24-9.24,9.52-15.79,9.97c-1.16,0.08-2.71,0.18-4.63-0.05c-3.46-0.86-11.93,2.27-15.02,2.47
		c-37.35,2.52-55.85-11-55.85-40.39c0-12.4,4.24-19.21,12.32-20.01c7.33-0.73,12.66,1.84,16.18,7.39c3.6,5.69,7.7,8.28,11.95,7.89
		c6.55-0.6,11.26-6.5,14.63-17.74c2.35-7.84,3.48-16.44,3.48-24.87c0-5.5-1.93-7.84-5.78-7.39c-4.24,0.49-10.79,9.24-15.03,9.72
		c-10.4,1.16-19.27-0.04-26.58-3.53c-8.46-4.04-12.7-9.99-12.7-17.86c0-1.79,0.38-3.26,0.77-5.1c1.16-4.8,2.69-7.87,5.39-9.28
		c3.39-0.43,5.08-0.64,8.47-1.07c18.49-2.35,32.35-0.89,41.99,4.13c3.85,2.08,9.24,6.91,16.57,15.26c5,5.68,10.78,7.99,17.71,7.18
		c7.31-0.84,12.98-4.9,16.94-11.71c3.14-5.4,4.62-12.2,4.62-20.1c0-12.4-2.26-23.51-6.92-33.25c-6.02-12.58-14.64-18.07-25.81-16.4
		c-8.1,1.22-22.35,4.12-41.99,8.08c-19.64,3.98-33.89,6.73-42.75,7.99c-6.55,0.93-22.39,1.8-28.5,2.58
		c-15.98,2.05-29.66,5.9-40.83,11.19c-13.42,6.35-20.03,14.45-20.03,23.8c0,5.19,1.68,9.42,4.63,11.21c3.5,2.12,7.31,3.3,9.62,4.07
		c4.62,2.58,7.91,10.06,9.25,21.81c0.65,5.71,0,12.44-0.39,20.05c-1.23,35.65-1.85,53.26-3.09,88.03
		c-0.77,20.55-3.07,33.25-6.55,38.34c-2.93,4.07-4.39,6.1-7.31,10.13c-0.77,1.33-4.24,4.73-10.79,10.4
		c-3.85,3.34-5.78,6.94-5.78,11.15c0,10.36,6.55,15.8,19.65,15.77c28.96,0.06,43.44,0.09,72.4,0.16c10.4-0.02,21.22,0.27,32.35-0.08
		c13.44-0.42,23.88-0.4,31.59-0.42c27.73-0.07,43.91-1.58,48.91-4.93c12.72-8.92,19.26-28.88,19.26-59.2c0-6.73-0.6-15.5-1.16-25.41
		C1049.68,1905.62,1049.49,1899.08,1049.49,1896.46z M1220.11,1764.78c5.66,11.83,13.48,17.56,22.72,16.54
		c16.57-1.83,24.65-14.33,24.65-37.83c0-12.77-3.52-25.52-10.01-37.29c-7.72-14.01-16.95-19.98-27.73-18.39
		c-3.46,0.51-8.85,5.34-11.56,6.13c-14.63,3.36-43.52,8.41-86.65,14.88c-3.48,0.52-8.86,0.55-16.18-0.28
		c-7.31-0.83-12.72-1.16-16.18-0.63c-10.01,1.53-18.82,10.35-26.58,25.77c-6.8,13.53-10.4,25.76-10.4,37.13
		c0,10.98,0.93,18.14,2.69,21.64c2.78,5.5,8.86,8.09,18.49,6.98c11.17-1.28,20.02-5.37,25.79-12.26c2.71-3.03,6.07-9.48,9.63-18.61
		c2.53-6.49,5.4-10.04,8.86-10.49c0,0,1.93,0.54,5.78,1.6c-0.39,22.32-1.11,36.53-1.55,42.39c-1.72,23.09-5.51,49.51-10.4,78.61
		c-5.08,30.24-9.62,49.57-13.47,57.08c-0.78,1.97-4.24,5.84-10.02,11.6c-4.82,4.8-7.31,9.07-7.31,12.9
		c0,16.48,4.62,27.49,14.25,33.2c9.63,5.71,28.88,8.4,57.38,8.31c35.83-0.12,57.79-2.3,65.87-6.46c10.7-5.5,16.18-19.4,16.18-42.36
		c0-8.76-10.02-17.16-16.18-25.16c-3.85-4.37-7.26-20.39-11.95-45.77c-4.16-22.56-7.31-45.51-10.4-69.07
		c-0.77-5.91-1.16-8.86-1.93-14.75c-2.16-20.28-3.23-30.37-5.39-50.48c2.69-1.55,3.85-2.11,3.85-2.11
		C1208.17,1746.86,1214.29,1752.62,1220.11,1764.78z M1520.53,1776.06c0-19.97,1.93-35.89,6.17-48.27
		c2.3-7.08,6.14-14.68,11.56-22.13c4.18-5.75,6.16-10.6,6.16-14.56c0-20.59-21.17-30.47-63.16-29.23
		c-13.87,0.41-25.94,2.93-36.21,7.24c-14.18,5.95-21.19,15.9-21.19,28.43c0,8.2,3.57,14.09,10.4,18.24
		c7.3,4.44,10.79,13.16,10.79,26.74c0,9.63-3.85,15.86-11.17,18.23c-2.69,0.94-9.63,1.94-21.57,3.06
		c-12.32,1.16-20.42,1.06-23.88,0.12c-7.33-2.31-11.17-9.26-11.17-20.41c0-8.15,3.46-16.67,10.4-24.74
		c6.92-8.06,10.4-15.33,10.4-21.33c0-20.12-21.19-27.34-63.17-21.68c-14.25,1.92-26.23,5.65-36.21,10.76
		c-14.23,7.29-21.56,16.97-21.56,28.94c0,7.41,2.32,12.07,6.55,14.45c6.94,3.68,10.79,6.13,11.95,7.24
		c4.23,5.74,6.16,15.96,5.78,30.67c-0.16,6.38-0.23,9.58-0.39,15.97c-0.77,0.08-3.06,20.04-6.94,60
		c-4.2,43.36-10.01,72.6-16.95,86.85c-0.77,2.15-4.43,6.12-10.4,12.66c-4.63,5.06-6.94,9.9-6.94,14.11
		c0,21.05,7.71,34.46,22.72,40.8c8.1,3.38,24.65,5.06,48.92,4.98c3.85-0.01,9.26-0.01,16.18,0.4c7.29,0.43,12.33,0.4,15.41,0.39
		c16.55-0.04,28.51-3.24,35.82-9.16c9.6-7.76,14.63-22.87,14.63-44.59c0-4.96-2.87-11.25-8.47-17.78
		c-6.56-7.65-10.18-14.06-11.17-17.92c-1.3-5.07-1.93-21.32-1.93-48.24c0-18.54,0.77-29.98,2.32-34.03
		c2.69-9.43,10.78-14.45,23.49-15.41c12.33-0.93,15.02,4.78,15.02,19.02c0,10.23,1.16,25.83,3.08,46.04
		c1.93,20.21,3.09,35.61,3.09,46.05c0,3.62-3.07,9.18-9.63,16.41c-6.33,6.99-9.63,13.87-9.63,20.22c0,18.19,8.08,29.56,24.65,34.15
		c5.01,1.36,19.26,1.82,43.52,1.82c51.23-0.01,76.64-11.56,76.64-34.5c0-11.45-7.31-26.12-21.57-44.34
		C1527.85,1863.9,1520.53,1815.59,1520.53,1776.06z M1795.53,1898.12c-0.58-12.25-0.77-19.94-0.77-23.03
		c0-10.17-6.55-25.41-14.25-25.69c-2.69-0.1-6.16,3.32-10.4,10.27c-4.24,6.97-9.24,10.39-15.79,10.21
		c-1.16-0.03-2.71-0.07-4.62-0.58c-3.48-1.43-11.95,1.47-15.03,1.4c-37.35-0.89-55.85-20.06-55.85-57.13
		c0-15.64,4.24-23.55,12.33-23.35c7.33,0.18,12.63,4.11,16.18,11.55c3.61,7.58,7.7,11.32,11.95,11.44
		c6.55,0.19,11.26-6.4,14.63-19.51c2.36-9.17,3.46-19.35,3.46-29.51c0-6.62-1.91-9.78-5.76-9.93c-4.24-0.17-10.79,9.32-15.03,9.18
		c-10.4-0.35-19.27-3.27-26.58-8.78c-8.47-6.4-12.7-14.51-12.7-24.23c0-2.21,0.38-3.96,0.77-6.16c1.16-5.72,2.69-9.21,5.39-10.44
		c3.39,0.09,5.08,0.14,8.47,0.25c18.49,0.56,32.35,5.09,41.99,12.98c3.85,3.24,9.24,10.07,16.57,21.4c5,7.7,10.78,11.49,17.71,11.82
		c7.31,0.36,13.01-3.41,16.94-10.52c3.16-5.71,4.62-13.28,4.62-22.45c0-14.39-2.25-27.7-6.92-40.08
		c-6.03-16-14.64-24.45-25.81-25.11c-8.1-0.47-22.36-0.4-41.99,0.09c-19.63,0.49-33.89,0.98-42.75,0.74
		c-6.55-0.17-22.42-2.17-28.5-2.35c-15.96-0.48-29.68,1.88-40.83,6.6c-13.42,5.68-20.03,14.89-20.03,26.77
		c0,6.6,1.56,12.15,4.63,14.97c3.43,3.15,7.31,5.31,9.62,6.64c4.63,3.99,7.91,13.95,9.26,29.26c0.66,7.45,0,15.98-0.39,25.77
		c-1.23,45.95-1.85,69.12-3.08,115.86c-0.77,27.62-3.07,44.95-6.55,51.79c-2.93,5.47-4.39,8.21-7.31,13.69
		c-0.77,1.82-4.24,6.39-10.79,14.17c-3.85,4.58-5.78,9.64-5.78,15.62c0,14.71,6.55,22.56,19.65,22.56
		c28.96,0.19,43.44,0.28,72.4,0.48c10.4,0.01,21.23,0.43,32.35,0.02c13.42-0.49,23.88-0.43,31.59-0.42
		c27.73,0.03,43.91-1.77,48.91-5.79c12.72-10.73,19.26-34.35,19.26-70.3C1796.68,1920.31,1796.08,1909.91,1795.53,1898.12z
		 M2087.08,1990.44c0,2.7-2.32,4.99-6.55,7.67c-3.7,2.3-5.54,3.45-9.24,5.79c-4.62,0.38-12.38,1.2-22.72,3.09
		c-8.8,1.61-16.18,2.38-22.35,2.38c-26.58,0-45.06-11.09-55.08-34.18c-5-11.34-9.47-35.08-13.86-71.07
		c-3.68-30.19-10.4-50.47-19.64-60.01c-3.08-3.17-6.95-4.29-11.18-3.35c-7.27,1.61-10.4,6.04-9.24,13.33
		c5.39,40.71,10.58,65.56,16.57,73.8c6.19,8.52,15.79,17.86,15.79,26.69c0,23.15-5.4,37.03-15.79,42.46
		c-8.06,4.21-30.05,6.29-65.87,6.21c-29.27-0.07-49.15-3.14-58.54-9.47c-9.59-6.46-14.28-20.18-13.09-39.27
		c0.27-4.35,2.69-9.3,7.31-14.53c5.78-6.55,8.86-10.46,10.01-12.65c3.48-8.31,8.04-29.48,13.11-63.36
		c4.55-30.4,9.64-60.42,10.4-86.16c0.82-27.89-4.24-47.51-10.4-53.59c-2.32-1.48-6.17-3.85-9.63-7.22
		c-3.09-3.01-4.62-8.57-4.62-15.08c0-11.7,6.73-20.23,20.03-24.73c10.7-3.62,24.26-5.48,40.81-2.83c6.47,1.04,9.71,1.58,16.18,2.67
		c22.72,1.36,37.37,3,43.15,3.8c21.19,2.93,40.07,10.5,56.24,22.06c19.97,14.27,30.04,31.25,30.04,51.79
		c0,25.39-13.09,44.02-39.29,56.53c2.71,8.93,8.1,15.64,16.57,20.57c12.7,7.4,18.87,10.84,19.26,10.88
		c10.4,10.36,18.44,20.5,23.49,30.78c4.5,9.16,8.61,21.54,11.56,36.33c4.36,21.9,10.78,41.01,19.64,56.55
		c0.38,1.19,3.91,4.84,10.01,11.59C2084.77,1983.03,2087.08,1986.97,2087.08,1990.44z M1940.72,1756.7
		c0-20.5-7.31-31.89-22.33-33.62c-6.55-0.76-13.48,4.84-12.32,12.15c1.23,17.57,1.85,26.36,3.08,43.95
		c0.38,7.24,2.69,11.27,6.92,11.65c7.71,0.69,13.86-3.03,18.49-10.48C1938.73,1773.65,1940.72,1765.48,1940.72,1756.7z"/>
</g>
</svg>
