<?xml version="1.0" standalone="no"?>
<!DOCTYPE svg PUBLIC "-//W3C//DTD SVG 20010904//EN"
 "http://www.w3.org/TR/2001/REC-SVG-20010904/DTD/svg10.dtd">
<svg version="1.0" xmlns="http://www.w3.org/2000/svg"
 width="2400.000000pt" height="2400.000000pt" viewBox="0 0 2400.000000 2400.000000"
 preserveAspectRatio="xMidYMid meet">

<g transform="translate(0.000000,2400.000000) scale(0.100000,-0.100000)"
fill="#000000" stroke="none">
<path d="M16907 21189 c-63 -15 -133 -56 -190 -112 -187 -182 -426 -712 -605
-1342 -184 -642 -379 -1584 -472 -2278 l-12 -87 -62 52 c-78 65 -199 123 -301
144 -111 23 -339 15 -445 -15 -456 -131 -743 -553 -946 -1391 -215 -887 -427
-1531 -650 -1980 -80 -161 -216 -388 -243 -404 -4 -3 -29 38 -54 92 -242 516
-395 1533 -358 2390 11 262 37 630 62 898 7 67 9 129 6 137 -18 48 -173 69
-248 33 -60 -28 -82 -102 -149 -499 -60 -362 -180 -818 -476 -1807 -158 -526
-246 -784 -329 -955 -78 -163 -75 -161 -113 -76 -89 200 -171 633 -202 1071
-5 80 -10 306 -10 503 l0 357 30 0 c17 0 46 7 65 14 34 14 35 17 35 69 0 81
-26 213 -61 313 -77 221 -206 362 -384 416 -55 18 -95 22 -185 22 -176 0 -296
-40 -433 -144 -330 -250 -604 -954 -646 -1661 l-9 -144 -77 -210 c-246 -670
-459 -1115 -634 -1324 l-28 -34 -32 94 c-88 266 -141 773 -127 1234 15 497 62
900 332 2825 158 1128 198 1514 198 1900 0 235 -2 276 -22 364 -53 244 -159
343 -380 354 -212 10 -369 -62 -555 -257 -343 -359 -748 -1162 -997 -1975 -27
-89 -49 -156 -50 -151 0 6 -7 66 -15 135 -8 69 -42 382 -75 695 -109 1037
-143 1270 -206 1447 -38 104 -67 143 -130 174 -50 24 -62 26 -151 22 -114 -5
-155 -22 -219 -90 -58 -61 -98 -124 -164 -257 -198 -398 -441 -1176 -594
-1901 -46 -219 -43 -210 -45 -170 -1 19 -6 121 -11 225 -5 105 -17 332 -25
505 -52 1059 -112 1581 -217 1879 -94 268 -214 371 -433 371 -253 0 -400 -147
-645 -645 -214 -436 -345 -821 -364 -1075 -8 -103 6 -141 59 -159 40 -14 95
-10 123 7 7 5 24 60 38 123 100 446 489 1273 718 1525 l53 59 31 -48 c37 -58
94 -234 121 -372 66 -336 93 -767 126 -2020 25 -938 61 -1730 121 -2590 8
-121 21 -401 29 -623 8 -222 19 -460 25 -530 25 -292 68 -601 91 -643 34 -64
244 -89 342 -41 26 13 52 33 59 45 15 29 6 256 -31 772 -17 231 -47 641 -66
911 l-35 491 16 209 c83 1146 363 2506 695 3387 52 139 167 387 179 387 4 0
14 -37 23 -82 38 -199 57 -377 117 -1118 61 -752 106 -1241 166 -1815 38 -358
47 -482 54 -740 9 -326 28 -524 58 -585 27 -55 87 -80 190 -80 100 0 153 14
189 49 l26 26 -6 180 c-3 99 -19 299 -37 445 -34 292 -33 317 11 635 135 976
569 2128 1044 2771 96 129 264 294 299 294 30 0 63 -129 76 -297 21 -278 -27
-764 -181 -1818 -203 -1392 -324 -2310 -361 -2740 -19 -227 -16 -791 5 -1002
51 -501 147 -815 280 -917 67 -51 139 -69 262 -64 99 4 117 8 179 37 129 62
249 213 386 481 93 184 209 465 296 720 3 10 15 -1 35 -34 94 -150 234 -216
459 -216 192 0 300 40 401 147 74 80 149 229 210 418 24 74 47 134 50 135 3 0
9 -30 13 -66 4 -36 16 -116 26 -177 73 -416 181 -647 338 -724 54 -26 65 -28
187 -28 122 0 133 2 187 28 187 92 299 373 575 1439 l39 147 22 -208 c84 -781
282 -1353 526 -1520 79 -54 156 -73 281 -69 94 3 119 8 168 31 191 88 419 493
624 1107 42 128 59 167 61 145 7 -65 65 -336 92 -430 120 -414 335 -664 631
-735 162 -39 383 -22 529 39 197 82 388 281 576 599 l67 113 37 -103 c112
-318 237 -516 367 -585 88 -47 164 -63 300 -63 240 0 399 72 577 261 291 309
532 901 691 1691 19 98 35 189 35 202 0 35 -42 64 -105 71 -63 8 -146 -9 -169
-34 -9 -10 -43 -114 -76 -233 -181 -650 -381 -1117 -616 -1435 -103 -140 -255
-282 -288 -270 -19 8 -128 231 -172 352 -50 138 -108 371 -138 555 -28 169
-56 393 -56 452 0 20 29 117 64 215 437 1223 937 3040 1125 4088 66 368 90
572 98 850 16 580 -103 838 -386 834 -36 -1 -83 -5 -104 -10z m134 -216 c32
-73 58 -214 65 -353 33 -626 -244 -1792 -913 -3842 -64 -197 -118 -356 -120
-355 -5 6 17 468 32 667 78 991 354 2513 590 3250 55 170 143 396 193 495 42
84 109 185 123 185 5 0 19 -21 30 -47z m-1882 -3618 c140 -70 297 -288 385
-533 l26 -73 -11 -207 c-14 -251 -7 -1025 11 -1272 l13 -175 -92 -200 c-205
-448 -410 -777 -597 -956 -93 -88 -117 -103 -143 -89 -30 15 -114 119 -160
197 -106 179 -189 488 -238 883 -22 181 -25 706 -5 870 52 416 159 811 297
1098 112 231 235 380 369 447 38 19 75 35 83 35 7 0 36 -11 62 -25z m-4448
-849 c53 -41 135 -140 164 -197 14 -26 14 -27 -31 -44 -25 -9 -51 -27 -59 -38
-7 -12 -30 -83 -50 -157 -45 -165 -230 -764 -318 -1030 -118 -356 -259 -702
-278 -683 -14 15 -48 168 -60 273 -14 127 -6 422 16 590 61 459 199 886 370
1145 54 81 153 185 177 185 7 0 38 -20 69 -44z"/>
<path d="M12369 18247 c-65 -22 -132 -61 -162 -95 -9 -9 -31 -54 -51 -99 -58
-131 -45 -231 40 -302 104 -85 329 -95 475 -20 55 28 125 93 156 146 31 53 40
141 23 214 -17 68 -83 138 -155 162 -75 26 -241 23 -326 -6z"/>
<path d="M11180 12585 c-294 -36 -735 -148 -873 -223 -64 -35 -123 -100 -138
-154 -32 -118 32 -786 142 -1488 76 -482 91 -539 153 -565 75 -32 176 -13 202
37 30 57 38 205 26 443 -10 179 -56 731 -76 899 l-4 38 151 73 c242 115 357
154 559 189 95 16 128 31 128 59 0 22 -55 47 -104 47 -147 0 -424 -61 -611
-135 -60 -24 -117 -45 -125 -47 -18 -4 -38 151 -39 313 -1 92 2 110 19 132 43
55 415 170 800 248 154 31 195 50 195 90 0 17 -10 29 -35 41 -43 22 -207 23
-370 3z"/>
<path d="M8610 12144 c-247 -44 -398 -170 -526 -439 -169 -356 -211 -780 -109
-1105 56 -176 178 -365 303 -465 77 -62 218 -130 322 -155 118 -28 341 -28
457 0 321 77 571 338 712 743 96 276 106 613 24 871 -101 322 -308 477 -737
551 -108 18 -340 18 -446 -1z m385 -188 c228 -77 331 -156 409 -318 202 -414
103 -999 -223 -1318 -122 -119 -264 -190 -353 -176 -192 31 -392 309 -453 630
-36 186 -29 456 16 665 45 207 130 411 209 503 39 45 43 47 83 42 23 -3 56 0
72 5 47 16 124 6 240 -33z"/>
<path d="M3965 10595 c-179 -39 -326 -127 -494 -295 -169 -169 -295 -347 -406
-575 -125 -255 -177 -447 -179 -670 -1 -147 10 -199 53 -247 26 -29 35 -33 97
-36 58 -3 73 -1 94 16 24 19 24 21 7 39 -22 26 -22 72 4 196 81 398 336 848
655 1158 109 105 222 189 289 214 40 16 45 16 80 -1 126 -59 261 -254 358
-515 197 -527 370 -1656 449 -2929 8 -125 13 -433 13 -791 l0 -586 -181 -185
c-365 -374 -597 -690 -764 -1040 -237 -499 -272 -921 -91 -1111 87 -92 257
-131 423 -96 64 14 179 65 243 109 281 193 554 671 690 1210 67 263 112 556
140 905 16 198 16 200 44 225 16 14 147 128 292 254 145 127 307 268 359 315
l95 86 7 -130 c26 -453 73 -797 159 -1155 121 -506 288 -870 489 -1069 84 -83
155 -130 258 -169 60 -23 82 -26 202 -27 160 0 204 12 315 86 183 123 384 411
546 782 l42 98 28 -84 c40 -124 82 -209 154 -317 153 -230 339 -360 580 -405
118 -23 325 -16 438 14 98 26 231 88 311 145 87 62 224 210 296 319 194 293
346 740 412 1207 18 135 16 596 -4 715 l-15 90 76 85 c190 210 332 390 567
715 l159 220 6 -600 c7 -638 17 -832 64 -1250 55 -478 170 -1130 210 -1192 54
-82 255 -107 383 -48 37 17 53 31 58 49 3 14 -2 88 -12 163 -15 108 -19 200
-19 418 1 301 15 448 70 736 144 743 520 1665 820 2009 31 36 62 65 68 65 15
0 32 -79 46 -207 18 -164 12 -430 -19 -893 -43 -640 -53 -936 -47 -1290 10
-499 55 -812 153 -1059 112 -278 258 -396 494 -396 138 0 244 42 309 123 62
78 172 319 266 580 l28 78 31 -58 c121 -226 294 -368 533 -439 120 -35 318
-44 448 -19 227 42 417 161 588 364 239 284 408 666 506 1141 77 376 111 803
91 1164 l-11 198 36 42 c84 98 277 341 364 458 52 70 96 126 98 125 1 -2 -4
-111 -12 -242 -48 -802 -47 -1274 6 -2060 37 -567 73 -942 95 -993 21 -52 86
-76 204 -77 103 0 172 19 206 56 18 19 17 31 -1 357 -30 507 -27 579 41 942
32 173 94 451 104 469 10 19 71 -64 153 -209 35 -63 97 -173 137 -245 161
-287 362 -567 528 -734 217 -219 585 -476 897 -627 251 -122 424 -170 645
-180 290 -14 485 57 652 234 81 86 102 117 94 137 -15 41 -143 59 -212 30 -20
-8 -72 -48 -116 -90 -187 -176 -342 -197 -627 -84 -248 98 -613 349 -841 579
-182 182 -388 471 -615 860 -60 102 -135 224 -167 271 -55 81 -153 185 -207
220 l-24 15 77 90 c253 293 514 767 591 1073 66 262 48 538 -38 594 -69 45
-220 54 -301 19 -89 -40 -196 -163 -324 -371 -134 -218 -362 -718 -492 -1081
-29 -80 -55 -147 -57 -150 -3 -3 -4 360 -2 807 l4 811 -21 29 c-38 50 -79 67
-180 71 -123 6 -176 -12 -254 -84 -32 -30 -161 -183 -286 -339 -126 -157 -231
-285 -234 -285 -3 0 -14 28 -24 61 -48 154 -139 303 -243 399 -76 70 -222 146
-333 175 -88 23 -322 31 -414 15 -246 -43 -439 -185 -608 -444 -22 -35 -58
-73 -86 -91 -200 -135 -382 -515 -487 -1014 -63 -301 -96 -754 -77 -1064 l10
-177 -68 -203 c-86 -255 -145 -415 -222 -592 -65 -151 -147 -315 -158 -315 -4
0 -19 26 -33 58 -131 296 -182 803 -158 1580 6 213 18 524 27 692 30 618 19
938 -42 1146 -49 169 -106 239 -227 276 -87 26 -222 22 -310 -10 -171 -62
-343 -257 -537 -612 -158 -289 -369 -782 -476 -1112 -15 -48 -31 -85 -34 -83
-4 2 -10 46 -14 97 -17 237 -37 592 -51 898 -26 567 -38 619 -145 664 -88 36
-236 27 -315 -19 -64 -37 -125 -109 -397 -470 -250 -332 -452 -585 -466 -585
-4 0 -24 34 -45 76 -59 120 -125 213 -212 299 -164 165 -339 235 -585 235
-255 0 -457 -87 -589 -252 -56 -70 -140 -226 -166 -309 -14 -42 -27 -61 -60
-86 -102 -76 -204 -231 -283 -431 -96 -240 -170 -547 -192 -792 -11 -122 -14
-130 -93 -330 -138 -346 -331 -719 -483 -931 -62 -87 -209 -243 -258 -275
l-29 -18 -66 70 c-153 160 -275 428 -380 834 -124 478 -192 1010 -208 1642
l-6 247 69 77 c499 555 770 1041 898 1614 99 444 94 869 -15 1203 -69 214
-164 348 -287 409 -61 30 -76 33 -178 37 -251 8 -382 -85 -514 -362 -125 -263
-236 -694 -319 -1242 -73 -485 -121 -1102 -121 -1570 l0 -189 -62 -59 c-139
-130 -342 -312 -508 -454 l-175 -150 -2 206 c-10 953 -90 1862 -239 2701 -183
1031 -404 1489 -794 1647 -127 51 -348 68 -485 38z m3254 -805 c72 -102 134
-272 167 -455 25 -138 25 -455 1 -615 -81 -526 -256 -943 -588 -1403 -113
-156 -106 -171 -90 183 44 944 200 1881 368 2214 32 63 81 136 92 136 4 0 27
-27 50 -60z m8308 -1917 c169 -82 297 -314 352 -642 12 -68 21 -134 21 -147 0
-16 -25 -46 -84 -100 -270 -247 -569 -372 -711 -298 -148 77 -214 376 -145
650 54 211 231 476 368 549 59 32 116 28 199 -12z m2577 -225 c-30 -187 -103
-379 -233 -614 -83 -148 -230 -379 -237 -371 -16 15 190 527 302 751 66 132
170 316 178 316 2 0 -3 -37 -10 -82z m-8444 -531 c89 -43 218 -173 284 -287
59 -99 119 -249 138 -339 l13 -64 -60 -55 c-216 -198 -488 -374 -604 -389 -49
-7 -91 17 -154 87 -95 105 -145 270 -133 435 8 118 12 127 49 145 40 19 45 44
18 80 -20 28 -20 29 -2 82 75 218 219 360 346 342 22 -3 69 -20 105 -37z
m5067 -584 c32 -18 99 -44 148 -59 80 -24 110 -28 275 -32 146 -3 205 0 275
13 129 23 253 67 384 135 l114 60 -7 -153 c-30 -684 -199 -1295 -469 -1697
-136 -203 -311 -372 -438 -424 -33 -14 -39 -13 -68 2 -119 64 -235 212 -302
386 -97 250 -139 558 -139 1023 0 259 0 264 36 455 45 241 51 288 34 298 -9 5
-10 22 -5 59 l7 51 48 -43 c26 -24 74 -57 107 -74z m-4587 -591 c0 -467 -189
-1103 -441 -1482 -114 -171 -287 -325 -422 -375 -44 -17 -51 -17 -80 -3 -143
68 -315 314 -382 544 -95 328 -98 801 -9 1244 14 68 26 125 28 127 1 1 29 -23
62 -53 66 -62 183 -124 284 -151 91 -25 348 -25 440 1 153 41 293 109 425 206
44 32 83 59 88 59 4 1 7 -52 7 -117z m-5204 -979 c-65 -643 -257 -1206 -515
-1512 -45 -53 -135 -131 -151 -131 -4 0 -18 24 -31 53 -22 47 -24 65 -23 192
0 155 17 243 81 430 44 129 182 410 270 548 104 164 349 487 370 487 3 0 2
-30 -1 -67z"/>
</g>
</svg>
