<?xml version="1.0" encoding="utf-8"?>
<!-- Generator: Adobe Illustrator 25.2.0, SVG Export Plug-In . SVG Version: 6.00 Build 0)  -->
<svg version="1.1" id="Layer_1" xmlns="http://www.w3.org/2000/svg" xmlns:xlink="http://www.w3.org/1999/xlink" x="0px" y="0px"
	 viewBox="0 0 2200 2200" style="enable-background:new 0 0 2200 2200;" xml:space="preserve">
<g>
	<path d="M624.95,1466.2c18.85,25.97,12.36,73.09-16.12,116.65c-18.22,28.06-80.84,104.71-88.59,108.48
		c-5.65,2.72-15.29-2.31-32.67-17.38c-15.08-12.98-52.36-54.87-67.02-75.6c-24.92-34.97-40.21-70.78-40.21-94.24
		c0.21-53.19,60.73-68.06,94.87-23.24c4.4,5.65,13.4,20.94,20.1,33.51l11.94,23.24l6.7-16.33c9.01-21.78,19.89-40,32.04-52.57
		c11.1-11.73,19.27-16.54,31.83-18.85C596.47,1446.51,615.53,1453,624.95,1466.2z M1774.11,1480.85c-4.4,5.65-13.4,20.94-20.1,33.51
		l-11.94,23.24l-6.7-16.33c-9-21.78-19.89-40-32.04-52.57c-11.1-11.73-19.26-16.54-31.83-18.85c-18.64-3.35-37.7,3.14-47.12,16.34
		c-18.85,25.97-12.36,73.09,16.12,116.65c18.22,28.06,80.84,104.71,88.58,108.48c5.66,2.72,15.29-2.31,32.67-17.38
		c15.08-12.98,52.36-54.87,67.02-75.6c24.92-34.97,40.21-70.78,40.21-94.24C1868.76,1450.91,1808.24,1436.04,1774.11,1480.85z"/>
	<path d="M994.07,1643.19c-5.26-4.21-8.78-8.43-10.53-12.29c-13.69-27.39-27.39-68.12-41.08-122.19
		c-3.51-13.69-6.32-22.82-8.78-27.38c-7.73-14.4-13.69-23.53-17.56-27.39c-8.78-8.43-21.42-13.35-37.92-15.1
		c-9.83-1.05-25.28,1.05-46.7,5.62c-24.93,5.61-37.57,12.29-37.57,20.01c0,1.4,1.4,3.51,4.56,6.32c3.86,3.51,6.32,7.02,8.08,10.18
		c3.16,5.97,4.56,12.99,4.56,21.77c0,22.47-4.91,48.8-14.4,79c-11.24,34.76-24.22,57.23-38.97,67.77
		c-12.64,8.78-18.61,20.37-18.61,34.76c0.35,16.15,16.15,24.22,48.46,24.22c21.42,0,36.51-1.05,44.59-3.51
		c16.85-4.56,25.28-15.1,25.28-31.25c0-4.21-2.11-8.78-6.67-13.69c-6.67-7.37-11.24-12.29-12.99-15.1
		c-4.56-7.73-6.67-16.85-6.67-27.39c0-14.4,4.21-24.23,12.99-29.49c6.67-1.05,9.83-1.76,9.83-1.76c9.13,0,17.55,1.4,25.28,4.56
		c10.19,3.86,15.45,9.83,15.45,17.21c0,21.76-5.26,37.92-15.8,48.45c-1.76,6.67-2.46,12.99-2.46,18.26c0,14.4,6.32,23.88,19.31,28.8
		c7.72,3.16,20.37,4.56,37.92,4.56c17.55,0,32.3-2.1,44.59-5.97c18.61-5.62,28.79-15.1,29.49-28.79c0.71-8.78-0.7-15.45-3.51-20.36
		C1002.5,1650.57,999.34,1647.06,994.07,1643.19z M875.05,1543.83c-1.05-0.7-4.21-1.05-8.78-1.05c-2.81,0-11.24,1.05-14.05,1.05
		c-5.97,0-9.13-1.05-9.13-3.16c0-4.57,1.75-11.24,5.62-20.01c4.56-10.19,8.78-15.1,12.64-15.1c6.67,0,11.94,4.92,15.8,14.4
		c4.21,10.53,6.32,16.85,6.32,18.61C883.47,1541.72,880.67,1543.48,875.05,1543.83z M1275.29,1465.88
		c0,13.69-11.24,14.04-15.45,23.87l-8.43,15.1c-4.92,8.43-6.32,18.26-6.32,29.14c0-0.35,0,1.05,0,4.56
		c0.35,12.99,4.21,32.3,10.89,58.29c6.32,24.93,9.48,44.24,9.48,57.93c0,18.26-1.41,30.9-4.57,37.92
		c-4.91,10.89-15.1,16.51-30.55,16.51c-17.2,0-32.65-11.24-46.35-33.36c-3.51-5.97-12.99-26.33-28.79-61.8
		c-9.83-22.12-18.61-33.35-26.69-33.35c-2.46,0-3.86,2.1-3.86,5.97c0,5.97,1.76,16.51,6.32,32.3c4.21,15.45,7.73,24.93,10.19,28.09
		l8.08,9.83c3.16,3.86,5.62,7.72,6.32,11.58c0.7,4.57,1.05,8.78,1.05,12.64c0,10.18-3.86,17.56-11.24,21.77
		c-5.97,3.16-16.85,5.61-32.65,5.97c-7.37,1.4-23.17,1.4-47.4,1.4c-9.48,0-18.96-1.76-28.79-5.62c-8.78-3.16-14.4-7.37-17.21-12.99
		c-2.46-3.87-3.86-8.78-3.86-14.05v-6.67c0-3.16,1.4-6.32,4.57-9.48l8.07-8.08c7.03-26.69,11.94-51.61,15.1-74.43
		c2.46-18.61,4.21-35.46,5.26-50.56c1.4-22.12-1.76-36.52-9.48-42.84c-2.1-1.05-4.92-2.81-8.78-5.26
		c-2.81-2.81-4.21-6.67-4.21-11.94c0-9.48,5.97-16.85,18.26-21.42c9.83-3.86,22.12-5.97,37.22-5.62
		c25.63,0.35,41.78,4.21,49.16,10.89c10.88,7.37,21.06,24.58,29.85,51.96c9.83,29.49,19.31,48.8,28.79,57.93
		c2.46,2.1,4.92,2.81,7.72,1.76c2.81-3.51,4.21-8.78,4.21-15.45c0-2.46-0.35-6.67-1.05-11.94v-1.76l-0.35-0.7
		c-0.71-5.62-1.41-11.59-2.46-17.91c-3.87-12.99-10.53-23.17-19.31-30.55c-2.11-1.05-4.92-2.81-8.78-5.26
		c-2.46-2.81-3.87-6.67-3.87-11.94c0-9.48,5.97-16.85,18.26-21.42c9.83-3.86,22.12-5.97,37.21-5.62
		c20.71,0.35,35.11,2.81,43.89,7.37C1271.78,1452.54,1275.29,1458.16,1275.29,1465.88z M1345.01,1709.43
		c1.18,0.04,2.93,0.08,5.39,0.13C1348.54,1709.53,1346.79,1709.47,1345.01,1709.43z M1467.68,1475.72
		c-22.82-19.31-57.23-30.2-102.88-33.36c-9.83-0.7-16.15-1.05-19.31-1.05c-14.74-0.35-27.03,1.76-37.21,5.62
		c-12.29,4.57-18.26,11.94-18.26,21.42c0,5.26,1.41,9.13,4.21,11.94c3.86,2.46,6.67,4.21,8.78,5.26c6.32,5.27,9.48,19.66,9.48,43.19
		c0.35,53.37-3.51,91.29-11.24,113.41c-2.1,5.97-6.32,12.29-12.99,19.31c-4.92,5.27-8.08,13.69-9.13,24.58
		c-0.7,5.27,1.05,9.48,5.26,11.94c2.11,1.4,7.73,3.51,16.51,6.32c9.04,2.91,23.79,4.61,44.11,5.14c-7.2-0.22,9.69-0.22,51.04-0.22
		c36.16,0,64.61-11.94,84.62-35.82c18.61-22.12,28.09-51.96,28.09-89.18C1508.76,1535.05,1495.06,1498.89,1467.68,1475.72z
		 M1425.54,1586.66c-5.97,13.69-14.75,20.71-27.04,20.71c-10.53,0-16.15-9.83-16.5-29.14c-0.35-9.48-0.7-35.46-0.7-77.25
		c1.76-8.42,3.86-15.1,9.13-18.96c1.76-1.76,3.51-2.81,4.57-3.51c14.04,0.7,24.22,9.83,30.55,27.39
		c4.56,11.94,6.67,26.69,6.67,44.24C1432.21,1564.55,1430.11,1576.48,1425.54,1586.66z"/>
	<path d="M522.15,2003.84c-6.5-5.2-10.84-10.41-13.01-15.18c-16.92-33.83-33.83-84.15-50.75-150.94
		c-4.34-16.92-7.81-28.2-10.84-33.84c-9.54-17.78-16.92-29.06-21.69-33.83c-10.84-10.41-26.46-16.49-46.84-18.65
		c-12.15-1.3-31.23,1.3-57.69,6.94c-30.8,6.94-46.42,15.18-46.42,24.73c0,1.74,1.74,4.34,5.64,7.81c4.77,4.34,7.81,8.67,9.98,12.58
		c3.9,7.37,5.64,16.05,5.64,26.89c0,27.76-6.08,60.29-17.78,97.59c-13.88,42.94-29.93,70.7-48.15,83.71
		c-15.62,10.85-22.99,25.16-22.99,42.95c0.43,19.95,19.95,29.93,59.86,29.93c26.46,0,45.11-1.3,55.09-4.33
		c20.82-5.64,31.23-18.65,31.23-38.61c0-5.2-2.6-10.84-8.24-16.91c-8.24-9.11-13.88-15.18-16.05-18.65
		c-5.64-9.54-8.24-20.82-8.24-33.83c0-17.78,5.2-29.93,16.05-36.44c8.24-1.3,12.15-2.16,12.15-2.16c11.28,0,21.68,1.73,31.23,5.64
		c12.58,4.77,19.09,12.15,19.09,21.25c0,26.89-6.51,46.85-19.52,59.86c-2.17,8.24-3.04,16.05-3.04,22.56
		c0,17.78,7.81,29.5,23.85,35.57c9.54,3.91,25.16,5.64,46.85,5.64c21.68,0,39.91-2.6,55.09-7.37c22.99-6.94,35.57-18.65,36.43-35.57
		c0.87-10.84-0.87-19.08-4.34-25.16C532.56,2012.95,528.66,2008.62,522.15,2003.84z M375.11,1881.09c-1.3-0.87-5.2-1.3-10.84-1.3
		c-3.47,0-13.88,1.3-17.35,1.3c-7.37,0-11.28-1.3-11.28-3.91c0-5.64,2.17-13.88,6.94-24.73c5.64-12.58,10.84-18.65,15.61-18.65
		c8.25,0,14.75,6.07,19.52,17.78c5.2,13.01,7.81,20.82,7.81,22.99C385.52,1878.49,382.05,1880.66,375.11,1881.09z M787.62,1966.54
		c2.17,4.77,3.47,14.31,3.47,29.06c0,36.87-5.64,62.03-16.49,76.34c-5.64,7.37-13.88,10.85-24.29,10.85c-1.74,0-4.34,0-8.25-0.43
		c-3.04-0.44-5.64-0.44-6.94,0l-22.12,0.87c-13.45,1.74-30.8,2.17-52.05,1.74c-36.43-0.87-53.78-1.3-52.49-1.3
		c-36.43,0-54.65-13.44-54.65-40.77c0-6.08,3.9-16.92,11.71-32.97c8.68-17.35,13.88-29.93,15.18-37.74
		c5.64-34.7,9.11-68.97,8.68-102.8c0-33.4-4.77-53.35-13.01-60.29c-2.6-1.3-6.08-3.47-10.85-6.5c-3.47-3.47-5.2-8.25-5.2-14.75
		c0-11.71,7.37-20.82,22.56-26.46c12.58-4.77,27.76-7.37,45.98-6.94c25.6,0.43,43.81,3.47,54.22,9.11
		c9.11,4.77,13.44,11.71,13.44,21.26c0,16.91-14.31,17.35-19.08,29.49c-4.77,12.58-7.81,29.93-7.81,52.49
		c0,31.67,0.43,49.02,0.87,52.49c6.51,39.47,16.05,59.42,28.63,59.42c8.25,0,16.49-2.6,24.29-7.81
		c11.71-7.37,19.52-12.14,23.42-13.88c7.81-3.04,13.45-4.77,17.35-4.77c3.91,0,7.37,1.3,11.28,3.9
		C782.42,1960.9,786.33,1964.37,787.62,1966.54z M1187.55,1796.51c-3.47,1.74-6.94,3.47-10.41,5.64
		c-6.51,3.47-12.15,12.15-17.35,25.6c-3.9,10.84-6.51,21.25-7.81,31.23l-13.88,117.11c0,15.62,2.17,26.46,6.08,32.1
		c7.37,8.24,17.78,17.78,17.78,26.89c0,19.52-3.47,32.09-9.98,38.6c-6.51,6.51-19.95,9.54-40.34,11.28
		c-4.77,1.3-10.84,1.73-18.22,1.73c-29.93,0-49.02-0.87-56.82-2.17c-9.98-1.73-16.48-5.2-19.95-10.41
		c-7.37-8.24-11.28-20.82-11.28-37.74c0-6.5,3.04-12.15,9.54-16.91l13.44-9.98c0.43-0.87,0.87-2.17,0.87-4.34
		c0-3.91-1.3-11.71-3.9-22.56l-6.94-30.8c-3.47-16.05-4.34-24.29-4.77-25.16c-3.47-11.71-8.24-17.35-14.32-17.35
		c-7.37,0.43-14.31,14.75-21.25,43.81c-6.51,27.33-9.98,42.94-9.98,46.85c0,3.9,0.43,6.5,1.74,8.24
		c7.37,8.24,17.78,17.78,17.78,26.89c0,22.12-4.77,36-14.32,42.07c-8.24,5.21-27.76,7.37-58.56,8.25c-4.77,0-15.18,0.87-30.8,0.87
		c-12.15,0-21.26-0.87-26.89-3.04c-16.05-1.74-27.33-6.51-33.4-13.88c-5.64-6.5-8.68-16.91-8.68-31.23c0-4.34,2.6-9.11,8.25-14.32
		c6.5-6.5,9.98-10.41,11.28-12.58c3.04-6.07,5.64-14.75,6.94-26.46v-2.6c0-37.3-2.17-71.57-6.94-103.24
		c-5.64-36-13.01-58.56-22.99-68.53c-7.37-5.2-17.35-7.37-17.35-22.56c0-12.58,8.24-21.69,24.73-27.33
		c11.28-3.91,24.73-6.07,40.77-6.07c47.28,0,70.7,9.98,70.7,30.36c0,6.5-1.74,11.71-5.64,14.74c-6.51,5.21-10.41,8.24-10.84,9.54
		c-0.87,2.17-1.3,4.77-1.3,6.94c0,3.04,2.17,10.84,6.94,23.42c9.11,24.29,16.05,36.44,21.25,36.44c6.08,0,12.58-3.91,19.09-12.15
		c6.5-8.24,9.98-15.61,10.41-22.12c0.43-11.28-1.3-20.82-6.07-28.19c-2.17-3.04-6.51-7.81-13.88-14.32
		c-5.2-4.77-7.81-9.54-8.24-14.31c-0.87-21.26,18.65-31.67,58.56-31.67c16.05,0,27.33,1.3,34.7,3.47
		c12.58,3.91,19.08,12.15,19.08,24.29c0,5.2-3.04,10.84-9.11,16.49c-6.08,5.64-9.11,9.54-9.11,12.58c0,5.2,1.74,12.58,5.64,22.12
		c3.91,9.54,7.81,16.49,11.28,20.39c4.77,6.51,9.98,13.45,16.91,13.45c1.3,0,6.08-7.37,14.32-21.69
		c8.24-14.32,12.15-23.42,12.15-26.46c0-5.2-3.47-9.11-10.84-12.15c-7.37-3.04-10.85-9.11-10.85-17.78
		c0-11.71,6.94-20.39,21.26-26.46c10.41-4.77,22.12-6.94,35.57-6.94c39.47,0,59.42,9.98,59.42,30.36
		C1191.02,1790.44,1189.72,1794.34,1187.55,1796.51z M1492.06,2003.84c-6.5-5.2-10.84-10.41-13.01-15.18
		c-16.92-33.83-33.83-84.15-50.75-150.94c-4.34-16.92-7.81-28.2-10.84-33.84c-9.54-17.78-16.92-29.06-21.69-33.83
		c-10.84-10.41-26.46-16.49-46.84-18.65c-12.15-1.3-31.23,1.3-57.69,6.94c-30.8,6.94-46.42,15.18-46.42,24.73
		c0,1.74,1.74,4.34,5.64,7.81c4.77,4.34,7.81,8.67,9.98,12.58c3.9,7.37,5.64,16.05,5.64,26.89c0,27.76-6.08,60.29-17.78,97.59
		c-13.88,42.94-29.93,70.7-48.15,83.71c-15.62,10.85-22.99,25.16-22.99,42.95c0.43,19.95,19.95,29.93,59.86,29.93
		c26.46,0,45.11-1.3,55.09-4.33c20.82-5.64,31.23-18.65,31.23-38.61c0-5.2-2.6-10.84-8.24-16.91c-8.24-9.11-13.88-15.18-16.05-18.65
		c-5.64-9.54-8.24-20.82-8.24-33.83c0-17.78,5.2-29.93,16.05-36.44c8.24-1.3,12.15-2.16,12.15-2.16c11.28,0,21.69,1.73,31.23,5.64
		c12.58,4.77,19.09,12.15,19.09,21.25c0,26.89-6.51,46.85-19.52,59.86c-2.17,8.24-3.04,16.05-3.04,22.56
		c0,17.78,7.81,29.5,23.85,35.57c9.54,3.91,25.16,5.64,46.85,5.64c21.69,0,39.91-2.6,55.09-7.37c22.99-6.94,35.57-18.65,36.43-35.57
		c0.87-10.84-0.87-19.08-4.34-25.16C1502.47,2012.95,1498.57,2008.62,1492.06,2003.84z M1345.02,1881.09
		c-1.3-0.87-5.2-1.3-10.84-1.3c-3.47,0-13.88,1.3-17.35,1.3c-7.37,0-11.28-1.3-11.28-3.91c0-5.64,2.17-13.88,6.94-24.73
		c5.64-12.58,10.84-18.65,15.61-18.65c8.24,0,14.75,6.07,19.52,17.78c5.2,13.01,7.81,20.82,7.81,22.99
		C1355.43,1878.49,1351.96,1880.66,1345.02,1881.09z M1798.74,1781.33c0,5.64-1.3,9.98-4.34,12.58c-5.2,5.2-7.81,9.11-21.69,14.32
		c-10.84,4.34-17.35,6.94-20.39,9.11c-2.6,2.16-6.07,6.07-10.84,12.57c-16.92,18.22-27.33,29.93-31.23,35.57
		c-10.41,13.44-15.62,25.59-15.62,36v7.37c8.68,57.25,16.49,90.22,22.99,99.33c7.37,8.24,17.78,17.78,17.78,26.89
		c0,23.85-6.08,38.17-18.22,43.81c-9.11,4.34-33.4,6.51-73.74,6.51c-32.53,0-53.78-3.04-64.63-9.54
		c-10.85-6.51-16.05-19.09-16.05-37.74c0-4.34,2.6-9.11,7.81-14.32c6.51-6.5,10.41-10.41,11.71-12.58
		c3.9-7.37,8.24-25.59,13.01-53.78c4.34-24.29,6.94-42.94,8.24-55.95c0-1.3-2.16-4.77-6.5-11.28c-5.64-7.81-9.54-15.61-12.58-23.42
		c-5.2-9.54-11.28-21.69-18.65-36c-3.04-3.91-6.94-7.81-12.58-11.71c-9.11-6.5-13.88-9.98-13.88-9.98c-2.6-1.3-6.07-3.47-10.84-6.5
		c-3.04-3.47-4.77-8.25-4.77-14.75c0-11.71,7.37-20.82,22.56-26.46c12.15-4.77,27.33-7.37,45.98-6.94
		c25.59,0.43,43.37,3.47,54.22,9.11c8.68,4.77,13.02,11.71,13.02,21.26c0,11.71-6.51,15.18-12.15,19.95
		c-5.64,4.77-9.54,12.58-7.81,21.25c3.47,17.78,11.28,26.89,22.99,26.89c4.33,0,9.54-5.2,16.05-15.62c1.3-5.2,3.91-11.28,7.37-18.22
		c2.6-5.2,3.91-8.67,3.91-10.41s-1.74-2.17-7.37-6.07c-3.47-3.47-5.2-8.25-5.2-14.75c0-22.12,22.99-33.4,68.53-33.4
		C1780.96,1754.44,1798.74,1763.54,1798.74,1781.33z M2041.22,1966.11c0,35.13-11.28,63.77-34.27,86.32
		c-22.56,22.56-51.18,33.83-85.88,33.83c-35.57,0-64.63-9.11-86.75-26.02c-24.73-19.09-36.87-45.54-36.87-80.25
		c0-17.35,9.11-26.02,26.89-26.02c5.64,0,11.71,2.6,17.78,6.5c6.51,4.34,15.18,6.08,26.89,6.08c19.95,0,29.93-9.54,29.93-28.63
		c0-6.5-6.51-15.18-19.95-26.46c-19.95-17.35-32.1-28.19-36.01-32.97c-13.44-14.75-19.95-29.5-19.95-44.25
		c0-26.46,10.41-47.28,31.67-62.46c18.65-13.44,41.64-20.39,68.97-20.39c8.68,0,21.26,1.74,37.3,4.77
		c16.49,3.04,29.06,4.77,38.17,4.77c15.61,0,23.43,17.78,23.43,53.78c0,20.39-8.24,30.8-24.29,30.8c-11.28,0-22.12-8.24-32.53-24.73
		c-9.98-16.49-19.95-24.73-29.5-24.73c-21.25,0-31.66,7.81-31.66,22.99c0,9.11,11.71,19.09,35.57,30.36
		c32.1,15.18,53.78,27.76,65.5,37.74C2029.51,1907.55,2041.22,1934.01,2041.22,1966.11z"/>
	<path d="M1806.18,1350.55l-2.6-7.85l-0.16-13c-0.16-13.86-0.49-16.57-2.87-23.13c-1.84-5.09-4.55-9.26-12.24-19.12
		c-3.25-4.17-10.07-13.05-15.11-19.77c-11.53-15.38-15.65-19.55-22.53-22.96c-5.74-2.82-10.62-4.28-23.29-7.1
		c-4.87-1.08-15-3.63-22.47-5.74c-7.53-2.06-18.69-4.98-24.81-6.45c-12.51-3.09-16.09-4.28-23.02-7.85
		c-10.72-5.52-18.63-12.08-30.06-24.91c-16.73-18.85-18.47-21.23-25.08-34.77c-5.52-11.32-8.56-15.33-17.44-23.13
		c-3.46-3.04-8.45-7.58-11.16-10.13c-5.52-5.25-8.07-7.1-13.76-9.91c-6.98-3.52-10.51-4.17-25.83-4.55
		c-13.54-0.38-13.59-0.38-15.76-1.84c-2.6-1.73-5.69-5.63-10.4-13.16c-1.9-2.92-4.49-6.77-5.85-8.45
		c-4.93-6.34-12.78-11.1-25.08-15.38c-8.72-3.03-9.53-3.41-11.7-5.79c-2.17-2.27-3.09-4.06-5.42-10.88
		c-1.08-3.03-3.52-9.15-5.47-13.65c-2-4.44-5.09-11.53-6.93-15.76c-4.12-9.43-9.37-18.31-13.11-22.15c-1.57-1.62-5.42-4.66-8.5-6.77
		c-6.55-4.44-8.77-6.77-9.31-9.59c-0.22-1.08-0.05-5.9,0.38-10.67c0.49-5.69,0.76-16.25,0.76-30.39c0-21.39-0.05-21.82-1.79-35.2
		c-3.63-27.35-4.39-29.46-15.22-41.21c-18.85-20.47-30.76-36.18-39.86-52.48c-16.41-29.35-27.08-53.4-43.33-97.49
		c-7.91-21.55-12.13-32.22-20.31-51.18c-3.52-8.18-10.23-23.94-14.95-34.93c-4.66-11.05-11.54-26.38-15.27-34.12
		c-10.99-22.96-12.84-27.73-19.01-48.31c-6.44-21.34-9.64-28-19.5-40.4c-4.66-5.85-8.72-9.7-14.84-14.03
		c-6.55-4.66-7.91-6.61-12.02-17.49c-5.25-13.86-13.7-30.33-20.96-41c-5.52-8.07-12.62-13.7-19.93-15.81
		c-3.63-1.08-10.78-1.52-14.19-0.87c-6.98,1.25-12.02,4.12-19.28,10.89l-2.33,2.17l-0.92-1.73c-1.57-3.03-3.14-4.06-8.61-5.69
		c-5.85-1.73-9.37-1.9-11.97-0.54c-2.28,1.19-8.94,7.74-10.02,9.86c-1.46,2.87-2.71,10.24-2.01,11.59c0.7,1.35,0.81,1.19-3.25,4.06
		c-4.44,3.14-12.84,10.51-16.25,14.14c-5.96,6.44-8.39,13.32-8.34,23.5c0.06,7.1,1.08,11.97,4.33,20.09c1.84,4.66,2,5.47,1.9,9.96
		c-0.11,6.12-1.35,14.03-2.76,17.6c-1.41,3.58-1.35,5.04,0.16,6.83c0.98,1.14,1.9,1.52,4.12,1.73c2.33,0.22,2.76,0.38,2.49,1.14
		c-1.9,4.71,0.38,8.72,4.93,8.72c1.52,0,1.52-0.11,0.49,2.44c-1.46,3.47,0,5.8,5.2,8.12c3.03,1.35,3.19,1.52,3.19,3.31
		c0,3.9,2.71,6.88,7.75,8.61c3.03,1.03,3.3,1.03,8.45,0.16c3.14-0.54,6.66-1.57,8.39-2.44l3.03-1.46l0.98,1.3
		c0.49,0.76,3.03,5.63,5.58,10.83c2.6,5.2,5.25,10.07,5.9,10.72c0.65,0.7,0.98,1.46,0.76,1.73c-0.27,0.27-2.65,1.3-5.31,2.38
		c-2.71,1.08-6.45,2.87-8.39,4.06c-5.52,3.25-10.67,5.31-17.17,6.82c-3.25,0.76-7.37,1.84-9.15,2.44c-1.79,0.6-3.74,1.03-4.33,0.97
		c-1.08-0.05-11.75,4.77-24.37,11.1c-8.77,4.39-15.22,7.15-24.91,10.67c-11.7,4.22-17.06,5.53-29.46,7.04
		c-4.44,0.54-4.66,0.49-7.04-0.87c-1.35-0.81-4.06-2.6-6.01-4.01c-4.49-3.25-14.95-9.53-24.37-14.62
		c-11.64-6.28-13.97-8.07-24.97-19.55c-5.58-5.79-10.73-11.27-11.54-12.24c-1.79-2.17-7.37-6.55-10.67-8.5
		c-6.45-3.68-19.93-7.26-31.79-8.39c-2.77-0.27-5.15-0.6-5.31-0.7c-0.11-0.16-0.11-0.71,0.11-1.19c0.33-0.81,0.87-0.87,3.74-0.6
		c5.58,0.6,6.12,0.22,7.91-6.28c1.35-4.82,4.66-11.92,7.47-16.14c2.17-3.19,2.33-3.31,4.55-3.31c5.63,0,8.18-1.95,11.27-8.55
		c2.06-4.44,7.74-13.27,9.59-14.84c0.6-0.54,2.44-0.92,5.25-1.08c6.17-0.38,8.94-1.9,13.97-7.8c2.11-2.49,4.33-5.36,4.88-6.34
		c1.41-2.55,1.14-5.85-0.92-12.03c-3.09-9.1-6.39-15-12.46-22.21c-1.95-2.27-5.25-6.88-7.37-10.29
		c-6.12-9.91-10.67-13.32-22.04-16.57c-7.09-2-7.96-2.54-15.27-8.99c-3.14-2.82-6.77-5.69-8.01-6.44
		c-4.82-2.87-12.51-3.74-18.85-2.11c-7.58,1.95-28.81,14.3-33.9,19.77c-1.41,1.47-4.22,5.53-6.23,9.05
		c-2.06,3.52-5.2,8.34-7.04,10.72c-1.79,2.38-4.28,6.01-5.52,8.02c-2.87,4.82-7.37,15.49-8.24,19.6c-0.38,1.79-1.35,4.33-2.17,5.69
		c-0.87,1.35-1.68,3.03-1.9,3.79c-0.65,2.49-1.51,3.79-2.54,3.79c-0.54,0-3.52-0.97-6.66-2.17c-3.14-1.19-6.45-2.17-7.36-2.17
		c-1.68,0-3.74,0.81-4.33,1.79c-0.22,0.33-1.35,0.27-3.03-0.16c-1.52-0.38-3.36-0.54-4.12-0.32c-0.81,0.16-4.39,3.19-7.96,6.71
		c-3.63,3.47-7.09,6.5-7.74,6.77c-0.65,0.22-4.82,1.19-9.32,2.22c-9.64,2.22-22.69,3.36-32.01,2.82c-9.37-0.49-13.43,0.7-21.07,6.44
		c-7.8,5.85-8.99,7.15-23.4,26.16c-9.53,12.62-14.19,24.37-17.17,43.55c-1.35,8.5-1.63,11.1-3.85,40.51
		c-0.7,9.37-1.95,25.46-2.76,35.75c-1.73,21.45-1.73,21.72,2.6,36.29l2.27,7.85v12.73c0,14.41-0.38,17.55-3.52,27.35
		c-2.82,8.89-5.36,18.09-8.34,30.33c-4.55,18.58-8.39,32.88-12.02,44.68c-1.95,6.39-4.12,14.19-4.82,17.28
		c-1.57,7.04-1.3,7.75,4.28,10.94c2.11,1.25,5.9,3.58,8.29,5.2c2.44,1.57,6.77,3.95,9.64,5.3c2.87,1.35,5.2,2.55,5.2,2.66
		c0,0.11,1.3,10.18,2.93,22.31c1.63,12.19,3.25,25.56,3.52,29.73c1.25,15.92,0.43,63.26-1.3,76.37c-0.43,3.57-2.17,13.05-3.79,21.12
		c-3.79,18.96-3.9,19.71-4.88,36.29c-0.43,7.75-1.41,20.53-2.17,28.43c-2.54,27.62-2.98,32.33-4.06,46.58
		c-1.14,14.41-2,21.5-4.6,37.64c-0.76,4.77-1.68,12.95-2,18.14c-0.59,8.67-0.49,11.32,0.81,30.87c0.81,11.76,1.73,25.78,2,31.14
		c1.19,20.09,2.82,31.47,6.28,42.95c1.14,3.74,1.3,5.15,1.03,8.12c-0.38,3.58,0.33,11.64,1.46,17.44c1.14,5.91,3.79,9.05,8.94,10.62
		c3.25,0.98,18.25,2.06,29.68,2.06c10.02,0.05,11.27-0.33,16.52-4.98c2.6-2.28,4.17-3.09,11.91-5.91c4.93-1.79,10.4-3.68,12.19-4.22
		c8.23-2.27,17.82-7.36,25.84-13.7c3.41-2.66,9.37-9.8,10.83-13c1.79-3.79,0.97-9.1-1.79-12.3c-1.73-1.95-7.26-5.36-11.32-6.98
		c-5.74-2.27-17.6-3.25-24.37-1.95c-1.57,0.33-2.92,0.49-3.03,0.38c-0.05-0.06-0.65-2.6-1.25-5.63c-0.65-3.03-2.06-8.5-3.14-12.19
		c-5.69-19.28-6.82-24.86-7.63-36.45c-0.65-9.26,0-14.13,3.03-23.56c1.52-4.6,3.52-12.08,4.55-16.52c1.9-8.61,2.06-11.43,1.62-30.33
		c-0.16-4.87,0.16-8.67,1.19-15.16c0.76-4.76,1.73-11.48,2.22-14.89c1.79-12.4,6.23-39.54,8.34-50.91c1.19-6.39,3.3-18.09,4.6-26
		c1.35-7.9,3.36-18.63,4.39-23.83c1.84-8.99,4.28-23.23,5.69-32.87c0.6-4.06,1.68-6.82,2.33-6.12c0.16,0.16,0.92,3.58,1.68,7.58
		c2.17,11.48,5.47,25.29,8.67,36.56c1.62,5.63,4.06,14.68,5.47,20.04c4.71,18.31,6.72,23.13,14.14,33.47
		c5.25,7.26,6.82,10.18,8.01,14.73c1.41,5.53,2.92,18.04,3.19,26.27c0.27,7.04,0.7,9.8,4.17,26.54c2.11,10.29,5.31,25.62,7.04,34.12
		c6.72,32.77,9.05,42.95,12.84,56.33c4.12,14.62,4.01,13.92,4.49,37.91c0.43,20.58,1.3,33.85,2.76,40.95
		c0.87,4.33,3.31,6.77,9.91,9.91c10.51,5.04,16.41,6.28,22.42,4.71c3.74-0.92,31.14-14.24,36.18-17.55
		c1.79-1.19,5.42-4.12,7.96-6.55c2.6-2.38,4.82-4.39,4.98-4.39c0.16,0,1.52,0.65,2.98,1.46c2.38,1.35,2.71,1.68,2.44,2.87
		c-0.16,0.76-0.43,5.14-0.59,9.75c-0.33,7.91-0.33,8.56,0.87,11.27c2.28,5.31,6.28,7.48,16.52,8.99
		c17.55,2.6,29.68,6.28,45.22,13.59c11.54,5.47,18.63,7.91,26.27,9.21c6.77,1.19,18.04,1.19,25.73,0.06
		c7.26-1.08,14.08-1.08,18.09-0.06c4.66,1.25,10.18,4.33,13.38,7.53c3.09,3.09,9.91,12.02,15.11,19.82
		c9.21,13.76,16.57,16.68,30.55,12.13c7.91-2.54,11-2.38,21.72,1.08c12.89,4.28,24.32,6.07,35.1,5.58
		c10.99-0.49,19.01-3.14,36.83-12.19c16.19-8.23,26.43-11.81,37.75-13.11c9.69-1.14,15.33-0.32,30.33,4.55
		c14.41,4.71,18.9,5.47,31.41,5.42h10.56l16.25-3.36c21.34-4.33,23.61-4.66,32.22-4.6c11.37,0.05,18.41,1.79,34.83,8.77
		c12.89,5.47,22.48,8.34,36.4,10.99c5.58,1.03,8.29,1.24,19.23,1.24c14.57,0,15.44-0.11,32.23-4.98c27.08-7.91,30.38-8.5,46.85-8.5
		c10.67-0.06,14.19,0.16,21.66,1.25c8.02,1.19,11,1.3,29.52,1.41c23.29,0.11,21.12-0.22,34.88,5.2c7.31,2.87,13.59,4.71,21.45,6.28
		c4.06,0.81,7.53,0.97,21.12,0.92c16.03,0,16.47-0.06,32.5-2.27c26.92-3.79,27.4-3.74,40.3,1.62c17.65,7.36,24.69,7.64,43.92,1.73
		c16.47-5.09,27.62-8.99,30.65-10.83c6.23-3.63,10.83-10.24,12.94-18.36C1811.76,1370.64,1810.94,1364.95,1806.18,1350.55z
		 M864.72,639.97c1.41,1.74,3.25,3.63,4.12,4.28c2.82,2.06,2.98,2.33,2.6,3.52c-0.16,0.59-0.54,4.23-0.76,7.96l-0.49,6.77
		l-2.76,4.87c-1.52,2.71-2.76,5.2-2.76,5.58c0,0.38-0.22,0.49-0.54,0.32c-0.32-0.22-0.54-3.57-0.54-8.34c0-4.44-0.27-9.37-0.6-10.94
		c-0.33-1.62-0.65-6.12-0.7-10.02l-0.16-7.1L864.72,639.97z M1066.74,744.39c-1.14,8.99-1.3,9.26-7.1,11.7
		c-6.39,2.71-16.47,9.91-22.86,16.36c-3.14,3.25-7.96,8.07-10.72,10.72c-10.02,9.8-13.97,16.79-18.9,33.15
		c-2.11,6.93-6.44,15.76-11.16,22.69c-7.15,10.45-13,24.91-20.31,49.83c-4.28,14.57-7.53,24.43-13.11,39.54
		c-2.11,5.63-6.07,17.01-8.83,25.18c-2.76,8.18-6.93,20.26-9.21,26.81c-6.77,19.55-14.19,44.74-21.66,73.93
		c-2.55,9.97-6.34,23.88-8.4,30.87c-4.12,14.19-5.63,19.88-9.75,36.72c-1.51,6.34-4.71,17.49-7.09,24.8
		c-4.06,12.73-7.8,26.59-9.21,34.45c-0.38,2.06-0.76,3.63-0.81,3.52c-0.05-0.06-1.03-4.88-2.11-10.67
		c-1.08-5.79-3.63-18.14-5.69-27.35c-9.31-42.03-11.37-57.73-13-98.3c-1.41-35.47-3.68-58.98-8.67-89.9
		c-1.19-7.31-2.27-14.13-2.44-15.17c-0.27-1.73-2.44-25.51-2.44-26.54c0-0.27,1.03-1.51,2.22-2.76l2.27-2.33l-0.32-3.85
		c-0.54-6.28-4.55-21.5-11.54-43.33c-5.42-17-5.31-16.14-5.36-42.79c-0.05-20.96-0.16-24.21-1.3-32.66
		c-0.65-5.2-1.14-9.53-0.98-9.64c0.11-0.11,1.79,0.49,3.68,1.41c1.89,0.87,5.15,2.01,7.2,2.55c3.19,0.76,4.28,0.81,7.58,0.27
		c5.2-0.87,10.72-3.68,15.06-7.69c3.47-3.14,9.21-10.99,12.73-17.33c0.92-1.62,3.73-6.66,6.28-11.1
		c7.37-13.05,10.56-20.63,15.27-36.07c1.41-4.6,3.31-10.07,4.22-12.13c1.35-3.14,1.73-4.82,2-9.48c0.38-6.17,0.92-7.58,4.01-11.32
		c2.65-3.14,2.49-4.39-0.76-7.85c-2.44-2.6-2.71-3.09-2.71-5.36c0-1.35-0.43-3.68-1.03-5.09c-0.54-1.41-1.25-4.23-1.62-6.17
		c-0.33-1.95-1.08-4.98-1.68-6.72c-1.46-4.22-1.35-6.98,0.38-11.15c1.3-3.03,1.46-4.22,1.46-9.43c0.05-5.42-0.11-6.34-1.63-10.29
		c-0.92-2.38-1.89-5.15-2.06-6.12c-0.38-1.46-0.27-1.73,0.65-1.73c0.54,0,1.35,0.43,1.84,0.92c0.43,0.54,1.03,1.57,1.35,2.33
		c0.86,2.06,8.66,12.13,15.22,19.66c2.27,2.65,13.92,14.3,25.83,25.89c14.73,14.3,22.7,22.48,24.91,25.51
		c3.52,4.82,5.69,6.61,9.1,7.53c2.6,0.7,4.01,0.54,14.73-1.35c4.5-0.81,11.91-1.68,16.52-1.95c12.19-0.65,20.53-2.6,33.31-7.74
		l7.04-2.87l-1.46,3.03c-2.82,5.91-4.44,18.9-3.19,25.57c0.92,4.6,3.79,10.24,8.34,16.3c6.18,8.12,6.88,9.43,6.88,12.51
		C1067.76,735.4,1067.28,740.17,1066.74,744.39z M1237.23,830.61c-2.82-2.54-7.04-6.44-9.43-8.72
		c-4.39-4.17-16.63-13.54-22.69-17.33c-6.88-4.33-18.52-8.12-28.22-9.21c-7.37-0.81-8.67-1.41-10.29-4.93
		c-1.08-2.33-1.35-3.73-1.35-7.2c0-2.38,0.27-5.31,0.54-6.5c0.27-1.19,0.87-5.25,1.3-8.99c0.87-7.8,1.95-10.67,6.99-19.44
		c2.82-4.87,5.31-9.91,8.5-17.06c0.65-1.41,0.76-1.46,0.92-0.54c0.16,0.6,0.7,2.6,1.3,4.44c1.41,4.33,3.74,6.5,7.53,6.98
		c2.28,0.33,3.03,0.7,4.17,2.22c2.54,3.36,5.85,4.22,9.75,2.6c1.03-0.43,2.27-0.81,2.71-0.81c1.19,0,2.17,2.98,3.9,11.76
		c2,9.91,4.44,19.28,6.93,26.7c3.14,9.21,13.43,33.2,18.14,42.24l4.39,8.34L1237.23,830.61z"/>
	<path d="M452.38,581.86c7.46,6.45,6.63,16.66-1.58,31.03c-3.83,6.37-10.6,15.66-21.21,27.94c-10.4,12.04-18.62,20.08-24.37,24.79
		c-12.81,9.96-22.59,12.02-29.82,5.78c-2.16-1.88-3.68-4.02-3.91-7.17l-0.62-8.53c-0.22-3.14-4.69-8.68-13.04-18.01
		c-7.35-8.04-13.2-13.93-17.29-17.47l-13.24-11.44c-6.17-4.07-11.14-4.15-14.46-0.3c-1.42,2.13-0.23,6.11,4.06,12.34
		c7.1,10.77,10.7,16.82,11.45,17.9c3.46,7.2,3.64,12.82,0.52,16.44c-3.54,4.09-9.1,5.17-16.72,2.79c-2.31-0.73-8.61-3.66-19.36-8.74
		c-6.79-3.34-11.1-3.71-12.56-2.02c-3.54,4.1,4.22,14.58,23.52,31.69c6.79,3.34,11.2,5.05,13.92,5.3
		c8.12-0.14,18.61-1.58,23.67,2.79c7.23,6.24,12.14,11.75,14.3,16.56c4.02,5.57,3.02,13.54-2.58,23.43
		c-4.42,7.54-11.26,15.93-28.11,35.44c-15.61,18.06-27.49,28.4-36.31,31.3c-8.81,2.9-18.3-0.25-28.65-9.2
		c-2.41-2.08-3.81-5.81-4-11.44c-0.49-6.74-0.78-10.78-1.57-12.3c-3.31-8.33-15.33-24.61-35.36-48.65
		c-19.03-22.76-33.46-38.18-42.85-46.3c-11.32-9.78-23.01-12.32-35.11-8.05c-7.21-2.86-10.68-4.19-10.68-4.19
		c-6.99-6.04-8.09-14.98-3.52-26.6c3.24-8.14,8.49-16.64,16.2-25.55c13.11-15.17,22.61-24.21,28.49-27.12
		c5.22-2.64,11.34-2.41,18.36,1.14c15.44,7.45,25.22,11.7,29.15,13c7.2,2.86,14.64,5.93,22.06,8.55c11.1,3.71,17.9,4.12,20.61,0.99
		c3.75-4.33-0.32-13.74-12.83-27.5l-23.81-26.48c-6.11-9.48-7.03-19.12-3.23-28.87c2.3-5.58,8-14.12,17.57-25.2
		c21.41-25.25,38.01-32.78,49.33-22.99c2.89,2.5,4.9,8.44,6,17.39c1.1,8.94,4.77,15.9,10.79,21.1c13,11.24,31.35,24.57,55.63,38.83
		c19.56,11.44,39.54,22.4,59.1,33.84c3.55,2.22,8.76,2.52,16.12,1.31C443.52,577.99,448.77,578.74,452.38,581.86z M554.87,469.99
		c-7.77-2.65-26.53-18.96-56.18-49.39l-3.15-4.39c-4.45-6.21-6.54-15.67-6.09-28.14c-0.08-5.03,1.11-16.47,3.41-34.56
		c0.06-5.92,0.46-9.73,1.08-12.14c0.88-2.59,3.65-6.93,8.26-14.15c6.05-9.04,5.93-12.48,6.81-17.81c0.7-2.85-0.38-6-2.8-9.35
		c-7.6-10.6-22.1-8.43-43.05,6.6c-27.15,19.48-36.04,36.04-26.58,49.22c2.79,3.88,5.86,5.98,9.41,6.57c5.04-0.08,6.25-0.57,7,0.46
		c0.74,1.03,1.45,3.66,2.12,7.88c0.9,5.62,1.95,10.35,3.39,14.02c0.57,8.99-0.3,14.32-2.89,16.17c-6.99,5.01-15.53,2.92-25.21-6.2
		c-4.75-4.43-5.76-10.75-4.44-16.01c1.32-5.25,3.72-10.11-1.29-17.09c-4.09-5.69-9.64-7.97-16.85-7.11
		c-8.88,1.27-20.78,7.07-36.22,17.76c-11.31,7.72-19.24,15.76-24.44,23.8c-6.64,9.85-7.14,18.44-2.13,25.42
		c2.79,3.88,5.86,5.98,9.16,6.75c4.14-0.23,7.14-0.42,9.25-0.76c0,0,4.33,0.03,12.54,0.01c5.04-0.08,9.03,0.57,12.51,1.6
		c10.52,5.38,19.33,10.03,26.52,13.49c5.15,3.35,10.82,6.34,17.52,8.58c5.37,2.02,8.15,3.16,8.7,3.94
		c4.79,8.31,11.22,20.55,19.02,36.88c9.22,18.85,14.42,31.57,15.25,37.63c0.15,1.85-0.51,5.84-1.6,12.5
		c-0.88,5.33-0.39,9.29,1.47,11.87c7.98,11.12,16.46,16.4,25.71,15.63c9.25-0.76,23.22-8.04,42.61-21.95
		c24.05-17.26,37.6-28.93,41.18-35.42c4.83-8.55,2.33-19.68-7.88-33.91C573.08,472.98,562.79,471.75,554.87,469.99z M804.83,373.99
		c-13.22-5.75-21.18-11.01-23.99-15.08c-12.3-19.26-22.84-41.18-30.85-66.37c-1.84-6.1-2.94-10.1-2.88-11.81
		c0.13-3.43,2.59-6,7.09-7.6c5.69-2.04,12.05-1.27,18.77,2.41c6.72,3.68,11.29,5.09,13.38,4.33c6-2.14,7.85-9.23,5.71-15.22
		c-8.47-23.67-14.26-35.12-17.55-33.94c-3.6,1.28-7.55,9.12-10.85,10.3c-7.79,2.79-15.03,3.35-21.3,1.88
		c-7.09-1.86-12.12-6.48-14.8-13.97c-2.57-7.19,2.92-13.55,16.6-18.78c10.98-4.26,20.64-4.68,28.56-1.43
		c2.74,1.04,8.16,4.86,16.15,11.12c5.22,4.21,10.38,5.41,15.18,3.7c5.69-2.04,8.92-6.23,10.1-12.4c1.19-5.16,0.57-10.68-1.68-16.98
		c-3.54-9.89-8.55-18.23-15.45-25.23c-8.66-9.08-17.18-12.11-25.57-9.11c-6.29,2.25-16.16,6.8-29,13.42
		c-12.95,6.32-23.11,10.98-30,13.44c-15.29,5.46-22.18,7.93-20.68,7.39l-4.19,1.5c-2.2,0.45-3.7,0.99-4.6,1.31
		c-12.69,4.2-22.54,9.75-30.05,16.16c-9.09,7.65-11.94,15.76-9.04,23.85c1.61,4.49,3.99,7.36,7.24,8.9c4.05,0.92,6.98,1.56,9.1,1.82
		c6.59,2.37,13.99,13.58,21.17,33.66l0.1,0.3l32.18,86.17c3.21,8.99,4.02,17.83,0.38,26.57l-6.88,16.66
		c-3.16,7.22-3.44,13.06-2.05,16.95c3.54,9.89,10.45,13.16,20.65,9.52l56.12-20.76c2.7-0.97,7-2.16,13.4-4.12
		c6.51-1.65,11.11-2.96,14.41-4.14c12.29-4.4,17.4-9.95,15.64-16.75C823.69,385.15,816.93,379.46,804.83,373.99z M1055.03,267.03
		c4.13,26.41-2.48,49.99-19.49,71.02c-16.26,19.62-37.57,31.65-64.29,35.83c-29.87,4.68-55.59-3.22-77.2-23.99
		c-19.38-18.87-31.64-43.69-36.46-74.5c-5.32-33.96-1.77-64.79,10.59-92.82c14.29-32.19,37.44-50.96,69.51-55.98
		c31.13-4.87,57.83,9.31,80.37,42.18C1036.79,195.8,1048.97,228.36,1055.03,267.03z M979.72,236.62
		c-2.16-13.83-7.72-28.75-16.31-44.47c-10.84-19.89-21.9-28.79-32.9-27.06c-6.6,1.03-10.9,6.54-12.83,16.83
		c-1.7,7.67-1.73,15.73-0.4,24.22c2.21,14.15,6.53,27.32,13.17,38.85c8.9,15.68,19.3,22.43,31.56,20.51
		C976.48,263.22,982.38,253.6,979.72,236.62z M1516.27,192.56c1.37,9.6,0.74,19.32-1.99,29.46c-1.74,6.45-4.37,11.35-7.99,14.99
		c-4.79,4.31-9.83,5.92-15.67,4.35c-5.53-1.49-9.48-5.19-12.07-11.49c-3.78-9.25-6.84-15.02-9.33-18
		c-6.27-7.29-16.59-13.03-31.35-17l-6.76-1.82c-2.4,0.34-4.29,2.47-6.28,6.21c-0.72,1.46-1.36,2.6-1.78,4.14
		c-1.82,6.76,0.08,13.2,5.68,19.32c4.85,5.26,11.42,9.01,19.72,11.24c3.38,0.91,10.42-4.45,13.8-3.54c3.08,0.83,4.03,3.39,2.79,8
		c-1.9,7.07-4.72,13.89-8.3,19.85c-5.24,8.47-10.17,12.1-15.4,10.69c-3.38-0.91-5.79-4.19-7.46-10.25c-1.36-5.97-5-9.58-10.84-11.16
		c-6.45-1.73-11.32,2.89-14.21,13.64c-6.86,25.51,4.42,42.38,34.23,50.41c2.46,0.66,9.8,0.32,12.32,1.99
		c1.45,0.72,2.68,1.05,3.6,1.3c5.22,1.41,9.88,0.02,14.58-3.99c4.71-4.01,8.13-5.72,10.29-5.15c6.15,1.65,8.56,13.51,6.66,20.58
		c-0.58,2.15-1.98,7.38-3.68,16.15c-1.93,8.38-3.21,15.61-4.7,21.15c-6.69,24.89-16.3,39.78-28.43,44.43
		c-4.74,1.69-17.98-0.55-40.11-6.5c-6.15-1.65-14.45-3.88-25.28-6.47c-9-2.09-17.52-4.71-25.82-6.94l-57.7-15.85
		c-7.35-1.97-11.34-5.87-12.19-11.41c-0.2,0.12-0.35,0.23-0.56,0.35l-7.9,4.33c-3.83,0.1-10.23,0.37-18.89,1.47
		c-7.38,0.86-13.45,1.14-18.54,0.86c-21.92-1.25-36.69-10.7-43.95-28.65c-3.64-8.82-6.44-26.83-8.38-54.35
		c-1.87-23.06-6.42-38.3-13.67-45.41c-2.41-2.37-5.56-3.19-9.11-2.43c-6.13,1.24-8.87,4.59-8.23,10.05
		c2.73,30.44,5.81,49.11,10.55,55.43c4.72,6.65,12.29,13.77,11.91,20.45c-1,17.48-6.05,27.71-14.86,31.35
		c-6.86,2.8-25.06,3.35-54.61,1.67c-24.15-1.38-40.23-4.53-47.92-9.43c-7.67-5.22-10.64-14.63-9.21-28.58
		c0.5-3.16,2.61-6.55,6.64-10.14c5.04-4.5,7.74-7.21,8.78-8.75c3.2-5.87,7.89-20.91,13.43-45.46c5.08-22.02,9.14-42.83,12.18-62.74
		c0.6-21.65-1.52-34.84-6.37-39.25c-1.85-1.06-4.3-2.8-7.67-5.22c-2.39-2.69-3.47-6.25-3.19-11.02c0.49-8.58,6.27-14.95,17.63-18.44
		c9.1-2.99,20.34-4.58,33.97-3.16l13.31,1.39c18.8,0.12,30.9,0.49,35.66,0.76c17.48,1,32.85,5.38,45.79,13.13
		c16.03,9.52,23.61,22.06,22.69,38.27c-1.14,20.02-12.87,35.61-35.15,46.14c1.85,6.8,6.02,11.82,12.83,15.4
		c10.21,5.36,15.17,7.88,15.49,7.9c8.16,7.8,14.42,15.49,18.1,23.67c3.41,7.21,6.05,16.92,7.92,28.83
		c2.5,17.67,7.05,32.92,13.65,45.72c0.26,0.98,2.96,4,7.74,9.69c1.11,1.35,1.98,2.57,2.73,3.73c1.29-1.79,2.98-3.33,5.19-4.61
		c6.63-3.82,10.23-6.15,11.17-7.22l8.31-7.65c4.01-3.87,8.99-15.05,14.65-33.63l23.78-78.63c2.12-6.68,4.31-12.35,5.1-17.74
		c1.97-11.01,1.03-18.51-1.92-22.27c-1.6-1.42-3.64-3.61-6.44-6.67c-1.8-3.12-2.11-6.83-0.88-11.44
		c2.23-8.29,9.19-13.35,21.02-14.45c9.82-0.98,21.07,0.06,33.9,3.85c4.92,1.32,17.19,5.94,22.41,7.34c7.07,1.9,18.6,4.34,34.53,7.64
		c15.92,3.29,27.46,5.73,33.91,7.47C1509.06,172.83,1514.33,180.18,1516.27,192.56z M1169.95,148.68
		c-5.4-0.31-11.39,4.13-10.75,9.59l0.67,32.88c0.01,5.42,1.76,8.39,5.25,8.59c6.35,0.36,11.62-2.53,15.78-8.34
		c3.8-5.2,5.75-11.47,6.14-18.14C1187.93,157.67,1182.34,149.38,1169.95,148.68z M1728.43,328.16c1.85-1.57,7.4-3.42,16.51-5.28
		c7.25-1.72,12.09-5,14.79-10.41c3.41-7.55,1.83-15.09-4.87-23.05c-5.27-5.83-11.97-10.95-20.23-15.07
		c-28.2-14.06-46.14-13.76-53.67,1.34c-2.7,5.41-2.55,10.11,0.58,14.52c3.14,4.41,3.71,8.96,1.58,13.24
		c-4.55,9.12-12.22,18.8-23.17,29.35c-12.8,12.11-22.9,17.39-30.45,16.12c-3.71-4.69-4.86-15.23-3.59-31.31
		c1.26-14.66,3.67-25.91,6.94-33.18c5.53-13.24,17.63-17.53,19.05-19.66c1-1.28,1.99-2.56,2.99-4.56
		c3.12-6.27,2.55-12.25-1.87-18.36c-4.99-7.12-15.96-15.07-32.63-23.74c-11.82-6.25-22.65-9.51-32.47-10.5
		c-11.82-1.27-19.64,2.3-23.48,9.99c-2.13,4.27-2.55,7.98-1.41,11.39c2.14,3.56,3.71,6.12,4.99,7.82c2.28,4.7,2.58,12.67,1.16,24.06
		l-3.39,24.63c-0.71,4.27-4.11,23.21-11.04,55.68c-6.66,31.18-10.47,55.25-11.03,72.05c-0.83,25.2,4.6,40.71,16.28,46.53
		c3.71,1.85,8.69,3.26,14.67,4.11c7.69,0.99,13.67,0.41,17.94-1.73c10.67-5.71,31.72-25.8,62.86-60.43
		C1690.32,363.22,1714.63,338.71,1728.43,328.16z M2062.21,622.79c-15.27,13-34.64,15.29-57.64,6.44
		c-3.64,6.03-4.39,12.52-2.27,19.91c3.17,11.09,4.78,16.42,4.99,16.65c-0.01,11.29-1.24,21.13-4.62,29.43
		c-2.86,7.45-8.07,16.06-15.38,25.64c-11.06,14.02-18.94,27.84-23.65,41.45c-0.52,0.86-0.85,4.9-1.66,12.29
		c-0.68,5.59-1.86,9.11-4.04,10.97c-1.7,1.44-4.39,1.23-8.35,0l-8.59-2.72c-2.72-2.7-7.33-7.14-14.12-12.64
		c-5.71-4.75-10.12-8.94-13.42-12.82c-14.24-16.72-17.6-33.93-9.63-51.58c3.86-8.72,14.95-23.19,33.53-43.6
		c15.39-17.28,23.27-31.1,23.4-41.25c0.04-3.38-1.53-6.22-4.53-8.27c-5.14-3.57-9.45-3.24-12.95,1
		c-20.13,22.99-31.51,38.12-32.81,45.91c-1.55,8.01-1.48,18.4-6.57,22.73c-13.33,11.35-24.21,14.76-32.94,10.9
		c-6.76-3.03-19.73-15.8-38.92-38.34c-15.68-18.42-24.51-32.22-26.27-41.17c-0.63-3.78-0.12-7.48,1.4-11.12
		c-6.29,3.82-12.31,5.76-18.01,5.57c-5.03-0.28-16.36-7.48-34.44-21.55c-5.03-3.91-11.81-9.19-20.79-15.77
		c-7.48-5.42-14.32-11.14-21.1-16.42l-47.03-36.98c-8.54-6.64-9.49-14.24-3.23-22.27c2.54-3.27,5.94-5.06,10.41-5.61
		c7.59-0.95,11.81-1.7,13.09-2.31l10.63-3.83c5.19-2.01,14.12-10.38,26.54-25.32l52.42-63.24c4.55-5.33,8.76-9.72,11.58-14.38
		c6.08-9.38,8.12-16.66,6.86-21.27c-0.92-1.93-1.95-4.74-3.35-8.65c-0.44-3.57,0.7-7.12,3.63-10.88c5.27-6.78,13.65-8.74,24.98-5.16
		c9.43,2.9,19.4,8.24,29.76,16.69c4.02,3.13,13.53,12.15,17.8,15.47c5.78,4.49,15.47,11.22,28.86,20.43
		c13.4,9.21,23.08,15.94,28.36,20.04c7.28,5.66,9.29,14.48,6.28,26.66c-2.46,9.37-6.81,18.08-13.26,26.37
		c-4.1,5.28-8.43,8.77-13.17,10.72c-6.09,2.12-11.36,1.65-16.14-2.07c-4.52-3.51-6.72-8.45-6.67-15.27
		c0.11-9.99-0.48-16.5-1.62-20.21c-2.96-9.16-10.24-18.45-22.3-27.83l-5.52-4.3c-2.34-0.61-4.91,0.62-8.21,3.29
		c-1.23,1.06-2.26,1.87-3.24,3.13c-4.3,5.52-5.05,12.2-2.26,20.01c2.43,6.72,7.03,12.72,13.81,18c2.77,2.15,11.34-0.06,14.1,2.09
		c2.51,1.96,2.4,4.69-0.53,8.46c-4.49,5.78-9.74,10.97-15.35,15.07c-8.12,5.78-14.07,7.2-18.34,3.88c-2.76-2.15-3.71-6.12-2.9-12.34
		c1.06-6.03-0.9-10.77-5.67-14.48c-5.27-4.1-11.55-1.73-18.4,7.06c-16.22,20.85-12.37,40.78,12,59.73
		c2.01,1.56,8.91,4.11,10.58,6.62c1.06,1.23,2.07,2.01,2.82,2.59c4.27,3.32,9.1,3.86,14.99,1.99c5.89-1.87,9.71-2.12,11.47-0.76
		c5.03,3.91,2.65,15.77-1.84,21.55c-1.37,1.76-4.69,6.03-9.66,13.45c-5.02,6.98-9.01,13.15-12.53,17.67
		c-1.92,2.46-3.81,4.76-5.69,6.92c1.54-0.15,3.2-0.2,5.1-0.05c6.73,0.54,10.56,0.62,12.39,0.32c6.46-1.74,20.57-8.74,42.16-21.68
		c19.44-11.54,37.29-22.97,53.8-34.52c16.07-14.51,24.14-25.15,23.99-31.72c-0.51-2.07-0.95-5.04-1.52-9.15
		c0.29-3.59,2.13-6.83,5.76-9.93c6.54-5.57,15.14-5.78,25.51,0.01c8.44,4.52,17.37,11.55,25.75,22.39l8.19,10.59
		c12.9,13.68,20.98,22.68,24.08,26.32c11.35,13.33,18.79,27.47,22.13,42.19C2078.41,598.12,2074.57,612.27,2062.21,622.79z
		 M2019.02,550.46c-3.51-4.12-10.86-5.39-14.36-1.15l-23.31,23.19c-3.92,3.75-4.86,7.06-2.59,9.73c4.13,4.85,9.85,6.66,16.93,5.65
		c6.39-0.84,12.27-3.76,17.36-8.09C2024.92,569.67,2027.06,559.91,2019.02,550.46z"/>
</g>
</svg>
