<?xml version="1.0" encoding="utf-8"?>
<!-- Generator: Adobe Illustrator 25.2.0, SVG Export Plug-In . SVG Version: 6.00 Build 0)  -->
<svg version="1.1" id="Layer_1" xmlns="http://www.w3.org/2000/svg" xmlns:xlink="http://www.w3.org/1999/xlink" x="0px" y="0px"
	 viewBox="0 0 2200 2200" style="enable-background:new 0 0 2200 2200;" xml:space="preserve">
<g>
	<path d="M184.5,1761.7c-4.96-4.34-10.75-8.2-18.8-12.57c-5.14-2.79-12.01-5.77-15.73-6.79c-2.77-0.76-3.2-0.98-3.2-1.56
		c0-0.47,1.13-1.17,2.14-1.34c0.7-0.12,4.15,0.09,6.67,0.43c0.79,0.1,2.37,0.27,3.47,0.36c1.13,0.11,3,0.32,4.17,0.46
		c13.25,1.65,17.11,1.25,24.21-2.11c6.56-3.11,11.13-8.65,14.7-17.84c3.16-8.15,7.19-22.46,8.34-29.64
		c0.07-0.56,0.34-1.14,0.56-1.29c0.25-0.17,0.52-0.27,0.63-0.24c0.09,0.02,0.25,2.42,0.32,5.3c0.23,9.94,1.71,16.61,6.56,29.27
		c4.12,10.76,9.67,20.29,14.83,25.52c7.53,7.65,15.83,12.45,27.57,15.88c2.41,0.71,12.65,3.17,14.88,3.58
		c0.81,0.15,0.23,0.44-1.06,0.53c-2.3,0.15-4.73,0.51-9.65,1.4c-15.57,2.82-22.3,4.67-28.11,7.85c-4.83,2.65-9.15,7.76-11.77,13.96
		c-1.57,3.71-2.4,7.07-3.85,15.48c-1,5.8-1.78,13.29-1.96,18.63c-0.09,2.68-0.23,4.24-0.38,4.34c-0.47,0.28-3.59-0.13-4.04-0.54
		c-0.27-0.24-0.56-1.22-0.97-3.14c-1.13-5.53-2.7-11.06-6.22-22.08C199.29,1778.96,195.12,1771.01,184.5,1761.7z M524.67,1894.46
		c-1.06-0.57-2.75-0.75-11.83-1.28c-4.64-0.28-9.01-0.6-9.69-0.68c-0.68-0.08-2.51-0.29-4.06-0.46c-3.42-0.37-8.63-1.1-10.48-1.44
		c-1.78-0.31-3.72-0.66-6.87-1.2c-1.42-0.24-3.49-0.62-4.62-0.83c-1.11-0.21-2.59-0.5-3.27-0.63c-0.68-0.13-2.42-0.47-3.83-0.76
		c-1.41-0.3-3-0.63-3.49-0.71c-0.5-0.09-2.94-0.62-5.41-1.17c-2.47-0.55-5.07-1.13-5.75-1.28c-0.68-0.16-1.65-0.39-2.14-0.52
		c-0.49-0.13-2.28-0.6-3.94-1.04c-10.72-2.8-17.02-5.47-24.34-10.23c-4.78-3.12-10.26-8.63-15.4-15.55
		c-0.7-0.96-1.28-1.77-1.28-1.85c0-0.06-0.29-0.5-0.63-0.98c-1.01-1.4-5.68-9.55-5.68-9.94c0-0.04-0.34-0.76-0.77-1.6
		c-1.33-2.62-3.02-6.21-3.47-7.37c-1.93-4.92-3-7.96-4.21-12.44c-0.2-0.73-0.56-2.03-0.81-2.91c-0.41-1.44-1.05-4.32-1.56-6.82
		c-0.3-1.49-0.65-3.27-0.9-4.45c-0.14-0.61-0.34-1.76-0.45-2.52c-0.25-1.61-0.58-3.5-0.92-5.25c-0.46-2.34-0.62-3.27-0.97-5.76
		c-0.46-3.32-0.81-5.37-1.06-6.41c-0.11-0.47-0.2-1.14-0.2-1.45c0-0.34-0.09-1-0.22-1.47c-0.2-0.88-0.38-2.05-1.04-7.04
		c-0.34-2.56-0.54-3.92-0.99-6.78c-0.09-0.67-0.35-2.72-0.54-4.54c-0.19-1.82-0.4-3.65-0.47-4.04c-0.07-0.39-0.22-1.72-0.36-2.93
		c-0.13-1.23-0.33-3.1-0.43-4.14c-0.18-1.84-0.45-4.89-0.88-11.3c-0.21-3.17-0.45-4.07-1.4-5.38c-0.61-0.85-1.59-1.32-3.65-1.78
		c-1.59-0.35-1.73-0.36-2.25,0.02c-0.45,0.34-0.58,0.71-0.7,1.98c-0.08,0.84-0.33,2.67-0.52,4.01c-0.19,1.34-0.42,3.13-0.52,3.93
		c-0.54,4.4-0.7,5.26-0.79,5.79c-0.07,0.31-0.27,1.68-0.45,3.04c-0.18,1.36-0.44,3.07-0.56,3.82c-0.12,0.73-0.33,1.98-0.45,2.74
		c-1.51,9.12-1.71,11-2.23,13.69c-0.36,1.91-0.68,4.03-0.92,5.57c-0.12,0.79-0.33,2.04-0.45,2.74c-0.43,2.39-0.68,3.83-0.9,5.08
		c-0.12,0.69-0.33,1.95-0.45,2.74c-0.12,0.79-0.34,2.08-0.47,2.83c-0.41,2.41-0.65,3.97-0.86,5.32c-0.23,1.41-1.54,8.92-1.83,10.42
		c-0.55,2.84-1.25,5.82-2.05,8.47c-0.5,1.67-1.01,3.39-1.13,3.82c-0.09,0.43-0.49,1.69-0.88,2.79c-0.39,1.1-0.79,2.29-0.9,2.63
		c-0.23,0.74-1.28,3.4-1.69,4.16c-0.16,0.3-0.36,0.78-0.45,1.05c-0.55,1.59-3.83,7.53-5.52,10.05
		c-5.79,8.62-17.54,16.94-30.09,21.26c-1.47,0.49-5.15,1.61-7.44,2.21c-2.65,0.7-9.65,2-13.64,2.53c-3.9,0.52-3.66,0.5-8.68,0.92
		c-5.6,0.46-5.93,0.48-10.48,0.54c-2.05,0.04-4.18,0.08-4.73,0.1c-4.05,0.15-10.98-0.02-17.24-0.29c-2.52-0.1-10.71-0.74-16.68-1.34
		c-2.47-0.25-6.43-0.64-8.79-0.88c-2.33-0.24-5.52-0.63-7.01-0.85c-1.1-0.17-1.65-0.25-2.75-0.42c-0.04,0.34-0.05,0.5-0.09,0.84
		c-0.11,1.07,0.09,1.4,1.19,2.1c1.8,1.15,10.48,4.6,17.22,6.76c1.98,0.64,4.06,1.33,4.62,1.52c0.56,0.2,2.65,0.86,4.62,1.48
		c3.3,1.02,4.24,1.33,7.1,2.24c0.56,0.18,2.59,0.8,4.51,1.41c1.92,0.6,4.36,1.39,5.41,1.76c4.82,1.7,5.79,1.99,6.31,2.23
		c0.32,0.12,0.97,0.37,1.46,0.55c10.98,4.07,20.67,8.51,32.91,15.22c8.16,4.48,13.19,7.78,20.85,13.63
		c4.55,3.48,7.12,5.68,10.73,9.16c3.88,3.74,5.38,5.43,7.46,8.39c1.83,2.61,1.89,2.72,4.04,6.74c2.51,4.7,2.86,5.47,5.46,11.27
		c2.28,5.09,4.51,11.13,5.91,16.04c1.15,3.99,1.3,4.49,2.14,9.39c0.28,1.61,0.92,4.77,1.42,6.95c0.49,2.18,1.08,5.12,1.28,6.54
		c0.2,1.4,0.61,3.46,0.9,4.55c1.07,3.94,1.37,5.65,2.05,11.4c0.09,0.88,0.25,1.38,0.47,1.46c0.68,0.26,0.98,1.64,1.53,6.94
		c0.66,6.36,0.72,6.64,1.24,6.79c0.5,0.15,1.01,2.49,1.35,6.18c0.52,5.8,0.74,7.24,1.17,7.51c0.52,0.34,0.83,1.62,1.1,4.62
		c0.54,5.84,0.88,8.94,1.08,9.93c0.11,0.58,0.32,2.41,0.45,4.06c0.27,3.19,0.54,4.04,1.51,4.6c1.17,0.68,1.67,0.16,2.39-2.48
		c0.88-3.28,1.44-6.29,2.35-12.73c0.2-1.49,0.47-3.33,0.56-4.05c0.22-1.64,0.52-3.84,1.11-9.08c0.49-4.33,0.74-6.2,1.1-8.2
		c0.14-0.69,0.43-2.51,0.68-4.05c0.43-2.7,0.74-4.4,1.01-5.39c0.07-0.27,0.33-1.53,0.58-2.79c0.26-1.26,0.64-3.01,0.83-3.85
		c0.19-0.83,0.43-1.92,0.54-2.4c0.11-0.48,0.29-1.25,0.43-1.73c0.14-0.48,0.44-1.78,0.68-2.88c0.23-1.1,0.52-2.4,0.63-2.88
		c0.13-0.48,0.49-2.05,0.81-3.46c0.33-1.41,0.8-3.33,1.04-4.22c0.23-0.89,0.47-1.94,0.56-2.3c0.09-0.37,0.25-0.98,0.34-1.34
		c0.09-0.36,0.34-1.36,0.54-2.21c0.2-0.84,0.47-1.88,0.59-2.3c0.53-1.93,1.62-5.85,1.8-6.64c0.12-0.51,0.34-1.38,0.47-1.92
		c0.13-0.56,0.34-1.22,0.45-1.49c0.09-0.27,0.33-1.04,0.52-1.72c0.19-0.67,0.79-2.89,1.35-4.88c0.56-2.01,1.15-4.07,1.28-4.59
		c0.23-0.9,0.51-1.78,1.6-4.86c0.51-1.42,1.17-2.98,1.78-4.11c0.25-0.45,0.43-0.89,0.43-0.99c0-0.6,4.01-7.26,5.82-9.61
		c1.51-1.99,3.94-4.69,5.61-6.22c5.93-5.46,18.15-14.83,22.86-17.57c0.54-0.32,1.51-0.87,2.12-1.23c1.46-0.87,7.64-3.94,9.92-4.97
		c1.89-0.84,5.23-2.06,7.19-2.63c3.92-1.14,12.13-2.99,16.03-3.63c6.6-1.08,9.02-1.46,11.95-1.82c6.04-0.74,9.22-1.12,10.59-1.25
		c0.74-0.08,1.92-0.2,2.59-0.27c2.11-0.22,6.56-0.67,8.34-0.81c0.92-0.08,2.84-0.27,4.26-0.42c1.4-0.16,4.19-0.43,6.2-0.63
		c5.43-0.51,6.74-0.65,7.21-0.85c0.34-0.12,0.41-0.33,0.32-1.17C526.88,1896.46,525.88,1895.11,524.67,1894.46z M299.94,1982
		c-0.49-0.14-1.35-0.39-1.92-0.55c-8.98-2.56-17.29-7.19-22.88-12.77c-5.37-5.35-10.54-13.48-14.47-22.75
		c-4.22-9.97-6.27-16.37-7.26-22.93c-0.65-4.36-0.97-8.91-0.86-12.08c0.08-2.07,0.05-3.28-0.11-3.3c-0.11-0.01-0.5,0.19-0.84,0.49
		c-0.52,0.42-0.65,0.74-0.79,1.98c-0.09,0.81-0.46,2.8-0.83,4.4c-0.37,1.6-0.77,3.47-0.9,4.13c-0.11,0.68-0.53,2.23-0.9,3.46
		c-1.05,3.46-2.92,10.09-3.18,11.11c-0.6,2.38-4.7,13.73-5.7,15.71c-1.83,3.6-4.21,7.54-5.5,9.07c-2.82,3.37-5.95,6.12-9.15,8.08
		c-6.36,3.89-10.55,5.35-17.81,6.08c-4.85,0.49-5.48,0.55-6.99,0.56c-0.74,0-1.85,0.05-2.48,0.1c-0.61,0.07-2.4,0.21-3.94,0.31
		c-1.55,0.11-3.31,0.22-3.94,0.27c-0.61,0.05-2.3,0.18-3.72,0.29c-3.92,0.29-4.1,0.32-5,0.7c-1.17,0.44-2.44,1.47-2.44,1.93
		c0,0.35,0.32,0.45,3.11,0.83c3.88,0.53,8.74,1.59,12.51,2.74c0.52,0.15,1.67,0.49,2.53,0.74c0.88,0.25,2.5,0.8,3.61,1.19
		c1.13,0.42,2.44,0.87,2.93,1.02c4.41,1.37,13.25,5.76,17.47,8.58c6.58,4.42,11.59,9.46,15.01,15.23c2.16,3.67,5.63,11.02,7.08,15.1
		c0.25,0.7,0.86,2.24,1.33,3.37c0.79,1.9,5.85,16.45,7.35,20.9c0.34,1.02,0.82,2.46,1.06,3.15c0.59,1.71,2.31,8.38,2.77,10.67
		c0.64,3.16,0.47,3.02,2.97,3.07c3.09,0.06,2.99,0.16,3-3c0.01-4.08,0.43-9.46,1.11-14.48c0.11-0.84,0.37-2.76,0.56-4.22
		c0.53-3.88,1.12-7.42,2.16-12.52c0.53-2.59,0.59-2.75,1.83-6.53c2.46-7.46,7.01-14.34,12.17-18.49
		c4.75-3.81,12.55-7.54,23.15-11.04c10.13-3.34,20.02-6.17,22.7-6.51c0.68-0.08,1.24-0.23,1.24-0.33c0-0.24-1.8-0.46-9.02-1.13
		C309.49,1983.95,303.36,1983,299.94,1982z M2052.21,1737.49c-0.7-0.51-4.15-2.22-6.67-3.27c-0.79-0.33-2.37-1.04-3.47-1.54
		c-1.13-0.51-3-1.31-4.17-1.81c-13.25-5.54-17.11-7.89-24.21-15.21c-6.56-6.76-11.12-15.08-14.7-26.92
		c-3.16-10.49-7.19-28.25-8.34-36.71c-0.07-0.65-0.34-1.43-0.56-1.72c-0.25-0.33-0.52-0.59-0.63-0.62c-0.09-0.02-0.25,2.49-0.32,5.6
		c-0.23,10.7-1.71,17.09-6.56,28.5c-4.12,9.7-9.67,17.56-14.83,20.97c-7.53,5.01-15.84,6.72-27.57,5.69
		c-2.41-0.21-12.65-1.6-14.88-2.02c-0.81-0.15-0.23,0.42,1.06,1.05c2.3,1.11,4.73,2.52,9.65,5.59
		c15.57,9.72,22.29,14.77,28.11,20.88c4.83,5.07,9.15,12.65,11.77,20.66c1.57,4.8,2.4,8.87,3.85,18.78
		c1.01,6.84,1.78,15.42,1.96,21.39c0.09,3,0.23,4.77,0.38,4.94c0.47,0.49,3.59,1.22,4.04,0.95c0.27-0.16,0.56-1.13,0.97-3.08
		c1.13-5.64,2.7-11.11,6.22-21.63c8.52-25.39,12.69-31.81,23.31-36.33c4.96-2.11,10.75-3.19,18.8-3.41
		c5.14-0.14,12.02,0.6,15.74,1.62c2.77,0.77,3.2,0.8,3.2,0.21C2054.35,1739.55,2053.23,1738.22,2052.21,1737.49z M1926.66,1849.55
		c0.49-0.08,1.15-0.2,1.46-0.26c0.52-0.13,1.5-0.23,6.31-0.88c1.05-0.14,3.49-0.38,5.41-0.54c1.91-0.16,3.94-0.3,4.51-0.35
		c2.86-0.22,3.8-0.31,7.1-0.51c1.97-0.12,4.06-0.26,4.62-0.32c0.56-0.04,2.64-0.21,4.62-0.33c6.74-0.41,15.42-1.5,17.22-2.2
		c1.1-0.42,1.31-0.73,1.19-1.95c-0.04-0.38-0.05-0.58-0.09-0.96c-1.1-0.17-1.65-0.26-2.75-0.43c-1.49-0.23-4.67-0.83-7.01-1.31
		c-2.35-0.49-6.32-1.3-8.79-1.79c-5.98-1.19-14.16-2.96-16.68-3.6c-6.27-1.58-13.22-3.42-17.24-4.76c-0.56-0.19-2.68-0.84-4.73-1.48
		c-4.55-1.38-4.88-1.49-10.48-3.61c-5.02-1.91-4.78-1.81-8.68-3.51c-3.99-1.73-10.99-5.2-13.64-6.76c-2.3-1.36-5.97-3.69-7.44-4.69
		c-12.55-8.62-24.3-21.98-30.09-34.29c-1.69-3.6-4.96-11.9-5.52-14.06c-0.09-0.36-0.29-1.01-0.45-1.43
		c-0.41-1.05-1.46-4.68-1.69-5.67c-0.11-0.46-0.51-2.05-0.9-3.55c-0.39-1.49-0.79-3.18-0.88-3.75c-0.11-0.56-0.62-2.87-1.13-5.11
		c-0.8-3.56-1.51-7.49-2.05-11.22c-0.29-1.97-1.6-11.77-1.83-13.61c-0.2-1.76-0.44-3.78-0.86-6.94c-0.13-0.99-0.35-2.67-0.47-3.7
		c-0.12-1.03-0.33-2.67-0.45-3.57c-0.22-1.65-0.47-3.51-0.9-6.64c-0.12-0.91-0.33-2.53-0.45-3.57c-0.24-2.02-0.56-4.77-0.92-7.27
		c-0.52-3.53-0.72-5.94-2.23-17.86c-0.12-0.99-0.33-2.61-0.45-3.57c-0.12-0.98-0.38-3.21-0.56-4.97c-0.18-1.76-0.38-3.54-0.45-3.95
		c-0.09-0.69-0.25-1.8-0.79-7.5c-0.1-1.03-0.33-3.34-0.52-5.09c-0.19-1.75-0.43-4.1-0.52-5.19c-0.12-1.63-0.25-2.14-0.7-2.7
		c-0.52-0.65-0.66-0.68-2.25-0.74c-2.06-0.07-3.04,0.22-3.65,1.1c-0.94,1.34-1.18,2.41-1.4,6.34c-0.43,7.94-0.7,11.72-0.88,13.98
		c-0.1,1.28-0.29,3.58-0.43,5.1c-0.14,1.49-0.29,3.13-0.36,3.6c-0.07,0.47-0.28,2.72-0.47,4.97c-0.19,2.25-0.44,4.78-0.54,5.6
		c-0.41,3.46-0.65,5.16-0.99,8.32c-0.65,6.14-0.83,7.59-1.04,8.65c-0.13,0.56-0.22,1.39-0.22,1.81c0,0.4-0.09,1.23-0.2,1.79
		c-0.25,1.26-0.6,3.77-1.06,7.88c-0.35,3.08-0.51,4.22-0.97,7.09c-0.34,2.15-0.68,4.48-0.92,6.47c-0.11,0.95-0.31,2.37-0.45,3.11
		c-0.25,1.44-0.6,3.64-0.9,5.47c-0.51,3.09-1.15,6.61-1.56,8.37c-0.25,1.06-0.61,2.65-0.81,3.54c-1.22,5.48-2.29,9.14-4.21,15.05
		c-0.45,1.4-2.14,5.66-3.47,8.77c-0.43,1-0.77,1.86-0.77,1.91c0,0.51-4.68,10.13-5.68,11.74c-0.34,0.55-0.63,1.07-0.63,1.14
		c0,0.1-0.58,1.04-1.28,2.16c-5.14,8-10.62,14.25-15.4,17.53c-7.33,5.01-13.63,7.53-24.35,9.68c-1.66,0.33-3.45,0.71-3.94,0.81
		c-0.5,0.1-1.46,0.27-2.14,0.39c-0.68,0.11-3.28,0.52-5.75,0.92c-2.47,0.41-4.91,0.8-5.41,0.85c-0.49,0.05-2.08,0.29-3.49,0.5
		c-1.41,0.22-3.16,0.45-3.83,0.54c-0.68,0.09-2.16,0.3-3.27,0.45c-1.13,0.15-3.2,0.4-4.62,0.56c-3.16,0.36-5.1,0.6-6.87,0.83
		c-1.84,0.24-7.07,0.67-10.48,0.82c-1.55,0.07-3.38,0.16-4.06,0.21c-0.68,0.05-5.05,0.04-9.69-0.01c-9.09-0.13-10.78,0.01-11.83,0.7
		c-1.22,0.79-2.21,2.56-2.32,4.12c-0.09,1.14-0.02,1.43,0.32,1.63c0.47,0.3,1.79,0.6,7.21,1.77c2,0.43,4.8,1.07,6.2,1.41
		c1.42,0.34,3.34,0.78,4.26,0.97c1.78,0.36,6.23,1.4,8.34,1.91c0.67,0.16,1.85,0.44,2.59,0.63c1.37,0.32,4.56,1.15,10.59,2.81
		c2.93,0.81,5.35,1.59,11.95,3.82c3.89,1.31,12.1,4.81,16.03,6.84c1.96,1.01,5.31,3.08,7.19,4.45c2.27,1.66,8.46,6.62,9.92,7.97
		c0.61,0.56,1.58,1.43,2.12,1.93c4.71,4.3,16.93,18.47,22.86,26.52c1.66,2.26,4.1,6.18,5.61,9.02c1.8,3.37,5.82,12.71,5.82,13.51
		c0,0.13,0.18,0.73,0.43,1.36c0.61,1.57,1.27,3.72,1.78,5.67c1.1,4.22,1.37,5.42,1.6,6.63c0.13,0.7,0.72,3.5,1.28,6.23
		c0.56,2.7,1.16,5.7,1.35,6.62c0.19,0.92,0.43,1.97,0.52,2.34c0.11,0.36,0.32,1.27,0.45,2.03c0.14,0.72,0.35,1.9,0.47,2.59
		c0.19,1.08,1.27,6.39,1.8,8.99c0.12,0.57,0.38,1.97,0.59,3.11c0.2,1.14,0.45,2.49,0.54,2.98c0.09,0.49,0.25,1.32,0.34,1.81
		c0.09,0.49,0.33,1.9,0.56,3.11c0.24,1.21,0.71,3.79,1.04,5.69c0.33,1.9,0.68,4.01,0.81,4.66c0.11,0.65,0.4,2.39,0.63,3.88
		c0.24,1.49,0.54,3.23,0.68,3.88c0.13,0.65,0.31,1.68,0.43,2.33c0.11,0.65,0.35,2.11,0.54,3.23c0.19,1.13,0.58,3.47,0.83,5.17
		c0.26,1.69,0.52,3.38,0.59,3.74c0.27,1.34,0.59,3.62,1.01,7.23c0.25,2.06,0.54,4.49,0.68,5.42c0.36,2.68,0.61,5.18,1.1,10.95
		c0.59,6.98,0.88,9.91,1.11,12.11c0.1,0.97,0.36,3.43,0.56,5.41c0.9,8.61,1.46,12.63,2.34,17.01c0.72,3.53,1.22,4.24,2.39,3.38
		c0.97-0.71,1.24-1.83,1.51-6.04c0.14-2.18,0.34-4.59,0.45-5.36c0.2-1.3,0.54-5.38,1.08-13.06c0.27-3.94,0.58-5.6,1.1-6.02
		c0.43-0.32,0.65-2.22,1.17-9.8c0.34-4.83,0.86-7.85,1.35-8.02c0.52-0.16,0.58-0.54,1.24-8.8c0.55-6.89,0.86-8.65,1.53-8.93
		c0.23-0.09,0.38-0.72,0.47-1.87c0.68-7.45,0.98-9.63,2.05-14.65c0.3-1.39,0.7-4.02,0.9-5.82c0.2-1.82,0.79-5.56,1.28-8.33
		c0.5-2.77,1.14-6.77,1.42-8.83c0.84-6.23,0.99-6.86,2.14-11.84c1.4-6.14,3.63-13.58,5.91-19.75c2.59-7.04,2.94-7.94,5.46-13.51
		c2.14-4.75,2.2-4.88,4.03-7.86c2.07-3.38,3.58-5.26,7.46-9.23c3.61-3.69,6.18-5.95,10.73-9.36c7.66-5.73,12.69-8.69,20.85-12.27
		C1905.99,1854.23,1915.7,1851.41,1926.66,1849.55z M2020.36,1967.5c-0.9-0.57-1.08-0.63-5-1.69c-1.42-0.39-3.11-0.85-3.72-1.02
		c-0.63-0.17-2.4-0.63-3.94-1.04c-1.55-0.41-3.34-0.89-3.94-1.08c-0.63-0.18-1.74-0.44-2.48-0.58c-1.51-0.3-2.14-0.47-6.99-1.92
		c-7.26-2.16-11.45-4.53-17.81-10.1c-3.2-2.81-6.33-6.51-9.15-10.89c-1.29-1.99-3.67-6.94-5.5-11.44c-1.01-2.48-5.1-16.34-5.7-19.22
		c-0.26-1.22-2.13-9.27-3.18-13.5c-0.37-1.51-0.79-3.39-0.9-4.2c-0.13-0.79-0.53-3.04-0.9-4.98c-0.37-1.94-0.74-4.33-0.83-5.29
		c-0.13-1.46-0.27-1.86-0.79-2.48c-0.34-0.43-0.72-0.76-0.83-0.78c-0.16-0.02-0.19,1.36-0.11,3.78c0.12,3.7-0.2,8.87-0.86,13.75
		c-0.99,7.36-3.04,14.27-7.26,25.06c-3.93,10.03-9.11,18.66-14.47,24.12c-5.59,5.69-13.9,9.97-22.88,11.79
		c-0.56,0.11-1.42,0.3-1.91,0.4c-3.43,0.72-9.56,1.03-17.02,0.9c-7.21-0.14-9.02-0.08-9.02,0.22c0,0.12,0.56,0.38,1.24,0.57
		c2.68,0.78,12.56,5.61,22.7,11.03c10.6,5.67,18.39,11.16,23.15,16.32c5.16,5.6,9.72,14.31,12.17,23.38c1.24,4.6,1.29,4.78,1.83,7.9
		c1.05,6.13,1.64,10.35,2.16,14.97c0.2,1.74,0.45,4.02,0.56,5.02c0.68,5.97,1.09,12.33,1.11,17.15c0.01,3.72-0.09,3.61,3,3.67
		c2.5,0.05,2.33,0.2,2.97-3.46c0.46-2.66,2.18-10.36,2.77-12.31c0.24-0.79,0.71-2.44,1.06-3.6c1.5-5.09,6.56-21.47,7.35-23.58
		c0.47-1.26,1.08-2.96,1.33-3.75c1.44-4.53,4.91-12.55,7.08-16.45c3.43-6.13,8.43-11.13,15.01-15.04c4.22-2.5,13.07-5.88,17.47-6.61
		c0.49-0.08,1.8-0.34,2.93-0.6c1.11-0.24,2.73-0.55,3.61-0.66c0.86-0.11,2.01-0.27,2.52-0.34c3.77-0.56,8.63-0.8,12.51-0.64
		c2.79,0.12,3.11,0.07,3.11-0.29C2022.79,1969.5,2021.53,1968.18,2020.36,1967.5z"/>
	<path d="M388.51,461.72c6.63,23.69,3.59,55.66,3.59,75.83c0,45.27-3.2,74.95-9.58,89.11c-3.2,7.54-13.72,11.77-28.73,9.98
		c-6.47-0.77-15.84-2.29-26.94-3.68c-13.5-1.7-22.61-3.45-26.94-4.31c-21.86-4.39-46.7-9.66-73.03-17.23
		c-20.36-5.85-34.34-12.06-41.91-17.81c-12.78-9.89-19.16-23.61-19.16-41.02c0-32.79,0.6-70.04,1.8-111.94
		c1.68-64.32,2.52-96.59,4.19-161.37c0.4-15.43,0.6-31.92,0.6-49.46c0-1.62-0.6-6.57-1.8-14.82c-3.59-26.76-7.99-48.7-13.17-65.81
		c-0.81-2.46-1.19-4.88-1.19-7.29c0-8.86,3.59-15.03,10.78-18.59c22.75-11.46,50.89-17.66,84.41-17.66
		c11.97,0,22.54,0.86,31.73,2.62c3.59,2.88,5.39,4.33,8.98,7.24c2.4,4.86,5.75,10.9,6.59,15.89c4.16,24.56-1.9,74.76-5.69,133.85
		c-3.8,59.09-5.68,103.02-5.68,132.47c0,25.58,0.4,40.12,1.19,43.7c2.4,10.76,9.18,17.08,20.36,18.76
		c6.38,0.96,16.36-1.69,29.94-8.32c13.56-6.63,23.14-9.83,28.73-9.21C375.54,443.5,385.62,451.39,388.51,461.72z M699.83,250.79
		c6.39,30.97,9.56,74.54,9.56,130.02c0,132.68-27.88,219.08-83.65,261.6c-17.12,13.13-41.23,19.61-72.29,18.52
		c-26.28-0.93-47.39-8.81-63.33-23.05c-39.03-34.39-62.13-93.62-69.3-176.48c-1.99-23.21-2.98-38.91-2.98-47.06
		c0-76.99,11.51-146.49,34.65-209.78c23.82-65.14,64.33-98.95,121.29-98.95c32.24,0,56.75,10.29,73.49,30.79
		C673.14,168.37,690.72,206.66,699.83,250.79z M600.43,355.08c0-53.04-12.57-79.96-37.71-80.37c-7.18-0.12-13.86,4.22-19.76,12.94
		c-8.01,11.85-11.98,44.75-11.98,97.87c0,24.95,1.4,43.17,4.19,54.76c5.18,22.27,15.56,33.66,31.13,34.07
		c14.76,0.39,24.5-7.35,29.33-22.84c3.13-10.03,4.79-25.04,4.79-44.94C600.43,386.03,600.43,375.73,600.43,355.08z M1036.25,108.1
		c-33.13,0.05-59.66,4.74-79.61,14.49c-12.78,6.23-19.16,16.92-19.16,31.83c0,5.27,0.79,10.74,2.39,16.38
		c3.2,11.27,4.79,23.61,4.79,37.11c0,31.35-3,73.62-8.98,127.11c-1.92,18.4-2.88,27.6-4.79,46c-0.81,7.46-1.4,11.64-1.8,12.55
		c-1.6,11.03-5.39,16.99-11.37,17.87c-5.19,0.76-9.58-12.39-11.98-38.82c-6.9-75.92-9.73-131.96-11.37-162.64
		c-2.3-43.11-4.74-70.58-7.18-81.3c-3.47-15.24-13.38-23.07-29.33-23.07c-2.4,0-9.64,0.74-21.57,2.09
		c-30.17,3.41-49.48,6.49-57.47,9.35c-25.14,8.12-37.71,21.75-37.71,40.74c0,10.45,6.7,25.65,13.18,42.56
		c5.25,13.71,6.97,26.34,7.78,32.42c8.78,67.09,14.96,112.52,18.55,137.69c17.96,142.45,28.73,216.51,32.33,236.48
		c3.59,19.98,11,31.01,22.16,33.03c9.15,1.66,31.12-1.11,65.86-8.76c34.32-7.56,57.47-17.6,69.43-29.52
		c7.99-8.1,13.58-20.17,16.77-36.28c18.43-91.68,27.65-137.28,46.08-226.59c23.15-112.79,34.73-179.65,34.73-205.71
		C1067.98,116.42,1057.4,108.07,1036.25,108.1z M1238.43,210.29c1.98,0.24,10.68-0.17,26.13-1.22c9.89-0.67,22.87,2.28,38.89,8.55
		c16.03,6.27,27.62,9,34.75,8.46c19.01-1.45,28.52-15.02,28.52-40.42c0-10.84-0.72-20.21-2.4-27.78c-1.1-4.96-1.8-8.53-1.8-10.56
		c-1.6-21.49-7.54-34.65-15.55-36.15c-30.1-5.63-61.47-3.97-81.43-3.95c-1.6,0-6.19-0.26-13.76-0.79
		c-7.6-0.55-12.57-0.81-14.98-0.81c-23.71,0-35.56,0-59.27,0c3.2,0-1.99,0.37-15.57,1.14c-27.53,1.55-47.29,7.29-59.27,17.38
		c-3.59,7.21-5.39,15.05-5.39,23.45c0,9.21,2.6,21.75,7.79,37.39c5.59,16.84,8.37,29.28,8.37,37.58
		c-1.44,62.12-2.15,93.27-3.59,155.7c-1.6,67.38-2.39,118.5-2.39,153.12c0,26.27,8.58,39.78,25.74,40.39
		c8.78,0.27,28.73-3.39,59.87-10.76c55.87-13.22,93.18-21.5,111.94-25.6c1.99-0.44,3.79-0.83,5.39-1.17
		c1.92-0.42,2.88-0.62,4.79-1.04c11.98-2.59,22.95-7.12,32.92-13.57c10.38-17.12,15.57-43.69,15.57-79.53c0-2.86,0.4-9.2,1.2-18.98
		c0.79-9.77,1.19-16.03,1.19-18.88c0-4.62-0.59-9.49-1.8-14.63c-1.19-5.13-3.79-10.04-7.78-14.77c-3.99-4.72-7.78-6.83-11.37-6.3
		c-4.4,0.65-18.96,7.51-43.71,21.32c-24.75,13.8-43.3,22.12-55.67,24.29c-9.57,1.67-16.36,1.19-20.35-1.51
		c-5.98-4.22-8.98-13.55-8.98-27.9c0-22.65,3.99-34.51,11.98-35.66c6.77,2.39,15.55,5.41,26.33,8.99
		c17.15,5.59,31.73,7.36,43.71,5.57c5.59-0.83,10.82-5.24,15.55-13.1c4-6.63,6.38-12.71,7.18-18.17c0-3.21,0-4.82,0-8.03
		c0-5.7,0.4-14.41,1.2-26.03c0.79-11.62,1.2-20.23,1.2-25.88c0-11.29-1.19-18.73-3.56-22.4c-3.94-5.99-11.25-8.56-21.9-7.64
		c-7.11,0.61-18.75,4.71-34.93,12.57c-16.18,7.88-27.24,12.28-33.15,12.87c-3.17,0.32-6.33-0.48-9.48-2.4
		c-2.77-9.8-4.14-18.08-4.14-24.8C1216.45,224.09,1223.77,214.6,1238.43,210.29z M1737.86,310.56c0-13.96,0.7-34.93,2.1-62.72
		c1.4-27.8,2.09-48.5,2.09-62.25c0-35.86-2.17-58.33-6.58-67.56c-3.95-8.27-14.37-12.41-31.14-12.41c-6.79,0-15.77,0.98-26.94,2.93
		c-16.52,2.92-24.78,4.36-41.31,7.25c-14.76,2.57-25.95,8.67-33.53,18.33c0,1.75,0,2.62,0,4.37c0,6.8,2.69,16.85,8.08,30.24
		c5.39,13.41,9.09,24.77,8.08,29.99c-0.16,0.84-0.92,4.54-1.19,10.33c-0.77,17.04-0.55,29.73-0.61,36.61
		c-0.79,98.19-2.39,153.68-2.39,159.83c-0.48,7.57-0.72,11.37-1.2,18.96c-0.4,6.16-0.59,12.67-0.59,19.54c0,1.86,0,2.79,0,4.64
		c0.4,1.39,0.59,2.94,0.59,4.66c0,11.16,0,16.75,0,27.96c1.99,11.12,7.38,18.84,16.16,23.23c18.68,1.72,28.02,2.7,46.69,4.95
		c31.54,3.76,53.09-0.66,64.67-14.58c1.19-0.94,1.8-4.89,1.8-11.87c0-19.51-0.81-48.55-2.4-86.74
		C1738.65,358.07,1737.86,329.63,1737.86,310.56z M2006.05,333.88c-7.18-10.05-29.33-33.95-66.45-67.55
		c-23.54-21.53-35.31-36.37-35.31-46.09c0-3.6,0.79-6.78,2.39-9.57c5.59-2.54,11.37-3.64,17.37-3.26
		c7.97,0.5,20.74,6.54,38.31,18.79c17.56,12.26,30.93,19.22,40.1,20.17c11.17,1.16,18.6-5.78,22.16-21.01
		c3.2-13.7,4.78-29.66,4.78-47.64c0-34.39-7.98-57.11-23.94-67.51c-10.78-2.33-33.33-3.48-67.65-3.51c-1.6,0-5.89-0.19-12.86-0.55
		c-7-0.36-11.49-0.54-13.47-0.54c-3.21,0-10.4,1.08-21.55,3.19c-40.71,7.73-72.05,24.16-94,49.21
		c-13.58,15.7-20.35,35.74-20.35,60.56c0,26.53,10.78,51.69,32.33,76.55c7.98,9.26,28.13,26.93,60.47,55.43
		c21.55,19,32.33,34.6,32.33,45.48c0,9.08-3,14.77-8.98,17.07c-1.2,0.17-3.41-0.01-6.59-0.5c-12.37-1.93-28.34-10.91-47.9-26.16
		c-19.54-15.24-31.93-22.7-37.12-23.19c-7.98-0.76-14.76,0.72-20.35,4.39c-7.99,14.89-11.98,31.13-11.98,48.85
		c0,10.08,1.28,23.11,3.59,39.02c2.05,14.1,3.59,27.49,4.79,39.92c6.79,12.37,18.22,20.22,34.12,23.53
		c18.64,3.87,33.16,7.03,42.51,9.61c3.14,0.87,5.48,1.63,6.88,2.07c1.4,0.45,1.49,0.55,0.3,0.33
		c63.45,11.86,107.76,15.34,132.9,2.68c15.57-7.77,27.7-21.83,36.51-42.37c7.92-18.44,11.98-38.78,11.98-60.52
		C2041.37,399.54,2029.59,366.31,2006.05,333.88z"/>
	<path d="M330.8,709.85c-21.44-17.67-43.9-29.44-67.39-35.91c-2.02-0.56-3.02-0.84-5.04-1.4c-46.61-13.08-80.16-18.95-100.66-14.37
		c-4.1,1-6.9,1.9-8.39,2.78c-2.99,2.88-4.47,6.15-4.47,9.88c0,1.51,1.58,7.12,4.76,16.91c3.17,9.8,4.76,16.97,4.76,21.47
		c0,6.02,0.56,15.37,1.67,28.09c1.12,12.72,1.67,22.12,1.67,28.13c-0.45,7.47-0.67,11.2-1.12,18.66c-0.37,7.33-0.37,14.47,0,21.43
		c0.37,6.94,0.56,14.39,0.56,22.28c-0.67,36.66-1.01,54.97-1.68,91.55c-0.75,36.01-1.11,66.55-1.11,91.71
		c0,30.02,0.37,49.39,1.11,58.13c0.75,8.73,4.1,16.2,10.07,22.23c5.96,6.03,18.26,14.96,36.91,25.38
		c26.47,14.79,48.66,19.39,66.55,15.23c2.61-3.99,3.92-9.55,3.92-16.64c0-3.16-0.75-9.95-2.24-20.41
		c-1.49-10.45-2.24-17.04-2.24-19.79c0-1.19,0.18-2.28,0.56-3.32c0-1.42,0-2.13,0-3.55c0-1.57-0.19-4.8-0.56-9.66
		c-0.37-4.87-0.56-7.92-0.56-9.1c0-7.46,3.14-14.15,5.59-14.33c22.71-1.71,66.24,9.48,85.57-11.03
		c25.72-27.3,38.59-70.01,38.59-125.61c0-48.64-7.03-90.77-20.69-126.12C367.57,748.25,352.23,727.5,330.8,709.85z M287.46,897.24
		c-2.24,3.25-6.71,3.78-13.42,1.46c-9.7-3.35-14.54-10.69-14.54-21.73c0-3.56,0.18-11.17,0.56-22.88
		c0.36-11.71,0.56-19.15,0.56-22.31c0-9.48,0.56-15.02,1.68-16.63c1.48-3.06,6.15-3.3,13.98-0.84
		c13.79,4.32,20.69,19.26,20.69,45.24C296.97,875.12,293.79,887.76,287.46,897.24z M683.4,935.98
		c-9.71-74.48-8.33-152.25-19.02-198.19c-2.83-12.14-19.94-20.54-41.95-20.38c-14.09,1.36-21.13,1.97-35.22,3.04
		c-39.53,3.25-72.15,11.04-97.87,24.39c-6.35,3.25-9.89,5.22-10.63,5.98c-5.59,5.33-8.39,12.96-8.39,22.95
		c0,6.66,1.96,16.73,5.87,30.18c3.91,13.44,5.87,23.46,5.87,30.08c0,23.61-4.28,57.15-12.86,100.16
		c-8.28,40.23-12.41,60.21-20.69,99.85c-11.19,54.25-17.71,88.6-19.57,104.01c-2.24,18.59-3.74,29.59-3.91,32.58
		c-0.5,8.7,2.69,16.24,8.11,20.91c5.4,4.67,16.31,8.31,32.71,10.14c15.66,1.75,31.32,0.78,46.98-2.87
		c4.03-1.97,6.04-2.96,10.07-4.98c4.1-1.43,6.89-3.17,8.39-5.14c1.49-10.74,3.21-21.53,5.04-32.28c3.78-22.25,6.71-36.35,8.94-41.95
		c14.17-2.16,22.55-3.47,25.17-3.5c7.83-0.07,17.25,2.09,19.59,5.61c2.91,4.39,3.28,20.73,4.46,38.1
		c1.04,15.39,3.18,28.03,6.16,37.73c11.93,7.64,27.58,10.62,46.97,8.54c18.26-1.96,35.22-7.21,50.89-15.4
		c10.44-5.45,15.65-12.68,15.65-21.54c0-1.54-1.67-14.51-5.02-39.26C698.83,1050.98,693.68,1013.15,683.4,935.98z M581.61,972.19
		c-4.85,4.1-9.7,6.11-14.54,6.06c-8.21-0.08-12.3-5.89-12.3-17.33c0-17.97,6.33-49.65,19.01-95.62c2.24,1.51,3.36,2.26,5.59,3.76
		c-0.37,2.47-0.56,6.4-0.56,11.73c0,7.8,0.75,19.43,2.24,34.78c1.49,15.33,2.24,26.89,2.24,34.63S582.73,965.28,581.61,972.19z
		 M1012.76,701.1c0,4.98-0.38,12.34-1.13,22.09c-0.75,9.77-1.11,17.12-1.11,22.09c0,7.79,0,11.68,0,19.46
		c0,3.43,0.38,7.37,0.56,11.28c0.2,4.36,0,7.23,0,8c0,28.57-7.47,45.06-22.37,49.45c-5.22,1.54-13.06-0.73-23.48-6.96
		c-10.44-6.22-18.46-8.81-24.05-7.65c-6.35,4.1-9.51,10.4-9.51,18.93c0,21.69,0.18,54.04,0.56,96.7c0.37,42.67,0.55,74.5,0.55,95.78
		c0,7.22,1.22,17.57,3.64,31.03c2.42,13.45,3.64,23.54,3.64,30.33c0,23.04-11.37,40.4-34.11,51.76
		c-4.85,2.58-25.72,9.65-62.64,19.61c-7.6,2.05-11.41,3.06-19.01,5.02c-11.93-3.3-17.9-13.86-17.9-31.63
		c0-1.51,0.18-5.71,0.56-12.62c0.36-6.9,0.56-11.51,0.56-13.78c0-0.76-0.2-2.22-0.56-4.42c0-1.82,0-2.73,0-4.55
		c0-5.7,0.56-15.54,1.67-29.57c1.49-18.72,2.36-32.66,2.8-41.54c1.61-32.56,4.66-81.2,8.39-146.27c-1.49-2.4-1.7-8.55-1.11-18.06
		c0.49-7.85-1.49-13.07-5.6-15.28c-7.08,1.67-16.32,9.25-27.68,22.69c-11.37,13.44-20.41,19.22-27.12,20
		c-10.81,1.25-16.21-12.09-16.21-40.2c0-0.8,0.38-3.6,0.56-7.89c0.18-4.22,0-8.44,0-12.06c0-16.68,0-25.04,0-41.83
		c0-3.64,0.18-8.09,0-12.77c-0.18-4.66-0.56-7.89-0.56-9.12c0-26.02,5.98-42.19,10.62-47.91c3.64-4.48,43.06-13.41,119.11-30.7
		c72.32-16.44,115.4-24.81,129.18-22.57C1008.85,669.4,1012.76,680.44,1012.76,701.1z M1162.63,933.92
		c1.48,40.38,2.24,71,2.24,91.77c0,7.44-0.56,11.89-1.69,13.38c-10.81,19.62-30.94,33.38-60.39,41.23
		c-17.45,4.64-26.17,6.97-43.62,11.57c-8.2-1.69-13.24-8.21-15.1-19.56c0-12.12,0-18.19,0-30.32c0-1.88-0.2-3.5-0.56-4.87
		c0-2.03,0-3.04,0-5.06c0-7.48,0.18-14.67,0.56-21.55c0.45-8.48,0.68-12.72,1.13-21.2c0-6.74,1.49-67.1,2.24-179.6
		c0.05-7.88-0.15-22.3,0.55-42.06c0.24-6.79,0.96-11.13,1.13-12.23c0.95-6.37-2.53-18.34-7.55-32.47
		c-5.04-14.13-7.55-25.26-7.55-33.24c0-2.06,0-3.08,0-5.14c7.08-13.3,17.52-23.22,31.31-29.85c15.44-7.44,23.16-11.14,38.6-18.51
		c10.43-4.94,18.81-8.21,25.16-9.84c15.66-4.04,25.41-1.91,29.08,6.24c4.12,9.12,6.15,33.27,6.15,72.47
		c0,15.03-0.65,37.84-1.96,68.55c-1.31,30.72-1.95,53.68-1.95,68.79C1160.39,863.06,1161.15,893.54,1162.63,933.92z M1299.64,710.31
		c0,6.41,1.29,14.07,3.88,23c2.94,1.35,5.89,1.63,8.84,0.84c5.52-1.48,15.86-7.37,30.97-17.43c15.11-10.06,25.98-15.75,32.63-17.35
		c9.95-2.4,16.77-0.83,20.46,4.62c2.22,3.35,3.33,10.62,3.33,21.9c0,5.64-0.38,14.28-1.13,25.97c-0.75,11.69-1.11,20.42-1.11,26.11
		c0,3.2,0,4.81,0,8.02c-0.76,5.54-2.98,11.84-6.71,18.8c-4.42,8.25-9.33,13.08-14.55,14.41c-11.19,2.85-24.79,2.47-40.82-1.09
		c-10.06-2.3-18.28-4.15-24.61-5.61c-7.46,2.09-11.19,13.95-11.19,35.7c0,13.77,2.8,22.41,8.4,25.89
		c3.71,2.19,10.06,2.01,19.01-0.51c11.55-3.25,28.89-12.98,52.01-28.64c23.12-15.64,36.71-23.76,40.82-24.42
		c3.36-0.55,6.9,1.59,10.62,6.38c3.73,4.78,6.16,9.77,7.28,14.97c1.11,5.19,1.67,10.15,1.67,14.82c0,2.88-0.36,9.23-1.11,19.1
		c-0.75,9.87-1.13,16.29-1.13,19.2c0,36.26-4.84,63.08-14.53,80.36c-9.33,6.46-19.57,11.18-30.76,13.95
		c-1.79,0.44-2.68,0.67-4.47,1.12c-1.49,0.37-3.17,0.8-5.04,1.27c-17.52,4.46-52.37,13.54-104.57,29.6
		c-29.07,8.94-47.71,13.96-55.92,14.41c-16.04,0.78-24.05-11.01-24.05-35.44c0-32.19,0.75-79.73,2.24-142.17
		c1.34-57.84,2.01-86.62,3.35-143.85c0-7.63-2.6-18.5-7.82-32.67c-4.86-13.19-7.28-23.98-7.28-32.33c0-7.62,1.69-15.14,5.04-22.52
		c11.19-11.94,29.63-21.83,55.37-29.58c12.66-3.81,17.52-5.33,14.53-4.6c22.15-5.37,33.22-8.01,55.37-13.1
		c2.24-0.51,6.9-1.33,13.97-2.41c7.08-1.08,11.37-1.78,12.86-2.11c18.64-4.15,48.1-15.02,76.07-11.58
		c7.36,0.9,13.04,13.78,14.53,35.44c0,2.04,0.65,5.62,1.67,10.58c1.57,7.59,2.24,17.05,2.24,28.02c0,25.73-8.87,38.35-26.63,42.3
		c-6.65,1.48-17.49,0.26-32.46-3.57c-14.98-3.81-27.08-4.55-36.33-2.26c-14.43,3.56-22.56,5.48-24.41,5.59
		C1306.49,686.1,1299.64,696.42,1299.64,710.31z M1755.97,575.12c0.39,3.99,0.56,11.5,0.56,22.45c0,15.95-0.8,36.01-2.24,60.19
		c-1.54,25.84-2.62,46.27-2.8,60.51c-0.2,15.62-0.38,43.89-1.13,84.58c-0.9,37.19-1.34,55.89-2.24,93.47
		c0,34-5.99,52.58-17.88,55.76c-14.87,3.98-37.11,4.76-66.56,4.23c-13.06-0.23-24.32-1.31-33.54-3.08
		c-5.16-0.99-9.71-7.68-13.42-20.21c-5.6-18.39-8.39-27.55-13.99-45.82c-5.59-18.68-16.21-50.96-31.87-96.29
		c-0.76-2.04-2.62-4.37-5.6-6.99c-2.6,5.31-3.91,12.12-3.91,20.42c0,2.44,0.38,8.22,1.13,17.35c0.74,9.13,1.11,15.13,1.11,17.91
		c0,3.97,0,5.96,0,9.94c-0.38,2.82-0.56,5.97-0.56,9.45c0,8.39,0.94,20.84,2.8,37.36c1.86,16.53,2.8,29.09,2.8,37.56
		c0,3.18-1.6,7.29-4.76,12.36c-3.17,5.08-6.24,8.32-9.22,9.69c-9.31,4.53-23.3,7.9-41.95,10.62c-10.81,1.57-19.57,1.74-26.28,0.32
		c-8.57,2.53-13.79-2.34-15.65-14.75c0.37,2.11,0.55-7.39,0.55-28.36c0-31.43,1.49-78.47,4.47-139.57
		c2.98-61.1,4.48-105.75,4.48-135.42c0-6.13-2.33-15.39-6.99-27.77c-4.67-12.38-6.99-21.94-6.99-28.71c0-5.06,1.11-9.87,3.35-14.4
		c9.31-7.36,21.28-13.16,35.8-17.13c13.37-3.66,38.13-8.89,70.45-10.43c15.75-0.75,27.21,3.41,32.45,10.36
		c3.35,4.61,8.19,19.03,14.54,43.5c2.24,10.58,5.81,26.68,11.19,47.78c4.98,19.54,12.48,41.14,21.81,64.53
		c1.86,1.08,3.71,1.64,5.59,1.71c1.49,0.06,2.42-0.06,2.8-0.39c2.24-9.95,3.35-19.61,3.35-28.95c0-7-0.55-14.86-1.67-23.57
		c-5.22-40.48-7.82-67.38-7.82-81.18c0-13.47,5.4-21.45,16.21-23.82c18.26-4.26,39.33-5.42,63.19-3.05
		c0.75,0.07,2.24,0.56,4.47,1.43C1750.56,562.23,1755.26,567.8,1755.97,575.12z M2052.91,718.98c0,7.59,0,11.39,0,18.98
		c0,3.34,0.38,7.33,0.56,11.44c0.19,4.27,0,7.07,0,7.81c0,27.93-7.47,37.97-22.37,30.88c-5.22-2.49-13.06-10.6-23.48-23.83
		c-10.44-13.24-18.46-20.91-24.05-23.48c-6.35-0.34-9.51,3.44-9.51,11.29c0,19.98,0.18,49.96,0.56,90.03
		c0.37,40.06,0.55,70.2,0.55,90.29c0,6.81,1.22,17.52,3.64,32.21c2.42,14.68,3.64,25.31,3.64,31.79c0,22-11.37,28.85-34.11,22.61
		c-4.85-1.19-25.72-10.91-62.64-23.84c-7.6-2.66-11.41-3.93-19.01-6.34c-11.93-9.71-17.9-22.44-17.9-38.74
		c0-1.39,0.18-5.15,0.56-11.28c0.37-6.12,0.56-10.23,0.56-12.31c0-0.69-0.2-2.13-0.56-4.32c0-1.66,0-2.49,0-4.15
		c0-5.19,0.56-13.86,1.67-25.98c1.49-16.17,2.36-28.23,2.8-35.99c1.61-28.22,4.66-70.18,8.39-125.04c-1.49-2.77-1.7-8.31-1.11-16.18
		c0.49-6.6-1.49-11.98-5.6-15.69c-7.08-1.67-16.32,0.92-27.68,7.87c-11.37,6.95-20.41,9.87-27.12,8.67
		c-10.81-1.94-16.21-14.55-16.21-38c0-0.67,0.38-2.99,0.56-6.44c0.18-3.48,0-7.02,0-10.02c0-13.85,0-20.76,0-34.55
		c0-2.99,0.18-6.68,0-10.48c-0.18-3.87-0.56-6.57-0.56-7.58c0-21.27,6.05-33.1,10.62-36.81c3.28-2.66,43.06-3.15,119.11,16.12
		c72.32,18.33,115.4,38.65,129.18,49.64c7.84,6.43,11.75,19.82,11.75,39.96c0,4.85-0.38,11.77-1.13,20.74
		C2053.28,707.23,2052.91,714.13,2052.91,718.98z"/>
	<path d="M389.06,1516.55c6.01,18.47,3.59,45,3.59,61.16c0,36.27-3.2,59.85-9.57,70.98c-3.2,5.93-13.56,9-28.73,6.95
		c-6.54-0.88-15.84-2.48-26.95-4.08c-13.51-1.94-22.6-3.78-26.94-4.69c-21.93-4.6-46.69-10.11-73.03-17.86
		c-20.36-5.99-34.34-12.18-41.91-17.88c-12.78-9.77-19.16-23.4-19.16-40.33c0-31.87,0.6-68.04,1.8-108.42
		c1.68-62.03,2.52-92.98,4.19-154.79c0.4-14.71,0.6-30.51,0.6-47.41c0-1.56-0.6-6.61-1.8-15.16c-3.59-27.59-7.99-51.32-13.17-71.21
		c-0.81-2.88-1.19-5.5-1.19-7.89c0-8.71,3.59-12.54,10.78-11.65c22.75,2.65,50.89,13.23,84.41,28.71
		c11.97,5.53,22.54,10.78,31.73,15.99c3.59,3.92,5.39,5.87,8.98,9.72c2.39,5.05,5.74,11.11,6.58,15.97
		c3.6,20.79-1.9,62.86-5.68,112.21c-3.79,49.34-5.69,86.63-5.69,111.87c0,21.9,0.4,34.43,1.2,37.62c2.39,9.6,9.17,16.05,20.35,19.09
		c6.38,1.73,16.36,0.9,29.94-2.77c13.56-3.67,23.14-5.07,28.73-3.89C376.09,1500.49,386.21,1507.79,389.06,1516.55z M700.38,1351.81
		c6.39,24.12,9.56,58.89,9.56,103.43c0,106.51-27.88,176.63-83.65,210.02c-17.14,10.31-41.23,15.33-72.29,14.25
		c-26.28-0.91-47.39-7.3-63.33-18.69c-39.03-27.49-62.13-75.28-69.3-141.59c-1.99-18.57-2.98-31.16-2.98-37.63
		c0-61.19,11.52-115.04,34.65-162.41c23.82-48.77,64.33-70.79,121.29-72.35c32.24-0.88,56.75,4.89,73.49,19.48
		C673.69,1289.1,691.28,1317.44,700.38,1351.81z M600.97,1441.54c0-41.48-12.57-61.93-37.7-62.08c-7.18-0.04-13.85,3.33-19.75,10.08
		c-8,9.14-11.97,34.74-11.97,76.1c0,19.42,1.39,33.63,4.19,42.68c5.18,17.39,15.57,26.39,31.13,26.69
		c14.75,0.29,24.51-5.9,29.33-18.04c3.13-7.89,4.78-19.62,4.78-35.17C600.97,1465.75,600.97,1457.7,600.97,1441.54z
		 M1036.79,1146.29c-33.13,11.2-59.66,24.28-79.61,39.36c-12.78,9.64-19.16,21.11-19.16,34.52c0,4.74,0.79,9.43,2.39,14.04
		c3.2,9.27,4.79,19.98,4.79,32.16c0,28.29-3,67.24-8.98,116.33c-1.92,16.86-2.88,25.27-4.79,42.03c-0.79,6.79-1.4,10.62-1.8,11.5
		c-1.6,10.09-5.39,15.96-11.37,17.63c-5.19,1.44-9.58-9.64-11.98-32.39c-6.92-65.63-9.73-113.99-11.37-140.48
		c-2.3-37.18-4.74-60.58-7.18-69.26c-3.46-12.3-13.38-16.24-29.33-11.81c-2.4,0.67-9.61,3.34-21.55,7.65
		c-30.22,10.92-49.49,17.88-57.48,21.99c-25.14,12.15-37.71,25.38-37.71,40.92c0,8.55,6.87,20.14,13.18,32.61
		c5.09,10.06,6.97,20.48,7.78,25.36c8.78,53.78,14.96,90.51,18.55,110.85c17.96,115.49,28.75,176.35,32.34,192.77
		c3.59,16.44,10.98,25.33,22.14,26.61c9.15,1.04,31.12-2.07,65.86-9.87c34.32-7.71,57.47-17.37,69.43-28.66
		c7.99-7.67,13.58-19.01,16.77-34.07c18.44-85.75,27.66-129.67,46.1-218.42c23.13-112.04,34.72-182.14,34.72-207.63
		C1068.53,1143.67,1057.95,1139.14,1036.79,1146.29z M1238.97,1191.34c1.98-0.2,10.68-2.75,26.13-7.48
		c9.89-3.03,22.87-2.68,38.89,1.22c16.03,3.91,27.62,5.01,34.76,3.05c18.99-5.23,28.51-23.14,28.51-53.73
		c0-13.06-0.7-24.18-2.39-32.95c-1.1-5.69-1.8-9.87-1.8-12.29c-1.61-25.49-7.96-39.71-15.57-39.38
		c-30.13,1.31-61.47,12.94-81.43,19.16c-1.6,0.5-6.2,1.63-13.76,3.42c-7.59,1.8-12.57,3.1-14.98,3.88
		c-23.71,7.63-35.56,11.56-59.27,19.52c3.2-1.07-1.99,1.07-15.57,6.45c-27.53,10.91-47.29,23.52-59.27,37.58
		c-3.59,8.41-5.39,16.8-5.39,25.18c0,9.18,2.6,20.86,7.79,35.09c5.59,15.3,8.37,27.17,8.37,35.55
		c-1.44,63.09-2.16,94.65-3.59,157.74c-1.6,68.08-2.39,119.5-2.39,154.31c0,26.41,8.58,39.85,25.74,40.43
		c8.78,0.26,28.73-3.47,59.87-11.02c55.87-13.53,93.19-22,111.94-26.19c1.99-0.44,3.79-0.84,5.39-1.2c1.92-0.43,2.88-0.64,4.79-1.06
		c11.98-2.65,22.95-7.58,32.94-14.9c10.36-19.88,15.55-51.48,15.55-94.18c0-3.4,0.4-10.98,1.2-22.67c0.79-11.68,1.2-19.19,1.2-22.59
		c0-5.52-0.6-11.32-1.8-17.38c-1.19-6.04-3.8-11.76-7.79-17.1c-3.99-5.33-7.78-7.54-11.37-6.63c-4.4,1.11-18.96,10.47-43.71,28.3
		c-24.75,17.83-43.3,28.49-55.67,31.9c-9.57,2.64-16.36,2.67-20.35,0.09c-5.98-4.08-8.98-13.89-8.98-29.47
		c0-24.59,3.99-38.03,11.98-40.38c6.77,1.69,15.55,3.85,26.33,6.54c17.17,4.16,31.73,4.73,43.71,1.48
		c5.59-1.52,10.82-7.08,15.55-16.69c4-8.11,6.39-15.46,7.18-21.91c0-3.74,0-5.62,0-9.36c0-6.66,0.4-16.84,1.2-30.51
		c0.79-13.67,1.2-23.8,1.2-30.4c0-13.2-1.19-21.7-3.56-25.56c-3.94-6.29-11.25-7.91-21.9-4.81c-7.11,2.07-18.75,9.07-34.93,21.07
		c-16.18,12.02-27.24,18.99-33.15,20.81c-3.17,0.98-6.33,0.75-9.48-0.72c-2.77-10.11-4.14-18.8-4.14-26.1
		C1217,1211.66,1224.32,1199.59,1238.97,1191.34z M1738.41,1267.64c0-17.99,0.7-45,2.1-80.77c1.4-35.79,2.09-62.48,2.09-80.23
		c0-46.33-2.16-75.68-6.58-88.15c-3.95-11.17-14.37-17.81-31.14-19.01c-6.79-0.49-15.77,0.25-26.94,2.4
		c-16.52,3.24-24.78,5.08-41.31,9.12c-14.76,3.61-25.95,12.14-33.53,25.24c0,2.29,0,3.44,0,5.74c0,8.93,2.69,21.98,8.08,39.36
		c5.39,17.37,9.16,31.81,8.08,39.06c-0.17,1.15-0.92,5.94-1.19,13.58c-0.78,22.47-0.55,38.91-0.61,47.96
		c-0.79,128.74-2.39,200.39-2.39,208.37c-0.48,9.83-0.72,14.76-1.2,24.62c-0.4,8-0.59,16.46-0.59,25.37c0,2.41,0,3.61,0,6.02
		c0.4,1.79,0.59,3.8,0.59,6.03c0,14.46,0,21.7,0,36.22c1.99,14.38,7.38,24.33,16.16,29.95c18.68,2.09,28.02,3.26,46.69,5.89
		c31.54,4.4,53.09-1.88,64.67-19.92c1.19-1.23,1.8-6.29,1.8-15.23c0-24.99-0.81-62.18-2.4-111.27S1738.41,1292.2,1738.41,1267.64z
		 M2006.63,1335.19c-7.2-12.75-29.34-44.68-66.46-93.2c-23.55-31.03-35.31-51.69-35.31-63.16c0-4.24,0.79-7.79,2.39-10.62
		c5.59-1.41,11.37-0.96,17.37,1.35c7.97,3.07,20.74,14.24,38.31,34.1c17.56,19.86,30.93,32.29,40.1,36.89
		c11.17,5.6,18.61,1.41,22.16-12.81c3.2-12.82,4.79-28.49,4.79-47.1c0-35.6-7.99-63.88-23.96-84.05
		c-10.77-8.61-33.33-22.8-67.65-38.02c-1.6-0.71-5.89-2.83-12.86-6.18c-6.99-3.35-11.48-5.35-13.47-6.13
		c-3.21-1.27-10.4-2.86-21.55-4.3c-40.71-5.2-72.05,8.46-94,36.41c-13.58,17.56-20.35,42.45-20.35,74.12
		c0,33.84,10.78,67.04,32.33,100.43c7.98,12.46,28.13,36.84,60.47,75.01c21.55,25.44,32.33,45,32.33,57.86
		c0,10.73-3,17.17-8.98,19.45c-1.2,0.11-3.39-0.26-6.59-1.09c-12.37-3.21-28.34-14.97-47.9-35.05
		c-19.56-20.06-31.93-30.22-37.12-31.14c-7.97-1.41-14.76,0.12-20.35,4.54c-7.99,18.55-11.98,39.2-11.98,61.76
		c0,12.83,1.28,29.42,3.59,49.65c2.05,17.94,3.59,34.87,4.79,50.6c6.79,15.55,18.24,25.13,34.12,28.76
		c18.6,4.26,33.22,7.66,42.51,10.47c3.13,0.95,5.48,1.8,6.88,2.28c1.4,0.5,1.51,0.62,0.3,0.39c63.45,12.17,107.76,14.32,132.9,1.14
		c15.57-8.08,27.7-22.21,36.53-42.51c7.92-18.22,11.96-38.11,11.96-60.26C2041.94,1413.01,2030.16,1376.41,2006.63,1335.19z"/>
	<path d="M864.57,1712.42c0,2.39-1.11,6.19-3.35,11.38c-6.71,15.23-20.67,44.71-41.95,86.06c-18.56,36.08-31.32,63.91-38.03,83.15
		c1.86,7.58,4.58,18.54,8.39,32.9c3.25,12.25,10.08,21.16,20.14,26.64c1.13,0.23,3.36,0.19,6.71-0.1c2.46-0.21,3.69-0.32,6.15-0.53
		c1.87-0.47,4.09-0.84,6.71-1.07c9.7-0.85,17.01,3.68,21.81,13.65c3.74,7.77,5.6,16.6,5.6,26.3c0,4.86-0.94,13.98-2.8,27.23
		c-7.09,51.44-31.14,76.01-72.14,76.02c-13.42,0-23.3-1.65-29.63-4.96c-14.93-7.81-26.05-23.24-33.56-46.23
		c-5.15-15.77-10.62-34.13-16.22-55.07c-2.98-2.44-5.02-3.68-6.15-3.67c-0.38,0-0.93,0.17-1.67,0.48
		c-6.35,9.93-9.51,24.6-9.51,43.88c0,4.29,0.29,10.79,0.84,19.47c0.56,8.68,0.84,15.13,0.84,19.38c0,6.37-0.93,10.59-2.79,12.69
		c-5.97,5.44-16.04,9.06-30.2,10.87c-5.98,0.3-17.39,1-34.12,2.26c-7.8,0.58-12.5,0.9-13.97,0.9c-12.68,0-20.31-3.5-22.94-10.41
		c-3.66-9.65-5.58-22.4-5.58-38.25c0-33.51,0.18-63.86,0.55-90.84c0.45-36.84,0.68-55.43,1.13-92.93c0-22.41-0.38-41.36-0.56-56.18
		c-0.04-3.14-0.02-10.95-1.11-22.09c-0.27-2.79-2.59-8.31-6.71-16.03c-3.64-6.82-5.6-12.37-5.6-16.57c0-5.46,2.24-9.75,6.71-12.87
		c1.49-0.61,4.84-2.14,10.07-4.63c20.5-8.63,42.68-13.08,66.54-13.39c8.57-0.11,20.75-0.85,27.96,2.03c4.88,1.95,8.4,6.45,8.4,7.48
		c0,10.71-0.29,26.83-0.85,48.19c-0.55,21.37-0.84,37.19-0.84,47.67c0,10.49,0.36,23.62,1.13,39.35c1.11,1.25,2.42,1.87,3.91,1.85
		c1.86-0.02,5.04-3.21,9.51-9.62c12.66-26.81,20.3-43.46,22.92-49.32c7.46-17.89,12.68-35.45,15.66-52.54
		c0.75-3.63,0.85-8.11,1.67-11.36c0.6-2.37,2.6-4.85,4.47-6.59c4.84-6.46,13.99-11.37,27.41-14.82c6.33-1.7,17.14-4.42,32.43-8.92
		c15.28-4.48,26.28-7.47,33-8.78C854.69,1700.64,864.57,1703.22,864.57,1712.42z M1012.76,1885.38c0-14.6,0.64-36.68,1.95-66.41
		c1.31-29.73,1.96-52.04,1.96-66.79c0-38.47-2.03-62.46-6.15-71.58c-3.68-8.15-13.42-10.47-29.08-6.98
		c-6.35,1.42-14.73,4.36-25.16,8.76c-15.44,6.55-23.16,9.78-38.6,16.14c-13.79,5.67-24.23,14.35-31.31,26.02c0,1.85,0,2.78,0,4.63
		c0,7.18,2.52,17.31,7.55,30.38c5.03,13.09,8.49,24.3,7.55,29.9c-0.16,0.95-0.89,4.86-1.13,10.93c-0.7,17.76-0.5,30.72-0.55,37.77
		c-0.75,100.71-2.24,153.23-2.24,159.17c-0.45,7.35-0.68,11.02-1.13,18.33c-0.38,5.94-0.56,12.19-0.56,18.74c0,1.77,0,2.65,0,4.41
		c0.37,1.3,0.56,2.77,0.56,4.4c0,10.6,0,15.89,0,26.45c1.86,10.4,6.9,17.52,15.1,21.43c17.45,1.14,26.17,1.73,43.62,2.94
		c29.45,2.02,49.59-4.27,60.39-19.58c1.13-1.08,1.69-5.14,1.69-12.21c0-19.79-0.76-49.23-2.24-88.32
		C1013.51,1934.83,1012.76,1905.32,1012.76,1885.38z M1318.1,1599.34c-2.24-0.34-3.73-0.44-4.48-0.29
		c-23.86,4.94-44.93,12.7-63.19,22.93c-10.81,5.88-16.21,16.83-16.21,32.91c0,16.48,2.6,47.88,7.82,94.98
		c1.13,10.12,1.68,19.36,1.68,27.72c0,11.14-1.11,22.85-3.35,35.12c-0.38,0.44-1.31,0.77-2.8,0.99c-1.87,0.27-3.73-0.05-5.59-0.96
		c-9.33-25.93-16.83-49.9-21.81-71.84c-5.39-23.75-8.95-41.83-11.19-53.77c-6.35-27.34-11.19-43.12-14.53-47.75
		c-5.24-6.93-16.9-8.99-32.45-4.73c-32.53,8.91-57.09,19.26-70.45,25.65c-14.53,6.94-26.48,15.2-35.8,24.54
		c-2.24,5.26-3.35,10.59-3.35,16.05c0,7.3,2.31,17.28,6.99,30.05c4.66,12.77,6.99,22.52,6.99,29.1c0,31.85-1.49,79.74-4.47,143.01
		c-2.98,63.28-4.48,110.29-4.48,141.71c0,20.94-0.18,30.3-0.55,28.16c1.86,12.59,7.08,18.38,15.65,17.24
		c6.71,2.55,15.48,3.83,26.28,3.82c18.64,0,32.63-1.88,41.95-5.72c2.98-1.16,6.06-4.31,9.22-9.53c3.17-5.21,4.76-9.56,4.76-13.02
		c0-9.23-0.94-22.97-2.8-41.12c-1.86-18.11-2.8-31.74-2.8-40.92c0-3.81,0.18-7.27,0.56-10.36c0-4.36,0-6.54,0-10.9
		c0-3.07-0.37-9.64-1.11-19.68c-0.74-10.04-1.13-16.41-1.13-19.09c0-9.15,1.31-16.74,3.91-22.75c2.98,2.75,4.84,5.23,5.6,7.47
		c15.66,49.61,26.28,85.83,31.87,106.86c5.59,20.54,8.39,30.91,13.99,51.84c3.71,14.28,8.28,22.04,13.42,23.28
		c9.22,2.23,20.49,3.61,33.54,3.6c29.45-0.01,51.7-3.29,66.56-10.17c11.9-5.51,17.88-29.6,17.88-71.55
		c0.89-46.55,1.34-69.71,2.24-115.76c0.75-50.33,0.93-85.18,1.13-104.43c0.18-17.68,1.26-43.03,2.8-75.28
		c1.44-30.2,2.24-55.09,2.24-74.66c0-13.44-0.17-22.56-0.56-27.34C1331.38,1606,1326.67,1600.81,1318.1,1599.34z M1636.85,1806.33
		c0,28.13-2.03,64.78-6.71,109.53c-1.78,16.97-3.36,28.88-4.47,35.45c-1.87,10.94-4.84,22.58-8.95,34.87
		c-19.38,56.28-48.5,89.58-87.24,98.99c-23.83,5.79-50.32,8.72-79.4,8.72c-19.77,0-34.88-1.11-45.29-3.3
		c-14.54-3.06-23.32-14.03-26.28-32.74c-0.38-0.42-0.67-10.13-1.13-28.7c-0.62-25.05-1.11-46.94-1.11-65.46
		c0-28.4,0.37-63.35,1.11-104.63c0.67-52.32,1-78.27,1.67-129.75c0-4.17,0.17-9.15,0-14.39c-0.18-5.62-0.55-9.29-0.55-10.55
		c0-7.91-2.89-18.89-8.68-32.79c-5.78-13.9-8.66-24.86-8.66-33.07c0-10.25,5.02-19.77,15.1-28.62c0.73-0.54,5.59-3.5,14.53-8.84
		c28.32-16.69,57.79-24.31,88.37-25.65c52.93-2.32,90.59,12.75,112.96,43.51c2.98,4.28,7.08,11.32,12.3,21.19
		C1626.04,1682.16,1636.85,1737.53,1636.85,1806.33z M1535.07,1828.43c0-29.47-4.47-57.72-13.42-84.63
		c-4.11-12.38-10.82-18.5-20.14-18.33c-3.35,0.06-6.89,1.42-10.62,4.06c-5.59,3.95-8.39,39.22-8.39,107.12
		c0,33.75-0.11,55.34,1.11,62.55c0.48,2.86,2.88,7.5,5.6,9.12c4.98,2.96,12.66,3.21,15.66,3.19
		C1525.01,1911.41,1535.07,1883.48,1535.07,1828.43z"/>
</g>
</svg>
