<?xml version="1.0" encoding="utf-8"?>
<!-- Generator: Adobe Illustrator 25.0.1, SVG Export Plug-In . SVG Version: 6.00 Build 0)  -->
<svg version="1.1" id="Layer_1" xmlns="http://www.w3.org/2000/svg" xmlns:xlink="http://www.w3.org/1999/xlink" x="0px" y="0px"
	 viewBox="0 0 2400 2400" style="enable-background:new 0 0 2400 2400;" xml:space="preserve">
<g>
	<path transform="translate(0.000000,2400.000000) scale(0.100000,-0.100000)" d="M2211,16254c-163-44-318-186-500-458
		c-231-344-387-738-398-1001c-5-107-3-122,14-143c14-19,29-24,65-24c61-1,77,12,71,60c-6,47,42,235,92,362c111,281,276,571,454,800
		c123,159,271,290,327,290c33,0,119-84,164-159c126-213,238-685,320-1352l20-167l-76-163c-410-877-675-1857-759-2809
		c-48-546-5-1033,114-1285c56-118,107-177,188-217c62-30,76-33,180-36c127-4,184,9,266,60c257,162,446,737,522,1584
		c11,134,35,508,35,572c0,8,20,12,68,12c37,0,84,5,104,10c45,13,119,79,198,176c64,78,99,97,175,97c141,0,303-197,385-468
		c64-209,89-520,66-817l-8-107l-151-118c-499-386-647-520-795-716c-121-159-179-361-140-489c16-55,78-121,136-146
		c242-104,583,7,827,270c124,134,257,363,336,578c43,118,104,362,126,503l18,118l93,81c376,324,726,741,912,1087c24,46,53,89,65,96
		c11,6,63,37,115,68c52,30,144,94,203,142c60,48,110,85,112,83c3-2-11-44-31-94c-124-313-258-768-324-1094c-55-274-72-414-77-651
		c-8-315,24-474,114-571c62-65,112-83,238-83c123,0,179,19,248,84c126,118,253,375,521,1056c59,149,111,279,116,290c6,13,7-31,3-125
		c-12-233-7-513,11-645c34-246,117-481,199-566c60-62,97-74,222-74c101,0,114,2,156,27c80,47,175,194,283,440c34,79,69,160,75,181
		c7,20,16,37,20,37s13-51,20-112c37-319,133-507,288-569c49-20,77-23,183-24c124,0,125,0,204,38c146,69,302,255,465,552
		c33,61,68,124,77,140l17,30l22-127c30-169,67-296,115-394c52-107,105-165,187-206c60-29,78-33,169-36c191-7,300,50,436,228
		c23,30,29,33,45,23c135-92,265-121,405-92c151,32,253,140,465,494c164,272,313,576,428,866c32,79,58,145,60,147
		c8,9,370-379,450-483c51-67,155-231,155-245c0-4-35-54-77-111c-284-386-529-746-595-874c-74-145-100-226-105-335
		c-6-107,4-156,42-215c53-81,145-124,285-132c304-19,586,182,769,546c176,348,203,761,72,1097c-29,74-30,79-14,104
		c73,112,592,802,614,816c9,5,10-14,6-72c-46-575-32-1131,43-1629c32-217,42-233,150-261c104-26,237-7,292,43c24,21,24,98,1,433
		l-17,256l24,124c83,449,266,1014,446,1375c64,130,98,184,108,175c13-14,48-231,71-445c28-267,49-422,101-725c19-113,38-225,42-250
		c6-41,11-47,52-67c34-18,61-23,120-23c136,0,198,35,187,105c-8,51,9,243,34,371c55,286,207,643,394,924c113,169,194,268,318,386
		c105,100,151,134,164,120c5-4,8-62,8-129c-1-171-18-248-234-1077c-201-765-259-1118-232-1398c18-192,49-266,131-312
		c61-33,211-41,307-15c156,42,351,227,542,513c34,50,63,92,65,92s18-24,34-53c52-93,147-161,265-193c63-17,255-18,329-3
		c130,28,243,118,328,263l45,77l9-33c78-299,137-404,259-459c46-21,67-24,177-24c115,0,130,2,183,27c141,66,266,243,408,576
		c31,73,59,135,62,138s8-23,12-58c47-443,153-833,244-898c51-35,109-50,200-50c138,0,195,25,263,115c57,76,237,447,383,790l17,40
		l32-90c42-117,116-263,174-345c131-185,266-260,467-260c227,0,343,80,506,347c34,56,60,90,63,82s23-69,45-136
		c49-149,98-258,152-338c80-117,158-155,319-155c168,0,266,44,396,174c175,177,320,469,473,955c29,90,50,170,47,178
		c-15,39-144,56-211,29c-39-17-41-19-160-286c-157-353-280-567-402-699l-60-65l-41,150c-72,263-112,508-147,897l-14,168l53,142
		c201,529,353,1096,481,1794c70,387,86,505,92,686c7,198-4,244-61,271c-47,22-150,21-202-3c-122-56-245-229-404-570
		c-148-316-246-584-320-874c-20-81-40-150-43-153c-3-4-21,6-40,20c-58,44-141,68-252,73c-128,6-223-13-335-68c-69-34-102-59-176-133
		c-107-108-173-204-259-381c-100-204-166-413-201-634c-15-96-27-129-141-385c-160-363-401-852-412-840c-14,15-51,333-63,551
		c-22,386,20,936,117,1545c34,212,42,312,27,334c-42,65-289,70-344,7c-26-29-120-372-163-593c-23-118-90-343-205-691
		c-120-362-220-616-319-814c-74-146-185-325-202-325c-21,0-67,204-89,395c-13,115-13,436,0,585c11,128,46,389,61,463l11,47h49
		c68,0,117,22,125,55c22,90-29,279-113,414c-118,191-283,281-517,281c-272,0-489-126-659-381c-139-211-288-575-352-859
		c-27-120-55-310-55-374c0-36-11-60-73-157c-157-245-331-471-460-598l-65-64l-8,49c-10,69,2,350,21,474c31,201,119,564,276,1139
		c165,599,213,842,195,983c-11,84-51,156-109,195c-68,46-106,55-242,60c-246,10-391-60-616-295c-171-179-332-412-455-660
		c-36-73-67-132-69-130s-19,101-40,222c-55,334-94,429-195,486c-35,19-63,25-131,28c-163,8-255-43-361-198c-59-88-165-294-239-468
		l-44-103l-6,433c-6,410-16,565-40,610c-20,37-59,52-133,52c-125,0-150-26-180-184c-12-63-56-436-56-475c0-3-38-46-84-94
		c-153-162-632-739-703-848c-9-13-20-23-27-22c-6,0-37,33-69,73s-137,156-234,257c-279,292-320,372-293,568c28,204,98,371,199,472
		c86,86,124,99,206,74c106-34,249-135,320-226c22-28,47-61,57-73c13-17,27-21,77-21c71,0,86,11,85,64c-3,90-123,240-256,319
		c-284,169-670,112-865-127c-121-147-213-445-196-633c5-52,0-70-47-189c-202-512-611-1220-823-1427l-44-43l-40,45
		c-43,49-103,161-103,193c0,11,21,65,46,119c116,248,275,690,344,959c56,217,65,281,65,465c0,143-3,174-22,235
		c-51,162-133,225-294,225c-181,0-279-77-390-307c-131-271-199-592-199-938c1-297,43-600,105-749c15-36,15-39-11-84
		c-75-129-207-302-231-302c-29,0-107,199-137,346c-38,190-75,622-76,876v116l64,174c95,255,216,606,420,1218
		c407,1219,531,1682,567,2116c13,160,3,320-27,409c-40,116-164,163-315,119c-201-59-437-544-653-1339c-137-506-238-976-301-1395
		c-14-95-27-175-28-176c-1-2-29,10-62,27c-87,43-191,62-300,56c-285-17-469-168-642-527c-41-85-88-182-104-215s-78-199-138-370
		c-200-570-303-829-425-1075c-83-167-142-264-156-255c-10,6-41,105-60,190c-50,222-67,499-51,817c21,423,41,643,97,1077
		c19,151,34,289,32,305c-5,47-53,68-145,64c-57-3-77-8-93-23c-11-12-71-168-144-375c-204-584-275-768-454-1177
		c-205-465-360-776-449-898l-37-50l-13,44c-21,74-33,197-33,346c0,558,179,1300,521,2162c49,124,79,213,77,230c-5,43-58,68-143,68
		c-113-1-129-10-314-189c-179-174-350-326-364-326c-5,0-6,8-2,18c4,9,9,67,12,127c9,174-34,303-131,401c-91,91-218,130-368,113
		c-160-17-292-117-382-288c-162-310-103-632,138-745c60-28,139-46,201-46c25,0,45-3,45-7c0-11-108-180-182-283
		c-117-164-462-560-487-560c-4,0-11,60-14,133c-25,495-193,858-462,994c-93,47-138,60-258,76l-87,12l66,110
		c349,580,546,1120,610,1670c21,180,15,623-10,755c-40,214-104,359-197,444c-169,157-457,137-697-48c-133-102-307-300-452-514
		c-34-51-64-91-66-89s-15,66-29,143c-77,421-193,775-307,942c-77,112-198,196-316,221C2390,16274,2276,16272,2211,16254z
		 M4118,15447c34-72,54-136,79-262c14-74,17-141,17-380c0-309-9-410-60-658c-99-492-327-1015-679-1562c-49-76-143-164-159-148
		c-3,4-6,106-6,227c0,428-41,1042-107,1623l-26,233l82,147c168,300,320,518,475,680c96,101,187,175,251,204l40,18l31-30
		C4074,15522,4101,15481,4118,15447z M10314,15392c13-146-20-409-84-679c-76-318-260-902-510-1618c-111-318-124-348-115-265
		c53,483,254,1432,417,1968c97,319,243,672,278,672C10304,15470,10310,15435,10314,15392z M21550,13854c-24-298-166-945-303-1379
		c-48-151-145-427-153-434c-21-19,27,476,71,740c66,393,224,952,339,1203l41,90l8-45C21557,14005,21556,13926,21550,13854z
		 M2909,13708c32-433,36-562,36-1133c0-596-5-724-41-1082c-51-511-143-911-270-1168c-29-60-69-128-88-150c-41-48-48-44-95,51
		c-102,207-155,634-132,1061c40,723,182,1454,420,2167c77,227,143,406,152,406C2894,13860,2902,13791,2909,13708z M5460,13161
		c124-130,131-364,18-650c-32-83-52-101-113-101c-31,0-94,64-121,124c-82,182-31,451,117,619c22,26,46,47,51,47
		C5418,13200,5440,13183,5460,13161z M9015,12700c94-46,201-169,190-220c-19-94-55-603-55-782v-147l-46-108
		c-153-358-348-725-487-918c-65-90-135-171-164-190c-22-15-23-13-47,32c-65,131-96,299-103,573c-11,426,63,858,212,1236
		c114,287,233,465,355,530C8920,12733,8950,12731,9015,12700z M10483,12522c76-129,64-423-27-738c-51-172-159-467-228-621l-21-48
		l-9,45c-5,25-11,155-14,290c-5,196-3,270,10,370c39,295,130,584,223,708C10446,12566,10458,12565,10483,12522z M20451,12483
		c50-55,91-117,132-198l35-71l-14-109c-7-61-19-210-26-333c-11-211-5-454,19-747l4-60l-96-165c-117-198-249-398-304-460l-41-45
		l-23,28c-38,45-126,232-164,346c-54,167-75,307-76,511c0,193,12,314,50,495c73,350,256,732,404,840
		C20388,12543,20400,12539,20451,12483z M17316,12278c44-40,134-153,134-167c0-4-16-15-34-24c-40-19-53-52-101-262
		c-29-123-111-330-279-698c-134-295-277-567-298-567c-10,0-25,60-39,155c-19,138,8,417,62,630c75,296,214,629,340,810
		c51,74,139,165,159,165C17266,12320,17291,12301,17316,12278z M4225,10693c-25-134-155-457-238-588c-56-89-153-209-208-256
		c-91-77-210-146-231-133s-38,75-38,137c0,162,88,318,294,522c104,103,400,353,420,354C4228,10730,4229,10713,4225,10693z
		 M12217,10558c-6-189-22-278-77-433c-55-153-127-280-228-402c-57-68-175-158-193-148c-22,14-39,76-39,143c0,118,43,242,151,437
		c79,142,365,575,380,575C12220,10730,12221,10685,12217,10558z M18729,13591c-79-41-118-84-138-152c-45-148,46-259,212-259
		c89,0,137,15,187,58c49,41,67,75,80,145c19,99-8,176-79,224c-28,19-47,23-111,23C18810,13630,18797,13627,18729,13591z M7281,13574
		c-39-20-61-40-86-78c-18-28-43-60-55-71c-36-32-60-90-60-143c0-98,86-168,219-179c100-8,173,16,232,76c55,57,74,115,72,218
		c-3,148-56,203-196,203C7348,13600,7324,13595,7281,13574z"/>
</g>
</svg>
