<?xml version="1.0" standalone="no"?>
<!DOCTYPE svg PUBLIC "-//W3C//DTD SVG 20010904//EN"
 "http://www.w3.org/TR/2001/REC-SVG-20010904/DTD/svg10.dtd">
<svg version="1.0" xmlns="http://www.w3.org/2000/svg"
 width="2400.000000pt" height="2400.000000pt" viewBox="0 0 2400.000000 2400.000000"
 preserveAspectRatio="xMidYMid meet">

<g transform="translate(0.000000,2400.000000) scale(0.100000,-0.100000)"
fill="#000000" stroke="none">
<path d="M2446 18264 c-137 -33 -277 -135 -406 -295 -461 -573 -970 -1757
-970 -2256 0 -83 2 -95 24 -120 23 -27 28 -28 116 -28 l92 0 29 35 c31 37 36
60 17 89 -9 14 -6 37 11 107 94 375 351 968 631 1459 185 323 434 669 551 764
l42 35 24 -30 c13 -16 41 -65 63 -109 153 -315 284 -959 464 -2286 l45 -325
-60 -185 c-304 -930 -501 -2000 -581 -3159 -20 -282 -17 -1169 5 -1495 68
-1027 206 -1845 392 -2330 128 -333 255 -491 446 -555 55 -19 81 -21 199 -18
134 3 137 4 213 41 87 43 132 90 182 188 155 306 215 913 201 2049 -7 643 -26
1071 -77 1725 -74 962 -226 2333 -389 3510 l-39 286 45 122 c190 511 448 1030
712 1432 346 529 713 897 985 989 42 14 51 14 76 2 63 -33 122 -126 160 -251
145 -482 -27 -1495 -443 -2603 -135 -360 -649 -1610 -787 -1915 -148 -326
-143 -308 -91 -346 70 -50 232 -66 346 -34 54 15 68 24 126 87 109 118 217
222 286 274 168 125 320 195 429 196 170 2 380 -201 524 -505 270 -572 366
-1542 256 -2564 l-15 -140 -39 -35 c-21 -19 -166 -147 -322 -285 -530 -467
-835 -759 -1035 -995 -375 -441 -555 -810 -571 -1170 -15 -345 115 -551 397
-627 50 -14 101 -18 220 -17 138 1 165 4 245 28 199 60 364 165 550 351 129
129 228 253 348 435 344 523 596 1267 723 2127 l27 183 246 247 c627 631 1031
1164 1319 1738 87 174 113 235 172 405 l48 135 128 55 c249 108 484 265 764
514 46 41 86 73 88 71 2 -1 -19 -72 -47 -157 -327 -1000 -534 -2046 -591
-2978 -13 -215 -13 -677 0 -872 33 -492 125 -877 265 -1116 73 -126 171 -206
304 -251 67 -22 92 -25 216 -25 125 1 149 4 222 28 321 105 572 480 943 1406
128 320 228 594 360 979 l107 313 6 -348 c11 -623 57 -1035 164 -1458 144
-576 292 -756 623 -756 203 0 322 60 424 213 163 246 506 1039 768 1772 l53
150 2 -55 c18 -439 108 -864 246 -1162 87 -189 222 -345 358 -413 115 -58 203
-78 359 -79 151 -1 241 15 361 65 284 116 589 481 914 1091 65 123 85 144 85
93 0 -42 49 -295 90 -461 152 -623 391 -1000 717 -1126 131 -51 195 -62 363
-62 187 0 281 20 435 94 119 56 212 121 317 219 l78 73 67 -51 c138 -104 285
-145 488 -139 116 4 141 8 231 40 250 85 516 279 842 612 394 402 734 878
1035 1446 136 258 371 793 363 826 -12 48 -154 71 -236 38 -38 -15 -45 -25
-131 -193 -297 -572 -507 -923 -758 -1264 -413 -563 -917 -1049 -1274 -1228
-43 -22 -86 -37 -96 -34 -45 14 -221 247 -221 293 0 9 44 81 99 161 328 485
600 1043 810 1668 298 885 385 1709 235 2230 -74 256 -201 400 -406 460 -105
30 -286 32 -394 4 -202 -52 -380 -194 -533 -422 -76 -115 -203 -371 -265 -536
-208 -554 -346 -1375 -346 -2053 1 -525 78 -1041 207 -1383 l44 -118 -47 -57
c-75 -90 -283 -295 -344 -339 -81 -59 -163 -103 -192 -103 -52 0 -166 104
-250 230 -240 358 -384 965 -453 1910 -25 342 -33 295 101 627 1036 2568 1792
5349 1751 6438 -13 326 -81 489 -232 556 -135 60 -360 41 -489 -41 -411 -261
-911 -1461 -1275 -3060 -81 -357 -226 -1143 -256 -1393 -4 -31 -11 -59 -15
-62 -4 -3 -36 8 -71 24 -248 110 -603 117 -905 16 -401 -133 -718 -415 -920
-817 -69 -138 -121 -269 -174 -438 -64 -206 -86 -270 -258 -760 -435 -1238
-722 -1962 -1034 -2610 -99 -207 -238 -470 -248 -470 -11 0 -76 207 -114 361
-195 802 -216 1826 -65 3334 60 608 108 953 159 1156 36 143 38 181 8 209 -80
74 -337 64 -408 -16 -48 -55 -108 -283 -165 -624 -47 -284 -431 -1521 -749
-2411 -426 -1198 -774 -1944 -1049 -2254 -43 -49 -48 -46 -105 70 -231 466
-287 1467 -146 2590 105 836 322 1755 639 2716 67 202 105 331 105 358 0 84
-85 127 -245 125 -162 -2 -162 -2 -488 -328 -289 -289 -436 -424 -611 -560
-116 -91 -246 -180 -252 -173 -3 2 1 69 7 147 26 335 -47 657 -190 837 -53 66
-144 127 -230 154 -87 27 -265 30 -361 4 -191 -50 -350 -195 -462 -420 -167
-332 -157 -730 21 -952 113 -140 356 -233 613 -233 l57 0 -26 -62 c-147 -368
-430 -826 -774 -1253 -134 -167 -360 -424 -435 -497 l-39 -37 4 258 c10 777
-106 1454 -329 1906 -92 188 -156 281 -270 396 -207 208 -427 294 -755 294
-164 0 -252 -13 -386 -55 -40 -12 -59 -14 -56 -7 3 7 51 122 107 257 531 1271
718 1796 859 2402 197 853 197 1438 -1 1735 -60 89 -122 144 -213 187 -117 57
-189 70 -365 70 -135 -1 -168 -4 -255 -28 -121 -32 -291 -113 -402 -192 -394
-283 -810 -828 -1190 -1560 l-78 -152 -38 227 c-89 528 -192 986 -282 1255
-124 371 -251 530 -467 581 -78 18 -234 18 -312 -1z m15185 -648 c26 -253 -30
-764 -141 -1301 -221 -1061 -677 -2567 -1201 -3965 -101 -270 -99 -272 -74 51
30 383 42 470 64 491 25 22 26 34 7 79 -12 30 -11 57 10 224 162 1276 416
2454 739 3423 171 514 357 922 519 1142 l40 55 13 -44 c7 -25 18 -95 24 -155z
m-14197 -4486 c178 -1685 249 -2898 232 -3950 -11 -651 -43 -998 -114 -1235
l-18 -60 -29 49 c-257 439 -468 1697 -504 3005 -20 707 24 1418 135 2188 48
335 156 925 181 983 7 17 50 -347 117 -980z m4760 691 c118 -227 139 -606 53
-949 -25 -97 -27 -99 -125 -101 -118 -2 -211 89 -269 264 -24 73 -27 94 -27
235 1 135 4 167 27 253 14 54 46 139 70 190 44 92 124 209 155 226 24 14 73
-36 116 -118z m7223 -446 c84 -27 158 -68 266 -147 60 -45 67 -54 63 -77 -12
-55 -56 -477 -75 -711 -38 -453 -44 -632 -45 -1195 l-1 -560 -114 -245 c-299
-647 -578 -1137 -815 -1431 -91 -114 -215 -235 -271 -265 -34 -18 -34 -18 -61
6 -116 108 -248 408 -317 720 -136 609 -108 1302 89 2263 189 926 446 1378
905 1596 158 76 248 87 376 46z m3234 -282 c85 -79 144 -227 181 -448 22 -132
16 -516 -10 -715 -85 -634 -314 -1345 -657 -2039 -130 -264 -304 -575 -305
-546 0 6 -11 84 -25 175 -42 284 -58 509 -58 830 1 162 6 363 12 445 78 1015
325 1875 640 2226 52 58 133 119 158 119 8 0 36 -21 64 -47z m-12506 -3750
c-166 -715 -416 -1287 -754 -1723 -126 -163 -314 -334 -425 -386 l-38 -19 -25
30 c-64 77 -93 186 -93 346 0 330 157 664 518 1099 174 210 839 853 850 822 2
-6 -13 -82 -33 -169z"/>
<path d="M12078 15035 c-93 -30 -202 -154 -292 -333 l-36 -71 -77 78 c-52 51
-98 88 -138 107 -56 27 -68 29 -180 29 -98 0 -127 -3 -159 -19 -115 -58 -94
-162 78 -378 45 -56 111 -130 147 -162 127 -117 277 -196 374 -196 22 0 58 -9
80 -20 66 -34 172 -23 223 23 52 48 243 422 292 572 43 132 51 255 21 302 -33
52 -92 76 -196 80 -60 2 -106 -2 -137 -12z"/>
</g>
</svg>
