<?xml version="1.0" encoding="utf-8"?>
<!-- Generator: Adobe Illustrator 25.2.0, SVG Export Plug-In . SVG Version: 6.00 Build 0)  -->
<svg version="1.1" id="Layer_1" xmlns="http://www.w3.org/2000/svg" xmlns:xlink="http://www.w3.org/1999/xlink" x="0px" y="0px"
	 viewBox="0 0 2200 2200" style="enable-background:new 0 0 2200 2200;" xml:space="preserve">
<g>
	<path d="M595.69,169.08c0-0.57,0.57-2.26,0.57-2.83l5.09-18.1c1.13-3.96,5.09-7.92,9.05-7.92h0.57c5.66,0,10.18,4.53,10.18,10.18
		c0,0.57-0.57,2.27-0.57,2.83l-5.09,18.1c-1.13,3.96-5.09,7.92-9.61,7.92C600.21,179.26,595.69,174.74,595.69,169.08z
		 M870.59,218.29c-1.7,0-4.52,1.13-6.22,2.26c-29.98,22.63-107.47,54.87-170.82,64.48c-31.68,5.09-59.39,3.39-75.23-4.53
		c-7.92-3.96-13.01-9.05-15.84-16.4c-2.83-7.35-3.96-18.1,0-32.81c0-0.57,0.57-2.27,0.57-2.83c0-5.66-4.52-10.18-10.18-10.18
		c-0.57,0-0.57,0.57-1.13,0.57c-0.57,0-1.13-0.57-1.7-0.57h-0.57c-1.7,0-4.52,0.57-5.65,1.7c-18.1,11.88-58.83,29.98-108.6,46.38
		c-49.78,16.41-108.04,31.68-160.65,40.73c-52.6,9.05-100.12,12.45-127.27,5.66c-13.58-3.4-20.93-9.05-23.19-14.71
		c-2.27-5.66-1.7-15.27,7.35-31.11c0.57-1.13,1.13-3.39,1.13-5.09c0-5.66-4.53-10.18-10.18-10.18c-3.39,0-6.78,2.83-8.48,5.66
		c-10.75,18.67-14.71,34.51-8.48,48.65c6.22,14.14,20.36,22.06,36.77,26.02c33.38,8.49,82.02,4.53,135.76-5.09
		c53.73-9.62,113.13-24.89,163.47-41.29c40.72-13.01,74.66-27.15,98.42-39.59c-0.57,9.05,0.57,17.53,3.4,24.89
		c4.52,12.45,14.71,22.06,26.02,27.72c23.19,11.88,53.74,11.31,87.11,6.22c67.32-10.18,144.81-41.86,179.88-68.45
		c2.26-1.7,4.53-5.09,4.53-7.92C880.78,222.81,876.25,218.29,870.59,218.29z M2035.22,231.3c-1.13,4.52-5.09,7.35-9.61,7.35
		c-5.66,0-10.18-4.53-10.18-10.18v-2.26c3.39-13.01,2.26-19.23,0.57-20.93c-1.7-1.7-5.66-3.96-15.27-2.83
		c-19.23,1.7-53.17,15.27-90.51,32.24s-79.19,36.77-118.78,52.6c-39.6,15.84-75.8,27.15-105.21,24.33
		c-20.36-2.27-35.07-9.05-44.69-18.1c-9.61-9.05-13.58-20.36-15.27-30.54c-1.7-10.18-1.7-19.23-2.26-24.89
		c-0.57-2.27-1.14-3.96-1.14-4.53c-1.13,0-4.52,0.57-9.61,5.09c-5.66,4.52-11.88,12.44-18.67,20.36
		c-6.78,7.92-14.14,15.27-22.06,21.49c-7.92,6.22-18.66,10.18-29.41,7.35c-9.61-2.83-15.84-10.18-18.1-18.1s-1.13-14.71-0.57-20.93
		c0.57-6.22,0.57-11.32,0-14.14c-0.57-2.83,0.57-2.26-2.83-3.39c-5.65-1.7-8.48,0-13.57,6.22c-5.09,6.22-10.75,16.97-15.28,27.72
		c-4.52,10.75-9.05,22.06-14.14,31.11c-2.83,4.52-5.65,8.48-10.18,11.88c-4.53,3.4-11.31,5.09-17.53,2.83
		c-10.18-3.4-15.27-13.01-17.54-22.06c-2.26-9.05-2.83-18.67-2.26-27.72c0.28-4.65,0.74-9.16,1.27-13.32
		c-38.85,25.1-98.14,53.5-152.84,60.83c-31.68,3.96-62.79,1.7-85.41-15.84c-16.4-12.45-27.15-31.67-31.67-58.26
		c-6.22,10.18-13.58,20.93-22.06,31.67c-9.62,12.45-20.36,23.76-30.55,32.81c-10.18,9.05-20.92,16.4-33.37,15.84
		c-10.18-0.57-18.67-4.52-24.89-11.31c-6.22-6.79-9.61-15.28-10.75-24.89c-2.26-18.66,5.09-40.72,22.63-58.26
		c21.49-21.49,46.95-22.06,65.05-16.4c9.61,2.83,16.97,7.35,22.06,10.75c5.09-9.05,9.05-16.4,10.18-19.23
		c1.14-3.4,5.66-6.22,9.62-6.22c5.66,0,10.18,4.52,10.18,10.18c-1.7,41.86,9.05,64.48,26.02,76.93
		c16.97,12.45,41.29,16.4,70.14,12.45c57.7-7.35,127.27-43.55,160.65-68.45c1.7-1.13,4.52-2.26,6.22-2.26c0.46,0,0.9,0.08,1.34,0.13
		c0.48-0.08,0.97-0.13,1.46-0.13c5.66,0,9.61,4.52,9.61,10.18v2.26c0,0-3.96,15.84-4.52,31.68c-0.57,7.92,0,15.84,1.7,21.49
		c1.13,4.52,2.26,6.79,3.96,7.92c0.57-0.57,2.26-2.83,3.96-5.66c3.96-6.79,8.48-17.53,13.58-28.85
		c5.09-11.31,10.18-23.76,18.1-32.81c7.92-9.05,20.36-15.84,33.94-12.45c9.05,2.26,15.84,10.75,17.54,18.1
		c1.7,7.35,0.57,14.14,0,20.36c-0.57,6.22-0.57,11.32,0,14.14c0.57,2.83,0.57,2.83,4.52,3.96c2.83,0.57,6.22-0.57,11.88-4.53
		c5.66-3.96,12.45-11.31,19.23-18.66c6.79-7.35,13.01-15.84,20.36-22.06c7.35-6.22,16.41-11.88,27.15-9.61
		c5.09,1.13,10.18,5.09,12.45,9.05c2.26,3.96,3.39,8.49,3.96,12.45c1.13,7.92,1.13,16.4,2.27,24.32c1.13,7.92,3.96,14.14,9.61,19.8
		c5.66,5.66,15.27,10.18,32.81,12.45c22.06,2.26,56.57-7.92,95.03-23.19c38.46-15.27,80.32-35.64,118.22-52.61
		c37.9-16.97,71.27-31.67,96.72-33.94h5.09h1.7c10.18,0,19.8,2.26,26.02,10.18C2039.18,201.88,2039.18,215.46,2035.22,231.3z
		 M1139.82,231.87c-3.96-2.83-10.18-6.22-17.54-8.49c-4.53-1.7-9.61-2.26-14.71-2.26h-1.13c-9.05,0-18.67,3.4-28.85,13.58
		c-13.58,13.58-18.1,29.98-16.97,41.86c0.57,5.66,2.83,10.75,5.65,13.58c2.83,2.83,6.22,5.09,11.32,5.09
		c2.26,0,10.18-3.39,19.23-10.75c9.05-7.35,18.66-18.67,27.71-30.54C1130.2,246.57,1134.73,239.22,1139.82,231.87z"/>
	<path d="M369.69,399.91c5.27,13.57,7.91,28.23,7.91,44.2c0,10.16-1.86,18.38-5.41,24.91c-4.23,7.79-10,12.08-17.9,11.72
		c-6.66-0.3-12.49-4.86-17.06-13.61c-7.08-13.12-12.07-21.32-14.99-24.25c-8.31-8.79-20.43-13.28-35.79-13.36
		c-19.08-0.1-28.71,5.4-28.71,16.33c0,11.41,4.18,20.43,12.07,26.69c6.92,5.49,16.22,8.82,27.05,9.46c4.58,0.27,12.9-8.15,17.89-7.9
		c4.58,0.23,6.65,19.21,6.65,56.28c0,9.36-5.41,17.82-13.73,17.08c-2.91-0.26-7.91-4.89-14.56-13.8
		c-6.66-8.91-14.15-13.64-22.06-14.33c-6.25-0.54-10.4,1.36-12.07,5.75c-0.83,2.19-1.31,8.09-1.66,17.06
		c-1.48,37.24,2.08,72.18,8.74,104.95c1.66,7.07,9.35,19.17,22.89,35.53c12.51,15.11,18.29,27.31,17.48,36.81
		c-0.85,9.96-9.57,13.59-26.63,10.35c-4.58-0.87-10.97-2.79-19.57-5.2c-8.47-2.37-14.56-3.92-18.31-4.73
		c-31.29-6.4-46.94-10.05-78.23-18.37c-14.15-3.91-21.23-13.13-21.23-26.86c0-5.42,2.92-11.66,9.99-17.41
		c6.33-5.45,9.49-8.24,15.82-13.95c8.32-7.46,11.23-18.51,11.23-31.37c-0.67-49.72-1-74.58-1.66-124.28c0-0.17,0-0.26,0-0.43
		c0-28.76-4.16-46.66-11.24-52.99c-2.49-1.43-6.62-3.65-10.4-6.9c-3.3-2.84-4.99-8.23-4.99-14.53c0-11.33,7.13-19.91,21.64-25.33
		c12.04-4.5,26.63-7.12,44.11-6.58c1.25,0.01,3.32,0.02,6.24,0.48c2.33,0.01,3.49,0.02,5.82,0.03c-2.08-0.01,7.49,0.04,28.72,0.15
		c9.57,0.05,24.38-1.05,42.87-3.56c18.54-2.51,32.87-4.21,41.61-4.21C353.88,373.76,362.96,382.6,369.69,399.91z M612.65,463.86
		c18.59,47.06,27.9,100.75,27.9,161.2c0,41.3-13.32,75.7-39.55,102.71c-24.68,25.41-54.93,37.8-90.3,36.02
		c-39.55-1.99-71.35-22.59-94.89-60.5c-21.25-34.23-32.05-74.83-32.05-121.75c0-51.69,10.82-96.37,32.47-135.49
		c24.89-44.98,58.69-68.79,101.14-68.76C558.55,377.32,590.11,406.82,612.65,463.86z M549.39,559.23c0-21.82-4.15-46.32-12.06-72.99
		c-9.98-33.69-22.48-50.44-37.04-50.62c-8.74-0.11-15.26,7.57-19.99,22.66c-3.53,11.27-5.4,23.73-5.4,37.08
		c0,22.29,2.99,43.6,9.15,62.96c8.38,26.29,20.39,39.63,36.62,40.16C539.82,599.1,549.39,586.03,549.39,559.23z M947.59,697.51
		c4.98,4.85,7.47,8.9,7.47,12.89c0,3.09-2.49,6.2-7.06,10.15c-3.99,3.39-5.99,5.09-9.99,8.49c-5,1.39-13.36,3.89-24.56,8.09
		c-9.5,3.57-17.48,5.86-24.15,7.06c-28.71,5.13-48.68-3.78-59.52-27.7c-5.4-11.72-10.22-37.29-14.97-77.42
		c-3.98-33.59-11.25-55.79-21.24-65.09c-3.32-3.11-7.51-3.67-12.06-1.81c-7.83,3.2-11.23,8.12-9.99,16.41
		c5.81,46.32,11.44,73.62,17.9,81.81c6.69,8.48,17.06,17.2,17.06,27.09c0,25.92-5.84,42.2-17.06,49.96
		c-8.7,6.01-32.47,9.82-71.17,11.26c-31.64,1.18-53.11-1.77-63.25-8.4c-10.35-6.77-15.45-21.5-14.16-42.28
		c0.29-4.73,2.91-10.18,7.91-16.02c6.25-7.32,9.57-11.72,10.82-14.18c3.76-9.25,8.69-32.68,14.16-71.03
		c4.92-34.47,10.41-68.9,11.23-98.95c0.88-32.34-4.57-54.94-11.23-61.52c-2.49-1.54-6.71-4.04-10.4-7.63c-3.35-3.26-5-9.67-5-17.32
		c0-13.76,7.3-24.42,21.65-31.18c11.58-5.45,26.2-9.21,44.1-8.2c6.99,0.41,10.49,0.61,17.48,1.02c24.56-1.55,40.38-2.07,46.63-2.09
		c22.88-0.08,43.3,5.47,60.76,16c21.57,13,32.45,30.89,32.45,55.28c0,30.11-14.14,55.09-42.45,75.2
		c2.93,9.89,8.74,16.56,17.89,20.49c13.74,5.88,20.41,8.46,20.82,8.42c11.23,9.7,19.92,19.59,25.39,30.34
		c4.85,9.54,9.3,22.96,12.48,39.28c4.73,24.27,11.65,44.64,21.21,60.52C937.17,687.69,941.03,691.12,947.59,697.51z M796.94,470.81
		c0-24.38-7.91-36.51-24.14-36.44c-7.08,0.03-14.57,7.65-13.33,16.23c1.34,20.79,2.01,31.13,3.34,51.68
		c0.41,8.48,2.9,12.92,7.49,12.86c8.32-0.11,14.95-5.46,19.97-15.13C794.79,491.31,796.94,481.26,796.94,470.81z M1200.09,564.58
		c0-9.04-7.08-21.53-15.38-20.53c-2.93,0.35-6.68,3.98-11.25,10.92c-4.57,6.94-9.98,10.91-17.06,11.85
		c-1.25,0.17-2.91,0.39-4.98,0.24c-3.76-0.71-12.91,3.36-16.23,3.81c-40.38,5.42-60.35-9.6-60.35-44.68
		c0-14.8,4.59-22.83,13.33-23.61c7.91-0.71,13.66,2.37,17.48,8.81c3.9,6.57,8.32,9.51,12.89,9.04c7.08-0.73,12.18-7.47,15.82-19.95
		c2.54-8.69,3.74-18.2,3.74-27.55c0-6.07-2.08-8.78-6.23-8.51c-4.59,0.31-11.67,9.81-16.23,10.15c-11.25,0.82-20.85-0.94-28.73-5.44
		c-9.14-5.22-13.72-12.63-13.72-21.96c0-2.11,0.42-3.83,0.83-5.98c1.24-5.56,2.91-9.03,5.83-10.41c3.66-0.15,5.49-0.23,9.15-0.38
		c19.97-0.83,34.96,2.29,45.36,8.69c4.15,2.63,9.98,8.43,17.89,17.97c5.4,6.47,11.65,9.23,19.14,8.71
		c7.91-0.55,14.05-4.59,18.31-11.43c3.38-5.44,5-12.39,5-20.55c0-12.81-2.47-24.46-7.49-35.14c-6.51-13.84-15.82-20.96-27.88-20.92
		c-8.74,0.03-24.14,0.88-45.36,2.22c-21.24,1.33-36.64,2.29-46.21,2.35c-7.06,0.04-24.21-1.5-30.79-1.55
		c-17.26-0.13-32.08,2.4-44.11,7.4c-14.51,6.03-21.65,15.73-21.65,28.01c0,6.83,1.73,12.55,5,15.27c3.72,3.09,7.91,5.09,10.4,6.35
		c5,3.82,8.53,13.74,9.98,29c0.71,7.4,0,16.01-0.42,25.81c-1.33,45.96-1.99,68.87-3.32,114.51c-0.83,26.96-3.32,44.01-7.08,51.23
		c-3.16,5.79-4.75,8.69-7.91,14.51c-0.83,1.9-4.57,6.94-11.65,15.69c-4.17,5.14-6.25,10.39-6.25,16.12
		c0,14.17,7.08,20.34,21.24,17.65c31.29-5.78,46.93-8.75,78.22-14.7c11.25-2.2,22.92-4.12,34.96-6.86
		c14.52-3.31,25.81-5.48,34.13-7.11c29.97-5.88,47.45-10.89,52.85-15.53c13.74-12.26,20.8-34.58,20.8-66.54
		c0-7.11-0.65-16.25-1.24-26.63C1200.31,574.2,1200.09,567.33,1200.09,564.58z M1478.84,382.69c-9.38-2.97-20.39-4.46-32.45-4.45
		c-41.21,0.02-62.01,8.67-62.01,26.36c0,6.35,2.92,10.63,9.16,13.08c6.22,2.45,9.57,6.3,9.57,11.31c0,10.66-3.29,23.65-9.98,39.37
		c-7.78,18.27-16.65,29.3-26.22,32.63c-7.08-2.16-14.67-11.38-22.48-27.36c-7.11-14.55-10.69-26.94-11.23-35.55
		c-0.98-15.52,10.3-26.37,10.81-29c0.33-1.67,0.83-3.48,0.83-5.88c0-7.57-4.24-12.94-12.89-16.67c-9.95-4.3-27.54-6.69-52.02-7.01
		c-17.43-0.22-32.07,2-44.11,6.18c-14.52,5.04-21.63,13.16-21.63,23.47c0,5.73,1.76,10.56,4.98,12.81c3.8,2.65,7.91,4.24,10.4,5.28
		c5.42,3.55,10.4,11.61,15.41,24.08c4.16,10.86,6.24,16.27,10.4,27.03c1.66,4.75,8.73,25.94,19.56,62.53
		c10.4,35.14,19.99,61.19,29.15,77.8c13.72,24.94,29.13,35.77,46.19,32.88c5.4-0.91,12.12-3.14,19.56-6.6
		c9.54-4.44,16.23-9.25,19.97-14.2c9.15-12.76,22.01-46.97,38.3-96.13c18.17-54.84,32.45-88.59,42.43-104.68
		c1.27-2.29,6.87-6.53,16.23-12.46c7.46-4.72,11.38-10.23,11.23-16.2C1497.77,393.12,1491.2,386.6,1478.84,382.69z M1742.59,558.44
		c-0.62-9.6-0.83-15.66-0.83-18.08c0-7.96-7.08-20.05-15.38-20.42c-2.93-0.13-6.66,2.46-11.25,7.73c-4.57,5.29-9.98,7.81-17.06,7.53
		c-1.25-0.05-2.91-0.12-4.98-0.55c-3.76-1.17-12.91,0.91-16.23,0.8c-40.38-1.35-60.35-15.84-60.35-43.64
		c0-11.73,4.59-17.65,13.33-17.52c7.91,0.12,13.68,3.12,17.48,8.66c3.92,5.72,8.32,8.55,12.89,8.66
		c7.08,0.16,12.18-4.83,15.82-14.75c2.53-6.91,3.74-14.66,3.74-22.35c0-4.99-2.08-7.37-6.23-7.44c-4.59-0.08-11.67,7.11-16.23,7.03
		c-11.25-0.19-20.85-2.29-28.73-6.35c-9.15-4.7-13.72-10.69-13.72-17.9c0-1.63,0.42-2.94,0.83-4.58c1.24-4.23,2.91-6.84,5.83-7.8
		c3.66,0.02,5.49,0.04,9.15,0.07c19.97,0.15,34.96,3.26,45.36,9.02c4.15,2.36,9.98,7.4,17.89,15.89c5.4,5.76,11.65,8.6,19.14,8.78
		c7.91,0.19,14.06-2.73,18.31-8.3c3.36-4.39,5-10.34,5-17.4c0-11.08-2.48-21.29-7.49-30.53c-6.52-11.99-15.82-17.95-27.88-17.96
		c-8.74-0.01-24.14,0.64-45.36,1.59c-21.24,0.95-36.64,1.57-46.21,1.56c-7.06-0.01-24.19-1.24-30.79-1.3
		c-17.32-0.17-32.07,1.62-44.11,5.08c-14.53,4.18-21.65,10.88-21.65,19.59c0,4.84,1.8,8.99,5,11c3.89,2.44,7.91,3.88,10.4,4.87
		c5,2.92,8.54,10.32,9.98,21.54c0.7,5.47,0,11.81-0.42,19.08c-1.33,34.12-1.99,51.48-3.32,86.84c-0.83,20.88-3.32,34.15-7.08,39.43
		c-3.16,4.22-4.75,6.33-7.91,10.59c-0.83,1.41-4.57,4.97-11.65,11.12c-4.17,3.61-6.25,7.56-6.25,12.15
		c0,11.34,7.08,17.18,21.24,16.85c31.29-0.58,46.93-0.66,78.22-0.26c11.25,0.09,22.93,0.59,34.96,0.56
		c14.54-0.04,25.81,0.41,34.13,0.74c29.98,1.21,47.45,1.06,52.85-1.75c13.74-7.54,20.8-25.77,20.8-54.08
		C1743.84,575.94,1743.19,567.66,1742.59,558.44z M2057.54,683.38c0,2.91-2.49,4.69-7.06,6.29c-3.99,1.34-5.99,2.01-9.99,3.34
		c-5-0.98-13.39-2.43-24.56-3.45c-9.52-0.87-17.48-2.14-24.14-3.79c-28.71-7.1-48.68-21.66-59.52-44.57
		c-5.4-11.25-10.23-33.56-14.97-66.18c-3.98-27.4-11.25-45.76-21.24-54.45c-3.32-2.91-7.52-3.99-12.06-3.32
		c-7.85,1.15-11.23,4.79-9.99,11.1c5.81,35.12,11.39,57.25,17.89,65.17c6.68,8.15,17.06,17.73,17.06,25.6
		c0,20.6-5.86,32.01-17.06,34.92c-8.71,2.27-32.47-0.09-71.16-4.9c-31.64-3.93-53.05-8.2-63.25-14.11
		c-10.35-5.99-15.45-17.3-14.16-32.16c0.29-3.37,2.91-7.17,7.91-11.01c6.25-4.82,9.57-7.73,10.82-9.4
		c3.76-6.38,8.69-22.97,14.16-49.76c4.91-24.08,10.43-48.35,11.23-68.52c0.86-21.77-4.57-37.66-11.23-42.23
		c-2.49-1.09-6.53-2.71-10.4-5.32c-3.24-2.18-5-6.52-5-11.59c0-9.11,7.22-16.02,21.65-20.44c11.59-3.55,26.2-6.04,44.09-5.29
		c6.99,0.3,10.49,0.45,17.48,0.76c24.56-0.96,40.38-1.27,46.63-1.25c22.88,0.08,43.3,4.18,60.76,12.71
		c21.58,10.54,32.45,25.76,32.45,45.64c0,24.54-14.14,43.36-42.45,54.83c2.93,8.2,8.74,14.45,17.89,19.28
		c13.74,7.24,20.41,10.84,20.82,10.89c11.23,10.33,19.93,20.81,25.39,31.46c4.86,9.49,9.29,22.35,12.48,37.77
		c4.72,22.82,11.65,43.55,21.22,61.92c0.42,1.33,4.25,5.95,10.84,14.73C2055.06,674.7,2057.54,679.63,2057.54,683.38z
		 M1899.41,444.11c0-17.92-7.91-27.28-24.14-27.73c-7.08-0.2-14.57,4.93-13.33,11.03c1.34,14.74,2,22.14,3.34,37.02
		c0.42,6.13,2.91,9.52,7.49,9.8c8.32,0.52,14.96-2.71,19.97-9.28C1897.26,459.03,1899.41,451.8,1899.41,444.11z"/>
	<path d="M369.69,814.71c5.28,13.82,7.91,28.24,7.91,43.62c0,9.78-1.87,17.48-5.41,23.3c-4.23,6.96-10,10.38-17.9,8.94
		c-6.66-1.21-12.49-6.47-17.06-15.63c-7.08-13.78-12.07-22.57-14.99-25.9c-8.31-9.92-20.44-16.41-35.79-19.49
		c-19.1-3.84-28.71-0.66-28.71,10.06c0,11.18,4.16,20.93,12.07,28.68c6.93,6.79,16.22,11.84,27.05,14.41
		c4.58,1.09,12.9-5.66,17.89-4.58c4.58,0.99,6.65,19.75,6.65,55.73c0,9.09-5.41,16.49-13.73,14.43c-2.91-0.72-7.91-6.04-14.56-15.89
		c-6.66-9.85-14.15-15.86-22.06-18.06c-6.25-1.74-10.4-0.73-12.07,3.24c-0.83,1.98-1.31,7.68-1.66,16.39
		c-1.48,36.26,2.08,71.21,8.74,104.48c1.66,7.21,9.33,20.45,22.89,38.53c12.51,16.69,18.29,29.27,17.48,38.4
		c-0.85,9.57-9.57,12.01-26.63,6.21c-4.58-1.56-10.93-4.42-19.57-8.26c-8.47-3.76-14.56-6.4-18.31-7.89
		c-31.29-12.08-46.94-19.05-78.23-35.16c-14.15-7.44-21.23-18.62-21.23-32.35c0-5.42,2.92-10.85,9.99-14.7
		c6.33-3.75,9.49-5.71,15.82-9.76c8.32-5.29,11.23-15.56,11.23-28.33c-0.67-49.56-1-74.34-1.66-123.91c0-0.17,0-0.26,0-0.43
		c0-28.58-4.16-47.52-11.24-55.92c-2.49-2.16-6.51-5.48-10.4-10c-3.39-3.94-4.99-9.75-4.99-16.04c0-11.31,7.12-17.56,21.64-18.63
		c12.02-0.89,26.63,0.71,44.11,5.79c1.24,0.33,3.32,0.88,6.24,2.08c2.33,0.61,3.49,0.91,5.82,1.5c-2.08-0.53,7.49,2.08,28.72,6.99
		c9.57,2.21,24.34,4.37,42.87,5.5c18.5,1.12,32.87,1.87,41.61,3.29C353.88,787.21,362.96,797.1,369.69,814.71z M612.65,889.22
		c18.59,43.42,27.9,92.48,27.9,148.21c0,38.07-13.33,70.63-39.55,96.95c-24.7,24.79-54.93,37.66-90.3,36.19
		c-39.55-1.64-71.34-22.3-94.89-60.02c-21.25-34.04-32.05-74.24-32.05-119.33c0-49.68,10.82-91.38,32.47-126.65
		c24.89-40.55,58.69-59.97,101.14-57.9C558.55,808.67,590.11,836.6,612.65,889.22z M549.39,978.5c0-20.44-4.15-43.4-12.06-68.61
		c-9.98-31.86-22.48-48.1-37.04-48.99c-8.74-0.53-15.26,6.36-19.99,20.37c-3.53,10.46-5.4,22.18-5.4,34.84
		c0,21.13,2.98,41.51,9.15,60.09c8.38,25.22,20.39,38.18,36.62,38.9C539.82,1015.94,549.39,1003.6,549.39,978.5z M955.06,1087.29
		c0,2.94-2.49,6.12-7.06,10.3c-3.99,3.58-5.99,5.37-9.98,8.94c-5,1.76-13.36,4.86-24.56,9.76c-9.51,4.15-17.48,6.94-24.14,8.59
		c-28.71,7.1-48.68,0.29-59.52-20.6c-5.4-10.23-10.22-33.08-14.97-69.01c-3.97-30.05-11.25-49.38-21.24-56.64
		c-3.32-2.43-7.51-2.46-12.06-0.28c-7.84,3.75-11.23,8.43-9.99,15.77c5.81,41.15,11.44,65.01,17.9,71.82
		c6.67,7.03,17.06,14.06,17.06,23c0,23.43-5.84,38.57-17.06,46.24c-8.7,5.95-32.47,12.67-71.17,18.19
		c-31.64,4.51-53.1,3.6-63.25-1.69c-10.32-5.38-15.45-18.68-14.16-37.83c0.29-4.37,2.91-9.56,7.91-15.27
		c6.25-7.15,9.57-11.42,10.82-13.76c3.76-8.75,8.69-30.6,14.16-66.11c4.92-31.92,10.42-63.81,11.23-91.37
		c0.87-29.46-4.57-50.16-11.23-55.96c-2.49-1.32-6.69-3.44-10.4-6.64c-3.31-2.86-5-8.75-5-15.8c0-12.68,7.28-22.68,21.65-29.37
		c11.59-5.39,26.2-9.37,44.09-9.31c6.99,0.03,10.49,0.03,17.48,0.02c24.56-2.76,40.38-4.46,46.63-5.51
		c22.88-3.81,43.31-2.33,60.77,4.3c21.57,8.19,32.45,22.92,32.45,45.58c0,27.99-14.14,53.56-42.45,75.87
		c2.93,8.66,8.74,14,17.89,16.38c13.74,3.56,20.41,5.05,20.82,4.95c11.23,7.46,19.93,15.52,25.39,24.84
		c4.84,8.26,9.3,20.29,12.48,35.19c4.73,22.18,11.65,40.56,21.21,54.55c0.42,1.16,4.28,3.99,10.84,9.38
		C952.56,1079.89,955.06,1083.49,955.06,1087.29z M796.94,884.86c0-22.09-7.91-31.28-24.14-30.01c-7.08,0.55-14.57,7.97-13.33,15.66
		c1.33,18.74,2,28.04,3.34,46.51c0.41,7.64,2.91,11.44,7.49,10.99c8.32-0.81,14.95-6.39,19.97-15.8
		C794.79,903.72,796.94,894.33,796.94,884.86z M1200.09,914.34c0-9.39-7.08-21.42-15.38-19.24c-2.93,0.77-6.68,5.03-11.25,12.79
		c-4.57,7.76-9.98,12.54-17.06,14.44c-1.25,0.34-2.91,0.78-4.98,0.91c-3.76-0.22-12.91,5.15-16.23,6.06
		c-40.38,10.94-60.35-1.16-60.35-35.92c0-14.66,4.59-23.38,13.33-25.6c7.91-2.02,13.66,0.12,17.48,5.95
		c3.88,5.92,8.32,8.22,12.89,7.03c7.08-1.84,12.17-9.41,15.82-22.67c2.54-9.22,3.74-19.07,3.74-28.55c0-6.16-2.08-8.54-6.23-7.53
		c-4.59,1.12-11.66,11.95-16.23,13.08c-11.25,2.78-20.86,2.69-28.73-0.39c-9.14-3.57-13.72-10.07-13.72-19.31
		c0-2.09,0.41-3.87,0.83-6.08c1.25-5.74,2.91-9.49,5.83-11.43c3.66-0.85,5.49-1.28,9.16-2.13c19.97-4.65,34.96-4.39,45.36,0.15
		c4.15,1.89,9.99,6.69,17.9,15.02c5.4,5.64,11.65,7.39,19.14,5.57c7.91-1.92,14.03-7.09,18.31-14.96c3.39-6.24,5-13.72,5-22.19
		c0-13.29-2.47-24.93-7.5-34.98c-6.5-13-15.82-18.41-27.88-15.85c-8.74,1.85-24.14,5.96-45.36,11.75
		c-21.24,5.8-36.64,9.96-46.21,12.02c-7.06,1.52-24.18,3.57-30.79,4.9c-17.23,3.46-32.06,8.98-44.11,16.23
		c-14.51,8.74-21.65,19.4-21.65,31.14c0,6.53,1.84,11.74,5,13.67c3.69,2.25,7.91,3.41,10.4,4.16c5,2.74,8.53,11.62,9.98,26.1
		c0.71,6.98,0,15.43-0.41,24.96c-1.33,44.53-2,66.7-3.32,110.8c-0.83,26.06-3.32,42.75-7.08,50.11c-3.16,5.92-4.75,8.88-7.91,14.79
		c-0.83,1.91-4.57,7.15-11.65,16.23c-4.17,5.33-6.25,10.53-6.25,15.99c0,13.47,7.08,18.71,21.24,14.81
		c31.29-8.44,46.93-12.82,78.22-21.61c11.25-3.22,22.92-6.2,34.96-10.05c14.52-4.64,25.8-7.84,34.13-10.23
		c29.98-8.61,47.45-15.21,52.85-20.45c13.74-13.8,20.8-37.66,20.8-70.89c0-7.39-0.64-16.8-1.24-27.55
		C1200.31,924.33,1200.09,917.19,1200.09,914.34z M1478.84,681.33c-9.36-2.92-20.39-4.06-32.45-3.35
		c-41.21,2.44-62.01,17.3-62.01,37.32c0,7.18,2.92,11.57,9.16,13.45c6.22,1.88,9.57,5.82,9.57,11.52c0,12.15-3.29,27.39-9.99,46
		c-7.78,21.62-16.65,34.9-26.22,39.68c-7.08-1.63-14.68-11.07-22.48-27.71c-7.12-15.18-10.69-28.23-11.23-37.68
		c-0.98-16.94,10.31-30.77,10.82-33.77c0.33-1.93,0.83-4,0.83-6.67c0-8.4-4.25-13.65-12.89-16.22c-9.93-2.95-27.53-2.33-52.02,2.08
		c-17.42,3.13-32.07,8.43-44.11,15.23c-14.52,8.19-21.63,18.08-21.63,28.86c0,6,1.85,10.77,4.98,12.48c3.73,2.04,7.91,3,10.4,3.66
		c5.42,2.76,10.4,10.38,15.4,22.77c4.16,10.82,6.24,16.22,10.4,27.04c1.66,4.8,8.73,26.19,19.56,64.13
		c10.4,36.43,19.99,63.71,29.15,81.03c13.72,25.99,29.12,37.13,46.19,33.2c5.4-1.24,12.12-3.99,19.56-8.14
		c9.55-5.32,16.23-10.94,19.97-16.65c9.16-14.67,22-53.65,38.3-111.3c18.18-64.3,32.45-103.72,42.43-122.65
		c1.27-2.69,6.89-7.89,16.23-15.1c7.47-5.77,11.38-12.15,11.23-18.94C1497.78,692.31,1491.19,685.18,1478.84,681.33z
		 M1742.59,872.51c-0.62-10.31-0.83-16.79-0.83-19.38c0-8.52-7.08-21.8-15.38-22.51c-2.93-0.25-6.68,2.4-11.25,7.95
		c-4.57,5.55-9.98,8.16-17.06,7.73c-1.25-0.08-2.91-0.17-4.98-0.68c-3.76-1.32-12.91,0.85-16.23,0.71
		c-40.38-1.67-60.35-16.76-60.35-47.38c0-12.92,4.59-19.52,13.33-19.42c7.91,0.09,13.67,3.38,17.48,9.47
		c3.92,6.26,8.32,9.37,12.89,9.51c7.08,0.22,12.18-5.15,15.82-15.87c2.53-7.47,3.74-15.86,3.74-24.22c0-5.43-2.08-8.08-6.23-8.26
		c-4.59-0.2-11.67,7.51-16.23,7.36c-11.25-0.36-20.85-2.71-28.73-7.17c-9.15-5.18-13.72-11.76-13.72-19.72
		c0-1.8,0.42-3.24,0.83-5.06c1.24-4.67,2.91-7.55,5.83-8.59c3.66,0.05,5.49,0.07,9.15,0.14c19.97,0.35,34.96,4.19,45.36,10.79
		c4.15,2.7,9.98,8.38,17.89,17.88c5.4,6.45,11.65,9.75,19.14,10.29c7.91,0.57,14.07-2.26,18.31-7.97c3.36-4.53,5-10.8,5-18.38
		c0-11.9-2.47-23.03-7.49-33.33c-6.52-13.37-15.82-20.47-27.88-21.18c-8.74-0.52-24.14-0.66-45.36-0.31
		c-21.24,0.35-36.64,0.88-46.21,0.79c-7.06-0.07-24.19-1.44-30.79-1.47c-17.3-0.08-32.07,2.21-44.11,6.44
		c-14.52,5.1-21.65,12.99-21.65,22.83c0,5.47,1.79,10.08,5,12.22c3.82,2.54,7.91,4.06,10.4,5.08c5,3.09,8.53,11.25,9.98,23.83
		c0.71,6.11,0,13.25-0.42,21.42c-1.33,38.31-1.99,57.78-3.32,97.39c-0.83,23.39-3.32,38.37-7.08,44.55
		c-3.16,4.95-4.75,7.44-7.91,12.45c-0.83,1.65-4.57,5.92-11.65,13.42c-4.17,4.4-6.25,9.02-6.25,14.17
		c0,12.71,7.08,18.56,21.24,16.96c31.29-3.37,46.93-4.61,78.22-5.91c11.25-0.52,22.93-0.54,34.96-1.05
		c14.53-0.61,25.8-0.42,34.13-0.24c29.98,0.65,47.45,0.69,52.85-2.28c13.74-7.99,20.8-27.23,20.8-57.5
		C1743.84,891.28,1743.19,882.41,1742.59,872.51z M2057.54,1046.64c0,2.91-2.49,4-7.06,4.42c-3.99,0.29-5.99,0.45-9.99,0.78
		c-5-2.24-13.4-5.78-24.56-9.35c-9.54-3.05-17.48-6.01-24.14-9.05c-28.71-13.07-48.68-31.03-59.52-56.25
		c-5.4-12.4-10.23-36.07-14.97-70.39c-3.98-28.87-11.25-48.99-21.24-59.54c-3.32-3.53-7.52-5.29-12.06-5.28
		c-7.86,0.03-11.23,3.37-9.99,10.09c5.81,37.28,11.38,60.91,17.89,70.02c6.69,9.35,17.06,20.73,17.06,28.83
		c0,21.23-5.86,32.13-17.06,33.77c-8.71,1.27-32.47-4.18-71.16-11.91c-31.64-6.32-53.06-11.43-63.25-18.02
		c-10.36-6.69-15.45-18.83-14.16-34.73c0.29-3.6,2.91-7.59,7.91-11.51c6.25-4.92,9.57-7.86,10.82-9.59
		c3.76-6.63,8.69-24.04,14.16-52.14c4.91-25.25,10.42-50.59,11.23-71.84c0.88-23.25-4.57-40.39-11.23-45.88
		c-2.49-1.39-6.53-3.49-10.4-6.6c-3.29-2.65-5-7.39-5-12.81c0-9.73,7.23-16.52,21.65-19.67c11.57-2.53,26.2-3.45,44.09-0.19
		c6.99,1.28,10.49,1.94,17.48,3.32c24.56,2.7,40.38,5.35,46.63,6.53c22.88,4.33,43.29,12.95,60.76,25.71
		c21.58,15.76,32.45,34.08,32.45,54.25c0,24.9-14.14,40.27-42.45,46.33c2.93,8.98,8.74,16.52,17.89,23.38
		c13.74,10.29,20.41,15.51,20.82,15.66c11.23,13.05,19.93,25.75,25.39,37.85c4.88,10.8,9.28,24.81,12.48,41.18
		c4.71,24.14,11.65,46.73,21.22,67.63c0.42,1.44,4.24,7.04,10.84,17.6C2055.06,1037.28,2057.54,1042.88,2057.54,1046.64z
		 M1899.41,768.8c0-18.52-7.91-29.71-24.14-32.86c-7.08-1.37-14.57,2.81-13.33,9.37c1.34,15.57,2,23.38,3.34,39.06
		c0.42,6.45,2.91,10.32,7.49,11.31c8.32,1.79,14.96-0.51,19.97-6.47C1897.26,783.84,1899.41,776.74,1899.41,768.8z"/>
	<path d="M369.7,1207.69c5.28,11.73,7.91,23.6,7.91,36.05c0,7.92-1.87,14.04-5.41,18.53c-4.19,5.33-10,7.8-17.89,6.08
		c-6.66-1.45-12.49-6.18-17.07-14.12c-7.08-11.94-12.07-19.75-14.99-22.81c-8.32-9.08-20.43-15.86-35.79-20.37
		c-19.11-5.61-28.71-4.2-28.71,5.17c0,9.78,4.16,18.79,12.07,26.27c6.95,6.58,16.22,11.73,27.05,14.84
		c4.58,1.31,12.9-3.65,17.9-2.32c4.58,1.22,6.65,17.02,6.65,46.97c0,7.56-5.41,13.48-13.73,11.36c-2.91-0.74-7.91-5.43-14.56-14.16
		c-6.66-8.73-14.15-14.37-22.06-16.8c-6.25-1.92-10.4-1.32-12.07,2.04c-0.83,1.67-1.31,6.64-1.66,14.22
		c-1.48,31.6,2.08,62.37,8.74,91.01c1.66,6.2,9.32,17.44,22.89,32.28c12.49,13.67,18.29,23.92,17.48,31.62
		c-0.85,8.06-9.57,10.6-26.63,6.96c-4.58-0.98-10.95-2.93-19.57-5.48c-8.51-2.51-14.56-4.2-18.31-5.12
		c-31.29-7.38-46.94-11.57-78.23-21.1c-14.15-4.45-21.23-13.97-21.23-27.69c0-5.42,2.92-11.46,9.99-16.36
		c6.33-4.68,9.49-7,15.82-11.63c8.32-6.04,11.23-15.96,11.23-28.11c-0.66-47.08-1-70.68-1.66-117.97c0-0.16,0-0.24,0-0.41
		c0-27.24-4.16-45.82-11.24-55.02c-2.49-2.47-6.45-6.23-10.4-11.38c-3.41-4.45-4.99-10.43-4.99-16.65
		c0-11.17,7.11-15.89,21.64-13.87c12.02,1.67,26.63,6.34,44.11,14.39c1.25,0.55,3.32,1.45,6.24,3.1c2.33,1,3.49,1.49,5.82,2.46
		c-2.08-0.87,7.49,3.44,28.72,11.37c9.57,3.57,24.27,7.86,42.87,11.51c18.51,3.63,32.87,6.02,41.61,8.21
		C353.89,1183.72,362.98,1192.79,369.7,1207.69z M612.65,1271.73c18.59,34.65,27.9,74.82,27.9,120.32
		c0,31.08-13.36,57.3-39.55,77.43c-24.73,19.01-54.93,27.91-90.3,26.06c-39.55-2.07-71.33-18.11-94.89-48.14
		c-21.24-27.06-32.04-59.58-32.04-95.93c0-40.05,10.82-73.22,32.46-100.35c24.89-31.2,58.69-44.98,101.14-43.51
		C558.55,1209.03,590.13,1229.77,612.65,1271.73z M549.39,1344.34c0-16.26-4.15-34.55-12.06-54.6
		c-9.98-25.33-22.48-38.19-37.04-39.03c-8.74-0.5-15.29,4.92-19.99,15.9c-3.53,8.23-5.4,17.5-5.4,27.54
		c0,16.76,2.98,32.96,9.15,47.75c8.37,20.06,20.39,30.49,36.62,31.24C539.82,1374.04,549.39,1364.31,549.39,1344.34z
		 M955.07,1441.25c0,2.75-2.49,5.63-7.06,9.33c-3.99,3.17-5.99,4.75-9.99,7.89c-5,1.42-13.36,3.94-24.56,8.01
		c-9.51,3.45-17.48,5.7-24.15,6.97c-28.71,5.47-48.68-1.13-59.52-19.96c-5.4-9.22-10.22-29.69-14.97-61.72
		c-3.97-26.79-11.25-43.94-21.24-50.2c-3.32-2.1-7.51-2.02-12.06,0.01c-7.85,3.5-11.23,7.59-9.99,14.06
		c5.81,36.27,11.42,57.57,17.9,63.59c6.66,6.19,17.06,12.45,17.06,20.4c0,20.85-5.84,34.24-17.06,40.93
		c-8.71,5.19-32.47,8.79-71.17,10.59c-31.64,1.47-53.06-0.51-63.25-5.39c-10.33-4.94-15.44-16.02-14.16-31.46
		c0.29-3.53,2.91-7.68,7.91-12.18c6.25-5.64,9.57-9.06,10.82-10.95c3.76-7.08,8.69-24.93,14.16-54.37
		c4.92-26.47,10.43-53.45,11.23-76.41c0.85-24.39-4.57-41.83-11.23-46.27c-2.49-0.95-6.62-2.41-10.4-4.91c-3.23-2.14-5-6.96-5-12.82
		c0-10.53,7.25-19.28,21.65-26.12c11.6-5.51,26.2-10.27,44.1-12.08c6.99-0.7,10.49-1.07,17.48-1.85
		c24.56-5.09,40.38-8.53,46.63-9.77c22.88-4.55,43.31-4.46,60.76,0.5c21.58,6.13,32.45,18.96,32.45,39.68
		c0,25.59-14.14,49.59-42.45,70.57c2.93,7.72,8.74,12.38,17.89,14.3c13.74,2.87,20.41,4.1,20.82,4
		c11.23,6.55,19.93,13.81,25.39,22.3c4.84,7.54,9.3,18.6,12.48,32.35c4.72,20.47,11.65,37.57,21.21,50.85
		c0.42,1.09,4.27,3.81,10.84,9.08C952.56,1434.21,955.07,1437.69,955.07,1441.25z M796.94,1257.83c0-19.75-7.91-28.02-24.14-25.43
		c-7.08,1.13-14.57,8.3-13.33,14.95c1.33,16.36,2,24.49,3.34,40.66c0.41,6.69,2.9,9.92,7.49,9.32c8.32-1.1,14.95-6.3,19.97-14.85
		C794.79,1274.76,796.94,1266.29,796.94,1257.83z M1200.09,1279.35c0-9.82-7.08-22.54-15.38-20.42c-2.93,0.75-6.68,5.12-11.25,13.05
		c-4.57,7.93-9.98,12.71-17.06,14.5c-1.25,0.32-2.91,0.74-4.98,0.82c-3.76-0.31-12.91,4.98-16.23,5.82
		c-40.38,10.26-60.35-1.98-60.35-36.34c0-14.49,4.59-23.2,13.33-25.57c7.91-2.15,13.66-0.12,17.48,5.68
		c3.88,5.89,8.32,8.18,12.89,6.96c7.08-1.89,12.17-9.57,15.82-23.08c2.54-9.4,3.74-19.45,3.74-29.1c0-6.27-2.08-8.64-6.23-7.49
		c-4.59,1.27-11.67,12.42-16.23,13.68c-11.25,3.11-20.85,3.28-28.73,0.49c-9.14-3.24-13.72-9.46-13.72-18.59
		c0-2.07,0.42-3.84,0.83-6.05c1.24-5.73,2.91-9.53,5.83-11.6c3.66-1.04,5.49-1.55,9.15-2.59c19.97-5.65,34.96-6.14,45.36-1.95
		c4.15,1.75,9.98,6.39,17.89,14.68c5.4,5.62,11.65,7.28,19.14,5.23c7.91-2.16,14.03-7.64,18.31-15.95c3.4-6.59,5-14.45,5-23.29
		c0-13.88-2.47-25.94-7.49-36.15c-6.49-13.18-15.82-18.17-27.88-14.74c-8.74,2.49-24.15,7.75-45.36,15.1
		c-21.24,7.36-36.64,12.62-46.21,15.36c-7.06,2.02-24.18,5.34-30.79,7.14c-17.24,4.69-32.06,11.17-44.11,18.99
		c-14.52,9.43-21.65,19.98-21.65,31.07c0,6.17,1.89,11,5,12.62c3.71,1.94,7.91,2.77,10.4,3.34c5,2.33,8.53,10.61,9.98,24.37
		c0.7,6.63,0,14.74-0.41,23.84c-1.33,42.55-2,63.69-3.32,105.69c-0.83,24.81-3.32,40.64-7.08,47.51c-3.16,5.53-4.75,8.28-7.91,13.77
		c-0.83,1.78-4.57,6.62-11.65,14.91c-4.17,4.86-6.25,9.66-6.25,14.79c0,12.65,7.08,17.9,21.24,14.96
		c31.29-6.32,46.93-9.57,78.22-16.07c11.25-2.4,22.92-4.51,34.96-7.46c14.52-3.56,25.81-5.94,34.13-7.71
		c29.97-6.4,47.45-11.81,52.85-16.81c13.74-13.22,20.8-37.72,20.8-72.51c0-7.74-0.64-17.62-1.24-28.89
		C1200.31,1289.79,1200.09,1282.33,1200.09,1279.35z M1478.84,1020.34c-9.32-2.64-20.39-2.96-32.45-0.96
		c-41.21,6.85-62.01,22.72-62.01,45.18c0,8.06,2.93,12.96,9.16,15.06c6.22,2.09,9.57,6.54,9.57,12.96c0,13.68-3.28,30.81-9.98,51.6
		c-7.78,24.15-16.65,38.76-26.22,43.88c-7.08-1.96-14.68-12.61-22.48-31.09c-7.12-16.87-10.69-31.21-11.23-41.65
		c-0.98-18.7,10.3-34.11,10.81-37.46c0.33-2.15,0.83-4.45,0.83-7.4c0-9.32-4.26-15.06-12.89-17.65c-9.92-2.98-27.53-1.72-52.02,4.1
		c-17.41,4.14-32.06,10.56-44.11,18.39c-14.51,9.42-21.63,20.18-21.63,31.54c0,6.32,1.86,11.28,4.99,12.97
		c3.69,2,7.91,2.91,10.4,3.53c5.42,2.76,10.4,10.72,15.41,23.86c4.16,11.48,6.24,17.24,10.4,28.82c1.66,5.14,8.73,27.98,19.56,69.2
		c10.4,39.59,19.99,69.72,29.15,89.13c13.72,29.13,29.13,42.6,46.19,39.47c5.4-0.99,12.13-3.56,19.56-7.66
		c9.54-5.27,16.23-11.12,19.97-17.26c9.15-15.81,22-58.32,38.3-122.87c18.18-71.98,32.45-118.66,42.43-141.29
		c1.27-3.21,6.9-9.57,16.23-18.59c7.49-7.25,11.38-15.04,11.23-23.17C1497.77,1031.87,1491.15,1023.83,1478.84,1020.34z
		 M1742.59,1249.88c-0.62-13-0.83-21.13-0.83-24.4c0-10.74-7.08-27.29-15.38-28c-2.93-0.25-6.68,3.19-11.25,10.29
		c-4.57,7.11-9.98,10.5-17.06,10.06c-1.25-0.08-2.91-0.18-4.98-0.79c-3.76-1.62-12.91,1.2-16.23,1.05
		c-40.38-1.82-60.35-21.05-60.35-59.28c0-16.13,4.59-24.43,13.33-24.41c7.91,0.02,13.64,4.02,17.48,11.7
		c3.91,7.82,8.32,11.71,12.89,11.84c7.08,0.2,12.18-6.63,15.82-20.24c2.54-9.51,3.74-20.13,3.74-30.72c0-6.88-2.08-10.19-6.23-10.34
		c-4.59-0.16-11.67,9.72-16.23,9.62c-11.25-0.25-20.86-3.03-28.73-8.47c-9.15-6.32-13.72-14.44-13.72-24.4
		c0-2.26,0.42-4.08,0.83-6.37c1.24-5.9,2.91-9.56,5.83-10.96c3.66-0.06,5.49-0.08,9.15-0.12c19.97-0.17,34.96,4.31,45.36,12.44
		c4.15,3.33,9.98,10.41,17.89,22.3c5.4,8.07,11.65,12.15,19.14,12.69c7.91,0.58,14.09-3.16,18.31-10.44c3.4-5.86,5-13.77,5-23.38
		c0-15.09-2.46-29.16-7.49-42.21c-6.52-16.9-15.82-25.84-27.88-26.5c-8.74-0.48-24.14-0.31-45.36,0.89
		c-21.24,1.2-36.64,2.61-46.21,2.97c-7.06,0.27-24.2-0.53-30.79-0.18c-17.25,0.92-32.07,4.76-44.11,10.73
		c-14.51,7.2-21.65,17.19-21.65,29.02c0,6.58,1.77,12.02,5,14.43c3.71,2.77,7.91,4.52,10.4,5.64c5,3.52,8.53,13.23,9.98,28.54
		c0.71,7.42,0,16.1-0.42,26.02c-1.33,46.51-1.99,70.06-3.32,117.73c-0.83,28.16-3.32,46-7.08,53.15c-3.16,5.71-4.75,8.57-7.91,14.3
		c-0.83,1.9-4.57,6.72-11.65,14.98c-4.17,4.84-6.25,10.09-6.25,16.16c0,15,7.08,22.72,21.24,22.29c31.29-0.75,46.93-0.89,78.22-0.53
		c11.25,0.06,22.94,0.65,34.96,0.49c14.52-0.19,25.81,0.28,34.13,0.63c29.98,1.25,47.45,0.69,52.85-3.19
		c13.74-10.41,20.8-34.92,20.8-73C1743.84,1273.47,1743.19,1262.39,1742.59,1249.88z M2057.54,1409.87c0,2.91-2.49,4.53-7.06,5.96
		c-3.99,1.18-5.99,1.79-9.99,3.05c-5-1.14-13.4-2.86-24.56-4.06c-9.52-1.02-17.48-2.39-24.14-4.18
		c-28.71-7.73-48.68-24.13-59.52-51.43c-5.4-13.41-10.23-40.07-14.97-79.74c-3.99-33.34-11.25-56.55-21.24-68.59
		c-3.32-4.02-7.53-5.94-12.06-5.71c-7.85,0.41-11.23,4.62-9.99,12.65c5.81,44.59,11.4,72.27,17.89,82.36
		c6.7,10.41,17.06,22.46,17.06,31.98c0,24.95-5.86,38.72-17.06,42.46c-8.7,2.9-32.47,0.54-71.16-4.77
		c-31.64-4.34-53.1-9.59-63.25-17.26c-10.37-7.83-15.46-22.77-14.16-42.93c0.29-4.57,2.91-9.65,7.91-14.79
		c6.25-6.45,9.57-10.3,10.82-12.53c3.76-8.49,8.69-30.57,14.16-66.05c4.92-31.87,10.41-63.39,11.23-90.44
		c0.9-29.59-4.57-50.66-11.23-57.52c-2.49-1.74-6.62-4.46-10.4-8.26c-3.36-3.38-5-9.31-5-16.16c0-12.31,7.27-20.97,21.65-24.8
		c11.56-3.08,26.2-3.98,44.09,0.63c6.99,1.81,10.49,2.76,17.48,4.73c24.56,4.32,40.38,8.63,46.63,10.49
		c22.88,6.79,43.28,18.94,60.76,35.25c21.58,20.13,32.45,41.4,32.45,63.55c0,27.35-14.14,43.48-42.45,50.76
		c2.93,10.26,8.74,18.74,17.89,26.23c13.74,11.24,20.41,16.73,20.82,16.88c11.23,14.05,19.92,27.4,25.39,40.06
		c4.87,11.29,9.28,25.86,12.48,42.8c4.72,25.02,11.65,47.7,21.22,67.47c0.42,1.41,4.25,6.54,10.84,15.94
		C2055.06,1401.04,2057.54,1406.11,2057.54,1409.87z M1899.41,1117.69c0-21.97-7.91-35.63-24.14-39.92
		c-7.08-1.87-14.57,3.05-13.33,11.04c1.34,18.95,2,28.44,3.34,47.45c0.42,7.81,2.91,12.47,7.49,13.59
		c8.32,2.03,14.96-0.82,19.97-7.95C1897.25,1135.5,1899.41,1127.11,1899.41,1117.69z"/>
	<path d="M369.7,1531.39c5.28,10.78,7.91,21.89,7.91,33.75c0,7.54-1.86,13.49-5.41,18.09c-4.19,5.44-10,8.32-17.89,7.47
		c-6.66-0.72-12.49-4.62-17.07-11.74c-7.08-10.69-12.07-17.64-14.99-20.24c-8.32-7.77-20.43-12.87-35.79-15.04
		c-19.1-2.71-28.71,0.39-28.71,9.54c0,9.56,4.18,17.64,12.07,23.61c6.94,5.26,16.22,8.79,27.05,10.24c4.58,0.61,12.9-5.32,17.9-4.68
		c4.58,0.59,6.65,15.57,6.65,44.43c0,7.29-5.41,13.72-13.73,12.89c-2.91-0.29-7.91-4.08-14.56-11.5
		c-6.66-7.42-14.15-11.71-22.06-12.71c-6.25-0.79-10.4,0.55-12.07,4.14c-0.83,1.79-1.31,6.72-1.66,14.2
		c-1.47,31.11,2.08,60.55,8.74,87.15c1.66,5.72,9.34,15.13,22.89,26.99c12.48,10.92,18.29,19.84,17.48,27.42
		c-0.85,7.94-9.57,11.9-26.63,11.82c-4.58-0.02-11-0.62-19.57-1.22c-8.53-0.6-14.56-0.84-18.31-0.87
		c-31.29,0.09-46.94,0.13-78.23,0.21c-14.15-0.11-21.23-7.25-21.23-20.97c0-5.42,2.92-12.42,9.99-19.49
		c6.33-6.63,9.49-9.89,15.82-16.33c8.32-8.43,11.23-19.04,11.23-31.11c-0.66-46.57-1-69.92-1.66-116.72c0-0.16,0-0.24,0-0.4
		c0-27.05-4.16-44.51-11.24-51.87c-2.49-1.82-6.54-4.65-10.4-8.65c-3.36-3.48-4.99-9.09-4.99-15.29c0-11.15,7.12-17.81,21.64-19.27
		c12.03-1.21,26.63,0.17,44.11,4.69c1.25,0.29,3.32,0.78,6.24,1.85c2.33,0.54,3.49,0.81,5.82,1.33c-2.08-0.47,7.49,1.84,28.72,6.21
		c9.57,1.97,24.3,3.92,42.87,5.16c18.54,1.24,32.87,2.16,41.61,3.47C353.89,1509.7,362.99,1517.7,369.7,1531.39z M612.65,1588.79
		c18.6,32.19,27.9,68.67,27.9,109.45c0,27.85-13.37,50.8-39.55,68.89c-24.75,17.1-54.93,25.74-90.3,25.73
		c-39.55-0.01-71.33-12.09-94.89-38.12c-21.22-23.46-32.04-53.16-32.04-87.68c0-38.04,10.82-70.68,32.46-97.41
		c24.9-30.75,58.69-44.37,101.14-42.39C558.55,1529.18,590.14,1549.84,612.65,1588.79z M549.39,1653.31
		c0-14.88-4.15-31.65-12.06-50.14c-9.98-23.36-22.48-35.39-37.04-36.13c-8.74-0.44-15.3,4.68-19.99,14.95
		c-3.53,7.72-5.4,16.39-5.4,25.74c0,15.6,2.99,30.6,9.15,44.15c8.37,18.37,20.39,27.61,36.62,28.04
		C539.82,1680.43,549.39,1671.58,549.39,1653.31z M947.59,1763.61c4.98,4.63,7.47,8.38,7.47,11.73c0,2.6-2.49,4.86-7.06,7.49
		c-3.99,2.24-5.99,3.36-9.98,5.56c-5,0.4-13.37,1.23-24.56,2.98c-9.52,1.48-17.48,2.14-24.14,2.14c-28.71,0-48.68-9.18-59.52-27.49
		c-5.4-8.98-10.23-27.85-14.97-56.71c-3.97-24.2-11.25-40.04-21.24-46.37c-3.32-2.12-7.51-2.38-12.06-0.96
		c-7.85,2.46-11.23,5.74-9.99,11.5c5.81,32.19,11.4,51.13,17.9,57.15c6.66,6.16,17.06,12.95,17.06,19.96
		c0,18.36-5.85,29.3-17.06,33.57c-8.71,3.31-32.47,4.89-71.17,4.9c-31.64,0.01-53.04-2.15-63.25-6.71
		c-10.33-4.61-15.44-14.63-14.16-28.36c0.29-3.13,2.91-6.81,7.91-10.69c6.25-4.88,9.57-7.81,10.82-9.45
		c3.76-6.19,8.69-21.92,14.16-47.88c4.91-23.34,10.43-47.3,11.23-67.46c0.85-21.59-4.57-37.64-11.23-42.07
		c-2.49-1.03-6.55-2.55-10.4-5.1c-3.23-2.14-5-6.58-5-11.83c0-9.45,7.23-16.84,21.65-21.86c11.59-4.03,26.2-7.07,44.09-7.05
		c6.99,0.01,10.49,0.01,17.48-0.01c24.56-2.16,40.38-3.58,46.63-4.55c22.88-3.52,43.31-2.8,60.77,2.47
		c21.58,6.52,32.45,19.05,32.45,38.06c0,23.46-14.14,44.29-42.45,60.8c2.93,7.18,8.74,11.89,17.89,14.5
		c13.74,3.92,20.41,5.77,20.82,5.73c11.23,7.17,19.94,14.87,25.39,23.38c4.85,7.58,9.3,18.37,12.48,31.59
		c4.72,19.63,11.65,36.63,21.21,50.67C937.17,1754.31,941.01,1757.49,947.59,1763.61z M796.94,1589.31
		c0-17.46-7.91-24.61-24.14-23.91c-7.08,0.31-14.57,5.93-13.33,11.91c1.33,14.55,2,21.77,3.34,36.1c0.41,5.92,2.9,8.97,7.49,8.84
		c8.32-0.24,14.96-4.33,19.97-11.56C794.79,1604.17,796.94,1596.79,796.94,1589.31z M1200.09,1659.02
		c0-10.18-7.08-24.49-15.38-23.64c-2.93,0.3-6.68,4.2-11.25,11.59c-4.57,7.39-9.98,11.37-17.06,12.01c-1.25,0.11-2.91,0.26-4.98,0
		c-3.76-0.95-12.91,2.9-16.23,3.2c-40.38,3.63-60.35-11.75-60.35-45.78c0-14.36,4.59-22.37,13.33-23.54
		c7.91-1.07,13.66,1.73,17.48,8.1c3.9,6.48,8.32,9.41,12.89,8.85c7.08-0.87,12.18-7.88,15.82-21.03c2.54-9.16,3.74-19.2,3.74-28.98
		c0-6.36-2.08-9.02-6.23-8.39c-4.59,0.7-11.66,11.05-16.23,11.72c-11.25,1.68-20.86,0.61-28.73-3.14
		c-9.14-4.35-13.72-11.04-13.72-20.07c0-2.05,0.41-3.76,0.83-5.89c1.25-5.54,2.91-9.12,5.83-10.86c3.66-0.63,5.49-0.95,9.16-1.58
		c19.97-3.44,34.96-2.26,45.36,3.2c4.15,2.26,9.99,7.65,17.9,17.1c5.4,6.41,11.65,8.93,19.14,7.81c7.91-1.19,14.05-6.06,18.31-14.06
		c3.4-6.38,5-14.31,5-23.46c0-14.36-2.47-27.13-7.5-38.2c-6.5-14.3-15.82-20.29-27.88-17.94c-8.74,1.7-24.14,5.59-45.36,10.99
		c-21.24,5.41-36.64,9.22-46.21,11.08c-7.06,1.37-24.18,3.15-30.79,4.35c-17.25,3.14-32.07,8.25-44.11,14.81
		c-14.52,7.91-21.65,17.39-21.65,27.95c0,5.87,1.84,10.6,5,12.46c3.76,2.21,7.91,3.37,10.4,4.15c5,2.7,8.53,11.03,9.98,24.37
		c0.71,6.45,0,14.16-0.41,22.86c-1.33,40.73-2,60.94-3.32,101.01c-0.83,23.67-3.32,38.41-7.08,44.34
		c-3.16,4.74-4.75,7.09-7.91,11.77c-0.83,1.55-4.57,5.52-11.65,12.11c-4.17,3.87-6.25,8.03-6.25,12.87
		c0,11.96,7.08,18.25,21.24,18.2c31.29,0.04,46.93,0.07,78.22,0.13c11.25-0.04,22.93,0.3,34.96-0.11c14.53-0.5,25.8-0.5,34.13-0.53
		c29.98-0.1,47.45-1.93,52.85-5.94c13.74-10.7,20.8-34.69,20.8-70.75c0-8.02-0.65-18.4-1.24-30.17
		C1200.3,1669.82,1200.09,1662.11,1200.09,1659.02z M1478.84,1415.31c-9.29-4.02-20.39-5.81-32.45-5.22
		c-41.21,1.99-62.01,18.87-62.01,43.65c0,8.89,2.93,14.57,9.16,17.45c6.22,2.88,9.57,8.12,9.57,15.24c0,15.18-3.28,33.87-9.99,56.07
		c-7.78,25.77-16.65,40.67-26.22,44.99c-7.08-3.09-14.68-15.73-22.48-36.81c-7.12-19.24-10.68-35.17-11.23-46.55
		c-0.98-20.44,10.3-35.95,10.82-39.57c0.33-2.31,0.83-4.76,0.83-7.98c0-10.15-4.27-16.79-12.89-20.38
		c-9.93-4.13-27.54-4.29-52.02-0.38c-17.41,2.78-32.07,8.17-44.11,15.18c-14.51,8.45-21.63,18.89-21.63,30.72
		c0,6.58,1.78,11.91,4.98,14.08c3.69,2.5,7.91,3.95,10.4,4.89c5.42,3.52,10.4,12.46,15.4,26.92c4.16,12.6,6.24,18.95,10.4,31.74
		c1.66,5.65,8.73,30.67,19.55,76.19c10.4,43.72,19.99,77.64,29.15,100.14c13.72,33.78,29.13,51.48,46.19,51.42
		c5.4-0.02,12.14-1.51,19.55-4.57c9.53-3.93,16.24-9.13,19.97-15.19c9.16-15.7,21.99-60.13,38.3-130.09
		c18.18-77.99,32.45-127.98,42.43-151.86c1.27-3.4,6.93-9.82,16.23-18.74c7.49-7.18,11.38-15.34,11.23-24.29
		C1497.77,1430.14,1491.19,1420.66,1478.84,1415.31z M1742.59,1669.43c-0.62-13.63-0.83-22.18-0.83-25.61
		c0-11.3-7.08-28.28-15.38-28.6c-2.93-0.11-6.68,3.69-11.25,11.4c-4.57,7.72-9.98,11.55-17.06,11.35c-1.25-0.04-2.91-0.08-4.98-0.66
		c-3.76-1.59-12.91,1.67-16.23,1.59c-40.38-0.95-60.35-22.16-60.35-63.21c0-17.32,4.59-26.11,13.33-25.94
		c7.91,0.15,13.64,4.48,17.48,12.71c3.91,8.37,8.32,12.53,12.89,12.65c7.08,0.19,12.18-7.15,15.82-21.67
		c2.54-10.15,3.74-21.45,3.74-32.7c0-7.31-2.08-10.82-6.23-10.97c-4.59-0.16-11.67,10.36-16.23,10.22
		c-11.25-0.33-20.86-3.48-28.73-9.5c-9.15-7-13.72-15.91-13.72-26.63c0-2.43,0.42-4.37,0.83-6.81c1.24-6.29,2.91-10.17,5.83-11.57
		c3.66,0.07,5.49,0.1,9.15,0.18c19.97,0.43,34.96,5.36,45.36,14.03c4.15,3.56,9.98,11.09,17.89,23.6
		c5.4,8.49,11.65,12.69,19.14,13.06c7.91,0.4,14.08-3.77,18.31-11.61c3.41-6.32,5-14.71,5-24.84c0-15.91-2.46-30.64-7.49-44.3
		c-6.52-17.68-15.82-27-27.88-27.68c-8.74-0.49-24.14-0.33-45.36,0.41c-21.24,0.74-36.64,1.48-46.21,1.36
		c-7.06-0.09-24.21-2-30.79-2.09c-17.25-0.22-32.07,2.67-44.11,8.08c-14.5,6.52-21.65,16.72-21.65,29.69c0,7.21,1.7,13.28,5,16.28
		c3.7,3.36,7.91,5.65,10.4,7.09c5,4.27,8.53,15.13,9.98,31.93c0.71,8.15,0,17.54-0.42,28.32c-1.33,50.57-1.99,76.15-3.32,127.92
		c-0.83,30.58-3.32,49.87-7.08,57.48c-3.16,6.08-4.75,9.12-7.91,15.22c-0.83,2.03-4.57,7.12-11.65,15.79
		c-4.17,5.09-6.25,10.71-6.25,17.34c0,16.37,7.08,25.12,21.24,25.13c31.29,0.21,46.93,0.31,78.22,0.53
		c11.25,0.01,22.94,0.47,34.96,0.02c14.52-0.55,25.8-0.49,34.13-0.48c29.98,0.03,47.45-1.98,52.85-6.47
		c13.74-11.99,20.8-38.37,20.8-78.41C1743.84,1694.15,1743.19,1682.57,1742.59,1669.43z M2057.54,1773.13
		c0,2.91-2.49,5.35-7.06,8.24c-3.99,2.46-5.99,3.71-9.99,6.22c-5,0.41-13.38,1.28-24.56,3.34c-9.51,1.75-17.48,2.59-24.14,2.59
		c-28.71,0-48.68-12.18-59.52-37.69c-5.4-12.52-10.22-38.73-14.97-78.47c-3.98-33.33-11.25-55.82-21.24-66.51
		c-3.32-3.58-7.52-4.86-12.06-3.9c-7.84,1.66-11.23,6.5-9.99,14.58c5.81,45.09,11.41,72.64,17.89,81.82
		c6.7,9.49,17.06,19.87,17.06,29.63c0,25.58-5.85,40.91-17.06,46.9c-8.7,4.64-32.47,6.93-71.16,6.82
		c-31.64-0.09-53.12-3.52-63.25-10.59c-10.35-7.22-15.45-22.54-14.16-43.84c0.29-4.84,2.91-10.37,7.91-16.19
		c6.25-7.29,9.57-11.62,10.82-14.07c3.76-9.23,8.69-32.81,14.16-70.42c4.92-33.79,10.41-66.99,11.23-95.53
		c0.89-30.95-4.57-52.62-11.23-59.4c-2.49-1.67-6.66-4.32-10.4-8.06c-3.36-3.36-5-9.52-5-16.71c0-12.92,7.28-22.3,21.65-27.15
		c11.56-3.9,26.2-5.78,44.09-2.55c6.99,1.27,10.49,1.92,17.48,3.26c24.56,2,40.38,4.27,46.63,5.33
		c22.88,3.89,43.29,12.99,60.76,26.37c21.57,16.52,32.45,35.57,32.45,58.01c0,27.71-14.14,47.44-42.45,60.43
		c2.93,9.89,8.74,17.38,17.89,23.05c13.74,8.49,20.41,12.44,20.82,12.49c11.23,11.64,19.92,22.92,25.39,34.29
		c4.86,10.11,9.29,23.68,12.48,39.82c4.72,23.92,11.65,44.75,21.22,61.68c0.42,1.29,4.26,5.3,10.84,12.62
		C2055.05,1765.11,2057.54,1769.37,2057.54,1773.13z M1899.41,1514.55c0-22.57-7.91-35.33-24.14-37.63
		c-7.08-1-14.57,4.99-13.33,13.1c1.34,19.42,2,29.14,3.34,48.59c0.42,8.01,2.91,12.49,7.49,12.99c8.32,0.92,14.95-3.03,19.97-11.14
		C1897.26,1533.17,1899.41,1524.22,1899.41,1514.55z"/>
	<path d="M2043.73,1861.41c-2.67-3.12-5.79-4.9-9.36-5.35c-6.68-1.33-13.37,0-21.39,2.67c-8.02,2.67-16.93,6.68-26.73,11.14
		c-40.11,18.72-97.59,50.8-154.19,65.95c-44.12,13.81-90.91,21.39-125.22,24.95c2.23-3.56,2.23-8.46,0.89-12.03
		c-1.34-4.01-4.01-6.68-6.68-9.36c-10.7-11.59-28.08-24.51-34.32-38.77c-4.01-8.92-4.01-14.26-2.23-18.27
		c1.78-4.01,4.9-7.13,9.8-9.8c9.36-4.9,22.28-6.24,22.28-6.24c4.01-0.45,7.58-3.57,7.58-7.58c0-4.46-3.56-8.02-8.02-8.02h-0.45
		c0,0-15.6,0.89-28.97,8.02c-6.68,3.57-13.37,8.91-16.93,17.38c-1.42,3.38-2.18,7.21-2.26,11.3c-0.48,0.23-0.94,0.48-1.32,0.73
		c-26.29,19.61-81.11,48.13-126.56,53.92c-22.73,3.12-41.89,0-55.26-9.8s-21.84-27.63-20.5-60.6c0-4.46-3.57-8.02-8.02-8.02
		c-3.12,0-6.24,2.23-7.13,4.9c-7.58,19.16-15.6,25.4-21.39,26.74c-2.67,0.45-5.8,0.45-8.91-0.89c6.24-8.46,7.58-18.72,6.24-27.63
		c-0.89-5.8-3.12-11.14-6.68-15.15c-3.56-4.01-8.91-6.68-14.71-6.68h-0.45c-6.24,0-12.47,2.23-16.04,7.13
		c-3.56,4.9-4.01,10.25-3.56,15.59c0.75,9,4.99,18.29,11.09,26.33c-50.77,33.99-102.25,51.09-138.55,48.98
		c-19.16-1.34-33.87-7.58-43.23-18.72c-9.36-11.14-14.71-27.63-12.48-52.14v-0.45c0-4.46-3.12-8.02-7.57-8.02h-0.45
		c-2.67,0-6.24,2.23-7.13,4.9c0,0-7.58,19.61-19.16,38.77c-5.8,9.36-12.03,18.72-19.16,24.95c-7.13,6.24-13.81,9.36-19.61,8.92
		c-7.13-0.45-10.25-2.67-12.48-6.24c-2.23-3.56-3.56-8.91-3.56-14.71c-0.45-11.59,3.12-23.62,3.12-23.62c0-0.45,0.44-1.33,0.44-2.23
		c0-4.46-3.56-8.02-8.02-8.02c-0.2,0-0.41,0.1-0.61,0.12c-0.39-0.06-0.78-0.12-1.19-0.12c-1.34,0-3.57,0.44-4.46,1.33
		c-66.84,43.23-132.8,57.04-181.82,52.59c-13.81-1.34-26.74-4.01-37.43-8.02l4.01-8.02c7.58-18.72,8.02-40.11-2.67-53.03
		c-8.02-9.8-19.61-14.71-30.75-14.71h-1.33c-1.79,0-3.12,0-4.9,0.45c-6.68,0.89-12.93,4.01-17.38,9.36
		c-4.46,5.35-6.68,12.93-6.24,21.39c1.33,18.72,12.03,35.2,28.96,46.79c1.34,0.89,3.12,2.23,4.9,3.12
		c-5.79,4.01-12.47,6.68-21.39,6.68c-9.36,0-13.37-2.67-16.04-6.24c-2.67-3.57-4.46-8.47-4.46-14.71c0-12.48,4.9-26.29,4.9-26.29
		c0.45-0.89,0.45-1.78,0.45-2.67c0-4.46-3.57-8.02-8.02-8.02c0,0,0,0,0,0c0,0-0.01,0-0.01,0c-0.67,0-1.41,0.15-2.14,0.36
		c-0.12,0.03-0.23,0.06-0.34,0.1c-1.08,0.34-2.12,0.82-2.87,1.33c-46.34,37.43-91.35,36.99-137.7,39.21
		c-16.49,0.89-32.98,2.67-49.46,6.24c1.34-35.65-1.78-65.51-1.78-65.51c-0.45-4.01-4.01-7.13-8.02-7.13h-0.44
		c-3.12,0-6.24,2.67-7.13,5.35c-0.89,2.23-4.9,9.36-10.69,17.83c-5.8,8.46-12.93,17.82-20.94,27.18
		c-8.02,9.36-16.49,17.83-24.06,24.06c-7.58,6.24-14.71,8.91-16.49,8.91c-4.46,0-7.58-1.33-9.8-3.12c-2.23-1.79-3.12-3.57-4.01-7.13
		c-1.34-7.13,0.44-19.16,9.36-35.65c0.45-0.89,0.89-2.67,0.89-4.01c0-4.46-3.56-8.02-8.02-8.02h-0.89h-1.33h-0.45
		c-1.34,0-3.57,0.44-4.46,1.33c-14.26,9.36-46.35,23.62-85.56,36.54c-39.22,12.92-85.11,24.95-126.56,32.08s-78.88,9.8-100.27,4.46
		c-10.69-2.67-16.49-7.13-18.27-11.59c-1.78-4.46-1.34-12.03,5.79-24.51c0.45-0.89,0.89-2.67,0.89-4.01c0-4.46-3.56-8.02-8.02-8.02
		c-2.67,0-5.34,2.23-6.68,4.46c-8.46,14.7-11.59,27.18-6.68,38.32c4.9,11.14,16.04,17.38,28.97,20.5
		c26.29,6.68,64.62,3.56,106.95-4.01c42.33-7.58,89.12-19.61,128.79-32.53c28.96-9.36,53.92-19.61,72.19-28.52
		c-3.12,9.8-4.01,18.72-2.23,26.74c1.34,6.68,4.46,12.03,9.8,16.04c5.35,4.01,12.03,5.8,19.16,6.24c9.8,0.44,17.83-4.9,26.74-12.03
		c8.91-7.13,17.82-16.05,26.29-25.85c8.02-8.92,15.15-18.72,20.94-27.19c0.45,12.03,0.89,27.19,0,43.23
		c-24.51,8.02-48.58,22.73-70.85,50.36c-4.46,5.79-16.49,20.5-20.06,36.99c-1.78,8.02-1.33,17.83,5.35,24.96s18.27,9.8,33.42,9.36
		c22.73-0.89,38.77-15.15,48.57-33.87c9.8-18.72,14.71-42.33,17.38-65.51l1.34-10.69c16.49-4.01,33.42-5.35,51.25-6.24
		c40.78-1.98,85.07-2.27,129.76-30.73c-0.39,3.39-0.61,6.99-0.51,10.67c0,8.02,1.78,16.93,7.57,24.51
		c5.8,7.58,15.6,12.03,28.52,12.03c15.15,0,27.63-5.8,36.54-14.71c13.37,5.35,28.97,8.91,46.34,10.69
		c49.65,4.59,113.36-8.02,178.33-46.57c-0.39,3.53-0.62,7.38-0.5,11.37c0.44,7.58,1.78,15.6,6.68,22.73
		c4.9,7.13,13.37,12.47,24.06,13.37c12.03,0.89,22.28-4.9,31.19-12.93c8.91-8.02,16.49-18.27,22.73-28.52
		c2.23-4.01,4.01-8.02,6.24-11.59c2.67,12.03,7.58,22.73,14.71,31.19c12.93,15.15,32.09,22.73,54.37,24.06
		c42.49,2.58,97.36-16.8,151.11-53.66c7.14,4.81,15.8,7.42,24.93,5.53c6.68-1.33,12.92-5.35,18.72-12.03
		c3.56,20.94,12.47,36.54,25.4,46.35c17.82,13.81,41.89,15.6,66.85,12.48c47.26-6.33,98.87-32.62,128.82-53.56
		c0.41,1.06,0.82,2.13,1.32,3.2c8.91,20.05,29.41,33.87,37.43,42.78c1.34,1.33,2.23,2.23,2.67,3.12c-0.89,0.45-1.78,0.89-3.12,1.34
		c-3.57,1.33-8.92,2.23-16.49,3.12c-8.47,0.89-13.82,2.23-17.83,3.12c-0.89,0.45-1.78,0.45-2.67,0.89s-2.23,0.89-4.01,3.56
		c-0.89,1.34-1.78,4.01-1.34,6.24c0.45,2.23,2.23,4.01,3.12,4.9c1.78,1.33,2.67,1.33,3.57,1.78c4.01,0.89,8.02,0.89,13.81,0.89
		c5.79,0,13.37-0.45,22.28-0.89c35.65-2.23,92.69-10.25,147.06-27.19c59.27-16.04,117.65-48.57,156.42-66.84
		c9.8-4.46,18.27-8.02,24.95-10.25s12.03-2.67,13.37-2.23h0.44v0.89c0,2.67-0.89,9.8-4.46,19.16c-0.45,0.89-0.45,1.79-0.45,2.67
		c0,4.46,3.12,8.02,7.58,8.02c3.12,0,6.68-2.23,7.58-4.9c4.01-10.7,6.24-18.72,5.8-25.85
		C2047.29,1868.1,2046.4,1864.54,2043.73,1861.41z M580.66,1958.56c-2.23,22.28-7.13,44.12-15.6,59.72
		c-8.46,15.59-19.16,24.96-35.65,25.4c-13.37,0.45-18.72-2.23-20.94-4.46c-2.23-2.23-2.67-4.9-1.33-10.25
		c2.23-10.7,12.92-24.96,16.93-30.31c18.27-23.17,37.44-36.54,57.04-44.12C581.1,1955.89,580.66,1957.23,580.66,1958.56z
		 M850.28,1918.01c-0.89,2.67-2.23,5.35-3.56,7.58l-6.69-4.01c-13.81-9.8-21.39-21.84-22.28-35.2c-0.45-5.35,0.45-7.58,2.23-9.8
		c1.78-2.23,4.46-3.57,8.02-4.01c0.89,0,1.78-0.44,2.67-0.44c6.69,0,14.71,3.12,19.61,9.36
		C854.29,1886.37,856.08,1903.3,850.28,1918.01z M1386.41,1883.7c-4.01-5.8-6.68-12.93-7.13-17.38c-0.45-2.67,0-4.46,0.45-4.9
		s0.45-0.89,3.12-0.89h0.45c0.89,0,1.34,0.45,2.67,1.79c1.33,1.33,2.67,4.01,3.12,7.13
		C1389.97,1873.89,1389.08,1879.24,1386.41,1883.7z"/>
</g>
</svg>
