<?xml version="1.0" encoding="utf-8"?>
<!-- Generator: Adobe Illustrator 25.0.1, SVG Export Plug-In . SVG Version: 6.00 Build 0)  -->
<svg version="1.1" id="Layer_1" xmlns="http://www.w3.org/2000/svg" xmlns:xlink="http://www.w3.org/1999/xlink" x="0px" y="0px"
	 viewBox="0 0 2400 2400" style="enable-background:new 0 0 2400 2400;" xml:space="preserve">
<g>
	<path transform="translate(0.000000,2400.000000) scale(0.100000,-0.100000)" d="M2446,18264c-137-33-277-135-406-295
		c-461-573-970-1757-970-2256c0-83,2-95,24-120c23-27,28-28,116-28h92l29,35c31,37,36,60,17,89c-9,14-6,37,11,107
		c94,375,351,968,631,1459c185,323,434,669,551,764l42,35l24-30c13-16,41-65,63-109c153-315,284-959,464-2286l45-325l-60-185
		c-304-930-501-2000-581-3159c-20-282-17-1169,5-1495c68-1027,206-1845,392-2330c128-333,255-491,446-555c55-19,81-21,199-18
		c134,3,137,4,213,41c87,43,132,90,182,188c155,306,215,913,201,2049c-7,643-26,1071-77,1725c-74,962-226,2333-389,3510l-39,286
		l45,122c190,511,448,1030,712,1432c346,529,713,897,985,989c42,14,51,14,76,2c63-33,122-126,160-251c145-482-27-1495-443-2603
		c-135-360-649-1610-787-1915c-148-326-143-308-91-346c70-50,232-66,346-34c54,15,68,24,126,87c109,118,217,222,286,274
		c168,125,320,195,429,196c170,2,380-201,524-505c270-572,366-1542,256-2564l-15-140l-39-35c-21-19-166-147-322-285
		c-530-467-835-759-1035-995c-375-441-555-810-571-1170c-15-345,115-551,397-627c50-14,101-18,220-17c138,1,165,4,245,28
		c199,60,364,165,550,351c129,129,228,253,348,435c344,523,596,1267,723,2127l27,183l246,247c627,631,1031,1164,1319,1738
		c87,174,113,235,172,405l48,135l128,55c249,108,484,265,764,514c46,41,86,73,88,71c2-1-19-72-47-157c-327-1000-534-2046-591-2978
		c-13-215-13-677,0-872c33-492,125-877,265-1116c73-126,171-206,304-251c67-22,92-25,216-25c125,1,149,4,222,28
		c321,105,572,480,943,1406c128,320,228,594,360,979l107,313l6-348c11-623,57-1035,164-1458c144-576,292-756,623-756
		c203,0,322,60,424,213c163,246,506,1039,768,1772l53,150l2-55c18-439,108-864,246-1162c87-189,222-345,358-413
		c115-58,203-78,359-79c151-1,241,15,361,65c284,116,589,481,914,1091c65,123,85,144,85,93c0-42,49-295,90-461
		c152-623,391-1000,717-1126c131-51,195-62,363-62c187,0,281,20,435,94c119,56,212,121,317,219l78,73l67-51c138-104,285-145,488-139
		c116,4,141,8,231,40c250,85,516,279,842,612c394,402,734,878,1035,1446c136,258,371,793,363,826c-12,48-154,71-236,38
		c-38-15-45-25-131-193c-297-572-507-923-758-1264c-413-563-917-1049-1274-1228c-43-22-86-37-96-34c-45,14-221,247-221,293
		c0,9,44,81,99,161c328,485,600,1043,810,1668c298,885,385,1709,235,2230c-74,256-201,400-406,460c-105,30-286,32-394,4
		c-202-52-380-194-533-422c-76-115-203-371-265-536c-208-554-346-1375-346-2053c1-525,78-1041,207-1383l44-118l-47-57
		c-75-90-283-295-344-339c-81-59-163-103-192-103c-52,0-166,104-250,230c-240,358-384,965-453,1910c-25,342-33,295,101,627
		c1036,2568,1792,5349,1751,6438c-13,326-81,489-232,556c-135,60-360,41-489-41c-411-261-911-1461-1275-3060
		c-81-357-226-1143-256-1393c-4-31-11-59-15-62s-36,8-71,24c-248,110-603,117-905,16c-401-133-718-415-920-817
		c-69-138-121-269-174-438c-64-206-86-270-258-760c-435-1238-722-1962-1034-2610c-99-207-238-470-248-470c-11,0-76,207-114,361
		c-195,802-216,1826-65,3334c60,608,108,953,159,1156c36,143,38,181,8,209c-80,74-337,64-408-16c-48-55-108-283-165-624
		c-47-284-431-1521-749-2411c-426-1198-774-1944-1049-2254c-43-49-48-46-105,70c-231,466-287,1467-146,2590
		c105,836,322,1755,639,2716c67,202,105,331,105,358c0,84-85,127-245,125c-162-2-162-2-488-328c-289-289-436-424-611-560
		c-116-91-246-180-252-173c-3,2,1,69,7,147c26,335-47,657-190,837c-53,66-144,127-230,154c-87,27-265,30-361,4
		c-191-50-350-195-462-420c-167-332-157-730,21-952c113-140,356-233,613-233h57l-26-62c-147-368-430-826-774-1253
		c-134-167-360-424-435-497l-39-37l4,258c10,777-106,1454-329,1906c-92,188-156,281-270,396c-207,208-427,294-755,294
		c-164,0-252-13-386-55c-40-12-59-14-56-7s51,122,107,257c531,1271,718,1796,859,2402c197,853,197,1438-1,1735
		c-60,89-122,144-213,187c-117,57-189,70-365,70c-135-1-168-4-255-28c-121-32-291-113-402-192c-394-283-810-828-1190-1560l-78-152
		l-38,227c-89,528-192,986-282,1255c-124,371-251,530-467,581C2680,18283,2524,18283,2446,18264z M17631,17616
		c26-253-30-764-141-1301c-221-1061-677-2567-1201-3965c-101-270-99-272-74,51c30,383,42,470,64,491c25,22,26,34,7,79
		c-12,30-11,57,10,224c162,1276,416,2454,739,3423c171,514,357,922,519,1142l40,55l13-44C17614,17746,17625,17676,17631,17616z
		 M3434,13130c178-1685,249-2898,232-3950c-11-651-43-998-114-1235l-18-60l-29,49c-257,439-468,1697-504,3005
		c-20,707,24,1418,135,2188c48,335,156,925,181,983C3324,14127,3367,13763,3434,13130z M8194,13821c118-227,139-606,53-949
		c-25-97-27-99-125-101c-118-2-211,89-269,264c-24,73-27,94-27,235c1,135,4,167,27,253c14,54,46,139,70,190c44,92,124,209,155,226
		C8102,13953,8151,13903,8194,13821z M15417,13375c84-27,158-68,266-147c60-45,67-54,63-77c-12-55-56-477-75-711
		c-38-453-44-632-45-1195l-1-560l-114-245c-299-647-578-1137-815-1431c-91-114-215-235-271-265c-34-18-34-18-61,6
		c-116,108-248,408-317,720c-136,609-108,1302,89,2263c189,926,446,1378,905,1596C15199,13405,15289,13416,15417,13375z
		 M18651,13093c85-79,144-227,181-448c22-132,16-516-10-715c-85-634-314-1345-657-2039c-130-264-304-575-305-546c0,6-11,84-25,175
		c-42,284-58,509-58,830c1,162,6,363,12,445c78,1015,325,1875,640,2226c52,58,133,119,158,119C18595,13140,18623,13119,18651,13093z
		 M6145,9343c-166-715-416-1287-754-1723c-126-163-314-334-425-386l-38-19l-25,30c-64,77-93,186-93,346c0,330,157,664,518,1099
		c174,210,839,853,850,822C6180,9506,6165,9430,6145,9343z M12078,15035c-93-30-202-154-292-333l-36-71l-77,78c-52,51-98,88-138,107
		c-56,27-68,29-180,29c-98,0-127-3-159-19c-115-58-94-162,78-378c45-56,111-130,147-162c127-117,277-196,374-196c22,0,58-9,80-20
		c66-34,172-23,223,23c52,48,243,422,292,572c43,132,51,255,21,302c-33,52-92,76-196,80C12155,15049,12109,15045,12078,15035z"/>
</g>
</svg>
