<?xml version="1.0" encoding="utf-8"?>
<!-- Generator: Adobe Illustrator 25.2.0, SVG Export Plug-In . SVG Version: 6.00 Build 0)  -->
<svg version="1.1" id="Layer_1" xmlns="http://www.w3.org/2000/svg" xmlns:xlink="http://www.w3.org/1999/xlink" x="0px" y="0px"
	 viewBox="0 0 2200 2200" style="enable-background:new 0 0 2200 2200;" xml:space="preserve">
<g>
	<path d="M489.7,789.22c10.92,38.14,5.88,90.11,5.88,122.67c0,73.1-5.24,120.99-15.67,144.58c-5.24,12.52-22.36,20.86-47.02,19.5
		c-10.56-0.58-25.93-2.17-44.09-3.74c-22.08-1.91-37.01-4.61-44.08-5.95c-35.78-6.79-76.41-16.26-119.51-32
		c-33.3-12.16-56.17-25.35-68.57-36.44c-20.91-19-31.34-43.18-31.34-71.53c0-53.36,0.97-113.83,2.94-181.81
		c2.74-104.41,4.11-156.87,6.85-262.41c0.64-25.12,0.98-52.01,0.98-80.63c0-2.66-0.98-10.8-2.94-24.35
		c-5.87-43.94-13.07-79.89-21.55-107.85c-1.31-4-1.96-7.94-1.96-11.86c0-14.36,5.88-24.27,17.64-29.98
		c37.23-18.37,83.27-28.79,138.12-28.79c19.59,0,36.89,1.45,51.92,4.42c5.88,4.86,8.81,7.3,14.69,12.21
		c3.92,8.16,9.39,18.33,10.78,26.75c6.86,41.62-3.1,125.78-9.31,224.35c-6.21,98.55-9.31,171.35-9.31,220.14
		c0,42.33,0.65,66.37,1.96,72.3c3.92,17.84,15.02,28.44,33.3,31.2c10.45,1.58,26.78-2.87,48.98-14.21
		c22.2-11.32,37.86-17.07,47.02-16.36C468.47,760.45,485.01,772.86,489.7,789.22z M999.14,409.77
		c10.46,44.03,15.63,106.35,15.63,187.24c0,193.45-45.65,332.27-136.87,418.04c-28.03,26.45-67.48,47.71-118.28,55.51
		c-43.03,6.6-77.57,0.57-103.65-17.46c-63.86-43.38-101.67-134.06-113.38-267.32c-3.27-37.34-4.89-62.8-4.89-76.08
		c0-125.27,18.83-240.77,56.7-346.19c38.99-108.52,105.27-164.87,198.45-164.87c52.78,0,92.86,16.38,120.26,46.86
		C955.44,293.06,984.24,347.05,999.14,409.77z M836.47,589.28c0-81.87-20.58-121.48-61.7-117.2c-11.77,1.23-22.69,8.11-32.35,22.51
		c-13.1,19.54-19.57,72.93-19.57,157.01c0,39.47,2.26,67.92,6.86,85.64c8.46,34.08,25.45,51.34,50.94,46.67
		c24.13-4.43,40.07-19.68,47.98-44.98c5.14-16.43,7.83-39.86,7.83-70.39C836.47,637.03,836.47,621.17,836.47,589.28z
		 M1549.63,201.78c-54.21,0-97.65,5.42-130.29,17.56c-20.91,7.73-31.35,21.08-31.35,39.74c0,6.58,1.31,13.42,3.92,20.44
		c5.22,14.07,7.85,29.59,7.85,46.81c0,40-4.91,94.79-14.71,167.37c-3.13,24.95-4.7,37.55-7.83,62.99
		c-1.3,10.32-2.3,16.15-2.92,17.44c-2.63,15.36-8.83,24.01-18.63,25.85c-8.5,1.6-15.66-16.42-19.59-52.26
		c-11.28-103.06-15.93-176.12-18.61-215.83c-3.77-55.84-7.76-90.53-11.75-104.07c-5.68-19.27-21.9-29.17-48.01-29.17
		c-3.92,0-15.73,0.94-35.25,2.7c-49.47,4.47-80.99,8.71-94.04,12.69c-41.16,11.31-61.72,30.93-61.72,57.55
		c0,14.66,11.07,35.67,21.55,58.25c8.39,18.08,11.4,35.72,12.73,44.06c14.36,91.91,24.49,153.81,30.36,188.19
		c29.4,195.15,47.02,304.24,52.91,332.89c5.89,28.68,18.02,43.73,36.25,44.98c14.96,1.03,50.94-6.78,107.76-20.98
		c56.16-14.03,94.04-29.23,113.63-45.98c13.06-11.37,22.2-28.81,27.44-52.31c30.17-133.78,45.26-196.05,75.43-315.74
		c37.86-151.17,56.8-236.86,56.8-270.74C1601.54,212.51,1584.23,201.78,1549.63,201.78z M2073.72,699.06
		c-6.53-11.99-12.73-18.86-18.61-20.78c-7.19-2.35-31.02-1.63-71.52,3.97c-40.49,5.59-70.87,7.03-91.1,3.01
		c-15.67-3.12-26.79-7.71-33.3-14.1c-9.8-9.9-14.69-25.86-14.69-48.09c0-35.05,6.51-51.64,19.59-49.74
		c11.11,6.88,25.47,15.84,43.1,27.35c28.08,18.18,51.91,30.33,71.52,35.16c9.14,2.25,17.74-1.67,25.47-12.05
		c6.52-8.76,10.44-17.83,11.75-26.86c0-5.61,0-8.42,0-14.03c0-9.96,0.66-24.93,1.97-44.9c1.3-19.94,1.95-34.96,1.95-44.95
		c0-19.94-1.93-33.68-5.81-41.17c-6.46-12.24-18.42-19.6-35.85-22.04c-11.63-1.63-30.68,1.12-57.15,8.2
		c-26.48,7.11-44.57,10.19-54.25,9.18c-5.17-0.54-10.34-2.8-15.51-6.75c-4.53-15.94-6.77-28.99-6.77-39.27
		c0-22.28,11.98-35.12,35.95-38.5c3.24,0.83,17.5,2.15,42.77,4.41c16.19,1.44,37.4,9.53,63.63,25.52
		c26.24,15.99,45.21,25.61,56.88,27.44c31.09,4.88,46.66-16.68,46.66-65.65c0-20.91-1.16-39.25-3.92-54.2
		c-1.81-9.82-2.94-16.81-2.94-20.7c-2.63-41.73-12.44-67.39-25.47-70.35c-48.18-10.94-100.59-7.85-133.23-7.9
		c-2.61,0-10.13-0.45-22.53-1.32c-12.41-0.87-20.58-1.29-24.49-1.29c-38.8,0-58.19,0-96.99,0c5.22,0-3.27,0.54-25.47,1.61
		c-45.05,2.14-77.38,9.82-96.98,23.02c-5.87,9.54-8.81,19.9-8.81,31.12c0,12.29,4.23,29.18,12.73,50.93
		c9.14,23.39,13.72,40.99,13.72,52.48c-2.35,85.64-3.52,129.3-5.87,218.48c-2.63,96.25-3.92,171.56-3.92,223.13
		c0,39.13,14.03,62.47,42.11,71.04c14.36,4.3,47.02,7.38,97.96,15.14c91.43,13.92,152.49,36.59,183.19,48.41
		c3.26,1.25,6.2,2.41,8.81,3.45c3.13,1.25,4.7,1.88,7.83,3.16c19.6,8.02,37.55,12.43,53.88,12.61
		c16.97-18.14,25.47-59.8,25.47-124.93c0-5.21,0.66-16.33,1.97-33.34c1.31-17.04,1.95-28.21,1.95-33.44
		c0-8.47-0.98-18.02-2.92-28.53C2084.5,722.44,2080.25,711.06,2073.72,699.06z"/>
	<path d="M332.35,1140.42c0,6.46-3.39,18.75-10.19,36.61c-0.53,1.54-1.58,4.49-3.14,8.84c-0.26,0.77-5.36,10.1-15.3,27.39
		c-9.94,17.27-20.79,35.87-32.56,55.79c-6.28,10.57-9.42,24.31-9.42,41.23c0,7.1,0.65,17.96,1.96,32.53
		c1.31,14.56,1.97,25.36,1.97,32.43c0,5.85-0.14,9.59-0.39,11.22c-1.31,7.18-6.02,11.02-14.13,11.37
		c-4.45,0.18-12.16-1.33-23.15-4.8c-3.66-1.16-9.16-2.6-16.48-4.42c-7.33-1.84-12.82-3.45-16.48-4.74
		c-9.94-3.52-17.96-9.41-20.01-15.65c-2.81-8.53-2.74-16.62-2.74-18.91c0-1.77,0.94-8.01,2.74-18.65c1.32-7.8,1.97-15.4,1.97-22.73
		c0-10.62,0-15.93,0-26.55c0-23.03-2.75-43.56-8.24-61.85c-2.35-7.16-6.48-19.91-11.77-38.1c-4.01-13.8-7.94-28.3-12.16-42.78
		c-4.88-16.73-10.46-31.66-16.48-44.29c-4.45-9.36-6.67-16.27-6.67-20.76c0-2.89,1.04-5.21,3.13-6.95
		c3.14-2.76,14.8-1.31,34.92,2.57c17.24,3.33,30.2,6.3,38.84,9.95c7.31,3.09,10.89,9.34,12.94,13.95
		c1.85,4.16,7.41,22.53,12.16,53.53c4.4,28.73,8.36,41.04,11.77,42.32c3.67,1.39,6.89-3.54,9.81-14.56
		c2.56-9.66,3.93-18.08,3.93-23.6c0-7.16-2.45-15.47-3.14-21.8c-1.2-10.97,16.22-15.99,46.29-11.26c8.89,1.44,15.82,2.72,20.79,4
		C325.94,1125.1,332.35,1131.14,332.35,1140.42z M537.15,1228.78c4.19,16.08,6.27,38.78,6.27,67.81
		c0,69.42-18.28,114.66-54.82,134.67c-11.23,6.19-27.02,8.56-47.37,6.57c-17.23-1.69-31.07-6.83-41.5-15.11
		c-25.58-20.02-40.72-52.91-45.42-97.49c-1.31-12.51-1.95-20.93-1.95-25.26c0-40.9,7.54-72.61,22.7-108.55
		c15.6-37,42.16-52.73,79.49-49.54c21.13,1.8,37.19,8.57,48.15,21.01C519.66,1182.28,531.18,1205.88,537.15,1228.78z
		 M472.01,1280.97c0-27.43-8.23-41.67-24.7-43.18c-4.72-0.43-9.09,1.43-12.95,5.59c-5.24,5.64-7.85,22.42-7.85,49.98
		c0,12.96,0.91,22.5,2.74,28.69c3.4,11.85,10.21,18.32,20.41,19.26c9.66,0.89,16.06-2.75,19.22-10.58
		c2.05-5.08,3.13-12.79,3.13-23.11C472.01,1296.97,472.01,1291.64,472.01,1280.97z M749.96,1133.6c-4.32-2.49-11.18-2.96-20.59-1.52
		c-1.31,0.2-6.57,1.52-15.69,3.95c-19.3,5.13-32.17,11.91-38.46,20.57c-0.78,3.63-1.17,7.08-1.17,10.33c0,1.63,1.43,7.58,4.32,17.75
		c0.52,3.98,0.91,6.77,1.17,8.35c2.09,17.82,3.15,35.57,3.15,55.19c0,17.11-0.89,36.07-2.37,56.52c-1.1,15.21-1.71,22.99-1.95,23.25
		c-1.57,7.58-7.73,11.88-18.44,12.8c-8.38,0.72-12.57-3.97-12.57-14.05c0-7.35-1.07-12.82-1.57-15.34
		c-2.17-10.98-0.78-23.84-0.78-31.77c0-11.14,0.45-28.04,1.37-50.9c0.92-22.85,1.37-41.6,1.37-53.92c0-12.3-0.14-18.86-0.4-19.66
		c-1.83-9.97-9.8-14.27-23.92-13.19c-3.41,0.26-7.93,1.26-13.34,2.6c-6.65,1.65-11.26,2.5-13.35,2.89
		c-22.49,3.73-33.74,10.98-33.74,22.68c0,2.78,0.85,6.43,2.35,10.79c1.87,5.43,2.87,9.08,3.15,10.73
		c1.83,10.21,2.73,24.28,2.73,40.75c0,9.09-0.52,22.79-1.57,40.98c-1.04,18.21-1.57,31.73-1.57,40.68c0,23.72,0.78,44.51,2.35,62.43
		c3.93,44.98,31.39,67.46,82.4,64.52c17.51-1.01,35.08-4.43,52.57-10.4c25.86-8.81,40.64-31.63,44.32-68.08
		c1.82-17.99,2.75-40,2.75-66.16c0-8.13,0-20.34,0-36.74c0-16.38,0-28.75,0-37.02c0-23.23,0.08-39.06,0.97-46.28
		c1.47-11.86,2.94-20.75,2.94-25.53C756.44,1141.81,754.28,1136.07,749.96,1133.6z M1098.14,1041.73
		c-9.68-1.04-39.9,6.09-90.63,20.77c-53.36,15.43-80.99,25.95-83.56,29.41c-3.43,4.62-7.45,15.65-7.45,32.51
		c0,0.79,0.26,2.86,0.38,5.83c0.13,3.04,0,5.93,0,8.29c0,10.9,0,16.32,0,27.08c0,2.35,0.12,5.08,0,7.8
		c-0.13,2.82-0.38,4.65-0.38,5.17c0,18.17,3.78,26.19,11.37,24.12c4.72-1.28,11.05-6.56,19.03-15.9
		c7.97-9.34,14.45-14.75,19.43-16.16c2.87,1.26,4.26,4.63,3.92,9.81c-0.41,6.29-0.26,10.35,0.78,11.86
		c-2.61,43.09-4.76,75.63-5.89,97.44c-0.31,5.96-0.9,15.34-1.95,27.91c-0.79,9.45-1.18,16.1-1.18,19.93c0,1.23,0,1.85,0,3.08
		c0.26,1.46,0.38,2.47,0.38,2.98c0,1.53-0.12,4.64-0.38,9.3c-0.26,4.69-0.4,7.53-0.4,8.55c0,12.02,4.19,19.08,12.55,21.26
		c5.34-1.39,8.01-2.09,13.35-3.49c25.89-6.79,40.53-11.13,43.94-12.82c15.95-7.36,23.92-19.02,23.92-34.88
		c0-4.68-0.84-11.66-2.54-20.94c-1.69-9.26-2.56-16.37-2.56-21.31c0-14.57-0.12-36.31-0.38-65.31c-0.26-28.98-0.4-50.79-0.4-65.42
		c0-5.74,2.23-10.07,6.67-12.95c3.93-0.91,9.56,0.67,16.87,4.76c7.33,4.09,12.81,5.59,16.49,4.5c10.45-3.11,15.69-14.47,15.69-34.1
		c0-0.52,0.14-2.5,0-5.5c-0.13-2.67-0.38-5.37-0.38-7.72c0-5.34,0-8.01,0-13.35c0-3.39,0.24-8.43,0.78-15.13
		c0.52-6.68,0.78-11.74,0.78-15.13C1106.38,1049.87,1103.63,1042.46,1098.14,1041.73z M1310.39,1055.08
		c4.19,16.26,6.25,40.31,6.25,72.23c0,76.35-18.26,132.61-54.8,167.23c-11.23,10.68-27.02,18.62-47.37,23.95
		c-17.24,4.52-31.06,4.32-41.5-0.56c-25.57-11.66-40.72-40.56-45.42-86.97c-1.3-13.02-1.95-21.88-1.95-26.59
		c0-44.59,7.54-87.34,22.7-127.82c15.62-41.7,42.16-68.01,79.49-78.56c21.13-5.97,37.18-4.81,48.15,3.36
		C1292.89,1014.11,1304.43,1031.93,1310.39,1055.08z M1245.25,1131.68c0-30.16-8.23-42.85-24.72-38.14
		c-4.7,1.34-9.07,5.1-12.94,11.21c-5.25,8.3-7.85,27.65-7.85,58c0,14.27,0.91,24.45,2.75,30.55c3.4,11.74,10.2,16.19,20.4,13.36
		c9.66-2.67,16.04-8.98,19.22-18.84c2.06-6.4,3.13-15.33,3.13-26.76C1245.25,1149.3,1245.25,1143.42,1245.25,1131.68z
		 M1658.36,930.74c-9.68-3.59-39.9-5.62-90.63-1.4c-53.36,4.45-81.06,12.33-83.56,15.28c-3.36,3.96-7.45,14.19-7.45,30.54
		c0,0.77,0.26,2.79,0.38,5.7c0.13,2.95,0,5.76,0,8.07c0,10.62,0,16,0,27.03c0,2.41,0.12,5.21,0,8.01c-0.13,2.87-0.38,4.74-0.38,5.27
		c0,18.71,3.78,27.53,11.37,26.43c4.72-0.68,11.05-5.28,19.03-13.79c7.97-8.52,14.45-13.09,19.43-13.71
		c2.87,1.81,4.26,5.57,3.92,10.97c-0.41,6.51-0.26,10.82,0.78,12.61c-2.61,44.89-4.77,79.43-5.89,102.71
		c-0.31,6.38-0.9,16.37-1.95,29.82c-0.79,10.1-1.18,17.29-1.18,21.47c0,1.35,0,2.02,0,3.37c0.26,1.65,0.38,2.78,0.38,3.34
		c0,1.68-0.12,5.06-0.38,10.11c-0.26,5.09-0.4,8.19-0.4,9.31c0,13.22,4.2,21.91,12.55,26.18c5.34-0.35,8.01-0.51,13.35-0.82
		c25.89-1.48,40.53-2.26,43.94-3.22c15.95-3.9,23.92-14.44,23.92-31.84c0-5.14-0.84-13.04-2.54-23.66
		c-1.69-10.61-2.56-18.6-2.56-23.98c0-15.87-0.12-39.55-0.38-70.85c-0.26-31.28-0.4-54.57-0.4-70.14c0-6.11,2.23-10.13,6.67-12
		c3.93,0.08,9.56,3.28,16.87,9.74c7.33,6.46,12.81,9.73,16.49,9.67c10.45-0.15,15.69-10.62,15.69-31.56c0-0.56,0.14-2.65,0-5.87
		c-0.13-2.94-0.38-5.84-0.38-8.35c0-5.69,0-8.67,0-13.66c0-3.18,0.24-7.82,0.78-13.93c0.52-6.09,0.78-10.73,0.78-13.89
		C1666.6,940.54,1663.85,932.9,1658.36,930.74z M1888.25,980c0-11.7-1.97-20.27-5.88-25.63c-2.11-2.49-6.81-4.65-14.12-6.35
		c-6.55-1.53-17.01-2.7-31.39-3.07c-13.09-0.35-20.8,0.22-23.15,1.28c-4.96,2.09-7.45,7.85-7.45,17.27c0,3.86,0.71,9.71,2.16,17.56
		c1.43,7.85,2.16,13.46,2.16,17.95c0,0.86-0.14,3.08-0.4,6.68s-0.38,5.98-0.38,7.1c0,9-1.02,15.16-3.13,18.08
		c-2.7,3.73-8.25,5.05-16.09,3.97c-9.68-1.33-18.38-5.28-20.02-9.75c-2.14-5.82-1.17-16.02-1.17-23.11c0-5.65,0.19-13.84,0.59-23.8
		c0.38-9.94,0.58-17.34,0.58-22.21c0-8.51-0.12-13.49-0.38-14.98c-1.3-4.03-2.89-6.75-4.72-8.16c-1.31-0.62-2.75-1.75-3.92-2.22
		c-1.99-0.81-6.55-1.03-11.77-1.51c-17.53-1.58-34,0.22-49.42,5.23c-1.26,0.39-1.89,0.59-3.15,0.99c-2.09,0.65-3.27,1.12-3.52,1.35
		c-4.72,3.02-7.07,7.96-7.07,14.78c0,0.88,0,1.32,0,2.2c2.09,5.41,3.4,8.61,3.92,9.59c4.18,12.05,6.28,26.96,6.28,46.09
		c0,49.21-1.97,124.69-5.88,228.32c1.41,3.69,2.12,5.54,3.53,9.24c1.83,5.17,5.48,8.34,10.98,9.59c0.24,0.01,5.1,0.24,14.5,0.85
		c6.02,0.39,14.53,0.24,25.5-0.26c13.32-0.6,20.66-2.38,21.97-5.74c3.13-8.66,4.72-20.81,4.72-36.45c0-5.2-0.28-13.03-0.8-23.5
		c-0.52-10.45-0.78-18.27-0.78-23.45c0-11.24,0.14-17.56,0.4-18.97c1.04-8.22,4.06-12.49,9.02-12.73c0.52-0.22,3.93,0.04,10.2,0.87
		c1.3,0.18,2.35,0.19,3.13-0.01c1.41,0.19,2.12,0.29,3.53,0.49c3.93,0.55,7.59,5.5,10.98,14.84c0,11.6,0,17.4,0,29.02
		c0,3.41-0.26,9.65-0.78,18.71c-0.52,9.06-0.78,12.29-0.78,9.73c0,26.27,1.37,45.4,5.5,51.44c2.83,4.14,9.02,6.93,14.5,7.81
		c0.52,0.08,1.58,0.25,3.15,0.51c1.57,0.25,2.47,0.41,2.73,0.45c-1.31-0.22,0.66,0.1,5.88,0.99c10.46,1.79,23.42,1.72,38.84,0.17
		c7.07-0.79,10.6-7.06,10.6-18.96c0-3.11-0.14-7.11-0.4-11.98c-1.57-30.63-2.35-64.85-2.35-102.57c0-18.3,0.58-45.52,1.76-81.47
		C1887.65,1020.35,1888.25,995.86,1888.25,980z M2076.54,1231c-2.61-5.28-5.1-8.5-7.45-9.67c-2.87-1.43-12.41-2.72-28.64-2.75
		c-16.21-0.02-28.38-1.21-36.49-4.39c-6.27-2.46-10.72-5.35-13.34-8.79c-3.92-5.32-5.88-13.16-5.88-23.58
		c0-16.46,2.61-23.68,7.85-21.61c4.44,4.21,10.2,9.66,17.25,16.39c11.25,10.66,20.8,17.82,28.66,21.39
		c3.66,1.66,7.09,0.55,10.18-3.31c2.61-3.26,4.19-6.8,4.72-10.54c0-2.4,0-3.6,0-6c0-4.26,0.26-10.61,0.78-19
		c0.52-8.39,0.78-14.71,0.78-18.98c0-8.52-0.78-14.63-2.33-18.37c-2.58-6.11-7.36-11.01-14.34-14.45
		c-4.67-2.3-12.29-3.68-22.89-3.75c-10.6-0.07-17.86-0.72-21.73-2.32c-2.07-0.86-4.14-2.53-6.21-5.01
		c-1.81-8.12-2.72-14.64-2.72-19.55c0-10.66,4.81-15.29,14.4-13.53c1.31,0.84,7.02,3.45,17.13,8.17
		c6.49,3.03,14.99,9.93,25.49,20.87c10.51,10.94,18.11,17.79,22.77,20.31c12.46,6.75,18.7,0.46,18.7-19.09
		c0-8.34-0.48-15.9-1.58-22.4c-0.73-4.33-1.17-7.3-1.17-8.88c-1.04-17.24-4.56-29.39-10.2-33.64c-19.41-14.6-40.28-23.4-53.36-29.25
		c-1.04-0.47-4.06-2.02-9.02-4.54c-4.98-2.54-8.23-4.08-9.82-4.75c-15.54-6.49-23.3-9.5-38.84-15.09c2.11,0.76-1.31-0.28-10.18-2.85
		c-18.05-5.24-31.01-5.52-38.84-1.69c-2.37,3.7-3.53,8.13-3.53,13.25c0,5.63,1.69,13.81,5.1,24.64c3.66,11.64,5.48,20.96,5.48,26.79
		c-0.94,43.21-1.41,64.88-2.35,108.37c-1.04,46.92-1.57,82.73-1.57,107.18c0,18.56,5.62,30.89,16.87,37.29
		c5.75,3.22,18.84,7.52,39.22,13.88c36.63,11.43,61.07,21.18,73.36,26.1c1.31,0.52,2.49,1,3.53,1.42c1.26,0.51,1.89,0.77,3.15,1.28
		c7.83,3.2,15.02,4.66,21.57,4.37c6.79-7.86,10.2-24.77,10.2-51.07c0-2.1,0.26-6.58,0.78-13.42c0.52-6.83,0.78-11.29,0.78-13.39
		c0-3.41-0.4-7.3-1.18-11.63C2080.86,1241.07,2079.16,1236.26,2076.54,1231z"/>
	<path d="M423.54,1745.03c29.4,33.94,44.1,66.77,44.1,100.01c0,23.15-5.05,45.57-14.95,67.43c-11,24.28-26.16,43.06-45.59,56.24
		c-31.4,21.46-86.7,32.65-165.94,32.65c1.5,0,1.37-0.11-0.37-0.33c-1.75-0.24-4.68-0.66-8.59-1.04c-11.7-1.13-29.78-1.99-53.07-3.6
		c-19.84-1.37-34.14-10.2-42.61-26.49c-1.49-17.12-3.42-35.61-5.98-55.3c-2.88-22.19-4.48-40.65-4.48-54.94
		c0-25.09,4.98-48.13,14.95-68.52c6.97-4.78,15.43-6.34,25.41-4.85c6.48,0.97,21.95,12.17,46.34,31.94
		c24.4,19.78,44.35,29.63,59.8,30.9c3.99,0.33,6.73,0.33,8.23,0c7.47-3.43,11.21-10.69,11.21-21.84c0-13.38-13.46-31.3-40.36-55.74
		c-40.36-36.65-65.54-64.19-75.49-78.15c-26.91-37.45-40.36-77.02-40.36-115.24c0-35.75,8.46-62.4,25.41-79.58
		c27.4-27.28,66.53-37.06,117.35-34.96c13.94,0.59,22.91,1.14,26.91,2c2.49,0.54,8.09,1.99,16.82,4.17
		c8.71,2.19,14.08,3.39,16.08,3.76c42.85,7.88,71,12.21,84.46,16.36c19.93,14.22,29.89,40.5,29.89,79.21
		c0,20.22-1.97,38.04-5.97,53.42c-4.45,17.1-13.7,25.13-27.65,23.86c-11.47-1.04-28.16-8.94-50.09-24.52
		c-21.93-15.58-37.87-24.67-47.83-26.31c-7.48-1.23-14.71-0.67-21.68,1.71c-1.99,3.26-2.99,7.17-2.99,11.69
		c0,12.22,14.69,32.91,44.1,59.78C386.91,1710.67,414.58,1734.5,423.54,1745.03z M848.86,1475.77
		c-18.45-3.02-76.01,7.68-172.66,13.48c-101.67,6.1-154.69,8.03-159.22,12.18c-6.26,5.74-14.21,22.29-14.21,50.47
		c0,1.31,0.52,4.85,0.75,9.93c0.23,5.02,0,9.88,0,13.82c0,18.16,0,27.2,0,45.22c0,3.91,0.23,8.52,0,13.03
		c-0.23,4.55-0.75,7.58-0.75,8.44c0,30.36,7.22,45.7,21.69,46.19c8.96,0.3,21.05-5.22,36.24-16.81
		c15.2-11.58,27.52-17.46,36.99-17.45c5.48,3.48,8.13,9.75,7.49,18.21c-0.78,10.19-0.51,17.07,1.5,20.09
		c-5,70.25-9.12,122.21-11.23,156.79c-0.58,9.48-1.74,24.3-3.73,44.06c-1.5,14.81-2.25,25.25-2.25,31.36c0,1.96,0,2.94,0,4.9
		c0.49,2.47,0.75,4.09,0.75,4.9c0,2.46-0.26,7.35-0.75,14.66c-0.51,7.31-0.75,11.77-0.75,13.39c0,19.05,7.97,31.92,23.92,38.72
		c10.17,0,15.25,0,25.42,0c49.34,0,77.23-0.6,83.72-1.8c30.38-4.81,45.59-19.46,45.59-44.32c0-7.34-1.62-18.68-4.86-34.08
		c-3.24-15.42-4.86-27.14-4.86-35.05c0-23.29-0.26-58.34-0.75-106.2c-0.5-47.87-0.75-84.74-0.75-109.53
		c0-9.74,4.23-16.18,12.71-19.36c7.47,0.02,18.18,3.23,32.14,11.72c13.94,8.5,24.41,12.21,31.39,11.07
		c19.93-3.24,29.91-21.94,29.91-56.42c0-0.92,0.27-4.41,0-9.66c-0.24-4.74-0.75-9.53-0.75-13.69c0-9.41,0-14.12,0-23.58
		c0-6.02,0.49-14.94,1.48-26.8c0.99-11.84,1.5-20.84,1.5-26.95C864.55,1491.45,859.32,1477.72,848.86,1475.77z M1282.38,1904.38
		c4.47,35.53,6.72,54.73,6.72,56.93c0,12.78-6.98,22.07-20.93,27.65c-20.93,8.4-43.61,12.39-68.02,12.39
		c-25.92,0-46.85-5.52-62.79-16.07c-3.99-12.7-6.81-28.96-8.22-48.6c-1.58-22.13-2.25-42.96-5.99-48.23
		c-3.08-4.33-15.69-6.48-26.15-5.75c-3.5,0.25-14.71,2.55-33.63,6.76c-2.99,7.04-6.91,24.52-11.96,51.67
		c-2.44,13.12-4.75,26.26-6.74,39.28c-2,2.43-5.73,4.64-11.21,6.59c-5.38,2.63-8.07,3.94-13.46,6.53
		c-20.93,5.32-41.85,7.81-62.78,7.81c-21.94,0-36.53-2.14-43.73-6.3c-7.21-4.17-11.51-11.99-10.85-21.36
		c0.24-3.32,2.25-15.65,5.24-36.66c2.49-17.44,11.21-56.77,26.17-121.24c11.06-47.17,16.59-71.28,27.65-120.29
		c11.46-52.28,17.2-92.82,17.2-120.12c0-7.67-2.62-18.53-7.85-32.47c-5.22-13.93-7.85-24.72-7.85-32.41
		c0-11.5,3.74-21.51,11.21-30.04c0.99-1.2,5.73-4.98,14.21-11.4c34.38-26.25,77.98-48.83,130.81-66.96
		c18.84-6.36,28.25-9.55,47.09-15.89c29.39-7.53,52.43-1.33,56.06,12c14.59,53.63,12.45,152.05,25.42,248.81
		C1261.75,1747.26,1268.63,1798.49,1282.38,1904.38z M1114.19,1682.07c0-9.51-1.01-23.51-2.99-41.93c-1.98-18.4-2.98-32.3-2.98-41.8
		c0-6.49,0.24-11.31,0.75-14.4c-2.99-1.19-4.49-1.78-7.49-2.96c-16.94,59.34-25.42,99.06-25.42,120.76
		c0,13.82,5.48,19.88,16.45,18.21c6.48-0.98,12.95-4.45,19.43-10.45C1113.44,1700.76,1114.19,1691.59,1114.19,1682.07z
		 M1700.94,1767.69c3.99,18.66,5.99,37,5.99,55.03c0,46.56-6.71,85.47-20.2,116.53c-17.84,41.1-44.84,62.1-80.72,62.1
		c-12.45,0-22.67-2.69-30.64-8.09c-24.93-16.16-42.03-44.19-49.34-82.28c-4.25-22.14-10.22-56.25-18.68-100.63
		c-0.5-0.57-3.26-6.11-8.22-16.57c-3.5-6.97-7.49-10.4-11.96-10.35c-7,0.08-11.35,8.09-13.46,23.63c-0.94,6.93-1.5,16.88-1.5,29.69
		c0,10.49,0.75,26.1,2.24,46.93c1.5,20.83,2.25,36.63,2.25,47.27c0,14.79-0.7,26.42-2.25,34.68c-2.87,15.36-21.94,23.1-56.81,23.29
		c-2.99,0.02-10.6,0.66-22.81,1.89c-12.22,1.22-20.06,1.84-23.54,1.86c-19.95,0.08-30.92-7.89-32.9-23.79
		c-0.49-1.12-0.75-20.78-0.75-58.6c0-46.27,1.13-115.72,3.38-206.86c2.24-91.15,3.36-157.96,3.36-201.95
		c0-8.06-2.87-20.66-8.6-37.61c-5.73-16.95-8.6-30.1-8.6-39.61c0-11.61,4.23-22.8,12.71-33.61c12.45-15.88,29.4-29.32,50.83-40.06
		c5.48-2.71,24.91-11.8,58.3-20.81c3.29-0.95,4.93-1.42,8.22-2.36c5.99-1.61,11.99-3.63,17.2-4.72c18.33-3.82,31.39-4.02,34.38-4.22
		c7.47-0.51,20.97,0.18,40.35,2.6c47.25,5.9,84.26,24.37,110.63,53.32c28.9,31.73,43.35,73.72,43.35,124.88
		c0,46.13-10.72,87.19-32.14,123.6c-6.49,11.22-19.18,25.69-38.12,43.74c-11.47,11.27-17.18,19.86-17.18,25.61
		c0,10.35,4.47,19.62,13.44,27.83c8.98,8.22,18.44,12.42,28.41,12.63c1.99,0.04,5.1-0.62,9.35-1.96c4.23-1.33,7.35-1.97,9.33-1.92
		C1687.24,1729.09,1695.46,1742.05,1700.94,1767.69z M1553.7,1546.15c0-32.66-13.21-48.66-39.62-47.73
		c-5.97,0.21-9.71,0.65-11.21,1.26c-12.95,4.98-19.43,21.59-19.43,50.06c0,9.05,0,13.59,0,22.67c0,14.02,11.96,20.59,35.88,20.06
		c10.46-0.23,18.8-4.74,25.03-13.6C1550.58,1570.01,1553.7,1559.1,1553.7,1546.15z M2029.07,1686.34
		c-8.96-13.66-36.63-46.26-82.97-98.3c-29.4-33.35-44.1-57.38-44.1-72.08c0-5.44,0.99-10.17,2.99-14.16
		c6.96-3.09,14.19-3.88,21.67-2.38c9.96,1.99,25.9,13.16,47.84,33.55c21.92,20.38,38.61,32.02,50.07,34.96
		c13.94,3.57,23.21-4.18,27.66-23.24c4.01-17.15,5.97-37.37,5.97-60.73c0-44.72-9.96-77.73-29.89-98.68
		c-13.46-7.84-41.61-19.41-84.47-30.73c-1.98-0.52-7.35-2.21-16.07-4.91c-8.72-2.69-14.33-4.26-16.82-4.84
		c-3.99-0.92-12.97-1.4-26.91-0.99c-50.82,1.56-89.95,23.72-117.34,62.75c-16.96,24.49-25.42,57.41-25.42,98.37
		c0,43.78,13.46,85.6,40.36,125.46c9.97,14.87,35.13,43.41,75.5,85.57c26.9,28.11,40.35,50.3,40.35,66.9
		c0,13.83-3.73,22.93-11.21,27.41c-1.5,0.46-4.23,0.54-8.22,0.26c-15.46-1.06-35.39-12.53-59.8-34.68
		c-24.4-22.13-39.87-33.43-46.34-33.77c-9.98-0.53-18.44,2.49-25.42,9.07c-9.98,25.35-14.94,52.87-14.94,82.37
		c0,16.8,1.59,38.37,4.47,64.5c2.56,23.21,4.49,45.18,5.99,65.63c8.46,19.32,22.78,30,42.6,31.62c23.26,1.91,41.43,2.98,53.06,4.38
		c3.9,0.47,6.87,1.01,8.6,1.3c1.73,0.29,1.88,0.42,0.38,0.42c79.23,0,134.54-14.51,165.93-41.09c19.45-16.33,34.6-39.28,45.59-68.44
		c9.89-26.22,14.95-52.8,14.95-80.57C2073.17,1771.41,2058.47,1730.44,2029.07,1686.34z"/>
</g>
</svg>
