<?xml version="1.0" standalone="no"?>
<!DOCTYPE svg PUBLIC "-//W3C//DTD SVG 20010904//EN"
 "http://www.w3.org/TR/2001/REC-SVG-20010904/DTD/svg10.dtd">
<svg version="1.0" xmlns="http://www.w3.org/2000/svg"
 width="2400.000000pt" height="2400.000000pt" viewBox="0 0 2400.000000 2400.000000"
 preserveAspectRatio="xMidYMid meet">

<g transform="translate(0.000000,2400.000000) scale(0.100000,-0.100000)"
fill="#000000" stroke="none">
<path d="M5497 18769 c-598 -63 -1212 -362 -1812 -880 -127 -110 -405 -394
-514 -524 -554 -665 -934 -1424 -1171 -2340 -127 -492 -182 -884 -182 -1310 0
-647 123 -1151 373 -1525 77 -114 225 -271 338 -355 166 -125 397 -226 631
-276 92 -20 134 -23 350 -24 262 0 308 5 514 56 161 40 282 86 461 174 231
114 428 245 670 446 128 106 472 450 599 599 94 109 346 421 393 485 l22 30 1
-715 c0 -393 -5 -868 -10 -1055 -10 -335 -34 -827 -46 -935 l-6 -55 -166 -135
c-91 -74 -331 -267 -532 -429 -664 -535 -951 -782 -1230 -1061 -789 -787
-1283 -1631 -1385 -2365 -25 -177 -17 -425 19 -559 67 -259 204 -435 418 -541
160 -78 218 -89 468 -89 208 0 219 1 330 31 203 54 367 130 568 263 556 369
1062 1095 1461 2098 305 765 489 1603 574 2612 l12 144 145 124 c600 513 1041
948 1360 1342 356 441 615 859 763 1235 61 155 89 249 121 404 l21 103 90 33
c108 39 239 97 363 159 51 26 92 44 92 40 0 -3 -40 -96 -89 -207 -473 -1072
-802 -2113 -902 -2849 -26 -194 -37 -580 -20 -725 33 -285 126 -498 273 -628
62 -54 205 -127 298 -152 51 -14 105 -18 255 -18 219 0 281 13 441 90 386 187
774 709 1130 1523 27 61 52 112 55 112 3 0 9 -37 13 -82 11 -129 53 -321 97
-437 138 -367 390 -554 777 -577 198 -12 375 23 548 106 371 179 707 637 916
1250 116 342 167 654 175 1092 l6 277 128 76 c70 41 205 127 299 190 102 68
169 108 166 97 -16 -52 -90 -371 -120 -524 -138 -686 -180 -1260 -117 -1619
39 -224 126 -436 231 -566 238 -293 733 -403 1166 -258 184 61 358 179 550
370 229 228 391 457 549 775 253 508 397 1084 422 1677 l6 161 66 49 c104 76
264 206 419 340 98 85 142 118 142 105 0 -9 -13 -119 -30 -242 -118 -899 -182
-1624 -210 -2380 -25 -687 -30 -943 -17 -969 7 -16 36 -38 72 -56 57 -29 66
-30 190 -30 120 0 134 2 187 27 31 14 63 37 71 50 8 12 18 61 21 108 15 200
93 630 188 1030 161 686 404 1367 678 1905 83 162 179 329 186 323 2 -3 11
-117 19 -254 29 -482 83 -1061 146 -1554 75 -594 72 -577 98 -604 38 -41 112
-60 226 -61 114 0 187 20 229 62 30 30 33 79 15 223 -33 263 116 895 327 1396
200 473 503 976 734 1218 64 67 185 166 203 166 18 0 49 -144 54 -250 15 -336
-80 -753 -487 -2145 -267 -911 -379 -1346 -479 -1855 -86 -437 -115 -701 -115
-1020 0 -452 54 -628 212 -703 62 -29 77 -32 188 -35 249 -8 321 40 523 342
448 671 1088 1950 1366 2731 78 219 76 211 57 234 -47 53 -220 54 -266 2 -7
-9 -55 -108 -106 -221 -339 -752 -906 -1795 -1308 -2405 -122 -185 -125 -189
-134 -160 -12 40 -2 355 17 541 32 308 110 728 220 1194 76 321 140 560 325
1215 325 1148 412 1499 466 1870 25 167 25 454 1 550 -47 187 -132 281 -302
331 -82 25 -284 25 -375 1 -86 -23 -198 -77 -279 -134 -249 -176 -581 -645
-877 -1237 -62 -125 -116 -222 -118 -215 -5 16 -29 297 -51 599 -24 322 -42
437 -79 509 -77 149 -374 198 -583 95 -124 -60 -244 -197 -396 -449 -65 -107
-163 -299 -356 -695 l-21 -45 5 75 c4 41 26 244 51 450 71 600 76 650 72 745
-5 112 -26 158 -89 197 -70 44 -158 61 -274 55 -201 -10 -264 -46 -625 -356
-134 -116 -247 -207 -251 -203 -3 4 -14 36 -24 72 -91 338 -323 580 -654 684
-146 46 -249 60 -446 60 -202 0 -331 -20 -498 -75 -302 -101 -596 -333 -767
-606 -36 -56 -51 -72 -75 -77 -56 -11 -150 -63 -280 -156 -173 -123 -526 -362
-530 -358 -1 2 -17 61 -34 131 -104 416 -303 697 -601 847 -315 158 -749 160
-1078 5 -135 -64 -225 -128 -337 -240 -121 -121 -209 -243 -281 -390 -128
-263 -155 -510 -79 -728 l25 -74 -24 -94 c-95 -362 -414 -1168 -670 -1694
-168 -344 -307 -576 -485 -805 -83 -108 -268 -298 -346 -357 -65 -49 -165
-103 -190 -103 -28 0 -101 57 -138 107 -111 154 -157 333 -164 654 -6 219 4
379 38 609 94 654 388 1624 784 2590 53 129 118 289 145 355 107 261 103 332
-18 392 -49 24 -72 28 -164 32 -166 5 -206 -8 -545 -181 -160 -81 -296 -148
-302 -148 -6 0 -11 8 -11 17 0 45 -37 159 -82 252 -44 91 -61 116 -137 191
-140 140 -257 185 -476 184 -103 0 -146 -5 -208 -22 -195 -55 -347 -174 -427
-332 -48 -95 -63 -162 -58 -264 6 -118 35 -182 118 -260 137 -127 358 -184
671 -174 l150 5 -7 -31 c-3 -17 -21 -76 -39 -131 -216 -659 -840 -1490 -1710
-2279 -107 -96 -161 -140 -163 -129 -2 8 1 175 7 371 13 429 14 1829 1 2137
-11 258 -22 308 -78 355 -93 77 -318 90 -458 26 -72 -33 -134 -102 -330 -363
-372 -499 -663 -837 -942 -1097 -517 -481 -1028 -745 -1402 -723 -287 17 -592
212 -782 500 -236 360 -349 829 -351 1452 0 415 45 765 159 1233 229 937 631
1744 1194 2395 658 762 1554 1264 2134 1197 315 -37 552 -202 695 -486 148
-295 185 -668 111 -1123 -105 -643 -402 -1266 -852 -1787 -203 -235 -444 -425
-569 -449 -74 -14 -184 98 -231 234 -20 57 -23 86 -23 211 0 162 13 219 84
355 44 86 125 175 143 157 20 -20 58 -14 67 11 5 12 21 33 35 46 14 14 26 30
26 37 0 42 -159 59 -270 29 -127 -34 -252 -118 -334 -223 -278 -362 -230 -833
102 -1001 105 -53 192 -73 348 -78 365 -14 609 101 959 452 591 592 971 1386
1046 2189 15 158 7 425 -16 556 -114 641 -509 1006 -1175 1085 -133 16 -354
18 -483 4z m2941 -4334 c108 -97 174 -241 194 -421 6 -56 9 -108 5 -116 -11
-31 -238 -58 -328 -39 -69 15 -128 61 -160 129 -19 38 -24 62 -23 127 2 131
61 252 160 327 65 50 90 49 152 -7z m7397 -286 c135 -41 261 -147 345 -288 78
-131 141 -354 156 -554 l7 -83 -109 -71 c-417 -269 -856 -418 -1104 -373 -282
50 -403 279 -320 605 79 309 380 645 674 752 119 43 236 47 351 12z m-3382
-169 c231 -71 441 -348 533 -700 26 -98 61 -300 66 -380 l3 -45 -105 -53
c-216 -108 -444 -195 -650 -249 -114 -30 -153 -36 -250 -37 -105 -1 -120 1
-171 25 -77 37 -149 112 -197 208 -97 193 -79 437 52 706 114 233 277 412 452
495 111 53 170 60 267 30z m3867 -1288 c-76 -621 -281 -1205 -578 -1652 -205
-307 -464 -566 -669 -667 -125 -62 -200 -53 -319 35 -132 97 -247 343 -291
624 -24 153 -24 575 1 803 24 226 79 585 118 767 l10 48 36 -19 c59 -30 190
-68 292 -84 406 -66 890 13 1309 214 53 25 98 42 100 36 2 -5 -2 -52 -9 -105z
m-3255 -304 c-26 -450 -105 -806 -257 -1163 -192 -450 -483 -823 -731 -935
-55 -25 -88 -25 -140 1 -130 67 -257 281 -318 535 -49 209 -75 554 -66 899 7
258 26 576 36 587 3 4 40 -1 81 -12 181 -47 458 -51 700 -9 153 26 382 91 555
157 72 28 134 51 138 51 5 1 6 -50 2 -111z m-7025 -2530 c-49 -383 -118 -751
-210 -1113 -309 -1218 -912 -2341 -1520 -2832 -225 -181 -469 -303 -607 -303
-159 0 -325 183 -393 435 -31 114 -38 356 -16 519 111 794 726 1745 1677 2591
336 299 1082 904 1087 881 2 -8 -6 -88 -18 -178z"/>
</g>
</svg>
