<?xml version="1.0" encoding="utf-8"?>
<!-- Generator: Adobe Illustrator 25.2.0, SVG Export Plug-In . SVG Version: 6.00 Build 0)  -->
<svg version="1.1" id="Layer_1" xmlns="http://www.w3.org/2000/svg" xmlns:xlink="http://www.w3.org/1999/xlink" x="0px" y="0px"
	 viewBox="0 0 2200 2200" style="enable-background:new 0 0 2200 2200;" xml:space="preserve">
<g>
	<path d="M485.49,1692.38c-16-4.73-29.71-3.52-52.41,4.27c-7.43,2.57-13.71,4.57-14,4.55c-0.29-0.02-0.57-2.07-0.57-4.58
		c0-6.94-4-19.42-8.85-28.2c-8.71-15.55-24.14-26.44-45.56-32.62c-14-3.97-36.99-6.4-51.13-5.26
		c-43.99,3.44-68.98,34.92-58.13,73.55c1.43,4.95,2.28,9.05,1.86,9.37c-0.29,0.34-6.14-1.15-12.85-3.17
		c-10.28-3.13-14-3.8-21.99-3.8c-20.14,0.15-36.56,8.6-44.7,23.79c-8.85,16.51-13.28,52.53-8.71,69.95
		c3,11.52,10.71,26.24,16.85,32.27c13,12.78,30.13,17.16,55.7,14.93c1.83-0.13,2.74-0.2,4.57-0.33c-3.09,3.82-4.63,5.74-7.71,9.59
		c-10,12.47-12.57,19.92-11.85,34.92c0.57,15,5.86,25.16,18.28,35.1c10.71,8.43,35.85,20.86,50.7,25.07
		c26.13,7.33,52.41,4.7,66.69-6.12c8.85-6.67,13.14-12.51,16.28-22.06c1.29-4.14,2.57-8.17,2.86-9.09c0.43-0.92,2.14,0.15,4.71,3.19
		c19.14,21.48,49.27,28.4,75.84,18.65c19.28-7.09,47.42-27.25,55.98-40.09c11.85-18.2,13.57-30.95,5.71-43.79
		c-5-8.03-14.42-15.94-25.71-21.44c-6.71-3.35-6.43-4.14,2.57-5.46c2.71-0.4,10.28-2.55,16.85-4.85
		c18.99-6.79,30.42-17.22,35.28-32.56c2.86-8.76,2.71-13.17-0.71-24.28C540.76,1729.76,514.05,1700.77,485.49,1692.38z
		 M381.38,1867.41c-10.28,1.89-29.99,1.24-40.7-1.42c-25.85-6.66-47.13-25.21-55.13-48.32c-4-11.25-3.28-31.08,1.29-41.71
		c9.14-20.52,31.71-35.27,57.27-37.75c9-0.83,22.28-0.17,30.13,1.47c27.71,5.79,52.13,24.42,61.41,47.03
		C450.21,1821.94,424.79,1859.33,381.38,1867.41z M2021.79,1682.5c-8.14-20.81-24.56-36.92-44.7-43.62
		c-8-2.57-11.71-2.96-21.99-2.08c-6.71,0.55-12.57,0.78-12.85,0.27c-0.43-0.54,0.43-5.57,1.86-11.48
		c10.85-46.23-14.14-95.3-58.13-112.97c-14.14-5.71-37.13-8.7-51.13-6.66c-21.42,3.26-36.85,15.24-45.56,35.11
		c-4.86,11.22-8.85,27.88-8.85,37.51c0,3.49-0.29,6.29-0.57,6.28c-0.29-0.02-6.57-3.73-14-8.3c-22.71-13.91-36.42-16.98-52.41-11.7
		c-28.56,9.34-55.27,49.19-65.84,98.45c-3.43,16.03-3.57,22.47-0.71,35.42c4.86,22.66,16.28,38.5,35.28,49.42
		c6.57,3.7,14.14,7.26,16.85,8c9,2.4,9.28,3.6,2.57,8.25c-11.28,7.64-20.71,19.16-25.71,31.13c-7.86,19.15-6.14,38.69,5.71,67.04
		c8.57,20.01,36.7,51.84,55.98,63.03c26.56,15.39,56.7,4.59,75.83-26.49c2.57-4.39,4.28-5.9,4.71-4.53
		c0.29,1.37,1.57,7.34,2.86,13.48c3.14,14.16,7.43,22.9,16.28,32.79c14.28,16.04,40.56,19.4,66.69,9.31
		c14.85-5.79,39.99-22.22,50.7-32.93c12.42-12.63,17.71-25.33,18.28-44.61c0.71-19.28-1.86-28.98-11.85-46.5
		c-3.09-5.41-4.63-8.12-7.71-13.55c1.83,0.44,2.74,0.66,4.57,1.1c25.56,6.62,42.7,3.57,55.7-9.66c6.14-6.25,13.85-22.4,16.85-35.45
		C2035.07,1748.83,2030.64,1705.14,2021.79,1682.5z M1913.39,1767.43c-8,29.74-29.28,52.63-55.13,59.68
		c-10.71,2.77-30.42,2.13-40.7-1.41c-43.42-15.06-68.84-72.5-54.27-121.83c9.28-31.67,33.7-55.04,61.41-58.4
		c7.85-0.94,21.14,0.57,30.13,3.45c25.56,8.36,48.13,33.32,57.27,62.5C1916.68,1726.51,1917.39,1752.97,1913.39,1767.43z"/>
	<path d="M247.26,270.05c-14.75-17.42-36.33-25.9-64.76-25.9c-50.2,0-85.89,26.98-106.89,76.87
		c-20.39,48.47-30.53,100.75-30.53,160.53c0,6.34,0.87,18.64,2.63,37.03c6.31,65.61,26.67,116.6,61.07,152.03
		c14.04,14.63,32.64,25.28,55.81,31c27.38,6.77,48.61,5.67,63.71-2.69c49.14-27.02,73.71-100.56,73.71-216.47
		c0-48.45-2.79-86.49-8.42-113.51C285.57,330.46,270.08,297.19,247.26,270.05z M206,494.8c0,16.72-1.46,29.2-4.22,37.29
		c-4.26,12.49-12.85,17.79-25.86,15.65c-13.71-2.25-22.87-12.99-27.43-31.84c-2.47-9.82-3.7-24.89-3.7-45.25
		c0-43.36,3.49-69.74,10.55-78.9c5.2-6.74,11.08-9.93,17.41-9.43c22.16,1.75,33.24,24.83,33.24,69.27
		C206,468.9,206,477.54,206,494.8z M579.81,255.85c5.77,5.2,8.7,15.17,8.7,29.84c0,7.77-1.98,21.87-3.95,40.65
		c-1.22,11.63-1.34,37.33-1.34,75.53c0,13.6,0,33.94,0,60.86c0,26.94,0,47,0,60.33c0,42.97-1.24,78.87-3.68,108.01
		c-4.95,59.11-24.86,93.9-59.64,104.03c-23.5,6.84-47.12,9.56-70.69,8.22c-68.59-3.93-105.52-46.71-110.79-123.07
		c-2.11-30.46-3.17-65.52-3.17-105.37c0-15.04,0.7-37.67,2.11-68.08c1.4-30.38,2.11-53.3,2.11-68.53c0-27.58-1.24-49.13-3.69-64.48
		c-0.36-2.48-1.71-7.99-4.23-16.2c-2.02-6.6-3.16-12.04-3.16-16.18c0-17.37,15.12-27.85,45.37-31.6c2.81-0.41,9.01-1.3,17.94-3.14
		c7.26-1.49,13.36-2.53,17.93-2.53c19,0,29.72,7.89,32.19,23.66c0.34,1.28,0.52,11.51,0.52,30.62c0,19.11-0.62,47.94-1.85,86.18
		c-1.24,38.25-1.85,66.59-1.85,85.33c0,13.36-1.92,34.13,1.06,53.64c0.7,4.55,2.11,13.78,2.11,26.17c0,16.94,5.62,25.65,16.88,26.12
		c14.42,0.61,22.69-5.33,24.8-17.67c0.34-0.41,1.15-13.28,2.64-38.56c2-33.97,3.16-65.49,3.16-94.14c0-32.86-1.41-63.61-4.22-92.16
		c-0.35-2.56-0.88-7.03-1.58-13.43c-3.88-16.67-5.8-26.29-5.8-28.85c0-5.14,0.52-10.47,1.58-16.03
		c8.44-12.38,25.75-20.65,51.71-24.39c12.25-1.77,19.32-2.59,21.1-2.59C564.76,248.05,574,250.66,579.81,255.85z M861.27,537.89
		c-1.41,0.2-3.63,0.99-6.6,2.38c-2.98,1.39-5.19,2.21-6.6,2.4c-7.03,0.98-13.72-0.87-20.04-5.58c-6.32-4.71-9.5-10.72-9.5-17.91
		c0-3.99,4.04-10.51,12.13-19.48c13.37-14.38,22.34-25.71,26.91-34.16c15.12-27.44,22.69-57.04,22.69-89.65
		c0-36.17-10.21-65.09-30.59-87.45c-18.6-20.4-44.74-34.17-78.09-40.43c-13.68-2.57-23.22-3.85-28.49-3.85
		c-2.1,0-11.46-0.54-24.27,1.29c-3.61,0.52-7.91,1.74-12.13,2.61c-2.32,0.52-3.49,0.78-5.81,1.3c-23.56,4.78-37.28,7.82-41.14,9.11
		c-15.12,5.21-27.09,13.23-35.88,24.02c-5.98,7.35-8.97,15.76-8.97,25.23c0,7.74,2.04,18.94,6.08,33.49
		c4.05,14.56,6.07,25.02,6.07,31.41c0,34.96-0.79,87.38-2.39,156.05c-1.58,68.64-2.37,119.01-2.37,152.29
		c0,27.22,0.17,41.07,0.53,41.85c1.41,11.27,9.14,16.71,23.22,16.24c2.46-0.08,7.99-0.66,16.62-1.8c8.61-1.14,13.97-1.79,16.09-1.89
		c24.61-1.1,38.06-7.14,40.1-17.54c1.09-5.57,1.58-13.39,1.58-23.37c0-7.2-0.52-17.84-1.58-32.07c-1.05-14.2-1.58-25-1.58-32.27
		c0-8.89,0.39-15.84,1.05-20.71c1.48-10.91,4.57-16.62,9.5-16.8c3.16-0.11,5.98,2.25,8.44,7.03c3.52,7.19,5.45,10.98,5.81,11.36
		c5.98,30.6,10.18,53.04,13.18,67.46c5.15,24.71,17.24,41.16,34.84,48.47c5.62,2.48,12.82,2.87,21.62,1.19
		c25.33-4.85,44.4-22.21,56.99-51.5c9.51-22.12,14.25-48.53,14.25-79.47c0-11.98-1.41-23.95-4.23-35.98
		C874.81,544.62,869,536.81,861.27,537.89z M768.15,443.63c-4.4,6.81-10.29,10.55-17.68,11.2c-16.88,1.5-25.31-4.58-25.31-15.06
		c0-6.78,0-10.18,0-16.98c0-21.43,4.55-33.97,13.71-37.46c1.05-0.42,3.7-0.67,7.91-0.72c18.65-0.22,27.96,10.48,27.96,34.54
		C774.74,428.69,772.54,436.85,768.15,443.63z M1292.83,489.73c5.6,14.66,3.18,39.02,3.18,53.57c0,32.66-2.82,55.29-8.44,67.61
		c-2.84,6.48-11.72,12.66-25.33,16.21c-5.66,1.48-13.94,3.39-23.75,6.13c-11.88,3.32-19.94,5.31-23.73,6.21
		c-19.45,4.62-41.14,10.15-64.36,15.38c-17.94,4.04-30.26,5.44-36.93,4.14c-11.26-2.36-16.89-11.16-16.89-26.3
		c0-28.53,0.53-61.23,1.6-98.04c1.47-56.43,2.21-84.61,3.68-140.82c0.36-13.38,0.53-27.62,0.53-42.73c0-1.4-0.53-5.57-1.58-12.54
		c-3.16-22.65-7.05-41.37-11.6-56.13c-0.72-2.1-1.07-4.22-1.07-6.36c0-7.79,3.16-13.34,9.5-16.58
		c20.04-10.43,44.84-15.32,74.38-15.32c10.55,0,19.87,0.67,27.96,1.96c3.17,2.15,4.75,3.22,7.92,5.35
		c2.11,3.57,5.09,8.06,5.81,11.62c3.51,17.3-1.68,55.14-5.02,100.06c-3.34,44.91-5.02,79.06-5.02,101.66
		c0,19.61,0.36,30.74,1.07,33.28c2.11,7.66,8.08,10.67,17.94,9.06c5.62-0.91,14.4-5.5,26.36-13.57c11.96-8.07,20.4-12.37,25.33-13.1
		C1281.4,479.42,1290.48,483.6,1292.83,489.73z M1520.85,261.57c-14.75-11.64-36.33-17.42-64.76-17.42
		c-50.2,0-85.91,19.64-106.9,62.8c-20.37,41.89-30.52,90.67-30.52,143.91c0,5.65,0.88,16.35,2.63,32.15
		c6.31,56.39,26.67,93.03,61.08,108.68c14.04,6.53,32.64,7.53,55.8,3.4c27.38-4.88,48.62-9.13,63.71-18.74
		c49.14-31.14,73.71-88.34,73.71-170.16c0-34.2-2.78-60.18-8.42-78.45C1559.15,301.7,1543.66,279.71,1520.85,261.57z
		 M1479.59,423.49c0,12.48-1.47,22.07-4.23,28.59c-4.25,10.02-12.84,14.42-25.85,16.12c-13.71,1.79-22.86-4.17-27.43-17.91
		c-2.47-7.14-3.7-18.8-3.7-34.75c0-33.97,3.5-54.69,10.55-62.58c5.21-5.83,11.08-8.92,17.41-9.35
		c22.15-1.48,33.24,15.18,33.24,47.87C1479.59,404.2,1479.59,410.6,1479.59,423.49z M1891.64,263.86
		c0,18.71-10.21,66.94-30.59,144.1c-16.25,61.08-24.38,91.52-40.63,153.15c-2.82,10.84-7.75,18.19-14.78,22.09
		c-10.55,5.68-30.95,7.2-61.2,5.57c-30.59-1.65-49.97-3.22-58.04-5.83c-9.83-3.17-16.34-11.82-19.52-25.81
		c-3.16-13.99-12.65-67.84-28.48-156.32c-3.16-15.64-8.63-43.77-16.36-83.34c-0.7-3.6-2.53-11.48-6.86-19.04
		c-5.71-9.98-11.6-18.65-11.6-24.63c0-10.89,11.07-18.57,33.24-23.16c7.03-1.62,23.99-3.29,50.65-5.26
		c10.52-0.78,16.88-1.22,18.99-1.22c14.06,0,22.79,4.7,25.85,14.03c2.15,6.55,4.31,23.38,6.34,50.45
		c1.44,19.26,3.98,54.94,10.02,105.33c2.12,17.65,5.98,27.06,10.55,27.26c5.28,0.23,8.61-3.24,10.02-10.4
		c0.34-0.56,0.88-3.29,1.58-8.18c1.69-12.06,2.54-18.07,4.23-30.07c5.28-34.86,7.91-62.36,7.91-82.72c0-8.77-1.41-16.82-4.21-24.17
		c-1.41-3.66-2.11-7.18-2.11-10.54c0-9.52,5.62-16.17,16.88-20.06c17.58-6.1,40.97-9.22,70.17-9.19
		C1882.32,245.89,1891.64,251.87,1891.64,263.86z M2152.8,532.22c1.07,5.53,1.58,10.59,1.58,15.16c0,2.82-0.34,8.88-1.05,18.17
		c-0.7,9.3-1.07,15.34-1.07,18.15c0,35.09-4.57,58.41-13.71,69.66c-8.8,1.3-18.46,0.24-29.01-3c-1.69-0.52-2.54-0.78-4.23-1.29
		c-1.41-0.43-2.99-0.91-4.74-1.43c-16.53-4.95-49.43-14.73-98.66-25.61c-27.43-6.06-45.03-10.17-52.76-13.44
		c-15.12-6.48-22.69-19.73-22.69-40.1c0-26.86,0.7-66.14,2.11-117.5c1.26-47.59,1.9-71.26,3.16-118.34c0-6.33-2.46-16.08-7.39-29.09
		c-4.57-12.1-6.86-21.48-6.86-28.32c0-6.23,1.58-11.98,4.76-17.3c10.55-7.34,27.96-11.67,52.23-12.88
		c11.94-0.6,16.53-0.91,13.71-0.91c20.89,0,31.34,0,52.23,0c2.11,0,6.51,0.23,13.2,0.73c6.67,0.49,10.72,0.74,12.13,0.74
		c17.58,0.02,45.84-1.62,71.75,4.24c7.01,1.59,12.3,15.45,13.71,37.93c0,2.1,0.61,5.85,1.58,11.12c1.49,8.04,2.11,17.87,2.11,29.12
		c0,26.38-8.37,38.63-25.13,36.92c-6.29-0.64-16.5-5.32-30.63-13.6c-14.13-8.27-25.56-12.51-34.29-13.14
		c-13.61-0.97-21.28-1.63-23.03-2.07c-12.91,2.04-19.37,9.22-19.37,21.63c0,5.73,1.22,12.97,3.66,21.83
		c2.78,2.17,5.57,3.4,8.35,3.67c5.21,0.51,14.95-1.32,29.22-5.63c14.26-4.31,24.51-6.24,30.78-5.6c9.38,0.95,15.83,4.67,19.3,11.19
		c2.1,3.99,3.15,11.45,3.15,22.35c0,5.47-0.36,13.69-1.07,24.65c-0.7,10.99-1.05,19.18-1.05,24.63c0,3.07,0,4.61,0,7.68
		c-0.7,4.99-2.81,10.1-6.34,15.17c-4.18,6.01-8.78,8.5-13.71,7.59c-10.55-1.96-23.39-7.96-38.51-17.56
		c-9.49-6.08-17.24-10.95-23.22-14.69c-7.03-1-10.55,8.12-10.55,27.35c0,12.18,2.65,20.95,7.92,26.37c3.51,3.51,9.5,6.03,17.94,7.6
		c10.9,2.03,27.27,0.82,49.07-3.82c21.78-4.63,34.63-6.58,38.51-5.75c3.16,0.68,6.5,4,10.02,10.04
		C2149.45,520.89,2151.75,526.7,2152.8,532.22z"/>
	<path d="M158.59,1054.28c1.25,37.04,1.88,64.77,1.88,83.25c0,6.59-0.47,10.17-1.41,10.76c-9.07,10.23-25.97,8.14-50.68-6.52
		c-14.64-8.7-21.96-13.29-36.61-22.95c-6.88-7.71-11.1-17.27-12.67-28.3c0-10.22,0-15.33,0-25.55c0-1.58-0.16-3.09-0.47-4.52
		c0-1.7,0-2.56,0-4.26c0-6.31,0.15-12.21,0.47-17.71c0.37-6.79,0.56-10.18,0.94-16.98c0-5.69,1.26-55.91,1.88-149.27
		c0.04-6.59-0.14-18.57,0.46-34.91c0.2-5.45,0.81-8.84,0.94-9.55c0.93-5.11-2.11-16.91-6.33-31.64c-4.22-14.71-6.33-25.3-6.33-31.89
		c0-1.7,0-2.55,0-4.24c5.94-7,14.7-9.58,26.28-7.88c12.95,1.89,19.43,2.7,32.38,4.07c8.76,0.94,15.79,2.17,21.12,3.82
		c13.14,4.07,21.3,10.57,24.4,19.78c3.46,10.32,5.16,33.44,5.16,69.12c0,13.66-0.55,34.07-1.64,61.12
		c-1.1,27.04-1.64,47.31-1.64,60.89C156.72,989.47,157.34,1017.26,158.59,1054.28z M314.87,955.19
		c-18.47-21.36-27.69-37.01-27.69-46.36c0-3.46,0.62-6.46,1.87-9c4.38-1.9,8.92-2.44,13.61-1.59c6.26,1.14,16.26,7.97,30.03,20.27
		c13.77,12.3,24.24,18.81,31.44,19.76c8.76,1.15,14.56-5.18,17.36-18.91c2.51-12.33,3.76-26.63,3.76-42.88
		c0-31.03-6.26-52.08-18.77-63.1c-8.45-3.1-26.12-6.18-53.03-10.34c-1.25-0.19-4.62-0.89-10.09-2.12c-5.48-1.24-9-2.01-10.56-2.28
		c-2.51-0.43-8.14-0.34-16.89,0.15c-31.91,1.76-56.47,12.7-73.68,33.6c-10.64,13.15-15.96,31.75-15.96,56.32
		c0,26.25,8.45,53.32,25.34,81.02c6.26,10.32,22.06,31.07,47.4,61.11c16.89,20.02,25.34,34.89,25.34,45.14
		c0,8.55-2.35,13.82-7.04,15.73c-0.94,0.13-2.66-0.13-5.16-0.76c-9.7-2.44-22.21-11.97-37.54-28.85
		c-15.33-16.86-25.03-26.2-29.1-27.52c-6.26-2.04-11.57-1.83-15.95,0.65c-6.26,12.86-9.39,27.66-9.39,44.63
		c0,9.67,1,22.37,2.82,38.01c1.61,13.85,2.82,26.86,3.76,38.85c5.32,13.05,14.27,22.46,26.75,27.68c14.6,6.1,26,10.17,33.32,13.11
		c2.47,0.99,4.3,1.8,5.4,2.27c1.09,0.48,1.18,0.57,0.23,0.29c49.74,14.69,84.47,12.36,104.18-2.32
		c12.2-9.01,21.71-23.38,28.62-42.73c6.2-17.37,9.38-35.62,9.38-54.59c0-27.21-9.23-54.62-27.69-82.81
		C361.32,1008.86,343.96,988.53,314.87,955.19z M824.49,1131.19c2.82,19.96,4.23,30.47,4.23,31.73c0,7.26-4.38,13.59-13.15,18.9
		c-13.13,7.96-27.38,13.69-42.71,17.14c-16.26,3.67-29.41,3.17-39.41-1.44c-2.51-7.37-4.29-17.23-5.17-29.41
		c-0.99-13.76-1.44-27-3.75-30.01c-1.85-2.41-9.85-3.18-16.43-2.13c-2.18,0.35-9.23,2.47-21.1,6.17c-1.89,4.84-4.33,16.7-7.51,35.22
		c-1.53,8.94-2.99,17.93-4.23,26.81c-1.25,1.81-3.61,3.64-7.05,5.47c-3.38,2.27-5.06,3.5-8.44,5.65
		c-13.15,5.31-26.28,8.71-39.43,10.27c-13.77,1.63-22.91,1.09-27.45-1.28c-4.54-2.37-7.22-8.22-6.81-15.4
		c0.15-2.54,1.41-11.89,3.28-27.71c1.56-13.13,7.05-42.88,16.43-89.8c6.94-34.32,10.42-51.56,17.36-86.24
		c7.2-37.02,10.79-65.52,10.79-85.25c0-5.54-1.63-13.66-4.93-24.47c-3.28-10.79-4.92-19.01-4.92-24.62c0-8.41,2.34-15.16,7.03-20.27
		c0.64-0.72,3.59-2.79,8.92-6.2c21.59-13.98,48.96-23.53,82.12-29.21c11.83-1.94,17.75-2.07,29.58-5.34
		c18.46-3.51,32.88,1.4,35.2,10.51c9.25,36.39,7.8,100.07,15.95,159.62C811.54,1041.57,815.86,1071.76,824.49,1131.19z
		 M718.9,1004.17c0-6.31-0.62-15.64-1.87-28.03c-1.25-12.41-1.87-21.84-1.87-28.25c0-4.37,0.15-7.61,0.46-9.66
		c-1.88-1.02-2.81-1.53-4.69-2.56c-10.64,38.95-15.95,65.66-15.95,80.35c0,9.35,3.44,13.61,10.31,12.76
		c4.07-0.51,8.15-2.68,12.2-6.51C718.44,1016.49,718.9,1010.48,718.9,1004.17z M1065.51,1116.28c0.02,0.01,0.18-0.03,0.64-0.17
		C1065.98,1116.15,1065.77,1116.21,1065.51,1116.28z M1209.51,708.87c-3.92-1.46-20.28,0.99-49.05,7.51
		c-46.9,10.64-68.68,15.66-65.22,14.8c-35.35,8.79-58.04,18.04-68.04,27.9c-5.33,5.16-7.99,14.19-7.99,27
		c5.64,12.97,8.46,34.4,8.46,64.33c0,4.78,0.24,11.88,0.7,21.29c0.46,9.41,0.7,16.49,0.7,21.26c0,11.74-0.55,29.28-1.65,52.58
		c-1.1,23.3-1.63,40.76-1.63,52.44c0,0.64,0.32,2.79,0.46,6.02c0.15,3.32,0,6.64,0,9.49c0,6.25,0,9.37,0,15.62
		c0,5.35-0.24,13.62-0.7,24.79c-0.46,11.18-0.7,19.43-0.7,24.77c0,16.99,2.03,30.49,6.1,40.52c4.38,3.34,13.15,2.92,26.28-1.21
		c0.62-0.19,2.11-0.49,4.47-0.93c1.75-0.32,3.02-0.58,3.82-0.77c-0.1-0.06,5.53-2.14,17.06-6.3c28.72-10.35,44.1-19.1,45.99-26.25
		c0.93-1.85,1.39-4.51,1.39-7.94c0-4.38-1.1-13.71-3.28-28.01c-2.82-18.48-4.21-33.5-4.21-45.04c0-4.37,0.29-9.76,0.93-16.21
		c4.69-6.74,7.51-10.25,8.46-10.54c1.24-0.38,2.03-0.45,2.34-0.25c13.15,7.51,22.53,11.78,28.17,12.83
		c2.18,0.27,4.22,0.44,5.62,0.16c11.33-2.33,20.02-11.85,23.46-24.34c1.56-5.72,2.35-16.78,2.35-33.14c0-21.29-0.15-33.7-0.46-37.31
		c-1.89-23.13-8.3-33.13-19.25-29.99c-5,1.43-12.2,6.73-21.59,15.95c-9.38,9.24-16.12,14.48-20.18,15.67
		c-3.75,1.1-9.44,0.73-10.79-1.04c-2.05-2.7-1.87-16.13-1.87-30.77c0-12.77,3.01-20.43,5.16-22.94c2.04-2.39,4.69-5.98,8.46-7.03
		c0.93-0.26,2.8-0.55,5.62-0.87c2.82-0.31,4.54-0.57,5.17-0.75c3.75,0.52,12.37,3.36,25.8,8.52c10.63,4.08,19.56,5.09,26.76,3.07
		c12.51-3.52,19.87-13.05,22.05-28.56c0.31-1.61,0.46-13.83,0.46-36.59c0-33.05-0.93-53.74-2.8-62.33
		C1215.68,712.78,1213.41,710.34,1209.51,708.87z M1480.03,946.67c2.82,19.38,4.23,29.76,4.23,31c0,7.08-4.38,12.97-13.15,17.81
		c-13.13,7.26-27.38,12.65-42.71,16.1c-16.26,3.65-29.41,3.5-39.41-0.58c-2.51-7.17-4.29-16.75-5.17-28.52
		c-0.99-13.3-1.57-26.09-3.75-28.64c-1.79-2.1-9.85-2.15-16.43-0.45c-2.18,0.56-9.23,3.29-21.1,8.29
		c-1.89,4.81-4.33,16.32-7.51,34.39c-1.54,8.74-2.99,17.53-4.23,26.24c-1.25,1.89-3.61,3.93-7.05,6.12
		c-3.38,2.6-5.06,3.89-8.44,6.53c-13.15,7.1-26.28,12.56-39.42,16.37c-13.77,3.99-22.91,5.21-27.45,3.57
		c-4.54-1.64-7.21-6.44-6.81-13.15c0.15-2.44,1.41-11.48,3.28-26.62c1.56-12.57,7.05-41.55,16.43-86.28
		c6.94-32.73,10.41-48.99,17.36-81.22c7.2-34.36,10.79-59.83,10.79-76.87c0-4.79-1.63-11.45-4.93-20.03
		c-3.28-8.57-4.92-15.23-4.92-19.99c0-7.15,2.34-13.36,7.03-18.63c0.64-0.74,3.59-3.09,8.92-7.01
		c21.59-16.03,48.96-28.94,82.11-38.56c11.83-3.36,17.75-5.02,29.58-8.27c18.46-3.75,32.96,0.11,35.2,7.48
		c8.69,28.63,7.8,84.41,15.95,138.58C1467.08,860.46,1471.4,888.95,1480.03,946.67z M1374.44,830.29c0-5.68-0.62-13.97-1.87-24.79
		c-1.25-10.84-1.87-19.04-1.87-24.66c0-3.83,0.15-6.69,0.46-8.52c-1.88-0.62-2.82-0.93-4.69-1.54
		c-10.64,35.56-15.95,60.35-15.95,73.55c0,8.41,3.44,11.75,10.31,10.02c4.07-1.02,8.15-3.54,12.2-7.54
		C1373.98,841.46,1374.44,835.97,1374.44,830.29z M1608.62,810.6c0-11.64,0.55-29.17,1.65-52.33c1.08-23.16,1.63-40.27,1.63-51.59
		c0-29.56-1.7-47.92-5.16-55.43c-3.09-6.71-11.27-9.96-24.4-9.54c-5.33,0.17-12.36,1.23-21.12,3.26
		c-12.95,3.01-19.43,4.58-32.38,7.82c-11.58,2.89-20.33,8.76-26.28,17.58c0,1.51,0,2.27,0,3.78c0,5.88,2.13,14.42,6.34,25.63
		c4.22,11.22,7.12,20.71,6.32,25.37c-0.13,0.77-0.72,3.98-0.93,9.02c-0.61,14.82-0.44,25.79-0.48,31.77
		c-0.62,85.36-1.87,134.14-1.87,139.53c-0.38,6.68-0.57,10.04-0.95,16.75c-0.31,5.46-0.46,11.2-0.46,17.23c0,1.63,0,2.45,0,4.08
		c0.31,1.15,0.46,2.48,0.46,3.99c0,9.8,0,14.71,0,24.57c1.56,9.48,5.79,15.39,12.68,18.13c14.64-1.22,21.96-1.73,36.61-2.51
		c24.7-1.36,41.59-9.23,50.66-22.73c0.94-0.98,1.41-4.4,1.41-10.28c0-16.47-0.62-40.81-1.87-72.67
		C1609.24,850.19,1608.62,826.51,1608.62,810.6z M1868.11,877.12c2.51,9.5,3.76,18.65,3.76,27.45c0,22.7-4.22,40.9-12.68,54.53
		c-11.2,18.02-28.15,26.25-50.66,23.73c-7.84-0.88-14.25-3.02-19.25-6.55c-15.64-10.59-26.38-23.36-30.97-41.98
		c-2.65-10.78-6.41-27.5-11.74-49.33c-0.31-0.28-2.03-3.07-5.16-8.31c-2.2-3.51-4.69-5.31-7.51-5.41
		c-4.38-0.17-7.14,3.62-8.46,11.15c-0.58,3.35-0.93,8.18-0.93,14.42c0,5.11,0.46,12.73,1.41,22.87c0.93,10.14,1.41,17.8,1.41,22.96
		c0,7.16-0.45,12.79-1.41,16.75c-1.78,7.37-13.77,10.83-35.66,11.24c-1.89,0.04-6.71,0.36-14.32,1.24
		c-7.64,0.88-12.6,1.47-14.78,1.58c-12.53,0.6-19.4-3.1-20.66-11.21c-0.31-0.56-0.46-10.67-0.46-30.13
		c0-23.81,0.7-59.57,2.11-106.35c1.41-46.77,2.11-80.99,2.11-103.61c0-4.15-1.8-10.87-5.4-20.17c-3.61-9.3-5.4-16.4-5.4-21.31
		c0-6.02,2.65-11.36,7.97-16.03c7.82-6.85,18.46-11.86,31.91-14.93c3.44-0.76,15.64-2.53,36.59-4.77c2.07-0.25,3.1-0.37,5.17-0.61
		c3.75-0.4,7.52-1,10.79-1.18c11.77-0.65,19.71,0.2,21.59,0.31c4.69,0.27,13.15,1.55,25.33,4.1c29.7,6.21,52.88,17.72,69.45,33.76
		c18.15,17.56,27.22,39.31,27.22,64.5c0,22.68-6.72,41.96-20.18,58.05c-4.07,4.95-12.05,10.99-23.94,18.37
		c-7.18,4.67-10.79,8.44-10.79,11.23c0,5.01,2.82,9.82,8.46,14.44c5.64,4.64,11.57,7.42,17.84,8.33c1.24,0.18,3.2,0.12,5.86-0.19
		c2.65-0.29,4.61-0.33,5.86-0.14C1859.5,857,1864.67,864.08,1868.11,877.12z M1775.67,758.49c0-15.96-8.28-24.63-24.87-25.65
		c-3.75-0.23-6.1-0.22-7.05,0c-8.13,1.75-12.2,9.65-12.2,23.7c0,4.46,0,6.7,0,11.17c0,6.9,7.51,10.64,22.53,11.58
		c6.57,0.41,11.81-1.35,15.73-5.33C1773.71,769.99,1775.67,764.83,1775.67,758.49z M2118.7,720.53c-5.95-2.14-14.23-4.47-24.87-6.85
		c-35.97-7.91-56.77-0.95-55.37,10.34c0.81,6.55,3.75,15.44,3.75,23.04c0,5.86-1.64,14.63-4.69,26.12
		c-3.49,13.14-7.36,19.06-11.72,17.67c-4.07-1.3-8.82-17.15-14.08-47.04c-5.68-32.26-12.42-50.88-14.56-54.86
		c-2.32-4.34-6.74-10.64-15.48-12.67c-10.33-2.39-25.83-3.14-46.45-1.9c-24.07,1.45-38.02,4.62-41.76,8.69
		c-2.51,2.61-3.76,5.45-3.76,8.48c0,4.7,2.66,11.09,7.97,19.21c7.17,10.97,13.89,24.8,19.71,41.35c5.05,14.35,9.77,29.07,14.56,43.2
		c6.3,18.6,11.26,31.99,14.08,39.52c6.57,19.3,9.85,42.09,9.85,68.2c0,12.05,0,18.08,0,30.17c0,8.35-0.75,17.08-2.34,26.09
		c-2.16,12.29-3.28,19.51-3.28,21.52c0,2.61-0.06,11.86,3.28,21.36c2.43,6.89,12.03,14.04,23.92,18.07
		c4.38,1.49,10.95,3.32,19.71,5.73c8.76,2.41,15.33,4.56,19.71,6.32c13.15,5.26,22.36,8.33,27.69,8.71
		c9.69,0.7,15.33-2.57,16.89-11.12c0.31-1.94,0.46-6.51,0.46-13.69c0-8.66-0.77-22.02-2.34-39.99c-1.58-17.98-2.35-31.24-2.35-39.87
		c0-20.51,3.76-36.79,11.27-48.94c14.07-22.87,27.05-44.27,38.94-64.27c11.88-19.99,17.98-30.6,18.3-31.39
		c1.87-4.45,3.13-7.47,3.75-9.08c8.13-18.21,12.2-31.07,12.2-38.21C2141.7,734.18,2134.03,726.05,2118.7,720.53z"/>
	<path d="M282.63,1284.06c0,3.55-0.3,8.67-0.89,15.34c-0.61,6.68-0.9,11.79-0.9,15.31c0,5.56,0,8.33,0,13.88
		c0,2.44,0.3,5.34,0.45,8.26c0.15,3.09,0,5.16,0,5.71c0,20.35-6.01,29.2-18,26.28c-4.21-1.02-10.51-5.82-18.91-14.63
		c-8.4-8.83-14.85-14.13-19.35-15.72c-5.11,0.15-7.66,3.25-7.66,9.31c0,15.47,0.15,38.63,0.46,69.34
		c0.29,30.71,0.45,53.64,0.45,68.92c0,5.2,0.97,13.15,2.92,23.82c1.95,10.67,2.93,18.42,2.93,23.31c0,16.55-9.16,24.56-27.46,23.6
		c-3.9-0.07-20.71-3.36-50.41-11.46c-6.13-1.67-9.19-2.53-15.31-4.28c-9.61-7.57-14.4-18.24-14.4-31.71c0-1.15,0.15-4.26,0.45-9.33
		c0.3-5.07,0.46-8.46,0.46-10.18c0-0.56-0.15-1.75-0.46-3.59c0-1.38,0-2.07,0-3.44c0-4.3,0.46-11.46,1.36-21.48
		c1.19-13.35,1.89-23.31,2.25-29.75c1.3-23.37,3.75-58.13,6.75-103.65c-1.2-2.49-1.36-7.18-0.89-13.7c0.4-5.5-1.2-10.26-4.5-13.96
		c-5.71-2.43-13.14-1.72-22.29,2.15c-9.15,3.89-16.43,4.55-21.83,2c-8.71-4.12-13.06-16.66-13.06-37.42c0-0.59,0.31-2.57,0.46-5.54
		c0.15-3.1,0-6.23,0-8.9c0-12.28,0-18.42,0-30.7c0-2.67,0.14-5.92,0-9.34c-0.14-3.57-0.46-6.02-0.46-6.92
		c0-18.97,5.24-27.78,8.56-29.49c2.32-1.2,34.66,14.46,95.89,39.23c58.22,23.55,92.88,33.52,103.98,40.49
		C279.49,1259.93,282.63,1269.31,282.63,1284.06z M534.29,1551.14c2.68,16.89,4.06,25.77,4.06,26.8c0,5.93-4.23,10.15-12.61,12.58
		c-12.61,3.64-26.26,5.2-40.96,4.64c-15.61-0.6-28.21-3.95-37.82-9.92c-2.41-6.55-4.1-14.93-4.95-25.01
		c-0.95-11.34-1.5-22.14-3.6-25.06c-1.96-2.72-9.45-4.55-15.76-5.05c-2.11-0.17-8.85,0.09-20.25,0.6
		c-1.8,3.48-4.16,12.43-7.21,26.57c-1.47,6.82-2.85,13.7-4.05,20.55c-1.2,1.19-3.45,2.14-6.75,2.84c-3.24,1.08-4.86,1.61-8.1,2.67
		c-12.61,1.54-25.21,1.52-37.82-0.08c-13.21-1.68-21.98-4.2-26.33-7.32c-4.36-3.13-6.93-8.18-6.53-13.79
		c0.14-1.93,1.35-9.14,3.15-21.26c1.49-10.05,6.75-32.42,15.75-67.32c6.66-25.51,10-38.3,16.66-64.02
		c6.9-27.49,10.35-49,10.35-64.36c0-4.31-1.58-10.95-4.73-19.97c-3.15-9.02-4.73-15.72-4.73-20.06c0-6.5,2.25-11.28,6.75-14.34
		c0.6-0.45,3.45-1.47,8.56-3.15c20.71-6.91,46.96-9.88,78.78-10.3c11.34-0.09,17.01-0.22,28.36-0.65
		c17.71,0.61,31.55,6.57,33.77,14.6c8.03,29.06,7.48,82.04,15.29,132.03C521.85,1475.19,526,1500.76,534.29,1551.14z
		 M432.99,1426.67c0-5.04-0.6-12.58-1.8-22.63c-1.2-10.07-1.8-17.65-1.8-22.73c0-3.47,0.15-6,0.45-7.59c-1.8-1.1-2.7-1.65-4.49-2.76
		c-10.21,29.16-15.31,49.29-15.31,60.93c0,7.41,3.3,11.43,9.91,11.99c3.89,0.33,7.8-0.69,11.7-3.03
		C432.55,1436.43,432.99,1431.71,432.99,1426.67z M717.49,1469.51c-4.19,0.41-11.41,3.76-21.6,9.81
		c-10.21,6.06-17.72,9.19-22.51,9.54c-8.4,0.62-13.51-2.27-15.3-8.62c-0.62-2.11-0.91-11.09-0.91-27.1
		c0-18.47,1.43-46.35,4.28-84.47c2.85-38.13,7.41-71.56,4.28-86.69c-0.61-2.97-3.15-6.7-4.95-9.61c-2.7-1.53-4.05-2.3-6.75-3.83
		c-6.91-0.24-14.87,0.16-23.85,1.16c-25.21,2.82-46.37,8.59-63.49,17.63c-5.4,2.81-8.09,7.24-8.09,13.32c0,1.66,0.29,3.31,0.89,4.93
		c3.9,11.42,7.2,26.01,9.9,43.69c0.91,5.45,1.36,8.7,1.36,9.79c0,11.76-0.15,22.78-0.45,33.1c-1.26,43.31-1.9,64.66-3.16,106.77
		c-0.89,27.46-1.34,51.55-1.34,72.5c0,11.12,4.79,18.45,14.4,21.96c5.71,2.01,16.21,2.94,31.52,2.58
		c19.8-0.46,38.34-1.67,54.91-2.68c3.25-0.2,10.12-0.68,20.26-1.8c8.36-0.93,15.4-1.45,20.26-1.96c11.54-1.21,19.2-5.21,21.6-10.2
		c4.79-9.41,7.2-27.67,7.2-55.2c0-12.25,2.07-32.93-2.7-45.84C731.22,1472.78,723.49,1468.92,717.49,1469.51z M860.49,1308.5
		c1.5-0.11,8.04-1.67,19.66-4.79c7.44-2,17.19-1.59,29.25,1.21c12.05,2.81,20.76,3.43,26.12,1.92c14.3-4.02,21.45-17.07,21.45-39.17
		c0-9.41-0.53-17.45-1.8-23.79c-0.83-4.12-1.36-7.15-1.36-8.91c-1.2-18.57-5.98-28.91-11.7-28.54c-22.79,1.5-46.21,9.72-61.22,13.84
		c-1.2,0.33-4.66,1.06-10.36,2.17c-5.71,1.11-9.45,1.87-11.24,2.34c-17.83,4.76-26.75,7.06-44.58,11.49c2.41-0.6-1.5,0.7-11.7,3.77
		c-20.71,6.21-35.56,13.8-44.56,23.16c-2.7,5.89-4.06,11.91-4.06,18.07c0,6.75,1.96,15.54,5.86,26.31
		c4.19,11.59,6.31,20.36,6.31,26.43c-1.09,45.47-1.63,67.85-2.71,111.88c-1.2,47.52-1.79,82.47-1.79,106.01
		c0,17.87,6.44,27.11,19.35,27.88c6.6,0.37,21.6-1.65,45.01-6.36c42.02-8.45,70.08-14.62,84.19-17.7c1.5-0.33,2.84-0.62,4.04-0.88
		c1.44-0.32,2.17-0.47,3.61-0.79c9.01-1.98,17.25-5.5,24.76-10.6c7.8-13.39,11.7-34.43,11.7-63.14c0-2.3,0.29-7.39,0.89-15.32
		c0.6-7.91,0.91-13.04,0.91-15.35c0-3.73-0.46-7.66-1.36-11.76c-0.89-4.1-2.85-7.92-5.86-11.47c-2.99-3.55-5.84-4.97-8.54-4.27
		c-3.32,0.86-14.26,7.65-32.86,20.03c-18.61,12.39-32.57,19.54-41.88,21.77c-7.2,1.72-12.3,1.64-15.3-0.18
		c-4.5-2.89-6.75-9.65-6.75-20.39c0-16.94,2.99-26.21,9.01-27.69c5.1,1.3,11.7,2.95,19.8,4.93c12.91,3.05,23.87,3.42,32.88,1.12
		c4.19-1.07,8.14-4.96,11.7-11.63c3-5.63,4.79-10.75,5.4-15.23c0-2.6,0-3.9,0-6.49c0-4.61,0.29-11.7,0.89-21.29
		c0.6-9.57,0.91-16.7,0.91-21.35c0-9.3-0.89-15.31-2.68-18.02c-2.96-4.44-8.46-5.54-16.46-3.35c-5.34,1.46-14.11,6.4-26.28,14.67
		c-12.17,8.29-20.47,12.93-24.92,14.07c-2.37,0.61-4.76,0.34-7.13-0.78c-2.08-7.26-3.11-13.5-3.11-18.69
		C843.98,1322.37,849.48,1314,860.49,1308.5z M1312.62,1292.75c-3.01,0.77-10.97,8.84-23.87,24.22
		c-12.91,15.4-23.56,24.15-31.97,26.33c-23.41,6.07-35.11-14.84-35.11-62.5c0-10.16-1.31-26.57,1.8-41.03
		c1.72-7.97,5.24-13.93,5.86-15.02c2.7-5.37,6.29-8.71,10.79-10c0.6-0.17,8.11,4.46,22.51,14.15c14.4,9.69,26.4,13.37,36,10.8
		c2.41-0.64,4.06-1.23,4.97-1.79c5.4-4.86,8.83-11.52,10.35-20c0.6-3.25,1.03-10.39,1.36-21.3c0.84-28.05,1.34-44.33,1.34-48.95
		c0-18.74-0.78-32.63-2.25-41.65c-1.81-11.09-17.55-12.61-47.26-3.97c-86.43,25.13-129.65,107.96-129.65,246.34
		c0,51.19,10.05,89.4,30.16,115.51c11.39,15.03,31.21,21.38,59.43,19.05c3.59-0.19,5.84-0.39,6.74-0.59
		c20.42-4.61,37.52-13.61,51.34-27.21c4.19-4.13,8.85-9.96,13.96-17.49c18.9-27.89,28.36-62.53,28.36-103.14
		c0-10.46-0.31-17.17-0.89-20.2C1323.57,1298.3,1318.91,1291.15,1312.62,1292.75z M1559.31,1135.36
		c4.81,20.78,7.18,50.75,7.18,90.13c0,94.21-20.97,159.8-62.9,193.89c-12.87,10.53-30.99,14.28-54.34,18.49
		c-19.78,3.56-35.64,1.76-47.62-5.43c-29.35-17.23-46.73-54.23-52.13-110.86c-1.49-15.86-2.23-26.6-2.23-32.28
		c0-53.76,8.66-104.02,26.05-150.96c17.91-48.33,48.36-78.32,91.19-86.13c24.27-4.42,42.69-0.66,55.27,11.03
		C1539.24,1081.5,1552.46,1105.77,1559.31,1135.36z M1484.57,1215.11c0-36.53-9.45-53.26-28.36-50.47
		c-5.41,0.8-10.42,4.91-14.87,11.85c-6.02,9.39-9.01,32.2-9.01,68.8c0,17.19,1.05,29.64,3.16,37.21
		c3.9,14.61,11.7,20.34,23.41,19.11c11.1-1.17,18.42-7.49,22.05-18.83c2.36-7.36,3.61-18.06,3.61-31.97
		C1484.57,1236.48,1484.57,1229.34,1484.57,1215.11z M1906.38,1071.72c0-11.76-10.96-20.41-32.86-24.57
		c-2.7-0.51-15.6-1.82-38.72-2.49c-6.31-0.25-10.81-0.34-13.51-0.34c-15,1.04-24.3,5.6-27.91,13.15
		c-5.71,18.2-9.16,30.79-10.35,37.64c-3.92,21.16-6.71,37.25-8.56,48.01c-2.91,16.98-6.91,32.76-11.7,47.13
		c-1.2,1.26-2.25,1.85-3.15,1.79c-0.91-0.06-1.51-0.77-1.8-2.13c-5.41-17.06-9.61-41.31-12.61-72.58
		c-3.3-34.27-6.79-58.21-10.35-72.07c-2.71-10.56-10.52-16.1-23.41-16.24c-3.32-0.04-11.16,0.51-23.41,1.97
		c-26.34,3.14-48.71,7.6-66.63,12.42c-18.85,5.07-28.36,16.47-28.36,33.5c0,4.51,0.94,9.76,2.7,15.7c2.13,7.2,3.39,12.1,3.59,14.27
		c0.95,10.21,0.87,17.81,0.91,21.34c0.3,27.6,0.89,45.11,0.89,51.34c0,15.74-0.15,39.58-0.45,71.79
		c-0.31,32.22-0.45,56.55-0.45,72.68c0,31.26,0.35,56.77,0.89,76.13c0.32,11.52,2.7,19.55,7.2,23.93c10.5,3.94,16.81,5.97,18.9,5.96
		c15.61-0.09,28.57-2.74,38.72-8.12c6.9-3.65,10.36-12.05,10.36-25.08c0-13.36-1.13-33.46-3.39-60.14
		c-2.25-26.68-3.37-46.49-3.37-59.61c0-1.35,0.14-4.3,0.45-8.84c0.29-4.52,0.45-7.46,0.45-8.81c0-1.35-0.3-4.06-0.89-8.05
		c-0.6-4.02-0.91-6.54-0.91-7.54c0-2.68,0.76-5.85,2.25-9.54c1.49-3.68,3.16-5.51,4.95-5.5c1.2,0,1.96,0.85,2.25,2.52
		c1.8,8.71,2.85,14.92,3.16,18.61c3.3,19.84,5.69,34.05,7.2,42.53c4.19,28.43,7.2,50.15,9.01,64.84
		c6.6,43.84,13.98,66.92,22.05,68.6c10.46,2.17,18.9,3.44,25.21,3.79c16.5,0.91,25.8-1.5,27.91-7.52c3.27-9.34,5.5-15.93,6.31-19.57
		c1.61-7.24,2.54-12.46,3.15-15.15c5.22-29.93,7.84-44.81,13.06-74.39c4.79-27.32,9.74-51.39,14.85-72.32
		c1.5-6.54,3.61-10.68,6.31-12.36c3.53,1.72,5.29,5.36,5.37,10.85c-0.06,0.07-0.2,1.34-0.42,3.81c-1.2,16.97-1.96,28.84-2.25,35.54
		c-3.01,43.78-4.5,85.53-4.5,125.12c0,9.56,1.05,16.67,3.13,21.32c1.19,2.51,3.71,5.25,7.58,8.21c3.85,2.97,6.98,4.57,9.35,4.84
		c31.5,3.46,52.74,2.78,63.74-3.27c4.16-9.47,6.24-15.84,6.24-19.2c0-14.12,0-21.17,0-35.26c-0.29-10.44-0.45-22.18-0.45-35.22
		c0-20.07,0.15-50.18,0.45-90.13c0.29-39.94,0.45-69.71,0.45-89.48c0-7.93,0.39-19.71,1.13-35.3c0.75-15.62,1.12-27.33,1.12-35.19
		c0-1.97-0.15-5.95-0.45-11.9C1906.52,1077.17,1906.38,1073.37,1906.38,1071.72z M2127.41,1373.89c-2.99-5.84-5.84-9.34-8.54-10.46
		c-3.32-1.38-14.26-1.89-32.86-0.33c-18.61,1.57-32.57,1.38-41.88-1.59c-7.2-2.3-12.31-5.3-15.3-9.1
		c-4.5-5.88-6.75-14.92-6.75-27.16c0-19.32,2.99-28.02,9.01-26.04c5.1,4.56,11.7,10.44,19.8,17.71
		c12.91,11.47,23.87,18.93,32.88,22.34c4.19,1.59,8.16-0.05,11.7-4.82c3-4.04,4.79-8.31,5.4-12.72c0-2.79,0-4.19,0-6.98
		c0-4.95,0.29-12.36,0.89-22.18c0.6-9.8,0.91-17.18,0.91-22.12c0-9.91-0.89-16.95-2.68-21.16c-2.96-6.92-8.46-12.2-16.46-15.65
		c-5.34-2.3-14.12-3.33-26.28-2.58c-12.16,0.75-20.47,0.6-24.92-0.99c-2.37-0.85-4.76-2.66-7.13-5.4
		c-2.08-9.38-3.11-16.95-3.11-22.71c0-12.49,5.5-18.25,16.52-16.88c1.5,0.88,8.04,3.51,19.66,8.27
		c7.44,3.05,17.19,10.47,29.25,22.39c12.05,11.92,20.76,19.25,26.12,21.81c14.3,6.83,21.45-0.83,21.45-23.61
		c0-9.7-0.54-18.46-1.8-26.02c-0.84-5-1.36-8.5-1.36-10.31c-1.2-20.13-5.22-34.33-11.7-39.29c-22.19-16.99-46.21-27.25-61.22-33.95
		c-1.2-0.54-4.66-2.32-10.36-5.25c-5.71-2.93-9.45-4.74-11.24-5.48c-17.83-7.39-26.75-10.78-44.58-17.01
		c2.41,0.84-1.49-0.26-11.7-3.01c-20.71-5.59-35.56-5-44.56,0.72c-2.7,5.13-4.06,11.12-4.06,17.98c0,7.51,1.96,18.29,5.86,32.37
		c4.19,15.14,6.31,26.16,6.31,33.03c-1.09,50.9-1.63,76.47-2.71,127.88c-1.2,55.47-1.79,97.9-1.79,126.86
		c0,21.98,6.44,36.16,19.35,42.7c6.6,3.31,21.6,7.23,45.01,12.68c42.02,9.78,70.08,18.24,84.19,22.52c1.5,0.45,2.84,0.86,4.04,1.23
		c1.44,0.44,2.17,0.67,3.61,1.11c9.01,2.79,17.25,3.58,24.77,2.41c7.8-9.98,11.7-29.99,11.7-60.45c0-2.44,0.29-7.65,0.89-15.64
		c0.6-7.97,0.91-13.17,0.91-15.61c0-3.94-0.46-8.4-1.36-13.34C2132.38,1385.13,2130.42,1379.73,2127.41,1373.89z"/>
	<path d="M830.16,1649.9c0,3.79-0.33,9.41-0.98,16.75c-0.65,7.36-1,12.93-1,16.68c0,5.9,0,8.84,0,14.72c0,2.59,0.34,5.58,0.5,8.55
		c0.17,3.26,0,5.45,0,6.02c0,21.51-6.55,33.01-19.63,34.7c-4.57,0.59-11.45-1.9-20.61-7.41c-9.16-5.51-16.19-8.04-21.09-7.68
		c-5.57,2.42-8.34,6.66-8.34,12.73c0,15.48,0.15,38.49,0.48,68.49c0.33,30,0.5,52.06,0.5,66.75c0,4.98,1.05,12.33,3.18,22.02
		c2.13,9.69,3.2,16.86,3.2,21.52c0,15.79-9.99,25.2-29.92,28.22c-4.26,0.76-22.57,1.14-54.94,1.15c-6.68,0-10.01,0-16.69,0
		c-10.47-4.26-15.69-12.29-15.69-24.19c0-1.01,0.15-3.8,0.48-8.37c0.33-4.57,0.5-7.63,0.5-9.17c0-0.51-0.17-1.52-0.5-3.06
		c0-1.22,0-1.83,0-3.05c0-3.83,0.5-10.35,1.48-19.61c1.31-12.37,2.07-21.64,2.46-27.57c1.43-21.67,4.07-54.18,7.36-98.19
		c-1.31-1.86-1.49-6.18-0.98-12.56c0.42-5.29-1.32-9.19-4.92-11.3c-6.2,0.1-14.3,3.97-24.28,11.47
		c-9.97,7.5-17.91,11.21-23.79,11.22c-9.49,0.03-14.23-9.31-14.23-28.21c0-0.54,0.34-2.45,0.5-5.28c0.16-2.8,0-5.67,0-8.11
		c0-11.22,0-16.86,0-28.18c0-2.46,0.16-5.51,0-8.62c-0.16-3.14-0.5-5.36-0.5-6.18c0-17.56,5.13-28.09,9.31-31.97
		c2.98-2.76,37.78-6.3,104.49-9.66c63.45-3.2,101.23-10.59,113.32-8.42C826.73,1625.51,830.16,1634.14,830.16,1649.9z
		 M1099.96,1821.37c2.61,10.27,3.92,20.54,3.92,30.74c0,26.31-4.4,48.52-13.23,65.97c-11.69,23.1-29.44,34.3-52.98,34.36
		c-8.18,0.02-14.88-1.37-20.12-4.13c-16.34-8.26-27.59-22.35-32.38-41.65c-2.77-11.19-6.7-28.58-12.25-51.21
		c-0.33-0.28-2.13-3.03-5.4-8.24c-2.29-3.45-4.91-5.05-7.85-4.82c-4.59,0.36-7.46,4.72-8.83,12.76c-0.61,3.6-0.98,8.69-0.98,15.22
		c0,5.33,0.5,13.25,1.48,23.7c0.98,10.47,1.48,18.35,1.48,23.67c0,7.39-0.47,13.19-1.48,17.28c-1.88,7.64-14.4,11.57-37.28,11.73
		c-1.98,0.01-6.98,0.34-14.97,0.95c-8.01,0.61-13.16,0.93-15.45,0.95c-13.1,0.07-20.28-3.75-21.59-11.45
		c-0.33-0.55-0.5-10.01-0.5-28.59c0-22.74,0.74-57.18,2.22-104.36c1.46-47.18,2.2-83.3,2.2-107.28c0-4.4-1.89-11.27-5.64-20.61
		c-3.76-9.34-5.64-16.65-5.64-21.93c0-6.47,2.77-12.71,8.34-18.78c8.16-8.9,19.28-16.53,33.36-22.92
		c3.59-1.61,16.34-6.19,38.26-14.02c2.16-0.81,3.24-1.21,5.4-2.02c3.94-1.42,7.82-3.09,11.29-4.19c12.12-3.84,20.61-5.23,22.57-5.64
		c4.9-1.03,13.75-1.98,26.48-2.76c31.03-1.9,55.3,3.52,72.61,16.52c18.95,14.24,28.46,36.63,28.46,66.41
		c0,26.83-7.05,52.07-21.1,74.98c-4.25,7.04-12.6,16.53-25.02,28.21c-7.53,7.28-11.27,12.43-11.27,15.59
		c0,5.71,2.94,10.45,8.83,14.31c5.88,3.85,12.08,5.49,18.63,4.84c1.31-0.13,3.35-0.72,6.14-1.81c2.78-1.07,4.83-1.69,6.14-1.82
		C1090.96,1800.61,1096.35,1807.24,1099.96,1821.37z M1003.33,1710.67c0-18.05-8.68-25.65-26-22.79c-3.94,0.65-6.38,1.2-7.36,1.67
		c-8.51,3.87-12.77,13.55-12.77,29.05c0,4.93,0,7.39,0,12.31c0,7.59,7.85,10.31,23.56,8.13c6.86-0.95,12.34-4.11,16.43-9.5
		C1001.28,1724.13,1003.33,1717.84,1003.33,1710.67z M1355.3,1516.44c-5.4-3.28-13.97-3.79-25.74-1.5
		c-1.65,0.32-8.23,2.27-19.63,5.97c-24.16,7.84-40.23,17.85-48.09,29.48c-0.98,4.73-1.46,9.18-1.46,13.36
		c0,2.09,1.79,9.57,5.4,22.59c0.65,5.13,1.13,8.73,1.46,10.77c2.61,23.05,3.94,48.43,3.94,76.08c0,24.11-1.1,51.06-2.96,80.46
		c-1.38,21.85-2.13,33.13-2.44,33.49c-1.96,10.93-9.66,16.96-23.06,18.12c-10.47,0.9-15.69-5.85-15.69-20.25
		c0-10.51-1.33-18.23-1.96-21.85c-2.78-16.03-1-33.76-1-44.91c0-15.69,0.57-39.4,1.72-71.12c1.15-31.72,1.72-55.3,1.72-70.8
		c0-15.52-0.17-23.72-0.48-24.7c-2.3-12.23-12.27-16.49-29.94-12.73c-4.24,0.9-9.86,2.92-16.67,5.58
		c-8.34,3.25-14.06,5.19-16.69,6.08c-28.12,9-42.17,20.41-42.17,34.26c0,3.29,1.07,7.43,2.94,12.28c2.33,6.05,3.59,10.21,3.92,12.13
		c2.29,11.82,3.44,28.86,3.44,51.1c0,12.28-0.65,30.91-1.96,55.85c-1.31,24.93-1.96,43.52-1.96,55.79c0,32.57,0.98,61.21,2.94,86.1
		c4.9,62.35,39.25,94,103.01,93.84c21.91-0.05,43.88-3.29,65.74-10.19c32.33-10.21,50.83-43.35,55.44-97.91
		c2.27-26.91,3.44-59.75,3.44-98.12c0-11.92,0-29.76,0-53.4c0-23.64,0-41.24,0-52.96c0-32.97,0.09-54.79,1.22-64.72
		c1.84-16.25,3.68-28.32,3.68-34.83C1363.39,1527.52,1360.69,1519.73,1355.3,1516.44z M1598.88,1782.19
		c-3.28-5.93-6.38-8.86-9.33-8.86c-3.59,0-15.54,5.29-35.8,15.98c-20.28,10.71-35.49,16.14-45.63,16.22
		c-7.85,0.06-13.41-1.67-16.67-5.16c-4.92-5.44-7.37-15.62-7.37-30.46c0-23.43,3.26-35.1,9.81-35.2c5.57,3.4,12.75,7.78,21.59,13.15
		c14.06,8.43,26,12.66,35.82,12.61c4.57-0.02,8.88-3.97,12.75-11.81c3.28-6.64,5.22-12.93,5.89-18.8c0-3.51,0-5.27,0-8.77
		c0-6.23,0.31-15.69,0.98-28.29c0.65-12.61,0.98-22,0.98-28.19c0-12.34-0.98-20.61-2.92-24.84c-3.23-6.9-9.21-10.29-17.94-10.16
		c-5.83,0.09-15.36,3.6-28.63,10.58c-13.25,6.97-22.31,10.54-27.15,10.66c-2.59,0.06-5.19-1.01-7.77-3.23
		c-2.27-10.25-3.4-18.77-3.4-25.62c0-14.81,6.02-24.08,18.01-27.87c1.63,0.33,8.77,0.3,21.41-0.03c8.11-0.21,18.75,3.53,31.88,11.33
		c13.13,7.8,22.63,11.79,28.48,11.74c15.57-0.11,23.36-14.56,23.36-43.19c0-12.22-0.57-22.78-1.96-31.41
		c-0.91-5.65-1.48-9.66-1.48-11.95c-1.31-24.23-6.32-39.08-12.75-40.64c-23.42-5.68-50.37-3.27-66.72-2.61
		c-1.31,0.05-5.08-0.08-11.29-0.37c-6.19-0.28-10.29-0.37-12.25-0.28c-19.43,0.93-29.14,1.48-48.57,2.69
		c2.61-0.16-1.63,0.57-12.75,3.2c-22.57,5.33-38.75,13.55-48.57,24.36c-2.94,7.07-4.42,14.4-4.42,22.03
		c0,8.38,2.13,19.49,6.38,33.48c4.57,15.03,6.87,26.53,6.87,34.31c-1.18,58.12-1.77,87.53-2.96,147.03
		c-1.31,64.21-1.96,113.7-1.96,147.46c0,25.62,7.03,40.81,21.1,45.5c7.18,2.34,23.55,3.46,49.05,3.45
		c45.78-0.02,76.36-0.02,91.74-0.02c1.63,0,3.11,0,4.42,0c1.57,0,2.35,0,3.92,0c9.81,0,18.8-2.42,26.98-7.27
		c8.51-16.52,12.75-44.88,12.75-84.69c0-3.2,0.33-10.17,0.98-20.87c0.65-10.72,1-17.64,1-20.83c0-5.14-0.5-10.67-1.48-16.6
		C1604.27,1794.03,1602.14,1788.1,1598.88,1782.19z"/>
</g>
</svg>
