<?xml version="1.0" encoding="utf-8"?>
<!-- Generator: Adobe Illustrator 25.0.1, SVG Export Plug-In . SVG Version: 6.00 Build 0)  -->
<svg version="1.1" id="Layer_1" xmlns="http://www.w3.org/2000/svg" xmlns:xlink="http://www.w3.org/1999/xlink" x="0px" y="0px"
	 viewBox="0 0 2400 2400" style="enable-background:new 0 0 2400 2400;" xml:space="preserve">
<g>
	<path transform="translate(0.000000,2400.000000) scale(0.100000,-0.100000)" d="M5497,18769c-598-63-1212-362-1812-880
		c-127-110-405-394-514-524c-554-665-934-1424-1171-2340c-127-492-182-884-182-1310c0-647,123-1151,373-1525c77-114,225-271,338-355
		c166-125,397-226,631-276c92-20,134-23,350-24c262,0,308,5,514,56c161,40,282,86,461,174c231,114,428,245,670,446
		c128,106,472,450,599,599c94,109,346,421,393,485l22,30l1-715c0-393-5-868-10-1055c-10-335-34-827-46-935l-6-55l-166-135
		c-91-74-331-267-532-429c-664-535-951-782-1230-1061c-789-787-1283-1631-1385-2365c-25-177-17-425,19-559c67-259,204-435,418-541
		c160-78,218-89,468-89c208,0,219,1,330,31c203,54,367,130,568,263c556,369,1062,1095,1461,2098c305,765,489,1603,574,2612l12,144
		l145,124c600,513,1041,948,1360,1342c356,441,615,859,763,1235c61,155,89,249,121,404l21,103l90,33c108,39,239,97,363,159
		c51,26,92,44,92,40c0-3-40-96-89-207c-473-1072-802-2113-902-2849c-26-194-37-580-20-725c33-285,126-498,273-628
		c62-54,205-127,298-152c51-14,105-18,255-18c219,0,281,13,441,90c386,187,774,709,1130,1523c27,61,52,112,55,112s9-37,13-82
		c11-129,53-321,97-437c138-367,390-554,777-577c198-12,375,23,548,106c371,179,707,637,916,1250c116,342,167,654,175,1092l6,277
		l128,76c70,41,205,127,299,190c102,68,169,108,166,97c-16-52-90-371-120-524c-138-686-180-1260-117-1619c39-224,126-436,231-566
		c238-293,733-403,1166-258c184,61,358,179,550,370c229,228,391,457,549,775c253,508,397,1084,422,1677l6,161l66,49
		c104,76,264,206,419,340c98,85,142,118,142,105c0-9-13-119-30-242c-118-899-182-1624-210-2380c-25-687-30-943-17-969
		c7-16,36-38,72-56c57-29,66-30,190-30c120,0,134,2,187,27c31,14,63,37,71,50c8,12,18,61,21,108c15,200,93,630,188,1030
		c161,686,404,1367,678,1905c83,162,179,329,186,323c2-3,11-117,19-254c29-482,83-1061,146-1554c75-594,72-577,98-604
		c38-41,112-60,226-61c114,0,187,20,229,62c30,30,33,79,15,223c-33,263,116,895,327,1396c200,473,503,976,734,1218
		c64,67,185,166,203,166s49-144,54-250c15-336-80-753-487-2145c-267-911-379-1346-479-1855c-86-437-115-701-115-1020
		c0-452,54-628,212-703c62-29,77-32,188-35c249-8,321,40,523,342c448,671,1088,1950,1366,2731c78,219,76,211,57,234
		c-47,53-220,54-266,2c-7-9-55-108-106-221c-339-752-906-1795-1308-2405c-122-185-125-189-134-160c-12,40-2,355,17,541
		c32,308,110,728,220,1194c76,321,140,560,325,1215c325,1148,412,1499,466,1870c25,167,25,454,1,550c-47,187-132,281-302,331
		c-82,25-284,25-375,1c-86-23-198-77-279-134c-249-176-581-645-877-1237c-62-125-116-222-118-215c-5,16-29,297-51,599
		c-24,322-42,437-79,509c-77,149-374,198-583,95c-124-60-244-197-396-449c-65-107-163-299-356-695l-21-45l5,75c4,41,26,244,51,450
		c71,600,76,650,72,745c-5,112-26,158-89,197c-70,44-158,61-274,55c-201-10-264-46-625-356c-134-116-247-207-251-203
		c-3,4-14,36-24,72c-91,338-323,580-654,684c-146,46-249,60-446,60c-202,0-331-20-498-75c-302-101-596-333-767-606
		c-36-56-51-72-75-77c-56-11-150-63-280-156c-173-123-526-362-530-358c-1,2-17,61-34,131c-104,416-303,697-601,847
		c-315,158-749,160-1078,5c-135-64-225-128-337-240c-121-121-209-243-281-390c-128-263-155-510-79-728l25-74l-24-94
		c-95-362-414-1168-670-1694c-168-344-307-576-485-805c-83-108-268-298-346-357c-65-49-165-103-190-103c-28,0-101,57-138,107
		c-111,154-157,333-164,654c-6,219,4,379,38,609c94,654,388,1624,784,2590c53,129,118,289,145,355c107,261,103,332-18,392
		c-49,24-72,28-164,32c-166,5-206-8-545-181c-160-81-296-148-302-148s-11,8-11,17c0,45-37,159-82,252c-44,91-61,116-137,191
		c-140,140-257,185-476,184c-103,0-146-5-208-22c-195-55-347-174-427-332c-48-95-63-162-58-264c6-118,35-182,118-260
		c137-127,358-184,671-174l150,5l-7-31c-3-17-21-76-39-131c-216-659-840-1490-1710-2279c-107-96-161-140-163-129c-2,8,1,175,7,371
		c13,429,14,1829,1,2137c-11,258-22,308-78,355c-93,77-318,90-458,26c-72-33-134-102-330-363c-372-499-663-837-942-1097
		c-517-481-1028-745-1402-723c-287,17-592,212-782,500c-236,360-349,829-351,1452c0,415,45,765,159,1233c229,937,631,1744,1194,2395
		c658,762,1554,1264,2134,1197c315-37,552-202,695-486c148-295,185-668,111-1123c-105-643-402-1266-852-1787
		c-203-235-444-425-569-449c-74-14-184,98-231,234c-20,57-23,86-23,211c0,162,13,219,84,355c44,86,125,175,143,157
		c20-20,58-14,67,11c5,12,21,33,35,46c14,14,26,30,26,37c0,42-159,59-270,29c-127-34-252-118-334-223c-278-362-230-833,102-1001
		c105-53,192-73,348-78c365-14,609,101,959,452c591,592,971,1386,1046,2189c15,158,7,425-16,556c-114,641-509,1006-1175,1085
		C5847,18781,5626,18783,5497,18769z M8438,14435c108-97,174-241,194-421c6-56,9-108,5-116c-11-31-238-58-328-39
		c-69,15-128,61-160,129c-19,38-24,62-23,127c2,131,61,252,160,327C8351,14492,8376,14491,8438,14435z M15835,14149
		c135-41,261-147,345-288c78-131,141-354,156-554l7-83l-109-71c-417-269-856-418-1104-373c-282,50-403,279-320,605
		c79,309,380,645,674,752C15603,14180,15720,14184,15835,14149z M12453,13980c231-71,441-348,533-700c26-98,61-300,66-380l3-45
		l-105-53c-216-108-444-195-650-249c-114-30-153-36-250-37c-105-1-120,1-171,25c-77,37-149,112-197,208c-97,193-79,437,52,706
		c114,233,277,412,452,495C12297,14003,12356,14010,12453,13980z M16320,12692c-76-621-281-1205-578-1652c-205-307-464-566-669-667
		c-125-62-200-53-319,35c-132,97-247,343-291,624c-24,153-24,575,1,803c24,226,79,585,118,767l10,48l36-19c59-30,190-68,292-84
		c406-66,890,13,1309,214c53,25,98,42,100,36C16331,12792,16327,12745,16320,12692z M13065,12388c-26-450-105-806-257-1163
		c-192-450-483-823-731-935c-55-25-88-25-140,1c-130,67-257,281-318,535c-49,209-75,554-66,899c7,258,26,576,36,587c3,4,40-1,81-12
		c181-47,458-51,700-9c153,26,382,91,555,157c72,28,134,51,138,51C13068,12500,13069,12449,13065,12388z M6040,9858
		c-49-383-118-751-210-1113c-309-1218-912-2341-1520-2832c-225-181-469-303-607-303c-159,0-325,183-393,435c-31,114-38,356-16,519
		c111,794,726,1745,1677,2591c336,299,1082,904,1087,881C6060,10028,6052,9948,6040,9858z"/>
</g>
</svg>
