<?xml version="1.0" encoding="utf-8"?>
<!-- Generator: Adobe Illustrator 25.2.0, SVG Export Plug-In . SVG Version: 6.00 Build 0)  -->
<svg version="1.1" id="Layer_1" xmlns="http://www.w3.org/2000/svg" xmlns:xlink="http://www.w3.org/1999/xlink" x="0px" y="0px"
	 viewBox="0 0 2200 2200" style="enable-background:new 0 0 2200 2200;" xml:space="preserve">
<g>
	<path d="M528.26,777.65c4.03,10.06,6.44,30.05,6.44,60.63c0,76.45-10.46,127.49-30.59,155.97c-10.46,14.67-25.77,21.17-45.09,19.94
		c-3.21-0.2-8.18-0.43-15.28-1.96c-5.57-1.2-10.48-1.7-12.89-1.04c-16.43-0.7-24.64-1.19-41.07-2.45
		c-24.96,0.53-57.26-3.12-96.61-12.27c-67.54-15.7-99.84-28.44-97.43-27.7C128.1,947.92,94.28,906.73,94.28,855.99
		c0-11.26,7.17-28.73,21.74-53.96c15.8-27.34,25.77-49.07,28.18-63.36c10.47-63.62,16.51-129.34,16.11-194.57
		c-0.39-64.31-8.86-104.27-24.16-118.72c-4.83-2.85-12.79-7.35-20.13-13.85c-6.4-5.67-9.67-16.15-9.67-28.33
		c0-21.94,13.84-38.38,41.87-48.94c23.3-8.77,51.64-13.91,85.36-13.03c47.33,1.24,81.38,7.75,100.64,19.61
		c16.69,10.28,24.96,25.16,24.96,45.42c0,35.89-26.76,36.06-35.42,60.96c-8.95,25.72-14.5,61.55-14.5,108.16
		c0,65.44,0.81,101.05,1.61,108.26c12.08,82.42,29.79,125.75,53.13,128.39c15.3,1.73,30.6-2.12,45.09-11.7
		c21.74-13.47,36.23-22.62,43.48-25.8c14.49-5.49,24.97-8.66,32.2-8.35c7.25,0.32,13.69,3.32,20.94,9.01
		C518.6,765.62,525.85,773.06,528.26,777.65z M1001.73,457.8c35.96,75.81,53.94,160.32,53.94,260.78
		c0,68.6-25.73,131.48-76.48,189.3c-47.83,54.49-106.29,90.38-174.72,103.37c-76.5,14.52-138.04-13.67-183.59-78.14
		c-41.1-58.18-61.99-133.58-61.99-223.16c0-98.72,20.91-186.29,62.81-262.8c48.16-87.91,113.52-133.85,195.64-133.85
		C897.05,313.31,958.13,365.89,1001.73,457.8z M879.34,636.68c0-38.44-8.05-80.43-23.33-126.7c-19.33-58.47-43.48-88.23-71.66-86.95
		c-16.92,0.77-29.54,15.7-38.66,44.34c-6.84,21.47-10.46,45.08-10.46,70.13c0,41.73,5.78,81.13,17.72,115.96
		c16.19,47.26,39.45,66.76,70.84,62.14C860.82,710.13,879.34,683.88,879.34,636.68z M1592.78,326.91
		c-18.15-6.04-39.45-9.08-62.81-9.08c-79.71,0-119.96,17.09-119.96,52.64c0,12.76,5.62,21.31,17.72,26.11
		c12.08,4.78,18.51,12.89,18.51,22.98c0,21.52-6.35,47.17-19.33,79.47c-15.07,37.49-32.2,60.57-50.71,67.99
		c-13.69-4.01-28.4-22.47-43.48-54.74c-13.76-29.45-20.68-54.69-21.74-72.34c-1.9-31.78,19.92-54.23,20.92-59.62
		c0.63-3.43,1.61-7.09,1.61-11.98c0-15.42-8.23-26.27-24.97-33.87c-19.23-8.73-53.27-13.7-100.63-14.39
		c-33.72-0.49-62.07,4.19-85.35,13.1c-28.05,10.73-41.89,28.19-41.89,50.17c0,12.21,3.39,22.42,9.67,27.13
		c7.26,5.45,15.3,8.78,20.15,10.87c10.46,7.35,20.13,24.2,29.79,50.16c8.05,22.63,12.08,33.83,20.13,56.05
		c3.21,9.79,16.9,53.65,37.84,128.58c20.13,71.95,38.64,124.79,56.35,158.39c26.58,50.37,56.37,71.83,89.37,65.03
		c10.48-2.16,23.47-7.06,37.84-14.53c18.48-9.61,31.4-19.81,38.66-30.29c17.72-26.93,42.53-95.85,74.07-197.66
		c35.16-113.52,62.81-181.58,82.14-214.22c2.41-4.66,13.32-13.21,31.41-25.12c14.41-9.5,22.03-20.69,21.74-32.86
		C1629.43,348.18,1616.69,334.87,1592.78,326.91z M2103.31,744.13c-1.2-22.64-1.61-36.63-1.61-42.26
		c0-18.46-13.69-49.23-29.79-52.96c-5.64-1.31-12.89,3.35-21.74,13.79c-8.85,10.41-19.33,14.1-33.02,11.14
		c-2.41-0.52-5.62-1.21-9.67-2.81c-7.23-3.79-24.95-2.01-31.38-3.24c-78.11-14.83-116.75-48.21-116.75-107.22
		c0-24.88,8.85-36.93,25.77-35.4c15.28,1.38,26.45,8.68,33.82,21.37c7.61,13.1,16.1,20.09,24.95,21.23
		c13.69,1.77,23.58-8.03,30.61-29.31c4.9-14.83,7.25-31.87,7.25-48.97c0-11.16-4.05-16.75-12.1-17.48
		c-8.85-0.8-22.54,14.08-31.38,13.29c-21.74-1.94-40.31-7.71-55.56-17.26c-17.71-11.09-26.58-24.15-26.58-39.53
		c0-3.49,0.82-6.26,1.62-9.72c2.41-8.97,5.64-14.43,11.28-16.33c7.09,0.27,10.63,0.41,17.72,0.71c38.64,1.6,67.63,9.55,87.76,23.45
		c8.05,5.71,19.33,17.55,34.61,37.88c10.48,13.83,22.56,21.33,37.04,23.06c15.3,1.82,27.23-3.83,35.43-16.12
		c6.54-9.8,9.66-23.56,9.66-40.28c0-26.3-4.76-50.8-14.51-72.97c-12.61-28.69-30.59-42.57-53.94-42.61
		c-16.9-0.03-46.69,1.43-87.76,3.46c-41.07,2.02-70.86,3.26-89.37,3.19c-13.69-0.05-46.84-2.74-59.58-2.89
		c-33.49-0.4-62.04,3.31-85.35,10.39c-28.06,8.52-41.87,22.1-41.87,39.92c0,9.9,3.4,18.39,9.64,22.6
		c7.48,5.06,15.3,8.17,20.15,10.24c9.64,6.15,16.5,21.49,19.31,44.7c1.37,11.34,0,24.37-0.8,39.34
		c-2.57,70.22-3.86,105.94-6.44,178.68c-1.62,43-6.46,70.11-13.69,80.65c-6.12,8.42-9.18,12.66-15.3,21.19
		c-1.61,2.86-8.85,9.88-22.54,22.15c-8.05,7.22-12.08,15.25-12.08,24.74c0,23.38,13.69,35.59,41.05,36.05
		c60.55,1.33,90.83,3.46,151.39,12.08c21.74,2.99,44.34,7.4,67.63,11.38c28.12,4.81,49.92,10.33,66.02,14.62
		c57.97,15.45,91.78,25.89,102.26,22.72c26.56-8.95,40.25-45.95,40.25-111.17C2105.72,785.16,2104.46,765.7,2103.31,744.13z"/>
	<path d="M318.98,1420.06c9.92,12.36,26.05,27.01,26.05,38.74c0,30.73-8.79,47.89-26.05,52.77c-12.99,3.67-48.38,2.07-106.05-10.07
		c-46.51-9.79-76.91-22.42-92.41-36.04c-15.51-13.62-22.96-34.05-22.96-60.66c0-6.21,4.07-11.62,11.79-16.33
		c9.21-5.62,14.88-9.65,16.13-12.27c5.58-9.69,12.93-36.49,21.08-80.51c7.31-39.44,15.26-79.02,16.75-113.39
		c1.65-38.07-6.21-68.35-16.75-81.74c-3.72-3.51-9.67-8.92-15.51-16.3c-5.08-6.4-7.44-15.3-7.44-24.74
		c0-16.99,10.62-25.26,32.24-25.27c17.91-0.01,39.75,3.83,65.75,12.26c36.42,11.8,62.65,22.27,77.52,34.01
		c12.89,10.18,19.22,22.01,19.22,36.67c0,25.98-20.62,22.3-27.28,39.1c-6.89,17.39-11.17,42.33-11.17,77.03c0,1.16,0,1.73,0,2.89
		c3.72,33.87,9.83,70.52,17.37,107.83C305.79,1386.21,312.15,1411.62,318.98,1420.06z M658.86,1275.96
		c-16.75-12.08-47.77-26.28-93.66-45.11c-34.1-13.99-50.86-27.21-50.86-41.11c0-23.16,14.9-34.74,45.29-35.55
		c13.62-0.37,27.81,12.02,42.17,35.47c14.5,23.66,30.39,32.1,46.52,30.58c22.95-2.16,34.72-17.25,34.72-47.3
		c0-53.06-11.15-78.72-33.49-76.96c-13.02,1.03-31.05-0.24-54.57-3.94c-22.9-3.6-40.94-6.12-53.34-6.08
		c-39.07,0.13-71.96,9.44-98.6,28.14c-30.25,21.23-45.27,55.07-45.27,90.06c0,19.49,9.3,40.16,28.52,61.25
		c5.58,6.75,22.95,22.64,51.47,46.62c19.24,15.62,28.54,27.07,28.54,35.52c0,24.8-14.27,36.84-42.79,35.11
		c-16.75-1.01-29.19-4.39-38.46-10.7c-8.57-5.83-17.35-10.06-25.41-10.95c-25.43-2.81-38.45,6.42-38.45,28.9
		c0,44.93,17.39,81.53,52.71,108.67c31.51,24.21,73.18,38.12,124.03,39.14c49.61,0.99,90.57-14.04,122.8-43.91
		c32.57-30.18,48.99-68.96,48.99-115.94C709.7,1334.96,692.95,1300.65,658.86,1275.96z M1166.85,1092.53
		c9.11,16.88,21.72,23.79,36.59,20.09c26.67-6.62,39.69-27.47,39.69-62.62c0-19.13-5.68-37.48-16.12-53.91
		c-12.43-19.57-27.29-27.1-44.64-22.84c-5.6,1.37-14.27,9.67-18.62,11.34c-23.57,7.71-70.09,20.8-139.55,37.97
		c-5.58,1.38-14.25,2.29-26.05,2.03c-11.78-0.26-20.47-0.08-26.05,1.26c-16.12,3.86-30.3,19.46-42.79,45.99
		c-10.95,23.25-16.75,44.06-16.75,62.77c0,18.11,1.51,29.52,4.35,34.88c4.48,8.43,14.25,11.46,29.77,7.75
		c17.97-4.3,32.25-12.74,41.54-24.91c4.35-5.4,9.77-16.3,15.52-31.68c4.09-10.94,8.67-17.13,14.25-18.54c0,0,3.1,0.47,9.3,1.39
		c-0.6,35.61-1.78,58.11-2.47,67.45c-2.76,36.88-8.86,79.29-16.75,126.25c-8.19,48.75-15.5,80.2-21.7,93.01
		c-1.25,3.29-6.8,10.28-16.12,20.91c-7.8,8.89-11.8,16.22-11.8,22.22c0,25.71,7.45,41.47,22.95,47.47
		c15.52,5.99,46.52,4.37,92.41-4.5c57.69-11.15,93.05-21.19,106.05-29.98c17.26-11.65,26.05-34.46,26.05-69.5
		c0-13.37-16.12-23.28-26.05-33.74c-6.2-5.56-11.68-29.08-19.22-66.68c-6.7-33.43-11.77-67.87-16.75-103.37
		c-1.24-8.91-1.86-13.36-3.1-22.25c-3.47-30.73-5.2-46.09-8.68-76.65c4.33-2.98,6.2-4.08,6.2-4.08
		C1147.62,1067.69,1157.49,1075.19,1166.85,1092.53z M1650.64,1064.97c0-29.86,3.1-54.95,9.92-71.32
		c3.72-9.38,9.92-19.4,18.62-29.05c6.74-7.47,9.92-13.72,9.92-18.88c0-26.95-34.12-41.77-101.73-38.16
		c-22.32,1.19-41.7,5.51-58.29,12.42c-22.86,9.52-34.12,23.65-34.12,41.06c0,11.39,5.72,19.65,16.75,24.39
		c11.74,5.04,17.37,16.04,17.37,35.91c0,14.11-6.2,23.77-17.99,28.36c-4.33,1.8-15.5,3.72-34.72,6.35
		c-19.85,2.72-32.87,3.51-38.46,2.53c-11.78-2.53-17.97-11.9-17.97-28.05c0-11.8,5.58-24.68,16.75-36.94
		c11.17-12.26,16.75-22.77,16.75-31.27c0-28.54-34.12-37.86-101.71-23.78c-22.95,4.78-42.22,12.06-58.31,21.21
		c-22.93,13.05-34.72,28.76-34.72,46.56c0,11.03,3.72,17.53,10.55,20.23c11.15,4.14,17.35,7.01,19.22,8.44
		c6.82,7.66,9.92,22.41,9.3,44.46c-0.25,9.57-0.38,14.36-0.62,23.96c-1.25,0.28-4.92,30.51-11.17,91.56
		c-6.79,66.27-16.12,112.12-27.27,135.65c-1.25,3.47-7.11,10.47-16.75,22.12c-7.47,9.03-11.17,17.04-11.17,23.47
		c0,32.03,12.4,50.2,36.59,55.5c13.02,2.82,39.69,0.56,78.76-6.04c6.2-1.05,14.92-2.49,26.05-3.66c11.78-1.23,19.85-2.52,24.82-3.31
		c26.67-4.2,45.9-11.12,57.67-20.6c15.45-12.44,23.57-35.36,23.57-67.65c0-7.4-4.61-16.53-13.65-25.85
		c-10.53-10.86-16.4-20.11-17.97-25.73c-2.08-7.41-3.1-31.47-3.1-71.11c0-27.28,1.23-44.1,3.72-50.19
		c4.33-14.03,17.35-22.13,37.82-24.37c19.85-2.17,24.19,5.93,24.19,26.89c0,15.08,1.85,37.89,4.95,67.59
		c3.1,29.7,4.97,52.46,4.97,67.96c0,5.38-4.96,14.09-15.5,25.15c-10.21,10.72-15.52,21.17-15.52,30.64
		c0,27.06,13.02,43.42,39.69,49.37c8.07,1.77,31.02,1.55,70.09,1.25c82.48-0.64,123.42-15.06,123.42-49.67
		c0-17.29-11.8-40.12-34.74-68.25C1662.43,1196.27,1650.64,1124.05,1650.64,1064.97z M2093.52,1320.19
		c-0.93-17.66-1.25-28.58-1.25-32.97c0-14.38-10.55-40.01-22.95-44.81c-4.35-1.68-9.92,1.23-16.75,8.96
		c-6.82,7.74-14.87,10.11-25.42,6.68c-1.87-0.61-4.35-1.41-7.45-3.05c-5.57-3.7-19.22-3.33-24.19-4.77
		c-60.16-17.53-89.91-50.31-89.91-105.58c0-23.32,6.8-33.79,19.85-30.56c11.77,2.91,20.33,10.87,26.05,23.29
		c5.88,12.78,12.4,19.87,19.22,21.85c10.55,3.07,18.16-4.51,23.57-22.08c3.79-12.31,5.57-26.71,5.57-41.62
		c0-9.72-3.1-15.37-9.3-17.49c-6.82-2.33-17.37,8.61-24.19,6.52c-16.75-5.12-31.06-12.91-42.79-23.83
		c-13.65-12.7-20.47-27.37-20.47-40.11c0-2.89,0.62-5.08,1.25-7.82c1.85-7.08,4.35-11.13,8.68-11.81c5.46,1.33,8.19,2.01,13.65,3.43
		c29.77,7.73,52.09,20.29,67.61,35.79c6.2,6.32,14.87,18.55,26.67,39.17c8.05,14.04,17.35,22.8,28.52,27.48
		c11.78,4.93,21.08,3.05,27.29-4.42c5-6.01,7.45-15.87,7.45-28.75c0-20.25-3.66-40.58-11.17-60.75
		c-9.74-26.17-23.57-42.62-41.56-49.18c-13.02-4.75-35.97-11.71-67.59-19c-31.64-7.27-54.59-11.13-68.84-14.13
		c-10.55-2.21-36.09-9.11-45.89-10.81c-25.84-4.48-47.81-3.88-65.76,0.5c-21.61,5.28-32.24,16.58-32.24,32
		c0,8.56,2.55,15.97,7.45,19.96c5.72,4.67,11.77,7.82,15.5,9.89c7.45,5.82,12.73,18.68,14.9,41.87c1.06,11.34,0,24.03-0.63,38.7
		c-1.99,68.92-2.98,103.68-4.97,173.85c-1.23,41.48-4.95,67.24-10.53,77.11c-4.72,7.85-7.08,11.8-11.8,19.72
		c-1.23,2.66-6.82,9.11-17.37,20.21c-6.2,6.52-9.3,13.97-9.3,23c0,22.19,10.55,34.54,31.64,36.05c46.63,3.6,69.95,6.09,116.58,12.85
		c16.75,2.33,34.19,5.63,52.11,8.13c21.63,3.01,38.44,6.46,50.84,9.05c44.66,9.32,70.71,13.95,78.78,10.43
		c20.45-9.69,31-39.27,31-89.8C2095.37,1352.1,2094.4,1336.98,2093.52,1320.19z"/>
	<path d="M435.25,1808.79c-6.91-4.6-11.58-9.61-13.91-13.98c-18.04-30.94-36.1-77.47-54.15-141.25
		c-4.63-16.14-8.33-27.07-11.57-32.66c-10.18-17.67-18.05-29.24-23.14-34.35c-11.57-11.19-28.23-19.02-49.98-24.29
		c-12.96-3.13-33.48-3.89-61.55-3.18c-32.68,0.82-49.52,5.81-49.52,15.54c0,1.76,1.9,4.76,6.02,9.06
		c5.09,5.32,8.33,10.3,10.64,14.65c4.17,8.16,6.02,17.16,6.02,28.02c0,27.83-6.37,59.56-18.97,95.64
		c-14.55,41.66-31.98,69.3-51.37,81.46c-16.48,10.33-24.73,25.37-24.53,44.06c0.23,21.01,21.29,31.95,63.86,32.16
		c28.23,0.14,48.13-1.06,58.77-3.96c22.21-5.34,33.32-17.62,33.32-36.71c0-4.99-2.78-10.47-8.79-16.55
		c-8.79-9.09-14.81-15.32-17.12-18.82c-6.02-9.57-8.79-20.84-8.79-33.59c0-17.46,5.55-28.95,17.12-34.29
		c8.79-0.53,12.96-1.03,12.96-1.03c12.03,0.99,23.21,3.7,33.32,7.97c13.2,5.58,20.36,12.84,20.36,21.41
		c0,25.32-6.94,43.69-20.83,55.52c-2.31,7.71-3.24,15.09-3.24,21.23c0,16.82,8.33,27.99,25.45,33.74
		c10.18,3.68,26.84,5.33,49.98,5.39c23.14,0.06,42.64-2.32,58.78-6.41c24.38-6.17,37.71-16.57,38.87-31.26
		c0.75-9.45-0.93-16.94-4.63-22.42C446.36,1817.14,441.98,1813.26,435.25,1808.79z M278.35,1686.66c-1.39-0.95-5.55-1.78-11.57-2.39
		c-3.7-0.38-14.81-0.29-18.51-0.69c-7.87-0.85-12.03-2.59-12.03-5.14c0-5.51,2.3-13.38,7.4-23.27
		c5.95-11.53,11.57-16.73,16.66-16.09c8.79,1.09,15.79,7.81,20.82,19.57c5.58,13.05,8.33,20.79,8.33,22.87
		C289.46,1685.25,285.75,1686.97,278.35,1686.66z M806.06,1604.76c0,16.19-14.81,18.52-20.36,30.66
		c-4.44,7.58-6.66,11.34-11.11,18.82c-6.48,10.47-8.33,21.92-8.33,34.31c0-0.39-0.06,1.28,0,5.2c0.23,14.5,5.6,36.08,14.34,64.51
		c8.38,27.27,12.51,48.57,12.51,63.66c0,20.14-1.85,33.96-6,41.64c-6.5,11.9-19.91,17.92-40.27,17.93
		c-22.67,0.01-43.03-11.82-61.09-35.48c-4.63-6.37-17.11-28.05-37.95-66.74c-12.96-24.12-24.54-36.56-35.17-36.59
		c-3.23-0.01-5.08,2.31-5.08,6.56c0,6.56,2.5,18.24,8.31,35.38c5.65,16.65,10.2,27.06,13.43,30.48c4.25,4.25,6.38,6.37,10.63,10.61
		c4.18,4.15,7.51,8.36,8.35,12.44c0.98,4.76,1.38,9.39,1.38,13.52c0,10.86-5.15,18.88-14.81,23.15c-7.72,3.42-23.68,4.67-43.05,6.32
		c-9.13,0.78-30.52,1.48-62.47,1.46c-12.48-0.01-25.09-2.09-37.95-6.08c-11.39-3.53-18.85-8.59-22.67-14.15
		c-2.83-4.13-5.1-9.59-5.1-15.33c0-2.91,0-4.36,0-7.27c0-3.46,1.85-6.9,6.01-10.29c4.26-3.48,6.39-5.22,10.65-8.69
		c9.26-29.03,15.86-56.39,19.91-81.51c3.3-20.44,5.61-39.32,6.93-56.17c1.93-24.64-2.33-41.15-12.49-48.65
		c-2.8-1.3-7.3-3.28-11.58-6.42c-3.62-2.66-5.55-7.82-5.55-13.81c0-10.79,8.04-18.75,24.07-23.48c12.89-3.81,29.22-5.79,49.05-5.16
		c33.64,1.08,55.28,6.33,64.79,12.76c12.81,8.67,27.64,28.22,39.33,58.79c12.65,33.08,25.46,54.59,37.97,64.6
		c3.23,2.33,6.46,3.05,10.16,1.84c3.7-3.96,5.55-9.88,5.55-17.36c0-2.75-0.45-7.47-1.38-13.4c0-0.79,0-1.18,0-1.97
		c-0.19-0.32-0.28-0.48-0.47-0.8c-0.9-6.32-1.85-13.04-3.23-20.17c-5.08-14.64-13.88-26.05-25.44-34.23
		c-2.8-1.16-7.58-2.88-11.58-5.81c-3.13-2.29-5.08-7.54-5.08-13.56c0-10.85,8.03-19.39,24.07-25.22c12.89-4.69,29.2-7.79,49.04-8.28
		c27.25-0.68,46.45-0.36,57.86,3.53C801.37,1589.43,806.06,1595.6,806.06,1604.76z M1072.29,1755.05
		c0,36.96-12.26,67.83-36.57,91.61c-24.06,23.53-54.59,34.89-91.61,35.01c-37.97,0.13-69.05-8.38-92.56-23.43
		c-26.37-16.88-39.35-40.06-39.35-71.7c0-15.82,9.73-24.5,28.69-25.89c6-0.44,12.58,1.5,18.96,4.72c6.93,3.5,16.21,4.59,28.71,3.71
		c21.27-1.49,31.92-11.49,31.92-30.07c0-6.34-6.95-14.21-21.29-23.7c-21.29-14.7-34.25-23.62-38.4-27.72
		c-14.36-12.56-21.31-25.72-21.31-39.86c0-25.32,11.18-46.89,33.79-65.25c19.88-16.14,44.43-27.17,73.57-32.06
		c9.26-1.55,22.71-2.04,39.82-1.88c17.54,0.17,31-0.34,40.73-2c16.66-2.84,24.97,14.38,24.97,52.08c0,21.35-8.78,33.43-25.92,35.75
		c-12.01,1.63-23.89-5.37-34.7-20.53c-10.68-14.99-21.29-21.98-31.47-20.43c-22.69,3.46-33.79,12.92-33.79,28
		c0,9.06,12.52,17.18,37.97,25.2c34.21,10.79,57.39,20.95,69.87,29.83C1059.78,1694.55,1072.29,1721.32,1072.29,1755.05z
		 M1753.74,1788.17c0,43.63-7.88,72.36-23.14,85.42c-6,4.91-25.46,7.08-58.78,7.06c-9.26-0.01-21.8-0.07-37.93,0.52
		c-13.39,0.49-26.39-0.01-38.87-0.01c-34.8-0.22-52.2-0.33-87-0.55c-15.76,0-23.61-9.44-23.61-27.1c0-7.18,2.3-13.23,6.95-18.74
		c7.86-9.35,12.01-14.87,12.96-17.07c3.51-6.58,5.27-9.87,8.78-16.44c4.18-8.24,6.93-29.08,7.88-62.18
		c1.48-55.98,2.22-83.66,3.7-138.44c0.45-11.7,1.25-21.87,0.45-30.73c-1.63-18.18-5.55-29.91-11.11-34.5
		c-2.78-1.53-7.44-3.96-11.56-7.6c-1.96-1.72-3.39-4.4-4.31-7.69c-0.15,0.17-0.3,0.37-0.47,0.5c-2.77,2.31-7.4,4.38-11.11,7.11
		c-6.93,4.38-13.19,15.1-18.51,31.36c-4.27,13.04-6.93,25.89-8.33,38.02c-5.92,57.01-8.89,85.84-14.81,144.18
		c0,19.43,2.3,32.98,6.48,40.03c7.88,10.26,18.98,22.25,18.98,33.74c0,24.63-3.7,40.67-10.65,48.95
		c-6.95,8.3-23.87,10.42-43.03,14.47c-4.7,0.99-11.58,2.22-19.46,2.24c-31.92,0.09-52.33-0.92-60.61-2.49
		c-10.59-2.01-17.59-6.22-21.29-12.44c-7.86-9.82-12.03-24.75-12.03-44.85c0-7.75,3.23-14.54,10.18-20.53
		c5.74-5,8.61-7.52,14.36-12.57c0.45-1.04,0.9-2.63,0.9-5.21c0-4.69-1.38-13.97-4.15-26.7c-2.96-14.49-4.44-21.7-7.4-36.03
		c-3.7-18.66-4.63-28.23-5.1-29.21c-3.7-13.41-9.01-19.67-15.26-18.84c-7.64,1.01-15.26,18.64-22.67,52.95
		c-6.95,32.23-10.66,50.53-10.66,55.08c0,4.52,0.45,7.52,1.85,9.47c7.86,9.18,18.96,19.97,18.96,30.68
		c0,26.07-5.08,42.64-15.26,49.82c-8.78,6.2-30.1,9.33-62.49,9.94c-5,0.09-16.19,1.04-32.85,1.1c-12.96,0.04-23.26-1.9-28.69-3.22
		c-14.51-3.52-29.15-7.08-35.62-14.7c-5.86-6.89-9.26-17.93-9.26-33.19c0-4.65,2.99-9.82,8.78-15.66
		c6.93-6.99,10.63-11.68,12.03-14.1c3.25-6.7,6.01-16.24,7.4-29.03c0-1.13,0-1.69,0-2.82c0-40.4-2.23-77.41-7.4-110.78
		c-5.89-37.97-13.88-61.04-24.52-70.03c-7.88-4.34-18.51-4.99-18.51-21.04c0-13.32,8.84-24.39,26.37-33.46
		c12.02-6.22,26.37-11.12,43.5-14.11c50.46-8.79,75.42-1.89,75.42,20.87c0,7.25-1.85,13.35-6,17.36
		c-6.95,6.87-11.11,10.87-11.56,12.4c-0.95,2.54-1.4,5.5-1.4,7.92c0,3.36,2.3,11.68,7.4,25.02c9.71,25.8,17.11,38.69,22.67,38.03
		c6.5-0.77,13.43-6.02,20.36-16.24c6.93-10.22,10.75-19.22,11.11-26.6c0.62-12.76-1.38-23.53-6.46-31.17
		c-2.33-3.1-6.95-7.82-14.81-13.97c-5.55-4.54-8.48-9.56-8.8-14.71c-1.44-23.11,19.91-38.9,62.49-45.78
		c17.11-2.77,29.22-3.23,37.02-1.89c13.32,2.3,20.36,10.95,20.36,25.07c0,6.05-3.25,13.1-9.73,20.55
		c-6.48,7.45-9.73,12.44-9.73,15.96c0,6.05,1.85,14.38,6.03,25c4.18,10.63,8.33,18.29,12.03,22.46c5.1,7.05,10.65,14.65,18.06,13.84
		c1.38-0.15,6.46-9.48,15.26-27.51c8.8-18.03,12.96-29.38,12.96-32.98c0-6.18-3.7-10.36-11.56-12.91
		c-7.88-2.57-11.58-9.21-11.58-19.38c0-13.71,7.71-24.82,22.69-34.2c11.05-6.92,23.59-12.47,37.93-13.18
		c35.9-1.78,56.61,6.22,61.96,23.78c3.64-7.68,10.59-14.02,21.04-18.7c13.39-6,29.87-9.3,49.03-9.29
		c7.31,0.01,26.39,1.87,34.27,1.87c10.63,0,27.77-1,51.36-2.15c23.59-1.15,40.73-1.54,50.45-1.16c13.41,0.52,23.75,10.49,31,29.66
		c5.61,14.84,8.33,30.88,8.33,48.24c0,11.04-1.76,20.23-5.55,27.16c-4.72,8.63-11.56,13.25-20.36,12.92
		c-8.33-0.31-15.26-4.78-21.29-13.99c-8.78-13.51-15.28-21.64-19.89-25.45c-11.58-9.31-28.24-14.43-50.45-14.65
		c-4.07-0.04-6.11-0.06-10.18-0.08c-3.25,1.57-5.1,5.79-6.48,12.64c-0.47,2.63-0.93,4.74-0.93,7.4c0,11.65,5.11,21.27,15.26,28.76
		c8.77,6.47,19.46,9.8,31.94,10.03c5.08,0.09,12.96-11.44,18.04-11.31c4.65,0.11,6.95,3.9,6.95,11.86c0,12.22-1.34,24.54-4.16,35.59
		c-4.04,15.87-9.73,23.88-17.61,23.74c-5.08-0.09-9.97-4.55-14.34-13.64c-4.27-8.89-10.63-13.52-19.44-13.61
		c-9.71-0.1-14.81,9.48-14.81,28.25c0,44.56,22.21,67.43,67.09,68.19c3.7,0.06,13.91-3.51,18.06-1.83c2.3,0.6,4.15,0.63,5.55,0.66
		c7.86,0.16,13.88-4.01,18.96-12.47c5.1-8.46,9.26-12.62,12.51-12.52c9.26,0.27,17.11,18.68,17.11,31.01
		c0,3.76,0.25,13.08,0.95,27.91C1753.04,1765.85,1753.74,1778.47,1753.74,1788.17z M2094.44,1848.87
		c-7.32-8.14-11.58-12.55-12.03-13.99c-10.66-18.79-18.36-41.86-23.61-68.34c-3.55-17.9-8.46-32.89-13.86-44.03
		c-6.08-12.52-15.76-24.89-28.24-37.56c-0.47-0.05-7.89-4.36-23.14-13.47c-10.16-6.07-16.66-14.26-19.91-25.11
		c31.47-14.86,47.23-37.05,47.23-67.74c0-24.84-12.12-45.61-36.12-63.25c-19.41-14.27-42.1-23.72-67.55-27.39
		c-6.95-1.01-24.54-3.09-51.83-4.68c-7.78-1.32-11.67-1.96-19.46-3.2c-19.89-3.1-36.16-0.73-49.03,3.77
		c-15.99,5.59-24.07,15.99-24.07,30.11c0,7.84,1.84,14.55,5.55,18.15c4.16,4.04,8.78,6.86,11.56,8.63
		c7.4,7.29,13.49,30.97,12.51,64.74c-0.91,31.19-7.04,67.59-12.51,104.49c-6.08,41.11-11.56,66.85-15.73,76.94
		c-1.38,2.67-5.08,7.43-12.03,15.38c-5.55,6.37-8.47,12.39-8.8,17.69c-1.45,23.16,4.24,39.88,15.76,47.73
		c11.24,7.66,35.17,11.42,70.34,11.5c43.03,0.1,69.42-2.42,79.13-7.56c12.48-6.6,18.98-23.44,18.98-51.58
		c0-10.73-11.54-22.1-18.98-32.47c-7.2-10.03-13.43-40.28-19.89-89.69c-1.4-8.87,2.34-14.25,11.11-16.17
		c5.07-1.11,9.71,0.27,13.41,4.15c11.11,11.61,19.18,36.28,23.61,72.94c5.28,43.68,10.63,72.52,16.66,86.31
		c12.01,28.08,34.22,41.52,66.17,41.52c7.4,0,16.25-0.93,26.84-2.88c12.45-2.29,21.76-3.28,27.31-3.71
		c4.44-2.81,6.66-4.2,11.11-6.96c5.08-3.2,7.86-5.94,7.86-9.19C2102.77,1859.79,2100,1855.04,2094.44,1848.87z M1919.51,1608.56
		c-5.58,8.99-12.96,13.46-22.21,12.6c-5.1-0.48-7.86-5.34-8.33-14.12c-1.48-21.33-2.22-31.99-3.7-53.29
		c-1.38-8.86,6.93-15.63,14.81-14.69c18.04,2.15,26.84,16.01,26.84,40.86C1926.91,1590.59,1924.52,1600.48,1919.51,1608.56z"/>
</g>
</svg>
