<?xml version="1.0" encoding="utf-8"?>
<!-- Generator: Adobe Illustrator 25.0.1, SVG Export Plug-In . SVG Version: 6.00 Build 0)  -->
<svg version="1.1" id="Layer_1" xmlns="http://www.w3.org/2000/svg" xmlns:xlink="http://www.w3.org/1999/xlink" x="0px" y="0px"
	 viewBox="0 0 2400 2400" style="enable-background:new 0 0 2400 2400;" xml:space="preserve">
<g>
	<path transform="translate(0.000000,2400.000000) scale(0.100000,-0.100000)" d="M2189,16900c-425-53-828-406-1108-970
		c-85-172-144-335-161-451c-16-112,5-180,65-205c44-18,138-18,174,0c36,19,69,79,53,98c-8,11-3,32,22,93c140,340,397,722,642,954
		c143,135,340,261,409,261c60,0,177-129,254-280c109-214,176-499,216-930l16-167l-104-159c-667-1020-1140-2174-1411-3444
		c-333-1557-273-2975,141-3340c98-87,202-120,373-120c111,0,204,16,261,45l26,14l-5-142c-5-168,9-243,64-349c41-77,121-157,200-200
		c27-15,90-39,139-54c83-25,104-28,265-28c247-1,398,34,638,149c218,105,391,234,598,448c234,241,404,486,578,834
		c233,467,395,945,502,1485l27,137l124,86c69,48,127,85,129,83c1-2,8-64,14-138s22-190,35-257c83-415,245-569,578-550
		c198,12,290,62,561,305c327,294,694,743,950,1162c42,69,80,125,85,125c10,0,208-236,306-365c40-53,104-143,142-201
		c71-108,183-316,183-341c0-7-62-92-137-188c-765-979-1020-1392-1064-1727c-34-252,79-416,336-488c92-26,346-32,460-11
		c395,73,747,334,939,696c63,120,103,225,142,377c45,177,64,331,64,521c0,292-44,517-156,799l-45,111l114,154
		c352,475,742,1057,1067,1591c29,48,55,86,57,84c1-2-15-82-38-178c-208-893-295-1537-306-2284c-6-396,3-577,38-785
		c53-318,140-452,330-511c79-25,273-26,362-3c129,33,257,123,452,319c373,373,758,972,908,1411c51,148,111,397,102,423
		c-11,37-112,65-192,55c-94-11-110-30-169-189c-104-285-212-497-388-765c-176-267-363-505-556-704c-111-115-254-246-269-246
		c-5,0-16,28-24,63c-108,432-77,1420,74,2347c142,877,354,1693,684,2632l17,47l103,40c158,61,418,147,534,176s155,46,165,71
		c9,23-18,50-62,65c-71,23-323-13-548-80c-52-16-94-24-94-19c0,21,117,301,171,410c33,65,59,128,59,141c0,55-81,90-210,91
		c-82,0-103-4-152-26c-48-22-64-37-99-90c-53-82-177-336-270-557c-64-152-77-175-104-187c-16-8-176-70-355-140
		c-419-162-868-344-995-403c-120-57-175-101-175-141c0-81,180-118,300-61c91,43,1063,442,1070,439c8-3,1-17-213-393
		c-371-654-773-1299-1150-1845c-164-237-428-600-436-599c-3,0-32,38-64,84c-32,45-106,142-165,215c-59,72-146,179-193,237
		c-165,202-194,270-194,453c0,85,6,150,19,205c48,209,146,452,236,586c92,136,237,259,304,259c78,0,224-124,319-272
		c61-94,82-108,169-108c59,0,112,21,128,50c7,14,11,50,8,89c-5,99-51,185-147,282c-131,130-270,181-501,181c-151,1-233-14-360-62
		c-333-129-593-496-705-996c-28-126-36-305-16-372c12-39-4-67-177-322c-328-484-758-970-1115-1262l-112-91l-26,59
		c-14,32-36,95-47,139c-45,168-54,259-59,560l-5,291l234,234c452,453,741,875,855,1250c22,72,26,105,27,215c1,114-2,138-23,192
		c-63,167-227,252-461,240c-125-7-199-25-299-74c-98-49-223-167-303-287c-170-257-326-681-418-1136c-37-185-80-482-80-555
		c0-31-9-41-107-119c-60-46-108-84-109-83s3,36,7,77c5,41,11,176,15,300c27,904-226,1402-765,1504c-46,9-102,16-125,16
		c-22,0-58,3-78,6l-37,6l103,152c128,187,262,398,400,629c399,668,615,1173,703,1641c20,110,29,418,14,528c-52,391-240,613-588,695
		c-109,25-354,25-473-1c-318-69-643-264-973-585c-59-57-109-102-110-100c-2,2-11,42-21,89c-93,444-280,746-535,862
		C2530,16892,2341,16920,2189,16900z M4617,16345c167-84,263-325,263-662c0-508-229-1106-764-1998c-275-457-612-954-706-1040
		c-30-27-88-83-129-123l-74-74l6,79c3,43,15,193,26,333c48,609,71,1129,71,1647c0,329-12,731-24,803c-4,20,14,51,82,141
		c322,429,667,734,977,866C4481,16375,4543,16382,4617,16345z M2786,14238c-31-1455-236-3292-487-4373c-107-460-270-946-396-1175
		c-42-77-121-190-132-190c-5,0-20,17-33,38c-182,274-268,893-228,1637c75,1377,507,2939,1147,4139c104,194,127,236,132,236
		C2791,14550,2790,14410,2786,14238z M6495,13054c73-112,60-307-34-521c-98-222-320-548-544-798l-45-50l14,80c23,134,64,313,104,455
		c122,430,270,720,423,831C6462,13087,6473,13087,6495,13054z M4238,12665c68-32,157-121,211-211c175-296,226-849,140-1514
		c-35-272-45-322-73-345c-14-11-191-123-393-250c-761-475-1066-695-1365-984c-60-57-108-101-108-98c0,4,23,81,50,172
		c185,614,330,1410,445,2440c19,176,38,339,41,362l5,41l47-20c91-41,260-34,355,13c38,20,155,137,249,248c56,68,146,126,238,155
		C4145,12695,4178,12693,4238,12665z M4414,10048c-76-289-220-680-356-968c-265-559-631-1000-1012-1218c-92-53-222-105-293-117
		c-131-21-243,154-242,380c1,514,493,1115,1414,1727c210,139,506,327,517,328C4446,10180,4433,10120,4414,10048z M8350,9799
		c22-275-26-592-130-850c-117-293-341-538-580-635c-86-35-111-32-153,17c-107,124-65,383,115,704c113,204,259,418,557,820l156,209
		l12-64C8333,9964,8344,9874,8350,9799z M14087,16710c-323-40-681-316-970-748c-260-390-381-840-258-963c36-35,106-47,159-27
		c37,14,37,14,45,88c16,148,111,383,240,593c112,182,231,333,391,493c162,162,274,250,391,311l74,38l24-23c33-31,73-117,94-199
		c14-53,17-112,17-268c0-359-49-656-342-2065c-182-871-308-1579-517-2900c-47-300-104-624-125-720c-72-326-120-598-120-679
		c0-57,29-87,107-111c145-45,338-13,387,63c35,53,101,375,220,1072c45,264,65,356,116,524c432,1444,1108,3040,1755,4146
		c171,293,358,576,450,682l33,38l-9-60c-17-107-108-576-230-1180c-192-947-222-1097-344-1735c-109-573-131-666-216-934
		c-5-16-9-50-9-77c0-40,4-51,27-68c47-38,125-54,242-49c117,4,170,23,210,74c28,36,62,145,110,360c57,256,139,469,336,869
		c335,679,849,1441,1225,1815c100,99,209,188,292,239l37,22l15-23c71-108,60-410-29-806c-108-486-255-940-800-2467
		c-367-1028-457-1289-564-1625c-259-820-383-1383-385-1750c-1-178,10-232,58-281c52-53,107-71,233-77c198-8,274,30,488,243
		c129,128,262,281,431,496c110,140,319,424,343,466c8,15,15,12,60-30c102-95,231-133,430-124c144,6,220,25,342,89
		c217,112,482,405,749,828c85,135,83,132,76,100c-13-54-36-327-46-538c-16-342,9-743,55-883c28-85,97-127,222-136
		c121-10,230,23,267,80c20,30,43,122,101,397c55,269,111,494,171,687c243,783,716,1663,1174,2183c37,43,39,44,31,15
		c-5-16-45-150-90-297c-309-1020-496-1912-542-2578c-21-307,4-662,57-831c46-145,138-207,324-216c226-12,392,77,670,356
		c224,224,419,474,639,818c185,290,405,695,399,735c-5,35-61,58-140,58c-128,0-124,3-333-307c-277-410-458-655-656-885
		c-100-117-412-428-429-428s-25,139-25,440c0,323,6,402,56,755c75,535,168,991,379,1875c139,586,144,607,144,722c1,82-2,101-20,125
		c-54,75-210,104-342,64c-150-45-342-232-629-612c-331-437-634-963-870-1509c-115-266-104-249-98-150c14,207,79,643,159,1058
		c71,369,71,373-7,414c-36,20-57,23-152,23c-96,0-116-3-153-23c-24-13-51-36-60-52l-16-28l-54,59c-38,42-74,69-125,94
		c-121,59-180,70-367,69c-144-1-177-4-260-26c-191-51-347-144-500-298c-163-163-295-353-424-610c-173-343-247-599-263-914l-6-131
		l-70-100c-236-335-555-732-799-996c-86-92-88-93-88-62c0,50,55,362,95,538c88,390,222,842,448,1510c78,229,131,380,467,1330
		c425,1200,604,1769,706,2243c155,721,93,1031-223,1118c-104,29-303,27-403-4c-349-110-728-496-1263-1287c-70-104-126-179-123-165
		c15,66,184,954,241,1269c124,680,144,852,110,966c-34,118-127,169-310,169c-64,0-120-6-155-17c-178-53-369-245-626-627
		c-359-534-787-1341-1149-2167c-49-112-90-201-91-200c-2,2,60,318,136,702c185,930,241,1262,270,1600c32,388-17,634-159,787
		C14519,16674,14304,16736,14087,16710z M19172,11708c50-15,128-84,163-143c14-25,34-78,45-119c10-41,24-83,31-93c10-17,0-40-71-169
		c-356-640-735-1179-1003-1429c-50-47-96-85-103-85c-23,0-47,139-51,300c-7,215,11,338,72,494c33,84,45,128,42,150
		c-9,54,117,336,247,554c160,268,355,474,504,533C19104,11723,19120,11724,19172,11708z"/>
</g>
</svg>
