<?xml version="1.0" encoding="utf-8"?>
<!-- Generator: Adobe Illustrator 25.2.0, SVG Export Plug-In . SVG Version: 6.00 Build 0)  -->
<svg version="1.1" id="Layer_1" xmlns="http://www.w3.org/2000/svg" xmlns:xlink="http://www.w3.org/1999/xlink" x="0px" y="0px"
	 viewBox="0 0 2200 2200" style="enable-background:new 0 0 2200 2200;" xml:space="preserve">
<g>
	<path d="M2126.23,1941.63c-0.57,0.67-21.62,0.86-60.19,0.77l-59.23-0.19l-0.1,20.76c-0.1,11.39-0.48,38.37-0.77,59.99l-0.57,39.23
		h-44.49c-24.5,0-51.77-0.1-60.66-0.29l-16.07-0.29l0.29-58.75l0.38-58.85h-8.61c-4.69,0-31.58-0.29-59.52-0.67l-51-0.57v58.94
		c0,32.34-0.29,59.52-0.57,60.38c-0.48,1.34-3.83,1.53-28.51,1.44c-15.31-0.1-42.48-0.48-60.38-0.77l-32.53-0.57l0.29-59.61
		l0.38-59.52h-12.82c-6.98,0-33.97-0.29-59.8-0.67l-47.17-0.57v4.21c-0.1,2.3-0.1,29.18,0,59.8c0.1,49.66-0.1,55.69-1.44,56.84
		c-1.24,1.05-12.44,1.15-60.47,0.67c-32.44-0.38-59.23-0.86-59.52-1.24c-0.29-0.29-0.57-27.27-0.57-59.99l0.1-59.52l-60.09-0.19
		l-60.09-0.19v10.24c0,24.59-1.15,107.93-1.53,109.08c-0.29,0.96-9.38,1.15-44.59,0.96c-24.4-0.1-51.57-0.38-60.38-0.57l-16.17-0.29
		l0.38-57.32l0.29-57.22l-5.26-0.38c-2.87-0.19-30.05-0.1-60.28,0.19l-55.02,0.48v59.04c0,39.61-0.38,59.42-1.05,60.09
		c-0.67,0.67-20.29,0.86-60.76,0.77l-59.71-0.29l-0.29-59.42l-0.19-59.52l-3.16-0.29c-1.63-0.19-28.42-0.19-59.42,0.1l-56.45,0.48
		v58.85l-0.1,58.85l-60.09,0.29c-47.56,0.19-60.09,0-60.38-0.96c-0.29-0.67-0.67-27.46-1.05-59.61
		c-0.29-32.05-0.67-58.37-0.86-58.56c-0.1-0.1-27.08-0.29-59.99-0.29l-59.71-0.1v59.13c0,32.53-0.38,59.71-0.77,60.28
		c-0.57,0.96-13.78,1.24-60.47,1.24c-55.5,0-59.61-0.1-60.19-1.63c-0.38-0.96-0.57-27.84-0.48-59.9c0.1-31.96-0.1-58.37-0.38-58.65
		c-0.67-0.67-117.41-0.48-118.55,0.19c-0.57,0.38-0.86,22.49-0.57,59.33c0.19,40.38,0,58.94-0.77,59.71
		c-0.67,0.67-19.71,0.86-60.76,0.77l-59.71-0.29l-0.29-59.61l-0.19-59.52h-3.16c-1.63,0-28.71-0.19-59.99-0.29l-56.93-0.19
		l-0.67-8.13c-0.29-4.5-0.57-31.67-0.67-60.57l-0.1-52.34h47.65c26.12,0,52.91-0.29,59.52-0.57c6.6-0.29,12.53-0.1,13.11,0.29
		c0.96,0.67,1.24,11.67,1.44,46.69c0.1,25.26,0.38,52.05,0.57,59.52l0.29,13.68h59.99h59.99v-59.71c0-32.82,0.19-59.99,0.48-60.19
		c0.29-0.29,27.27-0.67,60.09-0.77c51.48-0.29,59.8-0.1,60.57,1.05c0.57,0.96,0.86,22.96,0.67,60.28l-0.29,58.85h59.8h59.8v-59.8
		v-59.8l60.19-0.29c47.56-0.19,60.38,0,61.05,0.96c0.38,0.67,0.77,17.8,0.77,38.08c-0.1,20.29-0.1,46.6-0.1,58.66l0.1,21.72
		l59.52-0.19l59.42-0.29l-0.19-59.13l-0.29-59.04h48.7c26.7,0,53.01-0.29,58.27-0.67c5.36-0.29,10.81-0.29,12.25,0.1l2.49,0.57
		v41.05c0,22.49,0.29,49.37,0.67,59.71l0.57,18.85h59.9h59.9l-0.1-59.23c-0.1-32.63,0.19-59.71,0.48-60.19
		c0.38-0.67,22.49-1.05,60.19-1.24c51.48-0.29,59.71-0.1,60.57,1.05c0.57,0.86,0.86,22.68,0.77,57.7l-0.19,56.36l60.38,0.48
		l60.47,0.57l0.1-20.96c0.1-11.48,0-38.08-0.1-59.04c-0.1-29.18,0.19-38.47,1.05-39.61c1.05-1.24,8.42-1.34,60.57-0.77
		c32.72,0.38,59.71,0.86,60.09,1.15c0.38,0.19,0.38,26.98,0.1,59.52l-0.57,59.23l45.36,0.67c24.97,0.29,52.05,0.48,60.19,0.29
		l14.83-0.29v-59.33c0-33.78,0.38-59.9,0.86-60.66c0.77-1.15,9.76-1.24,60.19-0.67c32.63,0.38,59.71,0.86,60.19,1.15
		c0.48,0.29,0.67,27.27,0.48,59.99l-0.29,59.52l59.99,0.29l60.09,0.19l0.29-13.59c0.19-7.56,0.48-34.26,0.57-59.52
		c0.1-25.17,0.48-46.12,0.77-46.6c0.57-1.05,40.19-1.15,87.27-0.19l33.78,0.57l-0.19,58.46l-0.19,58.46l17.61,0.57
		c9.66,0.29,36.46,0.57,59.52,0.67l41.81,0.19l0.1-20.76c0.1-11.48,0-37.99-0.1-58.94c-0.1-29.28,0.19-38.47,1.05-39.61
		c1.05-1.24,8.42-1.34,60.57-0.77c32.72,0.38,59.71,0.86,60.09,1.15C2128.62,1822.79,2127.28,1940.49,2126.23,1941.63z"/>
	<path d="M2127.95,373.67h-47.65c-26.12,0-52.91,0.29-59.52,0.57s-12.53,0.1-13.11-0.29c-0.96-0.67-1.24-11.67-1.44-46.69
		c-0.1-25.26-0.38-52.05-0.57-59.52l-0.29-13.68h-59.99h-59.99v59.71c0,32.82-0.19,59.99-0.48,60.19
		c-0.29,0.29-27.27,0.67-60.09,0.77c-51.48,0.29-59.8,0.1-60.57-1.05c-0.57-0.96-0.86-22.96-0.67-60.28l0.29-58.85h-59.8h-59.8v59.8
		v59.8l-60.19,0.29c-47.56,0.19-60.38,0-61.05-0.96c-0.38-0.67-0.77-17.8-0.77-38.08c0.1-20.29,0.1-46.6,0.1-58.66l-0.1-21.72
		l-59.52,0.19l-59.42,0.29l0.19,59.13l0.29,59.04h-48.7c-26.7,0-53.01,0.29-58.27,0.67c-5.36,0.29-10.81,0.29-12.25-0.1l-2.49-0.57
		v-41.05c0-22.49-0.29-49.37-0.67-59.71l-0.57-18.85h-59.9h-59.9l0.1,59.23c0.1,32.63-0.19,59.71-0.48,60.19
		c-0.38,0.67-22.49,1.05-60.19,1.24c-51.48,0.29-59.71,0.1-60.57-1.05c-0.57-0.86-0.86-22.68-0.77-57.7l0.19-56.36l-60.38-0.48
		l-60.47-0.57l-0.1,20.96c-0.1,11.48,0,38.08,0.1,59.04c0.1,29.18-0.19,38.47-1.05,39.61c-1.05,1.24-8.42,1.34-60.57,0.77
		c-32.72-0.38-59.71-0.86-60.09-1.15c-0.38-0.19-0.38-26.98-0.1-59.52l0.57-59.23l-45.35-0.67c-24.97-0.29-52.05-0.48-60.19-0.29
		l-14.83,0.29v59.33c0,33.78-0.38,59.9-0.86,60.66c-0.77,1.15-9.76,1.24-60.19,0.67c-32.63-0.38-59.71-0.86-60.19-1.15
		c-0.48-0.29-0.67-27.27-0.48-59.99l0.29-59.52l-59.99-0.29l-60.09-0.19l-0.29,13.59c-0.19,7.56-0.48,34.26-0.57,59.52
		c-0.1,25.17-0.48,46.12-0.77,46.6c-0.57,1.05-40.19,1.15-87.27,0.19l-33.78-0.57l0.19-58.46l0.19-58.46l-17.61-0.57
		c-9.66-0.29-36.46-0.57-59.52-0.67l-41.81-0.19l-0.1,20.76c-0.1,11.48,0,37.99,0.1,58.94c0.1,29.28-0.19,38.47-1.05,39.61
		c-1.05,1.24-8.42,1.34-60.57,0.77c-32.72-0.38-59.71-0.86-60.09-1.15c-1.05-0.57,0.29-118.27,1.34-119.42
		c0.57-0.67,21.63-0.86,60.19-0.77l59.23,0.19l0.1-20.76c0.1-11.39,0.48-38.37,0.77-59.99l0.57-39.23h44.49
		c24.5,0,51.77,0.1,60.66,0.29l16.08,0.29l-0.29,58.75l-0.38,58.85h8.61c4.69,0,31.58,0.29,59.52,0.67l51,0.57v-58.94
		c0-32.34,0.29-59.52,0.57-60.38c0.48-1.34,3.83-1.53,28.51-1.44c15.31,0.1,42.48,0.48,60.38,0.77l32.53,0.57l-0.29,59.61
		l-0.38,59.52h12.82c6.99,0,33.97,0.29,59.8,0.67l47.17,0.57v-4.21c0.1-2.3,0.1-29.18,0-59.8c-0.1-49.66,0.1-55.69,1.44-56.84
		c1.24-1.05,12.44-1.15,60.47-0.67c32.44,0.38,59.23,0.86,59.52,1.24c0.29,0.29,0.57,27.27,0.57,59.99l-0.1,59.52l60.09,0.19
		l60.09,0.19v-10.24c0-24.59,1.15-107.93,1.53-109.08c0.29-0.96,9.38-1.15,44.59-0.96c24.4,0.1,51.57,0.38,60.38,0.57l16.17,0.29
		l-0.38,57.32l-0.29,57.22l5.26,0.38c2.87,0.19,30.05,0.1,60.28-0.19l55.02-0.48v-59.04c0-39.61,0.38-59.42,1.05-60.09
		s20.29-0.86,60.76-0.77l59.71,0.29l0.29,59.42l0.19,59.52l3.16,0.29c1.63,0.19,28.42,0.19,59.42-0.1l56.45-0.48v-58.85l0.1-58.85
		l60.09-0.29c47.56-0.19,60.09,0,60.38,0.96c0.29,0.67,0.67,27.46,1.05,59.61c0.29,32.05,0.67,58.37,0.86,58.56
		c0.1,0.1,27.08,0.29,59.99,0.29l59.71,0.1v-59.13c0-32.53,0.38-59.71,0.77-60.28c0.57-0.96,13.78-1.24,60.47-1.24
		c55.5,0,59.61,0.1,60.19,1.63c0.38,0.96,0.57,27.84,0.48,59.9c-0.1,31.96,0.1,58.37,0.38,58.66c0.67,0.67,117.41,0.48,118.55-0.19
		c0.57-0.38,0.86-22.49,0.57-59.33c-0.19-40.38,0-58.94,0.77-59.71c0.67-0.67,19.71-0.86,60.76-0.77l59.71,0.29l0.29,59.61
		l0.19,59.52h3.16c1.63,0,28.71,0.19,59.99,0.29l56.93,0.19l0.67,8.13c0.29,4.5,0.57,31.67,0.67,60.57L2127.95,373.67z"/>
	<path d="M358.48,737.92c2.72,7.06,4.34,20.87,4.34,41.92c0,52.6-7.04,87.45-20.59,105.92c-7.05,9.51-17.35,13.05-30.36,11.18
		c-2.17-0.31-5.53-0.73-10.31-2.12c-3.75-1.1-7.04-1.68-8.67-1.33c-11.06-1.25-16.59-1.94-27.66-3.42
		c-16.8-0.58-38.54-4.11-65.06-10.77c-45.5-11.44-67.24-18.85-65.61-18.39c-45.54-12.8-68.32-38.03-68.32-72.2
		c0-7.59,4.83-19.75,14.64-37.29c10.64-19.02,17.35-33.82,18.98-43.48c7.05-42.94,11.11-86.99,10.84-130.57
		c-0.27-42.97-5.96-69.58-16.26-79.09c-3.25-1.87-8.64-4.81-13.56-9.09c-4.3-3.73-6.51-10.75-6.51-18.95
		c0-14.74,9.31-25.88,28.19-32.98c15.7-5.9,34.79-9.3,57.48-8.73c31.87,0.81,54.8,5.11,67.77,12.98
		c11.25,6.82,16.8,16.69,16.8,30.15c0,23.84-18.01,23.91-23.85,40.44c-6.03,17.07-9.76,40.89-9.76,71.94
		c0,43.59,0.54,67.4,1.08,72.22c8.13,55.12,20.06,84.43,35.78,86.62c10.31,1.44,20.6-0.82,30.36-6.94
		c14.64-8.56,24.4-14.35,29.28-16.31c9.75-3.31,16.8-5.15,21.68-4.71c4.88,0.44,9.22,2.67,14.1,6.81
		C351.97,729.3,356.85,734.67,358.48,737.92z M677.29,535.85c24.2,60.7,36.35,129.24,36.35,205.83c0,52.32-17.33,96.12-51.5,131.74
		c-32.16,33.52-71.58,51.28-117.65,51.04c-51.5-0.27-92.97-25.25-123.64-73.73c-27.69-43.77-41.73-96.63-41.73-158.09
		c0-67.74,14.07-126.68,42.29-178.38c32.44-59.43,76.46-90.98,131.74-90.98C606.82,423.27,647.94,462.22,677.29,535.85z
		 M594.88,660.39c0-28.21-5.41-59.89-15.71-94.5c-13.02-43.76-29.28-65.73-48.25-65.87c-11.39-0.08-19.85,10.07-26.03,29.89
		c-4.62,14.82-7.03,31.19-7.03,48.68c0,29.16,3.85,56.95,11.91,82.07c10.93,34.08,26.58,50.99,47.73,51.21
		C582.42,712.12,594.88,695,594.88,660.39z M1075.31,434.85c-12.15-5-26.58-7.65-42.3-7.61c-53.69,0.14-80.79,15.82-80.79,47.34
		c0,11.31,3.81,18.88,11.94,23.24c8.13,4.35,12.46,11.13,12.46,19.89c0,18.68-4.26,41.18-13.01,68.1
		c-10.16,31.21-21.67,49.6-34.16,55.17c-9.21-3.65-19.12-19.12-29.28-46.39c-9.27-24.89-13.92-46.3-14.64-61.39
		c-1.3-27.15,13.46-46.11,14.12-50.87c0.42-3.01,1.07-6.16,1.07-10.45c0-13.49-5.59-23.17-16.82-29.93
		c-12.93-7.78-35.89-12.19-67.77-12.86c-22.64-0.48-41.78,3.46-57.46,10.8c-18.86,8.83-28.17,22.69-28.17,40.5
		c0,9.9,2.14,18.17,6.51,22.36c4.81,4.61,10.28,7.81,13.53,9.75c7.06,6.49,13.57,20.53,20.08,42.01
		c5.41,18.72,8.12,27.97,13.53,46.28c2.18,8.06,11.41,44.38,25.51,104.45c13.55,57.7,25.99,98.97,37.94,125.17
		c17.9,39.32,37.93,55.99,60.19,51.64c7.03-1.37,15.8-4.78,25.47-10.15c12.43-6.9,21.15-14.41,26.03-22.16
		c11.91-19.9,28.64-72.15,49.88-154.75c23.68-92.09,42.3-151.09,55.31-179.03c1.63-3.98,9.02-11.61,21.15-22.07
		c9.7-8.37,14.79-17.7,14.6-27.8C1099.98,452.27,1091.41,441.48,1075.31,434.85z M1418.02,640.01c0-10.82-9.21-25.61-20.08-24.34
		c-3.77,0.44-8.65,4.77-14.6,13.08c-5.97,8.32-13.01,13.09-22.26,14.31c-1.63,0.21-3.77,0.5-6.51,0.38
		c-4.88-0.8-16.79,4.19-21.15,4.79c-52.58,7.18-78.61-10.22-78.61-51.63c0-17.46,5.95-26.97,17.34-28.09
		c10.32-1.01,17.83,2.5,22.78,9.94c5.09,7.64,10.87,11,16.82,10.35c9.21-1,15.85-9.02,20.59-23.68c3.3-10.2,4.88-21.27,4.88-32.07
		c0-7.04-2.7-10.12-8.13-9.74c-5.95,0.42-15.16,11.53-21.15,11.99c-14.64,1.14-27.14-0.74-37.42-5.85
		c-11.89-5.91-17.86-14.45-17.86-25.25c0-2.45,0.52-4.45,1.07-6.93c1.63-6.46,3.81-10.47,7.58-12.1c4.78-0.22,7.17-0.32,11.94-0.54
		c26.03-1.17,45.55,2.26,59.08,9.47c5.44,2.98,13.01,9.55,23.33,20.43c7.03,7.39,15.16,10.48,24.92,9.8
		c10.32-0.72,18.26-5.4,23.85-13.31c4.41-6.25,6.51-14.19,6.51-23.46c0-14.56-3.21-27.64-9.76-39.59
		c-8.48-15.48-20.59-23.39-36.31-23.38c-11.39,0.01-31.46,0.91-59.08,2.38c-27.66,1.47-47.73,2.55-60.19,2.61
		c-9.21,0.04-31.56-1.74-40.12-1.81c-22.53-0.17-41.77,2.72-57.49,8.58c-18.89,7.03-28.17,18.46-28.17,32.89
		c0,8.03,2.25,14.75,6.51,17.91c4.91,3.65,10.28,5.9,13.53,7.33c6.51,4.43,11.1,16.07,13.01,33.96c0.93,8.7,0,18.89-0.52,30.51
		c-1.75,54.43-2.62,81.83-4.36,136.89c-1.07,32.55-4.33,53.4-9.21,62.32c-4.13,7.18-6.19,10.78-10.32,18.01
		c-1.07,2.35-5.95,8.64-15.16,19.63c-5.43,6.48-8.13,12.98-8.13,20.01c0,17.32,9.21,24.57,27.66,20.67
		c40.77-8.42,61.16-12.64,101.94-20.76c14.64-2.99,29.84-5.59,45.51-9.16c18.94-4.31,33.65-7.08,44.48-9.13
		c39.04-7.41,61.82-13.33,68.85-19.03c17.9-15.05,27.1-42.76,27.1-81.71c0-8.66-0.85-19.77-1.63-32.26
		C1418.29,651.52,1418.02,643.3,1418.02,640.01z M1792.16,689.23c-5.95-6.43-11.51-26.83-18.97-59.4
		c-6.6-28.83-11.91-56.54-15.16-81.93c0-0.89,0-1.33,0-2.22c0-26.6,3.73-46.27,9.76-58.73c5.85-12.09,23.85-12.29,23.85-29.32
		c0-9.62-5.54-16.58-16.82-21.42c-12.97-5.56-35.88-8.6-67.77-9.13c-22.71-0.38-41.77,2.12-57.46,6.66
		c-18.9,5.46-28.21,14.2-28.21,25.6c0,6.34,2.33,11.78,6.51,14.44c5.07,3.23,10.32,5.16,13.57,6.46
		c9.21,6.03,15.99,25.57,14.64,52.74c-1.27,25.68-8.23,56.56-14.64,87.91c-7.13,34.89-13.57,57.14-18.45,65.89
		c-1.07,2.31-5.98,6.74-14.09,13.45c-6.81,5.64-10.32,10.78-10.32,15.45c0,20.07,6.51,33.67,20.08,40.61
		c13.57,6.94,40.12,9.89,80.79,11.04c50.43,1.43,81.38,1.67,92.69-2.04c15.09-4.95,22.78-19.73,22.78-45.44
		C1814.94,710.03,1800.85,698.63,1792.16,689.23z M2089.32,587.74c-14.64-13.99-41.74-32.34-81.86-52.7
		c-29.84-15.14-44.48-26.69-44.48-36.7c0-16.7,13.01-24.86,39.6-23.9c11.91,0.43,24.3,10.45,36.86,30.03
		c12.72,19.83,26.55,30.91,40.67,32.22c20.04,1.85,30.36-9.84,30.35-34.82c0-44.1-9.76-65.97-29.28-66.18
		c-11.39-0.12-27.16-2.33-47.73-5.96c-20-3.53-35.75-5.5-46.62-5.51c-34.16-0.02-62.91,7.6-86.19,21.4
		c-26.48,15.7-39.6,36.8-39.6,64.48c0,15.42,8.13,31.2,24.96,48.02c4.88,5.4,20.04,17.81,45,39.16
		c16.82,13.93,24.92,24.61,24.92,31.84c0,21.21-12.46,30.09-37.38,27.18c-14.64-1.71-25.53-4.84-33.65-10.24
		c-7.5-4.99-15.16-8.46-22.22-9.08c-22.22-1.94-33.61,6.47-33.61,24.99c0,37.04,15.21,66.83,46.11,91.64
		c27.54,22.12,63.96,38,108.41,47.58c43.37,9.35,79.21,6.02,107.37-13.21c28.44-19.42,42.82-51.34,42.82-95.25
		C2133.76,652.62,2119.12,616.33,2089.32,587.74z"/>
	<path d="M435.83,1270.46c-7.32-5.53-12.26-11.46-14.72-16.53c-19.13-36.07-38.26-96.32-57.38-182.12
		c-4.91-21.74-8.83-36.39-12.27-43.9c-10.79-23.73-19.12-39.1-24.52-45.89c-12.26-14.87-29.92-25.17-52.97-32.16
		c-13.73-4.17-35.5-5.21-65.23-5.48c-34.59-0.31-52.48,3.95-52.48,15.3c0,2.06,2,5.77,6.38,11.26c5.4,6.78,8.83,13.02,11.29,18.44
		c4.41,10.15,6.37,21.16,6.37,34.15c0,33.28-6.73,70.47-20.1,109.36c-15.4,44.78-33.97,64.94-54.44,70.61
		c-17.45,4.83-26.21,17.32-25.99,37.05c0.24,22.32,22.55,43.19,67.68,57.64c29.92,9.59,51.01,13.71,62.29,13.46
		c23.54,0.21,35.32-10.69,35.32-31.39c0-5.41-2.95-11.95-9.33-19.9c-9.32-11.86-15.7-20.05-18.15-24.38
		c-6.38-11.82-9.32-24.62-9.32-38.37c0-18.81,5.89-29.04,18.14-33.31c9.32,1.14,13.74,1.26,13.74,1.26
		c12.76,3.5,24.57,9.1,35.31,15.5c14,8.34,21.58,17.35,21.58,26.78c0,27.84-7.36,46.96-22.07,57.23c-2.45,7.97-3.43,15.8-3.43,22.5
		c0,18.31,8.83,32.25,26.97,41.67c10.8,5.9,28.45,10.66,52.97,13.9c24.52,3.24,45.2,2.54,62.29-0.7
		c25.83-4.9,39.97-16.23,41.21-32.99c0.79-10.75-0.98-19.37-4.92-25.77C447.61,1280.47,442.95,1275.84,435.83,1270.46z M269.56,1109
		c-1.47-1.4-5.89-2.93-12.27-4.46c-3.92-0.94-15.7-2.3-19.61-3.33c-8.34-2.19-12.76-5.02-12.76-8.17c0-6.84,2.42-16.21,7.85-27.94
		c6.3-13.63,12.27-19.71,17.65-18.45c9.32,2.18,16.73,11.27,22.07,26.81c5.92,17.21,8.83,27.48,8.83,30.15
		C281.33,1108.41,277.41,1110.26,269.56,1109z M1059.08,952.68c-3.08,2.96-7.84,5.82-11.76,9.22c-7.36,5.72-13.98,17.26-19.63,33.95
		c-4.5,13.27-7.36,26.09-8.82,37.84c-6.28,55.05-9.42,82.6-15.7,136.7c0,17.53,2.44,29.05,6.86,34.28
		c8.34,7.18,20.11,15,20.11,25.19c0,21.84-3.92,36.81-11.28,45.78c-7.36,8.97-24.95,14.8-45.63,23.02
		c-5.13,2.04-12.26,4.68-20.59,6.54c-33.85,7.56-55.45,11.19-64.24,11.61c-11.26,0.54-18.65-1.73-22.57-6.57
		c-8.34-7.21-12.76-19.93-12.76-38.44c0-7.12,3.44-14.02,10.8-20.83c6.08-5.69,9.12-8.55,15.2-14.3c0.5-1.07,0.98-2.6,0.98-5
		c0-4.32-1.46-12.63-4.4-24.05c-3.14-13-4.71-19.53-7.86-32.64c-3.92-17.14-4.9-26.37-5.4-27.25c-3.92-12.5-9.55-17.96-16.18-16.37
		c-8.16,1.95-16.19,20.49-24.03,54.63c-7.36,32.11-11.28,50.06-11.28,54.37c0,4.3,0.48,7.08,1.96,8.7
		c8.34,7.43,20.1,15.52,20.1,25.47c0,24.17-5.38,40.22-16.18,48.83c-9.32,7.41-31.79,16.44-66.22,20.53
		c-5.32,0.63-17.16,2.74-34.83,4.36c-13.72,1.26-24.67,0.26-30.39-0.56c-15.75-2.28-30.91-4.69-37.77-11.68
		c-6.2-6.33-9.82-16.89-9.82-31.86c0-4.53,3.17-9.71,9.32-15.7c7.36-7.16,11.28-11.95,12.76-14.39c3.44-6.75,6.38-16.29,7.84-29.02
		c0-1.12,0-1.68,0-2.8c0-40.13-2.35-79.6-7.84-116.77c-6.24-42.27-14.72-69.39-25.99-80.95c-8.34-5.9-19.61-8.01-19.61-26.82
		c0-15.6,9.37-27.27,27.95-35.25c12.74-5.47,27.95-9.04,46.11-10.29c53.46-3.7,79.94,4.43,79.94,28.81c0,7.78-1.96,14.32-6.38,18.71
		c-7.36,7.49-11.76,11.52-12.26,13.13c-0.98,2.7-1.46,5.84-1.46,8.4c0,3.61,2.44,12.6,7.84,26.66
		c10.3,26.71,18.15,39.24,24.03,38.15c6.88-1.27,14.23-7.18,21.57-18.17c7.36-11,11.4-20.47,11.78-28.08
		c0.66-13.12-1.46-24.14-6.86-31.81c-2.46-3.1-7.36-7.8-15.7-13.99c-5.9-4.58-8.98-9.86-9.32-15.36
		c-1.53-24.59,21.09-41.51,66.2-50.28c18.15-3.53,30.99-4.63,39.25-3.7c14.11,1.59,21.57,9.89,21.57,24.16
		c0,6.12-3.42,13.47-10.3,21.56c-6.86,8.07-10.3,13.38-10.3,16.94c0,6.09,1.96,14.3,6.38,24.45c4.42,10.15,8.82,17.2,12.76,20.84
		c5.4,6.32,11.28,13,19.12,11.19c1.48-0.34,6.88-10.1,16.19-28.78c9.32-18.7,13.74-30.26,13.74-33.77c0-6.04-3.92-9.67-12.26-11.31
		c-8.36-1.65-12.28-7.88-12.28-18c0-13.69,8.18-25.5,24.03-36.18c11.73-7.9,25.01-13.55,40.23-16.91
		c44.63-9.86,67.2-3.64,67.2,19.59C1063.02,944.85,1061.55,950.31,1059.08,952.68z M1211.99,866.02
		c-50.03,10.96-89.83,42.67-119.19,95.4c-25.51,45.83-38.25,95.61-38.25,148.68c0,48.16,12.75,85.4,37.77,112.39
		c27.72,29.91,65.22,39.53,111.83,28.89c41.69-9.52,77.29-30.97,106.43-64.17c30.93-35.25,46.61-74.21,46.61-115.93
		c0-61.08-10.97-109.81-32.87-149.14C1297.76,874.46,1260.55,855.38,1211.99,866.02z M1215.92,1079.01
		c-19.13,4.71-33.32-4.6-43.17-27.86c-7.26-17.15-10.8-37.3-10.8-59.19c0-13.13,2.19-25.88,6.38-37.97
		c5.55-16.01,13.24-25.39,23.55-27.79c17.16-4,31.87,8.41,43.65,37.89c9.32,23.31,14.22,45.82,14.22,67.17
		C1249.76,1057.48,1238.48,1073.46,1215.92,1079.01z M1706.33,1131.63c-11.3-21.36-19.45-46.97-25.01-75.97
		c-3.75-19.54-9-35.51-14.72-46.9c-6.44-12.82-16.68-22.46-29.93-32.39c-0.48,0.02-8.34-2.87-24.51-8.79
		c-10.8-3.96-17.66-10.36-21.09-19.72c33.35-19.09,50.03-42.04,50.03-69.91c0-22.55-12.81-39.04-38.25-50.13
		c-20.6-8.98-44.65-12.89-71.62-11.25c-7.36,0.45-25.99,1.99-54.94,5.76c-8.24,0.33-12.36,0.51-20.59,0.89
		c-21.09,1.01-38.3,8.1-51.99,15.48c-16.97,9.16-25.51,20.43-25.51,33.01c0,6.99,2.16,12.58,5.9,14.72
		c4.42,2.53,9.32,3.82,12.26,4.67c7.84,4.6,14.22,24.92,13.24,55.1c-0.94,28.75-7.44,63.21-13.24,98.85
		c-6.45,39.67-12.26,65.18-16.68,75.63c-1.48,2.82-5.4,8.14-12.76,17.22c-5.88,7.25-8.97,13.55-9.32,18.6
		c-1.5,21.94,4.54,36.56,16.68,41.55c11.96,4.92,37.27,1.41,74.56-2.55c45.61-4.83,73.59-9.34,83.88-15.42
		c13.23-7.81,20.1-25.89,20.1-54.82c0-11.04-12.24-21.3-20.1-30.67c-7.62-9.08-14.24-40.81-21.09-85.22
		c-1.48-7.91,2.49-13.63,11.76-17.14c5.38-2.04,10.32-1.69,14.23,1.17c11.78,8.55,20.33,31.06,25.01,67.83
		c5.6,43.92,11.28,73.62,17.65,87.64c12.76,28.59,36.29,42.27,70.14,42.04c7.86-0.05,17.26-1.1,28.45-3.22
		c13.17-2.5,23.05-3.44,28.93-3.83c4.71-3.14,7.07-4.71,11.78-7.82c5.4-3.61,8.34-6.78,8.34-10.58c0-4.91-2.93-10.53-8.84-17.75
		C1711.3,1138.24,1706.81,1133.27,1706.33,1131.63z M1533.68,923.53c-5.91,9.22-13.74,14.71-23.55,15.78
		c-5.4,0.58-8.34-3.3-8.82-11.16c-1.57-19.01-2.36-28.44-3.94-47.18c-1.46-7.66,7.36-15.3,15.7-15.98
		c19.13-1.58,28.45,9.02,28.45,31.33C1541.52,905.86,1539,915.22,1533.68,923.53z M2122.14,1235.85c0,11.86-5.11,18.06-14.23,18.67
		c-6.23,0.42-16.18-2.12-30.39-7.04c-22.96-7.96-34.44-11.58-57.4-18.17c-12.26-3.52-22.56-9.53-30.89-17.36
		c-10.14-9.54-23.54-35.6-37.77-76.66c-12.24-35.32-23.41-71.2-35.81-105.91c-12.92-36.15-24.65-48.16-32.37-50.06
		c-3.28-0.81-5.4,1.26-4.9,5.38c10.3,62.16,18.42,112.02,25.49,123.14c7.38,11.59,20.61,26.12,20.61,37.34
		c0,29.39-7,45.59-20.61,50.19c-10.25,3.46-38.25,1.07-83.86-3.9c-39.73-4.33-65.24-10.47-77.02-21.47
		c-4.9-0.79-7.84-4.19-8.34-11.3c-3.92-8.35-5.88-19.31-5.88-33.4c0-5.41,3.2-11.26,9.32-17.45c7.36-7.45,11.78-12.38,12.76-15.03
		c19.11-41.55,29.91-99.95,29.91-166.51c0-29.55-4.9-47.79-13.24-54.47c-2.94-1.52-7.99-3.81-12.26-7.33
		c-3.38-2.79-5.4-8.58-5.4-15.08c0-11.71,8.53-20.25,25.49-24.69c13.65-3.57,30.96-4.8,52-2.1c28.84,3.7,49.23,9.68,61.3,17.37
		c9.78,6.23,14.72,14.31,14.72,24c0,16.75-15.7,15.36-21.57,26.29c-2.96,6.13-5.92,14.62-6.38,23.68
		c-0.49,9.67,4.4,16.64,12.26,18.03c26.97,4.78,40.21-6.44,40.21-34.94c0-8.9-12.74-22.06-12.74-30.91
		c0-11.05,7.47-17.41,22.07-19.22c12.61-1.56,33.93,0.28,62.78,6.94c18.04,4.16,29.91,8.36,35.79,12.35
		c10.32,7.11,15.46,18.2,15.7,32.6c0.16,9.64-6.86,14.54-20.1,13.73c-12.16-1.85-18.25-2.7-30.41-4.22
		c-9.82,0.03-19.13,4.86-28.45,13.81c-13.26,12.91-19.61,31.18-19.13,54.84c0.5,24.54,19.13,58.07,55.92,108.54
		c23.53,32.1,47.09,60.04,70.62,84.87c5.4,5.65,16.19,17.96,33.35,37.53C2117.72,1213.23,2122.14,1229.43,2122.14,1235.85z"/>
	<path d="M264.13,1386.63c-58.25-10.97-104.61,0.58-138.77,42.64c-29.71,36.58-44.54,86.51-44.55,147.45
		c0,55.3,14.82,104.6,43.97,142.83c32.32,42.38,75.95,60.87,130.2,60.91c48.54,0.03,89.99-12.82,123.93-37.03
		c35.92-25.62,54.24-57.56,54.24-96.99c0-57.72-12.75-109.71-38.26-157.4C363.99,1431.29,320.66,1397.28,264.13,1386.63z
		 M268.69,1612.01c-22.28-2.07-38.78-17.02-50.26-45.71c-8.48-21.2-12.56-44.3-12.56-67.78c0-14.08,2.6-26.85,7.42-37.73
		c6.45-14.55,15.42-20.92,27.42-18.73c19.98,3.65,37.11,23.38,50.82,58.84c10.85,28.05,16.56,52.89,16.56,74.62
		C308.1,1602.19,294.96,1614.44,268.69,1612.01z M762.18,1425.56c7.22,13.35,10.83,28.44,10.83,45.38c0,10.78-2.48,19.84-7.39,27.64
		c-5.79,9.18-13.72,14.76-24.59,15.31c-9.13,0.46-17.12-3.66-23.4-12.37c-9.69-13.05-16.56-21.28-20.56-24.11
		c-11.42-8.51-28.04-12.18-49.1-11.01c-26.22,1.45-39.41,7.99-39.41,19.83c0,12.31,5.8,21.76,16.56,27.7
		c9.52,5.26,22.26,7.89,37.12,7.49c6.29-0.17,17.71-9.9,24.55-10.15c6.29-0.23,9.13,19.71,9.13,57.94c0,9.68-7.43,18.97-18.86,19.19
		c-3.99,0.08-10.83-4.09-19.97-12.58c-9.13-8.47-19.41-12.64-30.28-12.53c-8.54,0.09-14.27,2.53-16.56,7.32
		c-1.15,2.39-1.77,8.67-2.26,18.09c-2,39.06,2.85,74.49,11.98,106.3c2.29,6.81,12.77,17.66,31.39,31.58
		c17.13,12.8,25.11,23.65,24,32.91c-1.17,9.68-13.13,14.52-36.53,14.52c-6.29,0-15.06-0.67-26.84-1.31
		c-11.79-0.65-20-0.89-25.14-0.9c-42.95,0.32-64.42,0.46-107.37,0.72c-19.41-0.04-29.1-7.72-29.1-22.7c0-5.91,3.99-13.6,13.68-21.67
		c8.68-7.53,13.02-11.29,21.7-18.82c11.42-9.87,15.42-22.13,15.42-35.93c-0.9-53.25-1.35-80.47-2.25-136.07c0-0.19,0-0.29,0-0.48
		c0-32.2-5.73-52.48-15.42-59.69c-3.44-1.6-9.03-4.06-14.31-7.95c-4.44-3.27-6.84-9.64-6.84-17.03c0-13.3,9.81-23.11,29.69-28.96
		c16.53-4.86,36.57-7.52,60.53-7.04c1.74,0,4.59-0.01,8.58,0.48c3.19-0.02,4.79-0.03,7.99-0.06c-2.85,0.03,10.28,0.08,39.41-0.74
		c13.13-0.37,33.41-2.33,58.83-6.51c25.5-4.19,45.11-7.51,57.09-8.45C740.48,1399.68,752.97,1408.52,762.18,1425.56z
		 M1790.32,1706.27c-13.13-26.75-22.6-59.28-29.1-96.35c-4.38-25.01-10.51-45.63-17.16-60.55c-7.49-16.82-19.41-32.92-34.83-48.78
		c-0.55-0.02-9.69-5.01-28.54-15.43c-12.57-6.96-20.56-17.1-24.55-31.11c38.82-24.07,58.23-56.99,58.23-98.21
		c0-33.36-14.94-58.69-44.55-76.51c-23.94-14.4-51.95-21.34-83.38-20.38c-8.54,0.26-30.25,1.53-63.93,5.36
		c-9.6,0.05-14.4,0.09-24,0.23c-24.55,0.41-44.62,5.92-60.53,15.1c-19.71,11.38-29.73,25.93-29.73,42.7
		c0,9.31,2.44,16.89,6.88,20.07c5.05,3.62,10.83,5.82,14.27,7.18c9.13,6.76,16.6,34.2,15.42,75.45
		c-1.12,38.91-8.67,84.88-15.42,131.86c-7.51,52.32-14.27,85.3-19.41,98.39c-1.74,3.46-6.31,9.79-14.86,20.29
		c-5.53,6.78-8.9,13.08-10.21,18.73c-0.11-12.49-2.12-22.46-5.87-29.88c-2.85-4.48-8.33-10.78-16.56-17.47
		c-8.54-6.94-14.27-14.69-17.12-21.61c-22.3-48.87-44.55-120.02-66.81-209.99c-5.73-22.75-10.28-37.58-14.31-44.63
		c-12.53-22.33-22.26-35.76-28.54-41.01c-14.27-11.31-34.84-15.13-61.67-12.23c-15.96,1.73-41.38,10.68-75.94,25.78
		c-40.44,17.66-61.12,32.9-61.12,45.21c0,2.25,2.35,5.11,7.43,8.56c6.27,4.26,10.28,9.16,13.13,13.66
		c5.14,8.55,7.43,19.4,7.43,33.49c0,36.07-7.85,80.15-23.4,129.58c-17.97,57.1-39.45,93.72-63.41,110.98
		c-20.36,14.66-30.49,32.35-30.24,53.18c0.27,23.36,26.25,35.18,78.79,34.85c34.83-0.22,59.42-2.05,72.54-6.18
		c27.4-7.7,41.11-25.67,41.11-52.63c0-7.04-3.44-14.49-10.87-22.21c-10.83-11.56-18.26-19.06-21.11-23.43
		c-7.43-12.08-10.87-26.57-10.87-43.69c0-23.37,6.88-40.11,21.15-50.54c10.83-3.09,15.97-4.92,15.97-4.92
		c14.86-1.88,28.71-1.04,41.11,2.53c16.25,4.69,25.14,13.77,25.14,26.4c0,37.35-8.58,66.01-25.7,84.99
		c-2.85,11.53-3.99,22.32-3.99,31.29c0,24.48,10.28,40.37,31.39,48.69c12.57,5.35,33.13,7.72,61.67,7.53
		c28.58-0.19,52.62-4.37,72.54-11.73c27.6-10.2,43.74-27.09,47.28-49.86c0.42,23.23,7.28,39.9,19.64,48.36
		c13.9,9.51,43.41,14.22,86.82,14.21c53.1-0.02,85.7-3.53,97.65-10.54c15.39-9.04,23.4-32.3,23.4-70.44
		c0-14.57-14.22-29.41-23.4-42.92c-8.87-13.04-16.56-53.16-24.55-116.95c-1.74-11.41,2.93-18.78,13.68-22.22
		c6.26-2,12.02-0.73,16.56,3.96c13.72,14.08,23.66,45.89,29.14,94.9c6.53,58.47,13.13,97.87,20.56,116.7
		c14.86,38.36,42.26,57.36,81.67,57.36c9.13,0,20.06-1.32,33.09-4.14c15.35-3.32,26.84-4.78,33.72-5.45
		c5.47-4.1,8.21-6.14,13.68-10.2c6.29-4.76,9.72-8.8,9.72-13.55c0-6.11-3.43-13.02-10.28-21.87
		C1796.16,1714.57,1790.91,1708.33,1790.32,1706.27z M1168.89,1493.51c-1.7-0.89-6.84-0.67-14.27,0.52
		c-4.58,0.73-18.27,4.64-22.85,5.37c-9.69,1.54-14.83,0.65-14.83-2.82c0-7.47,2.83-18.89,9.13-34.37
		c7.34-18.01,14.27-27.45,20.56-28.61c10.83-1.99,19.5,4.63,25.7,19.36c6.88,16.35,10.28,26.56,10.28,29.51
		C1182.61,1487.8,1178.03,1491.5,1168.89,1493.51z M1589.33,1412.22c-6.9,12.47-16.01,19.24-27.44,19.43
		c-6.29,0.1-9.69-5.76-10.28-16.88c-1.82-26.94-2.73-40.3-4.55-66.81c-1.74-10.92,8.54-20.91,18.27-21.19
		c22.26-0.65,33.13,15.34,33.13,47.34C1598.46,1387.83,1595.53,1401,1589.33,1412.22z M2130.22,1417.75
		c0,32.64-12.02,45.37-36.57,39.52c-13.72-3.27-25.27-15.34-33.68-35.85c-8.63-21.05-17.71-33.08-26.29-35.05
		c0,0-1.7,0.21-5.69,1.13c3.19,31.66,4.79,47.47,7.99,79.01c1.14,9.22,1.71,13.83,2.85,23.04c4.58,36.7,9.23,72.12,15.42,106.72
		c6.95,38.87,12.02,62.85,17.71,69.9c9.13,12.76,24,26.23,24,38.62c0,32.41-8.1,51.58-24,59.23c-11.95,5.75-44.55,8.72-97.65,8.47
		c-42.26-0.2-70.81-4.9-85.08-14.98c-14.28-10.09-21.15-29.62-21.15-58.23c0-6.66,3.76-13.89,10.87-21.56
		c8.56-9.22,13.68-15.27,14.83-18.49c5.73-12.22,12.44-44.24,20-93.28c7.26-47.12,12.93-89.17,15.42-126.07
		c0.63-9.38,1.7-32.25,2.29-68.23c-5.73-3.44-8.58-5.13-8.58-5.13c-5.14-0.79-9.4,3.81-13.13,13.33
		c-5.31,13.57-10.28,22.9-14.27,26.89c-8.58,9.2-21.7,12.87-38.27,11.2c-14.27-1.43-23.3-7.77-27.43-18.22
		c-2.64-6.68-3.99-19.25-3.99-38.04c0-19.46,5.37-39.13,15.42-59.1c11.51-22.88,24.55-33.54,39.41-31.38
		c5.14,0.75,13.14,3.84,24,8.76c10.83,4.92,18.82,7.58,23.96,8.51c63.96,11.48,106.82,22.33,128.52,26.77
		c3.99,0.55,11.98-3.05,17.12-1.47c15.97,4.9,29.66,20.19,41.11,45.21C2125,1380.07,2130.22,1399.99,2130.22,1417.75z"/>
</g>
</svg>
