<?xml version="1.0" standalone="no"?>
<!DOCTYPE svg PUBLIC "-//W3C//DTD SVG 20010904//EN"
 "http://www.w3.org/TR/2001/REC-SVG-20010904/DTD/svg10.dtd">
<svg version="1.0" xmlns="http://www.w3.org/2000/svg"
 width="2500.000000pt" height="2500.000000pt" viewBox="0 0 2500.000000 2500.000000"
 preserveAspectRatio="xMidYMid meet">

<g transform="translate(0.000000,2500.000000) scale(0.100000,-0.100000)"
fill="#000000" stroke="none">
<path d="M3623 20011 c-105 -36 -159 -98 -253 -286 -164 -332 -331 -885 -454
-1505 -24 -124 -50 -261 -57 -305 -18 -115 -25 -75 -38 241 -31 719 -68 1217
-107 1437 -15 79 -19 89 -45 102 -59 31 -180 11 -193 -32 -20 -74 -41 -318
-71 -828 -8 -143 -20 -343 -25 -445 -31 -533 -29 -1678 5 -2210 8 -135 19
-324 25 -420 14 -244 57 -707 76 -815 21 -125 34 -163 66 -195 97 -97 432 -89
502 12 11 16 16 46 16 103 0 144 -29 519 -73 930 -41 391 -42 407 -40 720 4
633 75 1337 194 1905 103 494 267 981 414 1228 53 89 122 175 135 167 11 -7
53 -136 79 -240 68 -275 138 -825 202 -1585 19 -230 69 -601 104 -769 76 -367
142 -506 268 -562 43 -19 69 -23 152 -24 118 0 182 23 214 75 12 20 37 123 66
274 93 479 211 868 428 1401 158 391 410 881 588 1146 68 101 177 239 189 239
42 0 20 -386 -55 -980 -106 -841 -185 -1580 -211 -1990 -18 -274 -15 -803 6
-970 18 -150 76 -425 115 -545 46 -141 113 -277 169 -340 116 -134 332 -173
503 -93 140 66 338 334 593 801 297 545 538 1187 686 1829 31 135 14 126 154
82 216 -68 225 -118 110 -624 -108 -478 -204 -963 -256 -1295 -25 -159 -29
-207 -29 -415 0 -227 1 -239 28 -335 33 -120 101 -264 153 -323 103 -120 270
-154 416 -84 181 86 320 305 456 722 40 122 203 755 237 918 6 30 4 33 -31 48
-43 18 -120 13 -142 -10 -8 -7 -43 -114 -79 -237 -105 -363 -192 -643 -234
-757 -52 -139 -137 -317 -193 -400 -54 -81 -122 -150 -135 -137 -19 20 -59
174 -71 269 -25 199 1 432 114 1027 197 1034 232 1361 164 1510 -56 122 -150
180 -420 259 -95 28 -176 54 -180 58 -4 4 -3 25 2 47 20 92 42 301 47 465 14
423 -93 704 -295 780 -33 13 -91 24 -138 27 -239 16 -427 -111 -548 -368 -51
-106 -70 -188 -70 -299 0 -207 93 -399 250 -519 79 -60 248 -145 379 -191 49
-17 91 -32 92 -34 5 -5 -44 -235 -83 -391 -165 -656 -427 -1280 -765 -1825
-139 -225 -324 -449 -348 -425 -21 21 -63 208 -88 395 -26 186 -27 215 -27
625 -1 502 4 584 129 1930 80 865 103 1269 86 1532 -24 379 -129 518 -391 518
-126 0 -183 -20 -260 -92 -118 -109 -231 -294 -475 -782 -255 -509 -461 -993
-650 -1526 -43 -121 -81 -223 -84 -227 -4 -4 -19 97 -35 225 -40 336 -103 805
-131 986 -126 805 -285 1246 -491 1367 -93 55 -241 70 -341 35z m3867 -1148
c95 -107 150 -330 150 -601 0 -119 -23 -388 -34 -399 -6 -6 -84 35 -149 79
-76 52 -140 134 -180 233 -31 77 -32 85 -32 225 1 140 2 148 34 232 43 114
142 268 172 268 4 0 22 -17 39 -37z"/>
<path d="M14252 19880 c-31 -13 -49 -61 -70 -183 -38 -226 -7 -2532 49 -3577
16 -310 62 -618 103 -698 19 -37 65 -78 101 -92 124 -48 348 -19 385 49 13 25
13 169 0 381 -6 91 -15 242 -20 335 -6 94 -19 285 -30 425 -44 590 -43 579
-26 800 67 843 247 1674 455 2105 58 119 112 205 131 205 14 0 48 -85 80 -200
38 -138 107 -496 165 -850 111 -684 149 -883 211 -1094 63 -213 113 -281 229
-307 125 -28 290 8 314 69 6 15 24 110 41 212 55 339 174 744 320 1095 55 130
232 479 320 630 129 220 265 402 340 455 l30 22 20 -44 c74 -168 50 -624 -110
-2058 -102 -915 -113 -1310 -44 -1650 53 -263 155 -387 352 -429 74 -16 215
-13 291 4 330 78 657 554 919 1340 95 284 179 639 197 833 4 39 10 72 14 72 3
0 58 9 121 20 63 11 116 20 118 20 10 0 -4 -121 -37 -334 -121 -763 -112
-1514 21 -1918 57 -176 125 -238 260 -238 125 0 163 26 243 165 173 299 501
1090 645 1553 17 56 35 102 39 102 4 0 38 -60 76 -132 37 -73 114 -218 170
-323 135 -250 195 -371 195 -390 0 -9 -24 -46 -54 -83 -211 -265 -406 -649
-462 -911 -45 -215 15 -451 150 -586 119 -118 271 -171 469 -163 241 11 393
109 506 327 91 178 125 323 125 536 0 125 -5 172 -28 280 -32 154 -113 399
-190 579 -31 70 -56 132 -56 137 0 12 68 73 157 140 101 76 229 142 359 185
157 51 184 74 129 110 -88 57 -451 -45 -680 -191 -30 -19 -58 -35 -64 -35 -20
0 -399 739 -489 955 -74 177 -97 268 -97 395 0 95 3 111 28 162 31 64 75 101
118 101 57 0 160 -62 249 -152 176 -177 302 -412 355 -663 9 -43 23 -85 31
-93 20 -19 58 -19 77 0 43 43 56 268 22 385 -84 292 -269 538 -474 632 -182
83 -442 78 -627 -13 -71 -35 -159 -120 -193 -187 -76 -150 -67 -341 30 -602
23 -63 42 -122 41 -131 -2 -47 -271 -764 -410 -1094 -131 -311 -319 -712 -329
-701 -9 9 -33 305 -38 486 -7 222 6 766 30 1246 20 403 9 484 -73 539 -71 47
-170 51 -387 15 -33 -5 -63 -10 -66 -10 -3 0 -9 73 -12 163 -14 344 -94 540
-255 619 -64 32 -71 33 -187 33 -102 0 -129 -4 -178 -24 -208 -83 -355 -415
-276 -626 54 -145 266 -251 572 -286 l105 -12 -4 -31 c-45 -351 -91 -538 -213
-876 -112 -306 -248 -578 -394 -785 -85 -121 -271 -309 -345 -348 l-52 -28
-26 54 c-55 122 -80 377 -71 741 7 262 19 457 61 941 66 754 79 1001 80 1460
0 277 -4 426 -13 485 -39 259 -105 385 -236 450 -44 22 -63 25 -165 25 -123 0
-155 -10 -237 -72 -79 -60 -211 -251 -378 -548 -252 -446 -387 -737 -570
-1223 -15 -40 -29 -71 -31 -69 -3 2 -32 117 -64 255 -225 942 -374 1379 -522
1538 -71 75 -133 105 -234 112 -168 11 -258 -56 -362 -270 -119 -244 -241
-647 -347 -1152 -19 -94 -37 -171 -39 -173 -2 -3 -7 22 -10 54 -120 1103 -171
1536 -186 1579 -6 17 -22 36 -36 43 -29 13 -119 14 -152 1z m4392 -1390 c90
-100 144 -278 160 -533 7 -105 5 -107 -92 -83 -143 35 -235 100 -261 185 -25
85 -8 221 43 334 29 65 82 137 100 137 7 0 30 -18 50 -40z m2394 -2631 c153
-427 159 -754 21 -1021 -42 -80 -105 -148 -137 -148 -28 0 -108 57 -146 104
-134 165 -147 395 -37 676 69 179 235 494 256 487 5 -2 25 -46 43 -98z"/>
<path d="M11350 19280 c-151 -33 -273 -91 -411 -195 -376 -282 -541 -734 -407
-1114 40 -113 83 -197 157 -307 95 -142 182 -233 444 -472 26 -23 47 -44 47
-46 0 -2 -34 -6 -75 -10 -157 -14 -314 -75 -442 -173 -185 -140 -351 -432
-415 -729 -19 -92 -23 -137 -23 -294 0 -167 3 -195 27 -292 126 -497 482 -886
919 -1003 82 -22 115 -25 254 -25 130 0 174 4 234 20 148 41 237 109 339 258
248 364 461 949 479 1320 3 61 9 112 13 112 4 0 40 -14 81 -31 195 -81 432
-149 584 -170 131 -17 301 -9 345 17 43 25 47 58 10 85 -14 10 -70 28 -124 40
-191 40 -451 146 -670 273 -61 35 -135 76 -163 90 -222 111 -456 149 -655 108
-164 -34 -324 -127 -368 -212 -26 -51 -25 -75 2 -94 37 -26 78 -19 148 24 76
47 148 76 239 95 61 13 71 12 126 -6 64 -22 226 -105 237 -122 19 -30 -25
-339 -73 -512 -77 -274 -245 -648 -389 -868 -142 -216 -232 -284 -360 -274
-155 11 -368 158 -513 355 -203 275 -297 546 -297 861 0 419 194 835 445 953
83 39 162 45 274 24 140 -27 241 -18 304 26 31 23 34 51 9 90 -10 15 -103 118
-208 230 -294 314 -360 399 -458 595 -71 142 -98 245 -98 378 0 253 99 491
282 676 231 235 468 269 736 108 129 -78 237 -210 290 -353 49 -132 50 -134
94 -147 31 -9 49 -10 80 0 47 14 48 18 21 122 -77 303 -321 527 -643 593 -108
22 -317 20 -428 -4z"/>
<path d="M22045 15776 c-73 -32 -137 -153 -116 -219 15 -45 66 -93 120 -112
51 -18 158 -20 212 -4 62 19 105 81 76 111 -8 7 -16 41 -19 76 -11 116 -61
162 -178 162 -36 -1 -79 -7 -95 -14z"/>
<path d="M9522 14996 c-90 -30 -121 -62 -122 -126 0 -94 63 -150 172 -150 58
0 77 5 135 35 79 42 113 75 113 113 0 41 -34 89 -80 112 -54 27 -160 35 -218
16z"/>
<path d="M1744 14569 c-100 -29 -152 -208 -91 -312 15 -25 71 -87 124 -137 54
-51 91 -90 83 -87 -8 3 -97 44 -196 91 -306 143 -544 230 -788 288 -73 18
-122 22 -251 22 -141 0 -166 -2 -214 -21 -111 -45 -154 -94 -166 -190 -10 -73
7 -113 74 -175 86 -80 333 -249 485 -333 l37 -21 -99 -82 c-209 -172 -283
-276 -305 -423 -18 -128 11 -204 101 -256 94 -55 298 -39 533 43 150 52 423
171 668 290 118 57 215 104 216 104 1 0 -13 -46 -33 -102 -43 -128 -54 -244
-27 -313 31 -83 102 -95 257 -45 175 56 435 201 638 355 30 23 60 44 66 48 8
4 11 -27 11 -106 0 -92 4 -122 22 -169 43 -110 120 -146 249 -114 99 24 256
105 357 184 145 113 333 316 396 427 l31 55 1276 0 c703 0 2334 5 3626 10
l2350 10 165 -168 c163 -166 263 -252 316 -272 35 -13 164 -13 202 1 46 16
211 203 295 334 l73 115 450 0 c1431 1 8080 62 9307 85 l307 6 -2 -173 c-2
-169 -1 -174 25 -230 34 -72 69 -93 142 -84 71 10 388 118 725 248 156 60 342
130 412 154 248 87 255 92 265 208 8 87 -11 112 -112 153 -43 17 -135 56 -204
87 -294 127 -914 332 -1116 367 -79 14 -106 0 -137 -69 -18 -41 -21 -72 -25
-229 l-4 -183 -842 0 c-1297 0 -5629 -18 -7404 -30 -877 -7 -1596 -10 -1598
-7 -3 2 13 38 35 78 62 116 84 191 79 276 -2 53 -9 79 -24 100 -56 75 -203
103 -331 65 -129 -40 -313 -167 -418 -289 -32 -37 -64 -74 -71 -82 -10 -11
-29 2 -108 72 -152 133 -257 177 -427 177 -117 0 -188 -19 -237 -65 -37 -33
-37 -34 -37 -112 0 -71 4 -85 38 -152 21 -41 36 -75 34 -78 -2 -2 -483 -8
-1068 -13 -2397 -22 -4172 -42 -5317 -60 l-624 -10 -38 32 c-21 18 -89 80
-152 139 -214 197 -391 326 -572 418 -142 73 -216 95 -312 96 -72 0 -85 -3
-121 -28 -54 -37 -82 -92 -90 -171 -3 -36 -8 -66 -11 -66 -3 0 -42 20 -86 44
-425 232 -673 316 -812 275z m219 -256 c103 -34 424 -192 730 -360 136 -75
246 -137 245 -138 -2 -1 -131 -6 -288 -9 l-285 -7 -11 28 c-6 17 -118 126
-277 272 -147 134 -267 245 -267 248 0 9 71 -7 153 -34z m1019 -19 c204 -65
420 -193 663 -393 l79 -66 -59 -6 c-33 -4 -152 -7 -265 -8 l-205 0 -28 44
c-15 24 -58 70 -95 102 -113 97 -299 323 -285 345 10 17 116 7 195 -18z
m-2262 -89 c207 -39 546 -137 794 -229 154 -58 439 -177 434 -182 -2 -1 -158
-8 -348 -14 -190 -6 -401 -15 -470 -19 -112 -8 -126 -7 -140 8 -8 10 -71 53
-140 96 -199 123 -478 321 -483 342 -6 26 208 25 353 -2z m860 -594 l375 -7
-89 -43 c-132 -63 -506 -211 -696 -275 -305 -102 -522 -141 -574 -103 -17 12
-9 23 88 124 58 61 151 150 206 198 55 48 102 96 106 107 5 18 13 19 107 12
56 -3 271 -9 477 -13z m1287 -46 c-135 -103 -399 -264 -572 -350 -272 -134
-324 -148 -309 -81 21 102 116 289 194 387 28 34 50 66 50 71 0 4 154 8 341 8
l342 0 -46 -35z m850 21 c5 -4 -221 -190 -285 -234 -94 -65 -259 -147 -326
-162 -41 -9 -53 -8 -74 6 -24 16 -25 17 -20 133 5 122 7 127 67 219 l33 51
302 -6 c165 -3 302 -6 303 -7z"/>
<path d="M21813 9205 c-141 -32 -409 -148 -561 -243 -99 -61 -285 -199 -360
-265 -80 -72 -168 -174 -199 -233 l-27 -52 -1080 -5 c-595 -4 -2206 -11 -3581
-17 -1375 -6 -2692 -13 -2927 -17 l-427 -6 40 121 c49 153 58 225 34 288 -43
114 -219 157 -387 94 -132 -49 -347 -225 -429 -350 l-16 -25 -82 77 c-105 99
-232 183 -323 215 -62 22 -84 24 -177 21 -79 -2 -116 -8 -145 -22 -104 -52
-101 -166 11 -413 4 -10 -26 -13 -133 -13 -173 0 -1968 -16 -3309 -30 -2234
-23 -4010 -48 -5259 -76 l-299 -7 6 62 c4 34 23 128 43 208 30 121 35 158 32
228 -7 187 -84 190 -453 17 -88 -41 -298 -136 -467 -212 -359 -161 -441 -205
-509 -276 -47 -51 -49 -55 -49 -109 0 -65 17 -101 63 -132 18 -12 165 -78 327
-146 378 -159 452 -193 729 -331 125 -63 252 -122 281 -132 l53 -17 24 27 c32
37 30 87 -7 216 -30 102 -70 317 -70 372 l0 27 1708 -6 c939 -3 3009 0 4600 6
l2894 12 136 -133 c224 -218 388 -339 478 -352 81 -11 148 -7 184 12 46 23 86
77 205 283 55 94 104 177 110 184 8 10 350 15 1685 24 2665 18 5500 44 6180
57 l336 6 38 -116 c73 -223 201 -445 342 -595 136 -145 347 -302 460 -343 133
-48 305 -31 361 36 23 28 25 36 20 96 -7 83 -61 240 -152 444 l-26 59 92 -84
c326 -300 564 -453 851 -549 201 -67 440 -80 543 -29 62 31 88 75 79 134 -11
72 -62 188 -154 349 -49 87 -90 161 -90 163 0 2 35 -25 78 -59 185 -148 502
-334 637 -374 87 -26 216 -24 277 3 121 55 118 202 -7 380 -71 99 -368 392
-548 539 l-37 31 152 62 c341 141 515 238 616 345 62 65 82 108 82 173 0 43
-4 50 -49 94 -76 73 -120 84 -336 84 -152 0 -196 -4 -283 -23 -128 -29 -276
-80 -400 -138 -52 -24 -96 -44 -97 -44 -2 0 11 25 27 56 25 46 30 63 25 102
-4 39 -12 53 -45 83 -78 69 -232 94 -397 65 -147 -25 -472 -136 -686 -233
l-66 -31 73 122 c81 136 93 166 74 202 -33 61 -200 90 -337 59z m31 -227 c-51
-100 -274 -382 -338 -428 -27 -19 -78 -59 -112 -88 l-64 -52 -216 2 -217 3
134 96 c183 131 443 304 564 374 100 58 257 135 263 130 2 -2 -4 -18 -14 -37z
m1026 -48 c0 -5 -28 -50 -62 -100 -35 -49 -115 -164 -178 -255 l-115 -165
-408 0 -408 0 32 45 c18 25 40 52 49 60 20 18 370 175 563 251 180 72 475 174
505 174 12 0 22 -4 22 -10z m1102 -107 c25 -23 23 -52 -10 -104 -41 -64 -113
-108 -322 -198 -102 -43 -215 -93 -251 -110 l-66 -30 -79 15 c-44 8 -135 18
-203 22 l-124 7 119 67 c325 182 598 293 819 333 94 18 96 17 117 -2z m-476
-875 c121 -123 248 -256 283 -297 68 -79 121 -178 121 -224 l0 -29 -124 65
c-298 155 -575 367 -825 629 l-64 67 154 4 c85 1 172 4 195 5 41 2 41 2 260
-220z m-952 175 c46 -73 355 -640 405 -743 51 -106 80 -194 69 -206 -15 -14
-201 51 -333 115 -152 75 -297 168 -445 286 -135 107 -350 307 -485 451 l-116
123 163 4 c90 1 288 4 440 5 l278 2 24 -37z m-1221 -55 c20 -46 81 -185 136
-310 106 -242 155 -367 146 -376 -9 -10 -191 184 -267 285 -40 54 -129 181
-196 283 l-124 185 69 6 c37 3 98 6 134 7 l66 2 36 -82z"/>
<path d="M17485 7726 c-266 -61 -496 -253 -551 -460 -18 -68 -18 -73 11 -101
20 -21 34 -25 84 -25 86 0 107 13 146 90 67 132 178 239 325 309 102 49 168
50 261 4 223 -110 277 -330 180 -728 -43 -175 -86 -289 -256 -680 -84 -192
-207 -478 -273 -635 -120 -284 -306 -715 -545 -1261 -69 -157 -133 -312 -142
-343 -15 -52 -15 -59 -1 -81 25 -38 74 -58 156 -63 71 -4 85 -1 255 56 334
112 781 220 1070 257 141 18 348 21 388 6 73 -28 199 0 205 45 7 51 -104 92
-276 103 -316 21 -716 -31 -1192 -156 -96 -25 -185 -48 -198 -50 -21 -5 -19 1
27 98 54 116 178 370 391 804 78 160 222 459 320 665 98 206 215 452 260 545
215 447 286 670 297 925 6 160 -8 236 -64 342 -73 140 -254 268 -448 319 -103
27 -340 35 -430 15z"/>
<path d="M19694 7710 c-83 -19 -114 -55 -219 -255 -88 -166 -254 -457 -383
-670 -63 -104 -180 -297 -259 -428 -79 -130 -209 -359 -290 -508 -128 -239
-144 -274 -135 -294 26 -58 133 -75 382 -63 449 22 874 38 878 33 3 -3 7 -58
9 -123 16 -593 48 -1057 94 -1397 25 -188 27 -190 139 -190 105 0 116 10 129
125 23 194 33 621 26 1106 l-8 492 91 7 c110 9 312 -1 442 -22 54 -8 117 -12
146 -8 50 6 114 36 114 54 0 43 -72 83 -199 111 -85 19 -315 38 -501 43 l-95
2 -7 535 c-7 577 -19 841 -48 1100 -24 211 -36 264 -67 300 -41 49 -150 72
-239 50z m-32 -1991 c-4 -4 -135 -12 -292 -18 -157 -6 -350 -16 -429 -22 -79
-5 -146 -8 -148 -5 -3 2 27 51 65 108 207 309 525 858 723 1248 l74 145 7
-725 c4 -399 4 -728 0 -731z"/>
<path d="M13805 7659 c-265 -35 -536 -174 -797 -407 -194 -173 -305 -336 -323
-477 -6 -42 -4 -54 15 -78 21 -26 27 -28 83 -25 l62 3 40 80 c51 102 73 133
159 224 289 300 754 550 935 501 179 -48 218 -307 110 -735 -37 -147 -129
-427 -197 -595 -80 -202 -153 -360 -360 -790 -182 -380 -346 -729 -653 -1394
-71 -153 -129 -288 -129 -301 0 -43 66 -75 154 -75 72 0 106 12 185 65 265
175 1052 444 1497 511 94 14 122 15 206 4 102 -14 150 -8 193 24 16 12 18 18
8 39 -10 21 -28 31 -85 49 -105 33 -383 32 -572 -1 -309 -54 -714 -172 -1033
-300 -29 -11 -53 -19 -53 -17 0 2 145 293 322 647 503 1009 618 1251 734 1547
118 299 207 596 239 792 20 124 20 298 -1 375 -41 158 -162 267 -351 316 -92
23 -284 32 -388 18z"/>
<path d="M9613 7599 c-99 -30 -197 -206 -324 -584 l-47 -140 -154 -7 c-84 -3
-178 -11 -208 -17 -188 -38 -320 -109 -320 -171 0 -63 93 -79 217 -35 38 13
99 29 134 34 62 10 279 15 279 7 0 -3 -14 -62 -31 -132 -29 -120 -35 -134
-101 -231 -175 -262 -390 -525 -599 -733 -124 -124 -379 -352 -424 -379 -23
-14 -27 -11 -127 85 -57 54 -212 190 -345 302 -274 229 -347 299 -397 374
-109 164 -80 408 72 609 68 89 154 166 204 181 36 11 48 9 106 -11 83 -29 161
-78 226 -144 71 -71 96 -106 190 -264 45 -75 93 -145 107 -155 37 -28 125 -34
169 -11 33 17 35 21 32 63 -2 25 -18 91 -37 147 -85 254 -193 392 -385 492
-118 62 -203 82 -366 88 -276 10 -447 -53 -621 -229 -93 -93 -136 -153 -183
-253 -104 -222 -87 -440 49 -620 l39 -51 -190 -345 c-228 -413 -316 -562 -459
-774 -235 -347 -462 -607 -647 -740 l-53 -37 -40 28 c-97 67 -218 268 -259
430 -50 193 -44 478 16 839 8 50 17 97 19 105 3 9 34 23 72 34 356 101 689
301 893 538 235 272 329 562 256 793 -76 239 -276 368 -546 351 -52 -3 -119
-12 -148 -20 -243 -66 -473 -279 -685 -635 -101 -169 -222 -414 -291 -588 -55
-140 -126 -366 -126 -403 0 -22 15 -17 -235 -76 -252 -58 -438 -119 -580 -189
-202 -100 -338 -202 -406 -308 -69 -106 -61 -147 29 -147 53 0 77 12 97 49 40
79 175 179 352 263 170 80 311 122 682 204 22 5 23 3 17 -33 -3 -21 -8 -119
-12 -218 -10 -275 24 -462 119 -650 129 -258 359 -463 582 -520 89 -22 257
-20 339 5 253 79 653 537 996 1145 63 111 271 523 351 693 l24 53 200 -161
c244 -196 424 -353 528 -458 l78 -78 -148 -135 c-345 -314 -485 -547 -486
-804 -1 -210 100 -379 282 -474 113 -58 189 -75 351 -74 243 0 405 67 563 232
264 276 302 644 103 992 -54 93 -182 272 -223 311 -13 12 -23 27 -23 33 0 7
71 72 157 146 279 239 491 463 688 729 43 58 75 94 71 80 -14 -50 -19 -702 -7
-880 35 -511 136 -946 293 -1253 90 -176 192 -247 358 -247 117 0 215 45 268
122 126 184 198 449 318 1172 l56 339 -21 20 c-40 40 -197 32 -220 -11 -5 -9
-36 -138 -71 -287 -129 -561 -225 -900 -242 -859 -10 25 -74 427 -93 584 -48
398 -71 1159 -46 1510 11 154 47 450 56 459 3 2 233 -2 512 -9 l508 -13 48 21
c46 21 57 40 39 69 -25 39 -141 54 -742 94 -179 12 -327 23 -329 25 -3 3 12
82 33 177 81 365 100 476 90 503 -18 51 -56 69 -152 71 -48 1 -102 -2 -119 -8z
m-3652 -757 c58 -37 95 -82 133 -162 29 -60 31 -73 31 -170 -1 -88 -5 -117
-27 -178 -78 -218 -267 -438 -518 -607 -81 -54 -268 -150 -338 -174 l-33 -10
6 32 c13 63 116 360 176 510 127 315 263 556 385 683 52 53 117 104 135 104 3
0 25 -13 50 -28z m2013 -2174 c171 -262 201 -507 92 -734 -81 -167 -208 -284
-328 -300 -62 -8 -145 26 -211 86 -90 82 -137 193 -137 325 0 96 21 172 80
290 61 121 153 238 295 373 l106 102 23 -28 c13 -15 49 -66 80 -114z"/>
<path d="M15831 7350 c-24 -11 -58 -20 -75 -20 -54 0 -180 -36 -253 -74 -288
-144 -546 -529 -730 -1084 -77 -234 -97 -361 -90 -577 12 -359 117 -623 333
-841 190 -190 418 -284 689 -284 275 0 482 94 690 311 101 105 177 220 254
380 144 300 206 547 218 859 15 412 -90 712 -341 977 -127 134 -378 327 -467
358 -61 22 -174 19 -228 -5z m154 -260 c364 -325 477 -533 505 -928 10 -146
-2 -334 -31 -477 -61 -302 -227 -633 -408 -814 -127 -127 -274 -210 -345 -195
-95 20 -228 122 -322 247 -195 260 -269 698 -184 1091 71 325 226 725 360 930
89 136 221 256 283 256 11 0 74 -50 142 -110z"/>
<path d="M11240 4074 c-88 -38 -140 -132 -140 -253 0 -152 71 -236 212 -248
85 -8 143 12 197 66 62 64 81 110 81 201 0 127 -30 189 -111 230 -48 25 -186
27 -239 4z"/>
</g>
</svg>
