<?xml version="1.0" encoding="utf-8"?>
<!-- Generator: Adobe Illustrator 25.0.1, SVG Export Plug-In . SVG Version: 6.00 Build 0)  -->
<svg version="1.1" id="Layer_1" xmlns="http://www.w3.org/2000/svg" xmlns:xlink="http://www.w3.org/1999/xlink" x="0px" y="0px"
	 viewBox="0 0 2400 2400" style="enable-background:new 0 0 2400 2400;" xml:space="preserve">
<g>
	<path transform="translate(0.000000,2400.000000) scale(0.100000,-0.100000)" d="M3244.9,18115.2c-229-29-500-132-705-269
		c-554-369-1076-1158-1351-2043c-145-467-220-899-245-1400c-51-1023,201-1769,665-1971c111-48,202-65,356-64c124,0,160,4,245,27
		c214,56,419,190,661,431c155,154,244,259,402,470c87,116,304,437,439,649c25,40,32,45,36,30c10-31,26-503,32-934
		c7-453-7-1172-30-1473l-14-198l-163-172c-222-234-257-271-397-431c-658-750-1167-1580-1346-2198c-59-203-79-331-79-513
		c0-236,41-373,146-477c168-169,506-185,798-38c271,136,541,451,755,879c287,573,502,1360,614,2246c30,237,61,537,61,597
		c1,111,2,113,217,331c917,935,1446,1642,1693,2269c41,104,43,107,99,142c31,19,103,71,161,115c58,43,107,78,108,76
		c2-2-37-104-86-227c-429-1062-706-2094-752-2801c-23-354,19-582,125-675c70-62,182-87,322-71c248,28,384,201,783,1002
		c98,198,180,360,182,362s4-83,5-188c4-613,189-897,583-897c164,0,296,53,418,165c330,306,623,1158,671,1946l7,127l85,79
		c46,43,106,99,133,124c47,42,49,43,42,17c-10-41-61-336-80-458c-46-300-59-716-31-937c36-273,111-457,240-588
		c209-212,593-222,854-20c186,143,392,458,510,782c155,426,226,1037,167,1432l-14,94l91,101c113,124,195,223,321,389
		c54,70,100,126,102,124s-2-94-10-203c-30-401-39-829-26-1247c6-216,15-457,20-537s15-246,21-370c7-124,16-235,20-247
		c29-79,275-97,359-26l30,25l-2,176c-3,362,91,831,275,1377c91,268,253,631,371,830c53,89,148,225,157,225c10,0,18-124,34-513
		c14-342,43-925,65-1302c5-93,9-246,7-340c-2-193,1-203,66-237c33-17,60-22,122-22c92,0,142,14,176,50l24,26v271c1,280,2,296,51,517
		c131,599,433,1287,748,1708c83,110,218,252,241,252c19,0,25-34,25-147c0-170-37-408-194-1258c-19-97-70-420-91-570
		c-47-337-59-664-30-828c29-165,82-243,209-303s216-77,390-72c128,4,162,8,223,29l73,25l41-63c64-98,175-195,283-248
		c148-73,221-88,426-89c150,0,186,3,256,21c317,87,552,319,635,628c18,65,22,110,23,235c1,164-7,218-51,355c-54,168-177,382-323,559
		l-62,76l50,58c98,111,365,362,387,362c4,0,5-51,3-112c-12-254,15-595,72-923c46-267,49-285,61-379c17-131,51-156,214-156
		c88,0,155,23,174,58c16,29,14,133-5,264c-17,126-13,183,32,408c79,397,277,914,483,1260c74,124,160,242,171,235
		c26-16,78-293,115-617c46-405,55-548,48-773c-4-158-3-216,6-234c37-68,230-82,292-20c17,17,19,34,19,173c0,177,27,362,84,581
		c45,170,82,270,162,435c78,162,185,325,291,445c76,86,205,195,230,195c21,0,15-124-11-241c-14-59-49-196-80-305
		c-173-622-230-953-230-1354c0-256,16-393,65-545c69-218,175-305,369-305c110,0,181,24,238,80c68,65,217,298,342,535
		c35,66,65,122,66,124c2,2,29-19,59-48c89-84,195-121,348-121c140,0,260,40,354,117c50,41,138,154,183,236l33,59l38-116
		c21-64,59-156,84-206c79-152,156-200,320-200c158,0,230,48,285,191c57,148,126,454,227,1004l38,210l7-110c21-307,82-882,114-1070
		c8-51,22-97,32-109c35-39,91-56,192-56c106,0,166,20,195,63c11,17,25,102,45,266c17,133,42,301,56,374c92,476,277,995,458,1281
		c59,92,132,186,146,186c17,0,30-104,30-233c0-212-22-337-150-850c-92-372-161-709-192-940c-27-200-32-596-9-687
		c20-81,47-127,92-160c55-39,126-53,245-48c177,8,309,72,460,222c150,151,241,309,363,634c34,90,61,168,61,173c0,25-66,49-133,49
		c-107,0-110-3-226-221c-113-213-185-329-271-434c-64-78-167-171-178-160c-15,14-6,438,12,584c22,184,84,536,142,806
		c141,657,148,699,148,930c0,188-15,281-59,371c-36,73-100,129-171,150c-80,23-221,16-288-14c-110-49-215-157-336-343
		c-79-122-234-434-309-624c-46-117-61-144-65-125c-7,30-30,278-51,530c-43,530-54,573-156,600c-53,15-145,8-186-13
		c-20-11-37-32-51-64c-11-26-61-221-112-433c-229-955-323-1322-388-1510l-19-55l-20,55c-34,90-82,297-98,423c-27,210-19,524,20,774
		c23,154,35,324,23,346c-14,26-85,57-133,57c-37,0-42,3-65,47c-41,77-124,159-198,195c-62,31-75,33-188,37c-135,3-195-9-293-59
		c-168-86-317-269-466-573c-139-281-191-499-183-767c3-97,12-182,22-228l18-72l-86-166c-127-244-362-624-386-624
		c-10,0-39,107-57,205c-20,114-28,491-14,660c24,294,77,587,185,1020c81,329,96,406,96,514c0,70-4,95-22,131
		c-60,119-260,162-459,101c-209-65-457-322-662-685l-61-109l-23,153c-43,291-89,419-170,470c-142,90-344,57-482-79
		c-142-139-347-470-496-802c-75-167-66-184-95,171c-33,390-47,480-83,505c-28,20-116,19-144,0c-31-21-60-122-75-255l-12-109l-86-35
		c-163-68-323-173-503-330l-88-77l-135,127c-222,210-277,299-277,454c-1,148,59,293,170,411c107,113,211,153,325,125
		c102-26,243-100,305-162l53-54h66c56,0,68,4,89,25c33,32,31,62-5,116c-58,88-228,189-384,229c-112,28-336,28-456,0
		c-238-57-428-209-531-425c-97-202-93-383,12-546c44-67,145-171,389-400l144-135l-24-31c-14-16-69-81-124-144
		c-264-307-561-749-627-934c-28-80-99-156-189-204c-75-40-128-43-195-11c-40,19-52,32-72,77c-35,76-53,205-53,382
		c0,292,40,618,180,1461c100,602,114,718,108,896c-7,216-48,293-184,344c-51,19-73,21-171,18c-108-4-115-6-195-46
		c-107-53-190-123-290-241c-88-106-232-318-326-481c-75-132-226-435-278-559l-39-93l-7,48c-4,27-14,166-23,309
		c-32,525-61,637-178,690c-99,46-244,42-346-7c-100-49-250-229-383-463c-105-185-254-504-330-710c-16-44-32-82-34-85
		c-3-3-4,281-2,630c3,634,3,635-19,682c-33,73-80,93-213,93c-94,0-110-3-155-26c-65-35-144-119-342-364c-201-248-242-294-250-277
		c-19,46-113,169-170,223c-128,120-287,182-473,182c-117,1-196-13-285-50c-153-64-295-209-380-389c-22-47-30-55-68-65
		c-75-20-99-39-263-201c-181-179-163-173-179-58c-26,186-103,366-200,469c-117,124-251,175-455,174c-147,0-241-22-351-79
		c-181-96-355-338-420-584c-26-100-36-270-21-352c9-45,8-63-3-85c-7-15-40-95-73-178c-220-552-612-1354-884-1810
		c-87-144-222-335-238-335c-15,0-32,119-37,265c-11,317,55,769,196,1350c131,537,305,1079,576,1790c166,437,181,486,165,525
		c-20,47-83,72-185,72c-114,0-167-26-364-181c-85-66-156-119-158-118c-1,2,2,30,7,63c15,90,12,285-6,372c-54,268-211,396-489,396
		c-220,0-386-73-546-241c-226-237-359-597-305-827c67-282,334-419,705-362c57,9,106,14,108,12c7-6-91-196-164-319
		c-222-375-567-821-1017-1312c-133-145-298-315-306-315c-3,0-5,316-6,703c-1,605-4,749-23,1042c-34,526-61,733-106,801
		c-27,42-89,64-179,64c-171,0-196-22-448-399c-400-599-599-853-876-1123c-187-182-345-295-473-338c-78-27-103-25-174,9
		c-79,38-131,84-205,183c-176,234-301,650-330,1107c-66,1020,167,2074,647,2920c244,430,550,784,843,973c169,110,345,179,512,200
		c82,10,107,9,179-5c99-19,207-70,272-128c137-120,239-325,283-567c36-200,29-526-17-797c-111-651-446-1392-777-1719
		c-69-68-164-136-190-136c-25,0-109,97-140,162c-18,36-42,105-54,154c-20,79-23,113-23,314c0,255,20,412,56,440c28,22,14,99-21,117
		c-33,17-123,16-163-1c-124-51-228-362-229-681c0-321,90-522,282-624c163-87,418-83,601,10c300,151,626,644,843,1278
		c151,440,222,901,196,1273c-27,382-134,648-337,838c-60,56-100,83-187,125c-164,79-243,96-461,100
		C3360.9,18118.2,3263.9,18117.2,3244.9,18115.2z M5758.9,15001.2c87-81,132-242,123-440c-6-120-40-304-79-425l-23-70l-90-47
		c-111-57-230-98-288-98c-78,0-150,71-192,190c-73,207,47,578,255,792c77,78,176,138,228,138
		C5704.9,15041.2,5734.9,15023.2,5758.9,15001.2z M9874.9,14005.2c132-61,238-196,315-400c14-36,25-70,25-74c0-11-203-184-285-242
		c-89-64-220-128-260-128c-68,0-150,90-181,198c-24,80-15,225,18,320c50,139,173,299,260,337
		C9810.9,14035.2,9811.9,14035.2,9874.9,14005.2z M20159.9,13933.2c43-26,131-107,146-134c13-24-33-310-70-433
		c-84-282-203-586-323-825c-93-188-156-292-173-287c-16,5-72,153-96,252c-41,172-41,425,0,620c69,327,277,742,415,826
		C20089.9,13971.2,20100.9,13969.2,20159.9,13933.2z M8053.9,13892.2c150-77,246-338,258-701l5-165l-79-61c-152-119-320-217-406-238
		c-80-19-190,123-237,308c-44,172-20,371,65,552C7779.9,13843.2,7925.9,13957.2,8053.9,13892.2z M10249.9,12781.2
		c-63-528-226-982-469-1308c-79-105-200-226-257-256c-36-19-37-19-73,4c-104,63-198,266-242,515c-26,145-30,516-9,748
		c17,187,68,563,77,573c3,2,27-6,54-20c101-50,158-61,324-61c133,0,167,4,235,24c98,28,222,88,307,146l63,45l3-138
		C10264.9,12971.2,10258.9,12862.2,10249.9,12781.2z M8279.9,12604.2c-46-387-215-936-397-1291c-92-180-243-380-301-398
		c-28-9-58,27-109,134c-82,172-115,415-105,787c6,208,12,284,63,696c9,78,14,84,51,66c90-47,164-62,313-61c168,0,261,20,395,84
		c44,21,84,39,88,39C8282.9,12661.2,8282.9,12635.2,8279.9,12604.2z M15471.9,12484.2c171-281,228-546,174-808
		c-43-210-177-395-351-486c-62-32-148-32-212-1c-68,33-152,122-190,200c-60,121-44,229,63,437c64,126,155,280,242,410
		c78,117,221,314,227,315C15427.9,12551.2,15448.9,12521.2,15471.9,12484.2z M3664.9,10680.2c-85-639-196-1141-361-1634
		c-240-713-555-1213-879-1393c-121-67-168-65-236,10c-147,163-148,540-3,968c186,553,649,1301,1210,1955c125,146,290,327,295,322
		C3692.9,10906.2,3680.9,10804.2,3664.9,10680.2z"/>
</g>
</svg>
