<?xml version="1.0" encoding="utf-8"?>
<!-- Generator: Adobe Illustrator 25.2.0, SVG Export Plug-In . SVG Version: 6.00 Build 0)  -->
<svg version="1.1" id="Layer_1" xmlns="http://www.w3.org/2000/svg" xmlns:xlink="http://www.w3.org/1999/xlink" x="0px" y="0px"
	 viewBox="0 0 2200 2200" style="enable-background:new 0 0 2200 2200;" xml:space="preserve">
<g>
	<path d="M570.31,1828.01c1.13,3.68,0.11,7.65-2.63,10.06c-2.29,2.01-3.85,2.56-6.94,2.38c-3.54-0.18-4.47-0.72-8.28-4.92
		c-4.18-4.59-6.89-7.38-7.18-7.4c-0.11-0.01-1.65,2.07-3.38,4.59c-19.29,28.3-44.16,52.16-72.6,69.65
		c-52.63,32.36-113.88,40.38-168.09,22.06c-44.17-14.93-80.89-46.8-102.96-89.34c-3.19-6.11-6.06-12.38-8.05-17.41
		c-0.88-2.31-1.66-4.25-1.72-4.31c-0.24-0.3-2.87,2.28-3.47,3.37c-0.85,1.5-2.88,3.33-4.53,3.99c-1.97,0.81-4.49,1.06-6.24,0.59
		c-3.39-0.94-5.91-3.09-7.09-6.09c-0.93-2.37-0.75-5.49,0.49-7.76c1.62-3.01,6.95-8.19,11.5-11.22
		c6.11-4.06,21.11-10.53,32.09-13.86c3.33-1.02,3.99-1.14,6.13-1.02c2,0.12,2.64,0.27,3.92,0.97c5.33,2.86,6.71,9.91,2.91,14.56
		c-1.43,1.72-3.03,2.61-6.57,3.64c-3.36,0.98-10.91,3.64-11.44,4.03c-0.41,0.31-0.27,0.74,2.44,7.31
		c20.11,48.85,59.62,84.19,108.88,97.42c5.47,1.45,12.47,2.92,18.67,3.85c7.05,1.07,21.24,1.91,28.39,1.69
		c31.52-0.97,61.69-9.72,89.89-26.02c25.13-14.53,46.97-33.99,65.26-58.15c3.09-4.11,7.41-10.31,9.93-14.25l1.15-1.82l-1.8-1.49
		c-2.66-2.19-7.92-6.34-8.62-6.75c-0.33-0.22-0.85-0.39-1.16-0.41c-1.29-0.08-3.78-1.49-5.1-2.9c-4.64-4.93-2.84-12.95,3.49-15.45
		c1.47-0.56,2.16-0.66,4.55-0.57c1.78,0.05,3.23,0.25,3.92,0.54c5.73,2.29,21.41,15.27,34.36,28.43
		C566.83,1822.55,569.72,1826.06,570.31,1828.01z M450.31,1710.26c9.19,7.97,14.28,10.63,17.27,9.19
		c4.1-1.99,37.19-42.51,46.82-57.34c15.05-23.02,18.48-47.93,8.52-61.66c-4.98-6.98-15.05-10.41-24.91-8.64
		c-6.64,1.22-10.96,3.76-16.82,9.96c-6.42,6.64-12.18,16.27-16.94,27.79l-3.54,8.63l-6.31-12.29c-3.54-6.64-8.3-14.72-10.63-17.71
		c-18.04-23.69-50.03-15.83-50.15,12.29c0,12.4,8.08,31.33,21.25,49.81C422.64,1681.26,442.34,1703.39,450.31,1710.26z
		 M264.7,1710.26c9.19,7.97,14.28,10.63,17.27,9.19c4.1-1.99,37.19-42.51,46.82-57.34c15.05-23.02,18.49-47.93,8.52-61.66
		c-4.98-6.98-15.05-10.41-24.91-8.64c-6.64,1.22-10.96,3.76-16.82,9.96c-6.42,6.64-12.18,16.27-16.94,27.79l-3.54,8.63l-6.31-12.29
		c-3.54-6.64-8.3-14.72-10.63-17.71c-18.04-23.69-50.03-15.83-50.14,12.29c0,12.4,8.08,31.33,21.25,49.81
		C237.03,1681.26,256.73,1703.39,264.7,1710.26z M2075.38,1738.85c-2.12-3.94-9.1-10.72-15.06-14.69
		c-8-5.32-27.64-13.79-42.01-18.14c-4.37-1.33-5.23-1.5-8.02-1.33c-2.61,0.16-3.45,0.35-5.13,1.27c-6.98,3.74-8.79,12.97-3.81,19.07
		c1.87,2.25,3.97,3.42,8.6,4.77c4.4,1.29,14.28,4.76,14.98,5.28c0.54,0.41,0.35,0.97-3.2,9.57
		c-26.33,63.97-78.06,110.23-142.56,127.56c-7.16,1.9-16.32,3.82-24.45,5.04c-9.23,1.4-27.82,2.51-37.18,2.22
		c-41.27-1.27-80.78-12.73-117.7-34.06c-32.9-19.02-61.5-44.5-85.44-76.14c-4.05-5.38-9.71-13.5-13.01-18.66l-1.51-2.39l2.36-1.95
		c3.49-2.87,10.36-8.3,11.29-8.84c0.43-0.28,1.11-0.51,1.52-0.53c1.69-0.1,4.95-1.96,6.68-3.8c6.08-6.46,3.72-16.95-4.57-20.23
		c-1.93-0.73-2.82-0.86-5.96-0.75c-2.32,0.06-4.23,0.33-5.13,0.71c-7.51,3-28.03,20-44.99,37.22c-8.35,8.55-12.15,13.14-12.92,15.69
		c-1.48,4.82-0.14,10.02,3.45,13.17c3,2.63,5.04,3.36,9.09,3.11c4.64-0.24,5.86-0.94,10.84-6.45c5.48-6.02,9.03-9.66,9.4-9.68
		c0.15-0.01,2.16,2.71,4.42,6.02c25.26,37.06,57.82,68.29,95.06,91.19c68.91,42.37,149.11,52.88,220.08,28.88
		c57.83-19.55,105.91-61.28,134.81-116.98c4.18-8.01,7.94-16.21,10.54-22.79c1.15-3.02,2.18-5.56,2.25-5.64
		c0.31-0.39,3.76,2.99,4.55,4.42c1.12,1.97,3.77,4.36,5.93,5.23c2.58,1.07,5.88,1.39,8.17,0.77c4.44-1.22,7.74-4.04,9.28-7.98
		C2077.24,1745.91,2076.99,1741.82,2075.38,1738.85z M1682.67,1623.59c3.91,1.88,10.58-1.6,22.61-12.03
		c10.44-8.98,36.23-37.97,46.38-52.32c17.25-24.2,27.83-48.99,27.83-65.22c-0.14-36.81-42.03-47.11-65.66-16.09
		c-3.04,3.91-9.28,14.49-13.91,23.19l-8.26,16.09l-4.64-11.3c-6.23-15.08-13.77-27.68-22.18-36.38
		c-7.68-8.12-13.33-11.45-22.03-13.04c-12.9-2.32-26.09,2.17-32.61,11.31c-13.05,17.97-8.55,50.58,11.16,80.73
		C1633.97,1567.93,1677.31,1620.98,1682.67,1623.59z M1925.7,1623.59c3.91,1.88,10.58-1.6,22.61-12.03
		c10.44-8.98,36.23-37.97,46.38-52.32c17.25-24.2,27.83-48.99,27.83-65.22c-0.14-36.81-42.03-47.11-65.66-16.09
		c-3.04,3.91-9.28,14.49-13.91,23.19l-8.26,16.09l-4.64-11.3c-6.23-15.08-13.77-27.68-22.18-36.38
		c-7.68-8.12-13.33-11.45-22.03-13.04c-12.9-2.32-26.09,2.17-32.61,11.31c-13.05,17.97-8.55,50.58,11.16,80.73
		C1877,1567.93,1920.34,1620.98,1925.7,1623.59z"/>
	<path d="M356.67,403.55c-5.65-48.05-4.78-96.35-11.09-125.47c-1.67-7.7-11.65-13.15-24.48-13.15c-8.22,0.76-12.33,1.14-20.56,1.9
		c-23.07,2.28-42.1,8.03-57.12,17.07c-3.7,2.21-5.77,3.54-6.2,4.02c-3.27,3.42-4.9,8.08-4.9,14.01c0,3.94,1.14,9.79,3.43,17.63
		c2.29,7.82,3.42,13.71,3.42,17.67c0,14.05-2.5,34.2-7.5,60.09c-4.83,24.24-7.25,36.28-12.08,60.15
		c-6.53,32.66-10.34,53.32-11.43,62.56c-1.3,11.15-2.18,17.76-2.28,19.55c-0.3,5.2,1.58,9.64,4.73,12.36
		c3.15,2.73,9.52,4.77,19.09,6.03c9.14,1.2,18.28,1.02,27.42-0.61c2.35-1.04,3.53-1.57,5.88-2.62c2.4-0.7,4.02-1.62,4.9-2.76
		c0.86-6.54,1.87-13.1,2.93-19.62c2.21-13.52,3.92-22.06,5.22-25.41c8.26-0.73,13.16-1.07,14.69-0.94c4.57,0.39,10,2.25,11.42,4.7
		c1.79,3.1,1.92,13.18,2.62,24.15c0.62,9.75,1.84,17.87,3.58,24.25c6.96,5.88,16.1,9.37,27.42,10.34
		c10.66,0.92,20.58-0.18,29.7-3.31c6.08-2.08,9.13-6.05,9.13-11.87c0-1.02-0.98-9.82-2.93-26.45
		C365.68,478.25,362.68,453.37,356.67,403.55z M297.28,420.74c-2.83,2.34-5.66,3.44-8.49,3.27c-4.79-0.28-7.18-3.92-7.18-10.91
		c0-10.97,3.7-30.18,11.09-58.1c1.31,0.95,1.96,1.42,3.27,2.37c-0.22,1.51-0.32,3.9-0.32,7.16c0,4.79,0.43,11.9,1.3,21.36
		c0.87,9.46,1.31,16.59,1.31,21.35C298.26,412.01,297.93,416.52,297.28,420.74z M633.09,472.86c3.76,13.66,1.97,32.02,1.97,43.68
		c0,26.18-1.76,43.55-5.22,52.32c-1.75,4.64-7.44,8.06-15.68,8.59c-3.47,0.22-8.63,0.34-14.69,0.81
		c-7.34,0.57-12.33,0.73-14.69,0.77c-11.94,0.22-25.45,0.64-39.81,0.45c-11.09-0.15-18.71-1.32-22.84-3.48
		c-6.96-3.72-10.44-11.12-10.44-22.19c0-20.83,0.33-44.7,0.98-71.7c0.91-41.43,1.37-62.29,2.29-104.29
		c0.22-9.99,0.33-20.67,0.33-32.03c0-1.07-0.33-4.23-0.98-9.53c-1.97-17.21-4.36-31.42-7.19-42.6c-0.43-1.58-0.65-3.18-0.65-4.78
		c0-5.84,1.96-9.97,5.87-12.36c12.41-7.72,27.75-11.6,46.03-11.6c6.51,0,12.28,0.53,17.28,1.61c1.96,1.76,2.94,2.64,4.91,4.4
		c1.29,2.96,3.11,6.59,3.58,9.64c2.34,15.24-1.04,45.4-3.09,81.32c-2.07,35.92-3.11,62.61-3.11,80.38c0,15.41,0.22,24.13,0.65,26.2
		c1.31,6.26,5.01,9.4,11.1,9.42c3.48,0.01,8.92-2.45,16.31-7.38c7.39-4.94,12.62-7.43,15.66-7.43
		C626.03,463.09,631.53,467.19,633.09,472.86z M774.14,281.97c-9.12-11.27-22.47-17.04-40.06-17.04
		c-31.04,0-53.12,19.17-66.11,56.99c-12.62,36.73-18.89,77.5-18.89,121.9c0,4.7,0.53,13.71,1.63,26.96
		c3.9,47.32,16.5,79.46,37.77,96.84c8.69,7.21,20.2,10.59,34.52,10.16c16.95-0.51,30.08-4.98,39.41-13.42
		c30.39-27.38,45.6-76.19,45.6-149.05c0-30.48-1.72-54.22-5.21-71.07C797.85,320.28,788.25,299.55,774.14,281.97z M748.62,433.82
		c0,11.17-0.91,19.59-2.62,25.29c-2.63,8.77-7.94,13.3-16,13.45c-8.47,0.15-14.14-5.95-16.96-18.37
		c-1.52-6.46-2.29-16.71-2.29-30.81c0-30.03,2.16-48.69,6.53-55.52c3.22-5.03,6.85-7.57,10.76-7.6
		c13.71-0.09,20.57,14.94,20.57,44.68C748.62,416.52,748.62,422.3,748.62,433.82z M1003.53,280.6c0,14.85-6.32,53.01-18.93,115.86
		c-10.06,49.78-15.09,74.91-25.14,125.4c-1.74,8.87-4.78,15.36-9.13,19.51c-6.53,6.1-19.15,10.58-37.86,13.32
		c-18.93,2.78-30.92,3.55-35.9,2.3c-6.07-1.52-10.11-7.87-12.07-19.02c-1.96-11.15-7.84-53.44-17.62-130.36
		c-1.96-13.59-5.34-38.09-10.13-74.2c-0.43-3.27-1.37-10.06-4.24-17.42c-3.52-9.03-7.18-17.22-7.18-22.88
		c0-10.27,6.86-17.68,20.57-22.06c4.34-1.55,14.88-3.15,31.33-4.99c6.5-0.73,10.44-1.13,11.75-1.13c8.69,0,14.08,4.25,15.98,12.57
		c1.34,5.86,2.67,20.85,3.93,44.48c0.9,16.8,2.45,47.54,6.2,89.61c1.31,14.66,3.7,22.04,6.53,21.78c3.25-0.3,5.32-3.46,6.2-9.53
		c0.22-0.49,0.53-2.78,0.98-6.9c1.04-10.14,1.56-15.2,2.6-25.34c3.27-29.46,4.9-52.83,4.9-70.16c0-7.45-0.88-14.29-2.62-20.55
		c-0.88-3.11-1.31-6.15-1.31-9.04c0-8.23,3.48-14.09,10.44-17.5c10.89-5.37,25.35-7.98,43.41-7.99
		C997.76,266.33,1003.53,271.09,1003.53,280.6z M1084.46,343.74c0,3.97,0.75,8.87,2.26,14.69c1.73,1.21,3.45,1.77,5.16,1.66
		c3.24-0.2,9.26-2.51,18.08-6.81c8.82-4.31,15.16-6.53,19.04-6.75c5.8-0.32,9.78,1.38,11.94,5.07c1.29,2.26,1.94,6.77,1.94,13.55
		c0,3.39-0.23,8.54-0.66,15.46c-0.43,6.93-0.65,12.1-0.65,15.48c0,1.91,0,2.87,0,4.78c-0.45,3.23-1.73,6.77-3.91,10.56
		c-2.58,4.49-5.45,6.93-8.49,7.24c-6.53,0.65-14.47-0.91-23.83-4.79c-5.87-2.46-10.66-4.53-14.36-6.16
		c-4.36,0.4-6.53,7.17-6.53,20.35c0,8.34,1.64,13.87,4.9,16.57c2.17,1.72,5.87,2.28,11.09,1.69c6.75-0.77,16.86-4.88,30.35-12.13
		c13.49-7.24,21.43-10.88,23.82-11.12c1.97-0.2,4.03,1.16,6.21,4.08c2.17,2.92,3.58,5.91,4.23,8.99c0.66,3.07,0.99,5.97,0.99,8.69
		c0,1.68-0.23,5.38-0.66,11.09c-0.43,5.71-0.65,9.42-0.65,11.1c0,21.01-2.83,36.25-8.49,45.78c-5.44,3.38-11.42,5.59-17.95,6.6
		c-1.05,0.16-1.57,0.24-2.62,0.41c-0.86,0.13-1.84,0.29-2.93,0.46c-10.23,1.59-30.57,4.76-61.03,9.49
		c-16.96,2.64-27.85,3.64-32.64,3.03c-9.35-1.25-14.02-9.35-14.02-24.26c0-19.66,0.43-48.67,1.31-87.11
		c0.78-35.6,1.17-53.42,1.96-89.11c0-4.79-1.53-12-4.57-21.75c-2.83-9.05-4.24-16.26-4.24-21.54c0-4.82,0.98-9.32,2.94-13.45
		c6.53-5.77,17.3-9.08,32.32-9.99c7.39-0.45,10.21-0.67,8.47-0.67c12.93,0,19.39,0,32.32,0c1.29,0,4.01,0.16,8.16,0.49
		c4.13,0.33,6.63,0.48,7.51,0.48c10.87-0.01,28.3-0.98,44.38,2.47c4.34,0.93,7.62,9.14,8.49,22.45c0,1.25,0.38,3.46,0.98,6.53
		c0.92,4.71,1.31,10.47,1.31,17.13c0,15.61-5.18,23.69-15.54,24.22c-3.88,0.2-10.21-1.68-18.94-5.74
		c-8.75-4.07-15.81-6.05-21.2-5.82c-8.43,0.36-13.18,0.46-14.25,0.27C1088.46,329.72,1084.46,335.18,1084.46,343.74z
		 M1456.51,284.59c0,2.19-0.21,5.41-0.65,9.64c-0.44,4.23-0.66,7.46-0.66,9.68c0,3.47,0,5.21,0,8.69c0,1.54,0.23,3.35,0.33,5.13
		c0.11,1.94,0,3.26,0,3.6c0,12.86-4.36,19.39-13.06,19.85c-3.05,0.16-7.61-1.68-13.71-5.58c-6.09-3.9-10.76-5.89-14.02-5.91
		c-3.71,1.23-5.55,3.8-5.55,7.71c0,9.96,0.12,24.88,0.33,45c0.22,20.11,0.32,35.43,0.32,45.71c0,3.49,0.7,8.6,2.13,15.35
		c1.41,6.75,2.11,11.8,2.11,15.12c0,11.3-6.63,18.93-19.91,22.96c-2.82,0.93-15,2.83-36.55,5.81c-4.44,0.62-6.65,0.92-11.09,1.54
		c-6.96-2.29-10.44-8-10.44-17.07c0-0.76,0.1-2.9,0.32-6.39c0.22-3.48,0.33-5.8,0.33-6.95c0-0.39-0.12-1.14-0.33-2.26
		c0-0.92,0-1.38,0-2.3c0-2.87,0.34-7.81,0.99-14.76c0.87-9.27,1.37-16.11,1.63-20.46c0.93-15.93,2.72-39.58,4.89-70.03
		c-0.86-1.25-0.99-4.21-0.65-8.61c0.29-3.64-0.88-6.26-3.26-7.62c-4.13,0.2-9.52,3.01-16.15,8.53c-6.65,5.53-11.91,8.45-15.82,8.69
		c-6.31,0.38-9.46-6.13-9.46-19.46c0-0.38,0.21-1.72,0.32-3.73c0.1-1.98,0-3.99,0-5.69c0-7.87,0-11.8,0-19.64c0-1.7,0.1-3.8,0-5.95
		c-0.1-2.17-0.32-3.68-0.32-4.25c0-12.09,3.43-19.21,6.2-21.79c1.98-1.84,25.13-4.21,69.51-4.21c42.22,0,67.35,1.27,75.4,3.77
		C1454.22,270.19,1456.51,275.47,1456.51,284.59z M1639.44,333.11c-0.98,22.16-1.47,39.03-1.47,50.34c0,23.32,0.65,44.55,1.96,63.55
		c0.22,3.01,0.33,5.5,0.33,7.46c0,7.47-2.95,11.91-8.82,13.3c-12.84,2.94-23.6,4.46-32.31,4.48c-4.36,0.01-5.98,0.02-4.89,0.01
		c-0.23,0-0.99,0-2.29,0.01c-1.31,0-2.19,0.01-2.62,0.01c-4.56,0.02-9.72-1.06-12.07-3.42c-3.13-3.15-4.57-15.19-4.57-31.5
		c0,1.59,0.22-0.45,0.65-6.11c0.45-5.66,0.66-9.54,0.66-11.65c0-7.19,0-10.77,0-17.91c-2.83-5.42-5.88-8.12-9.13-8.11
		c-1.18,0-1.77,0.01-2.95,0.01c-0.65,0.19-1.52,0.27-2.6,0.28c-5.22,0.02-8.05,0.13-8.49,0.31c-4.14,0.56-6.65,3.39-7.51,8.55
		c-0.22,0.88-0.33,4.78-0.33,11.72c0,3.2,0.22,8.02,0.66,14.46c0.43,6.44,0.65,11.3,0.65,14.52c0,9.73-1.31,17.43-3.91,23.1
		c-1.09,2.19-7.2,3.91-18.28,5.23c-9.12,1.09-16.21,1.73-21.22,1.86c-7.82,0.2-11.85,0.31-12.07,0.32c-4.57-0.47-7.62-2.3-9.13-5.46
		c-1.18-2.27-1.77-3.4-2.95-5.66c3.27-65.58,4.9-111.89,4.9-141.92c0-11.68-1.74-21.62-5.22-29.91c-0.45-0.68-1.52-2.88-3.27-6.59
		c0-0.61,0-0.91,0-1.52c0-4.73,1.96-8.18,5.87-10.37c0.22-0.17,1.19-0.5,2.95-1.01c1.04-0.3,1.56-0.45,2.6-0.75
		c12.83-3.86,26.54-5.79,41.12-5.79c4.34,0,8.08-0.21,9.8,0.24c0.94,0.25,2.17,0.92,3.25,1.27c1.53,0.84,2.83,2.6,3.93,5.29
		c0.22,1,0.32,4.45,0.32,10.36c0,3.38-0.16,8.53-0.49,15.5c-0.32,6.97-0.49,12.18-0.49,15.6c0,4.27-0.52,10.9,0.98,13.87
		c1.27,2.52,8.6,4.37,16.66,4.36c6.52-0.01,11.1-1.29,13.38-3.84c1.75-1.95,2.6-5.79,2.6-11.23c0-0.67,0.12-2.12,0.33-4.32
		c0.22-2.21,0.33-3.56,0.33-4.06c0-2.71-0.6-6.73-1.8-12.03c-1.19-5.31-1.8-9.29-1.8-11.97c0-6.54,2.07-10.78,6.2-12.79
		c1.96-1,8.38-2.24,19.26-3.74c11.96-1.65,20.67-2.5,26.11-2.5c6.08,0,10,0.66,11.75,2.01c3.27,3.01,4.89,8.54,4.89,16.62
		C1640.9,294.51,1640.41,310.94,1639.44,333.11z M1808.32,359.69c-5.65-33.4-5.56-68.16-11.09-85.9
		c-1.57-5.05-11.65-8.85-24.48-8.85c-8.22,0.51-12.33,0.77-20.56,1.28c-23.07,1.54-42.1,5.43-57.12,11.65
		c-3.7,1.52-5.77,2.45-6.2,2.78c-3.26,2.36-4.89,5.58-4.89,9.66c0,2.71,1.14,6.74,3.42,12.14c2.29,5.38,3.42,9.45,3.42,12.19
		c0,9.75-2.5,23.8-7.51,42.26c-4.83,17.28-7.24,25.97-12.07,43.45c-6.53,23.9-10.34,39.47-11.42,46.37
		c-1.31,8.32-2.19,13.32-2.29,14.65c-0.29,3.78,1.57,7.02,4.73,8.77c3.15,1.75,9.51,2.7,19.09,2.9c9.15,0.2,18.28-0.55,27.42-2.25
		c2.35-0.89,3.52-1.34,5.87-2.23c2.4-0.63,4.03-1.38,4.9-2.25c0.86-4.79,1.87-9.61,2.94-14.36c2.21-9.85,3.91-16.06,5.22-18.5
		c8.27-0.81,13.16-1.17,14.69-1.12c4.57,0.16,10.01,1.25,11.42,3.09c1.47,1.92,1.93,9.39,2.62,17.25
		c0.61,6.98,1.84,12.82,3.58,17.39c6.96,4.09,16.1,6.44,27.42,7.08c10.66,0.61,20.58-0.13,29.7-2.26c6.08-1.41,9.13-4.21,9.13-8.4
		c0-0.73-0.98-7.1-2.94-19.03C1817.33,411.88,1814.33,394.33,1808.32,359.69z M1748.93,371.87c-2.83,1.68-5.67,2.49-8.49,2.42
		c-4.79-0.12-7.18-2.63-7.18-7.52c0-7.68,3.7-21.19,11.09-40.48c1.31,0.64,1.96,0.96,3.27,1.61c-0.22,1.04-0.33,2.69-0.33,4.94
		c0,3.31,0.45,8.22,1.31,14.77c0.86,6.55,1.31,11.51,1.31,14.83C1749.91,365.75,1749.58,368.9,1748.93,371.87z M1999.24,309.49
		c0,3.94,0,5.91,0,9.85c0,1.74,0.23,3.79,0.33,5.82c0.11,2.21,0,3.68,0,4.07c0,14.51-4.36,21.53-13.06,21.06
		c-3.05-0.17-7.61-2.72-13.71-7.59c-6.08-4.87-10.76-7.42-14.02-7.74c-3.71,0.98-5.55,3.54-5.55,7.69c0,10.58,0.12,26.4,0.33,47.58
		c0.22,21.17,0.32,37.14,0.32,47.82c0,3.62,0.71,9.08,2.13,16.4c1.41,7.32,2.11,12.73,2.11,16.17c0,11.7-6.63,17.88-19.91,18.62
		c-2.82,0.24-15-0.95-36.55-3.14c-4.44-0.45-6.65-0.67-11.09-1.1c-6.96-3.84-10.44-10.09-10.44-18.82c0-0.73,0.1-2.77,0.32-6.09
		c0.22-3.31,0.33-5.52,0.33-6.63c0-0.38-0.12-1.12-0.33-2.25c0-0.89,0-1.33,0-2.22c0-2.77,0.34-7.46,0.99-14.06
		c0.87-8.8,1.37-15.35,1.62-19.53c0.92-15.27,2.72-38.02,4.89-67.73c-0.86-1.31-0.99-4.24-0.65-8.52c0.29-3.56-0.88-6.23-3.26-7.76
		c-4.13-0.13-9.52,2.2-16.15,6.95c-6.65,4.75-11.91,7.02-15.82,6.89c-6.31-0.21-9.46-6.58-9.46-19.08c0-0.35,0.21-1.61,0.32-3.47
		c0.1-1.85,0-3.74,0-5.34c0-7.38,0-11.06,0-18.41c0-1.6,0.1-3.57,0-5.59c-0.1-2.04-0.32-3.46-0.32-4c0-11.34,3.4-17.96,6.2-20.42
		c1.95-1.71,25.13-3.98,69.51-3.98c42.22,0,67.35,1.41,75.4,4.31c4.56,1.74,6.85,7.83,6.85,18.26c0,2.5-0.22,6.18-0.65,10.99
		C1999.46,303.32,1999.24,306.97,1999.24,309.49z"/>
	<path d="M165.04,901.73c1.35,40.34,2.04,70.58,2.04,90.74c0,7.19-0.51,11.14-1.52,11.85c-9.84,11.85-28.14,11.44-54.93-2.73
		c-15.87-8.41-23.8-12.83-39.66-22.09c-7.46-7.9-12.04-17.8-13.73-29.59c0-11.05,0-16.57,0-27.62c0-1.71-0.17-3.33-0.51-4.85
		c0-1.84,0-2.76,0-4.6c0-6.81,0.17-13.21,0.51-19.2c0.41-7.38,0.61-11.07,1.01-18.46c0-6.14,1.36-60.5,2.04-161.62
		c0.05-7.13-0.14-20.1,0.51-37.8c0.22-5.96,0.87-9.67,1.01-10.47c0.99-5.56-2.29-18.03-6.86-33.36c-4.58-15.35-6.87-26.48-6.87-33.6
		c0-1.84,0-2.75,0-4.59c6.44-8.39,15.93-12.41,28.48-12.13c14.04,0.3,21.05,0.33,35.09,0.17c9.49-0.08,17.12,0.39,22.89,1.54
		c14.24,2.86,23.09,9.04,26.45,18.79c3.75,10.88,5.59,36,5.59,75.01c0,14.96-0.59,37.33-1.78,66.98
		c-1.19,29.67-1.78,51.86-1.78,66.7C163.01,831.09,163.68,861.4,165.04,901.73z M334.39,781.77
		c-20.01-22.55-30.01-39.17-30.01-49.48c0-3.81,0.68-7.17,2.04-10.03c4.75-2.41,9.67-3.29,14.75-2.63
		c6.78,0.87,17.62,7.81,32.54,20.66c14.92,12.87,26.27,19.58,34.07,20.31c9.49,0.89,15.79-6.36,18.82-21.66
		c2.72-13.75,4.06-29.68,4.06-47.67c0-34.42-6.78-57.52-20.34-69.12c-9.16-3.02-28.31-5.56-57.47-8.41
		c-1.36-0.13-5.01-0.68-10.93-1.67c-5.93-1-9.75-1.62-11.44-1.8c-2.72-0.29-8.82,0.22-18.31,1.42c-34.58,4.37-61.2,18.7-79.84,43.27
		c-11.53,15.42-17.29,36.33-17.29,63.23c0,28.77,9.16,57.62,27.46,86.67c6.78,10.83,23.9,32.31,51.37,63.69
		c18.3,20.94,27.46,36.85,27.46,48.14c0,9.42-2.55,15.33-7.63,17.71c-1.01,0.18-2.88,0.01-5.59-0.53
		c-10.52-2.11-24.08-11.84-40.69-29.32c-16.61-17.47-27.13-26.94-31.53-28.08c-6.79-1.77-12.55-1.13-17.29,1.94
		c-6.79,14.59-10.17,31.02-10.17,49.58c0,10.56,1.09,24.39,3.05,41.34c1.74,15.03,3.05,29.17,4.07,42.23
		c5.76,13.89,15.47,23.76,28.98,28.81c15.81,5.91,28.2,9.83,36.1,12.76c2.68,0.99,4.66,1.84,5.85,2.31c1.19,0.48,1.27,0.6,0.26,0.35
		c53.91,13.42,91.53,8.55,112.9-8.33c13.23-10.38,23.53-26.54,31.02-48.1c6.73-19.38,10.18-39.61,10.18-60.57
		c0-30.08-10-60.12-30.01-90.54C384.74,838.78,365.92,816.96,334.39,781.77z M1023.98,580.63c-4.09-0.69-12.23,0.02-24.42,2.11
		c-20.68,3.55-37.54,9.71-50.6,18.65c-13.03,8.94-19.56,18.03-19.56,27.1c0,6.56,1.26,16.09,3.8,28.43
		c2.54,12.36,3.83,21.75,3.83,28.23c0,5.06-1.6,26.66-4.06,63.93c-0.76,11.53-1.21,19.78-1.55,24.5
		c-2.36,20.55-5.24,32.1-8.63,34.67c-0.35,0.08-0.69,0.36-1.01,0.78c-0.34,0.44-0.69,0.69-1.04,0.77c-4.4,1.04-6.62-2.9-6.62-11.87
		c0-0.35-1.01-8.33-3.05-24.07c-7.45-66.66-12.46-114.39-14.73-141.18c-1.07-12.66-3.57-20.61-7.62-23.66
		c-9.49-2.52-17.7-3.94-22.9-3c-12.63,2.27-23.91,6.22-31.01,7.69c-19.33,6.78-30.39,16.59-32.57,29
		c-3.98,22.68-6.44,39.42-8.11,49.16c-10.53,66.47-16.33,105.58-17.81,117.93c-2.47,20.73-5.61,31.63-8.66,32.22
		c-5.41,1.06-8.29-3.92-8.63-14.99c0-10.69,0-16.05,0-26.81c-3.42-86.76-3.45-144.73-6.16-162.21c-0.68-4.37-3.08-8.05-5.12-9.91
		c-4.46-3.68-7.36-6.36-8.2-6.66c-2.76-0.98-9.93-0.2-17.43,0.07c-16.77,0.61-33.88,3.92-51.29,9.85
		c-23.89,8.13-35.87,19.13-35.87,33.32c0,2.37,0.49,4.92,1.52,7.66c11.51,31.25,19.14,65.77,21.86,102.71
		c3.4,46.09,5.24,80.79,6.62,103.7c8.11,114.11,13.01,171.1,14.73,177.75c2.99,11.56,13.55,16.31,31.53,13.86
		c8.34-1.14,12.51-1.73,20.86-2.96c6.44-2.02,10.85-3.41,13.23-4.13c23.04-6.38,36.42-12.81,40.16-15.45
		c9.49-6.75,15.92-19.49,18.81-37.95c5.3-33.73,9.85-68.72,14.76-103.38c3.55-25.09,7.62-38.37,11.68-39.27
		c0.69-0.15,1.35,0.61,2.04,2.26c3.05,21.03,4.92,34.93,5.61,41.94c7.11,60.39,14.9,98.12,23.39,114.84
		c3.71,7.09,12.2,8.92,25.43,5.4c4.4-1.17,8.46-2.25,12.2-3.26c4.88-1.31,7.32-1.97,12.2-3.3c29.14-7.94,48.99-19.7,59.49-34.79
		c3.39-4.78,5.26-8.06,5.61-9.89c1.7-8.11,3.05-15.06,4.06-20.88c15.25-96.8,25.6-164.11,31.01-201.36
		c9.77-61.42,14.65-92.1,24.42-152.97c0.35-2.15,0.52-4.8,0.52-7.95C1036.7,587.85,1032.44,582.33,1023.98,580.63z M1308.8,623.23
		c5.43,19.53,8.11,48.1,8.11,86.21c0,91.14-23.71,159.58-71.06,204.04c-14.56,13.71-35.01,24.4-61.42,32.13
		c-22.32,6.53-40.25,7-53.77,1.19c-33.17-13.84-52.79-51-58.89-111.52c-1.7-16.96-2.53-28.54-2.53-34.69
		c0-58.14,9.78-113.57,29.43-164.34c20.24-52.32,54.66-81.82,103.02-90.09c27.42-4.69,48.22-1.28,62.43,9.75
		C1286.13,573.13,1301.06,595.41,1308.8,623.23z M1224.36,713.16c0-37.12-10.7-53.21-32.05-48.49c-6.1,1.35-11.76,5.72-16.77,13.12
		c-6.8,10.04-10.18,34.25-10.18,72.46c0,17.95,1.18,30.8,3.57,38.49c4.4,14.82,13.2,20.44,26.44,16.93
		c12.54-3.32,20.82-11.19,24.91-23.32c2.66-7.89,4.09-18.93,4.09-32.98C1224.36,734.86,1224.36,727.62,1224.36,713.16z
		 M1596.6,736.78c2.71,9.57,4.08,19.1,4.08,28.55c0,24.4-4.57,45.14-13.75,62.19c-12.16,22.57-30.49,35.23-54.92,37.95
		c-8.46,0.94-15.42,0.35-20.83-1.88c-16.97-6.59-28.61-20.2-33.57-40.08c-2.89-11.57-6.96-29.53-12.72-52.93
		c-0.35-0.27-2.21-3.07-5.61-8.39c-2.36-3.53-5.21-5.23-8.11-4.77c-4.61,0.73-7.77,5.88-9.18,14.63c-0.63,3.92-1.01,9.41-1.01,16.4
		c0,5.73,0.52,14.15,1.52,25.33c1.01,11.17,1.52,19.7,1.52,25.51c0,8.08-0.49,14.58-1.52,19.29c-1.95,8.83-14.93,15.83-38.64,21.32
		c-2.04,0.47-7.22,2-15.53,4.64c-8.29,2.63-13.64,4.26-16,4.84c-13.58,3.32-21.03,0.64-22.38-8.19c-0.35-0.57-0.52-11.86-0.52-33.64
		c0-26.64,0.78-66.82,2.3-119.39s2.27-90.89,2.27-116.13c0-4.62-1.95-11.79-5.84-21.48c-3.89-9.7-5.84-17.34-5.84-22.84
		c0-6.72,2.88-13.17,8.63-19.29c8.49-9,19.99-16.4,34.58-22.22c3.74-1.46,16.94-5.61,39.67-12.09c2.24-0.67,3.37-1,5.61-1.67
		c4.06-1.16,8.09-2.54,11.68-3.39c12.67-3.02,21.37-2.53,23.39-2.61c5.09-0.2,14.26,0.3,27.47,1.6
		c32.15,3.17,57.32,12.09,75.26,26.34c19.64,15.6,29.49,36.57,29.49,62.95c0,23.78-7.28,45.4-21.86,65.2
		c-4.4,6.1-13.06,14.15-25.92,24.43c-7.83,6.41-11.71,11.21-11.71,14.22c0,5.44,3.05,10.11,9.15,13.98
		c6.1,3.87,12.54,5.62,19.33,5.26c1.35-0.07,3.48-0.57,6.36-1.46c2.88-0.88,5.01-1.36,6.36-1.42
		C1587.28,717.2,1592.87,723.62,1596.6,736.78z M1496.43,626.7c0-17.3-9.01-25.4-26.96-24.3c-4.06,0.25-6.62,0.56-7.62,0.92
		c-8.83,2.96-13.23,12.29-13.23,27.7c0,4.9,0,7.35,0,12.27c0,7.58,8.14,10.49,24.42,9.29c7.11-0.53,12.79-3.27,17.03-8.2
		C1494.3,639.47,1496.43,633.56,1496.43,626.7z M1853.93,520.21c-12.57-5.51-51.73-11.5-117.49-14.29
		c-69.16-2.94-105.26,1.13-108.31,3.85c-4.33,3.86-9.67,14.47-9.67,32.68c0,0.86,0.35,3.15,0.52,6.4c0.16,3.25,0,6.43,0,9
		c0,11.83,0,17.77,0,29.71c0,2.59,0.16,5.66,0,8.66c-0.16,3.03-0.52,5.07-0.52,5.65c0,20.27,4.92,30.47,14.76,30.43
		c6.1-0.03,14.3-4.05,24.65-11.93c10.33-7.88,18.73-11.69,25.17-11.55c3.74,2.4,5.53,6.63,5.09,12.28
		c-0.52,6.81-0.35,11.47,1.01,13.53c-3.39,47.35-6.16,84.25-7.62,109.14c-0.4,6.82-1.17,17.51-2.53,31.95
		c-1.02,10.83-1.52,18.58-1.52,23.11c0,1.45,0,2.18,0,3.63c0.32,1.82,0.49,3.05,0.49,3.65c0,1.83-0.16,5.48-0.49,10.94
		c-0.33,5.47-0.52,8.84-0.52,10.05c0,14.34,5.41,24.11,16.28,29.38c6.92,0.04,10.37,0.09,17.29,0.23
		c33.54,0.7,52.53,1.86,56.93,1.26c20.68-2.15,31.04-12.04,31.04-30.49c0-5.44-1.11-13.95-3.31-25.43
		c-2.2-11.5-3.31-20.08-3.31-25.77c0-16.77-0.17-41.8-0.52-74.77c-0.34-32.97-0.49-57.43-0.49-73.74c0-6.4,2.88-10.25,8.63-11.5
		c5.09,0.73,12.37,5,21.86,12.96c9.49,7.97,16.6,12.31,21.37,12.87c13.55,1.58,20.34-8.57,20.34-30.57c0-0.58,0.18-2.83,0-6.16
		c-0.16-3.1-0.52-6.21-0.52-8.85c0-5.97,0-8.95,0-14.91c0-3.79,0.33-9.31,1.01-16.51c0.67-7.19,1.04-12.69,1.04-16.48
		C1864.61,532.94,1861.04,523.47,1853.93,520.21z M2147.35,797.57c0-22,0.78-54.56,2.3-97.9c1.52-43.34,2.27-76.16,2.27-98.23
		c0-16.28-2.53-28.18-7.62-35.54c-2.7-3.38-8.8-6.25-18.3-8.5c-8.49-2.01-22.05-3.47-40.68-4.29c-16.96-0.74-26.96-0.36-30.01,0.91
		c-6.44,2.5-9.67,9.87-9.67,22.16c0,5.05,0.92,12.72,2.79,23.1c1.87,10.37,2.79,18.12,2.79,23.19c0,0.95-0.16,3.47-0.49,7.49
		c-0.33,4.02-0.52,6.69-0.52,7.95c0,10.14-1.34,16.94-4.06,19.86c-3.52,3.78-10.7,4.32-20.86,1.82
		c-12.54-3.09-23.81-8.63-25.95-14.06c-2.5-6.35-1.52-17.74-1.52-25.5c0-6.21,0.27-15.62,0.78-28.21
		c0.5-12.58,0.75-21.99,0.75-28.18c0-10.82-0.17-17.18-0.49-19.09c-1.73-5.23-3.74-8.79-6.13-10.72c-1.7-0.88-3.52-2.41-5.06-3.11
		c-2.59-1.18-8.49-1.79-15.28-2.81c-22.7-3.39-44.07-2.71-64.07,1.66c-1.62,0.33-2.43,0.5-4.06,0.83c-2.73,0.56-4.26,0.98-4.57,1.22
		c-6.13,3.11-9.18,8.77-9.18,17.01c0,1.05,0,1.58,0,2.63c2.73,6.81,4.4,10.85,5.09,12.12c5.44,15.16,8.14,32.91,8.14,53.16
		c0,52.14-2.53,131.83-7.62,241.16c1.83,4.24,2.75,6.36,4.57,10.62c2.36,5.91,7.11,10.12,14.24,12.76
		c0.32,0.07,6.62,1.44,18.81,4.49c7.8,1.94,18.82,4.01,33.06,6.55c17.28,3.09,26.78,3.42,28.48,0.16c4.06-8.52,6.1-21.36,6.1-38.49
		c0-5.69-0.33-14.36-1.01-25.92c-0.68-11.59-1.04-20.22-1.04-25.89c0-12.31,0.17-19.19,0.52-20.66c1.35-8.76,5.26-12.71,11.71-11.8
		c0.66-0.11,5.06,0.98,13.21,3.43c1.7,0.51,3.05,0.76,4.09,0.76c1.83,0.56,2.74,0.84,4.57,1.41c5.06,1.57,9.81,7.99,14.24,19.35
		c0,13,0,19.51,0,32.53c0,3.83-0.36,10.74-1.04,20.7c-0.67,9.98-1.01,13.54-1.01,10.67c0,29.38,1.84,51.2,7.11,59.39
		c3.9,6.07,11.71,11.02,18.82,14.04c0.69,0.29,2.04,0.87,4.09,1.75c2.04,0.88,3.22,1.4,3.57,1.55c-1.73-0.75,0.83,0.33,7.62,3.37
		c13.55,6.06,30.32,11.16,50.35,15.74c9.15,2.01,13.72-3.99,13.72-18.25c0-3.72-0.17-8.56-0.52-14.51
		C2148.38,884.14,2147.35,842.92,2147.35,797.57z"/>
	<path d="M119.29,1481.89c-0.62-0.2-0.79-0.26-0.74-0.27C118.86,1481.74,119.11,1481.83,119.29,1481.89z M291.37,1108.33
		c-4.68-4.33-24.33-10.46-58.86-21.6c-56.28-18.15-82.44-31.05-78.3-29.37c-42.43-17.2-69.66-27.15-81.67-24.8
		c-6.39,1.16-9.57,9.22-9.57,24.37c6.76,20.86,10.13,49.5,10.13,84.29c0,5.56,0.29,14.05,0.85,25.46
		c0.56,11.4,0.84,19.86,0.84,25.42c0,13.68-0.65,33.56-1.97,59.73c-1.32,26.16-1.97,46.13-1.97,59.82c0,0.74,0.39,3.41,0.57,7.48
		c0.17,3.88,0,7.77,0,11.1c0,7.32,0,10.98,0,18.31c0,6.3-0.29,15.78-0.85,28.5c-0.56,12.71-0.84,22.21-0.84,28.51
		c0,19.99,2.44,37.61,7.32,52.65c5.25,7.45,15.77,13.97,31.54,19.17c0.75,0.25,2.53,1.01,5.35,2.29c2.13,0.96,3.66,1.62,4.61,1.99
		c0.21-0.02,6.96,1.81,20.45,5.31c34.52,8.95,52.95,8.97,55.2,2.31c1.13-1.44,1.69-4.04,1.69-7.84c0-4.82-1.32-15.83-3.94-33.16
		c-3.38-22.38-5.07-40.1-5.07-52.99c0-4.86,0.37-10.65,1.13-17.39c5.63-4.16,9.01-6.08,10.13-5.74c1.5,0.45,2.44,0.92,2.82,1.37
		c15.77,17.57,27.04,28.32,33.8,33.12c2.63,1.69,4.97,3.15,6.76,3.74c13.21,4.39,24.03-0.58,28.16-12.17
		c1.88-5.33,2.82-16.96,2.82-34.96c0-23.42-0.19-37.28-0.57-41.47c-2.25-26.8-9.95-41.91-23.09-45.57
		c-6.01-1.68-14.65-0.54-25.91,3.25c-11.26,3.79-19.34,4.78-24.22,3.13c-4.51-1.52-10.92-5.13-12.96-9.22
		c-2.52-5.06-2.25-19.57-2.25-36.1c0-14.43,3.96-20.85,6.2-21.96c1.86-0.93,5.63-3.17,10.13-1.56c1.13,0.4,3.38,1.47,6.76,3.17
		c3.38,1.71,5.44,2.66,6.2,2.92c4.5,3.28,14.83,12.76,30.98,27.5c12.77,11.68,23.47,18.39,32.11,20.53
		c15.02,3.73,23.85-2.78,26.47-18.98c0.37-1.62,0.57-15.24,0.57-41.03c0-37.49-1.13-72.6-3.38-85.4
		C298.79,1117.37,296.07,1112.68,291.37,1108.33z M449.93,1347.11c0-13.79,0.65-34.56,1.97-62.6c1.32-28.04,1.98-47.34,1.98-64.02
		c0-43.51-2.05-71.44-6.2-83.14c-3.71-10.46-13.52-16.17-29.29-17.51c-6.39-0.54-14.84-0.07-25.35,1.23
		c-15.55,1.99-23.32,2.83-38.87,4.14c-13.9,1.16-24.42,7.03-31.54,17.97c0,2.21,0,3.32,0,5.53c0,8.6,2.54,21.82,7.6,39.51
		c5.07,17.71,8.66,30.91,7.61,36.37c-0.16,0.82-0.88,4.6-1.13,10.57c-0.73,17.68-0.51,30.68-0.56,37.76
		c-0.75,100.72-2.25,153.62-2.25,159.61c-0.45,7.31-0.68,10.96-1.13,18.25c-0.38,5.92-0.56,12.2-0.56,18.82c0,1.79,0,2.68,0,4.46
		c0.37,1.39,0.56,2.9,0.56,4.54c0,10.71,0,16.06,0,26.73c1.88,10.82,6.94,18.75,15.21,23.74c17.57,3.44,26.36,5.01,43.93,7.89
		c29.66,4.84,49.94,0.05,60.84-13.27c1.13-0.9,1.69-4.6,1.69-11.11c0-18.2-0.75-45.41-2.25-82.05
		C450.69,1393.93,449.93,1365.96,449.93,1347.11z M737.78,1290.34c-17.65-0.74-36.61,0.36-56.89,3.04
		c-19.91,2.63-36.61,6.6-50.13,12.14c-9.02,3.68-13.52,10.52-13.52,20.6c0,2.09,0.37,5.19,1.12,9.3
		c14.27,9.28,21.4,26.58,21.4,51.72c0,7.57,0.13,18.21-2.8,24.38c-1.99,4.2-9.21,7.29-16.34,7.71c-2.26,0.14-3.38,0.2-5.64,0.33
		c-10.89-4.13-18.4-12.75-22.53-25.8c-1.88-6.37-3.77-17.99-5.64-35.03c0-0.68-0.27-3.16-0.83-7.42c-0.57-4.25-0.85-7.07-0.85-8.45
		c0-2.07,0.27-6.55,0.85-13.48c0.56-6.93,0.83-11.46,0.83-13.53c0-55.41,12.77-84.88,38.31-87.87c7.51-0.88,19.52,3.03,36.05,11.55
		c16.53,8.52,29.3,12.03,38.31,10.6c8.26-1.31,18.95-8.13,23.1-17.61c4.9-11.19,5.06-29.93,5.06-46.29
		c0-42.21-4.32-65.43-12.95-68.77c-12.77-5.04-32.68-5.68-59.71-2.61c-13.9,1.58-30.25,5.63-49.01,11.98
		c-20.27,6.86-35.69,14.19-46.2,22.37c-54.06,42.69-81.11,110.88-81.11,201.21c0,16.51,0.93,35.17,2.82,55.89
		c8.26,92.9,50.32,139.55,126.17,137.49c6.39-0.17,16.05-1.43,29.01-3.94c12.96-2.51,22.61-4.01,29.01-4.36
		c2.24-0.12,7.51-0.15,15.77-0.16c8.26,0,13.71-0.11,16.34-0.29c16.51-1.11,31.37-6.85,35.49-14.79c5.12-9.88,5.62-43.36,5.62-90.87
		c0-29,0.62-61.04,6.2-90.18c3.28-17.13,6.76-29.03,6.76-32.67c0-6.91-0.76-11.23-2.24-12.93
		C748.11,1291.84,744.17,1290.76,737.78,1290.34z M1069.56,1057.17c0-18.1-2.82-29.68-8.44-34.79c-3.01-2.11-9.77-1.59-20.28,1.56
		c-9.39,2.81-24.42,9.23-45.07,19.09c-18.75,8.96-29.85,15.01-33.23,18.26c-7.13,6.63-10.7,17.37-10.7,32.18
		c0,6.08,1.03,14.8,3.09,26.11c2.06,11.32,3.11,20.02,3.11,26c0,1.12-0.2,4.17-0.58,9.12c-0.37,4.97-0.56,8.19-0.56,9.68
		c0,11.94-1.46,20.7-4.5,25.88c-3.95,6.72-11.82,11.77-23.1,14.97c-13.9,3.94-26.63,2.69-28.73-1.49c-3.05-6.1-1.68-20.5-1.68-29.89
		c0-7.51,0.27-19.1,0.85-34.91c0.56-15.8,0.83-27.58,0.83-35.25c0-13.42-0.19-21.28-0.56-23.49c-1.88-5.63-4.13-9.07-6.76-10.3
		c-1.88-0.27-4.15-1.26-5.62-1.39c-2.83-0.25-9.39,1.95-16.9,3.92c-25.16,6.62-48.82,16.97-70.97,31.05
		c-1.81,1.11-2.71,1.67-4.52,2.78c-3.01,1.86-4.69,3.03-5.06,3.48c-6.76,6.59-10.14,15.23-10.14,25.95c0,1.37,0,2.06,0,3.43
		c3.01,7.74,4.88,12.26,5.64,13.61c6,17.33,9,38.78,9,64.14c0,65.3-2.81,164.78-8.44,290.08c2.03,3.94,3.04,5.91,5.06,9.84
		c2.63,5.54,7.9,8.08,15.78,7.6c0.37-0.08,7.32-1.47,20.84-4.3c8.63-1.8,20.86-5.27,36.61-10.47c19.12-6.31,29.66-11.91,31.54-16.62
		c4.5-12.06,6.76-27.81,6.76-47.25c0-6.47-0.37-16.09-1.12-28.92c-0.76-12.83-1.14-22.54-1.14-29.08c0-14.16,0.19-22.24,0.56-24.18
		c1.51-10.96,5.83-17.95,12.96-20.95c0.75-0.55,5.64-2.03,14.64-4.45c1.88-0.51,3.38-1.09,4.52-1.76c2.02-0.55,3.04-0.82,5.06-1.37
		c5.64-1.53,10.89,2.7,15.78,12.68c0,14.88,0,22.3,0,37.1c0,4.37-0.39,12.45-1.14,24.22c-0.75,11.78-1.12,16.02-1.12,12.77
		c0,33.24,2.53,56.87,7.88,61.81c3.77,3.48,12.96,3.94,20.84,2.07c0.75-0.18,2.26-0.54,4.5-1.07c2.26-0.54,3.57-0.85,3.94-0.94
		c-1.89,0.45,0.93-0.22,8.46-2.02c15.02-3.6,33.6-11.17,55.77-22.93c10.13-5.47,15.2-16.04,15.2-31.69c0-4.09-0.2-9.26-0.56-15.51
		c-2.26-39.27-3.38-83.87-3.38-133.95c0-24.29,0.85-60.9,2.53-109.96C1068.72,1118.55,1069.56,1081.67,1069.56,1057.17z
		 M1357.95,940.66c-13.9-2-57.28,6.19-130.12,27.32c-76.61,22.22-116.28,39.14-119.98,44.2c-4.96,6.79-10.7,22.6-10.7,46.63
		c0,1.12,0.38,4.06,0.56,8.27c0.18,4.32,0,8.46,0,11.84c0,15.55,0,23.32,0,38.87c0,3.38,0.17,7.32,0,11.26
		c-0.18,4.07-0.56,6.75-0.56,7.49c0,26.29,5.44,37.76,16.33,34.45c6.76-2.06,15.87-9.98,27.33-23.85
		c11.45-13.84,20.74-21.87,27.88-24.03c4.13,1.78,6.12,6.66,5.64,14.19c-0.59,9.16-0.39,15.08,1.12,17.28
		c-3.75,62.92-6.81,111.01-8.44,143.37c-0.45,8.83-1.32,22.69-2.82,41.43c-1.12,14.06-1.7,23.97-1.7,29.7c0,1.84,0,2.75,0,4.59
		c0.37,2.2,0.57,3.67,0.57,4.43c0,2.31-0.2,6.96-0.57,13.94c-0.37,6.99-0.56,11.26-0.56,12.78c0,18.01,6,28.79,18.02,32.44
		c7.66-1.85,11.5-2.77,19.16-4.61c37.17-8.92,58.2-14.36,63.09-16.68c22.9-10.07,34.35-27.26,34.35-51.47
		c0-7.13-1.22-17.84-3.65-32.04c-2.45-14.19-3.67-24.98-3.67-32.42c0-21.98-0.19-54.71-0.56-97.76
		c-0.37-43.07-0.56-75.05-0.56-96.43c0-8.39,3.18-14.61,9.58-18.66c5.62-1.17,13.69,1.35,24.22,7.7c10.5,6.34,18.38,8.9,23.65,7.54
		c15.02-3.88,22.54-20.15,22.54-48.63c0-0.76,0.21-3.64,0-7.98c-0.19-3.89-0.56-7.81-0.56-11.22c0-7.71,0-11.57,0-19.18
		c0-4.85,0.36-12.02,1.12-21.5c0.75-9.48,1.12-16.61,1.12-21.41C1369.77,952.53,1365.83,941.97,1357.95,940.66z M1518.48,1132.14
		c0-16.32,0.65-40.9,1.97-73.41c1.31-32.51,1.97-57.12,1.97-72.08c0-39.03-2.03-62.91-6.18-72.33c-3.71-8.42-13.52-11.65-29.3-9.29
		c-6.39,0.95-14.83,3.34-25.35,7.25c-15.55,5.85-23.32,9.37-38.87,16.17c-13.9,6.06-24.41,15.51-31.55,28.3c0,1.99,0,2.98,0,4.98
		c0,7.75,2.54,18.62,7.61,32.68c5.07,14.07,8.55,26.18,7.59,32.54c-0.16,1.07-0.88,5.38-1.12,12.18
		c-0.72,19.81-0.51,34.43-0.56,42.41c-0.75,114.05-2.26,179.16-2.26,186.34c-0.45,8.95-0.67,13.43-1.12,22.41
		c-0.37,7.29-0.56,14.97-0.56,23.02c0,2.17,0,3.26,0,5.43c0.36,1.54,0.56,3.31,0.56,5.32c0,13.07,0,19.63,0,32.79
		c1.87,12.62,6.95,20.56,15.2,23.84c17.58-1.99,26.37-3.71,43.94-3.65c29.66,0.08,49.93-8.84,60.83-27.47
		c1.12-1.32,1.68-6.15,1.68-14.49c0-23.28-0.74-57.77-2.24-102.62C1519.23,1187.62,1518.48,1154.45,1518.48,1132.14z
		 M1826.04,898.18c-2.26-0.97-3.77-1.51-4.52-1.61c-24.04-3.05-45.25-2.13-63.65,2.18c-10.89,2.39-16.33,10.69-16.33,24.68
		c0,14.33,2.62,40.53,7.88,90.23c1.12,10.68,1.68,20.33,1.68,28.95c0,11.49-1.12,23.35-3.37,35.61c-0.39,0.39-1.32,0.55-2.82,0.47
		c-1.88-0.09-3.77-0.79-5.64-2.11c-9.39-28.72-16.94-55.12-21.96-78.95c-5.43-25.74-9.02-42.05-11.26-53.05
		c-6.4-25.45-11.26-40.43-14.64-45.19c-5.26-7.18-16.85-11.39-32.68-10.29c-32.54,2.25-57.5,8.62-70.97,12.96
		c-14.62,4.71-26.67,11.35-36.05,19.55c-2.26,4.89-3.38,10.03-3.38,15.39c0,7.16,2.34,17.17,7.03,30.05
		c4.69,12.87,7.05,23.03,7.05,30.08c0,34.16-1.5,85.69-4.5,155.99c-3.01,70.3-4.52,124.36-4.52,160.68c0,24.21-0.19,35.2-0.56,32.7
		c1.88,14.61,7.13,21.14,15.78,19.52c6.76,2.71,15.58,3.88,26.47,3.6c18.77-0.48,32.85-2.74,42.25-7.07
		c3.01-1.29,6.1-4.82,9.29-10.6c3.19-5.76,4.79-10.56,4.79-14.38c0-10.23-0.93-25.44-2.82-45.51c-1.88-20.06-2.8-35.06-2.8-45.14
		c0-4.2,0.17-7.96,0.56-11.33c0-4.77,0-7.16,0-11.92c0-3.35-0.39-10.55-1.14-21.57c-0.75-11.03-1.12-17.97-1.12-20.87
		c0-9.95,1.31-18.06,3.94-24.33c3.01,3.26,4.88,6.14,5.64,8.63c15.77,55.18,26.47,95.2,32.11,118.29
		c5.63,22.59,8.45,33.96,14.08,56.82c3.75,15.58,8.35,24.1,13.52,25.64c9.29,2.77,20.64,4.73,33.79,5.48
		c29.66,1.71,52.06,0.38,67.03-4.95c12.01-4.27,18.02-27.5,18.02-69.41c0.9-46.38,1.35-69.43,2.26-115.24
		c0.75-50.09,0.92-84.83,1.12-104.08c0.18-17.56,1.27-42.66,2.82-74.41c1.45-29.7,2.26-48.71,2.26-65.12c0-11.27-0.18-19-0.56-23.11
		C1839.42,907.9,1834.67,902.03,1826.04,898.18z M2139.22,1191.47c-1.51-2.89-5.45-6.83-11.84-11.72
		c-17.65-13.07-36.61-24.35-56.89-33.34c-19.91-8.83-36.61-13.05-50.13-13.25c-9.02-0.14-13.52,5.75-13.52,17.38
		c0,2.41,0.37,6.16,1.12,11.23c14.27,16.95,21.4,40.13,21.4,69.31c0,8.79,0.38,21.12-2.81,27.24c-1.81,3.49-9.21,4.79-16.34,2.56
		c-2.26-0.7-3.38-1.05-5.64-1.74c-10.89-8.98-18.4-21.88-22.53-38.92c-1.88-8.26-3.75-22.82-5.64-43.68c0-0.81-0.27-3.84-0.83-9.08
		c-0.57-5.23-0.85-8.66-0.85-10.29c0-2.44,0.28-7.63,0.85-15.55c0.57-7.92,0.83-13.11,0.83-15.53c0-64.74,12.77-92.96,38.31-83.02
		c7.51,2.92,19.52,13.69,36.05,32.75s29.3,30.98,38.31,35.4c8.26,4.05,19.66,2.69,23.1-2.63c4.92-7.61,5.06-27.37,5.06-43.22
		c0-40.9-4.32-65.83-12.95-74.49c-12.77-12.91-32.68-25.62-59.71-36.53c-13.9-5.61-30.25-9.68-49.01-11.84
		c-20.27-2.33-35.69-1.27-46.19,2.31c-54.09,18.9-81.11,83.87-81.11,194.72c0,20.27,0.93,43.45,2.81,69.57
		c8.26,117.09,50.33,180.59,126.18,199.06c6.39,1.55,16.05,2.72,29.01,3.8c12.96,1.08,22.61,2.73,29.01,4.65
		c2.24,0.67,7.51,2.54,15.77,5.72c8.26,3.17,13.71,5.26,16.34,6.13c16.51,5.42,31.82,4.44,35.49-1.54
		c5.3-8.64,5.62-46.17,5.62-98.01c0-31.64,0.4-65.2,6.2-92.91c3.15-15.07,6.76-25.64,6.76-29.42
		C2141.47,1199.41,2140.72,1194.37,2139.22,1191.47z"/>
	<path d="M926.79,1566.97c2.12,9.46,3.18,32.2,3.18,67.81c0,24.5-0.19,37.49-0.53,39.17c-2.47,16.3-10.76,25.42-24.84,27.49
		c-8.11,1.19-18.16-1.04-30.12-6.48c-15.14-6.89-24.84-10.69-29.07-11.61c-0.72,0.11-2.65,0.16-5.81,0.18
		c-3.18,0.01-5.29,0.09-6.34,0.25c-4.23,0.64-7.36,4.03-9.52,6.08c-2.4,2.27-5.81,9.5-5.81,22.05c0,14.4-0.05,27.47,2.11,30.38
		c1.62,2.18,7.93,3.13,12.15,2.62c4.57-0.56,12.16-4.67,22.73-12.53c10.57-7.88,18.67-12.3,24.31-13.08
		c12.33-1.69,19.56,9.54,21.68,33.58c0.34,3.75,0.53,16.53,0.53,38.16c0,16.6-0.89,27.59-2.65,33
		c-3.88,11.8-13.82,19.19-26.42,18.95c-1.63-0.03-3.88-0.65-6.34-1.41c-6.34-2.3-16.92-8.57-31.72-18.49
		c-0.36-0.26-1.24-0.36-2.65-0.25c-1.05,0.08-4.23,2.89-9.51,8.3c-0.7,5.97-1.06,11.01-1.06,15.13c0,10.9,1.6,25.31,4.76,43.27
		c2.46,13.91,3.7,22.87,3.7,26.93c0,3.19-0.52,5.51-1.58,6.96c-2.11,6.08-19.4,9.69-51.8,10.84c-12.93,0.46-19.27,0.72-19.21,0.8
		c-0.89-0.05-2.33-0.18-4.31-0.39c-2.65-0.27-4.32-0.4-5.02-0.4c-14.8,0-24.67-2.03-29.6-6.1c-4.57-9.74-6.86-21.99-6.86-36.86
		c0-4.67,0.26-11.84,0.79-21.56c0.53-9.72,0.79-17,0.79-21.78c0-5.55,0-8.33,0-13.91c0-2.54,0.17-5.55,0-8.47
		c-0.17-2.95-0.53-4.95-0.53-5.52c0-10.49,0.62-26.07,1.86-47.04c1.22-20.98,1.84-37.06,1.84-47.96c0-4.42-0.26-11.04-0.79-19.92
		c-0.52-8.88-0.79-15.58-0.79-20.07c0-28.08-3.16-49.12-9.51-62.53c0-12.18,2.99-20.34,8.99-24.38
		c11.26-7.71,36.81-12.94,76.63-20.3c-3.87,0.71,20.66-3.16,73.48-12.78c32.37-5.89,50.82-8.17,55.22-6.45
		C923.52,1560.39,926.08,1563.16,926.79,1566.97z M756.95,1935.09c0.01,0.02,0.18,0.03,0.71,0.03
		C757.48,1935.12,757.25,1935.11,756.95,1935.09z M1203.23,1601.5c5.65,23.29,8.44,57.39,8.44,102.14
		c0,107.07-24.63,181.24-73.85,215.74c-15.12,10.65-36.39,15.74-63.82,15.74c-23.2,0-41.84-4.96-55.91-14.46
		c-34.45-22.91-54.85-62.3-61.18-120.56c-1.77-16.32-2.63-27.4-2.63-33.24c0-55.12,10.16-107.04,30.58-157.14
		c21.04-51.61,56.79-84.27,107.08-95.61c28.48-6.42,50.1-3.69,64.89,8.6C1179.67,1541.91,1195.19,1568.33,1203.23,1601.5z
		 M1115.47,1696.65c0-40.49-11.09-58.79-33.29-54.96c-6.34,1.1-12.24,5.44-17.45,12.89c-7.06,10.1-10.57,35.05-10.57,74.58
		c0,18.57,1.24,31.97,3.7,40.31c4.57,16.01,13.75,23.47,27.49,22.19c13.03-1.21,21.65-8.06,25.91-20.5
		c2.77-8.07,4.22-19.81,4.22-35.08C1115.47,1720.31,1115.47,1712.42,1115.47,1696.65z M1506.6,1803.71
		c0,34.14-4.74,62.91-14.27,85.8c-12.61,30.29-31.72,45.61-57.09,45.61c-8.8,0-16.04-1.93-21.66-5.77
		c-17.62-11.49-29.71-31.01-34.88-57.58c-3.01-15.47-7.24-39.21-13.22-69.88c-0.36-0.37-2.3-4.15-5.81-11.22
		c-2.47-4.7-5.29-6.93-8.46-6.68c-4.93,0.38-8.02,6.17-9.51,17.01c-0.66,4.84-1.06,11.76-1.06,20.63c0,7.26,0.53,18.03,1.58,32.38
		c1.06,14.36,1.6,25.25,1.6,32.6c0,10.21-0.5,18.23-1.6,23.93c-2.04,10.63-15.51,16.05-40.16,16.17c-2.11,0.01-7.49,0.43-16.13,1.26
		c-8.63,0.83-14.18,1.25-16.64,1.26c-14.1,0.05-21.85-5.37-23.26-16.2c-0.36-0.77-0.53-14.14-0.53-39.99
		c0-31.61,0.79-79.14,2.39-142.15c1.58-63.01,2.37-109.68,2.37-140.5c0-5.63-2.03-14.48-6.08-26.44
		c-4.04-11.96-6.07-21.22-6.07-27.92c0-8.17,2.99-16.01,8.98-23.58c8.82-11.11,20.8-20.52,35.95-28.18
		c3.87-1.94,17.62-7.43,41.23-16.41c2.32-0.92,3.49-1.39,5.81-2.31c4.23-1.62,8.45-3.53,12.16-4.73c12.94-4.2,22.21-5.56,24.32-5.97
		c5.28-1.03,14.82-1.76,28.54-1.98c33.4-0.54,59.58,8.44,78.22,27.73c20.43,21.14,30.65,50.44,30.65,87.5
		c0,33.4-7.58,63.86-22.73,91.08c-4.59,8.39-13.56,19.35-26.96,32.93c-8.11,8.48-12.15,15.43-12.15,19.56
		c0,7.46,3.16,13.45,9.51,19.17c6.34,5.72,13.03,8.53,20.09,8.42c1.39-0.02,3.6-0.57,6.6-1.66c2.99-1.09,5.19-1.65,6.6-1.67
		c7.75-0.11,13.57,9.06,17.45,27.65C1505.19,1777.09,1506.6,1790.49,1506.6,1803.71z M1398.24,1612.41c0-23.18-9.34-33.3-28.01-30.4
		c-4.23,0.66-6.88,1.28-7.93,1.83c-9.18,4.58-13.75,16.79-13.75,36.84c0,6.36,0,9.55,0,15.93c0,9.84,8.46,13.63,25.37,11.42
		c7.39-0.97,13.29-4.81,17.71-11.6C1396.04,1629.63,1398.24,1621.62,1398.24,1612.41z"/>
</g>
</svg>
