<?xml version="1.0" encoding="utf-8"?>
<!-- Generator: Adobe Illustrator 25.0.1, SVG Export Plug-In . SVG Version: 6.00 Build 0)  -->
<svg version="1.1" id="Layer_1" xmlns="http://www.w3.org/2000/svg" xmlns:xlink="http://www.w3.org/1999/xlink" x="0px" y="0px"
	 viewBox="0 0 2500 2500" style="enable-background:new 0 0 2500 2500;" xml:space="preserve">
<style type="text/css">
	.st0{fill:#231F20;}
</style>
<path transform="translate(0.000000,2500.000000) scale(0.100000,-0.100000)" class="st0" d="M3623,20011c-105-36-159-98-253-286
	c-164-332-331-885-454-1505c-24-124-50-261-57-305c-18-115-25-75-38,241c-31,719-68,1217-107,1437c-15,79-19,89-45,102
	c-59,31-180,11-193-32c-20-74-41-318-71-828c-8-143-20-343-25-445c-31-533-29-1678,5-2210c8-135,19-324,25-420c14-244,57-707,76-815
	c21-125,34-163,66-195c97-97,432-89,502,12c11,16,16,46,16,103c0,144-29,519-73,930c-41,391-42,407-40,720c4,633,75,1337,194,1905
	c103,494,267,981,414,1228c53,89,122,175,135,167c11-7,53-136,79-240c68-275,138-825,202-1585c19-230,69-601,104-769
	c76-367,142-506,268-562c43-19,69-23,152-24c118,0,182,23,214,75c12,20,37,123,66,274c93,479,211,868,428,1401
	c158,391,410,881,588,1146c68,101,177,239,189,239c42,0,20-386-55-980c-106-841-185-1580-211-1990c-18-274-15-803,6-970
	c18-150,76-425,115-545c46-141,113-277,169-340c116-134,332-173,503-93c140,66,338,334,593,801c297,545,538,1187,686,1829
	c31,135,14,126,154,82c216-68,225-118,110-624c-108-478-204-963-256-1295c-25-159-29-207-29-415c0-227,1-239,28-335
	c33-120,101-264,153-323c103-120,270-154,416-84c181,86,320,305,456,722c40,122,203,755,237,918c6,30,4,33-31,48
	c-43,18-120,13-142-10c-8-7-43-114-79-237c-105-363-192-643-234-757c-52-139-137-317-193-400c-54-81-122-150-135-137
	c-19,20-59,174-71,269c-25,199,1,432,114,1027c197,1034,232,1361,164,1510c-56,122-150,180-420,259c-95,28-176,54-180,58s-3,25,2,47
	c20,92,42,301,47,465c14,423-93,704-295,780c-33,13-91,24-138,27c-239,16-427-111-548-368c-51-106-70-188-70-299
	c0-207,93-399,250-519c79-60,248-145,379-191c49-17,91-32,92-34c5-5-44-235-83-391c-165-656-427-1280-765-1825
	c-139-225-324-449-348-425c-21,21-63,208-88,395c-26,186-27,215-27,625c-1,502,4,584,129,1930c80,865,103,1269,86,1532
	c-24,379-129,518-391,518c-126,0-183-20-260-92c-118-109-231-294-475-782c-255-509-461-993-650-1526c-43-121-81-223-84-227
	c-4-4-19,97-35,225c-40,336-103,805-131,986c-126,805-285,1246-491,1367C3871,20031,3723,20046,3623,20011z M7490,18863
	c95-107,150-330,150-601c0-119-23-388-34-399c-6-6-84,35-149,79c-76,52-140,134-180,233c-31,77-32,85-32,225c1,140,2,148,34,232
	c43,114,142,268,172,268C7455,18900,7473,18883,7490,18863z M14252,19880c-31-13-49-61-70-183c-38-226-7-2532,49-3577
	c16-310,62-618,103-698c19-37,65-78,101-92c124-48,348-19,385,49c13,25,13,169,0,381c-6,91-15,242-20,335c-6,94-19,285-30,425
	c-44,590-43,579-26,800c67,843,247,1674,455,2105c58,119,112,205,131,205c14,0,48-85,80-200c38-138,107-496,165-850
	c111-684,149-883,211-1094c63-213,113-281,229-307c125-28,290,8,314,69c6,15,24,110,41,212c55,339,174,744,320,1095
	c55,130,232,479,320,630c129,220,265,402,340,455l30,22l20-44c74-168,50-624-110-2058c-102-915-113-1310-44-1650
	c53-263,155-387,352-429c74-16,215-13,291,4c330,78,657,554,919,1340c95,284,179,639,197,833c4,39,10,72,14,72c3,0,58,9,121,20
	s116,20,118,20c10,0-4-121-37-334c-121-763-112-1514,21-1918c57-176,125-238,260-238c125,0,163,26,243,165
	c173,299,501,1090,645,1553c17,56,35,102,39,102s38-60,76-132c37-73,114-218,170-323c135-250,195-371,195-390c0-9-24-46-54-83
	c-211-265-406-649-462-911c-45-215,15-451,150-586c119-118,271-171,469-163c241,11,393,109,506,327c91,178,125,323,125,536
	c0,125-5,172-28,280c-32,154-113,399-190,579c-31,70-56,132-56,137c0,12,68,73,157,140c101,76,229,142,359,185
	c157,51,184,74,129,110c-88,57-451-45-680-191c-30-19-58-35-64-35c-20,0-399,739-489,955c-74,177-97,268-97,395c0,95,3,111,28,162
	c31,64,75,101,118,101c57,0,160-62,249-152c176-177,302-412,355-663c9-43,23-85,31-93c20-19,58-19,77,0c43,43,56,268,22,385
	c-84,292-269,538-474,632c-182,83-442,78-627-13c-71-35-159-120-193-187c-76-150-67-341,30-602c23-63,42-122,41-131
	c-2-47-271-764-410-1094c-131-311-319-712-329-701c-9,9-33,305-38,486c-7,222,6,766,30,1246c20,403,9,484-73,539
	c-71,47-170,51-387,15c-33-5-63-10-66-10s-9,73-12,163c-14,344-94,540-255,619c-64,32-71,33-187,33c-102,0-129-4-178-24
	c-208-83-355-415-276-626c54-145,266-251,572-286l105-12l-4-31c-45-351-91-538-213-876c-112-306-248-578-394-785
	c-85-121-271-309-345-348l-52-28l-26,54c-55,122-80,377-71,741c7,262,19,457,61,941c66,754,79,1001,80,1460c0,277-4,426-13,485
	c-39,259-105,385-236,450c-44,22-63,25-165,25c-123,0-155-10-237-72c-79-60-211-251-378-548c-252-446-387-737-570-1223
	c-15-40-29-71-31-69c-3,2-32,117-64,255c-225,942-374,1379-522,1538c-71,75-133,105-234,112c-168,11-258-56-362-270
	c-119-244-241-647-347-1152c-19-94-37-171-39-173c-2-3-7,22-10,54c-120,1103-171,1536-186,1579c-6,17-22,36-36,43
	C14375,19892,14285,19893,14252,19880z M18644,18490c90-100,144-278,160-533c7-105,5-107-92-83c-143,35-235,100-261,185
	c-25,85-8,221,43,334c29,65,82,137,100,137C18601,18530,18624,18512,18644,18490z M21038,15859c153-427,159-754,21-1021
	c-42-80-105-148-137-148c-28,0-108,57-146,104c-134,165-147,395-37,676c69,179,235,494,256,487C21000,15955,21020,15911,21038,15859
	z M11350,19280c-151-33-273-91-411-195c-376-282-541-734-407-1114c40-113,83-197,157-307c95-142,182-233,444-472c26-23,47-44,47-46
	s-34-6-75-10c-157-14-314-75-442-173c-185-140-351-432-415-729c-19-92-23-137-23-294c0-167,3-195,27-292c126-497,482-886,919-1003
	c82-22,115-25,254-25c130,0,174,4,234,20c148,41,237,109,339,258c248,364,461,949,479,1320c3,61,9,112,13,112s40-14,81-31
	c195-81,432-149,584-170c131-17,301-9,345,17c43,25,47,58,10,85c-14,10-70,28-124,40c-191,40-451,146-670,273c-61,35-135,76-163,90
	c-222,111-456,149-655,108c-164-34-324-127-368-212c-26-51-25-75,2-94c37-26,78-19,148,24c76,47,148,76,239,95c61,13,71,12,126-6
	c64-22,226-105,237-122c19-30-25-339-73-512c-77-274-245-648-389-868c-142-216-232-284-360-274c-155,11-368,158-513,355
	c-203,275-297,546-297,861c0,419,194,835,445,953c83,39,162,45,274,24c140-27,241-18,304,26c31,23,34,51,9,90
	c-10,15-103,118-208,230c-294,314-360,399-458,595c-71,142-98,245-98,378c0,253,99,491,282,676c231,235,468,269,736,108
	c129-78,237-210,290-353c49-132,50-134,94-147c31-9,49-10,80,0c47,14,48,18,21,122c-77,303-321,527-643,593
	C11670,19306,11461,19304,11350,19280z M22045,15776c-73-32-137-153-116-219c15-45,66-93,120-112c51-18,158-20,212-4
	c62,19,105,81,76,111c-8,7-16,41-19,76c-11,116-61,162-178,162C22104,15789,22061,15783,22045,15776z M9522,14996
	c-90-30-121-62-122-126c0-94,63-150,172-150c58,0,77,5,135,35c79,42,113,75,113,113c0,41-34,89-80,112
	C9686,15007,9580,15015,9522,14996z M22220,13964c-410-2-2115-8-3790-14c-7943-28-15342-106-17115-181c-354-15-426-27-433-76
	c-5-33,45-53,152-64c489-47,6561-46,13356,1c2795,20,4795,38,6460,61c443,6,1176,14,1630,18c911,9,891,7,965,72c56,49,44,94-33,133
	C23310,13966,23269,13967,22220,13964z M22150,8414c-410-2-2115-8-3790-14c-7943-28-15342-106-17115-181c-354-15-426-27-433-76
	c-5-33,45-53,152-64c489-47,6561-46,13356,1c2795,20,4795,38,6460,61c443,6,1176,14,1630,18c911,9,891,7,965,72c56,49,44,94-33,133
	C23240,8416,23199,8417,22150,8414z M19535,7793c-169-36-323-121-451-248c-94-94-147-171-186-273c-60-152-60-238-1-303
	c71-79,150-40,196,96c81,238,249,435,460,541c83,42,185,67,235,58c120-22,219-137,251-292c16-75,14-226-4-321
	c-30-157-142-438-275-686c-302-566-916-1808-926-1871c-5-33-2-51,11-70c41-64,123-67,536-25c605,63,836,72,969,36
	c81-22,172-20,201,4l24,20l-21,21c-11,11-61,33-110,48c-88,26-92,26-399,26c-302,0-462-9-825-49c-69-7-127-12-129-10
	c-8,8,220,431,614,1140c229,413,457,831,505,930c149,303,196,471,187,670c-12,297-160,486-434,556C19868,7815,19642,7816,19535,7793
	z M17485,7726c-266-61-496-253-551-460c-18-68-18-73,11-101c20-21,34-25,84-25c86,0,107,13,146,90c67,132,178,239,325,309
	c102,49,168,50,261,4c223-110,277-330,180-728c-43-175-86-289-256-680c-84-192-207-478-273-635c-120-284-306-715-545-1261
	c-69-157-133-312-142-343c-15-52-15-59-1-81c25-38,74-58,156-63c71-4,85-1,255,56c334,112,781,220,1070,257c141,18,348,21,388,6
	c73-28,199,0,205,45c7,51-104,92-276,103c-316,21-716-31-1192-156c-96-25-185-48-198-50c-21-5-19,1,27,98c54,116,178,370,391,804
	c78,160,222,459,320,665s215,452,260,545c215,447,286,670,297,925c6,160-8,236-64,342c-73,140-254,268-448,319
	C17812,7738,17575,7746,17485,7726z M13805,7659c-265-35-536-174-797-407c-194-173-305-336-323-477c-6-42-4-54,15-78
	c21-26,27-28,83-25l62,3l40,80c51,102,73,133,159,224c289,300,754,550,935,501c179-48,218-307,110-735c-37-147-129-427-197-595
	c-80-202-153-360-360-790c-182-380-346-729-653-1394c-71-153-129-288-129-301c0-43,66-75,154-75c72,0,106,12,185,65
	c265,175,1052,444,1497,511c94,14,122,15,206,4c102-14,150-8,193,24c16,12,18,18,8,39s-28,31-85,49c-105,33-383,32-572-1
	c-309-54-714-172-1033-300c-29-11-53-19-53-17s145,293,322,647c503,1009,618,1251,734,1547c118,299,207,596,239,792
	c20,124,20,298-1,375c-41,158-162,267-351,316C14101,7664,13909,7673,13805,7659z M9613,7599c-99-30-197-206-324-584l-47-140l-154-7
	c-84-3-178-11-208-17c-188-38-320-109-320-171c0-63,93-79,217-35c38,13,99,29,134,34c62,10,279,15,279,7c0-3-14-62-31-132
	c-29-120-35-134-101-231c-175-262-390-525-599-733c-124-124-379-352-424-379c-23-14-27-11-127,85c-57,54-212,190-345,302
	c-274,229-347,299-397,374c-109,164-80,408,72,609c68,89,154,166,204,181c36,11,48,9,106-11c83-29,161-78,226-144
	c71-71,96-106,190-264c45-75,93-145,107-155c37-28,125-34,169-11c33,17,35,21,32,63c-2,25-18,91-37,147c-85,254-193,392-385,492
	c-118,62-203,82-366,88c-276,10-447-53-621-229c-93-93-136-153-183-253c-104-222-87-440,49-620l39-51l-190-345
	c-228-413-316-562-459-774c-235-347-462-607-647-740l-53-37l-40,28c-97,67-218,268-259,430c-50,193-44,478,16,839c8,50,17,97,19,105
	c3,9,34,23,72,34c356,101,689,301,893,538c235,272,329,562,256,793c-76,239-276,368-546,351c-52-3-119-12-148-20
	c-243-66-473-279-685-635c-101-169-222-414-291-588c-55-140-126-366-126-403c0-22,15-17-235-76c-252-58-438-119-580-189
	c-202-100-338-202-406-308c-69-106-61-147,29-147c53,0,77,12,97,49c40,79,175,179,352,263c170,80,311,122,682,204c22,5,23,3,17-33
	c-3-21-8-119-12-218c-10-275,24-462,119-650c129-258,359-463,582-520c89-22,257-20,339,5c253,79,653,537,996,1145
	c63,111,271,523,351,693l24,53l200-161c244-196,424-353,528-458l78-78l-148-135c-345-314-485-547-486-804c-1-210,100-379,282-474
	c113-58,189-75,351-74c243,0,405,67,563,232c264,276,302,644,103,992c-54,93-182,272-223,311c-13,12-23,27-23,33c0,7,71,72,157,146
	c279,239,491,463,688,729c43,58,75,94,71,80c-14-50-19-702-7-880c35-511,136-946,293-1253c90-176,192-247,358-247
	c117,0,215,45,268,122c126,184,198,449,318,1172l56,339l-21,20c-40,40-197,32-220-11c-5-9-36-138-71-287c-129-561-225-900-242-859
	c-10,25-74,427-93,584c-48,398-71,1159-46,1510c11,154,47,450,56,459c3,2,233-2,512-9l508-13l48,21c46,21,57,40,39,69
	c-25,39-141,54-742,94c-179,12-327,23-329,25c-3,3,12,82,33,177c81,365,100,476,90,503c-18,51-56,69-152,71
	C9684,7608,9630,7605,9613,7599z M5961,6842c58-37,95-82,133-162c29-60,31-73,31-170c-1-88-5-117-27-178c-78-218-267-438-518-607
	c-81-54-268-150-338-174l-33-10l6,32c13,63,116,360,176,510c127,315,263,556,385,683c52,53,117,104,135,104
	C5914,6870,5936,6857,5961,6842z M7974,4668c171-262,201-507,92-734c-81-167-208-284-328-300c-62-8-145,26-211,86
	c-90,82-137,193-137,325c0,96,21,172,80,290c61,121,153,238,295,373l106,102l23-28C7907,4767,7943,4716,7974,4668z M15831,7350
	c-24-11-58-20-75-20c-54,0-180-36-253-74c-288-144-546-529-730-1084c-77-234-97-361-90-577c12-359,117-623,333-841
	c190-190,418-284,689-284c275,0,482,94,690,311c101,105,177,220,254,380c144,300,206,547,218,859c15,412-90,712-341,977
	c-127,134-378,327-467,358C15998,7377,15885,7374,15831,7350z M15985,7090c364-325,477-533,505-928c10-146-2-334-31-477
	c-61-302-227-633-408-814c-127-127-274-210-345-195c-95,20-228,122-322,247c-195,260-269,698-184,1091c71,325,226,725,360,930
	c89,136,221,256,283,256C15854,7200,15917,7150,15985,7090z M11399,4462c-39-25-115-118-159-193l-39-65l-75,73
	c-104,100-164,133-241,133c-33,0-71-6-85-13c-79-39-81-218-2-372c32-65,124-154,237-231c133-91,164-104,238-104
	c100,0,124,27,235,270c109,237,122,274,122,351c0,118-44,169-144,169C11445,4480,11417,4474,11399,4462z"/>
</svg>
