<?xml version="1.0" encoding="utf-8"?>
<!-- Generator: Adobe Illustrator 25.2.0, SVG Export Plug-In . SVG Version: 6.00 Build 0)  -->
<svg version="1.1" id="Layer_1" xmlns="http://www.w3.org/2000/svg" xmlns:xlink="http://www.w3.org/1999/xlink" x="0px" y="0px"
	 viewBox="0 0 2200 2200" style="enable-background:new 0 0 2200 2200;" xml:space="preserve">
<g>
	<path d="M569.31,523.68c-1.41-38-13.12-74.98-33.15-104.27c-2.8-4.09-8.15-11.16-11.04-14.6c-13.95-16.58-31.47-30.55-49.88-39.74
		c-12.19-6.08-26.23-10.52-39.35-12.5c-1.37-0.21-2.86-0.42-3.28-0.49c-0.44-0.07-4.29-0.34-8.55-0.62
		c-7.99-0.51-10.25-0.51-16.37-0.11c-3.87,0.24-6.55,0.52-10.13,1.04c-26.49,3.81-51.96,15.72-73.32,33.94
		c-29.2,24.88-49.5,60.07-56.98,99.42c-5.79,30.3-3.83,61.83,5.64,91.86c3.14,9.96,6.88,19.22,11.56,28.6
		c13.43,26.94,32.9,50.34,56.23,67.22c17.93,12.98,37.34,21.68,58.13,25.8c3.42,0.68,13.18,1.95,16.63,2.15
		c14.29,0.86,27.53-0.47,41.42-4.19c16.02-4.29,29.77-10.53,42.82-19.35c6.75-4.57,11.64-8.61,18.11-15.06
		c6.52-6.46,11.99-12.95,17.63-20.85c17.11-23.97,28.52-53.95,32.42-85.25C569.22,545.81,569.71,534.52,569.31,523.68z
		 M544.82,595.79c-5.07,13.6-12.8,27.79-21.31,39.22c-8.05,10.76-17.41,20.26-29.12,29.41c-6.64,5.19-13.54,9.55-21.46,13.59
		c-12.32,6.27-26.37,10.08-41.52,11.16c-9.08,0.67-16.17,0.38-25.92-1.04c-5.86-0.84-7.38-1.15-12.27-2.35
		c-7.28-1.8-16.79-5.22-23.8-8.51c-16.54-7.77-31.48-18.62-44.83-32.4c-14.64-15.11-26.55-33.14-35.32-53.4
		c-1.67-3.85-4.97-12.8-6.28-16.99c-5.31-17.02-7.99-33.6-8.3-51.74c-0.08-5.25,0.55-17.09,1.2-22.24
		c1.96-15.6,5.52-29.39,11.05-43.08c14.67-36.31,41.33-65.49,74.53-81.29c16.42-7.81,33.62-12.02,51.9-12.54
		c3.39-0.08,15.95,0.65,19.31,1.14c15.52,2.27,30.03,7.28,43.87,15.09c16.72,9.44,30.76,21.98,43.44,38.72
		c5.42,7.13,9.39,13.33,14.03,21.86c13.76,25.27,21.6,54.84,22.42,84.11C557.15,549.66,553.36,572.9,544.82,595.79z M452.44,520.53
		c-5.52-9.06-8.1-22.97-7.78-42.11c0.19-11.36,1.62-21.14,4.03-27.48c1.77-4.64,4.62-8.7,7.59-10.75c1.21-0.82,3.14-1.71,4.47-2.04
		c1.34-0.33,4.46-0.27,5.71,0.11c5.54,1.67,10.43,7.19,14.01,15.9c3.28,7.96,5.32,19.23,5.65,31.33c0.09,2.64,0.09,4.4,0.03,12.68
		c-0.02,1.21-0.18,3.59-0.36,5.27c-0.72,6.54-2.01,11.32-4.15,15.44c-2.99,5.83-7.12,9.48-12.14,10.77
		c-1.28,0.32-1.64,0.32-4.07,0.11c-2.89-0.25-3.46-0.42-5.79-1.71C457.29,526.74,454.37,523.71,452.44,520.53z M352.1,518.26
		c-5.52-9-8.1-22.68-7.78-41.42c0.19-11.13,1.62-20.67,4.03-26.86c1.77-4.52,4.62-8.47,7.59-10.44c1.21-0.79,3.14-1.64,4.47-1.95
		c1.34-0.31,4.46-0.22,5.71,0.16c5.54,1.69,10.43,7.16,14.01,15.75c3.28,7.86,5.32,18.97,5.65,30.89c0.09,2.59,0.09,4.33,0.03,12.48
		c-0.02,1.19-0.18,3.53-0.36,5.18c-0.72,6.42-2.02,11.11-4.15,15.13c-2.99,5.68-7.12,9.2-12.14,10.37
		c-1.28,0.29-1.64,0.28-4.07,0.03c-2.89-0.31-3.46-0.48-5.79-1.8C356.95,524.45,354.03,521.42,352.1,518.26z M527.96,586.45
		c0.63,2.39,0.06,4.94-1.47,6.46c-1.28,1.27-2.16,1.61-3.87,1.47c-1.97-0.16-2.5-0.51-4.62-3.26c-2.33-3.01-3.85-4.83-4-4.85
		c-0.06-0.01-0.92,1.32-1.89,2.92c-10.78,17.99-24.64,33-40.51,43.65c-29.36,19.72-63.54,23.01-93.79,9.5
		c-24.64-11-45.13-32.57-57.45-60.05c-1.78-3.95-3.38-7.98-4.49-11.2c-0.49-1.48-0.93-2.72-0.96-2.76c-0.13-0.19-1.6,1.32-1.94,1.98
		c-0.48,0.91-1.61,1.97-2.53,2.32c-1.1,0.43-2.51,0.48-3.48,0.12c-1.89-0.72-3.3-2.16-3.95-4.08c-0.52-1.51-0.42-3.45,0.27-4.82
		c0.9-1.81,3.88-4.84,6.42-6.57c3.41-2.32,11.78-5.84,17.9-7.57c1.86-0.53,2.23-0.59,3.42-0.44c1.11,0.14,1.47,0.26,2.19,0.73
		c2.98,1.97,3.75,6.46,1.63,9.26c-0.8,1.04-1.69,1.54-3.66,2.07c-1.87,0.5-6.09,1.91-6.38,2.13c-0.23,0.18-0.15,0.46,1.36,4.68
		c11.23,31.36,33.27,55.21,60.75,65.22c3.05,1.1,6.95,2.25,10.42,3.04c3.93,0.9,11.85,1.86,15.84,1.93
		c17.58,0.29,34.42-4.55,50.16-14.43c14.02-8.8,26.21-20.96,36.41-36.29c1.73-2.61,4.14-6.55,5.54-9.07
		c0.26-0.47,0.38-0.7,0.64-1.16c-0.4-0.39-0.6-0.59-1.01-0.98c-1.49-1.45-4.42-4.19-4.81-4.46c-0.18-0.14-0.48-0.26-0.65-0.28
		c-0.72-0.07-2.11-1.01-2.85-1.94c-2.59-3.24-1.58-8.4,1.95-9.94c0.82-0.34,1.2-0.4,2.54-0.32c0.99,0.05,1.8,0.21,2.19,0.4
		c3.14,1.57,11.95,10.12,19.17,18.74C526.01,582.9,527.63,585.18,527.96,586.45z"/>
	<path d="M220.7,412.73c0,0-1.27,0.54-4,1.63c2.18,22.35,3.27,33.43,5.63,55.59c0.73,6.54,1.09,9.81,2,16.35
		c3.09,25.98,6.36,51.05,10.72,75.94c4.9,27.8,8.36,45.24,12.35,50.51c6.54,9.45,16.89,19.8,16.89,29.07
		c0,24.16-5.63,37.97-16.89,42.15c-8.36,3.09-31.07,2.54-68.31-3.82c-29.61-4.9-49.6-11.81-59.59-19.98
		c-9.99-7.99-14.9-20.71-14.9-38.33c0-4,2.73-8.18,7.63-12.17c6-4.9,9.63-8.17,10.36-10.17c4.18-7.27,8.72-26.89,14.17-58.13
		c5.09-30.16,8.9-57.77,10.72-82.3c0.54-6.18,1.27-21.26,1.63-45.24c-4-1.82-5.99-2.73-5.99-2.73c-3.63-0.18-6.54,3.09-9.26,9.63
		c-3.63,9.08-7.09,15.44-9.99,18.17c-6,6.36-15.26,8.9-26.71,8.18c-9.99-0.73-16.35-4.72-19.26-11.08c-1.82-4-2.91-11.63-2.91-23.25
		c0-11.99,3.81-24.34,10.9-37.42c7.99-15.08,17.26-23.07,27.61-23.07c3.63,0,9.27,1.27,16.71,3.45c7.63,2,13.26,2.91,16.89,2.91
		c44.69,0.18,74.85-0.55,89.93-1.82c2.91-0.36,8.36-4.91,11.99-4.91c11.26,0.18,20.89,8.18,28.89,24.71
		c4.72,9.81,7.99,19.98,9.26,29.98c-11.08,14.9-19.8,31.61-25.8,49.42c-9.08-0.91-16.72-8.18-22.35-21.44
		C233.06,420.18,226.7,412.91,220.7,412.73z M779.53,480.31c-8.36,0.55-21.26,2.54-21.26,2.54c-29.98,0.36-44.87,7.08-44.87,19.98
		c0,4.72,2.91,9.45,7.99,13.99c5.27,4.54,7.99,8.18,7.99,11.08c0,8.72-5.45,13.08-16.35,13.08c-19.26,0.36-35.24-3.82-47.6-12.54
		c-15.62-11.08-23.25-27.43-23.25-49.05c0-14.72,4.54-29.25,12.9-43.42c9.08-15.62,19.62-23.25,31.98-23.25
		c10.72-0.18,18.71,4.18,23.98,12.17c4,9.45,5.99,14.17,9.99,23.62c4.72,7.99,12.35,12.17,23.25,11.99
		c13.08,0,21.98-6.9,26.34-20.17c2.36-8.18,3.63-21.26,3.63-40.15c0-10.72-1.64-20.71-4.72-29.61
		c-4.36-11.81-10.9-17.62-19.26-17.62c-5.27,0-18.89,8.72-23.98,8.72c-5.27,0-12.9-1.45-23.62-4.91
		c-10.36-3.27-18.35-4.72-23.98-4.72c-37.97,0-69.22,20.89-94.11,61.41c-6.9,11.45-12.72,23.26-17.44,35.43
		c9.45,23.07,14.9,48.51,15.81,74.31c0.36,11.45-0.18,23.62-1.63,35.24c-2.54,20.53-8.36,40.88-16.72,59.41
		c4.72,12.9,10.54,25.07,17.62,36.52c23.25,38.15,53.23,56.86,89.56,56.14c24.53-0.54,43.24-4.72,56.5-12.72
		c6-3.82,20.71-15.81,43.6-38.51c1.09-1.45,5.63-3.27,12.72-5.45c7.27-2,12.9-5.81,16.35-10.17c1.64-2,2.54-6,2.54-11.81
		c0-13.44-2.91-37.79-8.9-73.03c-1.63-9.99-0.36-19.98,3.27-30.88c3.82-5.99,5.81-9.08,9.63-15.26c4-6.18,5.81-12.17,5.63-18.89
		C812.59,483.76,801.51,479.22,779.53,480.31z M1047.5,550.07c0-9.45-6.9-22.71-14.9-21.98c-2.72,0.36-6.36,4-10.72,10.9
		c-4.54,7.08-9.63,10.9-16.53,11.63c-1.09,0.18-2.72,0.36-4.72,0.18c-3.63-0.91-12.35,2.91-15.62,3.09
		c-38.88,4-57.95-12.35-57.95-48.33c0-15.08,4.36-23.25,12.72-23.8c7.63-0.54,13.26,2.91,16.89,9.63c3.63,6.9,7.99,10.17,12.35,9.81
		c6.72-0.55,11.63-7.27,15.26-20.17c2.36-9.08,3.45-18.89,3.45-28.7c0-6.36-1.82-9.27-6-9.08c-4.36,0.18-11.08,9.99-15.44,10.17
		c-10.9,0.55-20.17-1.45-27.62-6.36c-8.9-5.63-13.26-13.26-13.26-22.89c0-2.18,0.36-4,0.73-6.18c1.27-5.81,2.91-9.27,5.63-10.72
		c3.63-0.18,5.27-0.18,8.9-0.18c19.08-0.73,33.61,2.91,43.6,9.63c4,2.91,9.45,9.08,17.08,19.26c5.27,6.9,11.26,9.99,18.53,9.63
		c7.45-0.36,13.44-4.54,17.62-11.63c3.09-5.63,4.72-13.08,4.72-21.62c0-13.81-2.36-26.16-7.27-37.61
		c-6.18-14.72-15.08-22.34-26.71-22.34c-8.36,0-23.26,0.73-43.6,2.18c-20.35,1.27-35.24,2.18-44.51,2.18
		c-6.72,0-23.25-1.63-29.61-1.63c-16.53-0.18-30.7,2.36-42.33,7.45c-13.99,5.99-20.71,15.81-20.71,28.34
		c0,6.9,1.45,12.53,4.72,15.44c3.63,3.27,7.63,5.27,9.99,6.54c4.72,4,8.18,14.17,9.63,29.79c0.73,7.45,0,16.17-0.36,26.16
		c-1.27,46.51-2,69.76-3.27,115.54c-0.73,27.07-3.27,44.15-6.72,51.05c-3.09,5.81-4.54,8.54-7.63,14.17
		c-0.91,1.82-4.36,6.72-11.26,15.08c-4,4.91-5.99,9.99-5.99,15.62c0,14.17,6.72,20.71,20.35,18.89c30.16-3.82,45.24-5.81,75.21-9.81
		c10.9-1.63,22.16-2.72,33.61-4.91c13.99-2.36,24.89-4,32.88-5.09c28.71-4.36,45.6-8.54,50.69-12.9
		c13.26-11.99,20.16-34.52,20.16-67.58c0-7.27-0.73-16.9-1.27-27.61C1047.68,560.06,1047.5,552.98,1047.5,550.07z M1232.98,572.42
		c-4-3.63-7.45-17.99-12.35-41.24c-4.36-20.71-7.63-41.97-10.9-64.13c-0.73-5.45-1.09-8.18-2-13.81
		c-2.18-19.08-3.27-28.52-5.45-47.6c2.73-1.27,4-1.63,4-1.63c6-0.18,12.35,5.63,18.35,17.26c5.81,11.26,13.99,16.71,23.62,16.35
		c17.08-0.91,25.62-11.63,25.62-32.16c0-11.26-3.63-22.71-10.54-33.79c-7.99-13.26-17.44-19.8-28.7-19.8c-3.63,0-9.26,3.63-11.99,4
		c-15.26,1.27-45.24,2-90.11,2.18c-3.45,0.18-9.08-0.73-16.71-2.54c-7.63-2-13.26-3.27-16.89-3.27c-10.36,0-19.44,7.81-27.43,23.25
		c-7.09,13.44-10.9,26.34-10.9,38.51c0,11.99,0.91,19.8,2.73,23.62c2.91,6.18,9.26,9.27,19.26,8.72
		c11.63-0.54,20.89-4.18,26.89-10.9c2.72-2.91,6.18-9.27,9.99-18.35c2.54-6.36,5.63-9.63,9.08-9.81c0,0,2,0.73,6,2.18
		c-0.36,22.35-1.09,36.7-1.45,42.51c-1.82,23.07-5.81,49.6-10.9,79.39c-5.27,30.88-9.99,51.05-13.99,59.04
		c-0.73,2.18-4.36,6.36-10.36,12.9c-5.09,5.45-7.63,10.36-7.63,14.35c0,17.26,4.72,28.16,14.72,32.7
		c10.17,4.54,30.16,4.18,59.77-0.18c37.06-5.63,59.95-10.9,68.31-15.99c11.08-6.54,16.9-19.8,16.9-40.33
		C1249.88,585.86,1239.34,579.32,1232.98,572.42z M1559.81,547.89c-15.62-43.24-23.26-79.39-23.26-108.64c0-14.9,2-26.71,6.36-35.79
		c2.54-5.27,6.36-10.9,11.99-16.35c4.36-4.18,6.54-7.63,6.54-10.54c0-15.26-22.16-22.71-65.77-22.53c-14.35,0-26.89,1.45-37.42,4.36
		c-14.9,4.18-22.16,11.08-22.16,20.53c0,6.18,3.82,11.08,10.9,14.35c7.63,3.45,11.26,9.99,11.26,20.16
		c0,7.27-4.18,11.99-11.63,13.63c-2.91,0.73-9.99,1.27-22.53,1.82c-12.72,0.54-21.08,0.36-24.71-0.55
		c-7.63-2-11.63-7.63-11.63-16.53c0-6.36,3.63-12.9,10.72-18.71c7.27-6,10.9-11.26,10.9-15.99c0-15.62-21.98-23.07-65.58-22.89
		c-14.9,0-27.25,1.64-37.61,4.91c-14.9,4.54-22.53,12.17-22.53,22.71c0,6.36,2.54,10.72,6.9,13.08c7.27,3.63,11.26,5.99,12.35,7.08
		c4.36,5.09,6.36,13.99,5.99,26.34c-0.18,5.45-0.18,8.18-0.36,13.63c-0.73,0-3.09,16.9-7.27,51.23
		c-4.36,37.24-10.36,62.86-17.62,75.94c-0.73,2-4.54,5.63-10.72,11.99c-4.72,4.9-7.27,9.45-7.27,13.26
		c0,18.71,7.99,29.61,23.62,33.06c8.54,1.82,25.62,0.73,50.87-2.54c4-0.55,9.63-1.45,16.71-2c7.63-0.55,12.9-1.27,15.99-1.64
		c17.26-2.36,29.61-6.36,37.24-11.99c9.99-7.27,15.26-19.62,15.26-36.33c0-4-2.91-8.54-8.72-13.26
		c-6.9-5.27-10.72-10.17-11.63-13.08c-1.45-3.82-2-16.71-2-37.79c0-14.72,0.73-23.62,2.36-26.89c2.72-7.45,11.26-11.44,24.34-12.17
		c12.9-0.91,15.62,3.45,15.62,14.35c0,7.81,1.27,19.62,3.27,35.06c2,15.26,3.09,27.07,3.09,35.06c0,2.73-3.27,6.9-9.99,12.72
		c-6.72,5.81-9.99,11.63-9.99,16.53c0,13.99,8.36,21.8,25.62,24.71c5.27,0.91,19.98,0.54,45.24,0
		c53.23-1.45,79.57-10.17,79.57-27.25C1582.16,572.24,1574.53,561.34,1559.81,547.89z M1822.15,533.72
		c-0.54-9.45-0.73-15.62-0.73-17.99c0-7.99-6.9-19.98-14.9-20.17c-2.73-0.18-6.36,2.36-10.72,7.63c-4.54,5.27-9.63,7.81-16.53,7.63
		c-1.09-0.18-2.73-0.18-4.72-0.54c-3.63-1.27-12.35,0.91-15.62,0.73c-38.88-1.27-57.95-15.81-57.95-43.6
		c0-11.63,4.36-17.62,12.72-17.44c7.63,0.18,13.26,3.09,16.9,8.72c3.63,5.63,7.99,8.54,12.35,8.54c6.72,0.18,11.63-4.72,15.26-14.72
		c2.36-6.9,3.45-14.72,3.45-22.35c0-5.09-2-7.45-5.99-7.45c-4.36-0.18-11.08,7.09-15.44,7.09c-10.9-0.18-20.17-2.36-27.61-6.54
		c-8.9-4.72-13.26-10.72-13.26-17.99c0-1.63,0.36-2.91,0.73-4.54c1.27-4.18,2.91-6.9,5.63-7.81h8.9c19.08,0.18,33.61,3.27,43.6,9.08
		c4,2.36,9.45,7.45,17.08,15.99c5.27,5.81,11.26,8.54,18.53,8.72c7.45,0.18,13.44-2.73,17.44-8.36c3.27-4.36,4.91-10.36,4.91-17.44
		c0-11.26-2.36-21.44-7.27-30.7c-6.18-12.17-15.08-18.17-26.71-18.17c-8.36,0-23.25,0.73-43.6,1.64
		c-20.53,0.91-35.24,1.63-44.51,1.63c-6.72,0-23.25-1.27-29.61-1.27c-16.53-0.18-30.7,1.63-42.33,5.09
		c-13.99,4.18-20.71,10.9-20.71,19.62c0,4.9,1.64,9.08,4.72,11.08c3.82,2.36,7.63,3.82,9.99,4.91c4.72,2.91,8.18,10.36,9.63,21.62
		c0.73,5.45,0,11.81-0.36,19.08c-1.27,33.97-2,51.05-3.27,85.93c-0.73,20.53-3.27,33.61-6.72,38.7c-3.09,4-4.72,6-7.63,10.17
		c-0.91,1.27-4.36,4.72-11.26,10.54c-4,3.45-5.99,7.27-5.99,11.81c0,10.9,6.72,16.71,20.35,16.9c30.16,0,45.24,0.36,75.21,1.09
		c10.9,0.36,22.16,0.91,33.61,1.09c13.99,0.18,24.89,0.54,32.88,1.09c28.7,1.27,45.6,1.09,50.69-1.64
		c13.26-7.63,19.98-25.61,19.98-53.77C1823.24,551.16,1822.7,542.99,1822.15,533.72z M2125,645.81c0,2.91-2.54,4.72-6.9,6.54
		c-3.81,1.63-5.81,2.36-9.63,4c-4.72-0.73-12.9-1.63-23.62-1.82c-9.08-0.36-16.71-1.09-23.07-2.36
		c-27.61-5.27-46.87-18.71-57.23-40.69c-5.27-10.72-9.81-32.52-14.53-64.49c-3.81-26.71-10.72-44.69-20.35-53.05
		c-3.09-2.72-7.27-3.81-11.63-3.09c-7.45,1.27-10.72,5.09-9.63,11.26c5.63,34.52,11.08,56.32,17.26,63.95
		c6.54,7.81,16.35,16.9,16.35,24.71c0,20.17-5.45,31.61-16.35,34.88c-8.36,2.54-31.25,1.09-68.31-2.91
		c-30.52-3.27-51.05-7.45-60.86-13.08c-9.99-5.81-14.9-17.08-13.63-31.79c0.36-3.45,2.73-7.08,7.63-10.9
		c5.99-4.91,9.26-7.81,10.35-9.45c3.63-6.36,8.36-22.89,13.62-49.6c4.72-24.16,9.99-48.32,10.9-68.49
		c0.73-21.8-4.54-37.79-10.9-42.33c-2.36-1.09-6.36-2.73-9.99-5.27c-3.09-2.18-4.72-6.54-4.72-11.63c0-9.08,6.9-16.17,20.71-20.53
		c11.08-3.63,25.25-6.18,42.33-5.45c6.72,0.18,10.17,0.36,16.89,0.73c23.62-1.09,38.88-1.45,44.87-1.45
		c21.98,0.18,41.6,4.18,58.32,12.35c20.71,10.36,31.25,25.07,31.25,44.51c0,23.98-13.63,42.51-40.88,54.5
		c2.91,7.99,8.36,13.99,17.26,18.35c13.08,6.72,19.62,10.17,19.98,10.17c10.72,9.81,19.08,19.62,24.34,29.79
		c4.72,9.08,8.9,21.26,11.99,36.15c4.54,21.8,11.26,41.6,20.53,58.68c0.36,1.27,4,5.45,10.36,13.63
		C2122.46,637.64,2125,642.36,2125,645.81z M1972.94,418.36c0-17.8-7.63-27.07-23.25-27.43c-6.72,0-13.99,5.09-12.72,11.08
		c1.27,14.72,1.82,21.98,3.09,36.88c0.36,6,2.91,9.45,7.27,9.63c7.99,0.36,14.35-2.91,19.26-9.45
		C1970.94,433.07,1972.94,425.81,1972.94,418.36z"/>
	<path d="M836.55,1043.74c0.76,14.13,1.58,26.45,1.58,36.04c0,43.16-8.89,72.74-26.13,88.41c-6.8,5.94-28.74,12.34-66.37,18.02
		c-10.45,1.58-24.62,3.6-42.85,6.51c-15.11,2.41-29.79,3.65-43.89,5.12c-39.29,3.88-58.94,5.29-98.23,6.62
		c-17.76,0.69-26.65-7.29-26.65-25.06c0-7.23,2.61-13.39,7.84-19.08c8.87-9.64,13.57-15.36,14.62-17.63
		c3.97-6.79,5.96-10.2,9.93-17.01c4.7-8.52,7.84-29.77,8.89-64.13c1.67-58.11,2.5-87.5,4.17-146.95
		c0.53-12.67,1.43-23.79,0.53-33.49c-1.84-19.94-6.28-33.05-12.54-38.29c-3.14-1.74-8.41-4.59-13.08-8.8
		c-2.18-1.96-3.78-4.96-4.82-8.61c-0.13,0.13-0.24,0.29-0.38,0.39c-3.11,2.47-8.36,4.58-12.53,7.46
		c-7.84,4.56-14.91,16.26-20.92,34.04c-4.81,14.25-7.82,28.33-9.4,41.61c-6.68,62.4-10.03,93.26-16.71,154.41
		c0,20.46,2.61,34.65,7.31,42.08c8.89,10.88,21.43,23.29,21.43,35.06c0,25.2-4.19,41.36-12.03,49.71
		c-7.84,8.34-26.27,9.49-48.59,12.19c-5.34,0.65-13.06,1.33-21.95,0.77c-36.05-2.28-59.09-6.26-68.45-8.93
		c-12-3.43-19.86-8.25-24.05-15.61c-8.89-12.02-13.59-29.08-13.59-51.02c0-8.42,3.66-15.13,11.5-20.15
		c6.48-4.22,9.72-6.36,16.21-10.7c0.53-1.06,1.05-2.68,1.05-5.51c0-5.09-1.56-15.5-4.7-30.09c-3.35-16.55-5.02-24.85-8.37-41.45
		c-4.19-21.62-5.23-32.59-5.75-33.81c-4.19-15.98-10.13-24.43-17.25-25.27c-8.58-1.01-17.26,16.75-25.6,53.07
		c-7.85,34.17-12.03,53.46-12.03,58.51c0,5.05,0.53,8.53,2.09,11.09c8.89,12.43,21.43,27.12,21.43,38.92
		c0,28.62-6,46.12-17.24,50.88c-9.41,3.98-34.02,1.89-70.55-8.18c-5.7-1.57-18.29-4.3-37.11-10.58
		c-14.63-4.89-25.84-11.04-32.4-15.02c-16.55-10.06-32.88-20.99-40.23-32.98c-6.65-10.85-10.46-25.19-10.46-42.65
		c0-5.28,3.45-9.66,9.93-13.38c7.74-4.44,12.01-8.06,13.58-10.13c3.66-6.09,6.8-15.66,8.37-29.62c0-1.28,0-1.93,0-3.21
		c0-46.2-2.53-89.76-8.37-130.56c-6.66-46.51-15.67-76.81-27.69-92.41c-8.88-8.87-20.9-14.99-20.9-33.29
		c0-15.15,9.97-23.26,29.79-25.4c13.56-1.46,29.78-0.52,49.12,3.48c56.96,11.78,85.18,28.44,85.18,54.98
		c0,8.45-2.09,14.88-6.8,17.97c-7.84,5.33-12.54,8.34-13.07,9.92c-1.05,2.59-1.57,5.85-1.57,8.64c0,3.91,2.62,14.49,8.37,31.9
		c10.97,33.56,19.33,51.02,25.61,52.25c7.31,1.43,15.15-2.17,22.99-11.58c7.82-9.42,12.12-18.53,12.53-26.9
		c0.7-14.54-1.56-27.6-7.31-38.18c-2.61-4.39-7.84-11.46-16.71-21.4c-6.28-7.25-9.57-14.13-9.94-20.3
		c-1.63-27.32,22.46-37.68,70.54-32.41c19.34,2.12,33.03,5.08,41.81,8.83c15.1,6.45,22.99,18.33,22.99,34.65
		c0,7.01-3.66,14.3-10.96,21.2c-7.33,6.89-10.98,11.73-10.98,15.79c0,6.95,2.09,17.02,6.8,30.22c4.7,13.2,9.4,22.9,13.59,28.49
		c5.75,9.22,12.01,19.03,20.39,19.72c1.56,0.13,7.31-9.17,17.24-27.62c9.92-18.45,14.62-30.45,14.62-34.53
		c0-6.99-4.17-12.5-13.06-17.17c-8.89-4.67-13.06-13.15-13.06-24.84c0-15.8,8.75-26.73,25.6-34.14c12.43-5.47,26.65-8.03,42.85-7.42
		c40.35,1.51,63.7,11.49,69.87,31.31c4.15-8.4,11.99-15.18,23.65-20.1c15.12-6.37,33.74-9.76,55.39-9.82
		c8.24-0.02,29.77,1.74,38.66,1.49c12.03-0.34,31.36-2.11,58-4.99c26.65-2.89,45.98-6.28,56.97-7.77
		c15.15-2.05,26.82,6.7,35.01,25.74c6.33,14.73,9.4,31.22,9.4,49.66c0,11.72-1.98,21.82-6.26,30.01
		c-5.38,10.31-13.06,16.64-22.99,18.26c-9.4,1.53-17.25-1.68-24.04-10.15c-9.92-12.5-17.25-19.92-22.46-23.53
		c-13.08-8.77-31.88-12.79-56.97-11.63c-4.6,0.21-6.9,0.31-11.5,0.51c-3.65,1.87-5.75,6.57-7.31,14.11
		c-0.51,2.89-1.05,5.21-1.05,8.07c0,12.62,5.75,22.69,17.24,29.98c9.91,6.29,21.95,8.94,36.05,7.97
		c5.75-0.4,14.64-13.41,20.38-13.82c5.22-0.38,7.84,3.35,7.84,11.75c0,12.86-1.52,25.88-4.7,37.72
		c-4.56,16.99-10.98,25.91-19.87,26.67c-5.75,0.49-11.3-3.6-16.2-12.61c-4.8-8.82-12.01-13.12-21.95-12.48
		c-10.96,0.71-16.71,11.22-16.71,30.88c0,46.6,25.09,68.09,75.77,62.44c4.17-0.46,15.67-6.14,20.37-5.32
		c2.63,0.11,4.7-0.25,6.28-0.52c8.87-1.52,15.67-7.06,21.41-16.76c5.75-9.7,10.45-14.91,14.12-15.57
		c10.45-1.89,19.32,14.89,19.32,27.29C835.5,1019.73,835.76,1029.14,836.55,1043.74z M1209.08,774.33
		c10.45-1.98,19.85,3.84,27.7,17.49c7.84,13.63,17.24,19.34,27.16,17.42c20.92-4.07,42.86-25.66,42.86-45.96
		c0-21.32-1.05-34.91-2.09-41.14c-4.19-19.46-12.99-27.87-26.65-26.61c-4.52,0.42-12.54,9.5-16.73,10.2
		c-3.66,0.61-13.12-1.4-28.74-7.16c-15.02-5.54-31.35-7.36-47.55-4.67c-48.59,8.07-90.47,38.8-124.37,93.33
		c-30.85,49.62-46.5,100.63-46.5,152.06c0,49.83,15.81,89.54,47.03,118.28c32.9,30.29,73.68,39.22,121.23,27.98
		c36.58-8.64,65.84-24.85,87.78-47.74c23.38-24.38,35.54-54.77,35.54-90.07c0-40.38-6.28-66.37-18.82-78.5
		c-2.61-2-5.75-2.89-9.4-2.15c-6.26,1.28-19.52,9.98-39.19,25.97c-19.3,15.68-33.96,24.78-42.85,26.74
		c-36.58,8.08-54.86-11.67-54.86-59.85c0-17.62,5.85-34.91,17.76-51.71C1171.47,789.79,1188.7,778.21,1209.08,774.33z
		 M1715.39,936.43c4.19,6.84,6.08,16.23,5.23,28.1c-1.32,18.51-16.39,31.23-43.89,39.49c-18.22,5.48-40.24,10.14-66.37,11.71
		c-26.13,1.57-44.94,1.14-56.44-2.59c-19.34-5.66-28.74-17.79-28.74-38.43c0-7.55,1.05-16.7,3.66-26.42
		c15.68-16.48,23.53-39.75,23.53-70c0-10.24-8.09-17.91-22.99-22.34c-11.39-3.39-24.04-4.6-37.63-3.44c0,0-4.7,1.37-14.62,3.75
		c-13.08,8.61-19.34,23.22-19.34,43.82c0,15.09,3.14,27.89,9.92,38.22c2.63,3.73,9.42,10.01,19.34,19.46
		c6.8,6.28,9.94,12.5,9.94,18.59c0,23.34-12.54,40.21-37.63,50.85c-12.01,5.5-34.49,10.56-66.35,16.37
		c-48.08,8.77-71.86,1.63-72.12-21.82c-0.24-20.98,9.07-40.07,27.7-56.62c21.93-19.5,41.54-56.28,58-108.48
		c14.24-45.17,21.43-83.14,21.43-114.06c0-12.07-2.09-21.36-6.79-28.82c-2.61-3.93-6.27-8.24-12.01-12.12
		c-4.66-3.15-6.8-5.69-6.8-7.61c0-10.53,18.95-24.32,55.9-33.34c31.68-7.73,54.88-11.04,69.51-10.07
		c24.54,1.63,43.36,7.73,56.42,18.59c5.75,4.98,14.64,16.81,26.13,35.68c3.66,5.98,7.84,17.98,13.06,36.13
		c20.39,71.63,40.77,127.01,61.14,164.58c2.63,5.3,7.89,11.38,15.68,17C1707.82,928.1,1712.78,933,1715.39,936.43z M1535.63,783.64
		c0-2.38-3.1-10.9-9.4-24.79c-5.69-12.53-13.59-18.8-23.51-18.28c-5.75,0.31-12.11,7.31-18.82,21.64
		c-5.77,12.32-8.36,21.78-8.36,28.09c0,2.91,4.7,4,13.59,3.38c4.19-0.29,16.71-2.57,20.9-2.83c6.8-0.42,11.5-0.22,13.06,0.65
		C1531.46,790.55,1535.63,787.94,1535.63,783.64z M2083.23,792.81c5.02-7.36,7.53-11.05,12.54-18.47
		c6.28-12.6,22.99-8.43,22.99-28.71c0-11.45-5.24-21.41-15.67-29.53c-12.86-10-34.61-18.56-65.32-25.35
		c-22.42-4.96-40.87-5.15-55.39-2.51c-18.09,3.29-27.18,11.82-27.18,24.78c0,7.18,2.08,13.76,5.75,17.32
		c4.57,4.43,9.93,7.59,13.08,9.63c13.06,12.61,22.99,28.89,28.74,48.34c1.56,9.19,2.61,17.8,3.66,25.92
		c0.2,0.44,0.31,0.67,0.51,1.11c0,0.99,0,1.49,0,2.47c1.05,7.63,1.58,13.69,1.58,17.14c0,9.38-2.09,16.23-6.28,20.11
		c-4.19,0.41-7.84-1.48-11.5-5.29c-14.1-16.16-28.53-46.25-42.85-89.05c-13.21-39.5-29.91-65.03-44.42-77.17
		c-10.87-9.09-35.19-18.36-73.15-22.3c-22.37-2.32-40.84-0.76-55.39,3.2c-18.09,4.93-27.18,14-27.18,26.4
		c0,6.87,2.18,12.83,6.28,15.97c4.83,3.69,9.92,6.12,13.06,7.7c11.5,9.03,16.29,28.46,14.1,57.58c-1.49,19.89-4.09,42.32-7.82,66.94
		c-4.58,30.22-12.03,63.46-22.48,99.33c-4.8,4.15-7.21,6.24-12.01,10.46c-4.7,4.12-6.8,8.38-6.8,12.72c0,3.67,0,5.5,0,9.18
		c0,7.25,2.56,14.21,5.75,19.57c4.34,7.29,12.82,13.67,25.6,19.63c14.53,6.77,28.74,11.05,42.85,12.5
		c36.05,3.69,60.57,6.86,70.54,7.45c21.61,1.28,39.95,3.34,48.59,0.24c10.85-3.88,16.73-12.2,16.73-26.38
		c0-5.38-0.44-11.46-1.56-17.95c-0.96-5.55-4.7-11.84-9.42-18.24c-4.8-6.52-7.21-9.75-12.01-16.18
		c-3.65-5.12-8.77-19.48-15.15-41.61c-6.57-22.8-9.4-37.69-9.4-45.82c0-5.26,2.09-7.77,5.75-7.15
		c12.01,2.06,25.07,19.71,39.71,53.46c23.53,54.09,37.63,86.98,42.85,96.85c20.39,36.93,43.38,61.44,68.98,71.15
		c22.99,8.72,38.14,6.89,45.47-5.89c4.7-8.26,6.78-25.97,6.78-52.86c0-20.15-4.66-50.71-14.1-90.45c-9.86-41.5-15.94-71.4-16.2-90.1
		c-0.07-5,0-7.1,0-6.6C2073.82,816.57,2075.92,802.99,2083.23,792.81z"/>
	<path d="M188.46,1332.94c0,38.18,15.19,60.93,45.55,67.16c7.38,1.51,19.61-0.65,35.57-6.74c16.33-6.23,27.34-9.16,32.54-8.33
		c3.03,0.49,5.64,2.09,7.81,4.39c10.41,13.04,15.63,34.96,15.63,65.8c0,26.96-10.1,46.71-29.5,58.66
		c-18.2,11.21-42.51,15.21-72.88,10.24c-39.48-6.46-73.31-27.88-100.66-65.43c-25.94-35.63-39.04-75.54-39.04-116.13
		c0-41.86,13.01-75.48,38.61-101.25c28.12-28.3,62.91-34.98,103.26-24.09c13.45,3.63,27,10.6,39.47,19.9
		c13.01,9.7,20.83,14.12,23.86,14.73c3.48,0.69,10.08-4.32,13.89-3.35c11.23,2.87,18.65,12.13,22.12,29.02
		c0.87,5.33,1.74,16.63,1.74,33.71c0,16.27-18.22,27.37-35.59,24.24c-8.23-1.48-16.04-8.96-22.55-22.31
		c-6.51-13.37-14.32-21.12-22.99-23.12c-16.93-3.9-31.24-0.99-42.08,8.69C193.35,1307.55,188.46,1318.97,188.46,1332.94z
		 M583.21,1319.73c19.37,36.56,29.06,78.85,29.06,126.82c0,32.75-13.91,60.31-41.21,81.64c-25.76,20.13-57.25,29.75-94.14,28.32
		c-41.21-1.6-74.35-17.78-98.91-48.77c-22.14-27.93-33.41-61.76-33.41-100.13c0-42.27,11.27-77.81,33.83-107.24
		c25.94-33.85,61.17-49.39,105.42-48.21C526.82,1253.31,559.74,1275.42,583.21,1319.73z M517.27,1395.95
		c0-17.17-4.33-36.44-12.58-57.5c-10.41-26.64-23.42-40.09-38.61-40.75c-9.12-0.4-15.93,5.46-20.83,17.1
		c-3.68,8.76-5.64,18.57-5.64,29.17c0,17.66,3.11,34.71,9.55,50.24c8.72,21.03,21.25,31.82,38.18,32.42
		C507.3,1427.33,517.27,1417.01,517.27,1395.95z M914.18,1285.4c4.17-8.15,6.25-12.23,10.41-20.43
		c5.22-12.99,19.09-16.43,19.09-33.07c0-9.39-4.41-15.45-13-18.1c-10.66-3.29-28.7-2.18-54.24,2.56
		c-18.59,3.45-33.87,9.1-45.99,15.96c-15,8.5-22.57,18.68-22.57,30.12c0,6.33,1.89,11.59,4.77,13.48c3.62,2.36,8.25,3.54,10.86,4.31
		c10.84,6.81,19.09,17.44,23.86,32.01c1.29,7.29,2.16,14.23,3.03,20.74c0.17,0.3,0.26,0.45,0.43,0.76c0,0.84,0,1.26,0,2.1
		c0.87,6.08,1.31,10.99,1.31,13.9c0,7.91-1.74,14.44-5.22,19.22c-3.48,1.88-6.51,1.6-9.55-0.32c-11.71-8.62-23.72-29.34-35.57-62.18
		c-10.97-30.42-25.08-48.88-36.89-55.99c-8.82-5.32-29.2-8.29-60.73-5.29c-18.55,1.76-33.89,5.81-45.98,11.26
		c-15,6.76-22.57,15.76-22.57,26.78c0,6.11,1.85,11.18,5.22,13.49c3.94,2.7,8.23,4.33,10.84,5.36c9.54,6.65,13.52,23.22,11.71,48.67
		c-1.24,17.4-3.4,36.89-6.49,58c-3.8,25.92-9.99,54.14-18.66,83.76c-3.99,3.67-5.98,5.49-9.97,9.13c-3.9,3.55-5.64,7.04-5.64,10.49
		c0,2.92,0,4.38,0,7.29c0,5.75,2.13,11.14,4.77,15.22c3.58,5.52,10.6,10.42,21.25,13.71c12.04,3.73,23.86,5.54,35.57,5.18
		c29.93-0.91,50.03-2.59,58.56-3.78c17.95-2.51,33.13-6.1,40.34-10.67c9.08-5.75,13.89-14.91,13.89-26.41c0-4.36-0.36-9.15-1.3-14.1
		c-0.79-4.2-3.9-8.18-7.82-11.98c-3.99-3.87-5.98-5.81-9.97-9.68c-3.03-3.14-7.28-13.44-12.58-30.14
		c-5.44-17.12-7.81-29.12-7.81-36.03c0-4.47,1.74-7.11,4.77-7.59c9.97-1.57,20.81,9.74,32.97,33.28
		c19.53,37.72,31.24,59.05,35.57,65.18c16.93,22.64,36.02,32.65,57.27,29.42c19.09-2.91,31.67-11.4,37.75-25.1
		c3.9-8.84,5.62-23.93,5.62-45.43c0-16.11-3.87-38.27-11.71-66.28c-8.17-29.21-13.23-51.53-13.45-66.76c-0.06-4.13,0-5.88,0-5.46
		C906.38,1308.96,908.12,1296.82,914.18,1285.4z M1235.62,1470.72c0,20.39-6.94,37.88-20.83,52.57
		c-13.45,14.21-30.36,23.3-50.32,26.16c-16.06,2.3-30.82-0.46-44.26-8.06c-12.67-9.29-19-13.87-31.67-22.91
		c-11.71-8.5-23.11-12.48-33.83-12.1c-5.99,0.22-13.58,1.29-22.57,3.29c-12.02,2.68-19.52,4.48-22.55,4.98
		c-14.76,2.41-27.8-0.27-38.61-7.46c-11.54-7.67-17.79-18.59-17.79-32.29c0-8.3,3.9-13.14,12.15-14.62
		c6.49-1.16,18.65,3.76,23.42,2.9c1.3-0.23,1.74-1.56,1.74-3.66c0-2.94-3.24-9.16-9.55-17.57c-7.84-10.46-13.45-20.55-16.93-28.69
		c-6.07-13.92-9.1-29.24-9.1-46.06c0-39.96,11.63-80.38,35.13-120.83c26.57-45.74,59.88-74.02,98.93-83.29
		c39.05-9.27,70.85,1.41,95.01,33.13c21.27,27.92,32.11,63.25,32.11,105.44c0,52.85-18.66,99.64-55.53,138.53
		c-4.35,3.44-8.94,6.81-13.02,9.84c-5.59,4.15-8.68,8.57-8.68,12.52c6.51,12.47,16.93,17.79,31.24,15.39
		c6.49-1.09,16.7-3.98,29.49-8.49c13.34-4.71,22.99-7.88,28.63-8.82C1233.02,1459.83,1235.62,1463.01,1235.62,1470.72z
		 M1128.47,1317.07c0-22.25-3.46-43.32-9.97-62.72c-9.08-27.09-21.7-38.47-38.62-34.55c-10.41,2.41-18.59,10.08-24.29,22.45
		c-4.66,10.11-6.94,20.98-6.94,32.59c0,22.81,3.09,41.05,9.54,55.12c9.13,19.91,24.54,27.81,45.12,23.76
		C1120.08,1350.42,1128.47,1338.45,1128.47,1317.07z M1525.38,1088.97c-9.03-3.24-19.53-3.91-31.24-2.58
		c-45.56,5.19-68.55,20.75-68.55,43.44c0,8.01,3.71,13.55,10.86,16.45c8.12,3.29,13.06,13.49,15.19,29.02
		c1.76,12.86,2.59,30.5,2.59,53.84c0,45.33-11.71,62.41-53.35,69.31c-24.73,4.1-40.79,0.08-48.17-12.7
		c-4.77-8.69-7.36-27.31-7.81-54.71c0.18,0.33,0.27,0.49,0.44,0.82c0-28.38,2.59-48.52,7.36-61.51c1.31-3.37,5.77-9.13,12.15-16.16
		c4.78-5.26,7.38-11.2,7.38-17.85c0-20.88-23.86-26.66-71.16-16.64c-15.61,3.31-29.07,8.46-40.34,14.88
		c-16.45,9.36-24.73,20.45-24.73,33.21c0,6.59,2.62,10.92,7.38,13.79c6.42,3.87,11.28,7.68,13.45,12.08
		c4.77,9.14,6.94,24.19,6.94,46.01c0,9.8-0.65,24.8-1.72,44.55c-1.07,19.65-1.31,34.78-1.31,44.68c0,51.71,11.08,86.06,32.54,103.65
		c20.81,17.05,56.84,22.01,108.03,14.95c28.21-3.89,54.87-20.02,79.39-48.9c24.75-29.14,36.89-59.01,36.88-89.74
		c0-10.86-0.44-26.41-0.87-47.45c-0.44-21.05-0.44-36.83-0.44-47.51c0-32.92,2.61-55.99,7.81-69.7c1.31-3.33,5.36-8.23,11.73-14.71
		c4.77-4.86,7.36-10.67,7.36-17.53C1543.16,1100.99,1537.03,1093.16,1525.38,1088.97z M1789.53,1330.5
		c-0.66-13.38-0.87-21.75-0.87-25.11c0-11.05-7.36-27.98-16.06-28.59c-3.03-0.21-6.94,3.36-11.71,10.74
		c-4.77,7.38-10.41,10.91-17.78,10.52c-1.31-0.07-3.03-0.16-5.22-0.74c-3.9-1.65-13.45,1.29-16.91,1.15
		c-42.08-1.7-62.91-21.76-62.91-61.28c0-16.67,4.77-25.21,13.87-25.13c8.25,0.07,14.23,4.23,18.22,12.15
		c4.08,8.11,8.68,12.11,13.45,12.25c7.38,0.21,12.72-6.82,16.5-20.91c2.64-9.83,3.9-20.8,3.9-31.71c0-7.13-2.18-10.53-6.51-10.68
		c-4.77-0.17-12.15,10.05-16.93,9.93c-11.71-0.28-21.7-3.24-29.93-8.96c-9.54-6.63-14.32-15.08-14.32-25.42
		c0-2.35,0.44-4.23,0.87-6.58c1.29-6.12,3.03-9.89,6.07-11.3c3.82-0.02,5.73-0.02,9.54-0.02c20.83,0.03,36.44,4.69,47.3,13.08
		c4.33,3.47,10.41,10.77,18.65,23.03c5.64,8.34,12.15,12.48,19.96,12.98c8.25,0.52,14.66-3.39,19.09-11
		c3.55-6.09,5.2-14.28,5.2-24.19c0-15.6-2.55-30.08-7.81-43.53c-6.81-17.42-16.48-26.57-29.06-27.21
		c-9.12-0.46-25.17-0.28-47.3,0.82c-22.11,1.1-38.16,2.31-48.15,2.52c-7.38,0.15-25.25-1.04-32.09-0.84
		c-17.98,0.53-33.43,4.09-45.99,9.94c-15.11,7.04-22.57,17.21-22.57,29.6c0,6.86,1.81,12.58,5.2,15.23
		c3.87,3.03,8.25,4.99,10.86,6.2c5.2,3.83,8.89,14.05,10.42,30.02c0.74,7.77,0,16.77-0.44,27.08c-1.38,48.34-2.08,72.75-3.46,122.09
		c-0.87,29.17-3.48,47.57-7.38,54.89c-3.3,5.86-4.95,8.79-8.25,14.66c-0.87,1.96-4.77,6.89-12.14,15.29
		c-4.35,4.96-6.51,10.34-6.51,16.63c0,15.48,7.38,23.56,22.12,23.3c32.62-0.39,48.93-0.4,81.56,0.07
		c11.71,0.1,23.91,0.72,36.44,0.55c15.12-0.21,26.9,0.22,35.57,0.53c31.24,1.11,49.46,0.28,55.11-3.79
		c14.32-10.89,21.7-36.17,21.7-75.35C1790.84,1354.72,1790.16,1343.35,1789.53,1330.5z M2117.93,1479.7c0,3.05-2.61,4.99-7.38,6.86
		c-4.17,1.6-6.25,2.41-10.41,4.06c-5.22-0.81-13.96-1.9-25.6-2.3c-9.92-0.34-18.22-1.19-25.16-2.59
		c-29.93-6.05-50.76-21.94-62.04-49.54c-5.64-13.58-10.66-40.82-15.61-81.57c-4.16-34.21-11.71-57.79-22.12-69.66
		c-3.48-3.96-7.83-5.72-12.58-5.26c-8.21,0.81-11.73,5.34-10.41,13.57c6.07,45.72,11.88,74.01,18.65,84.1
		c6.97,10.4,17.8,22.29,17.8,32.13c0,25.75-6.11,40.27-17.8,44.64c-9.06,3.39-33.83,2.09-74.18-2.18
		c-32.98-3.49-55.38-8.49-65.95-16.15c-10.81-7.84-16.14-23.14-14.76-43.85c0.31-4.69,3.05-9.96,8.25-15.36
		c6.51-6.75,9.97-10.79,11.28-13.08c3.9-8.84,9.03-31.64,14.74-68.31c5.13-32.9,10.85-65.51,11.71-93.48
		c0.93-30.5-4.77-52.14-11.71-59.08c-2.61-1.71-6.91-4.45-10.84-8.29c-3.49-3.41-5.22-9.52-5.22-16.57
		c0-12.73,7.59-21.8,22.57-26.13c12.06-3.49,27.34-4.85,45.98-0.79c7.29,1.6,10.93,2.43,18.22,4.16c25.6,3.35,42.08,6.84,48.59,8.38
		c23.86,5.64,45.12,16.71,63.34,32.18c22.51,19.1,33.83,40.12,33.83,63.12c0,28.42-14.74,46.56-44.25,56.13
		c3.03,10.4,9.12,18.8,18.66,25.87c14.32,10.58,21.25,15.73,21.68,15.85c11.71,13.66,20.77,26.77,26.47,39.47
		c5.07,11.3,9.68,26.09,13,43.45c4.91,25.64,12.15,48.69,22.14,68.49c0.43,1.43,4.38,6.43,11.27,15.68
		C2115.32,1470.7,2117.93,1475.78,2117.93,1479.7z M1953.06,1188.46c0-22.72-8.23-36.34-25.16-39.9
		c-7.38-1.55-15.19,3.92-13.87,12.12c1.38,19.52,2.08,29.28,3.46,48.84c0.44,8.03,3.03,12.72,7.81,13.64
		c8.68,1.67,15.61-1.66,20.83-9.3C1950.8,1207.01,1953.06,1198.21,1953.06,1188.46z"/>
	<path d="M360.51,1787.59c-5.64-3.81-9.47-7.99-11.36-11.62c-14.74-25.71-29.5-64.34-44.26-117.02
		c-3.78-13.35-6.81-22.36-9.46-26.99c-8.32-14.56-14.76-24.08-18.93-28.27c-9.45-9.19-23.09-15.57-40.86-19.65
		c-10.59-2.43-27.38-2.78-50.33-1.59c-26.71,1.38-40.49,6.05-40.49,14.03c0,1.44,1.56,3.86,4.92,7.27c4.16,4.21,6.81,8.25,8.7,11.76
		c3.41,6.61,4.92,13.95,4.92,22.89c0,22.89-5.2,49.15-15.51,79.03c-11.89,34.49-26.15,57.37-42,67.54
		c-13.49,8.65-20.22,20.99-20.06,36.2c0.19,17.08,17.4,25.93,52.21,25.97c23.08,0.03,39.36-1.02,48.06-3.45
		c18.16-4.48,27.24-14.7,27.24-30.54c0-4.13-2.27-8.66-7.19-13.66c-7.19-7.49-12.11-12.56-14.01-15.44
		c-4.92-7.88-7.19-17.14-7.19-27.67c0-14.42,4.54-23.96,14-28.53c7.19-0.53,10.59-1,10.59-1c9.85,0.69,18.98,2.83,27.25,6.29
		c10.78,4.51,16.64,10.5,16.64,17.61c0,21-5.68,36.29-17.01,46.18c-1.9,6.41-2.66,12.53-2.66,17.64c0,13.97,6.81,23.21,20.81,27.97
		c8.34,3.05,21.95,4.39,40.88,4.4c18.91,0.02,34.85-2.01,48.04-5.43c19.96-5.17,30.84-13.84,31.8-26.07
		c0.62-7.86-0.76-14.1-3.78-18.64C369.59,1794.53,365.99,1791.29,360.51,1787.59z M232.23,1686.84c-1.14-0.79-4.54-1.42-9.47-1.86
		c-3.03-0.27-12.11-0.06-15.13-0.34c-6.43-0.6-9.84-1.98-9.84-4.08c0-4.55,1.88-11.08,6.06-19.33c4.86-9.59,9.45-13.97,13.62-13.51
		c7.19,0.79,12.91,6.26,17.03,15.92c4.56,10.71,6.81,17.11,6.81,18.83C241.31,1685.55,238.27,1687.01,232.23,1686.84z
		 M663.67,1630.25c0,12.69-12.1,13.15-16.64,22.22c-3.63,5.58-5.45,8.36-9.08,13.9c-5.3,7.74-6.81,16.69-6.81,26.57
		c0-0.33-0.05,1.01,0,4.13c0.18,11.58,4.6,29.23,11.73,52.35c6.84,22.18,10.22,39.23,10.22,51.23c0,16.01-1.51,26.99-4.92,33.09
		c-5.3,9.44-16.27,14.27-32.93,14.27c-18.54,0-35.18-9.66-49.94-29.05c-3.78-5.22-14-22.99-31.03-54.72
		c-10.59-19.78-20.05-30.07-28.76-30.21c-2.64-0.04-4.17,1.83-4.17,5.3c0,5.35,2.06,14.94,6.81,29.01
		c4.62,13.67,8.32,22.24,10.98,25.06c3.48,3.51,5.22,5.25,8.69,8.74c3.41,3.43,6.12,6.89,6.81,10.24c0.81,3.94,1.14,7.71,1.14,11.1
		c0,8.93-4.22,15.5-12.1,19.01c-6.31,2.81-19.38,3.85-35.2,5.21c-7.47,0.64-24.96,1.23-51.08,1.23c-10.22,0-20.53-1.72-31.03-5.03
		c-9.3-2.93-15.41-7.11-18.54-11.76c-2.32-3.45-4.17-7.97-4.17-12.75c0-2.42,0-3.63,0-6.05c0-2.87,1.53-5.73,4.93-8.55
		c3.48-2.89,5.22-4.33,8.69-7.2c7.57-24.08,12.94-46.67,16.27-67.35c2.71-16.86,4.6-32.37,5.68-46.17
		c1.58-20.2-1.88-33.78-10.22-40.08c-2.27-1.1-5.93-2.77-9.45-5.41c-2.97-2.23-4.54-6.47-4.54-11.39c0-8.85,6.58-15.26,19.67-18.85
		c10.53-2.89,23.91-4.19,40.11-3.23c27.5,1.62,45.17,6.42,52.98,11.87c10.51,7.34,22.61,23.44,32.17,48.34
		c10.34,26.94,20.81,44.52,31.03,52.81c2.64,1.91,5.29,2.55,8.32,1.63c3.03-3.13,4.54-7.86,4.54-13.88c0-2.21-0.37-6.02-1.14-10.79
		c0-0.64,0-0.96,0-1.59c-0.15-0.25-0.22-0.38-0.37-0.63c-0.76-5.1-1.53-10.51-2.66-16.27c-4.15-11.84-11.35-21.2-20.81-28.06
		c-2.27-0.99-6.15-2.47-9.46-4.94c-2.57-1.92-4.17-6.17-4.17-11.02c0-8.72,6.57-15.35,19.68-19.52c10.55-3.36,23.89-5.31,40.11-5.08
		c22.28,0.32,37.98,2.29,47.3,6.46C659.85,1617.81,663.67,1623.1,663.67,1630.25z M913.88,1607.13c0,4.57-1.14,8.21-3.78,10.63
		c-4.54,4.75-6.97,8.12-18.91,13.72c-9.43,4.43-15.29,7.22-17.8,9.25c-2.26,1.83-5.29,5.38-9.46,10.93
		c-14.76,15.88-23.84,25.72-27.25,30.38c-9.08,11.2-13.61,20.8-13.61,28.72c0,2.25,0,3.37,0,5.61
		c7.56,42.93,14.35,68.01,20.05,73.96c5.72,5.96,15.51,12.92,15.51,19.8c0,18.02-5.36,28.76-15.88,33.01
		c-7.92,3.2-29.15,4.84-64.33,4.86c-28.39,0.02-46.93-2.11-56.38-6.67c-9.46-4.56-14-13.37-14-26.58c0-3.08,2.27-6.46,6.81-10.18
		c5.68-4.65,9.08-7.45,10.22-9.01c3.41-5.27,7.09-18.44,11.34-38.79c3.67-17.56,6.07-31.38,7.2-40.99c0-0.96-1.88-3.66-5.68-8.22
		c-4.71-5.67-8.15-12.02-10.98-17.16c-3.73-6.78-9.83-15.95-16.27-26.51c-2.64-2.87-6.05-5.72-10.96-8.55
		c-7.95-4.72-12.12-7.26-12.12-7.26c-2.27-0.94-6.17-2.33-9.45-4.72c-2.56-1.86-4.17-6.1-4.17-10.99c0-8.79,6.58-15.69,19.68-20.33
		c10.54-3.73,23.89-6.14,40.11-6.38c22.26-0.33,37.98,0.25,47.3,3.58c7.52,2.69,11.35,7.76,11.35,15.11
		c0,9.03-5.68,12.29-10.59,16.45c-4.91,4.16-8.3,10.45-6.81,16.86c3.05,13.16,9.83,19.45,20.05,18.53c3.8-0.34,8.32-4.7,14-13.22
		c1.13-4.1,3.41-9,6.44-14.67c2.27-4.25,3.41-7.07,3.41-8.41c0-1.34-2.23-1.35-6.44-4.01c-2.92-1.84-4.54-5.87-4.54-10.92
		c0-17.14,20.07-28.33,59.79-33.49C898.38,1587.49,913.88,1592.76,913.88,1607.13z M1053.58,1614.78c0,0-1.13,0.52-3.8,1.96
		c2.12,18.55,3.18,27.83,5.3,46.44c0.76,5.41,1.14,8.11,1.9,13.52c3.02,21.6,6.13,42.54,10.22,63.06
		c4.59,23.04,7.93,37.56,11.73,41.53c6.05,7.23,15.88,14.83,15.88,22.75c0,20.75-5.37,33.24-15.88,38.16
		c-7.93,3.72-29.52,5.63-64.7,5.65c-28.01,0.02-46.93-2.43-56.38-7.58c-9.48-5.14-14-15.02-14-29.85c0-3.46,2.45-7.29,7.19-11.61
		c5.67-5.17,9.08-8.66,9.83-10.44c3.8-6.77,8.26-24.2,13.25-51.68c4.81-26.46,8.55-50.62,10.22-71.78
		c0.42-5.36,1.13-18.39,1.51-38.97c-3.78-0.98-5.68-1.48-5.68-1.48c-3.41,0.41-6.21,3.67-8.69,9.63c-3.5,8.39-6.81,14.32-9.47,17.11
		c-5.68,6.3-14.37,10.01-25.35,11.15c-9.46,0.97-15.43-1.43-18.15-6.48c-1.75-3.25-2.66-9.82-2.66-19.94
		c0-10.48,3.54-21.78,10.22-34.23c7.62-14.23,16.27-22.37,26.12-23.74c3.41-0.47,8.69-0.14,15.9,0.66
		c7.19,0.78,12.47,0.78,15.88,0.31c42.38-5.9,70.77-10.72,85.14-13.9c2.64-0.75,7.95-5.25,11.35-5.75
		c10.59-1.54,19.66,3.97,27.25,16.92c6.37,10.87,9.83,22.65,9.83,34.48c0,21.72-7.95,33.26-24.22,35.01
		c-9.08,0.98-16.76-4.25-22.32-15.13C1065.27,1619.38,1059.26,1614.08,1053.58,1614.78z M1388.11,1769.9
		c14,16.96,21.2,31.05,21.2,42.12c0,22.16-24.98,33.39-75.31,33.48c-23.83,0.04-37.84-0.37-42.76-1.63
		c-16.27-4.17-24.22-14.49-24.22-31.08c0-5.81,3.22-12.09,9.46-18.5c6.44-6.63,9.47-11.95,9.47-15.29c0-9.58-1.14-23.71-3.03-42.26
		c-1.9-18.55-3.03-32.88-3.03-42.36c0-13.17-2.64-18.3-14.74-17.3c-12.49,1.03-20.44,5.76-23.08,14.47
		c-1.53,3.76-2.27,14.32-2.27,31.35c0,24.74,0.62,39.6,1.88,44.22c0.96,3.53,4.53,9.37,10.98,16.34c5.51,5.96,8.32,11.69,8.32,16.22
		c0,19.82-4.96,33.58-14.39,40.61c-7.18,5.36-18.91,8.24-35.18,8.25c-3.03,0-7.97,0.02-15.13-0.39c-6.8-0.39-12.12-0.4-15.9-0.4
		c-23.85,0.02-40.11-1.53-48.06-4.6c-14.74-5.74-22.32-17.81-22.32-36.83c0-3.82,2.27-8.19,6.81-12.78
		c5.87-5.93,9.46-9.52,10.22-11.48c6.81-12.94,12.51-39.47,16.64-79.21c3.81-36.63,6.05-55.11,6.81-55.19
		c0.15-5.9,0.22-8.84,0.37-14.74c0.39-13.6-1.51-23.04-5.66-28.32c-1.14-1.02-4.93-3.25-11.74-6.62c-4.15-2.16-6.42-6.45-6.42-13.34
		c0-11.09,7.2-20.14,21.18-27.09c9.82-4.87,21.57-8.5,35.57-10.49c41.25-5.87,62.06,0.44,62.06,19.27c0,5.6-3.41,12.46-10.22,20.08
		c-6.81,7.64-10.22,15.59-10.22,23.17c0,10.38,3.78,16.75,10.98,18.81c3.41,0.84,11.34,0.81,23.45-0.45
		c11.73-1.21,18.54-2.31,21.18-3.4c7.2-2.77,10.98-8.92,10.98-17.92c0-12.69-3.44-20.58-10.59-24.09
		c-6.72-3.31-10.22-8.93-10.22-16.61c0-11.72,6.86-21.23,20.81-28.2c10.1-5.05,21.95-8.62,35.57-10.4
		c41.23-5.38,62.06,1.74,62.06,21.5c0,3.78-1.96,8.62-6.07,14.55c-5.3,7.64-9.08,15.27-11.36,22.23
		c-4.15,12.2-6.05,27.52-6.05,46.55C1366.17,1669.78,1373.35,1715.02,1388.11,1769.9z M1552.42,1767.32
		c6.07,8.51,15.9,18.39,15.9,27.84c0,24.75-5.4,39.69-15.9,45.61c-7.91,4.46-29.5,6.8-64.7,6.81c-28.37,0-46.91-3.19-56.38-9.89
		c-9.46-6.7-14-19.58-14-38.67c0-4.45,2.49-9.38,7.2-14.83c5.68-6.56,9.07-10.93,9.83-13.18c3.41-8.55,7.89-30.2,12.86-64.54
		c4.47-30.85,9.3-61.04,10.22-87.19c0.97-27.66-3.78-46.55-10.22-52.38c-2.27-1.22-6.09-3.18-9.46-5.88
		c-2.98-2.39-4.54-7.64-4.54-14.03c0-11.5,6.5-21.24,19.68-27.23c10.96-4.98,24.28-7.96,40.11-8.03c22.23-0.09,38.24,2.67,47.3,8
		c7.85,4.62,11.73,11.46,11.73,20.96c0,16.85-12.57,17.46-16.64,29.61c-4.21,12.55-6.81,32.17-6.81,58.44c0,0.88,0,1.32,0,2.2
		c2.27,24.94,5.98,51.89,10.59,79.74C1544.38,1742.13,1548.26,1761.5,1552.42,1767.32z M1858.95,1550.01
		c0,16.56-12.1,16.08-16.64,27.73c-3.63,7.1-5.45,10.66-9.08,17.81c-5.3,9.96-6.81,21.92-6.81,35.28c0-0.44-0.05,1.34,0,5.59
		c0.18,15.77,4.59,39.91,11.73,72.11c6.84,30.9,10.22,54.82,10.22,71.71c0,22.54-1.51,38.19-4.91,46.89
		c-5.31,13.47-16.27,20.48-32.93,20.48c-18.54-0.01-35.18-14.16-49.94-42.21c-3.78-7.55-14-33.4-31.03-78.29
		c-10.59-27.99-20.05-42.27-28.76-42.43c-2.64-0.05-4.17,2.57-4.17,7.44c0,7.49,2.05,20.87,6.81,40.79
		c4.64,19.4,8.32,31.61,10.98,35.64c3.48,5.01,5.22,7.52,8.69,12.53c3.41,4.93,6.12,9.9,6.81,14.74c0.81,5.72,1.13,11.13,1.13,16.04
		c0,12.93-4.2,22.52-12.1,27.65c-6.25,4.06-19.95,5.72-35.2,7.62c-7.29,0.91-24.96,1.8-51.08,1.8c-10.22,0-20.53-2.51-31.03-7.24
		c-9.23-4.17-15.34-9.98-18.54-16.74c-2.31-4.86-4.17-11.29-4.17-18.05c0-3.42,0-5.13,0-8.55c0-4.05,1.53-8.1,4.93-12.14
		c3.48-4.13,5.22-6.2,8.69-10.32c7.58-34.08,12.94-65.72,16.27-94.39c2.71-23.39,4.6-44.62,5.68-63.41
		c1.58-27.52-1.88-45.47-10.22-53.32c-2.27-1.31-6.06-3.42-9.46-6.53c-3.02-2.77-4.54-8.24-4.54-14.74
		c0-11.7,6.63-20.73,19.68-26.39c10.53-4.57,23.93-7.16,40.11-6.62c27.47,0.92,45.05,7.17,52.98,14.49
		c10.28,9.5,22.58,31.18,32.17,65.18c10.35,36.71,20.81,61.21,31.03,72.9c2.64,2.7,5.29,3.64,8.32,2.44
		c3.03-4.25,4.54-10.73,4.54-18.99c0-3.04-0.37-8.27-1.13-14.81c0-0.87,0-1.31,0-2.18c-0.15-0.35-0.22-0.52-0.37-0.87
		c-0.76-6.99-1.53-14.38-2.66-22.23c-4.15-16.2-11.35-29.07-20.81-38.55c-2.27-1.39-6.27-3.64-9.46-6.87
		c-2.68-2.72-4.17-8.38-4.17-14.86c0-11.67,6.62-20.42,19.68-25.46c10.54-4.07,23.9-6.03,40.11-4.65
		c22.25,1.9,38.01,6.02,47.3,12.32C1855.15,1533.43,1858.95,1540.68,1858.95,1550.01z M2100.45,1697.55
		c-3.41,8.5-4.54,16.91-3.03,25.53c5.68,30.98,8.32,52.16,8.32,63.67c0,4.98-0.75,8.41-2.27,9.9c-3.41,3.33-8.69,5.85-15.51,6.8
		c-6.81,0.95-10.98,2.01-12.12,3.15c-21.56,17.03-35.55,27.88-41.23,31.07c-12.49,6.77-30.28,10.04-53.37,10.02
		c-34.42-0.02-62.79-17.76-84.75-53.59c-19.61-32-29.52-69.05-29.52-110.14c0-41.53,10.71-78.12,31.79-108.63
		c23.48-33.99,52.98-48.42,88.92-43.27c5.31,0.76,12.89,3.14,22.71,7.4c10.14,4.4,17.4,6.72,22.32,7.51
		c4.92,0.79,17.78-4.18,22.71-3.31c7.95,1.4,14.09,7.28,18.15,17.74c3.07,7.9,4.54,16.42,4.54,25.37c0,15.59-1.14,26.33-3.41,32.65
		c-4.15,10.34-12.47,14.74-24.96,13.17c-10.22-1.29-17.4-5.73-21.95-13.11c-3.78-8.48-5.67-12.74-9.46-21.28
		c-4.93-7.49-12.49-12.14-22.71-13.42c-11.73-1.47-21.57,3.93-30.27,16.57c-7.93,11.52-12.12,24.01-12.12,36.89
		c0,19.08,7.19,34.21,21.95,45.19c11.71,8.71,26.86,13.47,45.03,14.93c10.22,0.82,15.52-2.32,15.52-9.92c0-2.4-2.66-5.85-7.58-10.32
		c-4.91-4.47-7.57-8.75-7.57-12.8c0-11.28,14.02-15.53,42.38-12.13c-0.37-0.04,12.12,0.29,20.07,1.3
		c20.81,2.65,31.31,8.45,31.77,16.78c0.32,5.71-1.51,10.49-5.29,15.01C2105.9,1690.76,2104.08,1693.01,2100.45,1697.55z"/>
</g>
</svg>
