<?xml version="1.0" encoding="utf-8"?>
<!-- Generator: Adobe Illustrator 25.0.1, SVG Export Plug-In . SVG Version: 6.00 Build 0)  -->
<svg version="1.1" id="Layer_1" xmlns="http://www.w3.org/2000/svg" xmlns:xlink="http://www.w3.org/1999/xlink" x="0px" y="0px"
	 viewBox="0 0 2400 2400" style="enable-background:new 0 0 2400 2400;" xml:space="preserve">
<g>
	<path transform="translate(0.000000,2400.000000) scale(0.100000,-0.100000)" d="M17985,15896c-398-66-783-271-1095-585
		c-152-152-230-248-362-446c-183-274-314-573-376-858c-23-108-26-144-26-312c-1-146,4-209,17-273c96-438,353-694,817-810
		c96-24,123-26,310-27c161,0,223,4,289,18c126,27,235,64,350,118c57,27,106,47,109,45c19-20,42-563,42-1032v-321l-281-304
		c-531-573-750-831-979-1154c-309-437-488-813-561-1186c-31-156-31-378-1-492c71-264,245-386,549-387c367,0,670,204,985,665
		c298,435,495,935,603,1524c62,341,90,647,102,1099l6,262l81,93c111,126,236,280,336,412c83,110,318,459,361,535c25,44,42,53,34,18
		c-53-235-115-599-156-929c-26-205-37-600-20-721c35-244,106-374,241-437c51-24,65-26,201-26h145l77,38c296,147,688,842,881,1567
		c20,76,66,295,66,315c0,3,31,20,69,39c94,48,259,160,366,249c50,42,91,72,93,68c1-4-26-86-61-182c-192-521-315-972-372-1364
		c-24-160-26-201-22-370c4-155,9-203,26-263c64-218,171-302,386-302c191,0,316,75,476,286c40,52,73,93,74,92c2-2,15-66,29-143
		c73-380,130-517,238-568c99-47,253-60,363-32c101,27,163,61,237,132c152,147,275,384,442,856c31,86,56,166,56,178
		c0,43-140,66-213,35c-29-12-41-31-106-172c-111-241-233-473-305-582c-70-105-170-221-181-211c-20,20-89,351-114,555
		c-29,221-41,392-41,562v144l84,187c265,588,594,1370,737,1755c263,704,394,1216,470,1846c53,443,33,616-81,680c-41,23-56,25-160,25
		c-109,0-118-2-185-33c-89-42-223-176-313-312c-252-381-512-1118-711-2015c-145-653-263-1520-287-2100l-6-160l-75-145
		c-41-80-109-203-151-273c-81-136-226-337-243-337c-32,0-62,176-62,360c0,464,171,1157,511,2070c98,262,105,290,92,325
		c-17,46-86,68-194,63c-132-6-130-4-467-316c-151-140-347-302-366-302c-6,0-13,37-16,83c-7,96-39,215-72,272c-60,104-251,133-396,60
		c-119-61-247-245-293-422c-33-128-16-215,58-289c67-66,142-93,284-101c56-3,102-9,102-12c0-4-16-62-35-129
		c-110-381-336-863-553-1177c-67-97-180-241-217-275c-26-24-27-24-40-6c-18,25-42,129-56,252c-44,370,65,1264,266,2184
		c81,374,81,385-2,422c-38,17-61,20-123,16c-114-7-131-20-219-168c-41-69-116-197-169-285c-180-304-473-737-685-1012
		c-104-136-127-159-127-130c-2,231-40,731-75,967l-22,155l67,70c221,231,324,419,352,642c27,210-48,392-186,454
		c-187,83-435,15-561-153c-131-174-152-344-94-747l31-216l-33-28c-120-100-343-219-484-258c-329-92-678,101-819,454
		c-62,155-70,203-70,442c-1,207,1,227,28,340c75,319,240,655,477,972c99,132,341,372,456,453c192,135,367,217,550,261
		c121,29,275,23,382-15c153-54,284-140,441-292c82-78,113-102,142-108c39-7,84,0,106,17c28,22,2,119-48,185c-94,122-264,255-400,313
		c-150,64-245,81-455,85C18130,15908,18038,15905,17985,15896z M23160,15445c0-95-26-336-56-515c-74-446-175-818-360-1329
		c-124-339-434-1103-453-1115c-10-6,20,205,69,493c149,874,403,1784,630,2256c56,115,150,275,162,275
		C23156,15510,23160,15481,23160,15445z M18449,14010c45-104,37-239-23-387c-31-78-104-203-118-203s-23,100-23,260
		c1,158,2,168,28,231c26,62,88,149,107,149C18424,14060,18437,14038,18449,14010z M20469,12800c16-73,15-335-1-347c-7-6-28-15-46-21
		c-29-10-34-9-49,14c-39,60-22,205,39,337c17,37,34,67,39,67C20455,12850,20463,12827,20469,12800z M18045,10868
		c-75-976-277-1653-671-2248c-187-283-377-471-537-532c-61-23-91-14-139,40c-126,144-152,435-67,767c118,471,482,1043,1089,1715
		c184,205,313,340,322,340C18048,10950,18049,10916,18045,10868z M5405,15770c-93-13-167-50-247-127c-172-166-361-534-493-958
		c-251-807-456-1924-521-2830c-12-170-15-310-11-534l5-304l-121-211c-226-398-513-866-822-1341c-200-307-255-402-255-439
		c0-32,31-56,72-56c31,0,42,8,84,57c27,32,95,109,152,171c124,138,294,349,428,532c108,147,435,635,499,742c22,37,43,68,46,68
		s28-65,54-145c106-325,297-636,484-786c135-109,242-149,401-149c292,0,410,136,551,634c21,77,41,142,44,144c3,3,10-9,16-27
		c18-52,86-187,122-243c175-273,391-408,652-408c178,0,287,42,401,154c219,217,417,698,494,1203c43,284,46,584,8,835l-11,78l54,57
		c58,61,196,232,239,296c24,36,44,50,35,25c-8-25-54-466-65-622c-34-524,29-1013,166-1288c42-83,90-133,163-167c51-24,67-26,181-26
		c110,0,131,3,172,24c72,35,124,94,173,195c69,145,176,494,245,801c12,55,25,103,29,107s19-56,35-134c116-594,343-965,646-1059
		c93-28,274-28,362,1c189,63,346,251,527,632c143,299,277,747,324,1083l13,90l100,3l100,3l12-173c15-199,32-320,69-468
		c105-432,327-692,678-792c68-19,104-23,235-23c173,0,240,14,370,80c184,93,376,297,542,577c248,420,544,1246,633,1771
		c4,28,11,37,26,37c42,0,228,43,325,76c56,18,158,59,228,90s129,54,131,52c3-3-37-112-89-244c-461-1174-684-2127-637-2726
		c18-232,59-404,133-552c74-147,166-216,317-238s312,26,385,115c93,115,260,523,372,911c91,313,134,573,134,803c0,89-1,93-26,110
		c-37,24-130,29-176,10c-43-18-40-9-68-202c-41-283-151-636-325-1046c-60-141-189-407-206-424c-15-15-33,14-63,106
		c-131,397-105,919,85,1684c87,348,233,827,366,1200c154,433,194,554,200,619c6,62,5,66-24,95c-37,37-97,54-189,54
		c-93-1-152-19-336-104c-251-117-467-199-523-199c-6,0-9,64-7,187c5,267-16,435-79,629c-52,159-124,258-227,310c-54,28-64,29-187,29
		c-111,0-138-4-185-23c-150-60-277-236-336-467c-31-118-37-286-15-375c43-176,156-313,321-393c94-45,235-87,294-87c61,0,61-3,17-184
		c-89-367-322-975-524-1371c-134-262-323-516-470-633c-83-67-165-105-204-96c-96,23-227,125-308,238c-149,211-241,562-261,997
		l-7,156l72,47c97,62,245,207,321,314c70,98,157,269,194,382c68,206,60,414-23,577c-41,82-74,119-135,151c-46,24-61,27-156,27
		c-93,0-112-3-162-27c-32-15-80-48-108-74c-186-174-337-660-388-1254l-7-85l-36-9c-20-5-61-6-92-2l-57,7l6,177
		c15,422-67,691-237,778c-99,50-259,52-366,4c-159-70-259-339-208-559c41-174,200-358,392-455c28-14,54-29,57-34c8-13-42-286-85-462
		c-124-507-346-993-552-1207c-33-35-65-63-72-63c-36,0-140,122-218,255c-115,197-228,584-271,930c-39,309-45,576-24,1092
		c9,238,9,305-1,316c-42,52-188,67-273,29c-54-23-45-1-107-277c-259-1146-359-1540-481-1905c-61-182-88-246-100-234
		c-17,17-61,189-85,329c-37,219-48,405-42,714c5,265,13,366,67,851c46,421,46,516,0,565c-42,45-188,63-288,36c-78-22-96-42-297-351
		c-140-213-233-345-245-345c-4,0-37,59-74,130c-116,229-234,354-421,446c-130,64-194,80-338,86c-133,6-205-5-313-46
		c-305-118-563-485-581-826c-6-113,5-180,42-260c29-61,30-46-11-335c-86-607-178-1053-280-1360c-40-122-130-310-171-358l-28-34
		l-51,41c-99,79-232,265-319,446c-117,245-195,524-229,818l-15,128l115,207c148,266,432,835,558,1117c287,642,528,1329,635,1812
		c69,309,101,569,101,817c0,430-112,665-345,724C5542,15774,5470,15778,5405,15770z M5519,15553c68-102,95-241,94-488
		c0-395-82-810-279-1415c-161-496-485-1272-741-1772c-58-113-60-107-43,112c45,582,149,1293,276,1890c156,729,287,1142,460,1454
		c72,130,172,266,195,266C5485,15600,5502,15579,5519,15553z M13083,13962c36-67,73-181,93-292c19-104,26-464,11-572
		c-10-69-17-71-105-27c-111,55-195,176-227,325c-42,196,15,463,133,622l24,33l23-21C13047,14019,13069,13988,13083,13962z
		 M11643,13233c40-87,50-143,44-251c-6-114-38-223-102-352c-51-102-151-253-194-294l-31-30v32c0,47,28,253,51,377
		c26,145,72,318,105,402c27,69,83,173,94,173C11614,13290,11628,13264,11643,13233z M10389,12698c30-94,41-169,48-317
		c7-155,0-163-53-65c-43,77-64,161-64,253c0,73,25,191,41,191C10365,12760,10378,12732,10389,12698z M6616,12671
		c138-69,235-179,335-381c50-101,129-323,129-364c0-47-291-281-439-354c-74-36-79-37-191-37c-108,0-119,2-180,31
		c-250,120-329,350-226,659c75,225,198,389,351,469C6461,12729,6508,12724,6616,12671z M7137,11341c-7-219-21-346-61-543
		c-66-325-193-649-341-872c-57-85-162-196-187-196c-7,0-38,17-68,37c-148,99-289,307-373,549c-87,252-127,503-134,858
		c-6,251-5,259,13,251c236-98,574-112,814-35c83,27,211,89,275,133c28,19,54,32,59,29S7140,11460,7137,11341z M4355,15520
		c-89-13-314-79-600-175c-417-141-693-202-1301-290c-170-24-381-58-469-75c-88-18-176-34-196-37l-35-5l-13,56c-7,30-14,74-16,98
		c-5,49-24,68-71,68c-88,0-115-40-122-182l-5-98l-41-10c-100-25-358-114-434-150c-212-101-411-268-472-397c-41-88-17-123,86-123
		c69,0,65-2,204,118c162,142,350,249,551,317c59,19,113,35,120,35c10,0,21-35,38-117c44-222,150-591,379-1329c94-302,90-270,40-295
		c-58-29-108-78-108-106c0-33,34-47,125-53l80-5l42-155c122-444,228-960,282-1375c154-1165,31-1947-369-2345
		c-176-176-349-241-475-180c-60,29-173,135-230,215c-83,117-166,313-195,462c-7,34-11,106-8,161c3,87,7,106,36,163
		c17,35,66,106,108,158c85,105,86,116,18,139c-48,17-131,9-183-17c-80-41-192-135-231-194c-53-79-72-142-77-263
		c-10-205,77-475,220-682c70-102,191-213,280-257c261-128,612-105,890,56c492,288,739,977,688,1926c-36,686-141,1285-357,2041
		c-41,145-74,268-72,274c5,14,185,80,617,224c486,162,749,261,1001,376c162,73,206,97,208,114c10,67-145,94-302,54
		c-154-39-416-124-646-210c-129-48-323-118-430-155s-253-90-325-117c-156-60-194-73-198-67c-4,4-106,291-403,1127
		c-84,239-156,449-160,467c-6,32-4,34,33,44c86,23,441,83,735,125c500,72,844,139,1113,218c346,101,793,274,852,330
		c13,12,23,31,21,43C4572,15507,4457,15535,4355,15520z M19875,14686c-76-28-185-179-256-353c-18-46-35-83-38-83c-4,0-23,27-44,59
		c-55,85-116,152-154,167c-51,22-161,18-202-7c-31-19-33-23-29-64c4-31,27-79,84-172c149-242,240-345,359-404c57-28,72-31,129-27
		c53,3,71,9,93,30c16,14,38,29,50,33c14,4,25,17,28,33c3,15,39,133,79,262c114,363,130,472,74,513
		C20013,14699,19929,14705,19875,14686z"/>
</g>
</svg>
