<?xml version="1.0" encoding="utf-8"?>
<!-- Generator: Adobe Illustrator 25.2.0, SVG Export Plug-In . SVG Version: 6.00 Build 0)  -->
<svg version="1.1" id="Layer_1" xmlns="http://www.w3.org/2000/svg" xmlns:xlink="http://www.w3.org/1999/xlink" x="0px" y="0px"
	 viewBox="0 0 2200 2200" style="enable-background:new 0 0 2200 2200;" xml:space="preserve">
<g>
	<path d="M504.3,639.28c0,51.5-22.61,178.1-43.43,242.15c-4.26,13.09-6.46,15.14-19.74,16.14c-11.7,0.88-14.23,0.47-21.42-2.99
		c-8.03-3.86-17.48-10.88-33.36-25.34c-69.98-63.77-110.7-128.71-149.83-220.76c-15.45-36.34-19.79-51.32-17.47-60.19
		c1.5-5.74,6.42-8.82,13.23-8.53c7.7,0.33,23.69,6.68,33.16,13.13c22.73,15.48,51,47.03,80.74,90.98
		c7.31,10.8,13.73,19.37,14.02,19.05c0.31-0.34,1.91-3.8,3.45-7.47c19.49-46.12,55.71-98.89,77.68-112.04
		c3.05-1.83,8.1-3.92,11.35-4.68c8-1.88,25.41,0.75,31.98,4.9C498.66,592.47,504.3,608.32,504.3,639.28z M1980.59,573.15
		c-1.5-6.83-6.42-13.88-13.23-18.9c-7.7-5.66-23.71-11.35-33.16-11.92c-22.75-1.39-51.02,9.25-80.74,30.25
		c-7.3,5.16-13.7,9.05-14.02,8.59c-0.31-0.45-1.9-4.11-3.46-7.93c-19.47-47.78-55.62-102.5-77.68-118.68
		c-3.06-2.24-8.1-5.16-11.35-6.56c-8-3.45-25.4-5.32-31.98-3.51c-13.98,3.84-19.64,14.81-19.64,38.33
		c0,39.11,22.6,141.97,43.43,200.41c4.25,11.93,6.43,14.16,19.74,20.16c11.71,5.28,14.25,6.14,21.42,6.53
		c8.05,0.44,17.48-0.97,33.36-4.49c69.94-15.5,110.72-35.29,149.83-89.23C1978.54,594.92,1982.91,583.77,1980.59,573.15z"/>
	<path d="M382.79,1475.87c-12.44-19.72-20.17-38.97-20.14-49.74c0.05-24.39,30.4-20.66,47.53,4.24c2.18,3.17,6.71,11.32,10.07,17.86
		c2.39,4.82,3.59,7.22,5.98,12c1.34-2.62,2.01-3.93,3.36-6.56c4.51-8.75,10.04-15.69,16.05-20.03c5.55-4.01,9.66-5.39,15.95-5.18
		c9.32,0.31,18.88,4.92,23.61,11.57c9.37,13.17,6.13,33.87-8.08,50.95c-9.13,10.97-40.5,39.06-44.38,39.9
		c-2.83,0.6-7.66-2.71-16.37-11.6C408.83,1511.59,390.14,1487.52,382.79,1475.87z M592.29,1542.32c8.71,6.91,13.53,9.22,16.37,8.05
		c3.88-1.63,35.25-36.13,44.38-49.12c14.21-20.2,17.43-42.05,8.08-53.34c-4.73-5.7-14.29-8.2-23.61-6.33
		c-6.29,1.26-10.39,3.62-15.95,8.96c-6.02,5.79-11.54,14.03-16.05,23.8c-1.34,2.93-2.01,4.39-3.36,7.31
		c-2.39-4.2-3.59-6.31-5.98-10.53c-3.36-5.7-7.89-12.69-10.07-15.29c-17.12-20.44-47.48-16.01-47.53,7.75
		c-0.02,10.48,7.71,27.24,20.15,43.6C566.06,1516.85,584.76,1536.34,592.29,1542.32z M696.68,1629.54
		c-12.23-10.43-27.22-20.74-32.57-22.54c-0.65-0.22-2.03-0.35-3.71-0.35c-2.27-0.01-2.93,0.08-4.31,0.58
		c-5.97,2.18-7.71,8.93-3.31,12.97c1.26,1.15,3.61,2.29,4.84,2.32c0.29,0.01,0.79,0.14,1.1,0.32c0.67,0.33,5.65,3.67,8.17,5.43
		c0.68,0.48,1.02,0.72,1.71,1.2c-0.44,0.62-0.66,0.93-1.09,1.55c-2.39,3.35-6.48,8.61-9.42,12.07
		c-17.33,20.38-38.03,36.32-61.85,47.4c-26.73,12.42-55.33,17.75-85.2,15.46c-6.78-0.52-20.23-2.76-26.91-4.49
		c-5.88-1.52-12.51-3.63-17.7-5.58c-46.69-17.68-84.13-56.37-103.2-103.85c-2.57-6.39-2.7-6.81-2.31-6.97
		c0.5-0.19,7.66-0.41,10.85-0.36c3.35,0.05,4.87-0.3,6.22-1.41c3.6-3,2.28-9.37-2.76-13.25c-1.22-0.94-1.82-1.24-3.72-1.89
		c-2.03-0.69-2.65-0.75-5.81-0.81c-10.4-0.19-24.62,0.88-30.41,2.51c-4.31,1.22-9.37,4.05-10.9,6.15c-1.16,1.59-1.35,4.27-0.46,6.64
		c1.11,3.01,3.51,5.7,6.72,7.56c1.66,0.95,4.06,1.5,5.92,1.4c1.55-0.09,3.5-1.06,4.29-2.11c0.57-0.76,3.07-2.23,3.29-1.9
		c0.05,0.06,0.79,2,1.63,4.24c1.84,4.92,4.6,11.18,7.63,17.34c20.92,42.8,55.72,77.98,97.59,96.88
		c51.38,23.19,109.43,21.15,159.32-4.11c26.96-13.65,50.52-33.58,68.81-57.71c1.63-2.16,3.09-3.95,3.2-3.94
		c0.27,0,2.84,2.24,6.8,5.91c3.61,3.36,4.5,3.76,7.85,3.77c2.92,0.01,4.41-0.51,6.58-2.3c2.6-2.14,3.56-5.53,2.49-8.55
		C705.47,1637.5,702.73,1634.69,696.68,1629.54z M1590.98,1329.43c2.82,1.56,7.66-1.24,16.37-9.37
		c7.53-7.03,26.22-29.59,33.57-40.63c12.43-18.67,20.17-37.87,20.15-50.84c-0.05-29.43-30.39-39.59-47.53-15.52
		c-2.18,3.06-6.72,11.4-10.07,18.29c-2.39,5.1-3.59,7.65-5.98,12.77c-1.34-3.63-2.01-5.44-3.36-9.05
		c-4.51-12.05-10.04-22.07-16.05-28.86c-5.56-6.28-9.66-8.89-15.95-9.92c-9.32-1.52-18.88,2.61-23.61,10.05
		c-9.36,14.7-6.13,40.12,8.08,63.53C1555.73,1284.92,1587.1,1327.29,1590.98,1329.43z M1766.91,1348.84
		c2.82,2.13,7.67,0.34,16.37-5.83c7.52-5.33,26.23-23.31,33.57-32.37c12.42-15.32,20.17-32.02,20.14-44.71
		c-0.05-28.81-30.41-47.12-47.53-27.5c-2.17,2.49-6.71,9.67-10.07,15.72c-2.39,4.5-3.59,6.76-5.98,11.29
		c-1.34-3.92-2.01-5.88-3.36-9.8c-4.51-13.07-10.03-24.39-16.05-32.63c-5.57-7.62-9.66-11.21-15.95-13.7
		c-9.32-3.69-18.88-1.67-23.61,4.82c-9.35,12.82-6.14,39.38,8.08,65.93C1731.66,1297.13,1763.02,1345.91,1766.91,1348.84z
		 M1875.26,1470.54c-1.53-3.59-6.59-10.59-10.9-15.12c-5.79-6.07-20.01-17.25-30.41-23.74c-3.16-1.98-3.78-2.29-5.81-2.74
		c-1.89-0.42-2.5-0.43-3.72-0.05c-5.05,1.55-6.37,8.57-2.76,14.36c1.34,2.16,2.88,3.5,6.22,5.5c3.18,1.91,10.34,6.72,10.84,7.27
		c0.39,0.44,0.26,0.83-2.31,6.89c-19.06,45.11-56.57,73.55-103.2,80.89c-5.18,0.81-11.81,1.47-17.7,1.73
		c-6.68,0.3-20.14-0.33-26.91-1.27c-29.87-4.12-58.47-15.38-85.2-33.83c-23.82-16.45-44.57-37.41-61.85-62.82
		c-2.93-4.31-7.02-10.82-9.41-14.93c-0.44-0.76-0.65-1.14-1.09-1.9c0.68-0.65,1.02-0.98,1.71-1.63c2.52-2.4,7.5-6.92,8.17-7.37
		c0.31-0.24,0.81-0.43,1.1-0.46c1.23-0.11,3.58-1.66,4.84-3.18c4.4-5.32,2.66-13.87-3.31-16.32c-1.38-0.57-2.05-0.64-4.31-0.5
		c-1.68,0.1-3.07,0.36-3.71,0.68c-5.34,2.61-20.34,16.85-32.57,31.36c-6.05,7.18-8.79,11.06-9.35,13.15
		c-1.07,3.95-0.1,8.1,2.49,10.52c2.17,2.02,3.66,2.52,6.58,2.21c3.34-0.36,4.24-0.95,7.85-5.56c3.97-5.04,6.54-8.09,6.8-8.11
		c0.11-0.01,1.56,2.14,3.2,4.77c18.29,29.45,41.86,54.79,68.81,74.29c49.88,36.07,107.94,49.22,159.32,37.65
		c41.86-9.43,76.65-34.77,97.59-72.54c3.01-5.43,5.79-11.09,7.63-15.66c0.84-2.1,1.58-3.88,1.63-3.92c0.22-0.23,2.72,3.19,3.29,4.5
		c0.81,1.79,2.73,4.27,4.29,5.45c1.86,1.43,4.26,2.45,5.92,2.51c3.21,0.09,5.6-1.31,6.71-4
		C1876.6,1476.49,1876.42,1473.25,1875.26,1470.54z"/>
	<path d="M391.76,246.6c-7.14-58.56-6.17-117.18-13.99-152c-2.09-9.28-14.65-15.86-30.82-15.86c-10.35,0.92-15.53,1.37-25.88,2.26
		c-29.05,2.67-53.01,9.39-71.91,19.64c-4.68,2.49-7.28,3.98-7.83,4.55c-4.11,3.89-6.17,9.19-6.17,15.98
		c0,4.52,1.45,11.29,4.31,20.36c2.87,9.09,4.34,15.97,4.34,20.51c0,16.23-3.17,39.4-9.45,68.8c-6.09,27.49-9.13,41.05-15.22,67.78
		c-8.21,36.55-13.01,59.39-14.38,69.75c-1.64,12.49-2.75,19.87-2.88,21.86c-0.38,5.9,1.98,11.35,5.96,15.14
		c3.97,3.8,11.98,7.5,24.03,10.85c11.51,3.19,23.02,4.68,34.53,4.32c2.96-0.83,4.44-1.25,7.4-2.11c3-0.44,5.06-1.26,6.17-2.47
		c1.08-7.59,2.34-15.19,3.68-22.74c2.78-15.66,4.94-25.54,6.6-29.33c10.4,0.2,16.56,0.37,18.48,0.7c5.77,1.01,12.55,3.68,14.39,6.93
		c2.2,3.88,2.41,16,3.28,29.22c0.78,11.74,2.31,21.62,4.51,29.52c8.77,7.97,20.28,13.34,34.53,15.8
		c13.42,2.31,25.87,1.99,37.38-0.98c7.68-1.98,11.51-6.59,11.51-13.72c0-1.24-1.23-12.08-3.68-32.55
		C403.11,337.79,399.33,307.3,391.76,246.6z M316.96,263.7c-3.57,2.59-7.14,3.65-10.68,3.23c-6.03-0.72-9.05-5.23-9.05-13.48
		c0-12.97,4.65-35.35,13.97-68.11c1.64,1.19,2.47,1.78,4.11,2.97c-0.26,1.77-0.4,4.61-0.4,8.49c0,5.68,0.53,14.15,1.63,25.44
		c1.1,11.28,1.66,19.81,1.66,25.47C318.19,253.39,317.79,258.72,316.96,263.7z M718.65,94.75c-15.75-10.65-32.26-16.01-49.52-16.01
		c-1.48,0-2.22,0-3.7,0c-34.26,0-58.9,5.68-73.97,16.89c-3.03,2.3-5.07,4.12-6.17,5.44c-2.2,3.62-3.28,7.09-3.28,10.39
		c0,1.32,1.17,5.72,3.5,13.14c2.32,7.41,3.48,13.11,3.48,17.06c0,5.28,0.41,13.27,1.23,23.95c0.83,10.7,1.24,18.65,1.24,23.9
		c-0.33,6.68-0.5,10.02-0.83,16.68c-0.27,6.54-0.27,12.77,0,18.64c0.27,5.89,0.41,12.27,0.41,19.11
		c-0.49,32.09-0.74,48.07-1.23,79.91c-0.56,31.37-0.83,57.76-0.83,79.27c0,25.69,0.27,42,0.83,49.06c0.54,7.04,3.01,11.6,7.4,13.65
		c4.37,2.05,13.42,3.3,27.12,3.56c19.45,0.37,35.76-4.37,48.91-13.97c1.91-4.16,2.87-9.12,2.87-14.88c0-2.57-0.54-7.84-1.64-15.85
		c-1.1-8.01-1.64-13.14-1.64-15.4c0-0.95,0.13-1.92,0.41-2.89c0-1.15,0-1.73,0-2.88c0-1.29-0.14-3.86-0.41-7.72
		c-0.27-3.87-0.41-6.28-0.41-7.25c0-6.12,1.88-12.56,4.11-13.53c15.19-6.67,48.66-10.92,62.88-31.45
		c18.91-27.31,28.36-63.02,28.36-107.42c0-38.84-5.17-71.63-15.21-98.05C745.67,119.96,734.4,105.41,718.65,94.75z M686.79,257.91
		c-1.64,3.27-4.93,4.9-9.85,4.88c-7.13-0.02-10.68-4.61-10.68-13.76c0-2.95,0.13-9.32,0.4-19.13c0.27-9.83,0.41-16.06,0.41-18.7
		c0-7.87,0.41-12.64,1.23-14.29c1.1-2.94,4.53-4.42,10.28-4.41c10.13,0.02,15.21,10.75,15.21,32.05
		C693.79,237.33,691.45,248.46,686.79,257.91z M868.03,192.82c0,5.7,0.94,12.74,2.84,21.09c2.17,1.72,4.34,2.51,6.51,2.34
		c4.06-0.31,11.64-3.65,22.75-9.9c11.11-6.23,19.11-9.47,23.98-9.81c7.32-0.52,12.34,1.86,15.05,7.12
		c1.61,3.21,2.43,9.65,2.43,19.33c0,4.84-0.27,12.2-0.81,22.06c-0.56,9.87-0.83,17.21-0.83,22.04c0,2.71,0,4.06,0,6.77
		c-0.54,4.58-2.18,9.62-4.93,15.06c-3.25,6.43-6.85,9.93-10.68,10.41c-8.23,1.04-18.22-1.02-30-6.41
		c-7.4-3.44-13.42-6.34-18.08-8.61c-5.48,0.61-8.23,10.29-8.23,28.98c0,11.83,2.06,19.64,6.17,23.41c2.73,2.42,7.4,3.16,13.97,2.24
		c8.5-1.19,21.23-7.15,38.23-17.66c16.98-10.5,26.98-15.84,29.99-16.25c2.47-0.33,5.07,1.55,7.81,5.62
		c2.74,4.05,4.53,8.23,5.34,12.54c0.83,4.31,1.24,8.38,1.24,12.2c0,2.37-0.29,7.55-0.83,15.59c-0.54,8.04-0.81,13.24-0.81,15.58
		c0,29.42-3.57,50.73-10.7,64.2c-6.84,4.88-14.38,8.17-22.59,9.79c-1.32,0.26-1.98,0.39-3.3,0.65c-1.1,0.22-2.33,0.46-3.7,0.73
		c-12.88,2.53-38.48,7.6-76.84,14.53c-21.38,3.86-35.07,5.26-41.1,4.41c-11.78-1.76-17.68-13.96-17.68-34.81
		c0-27.49,0.56-68.1,1.64-122.52c0.99-50.43,1.48-75.88,2.47-127.24c0-6.87-1.91-17.35-5.75-31.51c-3.56-13.16-5.34-23.59-5.34-31.2
		c0-6.96,1.23-13.42,3.7-19.41c8.23-8.3,21.8-13.12,40.68-14.46c9.3-0.66,12.88-0.99,10.68-0.99c16.28,0,24.42,0,40.7,0
		c1.64,0,5.06,0.23,10.27,0.71c5.2,0.48,8.35,0.7,9.45,0.7c13.69-0.01,36.09-1.23,55.89,3.6c5.43,1.32,9.58,13.23,10.68,32.42
		c0,1.8,0.47,4.97,1.23,9.41c1.16,6.79,1.66,15.06,1.66,24.63c0,22.41-6.53,34.01-19.58,34.87c-4.9,0.33-12.85-2.29-23.86-8.06
		c-10.99-5.77-19.91-8.57-26.69-8.21c-10.61,0.56-16.58,0.71-17.95,0.47C873.06,172.6,868.03,180.5,868.03,192.82z M1182.41,268.38
		c-1.1,0.15-2.81,0.71-5.14,1.68c-2.33,0.97-4.04,1.54-5.13,1.68c-5.48,0.76-10.7-0.35-15.62-3.4c-4.93-3.04-7.4-6.98-7.4-11.75
		c0-2.66,3.14-7.04,9.45-13.07c10.41-9.68,17.39-17.2,20.96-22.77c11.77-18.12,17.66-37.36,17.66-58.32
		c0-23.26-7.96-41.59-23.83-55.73c-14.49-12.9-34.85-21.57-60.82-25.53c-10.67-1.63-18.09-2.45-22.19-2.45
		c-1.64,0-8.72-0.36-18.91,0.85c-2.84,0.34-6.17,1.13-9.45,1.7c-1.81,0.34-2.72,0.51-4.53,0.85c-18.35,3.17-29.03,5.28-32.05,6.16
		c-11.78,3.55-21.11,9.07-27.95,16.55c-4.67,5.11-7,10.94-7,17.43c0,5.33,1.58,12.98,4.73,22.84c3.16,9.86,4.73,16.94,4.73,21.34
		c0,24.03-0.61,60.21-1.84,108.43c-1.23,48.24-1.86,84.19-1.86,107.95c0,19.4,0.14,29.34,0.41,29.86c1.1,7.89,7.13,10.69,18.08,8.44
		c1.91-0.39,6.24-1.57,12.95-3.51c6.71-1.96,10.9-3.1,12.54-3.44c19.16-3.96,29.66-9.8,31.23-17.32c0.84-4.03,1.23-9.57,1.23-16.52
		c0-5-0.41-12.35-1.23-22.09c-0.83-9.73-1.23-17.12-1.23-22.14c0-6.13,0.29-10.94,0.81-14.34c1.16-7.62,3.56-11.83,7.4-12.42
		c2.47-0.38,4.66,0.95,6.58,3.97c2.73,4.59,4.24,6.97,4.51,7.18c4.66,20.3,7.95,35.57,10.28,45.4c4,16.83,13.41,27.83,27.12,32.29
		c4.38,1.53,10,1.55,16.85,0.11c19.72-4.15,34.57-16.59,44.38-36.78c7.41-15.25,11.09-33.18,11.09-53.9
		c0-8.02-1.09-16.01-3.28-23.97C1192.96,272.68,1188.43,267.56,1182.41,268.38z M1109.88,207.49c-3.43,4.53-8.02,7.1-13.77,7.66
		c-13.15,1.27-19.74-1.58-19.74-8.54c0-4.51,0-6.76,0-11.27c0-14.19,3.56-22.65,10.68-25.34c0.83-0.31,2.88-0.59,6.17-0.81
		c14.52-0.95,21.78,6.43,21.78,22.17C1115.01,197.59,1113.29,202.97,1109.88,207.49z M1252.97,375.75c0.16-0.02,0.42-0.05,0.52-0.07
		C1253.01,375.78,1252.89,375.79,1252.97,375.75z M1385,89.55c1.64,6.54,2.47,21.69,2.47,45.83c0,16.61-0.14,25.58-0.41,26.71
		c-1.91,11.07-8.35,17.06-19.31,17.89c-6.31,0.47-14.12-1.53-23.43-6.17c-11.78-5.85-19.31-9.34-22.6-10.3
		c-0.54,0.03-2.04-0.04-4.51-0.23c-2.47-0.19-4.11-0.26-4.93-0.21c-3.3,0.21-5.76,2.63-7.4,4.03c-1.84,1.57-4.53,6.95-4.53,16.71
		c0,11.2-0.07,21.47,1.64,23.84c1.27,1.77,6.17,2.62,9.45,2.3c3.56-0.35,9.45-3.44,17.66-9.11c8.23-5.67,14.52-8.61,18.91-8.98
		c9.6-0.81,15.21,7.53,16.85,25.08c0.27,2.73,0.41,12.02,0.41,28c0,12.28-0.69,20.52-2.06,24.67c-3.01,9.04-10.69,15.32-20.55,15.88
		c-1.25,0.07-3.01-0.27-4.93-0.72c-4.94-1.44-13.15-5.71-24.66-13.03c-0.27-0.2-0.96-0.23-2.06-0.08c-0.81,0.11-3.28,2.5-7.4,7.19
		c-0.54,4.92-0.81,9.08-0.81,12.47c0,8.98,1.23,20.83,3.7,35.5c1.91,11.37,2.87,18.77,2.87,22.19c0,2.69-0.41,4.71-1.23,6.09
		c-1.64,5.44-15.12,10.98-40.28,16.97c-9.67,2.3-14.59,3.53-14.9,3.68c-0.67,0.1-1.71,0.21-3.37,0.33c-2.06,0.16-3.36,0.29-3.91,0.4
		c-11.49,2.3-19.18,1.97-23-1.11c-3.57-8.52-5.34-19.74-5.34-33.58c0-4.35,0.2-11.05,0.61-20.08c0.41-9.01,0.61-15.68,0.61-20.01
		c0-5.05,0-7.58,0-12.62c0-2.3,0.13-4.98,0-7.65c-0.13-2.62-0.41-4.39-0.41-4.9c0-9.41,0.48-23.41,1.44-41.89s1.44-32.31,1.44-41.64
		c0-3.78-0.21-9.44-0.61-16.95c-0.41-7.53-0.63-13.16-0.63-16.93c0-23.62-2.46-40.9-7.4-52.11c0-10.07,2.33-16.63,7-19.66
		c8.75-5.8,28.62-8.61,59.58-8.61c-3.01,0,16.08,0.34,57.13,1.02c25.18,0.42,39.51,1.52,42.94,3.26
		C1382.47,84.76,1384.45,86.94,1385,89.55z M1487.33,156.47c0,3.95,0.94,8.88,2.84,14.82c2.17,1.31,4.34,1.98,6.51,1.97
		c4.06,0,11.64-1.94,22.75-5.76c11.11-3.81,19.11-5.69,23.98-5.66c7.33,0.04,12.34,2.04,15.05,6.03c1.61,2.43,2.43,7.16,2.43,14.23
		c0,3.53-0.27,8.9-0.81,16.09c-0.56,7.2-0.83,12.59-0.83,16.15c0,2,0,3,0,5c-0.54,3.34-2.18,6.91-4.93,10.65
		c-3.25,4.43-6.85,6.64-10.68,6.61c-8.22-0.06-18.22-2.56-30-7.47c-7.4-3.13-13.42-5.68-18.08-7.66c-5.48,0.02-8.23,6.71-8.23,20.18
		c0,8.52,2.06,14.37,6.17,17.49c2.73,2.01,7.4,2.99,13.97,2.97c8.5-0.03,21.23-3.09,38.23-9.02c16.98-5.93,26.98-8.77,29.99-8.72
		c2.47,0.04,5.07,1.77,7.81,5.19c2.74,3.41,4.53,6.82,5.34,10.22c0.83,3.4,1.24,6.56,1.24,9.49c0,1.81-0.29,5.74-0.83,11.83
		c-0.54,6.09-0.81,10.05-0.81,11.86c0,22.66-3.57,38.69-10.7,47.93c-6.84,2.61-14.38,3.86-22.59,3.79c-1.32-0.01-1.98-0.02-3.3-0.03
		c-1.1-0.01-2.33-0.02-3.7-0.03c-12.88-0.08-38.48-0.21-76.84,0.73c-21.38,0.52-35.07,0.38-41.1-0.79
		c-11.78-2.34-17.68-11.2-17.68-26.49c0-20.15,0.56-49.69,1.64-87.85c0.99-35.37,1.48-52.81,2.47-87.22c0-4.6-1.91-11.61-5.75-20.98
		c-3.56-8.71-5.34-15.56-5.34-20.55c0-4.56,1.23-8.78,3.7-12.68c8.22-5.4,21.78-8.52,40.68-9.38c9.31-0.44,12.88-0.65,10.68-0.65
		c16.28,0,24.42,0,40.7,0c1.64,0,5.06,0.16,10.27,0.48c5.2,0.32,8.35,0.48,9.45,0.48c13.69,0,35.01-1.12,55.89,2.61
		c5.54,0.99,9.58,9.51,10.68,23.43c0,1.3,0.47,3.62,1.23,6.86c1.15,4.94,1.66,11.02,1.66,18.03c0,16.41-6.53,24.6-19.58,24.48
		c-4.9-0.04-12.85-2.41-23.86-7.07c-10.99-4.65-19.91-6.96-26.69-6.97c-10.61-0.02-16.58-0.14-17.95-0.35
		C1492.35,142.67,1487.33,147.92,1487.33,156.47z M1780.35,251.14c0.54,2.41,0.81,7.51,0.81,15.3c0,30.23-8.63,53.23-25.89,68.76
		c-4.66,4.2-8.91,7.26-12.74,9.19c-12.61,6.4-28.22,8.67-46.85,7.14c-0.81-0.07-2.87-0.47-6.15-1.19
		c-25.76-5.02-43.84-14.08-54.25-27.82c-18.36-23.93-27.53-54.78-27.53-92.62c0-102.36,39.44-151.14,118.35-151.14
		c27.12,0,41.5,4.36,43.16,13.13c1.36,7.16,2.04,17.78,2.04,31.9c0,3.48-0.47,15.68-1.23,36.49c-0.3,8.1-0.69,13.35-1.23,15.63
		c-1.37,5.98-4.53,10.12-9.45,12.41c-0.83,0.19-2.33,0.23-4.53,0.11c-8.77-0.45-19.72-6.15-32.87-16.79
		c-13.15-10.63-20.01-15.8-20.55-15.82c-4.11-0.12-7.4,1.49-9.87,4.8c-0.54,0.66-3.87,4.63-5.34,9.64
		c-2.81,9.57-1.64,22.26-1.64,29.72c0,35.05,10.68,53.3,32.06,54.69c7.67,0.5,17.39-3.25,29.17-11.35
		c11.78-8.09,19.04-12.07,21.78-11.87C1773.35,231.88,1777.61,238.41,1780.35,251.14z M1996.49,141.93c0,5.58,0,8.37,0,13.94
		c0,2.47,0.28,5.34,0.41,8.25c0.14,3.13,0,5.21,0,5.75c0,20.53-5.48,30.13-16.44,28.91c-3.84-0.43-9.6-4.31-17.26-11.42
		c-7.67-7.12-13.55-10.87-17.66-11.48c-4.67,1.19-6.98,4.63-6.98,10.35c0,14.59,0.13,36.41,0.4,65.54
		c0.27,29.12,0.41,51.04,0.41,65.67c0,4.96,0.88,12.51,2.67,22.73c1.78,10.21,2.67,17.71,2.67,22.44c0,16.03-8.35,23.44-25.06,22.59
		c-3.57-0.08-18.91-3.47-46.02-8.93c-5.59-1.13-8.39-1.67-13.98-2.74c-8.77-5.88-13.15-14.52-13.15-26.08
		c0-0.99,0.14-3.66,0.41-8.05c0.27-4.38,0.41-7.32,0.41-8.79c0-0.5-0.14-1.51-0.41-3.02c0-1.18,0-1.77,0-2.95
		c0-3.68,0.41-9.88,1.23-18.6c1.1-11.64,1.74-20.31,2.06-25.87c1.17-20.26,3.43-50.49,6.17-90.22c-1.1-1.79-1.25-5.72-0.83-11.45
		c0.35-4.78-1.1-8.39-4.1-10.52c-5.21-0.32-12,2.64-20.35,8.73c-8.35,6.1-14.99,8.94-19.93,8.63c-7.94-0.5-11.91-9.02-11.91-25.53
		c0-0.47,0.27-2.12,0.4-4.58c0.13-2.45,0-4.95,0-7.08c0-9.75,0-14.62,0-24.35c0-2.12,0.13-4.72,0-7.41c-0.13-2.7-0.4-4.59-0.4-5.28
		c0-15.02,4.32-23.85,7.8-27.05c2.49-2.29,31.65-5.3,87.54-5.3c53.15,0,84.79,1.98,94.93,6.12c5.75,2.47,8.64,11.15,8.64,25.94
		c0,3.56-0.29,8.76-0.83,15.57C1996.76,133.19,1996.49,138.38,1996.49,141.93z"/>
	<path d="M757.92,819.48c6.23,19.83,3.28,48.64,3.28,66.4c0,39.92-2.93,66.63-8.77,80.73c-2.93,7.45-12.29,13.91-26.27,16.33
		c-5.84,1.01-14.47,2.16-24.63,3.87c-12.34,2.08-20.72,2.95-24.65,3.32c-20.08,1.89-42.71,3.77-66.8,3.83
		c-18.61,0.05-31.39-2.08-38.31-5.61c-11.69-6.14-17.52-18.08-17.52-35.46c0-32.76,0.54-70.27,1.64-112.71
		c1.53-65.15,2.3-97.98,3.83-164.19c0.36-15.76,0.54-32.61,0.54-50.57c0-1.65-0.54-6.7-1.64-15.14
		c-3.28-27.37-7.3-50.09-12.04-68.04c-0.74-2.58-1.09-5.12-1.09-7.64c0-9.25,3.28-15.57,9.85-18.99
		c20.81-11.03,46.54-16.13,77.2-15.68c10.95,0.16,20.62,1.08,29.03,2.77c3.28,2.78,4.93,4.17,8.21,6.93
		c2.18,4.63,5.24,10.37,6.03,15.13c3.88,23.65-1.74,71.38-5.21,127.75c-3.47,56.37-5.2,98.11-5.2,125.84
		c0,24.05,0.37,37.61,1.1,40.83c2.18,9.65,8.4,14.29,18.61,13.76c5.84-0.3,14.97-4.63,27.37-13.17
		c12.41-8.52,21.18-13.09,26.29-13.53C746.06,805.61,755.38,811.38,757.92,819.48z M1042.64,561.24
		c5.85,23.04,8.74,56.82,8.74,101.38c0,106.6-25.5,186.16-76.5,239.69c-15.67,16.5-37.7,29.89-66.1,39.48
		c-24.05,8.12-43.35,8.77-57.92,2.14c-35.7-15.8-56.88-59.59-63.39-130.78c-1.82-19.94-2.73-33.61-2.73-40.79
		c0-67.78,10.52-130.77,31.69-191.46c21.8-62.51,58.83-98.44,110.93-109.33c29.49-6.16,51.89-2.6,67.2,10.37
		C1018.23,502.21,1034.31,528.43,1042.64,561.24z M951.73,672.06c0-43.86-11.5-62.83-34.49-56.83c-6.57,1.72-12.67,7.02-18.08,15.9
		c-7.32,12.03-10.94,40.99-10.94,85.94c0,21.12,1.27,36.12,3.83,45.06c4.74,17.24,14.24,23.62,28.47,19.18
		c13.5-4.21,22.4-13.67,26.82-27.96c2.87-9.3,4.38-22.2,4.38-38.67C951.73,697.66,951.73,689.14,951.73,672.06z M1350.31,382.11
		c-30.3,5.83-54.58,14.4-72.83,25.66c-11.68,7.18-17.52,16.59-17.52,28.07c0,4.04,0.73,8.11,2.2,12.15
		c2.91,8.1,4.37,17.36,4.37,27.85c0,24.38-2.73,57.97-8.21,101.54c-1.75,14.95-2.62,22.45-4.37,37.51
		c-0.74,6.11-1.28,9.58-1.64,10.38c-1.47,9.12-4.93,14.53-10.41,16.25c-4.74,1.49-8.76-8.47-10.95-29
		c-6.32-59.28-8.89-102.18-10.4-125.59c-2.12-32.87-4.34-53.35-6.57-61.03c-3.17-10.91-12.24-14.9-26.83-11.68
		c-2.19,0.48-8.78,2.5-19.71,5.95c-27.63,8.72-45.27,15.02-52.56,18.88c-22.99,11.43-34.49,24.67-34.49,39.41
		c0,8.12,6.34,18.88,12.04,30.03c4.68,9.16,6.38,18.79,7.11,23.33c8.03,50.04,13.69,84.16,16.98,103.09
		c16.42,107.67,26.28,168.29,29.56,184.05c3.28,15.77,10.08,23.54,20.26,23.26c8.37-0.23,28.47-6.44,60.23-17.94
		c31.39-11.36,52.55-22.48,63.5-33.89c7.3-7.74,12.41-18.53,15.34-32.4c16.86-79.02,25.29-117.73,42.15-192.65
		c21.16-94.6,31.76-148.71,31.76-169.11C1379.33,383.13,1369.65,378.39,1350.31,382.11z M1643.22,613.5
		c-3.65-5.06-7.11-7.68-10.4-7.86c-4.03-0.23-17.35,3.23-39.97,11.51c-22.62,8.29-39.61,13.08-50.92,13.43
		c-8.75,0.27-14.97-0.91-18.62-3.68c-5.47-4.31-8.21-12.63-8.21-24.97c0-19.46,3.66-29.26,10.95-29.5
		c6.2,2.69,14.24,6.16,24.09,10.48c15.69,6.82,29.02,10.41,39.97,10.59c5.11,0.09,9.9-3,14.24-9.25c3.65-5.27,5.83-10.33,6.57-15.08
		c0-2.86,0-4.3,0-7.16c0-5.08,0.36-12.79,1.1-23.03c0.73-10.26,1.08-17.9,1.08-22.95c0-10.09-1.08-16.88-3.24-20.43
		c-3.61-5.79-10.3-8.87-20.03-9.1c-6.51-0.16-17.15,2.36-31.95,7.85c-14.81,5.51-24.92,8.48-30.32,8.59
		c-2.9,0.06-5.78-0.83-8.67-2.65c-2.54-8.49-3.8-15.57-3.8-21.26c0-12.31,6.7-20.04,20.11-22.99c1.81,0.3,9.77,0.35,23.89,0.42
		c9.05,0.05,20.92,3.45,35.57,10.43c14.67,6.98,25.26,10.77,31.79,11.11c17.38,0.89,26.08-10.19,26.08-33.58
		c0-9.96-0.65-18.7-2.19-25.8c-1.01-4.68-1.64-8.02-1.64-9.87c-1.47-19.92-6.84-32.37-14.24-34.15c-27.47-6.6-56.22-5.73-74.47-5.93
		c-1.46-0.02-5.66-0.29-12.59-0.78c-6.93-0.5-11.49-0.72-13.68-0.72c-21.68,0.03-32.52,0.19-54.21,0.73
		c2.91-0.07-1.83,0.33-14.24,1.33c-25.18,2.01-43.26,7.41-54.19,15.86c-3.28,5.84-4.94,12.09-4.94,18.74
		c0,7.28,2.37,17.14,7.13,29.57c5.11,13.37,7.67,23.43,7.67,30.15c-1.31,50.29-1.97,75.86-3.28,127.89
		c-1.47,56.16-2.2,99.82-2.2,129.58c0,22.57,7.85,34.71,23.55,36.47c8.02,0.87,26.28-0.95,54.75-3.87
		c51.09-5.25,85.22-5.3,102.39-5.22c1.81,0.01,3.46,0.02,4.93,0.04c1.75,0.02,2.63,0.03,4.38,0.06c10.94,0.17,20.98-1.42,30.1-4.86
		c9.5-12.91,14.24-35.54,14.24-67.89c0-2.58,0.36-8.22,1.1-16.88c0.73-8.65,1.1-14.25,1.1-16.83c0-4.18-0.56-8.72-1.64-13.62
		C1649.25,623.53,1646.86,618.55,1643.22,613.5z"/>
	<path d="M395.04,1199.81c18.11,30.68,27.16,52.79,27.16,75.03c0,15.5-3.12,29.84-9.2,42.91c-6.77,14.54-16.12,24.55-28.08,29.53
		c-19.33,8.12-53.4,4.02-102.19-21.8c0.91,0.48,0.83,0.37-0.23-0.34c-1.08-0.72-2.85-1.93-5.29-3.49
		c-7.21-4.61-18.35-11.32-32.69-21.05c-12.27-8.33-21.03-19.62-26.24-33.18c-0.92-11.25-2.11-23.54-3.68-36.76
		c-1.78-14.96-2.76-26.97-2.76-35.82c0-15.55,3.07-27.87,9.21-36.96c4.29-0.46,9.51,1.56,15.65,5.89
		c3.98,2.81,13.5,15.09,28.54,35.31c15.04,20.23,27.32,32.32,36.83,37.39c2.46,1.31,4.15,2.06,5.07,2.24
		c4.6-0.22,6.9-3.98,6.9-11.22c0-8.7-8.29-23.66-24.86-46.82c-24.85-34.72-40.36-61-46.5-73.15
		c-16.57-32.59-24.85-61.37-24.85-85.54c0-22.62,5.21-37.41,15.65-45.32c16.87-12.48,40.97-13.6,72.27-5.84
		c8.59,2.14,14.12,3.59,16.57,4.67c1.54,0.68,4.98,2.38,10.36,4.97c5.37,2.61,8.67,4.1,9.9,4.6c26.39,10.68,43.73,16.99,52.02,21.58
		c12.27,12.82,18.41,33.72,18.41,63.06c0,15.35-1.22,28.66-3.68,39.87c-2.74,12.45-8.45,17.35-17.04,14.44
		c-7.06-2.39-17.34-10.79-30.84-25.72c-13.51-14.92-23.33-24.02-29.47-26.81c-4.6-2.09-9.05-2.88-13.34-2.37
		c-1.23,2.02-1.84,4.64-1.84,7.89c0,8.77,9.05,26.29,27.16,51.34C372.49,1167.51,389.52,1190.32,395.04,1199.81z M656.98,1039.01
		c-11.37-4.27-46.81-3.52-106.33-7.59c-62.62-4.29-95.23-8.72-98.07-6.06c-3.56,3.34-8.75,15.38-8.75,36.83c0,1,0.32,3.71,0.46,7.66
		c0.14,3.85,0,7.53,0,10.55c0,13.86,0,20.78,0,34.6c0,3,0.15,6.5,0,10.02c-0.15,3.45-0.46,5.73-0.46,6.39
		c0,23.34,4.45,36.1,13.35,38.04c5.53,1.2,12.97-1.83,22.33-9.35s16.96-11.01,22.79-10.21c3.37,3.15,5,8.13,4.6,14.65
		c-0.48,7.83-0.31,13.16,0.92,15.66c-3.07,54.01-5.59,89.04-6.9,112.23c-0.36,6.36-1.08,16.27-2.3,29.53
		c-0.92,9.94-1.38,16.99-1.38,21.18c0,1.34,0,2.01,0,3.34c0.31,1.72,0.46,2.87,0.46,3.41c0,1.68-0.16,5-0.46,9.98
		c-0.31,4.96-0.46,8-0.46,9.11c0,13.08,4.91,22.72,14.73,28.64c6.26,0.77,9.39,1.12,15.65,1.75c30.37,3.06,47.57,2.8,51.57,2.07
		c18.71-2.79,28.07-13.23,28.07-30.39c0-5.05-1-12.84-3-23.4c-2-10.55-2.97-18.53-2.97-23.91c0-15.84-0.18-39.59-0.48-71.49
		c-0.3-31.9-0.46-62.61-0.46-81.15c0-7.27,2.6-11.94,7.83-14.06c4.63,0.22,11.19,4.16,19.79,11.59c8.6,7.43,15.05,10.84,19.34,10.49
		c12.28-1.01,18.42-13.9,18.42-38.42c0-0.65,0.16-3.13,0-6.87c-0.15-3.43-0.46-6.84-0.46-9.79c0-6.69,0-10.03,0-16.74
		c0-4.27,0.3-10.56,0.91-18.83c0.61-8.27,0.94-14.59,0.94-18.88C666.66,1051.78,663.43,1041.58,656.98,1039.01z M906.03,1075.96
		c4.91,18.88,7.35,47.02,7.35,84.09c0,88.68-21.43,152.9-64.32,194.22c-13.17,12.74-31.7,23.97-55.59,28.62
		c-20.21,3.93-36.44,2.39-48.7-4.1c-30.02-15.56-47.81-49.67-53.29-101.91c-1.54-14.64-2.28-24.62-2.28-29.9
		c0-49.77,8.84-104.2,26.63-151.43c18.32-48.65,49.47-72.96,93.26-85.37c24.8-7.03,43.64-6.08,56.52,3.38
		C885.51,1028.39,899.03,1049.08,906.03,1075.96z M829.61,1170.51c0-35.26-9.67-49.34-29-44.75c-5.53,1.31-10.65,5.46-15.19,12.44
		c-6.16,9.48-9.2,32.48-9.2,68.2c0,16.77,1.07,28.3,3.21,35.33c3.98,13.54,11.97,19.17,23.95,15.83
		c11.34-3.16,18.83-10.61,22.55-21.99c2.42-7.41,3.68-17.69,3.68-30.86C829.61,1191.12,829.61,1184.24,829.61,1170.51z
		 M1166.59,1126.04c2.45,8.91,3.67,18.21,3.67,27.82c0,24.8-4.13,47.15-12.42,66.79c-11,26.03-27.62,43.33-49.72,51.97
		c-7.67,3-13.97,4.07-18.86,3.22c-15.35-2.29-25.93-12.69-30.39-30.4c-2.62-10.41-6.3-26.61-11.51-47.83
		c-0.31-0.17-2-2.41-5.06-6.71c-2.16-2.82-4.61-3.68-7.37-2.58c-4.31,1.72-7.01,7.03-8.3,15.66c-0.58,3.88-0.91,9.2-0.91,15.9
		c0,5.48,0.46,13.45,1.38,23.88c0.92,10.43,1.37,18.38,1.37,23.85c0,7.61-0.43,13.74-1.37,18.31c-1.76,8.56-13.51,17.07-34.99,25.17
		c-1.84,0.69-6.53,2.76-14.05,6.17c-7.51,3.4-12.35,5.49-14.49,6.28c-12.28,4.52-19.03,2.74-20.26-5.22
		c-0.3-0.49-0.46-10.76-0.46-30.94c0-24.68,0.7-62.22,2.07-113.04c1.39-50.83,2.07-89.89,2.07-115.46c0-4.67-1.76-11.66-5.28-21
		c-3.52-9.33-5.3-16.86-5.3-22.51c0-6.89,2.6-13.94,7.83-21.18c7.67-10.62,18.11-20.22,31.3-28.87c3.37-2.18,15.35-8.79,35.91-20.02
		c2.02-1.14,3.03-1.71,5.05-2.84c3.69-2.02,7.3-4.26,10.6-5.9c11.33-5.63,19.34-8.34,21.18-9.05c4.6-1.77,12.9-4.05,24.85-6.8
		c29.09-6.72,51.91-5.46,68.14,3.74c17.78,10.07,26.69,28.96,26.69,56.68c0,24.99-6.6,50.04-19.79,75.27
		c-3.98,7.74-11.82,18.88-23.48,33.43c-7.07,9.05-10.58,15.09-10.58,18.14c0,5.53,2.76,9.32,8.28,11.38
		c5.53,2.05,11.35,1.84,17.49-0.65c1.21-0.49,3.14-1.64,5.75-3.48c2.6-1.82,4.53-2.99,5.75-3.49
		C1158.13,1109.01,1163.22,1113.79,1166.59,1126.04z M1075.89,1044.78c0-17.83-8.14-23.49-24.4-16.99c-3.68,1.47-5.98,2.54-6.9,3.21
		c-7.98,5.66-11.97,16.35-11.97,32.09c0,5,0,7.51,0,12.51c0,7.71,7.35,8.63,22.09,2.68c6.44-2.6,11.58-7.08,15.42-13.4
		C1073.97,1058.55,1075.89,1051.86,1075.89,1044.78z M1412.39,803.93c-5.83,1.08-13.97,3.31-24.39,7.45
		c-35.3,14.22-56.11,32.97-54.32,44.58c0.81,5.3,3.68,13.41,3.68,21.18c0,5.98-1.6,15.93-4.61,29.81
		c-3.42,15.76-7.21,24.5-11.51,25.94c-3.98,1.33-8.66-12.05-13.81-39.77c-5.57-29.97-12.56-46.03-14.27-48.2
		c-2.2-2.8-6.61-7.12-15.19-4.13c-10.13,3.53-25.32,11.76-45.58,24.89c-23.6,15.3-37.29,26.46-40.97,33
		c-2.46,4.27-3.68,8.08-3.68,11.41c0,5.16,2.61,10.7,7.83,16.55c7.04,7.91,13.65,19.13,19.33,33.53
		c4.97,12.57,9.56,25.55,14.28,37.86c6.12,15.98,11.04,27.34,13.81,33.62c6.44,16.5,9.67,39.02,9.67,67.31c0,13.05,0,19.58,0,32.68
		c0,9.06-0.75,19.05-2.3,29.89c-2.12,14.85-3.23,23.43-3.23,25.61c0,2.83-0.32,12.79,3.23,20.94c2.11,4.84,11.81,6.09,23.48,1.98
		c4.28-1.51,10.74-4.17,19.34-7.92c8.58-3.73,15.02-6.29,19.33-7.73c12.88-4.3,21.93-8.16,27.16-11.73
		c9.51-6.53,15.02-14.89,16.56-25.17c0.3-2.3,0.46-7.26,0.46-14.83c0-9.16-0.76-22.64-2.3-40.36c-1.53-17.71-2.3-31.02-2.3-40.05
		c0-21.47,3.68-41.21,11.05-59.18c13.81-33.79,26.53-64.79,38.2-92.31c11.67-27.51,17.65-41.2,17.96-42.15
		c1.84-5.43,3.06-9.07,3.68-10.99c7.97-22.3,11.97-36.51,11.97-43.23C1434.95,804.75,1427.42,801.14,1412.39,803.93z
		 M1722.66,962.89c0-11.56,0.53-28.88,1.61-51.81c1.07-22.93,1.6-40.05,1.6-51.49c0-29.82-1.67-48.85-5.06-57.15
		c-3.03-7.43-11.05-12.3-23.95-14.05c-5.21-0.71-12.12-0.76-20.71-0.01c-12.71,1.14-19.06,1.86-31.77,3.57
		c-11.35,1.52-19.95,6.51-25.78,14.72c0,1.5,0,2.25,0,3.76c0,5.86,2.07,14.54,6.21,26.12c4.14,11.59,7.02,21.25,6.21,25.82
		c-0.12,0.71-0.71,3.85-0.91,8.8c-0.59,14.59-0.41,25.36-0.46,31.23c-0.6,83.72-1.84,141.87-1.84,147.86
		c-0.37,7.37-0.56,11.06-0.93,18.45c-0.3,5.99-0.46,12.32-0.46,19c0,1.8,0,2.7,0,4.51c0.3,1.35,0.46,2.86,0.46,4.52
		c0,10.83,0,16.25,0,27.11c1.54,10.78,5.68,18.32,12.44,22.72c14.36,1.97,21.54,3.14,35.9,5.84c24.25,4.55,40.81,1.2,49.72-11.66
		c0.91-0.84,1.39-4.62,1.39-11.34c0-18.82-0.62-46.87-1.84-83.97C1723.28,1008.37,1722.66,978.69,1722.66,962.89z M1985.53,913.6
		c-0.58-7.11-4.46-14.33-11.51-21.26c-1.84-1.78-3.07-2.87-3.68-3.25c-19.65-12.41-36.98-19.74-52.02-22.97
		c-8.9-2.06-13.35,3.04-13.35,14.96c0,12.21,2.14,36.97,6.45,74.76c0.91,8.12,1.37,15.24,1.37,21.4c0,8.2-0.91,16.17-2.76,23.89
		c-0.31,0.12-1.09-0.17-2.3-0.86c-1.54-0.88-3.07-2.17-4.61-3.91c-7.67-24.33-13.83-46.01-17.95-65.02
		c-4.42-20.38-7.37-35.75-9.21-45.77c-5.21-23.59-9.2-37.81-11.97-42.96c-4.3-7.8-13.53-15.17-26.7-19.46
		c-26.3-8.57-46.98-10.79-57.99-11.19c-11.95-0.44-21.81,1.49-29.47,5.36c-1.84,3.21-2.76,6.92-2.76,11.09
		c0,5.58,1.91,13.98,5.75,25.34c3.83,11.35,5.75,19.6,5.75,24.64c0,24.39-1.23,54.33-3.68,111.19
		c-2.46,56.86-3.68,100.11-3.68,129.28c0,19.45-0.16,28.15-0.46,26.07c1.53,12.11,5.83,18.43,12.88,19.12
		c5.53,3.7,12.74,6.68,21.65,9.17c15.34,4.28,26.85,6.39,34.51,5.68c2.46-0.17,4.98-2.04,7.6-5.59c2.61-3.55,3.91-6.8,3.91-9.78
		c0-7.96-0.77-20.11-2.3-36.42c-1.54-16.32-2.3-28.43-2.3-36.38c0-3.3,0.16-6.22,0.46-8.76c0-3.77,0-5.65,0-9.42
		c0-2.65-0.3-8.47-0.91-17.46c-0.63-8.99-0.93-14.64-0.93-16.95c0-7.92,1.07-13.96,3.23-18.05c2.46,3.63,3.98,6.55,4.6,8.79
		c12.89,49.28,21.63,84.04,26.25,103.88c4.6,19.45,6.91,29.19,11.51,48.65c3.06,13.24,6.81,21.29,11.04,24.26
		c7.65,5.37,16.88,10.85,27.63,16.37c24.23,12.43,42.52,20.99,54.78,23.68c9.78,2.15,14.74-11.95,14.74-42.82
		c0.73-33.73,1.1-50.57,1.83-84.2c0.61-36.88,0.76-62.16,0.93-76.32c0.15-12.75,1.03-30.81,2.3-53.7
		c1.19-21.35,1.84-39.46,1.84-54.13C1985.98,924.44,1985.84,917.45,1985.53,913.6z"/>
	<path d="M981.47,1393.69c0,3.47-0.28,8.65-0.83,15.5c-0.56,6.87-0.83,12.03-0.83,15.49c0,5.43,0,8.14,0,13.57
		c0,2.4,0.28,5.14,0.41,7.84c0.14,3.03,0,5.06,0,5.58c0,19.93-5.48,31.72-16.44,35.39c-3.84,1.29-9.6,0.05-17.26-3.71
		c-7.67-3.77-13.55-5.09-17.66-4.01c-4.67,3.12-6.98,7.54-6.98,13.29c0,14.67,0.13,36.52,0.4,65.36
		c0.27,28.84,0.41,50.38,0.41,64.77c0,4.88,0.88,11.89,2.67,21.02c1.78,9.13,2.67,15.99,2.67,20.6c0,15.63-8.35,27.16-25.06,34.44
		c-3.57,1.65-18.91,5.99-46.02,12.47c-5.59,1.34-8.39,2-13.98,3.31c-8.77-2.13-13.15-8.99-13.15-20.59c0-0.99,0.14-3.73,0.41-8.25
		c0.27-4.52,0.41-7.54,0.41-9.02c0-0.5-0.14-1.46-0.41-2.88c0-1.19,0-1.79,0-2.98c0-3.72,0.41-10.15,1.23-19.34
		c1.1-12.26,1.74-21.39,2.06-27.18c1.17-21.27,3.43-53.13,6.17-95.74c-1.1-1.48-1.26-5.49-0.83-11.71c0.35-5.12-1.1-8.43-4.1-9.63
		c-5.21,1.49-12,6.96-20.35,16.26c-8.35,9.31-14.99,14.4-19.94,15.08c-7.94,1.09-11.91-7.24-11.91-25.05c0-0.5,0.27-2.31,0.4-5.02
		c0.13-2.67,0-5.35,0-7.66c0-10.56,0-15.86,0-26.49c0-2.32,0.13-5.15,0-8.11c-0.13-2.92-0.4-4.96-0.4-5.72
		c0-16.49,4.25-26.98,7.8-31.2c2.63-3.13,31.64-12.87,87.53-30.98c53.15-17.22,84.79-27.13,94.93-26.8
		C978.59,1371.88,981.47,1379.27,981.47,1393.69z M1213.65,1305.83c0-13.47-2.04-21.98-6.15-25.5c-2.2-1.43-7.13-0.74-14.79,2.12
		c-6.85,2.56-17.83,8.07-32.89,16.53c-13.68,7.68-21.78,12.81-24.23,15.41c-5.21,5.29-7.81,13.29-7.81,24.04
		c0,4.41,0.75,10.69,2.26,18.8c1.51,8.13,2.26,14.43,2.26,18.83c0,0.83-0.13,3.12-0.4,6.78c-0.27,3.67-0.41,6.1-0.41,7.19
		c0,8.84-1.07,15.42-3.28,19.4c-2.89,5.19-8.64,9.3-16.85,12.24c-10.14,3.63-19.48,3.32-20.96,0.48c-2.25-4.3-1.23-14.98-1.23-21.86
		c0-5.51,0.2-13.97,0.61-25.42c0.4-11.43,0.61-19.92,0.61-25.43c0-9.63-0.14-15.24-0.41-16.79c-1.37-3.88-3.01-6.15-4.93-6.79
		c-1.37-0.03-3.05-0.52-4.11-0.49c-2.15,0.07-6.85,2.21-12.32,4.3c-18.36,7.01-35.63,16.72-51.79,28.97
		c-1.31,0.97-1.97,1.46-3.29,2.43c-2.2,1.63-3.43,2.63-3.7,3c-4.93,5.35-7.4,11.77-7.4,19.31c0,0.97,0,1.46,0,2.43
		c2.2,5.11,3.56,8.13,4.11,9c4.38,11.6,6.57,26.58,6.57,44.87c0,47.05-2.04,119.67-6.15,216.06c1.48,2.92,2.22,4.38,3.7,7.3
		c1.91,4.13,5.75,5.85,11.51,5.13c0.27-0.08,5.34-1.47,15.19-4.21c6.31-1.76,15.21-4.91,26.72-9.5
		c13.96-5.56,21.63-10.21,23.02-13.92c3.29-9.46,4.93-21.67,4.93-36.57c0-4.97-0.27-12.32-0.83-22.08
		c-0.54-9.77-0.81-17.14-0.81-22.1c0-10.74,0.13-16.86,0.41-18.33c1.08-8.35,4.24-13.8,9.45-16.33c0.54-0.45,4.1-1.76,10.68-3.91
		c1.37-0.45,2.46-0.93,3.28-1.49c1.48-0.48,2.22-0.73,3.7-1.21c4.11-1.35,7.94,1.67,11.51,9.1c0,11.29,0,16.94,0,28.24
		c0,3.32-0.27,9.5-0.83,18.53c-0.54,9.03-0.81,12.3-0.81,9.8c0,25.48,1.82,43.71,5.75,47.41c2.69,2.53,9.45,2.77,15.19,1.17
		c0.56-0.16,1.66-0.46,3.3-0.92c1.64-0.46,2.6-0.72,2.87-0.8c-0.16,0.04-0.25,0.07-0.32,0.09c0.39-0.11,2.53-0.71,6.49-1.81
		c10.95-3.05,24.52-9.19,40.68-18.53c7.4-4.32,11.09-12.54,11.09-24.57c0-3.16-0.14-7.14-0.41-11.93
		c-1.64-30.17-2.47-64.27-2.47-102.35c0-18.46,0.63-46.25,1.86-83.26C1213.04,1351.68,1213.65,1324.09,1213.65,1305.83z
		 M1410.9,1439.22c-2.74-4.2-5.34-6.15-7.81-5.87c-3.01,0.34-13.01,6.73-29.99,19.15c-16.99,12.42-29.73,19.85-38.23,22.17
		c-6.57,1.79-11.24,1.77-13.96-0.12c-4.11-2.96-6.17-10-6.17-21.11c0-17.56,2.74-27.1,8.23-28.69c4.66,1.27,10.68,2.9,18.08,4.94
		c11.78,3.15,21.78,3.73,30,1.55c3.83-1.01,7.43-4.92,10.68-11.7c2.75-5.72,4.38-10.91,4.93-15.5c0-2.66,0-3.99,0-6.64
		c0-4.73,0.27-11.96,0.83-21.68c0.54-9.71,0.81-16.91,0.81-21.6c0-9.39-0.81-15.45-2.43-18.22c-2.71-4.53-7.72-5.77-15.05-3.7
		c-4.87,1.37-12.87,6.2-23.98,14.54c-11.11,8.35-18.69,13.19-22.75,14.42c-2.17,0.66-4.34,0.45-6.51-0.62
		c-1.9-7.22-2.84-13.41-2.84-18.61c0-11.24,5.03-19.74,15.08-25.42c1.37-0.14,7.34-1.84,17.95-5.02c6.78-2.03,15.69-1.64,26.69,1.35
		c11.01,2.99,18.96,3.91,23.86,2.6c13.05-3.49,19.58-13.99,19.58-35.88c0-9.34-0.49-17.34-1.66-23.77c-0.76-4.19-1.23-7.2-1.23-8.94
		c-1.1-18.38-5.4-29.04-10.68-29.35c-20.3-1.19-42.2,8.13-55.89,12.37c-1.1,0.34-4.26,1.1-9.45,2.31c-5.21,1.21-8.63,2.1-10.27,2.62
		c-16.28,5.22-24.42,7.92-40.7,13.47c2.2-0.75-1.37,0.73-10.68,4.52c-18.91,7.66-32.46,16.62-40.68,26.6
		c-2.47,5.96-3.7,11.88-3.7,17.8c0,6.47,1.78,14.72,5.34,24.76c3.83,10.8,5.75,19.22,5.75,25.16c-0.99,44.75-1.48,67.23-2.47,112.37
		c-1.09,48.72-1.64,85.8-1.64,110.94c0,19.07,5.9,28.77,17.68,29.15c6.03,0.15,19.72-2.6,41.1-8.01
		c38.36-9.71,63.96-15.59,76.84-18.52c1.37-0.31,2.6-0.59,3.7-0.84c1.32-0.3,1.98-0.45,3.3-0.74c8.21-1.84,15.75-5.47,22.59-9.68
		c7.13-13.08,10.7-34.94,10.7-65.22c0-2.42,0.27-7.74,0.81-15.95c0.54-8.21,0.83-13.5,0.83-15.92c0-3.91-0.41-8.09-1.24-12.52
		C1415.43,1447.73,1413.64,1443.41,1410.9,1439.22z"/>
	<path d="M601.89,1793.16c0.36,5.53,0.54,9.22,0.54,11.06c0,7.36-0.46,18.35-1.37,32.95c-0.91,14.58-1.34,25.47-1.34,32.74
		c0,18.15-0.19,45.38-0.54,81.22c-0.36,35.83-0.57,62.32-0.57,79.88c0,11.41,0.2,21.63,0.57,30.64c0,12.21,0,18.3,0,30.43
		c0,2.89-2.54,8.64-7.57,17.27c-13.28,6.6-38.96,9.92-77.03,9.89c-2.88,0-6.64-1.11-11.31-3.33c-4.68-2.23-7.73-4.39-9.16-6.47
		c-2.51-3.86-3.78-9.97-3.78-18.3c0-34.53,1.81-71.54,5.45-110.93c0.36-6.02,1.26-16.7,2.72-32.09c0.27-2.25,0.44-3.4,0.51-3.46
		c-0.09-4.97-2.24-8.2-6.5-9.67c-3.26,1.61-5.8,5.41-7.62,11.38c-6.17,19.1-12.16,40.96-17.96,65.6
		c-6.31,26.68-9.47,40.03-15.78,66.83c-0.74,2.41-1.89,7.15-3.81,13.58c-0.98,3.27-3.66,9.2-7.62,17.67
		c-2.55,5.44-13.79,8.18-33.74,8.14c-7.62-0.01-17.81-0.77-30.47-2.41c-9.78-1.27-18.69-22.12-26.67-63.72
		c-2.18-13.94-5.81-34.61-10.88-62.42c-1.82-8.29-4.72-22.24-8.71-42.1c-0.36-3.65-1.63-9.87-3.81-18.73
		c-0.36-1.7-1.28-2.64-2.72-2.84c-2.18-0.3-4.18,1.24-5.99,4.62c-1.81,3.4-2.72,6.43-2.72,9.08c0,0.99,0.36,3.53,1.09,7.6
		c0.72,4.06,1.08,6.75,1.08,8.07c0,1.33-0.18,4.2-0.54,8.62c-0.36,4.42-0.54,7.31-0.54,8.63c0,12.91,1.36,32.51,4.08,58.51
		c2.72,26.01,4.08,45.24,4.08,58c0,12.43-4.19,20.4-12.52,23.94c-12.29,5.22-27.94,7.91-46.8,7.9c-2.54,0-10.16-2.02-22.86-6.3
		c-5.44-4.57-8.32-12.94-8.71-24.9c-0.66-20.07-1.08-46.62-1.08-79.47c0-16.95,0.18-42.54,0.54-76.76
		c0.36-34.21,0.54-59.78,0.54-76.76c0-6.71-0.73-25.69-1.09-55.98c-0.04-3.84,0.08-12.32-1.08-23.69
		c-0.25-2.49-1.79-8.39-4.36-17.31c-2.13-7.42-3.27-13.7-3.27-18.69c0-18.9,11.52-26.35,34.29-23.08
		c21.71,3.12,48.68,7.79,80.55,12.74c14.85,2.31,24.3,3.74,28.3,4.62c15.59,3.43,25.02,10.42,28.3,21.29
		c4.32,14.29,8.54,38.29,12.52,71.59c3.63,30.38,8.7,53.72,15.24,70.11c0.36,1.3,1.08,2,2.18,2.12c1.09,0.12,2.35-0.38,3.81-1.48
		c5.8-13.13,10.64-27.68,14.15-43.43c2.23-9.98,5.62-24.97,10.34-44.74c1.44-6.39,5.62-18.08,12.52-35.06
		c4.36-6.97,15.59-10.66,33.74-11.59c3.26,0.03,8.7,0.12,16.32,0.19c27.93,0.07,43.52-0.42,46.8-0.23
		c26.48,1.54,39.73,7.33,39.73,18.41C601.34,1784.08,601.53,1787.64,601.89,1793.16z M911.53,2065.84
		c3.26,20.37,4.9,31.23,4.9,32.48c0,7.26-5.1,12.51-15.25,15.68c-15.23,4.75-31.75,6.98-49.52,6.99c-18.86,0-34.1-3.08-45.71-9.03
		c-2.9-7.16-4.97-16.36-5.98-27.57c-1.15-12.63-1.96-24.87-4.36-27.83c-2.32-2.87-11.42-4.28-19.05-4.22
		c-2.54,0.02-10.7,0.95-24.49,2.75c-2.17,4.07-5.02,14.35-8.7,30.34c-1.78,7.73-3.46,15.49-4.9,23.19
		c-1.46,1.43-4.18,2.72-8.17,3.85c-3.92,1.54-5.88,2.31-9.8,3.84c-15.24,3.14-30.47,4.69-45.71,4.69c-15.97,0-26.59-1.35-31.84-4.08
		c-5.26-2.71-8.35-7.89-7.88-13.96c0.17-2.14,1.63-10.19,3.81-23.73c1.8-11.24,8.15-36.55,19.04-76.71
		c8.06-29.37,12.09-44.17,20.15-74.13c8.34-32,12.51-56.95,12.51-74.33c0-4.88-1.9-12.1-5.71-21.71c-3.81-9.62-5.71-16.9-5.71-21.82
		c0-7.38,2.71-13.27,8.15-17.68c0.73-0.63,4.17-2.37,10.34-5.3c25.05-12,56.78-20.47,95.25-25.96c13.71-1.89,20.57-4.6,34.29-8.52
		c21.39-4.61,38.23-0.73,40.81,7.61c10.09,32.6,9.07,95.5,18.51,153.84C896.51,1974.96,901.52,2005.1,911.53,2065.84z
		 M789.08,1934.24c0-5.74-0.73-14.28-2.18-25.65c-1.44-11.36-2.17-19.98-2.17-25.81c0-3.98,0.19-6.91,0.54-8.77
		c-2.18-1.02-3.26-1.54-5.44-2.56c-12.34,34.88-18.51,58.37-18.51,71.57c0,8.41,4,12.52,11.98,12.36c4.71-0.1,9.42-1.7,14.15-4.83
		C788.54,1945.42,789.08,1939.97,789.08,1934.24z M1207.57,1657.46c-6.54,1.68-17.24,5.39-32.12,11.11
		c-14.88,5.73-25.39,10.14-31.56,13.2c-13.07,6.34-21.96,13.59-26.66,21.73c-1.83,2.29-3.75,5.32-4.36,8.21
		c-0.8,3.86-0.91,8.8-1.64,13c-2.9,19.67-7.98,40.37-15.24,61.82c-2.54,7.07-9.98,27.22-22.31,59.52
		c-4.36,7.95-7.44,12.04-9.25,12.37c-1.46,0.26-2.73-0.23-3.81-1.44c-0.73-17.54-1.09-32.13-1.09-43.81
		c0-11.66,0.27-29.33,0.81-53.02c0.54-23.68,0.81-41.41,0.81-53.13c0-1.12-3.82-5.33-8.15-6.3c-6.79-1.53-18.88,2.15-27.22,4.32
		c-23.22,6.04-44.81,16.49-64.76,30.91c-5.08,3.97-8.35,6.45-9.8,7.47c-4.36,4.44-6.53,9.51-6.53,15.23c0,4.4,1.91,9.73,5.44,15.98
		c4.01,7.09,6.26,12.39,6.53,15.26c1.05,11.62,1.05,19.74,1.08,23.07c0.18,15.6,0.56,35.61,0.56,59.39
		c-0.44,39.88-0.66,59.69-1.1,99.05c-0.36,28.85-0.54,61.28-0.54,97.25c0,16.99,1.87,30.65,5.44,41.03
		c2.56,7.45,9.98,11.26,22.32,11.26c1.44,0,6-0.36,13.61-1.02c16.27-1.41,27.39-2.27,33.19-2.64c13.79-2.13,23.59-6.4,29.39-12.88
		c1.81-2.49,2.73-7.49,2.73-14.97c0-4.97-0.27-12.54-0.81-22.67c-0.56-10.12-0.83-17.68-0.83-22.67c0-22.41,3.09-39.56,9.25-51.62
		c0.73-0.42,1.27-0.66,1.64-0.7c1.08-0.1,3.07,1.15,5.98,3.76c5.44,23.93,10.77,45.28,15.78,63.88
		c7.31,27.14,18.14,45.76,32.66,55.35c6.15,4.07,15.78,6.13,28.83,6.13c39.91-0.01,63.32-31.37,70.22-94.71
		c1.8-16.31,2.71-27.47,2.71-33.41c0-11.86-1.8-22.59-5.44-32.02c-4.66-12.07-11.79-17.52-21.22-16.46
		c-2.54,0.29-4.73,0.73-6.54,1.32c-2.39,0.27-3.59,0.41-5.98,0.68c-3.26,0.37-5.44,0.42-6.53,0.17
		c-9.8-6.52-16.43-17.14-19.59-31.72c-3.71-17.1-6.35-30.12-8.17-38.83c6.54-23.51,18.94-55.84,37.01-97.95
		c20.72-48.27,34.29-81.94,40.81-99.3c2.17-5.92,3.27-10.24,3.27-12.94C1236.41,1655.32,1226.79,1652.54,1207.57,1657.46z
		 M1380.61,1868.37c0-17.25,0.64-43.27,1.91-77.79c1.27-34.51,1.9-60.11,1.9-76.99c0-44.04-1.97-71.11-5.98-81.59
		c-3.58-9.36-13.07-12.42-28.3-9.02c-6.17,1.38-14.34,4.43-24.49,9.14c-15.02,7.03-22.52,10.57-37.54,17.65
		c-13.44,6.31-23.59,16.18-30.49,29.46c0,2.1,0,3.15,0,5.26c0,8.17,2.46,19.67,7.35,34.7c4.9,15.03,8.28,27.73,7.34,34.47
		c-0.16,1.11-0.85,5.58-1.09,12.66c-0.69,20.65-0.49,35.75-0.54,44.04c-0.73,118.15-2.17,183.28-2.17,190.54
		c-0.44,8.99-0.66,13.49-1.1,22.49c-0.36,7.31-0.54,15.01-0.54,23.1c0,2.19,0,3.28,0,5.47c0.36,1.6,0.54,3.42,0.54,5.45
		c0,13.14,0,19.72,0,32.9c1.81,12.98,6.71,21.91,14.69,26.83c16.98,1.44,25.47,2.18,42.45,3.7c28.66,2.52,48.25-5.35,58.78-24.2
		c1.08-1.32,1.63-6.33,1.63-15.04c0-24.32-0.72-60.4-2.17-107.54C1381.35,1926.95,1380.61,1891.93,1380.61,1868.37z
		 M1677.77,1613.39c-2.19-1.02-3.63-1.57-4.36-1.63c-23.22-1.94-43.72,0.28-61.49,6.24c-10.54,3.34-15.79,13.63-15.79,30.8
		c0,17.58,2.54,51.78,7.63,103.1c1.08,11.04,1.63,21.01,1.63,29.93c0,11.87-1.08,24.16-3.26,36.88c-0.37,0.42-1.29,0.6-2.73,0.56
		c-1.81-0.05-3.63-0.71-5.44-2.05c-9.07-29.52-16.37-56.87-21.22-81.65c-5.24-26.81-8.71-47.18-10.9-60.6
		c-6.17-31.02-10.88-49.3-14.14-55.11c-5.08-8.76-16.45-13.88-31.57-12.84c-31.14,2.13-55.57,8.53-68.57,12.92
		c-14.1,4.77-25.76,11.69-34.83,20.46c-2.17,5.48-3.26,11.29-3.26,17.46c0,8.24,2.26,19.94,6.8,35.25
		c4.53,15.32,6.8,26.81,6.8,34.31c0,36.29-1.44,90.81-4.34,164.78c-2.91,73.97-4.36,130.61-4.36,168.67
		c0,25.37-0.19,36.83-0.54,34.2c1.8,15.39,6.88,22.45,15.24,21.13c6.53,3.09,15.05,4.63,25.57,4.63c18.14,0,31.75-2.21,40.81-6.64
		c2.9-1.34,5.9-4.99,8.98-10.95c3.07-5.97,4.63-10.92,4.63-14.9c0-10.58-0.91-26.34-2.73-47.19c-1.81-20.84-2.71-36.45-2.71-46.93
		c0-4.35,0.17-8.28,0.54-11.77c0-4.97,0-7.45,0-12.4c0-3.48-0.36-10.99-1.08-22.49c-0.73-11.48-1.1-18.74-1.1-21.78
		c0-10.36,1.27-18.8,3.81-25.27c2.9,3.47,4.71,6.52,5.44,9.11c15.24,57.8,25.58,99.06,31.02,122.88
		c5.44,23.29,8.17,34.97,13.61,58.38c3.63,15.96,8.07,24.58,13.07,25.97c8.98,2.49,19.95,3.98,32.64,3.98
		c28.66,0,50.31-3.49,64.76-10.44c11.59-5.57,17.42-29.91,17.42-72.56c0.87-47.31,1.3-70.84,2.17-117.67
		c0.73-51.18,0.91-86.69,1.1-106.39c0.18-18,1.22-43.73,2.71-76.33c1.4-30.54,2.18-55.82,2.18-75.86c0-13.77-0.16-23.19-0.54-28.2
		C1690.68,1624.19,1686.1,1617.45,1677.77,1613.39z M1980.33,1867.34c-1.46-2.35-5.26-4.95-11.42-7.79
		c-17.06-7.45-35.37-13.18-54.96-16.85c-19.24-3.61-35.38-3.97-48.44-1.2c-8.71,1.84-13.07,8.64-13.07,20.25
		c0,2.4,0.37,6.06,1.1,10.96c13.78,13.82,20.68,35.12,20.68,64.1c0,8.74,0.35,20.72-2.73,27.76c-1.87,4.28-8.9,7.01-15.78,6.44
		c-2.18-0.18-3.26-0.27-5.44-0.44c-10.52-6.49-17.78-17.81-21.76-34.02c-1.83-7.87-3.64-22.08-5.44-42.61c0-0.8-0.27-3.77-0.83-8.92
		c-0.54-5.15-0.81-8.52-0.81-10.16c0-2.43,0.26-7.69,0.81-15.75c0.55-8.05,0.83-13.29,0.83-15.73c0-64.89,12.32-95.24,37-90.45
		c7.25,1.41,18.86,9.7,34.83,24.77c15.97,15.07,28.3,23.51,37.01,25.5c7.97,1.82,18.68-1.95,22.31-8.81
		c4.87-9.21,4.9-28.14,4.9-44.22c0-41.53-4.17-65.94-12.52-73.21c-12.34-10.84-31.56-20.58-57.68-27.74
		c-13.42-3.68-29.22-5.39-47.35-4.67c-19.59,0.79-34.47,4.48-44.63,10.38c-52.24,30.92-78.35,105.57-78.35,218.29
		c0,20.61,0.9,44.08,2.71,70.36c7.98,117.85,48.61,177.28,121.91,177.3c6.15,0,15.52-1.23,28.02-3.6
		c12.51-2.37,21.86-3.49,28.03-3.46c2.17,0.01,7.25,0.33,15.24,0.95c7.98,0.62,13.24,0.93,15.78,0.94
		c15.97,0.07,30.39-5.31,34.29-13.32c5.19-10.66,5.44-47,5.44-97.61c0-30.87,0.49-64.06,5.98-92.63
		c3.11-16.15,6.54-27.12,6.54-30.81C1982.51,1874.35,1981.77,1869.69,1980.33,1867.34z"/>
</g>
</svg>
