<?xml version="1.0" standalone="no"?>
<!DOCTYPE svg PUBLIC "-//W3C//DTD SVG 20010904//EN"
 "http://www.w3.org/TR/2001/REC-SVG-20010904/DTD/svg10.dtd">
<svg version="1.0" xmlns="http://www.w3.org/2000/svg"
 width="2400.000000pt" height="2400.000000pt" viewBox="0 0 2400.000000 2400.000000"
 preserveAspectRatio="xMidYMid meet">

<g transform="translate(0.000000,2400.000000) scale(0.100000,-0.100000)"
fill="#000000" stroke="none">
<path d="M7132 21389 c-1083 -44 -1922 -302 -2752 -847 -827 -544 -1499 -1281
-1944 -2132 -400 -767 -666 -1718 -755 -2705 -60 -661 -53 -1418 20 -2070 84
-757 314 -1668 637 -2527 228 -605 586 -1322 953 -1906 368 -586 843 -1211
1319 -1737 205 -227 924 -945 1132 -1132 363 -326 920 -796 1513 -1278 209
-170 517 -422 685 -560 341 -281 925 -761 1805 -1484 1091 -896 1325 -1096
1875 -1606 168 -155 438 -396 600 -535 474 -406 503 -425 660 -425 82 0 102 4
145 25 47 23 50 27 50 63 0 31 5 40 30 56 50 31 151 143 180 201 74 146 203
307 550 685 640 697 814 877 1840 1900 1053 1051 1270 1273 1642 1678 493 536
1067 1242 1420 1748 329 470 824 1266 1094 1760 465 849 960 2012 1245 2922
444 1420 699 2843 730 4072 31 1239 -248 2501 -751 3395 -69 124 -262 410
-349 519 -421 526 -938 932 -1581 1242 -513 247 -1186 437 -1792 505 -189 21
-740 30 -958 15 -1221 -84 -2164 -409 -3010 -1036 -403 -299 -811 -724 -1083
-1131 l-68 -101 -49 96 c-146 281 -377 593 -656 886 -384 403 -871 724 -1484
980 -187 78 -571 208 -765 259 -443 115 -941 183 -1510 206 -280 11 -333 11
-618 -1z m743 -249 c524 -34 949 -107 1350 -234 608 -191 1145 -467 1573 -808
70 -56 219 -194 332 -307 351 -351 623 -700 829 -1060 62 -108 70 -129 65
-159 -9 -44 19 -73 102 -106 77 -31 122 -32 198 -7 102 36 112 46 204 201 211
357 428 635 737 946 518 521 1199 935 1890 1149 696 216 1521 289 2190 194
522 -74 1144 -284 1597 -538 866 -486 1479 -1189 1841 -2111 233 -595 375
-1233 439 -1985 20 -228 16 -974 -5 -1245 -67 -832 -199 -1608 -432 -2540
-275 -1100 -616 -2031 -1167 -3184 -255 -535 -503 -978 -916 -1641 -507 -811
-912 -1361 -1576 -2135 -423 -493 -732 -816 -1961 -2050 -583 -586 -1124
-1132 -1201 -1215 -205 -220 -744 -803 -859 -930 -114 -126 -225 -263 -311
-383 l-59 -84 -165 170 c-275 283 -769 739 -1188 1100 -238 204 -697 587
-1222 1018 -423 347 -917 754 -1595 1314 -264 218 -642 528 -840 690 -501 409
-907 750 -1260 1059 -546 478 -1227 1169 -1643 1669 -867 1040 -1529 2144
-1967 3282 -183 476 -388 1154 -494 1635 -265 1200 -269 2665 -10 3844 338
1539 1069 2708 2216 3545 278 202 503 339 788 477 530 257 1021 383 1660 428
176 12 676 13 860 1z"/>
<path d="M10048 18706 c-149 -61 -356 -237 -458 -391 -216 -322 -421 -962
-564 -1755 -97 -539 -184 -1443 -204 -2130 l-7 -225 -155 -37 c-259 -63 -419
-108 -545 -153 -66 -24 -123 -41 -126 -37 -3 4 -14 75 -24 157 -123 1058 -456
2003 -887 2520 -210 251 -464 395 -733 413 -349 24 -587 -69 -841 -330 -232
-237 -405 -553 -538 -980 -172 -549 -168 -1120 10 -1657 161 -482 408 -749
793 -853 114 -31 341 -31 471 1 388 95 604 308 707 698 23 88 26 117 26 283 0
161 -3 205 -27 335 -68 364 -169 553 -346 646 -39 20 -59 24 -150 24 -95 0
-111 -3 -162 -28 -113 -55 -240 -221 -302 -395 -30 -84 -31 -92 -31 -252 0
-152 3 -172 28 -255 35 -111 117 -286 151 -320 45 -45 160 -26 141 24 -4 9
-19 66 -35 127 -86 333 -80 524 24 739 47 97 131 215 171 241 24 16 27 15 61
-11 51 -39 110 -135 138 -224 48 -152 61 -259 60 -491 0 -244 -15 -341 -76
-492 -112 -279 -266 -428 -508 -489 -105 -27 -144 -21 -263 38 -77 39 -107 62
-187 142 -104 105 -165 197 -232 352 -267 619 -261 1321 19 2024 62 156 134
305 196 404 187 301 439 521 598 521 21 0 67 -11 100 -25 460 -187 897 -1180
1084 -2462 27 -192 75 -634 75 -701 0 -39 -6 -51 -50 -99 -147 -161 -304 -483
-374 -766 -86 -352 -129 -638 -130 -862 -1 -149 2 -179 21 -241 28 -88 81
-152 155 -185 46 -21 68 -24 168 -24 109 0 119 2 182 32 125 59 202 142 284
305 111 221 204 619 246 1048 6 71 12 285 12 497 l0 373 91 39 c49 21 140 56
200 76 128 43 495 136 507 129 4 -3 8 -60 8 -127 1 -437 89 -1083 209 -1524
39 -143 127 -393 184 -520 89 -202 218 -356 385 -460 108 -68 158 -82 277 -82
114 -1 164 16 207 67 32 39 86 168 94 226 l7 45 -40 10 c-70 19 -101 2 -171
-94 -34 -47 -68 -85 -75 -85 -18 0 -133 121 -176 183 -112 165 -238 544 -320
967 -77 394 -112 774 -114 1229 l-2 294 65 22 c177 60 420 223 420 281 0 17
-8 28 -27 35 -55 21 -112 5 -283 -79 -121 -60 -166 -78 -168 -67 -5 22 27 627
43 824 8 97 19 239 25 316 72 984 265 2045 470 2588 93 247 148 336 306 497
63 64 114 122 114 128 0 38 -118 43 -202 8z m-2528 -5473 c-1 -101 -22 -420
-41 -608 -38 -383 -109 -704 -190 -856 -37 -68 -44 -67 -80 14 -18 43 -23 75
-27 189 -2 75 1 188 7 250 20 183 95 514 161 703 36 104 149 345 162 345 4 0
8 -17 8 -37z"/>
<path d="M17514 18510 c-346 -44 -601 -173 -887 -450 -141 -136 -251 -263
-348 -400 -217 -307 -379 -711 -424 -1053 -19 -148 -19 -203 1 -335 62 -420
300 -687 729 -818 85 -26 101 -28 290 -28 231 -1 273 7 422 79 201 98 373 279
488 515 79 163 95 321 45 438 -41 95 -163 186 -304 227 -90 26 -253 18 -327
-17 -69 -32 -124 -86 -155 -152 -30 -63 -30 -109 -2 -183 36 -97 110 -153 203
-153 54 0 73 37 31 60 -60 31 -75 177 -30 269 37 73 100 114 165 108 56 -5
162 -53 211 -95 116 -103 111 -310 -14 -515 -149 -244 -367 -419 -578 -463
-136 -28 -270 1 -422 93 -156 94 -259 238 -315 439 -25 90 -28 114 -27 264 0
142 4 181 27 281 118 518 380 985 763 1360 229 224 405 325 599 345 188 19
512 -116 745 -312 202 -169 353 -367 480 -629 105 -216 161 -400 197 -649 25
-171 25 -657 0 -836 -88 -614 -387 -1444 -738 -2045 -192 -329 -511 -781 -755
-1070 l-119 -140 -6 350 c-8 392 -20 615 -50 880 -28 248 -47 281 -158 271
-64 -6 -93 -29 -110 -88 -22 -73 -40 -268 -41 -435 l0 -161 -54 -154 c-73
-207 -173 -473 -192 -511 -9 -18 -28 -47 -41 -65 -24 -31 -26 -32 -43 -17 -10
9 -30 44 -44 78 -61 148 -83 302 -101 692 -18 405 -30 534 -61 642 -17 63 -47
83 -123 83 -64 0 -96 -15 -115 -54 -26 -54 -76 -384 -76 -499 0 -41 -27 -110
-170 -435 -216 -490 -263 -586 -344 -699 -76 -105 -223 -266 -240 -260 -20 7
-46 96 -75 270 -34 195 -48 331 -57 562 l-6 160 72 150 c223 464 469 1120 559
1496 76 313 76 473 3 621 -27 53 -48 80 -80 103 -42 29 -48 30 -147 30 -102 0
-103 0 -157 -37 -161 -112 -314 -439 -433 -933 -55 -226 -98 -462 -132 -725
-25 -189 -27 -234 -28 -586 l-1 -381 -49 -69 c-114 -161 -311 -371 -383 -408
-30 -16 -32 -15 -56 11 -98 105 -100 458 -10 1283 27 247 27 306 -2 327 -26
19 -111 16 -146 -4 -90 -54 -196 -338 -242 -647 -8 -54 -16 -99 -18 -101 -2
-1 -38 -30 -81 -63 -43 -34 -81 -62 -85 -62 -4 0 -6 69 -4 152 4 187 -14 305
-63 407 -129 270 -460 347 -666 154 -44 -41 -178 -225 -191 -264 -11 -31 -20
8 -53 232 -33 226 -56 326 -79 341 -25 17 -68 7 -96 -20 -60 -61 -98 -288 -87
-527 5 -114 12 -168 43 -338 l7 -37 -104 -49 c-57 -27 -105 -47 -107 -46 -2 2
-13 77 -24 167 -46 378 -132 574 -286 656 -118 63 -261 66 -387 8 -69 -31
-187 -146 -232 -225 l-31 -54 -26 114 c-34 146 -81 289 -109 331 -31 45 -63
60 -124 55 -78 -5 -83 -13 -83 -126 0 -179 -47 -508 -127 -881 -57 -271 -214
-720 -252 -720 -11 0 -37 61 -55 130 -21 79 -34 171 -51 370 -45 521 -48 530
-144 530 -27 0 -53 -6 -59 -12 -6 -7 -17 -55 -26 -106 -20 -113 -83 -305 -142
-427 -48 -100 -111 -205 -124 -205 -32 0 -49 571 -22 735 42 252 131 482 243
626 58 74 130 76 206 6 94 -86 116 -183 88 -387 -10 -74 -20 -158 -22 -187 -5
-49 -3 -53 20 -58 72 -19 93 10 132 181 86 378 -53 603 -370 604 -147 0 -242
-37 -344 -134 -203 -193 -339 -492 -392 -856 -15 -108 -17 -448 -2 -520 31
-152 96 -246 205 -296 57 -26 73 -29 173 -29 68 0 125 5 149 14 77 27 136 101
181 226 5 14 13 -6 30 -74 55 -213 158 -301 339 -289 149 10 209 72 261 271
29 110 106 497 130 651 9 60 20 117 24 127 3 11 17 -76 29 -193 l23 -213 -35
-195 c-51 -277 -93 -579 -107 -767 -20 -262 13 -505 85 -611 46 -69 100 -95
208 -100 215 -11 332 85 384 313 23 101 23 324 0 513 -9 74 -16 138 -16 143 0
5 42 9 93 9 161 0 266 47 380 171 113 121 174 274 199 499 l12 108 106 56 c59
31 112 56 118 56 20 0 36 -103 23 -156 -19 -84 -50 -284 -61 -399 -6 -60 -20
-189 -31 -285 -25 -218 -38 -561 -28 -751 11 -207 51 -324 135 -399 65 -57
106 -70 225 -70 93 0 111 3 157 26 185 92 234 401 152 969 -16 116 -32 222
-35 236 l-6 26 56 -9 c111 -20 225 17 320 104 95 87 156 202 205 390 20 75 35
115 49 124 10 8 50 39 88 70 l68 56 7 -188 c12 -354 68 -497 230 -585 62 -34
64 -34 193 -34 124 0 133 1 189 30 62 31 186 154 288 286 56 72 68 81 68 50 0
-26 54 -231 85 -320 66 -195 171 -291 315 -291 85 0 131 22 201 96 203 215
346 449 495 807 79 192 92 207 93 115 1 -52 27 -169 57 -260 46 -141 147 -262
262 -316 48 -23 73 -28 163 -30 91 -3 113 -1 156 18 69 30 117 82 169 186 l44
89 0 -96 c0 -53 -3 -198 -7 -322 l-6 -226 -140 -158 c-284 -322 -650 -762
-772 -929 -300 -409 -435 -771 -381 -1024 41 -194 151 -324 311 -366 76 -21
247 -18 337 5 272 70 531 310 713 663 181 351 268 831 295 1638 7 211 14 309
23 321 6 9 95 115 196 235 311 371 497 631 736 1029 355 589 648 1323 794
1985 112 509 112 1052 0 1484 -125 479 -405 915 -742 1153 -100 70 -268 158
-375 197 -161 57 -408 86 -568 66z m-1672 -3039 c35 -87 32 -267 -6 -421 -84
-340 -189 -649 -370 -1083 -87 -209 -88 -211 -81 -107 10 141 63 604 89 786
64 433 162 759 267 887 l31 38 24 -22 c13 -12 34 -47 46 -78z m-3799 -1430
c125 -48 215 -345 234 -778 l6 -131 -174 -85 c-96 -47 -210 -111 -253 -142
-43 -31 -79 -55 -81 -53 -1 2 -36 174 -78 383 l-76 380 61 124 c50 102 73 137
128 192 41 42 87 78 121 94 59 27 76 30 112 16z m1466 -75 c38 -20 96 -86 125
-143 64 -127 93 -318 83 -542 -10 -201 2 -183 -167 -271 -172 -89 -224 -124
-279 -186 -27 -31 -42 -42 -45 -33 -12 34 -98 356 -126 474 -32 130 -32 130
-15 180 78 223 223 457 320 517 36 22 67 23 104 4z m-1254 -1034 c-32 -154
-83 -256 -173 -348 -28 -29 -70 -63 -93 -74 -38 -20 -42 -20 -65 -5 -107 70
-65 235 89 353 54 42 248 155 254 148 2 -2 -3 -35 -12 -74z m1381 -77 c-32
-89 -82 -169 -143 -231 -85 -86 -123 -81 -123 18 0 60 15 90 72 145 38 37 190
133 210 133 4 0 -3 -29 -16 -65z m-2197 -340 c90 -476 95 -518 96 -720 0 -161
-3 -197 -18 -237 -10 -27 -23 -48 -29 -48 -22 0 -77 72 -98 127 -49 133 -55
175 -54 423 0 174 6 287 22 435 13 110 25 211 29 225 6 24 6 23 14 -10 4 -19
22 -107 38 -195z m1567 -25 c79 -341 117 -797 79 -967 -18 -81 -60 -183 -75
-183 -17 0 -69 87 -90 150 -47 141 -48 364 -3 900 31 361 29 359 89 100z
m4059 -869 c-28 -381 -90 -752 -165 -981 -116 -354 -376 -687 -595 -762 -48
-16 -51 -16 -80 2 -44 27 -111 130 -135 208 -99 315 58 702 515 1272 86 107
227 277 313 377 l157 182 3 -41 c2 -23 -4 -138 -13 -257z"/>
<path d="M14281 17285 c-81 -18 -159 -65 -221 -133 -85 -92 -124 -204 -124
-357 1 -280 188 -484 446 -485 134 0 249 48 331 140 139 155 168 406 70 607
-55 113 -185 209 -312 233 -69 13 -111 12 -190 -5z m242 -98 c112 -66 167
-194 167 -391 0 -210 -85 -361 -226 -402 -98 -28 -217 4 -278 77 -115 137
-141 396 -56 574 35 74 80 121 145 152 70 34 181 29 248 -10z"/>
<path d="M10226 17268 c-7 -13 -82 -207 -166 -433 -84 -225 -157 -415 -162
-421 -5 -7 -24 -15 -43 -18 -31 -6 -35 -11 -35 -36 l0 -30 135 0 135 0 0 30
c0 28 -2 30 -39 30 -66 0 -67 12 -14 159 l48 131 169 -2 169 -3 50 -132 c28
-73 47 -136 44 -140 -4 -4 -26 -9 -50 -12 -37 -5 -42 -9 -42 -31 l0 -25 158
-3 157 -3 0 31 c0 27 -4 30 -40 36 l-39 6 -49 127 c-27 69 -102 266 -168 436
-65 171 -123 313 -128 317 -24 17 -75 8 -90 -14z m98 -326 c36 -99 66 -182 66
-185 0 -10 -270 -9 -270 1 -1 15 125 362 131 362 4 0 37 -80 73 -178z"/>
<path d="M13414 17279 c-69 -16 -145 -69 -178 -123 -41 -65 -48 -161 -18 -229
26 -59 74 -94 228 -167 138 -65 198 -114 216 -171 23 -78 -32 -164 -119 -188
-80 -22 -216 -7 -247 28 -9 10 -18 49 -23 96 l-8 80 -40 0 -40 0 0 -124 0
-124 38 -13 c21 -7 76 -18 121 -24 240 -32 425 68 451 243 17 110 -39 194
-168 256 -45 21 -116 55 -159 75 -45 21 -89 51 -108 73 -30 34 -32 40 -28 95
5 70 27 104 88 136 68 34 183 27 231 -15 10 -8 20 -38 24 -70 10 -78 13 -83
51 -83 l35 0 -3 112 -3 112 -50 13 c-65 18 -238 25 -291 12z"/>
<path d="M10760 17246 c0 -25 21 -36 71 -36 14 0 30 -5 37 -12 15 -15 17 -749
2 -778 -6 -12 -26 -21 -55 -25 -44 -7 -65 -30 -50 -55 4 -6 64 -10 151 -10
l144 0 0 29 c0 26 -4 29 -44 35 -24 4 -49 13 -55 20 -8 9 -10 121 -9 362 l3
349 265 -397 265 -397 48 -1 47 0 0 423 c0 398 1 425 18 440 10 10 28 17 39
17 37 0 53 11 53 36 l0 24 -145 0 c-126 0 -146 -2 -152 -16 -8 -21 22 -44 57
-44 50 0 50 -1 50 -354 l0 -331 -234 351 c-129 193 -236 359 -238 370 -3 17
-14 19 -136 22 l-132 3 0 -25z"/>
<path d="M11780 17245 c0 -20 6 -25 38 -31 20 -4 43 -11 50 -17 9 -7 12 -99
12 -398 0 -374 -1 -389 -19 -399 -11 -5 -33 -10 -50 -10 -28 0 -31 -3 -31 -30
l0 -30 213 0 c248 0 319 9 407 52 153 74 240 228 240 423 0 237 -118 391 -345
450 -45 11 -114 15 -287 15 l-228 0 0 -25z m493 -58 c136 -43 209 -153 224
-337 10 -135 -25 -272 -88 -345 -66 -75 -151 -105 -301 -105 l-98 0 0 406 0
407 108 -6 c59 -3 129 -12 155 -20z"/>
<path d="M9730 15745 c0 -72 1 -75 24 -75 21 0 25 6 32 48 l9 47 78 3 77 3 0
-271 c0 -208 -3 -272 -12 -274 -7 -3 -26 -7 -41 -11 -20 -4 -27 -11 -25 -23 3
-15 19 -17 126 -20 117 -2 122 -2 122 18 0 13 -9 22 -27 26 -16 3 -34 7 -40
10 -10 2 -13 66 -13 274 l0 270 80 0 79 0 6 -37 c10 -59 13 -63 40 -63 26 0
26 1 23 73 l-3 72 -267 3 -268 2 0 -75z"/>
<path d="M10320 15802 c0 -13 11 -22 33 -28 l32 -10 0 -269 0 -269 -32 -8
c-23 -6 -33 -14 -33 -28 0 -19 7 -20 110 -20 91 0 112 3 117 15 7 20 1 26 -39
34 l-33 7 0 129 0 130 163 3 162 2 0 -135 c0 -126 -1 -135 -19 -135 -33 0 -51
-11 -51 -31 0 -18 9 -19 115 -19 108 0 115 1 115 20 0 14 -10 22 -32 28 l-33
8 0 269 0 269 33 10 c21 6 32 15 32 27 0 17 -10 19 -115 19 -107 0 -115 -1
-115 -20 0 -14 9 -21 35 -26 l35 -6 0 -119 0 -119 -162 2 -163 3 0 115 0 115
38 9 c26 7 37 15 35 25 -3 13 -23 16 -116 19 -104 2 -112 1 -112 -16z"/>
<path d="M11020 15802 c0 -13 11 -22 33 -28 l32 -10 0 -269 0 -269 -32 -8
c-23 -6 -33 -14 -33 -28 0 -19 8 -20 245 -20 l245 0 0 80 c0 78 -1 80 -24 80
-21 0 -26 -6 -31 -43 -4 -24 -10 -49 -14 -56 -5 -8 -45 -11 -137 -9 l-129 3 0
130 0 130 73 3 c83 3 99 -5 104 -51 2 -24 8 -33 26 -35 22 -3 22 -2 22 102 l0
106 -25 0 c-21 0 -25 -5 -25 -27 0 -49 -10 -54 -96 -51 l-79 3 -3 118 -3 118
118 -3 118 -3 9 -42 c9 -38 13 -43 38 -43 l29 0 -3 68 -3 67 -227 3 c-217 2
-228 1 -228 -16z"/>
<path d="M11533 15804 c-6 -17 12 -34 39 -34 11 0 48 -56 113 -169 l96 -168
-3 -104 -3 -103 -33 -7 c-40 -8 -46 -14 -39 -34 9 -23 235 -22 244 1 7 20 -13
34 -49 34 l-28 0 0 118 1 117 97 155 c70 111 104 156 119 158 26 4 47 27 38
42 -3 6 -46 10 -101 10 -88 0 -94 -1 -94 -20 0 -15 9 -22 31 -27 23 -4 29 -10
26 -24 -8 -30 -141 -238 -151 -236 -9 3 -145 235 -146 249 0 3 14 9 30 13 21
5 30 13 30 26 0 18 -8 19 -105 19 -88 0 -107 -3 -112 -16z"/>
<path d="M12400 15800 c0 -14 9 -21 35 -26 l35 -6 0 -274 c0 -263 -1 -274 -19
-274 -33 0 -51 -11 -51 -31 0 -19 9 -19 228 -17 l227 3 0 85 c0 84 0 85 -25
85 -22 0 -26 -5 -32 -49 -11 -80 -5 -76 -128 -76 l-110 0 2 272 3 272 33 10
c21 6 32 15 32 27 0 17 -10 19 -115 19 -107 0 -115 -1 -115 -20z"/>
<path d="M12907 15814 c-16 -16 -5 -31 31 -40 l37 -9 3 -268 c2 -209 0 -268
-10 -271 -7 -3 -26 -7 -41 -11 -20 -4 -27 -11 -25 -23 3 -15 18 -17 123 -17
103 0 120 2 123 16 2 12 -8 19 -35 26 l-38 9 -3 271 -2 271 40 7 c31 5 40 11
38 23 -3 15 -21 17 -119 20 -63 1 -118 -1 -122 -4z"/>
<path d="M13160 15800 c0 -15 8 -22 29 -26 34 -7 25 12 167 -367 l89 -238 35
3 34 3 110 297 c104 284 110 296 137 302 21 4 29 11 29 26 0 20 -5 21 -92 18
-76 -2 -93 -6 -96 -19 -2 -12 7 -18 32 -23 20 -4 36 -9 36 -11 0 -4 -141 -402
-160 -450 -9 -24 -13 -27 -20 -14 -12 21 -170 448 -170 459 0 4 14 11 30 15
21 5 30 13 30 26 0 18 -8 19 -110 19 -104 0 -110 -1 -110 -20z"/>
<path d="M13805 15810 c-10 -16 3 -28 35 -35 l30 -7 0 -274 0 -274 -22 0 c-33
0 -52 -15 -45 -34 6 -15 33 -16 249 -14 l243 3 3 78 c3 76 3 77 -22 77 -20 0
-27 -6 -31 -27 -17 -84 -6 -78 -153 -81 l-133 -3 3 133 3 133 80 0 80 0 10
-43 c7 -35 13 -42 30 -40 18 3 20 11 23 106 3 101 3 102 -21 102 -19 0 -25 -7
-33 -37 l-9 -38 -82 -3 -83 -3 0 121 0 121 117 -3 c109 -3 118 -4 121 -23 8
-58 13 -65 37 -65 24 0 25 2 25 70 l0 70 -224 0 c-139 0 -227 -4 -231 -10z"/>
<path d="M14367 15813 c-17 -16 -4 -33 28 -39 l35 -6 -2 -271 -3 -271 -33 -8
c-24 -6 -32 -14 -30 -26 3 -15 21 -17 180 -16 l176 0 66 33 c118 58 173 162
164 310 -10 168 -103 266 -275 291 -77 11 -296 13 -306 3z m373 -73 c28 -16
55 -42 75 -74 29 -48 30 -54 30 -165 0 -105 -2 -121 -26 -166 -39 -77 -96
-108 -210 -113 l-89 -4 0 277 0 277 88 -4 c69 -3 97 -9 132 -28z"/>
<path d="M14369 14731 c-96 -20 -169 -106 -169 -200 0 -107 54 -161 160 -161
97 1 174 53 205 139 29 82 11 163 -45 202 -30 21 -101 30 -151 20z"/>
<path d="M7824 11310 c-94 -12 -237 -59 -316 -103 -243 -137 -427 -414 -500
-750 -31 -145 -31 -406 1 -557 68 -327 216 -604 489 -913 341 -387 857 -688
1432 -837 63 -17 120 -32 127 -35 24 -8 -152 -417 -348 -805 -218 -433 -348
-640 -456 -724 -118 -93 -143 -95 -227 -16 -63 60 -121 159 -182 311 -25 63
-53 120 -62 127 -21 16 -77 15 -111 -3 -44 -22 -56 -65 -55 -190 1 -238 89
-382 277 -456 76 -30 92 -33 228 -37 156 -4 213 4 331 52 98 40 169 87 248
166 91 91 139 173 218 375 50 125 257 720 369 1060 35 105 7 96 238 75 237
-21 483 -5 710 45 91 21 90 21 99 -74 4 -36 27 -205 51 -376 104 -722 208
-1249 306 -1550 108 -329 322 -659 485 -747 142 -77 361 -77 462 -1 19 14 48
55 70 100 l39 76 26 -45 c70 -120 201 -238 308 -279 152 -58 350 -38 426 43
37 39 62 110 82 229 73 435 -6 964 -215 1432 -25 56 -48 107 -50 113 -4 9 39
13 153 16 142 4 165 7 227 31 109 43 184 94 287 197 109 108 188 223 300 433
49 92 75 132 77 119 2 -11 -6 -101 -17 -199 -59 -524 -50 -973 23 -1185 47
-134 138 -238 244 -279 82 -32 234 -32 314 0 113 44 207 155 321 378 69 136
235 510 329 744 40 99 75 179 78 179 3 0 16 -21 30 -47 34 -64 142 -172 212
-212 182 -103 416 -121 601 -46 122 50 270 168 432 347 190 208 327 449 441
773 l42 120 59 7 c101 11 223 50 331 104 66 34 102 47 102 39 0 -8 -11 -44
-25 -82 -58 -161 -169 -520 -205 -658 -38 -151 -78 -353 -102 -520 -17 -118
-17 -450 0 -539 31 -164 106 -276 224 -333 88 -43 146 -54 267 -54 237 1 395
88 529 294 140 215 147 423 18 522 -106 81 -316 87 -417 12 -40 -29 -59 -76
-59 -142 0 -49 4 -60 29 -86 24 -23 38 -29 73 -29 58 0 74 11 58 40 -22 40 17
157 59 180 50 26 125 -3 161 -62 39 -64 21 -180 -48 -313 -69 -132 -239 -275
-328 -275 -41 0 -78 42 -99 113 -22 73 -37 275 -30 387 15 241 68 634 130 965
43 232 58 358 59 485 1 114 -1 129 -24 175 -31 61 -72 85 -149 85 -47 0 -76
-10 -195 -66 -147 -70 -273 -117 -346 -129 -41 -7 -43 -6 -37 16 16 63 28 172
28 246 1 111 -21 183 -71 233 -48 48 -101 64 -195 58 -130 -9 -218 -76 -283
-217 -98 -212 -21 -369 213 -436 33 -10 61 -19 63 -20 7 -6 -72 -186 -134
-305 -109 -210 -202 -340 -338 -475 -153 -153 -360 -295 -428 -295 -34 0 -114
92 -158 184 -37 77 -81 223 -95 313 l-7 42 129 128 c92 90 150 159 199 233
181 273 292 577 265 725 -28 150 -126 239 -277 251 -124 10 -255 -33 -367
-122 -149 -118 -300 -403 -377 -712 -39 -156 -51 -275 -49 -481 l1 -196 -110
-245 c-173 -386 -288 -626 -344 -719 -117 -196 -282 -402 -308 -386 -6 4 -19
24 -31 46 -61 121 -90 412 -71 726 15 245 51 580 107 983 25 179 57 426 72
550 l28 225 165 13 c235 18 414 64 472 123 35 35 35 62 2 88 -45 35 -143 28
-315 -23 -55 -16 -297 -37 -304 -26 -2 3 1 71 7 150 14 204 -3 534 -33 626
-23 74 -158 74 -193 -1 -30 -62 -65 -221 -106 -480 -22 -143 -45 -269 -50
-281 -8 -20 -18 -22 -142 -27 -155 -7 -301 -35 -406 -79 -75 -31 -152 -92
-152 -120 0 -29 39 -52 99 -56 49 -4 69 1 131 28 87 38 219 67 348 76 75 6 92
4 92 -7 0 -8 -8 -59 -19 -114 -10 -55 -26 -156 -36 -225 -20 -144 -12 -128
-273 -585 -168 -295 -252 -427 -334 -522 -97 -114 -226 -209 -335 -245 -104
-36 -206 7 -351 145 -79 77 -172 189 -172 210 0 5 34 45 75 89 144 153 292
373 404 603 110 224 181 432 245 720 46 209 59 312 58 470 0 275 -63 483 -198
661 -85 113 -145 146 -261 146 -253 1 -387 -240 -548 -987 -233 -1078 -312
-2520 -179 -3267 l16 -88 -56 -101 c-74 -131 -104 -179 -114 -179 -17 0 -138
256 -193 405 -104 283 -227 895 -348 1735 -56 385 -71 495 -71 514 0 17 24 33
110 75 135 68 237 141 246 177 8 33 -7 44 -65 44 -34 0 -61 -10 -120 -44 -42
-25 -102 -56 -133 -70 l-58 -26 -5 23 c-9 43 -65 480 -101 792 -49 424 -201
1173 -305 1494 -67 209 -101 246 -224 246 -99 0 -116 -13 -145 -112 -12 -43
-70 -206 -127 -363 -108 -292 -213 -588 -488 -1370 -227 -646 -295 -834 -303
-842 -17 -17 -330 77 -512 154 -312 132 -555 284 -774 483 -156 141 -318 344
-415 520 -286 516 -224 1188 144 1561 185 187 344 230 590 159 180 -52 351
-156 448 -272 197 -236 239 -631 96 -919 -62 -127 -152 -206 -215 -190 -39 10
-116 95 -152 169 -51 104 -75 214 -69 316 3 47 7 95 9 105 5 33 -45 45 -90 21
-29 -16 -46 -37 -77 -99 l-40 -79 0 -131 c0 -151 13 -200 75 -294 72 -107 178
-161 336 -170 330 -18 552 154 636 495 32 131 30 304 -6 438 -94 349 -310 567
-696 703 -179 63 -422 92 -586 72z m2325 -1665 c17 -143 42 -379 56 -525 25
-254 49 -475 80 -735 8 -66 11 -123 7 -127 -10 -10 -259 -52 -402 -69 -153
-17 -505 7 -516 36 -5 11 124 412 256 800 45 132 160 474 256 760 96 286 177
527 181 535 3 8 16 -82 29 -200 13 -118 36 -332 53 -475z m2292 406 c86 -89
151 -218 181 -357 17 -76 22 -133 22 -249 0 -170 -13 -256 -76 -495 -107 -414
-240 -720 -443 -1025 -83 -125 -100 -146 -103 -125 -10 65 49 891 88 1240 56
492 113 836 160 963 24 65 64 117 88 117 9 0 46 -31 83 -69z m2959 -983 c70
-48 95 -152 65 -268 -43 -170 -240 -503 -399 -675 l-37 -40 6 120 c23 440 139
790 290 873 29 16 38 15 75 -10z m886 -141 c29 -49 27 -213 -5 -329 -13 -49
-29 -88 -36 -88 -21 0 -79 44 -101 77 -31 46 -37 107 -19 176 28 106 96 214
129 201 7 -3 21 -19 32 -37z m-4206 -1838 c255 -445 368 -944 320 -1409 -16
-147 -73 -330 -104 -330 -18 0 -93 118 -129 205 -49 115 -83 255 -111 455 -37
259 -47 405 -53 820 -7 428 -11 414 77 259z"/>
<path d="M11270 11052 c0 -13 11 -21 38 -28 l37 -9 0 -310 0 -310 -37 -9 c-27
-7 -38 -15 -38 -28 0 -17 16 -18 280 -18 l280 0 0 85 0 85 -28 0 c-27 0 -29
-3 -38 -57 l-9 -58 -152 -3 -153 -3 0 151 0 150 94 0 c102 0 105 -2 106 -67 0
-18 6 -23 25 -23 l25 0 0 120 c0 120 0 120 -24 120 -20 0 -24 -6 -29 -41 -3
-23 -11 -46 -19 -50 -7 -5 -49 -8 -93 -7 l-80 3 -3 138 -3 137 130 0 c143 0
133 5 147 -72 5 -34 10 -38 35 -38 l29 0 0 80 0 80 -260 0 c-245 0 -260 -1
-260 -18z"/>
<path d="M11840 11051 c0 -19 18 -31 49 -31 15 0 40 -59 126 -287 166 -443
145 -398 191 -398 l39 0 68 185 c38 102 94 254 125 339 55 149 58 155 90 163
22 6 32 14 32 28 0 19 -7 20 -105 20 -96 0 -105 -2 -105 -19 0 -14 10 -21 35
-25 19 -4 35 -12 35 -18 0 -11 -178 -513 -190 -536 -4 -8 -49 100 -109 260
-93 251 -100 274 -84 285 9 7 25 13 35 13 11 0 18 7 18 20 0 19 -7 20 -125 20
-116 0 -125 -1 -125 -19z"/>
<path d="M12580 11052 c0 -13 11 -21 38 -28 l37 -9 0 -310 0 -310 -37 -9 c-27
-7 -38 -15 -38 -28 0 -17 16 -18 280 -18 l280 0 0 85 0 85 -29 0 c-27 0 -29
-4 -36 -46 -11 -79 -1 -74 -166 -74 l-149 0 0 150 0 151 93 -3 92 -3 9 -42 c8
-36 14 -43 33 -43 23 0 23 1 23 120 0 120 0 120 -24 120 -20 0 -25 -6 -30 -44
-4 -26 -13 -47 -22 -50 -9 -3 -51 -6 -95 -6 l-79 0 0 140 0 140 129 0 c143 0
133 5 147 -72 5 -34 10 -38 35 -38 l29 0 0 80 0 80 -260 0 c-245 0 -260 -1
-260 -18z"/>
<path d="M13210 11053 c0 -14 11 -22 38 -29 l37 -9 0 -310 0 -310 -37 -9 c-27
-7 -38 -15 -38 -28 0 -16 11 -18 130 -18 119 0 130 2 130 18 0 13 -11 21 -37
28 l-38 9 -3 131 -3 132 25 4 c40 8 127 -9 148 -29 27 -24 52 -75 72 -148 36
-124 81 -160 196 -153 48 3 55 6 58 26 3 18 -1 22 -26 22 -82 0 -109 29 -143
152 -24 87 -42 114 -92 139 l-39 21 49 22 c53 25 99 73 109 112 12 47 -1 129
-26 164 -45 63 -90 75 -312 78 -189 3 -198 3 -198 -15z m367 -56 c48 -25 66
-67 61 -143 -6 -99 -52 -134 -178 -134 l-70 0 0 151 0 152 78 -5 c44 -3 91
-12 109 -21z"/>
<path d="M13966 4549 c-315 -43 -544 -124 -666 -236 l-63 -59 -76 14 c-105 19
-309 10 -421 -18 -99 -25 -284 -111 -353 -163 -26 -21 -52 -37 -57 -37 -6 0
-31 15 -57 34 -101 72 -259 137 -415 172 -85 20 -347 24 -416 7 -41 -11 -45
-9 -123 38 -89 53 -203 100 -307 126 -52 14 -111 17 -262 17 -184 0 -200 -1
-285 -27 -119 -37 -254 -103 -336 -165 -121 -92 -219 -224 -219 -294 0 -44 40
-78 90 -78 45 0 56 8 134 110 57 75 188 178 288 227 169 84 303 108 438 79 75
-16 234 -86 278 -122 l24 -20 -59 -39 c-88 -60 -248 -220 -304 -303 -88 -133
-112 -278 -61 -378 28 -54 101 -120 170 -152 50 -23 72 -27 182 -30 108 -3
134 -1 190 18 273 92 449 373 386 617 -19 75 -42 124 -91 187 -20 27 -33 51
-30 54 4 4 43 7 88 6 140 -2 326 -76 447 -179 91 -78 91 -76 24 -175 -76 -113
-149 -268 -175 -371 -52 -205 13 -376 167 -435 39 -15 75 -19 174 -19 116 0
129 2 181 28 104 50 178 155 200 282 27 156 -25 377 -129 549 l-36 59 55 50
c73 68 171 130 266 169 71 30 87 32 183 32 58 0 118 -5 133 -12 27 -11 27 -13
13 -41 -34 -65 -68 -207 -73 -307 -13 -232 60 -403 199 -465 45 -20 69 -23
163 -24 91 0 120 4 167 23 72 29 151 100 186 166 25 47 27 60 26 161 0 90 -4
121 -23 170 -55 140 -146 259 -255 334 -25 18 -46 36 -46 40 0 17 113 119 160
145 68 37 201 81 328 108 85 18 139 23 257 23 143 0 152 -1 200 -26 68 -36
123 -44 169 -25 20 8 36 21 36 29 0 29 -71 77 -161 108 -56 19 -89 23 -249 25
-102 1 -216 -2 -254 -7z m-2587 -639 c22 -48 26 -68 26 -150 -1 -123 -25 -187
-102 -270 -61 -66 -166 -127 -201 -116 -35 11 -72 46 -93 89 -62 120 30 309
236 488 l70 60 19 -23 c10 -13 31 -48 45 -78z m2070 -80 c89 -170 91 -321 6
-400 l-27 -25 -24 30 c-30 37 -60 130 -69 215 -7 66 6 198 26 258 10 32 12 32
29 17 11 -10 37 -52 59 -95z m-1085 -338 c37 -148 28 -268 -27 -349 -56 -82
-83 -83 -125 -2 -21 39 -23 54 -19 134 5 97 24 159 83 284 l37 76 18 -43 c11
-24 25 -69 33 -100z"/>
</g>
</svg>
