<?xml version="1.0" encoding="utf-8"?>
<!-- Generator: Adobe Illustrator 25.2.0, SVG Export Plug-In . SVG Version: 6.00 Build 0)  -->
<svg version="1.1" id="Layer_1" xmlns="http://www.w3.org/2000/svg" xmlns:xlink="http://www.w3.org/1999/xlink" x="0px" y="0px"
	 viewBox="0 0 2200 2200" style="enable-background:new 0 0 2200 2200;" xml:space="preserve">
<style type="text/css">
	.st0{fill:#12100B;}
</style>
<g>
	<path d="M742.92,1434.15c0.09,0.9,0.02,1.14-0.31,1.34c-0.47,0.31-1.76,0.77-7.13,2.5c-1.98,0.64-4.75,1.54-6.13,2.01
		c-1.41,0.47-3.3,1.09-4.21,1.37c-1.76,0.53-6.16,1.94-8.25,2.62c-0.66,0.22-1.83,0.59-2.56,0.83c-1.36,0.43-4.5,1.5-10.48,3.51
		c-2.9,0.98-5.29,1.88-11.82,4.31c-3.85,1.44-11.97,4.96-15.85,6.88c-1.94,0.96-5.24,2.85-7.11,4.06c-2.25,1.48-8.37,5.76-9.81,6.91
		c-0.6,0.48-1.56,1.21-2.1,1.63c-4.66,3.63-16.74,15.2-22.61,21.6c-1.65,1.79-4.06,4.88-5.55,7.09c-1.78,2.63-5.75,9.85-5.75,10.45
		c0,0.1-0.18,0.56-0.42,1.04c-0.6,1.21-1.26,2.86-1.76,4.34c-1.08,3.21-1.36,4.13-1.58,5.05c-0.13,0.53-0.71,2.66-1.27,4.73
		c-0.56,2.04-1.15,4.32-1.34,5.01c-0.19,0.7-0.42,1.49-0.51,1.77c-0.11,0.28-0.31,0.96-0.44,1.53c-0.13,0.55-0.35,1.44-0.47,1.95
		c-0.18,0.81-1.26,4.81-1.78,6.77c-0.11,0.43-0.38,1.48-0.58,2.33s-0.45,1.87-0.54,2.23c-0.09,0.37-0.24,0.99-0.33,1.36
		c-0.09,0.37-0.33,1.43-0.56,2.33c-0.23,0.91-0.7,2.84-1.03,4.26c-0.32,1.42-0.67,2.99-0.8,3.48c-0.11,0.48-0.39,1.79-0.63,2.89
		c-0.23,1.11-0.53,2.41-0.67,2.89c-0.13,0.48-0.31,1.25-0.42,1.73c-0.11,0.48-0.35,1.57-0.54,2.4c-0.19,0.84-0.57,2.58-0.82,3.84
		c-0.25,1.25-0.51,2.51-0.58,2.78c-0.27,1-0.58,2.68-1,5.35c-0.24,1.52-0.53,3.31-0.67,4c-0.36,1.98-0.6,3.82-1.09,8.06
		c-0.58,5.12-0.87,7.27-1.09,8.88c-0.1,0.71-0.36,2.51-0.56,3.96c-0.89,6.29-1.45,9.22-2.32,12.42c-0.71,2.58-1.2,3.1-2.36,2.5
		c-0.96-0.49-1.23-1.3-1.49-4.36c-0.13-1.58-0.34-3.33-0.45-3.89c-0.2-0.94-0.54-3.9-1.07-9.51c-0.27-2.87-0.58-4.09-1.09-4.39
		c-0.42-0.23-0.65-1.61-1.16-7.17c-0.33-3.54-0.85-5.77-1.34-5.88c-0.51-0.11-0.57-0.38-1.23-6.48c-0.55-5.08-0.85-6.39-1.52-6.6
		c-0.22-0.07-0.38-0.53-0.47-1.38c-0.67-5.52-0.97-7.14-2.03-10.87c-0.29-1.03-0.69-2.99-0.89-4.33c-0.2-1.36-0.78-4.15-1.27-6.22
		c-0.49-2.07-1.13-5.07-1.41-6.61c-0.83-4.67-0.98-5.15-2.12-8.91c-1.38-4.63-3.59-10.27-5.84-14.98c-2.56-5.37-2.92-6.07-5.4-10.37
		c-2.12-3.67-2.18-3.77-3.99-6.1c-2.05-2.64-3.54-4.12-7.38-7.32c-3.57-2.97-6.11-4.82-10.61-7.69
		c-7.58-4.82-12.55-7.45-20.62-10.91c-12.11-5.18-21.68-8.47-32.55-11.38c-0.49-0.13-1.14-0.31-1.45-0.4
		c-0.51-0.17-1.47-0.36-6.24-1.58c-1.04-0.26-3.46-0.81-5.35-1.23c-1.89-0.42-3.9-0.85-4.46-0.98c-2.83-0.63-3.76-0.85-7.02-1.58
		c-1.95-0.43-4.01-0.91-4.57-1.06c-0.56-0.13-2.61-0.64-4.57-1.11c-6.67-1.58-15.25-4.27-17.03-5.22c-1.09-0.58-1.29-0.87-1.18-1.83
		c0.04-0.3,0.05-0.45,0.09-0.76c1.09,0.1,1.63,0.15,2.72,0.25c1.47,0.13,4.62,0.32,6.93,0.41c2.33,0.09,6.25,0.21,8.69,0.29
		c5.91,0.18,14,0.17,16.5,0.07c6.2-0.23,13.05-0.66,17.06-1.17c0.55-0.07,2.65-0.3,4.68-0.53c4.5-0.49,4.83-0.53,10.37-1.54
		c4.97-0.91,4.73-0.87,8.58-1.79c3.95-0.94,10.86-3.01,13.49-4c2.27-0.87,5.91-2.4,7.36-3.06c12.42-5.79,24.04-15.71,29.76-25.17
		c1.67-2.77,4.91-9.2,5.46-10.89c0.09-0.28,0.29-0.79,0.45-1.12c0.4-0.82,1.44-3.65,1.67-4.43c0.11-0.36,0.5-1.61,0.89-2.78
		c0.38-1.16,0.78-2.5,0.87-2.94c0.11-0.44,0.62-2.26,1.11-4.02c0.79-2.8,1.49-5.91,2.03-8.87c0.29-1.56,1.58-9.35,1.81-10.81
		c0.2-1.4,0.44-3.02,0.85-5.53c0.13-0.79,0.35-2.13,0.47-2.95c0.12-0.82,0.32-2.13,0.44-2.85c0.22-1.31,0.47-2.81,0.89-5.31
		c0.12-0.73,0.32-2.03,0.45-2.86c0.24-1.61,0.56-3.83,0.91-5.84c0.51-2.84,0.72-4.78,2.21-14.39c0.12-0.8,0.33-2.11,0.45-2.89
		c0.12-0.79,0.38-2.6,0.56-4.02c0.18-1.42,0.38-2.87,0.45-3.2c0.09-0.56,0.25-1.46,0.78-6.1c0.1-0.84,0.33-2.72,0.51-4.14
		c0.19-1.43,0.43-3.35,0.51-4.23c0.12-1.33,0.25-1.75,0.69-2.21c0.51-0.53,0.65-0.56,2.23-0.6c2.04-0.06,3.01,0.17,3.61,0.89
		c0.93,1.09,1.17,1.96,1.38,5.17c0.42,6.47,0.69,9.54,0.87,11.38c0.1,1.04,0.29,2.91,0.42,4.14c0.13,1.21,0.29,2.54,0.36,2.92
		c0.07,0.38,0.28,2.21,0.47,4.03c0.19,1.82,0.45,3.86,0.54,4.52c0.45,2.82,0.65,4.16,0.98,6.7c0.65,4.95,0.82,6.1,1.03,6.95
		c0.13,0.45,0.22,1.11,0.22,1.46c0,0.32,0.09,0.99,0.2,1.44c0.25,1.01,0.59,3.03,1.05,6.31c0.34,2.47,0.5,3.38,0.96,5.66
		c0.34,1.71,0.67,3.57,0.91,5.16c0.11,0.76,0.31,1.88,0.45,2.48c0.24,1.15,0.59,2.89,0.89,4.34c0.5,2.45,1.14,5.24,1.54,6.63
		c0.24,0.84,0.6,2.09,0.8,2.8c1.2,4.32,2.26,7.2,4.17,11.83c0.45,1.09,2.12,4.41,3.43,6.82c0.42,0.78,0.76,1.45,0.76,1.48
		c0,0.4,4.62,7.81,5.62,9.04c0.34,0.42,0.63,0.81,0.63,0.87c0,0.08,0.58,0.8,1.27,1.65c5.08,6.08,10.5,10.69,15.23,12.99
		c7.25,3.5,13.48,5.06,24.08,5.86c1.65,0.12,3.41,0.26,3.9,0.3c0.49,0.04,1.45,0.08,2.12,0.11c0.67,0.03,3.24,0.11,5.68,0.19
		c2.44,0.08,4.86,0.15,5.35,0.14c0.49-0.01,2.06,0.01,3.46,0.04c1.39,0.02,3.12,0.02,3.79,0.02c0.67,0,2.14,0,3.23-0.01
		c1.11-0.01,3.16-0.04,4.57-0.08c3.12-0.08,5.04-0.12,6.8-0.16c1.83-0.03,6.99-0.35,10.37-0.69c1.53-0.15,3.34-0.32,4.01-0.37
		c0.67-0.05,4.99-0.65,9.59-1.36c8.99-1.41,10.66-1.6,11.71-1.21C741.83,1431.68,742.81,1432.93,742.92,1434.15z M383.56,1440.92
		c-1.05-0.71-2.72-1.08-11.71-2.89c-4.59-0.93-8.92-1.91-9.59-2.1c-0.67-0.19-2.48-0.67-4.01-1.08c-3.38-0.9-8.54-2.48-10.37-3.12
		c-1.76-0.61-3.68-1.28-6.8-2.36c-1.4-0.49-3.46-1.23-4.57-1.64c-1.09-0.41-2.56-0.96-3.23-1.22c-0.67-0.26-2.4-0.91-3.79-1.47
		c-1.4-0.56-2.97-1.19-3.46-1.37c-0.49-0.18-2.9-1.17-5.35-2.21c-2.44-1.03-5.02-2.13-5.68-2.42c-0.67-0.29-1.63-0.72-2.12-0.95
		c-0.49-0.23-2.26-1.06-3.9-1.85c-10.61-5.02-16.83-9.13-24.08-15.63c-4.73-4.25-10.14-11.12-15.23-19.36
		c-0.69-1.14-1.27-2.11-1.27-2.19c0-0.06-0.29-0.58-0.63-1.14c-1-1.67-5.62-11.07-5.62-11.46c0-0.04-0.33-0.85-0.76-1.81
		c-1.32-2.98-2.98-7.05-3.43-8.33c-1.91-5.47-2.96-8.81-4.17-13.66c-0.2-0.79-0.56-2.2-0.8-3.15c-0.4-1.57-1.04-4.64-1.54-7.3
		c-0.3-1.59-0.65-3.48-0.89-4.73c-0.13-0.65-0.34-1.86-0.45-2.67c-0.25-1.69-0.57-3.69-0.91-5.54c-0.46-2.49-0.62-3.46-0.96-6.07
		c-0.46-3.47-0.8-5.63-1.05-6.75c-0.11-0.5-0.2-1.2-0.2-1.52c0-0.34-0.09-1.03-0.22-1.55c-0.2-0.94-0.38-2.17-1.03-7.38
		c-0.34-2.68-0.54-4.1-0.98-7.11c-0.09-0.7-0.35-2.83-0.53-4.73c-0.19-1.89-0.4-3.8-0.47-4.21c-0.07-0.41-0.22-1.8-0.36-3.06
		c-0.13-1.28-0.32-3.22-0.42-4.29c-0.18-1.91-0.44-5.05-0.87-11.64c-0.21-3.25-0.45-4.23-1.38-5.82c-0.61-1.03-1.56-1.79-3.61-2.84
		c-1.58-0.83-1.72-0.87-2.23-0.63c-0.45,0.21-0.57,0.55-0.69,1.8c-0.08,0.82-0.32,2.6-0.51,3.89c-0.19,1.3-0.42,3.03-0.51,3.81
		c-0.53,4.27-0.69,5.1-0.78,5.61c-0.07,0.29-0.27,1.62-0.45,2.93c-0.18,1.31-0.44,2.96-0.56,3.69c-0.12,0.7-0.32,1.91-0.45,2.63
		c-1.49,8.78-1.69,10.59-2.21,13.14c-0.36,1.82-0.67,3.85-0.91,5.34c-0.12,0.76-0.32,1.97-0.45,2.63c-0.43,2.29-0.67,3.66-0.89,4.85
		c-0.12,0.66-0.32,1.86-0.44,2.63c-0.12,0.76-0.34,1.99-0.47,2.72c-0.41,2.31-0.65,3.81-0.85,5.11c-0.22,1.35-1.52,8.53-1.81,9.95
		c-0.54,2.69-1.24,5.48-2.03,7.92c-0.5,1.52-1,3.11-1.11,3.5c-0.09,0.4-0.48,1.56-0.87,2.54c-0.39,0.99-0.79,2.06-0.89,2.37
		c-0.23,0.67-1.27,3.03-1.67,3.66c-0.16,0.25-0.36,0.67-0.45,0.91c-0.55,1.42-3.79,6.39-5.46,8.39
		c-5.73,6.84-17.35,11.41-29.76,11.32c-1.45-0.02-5.09-0.22-7.36-0.44c-2.62-0.25-9.54-1.53-13.49-2.52
		c-3.86-0.96-3.62-0.88-8.58-2.42c-5.54-1.72-5.86-1.84-10.37-3.62c-2.03-0.79-4.13-1.62-4.68-1.83
		c-4.03-1.52-10.86-4.57-17.06-7.55c-2.5-1.19-10.57-5.43-16.5-8.74c-2.45-1.39-6.36-3.59-8.69-4.93c-2.31-1.32-5.46-3.22-6.93-4.16
		c-1.09-0.69-1.63-1.04-2.72-1.74c-0.04,0.32-0.05,0.49-0.09,0.81c-0.11,1.03,0.09,1.47,1.18,2.71c1.78,2.03,10.37,9.61,17.03,14.86
		c1.96,1.55,4.01,3.18,4.57,3.61c0.56,0.46,2.62,2.06,4.57,3.55c3.28,2.5,4.19,3.21,7.02,5.36c0.56,0.43,2.56,1.93,4.46,3.36
		c1.9,1.43,4.31,3.24,5.35,4.07c4.77,3.75,5.73,4.42,6.24,4.87c0.31,0.25,0.96,0.77,1.45,1.16c10.86,8.61,20.45,16.88,32.55,28.16
		c8.07,7.52,13.04,12.63,20.62,21.15c4.5,5.07,7.04,8.15,10.61,12.83c3.84,5.04,5.32,7.22,7.38,10.87c1.81,3.22,1.87,3.34,3.99,8.07
		c2.48,5.53,2.83,6.41,5.4,13.06c2.25,5.84,4.46,12.59,5.84,17.95c1.14,4.36,1.28,4.9,2.12,10.1c0.27,1.71,0.91,5.07,1.41,7.42
		c0.49,2.35,1.07,5.47,1.27,6.96c0.2,1.47,0.6,3.66,0.89,4.85c1.07,4.29,1.36,6.09,2.03,12.08c0.09,0.92,0.25,1.46,0.47,1.61
		c0.67,0.46,0.97,1.94,1.52,7.42c0.65,6.59,0.71,6.89,1.23,7.19c0.49,0.29,1,2.8,1.34,6.61c0.51,5.98,0.74,7.5,1.16,7.89
		c0.51,0.49,0.82,1.86,1.09,4.96c0.54,6.03,0.87,9.24,1.07,10.29c0.11,0.62,0.31,2.52,0.45,4.22c0.27,3.28,0.53,4.22,1.49,5.05
		c1.16,1.01,1.65,0.62,2.36-1.83c0.87-3.05,1.43-5.93,2.32-12.17c0.2-1.44,0.46-3.22,0.56-3.93c0.22-1.58,0.51-3.72,1.09-8.83
		c0.49-4.22,0.74-6.04,1.09-7.95c0.13-0.66,0.42-2.41,0.67-3.89c0.42-2.6,0.73-4.22,1-5.15c0.07-0.25,0.32-1.45,0.58-2.65
		c0.25-1.2,0.64-2.86,0.82-3.65c0.19-0.79,0.42-1.82,0.53-2.27c0.11-0.45,0.29-1.18,0.42-1.62c0.13-0.45,0.44-1.67,0.67-2.72
		c0.23-1.05,0.51-2.28,0.63-2.73c0.13-0.45,0.48-1.93,0.8-3.26c0.32-1.33,0.79-3.14,1.03-3.97c0.23-0.83,0.47-1.82,0.56-2.17
		c0.09-0.34,0.25-0.92,0.33-1.26c0.09-0.34,0.34-1.28,0.54-2.08c0.2-0.8,0.47-1.77,0.58-2.16c0.52-1.8,1.6-5.47,1.78-6.21
		c0.12-0.48,0.33-1.3,0.47-1.81c0.13-0.52,0.33-1.14,0.44-1.38c0.09-0.25,0.33-0.96,0.51-1.59c0.19-0.63,0.78-2.7,1.34-4.56
		c0.56-1.88,1.14-3.8,1.27-4.29c0.22-0.85,0.5-1.66,1.58-4.48c0.5-1.3,1.16-2.7,1.76-3.69c0.25-0.39,0.42-0.79,0.42-0.88
		c0-0.6,3.97-6.3,5.75-8.23c1.49-1.63,3.91-3.76,5.55-4.9c5.86-4.06,17.95-10.73,22.61-12.48c0.53-0.2,1.5-0.55,2.1-0.78
		c1.44-0.56,7.57-2.38,9.81-2.94c1.86-0.47,5.17-1.03,7.11-1.21c3.88-0.38,12-0.71,15.85-0.66c6.52,0.09,8.92,0.1,11.82,0.22
		c5.98,0.26,9.12,0.37,10.48,0.45c0.74,0.03,1.9,0.1,2.56,0.13c2.08,0.1,6.49,0.31,8.25,0.43c0.91,0.06,2.81,0.14,4.21,0.18
		c1.38,0.04,4.15,0.14,6.13,0.22c5.36,0.21,6.67,0.22,7.13,0.09c0.34-0.08,0.4-0.28,0.31-1.14
		C385.75,1443.22,384.76,1441.73,383.56,1440.92z M1746.2,1152.64c-1.09-0.09-1.63-0.14-2.72-0.23c-1.47-0.12-4.63-0.49-6.93-0.81
		c-2.33-0.32-6.25-0.82-8.69-1.12c-5.91-0.72-14-1.77-16.5-2.19c-6.2-1.02-13.08-2.19-17.06-3.13c-0.55-0.13-2.65-0.58-4.68-1
		c-4.5-0.91-4.83-0.99-10.37-2.49c-4.96-1.35-4.73-1.28-8.58-2.52c-3.95-1.26-10.87-3.87-13.49-5.1c-2.27-1.06-5.91-2.91-7.36-3.71
		c-12.42-6.92-24.05-18.38-29.76-29.56c-1.67-3.27-4.91-10.9-5.46-12.92c-0.09-0.34-0.29-0.95-0.45-1.33
		c-0.4-0.96-1.44-4.34-1.67-5.27c-0.11-0.43-0.5-1.92-0.89-3.32c-0.39-1.39-0.78-2.98-0.87-3.51c-0.11-0.53-0.62-2.7-1.11-4.8
		c-0.79-3.34-1.49-7.06-2.03-10.59c-0.29-1.86-1.58-11.18-1.81-12.93c-0.2-1.67-0.44-3.6-0.85-6.59c-0.13-0.94-0.35-2.53-0.47-3.5
		c-0.12-0.98-0.32-2.53-0.45-3.38c-0.22-1.55-0.47-3.31-0.89-6.27c-0.12-0.86-0.32-2.39-0.45-3.37c-0.24-1.91-0.56-4.5-0.91-6.85
		c-0.51-3.31-0.72-5.6-2.21-16.78c-0.12-0.93-0.33-2.45-0.45-3.35c-0.12-0.92-0.38-3.01-0.56-4.66c-0.18-1.65-0.38-3.32-0.45-3.7
		c-0.09-0.64-0.25-1.69-0.78-7.04c-0.1-0.97-0.32-3.13-0.51-4.77c-0.19-1.63-0.43-3.84-0.51-4.86c-0.12-1.54-0.25-1.99-0.69-2.42
		c-0.51-0.49-0.65-0.49-2.23-0.14c-2.04,0.45-3.01,0.99-3.61,1.99c-0.93,1.53-1.17,2.61-1.38,6.43c-0.42,7.71-0.69,11.39-0.87,13.62
		c-0.1,1.25-0.29,3.51-0.42,5c-0.13,1.46-0.29,3.08-0.36,3.54c-0.07,0.47-0.28,2.68-0.47,4.89c-0.19,2.21-0.45,4.69-0.53,5.5
		c-0.45,3.46-0.65,5.11-0.98,8.23c-0.65,6.06-0.82,7.49-1.03,8.56c-0.13,0.57-0.22,1.38-0.22,1.8c0,0.39-0.09,1.2-0.2,1.77
		c-0.25,1.27-0.59,3.76-1.05,7.82c-0.34,3.04-0.5,4.17-0.96,7.04c-0.34,2.15-0.67,4.46-0.91,6.43c-0.11,0.94-0.31,2.35-0.45,3.09
		c-0.24,1.44-0.59,3.63-0.89,5.46c-0.51,3.08-1.14,6.62-1.54,8.39c-0.24,1.08-0.6,2.68-0.8,3.58c-1.2,5.53-2.26,9.28-4.17,15.38
		c-0.45,1.44-2.12,5.89-3.43,9.15c-0.42,1.05-0.76,1.95-0.76,1.99c0,0.49-4.62,10.67-5.62,12.42c-0.34,0.59-0.62,1.15-0.62,1.22
		c0,0.1-0.58,1.12-1.27,2.33c-5.08,8.7-10.5,15.73-15.23,19.79c-7.25,6.2-13.48,9.8-24.08,13.95c-1.65,0.64-3.41,1.35-3.9,1.55
		c-0.49,0.19-1.45,0.55-2.12,0.79c-0.67,0.24-3.25,1.14-5.68,2.02c-2.45,0.88-4.86,1.74-5.35,1.89c-0.49,0.14-2.06,0.69-3.46,1.18
		c-1.39,0.49-3.12,1.06-3.79,1.29c-0.67,0.23-2.14,0.72-3.23,1.09c-1.11,0.37-3.16,1.03-4.57,1.48c-3.12,0.99-5.04,1.62-6.8,2.2
		c-1.83,0.62-6.99,2.1-10.37,2.96c-1.53,0.39-3.34,0.87-4.01,1.06c-0.67,0.19-4.99,1.12-9.59,2.07c-8.99,1.85-10.66,2.35-11.71,3.22
		c-1.2,0.99-2.19,2.95-2.3,4.41c-0.09,1.07-0.02,1.32,0.31,1.38c0.47,0.12,1.77,0.04,7.13-0.05c1.98-0.03,4.75-0.05,6.13-0.03
		c1.41,0.01,3.3,0.01,4.21,0c1.76-0.04,6.17-0.01,8.25,0.02c0.66,0.01,1.83,0.03,2.56,0.05c1.36,0.01,4.51,0.12,10.48,0.46
		c2.89,0.16,5.3,0.4,11.82,1.21c3.85,0.48,11.97,2.21,15.85,3.39c1.94,0.59,5.25,1.94,7.11,2.9c2.25,1.17,8.37,4.8,9.81,5.83
		c0.6,0.43,1.56,1.1,2.1,1.48c4.66,3.3,16.74,14.96,22.61,21.87c1.64,1.94,4.06,5.39,5.55,7.94c1.78,3.02,5.75,11.6,5.75,12.38
		c0,0.13,0.18,0.69,0.42,1.28c0.6,1.46,1.26,3.48,1.76,5.32c1.09,4,1.36,5.14,1.58,6.3c0.13,0.67,0.71,3.35,1.27,5.96
		c0.56,2.59,1.15,5.47,1.34,6.35c0.19,0.89,0.42,1.89,0.51,2.24c0.11,0.35,0.31,1.22,0.44,1.94c0.13,0.7,0.35,1.83,0.47,2.5
		c0.18,1.04,1.26,6.16,1.78,8.68c0.11,0.55,0.38,1.91,0.58,3.01c0.2,1.11,0.45,2.41,0.54,2.89c0.09,0.48,0.24,1.28,0.33,1.76
		c0.09,0.48,0.32,1.85,0.56,3.02c0.23,1.17,0.7,3.68,1.03,5.54c0.32,1.85,0.67,3.91,0.8,4.54c0.11,0.63,0.39,2.34,0.63,3.79
		c0.23,1.46,0.54,3.16,0.67,3.79c0.13,0.63,0.31,1.64,0.42,2.28c0.11,0.63,0.35,2.06,0.53,3.17c0.19,1.11,0.57,3.41,0.82,5.07
		c0.26,1.67,0.51,3.33,0.58,3.68c0.27,1.32,0.58,3.56,1,7.13c0.25,2.04,0.54,4.44,0.67,5.36c0.36,2.65,0.6,5.13,1.09,10.88
		c0.58,6.95,0.87,9.87,1.09,12.06c0.1,0.97,0.36,3.42,0.56,5.4c0.89,8.59,1.45,12.61,2.32,16.98c0.71,3.52,1.2,4.21,2.36,3.29
		c0.96-0.76,1.23-1.91,1.49-6.17c0.13-2.21,0.34-4.65,0.45-5.43c0.2-1.33,0.54-5.46,1.07-13.23c0.27-3.99,0.58-5.68,1.09-6.13
		c0.42-0.35,0.65-2.27,1.16-9.95c0.33-4.88,0.85-7.97,1.34-8.16c0.51-0.2,0.57-0.58,1.23-8.95c0.55-6.97,0.85-8.77,1.52-9.1
		c0.22-0.11,0.38-0.76,0.47-1.91c0.67-7.55,0.97-9.77,2.03-14.9c0.29-1.42,0.69-4.1,0.89-5.92c0.2-1.85,0.78-5.66,1.27-8.49
		c0.49-2.83,1.13-6.9,1.41-9c0.83-6.34,0.98-6.98,2.12-12.1c1.38-6.3,3.59-13.99,5.84-20.43c2.56-7.34,2.91-8.29,5.4-14.17
		c2.12-5.02,2.18-5.15,3.99-8.36c2.05-3.64,3.54-5.7,7.38-10.15c3.57-4.13,6.11-6.71,10.61-10.68c7.58-6.67,12.55-10.26,20.62-14.83
		c12.11-6.84,21.71-10.81,32.55-13.82c0.49-0.14,1.14-0.32,1.45-0.42c0.51-0.19,1.48-0.39,6.24-1.54c1.04-0.25,3.46-0.73,5.35-1.08
		c1.89-0.35,3.9-0.69,4.46-0.79c2.83-0.5,3.76-0.67,7.02-1.19c1.95-0.31,4.01-0.63,4.57-0.75c0.56-0.1,2.61-0.45,4.57-0.75
		c6.67-1.01,15.25-2.88,17.03-3.77c1.09-0.54,1.29-0.88,1.18-2.19C1746.26,1153.25,1746.24,1153.05,1746.2,1152.64z
		 M2103.36,1274.13c-0.04-0.39-0.05-0.58-0.09-0.97c-1.09-0.69-1.63-1.03-2.72-1.71c-1.47-0.92-4.61-2.97-6.93-4.53
		c-2.34-1.55-6.24-4.15-8.69-5.73c-5.93-3.87-14-9.1-16.5-10.8c-6.2-4.21-13.07-8.86-17.06-11.8c-0.56-0.41-2.65-1.9-4.68-3.34
		c-4.5-3.16-4.83-3.4-10.37-7.62c-4.97-3.79-4.73-3.6-8.58-6.71c-3.95-3.18-10.86-9.11-13.49-11.58c-2.27-2.15-5.91-5.72-7.36-7.2
		c-12.42-12.78-24.04-29.58-29.76-43.39c-1.67-4.05-4.91-13.15-5.46-15.43c-0.09-0.38-0.29-1.08-0.45-1.54
		c-0.4-1.15-1.44-5.01-1.67-6.05c-0.11-0.48-0.5-2.15-0.89-3.73c-0.39-1.57-0.78-3.35-0.87-3.92c-0.11-0.58-0.61-2.98-1.11-5.32
		c-0.79-3.71-1.49-7.76-2.03-11.57c-0.29-2.01-1.58-11.97-1.81-13.83c-0.2-1.77-0.44-3.83-0.85-7.02c-0.13-1.01-0.35-2.7-0.47-3.75
		c-0.12-1.04-0.32-2.7-0.45-3.62c-0.22-1.68-0.47-3.57-0.89-6.75c-0.12-0.93-0.32-2.57-0.45-3.62c-0.24-2.03-0.56-4.82-0.91-7.37
		c-0.51-3.6-0.72-6.03-2.21-18.07c-0.12-1-0.33-2.64-0.45-3.62c-0.12-0.99-0.38-3.24-0.56-5.01c-0.18-1.77-0.38-3.56-0.45-3.98
		c-0.09-0.7-0.24-1.81-0.78-7.55c-0.1-1.03-0.33-3.36-0.51-5.11c-0.19-1.76-0.43-4.12-0.51-5.21c-0.12-1.62-0.25-2.16-0.69-2.84
		c-0.51-0.78-0.66-0.86-2.23-1.36c-2.04-0.65-3.01-0.63-3.61,0.05c-0.92,1.05-1.17,2.02-1.38,5.8c-0.42,7.61-0.69,11.24-0.87,13.4
		c-0.1,1.23-0.29,3.42-0.42,4.86c-0.13,1.42-0.29,2.98-0.36,3.42c-0.07,0.44-0.28,2.57-0.47,4.72c-0.19,2.14-0.44,4.55-0.54,5.32
		c-0.41,3.26-0.65,4.86-0.98,7.85c-0.65,5.82-0.82,7.18-1.03,8.16c-0.13,0.51-0.22,1.29-0.22,1.71c0,0.39-0.09,1.17-0.2,1.7
		c-0.25,1.16-0.59,3.53-1.05,7.41c-0.34,2.92-0.5,3.99-0.96,6.66c-0.34,2.01-0.67,4.19-0.91,6.07c-0.11,0.9-0.31,2.23-0.45,2.92
		c-0.24,1.34-0.59,3.4-0.89,5.1c-0.51,2.89-1.14,6.15-1.54,7.76c-0.24,0.97-0.6,2.43-0.8,3.24c-1.2,5.03-2.26,8.34-4.17,13.61
		c-0.45,1.24-2.12,4.98-3.43,7.68c-0.42,0.87-0.76,1.63-0.76,1.67c0,0.5-4.63,8.74-5.62,10.06c-0.34,0.45-0.62,0.89-0.62,0.96
		c0,0.1-0.58,0.88-1.27,1.8c-5.08,6.57-10.5,11.4-15.23,13.53c-7.25,3.25-13.49,4.32-24.08,4.3c-1.65,0-3.41,0.01-3.9,0.01
		c-0.49,0-1.45-0.02-2.12-0.04c-0.67-0.02-3.24-0.13-5.68-0.19c-2.44-0.06-4.86-0.12-5.35-0.16c-0.49-0.04-2.06-0.1-3.46-0.13
		c-1.39-0.04-3.12-0.12-3.79-0.14c-0.67-0.03-2.14-0.08-3.23-0.12c-1.11-0.05-3.17-0.15-4.57-0.22c-3.12-0.17-5.05-0.25-6.8-0.3
		c-1.82-0.06-6.99-0.45-10.37-0.81c-1.53-0.16-3.34-0.33-4.01-0.38c-0.67-0.05-4.99-0.68-9.59-1.35
		c-8.99-1.34-10.66-1.38-11.71-0.84c-1.2,0.62-2.19,2.22-2.3,3.73c-0.09,1.1-0.02,1.4,0.31,1.62c0.47,0.35,1.78,0.79,7.13,2.62
		c1.98,0.68,4.75,1.67,6.13,2.18c1.41,0.52,3.3,1.21,4.21,1.53c1.76,0.6,6.16,2.24,8.25,3.05c0.66,0.26,1.83,0.7,2.56,1
		c1.36,0.52,4.5,1.8,10.48,4.38c2.9,1.26,5.29,2.4,11.82,5.71c3.85,1.95,11.97,6.85,15.85,9.57c1.94,1.36,5.24,4.02,7.11,5.73
		c2.25,2.09,8.37,8.16,9.81,9.79c0.6,0.68,1.56,1.73,2.1,2.32c4.66,5.19,16.74,21.74,22.61,30.99c1.65,2.59,4.06,7.01,5.55,10.14
		c1.78,3.73,5.75,13.85,5.75,14.62c0,0.13,0.18,0.76,0.42,1.44c0.6,1.69,1.26,3.95,1.76,5.99c1.08,4.4,1.36,5.64,1.58,6.89
		c0.13,0.72,0.71,3.61,1.27,6.42c0.56,2.78,1.15,5.87,1.34,6.81c0.19,0.96,0.42,2.04,0.51,2.42c0.11,0.38,0.31,1.32,0.45,2.09
		c0.13,0.74,0.35,1.95,0.47,2.66c0.19,1.1,1.26,6.57,1.78,9.26c0.11,0.58,0.38,2.02,0.58,3.19c0.2,1.17,0.45,2.55,0.54,3.05
		c0.09,0.51,0.24,1.36,0.33,1.86c0.09,0.51,0.33,1.95,0.56,3.18c0.23,1.25,0.7,3.89,1.03,5.84c0.32,1.94,0.67,4.1,0.8,4.77
		c0.11,0.66,0.39,2.45,0.63,3.96c0.23,1.52,0.53,3.3,0.67,3.97c0.13,0.67,0.31,1.73,0.42,2.39c0.11,0.66,0.35,2.15,0.54,3.3
		c0.19,1.16,0.57,3.54,0.82,5.27c0.25,1.72,0.51,3.45,0.58,3.82c0.27,1.39,0.58,3.69,1,7.34c0.25,2.08,0.54,4.53,0.67,5.48
		c0.36,2.72,0.6,5.23,1.09,11.01c0.58,6.99,0.87,9.93,1.09,12.14c0.1,0.97,0.36,3.45,0.56,5.45c0.89,8.66,1.45,12.75,2.32,17.28
		c0.71,3.65,1.2,4.47,2.36,3.95c0.96-0.43,1.23-1.46,1.49-5.5c0.13-2.1,0.34-4.4,0.45-5.12c0.2-1.22,0.54-5.12,1.07-12.48
		c0.27-3.78,0.58-5.32,1.09-5.59c0.42-0.2,0.65-1.99,1.16-9.26c0.33-4.63,0.85-7.45,1.34-7.47c0.51-0.01,0.57-0.37,1.23-8.26
		c0.55-6.59,0.85-8.22,1.52-8.3c0.22-0.02,0.38-0.6,0.47-1.69c0.67-7.1,0.97-9.15,2.03-13.74c0.29-1.27,0.69-3.73,0.89-5.43
		c0.2-1.72,0.78-5.21,1.27-7.78c0.49-2.57,1.13-6.28,1.41-8.22c0.83-5.83,0.98-6.42,2.12-10.95c1.38-5.59,3.59-12.2,5.84-17.55
		c2.56-6.09,2.91-6.87,5.4-11.54c2.12-3.98,2.18-4.09,3.99-6.43c2.05-2.65,3.54-4.02,7.38-6.65c3.57-2.44,6.11-3.81,10.61-5.61
		c7.58-3.02,12.55-4.17,20.62-4.71c12.11-0.81,21.67,0.16,32.55,2.79c0.48,0.12,1.14,0.27,1.45,0.34c0.51,0.08,1.46,0.36,6.24,1.72
		c1.04,0.29,3.46,1.08,5.35,1.73c1.89,0.65,3.9,1.38,4.46,1.57c2.83,1,3.76,1.33,7.02,2.57c1.96,0.75,4.01,1.53,4.57,1.72
		c0.56,0.21,2.61,0.97,4.57,1.74c6.67,2.63,15.25,5.62,17.03,5.79C2103.27,1275.57,2103.47,1275.37,2103.36,1274.13z"/>
	<path d="M931.74,203.36c0,5.66-0.38,13.94-1.14,24.8c-0.77,10.89-1.16,19.16-1.16,24.79c0,8.83,0,13.23,0,22.04
		c0,3.88,0.39,8.36,0.58,12.88c0.21,4.95,0,8.18,0,9.04c0,32.28-7.66,49.38-22.98,51.5c-5.36,0.74-13.41-3.33-24.12-12.56
		c-10.72-9.23-18.96-13.9-24.7-13.7c-6.52,3.46-9.77,10.16-9.77,20.06c0,25.21,0.19,62.8,0.58,112.05
		c0.37,49.25,0.58,85.7,0.58,110.02c0,8.25,1.23,20.22,3.74,35.78c2.49,15.55,3.72,27.1,3.72,34.79c0,26.12-11.68,44.87-35.03,56.33
		c-4.99,2.62-26.41,9.22-64.32,18.56c-7.82,1.92-11.72,2.19-19.54,2.9c-12.25-6.37-18.37-20.08-18.37-41.07
		c0-1.78,0.19-6.71,0.56-14.79c0.37-8.07,0.58-13.48,0.58-16.17c0-0.9-0.2-2.68-0.58-5.36c0-2.15,0-3.23,0-5.39
		c0-6.75,0.59-18.29,1.73-34.65c1.53-21.83,2.41-38.18,2.86-48.64c1.63-38.24,4.78-95.42,8.61-172.51
		c-1.53-3.27-1.74-10.73-1.14-21.98c0.5-9.36-1.53-16.11-5.74-19.86c-7.28,0.13-16.76,6.84-28.43,20.1
		c-11.69,13.26-20.96,19.89-27.85,19.97c-11.11,0.13-16.66-16.4-16.66-49.97c0-0.96,0.39-4.26,0.58-9.37c0.19-5.08,0-10.08,0-14.4
		c0-19.93,0-29.94,0-50.02c0-4.36,0.19-9.65,0-15.29c-0.19-5.65-0.58-9.49-0.58-10.97c0-31.16,6.29-50.35,10.91-56.51
		c3.89-5.18,44.23-10.65,122.34-11.57c74.27-0.87,118.49,1.94,132.65,8.25C927.73,166.26,931.74,179.89,931.74,203.36z
		 M1256.22,185.05c0-16.07-2.88-26.98-8.63-32.92c-3.06-2.65-9.94-3.91-20.66-3.76c-9.57,0.13-24.88,2.02-45.95,5.96
		c-19.15,3.57-30.43,6.62-33.87,8.91c-7.28,4.6-10.93,14.19-10.93,28.7c0,5.95,1.06,14.71,3.17,26.25
		c2.09,11.53,3.16,20.23,3.16,26.14c0,1.12-0.2,4.1-0.58,8.95c-0.39,4.87-0.58,8.04-0.58,9.52c0,11.87-1.5,20.36-4.6,25.06
		c-4.01,6.09-12.05,9.99-23.54,11.52c-14.18,1.88-27.04-1.01-29.29-6.07c-3.13-7.06-1.72-21.67-1.72-31.44
		c0-7.82,0.28-19.79,0.86-35.86c0.56-16.07,0.86-28.01,0.86-35.81c0-13.68-0.2-21.69-0.58-24.03c-1.92-6.21-4.22-10.28-6.89-12.22
		c-1.92-0.75-4.1-2.33-5.74-2.87c-2.83-0.92-9.58-0.46-17.24-0.36c-25.65,0.35-49.77,5.3-72.35,15.58c-1.84,0.8-2.76,1.2-4.6,2.01
		c-3.08,1.36-4.8,2.25-5.17,2.68c-6.89,5.74-10.33,14.66-10.33,26.63c0,1.54,0,2.3,0,3.84c3.05,9.25,4.97,14.66,5.74,16.31
		c6.13,20.47,9.19,44.79,9.19,73.31c0,73.41-2.88,185.45-8.61,334.25c2.06,4.54,3.09,6.8,5.16,11.3c2.69,6.38,8.05,8.98,16.08,7.83
		c0.38-0.11,7.47-2.3,21.26-6.59c8.8-2.74,21.25-7.63,37.32-14.64c19.51-8.5,30.24-15.35,32.17-20.65
		c4.6-13.53,6.89-30.75,6.89-51.78c0-7.01-0.39-17.41-1.16-31.24c-0.77-13.83-1.14-24.28-1.14-31.31c0-15.22,0.19-23.85,0.56-25.89
		c1.53-11.69,5.94-18.9,13.22-21.72c0.75-0.54,5.74-1.87,14.93-3.94c1.91-0.43,3.44-0.96,4.6-1.61c2.07-0.46,3.1-0.7,5.17-1.16
		c5.74-1.29,11.1,3.36,16.07,13.79c0,15.27,0,22.91,0,38.19c0,4.5-0.38,12.83-1.14,25.03c-0.77,12.23-1.16,16.65-1.16,13.28
		c0,34.56,2.67,59.32,8.05,64.03c3.76,3.29,13.21,3.16,21.24,0.64c0.77-0.24,2.3-0.72,4.6-1.44c2.3-0.72,3.64-1.14,4.03-1.26
		c-1.92,0.6,0.94-0.3,8.61-2.69c15.3-4.77,34.25-13.8,56.85-26.68c10.35-5.98,15.5-16.39,15.5-31.27c0-3.9-0.19-8.8-0.56-14.71
		c-2.31-37.2-3.44-79.35-3.44-125.91c0-22.59,0.83-56.53,2.56-100.95C1255.36,239.56,1256.22,206.84,1256.22,185.05z M1531.87,369.1
		c-3.83-4.45-7.46-6.62-10.91-6.52c-4.22,0.13-18.18,4.55-41.92,13.93c-23.74,9.39-41.54,16.36-53.41,18.71
		c-9.19,1.82-15.71,1.71-19.52-0.39c-5.75-3.31-8.63-11.06-8.63-23.13c0-19.05,3.83-29.06,11.49-30.35
		c6.5,1.7,14.94,3.85,25.27,6.42c16.46,3.99,30.43,6.84,41.92,6.38c5.36-0.22,10.4-3.47,14.94-9.66c3.82-5.22,6.11-10.15,6.89-14.68
		c0-2.7,0-4.05,0-6.74c0-4.77,0.37-12.04,1.14-21.68c0.77-9.64,1.16-16.76,1.16-21.45c0-9.38-1.14-15.6-3.42-18.77
		c-3.78-5.17-10.78-7.67-21.01-7.48c-6.83,0.12-17.99,2.1-33.51,9c-15.52,6.89-26.13,10.87-31.81,11.56
		c-3.03,0.37-6.06-0.17-9.08-1.64c-2.66-7.9-3.99-14.61-3.99-20.06c0-11.83,7.03-19.71,21.08-23.58c1.91,0.14,10.25-0.45,25.07-1.69
		c9.5-0.8,21.93,2.28,37.31,8.1c15.38,5.83,26.51,8.72,33.34,8.65c18.24-0.2,27.35-11.07,27.35-32.25c0-9.03-0.69-16.87-2.3-23.17
		c-1.06-4.13-1.72-7.1-1.72-8.77c-1.53-17.81-7.16-28.56-14.93-29.82c-29.5-4.78-58.97-3.38-78.12-3.14
		c-1.53,0.02-5.94-0.13-13.21-0.46c-7.27-0.34-12.05-0.49-14.35-0.46c-22.74,0.27-34.12,0.41-56.86,0.69
		c3.06-0.04-1.92,0.32-14.93,1.1c-26.43,1.59-45.37,6.44-56.86,14.84c-3.44,5.92-5.17,12.35-5.17,19.2c0,7.52,2.48,17.71,7.47,30.42
		c5.36,13.65,8.03,23.8,8.03,30.67c-1.38,51.28-2.06,77.37-3.44,130.41c-1.53,57.25-2.3,101.64-2.3,131.79
		c0,22.88,8.22,34.15,24.7,33.58c8.42-0.34,27.57-4.84,57.42-12.92c53.61-14.51,89.4-20.59,107.39-22.05
		c1.92-0.16,3.64-0.29,5.17-0.41c1.84-0.14,2.76-0.22,4.6-0.36c11.49-0.88,22.01-3.53,31.59-7.94
		c9.96-13.69,14.93-36.25,14.93-67.23c0-2.48,0.38-7.93,1.16-16.26c0.77-8.34,1.14-13.7,1.14-16.14c0-3.97-0.57-8.25-1.72-12.77
		C1538.19,378.03,1535.7,373.54,1531.87,369.1z"/>
	<path d="M270.13,918.05c8.24-7.48,14.12-14.72,17.34-21.42c5.45-11.54,8.18-25.6,8.18-42.05c0-41.65-15.53-73.37-45.76-96.75
		c-19.89-15.38-51.54-29.71-94.89-46.93c-24.73-9.82-47.68-16.27-68.87-19.49c-4.05-0.62-6.07-0.95-10.12-1.65
		c-9.96,0.15-14.93,5.49-14.93,16.48c0,6.48,2.16,17.06,6.5,31.87c4.34,14.83,6.5,25.24,6.5,31.13
		c-0.58,35.18-0.87,52.74-1.45,87.81c-0.65,34.51-0.96,63.78-0.96,87.9c0,53.46,1.35,86.88,3.85,100.25
		c3.27,17.43,27.94,46.1,74.17,74.94c44.32,27.65,79.34,34.67,105.01,26.96c31.13-9.35,46.72-39.63,46.72-86.38
		c0-48.21-16.7-88.79-50.09-124.11C254.24,932.96,260.5,926.79,270.13,918.05z M177.65,823.54c1.6,0.68,7.63,4.58,11.56,10.59
		c4.48,6.86,5.78,18.02,5.78,26.1c0,14.77-5.95,19.71-17.82,14.38c-9.32-4.19-13.97-13.33-13.97-27.19
		C163.2,827.33,168.01,819.46,177.65,823.54z M178,1017.26c-3.28-1.68-6.24-3.74-8.88-6.18c-3.95-6.93-5.92-14-5.92-21.24
		c0-2.06,0.41-6.23,1.23-12.53c0.82-6.28,1.23-10.3,1.23-12.03c2.63-1.73,5.92-1.63,9.88,0.33c1.31,0.65,3.77,2.12,7.39,4.4
		c3.62,2.27,5.76,3.55,6.42,3.86c5.92,8.02,9.53,13.17,10.85,15.53c1.98,4.06,2.96,9.59,2.96,16.6
		C203.18,1021.74,194.79,1025.88,178,1017.26z M420.4,910.44c0,6.68,1.11,15.15,3.34,25.41c2.53,2.51,5.08,3.9,7.62,4.18
		c4.76,0.52,13.65-1.74,26.67-7.18c13.02-5.42,22.38-8.16,28.1-7.86c8.57,0.44,14.45,3.99,17.62,10.75
		c1.91,4.13,2.86,12.09,2.86,23.88c0,5.9-0.32,14.81-0.96,26.7c-0.65,11.91-0.96,20.78-0.96,26.62c0,3.29,0,4.93,0,8.21
		c-0.65,5.45-2.56,11.28-5.78,17.34c-3.82,7.18-8.03,10.68-12.52,10.49c-9.64-0.41-21.36-5.07-35.16-14.29
		c-8.67-5.87-15.74-10.81-21.19-14.72c-6.43-0.72-9.64,9.87-9.64,31.77c0,13.87,2.41,23.63,7.23,29.26
		c3.2,3.64,8.67,5.89,16.37,6.61c9.95,0.92,24.9-2.78,44.8-11.82c19.9-9.04,31.63-14.05,35.16-14.05c2.89,0,5.94,2.69,9.15,8.06
		c3.21,5.37,5.3,10.72,6.27,16.09c0.96,5.39,1.44,10.39,1.44,15.05c0,2.88-0.32,9.15-0.96,18.83c-0.65,9.68-0.96,15.92-0.96,18.76
		c0,35.66-4.18,60.68-12.53,75.42c-8.03,4.47-16.86,6.76-26.48,6.72c-1.54-0.01-2.31-0.01-3.85-0.02c-1.29-0.01-2.74-0.03-4.34-0.05
		c-15.1-0.22-45.12-0.53-90.08-7.23c-25.05-3.73-41.11-8.52-48.16-12.29c-13.81-7.44-20.71-23.29-20.71-46.96
		c0-31.21,0.64-77.04,1.92-138.16c1.16-56.64,1.73-85.16,2.89-142.62c0-7.73-2.25-20-6.74-36.84c-4.17-15.64-6.26-27.73-6.26-36.24
		c0-7.78,1.45-14.67,4.34-20.76c9.63-7.3,25.52-9.62,47.68-7.75c10.92,0.92,15.09,1.09,12.53,0.73c19.07,2.69,28.61,3.81,47.69,5.67
		c1.92,0.19,5.93,0.85,12.03,1.96c6.1,1.1,9.79,1.66,11.08,1.76c16.05,1.24,42.6,1.3,65.5,7.85c6.37,1.82,11.24,16.83,12.53,40.78
		c0,2.26,0.55,6.24,1.45,11.81c1.36,8.48,1.92,18.86,1.92,30.75c0,27.89-7.64,41.79-22.94,41.46c-5.74-0.12-15.06-4.24-27.96-12.66
		c-12.9-8.44-23.33-13.11-31.29-13.75c-12.43-0.99-19.44-1.92-21.03-2.44C426.3,887.79,420.4,895.98,420.4,910.44z M794.65,940.58
		c1.28,1.48,1.92,5.51,1.92,12.06c0,3.43-2.95,14.74-5.78,31.66c-4.77,28.47-5.3,59.17-5.3,86.97c0,45.56-0.28,77.6-4.81,88.56
		c-3.7,8.95-16.22,17.44-30.34,21.21c-2.25,0.6-6.93,1.59-13.97,2.9c-7.06,1.31-11.57,2.16-13.49,2.63
		c-5.47,1.33-13.72,4.31-24.8,8.78c-11.08,4.47-19.35,7.18-24.8,8.28c-64.86,13.01-100.84-32.75-107.89-132.12
		c-1.61-22.16-2.41-42.17-2.41-59.94c0-97.13,23.12-165.8,69.35-204.98c8.99-7.52,22.18-14.21,39.5-20.28
		c16.03-5.62,30.03-9.02,41.9-10.14c23.13-2.19,40.14-1.38,51.06,2.18c7.38,2.36,11.08,23.52,11.08,62.85
		c0,15.22-0.04,32.74-4.35,44.11c-3.63,9.58-12.68,16.86-19.74,18.88c-7.71,2.2-18.63-2.24-32.76-11.07
		c-14.13-8.85-24.4-13.16-30.82-12.47c-21.83,2.33-32.74,32.5-32.74,89.67c0,2.14-0.25,6.81-0.73,13.99
		c-0.47,7.18-0.72,11.83-0.72,13.96c0,1.44,0.25,4.33,0.72,8.71c0.48,4.38,0.73,6.92,0.73,7.62c1.59,17.51,3.2,29.42,4.81,35.86
		c3.53,13.2,9.94,21.53,19.26,24.89c1.93-0.31,2.9-0.46,4.83-0.78c6.1-1,12.2-4.59,13.96-9.07c2.66-6.79,2.41-17.14,2.41-24.78
		c0-25.28-6.1-42.32-18.3-51.28c-0.64-4.14-0.95-7.28-0.95-9.4c0-10.26,3.85-17.32,11.55-21.17c11.55-5.78,25.85-9.88,42.87-12.59
		c17.33-2.76,33.56-6.16,48.66-7.4C790,938.53,793.38,939.11,794.65,940.58z M925.16,1011.49c1.28,36.05,1.94,63.07,1.94,81.38
		c0,6.54-0.48,10.49-1.45,11.86c-9.32,17.79-26.65,30.82-52.02,38.51c-15.03,4.54-22.54,6.73-37.57,10.95
		c-7.06-1.38-11.39-7.06-13-17.01c0-10.64,0-15.98,0-26.68c0-1.66-0.16-3.08-0.47-4.29c0-1.79,0-2.69,0-4.48
		c0-6.61,0.16-12.98,0.47-19.07c0.39-7.51,0.58-11.28,0.97-18.82c0-6.01,1.28-59.09,1.92-162.04c0.04-7.19-0.12-20.36,0.48-38.59
		c0.21-6.26,0.83-10.26,0.97-11.27c0.84-5.93-2.17-16.91-6.5-29.97c-4.34-13.05-6.5-23.39-6.5-30.83c0-1.91,0-2.86,0-4.77
		c6.1-12.43,15.08-21.79,26.96-28.15c13.3-7.15,19.95-10.76,33.24-17.99c8.99-4.85,16.21-8.13,21.66-9.83
		c13.49-4.21,21.88-2.53,25.05,4.99c3.55,8.43,5.3,31.08,5.3,67.47c0,13.96-0.56,35.11-1.69,63.37c-1.13,28.25-1.69,49.18-1.69,62.9
		C923.24,947.87,923.88,975.44,925.16,1011.49z M1198.28,644.73c0.33,3.58,0.47,10.51,0.47,20.75c0,14.89-0.68,33.93-1.92,57.12
		c-1.32,24.76-2.25,44.22-2.41,57.68c-0.17,14.57-0.33,41.06-0.97,79.22c-0.77,34.98-1.15,52.55-1.92,87.8
		c0,31.48-5.15,51.62-15.41,60.17c-12.8,10.66-31.96,21.55-57.32,32.65c-11.25,4.93-21,8.11-28.9,9.76
		c-4.46,0.93-8.36-3.64-11.57-13.93c-4.81-15.05-7.22-22.59-12.04-37.71c-4.81-15.51-13.97-42.01-27.46-80.16
		c-0.64-1.7-2.25-3.34-4.81-4.93c-2.25,5.82-3.38,12.66-3.38,20.5c0,2.28,0.32,7.65,0.97,16.02c0.65,8.38,0.97,13.86,0.97,16.48
		c0,3.72,0,5.57,0,9.29c-0.33,2.75-0.48,5.75-0.48,9c0,7.83,0.8,19.14,2.41,33.9c1.59,14.75,2.41,26,2.41,33.79
		c0,2.91-1.38,7.16-4.09,12.71c-2.74,5.56-5.38,9.37-7.96,11.46c-8.02,6.7-20.07,13.53-36.12,20.34
		c-9.32,3.95-16.85,5.98-22.63,6.12c-7.39,4.07-11.88,0.72-13.49-10.03c0.31,1.82,0.48-6.72,0.48-25.7
		c0-28.47,1.28-71.66,3.84-130.11c2.58-58.45,3.86-102.55,3.86-131.83c0-6.04-2.02-14.67-6.02-25.94
		c-4.02-11.27-6.03-20.37-6.03-27.17c0-5.09,0.97-10.18,2.89-15.26c8.03-9.48,18.32-18.03,30.84-25.54
		c11.5-6.9,32.49-18.1,60.69-28.88c13.36-5.11,23.43-4.5,27.93,0.78c2.89,3.55,7.06,16.36,12.52,38.22
		c1.92,9.62,4.99,24.15,9.63,42.73c4.27,17.1,10.77,35.31,18.79,54.15c1.61,0.33,3.2,0.16,4.81-0.47c1.28-0.51,2.09-0.99,2.42-1.44
		c1.92-10.34,2.88-19.96,2.88-28.89c0-6.69-0.47-14.01-1.44-21.93c-4.5-36.88-6.74-62.15-6.74-75.57c0-13.09,4.64-22.67,13.96-28.72
		c15.74-10.47,33.89-19.1,54.44-25.99c0.63-0.21,1.92-0.34,3.85-0.37C1193.61,634.84,1197.67,638.18,1198.28,644.73z
		 M1472.84,564.68c0.33,3.3,0.47,9.6,0.47,18.91c0,13.53-0.68,30.78-1.92,51.88c-1.32,22.55-2.25,40.53-2.41,53.03
		c-0.17,13.6-0.33,38.33-0.97,74.53c-0.77,33.16-1.15,49.97-1.92,84.09c0,30.59-5.15,49.53-15.41,56.32
		c-12.8,8.47-31.96,17.27-57.31,25.89c-11.25,3.83-21,6.19-28.9,7.25c-4.45,0.6-8.36-4.16-11.57-14.4
		c-4.81-14.98-7.22-22.42-12.04-37.23c-4.81-15.19-13.97-41.11-27.46-77.3c-0.64-1.62-2.25-3.19-4.81-4.71
		c-2.25,5.45-3.38,11.89-3.38,19.29c0,2.16,0.32,7.24,0.97,15.19c0.65,7.96,0.97,13.2,0.97,15.69c0,3.54,0,5.31,0,8.86
		c-0.33,2.62-0.48,5.49-0.48,8.59c0,7.49,0.8,18.35,2.41,32.63c1.59,14.27,2.41,25.23,2.41,32.81c0,2.83-1.38,6.92-4.09,12.24
		c-2.74,5.33-5.38,8.98-7.96,10.94c-8.02,6.32-20.07,12.68-36.12,19.23c-9.32,3.8-16.85,5.81-22.63,5.99
		c-7.39,4.03-11.88,0.83-13.49-9.6c0.31,1.77,0.48-6.57,0.48-24.92c0-27.52,1.28-69.1,3.84-124.06
		c2.58-54.96,3.86-95.42,3.86-122.13c0-5.51-2.02-13.31-6.02-23.39c-4.02-10.08-6.03-18.21-6.03-24.33c0-4.59,0.97-9.21,2.89-13.84
		c8.03-8.82,18.32-16.84,30.84-23.91c11.51-6.49,32.46-17.03,60.69-26.86c13.44-4.68,23.43-4.1,27.93,0.65
		c2.89,3.18,7.06,14.64,12.52,34.5c1.92,8.73,5,21.98,9.63,39.09c4.27,15.77,10.77,32.75,18.79,50.65c1.61,0.38,3.2,0.29,4.81-0.22
		c1.28-0.41,2.09-0.82,2.42-1.23c1.92-9.55,2.88-18.44,2.88-26.71c0-6.2-0.47-12.97-1.44-20.31c-4.5-34.13-6.74-56.97-6.74-69.06
		c0-11.8,4.64-20.3,13.96-25.48c15.74-8.99,33.89-18.04,54.44-20.28c0.63-0.07,1.92,0.06,3.84,0.41
		C1468.16,554.81,1472.22,558.62,1472.84,564.68z M1602.86,781.67c1.28,31.71,1.94,56.01,1.94,72.44c0,5.88-0.48,9.31-1.45,10.31
		c-9.32,13.72-26.65,21.43-52.02,24.08c-15.03,1.56-22.54,2.48-37.57,4.55c-7.06-2.17-11.39-7.99-13-17.46c0-9.93,0-14.88,0-24.73
		c0-1.53-0.16-2.85-0.47-4c0-1.64,0-2.47,0-4.11c0-6.06,0.16-11.85,0.47-17.34c0.39-6.77,0.58-10.15,0.97-16.88
		c0-5.41,1.29-54.57,1.92-139.79c0.04-5.97-0.13-16.93,0.48-31.69c0.21-5.05,0.83-8.27,0.97-9.02c0.83-4.57-2.17-14.01-6.5-25.05
		c-4.35-11.03-6.5-19.47-6.5-25.32c0-1.5,0-2.25,0-3.75c6.1-8.96,15.08-15.03,26.96-18.16c13.3-3.54,19.95-5.23,33.24-8.45
		c8.99-2.15,16.21-3.3,21.66-3.54c13.49-0.61,21.88,2.53,25.05,9.13c3.55,7.37,5.3,25.45,5.3,54.68c0,11.21-0.56,28.13-1.69,51.1
		c-1.13,22.97-1.69,40.39-1.69,51.96C1600.94,726.43,1601.58,749.96,1602.86,781.67z M1875.98,577.95
		c0.33,3.31,0.47,9.51,0.47,18.54c0,13.14-0.69,29.63-1.92,49.42c-1.32,21.17-2.25,37.94-2.41,49.66
		c-0.17,12.88-0.33,36.18-0.97,69.7c-0.77,30.63-1.15,46.03-1.92,77c0,28.1-5.17,42.75-15.41,43.95c-12.81,1.51-31.96-0.5-57.31-4.2
		c-11.25-1.64-20.94-3.72-28.9-6.14c-4.44-1.35-8.36-7.28-11.57-17.88c-4.81-15.55-7.22-23.28-12.04-38.66
		c-4.81-15.72-13.97-42.97-27.46-80.89c-0.64-1.71-2.25-3.74-4.81-6.09c-2.25,4.08-3.38,9.49-3.38,16.19
		c0,1.95,0.31,6.66,0.97,14.12c0.64,7.46,0.97,12.32,0.97,14.58c0,3.21,0,4.82,0,8.03c-0.33,2.25-0.48,4.79-0.48,7.61
		c0,6.79,0.8,16.94,2.41,30.51c1.59,13.56,2.41,23.82,2.41,30.7c0,2.57-1.38,5.76-4.09,9.58c-2.74,3.82-5.38,6.17-7.96,7.02
		c-8.02,2.82-20.07,4.3-36.12,4.98c-9.32,0.39-16.85-0.15-22.63-1.8c-7.39,1.4-11.88-2.9-13.49-13c0.31,1.72,0.48-5.93,0.48-22.78
		c0-25.27,1.28-62.95,3.85-111.76c2.58-48.81,3.86-84.43,3.86-108.15c0-4.89-2.02-12.44-6.02-22.54
		c-4.02-10.1-6.03-17.83-6.03-23.21c0-4.03,0.97-7.81,2.89-11.33c8.03-5.45,18.33-9.53,30.84-11.99c11.51-2.26,32.85-5.2,60.69-4.5
		c13.62,0.34,23.43,4.43,27.93,10.39c2.89,3.95,7.06,15.93,12.52,36.22c1.92,8.74,5.01,22.12,9.63,39.62
		c4.29,16.28,10.77,34.45,18.79,54.34c1.61,1.04,3.2,1.66,4.81,1.89c1.28,0.18,2.09,0.16,2.42-0.07c1.92-7.93,2.88-15.72,2.88-23.34
		c0-5.72-0.47-12.18-1.44-19.37c-4.5-33.48-6.74-55.56-6.74-66.79c0-10.96,4.64-17.06,13.96-18.18c15.74-2.12,33.89-1.46,54.44,2.42
		c0.63,0.12,1.92,0.63,3.84,1.54C1871.3,566.87,1875.36,571.84,1875.98,577.95z M2133.65,829.66c0,3.17-3.13,11.86-5.78,23.71
		c-4.99,22.29-5.3,49.69-5.3,75.83c0,42.84-0.75,74.43-4.81,79.02c-2.7,3.05-16.22-1.14-30.34-11.07
		c-2.25-1.58-6.92-5.11-13.97-10.31c-7.06-5.2-11.57-8.31-13.49-9.54c-5.47-3.51-13.72-7.82-24.81-12.56
		c-11.08-4.74-19.35-8.38-24.8-11.32c-64.86-34.96-100.83-84.51-107.89-165.1c-1.61-17.98-2.41-33.79-2.41-47.53
		c0-75.08,23.12-120.1,69.35-133.48c8.99-2.53,22.18-2.85,39.5-0.43c16.04,2.24,30.02,5.87,41.9,10.67
		c23.13,9.36,40.14,19.88,51.06,30.65c7.38,7.23,11.08,28.27,11.08,62.89c0,13.4-0.29,29.68-4.35,35.44
		c-2.89,4.1-12.68,4.51-19.74,0.7c-7.71-4.16-18.63-14.54-32.76-30.28c-14.13-15.75-24.4-24.52-30.82-27.25
		c-21.84-9.27-32.75,9.83-32.75,56.15c0,1.73-0.26,5.4-0.73,10.98c-0.48,5.59-0.72,9.26-0.72,11c0,1.17,0.25,3.66,0.72,7.49
		c0.48,3.84,0.73,6.05,0.73,6.63c1.59,15.2,3.2,25.98,4.81,32.25c3.53,12.98,9.94,23.72,19.26,32.5c1.93,0.97,2.9,1.45,4.83,2.44
		c6.1,3.1,12.56,3.49,13.96,1.48c2.48-3.56,2.41-13.17,2.41-19.73c0-21.73-6.1-40.25-18.3-54.78c-0.64-3.82-0.95-6.61-0.95-8.37
		c0-8.52,3.85-12.24,11.55-10.98c11.56,1.89,25.85,7.08,42.87,16.22c17.33,9.31,33.56,20.3,48.66,32.86
		c5.45,4.66,8.83,8.35,10.11,10.9C2133.01,819.3,2133.65,823.62,2133.65,829.66z"/>
	<path d="M1042.4,1151.94c-16.05-9.38-39.56-7.27-70.49,5.8c-54.64,23.09-93.48,65.24-116.35,126.75
		c-22.19,59.71-33.25,120.03-33.25,180.81c0,6.44,0.94,18.46,2.86,35.89c6.84,62.2,29.04,98.66,66.49,111.64
		c15.29,5.46,35.53,4.41,60.75-3.55c29.79-9.4,52.91-22.14,69.35-38.35c53.49-52.57,80.23-135.89,80.23-245.83
		c0-45.96-3.02-80.36-9.16-102.92C1084.1,1190.04,1067.24,1166.64,1042.4,1151.94z M997.48,1388.27c0,16.03-1.58,28.74-4.6,38.06
		c-4.63,14.31-13.97,24.2-28.13,29.48c-14.94,5.57-24.9,0.45-29.87-15.23c-2.69-8.15-4.02-22.08-4.02-41.94
		c0-42.29,3.79-70.13,11.49-82.82c5.68-9.36,12.05-15.48,18.94-18.29c24.12-9.82,36.18,6.61,36.18,49.28
		C997.48,1363.42,997.48,1371.71,997.48,1388.27z M1185.86,1533.25c-0.57,0.18-0.76,0.23-0.78,0.21
		C1185.4,1533.39,1185.66,1533.32,1185.86,1533.25z M1221.46,1048.94c-0.03,0.01-0.06,0.02-0.09,0.04
		C1220.9,1049.18,1220.92,1049.17,1221.46,1048.94z M1373.07,1089.84c0,29.53-0.19,45.58-0.56,47.69
		c-2.69,20.45-11.69,33.38-26.99,38.9c-8.82,3.18-19.74,2.57-32.74-1.63c-16.43-5.3-26.99-7.82-31.59-7.99
		c-0.77,0.3-2.88,0.84-6.31,1.6c-3.44,0.78-5.74,1.39-6.89,1.85c-4.6,1.83-7.76,6.63-10.33,10.02c-2.68,3.54-6.31,13.52-6.32,29.65
		c0,18.51-0.21,35.64,2.3,38.76c1.59,1.98,8.61,1.99,13.21,0.21c4.97-1.92,13.21-9.25,24.7-21.96
		c11.47-12.72,20.29-20.2,26.41-22.48c13.39-4.97,21.26,7.54,23.55,37.81c0.37,4.71,0.56,20.97,0.56,49.09
		c0,21.59-0.95,36.29-2.86,43.9c-4.22,16.59-14.87,29.21-28.73,32.45c-1.7,0.4-4.22,0.22-6.89-0.09
		c-6.89-1.3-18.38-6.72-34.45-15.82c-0.39-0.25-1.36-0.12-2.88,0.43c-1.16,0.42-4.6,5.1-10.35,14c-0.77,8.31-1.14,15.29-1.14,20.91
		c0,14.9,1.72,34.23,5.17,58.24c2.67,18.59,4.02,30.83,4.02,36.55c0,4.5-0.58,7.96-1.72,10.36c-2.3,9.31-21.11,20.27-56.28,33.25
		c-14.06,5.19-20.96,7.82-20.88,7.91c-0.98,0.24-2.54,0.56-4.68,0.96c-2.87,0.54-4.7,0.95-5.46,1.19
		c-16.08,5.25-26.81,5.82-32.17,1.74c-4.99-12.37-7.47-28.99-7.47-49.95c0-6.59,0.3-16.79,0.86-30.56
		c0.58-13.78,0.88-23.98,0.88-30.57c0-7.67,0-11.51,0-19.18c0-3.49,0.19-7.58,0-11.62c-0.19-3.94-0.58-6.56-0.58-7.33
		c0-14.32,0.66-35.76,2-64.33c1.34-28.57,2.02-49.99,2.02-64.29c0-5.78-0.28-14.36-0.86-25.67c-0.58-11.32-0.86-19.87-0.86-25.65
		c0-36.2-3.45-61.42-10.35-75.67c0-15.36,3.25-26.76,9.77-34.23c12.25-14.2,39.96-30.97,83.19-49.33
		c3.21-1.34,29.87-12.42,79.91-31.05c35.18-13.09,55.24-18.22,60.02-16.86c4.78,1.37,7.56,4.24,8.33,8.61
		C1371.93,1020.46,1373.07,1046.91,1373.07,1089.84z"/>
	<path d="M293.12,1703.48c2.3,10.18,3.44,32.86,3.44,67.73c0,23.99-0.19,36.66-0.56,38.21c-2.69,15.18-11.69,21.72-26.99,19.31
		c-8.82-1.39-19.73-6.85-32.74-16.81c-16.44-12.57-26.99-20.61-31.59-23.3c-0.77-0.17-2.86-0.88-6.31-2.15
		c-3.44-1.28-5.74-2.06-6.89-2.33c-4.6-1.05-8.3,1.54-10.33,2.75c-2.38,1.41-6.31,8.15-6.31,22.22c0,16.14-0.21,30.5,2.3,34.89
		c1.98,3.46,8.61,6.21,13.21,7.03c4.97,0.89,13.21-1.23,24.69-6.22c11.49-4.99,20.29-6.94,26.41-5.93
		c13.39,2.2,21.26,15.86,23.55,40.83c0.37,3.9,0.56,16.91,0.56,38.9c0,16.91-0.95,27.92-2.86,33.17
		c-4.22,11.43-15.18,17.73-28.73,15.52c-1.78-0.29-4.2-1.3-6.89-2.49c-6.88-3.49-18.37-11.89-34.45-26.06
		c-0.39-0.37-1.34-0.64-2.88-0.81c-1.14-0.13-4.59,2.33-10.33,7.48c-0.78,6.71-1.16,12.43-1.16,17.18c0,12.53,1.72,29.47,5.17,50.46
		c2.67,16.26,4.02,26.63,4.02,31.3c0,3.68-0.58,6.35-1.72,8c-2.3,7-21.1,11.08-56.28,12.49c-14.1,0.56-20.99,0.92-20.87,1.02
		c-0.97-0.07-2.53-0.23-4.68-0.5c-2.88-0.37-4.69-0.55-5.45-0.55c-16.08-0.02-26.81-2.81-32.17-8.51
		c-4.97-13.62-7.46-30.87-7.46-51.38c0-6.47,0.28-16.32,0.86-29.56c0.56-13.23,0.86-23.05,0.86-29.51c0-7.51,0-11.26,0-18.77
		c0-3.42,0.18-7.4,0-11.38c-0.19-4.05-0.58-6.73-0.58-7.5c0-14.04,0.68-34.73,2.02-61.89c1.34-27.16,2-47.67,2-61.68
		c0-5.67-0.28-14.26-0.86-25.8c-0.58-11.55-0.86-20.17-0.86-25.87c0-35.62-3.44-63.24-10.33-83.42c0-15.3,3.24-23.82,9.75-25.46
		c12.25-3.25,40.01,5.34,83.28,21.04c-4.22-1.53,22.47,10.07,79.82,27.07c35.21,10.43,55.24,16.16,60.02,19.81
		C289.57,1695.63,292.36,1699.44,293.12,1703.48z M108.57,2065.86c0.02,0.02,0.21,0.03,0.77,0.03
		C109.16,2065.9,108.9,2065.89,108.57,2065.86z M593.5,1808.84c6.13,19.92,9.17,47.92,9.17,83.12c0,84.19-26.74,136.04-80.24,161.93
		c-16.43,7.98-39.54,12.01-69.35,12.01c-25.21,0-45.47-4.09-60.74-12.58c-37.45-20.51-59.65-58.95-66.49-115.31
		c-1.92-15.78-2.86-26.55-2.86-32.12c0-52.56,11.04-99.63,33.23-139.74c22.85-41.31,61.72-57.91,116.35-54.37
		c30.95,2.01,54.45,9.27,70.51,22.84C567.9,1755.79,584.76,1780.45,593.5,1808.84z M498.16,1873.74c0-33.73-12.07-51.39-36.18-52.84
		c-6.89-0.41-13.29,2.04-18.96,7.38c-7.66,7.22-11.49,28.45-11.49,62.7c0,16.09,1.34,27.84,4.03,35.33
		c4.97,14.39,14.93,21.77,29.85,22.28c14.16,0.48,23.52-4.26,28.15-13.91c3.01-6.27,4.6-15.69,4.6-28.28
		C498.16,1893.41,498.16,1886.87,498.16,1873.74z M918.52,1934.53c3.06,10.32,4.6,20.71,4.6,31.02c0,26.65-5.14,49.05-15.5,66.49
		c-13.72,23.09-34.45,33.87-62.02,33.87c-9.58,0-17.43-1.34-23.54-3.99c-19.16-7.9-32.33-21.21-37.92-39.55
		c-3.23-10.59-7.85-27.24-14.35-49.02c-0.39-0.25-2.5-2.87-6.31-7.82c-2.69-3.28-5.75-4.74-9.19-4.42
		c-5.38,0.5-8.74,4.46-10.35,12.15c-0.72,3.43-1.14,8.35-1.14,14.63c0,5.14,0.57,12.76,1.72,22.77c1.15,9.99,1.72,17.49,1.72,22.49
		c0,6.98-0.54,12.43-1.72,16.24c-2.21,7.16-16.85,10.77-43.64,10.78c-2.3,0-8.15,0.27-17.52,0.82c-9.38,0.55-15.41,0.83-18.1,0.83
		c-15.32,0-23.74-3.8-25.26-11.48c-0.39-0.55-0.58-9.94-0.58-28.55c0-22.78,0.86-57.34,2.58-105.42
		c1.73-48.07,2.59-85.47,2.59-110.48c0-4.57-2.22-11.99-6.61-22.33c-4.41-10.34-6.6-18.32-6.6-23.9c0-6.8,3.24-12.95,9.75-18.49
		c9.57-8.13,22.59-14.5,39.06-19.25c4.2-1.2,19.13-4.2,44.8-9.79c2.53-0.58,3.79-0.88,6.31-1.47c4.6-1.02,9.17-2.32,13.21-3.07
		c14.37-2.68,24.12-5.88,26.41-6.45c5.75-1.42,16.1-3.01,31.01-4.81c36.3-4.39,64.75-0.97,85.01,11.16
		c22.18,13.28,33.31,36.12,33.31,67.38c0,28.18-8.24,55.07-24.7,79.62c-4.99,7.55-14.75,17.86-29.29,30.48
		c-8.82,7.84-13.21,13.25-13.21,16.44c0,5.75,3.44,10.37,10.33,13.95c6.89,3.59,14.16,4.93,21.82,3.95c1.53-0.2,3.92-0.92,7.19-2.16
		c3.24-1.24,5.64-1.97,7.17-2.18C907.99,1913.86,914.32,1920.34,918.52,1934.53z M805.39,1827.68c0-18.43-10.14-25.67-30.43-21.66
		c-4.6,0.91-7.47,1.64-8.63,2.17c-9.96,4.46-14.93,14.59-14.93,30.29c0,4.99,0,7.47,0,12.43c0,7.65,9.19,9.98,27.57,6.9
		c8.03-1.35,14.44-4.83,19.24-10.56C803,1841.54,805.39,1835,805.39,1827.68z M1077.43,1721.81c1.91-0.09,10.25-2,25.07-5.71
		c9.5-2.38,21.93-1.5,37.31,3c15.38,4.48,26.51,6.09,33.34,4.49c18.24-4.28,27.35-21.61,27.35-51.93c0-12.92-0.68-23.94-2.3-32.65
		c-1.06-5.68-1.72-9.79-1.72-12.2c-1.53-25.28-7.69-39.3-14.93-38.85c-28.85,1.79-58.97,13.27-78.12,19.16
		c-1.53,0.47-5.94,1.55-13.21,3.21c-7.27,1.68-12.05,2.86-14.35,3.57c-22.74,7.01-34.12,10.51-56.86,17.44
		c3.06-0.93-1.92,0.97-14.93,5.64c-26.43,9.46-45.37,20.28-56.86,32.43c-3.44,7.37-5.17,14.74-5.17,22.14
		c0,8.12,2.49,18.52,7.47,31.3c5.36,13.77,8.03,24.4,8.03,31.8c-1.38,55.46-2.06,82.88-3.44,137c-1.53,58.42-2.3,101.68-2.3,130.97
		c0,22.22,8.22,35.12,24.7,39.17c8.42,2.02,27.57,3.06,57.42,3.03c53.61-0.05,89.4-0.09,107.39-0.11c1.92,0,3.64,0,5.17,0
		c1.84,0,2.76,0,4.6,0c11.49-0.01,22.01-2.43,31.59-7.41c9.96-16.87,14.93-46.33,14.93-87.56c0-3.3,0.38-10.54,1.16-21.73
		c0.77-11.18,1.14-18.43,1.14-21.73c0-5.34-0.56-11.05-1.72-17.08c-1.14-6.02-3.64-11.88-7.47-17.51
		c-3.83-5.64-7.46-8.18-10.91-7.71c-4.22,0.57-18.18,8.01-41.92,21.59c-23.74,13.57-41.54,20.63-53.41,21.97
		c-9.19,1.04-15.71,0.08-19.52-2.84c-5.75-4.55-8.63-13.8-8.63-27.91c0-22.24,3.83-34.01,11.49-35.26c6.5,2.3,14.94,5.28,25.27,9.03
		c16.46,5.86,30.43,8.16,41.92,6.5c5.36-0.77,10.4-5.42,14.94-14.05c3.83-7.27,6.11-14.05,6.89-20.14c0-3.58,0-5.38,0-8.96
		c0-6.35,0.38-16.05,1.14-29.12c0.77-13.04,1.16-22.77,1.16-29.13c0-12.69-1.14-20.98-3.42-24.84c-3.78-6.29-10.78-8.22-21.01-5.88
		c-6.83,1.56-17.99,7.58-33.51,17.74c-15.52,10.18-26.13,15.73-31.81,16.96c-3.03,0.66-6.06,0.18-9.08-1.4
		c-2.66-9.5-3.99-17.57-3.99-24.28C1056.35,1739.42,1063.38,1728.74,1077.43,1721.81z M1512.35,1504.63
		c-31.79,2.01-57.25,8.35-76.38,22.59c-12.27,9.09-18.38,21.08-18.38,36.03c0,5.28,0.77,10.63,2.3,16.02
		c3.06,10.79,4.6,23.12,4.6,36.95c0,32.13-2.88,76.35-8.61,132.94c-1.84,19.46-2.76,29.21-4.6,48.76
		c-0.78,7.91-1.36,12.37-1.73,13.34c-1.53,11.7-5.16,17.92-10.91,18.67c-4.97,0.64-9.18-13.4-11.49-40.78
		c-6.63-78.71-9.33-133.11-10.91-162.93c-2.22-41.89-4.55-67.5-6.89-77.15c-3.33-13.69-12.83-18.52-28.13-14.31
		c-2.3,0.63-9.21,3.22-20.68,7.64c-28.97,11.16-47.48,19.15-55.13,23.83c-24.13,14-36.18,29.07-36.18,45.39
		c0,8.98,6.64,20.82,12.63,33.47c4.98,10.53,6.69,21.43,7.47,26.62c8.41,57.25,14.35,98.08,17.8,120.8
		c17.22,128.93,27.57,209.13,31.01,229.93c3.45,20.82,10.55,33.61,21.26,38.04c8.76,3.63,29.85,5.44,63.16,5.44
		c32.93,0,55.14-5.31,66.63-16.2c7.64-7.43,13-20.12,16.08-38.19c17.69-102.78,26.53-153.14,44.22-252.18
		c22.19-125.1,33.31-199.79,33.31-228.69C1542.78,1512.13,1532.63,1503.35,1512.35,1504.63z M1706.28,1631.47
		c1.91,0.56,10.25,1.14,25.07,2.02c9.5,0.57,21.93,6.23,37.31,17.14c15.38,10.89,26.51,16.75,33.34,17.4
		c18.24,1.74,27.35-14.34,27.35-48.46c0-14.53-0.68-27.23-2.3-37.73c-1.06-6.9-1.72-11.78-1.72-14.5
		c-1.53-29.17-7.19-47.78-14.93-50.79c-27.17-10.58-58.97-11.75-78.12-13.05c-1.53-0.11-5.95-0.76-13.21-1.86
		c-7.26-1.11-12.05-1.68-14.35-1.79c-22.74-1.11-34.12-1.43-56.86-1.69c3.06,0.03-1.92,0.39-14.93,1.28
		c-26.43,1.76-45.37,8.86-56.86,20.5c-3.44,8.25-5.17,17.15-5.17,26.69c0,10.47,2.48,24.75,7.47,42.98
		c5.36,19.63,8.03,34.36,8.03,44.08c-1.38,72.39-2.06,109.1-3.44,183.6c-1.53,80.4-2.3,142.68-2.3,185.23
		c0,32.29,8.22,51.55,24.7,57.47c8.42,2.96,27.57,4.45,57.42,4.45c53.61,0.01,89.4,0.02,107.39,0.03c1.92,0,3.64,0,5.17,0
		c1.84,0,2.76,0,4.6,0c11.49,0.01,22.01-2.87,31.59-8.56c9.96-19.48,14.93-52.74,14.93-99.7c0-3.76,0.38-11.97,1.16-24.57
		c0.77-12.6,1.14-20.76,1.14-24.5c0-6.06-0.56-12.63-1.72-19.7c-1.14-7.05-3.64-14.2-7.47-21.41c-3.83-7.23-7.46-10.94-10.91-11.14
		c-4.22-0.25-18.18,5.18-41.92,16.96c-23.74,11.76-41.54,17.76-53.41,17.45c-9.19-0.24-15.71-2.53-19.52-6.94
		c-5.75-6.83-8.63-19.32-8.63-37.45c0-28.57,3.83-42.66,11.49-42.42c6.5,4.45,14.94,10.18,25.27,17.19
		c16.46,11.02,30.43,16.81,41.92,17.35c5.36,0.25,10.41-4.21,14.94-13.34c3.83-7.71,6.11-15.1,6.89-22.06c0-4.21,0-6.32,0-10.53
		c0-7.45,0.37-18.74,1.14-33.82c0.77-15.04,1.16-26.27,1.16-33.69c0-14.81-1.14-24.85-3.42-30.13c-3.78-8.63-10.78-13.36-21.01-14.1
		c-6.83-0.49-17.99,2.79-33.51,10.08c-15.52,7.32-26.13,11-31.81,10.78c-3.03-0.12-6.06-1.64-9.08-4.55
		c-2.66-12.7-3.99-23.23-3.99-31.61C1685.2,1645.91,1692.23,1635,1706.28,1631.47z M2148.08,1948.94c0,30.74-5.14,55.76-15.5,75.95
		c-13.71,26.72-34.45,41.01-62.02,41.01c-9.58,0-17.43-1.86-23.54-5.71c-19.16-11.48-32.3-31.95-37.92-60.08
		c-3.26-16.31-7.85-41.6-14.35-75.34c-0.39-0.46-2.5-4.79-6.31-13.03c-2.69-5.5-5.75-8.43-9.19-8.76
		c-5.38-0.52-8.73,5.18-10.35,16.86c-0.72,5.19-1.14,12.69-1.14,22.41c0,7.95,0.57,19.82,1.72,35.57
		c1.15,15.74,1.72,27.61,1.72,35.56c0,11.08-0.53,19.75-1.72,25.88c-2.22,11.46-16.85,17.23-43.64,17.1
		c-2.3-0.01-8.16,0.41-17.52,1.29c-9.38,0.88-15.41,1.34-18.1,1.33c-15.32-0.05-23.74-6.61-25.26-19.69
		c-0.39-0.94-0.58-17.07-0.58-48.21c0-38.13,0.86-95.4,2.58-170.82c1.73-75.42,2.59-131.13,2.59-168.14c0-6.76-2.22-18.13-6.61-34.1
		c-4.41-15.98-6.6-28.03-6.6-36.13c0-9.89,3.24-18.18,9.75-24.73c9.57-9.61,22.59-15.53,39.06-17.44c4.2-0.47,19.13-0.64,44.8,1.03
		c2.53,0.12,3.79,0.18,6.31,0.32c4.6,0.32,9.32,0.36,13.21,0.91c14.39,2.03,24.12,5.57,26.41,6.26c5.75,1.73,16.12,6.12,31.01,13.58
		c36.34,18.19,64.74,43,85.01,71.12c22.2,30.81,33.31,63.37,33.31,98.31c0,31.49-8.24,56.86-24.7,78.33
		c-4.99,6.64-14.75,14.52-29.29,24.48c-8.82,6.28-13.21,11.65-13.21,15.72c0,7.35,3.44,14.49,10.33,21.34
		c6.89,6.86,14.16,10.86,21.82,12.19c1.53,0.26,3.92,0.18,7.19-0.23c3.24-0.41,5.64-0.47,7.17-0.19
		c8.41,1.53,14.74,11.34,18.94,29.01C2146.54,1924.74,2148.08,1937.05,2148.08,1948.94z M2030.35,1733.45
		c0-24.4-10.14-39.27-30.43-43.93c-4.6-1.06-7.47-1.47-8.63-1.3c-9.96,1.22-14.93,12.98-14.93,35.14c0,7.03,0,10.55,0,17.59
		c0,10.86,9.19,17.83,27.57,21.34c8.03,1.54,14.44-0.47,19.24-6.04C2027.96,1750.69,2030.35,1743.14,2030.35,1733.45z"/>
	<path class="st0" d="M456.39,232.27c0.12-3.56,1.68-13.7,3-19.37c1.68-7.28,5.13-19.84,5.81-21.13c0.28-0.53,1.07-1.3,1.77-1.72
		c2.36-1.36,6.3,0,7.56,2.59c1.14,2.35,0.73,6.55-1.96,20.03c-2.29,11.49-5.87,23.51-7.34,24.86c-1.25,1.15-4.13,1.03-6.12-0.27
		C457.03,235.92,456.29,234.57,456.39,232.27z M387.3,251.88c0.92,1.97,3.11,3.4,5.63,3.7c2.49,0.29,3.82-0.25,4.68-1.84
		c1.16-2.15,1.56-19.53,1.07-44.98c-0.18-9.6-0.55-28.32-0.79-41.6c-0.24-13.32-0.52-25.22-0.64-26.4
		c-0.12-1.26-0.49-2.75-0.86-3.43c-1.23-2.28-5.08-3.85-7.34-2.94c-1.99,0.8-2.43,2.14-2.94,9.16c-1.02,14.08-1.47,50.55-0.98,77.95
		C385.47,239.93,386.16,249.44,387.3,251.88z M305.58,233.65c0.46,1.41,2.21,3.3,3.7,4.01c1.7,0.81,4.71,0.91,5.87,0.25
		c1.21-0.69,1.43-1.5,1.84-7.36c0.38-5.5,0.36-6.49-0.77-22.43c-0.42-5.9-0.92-14.37-1.1-18.84c-0.61-14.78-1.22-20.31-2.57-22.79
		c-1.46-2.68-5.75-4.32-8.29-3.21c-0.67,0.29-1.26,0.54-1.29,0.54c-0.03,0-0.31,0.55-0.61,1.17c-0.46,1.1-0.52,2.98-0.64,17.55
		c-0.12,16.15,0.03,21.16,1.04,34.8C303.17,222.81,304.45,230.2,305.58,233.65z M505.09,260.66c2.17,1.45,4.07,1.72,5.54,0.78
		c1.9-1.2,3.47-4.65,13-28.58c5.27-13.24,11.22-27.98,13.19-32.67c5.13-12.21,7.92-19.52,8.54-21.86c0.61-2.34,0.37-3.75-1.04-6.25
		c-1.47-2.59-5.26-4.59-6.94-3.7c-0.37,0.19-1.02,0.97-1.44,1.67c-1.07,1.78-11.47,24.73-15.05,33.12
		c-5.81,13.62-18.29,44.51-18.88,46.84C500.66,255.35,501.54,258.29,505.09,260.66z M562.49,271.7c-1.35,0.72-3.24,3.49-9.94,14.36
		c-7.19,11.66-7.51,12.19-8.11,14.75c-0.71,3.05-0.6,3.6,0.89,5.39c2.08,2.5,5.54,3.31,8.02,1.83c2.29-1.36,3.94-3.61,9.02-12.28
		c9.19-15.68,10.04-17.56,9.15-20.27C570.48,272.31,565.31,270.18,562.49,271.7z M240.14,227.64c3.64,12.3,4.16,13.81,5.69,16.53
		c1.84,3.28,3.27,4.76,5.54,5.68c2.75,1.13,5.35,0.79,6.7-0.88c0.52-0.65,0.61-1.18,0.52-3.8c-0.09-2.87-0.33-3.89-4.22-17.13
		c-15.25-51.82-24.23-79.48-26.22-82.96c-1.38-2.38-4.13-4.02-6.76-4c-1.04,0-2.17,0.13-2.51,0.31c-0.98,0.45-1.65,1.75-1.65,3.2
		c0,2.78,3.67,16.38,12.97,48.76C233.47,204.75,237.93,220.21,240.14,227.64z M188.28,288.56c3.49,0.91,6.94,0.16,8.57-1.85
		c1.41-1.74,1.47-1.61-4.19-11.81c-2.26-4.07-9.85-18.27-16.89-31.39c-7.04-13.09-15.57-28.54-18.97-34.49
		c-3.37-5.92-6.62-11.61-7.19-12.64c-1.94-3.51-2.78-4.55-4.77-5.64c-2.02-1.13-5.26-1.7-7.01-1.28c-2.54,0.62-3.82,1.91-3.82,3.86
		c0,2.28,1.6,5.32,16.03,32.06c2.99,5.53,7.04,13.11,8.99,16.81c13.22,24.98,21.88,40.97,23.9,43.23
		C184.45,287.1,185.86,287.93,188.28,288.56z M551.93,374.93c-0.6,3.89-4.04,12.11-16.31,38.41
		C480.34,531.91,429.57,624,371.45,708.03c-18.11,26.19-20.35,28.75-22.64,29.1c-3,0.44-6.67-1.22-8.93-4.01
		c-2.51-3.09-7.19-12-20.99-40.08c-49.17-100.12-97.33-210.78-146.74-328.38c-4.78-11.38-9.21-22.06-9.82-23.84
		c-1.38-4.08-1.44-5.88-0.28-7.31c2.59-3.18,6.64-6.98,17.35-17.15c16.52-15.71,19.01-18.22,29.43-28.31
		c5.02-4.85,11.99-11.75,15.45-15.29c3.52-3.57,6.79-6.64,7.37-6.91c1.68-0.65,24.9,1.17,102.43,4.11
		c23.12,0.88,109.98,4.22,132.94,5.22c9.22,0.4,12.42,0.64,13,1.04c2.08,1.43,53.96,70.75,65.44,87.26
		c2.04,2.93,2.46,3.37,3.33,3.41C551.02,366.98,552.56,370.88,551.93,374.93z M475.75,299.35c-3.09,3.92-12.18,15.36-20.19,25.32
		c-20.04,24.86-27.23,33.57-27.23,33.87c0,0.34,4.08,0.81,23.25,2.31c9.33,0.73,20.16,1.55,24.02,1.88
		c3.89,0.33,13.98,1.2,22.49,1.87c22.49,1.76,30.32,2.29,34.36,2.6c3.06,0.24,3.61,0.19,3.52-0.27
		c-0.09-0.5-11.12-15.79-36.04-49.92c-4.45-6.1-10.31-14.21-13-17.97c-2.68-3.73-5.02-6.85-5.2-6.86
		C481.57,292.13,478.87,295.39,475.75,299.35z M369.25,284.88c0.06,0.19,4.37,6.12,9.61,13.17c5.22,7.02,15.86,21.45,23.59,31.97
		c7.74,10.54,14.29,19.23,14.53,19.24c0.58,0.03,50.82-60.42,50.82-61.15c0-0.46-2.07-0.6-12.91-0.82
		c-7.12-0.14-29.32-0.7-49.35-1.39C381.47,285.07,369.16,284.61,369.25,284.88z M357.2,290.35c-3.18,2.7-55.14,45.78-62.48,51.59
		c-2.71,2.14-4.96,4.02-4.99,4.13c0,0.11,9.88,1.27,21.97,2.46c35,3.43,88.15,7.83,95.46,8.68c2.51,0.29,3.73,0.32,3.73,0.05
		c0-0.34-11.15-15.96-29.34-40.58c-2.12-2.87-7.68-10.54-12.36-17c-4.67-6.43-8.66-11.69-8.87-11.7
		C360.1,287.97,358.73,289.05,357.2,290.35z M239.25,276.76c0,0.14,0.61,1.18,1.32,2.3c2.69,4.22,14.15,25.68,27.11,51.29
		c2.91,5.75,5.42,10.48,5.57,10.5c0.18,0.02,5.37-3.8,11.54-8.54c57.32-44.08,60.33-48.48,60.33-48.93c0-0.22-17.41-1.15-46.87-2.96
		C246.38,277.23,239.25,276.4,239.25,276.76z M177.29,335.45c2.14,0.23,3.21,0.34,5.35,0.57c20.22,1.99,51.63,5.01,65.93,6.49
		c4.71,0.49,9.97,0.94,11.72,0.98c1.26,0.05,1.89,0.07,3.15,0.12c-0.97-1.9-1.45-2.85-2.42-4.74c-7.47-14.64-20.63-41.43-26.8-54.39
		c-0.45-0.96-0.98-1.74-1.19-1.76c-0.21,0.02-3.54,3.16-7.4,6.98c-3.85,3.81-15.32,14.97-25.39,24.44
		c-10.1,9.49-19.4,17.95-20.65,19.14C178.67,334.15,178.21,334.58,177.29,335.45z M327.64,677.38
		c-12.61-59.15-28.02-138.45-41.43-212.88c-8.1-44.98-15.71-89.85-17.13-101.54c-0.28-2.28-0.58-4.53-0.64-5
		c-0.05-0.32-0.07-0.48-0.12-0.8c-18.55-2.01-27.83-3.1-46.38-5.45c-36.93-4.69-46.35-6.24-46.26-5.92
		c0.06,0.25,2.69,6.47,5.87,13.9c51.31,119.74,87.97,202.91,147.01,324.67C329.29,685.87,329.05,684.04,327.64,677.38z
		 M367.41,590.55c8.05-33.95,20.14-91.36,34.45-165.64c2.12-10.99,5.31-27.45,7.07-36.55c1.76-9.1,3.09-16.75,2.97-16.91
		c-0.15-0.16-8.35-0.92-18.3-1.77c-9.91-0.85-24.93-2.26-33.35-3.07c-8.41-0.81-26.65-2.51-40.54-3.85
		c-13.89-1.34-28.64-2.98-32.8-3.51c-5.23-0.67-7.59-0.85-7.74-0.61c-0.09,0.21,0.09,1.3,0.43,2.41c1.16,3.78,6.7,31.86,14.84,75.73
		c16.31,87.78,29.43,155.2,43.32,221.86c7.07,33.89,6.67,32.06,7.04,32.12c0.12,0.02,2.6-10.61,5.48-23.75
		C356.89,636.94,363.86,605.55,367.41,590.55z M538.69,381.54c0.12-0.61-0.28-0.69-3.79-0.99c-6.61-0.55-29.37-2.1-49.5-3.47
		c-5.86-0.4-15.35-1.11-20.96-1.54c-5.61-0.43-15.7-1.2-22.33-1.74c-6.64-0.54-13.28-1.11-14.75-1.26
		c-1.44-0.15-2.75-0.18-2.94-0.04c-0.15,0.1-2.02,9.73-4.13,21.35c-6.03,32.98-12.86,69.75-29.22,152.19
		c-2.53,12.73-6,30.17-7.71,38.79c-6,30.16-13.77,66.04-17.29,80.16c-1.07,4.31-3.06,12.58-4.44,18.41
		c-1.38,5.82-2.69,11.32-2.94,12.25c-0.61,2.41-0.57,2.99,0.15,2.21c0.77-0.83,27.69-41.46,38.8-59.01
		c32.22-50.95,65.89-110.19,100.66-177.06C512.96,433.61,538.47,382.6,538.69,381.54z M1729.03,194.6c1.25,0.72,4.13,0.74,6.12,0.02
		c2.08-0.74,2.82-1.52,2.72-2.89c-0.12-2.12-1.68-8.19-3-11.57c-1.68-4.34-5.13-11.78-5.81-12.56c-0.28-0.31-1.07-0.78-1.77-1.03
		c-2.36-0.84-6.29-0.1-7.56,1.39c-1.13,1.34-0.73,3.79,1.96,11.77C1723.98,186.52,1727.54,193.75,1729.03,194.6z M1801.33,208.55
		c2.53-0.05,4.71-0.82,5.63-2c1.14-1.46,1.83-7.38,2.17-18.81c0.49-16.98,0.04-39.35-0.98-47.91c-0.51-4.27-0.95-5.08-2.94-5.57
		c-2.26-0.55-6.11,0.39-7.34,1.77c-0.37,0.41-0.73,1.31-0.86,2.07c-0.12,0.71-0.4,7.88-0.64,15.96c-0.24,8.05-0.61,19.46-0.79,25.33
		c-0.49,15.57-0.09,26.37,1.07,27.76C1797.5,208.19,1798.83,208.59,1801.33,208.55z M1879.1,202.11c1.17,0.52,4.16,0.66,5.87,0.25
		c1.5-0.37,3.24-1.5,3.7-2.41c1.13-2.23,2.41-7.08,2.81-10.7c1.01-9.04,1.16-12.39,1.04-23.12c-0.12-9.68-0.18-10.91-0.64-11.65
		c-0.31-0.42-0.58-0.79-0.61-0.79c-0.03,0-0.61-0.18-1.29-0.38c-2.54-0.79-6.82,0.21-8.29,1.93c-1.35,1.6-1.96,5.19-2.57,14.85
		c-0.18,2.92-0.68,8.46-1.1,12.32c-1.13,10.41-1.15,11.08-0.77,14.72C1877.67,201.01,1877.88,201.57,1879.1,202.11z M1657.44,171.5
		c1.97,2.7,7.91,11.23,13.19,19.01c9.52,14.05,11.11,16.23,13,16.98c1.47,0.59,3.37,0.48,5.54-0.32c3.58-1.3,4.43-3.05,3.09-6.18
		c-0.59-1.38-13.06-19.68-18.88-27.59c-3.58-4.88-13.98-18.03-15.05-19.05c-0.43-0.4-1.07-0.85-1.44-0.96
		c-1.68-0.51-5.48,0.6-6.95,2.05c-1.41,1.41-1.65,2.2-1.04,3.53C1649.51,160.31,1652.32,164.48,1657.44,171.5z M1648.93,233.12
		c1.49-1.03,1.6-1.36,0.89-3.17c-0.6-1.53-0.91-1.87-8.11-8.86c-6.7-6.51-8.6-8.13-9.94-8.57c-2.82-0.93-7.99,0.25-9.03,2.1
		c-0.89,1.57-0.04,2.64,9.15,12.03c5.08,5.19,6.74,6.56,9.03,7.41C1643.4,234.97,1646.85,234.56,1648.93,233.12z M1942.89,215.82
		c2.26-0.42,3.7-1.33,5.54-3.49c1.53-1.8,2.05-2.8,5.69-11.33c2.2-5.15,6.67-15.96,9.94-24.05c9.3-22.96,12.97-33.11,12.97-35.15
		c0-1.06-0.67-2.02-1.65-2.36c-0.34-0.13-1.47-0.24-2.51-0.24c-2.63-0.04-5.39,1.13-6.76,2.84c-1.99,2.5-10.97,22.67-26.22,58.02
		c-3.89,9.03-4.13,9.7-4.22,11.71c-0.09,1.84,0,2.22,0.52,2.73C1937.54,215.82,1940.14,216.34,1942.89,215.82z M2056.43,180.44
		c-1.74-0.5-4.99-0.28-7.01,0.49c-1.99,0.74-2.84,1.55-4.77,4.25c-0.57,0.8-3.82,5.18-7.19,9.65c-3.4,4.49-11.93,15.97-18.97,25.36
		c-7.04,9.41-14.62,19.22-16.89,22c-5.66,6.96-5.6,6.83-4.19,8.41c1.63,1.83,5.08,3.03,8.57,2.96c2.42-0.05,3.82-0.44,5.35-1.49
		c2.02-1.41,10.68-12.19,23.9-30.56c1.96-2.72,6.01-8.34,9-12.51c14.42-20.15,16.03-23.04,16.03-24.97
		C2060.26,182.37,2058.97,181.16,2056.43,180.44z M2032.2,295.19c1.16,1.47,1.11,2.95-0.28,5.88c-0.6,1.28-5.04,8.78-9.82,16.55
		c-49.38,80.32-97.57,142.1-146.74,198.3c-13.79,15.77-18.48,20.76-20.99,22.21c-2.26,1.31-5.94,1.39-8.93,0.19
		c-2.29-0.92-4.53-3.86-22.64-26.74c-58.13-73.4-108.89-138.44-164.18-213.4c-12.26-16.63-15.71-21.6-16.31-23.97
		c-0.62-2.47,0.9-4.8,3.12-4.81c0.88,0,1.28-0.26,3.33-1.98c11.47-9.75,63.36-49.5,65.44-50.28c0.58-0.21,3.77-0.25,13-0.14
		c22.98,0.29,109.81,3.36,132.94,4.71c77.56,4.54,100.75,7.25,102.43,7.94c0.58,0.28,3.86,2.94,7.37,6.08
		c3.46,3.11,10.43,9.29,15.45,13.82c10.46,9.38,12.91,11.5,29.43,27.63C2025.56,287.65,2029.6,291.91,2032.2,295.19z
		 M1960.02,242.94c-6.15,8.62-19.34,25.82-26.8,34.97c-0.97,1.18-1.45,1.78-2.42,2.96c1.26,0.19,1.89,0.28,3.15,0.48
		c1.74,0.28,7.01,0.91,11.72,1.44c14.32,1.59,45.71,5.87,65.93,9.21c2.14,0.34,3.21,0.51,5.35,0.86c-0.92-0.92-1.38-1.37-2.29-2.29
		c-1.25-1.25-10.56-10.19-20.65-19.53c-10.1-9.32-21.54-19.53-25.39-22.96c-3.89-3.44-7.19-6.21-7.4-6.26
		C1961,241.81,1960.48,242.3,1960.02,242.94z M1849.15,229.54c0,0.29,3.02,0.6,60.33,39.89c6.17,4.23,11.35,7.79,11.54,7.81
		c0.15,0.01,2.66-2.9,5.57-6.5c12.97-16.02,24.44-29.95,27.11-32.64c0.7-0.71,1.32-1.39,1.32-1.49c0-0.26-7.13-1.19-58.99-4.54
		C1866.55,230.17,1849.15,229.39,1849.15,229.54z M1825.07,238.01c-4.68,3.75-10.23,8.15-12.36,9.8
		c-18.16,14.08-29.34,22.96-29.34,23.17c0,0.16,1.22,0.25,3.73,0.29c7.31,0.11,60.46,2.64,95.46,5.32
		c12.08,0.93,21.97,1.7,21.97,1.62c-0.03-0.08-2.26-1.74-4.99-3.62c-7.34-5.14-59.29-39.56-62.48-41.57
		c-1.53-0.96-2.91-1.77-3.12-1.78C1833.73,231.23,1829.75,234.29,1825.07,238.01z M1726.46,224.77c0,0.44,50.24,40.63,50.82,40.66
		c0.24,0.01,6.79-4.9,14.53-10.93c7.74-6,18.36-14.27,23.59-18.32c5.23-4.07,9.55-7.51,9.61-7.63c0.09-0.16-12.21-0.89-36.29-1.89
		c-20.04-0.84-42.23-1.58-49.35-1.82C1728.52,224.47,1726.46,224.49,1726.46,224.77z M1658.29,269.78
		c-0.09,0.28,0.44,0.32,3.52,0.27c4.05-0.06,11.87-0.22,34.36-0.27c8.51-0.02,18.6-0.02,22.49-0.01c3.85,0.02,14.69,0.14,24.02,0.31
		c19.18,0.36,23.25,0.46,23.25,0.25c0-0.19-7.19-6.44-27.23-22.78c-8.02-6.54-17.1-13.87-20.19-16.36
		c-3.12-2.52-5.81-4.58-5.97-4.56c-0.18,0-2.51,1.78-5.2,3.91c-2.69,2.16-8.54,6.8-13,10.3
		C1669.43,260.51,1658.38,269.49,1658.29,269.78z M1835.56,506.11c-0.24-0.72-1.56-4.94-2.94-9.38c-1.38-4.44-3.37-10.72-4.44-13.98
		c-3.52-10.7-11.29-37.28-17.29-58.89c-1.71-6.17-5.18-18.58-7.71-27.53c-16.35-57.93-23.21-81.55-29.22-103.03
		c-2.12-7.57-3.98-13.78-4.13-13.86c-0.18-0.1-1.5-0.19-2.94-0.22c-1.47-0.03-8.11-0.21-14.75-0.38s-16.72-0.38-22.33-0.47
		c-5.62-0.09-15.08-0.2-20.96-0.28c-20.16-0.22-42.89-0.1-49.5,0.03c-3.52,0.07-3.92,0.11-3.79,0.49
		c0.21,0.65,25.73,32.87,40.39,51.51c34.79,44.21,68.44,86.97,100.66,127.85c11.1,14.09,38.03,48.87,38.8,49.67
		C1836.14,508.37,1836.18,507.96,1835.56,506.11z M1899.81,340.54c8.14-28.99,13.69-47.75,14.84-50.19
		c0.34-0.72,0.52-1.46,0.43-1.62c-0.15-0.19-2.51-0.49-7.74-0.9c-4.16-0.34-18.91-1.64-32.8-2.77c-13.89-1.13-32.12-2.37-40.54-2.85
		c-8.41-0.49-23.44-1.26-33.35-1.72c-9.94-0.46-18.14-0.72-18.3-0.63c-0.12,0.09,1.21,5.06,2.97,11.03
		c1.76,5.97,4.96,16.87,7.07,24.21c14.35,49.66,26.4,90.87,34.45,115.83c3.55,11.03,10.54,34.28,17.13,57.19
		c2.88,10.01,5.35,18.27,5.48,18.29c0.37,0.06-0.03,1.22,7.04-20.8C1870.38,442.28,1883.52,398.55,1899.81,340.54z M2018.58,301.52
		c0.09-0.23-9.33-1.94-46.26-6.54c-18.55-2.31-27.83-3.38-46.38-5.34c-0.05,0.22-0.07,0.33-0.12,0.55
		c-0.06,0.32-0.37,1.86-0.64,3.43c-1.44,8.04-9.03,38.41-17.13,68.38c-13.4,49.6-28.9,101.48-41.43,139.93
		c-1.41,4.34-1.65,5.58-0.92,4.71c59.39-69.12,95.73-114.55,147.01-195.61C2015.89,305.98,2018.52,301.7,2018.58,301.52z"/>
</g>
</svg>
