<?xml version="1.0" encoding="utf-8"?>
<!-- Generator: Adobe Illustrator 25.0.1, SVG Export Plug-In . SVG Version: 6.00 Build 0)  -->
<svg version="1.1" id="Layer_1" xmlns="http://www.w3.org/2000/svg" xmlns:xlink="http://www.w3.org/1999/xlink" x="0px" y="0px"
	 viewBox="0 0 2500 2500" style="enable-background:new 0 0 2500 2500;" xml:space="preserve">
<style type="text/css">
	.st0{fill:#231F20;}
</style>
<path transform="translate(0.000000,2500.000000) scale(0.100000,-0.100000)" class="st0" d="M12307,24216c-131-55-242-176-392-427
	c-161-271-366-744-482-1114c-21-66-32-89-43-87c-8,2-55,9-103,15c-214,26-421-42-578-191c-145-136-270-378-318-613
	c-9-43-18-59-36-69c-14-7-27-11-29-9s-10,67-16,144c-23,270-111,505-237,632c-187,187-538,227-795,91c-77-41-162-132-198-212
	c-17-36-51-97-76-137c-163-251-269-648-250-929c22-310,122-503,334-641c202-132,503-157,717-59c258,117,451,467,501,905
	c6,57,16,74,39,75c6,0,10-41,11-103c1-127,16-202,60-295c68-142,197-239,372-278c58-13,106-16,211-12c132,5,200,20,323,73
	c13,5,19,0,24-22c96-426,206-661,366-779c80-59,144-79,248-79c149,0,213,46,336,241c74,119,177,332,259,540l68,171l54-33
	c106-64,244-71,360-20c105,48,223,188,339,401l49,90l7-40c4-22,7-61,7-86c1-67,36-191,72-260c38-71,83-113,159-148
	c47-22,69-25,155-26c90,0,106,3,158,29c42,20,71,44,103,84c40,52,253,427,385,679c30,57,57,103,60,103s9-42,12-92
	c16-258,109-390,310-444c29-8,99-14,158-14c257,0,382,99,570,453l49,92v-45c0-165-49-775-64-794c-6-8-92-42-191-77
	c-99-34-222-79-274-100l-94-39l-46,34c-117,85-226,119-381,119c-222,0-396-83-576-276c-242-260-384-609-384-942
	c0-428,199-768,550-941c101-50,208-75,348-81c501-22,881,271,1142,882c158,370,251,718,317,1188l27,199l71,31
	c142,63,385,187,473,241c188,116,410,316,474,427c34,58,63,159,54,192c-12,47-122,62-180,23c-13-8-39-41-57-73
	c-38-67-209-247-319-336c-41-33-112-85-158-115c-83-54-307-172-327-172c-7,0-8,32-3,92c14,187,20,953,10,1188c-12,261-21,303-69,336
	c-60,40-195,38-252-3c-21-16-28-32-34-79c-28-200-220-654-374-886c-64-97-192-248-209-248c-36,0-60,410-44,743c19,416,23,553,16,581
	c-12,48-86,68-167,46c-107-30-236-283-308-605c-24-107-69-209-178-410c-125-228-276-490-350-603c-67-104-165-222-184-222
	c-4,0-13,33-20,73c-15,93-6,439,21,792c11,143,21,300,23,348c2,86,1,89-26,112c-52,45-155,45-223-1l-36-25l-35,40
	c-20,23-62,54-101,73c-60,30-76,33-174,37c-87,3-120-1-176-18c-84-25-179-86-252-160c-142-146-312-457-382-700c-21-76-29-223-18-371
	c4-49-3-73-64-230c-131-332-254-582-364-735c-32-44-64-80-72-80c-21,0-75,107-100,197c-39,144-77,465-100,845l-11,181l59,99
	c178,294,467,849,587,1128c233,539,335,932,305,1183c-15,121-41,207-83,268c-47,71-83,88-192,91
	C12378,24240,12357,24237,12307,24216z M12491,24023c80-186,60-436-63-791c-114-332-304-736-549-1168c-39-69-72-124-74-122
	c-5,5,24,216,55,397c65,380,239,962,413,1388c76,186,162,343,188,343C12466,24070,12480,24049,12491,24023z M11335,22454
	c26-11,35-19,31-31c-14-36-67-355-81-488c-19-178-19-410,0-575l14-125l-47-42c-55-51-166-112-210-115c-45-3-74,17-115,79
	c-73,110-97,259-79,478c24,295,96,535,206,689C11144,22450,11239,22494,11335,22454z M9816,22389c40-39,69-81,105-154
	c72-146,91-227,96-424l5-164l-108,6c-179,10-248,41-331,151c-74,98-106,176-111,271c-2,44,1,106,8,138c14,67,58,160,98,203
	c27,30,31,31,105,29l78-1L9816,22389z M13423,22337c25-25,59-74,77-112l32-67l-32-137c-26-108-44-157-88-241
	c-72-138-210-366-278-460c-70-98-177-205-197-197c-38,14-34,265,6,407c102,360,342,850,416,850C13370,22380,13398,22360,13423,22337
	z M9485,21625c114-56,263-85,438-85h77v-27c0-16-9-64-19-108c-68-279-237-541-406-629c-26-14-32-13-58,2c-49,28-134,128-166,194
	c-43,88-77,217-92,339c-12,104-8,436,5,458c4,6,35-13,79-50C9382,21686,9446,21644,9485,21625z M15524,20590c-28-193-69-397-114-565
	c-69-259-193-579-286-735c-167-282-406-462-593-447c-120,9-293,117-401,250c-66,80-144,239-170,347c-46,185-36,424,26,609
	c39,119,137,308,208,402c120,158,294,299,370,299c39,0,84-26,139-78c44-43,59-72,38-72c-20,0-202-185-250-255
	c-97-140-170-324-171-428c0-103,48-183,134-223c44-21,66-24,164-24c128,0,198,18,293,76c232,140,349,487,255,754c-14,41-27,79-28,85
	c-5,15,114,74,266,131c77,29,142,52,143,50C15549,20765,15538,20685,15524,20590z M14872,20251c-1-188-71-342-190-421
	c-43-29-48-30-59-13c-24,32-16,136,17,222c32,84,114,220,176,297c32,39,39,43,47,29C14868,20355,14872,20304,14872,20251z
	 M7665,23934c-187-20-359-61-450-106c-22-11-68-41-103-65c-54-38-63-49-60-71c7-60,127-70,279-23c179,55,193,56,494,53
	c154-1,287-5,296-7c13-5,14-15,3-88c-59-407-72-1603-25-2227c31-418,66-677,106-801c32-95,114-139,259-139c86,1,144,16,178,47
	c20,17,20,25,14,253c-24,893-31,1020-86,1545c-54,517-130,1322-130,1371v21l693-1c623-1,699,1,766,16c137,32,185,75,137,123
	c-13,13-41,28-62,33c-36,9-424,27-1124,52C8553,23931,7727,23941,7665,23934z M18800,20313c-182-38-356-209-564-556
	c-234-389-398-808-540-1382c-88-357-117-569-117-860v-191l-94-126c-118-158-204-253-218-239c-6,6-10,88-10,203c1,202,10,293,63,629
	c17,102,30,206,30,230c0,82-51,119-162,119c-86-1-139-26-171-82c-54-91-167-402-213-583c-20-77-52-154-139-330
	c-63-126-135-261-160-300l-46-70l5,75c8,105,100,578,172,880c23,93,28,139,28,243l1,129l-32,28c-66,59-202,66-303,15
	c-91-46-347-321-467-501c-20-29-39-52-43-49c-4,2-10,48-13,102c-13,197-41,296-96,346c-67,60-194,73-280,29c-20-10-58-48-86-84
	c-58-76-177-296-260-478c-31-69-60-129-64-133c-5-4-13,47-20,115s-19,170-27,228c-29,200-44,223-157,228c-105,4-113-2-157-133
	c-79-236-235-601-361-845c-86-166-177-320-189-320c-15,0-20,129-10,259c17,216,51,426,120,726c43,188,70,332,70,377
	c0,61-79,98-172,83c-57-10-88-46-134-155l-37-89l-27,37c-37,51-58,68-115,94c-44,20-66,23-190,23c-120,0-149-3-206-23
	c-178-61-315-194-423-410c-37-74-106-266-106-296c0-59-280-97-465-61c-75,14-160,52-190,85c-12,13-12,19-2,32c6,9,93,71,192,138
	c317,217,476,347,602,490c148,169,228,315,281,508c24,90,26,112,26,297c0,188-2,205-27,288c-51,166-114,260-207,311
	c-191,104-414,64-580-103c-224-226-405-598-570-1172c-60-212-146-565-175-723l-17-89l-117-116c-180-179-297-352-355-525
	c-16-48-16-50,3-69c20-20,74-27,122-14c17,4,47,37,94,104c80,116,175,236,181,230c2-2-9-109-26-238c-49-384-61-538-67-871
	c-6-336,2-474,39-693c61-362,189-664,339-799c158-142,430-177,612-79c189,103,300,444,301,923c1,281-33,490-144,892
	c-108,391-216,669-360,928c-38,68-68,125-67,127c2,1,59-3,126-9c116-10,312-1,402,18c25,6,27,4,33-49c9-66,53-162,92-199
	c16-15,56-39,89-55c56-26,68-28,195-28s138,2,191,28c70,34,143,106,216,213c31,46,58,83,59,81c1-1-2-54-9-116
	c-23-241,31-431,144-505c58-39,150-60,232-53c83,7,146,36,188,85c60,72,180,335,348,767c4,11,11-54,15-150c10-263,37-402,86-455
	c53-57,187-76,284-40c63,24,76,48,76,139c0,233,145,696,313,1000c60,109,65,104,48-47c-38-351-35-677,6-760c26-52,80-76,181-81
	c89-3,155,13,185,47c8,9,20,49,26,87c32,190,173,523,291,688c65,90,214,256,223,247c2-3-17-79-43-170c-133-461-196-859-161-1017
	c26-114,136-181,280-171c79,6,137,33,181,85c26,32,142,255,164,316c7,22,26,13,26-12c0-34,70-159,107-192c21-17,62-44,93-58
	c50-24,66-26,185-26c121,0,134,2,188,27c64,30,164,120,229,207c23,31,45,60,49,65s22-19,39-54c81-160,209-225,399-201
	c82,10,140,37,194,89c50,47,151,201,213,322l49,95l11-86c14-102,27-148,61-208c56-97,138-165,244-202c88-30,266-31,352-2l59,20
	l10-26c84-207,175-339,270-387c39-20,62-24,130-24c110,0,145,18,255,134c149,156,324,427,430,668c27,59,51,106,55,105
	c25-7,282-406,352-546l37-73l-58-51c-113-99-376-363-453-455c-123-147-167-258-158-394c10-132,103-261,231-321c118-56,303-72,455-41
	c246,51,443,233,508,470c8,32,18,111,21,175c8,176-20,334-93,524l-35,90l38,33c213,187,503,416,676,533c65,45,121,88,124,96
	c10,25-40,61-93,69c-27,4-69,2-98-5c-117-27-360-171-630-374c-70-53-131-97-135-97c-5,0-21,24-36,53c-16,28-80,135-143,237
	c-187,299-228,412-220,595c6,122,33,199,91,262c48,52,77,55,133,14c102-73,151-177,192-406l18-100h39c37,0,41,3,62,45
	c31,64,46,169,41,282c-4,84-9,106-37,162c-69,140-217,216-420,216c-350-1-575-229-558-565c3-65,12-121,26-159l21-58l-65-141
	c-80-173-165-329-259-472c-75-114-211-288-265-339l-31-29l-34,75c-56,123-86,242-101,398l-6,65l86,103c206,250,367,515,409,679
	c21,79,20,196,0,258c-22,62-80,119-146,141c-69,23-215,16-280-13c-156-70-298-328-367-665c-25-120-45-343-38-420l5-58l-46-40
	c-26-22-62-47-80-57l-34-18l-24,30c-58,73-77,218-64,489c12,241,28,452,46,615c12,119,12,137-1,157c-36,55-188,58-249,5
	c-28-24-70-114-105-226c-68-213-395-796-555-989l-40-49l-13,31c-24,58-44,216-50,393l-6,176l50,84c353,595,466,800,659,1194
	c215,440,315,684,390,944c118,410,72,552-181,557C18866,20317,18814,20316,18800,20313z M18890,20059c0-252-132-623-445-1254
	c-137-277-351-674-377-700c-25-25,77,464,157,748c142,511,379,1010,590,1245C18882,20173,18890,20169,18890,20059z M12949,19245
	c173-162,184-558,25-882c-61-126-138-225-285-368c-122-119-393-334-405-322c-16,16,100,537,181,812c84,284,170,484,281,651
	c51,78,123,154,144,154C12896,19290,12923,19270,12949,19245z M19819,17973c25-90,1-196-74-327c-48-84-154-231-161-223
	c-8,7,36,196,68,292c37,113,125,295,143,295C19803,18010,19814,17993,19819,17973z M13777,17774c29-31,60-54,72-54c11,0,23-5,26-10
	c12-19-184-330-321-511c-80-105-200-239-215-239c-16,0-9,143,11,235c63,284,191,567,290,640c32,23,35,24,59,9
	C13713,17835,13748,17804,13777,17774z M12213,16833c130-222,217-451,302-798c94-381,121-581,112-840c-9-256-45-455-112-622
	c-33-83-89-175-125-208c-20-18-21-18-45,5c-62,58-144,280-194,525c-59,292-66,387-66,850c1,433,9,588,56,985c10,91,19,168,19,173
	C12160,16919,12170,16906,12213,16833z M20936,16239c12-50,17-122,18-224c0-163-14-226-70-318c-70-112-198-206-253-186
	c-71,27-123,119-123,218c1,104,37,185,134,303c58,70,270,290,274,285C20918,16315,20927,16280,20936,16239z M5522,19185
	c-38-17-49-39-86-175c-19-72-106-483-106-504c0-2-64-6-142-10c-270-14-495-71-542-138c-20-28-20-33,0-52c20-21,97-21,175-1
	c78,21,272,34,387,28c50-3,92-8,92-10s-16-133-35-291c-50-418-65-610-65-859c0-384,54-651,174-867c98-176,227-251,426-249
	c255,2,327,98,500,667l48,160l7-80c17-209,53-372,107-482c45-90,128-174,215-214c62-30,78-33,185-36c288-9,339,62,487,691
	c27,115,51,211,53,213c3,2,10-33,17-79c24-155,69-307,127-426c48-98,67-125,137-196c134-135,244-179,436-174c108,4,121,6,183,37
	c102,50,173,134,253,296c142,293,266,755,283,1059l7,120l80,27c44,15,108,41,142,59c34,17,67,31,72,31s1-30-10-67
	c-32-112-77-349-95-498c-21-176-15-467,11-559c64-226,234-396,455-452c89-22,250-15,339,16c139,49,254,170,356,375
	c77,154,105,236,141,410c23,110,27,156,28,303l1,173l56,30c143,77,276,213,380,388c48,80,60,107,52,120c-15,24-67,35-115,25
	c-38-8-48-17-105-99c-35-49-91-121-124-158c-59-65-156-147-175-147c-5,0-21,35-36,78c-62,173-182,337-310,420
	c-233,152-541,138-694-31c-25-28-51-63-57-75c-13-28-144-116-272-183c-137-71-129-72-145,13c-29,162-87,286-174,373
	c-102,102-228,146-355,126c-139-22-204-102-203-251c1-176,97-334,248-405c62-29,162-55,219-55c66-1,69-6,62-108c-4-49-18-143-32-208
	c-89-422-270-841-421-973l-36-32l-30,28c-159,151-281,541-363,1158c-40,306-40,306-146,329c-36,8-118-8-136-27c-8-8-28-70-43-138
	c-28-126-225-745-306-962c-54-145-104-255-146-320c-29-45-33-48-44-32c-8,10-25,52-38,94c-57,173-103,446-146,861
	c-43,421-53,482-90,515c-42,38-160,39-197,2c-8-8-25-63-38-123c-33-150-116-387-266-752c-71-173-228-494-263-537l-24-30l-25,85
	c-62,206-92,412-107,745c-10,208-6,872,6,1052l6,82l481,4c512,4,537,7,668,57c93,36,110,84,38,109c-40,14-143,14-189,1
	c-100-30-253-30-847-4l-152,6l2,322c1,176-2,331-6,344c-5,12-21,29-37,37C5654,19204,5565,19204,5522,19185z M8447,18136
	c87-80,154-234,165-377c3-43,3-44-26-41c-123,13-246,191-246,354c0,51,22,118,39,118C8384,18190,8415,18166,8447,18136z M9741,18008
	c76-40,173-143,221-233c47-90,86-206,90-270l3-50l-50-13c-27-7-104-16-170-19c-118-5-121-4-175,24c-123,65-175,203-135,358
	c30,115,103,235,142,235C9675,18040,9709,18026,9741,18008z M9589,17314c67-13,119-15,241-10c85,3,174,9,197,12l42,6l-5-59
	c-9-105-44-273-78-377c-61-184-182-399-276-491l-42-40l-35,40c-43,49-97,159-118,240c-22,90-35,232-35,405c0,156,8,290,18,290
	C9501,17330,9542,17323,9589,17314z M17170,18705c-75-34-108-84-117-178c-5-61-5-64,26-90c78-65,251-42,307,41c44,64,38,166-12,212
	c-21,21-37,25-97,27C17228,18719,17194,18715,17170,18705z M18950,18713c-96-17-130-49-141-129c-9-68,0-91,48-124
	c30-20,52-26,116-29c97-4,147,10,181,50c50,59,21,172-54,210C19062,18710,18990,18721,18950,18713z M14221,16065
	c-100-23-159-44-251-91c-203-104-389-294-494-502c-150-296-163-710-35-1038c95-244,305-472,544-592c213-106,493-127,717-52
	c161,54,264,117,397,244c194,187,302,390,346,654c22,129,17,398-9,507c-58,242-148,406-316,575c-139,140-284,228-460,280
	C14561,16079,14318,16087,14221,16065z M14545,15688c109-23,260-118,343-216c141-168,196-328,195-567c-1-205-43-343-147-490
	c-198-277-517-368-799-227c-86,43-242,193-296,285c-47,80-87,198-102,297c-14,101-7,279,17,370c36,142,130,300,232,391
	C14158,15682,14335,15732,14545,15688z M15648,16016c-82-22-122-60-139-133c-19-84,16-161,90-202c32-17,64-25,127-29l84-5l-2-736
	l-3-736l-55-8c-71-10-126-47-151-100c-40-90-12-187,69-235l47-27l330-3c376-4,415,0,475,55c74,66,76,186,6,257c-42,41-97,56-215,56
	c-49,0-96,3-105,6c-14,6-16,64-16,561c0,354,4,553,10,551c5-1,219-331,476-733c256-401,470-736,476-742c8-10,59-13,194-13h184l2,922
	l3,921l55,12c116,24,162,71,168,171c6,87-21,134-97,172l-56,27h-345c-343,0-345,0-393-24c-70-34-101-91-95-174c8-126,72-169,261-175
	l117-4v-556c0-482-2-554-14-542c-8,8-222,341-477,740c-254,399-467,728-473,732C16166,16035,15700,16030,15648,16016z M17988,16016
	c-82-22-122-60-139-133c-19-84,16-161,90-202c32-17,64-25,127-29l84-5l-2-736l-3-736l-85-6c-47-3-98-13-115-21
	c-147-77-129-286,29-333c42-13,188-15,973-15h924l-3,343c-4,374-5,382-65,439c-54,51-127,62-198,29c-87-40-107-90-114-286l-6-150
	l-455-3c-250-1-465,0-478,3l-22,5l2,273l3,272h159h160l12-82c14-99,39-144,98-172c90-44,195-15,244,67l27,47v325v326l-26,49
	c-33,65-83,95-158,95c-110,0-172-67-187-200c-4-36-12-68-18-72c-15-10-288-10-304,0c-9,7-12,68-10,273l3,264h435h435l6-150
	c6-167,16-204,68-248c59-49,143-57,213-21c45,23,76,81,87,159c15,103,14,618-1,633C19760,16036,18055,16034,17988,16016z
	 M7260,15244c-193-51-339-201-385-395c-17-75-20-310-4-379c26-112,120-247,216-308c197-126,522-120,704,14c90,65,114,142,62,196
	c-44,46-89,39-158-22c-79-68-133-85-270-84c-89,0-121,5-166,23c-72,28-136,84-174,152c-30,53-30,56-30,209c0,147,1,158,27,212
	c35,76,98,142,167,175c48,24,67,28,141,27c151-1,244-54,274-156c23-80,69-112,127-87c50,20,59,52,59,209v142l-29,29
	c-35,35-72,37-120,8l-33-20l-62,25C7495,15261,7366,15272,7260,15244z M8403,15245c-115-31-226-108-299-207c-84-114-116-219-115-378
	c1-184,49-308,166-425c212-212,501-220,713-20c156,146,220,354,178,575c-24,127-73,219-165,310C8741,15238,8570,15290,8403,15245z
	 M8643,15042c66-30,143-106,176-175c104-215,27-479-168-574c-76-38-182-39-256-3c-70,34-140,108-178,188c-30,64-32,73-32,187
	s2,123,32,187c48,103,140,183,238,209C8499,15073,8596,15063,8643,15042z M4571,15216c-13-7-30-24-37-37c-39-71,16-139,112-139h34
	v-374v-373l-52-6c-42-5-59-13-80-37c-31-34-35-58-13-99c26-51,41-52,441-49c357,3,371,4,425,26c77,31,141,89,169,154
	c59,138,5,301-129,389l-24,15l35,46c127,167,37,411-178,478c-61,18-91,20-373,20C4666,15229,4589,15226,4571,15216z M5245,15018
	c45-24,66-52,71-95c7-53-22-96-88-130c-51-26-59-27-203-28h-150l-3,124c-1,69,0,131,3,139C4883,15049,5203,15041,5245,15018z
	 M5265,14549c22-8,61-34,88-60c40-38,47-51,47-83c0-48-13-72-53-93c-27-15-65-18-254-21l-223-4v135c0,73,3,137,8,141
	C4890,14577,5221,14564,5265,14549z M5734,15220c-30-12-54-49-54-83c0-58,33-87,110-97l45-5v-370c0-321-2-370-15-372
	c-69-9-95-18-116-38c-32-32-32-84,0-122l24-28l491-3l491-3v166c0,176-9,223-48,244c-34,18-79,13-109-13c-26-23-28-30-31-115l-4-91
	h-244h-244v140v141l83-3l82-3l6-44c11-83,95-119,156-67l28,24l3,152c2,84,1,168-3,187c-9,51-45,83-93,83c-59,0-85-31-94-110
	c-3-24-6-25-85-28l-83-3v141v140l223-2l222-3l5-87c6-105,25-133,89-133c83,0,101,47,101,263v152l-457-1
	C5961,15229,5745,15225,5734,15220z M9123,15210c-63-38-50-135,22-161l35-13v-372v-372l-33-6c-63-12-97-74-73-131
	c22-51,50-57,260-53l188,3l24,28c39,45,30,113-19,139c-12,6-51,14-87,17l-65,6l-3,268c-2,192,1,268,9,265c6-2,56-106,112-231
	l102-227h85h86l94,213c51,116,99,223,106,237c11,21,13-19,14-252v-278h-50c-60,0-114-20-129-48c-22-41-13-88,20-116
	c30-26,31-26,218-26c173,0,190,2,214,20c26,21,47,26,47,12c0-28,62-32,531-32h481l-4,173c-2,116-8,181-17,198c-31,63-132,64-160,2
	c-7-14-15-61-18-104l-6-79h-237c-208,0-239,2-244,16c-8,20-8,228,0,248c5,13,22,16,84,16c84,0,89-4,90-68c0-65,102-97,152-47
	c30,30,38,76,38,216c0,178-23,229-103,229c-51,0-82-32-91-93l-7-47h-79c-62,0-79,3-84,16c-8,20-8,228,0,248c5,14,35,16,224,16h217
	l5-86c4-76,7-88,31-112c35-35,96-37,129-4c22,21,23,31,26,207l3,185h-460h-460l-35-30c-33-30-35-30-45-12c-17,32-66,42-200,42h-126
	l-124-280c-67-154-126-280-130-280c-6,0-89,177-230,493l-30,67h-133C9174,15230,9150,15227,9123,15210z M10380,15042l50-5v-372v-372
	l-46-6c-25-2-59-14-74-26c-24-17-30-18-40-6c-7,8-30,20-51,27l-39,11v373v374l24,6c13,3,34,17,47,30l23,24l27-26
	C10322,15054,10343,15046,10380,15042z M12860,13758c-153-60-259-261-318-603c-34-195-43-335-41-594l3-245l-40-25
	c-21-13-111-65-199-114l-160-89l-15,23c-8,13-88,121-177,241c-244,326-293,404-327,517c-9,30-16,77-16,105c0,56,30,133,55,142
	c26,10,75-17,129-70c57-56,196-246,229-314c24-47,53-61,93-43c31,14,31,42-1,137c-39,117-111,251-166,309c-77,81-145,108-291,113
	c-98,4-127,1-186-17c-132-40-210-129-233-267c-16-90,4-189,60-308l40-86l-45-108c-25-59-93-226-150-372c-155-392-196-485-205-469
	c-4,8-15,84-24,169c-13,113-19,282-24,620c-6,428-7,468-24,494c-27,41-80,60-150,52c-57-6-60-5-100,29c-158,136-393,133-551-6
	c-174-154-329-567-343-918c-7-165,4-247,48-362c56-147,140-209,284-209c103,0,147,13,196,57c56,51,113,175,206,448l78,230l7-145
	c18-370,107-678,216-754c35-25,55-31,113-34c76-5,143,14,173,47c45,50,166,363,401,1039c3,7,9,11,14,8c28-17,341-475,341-499
	c0-5-43-49-95-99c-112-106-166-184-202-293c-24-71-27-96-27-225c-1-139,0-147,28-207c62-135,189-203,379-203c280,1,502,174,540,421
	c21,136-31,351-138,563l-53,106l57,34c86,51,272,149,276,145c2-2,20-103,40-224c83-502,111-547,330-533c77,5,115,28,129,79
	c25,93,78,249,87,255c14,9,60-29,216-179c203-195,368-297,535-331c219-45,389,16,425,153c10,39-26,61-99,61c-68,0-104-15-136-59
	c-28-39-56-40-125-5c-102,52-174,108-302,238c-71,72-150,148-174,168c-25,21-43,39-40,41c2,2,35,16,73,32c112,46,213,119,326,234
	c150,153,210,265,210,392c0,90-17,137-71,191c-36,36-61,51-114,67c-150,47-300,14-418-89c-96-85-290-367-392-570c-25-51-49-89-52-86
	c-6,6-46,252-57,351l-7,60l71,54c210,159,348,350,416,577c35,115,39,294,11,389c-49,160-148,299-251,353
	C13084,13785,12940,13790,12860,13758z M13055,13609c77-86,120-221,118-374c-2-156-56-316-159-471c-50-75-120-151-131-141
	c-4,5-8,149-8,320c0,329,9,421,56,572c18,60,62,135,78,135C13014,13650,13035,13631,13055,13609z M10380,12940c22-11,62-40,90-65
	s57-45,65-45c7,0,17-5,20-10c9-15-58-190-195-503c-159-366-174-399-227-496c-40-74-47-82-57-65c-19,33-14,420,7,544
	c49,279,125,499,212,613c20,26,38,47,41,47S10359,12951,10380,12940z M13692,12558c6-13,12-54,11-91c0-59-6-79-41-150
	c-84-171-284-356-424-395c-20-5-39-8-42-5c-8,8,107,230,166,320c104,160,267,343,305,343C13674,12580,13685,12570,13692,12558z
	 M11884,11637c55-124,79-218,80-322c1-90-2-105-27-157c-15-31-46-73-69-94l-41-37l-33,36c-89,96-94,359-12,522c21,40,67,105,75,105
	C11859,11690,11872,11666,11884,11637z M19373,13601c-63-16-79-34-100-118c-12-43-49-171-83-284l-63-206l-111-7
	c-181-12-276-39-285-81c-7-38,24-45,191-45c140,0,158-2,158-17c0-29-159-549-247-806c-91-266-152-423-168-428c-17-7-36,159-38,346
	c-1,99,7,308,17,467c22,315,20,347-27,382c-23,17-43,21-106,21c-89,0-125-17-136-65c-4-16-9-30-12-30s-35,15-72,33
	c-63,31-70,32-186,31c-138-1-192-16-295-86c-167-111-297-378-366-753c-10-57-44-163-94-290c-43-110-81-210-85-223s-8-22-10-20
	s0,120,6,262c10,289,0,489-28,576c-35,109-116,156-265,154c-109-2-183-39-300-152c-155-149-259-305-350-520c-28-67-55-119-58-115
	c-4,5-17,52-30,106l-22,98l70,137c88,172,168,361,221,525c63,194,74,253,74,417c0,129-2,153-25,222c-64,192-165,270-353,271
	c-112,1-176-19-240-75c-79-70-150-243-175-431c-19-137-7-123-102-115c-46,3-117,7-159,7l-76,1l-6,213c-9,291-15,307-115,307
	c-53,0-75-16-105-75c-26-52-69-205-97-344l-26-134l-109-25c-135-30-212-58-242-88c-28-28-22-49,19-63c45-16,74-14,179,14
	c121,32,141,32,134,3c-12-55-36-310-47-500c-28-500,50-772,250-870c65-32,70-33,192-33c116,0,129,2,185,28c79,37,152,93,244,189
	l77,79l39-82c65-132,131-176,249-167c120,10,144,38,211,253c101,324,209,521,375,680l62,60l-8-185c-13-272-11-672,4-755
	c29-161,82-268,148-300c44-21,126-31,178-21c47,9,92,48,120,105c13,25,49,119,82,208c32,90,62,163,66,163s24-11,44-25
	c64-43,133-58,258-53c96,3,119,7,171,31c112,52,189,166,281,417l39,105l7-55c23-180,33-232,53-296c48-155,127-217,275-216
	c95,0,164,27,215,83c43,48,108,175,169,334c74,191,68,189,82,32c33-345,125-639,234-748c61-61,130-84,234-77c91,6,135,29,212,109
	c153,162,259,415,318,765c38,224,42,277,23,293c-25,20-89,25-128,8l-35-14l-28-129c-36-169-98-401-131-489c-43-113-113-247-168-320
	c-29-38-56-69-61-70c-24-1-65,173-98,417c-20,145-23,205-22,538c0,279,4,421,17,554c9,99,19,182,22,184c5,5,298-32,502-63
	c240-38,328-31,328,25c0,33-42,55-156,84c-125,32-376,73-533,88l-126,12v28c0,15,16,136,36,268c19,132,34,252,32,267
	c-2,18-14,33-33,44C19499,13602,19417,13612,19373,13601z M16251,13157c93-199,75-459-56-794c-26-68-51-123-55-123
	c-18,0-35,216-35,435c1,213,3,238,27,342c29,121,60,203,78,203C16216,13220,16234,13191,16251,13157z M15760,12582
	c0-183,40-476,96-715l26-109l-38-55c-81-118-210-252-297-308l-27-17l-20,44c-34,78-51,186-61,398c-9,186-3,834,8,853c2,4,74,7,159,7
	h154V12582z M18198,12641c20-11,52-33,69-50l33-30l-51-113c-28-62-91-210-141-328c-117-278-208-465-251-515l-35-40l-7,45
	c-22,148,110,685,222,902c32,61,100,148,117,148C18158,12660,18177,12651,18198,12641z M7077,13276c-174-65-215-284-96-525
	c70-141,193-247,363-312l58-23l-6-48c-23-171-181-584-277-725c-36-51-87-103-102-103c-14,0-85,103-120,175c-38,77-113,321-142,457
	c-14,68-40,211-59,319c-36,209-46,241-87,272c-32,23-128,28-175,9c-26-11-33-23-53-90c-48-165-230-596-346-820
	c-70-133-169-292-183-292s-31,124-43,304c-14,194-5,700,15,900c8,77,12,145,10,151c-13,34-117,46-178,21c-74-31-135-148-186-358
	c-64-266-84-454-77-717c5-205,22-292,77-401c65-129,132-172,280-178c177-7,250,43,353,246c65,127,124,276,203,507
	c31,94,60,174,64,178s10-22,14-58c34-335,164-611,344-732c78-53,182-78,286-70c209,16,313,124,421,436c38,113,104,357,130,486
	c9,44,17,81,19,82c1,2,27-1,57-6s75-12,102-16l47-6v-102c0-170,37-366,97-516c64-159,162-279,272-334c58-28,75-32,151-32
	c78,0,92,3,153,34c161,82,309,287,406,565c33,93,121,439,121,474c0,27-28,42-78,42c-56,0-76-22-102-115c-112-394-197-585-332-743
	c-44-51-124-122-137-122s-58,92-80,162c-43,141-68,424-56,622l7,114l65,32c129,64,265,195,326,315c68,135,58,315-21,398
	c-55,58-96,72-218,72c-107,0-112-1-186-38c-131-64-230-193-307-397c-38-102-71-233-71-285c0-37-19-40-113-19l-82,19l-2,160
	c-1,192-19,288-72,400c-46,96-110,170-183,210c-45,25-66,30-143,32C7146,13289,7102,13286,7077,13276z M7280,13109
	c94-96,138-221,147-416c7-151,2-154-96-55c-123,123-188,319-150,457c12,42,26,65,40,65C7225,13160,7252,13137,7280,13109z
	 M8443,13041c73-88,53-251-48-371c-42-51-144-139-161-140c-23,0,34,251,87,388c29,73,75,152,89,152
	C8415,13070,8429,13057,8443,13041z M6201,10549c-129-25-285-148-350-276c-57-114-76-266-50-409c28-156,145-307,293-380
	c80-39,81-39,201-39s122,0,198,38c275,136,387,495,245,785c-44,91-152,199-239,240C6395,10557,6304,10569,6201,10549z M6417,10344
	c186-89,257-347,150-547c-55-104-147-168-254-175c-148-10-280,94-329,259c-26,86-16,207,23,291C6090,10348,6259,10420,6417,10344z
	 M11610,10544c-166-44-283-149-348-311c-25-65-26-77-27-248v-180l36-75c62-128,147-207,276-257c90-34,273-43,376-19
	c92,22,175,66,225,120c34,37,42,53,42,83c-1,42-13,63-47,81c-40,22-68,14-127-38c-77-67-136-84-271-78c-81,4-112,10-157,30
	c-73,34-132,95-159,166c-18,50-20,73-17,187c5,151,19,194,89,270c77,83,172,115,286,95c117-20,180-67,203-153c14-54,40-77,85-77
	c71,0,95,49,95,195c0,50-5,107-10,127c-19,66-82,88-134,47l-27-21l-62,26C11825,10561,11713,10571,11610,10544z M17021,10545
	c-175-40-300-197-277-349c10-60,52-140,93-177c57-49,127-76,297-114c175-39,209-52,236-98c29-47,25-74-18-117c-85-85-279-94-407-19
	c-18,10-42,42-60,76c-34,65-65,87-110,75c-43-12-64-48-71-123c-9-93,3-174,30-205c29-34,87-37,118-7l21,22l38-20
	c63-32,148-49,244-49c130,0,220,28,307,94c133,102,140,323,13,434c-66,59-116,77-365,132c-112,24-154,47-176,94
	c-43,90,52,179,191,180c117,1,203-47,221-122c19-77,59-107,122-90c48,13,62,54,62,178c0,109-14,161-48,179c-29,15-64,14-90-5
	c-21-14-27-13-89,11C17221,10558,17113,10566,17021,10545z M4770,10523c-50-18-70-74-46-122c12-22,28-34,61-44c44-12,49-19,195-232
	l151-220l-3-130l-3-130l-95-5c-52-3-101-9-108-14c-20-13-40-64-34-91c2-13,15-34,29-47c24-23,29-23,276-26c165-2,265,0,289,8
	c70,20,87,106,31,150c-21,17-41,20-114,20h-89v138v138l145,215c140,206,147,214,185,222c72,15,105,96,60,145c-29,31-51,34-204,30
	c-125-3-137-5-158-26c-16-16-23-34-23-63c0-34,6-45,33-67l32-27l-76-115c-42-63-80-118-83-122c-4-5-45,49-91,118
	c-68,102-81,127-70,134c8,6,19,10,23,10s15,16,23,35c12,31,12,39,0,70c-9,21-26,39-41,45C5038,10530,4797,10533,4770,10523z
	 M6905,10518c-32-18-44-40-45-79c0-42,30-76,77-85l32-6l3-312c3-306,3-312,27-361c32-66,132-162,207-200c55-28,66-30,174-30
	c110,0,119,2,181,32c80,40,159,120,197,200l27,58l3,306l3,307l32,6c47,9,77,43,77,85c-1,79-31,91-235,91c-210,0-236-10-235-93
	c1-59,43-87,131-87h50l-3-294l-3-294l-30-43c-100-142-337-127-406,25c-17,37-19,70-19,324v282h49c88,0,130,28,131,87
	c1,83-25,93-237,93C6985,10530,6918,10525,6905,10518z M9165,10518c-32-18-44-40-45-79c0-48,34-80,94-86l46-6v-353v-354h-36
	c-92,0-136-81-80-147l24-28l239-3c267-4,304,2,328,48c22,43,19,68-14,101c-29,29-30,29-150,29h-121v94v94l148,3c148,4,148,4,223,41
	c99,49,161,105,196,176c24,49,28,69,28,142c0,68-5,94-23,131c-50,102-145,174-260,198C9689,10534,9192,10533,9165,10518z
	 M9742,10340c99-28,154-130,114-209c-44-84-134-121-298-121h-108v170v170h128C9648,10350,9722,10345,9742,10340z M10282,10520
	c-33-14-54-70-41-109c6-17,21-37,33-44c11-6,75-14,141-17l120-5v-350v-350l-125-5c-69-3-131-9-138-14c-20-13-40-64-34-91
	c2-13,15-34,29-47c24-23,26-23,331-26c169-2,322,0,341,3c46,9,81,46,81,87c-1,71-37,88-184,88h-116v354v354l126,4
	c124,3,126,3,150,31c31,36,31,78,0,114l-24,28l-334,2C10448,10528,10295,10525,10282,10520z M12340,10523c-49-18-70-74-46-121
	c16-31,59-52,107-52h29v-355v-355h-44c-79,0-125-64-92-128c23-44,59-52,248-52c197,0,229,8,247,63c24,70-13,110-108,117l-66,5l-3,96
	l-3,97l52,46c28,25,59,46,68,46c33,0,114-64,159-124c24-34,75-125,113-203l69-143h96c109,0,159,16,174,55c16,43,12,65-19,96
	c-25,25-37,29-83,29h-54l-33,74c-48,110-122,216-203,290c-61,57-69,69-57,80c97,93,308,266,324,266c35,0,83,36,90,69
	c8,38-12,81-45,98c-30,15-286,18-325,3c-35-13-59-69-44-107c6-15,17-35,24-43c12-14-5-32-137-145c-83-72-155-131-160-133
	c-4-2-8,55-8,127v131h50c28,0,66,6,84,14c65,27,69,121,6,153C12725,10530,12373,10535,12340,10523z M14600,10517
	c-52-26-62-104-19-143c15-14,42-19,109-22c54-3,90-9,90-15c0-11-254-647-271-679c-6-11-21-18-40-18c-36,0-89-47-89-79
	c0-41,20-72,57-87c29-13,70-15,204-12c161,3,168,4,193,27c19,18,26,35,26,62c0,54-26,80-85,86c-78,7-77,6-53,63l21,50h221h222l17-47
	c9-27,17-51,17-55c0-5-22-8-49-8c-84,0-126-54-97-124c21-50,58-58,253-54c155,3,162,4,187,27c55,51,19,151-53,151c-19,0-35,7-42,18
	c-6,9-88,208-183,442l-172,425l-220,2C14682,10529,14618,10527,14600,10517z M15035,10115c36-87,65-164,65-172c0-10-29-13-134-13
	c-74,0-137,4-140,8c-3,5,19,67,48,138c80,195,86,207,91,203C14967,10276,14999,10203,15035,10115z M17755,10518c-32-17-45-39-45-77
	c1-58,41-91,111-91h29v-354v-353l-52-5c-62-6-88-32-88-87c0-27,7-44,26-62l26-24h456h457l3,130c2,72,0,150-3,174
	c-11,75-65,109-129,80c-33-16-39-30-45-124l-6-80l-224-3c-173-2-226,1-233,10c-9,15-11,219-2,242c5,13,22,16,79,16c78,0,84-5,85-66
	c0-33,45-68,87-68c26,0,42,7,59,28c23,26,24,33,24,197c0,167,0,170-25,194c-54,55-135,20-149-63l-6-43l-78,3l-77,3v125v125h210h210
	l5-83c4-73,8-86,29-103c35-28,92-25,122,7c23,25,24,32,27,195l4,169h-434C17914,10529,17769,10526,17755,10518z M18945,10518
	c-32-17-45-39-45-77c1-68,40-91,156-91c41,0,74-2,74-5c0-2-61-156-136-342s-139-344-141-350c-3-7-21-13-40-13c-76,0-113-98-57-151
	c25-23,32-24,187-27c187-4,229,4,253,49c34,67-13,129-97,129c-27,0-49,4-49,9s9,30,20,55l19,46h219h219l21-50c24-57,25-56-53-63
	c-59-6-85-32-85-86c0-27,7-44,26-62c25-23,31-24,197-27c149-2,177,0,207,15c82,42,58,150-38,163l-37,5l-179,443l-180,442h-220
	C19045,10530,18958,10525,18945,10518z M19384,10105c35-88,62-163,60-167c-3-5-66-8-140-8c-100,0-134,3-134,13c0,25,133,338,141,330
	C19315,10269,19348,10193,19384,10105z M19917,10523c-10-10-8-342,3-388c11-48,41-75,84-75c71,1,95,52,96,208v82h95h95v-355v-355
	h-91c-87,0-92-1-120-29c-54-54-26-131,52-146c19-3,145-5,281-3c245,3,247,3,272,27c32,30,35,87,7,122c-17,21-29,24-118,29l-98,5
	l-3,353l-2,352h99h99l4-121c3-118,4-121,31-145c36-31,78-31,114,0l28,24l3,211l3,211h-464C20132,10530,19920,10527,19917,10523z
	 M13102,8970c-90-19-111-41-175-190c-22-52-169-242-234-303l-30-28l-109,16c-225,33-376,31-619-11c-139-24-140-24-140-64
	c0-52,24-60,196-60c86,0,183-6,235-15c103-18,233-50,242-60c12-12-317-305-342-305c-6,0-22,19-35,43c-94,166-260,293-451,344
	c-81,22-308,24-390,4c-92-22-211-85-271-143c-135-129-178-281-128-443c24-80,28-59-66-363c-78-256-187-563-257-727
	c-90-211-222-455-247-455c-9,0-22,62-41,200c-6,41-15,376-20,745c-11,860-25,1038-96,1195c-55,122-171,190-328,190
	c-92,0-160-18-231-61c-230-139-573-597-823-1099c-61-123-108-206-109-195c-2,11-23,243-48,515s-50,538-55,590c-14,122-48,323-60,354
	c-13,35-60,56-125,56c-82,0-111-19-130-83c-48-166-104-1043-112-1767c-6-492,1-646,37-834c41-209,103-261,310-260c81,0,103,4,152,26
	c31,14,62,37,69,50c9,17,14,93,15,278c2,235,5,269,34,430c98,554,273,971,581,1387c117,158,365,401,387,378c12-12,5-347-12-550
	c-9-104-21-257-28-340c-7-82-12-312-13-510c0-307,3-374,18-455c23-119,69-258,108-327c94-163,249-253,439-253c117,0,230,38,293,98
	c82,78,184,305,289,642c33,107,64,199,68,203c4,5,10-34,14-85c37-498,171-725,472-802c84-22,304-22,388,0c243,62,398,250,481,582
	c88,353,92,696,13,1109l-21,113l29,22c79,62,203,176,330,306l141,143l37-7c21-3,40-12,43-20c2-7-9-97-26-201
	c-97-600-124-1225-66-1556c69-392,255-681,531-824c139-73,212-88,409-87c151,1,181,4,270,27c262,70,435,208,503,400
	c21,60,25,90,25,185c0,139-9,153-102,160c-108,8-151-21-151-101c0-56-29-170-57-227c-34-71-131-166-210-208c-34-18-98-42-142-53
	c-71-18-83-18-113-6c-147,62-263,312-303,652c-34,290-30,597,15,1379c10,181,23,332,27,337c4,4,77-3,162-16c236-37,430-51,537-38
	c158,20,281,74,272,120c-10,53-132,84-256,65c-67-11-89-9-280,24c-114,19-254,45-312,57l-105,22l1,90c1,50,3,178,5,285
	c5,226-1,246-81,287C13278,8973,13168,8984,13102,8970z M11578,8129c66-32,147-103,196-172c47-67,96-158,96-180
	c0-18-177-100-261-121c-36-9-93-16-127-16c-54,0-65,4-97,31c-107,94-75,353,58,465C11478,8165,11505,8164,11578,8129z M11949,7508
	c81-393,38-835-109-1134c-58-117-133-206-208-247c-49-27-53-27-82-12c-67,35-132,176-169,369c-35,182-86,660-93,883l-3,83l150,4
	c168,4,284,26,405,74c41,16,80,30,87,31C11933,7560,11943,7536,11949,7508z M16507,8557c-80-25-105-73-164-317c-19-80-37-147-39-149
	s-20,11-41,29c-20,18-67,47-103,64c-64,31-67,31-220,31c-151,0-157-1-235-33c-163-66-284-190-385-397c-100-205-153-401-166-622
	c-16-258,53-520,167-634c67-67,135-93,260-97c124-5,188,10,263,60c103,68,214,247,341,552c9,21,18,36,21,33c3-2,9-83,14-178
	c12-203,23-305,52-449c57-292,197-625,316-752c60-65,107-81,220-77c106,5,132,18,174,95c69,122,173,516,258,975
	c28,151,66,353,84,449c39,201,37,209-36,224c-32,6-58,5-89-5c-58-19-41,40-253-834c-76-315-126-489-137-478c-10,11-35,140-56,293
	c-28,199-25,1006,6,1480c13,195,24,420,25,500c1,164-7,191-63,224C16680,8568,16562,8575,16507,8557z M16055,8021
	c28-16,81-60,118-99l68-69l-135-341c-144-363-224-534-313-672c-78-120-114-163-125-152c-16,16-38,190-38,297c0,338,113,746,266,962
	c38,52,87,102,104,103C16003,8050,16028,8037,16055,8021z M14003,5231c-135-46-207-158-272-421c-28-115-62-288-91-467l-12-73h-125
	c-185,0-281-30-405-128c-155-121-273-361-342-692c-57-274-242-989-261-1008c-11-11-14,7-25,132c-13,162-13,442,0,667
	c33,591,32,828-7,907c-26,54-94,85-187,86c-82,0-134-15-165-48c-12-13-37-63-55-112c-62-166-189-355-338-501c-93-92-259-219-400-306
	l-93-58l-15,23c-61,92-204,285-341,458c-233,295-331,428-358,485c-32,66-39,152-17,210c17,45,85,115,110,115c50,0,209-97,305-186
	c56-51,262-297,329-391c20-28,30-33,62-33c30,0,43,6,60,27c19,24,21,35,15,83c-21,168-128,374-256,496c-168,158-380,235-607,221
	c-122-8-196-27-298-77c-103-50-171-111-214-191c-65-123-50-253,47-403c48-74,67-98,319-406c239-293,474-618,474-656c0-6-31-32-69-57
	c-226-150-389-332-497-552c-68-140-94-245-94-386c0-310,168-555,448-652c79-27,102-30,248-35c140-4,171-2,244,17
	c239,60,398,209,482,451l33,95l-1,205c0,199-1,209-32,325c-42,153-105,311-198,496c-41,81-74,149-74,153c0,3,39,31,88,62
	c141,91,300,206,402,292c52,44,96,76,98,71c2-4-4-70-13-146c-37-308-28-612,25-825c56-227,210-458,348-521c40-19,65-22,162-22
	c107,0,118,2,162,27c36,22,52,40,71,80c25,53,108,304,122,365c3,18,8,33,10,33c3,0,35-30,72-68c74-73,173-129,273-153
	c81-20,281-18,355,5c109,33,174,74,284,183l104,103l34-27c156-126,290-197,448-240c90-23,118-26,275-27c116,0,190,4,219,13l44,13
	l40-49c144-172,372-335,561-400c71-24,96-28,201-28c139,0,188,13,287,77c230,148,411,470,482,860c27,145,57,413,49,434
	c-14,36-152,50-198,20c-18-12-26-30-35-88c-70-424-170-703-331-919c-56-76-177-194-209-204c-42-13-173,97-275,233
	c-64,85-155,254-155,287c0,9,36,55,80,101c197,209,359,529,426,845c12,58,18,125,17,214c0,111-4,143-27,218c-69,231-197,391-348,439
	c-89,27-233,27-319-2c-179-59-303-202-390-451c-79-222-114-470-106-743c6-211,30-358,83-511c51-147,51-143,19-155
	c-70-27-158-3-257,70c-137,101-249,280-304,486l-27,101l31,79c82,215,184,579,222,794c51,290,65,616,35,810c-39,254-122,417-232,454
	C14172,5255,14068,5254,14003,5231z M14206,4832c24-105,30-436,10-598c-18-149-73-441-88-464c-19-30,9,1131,28,1180
	C14164,4970,14186,4919,14206,4832z M15404,4061c183-249,171-606-33-1004c-71-136-122-213-131-196c-10,18-27,196-35,359
	c-7,146,8,419,30,540c32,175,92,350,121,350C15363,4110,15384,4088,15404,4061z M13578,4083c19-17,19-22,6-128
	c-32-266-28-597,11-819c19-106,67-261,107-340l30-59l-39-56c-85-124-255-271-314-271c-24,0-78,65-105,126c-72,163-76,450-13,879
	c46,314,119,532,214,643C13515,4104,13545,4111,13578,4083z M11010,2678c67-141,130-317,156-439c14-62,19-125,18-244
	c0-149-2-166-28-240c-68-197-197-307-323-275c-156,39-299,201-348,395c-21,84-19,225,5,321c36,143,124,299,246,433
	c52,57,188,171,205,171C10947,2800,10978,2745,11010,2678z M12235,4922c-64-22-137-73-171-118c-34-44-39-115-11-158
	c34-51,97-71,222-71c121,1,181,19,239,73c89,84,85,217-10,266C12449,4943,12305,4947,12235,4922z"/>
</svg>
