<?xml version="1.0" standalone="no"?>
<!DOCTYPE svg PUBLIC "-//W3C//DTD SVG 20010904//EN"
 "http://www.w3.org/TR/2001/REC-SVG-20010904/DTD/svg10.dtd">
<svg version="1.0" xmlns="http://www.w3.org/2000/svg"
 width="2500.000000pt" height="2500.000000pt" viewBox="0 0 2500.000000 2500.000000"
 preserveAspectRatio="xMidYMid meet">

<g transform="translate(0.000000,2500.000000) scale(0.100000,-0.100000)"
fill="#000000" stroke="none">
<path d="M12307 24216 c-131 -55 -242 -176 -392 -427 -161 -271 -366 -744
-482 -1114 -21 -66 -32 -89 -43 -87 -8 2 -55 9 -103 15 -214 26 -421 -42 -578
-191 -145 -136 -270 -378 -318 -613 -9 -43 -18 -59 -36 -69 -14 -7 -27 -11
-29 -9 -2 2 -10 67 -16 144 -23 270 -111 505 -237 632 -187 187 -538 227 -795
91 -77 -41 -162 -132 -198 -212 -17 -36 -51 -97 -76 -137 -163 -251 -269 -648
-250 -929 22 -310 122 -503 334 -641 202 -132 503 -157 717 -59 258 117 451
467 501 905 6 57 16 74 39 75 6 0 10 -41 11 -103 1 -127 16 -202 60 -295 68
-142 197 -239 372 -278 58 -13 106 -16 211 -12 132 5 200 20 323 73 13 5 19 0
24 -22 96 -426 206 -661 366 -779 80 -59 144 -79 248 -79 149 0 213 46 336
241 74 119 177 332 259 540 l68 171 54 -33 c106 -64 244 -71 360 -20 105 48
223 188 339 401 l49 90 7 -40 c4 -22 7 -61 7 -86 1 -67 36 -191 72 -260 38
-71 83 -113 159 -148 47 -22 69 -25 155 -26 90 0 106 3 158 29 42 20 71 44
103 84 40 52 253 427 385 679 30 57 57 103 60 103 3 0 9 -42 12 -92 16 -258
109 -390 310 -444 29 -8 99 -14 158 -14 257 0 382 99 570 453 l49 92 0 -45 c0
-165 -49 -775 -64 -794 -6 -8 -92 -42 -191 -77 -99 -34 -222 -79 -274 -100
l-94 -39 -46 34 c-117 85 -226 119 -381 119 -222 0 -396 -83 -576 -276 -242
-260 -384 -609 -384 -942 0 -428 199 -768 550 -941 101 -50 208 -75 348 -81
501 -22 881 271 1142 882 158 370 251 718 317 1188 l27 199 71 31 c142 63 385
187 473 241 188 116 410 316 474 427 34 58 63 159 54 192 -12 47 -122 62 -180
23 -13 -8 -39 -41 -57 -73 -38 -67 -209 -247 -319 -336 -41 -33 -112 -85 -158
-115 -83 -54 -307 -172 -327 -172 -7 0 -8 32 -3 92 14 187 20 953 10 1188 -12
261 -21 303 -69 336 -60 40 -195 38 -252 -3 -21 -16 -28 -32 -34 -79 -28 -200
-220 -654 -374 -886 -64 -97 -192 -248 -209 -248 -36 0 -60 410 -44 743 19
416 23 553 16 581 -12 48 -86 68 -167 46 -107 -30 -236 -283 -308 -605 -24
-107 -69 -209 -178 -410 -125 -228 -276 -490 -350 -603 -67 -104 -165 -222
-184 -222 -4 0 -13 33 -20 73 -15 93 -6 439 21 792 11 143 21 300 23 348 2 86
1 89 -26 112 -52 45 -155 45 -223 -1 l-36 -25 -35 40 c-20 23 -62 54 -101 73
-60 30 -76 33 -174 37 -87 3 -120 -1 -176 -18 -84 -25 -179 -86 -252 -160
-142 -146 -312 -457 -382 -700 -21 -76 -29 -223 -18 -371 4 -49 -3 -73 -64
-230 -131 -332 -254 -582 -364 -735 -32 -44 -64 -80 -72 -80 -21 0 -75 107
-100 197 -39 144 -77 465 -100 845 l-11 181 59 99 c178 294 467 849 587 1128
233 539 335 932 305 1183 -15 121 -41 207 -83 268 -47 71 -83 88 -192 91 -77
3 -98 0 -148 -21z m184 -193 c80 -186 60 -436 -63 -791 -114 -332 -304 -736
-549 -1168 -39 -69 -72 -124 -74 -122 -5 5 24 216 55 397 65 380 239 962 413
1388 76 186 162 343 188 343 5 0 19 -21 30 -47z m-1156 -1569 c26 -11 35 -19
31 -31 -14 -36 -67 -355 -81 -488 -19 -178 -19 -410 0 -575 l14 -125 -47 -42
c-55 -51 -166 -112 -210 -115 -45 -3 -74 17 -115 79 -73 110 -97 259 -79 478
24 295 96 535 206 689 90 126 185 170 281 130z m-1519 -65 c40 -39 69 -81 105
-154 72 -146 91 -227 96 -424 l5 -164 -108 6 c-179 10 -248 41 -331 151 -74
98 -106 176 -111 271 -2 44 1 106 8 138 14 67 58 160 98 203 27 30 31 31 105
29 l78 -1 55 -55z m3607 -52 c25 -25 59 -74 77 -112 l32 -67 -32 -137 c-26
-108 -44 -157 -88 -241 -72 -138 -210 -366 -278 -460 -70 -98 -177 -205 -197
-197 -38 14 -34 265 6 407 102 360 342 850 416 850 11 0 39 -20 64 -43z
m-3938 -712 c114 -56 263 -85 438 -85 l77 0 0 -27 c0 -16 -9 -64 -19 -108 -68
-279 -237 -541 -406 -629 -26 -14 -32 -13 -58 2 -49 28 -134 128 -166 194 -43
88 -77 217 -92 339 -12 104 -8 436 5 458 4 6 35 -13 79 -50 39 -33 103 -75
142 -94z m6039 -1035 c-28 -193 -69 -397 -114 -565 -69 -259 -193 -579 -286
-735 -167 -282 -406 -462 -593 -447 -120 9 -293 117 -401 250 -66 80 -144 239
-170 347 -46 185 -36 424 26 609 39 119 137 308 208 402 120 158 294 299 370
299 39 0 84 -26 139 -78 44 -43 59 -72 38 -72 -20 0 -202 -185 -250 -255 -97
-140 -170 -324 -171 -428 0 -103 48 -183 134 -223 44 -21 66 -24 164 -24 128
0 198 18 293 76 232 140 349 487 255 754 -14 41 -27 79 -28 85 -5 15 114 74
266 131 77 29 142 52 143 50 2 -1 -9 -81 -23 -176z m-652 -339 c-1 -188 -71
-342 -190 -421 -43 -29 -48 -30 -59 -13 -24 32 -16 136 17 222 32 84 114 220
176 297 32 39 39 43 47 29 5 -10 9 -61 9 -114z"/>
<path d="M7665 23934 c-187 -20 -359 -61 -450 -106 -22 -11 -68 -41 -103 -65
-54 -38 -63 -49 -60 -71 7 -60 127 -70 279 -23 179 55 193 56 494 53 154 -1
287 -5 296 -7 13 -5 14 -15 3 -88 -59 -407 -72 -1603 -25 -2227 31 -418 66
-677 106 -801 32 -95 114 -139 259 -139 86 1 144 16 178 47 20 17 20 25 14
253 -24 893 -31 1020 -86 1545 -54 517 -130 1322 -130 1371 l0 21 693 -1 c623
-1 699 1 766 16 137 32 185 75 137 123 -13 13 -41 28 -62 33 -36 9 -424 27
-1124 52 -297 11 -1123 21 -1185 14z"/>
<path d="M18800 20313 c-182 -38 -356 -209 -564 -556 -234 -389 -398 -808
-540 -1382 -88 -357 -117 -569 -117 -860 l0 -191 -94 -126 c-118 -158 -204
-253 -218 -239 -6 6 -10 88 -10 203 1 202 10 293 63 629 17 102 30 206 30 230
0 82 -51 119 -162 119 -86 -1 -139 -26 -171 -82 -54 -91 -167 -402 -213 -583
-20 -77 -52 -154 -139 -330 -63 -126 -135 -261 -160 -300 l-46 -70 5 75 c8
105 100 578 172 880 23 93 28 139 28 243 l1 129 -32 28 c-66 59 -202 66 -303
15 -91 -46 -347 -321 -467 -501 -20 -29 -39 -52 -43 -49 -4 2 -10 48 -13 102
-13 197 -41 296 -96 346 -67 60 -194 73 -280 29 -20 -10 -58 -48 -86 -84 -58
-76 -177 -296 -260 -478 -31 -69 -60 -129 -64 -133 -5 -4 -13 47 -20 115 -7
68 -19 170 -27 228 -29 200 -44 223 -157 228 -105 4 -113 -2 -157 -133 -79
-236 -235 -601 -361 -845 -86 -166 -177 -320 -189 -320 -15 0 -20 129 -10 259
17 216 51 426 120 726 43 188 70 332 70 377 0 61 -79 98 -172 83 -57 -10 -88
-46 -134 -155 l-37 -89 -27 37 c-37 51 -58 68 -115 94 -44 20 -66 23 -190 23
-120 0 -149 -3 -206 -23 -178 -61 -315 -194 -423 -410 -37 -74 -106 -266 -106
-296 0 -59 -280 -97 -465 -61 -75 14 -160 52 -190 85 -12 13 -12 19 -2 32 6 9
93 71 192 138 317 217 476 347 602 490 148 169 228 315 281 508 24 90 26 112
26 297 0 188 -2 205 -27 288 -51 166 -114 260 -207 311 -191 104 -414 64 -580
-103 -224 -226 -405 -598 -570 -1172 -60 -212 -146 -565 -175 -723 l-17 -89
-117 -116 c-180 -179 -297 -352 -355 -525 -16 -48 -16 -50 3 -69 20 -20 74
-27 122 -14 17 4 47 37 94 104 80 116 175 236 181 230 2 -2 -9 -109 -26 -238
-49 -384 -61 -538 -67 -871 -6 -336 2 -474 39 -693 61 -362 189 -664 339 -799
158 -142 430 -177 612 -79 189 103 300 444 301 923 1 281 -33 490 -144 892
-108 391 -216 669 -360 928 -38 68 -68 125 -67 127 2 1 59 -3 126 -9 116 -10
312 -1 402 18 25 6 27 4 33 -49 9 -66 53 -162 92 -199 16 -15 56 -39 89 -55
56 -26 68 -28 195 -28 127 0 138 2 191 28 70 34 143 106 216 213 31 46 58 83
59 81 1 -1 -2 -54 -9 -116 -23 -241 31 -431 144 -505 58 -39 150 -60 232 -53
83 7 146 36 188 85 60 72 180 335 348 767 4 11 11 -54 15 -150 10 -263 37
-402 86 -455 53 -57 187 -76 284 -40 63 24 76 48 76 139 0 233 145 696 313
1000 60 109 65 104 48 -47 -38 -351 -35 -677 6 -760 26 -52 80 -76 181 -81 89
-3 155 13 185 47 8 9 20 49 26 87 32 190 173 523 291 688 65 90 214 256 223
247 2 -3 -17 -79 -43 -170 -133 -461 -196 -859 -161 -1017 26 -114 136 -181
280 -171 79 6 137 33 181 85 26 32 142 255 164 316 7 22 26 13 26 -12 0 -34
70 -159 107 -192 21 -17 62 -44 93 -58 50 -24 66 -26 185 -26 121 0 134 2 188
27 64 30 164 120 229 207 23 31 45 60 49 65 4 5 22 -19 39 -54 81 -160 209
-225 399 -201 82 10 140 37 194 89 50 47 151 201 213 322 l49 95 11 -86 c14
-102 27 -148 61 -208 56 -97 138 -165 244 -202 88 -30 266 -31 352 -2 l59 20
10 -26 c84 -207 175 -339 270 -387 39 -20 62 -24 130 -24 110 0 145 18 255
134 149 156 324 427 430 668 27 59 51 106 55 105 25 -7 282 -406 352 -546 l37
-73 -58 -51 c-113 -99 -376 -363 -453 -455 -123 -147 -167 -258 -158 -394 10
-132 103 -261 231 -321 118 -56 303 -72 455 -41 246 51 443 233 508 470 8 32
18 111 21 175 8 176 -20 334 -93 524 l-35 90 38 33 c213 187 503 416 676 533
65 45 121 88 124 96 10 25 -40 61 -93 69 -27 4 -69 2 -98 -5 -117 -27 -360
-171 -630 -374 -70 -53 -131 -97 -135 -97 -5 0 -21 24 -36 53 -16 28 -80 135
-143 237 -187 299 -228 412 -220 595 6 122 33 199 91 262 48 52 77 55 133 14
102 -73 151 -177 192 -406 l18 -100 39 0 c37 0 41 3 62 45 31 64 46 169 41
282 -4 84 -9 106 -37 162 -69 140 -217 216 -420 216 -350 -1 -575 -229 -558
-565 3 -65 12 -121 26 -159 l21 -58 -65 -141 c-80 -173 -165 -329 -259 -472
-75 -114 -211 -288 -265 -339 l-31 -29 -34 75 c-56 123 -86 242 -101 398 l-6
65 86 103 c206 250 367 515 409 679 21 79 20 196 0 258 -22 62 -80 119 -146
141 -69 23 -215 16 -280 -13 -156 -70 -298 -328 -367 -665 -25 -120 -45 -343
-38 -420 l5 -58 -46 -40 c-26 -22 -62 -47 -80 -57 l-34 -18 -24 30 c-58 73
-77 218 -64 489 12 241 28 452 46 615 12 119 12 137 -1 157 -36 55 -188 58
-249 5 -28 -24 -70 -114 -105 -226 -68 -213 -395 -796 -555 -989 l-40 -49 -13
31 c-24 58 -44 216 -50 393 l-6 176 50 84 c353 595 466 800 659 1194 215 440
315 684 390 944 118 410 72 552 -181 557 -49 1 -101 0 -115 -3z m90 -254 c0
-252 -132 -623 -445 -1254 -137 -277 -351 -674 -377 -700 -25 -25 77 464 157
748 142 511 379 1010 590 1245 67 75 75 71 75 -39z m-5941 -814 c173 -162 184
-558 25 -882 -61 -126 -138 -225 -285 -368 -122 -119 -393 -334 -405 -322 -16
16 100 537 181 812 84 284 170 484 281 651 51 78 123 154 144 154 6 0 33 -20
59 -45z m6870 -1272 c25 -90 1 -196 -74 -327 -48 -84 -154 -231 -161 -223 -8
7 36 196 68 292 37 113 125 295 143 295 8 0 19 -17 24 -37z m-6042 -199 c29
-31 60 -54 72 -54 11 0 23 -5 26 -10 12 -19 -184 -330 -321 -511 -80 -105
-200 -239 -215 -239 -16 0 -9 143 11 235 63 284 191 567 290 640 32 23 35 24
59 9 14 -9 49 -40 78 -70z m-1564 -941 c130 -222 217 -451 302 -798 94 -381
121 -581 112 -840 -9 -256 -45 -455 -112 -622 -33 -83 -89 -175 -125 -208 -20
-18 -21 -18 -45 5 -62 58 -144 280 -194 525 -59 292 -66 387 -66 850 1 433 9
588 56 985 10 91 19 168 19 173 0 16 10 3 53 -70z m8723 -594 c12 -50 17 -122
18 -224 0 -163 -14 -226 -70 -318 -70 -112 -198 -206 -253 -186 -71 27 -123
119 -123 218 1 104 37 185 134 303 58 70 270 290 274 285 2 -2 11 -37 20 -78z"/>
<path d="M5522 19185 c-38 -17 -49 -39 -86 -175 -19 -72 -106 -483 -106 -504
0 -2 -64 -6 -142 -10 -270 -14 -495 -71 -542 -138 -20 -28 -20 -33 0 -52 20
-21 97 -21 175 -1 78 21 272 34 387 28 50 -3 92 -8 92 -10 0 -2 -16 -133 -35
-291 -50 -418 -65 -610 -65 -859 0 -384 54 -651 174 -867 98 -176 227 -251
426 -249 255 2 327 98 500 667 l48 160 7 -80 c17 -209 53 -372 107 -482 45
-90 128 -174 215 -214 62 -30 78 -33 185 -36 288 -9 339 62 487 691 27 115 51
211 53 213 3 2 10 -33 17 -79 24 -155 69 -307 127 -426 48 -98 67 -125 137
-196 134 -135 244 -179 436 -174 108 4 121 6 183 37 102 50 173 134 253 296
142 293 266 755 283 1059 l7 120 80 27 c44 15 108 41 142 59 34 17 67 31 72
31 5 0 1 -30 -10 -67 -32 -112 -77 -349 -95 -498 -21 -176 -15 -467 11 -559
64 -226 234 -396 455 -452 89 -22 250 -15 339 16 139 49 254 170 356 375 77
154 105 236 141 410 23 110 27 156 28 303 l1 173 56 30 c143 77 276 213 380
388 48 80 60 107 52 120 -15 24 -67 35 -115 25 -38 -8 -48 -17 -105 -99 -35
-49 -91 -121 -124 -158 -59 -65 -156 -147 -175 -147 -5 0 -21 35 -36 78 -62
173 -182 337 -310 420 -233 152 -541 138 -694 -31 -25 -28 -51 -63 -57 -75
-13 -28 -144 -116 -272 -183 -137 -71 -129 -72 -145 13 -29 162 -87 286 -174
373 -102 102 -228 146 -355 126 -139 -22 -204 -102 -203 -251 1 -176 97 -334
248 -405 62 -29 162 -55 219 -55 66 -1 69 -6 62 -108 -4 -49 -18 -143 -32
-208 -89 -422 -270 -841 -421 -973 l-36 -32 -30 28 c-159 151 -281 541 -363
1158 -40 306 -40 306 -146 329 -36 8 -118 -8 -136 -27 -8 -8 -28 -70 -43 -138
-28 -126 -225 -745 -306 -962 -54 -145 -104 -255 -146 -320 -29 -45 -33 -48
-44 -32 -8 10 -25 52 -38 94 -57 173 -103 446 -146 861 -43 421 -53 482 -90
515 -42 38 -160 39 -197 2 -8 -8 -25 -63 -38 -123 -33 -150 -116 -387 -266
-752 -71 -173 -228 -494 -263 -537 l-24 -30 -25 85 c-62 206 -92 412 -107 745
-10 208 -6 872 6 1052 l6 82 481 4 c512 4 537 7 668 57 93 36 110 84 38 109
-40 14 -143 14 -189 1 -100 -30 -253 -30 -847 -4 l-152 6 2 322 c1 176 -2 331
-6 344 -5 12 -21 29 -37 37 -36 19 -125 19 -168 0z m2925 -1049 c87 -80 154
-234 165 -377 3 -43 3 -44 -26 -41 -123 13 -246 191 -246 354 0 51 22 118 39
118 5 0 36 -24 68 -54z m1294 -128 c76 -40 173 -143 221 -233 47 -90 86 -206
90 -270 l3 -50 -50 -13 c-27 -7 -104 -16 -170 -19 -118 -5 -121 -4 -175 24
-123 65 -175 203 -135 358 30 115 103 235 142 235 8 0 42 -14 74 -32z m-152
-694 c67 -13 119 -15 241 -10 85 3 174 9 197 12 l42 6 -5 -59 c-9 -105 -44
-273 -78 -377 -61 -184 -182 -399 -276 -491 l-42 -40 -35 40 c-43 49 -97 159
-118 240 -22 90 -35 232 -35 405 0 156 8 290 18 290 3 0 44 -7 91 -16z"/>
<path d="M17170 18705 c-75 -34 -108 -84 -117 -178 -5 -61 -5 -64 26 -90 78
-65 251 -42 307 41 44 64 38 166 -12 212 -21 21 -37 25 -97 27 -49 2 -83 -2
-107 -12z"/>
<path d="M18950 18713 c-96 -17 -130 -49 -141 -129 -9 -68 0 -91 48 -124 30
-20 52 -26 116 -29 97 -4 147 10 181 50 50 59 21 172 -54 210 -38 19 -110 30
-150 22z"/>
<path d="M14221 16065 c-100 -23 -159 -44 -251 -91 -203 -104 -389 -294 -494
-502 -150 -296 -163 -710 -35 -1038 95 -244 305 -472 544 -592 213 -106 493
-127 717 -52 161 54 264 117 397 244 194 187 302 390 346 654 22 129 17 398
-9 507 -58 242 -148 406 -316 575 -139 140 -284 228 -460 280 -99 29 -342 37
-439 15z m324 -377 c109 -23 260 -118 343 -216 141 -168 196 -328 195 -567 -1
-205 -43 -343 -147 -490 -198 -277 -517 -368 -799 -227 -86 43 -242 193 -296
285 -47 80 -87 198 -102 297 -14 101 -7 279 17 370 36 142 130 300 232 391
170 151 347 201 557 157z"/>
<path d="M15648 16016 c-82 -22 -122 -60 -139 -133 -19 -84 16 -161 90 -202
32 -17 64 -25 127 -29 l84 -5 -2 -736 -3 -736 -55 -8 c-71 -10 -126 -47 -151
-100 -40 -90 -12 -187 69 -235 l47 -27 330 -3 c376 -4 415 0 475 55 74 66 76
186 6 257 -42 41 -97 56 -215 56 -49 0 -96 3 -105 6 -14 6 -16 64 -16 561 0
354 4 553 10 551 5 -1 219 -331 476 -733 256 -401 470 -736 476 -742 8 -10 59
-13 194 -13 l184 0 2 922 3 921 55 12 c116 24 162 71 168 171 6 87 -21 134
-97 172 l-56 27 -345 0 c-343 0 -345 0 -393 -24 -70 -34 -101 -91 -95 -174 8
-126 72 -169 261 -175 l117 -4 0 -556 c0 -482 -2 -554 -14 -542 -8 8 -222 341
-477 740 -254 399 -467 728 -473 732 -20 13 -486 8 -538 -6z"/>
<path d="M17988 16016 c-82 -22 -122 -60 -139 -133 -19 -84 16 -161 90 -202
32 -17 64 -25 127 -29 l84 -5 -2 -736 -3 -736 -85 -6 c-47 -3 -98 -13 -115
-21 -147 -77 -129 -286 29 -333 42 -13 188 -15 973 -15 l924 0 -3 343 c-4 374
-5 382 -65 439 -54 51 -127 62 -198 29 -87 -40 -107 -90 -114 -286 l-6 -150
-455 -3 c-250 -1 -465 0 -478 3 l-22 5 2 273 3 272 159 0 160 0 12 -82 c14
-99 39 -144 98 -172 90 -44 195 -15 244 67 l27 47 0 325 0 326 -26 49 c-33 65
-83 95 -158 95 -110 0 -172 -67 -187 -200 -4 -36 -12 -68 -18 -72 -15 -10
-288 -10 -304 0 -9 7 -12 68 -10 273 l3 264 435 0 435 0 6 -150 c6 -167 16
-204 68 -248 59 -49 143 -57 213 -21 45 23 76 81 87 159 15 103 14 618 -1 633
-18 18 -1723 16 -1790 -2z"/>
<path d="M7260 15244 c-193 -51 -339 -201 -385 -395 -17 -75 -20 -310 -4 -379
26 -112 120 -247 216 -308 197 -126 522 -120 704 14 90 65 114 142 62 196 -44
46 -89 39 -158 -22 -79 -68 -133 -85 -270 -84 -89 0 -121 5 -166 23 -72 28
-136 84 -174 152 -30 53 -30 56 -30 209 0 147 1 158 27 212 35 76 98 142 167
175 48 24 67 28 141 27 151 -1 244 -54 274 -156 23 -80 69 -112 127 -87 50 20
59 52 59 209 l0 142 -29 29 c-35 35 -72 37 -120 8 l-33 -20 -62 25 c-111 47
-240 58 -346 30z"/>
<path d="M8403 15245 c-115 -31 -226 -108 -299 -207 -84 -114 -116 -219 -115
-378 1 -184 49 -308 166 -425 212 -212 501 -220 713 -20 156 146 220 354 178
575 -24 127 -73 219 -165 310 -140 138 -311 190 -478 145z m240 -203 c66 -30
143 -106 176 -175 104 -215 27 -479 -168 -574 -76 -38 -182 -39 -256 -3 -70
34 -140 108 -178 188 -30 64 -32 73 -32 187 0 114 2 123 32 187 48 103 140
183 238 209 44 12 141 2 188 -19z"/>
<path d="M4571 15216 c-13 -7 -30 -24 -37 -37 -39 -71 16 -139 112 -139 l34 0
0 -374 0 -373 -52 -6 c-42 -5 -59 -13 -80 -37 -31 -34 -35 -58 -13 -99 26 -51
41 -52 441 -49 357 3 371 4 425 26 77 31 141 89 169 154 59 138 5 301 -129
389 l-24 15 35 46 c127 167 37 411 -178 478 -61 18 -91 20 -373 20 -235 -1
-312 -4 -330 -14z m674 -198 c45 -24 66 -52 71 -95 7 -53 -22 -96 -88 -130
-51 -26 -59 -27 -203 -28 l-150 0 -3 124 c-1 69 0 131 3 139 8 21 328 13 370
-10z m20 -469 c22 -8 61 -34 88 -60 40 -38 47 -51 47 -83 0 -48 -13 -72 -53
-93 -27 -15 -65 -18 -254 -21 l-223 -4 0 135 c0 73 3 137 8 141 12 13 343 0
387 -15z"/>
<path d="M5734 15220 c-30 -12 -54 -49 -54 -83 0 -58 33 -87 110 -97 l45 -5 0
-370 c0 -321 -2 -370 -15 -372 -69 -9 -95 -18 -116 -38 -32 -32 -32 -84 0
-122 l24 -28 491 -3 491 -3 0 166 c0 176 -9 223 -48 244 -34 18 -79 13 -109
-13 -26 -23 -28 -30 -31 -115 l-4 -91 -244 0 -244 0 0 140 0 141 83 -3 82 -3
6 -44 c11 -83 95 -119 156 -67 l28 24 3 152 c2 84 1 168 -3 187 -9 51 -45 83
-93 83 -59 0 -85 -31 -94 -110 -3 -24 -6 -25 -85 -28 l-83 -3 0 141 0 140 223
-2 222 -3 5 -87 c6 -105 25 -133 89 -133 83 0 101 47 101 263 l0 152 -457 -1
c-252 0 -468 -4 -479 -9z"/>
<path d="M9123 15210 c-63 -38 -50 -135 22 -161 l35 -13 0 -372 0 -372 -33 -6
c-63 -12 -97 -74 -73 -131 22 -51 50 -57 260 -53 l188 3 24 28 c39 45 30 113
-19 139 -12 6 -51 14 -87 17 l-65 6 -3 268 c-2 192 1 268 9 265 6 -2 56 -106
112 -231 l102 -227 85 0 86 0 94 213 c51 116 99 223 106 237 11 21 13 -19 14
-252 l0 -278 -50 0 c-60 0 -114 -20 -129 -48 -22 -41 -13 -88 20 -116 30 -26
31 -26 218 -26 173 0 190 2 214 20 26 21 47 26 47 12 0 -28 62 -32 531 -32
l481 0 -4 173 c-2 116 -8 181 -17 198 -31 63 -132 64 -160 2 -7 -14 -15 -61
-18 -104 l-6 -79 -237 0 c-208 0 -239 2 -244 16 -8 20 -8 228 0 248 5 13 22
16 84 16 84 0 89 -4 90 -68 0 -65 102 -97 152 -47 30 30 38 76 38 216 0 178
-23 229 -103 229 -51 0 -82 -32 -91 -93 l-7 -47 -79 0 c-62 0 -79 3 -84 16 -8
20 -8 228 0 248 5 14 35 16 224 16 l217 0 5 -86 c4 -76 7 -88 31 -112 35 -35
96 -37 129 -4 22 21 23 31 26 207 l3 185 -460 0 -460 0 -35 -30 c-33 -30 -35
-30 -45 -12 -17 32 -66 42 -200 42 l-126 0 -124 -280 c-67 -154 -126 -280
-130 -280 -6 0 -89 177 -230 493 l-30 67 -133 0 c-114 0 -138 -3 -165 -20z
m1257 -168 l50 -5 0 -372 0 -372 -46 -6 c-25 -2 -59 -14 -74 -26 -24 -17 -30
-18 -40 -6 -7 8 -30 20 -51 27 l-39 11 0 373 0 374 24 6 c13 3 34 17 47 30
l23 24 27 -26 c21 -20 42 -28 79 -32z"/>
<path d="M12860 13758 c-153 -60 -259 -261 -318 -603 -34 -195 -43 -335 -41
-594 l3 -245 -40 -25 c-21 -13 -111 -65 -199 -114 l-160 -89 -15 23 c-8 13
-88 121 -177 241 -244 326 -293 404 -327 517 -9 30 -16 77 -16 105 0 56 30
133 55 142 26 10 75 -17 129 -70 57 -56 196 -246 229 -314 24 -47 53 -61 93
-43 31 14 31 42 -1 137 -39 117 -111 251 -166 309 -77 81 -145 108 -291 113
-98 4 -127 1 -186 -17 -132 -40 -210 -129 -233 -267 -16 -90 4 -189 60 -308
l40 -86 -45 -108 c-25 -59 -93 -226 -150 -372 -155 -392 -196 -485 -205 -469
-4 8 -15 84 -24 169 -13 113 -19 282 -24 620 -6 428 -7 468 -24 494 -27 41
-80 60 -150 52 -57 -6 -60 -5 -100 29 -158 136 -393 133 -551 -6 -174 -154
-329 -567 -343 -918 -7 -165 4 -247 48 -362 56 -147 140 -209 284 -209 103 0
147 13 196 57 56 51 113 175 206 448 l78 230 7 -145 c18 -370 107 -678 216
-754 35 -25 55 -31 113 -34 76 -5 143 14 173 47 45 50 166 363 401 1039 3 7 9
11 14 8 28 -17 341 -475 341 -499 0 -5 -43 -49 -95 -99 -112 -106 -166 -184
-202 -293 -24 -71 -27 -96 -27 -225 -1 -139 0 -147 28 -207 62 -135 189 -203
379 -203 280 1 502 174 540 421 21 136 -31 351 -138 563 l-53 106 57 34 c86
51 272 149 276 145 2 -2 20 -103 40 -224 83 -502 111 -547 330 -533 77 5 115
28 129 79 25 93 78 249 87 255 14 9 60 -29 216 -179 203 -195 368 -297 535
-331 219 -45 389 16 425 153 10 39 -26 61 -99 61 -68 0 -104 -15 -136 -59 -28
-39 -56 -40 -125 -5 -102 52 -174 108 -302 238 -71 72 -150 148 -174 168 -25
21 -43 39 -40 41 2 2 35 16 73 32 112 46 213 119 326 234 150 153 210 265 210
392 0 90 -17 137 -71 191 -36 36 -61 51 -114 67 -150 47 -300 14 -418 -89 -96
-85 -290 -367 -392 -570 -25 -51 -49 -89 -52 -86 -6 6 -46 252 -57 351 l-7 60
71 54 c210 159 348 350 416 577 35 115 39 294 11 389 -49 160 -148 299 -251
353 -72 37 -216 42 -296 10z m195 -149 c77 -86 120 -221 118 -374 -2 -156 -56
-316 -159 -471 -50 -75 -120 -151 -131 -141 -4 5 -8 149 -8 320 0 329 9 421
56 572 18 60 62 135 78 135 5 0 26 -19 46 -41z m-2675 -669 c22 -11 62 -40 90
-65 28 -25 57 -45 65 -45 7 0 17 -5 20 -10 9 -15 -58 -190 -195 -503 -159
-366 -174 -399 -227 -496 -40 -74 -47 -82 -57 -65 -19 33 -14 420 7 544 49
279 125 499 212 613 20 26 38 47 41 47 3 0 23 -9 44 -20z m3312 -382 c6 -13
12 -54 11 -91 0 -59 -6 -79 -41 -150 -84 -171 -284 -356 -424 -395 -20 -5 -39
-8 -42 -5 -8 8 107 230 166 320 104 160 267 343 305 343 7 0 18 -10 25 -22z
m-1808 -921 c55 -124 79 -218 80 -322 1 -90 -2 -105 -27 -157 -15 -31 -46 -73
-69 -94 l-41 -37 -33 36 c-89 96 -94 359 -12 522 21 40 67 105 75 105 2 0 15
-24 27 -53z"/>
<path d="M19373 13601 c-63 -16 -79 -34 -100 -118 -12 -43 -49 -171 -83 -284
l-63 -206 -111 -7 c-181 -12 -276 -39 -285 -81 -7 -38 24 -45 191 -45 140 0
158 -2 158 -17 0 -29 -159 -549 -247 -806 -91 -266 -152 -423 -168 -428 -17
-7 -36 159 -38 346 -1 99 7 308 17 467 22 315 20 347 -27 382 -23 17 -43 21
-106 21 -89 0 -125 -17 -136 -65 -4 -16 -9 -30 -12 -30 -3 0 -35 15 -72 33
-63 31 -70 32 -186 31 -138 -1 -192 -16 -295 -86 -167 -111 -297 -378 -366
-753 -10 -57 -44 -163 -94 -290 -43 -110 -81 -210 -85 -223 -4 -13 -8 -22 -10
-20 -2 2 0 120 6 262 10 289 0 489 -28 576 -35 109 -116 156 -265 154 -109 -2
-183 -39 -300 -152 -155 -149 -259 -305 -350 -520 -28 -67 -55 -119 -58 -115
-4 5 -17 52 -30 106 l-22 98 70 137 c88 172 168 361 221 525 63 194 74 253 74
417 0 129 -2 153 -25 222 -64 192 -165 270 -353 271 -112 1 -176 -19 -240 -75
-79 -70 -150 -243 -175 -431 -19 -137 -7 -123 -102 -115 -46 3 -117 7 -159 7
l-76 1 -6 213 c-9 291 -15 307 -115 307 -53 0 -75 -16 -105 -75 -26 -52 -69
-205 -97 -344 l-26 -134 -109 -25 c-135 -30 -212 -58 -242 -88 -28 -28 -22
-49 19 -63 45 -16 74 -14 179 14 121 32 141 32 134 3 -12 -55 -36 -310 -47
-500 -28 -500 50 -772 250 -870 65 -32 70 -33 192 -33 116 0 129 2 185 28 79
37 152 93 244 189 l77 79 39 -82 c65 -132 131 -176 249 -167 120 10 144 38
211 253 101 324 209 521 375 680 l62 60 -8 -185 c-13 -272 -11 -672 4 -755 29
-161 82 -268 148 -300 44 -21 126 -31 178 -21 47 9 92 48 120 105 13 25 49
119 82 208 32 90 62 163 66 163 4 0 24 -11 44 -25 64 -43 133 -58 258 -53 96
3 119 7 171 31 112 52 189 166 281 417 l39 105 7 -55 c23 -180 33 -232 53
-296 48 -155 127 -217 275 -216 95 0 164 27 215 83 43 48 108 175 169 334 74
191 68 189 82 32 33 -345 125 -639 234 -748 61 -61 130 -84 234 -77 91 6 135
29 212 109 153 162 259 415 318 765 38 224 42 277 23 293 -25 20 -89 25 -128
8 l-35 -14 -28 -129 c-36 -169 -98 -401 -131 -489 -43 -113 -113 -247 -168
-320 -29 -38 -56 -69 -61 -70 -24 -1 -65 173 -98 417 -20 145 -23 205 -22 538
0 279 4 421 17 554 9 99 19 182 22 184 5 5 298 -32 502 -63 240 -38 328 -31
328 25 0 33 -42 55 -156 84 -125 32 -376 73 -533 88 l-126 12 0 28 c0 15 16
136 36 268 19 132 34 252 32 267 -2 18 -14 33 -33 44 -36 21 -118 31 -162 20z
m-3122 -444 c93 -199 75 -459 -56 -794 -26 -68 -51 -123 -55 -123 -18 0 -35
216 -35 435 1 213 3 238 27 342 29 121 60 203 78 203 6 0 24 -29 41 -63z
m-491 -575 c0 -183 40 -476 96 -715 l26 -109 -38 -55 c-81 -118 -210 -252
-297 -308 l-27 -17 -20 44 c-34 78 -51 186 -61 398 -9 186 -3 834 8 853 2 4
74 7 159 7 l154 0 0 -98z m2438 59 c20 -11 52 -33 69 -50 l33 -30 -51 -113
c-28 -62 -91 -210 -141 -328 -117 -278 -208 -465 -251 -515 l-35 -40 -7 45
c-22 148 110 685 222 902 32 61 100 148 117 148 4 0 23 -9 44 -19z"/>
<path d="M7077 13276 c-174 -65 -215 -284 -96 -525 70 -141 193 -247 363 -312
l58 -23 -6 -48 c-23 -171 -181 -584 -277 -725 -36 -51 -87 -103 -102 -103 -14
0 -85 103 -120 175 -38 77 -113 321 -142 457 -14 68 -40 211 -59 319 -36 209
-46 241 -87 272 -32 23 -128 28 -175 9 -26 -11 -33 -23 -53 -90 -48 -165 -230
-596 -346 -820 -70 -133 -169 -292 -183 -292 -14 0 -31 124 -43 304 -14 194
-5 700 15 900 8 77 12 145 10 151 -13 34 -117 46 -178 21 -74 -31 -135 -148
-186 -358 -64 -266 -84 -454 -77 -717 5 -205 22 -292 77 -401 65 -129 132
-172 280 -178 177 -7 250 43 353 246 65 127 124 276 203 507 31 94 60 174 64
178 4 4 10 -22 14 -58 34 -335 164 -611 344 -732 78 -53 182 -78 286 -70 209
16 313 124 421 436 38 113 104 357 130 486 9 44 17 81 19 82 1 2 27 -1 57 -6
30 -5 75 -12 102 -16 l47 -6 0 -102 c0 -170 37 -366 97 -516 64 -159 162 -279
272 -334 58 -28 75 -32 151 -32 78 0 92 3 153 34 161 82 309 287 406 565 33
93 121 439 121 474 0 27 -28 42 -78 42 -56 0 -76 -22 -102 -115 -112 -394
-197 -585 -332 -743 -44 -51 -124 -122 -137 -122 -13 0 -58 92 -80 162 -43
141 -68 424 -56 622 l7 114 65 32 c129 64 265 195 326 315 68 135 58 315 -21
398 -55 58 -96 72 -218 72 -107 0 -112 -1 -186 -38 -131 -64 -230 -193 -307
-397 -38 -102 -71 -233 -71 -285 0 -37 -19 -40 -113 -19 l-82 19 -2 160 c-1
192 -19 288 -72 400 -46 96 -110 170 -183 210 -45 25 -66 30 -143 32 -59 2
-103 -1 -128 -11z m203 -167 c94 -96 138 -221 147 -416 7 -151 2 -154 -96 -55
-123 123 -188 319 -150 457 12 42 26 65 40 65 4 0 31 -23 59 -51z m1163 -68
c73 -88 53 -251 -48 -371 -42 -51 -144 -139 -161 -140 -23 0 34 251 87 388 29
73 75 152 89 152 5 0 19 -13 33 -29z"/>
<path d="M6201 10549 c-129 -25 -285 -148 -350 -276 -57 -114 -76 -266 -50
-409 28 -156 145 -307 293 -380 80 -39 81 -39 201 -39 120 0 122 0 198 38 275
136 387 495 245 785 -44 91 -152 199 -239 240 -104 49 -195 61 -298 41z m216
-205 c186 -89 257 -347 150 -547 -55 -104 -147 -168 -254 -175 -148 -10 -280
94 -329 259 -26 86 -16 207 23 291 83 176 252 248 410 172z"/>
<path d="M11610 10544 c-166 -44 -283 -149 -348 -311 -25 -65 -26 -77 -27
-248 l0 -180 36 -75 c62 -128 147 -207 276 -257 90 -34 273 -43 376 -19 92 22
175 66 225 120 34 37 42 53 42 83 -1 42 -13 63 -47 81 -40 22 -68 14 -127 -38
-77 -67 -136 -84 -271 -78 -81 4 -112 10 -157 30 -73 34 -132 95 -159 166 -18
50 -20 73 -17 187 5 151 19 194 89 270 77 83 172 115 286 95 117 -20 180 -67
203 -153 14 -54 40 -77 85 -77 71 0 95 49 95 195 0 50 -5 107 -10 127 -19 66
-82 88 -134 47 l-27 -21 -62 26 c-112 47 -224 57 -327 30z"/>
<path d="M17021 10545 c-175 -40 -300 -197 -277 -349 10 -60 52 -140 93 -177
57 -49 127 -76 297 -114 175 -39 209 -52 236 -98 29 -47 25 -74 -18 -117 -85
-85 -279 -94 -407 -19 -18 10 -42 42 -60 76 -34 65 -65 87 -110 75 -43 -12
-64 -48 -71 -123 -9 -93 3 -174 30 -205 29 -34 87 -37 118 -7 l21 22 38 -20
c63 -32 148 -49 244 -49 130 0 220 28 307 94 133 102 140 323 13 434 -66 59
-116 77 -365 132 -112 24 -154 47 -176 94 -43 90 52 179 191 180 117 1 203
-47 221 -122 19 -77 59 -107 122 -90 48 13 62 54 62 178 0 109 -14 161 -48
179 -29 15 -64 14 -90 -5 -21 -14 -27 -13 -89 11 -82 33 -190 41 -282 20z"/>
<path d="M4770 10523 c-50 -18 -70 -74 -46 -122 12 -22 28 -34 61 -44 44 -12
49 -19 195 -232 l151 -220 -3 -130 -3 -130 -95 -5 c-52 -3 -101 -9 -108 -14
-20 -13 -40 -64 -34 -91 2 -13 15 -34 29 -47 24 -23 29 -23 276 -26 165 -2
265 0 289 8 70 20 87 106 31 150 -21 17 -41 20 -114 20 l-89 0 0 138 0 138
145 215 c140 206 147 214 185 222 72 15 105 96 60 145 -29 31 -51 34 -204 30
-125 -3 -137 -5 -158 -26 -16 -16 -23 -34 -23 -63 0 -34 6 -45 33 -67 l32 -27
-76 -115 c-42 -63 -80 -118 -83 -122 -4 -5 -45 49 -91 118 -68 102 -81 127
-70 134 8 6 19 10 23 10 4 0 15 16 23 35 12 31 12 39 0 70 -9 21 -26 39 -41
45 -27 10 -268 13 -295 3z"/>
<path d="M6905 10518 c-32 -18 -44 -40 -45 -79 0 -42 30 -76 77 -85 l32 -6 3
-312 c3 -306 3 -312 27 -361 32 -66 132 -162 207 -200 55 -28 66 -30 174 -30
110 0 119 2 181 32 80 40 159 120 197 200 l27 58 3 306 3 307 32 6 c47 9 77
43 77 85 -1 79 -31 91 -235 91 -210 0 -236 -10 -235 -93 1 -59 43 -87 131 -87
l50 0 -3 -294 -3 -294 -30 -43 c-100 -142 -337 -127 -406 25 -17 37 -19 70
-19 324 l0 282 49 0 c88 0 130 28 131 87 1 83 -25 93 -237 93 -108 0 -175 -5
-188 -12z"/>
<path d="M9165 10518 c-32 -18 -44 -40 -45 -79 0 -48 34 -80 94 -86 l46 -6 0
-353 0 -354 -36 0 c-92 0 -136 -81 -80 -147 l24 -28 239 -3 c267 -4 304 2 328
48 22 43 19 68 -14 101 -29 29 -30 29 -150 29 l-121 0 0 94 0 94 148 3 c148 4
148 4 223 41 99 49 161 105 196 176 24 49 28 69 28 142 0 68 -5 94 -23 131
-50 102 -145 174 -260 198 -73 15 -570 14 -597 -1z m577 -178 c99 -28 154
-130 114 -209 -44 -84 -134 -121 -298 -121 l-108 0 0 170 0 170 128 0 c70 0
144 -5 164 -10z"/>
<path d="M10282 10520 c-33 -14 -54 -70 -41 -109 6 -17 21 -37 33 -44 11 -6
75 -14 141 -17 l120 -5 0 -350 0 -350 -125 -5 c-69 -3 -131 -9 -138 -14 -20
-13 -40 -64 -34 -91 2 -13 15 -34 29 -47 24 -23 26 -23 331 -26 169 -2 322 0
341 3 46 9 81 46 81 87 -1 71 -37 88 -184 88 l-116 0 0 354 0 354 126 4 c124
3 126 3 150 31 31 36 31 78 0 114 l-24 28 -334 2 c-190 1 -343 -2 -356 -7z"/>
<path d="M12340 10523 c-49 -18 -70 -74 -46 -121 16 -31 59 -52 107 -52 l29 0
0 -355 0 -355 -44 0 c-79 0 -125 -64 -92 -128 23 -44 59 -52 248 -52 197 0
229 8 247 63 24 70 -13 110 -108 117 l-66 5 -3 96 -3 97 52 46 c28 25 59 46
68 46 33 0 114 -64 159 -124 24 -34 75 -125 113 -203 l69 -143 96 0 c109 0
159 16 174 55 16 43 12 65 -19 96 -25 25 -37 29 -83 29 l-54 0 -33 74 c-48
110 -122 216 -203 290 -61 57 -69 69 -57 80 97 93 308 266 324 266 35 0 83 36
90 69 8 38 -12 81 -45 98 -30 15 -286 18 -325 3 -35 -13 -59 -69 -44 -107 6
-15 17 -35 24 -43 12 -14 -5 -32 -137 -145 -83 -72 -155 -131 -160 -133 -4 -2
-8 55 -8 127 l0 131 50 0 c28 0 66 6 84 14 65 27 69 121 6 153 -25 13 -377 18
-410 6z"/>
<path d="M14600 10517 c-52 -26 -62 -104 -19 -143 15 -14 42 -19 109 -22 54
-3 90 -9 90 -15 0 -11 -254 -647 -271 -679 -6 -11 -21 -18 -40 -18 -36 0 -89
-47 -89 -79 0 -41 20 -72 57 -87 29 -13 70 -15 204 -12 161 3 168 4 193 27 19
18 26 35 26 62 0 54 -26 80 -85 86 -78 7 -77 6 -53 63 l21 50 221 0 222 0 17
-47 c9 -27 17 -51 17 -55 0 -5 -22 -8 -49 -8 -84 0 -126 -54 -97 -124 21 -50
58 -58 253 -54 155 3 162 4 187 27 55 51 19 151 -53 151 -19 0 -35 7 -42 18
-6 9 -88 208 -183 442 l-172 425 -220 2 c-162 2 -226 0 -244 -10z m435 -402
c36 -87 65 -164 65 -172 0 -10 -29 -13 -134 -13 -74 0 -137 4 -140 8 -3 5 19
67 48 138 80 195 86 207 91 203 2 -3 34 -76 70 -164z"/>
<path d="M17755 10518 c-32 -17 -45 -39 -45 -77 1 -58 41 -91 111 -91 l29 0 0
-354 0 -353 -52 -5 c-62 -6 -88 -32 -88 -87 0 -27 7 -44 26 -62 l26 -24 456 0
457 0 3 130 c2 72 0 150 -3 174 -11 75 -65 109 -129 80 -33 -16 -39 -30 -45
-124 l-6 -80 -224 -3 c-173 -2 -226 1 -233 10 -9 15 -11 219 -2 242 5 13 22
16 79 16 78 0 84 -5 85 -66 0 -33 45 -68 87 -68 26 0 42 7 59 28 23 26 24 33
24 197 0 167 0 170 -25 194 -54 55 -135 20 -149 -63 l-6 -43 -78 3 -77 3 0
125 0 125 210 0 210 0 5 -83 c4 -73 8 -86 29 -103 35 -28 92 -25 122 7 23 25
24 32 27 195 l4 169 -434 0 c-294 -1 -439 -4 -453 -12z"/>
<path d="M18945 10518 c-32 -17 -45 -39 -45 -77 1 -68 40 -91 156 -91 41 0 74
-2 74 -5 0 -2 -61 -156 -136 -342 -75 -186 -139 -344 -141 -350 -3 -7 -21 -13
-40 -13 -76 0 -113 -98 -57 -151 25 -23 32 -24 187 -27 187 -4 229 4 253 49
34 67 -13 129 -97 129 -27 0 -49 4 -49 9 0 5 9 30 20 55 l19 46 219 0 219 0
21 -50 c24 -57 25 -56 -53 -63 -59 -6 -85 -32 -85 -86 0 -27 7 -44 26 -62 25
-23 31 -24 197 -27 149 -2 177 0 207 15 82 42 58 150 -38 163 l-37 5 -179 443
-180 442 -220 0 c-141 0 -228 -5 -241 -12z m439 -413 c35 -88 62 -163 60 -167
-3 -5 -66 -8 -140 -8 -100 0 -134 3 -134 13 0 25 133 338 141 330 4 -4 37 -80
73 -168z"/>
<path d="M19917 10523 c-10 -10 -8 -342 3 -388 11 -48 41 -75 84 -75 71 1 95
52 96 208 l0 82 95 0 95 0 0 -355 0 -355 -91 0 c-87 0 -92 -1 -120 -29 -54
-54 -26 -131 52 -146 19 -3 145 -5 281 -3 245 3 247 3 272 27 32 30 35 87 7
122 -17 21 -29 24 -118 29 l-98 5 -3 353 -2 352 99 0 99 0 4 -121 c3 -118 4
-121 31 -145 36 -31 78 -31 114 0 l28 24 3 211 3 211 -464 0 c-255 0 -467 -3
-470 -7z"/>
<path d="M13102 8970 c-90 -19 -111 -41 -175 -190 -22 -52 -169 -242 -234
-303 l-30 -28 -109 16 c-225 33 -376 31 -619 -11 -139 -24 -140 -24 -140 -64
0 -52 24 -60 196 -60 86 0 183 -6 235 -15 103 -18 233 -50 242 -60 12 -12
-317 -305 -342 -305 -6 0 -22 19 -35 43 -94 166 -260 293 -451 344 -81 22
-308 24 -390 4 -92 -22 -211 -85 -271 -143 -135 -129 -178 -281 -128 -443 24
-80 28 -59 -66 -363 -78 -256 -187 -563 -257 -727 -90 -211 -222 -455 -247
-455 -9 0 -22 62 -41 200 -6 41 -15 376 -20 745 -11 860 -25 1038 -96 1195
-55 122 -171 190 -328 190 -92 0 -160 -18 -231 -61 -230 -139 -573 -597 -823
-1099 -61 -123 -108 -206 -109 -195 -2 11 -23 243 -48 515 -25 272 -50 538
-55 590 -14 122 -48 323 -60 354 -13 35 -60 56 -125 56 -82 0 -111 -19 -130
-83 -48 -166 -104 -1043 -112 -1767 -6 -492 1 -646 37 -834 41 -209 103 -261
310 -260 81 0 103 4 152 26 31 14 62 37 69 50 9 17 14 93 15 278 2 235 5 269
34 430 98 554 273 971 581 1387 117 158 365 401 387 378 12 -12 5 -347 -12
-550 -9 -104 -21 -257 -28 -340 -7 -82 -12 -312 -13 -510 0 -307 3 -374 18
-455 23 -119 69 -258 108 -327 94 -163 249 -253 439 -253 117 0 230 38 293 98
82 78 184 305 289 642 33 107 64 199 68 203 4 5 10 -34 14 -85 37 -498 171
-725 472 -802 84 -22 304 -22 388 0 243 62 398 250 481 582 88 353 92 696 13
1109 l-21 113 29 22 c79 62 203 176 330 306 l141 143 37 -7 c21 -3 40 -12 43
-20 2 -7 -9 -97 -26 -201 -97 -600 -124 -1225 -66 -1556 69 -392 255 -681 531
-824 139 -73 212 -88 409 -87 151 1 181 4 270 27 262 70 435 208 503 400 21
60 25 90 25 185 0 139 -9 153 -102 160 -108 8 -151 -21 -151 -101 0 -56 -29
-170 -57 -227 -34 -71 -131 -166 -210 -208 -34 -18 -98 -42 -142 -53 -71 -18
-83 -18 -113 -6 -147 62 -263 312 -303 652 -34 290 -30 597 15 1379 10 181 23
332 27 337 4 4 77 -3 162 -16 236 -37 430 -51 537 -38 158 20 281 74 272 120
-10 53 -132 84 -256 65 -67 -11 -89 -9 -280 24 -114 19 -254 45 -312 57 l-105
22 1 90 c1 50 3 178 5 285 5 226 -1 246 -81 287 -52 26 -162 37 -228 23z
m-1524 -841 c66 -32 147 -103 196 -172 47 -67 96 -158 96 -180 0 -18 -177
-100 -261 -121 -36 -9 -93 -16 -127 -16 -54 0 -65 4 -97 31 -107 94 -75 353
58 465 35 29 62 28 135 -7z m371 -621 c81 -393 38 -835 -109 -1134 -58 -117
-133 -206 -208 -247 -49 -27 -53 -27 -82 -12 -67 35 -132 176 -169 369 -35
182 -86 660 -93 883 l-3 83 150 4 c168 4 284 26 405 74 41 16 80 30 87 31 6 1
16 -23 22 -51z"/>
<path d="M16507 8557 c-80 -25 -105 -73 -164 -317 -19 -80 -37 -147 -39 -149
-2 -2 -20 11 -41 29 -20 18 -67 47 -103 64 -64 31 -67 31 -220 31 -151 0 -157
-1 -235 -33 -163 -66 -284 -190 -385 -397 -100 -205 -153 -401 -166 -622 -16
-258 53 -520 167 -634 67 -67 135 -93 260 -97 124 -5 188 10 263 60 103 68
214 247 341 552 9 21 18 36 21 33 3 -2 9 -83 14 -178 12 -203 23 -305 52 -449
57 -292 197 -625 316 -752 60 -65 107 -81 220 -77 106 5 132 18 174 95 69 122
173 516 258 975 28 151 66 353 84 449 39 201 37 209 -36 224 -32 6 -58 5 -89
-5 -58 -19 -41 40 -253 -834 -76 -315 -126 -489 -137 -478 -10 11 -35 140 -56
293 -28 199 -25 1006 6 1480 13 195 24 420 25 500 1 164 -7 191 -63 224 -41
24 -159 31 -214 13z m-452 -536 c28 -16 81 -60 118 -99 l68 -69 -135 -341
c-144 -363 -224 -534 -313 -672 -78 -120 -114 -163 -125 -152 -16 16 -38 190
-38 297 0 338 113 746 266 962 38 52 87 102 104 103 3 0 28 -13 55 -29z"/>
<path d="M14003 5231 c-135 -46 -207 -158 -272 -421 -28 -115 -62 -288 -91
-467 l-12 -73 -125 0 c-185 0 -281 -30 -405 -128 -155 -121 -273 -361 -342
-692 -57 -274 -242 -989 -261 -1008 -11 -11 -14 7 -25 132 -13 162 -13 442 0
667 33 591 32 828 -7 907 -26 54 -94 85 -187 86 -82 0 -134 -15 -165 -48 -12
-13 -37 -63 -55 -112 -62 -166 -189 -355 -338 -501 -93 -92 -259 -219 -400
-306 l-93 -58 -15 23 c-61 92 -204 285 -341 458 -233 295 -331 428 -358 485
-32 66 -39 152 -17 210 17 45 85 115 110 115 50 0 209 -97 305 -186 56 -51
262 -297 329 -391 20 -28 30 -33 62 -33 30 0 43 6 60 27 19 24 21 35 15 83
-21 168 -128 374 -256 496 -168 158 -380 235 -607 221 -122 -8 -196 -27 -298
-77 -103 -50 -171 -111 -214 -191 -65 -123 -50 -253 47 -403 48 -74 67 -98
319 -406 239 -293 474 -618 474 -656 0 -6 -31 -32 -69 -57 -226 -150 -389
-332 -497 -552 -68 -140 -94 -245 -94 -386 0 -310 168 -555 448 -652 79 -27
102 -30 248 -35 140 -4 171 -2 244 17 239 60 398 209 482 451 l33 95 -1 205
c0 199 -1 209 -32 325 -42 153 -105 311 -198 496 -41 81 -74 149 -74 153 0 3
39 31 88 62 141 91 300 206 402 292 52 44 96 76 98 71 2 -4 -4 -70 -13 -146
-37 -308 -28 -612 25 -825 56 -227 210 -458 348 -521 40 -19 65 -22 162 -22
107 0 118 2 162 27 36 22 52 40 71 80 25 53 108 304 122 365 3 18 8 33 10 33
3 0 35 -30 72 -68 74 -73 173 -129 273 -153 81 -20 281 -18 355 5 109 33 174
74 284 183 l104 103 34 -27 c156 -126 290 -197 448 -240 90 -23 118 -26 275
-27 116 0 190 4 219 13 l44 13 40 -49 c144 -172 372 -335 561 -400 71 -24 96
-28 201 -28 139 0 188 13 287 77 230 148 411 470 482 860 27 145 57 413 49
434 -14 36 -152 50 -198 20 -18 -12 -26 -30 -35 -88 -70 -424 -170 -703 -331
-919 -56 -76 -177 -194 -209 -204 -42 -13 -173 97 -275 233 -64 85 -155 254
-155 287 0 9 36 55 80 101 197 209 359 529 426 845 12 58 18 125 17 214 0 111
-4 143 -27 218 -69 231 -197 391 -348 439 -89 27 -233 27 -319 -2 -179 -59
-303 -202 -390 -451 -79 -222 -114 -470 -106 -743 6 -211 30 -358 83 -511 51
-147 51 -143 19 -155 -70 -27 -158 -3 -257 70 -137 101 -249 280 -304 486
l-27 101 31 79 c82 215 184 579 222 794 51 290 65 616 35 810 -39 254 -122
417 -232 454 -61 21 -165 20 -230 -3z m203 -399 c24 -105 30 -436 10 -598 -18
-149 -73 -441 -88 -464 -19 -30 9 1131 28 1180 8 20 30 -31 50 -118z m1198
-771 c183 -249 171 -606 -33 -1004 -71 -136 -122 -213 -131 -196 -10 18 -27
196 -35 359 -7 146 8 419 30 540 32 175 92 350 121 350 7 0 28 -22 48 -49z
m-1826 22 c19 -17 19 -22 6 -128 -32 -266 -28 -597 11 -819 19 -106 67 -261
107 -340 l30 -59 -39 -56 c-85 -124 -255 -271 -314 -271 -24 0 -78 65 -105
126 -72 163 -76 450 -13 879 46 314 119 532 214 643 40 46 70 53 103 25z
m-2568 -1405 c67 -141 130 -317 156 -439 14 -62 19 -125 18 -244 0 -149 -2
-166 -28 -240 -68 -197 -197 -307 -323 -275 -156 39 -299 201 -348 395 -21 84
-19 225 5 321 36 143 124 299 246 433 52 57 188 171 205 171 6 0 37 -55 69
-122z"/>
<path d="M12235 4922 c-64 -22 -137 -73 -171 -118 -34 -44 -39 -115 -11 -158
34 -51 97 -71 222 -71 121 1 181 19 239 73 89 84 85 217 -10 266 -55 29 -199
33 -269 8z"/>
</g>
</svg>
