<?xml version="1.0" encoding="utf-8"?>
<!-- Generator: Adobe Illustrator 25.2.0, SVG Export Plug-In . SVG Version: 6.00 Build 0)  -->
<svg version="1.1" id="Layer_1" xmlns="http://www.w3.org/2000/svg" xmlns:xlink="http://www.w3.org/1999/xlink" x="0px" y="0px"
	 viewBox="0 0 2200 2200" style="enable-background:new 0 0 2200 2200;" xml:space="preserve">
<g>
	<path d="M236.64,315.81c0,0-1.34,0.45-4.45,1.81c2.49,24.86,3.73,37.31,6.22,62.23c0.89,7.27,1.33,10.9,2.22,18.18
		c3.56,29.01,7.19,57.15,11.99,84.88c5.39,31.16,9.33,50.75,13.76,56.61c7.11,10.56,18.66,22.14,18.66,32.46
		c0,27.01-6.32,42.4-18.66,47.1c-9.28,3.53-34.62,2.69-75.93-4.72c-32.85-5.89-55.07-13.97-66.17-23.2
		c-11.1-9.24-16.43-23.53-16.43-43.05c0-4.53,2.91-8.95,8.44-13.38c6.64-5.32,10.65-9.08,11.55-11.22
		c4.45-7.96,9.68-29.75,15.55-64.61c5.64-33.52,10.01-64.31,11.98-91.57c0.5-6.93,1.34-23.79,1.79-50.52
		c-4.45-2.07-6.67-3.08-6.67-3.08c-3.99-0.16-7.29,3.52-10.21,10.73c-4.12,10.2-7.99,17.18-11.1,20.21
		c-6.67,6.95-16.87,9.87-29.76,8.9c-11.1-0.84-18.11-5.27-21.31-12.33c-2.06-4.54-3.11-13.11-3.11-25.98
		c0-13.32,4.15-26.91,11.98-41.5c8.94-16.67,19.11-25.54,30.65-25.53c3.99,0,10.21,1.37,18.64,3.7c8.44,2.36,14.66,3.32,18.66,3.34
		c49.73,0.23,83.03-0.62,99.9-2.07c3.11-0.49,9.33-5.43,13.33-5.43c12.42,0,23.06,9.07,31.96,27.64
		c7.48,15.61,11.55,31.86,11.55,47.44c0,28.68-9.31,42.35-28.42,41.52c-10.65-0.46-19.65-8.84-26.19-24.31
		C250.35,324.18,243.29,316.02,236.64,315.81z M603.45,389.62c0-23.52,2.22-42.43,7.11-57.15c2.67-8.43,7.08-17.47,13.32-26.34
		c4.81-6.85,7.1-12.7,7.1-17.45c0-24.9-24.42-37.16-72.82-37.17c-15.98,0-29.91,2.57-41.74,7.36
		c-16.33,6.62-24.43,17.86-24.43,33.09c0,9.97,4.12,17.81,11.99,23.15c8.41,5.7,12.44,16.36,12.44,32.57
		c0,11.51-4.45,18.75-12.89,21.26c-3.11,0.99-11.1,1.41-24.86,1.18c-14.21-0.23-23.54-1.46-27.53-3.08
		c-8.44-3.79-12.89-12.66-12.89-26.13c0-9.84,4-19.63,11.99-28.4c7.99-8.75,11.99-17.07,11.99-24.39c0-24.57-24.43-36.65-72.82-36.7
		c-16.44-0.01-30.26,2.53-41.75,7.09c-16.4,6.52-24.86,17.15-24.86,31.82c0,9.1,2.66,15.2,7.54,18.84
		c8.01,5.72,12.44,9.37,13.78,10.93c4.88,7.71,7.1,20.49,6.65,38.25c-0.18,7.71-0.27,11.56-0.45,19.25
		c-0.88-0.03-3.52,23.81-7.99,70.83c-4.85,51.03-11.55,84.42-19.54,100.12c-0.89,2.4-5.13,6.54-11.99,13.29
		c-5.33,5.23-7.99,10.57-7.99,15.5c0,24.69,8.88,41.49,26.2,50.72c9.33,4.94,28.42,8.94,56.39,11.17
		c4.45,0.35,10.66,0.85,18.66,1.92c8.42,1.12,14.21,1.48,17.75,1.71c19.09,1.22,32.86-1.66,41.31-7.82
		c11.08-8.08,16.87-24.57,16.87-48.97c0-5.61-3.32-12.86-9.78-20.72c-7.57-9.21-11.73-16.86-12.87-21.4
		c-1.48-5.93-2.23-24.52-2.23-55.78c0-21.51,0.89-34.85,2.67-39.44c3.11-10.7,12.44-15.61,27.1-15.28
		c14.21,0.32,17.32,7.1,17.32,23.62c0,11.87,1.32,29.95,3.56,53.11c2.22,23.16,3.54,40.58,3.54,52.32c0,4.09-3.54,10.37-11.1,18.04
		c-7.31,7.42-11.1,14.92-11.1,22.03c0,20.3,9.33,33.33,28.42,38.91c5.77,1.66,22.2,2.65,50.17,2.9
		c59.07,0.53,88.37-12.98,88.37-38.28c0-12.65-8.44-28.73-24.86-49.08C611.89,492.27,603.45,436.13,603.45,389.62z M919.66,482.13
		c0-11.04-7.54-26.69-16.43-25.84c-3.11,0.3-7.1,4.56-11.99,12.85c-4.88,8.27-10.65,12.78-18.2,13.56
		c-1.34,0.14-3.11,0.32-5.33,0.05c-4-1.07-13.78,3.37-17.32,3.73c-43.08,4.37-64.4-14.78-64.4-57.11c0-17.86,4.9-27.4,14.21-27.99
		c8.44-0.54,14.57,3.39,18.66,11.43c4.17,8.2,8.88,11.94,13.77,11.57c7.54-0.57,12.98-8.53,16.87-23.73
		c2.71-10.58,3.99-22.24,3.99-33.75c0-7.52-2.22-10.93-6.65-10.71c-4.88,0.24-12.44,11.73-17.32,11.99
		c-11.99,0.64-22.23-1.87-30.64-7.62c-9.77-6.69-14.66-15.83-14.66-27.24c0-2.59,0.45-4.67,0.89-7.29
		c1.32-6.79,3.09-10.98,6.2-12.63c3.91-0.11,5.86-0.17,9.78-0.28c21.31-0.61,37.3,3.55,48.4,11.72c4.43,3.38,10.65,10.72,19.09,22.8
		c5.77,8.2,12.44,11.81,20.43,11.38c8.44-0.45,14.99-5.32,19.54-13.77c3.64-6.77,5.33-15.4,5.33-25.7c0-16.17-2.61-30.92-7.99-44.57
		c-6.94-17.62-16.87-26.7-29.74-26.7c-9.33,0-25.77,1.01-48.4,2.58s-39.09,2.67-49.3,2.7c-7.54,0.02-25.86-1.96-32.87-2.06
		c-18.38-0.26-34.22,2.73-47.06,8.5c-15.46,6.95-23.09,18.08-23.09,32.37c0,7.92,1.78,14.59,5.33,17.95
		c3.95,3.74,8.44,6.31,11.1,7.9c5.34,4.74,9.12,16.56,10.67,34.65c0.76,8.79,0,18.84-0.45,30.32c-1.42,53.83-2.13,80.47-3.56,133.22
		c-0.89,31.2-3.56,50.47-7.54,58.14c-3.38,6.15-5.06,9.23-8.44,15.37c-0.89,2.03-4.9,7.19-12.44,15.91
		c-4.43,5.13-6.67,10.74-6.67,17.29c0,16.14,7.56,24.52,22.64,24.11c33.4-0.7,50.1,0.7,83.49-3.6c11.99-1.62,24.45-2.89,37.3-5.17
		c15.48-2.74,27.53-4.47,36.41-5.78c31.98-4.75,50.62-9.61,56.39-14.8c14.66-13.71,22.2-39.91,22.2-78.56
		c0-8.59-0.68-19.69-1.33-32.36C919.89,493.88,919.66,485.49,919.66,482.13z M1330.48,383.48c17.06,17.17,25.76,38.17,25.76,64.63
		c0,64.74-49.3,105.15-147.43,121.26c-39.97,6.56-66.17,10.12-78.16,10.8c-38.63,1.62-58.61-5.92-60.4-22.72
		c-0.43-3.08-0.43-5.78-0.43-8.02c0-9.88,4.43-19.68,12.87-28.33c9.62-9.87,15.88-21.95,18.64-35.89
		c4.22-21.27,9.37-42.33,13.78-63.01c5.36-25.14,7.81-46.16,7.99-63.09c0.22-21.29-3.56-37.52-10.22-48.72
		c-0.71-0.33-1.06-0.49-1.77-0.82c-6.21-5.07-9.32-7.62-15.53-12.78c-3.11-3.48-4.84-9.29-4.45-16.83
		c1.03-19.95,30.19-30.4,87.92-30.46c6.67-0.01,14.21-0.01,23.54,0.39c9.33,0.41,15.1,0.39,17.32,0.39
		c23.52-0.04,43.53,4.08,59.95,11.81c20.77,9.77,31.08,23.88,31.08,43.12c0,20.81-14.21,35.71-26.65,52.2
		C1302.06,361.44,1317.59,370.5,1330.48,383.48z M1202.14,331.79c2.02,11.08,4.88,16.92,8.88,16.67
		c15.53-0.94,23.09-11.71,23.09-32.27c0-12.74-9.78-25.2-22.65-24.86c-7.56,0.2-11.54,5.75-11.54,16.65
		C1199.93,315.96,1200.73,324.03,1202.14,331.79z M1250.1,422.93c0-23.51-9.33-34.24-28.42-32.65c-8.44,0.7-12.42,3.97-12.87,9.89
		c-0.71,12.67-1.07,19.01-1.79,31.73c-0.88,19.06,3.56,28.27,15.55,26.87C1240.77,456.64,1250.1,444.78,1250.1,422.93z
		 M1618.27,423.61c0-8.57-7.54-21.25-16.43-21.29c-3.11-0.01-7.11,2.94-11.99,8.89c-4.88,5.94-10.65,8.92-18.2,8.94
		c-1.34,0-3.11,0.01-5.35-0.36c-3.99-1.11-13.76,1.55-17.3,1.57c-43.08,0.26-64.4-15.17-64.4-45.96c0-12.99,4.9-19.65,14.21-19.72
		c8.44-0.06,14.61,3.08,18.66,9.08c4.19,6.2,8.88,9.17,13.76,9.14c7.54-0.04,12.99-5.65,16.88-16.63c2.7-7.63,4-16.13,4-24.51
		c0-5.47-2.23-8.02-6.67-8.01c-4.88,0-12.44,8.04-17.32,8.06c-11.99,0.04-22.22-2.1-30.64-6.45c-9.77-5.04-14.66-11.6-14.66-19.6
		c0-1.81,0.45-3.26,0.89-5.09c1.32-4.72,3.09-7.6,6.2-8.7c3.91-0.01,5.87-0.02,9.78-0.02c21.31-0.05,37.3,3.19,48.4,9.32
		c4.43,2.53,10.65,7.95,19.09,17.03c5.77,6.17,12.44,9.1,20.43,9.12c8.44,0.02,14.98-3.29,19.54-9.39
		c3.6-4.82,5.33-11.23,5.33-18.82c0-11.93-2.63-22.84-7.99-32.77c-6.95-12.86-16.87-19.29-29.74-19.29c-9.33,0-25.76,0.7-48.4,1.78
		c-22.65,1.06-39.09,1.78-49.3,1.78c-7.54,0-25.83-1.35-32.87-1.41c-18.47-0.17-34.2,1.88-47.06,5.95
		c-15.48,4.9-23.09,12.84-23.09,22.99c0,5.63,1.91,10.41,5.33,12.65c4.11,2.69,8.44,4.26,11.1,5.31
		c5.33,3.21,9.12,11.51,10.67,24.31c0.75,6.22,0,13.49-0.45,21.81c-1.42,38.96-2.13,58.75-3.56,98.89
		c-0.89,23.75-3.56,38.99-7.54,45.36c-3.38,5.14-5.06,7.72-8.44,12.9c-0.89,1.69-4.9,6.16-12.44,13.94
		c-4.43,4.58-6.67,9.3-6.67,14.51c0,12.83,7.56,18.55,22.64,16.38c33.4-4.63,50.09-7.45,83.49-8.58c11.99-0.46,24.45-0.54,37.3-1.27
		c15.49-0.88,27.53-1.11,36.41-1.28c31.98-0.63,50.62-2.15,56.39-5.62c14.66-9.22,22.2-29.42,22.2-59.94
		c0-6.78-0.68-15.67-1.33-25.57C1618.5,432.77,1618.27,426.22,1618.27,423.61z M1842.55,366.29c-11.99-9.29-34.2-21.16-67.06-34.93
		c-24.41-10.22-36.41-18.81-36.41-26.54c0-12.86,10.65-19.36,32.42-19.13c9.76,0.1,19.94,7.46,30.19,21.6
		c10.4,14.36,21.75,21.89,33.3,22.23c16.44,0.48,24.88-8.42,24.88-26.32c0-31.61-8.01-47.12-23.98-47.17
		c-9.33-0.03-22.24-1.54-39.07-4.18c-16.4-2.57-29.31-4.06-38.2-4.06c-27.97,0-51.53,5.85-70.6,16.94
		c-21.69,12.61-32.43,29.82-32.42,52.03c0,12.38,6.67,24.85,20.43,37.55c4,4.1,16.44,13.43,36.86,28.76
		c13.76,9.98,20.43,17.68,20.43,23.3c0,16.47-10.21,24.37-30.64,23.84c-11.99-0.31-20.9-2.08-27.53-5.86
		c-6.13-3.5-12.44-5.81-18.21-5.9c-18.22-0.27-27.53,7.1-27.53,22.07c0,29.96,12.44,53.21,37.73,70.36
		c22.55,15.29,52.4,24.17,88.82,26.15c35.53,1.94,64.85-5.89,87.92-23.92c23.33-18.23,35.09-43,35.09-74.55
		C1878.96,409.74,1866.97,385.24,1842.55,366.29z M2113.45,271.99c-8.91-16.36-19.54-24.2-31.98-24.2c-3.99,0-10.21,4.26-13.32,4.68
		c-16.88,1.23-50.17,1.88-99.92,1.7c-3.99-0.01-10.21-0.83-18.64-2.83c-8.44-1.99-14.66-3.15-18.66-3.15
		c-11.55,0-21.71,7.58-30.64,21.97c-7.83,12.62-11.99,24.47-11.99,36.03c0,11.17,1.05,18.6,3.11,22.49
		c3.19,6.04,10.22,9.68,21.32,10.16c12.87,0.55,23.09-2.12,29.74-8.16c3.11-2.64,7.01-8.71,11.1-17.42
		c2.91-6.19,6.22-9.35,10.22-9.22c0,0,2.22,0.85,6.67,2.61c-0.45,22.84-1.29,37.33-1.79,43.27c-1.97,23.37-6.35,49.93-11.99,79.02
		c-5.86,30.24-11.1,49.41-15.53,56.52c-0.89,1.9-4.92,5.32-11.55,10.29c-5.55,4.16-8.44,8.2-8.44,12.17
		c0,17.12,5.33,29.31,16.43,36.85c11.1,7.54,33.3,13.48,66.17,19.26c41.29,7.27,66.64,10.81,75.93,8.59
		c12.36-2.96,18.66-15.92,18.66-39.91c0-9.17-11.55-20.52-18.66-30.37c-4.43-5.5-8.38-23.06-13.77-50.58
		c-4.8-24.51-8.44-49.14-11.99-74.39c-0.89-6.33-1.33-9.49-2.22-15.8c-2.49-21.63-3.73-32.39-6.22-53.82
		c3.11-1.13,4.45-1.5,4.45-1.5c6.65,0.26,13.72,7.43,20.41,21.32c6.53,13.56,15.55,21.15,26.2,21.94
		c19.09,1.42,28.42-10.23,28.42-35.56C2125,300.18,2120.95,285.75,2113.45,271.99z"/>
	<path d="M276.85,805c0,0-1.64,0.3-5.46,1.37c3.06,30.7,4.58,46.05,7.64,76.72c1.09,8.97,1.64,13.46,2.73,22.42
		c4.37,35.77,8.83,70.38,14.72,104.55c6.62,38.38,11.46,62.43,16.92,69.98c8.73,13.48,22.91,28.42,22.91,40.77
		c0,32.35-7.75,50.32-22.91,54.79c-11.42,3.37-42.56,0.43-93.3-16.37c-40.38-13.37-67.68-29.49-81.31-43.95
		c-13.65-14.47-20.2-33.75-20.2-57.7c0-5.57,3.6-10.1,10.37-13.86c8.08-4.49,13.1-7.99,14.19-10.35
		c5.46-8.5,11.87-33.73,19.09-74.86c6.93-39.48,12.33-76.16,14.74-108.95c0.62-8.37,1.64-28.79,2.18-61.44
		c-5.46-3.73-8.19-5.62-8.19-5.62c-4.91-1.31-9.01,2.33-12.56,10.25c-5.07,11.32-9.81,18.75-13.63,21.54
		c-8.19,6.52-20.74,6.96-36.56,1.41c-13.65-4.79-22.27-12.78-26.2-22.69c-2.55-6.41-3.8-17.28-3.8-33.14
		c0-16.39,5.14-31.63,14.72-46.72c10.98-17.29,23.46-24.74,37.65-21.01c4.91,1.29,12.56,4.97,22.91,10.38
		c10.37,5.42,18.02,8.37,22.93,9.51c61.11,14.2,102.03,18.94,122.76,20.18c3.82-0.04,11.46-4.98,16.38-4.32
		c15.27,2.06,28.34,14.58,39.29,38.18c9.2,19.84,14.18,39.79,14.18,58.53c0,34.44-11.45,50.02-34.92,46.53
		c-13.08-1.94-24.15-13.4-32.19-33.2C293.69,817.64,285.04,806.48,276.85,805z M759.13,1081.38
		c-21.29-66.91-31.65-129.48-31.65-181.51c0-26.32,2.71-47.77,8.72-64.76c3.28-9.68,8.72-20.25,16.38-30.77
		c5.92-8.12,8.74-15.11,8.74-20.45c0-27.89-30.03-39.08-89.5-36.95c-19.63,0.7-36.72,4.09-51.28,9.92
		c-20.1,8.05-30.03,21.15-30.03,38.81c0,11.55,5.06,20.58,14.74,26.49c10.34,6.31,15.29,18.39,15.29,37.02
		c0,13.23-5.46,21.79-15.83,25.05c-3.82,1.3-13.65,2.18-30.55,2.35c-17.47,0.17-28.92-1.14-33.83-3
		c-10.37-4.32-15.83-14.71-15.83-30.49c0-11.53,4.91-22.96,14.74-33.18c9.83-10.22,14.72-19.96,14.72-28.49
		c0-28.71-30.01-42.48-89.48-45.56c-20.18-1.04-37.14,0.83-51.28,5.23c-20.17,6.27-30.55,18.01-30.55,35.62
		c0,10.92,3.28,18.54,9.26,23.38c9.83,7.64,15.28,12.37,16.92,14.33c5.99,9.62,8.72,25.03,8.17,46.15
		c-0.22,9.18-0.33,13.76-0.55,22.92c-1.09-0.1-4.32,28.14-9.81,83.82c-5.96,60.4-14.19,99.77-24,118.06
		c-1.09,2.8-6.31,7.51-14.74,15.14c-6.54,5.92-9.83,12.12-9.83,18.01c0,29.44,10.92,50.07,32.19,61.43
		c11.47,6.07,34.92,11.18,69.3,12.8c5.46,0.26,13.12,0.6,22.93,1.41c10.34,0.85,17.45,0.88,21.82,0.9
		c23.46,0.1,40.39-4.62,50.74-12.51c13.6-10.37,20.74-29.78,20.74-57.65c0-6.39-4.06-14.35-12.01-22.84
		c-9.29-9.92-14.42-18.49-15.82-23.61c-1.82-6.71-2.73-28.12-2.73-64.26c0-24.9,1.09-40.41,3.28-45.78
		c3.82-12.54,15.27-18.52,33.28-18.93c17.45-0.4,21.27,7.13,21.27,26.05c0,13.58,1.64,34.19,4.37,60.37
		c2.73,26.19,4.37,45.81,4.37,59.12c0,4.64-4.36,12.18-13.65,21.72c-9,9.25-13.63,18.15-13.63,26.24c0,23.14,11.45,36.94,34.92,40.5
		c7.08,1.07,27.28-0.1,61.65-4.73c72.57-9.79,108.59-31.88,108.59-59.48C789.69,1115.48,779.31,1099.93,759.13,1081.38z
		 M995.82,1026.4c-5.99-5.61-11.6-28-19.09-65.41c-6.65-33.22-12.01-66.15-15.29-97.42c0-1.12,0-1.68,0-2.79
		c0-33.72,3.77-60.1,9.83-77.62c5.89-17.04,24-21.44,24-43.36c0-12.37-5.56-20.21-16.91-24.23c-13.04-4.62-36.11-4.17-68.21,1.09
		c-22.83,3.75-42.04,10.67-57.85,19.84c-18.99,11.02-28.37,24.97-28.37,40.8c0,8.77,2.35,15.85,6.55,18.67
		c4.83,3.24,10.37,5.05,13.65,6.17c9.26,6.37,16.08,31.16,14.72,67.46c-1.31,35.01-8.27,75.48-14.72,116.34
		c-7.18,45.45-13.65,73.71-18.56,85.37c-1.09,3.01-5.98,9.39-14.18,19.15c-6.84,8.15-10.37,14.94-10.37,20.48
		c0,23.82,6.55,38.41,20.18,43.73c13.65,5.32,40.38,3.38,81.31-6.59c50.75-12.37,81.86-23.66,93.3-32.1
		c15.18-11.2,22.93-31.3,22.93-61.5C1018.75,1042.95,1004.56,1034.6,995.82,1026.4z M1421.38,630.14
		c-13.42-4.36-36.09-4.02-68.21,0.99c-23.4,3.65-42.62,10.3-57.85,18.62c-18.86,10.31-28.37,22.98-28.37,37.03
		c0,7.79,2.4,14.24,6.01,16.46c4.57,2.82,10.37,4.12,13.65,5.01c13.63,8.11,24,20.99,30.01,38.93c1.64,9,2.73,17.62,3.82,25.72
		c0.22,0.37,0.33,0.56,0.55,0.93c0,1.04,0,1.56,0,2.61c1.09,7.57,1.64,13.72,1.64,17.38c0,9.93-2.18,18.25-6.55,24.47
		c-4.37,2.54-8.19,2.35-12.01,0.05c-14.72-10.36-29.86-36.13-44.75-76.7c-13.8-37.6-31.49-59.79-46.37-68.1
		c-11.07-6.18-36.71-8.41-76.39-1.22c-23.33,4.23-42.62,11.42-57.83,20.35c-18.85,11.06-28.39,24.57-28.39,39.52
		c0,8.29,2.4,14.91,6.55,17.38c4.86,2.89,10.37,4.36,13.65,5.29c12.01,7.26,16.99,28.67,14.72,63.57
		c-1.55,23.86-4.27,50.96-8.17,80.87c-4.79,36.75-12.56,77.75-23.47,122.3c-5.02,6.38-7.52,9.58-12.54,15.96
		c-4.91,6.25-7.1,11.77-7.1,16.71c0,4.16,0,6.24,0,10.41c0,8.23,2.74,15.42,6.01,20.31c4.53,6.8,13.33,11.57,26.73,12.96
		c15.06,1.56,30.01,0.52,44.75-3.52c37.65-10.32,62.71-18.14,73.66-22.22c22.2-8.26,41.67-15.34,50.74-22.65
		c11.44-9.23,17.47-22.39,17.47-38.08c0-5.95-0.46-12.41-1.64-19.02c-0.99-5.59-4.91-10.62-9.82-15.3
		c-5.02-4.75-7.53-7.13-12.56-11.87c-3.82-3.87-9.13-17.28-15.81-39.02c-6.84-22.26-9.83-37.82-9.83-46.95
		c0-5.9,2.18-9.64,6.01-10.58c12.56-3.09,26.19,10.66,41.47,40.59c24.55,47.98,39.29,75.63,44.73,83.45
		c21.29,28.78,45.29,40.52,72.03,34.69c24.02-5.24,39.84-17.09,47.48-35.37c4.91-11.8,7.1-31.71,7.1-59.5
		c0-20.84-4.87-49.21-14.74-84.42c-10.28-36.71-16.64-64.25-16.91-82.95c-0.07-5.07,0-7.2,0-6.68c0-15.96,2.18-30.72,9.81-44.34
		c5.24-9.71,7.86-14.55,13.1-24.15c6.55-15.3,24-18.75,24-38.18C1437.74,640.91,1432.21,633.66,1421.38,630.14z M1760.67,743.79
		c-11.47-0.83-29.46-0.37-28.92-0.34c-40.93-2.15-61.11,4.83-61.11,18.58c0,4.91,3.81,9.87,10.9,14.9
		c7.1,5.05,10.92,9.09,10.92,12.05c0,9.36-7.64,13.59-22.37,13.48c-26.2-0.19-48.05-4.13-64.94-13.07
		c-21.26-11.25-31.65-28.23-31.65-51c0-15.36,6.04-30.88,17.47-45.82c12.54-16.39,26.73-24.33,43.66-24.33
		c14.72,0,25.64,4.5,32.74,12.83c5.45,9.77,8.18,14.66,13.63,24.5c6.55,8.39,16.92,13.01,31.65,13.61
		c18.01,0.73,30.01-5.31,36.01-18.5c3.28-8.03,4.91-21.48,4.91-40.74c0-11.06-2.14-21.41-6.55-30.65
		c-5.85-12.26-14.72-18.51-26.19-19.02c-7.1-0.31-25.64,7.6-32.74,7.4c-7.09-0.2-17.53-1.86-32.19-5.46
		c-14.15-3.47-25.09-5.01-32.74-5.01c-51.84-0.02-94.37,21.97-128.22,66.38c-30.42,39.91-45.84,85.73-45.84,135.99
		c0,49.72,14.28,92.88,42.56,128.2c31.66,39.54,72.57,56.15,122.22,52.84c33.28-2.22,58.92-6.75,76.94-15.37
		c8.19-4.06,28.37-17.84,59.47-38.57c1.64-1.39,7.64-2.55,17.47-3.29c9.81-0.74,17.45-3.52,22.36-7.54
		c2.18-1.79,3.28-6.18,3.28-12.68c0-14.99-3.82-42.89-12.01-82.69c-2.18-11.08-0.55-21.78,4.37-32.64c5.24-5.81,7.86-8.7,13.1-14.46
		c5.46-5.82,8.1-11.98,7.64-19.32C1805.84,753.31,1790.68,745.97,1760.67,743.79z M2072.13,826.4
		c-14.72-17.4-42.01-41.98-82.38-69.99c-30-20.81-44.75-34.96-44.75-45.48c0-17.53,13.1-24.22,39.83-18.27
		c12.01,2.67,24.47,15.54,37.11,38.22c12.83,23.04,26.73,37.15,40.93,41.66c20.18,6.41,30.55-2.68,30.55-27.85
		c0-44.45-9.83-69.32-29.46-74.52c-11.46-3.03-27.35-9.18-48.02-17.48c-20.16-8.09-36.01-13.25-46.93-15.32
		c-34.38-6.53-63.32-2.82-86.75,9c-26.65,13.44-39.83,35.26-39.83,65.1c0,16.62,8.19,34.26,25.09,53.67
		c4.91,6.2,20.2,20.77,45.29,45.88c16.92,16.46,25.09,28.59,25.09,36.16c0,22.21-12.54,30.06-37.65,24.93
		c-14.72-3.01-25.65-7.04-33.83-13.32c-7.54-5.79-15.27-9.95-22.36-10.99c-22.37-3.29-33.83,5.43-33.83,25.34
		c0,39.79,15.29,71.91,46.38,99.34c27.72,24.45,64.38,42.7,109.13,56.66c43.64,13.62,79.75,14.99,108.03,0.38
		c28.61-14.78,43.11-43.37,43.11-87.37C2116.88,901.93,2102.15,861.9,2072.13,826.4z"/>
	<path d="M277.53,1531.08c8.95,11.2,23.49,24.53,23.49,35.1c0,27.7-7.91,43.15-23.49,47.52c-11.72,3.28-43.66,1.67-95.7-8.66
		c-41.97-8.33-69.4-19.02-83.37-30.93c-14-11.91-20.71-30.13-20.71-54.16c0-5.58,3.68-10.61,10.64-15.09
		c8.31-5.35,13.43-9.13,14.54-11.54c5.05-8.91,11.67-33.34,19.02-73.27c6.6-35.82,13.78-71.69,15.12-102.79
		c1.48-34.36-5.59-60.73-15.12-72.39c-3.34-3.06-8.69-7.77-13.98-14.28c-4.57-5.63-6.72-13.49-6.72-21.78
		c0-14.9,9.59-21.76,29.1-20.36c16.16,1.16,35.85,6.08,59.32,14.95c32.9,12.43,56.53,22.64,69.94,32.88
		c11.65,8.89,17.35,18.49,17.35,29.92c0,20.27-18.62,16.29-24.63,29.22c-6.21,13.35-10.06,35.98-10.06,67.19c0,1.04,0,1.56,0,2.6
		c3.34,30.48,8.87,63.54,15.67,97.21C265.63,1500.45,271.38,1523.4,277.53,1531.08z M713.99,1254.32
		c-13.75-5.26-37.02-5.65-69.96-3.06c-23.98,1.88-43.72,6.55-59.32,12.97c-19.35,7.96-29.1,18.96-29.1,32.97
		c0,7.79,2.35,14.52,6.17,17.46c4.8,3.69,10.62,5.9,13.98,7.34c13.99,10.38,24.63,24.91,30.78,43.74c1.67,9.22,2.8,17.93,3.92,26.1
		c0.22,0.4,0.33,0.61,0.55,1.01c0,1.03,0,1.54,0,2.57c1.13,7.65,1.69,13.78,1.69,17.37c0,9.73-2.23,17.47-6.72,22.71
		c-4.48,1.69-8.39,0.78-12.31-2.17c-15.12-12.79-30.59-40.6-45.89-83.35c-14.16-39.55-32.14-64.88-47.58-76.33
		c-11.55-8.57-37.67-15.73-78.35-19.98c-23.97-2.5-43.76-1.89-59.3,1.26c-19.36,3.92-29.1,12.76-29.1,26.65
		c0,7.73,2.26,14.6,6.72,18.64c5.2,4.7,10.64,7.89,13.99,9.95c12.31,11.11,17.45,32.82,15.1,64.38c-1.6,21.53-4.41,45.63-8.4,71.73
		c-4.9,32.01-12.87,66.69-24.05,103.25c-5.15,3.94-7.72,5.9-12.87,9.82c-5.05,3.82-7.28,8.04-7.28,12.54c0,3.81,0,5.72,0,9.52
		c0,7.51,2.7,14.92,6.15,20.78c4.65,7.9,13.67,15.49,27.43,21.5c15.56,6.8,30.77,10.86,45.89,12.06
		c38.61,3.07,64.58,3.24,75.53,2.73c23.31-1.09,42.73-2.22,52.04-6.45c11.67-5.29,17.91-15.64,17.91-29.8
		c0-5.37-0.49-11.35-1.69-17.63c-1.02-5.34-5.03-10.86-10.07-16.36c-5.15-5.6-7.72-8.41-12.87-14.06
		c-3.92-4.54-9.39-18.2-16.23-40.01c-7.03-22.42-10.08-37.65-10.08-46.15c0-5.49,2.25-8.41,6.15-8.28
		c12.89,0.44,26.87,16.84,42.53,48.35c25.2,50.53,40.3,78.77,45.89,87.08c21.84,30.82,46.45,46.1,73.88,45.46
		c24.62-0.57,40.84-9.01,48.68-24.72c5.03-10.12,7.26-28.13,7.26-54.34c0-19.65-4.99-47.33-15.1-83
		c-10.55-37.2-17.08-65.62-17.35-84.6c-0.07-5.14,0-7.32,0-6.79c0-16.21,2.25-31.09,10.08-44.58c5.37-9.64,8.06-14.5,13.43-24.29
		c6.72-15.72,24.63-18.54,24.63-39.72C730.78,1266.68,725.08,1258.57,713.99,1254.32z M1203.02,1389.81
		c-5.03-2.31-9.51-3.02-14.54-1.87c-5.05,1.15-12.31,5.09-22.38,11.37c-5.05,3.42-15.12,11.99-30.22,24.99
		c-10.07,9.04-20.71,14.77-31.33,17.14c-16.23,3.61-28.55-19.31-36.94-67.86c-0.56-4.32-1.13-26.39-1.13-67
		c0-28.93,3.86-52.35,10.08-70.03c6.04-17.19,24.63-22.73,24.63-44.57c0-12.31-5.73-19.68-17.35-22.72
		c-13.35-3.49-37.01-1.01-69.94,7.09c-23.42,5.76-43.11,14.23-59.32,24.39c-19.49,12.21-29.1,26.13-29.1,40.99
		c0,8.27,2.49,14.75,6.72,17.05c5.01,2.72,10.62,3.97,13.98,4.79c10.64,6.15,16.52,30.25,16.79,72.09
		c0.28,42.24-3.92,86.57-11.18,131.22c-1.69,10.06-8.56,27.18-19.59,50.67c-10.13,21.58-15.12,35.84-15.12,43.22
		c0,33.25,23.51,45.53,70.52,37.25c-1.69,0.3,20.77-3.03,67.71-10.43c27.38-4.31,49.81-8.94,67.15-14.33
		c11.42-2.52,17.12-3.77,28.54-6.29c1.69-0.86,5.1-1.42,8.97-1.62c4.96-0.26,8.39-0.93,10.62-1.33c13.43-2.41,24.07-8.9,31.35-20.07
		c13.98-21.67,21.26-56.92,21.26-106.1c0-19.67-1.67-32.01-4.47-37.74C1217.02,1397.59,1211.98,1394.1,1203.02,1389.81z
		 M1408.92,1342.91c-6.81-36.21-12.31-71.21-15.66-103.82c0-1.17,0-1.75,0-2.92c0-35.03,3.86-61.92,10.07-79.74
		c6.03-17.31,24.62-21.6,24.62-43.9c0-12.57-5.73-20.54-17.35-24.49c-13.34-4.54-37-3.73-69.94,3.14
		c-23.42,4.89-43.11,13.07-59.32,23.22c-19.49,12.21-29.1,26.53-29.1,41.84c0,8.52,2.48,15.23,6.72,17.64
		c4.98,2.82,10.64,4.2,14,5.1c9.51,5.64,16.48,29.87,15.1,66.28c-1.34,35.23-8.49,76.51-15.1,118.63
		c-7.36,46.85-14,76.43-19.02,88.55c-1.13,3.15-6.14,9.73-14.56,19.83c-7.02,8.41-10.64,15.49-10.64,21.3
		c0,25.04,6.72,40.72,20.71,47.07c14,6.35,41.41,5.78,83.38-0.99c52.04-8.39,83.97-16.08,95.7-23.88
		c15.55-10.34,23.51-31.02,23.51-64.81c0-12.89-14.56-25.01-23.51-35.07C1422.36,1409.04,1416.6,1383.71,1408.92,1342.91z
		 M1776.55,1075.39c-9.05-22.33-21.26-34.36-36.92-35.14c-11.76-0.58-31.04,0.79-55.96,4.06c-24.85,3.26-44.77,5.55-57.64,6.15
		c-28.55,1.33-41.42,2.58-38.61,2.37c-3.14,0.24-4.71,0.36-7.84,0.61c-3.92-0.27-6.74-0.01-8.39,0.11
		c-23.2,1.74-43.12,7.33-59.32,15.61c-19.48,9.97-29.1,23.39-29.1,39.02c0,8.7,2.37,15.81,6.72,18.91c5,3.57,10.62,5.76,13.98,7.16
		c9.51,7.14,15.12,30.67,15.12,70.6c0,0.24,0,0.36,0,0.6c0.89,68.8,1.34,103.75,2.23,174.74c0,18.44-3.92,35.29-15.1,49.41
		c-8.51,10.79-12.77,16.19-21.28,27c-9.51,11.61-13.43,22.33-13.43,30.4c0,20.47,9.51,30.65,28.55,29.97
		c42.08-2,63.12-2.73,105.19-3.35c5.05-0.02,13.21,0.29,24.63,1.29c11.46,1,20.13,2.1,26.3,2.2c22.94,0.36,34.67-6.23,35.81-20.13
		c1.09-13.24-6.7-28.99-23.51-47.33c-18.2-19.86-28.54-34.9-30.78-44.3c-8.95-43.82-13.74-91.19-11.75-141.75
		c0.48-12.2,1.12-20.23,2.23-23.3c2.23-6.14,7.84-9.3,16.23-9.37c10.64-0.08,20.71,5.44,29.66,16.61
		c8.95,11.17,15.67,16.89,19.59,16.99c11.2,0.3,18.46-11.11,18.46-23.43c0-48.6-2.8-73.01-8.95-73.18
		c-6.72-0.18-17.9,11.19-24.05,11.12c-14.56-0.15-27.08-3.67-36.38-10.22c-10.6-7.46-16.23-18.98-16.23-34.03
		c0-14.45,12.96-22.81,38.61-23.68c20.63-0.69,36.92,5.02,48.12,16.32c3.92,3.77,10.64,14.32,20.15,31.26
		c6.15,11.29,14,17.26,22.95,17.88c10.64,0.74,18.38-4.44,24.05-13.98c4.77-8.01,7.28-18.23,7.28-31.02
		C1787.19,1111.52,1783.64,1092.88,1776.55,1075.39z M2108.38,1442.27c-0.85-15.95-1.13-25.82-1.13-29.79
		c0-13.01-9.51-35.79-20.71-39.72c-3.91-1.37-8.95,1.44-15.1,8.63c-6.15,7.21-13.43,9.55-22.95,6.69c-1.67-0.5-3.92-1.17-6.72-2.56
		c-5.03-3.24-17.34-2.62-21.82-3.85c-54.28-14.83-81.14-44.76-81.14-94.83c0-21.11,6.15-30.58,17.9-27.67
		c10.64,2.63,18.37,9.82,23.51,21c5.29,11.51,11.2,17.89,17.35,19.61c9.51,2.66,16.38-4.32,21.26-20.29
		c3.41-11.2,5.05-24.24,5.05-37.72c0-8.79-2.8-13.84-8.41-15.67c-6.15-2.01-15.66,8.01-21.82,6.18c-15.1-4.49-28-11.5-38.61-21.43
		c-12.31-11.51-18.46-23.8-18.46-37.01c0-3,0.55-5.26,1.11-8.11c1.69-7.38,3.92-11.61,7.84-12.38c4.92,1.28,7.38,1.94,12.31,3.29
		c26.87,7.37,47.01,19.42,60.99,34.17c5.61,6.03,13.43,17.55,24.07,35.92c7.28,12.53,15.67,20.2,25.74,24.09
		c10.64,4.11,18.99,2.1,24.62-4.91c4.53-5.65,6.72-14.71,6.72-26.61c0-18.72-3.3-37.38-10.07-56.27
		c-8.79-24.52-21.26-40.62-37.48-47.39c-11.75-4.9-32.47-12.19-60.99-19.95c-28.55-7.76-49.25-12-62.12-15.28
		c-9.51-2.42-32.58-10.01-41.41-11.94c-23.29-5.08-43.14-4.85-59.32-0.55c-19.48,5.17-29.1,16.95-29.1,33.32
		c0,9.11,2.22,16.97,6.72,21.4c5.09,5,10.62,8.56,13.98,10.83c6.72,6.32,11.48,20.73,13.43,41.96c0.96,10.4,0,21.96-0.56,35.33
		c-1.79,62.85-2.68,94.49-4.47,158.23c-1.12,37.68-4.48,61.01-9.51,69.88c-4.26,7.06-6.38,10.6-10.64,17.72
		c-1.12,2.41-6.15,8.19-15.66,18.1c-5.61,5.82-8.41,12.54-8.41,20.73c0,20.16,9.51,31.51,28.55,33.11
		c42.08,3.78,63.12,6.18,105.19,12.25c15.12,2.09,30.83,5.01,47.01,7.14c19.54,2.57,34.69,5.46,45.89,7.62
		c40.28,7.79,63.79,11.27,71.07,7.87c18.46-9.3,27.97-36.43,27.97-82.18C2110.05,1471.07,2109.18,1457.45,2108.38,1442.27z"/>
	<path d="M696.14,1925.48c-6.52-5.64-10.26-8.62-10.67-9.63c-9.43-12.95-16.26-28.84-20.91-47.14
		c-3.14-12.36-7.52-22.63-12.31-30.07c-5.36-8.33-13.94-16.29-25.03-24.13c-0.41,0-6.97-2.38-20.51-7.55
		c-9.02-3.44-14.76-8.61-17.63-15.83c27.89-12.54,41.84-30.23,41.84-52.17c0-17.77-10.72-30.98-31.99-40.48
		c-17.2-7.68-37.32-11.72-59.88-12.13c-6.15-0.11-21.74-0.02-45.94,0.23c-6.9-0.52-10.34-0.79-17.24-1.35
		c-17.63-1.42-32.07,0.45-43.47,3.57c-14.2,3.89-21.34,10.79-21.34,20.34c0,5.31,1.71,9.89,4.93,12.3
		c3.81,2.85,7.79,4.66,10.26,5.84c6.57,4.92,11.92,21.24,11.07,43.27c-0.79,20.39-6.22,44.68-11.07,68.69
		c-5.39,26.72-10.26,43.2-13.96,49.66c-1.22,1.7-4.5,4.73-10.65,9.8c-4.1,3.36-6.48,6.58-7.36,9.49c-0.06-6.5-1.46-11.86-4.17-15.93
		c-2.05-2.45-5.93-5.95-11.89-9.97c-6.12-4.12-10.26-8.62-12.31-12.53c-15.99-27.75-31.99-69.4-47.99-126.29
		c-4.1-14.41-7.39-24.16-10.26-29.15c-9.03-15.76-16-26.08-20.51-30.62c-10.26-9.98-25.03-17-44.3-21.61
		c-11.48-2.75-29.68-3.32-54.56-2.4c-28.97,1.07-43.89,5.86-43.89,14.51c0,1.57,1.67,4.22,5.33,7.98c4.52,4.64,7.38,9.05,9.43,12.87
		c3.71,7.21,5.34,15.19,5.34,24.87c0,24.79-5.65,53.14-16.82,85.44c-12.89,37.26-28.35,61.98-45.52,72.89
		c-14.61,9.28-21.94,22.67-21.75,39.22c0.2,18.6,18.88,28.29,56.61,28.46c25.03,0.11,42.66-0.97,52.11-3.57
		c19.69-4.79,29.53-15.8,29.53-32.93c0-4.46-2.46-9.35-7.79-14.79c-7.79-8.11-13.14-13.65-15.19-16.77
		c-5.33-8.55-7.79-18.59-7.79-30c0-15.6,4.93-25.88,15.19-30.74c7.79-0.51,11.48-0.99,11.48-0.99c10.67,0.82,20.57,3.18,29.53,6.97
		c11.71,4.95,18.05,11.45,18.05,19.12c0,22.68-6.15,39.17-18.44,49.78c-2.05,6.93-2.88,13.53-2.88,19.05
		c0,15.08,7.38,25.09,22.56,30.26c9.02,3.31,23.79,4.8,44.3,4.85c20.51,0.06,37.79-2.11,52.09-5.78
		c19.97-5.12,31.46-13.52,33.92-25.17c0.26,11.95,5.21,20.68,14.12,25.02c10.05,4.89,31.18,7.22,62.35,7.25
		c38.15,0.04,61.55-1.6,70.14-4.92c11.07-4.27,16.82-15.2,16.82-33.56c0-7.01-10.26-14.27-16.82-20.88
		c-6.4-6.43-11.89-25.94-17.63-58.44c-1.23-5.81,2.09-9.49,9.84-11.11c4.5-0.94,8.62-0.22,11.89,2.21
		c9.84,7.28,17.01,23.51,20.93,47.67c4.67,28.8,9.43,47.61,14.77,56.59c10.65,18.28,30.36,27.12,58.66,27.12
		c6.55,0,14.39-0.62,23.79-1.97c11.03-1.59,19.27-2.29,24.2-2.63c3.94-1.98,5.91-2.96,9.84-4.94c4.52-2.31,6.96-4.29,6.96-6.61
		C703.52,1933.09,701.07,1929.74,696.14,1925.48z M239.14,1773.1c-1.24-0.86-4.93-1.59-10.26-2.1c-3.28-0.32-13.14-0.16-16.41-0.5
		c-6.98-0.71-10.67-2.25-10.67-4.53c0-4.92,2.03-11.95,6.57-20.82c5.27-10.32,10.26-14.99,14.77-14.46
		c7.79,0.93,14,6.89,18.46,17.37c4.94,11.61,7.38,18.55,7.38,20.4C248.98,1771.78,245.7,1773.34,239.14,1773.1z M541.09,1768.95
		c-4.94,6.41-11.48,9.82-19.69,9.65c-4.52-0.09-6.98-3.24-7.39-9.12c-1.31-14.27-1.97-21.44-3.28-35.82
		c-1.22-5.96,6.15-11.01,13.12-10.85c16.01,0.35,23.8,9.19,23.8,26.18C547.65,1756.27,545.54,1763.17,541.09,1768.95z M946,1858.61
		c0.59,9.93,1.23,18.76,1.23,25.51c0,30.44-6.98,50.35-20.51,59.26c-5.33,3.34-22.56,4.84-52.09,4.91
		c-8.21,0.02-19.33,0.02-33.63,0.43c-11.88,0.35-23.39,0.05-34.46,0.08c-30.85-0.07-46.27-0.1-77.12-0.22
		c-13.95,0-20.93-5.57-20.93-16.17c0-4.3,2.05-7.95,6.15-11.29c6.98-5.66,10.67-9.01,11.48-10.34c3.12-4.02,4.69-6.03,7.81-10.06
		c3.69-5.04,6.15-17.79,6.97-38.51c1.32-35.06,1.98-52.85,3.29-88.95c0.4-7.69,1.1-14.49,0.4-20.34
		c-1.43-12.02-4.91-19.97-9.84-23.03c-2.46-0.99-6.47-2.5-10.26-5.03c-3.17-2.12-4.91-6.59-4.91-11.91c0-9.56,7.03-17.2,21.32-22.39
		c11.87-4.31,26.45-7.7,43.49-9.74c6.49-0.78,23.37-1.64,30.36-2.58c9.43-1.28,24.6-4.07,45.53-8.19
		c20.93-4.11,36.1-7.14,44.71-8.43c11.89-1.78,21.07,3.77,27.48,16.55c4.97,9.91,7.4,21.18,7.4,33.81c0,8.02-1.6,14.96-4.93,20.44
		c-4.22,6.95-10.26,11.08-18.05,11.98c-7.38,0.85-13.53-1.47-18.88-7.2c-7.79-8.44-13.53-13.32-17.63-15.41
		c-10.26-5.07-25.03-6.51-44.71-4.1c-3.61,0.44-5.41,0.66-9.02,1.1c-2.88,1.44-4.52,4.56-5.74,9.42c-0.41,1.87-0.83,3.36-0.83,5.18
		c0,7.99,4.52,14,13.53,18.09c7.77,3.53,17.24,4.71,28.3,3.51c4.52-0.49,11.5-9.37,16-9.88c4.1-0.46,6.15,1.9,6.15,7.46
		c0,8.54-1.19,17.25-3.69,25.17c-3.59,11.37-8.62,17.34-15.58,17.96c-4.51,0.4-8.88-2.21-12.72-7.95
		c-3.74-5.59-9.43-8.18-17.22-7.44c-8.62,0.82-13.14,7.71-13.14,20.21c0,29.64,19.69,43.2,59.49,40.58c3.28-0.22,12.31-3.39,16-2.54
		c2.05,0.23,3.69,0.12,4.91,0.04c6.98-0.47,12.31-3.78,16.82-10.08c4.52-6.3,8.2-9.59,11.07-9.81c8.2-0.64,15.19,11.66,15.19,20.34
		C945.17,1841.7,945.39,1848.31,946,1858.61z M1307.83,1820.45c2.05,4.85,3.29,14.8,3.29,30.31c0,38.8-5.34,65.67-15.6,80.86
		c-5.33,7.83-13.12,11.5-22.96,11.54c-1.64,0.01-4.16,0.06-7.79-0.42c-2.84-0.38-5.34-0.41-6.57,0.03c-8.37,0.4-12.56,0.6-20.93,1
		c-12.7,1.83-29.15,2.34-49.21,1.95c-34.41-0.67-50.87-1.06-49.65-1.07c-34.46,0.15-51.68-12.39-51.68-38.03
		c0-5.7,3.65-16.07,11.07-31.45c8.07-16.71,13.14-29.06,14.36-36.56c5.35-33.38,8.41-66.69,8.21-98.74
		c-0.2-31.68-4.52-50.33-12.31-55.84c-2.46-0.89-6.58-2.29-10.26-4.73c-3.15-2.09-4.91-7.08-4.91-13.21
		c0-11.03,7.04-20.66,21.32-28.29c11.88-6.35,26.32-11.17,43.49-13.53c24.13-3.32,41.48-3.03,51.27,0.91
		c8.51,3.42,12.72,9.66,12.72,19.14c0,16.79-13.62,19.16-18.05,31.72c-4.56,12.93-7.38,30.47-7.38,52.75
		c0,31.29,0.4,48.45,0.81,51.86c6.15,38.57,15.19,58.09,27.08,57.38c7.79-0.46,15.58-3.55,22.96-9.31
		c11.08-8.22,18.46-13.64,22.15-15.67c7.4-3.62,12.72-5.81,16.41-6.06c3.69-0.26,6.98,0.87,10.67,3.31
		C1302.92,1814.84,1306.61,1818.26,1307.83,1820.45z M1455.11,1578.15c-41.84,1.58-75.15,30.17-99.68,75.28
		c-21.34,39.24-31.99,82.64-31.99,131.82c0,44.62,10.64,82.21,31.58,113.37c23.2,34.52,54.56,52.62,93.53,52.62
		c34.87,0,64.71-13.33,89.01-39.25c25.85-27.57,38.98-61.97,38.98-102.52c0-59.36-9.17-110.46-27.49-154.12
		C1526.82,1602.41,1495.72,1576.62,1455.11,1578.15z M1458.39,1786.07c-16,0.19-27.84-11.64-36.1-35.86
		c-6.08-17.85-9.02-37.7-9.02-58.63c0-12.57,1.84-24.42,5.33-35.37c4.65-14.6,11.09-22.56,19.69-23.53
		c14.36-1.62,26.67,14.2,36.51,45.5c7.79,24.76,11.89,47.94,11.89,68.9C1486.69,1772.78,1477.26,1785.84,1458.39,1786.07z
		 M1869.04,1623.82c0.15,8.57-3.71,15.99-11.07,22.06c-9.15,7.55-14.77,13.17-16,16.34c-9.84,22-23.95,68.94-41.85,142.52
		c-16.07,66.04-28.7,107.55-37.73,122.43c-3.69,5.75-10.31,10.67-19.69,14.41c-7.3,2.91-13.94,4.34-19.29,4.33
		c-16.81-0.02-31.99-17.59-45.53-52.61c-9.03-23.37-18.46-58.86-28.72-105.59c-10.67-48.67-17.63-76.3-19.27-82.5
		c-4.1-14.13-6.15-21.19-10.26-35.25c-4.93-16.15-9.84-26.57-15.19-31.31c-2.46-1.42-6.59-3.72-10.26-7.09
		c-3.27-3-4.91-8.95-4.91-16c0-12.69,7.05-22.55,21.32-28.63c11.86-5.06,26.32-7.79,43.49-7.11c24.1,0.95,41.45,4.81,51.27,11.1
		c8.5,5.45,12.72,13.09,12.72,23.44c0,3.28-0.51,5.68-0.83,7.95c-0.51,3.61-11.62,17.27-10.65,38.32
		c0.54,11.67,4.05,28.57,11.07,49.08c7.68,22.46,15.19,36.04,22.15,40.05c9.45-3.06,18.17-16.63,25.84-40.77
		c6.62-20.86,9.86-38.63,9.86-53.64c0-7.03-3.29-12.82-9.45-16.88c-6.15-4.05-9.02-10.29-9.02-19.19
		c0-24.82,20.51-36.12,61.11-32.98c11.91,0.92,22.82,4.07,32.01,9.15C1862.37,1602.17,1868.83,1612.03,1869.04,1623.82z
		 M2111.5,1876.79c0,33.57-6.98,55.33-20.51,65.33c-5.33,3.75-22.57,5.39-52.09,5.3c-8.2-0.02-19.33-0.1-33.63,0.36
		c-11.87,0.38-23.39-0.05-34.46-0.08c-30.85-0.25-46.27-0.37-77.12-0.61c-13.95-0.03-20.93-8-20.93-22.99
		c0-6.08,2.05-11.21,6.15-15.82c6.98-7.83,10.67-12.39,11.48-14.23c3.12-5.51,4.69-8.26,7.81-13.74c3.69-6.85,6.15-24.36,6.97-52.4
		c1.32-47.47,1.98-71.09,3.29-118.13c0.4-10.01,1.1-18.72,0.4-26.43c-1.44-15.82-4.91-26.45-9.84-31.05
		c-2.46-1.6-6.55-4.18-10.26-7.84c-3.29-3.25-4.91-9.16-4.91-16.03c0-12.35,7.05-21.26,21.32-25.57
		c11.86-3.58,26.44-4.34,43.49-1.78c6.45,0.97,23.37,5.1,30.36,6.16c9.43,1.43,24.61,2.88,45.53,5.27
		c20.92,2.39,36.1,4.58,44.71,6.32c11.89,2.41,21.05,12.03,27.48,28.35c4.97,12.62,7.4,25.65,7.4,39.39c0,8.72-1.6,15.78-4.93,20.79
		c-4.17,6.28-10.26,9.22-18.05,8.02c-7.38-1.13-13.53-5.44-18.87-13.5c-7.79-11.86-13.53-19.21-17.64-22.86
		c-10.25-8.92-25.03-15.17-44.71-17.94c-3.61-0.51-5.41-0.76-9.02-1.25c-2.88,0.93-4.51,4.26-5.74,9.85
		c-0.41,2.16-0.83,3.88-0.83,6.1c0,9.76,4.52,18.32,13.53,25.56c7.77,6.25,17.24,10,28.3,11.42c4.52,0.58,11.5-8.01,16-7.38
		c4.1,0.57,6.15,3.87,6.15,10.33c0,9.91-1.18,19.71-3.69,28.41c-3.58,12.45-8.62,18.49-15.58,17.76
		c-4.52-0.47-8.86-4.47-12.72-12.26c-3.77-7.61-9.43-12-17.22-12.82c-8.62-0.91-13.14,6.62-13.14,22.18
		c0,36.9,19.68,56.8,59.49,59.93c3.28,0.26,12.31-2.03,16-0.44c2.05,0.6,3.69,0.74,4.91,0.84c6.98,0.59,12.31-2.35,16.82-8.69
		c4.52-6.33,8.2-9.3,11.08-9c8.19,0.85,15.17,15.71,15.17,25.24c0,2.91,0.22,10.17,0.83,21.65
		C2110.86,1859.54,2111.5,1869.34,2111.5,1876.79z"/>
</g>
</svg>
