<?xml version="1.0" encoding="utf-8"?>
<!-- Generator: Adobe Illustrator 25.0.1, SVG Export Plug-In . SVG Version: 6.00 Build 0)  -->
<svg version="1.1" id="Layer_1" xmlns="http://www.w3.org/2000/svg" xmlns:xlink="http://www.w3.org/1999/xlink" x="0px" y="0px"
	 viewBox="0 0 2400 2400" style="enable-background:new 0 0 2400 2400;" xml:space="preserve">
<g>
	<path transform="translate(0.000000,2400.000000) scale(0.100000,-0.100000)" d="M3778,19130c-27-5-77-18-112-30
		c-278-92-579-442-858-996c-45-90-83-162-85-160c-2,1-14,68-27,147c-35,209-63,329-107,462c-115,353-283,497-579,497
		c-252,0-477-150-677-450c-203-303-318-753-235-915c38-75,63-90,158-94l85-3l40,41c54,58,50,81-17,81c-22,0-24,4-24,54
		c0,65,46,251,90,362c75,190,181,373,297,516c99,121,239,238,287,238c27,0,97-76,140-152c117-210,211-702,257-1353l12-170l-60-165
		c-357-980-582-1978-665-2950c-17-204-17-830,0-1010c38-394,116-709,235-945c81-163,162-255,265-303c52-25,68-27,182-27
		c117,0,129,2,182,28c192,94,281,375,333,1042c28,357,36,699,33,1313l-3,602l50,29c67,38,186,165,265,283c61,91,104,129,143,128
		c32-1,78-107,102-237c24-124,30-533,16-1053c-16-643,5-999,85-1398c112-562,282-837,551-892c73-16,234-8,298,14
		c72,25,152,83,208,152c91,112,190,341,262,612c16,57,31,99,35,95s24-48,44-97c116-289,267-407,506-394c288,16,379,175,534,934
		c43,207,106,498,110,501c2,2,6-129,9-291c9-395,45-840,78-969c14-54,74-80,179-80c75,0,157,24,174,52c4,6,12,69,17,139
		c68,926,461,1946,1016,2640c7,9,15,13,18,11c5-6-15-133-79-484c-72-397-101-595-138-935c-19-175-22-263-22-595c-1-361,1-400,22-520
		c26-152,63-295,93-365c26-60,83-115,136-129c57-16,173-13,227,5c70,24,112,73,171,198c86,181,295,715,430,1099l28,77l48-45
		c56-52,129-89,209-106s251-6,325,20c151,54,273,178,395,401l51,95l-6-335c-6-342-19-677-31-854l-7-99l-87-101
		c-48-56-186-203-306-329c-367-382-507-531-601-639c-388-447-597-807-684-1173c-32-133-35-385-6-480c40-130,92-206,181-265
		c73-50,161-78,273-86c651-46,1189,632,1457,1836c66,300,128,723,157,1082l12,158l80,97c727,890,1256,1627,1416,1975
		c43,94,81,207,81,245c0,31-49,53-120,53c-83,0-100-15-163-143c-110-221-392-622-826-1177c-130-167-431-540-434-540
		c-1,0-2,228-3,508c0,543-16,1009-39,1187c-8,61-13,153-12,205c2,89,0,98-29,150c-82,147-289,228-549,217c-191-8-334-64-462-181
		c-237-217-394-610-424-1061c-12-184,0-144-229-720c-225-564-379-915-390-893c-25,44-50,341-50,578c0,465,49,904,190,1710
		c75,427,77,528,10,590c-33,31-126,60-191,60c-60,0-152-25-213-58c-63-34-204-172-283-277c-197-263-424-658-572-1000
		c-60-136-141-341-141-355c0-5-5-12-11-15c-7-5-9,152-3,546c7,586,5,619-38,659c-49,45-197,49-260,6c-30-19-35-31-57-121
		c-100-426-119-498-289-1080c-50-170-134-470-186-665s-106-390-120-432c-30-90-79-203-93-211c-13-8-66,81-109,184
		c-122,290-202,739-207,1171c-2,129,4,206,25,368c15,113,37,291,48,395c11,105,27,249,35,320c37,332,61,727,48,784
		c-13,53-51,75-137,79c-89,5-156-20-179-65c-54-105-123-523-172-1038c-22-234-36-576-34-855c1-226-1-256-25-390
		c-138-745-279-1182-440-1355c-42-45-45-46-68-31c-36,23-93,103-137,192c-54,109-105,278-145,479c-79,397-102,759-85,1373
		c14,520,8,1005-15,1123c-30,161-75,259-143,319c-54,47-149,89-221,96c-34,4-62,10-62,14c0,3,34,69,77,146
		c353,643,630,1351,778,1994c168,727,147,1207-61,1439C4137,19107,3955,19159,3778,19130z M3920,18941c134-141,178-482,115-901
		c-109-736-391-1550-812-2345c-170-322-228-418-270-448c-27-19-39-23-44-14c-4,6-10,107-13,222c-14,427-59,1225-92,1635l-15,185
		l60,150c298,755,583,1237,859,1457c69,55,141,97,166,98C3879,18980,3900,18962,3920,18941z M2499,15905c34-810,42-1038,51-1510
		c9-482,1-1187-15-1440c-35-521-70-754-139-910c-14-31-30-54-36-50c-18,11-67,89-109,173c-94,185-163,449-203,782
		c-30,238-32,884-5,1170c66,689,187,1335,380,2020l52,185l7-80C2485,16201,2493,16048,2499,15905z M9431,15016c65-15,132-51,172-94
		l28-29l-55-6c-65-6-122-31-142-62c-8-12-37-134-65-271c-27-137-66-309-85-383c-83-313-207-584-333-723l-55-60l-23,46
		c-98,192-87,667,23,1017c90,285,250,511,403,565C9345,15033,9362,15033,9431,15016z M9400,11680c-118-830-328-1442-630-1840
		c-149-196-386-368-475-346c-33,8-81,60-111,117c-56,112-72,300-40,472c67,355,292,736,726,1230c111,127,550,580,556,575
		C9427,11886,9416,11792,9400,11680z M14408,18605c-190-48-374-207-625-538c-121-161-295-422-413-622c-46-77-91-153-100-169l-17-28
		l-7,68c-62,608-159,946-316,1105c-93,94-145,114-310,114c-119,0-128-1-190-31c-72-34-121-78-193-172c-105-136-194-312-232-459
		c-34-129-13-173,80-173c51,0,57,3,71,28c149,269,232,392,349,517l75,80l19-22c47-56,113-301,150-558c32-225,63-641,87-1181l6-150
		l-77-195c-92-231-236-659-299-890c-242-887-346-1745-307-2548c51-1053,215-1651,472-1724c30-9,72-19,94-24c38-8,40-10,46-54
		c21-146,134-259,301-303c178-46,401-21,568,64c139,70,324,240,444,409c270,377,503,952,618,1520l13,64l105,78l105,77l6-181
		c12-354,79-599,200-731c77-84,186-126,328-126c212,1,446,152,716,464c60,69,110,124,111,123s16-45,34-97c89-269,234-375,510-374
		c304,1,422,97,669,544c49,88,112,213,142,280l54,120l22-116c51-269,135-423,273-498c128-70,332-72,475-5c71,34,165,127,243,242
		c200,297,351,650,462,1081c69,266,120,576,120,726c0,36,3,89,7,118c5,48,9,55,42,72c20,10,80,48,135,84c54,37,95,59,92,50
		c-11-29-142-443-190-599c-173-569-304-1154-352-1580c-23-203-23-493,0-599c48-218,134-335,294-397c88-34,290-39,397-10
		c44,12,105,36,136,52c87,47,213,152,297,250c42,49,79,88,82,86c139-78,238-101,408-95c137,6,215,24,325,79
		c347,171,756,711,990,1304c143,362,281,887,342,1294c9,58,17,106,18,106c1,1,25,8,52,15c72,19,192,67,254,101c29,17,55,29,57,27
		c1-2-32-91-75-198c-241-598-464-1273-565-1710c-110-477-150-897-112-1159c41-277,111-389,276-438c82-25,227-23,316,5
		c268,82,622,484,863,977c106,215,233,542,221,565c-21,39-150,52-208,21c-12-6-70-108-137-237c-170-331-309-555-457-737
		c-131-160-354-362-369-335c-13,23-37,186-44,293c-7,110,6,342,31,535c37,298,149,789,275,1213c72,242,319,985,419,1257
		c87,238,93,264,76,305c-20,47-73,69-178,73c-116,5-155-9-320-115c-144-93-331-203-345-203c-4,0-8,71-9,158c-2,312-80,487-240,537
		c-42,13-80,16-162,14c-98-4-114-7-174-37c-88-43-156-119-213-237c-68-143-86-254-61-374c27-130,98-219,221-277c67-32,188-64,241-64
		c20,0,24-4,20-22c-3-13-15-72-26-133c-117-609-356-1229-655-1695c-185-290-448-573-616-665l-53-28l-42,46c-23,26-59,80-80,120
		l-38,74l91,179c247,487,444,1074,540,1611c21,121,26,180,27,328c1,191-10,253-56,317c-70,100-292,123-446,47
		c-264-130-583-744-686-1319c-35-199-46-322-46-524c0-245,31-448,94-621l25-70l-34-51c-92-140-278-345-372-412l-33-23l-20,33
		c-25,41-55,133-72,218c-18,93-15,442,6,625c34,311,113,731,217,1155c91,376,262,991,359,1294c48,151,50,160,34,183
		c-24,37-73,53-166,53c-88,0-166-26-198-65c-28-35-248-223-345-296c-106-80-108-80-120,0c-10,63-52,196-82,255
		c-38,74-104,139-176,171c-82,37-236,46-337,20c-184-48-319-178-387-370c-24-71-27-95-28-205c0-110,3-131,24-177
		c41-91,138-163,267-197c81-23,252-31,348-17c44,6,80,10,82,8c2-1-1-48-7-102c-57-577-307-1245-631-1682c-37-51-73-93-79-93
		c-16,0-67,121-94,223c-59,224-84,548-66,875c13,242,32,441,61,658c14,103,17,151,10,165c-14,25-60,48-114,55c-41,6-44,9-56,48
		c-37,129-144,224-305,272c-81,24-275,24-363,0c-236-64-451-249-657-564c-203-311-365-776-406-1162l-12-115l-71-104
		c-95-139-258-342-370-459c-98-103-252-241-292-262c-21-12-26-11-39,6c-25,34-75,200-96,321c-26,152-36,466-20,657l12,139l52,45
		c100,88,339,328,416,417c319,369,491,735,491,1039c0,154-37,233-133,283c-46,24-66,28-169,31c-99,3-129,1-187-17
		c-85-26-204-103-266-174c-232-262-488-886-589-1435c-13-74-26-135-28-137c-25-25-162-134-165-131c-2,2,3,66,12,142
		c22,184,31,643,16,799c-35,366-107,580-241,716c-101,102-203,145-370,156c-52,3-126,1-165-5c-38-6-70-10-71-9c-3,3,39,106,268,657
		c285,684,394,980,512,1390c129,449,196,817,196,1084c0,363-104,503-380,512C14501,18618,14446,18615,14408,18605z M14529,18349
		c67-225,4-689-184-1344c-124-432-225-702-604-1625c-298-722-305-739-356-837l-42-81l-6,741c-3,408-11,868-18,1021
		c-10,225-9,286,1,314c7,20,50,116,96,214c299,638,728,1302,1013,1571c39,37,75,67,80,67C14513,18390,14522,18372,14529,18349z
		 M21994,15178c16-80,22-302,10-392l-7-47l-33,32c-95,92-111,304-36,472c25,57,26,58,38,35C21973,15265,21985,15220,21994,15178z
		 M12851,14563c-6-345-16-770-21-943c-6-173-17-576-25-895c-20-762-44-1185-66-1185c-5,0-9,3-9,8c0,4-11,57-25,117
		c-97,431-153,1222-126,1775c22,429,70,815,155,1231c50,244,118,531,124,525C12860,15193,12857,14909,12851,14563z M18862,15049
		c63-126,120-399,87-420c-8-5-49-20-93-34c-71-23-81-24-101-11c-82,54-87,303-9,459c31,61,53,89,68,84
		C18820,15125,18842,15090,18862,15049z M15979,14780c2-167-90-413-239-640c-82-125-247-336-256-327c-6,6,50,200,96,332
		c103,297,225,540,338,674C15971,14881,15978,14876,15979,14780z M14180,14731c158-201,210-734,134-1396c-15-134-65-451-84-540
		l-11-50l-147-96c-318-209-558-392-735-559l-98-93l6,49c21,191,71,1421,81,2024c3,190,8,351,10,359c4,11,8,10,19-6
		c24-34,101-58,185-58c110,1,157,18,205,73c93,108,225,233,299,281c43,28,84,51,91,51C14143,14770,14162,14752,14180,14731z
		 M17606,14599c54-33,124-117,160-192l34-73l-94-280c-192-568-405-1044-648-1448c-69-113-176-274-189-281c-4-3-17,26-29,65
		c-55,184-76,402-60,617c18,234,38,326,114,504c36,86,66,162,66,169c0,8-7,21-16,31c-14,16-12,27,29,131c139,355,365,679,542,776
		C17538,14631,17562,14626,17606,14599z M20797,14280c-8-218-63-490-162-800c-47-148-182-486-245-615l-48-100l-1,140
		c-3,408,89,848,256,1235c44,103,126,257,166,314l20,29l10-24C20798,14446,20800,14365,20797,14280z M14094,12240
		c-162-528-392-975-624-1211c-75-76-168-149-192-149c-4,0-18,19-30,43c-35,67-37,213-4,342c81,314,342,648,771,984
		c50,38,93,70,97,71C14115,12320,14107,12284,14094,12240z M5245,16557c-46-29-121-125-171-220l-36-69l-37,36c-47,46-97,66-164,66
		c-79,0-121-30-125-91c-2-37,5-61,43-138c98-195,269-316,398-280c20,5,37,16,37,24c0,7,9,17,20,20c31,10,61,56,158,245
		c130,252,148,330,93,392c-27,30-34,33-102,36C5295,16581,5280,16578,5245,16557z"/>
</g>
</svg>
