<?xml version="1.0" standalone="no"?>
<!DOCTYPE svg PUBLIC "-//W3C//DTD SVG 20010904//EN"
 "http://www.w3.org/TR/2001/REC-SVG-20010904/DTD/svg10.dtd">
<svg version="1.0" xmlns="http://www.w3.org/2000/svg"
 width="2500.000000pt" height="2500.000000pt" viewBox="0 0 2500.000000 2500.000000"
 preserveAspectRatio="xMidYMid meet">

<g transform="translate(0.000000,2500.000000) scale(0.100000,-0.100000)"
fill="#000000" stroke="none">
<path d="M3623 20011 c-105 -36 -159 -98 -253 -286 -164 -332 -331 -885 -454
-1505 -24 -124 -50 -261 -57 -305 -18 -115 -25 -75 -38 241 -31 719 -68 1217
-107 1437 -15 79 -19 89 -45 102 -59 31 -180 11 -193 -32 -20 -74 -41 -318
-71 -828 -8 -143 -20 -343 -25 -445 -31 -533 -29 -1678 5 -2210 8 -135 19
-324 25 -420 14 -244 57 -707 76 -815 21 -125 34 -163 66 -195 97 -97 432 -89
502 12 11 16 16 46 16 103 0 144 -29 519 -73 930 -41 391 -42 407 -40 720 4
633 75 1337 194 1905 103 494 267 981 414 1228 53 89 122 175 135 167 11 -7
53 -136 79 -240 68 -275 138 -825 202 -1585 19 -230 69 -601 104 -769 76 -367
142 -506 268 -562 43 -19 69 -23 152 -24 118 0 182 23 214 75 12 20 37 123 66
274 93 479 211 868 428 1401 158 391 410 881 588 1146 68 101 177 239 189 239
42 0 20 -386 -55 -980 -106 -841 -185 -1580 -211 -1990 -18 -274 -15 -803 6
-970 18 -150 76 -425 115 -545 46 -141 113 -277 169 -340 116 -134 332 -173
503 -93 140 66 338 334 593 801 297 545 538 1187 686 1829 31 135 14 126 154
82 216 -68 225 -118 110 -624 -108 -478 -204 -963 -256 -1295 -25 -159 -29
-207 -29 -415 0 -227 1 -239 28 -335 33 -120 101 -264 153 -323 103 -120 270
-154 416 -84 181 86 320 305 456 722 40 122 203 755 237 918 6 30 4 33 -31 48
-43 18 -120 13 -142 -10 -8 -7 -43 -114 -79 -237 -105 -363 -192 -643 -234
-757 -52 -139 -137 -317 -193 -400 -54 -81 -122 -150 -135 -137 -19 20 -59
174 -71 269 -25 199 1 432 114 1027 197 1034 232 1361 164 1510 -56 122 -150
180 -420 259 -95 28 -176 54 -180 58 -4 4 -3 25 2 47 20 92 42 301 47 465 14
423 -93 704 -295 780 -33 13 -91 24 -138 27 -239 16 -427 -111 -548 -368 -51
-106 -70 -188 -70 -299 0 -207 93 -399 250 -519 79 -60 248 -145 379 -191 49
-17 91 -32 92 -34 5 -5 -44 -235 -83 -391 -165 -656 -427 -1280 -765 -1825
-139 -225 -324 -449 -348 -425 -21 21 -63 208 -88 395 -26 186 -27 215 -27
625 -1 502 4 584 129 1930 80 865 103 1269 86 1532 -24 379 -129 518 -391 518
-126 0 -183 -20 -260 -92 -118 -109 -231 -294 -475 -782 -255 -509 -461 -993
-650 -1526 -43 -121 -81 -223 -84 -227 -4 -4 -19 97 -35 225 -40 336 -103 805
-131 986 -126 805 -285 1246 -491 1367 -93 55 -241 70 -341 35z m3867 -1148
c95 -107 150 -330 150 -601 0 -119 -23 -388 -34 -399 -6 -6 -84 35 -149 79
-76 52 -140 134 -180 233 -31 77 -32 85 -32 225 1 140 2 148 34 232 43 114
142 268 172 268 4 0 22 -17 39 -37z"/>
<path d="M14252 19880 c-31 -13 -49 -61 -70 -183 -38 -226 -7 -2532 49 -3577
16 -310 62 -618 103 -698 19 -37 65 -78 101 -92 124 -48 348 -19 385 49 13 25
13 169 0 381 -6 91 -15 242 -20 335 -6 94 -19 285 -30 425 -44 590 -43 579
-26 800 67 843 247 1674 455 2105 58 119 112 205 131 205 14 0 48 -85 80 -200
38 -138 107 -496 165 -850 111 -684 149 -883 211 -1094 63 -213 113 -281 229
-307 125 -28 290 8 314 69 6 15 24 110 41 212 55 339 174 744 320 1095 55 130
232 479 320 630 129 220 265 402 340 455 l30 22 20 -44 c74 -168 50 -624 -110
-2058 -102 -915 -113 -1310 -44 -1650 53 -263 155 -387 352 -429 74 -16 215
-13 291 4 330 78 657 554 919 1340 95 284 179 639 197 833 4 39 10 72 14 72 3
0 58 9 121 20 63 11 116 20 118 20 10 0 -4 -121 -37 -334 -121 -763 -112
-1514 21 -1918 57 -176 125 -238 260 -238 125 0 163 26 243 165 173 299 501
1090 645 1553 17 56 35 102 39 102 4 0 38 -60 76 -132 37 -73 114 -218 170
-323 135 -250 195 -371 195 -390 0 -9 -24 -46 -54 -83 -211 -265 -406 -649
-462 -911 -45 -215 15 -451 150 -586 119 -118 271 -171 469 -163 241 11 393
109 506 327 91 178 125 323 125 536 0 125 -5 172 -28 280 -32 154 -113 399
-190 579 -31 70 -56 132 -56 137 0 12 68 73 157 140 101 76 229 142 359 185
157 51 184 74 129 110 -88 57 -451 -45 -680 -191 -30 -19 -58 -35 -64 -35 -20
0 -399 739 -489 955 -74 177 -97 268 -97 395 0 95 3 111 28 162 31 64 75 101
118 101 57 0 160 -62 249 -152 176 -177 302 -412 355 -663 9 -43 23 -85 31
-93 20 -19 58 -19 77 0 43 43 56 268 22 385 -84 292 -269 538 -474 632 -182
83 -442 78 -627 -13 -71 -35 -159 -120 -193 -187 -76 -150 -67 -341 30 -602
23 -63 42 -122 41 -131 -2 -47 -271 -764 -410 -1094 -131 -311 -319 -712 -329
-701 -9 9 -33 305 -38 486 -7 222 6 766 30 1246 20 403 9 484 -73 539 -71 47
-170 51 -387 15 -33 -5 -63 -10 -66 -10 -3 0 -9 73 -12 163 -14 344 -94 540
-255 619 -64 32 -71 33 -187 33 -102 0 -129 -4 -178 -24 -208 -83 -355 -415
-276 -626 54 -145 266 -251 572 -286 l105 -12 -4 -31 c-45 -351 -91 -538 -213
-876 -112 -306 -248 -578 -394 -785 -85 -121 -271 -309 -345 -348 l-52 -28
-26 54 c-55 122 -80 377 -71 741 7 262 19 457 61 941 66 754 79 1001 80 1460
0 277 -4 426 -13 485 -39 259 -105 385 -236 450 -44 22 -63 25 -165 25 -123 0
-155 -10 -237 -72 -79 -60 -211 -251 -378 -548 -252 -446 -387 -737 -570
-1223 -15 -40 -29 -71 -31 -69 -3 2 -32 117 -64 255 -225 942 -374 1379 -522
1538 -71 75 -133 105 -234 112 -168 11 -258 -56 -362 -270 -119 -244 -241
-647 -347 -1152 -19 -94 -37 -171 -39 -173 -2 -3 -7 22 -10 54 -120 1103 -171
1536 -186 1579 -6 17 -22 36 -36 43 -29 13 -119 14 -152 1z m4392 -1390 c90
-100 144 -278 160 -533 7 -105 5 -107 -92 -83 -143 35 -235 100 -261 185 -25
85 -8 221 43 334 29 65 82 137 100 137 7 0 30 -18 50 -40z m2394 -2631 c153
-427 159 -754 21 -1021 -42 -80 -105 -148 -137 -148 -28 0 -108 57 -146 104
-134 165 -147 395 -37 676 69 179 235 494 256 487 5 -2 25 -46 43 -98z"/>
<path d="M11350 19280 c-151 -33 -273 -91 -411 -195 -376 -282 -541 -734 -407
-1114 40 -113 83 -197 157 -307 95 -142 182 -233 444 -472 26 -23 47 -44 47
-46 0 -2 -34 -6 -75 -10 -157 -14 -314 -75 -442 -173 -185 -140 -351 -432
-415 -729 -19 -92 -23 -137 -23 -294 0 -167 3 -195 27 -292 126 -497 482 -886
919 -1003 82 -22 115 -25 254 -25 130 0 174 4 234 20 148 41 237 109 339 258
248 364 461 949 479 1320 3 61 9 112 13 112 4 0 40 -14 81 -31 195 -81 432
-149 584 -170 131 -17 301 -9 345 17 43 25 47 58 10 85 -14 10 -70 28 -124 40
-191 40 -451 146 -670 273 -61 35 -135 76 -163 90 -222 111 -456 149 -655 108
-164 -34 -324 -127 -368 -212 -26 -51 -25 -75 2 -94 37 -26 78 -19 148 24 76
47 148 76 239 95 61 13 71 12 126 -6 64 -22 226 -105 237 -122 19 -30 -25
-339 -73 -512 -77 -274 -245 -648 -389 -868 -142 -216 -232 -284 -360 -274
-155 11 -368 158 -513 355 -203 275 -297 546 -297 861 0 419 194 835 445 953
83 39 162 45 274 24 140 -27 241 -18 304 26 31 23 34 51 9 90 -10 15 -103 118
-208 230 -294 314 -360 399 -458 595 -71 142 -98 245 -98 378 0 253 99 491
282 676 231 235 468 269 736 108 129 -78 237 -210 290 -353 49 -132 50 -134
94 -147 31 -9 49 -10 80 0 47 14 48 18 21 122 -77 303 -321 527 -643 593 -108
22 -317 20 -428 -4z"/>
<path d="M22045 15776 c-73 -32 -137 -153 -116 -219 15 -45 66 -93 120 -112
51 -18 158 -20 212 -4 62 19 105 81 76 111 -8 7 -16 41 -19 76 -11 116 -61
162 -178 162 -36 -1 -79 -7 -95 -14z"/>
<path d="M9522 14996 c-90 -30 -121 -62 -122 -126 0 -94 63 -150 172 -150 58
0 77 5 135 35 79 42 113 75 113 113 0 41 -34 89 -80 112 -54 27 -160 35 -218
16z"/>
<path d="M22220 13964 c-410 -2 -2115 -8 -3790 -14 -7943 -28 -15342 -106
-17115 -181 -354 -15 -426 -27 -433 -76 -5 -33 45 -53 152 -64 489 -47 6561
-46 13356 1 2795 20 4795 38 6460 61 443 6 1176 14 1630 18 911 9 891 7 965
72 56 49 44 94 -33 133 -102 52 -143 53 -1192 50z"/>
<path d="M22150 8414 c-410 -2 -2115 -8 -3790 -14 -7943 -28 -15342 -106
-17115 -181 -354 -15 -426 -27 -433 -76 -5 -33 45 -53 152 -64 489 -47 6561
-46 13356 1 2795 20 4795 38 6460 61 443 6 1176 14 1630 18 911 9 891 7 965
72 56 49 44 94 -33 133 -102 52 -143 53 -1192 50z"/>
<path d="M17485 7726 c-266 -61 -496 -253 -551 -460 -18 -68 -18 -73 11 -101
20 -21 34 -25 84 -25 86 0 107 13 146 90 67 132 178 239 325 309 102 49 168
50 261 4 223 -110 277 -330 180 -728 -43 -175 -86 -289 -256 -680 -84 -192
-207 -478 -273 -635 -120 -284 -306 -715 -545 -1261 -69 -157 -133 -312 -142
-343 -15 -52 -15 -59 -1 -81 25 -38 74 -58 156 -63 71 -4 85 -1 255 56 334
112 781 220 1070 257 141 18 348 21 388 6 73 -28 199 0 205 45 7 51 -104 92
-276 103 -316 21 -716 -31 -1192 -156 -96 -25 -185 -48 -198 -50 -21 -5 -19 1
27 98 54 116 178 370 391 804 78 160 222 459 320 665 98 206 215 452 260 545
215 447 286 670 297 925 6 160 -8 236 -64 342 -73 140 -254 268 -448 319 -103
27 -340 35 -430 15z"/>
<path d="M13805 7659 c-265 -35 -536 -174 -797 -407 -194 -173 -305 -336 -323
-477 -6 -42 -4 -54 15 -78 21 -26 27 -28 83 -25 l62 3 40 80 c51 102 73 133
159 224 289 300 754 550 935 501 179 -48 218 -307 110 -735 -37 -147 -129
-427 -197 -595 -80 -202 -153 -360 -360 -790 -182 -380 -346 -729 -653 -1394
-71 -153 -129 -288 -129 -301 0 -43 66 -75 154 -75 72 0 106 12 185 65 265
175 1052 444 1497 511 94 14 122 15 206 4 102 -14 150 -8 193 24 16 12 18 18
8 39 -10 21 -28 31 -85 49 -105 33 -383 32 -572 -1 -309 -54 -714 -172 -1033
-300 -29 -11 -53 -19 -53 -17 0 2 145 293 322 647 503 1009 618 1251 734 1547
118 299 207 596 239 792 20 124 20 298 -1 375 -41 158 -162 267 -351 316 -92
23 -284 32 -388 18z"/>
<path d="M19725 7606 c-49 -22 -67 -50 -194 -294 -120 -231 -217 -404 -430
-767 -62 -104 -166 -298 -231 -430 -118 -239 -250 -552 -250 -593 0 -32 32
-59 91 -76 69 -21 70 -21 459 14 325 29 683 58 687 56 0 -1 15 -143 32 -316
67 -667 150 -1190 200 -1251 26 -33 111 -39 140 -10 19 19 21 32 21 139 0 64
-5 191 -10 282 -5 91 -19 363 -30 605 -11 242 -22 470 -25 506 l-6 67 173 7
c95 4 250 5 343 3 157 -3 173 -1 210 18 48 25 53 57 15 85 -52 39 -150 51
-456 56 l-292 5 -7 87 c-65 839 -150 1734 -167 1768 -6 12 -28 29 -50 37 -48
20 -181 21 -223 2z m23 -919 c12 -162 38 -446 57 -633 19 -186 35 -342 35
-346 0 -7 -37 -11 -340 -33 -223 -17 -478 -41 -518 -50 -22 -5 -22 -5 9 57 59
117 262 483 454 818 105 184 209 368 230 408 22 39 42 72 45 72 3 0 16 -132
28 -293z"/>
<path d="M9613 7599 c-99 -30 -197 -206 -324 -584 l-47 -140 -154 -7 c-84 -3
-178 -11 -208 -17 -188 -38 -320 -109 -320 -171 0 -63 93 -79 217 -35 38 13
99 29 134 34 62 10 279 15 279 7 0 -3 -14 -62 -31 -132 -29 -120 -35 -134
-101 -231 -175 -262 -390 -525 -599 -733 -124 -124 -379 -352 -424 -379 -23
-14 -27 -11 -127 85 -57 54 -212 190 -345 302 -274 229 -347 299 -397 374
-109 164 -80 408 72 609 68 89 154 166 204 181 36 11 48 9 106 -11 83 -29 161
-78 226 -144 71 -71 96 -106 190 -264 45 -75 93 -145 107 -155 37 -28 125 -34
169 -11 33 17 35 21 32 63 -2 25 -18 91 -37 147 -85 254 -193 392 -385 492
-118 62 -203 82 -366 88 -276 10 -447 -53 -621 -229 -93 -93 -136 -153 -183
-253 -104 -222 -87 -440 49 -620 l39 -51 -190 -345 c-228 -413 -316 -562 -459
-774 -235 -347 -462 -607 -647 -740 l-53 -37 -40 28 c-97 67 -218 268 -259
430 -50 193 -44 478 16 839 8 50 17 97 19 105 3 9 34 23 72 34 356 101 689
301 893 538 235 272 329 562 256 793 -76 239 -276 368 -546 351 -52 -3 -119
-12 -148 -20 -243 -66 -473 -279 -685 -635 -101 -169 -222 -414 -291 -588 -55
-140 -126 -366 -126 -403 0 -22 15 -17 -235 -76 -252 -58 -438 -119 -580 -189
-202 -100 -338 -202 -406 -308 -69 -106 -61 -147 29 -147 53 0 77 12 97 49 40
79 175 179 352 263 170 80 311 122 682 204 22 5 23 3 17 -33 -3 -21 -8 -119
-12 -218 -10 -275 24 -462 119 -650 129 -258 359 -463 582 -520 89 -22 257
-20 339 5 253 79 653 537 996 1145 63 111 271 523 351 693 l24 53 200 -161
c244 -196 424 -353 528 -458 l78 -78 -148 -135 c-345 -314 -485 -547 -486
-804 -1 -210 100 -379 282 -474 113 -58 189 -75 351 -74 243 0 405 67 563 232
264 276 302 644 103 992 -54 93 -182 272 -223 311 -13 12 -23 27 -23 33 0 7
71 72 157 146 279 239 491 463 688 729 43 58 75 94 71 80 -14 -50 -19 -702 -7
-880 35 -511 136 -946 293 -1253 90 -176 192 -247 358 -247 117 0 215 45 268
122 126 184 198 449 318 1172 l56 339 -21 20 c-40 40 -197 32 -220 -11 -5 -9
-36 -138 -71 -287 -129 -561 -225 -900 -242 -859 -10 25 -74 427 -93 584 -48
398 -71 1159 -46 1510 11 154 47 450 56 459 3 2 233 -2 512 -9 l508 -13 48 21
c46 21 57 40 39 69 -25 39 -141 54 -742 94 -179 12 -327 23 -329 25 -3 3 12
82 33 177 81 365 100 476 90 503 -18 51 -56 69 -152 71 -48 1 -102 -2 -119 -8z
m-3652 -757 c58 -37 95 -82 133 -162 29 -60 31 -73 31 -170 -1 -88 -5 -117
-27 -178 -78 -218 -267 -438 -518 -607 -81 -54 -268 -150 -338 -174 l-33 -10
6 32 c13 63 116 360 176 510 127 315 263 556 385 683 52 53 117 104 135 104 3
0 25 -13 50 -28z m2013 -2174 c171 -262 201 -507 92 -734 -81 -167 -208 -284
-328 -300 -62 -8 -145 26 -211 86 -90 82 -137 193 -137 325 0 96 21 172 80
290 61 121 153 238 295 373 l106 102 23 -28 c13 -15 49 -66 80 -114z"/>
<path d="M15831 7350 c-24 -11 -58 -20 -75 -20 -54 0 -180 -36 -253 -74 -288
-144 -546 -529 -730 -1084 -77 -234 -97 -361 -90 -577 12 -359 117 -623 333
-841 190 -190 418 -284 689 -284 275 0 482 94 690 311 101 105 177 220 254
380 144 300 206 547 218 859 15 412 -90 712 -341 977 -127 134 -378 327 -467
358 -61 22 -174 19 -228 -5z m154 -260 c364 -325 477 -533 505 -928 10 -146
-2 -334 -31 -477 -61 -302 -227 -633 -408 -814 -127 -127 -274 -210 -345 -195
-95 20 -228 122 -322 247 -195 260 -269 698 -184 1091 71 325 226 725 360 930
89 136 221 256 283 256 11 0 74 -50 142 -110z"/>
<path d="M11399 4462 c-39 -25 -115 -118 -159 -193 l-39 -65 -75 73 c-104 100
-164 133 -241 133 -33 0 -71 -6 -85 -13 -79 -39 -81 -218 -2 -372 32 -65 124
-154 237 -231 133 -91 164 -104 238 -104 100 0 124 27 235 270 109 237 122
274 122 351 0 118 -44 169 -144 169 -41 0 -69 -6 -87 -18z"/>
</g>
</svg>
