<?xml version="1.0" encoding="utf-8"?>
<!-- Generator: Adobe Illustrator 25.2.0, SVG Export Plug-In . SVG Version: 6.00 Build 0)  -->
<svg version="1.1" id="Layer_1" xmlns="http://www.w3.org/2000/svg" xmlns:xlink="http://www.w3.org/1999/xlink" x="0px" y="0px"
	 viewBox="0 0 2200 2200" style="enable-background:new 0 0 2200 2200;" xml:space="preserve">
<style type="text/css">
	.st0{fill:#231F20;}
</style>
<g>
	<path class="st0" d="M121.25,269.68c-5.07-3.93-10.99-7.13-19.21-10.36c-5.25-2.06-12.28-3.93-16.08-4.31
		c-2.83-0.28-3.27-0.42-3.27-1.03c0-0.49,1.15-1.43,2.19-1.8c0.71-0.26,4.24-0.69,6.82-0.82c0.81-0.04,2.42-0.17,3.55-0.28
		c1.15-0.1,3.07-0.23,4.26-0.31c13.54-0.78,17.48-1.9,24.74-7.02c6.7-4.73,11.37-11.82,15.02-22.92c3.23-9.84,7.35-26.98,8.52-35.41
		c0.07-0.66,0.34-1.38,0.58-1.61c0.25-0.26,0.53-0.44,0.65-0.44c0.09,0,0.25,2.68,0.32,5.93c0.23,11.21,1.75,18.36,6.7,31.76
		c4.21,11.4,9.88,21.3,15.16,26.42c7.69,7.49,16.18,11.73,28.17,13.93c2.46,0.45,12.92,1.79,15.2,1.94c0.83,0.06,0.23,0.5-1.08,0.81
		c-2.35,0.54-4.84,1.35-9.86,3.19c-15.92,5.81-22.78,8.99-28.72,13.56c-4.93,3.8-9.35,10.32-12.02,17.8
		c-1.6,4.48-2.45,8.44-3.94,18.23c-1.03,6.76-1.82,15.39-2,21.51c-0.09,3.07-0.23,4.87-0.39,4.99c-0.48,0.35-3.66,0.12-4.12-0.3
		c-0.27-0.25-0.58-1.34-0.99-3.49c-1.15-6.2-2.76-12.35-6.36-24.4C136.36,286.19,132.1,278.12,121.25,269.68z M468.84,410.43
		c-1.08-0.78-2.81-1.02-12.09-1.61c-4.74-0.31-9.21-0.68-9.9-0.79c-0.69-0.11-2.56-0.37-4.15-0.57c-3.49-0.45-8.83-1.37-10.71-1.79
		c-1.81-0.41-3.8-0.83-7.03-1.52c-1.45-0.31-3.57-0.78-4.72-1.04c-1.13-0.27-2.65-0.63-3.34-0.8c-0.69-0.17-2.48-0.59-3.92-0.96
		c-1.44-0.37-3.07-0.79-3.57-0.89c-0.51-0.11-3-0.78-5.53-1.48c-2.52-0.7-5.18-1.41-5.87-1.61c-0.69-0.2-1.68-0.49-2.19-0.65
		c-0.51-0.16-2.33-0.76-4.03-1.3c-10.95-3.51-17.39-6.93-24.88-13.09c-4.88-4.03-10.48-11.23-15.73-20.23
		c-0.71-1.25-1.31-2.31-1.31-2.41c0-0.08-0.3-0.66-0.65-1.27c-1.03-1.81-5.8-12.43-5.8-12.96c0-0.05-0.35-0.99-0.78-2.09
		c-1.36-3.41-3.08-8.07-3.55-9.59c-1.97-6.41-3.06-10.36-4.31-16.22c-0.21-0.95-0.58-2.65-0.83-3.79c-0.42-1.88-1.07-5.63-1.59-8.91
		c-0.31-1.94-0.67-4.28-0.92-5.81c-0.14-0.79-0.35-2.3-0.46-3.3c-0.25-2.11-0.59-4.57-0.94-6.86c-0.47-3.05-0.64-4.26-0.99-7.51
		c-0.47-4.34-0.83-7.01-1.08-8.36c-0.11-0.61-0.21-1.48-0.21-1.9c0-0.44-0.09-1.31-0.23-1.92c-0.21-1.14-0.39-2.67-1.06-9.17
		c-0.35-3.34-0.59-5.14-1.02-8.82c-0.1-0.86-0.36-3.54-0.55-5.92c-0.19-2.38-0.41-4.76-0.48-5.26c-0.07-0.5-0.23-2.24-0.37-3.82
		c-0.14-1.6-0.33-4.04-0.44-5.39c-0.18-2.4-0.46-6.38-0.9-14.75c-0.22-4.14-0.47-5.3-1.43-6.87c-0.63-1.02-1.63-1.5-3.73-1.79
		c-1.63-0.22-1.77-0.21-2.3,0.38c-0.46,0.51-0.59,1.02-0.71,2.7c-0.08,1.12-0.33,3.53-0.53,5.33c-0.2,1.79-0.43,4.16-0.53,5.22
		c-0.55,5.85-0.71,6.99-0.81,7.69c-0.07,0.42-0.28,2.24-0.46,4.04c-0.18,1.8-0.45,4.07-0.58,5.07c-0.12,0.98-0.33,2.63-0.46,3.64
		c-1.54,12.15-1.75,14.6-2.28,18.17c-0.37,2.54-0.69,5.33-0.94,7.39c-0.13,1.05-0.33,2.7-0.46,3.62c-0.44,3.18-0.69,5.06-0.92,6.72
		c-0.13,0.92-0.33,2.57-0.46,3.62c-0.13,1.05-0.35,2.74-0.48,3.75c-0.42,3.19-0.67,5.24-0.88,7.03c-0.23,1.86-1.57,11.76-1.86,13.74
		c-0.56,3.75-1.28,7.68-2.1,11.21c-0.52,2.22-1.04,4.5-1.15,5.06c-0.09,0.56-0.5,2.24-0.9,3.7c-0.4,1.47-0.81,3.03-0.92,3.48
		c-0.24,0.98-1.31,4.52-1.73,5.52c-0.16,0.4-0.37,1.04-0.46,1.39c-0.57,2.11-3.92,10.02-5.64,13.4
		c-5.92,11.51-17.92,22.85-30.75,28.91c-1.5,0.7-5.26,2.27-7.6,3.14c-2.7,1-9.86,2.93-13.94,3.75c-3.98,0.81-3.74,0.77-8.87,1.49
		c-5.72,0.8-6.08,0.81-10.71,1.07c-2.09,0.12-4.27,0.25-4.84,0.3c-4.12,0.33-11.22,0.38-17.62,0.28
		c-2.58-0.03-10.95-0.51-17.05-1.02c-2.52-0.21-6.58-0.55-8.98-0.75c-2.38-0.2-5.64-0.55-7.16-0.77c-1.12-0.16-1.69-0.24-2.81-0.41
		c-0.04,0.39-0.05,0.58-0.09,0.97c-0.11,1.23,0.09,1.6,1.22,2.38c1.84,1.27,10.71,5.04,17.6,7.41c2.03,0.7,4.15,1.47,4.72,1.67
		c0.58,0.23,2.71,0.96,4.72,1.64c3.38,1.14,4.33,1.49,7.26,2.5c0.58,0.2,2.65,0.91,4.61,1.59c1.96,0.68,4.45,1.58,5.53,2
		c4.92,1.95,5.92,2.3,6.45,2.57c0.32,0.14,0.99,0.43,1.5,0.65c11.19,4.74,21.12,10.03,33.63,18.33c8.34,5.54,13.47,9.67,21.31,17.13
		c4.65,4.44,7.28,7.27,10.96,11.76c3.96,4.83,5.5,7.03,7.62,10.88c1.87,3.4,1.93,3.53,4.12,8.77c2.57,6.14,2.93,7.13,5.57,14.75
		c2.33,6.68,4.61,14.62,6.03,21.08c1.18,5.25,1.33,5.9,2.19,12.35c0.28,2.13,0.94,6.27,1.45,9.16c0.51,2.88,1.1,6.75,1.31,8.63
		c0.21,1.85,0.62,4.57,0.92,6.01c1.1,5.23,1.4,7.48,2.1,15.09c0.09,1.17,0.25,1.83,0.48,1.96c0.69,0.4,1,2.22,1.57,9.22
		c0.68,8.41,0.74,8.78,1.27,9.03c0.51,0.24,1.04,3.36,1.38,8.25c0.53,7.68,0.76,9.6,1.2,10c0.53,0.5,0.85,2.21,1.13,6.19
		c0.55,7.76,0.9,11.88,1.11,13.21c0.11,0.78,0.32,3.22,0.46,5.41c0.27,4.24,0.55,5.4,1.54,6.25c1.2,1.03,1.7,0.41,2.44-3.01
		c0.9-4.24,1.47-8.16,2.4-16.61c0.21-1.95,0.47-4.36,0.58-5.32c0.23-2.15,0.53-5.04,1.13-11.93c0.51-5.69,0.76-8.16,1.13-10.79
		c0.14-0.91,0.44-3.29,0.69-5.32c0.44-3.55,0.76-5.78,1.04-7.08c0.07-0.35,0.34-2.01,0.6-3.66c0.26-1.66,0.66-3.95,0.85-5.05
		c0.19-1.1,0.44-2.53,0.55-3.16c0.12-0.63,0.3-1.64,0.44-2.27c0.14-0.63,0.45-2.33,0.69-3.79c0.24-1.46,0.53-3.16,0.65-3.8
		c0.14-0.63,0.5-2.69,0.83-4.55c0.33-1.86,0.82-4.39,1.06-5.57c0.24-1.17,0.48-2.55,0.58-3.04c0.09-0.48,0.25-1.29,0.35-1.77
		c0.09-0.48,0.35-1.8,0.55-2.91c0.21-1.12,0.48-2.49,0.6-3.04c0.54-2.54,1.65-7.73,1.84-8.79c0.12-0.68,0.34-1.83,0.48-2.54
		c0.14-0.74,0.34-1.62,0.46-1.97c0.09-0.35,0.34-1.38,0.53-2.28c0.19-0.9,0.81-3.83,1.38-6.47c0.58-2.67,1.18-5.41,1.31-6.1
		c0.23-1.2,0.51-2.36,1.63-6.46c0.52-1.89,1.2-3.97,1.82-5.47c0.25-0.6,0.44-1.18,0.44-1.31c0-0.8,4.1-9.67,5.94-12.82
		c1.54-2.66,4.03-6.28,5.73-8.33c6.06-7.32,18.54-20.08,23.36-23.85c0.55-0.43,1.54-1.2,2.16-1.69c1.49-1.19,7.81-5.47,10.14-6.89
		c1.92-1.17,5.34-2.89,7.35-3.69c4.01-1.61,12.4-4.28,16.38-5.22c6.74-1.59,9.22-2.16,12.21-2.7c6.16-1.11,9.42-1.68,10.83-1.89
		c0.76-0.12,1.96-0.31,2.65-0.41c2.15-0.34,6.7-1.02,8.52-1.24c0.95-0.12,2.9-0.42,4.35-0.65c1.43-0.24,4.29-0.66,6.33-0.95
		c5.54-0.79,6.89-1,7.37-1.28c0.35-0.17,0.41-0.46,0.32-1.64C471.1,413.19,470.09,411.32,468.84,410.43z M256.59,528.38
		c-7.62-1.46-13.89-3.14-17.39-4.64c-0.51-0.21-1.38-0.59-1.96-0.84c-9.18-3.89-17.67-10.26-23.38-17.45
		c-5.49-6.91-10.77-17.04-14.79-28.34c-4.32-12.16-6.4-19.8-7.42-27.62c-0.67-5.19-1-10.58-0.87-14.34
		c0.08-2.46,0.05-3.88-0.11-3.91c-0.12-0.02-0.51,0.22-0.85,0.57c-0.53,0.49-0.67,0.87-0.81,2.33c-0.09,0.95-0.47,3.31-0.85,5.2
		c-0.38,1.89-0.78,4.09-0.92,4.86c-0.11,0.8-0.54,2.62-0.92,4.06c-1.08,4.06-2.98,11.78-3.25,12.96c-0.62,2.78-4.8,15.85-5.83,18.1
		c-1.87,4.09-4.31,8.49-5.62,10.16c-2.88,3.68-6.08,6.57-9.35,8.52c-6.49,3.85-10.78,5.04-18.2,5.01c-4.95-0.01-5.6-0.04-7.14-0.2
		c-0.76-0.09-1.89-0.17-2.53-0.19c-0.62,0.01-2.45-0.07-4.03-0.14c-1.58-0.08-3.38-0.18-4.03-0.2c-0.62-0.02-2.35-0.1-3.8-0.16
		c-4.01-0.19-4.19-0.2-5.11,0.09c-1.2,0.32-2.49,1.26-2.49,1.76c0,0.38,0.32,0.53,3.18,1.34c3.96,1.11,8.94,2.94,12.78,4.73
		c0.53,0.24,1.7,0.77,2.58,1.16c0.9,0.39,2.56,1.22,3.69,1.81c1.15,0.62,2.49,1.3,2.99,1.53c4.52,2.13,13.54,8.26,17.85,12.05
		c6.72,5.94,11.84,12.46,15.34,19.67c2.21,4.58,5.76,13.71,7.23,18.72c0.25,0.87,0.88,2.77,1.36,4.17
		c0.81,2.36,5.97,20.36,7.51,25.92c0.35,1.28,0.84,3.07,1.08,3.93c0.61,2.14,2.36,10.39,2.83,13.2c0.65,3.88,0.48,3.69,3.04,4.25
		c3.16,0.7,3.05,0.79,3.06-2.99c0.01-4.88,0.44-11.23,1.13-17.13c0.11-0.99,0.37-3.25,0.58-4.96c0.54-4.56,1.14-8.7,2.21-14.67
		c0.54-3.03,0.6-3.2,1.87-7.57c2.51-8.62,7.17-16.35,12.44-20.79c4.86-4.1,12.82-7.82,23.66-11.21c10.36-3.24,20.45-6.07,23.19-6.31
		c0.69-0.05,1.27-0.2,1.27-0.33C265.8,530.17,263.96,529.77,256.59,528.38z M2109.41,245.97c-0.71-0.38-4.24-1.47-6.82-2.07
		c-0.81-0.19-2.42-0.61-3.55-0.91c-1.15-0.31-3.07-0.77-4.26-1.06c-13.54-3.16-17.48-4.83-24.74-10.61
		c-6.7-5.34-11.37-12.37-15.02-22.72c-3.23-9.17-7.35-24.75-8.52-32.28c-0.07-0.58-0.35-1.24-0.58-1.47
		c-0.25-0.25-0.53-0.43-0.65-0.44c-0.09,0-0.25,2.34-0.32,5.2c-0.23,9.85-1.75,16.05-6.7,27.21c-4.21,9.49-9.88,17.35-15.16,21.06
		c-7.69,5.44-16.17,7.84-28.17,8.13c-2.46,0.06-12.92-0.16-15.2-0.31c-0.83-0.06-0.23,0.38,1.08,0.8c2.35,0.74,4.84,1.72,9.86,3.92
		c15.92,6.96,22.78,10.81,28.72,15.7c4.93,4.06,9.35,10.48,12.02,17.5c1.6,4.2,2.45,7.83,3.94,16.72c1.03,6.14,1.82,13.9,2,19.33
		c0.09,2.72,0.23,4.33,0.39,4.48c0.48,0.42,3.66,0.97,4.12,0.71c0.28-0.16,0.58-1.05,0.99-2.86c1.15-5.21,2.76-10.28,6.36-20.23
		c8.71-24.01,12.97-30.62,23.82-36.31c5.07-2.65,10.99-4.52,19.21-5.99c5.25-0.94,12.28-1.38,16.08-1c2.83,0.28,3.27,0.23,3.27-0.35
		C2111.59,247.64,2110.44,246.52,2109.41,245.97z M1981.11,356.71c0.5-0.06,1.17-0.15,1.5-0.19c0.53-0.1,1.52-0.16,6.45-0.62
		c1.07-0.1,3.57-0.25,5.53-0.35c1.96-0.1,4.03-0.19,4.61-0.22c2.92-0.14,3.88-0.2,7.26-0.32c2.02-0.07,4.15-0.16,4.72-0.21
		c0.58-0.03,2.69-0.14,4.72-0.22c6.89-0.27,15.76-1.17,17.6-1.79c1.13-0.38,1.33-0.65,1.22-1.76c-0.04-0.35-0.06-0.52-0.09-0.87
		c-1.12-0.16-1.69-0.24-2.81-0.4c-1.52-0.21-4.78-0.77-7.16-1.21c-2.41-0.45-6.46-1.2-8.98-1.65c-6.11-1.1-14.47-2.7-17.05-3.28
		c-6.4-1.42-13.49-3.06-17.62-4.24c-0.57-0.16-2.74-0.74-4.84-1.3c-4.65-1.21-4.99-1.3-10.71-3.13c-5.13-1.64-4.88-1.56-8.87-3
		c-4.08-1.47-11.22-4.39-13.93-5.69c-2.35-1.14-6.1-3.07-7.6-3.89c-12.83-7.12-24.83-17.89-30.75-27.73
		c-1.73-2.88-5.08-9.49-5.64-11.21c-0.09-0.28-0.3-0.81-0.46-1.14c-0.42-0.84-1.49-3.72-1.73-4.51c-0.11-0.37-0.52-1.63-0.92-2.82
		c-0.4-1.18-0.81-2.53-0.9-2.98c-0.11-0.45-0.64-2.28-1.15-4.05c-0.82-2.82-1.54-5.95-2.1-8.9c-0.3-1.56-1.64-9.33-1.87-10.79
		c-0.21-1.39-0.45-3-0.88-5.49c-0.13-0.79-0.36-2.11-0.48-2.93c-0.12-0.81-0.33-2.11-0.46-2.82c-0.23-1.29-0.48-2.78-0.92-5.24
		c-0.13-0.72-0.33-2-0.46-2.82c-0.25-1.59-0.58-3.76-0.94-5.73c-0.53-2.78-0.74-4.71-2.28-14.04c-0.13-0.78-0.34-2.05-0.46-2.8
		c-0.13-0.77-0.39-2.52-0.58-3.9c-0.18-1.38-0.39-2.78-0.46-3.1c-0.09-0.54-0.26-1.42-0.81-5.89c-0.1-0.81-0.34-2.62-0.53-3.99
		c-0.2-1.37-0.44-3.21-0.53-4.06c-0.13-1.28-0.25-1.67-0.71-2.08c-0.53-0.47-0.68-0.49-2.3-0.4c-2.11,0.11-3.11,0.42-3.73,1.16
		c-0.96,1.14-1.21,1.99-1.43,5.1c-0.44,6.28-0.71,9.27-0.9,11.07c-0.1,1.01-0.3,2.84-0.44,4.04c-0.14,1.18-0.3,2.48-0.37,2.86
		c-0.07,0.38-0.29,2.16-0.48,3.94c-0.19,1.78-0.45,3.79-0.55,4.43c-0.42,2.74-0.67,4.09-1.02,6.6c-0.67,4.87-0.85,6.01-1.06,6.85
		c-0.14,0.45-0.23,1.1-0.23,1.44c0,0.32-0.09,0.97-0.21,1.42c-0.25,1-0.61,2.99-1.08,6.24c-0.35,2.43-0.52,3.34-0.99,5.61
		c-0.35,1.7-0.69,3.54-0.94,5.11c-0.11,0.75-0.32,1.87-0.46,2.46c-0.25,1.14-0.61,2.88-0.92,4.32c-0.52,2.43-1.18,5.22-1.59,6.6
		c-0.25,0.84-0.62,2.09-0.83,2.79c-1.24,4.32-2.33,7.21-4.31,11.87c-0.46,1.1-2.19,4.46-3.55,6.9c-0.44,0.79-0.78,1.46-0.78,1.5
		c0,0.4-4.78,7.93-5.8,9.2c-0.35,0.43-0.65,0.83-0.65,0.89c0,0.08-0.6,0.82-1.31,1.69c-5.25,6.25-10.85,11.07-15.73,13.59
		c-7.49,3.84-13.92,5.73-24.88,7.3c-1.7,0.24-3.52,0.52-4.03,0.59c-0.51,0.07-1.5,0.2-2.19,0.28c-0.69,0.08-3.35,0.37-5.87,0.66
		c-2.53,0.29-5.02,0.57-5.53,0.6c-0.51,0.03-2.13,0.2-3.57,0.35c-1.44,0.15-3.22,0.31-3.92,0.38c-0.69,0.06-2.21,0.21-3.34,0.31
		c-1.15,0.1-3.27,0.28-4.72,0.39c-3.23,0.25-5.21,0.41-7.02,0.57c-1.89,0.17-7.22,0.44-10.71,0.53c-1.58,0.04-3.45,0.1-4.15,0.13
		c-0.69,0.03-5.16-0.01-9.9-0.08c-9.28-0.16-11.01-0.07-12.09,0.44c-1.24,0.58-2.26,1.89-2.37,3.06c-0.09,0.85-0.02,1.07,0.32,1.22
		c0.48,0.23,1.83,0.46,7.37,1.38c2.05,0.34,4.91,0.84,6.33,1.11c1.45,0.27,3.41,0.62,4.35,0.77c1.82,0.29,6.37,1.11,8.52,1.51
		c0.69,0.13,1.89,0.35,2.65,0.5c1.4,0.26,4.65,0.92,10.83,2.24c2.99,0.65,5.47,1.26,12.21,3.04c3.98,1.05,12.37,3.83,16.38,5.44
		c2,0.8,5.41,2.44,7.35,3.52c2.33,1.32,8.64,5.23,10.14,6.3c0.62,0.44,1.61,1.13,2.16,1.53c4.81,3.41,17.3,14.66,23.36,21.13
		c1.7,1.81,4.19,4.95,5.73,7.22c1.84,2.69,5.94,10.16,5.94,10.78c0,0.1,0.18,0.58,0.44,1.08c0.62,1.26,1.3,2.97,1.82,4.52
		c1.12,3.35,1.4,4.31,1.64,5.27c0.14,0.55,0.74,2.78,1.31,4.95c0.58,2.15,1.19,4.54,1.38,5.27c0.19,0.74,0.44,1.57,0.53,1.86
		c0.11,0.29,0.32,1.02,0.46,1.62c0.14,0.58,0.36,1.52,0.48,2.06c0.19,0.86,1.3,5.1,1.84,7.18c0.12,0.45,0.39,1.57,0.6,2.48
		c0.21,0.91,0.46,1.99,0.55,2.38c0.09,0.39,0.25,1.06,0.34,1.45c0.09,0.39,0.34,1.52,0.58,2.48c0.24,0.97,0.73,3.03,1.06,4.56
		c0.33,1.52,0.69,3.21,0.83,3.73c0.12,0.52,0.41,1.92,0.65,3.11c0.24,1.19,0.55,2.59,0.69,3.11c0.14,0.52,0.32,1.35,0.44,1.87
		c0.11,0.52,0.36,1.69,0.55,2.59c0.19,0.91,0.59,2.79,0.85,4.15c0.26,1.35,0.53,2.72,0.6,3.01c0.28,1.09,0.6,2.91,1.04,5.8
		c0.25,1.65,0.55,3.6,0.69,4.35c0.37,2.16,0.62,4.16,1.13,8.78c0.6,5.58,0.9,7.94,1.13,9.7c0.1,0.78,0.37,2.76,0.58,4.35
		c0.92,6.92,1.5,10.18,2.4,13.77c0.74,2.89,1.24,3.51,2.44,2.97c0.99-0.44,1.27-1.31,1.54-4.62c0.14-1.72,0.35-3.61,0.46-4.21
		c0.21-1.01,0.55-4.22,1.11-10.28c0.28-3.11,0.6-4.39,1.13-4.67c0.44-0.21,0.67-1.69,1.2-7.69c0.35-3.81,0.88-6.18,1.38-6.25
		c0.53-0.08,0.59-0.37,1.27-6.9c0.56-5.45,0.88-6.82,1.57-6.99c0.23-0.05,0.39-0.54,0.48-1.45c0.69-5.89,1-7.61,2.1-11.53
		c0.3-1.08,0.71-3.16,0.92-4.58c0.21-1.44,0.81-4.39,1.31-6.57c0.51-2.18,1.17-5.33,1.45-6.96c0.86-4.92,1.01-5.42,2.19-9.34
		c1.43-4.82,3.71-10.65,6.03-15.49c2.65-5.51,3.01-6.23,5.57-10.59c2.19-3.72,2.25-3.83,4.12-6.15c2.12-2.64,3.66-4.08,7.62-7.14
		c3.69-2.84,6.31-4.57,10.96-7.18c7.83-4.39,12.97-6.66,21.31-9.38C1959.99,360.2,1969.89,358.04,1981.11,356.71z M2076.86,470.53
		c-0.92-0.67-1.1-0.77-5.11-2.32c-1.45-0.57-3.18-1.24-3.8-1.48c-0.65-0.25-2.45-0.93-4.03-1.52c-1.58-0.6-3.41-1.29-4.03-1.55
		c-0.65-0.25-1.77-0.64-2.53-0.87c-1.54-0.48-2.19-0.74-7.14-2.71c-7.42-2.94-11.7-5.65-18.2-11.44c-3.27-2.92-6.47-6.6-9.35-10.82
		c-1.31-1.92-3.76-6.58-5.62-10.76c-1.04-2.3-5.21-14.95-5.83-17.54c-0.26-1.1-2.17-8.35-3.25-12.15c-0.38-1.35-0.81-3.04-0.92-3.76
		c-0.14-0.7-0.54-2.71-0.92-4.43c-0.38-1.73-0.76-3.85-0.85-4.7c-0.14-1.29-0.28-1.65-0.81-2.22c-0.34-0.39-0.74-0.7-0.85-0.72
		c-0.16-0.02-0.19,1.19-0.11,3.31c0.12,3.25-0.21,7.78-0.87,12.03c-1.01,6.4-3.1,12.34-7.42,21.4c-4.01,8.42-9.31,15.4-14.79,19.55
		c-5.71,4.33-14.2,7.1-23.38,7.7c-0.58,0.04-1.45,0.11-1.96,0.14c-3.5,0.25-9.77-0.12-17.39-0.95c-7.37-0.82-9.21-0.94-9.21-0.69
		c0,0.1,0.58,0.37,1.27,0.59c2.74,0.9,12.83,5.84,23.19,11.52c10.84,5.93,18.8,11.6,23.66,16.64c5.28,5.48,9.93,13.65,12.44,21.91
		c1.27,4.19,1.31,4.35,1.87,7.15c1.06,5.51,1.67,9.28,2.21,13.39c0.2,1.55,0.46,3.58,0.58,4.48c0.69,5.33,1.12,10.96,1.13,15.17
		c0.01,3.25-0.09,3.13,3.06,3.81c2.56,0.55,2.38,0.65,3.04-2.43c0.47-2.24,2.23-8.67,2.84-10.28c0.25-0.65,0.73-2.01,1.08-2.97
		c1.53-4.2,6.7-17.79,7.51-19.52c0.48-1.03,1.11-2.45,1.36-3.1c1.47-3.78,5.02-10.36,7.23-13.52c3.5-4.95,8.61-8.7,15.34-11.3
		c4.31-1.65,13.36-3.48,17.85-3.52c0.5,0,1.84-0.06,2.99-0.13c1.13-0.06,2.79-0.11,3.68-0.09c0.88,0.02,2.05,0.04,2.58,0.04
		c3.85,0.02,8.82,0.5,12.78,1.23c2.86,0.52,3.18,0.53,3.18,0.18C2079.35,472.81,2078.06,471.36,2076.86,470.53z"/>
	<path d="M637,528.02c1.66,52.39,2.49,91.35,2.49,117.51c0,9.34-0.62,14.71-1.87,16.15c-12.07,20.37-34.53,29.65-67.39,26.88
		c-19.47-1.67-29.2-2.61-48.66-4.74c-9.16-5.83-14.77-16.32-16.84-31.44c0-15.23,0-22.86,0-38.15c0-2.36-0.22-4.49-0.62-6.39
		c0-2.56,0-3.84,0-6.39c0-9.44,0.2-18.44,0.62-26.95c0.5-10.5,0.75-15.76,1.24-26.29c0-8.56,1.66-84,2.49-228.36
		c0.06-10.15-0.16-28.56,0.64-54.04c0.27-8.65,1.06-14.07,1.24-15.36c1.18-8.33-2.82-24.75-8.43-44.92
		c-5.61-20.16-8.43-35.42-8.43-45.76c0-2.66,0-3.99,0-6.64c7.9-14.74,19.55-24.09,34.95-28.05c17.22-4.43,25.83-6.66,43.05-11.12
		c11.65-2.99,21.01-4.48,28.09-4.48c17.47,0,28.33,6.28,32.44,18.68c4.6,13.88,6.86,47.56,6.86,100.21c0,20.18-0.72,50.5-2.18,90.66
		c-1.45,40.14-2.19,69.94-2.19,89.67C634.49,435.65,635.34,475.65,637,528.02z M1209.15,513.51c3.73,25.29,5.61,38.71,5.61,40.32
		c0,9.22-5.83,17.09-17.48,23.7c-17.47,9.9-36.39,17.25-56.78,21.88c-21.63,4.91-39.1,4.56-52.41-1.23
		c-3.33-9.7-5.69-22.66-6.86-38.66c-1.32-18.08-1.98-35.44-4.99-39.23c-2.44-3.06-13.1-3.76-21.84-2.07
		c-2.91,0.56-12.27,3.63-28.07,9.25c-2.5,6.47-5.77,22.17-9.98,46.89c-2.04,11.95-3.97,23.94-5.61,35.87
		c-1.68,2.51-4.79,5.11-9.36,7.83c-4.49,3.3-6.74,4.96-11.23,8.27c-17.48,8.58-34.95,14.82-52.41,18.59
		c-18.31,3.96-30.49,4.42-36.5,1.49c-6.02-2.94-9.59-10.1-9.05-19.73c0.19-3.44,1.87-16.14,4.37-37.54
		c2.07-17.75,9.36-58.38,21.84-121.55c9.23-46.22,13.85-69.27,23.08-115.13c9.56-48.94,14.35-85.88,14.35-111.4
		c0-7.17-2.18-17.64-6.55-31.61c-4.37-13.97-6.55-24.64-6.55-31.89c0-10.87,3.11-19.59,9.36-26.05c0.82-0.91,4.77-3.48,11.85-7.67
		c28.69-17.12,65.09-27.31,109.19-31.22c15.72-1.29,23.58-1.93,39.3-3.16c24.54,0,43.7,8.77,46.8,20.5
		c11.38,43.15,10.39,120.51,21.21,194.18C1191.93,400.45,1197.67,438.19,1209.15,513.51z M1068.76,347.96
		c0-8.01-0.84-19.83-2.5-35.51c-1.66-15.68-2.49-27.56-2.49-35.62c0-5.49,0.2-9.55,0.62-12.12c-2.49-1.32-3.74-1.98-6.24-3.3
		c-14.15,48.76-21.21,83.23-21.21,102.06c0,11.98,4.57,17.34,13.72,16.08c5.41-0.74,10.81-3.6,16.22-8.56
		C1068.14,363.64,1068.76,355.98,1068.76,347.96z M1687.08,141.86c-0.41-6.08-0.62-9.97-0.62-11.66c0-12.16-15.19-18.23-45.55-18.24
		c-3.75,0-21.63,1.34-53.66,4c-8.74,0.67-14.98,1.17-18.73,1.51c-20.79,2.99-33.69,8.51-38.68,16.56
		c-7.9,19.11-12.69,32.34-14.35,39.47c-5.41,22.07-9.3,38.99-11.85,50.27c-4.02,17.83-9.58,34.61-16.22,50.08
		c-1.66,1.42-3.13,2.15-4.37,2.17s-2.08-0.67-2.49-2.06c-7.5-17.35-13.32-42.39-17.48-74.59c-4.56-35.29-9.4-59.71-14.34-73.8
		c-3.76-10.73-14.57-16.1-32.46-16.1c-4.57,0-15.43,0.64-32.44,2.08c-36.53,3.09-67.48,6.88-92.33,11.22
		c-26.14,4.56-39.32,17.2-39.32,37.36c0,5.34,1.31,11.62,3.75,18.7c2.95,8.56,4.71,14.35,4.99,16.88
		c1.33,11.88,1.19,20.9,1.24,25.03c0.4,32.3,1.24,52.79,1.24,60.07c0,18.38-0.22,46.23-0.62,83.79
		c-0.42,37.56-0.62,65.86-0.62,84.59c0,36.31,0.48,65.76,1.24,87.97c0.46,13.27,3.75,21.88,9.98,25.67
		c14.56,1.63,23.3,2.13,26.21,1.52c21.62-4.55,39.57-11.29,53.66-20.24c9.56-6.07,14.35-16.39,14.35-30.86
		c0-14.85-1.56-36.86-4.68-65.93c-3.11-29.05-4.68-50.8-4.68-65.34c0-1.48,0.2-4.78,0.62-9.86c0.42-5.08,0.64-8.36,0.64-9.84
		c0-1.47-0.42-4.4-1.26-8.74c-0.84-4.34-1.24-7.06-1.24-8.19c0-2.95,1.04-6.6,3.13-10.92c2.07-4.29,4.35-6.6,6.86-6.89
		c1.65-0.19,2.71,0.6,3.13,2.38c2.49,9.27,3.93,15.9,4.35,19.89c4.57,21.15,7.9,36.23,9.98,45.18c5.82,30.27,9.98,53.28,12.49,68.95
		c9.14,46.37,19.36,69.56,30.56,69.03c14.53-0.69,26.21-1.18,34.95-1.74c22.88-1.49,35.77-5.46,38.69-12.28
		c4.56-10.58,7.6-17.95,8.72-21.98c2.22-7.94,3.53-13.73,4.37-16.69c7.23-32.79,10.85-48.96,18.09-80.94
		c6.66-29.51,13.52-55.43,20.59-77.96c2.08-7.04,4.99-11.61,8.74-13.72c4.88,1.34,7.34,4.91,7.44,10.63
		c-0.08,0.09-0.27,1.43-0.58,4.04c-1.66,17.89-2.71,30.46-3.11,37.54c-4.17,46.39-6.24,90.89-6.24,133.18
		c0,10.21,1.43,17.69,4.32,22.36c1.63,2.52,5.13,5.07,10.5,7.7c5.35,2.61,9.67,3.9,12.97,3.83c43.66-0.85,73.1-4.5,88.34-12.5
		c5.77-10.76,8.65-17.89,8.65-21.51c0-15.17,0-22.72,0-37.79c-0.42-11.13-0.62-23.67-0.62-37.57c0-21.37,0.2-53.45,0.62-95.65
		c0.42-42.2,0.62-73.36,0.62-94.02c0-8.25,0.53-20.62,1.57-37.02c1.03-16.4,1.56-28.64,1.56-36.78
		C1687.7,152.04,1687.49,147.96,1687.08,141.86z"/>
	<path d="M297.12,752.67c2.29,12.94,3.43,42.25,3.43,87.65c0,31.23-0.19,47.79-0.58,49.79c-2.67,19.83-11.63,28.19-26.85,24.67
		c-8.77-2.03-19.63-9.42-32.57-22.24c-16.35-16.18-26.86-26.17-31.43-29.54c-0.77-0.22-2.86-1.13-6.28-2.76
		c-3.43-1.62-5.72-2.63-6.86-2.98c-4.57-1.39-8.25,1.58-10.29,2.87c-2.19,1.39-6.28,9.26-6.28,25.75c0,18.92-0.44,35.34,2.29,41.21
		c2.06,4.44,8.57,8.36,13.14,9.87c4.95,1.64,13.15,0.1,24.57-5.03c11.42-5.13,20.19-7.09,26.28-5.47
		c13.33,3.53,21.14,21.21,23.43,53.41c0.37,5.02,0.58,21.72,0.58,50.01c0,21.71-0.96,35.79-2.86,42.22
		c-4.2,13.99-15.46,19.73-28.57,14.36c-1.82-0.74-4.2-2.52-6.86-4.59c-6.86-5.83-18.29-18.84-34.29-39.48
		c-0.39-0.53-1.35-1.09-2.86-1.64c-1.14-0.41-4.57,1.79-10.29,6.43c-0.76,7.73-1.14,14.4-1.14,20c0,14.83,1.72,35.31,5.15,61.49
		c2.66,20.27,4,33.21,4,38.81c0,4.41-0.57,6.79-1.71,8.13c-2.29,6.68-20.97,4.4-56-11.08c-13.3-5.88-20.15-9.11-20.73-9.33
		c-0.96-0.56-2.52-1.55-4.7-2.99c-2.86-1.87-4.67-3.03-5.43-3.43c-16-8.58-26.67-17.7-32.01-26.56
		c-4.95-16.55-7.43-35.33-7.43-55.98c0-6.49,0.29-16.26,0.86-29.31c0.58-13.05,0.86-22.84,0.86-29.35c0-7.57,0-11.36,0-18.93
		c0-3.45,0.18-7.47,0-11.48c-0.19-4.25-0.58-7.02-0.58-7.78c0-14.15,0.66-34.72,2-61.81c1.33-27.09,2-47.78,2-61.98
		c0-5.75-0.28-14.52-0.86-26.27c-0.57-11.76-0.86-20.51-0.86-26.27c0-36.01-3.43-64.12-10.29-84.09c0-15.24,3.24-23.83,9.72-25.93
		c12.18-4.12,39.8,1.86,82.85,14.64c-4.19-1.24,22.37,8.34,79.43,22.6c35.02,8.75,54.95,14.17,59.71,18.37
		C293.59,742.85,296.35,747.52,297.12,752.67z M114.26,1155.62c-0.18-0.09-0.43-0.23-0.72-0.41
		C113.38,1155.15,113.55,1155.25,114.26,1155.62z M596,881.33c6.1,27.29,9.13,65.8,9.13,115.03c0,117.78-26.61,200.34-79.85,235.36
		c-16.35,10.81-39.35,16.19-69,14.79c-25.09-1.18-45.24-8.23-60.45-20.22c-37.26-28.98-59.31-88.15-66.15-164.55
		c-1.9-21.4-2.85-35.84-2.85-43.29c0-70.32,10.99-132.39,33.07-187.37c22.74-56.6,61.4-82.64,115.77-80.06
		c30.79,1.46,54.18,10.98,70.15,29.31C570.53,808.9,587.3,842.43,596,881.33z M501.12,975.27c0-47.51-12-71.69-36-72.98
		c-6.86-0.37-13.23,3.25-18.86,10.82c-7.65,10.29-11.43,39.73-11.43,87.65c0,22.51,1.33,39,4,49.57
		c4.95,20.26,14.86,30.88,29.72,31.53c14.09,0.61,23.39-6.31,28-20.19c2.99-9.01,4.56-22.43,4.56-40.26
		C501.12,1003,501.12,993.77,501.12,975.27z M919.43,1024.23c3.05,11.59,4.57,23.4,4.57,35.4c0,31-5.11,58.17-15.43,81.4
		c-13.66,30.76-34.28,49.68-61.71,56.77c-9.53,2.46-17.34,2.73-23.42,0.8c-19.07-5.54-32.18-20.56-37.73-43.9
		c-3.25-13.64-7.81-34.89-14.28-63.09c-0.39-0.29-2.49-3.53-6.28-9.74c-2.68-4.1-5.72-5.79-9.15-5.06
		c-5.35,1.15-8.69,7.02-10.3,17.69c-0.72,4.77-1.14,11.5-1.14,20.04c0,6.99,0.58,17.26,1.71,30.73c1.15,13.48,1.71,23.63,1.71,30.52
		c0,9.59-0.53,17.2-1.71,22.72c-2.21,10.32-16.77,18.32-43.42,22.91c-2.29,0.39-8.1,1.77-17.43,4.01
		c-9.35,2.24-15.33,3.49-18.01,3.88c-15.24,2.23-23.62-1.88-25.13-11.98c-0.39-0.68-0.58-14.16-0.58-40.75
		c0-32.51,0.86-81.78,2.57-148.82c1.73-67.04,2.58-118.03,2.58-152c0-6.2-2.21-16.21-6.58-30.14c-4.39-13.93-6.56-24.71-6.56-32.25
		c0-9.21,3.22-17.52,9.7-24.95c9.52-10.92,22.47-19.31,38.87-25.31c4.18-1.49,19.04-5.26,44.57-11.76c2.51-0.69,3.77-1.04,6.28-1.73
		c4.57-1.17,9.17-2.71,13.14-3.53c13.99-2.9,24-5.12,26.28-5.56c5.72-1.1,16.04-1.89,30.86-2.41c36.11-1.26,64.43,5.93,84.59,21.69
		c22.08,17.26,33.14,43.65,33.14,79.56c0,32.37-8.2,63.38-24.57,93.22c-4.96,9.18-14.68,21.94-29.14,38.24
		c-8.77,10.12-13.14,17.12-13.14,21.02c0,7.06,3.42,12.45,10.28,16.14c6.86,3.69,14.09,4.49,21.71,2.45
		c1.52-0.41,3.9-1.52,7.15-3.37c3.22-1.84,5.61-2.98,7.14-3.4C908.95,1001.43,915.25,1008.29,919.43,1024.23z M806.86,901.88
		c0-23.16-10.09-32.53-30.28-28.22c-4.57,0.98-7.43,1.77-8.59,2.43c-9.91,5.31-14.85,18.24-14.85,38.71c0,6.51,0,9.76,0,16.26
		c0,10,9.14,13.12,27.43,9.07c7.99-1.77,14.37-6.29,19.14-13.56C804.48,919.3,806.86,911.08,806.86,901.88z M1077.55,781.37
		c1.9-0.12,10.2-2.2,24.95-6.21c9.46-2.57,21.82-1.94,37.12,1.8c15.3,3.75,26.38,4.64,33.17,2.77
		c18.15-4.97,27.22-21.44,27.22-49.36c0-11.9-0.67-22.07-2.29-30.11c-1.05-5.22-1.71-9.04-1.71-11.27
		c-1.52-23.41-7.55-36.64-14.85-36.51c-28.76,0.53-58.68,9.83-77.73,14.5c-1.52,0.37-5.91,1.17-13.14,2.36
		c-7.23,1.19-11.99,2.08-14.28,2.63c-22.63,5.53-33.95,8.3-56.58,13.76c3.05-0.74-1.91,0.86-14.85,4.74
		c-26.3,7.91-45.15,18.07-56.58,30.69c-3.42,7.95-5.15,16.1-5.15,24.41c0,9.12,2.47,20.98,7.43,35.5
		c5.33,15.6,7.99,27.46,7.99,35.71c-1.37,61.81-2.05,92.56-3.42,153.7c-1.52,66-2.29,115.41-2.29,148.77
		c0,25.31,8.18,37.68,24.57,37.32c8.38-0.24,27.43-4.82,57.14-14c53.34-16.48,88.96-27.73,106.86-33.3c1.91-0.6,3.62-1.13,5.15-1.6
		c1.83-0.57,2.74-0.85,4.57-1.42c11.43-3.55,21.9-9.07,31.43-16.59c9.91-18.73,14.85-47.02,14.85-84.85c0-3.03,0.38-9.77,1.15-20.2
		c0.77-10.43,1.14-17.15,1.14-20.17c0-4.9-0.57-10.04-1.71-15.34c-1.14-5.32-3.62-10.24-7.43-14.76c-3.81-4.53-7.42-6.3-10.86-5.27
		c-4.2,1.25-18.09,10.46-41.71,27.85c-23.62,17.41-41.34,28-53.14,31.6c-9.15,2.79-15.63,3.04-19.43,0.76
		c-5.72-3.61-8.58-12.7-8.58-27.26c0-22.98,3.81-35.6,11.43-37.86c6.47,1.52,14.87,3.42,25.15,5.69
		c16.38,3.49,30.28,3.48,41.71,0.05c5.33-1.6,10.35-6.89,14.87-15.81c3.81-7.51,6.08-14.28,6.86-20.19c0-3.4,0-5.1,0-8.5
		c0-6.03,0.37-15.32,1.14-27.8c0.76-12.48,1.15-21.74,1.15-27.77c0-12.07-1.14-19.83-3.41-23.35c-3.76-5.73-10.73-7.19-20.9-4.35
		c-6.8,1.9-17.9,8.3-33.34,19.32c-15.44,11.02-26,17.37-31.65,18.97c-3.02,0.85-6.03,0.55-9.04-0.91
		c-2.64-9.61-3.97-17.89-3.97-24.81C1056.57,799.75,1063.57,788.62,1077.55,781.37z M1510.31,585.4c-31.63,1.91-56.97,7.22-76,18.59
		c-12.21,7.28-18.29,16.97-18.29,28.97c0,4.24,0.76,8.52,2.29,12.81c3.05,8.59,4.57,18.38,4.57,29.42
		c0,25.66-2.86,60.99-8.57,106.71c-1.83,15.71-2.74,23.6-4.57,39.44c-0.78,6.43-1.35,10.06-1.73,10.87
		c-1.52,9.56-5.13,15.01-10.86,16.36c-4.95,1.17-9.15-9.69-11.43-31.52c-6.58-62.91-9.28-107.6-10.86-131.98
		c-2.21-34.23-4.53-55.37-6.86-63.33c-3.3-11.28-12.77-15.42-27.99-12.12c-2.29,0.5-9.17,2.56-20.58,6.12
		c-28.84,9-47.25,15.6-54.85,19.56c-24.01,11.82-36,25.26-36,39.99c0,8.11,6.62,18.8,12.57,30.02c4.85,9.14,6.66,18.94,7.43,23.53
		c8.37,50.57,14.28,85.67,17.71,105.15c17.14,110.83,27.43,175.82,30.86,192.64c3.43,16.82,10.53,25.88,21.15,26.76
		c8.71,0.72,29.71-3.56,62.85-11.71c32.77-8.05,54.87-16.98,66.3-27.78c7.61-7.33,12.94-18.31,16-32.86
		c17.6-82.89,26.4-122.77,44-200.13c22.08-97.7,33.14-154.16,33.14-176.12C1540.59,590.74,1530.5,584.18,1510.31,585.4z
		 M1703.28,677.2c1.9,0.41,10.2,0.79,24.95,1.52c9.46,0.47,21.82,4.73,37.12,13.07c15.3,8.35,26.38,13.06,33.17,13.78
		c18.15,1.91,27.22-9.71,27.22-35.28c0-10.9-0.68-20.49-2.29-28.37c-1.05-5.17-1.71-8.86-1.71-10.89
		c-1.52-21.9-7.1-35.84-14.85-38.17c-28.4-8.54-58.68-8.94-77.73-9.9c-1.52-0.08-5.91-0.55-13.14-1.36
		c-7.23-0.81-11.99-1.22-14.28-1.3c-22.63-0.77-33.95-0.96-56.58-1.02c3.05,0.01-1.91,0.3-14.85,1.02
		c-26.3,1.5-45.15,6.98-56.58,15.89c-3.42,6.25-5.15,12.99-5.15,20.17c0,7.88,2.47,18.56,7.43,32.11
		c5.33,14.56,7.99,25.49,7.99,32.76c-1.37,54.2-2.05,81.66-3.42,137.36c-1.52,60.11-2.29,106.59-2.29,138.27
		c0,24.03,8.18,38.47,24.57,41.78c8.38,1.64,27.43,1.06,57.14-0.07c53.34-2.04,88.96,0.36,106.86,1.66
		c1.91,0.14,3.62,0.27,5.15,0.39c1.83,0.14,2.74,0.22,4.57,0.37c11.43,0.96,21.9-0.41,31.43-4.18
		c9.91-15.61,14.85-39.73,14.85-74.78c0-2.81,0.38-8.9,1.15-18.23c0.77-9.34,1.14-15.4,1.14-18.19c0-4.53-0.57-9.52-1.71-14.89
		c-1.14-5.38-3.62-10.95-7.43-16.66c-3.81-5.72-7.42-8.77-10.86-9.17c-4.2-0.49-18.09,2.46-41.71,10.11
		c-23.62,7.66-41.34,11.87-53.14,11.61c-9.15-0.2-15.63-1.83-19.43-5c-5.72-4.94-8.58-14.06-8.58-27.36
		c0-20.99,3.81-31.4,11.43-31.29c6.47,3.21,14.87,7.38,25.15,12.6c16.38,8.21,30.28,12.85,41.71,13.67
		c5.33,0.39,10.36-2.7,14.87-9.22c3.8-5.5,6.08-10.88,6.86-16c0-3.11,0-4.67,0-7.78c0-5.51,0.37-13.87,1.14-24.99
		c0.76-11.12,1.15-19.42,1.15-24.91c0-10.99-1.14-18.45-3.41-22.43c-3.76-6.51-10.73-10.2-20.9-10.95c-6.8-0.5-17.9,1.7-33.34,6.97
		c-15.44,5.27-26,8.03-31.65,7.91c-3.02-0.07-6.03-1.16-9.04-3.27c-2.64-9.32-3.97-17.05-3.97-23.21
		C1682.3,687.94,1689.3,679.83,1703.28,677.2z M2142.89,1006.9c0,30.58-5.12,52.98-15.43,66.92c-13.62,18.42-34.28,20.39-61.71,7.1
		c-9.53-4.62-17.34-9.96-23.42-16.28c-19.07-19.3-32.11-42.11-37.73-67.71c-3.22-14.68-7.81-37.38-14.28-66.97
		c-0.39-0.49-2.49-4.65-6.28-12.39c-2.68-5.2-5.72-8.36-9.14-9.46c-5.35-1.72-8.69,2.15-10.3,11.17c-0.71,4-1.14,9.98-1.14,17.82
		c0,6.41,0.58,16.12,1.71,29.15c1.15,13.05,1.71,22.8,1.71,29.24c0,8.95-0.53,15.19-1.71,20.41c-2.19,9.7-16.77,9.93-43.42,2.78
		c-2.29-0.61-8.1-1.79-17.43-3.25c-9.35-1.47-15.33-2.35-18.01-2.94c-15.24-3.35-23.62-10.55-25.13-22.28
		c-0.39-0.89-0.58-13.25-0.58-36.84c0-28.86,0.86-72.08,2.57-129.16c1.73-57.09,2.58-99.47,2.58-127.66
		c0-5.15-2.21-13.93-6.58-26.24c-4.39-12.31-6.56-21.49-6.56-27.63c0-7.51,3.22-13.7,9.7-18.56c9.52-7.13,22.47-11.51,38.87-12.79
		c4.18-0.3,19.04-0.24,44.57,1.22c2.51,0.1,3.77,0.15,6.28,0.26c4.57,0.29,9.22,0.31,13.14,0.76c14.43,1.65,24,4.52,26.28,5.08
		c5.72,1.4,16.04,4.95,30.86,11.16c36.16,15.16,64.42,36.78,84.59,63.35c22.09,29.1,33.14,62.2,33.14,96.81
		c0,31.19-8.2,55.19-24.57,71.87c-4.96,5.19-14.68,10.31-29.15,15.71c-8.77,3.5-13.14,7.15-13.14,10.82
		c0,6.63,3.42,13.99,10.28,22.31c6.86,8.32,14.09,14.36,21.71,18.11c1.52,0.75,3.9,1.47,7.15,2.17c3.22,0.68,5.61,1.43,7.14,2.21
		c8.37,4.29,14.67,16,18.85,35.09C2141.36,982.12,2142.89,995.06,2142.89,1006.9z M2025.75,776.72c0-20.87-10.09-34.74-30.28-40.62
		c-4.57-1.33-7.43-1.96-8.58-1.93c-9.91,0.04-14.85,9.14-14.85,27.16c0,5.73,0,8.6,0,14.33c0,8.84,9.15,15.72,27.43,21.51
		c7.99,2.53,14.37,1.9,19.15-2.07C2023.37,791.13,2025.75,785.01,2025.75,776.72z"/>
	<path d="M310.74,1430.96c1.35,1.95,2.03,5.85,2.03,11.68c0,3.07-3.2,12.31-6.07,25.53c-5.07,23.33-5.57,50.72-5.57,76.04
		c0,41.48-0.51,71.46-5.06,78.96c-3.47,5.71-17.04,8.11-31.88,5.34c-2.36-0.44-7.26-1.58-14.67-3.52
		c-7.43-1.93-12.15-3.15-14.17-3.57c-5.75-1.2-14.42-2.13-26.07-2.92c-11.64-0.8-20.33-1.98-26.06-3.41
		c-68.16-16.98-105.94-77.05-113.36-173.35c-1.69-21.49-2.53-40.5-2.53-56.94c0-89.89,24.29-137.54,72.87-147.9
		c9.44-1.92,23.29-1.01,41.49,1.99c16.86,2.78,31.55,6.08,44.03,10.22c24.29,8.05,42.17,15.67,53.65,24.25
		c7.75,5.76,11.63,25.89,11.63,60.4c0,13.37-0.26,29.37-4.55,36.66c-3.36,5.71-13.34,8.51-20.75,6.63
		c-8.1-2.05-19.57-9.69-34.41-23.54c-14.85-13.85-25.65-22.26-32.39-24.57c-22.95-7.86-34.41,13.16-34.41,64.43
		c0,1.92-0.26,5.99-0.76,12.22c-0.51,6.23-0.75,10.31-0.75,12.23c0,1.28,0.25,4.02,0.75,8.19c0.51,4.18,0.76,6.58,0.76,7.23
		c1.68,16.58,3.37,28.14,5.06,34.75c3.7,13.63,10.45,24.18,20.24,31.45c2.02,0.59,3.03,0.88,5.05,1.46
		c6.41,1.84,13.06,0.8,14.68-2.02c2.66-4.64,2.53-14.52,2.53-21.42c0-22.91-6.42-40.88-19.23-54.46c-0.68-4.01-1.01-6.97-1.01-8.87
		c0-9.19,4.05-13.71,12.15-13.7c12.15,0.01,27.15,2.62,45.04,7.34c18.22,4.81,35.25,10.31,51.11,16.67
		C305.85,1426.86,309.39,1429.01,310.74,1430.96z M590.59,1538.22c2.69,9.65,4.04,19.23,4.04,28.62c0,24.28-4.55,44.48-13.65,60.36
		c-12.06,21.05-30.39,31.48-54.65,31c-8.46-0.17-15.37-1.69-20.75-4.53c-16.87-8.53-28.45-22.99-33.4-42.41
		c-2.86-11.22-6.92-28.74-12.65-51.94c-0.34-0.32-2.2-3.29-5.57-8.92c-2.36-3.76-5.06-5.75-8.09-5.95c-4.73-0.32-7.7,3.61-9.11,11.5
		c-0.63,3.53-1.01,8.63-1.01,15.21c0,5.38,0.51,13.43,1.52,24.09c1.01,10.66,1.52,18.65,1.52,24c0,7.44-0.49,13.24-1.52,17.26
		c-1.94,7.53-14.84,10.63-38.46,8.43c-2.02-0.19-7.17-0.36-15.43-0.61c-8.27-0.26-13.59-0.57-15.94-0.84
		c-13.5-1.53-20.93-6.72-22.27-15.29c-0.34-0.65-0.51-11.01-0.51-31.18c0-24.67,0.76-61.83,2.28-111.82
		c1.52-49.99,2.28-87.8,2.28-113.04c0-4.61-1.94-12.47-5.82-23.63c-3.88-11.17-5.82-19.57-5.82-25.13c0-6.81,2.86-12.31,8.6-16.6
		c8.43-6.29,19.91-10.15,34.42-11.93c3.7-0.43,16.87-0.73,39.47-2.12c2.23-0.17,3.34-0.26,5.57-0.45c4.04-0.28,8.13-0.83,11.63-0.96
		c12.66-0.46,21.26,0.34,23.28,0.44c5.06,0.24,14.2,1.55,27.33,3.7c31.98,5.23,57.04,14.75,74.89,30
		c19.56,16.71,29.36,39.2,29.36,67.6c0,25.59-7.28,48.76-21.77,69.1c-4.39,6.26-13,14.44-25.82,24.25
		c-7.75,6.14-11.63,10.67-11.63,13.69c0,5.47,3.05,10.35,9.11,14.6c6.07,4.25,12.47,6.33,19.22,6.25c1.34-0.02,3.45-0.42,6.31-1.22
		c2.89-0.8,4.98-1.24,6.35-1.26C581.29,1518.32,586.89,1524.92,590.59,1538.22z M490.9,1421.19c0-17.76-8.94-26.83-26.83-27.73
		c-4.04-0.2-6.58-0.2-7.59,0.04c-8.77,1.96-13.16,10.68-13.16,26.25c0,4.95,0,7.43,0,12.37c0,7.62,8.1,12.08,24.29,12.88
		c7.08,0.35,12.73-1.78,16.95-6.36C488.78,1434.07,490.9,1428.24,490.9,1421.19z M870.44,1572.76c3.03,19.99,4.56,30.59,4.56,31.84
		c0,7.29-4.73,13.52-14.17,18.63c-14.17,7.68-29.53,13.12-46.05,16.35c-17.56,3.44-31.73,2.84-42.52-1.6
		c-2.71-7.18-4.62-16.76-5.57-28.57c-1.07-13.34-1.76-26.32-4.04-29c-1.97-2.31-10.62-2.64-17.71-2.01
		c-2.36,0.21-9.95,1.83-22.77,4.72c-2.02,4.48-4.68,15.57-8.1,32.83c-1.66,8.35-3.2,16.7-4.56,24.97c-1.35,1.61-3.87,3.14-7.59,4.55
		c-3.64,1.85-5.46,2.77-9.1,4.6c-14.17,4.1-28.35,6.39-42.52,6.91c-14.84,0.55-24.72-0.63-29.6-3.34
		c-4.89-2.71-7.77-7.98-7.34-14.38c0.15-2.26,1.52-10.65,3.55-24.85c1.68-11.78,7.59-38.37,17.71-80.89
		c7.49-31.11,11.24-46.85,18.72-78.77c7.75-34.06,11.63-60.51,11.63-78.66c0-5.1-1.77-12.47-5.32-22.16
		c-3.53-9.68-5.3-17.07-5.3-22.2c0-7.68,2.52-14.06,7.59-19.17c0.67-0.72,3.87-2.87,9.61-6.51c23.28-14.91,52.8-26.13,88.56-36.89
		c12.75-3.76,19.13-5.69,31.88-9.66c19.91-4.65,35.53-0.74,37.96,7.75c9.74,33.99,8.43,97.11,17.2,155.55
		C856.47,1483.32,861.13,1513.23,870.44,1572.76z M756.58,1451.45c0-6.06-0.68-14.99-2.04-26.76c-1.35-11.78-2.02-20.77-2.02-26.92
		c0-4.21,0.17-7.36,0.51-9.35c-2.03-0.87-3.04-1.26-5.07-2.14c-11.46,37.96-17.2,63.31-17.2,77.26c0,8.89,3.72,12.91,11.14,12.05
		c4.39-0.51,8.77-2.46,13.16-6.56C756.07,1463.39,756.58,1457.54,756.58,1451.45z M1134.6,1168.92
		c-12.49-1.24-51.46,8.51-116.91,28.4c-68.82,20.92-104.49,34.75-107.79,39.16c-4.44,5.92-9.61,19.82-9.61,41.02
		c0,0.99,0.34,3.59,0.5,7.31c0.16,3.81,0,7.46,0,10.43c0,13.68,0,20.51,0,34.14c0,2.96,0.15,6.41,0,9.88
		c-0.16,3.56-0.5,5.89-0.5,6.54c0,22.99,4.88,33.13,14.68,30.5c6.07-1.63,14.25-8.32,24.54-20.23
		c10.28-11.9,18.63-18.81,25.04-20.62c3.72,1.6,5.51,5.89,5.07,12.48c-0.53,8.02-0.34,13.19,1.01,15.12
		c-3.37,54.92-6.13,96.29-7.59,124.03c-0.4,7.56-1.18,19.44-2.54,35.44c-1.01,12-1.52,20.42-1.52,25.29c0,1.56,0,2.34,0,3.91
		c0.34,1.88,0.51,3.14,0.51,3.78c0,1.96-0.17,5.91-0.51,11.83c-0.33,5.92-0.5,9.53-0.5,10.83c0,15.25,5.4,24.39,16.19,27.48
		c6.89-1.55,10.33-2.33,17.22-3.89c33.39-7.57,52.29-12.48,56.67-14.49c20.58-8.74,30.87-23.45,30.87-43.95
		c0-6.05-1.1-15.1-3.3-27.15c-2.19-12.04-3.28-21.24-3.28-27.62c0-18.78-0.17-46.86-0.51-84.23c-0.34-37.39-0.5-65.52-0.5-84.36
		c0-7.4,2.86-12.95,8.6-16.68c5.05-1.15,12.3,0.91,21.76,6.24c9.44,5.33,16.53,7.33,21.26,5.95c13.48-3.93,20.23-18.64,20.23-44.1
		c0-0.67,0.18-3.25,0-7.12c-0.16-3.48-0.5-6.99-0.5-10.03c0-6.92,0-10.38,0-17.29c0-4.41,0.33-10.95,1.01-19.64
		c0.67-8.67,1.01-15.21,1.01-19.62C1145.22,1179.35,1141.67,1169.78,1134.6,1168.92z M1288.27,1213.88
		c1.68-0.11,9.05-1.98,22.1-5.48c8.37-2.24,19.33-1.52,32.88,2.31c13.55,3.81,23.34,5.07,29.38,3.6
		c16.07-3.93,24.09-18.92,24.09-44.95c0-11.1-0.59-20.56-2.02-28.07c-0.93-4.9-1.51-8.44-1.51-10.5
		c-1.35-21.74-6.7-34.01-13.16-33.92c-25.33,0.34-51.96,9.21-68.83,13.82c-1.35,0.37-5.23,1.18-11.63,2.45
		c-6.41,1.26-10.62,2.19-12.66,2.77c-20.04,5.64-30.06,8.54-50.09,14.44c2.69-0.79-1.7,0.83-13.16,4.91
		c-23.28,8.28-39.98,18.31-50.09,29.85c-3.05,7.04-4.56,14.12-4.56,21.26c0,7.81,2.19,17.84,6.58,30.13
		c4.71,13.23,7.08,23.44,7.08,30.61c-1.21,53.76-1.82,80.72-3.03,134.75c-1.35,58.32-2.02,102.54-2.02,132.54
		c0,22.74,7.25,34.5,21.76,35.36c7.42,0.38,24.29-2.43,50.61-8.28c47.23-10.5,78.77-17.05,94.64-20.31c1.68-0.35,3.2-0.66,4.56-0.93
		c1.62-0.33,2.43-0.5,4.04-0.83c10.12-2.06,19.39-6.08,27.84-12.14c8.77-16.65,13.16-43.23,13.16-79.33c0-2.88,0.34-9.27,1.01-19.12
		c0.68-9.86,1.01-16.21,1.01-19.09c0-4.67-0.51-9.58-1.52-14.72c-1.01-5.16-3.2-10.04-6.58-14.65c-3.37-4.6-6.58-6.55-9.61-5.86
		c-3.72,0.84-16.03,8.44-36.94,22.94c-20.93,14.51-36.61,23.06-47.06,25.61c-8.1,1.98-13.84,1.83-17.22-0.48
		c-5.05-3.66-7.59-12.12-7.59-25.39c0-20.97,3.37-32.3,10.12-34.05c5.74,1.65,13.16,3.77,22.27,6.39
		c14.49,4.06,26.81,4.95,36.94,2.52c4.73-1.14,9.15-5.73,13.16-13.76c3.39-6.78,5.4-12.95,6.07-18.42c0-3.18,0-4.76,0-7.94
		c0-5.62,0.34-14.27,1.03-25.86c0.67-11.57,1.01-20.17,1.01-25.77c0-11.21-1.01-18.46-3.02-21.81c-3.33-5.47-9.5-7.05-18.51-4.75
		c-6.02,1.54-15.85,7.12-29.53,16.81c-13.67,9.67-23.02,15.23-28.03,16.58c-2.66,0.72-5.33,0.4-8.01-0.94
		c-2.33-8.71-3.5-16.16-3.5-22.37C1269.7,1230.38,1275.89,1220.38,1288.27,1213.88z M1469.08,1500.93c-0.17,0.01-0.4,0.01-0.68,0.01
		C1468.42,1500.96,1468.58,1500.96,1469.08,1500.93z M1623.69,1060.28c-4.23-2.62-21.89-3.54-52.88-1.02
		c-50.56,4.1-74.06,8.04-70.34,7.47c-38.13,5.82-62.6,14.92-73.39,25.23c-5.74,5.4-8.6,14.99-8.6,28.77
		c6.08,14.12,9.11,37.46,9.11,70.27c0,5.25,0.26,13.06,0.76,23.44c0.51,10.4,0.76,18.27,0.76,23.56c0,13.01-0.59,32.46-1.77,58.49
		c-1.2,26.03-1.77,45.75-1.77,59.04c0,0.71,0.34,3.16,0.5,6.9c0.16,3.79,0,7.54,0,10.77c0,7.13,0,10.7,0,17.84
		c0,6.14-0.25,15.58-0.75,28.37c-0.51,12.8-0.76,22.31-0.76,28.49c0,19.67,2.19,35.72,6.58,48.14c4.71,4.63,14.17,5.43,28.34,4.44
		c0.67-0.05,2.28,0.02,4.81,0.21c1.9,0.14,3.27,0.23,4.13,0.25c-0.09-0.1,5.99-0.88,18.39-2.25c31-3.42,47.57-8.67,49.6-16.62
		c1.01-1.91,1.52-4.91,1.52-9.03c0-5.23-1.2-16.76-3.55-34.48c-3.03-22.86-4.56-41.03-4.56-54.67c0-5.14,0.33-11.43,1.01-18.82
		c5.05-6.58,8.1-9.89,9.11-9.95c1.34-0.08,2.19,0.05,2.52,0.39c14.17,12.73,24.29,20.82,30.37,23.9c2.35,1.01,4.53,1.87,6.07,1.97
		c11.76,0.78,21.59-7.61,25.3-21.46c1.68-6.36,2.54-19.39,2.54-38.99c0-25.49-0.17-40.36-0.51-44.76
		c-2.02-28.22-8.94-41.97-20.75-41.29c-5.4,0.31-13.16,4.61-23.28,12.96c-10.11,8.33-17.37,12.71-21.76,13.06
		c-4.04,0.33-10.04-1.29-11.63-3.91c-2.42-3.99-2.02-19.13-2.02-36.02c0-14.72,3.4-23.05,5.57-25.3c2.16-2.24,5.05-5.87,9.1-6.25
		c1.01-0.1,3.06-0.03,6.08,0.23c3.03,0.26,4.88,0.38,5.57,0.32c4.04,1.46,13.33,6.74,27.82,16.31c11.47,7.57,21.09,11.3,28.85,10.96
		c13.48-0.6,21.42-9.76,23.78-27.72c0.34-1.85,0.51-16.49,0.51-43.71c0-39.56-1.01-64.5-3.03-75.17
		C1630.34,1066.35,1627.9,1062.9,1623.69,1060.28z M1872.4,1071.38c-1.7-0.33-8.48-1.02-20.25-1.55
		c-24.84-1.13-41.49,4.06-49.58,13.73c-1.01,4.63-1.52,9.14-1.52,13.53c0,2.19,1.85,10.62,5.57,25.35c0.67,5.59,1.18,9.5,1.52,11.74
		c2.69,24.89,4.04,51.73,4.04,80.51c0,25.1-1.12,52.82-3.03,82.97c-1.42,22.43-2.21,33.99-2.54,34.31
		c-2.02,10.96-9.95,15.65-23.78,14.4c-10.81-0.98-16.21-9.02-16.21-24.33c0-11.2-1.36-19.52-2.02-23.62
		c-2.82-17.39-1.01-36.14-1.01-48.01c0-16.68,0.59-41.81,1.77-75.23c1.18-33.42,1.77-58.27,1.77-74.72
		c0-16.47-0.17-25.23-0.51-26.34c-2.36-13.69-12.64-21.27-30.87-22.05c-4.39-0.19-10.22,0.47-17.2,1.59
		c-8.58,1.37-14.51,2.08-17.2,2.43c-29.02,2.99-43.53,12.91-43.53,28.1c0,3.62,1.11,8.33,3.05,14.04c2.4,7.09,3.7,11.9,4.04,14.07
		c2.36,13.4,3.55,32.32,3.55,56.82c0,13.54-0.68,33.97-2.02,61.39c-1.35,27.45-2.04,48.09-2.04,61.8c0,36.35,1.03,68.64,3.05,96.78
		c5.05,70.53,40.48,106.15,106.27,111.13c22.6,1.71,45.26,0.51,67.81-3.58c33.36-6.05,52.43-34.75,57.19-87.14
		c2.35-25.82,3.55-57.71,3.55-95.59c0-11.76,0-29.4,0-52.85c0-23.45,0-41.02,0-52.71c0-32.9,0.09-54.68,1.26-64.28
		c1.86-15.29,3.79-26.93,3.79-33.47c0-12.34-2.78-21.35-8.35-27C1893.4,1077.94,1884.55,1073.77,1872.4,1071.38z M2125.94,1429.85
		c-2.53-9.39-10.96-17.5-17.7-20.27c-4.74-1.95-12.83-2-24.29,0.28c-11.48,2.27-19.92,2.68-25.3,0.82
		c-9.46-3.27-15.18-9.36-17.22-18.52c-0.67-3.05-1.01-15.03-1.01-35.88c0-24.05,1.6-59.56,4.81-106.17
		c3.2-46.61,7.94-85.55,4.82-105.47c-0.72-4.63-3.55-10.3-5.57-15.03c-3.04-3.62-4.55-5.43-7.59-9.03
		c-7.78-4.69-16.7-9.04-26.83-12.91c-28.34-10.84-52.13-13.09-71.35-8c-6.08,1.56-9.11,6.37-9.11,14.33c0,2.17,0.34,4.43,1.01,6.79
		c4.39,16.36,8.1,36.72,11.14,61.09c1.01,7.52,1.52,12.02,1.52,13.46c0,15.59-0.17,30.24-0.51,43.95
		c-1.42,57.6-2.13,86.53-3.55,144.64c-1.01,37.87-1.51,71.75-1.51,101.56c0,15.83,5.4,27.34,16.19,34.64
		c6.41,4.23,18.23,8.04,35.43,11.94c22.27,5.05,43.25,9.71,61.74,14.5c3.65,0.95,11.34,2.86,22.77,5.49
		c9.38,2.16,17.23,4.51,22.77,5.99c12.69,3.39,21.59,1.94,24.29-3.29c5.4-9.78,8.1-31.8,8.1-66.28
		C2128.98,1473.11,2131.05,1448.79,2125.94,1429.85z"/>
	<path d="M320.16,1705.58c2.3,10.54,3.46,34.36,3.46,71.23c0,25.37-0.2,38.82-0.58,40.46c-2.69,16.26-11.73,23.71-27.08,22.18
		c-8.85-0.88-19.8-5.91-32.86-15.35c-16.52-11.93-27.08-19.36-31.7-21.75c-0.78-0.11-2.88-0.66-6.35-1.68
		c-3.45-1.02-5.76-1.63-6.91-1.8c-4.61-0.68-8.24,2.27-10.37,3.73c-2.41,1.65-6.35,8.94-6.35,23.4c0,16.58-0.24,31.39,2.31,35.72
		c1.94,3.3,8.65,5.78,13.26,6.31c4.98,0.58,13.25-2.15,24.78-8.13c11.52-5.98,20.37-8.61,26.52-7.96
		c13.44,1.42,21.32,15.27,23.63,41.5c0.37,4.08,0.58,17.8,0.58,41.04c0,17.86-0.96,29.54-2.89,35.16
		c-4.23,12.21-15.2,19.11-28.82,17.28c-1.79-0.24-4.23-1.23-6.92-2.39c-6.91-3.42-18.44-11.85-34.58-25.85
		c-0.39-0.37-1.35-0.62-2.88-0.73c-1.15-0.08-4.61,2.62-10.37,8.17c-0.77,6.95-1.15,12.87-1.15,17.75c0,12.94,1.73,30.35,5.19,51.99
		c2.68,16.77,4.04,27.52,4.04,32.35c0,3.83-0.58,6.58-1.73,8.29c-2.31,7.26-21.19,11.51-56.49,12.96
		c-14.12,0.58-21.04,0.94-20.95,1.04c-0.98-0.07-2.54-0.24-4.7-0.51c-2.88-0.36-4.71-0.55-5.47-0.55
		c-16.14-0.01-26.91-2.79-32.28-8.45c-5-13.51-7.5-30.53-7.5-50.87c0-6.38,0.29-16.17,0.86-29.31c0.58-13.12,0.86-22.88,0.86-29.28
		c0-7.45,0-11.17,0-18.62c0-3.4,0.18-7.33,0-11.28c-0.18-4.01-0.58-6.64-0.58-7.4c0-13.92,0.67-34.47,2.02-61.55
		c1.34-27.06,2.01-47.48,2.01-61.4c0-5.63-0.29-14.14-0.86-25.56c-0.58-11.4-0.86-19.94-0.86-25.58c0-35.39-3.46-62.4-10.37-81.42
		c0-15.16,3.26-24.06,9.8-26.66c12.29-5.06,40.15-0.86,83.58,9.38c-4.24-1,22.54,6.79,80.12,18.13
		c35.33,6.96,55.43,11.26,60.23,14.65C316.6,1697.63,319.39,1701.4,320.16,1705.58z M134.94,2090.5c0.02,0.02,0.21,0.03,0.78,0.03
		C135.52,2090.54,135.26,2090.53,134.94,2090.5z M621.63,1805.88c6.15,21.62,9.21,52.14,9.21,90.85
		c0,92.57-26.86,151.26-80.55,180.34c-16.49,8.98-39.67,13.48-69.59,13.48c-25.3,0-45.63-4.53-60.97-13.81
		c-37.58-22.38-59.87-63.65-66.73-123.87c-1.92-16.88-2.87-28.36-2.87-34.32c0-56.24,11.09-106.93,33.36-151.13
		c22.93-45.51,61.94-65.9,116.78-64.07c31.05,1.04,54.63,8.38,70.74,22.75C595.94,1748.49,612.86,1775.07,621.63,1805.88z
		 M525.94,1878.07c0-36.86-12.11-55.78-36.31-56.59c-6.91-0.23-13.34,2.65-19.02,8.64c-7.69,8.11-11.53,31.19-11.53,68.47
		c0,17.5,1.35,30.3,4.04,38.41c4.99,15.6,14.99,23.51,29.98,23.8c14.21,0.28,23.6-5.08,28.24-15.78c3.01-6.95,4.62-17.35,4.62-31.16
		C525.94,1899.59,525.94,1892.44,525.94,1878.07z M947.86,1949.53c3.07,11.12,4.6,22.26,4.6,33.28c0,28.45-5.17,52.34-15.57,71.07
		c-13.76,24.79-34.57,36.65-62.24,36.65c-9.61,0-17.5-1.49-23.64-4.46c-19.22-8.86-32.42-23.94-38.04-44.64
		c-3.26-12-7.89-30.72-14.4-55.23c-0.39-0.29-2.5-3.29-6.35-8.94c-2.69-3.76-5.77-5.5-9.22-5.27c-5.38,0.36-8.76,5.09-10.37,13.75
		c-0.72,3.88-1.15,9.4-1.15,16.45c0,5.77,0.58,14.32,1.73,25.57c1.15,11.28,1.73,19.74,1.73,25.44c0,7.92-0.55,14.14-1.73,18.51
		c-2.2,8.15-16.92,12.33-43.81,12.34c-2.3,0-8.17,0.32-17.57,0.93c-9.42,0.63-15.47,0.93-18.17,0.93
		c-15.37,0-23.83-4.29-25.37-12.95c-0.37-0.63-0.58-11.25-0.58-32.15c0-25.56,0.87-64.27,2.6-117.32c1.73-53.05,2.6-93.75,2.6-120.9
		c0-4.97-2.21-13.03-6.63-24.23c-4.43-11.2-6.63-19.83-6.63-25.86c0-7.35,3.25-13.97,9.8-19.89c9.6-8.7,22.66-15.46,39.19-20.31
		c4.21-1.22,19.21-1.72,44.96-9.78c2.53-0.83,3.8-1.25,6.33-2.09c4.62-1.47,9.2-3.21,13.27-4.34c14.31-3.95,24.2-5.28,26.52-5.69
		c5.75-1.03,16.15-1.87,31.12-2.51c36.45-1.54,64.97,4.67,85.31,19.18c22.28,15.89,33.44,40.7,33.44,73.56
		c0,29.61-8.27,57.35-24.79,82.44c-4.99,7.72-14.79,18.11-29.39,30.84c-8.85,7.94-13.25,13.55-13.25,16.99
		c0,6.21,3.45,11.38,10.37,15.57c6.91,4.2,14.2,5.98,21.9,5.28c1.52-0.14,3.93-0.8,7.2-1.98c3.27-1.17,5.68-1.83,7.22-1.98
		C937.28,1927.01,943.63,1934.22,947.86,1949.53z M834.29,1828.46c0-19.88-10.19-28.38-30.54-25.48c-4.6,0.66-7.5,1.24-8.65,1.73
		c-10,4.13-14.98,14.78-14.98,31.89c0,5.43,0,8.14,0,13.55c0,8.36,9.22,11.47,27.67,9.24c8.06-0.97,14.49-4.37,19.3-10.27
		C831.9,1843.25,834.29,1836.34,834.29,1828.46z M1462.58,1565.08c-7.31,0.42-17.5,2.15-30.54,6.04
		c-44.2,13.4-70.2,34.74-68.03,51.55c1.05,8.09,4.62,19.77,4.62,30.71c0,8.44-2,22.08-5.77,40.78c-4.29,21.27-9.04,32.41-14.4,33.2
		c-5.01,0.73-10.84-19.34-17.29-59.26c-6.98-43.15-15.58-66.72-17.87-70.32c-3.03-4.77-8.27-11.33-19.02-9.18
		c-12.69,2.54-31.73,10.34-57.06,23.13c-29.54,14.91-46.69,26.1-51.31,33.77c-3.08,4.98-4.6,9.63-4.6,13.98
		c0,6.74,3.25,14.61,9.8,23.73c8.83,12.27,17.07,28.9,24.2,49.74c6.21,18.17,11.97,36.91,17.87,54.92
		c7.69,23.48,13.84,40.44,17.29,49.88c8.07,24.53,12.1,55.87,12.1,93.78c0,17.49,0,26.25,0,43.79c0,12.13-0.94,25.19-2.88,39.04
		c-2.65,18.9-4.03,29.86-4.03,32.77c0,3.77-0.37,16.74,4.03,29.52c2.85,8.29,14.79,13.9,29.39,13.9c5.38,0,13.46-0.54,24.22-1.63
		c10.74-1.08,18.82-1.64,24.22-1.65c16.13-0.02,27.47-1.36,34-4.06c11.91-4.93,18.82-14.41,20.75-28.3
		c0.39-3.13,0.58-10.06,0.58-20.78c0-12.93-0.95-32.32-2.88-57.89c-1.93-25.57-2.88-44.6-2.88-57.32c0-30.28,4.6-56.79,13.83-79.98
		c17.29-43.63,33.24-85.64,47.84-121.93c14.6-36.26,22.1-54.96,22.49-56.27c2.3-7.45,3.84-12.5,4.6-15.14
		c10-30.69,14.99-50.91,14.99-60.79C1490.82,1570.63,1481.4,1564,1462.58,1565.08z M1791.71,1693.81
		c6.16,29.22,9.21,70.14,9.21,123.02c0,126.47-26.86,211.27-80.55,253.89c-16.49,13.16-39.69,19.82-69.6,19.82
		c-25.3,0-45.63-6.67-60.97-20.02c-37.59-32.18-59.87-90.09-66.73-171.87c-1.92-22.93-2.88-38.35-2.88-46.4
		c0-75.98,11.08-143.95,33.36-204.53c22.93-62.36,61.94-94.1,116.78-93.03c31.06,0.61,54.64,11.08,70.75,30.64
		C1766.02,1615.83,1782.94,1652.18,1791.71,1693.81z M1696.01,1788.18c0-50.68-12.1-76.18-36.3-76.58
		c-6.92-0.12-13.36,4.02-19.04,12.33c-7.71,11.3-11.52,42.54-11.52,93.93c0,24.13,1.35,41.89,4.04,53.14
		c4.98,21.61,14.98,32.53,29.97,32.71c14.21,0.18,23.59-7.4,28.24-22.49c3.02-9.78,4.6-24.36,4.6-43.56
		C1696.01,1817.82,1696.01,1807.92,1696.01,1788.18z M2104.4,1628.07c-6.35-6.54-16.44-11.85-30.27-15.56
		c-1.93-0.52-9.65-1.89-23.06-3.58c-28.32-3.57-47.26,0.49-56.49,10.64c-1.15,5.16-1.73,10.22-1.73,15.2
		c0,2.48,2.12,12.23,6.35,29.17c0.76,6.34,1.34,10.8,1.73,13.35c3.06,28.3,4.6,58.51,4.6,90.83c0,28.17-1.28,59.23-3.45,92.99
		c-1.62,25.15-2.5,38.11-2.88,38.48c-2.3,12.31-11.34,17.87-27.09,16.71c-12.3-0.9-18.45-10.03-18.45-27.48
		c0-12.75-1.55-22.25-2.3-26.95c-3.19-19.89-1.15-41.28-1.15-54.87c0-19.06,0.65-47.81,2.01-86.04c1.35-38.21,2.02-66.7,2.02-85.59
		c0-18.91-0.2-29.01-0.58-30.33c-2.69-15.99-14.42-25.99-35.16-29.27c-4.99-0.79-11.68-0.78-19.6-0.41
		c-9.79,0.45-16.53,0.47-19.6,0.48c-33.05-0.52-49.57,9.06-49.57,27.2c0,4.32,1.25,10.11,3.45,17.19c2.74,8.78,4.23,14.67,4.6,17.29
		c2.69,16.27,4.04,38.89,4.04,67.96c0,16.06-0.78,40.21-2.3,72.6c-1.54,32.4-2.32,56.81-2.32,73.04c0,42.99,1.16,81.18,3.47,114.37
		c5.78,83.2,46.11,125.06,121.04,125.06c25.74,0,51.54-3.82,77.23-11.11c37.99-10.77,59.72-44.48,65.13-100.89
		c2.67-27.81,4.04-61.89,4.04-102.42c0-12.58,0-31.46,0-56.63c0-25.14,0-44.01,0-56.59c0-35.37,0.09-58.91,1.43-69.18
		c2.13-16.34,4.32-28.82,4.32-35.87C2113.9,1644.56,2110.73,1634.63,2104.4,1628.07z"/>
</g>
</svg>
