<?xml version="1.0" standalone="no"?>
<!DOCTYPE svg PUBLIC "-//W3C//DTD SVG 20010904//EN"
 "http://www.w3.org/TR/2001/REC-SVG-20010904/DTD/svg10.dtd">
<svg version="1.0" xmlns="http://www.w3.org/2000/svg"
 width="2400.000000pt" height="2400.000000pt" viewBox="0 0 2400.000000 2400.000000"
 preserveAspectRatio="xMidYMid meet">

<g transform="translate(0.000000,2400.000000) scale(0.100000,-0.100000)"
fill="#000000" stroke="none">
<path d="M7638 21769 c-309 -45 -624 -280 -1013 -754 -356 -435 -685 -971
-896 -1462 -24 -56 -46 -97 -50 -90 -3 7 -11 118 -18 247 -43 863 -114 1360
-226 1586 -75 153 -168 220 -338 245 -40 5 -103 7 -142 3 -265 -25 -425 -179
-635 -609 -238 -487 -536 -1347 -721 -2078 -34 -136 -64 -246 -66 -244 -2 2
-10 271 -18 598 -31 1254 -51 1534 -136 1859 -52 203 -148 363 -253 425 -97
57 -231 80 -378 64 -164 -17 -278 -77 -424 -223 -309 -310 -633 -942 -760
-1481 -34 -148 -44 -379 -20 -475 23 -91 46 -110 137 -110 39 0 80 5 91 11 19
10 20 17 14 75 -35 339 296 1165 664 1659 111 149 243 288 329 343 22 15 25
15 44 -9 92 -112 168 -433 197 -834 14 -199 28 -743 40 -1535 15 -1006 48
-2009 89 -2685 5 -77 5 -201 0 -275 -11 -193 -11 -836 1 -1025 26 -397 68
-707 109 -800 17 -37 29 -50 67 -67 110 -48 315 -30 368 33 43 51 45 192 11
674 -22 298 -62 968 -81 1328 -15 296 -15 330 1 485 57 577 219 1530 355 2092
193 796 529 1774 762 2220 94 181 222 361 245 347 21 -13 73 -180 97 -310 59
-320 91 -710 121 -1447 18 -459 37 -761 70 -1164 25 -296 25 -300 8 -440 -21
-176 -24 -590 -5 -751 18 -149 59 -348 80 -392 22 -47 55 -70 122 -88 130 -35
318 -4 364 58 20 27 21 41 20 220 -1 131 -11 297 -32 522 -17 182 -39 416 -48
522 l-16 191 26 144 c107 583 361 1251 696 1828 292 502 722 1033 1015 1253
93 70 233 147 266 147 25 0 93 -69 120 -122 72 -141 93 -292 86 -613 -8 -364
-43 -648 -143 -1145 -109 -539 -220 -953 -634 -2365 -251 -853 -388 -1422
-490 -2025 -99 -586 -101 -1170 -5 -1530 88 -327 252 -460 570 -460 179 0 291
34 415 125 166 122 343 393 500 765 33 80 66 156 72 170 9 22 14 6 33 -115 85
-538 251 -789 595 -897 67 -21 94 -23 250 -23 163 1 181 3 255 28 120 40 199
91 306 197 396 394 662 1291 686 2315 l5 260 137 140 c153 156 230 243 347
390 84 106 222 291 269 363 15 23 30 40 32 38 3 -2 -9 -84 -26 -183 -68 -398
-130 -917 -151 -1270 -13 -220 -13 -675 0 -863 55 -776 226 -1221 525 -1365
93 -45 192 -65 323 -65 213 1 359 57 491 189 79 79 188 232 262 367 23 41 44
72 48 69 4 -2 13 -29 20 -59 15 -66 39 -99 94 -129 38 -20 56 -22 182 -22 124
0 145 2 180 21 69 37 73 46 140 269 63 210 265 722 416 1058 201 447 377 768
624 1142 208 314 436 615 599 790 l65 70 1 -33 c0 -48 -39 -223 -150 -657
-178 -701 -260 -1136 -311 -1640 -19 -181 -16 -586 5 -718 50 -320 168 -478
398 -532 95 -22 296 -20 392 5 202 52 399 210 660 533 26 31 49 57 51 57 2 0
20 -28 41 -62 110 -189 253 -303 451 -360 68 -20 101 -23 253 -23 211 0 286
17 455 100 152 75 293 184 465 361 671 690 1253 1940 1431 3077 l12 78 86 58
c97 65 303 219 370 275 24 20 45 35 47 33 2 -1 -26 -84 -62 -182 -178 -497
-403 -1320 -508 -1860 -56 -292 -92 -700 -81 -920 27 -545 138 -797 386 -877
53 -17 91 -20 214 -21 131 0 162 3 245 26 192 52 363 153 532 316 298 285 539
672 728 1166 79 207 113 312 105 326 -14 22 -76 39 -145 39 -124 0 -121 3
-233 -242 -221 -484 -441 -821 -717 -1099 -74 -75 -166 -159 -205 -187 -74
-55 -213 -132 -237 -132 -8 0 -26 21 -41 48 -139 256 -165 813 -67 1397 83
489 272 1242 457 1815 82 257 159 467 258 711 103 250 109 291 50 337 -58 46
-254 57 -366 22 -77 -24 -88 -32 -331 -247 -106 -94 -251 -220 -323 -281
l-130 -111 -8 52 c-47 324 -138 466 -340 537 -128 45 -344 44 -482 -1 -190
-63 -357 -229 -481 -478 -109 -219 -142 -419 -93 -577 18 -57 31 -77 82 -129
46 -45 78 -68 122 -84 170 -65 399 -67 607 -7 l80 24 -7 -37 c-17 -101 -101
-416 -151 -571 -303 -940 -825 -1841 -1337 -2308 -56 -51 -134 -114 -172 -141
-76 -53 -184 -111 -206 -111 -24 0 -112 73 -162 135 -91 112 -196 371 -229
565 -11 66 -11 67 20 118 51 82 166 308 227 442 128 281 219 539 295 835 126
490 175 899 126 1060 -23 77 -78 134 -161 165 -48 18 -82 22 -170 23 -167 1
-264 -33 -363 -127 -142 -134 -261 -393 -377 -826 -146 -542 -186 -1064 -120
-1537 l15 -107 -46 -71 c-145 -220 -395 -526 -551 -676 -110 -106 -138 -126
-157 -110 -21 18 -64 121 -86 206 -43 169 -49 573 -14 915 33 327 124 833 235
1309 174 750 182 788 183 951 0 97 -3 122 -21 162 -42 93 -149 133 -332 125
-141 -6 -210 -28 -320 -101 -282 -188 -845 -932 -1241 -1641 -126 -225 -326
-637 -450 -930 -26 -61 -38 -49 -40 40 -2 54 8 87 89 305 252 670 724 2060
930 2735 211 692 341 1220 388 1575 25 190 25 542 0 660 -32 149 -91 255 -175
310 -78 52 -160 72 -297 72 -215 1 -327 -44 -476 -192 -193 -191 -369 -518
-546 -1015 -59 -164 -183 -579 -199 -661 -5 -25 -11 -34 -26 -34 -15 0 -402
90 -615 143 -24 6 -43 16 -43 22 0 23 39 123 123 315 243 558 332 775 403 987
59 176 64 213 33 242 -53 49 -204 66 -310 35 -81 -24 -129 -80 -221 -259 -127
-250 -287 -641 -428 -1055 -30 -85 -54 -156 -55 -158 -1 -1 -64 7 -141 19
-182 27 -474 23 -626 -10 -328 -71 -660 -269 -846 -504 -74 -94 -79 -107 -52
-129 28 -23 119 -24 181 -3 24 9 85 45 134 80 337 241 521 338 735 386 110 24
193 24 327 -2 169 -32 224 -49 219 -68 -3 -9 -15 -47 -27 -86 -48 -160 -404
-798 -651 -1169 -164 -245 -253 -363 -510 -680 -9 -11 -19 -18 -22 -15 -3 3
-21 60 -41 128 -119 408 -296 629 -573 713 -50 15 -105 21 -222 25 -141 4
-164 2 -251 -20 -261 -68 -408 -204 -572 -532 -144 -289 -191 -465 -191 -721
l0 -151 -32 -12 c-18 -6 -37 -17 -42 -24 -6 -7 -36 -98 -66 -203 -80 -277
-270 -846 -366 -1094 -229 -596 -401 -930 -574 -1117 -98 -105 -108 -105 -160
2 -72 150 -110 368 -122 690 -17 448 74 1085 272 1905 83 345 159 620 429
1545 371 1274 512 1869 589 2485 36 290 46 420 46 620 -1 467 -95 707 -324
820 -125 63 -311 85 -488 59z m6340 -1576 c57 -134 79 -324 63 -549 -21 -283
-71 -547 -186 -987 -36 -136 -65 -250 -65 -251 0 -2 -62 -4 -137 -4 -109 -1
-171 5 -293 27 -152 27 -155 28 -152 52 6 45 83 344 127 494 164 558 370 1013
551 1214 25 28 52 51 59 51 7 0 22 -21 33 -47z m-1878 -1714 c52 -11 205 -43
339 -70 135 -27 245 -50 247 -52 1 -1 -11 -63 -27 -137 -129 -615 -203 -1414
-203 -2190 0 -453 8 -618 49 -1025 l24 -230 -86 -195 c-148 -336 -274 -577
-397 -759 -74 -110 -170 -221 -190 -221 -30 0 -120 146 -170 275 -75 194 -122
420 -153 730 -25 255 -25 965 0 1285 38 489 131 1113 258 1738 61 304 197 872
209 872 3 0 48 -9 100 -21z m1280 -220 c117 -11 247 -8 331 7 l37 6 -44 -148
c-105 -350 -206 -657 -469 -1424 -196 -569 -265 -763 -272 -770 -8 -7 4 625
17 855 26 466 92 1029 167 1414 l16 83 46 -6 c25 -3 102 -11 171 -17z m5226
-161 c36 -44 69 -117 91 -203 13 -53 17 -113 17 -250 1 -252 4 -243 -103 -304
-127 -73 -298 -153 -318 -149 -27 5 -61 63 -74 126 -33 162 37 415 174 625 54
83 151 187 173 187 7 0 25 -15 40 -32z m-9024 -813 c171 -134 317 -490 363
-880 8 -71 15 -133 15 -137 0 -14 -216 -190 -315 -257 -130 -89 -233 -144
-334 -181 -119 -44 -141 -41 -205 23 -101 101 -140 224 -140 437 1 169 21 277
86 455 112 308 256 529 380 585 51 22 73 16 150 -45z m7058 -605 c-41 -319
-191 -893 -297 -1137 -23 -54 -27 -24 -13 101 45 408 176 935 291 1181 l24 50
3 -55 c2 -30 -2 -93 -8 -140z m-6684 -947 c-43 -616 -184 -1211 -385 -1628
-113 -233 -222 -392 -335 -487 -93 -77 -96 -78 -163 -32 -206 142 -331 518
-363 1089 -11 203 -5 397 27 793 14 185 19 213 32 208 9 -3 57 -20 106 -38
l90 -33 215 0 c202 0 221 2 315 27 148 40 327 115 420 177 17 11 34 20 39 20
5 1 6 -41 2 -96z"/>
<path d="M12635 12749 c-71 -4 -197 -19 -280 -33 -348 -61 -1005 -244 -1122
-312 -75 -44 -83 -86 -20 -114 77 -35 170 -25 391 45 60 19 113 35 118 35 5 0
6 -15 4 -32 -21 -123 -25 -382 -16 -887 12 -634 25 -953 39 -980 23 -41 147
-55 211 -23 28 14 36 24 42 57 8 51 25 591 34 1080 7 418 -5 613 -52 832 l-6
31 68 21 c269 79 567 144 743 160 126 12 186 33 186 66 0 49 -115 67 -340 54z"/>
<path d="M10455 12663 c-140 -18 -366 -77 -601 -157 -200 -68 -260 -95 -308
-136 -76 -67 -78 -96 -46 -480 11 -129 27 -415 35 -635 15 -422 28 -602 51
-725 18 -98 40 -120 124 -120 82 0 106 22 124 115 28 138 56 588 56 903 0 153
3 203 13 206 153 44 508 192 541 226 27 27 12 52 -38 64 -48 12 -88 3 -301
-72 -93 -32 -181 -62 -196 -65 l-25 -6 -12 219 c-7 131 -8 228 -3 242 5 13 31
36 58 50 138 76 587 236 683 245 65 5 126 29 135 52 9 24 -36 57 -95 70 -49
11 -132 12 -195 4z"/>
<path d="M14425 12594 c-16 -3 -95 -14 -175 -25 -369 -51 -510 -122 -554 -279
-63 -225 -117 -1278 -88 -1713 15 -213 44 -262 181 -305 70 -21 392 -24 486
-4 80 18 181 50 228 74 53 26 127 96 127 119 0 32 -43 51 -117 51 -57 1 -78
-4 -128 -31 -33 -17 -89 -38 -125 -47 -81 -21 -214 -24 -232 -6 -16 16 -24
600 -11 772 l8 105 210 90 c202 87 290 130 328 163 28 25 21 51 -18 68 -55 23
-126 18 -211 -16 -42 -17 -128 -48 -190 -70 l-114 -39 0 73 c0 100 18 365 35
516 18 161 37 223 74 249 16 12 138 52 270 90 133 38 248 75 257 82 23 19 13
52 -21 68 -30 15 -161 23 -220 15z"/>
<path d="M13201 12503 c-16 -13 -24 -36 -31 -83 -18 -127 -40 -407 -47 -577
l-6 -171 -61 -12 c-34 -6 -122 -27 -196 -47 -74 -19 -145 -37 -157 -40 -23 -5
-23 -4 -24 98 0 57 -8 191 -17 297 -17 188 -18 194 -42 207 -34 19 -105 19
-145 -1 -23 -10 -39 -28 -49 -55 -37 -93 -72 -423 -60 -577 l6 -93 -32 -34
c-36 -38 -35 -69 5 -87 26 -12 22 31 45 -468 14 -281 28 -420 45 -447 30 -45
163 -56 221 -18 l24 15 0 489 0 489 73 30 c79 33 310 108 348 114 l24 3 6
-420 c7 -440 15 -612 29 -651 12 -31 44 -46 100 -46 68 0 90 10 106 48 17 40
30 299 40 797 7 334 7 337 28 337 29 0 86 36 86 55 0 16 -49 45 -78 45 -18 0
-19 12 -26 178 -6 169 -29 468 -42 561 -9 62 -32 81 -98 81 -36 0 -61 -6 -75
-17z"/>
<path d="M8241 12388 c-31 -17 -46 -41 -38 -61 3 -9 43 -41 89 -71 l83 -56
-75 0 c-250 -1 -466 -130 -626 -375 -156 -241 -221 -476 -211 -769 6 -176 20
-243 82 -371 93 -194 273 -335 507 -396 65 -17 112 -22 218 -22 166 0 238 16
375 83 193 95 357 277 500 554 97 191 135 342 135 541 0 253 -65 434 -206 571
-70 69 -107 93 -302 202 -245 136 -340 176 -432 180 -48 2 -84 -2 -99 -10z
m409 -376 c120 -90 169 -142 210 -227 53 -107 65 -173 64 -345 -1 -185 -17
-257 -94 -419 -114 -238 -293 -451 -440 -524 -40 -21 -87 -37 -105 -37 -42 0
-141 50 -198 100 -98 87 -179 246 -208 410 -18 102 -15 324 4 436 45 251 153
475 291 602 74 67 115 80 256 81 l115 1 105 -78z"/>
<path d="M4545 11290 c-281 -75 -567 -348 -869 -828 -280 -444 -550 -1052
-722 -1626 -29 -96 -40 -122 -45 -105 -3 13 -9 193 -13 399 -4 206 -11 544
-16 750 -5 206 -14 584 -20 840 -7 256 -14 475 -16 487 -6 33 -58 56 -111 50
-58 -6 -90 -30 -102 -74 -25 -94 -44 -371 -66 -958 -35 -979 -46 -1621 -49
-2875 -2 -662 -7 -988 -16 -1115 -18 -237 -19 -1196 -2 -1475 18 -297 40 -539
68 -755 39 -306 48 -353 75 -381 47 -50 202 -70 304 -39 27 8 50 13 52 11 2
-2 -8 -27 -21 -57 -90 -205 -104 -421 -35 -569 68 -146 219 -231 439 -246 230
-17 477 65 705 233 124 92 372 343 478 484 210 282 386 626 512 1006 l38 112
141 47 c812 269 1267 486 1626 775 176 141 369 346 489 516 32 47 51 64 75 69
252 53 623 262 913 513 46 39 84 71 87 71 2 0 -23 -82 -56 -182 -205 -628
-350 -1281 -389 -1745 -17 -207 -7 -586 19 -733 68 -381 206 -567 472 -637 89
-23 300 -23 388 1 377 101 649 480 1094 1516 44 102 82 187 85 190 3 3 2 -40
-2 -95 -9 -132 10 -519 36 -714 57 -449 198 -812 379 -974 94 -85 191 -117
350 -117 119 1 170 10 247 46 102 49 207 182 379 484 85 150 298 570 344 678
13 29 25 51 27 48 3 -2 11 -59 19 -125 73 -625 338 -1021 742 -1106 102 -22
302 -19 398 5 266 67 466 260 737 712 51 85 128 224 172 311 44 86 82 157 85
157 3 0 19 -42 35 -93 123 -386 420 -718 734 -821 116 -38 200 -49 335 -43
247 10 411 99 623 339 l87 98 70 -137 c144 -279 249 -392 413 -443 84 -26 282
-28 364 -4 136 40 311 166 525 379 395 393 745 909 966 1425 63 147 178 463
178 489 0 34 -54 56 -136 55 -101 0 -115 -12 -177 -147 -90 -197 -234 -478
-318 -622 -266 -454 -625 -900 -953 -1184 -105 -90 -227 -181 -243 -181 -16 0
-69 62 -118 138 -86 135 -167 325 -235 554 l-29 96 95 158 c334 557 611 1286
713 1874 32 187 43 315 43 490 0 401 -102 660 -288 730 -125 47 -299 34 -412
-31 -178 -102 -354 -394 -504 -839 -202 -600 -268 -1282 -183 -1895 16 -115
68 -385 85 -445 18 -63 12 -79 -66 -180 -217 -283 -429 -493 -522 -517 -61
-15 -226 101 -335 237 -216 270 -325 620 -387 1247 l-10 101 84 224 c384 1022
706 2067 840 2723 75 369 106 641 106 945 0 403 -37 512 -185 555 -132 39
-280 2 -371 -92 -129 -131 -310 -485 -457 -893 -150 -415 -316 -1092 -402
-1635 -15 -93 -29 -175 -30 -182 -3 -8 -35 4 -92 32 -116 59 -219 85 -369 92
-224 11 -421 -29 -619 -126 -67 -33 -157 -86 -200 -118 -107 -80 -235 -217
-322 -345 -40 -57 -80 -111 -91 -119 -11 -8 -72 -147 -147 -334 -331 -828
-625 -1458 -911 -1958 -125 -217 -305 -487 -324 -487 -17 0 -101 181 -140 300
-212 644 -194 1738 47 2923 l26 128 -23 24 c-58 61 -248 75 -340 24 l-45 -24
-56 -160 c-60 -173 -94 -257 -277 -700 -556 -1345 -834 -1905 -1113 -2240 -70
-83 -183 -185 -205 -185 -19 0 -72 67 -105 132 -73 145 -111 384 -111 708 0
432 65 873 223 1505 97 387 163 614 315 1079 52 159 97 308 101 332 5 39 3 46
-25 72 -43 41 -103 55 -213 50 -140 -5 -157 -16 -337 -216 -186 -207 -455
-472 -585 -576 -101 -80 -340 -246 -356 -246 -5 0 5 38 21 85 53 155 69 247
75 430 4 144 2 184 -15 266 -49 236 -173 385 -371 443 -70 21 -255 21 -331 1
-213 -57 -392 -246 -509 -540 -76 -190 -102 -428 -66 -600 45 -215 201 -365
446 -430 l80 -21 -62 -74 c-289 -350 -670 -621 -1154 -820 -143 -59 -527 -201
-532 -197 -1 2 7 47 18 102 60 293 85 676 60 916 -28 271 -99 491 -217 676
-44 69 -163 194 -242 254 -183 138 -436 219 -690 219 l-104 0 20 33 c11 17 73
118 139 222 316 500 526 911 727 1419 233 587 356 1039 411 1511 20 171 20
471 0 595 -46 282 -169 437 -392 495 -84 22 -288 19 -378 -5z m265 -186 c190
-172 184 -750 -17 -1499 -75 -283 -241 -736 -393 -1080 -225 -505 -460 -923
-847 -1506 -138 -209 -146 -219 -243 -298 -159 -130 -290 -296 -290 -368 0
-22 8 -38 29 -55 44 -38 107 -51 223 -46 91 3 109 7 157 33 63 35 164 141 289
304 72 95 97 120 147 148 156 87 276 94 417 25 103 -50 180 -111 251 -199 250
-309 316 -840 191 -1523 -26 -140 -68 -319 -83 -356 -8 -17 -54 -36 -228 -94
-265 -88 -430 -153 -588 -232 -315 -157 -584 -382 -738 -616 l-35 -53 -6 103
c-7 114 -21 606 -36 1303 -6 253 -17 675 -26 937 -21 680 -21 714 15 988 83
650 247 1389 438 1985 179 560 459 1174 711 1560 179 276 376 486 517 551 70
33 97 31 145 -12z m10219 -2139 c3 -500 -162 -1242 -504 -2260 -146 -434 -204
-589 -204 -545 -2 132 51 585 110 939 138 837 314 1486 541 1996 l43 98 7 -49
c3 -27 7 -107 7 -179z m-7839 -1652 c80 -90 114 -217 114 -413 -1 -163 -22
-286 -75 -437 -32 -89 -131 -297 -147 -307 -17 -10 -93 37 -136 86 -80 88
-112 217 -103 412 9 182 64 364 159 523 33 56 133 173 148 173 4 0 23 -17 40
-37z m9379 -188 c118 -282 84 -739 -100 -1336 -83 -271 -236 -645 -380 -929
-99 -196 -95 -194 -105 -75 -5 55 -9 246 -8 425 0 279 3 349 23 495 81 611
277 1251 458 1498 l37 50 23 -29 c13 -16 36 -60 52 -99z m-3048 -475 c94 -35
222 -135 298 -234 l42 -54 -10 -114 c-33 -352 -36 -762 -9 -1145 l11 -162 -48
-108 c-330 -743 -716 -1347 -961 -1503 -26 -16 -57 -30 -67 -30 -29 0 -168
145 -215 226 -85 143 -151 348 -188 584 -25 157 -26 596 -1 782 76 566 239
1074 443 1379 110 164 280 308 430 365 119 45 183 48 275 14z m-8981 -2284 c0
-2 -18 -50 -41 -107 -60 -152 -168 -373 -247 -507 -194 -326 -520 -674 -736
-782 -71 -36 -79 -36 -107 -7 -115 119 -96 391 44 635 181 316 499 561 944
727 110 41 143 51 143 41z"/>
<path d="M10825 8416 c-67 -31 -125 -96 -231 -257 -49 -74 -90 -136 -92 -139
-2 -3 -11 6 -20 20 -9 14 -47 57 -86 96 -85 85 -131 104 -250 104 -97 0 -157
-24 -176 -71 -35 -85 45 -325 172 -513 91 -135 222 -236 306 -236 18 0 53 -5
77 -11 65 -16 129 -4 171 33 47 41 366 519 415 622 83 172 66 307 -45 357 -62
28 -176 26 -241 -5z"/>
</g>
</svg>
