<?xml version="1.0" standalone="no"?>
<!DOCTYPE svg PUBLIC "-//W3C//DTD SVG 20010904//EN"
 "http://www.w3.org/TR/2001/REC-SVG-20010904/DTD/svg10.dtd">
<svg version="1.0" xmlns="http://www.w3.org/2000/svg"
 width="2500.000000pt" height="2500.000000pt" viewBox="0 0 2500.000000 2500.000000"
 preserveAspectRatio="xMidYMid meet">

<g transform="translate(0.000000,2500.000000) scale(0.100000,-0.100000)"
fill="#000000" stroke="none">
<path d="M12140 23129 c-35 -14 -69 -48 -91 -91 -79 -154 32 -316 202 -294
l46 6 59 -87 c85 -126 163 -230 222 -294 l52 -56 -398 -6 c-423 -6 -555 -13
-912 -53 -477 -52 -1060 -166 -1494 -291 l-88 -25 -77 81 c-139 146 -324 294
-531 423 -338 211 -742 354 -1195 424 -311 47 -353 45 -375 -22 -9 -27 -8 -40
3 -63 8 -16 104 -139 212 -273 381 -467 602 -651 905 -752 95 -31 142 -42 264
-61 36 -6 24 -12 -205 -104 -466 -188 -878 -393 -1273 -633 -71 -43 -132 -78
-135 -78 -3 0 -13 13 -23 29 -27 49 -185 166 -308 230 -339 175 -695 241
-1059 196 -139 -17 -178 -31 -209 -70 -31 -39 -28 -78 9 -119 33 -38 323 -237
483 -330 235 -139 488 -211 671 -191 40 5 57 4 50 -3 -5 -5 -103 -79 -216
-164 -271 -203 -530 -414 -874 -713 -51 -44 -202 -122 -325 -168 -301 -112
-600 -174 -1028 -213 l-183 -17 -36 42 c-48 57 -99 81 -170 81 -99 -1 -187
-56 -232 -145 -35 -70 -38 -115 -11 -171 31 -64 103 -99 205 -99 114 1 185 37
225 115 l19 37 88 7 c320 25 594 65 792 116 138 35 140 38 -87 -125 -288 -206
-444 -301 -741 -449 l-93 -47 -39 15 c-78 32 -182 13 -231 -41 -28 -30 -58
-105 -58 -144 0 -59 47 -138 99 -166 100 -53 244 -17 303 76 24 38 29 55 27
99 l-3 54 165 84 c217 113 329 181 534 323 94 65 171 117 173 116 2 -2 -54
-72 -125 -157 -443 -528 -875 -1179 -1203 -1813 -45 -88 -116 -224 -157 -303
l-74 -142 -29 20 c-16 11 -59 35 -97 53 -67 31 -71 32 -208 32 -268 -1 -405
-54 -795 -309 -152 -99 -274 -166 -397 -219 -34 -14 -71 -35 -82 -46 -27 -27
-28 -82 -2 -105 11 -10 91 -42 178 -71 87 -29 202 -69 256 -89 215 -79 532
-96 753 -40 36 9 68 14 71 11 3 -3 -22 -75 -56 -160 -69 -178 -200 -562 -256
-752 -21 -71 -40 -132 -41 -134 -2 -2 -35 4 -74 14 -40 10 -142 30 -227 44
l-155 27 -20 52 c-36 96 -131 151 -243 139 -143 -15 -239 -120 -220 -243 14
-97 100 -158 237 -170 97 -8 116 -3 174 47 36 31 52 39 73 35 14 -3 67 -13
116 -21 173 -30 195 -36 195 -50 0 -8 -88 -72 -195 -142 -107 -70 -265 -174
-350 -229 -86 -56 -158 -97 -161 -92 -4 5 -27 23 -52 39 -62 39 -127 40 -203
2 -128 -65 -177 -247 -99 -364 35 -54 75 -78 140 -86 73 -9 129 16 189 84 35
39 55 73 67 114 l18 59 85 46 c131 71 383 224 506 308 60 41 111 73 112 72 2
-2 -15 -79 -36 -172 -52 -226 -85 -390 -125 -635 -27 -161 -38 -207 -53 -217
-10 -7 -54 -36 -98 -64 -168 -106 -373 -357 -503 -614 -131 -259 -198 -489
-347 -1189 -107 -504 -109 -511 -205 -830 -38 -126 -72 -249 -76 -272 -7 -48
9 -98 37 -113 58 -32 121 7 240 146 163 192 215 278 404 677 158 335 253 517
379 727 l81 135 7 -255 c8 -298 30 -624 62 -905 22 -196 22 -202 4 -271 -9
-39 -43 -214 -74 -390 -78 -447 -103 -589 -104 -590 0 -1 -15 -5 -34 -8 -18
-4 -52 -20 -75 -36 -87 -64 -126 -172 -97 -271 26 -90 98 -160 185 -180 77
-17 204 57 254 150 41 75 46 144 15 212 -26 55 -60 98 -92 116 -17 9 -17 16 8
149 14 76 40 222 58 323 21 117 35 177 40 165 4 -11 17 -71 28 -134 67 -363
209 -913 325 -1249 30 -89 32 -165 10 -354 -25 -215 -83 -462 -150 -643 -55
-147 -179 -416 -194 -421 -99 -31 -185 -100 -211 -168 -38 -99 37 -263 143
-314 78 -38 189 -19 256 42 96 88 93 287 -6 381 l-30 28 80 181 c121 277 195
519 237 776 l12 74 73 -179 c40 -99 108 -258 152 -355 78 -173 79 -176 62
-200 -11 -14 -43 -138 -78 -294 -105 -472 -129 -646 -138 -980 -10 -392 30
-646 154 -985 59 -163 358 -756 470 -933 27 -42 76 -77 111 -77 36 0 80 27 97
60 17 33 226 593 281 755 45 131 90 309 104 413 12 92 15 339 4 398 -8 46 -12
51 101 -96 122 -157 258 -322 384 -464 58 -65 124 -138 145 -163 l39 -45 -6
-76 c-3 -42 -18 -147 -32 -232 -35 -214 -44 -325 -46 -535 0 -99 -4 -191 -8
-205 -5 -18 -16 -26 -44 -32 -113 -23 -191 -117 -189 -228 1 -93 36 -150 117
-193 53 -27 143 -27 205 0 95 43 180 146 180 219 0 43 -46 129 -88 164 l-36
29 3 198 c3 236 12 340 48 574 l27 176 196 -186 c172 -164 373 -346 481 -436
36 -30 36 -30 42 -130 6 -99 31 -234 82 -436 87 -348 243 -668 436 -896 199
-235 608 -504 947 -623 127 -45 176 -39 196 27 5 16 -28 130 -103 360 -139
428 -239 738 -237 740 1 1 71 -37 156 -84 686 -379 1477 -687 2246 -875 157
-39 174 -45 174 -64 0 -33 42 -81 296 -335 l235 -235 -17 -61 c-20 -74 -14
-116 26 -172 36 -50 95 -81 153 -81 89 0 194 94 217 194 26 117 -86 232 -219
224 l-59 -3 -158 156 c-88 85 -188 186 -224 223 l-65 69 35 -6 c19 -3 141 -24
270 -46 774 -131 1533 -164 2333 -100 l147 12 77 -84 c238 -262 421 -395 692
-505 209 -85 461 -124 806 -124 527 0 1180 90 1440 199 201 84 278 168 229
250 -22 37 -17 35 -189 72 -313 67 -504 127 -865 271 -274 110 -441 170 -539
194 -88 21 -97 15 137 84 415 122 840 284 1277 485 105 48 295 132 423 186
l233 98 92 -30 c51 -16 179 -64 285 -107 151 -60 191 -80 186 -92 -4 -8 -9
-40 -11 -70 -6 -73 17 -115 86 -157 99 -60 207 -51 284 24 47 45 67 91 67 155
0 150 -180 267 -314 203 -42 -20 -46 -19 -245 65 -75 31 -160 65 -190 75 l-53
17 233 118 c428 214 764 422 1129 697 58 43 111 82 117 86 8 5 31 -5 59 -23
111 -77 289 -142 449 -165 182 -26 610 -15 782 21 104 21 354 104 446 148 215
103 511 348 537 445 13 51 4 82 -32 104 -22 14 -568 83 -848 107 -210 18 -523
10 -655 -16 l-30 -6 35 37 c19 20 100 87 180 149 402 313 759 669 1117 1116
83 104 134 158 156 168 17 7 67 18 110 24 91 12 198 2 410 -38 l137 -26 0 -29
c0 -105 121 -197 244 -187 141 12 251 156 216 284 -44 157 -255 212 -385 101
l-40 -34 -110 23 c-61 13 -158 29 -217 36 -60 7 -108 15 -108 19 0 8 464 240
537 268 l52 20 43 -24 c71 -39 110 -41 173 -10 45 21 61 37 85 78 50 88 50
186 -2 260 -61 86 -214 81 -300 -10 -32 -34 -67 -108 -68 -143 0 -23 -12 -31
-107 -74 -60 -27 -186 -88 -282 -137 -96 -49 -176 -87 -178 -85 -2 2 39 68 91
148 236 360 441 759 614 1198 55 141 229 652 258 760 9 32 13 35 44 34 181 -8
482 99 714 253 186 124 438 403 544 602 112 211 173 520 176 888 1 158 0 162
-23 187 -17 18 -35 26 -59 26 -30 0 -48 -15 -190 -161 -157 -161 -280 -270
-486 -430 -153 -118 -340 -283 -413 -364 -35 -39 -63 -63 -63 -55 0 8 13 87
30 176 78 427 128 859 155 1346 5 82 11 121 21 129 8 6 14 24 14 40 0 78 142
380 312 664 186 311 230 375 258 381 76 15 154 80 181 150 37 97 -12 248 -94
291 -84 43 -169 34 -237 -25 -100 -85 -109 -216 -23 -329 l24 -32 -51 -77
c-104 -153 -345 -565 -383 -654 -9 -20 -12 10 -19 145 -41 911 -211 1841 -519
2838 l-33 108 19 34 c26 50 187 202 271 258 40 26 123 74 185 108 88 47 117
58 129 49 104 -75 277 -39 338 69 25 44 29 126 10 182 -45 134 -189 203 -291
140 -77 -47 -136 -142 -137 -217 0 -37 -3 -42 -37 -58 -87 -41 -256 -142 -329
-196 -43 -33 -79 -58 -81 -56 -2 1 8 41 22 87 32 105 74 271 119 468 19 83 54
222 77 310 l41 159 44 30 c61 43 88 100 89 184 0 58 -4 72 -30 110 -65 92
-174 136 -259 104 -49 -19 -108 -71 -131 -116 -24 -47 -36 -126 -25 -173 11
-52 71 -111 127 -126 l39 -11 -57 -232 c-31 -128 -76 -312 -99 -408 -23 -96
-61 -233 -84 -303 l-41 -129 -84 224 c-213 569 -530 1225 -880 1822 -44 76
-81 141 -81 143 0 3 40 48 88 101 222 245 334 400 418 577 162 344 248 829
215 1213 -21 244 -65 439 -211 952 -45 157 -95 346 -112 420 -32 146 -50 180
-98 180 -14 0 -34 -6 -43 -12 -9 -7 -69 -110 -133 -228 -77 -144 -187 -323
-334 -545 -321 -485 -434 -691 -523 -952 -53 -152 -85 -294 -94 -405 -3 -43
-9 -78 -12 -77 -3 0 -41 42 -84 94 -43 51 -131 151 -195 222 -110 119 -119
133 -145 208 -56 166 -94 495 -83 740 12 309 62 527 242 1065 l85 255 51 25
c178 87 97 380 -104 380 -83 0 -163 -61 -194 -149 -17 -48 -17 -134 0 -174 12
-30 60 -80 85 -89 5 -1 -23 -100 -63 -218 -125 -372 -192 -631 -228 -885 -14
-99 -18 -483 -5 -555 12 -65 -4 -43 -57 83 -103 243 -146 392 -212 735 l-46
243 29 41 c23 35 28 51 28 103 0 102 -58 166 -155 173 -45 3 -61 0 -90 -20
-83 -57 -111 -190 -55 -263 15 -21 46 -45 68 -55 l41 -18 47 -244 c77 -400
119 -540 253 -841 l27 -59 -113 99 c-254 221 -545 444 -823 628 -171 113 -452
285 -467 285 -14 0 -9 30 31 165 57 194 75 316 74 530 0 368 -63 659 -227
1054 -62 150 -76 174 -111 197 -20 13 -30 14 -59 4 -38 -12 -43 -20 -114 -190
-23 -52 -62 -140 -87 -195 -137 -292 -206 -472 -235 -617 -37 -181 -25 -399
31 -539 10 -27 14 -49 9 -49 -5 0 -70 30 -144 66 -122 59 -142 72 -200 135
-144 156 -309 451 -391 700 l-49 147 26 30 c52 63 45 165 -17 227 -83 82 -223
68 -280 -29 -29 -49 -34 -126 -11 -179 17 -41 79 -96 117 -104 16 -3 32 -10
37 -17 5 -6 28 -72 52 -146 48 -148 142 -345 232 -482 32 -49 52 -88 45 -88
-7 0 -82 34 -167 76 -566 278 -993 436 -1595 589 -486 124 -928 201 -1361 239
-106 9 -172 20 -193 30 -76 40 -213 200 -373 436 -83 123 -84 126 -75 165 17
77 -25 170 -92 205 -43 22 -118 26 -161 9z m685 -969 c315 -20 626 -58 910
-111 152 -28 486 -101 482 -105 -2 -2 -109 14 -238 36 -619 105 -1049 143
-1644 143 -526 0 -957 -33 -1460 -112 -66 -10 -121 -18 -123 -16 -11 10 281
84 377 96 243 30 426 49 576 58 94 7 190 13 215 15 119 7 764 5 905 -4z m430
-264 c774 -58 1002 -95 1560 -252 687 -193 1542 -549 1920 -799 202 -134 548
-402 807 -627 1023 -888 1889 -2058 2652 -3585 460 -921 750 -1733 990 -2775
158 -684 232 -1272 243 -1913 9 -556 -22 -1011 -112 -1624 -73 -494 -109 -654
-225 -1001 -363 -1089 -922 -2132 -1613 -3010 -303 -385 -680 -796 -1022
-1114 -141 -131 -134 -115 26 57 735 791 1258 1605 1724 2687 295 686 479
1270 620 1975 141 706 198 1276 198 1980 1 495 -25 907 -89 1410 -43 347 -130
838 -200 1135 -14 58 -29 134 -34 170 -5 36 -22 106 -39 155 -16 50 -55 182
-86 295 -183 660 -447 1344 -756 1962 -51 102 -89 190 -89 207 0 20 -9 37 -28
53 -15 12 -58 79 -96 148 -545 990 -1262 1850 -2136 2561 -814 663 -1716 1112
-2770 1380 -821 209 -1646 299 -2610 286 -671 -9 -1143 -54 -1665 -158 -1018
-202 -2013 -663 -2949 -1363 -751 -562 -1374 -1212 -1928 -2012 -408 -590
-808 -1355 -1105 -2114 -424 -1085 -719 -2313 -817 -3405 -54 -590 -49 -1184
14 -1750 115 -1034 485 -2241 965 -3145 601 -1132 1364 -1982 2395 -2667 884
-588 2012 -1062 3250 -1368 1170 -288 2409 -396 3500 -305 85 7 123 6 148 -2
27 -10 38 -9 65 5 21 11 105 26 237 42 896 110 1842 369 2799 766 90 37 160
64 155 60 -24 -22 -224 -158 -336 -229 -449 -286 -1033 -566 -1480 -708 -998
-318 -1990 -493 -2967 -523 -286 -8 -475 -2 -791 29 -749 74 -1603 267 -2325
527 -951 342 -1973 897 -2730 1481 -570 440 -1137 1006 -1606 1602 -414 526
-804 1152 -952 1530 -353 897 -565 1833 -649 2865 -20 249 -17 1281 5 1595 80
1130 230 1874 578 2870 364 1044 851 1941 1580 2910 785 1043 1619 1824 2744
2569 559 371 1352 808 1590 876 160 46 477 124 570 139 159 27 1088 114 1445
135 231 14 1180 5 1425 -13z m-3955 -260 c0 -8 -47 -30 -122 -56 -669 -235
-1400 -597 -2015 -996 -62 -40 -113 -72 -113 -69 0 6 180 129 335 227 422 269
889 508 1375 705 173 71 516 201 533 202 4 1 7 -5 7 -13z m3675 -135 c365 -27
744 -72 1025 -122 167 -29 167 -29 43 -54 -61 -12 -140 -32 -175 -44 -69 -23
-212 -101 -290 -158 -94 -69 -264 -268 -395 -464 -70 -105 -85 -154 -60 -193
27 -41 65 -42 185 -2 173 57 264 75 497 97 268 25 389 48 520 100 192 77 325
176 410 309 46 72 85 158 85 189 0 32 15 33 92 11 632 -183 1225 -447 1777
-790 72 -45 131 -85 131 -91 0 -5 -43 -9 -98 -9 -138 0 -346 -29 -735 -104
-57 -10 -69 -10 -79 1 -22 27 -67 43 -121 43 -72 0 -135 -39 -177 -112 -25
-43 -30 -61 -27 -95 15 -146 235 -205 346 -94 20 20 42 55 50 77 l13 41 157
27 c86 14 206 35 266 47 163 30 461 37 580 14 105 -20 112 -24 310 -182 526
-418 973 -864 1384 -1381 114 -144 362 -484 356 -490 -2 -2 -30 2 -62 9 -93
19 -299 14 -447 -11 -176 -30 -257 -54 -518 -159 -123 -49 -331 -128 -463
-176 -270 -99 -290 -107 -305 -134 -36 -67 8 -107 180 -161 91 -28 194 -72
324 -137 375 -188 507 -233 806 -277 361 -53 644 -36 951 55 82 24 104 28 111
17 5 -7 50 -96 99 -197 275 -560 494 -1118 669 -1706 28 -93 53 -179 57 -189
5 -18 4 -18 -23 1 -52 37 -188 100 -269 126 -82 26 -223 57 -451 101 -174 34
-331 82 -554 172 -102 41 -193 74 -203 74 -28 0 -57 -37 -57 -73 0 -23 12 -49
41 -87 23 -30 79 -119 125 -196 105 -178 181 -280 275 -370 107 -102 188 -155
361 -238 272 -131 393 -167 751 -223 128 -20 181 -32 187 -43 22 -43 124 -630
165 -950 38 -305 85 -859 85 -1010 l0 -44 -61 98 c-109 178 -168 248 -399 477
-172 170 -226 229 -219 240 16 25 10 93 -12 134 -54 102 -156 167 -264 168
-57 1 -71 -3 -107 -29 -24 -16 -56 -51 -72 -77 -24 -40 -30 -61 -33 -125 -3
-66 -1 -82 19 -117 13 -21 42 -53 66 -69 54 -38 149 -47 236 -22 l57 17 67
-59 c37 -33 144 -138 237 -233 198 -201 287 -325 385 -534 34 -72 73 -154 87
-184 l26 -54 -12 -301 c-6 -166 -18 -380 -26 -476 -17 -196 -53 -511 -59 -517
-2 -2 -7 24 -11 59 -17 159 -66 331 -130 458 -40 79 -159 247 -248 351 -78 91
-337 326 -379 343 -61 26 -112 -8 -112 -72 2 -192 27 -876 35 -942 43 -355
162 -647 331 -811 76 -74 228 -165 323 -194 37 -12 40 -15 37 -46 -4 -48 -84
-364 -147 -579 -198 -680 -535 -1483 -888 -2115 -91 -164 -279 -480 -295 -497
-4 -4 -8 66 -8 155 -2 255 -33 375 -167 647 -56 113 -65 126 -95 134 -27 7
-38 5 -60 -11 -22 -17 -31 -38 -53 -139 -15 -65 -48 -177 -74 -249 -150 -417
-161 -465 -153 -648 4 -89 11 -129 35 -197 36 -105 92 -192 144 -223 l38 -23
-100 -125 c-205 -254 -425 -502 -664 -748 -123 -127 -434 -421 -445 -421 -3 0
15 84 41 187 25 104 66 284 90 402 l43 213 37 24 c68 42 114 123 125 218 25
211 -196 336 -379 215 -59 -39 -93 -91 -113 -172 -15 -58 -15 -76 -4 -125 16
-74 74 -135 144 -154 42 -11 46 -15 42 -38 -87 -426 -166 -760 -188 -787 -23
-29 -99 59 -223 261 l-76 125 16 48 c14 41 15 56 4 106 -14 70 -58 133 -104
153 -45 18 -126 18 -173 -2 -56 -23 -91 -62 -108 -121 -35 -120 49 -234 184
-250 28 -3 54 -8 59 -12 5 -3 48 -69 94 -145 58 -96 108 -164 160 -219 l76
-79 -96 -45 c-157 -73 -433 -191 -631 -268 -210 -83 -576 -215 -596 -215 -7 0
9 36 38 88 87 150 215 422 258 548 79 235 136 530 116 607 -3 14 -18 39 -32
56 -22 27 -32 31 -75 31 -45 0 -71 -12 -292 -137 -315 -178 -535 -290 -787
-403 -405 -182 -818 -401 -1004 -534 -95 -68 -266 -234 -336 -328 -90 -119
-135 -227 -155 -370 -7 -55 7 -51 -235 -69 -170 -12 -920 -25 -920 -15 0 3 24
39 53 79 30 39 70 98 90 130 123 193 269 571 322 836 19 93 10 141 -31 168
-45 29 -79 11 -198 -105 -144 -140 -255 -232 -451 -372 -267 -190 -389 -286
-464 -366 -80 -84 -160 -199 -187 -270 l-18 -46 -60 6 c-284 32 -651 89 -961
151 -289 58 -406 86 -403 96 5 13 248 167 408 259 80 46 179 104 221 130 69
44 77 47 100 34 135 -73 310 59 283 214 -10 60 -50 119 -100 148 -38 22 -54
26 -99 22 -68 -6 -138 -47 -179 -106 -25 -35 -30 -53 -31 -102 -1 -72 14 -59
-240 -205 -93 -54 -257 -154 -363 -223 -186 -120 -195 -124 -235 -119 -41 6
-522 141 -601 169 l-39 14 70 42 c187 110 376 282 511 465 174 233 329 503
373 649 18 58 19 73 9 99 -16 37 -46 59 -82 59 -15 0 -152 -31 -305 -69 -153
-38 -393 -92 -533 -121 -397 -80 -576 -129 -775 -210 -233 -95 -454 -249 -551
-385 l-22 -29 -133 63 c-839 398 -1575 917 -2178 1535 -73 76 -131 139 -129
141 2 3 36 -4 74 -16 218 -63 442 -64 709 -3 61 14 205 45 320 68 256 53 287
61 316 85 l22 18 -39 59 c-21 32 -43 64 -49 70 -16 17 -470 247 -606 307 -292
129 -522 177 -844 177 -160 0 -420 -32 -445 -55 -16 -14 -25 -3 -127 152 -106
161 -274 439 -288 476 -8 20 18 22 135 7 41 -6 159 -17 262 -25 l186 -15 34
-34 c62 -62 160 -70 245 -21 88 52 117 168 61 252 -86 131 -320 106 -371 -40
-5 -12 -14 -16 -29 -13 -13 3 -66 7 -118 11 -110 6 -393 36 -399 41 -8 7 41
55 136 134 l93 77 72 -4 c63 -3 79 -1 113 19 157 92 118 349 -54 348 -114 -1
-214 -95 -215 -203 l0 -48 -85 -68 c-47 -38 -108 -92 -136 -120 -27 -28 -53
-51 -58 -51 -11 0 -153 296 -241 502 -68 158 -227 571 -222 576 2 1 36 -13 77
-32 99 -46 207 -73 359 -92 270 -32 483 -61 695 -96 226 -36 294 -26 319 45
15 42 -10 78 -119 169 -107 90 -196 198 -287 347 -28 48 -89 144 -135 214
-241 366 -612 590 -911 547 -111 -16 -193 -46 -251 -96 -36 -30 -31 -40 -66
121 -70 315 -122 645 -149 950 -9 94 -18 191 -20 218 -3 26 -3 47 1 47 3 0 55
-31 117 -69 61 -38 176 -107 256 -154 l145 -85 -3 -52 c-5 -64 10 -100 59
-144 65 -59 156 -71 217 -27 75 53 112 205 66 268 -48 65 -138 97 -209 73 -35
-12 -38 -10 -188 78 -234 139 -416 254 -449 285 l-30 27 5 423 c5 423 15 589
58 957 53 463 140 950 246 1389 l28 114 37 -56 c52 -78 140 -179 303 -347 77
-80 169 -177 203 -216 70 -81 118 -110 159 -97 54 18 62 43 73 238 6 99 19
272 30 385 27 286 27 302 18 416 -18 234 -130 470 -282 596 -61 51 -185 118
-218 118 -10 0 -18 2 -18 5 0 11 127 361 189 523 447 1155 1025 2130 1756
2960 118 134 356 385 360 380 2 -2 -14 -55 -36 -118 -60 -180 -74 -274 -73
-500 0 -178 2 -203 26 -290 28 -105 72 -221 121 -320 26 -54 38 -67 64 -74 45
-12 80 12 88 61 24 139 83 375 122 482 127 353 163 506 163 687 0 152 -41 303
-105 391 -16 21 -12 24 142 153 396 332 869 658 1298 895 233 129 719 364 731
353 4 -5 -156 -227 -300 -417 -231 -305 -207 -278 -253 -283 -57 -7 -127 -51
-163 -100 -78 -107 -57 -237 45 -295 51 -29 142 -31 201 -4 110 50 167 207
113 312 l-20 41 56 71 c31 40 104 137 163 216 297 400 345 461 408 522 63 61
78 70 170 102 227 80 569 172 840 226 238 48 772 119 819 109 9 -1 -41 -29
-112 -60 -155 -70 -314 -163 -437 -257 -270 -205 -555 -596 -655 -898 -47
-142 -48 -157 -13 -193 17 -16 38 -30 47 -30 22 0 70 25 140 75 113 79 263
164 576 326 625 321 771 419 934 622 100 124 195 336 195 436 l0 24 428 -6
c235 -3 495 -10 577 -16z m-4235 -252 c-8 -5 -100 -61 -205 -125 -530 -323
-1113 -744 -1570 -1134 -398 -339 -847 -795 -1205 -1220 -467 -556 -947 -1251
-1295 -1875 -590 -1058 -1025 -2363 -1194 -3585 -113 -819 -145 -1938 -75
-2690 33 -361 103 -829 174 -1160 17 -80 33 -156 36 -170 l4 -25 -11 25 c-21
49 -121 399 -174 610 -145 580 -221 1069 -276 1775 -17 221 -23 1020 -10 1255
69 1225 326 2361 788 3475 310 750 825 1548 1500 2324 163 188 686 711 874
874 653 568 1293 1001 2024 1369 310 157 703 333 615 277z m9085 -896 c187
-124 447 -316 620 -458 356 -292 787 -727 1079 -1088 67 -83 79 -104 84 -145
l5 -47 -103 125 c-195 235 -343 395 -614 665 -409 408 -728 679 -1176 1000
-186 133 -142 111 105 -52z m278 -416 c820 -663 1566 -1524 2120 -2447 686
-1145 1137 -2453 1301 -3772 64 -515 81 -835 72 -1403 -8 -553 -19 -660 -28
-295 -19 684 -115 1345 -314 2140 -238 953 -502 1672 -931 2530 -513 1028
-1071 1889 -1723 2659 -173 205 -311 353 -530 570 -209 208 -205 211 33 18z
m2339 -2514 c278 -488 512 -958 688 -1383 432 -1044 729 -2239 826 -3330 21
-238 30 -891 15 -1145 -29 -496 -85 -933 -181 -1415 -57 -282 -74 -350 -123
-475 -34 -87 -44 -129 -68 -285 -14 -93 -63 -267 -144 -515 -300 -911 -695
-1625 -1300 -2350 -113 -135 -353 -405 -360 -405 -2 0 38 58 90 129 107 146
311 454 404 608 439 731 768 1575 1001 2563 32 135 92 378 133 540 173 678
269 1300 307 2005 13 237 13 782 0 1020 -76 1391 -419 2703 -1026 3917 -112
225 -214 413 -326 601 -32 55 -58 101 -58 103 0 23 32 -25 122 -183z m-17585
-3805 c-3 -8 -6 -5 -6 6 -1 11 2 17 5 13 3 -3 4 -12 1 -19z m-26 -264 c-36
-381 -44 -613 -38 -1088 6 -432 17 -659 52 -1001 120 -1185 446 -2317 965
-3356 60 -118 134 -274 165 -345 137 -308 328 -681 495 -963 33 -56 56 -100
51 -97 -15 9 -241 350 -343 516 -327 532 -591 1071 -814 1663 -36 94 -72 195
-80 222 -7 28 -34 109 -59 180 -57 160 -121 380 -185 630 -161 629 -258 1289
-291 1980 -13 263 -7 843 11 1090 20 286 76 792 86 782 2 -2 -5 -98 -15 -213z
m17748 -5635 c-325 -723 -782 -1423 -1325 -2029 -164 -183 -253 -264 -404
-366 -74 -50 -142 -94 -150 -99 -8 -5 66 75 165 176 673 690 1245 1471 1687
2305 39 74 73 133 75 131 2 -2 -20 -55 -48 -118z m-15609 -1585 c353 -428 814
-890 1230 -1235 568 -469 1177 -857 1955 -1245 171 -84 306 -154 302 -154 -14
0 -326 130 -517 215 -699 312 -1265 654 -1745 1055 -477 397 -982 953 -1309
1440 -87 129 -79 122 84 -76z m13270 -1373 c0 -11 -224 -180 -377 -284 -129
-89 -223 -149 -223 -144 0 3 44 37 98 77 53 41 160 124 238 186 186 149 264
197 264 165z m-9740 -1271 c8 -5 11 -10 5 -10 -5 0 -17 5 -25 10 -8 5 -10 10
-5 10 6 0 17 -5 25 -10z m-80 -130 c8 -5 11 -10 5 -10 -5 0 -17 5 -25 10 -8 5
-10 10 -5 10 6 0 17 -5 25 -10z m285 -105 c567 -205 1158 -366 1746 -474 512
-95 837 -127 1433 -141 226 -6 412 -13 415 -16 12 -13 -816 5 -999 20 -740 64
-1366 185 -2039 396 -249 78 -757 267 -810 301 -21 14 -22 14 254 -86z"/>
<path d="M8500 19573 c-245 -39 -404 -102 -571 -228 -372 -279 -474 -697 -280
-1144 60 -140 148 -280 319 -505 236 -312 718 -966 826 -1121 54 -77 140 -207
191 -290 95 -153 275 -465 275 -476 0 -4 -40 -32 -88 -62 -121 -77 -366 -253
-485 -348 -54 -44 -100 -79 -104 -79 -3 0 -45 37 -92 83 -188 181 -410 292
-634 316 -168 19 -330 -10 -457 -82 -74 -41 -225 -194 -289 -292 -70 -108
-143 -259 -180 -375 -153 -479 -73 -1044 209 -1467 170 -254 430 -505 675
-648 307 -181 705 -268 1070 -236 400 36 689 164 945 421 137 136 216 248 305
432 157 323 208 613 174 978 -33 359 -152 736 -380 1197 -60 122 -109 227
-109 233 0 9 251 136 303 154 16 5 17 0 10 -62 -5 -37 -7 -139 -7 -227 1 -129
6 -176 23 -240 27 -102 79 -209 131 -268 84 -95 244 -146 421 -133 255 17 417
141 600 458 33 57 62 101 65 98 3 -3 5 -86 5 -185 -2 -198 9 -311 40 -425 71
-263 240 -400 494 -400 243 0 373 106 509 416 78 177 174 474 336 1029 98 340
101 348 107 341 3 -2 11 -67 19 -143 38 -363 128 -878 198 -1125 132 -468 270
-692 474 -768 89 -33 205 -46 304 -32 304 42 529 330 743 952 62 183 133 440
165 600 12 57 22 105 23 106 1 1 100 -1 220 -4 l217 -5 0 -96 c1 -329 128
-718 310 -944 118 -148 288 -268 455 -324 72 -24 95 -27 225 -27 138 0 150 1
240 33 356 122 704 450 1001 943 101 168 291 546 287 573 -7 48 -144 73 -225
40 -34 -14 -50 -35 -148 -197 -321 -531 -548 -807 -854 -1036 -96 -72 -238
-152 -271 -152 -29 0 -138 88 -196 158 -158 191 -266 552 -281 938 -5 132 -4
163 8 170 8 5 64 25 125 46 328 107 564 289 672 515 32 69 37 88 40 173 5 114
-12 189 -68 306 -49 101 -123 185 -193 217 -152 72 -365 60 -526 -29 -83 -46
-217 -180 -289 -289 -75 -113 -165 -299 -211 -440 -39 -117 -81 -298 -81 -348
0 -45 -19 -51 -153 -44 -67 4 -156 15 -197 25 l-75 18 5 109 c21 465 -27 780
-140 909 -86 98 -269 128 -430 71 -223 -79 -402 -383 -362 -616 40 -233 272
-475 568 -591 58 -23 84 -38 84 -49 0 -29 -39 -209 -75 -344 -92 -349 -235
-693 -377 -904 -57 -84 -170 -205 -228 -246 -38 -27 -41 -27 -59 -11 -58 52
-154 311 -235 631 -116 461 -281 1309 -351 1805 -28 200 -48 249 -112 276 -42
18 -154 18 -198 0 -36 -16 -45 -37 -94 -231 -23 -90 -135 -474 -213 -725 -116
-376 -306 -876 -420 -1105 -74 -149 -184 -318 -211 -323 -18 -4 -40 58 -59
168 -14 83 -14 409 1 570 45 484 134 1019 237 1435 56 221 58 249 21 281 -34
29 -87 44 -157 44 -73 0 -122 -15 -162 -48 -34 -29 -117 -194 -178 -352 -17
-47 -34 -87 -36 -89 -2 -2 -27 15 -57 37 -109 84 -224 121 -407 129 -399 17
-674 -156 -869 -549 -28 -57 -67 -148 -86 -203 -34 -100 -35 -100 -77 -113
-82 -26 -292 -105 -354 -132 -75 -34 -60 -46 -169 135 -177 293 -316 489 -900
1270 -381 508 -420 564 -487 700 -144 289 -157 555 -38 783 102 196 290 347
466 374 54 8 91 7 174 -5 243 -36 462 -139 673 -316 173 -145 339 -385 452
-656 86 -205 129 -379 170 -685 31 -234 41 -276 68 -295 31 -22 103 -19 126 4
73 73 94 574 37 847 -73 345 -232 652 -450 869 -256 255 -571 404 -965 459
-101 15 -373 20 -441 9z m5979 -2476 c35 -85 66 -203 80 -307 25 -184 24 -410
-1 -410 -5 0 -51 42 -102 93 -146 145 -200 277 -176 430 12 83 62 196 110 250
40 46 48 41 89 -56z m1725 46 c68 -87 116 -211 116 -301 0 -135 -107 -295
-273 -405 -56 -38 -195 -109 -234 -121 -29 -9 -29 1 -3 130 42 205 117 420
194 557 54 98 123 187 145 187 10 0 35 -21 55 -47z m-4919 -239 c33 -8 80 -27
105 -41 60 -35 170 -142 170 -165 0 -22 -147 -319 -276 -554 -200 -368 -349
-598 -463 -713 -87 -88 -88 -88 -117 41 -22 101 -25 382 -5 523 60 414 233
803 396 887 75 39 110 43 190 22z m-1890 -1364 c81 -161 205 -495 260 -699 54
-207 69 -328 69 -576 1 -258 -11 -338 -80 -536 -128 -374 -344 -647 -619 -785
-121 -60 -208 -77 -355 -71 -193 8 -366 72 -575 212 -551 368 -854 959 -805
1567 20 242 96 467 226 665 50 76 159 184 208 207 34 16 44 17 80 6 144 -43
334 -189 461 -354 30 -40 55 -75 55 -78 0 -4 -78 -84 -173 -180 -95 -95 -203
-211 -240 -258 -198 -247 -231 -524 -82 -689 44 -48 152 -105 232 -121 89 -19
293 -8 372 20 238 85 428 347 463 640 18 157 -20 334 -111 507 l-41 77 28 29
c81 86 562 467 589 467 7 0 24 -22 38 -50z m-912 -789 c58 -241 -25 -512 -208
-679 -31 -29 -62 -52 -69 -52 -23 0 -66 41 -89 83 -17 34 -22 59 -22 127 0
107 28 193 95 293 57 84 246 297 264 297 7 0 20 -29 29 -69z"/>
<path d="M11426 14077 c-17 -13 -19 -31 -17 -238 2 -279 -30 -626 -82 -884
l-12 -60 -75 5 c-153 10 -444 5 -515 -9 -206 -41 -409 -141 -451 -223 -30 -58
6 -88 106 -88 49 0 72 7 137 40 163 83 328 104 593 75 85 -9 157 -19 159 -21
5 -5 4 -12 -103 -534 -104 -511 -129 -680 -130 -905 -1 -330 62 -546 195 -670
86 -79 142 -98 309 -103 155 -4 221 8 329 63 142 71 299 220 472 447 l93 122
14 -49 c51 -192 74 -234 140 -267 92 -44 292 -23 323 34 6 12 24 73 40 136 95
383 355 989 553 1287 74 110 219 269 240 262 6 -2 17 -32 25 -68 16 -79 6
-210 -38 -469 -91 -533 -93 -766 -6 -948 69 -146 229 -269 415 -319 97 -27
357 -24 460 4 129 36 231 80 328 143 51 33 96 60 100 60 4 -1 36 -23 72 -51
88 -67 206 -124 315 -150 76 -18 111 -20 225 -17 119 4 147 9 233 38 180 61
357 177 522 344 274 277 415 621 501 1219 16 112 17 129 3 142 -31 31 -147 37
-211 11 -22 -10 -31 -36 -73 -206 -121 -488 -222 -724 -410 -957 -128 -160
-329 -319 -486 -385 -83 -35 -110 -32 -192 22 -56 38 -185 173 -211 222 l-20
36 27 34 c14 18 53 67 87 108 179 222 333 504 392 721 19 70 23 108 23 234 0
165 -13 230 -65 341 -82 172 -250 255 -459 227 -232 -30 -387 -200 -510 -556
-143 -415 -142 -780 3 -1069 l44 -87 -41 -38 c-157 -145 -365 -242 -457 -214
-78 23 -168 129 -206 241 -28 82 -26 478 4 759 54 501 11 677 -188 770 -48 22
-68 26 -155 26 -92 0 -105 -3 -169 -33 -182 -86 -375 -362 -683 -976 -58 -117
-108 -205 -113 -200 -5 5 -14 62 -21 126 l-13 116 53 113 c169 360 314 809
356 1104 19 131 22 431 5 555 -6 47 -24 135 -40 197 -51 198 -115 324 -186
365 -74 43 -202 44 -292 1 -168 -79 -299 -421 -362 -948 -11 -93 -24 -195 -28
-225 l-7 -55 -70 3 c-131 5 -440 34 -450 43 -7 5 -8 36 -3 91 15 149 11 493
-6 613 -38 263 -123 476 -206 517 -42 21 -109 23 -134 5z m1484 -324 c127
-305 131 -681 10 -1125 -43 -159 -157 -478 -170 -478 -26 0 -35 805 -12 1045
36 367 97 662 131 641 5 -3 24 -41 41 -83z m2538 -1147 c80 -120 99 -316 48
-511 -31 -119 -116 -296 -211 -440 -74 -111 -101 -143 -112 -131 -15 15 -8
376 10 492 23 146 79 374 117 472 35 92 86 175 103 170 6 -2 27 -26 45 -52z
m-3380 17 l222 -6 0 -171 c0 -240 34 -658 75 -926 17 -112 22 -101 -126 -300
-88 -119 -138 -181 -253 -313 -111 -128 -337 -290 -380 -274 -41 16 -81 150
-97 330 -19 201 7 453 97 937 18 102 55 304 80 450 26 146 48 271 50 279 3 10
17 12 57 7 28 -3 152 -9 275 -13z"/>
<path d="M8201 11650 c-287 -40 -508 -208 -778 -590 -279 -396 -416 -762 -417
-1120 -1 -166 18 -249 76 -336 117 -173 409 -225 636 -113 161 79 300 237 331
377 11 53 -4 72 -56 72 -33 0 -45 -9 -132 -101 -111 -118 -187 -179 -280 -226
-87 -43 -110 -43 -154 6 -54 60 -62 96 -62 271 0 125 4 175 23 258 62 278 189
542 401 833 176 241 323 389 447 450 79 39 106 34 178 -32 96 -88 180 -283
230 -536 49 -250 80 -526 97 -867 l11 -225 -60 -108 c-223 -402 -458 -969
-586 -1414 -176 -615 -220 -1319 -112 -1774 67 -278 162 -442 294 -503 52 -25
68 -27 182 -27 117 0 129 2 188 29 148 69 247 251 347 641 167 651 265 1626
265 2641 0 210 -5 462 -11 559 l-10 178 34 51 c91 137 251 316 367 411 153
125 348 207 495 209 69 1 88 -3 137 -27 302 -148 560 -767 653 -1562 22 -190
37 -541 30 -686 l-7 -126 -136 -89 c-322 -210 -734 -542 -1036 -834 -440 -425
-614 -764 -593 -1150 8 -133 28 -211 83 -327 99 -207 272 -359 484 -425 66
-20 95 -23 240 -23 186 0 243 11 369 71 305 144 540 479 806 1149 188 473 275
860 315 1400 5 77 10 175 10 218 l0 78 56 25 c117 51 245 66 228 25 -96 -234
-126 -368 -127 -576 -1 -220 36 -338 137 -434 71 -66 143 -92 272 -99 176 -8
284 38 435 188 104 104 192 228 284 402 60 114 78 137 70 91 -28 -163 -49
-517 -40 -673 16 -266 62 -378 182 -436 49 -25 73 -29 159 -32 168 -7 255 30
354 149 92 111 210 333 330 620 29 68 55 127 59 131 3 4 6 -111 6 -255 1 -234
3 -272 23 -357 68 -293 228 -419 533 -420 273 0 494 123 860 478 l138 133 52
-77 c97 -144 255 -291 379 -354 112 -56 188 -72 323 -68 112 3 128 6 188 34
37 18 86 52 115 81 223 223 494 778 608 1246 34 139 66 333 66 402 0 48 -35
70 -111 69 -94 -1 -102 -11 -139 -171 -85 -365 -233 -736 -425 -1068 -104
-179 -238 -361 -301 -409 -24 -18 -25 -18 -64 9 -89 62 -184 188 -256 339 -47
100 -114 290 -117 333 -1 21 22 60 85 148 178 247 369 593 452 817 63 171 87
280 93 423 9 233 -43 366 -171 433 -48 25 -59 27 -176 27 -117 0 -129 -2 -183
-29 -165 -81 -344 -339 -465 -671 -133 -364 -179 -770 -122 -1057 l23 -117
-29 -38 c-52 -69 -347 -357 -455 -446 -122 -99 -297 -219 -313 -214 -28 8 -67
128 -88 276 -17 111 -16 610 1 831 20 267 59 618 96 865 41 270 70 444 76 449
2 2 87 -7 189 -20 460 -57 699 -51 841 21 57 30 62 74 11 94 -55 21 -101 23
-183 6 -71 -15 -98 -15 -193 -6 -140 15 -584 81 -612 92 l-21 7 34 174 c62
319 60 305 36 330 -15 15 -38 23 -76 26 -75 6 -123 -12 -152 -56 -26 -40 -86
-189 -129 -317 -38 -116 -28 -109 -137 -88 -72 13 -147 17 -324 18 -221 0
-234 -1 -328 -27 -138 -39 -239 -83 -288 -127 -48 -42 -48 -64 -2 -82 32 -12
64 -6 181 36 118 42 266 60 388 46 86 -10 404 -67 411 -74 12 -13 -141 -406
-400 -1028 -278 -667 -527 -1189 -568 -1189 -7 0 -9 53 -4 173 12 345 40 664
90 1042 36 267 65 523 65 567 0 84 -45 118 -155 118 -92 0 -120 -17 -155 -93
-15 -34 -33 -79 -39 -99 -7 -21 -16 -38 -21 -38 -4 0 -34 16 -66 35 -93 56
-171 77 -311 83 -142 5 -225 -7 -335 -49 -149 -58 -316 -190 -430 -339 l-50
-65 -146 0 c-81 -1 -163 -4 -183 -9 l-36 -8 -6 164 c-30 800 -285 1575 -633
1924 -104 105 -248 189 -399 235 -98 30 -352 38 -481 15 -257 -44 -493 -162
-679 -338 -48 -45 -89 -77 -94 -72 -4 5 -13 47 -20 94 -40 276 -118 576 -186
710 -106 212 -253 340 -449 390 -89 22 -265 32 -355 20z m7903 -2354 c10 -21
23 -73 29 -115 20 -150 -31 -348 -153 -596 -64 -129 -202 -362 -230 -389 -10
-9 -11 13 -7 99 15 275 113 668 220 880 46 93 96 167 110 163 7 -2 20 -21 31
-42z m-7364 -481 c-32 -885 -163 -2030 -286 -2495 -14 -52 -29 -99 -34 -104
-23 -23 -128 203 -170 370 -43 169 -55 278 -54 494 1 376 78 809 215 1215 96
282 314 804 330 788 4 -4 4 -125 -1 -268z m4111 -10 c67 -34 129 -82 129 -101
0 -16 -59 -125 -233 -429 -199 -349 -274 -464 -381 -589 -57 -66 -175 -168
-187 -161 -19 12 -32 149 -26 282 14 363 136 683 342 901 89 95 167 136 246
129 32 -3 78 -16 110 -32z m-1911 -854 c0 -46 -43 -356 -66 -476 -72 -371
-208 -780 -402 -1200 -145 -316 -320 -558 -454 -629 -34 -19 -38 -19 -80 -3
-113 44 -257 190 -323 328 -84 177 -88 408 -10 614 40 106 120 252 192 350 87
117 450 480 668 667 184 157 450 368 466 368 5 0 9 -9 9 -19z"/>
</g>
</svg>
