<?xml version="1.0" encoding="utf-8"?>
<!-- Generator: Adobe Illustrator 25.2.0, SVG Export Plug-In . SVG Version: 6.00 Build 0)  -->
<svg version="1.1" id="Layer_1" xmlns="http://www.w3.org/2000/svg" xmlns:xlink="http://www.w3.org/1999/xlink" x="0px" y="0px"
	 viewBox="0 0 2200 2200" style="enable-background:new 0 0 2200 2200;" xml:space="preserve">
<g>
	<path d="M478.91,1430.75c7.53-10.48,16.13-20.17,16.13-34.42c0-13.18-6.18-23.13-18.83-29.85c-9.95-5.38-22.05-8.07-36.3-8.07
		c-1.34,0-4.84,0-10.48-0.27c-5.65-0.27-10.22-0.27-14.25-0.27c-34.96,0-52.71,6.19-53.25,18.29c-0.27,4.57,0.81,8.07,2.69,10.22
		l9.41,8.07l1.08,0.54c4.03,6.99,6.45,16.94,6.18,30.12c0,10.48-1.61,23.13-4.84,38.18c-2.69,12.37-5.64,24.74-8.34,37.38
		c-1.61,8.34-5.38,15.06-11.29,20.17c-5.11,4.57-7.8,9.95-7.8,15.87c0,1.34,0,2.96,0.27,4.84c1.07,10.22,13.18,16.67,36.57,19.63
		c7.26,0.81,23.13,1.34,47.33,1.34c59.43,0,89.28-22.05,89.28-66.15c0-18.02-5.11-33.08-15.6-45.72
		C499.08,1440.97,489.67,1434.24,478.91,1430.75z M427.82,1395.52c0-6.99,2.42-10.49,6.99-10.49c7.8,0,13.71,8.34,13.71,16.67
		c0,13.45-4.57,20.17-13.99,20.17c-2.42,0-4.03-3.76-5.38-11.02C428.36,1405.74,427.82,1400.63,427.82,1395.52z M441.53,1493.41
		c-7.26,0-9.95-6.19-9.41-18.29l1.08-20.17c0.27-3.76,2.69-5.65,7.8-5.65c11.57,0,17.21,7.53,17.21,22.86
		C458.2,1486.42,452.56,1493.41,441.53,1493.41z M617.69,1356.26c-27.43,0-49.21,12.64-65.35,37.65
		c-13.98,21.78-20.97,47.06-20.97,76.1c0,26.36,6.99,48.67,20.71,66.96c15.33,20.17,35.76,30.12,61.31,30.12
		c22.86,0,42.22-7.26,58.35-21.51c16.94-15.33,25.55-34.15,25.55-56.74c0-33.08-5.92-61.85-18.02-86.86
		C664.76,1371.59,644.32,1356.26,617.69,1356.26z M619.85,1475.39c-10.49,0-18.29-6.99-23.67-21.24
		c-4.03-10.49-5.92-22.05-5.92-34.15c0-7.26,1.08-13.98,3.5-20.17c2.96-8.34,7.26-12.37,12.91-12.37c9.41,0,17.48,8.87,23.93,26.9
		c5.11,14.25,7.8,27.43,7.8,39.26C638.4,1468.13,632.22,1475.39,619.85,1475.39z M902.77,1377.51c0,10.48-8.6,10.76-11.83,18.28
		l-6.45,11.57c-3.76,6.45-4.84,13.98-4.84,22.32c0-0.27,0,0.81,0,3.5c0.27,9.95,3.23,24.74,8.34,44.64
		c4.84,19.09,7.26,33.88,7.26,44.37c0,13.99-1.07,23.67-3.49,29.04c-3.77,8.34-11.57,12.64-23.4,12.64
		c-13.18,0-25.01-8.61-35.5-25.55c-2.69-4.57-9.95-20.17-22.05-47.33c-7.53-16.94-14.25-25.55-20.44-25.55
		c-1.88,0-2.96,1.61-2.96,4.57c0,4.57,1.34,12.64,4.84,24.74c3.22,11.83,5.92,19.09,7.8,21.51l6.18,7.53
		c2.42,2.96,4.31,5.92,4.84,8.87c0.54,3.5,0.8,6.72,0.8,9.68c0,7.8-2.96,13.45-8.61,16.67c-4.57,2.42-12.9,4.31-25.01,4.57
		c-5.64,1.08-17.75,1.08-36.3,1.08c-7.26,0-14.52-1.34-22.05-4.3c-6.72-2.42-11.03-5.65-13.18-9.95c-1.88-2.96-2.96-6.72-2.96-10.76
		v-5.11c0-2.42,1.08-4.84,3.5-7.26l6.18-6.19c5.38-20.44,9.15-39.53,11.57-57.01c1.88-14.25,3.22-27.16,4.03-38.72
		c1.08-16.94-1.34-27.97-7.26-32.81c-1.61-0.81-3.76-2.15-6.72-4.03c-2.15-2.15-3.23-5.11-3.23-9.14c0-7.26,4.57-12.91,13.99-16.41
		c7.53-2.96,16.94-4.57,28.51-4.3c19.63,0.27,32,3.22,37.65,8.34c8.34,5.64,16.14,18.83,22.86,39.8
		c7.53,22.59,14.79,37.38,22.05,44.37c1.88,1.61,3.76,2.15,5.92,1.34c2.15-2.69,3.23-6.72,3.23-11.83c0-1.88-0.27-5.11-0.81-9.14
		v-1.35l-0.27-0.54c-0.54-4.3-1.08-8.87-1.88-13.71c-2.96-9.95-8.07-17.75-14.79-23.39c-1.61-0.81-3.77-2.15-6.73-4.03
		c-1.88-2.15-2.96-5.11-2.96-9.14c0-7.26,4.57-12.91,13.99-16.41c7.53-2.96,16.94-4.57,28.51-4.3c15.87,0.27,26.89,2.15,33.62,5.64
		C900.08,1367.28,902.77,1371.59,902.77,1377.51z M1050.16,1385.03c-17.48-14.79-43.83-23.13-78.79-25.55
		c-7.53-0.54-12.37-0.81-14.79-0.81c-11.29-0.27-20.71,1.34-28.51,4.3c-9.41,3.5-13.99,9.14-13.99,16.41c0,4.03,1.08,6.99,3.22,9.14
		c2.96,1.88,5.11,3.23,6.73,4.03c4.84,4.03,7.26,15.06,7.26,33.08c0.27,40.88-2.69,69.91-8.6,86.86c-1.61,4.57-4.84,9.41-9.95,14.79
		c-3.77,4.03-6.19,10.49-6.99,18.83c-0.54,4.03,0.8,7.26,4.03,9.14c1.61,1.08,5.92,2.69,12.64,4.84c6.92,2.22,18.21,3.53,33.76,3.94
		c-5.45-0.17,7.49-0.17,39.11-0.17c27.7,0,49.48-9.15,64.81-27.43c14.25-16.94,21.51-39.8,21.51-68.3
		C1081.62,1430.48,1071.14,1402.78,1050.16,1385.03z M1017.89,1470.01c-4.57,10.49-11.29,15.87-20.71,15.87
		c-8.07,0-12.37-7.53-12.64-22.32c-0.27-7.26-0.54-27.16-0.54-59.16c1.34-6.45,2.96-11.57,6.99-14.52c1.34-1.34,2.69-2.15,3.5-2.69
		c10.76,0.54,18.55,7.53,23.39,20.97c3.5,9.15,5.11,20.44,5.11,33.88C1023,1453.07,1021.39,1462.21,1017.89,1470.01z
		 M956.19,1564.03c0.9,0.03,2.25,0.06,4.15,0.1C958.91,1564.11,957.56,1564.07,956.19,1564.03z M1268.01,1394.18
		c0,0-0.81,0.27-2.69,1.07l3.76,34.15l1.35,9.95c2.15,15.86,4.3,31.19,7.26,46.25c3.22,16.94,5.64,27.43,8.34,30.39
		c4.3,5.38,11.29,11.02,11.29,16.67c0,14.79-3.76,23.67-11.29,27.16c-5.65,2.69-20.98,4.03-45.99,4.03
		c-19.9,0-33.34-1.89-40.07-5.92c-6.72-4.03-9.95-11.83-9.95-23.4c0-2.69,1.61-5.64,5.11-8.87c4.03-4.03,6.45-6.45,6.99-7.8
		c2.69-5.11,5.92-18.29,9.41-38.99c3.5-19.9,5.92-37.65,7.26-53.51c0.27-4.03,0.8-13.71,1.07-29.04c-2.69-1.08-4.03-1.61-4.03-1.61
		c-2.42,0-4.31,2.15-6.19,6.45c-2.42,6.19-4.84,10.22-6.72,12.1c-4.03,4.3-10.22,6.45-18.02,6.45c-6.72,0-11.02-2.15-12.9-6.45
		c-1.35-2.69-1.88-7.8-1.88-15.6c0-8.07,2.42-16.41,7.26-25.28c5.38-10.22,11.56-15.33,18.55-15.33c2.42,0,6.18,0.81,11.29,2.15
		c5.11,1.34,8.87,1.88,11.29,1.88c30.12,0,50.29-0.54,60.51-1.34c1.88-0.27,5.65-2.96,8.07-2.96c7.53,0,13.98,4.84,19.36,14.79
		c4.57,8.34,6.99,16.94,6.99,25.28c0,15.33-5.64,22.86-17.21,22.86c-6.45,0-11.83-4.31-15.87-12.64
		C1276.35,1398.48,1272.05,1394.18,1268.01,1394.18z M1505.75,1516.26c9.95,10.76,15.06,19.36,15.06,26.09
		c0,13.45-17.75,20.17-53.51,20.17c-16.94,0-26.9-0.27-30.39-1.08c-11.56-2.69-17.21-9.41-17.21-20.17c0-3.76,2.15-7.8,6.73-11.83
		c4.57-4.31,6.72-7.53,6.72-9.68c0-6.18-0.81-15.33-2.15-27.43c-1.34-12.1-2.15-21.51-2.15-27.7c0-8.6-1.88-12.1-10.49-12.1
		c-8.87,0-14.52,2.69-16.41,8.34c-1.07,2.42-1.61,9.41-1.61,20.71c0,16.41,0.54,26.09,1.34,29.31c0.8,2.42,3.22,6.19,7.8,11.03
		c4.03,4.03,5.92,7.8,5.92,10.76c0,12.91-3.5,21.78-10.22,26.35c-5.11,3.5-13.45,5.38-25.01,5.38c-2.15,0-5.65,0-10.76-0.27
		c-4.84-0.27-8.61-0.27-11.29-0.27c-16.94,0-28.51-1.08-34.15-3.23c-10.49-4.03-15.87-12.64-15.87-26.09c0-2.69,1.61-5.64,4.84-8.87
		c4.31-4.03,6.73-6.45,7.26-7.8c4.84-8.87,8.87-27.16,11.83-54.59c2.69-25.28,4.3-37.92,4.84-37.92l0.27-10.22
		c0.27-9.41-1.08-16.13-4.03-20.17c-0.81-0.8-3.49-2.69-8.34-5.65c-2.96-1.88-4.57-5.11-4.57-9.95c0-7.8,5.11-13.45,15.06-16.94
		c6.99-2.42,15.33-3.76,25.28-3.76c29.31,0,44.1,6.18,44.1,18.83c0,3.76-2.42,8.06-7.26,12.64s-7.26,9.68-7.26,14.79
		c0,6.99,2.69,11.56,7.8,13.44c2.42,0.81,8.06,1.35,16.67,1.35c8.34,0,13.18-0.27,15.06-0.81c5.11-1.34,7.8-5.11,7.8-11.02
		c0-8.34-2.42-13.71-7.53-16.67c-4.84-2.69-7.26-6.73-7.26-11.83c0-7.8,4.84-13.45,14.79-16.94c7.26-2.42,15.6-3.76,25.28-3.76
		c29.31,0,44.1,6.18,44.1,18.83c0,2.42-1.34,5.38-4.3,8.87c-3.76,4.57-6.45,9.15-8.07,13.45c-2.96,7.53-4.3,17.21-4.3,29.31
		C1490.15,1453.07,1495.27,1482.11,1505.75,1516.26z M1723.06,1513.31c-4.03-3.22-6.72-6.45-8.07-9.41
		c-10.48-20.97-20.97-52.17-31.46-93.58c-2.69-10.49-4.84-17.48-6.72-20.98c-5.92-11.02-10.49-18.02-13.45-20.97
		c-6.72-6.45-16.4-10.22-29.04-11.56c-7.53-0.81-19.36,0.81-35.77,4.3c-19.09,4.3-28.77,9.41-28.77,15.33c0,1.08,1.08,2.69,3.5,4.84
		c2.96,2.69,4.84,5.38,6.18,7.8c2.42,4.57,3.5,9.95,3.5,16.67c0,17.21-3.76,37.38-11.03,60.51c-8.6,26.62-18.55,43.83-29.85,51.9
		c-9.68,6.73-14.25,15.6-14.25,26.62c0.27,12.37,12.37,18.56,37.11,18.56c16.4,0,27.97-0.81,34.15-2.69
		c12.91-3.5,19.36-11.56,19.36-23.93c0-3.23-1.61-6.73-5.11-10.49c-5.11-5.64-8.6-9.41-9.95-11.56c-3.49-5.92-5.11-12.91-5.11-20.98
		c0-11.02,3.22-18.55,9.95-22.59c5.11-0.81,7.53-1.34,7.53-1.34c6.99,0,13.45,1.08,19.36,3.5c7.8,2.96,11.83,7.53,11.83,13.18
		c0,16.67-4.03,29.04-12.1,37.11c-1.34,5.11-1.88,9.95-1.88,13.98c0,11.03,4.84,18.29,14.79,22.05c5.92,2.42,15.6,3.5,29.04,3.5
		s24.74-1.61,34.15-4.57c14.25-4.3,22.05-11.56,22.59-22.05c0.54-6.72-0.54-11.83-2.69-15.6
		C1729.52,1518.95,1727.1,1516.26,1723.06,1513.31z M1631.9,1437.2c-0.81-0.54-3.22-0.8-6.72-0.8c-2.15,0-8.6,0.8-10.76,0.8
		c-4.57,0-6.99-0.8-6.99-2.42c0-3.5,1.34-8.6,4.3-15.33c3.5-7.8,6.73-11.56,9.68-11.56c5.11,0,9.14,3.76,12.1,11.02
		c3.23,8.07,4.84,12.91,4.84,14.25C1638.35,1435.59,1636.21,1436.94,1631.9,1437.2z M1838.99,1394.18c0,0-0.81,0.27-2.69,1.07
		l3.76,34.15l1.35,9.95c2.15,15.86,4.3,31.19,7.26,46.25c3.22,16.94,5.64,27.43,8.34,30.39c4.3,5.38,11.29,11.02,11.29,16.67
		c0,14.79-3.76,23.67-11.29,27.16c-5.65,2.69-20.98,4.03-45.99,4.03c-19.9,0-33.34-1.89-40.07-5.92c-6.72-4.03-9.95-11.83-9.95-23.4
		c0-2.69,1.61-5.64,5.11-8.87c4.03-4.03,6.45-6.45,6.99-7.8c2.69-5.11,5.92-18.29,9.41-38.99c3.5-19.9,5.92-37.65,7.26-53.51
		c0.27-4.03,0.81-13.71,1.07-29.04c-2.69-1.08-4.03-1.61-4.03-1.61c-2.42,0-4.31,2.15-6.19,6.45c-2.42,6.19-4.84,10.22-6.72,12.1
		c-4.03,4.3-10.22,6.45-18.02,6.45c-6.72,0-11.02-2.15-12.9-6.45c-1.35-2.69-1.88-7.8-1.88-15.6c0-8.07,2.42-16.41,7.26-25.28
		c5.38-10.22,11.56-15.33,18.55-15.33c2.42,0,6.18,0.81,11.29,2.15c5.11,1.34,8.87,1.88,11.29,1.88c30.12,0,50.29-0.54,60.51-1.34
		c1.88-0.27,5.65-2.96,8.07-2.96c7.53,0,13.98,4.84,19.36,14.79c4.57,8.34,6.99,16.94,6.99,25.28c0,15.33-5.64,22.86-17.21,22.86
		c-6.45,0-11.83-4.31-15.87-12.64C1847.34,1398.48,1843.03,1394.18,1838.99,1394.18z"/>
	<path d="M287.88,1679.08c-7.29,8.88-10.78,18.71-10.78,29.5c0,29.5,11.1,44.09,33.3,44.09c5.39,0,14.28-3.49,26.01-10.79
		c12.05-7.29,19.98-11.1,23.79-11.1c2.22,0,4.12,0.95,5.71,2.54c7.61,9.2,11.42,26.33,11.42,51.38c0,21.89-7.29,39.01-21.57,50.75
		c-13.32,11.11-31.08,16.81-53.29,16.81c-28.86,0-53.61-11.42-73.59-34.57c-19.03-21.89-28.55-47.9-28.55-77.71
		c0-30.76,9.51-59,28.23-85.32c20.62-28.86,45.99-43.46,75.49-43.46c9.83,0,19.66,2.86,28.86,7.93c9.51,5.39,15.23,7.61,17.44,7.61
		c2.54,0,7.3-5.08,10.15-4.76c8.56,0.32,13.64,6.98,16.18,19.98c0.64,4.13,1.27,13.01,1.27,26.65c0,13-13.32,24.1-26.01,24.1
		c-6.02,0-11.74-4.76-16.49-14.27c-4.76-9.51-10.47-14.27-16.81-14.27C306.28,1664.18,295.82,1669.25,287.88,1679.08z
		 M625.97,1804.05c2.54,4.44,3.81,10.47,3.17,18.4c-0.63,12.37-9.83,20.93-26.64,26.01c-11.1,3.49-24.42,5.39-40.28,5.39
		c-15.86,0-27.28-1.27-34.26-4.12c-11.74-4.44-17.44-13.01-17.44-26.01c0-4.76,0.63-10.47,2.22-16.49
		c9.52-9.51,14.28-24.11,14.28-43.77c0-6.66-4.76-12.05-13.96-15.54c-6.98-2.85-14.59-4.12-22.84-4.12c0,0-2.86,0.64-8.88,1.59
		c-7.93,4.76-11.74,13.64-11.74,26.64c0,9.51,1.91,17.76,6.03,24.74c1.59,2.54,5.71,6.98,11.74,13.64
		c4.12,4.44,6.03,8.56,6.03,12.37c0,14.59-7.61,24.11-22.84,28.23c-7.29,2.22-20.93,3.17-40.28,3.17
		c-29.18,0-43.46-7.29-43.77-21.89c0-13,5.39-23.47,16.81-31.4c13.32-9.51,25.06-29.81,35.21-61.21
		c8.56-27.28,13.01-51.07,13.01-71.37c0-7.93-1.27-14.27-4.12-19.66c-1.59-2.86-3.81-6.03-7.3-9.2c-2.85-2.54-4.12-4.44-4.12-5.71
		c0-6.98,11.42-13.01,33.94-18.08c19.34-4.13,33.3-6.03,42.19-5.08c14.91,1.59,26.32,6.03,34.25,13.64
		c3.49,3.49,8.88,11.74,15.86,24.74c2.22,4.13,4.76,12.37,7.93,24.74c12.37,48.85,24.74,85.64,37.11,110.38
		c1.59,3.49,4.76,7.3,9.52,11.11C621.54,1798.66,624.39,1801.83,625.97,1804.05z M516.87,1700.65c0-1.59-1.91-7.3-5.71-16.81
		c-3.49-8.56-8.24-13.01-14.27-13.01c-3.49,0-7.29,4.44-11.42,13.64c-3.49,7.93-5.07,13.96-5.07,18.08c0,1.91,2.86,2.86,8.24,2.86
		c2.54,0,10.15-0.95,12.69-0.95c4.12,0,6.98,0.32,7.93,0.95C514.33,1705.09,516.87,1703.51,516.87,1700.65z M861.3,1619.45
		c-7.93-4.13-20.93-6.35-39.65-6.66c-13.64-0.32-24.74,1.59-33.62,5.08c-11.1,4.12-16.49,10.78-16.49,19.34
		c0,4.76,1.27,8.25,3.49,10.79c3.49,2.22,6.02,3.81,7.93,4.76c7.93,6.66,13.96,15.86,17.44,27.6c0.95,5.71,1.59,11.1,2.22,16.17
		l0.32,0.64v1.59c0.64,4.76,0.96,8.56,0.96,10.79c0,6.03-1.27,10.79-3.81,13.96c-2.54,0.95-4.76,0.32-6.98-1.59
		c-8.56-8.25-17.13-25.69-26.01-52.34c-7.93-24.74-17.13-40.28-26.96-46.94c-6.66-6.03-21.25-9.52-44.41-9.83
		c-13.64-0.32-24.74,1.59-33.62,5.08c-11.1,4.12-16.49,10.78-16.49,19.34c0,4.76,1.27,8.25,3.81,10.79
		c3.49,2.22,6.02,3.81,7.93,4.76c6.98,5.71,9.83,18.71,8.56,38.7c-0.95,13.64-2.54,28.86-4.76,45.67
		c-2.86,20.62-7.3,43.14-13.64,67.24l-7.29,7.3c-2.86,2.85-4.12,5.71-4.12,8.56v6.03c0,4.76,1.27,9.19,3.49,12.69
		c2.54,5.07,7.61,8.88,15.54,11.74c8.88,3.49,17.44,5.07,26.01,5.07c21.89,0,36.16,0,42.82-1.27c14.27-0.32,24.11-2.54,29.5-5.39
		c6.66-3.81,10.15-10.47,10.15-19.66c0-3.49-0.32-7.3-0.95-11.42c-0.64-3.49-2.86-6.98-5.71-10.47l-7.29-8.88
		c-2.22-2.86-5.39-11.42-9.2-25.37c-4.12-14.28-5.71-23.79-5.71-29.18c0-3.49,1.27-5.39,3.49-5.39c7.3,0,15.23,10.15,24.11,30.13
		c14.28,32.04,22.84,50.43,26.01,55.82c12.37,19.98,26.32,30.13,41.87,30.13c13.96,0,23.16-5.07,27.6-14.91
		c2.85-6.34,4.12-17.76,4.12-34.26c0-12.37-2.86-29.81-8.56-52.34c-6.03-23.47-9.51-40.91-9.83-52.65c0-3.17,0-4.44,0-4.13
		c0-9.83,1.27-18.71,5.71-26.32l7.61-13.64c3.81-8.88,13.96-9.2,13.96-21.57C870.81,1628.02,867.64,1622.94,861.3,1619.45z
		 M1100.74,1619.45c-7.93-4.13-20.93-6.35-39.65-6.66c-13.64-0.32-24.74,1.59-33.62,5.08c-11.1,4.12-16.49,10.78-16.49,19.34
		c0,4.76,1.27,8.25,3.49,10.79c3.49,2.22,6.02,3.81,7.93,4.76c7.93,6.66,13.96,15.86,17.44,27.6c0.95,5.71,1.59,11.1,2.22,16.17
		l0.32,0.64v1.59c0.64,4.76,0.96,8.56,0.96,10.79c0,6.03-1.27,10.79-3.81,13.96c-2.54,0.95-4.76,0.32-6.98-1.59
		c-8.56-8.25-17.13-25.69-26.01-52.34c-7.93-24.74-17.13-40.28-26.96-46.94c-6.66-6.03-21.25-9.52-44.41-9.83
		c-13.64-0.32-24.74,1.59-33.62,5.08c-11.1,4.12-16.49,10.78-16.49,19.34c0,4.76,1.27,8.25,3.81,10.79
		c3.49,2.22,6.02,3.81,7.93,4.76c6.98,5.71,9.83,18.71,8.56,38.7c-0.95,13.64-2.54,28.86-4.76,45.67
		c-2.86,20.62-7.3,43.14-13.64,67.24l-7.29,7.3c-2.86,2.85-4.12,5.71-4.12,8.56v6.03c0,4.76,1.27,9.19,3.49,12.69
		c2.54,5.07,7.61,8.88,15.54,11.74c8.88,3.49,17.44,5.07,26.01,5.07c21.89,0,36.16,0,42.82-1.27c14.27-0.32,24.11-2.54,29.5-5.39
		c6.66-3.81,10.15-10.47,10.15-19.66c0-3.49-0.32-7.3-0.95-11.42c-0.64-3.49-2.86-6.98-5.71-10.47l-7.29-8.88
		c-2.22-2.86-5.39-11.42-9.2-25.37c-4.12-14.28-5.71-23.79-5.71-29.18c0-3.49,1.27-5.39,3.49-5.39c7.3,0,15.23,10.15,24.11,30.13
		c14.28,32.04,22.84,50.43,26.01,55.82c12.37,19.98,26.32,30.13,41.87,30.13c13.96,0,23.16-5.07,27.6-14.91
		c2.85-6.34,4.12-17.76,4.12-34.26c0-12.37-2.86-29.81-8.56-52.34c-6.03-23.47-9.51-40.91-9.83-52.65c0-3.17,0-4.44,0-4.13
		c0-9.83,1.27-18.71,5.71-26.32l7.61-13.64c3.81-8.88,13.96-9.2,13.96-21.57C1110.26,1628.02,1107.09,1622.94,1100.74,1619.45z
		 M1295.78,1663.86c14.27,29.49,21.25,63.44,21.25,102.45c0,26.64-10.15,48.84-30.13,66.92c-19.03,16.81-41.87,25.38-68.83,25.38
		c-30.13,0-54.24-11.74-72.32-35.53c-16.18-21.57-24.42-47.89-24.42-78.98c0-34.26,8.24-64.07,24.74-89.76
		c19.03-29.49,44.73-44.41,77.08-44.41C1254.54,1609.94,1278.65,1628.02,1295.78,1663.86z M1247.57,1724.76
		c0-13.96-3.17-29.5-9.19-46.31c-7.61-21.25-17.13-31.72-28.23-31.72c-6.66,0-11.74,4.76-15.23,14.59
		c-2.86,7.3-4.12,15.23-4.12,23.79c0,14.27,2.22,27.91,6.98,40.28c6.34,16.81,15.54,25.06,27.91,25.06
		C1240.27,1750.45,1247.57,1741.88,1247.57,1724.76z M1464.5,1610.57c-2.86,0-7.3,3.17-9.51,3.49c-12.06,0.95-35.84,1.59-71.37,1.59
		c-2.85,0-7.29-0.64-13.32-2.22c-6.03-1.59-10.47-2.54-13.32-2.54c-8.24,0-15.54,6.02-21.89,18.08c-5.71,10.47-8.56,20.3-8.56,29.81
		c0,9.2,0.64,15.22,2.22,18.4c2.22,5.07,7.29,7.61,15.22,7.61c9.2,0,16.5-2.54,21.26-7.61c2.22-2.22,5.07-6.98,7.93-14.28
		c2.22-5.07,4.44-7.61,7.29-7.61c0,0,1.59,0.63,4.76,1.9c-0.32,18.08-0.95,29.5-1.27,34.26c-1.59,18.71-4.44,39.65-8.56,63.12
		c-4.13,24.42-7.93,39.96-11.11,45.99c-0.63,1.59-3.49,4.44-8.24,9.19c-4.12,3.81-6.03,7.3-6.03,10.47
		c0,13.64,3.81,22.84,11.74,27.59s23.79,6.98,47.26,6.98c29.49,0,47.58-1.59,54.24-4.76c8.88-4.12,13.32-14.59,13.32-32.04
		c0-6.66-8.24-13.32-13.32-19.66c-3.17-3.49-6.03-15.86-9.83-35.84c-3.49-17.76-6.03-35.84-8.56-54.56l-1.59-11.74l-4.44-40.28
		c2.22-0.95,3.17-1.27,3.17-1.27c4.76,0,9.83,5.07,14.59,15.22c4.76,9.83,11.1,14.91,18.71,14.91c13.64,0,20.3-8.88,20.3-26.96
		c0-9.83-2.86-19.98-8.25-29.81C1480.99,1616.28,1473.38,1610.57,1464.5,1610.57z M1777.21,1721.27
		c12.37,14.91,18.4,32.67,18.4,53.92c0,52.02-35.21,78.03-105.31,78.03c-28.55,0-47.26-0.64-55.83-1.59
		c-27.59-3.49-41.87-11.1-43.14-23.16c-0.32-2.22-0.32-4.12-0.32-5.71c0-6.98,3.17-13.32,9.19-18.71
		c6.98-6.03,11.42-13.96,13.33-23.79c3.17-14.91,6.66-29.5,9.83-44.09c3.81-17.76,5.71-32.67,5.71-45.04
		c0.32-15.54-2.54-27.27-7.29-35.52l-1.27-0.64l-11.1-9.51c-2.22-2.54-3.49-6.66-3.17-12.06c0.64-14.27,21.57-21.57,62.81-21.57
		c4.76,0,10.15,0,16.81,0.32c6.66,0.32,10.79,0.32,12.37,0.32c16.81,0,31.08,3.17,42.82,9.51c14.91,7.93,22.2,19.66,22.2,35.21
		c0,16.81-10.15,28.23-19.03,40.6C1756.91,1701.92,1768.01,1709.85,1777.21,1721.27z M1685.55,1674.33
		c1.59,8.56,3.49,13.01,6.34,13.01c11.1,0,16.49-7.93,16.49-23.79c0-9.83-6.98-19.66-16.18-19.66c-5.39,0-8.24,4.12-8.24,12.37
		C1683.96,1662.27,1684.59,1668.3,1685.55,1674.33z M1719.8,1746.65c0-18.08-6.66-26.96-20.3-26.96c-6.03,0-8.88,2.22-9.2,6.66
		l-1.27,23.79c-0.64,14.27,2.54,21.57,11.1,21.57C1713.14,1771.7,1719.8,1763.45,1719.8,1746.65z M1983.36,1779.95
		c-0.64-8.88-0.64-14.27-0.64-16.49c0-7.29-5.39-18.08-11.74-18.08c-2.22,0-5.08,2.54-8.56,7.61c-3.49,5.07-7.61,7.61-13.01,7.61
		c-0.95,0-2.22,0-3.81-0.32c-2.85-0.95-9.83,1.27-12.37,1.27c-30.77,0-45.99-13.32-45.99-39.65c0-11.1,3.49-16.81,10.15-16.81
		c6.02,0,10.47,2.54,13.32,7.93c3.17,5.39,6.34,7.93,9.83,7.93c5.39,0,9.2-4.76,12.06-14.28c1.9-6.66,2.86-13.96,2.86-21.25
		c0-4.76-1.59-6.98-4.76-6.98c-3.49,0-8.88,6.98-12.37,6.98c-8.56,0-15.86-1.9-21.89-5.71c-6.98-4.44-10.47-10.15-10.47-17.13
		c0-1.59,0.32-2.86,0.64-4.44c0.95-4.12,2.22-6.66,4.44-7.61h6.98c15.22,0,26.64,2.86,34.57,8.25c3.17,2.22,7.61,6.98,13.64,14.91
		c4.13,5.39,8.88,7.93,14.59,7.93c6.03,0,10.47-2.85,13.96-8.24c2.54-4.44,3.81-9.83,3.81-16.49c0-10.47-1.91-19.98-5.71-28.86
		c-5.07-11.42-12.05-17.13-21.25-17.13c-6.66,0-18.39,0.63-34.57,1.59c-16.18,0.95-27.91,1.59-35.21,1.59
		c-5.39,0-18.4-1.27-23.47-1.27c-13.32-0.32-24.42,1.59-33.62,5.08c-11.1,4.12-16.49,10.78-16.49,19.34c0,4.76,1.27,8.25,3.8,10.79
		c3.49,2.22,6.03,3.81,7.93,4.76c3.8,2.86,6.66,9.83,7.61,20.94c0.64,5.39,0,11.42-0.32,18.4l-2.54,81.83
		c-0.64,19.35-2.54,31.41-5.39,36.16l-6.03,9.51c-0.64,1.27-3.49,4.44-8.88,9.83c-3.17,3.17-4.76,6.66-4.76,10.78
		c0,10.15,5.39,15.54,16.17,15.54l59.63,0.32c8.56,0,17.44,0.32,26.64,0c11.1-0.32,19.66-0.32,26.01-0.32
		c22.84,0,36.16-1.27,40.28-4.12c10.47-7.61,15.86-24.42,15.86-50.11C1984.31,1795.8,1983.67,1788.51,1983.36,1779.95z"/>
	<path d="M731.01,1977.41c-7.8-9.68-17.21-16.41-27.97-19.9c7.53-10.48,16.13-20.17,16.13-34.42c0-13.18-6.18-23.13-18.83-29.85
		c-9.95-5.38-22.05-8.07-36.3-8.07c-1.34,0-4.84,0-10.48-0.27c-5.65-0.27-10.22-0.27-14.25-0.27c-34.96,0-52.71,6.19-53.25,18.29
		c-0.27,4.57,0.81,8.07,2.69,10.22l9.41,8.07l1.08,0.54c4.03,6.99,6.45,16.94,6.18,30.12c0,10.48-1.61,23.13-4.84,38.18
		c-2.69,12.37-5.64,24.74-8.34,37.38c-1.61,8.34-5.38,15.06-11.29,20.17c-5.11,4.57-7.8,9.95-7.8,15.87c0,1.34,0,2.96,0.27,4.84
		c1.07,10.22,13.18,16.67,36.57,19.63c7.26,0.81,23.13,1.34,47.33,1.34c59.43,0,89.28-22.05,89.28-66.15
		C746.6,2005.1,741.5,1990.04,731.01,1977.41z M651.95,1922.28c0-6.99,2.42-10.49,6.99-10.49c7.8,0,13.71,8.34,13.71,16.67
		c0,13.45-4.57,20.17-13.99,20.17c-2.42,0-4.03-3.76-5.38-11.02C652.49,1932.5,651.95,1927.38,651.95,1922.28z M665.66,2020.16
		c-7.26,0-9.95-6.19-9.41-18.29l1.08-20.17c0.27-3.76,2.69-5.65,7.8-5.65c11.57,0,17.21,7.53,17.21,22.86
		C682.33,2013.17,676.69,2020.16,665.66,2020.16z M935.14,2064.8c-6.19-10.49-10.76-23.13-13.72-37.92
		c-2.15-9.95-4.84-18.02-8.06-23.93c-3.5-6.73-9.15-12.91-16.41-19.09c-0.27,0-4.57-1.89-13.44-5.92
		c-5.92-2.69-9.68-6.73-11.57-12.37c18.29-9.95,27.43-23.67,27.43-40.61c0-13.71-6.99-23.93-20.97-31.19
		c-11.29-5.92-24.47-8.87-39.26-8.87c-4.03,0-14.25,0.27-30.12,1.08l-11.29-0.54c-11.56-0.54-20.97,1.34-28.51,4.3
		c-9.41,3.5-13.99,9.14-13.99,16.41c0,4.03,1.08,6.99,3.23,9.14c2.96,1.88,5.11,3.23,6.72,4.03c4.3,3.5,6.73,14.52,7.26,32.81
		c-1.61,16.94-4.03,34.69-7.26,53.51c-3.5,20.98-6.72,33.88-9.14,38.99c-0.81,1.34-2.96,3.76-6.99,7.8
		c-3.22,3.23-4.84,6.19-5.11,8.87c-0.54,11.83,2.42,19.63,9.15,23.67c6.72,3.76,20.44,5.65,40.88,5.65
		c25.01,0,40.34-1.35,45.98-4.03c7.26-3.5,11.03-12.37,11.03-27.16c0-5.65-6.73-11.29-11.03-16.67c-4.3-5.11-7.8-20.71-11.56-46.25
		c-0.81-4.57,1.34-7.53,6.45-8.87c2.96-0.81,5.64-0.27,7.8,1.61c6.45,5.64,11.02,18.29,13.71,37.65
		c2.96,23.13,6.18,38.18,9.68,45.45c6.99,14.79,19.9,22.05,38.46,22.05c4.3,0,9.41-0.54,15.6-1.61c7.26-1.34,12.64-1.88,15.87-2.15
		l6.45-4.03c2.96-1.88,4.57-3.5,4.57-5.38c0-2.42-1.61-5.11-4.84-8.61C937.83,2068.03,935.41,2065.61,935.14,2064.8z
		 M840.48,1948.63c-3.22,5.11-7.53,7.8-12.91,7.8c-2.96,0-4.57-2.42-4.84-6.99l-2.15-27.7c-0.81-4.57,4.03-8.61,8.6-8.61
		c10.49,0,15.6,6.73,15.6,19.9C844.78,1938.68,843.44,1944.06,840.48,1948.63z M1041.92,1883.02c-27.43,0-49.21,12.64-65.35,37.65
		c-13.98,21.78-20.97,47.06-20.97,76.1c0,26.36,6.99,48.67,20.71,66.96c15.33,20.17,35.76,30.12,61.31,30.12
		c22.86,0,42.22-7.26,58.35-21.51c16.94-15.33,25.55-34.15,25.55-56.74c0-33.08-5.92-61.85-18.02-86.86
		C1088.98,1898.35,1068.54,1883.02,1041.92,1883.02z M1044.07,2002.14c-10.49,0-18.29-6.99-23.67-21.24
		c-4.03-10.49-5.92-22.05-5.92-34.15c0-7.26,1.08-13.98,3.5-20.17c2.96-8.34,7.26-12.37,12.91-12.37c9.41,0,17.48,8.87,23.93,26.9
		c5.11,14.25,7.8,27.43,7.8,39.26C1062.63,1994.88,1056.44,2002.14,1044.07,2002.14z M1494.02,2027.16
		c0.27,7.26,0.81,13.44,0.81,18.28c0,21.78-4.57,36.04-13.45,42.49c-3.5,2.42-14.79,3.5-34.15,3.5c-5.38,0-12.64,0-22.05,0.27
		c-7.8,0.27-15.33,0-22.59,0l-50.56-0.27c-7.26,0-11.59-2.93-13.08-8.42c-1.31,2.19-3.24,3.85-5.77,4.92
		c-3.5,1.61-8.87,2.15-16.68,2.15h-31.46c-6.72,0-12.37-1.61-16.94-4.57c-5.65-3.5-12.91-15.06-20.71-34.15
		c-6.72-16.4-12.91-33.07-19.63-49.48c-7.26-16.94-13.18-25.55-17.75-25.55c-1.88-0.27-2.96,1.34-2.69,3.76
		c5.65,36.3,10.22,57.28,13.99,62.66c4.57,5.11,11.29,11.02,11.29,16.67c0,14.79-3.76,23.67-11.29,27.16
		c-5.64,2.69-20.97,4.03-45.98,4.03c-21.78,0-35.77-2.42-42.22-7.53c-2.69-0.27-4.3-1.88-4.57-5.38c-2.15-4.03-3.23-9.41-3.23-16.41
		c0-2.69,1.61-5.64,5.11-8.87c4.03-4.03,6.45-6.45,6.99-7.8c10.48-21.25,16.4-51.9,16.4-92.51c0-18.02-2.69-29.04-7.26-32.81
		c-1.61-0.8-3.76-2.15-6.72-4.03c-1.88-2.15-2.96-5.11-2.96-9.14c0-7.26,4.57-12.91,13.98-16.41c7.53-2.96,16.94-4.57,28.51-4.3
		c15.87,0.27,26.89,2.15,33.62,5.64c5.38,2.96,8.07,7.26,8.07,13.18c0,10.22-8.61,11.02-11.83,18.28c-1.61,4.03-2.69,8.87-3.5,15.06
		c0.27,6.45,2.42,9.68,6.72,9.68c14.79,0,22.05-8.6,22.05-25.81c0-5.38-6.99-11.83-6.99-17.21c0-6.73,4.03-11.3,12.1-14.25
		c6.99-2.42,18.55-4.03,34.42-4.31c9.95-0.27,16.4,0.27,19.63,1.61c5.64,2.42,8.34,7.8,8.6,16.13c0,5.65-3.76,9.68-11.02,11.57
		l-16.67,2.69c-5.38,1.61-10.49,5.92-15.6,12.64c-7.26,9.68-10.76,21.52-10.48,35.5c0.27,14.52,10.48,31.73,30.65,51.63
		c12.91,12.64,25.82,22.86,38.73,31.2c2.96,1.88,8.87,6.18,18.29,12.91c1.79,1.39,3.56,5.99,4.38,9.72
		c0.52-0.75,1.12-1.48,1.83-2.19c4.57-4.57,6.99-7.26,7.53-8.34l5.11-8.06c2.42-4.03,4.03-14.25,4.57-30.66l2.15-69.38
		c0.27-5.92,0.81-11.03,0.27-15.6c-0.81-9.41-3.23-15.33-6.45-17.75c-1.61-0.8-3.77-2.15-6.73-4.03c-2.15-2.15-3.22-5.11-3.22-9.14
		c0-7.26,4.57-12.91,13.99-16.41c7.8-2.96,17.21-4.57,28.51-4.3c4.3,0,15.32,1.08,19.9,1.08c6.19,0,16.13-0.54,29.85-1.35
		c13.72-0.81,23.67-1.34,29.31-1.34c7.8,0,13.71,4.84,18.02,14.52c3.23,7.53,4.84,15.6,4.84,24.47c0,5.64-1.07,10.22-3.22,13.98
		c-2.96,4.57-6.72,6.99-11.83,6.99c-4.84,0-8.87-2.15-12.37-6.72c-5.11-6.73-8.87-10.76-11.56-12.64
		c-6.73-4.57-16.41-6.99-29.31-6.99h-5.92c-1.88,0.81-2.96,2.96-3.76,6.45c-0.27,1.34-0.54,2.42-0.54,3.76
		c0,5.92,2.96,10.76,8.87,14.52c5.11,3.23,11.29,4.84,18.55,4.84c2.96,0,7.53-5.92,10.49-5.92c2.69,0,4.03,1.88,4.03,5.92
		c0,6.18-0.81,12.37-2.42,18.02c-2.42,8.07-5.65,12.1-10.22,12.1c-2.96,0-5.64-2.15-8.34-6.72c-2.42-4.57-6.18-6.72-11.29-6.72
		c-5.64,0-8.6,4.84-8.6,14.25c0,22.32,12.91,33.61,38.99,33.61c2.15,0,8.06-1.88,10.48-1.08c1.35,0.27,2.42,0.27,3.23,0.27
		c4.57,0,8.06-2.15,11.02-6.45c2.96-4.3,5.38-6.45,7.26-6.45c5.38,0,9.95,9.15,9.95,15.33
		C1493.48,2015.05,1493.48,2019.63,1494.02,2027.16z M1676.63,1956.43c0-0.27,0,0.81,0,3.5c0.27,9.95,3.23,24.74,8.34,44.64
		c4.84,19.09,7.26,33.88,7.26,44.37c0,13.99-1.07,23.67-3.49,29.04c-3.77,8.34-11.57,12.64-23.4,12.64
		c-13.18,0-25.01-8.61-35.5-25.55c-2.69-4.57-9.95-20.17-22.05-47.33c-7.53-16.94-14.25-25.55-20.44-25.55
		c-1.88,0-2.96,1.61-2.96,4.57c0,4.57,1.34,12.64,4.84,24.74c3.22,11.83,5.92,19.09,7.8,21.51l6.18,7.53
		c2.42,2.96,4.31,5.92,4.84,8.87c0.54,3.5,0.8,6.72,0.8,9.68c0,7.8-2.96,13.45-8.61,16.67c-4.57,2.42-12.9,4.31-25.01,4.57
		c-5.64,1.08-17.75,1.08-36.3,1.08c-7.26,0-14.52-1.34-22.05-4.3c-6.72-2.42-11.03-5.65-13.18-9.95c-1.88-2.96-2.96-6.72-2.96-10.76
		v-5.11c0-2.42,1.08-4.84,3.5-7.26l6.18-6.19c5.38-20.44,9.15-39.53,11.57-57.01c1.88-14.25,3.22-27.16,4.03-38.72
		c1.08-16.94-1.34-27.97-7.26-32.81c-1.61-0.8-3.76-2.15-6.72-4.03c-2.15-2.15-3.23-5.11-3.23-9.14c0-7.26,4.57-12.91,13.99-16.41
		c7.53-2.96,16.94-4.57,28.51-4.3c19.63,0.27,32,3.22,37.65,8.34c8.34,5.64,16.14,18.83,22.86,39.8
		c7.53,22.59,14.79,37.38,22.05,44.37c1.88,1.61,3.76,2.15,5.92,1.34c2.15-2.69,3.23-6.72,3.23-11.83c0-1.88-0.27-5.11-0.81-9.14
		v-1.35l-0.27-0.54c-0.54-4.3-1.08-8.87-1.88-13.71c-2.96-9.95-8.07-17.75-14.79-23.39c-1.61-0.8-3.77-2.15-6.73-4.03
		c-1.88-2.15-2.96-5.11-2.96-9.14c0-7.26,4.57-12.91,13.99-16.41c7.53-2.96,16.94-4.57,28.51-4.3c15.87,0.27,26.89,2.15,33.62,5.64
		c5.38,2.96,8.06,7.26,8.06,13.18c0,10.48-8.6,10.76-11.83,18.28l-6.45,11.57C1677.71,1940.57,1676.63,1948.09,1676.63,1956.43z"/>
	<path d="M1415.44,761.86c0.68-6.88,1.31-10.27,3.48-18.23c0.86-3.3,1.86-7.74,7.19-32.3c3.67-17.01,4.84-23.62,6.83-37.6
		c1.54-11.08,1.49-9.41,1.22-40.72l-0.18-17.87l-2.67-6.56c-3.62-9-8.46-18.78-13.44-27.15c-5.84-9.86-6.61-10.86-14.8-19.23
		c-4.03-4.12-8.6-9.27-10.13-11.45c-2.63-3.71-2.85-4.25-4.3-10.04c-2.31-9.32-3.71-10.86-10.36-11.22l-3.71-0.18l-0.5-2.67
		c-1.04-5.16-0.45-16.02,1.13-20.4c1.31-3.8,2.4-8.82,3.08-14.61c1.49-12.35,2.13-31.76,1.18-35.15
		c-1.18-4.12-10.95-15.7-15.11-17.87c-1.22-0.63-3.35-1.85-4.66-2.76c-1.4-0.91-3.3-1.72-4.34-1.85c-1.67-0.23-1.9-0.41-2.17-1.81
		c-0.36-1.81-1.13-2.4-2.62-2.08c-0.77,0.18-1.27,0-1.72-0.68c-0.41-0.59-1.13-0.9-2.17-0.9c-1.36,0-1.63-0.18-1.85-1.27
		c-0.54-2.53-0.72-2.81-1.77-3.08c-1.09-0.27-2.71,0.45-4.79,2.13c-0.95,0.77-1.36,0.86-2.13,0.45c-0.5-0.27-1.85-0.5-2.94-0.5
		c-1.13,0-2.76-0.32-3.62-0.68c-0.9-0.36-2.26-0.68-2.98-0.68c-2.08,0-8.23,2.08-10.45,3.57c-2.26,1.45-6.6,2.4-10.18,2.26
		c-4.52-0.18-9.41,0.82-12.67,2.49c-1.63,0.91-3.26,1.63-3.57,1.63c-0.27,0-1.63,0.72-2.99,1.58c-1.76,1.13-2.99,1.58-4.3,1.58
		c-2.94,0-5.11,0.81-6.24,2.31c-0.54,0.77-1.58,1.72-2.26,2.08c-0.86,0.41-1.63,1.45-2.22,2.9c-0.81,1.9-1.13,2.22-2.22,2.22
		c-2.81,0-3.49,2.08-2.72,8.46c1,8.6,3.85,16.2,7.37,19.91l1.81,1.86l-0.18,4.3c-0.14,3.76-0.36,4.66-1.63,7.06
		c-1.27,2.44-1.45,3.21-1.45,6.38c0,3.35,0.09,3.71,1.36,5.11c1.99,2.26,2.35,3.57,1.81,6.74c-0.23,1.49-0.72,3.17-1.13,3.71
		c-2.49,3.39-3.89,5.79-4.57,7.83c-1.45,4.07,0.13,5.48,6.6,5.97l3.85,0.27l0.77,2.44c0.91,2.85,1.77,3.89,4.03,5.07
		c1.99,0.99,2.53,2.58,1.54,4.48c-0.9,1.72-0.86,2.4,0.18,4.44c0.5,0.9,1.13,3.26,1.49,5.2c0.59,3.12,0.59,3.48-0.04,3.3
		c-0.41-0.14-2.94-0.68-5.7-1.18c-5.97-1.22-8.64-2.17-14.07-5.07c-2.31-1.22-5.84-2.81-7.87-3.58c-5.43-1.94-5.93-2.31-8.73-5.75
		c-1.36-1.72-3.89-4.3-5.56-5.79c-4.03-3.48-4.52-4.07-5.43-6.51c-1.58-4.35-2.26-5.7-4.07-7.74c-1.04-1.18-2.22-3.12-2.67-4.3
		c-1.72-4.75-3.12-7.06-7.24-11.72c-2.63-2.99-4.34-5.38-4.57-6.24c-0.5-2.4-2.31-5.61-7.11-12.62c-4.07-6.02-6.6-8.91-11.08-12.62
		c-0.77-0.63-1.54-1.76-1.72-2.49c-0.45-1.94-5.84-15.52-8.33-20.99c-1.18-2.62-3.85-8.82-5.93-13.8
		c-2.04-4.98-4.48-10.23-5.34-11.72c-1.49-2.49-1.58-2.99-1.9-7.92c-0.23-3.44-0.77-6.61-1.54-9.28c-1.72-5.97-1.81-7.29-0.72-11.9
		c1.08-4.66,1.13-5.93,0.45-8.51c-0.59-2.13-4.16-5.84-8.42-8.64c-2.58-1.72-2.71-1.94-2.04-2.62c0.5-0.5,0.77-1.72,0.86-3.98
		l0.14-3.26l-2.26-2.13c-1.99-1.85-2.26-2.35-2.26-3.89c0-2.04-0.77-2.94-3.21-3.71c-1.63-0.5-1.63-0.59-1.45-2.49
		c0.23-1.86,0.18-1.95-1.36-2.67c-0.86-0.41-1.99-0.77-2.49-0.77c-1.27,0-1.76-0.81-2.13-3.3c-0.18-1.18-0.68-2.58-1.09-3.08
		c-0.95-1.13-3.44-1.49-5.47-0.72c-2.58,0.95-13.44,7.92-16.02,10.32c-3.89,3.57-5.34,6.88-10.04,23.48
		c-1.13,4.12-2.49,9.14-2.94,11.22c-1.54,6.74-2.67,18.41-3.17,32.39c-0.23,7.42-0.72,15.56-1.04,18.1
		c-2.13,15.57-7.15,46.74-9.37,57.96c-3.8,19.23-5.61,23.3-13.57,30.54c-12.58,11.45-19.14,16.7-30.99,24.89
		c-7.01,4.84-15.66,11.9-17.92,14.57c-1.04,1.27-3.44,4.44-5.34,7.1c-2.22,3.12-4.16,5.3-5.47,6.2c-3.21,2.13-9.01,3.89-13.8,4.12
		l-4.07,0.23l0.13-4.21c0.09-2.35,0.5-6.47,0.86-9.23c0.36-2.72,0.63-5.57,0.63-6.33c0-0.95,0.68-2.31,2.04-4.21
		c3.26-4.48,3.89-5.97,4.57-11.27c0.91-7.2,2.4-11.18,6.11-16.33c2.58-3.66,2.94-5.93,2.31-14.98c-0.27-4.12-0.41-8.14-0.27-8.87
		c0.14-0.77,0.54-3.17,0.95-5.34c3.85-21.27-12.49-44.48-37.19-52.85c-2.9-0.99-3.89-1.08-11.54-1.08c-8.01,0-8.51,0.05-11.99,1.27
		c-7.65,2.71-12.44,5.38-16.79,9.46c-2.22,2.08-5.43,4.8-7.2,6.02c-8.19,5.79-15.2,11.31-18.01,14.12c-2.4,2.49-3.66,4.3-6.11,8.96
		c-2.4,4.61-3.44,6.11-4.93,7.19c-1,0.77-3.94,2.94-6.52,4.8c-6.06,4.43-10,8.37-13.17,13.17c-2.72,4.12-3.53,5.79-4.98,10.13
		c-0.81,2.35-0.95,4.39-1.22,15.38c-0.32,14.39-0.32,14.43-3.89,16.97c-3.62,2.58-4.98,4.16-6.11,7.01
		c-0.95,2.49-1.09,3.44-1.09,10.95c-0.04,4.57-0.18,8.28-0.36,8.28c-2.94,0-14.03,1.72-16.51,2.53c-4.25,1.4-9.23,4.34-12.08,7.19
		c-3.12,3.08-5.07,6.97-8.6,17.19c-8.01,22.85-11.63,31.99-17.28,43.35c-4.75,9.46-6.52,13.39-9.32,20.68
		c-3.89,10.27-10.41,23.03-14.48,28.37c-1.22,1.63-3.89,4.8-5.93,7.06c-2.04,2.31-4.84,5.47-6.15,7.1c-1.9,2.26-3.26,3.39-5.97,4.84
		c-1.95,1.04-4.52,2.53-5.7,3.35c-2.44,1.67-20.81,19.95-27.06,26.88c-2.22,2.49-5.11,5.66-6.38,7.01
		c-2.04,2.17-5.25,5.97-17.51,20.81c-1.54,1.86-7.15,7.78-12.53,13.12c-9.68,9.73-16.2,15.11-28.05,23.25
		c-9.09,6.29-11.09,8.6-14.21,16.34c-1.18,2.85-2.49,5.07-4.39,7.47c-4.25,5.25-5.43,8.32-8.1,21.94
		c-2.8,14.25-3.26,16.33-4.79,20.9c-0.81,2.58-2.71,7.29-4.21,10.45c-5.61,11.95-10.81,28.42-12.9,40.59
		c-2.67,15.7-7.19,57.73-9.32,86.87c-2.94,40.13-6.02,66.28-10.63,90.26c-6.33,32.58-7.06,36.83-9.36,55.65
		c-1.45,12.08-1.49,28.46,0,35.2c2.4,11.04,6.2,17.15,15.56,25.16c9.46,8.01,16.51,12.22,24.43,14.48
		c6.06,1.72,10.95,2.22,19.36,1.95c13.62-0.45,18.46,0.77,22.85,5.66c4.39,4.89,6.61,10.36,7.92,19.64
		c1.27,8.6,2.08,10.54,6.29,14.66c6.24,6.15,12.58,8.42,22.67,8.01c6.88-0.32,11.54-1.27,24.07-5.02
		c13.98-4.16,16.06-4.57,24.12-4.53c6.16,0.04,7.29,0.18,12.22,1.49c26.29,7.06,28.91,7.47,47.73,7.47
		c14.93,0.05,21-0.41,28.64-2.08c2.31-0.5,4.57-0.86,5.07-0.86c1.81,0.05,9.32,2.81,17.01,6.2c22.21,9.82,36.87,13.66,53.8,14.07
		c8.87,0.23,9,0.23,33.71-3.57c4.98-0.77,8.41-1,15.83-1c8.78,0,10.14,0.09,17.87,1.49c11.45,2.04,18.73,2.26,31.72,1
		c16.65-1.63,19.95-1.36,46.83,3.53c22.53,4.12,27.78,4.89,37.46,5.48c4.43,0.27,10.04,0.68,12.44,0.95
		c2.4,0.23,8.91,0.54,14.52,0.68c8.55,0.23,11.72,0.13,19.68-0.68c5.25-0.54,13.17-1.18,17.65-1.4c4.98-0.27,10.59-0.9,14.48-1.58
		c8.91-1.67,15.47-1.9,26.24-0.9c7.65,0.68,9.73,0.72,14.39,0.27c10.54-1.09,18.01-3.62,21.36-7.38l1.95-2.17l1.58,0.9
		c3.76,2.22,6.74,2.49,28.19,2.49h19.95l-0.04,2.58c-0.04,2.08,0.14,2.76,1.04,3.71c1.13,1.18,3.94,2.31,7.06,2.72
		c1,0.14,5.97,0.9,11.09,1.67c8.91,1.36,9.46,1.4,15.38,0.91c3.39-0.27,7.78-0.5,9.73-0.5c4.25,0,14.52,1.09,19,2.04
		c14.12,2.9,22.44,3.08,31.44,0.72c9.86-2.53,15.97-5.79,18.6-9.91c1.54-2.35,1.54-3.39,0.23-9.37c-0.72-3.21-1.67-17.47-2.54-37.55
		c-0.54-12.81-1.36-22.22-2.76-31.58c-1.18-8.05-1.54-18.96-0.95-31.54c0.5-11.31,0.09-21.04-1.27-30.09
		c-1.13-7.51-3.08-16.83-4.79-23.08c-1.09-4.07-1.27-5.61-1.54-15.16c-0.27-8.6-0.54-11.36-1.31-14.43
		c-1.18-4.57-3.76-11.08-6.79-17.15c-3.85-7.69-4.93-11.45-5.93-20.63c-1.13-10.18-1.95-15.11-3.85-22.89
		c-0.81-3.35-1.4-6.29-1.27-6.47c0.14-0.23,0.32-4.44,0.36-9.32c0.09-6.02,0.36-10,0.86-12.4c0.81-4.03,0.95-14.52,0.23-20.45
		c-1.09-9.27-1.04-12.4,0.18-17.69c0.81-3.35,1.36-7.28,1.67-12.4c0.64-10,1.04-13.12,3.39-23.75c3.48-15.97,4.21-21.13,5.2-37.55
		c0.27-4.48,0.95-11.81,1.49-16.29c0.72-6.24,1-10.68,1-19c0-11.45,0-11.63-2.72-25.56c-4.34-22.4-5.16-35.47-2.8-43.89
		C1410.5,792.95,1414.3,773.85,1415.44,761.86z M868.69,722.59c-0.72,4.43-0.95,7.69-0.95,15.16c0,9.5-0.86,20.18-1.76,21.85
		c-0.59,1.09-0.45,1.04-11.13,2.81c-9.68,1.58-14.89,2.67-20.81,4.39c-14.7,4.21-44.29,17.28-59.27,26.24
		c-9.68,5.79-18.32,10.41-24.84,13.3c-3.75,1.67-6.92,2.94-7.06,2.8c-0.14-0.13,1.81-2.22,4.3-4.61
		c4.89-4.66,13.44-11.49,20.81-16.56c5.88-4.07,24.52-18.23,31.08-23.66c4.75-3.94,12.72-13.08,19.91-22.76
		c2.13-2.9,4.98-6.56,6.33-8.14c2.67-3.17,11.81-15.02,23.44-30.4c4.12-5.43,8.37-11.08,9.5-12.58l2.04-2.67l0.5,1.67
		c0.32,0.95,1.85,5.07,3.48,9.18C869.69,712.36,870.05,714.36,868.69,722.59z M1303.91,1247.07c-0.77,6.02-2.35,10.32-6.65,17.78
		l-3.66,6.33l-3.12,0.59c-1.99,0.41-7.42,0.63-15.29,0.68c-10.5,0.09-12.53,0.23-14.39,0.91c-1.22,0.45-2.26,0.77-2.3,0.68
		c-0.05-0.09-0.91-1.99-1.86-4.21c-0.95-2.26-3.03-6.83-4.62-10.18c-1.63-3.35-3.75-8.42-4.71-11.27c-1-2.81-2.49-6.47-3.3-8.14
		c-2.94-5.79-10.36-16.02-16.56-22.89c-8.6-9.46-11.54-14.93-19.45-36.2c-2.08-5.48-5.79-14.43-8.23-19.91
		c-5.61-12.44-8.14-18.46-12.44-29.64c-4.62-11.99-8.28-20.68-13.44-31.54c-6.06-12.85-8.6-18.91-20.81-49.91
		c-5.97-15.2-16.7-41.35-19.05-46.6c-4.03-8.96-16.97-34.16-24.25-47.28c-11.86-21.31-21.49-41.17-38.96-80.31
		c-7.65-17.15-7.6-17.1-18.46-38.68c-11.22-22.26-12.26-24.66-18.1-42.3c-5.66-17.24-9-24.8-14.39-32.8
		c-3.3-4.89-5.29-6.97-10.86-11.4c-2.31-1.86-4.7-4.12-5.34-5.07c-0.81-1.27-1.54-3.98-2.94-10.72c-1-4.93-2.44-10.72-3.17-12.85
		c-3.76-10.41-3.85-9.77,3.8-29.23c2.35-5.93,4.75-12.26,5.29-13.98c1.58-4.89,6.61-16.65,9.32-21.94c2.35-4.57,9.46-14.62,14.21-20
		c1.27-1.4,4.16-4.25,6.47-6.29c2.26-2.04,6.7-6.06,9.77-8.96c3.08-2.9,8.37-7.6,11.76-10.45c3.35-2.85,8.55-7.47,11.49-10.18
		c2.99-2.76,8.6-7.74,12.49-11.13c7.24-6.33,37.1-36.42,44.2-44.52c2.17-2.49,4.98-5.97,6.29-7.69c1.31-1.76,3.58-4.03,5.11-5.11
		c4.34-3.17,5.29-5.52,7.33-18.41c0.45-2.99,1.09-7.47,1.36-9.95c0.27-2.49,1.09-8.82,1.81-14.03c4.07-29.36,4.34-32.94,3.44-47.51
		c-0.41-6.24-0.81-12.44-0.95-13.8l-0.23-2.49l1.13,2.31c0.63,1.27,1.77,5.11,2.53,8.6c1.17,5.2,2.04,7.83,3.48,10.68
		c0.09,0.23-0.09,0.36-0.41,0.36c-0.32,0-1.18,0.54-1.86,1.22c-2.35,2.26-1.45,6.61,2.31,10.68c3.12,3.39,4.25,6.47,6.15,16.51
		c1.45,7.69,1.81,8.87,5.75,20.86c4.8,14.57,9.59,25.66,17.06,39.41c3.57,6.61,7.42,13.71,8.55,15.79
		c2.58,4.84,4.25,6.65,9.59,10.45c2.53,1.81,5.02,4.03,6.06,5.43c3.89,5.16,14.93,13.71,27.6,21.49
		c10.59,6.47,17.69,11.45,26.42,18.64c6.06,4.98,18.73,15.02,21.54,17.1l1.22,0.9l-1.18,13.35c-2.53,29.59-3.3,35.38-8.55,65.97
		c-1.67,9.55-4.03,24.48-5.25,33.12c-2.85,19.91-2.71,19.18-10.86,52.49c-1.22,5.07-2.26,10.18-2.26,11.36
		c0,1.13,0.5,4.52,1.09,7.47c1.58,7.83,2.53,14.52,2.53,18.19c0,7.19,1.31,9.46,5.2,9c1.77-0.18,2.04-0.09,1.85,0.54
		c-0.72,2.4-5.02,20.09-5.97,24.48c-0.59,2.85-1.99,9.18-3.12,14.03c-1.13,4.84-2.85,12.58-3.85,17.19
		c-2.44,11.13-4.52,19.27-7.46,29.5c-7.1,24.57-7.92,33.3-6.15,65.74c1.45,26.02,2.13,32.85,5.43,54.97
		c0.5,3.35,1.13,10.27,1.4,15.38c0.68,13.44,1.27,19.5,2.76,28.68c1.58,9.77,3.03,15.66,7.01,28.69
		c8.37,27.6,13.39,41.67,24.75,69.32c6.11,14.84,6.7,16.56,14.34,40.49l5.07,15.79L1303.91,1247.07z"/>
	<path d="M363.43,575.08c-26.7-19.53-53.42-31.73-80.76-36.73c-33.1-6.22-57.54,1.23-73.26,22.72
		c-16.19,22.14-18.84,47.19-8.18,74.98c9.33,24.15,25.61,44.71,49.05,61.86c21.27,15.56,43.42,23.09,66.28,22.81
		c25.33-0.47,45.43-11.1,60.51-31.72c13.5-18.45,19.06-38.37,17.08-59.81C391.78,606.47,381.66,588.42,363.43,575.08z
		 M306.86,629.66c-6.19,8.47-16.44,10.63-31.12,6.57c-10.85-2.93-21.29-8.24-31.06-15.39c-5.86-4.28-10.65-9.12-14.22-14.73
		c-4.99-7.31-5.7-13.16-2.37-17.72c5.55-7.6,17.48-8.87,35.84-3.45c14.52,4.29,26.74,9.9,36.3,16.88
		C311.95,610.4,314.16,619.68,306.86,629.66z M498.12,447.77c11.93,12.78,17.63,29.91,17.26,51.97c-0.56,21.87-7.22,38.77-20,50.7
		c-23.19,21.66-43.55,32.58-61.24,32.54c-18.27,0.14-37.87-10.99-58.99-33.6c-4.04-4.33-9.9-10.99-17.58-20.01
		c-7.49-9.2-13.35-15.87-17.39-20.19c-9-9.64-16.41-15.6-22.79-18.1c-3-1.24-7.18-1.39-12.33-0.99c-3.82,0.25-7.02-0.81-9.77-3.76
		c-5.32-5.7-5.45-13.32-0.36-22.85c3.46-6.55,8.63-13.22,15.71-19.83c21.42-20.01,36.46-25.59,45.09-16.35
		c2.75,2.95,3.78,6.41,3.45,10.4c-0.56,5.31-0.5,9.31,0.19,11.23c2.79,7.33,9.69,17.08,21.26,29.46l-0.56-0.21
		c11.4,11.8,20.29,18.96,26.3,21.07c9.03,2.97,19.06-0.87,30.26-11.34c18.87-17.62,17.75-29.46-0.42-48.92
		c-9.36-10.02-16.92-17.32-23.03-22.29c-7.41-5.96-13.79-8.46-19.55-7.13c-4.99,1.35-9.14,0.07-12.44-3.47
		c-9.36-10.02-3.72-24.86,16.92-44.14c5.31-4.96,10.76-8.58,16.54-10.66c7.51-2.6,13.57-1.63,17.97,3.08
		c2.75,2.95,3.78,6.41,3.45,10.4c-0.56,5.31-0.49,8.92,0.2,10.85c2.97,7.9,10.97,18.83,24,32.79c4.22,4.52,10.47,11.2,18.92,19.86
		S493.9,443.25,498.12,447.77z M704.48,382.62c-6.06-1.64-9.39-2.43-10.04-2.98c-10.77-5.69-21.28-14.06-31.56-25.11
		c-7.05-7.35-13.56-12.81-19.42-16.16c-6.5-3.89-14.55-6.2-23.98-7.67c-0.23,0.14-4.88,0.79-14.55,2.01
		c-6.45,0.81-11.77-0.65-16.33-4.48c10.36-18.06,10.96-34.53,2.08-48.96c-7.19-11.68-18.5-16.72-34.21-15.58
		c-12.72,0.88-25.5,5.27-38.1,13.02c-3.43,2.11-12,7.7-25.09,16.7l-9.9,5.46c-10.13,5.6-17.16,12.14-22.02,18.61
		c-6.19,7.91-7.12,15.12-3.32,21.3c2.11,3.44,4.58,5.39,7.54,6.1c3.51,0.05,6.04,0.07,7.84-0.09c5.49,0.72,13.34,8.85,23.38,24.14
		c7.5,15.28,14.74,31.66,21.86,49.39c8.02,19.7,12.03,32.38,12.65,38.01c0.02,1.57-0.55,4.76-1.87,10.31
		c-1.06,4.44-0.88,7.81,0.3,10.24c5.75,10.36,12.35,15.46,20.19,15.36c7.7-0.32,20.37-5.9,37.78-16.61
		c21.3-13.11,33.66-22.29,37.05-27.54c4.35-6.78,2.91-16.32-4.84-28.92c-2.96-4.81-11.64-6.1-18.13-8.42
		c-6.34-2.1-17.5-13.55-34.09-33.34c-3.08-3.47-2.8-7.12,0.84-10.94c2.1-2.24,4.67-3.19,7.49-2.72c8.46,1.43,18.97,9.8,31.41,24.88
		c14.64,18.15,25.28,29.29,32.06,33.64c13.71,8.93,28.51,8.36,44.31-1.37c3.67-2.26,7.73-5.39,12.44-9.55
		c5.48-4.95,9.78-8.22,12.39-10.15l3.38-6.82c1.53-3.15,2.06-5.37,1.08-6.98C711.84,385.35,709.06,383.91,704.48,382.62z
		 M546.01,343.71c-2.52,1.55-5.16,0.33-7.79-3.42l-16.35-22.46c-3.08-3.47-1.08-9.45,2.82-11.84c8.93-5.49,16.81-2.45,23.71,8.78
		c2.96,4.81,4.64,10.1,4.51,15.54C552.85,336.35,550.6,340.89,546.01,343.71z M914.71,273.34c6.37,21.96,7.35,37.91,3.36,48.31
		c-2.09,5.36-6.39,8.85-12.59,10.65c-1.03,0.3-2.58,0.75-4.98,1.16c-1.88,0.27-3.43,0.71-4.13,1.2L883.33,339
		c-7.71,3.35-17.97,6.6-30.7,10.01c-21.85,5.78-32.25,8.51-31.48,8.28c-21.7,6.29-34.87,1.43-39.58-14.84
		c-1.05-3.62-0.6-10.75,1.29-21.65c2.17-11.83,3.1-20.22,2.53-25.1c-2.63-21.64-6.48-42.64-12.57-62.72
		c-5.77-19.89-12.05-30.94-18.16-33.66c-1.77-0.32-4.21-1.02-7.58-2c-2.67-1.47-4.52-4.01-5.65-7.89
		c-2.02-6.97,0.8-13.67,8.87-19.65c6.67-5.01,15.26-9.18,26.18-12.07c15.31-4.16,26.69-5.49,33.86-3.93
		c6.25,1.27,10.03,4.66,11.68,10.34c2.92,10.07-5.53,12.8-6.28,20.86c-0.67,8.31,0.51,19.17,4.41,32.6
		c5.47,18.85,8.72,29.12,9.58,31.1c10.68,22.39,19.81,32.62,27.3,30.45c4.91-1.43,9.36-4.39,13.12-8.85
		c5.7-6.41,9.53-10.6,11.55-12.31c4.13-3.15,7.19-5.16,9.51-5.83c2.33-0.67,4.62-0.5,7.39,0.38c4.96,1.64,7.88,3.04,9.03,4.1
		C909.74,259.1,912.16,264.56,914.71,273.34z M1059.25,149.11c-17.76-28.62-39.76-41.61-66.22-38.69
		c-27.27,3.01-47.54,17.96-60.84,44.59c-11.51,23.19-15.69,49.08-12.51,77.95c2.89,26.2,12.28,47.62,27.92,64.29
		c17.45,18.37,38.85,26.02,64.25,23.22c22.72-2.51,41.17-11.85,55.65-27.78c15.16-17.09,21.65-36.75,19.17-59.21
		C1083.06,200.6,1074.02,172.64,1059.25,149.11z M1008.22,228.61c-10.43,1.15-18.94-4.95-25.85-18.52
		c-5.16-9.98-8.3-21.27-9.63-33.31c-0.8-7.22-0.46-14.01,1.27-20.43c2.03-8.61,5.86-13.09,11.48-13.71
		c9.35-1.03,18.35,6.91,26.73,24.11c6.64,13.61,10.76,26.41,12.06,38.17C1025.87,219.35,1020.52,227.25,1008.22,228.61z
		 M1283.31,148.65c-6.55,4.35-10.3,7.56-11.25,9.37c-7.46,12.64-18.72,39.55-33.79,80.74c-13.4,37-23.5,59.42-30.05,67.27
		c-2.66,3.03-7.16,5.38-13.5,7.05c-4.95,1.23-9.31,1.7-12.79,1.44c-10.99-0.86-20.16-11.28-27.52-31.27
		c-4.9-13.33-9.54-33.39-14.23-59.92c-4.87-27.63-8.21-43.53-9.02-47.1l-5.16-20.36c-2.51-9.37-5.27-15.52-8.55-18.47
		c-1.54-0.93-3.58-2.43-6.39-4.54c-1.98-2.31-2.82-5.34-2.51-9.36c0.56-7.24,5.56-12.52,15.21-15.28
		c8.01-2.35,17.52-3.22,28.76-2.08c15.8,1.49,26.91,4.25,33.08,8.23c5.4,3.38,7.75,7.89,7.29,13.79c-0.15,1.88-0.52,3.2-0.89,4.51
		c-0.44,2.12-8.55,9.32-8.68,21.45c-0.26,6.73,1.43,16.3,5.09,28.18c4.12,13,8.36,20.89,12.75,23.38
		c6.31-1.4,12.55-8.74,18.73-22.28c5.23-11.74,8.17-21.76,8.83-30.34c0.32-4.03-1.58-7.41-5.44-9.87
		c-3.86-2.45-5.46-6.09-5.07-11.18c1.11-14.21,15.06-20.14,41.6-18.08c7.78,0.6,14.65,2.49,20.62,5.38
		c7.77,4.11,11.4,9.52,11.13,16.51C1291.2,140.9,1288.45,145,1283.31,148.65z M1462.04,173.41c1.19,8.1,0.68,16.32-1.6,24.9
		c-1.45,5.46-3.66,9.6-6.7,12.69c-4.03,3.66-8.29,5.04-13.23,3.72c-4.68-1.24-8.03-4.35-10.23-9.67
		c-3.22-7.81-5.82-12.68-7.94-15.18c-5.33-6.14-14.07-10.96-26.55-14.28l-5.72-1.51c-2.03,0.3-3.62,2.1-5.3,5.27
		c-0.61,1.23-1.14,2.2-1.48,3.5c-1.52,5.72,0.1,11.16,4.85,16.31c4.11,4.43,9.68,7.57,16.7,9.44c2.86,0.76,8.8-3.79,11.66-3.03
		c2.6,0.69,3.41,2.86,2.38,6.76c-1.59,5.98-3.95,11.76-6.96,16.8c-4.41,7.18-8.56,10.25-12.98,9.08c-2.86-0.76-4.91-3.53-6.34-8.64
		c-1.16-5.04-4.25-8.08-9.19-9.39c-5.46-1.45-9.56,2.47-11.97,11.57c-5.72,21.58,3.86,35.81,29.08,42.5
		c2.08,0.55,8.28,0.25,10.42,1.65c1.23,0.61,2.27,0.88,3.05,1.09c4.42,1.17,8.35-0.01,12.31-3.41c3.96-3.4,6.86-4.86,8.68-4.38
		c5.2,1.38,7.27,11.39,5.69,17.37c-0.48,1.82-1.65,6.24-3.06,13.66c-1.61,7.09-2.67,13.21-3.91,17.88
		c-5.59,21.06-13.66,33.66-23.89,37.63c-4,1.45-15.2-0.41-33.92-5.38c-5.2-1.38-12.22-3.24-21.39-5.39
		c-7.61-1.74-14.82-3.93-21.84-5.79l-48.8-13.22c-8.84-2.34-12.09-7.94-9.88-16.26c0.9-3.38,2.96-5.9,6.25-7.8
		c5.59-3.25,8.62-5.23,9.42-6.13l7.01-6.49c3.38-3.28,7.56-12.74,12.28-28.47l19.87-66.52c1.78-5.65,3.61-10.45,4.26-15.01
		c1.63-9.31,0.81-15.64-1.69-18.81c-1.35-1.19-3.09-3.05-5.47-5.63c-1.53-2.63-1.81-5.77-0.78-9.66
		c1.86-7.02,7.73-11.31,17.72-12.27c8.3-0.86,17.81,0,28.66,3.15c4.16,1.11,14.54,4.97,18.96,6.14c5.98,1.59,15.74,3.62,29.2,6.35
		c13.47,2.74,23.22,4.77,28.68,6.22C1455.88,156.75,1460.36,162.95,1462.04,173.41z M1607.93,360.52
		c-5.66,18.62-8.73,30.09-7.76,34.57c1.39,6.54,4.78,15.05,2.12,20.03c-6.96,13.05-14.46,19.12-22.75,18.66
		c-6.25-0.28-20.41-6.31-42.48-18.08c-17.8-9.49-28.54-17.35-32.57-24.07c-4.03-6.73-3.22-15.13,2.23-25.33
		c1.27-2.38,4.08-4.23,8.69-5.43c5.46-1.66,8.73-2.66,9.84-3.59c4.54-3.37,13.46-13.24,26.41-30.11
		c11.71-15.1,22.2-29.62,31.59-43.81c8.24-16.03,11.29-26.89,9.03-32.37c-1.05-1.47-2.31-3.67-4.03-6.72
		c-0.89-2.91-0.45-6.03,1.45-9.59c3.42-6.41,10.11-9.24,20.06-7.9c8.27,1.06,17.34,4.06,27.18,9.62
		c13.87,7.71,22.96,14.68,27.01,20.8c3.59,5.27,3.94,10.33,1.16,15.55c-4.94,9.26-12.89,5.32-19.05,10.57
		c-6.28,5.49-13.64,15.29-21.23,29.52l-0.63,1.19C1618.4,328.31,1613.05,344.05,1607.93,360.52z M1776.92,394.32
		c-5.65-4.12-8.07-12.21-7.27-24.27c1.02-11.9-0.97-19.67-5.76-23.16c-10.65-7.76-18.72-7.65-24.26-0.04
		c-3.33,4.57-1.1,13.84,6.74,28.2c10.54,19.33,16.82,33.55,19.04,42.83c4.51,18.93,0.73,36.46-10.99,52.55
		c-12.83,17.61-28.93,27.84-48.69,30.75c-19.54,3.07-38.01-1.73-55.4-14.4c-17.83-12.99-29.07-28.16-33.98-44.72
		c-5.43-18.59-1.85-36.28,10.82-53.68c6.33-8.7,14.06-9.72,22.98-3.22c2.83,2.06,4.92,5.58,6.54,9.76
		c1.68,4.55,5.39,8.58,11.27,12.86c10,7.28,18.48,6.14,25.45-3.42c2.38-3.26,2.28-9.99-0.34-20.55c-3.67-15.98-5.8-25.85-6.01-29.67
		c-1.35-12.3,0.77-22.06,6.15-29.46c9.66-13.26,22.48-19.9,38.67-19.75c14.26,0.07,28.31,4.99,42.01,14.97
		c4.35,3.17,10.02,8.63,16.95,16.01c7.15,7.54,12.83,13.01,17.39,16.33c7.83,5.7,5.25,17.47-7.9,35.51
		C1792.9,397.97,1784.97,400.18,1776.92,394.32z M1996.12,534.77c-4.03-6.42-12.61-14.72-25.5-25.45
		c-15.19-12.34-25.19-16.79-29.84-13.13c-0.84,0.67-1.45,2.51-1.64,5.74c-0.29,3.99-1.24,7.13-2.3,9.68
		c-2.09,4.73-5.66,8.9-10.94,13.06c-13.53,10.64-31.71,20.16-54.37,28.76c-26.24,9.7-45.92,12.53-59.25,8.64
		c-11.27-3.45-21.07-1.55-29.74,5.27c-9.55,7.86-6.93,21.2,8.37,40.64c10.15,12.89,17.93,21.48,23.23,25.18
		c10.73,7.98,21.07,8.06,30.78,0.41c2.54-2,4.29-5.43,5.08-10.5c1.28-7.51,2.08-12.58,2.93-14.97c2.49-6.41,6.98-12,13.33-16.99
		c8.66-6.82,16.58-8.94,23.9-6.15c3.79,3.52,5.71,5.08,5.71,5.08c4.33,5.49,7.47,11.23,9.23,17.38c2.5,7.96,1.4,13.96-3.04,17.45
		c-13.1,10.31-25.32,14.79-36.65,13.44c-4.85,2.1-8.99,4.67-12.15,7.17c-8.67,6.82-11.38,15.12-8.18,25.26
		c1.76,6.15,6.9,14.42,15.21,24.99c8.32,10.56,16.57,18.44,24.72,24.01c12.2,8.54,22.72,10.18,31.3,4.11
		c5.62-3.73,8.97-7.74,10.6-11.76c0.65-2.22,1.26-5.79,1.09-10.79c0.04-5.16,0.92-9.28,2.41-12.16c10-21.21,28.02-48.75,54.09-82.61
		c6.58-8.6,10.74-14.61,12.33-18.25c5-11.47,7.67-19.39,8.17-23.54C2005.91,555.46,2002.88,545.53,1996.12,534.77z M1946.8,572.55
		c-4.35,7.53-7.15,11.79-8.21,12.62c-1.9,1.49-4.29,0.64-7.16-2.58c-0.08-0.98-1.36-3.05-3.53-5.8c-1.33-1.69-5.96-6.26-7.28-7.95
		c-2.83-3.58-3.69-5.98-2.42-6.98c2.75-2.16,7.59-4.27,14.71-6.1c8.29-2.08,13.24-1.87,15.08,0.46
		C1951.14,560.24,1950.68,565.73,1946.8,572.55z"/>
</g>
</svg>
