<?xml version="1.0" standalone="no"?>
<!DOCTYPE svg PUBLIC "-//W3C//DTD SVG 20010904//EN"
 "http://www.w3.org/TR/2001/REC-SVG-20010904/DTD/svg10.dtd">
<svg version="1.0" xmlns="http://www.w3.org/2000/svg"
 width="2400.000000pt" height="2400.000000pt" viewBox="0 0 2400.000000 2400.000000"
 preserveAspectRatio="xMidYMid meet">

<g transform="translate(0.000000,2400.000000) scale(0.100000,-0.100000)"
fill="#000000" stroke="none">
<path d="M7638 21769 c-309 -45 -624 -280 -1013 -754 -356 -435 -685 -971
-896 -1462 -24 -56 -46 -97 -50 -90 -3 7 -11 118 -18 247 -43 863 -114 1360
-226 1586 -75 153 -168 220 -338 245 -40 5 -103 7 -142 3 -265 -25 -425 -179
-635 -609 -238 -487 -536 -1347 -721 -2078 -34 -136 -64 -246 -66 -244 -2 2
-10 271 -18 598 -31 1254 -51 1534 -136 1859 -52 203 -148 363 -253 425 -97
57 -231 80 -378 64 -164 -17 -278 -77 -424 -223 -309 -310 -633 -942 -760
-1481 -34 -148 -44 -379 -20 -475 23 -91 46 -110 137 -110 39 0 80 5 91 11 19
10 20 17 14 75 -35 339 296 1165 664 1659 111 149 243 288 329 343 22 15 25
15 44 -9 92 -112 168 -433 197 -834 14 -199 28 -743 40 -1535 15 -1006 48
-2009 89 -2685 5 -77 5 -201 0 -275 -11 -193 -11 -836 1 -1025 26 -397 68
-707 109 -800 17 -37 29 -50 67 -67 110 -48 315 -30 368 33 43 51 45 192 11
674 -22 298 -62 968 -81 1328 -15 296 -15 330 1 485 57 577 219 1530 355 2092
193 796 529 1774 762 2220 94 181 222 361 245 347 21 -13 73 -180 97 -310 59
-320 91 -710 121 -1447 18 -459 37 -761 70 -1164 25 -296 25 -300 8 -440 -21
-176 -24 -590 -5 -751 18 -149 59 -348 80 -392 22 -47 55 -70 122 -88 130 -35
318 -4 364 58 20 27 21 41 20 220 -1 131 -11 297 -32 522 -17 182 -39 416 -48
522 l-16 191 26 144 c107 583 361 1251 696 1828 292 502 722 1033 1015 1253
93 70 233 147 266 147 25 0 93 -69 120 -122 72 -141 93 -292 86 -613 -8 -364
-43 -648 -143 -1145 -109 -539 -220 -953 -634 -2365 -251 -853 -388 -1422
-490 -2025 -99 -586 -101 -1170 -5 -1530 88 -327 252 -460 570 -460 179 0 291
34 415 125 166 122 343 393 500 765 33 80 66 156 72 170 9 22 14 6 33 -115 85
-538 251 -789 595 -897 67 -21 94 -23 250 -23 163 1 181 3 255 28 120 40 199
91 306 197 396 394 662 1291 686 2315 l5 260 137 140 c153 156 230 243 347
390 84 106 222 291 269 363 15 23 30 40 32 38 3 -2 -9 -84 -26 -183 -68 -398
-130 -917 -151 -1270 -13 -220 -13 -675 0 -863 55 -776 226 -1221 525 -1365
93 -45 192 -65 323 -65 213 1 359 57 491 189 79 79 188 232 262 367 23 41 44
72 48 69 4 -2 13 -29 20 -59 15 -66 39 -99 94 -129 38 -20 56 -22 182 -22 124
0 145 2 180 21 69 37 73 46 140 269 63 210 265 722 416 1058 201 447 377 768
624 1142 208 314 436 615 599 790 l65 70 1 -33 c0 -48 -39 -223 -150 -657
-178 -701 -260 -1136 -311 -1640 -19 -181 -16 -586 5 -718 50 -320 168 -478
398 -532 95 -22 296 -20 392 5 202 52 399 210 660 533 26 31 49 57 51 57 2 0
20 -28 41 -62 110 -189 253 -303 451 -360 68 -20 101 -23 253 -23 211 0 286
17 455 100 152 75 293 184 465 361 671 690 1253 1940 1431 3077 l12 78 86 58
c97 65 303 219 370 275 24 20 45 35 47 33 2 -1 -26 -84 -62 -182 -178 -497
-403 -1320 -508 -1860 -56 -292 -92 -700 -81 -920 27 -545 138 -797 386 -877
53 -17 91 -20 214 -21 131 0 162 3 245 26 192 52 363 153 532 316 298 285 539
672 728 1166 79 207 113 312 105 326 -14 22 -76 39 -145 39 -124 0 -121 3
-233 -242 -221 -484 -441 -821 -717 -1099 -74 -75 -166 -159 -205 -187 -74
-55 -213 -132 -237 -132 -8 0 -26 21 -41 48 -139 256 -165 813 -67 1397 83
489 272 1242 457 1815 82 257 159 467 258 711 103 250 109 291 50 337 -58 46
-254 57 -366 22 -77 -24 -88 -32 -331 -247 -106 -94 -251 -220 -323 -281
l-130 -111 -8 52 c-47 324 -138 466 -340 537 -128 45 -344 44 -482 -1 -190
-63 -357 -229 -481 -478 -109 -219 -142 -419 -93 -577 18 -57 31 -77 82 -129
46 -45 78 -68 122 -84 170 -65 399 -67 607 -7 l80 24 -7 -37 c-17 -101 -101
-416 -151 -571 -303 -940 -825 -1841 -1337 -2308 -56 -51 -134 -114 -172 -141
-76 -53 -184 -111 -206 -111 -24 0 -112 73 -162 135 -91 112 -196 371 -229
565 -11 66 -11 67 20 118 51 82 166 308 227 442 128 281 219 539 295 835 126
490 175 899 126 1060 -23 77 -78 134 -161 165 -48 18 -82 22 -170 23 -167 1
-264 -33 -363 -127 -142 -134 -261 -393 -377 -826 -146 -542 -186 -1064 -120
-1537 l15 -107 -46 -71 c-145 -220 -395 -526 -551 -676 -110 -106 -138 -126
-157 -110 -21 18 -64 121 -86 206 -43 169 -49 573 -14 915 33 327 124 833 235
1309 174 750 182 788 183 951 0 97 -3 122 -21 162 -42 93 -149 133 -332 125
-141 -6 -210 -28 -320 -101 -282 -188 -845 -932 -1241 -1641 -126 -225 -326
-637 -450 -930 -26 -61 -38 -49 -40 40 -2 54 8 87 89 305 252 670 724 2060
930 2735 211 692 341 1220 388 1575 25 190 25 542 0 660 -32 149 -91 255 -175
310 -78 52 -160 72 -297 72 -215 1 -327 -44 -476 -192 -193 -191 -369 -518
-546 -1015 -59 -164 -183 -579 -199 -661 -5 -25 -11 -34 -26 -34 -15 0 -402
90 -615 143 -24 6 -43 16 -43 22 0 23 39 123 123 315 243 558 332 775 403 987
59 176 64 213 33 242 -53 49 -204 66 -310 35 -81 -24 -129 -80 -221 -259 -127
-250 -287 -641 -428 -1055 -30 -85 -54 -156 -55 -158 -1 -1 -64 7 -141 19
-182 27 -474 23 -626 -10 -328 -71 -660 -269 -846 -504 -74 -94 -79 -107 -52
-129 28 -23 119 -24 181 -3 24 9 85 45 134 80 337 241 521 338 735 386 110 24
193 24 327 -2 169 -32 224 -49 219 -68 -3 -9 -15 -47 -27 -86 -48 -160 -404
-798 -651 -1169 -164 -245 -253 -363 -510 -680 -9 -11 -19 -18 -22 -15 -3 3
-21 60 -41 128 -119 408 -296 629 -573 713 -50 15 -105 21 -222 25 -141 4
-164 2 -251 -20 -261 -68 -408 -204 -572 -532 -144 -289 -191 -465 -191 -721
l0 -151 -32 -12 c-18 -6 -37 -17 -42 -24 -6 -7 -36 -98 -66 -203 -80 -277
-270 -846 -366 -1094 -229 -596 -401 -930 -574 -1117 -98 -105 -108 -105 -160
2 -72 150 -110 368 -122 690 -17 448 74 1085 272 1905 83 345 159 620 429
1545 371 1274 512 1869 589 2485 36 290 46 420 46 620 -1 467 -95 707 -324
820 -125 63 -311 85 -488 59z m6340 -1576 c57 -134 79 -324 63 -549 -21 -283
-71 -547 -186 -987 -36 -136 -65 -250 -65 -251 0 -2 -62 -4 -137 -4 -109 -1
-171 5 -293 27 -152 27 -155 28 -152 52 6 45 83 344 127 494 164 558 370 1013
551 1214 25 28 52 51 59 51 7 0 22 -21 33 -47z m-1878 -1714 c52 -11 205 -43
339 -70 135 -27 245 -50 247 -52 1 -1 -11 -63 -27 -137 -129 -615 -203 -1414
-203 -2190 0 -453 8 -618 49 -1025 l24 -230 -86 -195 c-148 -336 -274 -577
-397 -759 -74 -110 -170 -221 -190 -221 -30 0 -120 146 -170 275 -75 194 -122
420 -153 730 -25 255 -25 965 0 1285 38 489 131 1113 258 1738 61 304 197 872
209 872 3 0 48 -9 100 -21z m1280 -220 c117 -11 247 -8 331 7 l37 6 -44 -148
c-105 -350 -206 -657 -469 -1424 -196 -569 -265 -763 -272 -770 -8 -7 4 625
17 855 26 466 92 1029 167 1414 l16 83 46 -6 c25 -3 102 -11 171 -17z m5226
-161 c36 -44 69 -117 91 -203 13 -53 17 -113 17 -250 1 -252 4 -243 -103 -304
-127 -73 -298 -153 -318 -149 -27 5 -61 63 -74 126 -33 162 37 415 174 625 54
83 151 187 173 187 7 0 25 -15 40 -32z m-9024 -813 c171 -134 317 -490 363
-880 8 -71 15 -133 15 -137 0 -14 -216 -190 -315 -257 -130 -89 -233 -144
-334 -181 -119 -44 -141 -41 -205 23 -101 101 -140 224 -140 437 1 169 21 277
86 455 112 308 256 529 380 585 51 22 73 16 150 -45z m7058 -605 c-41 -319
-191 -893 -297 -1137 -23 -54 -27 -24 -13 101 45 408 176 935 291 1181 l24 50
3 -55 c2 -30 -2 -93 -8 -140z m-6684 -947 c-43 -616 -184 -1211 -385 -1628
-113 -233 -222 -392 -335 -487 -93 -77 -96 -78 -163 -32 -206 142 -331 518
-363 1089 -11 203 -5 397 27 793 14 185 19 213 32 208 9 -3 57 -20 106 -38
l90 -33 215 0 c202 0 221 2 315 27 148 40 327 115 420 177 17 11 34 20 39 20
5 1 6 -41 2 -96z"/>
<path d="M12635 12749 c-71 -4 -197 -19 -280 -33 -348 -61 -1005 -244 -1122
-312 -75 -44 -83 -86 -20 -114 77 -35 170 -25 391 45 60 19 113 35 118 35 5 0
6 -15 4 -32 -21 -123 -25 -382 -16 -887 12 -634 25 -953 39 -980 23 -41 147
-55 211 -23 28 14 36 24 42 57 8 51 25 591 34 1080 7 418 -5 613 -52 832 l-6
31 68 21 c269 79 567 144 743 160 126 12 186 33 186 66 0 49 -115 67 -340 54z"/>
<path d="M10455 12663 c-140 -18 -366 -77 -601 -157 -200 -68 -260 -95 -308
-136 -76 -67 -78 -96 -46 -480 11 -129 27 -415 35 -635 15 -422 28 -602 51
-725 18 -98 40 -120 124 -120 82 0 106 22 124 115 28 138 56 588 56 903 0 153
3 203 13 206 153 44 508 192 541 226 27 27 12 52 -38 64 -48 12 -88 3 -301
-72 -93 -32 -181 -62 -196 -65 l-25 -6 -12 219 c-7 131 -8 228 -3 242 5 13 31
36 58 50 138 76 587 236 683 245 65 5 126 29 135 52 9 24 -36 57 -95 70 -49
11 -132 12 -195 4z"/>
<path d="M14425 12594 c-16 -3 -95 -14 -175 -25 -369 -51 -510 -122 -554 -279
-63 -225 -117 -1278 -88 -1713 15 -213 44 -262 181 -305 70 -21 392 -24 486
-4 80 18 181 50 228 74 53 26 127 96 127 119 0 32 -43 51 -117 51 -57 1 -78
-4 -128 -31 -33 -17 -89 -38 -125 -47 -81 -21 -214 -24 -232 -6 -16 16 -24
600 -11 772 l8 105 210 90 c202 87 290 130 328 163 28 25 21 51 -18 68 -55 23
-126 18 -211 -16 -42 -17 -128 -48 -190 -70 l-114 -39 0 73 c0 100 18 365 35
516 18 161 37 223 74 249 16 12 138 52 270 90 133 38 248 75 257 82 23 19 13
52 -21 68 -30 15 -161 23 -220 15z"/>
<path d="M13201 12503 c-16 -13 -24 -36 -31 -83 -18 -127 -40 -407 -47 -577
l-6 -171 -61 -12 c-34 -6 -122 -27 -196 -47 -74 -19 -145 -37 -157 -40 -23 -5
-23 -4 -24 98 0 57 -8 191 -17 297 -17 188 -18 194 -42 207 -34 19 -105 19
-145 -1 -23 -10 -39 -28 -49 -55 -37 -93 -72 -423 -60 -577 l6 -93 -32 -34
c-36 -38 -35 -69 5 -87 26 -12 22 31 45 -468 14 -281 28 -420 45 -447 30 -45
163 -56 221 -18 l24 15 0 489 0 489 73 30 c79 33 310 108 348 114 l24 3 6
-420 c7 -440 15 -612 29 -651 12 -31 44 -46 100 -46 68 0 90 10 106 48 17 40
30 299 40 797 7 334 7 337 28 337 29 0 86 36 86 55 0 16 -49 45 -78 45 -18 0
-19 12 -26 178 -6 169 -29 468 -42 561 -9 62 -32 81 -98 81 -36 0 -61 -6 -75
-17z"/>
<path d="M8241 12388 c-31 -17 -46 -41 -38 -61 3 -9 43 -41 89 -71 l83 -56
-75 0 c-250 -1 -466 -130 -626 -375 -156 -241 -221 -476 -211 -769 6 -176 20
-243 82 -371 93 -194 273 -335 507 -396 65 -17 112 -22 218 -22 166 0 238 16
375 83 193 95 357 277 500 554 97 191 135 342 135 541 0 253 -65 434 -206 571
-70 69 -107 93 -302 202 -245 136 -340 176 -432 180 -48 2 -84 -2 -99 -10z
m409 -376 c120 -90 169 -142 210 -227 53 -107 65 -173 64 -345 -1 -185 -17
-257 -94 -419 -114 -238 -293 -451 -440 -524 -40 -21 -87 -37 -105 -37 -42 0
-141 50 -198 100 -98 87 -179 246 -208 410 -18 102 -15 324 4 436 45 251 153
475 291 602 74 67 115 80 256 81 l115 1 105 -78z"/>
<path d="M3796 11840 c-660 -83 -1285 -545 -1811 -1340 -638 -965 -970 -2325
-815 -3343 113 -741 403 -1204 905 -1447 220 -106 394 -144 655 -144 279 0
452 40 688 158 426 214 928 698 1362 1314 63 90 65 92 73 65 10 -34 1 -911
-13 -1196 -15 -312 -31 -569 -38 -599 -6 -22 -50 -52 -252 -173 -394 -237
-670 -426 -895 -615 -422 -353 -766 -771 -976 -1185 -162 -319 -232 -568 -232
-830 1 -288 101 -516 281 -640 252 -171 676 -141 1067 76 274 151 567 448 770
779 324 528 550 1344 630 2280 9 102 18 199 21 216 4 29 24 42 342 219 800
446 1085 640 1417 965 l110 108 80 -15 c122 -22 477 -13 610 17 127 27 318 89
449 145 55 24 102 42 104 40 2 -2 -32 -61 -74 -132 -314 -518 -539 -1171 -604
-1748 -15 -133 -12 -424 5 -535 61 -404 249 -665 561 -779 138 -51 223 -64
399 -64 293 -1 485 63 712 234 277 210 570 629 820 1171 61 134 79 164 81 142
26 -272 102 -530 213 -717 62 -105 184 -223 284 -274 119 -62 207 -83 361 -90
254 -11 441 41 647 178 96 65 273 249 349 364 169 255 274 544 309 845 11 100
7 389 -7 450 -5 23 0 29 44 53 79 43 218 136 336 226 l109 83 -7 -41 c-36
-230 -52 -552 -37 -781 43 -642 231 -964 636 -1086 77 -23 113 -27 255 -31
251 -8 394 22 605 127 471 233 814 746 891 1333 27 203 13 464 -37 673 l-12
50 103 100 c127 123 259 275 402 464 l110 145 -7 -365 c-13 -643 22 -1139 120
-1705 41 -241 78 -423 106 -527 34 -126 94 -162 264 -162 76 1 100 5 147 26
31 15 62 37 69 49 8 16 14 116 20 314 4 159 13 340 19 400 72 721 289 1502
576 2080 122 246 113 254 114 -110 1 -555 21 -879 86 -1395 57 -455 61 -470
150 -503 74 -28 242 -21 301 12 23 13 46 36 51 50 6 14 15 85 21 158 61 710
418 1656 828 2196 79 103 270 304 310 326 20 10 23 8 32 -26 17 -61 13 -238
-9 -373 -27 -163 -66 -340 -194 -875 -216 -907 -293 -1293 -365 -1835 -103
-762 -115 -1146 -50 -1494 65 -350 189 -476 466 -476 158 0 247 41 362 166
267 292 616 1043 837 1802 68 236 135 512 129 532 -9 27 -63 45 -135 44 -111
-1 -119 -8 -180 -186 -260 -758 -480 -1266 -724 -1675 -101 -169 -240 -362
-252 -351 -3 3 -15 50 -27 104 -19 89 -22 128 -21 394 0 320 10 445 80 980 69
530 145 949 369 2034 123 598 162 865 153 1060 -10 209 -74 314 -223 367 -131
46 -311 31 -445 -36 -234 -118 -520 -457 -769 -911 -78 -142 -205 -413 -265
-564 -21 -52 -42 -99 -46 -103 -4 -5 -10 83 -14 195 -27 812 -47 934 -161
1015 -72 51 -216 67 -330 38 -159 -41 -275 -187 -476 -600 -154 -316 -288
-675 -394 -1057 -21 -76 -40 -137 -41 -135 -9 9 -27 491 -34 922 -9 584 -11
600 -76 653 -48 40 -100 53 -203 53 -177 0 -224 -35 -480 -365 -221 -284 -425
-526 -435 -515 -2 2 -14 24 -26 49 -37 73 -122 200 -185 274 -191 225 -478
346 -820 346 -371 0 -647 -129 -847 -394 -56 -74 -138 -224 -138 -251 0 -15
-272 -284 -385 -380 -110 -94 -308 -245 -321 -245 -5 0 -20 28 -33 63 -133
346 -360 583 -656 684 -209 71 -491 71 -700 0 -250 -85 -466 -259 -583 -467
-57 -102 -84 -203 -84 -315 0 -79 -4 -105 -18 -125 -17 -25 -47 -93 -208 -480
-119 -284 -197 -454 -289 -630 -390 -747 -826 -1193 -1141 -1167 -204 16 -383
217 -456 512 -96 387 -35 948 174 1585 118 363 226 581 539 1100 71 116 111
193 111 210 0 81 -178 124 -330 80 -19 -5 -87 -39 -150 -76 -320 -182 -655
-322 -890 -369 -91 -18 -299 -18 -332 1 -14 8 -8 20 49 94 155 201 270 404
319 565 23 76 27 109 28 210 0 102 -3 129 -22 176 -63 159 -171 228 -367 236
-129 6 -212 -10 -308 -58 -335 -168 -533 -547 -462 -884 31 -146 137 -301 260
-383 l44 -29 -112 -110 c-291 -285 -570 -477 -1206 -832 l-254 -141 8 222 c17
489 4 1323 -25 1593 -27 250 -62 290 -255 290 -157 0 -182 -20 -335 -250 -239
-360 -533 -719 -821 -1001 -391 -382 -741 -594 -1022 -620 -91 -8 -209 14
-317 59 -496 205 -785 710 -882 1542 -19 164 -16 621 6 825 119 1117 584 2190
1246 2874 328 338 670 542 1010 602 399 69 798 -157 1013 -574 141 -272 204
-555 214 -954 10 -412 -44 -797 -164 -1172 -196 -612 -510 -1099 -800 -1243
-58 -29 -80 -35 -112 -30 -146 19 -317 211 -397 445 -93 271 -82 602 31 947
74 226 242 489 335 524 16 6 44 16 61 22 22 9 29 17 27 33 -10 66 -213 60
-325 -10 -268 -169 -494 -555 -564 -965 -28 -162 -23 -411 9 -531 49 -180 122
-316 230 -430 83 -86 163 -141 266 -182 106 -43 187 -56 342 -56 216 0 359 42
529 154 204 136 398 380 568 713 267 525 402 1134 384 1728 -18 542 -144 952
-393 1271 -185 238 -480 411 -799 470 -104 18 -405 27 -509 14z m3503 -4057
c50 -61 64 -119 58 -242 -3 -70 -12 -128 -26 -171 -44 -131 -150 -315 -274
-473 l-45 -58 -25 33 c-70 94 -101 198 -101 343 0 157 40 288 122 407 66 95
190 198 238 198 14 0 35 -15 53 -37z m6881 -653 c36 -12 92 -38 125 -58 138
-83 302 -291 396 -500 73 -166 78 -145 -50 -241 -150 -111 -283 -194 -416
-257 -155 -73 -231 -95 -351 -101 -93 -5 -106 -3 -157 20 -143 65 -239 216
-267 419 -42 300 178 653 457 734 65 18 182 11 263 -16z m-2787 -460 c121 -38
284 -169 375 -302 75 -110 152 -290 186 -436 l14 -61 -107 -45 c-180 -75 -338
-117 -514 -136 -327 -35 -575 105 -603 340 -27 235 194 551 446 637 81 28 120
28 203 3z m3445 -726 c12 -487 -172 -930 -530 -1281 -172 -168 -397 -293 -530
-293 -62 0 -140 41 -207 109 -141 142 -220 367 -263 746 -13 114 -18 628 -6
640 3 3 28 -5 55 -18 249 -126 672 -129 1007 -6 108 40 262 117 366 183 47 30
90 53 95 52 6 -2 11 -57 13 -132z m-2838 -455 c0 -396 -179 -848 -448 -1130
-97 -103 -179 -164 -276 -210 -89 -41 -132 -46 -188 -21 -189 83 -351 419
-413 857 -16 107 -42 561 -34 570 3 3 39 -6 80 -20 134 -46 253 -66 435 -72
256 -9 519 26 731 96 49 16 94 29 101 30 9 1 12 -25 12 -100z m-7255 -766
c-128 -1017 -385 -1756 -782 -2249 -221 -273 -495 -475 -730 -535 -97 -24
-117 -24 -178 5 -97 45 -189 179 -232 336 -25 92 -25 361 0 480 116 538 545
1173 1118 1652 191 160 402 309 689 486 131 80 135 82 138 58 2 -14 -9 -118
-23 -233z"/>
</g>
</svg>
