<?xml version="1.0" encoding="utf-8"?>
<!-- Generator: Adobe Illustrator 25.0.1, SVG Export Plug-In . SVG Version: 6.00 Build 0)  -->
<svg version="1.1" id="Layer_1" xmlns="http://www.w3.org/2000/svg" xmlns:xlink="http://www.w3.org/1999/xlink" x="0px" y="0px"
	 viewBox="0 0 2400 2400" style="enable-background:new 0 0 2400 2400;" xml:space="preserve">
<g>
	<path transform="translate(0.000000,2400.000000) scale(0.100000,-0.100000)" d="M7638,21769c-309-45-624-280-1013-754
		c-356-435-685-971-896-1462c-24-56-46-97-50-90c-3,7-11,118-18,247c-43,863-114,1360-226,1586c-75,153-168,220-338,245
		c-40,5-103,7-142,3c-265-25-425-179-635-609c-238-487-536-1347-721-2078c-34-136-64-246-66-244s-10,271-18,598
		c-31,1254-51,1534-136,1859c-52,203-148,363-253,425c-97,57-231,80-378,64c-164-17-278-77-424-223c-309-310-633-942-760-1481
		c-34-148-44-379-20-475c23-91,46-110,137-110c39,0,80,5,91,11c19,10,20,17,14,75c-35,339,296,1165,664,1659
		c111,149,243,288,329,343c22,15,25,15,44-9c92-112,168-433,197-834c14-199,28-743,40-1535c15-1006,48-2009,89-2685
		c5-77,5-201,0-275c-11-193-11-836,1-1025c26-397,68-707,109-800c17-37,29-50,67-67c110-48,315-30,368,33c43,51,45,192,11,674
		c-22,298-62,968-81,1328c-15,296-15,330,1,485c57,577,219,1530,355,2092c193,796,529,1774,762,2220c94,181,222,361,245,347
		c21-13,73-180,97-310c59-320,91-710,121-1447c18-459,37-761,70-1164c25-296,25-300,8-440c-21-176-24-590-5-751
		c18-149,59-348,80-392c22-47,55-70,122-88c130-35,318-4,364,58c20,27,21,41,20,220c-1,131-11,297-32,522c-17,182-39,416-48,522
		l-16,191l26,144c107,583,361,1251,696,1828c292,502,722,1033,1015,1253c93,70,233,147,266,147c25,0,93-69,120-122
		c72-141,93-292,86-613c-8-364-43-648-143-1145c-109-539-220-953-634-2365c-251-853-388-1422-490-2025c-99-586-101-1170-5-1530
		c88-327,252-460,570-460c179,0,291,34,415,125c166,122,343,393,500,765c33,80,66,156,72,170c9,22,14,6,33-115
		c85-538,251-789,595-897c67-21,94-23,250-23c163,1,181,3,255,28c120,40,199,91,306,197c396,394,662,1291,686,2315l5,260l137,140
		c153,156,230,243,347,390c84,106,222,291,269,363c15,23,30,40,32,38c3-2-9-84-26-183c-68-398-130-917-151-1270
		c-13-220-13-675,0-863c55-776,226-1221,525-1365c93-45,192-65,323-65c213,1,359,57,491,189c79,79,188,232,262,367
		c23,41,44,72,48,69c4-2,13-29,20-59c15-66,39-99,94-129c38-20,56-22,182-22c124,0,145,2,180,21c69,37,73,46,140,269
		c63,210,265,722,416,1058c201,447,377,768,624,1142c208,314,436,615,599,790l65,70l1-33c0-48-39-223-150-657
		c-178-701-260-1136-311-1640c-19-181-16-586,5-718c50-320,168-478,398-532c95-22,296-20,392,5c202,52,399,210,660,533
		c26,31,49,57,51,57s20-28,41-62c110-189,253-303,451-360c68-20,101-23,253-23c211,0,286,17,455,100c152,75,293,184,465,361
		c671,690,1253,1940,1431,3077l12,78l86,58c97,65,303,219,370,275c24,20,45,35,47,33c2-1-26-84-62-182c-178-497-403-1320-508-1860
		c-56-292-92-700-81-920c27-545,138-797,386-877c53-17,91-20,214-21c131,0,162,3,245,26c192,52,363,153,532,316
		c298,285,539,672,728,1166c79,207,113,312,105,326c-14,22-76,39-145,39c-124,0-121,3-233-242c-221-484-441-821-717-1099
		c-74-75-166-159-205-187c-74-55-213-132-237-132c-8,0-26,21-41,48c-139,256-165,813-67,1397c83,489,272,1242,457,1815
		c82,257,159,467,258,711c103,250,109,291,50,337c-58,46-254,57-366,22c-77-24-88-32-331-247c-106-94-251-220-323-281l-130-111
		l-8,52c-47,324-138,466-340,537c-128,45-344,44-482-1c-190-63-357-229-481-478c-109-219-142-419-93-577c18-57,31-77,82-129
		c46-45,78-68,122-84c170-65,399-67,607-7l80,24l-7-37c-17-101-101-416-151-571c-303-940-825-1841-1337-2308c-56-51-134-114-172-141
		c-76-53-184-111-206-111c-24,0-112,73-162,135c-91,112-196,371-229,565c-11,66-11,67,20,118c51,82,166,308,227,442
		c128,281,219,539,295,835c126,490,175,899,126,1060c-23,77-78,134-161,165c-48,18-82,22-170,23c-167,1-264-33-363-127
		c-142-134-261-393-377-826c-146-542-186-1064-120-1537l15-107l-46-71c-145-220-395-526-551-676c-110-106-138-126-157-110
		c-21,18-64,121-86,206c-43,169-49,573-14,915c33,327,124,833,235,1309c174,750,182,788,183,951c0,97-3,122-21,162
		c-42,93-149,133-332,125c-141-6-210-28-320-101c-282-188-845-932-1241-1641c-126-225-326-637-450-930c-26-61-38-49-40,40
		c-2,54,8,87,89,305c252,670,724,2060,930,2735c211,692,341,1220,388,1575c25,190,25,542,0,660c-32,149-91,255-175,310
		c-78,52-160,72-297,72c-215,1-327-44-476-192c-193-191-369-518-546-1015c-59-164-183-579-199-661c-5-25-11-34-26-34
		s-402,90-615,143c-24,6-43,16-43,22c0,23,39,123,123,315c243,558,332,775,403,987c59,176,64,213,33,242c-53,49-204,66-310,35
		c-81-24-129-80-221-259c-127-250-287-641-428-1055c-30-85-54-156-55-158c-1-1-64,7-141,19c-182,27-474,23-626-10
		c-328-71-660-269-846-504c-74-94-79-107-52-129c28-23,119-24,181-3c24,9,85,45,134,80c337,241,521,338,735,386c110,24,193,24,327-2
		c169-32,224-49,219-68c-3-9-15-47-27-86c-48-160-404-798-651-1169c-164-245-253-363-510-680c-9-11-19-18-22-15s-21,60-41,128
		c-119,408-296,629-573,713c-50,15-105,21-222,25c-141,4-164,2-251-20c-261-68-408-204-572-532c-144-289-191-465-191-721v-151
		l-32-12c-18-6-37-17-42-24c-6-7-36-98-66-203c-80-277-270-846-366-1094c-229-596-401-930-574-1117c-98-105-108-105-160,2
		c-72,150-110,368-122,690c-17,448,74,1085,272,1905c83,345,159,620,429,1545c371,1274,512,1869,589,2485c36,290,46,420,46,620
		c-1,467-95,707-324,820C8001,21773,7815,21795,7638,21769z M13978,20193c57-134,79-324,63-549c-21-283-71-547-186-987
		c-36-136-65-250-65-251c0-2-62-4-137-4c-109-1-171,5-293,27c-152,27-155,28-152,52c6,45,83,344,127,494c164,558,370,1013,551,1214
		c25,28,52,51,59,51S13967,20219,13978,20193z M12100,18479c52-11,205-43,339-70c135-27,245-50,247-52c1-1-11-63-27-137
		c-129-615-203-1414-203-2190c0-453,8-618,49-1025l24-230l-86-195c-148-336-274-577-397-759c-74-110-170-221-190-221
		c-30,0-120,146-170,275c-75,194-122,420-153,730c-25,255-25,965,0,1285c38,489,131,1113,258,1738c61,304,197,872,209,872
		C12003,18500,12048,18491,12100,18479z M13380,18259c117-11,247-8,331,7l37,6l-44-148c-105-350-206-657-469-1424
		c-196-569-265-763-272-770c-8-7,4,625,17,855c26,466,92,1029,167,1414l16,83l46-6C13234,18273,13311,18265,13380,18259z
		 M18606,18098c36-44,69-117,91-203c13-53,17-113,17-250c1-252,4-243-103-304c-127-73-298-153-318-149c-27,5-61,63-74,126
		c-33,162,37,415,174,625c54,83,151,187,173,187C18573,18130,18591,18115,18606,18098z M9582,17285c171-134,317-490,363-880
		c8-71,15-133,15-137c0-14-216-190-315-257c-130-89-233-144-334-181c-119-44-141-41-205,23c-101,101-140,224-140,437
		c1,169,21,277,86,455c112,308,256,529,380,585C9483,17352,9505,17346,9582,17285z M16640,16680c-41-319-191-893-297-1137
		c-23-54-27-24-13,101c45,408,176,935,291,1181l24,50l3-55C16650,16790,16646,16727,16640,16680z M9956,15733
		c-43-616-184-1211-385-1628c-113-233-222-392-335-487c-93-77-96-78-163-32c-206,142-331,518-363,1089c-11,203-5,397,27,793
		c14,185,19,213,32,208c9-3,57-20,106-38l90-33h215c202,0,221,2,315,27c148,40,327,115,420,177c17,11,34,20,39,20
		C9959,15830,9960,15788,9956,15733z M12635,12749c-71-4-197-19-280-33c-348-61-1005-244-1122-312c-75-44-83-86-20-114
		c77-35,170-25,391,45c60,19,113,35,118,35s6-15,4-32c-21-123-25-382-16-887c12-634,25-953,39-980c23-41,147-55,211-23
		c28,14,36,24,42,57c8,51,25,591,34,1080c7,418-5,613-52,832l-6,31l68,21c269,79,567,144,743,160c126,12,186,33,186,66
		C12975,12744,12860,12762,12635,12749z M10455,12663c-140-18-366-77-601-157c-200-68-260-95-308-136c-76-67-78-96-46-480
		c11-129,27-415,35-635c15-422,28-602,51-725c18-98,40-120,124-120c82,0,106,22,124,115c28,138,56,588,56,903c0,153,3,203,13,206
		c153,44,508,192,541,226c27,27,12,52-38,64c-48,12-88,3-301-72c-93-32-181-62-196-65l-25-6l-12,219c-7,131-8,228-3,242
		c5,13,31,36,58,50c138,76,587,236,683,245c65,5,126,29,135,52c9,24-36,57-95,70C10601,12670,10518,12671,10455,12663z M14425,12594
		c-16-3-95-14-175-25c-369-51-510-122-554-279c-63-225-117-1278-88-1713c15-213,44-262,181-305c70-21,392-24,486-4
		c80,18,181,50,228,74c53,26,127,96,127,119c0,32-43,51-117,51c-57,1-78-4-128-31c-33-17-89-38-125-47c-81-21-214-24-232-6
		c-16,16-24,600-11,772l8,105l210,90c202,87,290,130,328,163c28,25,21,51-18,68c-55,23-126,18-211-16c-42-17-128-48-190-70l-114-39
		v73c0,100,18,365,35,516c18,161,37,223,74,249c16,12,138,52,270,90c133,38,248,75,257,82c23,19,13,52-21,68
		C14615,12594,14484,12602,14425,12594z M13201,12503c-16-13-24-36-31-83c-18-127-40-407-47-577l-6-171l-61-12c-34-6-122-27-196-47
		c-74-19-145-37-157-40c-23-5-23-4-24,98c0,57-8,191-17,297c-17,188-18,194-42,207c-34,19-105,19-145-1c-23-10-39-28-49-55
		c-37-93-72-423-60-577l6-93l-32-34c-36-38-35-69,5-87c26-12,22,31,45-468c14-281,28-420,45-447c30-45,163-56,221-18l24,15v489v489
		l73,30c79,33,310,108,348,114l24,3l6-420c7-440,15-612,29-651c12-31,44-46,100-46c68,0,90,10,106,48c17,40,30,299,40,797
		c7,334,7,337,28,337c29,0,86,36,86,55c0,16-49,45-78,45c-18,0-19,12-26,178c-6,169-29,468-42,561c-9,62-32,81-98,81
		C13240,12520,13215,12514,13201,12503z M8241,12388c-31-17-46-41-38-61c3-9,43-41,89-71l83-56h-75c-250-1-466-130-626-375
		c-156-241-221-476-211-769c6-176,20-243,82-371c93-194,273-335,507-396c65-17,112-22,218-22c166,0,238,16,375,83
		c193,95,357,277,500,554c97,191,135,342,135,541c0,253-65,434-206,571c-70,69-107,93-302,202c-245,136-340,176-432,180
		C8292,12400,8256,12396,8241,12388z M8650,12012c120-90,169-142,210-227c53-107,65-173,64-345c-1-185-17-257-94-419
		c-114-238-293-451-440-524c-40-21-87-37-105-37c-42,0-141,50-198,100c-98,87-179,246-208,410c-18,102-15,324,4,436
		c45,251,153,475,291,602c74,67,115,80,256,81l115,1L8650,12012z M3796,11840c-660-83-1285-545-1811-1340
		c-638-965-970-2325-815-3343c113-741,403-1204,905-1447c220-106,394-144,655-144c279,0,452,40,688,158c426,214,928,698,1362,1314
		c63,90,65,92,73,65c10-34,1-911-13-1196c-15-312-31-569-38-599c-6-22-50-52-252-173c-394-237-670-426-895-615
		c-422-353-766-771-976-1185c-162-319-232-568-232-830c1-288,101-516,281-640c252-171,676-141,1067,76c274,151,567,448,770,779
		c324,528,550,1344,630,2280c9,102,18,199,21,216c4,29,24,42,342,219c800,446,1085,640,1417,965l110,108l80-15c122-22,477-13,610,17
		c127,27,318,89,449,145c55,24,102,42,104,40s-32-61-74-132c-314-518-539-1171-604-1748c-15-133-12-424,5-535
		c61-404,249-665,561-779c138-51,223-64,399-64c293-1,485,63,712,234c277,210,570,629,820,1171c61,134,79,164,81,142
		c26-272,102-530,213-717c62-105,184-223,284-274c119-62,207-83,361-90c254-11,441,41,647,178c96,65,273,249,349,364
		c169,255,274,544,309,845c11,100,7,389-7,450c-5,23,0,29,44,53c79,43,218,136,336,226l109,83l-7-41c-36-230-52-552-37-781
		c43-642,231-964,636-1086c77-23,113-27,255-31c251-8,394,22,605,127c471,233,814,746,891,1333c27,203,13,464-37,673l-12,50l103,100
		c127,123,259,275,402,464l110,145l-7-365c-13-643,22-1139,120-1705c41-241,78-423,106-527c34-126,94-162,264-162c76,1,100,5,147,26
		c31,15,62,37,69,49c8,16,14,116,20,314c4,159,13,340,19,400c72,721,289,1502,576,2080c122,246,113,254,114-110
		c1-555,21-879,86-1395c57-455,61-470,150-503c74-28,242-21,301,12c23,13,46,36,51,50c6,14,15,85,21,158c61,710,418,1656,828,2196
		c79,103,270,304,310,326c20,10,23,8,32-26c17-61,13-238-9-373c-27-163-66-340-194-875c-216-907-293-1293-365-1835
		c-103-762-115-1146-50-1494c65-350,189-476,466-476c158,0,247,41,362,166c267,292,616,1043,837,1802c68,236,135,512,129,532
		c-9,27-63,45-135,44c-111-1-119-8-180-186c-260-758-480-1266-724-1675c-101-169-240-362-252-351c-3,3-15,50-27,104
		c-19,89-22,128-21,394c0,320,10,445,80,980c69,530,145,949,369,2034c123,598,162,865,153,1060c-10,209-74,314-223,367
		c-131,46-311,31-445-36c-234-118-520-457-769-911c-78-142-205-413-265-564c-21-52-42-99-46-103c-4-5-10,83-14,195
		c-27,812-47,934-161,1015c-72,51-216,67-330,38c-159-41-275-187-476-600c-154-316-288-675-394-1057c-21-76-40-137-41-135
		c-9,9-27,491-34,922c-9,584-11,600-76,653c-48,40-100,53-203,53c-177,0-224-35-480-365c-221-284-425-526-435-515c-2,2-14,24-26,49
		c-37,73-122,200-185,274c-191,225-478,346-820,346c-371,0-647-129-847-394c-56-74-138-224-138-251c0-15-272-284-385-380
		c-110-94-308-245-321-245c-5,0-20,28-33,63c-133,346-360,583-656,684c-209,71-491,71-700,0c-250-85-466-259-583-467
		c-57-102-84-203-84-315c0-79-4-105-18-125c-17-25-47-93-208-480c-119-284-197-454-289-630c-390-747-826-1193-1141-1167
		c-204,16-383,217-456,512c-96,387-35,948,174,1585c118,363,226,581,539,1100c71,116,111,193,111,210c0,81-178,124-330,80
		c-19-5-87-39-150-76c-320-182-655-322-890-369c-91-18-299-18-332,1c-14,8-8,20,49,94c155,201,270,404,319,565c23,76,27,109,28,210
		c0,102-3,129-22,176c-63,159-171,228-367,236c-129,6-212-10-308-58c-335-168-533-547-462-884c31-146,137-301,260-383l44-29
		l-112-110c-291-285-570-477-1206-832l-254-141l8,222c17,489,4,1323-25,1593c-27,250-62,290-255,290c-157,0-182-20-335-250
		c-239-360-533-719-821-1001c-391-382-741-594-1022-620c-91-8-209,14-317,59c-496,205-785,710-882,1542c-19,164-16,621,6,825
		c119,1117,584,2190,1246,2874c328,338,670,542,1010,602c399,69,798-157,1013-574c141-272,204-555,214-954c10-412-44-797-164-1172
		c-196-612-510-1099-800-1243c-58-29-80-35-112-30c-146,19-317,211-397,445c-93,271-82,602,31,947c74,226,242,489,335,524
		c16,6,44,16,61,22c22,9,29,17,27,33c-10,66-213,60-325-10c-268-169-494-555-564-965c-28-162-23-411,9-531c49-180,122-316,230-430
		c83-86,163-141,266-182c106-43,187-56,342-56c216,0,359,42,529,154c204,136,398,380,568,713c267,525,402,1134,384,1728
		c-18,542-144,952-393,1271c-185,238-480,411-799,470C4201,11844,3900,11853,3796,11840z M7299,7783c50-61,64-119,58-242
		c-3-70-12-128-26-171c-44-131-150-315-274-473l-45-58l-25,33c-70,94-101,198-101,343c0,157,40,288,122,407c66,95,190,198,238,198
		C7260,7820,7281,7805,7299,7783z M14180,7130c36-12,92-38,125-58c138-83,302-291,396-500c73-166,78-145-50-241
		c-150-111-283-194-416-257c-155-73-231-95-351-101c-93-5-106-3-157,20c-143,65-239,216-267,419c-42,300,178,653,457,734
		C13982,7164,14099,7157,14180,7130z M11393,6670c121-38,284-169,375-302c75-110,152-290,186-436l14-61l-107-45
		c-180-75-338-117-514-136c-327-35-575,105-603,340c-27,235,194,551,446,637C11271,6695,11310,6695,11393,6670z M14838,5944
		c12-487-172-930-530-1281c-172-168-397-293-530-293c-62,0-140,41-207,109c-141,142-220,367-263,746c-13,114-18,628-6,640
		c3,3,28-5,55-18c249-126,672-129,1007-6c108,40,262,117,366,183c47,30,90,53,95,52C14831,6074,14836,6019,14838,5944z M12000,5489
		c0-396-179-848-448-1130c-97-103-179-164-276-210c-89-41-132-46-188-21c-189,83-351,419-413,857c-16,107-42,561-34,570
		c3,3,39-6,80-20c134-46,253-66,435-72c256-9,519,26,731,96c49,16,94,29,101,30C11997,5590,12000,5564,12000,5489z M4745,4723
		c-128-1017-385-1756-782-2249c-221-273-495-475-730-535c-97-24-117-24-178,5c-97,45-189,179-232,336c-25,92-25,361,0,480
		c116,538,545,1173,1118,1652c191,160,402,309,689,486c131,80,135,82,138,58C4770,4942,4759,4838,4745,4723z"/>
</g>
</svg>
