<?xml version="1.0" encoding="utf-8"?>
<!-- Generator: Adobe Illustrator 25.2.0, SVG Export Plug-In . SVG Version: 6.00 Build 0)  -->
<svg version="1.1" id="Layer_1" xmlns="http://www.w3.org/2000/svg" xmlns:xlink="http://www.w3.org/1999/xlink" x="0px" y="0px"
	 viewBox="0 0 2200 2200" style="enable-background:new 0 0 2200 2200;" xml:space="preserve">
<g>
	<path d="M1063.23,1230.45c-2.13-49.47-19.95-97.05-50.41-134.56c-4.26-5.23-12.39-14.29-16.79-18.69
		c-21.21-21.21-47.85-39.05-75.85-50.82c-18.54-7.78-39.89-13.51-59.85-16.06c-2.09-0.27-4.35-0.55-4.99-0.63
		c-0.66-0.09-6.51-0.44-13-0.8c-12.17-0.65-15.59-0.67-24.89-0.14c-5.88,0.32-9.95,0.67-15.4,1.36
		c-40.35,4.94-79.01,20.64-111.51,45.28c-44.4,33.64-75.27,82.36-86.66,136.82c-8.8,41.94-5.83,85.36,8.58,125.57
		c4.78,13.33,10.47,25.62,17.59,37.92c20.42,35.33,50.03,64.77,85.52,85.03c27.27,15.58,56.79,25.27,88.41,29
		c5.21,0.62,20.04,1.51,25.29,1.51c21.74,0.03,41.86-2.68,62.99-8.45c24.36-6.66,45.27-15.61,65.13-27.84
		c10.26-6.33,17.7-11.87,27.54-20.62c9.91-8.77,18.23-17.52,26.81-28.09c26.02-32.11,43.37-71.72,49.31-112.69
		C1063.09,1259.29,1063.85,1244.57,1063.23,1230.45z M1025.98,1325.14c-7.7,17.98-19.46,36.86-32.41,52.2
		c-12.23,14.45-26.48,27.32-44.28,39.93c-10.1,7.15-20.59,13.26-32.64,19.03c-18.73,8.96-40.1,14.85-63.14,17.35
		c-13.81,1.52-24.59,1.67-39.41,0.57c-8.91-0.65-11.22-0.93-18.67-2.12c-11.07-1.79-25.53-5.5-36.2-9.25
		c-25.16-8.87-47.87-21.89-68.17-39.11c-22.26-18.88-40.37-42.08-53.71-68.82c-2.54-5.08-7.56-16.97-9.55-22.57
		c-8.07-22.74-12.14-45.25-12.63-70.06c-0.12-7.19,0.85-23.44,1.82-30.53c3.03-21.51,8.4-40.53,16.81-59.42
		c22.31-50.09,62.86-89.79,113.34-110.93c24.97-10.46,51.13-16.01,78.92-16.75c5.15-0.12,24.25,0.8,29.36,1.42
		c23.64,2.94,45.67,9.31,66.72,19.3c25.42,12.07,46.78,28.09,66.07,49.55c8.24,9.13,14.25,17.08,21.33,28.04
		c20.9,32.51,32.85,70.62,34.1,108.73C1044.73,1264.42,1038.96,1294.89,1025.98,1325.14z M885.5,1228.86
		c-8.4-11.7-12.32-29.89-11.83-54.95c0.29-14.87,2.46-27.67,6.12-36c2.68-6.09,7.03-11.43,11.54-14.16
		c1.84-1.09,4.78-2.28,6.79-2.73c2.04-0.45,6.78-0.43,8.69,0.04c8.45,2.06,15.85,9.16,21.31,20.4c4.99,10.28,8.09,24.88,8.59,40.64
		c0.13,3.43,0.14,5.73,0.04,16.52c-0.02,1.58-0.28,4.68-0.55,6.89c-1.14,8.57-3.06,14.83-6.31,20.28
		c-4.55,7.7-10.83,12.62-18.46,14.46c-1.94,0.46-2.49,0.47-6.19,0.28c-4.39-0.24-5.26-0.43-8.81-2.06
		C892.87,1236.84,888.44,1232.96,885.5,1228.86z M732.9,1230.53c-8.4-11.71-12.32-29.89-11.83-54.95c0.29-14.87,2.46-27.67,6.12-36
		c2.68-6.09,7.03-11.43,11.54-14.15c1.84-1.09,4.78-2.28,6.79-2.73c2.04-0.45,6.78-0.43,8.69,0.04c8.45,2.06,15.85,9.16,21.31,20.4
		c4.99,10.28,8.09,24.88,8.59,40.64c0.13,3.43,0.14,5.73,0.05,16.52c-0.02,1.58-0.28,4.67-0.55,6.88
		c-1.14,8.58-3.06,14.83-6.31,20.28c-4.55,7.7-10.83,12.62-18.46,14.46c-1.94,0.46-2.49,0.47-6.19,0.28
		c-4.39-0.24-5.26-0.43-8.81-2.06C740.27,1238.51,735.84,1234.63,732.9,1230.53z M1000.34,1313.2c0.96,3.12,0.09,6.49-2.23,8.53
		c-1.95,1.7-3.27,2.18-5.89,2.02c-3.01-0.15-3.79-0.61-7.03-4.18c-3.55-3.9-5.85-6.26-6.09-6.27c-0.1-0.01-1.4,1.76-2.87,3.9
		c-16.37,24.02-37.47,44.26-61.6,59.1c-44.66,27.45-96.63,34.27-142.62,18.71c-37.48-12.67-68.64-39.71-87.36-75.81
		c-2.71-5.19-5.14-10.51-6.83-14.77c-0.75-1.96-1.41-3.6-1.46-3.65c-0.2-0.25-2.44,1.94-2.95,2.86c-0.72,1.27-2.44,2.82-3.84,3.39
		c-1.67,0.69-3.81,0.9-5.3,0.5c-2.87-0.79-5.02-2.62-6.01-5.17c-0.79-2.01-0.63-4.66,0.42-6.58c1.37-2.55,5.9-6.95,9.76-9.52
		c5.18-3.45,17.91-8.94,27.23-11.76c2.83-0.86,3.39-0.97,5.2-0.86c1.69,0.1,2.24,0.23,3.33,0.82c4.52,2.42,5.7,8.41,2.47,12.36
		c-1.21,1.46-2.57,2.22-5.57,3.09c-2.85,0.84-9.26,3.09-9.71,3.42c-0.35,0.27-0.23,0.63,2.07,6.2
		c17.06,41.45,50.59,71.44,92.39,82.67c4.64,1.23,10.58,2.47,15.84,3.27c5.98,0.91,18.03,1.62,24.09,1.44
		c26.74-0.82,52.35-8.25,76.27-22.07c21.32-12.33,39.85-28.84,55.37-49.34c2.62-3.48,6.29-8.75,8.43-12.09l0.98-1.55l-1.53-1.26
		c-2.26-1.86-6.72-5.38-7.32-5.73c-0.28-0.18-0.72-0.33-0.98-0.35c-1.1-0.07-3.21-1.27-4.33-2.46c-3.94-4.19-2.41-10.99,2.96-13.11
		c1.25-0.47,1.83-0.56,3.86-0.49c1.51,0.04,2.74,0.21,3.32,0.46c4.86,1.94,18.17,12.96,29.16,24.12
		C997.38,1308.57,999.83,1311.54,1000.34,1313.2z"/>
	<path d="M257.08,421.04c4.71,16.95,2.64,40.11,2.64,54.42c0,32.58-2.45,53.86-6.97,64.03c-2.45,5.46-9.98,8.29-20.9,6.97
		c-4.71-0.57-11.49-1.7-19.58-2.64c-9.79-1.32-16.57-2.45-19.58-3.01c-16.01-3.01-33.9-6.21-53.11-10.92
		c-14.88-3.58-25.05-7.35-30.51-11.11c-9.23-6.59-13.94-16.19-13.94-28.81c0-23.54,0.56-50.66,1.32-80.98
		c1.32-46.52,1.88-69.87,3.01-116.57c0.38-11.3,0.56-23.16,0.56-35.78c0-1.13-0.56-4.71-1.32-10.73
		c-2.64-19.21-5.84-35.03-9.6-47.27c-0.57-1.88-0.94-3.58-0.94-5.27c0-6.4,2.64-10.92,7.91-13.56
		c16.57-8.29,36.91-12.81,61.39-12.81c8.66,0,16.38,0.75,22.97,1.88c2.64,2.07,3.96,3.2,6.59,5.27c1.69,3.39,4.14,7.72,4.71,11.3
		c3.01,17.33-1.32,53.11-4.14,95.29c-2.83,42.18-4.14,73.63-4.14,94.73c0,18.27,0.38,28.81,0.94,31.26
		c1.69,7.72,6.59,12.05,14.69,13.18c4.71,0.75,12.05-1.32,21.85-6.03c9.79-4.71,16.76-6.97,20.9-6.59
		C247.66,408.04,255.01,413.69,257.08,421.04z M483.25,273.21c4.71,22.79,6.97,54.8,6.97,95.85c0,98.12-20.34,161.77-60.83,190.21
		c-12.43,8.85-29.94,12.24-52.54,9.98c-19.02-1.88-34.46-8.29-45.95-19.21c-28.44-26.37-45.2-69.3-50.47-128.81
		c-1.32-16.76-2.07-28.06-2.07-33.9c0-55.18,8.29-104.71,25.23-149.71c17.14-46.52,46.7-70.62,88.14-70.62
		c23.35,0,41.24,7.53,53.29,22.41C463.85,212.57,476.66,240.63,483.25,273.21z M410.93,347.59c0-38.61-9.04-58.38-27.31-58.94
		c-5.27-0.19-10.17,3.01-14.31,9.23c-5.84,8.47-8.66,32.01-8.66,70.43c0,17.89,0.94,31.26,3.01,39.74
		c3.77,16.2,11.3,24.67,22.6,25.42c10.73,0.75,17.7-4.52,21.28-15.82c2.26-7.16,3.39-18.08,3.39-32.58V347.59z M727.69,169.25
		c-24.1,0-43.31,3.77-57.81,11.49c-9.23,5.09-13.94,13.56-13.94,25.42c0,4.14,0.57,8.66,1.7,13.18c2.45,9.04,3.58,19.02,3.58,29.94
		c0,25.05-2.26,58.94-6.59,100.94c-1.32,14.5-2.07,21.66-3.39,36.16c-0.56,5.84-1.13,9.04-1.32,9.79
		c-1.13,8.47-3.95,12.81-8.29,12.81c-3.77,0-6.97-10.92-8.66-31.83c-5.09-60.45-7.16-104.33-8.29-128.44
		c-1.7-33.9-3.39-55.37-5.27-63.65c-2.45-11.86-9.79-18.08-21.28-18.08c-1.69,0-6.97,0.57-15.63,1.69
		c-22.03,2.45-35.97,4.71-41.81,6.78c-18.27,6.03-27.49,15.82-27.49,29.76c0,7.72,4.9,19.02,9.6,31.45
		c3.96,10.17,5.08,19.59,5.65,24.1c6.4,49.72,10.92,83.8,13.56,102.63c12.99,107.15,20.9,167.42,23.54,183.24
		c2.45,15.82,7.91,25.42,16.01,28.81c6.59,2.83,22.6,4.33,47.83,3.96c25.05-0.19,41.81-4.33,50.47-11.86
		c5.84-5.09,9.98-13.94,12.24-26.37c13.37-70.62,20.15-106.4,33.52-178.72c16.76-91.15,25.23-149.15,25.23-171.75
		C750.85,176.41,743.13,169.25,727.69,169.25z M874.77,261.91c1.32,0.19,7.72,0,18.83-0.56c7.34-0.38,16.76,2.64,28.25,8.66
		c11.68,6.21,20.15,8.85,25.42,8.66c13.75-0.94,20.72-12.99,20.72-36.53c0-10.17-0.57-18.83-1.88-25.99
		c-0.75-4.52-1.32-7.91-1.32-9.79c-1.13-20.15-5.46-32.58-11.3-34.09c-20.9-5.09-44.63-3.77-59.13-3.77c-1.13,0-4.52-0.19-9.98-0.75
		c-5.46-0.38-9.04-0.75-10.92-0.75h-42.37c0,0.19-3.95,0.57-12.05,1.13c-19.96,1.32-34.27,6.4-42.94,15.25
		c-2.64,6.21-3.96,12.99-3.96,20.34c0,8.1,1.88,19.02,5.65,32.58c4.14,14.88,6.03,25.61,6.03,32.96
		c-0.94,53.67-1.51,80.22-2.64,133.14c-1.13,56.87-1.7,99.25-1.7,127.87c0,21.85,6.21,33.71,18.83,35.59
		c6.4,0.94,20.72-0.38,43.5-4.14c40.49-6.78,67.61-11.86,81.35-14.31l3.96-0.57c1.32-0.38,2.07-0.38,3.39-0.75
		c8.66-1.51,16.76-4.9,23.92-9.79c7.53-14.12,11.3-36.35,11.3-67.23c0-2.45,0.38-7.91,0.94-16.38c0.57-8.29,0.75-13.75,0.75-16.19
		c0-4.14-0.38-8.29-1.32-12.81c-0.75-4.52-2.64-9.04-5.65-13.37c-2.82-4.14-5.65-6.21-8.1-5.84c-3.2,0.38-13.94,5.84-31.83,16.76
		c-18.08,10.73-31.45,16.95-40.49,18.08c-6.97,0.94-11.86,0.19-14.88-2.45c-4.33-3.96-6.4-12.05-6.4-24.48
		c0-19.59,2.82-29.57,8.66-30.32c4.9,2.45,11.3,5.46,19.21,9.23c12.43,5.65,22.98,7.91,31.64,6.97c4.14-0.57,7.91-4.14,11.3-10.92
		c3.01-5.65,4.71-10.92,5.27-15.63v-7.16c0-5.08,0.38-12.81,0.94-23.16c0.57-10.36,0.75-18.08,0.75-22.98
		c0-10.17-0.75-16.95-2.45-20.34c-3.01-5.46-8.29-8.1-16.01-7.53c-5.08,0.38-13.56,3.77-25.42,10.17
		c-11.68,6.59-19.77,9.98-24.11,10.36c-2.26,0-4.52-0.75-6.78-2.64c-2.07-8.66-3.01-16.01-3.01-22.03
		C858.76,273.58,864.03,265.3,874.77,261.91z M1237.66,329.51c0-11.11,0.56-27.68,1.51-49.72c0.94-22.03,1.51-38.42,1.51-49.34
		c0-28.44-1.51-46.14-4.71-53.48c-2.82-6.59-10.55-9.98-22.6-9.98c-5.08,0-11.49,0.94-19.59,2.45c-12.05,2.64-18.08,3.77-30.13,6.4
		c-10.73,2.26-18.83,7.72-24.29,16.2v3.77c0,6.03,1.88,14.69,5.84,26.18c3.96,11.49,6.59,20.9,5.84,25.42
		c0,0.75-0.56,3.95-0.75,8.85c-0.56,14.69-0.56,25.42-0.56,31.45c-0.57,83.61-1.7,129.38-1.7,134.46
		c-0.38,6.21-0.56,9.42-0.94,15.82c-0.19,5.09-0.38,10.55-0.38,16.2v3.95c0.38,0.94,0.38,2.26,0.38,3.58v23.16
		c1.51,8.66,5.46,14.31,11.86,16.38c13.56-1.51,20.34-2.26,33.9-3.77c22.97-2.64,38.61-10.73,46.89-23.92
		c0.94-1.13,1.32-4.33,1.32-9.6c0-15.25-0.57-37.85-1.7-67.42C1238.23,366.8,1237.66,344.58,1237.66,329.51z M1384.36,272.45
		c-17.14-11.49-25.8-20.72-25.8-27.5c0-2.45,0.57-4.71,1.7-6.59c4.14-2.26,8.29-3.39,12.62-3.58c5.84-0.38,15.25,2.82,27.87,9.04
		c12.81,6.4,22.6,9.23,29.19,8.85c8.1-0.38,13.56-5.27,16.2-14.5c2.26-8.47,3.39-18.08,3.39-28.81c0-20.34-5.84-33.33-17.33-39.55
		c-7.91-1.32-24.29-2.07-49.15-2.07c-1.32,0-4.33,0-9.42-0.38c-5.08-0.19-8.29-0.38-9.79-0.38c-2.26,0-7.53,0.75-15.63,2.26
		c-29.57,5.46-52.35,17.7-68.36,37.48c-9.79,12.43-14.69,28.25-14.69,47.27c0,20.53,7.72,38.98,23.35,54.99
		c5.84,6.03,20.53,16.76,44.07,31.83c15.63,9.98,23.35,18.64,23.35,26.37c0,6.4-2.07,10.92-6.4,13.75c-0.94,0.38-2.45,0.75-4.9,1.13
		c-8.85,1.13-20.53-2.07-34.65-9.79c-14.31-7.53-23.35-11.3-27.12-10.92c-5.84,0.75-10.73,3.01-14.69,6.59
		c-5.84,12.62-8.85,25.99-8.85,39.55c0,7.91,0.94,17.7,2.64,29.38c1.51,10.55,2.64,20.34,3.58,29.76c4.9,7.91,13.18,11.3,24.86,9.98
		c13.56-1.51,23.92-2.83,30.88-3.39c2.26-0.19,3.95-0.19,4.9-0.38c0.19,0,0.38,0,0.56,0.19c45.95-7.91,77.96-19.77,96.23-35.4
		c11.3-9.79,20.15-22.03,26.55-36.72c5.84-13.18,8.66-26.55,8.66-39.92c0-19.21-8.47-38.04-25.61-54.42
		C1427.3,301.45,1411.29,290.34,1384.36,272.45z M1856.86,420.29c2.45,16.57,3.77,25.61,3.77,26.55c0,5.84-3.96,9.42-12.05,11.11
		c-12.24,2.45-25.42,3.01-39.74,1.69c-15.07-1.32-27.12-4.89-36.53-10.73c-2.26-6.4-3.96-14.5-4.71-23.92
		c-0.94-10.92-1.51-21.09-3.58-23.92c-1.88-2.45-9.04-4.14-15.07-4.52c-2.07,0-8.66,0.38-19.58,1.32
		c-1.88,3.39-4.14,11.86-6.97,25.24c-1.51,6.59-2.83,12.99-3.96,19.59c-1.13,1.32-3.39,2.26-6.59,3.01
		c-3.01,1.32-4.71,1.88-7.72,3.01c-12.24,2.26-24.48,3.2-36.53,2.82c-12.81-0.38-21.28-1.69-25.61-3.95
		c-4.14-2.45-6.59-6.97-6.21-12.05c0.19-1.88,1.32-8.66,3.01-20.15c1.51-9.42,6.59-30.7,15.25-63.46
		c6.4-23.73,9.6-35.59,16.01-59.32c6.78-25.23,10.17-44.26,10.17-57.63c0-3.77-1.7-9.42-4.71-16.76
		c-3.01-7.35-4.52-12.81-4.52-16.57c0-5.46,2.26-9.98,6.59-13.18c0.57-0.38,3.2-1.7,8.29-3.77c19.96-8.47,45.39-13.75,76.08-15.82
		c10.92-0.75,16.39-1.13,27.31-1.88c17.14,0,30.7,5.27,32.77,12.24c7.53,24.86,7.16,72.69,14.69,119.02
		C1844.81,346.46,1848.76,370.76,1856.86,420.29z M1758.93,300.89c0-4.52-0.57-11.3-1.7-20.34c-1.32-9.04-1.88-15.82-1.88-20.34
		c0-3.01,0.19-5.27,0.57-6.78c-1.88-0.94-2.64-1.32-4.52-2.26c-9.79,26.36-14.69,45.01-14.69,55.37c0,6.78,3.2,10.17,9.6,10.55
		c3.77,0,7.53-0.94,11.3-3.2C1758.37,309.74,1758.93,305.41,1758.93,300.89z M2108.27,180.93c-0.56-6.4-4.14-10.73-10.92-12.99
		c-1.69-0.56-2.82-0.94-3.39-0.94c-18.64,0-35.03,2.26-49.15,6.59c-8.47,2.45-12.62,9.23-12.62,20.34c0,11.3,1.88,33.52,6.03,66.67
		c0.94,7.16,1.32,13.75,1.32,19.4c0,7.72-0.94,15.44-2.64,23.54c-0.38,0.19-0.94,0.38-2.26,0.19c-1.32-0.19-2.83-0.75-4.33-1.7
		c-7.16-19.4-12.99-36.91-16.95-52.92c-4.14-17.14-6.97-30.13-8.66-38.61c-4.9-19.77-8.66-31.45-11.3-35.22
		c-4.14-5.46-12.99-8.66-25.24-8.29c-25.05,1.13-44.44,4.14-54.8,6.4c-11.3,2.45-20.72,6.21-27.87,11.11
		c-1.69,3.2-2.64,6.59-2.64,10.36c0,4.9,1.88,12.05,5.46,21.47c3.58,9.42,5.46,16.57,5.46,21.09c0,21.66-1.13,54.24-3.58,97.74
		c-2.26,43.31-3.39,76.27-3.39,98.3c0,13.37-0.19,19.96-0.38,19.96c1.32,9.04,5.46,13.56,12.05,13.75
		c5.27,2.45,12.05,4.33,20.53,5.65c14.5,2.26,25.42,2.64,32.58,1.32c2.26-0.38,4.71-2.26,7.16-5.27c2.45-3.2,3.77-6.03,3.77-8.29
		c0-6.4-0.75-16.01-2.26-28.63c-1.32-12.81-2.07-22.22-2.07-28.44c0-2.64,0.19-5.09,0.38-7.16v-7.34c0-2.07-0.19-6.78-0.75-13.75
		c-0.75-6.97-0.94-11.3-0.94-13.18c0-6.4,0.94-11.3,3.01-15.07c2.26,2.45,3.77,4.52,4.33,6.03c12.24,36.53,20.53,62.9,24.86,78.15
		c4.33,14.88,6.59,22.41,10.92,37.48c2.83,10.36,6.4,16.38,10.36,18.08c7.16,3.01,16.01,5.65,26.18,7.91
		c22.79,5.27,40.11,7.34,51.79,5.84c9.23-1.32,13.94-16.38,13.94-44.82c0.57-31.45,0.94-47.27,1.7-78.72
		c0.56-34.46,0.75-58.57,0.75-72.13c0.19-12.05,1.13-29.57,2.26-51.98c1.13-21.09,1.7-38.61,1.7-52.35
		C2108.64,190.91,2108.64,184.32,2108.27,180.93z"/>
	<path d="M294.74,766.04c-7.16-58-6.4-115.63-13.94-150.28c-2.26-9.79-14.69-17.89-30.89-20.9c-10.36-1.13-15.63-1.7-25.99-2.83
		c-29-3.2-52.92-2.26-71.94,3.2c-4.71,1.32-7.16,2.26-7.72,2.64c-4.14,2.83-6.21,7.72-6.21,14.5c0,4.52,1.32,11.68,4.33,21.66
		c2.83,9.79,4.33,16.95,4.33,21.66c0,16.19-3.2,38.79-9.6,66.85c-6.03,26.37-9.04,39.36-15.07,64.97
		c-8.29,35.22-13.18,57.44-14.5,67.61c-1.7,12.24-2.64,19.59-2.83,21.66c-0.38,5.84,1.88,11.86,6.03,16.38
		c3.96,4.71,11.86,9.98,23.92,15.44c11.68,5.27,23.16,8.66,34.65,10.17c3.01-0.38,4.33-0.56,7.34-0.94
		c3.01,0.19,5.09-0.38,6.21-1.51c1.13-7.34,2.26-14.69,3.77-21.84c2.64-15.25,4.9-24.67,6.59-28.06
		c10.36,1.88,16.57,3.01,18.46,3.58c5.65,1.88,12.43,5.27,14.31,9.04c2.26,4.14,2.45,16.01,3.39,29.19
		c0.75,11.68,2.26,21.66,4.52,29.76c8.66,8.85,20.34,15.63,34.46,19.59c13.56,3.77,25.99,4.71,37.48,3.01
		c7.72-1.32,11.49-5.46,11.49-12.24c0-1.32-1.13-11.86-3.58-32.02C306.04,856.43,302.27,826.3,294.74,766.04z M219.98,771.69
		c-3.58,1.88-7.16,2.26-10.73,1.32c-6.03-1.69-9.04-6.78-9.04-15.07c0-12.81,4.52-34.09,13.94-64.78c1.7,1.51,2.45,2.26,4.14,3.77
		c-0.38,1.69-0.38,4.52-0.38,8.29c0,5.65,0.57,14.12,1.51,25.42c1.13,11.3,1.7,19.77,1.7,25.42
		C221.11,761.71,220.73,766.8,219.98,771.69z M508.3,656.44c-16.57-23.16-44.26-35.78-83.05-38.79c-22.6-1.69-44.25,0.57-65.16,6.78
		c-6.59,1.88-10.17,3.01-10.55,3.2c-7.53,4.33-11.11,10.36-11.11,18.08c0,6.21,2.07,15.07,6.21,26.74
		c4.33,11.68,6.4,20.53,6.4,26.36c0,0.94,0.38,3.58,0.38,7.91c0.19,3.77,0,7.53,0,10.55c-0.38,37.85-0.57,56.68-1.13,94.16
		c-0.57,29.38-0.75,54.24-0.75,74.2c0,13.18,0.38,28.62,0.75,46.14c0.38,12.99,0.56,19.77,0.75,20.15
		c2.26,13.37,8.66,22.03,19.4,25.99c7.72,2.83,18.83,5.27,33.33,7.16c21.47,2.64,40.87,2.45,58.38-0.19
		c28.44-4.33,49.9-26.36,64.22-65.16c3.01-8.47,5.27-16.57,6.59-24.11c0.75-4.52,1.88-12.81,3.2-24.67
		c3.39-31.45,4.9-57.63,4.9-77.59c0-49.34-7.91-89.64-23.73-120.9C513.38,665.1,510.37,659.83,508.3,656.44z M444.08,863.59
		c-2.26-0.19-7.72-0.94-11.49-3.39c-2.07-1.32-3.77-4.71-4.14-6.78c-0.94-5.09-0.75-20.34-0.75-44.44c0-48.4,2.07-74.01,6.03-76.46
		c2.83-1.51,5.46-2.26,7.91-2.07c6.78,0.57,11.68,5.46,14.88,14.69c6.4,19.96,9.79,40.49,9.79,61.39
		C466.3,845.89,458.96,864.91,444.08,863.59z M787.58,635.35c0,19.59-7.91,71.37-23.92,154.05
		c-12.62,65.35-19.02,96.04-31.64,159.13c-2.26,11.11-6.03,19.21-11.49,24.11c-8.29,7.34-24.1,12.62-47.83,14.88
		c-23.73,2.07-38.98,1.88-45.2-0.19c-7.72-2.45-12.81-10.73-15.25-24.67c-2.45-13.94-9.79-66.85-22.22-162.52
		c-2.45-16.95-6.59-47.27-12.62-91.9c-0.57-4.14-1.88-12.43-5.46-21.66c-4.33-11.3-9.04-21.28-9.04-28.25
		c0-12.62,8.66-21.47,25.99-26.74c5.46-1.88,18.64-3.77,39.36-6.4c8.29-0.94,13.18-1.51,14.88-1.51
		c10.92-0.19,17.89,4.9,20.15,15.44c1.69,7.35,3.39,26.37,4.9,56.31c1.13,21.28,3.2,60.07,7.91,113.18
		c1.7,18.46,4.71,27.87,8.29,27.68c3.96-0.38,6.59-4.33,7.72-11.86c0.38-0.75,0.75-3.58,1.32-8.85c1.32-12.62,1.88-19.02,3.2-31.83
		c4.14-37.29,6.21-67.23,6.21-89.45c0-9.42-1.13-18.27-3.39-26.18c-0.94-3.95-1.51-7.72-1.51-11.49c0-10.55,4.33-18.27,13.18-22.97
		c13.56-7.35,31.83-9.79,54.61-13.37C780.23,617.83,787.58,622.92,787.58,635.35z M889.65,702.01c0,5.27,0.94,11.68,2.82,19.21
		c2.07,1.13,4.33,1.51,6.4,1.13c4.14-0.94,11.68-5.27,22.79-12.99c11.11-7.72,19.21-12.05,24.11-13.18
		c7.34-1.69,12.24-0.38,15.07,4.14c1.51,2.83,2.45,8.66,2.45,17.89c0,4.52-0.38,11.68-0.94,21.09c-0.57,9.42-0.75,16.38-0.75,20.9
		v6.4c-0.56,4.33-2.26,9.42-4.9,14.88c-3.39,6.59-6.97,10.36-10.73,11.49c-8.29,2.07-18.27,1.51-30.13-1.88
		c-7.34-2.07-13.37-3.95-18.08-5.46c-5.46,1.51-8.1,10.73-8.1,28.25c0,10.92,2.07,17.89,6.03,20.9c2.83,1.88,7.53,1.88,14.12,0.19
		c8.47-2.26,21.28-9.42,38.23-21.66c16.95-12.24,26.93-18.64,29.94-19.58c2.45-0.57,5.08,0.75,7.91,4.33
		c2.64,3.39,4.52,7.16,5.27,11.11c0.75,4.14,1.32,7.91,1.32,11.49c0,2.26-0.38,7.34-0.94,15.07c-0.57,7.72-0.75,12.81-0.75,15.07
		c0,28.06-3.58,48.78-10.73,62.33c-6.78,5.46-14.31,9.42-22.6,11.68c-1.32,0.38-1.88,0.57-3.2,0.94c-1.13,0.38-2.45,0.75-3.77,1.13
		c-12.99,3.77-38.61,11.3-77.02,21.47c-21.28,5.84-35.03,8.29-41.05,8.1c-11.86-0.38-17.7-10.17-17.7-29.19
		c0-25.05,0.57-62.33,1.7-112.24c0.94-46.14,1.51-69.49,2.45-116.57c0-6.4-1.88-15.44-5.84-27.68c-3.58-11.49-5.27-20.53-5.27-27.68
		c0-6.21,1.13-12.43,3.77-18.27c8.1-9.04,21.66-15.82,40.68-20.53c7.53-2.07,11.3-3.01,11.3-3.01c15.82-3.01,23.92-4.52,40.11-7.72
		c1.69-0.19,5.08-0.75,10.36-1.32c5.08-0.57,8.29-0.94,9.42-1.13c13.75-2.64,35.59-8.47,55.93-7.72c5.27,0.19,9.6,10.73,10.73,28.63
		c0,1.88,0.38,4.71,1.13,8.85c1.13,6.21,1.7,13.94,1.7,23.16c0,21.28-6.59,33.52-19.58,36.53c-4.9,1.32-12.81,0.19-23.92-3.39
		c-10.92-3.58-19.96-4.52-26.74-3.01c-10.55,2.26-16.57,3.39-17.89,3.39C894.54,682.43,889.65,690.52,889.65,702.01z
		 M1225.23,540.43c0.19,3.2,0.38,9.04,0.38,17.7c0,12.62-0.56,28.62-1.69,48.02c-1.13,20.72-1.88,37.1-2.07,48.4
		c0,12.24-0.19,34.65-0.75,66.66c-0.57,29.57-0.94,44.26-1.7,73.82c0,26.55-4.33,42.94-13.18,49.15
		c-10.92,7.53-27.12,14.5-48.96,21.09c-9.6,3.01-17.89,4.52-24.67,5.08c-3.77,0.38-6.97-3.96-9.79-13.18
		c-4.14-13.18-6.21-19.96-10.36-33.14c-3.95-13.75-11.86-37.29-23.35-71c-0.56-1.51-1.88-3.01-4.14-4.71
		c-1.88,4.71-2.83,10.36-2.83,16.95c0,1.88,0.19,6.4,0.75,13.56c0.57,7.16,0.75,11.86,0.75,14.12v7.91
		c-0.19,2.26-0.38,4.71-0.38,7.53c0,6.59,0.75,16.38,2.07,29c1.32,12.81,2.07,22.41,2.07,29c0,2.45-1.13,6.03-3.39,10.36
		c-2.45,4.52-4.71,7.34-6.97,8.85c-6.78,4.9-17.14,9.42-30.7,13.56c-8.1,2.45-14.5,3.39-19.4,3.01c-6.4,2.64-10.17-0.56-11.49-9.79
		c0.19,0,0.38-7.16,0.38-22.03c0-24.29,1.13-61.02,3.2-110.17c2.26-49.15,3.39-86.06,3.39-110.73c0-5.08-1.7-12.43-5.09-22.22
		c-3.39-9.79-5.27-17.7-5.27-23.35c0-4.33,0.94-8.47,2.45-12.43c6.97-7.16,15.82-13.37,26.37-18.27
		c9.98-4.71,28.06-11.86,51.98-17.89c11.3-3.01,19.96-1.32,23.73,3.58c2.45,3.2,6.03,14.5,10.73,33.33
		c1.69,8.47,4.33,20.9,8.29,37.1c3.58,14.88,9.04,30.88,16.01,47.64c1.32,0.56,2.64,0.56,4.14,0.19c1.13-0.19,1.7-0.57,2.07-0.94
		c1.51-8.47,2.45-16.38,2.45-23.92c0-5.65-0.38-11.86-1.32-18.64c-3.77-31.64-5.65-53.11-5.65-64.41c0-10.92,3.95-18.45,11.86-22.6
		c13.37-7.16,29-12.43,46.52-16.01c0.56,0,1.7,0,3.2,0.19C1221.28,531.58,1224.67,534.97,1225.23,540.43z M1445.38,516.14
		c0,3.2-0.38,7.72-0.94,13.94c-0.56,6.03-0.75,10.73-0.75,13.94v12.43c0,2.07,0.19,4.71,0.38,7.34c0.19,2.64,0,4.52,0,5.09
		c0,18.45-5.46,28.25-16.38,30.32c-3.95,0.75-9.6-1.13-17.33-5.46c-7.72-4.52-13.56-6.4-17.7-5.84c-4.71,2.45-6.97,6.4-6.97,12.05
		c0,13.94,0.19,35.03,0.38,63.28c0.19,28.44,0.38,49.9,0.38,64.41c0,4.9,0.94,12.05,2.64,21.28c1.88,9.23,2.83,16.38,2.83,21.09
		c0,15.82-8.47,27.31-25.24,34.84c-3.58,1.69-18.83,5.84-45.95,13.18c-5.65,1.51-8.47,2.26-14.12,3.77
		c-8.66-2.07-12.99-9.42-12.99-21.85c0-0.94,0-3.95,0.38-8.85c0.19-4.71,0.38-7.91,0.38-9.6c0-0.56-0.19-1.51-0.38-3.01v-3.2
		c0-3.95,0.38-10.73,1.13-20.34c1.13-12.99,1.7-22.6,2.07-28.63c1.13-22.03,3.39-54.99,6.21-97.55c-1.13-1.51-1.32-5.65-0.75-11.86
		c0.19-5.09-1.13-8.47-4.14-9.79c-5.27,1.13-12.05,6.21-20.53,15.25c-8.29,9.04-14.88,14.31-19.77,15.44
		c-8.1,1.88-12.05-6.21-12.05-24.48c0-0.57,0.38-2.45,0.38-5.27c0.19-2.64,0-5.46,0-7.72v-26.93c0-2.45,0.19-5.27,0-8.29
		c0-2.83-0.38-4.9-0.38-5.65c0-16.57,4.33-27.12,7.91-31.45c2.64-3.2,31.64-12.24,87.57-22.6c53.29-9.98,84.93-13.18,95.1-11.3
		C1442.37,495.43,1445.38,503.15,1445.38,516.14z M1668.73,506.72c0,4.14-1.7,11.86-3.2,22.03c-0.94,6.21-0.94,20.53-0.94,41.81
		v68.74c0,24.86-1.13,45.95-3.01,63.09c-3.77,35.03-19.21,56.12-46.33,63.46c-18.45,5.09-36.91,8.29-55.18,9.6
		c-53.48,3.96-82.3-16.2-86.44-63.46c-1.51-18.64-2.45-40.49-2.45-64.78c0-9.23,0.57-23.16,1.7-41.62
		c1.13-18.45,1.7-32.01,1.7-41.05c0-16.2-1.13-28.81-3.01-37.66c-0.19-1.32-1.32-4.52-3.2-9.04c-1.7-3.77-2.45-6.97-2.45-9.42
		c0-9.98,11.68-16.76,35.4-19.77c2.07-0.38,6.97-0.94,13.94-2.26c5.65-0.94,10.36-1.7,13.94-1.88c14.88-0.38,23.16,3.77,25.05,12.43
		c0.38,0.75,0.56,6.4,0.56,16.95c0,10.73-0.56,26.93-1.51,48.78c-0.94,21.84-1.51,38.23-1.51,49.15c0,7.72-1.32,20.53,0.94,31.45
		c0.38,2.45,1.51,7.91,1.51,15.25c0,9.98,4.52,14.88,13.18,14.5c11.3-0.56,17.7-4.33,19.4-11.86c0.19-0.19,0.94-7.91,2.07-22.6
		c1.51-19.77,2.45-38.04,2.45-54.24c0-18.64-1.13-35.97-3.39-51.79c-0.19-1.32-0.56-3.95-1.13-7.34c-3.01-9.23-4.52-14.5-4.52-16.01
		c0-2.82,0.38-5.65,1.13-8.85c6.59-6.78,20.15-11.49,40.3-13.37c9.6-0.75,15.07-1.13,16.57-1.13c9.79,0.19,17.14,1.69,21.66,4.52
		C1666.47,493.35,1668.73,498.81,1668.73,506.72z M1881.34,680.17c-1.13-0.19-2.83-0.19-5.27,0c-2.26,0.19-3.95,0.19-5.08,0
		c-5.46-1.13-10.73-3.77-15.63-8.1c-4.9-4.14-7.34-8.47-7.34-12.81c0-2.45,3.2-5.65,9.42-9.42c10.55-6.03,17.51-11.11,21.09-15.44
		c11.68-13.75,17.7-30.7,17.7-50.66c0-22.22-8.1-41.62-23.92-57.44c-14.5-14.5-34.84-25.05-60.83-31.07
		c-10.73-2.45-18.27-3.77-22.22-4.14c-1.69-0.19-8.66-1.13-19.02-0.94c-2.82,0.19-6.21,0.56-9.42,0.75
		c-1.88,0.19-2.82,0.19-4.52,0.38c-18.46,1.32-29.19,2.45-32.2,3.01c-11.68,2.07-21.09,6.03-27.87,11.49
		c-4.71,3.96-6.97,8.29-6.97,13.56c0,4.14,1.51,10.36,4.71,18.45c3.2,8.1,4.71,14.12,4.71,17.51c0,19.4-0.56,48.78-1.88,88.32
		c-1.13,39.55-1.88,69.68-1.88,89.64c0,16.38,0.19,24.86,0.38,25.42c1.13,6.78,7.16,10.36,18.27,10.92c1.88,0.19,6.21,0.19,12.81,0
		c6.78,0,10.92,0,12.62,0.19c19.21,1.32,29.76-0.75,31.26-6.78c0.94-3.39,1.32-8.1,1.32-14.31c0-4.33-0.38-10.92-1.32-19.59
		c-0.75-8.85-1.13-15.44-1.13-19.77c0-5.27,0.19-9.42,0.75-12.24c1.13-6.4,3.58-9.42,7.34-9.04c2.45,0.19,4.71,1.88,6.59,5.09
		c2.82,4.52,4.33,7.16,4.52,7.34c4.71,19.21,7.91,33.71,10.36,43.13c3.96,16.38,13.37,29.19,27.12,38.04
		c4.33,2.82,9.98,4.9,16.95,6.03c19.58,3.58,34.46-1.88,44.25-17.14c7.53-11.49,11.11-27.31,11.11-47.08
		c0-7.72-0.94-15.82-3.2-24.29C1891.89,687.7,1887.37,681.3,1881.34,680.17z M1808.65,605.59c-3.39,3.39-7.91,4.71-13.75,4.14
		c-13.18-1.51-19.77-5.09-19.77-11.11v-9.6c0-12.24,3.58-18.83,10.73-20.15c0.75-0.19,2.83,0,6.21,0.38
		c14.5,1.51,21.84,9.23,21.84,23.16C1813.92,597.87,1812.04,602.39,1808.65,605.59z M2095.27,768.87c0.75,4.33,1.13,8.29,1.13,11.86
		c0,2.07-0.19,6.78-0.75,13.75c-0.57,7.16-0.75,11.68-0.75,13.94c0,26.93-3.58,44.26-10.73,51.98c-6.97-0.19-14.5-2.07-22.6-5.84
		c-1.32-0.57-2.07-0.94-3.39-1.51c-1.13-0.38-2.26-0.94-3.58-1.51c-12.99-5.84-38.61-16.95-77.02-29.94
		c-21.47-7.35-35.03-11.86-41.05-15.07c-11.86-6.4-17.7-17.7-17.7-34.27c0-21.85,0.57-53.48,1.51-95.29
		c1.13-38.6,1.51-58,2.64-96.42c0-5.09-2.07-13.37-5.84-24.67c-3.58-10.55-5.27-18.46-5.27-24.11c0-5.08,1.13-9.79,3.58-13.75
		c8.29-4.71,21.84-6.03,40.68-3.39c5.84,0.75,9.42,1.32,10.73,1.32c16.38,3.2,24.48,4.9,40.87,8.47c1.51,0.38,4.9,1.32,10.17,3.01
		c5.27,1.69,8.47,2.64,9.42,2.82c13.75,3.39,35.78,7.72,55.93,17.89c5.84,2.83,9.6,14.5,10.73,32.2c0,1.69,0.57,4.71,1.32,8.85
		c1.13,6.4,1.51,14.12,1.51,22.79c0,20.34-6.4,28.06-19.59,23.73c-4.9-1.69-12.81-7.16-23.73-16.19
		c-11.11-8.85-19.96-14.12-26.74-16.2c-10.73-2.82-16.57-4.52-18.08-5.27c-9.98-0.38-15.07,4.52-15.07,14.5
		c0,4.52,0.94,10.55,2.82,17.89c2.26,2.07,4.33,3.58,6.59,4.14c3.95,1.13,11.68,1.13,22.79-0.19c11.11-1.13,19.02-0.94,23.92,0.57
		c7.34,2.26,12.43,6.4,15.07,12.05c1.7,3.39,2.45,9.42,2.45,17.89c0,4.33-0.19,10.73-0.75,19.02c-0.57,8.47-0.94,14.88-0.94,19.02
		v6.03c-0.57,3.77-2.07,7.34-4.9,10.92c-3.2,3.95-6.78,5.27-10.73,3.77c-8.1-3.01-18.08-9.42-29.94-19.02
		c-7.34-6.03-13.37-10.92-18.08-14.69c-5.46-1.69-8.29,5.27-8.29,20.53c0,9.79,2.07,17.14,6.21,22.03c2.83,3.2,7.34,5.84,13.94,8.1
		c8.47,2.82,21.28,3.95,38.23,3.2c17.14-0.56,27.12,0,30.13,1.13c2.45,1.13,5.08,4.14,7.72,9.42
		C2092.64,759.45,2094.33,764.35,2095.27,768.87z"/>
	<path d="M630.71,1052.67c0,4.33-0.19,8.1-0.75,10.92c-1.88,11.86-3.58,22.98-5.08,33.33c-19.02,27.31-32.58,58.38-39.36,91.33
		c-8.47,40.3-6.97,81.73,4.52,121.09c-7.91,45.57-19.02,108.1-33.71,185.31c-1.32,6.4-3.2,13.94-5.46,22.79
		c-0.38,2.07-2.82,5.08-7.34,9.42c-13.94,13.93-40.3,20.34-79.1,17.7c-6.4-0.38-9.79-0.75-16.2-1.13c-4.9-0.57-10.36-0.94-16.2-1.51
		c-17.51-1.7-28.81-7.53-33.9-17.33c-11.11-22.98-21.47-69.68-31.07-141.62c-0.75-8.29-3.39-25.05-7.34-50.28
		c-0.94-2.26-1.88-3.39-2.64-3.58c-5.46-0.94-10.92,12.05-15.63,38.42c-6.59,36.72-12.62,74.01-19.58,109.98
		c-3.77,19.4-12.43,30.7-25.05,33.33c-4.9,0.94-22.79,0-53.29-4.71c-3.2-0.56-9.04-1.32-17.7-2.45c-10.92-3.2-16.57-4.71-27.68-8.29
		c-23.92-7.53-37.85-19.77-41.81-35.4c-2.26-9.04-8.85-80.98-19.59-219.96c-1.88-27.68-4.33-67.79-8.85-125.61
		c-3.58-46.89-13.75-93.41-29-138.41c-1.32-3.96-2.07-7.35-2.07-9.98c0-16.57,16.01-19.77,47.65-13.94
		c23.16,4.14,45.95,9.98,68.17,18.08c9.98,3.58,19.4,6.03,23.16,8.66c1.32,0.94,5.09,5.46,10.92,12.24
		c2.64,3.2,5.84,9.04,6.78,15.25c3.39,22.41,3.58,106.4,8.29,206.21v30.13c0.38,12.62,4.14,20.15,11.49,22.41
		c3.96,1.32,8.1-9.23,11.49-30.88c1.88-12.99,9.6-55.93,23.54-135.78c2.26-11.49,5.46-31.64,10.92-58.94
		c2.83-14.69,17.51-21.85,43.13-22.22c9.42,1.13,24.86,0.94,41.24,2.64c7.15,0.75,17.89,5.65,30.51,12.43
		c5.27,5.46,8.66,16.95,9.98,34.27c3.01,36.72,9.79,110.92,19.77,190.2c2.64,18.83,3.96,28.44,3.96,28.81
		c0,10.17,3.01,15.63,8.85,15.82c0.38,0,0.94-0.19,1.32-0.56c0.38-0.38,0.94-0.57,1.32-0.57c4.52-1.69,8.29-14.12,11.49-37.29
		c0.38-5.46,1.13-14.88,2.07-28.06c3.2-42.56,5.46-77.21,5.46-84.18c0-8.66-1.7-21.84-5.09-39.36s-5.08-30.88-5.08-39.74
		c0-12.24,8.66-22.6,25.99-31.26c17.33-8.85,39.74-13.18,67.23-14.31c16.2-0.56,26.93-0.19,32.39,1.51
		C625.06,1031.39,630.71,1039.67,630.71,1052.67z M1374.57,1190.7c3.77,13.94,5.46,28.44,5.46,42.94c0,37.85-6.03,71.18-18.27,99.25
		c-16.01,37.48-40.49,60.07-72.88,68.36c-11.3,2.83-20.53,3.01-27.68,0.75c-22.6-6.97-38.04-24.67-44.63-52.54
		c-3.96-16.2-9.23-41.43-16.95-74.01c-0.38-0.38-3.01-3.95-7.34-10.92c-3.2-4.52-6.78-6.21-10.92-4.9
		c-6.21,1.88-10.17,9.42-12.05,22.22c-0.94,5.65-1.51,13.56-1.51,23.54c0,8.29,0.75,20.34,2.07,36.16
		c1.32,15.82,2.07,27.87,2.07,36.16c0,11.49-0.57,20.53-2.07,27.31c-2.64,12.62-19.77,23.35-51.22,32.02
		c-2.83,0.75-9.6,3.2-20.71,7.16c-11.11,3.95-18.08,6.4-21.28,7.16c-18.08,5.08-27.87,1.51-29.76-10.36
		c-0.38-0.75-0.57-16.01-0.57-45.95c0-7.72,0-16.38,0.19-25.8c16.76-28.44,28.44-60.45,33.14-93.03
		c2.26-15.25,3.01-31.45,2.45-46.52c-1.7-38.42-12.24-75.89-30.32-109.04c0.38-23.35,0.56-43.12,0.56-59.51
		c0-6.78-2.64-16.95-7.72-30.7c-5.27-13.75-7.91-24.86-7.91-32.96c0-9.98,3.95-19.96,11.49-30.13
		c11.3-14.88,26.55-28.06,45.95-39.55c5.08-3.01,22.6-11.67,52.73-25.8c3.01-1.51,4.52-2.26,7.53-3.77
		c5.27-2.45,10.73-5.46,15.44-7.35c16.57-7.16,28.44-10.17,31.07-10.92c6.78-2.07,19.02-4.52,36.53-6.97
		c42.75-6.21,76.27-0.94,100,14.88c26.18,17.33,39.17,46.33,39.17,87c0,36.53-9.6,72.13-29,107.15
		c-5.84,10.73-17.33,25.8-34.46,45.38c-10.36,12.05-15.63,20.53-15.63,25.05c0,8.29,4.14,14.5,12.24,18.64
		c8.1,4.14,16.57,5.09,25.61,2.64c1.88-0.57,4.71-1.88,8.47-4.14c3.95-2.07,6.59-3.39,8.47-3.95
		C1362.33,1163.02,1369.68,1171.31,1374.57,1190.7z M1241.62,1052.48c0-25.99-12.05-35.22-35.97-27.68
		c-5.27,1.7-8.66,3.01-9.98,3.96c-11.86,7.34-17.7,22.41-17.7,45.2v18.45c0,11.3,10.92,13.37,32.58,6.59
		c9.42-3.01,16.95-8.85,22.6-17.7C1238.79,1072.44,1241.62,1062.83,1241.62,1052.48z M1716.56,808.04
		c-16.57-6.97-68.74-13.37-156.12-6.59c-91.9,7.16-139.55,23.54-143.88,29.19c-6.03,7.35-12.81,25.24-12.81,53.3
		c0,1.32,0.38,4.71,0.56,9.6c0.19,5.08,0,9.98,0,13.94v45.76c0,3.95,0.19,8.66,0,13.37c-0.19,4.71-0.56,7.91-0.56,8.85
		c0,31.26,6.4,45.39,19.58,42.37c8.1-1.88,19.02-10.55,32.77-25.61c13.75-15.25,24.86-23.35,33.33-24.86
		c5.08,2.64,7.34,8.66,6.78,17.33c-0.56,10.73-0.38,18.08,1.32,21.09c-4.52,76.27-8.1,135.59-9.98,175.51
		c-0.57,11.11-1.7,28.25-3.39,51.6c-1.32,17.33-2.07,29.75-2.07,37.1v5.84c0.38,2.83,0.57,4.71,0.57,5.65
		c0,3.01-0.19,8.85-0.57,17.7c-0.38,8.66-0.75,14.12-0.75,16.19c0,22.79,7.34,37.85,21.66,45.2c9.23-0.56,13.75-0.94,22.98-1.51
		c44.63-2.82,69.87-3.77,75.71-5.46c27.49-6.59,41.24-24.86,41.24-55.56c0-8.85-1.51-22.79-4.33-41.43
		c-3.01-18.83-4.52-32.77-4.52-42.18c0-27.68-0.19-69.11-0.56-123.35c-0.57-54.24-0.75-97.17-0.75-120.9
		c0-9.42,3.77-15.44,11.49-18.46c6.78,0.19,16.38,5.09,29,15.07c12.62,9.79,22.22,16.57,28.44,16.76
		c18.08,0.38,27.12-16.57,27.12-47.64c0-0.75,0.19-3.95,0-8.66c-0.38-4.33-0.75-8.66-0.75-12.43v-21.09
		c0-5.27,0.38-12.99,1.32-23.16c0.94-10.17,1.32-17.89,1.32-23.35C1730.69,825.17,1725.98,812.18,1716.56,808.04z M2106.38,1218.2
		c0-29.57,1.13-73.63,3.2-130.51c1.88-56.87,3.01-100,3.01-129.19c0-21.66-3.39-38.42-10.17-50.09
		c-3.58-5.46-11.68-11.49-24.29-17.7c-11.3-5.46-29.38-11.86-54.05-17.89c-22.6-5.46-35.97-6.97-39.92-6.03
		c-8.66,2.07-12.81,11.3-12.81,27.68c0,6.78,1.13,17.14,3.58,31.26c2.64,14.31,3.77,24.86,3.77,31.64c0,1.32-0.19,4.52-0.56,9.79
		c-0.57,5.46-0.75,8.85-0.75,10.55c0,13.56-1.88,22.41-5.46,25.8c-4.52,4.52-14.12,3.95-27.68-0.75
		c-16.57-5.84-31.45-14.12-34.46-21.84c-3.2-8.85-2.07-24.11-2.07-34.46c0-8.47,0.38-21.09,1.13-38.04
		c0.56-16.95,0.94-29.57,0.94-37.85c0-14.69-0.19-23.16-0.57-25.8c-2.26-7.34-5.08-12.24-8.1-15.25c-2.26-1.32-4.71-3.58-6.78-4.71
		c-3.58-1.88-11.3-3.39-20.34-5.27c-30.13-6.59-58.57-6.4-85.12-0.38c-2.26,0.57-3.2,0.75-5.46,1.13c-3.58,0.94-5.65,1.51-6.03,1.88
		c-8.1,4.33-12.24,12.24-12.24,23.73v3.77c3.58,9.23,5.84,14.88,6.78,16.57c7.16,20.9,10.92,45.38,10.92,73.45
		c0,72.5-3.39,209.22-10.17,390.39c2.45,6.78,3.58,9.98,6.03,16.57c3.2,9.23,9.42,15.25,19.02,18.08c0.38,0,8.66,0.94,24.86,3.2
		c10.36,1.51,25.05,2.26,44.07,3.2c22.79,1.13,35.59-0.38,37.85-6.03c5.27-14.31,8.1-34.84,8.1-61.58c0-8.85-0.56-22.41-1.51-40.49
		c-0.75-18.08-1.32-31.64-1.32-40.49c0-19.21,0.19-30.13,0.75-32.39c1.7-13.94,6.97-20.34,15.44-19.4c0.94-0.19,6.78,1.32,17.7,4.71
		c2.26,0.57,3.96,0.94,5.27,0.94c2.45,0.75,3.77,1.13,6.21,1.88c6.78,2.26,12.99,12.05,18.83,28.81v49.15
		c0,5.84-0.38,16.2-1.32,31.45c-0.75,11.68-1.13,17.7-1.32,17.7c0,43.69,2.26,75.7,9.42,86.82c5.08,8.1,15.63,14.12,25.05,17.14
		c0.94,0.19,2.64,0.75,5.27,1.69c1.88,0.57,3.39,0.94,4.14,1.32c0,0,0.38,0,0.75,0.19c1.32,0.38,4.52,1.51,9.98,3.39
		c18.08,6.21,40.3,10.17,67.04,13.56c12.05,1.51,18.27-6.97,18.27-25.99c0-4.9-0.38-11.49-0.75-19.4
		C2107.89,1334.39,2106.38,1278.84,2106.38,1218.2z"/>
	<path d="M409.62,1621.02c0,5.08-0.38,12.43-1.32,22.03c-0.94,9.79-1.32,17.14-1.32,22.22v19.77c0,3.58,0.56,7.72,0.75,11.86
		c0.19,4.33,0,7.34,0,8.1c0,29-9.04,42.75-27.12,41.05c-6.21-0.57-15.82-6.21-28.25-16.95c-12.62-10.73-22.41-16.95-29.19-18.27
		c-7.72,1.32-11.49,6.21-11.49,15.07c0,22.22,0.19,55.37,0.75,99.24c0.38,43.88,0.56,76.65,0.56,98.3c0,7.34,1.51,18.45,4.52,33.14
		c2.82,14.5,4.33,25.23,4.33,32.2c0,23.54-13.75,37.29-41.24,42c-5.84,1.13-31.07,1.69-75.71,1.69h-22.97
		c-14.31-6.97-21.66-20.71-21.66-40.68c0-1.7,0.38-6.4,0.75-13.94c0.38-7.72,0.75-12.81,0.75-15.25c0-0.94-0.38-2.64-0.75-5.09
		v-5.09c0-6.4,0.75-17.33,2.07-32.39c1.69-20.15,2.82-35.22,3.39-44.82c1.88-35.22,5.65-87.19,10.17-155.36
		c-1.88-3.39-2.07-10.17-1.51-19.96c0.75-8.29-1.7-14.88-6.78-19.4c-8.47-2.07-19.58,0.94-33.33,9.6
		c-13.75,8.47-24.67,11.86-32.77,9.79c-13.18-3.39-19.59-21.09-19.59-52.54c0-0.94,0.38-3.95,0.57-8.66c0.38-4.71,0-9.42,0-13.56
		v-46.51c0-4.14,0.38-9.04,0-14.12c-0.19-5.46-0.57-9.04-0.57-10.55c0-28.81,7.72-43.31,12.81-46.7
		c3.77-2.45,51.98,13.56,143.88,37.1c87.38,22.22,139.55,29.94,156.12,37.85C404.91,1586.93,409.62,1599.74,409.62,1621.02z
		 M787.39,1968.47c4.14,23.73,6.21,36.35,6.21,37.85c0,8.47-6.4,14.5-19.02,18.27c-18.83,5.46-39.36,8.1-61.58,8.1
		c-23.35,0-42.18-3.77-56.68-11.3c-3.58-8.85-6.21-20.15-7.34-34.09c-1.51-15.63-2.45-30.88-5.46-34.46
		c-2.83-3.58-14.12-5.46-23.73-5.46c-3.01,0-13.18,1.13-30.32,3.2c-2.83,4.9-6.21,17.7-10.92,37.66c-2.07,9.6-4.14,19.4-6.03,28.81
		c-1.7,1.88-5.09,3.39-10.17,4.9c-4.9,1.88-7.16,2.83-12.05,4.71c-19.02,3.96-37.85,5.84-56.87,5.84c-19.77,0-32.96-1.69-39.55-5.08
		c-6.4-3.39-10.36-9.98-9.79-17.89c0.19-2.64,2.07-12.99,4.9-30.13c2.07-14.31,9.98-46.51,23.54-96.98
		c9.98-37.1,15.07-55.55,25.05-93.03c10.36-40.11,15.44-71.37,15.44-93.22c0-6.21-2.26-15.44-6.97-27.87
		c-4.71-12.43-7.15-21.66-7.15-27.87c0-9.42,3.39-16.57,10.17-21.85c0.94-0.75,5.09-2.64,12.81-6.03
		c31.07-13.56,70.43-22.22,118.27-27.68c16.95-1.88,25.61-2.82,42.56-5.08c26.55-1.51,47.46,5.84,50.66,17.14
		c12.24,42,11.3,119.96,22.98,191.52C768.74,1862.63,774.96,1897.47,787.39,1968.47z M635.41,1800.67c0-7.16-0.94-17.89-2.64-32.2
		c-1.88-14.12-2.83-24.86-2.83-32.2c0-4.9,0.19-8.66,0.75-10.92c-2.83-1.32-4.14-2.07-6.78-3.39
		c-15.25,43.12-22.97,72.32-22.97,88.89c0,10.55,4.9,15.63,14.88,15.63c5.84,0,11.68-1.88,17.51-5.65
		C634.66,1814.61,635.41,1807.83,635.41,1800.67z M1154.99,1477.52c-8.1,2.07-21.28,6.59-39.74,13.75
		c-18.64,7.16-31.64,12.62-39.36,16.38c-16.2,7.72-27.12,16.57-32.96,26.37c-2.26,2.82-4.71,6.59-5.46,9.98
		c-0.94,4.71-1.13,10.73-2.07,15.82c-3.58,23.73-9.98,48.77-18.83,74.76c-3.2,8.47-12.43,32.77-27.68,71.75
		c-5.46,9.6-9.42,14.5-11.49,14.88c-1.88,0.38-3.39-0.19-4.9-1.69c-0.75-20.9-1.32-38.61-1.32-52.54c0-14.12,0.38-35.4,1.13-64.03
		c0.57-28.63,0.94-50.28,0.94-64.41c0-1.32-4.71-6.59-10.17-7.72c-8.47-1.88-23.35,2.45-33.71,5.09
		c-28.81,7.16-55.74,19.4-80.41,36.72c-6.4,4.71-10.36,7.72-12.24,8.85c-5.46,5.46-8.1,11.49-8.1,18.65
		c0,5.27,2.45,11.86,6.78,19.58c4.9,8.85,7.72,15.25,8.1,18.83c1.32,14.12,1.32,23.92,1.32,28.06c0.19,19.02,0.75,43.12,0.75,71.94
		c-0.57,48.02-0.94,71.75-1.32,118.45c-0.56,34.28-0.75,72.5-0.75,114.69c0,19.77,2.26,35.78,6.78,47.83
		c3.2,8.66,12.43,12.99,27.68,12.99c1.88,0,7.53-0.38,16.95-1.13c20.15-1.69,33.9-2.64,41.24-3.01
		c16.95-2.64,29.19-7.53,36.35-15.25c2.26-2.83,3.39-8.66,3.39-17.51c0-5.84-0.38-14.88-0.94-26.74
		c-0.75-11.86-0.94-20.72-0.94-26.55c0-26.55,3.77-46.89,11.49-61.2c0.75-0.57,1.51-0.75,1.88-0.94c1.51,0,3.95,1.32,7.53,4.33
		c6.78,28.44,13.37,53.67,19.59,75.52c9.04,32.02,22.41,54.05,40.49,65.35c7.72,4.71,19.58,7.16,35.78,7.16
		c49.53,0,78.72-37.29,87.19-113.18c2.26-19.4,3.39-32.77,3.39-39.92c0-14.12-2.26-26.93-6.78-38.23
		c-5.65-14.31-14.5-20.72-26.36-19.4c-3.01,0.38-5.84,0.94-8.1,1.7c-3.01,0.38-4.33,0.56-7.34,0.94c-4.14,0.56-6.78,0.56-8.1,0.38
		c-12.24-7.72-20.53-20.34-24.29-37.66c-4.71-20.34-7.91-35.78-10.17-46.33c8.1-28.25,23.54-67.23,45.95-118.08
		c25.61-58.38,42.56-99.24,50.66-120.15c2.64-7.16,3.96-12.43,3.96-15.63C1190.77,1474.31,1178.91,1471.11,1154.99,1477.52z
		 M1369.86,1727.23c0-20.9,0.75-52.16,2.45-93.78c1.51-41.43,2.26-72.31,2.26-92.46c0-52.92-2.45-85.12-7.34-97.55
		c-4.52-11.3-16.2-14.69-35.22-10.17c-7.53,1.7-17.7,5.46-30.32,11.49c-18.64,8.66-28.06,12.99-46.7,21.84
		c-16.57,7.91-29.19,19.96-37.85,36.16v6.21c0,9.79,3.01,23.73,9.23,41.62c6.03,17.89,10.17,33.14,9.04,41.24
		c-0.19,1.32-0.94,6.59-1.32,15.07c-0.94,24.86-0.57,42.94-0.75,52.92c-0.75,141.8-2.64,220.15-2.64,228.81
		c-0.57,10.73-0.75,16.2-1.32,26.93c-0.57,8.85-0.75,18.08-0.75,27.68v6.59c0.56,1.88,0.75,4.14,0.75,6.59v39.36
		c2.26,15.63,8.29,26.37,18.27,32.2c21.09,1.7,31.64,2.64,52.73,4.52c35.59,3.01,59.89-6.59,72.88-29.38
		c1.32-1.69,2.07-7.72,2.07-18.27c0-29.57-0.94-73.26-2.64-130.13C1370.8,1797.66,1369.86,1755.48,1369.86,1727.23z
		 M1738.78,1405.77c-2.64-1.13-4.52-1.88-5.27-1.88c-28.81-1.88-54.42,1.32-76.46,9.04c-12.99,4.33-19.59,17.14-19.59,38.04
		c0,21.28,3.2,62.9,9.42,125.8c1.51,13.56,2.07,25.61,2.07,36.53c0,14.69-1.32,29.76-3.95,45.39c-0.57,0.56-1.7,0.75-3.39,0.75
		c-2.26,0-4.52-0.75-6.78-2.45c-11.3-36.16-20.34-69.49-26.36-99.62c-6.59-32.77-10.92-57.44-13.56-73.63
		c-7.72-37.66-13.56-59.51-17.51-66.48c-6.4-10.55-20.53-16.19-39.17-14.31c-38.8,3.77-69.11,12.43-85.12,18.27
		c-17.7,6.4-32.01,17.14-43.31,29.38c-2.64,6.78-4.14,14.12-4.14,21.47c0,9.79,2.83,23.35,8.47,41.05s8.47,31.07,8.47,40.11
		c0,43.69-1.88,109.79-5.46,200c-3.58,90.21-5.27,159.32-5.27,205.83c0,31.07-0.38,45.01-0.75,41.81
		c2.26,18.83,8.66,27.5,19.02,25.8c8.1,3.77,18.64,5.65,31.64,5.65c22.6,0,39.55-2.64,50.66-8.1c3.58-1.69,7.34-6.21,11.11-13.75
		c3.96-7.34,5.84-13.56,5.84-18.45c0-12.99-1.13-32.58-3.39-58.38c-2.26-25.8-3.39-45.01-3.39-58c0-5.27,0.19-10.17,0.75-14.5
		v-15.25c0-4.33-0.56-13.56-1.32-27.68c-0.94-14.12-1.51-22.97-1.51-26.74c0-12.81,1.69-23.16,4.71-31.07
		c3.77,4.14,6.03,7.91,6.78,11.11c19.02,70.81,31.83,121.84,38.61,151.22c6.78,28.81,10.17,43.32,16.95,72.5
		c4.33,19.77,9.98,30.51,16.2,32.2c11.11,3.01,24.67,4.9,40.49,4.9c35.59,0,62.52-4.33,80.41-12.99
		c14.31-6.78,21.66-37.1,21.66-90.21c1.13-58.76,1.51-87.95,2.64-145.76c0.94-63.46,1.13-107.15,1.32-131.45
		c0.38-22.22,1.51-53.86,3.39-93.97c1.88-37.66,2.83-68.74,2.83-93.22c0-16.95-0.19-28.44-0.75-34.65
		C1754.98,1418.76,1749.14,1410.66,1738.78,1405.77z M2114.48,1721.96c-1.7-2.83-6.4-6.22-14.12-9.98
		c-21.09-9.79-43.88-17.33-68.17-22.41c-23.92-4.9-44.07-5.84-60.26-2.64c-10.73,2.26-16.2,10.55-16.2,24.86
		c0,3.01,0.56,7.53,1.32,13.56c17.14,17.33,25.8,43.69,25.8,79.47c0,10.73,0.38,25.61-3.39,34.27c-2.45,5.27-11.11,8.66-19.59,7.72
		c-2.82-0.19-4.14-0.19-6.78-0.57c-13.18-8.1-22.03-22.22-27.12-42.18c-2.26-9.79-4.52-27.49-6.78-52.92
		c0-0.94-0.19-4.52-0.94-10.92c-0.75-6.4-0.94-10.55-0.94-12.62c0-3.01,0.19-9.42,0.94-19.4c0.75-9.98,0.94-16.38,0.94-19.4
		c0-80.22,15.44-117.51,45.95-111.11c9.04,1.88,23.54,12.24,43.31,31.26c19.77,19.02,35.22,29.76,45.95,32.58
		c9.98,2.45,23.16-1.88,27.68-10.17c6.03-10.92,6.21-34.27,6.21-54.05c0-51.04-5.27-81.17-15.63-90.58
		c-15.25-13.75-39.17-26.55-71.56-36.16c-16.76-4.9-36.35-7.53-58.94-6.78c-24.29,0.57-42.75,5.09-55.37,12.24
		c-64.78,37.66-97.36,129.75-97.36,269.11c0,25.42,1.13,54.42,3.39,87c9.98,145.95,60.45,220.33,151.41,220.33
		c7.72,0,19.4-1.51,34.84-4.52c15.63-3.01,27.12-4.33,34.84-4.33c2.64,0,9.04,0.38,18.83,1.32c9.98,0.75,16.57,1.13,19.59,1.13
		c19.96,0,37.85-6.59,42.56-16.38c6.4-12.99,6.78-57.63,6.78-119.58c0-37.85,0.56-78.53,7.53-113.37c3.77-19.59,8.1-32.96,8.1-37.48
		C2117.31,1730.62,2116.37,1724.97,2114.48,1721.96z"/>
</g>
</svg>
