<?xml version="1.0" encoding="utf-8"?>
<!-- Generator: Adobe Illustrator 25.0.1, SVG Export Plug-In . SVG Version: 6.00 Build 0)  -->
<svg version="1.1" id="Layer_1" xmlns="http://www.w3.org/2000/svg" xmlns:xlink="http://www.w3.org/1999/xlink" x="0px" y="0px"
	 viewBox="0 0 2400 2400" style="enable-background:new 0 0 2400 2400;" xml:space="preserve">
<g>
	<path transform="translate(0.000000,2400.000000) scale(0.100000,-0.100000)" d="M8494,20780c-151-35-397-111-874-270
		c-426-142-827-281-2427-844c-259-91-475-166-480-166s-14,111-21,248c-14,269-27,417-43,500c-9,44-17,57-42,73c-62,37-197,17-216-33
		c-19-52-43-356-57-736c-4-113-11-185-18-190c-6-5-72-30-146-57c-422-151-665-273-754-377c-31-36-36-49-34-82c3-33,8-42,38-58
		c29-16,51-19,126-16c89,3,92,4,145,44c77,58,147,96,277,149c158,64,334,126,340,120c3-3,0-175-7-383c-26-806-31-1009-31-1357v-361
		l-67-33c-218-106-373-211-360-244c12-32,57-50,135-55c67-4,90,0,167,26c50,17,97,33,106,37c14,5,16-88,23-1007
		c10-1541,30-2555,57-2893c11-148,22-172,85-193c61-21,205-12,241,14l28,21l6,184c4,101,13,792,19,1534c7,743,15,1622,19,1955l6,605
		l50,26c28,14,248,127,490,251s647,333,900,466c262,137,493,251,537,266c105,34,120,43,116,69c-5,38-61,57-163,57
		c-174,0-234-25-1225-514l-695-342l-2,110c-2,108-26,1762-27,1860l-1,48l265,95c146,52,792,286,1435,520c1784,648,2163,781,2325,819
		c36,8,75,22,88,30c31,20,29,59-5,81C8783,20804,8602,20805,8494,20780z M10002,19312c-72-26-87-43-142-157
		c-110-226-264-789-377-1375c-20-107-37-196-38-197c0,0-94-6-210-12c-407-21-705-86-903-197c-126-71-213-185-183-241
		c25-47,144-75,228-54c27,7,90,40,143,75c140,93,240,128,455,161c115,18,425,32,425,20c0-5-16-117-35-249c-19-133-44-320-55-416
		c-18-156-30-207-106-473c-471-1651-752-2353-1102-2755c-60-70-150-142-175-142s-93,87-141,180c-55,107-97,238-129,405
		c-46,236-52,317-52,710c1,412,7,500,77,1061l42,341l39,14c60,21,68,41,32,80c-71,74-299,202-445,248c-223,72-480,79-705,19
		c-401-106-701-413-936-958c-303-703-378-1496-178-1892c43-85,128-171,210-212c106-53,195-69,352-64c220,8,352,65,507,218
		c174,172,343,455,491,824l44,108l12-173c55-769,275-1119,723-1146c319-19,560,121,785,457c173,259,298,538,480,1073l101,298l13-203
		c63-1045,272-1726,614-1994c137-107,283-154,483-154c199,0,362,52,510,164c140,105,312,311,441,528c32,54,61,98,64,98s16-48,28-107
		c44-208,95-362,138-421c80-109,371-126,489-29c55,45,88,128,209,512c157,501,272,810,432,1165c156,343,316,640,490,903
		c131,199,311,413,330,393c12-12,8-334-6-486c-17-190-71-610-135-1055c-131-906-164-1284-137-1564c34-346,139-501,381-562
		c86-22,287-17,385,10c164,44,333,151,513,325c101,97,252,268,335,378l51,67l76-72c126-123,242-188,407-229c75-19,114-23,268-22
		c161,0,190,3,276,26c277,75,464,192,724,452c284,285,497,600,750,1106c232,463,440,1011,571,1499c24,91,47,168,51,172
		c5,4,55,28,112,53c254,112,651,359,903,562c37,30,69,54,72,54c2,0-40-91-94-202c-476-982-856-2105-995-2936c-50-305-59-412-60-707
		c0-236,3-292,18-357c40-170,112-257,250-300c59-19,94-23,192-22c103,0,131,4,198,27c438,152,950,644,1316,1264
		c141,240,344,699,324,733c-29,48-162,66-243,34c-38-15-46-25-97-128c-158-315-367-646-559-886c-127-158-359-399-494-512
		c-98-83-240-185-322-231l-47-27l-11,37c-48,174-34,584,36,1043c173,1126,775,2765,1421,3867c45,79,83,154,83,167
		c0,59-103,101-229,94c-108-7-148-28-285-158c-212-199-590-518-821-692c-195-146-578-398-590-387c-2,3,3,61,11,130
		c22,175,15,471-15,588c-27,105-81,210-133,257c-22,20-70,50-107,67c-62,30-75,32-203,35c-125,4-145,2-230-22
		c-209-60-382-195-524-407c-184-276-261-595-196-814c36-120,123-220,242-278c132-65,176-72,432-72h227l-6-25c-3-14-34-110-68-215
		c-217-657-519-1294-844-1782c-151-226-263-365-421-524c-152-153-273-245-405-309c-114-55-189-75-242-65c-108,20-257,141-338,274
		c-43,72-105,207-105,232c0,9,32,72,71,140c335,589,579,1323,645,1941c20,194,15,543-11,658c-23,104-67,191-117,235
		c-105,89-308,100-464,25c-222-108-428-527-568-1157c-85-379-111-628-111-1053c0-360,9-460,61-678l24-103l-42-62
		c-251-373-603-755-805-874l-45-26l-19,24c-25,31-57,117-77,204c-14,57-17,126-16,370c0,328,8,430,84,1025c21,168,57,447,79,620
		c58,453,72,615,78,878c8,321-13,437-95,518c-70,70-213,105-354,85c-154-21-262-86-419-248c-227-236-468-606-713-1093
		c-169-335-338-730-453-1054c-21-60-40-101-42-90c-2,10-27,153-56,318l-53,299l68,193c244,686,464,1551,569,2239
		c105,682,121,1320,42,1698c-60,289-166,463-328,540c-62,29-78,32-188,35c-71,3-142-1-175-8c-239-52-423-277-565-691
		c-46-135-115-401-135-519c-6-36-13-76-16-89l-5-24l-312,7c-313,6-717,23-723,29c-2,1,26,122,62,267c229,931,310,1329,286,1415
		C10282,19316,10118,19353,10002,19312z M11908,18645c122-139,192-459,192-885c0-547-116-1298-321-2077c-63-240-190-675-196-670
		c-11,12-113,756-142,1037c-36,350-44,553-37,915c3,187,10,359,14,383c7,41,10,44,64,66c70,29,137,68,161,94c48,53-13,102-127,104
		c-78,1-75-11-45,162c57,335,158,644,260,792c41,60,105,124,123,124C11862,18690,11886,18670,11908,18645z M10956,17253
		c-28-328-34-736-16-1018c32-479,109-1085,241-1881l49-301l-51-114c-212-470-428-819-631-1016c-68-66-173-143-195-143
		c-27,0-158,145-206,228c-245,418-372,1126-402,2237c-15,570,58,1691,131,2018l16,67h535h536L10956,17253z M17645,17044
		c110-144,124-474,40-914c-15-77-32-146-39-154c-18-24-204-77-288-83l-78-6l-49,49c-31,31-57,71-72,109c-22,54-24,74-23,210
		c0,133,4,160,28,239c62,204,144,353,261,472c78,79,145,126,175,121C17608,17086,17628,17067,17645,17044z M7204,16171
		c54-16,102-33,107-38s-2-30-16-60c-14-29-86-217-160-418c-399-1084-582-1502-810-1846c-77-115-215-279-236-279
		c-24,0-78,146-106,285c-24,124-24,478,1,654c58,417,197,866,361,1167c134,246,302,437,447,509C6940,16218,7029,16223,7204,16171z
		 M15491,15985c20-88,17-435-5-600c-34-255-96-522-183-790c-50-155-183-496-242-620l-38-80l-6,125c-12,211,16,638,59,895
		c43,261,111,546,176,735c70,204,198,445,218,409C15474,16051,15484,16018,15491,15985z M12445,11664c-290-55-652-154-1056-288
		c-380-126-515-183-568-240c-74-79,82-134,253-90c33,9,143,45,244,81s184,64,186,62c1-2-4-69-11-149c-25-256-21-684,10-1095
		c36-473,65-788,82-905c16-108,28-125,101-136c55-8,108,0,140,21c23,15,24,20,24,137c0,232-50,1395-70,1638c-11,135-27,317-34,405
		c-8,88-12,163-9,167c2,4,88,34,191,67c466,150,756,221,897,221c103,0,158,19,163,58c3,18-5,26-45,45c-42,19-67,22-208,24
		C12600,11689,12555,11685,12445,11664z M14486,11320c-247-31-391-102-452-221c-48-95-85-291-116-602c-6-70-15-132-18-137
		c-4-7-19-5-43,5c-46,19-107,19-222,0c-49-8-96-15-102-15c-10,0-13,27-13,103c0,112-24,462-41,596c-25,202-39,224-153,229
		c-93,5-131-12-145-66c-29-107-64-594-60-810l4-164l-195-68c-107-38-197-66-199-64c-3,2-8,62-13,132c-9,132-52,532-68,636
		c-5,33-16,66-24,75c-20,19-115,26-160,11c-22-7-42-22-51-40c-29-56-39-208-40-592v-377l-26-15c-33-19-55-68-42-91c6-9,27-27,49-39
		l39-21l21-240c38-416,74-669,104-726c6-11,26-29,43-39c46-28,159-28,205,0c33,20,34,22,29,78c-38,429-66,977-51,992
		c10,10,370,160,383,160c4,0,15-172,24-382c31-658,44-802,78-830c75-63,248-39,272,37c5,17,12,318,14,677l5,647l92,30
		c50,16,129,41,176,56c47,14,90,28,96,31c7,3,8-20,3-73c-13-140-28-443-34-703c-10-429,7-503,135-567c116-58,172-68,395-68
		c225,0,292,13,431,81c89,44,184,126,184,160c0,41-42,59-140,59c-80,0-90-3-170-42c-151-75-301-93-342-43c-17,20-18,49-18,355
		c0,182,3,406,7,497l6,166l91,31c50,16,183,58,296,91c222,66,293,95,298,123c4,20-50,47-95,47c-15,0-152-31-303-69
		c-151-39-276-68-278-67c-5,6,28,419,44,541c29,232,55,304,119,331c63,26,218,46,411,53c199,6,224,12,224,52c0,25-58,53-150,74
		C14912,11324,14593,11333,14486,11320z M9890,11253c-19-2-91-15-160-29c-236-48-529-161-792-305c-155-85-218-134-255-196
		c-26-44-28-56-27-143c0-78,17-175,92-545c111-547,195-928,223-1013c19-58,25-66,63-83c73-33,180-18,205,29c16,30,14,258-4,430
		c-8,81-29,252-46,380c-17,129-29,235-27,237c2,1,57,24,123,49c137,54,524,224,665,294c80,39,95,51,98,73c4,34-30,49-108,49
		c-46,0-82-9-157-39c-54-21-213-83-353-136c-140-54-264-101-276-105c-20-8-22-3-44,152c-13,92-20,188-18,226c4,63,6,67,50,106
		c55,50,148,106,333,202c237,123,432,194,634,230c73,13,101,23,124,44c25,22,28,29,19,47c-21,38-82,53-210,51
		C9978,11258,9909,11255,9890,11253z M7169,10906c-312-86-590-438-690-875c-26-112-36-349-19-462c32-225,133-425,288-571
		c89-83,181-138,302-179c89-30,106-33,261-37c186-5,264,6,396,58c295,113,536,428,619,807c26,116,23,333-5,438
		c-26,99-78,209-135,290c-49,67-418,433-484,479c-32,22-59,31-114,37c-40,4-89,12-108,18C7433,10924,7226,10921,7169,10906z
		 M7454,10755c27-18,179-195,346-405c133-167,174-277,173-465c0-122-17-209-63-336c-89-244-280-468-460-539c-100-39-168-19-277,84
		c-114,106-192,244-240,421c-24,91-26,117-27,285c0,154,4,202,22,285c64,295,194,533,357,653c53,39,65,43,101,39
		C7408,10775,7439,10765,7454,10755z M5839,8859c-469-45-916-492-1342-1345c-152-303-238-515-358-874c-66-198-78-228-78-190
		c-1,25-8,351-17,725c-17,739-16,927,4,947c38,38-20,78-112,78c-97,0-143-30-171-110c-23-65-52-312-70-595c-52-848-60-2423-14-3095
		c5-80,14-370,19-645c10-572,32-865,80-1036c21-76,81-109,211-117c104-6,188,15,230,58l29,28v139c0,142-11,314-56,908
		c-27,361-27,419,2,765c52,626,178,1334,335,1892c177,630,427,1197,724,1643c51,77,124,178,162,225c153,191,346,351,475,395l58,19
		l41-29c119-85,203-316,216-600c19-412-136-921-428-1405c-130-216-373-567-681-982c-136-183-140-187-237-252
		c-186-123-404-360-480-519c-48-100-41-141,32-179c37-20,57-23,157-23c99,0,122,3,165,23c71,33,227,196,420,440l160,202l72,30
		c220,92,369,84,531-30c182-128,293-347,337-663c19-143,29-343,20-432l-7-74l-271-147c-547-295-762-426-1012-614
		c-455-343-737-714-851-1121c-35-125-45-341-20-437c26-104,64-172,135-243c75-75,153-117,276-150c106-29,368-31,490-5
		c170,37,362,116,512,212c235,150,478,409,676,722c78,123,226,418,288,572c148,373,246,772,265,1083l7,103l99,58
		c381,225,672,455,885,698c91,104,96,108,135,108c65,0,276,46,389,86c180,62,398,175,604,313c33,22,61,39,62,38s-23-83-53-182
		c-113-374-212-814-256-1137c-30-221-33-689-5-871c79-522,242-717,600-717c282,0,481,120,712,430c162,218,357,561,527,924
		c54,116,105,225,113,241c13,28,14,19,14-105c3-514,94-1014,241-1326c122-259,287-431,483-503c66-24,85-26,222-26
		c166,1,212,12,310,77c133,88,418,535,744,1169l97,189l13-133c36-392,154-692,346-882c84-83,170-136,280-172c66-21,104-27,216-31
		c213-7,333,26,497,135c152,100,364,335,502,556l43,68l34-78c100-230,180-352,327-499c224-224,431-314,717-314c155,0,250,20,366,76
		c51,24,95,44,99,44c3,0,21-13,40-29c208-183,631-197,889-30c255,165,608,519,870,874c237,319,445,682,565,985
		c62,155,150,409,150,431c0,34-79,62-160,57c-92-5-114-22-162-126c-279-600-489-943-838-1362c-133-160-444-471-580-580
		c-115-92-245-180-266-180c-37,0-159,126-211,218l-22,39l45,67c169,252,340,694,479,1241c87,344,114,619,81,841
		c-37,251-117,399-254,466c-64,32-72,33-182,33c-109,0-119-2-183-32c-258-122-506-655-593-1273c-26-181-26-677-1-840
		c26-165,60-303,108-431l42-111l-49-49c-59-61-136-113-185-127c-105-28-309,125-446,335c-130,199-241,512-318,895l-25,127l59,148
		c207,519,428,1235,626,2025c212,843,244,1279,115,1545c-39,78-119,154-198,184c-71,27-242,37-335,20c-188-37-336-169-454-406
		c-140-279-285-810-362-1325c-24-160-51-421-51-495c0-28-3-55-6-58c-4-3-33,18-66,48c-146,132-365,184-590,141
		c-390-75-647-389-828-1012c-43-149-62-190-308-654c-262-494-477-868-667-1161c-92-142-268-381-303-413c-20-18-22-18-52,4
		c-18,12-55,51-84,86c-182,220-302,598-363,1144c-14,123-18,240-18,560c1,425,8,557,60,1040c27,250,27,252-38,287
		c-24,14-55,18-132,18c-84,0-107-4-142-22c-37-20-45-31-71-100c-16-43-56-145-87-228c-82-213-277-667-384-891
		c-224-471-452-868-669-1169c-87-119-287-335-310-335c-20,0-79,135-107,242c-42,169-57,297-62,568c-4,194-1,297,12,430
		c34,361,124,816,270,1365c47,176,85,337,85,358c0,30-7,45-29,66c-74,69-267,79-386,19c-22-11-116-73-210-138
		c-228-157-348-235-480-308c-107-59-333-158-341-149c-3,2,20,53,50,113c102,203,147,382,127,510c-32,206-170,314-401,314
		c-208,0-382-92-506-266c-231-323-189-715,91-846c36-16,65-33,65-38c0-4-57-66-127-136c-138-139-289-265-449-374l-101-69l-12,112
		c-62,580-322,920-792,1038c-61,15-130,22-246,26c-90,3-163,7-163,9s44,63,98,136c501,676,693,995,836,1392
		c201,554,193,1117-20,1437C6342,8805,6128,8886,5839,8859z M15369,7512c115-179,103-562-35-1181c-83-369-270-1029-427-1500l-71-216
		l-9,115c-12,175-1,898,17,1079c60,604,201,1251,335,1536c53,113,124,215,150,215C15334,7560,15352,7538,15369,7512z M7820,5932
		c27-97,1-252-66-399c-42-92-123-233-134-233c-21,0-53,109-58,196c-9,167,52,341,160,460l52,56l18-22C7802,5978,7814,5952,7820,5932
		z M13930,5463c32-16,87-60,131-103c62-62,85-95,127-179c29-56,52-110,52-118s13-27,30-43l29-27l11-244c17-393,45-669,97-948l27-144
		l-49-91c-117-219-260-440-385-594c-127-159-302-314-391-347c-22-8-91,45-144,112c-60,76-147,255-179,368c-49,173-68,314-73,552
		c-3,133-1,274,6,350c44,490,206,1040,375,1277c52,72,148,165,197,189C13839,5496,13866,5494,13930,5463z M16628,5153
		c43-55,80-134,104-221c18-64,22-105,22-242c0-224-31-389-131-695c-105-323-351-897-367-855c-13,37-37,242-48,418
		c-32,504,58,1064,227,1417c48,101,127,215,149,215C16592,5190,16612,5173,16628,5153z M6235,3838c-2-13-9-52-16-88
		c-42-251-156-609-286-899c-219-490-496-854-805-1058c-158-104-306-160-396-150c-83,9-160,83-203,196c-31,79-37,245-14,366
		c54,287,230,582,516,862c172,168,427,355,714,526c129,77,477,267,488,267C6237,3860,6238,3850,6235,3838z M11073,7005
		c-103-47-313-276-384-417l-30-60l-35,53c-47,72-120,146-169,171s-154,35-212,19c-57-16-93-60-93-114c0-119,197-394,362-503
		c111-74,200-107,293-108c70-1,86,2,126,26c58,34,168,151,228,243c68,104,177,324,206,418c67,209,19,297-160,297
		C11141,7030,11114,7025,11073,7005z"/>
</g>
</svg>
