<?xml version="1.0" standalone="no"?>
<!DOCTYPE svg PUBLIC "-//W3C//DTD SVG 20010904//EN"
 "http://www.w3.org/TR/2001/REC-SVG-20010904/DTD/svg10.dtd">
<svg version="1.0" xmlns="http://www.w3.org/2000/svg"
 width="2400.000000pt" height="2400.000000pt" viewBox="0 0 2400.000000 2400.000000"
 preserveAspectRatio="xMidYMid meet">

<g transform="translate(0.000000,2400.000000) scale(0.100000,-0.100000)"
fill="#000000" stroke="none">
<path d="M8494 20780 c-151 -35 -397 -111 -874 -270 -426 -142 -827 -281
-2427 -844 -259 -91 -475 -166 -480 -166 -5 0 -14 111 -21 248 -14 269 -27
417 -43 500 -9 44 -17 57 -42 73 -62 37 -197 17 -216 -33 -19 -52 -43 -356
-57 -736 -4 -113 -11 -185 -18 -190 -6 -5 -72 -30 -146 -57 -422 -151 -665
-273 -754 -377 -31 -36 -36 -49 -34 -82 3 -33 8 -42 38 -58 29 -16 51 -19 126
-16 89 3 92 4 145 44 77 58 147 96 277 149 158 64 334 126 340 120 3 -3 0
-175 -7 -383 -26 -806 -31 -1009 -31 -1357 l0 -361 -67 -33 c-218 -106 -373
-211 -360 -244 12 -32 57 -50 135 -55 67 -4 90 0 167 26 50 17 97 33 106 37
14 5 16 -88 23 -1007 10 -1541 30 -2555 57 -2893 11 -148 22 -172 85 -193 61
-21 205 -12 241 14 l28 21 6 184 c4 101 13 792 19 1534 7 743 15 1622 19 1955
l6 605 50 26 c28 14 248 127 490 251 242 124 647 333 900 466 262 137 493 251
537 266 105 34 120 43 116 69 -5 38 -61 57 -163 57 -174 0 -234 -25 -1225
-514 l-695 -342 -2 110 c-2 108 -26 1762 -27 1860 l-1 48 265 95 c146 52 792
286 1435 520 1784 648 2163 781 2325 819 36 8 75 22 88 30 31 20 29 59 -5 81
-40 27 -221 28 -329 3z"/>
<path d="M10002 19312 c-72 -26 -87 -43 -142 -157 -110 -226 -264 -789 -377
-1375 -20 -107 -37 -196 -38 -197 0 0 -94 -6 -210 -12 -407 -21 -705 -86 -903
-197 -126 -71 -213 -185 -183 -241 25 -47 144 -75 228 -54 27 7 90 40 143 75
140 93 240 128 455 161 115 18 425 32 425 20 0 -5 -16 -117 -35 -249 -19 -133
-44 -320 -55 -416 -18 -156 -30 -207 -106 -473 -471 -1651 -752 -2353 -1102
-2755 -60 -70 -150 -142 -175 -142 -25 0 -93 87 -141 180 -55 107 -97 238
-129 405 -46 236 -52 317 -52 710 1 412 7 500 77 1061 l42 341 39 14 c60 21
68 41 32 80 -71 74 -299 202 -445 248 -223 72 -480 79 -705 19 -401 -106 -701
-413 -936 -958 -303 -703 -378 -1496 -178 -1892 43 -85 128 -171 210 -212 106
-53 195 -69 352 -64 220 8 352 65 507 218 174 172 343 455 491 824 l44 108 12
-173 c55 -769 275 -1119 723 -1146 319 -19 560 121 785 457 173 259 298 538
480 1073 l101 298 13 -203 c63 -1045 272 -1726 614 -1994 137 -107 283 -154
483 -154 199 0 362 52 510 164 140 105 312 311 441 528 32 54 61 98 64 98 3 0
16 -48 28 -107 44 -208 95 -362 138 -421 80 -109 371 -126 489 -29 55 45 88
128 209 512 157 501 272 810 432 1165 156 343 316 640 490 903 131 199 311
413 330 393 12 -12 8 -334 -6 -486 -17 -190 -71 -610 -135 -1055 -131 -906
-164 -1284 -137 -1564 34 -346 139 -501 381 -562 86 -22 287 -17 385 10 164
44 333 151 513 325 101 97 252 268 335 378 l51 67 76 -72 c126 -123 242 -188
407 -229 75 -19 114 -23 268 -22 161 0 190 3 276 26 277 75 464 192 724 452
284 285 497 600 750 1106 232 463 440 1011 571 1499 24 91 47 168 51 172 5 4
55 28 112 53 254 112 651 359 903 562 37 30 69 54 72 54 2 0 -40 -91 -94 -202
-476 -982 -856 -2105 -995 -2936 -50 -305 -59 -412 -60 -707 0 -236 3 -292 18
-357 40 -170 112 -257 250 -300 59 -19 94 -23 192 -22 103 0 131 4 198 27 438
152 950 644 1316 1264 141 240 344 699 324 733 -29 48 -162 66 -243 34 -38
-15 -46 -25 -97 -128 -158 -315 -367 -646 -559 -886 -127 -158 -359 -399 -494
-512 -98 -83 -240 -185 -322 -231 l-47 -27 -11 37 c-48 174 -34 584 36 1043
173 1126 775 2765 1421 3867 45 79 83 154 83 167 0 59 -103 101 -229 94 -108
-7 -148 -28 -285 -158 -212 -199 -590 -518 -821 -692 -195 -146 -578 -398
-590 -387 -2 3 3 61 11 130 22 175 15 471 -15 588 -27 105 -81 210 -133 257
-22 20 -70 50 -107 67 -62 30 -75 32 -203 35 -125 4 -145 2 -230 -22 -209 -60
-382 -195 -524 -407 -184 -276 -261 -595 -196 -814 36 -120 123 -220 242 -278
132 -65 176 -72 432 -72 l227 0 -6 -25 c-3 -14 -34 -110 -68 -215 -217 -657
-519 -1294 -844 -1782 -151 -226 -263 -365 -421 -524 -152 -153 -273 -245
-405 -309 -114 -55 -189 -75 -242 -65 -108 20 -257 141 -338 274 -43 72 -105
207 -105 232 0 9 32 72 71 140 335 589 579 1323 645 1941 20 194 15 543 -11
658 -23 104 -67 191 -117 235 -105 89 -308 100 -464 25 -222 -108 -428 -527
-568 -1157 -85 -379 -111 -628 -111 -1053 0 -360 9 -460 61 -678 l24 -103 -42
-62 c-251 -373 -603 -755 -805 -874 l-45 -26 -19 24 c-25 31 -57 117 -77 204
-14 57 -17 126 -16 370 0 328 8 430 84 1025 21 168 57 447 79 620 58 453 72
615 78 878 8 321 -13 437 -95 518 -70 70 -213 105 -354 85 -154 -21 -262 -86
-419 -248 -227 -236 -468 -606 -713 -1093 -169 -335 -338 -730 -453 -1054 -21
-60 -40 -101 -42 -90 -2 10 -27 153 -56 318 l-53 299 68 193 c244 686 464
1551 569 2239 105 682 121 1320 42 1698 -60 289 -166 463 -328 540 -62 29 -78
32 -188 35 -71 3 -142 -1 -175 -8 -239 -52 -423 -277 -565 -691 -46 -135 -115
-401 -135 -519 -6 -36 -13 -76 -16 -89 l-5 -24 -312 7 c-313 6 -717 23 -723
29 -2 1 26 122 62 267 229 931 310 1329 286 1415 -20 71 -184 108 -300 67z
m1906 -667 c122 -139 192 -459 192 -885 0 -547 -116 -1298 -321 -2077 -63
-240 -190 -675 -196 -670 -11 12 -113 756 -142 1037 -36 350 -44 553 -37 915
3 187 10 359 14 383 7 41 10 44 64 66 70 29 137 68 161 94 48 53 -13 102 -127
104 -78 1 -75 -11 -45 162 57 335 158 644 260 792 41 60 105 124 123 124 8 0
32 -20 54 -45z m-952 -1392 c-28 -328 -34 -736 -16 -1018 32 -479 109 -1085
241 -1881 l49 -301 -51 -114 c-212 -470 -428 -819 -631 -1016 -68 -66 -173
-143 -195 -143 -27 0 -158 145 -206 228 -245 418 -372 1126 -402 2237 -15 570
58 1691 131 2018 l16 67 535 0 536 0 -7 -77z m6689 -209 c110 -144 124 -474
40 -914 -15 -77 -32 -146 -39 -154 -18 -24 -204 -77 -288 -83 l-78 -6 -49 49
c-31 31 -57 71 -72 109 -22 54 -24 74 -23 210 0 133 4 160 28 239 62 204 144
353 261 472 78 79 145 126 175 121 8 -1 28 -20 45 -43z m-10441 -873 c54 -16
102 -33 107 -38 5 -5 -2 -30 -16 -60 -14 -29 -86 -217 -160 -418 -399 -1084
-582 -1502 -810 -1846 -77 -115 -215 -279 -236 -279 -24 0 -78 146 -106 285
-24 124 -24 478 1 654 58 417 197 866 361 1167 134 246 302 437 447 509 148
73 237 78 412 26z m8287 -186 c20 -88 17 -435 -5 -600 -34 -255 -96 -522 -183
-790 -50 -155 -183 -496 -242 -620 l-38 -80 -6 125 c-12 211 16 638 59 895 43
261 111 546 176 735 70 204 198 445 218 409 4 -8 14 -41 21 -74z"/>
<path d="M12445 11664 c-290 -55 -652 -154 -1056 -288 -380 -126 -515 -183
-568 -240 -74 -79 82 -134 253 -90 33 9 143 45 244 81 101 36 184 64 186 62 1
-2 -4 -69 -11 -149 -25 -256 -21 -684 10 -1095 36 -473 65 -788 82 -905 16
-108 28 -125 101 -136 55 -8 108 0 140 21 23 15 24 20 24 137 0 232 -50 1395
-70 1638 -11 135 -27 317 -34 405 -8 88 -12 163 -9 167 2 4 88 34 191 67 466
150 756 221 897 221 103 0 158 19 163 58 3 18 -5 26 -45 45 -42 19 -67 22
-208 24 -135 2 -180 -2 -290 -23z"/>
<path d="M14486 11320 c-247 -31 -391 -102 -452 -221 -48 -95 -85 -291 -116
-602 -6 -70 -15 -132 -18 -137 -4 -7 -19 -5 -43 5 -46 19 -107 19 -222 0 -49
-8 -96 -15 -102 -15 -10 0 -13 27 -13 103 0 112 -24 462 -41 596 -25 202 -39
224 -153 229 -93 5 -131 -12 -145 -66 -29 -107 -64 -594 -60 -810 l4 -164
-195 -68 c-107 -38 -197 -66 -199 -64 -3 2 -8 62 -13 132 -9 132 -52 532 -68
636 -5 33 -16 66 -24 75 -20 19 -115 26 -160 11 -22 -7 -42 -22 -51 -40 -29
-56 -39 -208 -40 -592 l0 -377 -26 -15 c-33 -19 -55 -68 -42 -91 6 -9 27 -27
49 -39 l39 -21 21 -240 c38 -416 74 -669 104 -726 6 -11 26 -29 43 -39 46 -28
159 -28 205 0 33 20 34 22 29 78 -38 429 -66 977 -51 992 10 10 370 160 383
160 4 0 15 -172 24 -382 31 -658 44 -802 78 -830 75 -63 248 -39 272 37 5 17
12 318 14 677 l5 647 92 30 c50 16 129 41 176 56 47 14 90 28 96 31 7 3 8 -20
3 -73 -13 -140 -28 -443 -34 -703 -10 -429 7 -503 135 -567 116 -58 172 -68
395 -68 225 0 292 13 431 81 89 44 184 126 184 160 0 41 -42 59 -140 59 -80 0
-90 -3 -170 -42 -151 -75 -301 -93 -342 -43 -17 20 -18 49 -18 355 0 182 3
406 7 497 l6 166 91 31 c50 16 183 58 296 91 222 66 293 95 298 123 4 20 -50
47 -95 47 -15 0 -152 -31 -303 -69 -151 -39 -276 -68 -278 -67 -5 6 28 419 44
541 29 232 55 304 119 331 63 26 218 46 411 53 199 6 224 12 224 52 0 25 -58
53 -150 74 -88 19 -407 28 -514 15z"/>
<path d="M9890 11253 c-19 -2 -91 -15 -160 -29 -236 -48 -529 -161 -792 -305
-155 -85 -218 -134 -255 -196 -26 -44 -28 -56 -27 -143 0 -78 17 -175 92 -545
111 -547 195 -928 223 -1013 19 -58 25 -66 63 -83 73 -33 180 -18 205 29 16
30 14 258 -4 430 -8 81 -29 252 -46 380 -17 129 -29 235 -27 237 2 1 57 24
123 49 137 54 524 224 665 294 80 39 95 51 98 73 4 34 -30 49 -108 49 -46 0
-82 -9 -157 -39 -54 -21 -213 -83 -353 -136 -140 -54 -264 -101 -276 -105 -20
-8 -22 -3 -44 152 -13 92 -20 188 -18 226 4 63 6 67 50 106 55 50 148 106 333
202 237 123 432 194 634 230 73 13 101 23 124 44 25 22 28 29 19 47 -21 38
-82 53 -210 51 -64 0 -133 -3 -152 -5z"/>
<path d="M7169 10906 c-312 -86 -590 -438 -690 -875 -26 -112 -36 -349 -19
-462 32 -225 133 -425 288 -571 89 -83 181 -138 302 -179 89 -30 106 -33 261
-37 186 -5 264 6 396 58 295 113 536 428 619 807 26 116 23 333 -5 438 -26 99
-78 209 -135 290 -49 67 -418 433 -484 479 -32 22 -59 31 -114 37 -40 4 -89
12 -108 18 -47 15 -254 12 -311 -3z m285 -151 c27 -18 179 -195 346 -405 133
-167 174 -277 173 -465 0 -122 -17 -209 -63 -336 -89 -244 -280 -468 -460
-539 -100 -39 -168 -19 -277 84 -114 106 -192 244 -240 421 -24 91 -26 117
-27 285 0 154 4 202 22 285 64 295 194 533 357 653 53 39 65 43 101 39 22 -2
53 -12 68 -22z"/>
<path d="M5839 8859 c-469 -45 -916 -492 -1342 -1345 -152 -303 -238 -515
-358 -874 -66 -198 -78 -228 -78 -190 -1 25 -8 351 -17 725 -17 739 -16 927 4
947 38 38 -20 78 -112 78 -97 0 -143 -30 -171 -110 -23 -65 -52 -312 -70 -595
-52 -848 -60 -2423 -14 -3095 5 -80 14 -370 19 -645 10 -572 32 -865 80 -1036
21 -76 81 -109 211 -117 104 -6 188 15 230 58 l29 28 0 139 c0 142 -11 314
-56 908 -27 361 -27 419 2 765 52 626 178 1334 335 1892 177 630 427 1197 724
1643 51 77 124 178 162 225 153 191 346 351 475 395 l58 19 41 -29 c119 -85
203 -316 216 -600 19 -412 -136 -921 -428 -1405 -130 -216 -373 -567 -681
-982 -136 -183 -140 -187 -237 -252 -186 -123 -404 -360 -480 -519 -48 -100
-41 -141 32 -179 37 -20 57 -23 157 -23 99 0 122 3 165 23 71 33 227 196 420
440 l160 202 72 30 c220 92 369 84 531 -30 182 -128 293 -347 337 -663 19
-143 29 -343 20 -432 l-7 -74 -271 -147 c-547 -295 -762 -426 -1012 -614 -455
-343 -737 -714 -851 -1121 -35 -125 -45 -341 -20 -437 26 -104 64 -172 135
-243 75 -75 153 -117 276 -150 106 -29 368 -31 490 -5 170 37 362 116 512 212
235 150 478 409 676 722 78 123 226 418 288 572 148 373 246 772 265 1083 l7
103 99 58 c381 225 672 455 885 698 91 104 96 108 135 108 65 0 276 46 389 86
180 62 398 175 604 313 33 22 61 39 62 38 1 -1 -23 -83 -53 -182 -113 -374
-212 -814 -256 -1137 -30 -221 -33 -689 -5 -871 79 -522 242 -717 600 -717
282 0 481 120 712 430 162 218 357 561 527 924 54 116 105 225 113 241 13 28
14 19 14 -105 3 -514 94 -1014 241 -1326 122 -259 287 -431 483 -503 66 -24
85 -26 222 -26 166 1 212 12 310 77 133 88 418 535 744 1169 l97 189 13 -133
c36 -392 154 -692 346 -882 84 -83 170 -136 280 -172 66 -21 104 -27 216 -31
213 -7 333 26 497 135 152 100 364 335 502 556 l43 68 34 -78 c100 -230 180
-352 327 -499 224 -224 431 -314 717 -314 155 0 250 20 366 76 51 24 95 44 99
44 3 0 21 -13 40 -29 208 -183 631 -197 889 -30 255 165 608 519 870 874 237
319 445 682 565 985 62 155 150 409 150 431 0 34 -79 62 -160 57 -92 -5 -114
-22 -162 -126 -279 -600 -489 -943 -838 -1362 -133 -160 -444 -471 -580 -580
-115 -92 -245 -180 -266 -180 -37 0 -159 126 -211 218 l-22 39 45 67 c169 252
340 694 479 1241 87 344 114 619 81 841 -37 251 -117 399 -254 466 -64 32 -72
33 -182 33 -109 0 -119 -2 -183 -32 -258 -122 -506 -655 -593 -1273 -26 -181
-26 -677 -1 -840 26 -165 60 -303 108 -431 l42 -111 -49 -49 c-59 -61 -136
-113 -185 -127 -105 -28 -309 125 -446 335 -130 199 -241 512 -318 895 l-25
127 59 148 c207 519 428 1235 626 2025 212 843 244 1279 115 1545 -39 78 -119
154 -198 184 -71 27 -242 37 -335 20 -188 -37 -336 -169 -454 -406 -140 -279
-285 -810 -362 -1325 -24 -160 -51 -421 -51 -495 0 -28 -3 -55 -6 -58 -4 -3
-33 18 -66 48 -146 132 -365 184 -590 141 -390 -75 -647 -389 -828 -1012 -43
-149 -62 -190 -308 -654 -262 -494 -477 -868 -667 -1161 -92 -142 -268 -381
-303 -413 -20 -18 -22 -18 -52 4 -18 12 -55 51 -84 86 -182 220 -302 598 -363
1144 -14 123 -18 240 -18 560 1 425 8 557 60 1040 27 250 27 252 -38 287 -24
14 -55 18 -132 18 -84 0 -107 -4 -142 -22 -37 -20 -45 -31 -71 -100 -16 -43
-56 -145 -87 -228 -82 -213 -277 -667 -384 -891 -224 -471 -452 -868 -669
-1169 -87 -119 -287 -335 -310 -335 -20 0 -79 135 -107 242 -42 169 -57 297
-62 568 -4 194 -1 297 12 430 34 361 124 816 270 1365 47 176 85 337 85 358 0
30 -7 45 -29 66 -74 69 -267 79 -386 19 -22 -11 -116 -73 -210 -138 -228 -157
-348 -235 -480 -308 -107 -59 -333 -158 -341 -149 -3 2 20 53 50 113 102 203
147 382 127 510 -32 206 -170 314 -401 314 -208 0 -382 -92 -506 -266 -231
-323 -189 -715 91 -846 36 -16 65 -33 65 -38 0 -4 -57 -66 -127 -136 -138
-139 -289 -265 -449 -374 l-101 -69 -12 112 c-62 580 -322 920 -792 1038 -61
15 -130 22 -246 26 -90 3 -163 7 -163 9 0 2 44 63 98 136 501 676 693 995 836
1392 201 554 193 1117 -20 1437 -122 184 -336 265 -625 238z m9530 -1347 c115
-179 103 -562 -35 -1181 -83 -369 -270 -1029 -427 -1500 l-71 -216 -9 115
c-12 175 -1 898 17 1079 60 604 201 1251 335 1536 53 113 124 215 150 215 5 0
23 -22 40 -48z m-7549 -1580 c27 -97 1 -252 -66 -399 -42 -92 -123 -233 -134
-233 -21 0 -53 109 -58 196 -9 167 52 341 160 460 l52 56 18 -22 c10 -12 22
-38 28 -58z m6110 -469 c32 -16 87 -60 131 -103 62 -62 85 -95 127 -179 29
-56 52 -110 52 -118 0 -8 13 -27 30 -43 l29 -27 11 -244 c17 -393 45 -669 97
-948 l27 -144 -49 -91 c-117 -219 -260 -440 -385 -594 -127 -159 -302 -314
-391 -347 -22 -8 -91 45 -144 112 -60 76 -147 255 -179 368 -49 173 -68 314
-73 552 -3 133 -1 274 6 350 44 490 206 1040 375 1277 52 72 148 165 197 189
48 23 75 21 139 -10z m2698 -310 c43 -55 80 -134 104 -221 18 -64 22 -105 22
-242 0 -224 -31 -389 -131 -695 -105 -323 -351 -897 -367 -855 -13 37 -37 242
-48 418 -32 504 58 1064 227 1417 48 101 127 215 149 215 8 0 28 -17 44 -37z
m-10393 -1315 c-2 -13 -9 -52 -16 -88 -42 -251 -156 -609 -286 -899 -219 -490
-496 -854 -805 -1058 -158 -104 -306 -160 -396 -150 -83 9 -160 83 -203 196
-31 79 -37 245 -14 366 54 287 230 582 516 862 172 168 427 355 714 526 129
77 477 267 488 267 4 0 5 -10 2 -22z"/>
<path d="M11073 7005 c-103 -47 -313 -276 -384 -417 l-30 -60 -35 53 c-47 72
-120 146 -169 171 -49 25 -154 35 -212 19 -57 -16 -93 -60 -93 -114 0 -119
197 -394 362 -503 111 -74 200 -107 293 -108 70 -1 86 2 126 26 58 34 168 151
228 243 68 104 177 324 206 418 67 209 19 297 -160 297 -64 0 -91 -5 -132 -25z"/>
</g>
</svg>
