<?xml version="1.0" encoding="utf-8"?>
<!-- Generator: Adobe Illustrator 25.2.0, SVG Export Plug-In . SVG Version: 6.00 Build 0)  -->
<svg version="1.1" id="Layer_1" xmlns="http://www.w3.org/2000/svg" xmlns:xlink="http://www.w3.org/1999/xlink" x="0px" y="0px"
	 viewBox="0 0 2200 2200" style="enable-background:new 0 0 2200 2200;" xml:space="preserve">
<style type="text/css">
	.st0{fill:#231F20;}
</style>
<g>
	<path class="st0" d="M591.83,1577.38c0.06,0.62,0.01,0.78-0.2,0.88c-0.3,0.16-1.12,0.3-4.53,0.82c-1.26,0.2-3.02,0.48-3.9,0.64
		c-0.89,0.16-2.1,0.35-2.68,0.44c-1.12,0.16-3.91,0.61-5.24,0.85c-0.43,0.07-1.16,0.2-1.63,0.28c-0.86,0.14-2.86,0.52-6.66,1.28
		c-1.84,0.37-3.36,0.72-7.51,1.77c-2.45,0.61-7.61,2.3-10.08,3.29c-1.23,0.5-3.33,1.53-4.52,2.22c-1.43,0.85-5.3,3.37-6.24,4.07
		c-0.38,0.3-0.99,0.74-1.33,0.99c-2.96,2.21-10.64,9.61-14.37,13.86c-1.05,1.19-2.58,3.27-3.53,4.79c-1.13,1.8-3.66,6.83-3.66,7.27
		c0,0.07-0.11,0.4-0.27,0.74c-0.38,0.85-0.79,2.01-1.12,3.07c-0.68,2.31-0.86,2.95-1.01,3.61c-0.08,0.38-0.45,1.91-0.81,3.4
		c-0.35,1.47-0.74,3.1-0.85,3.61c-0.13,0.51-0.27,1.08-0.33,1.28c-0.07,0.2-0.2,0.69-0.28,1.11c-0.09,0.4-0.23,1.03-0.3,1.42
		c-0.13,0.59-0.79,3.49-1.13,4.92c-0.07,0.31-0.24,1.08-0.37,1.7c-0.13,0.62-0.28,1.36-0.34,1.63c-0.06,0.27-0.16,0.72-0.21,0.99
		s-0.21,1.04-0.35,1.7c-0.16,0.67-0.44,2.07-0.65,3.12c-0.2,1.05-0.43,2.2-0.51,2.55c-0.07,0.35-0.26,1.3-0.4,2.13
		c-0.16,0.82-0.34,1.77-0.43,2.13c-0.08,0.35-0.2,0.92-0.27,1.28c-0.07,0.35-0.23,1.15-0.34,1.77c-0.13,0.62-0.35,1.9-0.52,2.83
		c-0.16,0.94-0.33,1.86-0.37,2.05c-0.17,0.74-0.37,1.98-0.64,3.97c-0.16,1.13-0.34,2.47-0.43,2.98c-0.23,1.47-0.38,2.85-0.69,6.02
		c-0.37,3.84-0.54,5.44-0.7,6.66c-0.06,0.54-0.23,1.89-0.35,2.98c-0.57,4.73-0.92,6.95-1.47,9.35c-0.45,1.94-0.76,2.33-1.5,1.84
		c-0.61-0.4-0.78-1.02-0.95-3.35c-0.09-1.2-0.21-2.54-0.28-2.96c-0.13-0.72-0.34-2.98-0.68-7.23c-0.17-2.18-0.37-3.1-0.69-3.34
		c-0.27-0.19-0.41-1.23-0.74-5.44c-0.21-2.68-0.54-4.37-0.85-4.46c-0.33-0.1-0.35-0.3-0.78-4.9c-0.34-3.84-0.54-4.82-0.96-4.99
		c-0.14-0.06-0.24-0.41-0.3-1.05c-0.43-4.15-0.61-5.37-1.29-8.19c-0.18-0.78-0.44-2.25-0.57-3.26c-0.13-1.02-0.5-3.12-0.81-4.68
		c-0.31-1.56-0.72-3.8-0.89-4.96c-0.55-3.52-0.62-3.85-1.35-6.68c-0.88-3.47-2.28-7.71-3.71-11.25c-1.63-4.04-1.86-4.55-3.43-7.8
		c-1.36-2.76-1.39-2.82-2.54-4.59c-1.32-2-2.25-3.12-4.69-5.54c-2.27-2.25-3.88-3.66-6.75-5.82c-4.82-3.64-7.98-5.61-13.11-8.15
		c-7.7-3.8-13.73-6.12-20.69-7.95c-0.31-0.09-0.72-0.2-0.92-0.26c-0.33-0.11-0.91-0.26-3.97-0.98c-0.67-0.17-2.2-0.48-3.4-0.72
		c-1.2-0.24-2.48-0.48-2.83-0.55c-1.8-0.35-2.38-0.47-4.46-0.86c-1.25-0.23-2.55-0.48-2.91-0.57c-0.35-0.07-1.66-0.34-2.91-0.58
		c-4.24-0.81-9.7-2.24-10.83-2.82c-0.69-0.35-0.82-0.55-0.75-1.28l0.06-0.57h1.73c0.94,0,2.93-0.06,4.41-0.14
		c1.49-0.07,3.97-0.21,5.53-0.28c3.77-0.2,8.9-0.54,10.49-0.71c3.94-0.41,8.26-0.96,10.84-1.4c0.35-0.07,1.69-0.28,2.98-0.5
		c2.86-0.45,3.06-0.5,6.59-1.3c3.16-0.74,3-0.69,5.46-1.39c2.51-0.71,6.9-2.21,8.57-2.92c1.45-0.62,3.76-1.7,4.68-2.17
		c7.89-4.07,15.28-10.89,18.92-17.46c1.06-1.93,3.1-6.39,3.47-7.58c0.06-0.2,0.18-0.55,0.28-0.78c0.26-0.57,0.92-2.54,1.06-3.09
		c0.07-0.25,0.31-1.12,0.57-1.94c0.24-0.82,0.5-1.74,0.55-2.05c0.07-0.31,0.38-1.57,0.71-2.81c0.5-1.97,0.95-4.12,1.29-6.19
		c0.19-1.09,1.01-6.53,1.15-7.55c0.13-0.98,0.28-2.1,0.54-3.85c0.08-0.55,0.21-1.47,0.3-2.05c0.07-0.58,0.21-1.47,0.28-1.98
		c0.16-0.92,0.31-1.93,0.57-3.68c0.08-0.51,0.2-1.4,0.28-1.98c0.14-1.14,0.35-2.65,0.58-4.04c0.33-1.96,0.51-3.23,1.4-9.92
		c0.08-0.55,0.2-1.45,0.28-1.98c0.07-0.55,0.24-1.79,0.35-2.76c0.11-0.98,0.24-1.97,0.28-2.2c0.06-0.38,0.13-0.98,0.5-4.18
		c0.06-0.58,0.21-1.86,0.33-2.83c0.13-0.98,0.27-2.28,0.33-2.89c0.07-0.92,0.16-1.19,0.44-1.47c0.33-0.33,0.41-0.34,1.42-0.24
		c1.3,0.11,1.91,0.35,2.3,0.91c0.61,0.84,0.75,1.45,0.88,3.69c0.28,4.52,0.42,6.65,0.55,7.95c0.06,0.74,0.18,2.04,0.27,2.91
		c0.09,0.85,0.18,1.79,0.23,2.05c0.04,0.27,0.19,1.55,0.3,2.84c0.13,1.29,0.28,2.72,0.34,3.19c0.28,2,0.41,2.95,0.62,4.75
		c0.41,3.5,0.52,4.32,0.65,4.93c0.08,0.33,0.14,0.79,0.14,1.03c0,0.23,0.06,0.7,0.13,1.02c0.16,0.72,0.37,2.15,0.67,4.49
		c0.21,1.76,0.31,2.4,0.61,4.04c0.21,1.23,0.43,2.55,0.58,3.69c0.07,0.54,0.2,1.35,0.28,1.77c0.16,0.82,0.37,2.07,0.57,3.12
		c0.31,1.77,0.72,3.77,0.98,4.78c0.16,0.61,0.38,1.52,0.51,2.03c0.77,3.13,1.42,5.23,2.65,8.65c0.28,0.81,1.35,3.27,2.18,5.07
		c0.27,0.58,0.48,1.08,0.48,1.11c0,0.28,2.92,5.87,3.57,6.82c0.21,0.33,0.4,0.62,0.4,0.67c0,0.06,0.37,0.61,0.81,1.26
		c3.23,4.69,6.68,8.39,9.68,10.4c4.61,3.08,8.56,4.69,15.31,6.27c1.05,0.24,2.17,0.51,2.48,0.58c0.31,0.07,0.92,0.2,1.35,0.28
		c0.42,0.08,2.06,0.4,3.61,0.69c1.56,0.31,3.09,0.59,3.4,0.64c0.31,0.04,1.3,0.21,2.2,0.38c0.89,0.16,1.98,0.34,2.41,0.41
		c0.43,0.07,1.36,0.23,2.06,0.34c0.71,0.11,2.01,0.31,2.91,0.44c1.98,0.28,3.2,0.47,4.32,0.64c1.16,0.19,4.44,0.54,6.59,0.71
		c0.98,0.07,2.13,0.17,2.55,0.21c0.43,0.04,3.17,0.14,6.09,0.21c5.71,0.13,6.78,0.23,7.44,0.62
		C591.13,1575.55,591.76,1576.53,591.83,1577.38z M1818.57,1575.89h-1.73c-0.94,0-2.93-0.06-4.41-0.14
		c-1.49-0.07-3.97-0.21-5.53-0.28c-3.77-0.2-8.9-0.54-10.49-0.71c-3.94-0.41-8.26-0.96-10.84-1.4c-0.35-0.07-1.69-0.28-2.98-0.5
		c-2.86-0.45-3.06-0.5-6.59-1.3c-3.16-0.74-3.01-0.69-5.46-1.39c-2.51-0.71-6.9-2.21-8.57-2.92c-1.45-0.62-3.76-1.7-4.68-2.17
		c-7.89-4.07-15.28-10.89-18.92-17.46c-1.06-1.93-3.1-6.39-3.47-7.58c-0.06-0.2-0.18-0.55-0.28-0.78c-0.26-0.57-0.92-2.54-1.06-3.09
		c-0.07-0.25-0.31-1.12-0.57-1.94c-0.24-0.82-0.5-1.74-0.55-2.05c-0.07-0.31-0.38-1.57-0.71-2.81c-0.5-1.97-0.95-4.12-1.29-6.19
		c-0.19-1.09-1.01-6.53-1.15-7.55c-0.13-0.98-0.28-2.1-0.54-3.85c-0.08-0.55-0.21-1.47-0.3-2.05c-0.07-0.58-0.21-1.47-0.28-1.98
		c-0.16-0.92-0.31-1.93-0.57-3.68c-0.08-0.51-0.2-1.4-0.28-1.98c-0.14-1.14-0.35-2.65-0.58-4.04c-0.33-1.96-0.51-3.23-1.4-9.92
		c-0.08-0.55-0.2-1.45-0.28-1.98c-0.07-0.55-0.24-1.79-0.35-2.76c-0.11-0.98-0.24-1.97-0.28-2.2c-0.06-0.38-0.13-0.98-0.5-4.18
		c-0.06-0.58-0.21-1.86-0.33-2.83c-0.13-0.98-0.27-2.28-0.33-2.89c-0.07-0.92-0.16-1.19-0.44-1.47c-0.33-0.33-0.41-0.34-1.42-0.24
		c-1.3,0.11-1.91,0.35-2.3,0.91c-0.61,0.84-0.75,1.45-0.88,3.69c-0.28,4.52-0.43,6.65-0.55,7.95c-0.06,0.74-0.19,2.04-0.27,2.91
		c-0.09,0.85-0.18,1.79-0.23,2.05c-0.04,0.27-0.19,1.55-0.3,2.84c-0.13,1.29-0.28,2.72-0.34,3.19c-0.28,2-0.41,2.95-0.63,4.75
		c-0.41,3.5-0.52,4.32-0.65,4.93c-0.08,0.33-0.14,0.79-0.14,1.03c0,0.23-0.06,0.7-0.13,1.02c-0.16,0.72-0.37,2.15-0.67,4.49
		c-0.21,1.76-0.31,2.4-0.61,4.04c-0.21,1.23-0.43,2.55-0.58,3.69c-0.07,0.54-0.2,1.35-0.28,1.77c-0.16,0.82-0.37,2.07-0.57,3.12
		c-0.31,1.77-0.72,3.77-0.98,4.78c-0.16,0.61-0.38,1.52-0.51,2.03c-0.77,3.13-1.42,5.23-2.65,8.65c-0.28,0.81-1.35,3.27-2.18,5.07
		c-0.27,0.58-0.48,1.08-0.48,1.11c0,0.28-2.92,5.87-3.57,6.82c-0.21,0.33-0.4,0.62-0.4,0.67c0,0.06-0.37,0.61-0.81,1.26
		c-3.23,4.69-6.68,8.39-9.68,10.4c-4.61,3.08-8.56,4.69-15.31,6.27c-1.05,0.24-2.17,0.51-2.48,0.58c-0.31,0.07-0.92,0.2-1.35,0.28
		c-0.42,0.08-2.05,0.4-3.61,0.69c-1.56,0.31-3.09,0.59-3.4,0.64c-0.31,0.04-1.3,0.21-2.2,0.38c-0.89,0.16-1.98,0.34-2.41,0.41
		c-0.43,0.07-1.36,0.23-2.06,0.34c-0.71,0.11-2.01,0.31-2.91,0.44c-1.98,0.28-3.2,0.47-4.32,0.64c-1.16,0.19-4.44,0.54-6.59,0.71
		c-0.98,0.07-2.13,0.17-2.55,0.21c-0.43,0.04-3.17,0.14-6.09,0.21c-5.71,0.13-6.78,0.23-7.44,0.62c-0.77,0.45-1.39,1.43-1.46,2.28
		c-0.06,0.62-0.01,0.78,0.2,0.88c0.3,0.16,1.12,0.3,4.54,0.82c1.26,0.2,3.02,0.48,3.9,0.64c0.89,0.16,2.1,0.35,2.68,0.44
		c1.12,0.16,3.91,0.61,5.24,0.85c0.43,0.07,1.16,0.2,1.63,0.28c0.86,0.14,2.86,0.52,6.66,1.28c1.84,0.37,3.36,0.72,7.51,1.77
		c2.45,0.61,7.61,2.3,10.08,3.29c1.23,0.5,3.33,1.53,4.52,2.22c1.43,0.85,5.3,3.37,6.24,4.07c0.38,0.3,0.99,0.74,1.33,0.99
		c2.96,2.21,10.64,9.61,14.37,13.86c1.05,1.19,2.58,3.27,3.53,4.79c1.14,1.8,3.66,6.83,3.66,7.27c0,0.07,0.11,0.4,0.27,0.74
		c0.38,0.85,0.79,2.01,1.12,3.07c0.68,2.31,0.86,2.95,1.01,3.61c0.08,0.38,0.45,1.91,0.81,3.4c0.35,1.47,0.74,3.1,0.85,3.61
		c0.13,0.51,0.27,1.08,0.33,1.28c0.07,0.2,0.2,0.69,0.28,1.11c0.09,0.4,0.23,1.03,0.3,1.42c0.13,0.59,0.79,3.49,1.13,4.92
		c0.07,0.31,0.24,1.08,0.37,1.7c0.13,0.62,0.28,1.36,0.34,1.63c0.06,0.27,0.16,0.72,0.21,0.99c0.06,0.27,0.21,1.04,0.35,1.7
		c0.16,0.67,0.44,2.07,0.65,3.12c0.2,1.05,0.43,2.2,0.51,2.55c0.07,0.35,0.26,1.3,0.4,2.13c0.16,0.82,0.34,1.77,0.43,2.13
		c0.08,0.35,0.2,0.92,0.27,1.28c0.07,0.35,0.23,1.15,0.34,1.77c0.13,0.62,0.35,1.9,0.52,2.83c0.16,0.94,0.33,1.86,0.37,2.05
		c0.17,0.74,0.37,1.98,0.64,3.97c0.16,1.13,0.34,2.47,0.43,2.98c0.23,1.47,0.38,2.85,0.69,6.02c0.37,3.84,0.54,5.44,0.7,6.66
		c0.06,0.54,0.23,1.89,0.35,2.98c0.57,4.73,0.92,6.95,1.47,9.35c0.45,1.94,0.76,2.33,1.5,1.84c0.61-0.4,0.78-1.02,0.95-3.35
		c0.09-1.2,0.21-2.54,0.28-2.96c0.13-0.72,0.34-2.98,0.68-7.23c0.17-2.18,0.37-3.1,0.69-3.34c0.27-0.19,0.41-1.23,0.74-5.44
		c0.21-2.68,0.54-4.37,0.85-4.46c0.33-0.1,0.35-0.3,0.78-4.9c0.34-3.84,0.54-4.82,0.96-4.99c0.14-0.06,0.24-0.41,0.3-1.05
		c0.43-4.15,0.61-5.37,1.29-8.19c0.19-0.78,0.44-2.25,0.57-3.26c0.13-1.02,0.5-3.12,0.81-4.68c0.31-1.56,0.72-3.8,0.89-4.96
		c0.55-3.52,0.62-3.85,1.35-6.68c0.88-3.47,2.28-7.71,3.71-11.25c1.63-4.04,1.86-4.55,3.43-7.8c1.36-2.76,1.39-2.82,2.54-4.59
		c1.32-2,2.25-3.12,4.69-5.54c2.27-2.25,3.88-3.66,6.75-5.82c4.82-3.64,7.98-5.61,13.11-8.15c7.7-3.8,13.73-6.12,20.69-7.95
		c0.31-0.09,0.72-0.2,0.92-0.26c0.33-0.11,0.91-0.26,3.97-0.98c0.67-0.17,2.2-0.48,3.4-0.72c1.2-0.24,2.48-0.48,2.83-0.55
		c1.8-0.35,2.38-0.47,4.46-0.86c1.25-0.23,2.55-0.48,2.91-0.57c0.35-0.07,1.66-0.34,2.91-0.58c4.24-0.81,9.7-2.24,10.83-2.82
		c0.69-0.35,0.82-0.55,0.75-1.28L1818.57,1575.89z"/>
	<path d="M648.1,776.36c18.8,23.76,14.51,68.47-10.66,110.68C621.35,914.23,565.26,989,558.1,992.86
		c-5.23,2.79-14.51-1.58-31.5-15.13c-14.73-11.66-51.54-49.72-66.18-68.71c-24.88-32.02-40.7-65.21-41.62-87.34
		c-1.88-50.2,54.64-66.59,88.6-25.63c4.37,5.16,13.46,19.24,20.27,30.83l12.17,21.46l5.69-15.67c7.65-20.9,17.21-38.52,28.18-50.85
		c10.01-11.5,17.53-16.36,29.3-19.03C620.47,758.9,638.7,764.28,648.1,776.36z M1711.29,796.04c-4.37,5.16-13.46,19.24-20.27,30.83
		l-12.17,21.46l-5.69-15.67c-7.65-20.9-17.21-38.52-28.18-50.85c-10.01-11.5-17.53-16.36-29.3-19.03
		c-17.46-3.89-35.69,1.49-45.1,13.57c-18.8,23.76-14.51,68.47,10.66,110.68c16.1,27.19,72.18,101.95,79.35,105.81
		c5.23,2.79,14.51-1.58,31.5-15.13c14.73-11.66,51.54-49.72,66.18-68.71c24.88-32.02,40.7-65.21,41.62-87.34
		C1801.77,771.48,1745.25,755.09,1711.29,796.04z"/>
	<path d="M531.45,1383.99c0,10.01-8.39,16.14-24.85,19.37c-7.42,1.29-19.04,2.26-35.5,2.26c-16.14,0-27.76-0.97-35.18-2.26
		c-16.14-3.23-24.21-9.36-24.21-19.04c0-2.91,0.65-5.49,2.9-7.75l6.13-6.13c2.26-2.26,3.55-9.36,5.16-21.95
		c1.29-10.97,1.94-19.36,1.94-24.85v-17.75c-0.97-7.42-4.2-11.3-9.36-11.3c-2.58,0.32-4.84,3.87-6.78,11.3
		c-3.55,12.59-5.81,19.36-6.13,20.66c-3.23,7.42-7.42,11.3-12.26,11.3c-5.49,0-10.01-3.55-13.23-10.97
		c-0.97-2.26-2.9-9.04-6.13-20.66c-1.94-7.42-4.52-10.97-6.78-10.97c-5.49,0-8.39,12.91-8.71,39.05c1.94,7.42,3.55,11.94,5.16,14.2
		c5.49,6.13,13.56,13.24,13.56,20.01c0,9.69-0.97,17.11-3.23,21.95c-1.61,6.78-8.39,11.3-19.69,13.56
		c-8.71,1.62-19.69,1.94-45.83,1.94c-24.21,0-40.02-2.26-48.09-7.1s-11.94-14.2-11.94-28.08c0-3.23,1.94-6.78,6.13-10.65
		c4.84-4.84,7.74-7.74,8.39-9.36c4.19-8.07,8.71-28.08,13.88-59.39c4.84-29.69,7.1-51,7.1-63.58c0-15.17-5.81-25.82-17.11-32.28
		c-2.58-7.42-3.87-10.97-3.87-10.97c0-9.36,6.13-16.14,18.07-20.33c8.39-2.9,18.4-4.52,30.34-4.52c20.33,0,33.57,1.29,39.7,3.87
		c5.49,2.26,9.36,7.1,11.3,14.85c4.52,16.78,7.75,27.11,9.36,30.99c2.58,7.42,5.17,15.17,8.07,22.59
		c4.52,10.98,8.71,16.46,12.91,16.46c5.81,0,10.33-9.36,12.59-28.08l4.52-35.83c3.23-10.97,10.01-18.08,20.01-21.62
		c5.81-1.94,16.14-3.23,30.99-3.23c33.57-0.32,50.35,7.42,50.35,22.6c0,3.87-3.23,9.36-9.36,16.14c-6.13,6.78-9.04,14.2-9.04,22.27
		c0,17.43,1.94,40.35,7.1,68.43c4.2,22.59,9.04,45.19,13.24,67.78c0.65,4.19,3.87,8.39,9.68,13.23
		C528.54,1374.63,531.45,1379.15,531.45,1383.99z M710.26,1159.67c-33.89,0-50.99,8.39-50.99,24.85c0,4.84,1.29,8.39,3.87,10.97
		c4.19,2.9,5.49,3.23,5.49,4.52s-0.97,3.87-2.9,7.75c-2.58,5.17-4.52,9.68-5.49,13.56c-4.84,7.75-8.71,11.62-11.94,11.62
		c-8.71,0-14.52-6.78-17.1-20.01c-1.29-6.46,1.61-12.27,5.81-15.82c4.2-3.55,9.04-6.13,9.04-14.85c0-7.1-3.23-12.27-9.68-15.82
		c-8.07-4.19-21.3-6.46-40.35-6.78c-13.88-0.32-25.17,1.62-34.21,5.17c-11.3,4.19-16.78,10.97-16.78,19.69
		c0,4.84,1.29,8.39,3.55,10.97c3.55,2.26,6.13,3.87,8.07,4.84c0,0,3.55,2.58,10.33,7.42c4.19,2.9,7.1,5.81,9.36,8.71
		c5.49,10.65,10,19.69,13.88,26.79c2.26,5.81,5.16,11.62,9.36,17.43c3.23,4.84,4.84,7.42,4.84,8.39c-0.97,9.68-2.9,23.56-6.13,41.64
		c-3.55,20.98-6.78,34.53-9.68,40.02c-0.97,1.62-3.87,4.52-8.71,9.36c-3.87,3.87-5.81,7.42-5.81,10.65
		c0,13.88,3.87,23.24,11.94,28.08c8.07,4.84,23.89,7.1,48.09,7.1c30.02,0,48.09-1.61,54.87-4.84c9.04-4.19,13.56-14.84,13.56-32.6
		c0-6.77-7.75-13.88-13.24-20.01c-4.84-6.78-10.65-31.31-17.1-73.91v-5.49c0-7.75,3.87-16.78,11.62-26.79
		c2.9-4.19,10.65-12.91,23.24-26.46c3.55-4.84,6.13-7.75,8.07-9.36c2.26-1.61,7.1-3.55,15.17-6.78
		c10.33-3.87,12.27-6.78,16.14-10.65c2.26-1.94,3.23-5.16,3.23-9.36C749.63,1166.45,736.4,1159.67,710.26,1159.67z M1063.36,1244.24
		c0-14.53,1.61-26.14,5.16-35.18c1.94-5.16,5.17-10.65,9.68-16.14c3.55-4.2,5.17-7.75,5.17-10.65c0-15.17-17.75-22.6-52.93-22.6
		c-11.62,0-21.62,1.62-30.34,4.52c-11.94,4.19-17.75,10.97-17.75,20.33c0,6.13,2.9,10.97,8.71,14.2c6.13,3.55,9.04,10.01,9.04,20.01
		c0,7.1-3.23,11.62-9.36,13.23c-2.26,0.65-8.07,0.97-18.08,0.97c-10.33,0-17.1-0.65-20.01-1.62c-6.13-2.26-9.36-7.74-9.36-16.14
		c0-6.13,2.91-12.26,8.71-17.75c5.81-5.49,8.71-10.65,8.71-15.17c0-15.17-17.75-22.6-52.93-22.6c-11.94,0-21.95,1.62-30.34,4.52
		c-11.94,4.19-18.08,10.97-18.08,20.33c0,5.81,1.94,9.68,5.49,11.94c5.81,3.55,9.04,5.81,10.01,6.78
		c3.55,4.84,5.16,12.91,4.84,24.21l-0.32,12.26c-0.65,0-2.58,15.17-5.81,45.51c-3.55,32.92-8.39,54.87-14.2,65.52
		c-0.65,1.62-3.55,4.52-8.71,9.36c-3.87,3.87-5.81,7.42-5.81,10.65c0,16.14,6.45,26.47,19.04,31.31c6.78,2.58,20.66,3.87,40.99,3.87
		c3.23,0,7.74,0,13.56,0.33c6.13,0.32,10.33,0.32,12.91,0.32c13.88,0,23.88-2.26,30.02-6.45c8.07-5.49,12.26-16.14,12.26-31.63
		c0-3.55-2.26-8.07-7.1-12.91c-5.49-5.81-8.39-10.33-9.36-13.24c-0.97-3.87-1.61-15.49-1.61-35.18c0-13.56,0.65-21.95,1.94-24.85
		c2.26-6.78,9.04-10.01,19.69-10.01c10.33,0,12.59,4.2,12.59,14.53c0,7.42,0.97,18.72,2.58,33.24c1.61,14.52,2.58,25.5,2.58,32.92
		c0,2.58-2.58,6.45-8.07,11.62c-5.49,4.84-8.07,9.69-8.07,14.2c0,12.91,6.78,20.98,20.66,24.21c4.19,0.97,16.14,1.29,36.47,1.29
		c42.93,0,64.23-8.07,64.23-24.21c0-8.07-6.13-18.4-18.08-31.31C1069.49,1307.82,1063.36,1272.96,1063.36,1244.24z M1293.16,1312.98
		c0-7.42-5.49-18.4-11.94-18.4c-2.26,0-5.16,2.58-8.71,7.74c-3.55,5.17-7.75,7.75-13.23,7.75c-0.97,0-2.26,0-3.87-0.32
		c-2.91-0.97-10.01,1.29-12.59,1.29c-31.31,0-46.8-13.56-46.8-40.35c0-11.3,3.55-17.1,10.33-17.1c6.13,0,10.65,2.58,13.56,8.07
		c3.23,5.49,6.46,8.07,10.01,8.07c5.49,0,9.36-4.84,12.26-14.52c1.94-6.78,2.9-14.2,2.9-21.62c0-4.84-1.61-7.1-4.84-7.1
		c-3.55,0-9.04,7.1-12.59,7.1c-8.71,0-16.14-1.94-22.27-5.81c-7.1-4.52-10.65-10.33-10.65-17.43c0-1.61,0.32-2.9,0.65-4.52
		c0.97-4.19,2.26-6.78,4.52-7.75h7.1c15.49,0,27.11,2.9,35.18,8.39c3.23,2.26,7.75,7.1,13.88,15.17c4.19,5.49,9.04,8.07,14.85,8.07
		c6.13,0,10.65-2.9,14.2-8.39c2.58-4.52,3.87-10.01,3.87-16.78c0-10.65-1.94-20.33-5.81-29.37c-5.16-11.62-12.26-17.43-21.62-17.43
		c-6.78,0-18.72,0.65-35.18,1.61c-16.46,0.97-28.4,1.62-35.83,1.62c-5.49,0-18.72-1.29-23.88-1.29
		c-13.56-0.32-24.85,1.62-34.21,5.17c-11.3,4.19-16.78,10.97-16.78,19.69c0,4.84,1.29,8.39,3.87,10.97
		c3.55,2.26,6.13,3.87,8.07,4.84c3.87,2.91,6.78,10.01,7.75,21.3c0.65,5.49,0,11.62-0.32,18.72l-2.58,83.27
		c-0.65,19.69-2.58,31.96-5.49,36.79l-6.13,9.69c-0.65,1.29-3.55,4.52-9.04,10.01c-3.23,3.23-4.84,6.78-4.84,10.97
		c0,10.33,5.49,15.82,16.46,15.82l60.68,0.32c8.71,0,17.75,0.33,27.11,0c11.3-0.32,20.01-0.32,26.47-0.32
		c23.24,0,36.79-1.29,40.99-4.2c10.65-7.74,16.14-24.85,16.14-50.99c0-5.81-0.65-13.24-0.97-21.95
		C1293.16,1320.73,1293.16,1315.25,1293.16,1312.98z M1787.95,1384.32c3.87,4.19,5.81,7.42,5.81,10.33c0,2.26-1.94,4.2-5.49,6.45
		l-7.74,4.84c-3.87,0.33-10.33,0.97-19.04,2.58c-7.42,1.29-13.56,1.94-18.72,1.94c-22.27,0-37.76-8.71-46.15-26.46
		c-4.2-8.71-8.07-26.79-11.62-54.55c-3.23-23.24-8.71-38.41-16.46-45.19c-2.58-2.26-5.81-2.91-9.36-1.94
		c-6.13,1.61-8.71,5.17-7.75,10.65c4.52,30.66,8.71,49.38,13.88,55.51c5.16,6.46,13.23,13.24,13.23,20.01
		c0,17.76-4.52,28.41-13.23,32.6c-6.78,3.23-25.18,4.84-55.19,4.84c-24.53,0-40.99-2.26-49.06-6.78
		c-7.11-4.26-10.7-12.05-11.02-23.57c-1.74,11.19-10.85,19.1-26.74,23.89c-11.3,3.55-24.85,5.49-40.99,5.49
		c-16.14,0-27.76-1.29-34.86-4.2c-11.94-4.52-17.75-13.23-17.75-26.47c0-4.84,0.65-10.65,2.26-16.78
		c9.68-9.69,14.52-24.53,14.52-44.54c0-6.78-4.84-12.26-14.2-15.81c-7.1-2.9-14.85-4.2-23.24-4.2c0,0-2.91,0.65-9.04,1.62
		c-8.07,4.84-11.94,13.88-11.94,27.11c0,9.68,1.94,18.08,6.13,25.18c1.61,2.58,5.81,7.1,11.94,13.88c4.2,4.52,6.13,8.71,6.13,12.59
		c0,14.85-7.75,24.53-23.24,28.73c-7.42,2.26-21.3,3.23-40.99,3.23c-29.69,0-44.22-7.42-44.54-22.27c0-13.24,5.49-23.89,17.11-31.96
		c13.56-9.68,25.5-30.34,35.83-62.29c8.71-27.76,13.24-51.96,13.24-72.62c0-8.07-1.29-14.52-4.2-20.01
		c-1.61-2.9-3.87-6.13-7.42-9.36c-2.91-2.58-4.2-4.52-4.2-5.81c0-7.1,11.62-13.24,34.54-18.4c19.69-4.2,33.89-6.13,42.93-5.17
		c15.17,1.61,26.79,6.13,34.86,13.88c3.55,3.55,9.04,11.94,16.14,25.17c2.26,4.19,4.84,12.59,8.07,25.17
		c12.59,49.71,25.18,87.15,37.76,112.32c1.61,3.55,4.84,7.42,9.68,11.3c4.84,3.55,7.75,6.78,9.36,9.04
		c2.11,3.69,3.29,8.53,3.32,14.56c0.77-2.71,2.58-5.62,5.71-8.75c4.84-4.84,7.42-7.74,8.39-9.36c2.9-6.13,6.78-21.62,10.97-46.8
		c3.87-22.59,6.78-43.89,8.71-64.23c-0.65-21.95-3.55-35.18-8.71-39.38c-1.94-0.97-4.52-2.58-8.07-4.84
		c-2.58-2.58-3.87-6.13-3.87-10.97c0-8.71,5.49-15.49,16.78-19.69c9.04-3.55,20.33-5.81,34.21-5.17l13.56,0.65
		c19.04-0.97,31.31-1.29,36.15-1.29c17.75,0,33.57,3.55,47.12,10.65c16.78,8.71,25.17,20.98,25.17,37.44
		c0,20.33-10.97,36.8-32.92,48.74c2.26,6.78,6.78,11.62,13.88,14.85c10.65,4.84,15.81,7.1,16.14,7.1
		c8.71,7.42,15.49,14.85,19.69,22.92c3.87,7.1,7.1,16.78,9.68,28.73c3.55,17.75,9.04,32.92,16.46,45.51
		C1779.88,1375.92,1782.79,1378.83,1787.95,1384.32z M1436.14,1249.08c0-1.61-1.94-7.42-5.81-17.11
		c-3.55-8.71-8.39-13.23-14.53-13.23c-3.55,0-7.42,4.52-11.62,13.88c-3.55,8.07-5.16,14.2-5.16,18.4c0,1.94,2.9,2.91,8.39,2.91
		c2.58,0,10.33-0.97,12.91-0.97c4.19,0,7.1,0.32,8.07,0.97C1433.56,1253.6,1436.14,1251.98,1436.14,1249.08z M1671.11,1216.8
		c0-15.82-6.13-23.88-18.72-23.88c-5.49,0-11.3,4.84-10.33,10.33l2.58,33.24c0.32,5.49,2.26,8.39,5.81,8.39
		c6.46,0,11.62-3.23,15.49-9.36C1669.5,1230.04,1671.11,1223.58,1671.11,1216.8z M1931.9,1217.77c4.84,10.01,11.3,15.17,19.04,15.17
		c13.88,0,20.66-9.04,20.66-27.44c0-10.01-2.9-20.33-8.39-30.34c-6.45-11.94-14.2-17.75-23.24-17.75c-2.9,0-7.42,3.23-9.68,3.55
		c-12.26,0.97-36.47,1.61-72.62,1.61c-2.9,0-7.42-0.65-13.56-2.26c-6.13-1.62-10.65-2.58-13.56-2.58c-8.39,0-15.81,6.13-22.27,18.4
		c-5.81,10.65-8.71,20.66-8.71,30.34c0,9.36,0.65,15.49,2.26,18.72c2.26,5.16,7.42,7.75,15.49,7.75c9.36,0,16.78-2.58,21.62-7.75
		c2.26-2.26,5.17-7.1,8.07-14.53c2.26-5.16,4.52-7.74,7.42-7.74c0,0,1.61,0.65,4.84,1.94c-0.32,18.4-0.97,30.02-1.29,34.86
		c-1.61,19.04-4.52,40.35-8.71,64.23c-4.19,24.85-8.07,40.67-11.3,46.8c-0.65,1.62-3.55,4.52-8.39,9.36
		c-4.19,3.87-6.13,7.42-6.13,10.65c0,13.88,3.87,23.24,11.94,28.08c8.07,4.84,24.21,7.1,48.09,7.1c30.02,0,48.41-1.61,55.19-4.84
		c9.04-4.19,13.56-14.84,13.56-32.6c0-6.77-8.39-13.55-13.56-20.01c-3.23-3.55-6.13-16.14-10.01-36.47
		c-3.55-18.08-6.13-36.47-8.71-55.51l-1.61-11.94l-4.52-40.99c2.26-0.97,3.23-1.29,3.23-1.29
		C1921.9,1202.28,1927.06,1207.44,1931.9,1217.77z"/>
	<path d="M875.94,1627.69c0,30.39-9.76,55.16-29.64,74.67c-19.51,19.51-44.28,29.27-74.29,29.27c-30.77,0-55.91-7.88-75.04-22.51
		c-21.39-16.51-31.89-39.4-31.89-69.41c0-15.01,7.88-22.51,23.26-22.51c4.88,0,10.13,2.25,15.38,5.63
		c5.63,3.75,13.13,5.25,23.26,5.25c17.26,0,25.89-8.25,25.89-24.76c0-5.63-5.63-13.13-17.26-22.89
		c-17.26-15.01-27.77-24.39-31.14-28.52c-11.63-12.76-17.26-25.51-17.26-38.27c0-22.89,9.01-40.9,27.39-54.03
		c16.13-11.63,36.02-17.64,59.66-17.64c7.5,0,18.39,1.5,32.27,4.13c14.26,2.63,25.14,4.13,33.02,4.13
		c13.51,0,20.26,15.38,20.26,46.53c0,17.64-7.13,26.64-21.01,26.64c-9.76,0-19.14-7.13-28.14-21.39
		c-8.63-14.26-17.26-21.39-25.51-21.39c-18.39,0-27.39,6.75-27.39,19.89c0,7.88,10.13,16.51,30.77,26.26
		c27.77,13.13,46.53,24.01,56.66,32.64C865.81,1577.04,875.94,1599.93,875.94,1627.69z M1295.84,1616.43
		c-4.5-23.64-8.25-46.53-10.51-67.91v-1.88c0-22.51,2.63-39.4,6.75-50.28c4.13-10.51,16.51-10.88,16.51-25.51
		c0-8.25-3.75-14.26-11.63-18.39c-9.01-4.88-24.76-7.5-46.9-7.88c-15.76-0.38-28.89,1.88-39.77,6
		c-13.13,4.88-19.51,12.76-19.51,22.89c0,5.63,1.5,9.76,4.5,12.76c4.13,2.63,7.13,4.5,9.38,5.63c6.38,5.25,9.76,20.64,10.13,45.78
		c-2.25,23.64-5.63,48.4-10.13,74.67c-4.88,29.27-9.38,47.28-12.76,54.41c-0.75,1.88-4.13,5.25-9.76,10.88
		c-4.88,4.5-7.13,8.63-7.13,12.38c0,1.81,0.08,3.52,0.19,5.2c-0.99-2.15-2.09-3.96-3.21-4.82c-13.13-9.38-21.39-15.38-25.51-18.01
		c-18.01-11.63-36.02-25.89-54.03-43.52c-28.14-27.77-42.4-51.78-42.77-72.04c-0.38-19.51,4.5-36.02,14.63-49.53
		c7.13-9.38,14.26-15.38,21.76-17.64l23.26-3.75c10.13-2.63,15.38-8.25,15.38-16.13c-0.38-11.63-4.13-19.14-12.01-22.51
		c-4.5-1.88-13.51-2.63-27.39-2.25c-22.14,0.38-38.27,2.63-48.03,6c-11.26,4.13-16.88,10.51-16.88,19.89
		c0,7.5,9.76,16.51,9.76,24.01c0,24.01-10.13,36.02-30.77,36.02c-6,0-9.01-4.5-9.38-13.51c1.13-8.63,2.63-15.38,4.88-21.01
		c4.5-10.13,16.51-11.26,16.51-25.51c0-8.25-3.75-14.26-11.26-18.39c-9.38-4.88-24.76-7.5-46.9-7.88c-16.13-0.38-29.27,1.88-39.77,6
		c-13.13,4.88-19.51,12.76-19.51,22.89c0,5.63,1.5,9.76,4.13,12.76c4.13,2.63,7.13,4.5,9.38,5.63c6.38,5.25,10.13,20.64,10.13,45.78
		c0,56.66-8.25,99.43-22.89,129.07c-0.75,1.88-4.13,5.25-9.76,10.88c-4.88,4.5-7.13,8.63-7.13,12.38c0,9.76,1.5,17.26,4.5,22.89
		c0.38,4.88,2.63,7.13,6.38,7.5c9.01,7.13,28.52,10.51,58.91,10.51c34.89,0,56.28-1.88,64.16-5.63
		c10.51-4.88,15.76-17.26,15.76-37.9c0-7.88-9.38-16.13-15.76-23.26c-5.25-7.5-11.63-36.77-19.51-87.42
		c-0.38-3.38,1.13-5.63,3.75-5.25c6.38,0,14.63,12.01,24.76,35.65c9.38,22.89,18.01,46.15,27.39,69.04
		c10.88,26.64,21.01,42.77,28.89,47.65c6.38,4.13,14.26,6.38,23.64,6.38h43.9c10.88,0,18.39-0.75,23.26-3
		c6.61-2.78,10.27-8.49,10.78-16.47c2.3,5.23,5.69,9.23,10.25,11.97c9.38,5.63,27.77,8.25,55.91,8.25c34.89,0,56.28-1.88,64.16-5.63
		c10.51-4.88,15.76-17.26,15.76-37.9c0-7.88-9.76-16.13-15.76-23.26C1304.84,1659.21,1301.09,1643.07,1295.84,1616.43z
		 M1554.37,1517c0,26.64-6.75,45.4-20.26,55.91c-8.63,6.75-22.51,11.26-42.4,13.51c-19.89,1.88-32.27,5.25-37.15,9.38
		c6.38,39.02,11.63,62.29,16.88,68.29c6,7.5,15.38,15.38,15.38,23.26c0,31.14-7.88,39.77-36.4,42.4c-7.13,1.88-16.88,3-28.89,3
		s-25.51-1.5-40.9-3c-34.14-3.75-43.15-13.13-43.15-39.77c0-3.75,2.25-7.88,6.75-12.38c5.63-5.63,9.01-9.01,10.13-10.88
		c7.13-14.63,14.63-54.41,21.76-119.69v-24.76c0-15.01-3-25.14-9.38-30.39c-2.25-1.13-5.25-3-9.38-5.63c-3-3-4.5-7.13-4.5-12.76
		c0-10.13,6.38-18.01,19.51-22.89c10.88-4.13,24.01-6.75,39.77-6c4.5,0,6.38,0.38,5.25,0.38c1.88-0.38,4.88-0.38,8.63-0.38
		c1.5-0.38,7.88-1.13,18.76-1.88c7.5-0.75,15.01-0.75,22.89-0.38C1525.47,1444.59,1554.37,1469.35,1554.37,1517z M1478.95,1512.13
		c0-19.89-9.01-30.02-26.64-30.02c-6.38,0-9.38,4.13-9.38,12.76c0,17.64,0.38,29.27,0.75,34.89c0.38,6-0.75,12.76,5.25,15.76
		c0.38,0.38,1.88,0.38,4.13,0.75c8.25,0,14.63-3.75,19.51-11.26C1476.7,1528.26,1478.95,1520.76,1478.95,1512.13z"/>
	<path d="M571.15,2018.96c-7.08-5.42-11.81-10.85-14.17-15.82c-18.42-35.24-36.85-87.67-55.27-157.26
		c-4.72-17.62-8.5-29.37-11.81-35.25c-10.39-18.53-18.42-30.28-23.62-35.25c-11.81-10.85-28.82-17.17-51.02-19.43
		c-13.23-1.36-34.01,1.36-62.83,7.23c-33.54,7.23-50.55,15.81-50.55,25.76c0,1.81,1.89,4.52,6.14,8.13
		c5.2,4.52,8.5,9.04,10.87,13.11c4.25,7.68,6.14,16.72,6.14,28.02c0,28.92-6.61,62.82-19.37,101.68
		c-15.12,44.74-32.59,73.66-52.43,87.22c-17,11.3-25.03,26.21-25.03,44.74c0.47,20.79,21.73,31.18,65.19,31.18
		c28.82,0,49.13-1.36,59.99-4.52c22.68-5.87,34.01-19.43,34.01-40.22c0-5.42-2.83-11.3-8.98-17.62
		c-8.98-9.49-15.12-15.81-17.48-19.43c-6.14-9.94-8.98-21.69-8.98-35.25c0-18.53,5.67-31.18,17.48-37.96
		c8.98-1.36,13.23-2.26,13.23-2.26c12.28,0,23.62,1.81,34.01,5.88c13.7,4.97,20.78,12.65,20.78,22.14c0,28.02-7.08,48.8-21.26,62.36
		c-2.36,8.58-3.3,16.72-3.3,23.5c0,18.53,8.5,30.73,25.98,37.06c10.39,4.07,27.4,5.87,51.02,5.87s43.46-2.71,59.99-7.68
		c25.04-7.23,38.73-19.43,39.68-37.06c0.95-11.3-0.95-19.89-4.72-26.21C582.49,2028.44,578.24,2023.93,571.15,2018.96z
		 M411.02,1891.07c-1.42-0.91-5.67-1.36-11.81-1.36c-3.78,0-15.12,1.36-18.9,1.36c-8.03,0-12.28-1.36-12.28-4.07
		c0-5.87,2.36-14.46,7.56-25.76c6.14-13.1,11.81-19.43,17-19.43c8.98,0,16.06,6.33,21.26,18.53c5.67,13.56,8.5,21.69,8.5,23.95
		C422.35,1888.36,418.58,1890.62,411.02,1891.07z M974.99,1880.22c13.23-17.62,28.34-33.89,28.34-57.84
		c0-22.14-10.87-38.86-33.07-50.16c-17.48-9.04-38.73-13.55-63.77-13.55c-2.36,0-8.5,0-18.42-0.46c-9.92-0.45-17.95-0.45-25.04-0.45
		c-61.41,0-92.59,10.39-93.53,30.73c-0.47,7.68,1.42,13.56,4.73,17.17l16.53,13.56l1.89,0.9c7.09,11.75,11.34,28.47,10.87,50.61
		c0,17.62-2.83,38.86-8.5,64.17c-4.73,20.79-9.92,41.57-14.64,62.81c-2.84,14.01-9.45,25.31-19.84,33.89
		c-8.98,7.68-13.7,16.72-13.7,26.66c0,2.26,0,4.97,0.47,8.13c1.89,17.17,23.15,28.02,64.24,32.99c12.75,1.36,40.63,2.26,83.14,2.26
		c104.39,0,156.83-37.06,156.83-111.17c0-30.28-8.98-55.58-27.4-76.82C1010.42,1897.39,993.89,1886.1,974.99,1880.22z
		 M885.24,1821.03c0-11.75,4.25-17.62,12.28-17.62c13.7,0,24.09,14.01,24.09,28.02c0,22.6-8.03,33.89-24.56,33.89
		c-4.25,0-7.09-6.33-9.45-18.53C886.19,1838.2,885.24,1829.61,885.24,1821.03z M909.33,1985.51c-12.75,0-17.48-10.39-16.53-30.73
		l1.89-33.89c0.47-6.32,4.72-9.49,13.7-9.49c20.31,0,30.23,12.65,30.23,38.41C938.62,1973.77,928.7,1985.51,909.33,1985.51z
		 M1331.14,1997.27c0.47,12.2,1.42,22.59,1.42,30.73c0,36.61-8.03,60.55-23.62,71.4c-6.14,4.07-25.98,5.87-59.99,5.87
		c-9.45,0-22.2,0-38.73,0.46c-13.7,0.45-26.93,0-39.68,0l-88.81-0.46c-16.06,0-24.09-7.68-24.09-22.14c0-5.87,2.36-10.85,7.09-15.36
		c8.03-7.68,12.28-12.2,13.23-14.01l8.98-13.56c4.25-6.78,7.08-23.95,8.03-51.51l3.78-116.59c0.47-9.94,1.42-18.53,0.47-26.21
		c-1.42-15.82-5.67-25.76-11.34-29.83c-2.83-1.36-6.61-3.61-11.81-6.78c-3.78-3.61-5.67-8.58-5.67-15.36
		c0-12.2,8.03-21.69,24.56-27.57c13.7-4.97,30.23-7.68,50.07-7.23c7.56,0,26.93,1.81,34.96,1.81c10.86,0,28.34-0.9,52.43-2.26
		c24.09-1.36,41.57-2.26,51.49-2.26c13.7,0,24.09,8.13,31.65,24.4c5.67,12.65,8.5,26.21,8.5,41.12c0,9.49-1.89,17.17-5.67,23.5
		c-5.2,7.68-11.81,11.75-20.78,11.75c-8.5,0-15.59-3.61-21.73-11.3c-8.98-11.3-15.59-18.08-20.31-21.24
		c-11.81-7.68-28.82-11.75-51.49-11.75h-10.39c-3.31,1.36-5.2,4.97-6.61,10.85c-0.47,2.26-0.95,4.07-0.95,6.32
		c0,9.95,5.2,18.08,15.59,24.4c8.98,5.42,19.84,8.13,32.59,8.13c5.2,0,13.23-9.94,18.42-9.94c4.72,0,7.08,3.16,7.08,9.94
		c0,10.4-1.42,20.79-4.25,30.28c-4.25,13.56-9.92,20.34-17.95,20.34c-5.2,0-9.92-3.62-14.64-11.3c-4.25-7.68-10.87-11.3-19.84-11.3
		c-9.92,0-15.12,8.13-15.12,23.95c0,37.51,22.68,56.49,68.5,56.49c3.78,0,14.17-3.16,18.42-1.81c2.36,0.45,4.25,0.45,5.67,0.45
		c8.03,0,14.17-3.62,19.37-10.85c5.2-7.23,9.45-10.85,12.75-10.85c9.45,0,17.48,15.36,17.48,25.76
		C1330.2,1976.93,1330.2,1984.61,1331.14,1997.27z M1688.23,2018.96c-7.09-5.42-11.81-10.85-14.17-15.82
		c-18.42-35.24-36.85-87.67-55.27-157.26c-4.72-17.62-8.5-29.37-11.81-35.25c-10.39-18.53-18.42-30.28-23.62-35.25
		c-11.81-10.85-28.82-17.17-51.02-19.43c-13.23-1.36-34.01,1.36-62.83,7.23c-33.54,7.23-50.54,15.81-50.54,25.76
		c0,1.81,1.89,4.52,6.14,8.13c5.2,4.52,8.5,9.04,10.87,13.11c4.25,7.68,6.14,16.72,6.14,28.02c0,28.92-6.61,62.82-19.37,101.68
		c-15.12,44.74-32.59,73.66-52.43,87.22c-17,11.3-25.03,26.21-25.03,44.74c0.47,20.79,21.73,31.18,65.19,31.18
		c28.81,0,49.13-1.36,59.99-4.52c22.68-5.87,34.01-19.43,34.01-40.22c0-5.42-2.83-11.3-8.98-17.62
		c-8.98-9.49-15.12-15.81-17.48-19.43c-6.14-9.94-8.98-21.69-8.98-35.25c0-18.53,5.67-31.18,17.48-37.96
		c8.98-1.36,13.23-2.26,13.23-2.26c12.28,0,23.62,1.81,34.01,5.88c13.7,4.97,20.78,12.65,20.78,22.14c0,28.02-7.08,48.8-21.26,62.36
		c-2.36,8.58-3.31,16.72-3.31,23.5c0,18.53,8.5,30.73,25.98,37.06c10.39,4.07,27.4,5.87,51.02,5.87c23.62,0,43.46-2.71,59.99-7.68
		c25.04-7.23,38.73-19.43,39.68-37.06c0.95-11.3-0.95-19.89-4.72-26.21C1699.57,2028.44,1695.32,2023.93,1688.23,2018.96z
		 M1528.1,1891.07c-1.42-0.91-5.67-1.36-11.81-1.36c-3.78,0-15.12,1.36-18.9,1.36c-8.03,0-12.28-1.36-12.28-4.07
		c0-5.87,2.36-14.46,7.56-25.76c6.14-13.1,11.81-19.43,17-19.43c8.98,0,16.06,6.33,21.26,18.53c5.67,13.56,8.5,21.69,8.5,23.95
		C1539.43,1888.36,1535.66,1890.62,1528.1,1891.07z M1891.8,1818.76c0,0-1.42,0.46-4.73,1.81l6.61,57.39l2.36,16.72
		c3.78,26.67,7.56,52.42,12.75,77.73c5.67,28.47,9.92,46.09,14.64,51.06c7.56,9.04,19.84,18.53,19.84,28.02
		c0,24.85-6.61,39.77-19.84,45.64c-9.92,4.52-36.85,6.78-80.78,6.78c-34.96,0-58.58-3.16-70.39-9.94
		c-11.81-6.78-17.48-19.88-17.48-39.31c0-4.52,2.83-9.49,8.98-14.91c7.09-6.78,11.34-10.85,12.28-13.11
		c4.72-8.58,10.39-30.73,16.53-65.52c6.14-33.44,10.39-63.27,12.75-89.93c0.47-6.78,1.42-23.04,1.89-48.8
		c-4.73-1.81-7.09-2.71-7.09-2.71c-4.25,0-7.56,3.62-10.87,10.85c-4.25,10.39-8.5,17.17-11.81,20.34
		c-7.08,7.23-17.95,10.84-31.65,10.84c-11.81,0-19.37-3.61-22.68-10.84c-2.36-4.52-3.31-13.11-3.31-26.21
		c0-13.55,4.25-27.57,12.75-42.47c9.45-17.17,20.31-25.76,32.59-25.76c4.25,0,10.87,1.36,19.84,3.62
		c8.98,2.26,15.59,3.16,19.84,3.16c52.91,0,88.34-0.91,106.29-2.26c3.31-0.45,9.92-4.97,14.17-4.97c13.23,0,24.56,8.13,34.01,24.85
		c8.03,14.01,12.28,28.47,12.28,42.48c0,25.75-9.92,38.41-30.23,38.41c-11.34,0-20.78-7.23-27.87-21.24
		C1906.44,1825.99,1898.88,1818.76,1891.8,1818.76z"/>
	<path d="M1418.88,709.15c0.53-5.4,1.03-8.06,2.74-14.32c0.68-2.59,1.46-6.08,5.65-25.37c2.88-13.36,3.8-18.55,5.36-29.52
		c1.21-8.7,1.17-7.39,0.96-31.98l-0.14-14.03l-2.1-5.15c-2.84-7.07-6.64-14.74-10.55-21.32c-4.58-7.75-5.19-8.53-11.62-15.1
		c-3.16-3.23-6.75-7.28-7.96-8.99c-2.06-2.91-2.24-3.34-3.38-7.89c-1.81-7.32-2.91-8.53-8.14-8.81l-2.91-0.14l-0.39-2.1
		c-0.82-4.05-0.36-12.58,0.89-16.02c1.03-2.98,1.88-6.93,2.42-11.48c1.17-9.7,1.67-24.94,0.92-27.6
		c-0.92-3.23-8.6-12.33-11.87-14.03c-0.96-0.5-2.63-1.46-3.66-2.17c-1.1-0.71-2.59-1.35-3.41-1.46c-1.31-0.18-1.49-0.32-1.7-1.42
		c-0.28-1.42-0.89-1.88-2.06-1.63c-0.6,0.14-1,0-1.35-0.53c-0.32-0.46-0.89-0.71-1.71-0.71c-1.07,0-1.28-0.14-1.46-1
		c-0.43-1.99-0.57-2.2-1.39-2.42c-0.85-0.21-2.13,0.36-3.77,1.67c-0.75,0.6-1.07,0.67-1.67,0.35c-0.39-0.21-1.46-0.39-2.31-0.39
		c-0.89,0-2.17-0.25-2.84-0.53c-0.71-0.28-1.78-0.53-2.34-0.53c-1.63,0-6.47,1.63-8.21,2.81c-1.78,1.14-5.19,1.88-7.99,1.78
		c-3.55-0.14-7.39,0.64-9.95,1.95c-1.28,0.71-2.56,1.28-2.81,1.28c-0.21,0-1.28,0.57-2.35,1.24c-1.38,0.89-2.34,1.24-3.37,1.24
		c-2.31,0-4.02,0.64-4.9,1.81c-0.43,0.6-1.24,1.35-1.78,1.63c-0.67,0.32-1.28,1.14-1.74,2.27c-0.64,1.49-0.89,1.74-1.74,1.74
		c-2.2,0-2.74,1.63-2.13,6.64c0.78,6.75,3.02,12.72,5.79,15.63l1.42,1.46l-0.14,3.37c-0.11,2.95-0.28,3.66-1.28,5.54
		c-0.99,1.92-1.14,2.52-1.14,5.01c0,2.63,0.07,2.91,1.07,4.01c1.56,1.78,1.85,2.81,1.42,5.29c-0.18,1.17-0.57,2.49-0.89,2.91
		c-1.95,2.67-3.05,4.55-3.59,6.15c-1.14,3.2,0.11,4.3,5.19,4.69l3.02,0.22l0.6,1.92c0.71,2.24,1.39,3.06,3.16,3.98
		c1.56,0.78,1.99,2.02,1.21,3.52c-0.71,1.35-0.67,1.88,0.14,3.48c0.39,0.71,0.89,2.56,1.17,4.09c0.46,2.45,0.46,2.74-0.04,2.59
		c-0.32-0.11-2.31-0.53-4.48-0.92c-4.69-0.96-6.79-1.71-11.05-3.98c-1.81-0.96-4.58-2.2-6.18-2.81c-4.26-1.53-4.65-1.81-6.86-4.51
		c-1.07-1.35-3.05-3.38-4.37-4.55c-3.16-2.74-3.55-3.2-4.26-5.12c-1.24-3.41-1.78-4.48-3.2-6.08c-0.82-0.92-1.74-2.45-2.1-3.38
		c-1.35-3.73-2.45-5.54-5.68-9.2c-2.06-2.35-3.41-4.23-3.59-4.9c-0.39-1.88-1.81-4.41-5.58-9.91c-3.2-4.73-5.19-7-8.7-9.91
		c-0.6-0.5-1.21-1.38-1.35-1.95c-0.36-1.53-4.58-12.19-6.54-16.49c-0.92-2.06-3.02-6.93-4.65-10.84c-1.6-3.91-3.52-8.03-4.19-9.2
		c-1.17-1.95-1.24-2.35-1.49-6.22c-0.18-2.7-0.61-5.19-1.21-7.28c-1.35-4.69-1.42-5.72-0.57-9.34c0.85-3.66,0.89-4.65,0.35-6.68
		c-0.46-1.67-3.27-4.58-6.61-6.79c-2.02-1.35-2.13-1.53-1.6-2.06c0.39-0.39,0.6-1.35,0.67-3.13l0.11-2.56l-1.78-1.67
		c-1.56-1.46-1.78-1.85-1.78-3.06c0-1.6-0.6-2.31-2.52-2.91c-1.28-0.39-1.28-0.46-1.14-1.95c0.18-1.46,0.14-1.53-1.07-2.1
		c-0.67-0.32-1.56-0.6-1.95-0.6c-0.99,0-1.38-0.64-1.67-2.59c-0.14-0.92-0.53-2.02-0.85-2.42c-0.75-0.89-2.7-1.17-4.3-0.57
		c-2.02,0.75-10.55,6.22-12.58,8.1c-3.06,2.81-4.19,5.4-7.89,18.44c-0.89,3.23-1.95,7.18-2.31,8.81c-1.21,5.29-2.1,14.46-2.49,25.44
		c-0.18,5.83-0.57,12.22-0.82,14.21c-1.67,12.22-5.61,36.7-7.35,45.51c-2.99,15.1-4.41,18.3-10.66,23.98
		c-9.88,8.99-15.03,13.11-24.34,19.54c-5.51,3.8-12.29,9.34-14.07,11.44c-0.82,1-2.7,3.48-4.19,5.58c-1.74,2.45-3.27,4.16-4.3,4.87
		c-2.52,1.67-7.07,3.05-10.84,3.23l-3.2,0.18l0.1-3.3c0.07-1.85,0.39-5.08,0.68-7.25c0.29-2.13,0.5-4.37,0.5-4.97
		c0-0.75,0.53-1.81,1.6-3.3c2.56-3.52,3.06-4.69,3.59-8.85c0.71-5.65,1.88-8.78,4.8-12.83c2.03-2.88,2.31-4.65,1.81-11.76
		c-0.21-3.23-0.32-6.4-0.21-6.96c0.11-0.6,0.43-2.49,0.74-4.19c3.02-16.7-9.8-34.93-29.2-41.5c-2.27-0.78-3.05-0.85-9.06-0.85
		c-6.29,0-6.68,0.04-9.42,0.99c-6,2.13-9.77,4.23-13.18,7.43c-1.74,1.63-4.26,3.77-5.65,4.73c-6.43,4.55-11.94,8.88-14.14,11.08
		c-1.88,1.95-2.88,3.38-4.8,7.04c-1.88,3.62-2.7,4.8-3.87,5.65c-0.78,0.61-3.09,2.31-5.12,3.77c-4.76,3.48-7.85,6.57-10.34,10.34
		c-2.13,3.23-2.77,4.55-3.91,7.96c-0.64,1.85-0.75,3.45-0.96,12.08c-0.25,11.3-0.25,11.33-3.06,13.32c-2.84,2.02-3.91,3.27-4.8,5.51
		c-0.75,1.95-0.85,2.7-0.85,8.6c-0.04,3.59-0.14,6.5-0.28,6.5c-2.31,0-11.01,1.35-12.97,1.99c-3.34,1.1-7.25,3.41-9.49,5.65
		c-2.45,2.42-3.98,5.47-6.75,13.5c-6.29,17.94-9.13,25.12-13.57,34.04c-3.73,7.42-5.12,10.52-7.32,16.24
		c-3.06,8.06-8.17,18.08-11.37,22.28c-0.96,1.28-3.06,3.77-4.66,5.54c-1.6,1.81-3.8,4.3-4.83,5.58c-1.49,1.78-2.56,2.66-4.69,3.8
		c-1.53,0.82-3.55,1.99-4.48,2.63c-1.92,1.31-16.34,15.67-21.25,21.1c-1.74,1.95-4.01,4.44-5.01,5.51
		c-1.6,1.71-4.12,4.69-13.75,16.34c-1.21,1.46-5.61,6.11-9.84,10.3c-7.6,7.64-12.72,11.87-22.03,18.26
		c-7.14,4.94-8.7,6.75-11.16,12.83c-0.92,2.24-1.95,3.98-3.45,5.86c-3.34,4.12-4.26,6.54-6.36,17.23
		c-2.2,11.19-2.56,12.83-3.76,16.41c-0.64,2.02-2.13,5.72-3.3,8.21c-4.41,9.38-8.49,22.31-10.13,31.87
		c-2.1,12.33-5.65,45.33-7.32,68.22c-2.31,31.51-4.73,52.05-8.35,70.88c-4.97,25.58-5.54,28.92-7.35,43.7
		c-1.14,9.49-1.17,22.35,0,27.64c1.88,8.67,4.87,13.46,12.22,19.75c7.43,6.29,12.97,9.59,19.18,11.37c4.76,1.35,8.6,1.74,15.21,1.53
		c10.7-0.36,14.5,0.6,17.94,4.44c3.45,3.84,5.19,8.14,6.22,15.42c1,6.75,1.64,8.28,4.94,11.51c4.9,4.83,9.88,6.61,17.8,6.29
		c5.4-0.25,9.06-0.99,18.9-3.94c10.98-3.27,12.61-3.59,18.94-3.55c4.83,0.03,5.72,0.14,9.59,1.17c20.64,5.54,22.7,5.86,37.48,5.86
		c11.72,0.04,16.49-0.32,22.49-1.63c1.81-0.39,3.59-0.68,3.98-0.68c1.42,0.04,7.32,2.2,13.36,4.87
		c17.44,7.71,28.96,10.73,42.24,11.05c6.96,0.18,7.07,0.18,26.47-2.81c3.91-0.6,6.61-0.78,12.44-0.78c6.89,0,7.96,0.07,14.03,1.17
		c8.99,1.6,14.71,1.78,24.91,0.78c13.07-1.28,15.67-1.07,36.77,2.77c17.69,3.23,21.81,3.84,29.42,4.3c3.48,0.21,7.89,0.53,9.77,0.75
		c1.88,0.18,7,0.43,11.4,0.53c6.72,0.18,9.2,0.11,15.46-0.53c4.12-0.43,10.34-0.92,13.86-1.1c3.91-0.21,8.31-0.71,11.37-1.24
		c7-1.31,12.15-1.49,20.61-0.71c6.01,0.53,7.64,0.57,11.3,0.21c8.28-0.85,14.14-2.84,16.77-5.79l1.53-1.7l1.24,0.71
		c2.95,1.74,5.29,1.95,22.14,1.95h15.67l-0.04,2.02c-0.03,1.63,0.11,2.17,0.82,2.91c0.89,0.92,3.09,1.81,5.54,2.13
		c0.78,0.11,4.69,0.71,8.7,1.32c7,1.07,7.43,1.1,12.08,0.71c2.67-0.21,6.11-0.39,7.64-0.39c3.34,0,11.41,0.85,14.92,1.6
		c11.08,2.27,17.62,2.42,24.69,0.57c7.75-1.99,12.54-4.55,14.6-7.78c1.21-1.85,1.21-2.66,0.18-7.35
		c-0.57-2.52-1.31-13.72-1.99-29.49c-0.43-10.06-1.07-17.45-2.17-24.8c-0.92-6.32-1.21-14.89-0.75-24.76
		c0.39-8.88,0.07-16.52-1-23.63c-0.89-5.9-2.42-13.22-3.77-18.12c-0.85-3.2-1-4.4-1.21-11.9c-0.21-6.75-0.43-8.92-1.03-11.33
		c-0.92-3.59-2.95-8.7-5.33-13.47c-3.02-6.04-3.87-8.99-4.65-16.2c-0.89-7.99-1.53-11.87-3.02-17.98c-0.64-2.63-1.1-4.94-1-5.08
		c0.11-0.18,0.25-3.48,0.28-7.32c0.07-4.73,0.29-7.85,0.68-9.74c0.64-3.16,0.75-11.4,0.18-16.06c-0.85-7.28-0.82-9.73,0.14-13.89
		c0.64-2.63,1.07-5.72,1.31-9.73c0.5-7.85,0.82-10.3,2.67-18.65c2.74-12.54,3.3-16.59,4.09-29.49c0.21-3.52,0.75-9.27,1.17-12.79
		c0.57-4.9,0.78-8.38,0.78-14.92c0-8.99,0-9.13-2.13-20.07c-3.41-17.59-4.05-27.85-2.2-34.46
		C1415,733.56,1417.99,718.57,1418.88,709.15z M989.55,678.31c-0.57,3.48-0.75,6.04-0.75,11.9c0,7.46-0.67,15.85-1.39,17.16
		c-0.46,0.85-0.36,0.82-8.74,2.2c-7.6,1.24-11.69,2.09-16.34,3.45c-11.55,3.31-34.78,13.57-46.54,20.61
		c-7.6,4.55-14.39,8.17-19.5,10.45c-2.95,1.31-5.44,2.31-5.54,2.2c-0.11-0.11,1.42-1.74,3.37-3.62c3.84-3.66,10.55-9.03,16.34-13
		c4.62-3.2,19.26-14.32,24.41-18.58c3.73-3.09,9.99-10.27,15.63-17.87c1.67-2.27,3.91-5.15,4.97-6.39c2.1-2.49,9.27-11.8,18.4-23.88
		c3.23-4.26,6.57-8.7,7.46-9.88l1.6-2.09l0.39,1.31c0.25,0.75,1.46,3.98,2.74,7.21C990.33,670.28,990.61,671.85,989.55,678.31z
		 M1331.3,1090.16c-0.6,4.73-1.85,8.1-5.22,13.96l-2.88,4.97l-2.45,0.46c-1.56,0.32-5.83,0.5-12.01,0.53
		c-8.24,0.07-9.84,0.18-11.3,0.71c-0.96,0.36-1.78,0.6-1.81,0.53c-0.04-0.07-0.71-1.56-1.46-3.3c-0.75-1.78-2.38-5.37-3.62-7.99
		c-1.28-2.63-2.95-6.61-3.69-8.85c-0.78-2.2-1.95-5.08-2.59-6.4c-2.31-4.55-8.14-12.58-13-17.98c-6.75-7.43-9.06-11.73-15.28-28.42
		c-1.63-4.3-4.55-11.33-6.47-15.63c-4.41-9.77-6.4-14.5-9.77-23.27c-3.62-9.42-6.5-16.24-10.55-24.76
		c-4.76-10.09-6.75-14.85-16.34-39.19c-4.69-11.94-13.11-32.47-14.96-36.59c-3.16-7.03-13.32-26.82-19.04-37.13
		c-9.31-16.74-16.88-32.33-30.59-63.06c-6-13.47-5.97-13.43-14.5-30.38c-8.81-17.48-9.63-19.36-14.21-33.22
		c-4.44-13.54-7.07-19.47-11.3-25.76c-2.59-3.84-4.16-5.47-8.53-8.95c-1.81-1.46-3.69-3.23-4.19-3.98
		c-0.64-0.99-1.21-3.13-2.31-8.42c-0.78-3.87-1.92-8.42-2.49-10.09c-2.95-8.17-3.02-7.67,2.98-22.95c1.85-4.65,3.73-9.63,4.16-10.98
		c1.24-3.84,5.19-13.07,7.32-17.23c1.85-3.59,7.43-11.48,11.16-15.7c1-1.1,3.27-3.34,5.08-4.94c1.78-1.6,5.26-4.76,7.67-7.03
		c2.41-2.28,6.57-5.97,9.24-8.21c2.63-2.24,6.71-5.86,9.02-7.99c2.34-2.17,6.75-6.08,9.81-8.74c5.68-4.97,29.13-28.6,34.71-34.96
		c1.71-1.95,3.91-4.69,4.94-6.04c1.03-1.39,2.81-3.16,4.01-4.02c3.41-2.49,4.16-4.33,5.76-14.46c0.36-2.35,0.85-5.86,1.07-7.82
		c0.21-1.95,0.85-6.93,1.42-11.02c3.2-23.06,3.41-25.87,2.7-37.3c-0.32-4.9-0.64-9.77-0.75-10.84l-0.18-1.95l0.89,1.81
		c0.5,0.99,1.39,4.01,1.99,6.75c0.92,4.09,1.6,6.14,2.74,8.38c0.07,0.18-0.07,0.28-0.32,0.28c-0.25,0-0.92,0.43-1.46,0.96
		c-1.85,1.78-1.14,5.19,1.81,8.38c2.45,2.67,3.34,5.08,4.83,12.97c1.14,6.04,1.42,6.96,4.51,16.38c3.77,11.44,7.53,20.15,13.4,30.95
		c2.81,5.19,5.83,10.77,6.71,12.4c2.02,3.8,3.34,5.22,7.53,8.21c1.99,1.42,3.94,3.16,4.76,4.26c3.06,4.05,11.73,10.76,21.67,16.88
		c8.31,5.08,13.89,8.99,20.75,14.64c4.76,3.91,14.71,11.8,16.91,13.43l0.96,0.71l-0.92,10.48c-1.99,23.23-2.59,27.78-6.71,51.8
		c-1.31,7.5-3.16,19.22-4.12,26.01c-2.24,15.63-2.13,15.06-8.53,41.21c-0.96,3.98-1.78,7.99-1.78,8.92c0,0.89,0.39,3.55,0.85,5.86
		c1.24,6.15,1.99,11.4,1.99,14.28c0,5.65,1.03,7.42,4.09,7.07c1.39-0.14,1.6-0.07,1.46,0.43c-0.57,1.88-3.94,15.78-4.69,19.22
		c-0.46,2.24-1.56,7.21-2.45,11.01c-0.89,3.8-2.24,9.88-3.02,13.5c-1.92,8.74-3.55,15.13-5.86,23.16
		c-5.58,19.29-6.22,26.15-4.83,51.62c1.14,20.43,1.67,25.79,4.26,43.17c0.39,2.63,0.89,8.06,1.1,12.08
		c0.53,10.55,0.99,15.31,2.17,22.52c1.24,7.68,2.38,12.29,5.51,22.53c6.57,21.67,10.52,32.72,19.43,54.43
		c4.8,11.65,5.26,13,11.26,31.8l3.98,12.4L1331.3,1090.16z"/>
	<path d="M446.53,549.51c12.53,13.28,16.67,24.43,12.88,33.95c-2.79,7.2-15.17,21.17-37.62,42.36
		c-18.11,17.09-31.53,26.57-40.98,28.64c-9.45,2.07-18.96-2.19-28.75-12.57c-2.28-2.41-3.34-6.44-3.17-12.07
		c0.2-7.04,0.32-11.26-0.09-13.15c-1.7-6.15-8.86-18.57-21.01-36.77c-10.35-15.8-18.7-27.54-24.81-35.47
		c-0.68-0.72-3.71-1.52-9.55-2.86c-7.24-1.38-13.51-3.68-19.3-6.43c-7.91-2.58-17.67-6.14-29.29-10.24
		c-3.74-0.58-7.96-0.7-13.15,0.09c-8.49,1.17-12.96,1.74-12.96,1.74c-2.13,0.64-5.2,1.26-9.45,2.07c-3.51-0.34-6.98-2.08-10.4-5.7
		c-6.15-6.52-6.83-15.46-1.35-26.57c4.25-9.04,11.33-18.46,21.94-28.02c14.47-13.2,25.96-20.85,34.96-23.41
		c7.33-1.9,13.39-0.32,18.41,4.99c6.15,6.52,4.35,11.87,3.72,17.48c-0.63,5.62,1.3,12.01,6.82,15.93
		c11.27,8.07,20.4,9.04,26.92,2.89c2.41-2.28,2.58-7.91,0.73-17.12c-2.01-3.58-3.75-8.33-5.47-14.01c-1.29-4.26-2.38-6.88-3.29-7.84
		c-0.91-0.97-2.11-0.3-7.29,0.49c-3.75-0.11-7.23-1.85-10.64-5.47c-11.62-12.31-4.75-30.66,20.59-54.59
		c19.55-18.46,34.23-22.73,43.58-12.83c2.96,3.14,4.52,6.23,4.19,9.28c-0.16,5.63,0.44,9.17-4.55,19.36
		c-3.76,8.11-6.01,12.98-6.56,15.78c-0.31,2.57-0.19,6.57,0.57,12.7c0.16,19.03,0.52,31.01,1.3,36.2
		c1.27,12.95,4.76,22.45,10.22,28.24l3.87,4.1c34.9,27.31,56.57,41.55,64.97,43.2C430.94,544.6,441.75,544.44,446.53,549.51z
		 M630.05,362.07c14.61,23.75,17.74,49.11,9.84,76.18c-7.74,25.42-23.41,45.58-47.44,60.36c-26.86,16.52-54.78,19.28-83.95,7.99
		c-26.24-10.36-48.03-29.3-65.08-57.01c-18.79-30.54-27.78-61.64-27.17-93.58c0.79-36.73,15.52-64.11,44.36-81.85
		c27.99-17.22,59.39-14.32,94.31,8.24C583.82,300.86,608.66,327.29,630.05,362.07z M545.34,363.12c-7.65-12.44-19-24.55-33.59-36.24
		c-18.44-14.77-32.66-18.88-42.56-12.79c-5.94,3.65-7.85,10.68-5.57,21.35c1.46,8.07,4.67,15.83,9.37,23.47
		c7.83,12.72,17.28,23.66,28.31,32.08c14.87,11.51,27.59,13.81,38.62,7.03C552.93,390.02,554.73,378.39,545.34,363.12z
		 M834.52,252.96c-5.25-13.99-8.99-24.64-11.51-31.85c-7.79-22.25-11.4-38.57-10.82-48.97c0.17-2.52,1.89-6.64,5.17-12.36
		c2.35-4.34,2.91-8.76,1.27-13.46c-2.63-7.52-9-11.62-18.77-12.42c-7.57-0.51-15.53,0.87-23.99,3.83
		c-32.9,11.52-46.65,25.49-41.05,41.47c1.98,5.64,6.02,9.15,12.33,10.1c7.16,1.36,13.13,7.36,18.54,17.78
		c4.44,8.65,9.34,20.64,14.94,36.62c10.87,31.02,6.25,44.95-23.83,55.48c-17.86,6.26-31.1,5.62-39.83-2.23
		c-5.75-5.37-12.24-17.87-19.25-36.87l0.53,0.52c-6.91-19.74-9.86-34.18-9.38-43.85c0.17-2.52,2.1-7.07,5.37-12.78
		c2.35-4.34,2.91-8.76,1.27-13.46c-5.16-14.73-24.91-15.9-59.06-3.93c-11.28,3.95-20.44,8.92-27.6,14.59
		c-10.48,8.24-14.13,16.91-10.94,25.99c1.65,4.7,4.73,7.49,9.17,9.1c6.02,2.11,10.67,4.35,13.44,7.25
		c5.97,6,11.38,16.42,16.76,31.77c2.41,6.89,5.72,17.34,9.61,31.46c4.2,14.01,7.51,24.45,9.93,31.35
		c12.62,36.03,29.23,58.35,49.95,67.27c19.98,8.83,48.4,6.61,85.37-6.34c20.36-7.13,36.29-22.91,47.78-47.34
		c11.38-24.74,13.46-46.92,6.33-67.29C843.7,277.18,839.77,266.95,834.52,252.96z M1254.57,314.03c-5.89-5.08-9.14-9.45-9.74-13.77
		c-3.94-23.3-8.54-46.62-12.48-69.92c-4.84-28.96-6.45-52.56-6.16-70.48c0.14-8.3,3.25-15.88,9.67-22.75
		c6.42-6.87,9.83-12.45,9.9-16.44c0.25-15.6-16.88-23.85-51.4-24.07c-15.27-0.25-25.91,0.91-31.92,2.8
		c-10.35,3.48-17.44,10.67-20.94,21.9l-5.25,36.77c-2.64,19.21-7.44,28.76-13.41,28.67c-4.31-0.07-8.54-5.78-13-17.14
		c-2.86-7.68-5.39-15.69-7.92-23.37c-1.6-4.01-4.74-14.69-9.11-32.02c-1.86-8-5.76-13.04-11.37-15.46
		c-6.26-2.76-19.85-4.31-40.76-4.65c-12.28-0.2-22.6,1.29-31.27,4.14c-12.35,4.11-18.77,10.98-18.93,20.61c0,0,1.27,3.67,3.8,11.35
		c11.51,6.83,17.3,17.88,17.05,33.48c-0.21,12.94-2.89,34.81-8.36,65.27c-5.83,32.11-10.81,52.61-15.26,60.84
		c-0.69,1.65-3.73,4.59-8.79,9.49c-4.38,3.91-6.43,7.53-6.48,10.85c-0.23,14.27,3.59,23.96,11.81,29.07
		c8.22,5.11,24.44,7.7,49.34,8.11c26.89,0.44,38.17,0.29,47.16-1.23c11.65-2.14,18.7-6.67,20.47-13.61
		c2.4-4.94,3.52-12.56,3.69-22.52c0.11-6.97-8.07-14.41-13.61-20.8c-1.62-2.35-3.2-7.02-5.07-14.69
		c0.77-26.88,3.97-40.11,9.62-40.02c2.32,0.04,4.92,3.73,6.79,11.4c3.12,12,5,19.01,5.96,21.34c3.19,7.69,7.78,11.41,13.43,11.51
		c4.98,0.08,9.36-3.83,12.8-11.41c0.36-1.32,2.79-8.25,6.65-21.14c2.11-7.6,4.5-11.21,7.16-11.5c5.31,0.09,8.56,4.12,9.44,11.77
		l-0.3,18.26c-0.09,5.64-0.9,14.26-2.41,25.52c-1.87,12.92-3.32,20.2-5.68,22.48l-6.41,6.2c-2.36,2.29-3.07,4.93-3.11,7.92
		c-0.16,9.96,8.03,16.4,24.57,19.99c7.61,1.45,19.54,2.64,36.14,2.91c16.93,0.28,28.89-0.53,36.55-1.73
		c16.98-3.04,25.71-9.21,25.88-19.5C1263.38,323.47,1260.47,318.77,1254.57,314.03z M2003.81,493.73
		c-3.39,9.53-8.69,18.19-16.13,26.23c-4.73,5.12-9.54,8.35-14.65,9.96c-6.51,1.66-11.95,0.7-16.58-3.58
		c-4.39-4.06-6.24-9.39-5.57-16.46c1.01-10.37,0.98-17.18,0.12-21.14c-2.26-9.78-9-20.09-20.7-30.91l-5.36-4.96
		c-2.38-0.85-5.16,0.2-8.82,2.69c-1.37,0.99-2.52,1.74-3.64,2.96c-4.96,5.36-6.34,12.23-4.13,20.6c1.92,7.21,6.18,13.86,12.75,19.94
		c2.68,2.48,11.78,0.95,14.46,3.43c2.44,2.26,2.08,5.09-1.31,8.74c-5.19,5.6-11.1,10.53-17.3,14.3c-8.96,5.28-15.26,6.23-19.4,2.4
		c-2.68-2.48-3.31-6.68-1.92-13.08c1.64-6.17,0.03-11.28-4.6-15.56c-5.12-4.73-11.86-2.83-19.75,5.7
		c-18.71,20.22-16.48,41.28,7.15,63.15c1.95,1.8,8.89,5.06,10.41,7.82c0.99,1.37,1.97,2.27,2.7,2.95c4.14,3.83,9.11,4.81,15.4,3.39
		c6.29-1.42,10.28-1.34,11.99,0.24c4.87,4.51,1.35,16.62-3.83,22.23c-1.58,1.71-5.41,5.85-11.24,13.12
		c-5.84,6.8-10.54,12.86-14.6,17.24c-18.26,19.74-34.35,28.82-47.8,27.23c-5.2-0.74-16.33-9.23-33.87-25.46
		c-4.88-4.51-11.45-10.59-20.21-18.24c-7.29-6.3-13.89-12.85-20.47-18.94l-45.58-42.63c-5.05-4.67-7.1-9.46-6.32-14.26
		c-4.26-1.09-9.45-3.57-16.15-7.49l-33.54-19.59c-7.17-4.18-12.18-9.42-15.21-15.42c-3.84-7.24-4.38-24.09-0.81-49.3
		c3.05-21.67,6.84-43.29,9.89-64.96c2.81-22.58,1.86-35.44-3.01-38.28c-1.84-1.46-3.99-0.41-5.21,2.34
		c-16.58,42.21-24.77,67.42-24.11,75.5c1.69,8.29,5.17,18.79,1.66,24.8c-9.21,15.77-18.75,22.88-28.95,21.92
		c-7.69-0.65-24.87-8.76-51.53-24.33c-23.22-13.56-36.62-24.85-40.31-34.31c-2.7-1.96-3.41-4.69-1.53-8.58
		c0.09-2.28,0.59-4.73,1.34-7.28c-6.02,6.23-15.69,9.39-28.83,9.58c-12.17,0.31-26.12-1.62-42.08-6.19s-27.08-9.14-33.27-14.03
		c-10.53-7.85-13.8-18.11-10.05-31.2c1.37-4.79,3.66-10.35,6.99-15.95c12.31-6.83,21.31-20.13,26.98-39.92
		c1.92-6.7-1.31-13.5-9.56-19.66c-6.2-4.89-13.49-8.36-21.78-10.73c0,0-3.05-0.19-9.39-0.97c-9.35,2.5-15.74,10.34-19.49,23.42
		c-2.74,9.57-3.21,18.42-1.07,26.63c0.87,3.01,3.73,8.66,7.87,17.1c2.87,5.66,3.59,10.35,2.5,14.18
		c-4.21,14.68-14.61,22.06-31.12,21.81c-7.98,0.13-21.97-2.84-41.44-8.42c-29.36-8.41-41.61-19.87-37.72-34.64
		c3.75-13.08,12.19-22.06,25.97-26.74c16.14-5.73,33.8-22.77,53.07-51.43c16.48-24.97,27.81-47.62,33.66-68.05
		c2.29-7.98,2.84-14.72,1.52-20.97c-0.77-3.33-2.09-7.16-4.69-11.36c-2.14-3.38-2.87-5.66-2.5-6.93c2.01-7.02,15.24-9.79,39.36-8.4
		c20.65,1.43,35.24,3.54,43.9,7.06c14.54,5.9,24.75,13.66,30.53,23.6c2.5,4.52,5.55,14.37,8.82,29.46
		c1.05,4.79,1.22,13.82,0.84,27.18c-1.64,52.71,0.2,93.29,5.51,121.74c0.59,3.97,2.68,8.71,6.37,13.91
		c3.78,4.88,5.74,8.9,6.69,11.59c0.97,3.94,0.92,8.6-0.43,14.01c1.98-1.83,5.01-3.25,9.24-4.18c6.81-1.79,10.9-2.86,12.31-3.96
		c24.41-16.11,49.8-45.11,75.09-88.39c11.22-19.21,15.22-32.63,12.69-39.49c-1.22-1.86-2.67-4.64-4.66-8.48
		c-0.67-3.46,0.03-7.29,2.54-11.59c4.52-7.74,12.91-10.91,25.12-8.78c9.87,1.54,20.9,5.68,33.06,13.16
		c16.74,10.17,27.33,19.04,32.31,26.95c3.89,6.5,4.08,12.76,0.4,19.07c-6.36,10.89-16.04,6.39-24,12.12
		c-4.23,3.29-8.39,7.78-13.1,13.88c-3.73,7.05-3.45,11.83,1.14,14.51c15.77,9.21,28.86,4.56,39.58-13.79
		c3.35-5.73-0.09-16.96,3.26-22.7c4.19-7.17,11.33-9.53,21.77-7.66c8.96,1.77,22.29,7.25,39.37,16.84
		c10.77,5.91,17.32,10.5,19.92,13.94c4.52,6.1,4.03,13.51-0.87,22.56c-3.51,6.02-10.04,7.97-18.95,5.46l-19.45-7.51
		c-6.74-1.63-14.86-0.23-24.49,3.76c-13.77,5.8-24.86,16.23-33.28,31.31c-8.76,15.65-8.58,40.36,0.53,74.12
		c5.89,21.51,13.29,40.44,21.85,57.36c1.98,3.85,5.61,12.12,11.46,25.14c0.91,2.26,0.28,7.13-0.86,11.31
		c4.63-0.27,7.37-0.59,8.41-0.98l11.39-3.03c5.58-1.63,15.6-9.53,29.84-23.94l60.11-61.06c5.2-5.14,9.97-9.31,13.32-13.91
		c7.16-9.21,9.93-16.59,9.03-21.49c-0.79-2.08-1.61-5.11-2.71-9.29c-0.15-3.75,1.36-7.34,4.74-10.99
		c6.09-6.58,14.96-7.86,26.42-3.14c9.55,3.86,19.43,10.29,29.43,20c3.9,3.61,12.99,13.82,17.13,17.66
		c5.61,5.18,15.07,13.04,28.17,23.8c13.1,10.77,22.57,18.62,27.69,23.36C2006.73,472.01,2008.03,481.35,2003.81,493.73z
		 M1434.28,215.47c-1.04-9.62-4.55-15.46-10.61-17.2c-3.51-1.01-8.62,2.36-15.42,10.43c-5.8,6.97-9.13,12.58-10.32,16.72
		c-0.55,1.92,2.05,3.69,7.47,5.24c2.55,0.73,10.49,1.97,13.04,2.7c4.15,1.19,6.93,2.33,7.7,3.25c5.2,1.15,8.21,0.28,9.03-2.59
		C1435.64,232.43,1435.37,226.14,1434.28,215.47z"/>
</g>
</svg>
