<?xml version="1.0" encoding="utf-8"?>
<!-- Generator: Adobe Illustrator 25.0.1, SVG Export Plug-In . SVG Version: 6.00 Build 0)  -->
<svg version="1.1" id="Layer_1" xmlns="http://www.w3.org/2000/svg" xmlns:xlink="http://www.w3.org/1999/xlink" x="0px" y="0px"
	 viewBox="0 0 2500 2500" style="enable-background:new 0 0 2500 2500;" xml:space="preserve">
<style type="text/css">
	.st0{fill:#231F20;}
</style>
<path transform="translate(0.000000,2500.000000) scale(0.100000,-0.100000)" class="st0" d="M4600,18470c-162-20-314-83-460-191
	c-114-84-428-400-574-579c-303-371-631-845-859-1240c-110-191-317-611-385-780c-100-250-195-580-244-850c-32-176-33-457-3-510
	c39-66,137-90,203-50c26,16,32,25,26,38c-75,166,174,946,476,1492c408,739,1075,1624,1580,2096c109,101,245,214,260,214
	c14,0,20-59,26-245c16-466-57-897-445-2645c-398-1795-575-2753-696-3765c-95-803-165-1906-152-2405c10-373,29-452,121-501
	c73-40,149-52,273-46c119,5,182,23,233,65l33,28l23,189c57,457,239,1366,399,1990c334,1309,903,2842,1591,4290
	c305,642,812,1618,1047,2015c123,207,326,506,358,526c14,8,11-109-6-267c-9-77-88-575-176-1107c-402-2432-470-2945-486-3647
	c-8-393,12-582,71-660c29-38,106-78,184-94c66-14,192-14,263-1c68,13,158,57,181,90c9,14,40,102,69,195c285,948,573,1599,1119,2535
	c371,635,698,1119,1079,1600c206,260,462,532,631,670l65,53l3-39c14-158-100-652-323-1404c-759-2560-1064-3999-1145-5404
	c-5-98-10-278-10-400c0-644,96-950,335-1066c207-101,490-88,692,31c79,47,250,220,361,366c591,778,1275,2135,1678,3327
	c88,260,186,593,244,832l42,171l306,7c169,3,319,9,335,12l27,6v-58c0-79-30-198-145-574c-235-769-344-1231-435-1835
	c-102-686-147-1270-137-1790c5-297,17-413,57-573c44-171,139-305,256-359c88-40,227-59,333-46c169,22,260,78,324,200
	c57,109,115,278,491,1418c538,1629,923,2765,945,2787c4,4,26-52,50-125c68-207,204-555,396-1012c211-501,335-810,335-830
	c0-9-49-67-108-130c-279-293-659-754-861-1043c-230-331-334-542-381-772c-56-277-29-499,91-730c187-359,541-620,939-691
	c94-17,343-17,429,0c182,36,339,114,463,230c138,129,237,279,328,493c211,501,260,926,169,1473c-57,343-189,796-363,1244l-37,95
	l58,59c84,86,390,365,518,471c444,372,867,642,1234,790c140,56,161,69,161,101c0,33-32,52-105,63c-80,13-154,1-300-47
	c-478-158-1015-502-1657-1062l-48-41l-9,24c-5,12-86,201-181,418c-373,858-538,1323-596,1675c-25,149-25,450,0,584
	c54,293,183,520,391,688c141,113,291,171,413,159c226-23,431-204,517-455c77-227,72-573-11-836c-61-192-118-328-279-670
	c-142-303-159-346-151-378c14-55,175-82,259-42c113,53,537,781,646,1110c67,200,84,302,84,495c0,129-4,186-20,260
	c-41,193-115,332-243,460c-202,200-490,302-855,303c-238,0-432-42-630-137c-343-164-593-436-713-777c-82-234-112-564-72-811
	c8-51,6-58-51-181c-206-446-406-976-1117-2972c-138-385-285-796-329-914l-78-214l-3,164c-6,313,24,922,69,1399
	c72,768,150,1249,338,2078c110,481,131,592,138,707c10,168-29,251-145,309c-102,51-158,56-581,54c-259-2-393,0-400,7
	c-7,8-5,52,9,145c64,428,45,772-51,963c-89,176-239,252-494,250c-152-1-244-21-370-82c-277-132-485-450-485-740
	c0-175,55-305,175-420c152-144,369-237,687-295c104-19,123-26,126-42c3-24-75-341-133-539c-239-812-694-1826-1198-2670
	c-263-441-625-932-850-1154l-75-73l-18,98c-16,86-19,150-19,474c0,370,4,450,46,895c116,1252,344,2368,964,4725
	c250,949,310,1244,322,1576c8,237-16,345-95,427c-124,129-411,155-620,56c-178-85-449-358-788-794c-597-768-1372-1966-1819-2813
	c-100-188-114-211-110-172c3,25,15,124,26,220c32,282,123,971,209,1590c156,1113,229,1744,237,2046c6,232-3,328-43,454
	c-61,192-169,269-391,278c-279,11-385-81-687-598c-151-257-925-1814-1269-2550c-479-1026-928-2132-1273-3135
	c-57-165-103-290-103-278c-1,11,13,124,29,250c129,965,260,1687,591,3253c355,1679,432,2132,446,2610c16,575-83,788-401,870
	C4850,18472,4689,18482,4600,18470z M11895,14709c97-116,145-315,145-603c0-170-16-383-30-407c-12-18-147,32-238,88
	c-131,81-190,185-200,350c-8,158,32,298,130,444c58,88,127,159,152,159C11862,14740,11880,14726,11895,14709z M15633,10073
	c98-313,167-607,204-873c24-175,24-515,0-668c-50-321-174-681-295-858c-46-68-133-154-182-179c-69-36-214,3-384,103
	c-101,59-282,235-353,343c-90,138-143,306-143,458c0,135,46,333,109,474c116,258,438,708,855,1195c72,83,134,152,137,152
	S15608,10154,15633,10073z M17580,8891c-143-46-247-168-281-330c-17-85,0-249,33-298c55-83,207-128,355-105c196,31,305,140,348,347
	c38,185-32,342-174,388C17790,8916,17654,8915,17580,8891z M10865,6380c-71-14-158-52-226-96c-105-69-196-205-206-308
	c-4-42-1-57,19-86c43-63,141-77,189-27c11,12,35,54,53,92c54,116,131,166,267,173c124,6,186-14,254-81c86-87,95-179,25-276
	c-62-85-342-338-708-641l-152-125v-137v-138h585h585v70c0,104-16,165-52,195c-35,29-93,33-138,10c-25-13-75-15-305-13l-276,3
	l193,165c225,193,473,436,510,500c45,78,61,151,56,260c-3,89-7,104-42,175c-71,144-204,247-363,280
	C11060,6391,10930,6393,10865,6380z M12430,6380c-177-38-327-209-407-466c-27-88-27-92-28-364c0-256,2-281,23-359
	c39-144,130-303,221-390c138-130,410-144,582-29c76,51,136,126,194,243c75,151,87,214,92,480c7,344-23,477-152,669
	c-107,160-202,215-380,222C12520,6388,12455,6385,12430,6380z M12657,6109c76-37,147-149,177-282c22-95,23-478,1-572
	c-33-142-123-267-211-293c-111-32-209,2-271,95c-89,133-103,199-103,491c1,250,9,304,59,406c63,128,129,176,240,176
	C12594,6130,12627,6124,12657,6109z M13945,6380c-71-14-158-52-226-96c-105-69-196-205-206-308c-4-42-1-57,19-86
	c43-63,141-77,189-27c11,12,35,54,53,92c54,116,131,166,267,173c124,6,186-14,254-81c86-87,95-179,25-276c-62-85-342-338-708-641
	l-152-125v-137v-138h585h585v70c0,104-16,165-52,195c-35,29-93,33-138,10c-25-13-75-15-305-13l-276,3l193,165
	c225,193,473,436,510,500c45,78,61,151,56,260c-3,89-7,104-42,175c-71,144-204,247-363,280C14140,6391,14010,6393,13945,6380z
	 M15460,6371c-141-30-268-102-322-182c-56-84-25-188,62-208c50-11,84,1,145,54c30,25,74,55,99,66c85,37,248,42,331,9
	c71-28,134-105,135-165c0-43-23-98-56-135c-54-59-93-73-225-80c-96-5-121-10-146-28c-82-58-64-192,31-221c17-5,72-15,121-21
	c146-18,250-82,300-185c67-135,11-247-148-297c-64-20-93-23-252-23h-180l-88,43c-121,58-166,54-214-17c-45-66-21-142,62-195
	c141-92,497-122,730-61c230,60,375,235,375,455c0,139-49,250-156,350l-66,61l47,47c120,122,153,322,78,480c-35,76-140,180-216,216
	C15785,6391,15620,6404,15460,6371z M7233,6355c-57-24-67-60-71-237l-4-158h-53c-87,0-149-17-181-51c-25-26-29-38-29-84s4-58,29-84
	c32-34,94-51,181-51h54l3-328l3-327l33-67c51-105,132-164,273-199c72-19,102-21,209-16c206,9,447,80,528,156c39,35,42,42,42,90
	c0,44-5,56-33,87c-50,55-90,56-208,5c-138-59-213-75-354-75c-135,0-181,13-212,60c-16,25-18,58-21,320l-4,292l284,4
	c263,3,285,4,318,23c89,52,88,173-3,222c-28,16-67,18-314,21l-283,4v157c0,148-1,160-23,192C7358,6368,7300,6384,7233,6355z
	 M3689,6341c-68-21-99-61-99-126c0-78,48-118,158-131l62-7l-2-511l-3-511l-68-6c-98-8-147-50-147-127c0-46,24-88,63-109
	c29-17,83-18,690-21l657-3v241c0,261-3,277-56,319c-32,25-92,28-134,6c-49-25-64-66-68-192l-4-113h-334h-334v195v195h114h113l6-56
	c3-30,13-66,21-80c53-80,179-76,222,7c20,40,21,464,0,514c-27,63-105,91-169,60c-48-23-68-56-74-126l-6-59h-113h-114v190v190h304
	h303l5-102c5-117,18-152,67-185c43-29,89-29,132,0c61,41,64,56,64,317v235l-615,2C3992,6348,3703,6345,3689,6341z M5735,5975
	c-142-29-296-130-341-223c-11-22-20-67-22-114c-3-65,0-85,20-130c66-141,183-197,498-239c249-32,328-59,348-118
	c24-68-80-124-254-137c-198-16-377,44-425,142c-24,50-61,74-114,74c-49,0-91-26-112-70c-24-50-25-251,0-297c34-63,102-87,166-58
	c38,17,40,16,114-8c109-37,220-50,361-44c139,6,211,23,312,72c95,46,166,111,200,182c52,110,18,251-83,350c-83,80-194,122-418,157
	c-55,9-142,23-192,32c-133,23-190,67-148,114c23,25,125,58,205,66c140,14,329-43,360-108c23-49,63-73,122-73c44,0,53,4,83,36
	c28,31,34,47,40,102c9,85-2,176-26,216c-11,18-36,39-56,48c-35,14-41,14-86-5s-50-20-85-5C6089,5985,5869,6003,5735,5975z
	 M9011,5090c-43-10-80-38-108-80c-32-46-32-134,0-181c64-97,241-108,320-19c77,84,54,216-45,263C9136,5093,9055,5101,9011,5090z"/>
</svg>
