<?xml version="1.0" standalone="no"?>
<!DOCTYPE svg PUBLIC "-//W3C//DTD SVG 20010904//EN"
 "http://www.w3.org/TR/2001/REC-SVG-20010904/DTD/svg10.dtd">
<svg version="1.0" xmlns="http://www.w3.org/2000/svg"
 width="2500.000000pt" height="2500.000000pt" viewBox="0 0 2500.000000 2500.000000"
 preserveAspectRatio="xMidYMid meet">

<g transform="translate(0.000000,2500.000000) scale(0.100000,-0.100000)"
fill="#000000" stroke="none">
<path d="M4600 18470 c-162 -20 -314 -83 -460 -191 -114 -84 -428 -400 -574
-579 -303 -371 -631 -845 -859 -1240 -110 -191 -317 -611 -385 -780 -100 -250
-195 -580 -244 -850 -32 -176 -33 -457 -3 -510 39 -66 137 -90 203 -50 26 16
32 25 26 38 -75 166 174 946 476 1492 408 739 1075 1624 1580 2096 109 101
245 214 260 214 14 0 20 -59 26 -245 16 -466 -57 -897 -445 -2645 -398 -1795
-575 -2753 -696 -3765 -95 -803 -165 -1906 -152 -2405 10 -373 29 -452 121
-501 73 -40 149 -52 273 -46 119 5 182 23 233 65 l33 28 23 189 c57 457 239
1366 399 1990 334 1309 903 2842 1591 4290 305 642 812 1618 1047 2015 123
207 326 506 358 526 14 8 11 -109 -6 -267 -9 -77 -88 -575 -176 -1107 -402
-2432 -470 -2945 -486 -3647 -8 -393 12 -582 71 -660 29 -38 106 -78 184 -94
66 -14 192 -14 263 -1 68 13 158 57 181 90 9 14 40 102 69 195 285 948 573
1599 1119 2535 371 635 698 1119 1079 1600 206 260 462 532 631 670 l65 53 3
-39 c14 -158 -100 -652 -323 -1404 -759 -2560 -1064 -3999 -1145 -5404 -5 -98
-10 -278 -10 -400 0 -644 96 -950 335 -1066 207 -101 490 -88 692 31 79 47
250 220 361 366 591 778 1275 2135 1678 3327 88 260 186 593 244 832 l42 171
306 7 c169 3 319 9 335 12 l27 6 0 -58 c0 -79 -30 -198 -145 -574 -235 -769
-344 -1231 -435 -1835 -102 -686 -147 -1270 -137 -1790 5 -297 17 -413 57
-573 44 -171 139 -305 256 -359 88 -40 227 -59 333 -46 169 22 260 78 324 200
57 109 115 278 491 1418 538 1629 923 2765 945 2787 4 4 26 -52 50 -125 68
-207 204 -555 396 -1012 211 -501 335 -810 335 -830 0 -9 -49 -67 -108 -130
-279 -293 -659 -754 -861 -1043 -230 -331 -334 -542 -381 -772 -56 -277 -29
-499 91 -730 187 -359 541 -620 939 -691 94 -17 343 -17 429 0 182 36 339 114
463 230 138 129 237 279 328 493 211 501 260 926 169 1473 -57 343 -189 796
-363 1244 l-37 95 58 59 c84 86 390 365 518 471 444 372 867 642 1234 790 140
56 161 69 161 101 0 33 -32 52 -105 63 -80 13 -154 1 -300 -47 -478 -158
-1015 -502 -1657 -1062 l-48 -41 -9 24 c-5 12 -86 201 -181 418 -373 858 -538
1323 -596 1675 -25 149 -25 450 0 584 54 293 183 520 391 688 141 113 291 171
413 159 226 -23 431 -204 517 -455 77 -227 72 -573 -11 -836 -61 -192 -118
-328 -279 -670 -142 -303 -159 -346 -151 -378 14 -55 175 -82 259 -42 113 53
537 781 646 1110 67 200 84 302 84 495 0 129 -4 186 -20 260 -41 193 -115 332
-243 460 -202 200 -490 302 -855 303 -238 0 -432 -42 -630 -137 -343 -164
-593 -436 -713 -777 -82 -234 -112 -564 -72 -811 8 -51 6 -58 -51 -181 -206
-446 -406 -976 -1117 -2972 -138 -385 -285 -796 -329 -914 l-78 -214 -3 164
c-6 313 24 922 69 1399 72 768 150 1249 338 2078 110 481 131 592 138 707 10
168 -29 251 -145 309 -102 51 -158 56 -581 54 -259 -2 -393 0 -400 7 -7 8 -5
52 9 145 64 428 45 772 -51 963 -89 176 -239 252 -494 250 -152 -1 -244 -21
-370 -82 -277 -132 -485 -450 -485 -740 0 -175 55 -305 175 -420 152 -144 369
-237 687 -295 104 -19 123 -26 126 -42 3 -24 -75 -341 -133 -539 -239 -812
-694 -1826 -1198 -2670 -263 -441 -625 -932 -850 -1154 l-75 -73 -18 98 c-16
86 -19 150 -19 474 0 370 4 450 46 895 116 1252 344 2368 964 4725 250 949
310 1244 322 1576 8 237 -16 345 -95 427 -124 129 -411 155 -620 56 -178 -85
-449 -358 -788 -794 -597 -768 -1372 -1966 -1819 -2813 -100 -188 -114 -211
-110 -172 3 25 15 124 26 220 32 282 123 971 209 1590 156 1113 229 1744 237
2046 6 232 -3 328 -43 454 -61 192 -169 269 -391 278 -279 11 -385 -81 -687
-598 -151 -257 -925 -1814 -1269 -2550 -479 -1026 -928 -2132 -1273 -3135 -57
-165 -103 -290 -103 -278 -1 11 13 124 29 250 129 965 260 1687 591 3253 355
1679 432 2132 446 2610 16 575 -83 788 -401 870 -86 22 -247 32 -336 20z
m7295 -3761 c97 -116 145 -315 145 -603 0 -170 -16 -383 -30 -407 -12 -18
-147 32 -238 88 -131 81 -190 185 -200 350 -8 158 32 298 130 444 58 88 127
159 152 159 8 0 26 -14 41 -31z m3738 -4636 c98 -313 167 -607 204 -873 24
-175 24 -515 0 -668 -50 -321 -174 -681 -295 -858 -46 -68 -133 -154 -182
-179 -69 -36 -214 3 -384 103 -101 59 -282 235 -353 343 -90 138 -143 306
-143 458 0 135 46 333 109 474 116 258 438 708 855 1195 72 83 134 152 137
152 3 0 27 -66 52 -147z"/>
<path d="M17580 8891 c-143 -46 -247 -168 -281 -330 -17 -85 0 -249 33 -298
55 -83 207 -128 355 -105 196 31 305 140 348 347 38 185 -32 342 -174 388 -71
23 -207 22 -281 -2z"/>
<path d="M10865 6380 c-71 -14 -158 -52 -226 -96 -105 -69 -196 -205 -206
-308 -4 -42 -1 -57 19 -86 43 -63 141 -77 189 -27 11 12 35 54 53 92 54 116
131 166 267 173 124 6 186 -14 254 -81 86 -87 95 -179 25 -276 -62 -85 -342
-338 -708 -641 l-152 -125 0 -137 0 -138 585 0 585 0 0 70 c0 104 -16 165 -52
195 -35 29 -93 33 -138 10 -25 -13 -75 -15 -305 -13 l-276 3 193 165 c225 193
473 436 510 500 45 78 61 151 56 260 -3 89 -7 104 -42 175 -71 144 -204 247
-363 280 -73 16 -203 18 -268 5z"/>
<path d="M12430 6380 c-177 -38 -327 -209 -407 -466 -27 -88 -27 -92 -28 -364
0 -256 2 -281 23 -359 39 -144 130 -303 221 -390 138 -130 410 -144 582 -29
76 51 136 126 194 243 75 151 87 214 92 480 7 344 -23 477 -152 669 -107 160
-202 215 -380 222 -55 2 -120 -1 -145 -6z m227 -271 c76 -37 147 -149 177
-282 22 -95 23 -478 1 -572 -33 -142 -123 -267 -211 -293 -111 -32 -209 2
-271 95 -89 133 -103 199 -103 491 1 250 9 304 59 406 63 128 129 176 240 176
45 0 78 -6 108 -21z"/>
<path d="M13945 6380 c-71 -14 -158 -52 -226 -96 -105 -69 -196 -205 -206
-308 -4 -42 -1 -57 19 -86 43 -63 141 -77 189 -27 11 12 35 54 53 92 54 116
131 166 267 173 124 6 186 -14 254 -81 86 -87 95 -179 25 -276 -62 -85 -342
-338 -708 -641 l-152 -125 0 -137 0 -138 585 0 585 0 0 70 c0 104 -16 165 -52
195 -35 29 -93 33 -138 10 -25 -13 -75 -15 -305 -13 l-276 3 193 165 c225 193
473 436 510 500 45 78 61 151 56 260 -3 89 -7 104 -42 175 -71 144 -204 247
-363 280 -73 16 -203 18 -268 5z"/>
<path d="M15460 6371 c-141 -30 -268 -102 -322 -182 -56 -84 -25 -188 62 -208
50 -11 84 1 145 54 30 25 74 55 99 66 85 37 248 42 331 9 71 -28 134 -105 135
-165 0 -43 -23 -98 -56 -135 -54 -59 -93 -73 -225 -80 -96 -5 -121 -10 -146
-28 -82 -58 -64 -192 31 -221 17 -5 72 -15 121 -21 146 -18 250 -82 300 -185
67 -135 11 -247 -148 -297 -64 -20 -93 -23 -252 -23 l-180 0 -88 43 c-121 58
-166 54 -214 -17 -45 -66 -21 -142 62 -195 141 -92 497 -122 730 -61 230 60
375 235 375 455 0 139 -49 250 -156 350 l-66 61 47 47 c120 122 153 322 78
480 -35 76 -140 180 -216 216 -122 57 -287 70 -447 37z"/>
<path d="M7233 6355 c-57 -24 -67 -60 -71 -237 l-4 -158 -53 0 c-87 0 -149
-17 -181 -51 -25 -26 -29 -38 -29 -84 0 -46 4 -58 29 -84 32 -34 94 -51 181
-51 l54 0 3 -328 3 -327 33 -67 c51 -105 132 -164 273 -199 72 -19 102 -21
209 -16 206 9 447 80 528 156 39 35 42 42 42 90 0 44 -5 56 -33 87 -50 55 -90
56 -208 5 -138 -59 -213 -75 -354 -75 -135 0 -181 13 -212 60 -16 25 -18 58
-21 320 l-4 292 284 4 c263 3 285 4 318 23 89 52 88 173 -3 222 -28 16 -67 18
-314 21 l-283 4 0 157 c0 148 -1 160 -23 192 -39 57 -97 73 -164 44z"/>
<path d="M3689 6341 c-68 -21 -99 -61 -99 -126 0 -78 48 -118 158 -131 l62 -7
-2 -511 -3 -511 -68 -6 c-98 -8 -147 -50 -147 -127 0 -46 24 -88 63 -109 29
-17 83 -18 690 -21 l657 -3 0 241 c0 261 -3 277 -56 319 -32 25 -92 28 -134 6
-49 -25 -64 -66 -68 -192 l-4 -113 -334 0 -334 0 0 195 0 195 114 0 113 0 6
-56 c3 -30 13 -66 21 -80 53 -80 179 -76 222 7 20 40 21 464 0 514 -27 63
-105 91 -169 60 -48 -23 -68 -56 -74 -126 l-6 -59 -113 0 -114 0 0 190 0 190
304 0 303 0 5 -102 c5 -117 18 -152 67 -185 43 -29 89 -29 132 0 61 41 64 56
64 317 l0 235 -615 2 c-338 1 -627 -2 -641 -6z"/>
<path d="M5735 5975 c-142 -29 -296 -130 -341 -223 -11 -22 -20 -67 -22 -114
-3 -65 0 -85 20 -130 66 -141 183 -197 498 -239 249 -32 328 -59 348 -118 24
-68 -80 -124 -254 -137 -198 -16 -377 44 -425 142 -24 50 -61 74 -114 74 -49
0 -91 -26 -112 -70 -24 -50 -25 -251 0 -297 34 -63 102 -87 166 -58 38 17 40
16 114 -8 109 -37 220 -50 361 -44 139 6 211 23 312 72 95 46 166 111 200 182
52 110 18 251 -83 350 -83 80 -194 122 -418 157 -55 9 -142 23 -192 32 -133
23 -190 67 -148 114 23 25 125 58 205 66 140 14 329 -43 360 -108 23 -49 63
-73 122 -73 44 0 53 4 83 36 28 31 34 47 40 102 9 85 -2 176 -26 216 -11 18
-36 39 -56 48 -35 14 -41 14 -86 -5 -45 -19 -50 -20 -85 -5 -113 48 -333 66
-467 38z"/>
<path d="M9011 5090 c-43 -10 -80 -38 -108 -80 -32 -46 -32 -134 0 -181 64
-97 241 -108 320 -19 77 84 54 216 -45 263 -42 20 -123 28 -167 17z"/>
</g>
</svg>
