<?xml version="1.0" encoding="utf-8"?>
<!-- Generator: Adobe Illustrator 25.2.0, SVG Export Plug-In . SVG Version: 6.00 Build 0)  -->
<svg version="1.1" id="Layer_1" xmlns="http://www.w3.org/2000/svg" xmlns:xlink="http://www.w3.org/1999/xlink" x="0px" y="0px"
	 viewBox="0 0 2200 2200" style="enable-background:new 0 0 2200 2200;" xml:space="preserve">
<style type="text/css">
	.st0{fill:#231F20;}
</style>
<g>
	<path class="st0" d="M450.6,1400.66c0.05,0.56,0.01,0.7-0.18,0.79c-0.27,0.14-1.01,0.27-4.1,0.74c-1.14,0.18-2.73,0.44-3.52,0.58
		c-0.81,0.14-1.9,0.32-2.42,0.4c-1.01,0.14-3.54,0.55-4.74,0.77c-0.38,0.06-1.05,0.18-1.47,0.26c-0.78,0.13-2.59,0.47-6.02,1.15
		c-1.67,0.33-3.04,0.65-6.79,1.6c-2.22,0.55-6.88,2.08-9.11,2.97c-1.12,0.45-3.01,1.38-4.09,2.01c-1.29,0.77-4.79,3.05-5.64,3.68
		c-0.35,0.27-0.9,0.67-1.2,0.9c-2.68,2-9.62,8.69-12.99,12.53c-0.95,1.08-2.33,2.96-3.19,4.33c-1.03,1.63-3.31,6.18-3.31,6.57
		c0,0.06-0.1,0.36-0.24,0.67c-0.35,0.77-0.72,1.82-1.01,2.78c-0.62,2.09-0.78,2.67-0.91,3.27c-0.08,0.35-0.41,1.73-0.73,3.08
		c-0.32,1.33-0.67,2.81-0.77,3.27c-0.12,0.46-0.24,0.97-0.29,1.15c-0.06,0.18-0.18,0.63-0.26,1c-0.08,0.36-0.21,0.93-0.27,1.28
		c-0.12,0.54-0.72,3.15-1.03,4.45c-0.06,0.28-0.22,0.97-0.33,1.54c-0.12,0.56-0.26,1.23-0.31,1.47c-0.05,0.24-0.14,0.65-0.19,0.9
		s-0.19,0.94-0.32,1.54c-0.14,0.6-0.4,1.87-0.59,2.82c-0.18,0.95-0.38,1.99-0.46,2.31c-0.06,0.32-0.23,1.18-0.36,1.92
		c-0.14,0.74-0.31,1.6-0.38,1.92c-0.08,0.32-0.18,0.83-0.24,1.15c-0.06,0.32-0.21,1.04-0.31,1.6c-0.12,0.56-0.32,1.72-0.47,2.56
		c-0.14,0.85-0.29,1.68-0.33,1.86c-0.15,0.67-0.33,1.79-0.58,3.59c-0.14,1.02-0.31,2.23-0.38,2.69c-0.21,1.33-0.35,2.57-0.63,5.44
		c-0.33,3.47-0.49,4.92-0.63,6.02c-0.05,0.49-0.21,1.7-0.32,2.69c-0.51,4.28-0.83,6.28-1.33,8.46c-0.41,1.76-0.69,2.1-1.36,1.67
		c-0.55-0.36-0.7-0.92-0.86-3.02c-0.08-1.09-0.19-2.29-0.26-2.68c-0.12-0.65-0.31-2.69-0.62-6.53c-0.15-1.97-0.33-2.81-0.63-3.02
		c-0.24-0.17-0.37-1.12-0.67-4.92c-0.19-2.42-0.49-3.95-0.77-4.04c-0.3-0.09-0.32-0.27-0.7-4.43c-0.31-3.47-0.49-4.36-0.87-4.51
		c-0.13-0.05-0.22-0.37-0.27-0.95c-0.38-3.75-0.55-4.86-1.17-7.41c-0.17-0.7-0.4-2.04-0.51-2.95c-0.12-0.92-0.45-2.82-0.73-4.23
		c-0.28-1.41-0.65-3.43-0.81-4.48c-0.5-3.18-0.56-3.48-1.22-6.03c-0.79-3.14-2.06-6.97-3.36-10.17c-1.47-3.65-1.68-4.11-3.1-7.05
		c-1.23-2.5-1.25-2.55-2.29-4.15c-1.19-1.81-2.04-2.82-4.24-5.01c-2.05-2.04-3.51-3.31-6.1-5.27c-4.36-3.29-7.21-5.07-11.85-7.37
		c-6.96-3.43-12.41-5.54-18.71-7.19c-0.28-0.08-0.65-0.18-0.83-0.23c-0.29-0.1-0.82-0.23-3.59-0.88c-0.6-0.15-1.99-0.44-3.08-0.65
		c-1.09-0.22-2.24-0.44-2.56-0.5c-1.63-0.32-2.15-0.42-4.03-0.78c-1.13-0.2-2.31-0.44-2.63-0.51c-0.32-0.06-1.5-0.31-2.63-0.53
		c-3.83-0.73-8.76-2.02-9.79-2.55c-0.63-0.32-0.74-0.5-0.68-1.15l0.05-0.51h1.56c0.85,0,2.65-0.05,3.99-0.13
		c1.35-0.06,3.59-0.19,5-0.26c3.41-0.18,8.05-0.49,9.48-0.64c3.56-0.37,7.47-0.87,9.8-1.27c0.32-0.06,1.52-0.26,2.69-0.45
		c2.59-0.41,2.77-0.45,5.96-1.18c2.86-0.67,2.72-0.63,4.93-1.26c2.27-0.64,6.24-2,7.75-2.64c1.31-0.56,3.4-1.54,4.23-1.96
		c7.14-3.68,13.81-9.84,17.1-15.78c0.96-1.74,2.81-5.78,3.14-6.85c0.05-0.18,0.17-0.5,0.26-0.7c0.23-0.51,0.83-2.29,0.96-2.79
		c0.06-0.23,0.28-1.01,0.51-1.76c0.22-0.74,0.45-1.58,0.5-1.86c0.06-0.28,0.35-1.42,0.64-2.54c0.45-1.78,0.86-3.73,1.16-5.6
		c0.17-0.99,0.91-5.91,1.04-6.83c0.12-0.88,0.26-1.9,0.49-3.48c0.08-0.5,0.19-1.33,0.27-1.86c0.06-0.53,0.19-1.33,0.26-1.79
		c0.14-0.83,0.28-1.74,0.51-3.33c0.08-0.46,0.18-1.27,0.26-1.79c0.13-1.03,0.32-2.4,0.52-3.65c0.3-1.77,0.46-2.92,1.27-8.97
		c0.08-0.5,0.18-1.31,0.26-1.79c0.06-0.5,0.22-1.61,0.32-2.5c0.1-0.88,0.22-1.78,0.26-1.99c0.05-0.35,0.12-0.88,0.45-3.78
		c0.05-0.53,0.19-1.68,0.3-2.56c0.11-0.88,0.24-2.06,0.29-2.61c0.06-0.83,0.14-1.08,0.4-1.33c0.29-0.29,0.37-0.31,1.28-0.22
		c1.18,0.1,1.73,0.32,2.08,0.82c0.55,0.76,0.68,1.31,0.79,3.33c0.26,4.09,0.38,6.01,0.5,7.19c0.05,0.67,0.17,1.84,0.24,2.63
		c0.08,0.77,0.17,1.61,0.2,1.86c0.04,0.24,0.17,1.4,0.27,2.56c0.12,1.17,0.26,2.46,0.31,2.88c0.26,1.81,0.37,2.67,0.56,4.29
		c0.37,3.16,0.47,3.91,0.59,4.46c0.08,0.29,0.13,0.72,0.13,0.93c0,0.2,0.05,0.63,0.12,0.92c0.14,0.65,0.33,1.95,0.6,4.06
		c0.19,1.59,0.28,2.16,0.55,3.65c0.19,1.11,0.38,2.31,0.52,3.33c0.06,0.49,0.18,1.22,0.26,1.6c0.14,0.74,0.33,1.87,0.51,2.82
		c0.28,1.6,0.65,3.41,0.88,4.32c0.14,0.55,0.35,1.37,0.46,1.83c0.69,2.83,1.28,4.73,2.4,7.82c0.26,0.73,1.22,2.96,1.97,4.59
		c0.24,0.53,0.44,0.97,0.44,1c0,0.26,2.64,5.3,3.23,6.16c0.19,0.3,0.36,0.56,0.36,0.6c0,0.05,0.33,0.55,0.73,1.14
		c2.92,4.24,6.04,7.58,8.75,9.4c4.16,2.78,7.74,4.24,13.84,5.66c0.95,0.22,1.96,0.46,2.24,0.52c0.28,0.06,0.83,0.18,1.22,0.26
		c0.38,0.08,1.86,0.36,3.27,0.63c1.41,0.28,2.79,0.54,3.08,0.58c0.28,0.04,1.18,0.19,1.99,0.35c0.81,0.14,1.79,0.31,2.18,0.37
		c0.38,0.06,1.23,0.2,1.86,0.31c0.64,0.1,1.82,0.28,2.63,0.4c1.79,0.26,2.9,0.42,3.91,0.58c1.05,0.17,4.01,0.49,5.96,0.64
		c0.88,0.06,1.92,0.15,2.31,0.19c0.38,0.04,2.87,0.13,5.51,0.19c5.16,0.12,6.12,0.2,6.73,0.56
		C449.97,1399,450.54,1399.89,450.6,1400.66z M1936.12,1399.31h-1.56c-0.85,0-2.65-0.05-3.99-0.13c-1.35-0.06-3.59-0.19-5-0.26
		c-3.41-0.18-8.05-0.49-9.48-0.64c-3.56-0.37-7.47-0.87-9.8-1.27c-0.32-0.06-1.52-0.26-2.69-0.45c-2.59-0.41-2.77-0.45-5.96-1.18
		c-2.86-0.67-2.72-0.63-4.93-1.26c-2.27-0.64-6.24-2-7.75-2.64c-1.31-0.56-3.4-1.54-4.23-1.96c-7.14-3.68-13.81-9.84-17.1-15.78
		c-0.96-1.74-2.81-5.78-3.14-6.85c-0.05-0.18-0.17-0.5-0.26-0.7c-0.23-0.51-0.83-2.29-0.96-2.79c-0.06-0.23-0.28-1.01-0.51-1.76
		c-0.22-0.74-0.45-1.58-0.5-1.86c-0.06-0.28-0.35-1.42-0.64-2.54c-0.45-1.78-0.86-3.73-1.17-5.6c-0.17-0.99-0.91-5.91-1.04-6.83
		c-0.12-0.88-0.26-1.9-0.49-3.48c-0.08-0.5-0.19-1.33-0.27-1.86c-0.06-0.53-0.19-1.33-0.25-1.79c-0.14-0.83-0.28-1.74-0.51-3.33
		c-0.08-0.46-0.18-1.27-0.26-1.79c-0.13-1.03-0.32-2.4-0.53-3.65c-0.29-1.77-0.46-2.92-1.27-8.97c-0.08-0.5-0.18-1.31-0.26-1.79
		c-0.06-0.5-0.22-1.61-0.32-2.5c-0.1-0.88-0.22-1.78-0.26-1.99c-0.05-0.35-0.12-0.88-0.45-3.78c-0.05-0.53-0.19-1.68-0.3-2.56
		c-0.12-0.88-0.24-2.06-0.29-2.61c-0.06-0.83-0.14-1.08-0.4-1.33c-0.29-0.29-0.37-0.31-1.28-0.22c-1.18,0.1-1.73,0.32-2.08,0.82
		c-0.55,0.76-0.68,1.31-0.79,3.33c-0.25,4.09-0.38,6.01-0.5,7.19c-0.05,0.67-0.17,1.84-0.24,2.63c-0.08,0.77-0.17,1.61-0.21,1.86
		c-0.04,0.24-0.17,1.4-0.27,2.56c-0.12,1.17-0.26,2.46-0.31,2.88c-0.26,1.81-0.37,2.67-0.56,4.29c-0.37,3.16-0.47,3.91-0.59,4.46
		c-0.08,0.29-0.13,0.72-0.13,0.93c0,0.2-0.05,0.63-0.12,0.92c-0.14,0.65-0.33,1.95-0.6,4.06c-0.19,1.59-0.28,2.16-0.55,3.65
		c-0.19,1.11-0.38,2.31-0.53,3.33c-0.06,0.49-0.18,1.22-0.26,1.6c-0.14,0.74-0.33,1.87-0.51,2.82c-0.28,1.6-0.65,3.41-0.89,4.32
		c-0.14,0.55-0.34,1.37-0.46,1.83c-0.69,2.83-1.28,4.73-2.39,7.82c-0.26,0.73-1.22,2.96-1.97,4.59c-0.24,0.53-0.44,0.97-0.44,1
		c0,0.26-2.64,5.3-3.23,6.16c-0.19,0.3-0.36,0.56-0.36,0.6c0,0.05-0.33,0.55-0.73,1.14c-2.92,4.24-6.04,7.58-8.75,9.4
		c-4.16,2.78-7.74,4.24-13.84,5.66c-0.95,0.22-1.96,0.46-2.24,0.52c-0.28,0.06-0.83,0.18-1.22,0.26c-0.38,0.08-1.86,0.36-3.27,0.63
		c-1.41,0.28-2.79,0.54-3.08,0.58c-0.28,0.04-1.18,0.19-1.99,0.35c-0.81,0.14-1.79,0.31-2.18,0.37c-0.39,0.06-1.23,0.2-1.86,0.31
		c-0.64,0.1-1.82,0.28-2.63,0.4c-1.8,0.26-2.9,0.42-3.91,0.58c-1.05,0.17-4.01,0.49-5.96,0.64c-0.88,0.06-1.92,0.15-2.31,0.19
		c-0.38,0.04-2.87,0.13-5.51,0.19c-5.16,0.12-6.12,0.2-6.73,0.56c-0.69,0.41-1.26,1.29-1.32,2.06c-0.05,0.56-0.01,0.7,0.18,0.79
		c0.27,0.14,1.01,0.27,4.1,0.74c1.14,0.18,2.73,0.44,3.52,0.58c0.81,0.14,1.9,0.32,2.42,0.4c1.01,0.14,3.54,0.55,4.74,0.77
		c0.39,0.06,1.05,0.18,1.47,0.26c0.78,0.13,2.59,0.47,6.02,1.15c1.67,0.33,3.04,0.65,6.79,1.6c2.22,0.55,6.88,2.08,9.11,2.97
		c1.11,0.45,3.01,1.38,4.09,2.01c1.29,0.77,4.79,3.05,5.64,3.68c0.35,0.27,0.9,0.67,1.2,0.9c2.68,2,9.62,8.69,12.99,12.53
		c0.95,1.08,2.33,2.96,3.19,4.33c1.03,1.63,3.31,6.18,3.31,6.57c0,0.06,0.1,0.36,0.24,0.67c0.35,0.77,0.72,1.82,1.01,2.78
		c0.62,2.09,0.78,2.67,0.91,3.27c0.08,0.35,0.41,1.73,0.73,3.08c0.32,1.33,0.67,2.81,0.77,3.27c0.12,0.46,0.24,0.97,0.29,1.15
		c0.06,0.18,0.18,0.63,0.26,1c0.08,0.36,0.21,0.93,0.27,1.28c0.12,0.54,0.72,3.15,1.02,4.45c0.07,0.28,0.22,0.97,0.33,1.54
		c0.12,0.56,0.26,1.23,0.31,1.47c0.05,0.24,0.14,0.65,0.19,0.9s0.19,0.94,0.32,1.54c0.14,0.6,0.4,1.87,0.59,2.82
		c0.18,0.95,0.39,1.99,0.46,2.31c0.06,0.32,0.23,1.18,0.36,1.92c0.14,0.74,0.31,1.6,0.38,1.92c0.08,0.32,0.18,0.83,0.24,1.15
		c0.06,0.32,0.2,1.04,0.31,1.6c0.11,0.56,0.32,1.72,0.47,2.56c0.14,0.85,0.29,1.68,0.33,1.86c0.15,0.67,0.33,1.79,0.58,3.59
		c0.14,1.02,0.31,2.23,0.38,2.69c0.21,1.33,0.35,2.57,0.63,5.44c0.33,3.47,0.49,4.92,0.63,6.02c0.05,0.49,0.21,1.7,0.32,2.69
		c0.51,4.28,0.83,6.28,1.33,8.46c0.41,1.76,0.69,2.1,1.36,1.67c0.55-0.36,0.7-0.92,0.86-3.02c0.08-1.09,0.19-2.29,0.26-2.68
		c0.12-0.65,0.31-2.69,0.62-6.53c0.15-1.97,0.33-2.81,0.63-3.02c0.24-0.17,0.37-1.12,0.67-4.92c0.19-2.42,0.49-3.95,0.77-4.04
		c0.29-0.09,0.32-0.27,0.7-4.43c0.31-3.47,0.49-4.36,0.87-4.51c0.13-0.05,0.22-0.37,0.27-0.95c0.39-3.75,0.55-4.86,1.17-7.41
		c0.17-0.7,0.4-2.04,0.51-2.95c0.12-0.92,0.45-2.82,0.73-4.23c0.28-1.41,0.65-3.43,0.81-4.48c0.5-3.18,0.56-3.48,1.22-6.03
		c0.79-3.14,2.06-6.97,3.36-10.17c1.47-3.65,1.68-4.11,3.1-7.05c1.23-2.5,1.26-2.55,2.29-4.15c1.19-1.81,2.04-2.82,4.24-5.01
		c2.05-2.04,3.51-3.31,6.1-5.27c4.36-3.29,7.21-5.07,11.85-7.37c6.96-3.43,12.42-5.54,18.71-7.19c0.28-0.08,0.65-0.18,0.83-0.23
		c0.29-0.1,0.82-0.23,3.59-0.88c0.6-0.15,1.99-0.44,3.08-0.65c1.09-0.22,2.24-0.44,2.56-0.5c1.63-0.32,2.15-0.42,4.03-0.78
		c1.13-0.2,2.31-0.44,2.63-0.51c0.32-0.06,1.5-0.31,2.63-0.53c3.83-0.73,8.76-2.02,9.79-2.55c0.63-0.32,0.74-0.5,0.68-1.15
		L1936.12,1399.31z"/>
	<path d="M744.1,874.42c0,23.04-15.02,58.22-39.5,92.57c-14.4,20.37-51.02,61.51-65.83,74.27c-17.08,14.81-26.54,19.75-32.09,17.08
		c-7.61-3.71-69.12-79-87.02-106.57c-27.98-42.79-34.35-89.08-15.84-114.58c9.26-12.96,27.98-19.34,46.29-16.05
		c12.34,2.26,20.36,6.99,31.27,18.51c11.93,12.34,22.63,30.24,31.48,51.64l6.58,16.04l11.73-22.83
		c6.58-12.34,15.43-27.36,19.75-32.92C684.44,807.56,743.89,822.17,744.1,874.42z M1626.92,851.59
		c-4.32,5.55-13.17,20.57-19.75,32.92l-11.73,22.83l-6.58-16.04c-8.85-21.4-19.54-39.29-31.48-51.64
		c-10.9-11.52-18.92-16.25-31.27-18.51c-18.31-3.29-37.03,3.09-46.29,16.05c-18.52,25.51-12.14,71.79,15.84,114.58
		c17.9,27.57,79.41,102.86,87.02,106.57c5.56,2.67,15.02-2.27,32.09-17.08c14.81-12.75,51.43-53.9,65.83-74.27
		c24.48-34.36,39.5-69.53,39.5-92.57C1719.91,822.17,1660.46,807.56,1626.92,851.59z"/>
	<path d="M618.58,1324.37c0,10.51-8.85,11.34-12.17,18.8c-3.28,7.94-4.94,20.25-4.97,36.61c0.28,7.2,1.39,19.6,3.04,37.21
		c1.38,15.76,2.21,28.2,2.21,37.04c0,39.81-23.22,63.58-62.75,63.58c-19.62,0-35.11-4.7-46.16-14.1
		c-11.89-9.95-17.69-24.6-17.69-43.95c0-5.25,1.38-11.34,3.87-18.25c3.04-8.57,6.91-13.27,11.61-14.1c2.21-0.55,4.14-0.83,5.8-0.83
		c5.26,0,9.68,3.59,13.27,10.51c3.87,6.91,8.85,10.5,14.65,10.5c14.65,0,21.84-14.1,21.84-42.57c0-4.42-0.28-14.1-1.11-29.3
		c-0.28-0.55-0.55-1.11-0.55-1.66c-0.28-18.8-2.77-30.13-7.46-34c-1.66-0.83-3.87-2.21-6.91-4.15c-1.93-2.21-3.04-5.25-3.04-9.4
		c0-7.46,4.7-13.27,14.37-16.86c7.74-3.04,17.42-4.7,29.3-4.42c16.31,0.28,27.65,2.21,34.56,5.8
		C615.81,1313.87,618.58,1318.29,618.58,1324.37z M804.34,1308.61c-5.8-2.49-12.44-3.59-19.91-3.59c-29.02,0-43.68,7.19-43.68,21.28
		c0,4.98,2.21,8.85,6.92,11.34c5.25,3.04,8.29,9.4,9.67,19.08c1.11,8.02,1.66,18.8,1.66,32.9c0,27.37-7.46,37.04-34,37.04
		c-15.76,0-25.99-4.15-30.68-12.72c-3.04-5.8-4.7-17.42-4.98-34.28l0.28,0.55c0-17.42,1.66-29.58,4.7-37.04
		c0.82-1.94,3.59-4.97,7.74-8.57c3.04-2.77,4.7-6.08,4.7-10.23c0-12.99-15.2-19.35-45.34-19.35c-9.95,0-18.52,1.38-25.71,3.87
		c-10.51,3.6-15.76,9.4-15.76,17.42c0,4.15,1.66,7.19,4.7,9.68c4.15,3.32,7.19,6.36,8.57,9.4c3.04,6.36,4.43,16.03,4.43,29.58
		c0,6.08-0.28,15.2-1.11,27.37c-0.55,12.16-0.83,21.28-0.83,27.36c0,31.79,6.91,53.91,20.74,66.63
		c13.27,12.44,36.22,18.52,68.83,18.52c17.97,0,34.83-8.02,50.59-24.05c15.76-16.31,23.5-33.18,23.5-51.15
		c0-6.36-0.28-15.48-0.55-27.92c-0.28-12.44-0.28-21.84-0.28-28.19c0-19.63,1.66-33.45,4.97-41.47c0.83-1.93,3.32-4.7,7.46-8.29
		c3.04-2.76,4.7-6.08,4.7-10.23C815.67,1316.91,811.8,1311.93,804.34,1308.61z M944.75,1389.61c-7.46-6.36-21.29-14.37-41.74-24.05
		c-15.21-7.19-22.67-13.55-22.67-19.35c0-9.68,6.63-14.65,20.18-14.65c6.08,0,12.44,5.25,18.8,15.76
		c6.63,10.51,13.54,15.76,20.73,15.76c10.23,0,15.48-6.63,15.48-19.63c0-22.94-4.98-34.28-14.93-34.28c-5.8,0-13.82-1.11-24.33-3.04
		c-10.23-1.93-18.25-3.04-23.77-3.04c-17.42,0-32.07,4.42-43.96,12.99c-13.55,9.68-20.18,22.95-20.18,39.81
		c0,9.4,4.15,18.8,12.72,28.2c2.48,3.04,10.23,9.95,22.94,21.01c8.57,7.19,12.72,12.72,12.72,16.86c0,12.17-6.36,18.25-19.08,18.25
		c-7.46,0-13-1.11-17.14-3.87c-3.87-2.49-7.74-4.15-11.34-4.15c-11.34,0-17.14,5.53-17.14,16.59c0,22.12,7.74,38.98,23.5,51.15
		c14.1,10.78,32.62,16.59,55.29,16.59c22.12,0,40.36-7.19,54.74-21.57c14.65-14.37,21.84-32.62,21.84-55.01
		C967.41,1419.47,959.95,1402.6,944.75,1389.61z M1093.46,1303.09c-2.49,0-6.36,2.76-8.29,3.04c-10.51,0.83-31.24,1.38-62.2,1.38
		c-2.49,0-6.36-0.55-11.61-1.94c-5.25-1.38-9.12-2.21-11.61-2.21c-7.19,0-13.55,5.25-19.08,15.76c-4.98,9.12-7.46,17.69-7.46,25.99
		c0,8.02,0.55,13.27,1.93,16.03c1.94,4.43,6.36,6.63,13.27,6.63c8.02,0,14.37-2.21,18.52-6.63c1.94-1.94,4.42-6.08,6.91-12.44
		c1.94-4.43,3.87-6.64,6.36-6.64c0,0,1.38,0.55,4.15,1.66c-0.28,15.76-0.83,25.71-1.11,29.86c-1.38,16.31-3.87,34.56-7.46,55.01
		c-3.6,21.28-6.91,34.83-9.68,40.08c-0.55,1.38-3.04,3.87-7.19,8.02c-3.6,3.32-5.26,6.36-5.26,9.12c0,11.89,3.32,19.91,10.23,24.05
		c6.91,4.15,20.74,6.09,41.19,6.09c25.71,0,41.47-1.38,47.27-4.15c7.74-3.59,11.61-12.71,11.61-27.92c0-5.8-7.19-11.61-11.61-17.14
		c-2.76-3.04-5.25-13.82-8.57-31.24c-3.04-15.48-5.25-31.24-7.46-47.55l-1.38-10.23l-3.87-35.11c1.93-0.83,2.76-1.11,2.76-1.11
		c4.15,0,8.57,4.43,12.72,13.27c4.14,8.57,9.68,12.99,16.31,12.99c11.89,0,17.69-7.74,17.69-23.5c0-8.57-2.49-17.42-7.19-25.99
		C1107.84,1308.06,1101.2,1303.09,1093.46,1303.09z M1317.36,1354.78c4.14,8.57,9.68,12.99,16.31,12.99
		c11.89,0,17.69-7.74,17.69-23.5c0-8.57-2.49-17.42-7.19-25.99c-5.53-10.23-12.17-15.2-19.91-15.2c-2.49,0-6.36,2.76-8.29,3.04
		c-10.51,0.83-31.24,1.38-62.2,1.38c-2.49,0-6.36-0.55-11.61-1.94c-5.25-1.38-9.12-2.21-11.61-2.21c-7.19,0-13.55,5.25-19.08,15.76
		c-4.98,9.12-7.46,17.69-7.46,25.99c0,8.02,0.55,13.27,1.93,16.03c1.94,4.43,6.36,6.63,13.27,6.63c8.02,0,14.37-2.21,18.52-6.63
		c1.94-1.94,4.42-6.08,6.91-12.44c1.94-4.43,3.87-6.64,6.36-6.64c0,0,1.38,0.55,4.15,1.66c-0.28,15.76-0.83,25.71-1.11,29.86
		c-1.38,16.31-3.87,34.56-7.46,55.01c-3.6,21.28-6.91,34.83-9.68,40.08c-0.55,1.38-3.04,3.87-7.19,8.02
		c-3.6,3.32-5.26,6.36-5.26,9.12c0,11.89,3.32,19.91,10.23,24.05c6.91,4.15,20.74,6.09,41.19,6.09c25.71,0,41.47-1.38,47.27-4.15
		c7.74-3.59,11.61-12.71,11.61-27.92c0-5.8-7.19-11.61-11.61-17.14c-2.76-3.04-5.25-13.82-8.57-31.24
		c-3.04-15.48-5.25-31.24-7.46-47.55l-1.38-10.23l-3.87-35.11c1.93-0.83,2.76-1.11,2.76-1.11
		C1308.79,1341.51,1313.21,1345.93,1317.36,1354.78z M1532.97,1377.45c0-12.44,1.38-22.39,4.43-30.13
		c1.65-4.43,4.42-9.12,8.29-13.83c3.04-3.59,4.42-6.63,4.42-9.12c0-12.99-15.2-19.35-45.34-19.35c-9.95,0-18.52,1.38-25.99,3.87
		c-10.23,3.6-15.2,9.4-15.2,17.42c0,5.26,2.49,9.4,7.46,12.17c5.25,3.04,7.74,8.57,7.74,17.14c0,6.08-2.77,9.95-8.02,11.34
		c-1.94,0.55-6.91,0.82-15.48,0.82c-8.85,0-14.65-0.55-17.14-1.38c-5.26-1.94-8.02-6.64-8.02-13.83c0-5.25,2.48-10.51,7.46-15.2
		c4.97-4.7,7.46-9.12,7.46-13c0-12.99-15.2-19.35-45.34-19.35c-10.23,0-18.8,1.38-25.99,3.87c-10.23,3.6-15.48,9.4-15.48,17.42
		c0,4.98,1.66,8.29,4.7,10.23c4.98,3.04,7.74,4.97,8.57,5.8c3.04,4.15,4.43,11.06,4.15,20.74l-0.28,10.51
		c-0.55,0-2.21,12.99-4.98,38.98c-3.04,28.2-7.19,47-12.16,56.12c-0.55,1.38-3.04,3.87-7.46,8.02c-3.32,3.32-4.98,6.36-4.98,9.12
		c0,13.83,5.53,22.67,16.31,26.82c5.81,2.21,17.69,3.32,35.11,3.32c2.77,0,6.64,0,11.61,0.28c5.25,0.28,8.85,0.28,11.06,0.28
		c11.88,0,20.45-1.94,25.71-5.53c6.91-4.7,10.51-13.82,10.51-27.09c0-3.04-1.94-6.91-6.09-11.05c-4.7-4.98-7.19-8.85-8.02-11.34
		c-0.83-3.32-1.38-13.27-1.38-30.13c0-11.61,0.55-18.8,1.66-21.28c1.94-5.81,7.74-8.57,16.86-8.57c8.85,0,10.78,3.59,10.78,12.44
		c0,6.36,0.83,16.03,2.21,28.48c1.38,12.44,2.21,21.84,2.21,28.2c0,2.21-2.21,5.53-6.92,9.95c-4.7,4.14-6.91,8.29-6.91,12.16
		c0,11.06,5.81,17.97,17.69,20.74c3.6,0.83,13.83,1.11,31.24,1.11c36.77,0,55.01-6.91,55.01-20.74c0-6.91-5.25-15.76-15.48-26.82
		C1538.22,1431.91,1532.97,1402.06,1532.97,1377.45z M1730.33,1450.71c-0.55-7.74-0.55-12.44-0.55-14.37
		c0-6.36-4.7-15.76-10.23-15.76c-1.94,0-4.42,2.21-7.46,6.64c-3.04,4.42-6.63,6.63-11.34,6.63c-0.83,0-1.94,0-3.31-0.28
		c-2.49-0.83-8.57,1.11-10.78,1.11c-26.82,0-40.09-11.61-40.09-34.56c0-9.68,3.04-14.65,8.85-14.65c5.26,0,9.12,2.21,11.61,6.91
		c2.77,4.7,5.53,6.91,8.57,6.91c4.7,0,8.02-4.15,10.51-12.44c1.66-5.8,2.48-12.16,2.48-18.52c0-4.14-1.38-6.08-4.14-6.08
		c-3.04,0-7.74,6.08-10.78,6.08c-7.46,0-13.82-1.65-19.08-4.97c-6.08-3.87-9.12-8.85-9.12-14.93c0-1.38,0.28-2.49,0.55-3.87
		c0.83-3.6,1.94-5.8,3.87-6.63h6.08c13.27,0,23.22,2.49,30.13,7.19c2.76,1.94,6.63,6.08,11.88,13c3.6,4.7,7.74,6.91,12.72,6.91
		c5.25,0,9.12-2.49,12.17-7.19c2.21-3.87,3.31-8.57,3.31-14.38c0-9.12-1.66-17.42-4.97-25.16c-4.43-9.95-10.51-14.93-18.52-14.93
		c-5.8,0-16.03,0.55-30.13,1.38c-14.1,0.82-24.33,1.38-30.68,1.38c-4.7,0-16.03-1.1-20.46-1.1c-11.61-0.28-21.29,1.38-29.3,4.42
		c-9.68,3.6-14.37,9.4-14.37,16.86c0,4.15,1.11,7.19,3.32,9.4c3.04,1.94,5.25,3.32,6.91,4.15c3.32,2.48,5.8,8.57,6.63,18.25
		c0.55,4.7,0,9.95-0.28,16.03l-2.21,71.32c-0.55,16.86-2.21,27.37-4.7,31.51l-5.25,8.29c-0.55,1.11-3.04,3.87-7.74,8.57
		c-2.76,2.77-4.14,5.81-4.14,9.4c0,8.85,4.7,13.55,14.1,13.55l51.97,0.28c7.47,0,15.21,0.28,23.22,0
		c9.68-0.28,17.14-0.28,22.67-0.28c19.91,0,31.52-1.11,35.11-3.6c9.12-6.63,13.83-21.29,13.83-43.68
		C1731.16,1464.53,1730.61,1458.17,1730.33,1450.71z"/>
	<path d="M395.95,1622.17c8.4-11.69,17.99-22.49,17.99-38.37c0-14.69-6.9-25.78-20.98-33.28c-11.09-5.99-24.58-8.99-40.48-8.99
		c-1.5,0-5.4,0-11.69-0.3c-6.3-0.3-11.39-0.3-15.89-0.3c-38.97,0-58.76,6.9-59.36,20.39c-0.3,5.1,0.9,9,2.99,11.39l10.5,9l1.2,0.6
		c4.5,7.8,7.2,18.89,6.9,33.58c0,11.69-1.8,25.78-5.4,42.57c-3,13.79-6.3,27.58-9.29,41.67c-1.8,9.29-6,16.79-12.59,22.49
		c-5.7,5.1-8.7,11.09-8.7,17.69c0,1.5,0,3.3,0.3,5.4c1.2,11.39,14.69,18.59,40.77,21.89c8.09,0.9,25.78,1.5,52.77,1.5
		c66.25,0,99.53-24.58,99.53-73.75c0-20.09-5.7-36.88-17.39-50.97C418.43,1633.57,407.94,1626.07,395.95,1622.17z M338.99,1582.9
		c0-7.8,2.7-11.69,7.79-11.69c8.7,0,15.29,9.29,15.29,18.59c0,14.99-5.1,22.48-15.59,22.48c-2.7,0-4.49-4.2-5.99-12.29
		C339.58,1594.29,338.99,1588.6,338.99,1582.9z M354.28,1692.03c-8.09,0-11.09-6.9-10.5-20.39l1.2-22.49
		c0.3-4.2,2.99-6.29,8.69-6.29c12.89,0,19.19,8.4,19.19,25.48C372.86,1684.23,366.57,1692.03,354.28,1692.03z M621.98,1699.82
		c0.3,8.1,0.9,14.99,0.9,20.39c0,24.28-5.1,40.17-14.99,47.37c-3.9,2.7-16.49,3.9-38.07,3.9c-6,0-14.09,0-24.59,0.3
		c-8.69,0.3-17.09,0-25.18,0l-56.36-0.3c-10.2,0-15.29-5.1-15.29-14.69c0-3.9,1.5-7.2,4.5-10.2c5.1-5.1,7.79-8.09,8.4-9.29l5.7-8.99
		c2.7-4.5,4.49-15.89,5.1-34.18l2.4-77.35c0.3-6.59,0.9-12.29,0.3-17.39c-0.9-10.5-3.6-17.09-7.2-19.79c-1.8-0.9-4.2-2.4-7.49-4.5
		c-2.4-2.4-3.6-5.69-3.6-10.19c0-8.09,5.1-14.39,15.59-18.29c8.69-3.29,19.19-5.1,31.78-4.79c4.79,0,17.09,1.2,22.18,1.2
		c6.9,0,17.99-0.6,33.28-1.5c15.29-0.9,26.38-1.5,32.68-1.5c8.7,0,15.29,5.4,20.09,16.19c3.6,8.4,5.4,17.39,5.4,27.28
		c0,6.3-1.2,11.39-3.6,15.59c-3.29,5.1-7.49,7.79-13.19,7.79c-5.4,0-9.89-2.4-13.79-7.49c-5.7-7.5-9.89-12-12.89-14.09
		c-7.49-5.1-18.28-7.79-32.68-7.79h-6.59c-2.1,0.9-3.29,3.29-4.2,7.19c-0.3,1.5-0.6,2.7-0.6,4.2c0,6.6,3.29,12,9.89,16.19
		c5.7,3.6,12.59,5.4,20.69,5.4c3.3,0,8.4-6.6,11.69-6.6c3,0,4.49,2.1,4.49,6.6c0,6.9-0.9,13.79-2.7,20.09
		c-2.7,8.99-6.29,13.49-11.39,13.49c-3.3,0-6.3-2.4-9.29-7.49c-2.7-5.1-6.9-7.5-12.59-7.5c-6.3,0-9.59,5.4-9.59,15.89
		c0,24.88,14.39,37.48,43.47,37.48c2.4,0,8.99-2.1,11.69-1.2c1.49,0.3,2.7,0.3,3.6,0.3c5.1,0,8.99-2.4,12.29-7.2
		c3.3-4.79,6-7.2,8.09-7.2c6,0,11.09,10.2,11.09,17.09C621.38,1686.33,621.38,1691.43,621.98,1699.82z M827.63,1631.77
		c0.3,4.5-1.2,8.4-4.2,12.29l-7.2,9.59c-2.7,6.9-3.6,13.49-2.4,20.08c4.49,23.69,6.59,40.17,6.59,49.17c0,3.9-0.6,6.59-1.8,7.79
		c-2.7,2.7-6.9,4.79-12.29,5.7c-5.4,0.9-8.7,1.8-9.59,2.7c-17.09,13.49-28.18,21.58-32.68,23.98c-9.89,5.1-23.99,7.5-42.27,7.5
		c-27.28,0-49.77-12.59-67.16-37.48c-15.59-22.19-23.38-47.67-23.38-76.45c0-29.08,8.4-55.16,25.18-78.25
		c18.59-25.78,41.98-38.68,70.46-38.68c4.2,0,10.2,0.9,17.99,3c8.09,2.1,13.79,3,17.69,3s14.09-5.4,17.99-5.4
		c6.29,0,11.09,3.6,14.39,11.09c2.4,5.7,3.6,11.99,3.6,18.89c0,11.99-0.9,20.39-2.7,25.48c-3.3,8.4-9.89,12.59-19.79,12.59
		c-8.09,0-13.79-2.7-17.39-7.79l-7.5-14.99c-3.9-5.1-9.89-7.8-17.99-7.8c-9.29,0-17.09,4.8-23.98,14.69
		c-6.29,8.99-9.59,18.28-9.59,27.58c0,13.79,5.7,24.28,17.39,31.48c9.29,5.69,21.29,8.4,35.68,8.4c8.09,0,12.29-2.7,12.29-8.4
		c0-1.8-2.1-4.2-5.99-7.2c-3.9-3-6-6-6-9c0-8.39,11.09-12.59,33.58-12.59c-0.3,0,9.6-0.9,15.89-0.9
		C818.94,1621.87,827.33,1625.17,827.63,1631.77z M937.34,1717.21c4.8,5.7,12.59,12.29,12.59,18.59c0,16.49-4.2,26.38-12.59,30.28
		c-6.29,3-23.38,4.5-51.27,4.5c-22.48,0-37.17-2.1-44.67-6.59c-7.5-4.5-11.09-13.19-11.09-26.08c0-3,1.8-6.3,5.7-9.89
		c4.5-4.5,7.2-7.2,7.79-8.7c2.7-5.7,6.3-20.08,10.2-43.47c3.6-20.99,6.29-40.77,8.09-59.66c-0.3-20.08-3-32.38-8.09-36.57
		c-1.8-0.9-4.2-2.4-7.5-4.5c-2.4-2.4-3.6-5.69-3.6-10.19c0-8.09,5.1-14.39,15.59-18.29c8.69-3.29,19.19-5.1,31.77-4.79
		c17.69,0.3,30.28,2.4,37.48,6.29c6.29,3.3,9.29,8.09,9.29,14.69c0,11.69-9.89,12-13.19,20.39c-3.3,8.69-5.4,22.18-5.4,40.17v1.5
		c1.8,17.09,4.79,35.38,8.4,54.27C931.05,1700.42,934.04,1713.32,937.34,1717.21z M1180.17,1562.81c0,11.69-9.59,12-13.19,20.39
		l-7.2,12.89c-4.2,7.2-5.4,15.59-5.4,24.88c0-0.3,0,0.9,0,3.9c0.3,11.09,3.6,27.58,9.29,49.77c5.4,21.28,8.09,37.77,8.09,49.47
		c0,15.59-1.2,26.38-3.9,32.38c-4.2,9.29-12.89,14.09-26.08,14.09c-14.69,0-27.88-9.59-39.57-28.48c-3-5.1-11.09-22.49-24.58-52.77
		c-8.4-18.89-15.89-28.48-22.78-28.48c-2.1,0-3.3,1.8-3.3,5.1c0,5.1,1.5,14.09,5.4,27.58c3.6,13.19,6.59,21.28,8.7,23.99l6.9,8.39
		c2.7,3.3,4.79,6.6,5.4,9.89c0.6,3.9,0.9,7.5,0.9,10.79c0,8.7-3.29,14.99-9.59,18.59c-5.1,2.7-14.39,4.79-27.88,5.1
		c-6.3,1.2-19.79,1.2-40.48,1.2c-8.09,0-16.19-1.5-24.58-4.79c-7.5-2.7-12.29-6.3-14.69-11.09c-2.1-3.3-3.3-7.5-3.3-11.99v-5.7
		c0-2.7,1.2-5.4,3.9-8.09l6.9-6.9c6-22.79,10.2-44.07,12.89-63.56c2.1-15.89,3.6-30.28,4.5-43.17c1.2-18.89-1.5-31.18-8.1-36.57
		c-1.8-0.9-4.19-2.4-7.49-4.5c-2.4-2.4-3.6-5.69-3.6-10.19c0-8.09,5.1-14.39,15.59-18.29c8.4-3.29,18.89-5.1,31.78-4.79
		c21.89,0.3,35.68,3.6,41.97,9.29c9.3,6.29,17.99,20.99,25.49,44.37c8.4,25.18,16.49,41.67,24.58,49.46c2.1,1.8,4.2,2.4,6.59,1.5
		c2.4-2.99,3.6-7.49,3.6-13.19c0-2.1-0.3-5.7-0.9-10.2v-1.49l-0.3-0.6c-0.6-4.8-1.2-9.89-2.1-15.29c-3.3-11.09-9-19.78-16.49-26.08
		c-1.8-0.9-4.2-2.4-7.5-4.5c-2.1-2.4-3.3-5.69-3.3-10.19c0-8.09,5.1-14.39,15.59-18.29c8.4-3.29,18.89-5.1,31.78-4.79
		c17.69,0.3,29.98,2.4,37.48,6.29C1177.17,1551.42,1180.17,1556.22,1180.17,1562.81z M1406.5,1562.81c0,11.69-9.59,12-13.19,20.39
		l-7.2,12.89c-4.2,7.2-5.4,15.59-5.4,24.88c0-0.3,0,0.9,0,3.9c0.3,11.09,3.6,27.58,9.29,49.77c5.4,21.28,8.09,37.77,8.09,49.47
		c0,15.59-1.2,26.38-3.9,32.38c-4.2,9.29-12.89,14.09-26.08,14.09c-14.69,0-27.88-9.59-39.57-28.48c-3-5.1-11.09-22.49-24.58-52.77
		c-8.4-18.89-15.89-28.48-22.78-28.48c-2.1,0-3.3,1.8-3.3,5.1c0,5.1,1.5,14.09,5.4,27.58c3.6,13.19,6.59,21.28,8.7,23.99l6.9,8.39
		c2.7,3.3,4.79,6.6,5.4,9.89c0.6,3.9,0.9,7.5,0.9,10.79c0,8.7-3.29,14.99-9.59,18.59c-5.1,2.7-14.39,4.79-27.88,5.1
		c-6.3,1.2-19.79,1.2-40.48,1.2c-8.09,0-16.19-1.5-24.58-4.79c-7.5-2.7-12.29-6.3-14.69-11.09c-2.1-3.3-3.3-7.5-3.3-11.99v-5.7
		c0-2.7,1.2-5.4,3.9-8.09l6.9-6.9c6-22.79,10.2-44.07,12.89-63.56c2.1-15.89,3.6-30.28,4.5-43.17c1.2-18.89-1.5-31.18-8.1-36.57
		c-1.8-0.9-4.19-2.4-7.49-4.5c-2.4-2.4-3.6-5.69-3.6-10.19c0-8.09,5.1-14.39,15.59-18.29c8.4-3.29,18.89-5.1,31.78-4.79
		c21.89,0.3,35.68,3.6,41.97,9.29c9.3,6.29,17.99,20.99,25.49,44.37c8.4,25.18,16.49,41.67,24.58,49.46c2.1,1.8,4.2,2.4,6.59,1.5
		c2.4-2.99,3.6-7.49,3.6-13.19c0-2.1-0.3-5.7-0.9-10.2v-1.49l-0.3-0.6c-0.6-4.8-1.2-9.89-2.1-15.29c-3.3-11.09-9-19.78-16.49-26.08
		c-1.8-0.9-4.2-2.4-7.5-4.5c-2.1-2.4-3.29-5.69-3.29-10.19c0-8.09,5.1-14.39,15.59-18.29c8.4-3.29,18.89-5.1,31.78-4.79
		c17.69,0.3,29.98,2.4,37.48,6.29C1403.5,1551.42,1406.5,1556.22,1406.5,1562.81z M1518.01,1717.21c4.8,5.7,12.59,12.29,12.59,18.59
		c0,16.49-4.2,26.38-12.59,30.28c-6.29,3-23.38,4.5-51.27,4.5c-22.48,0-37.17-2.1-44.67-6.59c-7.49-4.5-11.09-13.19-11.09-26.08
		c0-3,1.8-6.3,5.7-9.89c4.5-4.5,7.2-7.2,7.79-8.7c2.7-5.7,6.3-20.08,10.2-43.47c3.6-20.99,6.29-40.77,8.09-59.66
		c-0.3-20.08-3-32.38-8.09-36.57c-1.8-0.9-4.2-2.4-7.5-4.5c-2.4-2.4-3.6-5.69-3.6-10.19c0-8.09,5.1-14.39,15.59-18.29
		c8.69-3.29,19.19-5.1,31.78-4.79c17.69,0.3,30.28,2.4,37.48,6.29c6.29,3.3,9.29,8.09,9.29,14.69c0,11.69-9.89,12-13.19,20.39
		c-3.3,8.69-5.4,22.18-5.4,40.17v1.5c1.8,17.09,4.79,35.38,8.4,54.27C1511.72,1700.42,1514.71,1713.32,1518.01,1717.21z
		 M1760.84,1562.81c0,11.69-9.59,12-13.19,20.39l-7.2,12.89c-4.2,7.2-5.4,15.59-5.4,24.88c0-0.3,0,0.9,0,3.9
		c0.3,11.09,3.6,27.58,9.29,49.77c5.4,21.28,8.09,37.77,8.09,49.47c0,15.59-1.2,26.38-3.9,32.38c-4.2,9.29-12.89,14.09-26.08,14.09
		c-14.69,0-27.88-9.59-39.57-28.48c-3-5.1-11.09-22.49-24.58-52.77c-8.4-18.89-15.89-28.48-22.78-28.48c-2.1,0-3.3,1.8-3.3,5.1
		c0,5.1,1.5,14.09,5.4,27.58c3.6,13.19,6.59,21.28,8.7,23.99l6.9,8.39c2.7,3.3,4.79,6.6,5.4,9.89c0.6,3.9,0.9,7.5,0.9,10.79
		c0,8.7-3.29,14.99-9.59,18.59c-5.1,2.7-14.39,4.79-27.88,5.1c-6.3,1.2-19.79,1.2-40.48,1.2c-8.09,0-16.19-1.5-24.58-4.79
		c-7.5-2.7-12.29-6.3-14.69-11.09c-2.1-3.3-3.3-7.5-3.3-11.99v-5.7c0-2.7,1.2-5.4,3.9-8.09l6.9-6.9c6-22.79,10.2-44.07,12.89-63.56
		c2.1-15.89,3.6-30.28,4.5-43.17c1.2-18.89-1.5-31.18-8.1-36.57c-1.8-0.9-4.19-2.4-7.49-4.5c-2.4-2.4-3.6-5.69-3.6-10.19
		c0-8.09,5.1-14.39,15.59-18.29c8.4-3.29,18.89-5.1,31.78-4.79c21.89,0.3,35.68,3.6,41.97,9.29c9.3,6.29,17.99,20.99,25.49,44.37
		c8.4,25.18,16.49,41.67,24.58,49.46c2.1,1.8,4.2,2.4,6.59,1.5c2.4-2.99,3.6-7.49,3.6-13.19c0-2.1-0.3-5.7-0.9-10.2v-1.49l-0.3-0.6
		c-0.6-4.8-1.2-9.89-2.1-15.29c-3.3-11.09-9-19.78-16.49-26.08c-1.8-0.9-4.2-2.4-7.5-4.5c-2.1-2.4-3.29-5.69-3.29-10.19
		c0-8.09,5.1-14.39,15.59-18.29c8.4-3.29,18.89-5.1,31.78-4.79c17.69,0.3,29.98,2.4,37.48,6.29
		C1757.84,1551.42,1760.84,1556.22,1760.84,1562.81z M1952.09,1653.65c-2.7,6.9-3.6,13.49-2.4,20.08
		c4.49,23.69,6.59,40.17,6.59,49.17c0,3.9-0.6,6.59-1.8,7.79c-2.7,2.7-6.9,4.79-12.29,5.7c-5.4,0.9-8.7,1.8-9.59,2.7
		c-17.09,13.49-28.18,21.58-32.68,23.98c-9.89,5.1-23.99,7.5-42.27,7.5c-27.28,0-49.77-12.59-67.16-37.48
		c-15.59-22.19-23.38-47.67-23.38-76.45c0-29.08,8.4-55.16,25.18-78.25c18.59-25.78,41.98-38.68,70.46-38.68c4.2,0,10.2,0.9,17.99,3
		c8.09,2.1,13.79,3,17.69,3c3.9,0,14.09-5.4,17.99-5.4c6.29,0,11.09,3.6,14.39,11.09c2.4,5.7,3.6,11.99,3.6,18.89
		c0,11.99-0.9,20.39-2.7,25.48c-3.3,8.4-9.89,12.59-19.79,12.59c-8.09,0-13.79-2.7-17.39-7.79l-7.5-14.99
		c-3.9-5.1-9.89-7.8-17.99-7.8c-9.29,0-17.09,4.8-23.98,14.69c-6.29,8.99-9.59,18.28-9.59,27.58c0,13.79,5.7,24.28,17.39,31.48
		c9.29,5.69,21.29,8.4,35.68,8.4c8.09,0,12.29-2.7,12.29-8.4c0-1.8-2.1-4.2-5.99-7.2c-3.9-3-6-6-6-9c0-8.39,11.09-12.59,33.58-12.59
		c-0.3,0,9.6-0.9,15.89-0.9c16.49,0,24.88,3.3,25.19,9.89c0.3,4.5-1.2,8.4-4.2,12.29L1952.09,1653.65z"/>
	<path d="M709.93,1811.32c-38.33,0-68.77,17.66-91.31,52.61c-19.54,30.44-29.31,65.76-29.31,106.35c0,36.83,9.77,68.01,28.93,93.57
		c21.42,28.18,49.98,42.09,85.68,42.09c31.94,0,59-10.15,81.54-30.06c23.67-21.42,35.7-47.73,35.7-79.29
		c0-46.22-8.26-86.43-25.18-121.37C775.69,1832.73,747.13,1811.32,709.93,1811.32z M712.93,1977.78c-14.65,0-25.55-9.77-33.07-29.68
		c-5.64-14.65-8.27-30.81-8.27-47.73c0-10.15,1.5-19.54,4.89-28.18c4.13-11.65,10.15-17.29,18.04-17.29
		c13.15,0,24.42,12.4,33.44,37.58c7.14,19.92,10.9,38.33,10.9,54.86C738.87,1967.64,730.22,1977.78,712.93,1977.78z
		 M1037.59,1828.97c4.89,10.52,7.14,21.8,7.14,34.2c0,7.89-1.5,14.28-4.89,19.54c-3.76,6.39-9.02,9.77-16.16,9.77
		c-6.01,0-11.27-3.38-15.41-10.15c-6.39-10.14-10.9-16.53-13.53-18.79c-7.51-6.76-18.41-10.14-32.31-9.77
		c-17.29,0.37-25.93,5.26-25.93,14.28c0,9.39,3.76,16.53,10.89,21.42c6.39,4.13,14.65,6.39,24.43,6.39c4.13,0,11.65-7.14,16.16-7.14
		c4.13,0,6.01,15.03,6.01,44.72c0,7.52-4.88,14.65-12.4,14.65c-2.63,0-7.14-3.38-13.15-10.15s-12.78-10.15-19.92-10.15
		c-5.64,0-9.39,1.88-10.9,5.64c-0.75,1.88-1.13,6.76-1.5,14.28c-1.13,31.19,1.88,59.75,7.89,86.06c1.5,5.63,8.27,14.65,20.67,26.3
		c11.28,10.9,16.54,19.92,15.79,27.81c-0.75,8.26-8.64,12.4-24.05,12.4c-4.13,0-9.77-0.37-17.66-1.13
		c-7.89-0.38-13.15-0.75-16.53-0.75l-70.64,0.75c-12.78,0-19.17-6.39-19.17-18.79c0-4.89,2.63-11.27,9.02-18.04l14.28-15.79
		c7.51-8.26,10.14-18.41,10.14-29.68l-1.5-108.6v-0.38c0-25.18-3.76-40.58-10.15-45.84c-2.26-1.13-5.26-3.01-9.39-5.64
		c-3.01-3-4.51-7.14-4.51-12.78c0-10.15,6.39-18.04,19.54-22.92c10.9-4.13,24.05-6.39,39.84-6.01c1.13,0,3,0,5.63,0.37h5.05h0.21
		c1.23,0,9.81,0,25.93,0c8.64,0,21.79-1.13,38.7-3c16.91-2.26,29.68-3.38,37.57-3.38
		C1023.31,1808.69,1031.58,1815.45,1037.59,1828.97z M1422.74,1839.87c0,5.63-2.25,10.15-6.39,13.9
		c-5.64,4.89-9.02,8.64-10.15,11.27c-4.51,10.9-6.76,29.69-6.76,56.37c0,8.64,0,21.42,0.37,38.33c0.38,16.91,0.75,29.31,0.75,37.96
		c0,24.42-10.52,47.35-31.94,69.52c-21.42,21.79-44.34,32.69-68.77,32.69c-44.34,0-75.53-8.27-93.57-25.18
		c-18.79-17.29-28.18-47.35-28.18-90.56c0-8.27,0.38-20.67,1.13-37.2c1.13-16.54,1.5-28.94,1.5-37.21c0-18.41-1.88-31.57-6.01-40.21
		c-1.88-4.13-6.01-8.26-11.65-12.77c-4.13-3.38-6.39-7.52-6.39-13.16c0-10.89,7.14-18.79,21.42-23.67
		c9.77-3.38,21.42-5.26,34.95-5.26c40.96,0,61.63,8.64,61.63,26.3c0,5.64-2.26,10.15-6.39,13.9c-5.63,4.89-9.39,9.02-10.52,11.65
		c-4.13,10.15-6.39,26.68-6.39,50.36l-0.38-0.75c0.38,22.92,2.63,38.7,6.76,46.59c6.39,11.65,20.29,17.29,41.71,17.29
		c36.07,0,46.22-13.15,46.22-50.36c0-19.16-0.75-33.82-2.26-44.72c-1.88-13.15-6.01-21.79-13.15-25.93
		c-6.39-3.38-9.39-8.64-9.39-15.41c0-19.16,19.92-28.93,59.37-28.93c10.15,0,19.16,1.5,27.05,4.88
		C1417.48,1824.09,1422.74,1830.85,1422.74,1839.87z M1629.02,1998.07c0,30.44-9.77,55.24-29.69,74.78
		c-19.54,19.54-44.34,29.31-74.4,29.31c-30.81,0-55.99-7.89-75.16-22.55c-21.42-16.53-31.94-39.46-31.94-69.52
		c0-15.03,7.89-22.55,23.3-22.55c4.89,0,10.15,2.25,15.41,5.63c5.63,3.76,13.15,5.26,23.3,5.26c17.29,0,25.93-8.26,25.93-24.8
		c0-5.64-5.63-13.16-17.29-22.92c-17.29-15.03-27.81-24.43-31.19-28.56c-11.65-12.78-17.29-25.55-17.29-38.33
		c0-22.92,9.02-40.96,27.43-54.11c16.15-11.65,36.07-17.66,59.75-17.66c7.52,0,18.42,1.5,32.32,4.13
		c14.28,2.63,25.18,4.13,33.07,4.13c13.53,0,20.29,15.41,20.29,46.59c0,17.66-7.14,26.68-21.05,26.68
		c-9.77,0-19.16-7.14-28.18-21.41c-8.64-14.28-17.29-21.42-25.55-21.42c-18.42,0-27.43,6.76-27.43,19.92
		c0,7.89,10.15,16.53,30.81,26.3c27.81,13.16,46.59,24.05,56.74,32.69C1618.87,1947.34,1629.02,1970.27,1629.02,1998.07z"/>
	<path d="M1339.61,1130.98c-0.53-2.5-2.16-8.99-3.64-14.41c-3.64-13.2-4.66-17.86-6.07-27.31c-1.55-10.47-2.88-15.59-5.5-20.97
		c-3.41-6.94-7.28-10.28-13.01-11.15c-3.38-0.53-6.71,0.19-12.55,2.73c-2.39,1.03-4.36,1.86-4.4,1.78
		c-1.97-2.66-5.19-7.62-8.42-12.97c-5.27-8.65-15.78-24.23-20.86-30.95c-5.19-6.9-11.15-13.69-18.32-20.86
		c-7.05-7.09-13.46-12.44-21.31-17.79c-16.42-11.23-22.22-18.05-24.42-28.86c-0.95-4.67-0.34-10.69,2.12-20.21
		c2.54-9.97,2.81-11.45,4.74-28.67c2.81-24.76,3.03-25.86,10.24-46.27c5.42-15.36,5.69-16.99,6.64-36.9
		c0.61-13.08,1.44-17.52,4.55-24.01c1.03-2.13,1.97-4.48,2.09-5.23c0.15-0.72,0.3-4.63,0.38-8.65c0.08-5.95,0.23-7.85,0.87-10.16
		c3-11.19,3.94-15.4,4.82-21.92c1.67-12.59,2.92-16.31,8.15-24.35c6.9-10.58,8.12-14.83,9.48-33.34
		c0.83-10.85,0.91-16.84,0.38-21.28c-0.91-7.4-0.95-7.02,0.04-7.89c0.45-0.46,1.14-0.84,1.48-0.84c0.87,0,1.71-1.02,2.24-2.69
		c0.49-1.48,0.57-1.97,0.95-4.51c1.52-9.97,8.87-40.85,11.6-48.73c2.58-7.32,2.73-8.34,3.03-20.48c0.23-8.04,0.65-14.11,1.37-20.67
		c0.91-7.96,1.06-10.88,1.06-20.48c0.04-15.93-0.42-17.75-7.55-30.19c-6.71-11.72-8.53-14.03-13.73-17.48
		c-1.67-1.1-3.38-2.47-3.72-3c-1.4-2.13-1.86-6.3-1.78-16.08c0.08-10.28-0.11-11.68-2.09-17.07c-4.4-11.83-11.3-21.96-18.39-26.81
		c-9.94-6.86-21.92-9.29-34.44-7.02c-4.21,0.8-16.23,4.14-20.56,5.77c-1.14,0.42-3.03,1.4-4.13,2.2c-3.26,2.28-3.07,2.28-2.81,0
		c0.15-1.1,0.61-3.64,0.99-5.61c1.4-6.56,0.91-12.17-1.67-19.72c-1.03-3.03-1.21-4.17-1.21-7.02c0-3.19,0.15-3.72,1.78-7.81
		c3.64-9.1,4.02-12.17,2.05-16.46c-2.43-5.39-7.74-8.61-16.73-10.28c-4.09-0.72-15.09-4.02-22.19-6.64
		c-7.81-2.88-17.86-5.31-22.76-5.5c-3.56-0.15-4.21-0.08-6.14,0.72c-3.22,1.37-5.04,2.58-9.29,6.07c-4.13,3.45-6.9,4.97-13.39,7.28
		c-5.08,1.82-6.22,2.39-8.84,4.51c-3.68,2.99-7.09,8.23-8.72,13.31c-0.87,2.62-2.73,11.38-3.45,15.93
		c-1.56,10.24-1.18,16.23,1.67,25.87c2.66,8.84,3.76,14.6,4.1,21.05l0.27,5.42l-3.04-1.21c-2.96-1.17-9.71-2.77-11.76-2.77
		c-1.55,0-2.39,0.65-2.81,2.2c-0.46,1.71-1.06,8.57-1.4,15.85c-0.11,2.96-0.34,5.54-0.49,5.73c-0.12,0.19-1.71,1.29-3.53,2.5
		c-4.25,2.81-9.97,7.93-12.93,11.57c-1.29,1.59-3.38,4.06-4.63,5.46c-7.28,8.27-10.5,13.01-17.14,25.33
		c-6.48,11.98-8.72,16.69-14.03,29.77c-3.26,8-5.5,14.38-7.36,20.86c-2.69,9.56-2.77,9.97-5.46,44.75
		c-0.91,11.61-3.07,33.91-4.02,40.96c-0.19,1.67-1.29,9.33-2.43,17.07c-1.14,7.7-2.46,17.79-3,22.38
		c-1.14,9.82-3.07,33.79-3.64,45.13c-0.23,4.36-0.64,12.21-0.95,17.45c-0.57,9.52-1.1,24.27-1.55,43.05
		c-0.27,10.7,0.26,24.88,1.14,30.64c0.68,4.4,1.67,6.83,4.47,11.11c2.88,4.36,7.36,9.06,11.64,12.25c7.21,5.35,11.41,6.86,17.6,6.33
		l2.92-0.27l0.04,8.95c0.04,19.87,0.68,50.36,1.1,52.91c0.23,1.44,0.46,4.21,0.46,6.11l0.04,3.45l-3.64,7.58
		c-3.68,7.58-4.93,11.3-4.55,13.61c0.11,0.61,0.61,2.47,1.18,4.13c0.53,1.67,0.99,3.94,0.99,5.04l0.04,2.01l-6.14,5.95
		c-7.85,7.58-9.63,10.28-13.43,20.29c-2.5,6.52-6.49,14.26-11.76,22.87c-2.66,4.4-14.03,20.97-18.2,26.55
		c-7.66,10.28-15.74,22.57-19.19,29.16c-4.89,9.25-8.08,14.79-12.29,21.05c-5.54,8.34-6.33,10.2-7.13,16.69
		c-1.06,8.46-1.67,11.45-3.11,15.93c-0.87,2.62-2.01,5.58-2.5,6.64c-1.14,2.28-5.92,9.67-6.22,9.67c-0.11,0-3.49,3.26-7.51,7.28
		c-5.95,5.92-7.81,8.04-10.09,11.45c-5.2,7.89-7.28,13.35-7.66,19.99c-0.38,6.33,0.95,10.39,5.76,17.83
		c1.44,2.16,3.95,6.14,5.61,8.87c1.67,2.69,5.01,8,7.44,11.76c2.47,3.76,5.76,9.07,7.4,11.8c3.34,5.54,6.86,10.47,10.05,13.88
		c2.65,2.88,11.19,10.58,14.45,13.05c4.59,3.49,14.79,8.27,21.31,9.98c5.23,1.4,8.95,1.9,16.61,2.16c8.46,0.34,14.75-0.87,21.5-4.06
		c6.03-2.84,8.84-6.87,8.84-12.48c0-6.22-3.91-11.61-14.41-19.87c-8.46-6.68-9.25-7.66-11.45-13.8c-1.52-4.36-1.63-4.55-6.75-12.21
		c-5.16-7.7-5.69-8.68-6.98-12.74c-1.25-3.98-3.64-14.15-3.64-15.55c0-1.97,1.74-4.82,5.69-9.25c6.26-7.02,7.78-9.63,11.49-19.91
		c4.93-13.62,6.49-17.56,9.26-23.7c3.49-7.66,13.73-28.41,16.57-33.56l2.09-3.79l0.04,15.28c0,8.8,0.19,17.64,0.46,20.86
		c0.26,3.07,0.49,8.31,0.49,11.64v6.07l-1.44,3.41c-2.96,6.9-3.38,8.69-3.38,13.46c0.04,2.39,0.42,6.9,0.87,10.05
		c0.72,5.08,0.76,6.49,0.49,13.27c-0.53,12.97-0.26,15.21,2.47,20.86c2.58,5.39,6.18,8.34,11.98,9.86
		c2.65,0.72,5.08,0.72,22.57,0.23c14.79-0.42,18.2-0.87,31.48-3.98c10.28-2.39,9.67-2.31,25.6-3.11
		c12.74-0.61,15.21-0.95,20.37-2.84c6.33-2.31,14.03-6.98,18.51-11.19l1.33-1.25l3.38,3.19c4.48,4.25,6.14,5.35,9.63,6.11
		c3.6,0.8,9.79,0.57,13.27-0.53c2.81-0.91,8.27-3.95,13.54-7.55c2.09-1.44,7.4-5.08,11.76-8.04c10.47-7.17,11.72-8.19,17.6-14.37
		c5.8-6.18,9.06-8.61,14.75-10.92c5.08-2.13,7.02-3.26,9.1-5.42c3.15-3.22,3.95-6.52,2.96-11.91c-1.25-6.68-4.74-14.15-9.67-20.82
		c-3.3-4.4-4.78-6.83-5.12-8.34c-0.15-0.64,0.15-2.58,0.8-4.93c0.79-3.03,1.02-4.78,1.02-7.7c-0.04-3.98-0.19-4.78-2.81-13.65
		c-3.03-10.2-8.31-37.24-8.61-44.3c-0.15-3.3-0.11-4.82,0.19-4.82c0.53,0,2.77,1.71,11.23,8.69c7.4,6.07,10.01,8.42,18.85,16.95
		c2.84,2.73,6.87,6.18,8.91,7.62c5.57,3.98,8.15,6.86,10.35,11.57c1.02,2.16,2.28,5.61,2.84,7.7c2.69,9.82,4.21,13.2,7.32,16.16
		c3.26,3.11,10.73,6.9,16.31,8.31c1.21,0.3,1.78,0.68,2.24,1.59c0.95,1.82,1.63,4.02,2.47,7.7c0.95,4.32,2.01,6.6,4.51,9.67
		c2.39,3,4.06,6.22,5.65,11.04c1.44,4.36,3.15,7.32,5.88,10.2c4.7,4.97,6.33,8.38,9.94,20.78c1.9,6.6,3.03,8.99,5.08,10.85
		c3.22,2.92,9.94,3.87,15.36,2.2c3.83-1.18,5.92-2.62,7.51-5.23c1.67-2.77,5.23-11.23,6.52-15.47
		C1341.09,1155.18,1341.74,1141.15,1339.61,1130.98z M1232.55,517.27c0.15-1.59,4.36-11.11,4.89-11.11c0.11,0,0.68,0.53,1.21,1.18
		c0.53,0.64,1.1,1.63,1.25,2.16c0.38,1.33,0.34,6.75-0.04,12.21c-0.23,3.45-0.19,4.93,0.3,7.17c0.34,1.55,0.53,2.88,0.49,2.96
		c-0.08,0.08-1.48,0.45-3.15,0.87c-1.63,0.42-3.3,0.87-3.64,0.99c-0.83,0.27-0.87-0.91-0.23-4.78c0.42-2.39,0.38-3-0.42-6.29
		C1232.66,520.31,1232.4,518.38,1232.55,517.27z M1156.13,1132.77c-6.18,6.86-8.04,9.4-9.67,13.5c-2.31,5.69-2.99,6.83-6.83,10.92
		c-2.92,3.19-9.29,8.12-10.43,8.12c-0.38,0-1.59-0.61-2.66-1.36c-3.11-2.13-6.37-3.83-8.61-4.48c-1.14-0.34-5.31-0.87-9.29-1.21
		c-8.46-0.72-14.34-0.57-22.98,0.64c-5.31,0.72-6.9,0.76-16.12,0.53c-7.96-0.19-10.43-0.38-11.07-0.8c-0.8-0.49-0.87-0.83-0.87-4.32
		c0-4.89-0.45-6.83-2.5-10.81c-3.34-6.52-3.83-9.75-2.43-15.66c0.99-4.1,0.95-5.27-0.23-10.2c-1.29-5.39-1.14-9.33,0.76-17.56
		c2.35-10.13,3.34-18.2,4.4-35.84c0.42-6.9,1.25-19.42,1.86-27.88c0.65-8.46,1.33-18.13,1.52-21.46c0.45-6.71,1.06-9.33,2.69-11.91
		c2.05-3.22,3.07-6.18,6.11-17.79c1.67-6.37,4.06-14.87,5.31-18.81c3.34-10.51,3.72-12.33,4.32-21.09c0.3-4.48,0.91-9.44,1.37-11.57
		c0.91-4.21,8.68-29.77,13.23-43.39c1.63-4.89,3.07-9.52,3.22-10.24c0.3-1.21,0.49-0.8,2.73,5.88c1.33,3.95,3,9.41,3.72,12.14
		c1.9,7.05,3.3,13.92,6.3,30.72c3.6,20.18,7.89,41.49,10.17,50.33c4.59,17.98,10.05,33.56,17.63,50.44
		c4.17,9.29,7.89,20.9,13.46,42.02c2.39,9.07,7.47,29.28,8.53,34.13c0.57,2.39,1.63,6.22,2.39,8.53
		C1164.7,1121.96,1164.02,1124.04,1156.13,1132.77z M1184.04,545.98c-0.19,0.19-1.63,0.49-3.19,0.72
		c-4.7,0.68-10.13,2.92-18.77,7.81c-2.27,1.29-5.76,3.19-7.74,4.17c-1.97,0.99-4.93,2.62-6.6,3.64c-1.67,1.02-3.07,1.82-3.15,1.75
		c-0.08-0.08-0.3-5.23-0.49-11.49l-0.34-11.34l-1.37-4.29l-1.37-4.32v-9.94c0-5.46-0.19-10.92-0.42-12.14
		c-0.34-1.93-0.3-2.24,0.27-2.65c0.61-0.45,0.61-0.72,0.19-2.92c-0.8-4.06-1.37-4.74-6.22-7.7c-1.59-0.99-4.4-3.26-6.26-5.08
		l-3.3-3.26l9.29-0.42c5.12-0.23,10.73-0.38,12.52-0.34c1.78,0.04,4.1,0.11,5.16,0.11l1.93,0.04l-1.44,4.06
		c-0.76,2.27-1.75,4.85-2.2,5.8c-1.78,3.83-0.72,5.99,3.57,7.4l2.65,0.84l0.23,2.43c0.26,3,0.76,3.98,2.43,4.66
		c1.75,0.76,2.09,2.09,0.99,4.02c-1.06,1.9-1.02,2.88,0.3,5.35c2.35,4.32,3.15,6.3,3.49,8.49c0.45,2.77,1.21,3.91,3.37,5.01
		c2.69,1.4,7.21,1.02,11.87-0.99l1.67-0.72l0.19,2.31c0.15,1.63,0.65,3.34,1.63,5.5C1183.81,544.35,1184.23,545.76,1184.04,545.98z"
		/>
	<path d="M460.85,615.22c4.88,4.5,3.66,11.52-3.84,21.29c-2.01,2.63-4.99,6.02-9.31,10.66c-4.08,4.82-6.88,7.98-8.53,10.12
		l-33.91,45.18c-6.22,8.1-13.38,9.05-21.24,3.01c-3.1-2.38-5.87-7.15-7.05-14.5l-3.06-16.74c-1.59-8.79-6.75-15.4-13.9-20.88
		l-69.63-51.9l-0.24-0.18c-15.97-12.25-27.57-17.37-34.02-15.88c-1.81,0.88-4.46,1.88-8.15,3.22c-3.37,0.45-6.72-0.61-10.3-3.36
		c-6.44-4.94-8.33-12.83-5.03-23.55c2.68-8.92,7.65-18.37,15.57-28.19c0.55-0.72,1.46-1.91,2.98-3.4l2.56-3.33
		c-0.92,1.19,3.29-4.29,12.62-16.45c4.21-5.48,9.89-14.37,16.93-26.01c6.8-11.83,12.3-20.48,16.14-25.49
		c5.12-6.67,13.43-8.63,24.94-5.86c9.05,2.02,17.3,6.08,25.17,12.11c5.01,3.84,8.33,7.9,10.02,12.61c2.22,5.49,1.81,10.47-1.66,15
		c-2.93,3.81-7.63,5.5-13.94,4.83c-9.55-0.88-15.79-1.13-18.5-0.56c-7.95,1.48-15.4,6.75-21.92,15.75
		c-8.18,11.15-9.28,19.01-3.56,23.4c5.96,4.57,12.32,5.66,18.89,3.51c5.73-2.04,11.19-6.19,15.94-12.39
		c2.01-2.62,1.14-10.86,3.33-13.72c2.01-2.63,12.46,3.5,31.29,17.95c4.77,3.65,6.92,10.23,3.26,15c-1.28,1.66-5.62,2.88-12.84,3.4
		c-7.22,0.52-12.66,3.17-16.13,7.7c-2.74,3.58-3.38,6.88-1.73,9.66c0.82,1.39,3.74,4.01,8.33,7.9
		c19.24,15.89,38.82,27.89,58.43,36.88c4.3,1.79,13.32,1.89,26.74-0.31C447.93,609.85,456.21,610.9,460.85,615.22z M581.94,401.03
		c16.44,19.14,22.85,41.36,19.65,66.69c-3.3,23.83-14.42,44.08-33.8,60.72c-21.65,18.6-46.22,25.04-73.89,19.11
		c-24.94-5.51-47.11-19.34-66.3-41.68c-21.14-24.61-33.62-51.13-37.63-79.77c-4.53-32.94,4.73-59.51,27.98-79.48
		c22.56-19.38,51.04-21.27,85.48-6.09C531.9,352.92,557.86,373,581.94,401.03z M506.38,414.05c-8.61-10.03-20.48-19.24-35.19-27.6
		c-18.59-10.57-31.89-12.22-39.86-5.37c-4.78,4.11-5.49,10.66-1.93,19.88c2.45,7,6.43,13.49,11.72,19.64
		c8.81,10.25,18.82,18.69,29.88,24.64c14.93,8.17,26.64,8.41,35.52,0.78C516.99,437.01,516.95,426.36,506.38,414.05z M977.83,279.82
		c5.83,23.63,4.68,40.31-3.21,49.69c-3.14,3.56-15.11,7.75-36.11,12.93c-5.84,1.44-13.71,3.38-23.85,6.19
		c-8.39,2.38-16.63,4.1-24.5,6.04l-54.91,13.24c-6.74,1.66-11.71,0.4-14.95-3.46l-4.11,6.84c-3.08,1.91-8.16,5.17-14.7,10.2
		c-5.61,4.21-10.42,7.34-14.7,9.53c-18.47,9.42-35,8.75-49.47-2.42c-7.17-5.45-18.03-18.8-32.72-40.32
		c-12.51-17.9-23.48-28.16-32.76-30.5c-3.1-0.78-6.05,0.05-8.58,2.35c-4.4,3.93-5.04,7.97-1.92,12.11
		c16.72,23.52,28.12,37.26,35,40.17c7.02,3.17,16.57,5.38,19.44,11c7.51,14.72,8.27,25.47,2.82,32.63
		c-4.26,5.54-18.83,14.66-43.72,27.36c-20.34,10.38-34.95,15.47-43.55,15.14c-8.74-0.6-15.64-6.86-21.12-18.91
		c-1.1-2.81-0.99-6.58,0.58-11.43c1.97-6.06,2.88-9.56,3-11.31c-0.18-6.31-3.53-20.8-10.7-43.45
		c-6.35-20.38-12.95-39.27-19.94-56.95c-9.82-17.93-17.83-27.67-23.89-28.97c-2.01,0.01-4.84-0.23-8.74-0.6
		c-3.23-1.05-5.8-3.45-7.85-7.46c-3.69-7.23-2.01-15.17,5.59-23.43c5.99-6.76,14.4-13.42,26.18-18.76l11.52-5.2
		c15.38-8.86,25.42-14.32,29.43-16.36c14.72-7.51,29.34-11.26,43.59-11.1c17.61,0.12,29.75,6.75,36.71,20.4
		c8.6,16.86,6.47,35.15-6.68,54.34c4.74,4.66,10.54,6.76,17.79,6.44c10.88-0.49,16.12-0.81,16.39-0.94
		c10.37,2.47,19.12,5.76,26.02,10.68c6.22,4.25,12.99,10.91,20.18,19.72c10.46,13.22,21.42,23.48,32.91,30.78
		c0.68,0.67,4.31,1.85,10.92,4.21c1.29,0.48,2.43,0.95,3.46,1.44c0.33-1.8,1.03-3.57,2.12-5.37c3.74-6.18,5.64-9.75,5.94-11.06
		l3.38-10.12c1.54-5.02,0.56-16.54-3.25-34.48l-16.23-75.83c-1.29-6.49-2.07-12.18-3.88-16.99c-3.39-9.99-7.6-15.76-11.75-17.52
		c-1.97-0.44-4.66-1.32-8.37-2.58c-2.91-1.76-4.87-4.68-5.94-9.05c-1.95-7.88,1.5-15.22,10.78-21.53c7.67-5.3,17.45-9.56,29.77-12.3
		c4.67-1.15,16.92-2.94,21.87-4.16c6.71-1.65,17.36-4.9,32.02-9.44c14.66-4.55,25.31-7.79,31.44-9.3
		c8.46-2.09,16.17,1.58,23.43,10.93c5.52,7.31,9.42,15.63,11.8,25.25c1.51,6.13,1.57,11.37,0.24,16.03
		c-1.98,5.75-5.42,9.38-10.96,10.75c-5.25,1.3-10.2,0.04-15.22-3.98c-7.34-5.93-12.5-9.29-15.92-10.62
		c-8.52-3.16-19.66-3.19-33.67,0.26l-6.42,1.58c-1.82,1.38-2.42,4-2.36,8.01c0.07,1.53,0.06,2.77,0.43,4.23
		c1.58,6.42,6.09,10.88,13.51,13.38c6.41,2.13,13.54,2.23,21.42,0.29c3.21-0.79,6.59-8.43,9.79-9.22c2.92-0.72,4.88,0.96,5.96,5.34
		c1.65,6.71,2.44,13.63,2.2,20.19c-0.47,9.39-2.89,14.64-7.85,15.86c-3.21,0.79-6.7-0.82-10.84-5.06
		c-3.85-4.31-8.51-5.64-14.05-4.27c-6.13,1.51-8.04,7.56-5.52,17.76c5.97,24.21,23,33.01,51.29,26.03c2.33-0.58,8.25-4.2,11.09-3.97
		c1.53-0.07,2.7-0.35,3.57-0.57c4.96-1.22,8.18-4.49,10.23-9.95s4.11-8.44,6.15-8.94c5.83-1.44,13.24,7.25,14.89,13.96
		c0.5,2.04,1.73,7,4.33,15.02C974.3,268.01,976.54,274.57,977.83,279.82z M645.44,260.74c-6.69-13.12-15.19-17.21-25.63-11.88
		c-4.55,2.32-7.32,8.79-4.19,12.93l16.2,26.48c2.59,4.42,5.43,6,8.37,4.5c5.35-2.73,8.27-7.59,8.89-14.32
		C649.7,272.4,648.31,266.36,645.44,260.74z M1173.14,97.8c-6.97-2.55-14.81-3.89-23.52-3.7c-29.74,0.64-44.6,8.77-44.25,24.69
		c0.12,5.71,2.31,9.56,6.87,11.87c4.56,2.3,7.04,5.86,7.13,10.37c0.21,9.61-1.95,21.08-6.47,34.7
		c-5.37,15.74-11.49,24.59-18.36,26.84c-5.16-2.29-10.75-10.59-16.76-24.58c-5.39-12.81-8.31-23.26-8.77-30.77
		c-1.19-13.5,7.03-22.39,7.28-24.8c0.27-1.5,0.54-3.01,0.49-5.12c-0.14-6.61-3.25-11.35-9.63-14.52c-7.29-3.75-19.95-5.58-37.69-5.5
		c-12.62-0.03-23.1,2-31.74,5.49c-10.43,4.13-15.4,10.55-15.23,18.66c0.1,4.5,1.37,7.78,3.82,10.14c3.35,2.03,5.78,3.48,7.61,4.34
		c3.97,2.92,7.72,9.45,11.54,19.59l7.99,22.07c1.29,3.88,6.76,21.19,15.23,51.37c8.13,28.98,15.51,50.76,22.43,65.04
		c10.38,21.41,21.73,31.99,34.04,31.73c3.91-0.08,8.69-1.09,14.06-3.01c6.86-2.55,11.6-5.66,14.22-9.32
		c6.41-9.46,15.17-35.49,25.98-78.1c12.2-47.45,21.75-78.61,28.65-93.49c0.85-2.12,4.68-6.11,11.47-11.67
		c5.31-4.62,7.91-9.49,7.79-15.19C1186.86,107.12,1182.24,101.51,1173.14,97.8z M1571.8,212.94c10.86,13.86,13.23,27.49,6.88,41.43
		c-7.85,17.23-23.5,26.94-46.7,28.58c-0.7,6.61,1.26,12.46,6.03,17.93c7.15,8.22,10.66,12.12,10.93,12.24
		c4.52,9.66,7.4,18.56,7.83,27.01c0.54,7.51-0.46,16.96-2.88,28.07c-3.84,16.41-5.05,31.38-3.62,44.9
		c-0.1,0.95,1.24,4.53,3.49,11.17c1.66,5.05,2.06,8.53,0.94,10.99c-0.87,1.91-3.26,2.8-7.14,3.35l-8.43,1.11
		c-3.41-1.22-9.12-3.16-17.12-5.16c-6.79-1.78-12.23-3.6-16.61-5.59c-18.87-8.6-28.63-21.96-28.89-40.24
		c-0.19-9,3.51-25.81,11.21-50.69c6.24-20.93,7.44-35.9,3.49-44.63c-1.32-2.91-3.8-4.71-7.18-5.26c-5.82-1-9.38,1.01-10.67,6.03
		c-8.01,27.72-11.68,45.2-9.67,52.38c1.88,7.46,6.1,16.32,3.49,22.06c-6.85,15.04-14.79,22.32-23.79,22.51
		c-6.99,0.12-23.2-5.61-48.62-17.2c-20.78-9.47-33.85-17.74-38.94-24.68c-1.79-2.6-2.83-5.49-3.18-8.65
		c-3.59,5.46-7.69,9.38-12.36,11.53c-4.36,1.88-16.97,0.58-38.18-3.66c-5.9-1.18-13.85-2.77-24.21-4.54
		c-8.6-1.42-16.79-3.36-24.74-4.95l-55.32-11.38c-10.02-2.01-14.02-8.02-12.14-17.45c0.77-3.83,2.89-6.77,6.42-9.13
		c6.01-4.01,9.25-6.42,10.08-7.48l7.37-7.72c3.54-3.89,7.55-14.73,11.73-32.58l17.58-75.53c1.59-6.42,3.3-11.9,3.71-17.03
		c1.18-10.49-0.17-17.5-3.17-20.86c-1.59-1.24-3.65-3.18-6.48-5.9c-1.89-2.83-2.42-6.3-1.53-10.72c1.6-7.95,7.84-13.14,18.92-14.9
		c9.19-1.53,19.85-1.23,32.17,1.54c4.71,0.95,16.55,4.54,21.56,5.54c6.77,1.36,17.79,2.95,32.99,5.08
		c15.2,2.13,26.21,3.72,32.4,4.96c8.55,1.71,13.96,8.31,16.55,19.86c1.88,8.96,1.88,18.15-0.07,27.87
		c-1.24,6.19-3.42,10.96-6.6,14.61c-4.25,4.36-8.9,6.18-14.49,5.06c-5.3-1.06-9.25-4.3-12.08-10.08
		c-4.12-8.48-7.36-13.73-9.89-16.38c-6.36-6.48-16.43-11.26-30.57-14.09l-6.48-1.3c-2.24,0.47-3.89,2.59-5.54,6.25
		c-0.59,1.41-1.12,2.53-1.42,4c-1.3,6.48,0.88,12.43,6.54,17.85c4.89,4.66,11.31,7.78,19.26,9.38c3.24,0.65,9.55-4.83,12.79-4.18
		c2.95,0.59,4,2.95,3.12,7.37c-1.36,6.77-3.6,13.37-6.6,19.21c-4.42,8.3-8.84,12.02-13.85,11.01c-3.24-0.65-5.71-3.59-7.66-9.19
		c-1.65-5.54-5.3-8.72-10.89-9.84c-6.19-1.24-10.49,3.42-12.55,13.72c-4.9,24.45,6.76,39.66,35.34,45.38
		c2.36,0.47,9.25-0.3,11.72,1.12c1.42,0.59,2.59,0.82,3.48,1c5,1,9.31-0.59,13.49-4.65c4.18-4.06,7.31-5.89,9.37-5.48
		c5.89,1.18,8.89,12.2,7.54,18.97c-0.41,2.06-1.42,7.07-2.48,15.44c-1.3,8.01-2.06,14.91-3.13,20.21c-0.55,2.73-1.15,5.31-1.79,7.8
		c1.24-0.72,2.6-1.41,4.25-2.03c5.97-2.23,9.28-3.7,10.72-4.69c4.83-4.07,14.09-15.7,27.36-35.41c12-17.64,22.69-34.57,32.17-51.04
		c7.92-18.84,10.57-31.17,7.82-36.72c-1.27-1.57-2.83-3.93-4.97-7.22c-1.19-3.18-0.91-6.69,0.96-10.79
		c3.36-7.38,10.63-11.01,21.82-10.2c9.03,0.48,19.47,2.93,30.97,8.83l11.23,5.78c16.51,6.53,27.02,10.99,31.12,12.86
		C1551.03,192.58,1563.06,201.7,1571.8,212.94z M1512.8,209.83c-4.65-2.12-11.44-0.26-12.73,4.76l-10.65,29.16
		c-1.84,4.77-1.32,7.98,1.68,9.35c5.47,2.49,11.09,1.75,16.74-1.95c5.12-3.28,8.98-8.12,11.6-13.86
		C1525.54,223.89,1523.46,214.69,1512.8,209.83z M1728.87,526.07c0.14-5.11,6.51-16.75,17.6-35.45
		c9.93-16.52,19.91-32.18,29.98-46.15l1-1.12c12.02-13.44,22.6-22.12,30.87-26.41c8.07-4.07,15.66,2.32,23.48-6.42
		c4.41-4.93,5.37-10.52,2.87-17.19c-2.77-7.72-10.77-17.7-23.79-29.74c-9.21-8.64-18.25-14.31-26.95-17.65
		c-10.45-4.1-18.46-2.8-23.87,3.25c-3,3.36-4.31,6.62-4.12,10.02c1.06,3.77,1.85,6.49,2.59,8.37c1,6.54-5.19,17.53-18.39,32.74
		c-13.96,12.91-29.2,25.89-45.91,39.17c-18.54,14.86-30.84,23.21-36.66,25.67c-1.45,0.72-5.27,0.93-11.63,1.29
		c-5.32,0.08-8.87,1.34-10.87,3.59c-8.61,9.63-11.73,18.53-9.14,26.9c2.59,8.37,12.17,19.75,28.97,34.77
		c20.83,18.63,34.6,28.93,41.31,30.9c8.88,2.7,18.62-1.89,29.64-14.21C1730.07,543.67,1728.65,533.54,1728.87,526.07z
		 M1966.33,541.06c-3.93-4.94-8.42-12.5-13.88-22.74c-5.28-10.01-9.76-17.58-13.51-22.27c-11.79-14.81-25.47-24.27-40.8-28.58
		c-17.4-4.97-33.17-1.63-47.51,9.79c-7.99,6.36-13.17,16.25-15.36,29.9c-0.9,4.17-1.54,15.44-2.33,33.73
		c-0.31,12.15-2.2,19.42-5.73,22.23c-10.34,8.23-19.82,6.94-28.43-3.87c-5.05-6.35-7.85-11.8-8.31-17.19
		c-0.5-4.98-1.72-9.39-4.15-12.45c-7.67-9.64-16.3-10.83-25.7-3.34c-18.8,14.97-27.9,32.96-27.58,54.6
		c0.38,19.28,7.98,38.96,23.32,58.24c14.97,18.8,33.43,29.46,55.39,31.94c22.14,2.73,42.52-3.51,61.56-18.67
		c17.4-13.85,26.68-31.61,27.44-53.34c0.35-10.65-2.19-27.82-7.81-51.77c-4.18-17.79-3.83-28.44,1.11-32.37
		c8.23-6.55,16.95-4.28,26.12,7.24c4.11,5.17,3.95,14.14-0.67,26.65c-4.44,12.75-4.23,22.19,0.64,28.3
		c6.92,8.7,16.12,8.67,27.17-0.12C1966.8,561.43,1973.07,549.52,1966.33,541.06z"/>
</g>
</svg>
