<?xml version="1.0" standalone="no"?>
<!DOCTYPE svg PUBLIC "-//W3C//DTD SVG 20010904//EN"
 "http://www.w3.org/TR/2001/REC-SVG-20010904/DTD/svg10.dtd">
<svg version="1.0" xmlns="http://www.w3.org/2000/svg"
 width="2400.000000pt" height="2400.000000pt" viewBox="0 0 2400.000000 2400.000000"
 preserveAspectRatio="xMidYMid meet">

<g transform="translate(0.000000,2400.000000) scale(0.100000,-0.100000)"
fill="#000000" stroke="none">
<path d="M8494 20780 c-151 -35 -397 -111 -874 -270 -426 -142 -827 -281
-2427 -844 -259 -91 -475 -166 -480 -166 -5 0 -14 111 -21 248 -14 269 -27
417 -43 500 -9 44 -17 57 -42 73 -62 37 -197 17 -216 -33 -19 -52 -43 -356
-57 -736 -4 -113 -11 -185 -18 -190 -6 -5 -72 -30 -146 -57 -422 -151 -665
-273 -754 -377 -31 -36 -36 -49 -34 -82 3 -33 8 -42 38 -58 29 -16 51 -19 126
-16 89 3 92 4 145 44 77 58 147 96 277 149 158 64 334 126 340 120 3 -3 0
-175 -7 -383 -26 -806 -31 -1009 -31 -1357 l0 -361 -67 -33 c-218 -106 -373
-211 -360 -244 12 -32 57 -50 135 -55 67 -4 90 0 167 26 50 17 97 33 106 37
14 5 16 -88 23 -1007 10 -1541 30 -2555 57 -2893 11 -148 22 -172 85 -193 61
-21 205 -12 241 14 l28 21 6 184 c4 101 13 792 19 1534 7 743 15 1622 19 1955
l6 605 50 26 c28 14 248 127 490 251 242 124 647 333 900 466 262 137 493 251
537 266 105 34 120 43 116 69 -5 38 -61 57 -163 57 -174 0 -234 -25 -1225
-514 l-695 -342 -2 110 c-2 108 -26 1762 -27 1860 l-1 48 265 95 c146 52 792
286 1435 520 1784 648 2163 781 2325 819 36 8 75 22 88 30 31 20 29 59 -5 81
-40 27 -221 28 -329 3z"/>
<path d="M10002 19312 c-72 -26 -87 -43 -142 -157 -110 -226 -264 -789 -377
-1375 -20 -107 -37 -196 -38 -197 0 0 -94 -6 -210 -12 -407 -21 -705 -86 -903
-197 -126 -71 -213 -185 -183 -241 25 -47 144 -75 228 -54 27 7 90 40 143 75
140 93 240 128 455 161 115 18 425 32 425 20 0 -5 -16 -117 -35 -249 -19 -133
-44 -320 -55 -416 -18 -156 -30 -207 -106 -473 -471 -1651 -752 -2353 -1102
-2755 -60 -70 -150 -142 -175 -142 -25 0 -93 87 -141 180 -55 107 -97 238
-129 405 -46 236 -52 317 -52 710 1 412 7 500 77 1061 l42 341 39 14 c60 21
68 41 32 80 -71 74 -299 202 -445 248 -223 72 -480 79 -705 19 -401 -106 -701
-413 -936 -958 -303 -703 -378 -1496 -178 -1892 43 -85 128 -171 210 -212 106
-53 195 -69 352 -64 220 8 352 65 507 218 174 172 343 455 491 824 l44 108 12
-173 c55 -769 275 -1119 723 -1146 319 -19 560 121 785 457 173 259 298 538
480 1073 l101 298 13 -203 c63 -1045 272 -1726 614 -1994 137 -107 283 -154
483 -154 199 0 362 52 510 164 140 105 312 311 441 528 32 54 61 98 64 98 3 0
16 -48 28 -107 44 -208 95 -362 138 -421 80 -109 371 -126 489 -29 55 45 88
128 209 512 157 501 272 810 432 1165 156 343 316 640 490 903 131 199 311
413 330 393 12 -12 8 -334 -6 -486 -17 -190 -71 -610 -135 -1055 -131 -906
-164 -1284 -137 -1564 34 -346 139 -501 381 -562 86 -22 287 -17 385 10 164
44 333 151 513 325 101 97 252 268 335 378 l51 67 76 -72 c126 -123 242 -188
407 -229 75 -19 114 -23 268 -22 161 0 190 3 276 26 277 75 464 192 724 452
284 285 497 600 750 1106 232 463 440 1011 571 1499 24 91 47 168 51 172 5 4
55 28 112 53 254 112 651 359 903 562 37 30 69 54 72 54 2 0 -40 -91 -94 -202
-476 -982 -856 -2105 -995 -2936 -50 -305 -59 -412 -60 -707 0 -236 3 -292 18
-357 40 -170 112 -257 250 -300 59 -19 94 -23 192 -22 103 0 131 4 198 27 438
152 950 644 1316 1264 141 240 344 699 324 733 -29 48 -162 66 -243 34 -38
-15 -46 -25 -97 -128 -158 -315 -367 -646 -559 -886 -127 -158 -359 -399 -494
-512 -98 -83 -240 -185 -322 -231 l-47 -27 -11 37 c-48 174 -34 584 36 1043
173 1126 775 2765 1421 3867 45 79 83 154 83 167 0 59 -103 101 -229 94 -108
-7 -148 -28 -285 -158 -212 -199 -590 -518 -821 -692 -195 -146 -578 -398
-590 -387 -2 3 3 61 11 130 22 175 15 471 -15 588 -27 105 -81 210 -133 257
-22 20 -70 50 -107 67 -62 30 -75 32 -203 35 -125 4 -145 2 -230 -22 -209 -60
-382 -195 -524 -407 -184 -276 -261 -595 -196 -814 36 -120 123 -220 242 -278
132 -65 176 -72 432 -72 l227 0 -6 -25 c-3 -14 -34 -110 -68 -215 -217 -657
-519 -1294 -844 -1782 -151 -226 -263 -365 -421 -524 -152 -153 -273 -245
-405 -309 -114 -55 -189 -75 -242 -65 -108 20 -257 141 -338 274 -43 72 -105
207 -105 232 0 9 32 72 71 140 335 589 579 1323 645 1941 20 194 15 543 -11
658 -23 104 -67 191 -117 235 -105 89 -308 100 -464 25 -222 -108 -428 -527
-568 -1157 -85 -379 -111 -628 -111 -1053 0 -360 9 -460 61 -678 l24 -103 -42
-62 c-251 -373 -603 -755 -805 -874 l-45 -26 -19 24 c-25 31 -57 117 -77 204
-14 57 -17 126 -16 370 0 328 8 430 84 1025 21 168 57 447 79 620 58 453 72
615 78 878 8 321 -13 437 -95 518 -70 70 -213 105 -354 85 -154 -21 -262 -86
-419 -248 -227 -236 -468 -606 -713 -1093 -169 -335 -338 -730 -453 -1054 -21
-60 -40 -101 -42 -90 -2 10 -27 153 -56 318 l-53 299 68 193 c244 686 464
1551 569 2239 105 682 121 1320 42 1698 -60 289 -166 463 -328 540 -62 29 -78
32 -188 35 -71 3 -142 -1 -175 -8 -239 -52 -423 -277 -565 -691 -46 -135 -115
-401 -135 -519 -6 -36 -13 -76 -16 -89 l-5 -24 -312 7 c-313 6 -717 23 -723
29 -2 1 26 122 62 267 229 931 310 1329 286 1415 -20 71 -184 108 -300 67z
m1906 -667 c122 -139 192 -459 192 -885 0 -547 -116 -1298 -321 -2077 -63
-240 -190 -675 -196 -670 -11 12 -113 756 -142 1037 -36 350 -44 553 -37 915
3 187 10 359 14 383 7 41 10 44 64 66 70 29 137 68 161 94 48 53 -13 102 -127
104 -78 1 -75 -11 -45 162 57 335 158 644 260 792 41 60 105 124 123 124 8 0
32 -20 54 -45z m-952 -1392 c-28 -328 -34 -736 -16 -1018 32 -479 109 -1085
241 -1881 l49 -301 -51 -114 c-212 -470 -428 -819 -631 -1016 -68 -66 -173
-143 -195 -143 -27 0 -158 145 -206 228 -245 418 -372 1126 -402 2237 -15 570
58 1691 131 2018 l16 67 535 0 536 0 -7 -77z m6689 -209 c110 -144 124 -474
40 -914 -15 -77 -32 -146 -39 -154 -18 -24 -204 -77 -288 -83 l-78 -6 -49 49
c-31 31 -57 71 -72 109 -22 54 -24 74 -23 210 0 133 4 160 28 239 62 204 144
353 261 472 78 79 145 126 175 121 8 -1 28 -20 45 -43z m-10441 -873 c54 -16
102 -33 107 -38 5 -5 -2 -30 -16 -60 -14 -29 -86 -217 -160 -418 -399 -1084
-582 -1502 -810 -1846 -77 -115 -215 -279 -236 -279 -24 0 -78 146 -106 285
-24 124 -24 478 1 654 58 417 197 866 361 1167 134 246 302 437 447 509 148
73 237 78 412 26z m8287 -186 c20 -88 17 -435 -5 -600 -34 -255 -96 -522 -183
-790 -50 -155 -183 -496 -242 -620 l-38 -80 -6 125 c-12 211 16 638 59 895 43
261 111 546 176 735 70 204 198 445 218 409 4 -8 14 -41 21 -74z"/>
<path d="M12445 11664 c-290 -55 -652 -154 -1056 -288 -380 -126 -515 -183
-568 -240 -74 -79 82 -134 253 -90 33 9 143 45 244 81 101 36 184 64 186 62 1
-2 -4 -69 -11 -149 -25 -256 -21 -684 10 -1095 36 -473 65 -788 82 -905 16
-108 28 -125 101 -136 55 -8 108 0 140 21 23 15 24 20 24 137 0 232 -50 1395
-70 1638 -11 135 -27 317 -34 405 -8 88 -12 163 -9 167 2 4 88 34 191 67 466
150 756 221 897 221 103 0 158 19 163 58 3 18 -5 26 -45 45 -42 19 -67 22
-208 24 -135 2 -180 -2 -290 -23z"/>
<path d="M14486 11320 c-247 -31 -391 -102 -452 -221 -48 -95 -85 -291 -116
-602 -6 -70 -15 -132 -18 -137 -4 -7 -19 -5 -43 5 -46 19 -107 19 -222 0 -49
-8 -96 -15 -102 -15 -10 0 -13 27 -13 103 0 112 -24 462 -41 596 -25 202 -39
224 -153 229 -93 5 -131 -12 -145 -66 -29 -107 -64 -594 -60 -810 l4 -164
-195 -68 c-107 -38 -197 -66 -199 -64 -3 2 -8 62 -13 132 -9 132 -52 532 -68
636 -5 33 -16 66 -24 75 -20 19 -115 26 -160 11 -22 -7 -42 -22 -51 -40 -29
-56 -39 -208 -40 -592 l0 -377 -26 -15 c-33 -19 -55 -68 -42 -91 6 -9 27 -27
49 -39 l39 -21 21 -240 c38 -416 74 -669 104 -726 6 -11 26 -29 43 -39 46 -28
159 -28 205 0 33 20 34 22 29 78 -38 429 -66 977 -51 992 10 10 370 160 383
160 4 0 15 -172 24 -382 31 -658 44 -802 78 -830 75 -63 248 -39 272 37 5 17
12 318 14 677 l5 647 92 30 c50 16 129 41 176 56 47 14 90 28 96 31 7 3 8 -20
3 -73 -13 -140 -28 -443 -34 -703 -10 -429 7 -503 135 -567 116 -58 172 -68
395 -68 225 0 292 13 431 81 89 44 184 126 184 160 0 41 -42 59 -140 59 -80 0
-90 -3 -170 -42 -151 -75 -301 -93 -342 -43 -17 20 -18 49 -18 355 0 182 3
406 7 497 l6 166 91 31 c50 16 183 58 296 91 222 66 293 95 298 123 4 20 -50
47 -95 47 -15 0 -152 -31 -303 -69 -151 -39 -276 -68 -278 -67 -5 6 28 419 44
541 29 232 55 304 119 331 63 26 218 46 411 53 199 6 224 12 224 52 0 25 -58
53 -150 74 -88 19 -407 28 -514 15z"/>
<path d="M9890 11253 c-19 -2 -91 -15 -160 -29 -236 -48 -529 -161 -792 -305
-155 -85 -218 -134 -255 -196 -26 -44 -28 -56 -27 -143 0 -78 17 -175 92 -545
111 -547 195 -928 223 -1013 19 -58 25 -66 63 -83 73 -33 180 -18 205 29 16
30 14 258 -4 430 -8 81 -29 252 -46 380 -17 129 -29 235 -27 237 2 1 57 24
123 49 137 54 524 224 665 294 80 39 95 51 98 73 4 34 -30 49 -108 49 -46 0
-82 -9 -157 -39 -54 -21 -213 -83 -353 -136 -140 -54 -264 -101 -276 -105 -20
-8 -22 -3 -44 152 -13 92 -20 188 -18 226 4 63 6 67 50 106 55 50 148 106 333
202 237 123 432 194 634 230 73 13 101 23 124 44 25 22 28 29 19 47 -21 38
-82 53 -210 51 -64 0 -133 -3 -152 -5z"/>
<path d="M7169 10906 c-312 -86 -590 -438 -690 -875 -26 -112 -36 -349 -19
-462 32 -225 133 -425 288 -571 89 -83 181 -138 302 -179 89 -30 106 -33 261
-37 186 -5 264 6 396 58 295 113 536 428 619 807 26 116 23 333 -5 438 -26 99
-78 209 -135 290 -49 67 -418 433 -484 479 -32 22 -59 31 -114 37 -40 4 -89
12 -108 18 -47 15 -254 12 -311 -3z m285 -151 c27 -18 179 -195 346 -405 133
-167 174 -277 173 -465 0 -122 -17 -209 -63 -336 -89 -244 -280 -468 -460
-539 -100 -39 -168 -19 -277 84 -114 106 -192 244 -240 421 -24 91 -26 117
-27 285 0 154 4 202 22 285 64 295 194 533 357 653 53 39 65 43 101 39 22 -2
53 -12 68 -22z"/>
<path d="M3665 10131 c-605 -108 -1153 -547 -1590 -1276 -314 -522 -507 -1087
-576 -1690 -17 -141 -17 -560 0 -690 120 -954 630 -1447 1432 -1385 377 29
742 185 1099 470 126 101 388 361 524 520 144 169 415 509 583 735 l23 30 -5
-70 c-3 -38 -10 -142 -16 -230 -21 -329 -72 -751 -140 -1180 -38 -241 -112
-632 -120 -638 -2 -2 -157 -96 -344 -208 -1032 -618 -1543 -1050 -1905 -1606
-306 -469 -369 -912 -184 -1288 87 -178 225 -305 401 -368 157 -57 378 -62
548 -12 397 115 743 451 1087 1055 321 563 593 1334 798 2261 l21 96 302 181
c546 326 924 589 1197 833 l76 67 164 11 c286 19 516 83 795 221 88 44 220
117 293 164 72 47 132 84 132 82 0 -1 -11 -29 -24 -62 -39 -96 -153 -437 -201
-599 -127 -434 -213 -866 -246 -1243 -18 -207 -7 -600 21 -727 84 -390 263
-601 590 -696 95 -27 379 -38 499 -19 306 49 606 242 856 552 136 167 361 535
425 694 24 59 40 69 40 27 0 -16 11 -77 25 -138 105 -461 315 -740 659 -874
157 -62 272 -81 479 -81 252 0 417 35 626 131 222 103 463 314 610 534 163
245 282 550 335 860 21 121 39 377 32 446 l-5 56 122 79 c132 85 337 236 430
317 32 27 60 47 63 45 2 -3 -2 -50 -10 -104 -65 -436 -70 -802 -16 -1116 28
-163 63 -278 126 -407 50 -102 66 -125 143 -201 178 -177 399 -248 739 -237
177 6 260 20 403 67 435 145 832 525 1089 1042 159 320 243 658 257 1030 l6
167 126 98 c140 109 350 282 545 451 71 62 131 110 133 108 2 -1 -10 -122 -27
-267 -116 -1028 -144 -1503 -138 -2369 3 -471 5 -558 18 -578 8 -12 40 -35 70
-50 50 -24 66 -27 165 -27 129 0 187 15 230 58 l31 32 12 186 c15 223 34 394
67 589 142 843 523 1854 939 2490 42 63 76 107 76 98 0 -9 -11 -126 -25 -260
-54 -536 -85 -1098 -85 -1528 0 -314 9 -420 39 -460 10 -14 42 -35 72 -48 48
-20 68 -22 174 -19 100 2 127 6 162 25 75 39 67 21 193 472 136 487 334 984
531 1333 86 152 270 423 385 566 116 145 291 325 369 380 l48 35 -6 -75 c-10
-123 -26 -177 -312 -1014 -346 -1015 -529 -1761 -576 -2349 -15 -192 -7 -538
16 -666 33 -182 80 -304 142 -362 68 -65 207 -96 348 -79 123 15 181 46 291
155 259 260 549 806 770 1450 75 218 183 586 177 602 -18 48 -177 67 -243 28
-31 -18 -42 -40 -147 -298 -193 -477 -332 -775 -494 -1056 -84 -146 -210 -337
-283 -429 l-51 -65 -8 40 c-4 21 -11 149 -14 284 -8 370 28 684 133 1159 116
527 246 985 504 1781 205 632 244 812 206 943 -33 112 -126 177 -286 196 -158
20 -320 -15 -458 -97 -339 -203 -794 -788 -1088 -1397 -43 -89 -63 -122 -64
-104 0 40 18 349 41 689 33 479 19 563 -104 628 -49 26 -59 27 -187 27 -132 0
-136 -1 -202 -33 -151 -74 -365 -344 -610 -771 -97 -169 -248 -471 -323 -646
-26 -60 -49 -111 -50 -113 -3 -3 0 27 46 538 44 484 51 654 31 711 -16 46 -54
82 -117 111 -44 20 -66 23 -175 23 -204 0 -255 -25 -546 -270 -91 -77 -252
-211 -358 -298 l-191 -158 -12 28 c-90 207 -161 321 -259 419 -202 203 -482
294 -862 281 -396 -13 -729 -144 -967 -382 -82 -81 -178 -215 -215 -297 -19
-43 -22 -46 -68 -50 -82 -8 -148 -48 -272 -164 -185 -173 -653 -556 -664 -543
-2 2 -15 46 -30 96 -110 384 -343 642 -679 748 -352 112 -844 70 -1160 -98
-106 -56 -223 -151 -290 -234 -58 -73 -137 -205 -158 -264 l-12 -37 -77 5
c-54 4 -92 1 -131 -11 -94 -27 -102 -38 -139 -188 -63 -256 -237 -729 -393
-1064 -257 -553 -566 -985 -851 -1188 -95 -68 -222 -126 -290 -133 -49 -5 -64
-2 -120 26 -317 156 -420 750 -285 1641 67 443 181 901 361 1450 53 163 90
292 91 317 1 87 -80 128 -241 121 -118 -5 -146 -18 -347 -158 -443 -309 -680
-435 -950 -505 -148 -38 -149 -37 -59 58 340 361 506 703 492 1012 -13 263
-148 399 -409 413 -238 12 -438 -75 -639 -277 -237 -239 -390 -587 -390 -887
0 -212 61 -336 212 -434 l57 -37 -132 -110 c-234 -195 -468 -363 -788 -566
-91 -57 -174 -109 -185 -115 -19 -10 -19 0 17 216 105 639 153 1151 153 1652
1 311 1 316 -23 363 -17 35 -34 53 -64 69 -86 43 -261 42 -349 -3 -62 -32
-116 -92 -327 -362 -640 -822 -983 -1187 -1336 -1420 -268 -176 -549 -269
-728 -239 -115 19 -238 85 -342 184 -224 212 -369 548 -432 998 -21 153 -24
561 -5 725 46 400 147 782 301 1144 389 908 1037 1548 1627 1606 83 9 192 -7
287 -40 260 -90 494 -364 601 -704 35 -110 72 -301 85 -435 50 -506 -89 -1016
-373 -1381 -83 -106 -228 -235 -264 -235 -13 0 -49 86 -69 167 -35 141 -17
469 32 587 8 19 12 41 9 49 -16 41 -125 50 -194 15 -75 -38 -147 -165 -196
-343 -24 -90 -30 -331 -10 -418 31 -133 78 -196 186 -246 49 -23 70 -26 191
-29 115 -3 149 -1 213 17 153 42 278 121 417 261 340 344 532 916 491 1463
-48 643 -307 1113 -730 1326 -90 45 -251 97 -361 115 -131 22 -403 20 -536 -3z
m3604 -2906 c33 -67 40 -191 17 -306 -51 -251 -207 -510 -479 -795 -108 -113
-106 -112 -147 -6 -63 166 -42 403 57 642 95 230 265 433 428 511 71 34 86 29
124 -46z m8101 -577 c164 -60 292 -191 390 -402 42 -89 84 -226 98 -319 l9
-58 -56 -42 c-105 -77 -286 -189 -401 -247 -242 -121 -449 -172 -611 -150
-151 21 -331 142 -388 262 -100 210 26 576 272 786 201 172 487 243 687 170z
m-3436 -518 c103 -26 164 -61 252 -143 173 -162 278 -411 318 -758 l7 -55
-108 -52 c-312 -148 -569 -210 -818 -199 -302 13 -483 135 -526 355 -42 219
71 532 252 695 158 143 420 209 623 157z m3930 -717 c-75 -551 -313 -1033
-688 -1390 -299 -285 -595 -404 -781 -313 -178 86 -305 361 -357 770 -19 156
-16 567 6 770 10 91 19 166 20 168 2 1 37 -21 79 -48 194 -130 426 -190 727
-190 173 0 327 19 488 61 169 43 280 89 509 208 1 1 -1 -16 -3 -36z m-5026
-553 c223 -131 581 -197 940 -172 237 17 415 53 630 125 l102 35 0 -29 c0 -63
-33 -262 -65 -384 -117 -457 -378 -854 -683 -1039 -257 -156 -457 -165 -655
-30 -235 161 -389 513 -436 999 -14 148 -26 552 -17 598 l7 38 55 -51 c31 -27
86 -68 122 -90z m-6098 -735 c-178 -694 -396 -1288 -632 -1720 -284 -520 -550
-827 -836 -963 -61 -29 -89 -37 -134 -37 -50 0 -63 5 -115 41 -108 76 -197
215 -245 382 -19 65 -23 102 -23 242 0 104 5 185 13 220 64 264 205 533 420
800 99 124 318 348 457 468 155 133 435 342 670 498 196 130 477 305 482 300
1 -1 -24 -105 -57 -231z"/>
</g>
</svg>
