<?xml version="1.0" encoding="utf-8"?>
<!-- Generator: Adobe Illustrator 25.2.0, SVG Export Plug-In . SVG Version: 6.00 Build 0)  -->
<svg version="1.1" id="Layer_1" xmlns="http://www.w3.org/2000/svg" xmlns:xlink="http://www.w3.org/1999/xlink" x="0px" y="0px"
	 viewBox="0 0 2200 2200" style="enable-background:new 0 0 2200 2200;" xml:space="preserve">
<g>
	<path d="M703.57,1046.37c0,2.86-1.48,3.63-8.19,4.4c-4.88,0.51-97.36,5.4-122.27,6.43c-2.22,0.1-10.22,0.45-17.83,0.77
		c-7.58,0.35-16.29,0.74-19.31,0.83c-12.44,0.42-24.55,0.77-27.06,0.8c-2.44,0-2.63,0.03-2.35,0.55c0.16,0.32,4.82,5.56,10.35,11.66
		c28.73,31.75,53.08,58.9,53.24,59.45c0.22,0.64-0.84,0.29-2.22-0.74c-5.46-4.11-7.3-5.53-10.57-8.26
		c-2.02-1.7-15.78-12.76-30.53-24.58c-14.75-11.83-27.89-22.36-29.18-23.43c-1.29-1.03-2.38-1.83-2.44-1.77
		c-0.03,0.07-0.42,5.17-0.8,11.38c-0.83,13.34-1.9,28.21-2.12,29.56c-0.1,0.51-0.45,5.08-0.8,10.12c-0.35,5.04-0.8,10.44-0.96,12.05
		c-0.16,1.57-0.67,8.22-1.12,14.78c-0.45,6.52-1.03,14.14-1.29,16.87c-0.26,2.73-0.61,7.29-0.8,10.12
		c-0.19,2.83-0.61,8.16-0.96,11.89c-0.32,3.7-0.67,8.19-0.8,9.96c-0.1,1.77-0.48,6.39-0.8,10.28c-0.35,3.89-0.77,9.32-0.96,12.05
		c-0.19,2.73-0.48,6.43-0.64,8.19c-0.19,1.77-0.55,5.66-0.8,8.68c-0.51,5.75-0.71,7.01-1.57,11.41c-0.84,4.27-1.12,5.04-2.02,5.75
		c-1.09,0.87-2.96,0.87-4.05,0.03c-0.96-0.77-1.35-1.86-1.8-5.3c-0.58-4.69-0.61-5.17-1.32-23.94c-0.19-4.85-0.38-10.44-0.48-12.37
		c-0.1-1.96-0.29-7.52-0.48-12.37c-0.35-9.61-0.58-15.39-0.8-21.37c-0.1-2.12-0.32-7.9-0.48-12.85c-0.19-4.95-0.38-10.67-0.48-12.69
		c-0.06-2.03-0.22-6.17-0.32-9.16c-0.1-3.02-0.22-7.26-0.32-9.48c-0.1-2.22-0.22-6.49-0.32-9.48c-0.1-3.02-0.22-7.42-0.32-9.8
		c-0.1-2.38-0.22-7.29-0.32-10.93c-0.1-3.63-0.26-8.32-0.32-10.44c-0.06-2.12-0.22-9.13-0.35-15.58c-0.1-6.46-0.26-11.76-0.29-11.83
		c-0.06-0.06-7.1,5.5-15.65,12.37c-8.52,6.88-22.11,17.77-30.14,24.2c-8.03,6.43-16.29,13.08-18.32,14.78
		c-3.28,2.73-5.11,4.15-10.57,8.26c-3.02,2.25-2.99,0.55,0.03-2.89c4.11-4.69,9.7-11.02,10.67-12.11c1.83-1.99,8.1-9.03,9.13-10.19
		c0.42-0.52,3.98-4.43,5.69-6.33c0.19-0.19,2.12-2.38,4.34-4.85c2.22-2.44,4.88-5.43,5.94-6.59c1.06-1.16,3.66-4.05,5.78-6.43
		c3.66-4.08,6.01-6.72,8.97-9.96c0.74-0.8,2.54-2.83,4.05-4.5c1.51-1.67,3.12-3.47,3.6-4.02c0.77-0.84,0.8-0.96,0.32-1.16
		c-0.29-0.1-4.37-0.29-9.06-0.42c-10.89-0.26-14.78-0.42-31.65-1.19c-7.58-0.32-15.62-0.67-17.83-0.77
		c-24.9-1.03-117.38-5.91-122.27-6.43c-6.72-0.77-8.19-1.54-8.19-4.4c0-2.28,1.12-2.86,7.39-3.92c5.43-0.9,7.71-1.12,17.35-1.8
		c5.2-0.35,13.75-0.93,18.96-1.29c5.2-0.35,11.95-0.77,14.94-0.96c3.02-0.16,7.2-0.45,9.32-0.64c2.12-0.16,7.68-0.51,12.37-0.8
		c4.69-0.26,9.03-0.55,9.64-0.64c0.61-0.1,6.33-0.45,12.69-0.8c6.36-0.35,14.46-0.87,17.99-1.13c3.53-0.26,9.03-0.61,12.21-0.8
		c3.18-0.19,8.61-0.55,12.05-0.8c3.44-0.26,10.54-0.67,15.75-0.96c5.2-0.26,13.5-0.71,18.41-0.96c4.91-0.26,10.22-0.48,11.79-0.48
		c1.61,0,2.89-0.1,2.89-0.26c0-0.13-1.38-1.73-3.12-3.6c-17.22-18.73-44.02-48.49-51.38-57.04c-5.72-6.65-10.09-12.37-10.09-13.17
		c0-0.1,0.35-0.16,0.77-0.16c1.77,0,5.14,2.02,10.64,6.39c3.53,2.79,17.61,14.91,21.72,18.7c2.06,1.9,4.92,4.4,6.33,5.56
		c6.33,5.24,37.76,30.4,37.85,30.3c0.07-0.06,0.61-5.94,1.25-13.11c2.12-24.33,5.2-55.24,11.41-115.17
		c4.72-45.24,4.6-44.18,5.49-49.64c0.67-4.34,1.32-6.2,2.35-6.94c0.35-0.26,1.29-0.45,2.06-0.45c1.54,0,2.79,0.93,3.08,2.31
		c0.22,1.09,1.09,8.13,1.32,10.54c0.32,4.02,1.64,99.9,1.99,145.3c0.1,15.17,0.26,27.57,0.32,27.57c0.03,0,7.07-5.62,15.62-12.47
		c8.51-6.84,22.07-17.74,30.11-24.16c8.03-6.43,16.29-13.08,18.32-14.78c3.28-2.73,5.11-4.15,10.57-8.26
		c2.22-1.67,2.92-1.41,1.48,0.55c-0.45,0.61-0.74,1.32-0.64,1.61c0.1,0.26-0.45,1.25-1.25,2.25c-3.63,4.63-32.23,35.06-56.81,60.44
		c-5.88,6.11-7.84,8.29-7.46,8.45c0.29,0.09,2.38,0.19,4.66,0.19c2.25,0,8.13,0.22,13.05,0.48c4.92,0.26,13.21,0.71,18.41,0.96
		c5.2,0.29,12.31,0.71,15.74,0.96c3.44,0.26,8.87,0.61,12.05,0.8c3.18,0.19,8.68,0.55,12.21,0.8c3.53,0.26,11.63,0.77,17.99,1.12
		c6.36,0.35,12.08,0.71,12.69,0.8c0.61,0.1,4.95,0.39,9.64,0.64c4.69,0.29,10.25,0.64,12.37,0.8c2.12,0.19,6.33,0.48,9.32,0.64
		c3.02,0.19,9.74,0.61,14.94,0.96s13.75,0.93,18.96,1.29c9.64,0.67,11.92,0.9,17.35,1.8
		C702.45,1043.51,703.57,1044.09,703.57,1046.37z M1932.65,1042.45c-5.43-0.9-7.71-1.12-17.35-1.8c-5.2-0.35-13.75-0.93-18.96-1.29
		s-11.92-0.77-14.94-0.96c-2.99-0.16-7.2-0.45-9.32-0.64c-2.12-0.16-7.68-0.51-12.37-0.8c-4.69-0.26-9.03-0.55-9.64-0.64
		c-0.61-0.1-6.33-0.45-12.69-0.8c-6.36-0.35-14.46-0.87-17.99-1.12c-3.53-0.26-9.03-0.61-12.21-0.8c-3.18-0.19-8.61-0.55-12.05-0.8
		c-3.44-0.26-10.54-0.67-15.74-0.96c-5.2-0.26-13.5-0.71-18.41-0.96c-4.91-0.26-10.8-0.48-13.05-0.48c-2.28,0-4.37-0.1-4.66-0.19
		c-0.38-0.16,1.57-2.35,7.46-8.45c24.58-25.38,53.18-55.81,56.81-60.44c0.8-1,1.35-1.99,1.25-2.25c-0.1-0.29,0.19-1,0.64-1.61
		c1.45-1.96,0.74-2.22-1.48-0.55c-5.46,4.11-7.29,5.53-10.57,8.26c-2.02,1.7-10.28,8.35-18.32,14.78
		c-8.03,6.43-21.59,17.32-30.11,24.16c-8.55,6.85-15.58,12.47-15.62,12.47c-0.06,0-0.22-12.4-0.32-27.57
		c-0.35-45.4-1.67-141.29-1.99-145.3c-0.22-2.41-1.09-9.45-1.32-10.54c-0.29-1.38-1.54-2.31-3.08-2.31c-0.77,0-1.7,0.19-2.06,0.45
		c-1.03,0.74-1.67,2.6-2.35,6.94c-0.9,5.46-0.77,4.4-5.49,49.64c-6.2,59.93-9.29,90.84-11.41,115.17
		c-0.64,7.16-1.19,13.04-1.25,13.11c-0.09,0.1-31.52-25.06-37.85-30.3c-1.42-1.16-4.28-3.66-6.33-5.56
		c-4.11-3.79-18.19-15.91-21.72-18.7c-5.49-4.37-8.87-6.39-10.64-6.39c-0.42,0-0.77,0.06-0.77,0.16c0,0.8,4.37,6.52,10.09,13.17
		c7.36,8.55,34.16,38.3,51.38,57.04c1.73,1.86,3.12,3.47,3.12,3.6c0,0.16-1.29,0.26-2.89,0.26c-1.57,0-6.88,0.22-11.79,0.48
		c-4.92,0.26-13.21,0.71-18.41,0.96c-5.2,0.29-12.31,0.71-15.74,0.96c-3.44,0.26-8.87,0.61-12.05,0.8
		c-3.18,0.19-8.68,0.55-12.21,0.8c-3.53,0.26-11.63,0.77-17.99,1.13c-6.36,0.35-12.08,0.71-12.69,0.8c-0.61,0.1-4.95,0.38-9.64,0.64
		c-4.69,0.29-10.25,0.64-12.37,0.8c-2.12,0.19-6.3,0.48-9.32,0.64c-2.99,0.19-9.74,0.61-14.94,0.96c-5.2,0.35-13.75,0.93-18.96,1.29
		c-9.64,0.67-11.92,0.9-17.35,1.8c-6.27,1.06-7.39,1.64-7.39,3.92c0,2.86,1.48,3.63,8.19,4.4c4.88,0.51,97.36,5.4,122.27,6.43
		c2.22,0.1,10.25,0.45,17.83,0.77c16.87,0.77,20.76,0.93,31.65,1.19c4.69,0.13,8.77,0.32,9.06,0.42c0.48,0.19,0.45,0.32-0.32,1.16
		c-0.48,0.55-2.09,2.35-3.6,4.02c-1.51,1.67-3.31,3.7-4.05,4.5c-2.96,3.24-5.3,5.88-8.97,9.96c-2.12,2.38-4.72,5.27-5.78,6.43
		c-1.06,1.16-3.73,4.15-5.94,6.59c-2.22,2.47-4.15,4.66-4.34,4.85c-1.7,1.9-5.27,5.82-5.69,6.33c-1.03,1.16-7.3,8.19-9.13,10.19
		c-0.96,1.09-6.56,7.42-10.67,12.11c-3.02,3.44-3.05,5.14-0.03,2.89c5.46-4.11,7.3-5.53,10.57-8.26c2.03-1.7,10.28-8.35,18.32-14.78
		c8.03-6.43,21.63-17.32,30.14-24.2c8.55-6.87,15.58-12.43,15.65-12.37c0.03,0.07,0.19,5.37,0.29,11.83
		c0.13,6.46,0.29,13.46,0.35,15.58c0.06,2.12,0.22,6.81,0.32,10.44c0.1,3.63,0.22,8.55,0.32,10.93c0.1,2.38,0.22,6.78,0.32,9.8
		c0.1,2.99,0.22,7.26,0.32,9.48c0.1,2.22,0.22,6.46,0.32,9.48c0.1,2.99,0.26,7.13,0.32,9.16c0.1,2.03,0.29,7.74,0.48,12.69
		c0.16,4.95,0.39,10.73,0.48,12.85c0.22,5.98,0.45,11.76,0.8,21.37c0.19,4.85,0.38,10.41,0.48,12.37c0.1,1.93,0.29,7.52,0.48,12.37
		c0.71,18.77,0.74,19.25,1.32,23.94c0.45,3.44,0.83,4.53,1.8,5.3c1.09,0.84,2.96,0.84,4.05-0.03c0.9-0.71,1.19-1.48,2.02-5.75
		c0.87-4.4,1.06-5.66,1.57-11.41c0.26-3.02,0.61-6.91,0.8-8.68c0.16-1.77,0.45-5.46,0.64-8.19c0.19-2.73,0.61-8.16,0.96-12.05
		c0.32-3.89,0.71-8.51,0.8-10.28c0.13-1.77,0.48-6.27,0.8-9.96c0.35-3.73,0.77-9.06,0.96-11.89c0.19-2.83,0.55-7.39,0.8-10.12
		c0.26-2.73,0.84-10.35,1.29-16.87c0.45-6.56,0.96-13.21,1.12-14.78c0.16-1.61,0.61-7.01,0.96-12.05c0.35-5.04,0.71-9.61,0.8-10.12
		c0.22-1.35,1.29-16.23,2.12-29.56c0.39-6.2,0.77-11.31,0.8-11.38c0.07-0.06,1.16,0.74,2.44,1.77c1.28,1.06,14.43,11.6,29.18,23.43
		c14.75,11.83,28.5,22.88,30.53,24.58c3.28,2.73,5.11,4.15,10.57,8.26c1.38,1.03,2.44,1.38,2.22,0.74
		c-0.16-0.55-24.52-27.7-53.25-59.45c-5.53-6.11-10.19-11.34-10.35-11.66c-0.29-0.51-0.1-0.55,2.34-0.55
		c2.51-0.03,14.62-0.38,27.06-0.8c3.02-0.1,11.73-0.48,19.31-0.83c7.61-0.32,15.62-0.67,17.83-0.77
		c24.9-1.03,117.38-5.91,122.27-6.43c6.72-0.77,8.19-1.54,8.19-4.4C1940.04,1044.09,1938.91,1043.51,1932.65,1042.45z"/>
	<path d="M311.32,1571.53c6,7.5,15.75,15.37,15.75,23.25c0,20.62-5.25,33-15.75,37.87c-7.88,3.75-29.25,5.63-64.13,5.63
		c-27.75,0-46.5-2.62-55.88-8.25c-9.38-5.62-13.88-16.5-13.88-32.62c0-3.75,2.25-7.88,7.13-12.37c5.63-5.63,9-9,9.75-10.87
		c3.75-7.13,8.25-25.5,13.12-54.38c4.88-27.75,8.25-52.5,10.13-74.63c0.38-5.62,1.13-19.13,1.5-40.5c-3.75-1.5-5.63-2.25-5.63-2.25
		c-3.37,0-6,3-8.62,9c-3.38,8.62-6.75,14.25-9.38,16.87c-5.62,6-14.25,9-25.12,9c-9.38,0-15.38-3-18-9
		c-1.87-3.75-2.63-10.87-2.63-21.75c0-11.25,3.38-22.88,10.13-35.25c7.5-14.25,16.13-21.38,25.88-21.38c3.38,0,8.63,1.13,15.75,3
		c7.13,1.88,12.38,2.63,15.75,2.63c42,0,70.13-0.75,84.37-1.88c2.63-0.37,7.87-4.13,11.25-4.13c10.5,0,19.5,6.75,27,20.63
		c6.38,11.62,9.75,23.62,9.75,35.25c0,21.38-7.87,31.88-24,31.88c-9,0-16.5-6-22.13-17.63c-5.62-12-11.62-18-17.25-18
		c0,0-1.13,0.37-3.75,1.5l5.25,47.63l1.87,13.87c3,22.13,6,43.5,10.13,64.5C304.2,1552.77,307.57,1567.4,311.32,1571.53z
		 M613.59,1613.15c4.5,4.87,6.75,8.62,6.75,12c0,2.62-2.25,4.87-6.38,7.5l-9,5.63c-4.5,0.37-12,1.13-22.12,3
		c-8.63,1.5-15.75,2.25-21.75,2.25c-25.88,0-43.88-10.13-53.62-30.75c-4.87-10.13-9.38-31.13-13.5-63.38
		c-3.75-27-10.13-44.62-19.12-52.5c-3-2.62-6.75-3.38-10.88-2.25c-7.12,1.88-10.13,6-9,12.38c5.25,35.62,10.13,57.38,16.13,64.5
		c6,7.5,15.38,15.37,15.38,23.25c0,20.62-5.25,33-15.38,37.87c-7.87,3.75-29.25,5.63-64.13,5.63c-28.5,0-47.62-2.62-57-7.87
		c-9.37-5.63-13.5-16.5-12.75-33c0.38-3.75,2.62-7.88,7.13-12.37c5.62-5.63,8.62-9,9.75-10.87c3.38-7.13,7.87-25.13,12.75-54.38
		c4.5-26.25,7.87-51,10.12-74.63c-0.75-25.5-4.12-40.88-10.12-45.75c-2.25-1.13-5.25-3-9.38-5.63c-3-3-4.5-7.13-4.5-12.75
		c0-10.13,6.38-18,19.5-22.88c10.5-4.13,23.62-6.75,39.75-6l15.75,0.75c22.13-1.13,36.38-1.5,42-1.5c20.63,0,39,4.13,54.75,12.37
		c19.5,10.13,29.25,24.38,29.25,43.5c0,23.62-12.75,42.75-38.25,56.62c2.62,7.87,7.87,13.5,16.12,17.25
		c12.38,5.63,18.38,8.25,18.75,8.25c10.13,8.62,18,17.25,22.88,26.62c4.5,8.25,8.25,19.5,11.25,33.38
		c4.13,20.62,10.5,38.25,19.12,52.88C604.21,1603.4,607.59,1606.78,613.59,1613.15z M477.83,1418.52c0-18.37-7.12-27.75-21.75-27.75
		c-6.37,0-13.13,5.63-12,12l3,38.62c0.38,6.37,2.63,9.75,6.75,9.75c7.5,0,13.5-3.75,18-10.87
		C475.96,1433.9,477.83,1426.4,477.83,1418.52z M873.85,1357.02c-7.87-3.38-16.87-4.87-27-4.87c-39.38,0-59.25,9.75-59.25,28.88
		c0,6.75,3,12,9.37,15.38c7.13,4.12,11.25,12.75,13.13,25.87c1.5,10.87,2.25,25.5,2.25,44.62c0,37.13-10.13,50.25-46.13,50.25
		c-21.37,0-35.25-5.62-41.62-17.25c-4.13-7.88-6.38-23.63-6.75-46.5l0.38,0.75c0-23.63,2.25-40.13,6.38-50.25
		c1.13-2.62,4.87-6.75,10.5-11.63c4.13-3.75,6.38-8.25,6.38-13.87c0-17.63-20.62-26.25-61.5-26.25c-13.5,0-25.12,1.87-34.88,5.25
		c-14.25,4.87-21.37,12.75-21.37,23.63c0,5.62,2.25,9.75,6.37,13.13c5.63,4.5,9.75,8.62,11.63,12.75c4.12,8.63,6,21.75,6,40.13
		c0,8.25-0.38,20.62-1.5,37.13c-0.75,16.5-1.13,28.88-1.13,37.13c0,43.13,9.38,73.13,28.13,90.37c18,16.87,49.13,25.13,93.38,25.13
		c24.37,0,47.25-10.87,68.63-32.62c21.38-22.13,31.88-45,31.88-69.38c0-8.62-0.37-21-0.75-37.88c-0.38-16.88-0.38-29.62-0.38-38.25
		c0-26.62,2.25-45.37,6.75-56.25c1.12-2.63,4.5-6.38,10.13-11.25c4.12-3.75,6.37-8.25,6.37-13.87
		C889.23,1368.27,883.98,1361.52,873.85,1357.02z M1101.49,1530.27c0-8.62-6.37-21.38-13.87-21.38c-2.62,0-6,3-10.13,9
		c-4.13,6-9,9-15.38,9c-1.12,0-2.62,0-4.5-0.37c-3.38-1.13-11.62,1.5-14.62,1.5c-36.38,0-54.38-15.75-54.38-46.88
		c0-13.13,4.13-19.87,12-19.87c7.13,0,12.38,3,15.75,9.37c3.75,6.38,7.5,9.38,11.63,9.38c6.37,0,10.87-5.62,14.25-16.87
		c2.25-7.87,3.38-16.5,3.38-25.13c0-5.62-1.87-8.25-5.62-8.25c-4.13,0-10.5,8.25-14.63,8.25c-10.13,0-18.75-2.25-25.88-6.75
		c-8.25-5.25-12.37-12-12.37-20.25c0-1.88,0.37-3.38,0.75-5.25c1.13-4.87,2.62-7.87,5.25-9h8.25c18,0,31.5,3.38,40.88,9.75
		c3.75,2.62,9,8.25,16.13,17.63c4.87,6.37,10.5,9.37,17.25,9.37c7.13,0,12.38-3.37,16.5-9.75c3-5.25,4.5-11.62,4.5-19.5
		c0-12.37-2.25-23.63-6.75-34.12c-6-13.5-14.25-20.25-25.13-20.25c-7.87,0-21.75,0.75-40.88,1.87c-19.13,1.13-33,1.88-41.63,1.88
		c-6.37,0-21.75-1.5-27.75-1.5c-15.75-0.38-28.88,1.87-39.75,6c-13.13,4.87-19.5,12.75-19.5,22.88c0,5.62,1.5,9.75,4.5,12.75
		c4.13,2.63,7.13,4.5,9.38,5.63c4.5,3.38,7.87,11.63,9,24.75c0.75,6.37,0,13.5-0.37,21.75l-3,96.75c-0.75,22.88-3,37.13-6.38,42.75
		l-7.13,11.25c-0.75,1.5-4.12,5.25-10.5,11.63c-3.75,3.75-5.62,7.88-5.62,12.75c0,12,6.37,18.37,19.12,18.37l70.5,0.37
		c10.13,0,20.62,0.38,31.5,0c13.13-0.37,23.25-0.37,30.75-0.37c27,0,42.75-1.5,47.62-4.87c12.38-9,18.75-28.88,18.75-59.25
		c0-6.75-0.75-15.38-1.13-25.5C1101.49,1539.28,1101.49,1532.9,1101.49,1530.27z M1511.39,1578.27c3,5.25,4.5,12.37,3.75,21.75
		c-0.75,14.62-11.63,24.75-31.5,30.75c-13.13,4.12-28.88,6.37-47.62,6.37s-32.25-1.5-40.5-4.87c-13.87-5.25-20.62-15.38-20.62-30.75
		c0-5.62,0.75-12.37,2.62-19.5c11.25-11.25,16.88-28.5,16.88-51.75c0-7.87-5.63-14.25-16.5-18.37c-8.25-3.38-17.25-4.87-27-4.87
		c0,0-3.38,0.75-10.5,1.87c-9.38,5.63-13.88,16.13-13.88,31.5c0,11.25,2.25,21,7.13,29.25c1.87,3,6.75,8.25,13.87,16.12
		c4.88,5.25,7.13,10.13,7.13,14.63c0,17.25-9,28.5-27,33.37c-8.62,2.63-24.75,3.75-47.62,3.75c-34.5,0-51.38-8.62-51.75-25.87
		c0-15.38,6.37-27.75,19.88-37.13c15.75-11.25,29.62-35.25,41.62-72.37c10.13-32.25,15.38-60.38,15.38-84.38
		c0-9.37-1.5-16.88-4.87-23.25c-1.87-3.38-4.5-7.13-8.63-10.87c-3.37-3-4.87-5.25-4.87-6.75c0-8.25,13.5-15.38,40.13-21.37
		c22.88-4.88,39.38-7.13,49.88-6.01c17.63,1.88,31.13,7.13,40.5,16.13c4.12,4.12,10.5,13.88,18.75,29.25
		c2.62,4.87,5.62,14.62,9.37,29.25c14.63,57.75,29.25,101.25,43.88,130.5c1.87,4.13,5.62,8.63,11.25,13.13
		C1506.14,1571.9,1509.52,1575.65,1511.39,1578.27z M1382.39,1456.02c0-1.87-2.25-8.62-6.75-19.87
		c-4.13-10.13-9.75-15.38-16.87-15.38c-4.13,0-8.62,5.25-13.5,16.12c-4.13,9.38-6,16.5-6,21.38c0,2.25,3.37,3.38,9.75,3.38
		c3,0,12-1.13,15-1.13c4.87,0,8.25,0.37,9.37,1.13C1379.39,1461.27,1382.39,1459.4,1382.39,1456.02z M1789.66,1360.02
		c-9.37-4.87-24.75-7.5-46.88-7.87c-16.13-0.38-29.25,1.87-39.75,6c-13.13,4.87-19.5,12.75-19.5,22.88c0,5.62,1.5,9.75,4.13,12.75
		c4.13,2.63,7.13,4.5,9.38,5.63c9.38,7.88,16.5,18.75,20.62,32.62c1.13,6.75,1.87,13.13,2.63,19.13l0.37,0.75v1.87
		c0.75,5.63,1.13,10.13,1.13,12.75c0,7.13-1.5,12.75-4.5,16.5c-3,1.13-5.63,0.37-8.25-1.88c-10.13-9.75-20.25-30.37-30.75-61.87
		c-9.38-29.25-20.25-47.63-31.88-55.5c-7.88-7.13-25.13-11.25-52.5-11.62c-16.13-0.38-29.25,1.87-39.75,6
		c-13.13,4.87-19.5,12.75-19.5,22.88c0,5.62,1.5,9.75,4.5,12.75c4.13,2.63,7.13,4.5,9.37,5.63c8.25,6.75,11.63,22.12,10.13,45.75
		c-1.13,16.13-3,34.13-5.62,54c-3.38,24.38-8.62,51-16.13,79.5l-8.62,8.63c-3.38,3.37-4.88,6.75-4.88,10.12v7.13
		c0,5.63,1.5,10.87,4.13,15c3,6,9,10.5,18.38,13.87c10.5,4.12,20.62,6,30.75,6c25.88,0,42.75,0,50.63-1.5
		c16.87-0.38,28.5-3,34.88-6.37c7.87-4.5,12-12.38,12-23.25c0-4.12-0.38-8.62-1.13-13.5c-0.75-4.13-3.38-8.25-6.75-12.37l-8.63-10.5
		c-2.62-3.38-6.37-13.5-10.87-30c-4.87-16.88-6.75-28.13-6.75-34.5c0-4.12,1.5-6.37,4.13-6.37c8.62,0,18,12,28.5,35.62
		c16.88,37.88,27,59.63,30.75,66c14.63,23.63,31.13,35.63,49.5,35.63c16.5,0,27.38-6,32.62-17.63c3.38-7.5,4.88-21,4.88-40.5
		c0-14.63-3.38-35.25-10.13-61.88c-7.13-27.75-11.25-48.37-11.63-62.25c0-3.75,0-5.25,0-4.87c0-11.62,1.5-22.12,6.75-31.13l9-16.12
		c4.5-10.5,16.5-10.87,16.5-25.5C1800.91,1370.15,1797.16,1364.15,1789.66,1360.02z M1881.18,1638.65c-2.62-0.05-4.49-0.1-5.75-0.14
		C1877.33,1638.56,1879.19,1638.62,1881.18,1638.65z M2050.31,1504.77c0,39.75-10.13,71.63-30,95.25
		c-21.38,25.5-51.75,38.25-90.38,38.25c-44.19,0-62.22,0-54.5,0.24c-21.71-0.57-37.47-2.38-47.13-5.49
		c-9.38-3-15.38-5.25-17.63-6.75c-4.5-2.62-6.37-7.13-5.62-12.75c1.13-11.62,4.5-20.62,9.75-26.25c7.13-7.5,11.63-14.25,13.88-20.63
		c8.25-23.62,12.38-64.12,12-121.13c0-25.12-3.37-40.5-10.13-46.12c-2.25-1.13-5.25-3-9.37-5.63c-3-3-4.5-7.13-4.5-12.75
		c0-10.13,6.38-18,19.5-22.88c10.87-4.13,24-6.38,39.75-6c3.38,0,10.13,0.37,20.62,1.13c48.75,3.37,85.5,15,109.88,35.62
		C2035.68,1413.65,2050.31,1452.27,2050.31,1504.77z M1968.55,1468.4c0-18.75-2.25-34.5-7.12-47.25
		c-6.75-18.75-17.63-28.5-32.63-29.25c-1.13,0.75-3,1.87-4.87,3.75c-5.62,4.12-7.87,11.25-9.75,20.25c0,44.62,0.37,72.37,0.75,82.5
		c0.38,20.62,6.38,31.12,17.62,31.12c13.13,0,22.5-7.5,28.88-22.12C1966.3,1496.52,1968.55,1483.77,1968.55,1468.4z"/>
	<path d="M610.37,1704.83c-10.76-0.51-21-0.51-31.25,0.51c-14.86,1.02-23.56,2.05-25.61,2.56c-4.89,0-8.81,0.01-11.39,0.46
		c0-0.13-2.58-0.46-7.56-0.46c-21.52-1.03-39.44,2.56-54.3,8.2c-17.93,6.66-26.64,17.42-26.64,31.25c0,7.69,2.05,13.32,6.15,17.42
		c5.64,3.59,9.73,6.15,12.81,7.68c8.71,7.18,12.81,21,12.81,41.49v33.81c-9.73,89.13-19.98,143.43-29.71,163.41
		c-1.54,2.56-6.15,7.17-13.83,14.85c-6.15,6.15-9.22,11.79-9.22,16.9c0,36.37,12.29,49.18,58.91,54.3c21,2.05,39.44,4.1,55.84,4.1
		s29.71-1.54,39.44-4.1c38.93-3.59,49.69-15.37,49.69-57.88c0-10.76-12.81-21.52-21-31.76c-7.17-8.2-14.34-39.95-23.05-93.23
		c6.66-5.64,23.56-10.25,50.71-12.81c27.15-3.07,46.1-9.22,57.88-18.44c18.44-14.34,27.66-39.95,27.66-76.32
		C728.7,1741.72,689.26,1707.91,610.37,1704.83z M617.03,1831.36c-6.66,10.25-15.37,15.37-26.64,15.37
		c-3.07-0.51-5.12-0.51-5.63-1.03c-8.2-4.09-6.66-13.31-7.17-21.51c-0.51-7.68-1.03-23.56-1.03-47.64c0-11.78,4.1-17.41,12.81-17.41
		c24.08,0,36.37,13.83,36.37,40.98C625.74,1811.89,622.67,1822.14,617.03,1831.36z M1068.32,1776.55
		c-6.15,14.86-9.22,40.47-9.22,76.84c0,11.78,0,29.2,0.51,52.25c0.51,23.05,1.03,39.95,1.03,51.74c0,33.3-14.35,64.55-43.54,94.77
		c-29.2,29.71-60.45,44.56-93.74,44.56c-60.44,0-102.96-11.27-127.55-34.32c-25.61-23.57-38.42-64.55-38.42-123.45
		c0-11.27,0.51-28.17,1.54-50.71c1.54-22.54,2.05-39.44,2.05-50.71c0-25.1-2.56-43.03-8.2-54.81c-2.56-5.64-8.2-11.27-15.88-17.42
		c-5.64-4.61-8.71-10.24-8.71-17.93c0-14.85,9.73-25.61,29.2-32.27c13.32-4.61,29.2-7.17,47.64-7.17
		c55.84,0,84.01,11.78,84.01,35.86c0,7.69-3.07,13.83-8.71,18.96c-7.69,6.66-12.81,12.29-14.35,15.88
		c-5.63,13.83-8.71,36.37-8.71,68.64l-0.51-1.03c0.51,31.25,3.59,52.77,9.22,63.52c8.71,15.88,27.66,23.56,56.86,23.56
		c49.18,0,63.01-17.93,63.01-68.64c0-26.13-1.03-46.1-3.07-60.96c-2.56-17.93-8.2-29.71-17.93-35.35
		c-8.71-4.61-12.81-11.78-12.81-21c0-26.12,27.15-39.44,80.94-39.44c13.83,0,26.12,2.05,36.88,6.66c13.83,6.15,21,15.37,21,27.67
		c0,7.68-3.07,13.83-8.71,18.95C1074.46,1767.84,1069.85,1772.96,1068.32,1776.55z M1437.63,2049.58
		c-11.78-19.98-20.49-44.05-26.12-72.23c-4.1-18.95-9.22-34.32-15.37-45.59c-6.66-12.81-17.42-24.59-31.25-36.37
		c-0.51,0-8.71-3.59-25.61-11.27c-11.27-5.12-18.44-12.81-22.03-23.56c34.83-18.95,52.25-45.08,52.25-77.35
		c0-26.13-13.32-45.59-39.95-59.42c-21.52-11.27-46.62-16.9-74.79-16.9c-7.68,0-27.15,0.51-57.37,2.05l-21.51-1.03
		c-22.03-1.03-39.96,2.56-54.3,8.2c-17.93,6.66-26.64,17.42-26.64,31.25c0,7.69,2.05,13.32,6.15,17.42
		c5.63,3.59,9.73,6.15,12.81,7.68c8.2,6.66,12.81,27.67,13.83,62.5c-3.07,32.27-7.68,66.08-13.83,101.94
		c-6.66,39.95-12.81,64.54-17.42,74.28c-1.54,2.56-5.64,7.17-13.32,14.85c-6.15,6.15-9.22,11.79-9.73,16.9
		c-1.03,22.54,4.61,37.39,17.42,45.08c12.81,7.18,38.93,10.76,77.86,10.76c47.64,0,76.84-2.56,87.6-7.68
		c13.83-6.66,21-23.57,21-51.74c0-10.76-12.8-21.52-21-31.76c-8.2-9.73-14.86-39.44-22.03-88.11c-1.54-8.7,2.56-14.34,12.29-16.9
		c5.64-1.54,10.76-0.51,14.86,3.07c12.29,10.76,21,34.83,26.12,71.71c5.64,44.06,11.78,72.74,18.44,86.57
		c13.32,28.17,37.91,42.01,73.25,42.01c8.2,0,17.93-1.03,29.71-3.07c13.83-2.56,24.07-3.59,30.22-4.1l12.29-7.68
		c5.64-3.59,8.71-6.66,8.71-10.25c0-4.61-3.07-9.73-9.22-16.39C1442.75,2055.72,1438.14,2051.11,1437.63,2049.58z M1257.32,1828.29
		c-6.15,9.73-14.34,14.85-24.59,14.85c-5.63,0-8.71-4.61-9.22-13.32l-4.1-52.76c-1.54-8.71,7.68-16.39,16.39-16.39
		c19.98,0,29.71,12.81,29.71,37.91C1265.51,1809.33,1262.95,1819.58,1257.32,1828.29z M1764.43,2012.7
		c0,41.49-8.71,68.64-25.61,80.93c-6.66,4.61-28.17,6.66-65.05,6.66c-10.24,0-24.08,0-42.01,0.51c-14.85,0.51-29.2,0-43.03,0
		l-96.3-0.51c-17.42,0-26.12-8.71-26.12-25.1c0-6.66,2.56-12.29,7.68-17.41c8.71-8.71,13.32-13.83,14.34-15.88l9.73-15.37
		c4.61-7.68,7.68-27.15,8.71-58.39l4.1-132.16c0.51-11.27,1.54-21,0.51-29.71c-1.54-17.93-6.15-29.2-12.29-33.81
		c-3.07-1.53-7.17-4.1-12.81-7.68c-4.1-4.1-6.15-9.73-6.15-17.42c0-13.83,8.71-24.59,26.64-31.25c14.86-5.63,32.78-8.71,54.3-8.2
		c8.2,0,29.2,2.05,37.91,2.05c11.78,0,30.73-1.03,56.86-2.56c26.13-1.53,45.08-2.56,55.84-2.56c14.86,0,26.12,9.22,34.32,27.66
		c6.15,14.35,9.22,29.71,9.22,46.62c0,10.76-2.05,19.46-6.15,26.63c-5.63,8.71-12.81,13.32-22.54,13.32
		c-9.22,0-16.9-4.1-23.56-12.81c-9.73-12.81-16.9-20.49-22.03-24.07c-12.81-8.71-31.25-13.32-55.83-13.32h-11.27
		c-3.59,1.54-5.63,5.64-7.17,12.29c-0.51,2.56-1.02,4.61-1.02,7.17c0,11.27,5.63,20.49,16.9,27.67c9.73,6.14,21.51,9.22,35.35,9.22
		c5.63,0,14.34-11.27,19.98-11.27c5.12,0,7.68,3.59,7.68,11.27c0,11.78-1.54,23.56-4.61,34.32c-4.61,15.37-10.76,23.05-19.46,23.05
		c-5.64,0-10.76-4.1-15.88-12.81c-4.61-8.71-11.78-12.81-21.52-12.81c-10.76,0-16.39,9.22-16.39,27.15
		c0,42.52,24.59,64.03,74.28,64.03c4.1,0,15.37-3.59,19.98-2.05c2.56,0.51,4.61,0.51,6.15,0.51c8.71,0,15.37-4.1,21-12.29
		s10.24-12.29,13.83-12.29c10.24,0,18.95,17.42,18.95,29.2c0,3.59,0,12.29,1.02,26.63
		C1763.4,1991.69,1764.43,2003.47,1764.43,2012.7z"/>
	<path d="M462.15,536.94c-3.2-0.45-8.24-0.58-15.1,0.67c-7.14,0.99-12.98,0.61-17.27-0.86c-31.3-9.51-72.93-28.82-124.92-57.93
		c-13.2-7.34-22.34-11.87-27.69-13.32c-16.84-4.59-28.3-6.67-34.13-6.51c-12.98,0.61-26.08,6.8-39.57,18.31
		c-8.04,6.85-17.76,20.37-29.96,40.33c-13.96,23.46-18.08,38.16-12.09,43.84c1.09,1.03,3.75,1.49,8.25,1.11
		c5.56-0.42,10.09,0.26,13.83,1.22c6.95,1.93,13.42,6.01,20.23,12.46c17.42,16.51,34.23,39.67,50.67,69.21
		c18.69,34.25,26.57,60.83,23.9,80.01c-2.48,16.25,2.12,29.39,13.28,39.97c12.78,11.59,30.65,5.28,54.39-19.77
		c15.74-16.61,26.01-29.08,30.04-37.15c8.84-16.42,6.87-30.7-5.65-42.56c-3.27-3.09-8.35-4.82-15.52-4.89
		c-10.62-0.24-17.78-0.32-21.25-1.02c-9.34-2.14-17.97-7.21-26.14-14.95c-11.16-10.58-15.69-21.07-13.32-31.74
		c4.09-5.95,5.86-8.91,5.86-8.91c6.71-7.08,13.99-12.58,22.12-16.25c10.47-5.06,18.97-4.75,24.69,0.66
		c16.88,16,25.53,31.95,25.96,47.85c3.88,6.26,8.27,11.45,12.35,15.32c11.16,10.58,23.15,12.64,36.51,6.18
		c8.13-3.67,18.5-12.44,31.4-26.05c12.9-13.61,22.1-26.59,28.14-38.96c9.32-18.56,9.45-33.42-0.65-44.02
		C474.23,542.19,468.03,538.38,462.15,536.94z M282.55,556.89c-1.32,0.31-3.91,2.5-7.27,6.04c-2.06,2.18-7.44,9.49-9.5,11.66
		c-4.38,4.62-7.52,6.29-9.16,4.75c-3.54-3.35-7.42-9.62-11.39-19.06c-4.54-11.02-5.26-17.9-2.42-20.89
		c4.9-5.17,12.58-5.64,22.77-1.67c11.26,4.47,17.71,7.48,19.07,8.77C287.1,548.81,286.4,552.28,282.55,556.89z M747.73,360.62
		c13.87,28.7,18.95,50.41,15.9,65.63c-1.61,7.86-6.72,13.66-14.83,17.58c-1.35,0.65-3.38,1.63-6.58,2.76
		c-2.53,0.8-4.55,1.78-5.4,2.61l-16.89,9c-9.81,6.41-23.16,13.28-39.87,20.94c-28.69,13.04-42.36,19.23-41.35,18.74
		c-28.36,13.71-47.6,10.1-57.89-11.17c-2.28-4.73-3.33-14.64-3.29-30.07c0.22-16.77-0.46-28.52-2.38-35.09
		c-8.67-29.13-18.86-57.12-31.93-83.29c-12.57-26-23.79-39.74-32.82-42.04c-2.52-0.03-6.03-0.42-10.89-0.98
		c-4.01-1.4-7.15-4.46-9.6-9.52c-4.41-9.12-2.09-18.98,7.6-29.08c8-8.45,18.84-16.19,33.18-22.71
		c20.08-9.29,35.41-13.79,45.63-13.31c8.89,0.29,14.88,4.06,18.47,11.48c6.37,13.17-4.61,18.89-3.76,30.14
		c1.02,11.59,5.19,26.24,13.67,43.8c11.92,24.65,18.78,37.99,20.43,40.53c19.92,28.28,34.86,40.22,44.65,35.49
		c6.41-3.1,11.85-8.23,15.97-15.22c6.34-10.15,10.63-16.8,13.01-19.62c4.94-5.3,8.67-8.77,11.71-10.24
		c3.04-1.47,6.23-1.76,10.25-1.2c7.2,1.1,11.54,2.33,13.37,3.53C737.58,342.2,742.18,349.14,747.73,360.62z M928.7,164.85
		c-29.12-36.85-61.65-51.39-97.85-43.18c-37.31,8.46-63.04,32.37-77.27,71.36c-12.3,33.94-14.01,70.47-5.06,109.98
		c8.13,35.84,24.52,64.04,48.81,84.69c27.07,22.7,57.93,29.93,92.68,22.05c31.09-7.05,55.18-22.89,72.73-47.26
		c18.31-26.07,24.21-54.33,17.25-85.05C969.79,232.44,952.87,195.13,928.7,164.85z M870.51,283.03
		c-14.26,3.23-27.03-3.87-38.74-21.6c-8.72-13.02-14.85-28.17-18.58-44.62c-2.24-9.87-2.85-19.35-1.46-28.51
		c1.45-12.25,6.06-19.06,13.74-20.8c12.8-2.9,26.51,6.68,40.85,29.19c11.34,17.81,19.07,34.9,22.71,51
		C893.5,267.43,887.33,279.21,870.51,283.03z M1250.06,143.95c-8.8,6.53-13.79,11.28-14.98,13.88
		c-9.46,18.14-23.19,56.44-41.18,114.89c-15.96,52.49-28.4,84.44-36.94,95.86c-3.49,4.41-9.58,8.01-18.28,10.79
		c-6.81,2.08-12.83,3.05-17.71,2.93c-15.37-0.39-28.9-14.24-40.59-41.55c-7.79-18.21-15.72-45.79-24.18-82.4
		c-8.79-38.12-14.61-60.02-15.99-64.94l-8.67-27.98c-4.18-12.86-8.46-21.22-13.24-25.1c-2.22-1.18-5.17-3.13-9.23-5.86
		c-2.92-3.08-4.32-7.24-4.18-12.86c0.26-10.12,6.83-17.84,20.07-22.38c10.98-3.85,24.16-5.77,39.89-4.99
		c22.11,0.94,37.79,3.96,46.67,9.06c7.77,4.32,11.37,10.42,11.16,18.67c-0.07,2.62-0.49,4.49-0.91,6.35
		c-0.45,2.99-11.22,13.6-10.53,30.5c0.14,9.38,3.18,22.59,9.14,38.87c6.68,17.8,13.16,28.47,19.46,31.63
		c8.69-2.41,16.84-13.08,24.46-32.4c6.43-16.72,9.78-30.89,10.09-42.89c0.14-5.62-2.74-10.2-8.29-13.34
		c-5.55-3.14-8.05-8.08-7.87-15.2c0.5-19.87,19.5-29.14,56.61-28.21c10.87,0.28,20.57,2.4,29.11,5.99
		c11.12,5.16,16.57,12.42,16.7,22.18C1260.48,132.59,1256.95,138.5,1250.06,143.95z M1509.67,180.28c1.6,11.31,0.82,22.76-2.42,34.7
		c-2.06,7.6-5.18,13.36-9.44,17.64c-5.65,5.07-11.6,6.96-18.48,5.09c-6.52-1.77-11.16-6.13-14.2-13.56
		c-4.42-10.91-8.02-17.71-10.95-21.23c-7.38-8.61-19.53-15.4-36.9-20.1l-7.96-2.16c-2.83,0.4-5.06,2.9-7.42,7.31
		c-0.85,1.71-1.61,3.06-2.1,4.87c-2.16,7.96,0.06,15.56,6.64,22.78c5.7,6.21,13.43,10.64,23.21,13.28
		c3.98,1.08,12.29-5.22,16.27-4.14c3.62,0.98,4.74,4,3.27,9.43c-2.26,8.33-5.6,16.35-9.83,23.37c-6.2,9.98-12.02,14.23-18.17,12.56
		c-3.98-1.08-6.82-4.96-8.77-12.09c-1.59-7.04-5.87-11.31-12.75-13.17c-7.6-2.06-13.35,3.38-16.78,16.04
		c-8.14,30.04,5.11,49.95,40.22,59.47c2.9,0.78,11.54,0.41,14.51,2.38c1.71,0.85,3.16,1.24,4.24,1.54
		c6.15,1.67,11.64,0.05,17.19-4.67c5.55-4.71,9.59-6.72,12.13-6.04c7.24,1.96,10.06,15.94,7.8,24.26
		c-0.69,2.53-2.36,8.69-4.38,19.02c-2.29,9.87-3.82,18.39-5.58,24.91c-7.95,29.32-19.3,46.83-33.6,52.28
		c-5.59,1.98-21.18-0.69-47.24-7.76c-7.24-1.96-17.01-4.61-29.78-7.68c-10.59-2.48-20.63-5.59-30.4-8.24l-67.95-18.81
		c-12.3-3.34-16.79-11.16-13.65-22.74c1.27-4.71,4.17-8.2,8.77-10.84c7.82-4.48,12.06-7.22,13.18-8.47l9.82-8.99
		c4.73-4.55,10.63-17.71,17.34-39.59l28.21-92.6c2.52-7.86,5.11-14.54,6.05-20.89c2.35-12.96,1.25-21.81-2.21-26.24
		c-1.88-1.67-4.28-4.27-7.58-7.88c-2.11-3.68-2.48-8.05-1.01-13.48c2.65-9.77,10.86-15.7,24.81-16.98
		c11.57-1.14,24.83,0.13,39.93,4.61c5.79,1.57,20.24,7.04,26.39,8.71c8.33,2.26,21.91,5.16,40.67,9.08
		c18.75,3.92,32.34,6.82,39.94,8.89C1501.21,157,1507.4,165.68,1509.67,180.28z M1776.35,517.32
		c-17.03,25.15-38.99,40.18-66.38,45.18c-27.08,5.21-53.04-0.6-77.88-17.42c-25.46-17.24-41.85-37.86-49.48-60.69
		c-8.44-25.65-4.31-50.48,12.51-75.32c8.41-12.42,19.14-14.21,31.87-5.59c4.04,2.73,7.12,7.54,9.58,13.28
		c2.55,6.26,7.92,11.71,16.31,17.39c14.28,9.67,26.05,7.68,35.3-5.99c3.15-4.66,2.7-14.02-1.45-28.61
		c-5.87-22.09-9.31-35.74-9.79-41.05c-2.48-17.08,0.02-30.79,7.17-41.35c12.83-18.94,30.37-28.8,52.95-29.36
		c19.87-0.58,39.69,5.6,59.25,18.84c6.21,4.21,14.37,11.55,24.39,21.5c10.33,10.17,18.49,17.51,25.01,21.92
		c11.18,7.57,8.14,24.09-9.31,49.86c-9.88,14.59-20.83,18.05-32.32,10.27c-8.07-5.47-11.84-16.63-11.3-33.47
		c0.85-16.64-2.3-27.37-9.13-32c-15.21-10.3-26.45-9.76-33.81,1.11c-4.42,6.52-0.87,19.34,10.74,38.98
		c15.62,26.43,25.04,45.95,28.59,58.77C1796.36,469.72,1791.91,494.34,1776.35,517.32z M2012.03,491.52
		c-26.06-28.01-59.66-38.24-100.53-30.95c-35.53,6.42-67.98,23.3-97.63,50.89c-26.91,25.04-43.05,53.38-48.69,84.76
		c-6.03,34.81,3.23,65.13,27.5,91.22c21.72,23.34,47.53,36.21,77.41,39.14c31.75,2.73,59.14-6.36,82.2-27.83
		c33.77-31.43,57.53-64.81,71.57-100.92C2041.1,554.13,2037.33,518.7,2012.03,491.52z M1964.99,559.88
		c-9.7,18.76-20.59,34.02-32.68,45.27c-14.83,13.8-28.12,14.38-39.87,1.75c-9.96-10.71-10.23-25.31-0.79-44.35
		c6.87-14.08,16.89-26.99,29.25-38.49c7.41-6.9,15.3-12.19,23.91-15.59c11.32-4.9,19.53-4.34,24.89,1.43
		C1978.65,519.51,1977.26,536.18,1964.99,559.88z"/>
	<path d="M1390.17,815.82c-1.46-4.33-2.43-8.17-3.21-12.5c-0.6-3.43-1.64-7.87-2.28-9.82c-1.05-3.17-1.19-4.25-1.49-10.37
		c-0.41-8.81-1.34-17.88-2.17-20.97c-2.69-10.04-10.08-32.24-12.58-37.88c-1.12-2.46-2.8-5.82-3.77-7.46
		c-3.06-5.26-4.22-7.54-5-9.78c-1.12-3.25-4.18-15.41-5.9-23.62c-1.46-6.83-3.32-13.66-5.52-20.15c-0.52-1.53-1.08-4.22-1.27-5.97
		c-0.78-7.13-3.81-18.14-6.38-23.33c-1.42-2.8-6.46-10.64-9.29-14.4c-2.5-3.29-8.1-8.92-11.35-11.35c-4.14-3.1-9.4-5.41-15.67-6.94
		c-1.64-0.37-3.4-1.01-3.88-1.38c-1.68-1.23-2.91-6.53-2.13-8.92c0.19-0.6,0.75-0.97,1.83-1.27c10.23-2.76,14.89-5.78,17.69-11.42
		c1.23-2.5,1.42-3.17,1.53-6.27c0.34-7.73-2.99-16.79-8.96-24.33c-3.21-4.11-16.23-17.2-20.34-20.53c-3.02-2.39-3.47-2.91-3.51-3.96
		c-0.41-13.73-1.53-17.62-6.2-21.91c-1.79-1.68-9.26-5.45-12.76-6.49c-3.28-0.97-15.49-3.1-21.39-3.77
		c-6.12-0.67-7.91-0.52-11.38,1.12c-2.28,1.05-3.55,2.76-5.41,7.35c-0.75,1.83-1.38,2.87-1.64,2.76c-1.53-0.6-3.77-0.6-9.89-0.07
		c-7.99,0.71-9.78,1.01-15.83,2.5c-13.7,3.43-18.29,5.64-23.66,11.38c-2.13,2.28-3.13,3.77-4.7,7.02
		c-2.65,5.49-3.66,9.63-3.69,14.97c0,4.59,0.37,6.31,2.28,10.08c2.72,5.49,5.34,8.29,15.45,16.68c2.13,1.75,4.48,3.69,5.19,4.33
		l1.27,1.08l-1.04,3.13c-8.4,25.68-11.79,37.77-11.79,42.21c0,2.24,0.75,4.37,1.83,5.22c0.78,0.6,1.34,0.71,2.84,0.56
		c1.05-0.08,2.16-0.3,2.5-0.45c0.52-0.19,0.67,0.04,0.86,1.2c0.56,3.25,1.05,4.4,2.46,5.82c1.83,1.9,1.83,2.28,0.15,10
		c-0.71,3.28-1.98,10.04-2.8,15c-1.87,11.08-7.84,40.83-9.52,47.29c-1.9,7.43-7.84,22.39-11.83,29.86
		c-1.05,1.94-3.69,6.12-5.93,9.29c-6.16,8.66-12.47,20.71-17.13,32.69c-1.45,3.7-3.81,8.81-5.23,11.42
		c-1.45,2.58-2.99,5.75-3.43,7.09c-1.12,3.36-1.72,4.81-2.05,4.81c-0.19,0-1.16-1.38-2.16-3.06c-1.04-1.72-3.36-5.19-5.19-7.76
		c-5.52-7.73-12.84-19.03-18.77-28.92c-8.88-14.89-12.13-20.97-15.41-29.11c-2.91-7.2-7.24-15.52-12.32-23.7
		c-6.19-9.96-7.47-12.39-9.7-18.66c-2.02-5.6-2.65-7.05-8.7-20.34c-5.41-11.98-6.27-13.77-9.33-19.44
		c-1.57-2.91-4.37-8.62-6.23-12.69c-3.69-7.99-6.46-12.95-10.3-18.25c-1.31-1.87-3.21-4.78-4.18-6.53
		c-2.46-4.44-5.56-7.43-10.71-10.3c-7.54-4.18-14.78-6.61-25.12-8.36c-7.65-1.31-9.37-2.02-14.44-5.78
		c-5.67-4.22-9.85-5.93-18.74-7.65c-2.2-0.41-4.22-0.97-4.44-1.23c-0.26-0.26-1.27-1.87-2.24-3.58c-1.68-2.91-1.83-3.36-1.79-5.41
		c0.04-1.27,0.82-5.49,1.76-9.37c0.93-3.92,1.9-8.06,2.13-9.22c0.22-1.16,0.78-2.65,1.23-3.25c3.73-5.23,3.66-5.08,4.03-7.91
		c0.22-1.53,0.75-3.96,1.16-5.37c1.94-6.61,2.72-13.21,1.83-15.45c-0.71-1.68-2.61-2.43-5.52-2.16l-2.35,0.22v-1.01
		c0-0.56,0.6-4.59,1.31-9c2.05-12.76,2.09-16.01,0.15-21.87c-0.93-2.91-4.33-8.47-6.49-10.67c-2.01-2.05-4.11-3.21-11.23-6.23
		c-11.53-4.89-17.76-6.05-26.76-4.89c-5.71,0.75-12.8,3.92-21.2,9.48c-7.72,5.11-12.54,11.64-14.89,20
		c-0.97,3.58-1.34,9.11-0.78,12.58c0.45,2.8,2.31,9.4,3.73,13.14c0.45,1.12,0.78,2.09,0.78,2.13c0,0.07-0.41,0.11-0.93,0.11
		c-1.75,0-3.02,0.97-3.88,2.95c-1.19,2.84-1.38,1.83,2.91,15.86c1.45,4.74,2.65,8.62,2.65,8.7c0,0.04,0.52,0.67,1.16,1.42
		c1.23,1.42,3.88,2.42,6.34,2.42c1.38,0,1.38,0,2.39,2.76c0.64,1.75,1.01,3.58,1.05,4.96c0.07,6.64-0.19,13.88-0.52,15.23
		c-0.22,0.82-1.42,3.4-2.69,5.67c-2.02,3.81-2.43,4.33-4.33,5.56c-9.1,5.86-12.65,8.36-15.9,11.16
		c-4.55,3.96-10.64,8.02-15.86,10.64c-3.17,1.61-4.66,2.09-7.98,2.69c-4.97,0.9-6.9,1.83-9.82,4.67
		c-3.13,3.1-10.41,11.01-11.91,12.99c-3.92,5.11-7.65,15.41-9.26,25.56c-0.6,3.58-1.38,13.88-2.09,27.24
		c-0.48,9.07-0.86,12.47-2.24,21.65c-2.54,16.76-3.43,25.15-3.55,33.96c-0.19,13.62,0.37,20.15,3.02,36.01
		c2.05,12.13,4.25,20.04,6.94,24.82c0.63,1.12,2.65,4.11,4.48,6.61c3.36,4.63,6.12,9.4,7.2,12.43c0.34,0.93,1.34,4.37,2.24,7.69
		c1.79,6.53,2.88,9.29,4.7,11.94c1.98,2.91,6.23,7.13,10.97,10.97c6.57,5.3,7.28,6.98,7.28,17.32c0,3.1,0.19,8.4,0.41,11.79
		c0.45,6.01,0.41,6.27-0.52,11.2c-1.9,9.85-2.2,15.6-1.2,25.38c0.71,6.98,1.94,25.6,2.24,33.78c0.78,22.73,1.94,32.21,6.38,52.25
		c4.25,19.3,4.29,19.48,4.52,25.19c0.26,6.64-0.3,13.4-1.61,19.26c-0.9,4.14-0.97,4.85-0.71,10.41c0.3,8.02,0.48,10.26,1.01,14
		c0.48,3.51,0.56,8.29,0.37,24.82c-0.15,12.95,0.15,15.53,3.06,25.6c2.57,8.92,2.57,8.58,3.25,35.9c0.52,22.06,0.86,24.86,4.29,36.2
		c2.5,8.32,2.91,10.12,4.11,17.39c0.52,3.17,1.23,6.46,1.61,7.31c0.37,0.86,1.79,3.21,3.17,5.22c2.99,4.44,3.66,6.46,4.7,13.88
		c1.05,7.54,1.05,7.43-0.97,10.04c-3.84,4.93-4.82,9.22-3.21,13.96c1.64,4.7,3.1,6.49,7.8,9.48c3.51,2.2,4.25,3.1,7.31,8.55
		c1.42,2.5,2.99,5.04,3.55,5.6c3.25,3.47,9.82,4.4,25.45,3.7c8.92-0.41,10.49-0.78,12.95-2.88c0.9-0.75,1.87-2.09,2.35-3.25
		c1.04-2.43,0.9-5.04-0.56-10.56c-0.97-3.62-1.01-3.96-0.71-9.7c0.41-8.32,0.33-10.41-0.37-13.51c-0.75-3.32-0.75-5.78-0.07-9.48
		c0.93-4.85,1.45-16.72,1.23-29.52c-0.19-13.03-0.26-13.77-2.46-24.37c-0.82-3.92-1.94-9.44-2.46-12.32
		c-0.52-2.87-1.98-9.52-3.17-14.74c-2.39-10.45-3.06-13.88-3.92-20.9c-0.63-5.22-1.53-17.02-1.87-24.63
		c-0.45-9.89-0.97-12.69-4.29-23.51c-0.86-2.76-1.79-6.79-2.13-8.96c-0.63-4.25-0.56-5.78,0.97-23.33
		c1.12-12.54,1.53-20.08,1.53-27.32c0-5.6-0.15-7.35-1.31-14c-2.72-16.2-2.65-19.74,1.08-35.75c2.87-12.2,3.96-17.24,4.7-21.83
		c0.78-4.59,2.84-12.84,3.32-13.36c0.15-0.15,1.01,2.72,1.87,6.34c0.9,3.66,2.87,10.41,4.4,15.04c4.03,12.2,3.88,11.38,4.22,23.7
		c0.37,12.2,0.41,12.43,3.62,21.83c2.5,7.39,2.72,9.37,1.79,16.98c-0.6,5-0.6,5.56-0.04,8.1c0.75,3.28,2.05,5.67,4.85,8.81
		c1.16,1.27,2.2,2.76,2.31,3.32c0.15,0.52,0.04,2.83-0.19,5.11c-0.45,3.96-0.45,4.25,0.33,6.38c2.09,5.67,2.09,5.52,0.78,10.86
		c-1.45,6.12-1.49,8.62-0.04,15.3c1.94,9.22,2.99,22.51,2.99,38.59c0,11.53,0.37,17.2,1.94,28.92c0.67,5.19,1.19,10.67,1.19,13.06
		c0,4.03,0,4.18-1.9,9.14c-3.55,9.44-5.04,15.27-5.07,20.34c-0.04,2.2,0.15,2.99,1.12,5.04c0.63,1.34,1.98,3.4,2.99,4.59
		c3.28,3.96,3.54,4.44,3.36,5.86c-0.11,0.71-0.78,2.76-1.53,4.59c-1.9,4.52-2.61,8.43-2.35,13.32c0.37,6.83,1.9,10.82,6.9,17.84
		c1.64,2.31,3.28,5.08,3.66,6.12c0.67,2.09,0.63,5.11-0.26,14.48c-0.63,6.87-0.22,21.57,0.71,25.94c1.46,6.64,4.22,12.13,8.62,17.06
		c3.47,3.84,8.7,6.64,16.68,8.96c2.43,0.71,3.84,0.86,7.99,0.86c6.08-0.04,8.29-0.71,11.12-3.51c7.43-7.2,10.67-16.64,11.57-33.63
		c0.52-9.81-0.52-15.6-5.15-28.55c-4.25-11.98-5.41-16.64-6.72-26.5c-1.19-9.07-1.79-12.24-3.25-17.35
		c-1.57-5.45-1.75-7.95-0.67-9.4c0.41-0.52,2.2-2.01,3.99-3.29c7.31-5.19,7.65-6.08,7.24-20.45c-0.67-25.68-0.67-29.63-0.08-37.58
		c1.38-17.88,1.49-20.15,1.01-29.22c-0.52-10.94-1.27-18.29-2.5-25.12c-1.34-7.58-1.57-14.33-0.67-21.65
		c0.41-3.14,0.71-7.17,0.71-8.92c-0.04-3.58-0.3-4.29-3.21-8.25c-1.01-1.38-2.09-3.06-2.39-3.81c-0.52-1.23-0.48-1.38,0.37-2.91
		c2.54-4.44,2.91-5.52,2.72-7.95c-0.22-2.65-0.9-4.18-2.87-6.34c-0.79-0.82-1.61-1.9-1.87-2.35c-0.6-1.19-0.52-3.81,0.34-7.87
		c1.38-6.83,1.94-12.62,2.61-27.32c0.22-4.63,0.9-13.43,1.49-19.59c2.69-27.21,3.55-42.7,3.25-58.29l-0.26-12.02l1.9-2.46
		c2.54-3.32,3.36-5.3,3.4-8.13c0.07-3.17-1.76-22.47-2.87-30.68c-0.48-3.7-1.16-8.92-1.49-11.57c-0.33-2.69-1.04-6.87-1.53-9.33
		c-2.95-14.44-3.73-22.69-3.36-35.83c0.34-12.91,1.27-33.33,1.9-42.36c0.56-7.95,0.75-9.63,1.83-17.84
		c0.97-7.2,1.68-16.68,1.94-26.12l0.26-9.07l3.7,7.2c6.53,12.69,10.23,18.96,18.62,31.83c9.89,15.12,11.76,18.1,16.61,26.5
		c8.32,14.37,8.25,14.26,10.26,20.53c2.76,8.66,3.43,9.78,12.13,20.19c2.24,2.69,5.82,7.2,7.99,10.08
		c4.85,6.38,8.55,10.34,11.01,11.75l1.87,1.08l0.04,2.88c0,2.24,0.26,3.55,1.04,5.71c2.31,6.2,2.61,9.03,1.38,14.56
		c-1.16,5.26-1.27,6.98-0.6,10.97l0.6,3.69l-1.01,2.91c-1.23,3.62-1.08,5.04,1.12,9.55c0.86,1.79,1.98,4.33,2.43,5.64
		c0.9,2.39,2.2,3.81,3.47,3.81c2.16,0,4.44-2.87,5-6.31c0.15-0.86,0.33-1.53,0.45-1.53c0.07,0,1.27,1.04,2.61,2.28
		c2.87,2.72,8.4,5.56,11.23,5.86c1.6,0.15,1.87,0.04,2.57-0.86c0.45-0.56,0.82-1.31,0.82-1.68c0-0.97,0.3-1.04,1.79-0.52
		c1.72,0.6,5.9,0.67,8.1,0.11c2.58-0.63,3.25-1.49,3.14-4.03c-0.11-2.05-0.11-2.09,1.01-2.2c1.98-0.15,5.45-0.86,6.38-1.31
		c1.31-0.6,2.09-2.65,1.79-4.82c-0.19-1.72-0.15-1.79,1.01-2.39c1.6-0.82,1.79-1.12,1.79-3.06c0-1.49,0.04-1.57,1.16-1.57
		c2.54,0,4.81-2.01,4.81-4.29c0-2.16-1.16-3.06-5.22-4.11c-3.99-0.97-4.37-1.23-8.58-5.82c-3.58-3.92-4.14-4.7-4.85-6.94
		c-0.48-1.38-1.23-3.32-1.72-4.29c-0.48-0.97-0.9-1.83-0.9-1.94c0-0.11,0.56-0.07,1.23,0.04c1.75,0.26,3.62-0.75,3.62-1.98
		c0-1.46-0.93-3.28-2.43-4.78c-1.23-1.27-1.34-1.53-1.12-2.76c0.34-1.76,1.53-4.07,4.4-8.55c1.31-2.02,3.47-5.45,4.85-7.61
		c1.53-2.42,4.03-5.64,6.61-8.4c6.64-7.13,10.34-12.32,13.85-19.26l3.06-6.08l4.55-4.48c4.96-4.85,5.94-6.31,6.34-9.63
		c0.19-1.57,0.67-2.76,1.72-4.37c2.2-3.4,2.46-4.11,3.13-7.69c0.71-3.66,2.09-6.94,5.15-12.17c4.07-6.94,5.78-10.86,7.76-17.76
		c0.63-2.31,1.23-4.14,1.31-4.07c0.07,0.04,0,5.64-0.19,12.39l-0.3,12.32l-1.23,2.99c-1.87,4.59-1.98,5.45-1.12,7.91
		c0.93,2.72,0.93,3.02-0.22,6.64c-0.67,2.05-0.97,3.81-0.97,5.67c0,2.43-0.11,2.76-1.08,3.69c-1.6,1.57-1.68,2.69-0.34,6.53
		c1.34,3.88,1.31,4.7-0.56,11.35c-2.91,10.34-2.84,10.08-3.17,17.91c-0.19,4.7-0.52,8.36-0.93,9.89c-1.19,4.82-2.8,19.86-3.92,37.43
		c-0.37,6.2-1.04,14.22-1.45,17.84c-2.05,17.69-1.75,26.76,1.27,42.51c0.9,4.59,4.14,17.2,5.04,19.59
		c0.56,1.42,0.45,5.82-0.22,11.87c-0.93,8.1-0.86,14.37,0.37,24.71c1.12,9.55,1.12,12.91,0.04,15.86c-3.1,8.47-3.21,9.22-1.87,13.1
		c0.78,2.16,0.71,3.88-0.37,8.02c-0.6,2.31-0.93,4.59-0.93,6.46c0,3.58,1.16,11.46,2.84,19.63c3.02,14.55,4.07,21.8,4.63,32.4
		c0.48,8.81,0.86,11.76,2.28,18.17c1.64,7.31,2.13,11.5,2.57,21.31c0.78,17.39,1.46,23.51,3.92,36.43
		c1.38,7.17,2.58,8.99,6.94,10.56c1.98,0.67,2.01,0.71,1.94,2.13c-0.04,0.78-0.07,7.87-0.07,15.79c0,16.46-0.3,20.04-2.05,26.5
		c-1.79,6.5-2.2,9.07-1.9,12.09c0.75,7.65,6.08,18.96,10.82,22.8c2.39,1.98,4.85,2.8,8.36,2.8c5.45,0,14.48-3.36,16.76-6.23
		c2.99-3.77,5.26-9.03,6.05-13.92c0.37-2.35,0.34-3.25-0.19-5.6c-0.93-4.37-1.23-6.31-1.42-9.33l-0.22-2.8l1.01,1.31
		c1.87,2.43,3.99,4.59,6.12,6.23c2.09,1.57,6.34,3.84,7.31,3.84c0.26,0,0.86,0.26,1.34,0.56c1.16,0.75,6.05,1.68,8.96,1.68
		c1.53,0,4.03-0.45,7.17-1.31c6.23-1.72,7.91-2.54,8.58-4.18c0.6-1.38,0.52-2.05-0.93-8.62c-0.67-2.88-0.78-4.67-0.78-10.82
		c0.04-4.29-0.22-9.93-0.6-13.51c-0.78-8.1-0.56-15.6,0.71-22.06c1.57-7.72,1.79-10.82,1.27-17.99c-0.22-3.54-0.45-10.04-0.41-14.44
		c0-9.74,0.26-11.61,6.87-50.57c2.09-12.46,3.14-19.11,5.97-38.25c0.56-3.99,1.27-9.7,1.49-12.69c0.34-4.11,0.71-6.38,1.61-9.33
		c1.53-5.04,1.53-7.2,0.11-10.64c-1.38-3.32-1.57-6.61-1.01-20.34c0.49-12.91,0.71-13.88,6.94-30.6c3.14-8.47,3.99-10.9,7.8-21.91
		c1.16-3.29,3.13-8.32,4.37-11.2c3.32-7.54,7.32-17.02,8.58-20.45c1.57-4.14,3.58-12.58,4.29-17.91c0.9-6.49,0.82-17.8-0.15-25.19
		c-0.45-3.17-1.05-8.13-1.38-11.01c-1.12-9.52-2.05-15.41-3.02-18.74c-1.83-6.38-8.47-26.5-10.97-33.33
		c-2.99-8.1-4.03-11.53-4.66-15.15c-0.37-2.05-0.9-3.32-2.46-5.78c-3.32-5.3-5.11-9.48-5.6-12.84c-0.22-1.64-0.71-4.33-1.08-5.97
		c-1.19-5.11-1.34-9.63-0.45-13.06c1.12-4.29,1.53-7.17,1.94-12.88c0.19-2.76,0.52-5.56,0.71-6.16c0.22-0.63,0.82-2.99,1.31-5.23
		c0.52-2.28,1.23-5.34,1.61-6.83l0.67-2.72l1.08,7.02c1.27,8.51,3.1,15.86,5.04,20.64c4.22,10.3,4.7,11.83,5.75,17.54
		c1.57,8.58,2.99,11.53,12.47,25.83c5.64,8.55,6.38,9.85,7.76,13.73c1.57,4.4,2.24,5.64,5.22,9.44c0.93,1.23,1.9,3.02,2.24,4.11
		c0.75,2.65,1.31,7.87,1.31,12.5c0,3.28-0.15,4.26-1.12,7.09c-1.75,4.93-1.79,6.94-0.45,11.64c0.63,2.16,1.27,4.85,1.42,5.97
		c0.34,2.76,1.01,4.55,2.46,6.61c2.2,3.02,4.1,2.95,5.63-0.34c1.34-2.8,1.57-4.96,0.86-7.73c-0.71-2.84-0.79-6.01-0.11-6.9
		c0.45-0.6,0.6-0.49,1.46,1.49c2.72,6.2,1.98,14.85-1.72,19.26c-2.35,2.8-4.96,6.46-5.22,7.28c-0.41,1.27,0.49,2.69,1.87,2.95
		c0.97,0.19,1.68,0,3.25-0.9c1.12-0.63,2.99-1.31,4.18-1.53c1.16-0.22,2.69-0.75,3.36-1.16c1.61-1.01,5.04-4.7,5.86-6.38
		c1.64-3.25,4.44-11.42,5-14.59C1392.93,825.59,1392.63,823.13,1390.17,815.82z M1261.04,1008.95c0.11,0.11,0.15,0.45,0.04,0.71
		c-0.11,0.3-0.22,0.19-0.22-0.22C1260.82,1009.02,1260.93,1008.8,1261.04,1008.95z M1262.31,1062.28c-0.9,7.95-0.9,7.02-0.56,39.19
		c0.15,14.48,0.15,28.51,0,31.16l-0.3,4.78l-0.86-4.11c-1.08-5.07-1.79-13.25-1.53-16.98c0.34-4.25-0.34-12.46-1.23-15.49
		c-1.23-4.18-1.34-8.55-0.41-14c1.31-7.57,1.64-14.4,1.16-22.95c-0.22-4.1-0.6-8.73-0.78-10.26c-0.19-1.53-0.45-6.83-0.56-11.76
		c-0.26-9.85-0.11-11.64,2.17-24.33l1.23-6.79l0.22,10.15c0.15,5.6,0.45,11.38,0.67,12.88c0.22,1.49,0.67,4.26,0.97,6.16
		C1263.28,1044.85,1263.2,1054.44,1262.31,1062.28z"/>
</g>
</svg>
