<?xml version="1.0" encoding="utf-8"?>
<!-- Generator: Adobe Illustrator 25.0.1, SVG Export Plug-In . SVG Version: 6.00 Build 0)  -->
<svg version="1.1" id="Layer_1" xmlns="http://www.w3.org/2000/svg" xmlns:xlink="http://www.w3.org/1999/xlink" x="0px" y="0px"
	 viewBox="0 0 2400 2400" style="enable-background:new 0 0 2400 2400;" xml:space="preserve">
<g>
	<path transform="translate(0.000000,2400.000000) scale(0.100000,-0.100000)" d="M8494,20780c-151-35-397-111-874-270
		c-426-142-827-281-2427-844c-259-91-475-166-480-166s-14,111-21,248c-14,269-27,417-43,500c-9,44-17,57-42,73c-62,37-197,17-216-33
		c-19-52-43-356-57-736c-4-113-11-185-18-190c-6-5-72-30-146-57c-422-151-665-273-754-377c-31-36-36-49-34-82c3-33,8-42,38-58
		c29-16,51-19,126-16c89,3,92,4,145,44c77,58,147,96,277,149c158,64,334,126,340,120c3-3,0-175-7-383c-26-806-31-1009-31-1357v-361
		l-67-33c-218-106-373-211-360-244c12-32,57-50,135-55c67-4,90,0,167,26c50,17,97,33,106,37c14,5,16-88,23-1007
		c10-1541,30-2555,57-2893c11-148,22-172,85-193c61-21,205-12,241,14l28,21l6,184c4,101,13,792,19,1534c7,743,15,1622,19,1955l6,605
		l50,26c28,14,248,127,490,251s647,333,900,466c262,137,493,251,537,266c105,34,120,43,116,69c-5,38-61,57-163,57
		c-174,0-234-25-1225-514l-695-342l-2,110c-2,108-26,1762-27,1860l-1,48l265,95c146,52,792,286,1435,520c1784,648,2163,781,2325,819
		c36,8,75,22,88,30c31,20,29,59-5,81C8783,20804,8602,20805,8494,20780z M10002,19312c-72-26-87-43-142-157
		c-110-226-264-789-377-1375c-20-107-37-196-38-197c0,0-94-6-210-12c-407-21-705-86-903-197c-126-71-213-185-183-241
		c25-47,144-75,228-54c27,7,90,40,143,75c140,93,240,128,455,161c115,18,425,32,425,20c0-5-16-117-35-249c-19-133-44-320-55-416
		c-18-156-30-207-106-473c-471-1651-752-2353-1102-2755c-60-70-150-142-175-142s-93,87-141,180c-55,107-97,238-129,405
		c-46,236-52,317-52,710c1,412,7,500,77,1061l42,341l39,14c60,21,68,41,32,80c-71,74-299,202-445,248c-223,72-480,79-705,19
		c-401-106-701-413-936-958c-303-703-378-1496-178-1892c43-85,128-171,210-212c106-53,195-69,352-64c220,8,352,65,507,218
		c174,172,343,455,491,824l44,108l12-173c55-769,275-1119,723-1146c319-19,560,121,785,457c173,259,298,538,480,1073l101,298l13-203
		c63-1045,272-1726,614-1994c137-107,283-154,483-154c199,0,362,52,510,164c140,105,312,311,441,528c32,54,61,98,64,98s16-48,28-107
		c44-208,95-362,138-421c80-109,371-126,489-29c55,45,88,128,209,512c157,501,272,810,432,1165c156,343,316,640,490,903
		c131,199,311,413,330,393c12-12,8-334-6-486c-17-190-71-610-135-1055c-131-906-164-1284-137-1564c34-346,139-501,381-562
		c86-22,287-17,385,10c164,44,333,151,513,325c101,97,252,268,335,378l51,67l76-72c126-123,242-188,407-229c75-19,114-23,268-22
		c161,0,190,3,276,26c277,75,464,192,724,452c284,285,497,600,750,1106c232,463,440,1011,571,1499c24,91,47,168,51,172
		c5,4,55,28,112,53c254,112,651,359,903,562c37,30,69,54,72,54c2,0-40-91-94-202c-476-982-856-2105-995-2936c-50-305-59-412-60-707
		c0-236,3-292,18-357c40-170,112-257,250-300c59-19,94-23,192-22c103,0,131,4,198,27c438,152,950,644,1316,1264
		c141,240,344,699,324,733c-29,48-162,66-243,34c-38-15-46-25-97-128c-158-315-367-646-559-886c-127-158-359-399-494-512
		c-98-83-240-185-322-231l-47-27l-11,37c-48,174-34,584,36,1043c173,1126,775,2765,1421,3867c45,79,83,154,83,167
		c0,59-103,101-229,94c-108-7-148-28-285-158c-212-199-590-518-821-692c-195-146-578-398-590-387c-2,3,3,61,11,130
		c22,175,15,471-15,588c-27,105-81,210-133,257c-22,20-70,50-107,67c-62,30-75,32-203,35c-125,4-145,2-230-22
		c-209-60-382-195-524-407c-184-276-261-595-196-814c36-120,123-220,242-278c132-65,176-72,432-72h227l-6-25c-3-14-34-110-68-215
		c-217-657-519-1294-844-1782c-151-226-263-365-421-524c-152-153-273-245-405-309c-114-55-189-75-242-65c-108,20-257,141-338,274
		c-43,72-105,207-105,232c0,9,32,72,71,140c335,589,579,1323,645,1941c20,194,15,543-11,658c-23,104-67,191-117,235
		c-105,89-308,100-464,25c-222-108-428-527-568-1157c-85-379-111-628-111-1053c0-360,9-460,61-678l24-103l-42-62
		c-251-373-603-755-805-874l-45-26l-19,24c-25,31-57,117-77,204c-14,57-17,126-16,370c0,328,8,430,84,1025c21,168,57,447,79,620
		c58,453,72,615,78,878c8,321-13,437-95,518c-70,70-213,105-354,85c-154-21-262-86-419-248c-227-236-468-606-713-1093
		c-169-335-338-730-453-1054c-21-60-40-101-42-90c-2,10-27,153-56,318l-53,299l68,193c244,686,464,1551,569,2239
		c105,682,121,1320,42,1698c-60,289-166,463-328,540c-62,29-78,32-188,35c-71,3-142-1-175-8c-239-52-423-277-565-691
		c-46-135-115-401-135-519c-6-36-13-76-16-89l-5-24l-312,7c-313,6-717,23-723,29c-2,1,26,122,62,267c229,931,310,1329,286,1415
		C10282,19316,10118,19353,10002,19312z M11908,18645c122-139,192-459,192-885c0-547-116-1298-321-2077c-63-240-190-675-196-670
		c-11,12-113,756-142,1037c-36,350-44,553-37,915c3,187,10,359,14,383c7,41,10,44,64,66c70,29,137,68,161,94c48,53-13,102-127,104
		c-78,1-75-11-45,162c57,335,158,644,260,792c41,60,105,124,123,124C11862,18690,11886,18670,11908,18645z M10956,17253
		c-28-328-34-736-16-1018c32-479,109-1085,241-1881l49-301l-51-114c-212-470-428-819-631-1016c-68-66-173-143-195-143
		c-27,0-158,145-206,228c-245,418-372,1126-402,2237c-15,570,58,1691,131,2018l16,67h535h536L10956,17253z M17645,17044
		c110-144,124-474,40-914c-15-77-32-146-39-154c-18-24-204-77-288-83l-78-6l-49,49c-31,31-57,71-72,109c-22,54-24,74-23,210
		c0,133,4,160,28,239c62,204,144,353,261,472c78,79,145,126,175,121C17608,17086,17628,17067,17645,17044z M7204,16171
		c54-16,102-33,107-38s-2-30-16-60c-14-29-86-217-160-418c-399-1084-582-1502-810-1846c-77-115-215-279-236-279
		c-24,0-78,146-106,285c-24,124-24,478,1,654c58,417,197,866,361,1167c134,246,302,437,447,509C6940,16218,7029,16223,7204,16171z
		 M15491,15985c20-88,17-435-5-600c-34-255-96-522-183-790c-50-155-183-496-242-620l-38-80l-6,125c-12,211,16,638,59,895
		c43,261,111,546,176,735c70,204,198,445,218,409C15474,16051,15484,16018,15491,15985z M12445,11664c-290-55-652-154-1056-288
		c-380-126-515-183-568-240c-74-79,82-134,253-90c33,9,143,45,244,81s184,64,186,62c1-2-4-69-11-149c-25-256-21-684,10-1095
		c36-473,65-788,82-905c16-108,28-125,101-136c55-8,108,0,140,21c23,15,24,20,24,137c0,232-50,1395-70,1638c-11,135-27,317-34,405
		c-8,88-12,163-9,167c2,4,88,34,191,67c466,150,756,221,897,221c103,0,158,19,163,58c3,18-5,26-45,45c-42,19-67,22-208,24
		C12600,11689,12555,11685,12445,11664z M14486,11320c-247-31-391-102-452-221c-48-95-85-291-116-602c-6-70-15-132-18-137
		c-4-7-19-5-43,5c-46,19-107,19-222,0c-49-8-96-15-102-15c-10,0-13,27-13,103c0,112-24,462-41,596c-25,202-39,224-153,229
		c-93,5-131-12-145-66c-29-107-64-594-60-810l4-164l-195-68c-107-38-197-66-199-64c-3,2-8,62-13,132c-9,132-52,532-68,636
		c-5,33-16,66-24,75c-20,19-115,26-160,11c-22-7-42-22-51-40c-29-56-39-208-40-592v-377l-26-15c-33-19-55-68-42-91c6-9,27-27,49-39
		l39-21l21-240c38-416,74-669,104-726c6-11,26-29,43-39c46-28,159-28,205,0c33,20,34,22,29,78c-38,429-66,977-51,992
		c10,10,370,160,383,160c4,0,15-172,24-382c31-658,44-802,78-830c75-63,248-39,272,37c5,17,12,318,14,677l5,647l92,30
		c50,16,129,41,176,56c47,14,90,28,96,31c7,3,8-20,3-73c-13-140-28-443-34-703c-10-429,7-503,135-567c116-58,172-68,395-68
		c225,0,292,13,431,81c89,44,184,126,184,160c0,41-42,59-140,59c-80,0-90-3-170-42c-151-75-301-93-342-43c-17,20-18,49-18,355
		c0,182,3,406,7,497l6,166l91,31c50,16,183,58,296,91c222,66,293,95,298,123c4,20-50,47-95,47c-15,0-152-31-303-69
		c-151-39-276-68-278-67c-5,6,28,419,44,541c29,232,55,304,119,331c63,26,218,46,411,53c199,6,224,12,224,52c0,25-58,53-150,74
		C14912,11324,14593,11333,14486,11320z M9890,11253c-19-2-91-15-160-29c-236-48-529-161-792-305c-155-85-218-134-255-196
		c-26-44-28-56-27-143c0-78,17-175,92-545c111-547,195-928,223-1013c19-58,25-66,63-83c73-33,180-18,205,29c16,30,14,258-4,430
		c-8,81-29,252-46,380c-17,129-29,235-27,237c2,1,57,24,123,49c137,54,524,224,665,294c80,39,95,51,98,73c4,34-30,49-108,49
		c-46,0-82-9-157-39c-54-21-213-83-353-136c-140-54-264-101-276-105c-20-8-22-3-44,152c-13,92-20,188-18,226c4,63,6,67,50,106
		c55,50,148,106,333,202c237,123,432,194,634,230c73,13,101,23,124,44c25,22,28,29,19,47c-21,38-82,53-210,51
		C9978,11258,9909,11255,9890,11253z M7169,10906c-312-86-590-438-690-875c-26-112-36-349-19-462c32-225,133-425,288-571
		c89-83,181-138,302-179c89-30,106-33,261-37c186-5,264,6,396,58c295,113,536,428,619,807c26,116,23,333-5,438
		c-26,99-78,209-135,290c-49,67-418,433-484,479c-32,22-59,31-114,37c-40,4-89,12-108,18C7433,10924,7226,10921,7169,10906z
		 M7454,10755c27-18,179-195,346-405c133-167,174-277,173-465c0-122-17-209-63-336c-89-244-280-468-460-539c-100-39-168-19-277,84
		c-114,106-192,244-240,421c-24,91-26,117-27,285c0,154,4,202,22,285c64,295,194,533,357,653c53,39,65,43,101,39
		C7408,10775,7439,10765,7454,10755z M3665,10131c-605-108-1153-547-1590-1276c-314-522-507-1087-576-1690c-17-141-17-560,0-690
		c120-954,630-1447,1432-1385c377,29,742,185,1099,470c126,101,388,361,524,520c144,169,415,509,583,735l23,30l-5-70
		c-3-38-10-142-16-230c-21-329-72-751-140-1180c-38-241-112-632-120-638c-2-2-157-96-344-208c-1032-618-1543-1050-1905-1606
		c-306-469-369-912-184-1288c87-178,225-305,401-368c157-57,378-62,548-12c397,115,743,451,1087,1055c321,563,593,1334,798,2261
		l21,96l302,181c546,326,924,589,1197,833l76,67l164,11c286,19,516,83,795,221c88,44,220,117,293,164c72,47,132,84,132,82
		c0-1-11-29-24-62c-39-96-153-437-201-599c-127-434-213-866-246-1243c-18-207-7-600,21-727c84-390,263-601,590-696
		c95-27,379-38,499-19c306,49,606,242,856,552c136,167,361,535,425,694c24,59,40,69,40,27c0-16,11-77,25-138
		c105-461,315-740,659-874c157-62,272-81,479-81c252,0,417,35,626,131c222,103,463,314,610,534c163,245,282,550,335,860
		c21,121,39,377,32,446l-5,56l122,79c132,85,337,236,430,317c32,27,60,47,63,45c2-3-2-50-10-104c-65-436-70-802-16-1116
		c28-163,63-278,126-407c50-102,66-125,143-201c178-177,399-248,739-237c177,6,260,20,403,67c435,145,832,525,1089,1042
		c159,320,243,658,257,1030l6,167l126,98c140,109,350,282,545,451c71,62,131,110,133,108c2-1-10-122-27-267
		c-116-1028-144-1503-138-2369c3-471,5-558,18-578c8-12,40-35,70-50c50-24,66-27,165-27c129,0,187,15,230,58l31,32l12,186
		c15,223,34,394,67,589c142,843,523,1854,939,2490c42,63,76,107,76,98s-11-126-25-260c-54-536-85-1098-85-1528c0-314,9-420,39-460
		c10-14,42-35,72-48c48-20,68-22,174-19c100,2,127,6,162,25c75,39,67,21,193,472c136,487,334,984,531,1333c86,152,270,423,385,566
		c116,145,291,325,369,380l48,35l-6-75c-10-123-26-177-312-1014c-346-1015-529-1761-576-2349c-15-192-7-538,16-666
		c33-182,80-304,142-362c68-65,207-96,348-79c123,15,181,46,291,155c259,260,549,806,770,1450c75,218,183,586,177,602
		c-18,48-177,67-243,28c-31-18-42-40-147-298c-193-477-332-775-494-1056c-84-146-210-337-283-429l-51-65l-8,40c-4,21-11,149-14,284
		c-8,370,28,684,133,1159c116,527,246,985,504,1781c205,632,244,812,206,943c-33,112-126,177-286,196c-158,20-320-15-458-97
		c-339-203-794-788-1088-1397c-43-89-63-122-64-104c0,40,18,349,41,689c33,479,19,563-104,628c-49,26-59,27-187,27
		c-132,0-136-1-202-33c-151-74-365-344-610-771c-97-169-248-471-323-646c-26-60-49-111-50-113c-3-3,0,27,46,538
		c44,484,51,654,31,711c-16,46-54,82-117,111c-44,20-66,23-175,23c-204,0-255-25-546-270c-91-77-252-211-358-298l-191-158l-12,28
		c-90,207-161,321-259,419c-202,203-482,294-862,281c-396-13-729-144-967-382c-82-81-178-215-215-297c-19-43-22-46-68-50
		c-82-8-148-48-272-164c-185-173-653-556-664-543c-2,2-15,46-30,96c-110,384-343,642-679,748c-352,112-844,70-1160-98
		c-106-56-223-151-290-234c-58-73-137-205-158-264l-12-37l-77,5c-54,4-92,1-131-11c-94-27-102-38-139-188c-63-256-237-729-393-1064
		c-257-553-566-985-851-1188c-95-68-222-126-290-133c-49-5-64-2-120,26c-317,156-420,750-285,1641c67,443,181,901,361,1450
		c53,163,90,292,91,317c1,87-80,128-241,121c-118-5-146-18-347-158c-443-309-680-435-950-505c-148-38-149-37-59,58
		c340,361,506,703,492,1012c-13,263-148,399-409,413c-238,12-438-75-639-277c-237-239-390-587-390-887c0-212,61-336,212-434l57-37
		l-132-110c-234-195-468-363-788-566c-91-57-174-109-185-115c-19-10-19,0,17,216c105,639,153,1151,153,1652c1,311,1,316-23,363
		c-17,35-34,53-64,69c-86,43-261,42-349-3c-62-32-116-92-327-362c-640-822-983-1187-1336-1420c-268-176-549-269-728-239
		c-115,19-238,85-342,184c-224,212-369,548-432,998c-21,153-24,561-5,725c46,400,147,782,301,1144c389,908,1037,1548,1627,1606
		c83,9,192-7,287-40c260-90,494-364,601-704c35-110,72-301,85-435c50-506-89-1016-373-1381c-83-106-228-235-264-235
		c-13,0-49,86-69,167c-35,141-17,469,32,587c8,19,12,41,9,49c-16,41-125,50-194,15c-75-38-147-165-196-343c-24-90-30-331-10-418
		c31-133,78-196,186-246c49-23,70-26,191-29c115-3,149-1,213,17c153,42,278,121,417,261c340,344,532,916,491,1463
		c-48,643-307,1113-730,1326c-90,45-251,97-361,115C4070,10156,3798,10154,3665,10131z M7269,7225c33-67,40-191,17-306
		c-51-251-207-510-479-795c-108-113-106-112-147-6c-63,166-42,403,57,642c95,230,265,433,428,511C7216,7305,7231,7300,7269,7225z
		 M15370,6648c164-60,292-191,390-402c42-89,84-226,98-319l9-58l-56-42c-105-77-286-189-401-247c-242-121-449-172-611-150
		c-151,21-331,142-388,262c-100,210,26,576,272,786C14884,6650,15170,6721,15370,6648z M11934,6130c103-26,164-61,252-143
		c173-162,278-411,318-758l7-55l-108-52c-312-148-569-210-818-199c-302,13-483,135-526,355c-42,219,71,532,252,695
		C11469,6116,11731,6182,11934,6130z M15864,5413c-75-551-313-1033-688-1390c-299-285-595-404-781-313c-178,86-305,361-357,770
		c-19,156-16,567,6,770c10,91,19,166,20,168c2,1,37-21,79-48c194-130,426-190,727-190c173,0,327,19,488,61c169,43,280,89,509,208
		C15868,5450,15866,5433,15864,5413z M10838,4860c223-131,581-197,940-172c237,17,415,53,630,125l102,35v-29c0-63-33-262-65-384
		c-117-457-378-854-683-1039c-257-156-457-165-655-30c-235,161-389,513-436,999c-14,148-26,552-17,598l7,38l55-51
		C10747,4923,10802,4882,10838,4860z M4740,4125c-178-694-396-1288-632-1720c-284-520-550-827-836-963c-61-29-89-37-134-37
		c-50,0-63,5-115,41c-108,76-197,215-245,382c-19,65-23,102-23,242c0,104,5,185,13,220c64,264,205,533,420,800
		c99,124,318,348,457,468c155,133,435,342,670,498c196,130,477,305,482,300C4798,4355,4773,4251,4740,4125z"/>
</g>
</svg>
