<?xml version="1.0" encoding="utf-8"?>
<!-- Generator: Adobe Illustrator 25.2.0, SVG Export Plug-In . SVG Version: 6.00 Build 0)  -->
<svg version="1.1" id="Layer_1" xmlns="http://www.w3.org/2000/svg" xmlns:xlink="http://www.w3.org/1999/xlink" x="0px" y="0px"
	 viewBox="0 0 2200 2200" style="enable-background:new 0 0 2200 2200;" xml:space="preserve">
<g>
	<path d="M169.02,1236.81c-14.66-25.85-23.77-50.66-23.74-63.94c0.06-30.07,35.82-21.22,56.02,11.55
		c2.57,4.17,7.91,14.74,11.87,23.18c2.82,6.2,4.23,9.29,7.05,15.44c1.58-3.04,2.37-4.57,3.96-7.61
		c5.32-10.15,11.83-17.93,18.92-22.48c6.54-4.19,11.39-5.83,18.79-5.01c10.99,1.22,22.25,8.93,27.82,17.57
		c11.04,17.11,7.22,41.85-9.52,61.04c-10.76,12.34-47.74,43.17-52.31,43.75c-3.33,0.42-9.02-4.17-19.29-16.08
		C199.71,1283.92,177.68,1252.09,169.02,1236.81z M415.92,1340.03c10.26,9.06,15.95,12.22,19.29,11.04
		c4.57-1.64,41.54-40.63,52.3-55.51c16.75-23.16,20.55-49.1,9.52-63.37c-5.57-7.21-16.84-11.95-27.82-10.2
		c-7.41,1.18-12.24,4.19-18.79,10.13c-7.1,6.43-13.6,15.86-18.92,27.22c-1.58,3.41-2.37,5.11-3.96,8.5
		c-2.82-5.27-4.23-7.91-7.05-13.2c-3.96-7.17-9.3-16-11.87-19.34c-20.18-26.24-55.95-24.08-56.01,4.65
		c-0.03,12.68,9.09,33.75,23.74,54.69C385.02,1307.02,407.05,1332.19,415.92,1340.03z M538.95,1452
		c-14.42-13.17-32.08-26.45-38.39-28.95c-0.76-0.3-2.39-0.56-4.38-0.67c-2.67-0.16-3.45-0.1-5.08,0.42
		c-7.04,2.21-9.08,10.19-3.9,15.32c1.48,1.46,4.26,2.98,5.7,3.1c0.34,0.03,0.93,0.22,1.3,0.45c0.79,0.44,6.66,4.76,9.63,7.02
		c0.8,0.62,1.21,0.92,2.01,1.54c-0.51,0.72-0.77,1.07-1.29,1.79c-2.82,3.86-7.64,9.9-11.1,13.86c-20.43,23.31-44.82,41.1-72.9,52.83
		c-31.5,13.15-65.21,17.61-100.41,12.59c-7.99-1.14-23.85-4.9-31.72-7.53c-6.93-2.31-14.75-5.42-20.86-8.22
		c-55.03-25.39-99.14-76.62-121.63-137.48c-3.02-8.19-3.19-8.73-2.73-8.88c0.59-0.18,9.03,0.31,12.78,0.7
		c3.95,0.42,5.75,0.15,7.33-1.08c4.24-3.29,2.68-11.34-3.25-16.68c-1.44-1.29-2.15-1.73-4.38-2.74c-2.39-1.07-3.12-1.22-6.84-1.64
		c-12.26-1.38-29.02-1.61-35.84-0.21c-5.09,1.04-11.04,4.02-12.85,6.48c-1.37,1.85-1.59,5.18-0.55,8.23
		c1.31,3.87,4.13,7.48,7.91,10.14c1.95,1.36,4.79,2.3,6.97,2.36c1.83,0.05,4.13-0.96,5.06-2.18c0.67-0.88,3.62-2.45,3.88-2.02
		c0.06,0.09,0.93,2.57,1.92,5.44c2.18,6.31,5.42,14.38,8.99,22.34c24.65,55.29,65.67,101.93,115.01,128.44
		c60.55,32.53,128.97,33.8,187.76,6.65c31.77-14.68,59.54-37.12,81.1-64.88c1.93-2.48,3.65-4.53,3.77-4.52
		c0.31,0.02,3.34,2.84,8.02,7.46c4.26,4.22,5.31,4.75,9.25,4.95c3.44,0.18,5.19-0.37,7.76-2.38c3.06-2.41,4.19-6.4,2.94-10.07
		C549.31,1462.02,546.08,1458.51,538.95,1452z M1966.97,1163.7c3.34,2.78,9.04,1.31,19.29-4.6c8.87-5.11,30.91-23.02,39.57-32.23
		c14.63-15.58,23.77-33.26,23.74-47.64c-0.06-32.68-35.86-58.44-56.02-38.56c-2.56,2.53-7.91,10.07-11.87,16.51
		c-2.82,4.81-4.23,7.22-7.05,12.08c-1.58-4.66-2.37-7-3.96-11.66c-5.32-15.55-11.81-29.24-18.92-39.49
		c-6.56-9.47-11.38-13.64-18.79-17.11c-10.98-5.13-22.25-4.96-27.82,1.93c-11.01,13.61-7.24,44.56,9.52,76.69
		C1925.44,1100.28,1962.4,1159.87,1966.97,1163.7z M1759.64,1124.17c3.33,2.02,9.03-0.86,19.29-9.59
		c8.87-7.54,30.91-32.03,39.57-44.12c14.64-20.43,23.77-41.79,23.74-56.76c-0.06-33.97-35.83-48.77-56.02-22.44
		c-2.56,3.34-7.91,12.61-11.87,20.3c-2.82,5.7-4.23,8.56-7.05,14.28c-1.58-4.31-2.37-6.46-3.96-10.76
		c-5.32-14.33-11.83-26.38-18.92-34.73c-6.56-7.72-11.38-10.55-18.79-12.01c-10.99-2.17-22.25,0.95-27.82,9.25
		c-11.02,16.41-7.23,46.13,9.52,74.28C1718.1,1069.97,1755.07,1121.39,1759.64,1124.17z M2094.67,1315.99
		c-1.81-4.25-7.76-12.84-12.85-18.54c-6.82-7.65-23.58-22.23-35.84-30.96c-3.72-2.66-4.46-3.09-6.84-3.87
		c-2.23-0.72-2.94-0.82-4.38-0.54c-5.95,1.09-7.51,8.89-3.25,15.91c1.58,2.61,3.39,4.32,7.33,7.02c3.75,2.57,12.19,8.94,12.78,9.63
		c0.46,0.55,0.3,0.97-2.73,7.49c-22.46,48.52-66.67,76.69-121.63,81.06c-6.1,0.48-13.93,0.67-20.86,0.48
		c-7.87-0.21-23.73-2.01-31.72-3.61c-35.21-7.04-68.91-22-100.41-45.13c-28.07-20.62-52.52-46.23-72.9-76.79
		c-3.46-5.19-8.28-13-11.09-17.92c-0.51-0.91-0.77-1.37-1.29-2.28c0.81-0.72,1.21-1.08,2.01-1.8c2.97-2.64,8.84-7.61,9.63-8.1
		c0.36-0.26,0.95-0.45,1.3-0.47c1.45-0.05,4.22-1.72,5.7-3.4c5.19-5.92,3.14-15.96-3.9-19.18c-1.63-0.74-2.42-0.87-5.08-0.85
		c-1.98,0.02-3.61,0.24-4.38,0.57c-6.29,2.72-23.97,18.43-38.39,34.7c-7.13,8.05-10.36,12.44-11.02,14.86
		c-1.27,4.55-0.12,9.44,2.94,12.39c2.56,2.46,4.32,3.12,7.76,2.9c3.94-0.25,5-0.9,9.25-6.08c4.67-5.66,7.7-9.07,8.02-9.09
		c0.13-0.01,1.84,2.58,3.77,5.72c21.55,35.3,49.33,66.12,81.1,90.4c58.79,44.92,127.21,63.87,187.76,55.15
		c49.34-7.11,90.34-32.09,115.01-71.99c3.55-5.74,6.83-11.76,8.99-16.66c0.99-2.25,1.86-4.16,1.92-4.2
		c0.26-0.23,3.21,3.97,3.88,5.51c0.95,2.13,3.22,5.18,5.06,6.72c2.2,1.86,5.02,3.33,6.97,3.63c3.78,0.54,6.6-0.69,7.91-3.55
		C2096.26,1322.86,2096.05,1319.2,2094.67,1315.99z"/>
	<path d="M233.19,367.26c16.84,24.84,25.26,50.1,25.26,75.23c0,17.51-2.89,34.37-8.56,50.39c-6.3,17.81-14.99,30.93-26.12,39.15
		c-17.98,13.39-49.67,15.9-95.06,5.59c0.86,0.19,0.78,0.11-0.22-0.28c-1-0.37-2.66-1.03-4.92-1.78c-6.69-2.25-17.07-5.23-30.4-9.49
		c-11.38-3.63-19.55-11.04-24.4-21.74c-0.86-10.24-1.96-21.33-3.42-33.04c-1.65-13.23-2.57-24-2.57-32.28
		c0-14.55,2.85-27.66,8.57-39.59c3.99-2.76,8.85-3.67,14.56-2.73c3.7,0.61,12.56,7.32,26.54,20.39
		c13.98,13.08,25.4,20.48,34.25,21.89c2.28,0.36,3.85,0.46,4.71,0.28c4.28-2.05,6.43-6.91,6.43-14.49c0-9.12-7.71-21.78-23.13-37.66
		c-23.12-23.78-37.53-39.27-43.24-47.25c-15.41-21.41-23.12-42.87-23.12-65.24c0-20.92,4.85-37.8,14.56-51.1
		c15.7-21.2,38.1-35.43,67.22-42.08c7.99-1.82,13.13-2.74,15.41-2.74c1.43,0,4.65,0.14,9.63,0.45c4.99,0.31,8.06,0.47,9.21,0.47
		c24.55,0.01,40.68,0.96,48.39,2.89c11.41,8.64,17.13,27.18,17.13,55.37c0,14.74-1.13,27.85-3.43,39.23
		c-2.55,12.64-7.86,18.73-15.84,18.3c-6.57-0.36-16.13-5.5-28.69-15.24c-12.56-9.73-21.7-14.63-27.4-14.92
		c-4.28-0.21-8.42,0.81-12.42,3.05c-1.14,2.39-1.71,5.11-1.71,8.15c0,8.26,8.41,20.8,25.26,38.16
		C212.21,341.66,228.05,359.56,233.19,367.26z M480.26,283.2c4.57,22.46,6.84,54.11,6.83,94.53c0,96.69-19.94,159.24-59.82,187.63
		c-12.25,8.77-29.48,12.31-51.7,10.35c-18.8-1.66-33.9-7.94-45.29-18.55c-27.92-25.61-44.44-67.94-49.57-126.82
		c-1.42-16.51-2.13-27.65-2.13-33.43c0-54.62,8.23-103.76,24.78-148.43c17.04-45.98,46.01-69.79,86.75-69.79
		c23.06,0,40.59,7.3,52.55,21.97C461.17,223.56,473.74,251.2,480.26,283.2z M409.17,356.73c0-38.04-8.99-57.42-26.98-57.95
		c-5.14-0.15-9.91,2.89-14.13,9.03c-5.73,8.35-8.57,31.71-8.57,69.6c0,17.8,1,30.85,3,39.18c3.7,16.01,11.13,24.4,22.26,25.06
		c10.56,0.63,17.53-4.66,20.98-15.71c2.24-7.16,3.43-17.92,3.43-32.23C409.17,378.95,409.17,371.55,409.17,356.73z M690.05,181.81
		c-1.44,0-7.19,0.66-17.13,2.09c-21.06,3.02-35.11,9.71-41.96,19.76c-0.86,4.5-1.28,8.81-1.28,12.97c0,2.08,1.56,9.86,4.71,23.3
		c0.56,5.17,1,8.79,1.28,10.84c2.28,23.07,3.42,47.91,3.42,74.49c0,23.17-0.95,48.71-2.57,76.28c-1.2,20.51-1.86,30.98-2.14,31.31
		c-1.72,10.09-8.42,15.13-20.13,15.14c-9.14,0-13.7-6.88-13.7-20.67c0-10.08-1.15-17.57-1.71-21.23
		c-2.43-15.84-0.86-32.78-0.86-43.64c0-15.26,0.49-38.35,1.5-69.5c1-31.15,1.5-54.59,1.5-70.13s-0.15-23.86-0.43-24.9
		c-1.99-12.82-10.7-19.23-26.12-19.23c-3.71,0-8.65,0.84-14.55,2.06c-7.25,1.5-12.28,2.27-14.56,2.6
		c-24.56,3.1-36.83,11.87-36.83,26.3c0,3.44,0.93,7.95,2.58,13.4c2.04,6.78,3.13,11.33,3.42,13.4c1.99,12.7,2.99,30.52,2.99,53.35
		c0,12.62-0.57,31.62-1.71,56.82c-1.14,25.24-1.72,44.02-1.72,56.48c0,33,0.86,61.96,2.57,87.03c4.28,62.81,34.25,94.8,89.91,94.52
		c19.12-0.1,38.31-3.3,57.39-9.65c28.2-9.39,44.36-37.94,48.39-85.65c1.98-23.52,2.98-52.45,2.98-87c0-10.72,0-26.84,0-48.48
		c0-21.62,0-37.95,0-48.85c0-30.64,0.09-51.24,1.08-60.55c1.6-15.06,3.2-26.34,3.2-32.55c0-11.75-2.35-19.72-7.05-23.87
		C707.83,183.9,700.32,181.81,690.05,181.81z M889.56,417.96c-4.01,0.46-10.86,4.25-20.55,11.42c-9.71,7.18-16.84,11.08-21.4,11.62
		c-8,0.95-12.85-2.33-14.57-9.85c-0.57-2.5-0.85-13.26-0.85-32.34c0-21.99,1.34-55.21,4.07-99.88c2.71-44.67,7.11-82.23,4.07-100.86
		c-0.61-3.73-3-8.25-4.72-11.9c-2.57-2.18-3.85-3.28-6.42-5.48c-6.57-1.32-14.13-1.99-22.7-1.99c-23.97,0-44.09,5-60.37,15.06
		c-5.13,3.11-7.7,8.47-7.7,16.06c0,2.07,0.28,4.13,0.85,6.2c3.71,14.46,6.85,32.85,9.43,55.03c0.85,6.82,1.28,10.91,1.28,12.26
		c0,14.66-0.15,28.41-0.43,41.27c-1.2,54.03-1.8,80.76-3,133.63c-0.85,34.46-1.28,64.81-1.28,91.21c0,14.02,4.56,23.53,13.7,26.72
		c5.43,1.8,15.42,1.62,29.97-0.61c18.85-2.89,36.5-6.34,52.24-9.21c3.07-0.56,9.64-1.83,19.27-4.12c7.96-1.89,14.71-3.15,19.27-4.16
		c10.96-2.44,18.26-7.74,20.55-13.72c4.56-11.31,6.85-32.59,6.85-64.08c0-14.04,2.33-36.72-2.57-52.24
		C902.56,421.7,895.27,417.3,889.56,417.96z M1227.8,194.8c0-9.44-10.42-14.13-31.25-14.11c-2.57,0-14.85,1.07-36.82,3.35
		c-6,0.57-10.28,0.99-12.85,1.29c-14.27,2.55-23.12,7.24-26.54,14.05c-5.43,16.13-8.72,27.32-9.85,33.32
		c-3.71,18.56-6.39,32.73-8.13,42.17c-2.76,14.93-6.57,28.98-11.13,41.98c-1.14,1.25-2.15,1.91-3,1.98s-1.44-0.45-1.72-1.58
		c-5.13-13.94-9.13-34.46-11.98-61.57c-3.13-29.69-6.46-50.77-9.85-62.97c-2.58-9.29-9.99-14.02-22.27-14.02
		c-3.14,0-10.6,0.56-22.25,1.79c-25.06,2.65-46.33,5.84-63.37,9.43c-17.93,3.78-26.98,14.27-26.98,30.99
		c0,4.43,0.91,9.63,2.58,15.53c2.01,7.11,3.22,11.9,3.42,14.01c0.94,9.89,0.81,17.25,0.85,20.64c0.28,26.62,0.87,43.21,0.87,49.13
		c0,14.95-0.15,37.51-0.43,67.56c-0.29,30.07-0.43,52.42-0.43,67.19c0,28.62,0.35,51.59,0.87,68.86
		c0.31,10.32,2.57,17.13,6.85,20.34c9.99,1.89,15.97,2.63,17.98,2.27c14.83-2.65,27.16-7.28,36.82-13.79
		c6.55-4.41,9.85-12.29,9.85-23.58c0-11.58-1.08-28.83-3.22-51.93c-2.13-23.1-3.22-40.57-3.22-52.24c0-1.2,0.14-3.85,0.43-7.93
		c0.28-4.08,0.43-6.71,0.43-7.91c0-1.2-0.29-3.57-0.87-7.1c-0.57-3.54-0.85-5.76-0.85-6.67c0-2.39,0.71-5.33,2.13-8.78
		c1.44-3.45,3-5.25,4.72-5.42c1.14-0.12,1.86,0.56,2.13,2.02c1.72,7.6,2.72,13.02,3,16.25c3.14,17.27,5.43,29.44,6.85,36.67
		c4.01,24.42,6.85,42.72,8.57,55.13c6.28,36.76,13.28,54.74,20.98,54.47c9.98-0.34,17.98-1.11,23.97-2.21
		c15.7-2.89,24.55-7.11,26.55-12.6c3.11-8.53,5.22-14.49,6-17.72c1.53-6.34,2.41-10.94,2.98-13.31
		c4.97-26.07,7.45-39.04,12.42-64.79c4.56-23.77,9.28-44.86,14.13-63.28c1.42-5.75,3.42-9.58,6-11.51c3.42,0.78,5.13,3.53,5.13,8.25
		c0-0.83-0.15,0.17-0.43,2.97c-1.14,14.32-1.86,24.3-2.13,29.91c-2.86,36.88-4.28,71.71-4.28,104.22c0,7.85,0.99,13.42,2.97,16.71
		c1.13,1.75,3.53,3.35,7.21,4.79c3.67,1.42,6.63,1.91,8.89,1.5c29.97-5.5,50.16-12.3,60.63-20.37c3.94-8.8,5.92-14.52,5.92-17.22
		c0-11.32,0-16.98,0-28.27c-0.28-8.29-0.42-17.69-0.42-28.13c0-16.1,0.14-40.3,0.42-72.41c0.29-32.11,0.43-56.01,0.43-71.88
		c0-6.34,0.36-15.87,1.07-28.55c0.71-12.67,1.08-22.14,1.08-28.44c0-1.58-0.15-4.72-0.43-9.43
		C1227.94,199.11,1227.8,196.1,1227.8,194.8z M1471.85,417.7c2.58,15.71,3.87,24.13,3.87,25.09c0,5.64-4.02,9.82-12,12.6
		c-11.98,4.17-24.97,7.34-38.95,9.44c-14.84,2.23-26.84,1.47-35.97-2.4c-2.29-5.95-3.91-13.84-4.72-23.44
		c-0.91-10.86-1.51-21.32-3.42-23.58c-1.72-2.03-9-2.53-14.98-1.71c-2.01,0.27-8.43,1.89-19.27,4.93
		c-1.72,3.79-3.95,13.07-6.85,27.76c-1.4,7.1-2.72,14.27-3.85,21.4c-1.14,1.48-3.29,2.99-6.43,4.53c-3.08,1.9-4.62,2.85-7.7,4.77
		c-11.98,4.87-23.98,8.37-35.97,10.45c-12.56,2.18-20.92,2.4-25.05,0.6c-4.12-1.8-6.56-6.19-6.2-11.93c0.13-2.06,1.28-9.7,3-22.47
		c1.42-10.59,6.42-34.84,14.98-71.72c6.33-26.98,9.5-40.31,15.84-66.59c6.57-28.04,9.85-48.93,9.85-63.32c0-4.04-1.51-9.97-4.5-17.8
		c-2.99-7.84-4.48-13.81-4.48-17.85c0-6.07,2.13-10.91,6.42-14.49c0.57-0.5,3.28-1.93,8.13-4.25c19.7-9.47,44.68-15.1,74.92-17.27
		c10.79-0.72,16.19-1.07,26.98-1.76c16.84,0,30.04,5,32.1,11.55c7.25,23.08,7.14,68.37,14.57,112.16
		C1460.04,347.78,1463.98,370.86,1471.85,417.7z M1375.53,314.07c0-4.63-0.59-11.48-1.72-20.52c-1.14-9.04-1.72-15.86-1.72-20.45
		c0-3.15,0.14-5.46,0.43-6.93c-1.71-0.77-2.57-1.16-4.28-1.93c-9.71,27.69-14.57,47.51-14.57,58.41c0,6.94,3.14,10.11,9.43,9.51
		c3.7-0.35,7.41-1.94,11.13-4.74C1375.1,323.15,1375.53,318.71,1375.53,314.07z M1695.35,183.79c-10.56-3.41-43.53-5.09-98.91-5.09
		c-58.22,0-88.65,2.87-91.19,5.03c-3.69,3.15-8.13,11.53-8.13,26c0,0.67,0.29,2.5,0.42,5.09c0.13,2.58,0,5.11,0,7.15
		c0,9.4,0,14.11,0,23.58c0,2.06,0.13,4.5,0,6.88c-0.13,2.4-0.42,4.02-0.42,4.48c0,16.08,4.13,24.18,12.4,24.12
		c5.15-0.03,12.06-3.26,20.77-9.62c8.71-6.37,15.77-9.53,21.2-9.54c3.14,1.83,4.65,5.16,4.28,9.66c-0.44,5.42-0.29,9.1,0.85,10.73
		c-2.86,37.66-5.18,66.98-6.42,86.74c-0.34,5.41-1.01,13.89-2.15,25.37c-0.85,8.6-1.28,14.73-1.28,18.33c0,1.15,0,1.73,0,2.88
		c0.28,1.44,0.43,2.4,0.43,2.88c0,1.44-0.15,4.33-0.43,8.68c-0.28,4.35-0.42,7-0.42,7.97c0,11.35,4.56,19.05,13.7,23.03
		c5.82-0.09,8.73-0.13,14.55-0.19c28.25-0.31,44.24-0.54,47.95-1.24c17.41-2.81,26.12-11.46,26.12-26.08
		c0-4.32-0.93-10.97-2.78-19.94c-1.86-8.98-2.78-15.71-2.78-20.22c0-13.29-0.14-33.13-0.43-59.23c-0.28-26.1-0.42-45.45-0.42-58.37
		c0-5.08,2.41-8.28,7.27-9.62c4.28,0.27,10.42,3.19,18.42,8.82s13.98,8.5,17.99,8.56c11.41,0.17,17.12-8.45,17.12-25.76
		c0-0.45,0.14-2.23,0-4.83c-0.13-2.41-0.42-4.85-0.42-6.92c0-4.69,0-7.04,0-11.71c0-2.98,0.28-7.34,0.85-13.07
		c0.57-5.71,0.85-10.05,0.85-13.02C1704.34,192.99,1701.35,185.83,1695.35,183.79z M1825.39,246.36c1.42,0.28,7.66,0.55,18.7,0.85
		c7.08,0.19,16.36,2.95,27.82,8.41c11.45,5.46,19.75,8.39,24.85,8.59c13.59,0.55,20.4-8.43,20.4-26.91c0-7.89-0.51-14.76-1.72-20.35
		c-0.79-3.67-1.28-6.29-1.28-7.75c-1.15-15.72-5.39-25.38-11.13-26.5c-21.5-4.18-43.96-2.94-58.24-2.94c-1.14,0-4.42-0.18-9.84-0.54
		c-5.43-0.36-9-0.52-10.72-0.52c-16.95,0-25.43,0-42.39,0c2.29,0-1.42,0.23-11.13,0.69c-19.69,0.92-33.82,4.24-42.39,9.92
		c-2.57,4.1-3.85,8.56-3.85,13.37c0,5.27,1.86,12.5,5.57,21.74c3.99,9.95,6,17.4,6,22.26c-1.03,36.27-1.54,54.56-2.57,91.47
		c-1.14,39.82-1.72,70.43-1.72,91.31c0,15.84,6.14,25.52,18.4,29.08c6.28,1.79,20.55,3.28,42.82,4.92
		c39.96,2.93,66.65,5.9,80.07,7.4c1.42,0.16,2.71,0.31,3.85,0.44c1.37,0.16,2.06,0.24,3.43,0.39c8.55,0.99,16.41,0.46,23.54-1.65
		c7.42-9.33,11.13-26.64,11.13-51.7c0-2,0.3-6.36,0.87-13.06c0.57-6.68,0.85-11.04,0.85-13.05c0-3.24-0.43-6.79-1.28-10.62
		c-0.85-3.83-2.72-7.75-5.57-11.74c-2.86-3.99-5.57-6.08-8.13-6.29c-3.14-0.27-13.57,2.21-31.25,7.45
		c-17.69,5.24-30.97,7.57-39.82,6.97c-6.85-0.46-11.71-1.86-14.57-4.21c-4.28-3.64-6.42-10.02-6.42-19.16
		c0-14.41,2.85-21.45,8.57-21.15c4.84,2.41,11.13,5.5,18.83,9.35c12.28,6.04,22.7,9.44,31.25,10.04c4.01,0.28,7.76-1.89,11.13-6.56
		c2.85-3.94,4.56-7.78,5.13-11.42c0-2.21,0-3.31,0-5.52c0-3.92,0.29-9.85,0.87-17.78c0.57-7.93,0.85-13.84,0.85-17.76
		c0-7.83-0.85-13.11-2.54-15.88c-2.83-4.51-8.06-6.91-15.67-7.21c-5.09-0.2-13.41,1.61-24.99,5.37c-11.57,3.76-19.48,5.55-23.71,5.4
		c-2.26-0.08-4.53-0.87-6.77-2.38c-1.98-6.48-2.97-11.85-2.97-16.11C1809.68,253.78,1814.92,248.24,1825.39,246.36z M2106.39,344.11
		c-5.13-7.06-20.98-23.71-47.52-47.75c-16.86-15.42-25.27-26.26-25.27-33.4c0-2.63,0.57-4.98,1.72-7.04
		c3.99-1.91,8.13-2.76,12.42-2.53c5.71,0.3,14.84,4.63,27.4,13.34c12.55,8.71,22.11,13.53,28.69,14.05
		c7.98,0.64,13.28-4.52,15.84-15.58c2.3-9.96,3.43-21.5,3.43-34.47c0-24.82-5.72-41.16-17.14-48.71c-7.7-1.69-23.83-2.52-48.37-2.53
		c-1.15,0-4.22-0.13-9.22-0.41c-4.99-0.26-8.21-0.39-9.63-0.39c-2.29,0-7.42,0.79-15.42,2.35c-29.1,5.7-51.53,17.91-67.22,36.39
		c-9.69,11.59-14.55,26.37-14.55,44.62c0,19.51,7.7,38.03,23.12,56.3c5.71,6.8,20.13,19.84,43.25,40.47
		c15.4,13.77,23.12,24.97,23.12,32.93c0,6.62-2.15,10.82-6.42,12.58c-0.87,0.15-2.43,0.05-4.72-0.28
		c-8.85-1.27-20.27-7.69-34.25-18.82c-14-11.12-22.84-16.63-26.55-17.02c-5.71-0.59-10.56,0.43-14.55,3.07
		c-5.72,10.8-8.57,22.58-8.57,35.46c0,7.33,0.92,16.81,2.57,28.4c1.46,10.27,2.57,20.01,3.43,29.03c4.84,9.1,13.01,14.98,24.4,17.53
		c13.34,3,23.69,5.31,30.4,7.16c2.25,0.62,3.91,1.16,4.92,1.48c1.01,0.33,1.07,0.39,0.22,0.24c45.39,8.35,77.07,8.95,95.06-1.36
		c11.14-6.31,19.82-17.1,26.12-32.35c5.67-13.72,8.57-28.53,8.57-44.17C2131.66,390.24,2123.23,366.91,2106.39,344.11z"/>
	<path d="M301.96,637.18c2.27,13.01,3.41,42.65,3.41,88.57c0,31.59-0.19,48.33-0.57,50.36c-2.65,20.12-11.56,28.78-26.7,25.68
		c-8.72-1.79-19.52-8.9-32.39-21.34c-16.26-15.71-26.71-25.3-31.25-28.49c-0.77-0.19-2.85-1.01-6.25-2.5
		c-3.41-1.47-5.68-2.38-6.82-2.68c-4.55-1.19-8.14,1.94-10.23,3.36c-2.19,1.5-6.25,9.6-6.25,26.16c0,19-0.45,35.49,2.27,41.27
		c2.02,4.29,8.52,8.03,13.07,9.36c4.92,1.44,13.08-0.43,24.43-6.02c11.35-5.59,20.07-7.87,26.13-6.45
		c13.25,3.11,21.02,20.72,23.3,53.13c0.37,5.06,0.57,21.89,0.57,50.41c0,21.89-0.95,36.1-2.85,42.62
		c-4.18,14.19-15.39,20.22-28.41,15.16c-1.8-0.7-4.18-2.42-6.82-4.43c-6.82-5.67-18.19-18.45-34.09-38.62
		c-0.39-0.52-1.34-1.05-2.85-1.55c-1.14-0.38-4.55,1.96-10.23,6.82c-0.76,7.79-1.14,14.49-1.14,20.1c0,14.88,1.71,35.36,5.12,61.52
		c2.64,20.26,3.97,33.2,3.97,38.82c0,4.43-0.57,7.43-1.7,8.99c-2.27,7.55-20.86,6.03-55.69-8.68c-13.3-5.62-20.1-8.7-20.61-8.87
		c-0.96-0.55-2.5-1.51-4.67-2.92c-2.84-1.83-4.65-2.95-5.4-3.34c-15.91-8.23-26.52-17.16-31.83-25.89
		c-4.93-16.52-7.38-35.02-7.38-55.57c0-6.46,0.29-16.19,0.85-29.21c0.57-13.01,0.86-22.77,0.86-29.26c0-7.54,0-11.31,0-18.84
		c0-3.44,0.18-7.43,0-11.43c-0.18-4.21-0.57-6.95-0.57-7.71c0-14.08,0.66-34.6,1.99-61.64c1.32-27.05,1.99-47.69,1.99-61.83
		c0-5.72-0.28-14.44-0.85-26.1c-0.57-11.67-0.85-20.36-0.85-26.09c0-35.85-3.41-63.59-10.23-82.91c0-15.16,3.22-23.97,9.67-26.59
		c12.12-5.09,39.57-1.45,82.38,8.56c-4.17-0.97,22.24,6.61,78.98,18.19c34.81,7.11,54.63,11.91,59.37,15.99
		C298.45,627.36,301.19,631.99,301.96,637.18z M119.41,1049.89c-0.13-0.04,0.04,0.05,0.73,0.4
		C119.95,1050.2,119.7,1050.06,119.41,1049.89z M599.14,766.03c6.07,28,9.07,67.43,9.07,117.68c0,120.2-26.47,199.61-79.38,238.76
		c-16.26,12.09-39.13,18.11-68.61,16.56c-24.95-1.31-44.98-9.29-60.11-23.08c-37.04-33.3-58.97-89.84-65.78-166.96
		c-1.89-21.6-2.83-36.19-2.83-43.72c0-71.09,10.92-134.14,32.88-190.35c22.61-57.87,61.05-85.24,115.11-82.84
		c30.61,1.36,53.86,11.19,69.75,30.05C573.81,691.53,590.49,726.11,599.14,766.03z M504.8,860.69c0-48.37-11.93-73.11-35.79-74.42
		c-6.82-0.37-13.16,3.32-18.75,11.04c-7.6,10.49-11.37,40.43-11.37,89.1c0,22.86,1.32,39.59,3.97,50.33
		c4.92,20.57,14.78,31.37,29.55,32.12c14.01,0.71,23.26-6.22,27.84-20.3c2.97-9.13,4.54-22.77,4.54-40.9
		C504.8,888.92,504.8,879.53,504.8,860.69z M920.72,918.47c3.03,11.73,4.55,23.66,4.55,35.75c0,31.25-5.09,58.58-15.34,81.97
		c-13.58,30.97-34.08,50.29-61.36,57.46c-9.49,2.5-17.26,2.75-23.29,0.78c-18.96-5.68-31.99-20.93-37.52-44.67
		c-3.23-13.89-7.76-35.5-14.2-64.29c-0.4-0.3-2.47-3.61-6.25-9.97c-2.66-4.2-5.69-5.94-9.09-5.21c-5.32,1.15-8.63,7.01-10.24,17.82
		c-0.72,4.84-1.14,11.7-1.14,20.41c0,7.13,0.57,17.64,1.7,31.41c1.13,13.78,1.7,24.15,1.7,31.17c0,9.77-0.53,17.47-1.7,23.07
		c-2.19,10.46-16.67,18.23-43.18,22.23c-2.27,0.34-8.06,1.61-17.33,3.7c-9.28,2.09-15.25,3.26-17.89,3.6
		c-15.16,1.94-23.49-2.76-25-13.82c-0.39-0.76-0.57-14.52-0.57-41.57c0-33.09,0.85-83.22,2.56-151.61
		c1.7-68.38,2.55-120.56,2.55-155.33c0-6.35-2.18-16.65-6.53-31.01c-4.35-14.36-6.53-25.45-6.53-33.18c0-9.44,3.22-17.89,9.66-25.38
		c9.47-11,22.35-19.35,38.64-25.1c4.16-1.43,18.94-4.95,44.33-10.9c2.5-0.64,3.75-0.96,6.25-1.6c4.55-1.07,9.12-2.51,13.05-3.24
		c13.88-2.55,23.88-4.5,26.13-4.87c5.69-0.93,15.96-1.38,30.68-1.36c35.92,0.05,64.07,8.52,84.12,25.27
		c21.95,18.34,32.94,45.42,32.94,81.75c0,32.74-8.13,63.86-24.43,93.73c-4.92,9.19-14.6,21.92-28.98,38.21
		c-8.72,10.11-13.05,17.15-13.05,21.12c0,7.17,3.41,12.71,10.21,16.53c6.82,3.83,14.01,4.75,21.59,2.78
		c1.52-0.39,3.9-1.49,7.11-3.31c3.22-1.82,5.6-2.94,7.11-3.34C910.3,895.3,916.55,902.34,920.72,918.47z M808.79,792.33
		c0-23.65-10.05-33.49-30.12-29.54c-4.55,0.89-7.39,1.64-8.54,2.29c-9.84,5.21-14.75,18.38-14.75,39.38c0,6.68,0,10.01,0,16.67
		c0,10.26,9.09,13.58,27.28,9.77c7.95-1.67,14.29-6.17,19.02-13.5C806.41,810.06,808.79,801.72,808.79,792.33z M1077.94,678.21
		c1.89-0.07,10.14-1.88,24.8-5.43c9.4-2.28,21.7-1.28,36.91,2.83c15.22,4.13,26.23,5.27,32.98,3.6
		c18.05-4.46,27.06-20.46,27.06-47.92c0-11.71-0.67-21.72-2.27-29.68c-1.04-5.17-1.7-8.94-1.7-11.14
		c-1.52-23.08-7.46-36.31-14.77-36.45c-28.49-0.54-58.35,7.42-77.29,11.28c-1.52,0.31-5.88,0.92-13.07,1.81
		c-7.19,0.89-11.92,1.57-14.2,2.03c-22.5,4.56-33.75,6.84-56.26,11.36c3.03-0.61-1.9,0.78-14.77,4.13
		c-26.15,6.82-44.89,16.27-56.26,28.56c-3.4,7.89-5.12,16.07-5.12,24.47c0,9.22,2.46,21.3,7.39,36.13
		c5.3,15.93,7.95,27.97,7.95,36.29c-1.36,62.27-2.04,93.24-3.4,154.78c-1.52,66.43-2.27,116.11-2.27,149.63
		c0,25.44,8.13,38,24.43,37.68c8.34-0.22,27.28-4.81,56.81-13.99c53.04-16.49,88.45-27.73,106.25-33.31c1.9-0.59,3.6-1.13,5.12-1.6
		c1.82-0.57,2.73-0.85,4.55-1.42c11.37-3.55,21.77-9.04,31.25-16.48c9.85-18.46,14.77-46.38,14.77-83.71
		c0-2.99,0.38-9.64,1.14-19.92c0.77-10.29,1.13-16.91,1.13-19.89c0-4.83-0.57-9.9-1.7-15.14c-1.14-5.25-3.6-10.12-7.39-14.62
		c-3.79-4.51-7.38-6.29-10.79-5.31c-4.18,1.19-17.98,10.13-41.47,27.12c-23.49,17-41.1,27.37-52.84,30.83
		c-9.09,2.68-15.54,2.86-19.31,0.54c-5.69-3.67-8.54-12.77-8.54-27.3c0-22.94,3.79-35.46,11.37-37.59
		c6.43,1.62,14.78,3.66,25.01,6.07c16.28,3.73,30.11,3.89,41.47,0.64c5.3-1.52,10.29-6.7,14.78-15.46
		c3.79-7.38,6.05-14.05,6.82-19.88c0-3.36,0-5.05,0-8.41c0-5.96,0.37-15.14,1.13-27.47c0.76-12.33,1.14-21.47,1.14-27.43
		c0-11.93-1.13-19.63-3.39-23.16c-3.74-5.76-10.67-7.36-20.78-4.81c-6.76,1.71-17.8,7.77-33.15,18.34
		c-15.36,10.57-25.86,16.64-31.47,18.1c-3,0.78-6,0.4-8.98-1.13c-2.63-9.66-3.94-17.96-3.94-24.87
		C1057.08,695.92,1064.04,685.02,1077.94,678.21z M1508.24,498.38c-31.45,1.18-56.64,5.54-75.57,16.02
		c-12.14,6.71-18.19,15.87-18.19,27.37c0,4.06,0.76,8.18,2.27,12.31c3.03,8.28,4.55,17.69,4.55,28.28
		c0,24.61-2.84,58.49-8.52,102.55c-1.82,15.14-2.73,22.75-4.55,38.05c-0.77,6.21-1.34,9.72-1.72,10.5
		c-1.52,9.24-5.1,14.51-10.79,15.82c-4.92,1.13-9.09-9.4-11.37-30.53c-6.54-60.88-9.23-104.08-10.79-127.61
		c-2.2-33.04-4.5-53.45-6.82-61.17c-3.29-10.94-12.7-15.18-27.84-12.43c-2.27,0.41-9.12,2.21-20.46,5.31
		c-28.68,7.85-46.98,13.67-54.54,17.28c-23.88,10.73-35.8,23.5-35.8,37.93c0,7.95,6.55,18.57,12.49,29.77
		c4.81,9.07,6.62,18.71,7.39,23.21c8.32,49.68,14.2,84.1,17.61,103.21c17.04,108.66,27.28,172.25,30.68,188.72
		c3.42,16.47,10.47,25.16,21.03,25.91c8.66,0.61,29.54-3.76,62.49-12.02c32.58-8.17,54.56-17.08,65.92-27.71
		c7.56-7.21,12.87-17.4,15.91-31.42c17.5-79.86,26.25-118.12,43.75-192.12c21.96-93.46,32.95-147.15,32.95-168.13
		C1538.35,504.05,1528.31,497.62,1508.24,498.38z M1700.12,588.95c1.89,0.4,10.14,0.83,24.8,1.57c9.4,0.48,21.7,4.6,36.91,12.64
		c15.22,8.05,26.23,12.57,32.98,13.23c18.05,1.76,27.06-9.6,27.06-34.39c0-10.56-0.68-19.84-2.27-27.45c-1.05-5-1.7-8.55-1.7-10.52
		c-1.52-21.18-7.07-34.57-14.77-36.73c-28.37-7.95-58.35-8.11-77.29-9.01c-1.52-0.07-5.88-0.52-13.07-1.3s-11.92-1.18-14.2-1.26
		c-22.5-0.78-33.75-1.02-56.26-1.26c3.03,0.03-1.9,0.28-14.77,0.85c-26.15,1.18-44.89,6.15-56.26,14.49
		c-3.4,5.92-5.12,12.33-5.12,19.2c0,7.54,2.46,17.8,7.39,30.87c5.3,14.04,7.95,24.57,7.95,31.55c-1.36,51.99-2.04,78.4-3.4,132.09
		c-1.52,57.95-2.27,102.95-2.27,133.66c0,23.3,8.13,36.38,24.43,39.4c8.33,1.49,27.28,1.03,56.81,0.21
		c53.04-1.47,88.45,1.11,106.25,2.5c1.9,0.15,3.6,0.29,5.12,0.41c1.82,0.15,2.73,0.23,4.55,0.39c11.37,1,21.77,0.06,31.25-2.91
		c9.85-12.93,14.77-36.48,14.77-70.62c0-2.73,0.38-8.67,1.14-17.75c0.77-9.09,1.13-14.99,1.13-17.71c0-4.41-0.57-9.27-1.7-14.49
		c-1.14-5.24-3.6-10.65-7.39-16.2c-3.79-5.56-7.38-8.52-10.79-8.91c-4.18-0.48-17.98,2.4-41.47,9.68
		c-23.49,7.3-41.1,11.19-52.84,10.81c-9.09-0.3-15.54-1.95-19.31-5.07c-5.69-4.86-8.54-13.73-8.54-26.59
		c0-20.31,3.79-30.31,11.37-30.12c6.43,3.18,14.78,7.29,25,12.43c16.28,8.09,30.11,12.67,41.47,13.53c5.3,0.4,10.3-2.57,14.78-8.88
		c3.78-5.33,6.05-10.54,6.82-15.5c0-3.02,0-4.53,0-7.54c0-5.35,0.37-13.45,1.13-24.22c0.76-10.78,1.14-18.81,1.14-24.13
		c0-10.64-1.13-17.87-3.39-21.72c-3.74-6.29-10.67-9.85-20.78-10.58c-6.76-0.49-17.8,1.63-33.15,6.65
		c-15.36,5.02-25.86,7.59-31.47,7.43c-3-0.09-6-1.17-8.99-3.23c-2.63-9.01-3.94-16.47-3.94-22.41
		C1679.26,599.15,1686.22,591.41,1700.12,588.95z M2137.22,903.19c0,30.4-5.09,52.95-15.34,67.24
		c-13.55,18.89-34.08,20.53-61.36,7.71c-9.48-4.46-17.24-9.53-23.29-15.42c-18.96-17.98-31.93-39.37-37.52-64.43
		c-3.2-14.37-7.76-36.62-14.2-65.55c-0.39-0.47-2.47-4.51-6.25-12.03c-2.66-5.05-5.69-8.08-9.09-9.09
		c-5.32-1.57-8.64,2.29-10.24,11.17c-0.71,3.94-1.13,9.81-1.13,17.5c0,6.29,0.57,15.81,1.7,28.58c1.14,12.79,1.7,22.35,1.7,28.68
		c0,8.79-0.53,15.51-1.7,20.02c-2.18,8.38-16.67,8.12-43.18,1.18c-2.27-0.59-8.06-1.78-17.34-3.3c-9.29-1.53-15.25-2.46-17.91-3.03
		c-15.15-3.28-23.49-9.59-24.99-19.53c-0.39-0.76-0.57-12.72-0.57-35.75c0-28.17,0.84-70.34,2.55-125.95
		c1.71-55.61,2.57-96.84,2.57-124.23c0-5-2.2-13.5-6.54-25.38c-4.36-11.88-6.53-20.75-6.53-26.71c0-7.28,3.2-13.34,9.65-18.18
		c9.46-7.1,22.34-11.64,38.64-13.34c4.16-0.41,18.93-0.73,44.32-0.24c2.5,0.01,3.75,0.01,6.25,0.03c4.55,0.11,9.16-0.05,13.07,0.23
		c14.32,1.03,23.86,3.39,26.14,3.83c5.69,1.11,15.95,4.11,30.68,9.43c35.94,12.99,64.05,32.42,84.11,57.34
		c21.96,27.29,32.95,59.34,32.95,93.74c0,31.01-8.15,55.45-24.43,72.93c-4.93,5.43-14.6,11.06-28.98,17.1
		c-8.72,3.88-13.07,7.68-13.07,11.31c0,6.55,3.4,13.68,10.22,21.6c6.82,7.92,14.01,13.57,21.59,16.92c1.52,0.67,3.88,1.26,7.11,1.79
		c3.2,0.51,5.58,1.13,7.1,1.83c8.32,3.81,14.58,15.09,18.74,33.84C2135.71,878.64,2137.22,891.42,2137.22,903.19z M2020.75,680.94
		c0-20.54-10.04-33.71-30.11-38.73c-4.55-1.14-7.39-1.65-8.54-1.57c-9.85,0.39-14.77,9.46-14.77,27.12c0,5.62,0,8.43,0,14.04
		c0,8.66,9.09,15.16,27.28,20.23c7.95,2.22,14.29,1.36,19.04-2.73C2018.38,695.22,2020.75,689.1,2020.75,680.94z"/>
	<path d="M896.85,1328.19c-9.85-66.23-8.23-137.53-19.31-176.81c-2.73-9.69-20.27-13.9-42.6-8.15c-14.33,4.84-21.49,7.21-35.81,11.8
		c-40.14,13.1-73.3,28.16-99.43,47.05c-6.43,4.61-10.04,7.35-10.79,8.26c-5.68,6.14-8.52,13.61-8.52,22.44
		c0,5.89,1.99,14.29,5.97,25.23c3.97,10.92,5.95,19.31,5.95,25.14c0,20.79-4.35,51.26-13.05,90.31
		c-8.41,36.59-12.62,54.55-21.03,89.9c-11.37,48.35-17.99,78.24-19.89,91.48c-2.27,15.97-3.8,25.4-3.97,27.92
		c-0.49,7.16,2.74,13.03,8.23,15.99c5.49,2.97,16.57,4.14,33.24,3.28c15.91-0.82,31.82-3.63,47.74-8.52
		c4.09-2.13,6.13-3.2,10.22-5.36c4.16-1.67,7.01-3.45,8.52-5.29c1.52-9.36,3.26-18.81,5.12-28.3c3.85-19.6,6.82-32.24,9.08-37.61
		c14.41-5.02,22.92-7.9,25.58-8.47c7.95-1.69,17.7-1.54,19.89,0.98c2.56,2.94,3.33,17.66,4.55,32.74
		c1.07,13.34,3.22,24.11,6.25,32.17c12.12,4.8,28.04,5.15,47.74,0.88c18.56-4.03,35.8-10.53,51.7-19.55
		c10.61-6.01,15.93-13.22,15.93-21.5c0-1.44-1.72-13.45-5.13-36.1C912.53,1430.62,907.3,1396.76,896.85,1328.19z M793.44,1383.28
		c-4.93,4.79-9.85,7.72-14.77,8.83c-8.35,1.89-12.49-2.26-12.49-12.41c0-15.95,6.43-45.67,19.3-90.13c2.28,0.8,3.41,1.19,5.69,1.98
		c-0.37,2.31-0.56,5.88-0.56,10.67c0,7,0.74,17.24,2.26,30.63c1.52,13.38,2.29,23.51,2.29,30.42S794.57,1376.86,793.44,1383.28z
		 M1251.4,1035.23c0.4,4.39,0.56,12.84,0.56,25.45c0,18.36-0.8,41.8-2.26,70.31c-1.56,30.42-2.66,54.34-2.85,70.92
		c-0.2,18.01-0.39,50.7-1.14,97.83c-0.9,43.17-1.35,64.86-2.26,108.41c0,39.06-6.07,62.84-18.19,70.84
		c-15.11,9.97-37.7,18.47-67.62,25.75c-13.25,3.22-24.76,4.72-34.1,4.86c-5.24,0.08-9.85-6.25-13.64-19.08
		c-5.68-18.81-8.52-28.16-14.2-46.81c-5.69-19.08-16.48-51.81-32.38-97.66c-0.77-2.05-2.66-4.15-5.69-6.3
		c-2.66,6.44-3.97,14.16-3.97,23.18c0,2.65,0.37,8.84,1.13,18.59c0.77,9.75,1.14,16.14,1.14,19.14c0,4.29,0,6.44,0,10.73
		c-0.37,3.12-0.56,6.55-0.56,10.3c0,9.02,0.93,22.21,2.83,39.53c1.9,17.34,2.83,30.54,2.83,39.55c0,3.38-1.61,8.02-4.82,13.87
		c-3.22,5.86-6.34,9.72-9.37,11.57c-9.46,6.06-23.68,11.37-42.62,15.93c-10.98,2.64-19.89,3.48-26.69,2.54
		c-8.72,3.18-14.03-1.37-15.93-13.65c0.37,2.09,0.59-7.39,0.59-28.55c0-31.72,1.5-79.63,4.53-144.53
		c3.03-64.9,4.55-114.08,4.55-146.73c0-6.75-2.37-16.44-7.1-29.13s-7.11-22.8-7.11-30.36c0-5.65,1.14-11.32,3.42-16.97
		c9.46-10.48,21.62-19.98,36.36-28.29c13.57-7.66,38.36-20.18,71.6-32.18c15.8-5.7,27.65-4.8,32.97,1.46
		c3.4,4.2,8.32,19.22,14.77,45.14c2.27,11.38,5.89,28.57,11.37,50.87c5.05,20.53,12.68,42.63,22.14,65.97
		c1.9,0.57,3.8,0.56,5.69-0.02c1.52-0.46,2.46-0.93,2.85-1.44c2.27-12.13,3.4-23.56,3.4-34.25c0-8.01-0.56-16.79-1.7-26.36
		c-5.3-44.45-7.95-74.54-7.95-90.48c0-15.56,5.47-26.69,16.48-33.54c18.54-11.87,39.96-21.55,64.21-28.9
		c0.74-0.23,2.26-0.3,4.55-0.25C1245.9,1022.89,1250.68,1027.2,1251.4,1035.23z M1528.11,1011.19c-5.3-8.23-9.46-13.98-12.49-17.39
		c-22.73-24.3-60.99-30.34-114.77-17.41c-31.07,7.47-61,20.64-89.78,39.24c-9.09,5.94-14.03,9.24-14.77,9.82
		c-10.22,9.32-15.36,18.75-15.36,28.28c0,7.64,2.94,17.46,8.81,29.57c5.86,12.11,8.81,21.87,8.81,29.18c0,1.16,0.38,4.55,0.56,9.66
		c0.17,4.85,0,9.46,0,13.32c-0.68,47.67-1.02,71.69-1.7,120.06c-0.76,38.23-1.13,70.52-1.13,96.67c0,17.05,0.49,37.13,1.13,60.01
		c0.47,17,0.76,25.84,1.14,26.14c3.02,16.52,11.92,24.57,26.71,24.13c10.59-0.31,25.93-2.65,46.02-6.85
		c29.55-6.18,56.46-16.04,80.68-23.38c39.37-11.93,68.95-44.97,88.64-99.52c4.18-11.93,7.2-23.16,9.09-33.64
		c1.14-6.28,2.74-17.68,4.55-33.85c4.75-42.6,6.82-77.38,6.82-103.81C1561.07,1096.76,1550.09,1046.37,1528.11,1011.19z
		 M1426.98,1276.29c-3.05,0.67-10.74,2.28-15.91,0.54c-2.51-0.84-5.21-4.66-5.69-7.11c-1.24-6.33-1.13-26.1-1.13-56.92
		c0-62.02,2.85-94.65,8.52-99.48c3.79-3.22,7.39-5.21,10.79-5.99c9.46-2.17,16.28,1.94,20.46,12.31
		c9.09,22.51,13.64,47.99,13.64,74.99C1457.66,1245.04,1447.44,1271.82,1426.98,1276.29z"/>
	<path d="M348.85,1803.45c-10.16-63.44-9.89-130.44-19.92-167.63c-2.93-10.86-20.89-20.49-43.93-24.51
		c-14.76-1.53-22.14-2.38-36.9-4.29c-41.4-5.13-75.56-5.63-102.5,0.81c-6.65,1.55-10.35,2.58-11.13,3.1
		c-5.85,3.61-8.78,9.94-8.78,18.94c0,5.99,2.05,15.47,6.15,28.25c4.1,12.79,6.15,22.06,6.15,28.02c0,21.18-4.49,50.54-13.47,88.99
		c-8.67,35.95-13,54.13-21.67,91.09c-11.72,50.55-18.56,84.2-20.51,99.12c-2.34,17.97-3.92,28.76-4.1,31.66
		c-0.51,8.32,2.82,15.18,8.49,18.86c5.66,3.66,17.08,5.46,34.27,5.46c16.4,0,32.8-2.03,49.21-5.93c4.22-1.92,6.32-2.88,10.54-4.78
		c4.29-1.38,7.22-2.96,8.79-4.71c1.55-9.57,3.35-19.14,5.27-28.62c3.96-19.63,7.04-31.92,9.38-36.73
		c14.83-1.37,23.62-1.98,26.36-1.85c8.2,0.4,17.97,2.64,20.5,6.12c2.74,3.79,3.45,18.06,4.68,33.03c1.1,13.29,3.32,24.29,6.45,32.79
		c12.49,7.2,28.89,10.68,49.2,10.68c19.13,0,36.91-2.48,53.3-7.28c10.92-3.2,16.4-8.47,16.4-15.89c0-1.28-1.76-12.38-5.27-33.54
		C365.01,1901.48,359.62,1869.22,348.85,1803.45z M242.24,1820.16c-5.08,2.93-10.16,4.13-15.23,3.56
		c-8.59-0.97-12.89-6.43-12.89-16.33c0-15.56,6.64-42.37,19.92-79.71c2.35,1.63,3.52,2.45,5.86,4.07c-0.39,2.05-0.59,5.36-0.59,9.92
		c0,6.67,0.78,16.69,2.34,30.01c1.55,13.32,2.34,23.26,2.34,29.88C243.99,1808.17,243.4,1814.37,242.24,1820.16z M634.68,1892.29
		c5.78,14.83,3.52,39.03,3.52,53.15c0,31.7-3.13,52.5-9.37,62.96c-3.13,5.54-13.08,9.55-28.12,10.14
		c-6.38,0.25-15.47,0.36-26.36,0.92c-13.21,0.67-22.13,0.86-26.36,0.92c-21.57,0.3-45.69,0.93-71.46,0.93
		c-19.92,0-33.59-1.25-41-3.78c-12.5-4.42-18.74-13.49-18.74-27.19c0-25.81,0.58-55.43,1.76-89.03c1.64-51.55,2.46-77.59,4.1-130.22
		c0.39-12.54,0.59-25.95,0.59-40.25c0-1.32-0.59-5.34-1.76-12.11c-3.52-21.91-7.82-40.2-12.89-54.78c-0.79-2.08-1.17-4.14-1.17-6.16
		c0-7.43,3.52-12.34,10.55-14.81c22.26-7.96,49.79-10.97,82.59-9.8c11.71,0.42,22.06,1.36,31.04,2.87c3.51,2.29,5.27,3.43,8.78,5.7
		c2.34,3.74,5.66,8.47,6.45,12.17c3.77,17.63-1.86,56.85-5.57,101.35c-3.72,44.51-5.57,77.27-5.57,99.06
		c0,18.91,0.39,29.55,1.18,32.11c2.34,7.65,8.98,11.55,19.92,11.66c6.24,0.06,16.01-2.85,29.28-8.81
		c13.28-5.95,22.65-8.98,28.12-8.97C621.99,1880.33,632.03,1885.49,634.68,1892.29z M1134.93,1570.06c0,3.57-0.2,6.59-0.59,9.04
		c-11.25,69.47-16.87,103.99-28.11,172.06c-6.26,41.34-18.17,115.86-35.74,218.93c-1.18,6.17-2.74,13.5-4.69,21.96
		c-0.4,1.91-2.55,5.01-6.45,9.25c-12.11,13.51-34.95,20-68.54,20c-5.62,0-8.43,0-14.06,0c-4.3,0-8.98,0-14.06,0
		c-15.23,0-24.99-4.03-29.29-12.03c-9.76-18.77-18.74-57.82-26.94-117.57c-0.79-6.92-2.94-20.71-6.45-41.36
		c-0.79-1.66-1.56-2.45-2.34-2.37c-4.68,0.51-9.38,13.01-13.48,36.59c-5.67,32.6-10.89,65.36-16.98,96.3
		c-3.33,16.91-10.75,27.64-21.68,32c-4.3,1.69-19.72,3.93-46.27,6.52c-2.74,0.33-7.81,0.98-15.23,1.92c-9.61,0-14.41,0-24.02,0
		c-20.71,0-32.86-5.09-36.31-15.27c-1.98-5.84-7.62-54.89-16.99-153.52c-1.56-19.79-3.7-49.93-7.61-89.71
		c-3.14-31.92-11.92-61.9-25.19-88.66c-1.18-2.35-1.76-4.53-1.76-6.58c0-12.29,13.82-22.13,41.35-30.34
		c20.05-5.98,39.76-9.75,59.06-13.32c8.66-1.6,16.57-3.73,20.07-3.24c0.94,0.13,4.33,2,9.45,4.55c2.37,1.32,5.16,4.62,5.92,8.41
		c3.03,15.13,3.14,68.46,7.08,147.86c0,9.84,0,14.74,0,24.51c0.39,10.13,3.7,14.81,9.96,14.06c3.51-0.42,7.13-10.36,9.96-29.45
		c1.68-11.37,8.38-47.28,20.49-110.13c1.95-9.2,4.8-25.11,9.37-46.73c2.51-11.88,15.23-22.15,37.5-30.56
		c8.2-2.12,20.94-7.01,35.72-10.54c6.07-1.45,15.43-0.83,26.37,0.84c4.69,2.69,7.56,10.5,8.78,23.22
		c2.59,26.89,8.4,74.89,16.98,143.96c2.35,16.32,3.53,24.69,3.53,25.05c0,9.26,2.54,13.55,7.61,12.87c0.39-0.05,0.77-0.29,1.18-0.72
		c0.39-0.42,0.77-0.66,1.17-0.72c3.9-2.38,7.22-14.18,9.96-35.59c0.39-4.91,0.88-13.54,1.75-25.59c2.81-38.93,4.68-61.65,4.68-66.95
		c0-6.79-1.46-16.64-4.39-29.43c-2.93-12.81-4.39-22.59-4.39-29.4c0-9.44,7.52-19.3,22.55-29.79
		c15.03-10.47,34.47-18.57,58.28-24.12c14.07-3.28,23.44-4.69,28.13-4.2C1130.04,1553.38,1134.93,1559.39,1134.93,1570.06z
		 M1444.19,1716.1c-10.16-83.11-8.41-165.48-19.92-212.04c-2.9-11.75-20.89-18.1-43.93-13.54c-14.76,4.2-22.14,6.32-36.9,10.63
		c-41.4,12.33-75.57,29.44-102.51,50.41c-6.65,5.13-10.35,8.17-11.13,9.15c-5.86,6.98-8.78,15.36-8.78,25.18
		c0,6.53,2.06,15.82,6.15,27.94c4.1,12.14,6.14,21.56,6.14,28.16c0,23.51-4.48,58.28-13.47,103.81
		c-8.67,42.66-13,63.89-21.66,105.98c-11.72,57.55-18.56,93.78-20.51,109.83c-2.35,19.33-3.92,30.79-4.1,33.89
		c-0.52,8.85,2.83,16.03,8.49,19.94c5.66,3.89,17.07,5.87,34.27,5.87c16.41,0,32.8-2.3,49.21-7.14c4.22-2.35,6.33-3.53,10.55-5.91
		c4.28-1.75,7.22-3.75,8.78-5.94c1.55-11.8,3.36-23.64,5.27-35.44c3.97-24.42,7.02-39.93,9.37-46.15
		c14.83-3.4,23.61-5.21,26.35-5.36c8.21-0.44,18.07,1.79,20.5,5.6c3.17,4.96,3.44,23.14,4.69,42.8c1.1,17.44,3.31,31.93,6.45,43.24
		c12.49,9.43,28.89,14.29,49.21,14.29c19.13,0,36.9-3.56,53.3-10.68c10.91-4.73,16.39-12.58,16.39-23.46
		c0-1.87-1.75-18.24-5.27-48.71C1460.35,1847.6,1454.96,1802.21,1444.19,1716.1z M1337.58,1763.73c-5.09,4.97-10.16,7.73-15.23,8.33
		c-8.6,1.02-12.88-4.52-12.88-16.55c0-18.92,6.63-53.18,19.92-103.29c2.34,1.16,3.51,1.74,5.85,2.91
		c-0.39,2.65-0.57,6.75-0.57,12.33c0,8.17,0.77,20.18,2.33,36.16c1.56,15.98,2.35,28.16,2.35,36.4
		C1339.34,1748.27,1338.76,1756.19,1337.58,1763.73z M1822.01,1508.81c0,10.16-5.09,30.15-15.23,60.42
		c-0.79,2.63-2.35,7.6-4.69,14.99c-0.4,1.31-8.01,19.51-22.84,55.46c-14.84,35.94-31.05,75.47-48.62,118.77
		c-9.37,23.05-14.07,50.52-14.07,82.39c0,13.4,0.98,33.56,2.94,60.53c1.96,26.99,2.92,47.32,2.92,60.87
		c0,11.22-0.2,18.48-0.59,21.76c-1.95,14.51-8.99,24.36-21.08,29.53c-6.65,2.83-18.15,4.24-34.56,4.24c-5.48,0-13.69,0.58-24.6,1.76
		c-10.92,1.18-19.15,1.78-24.6,1.78c-14.84,0-26.95-6.26-29.88-15.69c-4.6-14.8-4.1-29.13-4.1-33.4c0-3.31,1.41-15.64,4.1-36.78
		c1.97-15.49,2.94-30.06,2.94-43.65c0-19.65,0-29.44,0-48.97c0-42.32-4.11-77.59-12.31-105.97c-3.51-10.98-9.72-30.63-17.57-58.07
		c-6.01-21.01-11.84-42.8-18.16-64.09c-7.25-24.45-15.63-44.37-24.6-59.57c-6.65-11.29-9.96-20.64-9.96-28.14
		c0-4.85,1.55-9.76,4.69-14.74c4.69-7.69,22.11-17.11,52.13-27.68c25.76-9.07,45.11-13.5,57.99-13.55
		c10.93-0.04,16.12,7.87,19.33,13.99c2.49,4.75,11.07,31.74,18.16,79.58c6.56,44.3,12.49,66.87,17.58,67
		c5.46,0.13,10.28-10.9,14.64-32.78c3.83-19.19,5.85-33.31,5.85-42.28c0-11.67-3.62-24.41-4.69-33.73
		c-2.07-18.11,24.22-35.54,69.12-38.57c13.27-0.81,23.63-0.82,31.05-0.15C1812.43,1485.81,1822.01,1494.2,1822.01,1508.81z
		 M2118.37,1872.05c0,21.8-3.98,42.78-11.72,63.44c-8.62,22.98-20.49,40.99-35.72,53.79c-24.6,20.83-67.95,32.04-130.04,32.04
		c1.16,0,1.06-0.12-0.29-0.33c-1.37-0.22-3.69-0.63-6.74-1c-9.1-1.09-23.37-1.9-41.58-3.39c-15.54-1.27-26.75-9.55-33.39-24.6
		c-1.17-15.89-2.67-33.01-4.68-51.12c-2.26-20.37-3.53-37.23-3.53-50.35c0-23.05,3.9-44.55,11.72-64.27
		c5.46-5.07,12.09-7.34,19.92-6.84c5.07,0.33,17.18,9.31,36.31,26.68s34.76,26.29,46.87,27.11c3.11,0.21,5.26,0.14,6.43-0.21
		c5.86-3.5,8.78-10.58,8.78-21.33c0-12.91-10.53-30.12-31.62-52.1c-31.62-32.96-51.36-55.65-59.16-67.45
		c-21.08-31.58-31.62-64.86-31.62-99.4c0-32.32,6.63-58.1,19.92-76.96c21.46-30.01,52.13-46.27,91.96-47.07
		c10.92-0.2,17.95,0.19,21.08,0.91c1.95,0.45,6.34,1.69,13.19,3.78c6.82,2.08,11.03,3.36,12.59,3.76
		c33.57,8.52,55.64,16.6,66.19,22.29c15.62,15.73,23.43,41.14,23.43,76.22c0,18.35-1.55,34.27-4.69,47.87
		c-3.49,15.1-10.73,21.48-21.67,19.05c-8.98-1.99-22.07-10.69-39.25-26.27c-17.2-15.59-29.67-24.21-37.48-25.71
		c-5.86-1.13-11.52-0.5-16.99,1.91c-1.56,3.13-2.34,6.82-2.34,11.07c0,11.49,11.51,30.32,34.56,56.09
		c36.31,40.21,57.99,64.97,65.01,75.47C2106.85,1808.95,2118.37,1840.76,2118.37,1872.05z"/>
</g>
</svg>
