<?xml version="1.0" standalone="no"?>
<!DOCTYPE svg PUBLIC "-//W3C//DTD SVG 20010904//EN"
 "http://www.w3.org/TR/2001/REC-SVG-20010904/DTD/svg10.dtd">
<svg version="1.0" xmlns="http://www.w3.org/2000/svg"
 width="2400.000000pt" height="2400.000000pt" viewBox="0 0 2400.000000 2400.000000"
 preserveAspectRatio="xMidYMid meet">

<g transform="translate(0.000000,2400.000000) scale(0.100000,-0.100000)"
fill="#000000" stroke="none">
<path d="M9625 22002 c-27 -9 -61 -25 -75 -35 -142 -98 -330 -390 -454 -702
-70 -179 -113 -320 -191 -630 l-62 -250 -244 -225 c-368 -340 -502 -473 -497
-496 6 -32 79 -31 135 2 49 29 277 209 438 348 55 47 103 86 107 86 3 0 4 -8
2 -17 -49 -216 -124 -774 -155 -1143 -6 -80 -20 -179 -30 -221 -39 -157 -50
-226 -50 -312 -1 -106 8 -121 87 -137 106 -22 195 10 213 77 11 41 35 243 46
384 5 57 20 125 44 200 l37 114 76 -3 c89 -4 138 16 226 92 30 25 55 46 57 46
11 0 26 -94 40 -249 17 -197 34 -289 76 -416 71 -212 171 -305 329 -305 151 0
226 69 344 315 54 111 186 435 186 455 0 5 5 10 10 10 6 0 10 -29 10 -67 0
-182 45 -538 72 -571 51 -61 243 -54 267 10 4 13 11 91 14 173 10 243 62 457
172 708 75 171 212 390 324 517 l30 35 1 -30 c0 -17 -18 -159 -39 -315 -57
-411 -64 -505 -58 -767 7 -306 25 -374 108 -407 22 -9 68 -16 102 -16 83 0
140 29 189 95 41 54 155 263 208 383 18 39 36 72 40 72 4 0 10 -44 13 -97 11
-182 71 -348 150 -419 68 -62 118 -79 232 -79 87 0 107 3 155 26 126 59 211
199 301 494 39 129 102 418 114 526 6 51 10 60 48 90 23 18 69 58 101 89 l59
55 -7 -35 c-64 -331 -87 -499 -88 -665 -1 -185 18 -236 101 -264 52 -17 150
-13 197 8 82 37 135 128 318 539 48 107 95 210 105 230 l19 37 -5 -151 c-12
-328 49 -668 144 -804 53 -74 104 -100 200 -100 79 0 132 16 171 53 39 36 82
133 217 487 228 598 430 1091 559 1364 31 65 56 125 56 132 0 28 -62 42 -117
28 -78 -21 -288 -446 -684 -1384 -99 -233 -183 -428 -188 -433 -12 -12 -46
100 -66 218 -40 239 -43 578 -9 949 8 87 12 168 8 179 -8 24 -62 47 -114 47
-68 0 -103 -21 -142 -86 -60 -100 -179 -327 -334 -634 -81 -162 -149 -287
-151 -278 -5 22 32 316 63 498 25 151 67 332 109 478 34 117 33 130 -10 148
-41 17 -110 18 -146 1 -15 -7 -67 -66 -117 -132 -93 -124 -238 -301 -265 -323
-13 -12 -16 -6 -22 45 -28 249 -143 373 -345 373 -83 0 -147 -19 -201 -58 -84
-62 -170 -207 -205 -345 -16 -63 -18 -67 -46 -67 -69 0 -90 -20 -137 -131
-129 -300 -372 -802 -406 -838 -10 -11 -14 3 -20 79 -10 131 7 392 51 765 32
266 40 461 22 494 -24 45 -75 66 -158 65 -88 0 -138 -19 -217 -82 -118 -94
-296 -339 -419 -576 l-72 -140 -4 80 c-2 43 0 175 5 293 11 249 13 242 -83
249 -93 7 -115 -7 -141 -87 -32 -97 -163 -446 -226 -601 -125 -306 -321 -710
-345 -710 -15 0 -64 119 -91 220 -26 98 -38 171 -57 345 -22 207 -58 291 -140
325 -17 7 -30 16 -30 19 0 4 26 38 58 77 196 234 446 613 574 869 160 320 176
475 54 535 -40 19 -59 21 -134 18 -79 -3 -97 -7 -168 -42 -189 -94 -534 -511
-774 -937 -48 -86 -70 -116 -70 -99 0 30 71 457 98 586 l19 91 78 74 c108 103
309 320 398 431 238 297 367 584 367 818 0 192 -78 281 -247 280 -26 -1 -70
-8 -98 -18z m140 -127 c29 -58 27 -202 -4 -310 -46 -166 -158 -362 -318 -560
-108 -134 -236 -270 -241 -256 -5 16 81 327 133 481 89 259 226 525 328 636
28 31 57 54 66 52 9 -2 25 -21 36 -43z m255 -1203 c0 -183 -367 -817 -731
-1262 -69 -85 -86 -100 -158 -137 -45 -22 -81 -39 -81 -38 0 13 126 298 185
420 169 345 355 634 563 872 70 80 187 183 209 183 8 0 13 -13 13 -38z m2430
-804 c55 -75 75 -163 75 -326 0 -167 9 -152 -134 -224 l-84 -42 -18 23 c-28
34 -39 87 -39 181 0 101 18 193 55 280 33 79 81 150 100 150 8 0 29 -19 45
-42z m-385 -668 c3 -5 35 -19 71 -30 94 -29 224 -27 322 4 19 6 22 4 22 -18 0
-36 -61 -270 -105 -401 -47 -140 -133 -318 -179 -370 -35 -39 -36 -40 -52 -20
-83 102 -133 373 -119 655 3 80 9 155 12 168 5 23 18 29 28 12z"/>
<path d="M3485 21659 c-122 -15 -232 -76 -356 -201 -177 -177 -313 -419 -379
-674 -69 -268 -44 -384 82 -384 48 0 108 22 108 39 0 11 -25 21 -52 21 -19 0
-20 4 -14 55 14 118 117 380 213 538 72 121 163 235 265 333 116 111 173 148
188 124 46 -72 50 -334 10 -595 -36 -229 -57 -355 -105 -615 -100 -543 -135
-781 -160 -1095 -54 -668 56 -1201 279 -1354 95 -65 244 -79 353 -31 152 65
294 320 489 879 37 107 69 190 70 185 2 -5 8 -88 14 -184 13 -211 31 -345 70
-505 87 -362 248 -645 408 -718 72 -32 237 -36 314 -8 134 51 234 183 334 442
75 195 105 323 274 1190 261 1342 402 2016 496 2372 26 98 34 141 26 149 -15
15 -93 21 -125 9 -19 -7 -34 -27 -52 -67 -104 -236 -274 -924 -579 -2344 -229
-1065 -268 -1215 -377 -1437 -46 -93 -118 -193 -140 -193 -19 0 -104 129 -155
235 -93 192 -152 408 -191 692 -26 187 -26 870 0 1098 47 417 89 646 172 925
86 289 121 437 108 459 -17 26 -55 41 -111 41 -63 0 -115 -20 -136 -52 -39
-59 -161 -512 -222 -818 -60 -304 -385 -1313 -570 -1770 -82 -201 -188 -394
-245 -446 -21 -19 -21 -19 -41 6 -29 36 -72 125 -96 200 -57 173 -82 389 -82
701 0 356 37 681 146 1274 117 642 148 848 160 1070 7 125 -6 233 -38 307 -48
113 -179 167 -353 147z"/>
<path d="M6985 20656 c-161 -51 -296 -199 -406 -446 -61 -135 -118 -301 -159
-462 l-33 -128 -81 -59 c-195 -142 -326 -329 -330 -471 -1 -67 17 -114 50
-129 33 -15 109 -14 121 2 6 6 13 40 16 74 6 74 45 159 118 256 28 37 53 66
55 65 2 -2 -2 -51 -8 -108 -13 -136 -5 -431 17 -540 59 -306 166 -496 301
-536 82 -24 175 -15 243 22 78 42 176 181 363 518 182 328 438 877 438 941 0
30 -85 46 -132 24 -15 -7 -49 -60 -102 -162 -107 -205 -235 -439 -346 -632
-160 -276 -343 -554 -366 -555 -35 0 -123 284 -144 470 -22 188 -4 587 36 772
4 20 32 43 125 103 326 210 556 442 610 617 51 162 -12 316 -146 361 -58 20
-182 21 -240 3z m163 -99 c51 -54 67 -162 37 -246 -24 -69 -84 -151 -184 -252
-100 -100 -303 -259 -309 -241 -8 25 80 310 135 437 51 115 135 238 196 285
59 45 94 50 125 17z"/>
<path d="M19978 20405 c-29 -16 -68 -77 -208 -325 -248 -438 -492 -814 -648
-998 -56 -66 -61 -61 -69 75 -12 205 42 550 153 974 60 232 60 239 -1 265 -19
8 -49 14 -67 14 -72 0 -98 -17 -237 -152 -131 -128 -213 -202 -312 -281 l-47
-37 -17 52 c-64 198 -180 321 -336 357 -65 15 -197 13 -264 -4 -172 -45 -316
-191 -356 -361 -18 -76 -32 -100 -156 -254 -96 -120 -427 -524 -453 -553 -4
-5 -5 148 -2 340 5 343 -6 609 -29 679 -12 39 -44 54 -114 54 -100 0 -97 4
-200 -240 -215 -507 -501 -989 -558 -941 -42 34 -99 218 -116 375 -14 118 -14
393 -1 546 11 132 7 140 -66 140 -108 0 -133 -48 -170 -325 -25 -189 -23 -433
4 -553 30 -132 65 -203 127 -260 70 -64 143 -87 254 -79 103 7 174 38 246 111
99 99 239 340 356 613 28 65 53 120 56 123 15 13 -16 -570 -42 -800 -13 -111
-18 -129 -45 -165 -16 -22 -86 -123 -154 -225 -447 -666 -666 -1174 -666
-1539 1 -241 73 -337 255 -336 60 1 92 6 129 23 257 116 456 587 600 1422 18
104 96 661 96 685 0 13 642 836 647 831 2 -2 -4 -46 -13 -97 -13 -70 -18 -147
-18 -299 -1 -184 2 -214 23 -295 32 -122 61 -185 112 -240 74 -80 103 -90 259
-90 130 0 137 1 195 30 138 70 267 252 362 515 52 144 74 257 80 417 l5 141
51 33 c46 30 140 103 231 180 31 27 38 29 34 14 -92 -322 -129 -509 -135 -691
-9 -243 29 -348 145 -402 75 -34 198 -36 282 -3 126 48 265 220 510 629 40 67
74 121 76 119 2 -2 -3 -41 -11 -88 -28 -161 -45 -345 -45 -486 0 -311 50 -472
164 -524 63 -29 207 -26 288 5 247 93 464 324 644 688 67 135 68 137 50 157
-26 28 -143 30 -170 4 -10 -10 -54 -76 -98 -148 -111 -179 -176 -264 -288
-375 -98 -98 -225 -190 -239 -174 -32 35 -51 277 -40 493 13 251 74 651 158
1041 39 180 28 203 -98 208 -53 1 -84 -2 -103 -13z m-1837 -189 c44 -30 99
-111 127 -187 19 -53 52 -192 52 -222 0 -23 -134 -76 -244 -98 -69 -13 -121 3
-172 55 -56 56 -66 95 -49 193 8 43 14 83 15 89 0 25 83 135 122 163 52 39 99
41 149 7z m161 -734 c-12 -65 -35 -161 -52 -213 -37 -113 -123 -295 -178 -375
-49 -73 -126 -146 -146 -138 -21 8 -61 71 -85 130 -35 91 -53 204 -58 369 -4
139 6 328 19 340 2 3 38 -2 79 -11 91 -20 251 -13 354 14 39 10 74 14 80 10 6
-5 1 -52 -13 -126z m-1702 -1262 c-94 -556 -225 -999 -366 -1241 -33 -56 -119
-159 -133 -159 -33 0 -51 190 -32 332 32 240 162 572 358 913 96 168 194 328
198 323 2 -2 -10 -77 -25 -168z"/>
<path d="M12540 17761 c-50 -16 -89 -41 -128 -86 -114 -130 -217 -437 -267
-797 -21 -156 -38 -489 -31 -616 l6 -112 -210 -313 c-116 -171 -233 -345 -261
-384 -43 -61 -49 -75 -39 -88 16 -19 92 -20 128 -1 51 27 238 241 349 400 21
31 40 55 44 56 3 0 11 -55 17 -122 23 -228 40 -275 109 -304 44 -19 154 -18
202 2 48 19 56 31 110 163 106 260 206 441 345 625 95 125 198 232 215 222 16
-10 14 -140 -3 -228 -29 -145 -171 -564 -200 -586 -6 -5 -47 -19 -91 -31 -119
-33 -288 -119 -371 -189 -152 -129 -240 -324 -189 -421 35 -69 127 -111 241
-111 253 0 437 148 595 480 92 194 65 168 224 211 77 21 160 45 184 53 24 9
49 16 56 16 7 0 16 -33 23 -94 26 -208 119 -377 237 -432 42 -20 66 -24 156
-24 121 0 180 14 283 68 136 71 226 189 295 385 40 114 40 132 0 146 -40 14
-68 14 -108 0 -26 -9 -39 -26 -73 -93 -85 -170 -155 -257 -262 -327 -84 -55
-96 -53 -139 29 -58 109 -78 197 -84 363 l-6 145 29 19 c126 82 286 295 350
465 24 65 28 89 28 185 0 95 -3 118 -24 170 -29 69 -68 100 -138 111 -60 9
-147 -9 -190 -40 -84 -60 -199 -265 -266 -473 -35 -110 -86 -338 -86 -385 0
-22 -10 -30 -67 -55 -85 -38 -252 -95 -269 -91 -8 2 -4 30 17 98 75 249 115
533 89 630 -17 62 -73 114 -140 130 -75 18 -175 8 -245 -24 -131 -60 -306
-243 -476 -496 l-64 -95 -14 167 -14 168 55 92 c225 378 328 649 359 946 19
184 -13 366 -75 428 -47 47 -143 67 -216 45z m78 -318 c6 -179 -21 -335 -90
-522 -37 -102 -107 -256 -113 -250 -6 7 13 248 31 384 26 197 69 372 120 485
23 53 29 59 38 43 5 -10 12 -73 14 -140z m1449 -1046 c-3 -35 -15 -88 -27
-118 -25 -64 -70 -143 -77 -136 -11 12 90 317 105 317 3 0 2 -28 -1 -63z
m-1285 -1108 c-53 -91 -165 -234 -201 -258 l-24 -16 5 42 c7 51 48 133 93 186
38 45 143 127 162 127 7 0 -9 -36 -35 -81z"/>
<path d="M8665 17703 c-55 -14 -89 -40 -129 -97 -134 -188 -248 -536 -306
-933 -45 -314 -45 -652 1 -889 l22 -112 -48 -88 c-85 -156 -186 -294 -216
-294 -14 0 -55 90 -73 160 -36 148 -49 272 -49 495 -1 240 12 409 48 610 14
82 20 136 14 146 -21 39 -138 52 -199 21 -20 -10 -42 -32 -52 -52 -22 -45 -53
-201 -73 -365 -31 -258 -206 -709 -352 -906 l-46 -63 -13 27 c-36 68 -49 177
-48 407 0 249 19 433 75 730 17 90 32 193 33 228 1 59 -1 66 -25 84 -31 23
-101 34 -156 23 -32 -6 -64 -34 -223 -196 -102 -104 -191 -189 -197 -189 -6 0
-17 15 -23 34 -17 51 -84 151 -136 201 -25 24 -73 58 -107 75 -150 73 -383 53
-511 -45 -38 -29 -52 -33 -119 -37 l-77 -3 -100 -107 c-86 -91 -231 -208 -259
-208 -4 0 -5 56 -3 125 4 125 4 126 -27 190 -45 90 -90 117 -201 117 -132 1
-212 -50 -273 -176 -35 -70 -46 -125 -47 -215 0 -140 57 -203 206 -224 40 -6
74 -14 74 -18 0 -13 -92 -276 -172 -489 -98 -264 -171 -410 -242 -485 -64 -68
-85 -70 -138 -12 -97 104 -170 333 -190 595 -9 126 -9 219 1 455 8 162 11 307
7 321 -9 35 -54 56 -120 56 -83 0 -93 -14 -181 -238 -169 -433 -392 -919 -503
-1097 -56 -89 -157 -215 -173 -215 -14 0 -48 83 -70 175 -34 143 -40 349 -24
795 8 223 15 446 15 497 0 85 -2 93 -22 105 -13 6 -47 12 -77 11 -48 0 -58 -4
-82 -31 -33 -37 -69 -179 -104 -414 -87 -584 -82 -890 20 -1114 63 -139 153
-194 313 -194 99 1 172 24 240 78 106 84 242 351 429 838 l68 179 7 -140 c15
-318 97 -572 229 -707 81 -82 148 -111 259 -112 127 -1 178 20 266 109 63 63
80 90 142 216 75 154 143 332 253 659 l68 204 48 17 c55 19 166 73 205 100 14
11 28 19 31 19 3 0 -3 -33 -14 -72 -10 -40 -30 -143 -45 -228 -44 -259 -25
-520 48 -664 82 -162 202 -231 398 -229 252 3 429 142 589 460 107 215 161
405 161 571 l0 90 36 27 c20 16 74 63 120 107 46 43 85 78 87 78 3 0 -4 -36
-14 -81 -132 -565 -111 -1010 54 -1155 25 -22 63 -46 85 -52 53 -16 208 -14
255 2 94 34 178 126 261 286 l44 84 12 -44 c69 -269 165 -370 351 -370 125 0
235 58 330 175 l52 65 53 -59 c60 -66 100 -86 194 -96 127 -13 261 26 350 102
l39 34 45 -35 c130 -99 346 -112 506 -31 28 14 79 50 114 80 l64 54 30 -63
c37 -80 90 -138 150 -168 40 -20 62 -23 147 -22 118 0 185 18 300 77 163 84
273 232 330 442 l27 99 -22 18 c-15 12 -39 18 -76 18 -84 0 -97 -10 -139 -112
-73 -175 -175 -296 -308 -366 -62 -32 -62 -32 -79 -12 -33 40 -89 241 -103
366 -6 59 -5 65 32 130 176 314 368 868 428 1237 20 123 20 345 0 422 -32 122
-76 156 -201 156 -141 0 -208 -60 -318 -286 -118 -242 -184 -474 -251 -890
l-5 -30 -107 -1 c-121 -1 -193 -22 -299 -85 -86 -52 -193 -172 -246 -276 -79
-154 -108 -272 -108 -444 0 -87 -3 -100 -26 -135 -41 -62 -112 -129 -160 -154
-42 -21 -46 -21 -64 -5 -46 42 -137 271 -127 323 3 15 23 69 46 120 106 238
222 642 286 995 45 250 49 291 50 497 0 261 -20 350 -90 396 -25 16 -124 27
-160 17z m0 -623 c-24 -200 -148 -735 -185 -799 -12 -21 -12 -3 0 174 24 334
83 650 162 870 l33 90 3 -100 c2 -55 -4 -161 -13 -235z m1544 22 c-23 -142
-104 -434 -171 -617 l-43 -120 -3 48 c-4 58 29 301 64 470 40 201 112 432 157
511 23 40 20 -151 -4 -292z m-3960 -450 c83 -56 171 -210 187 -326 l6 -41 -76
-44 c-113 -64 -229 -112 -291 -118 -52 -5 -56 -4 -89 29 -48 48 -62 104 -47
188 28 155 163 340 247 340 12 0 40 -13 63 -28z m-1142 -14 c21 -41 23 -164 4
-260 -16 -81 -30 -103 -58 -94 -65 21 -59 225 10 349 11 20 22 37 24 37 1 0
10 -15 20 -32z m4521 -302 l23 -12 1 -316 1 -315 -49 -64 c-64 -85 -181 -199
-228 -223 -43 -23 -59 -17 -94 34 -37 55 -52 124 -52 239 0 284 122 544 300
645 51 29 65 31 98 12z m-3192 -278 c-20 -124 -133 -387 -233 -543 -85 -130
-203 -235 -266 -235 -47 0 -118 103 -151 220 -29 105 -39 219 -33 377 3 84 9
158 12 163 3 5 24 1 50 -10 122 -52 297 -53 455 -1 52 17 111 40 130 51 19 10
37 19 39 20 2 0 1 -19 -3 -42z"/>
<path d="M15280 17452 c-102 -54 -169 -308 -170 -642 0 -254 55 -749 119
-1062 l19 -92 -30 -85 c-86 -247 -205 -514 -233 -524 -8 -4 -20 -19 -26 -34
-9 -24 -7 -30 11 -45 28 -23 91 -23 136 -2 46 22 104 91 160 192 26 45 50 85
54 87 4 3 16 -28 26 -68 28 -116 83 -149 217 -133 93 10 99 19 203 311 91 257
225 522 345 681 32 44 63 80 68 82 17 6 21 -68 21 -422 0 -381 7 -451 48 -532
42 -82 120 -124 246 -131 93 -6 179 12 266 55 54 27 160 123 217 196 l30 40
54 -19 c38 -13 93 -20 182 -23 117 -4 135 -2 211 22 250 78 422 323 535 764
l26 103 92 38 c51 21 132 61 180 89 48 27 89 49 90 48 1 -1 -14 -51 -33 -111
-50 -154 -112 -402 -130 -515 -28 -187 -15 -386 32 -491 32 -71 72 -110 147
-144 56 -26 64 -27 200 -23 134 3 146 5 219 37 86 36 184 102 272 183 l60 54
49 -33 c71 -48 133 -63 259 -63 155 0 257 38 453 167 200 132 349 293 436 468
49 100 99 266 99 330 0 30 -4 35 -45 51 -50 19 -133 15 -167 -8 -11 -7 -35
-52 -53 -98 -18 -47 -48 -117 -68 -155 -104 -206 -303 -397 -561 -536 l-79
-42 -23 29 c-32 39 -84 138 -84 158 0 9 26 62 59 119 112 195 214 455 257 658
22 101 25 268 6 322 -33 91 -111 133 -231 125 -213 -16 -376 -234 -463 -619
-31 -139 -33 -401 -4 -524 33 -141 35 -131 -41 -218 -87 -101 -201 -198 -280
-239 -61 -32 -62 -32 -82 -13 -43 38 -56 114 -55 325 1 208 5 240 76 530 39
163 124 418 183 549 54 122 55 149 5 173 -41 21 -140 24 -191 6 -19 -6 -72
-47 -118 -91 -167 -157 -258 -229 -381 -299 l-45 -26 0 151 c0 149 -1 153 -30
212 -41 83 -91 108 -209 108 -69 -1 -94 -6 -145 -28 -74 -34 -151 -112 -189
-192 -24 -52 -27 -69 -27 -173 0 -130 14 -171 80 -228 47 -42 78 -57 148 -73
l59 -13 -7 -35 c-10 -52 -81 -242 -127 -338 -106 -224 -260 -378 -361 -359
-37 7 -127 78 -127 101 0 7 15 49 34 93 84 196 143 434 152 612 7 132 -4 211
-42 287 -31 64 -72 91 -151 99 -164 17 -261 -64 -339 -282 -51 -142 -68 -267
-61 -449 7 -180 29 -268 93 -367 l18 -27 -57 -84 c-55 -82 -150 -182 -194
-205 -19 -10 -24 -9 -32 5 -23 44 -33 163 -41 488 -11 433 -22 512 -82 580
-63 72 -223 87 -341 31 -133 -64 -300 -280 -457 -594 l-67 -133 -17 88 -18 89
36 122 c99 343 159 828 136 1092 -22 251 -100 443 -201 495 -42 22 -165 20
-209 -3z m149 -218 c50 -133 62 -338 36 -607 -14 -148 -44 -332 -52 -324 -2 3
-15 87 -29 188 -30 219 -42 528 -25 636 18 116 32 174 41 168 5 -3 18 -30 29
-61z m2384 -601 c9 -88 -14 -313 -32 -313 -5 0 -17 19 -27 42 -14 32 -19 66
-19 133 0 77 4 98 27 148 15 32 32 56 36 53 5 -3 12 -31 15 -63z m1643 -92
c-3 -42 -19 -126 -36 -187 -29 -108 -109 -317 -129 -337 -24 -24 -5 172 34
347 23 100 63 205 102 265 14 22 16 23 26 6 6 -11 7 -49 3 -94z m-2386 -249
c0 -112 -10 -177 -47 -310 -21 -74 -28 -90 -36 -76 -11 20 -3 198 14 290 13
76 51 194 61 194 4 0 8 -44 8 -98z"/>
<path d="M7165 14581 c-74 -33 -139 -132 -206 -314 -40 -108 -101 -349 -131
-514 l-23 -133 -90 0 c-154 0 -291 -45 -440 -145 -156 -103 -297 -284 -376
-479 -18 -44 -39 -72 -83 -112 -33 -30 -62 -54 -66 -54 -3 0 -12 46 -19 103
-29 232 -136 434 -279 525 -129 83 -315 83 -444 0 -98 -62 -192 -191 -254
-350 -27 -67 -27 -67 -72 -74 -60 -9 -77 -29 -92 -110 -24 -133 -196 -630
-295 -857 -76 -172 -196 -337 -246 -337 -59 0 -140 208 -184 470 -30 182 -29
729 1 954 l6 43 107 32 c177 52 379 92 496 99 92 6 110 10 113 24 12 62 -330
39 -626 -43 -41 -11 -76 -19 -78 -16 -4 3 13 151 71 642 18 157 19 267 3 283
-15 15 -82 16 -108 2 -11 -6 -26 -33 -34 -63 -21 -74 -99 -499 -130 -712 -15
-99 -30 -191 -34 -204 -6 -19 -28 -31 -132 -67 -196 -68 -298 -123 -387 -208
-89 -87 -94 -109 -22 -114 43 -3 50 1 120 58 94 78 383 219 404 198 3 -3 -1
-63 -10 -134 -46 -383 -21 -778 66 -1053 71 -223 170 -311 349 -311 181 0 298
92 419 330 32 63 82 177 112 254 l53 138 23 -88 c30 -121 100 -259 169 -334
76 -81 155 -120 260 -127 180 -12 324 54 428 195 87 119 182 366 213 553 16
95 18 100 50 119 19 11 36 20 39 20 2 0 4 -47 4 -103 0 -178 54 -330 151 -428
78 -79 159 -109 299 -109 199 0 326 77 493 299 59 79 72 91 78 75 5 -10 19
-47 32 -82 59 -150 147 -257 236 -287 83 -27 198 -18 285 23 72 34 177 104
210 141 25 28 31 27 46 -9 19 -47 86 -109 148 -138 52 -25 68 -27 182 -27 120
0 128 1 192 32 82 38 145 95 202 182 56 85 135 243 187 373 22 57 43 111 48
122 4 11 12 -34 19 -115 19 -218 53 -305 140 -356 43 -26 56 -28 147 -28 86 0
107 4 150 25 64 31 160 126 219 218 50 76 168 309 206 404 12 32 26 56 30 53
4 -3 11 -24 14 -47 8 -54 44 -133 81 -176 48 -57 97 -75 210 -80 123 -5 188
16 265 85 80 72 192 244 250 383 32 77 40 81 34 19 -2 -30 -13 -175 -24 -324
-12 -148 -25 -308 -31 -354 l-10 -83 -142 -160 c-323 -362 -607 -803 -721
-1119 -71 -197 -100 -419 -67 -512 36 -103 110 -141 258 -135 88 3 105 7 160
37 192 103 405 422 548 821 74 208 159 580 200 874 20 145 31 195 46 214 10
14 94 109 186 211 217 241 536 561 640 640 45 34 84 68 87 76 8 23 -22 38 -79
38 -46 0 -65 -7 -127 -44 -123 -74 -263 -194 -487 -416 l-214 -212 7 122 c20
367 26 536 26 759 0 245 0 247 -23 274 -20 23 -34 28 -84 32 -79 6 -129 -11
-149 -50 -8 -16 -33 -87 -56 -156 -111 -349 -204 -569 -302 -716 -61 -90 -143
-179 -158 -169 -19 11 -49 93 -63 171 -8 42 -19 196 -25 342 -6 146 -15 281
-20 301 -8 27 -18 40 -43 50 -42 18 -134 17 -172 -2 -26 -12 -33 -25 -53 -99
-115 -430 -331 -917 -494 -1112 -22 -27 -46 -48 -53 -48 -7 0 -20 21 -29 48
-32 99 -39 185 -37 516 0 295 2 331 18 348 16 18 15 22 -6 88 l-22 69 -82 45
c-94 51 -156 66 -267 66 -190 0 -368 -73 -519 -215 -200 -187 -361 -504 -392
-771 -8 -69 -15 -94 -39 -129 -70 -101 -200 -222 -283 -261 -47 -22 -54 -16
-106 89 -64 130 -111 341 -111 498 0 54 6 81 24 117 72 142 199 475 265 697
109 363 154 582 155 760 1 109 -1 125 -24 170 -35 69 -86 95 -190 95 -51 0
-88 -6 -115 -19z m60 -407 c-26 -163 -122 -525 -124 -468 -3 80 118 589 135
571 3 -3 -2 -49 -11 -103z m-439 -659 c3 -8 1 -84 -6 -168 -6 -84 -13 -240
-15 -346 l-4 -194 -62 -111 c-125 -223 -226 -363 -333 -463 -78 -74 -101 -78
-144 -29 -208 237 -106 840 193 1140 44 45 107 96 139 115 106 63 219 90 232
56z m1798 -74 l25 -10 -19 -38 c-10 -21 -41 -105 -70 -188 -172 -498 -319
-803 -463 -960 -68 -74 -81 -70 -116 31 -33 94 -34 277 -3 406 52 213 161 434
289 585 111 131 268 207 357 174z m-3303 -59 c77 -49 143 -155 184 -297 21
-71 28 -119 32 -225 3 -80 1 -145 -5 -161 -8 -19 -29 -32 -92 -57 -87 -34
-297 -92 -334 -92 -29 0 -60 30 -88 83 -33 64 -37 230 -9 352 33 137 106 280
183 360 35 36 68 65 74 65 6 0 30 -13 55 -28z m174 -904 c-14 -74 -81 -259
-122 -343 -69 -141 -154 -235 -211 -235 -63 0 -169 159 -216 322 -25 88 -51
226 -44 234 3 2 25 -3 49 -12 74 -27 222 -21 364 15 66 16 131 34 145 40 39
15 42 13 35 -21z m4750 -655 c-122 -549 -308 -979 -519 -1200 -73 -76 -80 -75
-92 7 -22 145 71 457 213 715 118 215 411 636 421 606 2 -6 -8 -64 -23 -128z"/>
<path d="M13859 14581 c-189 -74 -311 -348 -414 -928 -61 -343 -106 -816 -89
-950 6 -52 5 -53 -44 -116 -85 -107 -243 -251 -312 -286 -84 -41 -105 -40
-151 9 -108 113 -116 394 -23 812 48 217 139 515 191 625 19 40 12 60 -22 69
-72 18 -139 -30 -198 -144 -117 -224 -252 -656 -278 -891 -35 -329 53 -549
243 -606 59 -17 210 -20 278 -4 68 15 176 72 258 133 43 33 74 51 76 43 2 -6
11 -73 19 -147 19 -160 53 -285 107 -396 50 -103 106 -165 178 -201 52 -26 66
-28 172 -28 99 0 121 3 156 22 206 110 240 498 78 890 -33 81 -113 231 -165
310 -16 25 -18 34 -7 36 7 2 45 12 83 21 100 24 222 87 295 153 67 61 160 185
160 214 0 23 -60 43 -103 33 -23 -5 -57 -33 -121 -101 -100 -106 -181 -159
-290 -192 -125 -38 -124 -41 -41 122 88 170 185 401 249 592 174 514 159 838
-43 910 -60 21 -183 19 -242 -4z m145 -168 c35 -109 30 -224 -19 -430 -28
-117 -100 -338 -151 -463 -76 -183 -157 -360 -165 -360 -5 0 -7 10 -5 23 3 12
8 56 11 97 24 287 106 751 163 920 44 128 115 260 142 260 4 0 15 -21 24 -47z
m-238 -1773 c98 -174 148 -325 164 -490 10 -104 1 -240 -18 -305 -16 -51 -52
-116 -62 -110 -17 10 -58 88 -84 157 -48 126 -91 405 -103 660 -5 118 -4 140
11 162 9 14 21 26 26 26 5 0 34 -45 66 -100z"/>
<path d="M16066 14565 c-58 -21 -86 -44 -132 -112 -81 -120 -147 -320 -214
-653 -60 -293 -90 -608 -90 -931 l0 -146 -78 -114 c-43 -63 -118 -170 -166
-239 -110 -156 -121 -177 -105 -196 16 -19 99 -18 127 2 12 8 71 75 130 147
l107 131 7 -40 c4 -21 10 -78 13 -126 9 -120 23 -138 111 -138 36 0 74 4 84
10 10 5 50 74 88 152 79 164 171 317 276 462 83 114 222 276 236 276 13 0 5
-62 -31 -240 -64 -323 -73 -392 -74 -530 0 -126 2 -139 26 -185 18 -35 39 -59
74 -80 45 -28 57 -30 156 -33 125 -4 179 9 272 65 l58 35 43 -40 c50 -46 96
-62 178 -62 116 0 268 85 408 230 l86 87 17 -59 c23 -78 91 -149 159 -166 145
-37 267 20 369 169 38 56 120 216 168 329 l24 55 8 -47 c19 -118 64 -192 132
-217 16 -6 63 -11 104 -11 174 0 239 81 363 452 l58 173 6 -50 c33 -255 70
-409 120 -500 43 -78 78 -99 166 -99 80 0 120 20 170 87 36 47 323 582 362
674 20 48 24 51 60 55 22 2 41 1 43 -2 2 -3 -4 -39 -13 -80 -23 -111 -23 -445
2 -565 21 -106 48 -174 82 -206 36 -33 135 -39 190 -11 84 44 195 184 334 423
l55 95 0 -223 c0 -269 -5 -258 115 -258 57 0 83 4 94 15 9 8 22 51 31 95 46
245 198 601 375 883 57 90 88 127 75 90 -20 -61 -122 -444 -149 -563 -85 -365
-119 -672 -81 -745 20 -38 59 -64 124 -84 72 -21 126 -20 202 4 95 30 161 87
227 195 37 61 102 216 102 244 0 25 -28 41 -70 41 -49 0 -68 -16 -106 -93 -59
-117 -112 -193 -171 -247 -66 -60 -92 -63 -106 -10 -30 113 41 543 165 1005
86 318 100 399 77 448 -17 38 -54 52 -133 52 -87 -1 -120 -17 -198 -97 -62
-63 -217 -291 -292 -428 l-46 -85 0 60 c0 72 13 183 42 362 11 72 18 138 15
146 -8 20 -57 30 -89 18 -22 -8 -32 -28 -68 -138 -108 -326 -261 -658 -407
-883 -63 -96 -160 -220 -173 -220 -38 0 -50 550 -16 740 l18 104 113 111 c159
156 234 274 235 368 0 58 -28 92 -84 103 -143 26 -318 -169 -412 -459 -24 -73
-34 -92 -57 -104 -16 -8 -31 -12 -34 -9 -3 3 6 38 21 78 70 195 73 363 6 430
-25 25 -36 28 -95 28 -81 0 -127 -21 -184 -86 -89 -101 -121 -230 -86 -349 14
-48 28 -69 77 -118 l61 -59 -20 -42 c-31 -63 -297 -546 -327 -595 -18 -27 -31
-40 -37 -34 -14 14 -77 310 -94 443 -8 63 -19 193 -25 288 -13 214 -21 242
-74 260 -45 14 -98 7 -120 -17 -8 -9 -31 -75 -50 -146 -112 -419 -248 -776
-322 -846 -25 -23 -26 -23 -39 -5 -37 50 -44 227 -21 494 8 84 11 165 7 180
-8 30 -42 52 -82 52 -16 0 -33 10 -47 30 -41 55 -95 75 -202 75 -83 0 -102 -3
-150 -27 -136 -67 -269 -228 -417 -503 -161 -301 -218 -389 -318 -490 -70 -71
-213 -175 -241 -175 -17 0 -40 35 -64 97 l-18 49 35 54 c87 138 191 377 240
557 22 81 27 119 28 223 0 163 -19 204 -105 220 -63 11 -129 -5 -168 -43 -101
-95 -204 -319 -253 -552 -15 -67 -19 -373 -6 -419 8 -27 3 -34 -60 -96 -37
-36 -90 -77 -117 -90 l-49 -23 -18 22 c-44 55 -37 211 26 553 52 286 65 388
55 450 -15 100 -65 132 -196 126 -76 -3 -85 -6 -139 -42 -94 -66 -329 -351
-453 -553 -31 -50 -58 -91 -59 -89 -1 1 -3 45 -4 98 l-1 95 72 119 c193 314
379 761 440 1054 56 269 27 522 -71 618 -53 51 -142 66 -223 37z m105 -175
c17 -59 23 -231 10 -321 -24 -168 -90 -393 -181 -619 -48 -120 -151 -342 -157
-337 -4 5 15 280 28 397 6 52 26 179 44 283 55 303 118 514 186 622 29 46 32
48 45 30 8 -10 19 -35 25 -55z m4254 -702 c-4 -18 -16 -49 -25 -68 -27 -51
-133 -176 -138 -161 -7 20 73 176 113 220 45 50 59 52 50 9z m-527 -77 c4 -72
-17 -171 -58 -266 l-22 -50 -16 30 c-8 17 -17 64 -20 106 -5 88 11 148 59 224
38 60 52 50 57 -44z m-1538 -417 c67 -57 68 -55 -34 -294 -104 -242 -176 -392
-237 -495 -47 -79 -136 -195 -149 -195 -18 0 -40 105 -40 184 1 235 131 549
304 735 46 49 100 91 118 91 3 0 20 -12 38 -26z m-1169 -246 c-19 -82 -98
-298 -108 -298 -18 0 46 254 90 360 26 61 33 70 35 48 2 -14 -6 -64 -17 -110z"/>
<path d="M13014 14371 c-12 -5 -24 -16 -27 -24 -3 -8 -24 -17 -46 -21 -43 -7
-106 -53 -116 -87 -19 -60 40 -99 150 -99 83 0 128 18 160 63 21 30 20 119 -3
147 -19 24 -84 35 -118 21z"/>
<path d="M14632 11335 c-169 -52 -278 -273 -387 -781 -53 -247 -90 -526 -110
-835 l-7 -96 -134 -219 c-73 -120 -159 -269 -191 -330 -50 -96 -56 -114 -44
-128 17 -20 89 -21 117 -1 12 8 72 82 134 165 61 82 115 148 120 145 4 -2 10
-49 13 -104 10 -146 61 -431 97 -546 61 -192 143 -310 250 -359 47 -22 69 -26
151 -26 114 0 164 21 216 89 71 92 105 307 84 538 -20 234 -55 361 -177 649
-3 7 16 19 48 29 58 19 224 99 286 139 l40 25 11 -74 c26 -179 97 -310 192
-358 115 -59 259 -44 344 34 24 22 58 69 77 104 18 36 36 65 39 65 4 0 12 -21
19 -46 31 -111 121 -205 225 -234 73 -20 209 -9 271 22 161 83 369 453 425
758 14 71 15 73 66 107 28 19 84 64 124 101 l72 67 -7 -45 c-4 -25 -15 -90
-24 -145 -24 -149 -24 -575 1 -665 43 -159 99 -220 207 -228 119 -9 174 32
295 218 190 292 313 523 323 605 4 41 3 43 -26 49 -59 14 -78 0 -121 -87 -83
-167 -406 -645 -425 -627 -25 26 -36 451 -15 638 14 129 53 362 84 499 14 62
25 125 25 141 0 40 -31 64 -89 70 -87 8 -111 -7 -215 -136 -52 -64 -127 -153
-167 -196 l-73 -79 -13 80 c-23 146 -78 253 -153 298 -46 27 -179 28 -226 3
-52 -28 -95 -79 -128 -148 -29 -61 -31 -72 -31 -180 0 -219 62 -307 233 -331
36 -5 68 -11 70 -14 7 -7 -65 -209 -110 -310 -68 -152 -166 -301 -229 -345
-29 -21 -31 -21 -50 -4 -34 31 -78 136 -99 239 -14 67 -24 175 -31 325 -7 155
-15 234 -25 254 -8 16 -14 39 -14 50 0 40 -63 129 -113 163 -66 44 -116 56
-218 51 -72 -3 -97 -9 -152 -36 -118 -59 -240 -209 -298 -371 -18 -51 -32 -71
-71 -102 -67 -53 -202 -133 -300 -178 -125 -57 -122 -57 -161 -19 -36 36 -93
58 -151 58 -20 0 -36 2 -36 3 0 2 51 80 113 173 226 340 379 677 417 916 18
112 9 288 -19 360 -52 136 -199 200 -349 153z m113 -290 c10 -100 -10 -221
-59 -370 -54 -160 -202 -485 -222 -485 -6 0 7 85 43 285 55 308 112 514 176
640 l30 60 13 -30 c7 -16 15 -61 19 -100z m1791 -581 c34 -78 47 -183 35 -284
-12 -93 -15 -100 -41 -100 -45 0 -87 156 -77 284 5 72 31 156 49 156 5 0 20
-25 34 -56z m-794 -200 c33 -17 118 -92 118 -104 0 -4 -17 -10 -38 -14 -21 -3
-46 -14 -55 -24 -10 -10 -36 -104 -63 -218 -25 -109 -62 -247 -81 -306 -34
-105 -88 -211 -108 -212 -13 -1 -43 83 -62 174 -22 106 -13 309 17 405 52 164
155 315 215 315 14 0 40 -7 57 -16z m-1273 -733 c32 -17 44 -33 78 -108 56
-119 107 -294 127 -430 29 -198 16 -497 -26 -587 -10 -24 -13 -25 -28 -11 -30
28 -89 167 -119 285 -35 136 -68 379 -81 592 -13 203 -12 278 0 278 6 0 28 -9
49 -19z"/>
<path d="M8457 10746 c-10 -11 -17 -48 -22 -125 -9 -132 -1 -200 29 -243 20
-30 27 -33 71 -33 48 0 50 1 46 25 -3 14 -3 79 -1 145 2 66 4 147 4 180 l1 60
-56 3 c-40 2 -61 -1 -72 -12z"/>
<path d="M9163 10491 c-23 -21 -31 -60 -59 -278 l-17 -132 -106 1 c-144 1
-231 -24 -321 -94 -34 -25 -60 -36 -98 -41 -110 -13 -203 -91 -297 -248 -54
-91 -123 -243 -151 -331 -10 -32 -21 -58 -24 -58 -9 0 -27 162 -40 357 -11
152 -19 186 -47 201 -60 31 -158 20 -191 -23 -10 -13 -34 -66 -52 -117 -79
-226 -145 -398 -185 -483 -85 -183 -202 -335 -258 -335 -26 0 -63 30 -91 72
-16 25 -15 28 43 133 68 122 150 315 180 424 65 234 39 430 -65 488 -94 54
-257 16 -338 -78 -92 -108 -164 -325 -173 -529 -6 -138 18 -273 66 -376 l31
-66 -83 -81 c-96 -95 -190 -156 -215 -140 -29 17 -45 84 -49 208 -6 139 17
331 73 620 38 197 50 298 40 340 -13 52 -123 72 -201 36 -22 -10 -80 -60 -130
-110 -49 -50 -92 -91 -96 -91 -3 0 -9 20 -12 45 -17 123 -91 185 -219 185
-119 0 -217 -73 -281 -208 -28 -58 -32 -78 -32 -147 0 -68 4 -85 23 -113 38
-53 93 -75 200 -80 52 -3 92 -9 92 -14 0 -18 -71 -189 -111 -271 -142 -281
-321 -477 -439 -477 -26 0 -42 9 -76 44 -107 112 -147 402 -96 694 11 63 22
115 24 116 73 51 117 88 158 134 140 157 161 349 41 382 -112 30 -220 -46
-301 -214 -27 -56 -61 -141 -75 -191 -24 -86 -43 -115 -72 -115 -9 0 -13 18
-13 63 0 78 -23 186 -51 245 -41 83 -153 105 -240 47 -86 -57 -131 -228 -83
-320 22 -43 100 -103 146 -112 16 -3 31 -9 34 -14 8 -13 -96 -317 -151 -442
-68 -154 -213 -377 -246 -377 -13 0 -46 56 -70 120 -60 158 -82 366 -69 654 5
110 7 211 3 224 -11 45 -124 69 -183 39 -31 -16 -31 -15 -146 -307 -53 -135
-125 -305 -161 -379 -65 -137 -170 -306 -218 -351 -26 -24 -27 -24 -40 -6 -23
31 -54 136 -65 216 -12 98 -12 317 0 555 14 271 27 372 50 410 24 38 12 55
-37 55 -74 0 -148 -70 -182 -172 -31 -92 -77 -326 -97 -486 -22 -184 -16 -418
14 -512 57 -177 159 -249 340 -238 97 6 163 38 225 109 59 67 136 198 189 320
30 69 45 94 49 82 3 -10 16 -58 28 -108 44 -183 132 -313 236 -348 61 -21 168
-22 228 -1 58 20 135 88 189 167 92 135 194 387 255 627 36 141 39 150 62 150
20 0 23 -4 18 -27 -36 -185 -35 -443 3 -553 42 -122 88 -190 162 -236 117 -74
329 -70 467 8 184 104 382 435 481 804 17 64 27 84 48 96 15 9 53 40 85 68 31
28 57 49 57 46 0 -2 -13 -58 -29 -123 -16 -65 -41 -190 -56 -278 -45 -262 -27
-442 51 -534 54 -62 120 -86 239 -86 150 1 242 41 379 167 l60 54 60 -25 c50
-20 78 -25 151 -25 77 1 99 5 152 29 123 55 238 217 349 492 16 40 32 73 35
73 3 0 9 -36 13 -80 7 -83 63 -404 92 -523 24 -98 73 -128 180 -112 63 9 80
30 88 106 14 134 49 318 81 429 56 195 170 439 249 535 l25 30 1 -75 c0 -41
-5 -160 -11 -264 -11 -202 -2 -369 28 -516 18 -91 70 -205 109 -242 39 -37
105 -58 173 -57 89 1 139 26 184 93 17 24 28 33 31 25 3 -8 16 -52 31 -98 14
-46 40 -112 57 -145 70 -138 119 -170 252 -165 76 4 88 7 123 35 102 83 194
240 257 444 39 126 79 333 74 383 -3 31 -4 32 -58 35 -30 1 -60 -1 -67 -6 -7
-4 -28 -68 -47 -142 -42 -166 -75 -258 -133 -378 -53 -108 -130 -219 -144
-205 -13 13 -53 175 -80 323 -20 112 -23 165 -27 515 -2 214 -1 418 3 453 l7
64 31 -6 c18 -4 99 -9 180 -13 162 -6 207 3 267 54 37 30 38 46 5 61 -39 18
-91 14 -145 -9 -48 -20 -51 -21 -128 -5 -44 9 -106 24 -139 34 l-58 18 0 79
c0 44 4 153 9 241 8 157 8 162 -13 183 -29 29 -147 31 -178 2z m-129 -546 c35
-15 38 -19 33 -48 -4 -18 -13 -151 -22 -297 -14 -220 -23 -291 -50 -420 -36
-169 -94 -361 -111 -367 -6 -2 -16 19 -22 47 -28 121 -35 249 -29 550 5 320
-1 403 -34 456 -23 38 -18 44 68 80 63 27 102 26 167 -1z m-3519 -117 c-26
-55 -82 -124 -92 -114 -10 9 46 151 80 203 l32 48 3 -42 c2 -29 -5 -58 -23
-95z m1786 90 c9 -21 14 -71 14 -138 -1 -95 -5 -115 -38 -211 -20 -59 -60
-155 -88 -215 l-52 -109 -8 40 c-34 175 35 552 119 648 22 25 38 21 53 -15z
m-1163 -87 c13 -42 15 -124 5 -184 -5 -33 -12 -41 -54 -63 -62 -31 -74 -30
-89 6 -27 64 14 226 72 287 19 21 23 21 38 8 9 -9 22 -33 28 -54z m-1187 -53
c14 -52 15 -216 1 -230 -13 -13 -49 34 -62 83 -6 22 -8 56 -4 77 9 49 34 112
45 112 4 0 14 -19 20 -42z"/>
<path d="M11205 10300 c-134 -22 -229 -86 -314 -213 -56 -83 -93 -173 -98
-240 -7 -89 18 -130 148 -242 57 -51 128 -120 156 -156 58 -70 153 -247 153
-283 0 -12 -15 -37 -36 -57 -61 -58 -198 -220 -258 -304 -65 -90 -148 -256
-165 -327 -6 -26 -11 -76 -11 -111 0 -78 24 -120 90 -157 41 -23 56 -25 161
-25 114 0 116 0 194 39 246 121 412 472 376 792 -6 49 -17 112 -26 139 -17 58
-26 42 115 190 52 55 124 131 158 169 35 37 65 66 67 64 3 -2 0 -45 -6 -94
-15 -119 -5 -318 20 -416 60 -233 203 -348 431 -348 242 0 392 126 510 427 50
127 84 254 100 372 l13 91 96 51 c116 62 226 137 299 204 60 54 152 179 152
205 0 23 -42 40 -101 40 -49 0 -52 -2 -139 -84 -128 -122 -301 -240 -320 -219
-4 4 -13 31 -20 58 -31 120 -111 257 -194 333 -199 183 -547 130 -681 -104
-42 -73 -134 -188 -310 -389 -167 -191 -283 -315 -293 -315 -4 0 -27 30 -51
66 -24 36 -87 105 -139 152 -53 48 -118 108 -145 134 l-49 47 4 69 c3 57 11
85 47 157 49 98 116 175 154 175 46 0 134 -82 215 -202 24 -35 41 -49 65 -53
39 -8 87 9 87 30 0 28 -60 148 -101 203 -81 107 -210 155 -354 132z m1336
-188 c91 -95 158 -258 159 -390 0 -48 -5 -52 -118 -78 -57 -13 -66 -13 -98 2
-117 56 -171 238 -114 388 22 57 82 136 103 136 6 0 36 -26 68 -58z m-171
-608 c49 -12 96 -15 188 -11 111 4 122 3 118 -12 -3 -9 -12 -45 -21 -80 -49
-192 -215 -501 -270 -501 -23 0 -64 69 -92 155 -24 73 -26 99 -31 279 l-4 199
23 -7 c13 -3 53 -14 89 -22z m-1084 -656 c-12 -89 -37 -180 -72 -256 -34 -75
-105 -182 -143 -216 l-21 -19 0 49 c0 116 70 276 193 442 22 28 42 52 44 52 3
0 3 -24 -1 -52z"/>
<path d="M19233 8830 c-76 -38 -180 -125 -356 -299 -208 -204 -372 -412 -462
-584 -16 -31 -32 -57 -35 -57 -3 0 -37 23 -75 51 -163 119 -324 205 -436 234
-32 8 -101 15 -156 15 -89 0 -105 -3 -153 -27 -74 -38 -90 -72 -90 -185 0
-185 100 -402 320 -697 231 -310 517 -598 842 -849 96 -74 106 -85 112 -122 9
-56 41 -75 126 -74 50 0 77 6 117 27 29 15 55 33 59 39 4 6 -3 30 -16 53 l-23
42 36 134 c230 854 352 1337 396 1559 94 477 109 624 75 696 -38 79 -170 99
-281 44z"/>
<path d="M13973 7685 c-26 -11 -35 -23 -47 -67 -8 -29 -26 -96 -41 -148 -131
-474 -319 -934 -436 -1063 -55 -60 -65 -59 -114 14 -72 105 -101 266 -112 617
-8 240 -9 244 -32 263 -31 25 -111 26 -139 2 -13 -12 -30 -60 -51 -143 -35
-142 -209 -694 -266 -845 -65 -174 -146 -315 -180 -315 -26 0 -85 84 -116 164
-61 157 -85 331 -98 706 -9 250 -10 255 -33 275 -13 11 -29 39 -36 62 -29 97
-101 143 -227 143 -101 0 -192 -31 -288 -96 -195 -134 -384 -452 -432 -729
-14 -82 -48 -147 -150 -290 -67 -93 -163 -205 -177 -205 -17 0 -58 111 -74
203 -21 117 -23 341 -5 603 8 111 11 213 7 227 -10 43 -102 61 -170 33 -39
-16 -38 -14 -165 -376 -142 -406 -218 -606 -281 -735 -58 -119 -119 -205 -145
-205 -41 0 -122 148 -157 286 -21 82 -23 110 -21 349 1 189 7 307 21 430 13
113 17 176 10 188 -12 23 -49 37 -98 37 -69 0 -85 -14 -126 -114 -48 -117
-266 -590 -334 -726 -65 -130 -138 -245 -184 -289 l-35 -34 -10 41 c-29 106
-38 366 -21 557 11 120 54 465 70 560 25 153 8 190 -86 189 -70 -1 -84 -15
-125 -117 -64 -162 -121 -265 -409 -742 -175 -290 -258 -411 -273 -396 -13 13
-45 140 -58 234 -14 107 -14 451 1 617 10 103 10 133 0 145 -19 23 -88 38
-144 31 l-51 -7 -37 78 c-49 105 -86 146 -165 185 -57 28 -79 33 -160 36 -120
6 -198 -10 -299 -58 -225 -108 -414 -395 -513 -776 -41 -161 -61 -303 -61
-449 0 -253 60 -389 200 -454 44 -20 74 -26 156 -29 273 -11 450 134 687 562
37 66 68 113 70 105 3 -8 12 -46 20 -84 36 -160 86 -243 175 -287 40 -19 62
-23 147 -23 83 0 107 4 141 22 98 52 155 145 334 545 46 103 86 185 88 183 2
-2 -1 -49 -7 -105 -16 -142 -14 -342 4 -444 18 -102 50 -170 99 -214 48 -42
103 -55 211 -50 73 4 100 9 143 32 108 55 191 169 297 407 l62 139 6 -102 c15
-264 117 -472 269 -547 54 -27 71 -31 148 -31 175 0 249 56 350 263 53 111
139 328 171 435 15 52 29 54 29 5 0 -67 38 -222 70 -291 35 -76 80 -128 127
-148 46 -20 150 -17 198 5 42 19 138 115 195 195 35 48 50 57 50 30 0 -34 71
-164 115 -209 71 -72 119 -90 245 -90 91 0 111 3 150 24 60 31 104 74 146 143
36 59 102 227 125 316 7 28 15 52 19 52 3 0 17 -44 30 -97 48 -191 137 -328
243 -373 71 -31 159 -37 231 -16 137 40 214 186 335 630 41 149 51 177 51 139
0 -40 41 -177 71 -239 35 -70 109 -146 164 -170 53 -22 209 -19 262 6 119 54
256 267 389 609 l49 125 8 -130 c4 -71 6 -250 5 -397 l-3 -269 -40 -36 c-364
-333 -465 -436 -613 -622 -209 -262 -361 -580 -422 -880 -27 -132 -24 -266 9
-352 27 -69 98 -138 169 -163 72 -26 224 -31 316 -10 224 49 433 229 559 480
161 321 294 908 332 1462 l7 102 162 143 c665 593 1242 1048 1579 1245 20 12
37 29 37 37 0 27 -42 46 -102 46 -47 0 -72 -7 -128 -35 -310 -156 -755 -478
-1352 -977 -97 -81 -179 -148 -181 -148 -3 0 -8 57 -11 128 -20 376 -86 1003
-108 1029 -35 42 -149 57 -215 28z m-1838 -476 l36 -32 -31 -18 c-17 -11 -33
-25 -35 -32 -3 -6 -18 -86 -35 -177 -61 -335 -136 -594 -224 -775 -53 -107
-95 -163 -114 -151 -5 3 -20 38 -33 78 -22 65 -24 91 -24 243 0 156 3 178 29
275 62 225 165 426 281 547 80 83 97 88 150 42z m-4304 -17 c54 -35 87 -77
145 -186 24 -46 52 -90 63 -100 16 -14 17 -23 8 -69 -26 -129 -392 -760 -556
-957 -71 -86 -169 -172 -191 -168 -19 4 -45 56 -67 138 -12 48 -17 102 -16
205 2 428 174 907 391 1090 41 34 123 74 153 75 14 0 45 -13 70 -28z m6104
-1369 c-2 -16 -9 -66 -15 -113 -19 -145 -70 -408 -111 -566 -124 -483 -280
-758 -484 -855 -75 -36 -87 -36 -119 1 -99 118 -51 447 115 787 68 140 156
274 274 418 91 111 322 355 336 355 5 0 7 -12 4 -27z"/>
<path d="M5201 7360 c-63 -13 -160 -61 -248 -122 -221 -153 -453 -471 -568
-778 -15 -41 -29 -76 -31 -78 -1 -2 -57 27 -123 63 -335 185 -596 267 -777
245 -170 -21 -195 -119 -78 -306 267 -426 693 -844 1195 -1173 119 -79 333
-209 442 -268 26 -15 116 -17 151 -3 35 13 54 55 38 80 -9 16 -7 49 13 162 40
237 55 322 60 338 12 40 171 904 205 1110 69 426 74 558 20 644 -43 70 -182
110 -299 86z"/>
</g>
</svg>
