<?xml version="1.0" encoding="utf-8"?>
<!-- Generator: Adobe Illustrator 25.0.1, SVG Export Plug-In . SVG Version: 6.00 Build 0)  -->
<svg version="1.1" id="Layer_1" xmlns="http://www.w3.org/2000/svg" xmlns:xlink="http://www.w3.org/1999/xlink" x="0px" y="0px"
	 viewBox="0 0 2400 2400" style="enable-background:new 0 0 2400 2400;" xml:space="preserve">
<g>
	<path transform="translate(0.000000,2400.000000) scale(0.100000,-0.100000)" d="M9625,22002c-27-9-61-25-75-35
		c-142-98-330-390-454-702c-70-179-113-320-191-630l-62-250l-244-225c-368-340-502-473-497-496c6-32,79-31,135,2
		c49,29,277,209,438,348c55,47,103,86,107,86c3,0,4-8,2-17c-49-216-124-774-155-1143c-6-80-20-179-30-221c-39-157-50-226-50-312
		c-1-106,8-121,87-137c106-22,195,10,213,77c11,41,35,243,46,384c5,57,20,125,44,200l37,114l76-3c89-4,138,16,226,92
		c30,25,55,46,57,46c11,0,26-94,40-249c17-197,34-289,76-416c71-212,171-305,329-305c151,0,226,69,344,315c54,111,186,435,186,455
		c0,5,5,10,10,10c6,0,10-29,10-67c0-182,45-538,72-571c51-61,243-54,267,10c4,13,11,91,14,173c10,243,62,457,172,708
		c75,171,212,390,324,517l30,35l1-30c0-17-18-159-39-315c-57-411-64-505-58-767c7-306,25-374,108-407c22-9,68-16,102-16
		c83,0,140,29,189,95c41,54,155,263,208,383c18,39,36,72,40,72s10-44,13-97c11-182,71-348,150-419c68-62,118-79,232-79
		c87,0,107,3,155,26c126,59,211,199,301,494c39,129,102,418,114,526c6,51,10,60,48,90c23,18,69,58,101,89l59,55l-7-35
		c-64-331-87-499-88-665c-1-185,18-236,101-264c52-17,150-13,197,8c82,37,135,128,318,539c48,107,95,210,105,230l19,37l-5-151
		c-12-328,49-668,144-804c53-74,104-100,200-100c79,0,132,16,171,53c39,36,82,133,217,487c228,598,430,1091,559,1364
		c31,65,56,125,56,132c0,28-62,42-117,28c-78-21-288-446-684-1384c-99-233-183-428-188-433c-12-12-46,100-66,218
		c-40,239-43,578-9,949c8,87,12,168,8,179c-8,24-62,47-114,47c-68,0-103-21-142-86c-60-100-179-327-334-634c-81-162-149-287-151-278
		c-5,22,32,316,63,498c25,151,67,332,109,478c34,117,33,130-10,148c-41,17-110,18-146,1c-15-7-67-66-117-132
		c-93-124-238-301-265-323c-13-12-16-6-22,45c-28,249-143,373-345,373c-83,0-147-19-201-58c-84-62-170-207-205-345
		c-16-63-18-67-46-67c-69,0-90-20-137-131c-129-300-372-802-406-838c-10-11-14,3-20,79c-10,131,7,392,51,765c32,266,40,461,22,494
		c-24,45-75,66-158,65c-88,0-138-19-217-82c-118-94-296-339-419-576l-72-140l-4,80c-2,43,0,175,5,293c11,249,13,242-83,249
		c-93,7-115-7-141-87c-32-97-163-446-226-601c-125-306-321-710-345-710c-15,0-64,119-91,220c-26,98-38,171-57,345
		c-22,207-58,291-140,325c-17,7-30,16-30,19c0,4,26,38,58,77c196,234,446,613,574,869c160,320,176,475,54,535c-40,19-59,21-134,18
		c-79-3-97-7-168-42c-189-94-534-511-774-937c-48-86-70-116-70-99c0,30,71,457,98,586l19,91l78,74c108,103,309,320,398,431
		c238,297,367,584,367,818c0,192-78,281-247,280C9697,22019,9653,22012,9625,22002z M9765,21875c29-58,27-202-4-310
		c-46-166-158-362-318-560c-108-134-236-270-241-256c-5,16,81,327,133,481c89,259,226,525,328,636c28,31,57,54,66,52
		S9754,21897,9765,21875z M10020,20672c0-183-367-817-731-1262c-69-85-86-100-158-137c-45-22-81-39-81-38c0,13,126,298,185,420
		c169,345,355,634,563,872c70,80,187,183,209,183C10015,20710,10020,20697,10020,20672z M12450,19868c55-75,75-163,75-326
		c0-167,9-152-134-224l-84-42l-18,23c-28,34-39,87-39,181c0,101,18,193,55,280c33,79,81,150,100,150
		C12413,19910,12434,19891,12450,19868z M12065,19200c3-5,35-19,71-30c94-29,224-27,322,4c19,6,22,4,22-18c0-36-61-270-105-401
		c-47-140-133-318-179-370c-35-39-36-40-52-20c-83,102-133,373-119,655c3,80,9,155,12,168C12042,19211,12055,19217,12065,19200z
		 M3485,21659c-122-15-232-76-356-201c-177-177-313-419-379-674c-69-268-44-384,82-384c48,0,108,22,108,39c0,11-25,21-52,21
		c-19,0-20,4-14,55c14,118,117,380,213,538c72,121,163,235,265,333c116,111,173,148,188,124c46-72,50-334,10-595
		c-36-229-57-355-105-615c-100-543-135-781-160-1095c-54-668,56-1201,279-1354c95-65,244-79,353-31c152,65,294,320,489,879
		c37,107,69,190,70,185c2-5,8-88,14-184c13-211,31-345,70-505c87-362,248-645,408-718c72-32,237-36,314-8c134,51,234,183,334,442
		c75,195,105,323,274,1190c261,1342,402,2016,496,2372c26,98,34,141,26,149c-15,15-93,21-125,9c-19-7-34-27-52-67
		c-104-236-274-924-579-2344c-229-1065-268-1215-377-1437c-46-93-118-193-140-193c-19,0-104,129-155,235c-93,192-152,408-191,692
		c-26,187-26,870,0,1098c47,417,89,646,172,925c86,289,121,437,108,459c-17,26-55,41-111,41c-63,0-115-20-136-52
		c-39-59-161-512-222-818c-60-304-385-1313-570-1770c-82-201-188-394-245-446c-21-19-21-19-41,6c-29,36-72,125-96,200
		c-57,173-82,389-82,701c0,356,37,681,146,1274c117,642,148,848,160,1070c7,125-6,233-38,307C3790,21625,3659,21679,3485,21659z
		 M6985,20656c-161-51-296-199-406-446c-61-135-118-301-159-462l-33-128l-81-59c-195-142-326-329-330-471c-1-67,17-114,50-129
		s109-14,121,2c6,6,13,40,16,74c6,74,45,159,118,256c28,37,53,66,55,65c2-2-2-51-8-108c-13-136-5-431,17-540c59-306,166-496,301-536
		c82-24,175-15,243,22c78,42,176,181,363,518c182,328,438,877,438,941c0,30-85,46-132,24c-15-7-49-60-102-162
		c-107-205-235-439-346-632c-160-276-343-554-366-555c-35,0-123,284-144,470c-22,188-4,587,36,772c4,20,32,43,125,103
		c326,210,556,442,610,617c51,162-12,316-146,361C7167,20673,7043,20674,6985,20656z M7148,20557c51-54,67-162,37-246
		c-24-69-84-151-184-252c-100-100-303-259-309-241c-8,25,80,310,135,437c51,115,135,238,196,285C7082,20585,7117,20590,7148,20557z
		 M19978,20405c-29-16-68-77-208-325c-248-438-492-814-648-998c-56-66-61-61-69,75c-12,205,42,550,153,974c60,232,60,239-1,265
		c-19,8-49,14-67,14c-72,0-98-17-237-152c-131-128-213-202-312-281l-47-37l-17,52c-64,198-180,321-336,357c-65,15-197,13-264-4
		c-172-45-316-191-356-361c-18-76-32-100-156-254c-96-120-427-524-453-553c-4-5-5,148-2,340c5,343-6,609-29,679c-12,39-44,54-114,54
		c-100,0-97,4-200-240c-215-507-501-989-558-941c-42,34-99,218-116,375c-14,118-14,393-1,546c11,132,7,140-66,140
		c-108,0-133-48-170-325c-25-189-23-433,4-553c30-132,65-203,127-260c70-64,143-87,254-79c103,7,174,38,246,111
		c99,99,239,340,356,613c28,65,53,120,56,123c15,13-16-570-42-800c-13-111-18-129-45-165c-16-22-86-123-154-225
		c-447-666-666-1174-666-1539c1-241,73-337,255-336c60,1,92,6,129,23c257,116,456,587,600,1422c18,104,96,661,96,685
		c0,13,642,836,647,831c2-2-4-46-13-97c-13-70-18-147-18-299c-1-184,2-214,23-295c32-122,61-185,112-240c74-80,103-90,259-90
		c130,0,137,1,195,30c138,70,267,252,362,515c52,144,74,257,80,417l5,141l51,33c46,30,140,103,231,180c31,27,38,29,34,14
		c-92-322-129-509-135-691c-9-243,29-348,145-402c75-34,198-36,282-3c126,48,265,220,510,629c40,67,74,121,76,119s-3-41-11-88
		c-28-161-45-345-45-486c0-311,50-472,164-524c63-29,207-26,288,5c247,93,464,324,644,688c67,135,68,137,50,157c-26,28-143,30-170,4
		c-10-10-54-76-98-148c-111-179-176-264-288-375c-98-98-225-190-239-174c-32,35-51,277-40,493c13,251,74,651,158,1041
		c39,180,28,203-98,208C20028,20419,19997,20416,19978,20405z M18141,20216c44-30,99-111,127-187c19-53,52-192,52-222
		c0-23-134-76-244-98c-69-13-121,3-172,55c-56,56-66,95-49,193c8,43,14,83,15,89c0,25,83,135,122,163
		C18044,20248,18091,20250,18141,20216z M18302,19482c-12-65-35-161-52-213c-37-113-123-295-178-375c-49-73-126-146-146-138
		c-21,8-61,71-85,130c-35,91-53,204-58,369c-4,139,6,328,19,340c2,3,38-2,79-11c91-20,251-13,354,14c39,10,74,14,80,10
		C18321,19603,18316,19556,18302,19482z M16600,18220c-94-556-225-999-366-1241c-33-56-119-159-133-159c-33,0-51,190-32,332
		c32,240,162,572,358,913c96,168,194,328,198,323C16627,18386,16615,18311,16600,18220z M12540,17761c-50-16-89-41-128-86
		c-114-130-217-437-267-797c-21-156-38-489-31-616l6-112l-210-313c-116-171-233-345-261-384c-43-61-49-75-39-88c16-19,92-20,128-1
		c51,27,238,241,349,400c21,31,40,55,44,56c3,0,11-55,17-122c23-228,40-275,109-304c44-19,154-18,202,2c48,19,56,31,110,163
		c106,260,206,441,345,625c95,125,198,232,215,222c16-10,14-140-3-228c-29-145-171-564-200-586c-6-5-47-19-91-31
		c-119-33-288-119-371-189c-152-129-240-324-189-421c35-69,127-111,241-111c253,0,437,148,595,480c92,194,65,168,224,211
		c77,21,160,45,184,53c24,9,49,16,56,16s16-33,23-94c26-208,119-377,237-432c42-20,66-24,156-24c121,0,180,14,283,68
		c136,71,226,189,295,385c40,114,40,132,0,146s-68,14-108,0c-26-9-39-26-73-93c-85-170-155-257-262-327c-84-55-96-53-139,29
		c-58,109-78,197-84,363l-6,145l29,19c126,82,286,295,350,465c24,65,28,89,28,185c0,95-3,118-24,170c-29,69-68,100-138,111
		c-60,9-147-9-190-40c-84-60-199-265-266-473c-35-110-86-338-86-385c0-22-10-30-67-55c-85-38-252-95-269-91c-8,2-4,30,17,98
		c75,249,115,533,89,630c-17,62-73,114-140,130c-75,18-175,8-245-24c-131-60-306-243-476-496l-64-95l-14,167l-14,168l55,92
		c225,378,328,649,359,946c19,184-13,366-75,428C12709,17763,12613,17783,12540,17761z M12618,17443c6-179-21-335-90-522
		c-37-102-107-256-113-250c-6,7,13,248,31,384c26,197,69,372,120,485c23,53,29,59,38,43C12609,17573,12616,17510,12618,17443z
		 M14067,16397c-3-35-15-88-27-118c-25-64-70-143-77-136c-11,12,90,317,105,317C14071,16460,14070,16432,14067,16397z M12782,15289
		c-53-91-165-234-201-258l-24-16l5,42c7,51,48,133,93,186c38,45,143,127,162,127C12824,15370,12808,15334,12782,15289z M8665,17703
		c-55-14-89-40-129-97c-134-188-248-536-306-933c-45-314-45-652,1-889l22-112l-48-88c-85-156-186-294-216-294c-14,0-55,90-73,160
		c-36,148-49,272-49,495c-1,240,12,409,48,610c14,82,20,136,14,146c-21,39-138,52-199,21c-20-10-42-32-52-52c-22-45-53-201-73-365
		c-31-258-206-709-352-906l-46-63l-13,27c-36,68-49,177-48,407c0,249,19,433,75,730c17,90,32,193,33,228c1,59-1,66-25,84
		c-31,23-101,34-156,23c-32-6-64-34-223-196c-102-104-191-189-197-189s-17,15-23,34c-17,51-84,151-136,201c-25,24-73,58-107,75
		c-150,73-383,53-511-45c-38-29-52-33-119-37l-77-3l-100-107c-86-91-231-208-259-208c-4,0-5,56-3,125c4,125,4,126-27,190
		c-45,90-90,117-201,117c-132,1-212-50-273-176c-35-70-46-125-47-215c0-140,57-203,206-224c40-6,74-14,74-18c0-13-92-276-172-489
		c-98-264-171-410-242-485c-64-68-85-70-138-12c-97,104-170,333-190,595c-9,126-9,219,1,455c8,162,11,307,7,321c-9,35-54,56-120,56
		c-83,0-93-14-181-238c-169-433-392-919-503-1097c-56-89-157-215-173-215c-14,0-48,83-70,175c-34,143-40,349-24,795
		c8,223,15,446,15,497c0,85-2,93-22,105c-13,6-47,12-77,11c-48,0-58-4-82-31c-33-37-69-179-104-414c-87-584-82-890,20-1114
		c63-139,153-194,313-194c99,1,172,24,240,78c106,84,242,351,429,838l68,179l7-140c15-318,97-572,229-707c81-82,148-111,259-112
		c127-1,178,20,266,109c63,63,80,90,142,216c75,154,143,332,253,659l68,204l48,17c55,19,166,73,205,100c14,11,28,19,31,19
		s-3-33-14-72c-10-40-30-143-45-228c-44-259-25-520,48-664c82-162,202-231,398-229c252,3,429,142,589,460c107,215,161,405,161,571
		v90l36,27c20,16,74,63,120,107c46,43,85,78,87,78c3,0-4-36-14-81c-132-565-111-1010,54-1155c25-22,63-46,85-52c53-16,208-14,255,2
		c94,34,178,126,261,286l44,84l12-44c69-269,165-370,351-370c125,0,235,58,330,175l52,65l53-59c60-66,100-86,194-96
		c127-13,261,26,350,102l39,34l45-35c130-99,346-112,506-31c28,14,79,50,114,80l64,54l30-63c37-80,90-138,150-168
		c40-20,62-23,147-22c118,0,185,18,300,77c163,84,273,232,330,442l27,99l-22,18c-15,12-39,18-76,18c-84,0-97-10-139-112
		c-73-175-175-296-308-366c-62-32-62-32-79-12c-33,40-89,241-103,366c-6,59-5,65,32,130c176,314,368,868,428,1237
		c20,123,20,345,0,422c-32,122-76,156-201,156c-141,0-208-60-318-286c-118-242-184-474-251-890l-5-30l-107-1c-121-1-193-22-299-85
		c-86-52-193-172-246-276c-79-154-108-272-108-444c0-87-3-100-26-135c-41-62-112-129-160-154c-42-21-46-21-64-5
		c-46,42-137,271-127,323c3,15,23,69,46,120c106,238,222,642,286,995c45,250,49,291,50,497c0,261-20,350-90,396
		C8800,17702,8701,17713,8665,17703z M8665,17080c-24-200-148-735-185-799c-12-21-12-3,0,174c24,334,83,650,162,870l33,90l3-100
		C8680,17260,8674,17154,8665,17080z M10209,17102c-23-142-104-434-171-617l-43-120l-3,48c-4,58,29,301,64,470
		c40,201,112,432,157,511C10236,17434,10233,17243,10209,17102z M6249,16652c83-56,171-210,187-326l6-41l-76-44
		c-113-64-229-112-291-118c-52-5-56-4-89,29c-48,48-62,104-47,188c28,155,163,340,247,340C6198,16680,6226,16667,6249,16652z
		 M5107,16638c21-41,23-164,4-260c-16-81-30-103-58-94c-65,21-59,225,10,349c11,20,22,37,24,37C5088,16670,5097,16655,5107,16638z
		 M9628,16336l23-12l1-316l1-315l-49-64c-64-85-181-199-228-223c-43-23-59-17-94,34c-37,55-52,124-52,239c0,284,122,544,300,645
		C9581,16353,9595,16355,9628,16336z M6436,16058c-20-124-133-387-233-543c-85-130-203-235-266-235c-47,0-118,103-151,220
		c-29,105-39,219-33,377c3,84,9,158,12,163s24,1,50-10c122-52,297-53,455-1c52,17,111,40,130,51c19,10,37,19,39,20
		C6441,16100,6440,16081,6436,16058z M15280,17452c-102-54-169-308-170-642c0-254,55-749,119-1062l19-92l-30-85
		c-86-247-205-514-233-524c-8-4-20-19-26-34c-9-24-7-30,11-45c28-23,91-23,136-2c46,22,104,91,160,192c26,45,50,85,54,87
		c4,3,16-28,26-68c28-116,83-149,217-133c93,10,99,19,203,311c91,257,225,522,345,681c32,44,63,80,68,82c17,6,21-68,21-422
		c0-381,7-451,48-532c42-82,120-124,246-131c93-6,179,12,266,55c54,27,160,123,217,196l30,40l54-19c38-13,93-20,182-23
		c117-4,135-2,211,22c250,78,422,323,535,764l26,103l92,38c51,21,132,61,180,89c48,27,89,49,90,48s-14-51-33-111
		c-50-154-112-402-130-515c-28-187-15-386,32-491c32-71,72-110,147-144c56-26,64-27,200-23c134,3,146,5,219,37
		c86,36,184,102,272,183l60,54l49-33c71-48,133-63,259-63c155,0,257,38,453,167c200,132,349,293,436,468c49,100,99,266,99,330
		c0,30-4,35-45,51c-50,19-133,15-167-8c-11-7-35-52-53-98c-18-47-48-117-68-155c-104-206-303-397-561-536l-79-42l-23,29
		c-32,39-84,138-84,158c0,9,26,62,59,119c112,195,214,455,257,658c22,101,25,268,6,322c-33,91-111,133-231,125
		c-213-16-376-234-463-619c-31-139-33-401-4-524c33-141,35-131-41-218c-87-101-201-198-280-239c-61-32-62-32-82-13
		c-43,38-56,114-55,325c1,208,5,240,76,530c39,163,124,418,183,549c54,122,55,149,5,173c-41,21-140,24-191,6c-19-6-72-47-118-91
		c-167-157-258-229-381-299l-45-26v151c0,149-1,153-30,212c-41,83-91,108-209,108c-69-1-94-6-145-28c-74-34-151-112-189-192
		c-24-52-27-69-27-173c0-130,14-171,80-228c47-42,78-57,148-73l59-13l-7-35c-10-52-81-242-127-338c-106-224-260-378-361-359
		c-37,7-127,78-127,101c0,7,15,49,34,93c84,196,143,434,152,612c7,132-4,211-42,287c-31,64-72,91-151,99c-164,17-261-64-339-282
		c-51-142-68-267-61-449c7-180,29-268,93-367l18-27l-57-84c-55-82-150-182-194-205c-19-10-24-9-32,5c-23,44-33,163-41,488
		c-11,433-22,512-82,580c-63,72-223,87-341,31c-133-64-300-280-457-594l-67-133l-17,88l-18,89l36,122c99,343,159,828,136,1092
		c-22,251-100,443-201,495C15447,17477,15324,17475,15280,17452z M15429,17234c50-133,62-338,36-607c-14-148-44-332-52-324
		c-2,3-15,87-29,188c-30,219-42,528-25,636c18,116,32,174,41,168C15405,17292,15418,17265,15429,17234z M17813,16633
		c9-88-14-313-32-313c-5,0-17,19-27,42c-14,32-19,66-19,133c0,77,4,98,27,148c15,32,32,56,36,53
		C17803,16693,17810,16665,17813,16633z M19456,16541c-3-42-19-126-36-187c-29-108-109-317-129-337c-24-24-5,172,34,347
		c23,100,63,205,102,265c14,22,16,23,26,6C19459,16624,19460,16586,19456,16541z M17070,16292c0-112-10-177-47-310
		c-21-74-28-90-36-76c-11,20-3,198,14,290c13,76,51,194,61,194C17066,16390,17070,16346,17070,16292z M7165,14581
		c-74-33-139-132-206-314c-40-108-101-349-131-514l-23-133h-90c-154,0-291-45-440-145c-156-103-297-284-376-479c-18-44-39-72-83-112
		c-33-30-62-54-66-54c-3,0-12,46-19,103c-29,232-136,434-279,525c-129,83-315,83-444,0c-98-62-192-191-254-350c-27-67-27-67-72-74
		c-60-9-77-29-92-110c-24-133-196-630-295-857c-76-172-196-337-246-337c-59,0-140,208-184,470c-30,182-29,729,1,954l6,43l107,32
		c177,52,379,92,496,99c92,6,110,10,113,24c12,62-330,39-626-43c-41-11-76-19-78-16c-4,3,13,151,71,642c18,157,19,267,3,283
		c-15,15-82,16-108,2c-11-6-26-33-34-63c-21-74-99-499-130-712c-15-99-30-191-34-204c-6-19-28-31-132-67c-196-68-298-123-387-208
		c-89-87-94-109-22-114c43-3,50,1,120,58c94,78,383,219,404,198c3-3-1-63-10-134c-46-383-21-778,66-1053c71-223,170-311,349-311
		c181,0,298,92,419,330c32,63,82,177,112,254l53,138l23-88c30-121,100-259,169-334c76-81,155-120,260-127c180-12,324,54,428,195
		c87,119,182,366,213,553c16,95,18,100,50,119c19,11,36,20,39,20c2,0,4-47,4-103c0-178,54-330,151-428c78-79,159-109,299-109
		c199,0,326,77,493,299c59,79,72,91,78,75c5-10,19-47,32-82c59-150,147-257,236-287c83-27,198-18,285,23c72,34,177,104,210,141
		c25,28,31,27,46-9c19-47,86-109,148-138c52-25,68-27,182-27c120,0,128,1,192,32c82,38,145,95,202,182c56,85,135,243,187,373
		c22,57,43,111,48,122c4,11,12-34,19-115c19-218,53-305,140-356c43-26,56-28,147-28c86,0,107,4,150,25c64,31,160,126,219,218
		c50,76,168,309,206,404c12,32,26,56,30,53s11-24,14-47c8-54,44-133,81-176c48-57,97-75,210-80c123-5,188,16,265,85
		c80,72,192,244,250,383c32,77,40,81,34,19c-2-30-13-175-24-324c-12-148-25-308-31-354l-10-83l-142-160c-323-362-607-803-721-1119
		c-71-197-100-419-67-512c36-103,110-141,258-135c88,3,105,7,160,37c192,103,405,422,548,821c74,208,159,580,200,874
		c20,145,31,195,46,214c10,14,94,109,186,211c217,241,536,561,640,640c45,34,84,68,87,76c8,23-22,38-79,38c-46,0-65-7-127-44
		c-123-74-263-194-487-416l-214-212l7,122c20,367,26,536,26,759c0,245,0,247-23,274c-20,23-34,28-84,32c-79,6-129-11-149-50
		c-8-16-33-87-56-156c-111-349-204-569-302-716c-61-90-143-179-158-169c-19,11-49,93-63,171c-8,42-19,196-25,342s-15,281-20,301
		c-8,27-18,40-43,50c-42,18-134,17-172-2c-26-12-33-25-53-99c-115-430-331-917-494-1112c-22-27-46-48-53-48s-20,21-29,48
		c-32,99-39,185-37,516c0,295,2,331,18,348c16,18,15,22-6,88l-22,69l-82,45c-94,51-156,66-267,66c-190,0-368-73-519-215
		c-200-187-361-504-392-771c-8-69-15-94-39-129c-70-101-200-222-283-261c-47-22-54-16-106,89c-64,130-111,341-111,498
		c0,54,6,81,24,117c72,142,199,475,265,697c109,363,154,582,155,760c1,109-1,125-24,170c-35,69-86,95-190,95
		C7229,14600,7192,14594,7165,14581z M7225,14174c-26-163-122-525-124-468c-3,80,118,589,135,571C7239,14274,7234,14228,7225,14174z
		 M6786,13515c3-8,1-84-6-168c-6-84-13-240-15-346l-4-194l-62-111c-125-223-226-363-333-463c-78-74-101-78-144-29
		c-208,237-106,840,193,1140c44,45,107,96,139,115C6660,13522,6773,13549,6786,13515z M8584,13441l25-10l-19-38
		c-10-21-41-105-70-188c-172-498-319-803-463-960c-68-74-81-70-116,31c-33,94-34,277-3,406c52,213,161,434,289,585
		C8338,13398,8495,13474,8584,13441z M5281,13382c77-49,143-155,184-297c21-71,28-119,32-225c3-80,1-145-5-161c-8-19-29-32-92-57
		c-87-34-297-92-334-92c-29,0-60,30-88,83c-33,64-37,230-9,352c33,137,106,280,183,360c35,36,68,65,74,65S5256,13397,5281,13382z
		 M5455,12478c-14-74-81-259-122-343c-69-141-154-235-211-235c-63,0-169,159-216,322c-25,88-51,226-44,234c3,2,25-3,49-12
		c74-27,222-21,364,15c66,16,131,34,145,40C5459,12514,5462,12512,5455,12478z M10205,11823c-122-549-308-979-519-1200
		c-73-76-80-75-92,7c-22,145,71,457,213,715c118,215,411,636,421,606C10230,11945,10220,11887,10205,11823z M13859,14581
		c-189-74-311-348-414-928c-61-343-106-816-89-950c6-52,5-53-44-116c-85-107-243-251-312-286c-84-41-105-40-151,9
		c-108,113-116,394-23,812c48,217,139,515,191,625c19,40,12,60-22,69c-72,18-139-30-198-144c-117-224-252-656-278-891
		c-35-329,53-549,243-606c59-17,210-20,278-4c68,15,176,72,258,133c43,33,74,51,76,43c2-6,11-73,19-147c19-160,53-285,107-396
		c50-103,106-165,178-201c52-26,66-28,172-28c99,0,121,3,156,22c206,110,240,498,78,890c-33,81-113,231-165,310c-16,25-18,34-7,36
		c7,2,45,12,83,21c100,24,222,87,295,153c67,61,160,185,160,214c0,23-60,43-103,33c-23-5-57-33-121-101c-100-106-181-159-290-192
		c-125-38-124-41-41,122c88,170,185,401,249,592c174,514,159,838-43,910C14041,14606,13918,14604,13859,14581z M14004,14413
		c35-109,30-224-19-430c-28-117-100-338-151-463c-76-183-157-360-165-360c-5,0-7,10-5,23c3,12,8,56,11,97c24,287,106,751,163,920
		c44,128,115,260,142,260C13984,14460,13995,14439,14004,14413z M13766,12640c98-174,148-325,164-490c10-104,1-240-18-305
		c-16-51-52-116-62-110c-17,10-58,88-84,157c-48,126-91,405-103,660c-5,118-4,140,11,162c9,14,21,26,26,26S13734,12695,13766,12640z
		 M16066,14565c-58-21-86-44-132-112c-81-120-147-320-214-653c-60-293-90-608-90-931v-146l-78-114c-43-63-118-170-166-239
		c-110-156-121-177-105-196s99-18,127,2c12,8,71,75,130,147l107,131l7-40c4-21,10-78,13-126c9-120,23-138,111-138c36,0,74,4,84,10
		c10,5,50,74,88,152c79,164,171,317,276,462c83,114,222,276,236,276c13,0,5-62-31-240c-64-323-73-392-74-530c0-126,2-139,26-185
		c18-35,39-59,74-80c45-28,57-30,156-33c125-4,179,9,272,65l58,35l43-40c50-46,96-62,178-62c116,0,268,85,408,230l86,87l17-59
		c23-78,91-149,159-166c145-37,267,20,369,169c38,56,120,216,168,329l24,55l8-47c19-118,64-192,132-217c16-6,63-11,104-11
		c174,0,239,81,363,452l58,173l6-50c33-255,70-409,120-500c43-78,78-99,166-99c80,0,120,20,170,87c36,47,323,582,362,674
		c20,48,24,51,60,55c22,2,41,1,43-2s-4-39-13-80c-23-111-23-445,2-565c21-106,48-174,82-206c36-33,135-39,190-11
		c84,44,195,184,334,423l55,95v-223c0-269-5-258,115-258c57,0,83,4,94,15c9,8,22,51,31,95c46,245,198,601,375,883
		c57,90,88,127,75,90c-20-61-122-444-149-563c-85-365-119-672-81-745c20-38,59-64,124-84c72-21,126-20,202,4c95,30,161,87,227,195
		c37,61,102,216,102,244c0,25-28,41-70,41c-49,0-68-16-106-93c-59-117-112-193-171-247c-66-60-92-63-106-10c-30,113,41,543,165,1005
		c86,318,100,399,77,448c-17,38-54,52-133,52c-87-1-120-17-198-97c-62-63-217-291-292-428l-46-85v60c0,72,13,183,42,362
		c11,72,18,138,15,146c-8,20-57,30-89,18c-22-8-32-28-68-138c-108-326-261-658-407-883c-63-96-160-220-173-220c-38,0-50,550-16,740
		l18,104l113,111c159,156,234,274,235,368c0,58-28,92-84,103c-143,26-318-169-412-459c-24-73-34-92-57-104c-16-8-31-12-34-9
		s6,38,21,78c70,195,73,363,6,430c-25,25-36,28-95,28c-81,0-127-21-184-86c-89-101-121-230-86-349c14-48,28-69,77-118l61-59l-20-42
		c-31-63-297-546-327-595c-18-27-31-40-37-34c-14,14-77,310-94,443c-8,63-19,193-25,288c-13,214-21,242-74,260c-45,14-98,7-120-17
		c-8-9-31-75-50-146c-112-419-248-776-322-846c-25-23-26-23-39-5c-37,50-44,227-21,494c8,84,11,165,7,180c-8,30-42,52-82,52
		c-16,0-33,10-47,30c-41,55-95,75-202,75c-83,0-102-3-150-27c-136-67-269-228-417-503c-161-301-218-389-318-490
		c-70-71-213-175-241-175c-17,0-40,35-64,97l-18,49l35,54c87,138,191,377,240,557c22,81,27,119,28,223c0,163-19,204-105,220
		c-63,11-129-5-168-43c-101-95-204-319-253-552c-15-67-19-373-6-419c8-27,3-34-60-96c-37-36-90-77-117-90l-49-23l-18,22
		c-44,55-37,211,26,553c52,286,65,388,55,450c-15,100-65,132-196,126c-76-3-85-6-139-42c-94-66-329-351-453-553c-31-50-58-91-59-89
		c-1,1-3,45-4,98l-1,95l72,119c193,314,379,761,440,1054c56,269,27,522-71,618C16236,14579,16147,14594,16066,14565z M16171,14390
		c17-59,23-231,10-321c-24-168-90-393-181-619c-48-120-151-342-157-337c-4,5,15,280,28,397c6,52,26,179,44,283
		c55,303,118,514,186,622c29,46,32,48,45,30C16154,14435,16165,14410,16171,14390z M20425,13688c-4-18-16-49-25-68
		c-27-51-133-176-138-161c-7,20,73,176,113,220C20420,13729,20434,13731,20425,13688z M19898,13611c4-72-17-171-58-266l-22-50
		l-16,30c-8,17-17,64-20,106c-5,88,11,148,59,224C19879,13715,19893,13705,19898,13611z M18360,13194c67-57,68-55-34-294
		c-104-242-176-392-237-495c-47-79-136-195-149-195c-18,0-40,105-40,184c1,235,131,549,304,735c46,49,100,91,118,91
		C18325,13220,18342,13208,18360,13194z M17191,12948c-19-82-98-298-108-298c-18,0,46,254,90,360c26,61,33,70,35,48
		C17210,13044,17202,12994,17191,12948z M13014,14371c-12-5-24-16-27-24s-24-17-46-21c-43-7-106-53-116-87c-19-60,40-99,150-99
		c83,0,128,18,160,63c21,30,20,119-3,147C13113,14374,13048,14385,13014,14371z M14632,11335c-169-52-278-273-387-781
		c-53-247-90-526-110-835l-7-96l-134-219c-73-120-159-269-191-330c-50-96-56-114-44-128c17-20,89-21,117-1c12,8,72,82,134,165
		c61,82,115,148,120,145c4-2,10-49,13-104c10-146,61-431,97-546c61-192,143-310,250-359c47-22,69-26,151-26c114,0,164,21,216,89
		c71,92,105,307,84,538c-20,234-55,361-177,649c-3,7,16,19,48,29c58,19,224,99,286,139l40,25l11-74c26-179,97-310,192-358
		c115-59,259-44,344,34c24,22,58,69,77,104c18,36,36,65,39,65c4,0,12-21,19-46c31-111,121-205,225-234c73-20,209-9,271,22
		c161,83,369,453,425,758c14,71,15,73,66,107c28,19,84,64,124,101l72,67l-7-45c-4-25-15-90-24-145c-24-149-24-575,1-665
		c43-159,99-220,207-228c119-9,174,32,295,218c190,292,313,523,323,605c4,41,3,43-26,49c-59,14-78,0-121-87c-83-167-406-645-425-627
		c-25,26-36,451-15,638c14,129,53,362,84,499c14,62,25,125,25,141c0,40-31,64-89,70c-87,8-111-7-215-136c-52-64-127-153-167-196
		l-73-79l-13,80c-23,146-78,253-153,298c-46,27-179,28-226,3c-52-28-95-79-128-148c-29-61-31-72-31-180c0-219,62-307,233-331
		c36-5,68-11,70-14c7-7-65-209-110-310c-68-152-166-301-229-345c-29-21-31-21-50-4c-34,31-78,136-99,239c-14,67-24,175-31,325
		c-7,155-15,234-25,254c-8,16-14,39-14,50c0,40-63,129-113,163c-66,44-116,56-218,51c-72-3-97-9-152-36c-118-59-240-209-298-371
		c-18-51-32-71-71-102c-67-53-202-133-300-178c-125-57-122-57-161-19c-36,36-93,58-151,58c-20,0-36,2-36,3c0,2,51,80,113,173
		c226,340,379,677,417,916c18,112,9,288-19,360C14929,11318,14782,11382,14632,11335z M14745,11045c10-100-10-221-59-370
		c-54-160-202-485-222-485c-6,0,7,85,43,285c55,308,112,514,176,640l30,60l13-30C14733,11129,14741,11084,14745,11045z M16536,10464
		c34-78,47-183,35-284c-12-93-15-100-41-100c-45,0-87,156-77,284c5,72,31,156,49,156C16507,10520,16522,10495,16536,10464z
		 M15742,10264c33-17,118-92,118-104c0-4-17-10-38-14c-21-3-46-14-55-24c-10-10-36-104-63-218c-25-109-62-247-81-306
		c-34-105-88-211-108-212c-13-1-43,83-62,174c-22,106-13,309,17,405c52,164,155,315,215,315C15699,10280,15725,10273,15742,10264z
		 M14469,9531c32-17,44-33,78-108c56-119,107-294,127-430c29-198,16-497-26-587c-10-24-13-25-28-11c-30,28-89,167-119,285
		c-35,136-68,379-81,592c-13,203-12,278,0,278C14426,9550,14448,9541,14469,9531z M8457,10746c-10-11-17-48-22-125
		c-9-132-1-200,29-243c20-30,27-33,71-33c48,0,50,1,46,25c-3,14-3,79-1,145s4,147,4,180l1,60l-56,3
		C8489,10760,8468,10757,8457,10746z M9163,10491c-23-21-31-60-59-278l-17-132l-106,1c-144,1-231-24-321-94c-34-25-60-36-98-41
		c-110-13-203-91-297-248c-54-91-123-243-151-331c-10-32-21-58-24-58c-9,0-27,162-40,357c-11,152-19,186-47,201
		c-60,31-158,20-191-23c-10-13-34-66-52-117c-79-226-145-398-185-483c-85-183-202-335-258-335c-26,0-63,30-91,72
		c-16,25-15,28,43,133c68,122,150,315,180,424c65,234,39,430-65,488c-94,54-257,16-338-78c-92-108-164-325-173-529
		c-6-138,18-273,66-376l31-66l-83-81c-96-95-190-156-215-140c-29,17-45,84-49,208c-6,139,17,331,73,620c38,197,50,298,40,340
		c-13,52-123,72-201,36c-22-10-80-60-130-110c-49-50-92-91-96-91c-3,0-9,20-12,45c-17,123-91,185-219,185c-119,0-217-73-281-208
		c-28-58-32-78-32-147c0-68,4-85,23-113c38-53,93-75,200-80c52-3,92-9,92-14c0-18-71-189-111-271c-142-281-321-477-439-477
		c-26,0-42,9-76,44c-107,112-147,402-96,694c11,63,22,115,24,116c73,51,117,88,158,134c140,157,161,349,41,382
		c-112,30-220-46-301-214c-27-56-61-141-75-191c-24-86-43-115-72-115c-9,0-13,18-13,63c0,78-23,186-51,245c-41,83-153,105-240,47
		c-86-57-131-228-83-320c22-43,100-103,146-112c16-3,31-9,34-14c8-13-96-317-151-442c-68-154-213-377-246-377c-13,0-46,56-70,120
		c-60,158-82,366-69,654c5,110,7,211,3,224c-11,45-124,69-183,39c-31-16-31-15-146-307c-53-135-125-305-161-379
		c-65-137-170-306-218-351c-26-24-27-24-40-6c-23,31-54,136-65,216c-12,98-12,317,0,555c14,271,27,372,50,410c24,38,12,55-37,55
		c-74,0-148-70-182-172c-31-92-77-326-97-486c-22-184-16-418,14-512c57-177,159-249,340-238c97,6,163,38,225,109
		c59,67,136,198,189,320c30,69,45,94,49,82c3-10,16-58,28-108c44-183,132-313,236-348c61-21,168-22,228-1c58,20,135,88,189,167
		c92,135,194,387,255,627c36,141,39,150,62,150c20,0,23-4,18-27c-36-185-35-443,3-553c42-122,88-190,162-236c117-74,329-70,467,8
		c184,104,382,435,481,804c17,64,27,84,48,96c15,9,53,40,85,68c31,28,57,49,57,46c0-2-13-58-29-123s-41-190-56-278
		c-45-262-27-442,51-534c54-62,120-86,239-86c150,1,242,41,379,167l60,54l60-25c50-20,78-25,151-25c77,1,99,5,152,29
		c123,55,238,217,349,492c16,40,32,73,35,73s9-36,13-80c7-83,63-404,92-523c24-98,73-128,180-112c63,9,80,30,88,106
		c14,134,49,318,81,429c56,195,170,439,249,535l25,30l1-75c0-41-5-160-11-264c-11-202-2-369,28-516c18-91,70-205,109-242
		s105-58,173-57c89,1,139,26,184,93c17,24,28,33,31,25s16-52,31-98c14-46,40-112,57-145c70-138,119-170,252-165c76,4,88,7,123,35
		c102,83,194,240,257,444c39,126,79,333,74,383c-3,31-4,32-58,35c-30,1-60-1-67-6c-7-4-28-68-47-142c-42-166-75-258-133-378
		c-53-108-130-219-144-205c-13,13-53,175-80,323c-20,112-23,165-27,515c-2,214-1,418,3,453l7,64l31-6c18-4,99-9,180-13
		c162-6,207,3,267,54c37,30,38,46,5,61c-39,18-91,14-145-9c-48-20-51-21-128-5c-44,9-106,24-139,34l-58,18v79c0,44,4,153,9,241
		c8,157,8,162-13,183C9312,10518,9194,10520,9163,10491z M9034,9945c35-15,38-19,33-48c-4-18-13-151-22-297c-14-220-23-291-50-420
		c-36-169-94-361-111-367c-6-2-16,19-22,47c-28,121-35,249-29,550c5,320-1,403-34,456c-23,38-18,44,68,80
		C8930,9973,8969,9972,9034,9945z M5515,9828c-26-55-82-124-92-114c-10,9,46,151,80,203l32,48l3-42C5540,9894,5533,9865,5515,9828z
		 M7301,9918c9-21,14-71,14-138c-1-95-5-115-38-211c-20-59-60-155-88-215l-52-109l-8,40c-34,175,35,552,119,648
		C7270,9958,7286,9954,7301,9918z M6138,9831c13-42,15-124,5-184c-5-33-12-41-54-63c-62-31-74-30-89,6c-27,64,14,226,72,287
		c19,21,23,21,38,8C6119,9876,6132,9852,6138,9831z M4951,9778c14-52,15-216,1-230c-13-13-49,34-62,83c-6,22-8,56-4,77
		c9,49,34,112,45,112C4935,9820,4945,9801,4951,9778z M11205,10300c-134-22-229-86-314-213c-56-83-93-173-98-240
		c-7-89,18-130,148-242c57-51,128-120,156-156c58-70,153-247,153-283c0-12-15-37-36-57c-61-58-198-220-258-304
		c-65-90-148-256-165-327c-6-26-11-76-11-111c0-78,24-120,90-157c41-23,56-25,161-25c114,0,116,0,194,39c246,121,412,472,376,792
		c-6,49-17,112-26,139c-17,58-26,42,115,190c52,55,124,131,158,169c35,37,65,66,67,64c3-2,0-45-6-94c-15-119-5-318,20-416
		c60-233,203-348,431-348c242,0,392,126,510,427c50,127,84,254,100,372l13,91l96,51c116,62,226,137,299,204c60,54,152,179,152,205
		c0,23-42,40-101,40c-49,0-52-2-139-84c-128-122-301-240-320-219c-4,4-13,31-20,58c-31,120-111,257-194,333
		c-199,183-547,130-681-104c-42-73-134-188-310-389c-167-191-283-315-293-315c-4,0-27,30-51,66s-87,105-139,152
		c-53,48-118,108-145,134l-49,47l4,69c3,57,11,85,47,157c49,98,116,175,154,175c46,0,134-82,215-202c24-35,41-49,65-53
		c39-8,87,9,87,30c0,28-60,148-101,203C11478,10275,11349,10323,11205,10300z M12541,10112c91-95,158-258,159-390c0-48-5-52-118-78
		c-57-13-66-13-98,2c-117,56-171,238-114,388c22,57,82,136,103,136C12479,10170,12509,10144,12541,10112z M12370,9504
		c49-12,96-15,188-11c111,4,122,3,118-12c-3-9-12-45-21-80c-49-192-215-501-270-501c-23,0-64,69-92,155c-24,73-26,99-31,279l-4,199
		l23-7C12294,9523,12334,9512,12370,9504z M11286,8848c-12-89-37-180-72-256c-34-75-105-182-143-216l-21-19v49c0,116,70,276,193,442
		c22,28,42,52,44,52C11290,8900,11290,8876,11286,8848z M19233,8830c-76-38-180-125-356-299c-208-204-372-412-462-584
		c-16-31-32-57-35-57s-37,23-75,51c-163,119-324,205-436,234c-32,8-101,15-156,15c-89,0-105-3-153-27c-74-38-90-72-90-185
		c0-185,100-402,320-697c231-310,517-598,842-849c96-74,106-85,112-122c9-56,41-75,126-74c50,0,77,6,117,27c29,15,55,33,59,39
		s-3,30-16,53l-23,42l36,134c230,854,352,1337,396,1559c94,477,109,624,75,696C19476,8865,19344,8885,19233,8830z M13973,7685
		c-26-11-35-23-47-67c-8-29-26-96-41-148c-131-474-319-934-436-1063c-55-60-65-59-114,14c-72,105-101,266-112,617
		c-8,240-9,244-32,263c-31,25-111,26-139,2c-13-12-30-60-51-143c-35-142-209-694-266-845c-65-174-146-315-180-315
		c-26,0-85,84-116,164c-61,157-85,331-98,706c-9,250-10,255-33,275c-13,11-29,39-36,62c-29,97-101,143-227,143c-101,0-192-31-288-96
		c-195-134-384-452-432-729c-14-82-48-147-150-290c-67-93-163-205-177-205c-17,0-58,111-74,203c-21,117-23,341-5,603
		c8,111,11,213,7,227c-10,43-102,61-170,33c-39-16-38-14-165-376c-142-406-218-606-281-735c-58-119-119-205-145-205
		c-41,0-122,148-157,286c-21,82-23,110-21,349c1,189,7,307,21,430c13,113,17,176,10,188c-12,23-49,37-98,37c-69,0-85-14-126-114
		c-48-117-266-590-334-726c-65-130-138-245-184-289l-35-34l-10,41c-29,106-38,366-21,557c11,120,54,465,70,560c25,153,8,190-86,189
		c-70-1-84-15-125-117c-64-162-121-265-409-742c-175-290-258-411-273-396c-13,13-45,140-58,234c-14,107-14,451,1,617
		c10,103,10,133,0,145c-19,23-88,38-144,31l-51-7l-37,78c-49,105-86,146-165,185c-57,28-79,33-160,36c-120,6-198-10-299-58
		c-225-108-414-395-513-776c-41-161-61-303-61-449c0-253,60-389,200-454c44-20,74-26,156-29c273-11,450,134,687,562
		c37,66,68,113,70,105c3-8,12-46,20-84c36-160,86-243,175-287c40-19,62-23,147-23c83,0,107,4,141,22c98,52,155,145,334,545
		c46,103,86,185,88,183s-1-49-7-105c-16-142-14-342,4-444s50-170,99-214c48-42,103-55,211-50c73,4,100,9,143,32
		c108,55,191,169,297,407l62,139l6-102c15-264,117-472,269-547c54-27,71-31,148-31c175,0,249,56,350,263c53,111,139,328,171,435
		c15,52,29,54,29,5c0-67,38-222,70-291c35-76,80-128,127-148c46-20,150-17,198,5c42,19,138,115,195,195c35,48,50,57,50,30
		c0-34,71-164,115-209c71-72,119-90,245-90c91,0,111,3,150,24c60,31,104,74,146,143c36,59,102,227,125,316c7,28,15,52,19,52
		c3,0,17-44,30-97c48-191,137-328,243-373c71-31,159-37,231-16c137,40,214,186,335,630c41,149,51,177,51,139c0-40,41-177,71-239
		c35-70,109-146,164-170c53-22,209-19,262,6c119,54,256,267,389,609l49,125l8-130c4-71,6-250,5-397l-3-269l-40-36
		c-364-333-465-436-613-622c-209-262-361-580-422-880c-27-132-24-266,9-352c27-69,98-138,169-163c72-26,224-31,316-10
		c224,49,433,229,559,480c161,321,294,908,332,1462l7,102l162,143c665,593,1242,1048,1579,1245c20,12,37,29,37,37c0,27-42,46-102,46
		c-47,0-72-7-128-35c-310-156-755-478-1352-977c-97-81-179-148-181-148c-3,0-8,57-11,128c-20,376-86,1003-108,1029
		C14153,7699,14039,7714,13973,7685z M12135,7209l36-32l-31-18c-17-11-33-25-35-32c-3-6-18-86-35-177c-61-335-136-594-224-775
		c-53-107-95-163-114-151c-5,3-20,38-33,78c-22,65-24,91-24,243c0,156,3,178,29,275c62,225,165,426,281,547
		C12065,7250,12082,7255,12135,7209z M7831,7192c54-35,87-77,145-186c24-46,52-90,63-100c16-14,17-23,8-69c-26-129-392-760-556-957
		c-71-86-169-172-191-168c-19,4-45,56-67,138c-12,48-17,102-16,205c2,428,174,907,391,1090c41,34,123,74,153,75
		C7775,7220,7806,7207,7831,7192z M13935,5823c-2-16-9-66-15-113c-19-145-70-408-111-566c-124-483-280-758-484-855
		c-75-36-87-36-119,1c-99,118-51,447,115,787c68,140,156,274,274,418c91,111,322,355,336,355C13936,5850,13938,5838,13935,5823z
		 M5201,7360c-63-13-160-61-248-122c-221-153-453-471-568-778c-15-41-29-76-31-78c-1-2-57,27-123,63c-335,185-596,267-777,245
		c-170-21-195-119-78-306c267-426,693-844,1195-1173c119-79,333-209,442-268c26-15,116-17,151-3c35,13,54,55,38,80
		c-9,16-7,49,13,162c40,237,55,322,60,338c12,40,171,904,205,1110c69,426,74,558,20,644C5457,7344,5318,7384,5201,7360z"/>
</g>
</svg>
