<?xml version="1.0" encoding="utf-8"?>
<!-- Generator: Adobe Illustrator 25.0.1, SVG Export Plug-In . SVG Version: 6.00 Build 0)  -->
<svg version="1.1" id="Layer_1" xmlns="http://www.w3.org/2000/svg" xmlns:xlink="http://www.w3.org/1999/xlink" x="0px" y="0px"
	 viewBox="0 0 2500 2500" style="enable-background:new 0 0 2500 2500;" xml:space="preserve">
<style type="text/css">
	.st0{fill:#231F20;}
</style>
<path transform="translate(0.000000,2500.000000) scale(0.100000,-0.100000)" class="st0" d="M7195,19024c-218-35-415-128-625-297
	c-107-86-377-360-499-506c-614-736-1128-1716-1340-2557c-86-340-124-602-124-849c0-197,13-284,57-380c36-79,86-109,189-114
	c45-2,98,2,120,9c53,15,105,50,113,74c9,27-29,56-71,56c-28,0-33,4-39,31c-12,63-5,247,15,384c146,999,823,2346,1640,3260
	c219,246,484,482,617,549c41,21,51,15,87-62c52-108,69-222,69-457c0-490-56-825-619-3705c-523-2677-776-4126-835-4777
	c-15-159-9-211,28-248c113-115,470-110,579,7c30,32,63,154,122,445c50,246,195,1030,330,1778l70,390l91,270
	c214,630,511,1374,845,2115c116,259,464,961,605,1225c565,1053,1190,1964,1700,2475c118,119,256,237,266,227c16-16,33-181,34-318
	c0-252-32-542-116-1044c-79-472-155-844-443-2165c-259-1189-322-1543-338-1880c-12-273,27-361,187-416c79-27,262-27,345,1
	c99,32,128,70,209,275c346,873,737,1651,1194,2375c544,860,1085,1558,1631,2106c224,223,333,320,461,408l75,52l8-38
	c11-49-8-241-39-413c-65-353-118-556-450-1705c-487-1681-635-2210-799-2843c-367-1419-462-2188-344-2791c73-367,215-554,480-628
	c90-25,347-25,439-1c111,30,256,109,360,196c306,253,758,892,1267,1787c512,902,898,1725,1128,2405l53,155l58-2c165-4,791-46,812-54
	c24-9,24-12,20-82c-7-88-40-193-170-532c-347-901-588-1766-727-2610c-126-759-141-1534-40-1989c88-397,228-535,539-536
	c283,0,415,119,654,590c257,506,513,1203,846,2305c45,149,140,460,211,693c72,233,129,433,127,444c-6,42-63,63-168,63
	c-135,0-153-12-203-135c-81-201-234-616-407-1105c-277-780-420-1156-590-1550c-85-197-244-526-304-629l-34-60l-7,88
	c-12,137,1,829,19,1036c54,623,165,1251,346,1964c121,475,218,799,396,1324c134,390,166,513,166,627c1,100-20,153-85,212
	c-119,110-254,143-706,173c-367,25-654,50-663,59c-3,3,5,53,18,111c46,200,65,364,71,590c4,137,1,247-6,302c-45,339-174,517-423,586
	c-96,26-336,23-443-6c-227-62-423-211-570-431c-126-189-176-346-177-546c0-209,52-353,175-482c116-122,246-197,462-268
	c122-40,322-86,443-101c28-4,52-8,52-11c0-2-29-90-64-196c-193-576-534-1296-952-2003c-500-848-924-1439-1315-1834
	c-87-88-236-214-287-244c-30-18-91,203-113,411c-17,167-7,621,20,838c86,717,252,1423,861,3660c423,1554,551,2059,614,2416
	c73,411,76,731,10,862c-48,94-138,160-265,194c-87,23-280,22-369-1c-91-24-212-85-295-147c-428-323-1442-1644-2217-2889
	c-182-292-538-893-592-998c-10-19-19-32-22-30c-2,3,37,195,86,429c265,1242,372,1779,454,2280c162,977,175,1494,45,1765
	c-41,88-125,176-203,214c-88,43-156,60-276,66c-261,15-457-68-688-290c-271-261-668-804-1095-1498c-451-734-1074-1948-1482-2890
	c-21-49-39-87-41-85c-1,1,43,238,97,527c309,1631,474,2567,523,2960c45,357,60,763,36,935c-51,353-206,549-498,626
	C7516,19022,7270,19035,7195,19024z M15547,15474c86-100,147-254,179-454c20-124,20-427,0-575c-27-195-29-207-40-211
	c-21-8-188,46-260,84c-177,93-265,256-266,493c0,185,52,347,167,521c43,66,156,188,173,188C15505,15520,15526,15499,15547,15474z
	 M19146,9783c-110-33-173-102-240-265c-54-131-87-254-88-333c-2-106,28-151,137-202c56-26,68-28,190-28c129,0,131,0,200,35
	c86,43,131,98,168,208c40,115,52,217,38,317c-25,179-61,239-161,269C19324,9804,19211,9804,19146,9783z M8733,7315
	c-57-24-67-60-71-237l-4-158h-53c-87,0-149-17-181-51c-25-26-29-38-29-84s4-58,29-84c32-34,94-51,181-51h54l3-328l3-327l33-67
	c51-105,132-164,273-199c72-19,102-21,209-16c206,9,447,80,528,156c39,35,42,42,42,90c0,44-5,56-33,87c-50,55-90,56-208,5
	c-138-59-213-75-354-75c-135,0-181,13-212,60c-16,25-18,58-21,320l-4,292l284,4c263,3,285,4,318,23c89,52,88,173-3,222
	c-28,16-67,18-314,21l-283,4v157c0,148-1,160-23,192C8858,7328,8800,7344,8733,7315z M5189,7301c-68-21-99-61-99-126
	c0-78,48-118,158-131l62-7l-2-511l-3-511l-68-6c-98-8-147-50-147-127c0-46,24-88,63-109c29-17,83-18,690-21l657-3v241
	c0,261-3,277-56,319c-32,25-92,28-134,6c-49-25-64-66-68-192l-4-113h-334h-334v195v195h114h113l6-56c3-30,13-66,21-80
	c53-80,179-76,222,7c20,40,21,464,0,514c-27,63-105,91-169,60c-48-23-68-56-74-126l-6-59h-113h-114v190v190h304h303l5-102
	c5-117,18-152,67-185c43-29,89-29,132,0c61,41,64,56,64,317v235l-615,2C5492,7308,5203,7305,5189,7301z M11852,7154
	c-90-24-164-66-228-129c-72-71-114-147-121-221c-5-51-4-55,30-89c29-29,42-35,77-35c60,0,76,13,115,93c60,123,133,167,274,167
	c119,0,208-51,245-142c36-84,8-149-112-268c-92-90-293-266-535-469l-147-123v-119v-119h520h520v73c0,85-13,137-39,161
	c-28,26-83,31-123,12c-29-14-69-16-276-14l-243,3l163,140c234,200,438,406,472,476c120,249-39,549-322,608
	C12050,7174,11916,7172,11852,7154z M13257,7159c-48-11-112-44-159-81c-78-61-171-234-204-380c-23-99-15-528,10-608
	c47-146,147-300,233-357c122-81,327-85,457-9c100,59,208,223,253,386c26,95,26,515,0,610c-39,142-134,303-218,370
	C13541,7159,13383,7189,13257,7159z M13494,6907c47-36,83-93,115-182c23-64,25-88,29-267c5-226-5-302-49-396
	c-58-120-117-164-219-163c-81,0-131,27-175,95c-77,116-101,244-92,496c8,206,34,292,115,382c51,56,83,69,168,66
	C13446,6935,13463,6930,13494,6907z M14572,7154c-90-24-164-66-228-129c-72-71-114-147-121-221c-5-51-4-55,30-89c29-29,42-35,77-35
	c60,0,76,13,115,93c60,123,133,167,274,167c119,0,208-51,245-142c36-84,8-149-112-268c-92-90-293-266-535-469l-147-123v-119v-119
	h520h520v73c0,85-13,137-39,161c-28,26-83,31-123,12c-29-14-69-16-276-14l-243,3l163,140c234,200,438,406,472,476
	c120,249-39,549-322,608C14770,7174,14636,7172,14572,7154z M16132,7128c-5-7-130-217-276-466l-266-453v-95v-94h310h310v-45v-45h-57
	c-123,0-183-37-183-112c0-52,21-85,66-104c47-20,421-20,467,0c47,20,69,50,71,95c1,55-28,92-87,110c-46,14-47,15-47,56s1,43,39,49
	c72,11,115,84,87,149c-17,42-39,59-84,66l-37,6l-5,445l-5,445l-146,3C16180,7140,16140,7137,16132,7128z M16207,6253
	c-2-2-76-2-164-1l-159,3l160,273l161,272l3-271C16209,6379,16209,6255,16207,6253z M7235,6935c-142-29-296-130-341-223
	c-11-22-20-67-22-114c-3-65,0-85,20-130c66-141,183-197,498-239c249-32,328-59,348-118c24-68-80-124-254-137c-198-16-377,44-425,142
	c-24,50-61,74-114,74c-49,0-91-26-112-70c-24-50-25-251,0-297c34-63,102-87,166-58c38,17,40,16,114-8c109-37,220-50,361-44
	c139,6,211,23,312,72c95,46,166,111,200,182c52,110,18,251-83,350c-83,80-194,122-418,157c-55,9-142,23-192,32
	c-133,23-190,67-148,114c23,25,125,58,205,66c140,14,329-43,360-108c23-49,63-73,122-73c44,0,53,4,83,36c28,31,34,47,40,102
	c9,85-2,176-26,216c-11,18-36,39-56,48c-35,14-41,14-86-5s-50-20-85-5C7589,6945,7369,6963,7235,6935z M10511,6050
	c-43-10-80-38-108-80c-32-46-32-134,0-181c64-97,241-108,320-19c77,84,54,216-45,263C10636,6053,10555,6061,10511,6050z"/>
</svg>
