<?xml version="1.0" standalone="no"?>
<!DOCTYPE svg PUBLIC "-//W3C//DTD SVG 20010904//EN"
 "http://www.w3.org/TR/2001/REC-SVG-20010904/DTD/svg10.dtd">
<svg version="1.0" xmlns="http://www.w3.org/2000/svg"
 width="2400.000000pt" height="2400.000000pt" viewBox="0 0 2400.000000 2400.000000"
 preserveAspectRatio="xMidYMid meet">

<g transform="translate(0.000000,2400.000000) scale(0.100000,-0.100000)"
fill="#000000" stroke="none">
<path d="M4711 21325 c-95 -27 -166 -72 -253 -164 -259 -269 -541 -856 -726
-1506 -143 -501 -268 -1089 -332 -1555 -18 -128 -25 -160 -45 -186 -29 -37
-590 -587 -605 -592 -14 -5 -12 41 5 188 61 518 72 1522 24 2100 -53 636 -211
1103 -421 1242 -92 62 -165 82 -298 81 -137 0 -204 -19 -318 -90 -225 -139
-517 -552 -657 -927 -69 -185 -96 -307 -102 -453 -5 -121 -4 -135 16 -176 26
-53 67 -77 135 -77 55 0 103 18 131 50 19 21 19 22 0 36 -10 8 -27 14 -37 14
-25 0 -24 42 6 165 87 359 294 754 551 1053 86 100 186 191 242 221 19 10 26
6 58 -32 111 -128 207 -439 255 -827 32 -253 40 -394 46 -810 12 -753 -30
-1444 -128 -2084 l-23 -148 -135 -126 c-74 -70 -212 -200 -305 -289 -519 -493
-786 -885 -885 -1303 -18 -76 -23 -124 -23 -240 0 -129 3 -154 26 -225 64
-197 177 -275 399 -275 166 0 287 45 421 156 228 187 470 600 642 1094 93 268
199 688 260 1030 49 272 33 235 148 340 56 51 203 188 327 305 l225 212 0
-441 c1 -391 3 -461 22 -621 75 -616 231 -942 487 -1021 81 -25 211 -29 297
-10 159 35 264 132 372 343 56 110 144 322 208 503 l33 95 7 -40 c4 -22 15
-96 24 -165 52 -387 148 -736 265 -971 156 -311 341 -449 600 -449 322 1 523
199 675 670 105 327 155 679 155 1105 0 244 -10 393 -39 595 l-18 124 101 111
c154 168 211 235 361 425 76 96 141 178 144 182 3 4 6 -185 7 -420 1 -426 17
-789 49 -1112 8 -80 17 -174 20 -210 9 -98 43 -409 70 -640 14 -113 25 -236
25 -273 0 -83 19 -108 106 -133 115 -33 279 4 295 68 4 15 2 97 -4 184 -13
187 -3 315 42 534 120 586 365 1185 689 1685 136 209 319 437 421 523 45 38
52 41 59 25 4 -10 6 -126 6 -258 -2 -253 -7 -302 -93 -895 -69 -473 -76 -558
-76 -925 0 -308 2 -352 22 -467 39 -221 102 -378 185 -465 40 -41 130 -88 196
-102 68 -14 196 -14 264 0 142 30 260 109 445 295 l142 144 52 -55 c59 -63
158 -117 246 -135 34 -8 103 -10 173 -8 127 5 192 23 289 80 71 42 229 199
306 306 151 208 358 597 535 1007 46 105 86 194 90 199 5 4 11 -27 15 -70 18
-214 58 -391 115 -510 69 -143 163 -203 335 -212 184 -9 300 37 446 176 146
138 261 296 400 549 l71 128 -6 -75 c-22 -260 -126 -1146 -181 -1533 l-25
-178 -163 -217 c-293 -388 -619 -854 -791 -1129 -221 -353 -373 -698 -441
-999 -33 -142 -45 -368 -26 -480 24 -144 102 -249 220 -296 48 -20 74 -23 191
-23 162 0 229 19 345 96 342 229 627 879 904 2060 72 309 191 952 191 1035 0
20 260 360 494 647 l121 149 13 -134 c28 -301 61 -343 267 -343 122 0 179 19
202 66 6 13 19 103 28 199 64 673 213 1247 492 1904 138 324 374 780 394 759
16 -18 30 -219 39 -568 15 -565 48 -1099 72 -1174 15 -49 78 -75 183 -75 86
-1 139 13 172 43 16 15 22 38 27 98 56 619 340 1376 695 1850 79 105 228 263
248 263 13 0 15 -17 11 -117 -6 -152 -32 -264 -165 -713 -261 -888 -363 -1427
-363 -1925 0 -268 29 -424 94 -510 74 -96 283 -123 420 -53 121 62 275 292
501 749 l103 209 6 -78 c36 -457 103 -645 263 -729 169 -89 388 -67 570 59
182 125 416 467 588 863 73 166 196 536 229 685 28 128 56 309 56 362 0 31 9
43 77 104 43 37 110 99 150 137 l72 69 -20 -64 c-56 -179 -124 -484 -158 -708
-86 -567 -22 -1078 159 -1274 72 -78 196 -126 325 -126 288 0 514 201 707 625
160 353 358 1135 375 1483 l6 124 95 141 95 142 -7 -55 c-38 -328 -61 -1079
-54 -1777 4 -438 6 -464 24 -484 26 -29 45 -38 106 -50 71 -13 179 5 215 35
24 21 27 31 35 142 28 397 125 882 257 1284 155 469 352 830 643 1175 42 50
90 103 107 119 l31 30 0 -48 c0 -130 -64 -449 -194 -972 -263 -1055 -346
-1538 -334 -1933 11 -314 69 -426 247 -467 129 -31 251 -9 427 76 283 137 558
405 730 711 68 121 139 297 186 457 l32 112 -22 23 c-19 19 -35 22 -105 25
-118 4 -123 0 -206 -184 -77 -172 -120 -253 -198 -374 -113 -174 -289 -367
-440 -483 -66 -50 -202 -137 -215 -137 -13 0 -30 82 -38 194 -25 336 51 831
271 1776 158 676 183 826 184 1080 0 175 0 175 -30 235 -26 52 -38 64 -85 88
-51 27 -62 28 -150 25 -86 -3 -101 -7 -160 -38 -110 -59 -250 -205 -439 -460
-159 -214 -354 -558 -456 -805 -21 -49 -40 -92 -42 -95 -10 -9 5 837 18 1048
15 247 10 273 -54 303 -56 25 -158 25 -214 0 -46 -21 -71 -55 -237 -323 -53
-87 -100 -159 -104 -162 -4 -2 -21 21 -37 52 -37 70 -160 195 -237 240 -31 18
-89 45 -130 60 -65 23 -88 26 -218 26 -127 1 -153 -2 -212 -22 -132 -46 -191
-96 -383 -327 -106 -127 -385 -419 -392 -411 -3 3 -11 42 -19 88 -20 118 -59
240 -107 332 -96 187 -253 276 -482 276 -186 0 -322 -53 -451 -173 -151 -141
-308 -430 -359 -659 -12 -54 -22 -78 -32 -78 -7 0 -27 -7 -42 -15 -39 -20 -65
-86 -117 -293 -45 -177 -88 -289 -250 -649 -160 -352 -395 -799 -525 -995 -78
-118 -78 -118 -86 102 -17 475 98 1111 366 2031 60 207 121 428 135 491 76
336 42 497 -118 570 -45 20 -67 23 -176 23 -96 0 -137 -4 -178 -19 -178 -61
-418 -315 -627 -661 -64 -107 -213 -401 -251 -497 -11 -27 -22 -48 -26 -48 -5
0 -8 24 -8 53 0 70 -16 246 -36 387 -44 311 -119 398 -338 388 -77 -3 -99 -8
-145 -33 -101 -56 -199 -193 -367 -519 -157 -305 -245 -504 -422 -959 -4 -10
-5 238 -4 550 4 551 -3 757 -27 802 -16 28 -65 44 -121 39 -91 -9 -102 -34
-150 -322 -69 -422 -134 -1063 -170 -1678 l-9 -168 -92 -102 c-92 -103 -356
-409 -417 -483 -39 -48 -38 -51 -17 145 71 662 140 1582 170 2283 8 188 20
366 26 396 9 49 9 55 -11 76 -45 48 -183 58 -263 20 -49 -23 -62 -61 -87 -266
-24 -191 -73 -379 -196 -754 -188 -569 -417 -1012 -670 -1297 -38 -42 -84 -88
-101 -103 l-33 -27 -21 49 c-36 84 -68 221 -91 392 -19 141 -22 213 -23 476 0
382 23 629 87 917 24 109 21 119 -39 145 -49 20 -179 17 -231 -7 -51 -23 -62
-46 -103 -210 -16 -63 -48 -167 -73 -230 -358 -937 -707 -1660 -994 -2065 -65
-91 -252 -285 -275 -285 -42 0 -119 132 -163 277 l-27 91 85 133 c281 442 461
827 558 1194 54 201 73 350 74 555 0 291 -43 473 -140 580 -95 105 -329 109
-456 9 -204 -162 -454 -864 -540 -1519 -31 -235 -31 -698 -1 -870 l21 -115
-68 -90 c-163 -216 -315 -375 -445 -467 l-54 -39 -25 38 c-92 139 -146 441
-146 823 0 291 20 520 99 1135 44 335 53 455 55 665 1 225 -7 285 -46 364 -44
87 -145 136 -282 136 -268 0 -512 -206 -851 -720 -175 -264 -348 -592 -470
-889 -32 -78 -60 -139 -63 -137 -15 16 -43 521 -52 956 -12 563 -20 699 -45
736 -28 43 -88 64 -190 64 -161 0 -181 -16 -472 -380 -167 -207 -370 -450
-377 -450 -2 0 -14 28 -26 63 -83 224 -228 415 -372 488 -222 112 -502 86
-705 -64 -170 -127 -304 -386 -320 -619 l-6 -86 -41 -11 c-23 -5 -48 -16 -57
-23 -9 -7 -33 -67 -54 -133 -66 -214 -255 -719 -375 -1000 -103 -241 -233
-473 -310 -553 -30 -31 -33 -32 -50 -17 -22 20 -90 148 -119 225 -60 159 -111
421 -137 716 -36 389 -14 1339 32 1412 8 12 50 62 93 110 914 1020 1420 2020
1376 2717 -16 250 -114 425 -273 486 -75 28 -207 35 -281 14z m187 -160 c61
-68 86 -136 102 -270 56 -468 -248 -1221 -795 -1970 -92 -125 -344 -445 -351
-445 -2 0 -1 12 1 28 169 1018 363 1709 626 2235 112 222 225 385 311 447 46
34 57 31 106 -25z m15143 -2502 c121 -60 228 -206 270 -371 33 -132 34 -131
-83 -247 -120 -119 -244 -213 -345 -263 -62 -31 -74 -34 -88 -22 -24 20 -63
101 -80 167 -18 67 -20 251 -4 339 29 167 112 331 203 402 37 29 60 28 127 -5z
m-1625 -65 c129 -88 210 -309 221 -610 l6 -157 -88 -57 c-197 -128 -517 -271
-549 -245 -57 47 -82 243 -52 403 55 290 229 613 368 681 43 21 38 22 94 -15z
m-7867 -441 c32 -97 44 -190 43 -342 0 -278 -67 -571 -204 -895 -45 -107 -204
-424 -244 -485 l-25 -40 5 195 c3 107 15 269 26 360 39 300 129 691 221 956
48 140 136 327 149 319 4 -3 18 -33 29 -68z m-4830 -147 c133 -105 238 -308
311 -597 11 -45 20 -88 20 -96 0 -19 -151 -147 -257 -218 -81 -55 -197 -112
-250 -124 -38 -8 -75 10 -119 57 -120 127 -149 430 -65 672 56 159 210 346
287 346 12 0 45 -18 73 -40z m14557 -421 c-145 -621 -327 -1086 -523 -1342
-54 -70 -152 -167 -168 -167 -17 0 -70 122 -94 215 -69 272 -69 731 0 1166
l21 137 57 -21 c88 -32 281 -36 392 -8 92 23 216 80 294 134 28 19 51 34 52
33 2 -1 -13 -68 -31 -147z m-1681 -91 c-2 -7 -15 -58 -29 -114 -59 -235 -200
-600 -321 -831 -136 -259 -261 -442 -393 -572 l-85 -85 -18 23 c-46 56 -96
286 -120 541 -22 241 -14 683 17 906 l6 41 60 -30 c38 -19 95 -35 155 -45 190
-31 392 10 613 123 114 58 121 61 115 43z m-12490 -603 c14 -142 -1 -626 -24
-795 -63 -464 -189 -852 -343 -1054 -75 -99 -78 -100 -133 -46 -210 206 -404
765 -495 1423 -20 147 -45 485 -36 494 3 3 20 -7 38 -21 92 -70 225 -106 396
-106 181 0 351 45 502 135 41 24 78 44 82 45 3 0 9 -34 13 -75z m-3991 -651
c-123 -534 -283 -965 -479 -1293 -119 -197 -279 -383 -319 -368 -22 9 -65 106
-81 182 -65 306 69 693 373 1084 153 197 531 590 540 563 2 -6 -14 -81 -34
-168z m10495 -1861 c-87 -396 -211 -849 -327 -1193 -128 -378 -238 -610 -371
-785 -58 -77 -132 -148 -141 -138 -22 25 -42 119 -47 223 -15 330 136 780 423
1257 116 193 467 723 478 723 2 0 -5 -39 -15 -87z"/>
<path d="M7075 13265 c-195 -42 -348 -162 -502 -390 -309 -459 -671 -1570
-868 -2665 -14 -80 -28 -153 -31 -162 -3 -10 -65 -71 -137 -137 -285 -257
-479 -406 -1112 -848 -110 -77 -280 -199 -378 -272 -196 -146 -205 -160 -137
-193 94 -48 219 -8 481 150 451 272 861 538 1077 698 61 46 115 84 118 84 4 0
3 -15 0 -32 -3 -18 -21 -157 -40 -308 -132 -1048 -125 -1921 20 -2567 83 -374
238 -646 416 -732 163 -78 393 -64 521 33 150 113 240 418 294 996 25 270 25
976 0 1220 -60 585 -193 1047 -371 1294 -31 43 -56 79 -54 81 2 1 55 15 118
30 383 93 719 258 1033 508 112 89 336 304 437 420 36 42 66 75 67 74 1 -1
-11 -90 -27 -197 -38 -261 -50 -386 -59 -629 -10 -232 1 -539 24 -716 51 -387
178 -710 333 -847 92 -80 249 -120 393 -100 189 27 292 114 399 337 98 203
156 387 284 897 l93 368 23 -143 c49 -303 122 -543 236 -773 115 -233 194
-303 353 -312 141 -8 228 33 277 130 14 27 77 202 140 390 63 187 142 409 175
492 123 306 299 633 474 879 l80 112 7 -75 c3 -41 11 -291 17 -555 10 -443 24
-703 52 -945 54 -487 175 -1081 241 -1189 34 -54 107 -82 216 -82 157 -1 221
34 241 131 6 30 17 138 26 240 17 195 44 392 76 550 151 737 578 1605 989
2010 53 52 111 103 128 113 l31 17 7 -46 c11 -73 -3 -229 -52 -593 -103 -778
-137 -1171 -138 -1596 0 -347 12 -497 60 -731 72 -356 181 -559 336 -630 54
-24 79 -29 170 -32 189 -7 293 43 438 211 85 98 234 319 318 473 84 150 239
473 298 619 48 118 49 119 57 85 73 -283 177 -473 315 -574 74 -54 185 -102
281 -121 102 -21 302 -16 396 9 230 62 436 241 643 559 l51 77 10 -52 c5 -29
17 -91 26 -138 49 -254 148 -577 230 -745 64 -134 123 -201 210 -242 57 -27
67 -28 201 -28 l141 0 94 47 c386 191 768 835 1024 1723 84 290 177 669 173
703 -4 38 -48 57 -131 56 -51 0 -73 -5 -95 -20 -30 -23 -22 0 -181 -489 -234
-716 -451 -1168 -725 -1508 -82 -102 -232 -254 -241 -245 -15 15 -90 247 -125
388 -91 360 -141 724 -162 1158 -11 228 -10 257 4 295 232 598 418 1148 572
1687 128 452 268 1062 313 1365 24 166 25 535 1 618 -28 97 -62 145 -125 174
-49 23 -64 25 -151 21 -80 -3 -106 -9 -147 -30 -262 -137 -565 -920 -756
-1953 -18 -99 -34 -182 -36 -184 -1 -2 -29 21 -61 50 -115 107 -248 153 -442
153 -371 1 -676 -203 -918 -614 -157 -266 -297 -660 -377 -1060 -35 -177 -92
-348 -233 -700 -251 -625 -558 -1185 -790 -1440 l-50 -55 -26 57 c-33 75 -71
208 -96 338 -91 467 -76 1084 52 2191 35 308 42 396 42 569 l1 205 -28 58
c-49 99 -138 146 -293 155 -282 15 -521 -143 -816 -541 -282 -382 -537 -878
-693 -1350 -29 -87 -55 -160 -57 -163 -3 -2 -8 24 -11 58 -41 421 -51 565 -67
953 -18 448 -39 638 -80 748 -49 130 -194 193 -380 167 -152 -22 -262 -116
-438 -378 -262 -388 -444 -767 -619 -1289 -43 -128 -81 -233 -85 -233 -17 0
-114 292 -158 475 -89 372 -130 782 -130 1315 0 222 -4 312 -13 330 -6 14 -32
35 -57 48 -39 20 -57 23 -130 20 -92 -4 -133 -18 -161 -58 -10 -14 -73 -230
-139 -480 -318 -1195 -401 -1494 -475 -1709 -69 -202 -180 -441 -204 -441 -15
0 -90 164 -126 276 -155 471 -175 1156 -60 2085 14 114 25 240 25 281 0 64 -3
77 -22 96 -36 33 -77 44 -164 45 -125 0 -148 -14 -286 -186 -568 -704 -1069
-1069 -1669 -1216 -161 -39 -269 -53 -269 -34 0 8 9 72 20 142 l20 128 166
164 c649 641 1123 1277 1318 1769 173 438 200 895 70 1153 -35 69 -116 152
-178 182 -105 51 -266 68 -391 40z m161 -249 c52 -94 68 -194 61 -387 -13
-431 -189 -855 -581 -1403 -153 -214 -493 -633 -504 -621 -6 6 53 273 118 536
215 865 462 1501 694 1788 53 65 154 153 170 148 5 -2 24 -29 42 -61z m10253
-471 c-17 -241 -78 -529 -204 -960 -100 -345 -282 -902 -291 -893 -1 2 11 93
27 203 119 821 262 1436 422 1820 l42 100 7 -70 c3 -38 2 -128 -3 -200z
m-1322 -1595 c110 -63 226 -193 293 -329 l29 -58 -19 -129 c-64 -438 -90 -714
-97 -1039 l-6 -260 -68 -135 c-143 -285 -345 -613 -483 -786 -71 -89 -215
-229 -265 -257 l-31 -18 -54 54 c-94 97 -175 292 -218 527 -29 156 -31 586 -5
785 82 606 289 1179 531 1469 53 64 157 150 220 181 66 33 109 32 173 -5z
m-10083 -1659 c186 -320 306 -958 306 -1631 0 -431 -47 -966 -110 -1251 -26
-116 -69 -249 -80 -249 -17 0 -91 160 -130 280 -67 202 -122 518 -150 860 -29
346 -22 951 15 1415 17 211 63 643 71 665 7 19 31 -9 78 -89z"/>
</g>
</svg>
