<?xml version="1.0" standalone="no"?>
<!DOCTYPE svg PUBLIC "-//W3C//DTD SVG 20010904//EN"
 "http://www.w3.org/TR/2001/REC-SVG-20010904/DTD/svg10.dtd">
<svg version="1.0" xmlns="http://www.w3.org/2000/svg"
 width="2500.000000pt" height="2500.000000pt" viewBox="0 0 2500.000000 2500.000000"
 preserveAspectRatio="xMidYMid meet">

<g transform="translate(0.000000,2500.000000) scale(0.100000,-0.100000)"
fill="#000000" stroke="none">
<path d="M7195 19024 c-218 -35 -415 -128 -625 -297 -107 -86 -377 -360 -499
-506 -614 -736 -1128 -1716 -1340 -2557 -86 -340 -124 -602 -124 -849 0 -197
13 -284 57 -380 36 -79 86 -109 189 -114 45 -2 98 2 120 9 53 15 105 50 113
74 9 27 -29 56 -71 56 -28 0 -33 4 -39 31 -12 63 -5 247 15 384 146 999 823
2346 1640 3260 219 246 484 482 617 549 41 21 51 15 87 -62 52 -108 69 -222
69 -457 0 -490 -56 -825 -619 -3705 -523 -2677 -776 -4126 -835 -4777 -15
-159 -9 -211 28 -248 113 -115 470 -110 579 7 30 32 63 154 122 445 50 246
195 1030 330 1778 l70 390 91 270 c214 630 511 1374 845 2115 116 259 464 961
605 1225 565 1053 1190 1964 1700 2475 118 119 256 237 266 227 16 -16 33
-181 34 -318 0 -252 -32 -542 -116 -1044 -79 -472 -155 -844 -443 -2165 -259
-1189 -322 -1543 -338 -1880 -12 -273 27 -361 187 -416 79 -27 262 -27 345 1
99 32 128 70 209 275 346 873 737 1651 1194 2375 544 860 1085 1558 1631 2106
224 223 333 320 461 408 l75 52 8 -38 c11 -49 -8 -241 -39 -413 -65 -353 -118
-556 -450 -1705 -487 -1681 -635 -2210 -799 -2843 -367 -1419 -462 -2188 -344
-2791 73 -367 215 -554 480 -628 90 -25 347 -25 439 -1 111 30 256 109 360
196 306 253 758 892 1267 1787 512 902 898 1725 1128 2405 l53 155 58 -2 c165
-4 791 -46 812 -54 24 -9 24 -12 20 -82 -7 -88 -40 -193 -170 -532 -347 -901
-588 -1766 -727 -2610 -126 -759 -141 -1534 -40 -1989 88 -397 228 -535 539
-536 283 0 415 119 654 590 257 506 513 1203 846 2305 45 149 140 460 211 693
72 233 129 433 127 444 -6 42 -63 63 -168 63 -135 0 -153 -12 -203 -135 -81
-201 -234 -616 -407 -1105 -277 -780 -420 -1156 -590 -1550 -85 -197 -244
-526 -304 -629 l-34 -60 -7 88 c-12 137 1 829 19 1036 54 623 165 1251 346
1964 121 475 218 799 396 1324 134 390 166 513 166 627 1 100 -20 153 -85 212
-119 110 -254 143 -706 173 -367 25 -654 50 -663 59 -3 3 5 53 18 111 46 200
65 364 71 590 4 137 1 247 -6 302 -45 339 -174 517 -423 586 -96 26 -336 23
-443 -6 -227 -62 -423 -211 -570 -431 -126 -189 -176 -346 -177 -546 0 -209
52 -353 175 -482 116 -122 246 -197 462 -268 122 -40 322 -86 443 -101 28 -4
52 -8 52 -11 0 -2 -29 -90 -64 -196 -193 -576 -534 -1296 -952 -2003 -500
-848 -924 -1439 -1315 -1834 -87 -88 -236 -214 -287 -244 -30 -18 -91 203
-113 411 -17 167 -7 621 20 838 86 717 252 1423 861 3660 423 1554 551 2059
614 2416 73 411 76 731 10 862 -48 94 -138 160 -265 194 -87 23 -280 22 -369
-1 -91 -24 -212 -85 -295 -147 -428 -323 -1442 -1644 -2217 -2889 -182 -292
-538 -893 -592 -998 -10 -19 -19 -32 -22 -30 -2 3 37 195 86 429 265 1242 372
1779 454 2280 162 977 175 1494 45 1765 -41 88 -125 176 -203 214 -88 43 -156
60 -276 66 -261 15 -457 -68 -688 -290 -271 -261 -668 -804 -1095 -1498 -451
-734 -1074 -1948 -1482 -2890 -21 -49 -39 -87 -41 -85 -1 1 43 238 97 527 309
1631 474 2567 523 2960 45 357 60 763 36 935 -51 353 -206 549 -498 626 -76
21 -322 34 -397 23z m8352 -3550 c86 -100 147 -254 179 -454 20 -124 20 -427
0 -575 -27 -195 -29 -207 -40 -211 -21 -8 -188 46 -260 84 -177 93 -265 256
-266 493 0 185 52 347 167 521 43 66 156 188 173 188 5 0 26 -21 47 -46z"/>
<path d="M19146 9783 c-110 -33 -173 -102 -240 -265 -54 -131 -87 -254 -88
-333 -2 -106 28 -151 137 -202 56 -26 68 -28 190 -28 129 0 131 0 200 35 86
43 131 98 168 208 40 115 52 217 38 317 -25 179 -61 239 -161 269 -66 20 -179
20 -244 -1z"/>
<path d="M12535 7360 c-71 -14 -158 -52 -226 -96 -105 -69 -196 -205 -206
-308 -4 -42 -1 -57 19 -86 43 -63 141 -77 189 -27 11 12 35 54 53 92 54 116
131 166 267 173 124 6 186 -14 254 -81 86 -87 95 -179 25 -276 -62 -85 -342
-338 -708 -641 l-152 -125 0 -137 0 -138 585 0 585 0 0 70 c0 104 -16 165 -52
195 -35 29 -93 33 -138 10 -25 -13 -75 -15 -305 -13 l-276 3 193 165 c225 193
473 436 510 500 45 78 61 151 56 260 -3 89 -7 104 -42 175 -71 144 -204 247
-363 280 -73 16 -203 18 -268 5z"/>
<path d="M14100 7360 c-177 -38 -327 -209 -407 -466 -27 -88 -27 -92 -28 -364
0 -256 2 -281 23 -359 39 -144 130 -303 221 -390 138 -130 410 -144 582 -29
76 51 136 126 194 243 75 151 87 214 92 480 7 344 -23 477 -152 669 -107 160
-202 215 -380 222 -55 2 -120 -1 -145 -6z m227 -271 c76 -37 147 -149 177
-282 22 -95 23 -478 1 -572 -33 -142 -123 -267 -211 -293 -111 -32 -209 2
-271 95 -89 133 -103 199 -103 491 1 250 9 304 59 406 63 128 129 176 240 176
45 0 78 -6 108 -21z"/>
<path d="M15615 7360 c-71 -14 -158 -52 -226 -96 -105 -69 -196 -205 -206
-308 -4 -42 -1 -57 19 -86 43 -63 141 -77 189 -27 11 12 35 54 53 92 54 116
131 166 267 173 124 6 186 -14 254 -81 86 -87 95 -179 25 -276 -62 -85 -342
-338 -708 -641 l-152 -125 0 -137 0 -138 585 0 585 0 0 70 c0 104 -16 165 -52
195 -35 29 -93 33 -138 10 -25 -13 -75 -15 -305 -13 l-276 3 193 165 c225 193
473 436 510 500 45 78 61 151 56 260 -3 89 -7 104 -42 175 -71 144 -204 247
-363 280 -73 16 -203 18 -268 5z"/>
<path d="M17130 7351 c-141 -30 -268 -102 -322 -182 -56 -84 -25 -188 62 -208
50 -11 84 1 145 54 30 25 74 55 99 66 85 37 248 42 331 9 71 -28 134 -105 135
-165 0 -43 -23 -98 -56 -135 -54 -59 -93 -73 -225 -80 -96 -5 -121 -10 -146
-28 -82 -58 -64 -192 31 -221 17 -5 72 -15 121 -21 146 -18 250 -82 300 -185
67 -135 11 -247 -148 -297 -64 -20 -93 -23 -252 -23 l-180 0 -88 43 c-121 58
-166 54 -214 -17 -45 -66 -21 -142 62 -195 141 -92 497 -122 730 -61 230 60
375 235 375 455 0 139 -49 250 -156 350 l-66 61 47 47 c120 122 153 322 78
480 -35 76 -140 180 -216 216 -122 57 -287 70 -447 37z"/>
<path d="M8733 7315 c-57 -24 -67 -60 -71 -237 l-4 -158 -53 0 c-87 0 -149
-17 -181 -51 -25 -26 -29 -38 -29 -84 0 -46 4 -58 29 -84 32 -34 94 -51 181
-51 l54 0 3 -328 3 -327 33 -67 c51 -105 132 -164 273 -199 72 -19 102 -21
209 -16 206 9 447 80 528 156 39 35 42 42 42 90 0 44 -5 56 -33 87 -50 55 -90
56 -208 5 -138 -59 -213 -75 -354 -75 -135 0 -181 13 -212 60 -16 25 -18 58
-21 320 l-4 292 284 4 c263 3 285 4 318 23 89 52 88 173 -3 222 -28 16 -67 18
-314 21 l-283 4 0 157 c0 148 -1 160 -23 192 -39 57 -97 73 -164 44z"/>
<path d="M5189 7301 c-68 -21 -99 -61 -99 -126 0 -78 48 -118 158 -131 l62 -7
-2 -511 -3 -511 -68 -6 c-98 -8 -147 -50 -147 -127 0 -46 24 -88 63 -109 29
-17 83 -18 690 -21 l657 -3 0 241 c0 261 -3 277 -56 319 -32 25 -92 28 -134 6
-49 -25 -64 -66 -68 -192 l-4 -113 -334 0 -334 0 0 195 0 195 114 0 113 0 6
-56 c3 -30 13 -66 21 -80 53 -80 179 -76 222 7 20 40 21 464 0 514 -27 63
-105 91 -169 60 -48 -23 -68 -56 -74 -126 l-6 -59 -113 0 -114 0 0 190 0 190
304 0 303 0 5 -102 c5 -117 18 -152 67 -185 43 -29 89 -29 132 0 61 41 64 56
64 317 l0 235 -615 2 c-338 1 -627 -2 -641 -6z"/>
<path d="M7235 6935 c-142 -29 -296 -130 -341 -223 -11 -22 -20 -67 -22 -114
-3 -65 0 -85 20 -130 66 -141 183 -197 498 -239 249 -32 328 -59 348 -118 24
-68 -80 -124 -254 -137 -198 -16 -377 44 -425 142 -24 50 -61 74 -114 74 -49
0 -91 -26 -112 -70 -24 -50 -25 -251 0 -297 34 -63 102 -87 166 -58 38 17 40
16 114 -8 109 -37 220 -50 361 -44 139 6 211 23 312 72 95 46 166 111 200 182
52 110 18 251 -83 350 -83 80 -194 122 -418 157 -55 9 -142 23 -192 32 -133
23 -190 67 -148 114 23 25 125 58 205 66 140 14 329 -43 360 -108 23 -49 63
-73 122 -73 44 0 53 4 83 36 28 31 34 47 40 102 9 85 -2 176 -26 216 -11 18
-36 39 -56 48 -35 14 -41 14 -86 -5 -45 -19 -50 -20 -85 -5 -113 48 -333 66
-467 38z"/>
<path d="M10511 6050 c-43 -10 -80 -38 -108 -80 -32 -46 -32 -134 0 -181 64
-97 241 -108 320 -19 77 84 54 216 -45 263 -42 20 -123 28 -167 17z"/>
</g>
</svg>
