<?xml version="1.0" encoding="utf-8"?>
<!-- Generator: Adobe Illustrator 25.0.1, SVG Export Plug-In . SVG Version: 6.00 Build 0)  -->
<svg version="1.1" id="Layer_1" xmlns="http://www.w3.org/2000/svg" xmlns:xlink="http://www.w3.org/1999/xlink" x="0px" y="0px"
	 viewBox="0 0 2400 2400" style="enable-background:new 0 0 2400 2400;" xml:space="preserve">
<g>
	<path transform="translate(0.000000,2400.000000) scale(0.100000,-0.100000)" d="M10178,20050c-175-44-320-200-476-515
		c-363-729-613-1782-673-2835c-14-249-6-732,16-949l15-154l-76-146c-151-286-328-583-457-766c-204-288-426-510-581-581l-60-27
		l-43,23c-58,31-153,134-198,215c-142,254-240,675-261,1121l-7,140l210,210c298,297,464,511,591,762c112,220,158,394,149,562
		c-12,217-103,358-261,405c-73,22-229,20-307-5c-272-83-491-386-663-917c-99-304-139-514-174-907l-7-79l-110-84
		c-136-104-308-222-485-335c-183-116-542-330-546-325c-2,2-13,57-24,123c-32,188-106,472-175,679c-162,484-343,861-775,1615
		c-297,519-370,710-370,967c1,256,112,539,322,820c160,214,381,368,502,348c105-16,266-127,381-262c224-261,419-701,500-1129
		c33-171,38-177,138-182s141,12,168,72c55,125,24,398-82,721c-146,443-388,764-683,905c-278,132-640,130-933-5
		c-366-169-734-668-818-1108c-19-101-19-293,0-394c35-187,132-411,325-753c215-382,278-495,376-685c286-554,464-1031,559-1500
		c32-160,75-451,75-514c0-26-16-38-179-140c-434-270-747-516-1036-812c-425-435-716-919-791-1314c-20-108-23-297-5-380
		c46-211,196-355,435-415c121-31,373-28,516,4c278,64,508,192,738,411c394,375,695,962,812,1582c44,236,52,331,57,680l5,341l354,212
		c195,117,445,272,556,345c112,74,203,133,205,132c1-2,7-43,13-92c49-411,150-738,290-945c21-30,72-87,113-127
		c88-84,215-151,334-177c107-24,315-21,423,4c335,80,654,391,1006,980l68,115l9-35c38-146,127-384,192-515c187-376,432-603,740-687
		c67-18,108-21,250-22c148-1,181,2,254,22c145,39,290,117,396,212c22,19,47,41,55,47c13,10,15-37,16-405c0-422,8-584,44-878
		c88-727,300-1241,563-1368c196-95,468-67,588,61c51,54,74,96,108,198c98,293,102,800,10,1455c-58,422-217,1260-300,1584
		c-31,120-30,121,82,165c330,130,683,426,1018,853c47,59,86,106,89,104c2-3-4-71-14-153c-24-204-24-541,0-678c21-120,65-257,109-339
		c46-88,153-196,235-239c187-98,457-114,710-41c88,25,269,106,321,144c16,11,31,20,34,20s8-35,12-77c44-511,211-989,409-1171
		c105-96,208-127,397-120c106,4,134,9,194,33c110,44,200,109,331,240c419,417,832,1152,983,1748c36,141,76,379,68,401
		c-12,30-69,50-147,50c-95,1-139-21-158-79c-7-22-39-121-71-220c-76-234-115-333-215-540c-241-499-603-1015-890-1266l-90-78l-24,36
		c-72,106-172,380-216,593c-44,214-57,342-63,630l-6,275l80,95c229,274,429,582,579,895c236,495,354,916,354,1266
		c0,155-18,244-63,320c-27,45-43,59-100,88c-61,31-79,36-164,39c-55,3-120-1-152-8c-281-61-481-361-721-1080
		c-155-464-262-954-300-1375c-22-249-8-212-122-320c-164-156-335-276-470-329c-81-32-105-32-145-3c-160,118-245,437-229,872
		c13,386,79,840,197,1349c31,136,39,184,31,201c-22,48-157,83-262,66c-114-19-119-24-214-206c-105-202-187-339-341-570
		c-464-695-932-1149-1319-1281c-37-13-88-35-112-48c-46-26-53-24-30,10c21,29,277,543,345,691c472,1032,798,2018,881,2670
		c24,188,27,456,5,588c-49,302-185,445-424,445c-240,0-396-132-561-475c-167-346-315-881-474-1720c-144-760-246-1450-312-2105
		l-26-265l-36-60c-218-366-465-644-643-725c-58-26-85-25-145,5c-209,105-420,415-554,814c-77,233-166,646-185,871l-7,75l87,195
		c194,434,397,965,580,1515c300,902,443,1477,477,1927c28,364-41,577-212,657c-47,22-71,26-165,28
		C10265,20058,10198,20055,10178,20050z M10332,19814c128-290,2-976-386-2096c-131-378-402-1089-423-1108c-3-3-2,65,1,150
		c25,560,115,1205,241,1737c140,586,369,1182,513,1336c14,15,27,27,29,27S10320,19839,10332,19814z M12536,19078
		c45-89,64-180,71-339c18-441-142-1068-502-1974c-100-251-254-609-329-765c-33-69-36-72-31-35c49,384,119,852,191,1280
		c145,859,268,1356,414,1660c48,100,131,225,150,225C12505,19130,12522,19106,12536,19078z M7941,17278c21-47,24-67,24-188
		c0-120-3-145-28-222c-68-215-255-515-455-728c-71-76-71-76-42,89c60,330,183,700,298,894c44,74,154,207,172,207
		C7914,17330,7928,17306,7941,17278z M15817,17171c-9-222-62-441-173-726c-90-229-343-724-344-672c0,29,58,293,104,472
		c87,334,192,655,281,857c59,133,114,230,127,222C15820,17319,15821,17271,15817,17171z M11689,14495c79-304,209-991,260-1381
		c77-578,74-1122-6-1394l-16-55l-47,100c-116,242-203,597-249,1011c-38,339-45,498-45,964c0,404,6,586,31,945l7,100l11-65
		C11642,14684,11666,14583,11689,14495z M5256,13834c-56-546-222-1032-491-1434c-112-167-193-266-312-380c-157-151-341-264-473-292
		c-76-16-106-5-166,56c-180,185-136,616,106,1048c271,481,723,948,1285,1325l60,41l3-107C5270,14033,5264,13917,5256,13834z
		 M13820,18110c-14-4-53-21-86-39c-34-17-67-31-73-31s-31-20-56-44c-42-43-75-117-75-170c0-80,73-177,163-217c45-21,68-24,177-24
		c110,0,131,3,175,23c68,31,98,63,131,135c36,80,42,153,19,214c-26,66-91,128-156,147C13984,18121,13863,18124,13820,18110z
		 M7232,10199c-78-13-127-43-177-107c-77-98-206-384-290-642c-15-47-31-88-34-93c-4-4-149-32-322-62c-530-92-638-116-700-158
		c-47-31-47-73-2-100c66-38,111-34,546,48c225,42,410,75,412,73c11-11-96-343-130-404c-598-1077-1283-1946-2204-2793l-124-114
		l-29,119c-107,444-277,834-641,1473c-167,296-241,444-283,571c-25,76-28,100-28,225c-1,133,1,145,32,235c88,253,325,615,551,841
		c212,213,417,313,589,287c118-17,287-125,393-249c152-179,264-407,314-643c13-60,29-113,37-117c39-25,126-22,164,5
		c17,13,19,26,17,118c-2,175-52,360-145,541c-194,377-491,550-918,534c-391-15-723-192-1025-547c-290-342-476-681-507-925
		c-30-237,38-433,327-950c423-757,600-1232,671-1805c8-62,11-117,6-121c-4-3-142-119-307-256c-506-421-756-658-948-898
		c-240-299-335-501-325-688c10-186,125-309,345-369c115-31,368-30,507,2c638,143,1054,626,1211,1403c37,186,55,375,55,602l1,200
		l111,95c320,272,860,795,1125,1090c270,300,516,606,715,886c56,79,103,142,104,141s-15-121-36-267c-106-743-147-1324-137-1930
		c8-456,36-729,103-995c65-258,141-421,249-530c111-112,224-155,415-155c194,0,325,53,455,183c105,104,186,228,290,442
		c99,202,146,319,290,723l109,303l24-108c91-410,290-593,641-593c186,0,325,46,446,147c122,101,256,308,376,580
		c52,118,75,160,77,143c2-14,19-102,37-197c81-406,226-713,407-864c154-128,377-188,595-160c335,43,559,254,825,776l71,140l28-168
		c90-538,261-929,479-1100c111-86,223-120,395-121c395,0,548,184,774,934c62,204,251,896,251,918c0,41,14-7,31-110
		c94-550,281-906,550-1043c107-55,176-69,324-69c112,1,141,5,210,27c234,77,385,287,540,757l28,84l27-139c81-411,214-697,384-822
		c124-92,232-123,426-123c262,0,426,70,633,269c337,325,607,917,721,1581c52,303,83,713,73,983l-6,157l142,143
		c78,78,178,187,222,240c95,117,91,124,76-126c-54-879-30-1542,94-2662c44-390,54-441,96-477c77-65,292-78,402-25c50,25,66,43,81,91
		c4,10,13,141,21,290c18,334,30,470,61,702c71,538,215,1145,416,1754c282,856,552,1396,866,1730c38,41,74,72,78,67
		c11-11-13-168-52-336c-19-80-106-425-194-766c-196-761-249-990-350-1495c-198-993-279-1638-280-2221c0-547,70-924,200-1072
		c69-79,177-117,331-117c164,0,255,36,353,140c117,125,288,408,421,699c221,483,382,1005,469,1516c35,209,88,640,84,689
		c-3,36-8,43-38,58c-44,22-166,24-215,4c-19-8-39-25-45-38c-5-13-34-138-64-278c-102-480-165-718-277-1047
		c-155-455-329-836-541-1179c-89-146-94-149-107-82c-56,283-62,810-15,1323c55,617,241,1695,444,2580c260,1137,310,1388,310,1571
		c0,160-37,230-147,282c-54,25-67,27-193,27c-149,0-199-13-309-77c-81-48-256-226-358-363c-352-476-746-1354-1026-2290l-24-80
		l-8,110c-19,264,20,1618,59,2020c6,66,10,130,8,143c-4,30-63,67-131,82c-105,24-258-4-302-56c-9-10-60-104-113-208
		c-109-212-188-347-283-484c-75-108-214-284-220-278c-2,2-17,53-33,112c-101,385-272,636-515,755c-131,64-215,82-395,83
		c-129,0-170-4-245-22c-278-70-471-244-637-577c-89-176-148-367-163-523c-7-66-8-69-46-90c-32-19-41-31-53-75c-9-28-81-299-161-602
		c-364-1372-474-1703-651-1971c-73-111-77-114-115-78c-100,96-209,327-283,604c-150,560-151,1346-5,2379c35,245,35,251-37,282
		c-38,17-62,20-142,17c-115-4-163-23-186-73c-24-49-61-198-100-396c-94-477-620-2254-866-2925c-82-224-178-423-245-509
		c-15-19-16-19-40,5c-41,42-118,180-162,291c-153,384-237,923-250,1599c-7,433,7,703,48,875c74,318,168,783,294,1454
		c41,223,77,406,79,408c12,12,417,22,536,14c151-11,201-20,310-58c84-28,170-28,215,1c51,33,29,67-75,115c-152,71-324,95-692,96
		c-233,0-267,2-263,15c10,35,95,488,106,565c15,103,7,125-53,156c-33,18-65,24-138,27c-156,7-223-23-277-123c-44-82-112-269-180-493
		c-31-103-56-188-57-188c-1-1-50-7-111-13c-203-21-509-61-624-81c-245-44-332-101-249-163c48-35,157-34,443,7c322,45,488,67,492,63
		c1-2-2-19-7-38c-25-86-113-495-149-694c-102-559-154-1014-177-1535l-6-155l-65-200c-167-512-366-953-556-1234
		c-82-120-211-261-273-297c-40-23-45-24-71-10c-34,17-107,93-150,156c-212,310-337,983-320,1725c7,286,20,452,73,928
		c34,301,35,319,19,343c-25,38-98,67-186,72l-76,4l-30,62c-117,236-301,346-579,346c-175,0-315-37-456-120c-96-57-248-209-325-326
		c-158-236-289-573-373-956c-27-122-58-212-212-608c-337-867-595-1494-729-1765c-94-193-228-395-260-395c-18,0-99,185-133,305
		c-140,492-162,1445-56,2475c77,745,177,1346,326,1960c42,170,51,196,116,320c39,74,72,136,73,138c2,2,164,32,361,68
		c198,35,447,80,554,99c290,53,369,73,399,103l25,25l-27,23c-15,13-44,26-65,30c-39,8-309-28-850-113c-161-25-294-44-297-42
		c-2,3,29,88,70,189c110,276,146,435,110,486C7509,10188,7349,10220,7232,10199z M16526,8529c25-11,70-44,100-72
		c181-165,302-473,350-895l16-137l-43-38c-76-65-260-184-359-231c-172-81-346-126-428-111c-118,22-215,133-259,296
		c-26,97-24,304,6,437c32,147,64,240,131,377c97,201,200,323,320,380C16423,8564,16456,8563,16526,8529z M9418,8016
		c98-51,271-221,272-268c0-9-20-119-45-245c-111-565-322-1309-493-1743c-116-293-293-621-376-699l-26-24l-34,74
		c-79,167-115,363-123,674c-21,755,169,1585,460,2015c44,65,155,178,206,211C9314,8047,9356,8048,9418,8016z M16990,6844
		c-41-625-177-1161-415-1633c-137-272-331-520-490-626l-57-37l-27,19c-43,33-118,151-166,264c-104,246-168,552-195,939
		c-18,269-11,788,16,1087l6,72l59-29c32-17,98-42,146-57c85-26,96-27,323-28c192,0,251,3,320,18c118,26,310,90,405,136
		c44,21,81,37,83,36C16999,7004,16996,6931,16990,6844z M3729,4900c-71-651-349-1170-741-1384c-74-41-204-86-246-86
		c-22,0-39,10-65,39c-101,112-69,287,96,540c170,258,418,518,832,869c71,61,131,110,132,109S3734,4947,3729,4900z M14058,9726
		c-65-17-120-58-148-109c-13-23-39-59-58-81c-50-57-72-111-72-184c0-133,76-221,218-251c213-45,392,53,453,248
		c54,175-18,330-175,376C14216,9743,14122,9743,14058,9726z"/>
</g>
</svg>
