<?xml version="1.0" encoding="utf-8"?>
<!-- Generator: Adobe Illustrator 25.0.1, SVG Export Plug-In . SVG Version: 6.00 Build 0)  -->
<svg version="1.1" id="Layer_1" xmlns="http://www.w3.org/2000/svg" xmlns:xlink="http://www.w3.org/1999/xlink" x="0px" y="0px"
	 viewBox="0 0 2500 2500" style="enable-background:new 0 0 2500 2500;" xml:space="preserve">
<style type="text/css">
	.st0{fill:#231F20;}
</style>
<path transform="translate(0.000000,2500.000000) scale(0.100000,-0.100000)" class="st0" d="M7195,19024c-218-35-415-128-625-297
	c-107-86-377-360-499-506c-614-736-1128-1716-1340-2557c-86-340-124-602-124-849c0-197,13-284,57-380c36-79,86-109,189-114
	c45-2,98,2,120,9c53,15,105,50,113,74c9,27-29,56-71,56c-28,0-33,4-39,31c-12,63-5,247,15,384c146,999,823,2346,1640,3260
	c219,246,484,482,617,549c41,21,51,15,87-62c52-108,69-222,69-457c0-490-56-825-619-3705c-523-2677-776-4126-835-4777
	c-15-159-9-211,28-248c113-115,470-110,579,7c30,32,63,154,122,445c50,246,195,1030,330,1778l70,390l91,270
	c214,630,511,1374,845,2115c116,259,464,961,605,1225c565,1053,1190,1964,1700,2475c118,119,256,237,266,227c16-16,33-181,34-318
	c0-252-32-542-116-1044c-79-472-155-844-443-2165c-259-1189-322-1543-338-1880c-12-273,27-361,187-416c79-27,262-27,345,1
	c99,32,128,70,209,275c346,873,737,1651,1194,2375c544,860,1085,1558,1631,2106c224,223,333,320,461,408l75,52l8-38
	c11-49-8-241-39-413c-65-353-118-556-450-1705c-487-1681-635-2210-799-2843c-367-1419-462-2188-344-2791c73-367,215-554,480-628
	c90-25,347-25,439-1c111,30,256,109,360,196c306,253,758,892,1267,1787c512,902,898,1725,1128,2405l53,155l58-2c165-4,791-46,812-54
	c24-9,24-12,20-82c-7-88-40-193-170-532c-347-901-588-1766-727-2610c-126-759-141-1534-40-1989c88-397,228-535,539-536
	c283,0,415,119,654,590c257,506,513,1203,846,2305c45,149,140,460,211,693c72,233,129,433,127,444c-6,42-63,63-168,63
	c-135,0-153-12-203-135c-81-201-234-616-407-1105c-277-780-420-1156-590-1550c-85-197-244-526-304-629l-34-60l-7,88
	c-12,137,1,829,19,1036c54,623,165,1251,346,1964c121,475,218,799,396,1324c134,390,166,513,166,627c1,100-20,153-85,212
	c-119,110-254,143-706,173c-367,25-654,50-663,59c-3,3,5,53,18,111c46,200,65,364,71,590c4,137,1,247-6,302c-45,339-174,517-423,586
	c-96,26-336,23-443-6c-227-62-423-211-570-431c-126-189-176-346-177-546c0-209,52-353,175-482c116-122,246-197,462-268
	c122-40,322-86,443-101c28-4,52-8,52-11c0-2-29-90-64-196c-193-576-534-1296-952-2003c-500-848-924-1439-1315-1834
	c-87-88-236-214-287-244c-30-18-91,203-113,411c-17,167-7,621,20,838c86,717,252,1423,861,3660c423,1554,551,2059,614,2416
	c73,411,76,731,10,862c-48,94-138,160-265,194c-87,23-280,22-369-1c-91-24-212-85-295-147c-428-323-1442-1644-2217-2889
	c-182-292-538-893-592-998c-10-19-19-32-22-30c-2,3,37,195,86,429c265,1242,372,1779,454,2280c162,977,175,1494,45,1765
	c-41,88-125,176-203,214c-88,43-156,60-276,66c-261,15-457-68-688-290c-271-261-668-804-1095-1498c-451-734-1074-1948-1482-2890
	c-21-49-39-87-41-85c-1,1,43,238,97,527c309,1631,474,2567,523,2960c45,357,60,763,36,935c-51,353-206,549-498,626
	C7516,19022,7270,19035,7195,19024z M15547,15474c86-100,147-254,179-454c20-124,20-427,0-575c-27-195-29-207-40-211
	c-21-8-188,46-260,84c-177,93-265,256-266,493c0,185,52,347,167,521c43,66,156,188,173,188C15505,15520,15526,15499,15547,15474z
	 M19146,9783c-110-33-173-102-240-265c-54-131-87-254-88-333c-2-106,28-151,137-202c56-26,68-28,190-28c129,0,131,0,200,35
	c86,43,131,98,168,208c40,115,52,217,38,317c-25,179-61,239-161,269C19324,9804,19211,9804,19146,9783z M12527,7364
	c-136-33-265-119-331-222c-101-158-105-256-13-312c18-11,47-20,65-20c61,0,88,23,131,113c43,91,85,136,160,171c38,17,65,21,151,21
	c94-1,110-3,156-27c55-29,119-93,135-136c16-42,13-116-7-158c-38-81-260-289-706-664l-208-174v-138v-138h600h600v88
	c0,148-28,200-114,209c-34,4-53,1-79-16c-34-21-44-21-317-19l-283,3l214,185c382,331,513,471,556,593c26,75,23,232-5,309
	c-59,164-199,288-377,333C12781,7384,12606,7384,12527,7364z M14128,7361c-166-55-294-208-374-451l-29-85v-300c0-346,4-373,86-540
	c112-229,235-324,444-341c278-23,501,178,585,529c17,70,20,118,20,334c0,280-7,337-62,475c-42,107-139,251-205,304
	c-80,66-146,86-288,91C14207,7379,14174,7377,14128,7361z M14371,7108c62-18,112-68,158-160c58-116,71-195,71-436
	c-1-227-14-321-58-413c-64-133-139-189-253-189c-114,1-187,55-249,186c-47,101-60,188-60,418c0,278,17,357,103,492
	C14143,7101,14259,7142,14371,7108z M15687,7364c-136-33-265-119-331-222c-101-158-105-256-13-312c18-11,47-20,65-20
	c61,0,88,23,131,113c43,91,85,136,160,171c38,17,65,21,151,21c94-1,110-3,156-27c55-29,119-93,135-136c16-42,13-116-7-158
	c-38-81-260-289-706-664l-208-174v-138v-138h600h600v88c0,148-28,200-114,209c-34,4-53,1-79-16c-34-21-44-21-317-19l-283,3l214,185
	c382,331,513,471,556,593c26,75,23,232-5,309c-59,164-199,288-377,333C15941,7384,15766,7384,15687,7364z M17267,7364
	c-136-33-265-119-331-222c-101-158-105-256-13-312c18-11,47-20,65-20c61,0,88,23,131,113c43,91,85,136,160,171c38,17,65,21,151,21
	c94-1,110-3,156-27c55-29,119-93,135-136c16-42,13-116-7-158c-38-81-260-289-706-664l-208-174v-138v-138h600h600v88
	c0,148-28,200-114,209c-34,4-53,1-79-16c-34-21-44-21-317-19l-283,3l214,185c382,331,513,471,556,593c26,75,23,232-5,309
	c-59,164-199,288-377,333C17521,7384,17346,7384,17267,7364z M8733,7315c-57-24-67-60-71-237l-4-158h-53c-87,0-149-17-181-51
	c-25-26-29-38-29-84s4-58,29-84c32-34,94-51,181-51h54l3-328l3-327l33-67c51-105,132-164,273-199c72-19,102-21,209-16
	c206,9,447,80,528,156c39,35,42,42,42,90c0,44-5,56-33,87c-50,55-90,56-208,5c-138-59-213-75-354-75c-135,0-181,13-212,60
	c-16,25-18,58-21,320l-4,292l284,4c263,3,285,4,318,23c89,52,88,173-3,222c-28,16-67,18-314,21l-283,4v157c0,148-1,160-23,192
	C8858,7328,8800,7344,8733,7315z M5189,7301c-68-21-99-61-99-126c0-78,48-118,158-131l62-7l-2-511l-3-511l-68-6
	c-98-8-147-50-147-127c0-46,24-88,63-109c29-17,83-18,690-21l657-3v241c0,261-3,277-56,319c-32,25-92,28-134,6c-49-25-64-66-68-192
	l-4-113h-334h-334v195v195h114h113l6-56c3-30,13-66,21-80c53-80,179-76,222,7c20,40,21,464,0,514c-27,63-105,91-169,60
	c-48-23-68-56-74-126l-6-59h-113h-114v190v190h304h303l5-102c5-117,18-152,67-185c43-29,89-29,132,0c61,41,64,56,64,317v235l-615,2
	C5492,7308,5203,7305,5189,7301z M7235,6935c-142-29-296-130-341-223c-11-22-20-67-22-114c-3-65,0-85,20-130c66-141,183-197,498-239
	c249-32,328-59,348-118c24-68-80-124-254-137c-198-16-377,44-425,142c-24,50-61,74-114,74c-49,0-91-26-112-70c-24-50-25-251,0-297
	c34-63,102-87,166-58c38,17,40,16,114-8c109-37,220-50,361-44c139,6,211,23,312,72c95,46,166,111,200,182c52,110,18,251-83,350
	c-83,80-194,122-418,157c-55,9-142,23-192,32c-133,23-190,67-148,114c23,25,125,58,205,66c140,14,329-43,360-108c23-49,63-73,122-73
	c44,0,53,4,83,36c28,31,34,47,40,102c9,85-2,176-26,216c-11,18-36,39-56,48c-35,14-41,14-86-5s-50-20-85-5
	C7589,6945,7369,6963,7235,6935z M10511,6050c-43-10-80-38-108-80c-32-46-32-134,0-181c64-97,241-108,320-19c77,84,54,216-45,263
	C10636,6053,10555,6061,10511,6050z"/>
</svg>
