<?xml version="1.0" encoding="utf-8"?>
<!-- Generator: Adobe Illustrator 25.0.1, SVG Export Plug-In . SVG Version: 6.00 Build 0)  -->
<svg version="1.1" id="Layer_1" xmlns="http://www.w3.org/2000/svg" xmlns:xlink="http://www.w3.org/1999/xlink" x="0px" y="0px"
	 viewBox="0 0 2400 2400" style="enable-background:new 0 0 2400 2400;" xml:space="preserve">
<g>
	<path transform="translate(0.000000,2400.000000) scale(0.100000,-0.100000)" d="M13024,20657c-24-21-27-30-27-93
		c0-47,12-115,37-211c87-339,100-363,210-363c101,0,101,0,70,211c-48,328-80,445-130,468c-14,6-49,11-79,11
		C13063,20680,13045,20675,13024,20657z M14049,20551c-31-25-35-96-15-301c33-340,41-360,139-360c93,0,91-5,83,297
		c-7,280-15,333-54,363C14169,20577,14082,20578,14049,20551z M11732,20490c-62-9-78-29-64-77c19-64,298-399,380-457
		c51-36,129-46,185-23c36,16,51,47,27,62c-5,3-75,95-154,204c-147,200-216,276-258,285C11799,20494,11773,20495,11732,20490z
		 M15075,20174c-47-24-63-42-137-152c-140-208-159-251-127-283c21-21,96-27,128-9c24,12,268,330,285,371c7,17,11,40,9,49
		C15223,20189,15130,20203,15075,20174z M12699,19650c-101-12-139-34-230-135c-154-170-428-504-435-528c-8-34,36-118,176-332
		c64-99,148-232,185-295c92-155,203-322,264-395l49-60l-61-20c-279-95-516-326-711-696c-197-374-363-973-412-1489
		c-22-225-14-679,15-897c67-492,201-794,439-984c145-116,335-200,526-234c115-20,339-20,443,0c319,60,567,244,861,637
		c222,298,395,627,502,954c160,493,200,1099,101,1552c-43,199-157,501-246,651c-43,74-248,324-324,395c-17,17-31,33-31,37
		c0,5,87,71,193,148c201,145,561,440,706,576c87,82,260,278,292,330c40,63,23,97-131,272c-53,59-123,144-157,188
		c-71,94-87,109-133,129c-38,15-301,49-705,91c-137,14-360,41-495,61c-219,31-484,55-580,52C12781,19658,12735,19654,12699,19650z
		 M13204,19449c267-43,565-79,876-104c113-9,220-19,237-21c27-4,46-21,109-102c42-53,125-145,185-203l108-106l-83-94
		c-136-154-284-279-631-533c-104-77-242-184-305-239c-101-86-119-98-145-94c-49,7-147-11-176-32c-27-20-30-20-96-5
		c-37,9-119,19-182,23l-114,6l-60,95c-32,52-104,173-159,270c-166,289-300,505-376,603c-52,68-61,45,81,203c48,53,141,162,205,242
		l116,144l85-6C12925,19492,13071,19471,13204,19449z M13224,17249c107-68,145-115,197-242c67-161,93-314,92-542
		c-1-352-61-702-185-1085c-54-166-178-480-239-607c-127-260-314-516-364-497c-22,9-82,94-110,159c-29,64-66,201-91,332
		c-25,135-30,531-9,753c75,798,208,1292,438,1628c52,75,139,162,162,162C13123,17310,13172,17283,13224,17249z M12804,19250
		c-35-18-51-38-108-138c-36-64-66-125-66-135c0-31,110-214,137-226c33-15,85-14,108,3c19,13,19,16,2,87c-10,41-17,87-17,102
		c0,17,24,69,56,124l56,96l191-6c190-5,237,0,237,26c0,51-112,76-365,83C12856,19271,12843,19270,12804,19250z M14364,18809
		c-126-37-894-574-894-625c0-37,126-59,181-30c14,7,75,53,135,102c147,119,422,323,571,423c68,45,126,87,129,93
		C14504,18801,14420,18826,14364,18809z M11206,19440c-37-12-66-39-66-61c0-10,12-32,28-50c34-41,236-173,360-236
		c87-44,98-47,170-48c80,0,126,15,146,48c15,23-1,47-46,70c-19,11-93,64-164,119c-160,125-230,160-328,164
		C11267,19448,11222,19445,11206,19440z M15590,19413c-78-9-328-96-381-134c-62-44-18-96,73-87c71,8,431,107,458,127
		c14,10,25,28,25,42C15765,19399,15685,19423,15590,19413z M15435,18669c-268-32-315-46-315-89c0-30,43-52,114-57
		c90-8,578,72,609,98l22,19l-28,25c-27,24-34,25-140,24C15635,18688,15518,18679,15435,18669z M6620,18258c-100-29-120-80-154-403
		c-47-437-80-923-127-1880c-24-489-41-1874-28-2285c11-360,21-392,130-424c66-20,131-20,196-1c92,27,96,35,100,171
		c2,66,28,533,58,1039c60,1016,60,1024,80,2090c17,867,19,1470,5,1570c-8,55-16,75-35,92C6800,18267,6700,18281,6620,18258z
		 M9135,18201c-51-13-73-30-85-65c-7-22-24-42-46-55c-42-25-45-57-9-91c31-29,31-38,5-320c-46-511-92-1255-111-1815
		c-14-411-7-1651,10-1800c15-128,46-306,66-372c52-173,214-254,480-239c502,27,990,388,1393,1030c144,229,301,581,372,833
		c178,635,142,1178-115,1698c-209,422-557,743-992,916c-95,38-321,93-591,145l-202,39l-6,33c-4,18-16,39-28,47
		C9249,18202,9174,18211,9135,18201z M9740,17743c221-82,366-177,545-357c275-276,439-606,512-1031c24-141,23-448-1-610
		c-22-145-85-400-131-535c-228-654-687-1259-1119-1476c-38-18-74-34-82-34c-25,0-61,158-86,370c-8,77-12,541-14,1715
		c-2,1491-7,2007-20,2062c-6,21,0,20,148-24C9576,17799,9688,17762,9740,17743z M5335,10971c-291-49-503-200-692-494
		c-239-373-422-957-490-1569c-21-189-24-679-5-843c68-600,268-1114,564-1454c208-238,481-394,782-446c116-20,347-20,462,0
		c456,80,816,391,1289,1115c458,700,747,1366,859,1980c21,117,46,317,46,372c0,12,23,29,73,54c131,66,297,188,475,350
		c53,48,97,83,99,77c2-5-32-223-76-484c-167-988-214-1439-191-1829c25-423,98-667,245-816c103-105,213-150,390-161
		c107-6,245,15,336,52c138,56,298,188,458,378l73,87l35-57c164-273,404-405,712-390c142,7,208,23,331,84c240,118,465,442,669,964
		c40,101,78,200,86,219l14,35l1-35c1-55,37-281,60-372c100-399,257-632,476-708c132-46,319-46,448-1c145,51,264,168,399,394
		c147,248,291,598,436,1067c6,18,10-5,15-75c35-497,111-835,253-1120c114-228,260-362,448-410c79-20,281-20,359,0
		c218,57,378,230,575,624c255,506,440,1069,576,1747c4,16,27,30,93,58c326,135,635,401,816,703c44,74,162,318,171,355
		c14,54-100,94-196,68c-57-15-71-29-115-109c-122-221-306-453-465-587c-70-60-250-186-256-181c-1,1,3,31,8,67c16,118,23,556,10,669
		c-32,273-111,432-246,493c-75,33-248,38-344,9c-172-52-330-248-430-534c-67-191-92-438-61-606c37-207,142-368,281-434
		c74-35,128-46,217-47c51,0,72-4,72-12c0-23-77-308-130-482c-188-619-503-1301-704-1522c-39-44-45-47-61-34c-34,28-106,140-149,231
		c-240,510-299,1217-219,2617c19,338,19,338-44,375c-72,42-236,42-321,0c-64-32-55-5-307-903c-250-894-329-1145-460-1465
		c-134-330-279-589-398-714l-41-43l-33,38c-42,50-123,207-156,305c-93,270-134,566-144,1019c-10,487,39,1078,124,1482
		c25,123,25,129,8,148c-67,74-302,73-373-3c-22-24-46-110-87-316c-40-199-226-837-362-1241c-256-761-485-1245-695-1466
		c-68-71-151-134-178-134c-26,0-119,80-169,147c-70,92-151,258-201,413l-42,127l55,95c313,543,544,1149,629,1654
		c31,185,34,563,5,684c-36,156-112,267-212,315c-163,77-407,44-534-70c-159-144-321-555-431-1101c-62-300-75-437-75-784
		c0-339,13-468,70-720l23-105l-56-85c-84-126-221-305-299-390c-127-139-247-240-284-240c-22,0-91,102-119,178c-59,157-89,360-97,662
		c-10,386,17,677,152,1630c97,680,109,807,83,892c-26,88-128,133-282,126s-199-35-491-298c-99-89-214-189-255-223l-75-60l-7,29
		c-3,16-16,81-28,144c-69,378-225,605-455,665c-74,19-223,19-292,1c-139-37-235-119-301-256c-58-121-73-185-79-340
		c-8-218,35-348,157-470c117-117,259-168,487-177c139-6,143-6,138-27c-2-11-9-55-16-96c-72-471-301-1068-627-1635
		c-286-498-642-982-871-1182c-242-212-451-291-632-237c-415,123-777,663-923,1374c-131,646-77,1462,143,2130
		c118,355,253,604,415,765c165,163,274,176,475,56c224-134,419-385,686-884c57-108,95-152,142-168c70-23,163,6,163,50
		c0,9-25,90-55,181c-124,370-330,700-546,874c-103,83-271,168-389,196C5635,10973,5418,10984,5335,10971z M15587,10490
		c20-88,28-425,14-576c-15-154-60-443-72-467c-18-33-51-16-95,49c-111,166-136,446-63,729c27,105,90,263,136,338l37,61l14-34
		C15566,10571,15579,10526,15587,10490z M7572,10568c55-67,94-144,132-258c46-139,68-277,70-430l1-125l-55-9c-76-12-127,4-189,60
		c-139,125-181,400-100,650c23,72,73,154,93,154C7531,10610,7553,10591,7572,10568z M10624,10316c73-175,67-509-15-876
		c-54-238-195-630-327-910l-40-85l-1,211c-2,384,57,810,169,1216c54,198,138,411,182,466C10607,10355,10608,10354,10624,10316z"/>
</g>
</svg>
