<?xml version="1.0" encoding="utf-8"?>
<!-- Generator: Adobe Illustrator 25.0.1, SVG Export Plug-In . SVG Version: 6.00 Build 0)  -->
<svg version="1.1" id="Layer_1" xmlns="http://www.w3.org/2000/svg" xmlns:xlink="http://www.w3.org/1999/xlink" x="0px" y="0px"
	 viewBox="0 0 2400 2400" style="enable-background:new 0 0 2400 2400;" xml:space="preserve">
<g>
	<path transform="translate(0.000000,2400.000000) scale(0.100000,-0.100000)" d="M6952,20563c-32-7-38-23-62-183
		c-42-272-38-988,7-1120c22-66,52-89,125-97c94-9,88-28,96,313c9,389,8,901-2,987c-6,53-12,71-29,82
		C7063,20560,6987,20571,6952,20563z M5102,20278c-20-20-13-68,27-188c40-116,363-866,440-1017c46-93,72-113,145-113
		c57,0,76,8,76,30c0,34-252,678-366,935c-75,171-167,335-195,351C5199,20293,5118,20294,5102,20278z M8574,19964
		c-33-38-79-93-102-122c-77-99-475-740-546-880c-31-60-32-80-8-98c20-16,105-18,133-4c28,15,626,916,685,1032c46,92,48,98,32,115
		c-11,10-39,18-76,21l-58,4L8574,19964z M3900,19177c-36-18-35-45,1-102c44-69,822-845,880-879c77-44,199-45,199-1
		c0,17-112,142-434,484c-180,192-443,437-521,486C3994,19185,3928,19191,3900,19177z M9390,18605c-111-39-198-84-363-187
		c-315-199-493-336-485-374c5-27,65-54,119-54c40,0,62,10,155,67c60,37,235,142,388,235c315,189,396,246,396,281
		C9600,18627,9499,18642,9390,18605z M5520,18493c-136-23-143-32-430-538c-63-110-140-245-173-300c-79-135-79-131,61-382
		c60-109,169-310,242-448c158-297,288-525,417-729c51-82,92-150,91-151c-2-1-32-21-68-45s-94-74-130-110c-345-353-353-362-474-547
		c-84-128-202-372-255-526c-120-349-186-794-162-1090c36-437,180-766,461-1047c252-253,543-384,950-431c138-16,365-6,495,21
		c440,92,825,375,1124,825c204,307,327,612,388,955c31,178,43,549,24,720c-62,541-352,988-823,1266l-88,51l42,59
		c23,33,85,128,139,211c189,295,372,534,590,773c68,74,152,167,185,207c66,76,222,291,248,341s20,94-20,153c-93,136-491,607-558,660
		c-78,61-143,68-746,79c-283,5-598,14-700,20C6171,18499,5571,18502,5520,18493z M5955,18353c-53-139-173-547-189-649l-7-40l-177-12
		c-98-6-229-19-291-27c-62-9-115-14-117-12c-7,7,408,712,433,735c23,21,32,22,190,22C5950,18370,5962,18369,5955,18353z M6408,18348
		c178-10,202-13,196-27c-3-9-9-156-12-327l-5-311l-299-7c-165-4-303-5-305-2c-6,5,53,281,114,539l35,147h37
		C6189,18360,6296,18355,6408,18348z M7315,18317c1-1-1-145-3-319l-4-318h-258h-257l-7,203c-3,111-9,256-12,322l-6,120l273-3
		C7192,18320,7315,18317,7315,18317z M7641,18253c86-89,195-216,304-353c54-69,121-151,149-183c27-31,46-60,43-63c-3-4-97-1-209,5
		s-242,11-290,11h-86l-6,93c-7,122-26,496-26,525c0,18,5,22,33,22C7580,18310,7596,18300,7641,18253z M5768,17448
		c85-359,240-898,351-1218c22-63,37-117,33-120c-10-8-192-53-196-49c-12,16-321,561-486,859c-112,201-227,403-256,450l-53,85l72,8
		c64,7,338,22,474,25l51,2L5768,17448z M6616,17474c-3-9-15-111-26-228c-11-116-22-224-24-241c-3-16-12-183-21-370
		c-8-187-18-377-21-422l-6-83h-77h-78l-13,58c-34,151-196,761-232,871c-49,151-120,331-154,389l-25,42h342
		C6590,17490,6622,17488,6616,17474z M7358,17475c2-2-11-25-27-53c-86-139-286-636-445-1107l-71-210l-40,5l-40,5l1,65
		c1,36,13,207,28,382c23,273,27,357,24,623l-3,306l285-7C7227,17480,7356,17476,7358,17475z M8005,17453c-73-99-146-183-305-353
		c-190-204-366-410-509-598c-52-67-96-121-98-119s61,161,138,353c78,192,159,396,181,454s58,147,80,197l41,93l176,3
		c97,1,209,4,250,5l73,2L8005,17453z M6635,15745c87-18,211-77,290-138c293-223,471-601,504-1073c9-129,2-330-14-432
		c-81-488-254-876-518-1158c-189-202-398-326-613-362c-83-15-98-14-174,1c-388,76-677,475-776,1073c-25,150-26,503-1,659
		c23,148,68,328,111,450c114,316,343,666,485,740c31,17,77,44,102,61c117,82,280,155,399,179C6517,15762,6552,15762,6635,15745z
		 M15666,16149c-14-11-26-27-26-35c0-26-41-31-300-37c-566-15-827-44-942-105c-75-39-76-87-5-124c50-27,159-30,302-11
		c108,15,471,40,724,49l183,7l-6-29c-7-36-82-679-95-824c-13-134-33-464-71-1150c-47-864-52-983-54-1195c-1-226,2-237,71-270
		c79-38,239-29,263,14c13,26,94,904,196,2126c29,350,43,977,27,1212c-8,117-7,122,12,127c33,9,497,6,707-4c214-11,315-26,393-60
		c102-44,245-33,245,19c0,23-46,64-111,96c-145,74-474,115-1036,131l-241,7l-11,24C15867,16170,15719,16191,15666,16149z
		 M19205,16039c-220-8-316-24-410-68c-147-69-221-211-319-611c-138-569-231-1191-300-2015c-60-713-70-935-44-995
		c44-102,158-159,372-185c275-34,542-5,836,91c140,46,272,113,297,151c33,50-46,101-170,110c-61,4-87,0-172-27
		c-164-51-374-90-522-97l-133-6v35c0,111,121,1597,136,1670c5,24,19,33,134,78c225,88,439,153,660,201c101,21,139,34,152,49
		c22,27,15,44-30,72c-32,19-54,23-162,26c-155,5-276-12-528-74c-101-25-186-44-188-42c-6,7,63,438,106,663c94,480,162,690,240,730
		c39,20,160,32,535,54c247,14,328,22,352,34c81,42,30,107-107,136c-56,13-367,31-475,29C19432,16047,19315,16043,19205,16039z
		 M12525,16004c-33-2-139-8-235-14c-372-22-731-63-873-100c-82-21-182-67-209-97c-55-61-58-116-28-608c11-182,27-460,35-620
		c45-838,133-1633,191-1722c45-71,229-93,287-35c42,42,43,219,7,994c-5,112-12,302-16,423l-7,220l244,39c653,103,1013,166,1047,183
		c78,38,25,103-95,117c-81,9-683-50-1098-109c-55-7-101-12-103-11c-7,7-32,877-26,924c5,39,12,57,28,67c48,32,502,97,916,131
		c107,9,296,17,420,17c207,2,229,0,280-19c107-42,225-36,256,12c13,18,12,25-9,55c-46,68-173,114-387,139
		C13053,16001,12634,16011,12525,16004z M10275,15980c-1313-25-1720-73-1789-208c-27-54-27-88,3-268c77-458,116-767,161-1274
		c63-710,149-1265,240-1550c54-168,92-212,194-224c70-8,126,12,126,45c0,12-11,121-25,243c-47,421-149,1621-140,1637c3,3,32,9,66,13
		s232,38,440,76c458,83,657,115,851,134c172,17,203,28,203,71c0,25-7,33-37,48c-103,51-371,49-788-4c-152-19-709-105-741-115
		c-13-4-17,8-23,63c-4,38-24,217-46,398c-69,579-69,582-16,596c36,10,191,23,726,59c1130,78,1122,77,1197,110c129,56,63,149-112,155
		C10721,15987,10501,15984,10275,15980z M17778,15879c-27-15-63-145-122-441c-110-547-133-698-189-1233l-12-119l-80-13
		c-44-7-174-31-288-54c-115-22-211-39-213-36c-2,2,5,109,16,238s23,376,26,549c7,309,6,315-14,341c-28,34-95,52-176,47
		c-84-5-109-27-136-118c-62-207-116-624-136-1045l-7-140l-33-28c-43-36-44-68-4-108l29-30l-9-252c-13-331-12-933,0-1075
		c13-139,25-172,76-198c52-25,205-28,229-3c18,18,23,72,51,614c9,176,26,455,37,620l22,300l111,37c114,39,472,133,478,127
		c2-2-7-125-20-274c-43-514-65-841-71-1063c-7-252-8-247,73-278c60-23,166-16,195,13c29,28,41,117,135,973c42,388,80,708,83,712
		s69,21,145,37c143,32,179,49,174,84c-7,49-85,76-215,77c-62,0-83,3-83,13c0,7,11,114,25,238c35,324,63,753,81,1265l7,190l-28,22
		c-21,17-41,22-84,22C17820,15890,17787,15885,17778,15879z M15610,11277c-71-16-113-42-181-114c-94-99-174-234-269-457
		c-290-680-397-1468-360-2656c6-206,15-427,20-490l8-115l-98-200c-181-367-425-767-589-965c-69-84-166-173-217-201
		c-24-13-28-11-55,21c-16,19-49,76-74,125c-164,333-192,865-84,1605c64,440,225,1161,383,1714c37,125,66,239,66,251
		c0,34-43,80-92,100c-24,9-79,20-124,22c-114,8-132-3-245-145c-108-136-388-420-503-511l-80-63l-26,108c-62,252-170,419-317,493
		c-101,51-271,68-374,38c-147-43-289-216-340-415c-95-374,180-645,655-644l99,1l-6-132c-32-670-364-1699-722-2237
		c-71-106-166-207-185-195s-98,139-130,209c-174,389-222,1039-140,1918c11,114,38,357,59,540c22,183,43,372,47,419c6,84,6,87-27,149
		c-40,75-112,142-239,222c-170,107-357,154-575,145c-502-21-864-412-1135-1227c-82-248-154-565-179-786c-8-78-22-121-99-315
		c-326-815-589-1374-827-1759l-59-94l-9,34c-16,59-1,650,22,910c57,627,124,1092,270,1865c38,204,99,525,135,715
		c254,1348,289,1672,200,1857c-61,127-204,196-409,196c-116,1-178-18-272-79c-259-172-632-751-923-1434c-34-80-63-146-63-147
		c-1-1-2,182-3,405c0,621-27,808-130,922c-74,81-205,125-359,118c-122-5-183-34-279-130c-205-206-506-809-772-1546
		c-32-90-60-157-62-148c-6,31,191,1171,259,1498c24,118,28,151,19,168c-30,56-216,99-292,67c-47-20-60-42-92-157
		c-18-62-61-165-126-295c-322-651-843-1352-1290-1738c-220-190-566-430-945-655c-222-131-275-171-275-208c0-32,53-56,124-57
		c55,0,79,8,236,78c326,144,559,272,833,456c450,303,771,635,1132,1169c43,63,75,106,71,95c-10-33-94-540-115-695
		c-66-478-82-743-91-1480c-7-496-12-674-24-770c-22-165-33-701-17-825c13-108,27-130,106-170c53-26,68-29,156-30c84,0,101,3,126,21
		c62,46,73,162,73,804c0,479,1,501,25,645c163,993,553,2213,984,3073c112,224,254,462,268,448c17-17,24-228,32-971
		c11-1001,40-1625,77-1683c37-56,210-103,307-82c89,18,91,23,122,270c34,273,57,409,101,588c161,657,580,1536,953,1999
		c43,54,89,107,101,118l23,20l-6-125c-12-240-90-712-301-1820c-157-828-208-1129-265-1580c-89-703-119-1328-77-1635
		c19-136,53-271,85-334c25-48,91-107,147-131c70-30,199-46,267-32c79,16,128,50,200,141c175,222,474,819,702,1404c21,53,41,97,45,97
		c3,0,12-35,19-77c19-114,67-267,114-363c31-64,59-102,112-155c120-120,255-169,460-168c165,0,250,37,362,156
		c130,138,278,438,420,854c26,79,51,143,54,143s9-37,13-82c20-247,103-572,189-743c32-64,106-176,151-227c132-151,319-227,529-215
		c75,4,99,10,161,41c140,69,263,227,421,541c331,657,545,1522,545,2202v119l45,22c66,32,178,107,268,179c43,35,79,63,81,63
		s-15-62-36-137c-154-541-266-1064-313-1463c-22-185-31-576-16-721c24-235,74-428,152-585c120-245,295-369,569-404
		c80-11,109-10,185,3c251,44,439,233,722,725c94,164,81,170,109-53c22-183,49-335,76-424c39-131,120-187,284-198
		c156-11,198,13,238,135c13,42,48,161,76,263l52,187l76,4c61,4,90,11,141,37c34,18,64,31,66,29s29-68,60-148c69-175,110-259,179-365
		c168-258,389-379,731-402c209-13,432,62,593,201c30,25,57,46,61,46c5,0,20-18,35-40c109-165,313-262,546-261c152,0,258,47,383,169
		c165,161,343,475,483,852l39,105l6-310c11-510,67-928,161-1194c67-191,134-252,316-287c137-27,251,0,341,82
		c157,141,367,621,496,1134c82,325,185,952,164,992c-16,30-92,59-158,61c-104,2-100,9-161-266c-94-430-198-786-315-1082
		c-53-136-168-373-218-453l-34-54l-16,104c-50,309-71,618-71,1063c0,770,62,1269,330,2685c31,162,58,296,59,298s99,28,216,58
		c503,130,741,209,747,250c5,32-40,62-103,69c-44,6-77,1-187-29c-73-20-243-62-378-95c-187-44-246-55-248-45c-4,15,36,203,79,378
		c17,66,28,130,24,143c-15,62-200,99-281,55c-40-21-123-230-204-517c-24-82-48-155-54-161c-10-11-312-72-627-128
		c-171-31-209-45-209-82c0-29,16-45,70-71c26-12,64-16,150-17c97,0,147,7,320,43c113,23,214,44,226,47c20,5,17-10-47-263
		c-67-266-93-345-412-1283c-197-578-252-734-339-950c-96-242-270-591-367-736c-78-119-231-294-256-294c-13,0-82,143-109,225
		c-8,28-25,89-36,137l-21,88l87,142c111,184,284,537,367,748c231,589,378,1257,364,1655c-11,312-83,425-296,471
		c-223,47-391-33-541-258c-173-261-400-898-479-1348c-74-418-80-873-18-1248l23-132l-51-63c-183-230-345-362-488-397
		c-56-15-82-3-154,72c-92,96-157,210-268,473c-99,235-165,356-223,408c-20,18-19,19,64,135c277,387,580,1000,744,1507
		c133,412,185,769,124,852c-49,67-126,96-249,97c-70,0-87-3-133-28c-106-59-264-251-469-571c-318-497-604-1058-840-1650
		c-53-132-97-241-98-243c-2-2-20,220-40,508l-12,175l75,200c262,702,525,1593,631,2135c58,298,65,374,66,660c0,218-3,280-18,348
		c-52,243-123,311-347,336C15685,11286,15640,11283,15610,11277z M15740,10782c36-433-91-1087-380-1952l-88-265l-1,140
		c-3,545,65,1151,175,1565c63,235,171,531,237,653l32,58l7-33C15726,10930,15734,10855,15740,10782z M12633,9618
		c41-54,95-172,121-262c21-72,56-273,56-321c0-20-119-55-187-55c-51,0-59,3-93,38c-123,124-111,396,26,583c20,27,40,49,44,49
		C12605,9650,12620,9635,12633,9618z M11171,9614c30-9,91-34,136-57l83-40l-29-18c-16-9-32-22-35-28c-4-6-36-135-72-288
		c-290-1238-692-2367-964-2711c-22-29-45-50-50-47c-32,20-101,333-126,565c-22,214-15,656,14,850c65,432,195,865,357,1195
		c97,197,159,290,275,406c101,101,181,152,275,175C11102,9633,11108,9632,11171,9614z M18354,8840c0-207-19-331-94-637
		c-84-338-198-665-342-978c-106-229-100-226-93-45c11,300,55,598,136,920c104,418,244,794,347,929l25,34l11-24
		C18350,9025,18354,8939,18354,8840z M16687,8778c-180-539-484-1169-788-1633c-43-66-79-117-79-113c0,13,107,301,178,478
		c131,328,292,673,443,952c122,226,286,494,296,484C16740,8944,16717,8868,16687,8778z"/>
</g>
</svg>
