<?xml version="1.0" standalone="no"?>
<!DOCTYPE svg PUBLIC "-//W3C//DTD SVG 20010904//EN"
 "http://www.w3.org/TR/2001/REC-SVG-20010904/DTD/svg10.dtd">
<svg version="1.0" xmlns="http://www.w3.org/2000/svg"
 width="2400.000000pt" height="2400.000000pt" viewBox="0 0 2400.000000 2400.000000"
 preserveAspectRatio="xMidYMid meet">

<g transform="translate(0.000000,2400.000000) scale(0.100000,-0.100000)"
fill="#000000" stroke="none">
<path d="M6952 20563 c-32 -7 -38 -23 -62 -183 -42 -272 -38 -988 7 -1120 22
-66 52 -89 125 -97 94 -9 88 -28 96 313 9 389 8 901 -2 987 -6 53 -12 71 -29
82 -24 15 -100 26 -135 18z"/>
<path d="M5102 20278 c-20 -20 -13 -68 27 -188 40 -116 363 -866 440 -1017 46
-93 72 -113 145 -113 57 0 76 8 76 30 0 34 -252 678 -366 935 -75 171 -167
335 -195 351 -30 17 -111 18 -127 2z"/>
<path d="M8574 19964 c-33 -38 -79 -93 -102 -122 -77 -99 -475 -740 -546 -880
-31 -60 -32 -80 -8 -98 20 -16 105 -18 133 -4 28 15 626 916 685 1032 46 92
48 98 32 115 -11 10 -39 18 -76 21 l-58 4 -60 -68z"/>
<path d="M3900 19177 c-36 -18 -35 -45 1 -102 44 -69 822 -845 880 -879 77
-44 199 -45 199 -1 0 17 -112 142 -434 484 -180 192 -443 437 -521 486 -31 20
-97 26 -125 12z"/>
<path d="M9390 18605 c-111 -39 -198 -84 -363 -187 -315 -199 -493 -336 -485
-374 5 -27 65 -54 119 -54 40 0 62 10 155 67 60 37 235 142 388 235 315 189
396 246 396 281 0 54 -101 69 -210 32z"/>
<path d="M5520 18493 c-136 -23 -143 -32 -430 -538 -63 -110 -140 -245 -173
-300 -79 -135 -79 -131 61 -382 60 -109 169 -310 242 -448 158 -297 288 -525
417 -729 51 -82 92 -150 91 -151 -2 -1 -32 -21 -68 -45 -36 -24 -94 -74 -130
-110 -345 -353 -353 -362 -474 -547 -84 -128 -202 -372 -255 -526 -120 -349
-186 -794 -162 -1090 36 -437 180 -766 461 -1047 252 -253 543 -384 950 -431
138 -16 365 -6 495 21 440 92 825 375 1124 825 204 307 327 612 388 955 31
178 43 549 24 720 -62 541 -352 988 -823 1266 l-88 51 42 59 c23 33 85 128
139 211 189 295 372 534 590 773 68 74 152 167 185 207 66 76 222 291 248 341
26 50 20 94 -20 153 -93 136 -491 607 -558 660 -78 61 -143 68 -746 79 -283 5
-598 14 -700 20 -179 9 -779 12 -830 3z m435 -140 c-53 -139 -173 -547 -189
-649 l-7 -40 -177 -12 c-98 -6 -229 -19 -291 -27 -62 -9 -115 -14 -117 -12 -7
7 408 712 433 735 23 21 32 22 190 22 153 0 165 -1 158 -17z m453 -5 c178 -10
202 -13 196 -27 -3 -9 -9 -156 -12 -327 l-5 -311 -299 -7 c-165 -4 -303 -5
-305 -2 -6 5 53 281 114 539 l35 147 37 0 c20 0 127 -5 239 -12z m907 -31 c1
-1 -1 -145 -3 -319 l-4 -318 -258 0 -257 0 -7 203 c-3 111 -9 256 -12 322 l-6
120 273 -3 c151 -2 274 -5 274 -5z m326 -64 c86 -89 195 -216 304 -353 54 -69
121 -151 149 -183 27 -31 46 -60 43 -63 -3 -4 -97 -1 -209 5 -112 6 -242 11
-290 11 l-86 0 -6 93 c-7 122 -26 496 -26 525 0 18 5 22 33 22 27 0 43 -10 88
-57z m-1873 -805 c85 -359 240 -898 351 -1218 22 -63 37 -117 33 -120 -10 -8
-192 -53 -196 -49 -12 16 -321 561 -486 859 -112 201 -227 403 -256 450 l-53
85 72 8 c64 7 338 22 474 25 l51 2 10 -42z m848 26 c-3 -9 -15 -111 -26 -228
-11 -116 -22 -224 -24 -241 -3 -16 -12 -183 -21 -370 -8 -187 -18 -377 -21
-422 l-6 -83 -77 0 -78 0 -13 58 c-34 151 -196 761 -232 871 -49 151 -120 331
-154 389 l-25 42 342 0 c309 0 341 -2 335 -16z m742 1 c2 -2 -11 -25 -27 -53
-86 -139 -286 -636 -445 -1107 l-71 -210 -40 5 -40 5 1 65 c1 36 13 207 28
382 23 273 27 357 24 623 l-3 306 285 -7 c157 -4 286 -8 288 -9z m647 -22
c-73 -99 -146 -183 -305 -353 -190 -204 -366 -410 -509 -598 -52 -67 -96 -121
-98 -119 -2 2 61 161 138 353 78 192 159 396 181 454 22 58 58 147 80 197 l41
93 176 3 c97 1 209 4 250 5 l73 2 -27 -37z m-1370 -1708 c87 -18 211 -77 290
-138 293 -223 471 -601 504 -1073 9 -129 2 -330 -14 -432 -81 -488 -254 -876
-518 -1158 -189 -202 -398 -326 -613 -362 -83 -15 -98 -14 -174 1 -388 76
-677 475 -776 1073 -25 150 -26 503 -1 659 23 148 68 328 111 450 114 316 343
666 485 740 31 17 77 44 102 61 117 82 280 155 399 179 87 17 122 17 205 0z"/>
<path d="M15666 16149 c-14 -11 -26 -27 -26 -35 0 -26 -41 -31 -300 -37 -566
-15 -827 -44 -942 -105 -75 -39 -76 -87 -5 -124 50 -27 159 -30 302 -11 108
15 471 40 724 49 l183 7 -6 -29 c-7 -36 -82 -679 -95 -824 -13 -134 -33 -464
-71 -1150 -47 -864 -52 -983 -54 -1195 -1 -226 2 -237 71 -270 79 -38 239 -29
263 14 13 26 94 904 196 2126 29 350 43 977 27 1212 -8 117 -7 122 12 127 33
9 497 6 707 -4 214 -11 315 -26 393 -60 102 -44 245 -33 245 19 0 23 -46 64
-111 96 -145 74 -474 115 -1036 131 l-241 7 -11 24 c-24 53 -172 74 -225 32z"/>
<path d="M19205 16039 c-220 -8 -316 -24 -410 -68 -147 -69 -221 -211 -319
-611 -138 -569 -231 -1191 -300 -2015 -60 -713 -70 -935 -44 -995 44 -102 158
-159 372 -185 275 -34 542 -5 836 91 140 46 272 113 297 151 33 50 -46 101
-170 110 -61 4 -87 0 -172 -27 -164 -51 -374 -90 -522 -97 l-133 -6 0 35 c0
111 121 1597 136 1670 5 24 19 33 134 78 225 88 439 153 660 201 101 21 139
34 152 49 22 27 15 44 -30 72 -32 19 -54 23 -162 26 -155 5 -276 -12 -528 -74
-101 -25 -186 -44 -188 -42 -6 7 63 438 106 663 94 480 162 690 240 730 39 20
160 32 535 54 247 14 328 22 352 34 81 42 30 107 -107 136 -56 13 -367 31
-475 29 -33 -1 -150 -5 -260 -9z"/>
<path d="M12525 16004 c-33 -2 -139 -8 -235 -14 -372 -22 -731 -63 -873 -100
-82 -21 -182 -67 -209 -97 -55 -61 -58 -116 -28 -608 11 -182 27 -460 35 -620
45 -838 133 -1633 191 -1722 45 -71 229 -93 287 -35 42 42 43 219 7 994 -5
112 -12 302 -16 423 l-7 220 244 39 c653 103 1013 166 1047 183 78 38 25 103
-95 117 -81 9 -683 -50 -1098 -109 -55 -7 -101 -12 -103 -11 -7 7 -32 877 -26
924 5 39 12 57 28 67 48 32 502 97 916 131 107 9 296 17 420 17 207 2 229 0
280 -19 107 -42 225 -36 256 12 13 18 12 25 -9 55 -46 68 -173 114 -387 139
-97 11 -516 21 -625 14z"/>
<path d="M10275 15980 c-1313 -25 -1720 -73 -1789 -208 -27 -54 -27 -88 3
-268 77 -458 116 -767 161 -1274 63 -710 149 -1265 240 -1550 54 -168 92 -212
194 -224 70 -8 126 12 126 45 0 12 -11 121 -25 243 -47 421 -149 1621 -140
1637 3 3 32 9 66 13 34 4 232 38 440 76 458 83 657 115 851 134 172 17 203 28
203 71 0 25 -7 33 -37 48 -103 51 -371 49 -788 -4 -152 -19 -709 -105 -741
-115 -13 -4 -17 8 -23 63 -4 38 -24 217 -46 398 -69 579 -69 582 -16 596 36
10 191 23 726 59 1130 78 1122 77 1197 110 129 56 63 149 -112 155 -44 2 -264
-1 -490 -5z"/>
<path d="M17778 15879 c-27 -15 -63 -145 -122 -441 -110 -547 -133 -698 -189
-1233 l-12 -119 -80 -13 c-44 -7 -174 -31 -288 -54 -115 -22 -211 -39 -213
-36 -2 2 5 109 16 238 11 129 23 376 26 549 7 309 6 315 -14 341 -28 34 -95
52 -176 47 -84 -5 -109 -27 -136 -118 -62 -207 -116 -624 -136 -1045 l-7 -140
-33 -28 c-43 -36 -44 -68 -4 -108 l29 -30 -9 -252 c-13 -331 -12 -933 0 -1075
13 -139 25 -172 76 -198 52 -25 205 -28 229 -3 18 18 23 72 51 614 9 176 26
455 37 620 l22 300 111 37 c114 39 472 133 478 127 2 -2 -7 -125 -20 -274 -43
-514 -65 -841 -71 -1063 -7 -252 -8 -247 73 -278 60 -23 166 -16 195 13 29 28
41 117 135 973 42 388 80 708 83 712 3 4 69 21 145 37 143 32 179 49 174 84
-7 49 -85 76 -215 77 -62 0 -83 3 -83 13 0 7 11 114 25 238 35 324 63 753 81
1265 l7 190 -28 22 c-21 17 -41 22 -84 22 -31 0 -64 -5 -73 -11z"/>
<path d="M15610 11277 c-71 -16 -113 -42 -181 -114 -94 -99 -174 -234 -269
-457 -290 -680 -397 -1468 -360 -2656 6 -206 15 -427 20 -490 l8 -115 -98
-200 c-181 -367 -425 -767 -589 -965 -69 -84 -166 -173 -217 -201 -24 -13 -28
-11 -55 21 -16 19 -49 76 -74 125 -164 333 -192 865 -84 1605 64 440 225 1161
383 1714 37 125 66 239 66 251 0 34 -43 80 -92 100 -24 9 -79 20 -124 22 -114
8 -132 -3 -245 -145 -108 -136 -388 -420 -503 -511 l-80 -63 -26 108 c-62 252
-170 419 -317 493 -101 51 -271 68 -374 38 -147 -43 -289 -216 -340 -415 -95
-374 180 -645 655 -644 l99 1 -6 -132 c-32 -670 -364 -1699 -722 -2237 -71
-106 -166 -207 -185 -195 -19 12 -98 139 -130 209 -174 389 -222 1039 -140
1918 11 114 38 357 59 540 22 183 43 372 47 419 6 84 6 87 -27 149 -40 75
-112 142 -239 222 -170 107 -357 154 -575 145 -502 -21 -864 -412 -1135 -1227
-82 -248 -154 -565 -179 -786 -8 -78 -22 -121 -99 -315 -326 -815 -589 -1374
-827 -1759 l-59 -94 -9 34 c-16 59 -1 650 22 910 57 627 124 1092 270 1865 38
204 99 525 135 715 254 1348 289 1672 200 1857 -61 127 -204 196 -409 196
-116 1 -178 -18 -272 -79 -259 -172 -632 -751 -923 -1434 -34 -80 -63 -146
-63 -147 -1 -1 -2 182 -3 405 0 621 -27 808 -130 922 -74 81 -205 125 -359
118 -122 -5 -183 -34 -279 -130 -205 -206 -506 -809 -772 -1546 -32 -90 -60
-157 -62 -148 -6 31 191 1171 259 1498 24 118 28 151 19 168 -30 56 -216 99
-292 67 -47 -20 -60 -42 -92 -157 -18 -62 -61 -165 -126 -295 -322 -651 -843
-1352 -1290 -1738 -220 -190 -566 -430 -945 -655 -222 -131 -275 -171 -275
-208 0 -32 53 -56 124 -57 55 0 79 8 236 78 326 144 559 272 833 456 450 303
771 635 1132 1169 43 63 75 106 71 95 -10 -33 -94 -540 -115 -695 -66 -478
-82 -743 -91 -1480 -7 -496 -12 -674 -24 -770 -22 -165 -33 -701 -17 -825 13
-108 27 -130 106 -170 53 -26 68 -29 156 -30 84 0 101 3 126 21 62 46 73 162
73 804 0 479 1 501 25 645 163 993 553 2213 984 3073 112 224 254 462 268 448
17 -17 24 -228 32 -971 11 -1001 40 -1625 77 -1683 37 -56 210 -103 307 -82
89 18 91 23 122 270 34 273 57 409 101 588 161 657 580 1536 953 1999 43 54
89 107 101 118 l23 20 -6 -125 c-12 -240 -90 -712 -301 -1820 -157 -828 -208
-1129 -265 -1580 -89 -703 -119 -1328 -77 -1635 19 -136 53 -271 85 -334 25
-48 91 -107 147 -131 70 -30 199 -46 267 -32 79 16 128 50 200 141 175 222
474 819 702 1404 21 53 41 97 45 97 3 0 12 -35 19 -77 19 -114 67 -267 114
-363 31 -64 59 -102 112 -155 120 -120 255 -169 460 -168 165 0 250 37 362
156 130 138 278 438 420 854 26 79 51 143 54 143 3 0 9 -37 13 -82 20 -247
103 -572 189 -743 32 -64 106 -176 151 -227 132 -151 319 -227 529 -215 75 4
99 10 161 41 140 69 263 227 421 541 331 657 545 1522 545 2202 l0 119 45 22
c66 32 178 107 268 179 43 35 79 63 81 63 2 0 -15 -62 -36 -137 -154 -541
-266 -1064 -313 -1463 -22 -185 -31 -576 -16 -721 24 -235 74 -428 152 -585
120 -245 295 -369 569 -404 80 -11 109 -10 185 3 251 44 439 233 722 725 94
164 81 170 109 -53 22 -183 49 -335 76 -424 39 -131 120 -187 284 -198 156
-11 198 13 238 135 13 42 48 161 76 263 l52 187 76 4 c61 4 90 11 141 37 34
18 64 31 66 29 2 -2 29 -68 60 -148 69 -175 110 -259 179 -365 168 -258 389
-379 731 -402 209 -13 432 62 593 201 30 25 57 46 61 46 5 0 20 -18 35 -40
109 -165 313 -262 546 -261 152 0 258 47 383 169 165 161 343 475 483 852 l39
105 6 -310 c11 -510 67 -928 161 -1194 67 -191 134 -252 316 -287 137 -27 251
0 341 82 157 141 367 621 496 1134 82 325 185 952 164 992 -16 30 -92 59 -158
61 -104 2 -100 9 -161 -266 -94 -430 -198 -786 -315 -1082 -53 -136 -168 -373
-218 -453 l-34 -54 -16 104 c-50 309 -71 618 -71 1063 0 770 62 1269 330 2685
31 162 58 296 59 298 1 2 99 28 216 58 503 130 741 209 747 250 5 32 -40 62
-103 69 -44 6 -77 1 -187 -29 -73 -20 -243 -62 -378 -95 -187 -44 -246 -55
-248 -45 -4 15 36 203 79 378 17 66 28 130 24 143 -15 62 -200 99 -281 55 -40
-21 -123 -230 -204 -517 -24 -82 -48 -155 -54 -161 -10 -11 -312 -72 -627
-128 -171 -31 -209 -45 -209 -82 0 -29 16 -45 70 -71 26 -12 64 -16 150 -17
97 0 147 7 320 43 113 23 214 44 226 47 20 5 17 -10 -47 -263 -67 -266 -93
-345 -412 -1283 -197 -578 -252 -734 -339 -950 -96 -242 -270 -591 -367 -736
-78 -119 -231 -294 -256 -294 -13 0 -82 143 -109 225 -8 28 -25 89 -36 137
l-21 88 87 142 c111 184 284 537 367 748 231 589 378 1257 364 1655 -11 312
-83 425 -296 471 -223 47 -391 -33 -541 -258 -173 -261 -400 -898 -479 -1348
-74 -418 -80 -873 -18 -1248 l23 -132 -51 -63 c-183 -230 -345 -362 -488 -397
-56 -15 -82 -3 -154 72 -92 96 -157 210 -268 473 -99 235 -165 356 -223 408
-20 18 -19 19 64 135 277 387 580 1000 744 1507 133 412 185 769 124 852 -49
67 -126 96 -249 97 -70 0 -87 -3 -133 -28 -106 -59 -264 -251 -469 -571 -318
-497 -604 -1058 -840 -1650 -53 -132 -97 -241 -98 -243 -2 -2 -20 220 -40 508
l-12 175 75 200 c262 702 525 1593 631 2135 58 298 65 374 66 660 0 218 -3
280 -18 348 -52 243 -123 311 -347 336 -25 2 -70 -1 -100 -7z m130 -495 c36
-433 -91 -1087 -380 -1952 l-88 -265 -1 140 c-3 545 65 1151 175 1565 63 235
171 531 237 653 l32 58 7 -33 c4 -18 12 -93 18 -166z m-3107 -1164 c41 -54 95
-172 121 -262 21 -72 56 -273 56 -321 0 -20 -119 -55 -187 -55 -51 0 -59 3
-93 38 -123 124 -111 396 26 583 20 27 40 49 44 49 5 0 20 -15 33 -32z m-1462
-4 c30 -9 91 -34 136 -57 l83 -40 -29 -18 c-16 -9 -32 -22 -35 -28 -4 -6 -36
-135 -72 -288 -290 -1238 -692 -2367 -964 -2711 -22 -29 -45 -50 -50 -47 -32
20 -101 333 -126 565 -22 214 -15 656 14 850 65 432 195 865 357 1195 97 197
159 290 275 406 101 101 181 152 275 175 67 17 73 16 136 -2z m7183 -774 c0
-207 -19 -331 -94 -637 -84 -338 -198 -665 -342 -978 -106 -229 -100 -226 -93
-45 11 300 55 598 136 920 104 418 244 794 347 929 l25 34 11 -24 c6 -14 10
-100 10 -199z m-1667 -62 c-180 -539 -484 -1169 -788 -1633 -43 -66 -79 -117
-79 -113 0 13 107 301 178 478 131 328 292 673 443 952 122 226 286 494 296
484 3 -2 -20 -78 -50 -168z"/>
</g>
</svg>
