<?xml version="1.0" standalone="no"?>
<!DOCTYPE svg PUBLIC "-//W3C//DTD SVG 20010904//EN"
 "http://www.w3.org/TR/2001/REC-SVG-20010904/DTD/svg10.dtd">
<svg version="1.0" xmlns="http://www.w3.org/2000/svg"
 width="2500.000000pt" height="2500.000000pt" viewBox="0 0 2500.000000 2500.000000"
 preserveAspectRatio="xMidYMid meet">

<g transform="translate(0.000000,2500.000000) scale(0.100000,-0.100000)"
fill="#000000" stroke="none">
<path d="M12775 24711 c-382 -96 -739 -466 -1102 -1144 -521 -975 -814 -2238
-924 -3987 -17 -270 -23 -1134 -10 -1440 21 -502 48 -815 133 -1556 l12 -102
-74 -118 c-228 -369 -515 -757 -749 -1013 -106 -116 -251 -246 -261 -234 -27
29 -66 311 -81 586 -33 603 79 1503 307 2460 183 772 181 752 92 798 -86 45
-274 34 -321 -19 -9 -9 -94 -172 -190 -362 -95 -190 -286 -556 -424 -815 -137
-258 -332 -630 -433 -825 -459 -891 -608 -1142 -829 -1395 -69 -80 -86 -94
-96 -83 -40 41 -111 283 -139 473 -62 414 -41 843 84 1740 26 193 51 381 55
418 18 180 -28 238 -200 254 -126 11 -230 -31 -251 -102 -7 -22 -46 -157 -88
-300 -125 -424 -188 -620 -393 -1220 -322 -942 -437 -1262 -573 -1587 -64
-152 -201 -438 -210 -438 -21 0 -44 680 -36 1075 18 941 101 1775 266 2680 23
121 43 228 46 237 3 10 26 30 52 45 997 566 1671 1166 2176 1935 173 265 284
477 401 773 151 383 221 690 232 1021 9 269 -19 484 -93 724 -90 289 -204 425
-409 486 -83 25 -292 25 -390 0 -101 -25 -276 -114 -380 -193 -103 -78 -306
-276 -416 -408 -487 -581 -941 -1471 -1303 -2556 -171 -514 -370 -1237 -487
-1766 l-22 -101 -106 -50 c-58 -27 -196 -89 -306 -137 -490 -213 -662 -289
-835 -368 -124 -57 -186 -81 -188 -72 -2 7 13 129 32 271 92 672 273 2181 335
2794 82 802 92 1269 35 1602 -63 371 -216 571 -494 645 -92 25 -327 24 -430 0
-238 -58 -486 -202 -786 -458 -233 -199 -653 -631 -895 -919 -226 -271 -531
-707 -701 -1005 -162 -284 -344 -681 -355 -774 -5 -43 -3 -50 18 -65 29 -20
98 -21 126 -1 12 9 60 94 106 189 351 724 843 1391 1494 2026 393 384 685 616
932 742 96 49 205 88 245 88 63 0 154 -135 191 -283 61 -251 61 -716 0 -1272
-69 -623 -510 -3865 -535 -3930 -5 -12 -41 -41 -82 -65 -240 -142 -564 -373
-798 -570 -171 -144 -545 -518 -676 -675 -419 -505 -686 -1039 -770 -1540 -23
-138 -23 -396 0 -540 61 -385 196 -683 401 -890 186 -188 386 -265 655 -252
260 13 445 99 633 296 258 272 475 754 712 1581 197 689 364 1476 515 2424 30
192 42 243 57 254 40 31 600 297 1111 528 236 107 292 128 292 114 0 -10 -9
-60 -19 -111 -51 -246 -121 -700 -160 -1034 -66 -556 -86 -901 -86 -1470 1
-528 10 -684 60 -1010 78 -503 185 -627 526 -613 195 9 273 56 377 230 168
281 314 696 608 1728 36 129 70 241 74 248 4 8 10 -37 13 -100 14 -251 72
-489 167 -684 120 -247 272 -344 537 -344 240 0 372 81 553 338 172 244 305
489 589 1088 265 560 403 845 407 841 2 -2 -3 -31 -11 -65 -8 -35 -33 -152
-54 -260 -154 -769 -178 -1458 -66 -1929 72 -304 211 -413 522 -413 266 0 427
82 683 346 160 165 306 348 487 608 47 67 85 112 87 105 3 -8 12 -63 21 -124
60 -403 174 -895 236 -1016 41 -82 143 -135 279 -146 137 -10 296 33 334 92
12 18 21 75 31 188 26 283 85 597 180 962 96 371 204 658 385 1023 296 598
594 1069 758 1197 l46 36 18 -23 c28 -37 85 -176 117 -289 83 -288 132 -620
181 -1229 l19 -245 -42 -35 c-646 -542 -930 -913 -1023 -1340 -15 -68 -19
-125 -18 -280 0 -171 3 -210 27 -321 63 -300 188 -540 345 -665 125 -99 250
-138 442 -137 150 0 231 18 345 76 288 149 456 537 542 1252 27 229 25 858 -5
1209 -12 142 -22 268 -22 280 0 17 48 55 216 171 120 83 289 202 378 266 l161
117 7 -412 c16 -1036 70 -2015 117 -2138 13 -35 64 -72 131 -95 85 -28 305
-25 381 5 92 37 107 60 129 199 138 856 492 1804 977 2612 253 421 493 739
685 910 73 64 151 121 166 121 14 0 58 -137 77 -235 22 -120 42 -305 60 -545
18 -259 35 -538 35 -600 l0 -45 -247 -215 c-418 -363 -661 -618 -792 -833
-132 -216 -235 -484 -288 -752 -14 -71 -18 -139 -18 -320 0 -200 3 -245 23
-343 63 -311 205 -600 357 -726 155 -128 343 -185 575 -173 345 19 591 170
758 468 41 73 113 252 145 364 162 555 196 1228 117 2345 -11 157 -23 295 -25
308 -5 18 9 40 64 100 176 195 339 447 496 766 87 175 94 186 99 155 3 -19 12
-86 21 -149 31 -219 93 -429 167 -560 45 -80 159 -188 239 -227 113 -56 176
-68 349 -68 135 0 165 3 230 23 94 30 186 78 272 142 187 141 469 510 644 844
l64 121 0 -105 c0 -127 -18 -975 -29 -1330 l-7 -255 -91 -116 c-337 -430 -759
-1028 -966 -1370 -178 -295 -302 -588 -372 -879 -76 -320 -74 -759 5 -1150 83
-406 218 -717 385 -885 129 -130 218 -165 415 -165 180 0 277 33 385 131 192
176 346 563 499 1256 163 735 263 1655 326 2997 l10 209 157 195 c87 107 166
204 176 216 18 20 18 -106 12 -3949 -4 -2183 -7 -3971 -8 -3971 -5 -5 -19757
12 -19761 17 -4 3 -6 902 -6 1998 0 1589 -2 1992 -12 1995 -7 2 -62 22 -123
43 l-110 40 -6 -1076 c-11 -2001 -10 -3103 4 -3130 6 -14 26 -33 44 -43 30
-18 348 -19 10070 -27 6109 -5 10051 -4 10072 1 18 6 43 20 56 32 l22 22 6
1089 c4 600 7 2479 7 4177 l0 3087 62 73 c89 106 518 531 623 620 251 210 437
329 644 413 138 56 173 84 151 125 -21 39 -85 60 -185 60 -146 0 -290 -43
-510 -150 -212 -104 -438 -258 -665 -455 -60 -53 -110 -92 -110 -88 -1 4 0
1372 0 3038 l1 3030 -22 23 c-11 13 -32 27 -46 33 -15 5 -704 9 -1765 9
l-1740 0 6 -57 c4 -32 9 -72 12 -89 l6 -31 1131 -6 c623 -4 1365 -7 1650 -7
l517 0 0 -1103 c0 -607 -3 -2003 -7 -3103 l-6 -1999 -96 -100 c-53 -55 -126
-132 -162 -171 l-65 -71 2 1653 c1 1214 -2 1659 -10 1676 -22 46 -79 63 -206
63 -104 0 -119 -2 -160 -25 -30 -16 -51 -38 -64 -63 -42 -87 -67 -330 -86
-847 -10 -264 -13 -294 -41 -403 -100 -396 -288 -855 -486 -1187 -190 -317
-433 -605 -625 -740 l-70 -50 -20 25 c-82 105 -157 400 -189 745 -16 181 -14
546 5 733 29 285 89 663 171 1087 25 129 48 261 52 292 6 55 5 58 -29 92 -44
44 -118 66 -222 66 -97 0 -187 -24 -226 -60 -45 -43 -97 -218 -248 -850 -36
-150 -139 -447 -273 -782 -168 -420 -327 -755 -476 -1003 l-77 -129 -22 157
c-87 618 -194 823 -465 893 -78 21 -250 23 -329 5 -288 -67 -599 -385 -1087
-1113 -243 -362 -422 -665 -604 -1025 l-107 -213 -6 63 c-11 117 -26 1079 -19
1255 l6 175 125 126 c482 487 937 1089 1266 1673 676 1201 1159 3120 1076
4273 -33 460 -138 766 -302 878 -98 68 -153 82 -323 82 -130 0 -160 -3 -225
-23 -315 -99 -583 -365 -907 -900 -437 -723 -783 -1737 -1022 -3004 -185 -978
-313 -2018 -351 -2853 -6 -132 -13 -282 -16 -332 l-6 -93 -111 -93 c-169 -140
-446 -350 -653 -495 l-31 -21 -12 102 c-67 568 -178 1014 -308 1236 -53 90
-151 192 -220 229 -192 101 -453 93 -641 -20 -190 -115 -377 -372 -770 -1058
-225 -393 -391 -739 -493 -1029 -37 -106 -48 -131 -53 -111 -3 14 -28 202 -54
419 l-49 394 97 201 c221 458 611 1365 905 2106 516 1301 839 2413 969 3336
96 677 113 1353 46 1715 -59 312 -185 475 -415 534 -82 21 -269 19 -360 -4z
m290 -287 c117 -176 168 -459 168 -944 0 -831 -150 -1673 -488 -2734 -224
-704 -513 -1435 -1008 -2552 -238 -536 -275 -612 -281 -583 -10 42 -35 475
-47 789 -13 334 -7 1107 11 1405 107 1842 421 3135 992 4085 183 304 383 535
533 613 27 14 32 14 56 -4 15 -10 44 -44 64 -75z m4419 -185 c69 -81 141 -305
171 -538 114 -856 -193 -2399 -732 -3671 -99 -234 -300 -636 -419 -840 -221
-378 -555 -845 -843 -1180 l-30 -35 -1 57 c0 32 7 158 15 280 76 1116 249
2342 456 3238 228 985 559 1811 943 2352 131 185 325 369 398 377 3 1 22 -18
42 -40z m-8874 -734 c67 -35 142 -158 199 -330 149 -447 129 -912 -61 -1464
-178 -516 -448 -985 -836 -1451 -130 -155 -497 -521 -657 -654 -186 -155 -385
-303 -575 -429 -182 -120 -220 -142 -220 -128 0 21 87 394 161 691 337 1354
752 2400 1229 3099 217 318 470 580 635 657 58 28 85 30 125 9z m-5085 -6491
c-109 -621 -213 -1125 -335 -1619 -247 -996 -456 -1546 -707 -1858 -59 -73
-163 -157 -194 -157 -52 0 -193 101 -277 198 -205 237 -325 565 -339 928 -11
269 43 531 174 844 127 304 371 677 643 985 187 211 500 505 740 697 105 83
333 249 337 244 2 -1 -17 -119 -42 -262z m14191 -1489 c-4 -534 -11 -664 -51
-953 -51 -371 -156 -706 -273 -879 -43 -63 -135 -153 -157 -153 -25 0 -114 80
-164 146 -67 88 -144 241 -186 367 -129 394 -99 836 87 1268 113 264 228 421
517 709 l216 215 8 -95 c4 -52 6 -333 3 -625z m-4099 -35 c13 -710 -68 -1270
-228 -1580 -40 -77 -93 -150 -110 -150 -40 0 -184 195 -237 321 -85 204 -116
383 -109 618 5 193 28 293 101 446 96 202 210 357 425 578 126 128 136 137
144 115 4 -12 11 -169 14 -348z m7238 -335 c-55 -895 -129 -1561 -241 -2140
-75 -393 -150 -681 -222 -858 -40 -97 -105 -222 -121 -231 -5 -3 -27 21 -50
54 -125 178 -230 487 -286 840 -23 141 -31 498 -16 643 42 392 179 755 452
1197 119 195 489 742 496 736 1 -1 -4 -110 -12 -241z"/>
<path d="M1913 23700 c-17 -6 -43 -24 -57 -41 l-26 -31 0 -646 1 -647 124 130
125 130 2 460 3 460 2675 0 2676 0 102 93 102 92 -2054 0 c-1129 0 -2410 2
-2847 5 -516 3 -805 1 -826 -5z"/>
<path d="M9527 23652 c21 -26 49 -69 63 -95 l25 -47 820 0 820 0 38 88 c20 49
37 92 37 95 0 4 -414 7 -920 7 l-920 0 37 -48z"/>
<path d="M14097 23693 c-2 -5 0 -47 6 -95 l9 -88 883 0 882 0 37 88 c20 48 36
91 36 95 0 9 -1848 9 -1853 0z"/>
<path d="M2049 20570 c-15 -19 -70 -100 -122 -180 l-96 -145 -6 -1730 -6
-1730 28 31 c15 17 73 85 128 150 l100 118 3 1260 c1 694 1 1486 0 1761 l-3
500 -26 -35z"/>
<path d="M8775 13382 c-43 -15 -55 -25 -83 -72 -37 -63 -88 -213 -128 -380
-15 -63 -31 -120 -35 -126 -6 -7 -65 -14 -146 -17 -221 -10 -370 -55 -402
-122 -13 -27 -12 -30 13 -52 23 -19 38 -23 94 -23 37 0 83 4 101 10 50 14 292
33 301 23 5 -4 -2 -65 -14 -134 -21 -114 -29 -137 -81 -235 -170 -319 -310
-525 -491 -722 -88 -95 -237 -232 -253 -232 -4 0 -29 36 -55 80 -26 45 -118
192 -205 328 -260 406 -299 486 -309 635 -8 132 44 265 125 318 38 25 67 24
132 -6 107 -50 246 -218 362 -439 54 -103 69 -116 134 -116 82 0 123 51 110
139 -9 60 -68 209 -116 292 -140 242 -355 353 -654 336 -235 -13 -421 -124
-504 -301 -55 -117 -64 -221 -30 -354 l20 -82 -64 -102 c-35 -57 -144 -236
-242 -398 -631 -1045 -1044 -1580 -1219 -1580 -59 0 -141 114 -199 275 -84
235 -118 621 -82 926 15 130 61 368 74 381 3 4 69 25 146 47 287 81 482 167
679 299 332 222 475 416 476 647 0 132 -49 243 -147 335 -114 107 -239 150
-439 150 -293 0 -494 -116 -757 -435 -207 -252 -397 -603 -499 -923 -12 -37
-26 -72 -32 -79 -6 -6 -58 -24 -116 -38 -336 -85 -535 -175 -672 -303 -73 -69
-168 -200 -168 -233 0 -29 39 -49 95 -49 64 1 81 11 144 88 102 123 238 215
411 277 76 27 252 77 256 72 2 -1 -7 -54 -18 -117 -17 -94 -21 -155 -21 -330
0 -252 18 -379 82 -571 69 -203 144 -332 255 -436 111 -104 249 -159 431 -169
250 -15 448 67 612 255 261 298 641 888 1008 1564 65 120 121 216 125 215 13
-5 436 -641 491 -737 53 -93 53 -94 32 -110 -12 -9 -78 -56 -148 -105 -366
-258 -585 -579 -561 -822 13 -132 68 -237 172 -333 75 -69 162 -114 275 -142
70 -18 103 -20 233 -16 173 5 232 18 356 79 268 131 400 442 335 787 -22 114
-87 313 -152 460 -53 122 -54 126 -35 141 10 8 57 44 103 80 150 116 388 369
480 510 15 23 16 0 11 -310 -10 -698 47 -1059 208 -1303 87 -134 199 -226 321
-267 55 -19 81 -21 184 -18 101 3 127 7 163 27 65 34 124 92 191 190 217 317
360 810 361 1239 l0 73 -37 16 c-50 20 -131 13 -153 -14 -10 -13 -22 -68 -34
-159 -45 -358 -129 -629 -290 -931 -48 -91 -171 -264 -191 -270 -15 -5 -88
112 -119 191 -36 91 -62 228 -77 411 -18 217 -15 896 5 1275 17 326 45 737 51
756 2 7 41 7 132 -3 171 -18 543 -70 668 -94 127 -24 219 -25 265 -1 45 22 51
54 15 78 -75 49 -663 165 -962 190 -45 4 -86 10 -93 14 -8 5 -7 53 4 186 31
371 31 357 5 388 -40 46 -128 57 -214 28z m-2987 -453 c75 -37 134 -102 163
-178 17 -46 20 -72 17 -146 -4 -101 -29 -168 -95 -257 -77 -106 -295 -266
-508 -375 -103 -52 -336 -143 -367 -143 -16 0 -3 48 53 198 155 414 422 832
581 911 58 28 84 27 156 -10z m1684 -2186 c66 -177 89 -276 95 -408 4 -91 1
-137 -11 -189 -47 -200 -182 -346 -319 -346 -99 0 -221 92 -275 208 -24 50
-27 69 -27 162 0 101 2 108 38 184 42 88 105 182 181 269 63 74 246 228 265
225 8 -2 31 -48 53 -105z"/>
<path d="M12178 13149 c-220 -29 -485 -195 -673 -420 -74 -88 -185 -250 -185
-269 0 -6 11 -16 25 -22 52 -24 94 2 247 153 164 162 290 260 421 329 127 67
211 94 237 78 64 -40 87 -217 56 -408 -49 -291 -239 -919 -509 -1685 -156
-442 -372 -1134 -384 -1226 -5 -41 -3 -48 22 -67 72 -57 185 -54 355 9 396
145 1011 290 1359 320 135 12 186 30 186 65 0 12 -13 26 -35 37 -31 17 -54 18
-215 13 -99 -3 -232 -12 -295 -21 -190 -26 -592 -111 -808 -171 -112 -31 -205
-54 -207 -52 -2 2 40 123 94 269 368 988 541 1488 665 1924 127 448 151 577
144 771 -3 101 -8 128 -29 174 -35 76 -68 111 -136 147 -96 51 -209 69 -335
52z"/>
<path d="M13850 13021 c-147 -47 -295 -165 -396 -316 -185 -279 -339 -800
-385 -1305 -17 -193 -6 -590 20 -711 53 -244 132 -405 271 -552 114 -122 268
-213 437 -259 105 -28 317 -31 413 -5 157 43 286 139 366 273 111 189 210 504
249 799 19 143 22 484 5 625 -24 206 -112 644 -161 808 -67 221 -183 469 -261
556 -56 63 -92 78 -175 75 -35 -2 -77 4 -106 14 -64 23 -204 22 -277 -2z m275
-126 c50 -21 52 -25 117 -151 135 -264 233 -571 303 -949 76 -415 53 -775 -76
-1173 -74 -228 -173 -408 -274 -500 -101 -92 -155 -102 -261 -47 -183 95 -316
279 -389 535 -152 539 6 1733 283 2136 46 68 123 145 167 167 34 18 58 14 130
-18z"/>
<path d="M15505 12981 c-157 -45 -306 -174 -384 -332 -91 -186 -75 -309 41
-309 54 0 74 13 89 57 50 157 191 353 310 432 72 48 96 51 140 14 111 -94 168
-318 140 -547 -37 -288 -126 -538 -458 -1286 -102 -228 -218 -494 -258 -590
-40 -96 -105 -248 -144 -338 -39 -89 -71 -174 -71 -188 0 -89 178 -120 383
-68 133 34 382 75 692 115 247 32 389 38 675 27 71 -3 125 13 140 43 16 28 2
47 -53 73 -154 75 -405 81 -942 25 -104 -11 -248 -29 -319 -39 -71 -11 -130
-20 -132 -20 -11 0 98 250 268 615 417 893 518 1171 547 1515 11 127 2 276
-24 386 -36 156 -144 318 -252 377 -106 57 -267 73 -388 38z"/>
<path d="M17380 12985 c-125 -31 -234 -99 -340 -212 -110 -118 -209 -337 -210
-465 0 -38 33 -58 95 -58 68 0 91 18 105 83 38 182 238 424 421 507 66 30 87
26 134 -23 56 -59 85 -125 97 -226 23 -178 -46 -366 -199 -546 -58 -68 -335
-300 -440 -370 -69 -44 -67 -82 4 -106 33 -10 93 -9 229 7 42 5 61 1 105 -20
150 -71 292 -238 364 -430 40 -107 56 -200 56 -326 0 -197 -43 -360 -131 -494
-45 -68 -150 -176 -172 -176 -22 0 -144 73 -205 122 -68 55 -131 134 -173 219
-34 65 -58 79 -143 79 -83 0 -127 -25 -127 -73 0 -51 27 -144 58 -195 64 -111
231 -245 369 -299 57 -22 89 -27 194 -31 146 -5 209 6 305 52 93 45 153 101
223 207 128 195 169 455 115 740 -65 348 -307 656 -584 743 l-70 23 99 77
c287 223 451 490 451 731 0 82 -21 178 -51 237 -30 58 -119 150 -177 181 -27
15 -75 33 -107 42 -72 18 -219 18 -295 0z"/>
<path d="M10350 10301 c-70 -22 -139 -80 -160 -136 -16 -42 -3 -138 23 -171
38 -49 110 -74 213 -74 81 0 98 3 144 28 63 32 90 76 90 142 -1 92 -71 188
-153 209 -51 12 -119 13 -157 2z"/>
</g>
</svg>
