<?xml version="1.0" standalone="no"?>
<!DOCTYPE svg PUBLIC "-//W3C//DTD SVG 20010904//EN"
 "http://www.w3.org/TR/2001/REC-SVG-20010904/DTD/svg10.dtd">
<svg version="1.0" xmlns="http://www.w3.org/2000/svg"
 width="2400.000000pt" height="2400.000000pt" viewBox="0 0 2400.000000 2400.000000"
 preserveAspectRatio="xMidYMid meet">

<g transform="translate(0.000000,2400.000000) scale(0.100000,-0.100000)"
fill="#000000" stroke="none">
<path d="M13850 21875 c-29 -35 -13 -101 51 -216 34 -60 94 -184 134 -276 87
-202 131 -291 197 -397 112 -180 269 -351 454 -493 l29 -22 -40 4 c-75 10
-369 25 -472 25 l-103 0 0 46 c0 55 -15 89 -75 169 -144 191 -353 342 -640
459 -60 24 -213 76 -340 116 -126 39 -275 86 -331 105 -116 40 -149 43 -164
16 -13 -26 -13 -97 1 -124 11 -19 199 -261 322 -412 138 -169 283 -291 444
-371 l83 -41 -128 -12 c-70 -7 -194 -24 -276 -36 -151 -24 -179 -24 -169 0 16
43 -150 285 -293 429 -142 141 -270 235 -499 368 -260 151 -661 358 -692 358
-27 0 -53 -31 -59 -71 -5 -31 8 -53 137 -239 78 -113 169 -239 202 -280 74
-92 232 -256 307 -319 l55 -46 -235 0 c-136 0 -273 -6 -325 -13 -102 -15 -471
-107 -490 -122 -6 -5 -20 -28 -30 -50 -14 -31 -16 -45 -8 -63 12 -25 219 -153
334 -207 82 -38 262 -84 393 -100 130 -17 389 -7 516 19 52 10 96 18 97 17 1
-1 -25 -24 -59 -51 -84 -70 -214 -208 -288 -307 -66 -88 -195 -299 -267 -436
-48 -92 -56 -153 -25 -191 l17 -22 180 31 c364 62 485 114 654 282 204 202
342 474 396 787 9 47 17 86 19 88 9 9 190 28 556 58 l65 5 -58 -51 c-32 -28
-86 -88 -122 -133 -77 -100 -300 -442 -327 -504 -25 -55 -20 -124 10 -154 l20
-20 181 29 c163 27 190 35 273 75 51 25 129 72 173 105 97 74 267 247 319 326
50 76 110 206 132 285 l17 62 71 0 c97 0 445 -19 476 -26 22 -5 16 -10 -48
-43 -93 -49 -128 -76 -235 -180 -113 -109 -149 -156 -339 -431 -86 -124 -181
-254 -213 -289 -31 -35 -61 -74 -66 -88 -12 -31 -1 -98 20 -124 16 -19 19 -18
241 26 321 64 404 95 583 218 297 203 477 480 502 775 l8 82 36 -6 c284 -48
668 -151 840 -226 l46 -20 -74 -19 c-154 -39 -344 -146 -640 -359 -97 -70
-211 -150 -253 -178 -94 -63 -108 -82 -108 -145 0 -91 -3 -90 270 -136 406
-69 597 -49 873 91 245 125 398 274 453 442 9 28 18 52 19 53 3 5 205 -106
315 -172 153 -92 428 -291 417 -301 -2 -2 -32 6 -67 17 -136 42 -311 35 -472
-20 -173 -60 -239 -98 -483 -276 -99 -72 -208 -150 -242 -174 -53 -35 -63 -46
-63 -70 0 -58 19 -67 205 -90 94 -11 240 -30 325 -42 195 -26 451 -29 556 -6
243 54 462 207 505 351 7 25 16 46 20 46 10 0 218 -226 354 -385 209 -245 319
-363 338 -364 12 -1 23 12 33 35 14 35 14 38 -10 74 -72 109 -310 394 -445
532 -62 64 -72 79 -62 92 9 11 9 16 0 22 -8 4 6 13 35 21 173 51 346 461 346
820 0 154 -47 412 -105 572 -41 114 -212 474 -232 489 -20 14 -66 8 -100 -14
-13 -8 -39 -47 -59 -87 -20 -39 -75 -142 -122 -227 -205 -371 -272 -571 -272
-810 0 -119 18 -221 58 -324 29 -73 29 -75 8 -59 -198 156 -430 312 -601 403
l-80 43 36 36 c57 58 83 167 83 351 0 213 -42 383 -149 605 -87 179 -178 306
-452 624 -208 241 -220 248 -311 195 -72 -42 -74 -54 -62 -336 27 -634 91
-911 264 -1145 25 -35 44 -63 41 -63 -2 0 -49 17 -102 39 -224 89 -525 174
-783 221 l-115 21 -1 82 c-1 99 -37 253 -105 454 -141 413 -338 686 -584 810
-98 50 -158 69 -306 98 -150 29 -250 33 -269 10z"/>
<path d="M9588 21050 c-147 -25 -239 -82 -278 -172 -32 -74 -26 -194 13 -261
72 -123 176 -187 303 -187 61 0 68 2 98 33 44 43 70 115 61 164 -7 41 -80 123
-109 123 -23 0 -31 -27 -16 -55 11 -20 10 -28 -4 -50 -9 -14 -31 -35 -49 -46
-41 -26 -125 -22 -165 8 -24 18 -27 28 -30 84 -5 98 34 176 106 213 116 60
396 38 497 -38 83 -64 88 -272 9 -427 -72 -144 -289 -299 -604 -434 l-81 -35
-15 35 c-8 19 -14 38 -14 43 0 25 -86 137 -137 177 -69 55 -186 116 -269 141
-98 30 -242 24 -484 -20 -113 -21 -215 -44 -227 -52 -29 -18 -31 -76 -4 -120
10 -17 56 -57 102 -89 45 -32 145 -107 221 -167 77 -59 153 -115 170 -124 17
-9 26 -19 22 -23 -5 -5 -65 -23 -134 -40 -69 -18 -132 -34 -142 -37 -12 -4
-21 10 -38 62 -34 107 -68 164 -139 235 -48 48 -89 77 -151 108 -136 67 -187
73 -524 64 -328 -9 -320 -7 -297 -85 10 -34 33 -63 119 -146 179 -173 303
-281 384 -335 42 -28 75 -54 73 -57 -9 -14 -277 -102 -284 -94 -5 5 -16 29
-25 54 -70 185 -252 299 -528 331 -112 13 -158 10 -468 -28 -234 -28 -246 -32
-234 -88 12 -55 35 -86 87 -118 29 -18 128 -83 221 -145 190 -127 288 -180
394 -212 40 -12 72 -24 72 -26 0 -2 -37 -22 -82 -45 -46 -23 -121 -63 -168
-90 -47 -26 -91 -49 -98 -51 -8 -2 -20 17 -31 49 -26 76 -66 128 -132 172
-146 98 -369 124 -612 71 -109 -23 -556 -138 -584 -150 -28 -11 -31 -56 -8
-100 12 -24 28 -33 88 -51 39 -12 160 -54 268 -95 247 -93 357 -122 514 -137
l125 -12 -136 -109 c-75 -60 -172 -140 -214 -177 -43 -38 -81 -69 -86 -69 -4
0 -28 13 -53 29 -203 130 -504 158 -743 68 -116 -44 -227 -126 -389 -288 -103
-102 -113 -118 -94 -146 26 -38 77 -52 220 -63 76 -6 170 -15 209 -21 81 -11
347 -14 389 -4 15 4 27 3 27 -2 0 -5 -32 -45 -71 -88 -40 -44 -112 -129 -162
-190 -54 -65 -97 -109 -106 -108 -9 1 -45 9 -81 17 -178 42 -470 -5 -664 -107
-90 -46 -243 -148 -311 -207 -93 -80 -315 -313 -315 -331 0 -16 34 -67 55 -81
14 -11 181 -10 372 2 233 14 407 51 522 109 24 13 44 21 46 19 2 -2 -34 -70
-79 -153 l-82 -150 -95 3 c-268 10 -481 -99 -884 -453 -60 -53 -167 -142 -237
-197 -142 -111 -147 -121 -100 -178 l29 -34 139 26 c76 15 227 41 334 58 295
47 446 90 530 150 17 12 30 17 30 11 0 -6 -20 -70 -46 -143 -52 -153 -100
-337 -110 -420 l-7 -58 -39 0 c-22 0 -76 -9 -120 -20 -369 -95 -714 -364 -863
-675 -56 -116 -101 -239 -110 -297 -6 -42 -5 -47 25 -71 52 -45 76 -38 329 88
257 128 354 183 455 262 38 29 71 51 73 49 2 -2 -2 -48 -8 -102 -24 -199 3
-444 67 -621 31 -86 59 -115 110 -117 38 -1 38 -1 106 114 82 137 142 260 174
354 27 79 54 211 54 265 0 21 3 41 6 44 4 4 29 -12 55 -34 64 -53 183 -121
354 -201 269 -127 341 -153 382 -137 24 9 25 12 19 59 -26 197 -141 430 -310
624 -156 181 -482 424 -604 451 -17 3 -32 12 -32 19 0 41 195 556 211 556 4 0
31 -30 60 -66 68 -86 195 -191 362 -301 72 -47 195 -135 272 -193 77 -59 150
-112 162 -119 35 -18 61 -13 79 15 15 22 16 44 11 162 -15 333 -101 577 -282
805 -111 140 -206 222 -360 313 -17 9 -14 18 40 110 102 174 198 324 206 324
5 0 11 -12 15 -27 67 -310 298 -609 579 -751 107 -53 168 -61 180 -21 13 39
-79 560 -120 679 -67 198 -194 353 -345 423 -36 17 -67 32 -69 33 -10 8 297
362 406 467 l40 38 6 -103 c6 -116 39 -242 88 -341 17 -34 74 -123 127 -197
53 -74 107 -152 121 -173 34 -49 120 -94 151 -77 20 11 21 16 15 103 -5 69 -1
132 15 252 23 170 22 246 -5 377 -33 156 -109 328 -175 396 -23 23 -40 47 -38
51 8 21 356 307 364 299 3 -3 -3 -43 -12 -89 -23 -112 -14 -213 36 -447 60
-274 53 -257 105 -282 24 -12 52 -19 62 -16 10 3 33 34 51 69 18 35 74 126
125 204 101 152 131 217 148 321 21 133 -17 385 -76 489 -14 25 -25 47 -25 49
0 7 241 146 246 141 3 -3 -2 -29 -10 -58 -23 -82 -38 -225 -31 -309 7 -100 46
-479 51 -507 5 -26 84 -67 113 -58 11 3 34 32 52 63 17 31 66 107 107 167 94
138 175 304 202 415 45 191 37 320 -31 487 -7 18 -10 35 -7 39 11 10 302 134
306 129 2 -2 -17 -33 -42 -69 -95 -140 -116 -263 -99 -592 6 -115 14 -216 18
-225 3 -9 24 -25 46 -35 50 -22 58 -18 125 69 28 37 101 124 162 194 222 256
273 345 291 508 11 94 -2 186 -32 245 l-25 49 31 10 c58 19 279 72 283 68 2
-2 -14 -27 -36 -55 -51 -69 -97 -189 -109 -292 -13 -103 4 -557 21 -578 18
-22 65 -42 96 -42 25 0 54 26 192 173 206 218 272 294 327 379 109 169 157
374 118 503 -8 27 -13 50 -12 51 18 14 92 42 197 74 185 57 405 149 518 216
211 125 312 287 312 501 0 257 -159 471 -380 513 -61 12 -203 11 -272 0z"/>
<path d="M19383 18410 c-37 -22 -39 -28 -89 -268 -66 -314 -85 -442 -91 -600
l-6 -152 -86 84 c-102 101 -139 131 -246 201 -161 106 -401 204 -464 190 -40
-9 -81 -42 -81 -66 0 -24 109 -297 156 -392 60 -121 144 -238 236 -329 85 -86
87 -88 60 -94 -58 -12 -139 -36 -187 -54 -150 -56 -577 -281 -632 -333 -58
-54 -44 -75 91 -137 142 -66 263 -94 466 -110 206 -15 414 11 720 90 119 31
281 103 314 139 l19 21 24 -33 c63 -84 333 -529 333 -548 0 -3 -57 -9 -127
-12 -154 -6 -233 -24 -517 -117 -116 -38 -267 -83 -336 -100 -69 -17 -146 -38
-171 -46 -57 -18 -93 -54 -84 -83 18 -58 278 -234 462 -314 180 -77 317 -108
508 -114 227 -8 404 20 547 84 50 22 61 24 69 12 24 -37 202 -509 195 -516 -2
-3 -21 4 -43 15 -59 30 -180 72 -258 89 -96 21 -339 28 -448 14 -234 -31 -508
-159 -495 -230 8 -41 520 -315 702 -376 233 -78 455 -67 621 31 25 14 47 25
49 23 20 -23 154 -734 140 -748 -2 -2 -28 19 -58 46 -92 84 -277 167 -431 192
-33 6 -164 15 -291 21 l-231 12 -50 -26 c-48 -24 -63 -41 -63 -70 0 -7 33 -35
73 -62 39 -27 140 -114 222 -194 170 -165 259 -227 422 -290 155 -61 261 -83
365 -77 l86 4 6 -101 c9 -173 18 -456 13 -456 -2 0 -16 18 -31 41 -78 117
-218 216 -466 329 -74 33 -159 74 -187 90 -62 35 -81 37 -134 10 -62 -32 -67
-55 -30 -129 18 -34 58 -141 91 -237 67 -197 104 -275 167 -344 120 -133 386
-284 517 -292 55 -4 53 9 26 -183 -11 -77 -20 -143 -20 -148 0 -5 -21 20 -47
54 -99 131 -225 234 -468 380 -66 40 -153 94 -194 122 -64 42 -77 48 -107 42
-19 -3 -49 -19 -67 -35 -37 -33 -42 -10 58 -295 109 -311 176 -434 310 -570
114 -115 262 -203 373 -221 23 -4 42 -12 42 -18 0 -11 -68 -283 -88 -351 -10
-35 -15 -27 -32 45 -7 30 -27 87 -46 127 -58 122 -170 223 -498 452 -102 71
-123 82 -148 77 -39 -8 -88 -43 -88 -64 0 -9 15 -80 34 -157 19 -77 47 -205
61 -285 31 -167 81 -328 127 -409 17 -31 66 -90 108 -132 88 -87 177 -137 252
-141 27 -2 48 -5 48 -8 1 -11 -145 -340 -150 -340 -4 0 -11 26 -18 58 -15 71
-68 176 -129 253 -53 68 -120 124 -323 270 -80 57 -164 118 -188 136 -51 38
-69 40 -122 13 -75 -38 -74 -30 -25 -347 25 -155 53 -322 64 -370 45 -204 132
-375 250 -493 62 -61 158 -120 196 -120 11 0 15 -6 11 -17 -2 -10 -8 -33 -11
-52 -4 -18 -29 -91 -56 -160 -116 -306 -173 -547 -173 -736 0 -105 4 -130 28
-200 83 -240 303 -408 556 -423 156 -9 271 33 379 139 74 71 166 209 206 305
37 88 41 197 10 259 -29 60 -98 123 -171 157 -62 29 -70 30 -167 26 -120 -5
-179 -29 -254 -104 -81 -81 -90 -147 -32 -238 39 -63 80 -86 151 -86 45 0 62
5 84 23 32 28 26 43 -19 55 -26 7 -34 16 -46 51 -19 59 -2 110 51 162 54 52
81 58 135 29 84 -44 149 -156 140 -237 -9 -86 -71 -189 -176 -294 -149 -149
-219 -172 -341 -112 -118 58 -220 181 -263 318 -19 61 -22 92 -22 245 1 186 9
243 66 475 16 66 31 125 34 132 3 9 19 7 62 -9 84 -31 222 -31 323 1 158 48
300 142 389 253 52 67 287 498 297 545 7 37 -25 67 -87 84 -44 12 -55 10 -185
-29 -77 -23 -202 -57 -279 -76 -77 -20 -167 -44 -199 -56 -33 -11 -61 -18 -63
-16 -3 2 26 75 63 161 54 124 71 154 83 149 163 -66 304 -81 436 -45 89 25
183 72 264 134 59 45 134 135 230 274 33 49 99 135 146 193 47 57 85 112 85
122 0 22 -44 56 -91 68 -30 8 -65 6 -156 -9 -65 -11 -179 -29 -253 -41 -157
-24 -341 -70 -400 -100 -28 -14 -40 -17 -37 -8 3 7 29 84 58 171 48 146 53
158 73 153 152 -44 258 -46 373 -6 187 65 370 234 521 482 74 120 185 307 216
360 l21 37 -25 25 c-14 14 -46 31 -72 37 -44 12 -51 11 -150 -26 -56 -21 -183
-64 -281 -96 -203 -66 -335 -126 -424 -193 -35 -25 -63 -43 -63 -38 0 4 13 86
29 182 16 96 32 196 35 221 l7 46 65 -23 c118 -43 234 -25 370 57 116 70 261
245 349 420 19 37 62 134 96 215 34 82 88 207 120 279 33 71 59 137 59 147 0
24 -40 49 -89 55 -36 5 -47 0 -118 -50 -43 -31 -152 -100 -241 -154 -292 -177
-427 -284 -526 -417 -28 -36 -51 -64 -52 -63 -1 1 -4 147 -7 324 l-6 322 37
12 c169 55 364 206 471 365 140 209 176 411 135 764 -24 214 -29 224 -106 201
-33 -10 -60 -31 -118 -94 -41 -45 -127 -135 -191 -202 -127 -132 -220 -245
-271 -330 -18 -30 -35 -55 -38 -55 -3 0 -13 46 -23 103 -10 56 -33 172 -52
257 -20 85 -38 166 -41 180 -4 21 1 28 31 44 49 27 167 152 222 238 61 94 128
239 157 341 63 216 77 499 38 757 -11 74 -23 160 -27 190 -9 83 -24 100 -88
100 -65 0 -64 1 -214 -210 -227 -320 -318 -493 -347 -664 l-12 -69 -19 49
c-10 27 -46 111 -81 187 l-63 139 68 78 c103 119 157 234 198 422 21 97 23
362 9 876 -9 300 -10 314 -30 328 -29 20 -99 18 -118 -3 -8 -10 -40 -67 -70
-128 -30 -60 -107 -205 -171 -322 -170 -309 -221 -436 -234 -570 l-6 -61 -76
119 c-103 161 -212 307 -295 396 l-69 74 21 22 c12 12 34 52 50 87 161 356
191 769 81 1110 -41 124 -182 378 -252 453 -32 33 -77 36 -124 7z"/>
<path d="M10248 17430 c-46 -8 -64 -23 -89 -72 -82 -160 -158 -770 -189 -1503
-6 -143 -13 -297 -16 -341 l-6 -82 -76 -27 c-126 -44 -257 -102 -445 -196
-115 -57 -179 -84 -182 -76 -2 7 -6 41 -10 77 -24 245 -89 663 -194 1245 -38
209 -74 412 -81 452 -13 81 -28 100 -91 114 -86 20 -173 -13 -211 -77 -31 -53
-58 -181 -69 -330 -14 -175 -3 -393 45 -984 19 -228 40 -487 46 -575 5 -88 12
-180 15 -205 l5 -45 -57 -34 c-32 -19 -144 -87 -248 -151 -613 -376 -944 -532
-1208 -569 -127 -18 -217 17 -318 125 -25 27 -57 69 -72 94 -63 109 -117 345
-117 517 0 149 48 433 96 568 40 112 40 111 6 129 -36 19 -81 20 -137 5 -126
-34 -297 -328 -355 -610 -28 -135 -24 -358 9 -484 75 -286 282 -473 586 -530
132 -25 391 -16 535 18 305 72 634 230 1129 541 84 53 156 94 160 91 10 -11 4
-533 -8 -680 -35 -410 -105 -718 -233 -1015 -178 -416 -448 -738 -700 -834
l-47 -18 -51 32 c-66 43 -141 126 -194 217 -122 208 -168 550 -107 786 74 284
293 583 504 687 102 51 143 58 201 36 111 -42 208 -227 192 -364 -13 -106 -85
-223 -197 -319 -70 -60 -81 -65 -118 -52 -37 13 -94 5 -111 -16 -18 -22 14
-61 66 -81 81 -31 195 -5 302 68 83 56 202 179 233 240 128 253 -25 579 -299
637 -128 27 -296 4 -430 -59 -240 -112 -499 -400 -625 -696 -142 -330 -139
-737 6 -1019 52 -101 165 -218 252 -262 120 -61 186 -75 360 -80 231 -7 381
25 575 122 376 189 689 616 873 1190 65 203 112 461 138 755 16 182 15 613 -1
840 -8 102 -14 198 -14 215 -1 27 8 35 124 103 114 66 541 285 545 279 1 -1
-2 -186 -7 -412 -14 -626 3 -1300 42 -1640 10 -93 31 -273 45 -400 55 -492 76
-554 200 -590 91 -27 228 -7 256 38 18 27 21 332 20 1679 l-1 1467 42 6 c103
14 314 24 385 18 63 -4 86 -2 111 11 50 26 38 63 -30 92 -36 15 -80 18 -275
22 l-233 4 0 227 c0 294 -17 930 -30 1141 -14 213 -37 419 -54 467 -21 62 -82
88 -168 73z"/>
<path d="M11573 15810 c-144 -72 -433 -385 -577 -623 -164 -272 -256 -610
-256 -937 0 -170 19 -303 67 -459 120 -397 322 -571 663 -571 288 0 491 124
732 447 264 355 447 751 526 1141 l27 133 70 24 c39 13 73 24 76 25 4 0 -15
-55 -43 -122 -102 -253 -189 -554 -239 -833 -30 -163 -32 -437 -5 -540 38
-144 86 -224 164 -274 79 -50 147 -64 292 -59 127 4 128 4 215 47 73 36 107
62 202 155 89 85 216 226 249 275 2 2 15 -6 31 -17 49 -34 128 -70 190 -86 80
-21 275 -21 363 -1 84 20 206 81 295 147 78 58 341 318 666 657 499 523 902
838 1344 1055 266 131 442 185 626 193 219 10 371 -47 519 -196 128 -130 187
-247 212 -421 47 -334 -205 -742 -538 -872 -154 -59 -279 -60 -398 -2 -159 78
-217 246 -141 412 29 64 117 152 200 202 51 30 68 35 120 35 74 -1 178 -44
173 -72 -5 -27 46 -41 80 -22 43 24 41 61 -5 90 -94 61 -140 74 -268 74 -107
0 -127 -3 -183 -26 -159 -68 -280 -171 -334 -285 -30 -64 -33 -77 -33 -169 0
-87 3 -106 25 -149 50 -97 189 -193 340 -233 105 -28 317 -23 445 11 303 79
543 289 661 580 53 133 67 205 67 341 -1 147 -23 238 -88 363 -124 240 -352
399 -635 443 -115 17 -383 7 -500 -20 -292 -68 -627 -220 -960 -439 -354 -231
-554 -412 -1265 -1143 -121 -124 -252 -251 -291 -282 -151 -121 -258 -167
-335 -147 -53 14 -133 93 -174 172 l-28 55 45 64 c152 215 330 571 390 779 27
94 30 237 6 291 -25 58 -74 106 -125 123 -60 21 -196 21 -254 1 -160 -57 -286
-230 -384 -528 -60 -183 -79 -305 -73 -470 4 -115 9 -145 38 -229 l32 -98 -60
-68 c-144 -162 -365 -349 -382 -322 -27 43 -30 359 -6 555 20 159 66 432 111
665 71 362 78 431 50 496 -21 50 -85 77 -186 77 -75 0 -81 -2 -211 -67 -73
-36 -136 -66 -140 -66 -5 0 -8 28 -8 63 -1 182 -78 318 -199 347 -138 33 -285
-42 -358 -181 -37 -72 -39 -182 -6 -245 48 -91 167 -154 289 -154 65 0 65 3
25 -141 -111 -393 -339 -777 -646 -1085 -97 -97 -209 -185 -289 -226 l-38 -20
-29 28 c-82 79 -202 401 -238 640 -17 114 -24 321 -13 426 9 94 10 98 43 124
79 63 279 276 339 362 196 279 296 596 231 738 -25 55 -67 74 -163 74 -63 0
-84 -5 -135 -30z m124 -177 c-10 -119 -71 -262 -185 -434 -80 -122 -174 -238
-180 -221 -7 21 76 248 128 353 66 131 219 369 237 369 3 0 3 -30 0 -67z m843
-278 c28 -58 41 -162 32 -250 l-7 -70 -33 1 c-79 4 -127 81 -120 193 3 55 9
76 37 119 42 65 62 67 91 7z m1631 -373 c30 -92 -8 -256 -107 -459 -52 -107
-174 -317 -196 -338 -7 -7 -9 30 -4 120 12 271 115 599 223 710 33 34 36 35
54 19 10 -9 23 -32 30 -52z"/>
<path d="M3685 13098 c-36 -52 -81 -249 -113 -498 l-17 -133 -53 -13 c-74 -19
-135 -57 -220 -138 -130 -124 -195 -240 -374 -671 -142 -341 -135 -322 -118
-340 13 -13 30 -10 140 20 240 65 356 129 503 278 l87 88 0 -128 c0 -127 14
-408 25 -534 l7 -65 -41 -12 c-62 -19 -183 -105 -252 -180 -128 -139 -240
-345 -344 -637 -32 -88 -91 -252 -132 -365 -40 -112 -71 -210 -69 -217 8 -19
44 -16 74 6 15 10 95 55 177 101 323 177 525 334 640 498 17 23 32 42 35 42 3
0 15 -60 28 -133 13 -72 39 -203 58 -290 19 -87 34 -165 34 -173 0 -8 -10 -14
-23 -14 -124 0 -294 -171 -389 -392 -53 -123 -83 -229 -128 -463 -22 -110 -59
-280 -82 -378 -38 -163 -40 -179 -26 -194 15 -14 20 -14 60 6 23 11 102 66
173 121 377 292 492 397 571 520 38 59 54 73 54 47 0 -7 31 -107 70 -223 38
-115 70 -210 70 -210 0 -1 -12 -5 -27 -9 -79 -19 -224 -155 -286 -267 -19 -35
-49 -102 -66 -150 -58 -166 -74 -291 -91 -693 -6 -137 -15 -300 -20 -362 -11
-127 -4 -163 32 -163 34 0 68 27 138 110 35 41 121 134 190 205 220 226 319
385 364 586 l23 104 15 -35 c8 -19 48 -103 87 -186 l73 -152 -51 -62 c-91
-114 -151 -266 -184 -470 -13 -79 -16 -179 -13 -603 2 -336 6 -511 13 -518 27
-27 116 56 257 240 203 265 262 404 290 676 l12 120 87 -158 c48 -86 87 -164
87 -173 0 -8 -11 -32 -25 -52 -65 -95 -89 -292 -52 -432 24 -88 106 -252 161
-322 58 -73 124 -124 277 -217 66 -41 162 -106 212 -146 122 -96 132 -101 163
-81 13 9 31 28 40 41 16 24 15 32 -5 128 -16 72 -25 163 -31 312 -5 117 -16
246 -25 290 -36 176 -121 332 -247 451 -112 106 -287 187 -366 169 -28 -6 -29
-5 -118 181 -49 102 -91 190 -93 196 -1 5 21 -9 50 -31 78 -59 152 -96 270
-135 184 -62 319 -67 569 -25 189 33 208 38 240 71 42 41 40 75 -7 120 -54 51
-427 338 -536 412 -264 179 -516 271 -722 264 -86 -3 -105 -6 -133 -27 -18
-13 -35 -22 -36 -20 -15 17 -226 532 -221 538 2 2 31 -21 65 -50 119 -105 235
-167 398 -211 116 -32 282 -30 492 5 198 33 215 39 257 79 61 59 52 73 -104
174 -150 97 -342 237 -541 396 -192 153 -325 236 -452 280 -135 47 -295 63
-337 33 -22 -15 -22 -14 -52 82 -16 54 -46 154 -66 223 -20 69 -38 131 -41
139 -2 7 23 -12 56 -42 110 -102 256 -175 485 -241 125 -35 363 -80 496 -92
l76 -7 41 37 c72 65 70 76 -54 239 -308 405 -496 580 -769 716 -194 97 -393
143 -463 108 -38 -18 -32 -34 -67 168 -14 83 -28 161 -31 174 -4 20 5 15 56
-32 126 -117 279 -208 425 -252 77 -23 379 -75 438 -75 20 0 40 11 62 33 63
63 63 63 -101 279 -181 237 -311 394 -395 474 -176 168 -367 262 -510 252
l-57 -4 -6 55 c-6 55 -20 293 -31 505 l-5 109 36 -49 c51 -68 168 -187 234
-238 110 -84 407 -246 453 -246 29 0 97 72 97 103 0 46 -60 291 -105 423 -56
170 -129 322 -212 448 -117 175 -388 426 -461 426 -22 0 -22 2 -17 63 18 203
35 426 35 454 0 39 -21 44 -45 11z"/>
<path d="M14041 12887 c-14 -6 -33 -27 -44 -44 -22 -38 -103 -321 -157 -552
-22 -90 -41 -165 -42 -167 -2 -2 -37 2 -78 7 -121 17 -323 7 -393 -20 -125
-49 -227 -139 -227 -201 0 -32 15 -40 74 -40 34 0 48 6 70 29 31 32 123 80
203 106 44 15 62 15 115 6 120 -21 203 -47 202 -62 -1 -8 -18 -108 -37 -224
-81 -471 -111 -759 -105 -1003 4 -160 9 -201 31 -285 52 -196 133 -315 240
-355 143 -53 302 -31 415 57 69 54 229 274 377 519 l50 82 8 -47 c18 -118 51
-271 63 -301 17 -42 64 -62 144 -62 75 0 124 20 143 57 8 15 36 84 62 153 64
169 129 304 205 430 77 128 172 259 177 243 2 -6 -3 -66 -12 -134 -9 -68 -19
-192 -22 -276 -9 -223 13 -311 96 -386 104 -94 322 -90 485 8 32 19 60 34 60
33 1 -2 9 -19 18 -38 50 -111 174 -223 281 -255 139 -41 349 14 489 128 73 60
141 153 209 283 52 102 53 105 35 119 -24 18 -116 20 -138 3 -8 -7 -47 -60
-86 -118 -88 -131 -175 -219 -261 -263 -104 -54 -112 -54 -161 -1 -68 74 -119
217 -120 336 0 43 5 52 56 110 153 171 306 402 372 560 65 155 78 347 29 419
-44 64 -68 74 -180 74 -90 0 -109 -3 -160 -27 -116 -54 -215 -177 -302 -375
-93 -211 -127 -373 -130 -618 l-3 -160 -72 -57 c-63 -48 -165 -108 -185 -108
-3 0 -16 21 -28 48 -20 42 -22 62 -21 202 1 85 9 225 19 310 34 311 23 394
-59 431 -61 28 -167 25 -231 -5 -107 -50 -332 -337 -447 -571 -18 -36 -35 -65
-38 -65 -7 0 -25 148 -36 285 l-6 80 68 125 c292 536 468 1144 399 1377 -18
61 -67 109 -121 119 -65 12 -159 -1 -207 -30 -120 -69 -267 -302 -347 -546
-17 -52 -38 -102 -46 -112 -23 -25 -164 -96 -246 -124 -91 -31 -121 -30 -242
3 l-98 28 6 90 c26 343 36 507 36 627 0 126 -2 138 -19 148 -27 14 -101 12
-130 -3z m1175 -384 c-14 -163 -75 -382 -180 -648 -46 -118 -51 -127 -54 -93
-9 109 65 455 133 623 37 90 91 195 102 195 3 0 3 -35 -1 -77z m-520 -635
c-22 -182 -28 -323 -22 -526 l6 -223 -86 -152 c-102 -177 -230 -382 -309 -494
-59 -84 -166 -211 -177 -212 -9 -1 -23 48 -45 159 -22 104 -24 460 -5 675 26
283 62 671 68 716 l5 46 67 -14 c103 -22 269 -13 358 19 39 14 84 33 100 41
44 24 47 21 40 -35z m1989 -313 c-14 -140 -64 -261 -182 -438 -94 -139 -95
-139 -64 21 36 185 116 389 193 491 l42 56 8 -35 c5 -19 6 -62 3 -95z"/>
<path d="M12409 11857 c-78 -27 -133 -63 -190 -124 -89 -97 -106 -209 -50
-329 l31 -67 -92 -171 c-199 -372 -422 -741 -504 -834 l-41 -46 -31 42 c-38
54 -85 165 -107 259 l-17 71 62 99 c84 134 190 354 239 496 129 378 82 551
-147 535 -151 -11 -268 -124 -367 -355 -87 -201 -120 -385 -111 -622 3 -91 8
-185 12 -208 l6 -41 -124 -126 c-69 -69 -130 -126 -136 -126 -44 0 -33 389 25
905 15 127 27 289 27 360 1 123 -1 133 -27 187 -39 80 -76 101 -189 106 -110
5 -160 -11 -216 -72 -83 -90 -174 -268 -243 -476 -32 -96 -48 -134 -49 -113 0
18 -9 101 -20 186 -39 306 -85 377 -245 377 -121 0 -168 -40 -247 -207 -41
-87 -131 -341 -165 -463 -9 -34 -10 -32 -32 60 -92 396 -98 411 -171 448 -59
31 -182 29 -227 -4 -22 -16 -131 -168 -182 -253 -7 -11 -19 -4 -57 35 -96 98
-202 139 -343 132 -115 -6 -174 -32 -245 -109 -124 -133 -157 -322 -76 -436
27 -40 28 -43 9 -43 -11 0 -33 -7 -49 -15 -30 -16 -34 -26 -49 -135 -5 -36
-27 -114 -49 -175 -115 -322 -281 -641 -451 -869 -82 -111 -207 -240 -222
-230 -21 13 -79 114 -109 189 -71 179 -139 507 -161 778 -15 196 -7 600 15
722 29 159 69 279 89 272 19 -6 77 -120 102 -201 14 -44 37 -143 50 -220 21
-124 27 -144 50 -163 30 -26 90 -31 120 -9 16 12 20 31 23 141 5 142 -8 241
-43 346 -72 211 -171 287 -360 277 -153 -8 -242 -76 -328 -252 -123 -250 -187
-580 -187 -968 0 -338 54 -642 147 -837 72 -148 217 -265 382 -307 96 -24 315
-16 394 15 121 48 243 199 367 456 68 139 178 408 220 537 l22 68 40 -61 c46
-69 118 -122 190 -140 27 -6 92 -10 150 -7 134 4 191 30 279 126 70 77 157
245 183 352 32 139 29 326 -7 468 l-14 52 56 70 56 69 3 -32 c21 -259 65 -511
107 -624 55 -147 107 -185 256 -191 80 -4 104 -1 142 16 75 33 78 43 132 378
45 283 167 728 186 677 4 -12 15 -106 23 -210 21 -245 58 -471 87 -536 16 -35
66 -57 128 -57 67 0 116 21 135 58 9 17 40 122 70 234 69 257 114 385 179 512
67 131 69 115 23 -170 -20 -121 -42 -291 -51 -378 -20 -213 -20 -495 1 -586
32 -142 112 -210 257 -218 141 -8 249 37 383 161 60 56 61 56 72 33 21 -47
123 -145 180 -173 51 -25 67 -28 162 -28 95 0 110 3 157 27 28 15 68 47 87 70
78 94 277 439 432 751 49 97 92 177 96 177 12 0 156 -180 220 -274 56 -84 123
-205 116 -210 -141 -100 -275 -215 -334 -290 -167 -210 -207 -461 -95 -597 71
-86 236 -134 387 -112 173 25 294 122 384 308 58 121 80 212 80 340 0 113 -19
215 -63 334 -18 47 -32 89 -32 92 0 4 88 76 195 160 245 193 340 270 365 299
20 22 20 22 0 37 -13 9 -34 13 -61 10 -43 -4 -87 -34 -431 -289 -74 -55 -136
-98 -137 -96 -1 1 -28 41 -58 88 -31 47 -110 152 -176 234 -66 83 -136 180
-156 217 -64 118 -58 211 19 296 47 53 61 53 137 3 60 -40 103 -106 129 -195
11 -38 24 -77 28 -85 12 -22 61 -33 95 -20 l29 11 -5 88 c-10 173 -105 300
-258 345 -80 24 -210 21 -291 -7z m-814 -229 c8 -57 -9 -163 -45 -269 -31 -94
-107 -268 -140 -320 l-21 -34 6 75 c15 179 55 355 106 468 31 68 65 122 79
122 5 0 12 -19 15 -42z m-3007 -296 c51 -50 112 -144 112 -174 0 -20 -95 -100
-154 -130 -70 -36 -92 -39 -113 -16 -15 16 -18 37 -18 112 0 80 4 97 29 146
39 75 65 110 81 110 8 0 36 -22 63 -48z m163 -424 c8 -209 -47 -384 -165 -527
-65 -79 -70 -80 -106 -24 -61 95 -115 279 -136 456 l-7 57 95 0 c103 0 188 18
258 54 25 13 48 24 53 25 4 0 8 -18 8 -41z m3999 -516 c24 -194 -32 -386 -150
-516 -67 -73 -95 -75 -154 -13 -48 49 -66 100 -66 184 0 156 86 308 255 448
l80 66 12 -42 c7 -24 18 -81 23 -127z"/>
<path d="M15015 9737 c-22 -8 -53 -22 -69 -32 -178 -117 -466 -815 -576 -1395
-12 -63 -24 -121 -26 -128 -3 -9 -23 3 -60 37 -68 62 -150 91 -258 91 -305 -1
-458 -215 -560 -781 -21 -115 -37 -167 -119 -374 -161 -406 -290 -688 -404
-880 l-47 -80 -13 44 c-44 151 -63 423 -64 920 0 295 -4 426 -12 450 -18 51
-66 73 -149 69 -104 -5 -112 -14 -173 -203 -51 -156 -332 -811 -445 -1036 -81
-159 -197 -339 -220 -339 -16 0 -30 101 -30 215 0 210 66 625 160 1005 28 113
53 234 57 270 5 60 3 68 -20 96 -57 67 -187 71 -326 10 -46 -20 -85 -35 -87
-33 -2 2 1 43 6 91 20 168 -20 336 -90 386 -107 76 -276 64 -367 -26 -81 -81
-143 -247 -143 -379 1 -141 60 -205 223 -239 l58 -12 -49 -81 c-78 -130 -219
-310 -327 -418 l-100 -100 -7 40 c-68 399 -174 652 -357 856 l-51 57 57 83
c79 118 155 280 212 455 69 209 95 347 95 509 -1 224 -46 347 -174 476 -80 81
-141 116 -252 146 -87 23 -297 23 -393 -1 -98 -24 -313 -133 -420 -213 -104
-78 -291 -257 -373 -356 l-55 -68 -37 104 c-20 57 -62 156 -92 219 -161 336
-296 448 -538 448 -161 0 -269 -49 -406 -185 -278 -277 -496 -803 -482 -1165
6 -137 28 -204 90 -274 77 -89 212 -130 356 -108 198 29 329 158 387 382 26
101 31 321 11 460 -27 183 -64 343 -83 358 -20 15 -97 16 -123 2 -27 -14 -38
-65 -50 -217 -5 -73 -15 -195 -20 -270 -16 -207 -60 -389 -116 -480 -25 -39
-76 -93 -89 -93 -19 0 -63 53 -87 105 -30 68 -37 234 -13 360 51 277 229 630
420 833 78 83 155 142 186 142 28 0 96 -88 143 -185 105 -216 171 -456 211
-767 l15 -116 -79 -157 c-198 -391 -328 -787 -400 -1211 -82 -487 -73 -980 24
-1319 51 -178 120 -282 223 -332 48 -23 72 -28 158 -31 152 -6 237 27 323 124
195 222 310 1002 272 1844 -19 419 -48 722 -97 1028 -13 84 -24 159 -24 166 0
15 132 194 234 316 202 243 462 449 645 510 117 39 208 -2 293 -134 121 -187
115 -465 -18 -847 -42 -121 -89 -225 -145 -325 l-40 -70 -72 13 c-97 17 -257
16 -341 -2 -165 -35 -266 -126 -266 -240 0 -88 44 -149 140 -193 47 -22 73
-27 173 -30 142 -5 224 11 340 68 l77 39 15 -22 c62 -96 148 -324 183 -487 36
-165 55 -434 34 -466 -8 -13 -91 -50 -302 -134 -355 -141 -508 -253 -586 -426
-21 -46 -28 -79 -32 -152 -4 -88 -3 -96 27 -157 36 -72 77 -110 171 -154 176
-83 454 -63 634 46 118 72 248 218 319 359 64 127 131 369 144 521 7 83 4 79
100 145 90 63 212 170 275 241 129 147 265 340 332 475 26 51 42 72 55 72 11
0 48 9 82 20 35 10 65 18 66 16 2 -2 -24 -77 -58 -167 -92 -249 -155 -478
-215 -794 -37 -192 -39 -371 -6 -466 31 -90 72 -151 129 -193 75 -54 135 -69
266 -64 174 6 236 44 348 212 102 151 174 306 269 575 l47 134 7 -124 c15
-281 41 -413 106 -546 66 -135 143 -183 290 -183 99 0 168 32 222 104 71 95
238 451 344 729 l52 139 12 -39 c40 -121 136 -271 227 -353 181 -161 446 -185
622 -55 l60 44 31 -55 c45 -78 120 -150 187 -182 48 -22 75 -27 163 -30 122
-5 197 15 285 74 49 32 135 116 181 176 l21 27 64 -63 c82 -80 146 -106 257
-106 134 0 192 41 292 205 68 114 270 531 385 800 104 241 329 753 396 903 38
84 35 93 -38 99 -88 8 -86 11 -225 -268 -69 -140 -174 -357 -233 -484 -146
-314 -331 -688 -403 -816 -71 -127 -163 -269 -174 -269 -21 0 -127 231 -128
277 0 12 31 87 70 166 205 423 283 788 214 1000 -22 66 -62 103 -130 118 -146
33 -262 -44 -357 -236 -155 -314 -199 -789 -101 -1088 l16 -48 -43 -57 c-96
-126 -254 -272 -296 -272 -21 0 -71 88 -98 171 -27 85 -48 202 -65 354 l-11
100 54 140 c93 238 337 996 428 1328 94 345 141 582 159 817 19 243 -16 407
-98 454 -42 23 -144 30 -197 13z m79 -322 c-1 -77 -6 -178 -13 -225 -39 -274
-141 -668 -310 -1195 -118 -369 -112 -359 -106 -185 18 462 114 993 261 1439
30 90 75 204 101 253 59 116 68 105 67 -87z m-955 -1289 c33 -30 104 -131 136
-195 l27 -54 -12 -153 c-16 -195 -8 -647 14 -793 l16 -104 -37 -68 c-46 -85
-124 -191 -157 -213 -24 -15 -26 -14 -61 23 -86 90 -141 207 -176 371 -19 88
-22 137 -23 300 -1 393 80 812 177 918 19 21 22 21 46 6 14 -9 37 -26 50 -38z
m-2800 -180 c6 -33 11 -79 11 -102 0 -38 -27 -214 -34 -221 -2 -2 -10 -1 -19
3 -39 15 -58 135 -37 234 16 70 52 162 61 153 4 -4 12 -35 18 -67z m4255 -181
c0 -132 -19 -238 -65 -377 -41 -121 -102 -264 -107 -250 -8 24 18 307 38 422
25 145 53 248 86 313 24 46 27 49 38 31 7 -11 11 -66 10 -139z m-5644 91 c19
-7 36 -19 38 -28 6 -30 -159 -148 -207 -148 -37 0 -61 28 -61 69 0 95 115 148
230 107z m-1153 -771 c-5 -524 -12 -651 -58 -1025 -23 -187 -59 -378 -82 -430
l-15 -35 -40 85 c-46 99 -74 201 -98 355 -23 150 -23 517 0 710 39 318 126
683 235 975 l46 125 8 -125 c4 -69 6 -354 4 -635z m1568 -672 c-13 -73 -68
-229 -107 -308 -77 -152 -188 -281 -285 -328 -43 -21 -44 -21 -80 -2 -20 11
-48 37 -62 59 -23 35 -26 50 -26 125 0 74 4 94 28 143 32 66 118 150 204 199
44 26 311 145 332 148 2 1 0 -16 -4 -36z"/>
<path d="M12600 8399 c-38 -15 -58 -37 -85 -95 -39 -82 -29 -166 25 -227 26
-30 33 -32 107 -35 69 -3 82 -1 113 20 124 84 132 285 14 334 -38 16 -137 18
-174 3z"/>
<path d="M19564 7704 c-38 -32 -113 -90 -166 -130 -159 -121 -232 -204 -284
-321 l-25 -56 -45 64 c-25 35 -74 109 -109 164 -35 55 -74 106 -86 114 -36 22
-132 27 -151 7 -19 -18 -68 -144 -105 -266 -34 -113 -43 -295 -19 -390 18 -70
83 -215 116 -258 52 -67 139 -145 191 -171 l57 -28 -63 -101 c-112 -180 -394
-577 -403 -568 -1 2 -7 30 -12 62 -19 115 -200 673 -226 695 -19 16 -85 29
-111 23 -16 -4 -28 -22 -42 -60 -31 -80 -80 -175 -164 -312 -187 -307 -223
-551 -118 -803 31 -73 94 -175 124 -200 18 -15 7 -27 -223 -252 -134 -130
-246 -237 -251 -237 -4 0 -3 15 2 32 14 50 11 167 -7 233 -8 33 -40 122 -70
197 -69 175 -82 225 -96 378 -13 138 -21 154 -82 166 -60 11 -79 -1 -138 -83
-259 -363 -306 -441 -333 -554 -32 -139 -10 -302 62 -449 29 -60 57 -96 140
-179 56 -56 103 -105 103 -107 0 -5 -188 -155 -315 -250 -139 -105 -345 -248
-345 -240 0 3 7 31 15 63 19 74 19 173 0 248 -9 33 -47 125 -84 205 -83 174
-85 181 -112 345 -12 72 -25 140 -30 153 -17 45 -122 69 -151 35 -8 -10 -36
-58 -63 -107 -26 -49 -79 -137 -117 -195 -197 -301 -226 -485 -114 -726 34
-72 81 -138 174 -243 l52 -60 -112 -65 c-226 -129 -418 -217 -553 -252 -94
-24 -108 -38 -64 -60 46 -24 142 -14 273 29 l103 33 18 -41 c23 -52 153 -180
228 -225 74 -44 196 -84 339 -113 145 -29 438 -31 588 -5 172 30 270 68 270
106 0 31 -42 57 -180 111 -74 29 -235 103 -358 166 -227 116 -329 155 -452
175 l-69 12 112 66 c62 37 185 113 275 170 l162 102 41 -34 c61 -52 191 -114
304 -144 88 -24 119 -27 260 -27 199 0 280 18 469 105 72 34 187 81 256 105
221 78 257 102 214 145 -23 22 -543 212 -673 246 -53 13 -138 27 -190 31 l-93
7 83 70 c46 39 139 118 206 178 l122 107 45 -34 c125 -95 400 -140 653 -105
108 14 257 67 356 125 88 53 281 234 312 293 15 31 15 34 -1 52 -23 26 -70 36
-194 44 -58 3 -168 13 -245 22 -173 19 -367 13 -472 -15 l-72 -20 188 197
c104 108 223 236 266 284 48 54 83 86 92 83 92 -36 270 -60 383 -52 345 24
532 94 716 269 119 113 254 308 254 366 0 11 -10 27 -22 35 -46 28 -86 27
-189 -4 -115 -34 -245 -60 -449 -89 -148 -22 -310 -53 -344 -66 -11 -5 5 25
44 81 93 133 277 419 309 481 l12 23 53 -30 c129 -73 348 -92 522 -46 194 52
340 132 473 260 64 62 263 313 277 350 8 21 -34 54 -77 61 -21 4 -67 4 -101 1
-35 -4 -154 -11 -265 -17 -111 -5 -241 -16 -290 -23 -48 -7 -89 -13 -90 -12
-1 1 9 32 23 70 13 37 31 107 39 154 17 102 39 415 30 441 -7 23 -47 41 -89
41 -26 0 -49 -13 -102 -56z"/>
<path d="M6090 5260 c-260 -40 -473 -272 -473 -515 0 -65 5 -94 30 -156 57
-145 199 -316 299 -361 62 -27 150 -22 218 12 106 54 182 187 179 317 -1 74
-46 181 -87 208 -58 38 -167 26 -215 -23 -32 -33 -56 -101 -47 -136 8 -33 29
-33 54 -1 23 29 46 31 101 9 29 -11 45 -27 65 -63 37 -70 35 -112 -9 -145 -71
-55 -174 -72 -241 -40 -105 50 -244 295 -244 431 0 55 18 89 69 136 90 81 217
122 351 114 164 -9 379 -112 648 -309 l53 -39 -30 -34 c-80 -92 -114 -196
-113 -350 1 -120 26 -227 77 -324 44 -83 346 -438 380 -447 29 -7 68 18 94 60
13 22 21 60 26 131 3 55 15 163 26 240 10 77 19 173 19 213 0 42 4 72 10 70 5
-1 56 -50 114 -106 l105 -104 -53 -64 c-102 -123 -136 -216 -136 -369 0 -157
36 -255 169 -459 44 -66 104 -164 133 -216 63 -112 80 -120 132 -68 38 38 40
45 95 293 43 198 59 289 69 410 l7 80 45 -41 c25 -22 78 -66 118 -98 39 -31
72 -60 72 -65 0 -4 -13 -20 -29 -35 -62 -59 -111 -200 -111 -317 0 -108 56
-287 127 -407 21 -35 73 -109 115 -165 43 -56 114 -150 159 -209 45 -60 85
-108 90 -108 20 0 56 24 79 53 23 29 25 41 34 216 16 313 12 514 -11 599 -11
39 -15 72 -11 72 5 0 28 -13 51 -28 23 -16 99 -62 168 -102 l127 -74 -38 -45
c-61 -74 -73 -106 -78 -206 -3 -63 1 -111 12 -155 21 -84 82 -208 146 -296 61
-84 519 -544 541 -544 19 0 66 44 74 71 3 10 -8 82 -24 161 -17 79 -42 206
-55 283 -41 228 -105 415 -177 516 -26 37 -18 36 78 -2 43 -18 159 -60 258
-94 l180 -63 7 -103 c15 -203 74 -358 192 -504 139 -172 283 -249 620 -330
122 -30 136 -26 136 44 0 40 -13 76 -69 192 -37 79 -91 191 -118 249 -27 58
-80 149 -116 203 -36 53 -65 97 -63 97 2 0 48 -9 102 -20 55 -11 160 -30 234
-41 185 -27 180 -26 180 -52 0 -12 15 -58 33 -102 133 -330 486 -589 947 -695
52 -13 124 -30 160 -40 41 -11 73 -14 87 -9 26 9 56 74 49 104 -6 23 -246 389
-295 450 -66 82 -188 200 -245 237 -34 22 -53 39 -45 42 8 2 87 7 176 10 l162
5 43 -82 c74 -139 221 -273 397 -362 79 -39 254 -105 474 -179 106 -36 237
-83 291 -105 114 -47 140 -50 160 -18 37 57 33 72 -41 155 -38 42 -138 159
-222 260 -85 101 -181 211 -215 245 -65 67 -174 149 -222 168 -27 11 -19 14
111 40 165 34 361 89 441 124 31 14 58 25 59 25 2 0 5 -11 9 -23 8 -34 165
-182 270 -255 292 -203 610 -283 936 -234 237 36 287 65 261 152 -9 32 -26 47
-123 112 -285 190 -462 292 -597 344 -67 26 -71 29 -50 38 190 77 355 183 484
310 149 147 180 206 139 264 -15 21 -21 22 -175 22 -272 0 -429 -28 -596 -105
l-74 -34 8 82 c10 107 7 236 -13 427 -30 295 -49 370 -95 370 -22 0 -124 -90
-187 -167 -102 -123 -209 -343 -256 -528 -61 -239 -89 -556 -57 -648 7 -22 9
-43 5 -47 -18 -18 -578 -119 -591 -107 -2 3 8 33 22 68 46 113 71 261 81 475
3 76 12 198 21 269 33 292 30 335 -25 335 -60 0 -313 -180 -430 -305 -125
-134 -194 -242 -261 -413 -54 -136 -82 -264 -87 -392 l-3 -105 -223 -3 c-123
-2 -237 0 -254 3 l-31 5 71 73 c119 121 218 302 272 501 47 171 43 428 -6 488
-18 22 -20 22 -47 7 -55 -30 -389 -317 -473 -406 -96 -102 -158 -199 -198
-311 -23 -68 -27 -92 -27 -199 l0 -122 -25 5 c-14 2 -97 15 -184 29 -142 23
-307 57 -420 86 l-39 11 57 31 c163 92 276 224 368 431 27 61 67 150 89 197
45 99 52 171 20 210 l-18 23 -84 -54 c-46 -29 -143 -79 -216 -111 -74 -31
-159 -72 -190 -91 -73 -43 -258 -224 -314 -308 -47 -71 -88 -162 -89 -197 0
-13 -1 -23 -3 -23 -19 0 -455 154 -465 164 -3 3 1 8 9 10 8 2 44 14 81 26 98
31 194 99 360 254 81 76 158 146 172 157 21 17 26 29 26 68 0 87 10 84 -295
88 -303 4 -342 -2 -455 -63 -136 -74 -285 -208 -331 -296 -11 -21 -23 -38 -27
-38 -20 0 -254 140 -242 144 8 2 47 14 85 27 130 41 265 120 447 262 51 40
121 93 156 117 36 25 65 54 68 67 8 30 -3 88 -19 101 -14 12 -317 28 -457 24
-191 -5 -344 -45 -481 -128 -75 -46 -173 -136 -210 -194 l-16 -25 -59 39 c-93
62 -224 160 -224 169 0 4 12 4 28 0 15 -4 65 -7 112 -7 99 0 154 15 282 81 90
46 397 245 410 266 12 20 9 82 -5 102 -11 14 -38 21 -118 30 -57 7 -166 25
-243 39 -333 63 -453 58 -615 -24 -76 -38 -145 -100 -173 -153 l-20 -40 -114
114 c-63 62 -114 116 -114 120 0 3 37 4 83 1 171 -8 281 34 562 216 235 152
215 135 215 191 0 80 -13 89 -191 128 -385 85 -437 94 -554 99 -205 10 -389
-43 -493 -142 -57 -55 -52 -57 -200 75 -205 181 -363 296 -502 366 -117 59
-241 82 -350 65z"/>
</g>
</svg>
