<?xml version="1.0" encoding="utf-8"?>
<!-- Generator: Adobe Illustrator 25.0.1, SVG Export Plug-In . SVG Version: 6.00 Build 0)  -->
<svg version="1.1" id="Layer_1" xmlns="http://www.w3.org/2000/svg" xmlns:xlink="http://www.w3.org/1999/xlink" x="0px" y="0px"
	 viewBox="0 0 2400 2400" style="enable-background:new 0 0 2400 2400;" xml:space="preserve">
<g>
	<path transform="translate(0.000000,2400.000000) scale(0.100000,-0.100000)" d="M13850,21875c-29-35-13-101,51-216
		c34-60,94-184,134-276c87-202,131-291,197-397c112-180,269-351,454-493l29-22l-40,4c-75,10-369,25-472,25h-103v46
		c0,55-15,89-75,169c-144,191-353,342-640,459c-60,24-213,76-340,116c-126,39-275,86-331,105c-116,40-149,43-164,16
		c-13-26-13-97,1-124c11-19,199-261,322-412c138-169,283-291,444-371l83-41l-128-12c-70-7-194-24-276-36c-151-24-179-24-169,0
		c16,43-150,285-293,429c-142,141-270,235-499,368c-260,151-661,358-692,358c-27,0-53-31-59-71c-5-31,8-53,137-239
		c78-113,169-239,202-280c74-92,232-256,307-319l55-46h-235c-136,0-273-6-325-13c-102-15-471-107-490-122c-6-5-20-28-30-50
		c-14-31-16-45-8-63c12-25,219-153,334-207c82-38,262-84,393-100c130-17,389-7,516,19c52,10,96,18,97,17s-25-24-59-51
		c-84-70-214-208-288-307c-66-88-195-299-267-436c-48-92-56-153-25-191l17-22l180,31c364,62,485,114,654,282
		c204,202,342,474,396,787c9,47,17,86,19,88c9,9,190,28,556,58l65,5l-58-51c-32-28-86-88-122-133c-77-100-300-442-327-504
		c-25-55-20-124,10-154l20-20l181,29c163,27,190,35,273,75c51,25,129,72,173,105c97,74,267,247,319,326c50,76,110,206,132,285l17,62
		h71c97,0,445-19,476-26c22-5,16-10-48-43c-93-49-128-76-235-180c-113-109-149-156-339-431c-86-124-181-254-213-289
		c-31-35-61-74-66-88c-12-31-1-98,20-124c16-19,19-18,241,26c321,64,404,95,583,218c297,203,477,480,502,775l8,82l36-6
		c284-48,668-151,840-226l46-20l-74-19c-154-39-344-146-640-359c-97-70-211-150-253-178c-94-63-108-82-108-145c0-91-3-90,270-136
		c406-69,597-49,873,91c245,125,398,274,453,442c9,28,18,52,19,53c3,5,205-106,315-172c153-92,428-291,417-301c-2-2-32,6-67,17
		c-136,42-311,35-472-20c-173-60-239-98-483-276c-99-72-208-150-242-174c-53-35-63-46-63-70c0-58,19-67,205-90c94-11,240-30,325-42
		c195-26,451-29,556-6c243,54,462,207,505,351c7,25,16,46,20,46c10,0,218-226,354-385c209-245,319-363,338-364c12-1,23,12,33,35
		c14,35,14,38-10,74c-72,109-310,394-445,532c-62,64-72,79-62,92c9,11,9,16,0,22c-8,4,6,13,35,21c173,51,346,461,346,820
		c0,154-47,412-105,572c-41,114-212,474-232,489c-20,14-66,8-100-14c-13-8-39-47-59-87c-20-39-75-142-122-227
		c-205-371-272-571-272-810c0-119,18-221,58-324c29-73,29-75,8-59c-198,156-430,312-601,403l-80,43l36,36c57,58,83,167,83,351
		c0,213-42,383-149,605c-87,179-178,306-452,624c-208,241-220,248-311,195c-72-42-74-54-62-336c27-634,91-911,264-1145
		c25-35,44-63,41-63c-2,0-49,17-102,39c-224,89-525,174-783,221l-115,21l-1,82c-1,99-37,253-105,454c-141,413-338,686-584,810
		c-98,50-158,69-306,98C13969,21894,13869,21898,13850,21875z M9588,21050c-147-25-239-82-278-172c-32-74-26-194,13-261
		c72-123,176-187,303-187c61,0,68,2,98,33c44,43,70,115,61,164c-7,41-80,123-109,123c-23,0-31-27-16-55c11-20,10-28-4-50
		c-9-14-31-35-49-46c-41-26-125-22-165,8c-24,18-27,28-30,84c-5,98,34,176,106,213c116,60,396,38,497-38c83-64,88-272,9-427
		c-72-144-289-299-604-434l-81-35l-15,35c-8,19-14,38-14,43c0,25-86,137-137,177c-69,55-186,116-269,141c-98,30-242,24-484-20
		c-113-21-215-44-227-52c-29-18-31-76-4-120c10-17,56-57,102-89c45-32,145-107,221-167c77-59,153-115,170-124s26-19,22-23
		c-5-5-65-23-134-40c-69-18-132-34-142-37c-12-4-21,10-38,62c-34,107-68,164-139,235c-48,48-89,77-151,108c-136,67-187,73-524,64
		c-328-9-320-7-297-85c10-34,33-63,119-146c179-173,303-281,384-335c42-28,75-54,73-57c-9-14-277-102-284-94c-5,5-16,29-25,54
		c-70,185-252,299-528,331c-112,13-158,10-468-28c-234-28-246-32-234-88c12-55,35-86,87-118c29-18,128-83,221-145
		c190-127,288-180,394-212c40-12,72-24,72-26s-37-22-82-45c-46-23-121-63-168-90c-47-26-91-49-98-51c-8-2-20,17-31,49
		c-26,76-66,128-132,172c-146,98-369,124-612,71c-109-23-556-138-584-150c-28-11-31-56-8-100c12-24,28-33,88-51c39-12,160-54,268-95
		c247-93,357-122,514-137l125-12l-136-109c-75-60-172-140-214-177c-43-38-81-69-86-69c-4,0-28,13-53,29c-203,130-504,158-743,68
		c-116-44-227-126-389-288c-103-102-113-118-94-146c26-38,77-52,220-63c76-6,170-15,209-21c81-11,347-14,389-4c15,4,27,3,27-2
		s-32-45-71-88c-40-44-112-129-162-190c-54-65-97-109-106-108s-45,9-81,17c-178,42-470-5-664-107c-90-46-243-148-311-207
		c-93-80-315-313-315-331c0-16,34-67,55-81c14-11,181-10,372,2c233,14,407,51,522,109c24,13,44,21,46,19s-34-70-79-153l-82-150
		l-95,3c-268,10-481-99-884-453c-60-53-167-142-237-197c-142-111-147-121-100-178l29-34l139,26c76,15,227,41,334,58
		c295,47,446,90,530,150c17,12,30,17,30,11s-20-70-46-143c-52-153-100-337-110-420l-7-58h-39c-22,0-76-9-120-20
		c-369-95-714-364-863-675c-56-116-101-239-110-297c-6-42-5-47,25-71c52-45,76-38,329,88c257,128,354,183,455,262c38,29,71,51,73,49
		s-2-48-8-102c-24-199,3-444,67-621c31-86,59-115,110-117c38-1,38-1,106,114c82,137,142,260,174,354c27,79,54,211,54,265
		c0,21,3,41,6,44c4,4,29-12,55-34c64-53,183-121,354-201c269-127,341-153,382-137c24,9,25,12,19,59c-26,197-141,430-310,624
		c-156,181-482,424-604,451c-17,3-32,12-32,19c0,41,195,556,211,556c4,0,31-30,60-66c68-86,195-191,362-301c72-47,195-135,272-193
		c77-59,150-112,162-119c35-18,61-13,79,15c15,22,16,44,11,162c-15,333-101,577-282,805c-111,140-206,222-360,313
		c-17,9-14,18,40,110c102,174,198,324,206,324c5,0,11-12,15-27c67-310,298-609,579-751c107-53,168-61,180-21c13,39-79,560-120,679
		c-67,198-194,353-345,423c-36,17-67,32-69,33c-10,8,297,362,406,467l40,38l6-103c6-116,39-242,88-341c17-34,74-123,127-197
		s107-152,121-173c34-49,120-94,151-77c20,11,21,16,15,103c-5,69-1,132,15,252c23,170,22,246-5,377c-33,156-109,328-175,396
		c-23,23-40,47-38,51c8,21,356,307,364,299c3-3-3-43-12-89c-23-112-14-213,36-447c60-274,53-257,105-282c24-12,52-19,62-16
		s33,34,51,69s74,126,125,204c101,152,131,217,148,321c21,133-17,385-76,489c-14,25-25,47-25,49c0,7,241,146,246,141c3-3-2-29-10-58
		c-23-82-38-225-31-309c7-100,46-479,51-507c5-26,84-67,113-58c11,3,34,32,52,63c17,31,66,107,107,167c94,138,175,304,202,415
		c45,191,37,320-31,487c-7,18-10,35-7,39c11,10,302,134,306,129c2-2-17-33-42-69c-95-140-116-263-99-592c6-115,14-216,18-225
		c3-9,24-25,46-35c50-22,58-18,125,69c28,37,101,124,162,194c222,256,273,345,291,508c11,94-2,186-32,245l-25,49l31,10
		c58,19,279,72,283,68c2-2-14-27-36-55c-51-69-97-189-109-292c-13-103,4-557,21-578c18-22,65-42,96-42c25,0,54,26,192,173
		c206,218,272,294,327,379c109,169,157,374,118,503c-8,27-13,50-12,51c18,14,92,42,197,74c185,57,405,149,518,216
		c211,125,312,287,312,501c0,257-159,471-380,513C9799,21062,9657,21061,9588,21050z M19383,18410c-37-22-39-28-89-268
		c-66-314-85-442-91-600l-6-152l-86,84c-102,101-139,131-246,201c-161,106-401,204-464,190c-40-9-81-42-81-66s109-297,156-392
		c60-121,144-238,236-329c85-86,87-88,60-94c-58-12-139-36-187-54c-150-56-577-281-632-333c-58-54-44-75,91-137
		c142-66,263-94,466-110c206-15,414,11,720,90c119,31,281,103,314,139l19,21l24-33c63-84,333-529,333-548c0-3-57-9-127-12
		c-154-6-233-24-517-117c-116-38-267-83-336-100s-146-38-171-46c-57-18-93-54-84-83c18-58,278-234,462-314c180-77,317-108,508-114
		c227-8,404,20,547,84c50,22,61,24,69,12c24-37,202-509,195-516c-2-3-21,4-43,15c-59,30-180,72-258,89c-96,21-339,28-448,14
		c-234-31-508-159-495-230c8-41,520-315,702-376c233-78,455-67,621,31c25,14,47,25,49,23c20-23,154-734,140-748c-2-2-28,19-58,46
		c-92,84-277,167-431,192c-33,6-164,15-291,21l-231,12l-50-26c-48-24-63-41-63-70c0-7,33-35,73-62c39-27,140-114,222-194
		c170-165,259-227,422-290c155-61,261-83,365-77l86,4l6-101c9-173,18-456,13-456c-2,0-16,18-31,41c-78,117-218,216-466,329
		c-74,33-159,74-187,90c-62,35-81,37-134,10c-62-32-67-55-30-129c18-34,58-141,91-237c67-197,104-275,167-344
		c120-133,386-284,517-292c55-4,53,9,26-183c-11-77-20-143-20-148s-21,20-47,54c-99,131-225,234-468,380c-66,40-153,94-194,122
		c-64,42-77,48-107,42c-19-3-49-19-67-35c-37-33-42-10,58-295c109-311,176-434,310-570c114-115,262-203,373-221c23-4,42-12,42-18
		c0-11-68-283-88-351c-10-35-15-27-32,45c-7,30-27,87-46,127c-58,122-170,223-498,452c-102,71-123,82-148,77c-39-8-88-43-88-64
		c0-9,15-80,34-157s47-205,61-285c31-167,81-328,127-409c17-31,66-90,108-132c88-87,177-137,252-141c27-2,48-5,48-8
		c1-11-145-340-150-340c-4,0-11,26-18,58c-15,71-68,176-129,253c-53,68-120,124-323,270c-80,57-164,118-188,136c-51,38-69,40-122,13
		c-75-38-74-30-25-347c25-155,53-322,64-370c45-204,132-375,250-493c62-61,158-120,196-120c11,0,15-6,11-17c-2-10-8-33-11-52
		c-4-18-29-91-56-160c-116-306-173-547-173-736c0-105,4-130,28-200c83-240,303-408,556-423c156-9,271,33,379,139
		c74,71,166,209,206,305c37,88,41,197,10,259c-29,60-98,123-171,157c-62,29-70,30-167,26c-120-5-179-29-254-104
		c-81-81-90-147-32-238c39-63,80-86,151-86c45,0,62,5,84,23c32,28,26,43-19,55c-26,7-34,16-46,51c-19,59-2,110,51,162
		c54,52,81,58,135,29c84-44,149-156,140-237c-9-86-71-189-176-294c-149-149-219-172-341-112c-118,58-220,181-263,318
		c-19,61-22,92-22,245c1,186,9,243,66,475c16,66,31,125,34,132c3,9,19,7,62-9c84-31,222-31,323,1c158,48,300,142,389,253
		c52,67,287,498,297,545c7,37-25,67-87,84c-44,12-55,10-185-29c-77-23-202-57-279-76c-77-20-167-44-199-56c-33-11-61-18-63-16
		c-3,2,26,75,63,161c54,124,71,154,83,149c163-66,304-81,436-45c89,25,183,72,264,134c59,45,134,135,230,274c33,49,99,135,146,193
		c47,57,85,112,85,122c0,22-44,56-91,68c-30,8-65,6-156-9c-65-11-179-29-253-41c-157-24-341-70-400-100c-28-14-40-17-37-8
		c3,7,29,84,58,171c48,146,53,158,73,153c152-44,258-46,373-6c187,65,370,234,521,482c74,120,185,307,216,360l21,37l-25,25
		c-14,14-46,31-72,37c-44,12-51,11-150-26c-56-21-183-64-281-96c-203-66-335-126-424-193c-35-25-63-43-63-38c0,4,13,86,29,182
		s32,196,35,221l7,46l65-23c118-43,234-25,370,57c116,70,261,245,349,420c19,37,62,134,96,215c34,82,88,207,120,279
		c33,71,59,137,59,147c0,24-40,49-89,55c-36,5-47,0-118-50c-43-31-152-100-241-154c-292-177-427-284-526-417c-28-36-51-64-52-63
		s-4,147-7,324l-6,322l37,12c169,55,364,206,471,365c140,209,176,411,135,764c-24,214-29,224-106,201c-33-10-60-31-118-94
		c-41-45-127-135-191-202c-127-132-220-245-271-330c-18-30-35-55-38-55s-13,46-23,103c-10,56-33,172-52,257c-20,85-38,166-41,180
		c-4,21,1,28,31,44c49,27,167,152,222,238c61,94,128,239,157,341c63,216,77,499,38,757c-11,74-23,160-27,190c-9,83-24,100-88,100
		c-65,0-64,1-214-210c-227-320-318-493-347-664l-12-69l-19,49c-10,27-46,111-81,187l-63,139l68,78c103,119,157,234,198,422
		c21,97,23,362,9,876c-9,300-10,314-30,328c-29,20-99,18-118-3c-8-10-40-67-70-128c-30-60-107-205-171-322c-170-309-221-436-234-570
		l-6-61l-76,119c-103,161-212,307-295,396l-69,74l21,22c12,12,34,52,50,87c161,356,191,769,81,1110c-41,124-182,378-252,453
		C19475,18436,19430,18439,19383,18410z M10248,17430c-46-8-64-23-89-72c-82-160-158-770-189-1503c-6-143-13-297-16-341l-6-82
		l-76-27c-126-44-257-102-445-196c-115-57-179-84-182-76c-2,7-6,41-10,77c-24,245-89,663-194,1245c-38,209-74,412-81,452
		c-13,81-28,100-91,114c-86,20-173-13-211-77c-31-53-58-181-69-330c-14-175-3-393,45-984c19-228,40-487,46-575c5-88,12-180,15-205
		l5-45l-57-34c-32-19-144-87-248-151c-613-376-944-532-1208-569c-127-18-217,17-318,125c-25,27-57,69-72,94c-63,109-117,345-117,517
		c0,149,48,433,96,568c40,112,40,111,6,129c-36,19-81,20-137,5c-126-34-297-328-355-610c-28-135-24-358,9-484
		c75-286,282-473,586-530c132-25,391-16,535,18c305,72,634,230,1129,541c84,53,156,94,160,91c10-11,4-533-8-680
		c-35-410-105-718-233-1015c-178-416-448-738-700-834l-47-18l-51,32c-66,43-141,126-194,217c-122,208-168,550-107,786
		c74,284,293,583,504,687c102,51,143,58,201,36c111-42,208-227,192-364c-13-106-85-223-197-319c-70-60-81-65-118-52s-94,5-111-16
		c-18-22,14-61,66-81c81-31,195-5,302,68c83,56,202,179,233,240c128,253-25,579-299,637c-128,27-296,4-430-59
		c-240-112-499-400-625-696c-142-330-139-737,6-1019c52-101,165-218,252-262c120-61,186-75,360-80c231-7,381,25,575,122
		c376,189,689,616,873,1190c65,203,112,461,138,755c16,182,15,613-1,840c-8,102-14,198-14,215c-1,27,8,35,124,103
		c114,66,541,285,545,279c1-1-2-186-7-412c-14-626,3-1300,42-1640c10-93,31-273,45-400c55-492,76-554,200-590c91-27,228-7,256,38
		c18,27,21,332,20,1679l-1,1467l42,6c103,14,314,24,385,18c63-4,86-2,111,11c50,26,38,63-30,92c-36,15-80,18-275,22l-233,4v227
		c0,294-17,930-30,1141c-14,213-37,419-54,467C10395,17419,10334,17445,10248,17430z M11573,15810c-144-72-433-385-577-623
		c-164-272-256-610-256-937c0-170,19-303,67-459c120-397,322-571,663-571c288,0,491,124,732,447c264,355,447,751,526,1141l27,133
		l70,24c39,13,73,24,76,25c4,0-15-55-43-122c-102-253-189-554-239-833c-30-163-32-437-5-540c38-144,86-224,164-274
		c79-50,147-64,292-59c127,4,128,4,215,47c73,36,107,62,202,155c89,85,216,226,249,275c2,2,15-6,31-17c49-34,128-70,190-86
		c80-21,275-21,363-1c84,20,206,81,295,147c78,58,341,318,666,657c499,523,902,838,1344,1055c266,131,442,185,626,193
		c219,10,371-47,519-196c128-130,187-247,212-421c47-334-205-742-538-872c-154-59-279-60-398-2c-159,78-217,246-141,412
		c29,64,117,152,200,202c51,30,68,35,120,35c74-1,178-44,173-72c-5-27,46-41,80-22c43,24,41,61-5,90c-94,61-140,74-268,74
		c-107,0-127-3-183-26c-159-68-280-171-334-285c-30-64-33-77-33-169c0-87,3-106,25-149c50-97,189-193,340-233c105-28,317-23,445,11
		c303,79,543,289,661,580c53,133,67,205,67,341c-1,147-23,238-88,363c-124,240-352,399-635,443c-115,17-383,7-500-20
		c-292-68-627-220-960-439c-354-231-554-412-1265-1143c-121-124-252-251-291-282c-151-121-258-167-335-147c-53,14-133,93-174,172
		l-28,55l45,64c152,215,330,571,390,779c27,94,30,237,6,291c-25,58-74,106-125,123c-60,21-196,21-254,1c-160-57-286-230-384-528
		c-60-183-79-305-73-470c4-115,9-145,38-229l32-98l-60-68c-144-162-365-349-382-322c-27,43-30,359-6,555c20,159,66,432,111,665
		c71,362,78,431,50,496c-21,50-85,77-186,77c-75,0-81-2-211-67c-73-36-136-66-140-66c-5,0-8,28-8,63c-1,182-78,318-199,347
		c-138,33-285-42-358-181c-37-72-39-182-6-245c48-91,167-154,289-154c65,0,65,3,25-141c-111-393-339-777-646-1085
		c-97-97-209-185-289-226l-38-20l-29,28c-82,79-202,401-238,640c-17,114-24,321-13,426c9,94,10,98,43,124c79,63,279,276,339,362
		c196,279,296,596,231,738c-25,55-67,74-163,74C11645,15840,11624,15835,11573,15810z M11697,15633c-10-119-71-262-185-434
		c-80-122-174-238-180-221c-7,21,76,248,128,353c66,131,219,369,237,369C11700,15700,11700,15670,11697,15633z M12540,15355
		c28-58,41-162,32-250l-7-70l-33,1c-79,4-127,81-120,193c3,55,9,76,37,119C12491,15413,12511,15415,12540,15355z M14171,14982
		c30-92-8-256-107-459c-52-107-174-317-196-338c-7-7-9,30-4,120c12,271,115,599,223,710c33,34,36,35,54,19
		C14151,15025,14164,15002,14171,14982z M3685,13098c-36-52-81-249-113-498l-17-133l-53-13c-74-19-135-57-220-138
		c-130-124-195-240-374-671c-142-341-135-322-118-340c13-13,30-10,140,20c240,65,356,129,503,278l87,88v-128c0-127,14-408,25-534
		l7-65l-41-12c-62-19-183-105-252-180c-128-139-240-345-344-637c-32-88-91-252-132-365c-40-112-71-210-69-217c8-19,44-16,74,6
		c15,10,95,55,177,101c323,177,525,334,640,498c17,23,32,42,35,42s15-60,28-133c13-72,39-203,58-290s34-165,34-173s-10-14-23-14
		c-124,0-294-171-389-392c-53-123-83-229-128-463c-22-110-59-280-82-378c-38-163-40-179-26-194c15-14,20-14,60,6
		c23,11,102,66,173,121c377,292,492,397,571,520c38,59,54,73,54,47c0-7,31-107,70-223c38-115,70-210,70-210c0-1-12-5-27-9
		c-79-19-224-155-286-267c-19-35-49-102-66-150c-58-166-74-291-91-693c-6-137-15-300-20-362c-11-127-4-163,32-163
		c34,0,68,27,138,110c35,41,121,134,190,205c220,226,319,385,364,586l23,104l15-35c8-19,48-103,87-186l73-152l-51-62
		c-91-114-151-266-184-470c-13-79-16-179-13-603c2-336,6-511,13-518c27-27,116,56,257,240c203,265,262,404,290,676l12,120l87-158
		c48-86,87-164,87-173c0-8-11-32-25-52c-65-95-89-292-52-432c24-88,106-252,161-322c58-73,124-124,277-217c66-41,162-106,212-146
		c122-96,132-101,163-81c13,9,31,28,40,41c16,24,15,32-5,128c-16,72-25,163-31,312c-5,117-16,246-25,290c-36,176-121,332-247,451
		c-112,106-287,187-366,169c-28-6-29-5-118,181c-49,102-91,190-93,196c-1,5,21-9,50-31c78-59,152-96,270-135c184-62,319-67,569-25
		c189,33,208,38,240,71c42,41,40,75-7,120c-54,51-427,338-536,412c-264,179-516,271-722,264c-86-3-105-6-133-27c-18-13-35-22-36-20
		c-15,17-226,532-221,538c2,2,31-21,65-50c119-105,235-167,398-211c116-32,282-30,492,5c198,33,215,39,257,79c61,59,52,73-104,174
		c-150,97-342,237-541,396c-192,153-325,236-452,280c-135,47-295,63-337,33c-22-15-22-14-52,82c-16,54-46,154-66,223s-38,131-41,139
		c-2,7,23-12,56-42c110-102,256-175,485-241c125-35,363-80,496-92l76-7l41,37c72,65,70,76-54,239c-308,405-496,580-769,716
		c-194,97-393,143-463,108c-38-18-32-34-67,168c-14,83-28,161-31,174c-4,20,5,15,56-32c126-117,279-208,425-252c77-23,379-75,438-75
		c20,0,40,11,62,33c63,63,63,63-101,279c-181,237-311,394-395,474c-176,168-367,262-510,252l-57-4l-6,55c-6,55-20,293-31,505l-5,109
		l36-49c51-68,168-187,234-238c110-84,407-246,453-246c29,0,97,72,97,103c0,46-60,291-105,423c-56,170-129,322-212,448
		c-117,175-388,426-461,426c-22,0-22,2-17,63c18,203,35,426,35,454C3730,13126,3709,13131,3685,13098z M14041,12887
		c-14-6-33-27-44-44c-22-38-103-321-157-552c-22-90-41-165-42-167c-2-2-37,2-78,7c-121,17-323,7-393-20c-125-49-227-139-227-201
		c0-32,15-40,74-40c34,0,48,6,70,29c31,32,123,80,203,106c44,15,62,15,115,6c120-21,203-47,202-62c-1-8-18-108-37-224
		c-81-471-111-759-105-1003c4-160,9-201,31-285c52-196,133-315,240-355c143-53,302-31,415,57c69,54,229,274,377,519l50,82l8-47
		c18-118,51-271,63-301c17-42,64-62,144-62c75,0,124,20,143,57c8,15,36,84,62,153c64,169,129,304,205,430c77,128,172,259,177,243
		c2-6-3-66-12-134s-19-192-22-276c-9-223,13-311,96-386c104-94,322-90,485,8c32,19,60,34,60,33c1-2,9-19,18-38
		c50-111,174-223,281-255c139-41,349,14,489,128c73,60,141,153,209,283c52,102,53,105,35,119c-24,18-116,20-138,3c-8-7-47-60-86-118
		c-88-131-175-219-261-263c-104-54-112-54-161-1c-68,74-119,217-120,336c0,43,5,52,56,110c153,171,306,402,372,560
		c65,155,78,347,29,419c-44,64-68,74-180,74c-90,0-109-3-160-27c-116-54-215-177-302-375c-93-211-127-373-130-618l-3-160l-72-57
		c-63-48-165-108-185-108c-3,0-16,21-28,48c-20,42-22,62-21,202c1,85,9,225,19,310c34,311,23,394-59,431c-61,28-167,25-231-5
		c-107-50-332-337-447-571c-18-36-35-65-38-65c-7,0-25,148-36,285l-6,80l68,125c292,536,468,1144,399,1377c-18,61-67,109-121,119
		c-65,12-159-1-207-30c-120-69-267-302-347-546c-17-52-38-102-46-112c-23-25-164-96-246-124c-91-31-121-30-242,3l-98,28l6,90
		c26,343,36,507,36,627c0,126-2,138-19,148C14144,12904,14070,12902,14041,12887z M15216,12503c-14-163-75-382-180-648
		c-46-118-51-127-54-93c-9,109,65,455,133,623c37,90,91,195,102,195C15220,12580,15220,12545,15216,12503z M14696,11868
		c-22-182-28-323-22-526l6-223l-86-152c-102-177-230-382-309-494c-59-84-166-211-177-212c-9-1-23,48-45,159c-22,104-24,460-5,675
		c26,283,62,671,68,716l5,46l67-14c103-22,269-13,358,19c39,14,84,33,100,41C14700,11927,14703,11924,14696,11868z M16685,11555
		c-14-140-64-261-182-438c-94-139-95-139-64,21c36,185,116,389,193,491l42,56l8-35C16687,11631,16688,11588,16685,11555z
		 M12409,11857c-78-27-133-63-190-124c-89-97-106-209-50-329l31-67l-92-171c-199-372-422-741-504-834l-41-46l-31,42
		c-38,54-85,165-107,259l-17,71l62,99c84,134,190,354,239,496c129,378,82,551-147,535c-151-11-268-124-367-355
		c-87-201-120-385-111-622c3-91,8-185,12-208l6-41l-124-126c-69-69-130-126-136-126c-44,0-33,389,25,905c15,127,27,289,27,360
		c1,123-1,133-27,187c-39,80-76,101-189,106c-110,5-160-11-216-72c-83-90-174-268-243-476c-32-96-48-134-49-113c0,18-9,101-20,186
		c-39,306-85,377-245,377c-121,0-168-40-247-207c-41-87-131-341-165-463c-9-34-10-32-32,60c-92,396-98,411-171,448
		c-59,31-182,29-227-4c-22-16-131-168-182-253c-7-11-19-4-57,35c-96,98-202,139-343,132c-115-6-174-32-245-109
		c-124-133-157-322-76-436c27-40,28-43,9-43c-11,0-33-7-49-15c-30-16-34-26-49-135c-5-36-27-114-49-175c-115-322-281-641-451-869
		c-82-111-207-240-222-230c-21,13-79,114-109,189c-71,179-139,507-161,778c-15,196-7,600,15,722c29,159,69,279,89,272
		c19-6,77-120,102-201c14-44,37-143,50-220c21-124,27-144,50-163c30-26,90-31,120-9c16,12,20,31,23,141c5,142-8,241-43,346
		c-72,211-171,287-360,277c-153-8-242-76-328-252c-123-250-187-580-187-968c0-338,54-642,147-837c72-148,217-265,382-307
		c96-24,315-16,394,15c121,48,243,199,367,456c68,139,178,408,220,537l22,68l40-61c46-69,118-122,190-140c27-6,92-10,150-7
		c134,4,191,30,279,126c70,77,157,245,183,352c32,139,29,326-7,468l-14,52l56,70l56,69l3-32c21-259,65-511,107-624
		c55-147,107-185,256-191c80-4,104-1,142,16c75,33,78,43,132,378c45,283,167,728,186,677c4-12,15-106,23-210c21-245,58-471,87-536
		c16-35,66-57,128-57c67,0,116,21,135,58c9,17,40,122,70,234c69,257,114,385,179,512c67,131,69,115,23-170c-20-121-42-291-51-378
		c-20-213-20-495,1-586c32-142,112-210,257-218c141-8,249,37,383,161c60,56,61,56,72,33c21-47,123-145,180-173c51-25,67-28,162-28
		s110,3,157,27c28,15,68,47,87,70c78,94,277,439,432,751c49,97,92,177,96,177c12,0,156-180,220-274c56-84,123-205,116-210
		c-141-100-275-215-334-290c-167-210-207-461-95-597c71-86,236-134,387-112c173,25,294,122,384,308c58,121,80,212,80,340
		c0,113-19,215-63,334c-18,47-32,89-32,92c0,4,88,76,195,160c245,193,340,270,365,299c20,22,20,22,0,37c-13,9-34,13-61,10
		c-43-4-87-34-431-289c-74-55-136-98-137-96c-1,1-28,41-58,88c-31,47-110,152-176,234c-66,83-136,180-156,217c-64,118-58,211,19,296
		c47,53,61,53,137,3c60-40,103-106,129-195c11-38,24-77,28-85c12-22,61-33,95-20l29,11l-5,88c-10,173-105,300-258,345
		C12620,11888,12490,11885,12409,11857z M11595,11628c8-57-9-163-45-269c-31-94-107-268-140-320l-21-34l6,75c15,179,55,355,106,468
		c31,68,65,122,79,122C11585,11670,11592,11651,11595,11628z M8588,11332c51-50,112-144,112-174c0-20-95-100-154-130
		c-70-36-92-39-113-16c-15,16-18,37-18,112c0,80,4,97,29,146c39,75,65,110,81,110C8533,11380,8561,11358,8588,11332z M8751,10908
		c8-209-47-384-165-527c-65-79-70-80-106-24c-61,95-115,279-136,456l-7,57h95c103,0,188,18,258,54c25,13,48,24,53,25
		C8747,10949,8751,10931,8751,10908z M12750,10392c24-194-32-386-150-516c-67-73-95-75-154-13c-48,49-66,100-66,184
		c0,156,86,308,255,448l80,66l12-42C12734,10495,12745,10438,12750,10392z M15015,9737c-22-8-53-22-69-32c-178-117-466-815-576-1395
		c-12-63-24-121-26-128c-3-9-23,3-60,37c-68,62-150,91-258,91c-305-1-458-215-560-781c-21-115-37-167-119-374
		c-161-406-290-688-404-880l-47-80l-13,44c-44,151-63,423-64,920c0,295-4,426-12,450c-18,51-66,73-149,69c-104-5-112-14-173-203
		c-51-156-332-811-445-1036c-81-159-197-339-220-339c-16,0-30,101-30,215c0,210,66,625,160,1005c28,113,53,234,57,270
		c5,60,3,68-20,96c-57,67-187,71-326,10c-46-20-85-35-87-33s1,43,6,91c20,168-20,336-90,386c-107,76-276,64-367-26
		c-81-81-143-247-143-379c1-141,60-205,223-239l58-12l-49-81c-78-130-219-310-327-418l-100-100l-7,40c-68,399-174,652-357,856
		l-51,57l57,83c79,118,155,280,212,455c69,209,95,347,95,509c-1,224-46,347-174,476c-80,81-141,116-252,146c-87,23-297,23-393-1
		c-98-24-313-133-420-213c-104-78-291-257-373-356l-55-68l-37,104c-20,57-62,156-92,219c-161,336-296,448-538,448
		c-161,0-269-49-406-185c-278-277-496-803-482-1165c6-137,28-204,90-274c77-89,212-130,356-108c198,29,329,158,387,382
		c26,101,31,321,11,460c-27,183-64,343-83,358c-20,15-97,16-123,2c-27-14-38-65-50-217c-5-73-15-195-20-270c-16-207-60-389-116-480
		c-25-39-76-93-89-93c-19,0-63,53-87,105c-30,68-37,234-13,360c51,277,229,630,420,833c78,83,155,142,186,142c28,0,96-88,143-185
		c105-216,171-456,211-767l15-116l-79-157c-198-391-328-787-400-1211c-82-487-73-980,24-1319c51-178,120-282,223-332
		c48-23,72-28,158-31c152-6,237,27,323,124c195,222,310,1002,272,1844c-19,419-48,722-97,1028c-13,84-24,159-24,166
		c0,15,132,194,234,316c202,243,462,449,645,510c117,39,208-2,293-134c121-187,115-465-18-847c-42-121-89-225-145-325l-40-70l-72,13
		c-97,17-257,16-341-2c-165-35-266-126-266-240c0-88,44-149,140-193c47-22,73-27,173-30c142-5,224,11,340,68l77,39l15-22
		c62-96,148-324,183-487c36-165,55-434,34-466c-8-13-91-50-302-134c-355-141-508-253-586-426c-21-46-28-79-32-152c-4-88-3-96,27-157
		c36-72,77-110,171-154c176-83,454-63,634,46c118,72,248,218,319,359c64,127,131,369,144,521c7,83,4,79,100,145
		c90,63,212,170,275,241c129,147,265,340,332,475c26,51,42,72,55,72c11,0,48,9,82,20c35,10,65,18,66,16c2-2-24-77-58-167
		c-92-249-155-478-215-794c-37-192-39-371-6-466c31-90,72-151,129-193c75-54,135-69,266-64c174,6,236,44,348,212
		c102,151,174,306,269,575l47,134l7-124c15-281,41-413,106-546c66-135,143-183,290-183c99,0,168,32,222,104c71,95,238,451,344,729
		l52,139l12-39c40-121,136-271,227-353c181-161,446-185,622-55l60,44l31-55c45-78,120-150,187-182c48-22,75-27,163-30
		c122-5,197,15,285,74c49,32,135,116,181,176l21,27l64-63c82-80,146-106,257-106c134,0,192,41,292,205c68,114,270,531,385,800
		c104,241,329,753,396,903c38,84,35,93-38,99c-88,8-86,11-225-268c-69-140-174-357-233-484c-146-314-331-688-403-816
		c-71-127-163-269-174-269c-21,0-127,231-128,277c0,12,31,87,70,166c205,423,283,788,214,1000c-22,66-62,103-130,118
		c-146,33-262-44-357-236c-155-314-199-789-101-1088l16-48l-43-57c-96-126-254-272-296-272c-21,0-71,88-98,171c-27,85-48,202-65,354
		l-11,100l54,140c93,238,337,996,428,1328c94,345,141,582,159,817c19,243-16,407-98,454C15170,9747,15068,9754,15015,9737z
		 M15094,9415c-1-77-6-178-13-225c-39-274-141-668-310-1195c-118-369-112-359-106-185c18,462,114,993,261,1439c30,90,75,204,101,253
		C15086,9618,15095,9607,15094,9415z M14139,8126c33-30,104-131,136-195l27-54l-12-153c-16-195-8-647,14-793l16-104l-37-68
		c-46-85-124-191-157-213c-24-15-26-14-61,23c-86,90-141,207-176,371c-19,88-22,137-23,300c-1,393,80,812,177,918c19,21,22,21,46,6
		C14103,8155,14126,8138,14139,8126z M11339,7946c6-33,11-79,11-102c0-38-27-214-34-221c-2-2-10-1-19,3c-39,15-58,135-37,234
		c16,70,52,162,61,153C11325,8009,11333,7978,11339,7946z M15594,7765c0-132-19-238-65-377c-41-121-102-264-107-250
		c-8,24,18,307,38,422c25,145,53,248,86,313c24,46,27,49,38,31C15591,7893,15595,7838,15594,7765z M9950,7856c19-7,36-19,38-28
		c6-30-159-148-207-148c-37,0-61,28-61,69C9720,7844,9835,7897,9950,7856z M8797,7085c-5-524-12-651-58-1025c-23-187-59-378-82-430
		l-15-35l-40,85c-46,99-74,201-98,355c-23,150-23,517,0,710c39,318,126,683,235,975l46,125l8-125C8797,7651,8799,7366,8797,7085z
		 M10365,6413c-13-73-68-229-107-308c-77-152-188-281-285-328c-43-21-44-21-80-2c-20,11-48,37-62,59c-23,35-26,50-26,125
		c0,74,4,94,28,143c32,66,118,150,204,199c44,26,311,145,332,148C10371,6450,10369,6433,10365,6413z M12600,8399c-38-15-58-37-85-95
		c-39-82-29-166,25-227c26-30,33-32,107-35c69-3,82-1,113,20c124,84,132,285,14,334C12736,8412,12637,8414,12600,8399z M19564,7704
		c-38-32-113-90-166-130c-159-121-232-204-284-321l-25-56l-45,64c-25,35-74,109-109,164s-74,106-86,114c-36,22-132,27-151,7
		c-19-18-68-144-105-266c-34-113-43-295-19-390c18-70,83-215,116-258c52-67,139-145,191-171l57-28l-63-101c-112-180-394-577-403-568
		c-1,2-7,30-12,62c-19,115-200,673-226,695c-19,16-85,29-111,23c-16-4-28-22-42-60c-31-80-80-175-164-312c-187-307-223-551-118-803
		c31-73,94-175,124-200c18-15,7-27-223-252c-134-130-246-237-251-237c-4,0-3,15,2,32c14,50,11,167-7,233c-8,33-40,122-70,197
		c-69,175-82,225-96,378c-13,138-21,154-82,166c-60,11-79-1-138-83c-259-363-306-441-333-554c-32-139-10-302,62-449
		c29-60,57-96,140-179c56-56,103-105,103-107c0-5-188-155-315-250c-139-105-345-248-345-240c0,3,7,31,15,63c19,74,19,173,0,248
		c-9,33-47,125-84,205c-83,174-85,181-112,345c-12,72-25,140-30,153c-17,45-122,69-151,35c-8-10-36-58-63-107c-26-49-79-137-117-195
		c-197-301-226-485-114-726c34-72,81-138,174-243l52-60l-112-65c-226-129-418-217-553-252c-94-24-108-38-64-60c46-24,142-14,273,29
		l103,33l18-41c23-52,153-180,228-225c74-44,196-84,339-113c145-29,438-31,588-5c172,30,270,68,270,106c0,31-42,57-180,111
		c-74,29-235,103-358,166c-227,116-329,155-452,175l-69,12l112,66c62,37,185,113,275,170l162,102l41-34c61-52,191-114,304-144
		c88-24,119-27,260-27c199,0,280,18,469,105c72,34,187,81,256,105c221,78,257,102,214,145c-23,22-543,212-673,246
		c-53,13-138,27-190,31l-93,7l83,70c46,39,139,118,206,178l122,107l45-34c125-95,400-140,653-105c108,14,257,67,356,125
		c88,53,281,234,312,293c15,31,15,34-1,52c-23,26-70,36-194,44c-58,3-168,13-245,22c-173,19-367,13-472-15l-72-20l188,197
		c104,108,223,236,266,284c48,54,83,86,92,83c92-36,270-60,383-52c345,24,532,94,716,269c119,113,254,308,254,366c0,11-10,27-22,35
		c-46,28-86,27-189-4c-115-34-245-60-449-89c-148-22-310-53-344-66c-11-5,5,25,44,81c93,133,277,419,309,481l12,23l53-30
		c129-73,348-92,522-46c194,52,340,132,473,260c64,62,263,313,277,350c8,21-34,54-77,61c-21,4-67,4-101,1c-35-4-154-11-265-17
		c-111-5-241-16-290-23c-48-7-89-13-90-12s9,32,23,70c13,37,31,107,39,154c17,102,39,415,30,441c-7,23-47,41-89,41
		C19640,7760,19617,7747,19564,7704z M6090,5260c-260-40-473-272-473-515c0-65,5-94,30-156c57-145,199-316,299-361
		c62-27,150-22,218,12c106,54,182,187,179,317c-1,74-46,181-87,208c-58,38-167,26-215-23c-32-33-56-101-47-136c8-33,29-33,54-1
		c23,29,46,31,101,9c29-11,45-27,65-63c37-70,35-112-9-145c-71-55-174-72-241-40c-105,50-244,295-244,431c0,55,18,89,69,136
		c90,81,217,122,351,114c164-9,379-112,648-309l53-39l-30-34c-80-92-114-196-113-350c1-120,26-227,77-324c44-83,346-438,380-447
		c29-7,68,18,94,60c13,22,21,60,26,131c3,55,15,163,26,240c10,77,19,173,19,213c0,42,4,72,10,70c5-1,56-50,114-106l105-104l-53-64
		c-102-123-136-216-136-369c0-157,36-255,169-459c44-66,104-164,133-216c63-112,80-120,132-68c38,38,40,45,95,293
		c43,198,59,289,69,410l7,80l45-41c25-22,78-66,118-98c39-31,72-60,72-65c0-4-13-20-29-35c-62-59-111-200-111-317
		c0-108,56-287,127-407c21-35,73-109,115-165c43-56,114-150,159-209c45-60,85-108,90-108c20,0,56,24,79,53s25,41,34,216
		c16,313,12,514-11,599c-11,39-15,72-11,72c5,0,28-13,51-28c23-16,99-62,168-102l127-74l-38-45c-61-74-73-106-78-206
		c-3-63,1-111,12-155c21-84,82-208,146-296c61-84,519-544,541-544c19,0,66,44,74,71c3,10-8,82-24,161c-17,79-42,206-55,283
		c-41,228-105,415-177,516c-26,37-18,36,78-2c43-18,159-60,258-94l180-63l7-103c15-203,74-358,192-504c139-172,283-249,620-330
		c122-30,136-26,136,44c0,40-13,76-69,192c-37,79-91,191-118,249s-80,149-116,203c-36,53-65,97-63,97s48-9,102-20
		c55-11,160-30,234-41c185-27,180-26,180-52c0-12,15-58,33-102c133-330,486-589,947-695c52-13,124-30,160-40c41-11,73-14,87-9
		c26,9,56,74,49,104c-6,23-246,389-295,450c-66,82-188,200-245,237c-34,22-53,39-45,42c8,2,87,7,176,10l162,5l43-82
		c74-139,221-273,397-362c79-39,254-105,474-179c106-36,237-83,291-105c114-47,140-50,160-18c37,57,33,72-41,155
		c-38,42-138,159-222,260c-85,101-181,211-215,245c-65,67-174,149-222,168c-27,11-19,14,111,40c165,34,361,89,441,124
		c31,14,58,25,59,25c2,0,5-11,9-23c8-34,165-182,270-255c292-203,610-283,936-234c237,36,287,65,261,152c-9,32-26,47-123,112
		c-285,190-462,292-597,344c-67,26-71,29-50,38c190,77,355,183,484,310c149,147,180,206,139,264c-15,21-21,22-175,22
		c-272,0-429-28-596-105l-74-34l8,82c10,107,7,236-13,427c-30,295-49,370-95,370c-22,0-124-90-187-167c-102-123-209-343-256-528
		c-61-239-89-556-57-648c7-22,9-43,5-47c-18-18-578-119-591-107c-2,3,8,33,22,68c46,113,71,261,81,475c3,76,12,198,21,269
		c33,292,30,335-25,335c-60,0-313-180-430-305c-125-134-194-242-261-413c-54-136-82-264-87-392l-3-105l-223-3c-123-2-237,0-254,3
		l-31,5l71,73c119,121,218,302,272,501c47,171,43,428-6,488c-18,22-20,22-47,7c-55-30-389-317-473-406c-96-102-158-199-198-311
		c-23-68-27-92-27-199v-122l-25,5c-14,2-97,15-184,29c-142,23-307,57-420,86l-39,11l57,31c163,92,276,224,368,431
		c27,61,67,150,89,197c45,99,52,171,20,210l-18,23l-84-54c-46-29-143-79-216-111c-74-31-159-72-190-91c-73-43-258-224-314-308
		c-47-71-88-162-89-197c0-13-1-23-3-23c-19,0-455,154-465,164c-3,3,1,8,9,10s44,14,81,26c98,31,194,99,360,254
		c81,76,158,146,172,157c21,17,26,29,26,68c0,87,10,84-295,88c-303,4-342-2-455-63c-136-74-285-208-331-296c-11-21-23-38-27-38
		c-20,0-254,140-242,144c8,2,47,14,85,27c130,41,265,120,447,262c51,40,121,93,156,117c36,25,65,54,68,67c8,30-3,88-19,101
		c-14,12-317,28-457,24c-191-5-344-45-481-128c-75-46-173-136-210-194l-16-25l-59,39c-93,62-224,160-224,169c0,4,12,4,28,0
		c15-4,65-7,112-7c99,0,154,15,282,81c90,46,397,245,410,266c12,20,9,82-5,102c-11,14-38,21-118,30c-57,7-166,25-243,39
		c-333,63-453,58-615-24c-76-38-145-100-173-153l-20-40l-114,114c-63,62-114,116-114,120c0,3,37,4,83,1c171-8,281,34,562,216
		c235,152,215,135,215,191c0,80-13,89-191,128c-385,85-437,94-554,99c-205,10-389-43-493-142c-57-55-52-57-200,75
		c-205,181-363,296-502,366C6323,5254,6199,5277,6090,5260z"/>
</g>
</svg>
