<?xml version="1.0" encoding="utf-8"?>
<!-- Generator: Adobe Illustrator 25.2.0, SVG Export Plug-In . SVG Version: 6.00 Build 0)  -->
<svg version="1.1" id="Layer_1" xmlns="http://www.w3.org/2000/svg" xmlns:xlink="http://www.w3.org/1999/xlink" x="0px" y="0px"
	 viewBox="0 0 2200 2200" style="enable-background:new 0 0 2200 2200;" xml:space="preserve">
<g>
	<path d="M2093.4,1827.75c-0.57,0.66-21.31,0.85-59.3,0.75l-58.35-0.19l-0.09,20.46c-0.09,11.22-0.47,37.8-0.75,59.11l-0.57,38.65
		h-43.84c-24.13,0-51-0.09-59.77-0.28l-15.84-0.28l0.28-57.88l0.38-57.98h-8.48c-4.62,0-31.11-0.28-58.64-0.66l-50.25-0.57v58.07
		c0,31.86-0.28,58.64-0.57,59.48c-0.47,1.32-3.77,1.51-28.09,1.41c-15.08-0.09-41.86-0.47-59.49-0.75l-32.05-0.57l0.28-58.73
		l0.38-58.64h-12.63c-6.88,0-33.47-0.28-58.92-0.66l-46.48-0.57v4.15c-0.09,2.26-0.09,28.75,0,58.92c0.09,48.93-0.09,54.86-1.41,56
		c-1.23,1.04-12.26,1.13-59.58,0.66c-31.96-0.38-58.35-0.85-58.64-1.23c-0.28-0.28-0.57-26.87-0.57-59.11l0.09-58.64l-59.2-0.19
		l-59.2-0.19v10.09c0,24.23-1.13,106.34-1.51,107.47c-0.28,0.94-9.24,1.13-43.93,0.94c-24.04-0.09-50.81-0.38-59.48-0.57
		l-15.93-0.28l0.38-56.47l0.28-56.37l-5.18-0.38c-2.83-0.19-29.6-0.09-59.39,0.19l-54.21,0.47v58.17c0,39.03-0.38,58.54-1.04,59.2
		c-0.66,0.66-19.99,0.85-59.86,0.75l-58.83-0.28l-0.28-58.54l-0.19-58.64l-3.11-0.28c-1.6-0.19-28-0.19-58.54,0.09l-55.62,0.47
		v57.98l-0.09,57.98l-59.2,0.28c-46.85,0.19-59.2,0-59.48-0.94c-0.28-0.66-0.66-27.06-1.04-58.73c-0.28-31.58-0.66-57.51-0.85-57.69
		c-0.09-0.09-26.68-0.28-59.11-0.28l-58.83-0.09v58.26c0,32.05-0.38,58.82-0.75,59.39c-0.57,0.94-13.57,1.22-59.58,1.22
		c-54.68,0-58.73-0.09-59.3-1.6c-0.38-0.94-0.57-27.43-0.47-59.01c0.09-31.49-0.09-57.51-0.38-57.79
		c-0.66-0.66-115.67-0.47-116.8,0.19c-0.57,0.38-0.85,22.15-0.57,58.45c0.19,39.78,0,58.07-0.75,58.83
		c-0.66,0.66-19.42,0.85-59.86,0.75l-58.83-0.28l-0.28-58.73l-0.19-58.64h-3.11c-1.6,0-28.28-0.19-59.11-0.28l-56.09-0.19
		l-0.66-8.01c-0.28-4.43-0.57-31.2-0.66-59.67l-0.09-51.57h46.95c25.74,0,52.13-0.28,58.64-0.57s12.35-0.09,12.92,0.28
		c0.94,0.66,1.23,11.5,1.41,46c0.09,24.89,0.38,51.28,0.57,58.64l0.28,13.48h59.11h59.11v-58.83c0-32.33,0.19-59.11,0.47-59.3
		c0.28-0.28,26.87-0.66,59.2-0.75c50.72-0.28,58.92-0.09,59.67,1.04c0.57,0.94,0.85,22.62,0.66,59.39l-0.28,57.98h58.92h58.92
		v-58.92v-58.92l59.3-0.28c46.85-0.19,59.48,0,60.14,0.94c0.38,0.66,0.75,17.53,0.75,37.52c-0.09,19.98-0.09,45.91-0.09,57.79
		l0.09,21.4l58.64-0.19l58.54-0.28l-0.19-58.26l-0.28-58.17h47.98c26.3,0,52.23-0.28,57.41-0.66c5.28-0.28,10.65-0.28,12.07,0.09
		l2.45,0.57v40.44c0,22.15,0.28,48.64,0.66,58.82l0.57,18.57h59.01h59.01l-0.09-58.35c-0.09-32.15,0.19-58.82,0.47-59.3
		c0.38-0.66,22.15-1.04,59.3-1.22c50.72-0.28,58.83-0.09,59.67,1.04c0.57,0.85,0.85,22.34,0.75,56.85l-0.19,55.53l59.48,0.47
		l59.58,0.57l0.09-20.64c0.09-11.31,0-37.52-0.09-58.17c-0.09-28.75,0.19-37.9,1.04-39.03c1.04-1.23,8.3-1.32,59.67-0.75
		c32.24,0.38,58.82,0.85,59.2,1.13c0.38,0.19,0.38,26.58,0.09,58.64l-0.57,58.35l44.68,0.66c24.6,0.28,51.28,0.47,59.3,0.28
		l14.61-0.28v-58.45c0-33.28,0.38-59.01,0.85-59.77c0.75-1.13,9.61-1.23,59.3-0.66c32.15,0.38,58.82,0.85,59.3,1.13
		c0.47,0.28,0.66,26.87,0.47,59.11l-0.28,58.64l59.11,0.28l59.2,0.19l0.28-13.39c0.19-7.45,0.47-33.75,0.57-58.64
		c0.09-24.79,0.47-45.44,0.75-45.91c0.57-1.04,39.59-1.13,85.98-0.19l33.28,0.57l-0.19,57.6l-0.19,57.6l17.35,0.57
		c9.52,0.28,35.92,0.57,58.64,0.66l41.2,0.19l0.09-20.46c0.09-11.31,0-37.43-0.09-58.07c-0.09-28.85,0.19-37.9,1.04-39.03
		c1.04-1.23,8.3-1.32,59.67-0.75c32.24,0.38,58.83,0.85,59.2,1.13C2095.76,1710.67,2094.44,1826.62,2093.4,1827.75z"/>
	<path d="M265.93,1485.67c0.06,0.65,0.01,0.82-0.21,0.92c-0.31,0.16-1.17,0.31-4.75,0.86c-1.32,0.21-3.17,0.5-4.09,0.67
		c-0.94,0.16-2.2,0.37-2.81,0.46c-1.17,0.16-4.1,0.64-5.5,0.89c-0.45,0.07-1.22,0.21-1.71,0.3c-0.91,0.15-3,0.55-6.98,1.34
		c-1.93,0.39-3.52,0.76-7.87,1.86c-2.57,0.64-7.98,2.41-10.56,3.45c-1.29,0.52-3.49,1.6-4.74,2.33c-1.5,0.89-5.56,3.54-6.54,4.26
		c-0.4,0.31-1.04,0.77-1.4,1.04c-3.11,2.32-11.16,10.07-15.07,14.53c-1.1,1.25-2.7,3.43-3.7,5.02c-1.19,1.89-3.83,7.16-3.83,7.62
		c0,0.07-0.12,0.42-0.28,0.77c-0.4,0.89-0.83,2.11-1.17,3.22c-0.71,2.42-0.91,3.09-1.05,3.79c-0.09,0.4-0.48,2.01-0.85,3.57
		c-0.37,1.55-0.77,3.25-0.89,3.79c-0.13,0.53-0.28,1.13-0.34,1.34c-0.07,0.21-0.21,0.73-0.3,1.16c-0.09,0.42-0.24,1.08-0.31,1.48
		c-0.13,0.62-0.83,3.66-1.19,5.15c-0.07,0.33-0.25,1.13-0.39,1.78c-0.13,0.65-0.3,1.43-0.36,1.71c-0.06,0.28-0.16,0.76-0.22,1.04
		c-0.06,0.28-0.22,1.08-0.37,1.78c-0.16,0.7-0.46,2.17-0.68,3.27c-0.21,1.1-0.45,2.3-0.53,2.67c-0.07,0.37-0.27,1.37-0.42,2.23
		c-0.16,0.86-0.36,1.86-0.45,2.23c-0.09,0.37-0.21,0.97-0.28,1.34c-0.07,0.37-0.24,1.2-0.36,1.86c-0.13,0.65-0.37,1.99-0.55,2.97
		c-0.16,0.98-0.34,1.95-0.39,2.15c-0.18,0.77-0.39,2.08-0.67,4.16c-0.16,1.19-0.36,2.59-0.45,3.12c-0.24,1.55-0.4,2.99-0.73,6.31
		c-0.39,4.03-0.56,5.71-0.73,6.98c-0.06,0.57-0.24,1.98-0.37,3.12c-0.59,4.96-0.97,7.28-1.55,9.81c-0.47,2.04-0.8,2.44-1.57,1.93
		c-0.64-0.42-0.82-1.07-0.99-3.51c-0.09-1.26-0.22-2.66-0.3-3.1c-0.13-0.76-0.36-3.12-0.71-7.58c-0.18-2.29-0.39-3.25-0.73-3.51
		c-0.28-0.19-0.43-1.29-0.77-5.7c-0.22-2.81-0.56-4.58-0.89-4.68c-0.34-0.1-0.37-0.31-0.82-5.14c-0.36-4.03-0.56-5.05-1.01-5.23
		c-0.15-0.06-0.25-0.43-0.31-1.1c-0.45-4.35-0.64-5.63-1.35-8.59c-0.19-0.82-0.46-2.36-0.59-3.42c-0.13-1.07-0.52-3.27-0.85-4.9
		c-0.33-1.63-0.76-3.98-0.94-5.2c-0.58-3.69-0.65-4.04-1.41-7c-0.92-3.64-2.39-8.08-3.89-11.8c-1.71-4.23-1.95-4.77-3.6-8.17
		c-1.43-2.9-1.46-2.96-2.66-4.81c-1.38-2.09-2.36-3.27-4.92-5.81c-2.38-2.36-4.07-3.83-7.07-6.1c-5.05-3.82-8.36-5.88-13.74-8.54
		c-8.07-3.98-14.4-6.42-21.69-8.33c-0.33-0.09-0.76-0.21-0.96-0.27c-0.34-0.12-0.95-0.27-4.16-1.03c-0.7-0.18-2.3-0.5-3.57-0.76
		c-1.26-0.25-2.6-0.5-2.97-0.58c-1.89-0.37-2.5-0.49-4.68-0.91c-1.31-0.24-2.67-0.51-3.05-0.59c-0.37-0.08-1.74-0.36-3.05-0.61
		c-4.44-0.85-10.16-2.35-11.35-2.96c-0.73-0.37-0.86-0.58-0.79-1.34l0.06-0.59h1.81c0.98,0,3.07-0.06,4.62-0.15
		c1.56-0.07,4.16-0.22,5.79-0.3c3.95-0.21,9.33-0.57,10.99-0.74c4.13-0.43,8.66-1.01,11.37-1.47c0.37-0.07,1.77-0.3,3.12-0.52
		c3-0.47,3.21-0.52,6.91-1.37c3.31-0.77,3.15-0.73,5.72-1.46c2.63-0.74,7.24-2.32,8.99-3.06c1.52-0.65,3.94-1.78,4.9-2.27
		c8.27-4.26,16.02-11.41,19.83-18.3c1.11-2.02,3.25-6.7,3.64-7.95c0.06-0.21,0.19-0.58,0.3-0.82c0.27-0.59,0.96-2.66,1.11-3.24
		c0.07-0.27,0.33-1.17,0.59-2.04c0.25-0.86,0.52-1.83,0.58-2.15c0.07-0.33,0.4-1.65,0.74-2.94c0.52-2.06,1-4.32,1.35-6.49
		c0.19-1.15,1.05-6.85,1.2-7.92c0.13-1.03,0.3-2.2,0.56-4.04c0.09-0.58,0.22-1.55,0.31-2.15c0.07-0.61,0.22-1.55,0.3-2.08
		c0.16-0.97,0.33-2.02,0.59-3.86c0.09-0.53,0.21-1.47,0.3-2.08c0.15-1.19,0.37-2.78,0.61-4.23c0.34-2.05,0.53-3.39,1.47-10.4
		c0.09-0.58,0.21-1.51,0.3-2.08c0.07-0.58,0.25-1.87,0.37-2.9c0.12-1.03,0.25-2.07,0.3-2.3c0.06-0.4,0.13-1.03,0.52-4.38
		c0.06-0.61,0.22-1.95,0.34-2.97c0.13-1.03,0.28-2.39,0.34-3.03c0.07-0.97,0.16-1.25,0.46-1.54c0.34-0.34,0.43-0.36,1.48-0.25
		c1.37,0.12,2.01,0.37,2.41,0.95c0.64,0.88,0.79,1.51,0.92,3.86c0.3,4.74,0.44,6.97,0.58,8.33c0.06,0.77,0.19,2.14,0.28,3.05
		c0.09,0.89,0.19,1.87,0.24,2.15c0.05,0.28,0.19,1.62,0.31,2.97c0.13,1.35,0.3,2.85,0.36,3.34c0.3,2.09,0.43,3.09,0.65,4.98
		c0.43,3.67,0.55,4.53,0.68,5.17c0.09,0.34,0.15,0.83,0.15,1.08c0,0.24,0.06,0.73,0.13,1.07c0.16,0.76,0.39,2.26,0.7,4.71
		c0.22,1.84,0.33,2.51,0.64,4.23c0.22,1.29,0.45,2.68,0.61,3.86c0.07,0.57,0.21,1.41,0.3,1.86c0.16,0.86,0.39,2.17,0.59,3.27
		c0.33,1.86,0.76,3.95,1.03,5.01c0.16,0.64,0.4,1.59,0.53,2.13c0.8,3.28,1.49,5.48,2.78,9.06c0.3,0.85,1.41,3.43,2.29,5.32
		c0.28,0.61,0.51,1.13,0.51,1.16c0,0.3,3.06,6.15,3.74,7.15c0.22,0.34,0.42,0.65,0.42,0.7c0,0.06,0.39,0.64,0.85,1.32
		c3.39,4.92,7,8.8,10.15,10.91c4.83,3.22,8.97,4.92,16.05,6.57c1.1,0.25,2.27,0.53,2.6,0.61c0.33,0.07,0.97,0.21,1.41,0.3
		c0.44,0.09,2.15,0.42,3.79,0.73c1.63,0.33,3.24,0.62,3.57,0.67c0.33,0.04,1.37,0.22,2.3,0.4c0.94,0.16,2.08,0.36,2.53,0.43
		c0.45,0.07,1.43,0.24,2.15,0.36c0.74,0.12,2.11,0.33,3.05,0.46c2.08,0.3,3.36,0.49,4.53,0.67c1.22,0.19,4.65,0.57,6.91,0.74
		c1.02,0.07,2.23,0.18,2.67,0.22c0.45,0.04,3.33,0.15,6.39,0.22c5.99,0.13,7.1,0.24,7.8,0.65
		C265.2,1483.75,265.85,1484.78,265.93,1485.67z M2136.46,1409.14h-1.93c-1.04,0-3.28-0.06-4.92-0.16
		c-1.66-0.08-4.43-0.24-6.17-0.32c-4.21-0.22-9.94-0.6-11.72-0.79c-4.4-0.46-9.23-1.08-12.11-1.57c-0.4-0.08-1.88-0.32-3.32-0.55
		c-3.2-0.51-3.42-0.55-7.36-1.46c-3.53-0.82-3.36-0.77-6.09-1.55c-2.8-0.79-7.71-2.47-9.58-3.26c-1.61-0.7-4.2-1.9-5.22-2.42
		c-8.82-4.54-17.07-12.16-21.13-19.5c-1.19-2.15-3.47-7.14-3.88-8.47c-0.06-0.22-0.21-0.62-0.32-0.87
		c-0.29-0.63-1.03-2.83-1.19-3.45c-0.08-0.29-0.35-1.25-0.63-2.17c-0.27-0.92-0.55-1.95-0.62-2.3c-0.08-0.35-0.43-1.76-0.79-3.13
		c-0.55-2.2-1.06-4.61-1.44-6.92c-0.21-1.22-1.12-7.3-1.28-8.44c-0.14-1.09-0.32-2.34-0.6-4.31c-0.09-0.62-0.24-1.65-0.33-2.3
		c-0.08-0.65-0.24-1.65-0.32-2.22c-0.17-1.03-0.35-2.15-0.63-4.12c-0.09-0.57-0.22-1.57-0.32-2.22c-0.16-1.27-0.4-2.96-0.65-4.51
		c-0.36-2.19-0.57-3.61-1.57-11.08c-0.09-0.62-0.22-1.61-0.32-2.22c-0.08-0.62-0.27-1.99-0.4-3.09c-0.13-1.09-0.27-2.2-0.32-2.45
		c-0.06-0.43-0.14-1.09-0.55-4.67c-0.06-0.65-0.24-2.07-0.36-3.17c-0.14-1.09-0.3-2.55-0.36-3.23c-0.08-1.03-0.17-1.33-0.49-1.65
		c-0.36-0.36-0.46-0.38-1.58-0.27c-1.46,0.13-2.14,0.4-2.57,1.01c-0.68,0.93-0.84,1.61-0.98,4.12c-0.32,5.05-0.47,7.42-0.62,8.88
		c-0.06,0.82-0.21,2.28-0.3,3.25c-0.1,0.95-0.21,2-0.25,2.3c-0.05,0.3-0.21,1.73-0.33,3.17c-0.14,1.44-0.32,3.04-0.38,3.56
		c-0.32,2.23-0.46,3.29-0.7,5.3c-0.46,3.91-0.58,4.83-0.73,5.51c-0.09,0.36-0.16,0.89-0.16,1.16c0,0.25-0.06,0.78-0.14,1.14
		c-0.17,0.81-0.41,2.41-0.74,5.02c-0.24,1.96-0.35,2.67-0.68,4.51c-0.24,1.38-0.47,2.85-0.65,4.12c-0.08,0.6-0.22,1.5-0.32,1.98
		c-0.17,0.92-0.41,2.31-0.63,3.48c-0.35,1.98-0.81,4.21-1.09,5.33c-0.17,0.68-0.43,1.69-0.57,2.26c-0.86,3.5-1.58,5.84-2.96,9.66
		c-0.32,0.9-1.5,3.66-2.44,5.67c-0.3,0.65-0.54,1.2-0.54,1.23c0,0.32-3.26,6.55-3.99,7.61c-0.24,0.37-0.44,0.7-0.44,0.75
		c0,0.06-0.41,0.68-0.9,1.41c-3.61,5.24-7.46,9.37-10.81,11.62c-5.14,3.44-9.56,5.24-17.1,7c-1.17,0.27-2.42,0.57-2.77,0.65
		c-0.35,0.08-1.03,0.22-1.5,0.32c-0.47,0.09-2.3,0.44-4.04,0.78c-1.74,0.35-3.45,0.66-3.8,0.71c-0.35,0.05-1.46,0.24-2.45,0.43
		c-1,0.17-2.22,0.38-2.69,0.46c-0.48,0.08-1.52,0.25-2.3,0.38c-0.79,0.13-2.25,0.35-3.25,0.49c-2.22,0.32-3.58,0.52-4.83,0.71
		c-1.3,0.21-4.96,0.6-7.36,0.79c-1.09,0.08-2.37,0.19-2.85,0.24c-0.48,0.05-3.55,0.16-6.81,0.24c-6.38,0.14-7.57,0.25-8.31,0.7
		c-0.86,0.51-1.55,1.6-1.63,2.55c-0.06,0.7-0.02,0.87,0.22,0.98c0.33,0.17,1.25,0.33,5.07,0.92c1.41,0.22,3.37,0.54,4.35,0.71
		c1,0.17,2.34,0.4,2.99,0.49c1.25,0.17,4.37,0.68,5.86,0.95c0.48,0.08,1.3,0.22,1.82,0.32c0.96,0.16,3.2,0.59,7.44,1.42
		c2.06,0.41,3.75,0.81,8.39,1.98c2.74,0.68,8.5,2.56,11.26,3.67c1.38,0.55,3.72,1.71,5.05,2.48c1.6,0.95,5.92,3.77,6.97,4.54
		c0.43,0.33,1.11,0.82,1.49,1.11c3.31,2.47,11.89,10.73,16.05,15.48c1.17,1.33,2.88,3.66,3.94,5.35c1.27,2.01,4.08,7.63,4.08,8.12
		c0,0.08,0.13,0.44,0.3,0.83c0.43,0.95,0.89,2.25,1.25,3.43c0.76,2.58,0.97,3.29,1.12,4.04c0.09,0.43,0.51,2.14,0.9,3.8
		c0.4,1.65,0.82,3.47,0.95,4.04c0.14,0.57,0.3,1.2,0.36,1.42c0.08,0.22,0.22,0.78,0.32,1.23c0.1,0.44,0.25,1.16,0.33,1.58
		c0.14,0.66,0.89,3.89,1.27,5.49c0.08,0.35,0.27,1.2,0.41,1.9c0.14,0.7,0.32,1.52,0.38,1.82c0.06,0.3,0.17,0.81,0.24,1.11
		c0.06,0.3,0.24,1.16,0.4,1.9c0.17,0.74,0.49,2.31,0.73,3.48c0.22,1.17,0.48,2.45,0.57,2.85c0.08,0.4,0.29,1.46,0.44,2.37
		c0.17,0.92,0.38,1.98,0.47,2.38c0.09,0.4,0.22,1.03,0.3,1.43s0.25,1.28,0.38,1.98c0.14,0.7,0.4,2.12,0.59,3.17
		c0.17,1.05,0.36,2.07,0.41,2.3c0.19,0.82,0.41,2.22,0.71,4.43c0.17,1.27,0.38,2.76,0.48,3.32c0.25,1.65,0.43,3.18,0.77,6.73
		c0.41,4.29,0.6,6.08,0.78,7.44c0.06,0.6,0.25,2.11,0.4,3.32c0.63,5.29,1.03,7.76,1.65,10.45c0.51,2.17,0.85,2.6,1.68,2.06
		c0.68-0.44,0.87-1.14,1.06-3.74c0.1-1.35,0.24-2.83,0.32-3.31c0.14-0.81,0.38-3.32,0.76-8.07c0.19-2.44,0.41-3.47,0.78-3.73
		c0.3-0.21,0.46-1.38,0.82-6.08c0.24-2.99,0.6-4.88,0.95-4.99c0.36-0.11,0.4-0.33,0.87-5.48c0.38-4.29,0.6-5.38,1.08-5.57
		c0.16-0.06,0.27-0.46,0.33-1.17c0.47-4.64,0.68-6,1.44-9.15c0.21-0.87,0.49-2.52,0.63-3.64c0.14-1.14,0.55-3.48,0.9-5.22
		c0.35-1.74,0.81-4.24,1-5.54c0.62-3.93,0.7-4.31,1.5-7.46c0.98-3.88,2.55-8.61,4.15-12.57c1.82-4.51,2.07-5.08,3.83-8.71
		c1.52-3.09,1.55-3.15,2.83-5.13c1.47-2.23,2.52-3.48,5.24-6.19c2.53-2.52,4.34-4.08,7.54-6.51c5.38-4.07,8.91-6.27,14.64-9.1
		c8.6-4.24,15.34-6.84,23.11-8.88c0.35-0.1,0.81-0.22,1.03-0.29c0.36-0.13,1.01-0.29,4.43-1.09c0.74-0.19,2.45-0.54,3.8-0.81
		c1.34-0.27,2.77-0.54,3.17-0.62c2.01-0.4,2.66-0.52,4.99-0.96c1.39-0.25,2.85-0.54,3.25-0.63c0.4-0.08,1.85-0.38,3.25-0.65
		c4.73-0.9,10.83-2.5,12.1-3.15c0.77-0.4,0.92-0.62,0.84-1.43L2136.46,1409.14z"/>
	<path d="M1030.21,398.3c0.1,51.06-32.7,132.7-85.42,219.66c-31.18,51.42-110.44,160.72-142.37,195.77
		c-36.93,40.54-57.43,55.61-69.41,50.75c-16.44-6.66-149.44-178.45-188.2-246.99c-60.26-106.57-73.91-225.29-34.25-290.85
		c20.07-33.18,60.5-50.04,100.1-41.4c26.69,5.94,44.01,18.67,67.62,48.16c25.51,31.85,48.94,78.62,68.07,130.5
		c5.69,15.56,8.54,23.27,14.24,38.53c10.15-23.58,15.22-35.36,25.36-58.83c14.23-31.76,33.48-70.2,42.71-84.39
		C901.37,247.49,1029.99,282.56,1030.21,398.3z"/>
	<path d="M519.27,694.46c6.42,24.41,10.03,49.1,5.3,73.51c-4.06,21.03-11.23,41.17-17.38,61.42c-1.36,4.51-4.01,8.61-6.49,12.55
		c-4.23,6.68-9.76,10.65-17.72,10.29c-26.48-1.22-52.97-2.89-79.47-5.19c-35.28-3.04-70.58-7.23-105.87-13.08c0-0.3,0-0.6,0-0.87
		c-54.71-8.58-109.41-20.91-164.12-37.89c-17.43-5.4-34.77-8.91-52.25-16.09c-7.59-3.12-11.92-8.21-11.67-15.06
		c0.29-7.94,1.87-15.06,5.19-21.3c18.86-35.42,28.9-78.31,37.89-122.32c3.29-16.08,6.29-32.4,9.09-48.91
		c0.89-5.2,0.84-10.78,1-16.26c0.25-9.14,0.22-18.32,0.47-27.47c1.8-65.19-8.24-131.17-23.54-194.67c-1.29-5.33-1.86-10.86-3.61-16
		c-3.76-11.05-5.15-23.12-15-31.32c-3.78-3.13-3.38-7.69-1-12.11c2.33-4.31,5.56-6.65,10.41-6.67c21.15-0.07,42.33,0.05,63.49-0.4
		c16.56-0.37,33.24-3.3,49.63-1.76c20.84,1.96,41.81-6.61,62.43,2.07c1.55,0.65,3.84,0.9,5.19,0.06c12.77-7.77,25.83,2,39.03-0.76
		c8.02-1.69,17.25,2.7,24.85,8.57c3.41,2.64,4.81,5.85,3.16,10.32c-1.38,3.74-2.32,8.06-4.57,10.93
		c-13.17,16.77-15.56,38.15-18.68,58.73c-5.85,38.5-10.76,76.83-15.55,114.82c-1.22,9.73-0.7,19.87-0.8,29.82
		c-0.51,51.64,2.26,103,8.46,154.56c2.59,21.62,2.9,43.31,7.06,64.99c4.32,22.51,8.82,44.92,15.49,66.99
		c1.36,4.48,4.08,6.89,7.78,7.6c22.84,4.41,45.69,8.13,68.55,11.2c3.46,0.48,7.06,0.32,10.47-0.2c8.31-1.28,12.5-12.96,7.24-20.51
		c-4.46-6.39-10.07-11.88-14.27-18.5c-18.96-29.77-23.18-61.48-10.47-93.21c11.68-29.12,41.88-43.81,73.01-35.4
		c7.42,1.99,14.93,7.25,20.88,13.05C505.14,661.96,514.53,676.41,519.27,694.46z M1615.7,273.2c-7.49-10.1-19.19-16.09-32.85-19.97
		c-24.12-6.85-48.01-6.11-72.57-0.68c-17.52,3.88-28.01,13.85-38.67,23.79c-8.74,8.13-12.23,18.43-12.84,29.42
		c-0.94,17.19,1.2,34.1,9,50.51c10.97,23.08,12.41,48.09,16.91,72.89c0.63,3.46-0.8,7.34-1.89,10.93
		c-4.66,15.23-8.69,30.79-14.57,46.07c-6.11,15.94-14.06,31.61-21.84,49.21c-3.57-3.06-5.17-3.91-5.97-5.17
		c-26.28-41.79-53.8-79.86-77.11-121.2c-9.32-16.53-15.22-34.22-20.84-51.91c-7-22.03-11.68-44.99-9.7-68.32
		c0.25-2.99,0.31-5.99,0.02-8.96c-0.69-7.09-7.44-12.63-15.76-11.98c-16.58,1.29-33.07-0.19-49.63,0.4
		c-17.63,0.63-35.28,0.48-52.93,1.04c-11.41,0.35-22.93-0.89-34.17,2.85c-3.16,1.04-7.09,0.94-10.43,0.31
		c-33.43-6.31-66.59,1.02-99.84,3.48c-1.7,0.12-3.37,0.94-5.04,1.54c-4.35,1.58-9.14,8.81-7.78,12.88
		c3.08,9.08,3.41,19.43,10.96,26.37c17.39,15.99,28.59,36.49,42.28,54.42c23.42,30.64,44.48,61.89,66.37,91.64
		c9.03,12.31,18.47,24.27,26.26,37.13c15.62,25.73,30.44,51.58,45.18,77.25c16.34,28.47,29.2,58.46,37.35,91.32
		c2.74,11.02,4.68,21.95,4.79,33.73c0.15,14.97,1.43,16.22,16.85,17.52c4.19,0.35,8.45,1.11,12.72,0.37
		c15.87-2.81,31.74-6.14,47.61-8.96c6.33-1.12,12.03-4.56,18.01-6.68c9.87-3.48,15.53-10.21,19.66-18.46
		c3.21-6.39,5.21-13.14,8.31-19.52c16.69-34.37,33.56-65.39,46.54-97.78c19.3-48.14,40.27-93.74,65.57-136.31
		c3.94-6.62,6.28-13.87,10.52-20.23c8.54-12.84,17.32-25.48,27.1-37.45c9.74-11.94,18.61-24.21,30.93-34.64
		c12.82-10.85,20.66-24.27,26.3-38.72C1624.64,290.71,1622.14,281.88,1615.7,273.2z M1953.57,350.86
		c1.56,22.69,14.67,40.97,35.15,57.22c10.1,8.03,21.08,9.34,31.6,14.08c7.87,3.54,13.66,0.46,20.33,0.22
		c2.58-0.1,4.99-0.99,7.53-1.37c44.06-6.82,49.62-37.99,46-70.6c-1.35-12.16-6.82-22.12-13.4-31.88
		c-22.98-34.09-53.27-53.31-94.79-53.95c-11.45-0.18-22.93-0.23-34.37-0.76c-12.23-0.58-25.13-4.11-36.46-1.8
		c-12.18,2.49-22.49-2.39-33.85-1.84c-15.82,0.79-31.75,0.12-47.63-0.07c-16.75-0.19-33.6,0.11-50.26-1.02
		c-15.79-1.07-33.08,2.06-46.92,1.05c-30.09-2.2-69.87,5.87-105.04,6.34c-1.74,0.02-3.48,0.44-5.19,0.79
		c-5.66,1.17-9.56,7.45-6.88,11.62c3.98,6.2,8.89,12.13,12.53,18.52c15.13,26.7,21.73,55.64,26.19,85.27
		c1.83,12.16,2.18,24.58,2.16,36.96c-0.02,13.18-0.64,26.48-2.07,39.72c-3.26,30.14-7.17,60.57-10.85,91.44
		c-0.18,1.51-0.78,2.96-1.05,4.46c-2.87,15.68-6.24,31.4-8.42,47.38c-2.72,19.86-6.87,39.48-15.07,58.59
		c-4.44,10.35,0.99,17.45,12.91,17c11.4-0.43,22.78-1.49,34.17-2.05c2.58-0.13,5.46-0.75,7.75,0.02
		c12.04,4.06,24.51,2.79,36.77,4.01c28.97,2.9,57.94,6.15,86.92,11.24c37.75,6.65,75.8,11.07,113.73,19.08c0,0.07,0,0.13,0,0.18
		c18.52,3.91,37.06,8.37,55.6,13.11c19.21,4.9,38.43,8.76,57.66,16.1c4.37,1.67,8.81,2.89,13.19,3.88c5.5,1.26,9.9-1.72,9.74-7.15
		c-0.74-25.12-0.91-50.1-3.07-75.42c-1.05-12.31-2.64-24.73,0.29-35.47c1.59-5.81-1.59-11.99-0.25-17.48
		c1.32-5.41,1.83-11.28,2.52-17.01c0.51-4.22-0.47-8.48-2.76-12.93c-3.36-6.58-11.83-9.66-15.2-5.01
		c-5.86,8.09-11.08,16.62-16.81,24.69c-8.82,12.44-16.25,26.14-27.1,36.42c-27.84,26.41-62.09,43.31-104.82,49.64
		c-6.86,1.03-13.8-0.31-20.82-1.55c-4.32-0.76-8.43-5.42-7.49-9.27c3.45-14.33,3.63-29.3,3.37-44.31
		c-0.11-6.25-1.83-12.79-1.16-18.8c3.21-29.26-1-59.42,1.32-88.53c0.31-3.81-0.27-7.79-0.82-11.7
		c-2.19-15.64,0.89-18.41,17.03-14.47c3.46,0.84,6.91,1.89,10.29,3.12c31.71,11.52,57.39,30.96,75.87,59.65
		c2.96,4.58,5.82,9.22,8.94,13.77c3.05,4.45,7.84,6.59,11.54,5.52c3.54-1.03,4.92-3.77,4.73-7.16c-0.44-8.29-1.23-16.63-2.03-24.94
		c-0.54-5.8-1.82-11.7-1.87-17.38c-0.16-18.87,0.15-37.7,0.07-56.52c-0.07-15.56-0.27-31.11-0.83-46.65
		c-0.15-3.94-1.36-8.15-2.97-11.99c-2.78-6.57-10.03-8.02-14.69-3.4c-9.03,8.97-17.69,18.21-27.21,26.53
		c-18.86,16.48-41.66,26.75-68.62,30.92c-8.14,1.25-12.16-0.77-12.82-7.17c-0.24-2.32-0.31-4.65-0.33-6.95
		c-0.58-50.88-1.34-101.22-1.6-150.92c-0.06-12.26-3.19-17.31,18.81-16.19c1.72,0.1,3.54-0.12,5.22-0.51
		c25.18-5.81,48.74,1.54,72.27,8.73c8.82,2.7,10.65,6.5,8,14.73C1953.81,322.41,1952.61,336.79,1953.57,350.86z"/>
	<path d="M742.88,1142.26c-3.88-2.44-8.76-4.63-13.6-4.98c-20.24-1.41-39.91,9.87-47.51,26.92c-8.27,18.57-5.51,35.25,6.82,49.55
		c2.72,3.17,6.38,5.62,9.29,8.67c3.43,3.61,0.69,10.34-4.72,11.79c-2.21,0.6-4.55,1.01-6.8,1.09c-14.87,0.49-29.75,0.78-44.62,0.88
		c-2.39,0.01-4.17-1-5.06-3.26c-4.34-11.14-7.26-22.73-10.07-34.4c-2.7-11.26-2.9-22.98-4.61-34.43
		c-4.03-27.31-5.82-55.09-5.5-83.48c0.06-5.47-0.29-10.99,0.53-16.46c3.12-21.39,6.31-46.12,10.12-69.6
		c2.04-12.54,3.57-25.52,12.15-36.32c1.47-1.85,2.07-4.48,2.97-6.79c1.07-2.74,0.16-4.57-2.05-5.93
		c-4.95-3.06-10.96-5.21-16.18-3.79c-8.58,2.33-17.09-3.06-25.39,2.26c-0.89,0.56-2.38,0.5-3.37,0.17
		c-13.42-4.53-27.06,1.46-40.63,0.71c-10.67-0.58-21.51,1.62-32.29,2.05c-13.79,0.57-27.56,0.57-41.32,0.52
		c-3.15-0.01-5.26,1.59-6.78,4.6c-1.54,3.09-1.81,6.31,0.65,8.49c6.42,5.69,7.31,13.99,9.76,21.5c1.14,3.51,1.52,7.29,2.36,10.9
		c9.94,43,16.47,83.76,15.31,121.46c-0.16,5.27-0.15,10.55-0.31,15.82c-0.09,3.16-0.07,6.35-0.63,9.43
		c-1.83,9.78-3.77,19.5-5.93,29.15c-5.84,26.36-12.37,52.26-24.65,76.1c-1.1,2.12-1.9,4.31-2.45,6.55c0.07-1.54-0.34-3.11-1.5-4.46
		c-2.48-2.89-5.48-5.45-8.05-8.3c-15.87-17.52-31.56-35.55-43.88-55.8c-12.55-20.62-25.22-41.54-35.44-63.68
		c-6.7-14.51-14.13-28.96-21.11-43.66c-3.59-7.6-7.07-14.21-10.36-23.24c-9.68-26.44-17.74-53.5-25.1-80.81
		c-2.01-7.46-4.08-14.94-6.54-22.33c-2.19-6.6-6.16-11.54-12.86-12.66c-11.49-1.93-22.77-6.09-34.07-10.45
		c-3.36-1.29-6.88-1.7-10.32-2.23c-10.41-1.6-16.33,1.78-17.77,12.16c-1.96,14.19-6.09,27.11-9.82,40.21
		c-11.16,39.12-27.54,70.29-49.08,96.21c-19.04,22.9-39.23,44.63-62.56,63.19c-12.23,9.71-24.8,18.81-39.82,24.73
		c-5.41,2.15-10.35,5.06-15.34,7.85c-1.92,1.09-1.51,3.45,0.16,6.15c2.61,4.2,5.46,7.8,9.93,9.71
		c13.01,5.58,25.99,11.29,39.01,16.06c15.46,5.67,31.06,10.71,49.25,15.93c14.2,4.08,31.57,8.5,48.76,12.39
		c2.2,0.5,4.47,0.38,6.56,0.12c0.67-0.06,1.46-1.68,1.14-2.25c-1.41-2.55-3.12-5.04-4.88-7.48c-14.78-20.47-27.73-42.22-37.89-65.32
		c-1.51-3.43-0.04-5.24,3.56-4.44c17.09,3.83,34.16,6.71,51.28,10.38c16.62,3.57,33.28,7.92,49.92,11.54
		c4.92,1.07,7.15,3.53,7.56,8.26c0.78,8.84,3.75,17.93,1.71,26.38c3.1,9.61-1,17.2-3.19,25.33c-0.52,1.88-1.75,3.51-2.32,5.38
		c-0.97,3.16,0.89,6.51,4.44,7.89c2.74,1.06,5.75,2.62,8.33,2.54c15.36-0.5,30.89,3.37,46.34,4.87c17.2,1.67,34.45,3.79,51.64,4.86
		c10.85,0.68,21.49-1.03,32.49,0.42c8,1.05,16.09,1.18,24.11,1.54c2.86,0.13,5.75,0.21,8.6-0.01c3.4-0.28,5.88-2.48,6.79-5.12
		c-0.29,1.58-0.5,3.18-0.57,4.82c-0.16,3.98,2.65,6.04,7.6,6.38c11.37,0.77,22.66-0.36,33.99-0.28c35.61,0.26,71.21-0.6,106.82-2.36
		c0,0.15,0,0.31-0.02,0.48c22.96-0.96,45.96-2.38,68.91-3.96c17.22-1.19,34.5-2.45,51.71-3.79c5.18-0.4,8.78-3.31,11.52-7.5
		c1.63-2.45,3.34-5.04,4.24-7.68c3.99-11.88,8.65-23.86,11.3-35.97c3.07-14.07,0.73-27.28-3.45-39.95
		C756.99,1154.08,750.88,1147.29,742.88,1142.26z M277.59,1147.99c-2.68,0.44-5.29,0.35-8.33-0.63c-12.49-4.04-24.9-6.22-37.48-8.22
		c-15.88-2.55-32-7.26-48.65-12.52c3.5-9.79,12.34-14.45,15.49-23.1c3.48-9.59,12.73-13.89,16.85-22.84
		c3.84-8.34,9.21-15.8,16.7-23.82c10.21,15.69,20.8,28.73,29.05,42.81c8.61,14.68,14.66,29.44,19.34,44.5
		C281.5,1147.21,279.77,1147.63,277.59,1147.99z M1153.24,1017.25c-10.76,23.69-21.26,47.43-31.22,71.24
		c-10.92,26.11-21.11,52.31-31.6,78.29c-0.92,2.3-1.31,4.82-2.58,6.93c-6.69,11.07-3.23,12.15-18.76,15.09
		c-10.34,1.96-20.69,3.96-31,6.05c-4.04,0.82-6.44-1.01-7.78-3.97c-1.72-3.78-3.48-7.67-4.19-11.92
		c-1.29-7.69-4.97-13.82-8.02-20.43c-8.27-17.91-16.07-36.08-24.38-53.9c-7.89-16.93-16.18-33.58-24.38-50.33
		c-0.33-0.68-1.54-1.44-2.09-1.17c-1,0.49-2.25,1.64-2.61,2.64c-7.96,21.93-18.34,43.26-26.07,64.98
		c-5.06,14.25-10.99,28.37-17.2,42.27c-6.96,15.64-11.03,31.55-17.21,47.05c-1.11,2.78-2.03,5.58-3.16,8.34
		c-1.76,4.32-5.24,6.73-9.43,8.18c-1.14,0.41-2.29,0.68-3.45,0.92c-17.23,3.51-34.46,6.69-51.69,10.37
		c-5.75,1.21-8.34-0.94-10.19-4.9c-0.64-1.39-1.16-2.84-1.71-4.28c-5.71-14.78-10.37-30.29-17.41-44.42
		c-7.51-15.09-13.77-31.08-23-45.38c-5.57-8.59-9.69-18.3-14.75-27.38c-13.68-24.61-27.08-49.69-41.41-75.01
		c-11.39-20.16-24.56-39.65-38.47-59.14c-3.9-5.47-8.67-10-14.87-13.01c-4.35-2.1-5.71-6.63-5.39-11.89
		c0.25-4.34,2.25-7.29,6.13-7.73c24.08-2.69,48.23-5.1,72.36-9.45c6.87-1.24,13.79-2.54,20.62-3.11
		c24.54-1.97,49.16-7.11,73.75-11.99c5.86-1.15,9.72,1.57,10.63,6.97c0.85,4.99,0.15,10.35,1.43,15.35
		c9.07,35.62,21.78,68.37,41.12,96.55c8.07,11.77,15.96,23.72,23.45,35.88c2.88,4.71,5.68,9.58,12.12,11.21
		c1.65-2.79,3.57-5.42,4.75-8.2c6-14.22,11.66-28.61,17.81-42.9c1.72-4.01,1.51-6.93-0.4-9.53c-15.44-20.89-28.88-43.78-46.07-63.77
		c-9.41-10.95-19.48-21.4-31-30.33c-2.88-2.21-5.88-4.37-8.29-7.09c-1.29-1.43-1.69-3.9-2.01-6.09c-0.45-3.02,1.84-6.44,4.7-7.11
		c14.9-3.47,29.86-7.14,44.78-10.63c13.21-3.09,26.43-5.97,39.63-9.02c2.87-0.67,5.8-1.07,8.62-2.2
		c21.68-8.77,43.35-9.24,65.03-15.54c1.72-0.51,3.45-0.77,5.17-1.09c4.42-0.82,7.49,0.62,9.03,4.52c1.56,3.99,2.56,8.17,2.58,12.88
		c0.13,33.14,7.75,63.11,18.85,90.97c11.48,28.79,25.65,55.92,46.07,80.24c1.34-2.37,2.58-3.96,3.19-5.66
		c7.75-21.06,17.09-41.82,23.74-63.14c3.45-11.08,1.41-18.26-5.1-24.05c-4.93-4.36-10.23-8.3-15.06-12.79
		c-14.29-13.32-18.1-31.46-13.77-54.18c2.72-14.22,9.4-26.51,17.99-38.85c13.22-19.02,30.64-31.32,50.3-38.7
		c10.01-3.76,20.55-3.56,29.84-1.08c7.82,2.07,13.48,7.05,17.43,14.05c5.82,10.28,7.8,21.35,3.16,35.23
		c-2.9,8.7-5.86,17.39-9.85,25.83c-7.76,16.39-17.14,32.26-23.69,49.36c-3.75,9.81-9.83,19.29-15.35,28.73
		C1165.12,989.37,1159.51,1003.43,1153.24,1017.25z M1521.05,1078.77c-15.87-19.58-31.56-38.83-43.88-60.4
		c-12.55-21.96-25.22-43.29-35.44-65.73c-6.7-14.7-14.13-28.76-21.11-42.82c-3.59-7.27-7.07-14.54-10.36-21.89
		c-9.67-21.52-17.72-43.56-25.09-65.7c-2.01-6.05-4.08-12.07-6.55-17.85c-2.19-5.16-6.17-8.24-12.86-6.89
		c-11.5,2.31-22.76,2.8-34.06,3.33c-3.36,0.16-6.89,1.2-10.32,2.13c-10.41,2.8-16.34,8.43-17.78,18.5
		c-1.96,13.77-6.09,27.45-9.83,41.26c-11.16,41.25-27.53,82.31-49.07,122.45c-19.03,35.48-39.23,70.69-62.56,104.29
		c-12.23,17.59-24.81,34.69-39.81,49.96c-5.42,5.52-10.36,11.52-15.35,17.42c-1.92,2.29-1.51,4.41,0.16,6.12
		c2.61,2.66,5.46,4.59,9.92,3.87c13.02-2.08,25.99-3.68,39.02-5.98c15.45-2.72,31.17-5.83,49.25-9.48
		c14.25-2.88,31.58-6.6,48.76-10.25c2.19-0.46,4.48-1.65,6.57-2.91c0.67-0.38,1.45-2.57,1.12-3.07c-1.41-2.23-3.12-4.24-4.88-6.17
		c-14.78-16.09-27.73-33.46-37.89-53.07c-1.51-2.92-0.02-5.69,3.57-6.77c17.09-5.08,34.17-10.65,51.28-14.77
		c16.61-3.99,33.29-6.58,49.92-9.37c4.93-0.83,7.15,1.07,7.56,6.31c0.78,9.78,3.75,19.05,1.7,29.59c3.1,9.86-1,20.28-3.19,30.59
		c-0.51,2.39-1.74,4.76-2.32,7.16c-0.98,4.07,0.89,7.24,4.44,7.49c2.74,0.2,5.75,0.89,8.33-0.16c15.36-6.29,30.89-7.08,46.33-10.19
		c17.2-3.47,34.45-4.2,51.64-6.07c10.85-1.17,21.49-5.03,32.49-4.85c8,0.12,16.09-0.77,24.11-1.25c2.86-0.17,5.76-0.38,8.6-0.96
		c6.06-1.22,9.38-9.67,5.64-14.61C1526.62,1084.76,1523.63,1081.95,1521.05,1078.77z M1339.85,1020.71
		c-2.68,1.64-5.3,2.66-8.33,2.88c-12.5,0.92-24.91,4.25-37.49,8.17c-15.89,4.92-32,8.06-48.65,11.51
		c3.5-12.55,12.35-22.43,15.49-33.53c3.48-12.3,12.73-21.93,16.85-33.83c3.85-11.08,9.21-22,16.71-34.52
		c10.19,11.79,20.79,20.97,29.04,32.72c8.62,12.25,14.66,26.08,19.34,41.04C1343.75,1018.17,1342.02,1019.37,1339.85,1020.71z
		 M1790.83,816.58c-21.04,18.93-40.52,37.9-57.3,65.76c-8.85,14.7-14.91,31.16-20.61,47.82c-0.94,2.79-0.93,6.03-1.43,9.07
		c-0.6,3.62-0.78,7.47-1.99,10.81c-3.79,10.44-4.17,21.62-5.28,32.69c-0.62,6.19,0.51,12.56-1.71,18.59
		c-1.94,5.25,2.2,11.01-0.34,16.69c-1.03,2.33,0.34,6.06,0.69,9.16c0.36,3.13,1.27,6.33,1.13,9.41
		c-0.85,17.87,4.64,33.69,14.22,48.4c1.72,2.66,3.59,5.18,5.13,7.96c3.45,6.22,0.33,13.11-6.24,13.85
		c-2.27,0.26-4.57,0.27-6.86,0.24c-20.49-0.31-41.03-0.02-61.54,0.14c-9.61,0.07-19.24-0.84-28.88-1.03
		c-9.76-0.22-19.52-0.1-29.28-0.14c-7.47-0.03-14.95-0.18-22.24,2.33c-4.23,1.46-7.85,0.3-11.25-2.49c-3.85-3.15-5.3-6.64-3.95-11.3
		c2.09-7.24,5.02-14.28,6.51-21.61c5.41-26.53,8.49-53.26,5.99-79.67c-1.78-18.81-5.44-37.25-11.64-54.45
		c-2.39-6.65-4.17-13.47-6.37-20.09c-7.78-23.41-17.41-45.41-30.04-63.81c-4.5-6.56-8.98-13.12-13.33-19.74
		c-10.5-16.02-23.22-30.13-37.47-42.91c-5.51-4.93-11.06-9.82-16.45-14.6c2.29-4.01,5.55-5.24,8.83-6.27
		c1.65-0.53,3.43-0.51,5.13-0.71c15.22-1.79,30.44-2.27,45.69-3.63c7.84-0.71,15.88,0.02,23.91-0.47
		c26.38-1.63,52.8-2.52,79.19-2.77c4.03-0.04,8.05-0.19,12.04,0.05c1.67,0.11,3.01,1.25,2.99,3.09c-0.04,4.21,0.11,8.41-0.16,12.62
		c-1.34,20.86,4.12,40.7,11.45,60.27c9.92,26.51,26.66,52.55,47.98,76.25c0.8,0.9,1.76,1.65,2.72,2.35
		c0.45,0.33,1.09,0.36,1.92,0.64c6.42-12.12,10.65-25.32,14-38.7c3.16-12.52,2.94-24.14,0.51-35.13
		c-2.76-12.49-5.48-24.84-6.37-37.47c-0.56-7.89-0.16-15.56,0.63-23.3c1.25-12.03,9.11-19.78,19.81-24.84
		c5.8-2.73,12.72-4.2,19.39-4.75c17.29-1.39,34.26,1.88,50.52,10.03c4.79,2.39,8.85,5.38,11.99,9.87
		c4.63,6.58,5.71,12.22,3.01,19.26C1802.15,802.69,1797.83,810.28,1790.83,816.58z M2067.87,1110.22
		c-2.58,5.42-6.48,9.87-9.94,14.68c-9.14,12.75-27.1,16.78-43.15,18.81c-2.63,0.32-5.66-0.31-8.05,0.46
		c-16.34,5.13-34.86,1.83-52.77,0.81c-15.24-0.88-30.87-4.31-46.36-9.1c-3.39-1.04-6.91-2.3-10.03-4.29
		c-22.35-14.4-45.76-18.23-69.27-19.88c-9.96-0.69-18.79,2.73-26.72,8.55c-2.27,1.67-4.77,3.43-7.78,1.11
		c-4.06-3.14-8.04-7-7.26-12.71c4.19-31.27,5.19-68.32,1.51-94.66c-1.18-8.45-0.74-18.65,0.35-27.76c0.22-1.76,1.05-3.43,1.9-4.94
		c2.47-4.32,8.98-4.22,11.68,0.39c2.92,4.97,5.57,10.22,8,15.5c7.06,15.31,14.51,30.44,22.82,45.28
		c5.75,10.28,12.24,19.9,19.1,29.33c10.19,14.01,22.93,24.41,37.09,32.78c4.32,2.55,8.72,4.83,12.97,7.57
		c10.34,6.67,21.13,9.3,32.05,11.24c7.18,1.29,13.53,0.11,18.76-3.77c6.74-5.01,9.83-11.3,6.42-22.87
		c-6.33-21.54-16.54-40.35-33.07-56c-11.54-10.93-23.94-20.03-36.35-28.97c-8.27-5.95-16.47-11.92-24.65-17.9
		c-25.19-18.42-45.22-41.35-61.74-67.78c-11.9-19.04-18.27-41.69-17.47-60.26c0.09-2.11-0.15-4.33,0.45-6.24
		c2.34-7.3,3.95-15.06,7.65-21.57c10.36-18.16,22.85-34.37,43.68-43.02c19.92-8.29,40.88-13.6,63.14-15.67
		c2.14-0.2,4.44-0.02,6.71,0.27c16.4,2.03,33.25,4.58,48.59,8.96c17.04,4.86,35.01,11.92,51.71,21.53
		c25.61,14.71,45.06,35.66,58.21,62.7c3.79,7.78,5.62,15.94,8.25,23.99c0.4,1.2,0.53,2.55,0.29,3.48
		c-2.72,10.19-2.32,22.5-9.72,29.34c-8.56,7.9-22.26,9.79-40.01-1.99c-22.56-14.97-39.18-32.32-49.68-55.3
		c-5.7-12.49-11.37-24.85-16.96-37.09c-5.17-11.34-13.99-19.54-24.58-25.69c-9.09-5.27-18.07-6.88-26.3-3.63
		c-6.55,2.59-10.83,7.41-11.39,14.43c-0.58,7.18-0.54,14.77,0.69,22.32c1.32,8.14,4.75,16.24,10.99,23.84
		c8.36,10.16,17.16,19.96,27.82,28.52c17.01,13.67,34.88,27.88,52.08,43.28c12.64,11.31,25.97,21.68,37.96,34.7
		c11.03,11.96,21.37,24.34,29.53,38.4C2077.08,1049.3,2081.43,1081.85,2067.87,1110.22z"/>
	<path d="M878.07,1333.34c6.95,12.04,9.32,24.78,3.77,40.07c-3.46,9.57-7,19.08-11.79,28.12c-9.27,17.54-20.52,34.04-28.33,51.65
		c-4.48,10.11-11.77,19.5-18.36,28.77c-9.38,13.17-16.07,27.07-23.58,40.41c-12.86,22.88-25.43,45.2-37.35,67
		c-13.06,23.92-25.25,47.05-37.8,69.41c-1.11,1.97-1.56,4.27-3.08,6c-8,9.03-3.86,10.78-22.44,10.28
		c-12.35-0.32-24.7-0.59-37.08-0.8c-4.82-0.08-7.69-2.32-9.31-5.41c-2.07-3.97-4.15-8.05-5.01-12.27
		c-1.54-7.64-5.95-14.35-9.6-21.39c-9.9-19.12-19.22-38.66-29.15-58.17c-9.44-18.55-19.37-37.11-29.17-55.92
		c-0.4-0.77-1.87-1.81-2.5-1.68c-1.2,0.24-2.7,1.09-3.12,2c-9.54,20-21.95,38.72-31.18,58.44c-6.08,12.95-13.15,25.54-20.59,37.89
		c-8.33,13.87-13.19,28.73-20.59,42.77c-1.31,2.51-2.41,5.09-3.77,7.59c-2.1,3.91-6.26,5.59-11.28,6.17
		c-1.36,0.16-2.74,0.18-4.12,0.18c-20.61-0.04-41.23-0.33-61.83-0.02c-6.89,0.1-9.99-2.62-12.19-7.07c-0.78-1.54-1.4-3.14-2.05-4.73
		c-6.84-16.38-12.42-33.38-20.84-49.63c-8.98-17.34-16.45-35.47-27.52-52.7c-6.64-10.37-11.57-21.57-17.63-32.43
		c-16.36-29.36-32.41-59.6-49.54-90.34c-13.63-24.47-29.38-48.72-46.02-73.32c-4.67-6.9-10.37-13.11-17.79-18.21
		c-5.22-3.59-6.83-8.75-6.45-14.13c0.31-4.42,2.69-6.84,7.33-6.05c28.85,4.95,57.71,9.15,86.56,12.65c8.23,1,16.5,1.92,24.67,3.54
		c29.36,5.84,58.8,8.03,88.24,10.11c7,0.49,11.61,4.34,12.72,10.06c1.03,5.31,0.18,10.54,1.71,15.96
		c10.87,38.61,26.07,75.16,49.19,108.79c9.65,14.03,19.1,28.12,28.04,42.23c3.48,5.46,6.82,11.05,14.51,14.26
		c1.98-2.39,4.26-4.54,5.68-7.03c7.18-12.76,13.95-25.77,21.31-38.65c2.05-3.59,1.8-6.6-0.49-9.7
		c-18.45-24.96-34.54-51.52-55.11-76.22c-11.26-13.53-23.29-26.77-37.08-38.93c-3.45-3.03-7.04-6.03-9.92-9.44
		c-1.52-1.81-2-4.44-2.39-6.73c-0.54-3.17,2.18-6.04,5.62-5.95c17.83,0.47,35.7,0.75,53.56,0.97c15.8,0.2,31.6,0.49,47.4,0.48
		c3.45,0.01,6.95,0.29,10.3-0.23c25.96-3.94,51.88,0.37,77.8-1.67c2.05-0.17,4.12-0.08,6.19-0.06c5.32,0.05,8.98,2.21,10.81,6.65
		c1.87,4.55,3.06,9.16,3.08,14.1c0.2,34.82,9.25,67.52,22.53,98.56c13.73,32.09,30.69,63.52,55.12,90.86
		c1.61-2.14,3.08-3.56,3.83-5.16c9.25-19.78,20.44-39.55,28.39-60.71c4.14-11,1.7-18.77-6.09-25.57
		c-5.89-5.16-12.24-9.91-17.99-15.16c-17.1-15.58-21.66-35.43-16.47-58.75c3.25-14.58,11.25-27.36,21.51-40.04
		c15.82-19.55,36.64-32.01,60.17-39.13c11.99-3.63,24.6-2.84,35.7,0.45C866.57,1319.2,873.33,1325.16,878.07,1333.34z
		 M1091.73,1648.16c-6.44-5.88-8.38-13.8-10.28-21.82c-4.82-20.48-10.77-40.35-13.68-61.17c-2.88-20.75-4.92-43.82-6.57-62.25
		c-2.6-29.07-3.23-64.78,3.34-98.24c-1.14-17.02,3.06-34.45,5.55-51.64c3.59-24.77,7.38-50.08,22.8-73.86
		c3.46-5.33,0.6-9.67-5.39-8.98c-2.72,0.31-5.48,0.79-8.23,1.32c-9.61,1.89-19.25,3.72-28.88,5.79
		c-26.74,5.72-53.49,9.66-80.17,18.67c-10.01,3.38-20.61,5.76-30.55,6.18c-13.21,0.58-25.79,6.29-38.67,8.92
		c-4.81,0.98-6.73,5.85-4.17,9.27c4.34,5.78,10.18,10.26,13.71,16.87c6.08,11.32,11.19,23.17,14.28,35.92
		c3.81,15.74,7.09,31.73,9.69,47.89c2.49,15.52,3.86,31.35,5.51,47.06c0.33,3.1-0.2,6.41-0.53,9.63
		c-0.73,7.09-2.03,14.21-2.27,21.22c-0.36,10.99-2.63,21.81-5.39,32.55c-0.82,3.12-1.81,6.23-2.58,9.35
		c-3.97,16.34-7.49,32.56-11.97,48.46c-6.71,23.81-13.42,47.28-25.12,68.77c-2.3,4.19,2.07,10.35,7.38,11.02
		c3.37,0.43,6.84,0.4,10.27,0.37c20.62-0.13,41.23-0.3,61.85-0.47c0-0.17,0-0.32,0-0.5c12.39-0.1,24.76,0.12,37.13-0.36
		c26.01-1.05,52.09-2.45,78.05-3.96c5.54-0.32,9.14-7.16,6.8-12.45C1093.11,1650.49,1092.67,1649.02,1091.73,1648.16z
		 M1504.44,1187.98c-14.69-1.94-29.98-1.48-44.88,4.57c-8.71,3.52-15.93,9.74-23.71,14.85c-21.64,14.24-33.18,48.01-25.5,77.08
		c2.38,9.01,6.82,17.06,14.91,22.6c8.19,5.61,16.07,6.09,25.34,2.46c8.34-3.27,16.05,1.49,23.62,4.84c1.18,0.54,2.47,1.75,2.97,3.03
		c4.61,11.83,10.36,23.37,8.89,37.38c-2.38,22.51-4.7,45.14-7.07,67.93c-0.58,5.62-2.41,10.7-5.37,15.25
		c-1.22-0.8-2.7-1.28-3.54-2.4c-10.67-14.33-21.22-28.62-31.8-42.72c-20.46-27.29-34.17-57.77-49.63-86.1
		c-8.76-16.04-14.89-33.36-21.08-50.51c-1.2-3.31-1.98-6.88-3.37-10.03c-1.38-3.15-3.1-6.12-5.02-8.84
		c-2.01-2.86-4.87-4.2-8.69-3.46c-8.91,1.73-18.05,2.17-26.74,5.31c-9.01,3.28-17.78,1.6-26.48,4.82
		c-17.05,6.34-34.25,8.65-51.35,11.72c-23.94,4.3-48.01,11.14-71.72,10c-3.99-0.18-8.29,1.17-11.81,4.51
		c-1.47,1.42-3.37,3.57-1.41,5.3c10.01,8.85,16.09,21.32,24.03,32.22c9.29,12.77,14.64,28.14,13.13,46.33
		c-0.83,10.05-2.88,20.21-0.53,29.86c-4.23,8.91,1.25,16.61-0.67,25.58c-1.83,8.55-1.16,17.39-1.41,26.08
		c-0.78,27.51-0.53,55-3.74,82.82c-3.12,27.17-8.36,53.89-18.21,79.09c-10.01,25.61-23.94,48.14-50.19,58.1
		c-3.21,1.22-5.13,4.57-6.35,8.03c-0.82,2.33,0.29,6.95,2.23,7.46c7.85,2.08,15.22,5.84,23.85,5.17
		c10.94-0.86,21.97-0.51,32.96-0.64c17.16-0.2,34.33-0.28,51.5-0.58c11.46-0.2,22.87-2.56,34.46-0.47c4.53,0.84,9.54-0.27,14.13-1.5
		c5.53-1.48,7.65-11.09,3.32-15.13c-4.14-3.88-8.83-7.14-13.62-9.92c-6.18-3.58-11.63-8.07-15.56-14.33
		c-5.8-9.24-12.21-18.11-16.67-27.96c-8.38-18.54-14.09-37.6-13.91-59c0.51-59.3,0.14-117.98,0.14-176.12
		c0-2.92,0.09-5.84,0.38-8.76c0.22-2.18,0.85-4.5,3.46-4.87c1.29-0.18,2.79-0.09,3.77,0.55c3.88,2.5,6.67,6.12,9.27,10.13
		c5.84,9.03,11.7,18.19,18.39,26.6c15.49,19.46,29.66,40.6,44.53,61.68c18.14,25.72,31.76,55.76,48.74,84.12
		c20.39,34.05,37.2,72.14,53.53,111.73c3.79,9.2,8.92,13.58,17.61,13.44c28.17-0.45,56.38-0.35,84.53-0.62
		c6.34-0.06,10.14-4.3,11.39-11.64c0.98-5.82,0.34-11.49-0.54-17.25c-4.03-26.05-6.84-52.05-6.08-78.35
		c0.63-21.99,0.96-43.77,2.47-65.53c1.89-27.32,3.79-54.5,4.99-81.48c1.22-27.34,7.33-53.34,15.06-78.42
		c7.15-23.17,11.74-46.56,16.22-70.13c3.32-17.52-1.34-32.49-7.58-46.53C1533.02,1199.6,1519.71,1190.02,1504.44,1187.98z
		 M1891.07,1460.6c-9.78-14.8-22.13-26.52-35.32-37.62c-14.35-12.08-30.31-20.43-45.42-30.54c-20.57-13.74-41.94-25.7-62.29-39.75
		c-12.77-8.81-23.29-20.37-33.28-32.8c-7.47-9.28-11.56-20.29-13.15-31.94c-1.47-10.78-1.51-21.95-0.82-32.75
		c0.67-10.51,5.79-18.76,13.6-24.36c9.85-7.07,20.59-7.24,31.47-2.26c12.68,5.82,23.22,14.92,29.4,29.56
		c6.67,15.83,13.48,31.62,20.3,47.44c12.55,29.09,32.43,47.29,59.4,58.13c21.26,8.56,37.64-0.69,47.89-15.2
		c8.85-12.55,8.36-28.76,11.61-43.42c0.31-1.35,0.15-3.08-0.33-4.51c-3.16-9.6-5.35-19.71-9.87-28.67
		c-15.73-31.12-39-52.99-69.64-65.41c-19.99-8.11-41.59-12.74-61.87-14.79c-17.99-1.82-38.51-0.84-58.13,0.53
		c-2.7,0.18-5.46,0.53-8.02,1.39c-26.63,8.86-51.71,21.84-75.55,38.64c-24.89,17.57-39.85,44.19-52.22,73.28
		c-4.43,10.45-6.37,22.32-9.16,33.68c-0.73,2.96-0.44,6.28-0.54,9.43c-0.96,27.99,6.66,53.22,20.9,75.75
		c19.77,31.27,43.71,57.37,73.86,75.73c9.78,5.97,19.57,11.81,29.48,17.52c14.84,8.57,29.69,17.15,43.48,28.13
		c19.79,15.75,32,37.12,39.56,63.39c4.08,14.13,0.4,23.4-7.69,32.11c-6.24,6.74-13.84,10.21-22.4,10.61
		c-13.08,0.61-25.99,0.05-38.36-6.08c-5.08-2.52-10.36-4.42-15.51-6.72c-16.94-7.59-32.18-18.48-44.37-34.71
		c-8.22-10.94-15.98-22.23-22.86-34.55c-9.94-17.8-18.86-36.14-27.3-54.82c-2.9-6.44-6.06-12.74-9.58-18.74
		c-3.25-5.54-11.01-4.68-13.97,1.27c-1.02,2.05-2.01,4.34-2.27,6.66c-1.31,11.92-1.85,25.31-0.42,35.98
		c4.62,34.43,3.21,81.92-1.81,123.38c-0.91,7.57,3.85,12.07,8.69,15.6c3.61,2.62,6.6-0.04,9.31-2.55
		c9.49-8.81,20.06-14.72,31.96-15.56c28.12-1.97,56.12-1.96,82.88,11.45c3.72,1.85,7.94,2.62,12.01,3.12
		c18.52,2.29,37.2,2.36,55.45-1.25c21.44-4.24,43.57-6.27,63.11-19.2c2.88-1.91,6.51-2.23,9.63-3.69
		c19.21-8.9,40.68-21.88,51.64-42.76c4.14-7.9,8.8-15.53,11.88-23.86C1922.67,1541.15,1917.44,1500.49,1891.07,1460.6z"/>
</g>
</svg>
