<?xml version="1.0" encoding="utf-8"?>
<!-- Generator: Adobe Illustrator 25.0.1, SVG Export Plug-In . SVG Version: 6.00 Build 0)  -->
<svg version="1.1" id="Layer_1" xmlns="http://www.w3.org/2000/svg" xmlns:xlink="http://www.w3.org/1999/xlink" x="0px" y="0px"
	 viewBox="0 0 2400 2400" style="enable-background:new 0 0 2400 2400;" xml:space="preserve">
<g>
	<path transform="translate(0.000000,2400.000000) scale(0.100000,-0.100000)" d="M10311,21077c-75-38-98-193-121-817
		c-12-306-15-1554-5-1883l6-212l-66,120c-197,361-365,716-622,1315c-247,578-294,657-408,691c-78,22-202,17-260-11
		c-75-36-88-75-87-264c2-306,57-1187,103-1641c41-411,112-934,139-1027c14-50,50-68,134-68c119,0,135,20,143,180
		c7,141-26,780-87,1676c-11,160-20,297-20,305s29-53,64-136c139-330,269-603,417-873c170-309,526-908,564-948c50-52,102-68,205-62
		c94,6,144,29,166,77c15,31,16,62,11,266c-3,126-13,331-21,455c-40,593-56,1135-62,2050c-3,426-5,780-4,786
		C10501,21087,10361,21103,10311,21077z M7709,20910c-61-11-115-37-139-67c-47-60-93-234-319-1208c-179-774-228-997-275-1250
		c-86-470-117-853-76-960c14-36,71-58,136-53c93,8,97,13,123,194c18,128,100,558,139,734c8,34,9,35,87,52c44,9,224,55,400,101
		s321,83,322,82c1,0,29-113,62-251c104-437,201-768,268-914c57-125,92-150,208-150c82,0,141,19,149,48c19,72,15,86-38,117
		c-20,12-57,140-125,430c-38,161-171,791-171,810c0,2,44,17,98,34c135,42,167,84,85,112c-35,11-144,8-189-6c-18-6-22-2-27,32
		c-3,21-28,166-56,323c-27,157-80,456-116,665c-135,771-199,1012-288,1079C7910,20906,7799,20926,7709,20910z M7830,19990
		c75-498,96-614,201-1100c22-102,41-191,42-199c1-11-85-34-358-96c-198-45-361-81-363-80c-2,2,328,1394,399,1683c13,50,26,86,30,80
		C7785,20271,7807,20141,7830,19990z M13862,20680c-221-59-413-246-518-503c-60-148-77-228-78-367c-1-121,0-127,31-193
		c36-76,101-145,185-195c30-18,127-66,216-106c195-90,304-159,413-263c254-241,390-571,376-908c-6-130-22-206-63-290
		c-35-70-105-158-157-196c-35-26-48-30-80-25c-56,9-108,39-151,86c-53,59-66,96-66,190v81l-35,15c-46,19-148,18-186-2
		c-21-10-39-33-56-71c-51-111-17-251,84-344c55-51,167-105,258-124c144-30,390-15,500,30c160,67,313,256,367,452
		c31,111,30,336-1,480c-57,268-169,474-365,668c-163,162-303,250-603,380c-144,62-199,104-238,179c-28,56-30,65-28,170
		c2,259,138,554,308,671c70,48,109,50,186,9s269-236,359-364c185-264,191-270,275-270c50,0,85,25,85,61s-50,171-91,248
		c-67,125-130,212-219,301c-97,99-172,147-285,186C14176,20704,13974,20710,13862,20680z M10959,20620c-88-15-139-57-139-112
		c0-18,8-31,21-39c21-11,21-12-11-27c-17-8-37-27-43-41c-25-54-7-1112,24-1461c25-284,93-668,151-849c109-345,297-500,605-501
		c330-1,581,192,786,605c208,417,259,821,146,1157c-130,391-621,914-1099,1171C11244,20607,11082,20643,10959,20620z M11114,20386
		c174-116,378-309,618-583c219-250,310-400,364-599c16-56,19-103,18-249c0-168-3-188-31-296c-80-300-241-599-413-763
		c-44-42-84-76-89-76c-14,0-77,90-109,156c-106,215-189,650-277,1439c-58,528-70,622-101,785c-29,156-41,198-62,223
		C11006,20453,11030,20442,11114,20386z M15673,20450c-18-11-33-25-33-32s21-34,48-61c42-43,45-49,29-58c-142-81-285-365-386-768
		c-76-303-104-595-82-851c42-481,173-857,355-1017c207-182,545-178,793,9c196,148,386,512,450,863c21,110,23,441,4,590
		c-45,355-167,648-350,838c-160,167-497,434-612,487C15828,20477,15717,20477,15673,20450z M15921,20143c71-65,282-294,337-368
		c58-78,144-257,175-365c51-177,61-266,62-545c0-214-3-275-18-345c-40-187-129-401-234-565c-55-84-153-188-210-222
		c-51-30-60-26-132,53c-193,211-337,846-302,1336c24,337,103,744,181,927c35,81,69,141,80,141C15864,20190,15892,20169,15921,20143z
		 M12566,17265c-82-29-149-126-234-340c-47-118-118-334-162-495c-18-63-40-142-49-175l-17-60l-50-7c-27-4-121-14-209-23
		c-253-25-375-57-425-110c-29-31-23-56,20-78s132-19,365,11c223,30,255,33,255,28c0-3-22-117-49-253c-64-323-111-663-111-809
		c0-108-254-615-435-869c-119-167-260-305-311-305c-48,0-157,125-222,255c-85,170-148,414-159,613l-6,104l95,96
		c330,336,466,639,428,955c-20,165-47,231-111,274c-35,23-54,28-129,31c-103,5-160-10-232-63c-148-108-295-408-372-755
		c-26-122-41-242-52-430l-6-116l-102-75c-55-42-123-91-150-109l-48-32l6,38c25,164,31,281,31,584c0,353-7,445-51,690
		c-32,174-48,211-106,239c-24,11-56,21-69,21c-20,0-35,13-64,55c-63,92-185,199-278,245c-132,65-186,75-387,75c-194,0-248-10-375-69
		c-203-95-365-302-460-591l-37-110l-91-93c-188-191-574-523-581-500c-3,7-7,43-10,81c-4,37-19,118-35,180c-92,363-295,609-576,697
		c-96,30-272,38-375,16c-92-19-202-71-279-130c-167-129-334-362-422-589c-11-29-31-61-44-72c-18-15-42-73-90-214
		c-114-335-372-929-640-1476c-122-248-270-494-298-495c-4,0-19,25-33,56c-93,210-111,626-59,1332c24,309,128,1210,144,1241
		c8,16,77,33,360,86c336,64,557,95,686,95c103,0,125,3,153,20c70,43,13,83-143,101c-150,16-424-9-818-77c-115-20-210-34-213-32
		c-2,3,20,175,50,384c30,208,58,420,61,470c7,85,6,93-14,113c-26,26-90,28-119,4c-11-10-30-49-41-88c-42-147-143-550-185-740
		c-25-109-50-201-57-206c-7-4-32-10-56-14c-83-12-608-133-718-164c-181-53-280-119-249-168c38-60,150-77,231-34
		c61,33,745,202,759,188c3-3-17-131-44-284c-257-1414-252-2186,17-2424c71-63,137-84,266-83c133,0,198,22,274,90
		c98,88,223,306,391,684c77,172,221,516,262,625c21,56,25,46,31-82c16-338,98-659,207-818c71-104,169-177,279-209
		c69-20,246-21,320-1c176,47,315,176,514,480c227,347,386,688,461,986l31,126l100,78c136,106,318,261,450,384l109,103l22-109
		c38-188,83-283,183-383c76-76,159-120,282-151c71-18,103-21,233-17c128,5,162,9,223,30c204,72,364,221,493,461c23,42,44,77,47,77
		c9,0-6-258-27-466c-17-160-56-433-74-509c-4-13-49-47-128-94c-325-196-475-309-659-497c-302-311-458-599-476-880
		c-13-212,49-331,201-384c69-25,259-27,353-5c327,77,650,439,866,971c88,215,171,498,223,761l18,93l61,37c33,20,113,72,179,116
		c122,81,135,84,136,32c0-41,63-252,98-329c63-139,114-217,202-308c138-140,252-185,455-175c126,5,191,25,282,83
		c124,79,278,256,398,458c55,92,75,118,75,98c0-28,35-202,61-306c82-324,229-561,399-644c105-51,177-65,310-59c133,5,212,27,309,84
		c77,46,182,141,252,229c28,36,55,62,59,57c4-4,14-53,24-108c28-163,56-272,78-301c36-45,92-64,193-64s157,19,193,64
		c11,15,40,84,63,154c122,372,333,815,562,1185c43,71,81,127,83,125c1-2-12-86-31-186c-58-304-86-543-92-782c-15-567,93-810,386-871
		c92-19,262-6,351,26c134,49,221,107,358,239c71,69,85,79,100,68c44-31,132-71,183-82c36-8,99-11,170-8c190,8,291,60,485,253
		c328,326,533,730,678,1335c32,133,86,459,86,521c0,23,6,27,58,38c74,17,208,69,302,117c96,50,94,49,87,33c-3-8-33-77-67-154
		c-238-540-438-1151-495-1510c-73-461-52-842,57-1047c55-103,125-138,277-138c169,0,233,39,345,208c225,339,458,978,587,1611
		c36,176,36,196,6,216c-50,32-176,27-206-9c-6-7-38-105-70-217c-152-519-338-980-529-1313c-43-75-46-78-53-53c-27,99-18,444,17,707
		c55,418,277,1157,531,1768c109,265,126,318,111,349c-18,38-69,64-137,70c-107,10-149-8-310-130c-80-60-181-134-226-163
		c-82-53-239-134-260-134c-8,0-14,38-19,113c-3,61-17,160-30,218c-39,169-95,263-188,314c-46,25-66,30-150,33c-109,5-171-10-251-60
		c-138-87-226-278-215-467c6-101,35-166,102-230c82-77,182-122,336-151l85-15l-3-35c-20-237-156-717-283-1002
		c-117-263-279-505-467-696c-78-79-180-162-200-162c-17,0-62,60-94,125l-30,60l57,95c159,267,275,583,316,855c46,310,8,675-85,815
		c-58,87-217,119-351,69c-95-35-186-133-258-279c-92-187-159-411-192-645c-20-135-19-451,0-580c18-116,56-268,85-333l20-45l-34-41
		c-105-128-294-294-388-342c-58-30-67-26-104,49c-73,143-101,454-74,817c13,172,62,556,100,775c55,324,59,398,23,453
		c-43,67-219,88-326,39c-73-33-166-127-286-287c-186-248-340-495-509-814c-58-110-107-195-108-190c-2,5-12,75-23,156l-21,147l46,103
		c238,530,470,1400,516,1931c18,215-11,468-72,631c-28,74-99,150-155,165c-63,17-148,13-211-10c-137-52-286-288-403-640l-32-96
		l-132-7c-73-3-230-11-350-17c-120-7-220-9-224-6c-3,4,24,120,60,259c113,431,157,660,138,709c-19,52-80,79-170,79
		C12630,17279,12588,17273,12566,17265z M13946,16692c17-73,31-388,20-446l-7-36l-41,21c-26,13-78,25-139,32c-115,13-110-13-43,202
		c48,155,91,266,131,335l27,45l19-43C13923,16778,13938,16729,13946,16692z M9340,16280c28-11,79-39,113-62c80-54,197-172,197-197
		c0-28-93-304-147-436c-139-342-324-605-477-680l-57-28l-40,18c-53,24-94,73-135,159c-52,111-65,175-71,346c-8,241,30,410,139,622
		C8987,16267,9150,16355,9340,16280z M13947,16098c-17-183-170-751-304-1128c-56-159-73-193-73-150c-1,14-5,111-10,215
		c-10,209,1,492,25,695c21,171,55,371,67,394c9,17,19,18,117,13c75-4,116-2,141,8c19,7,37,13,39,14
		C13951,16159,13950,16132,13947,16098z M13292,16110c1-3-9-45-20-95c-78-333-106-583-106-955c0-306,11-483,50-760
		c13-96,24-185,24-198c0-28-114-210-225-357c-97-128-197-233-272-282l-52-35l-26,20c-149,118-274,506-316,982c-16,175-15,557,0,735
		c11,119,21,166,67,320c29,99,78,267,108,374c30,106,58,197,63,201c7,7,673,60,696,56C13288,16115,13292,16112,13292,16110z
		 M6902,15917c257-126,418-553,369-977c-7-58-18-111-24-119c-20-24-337-230-412-267c-89-44-164-64-242-64c-170,0-315,132-364,330
		c-20,79-17,276,5,380c50,235,179,474,336,624C6705,15953,6784,15975,6902,15917z M16836,15856c14-30,32-85,40-123
		c16-71,32-353,20-353c-4,0-23,9-44,19c-44,23-83,63-107,110c-22,44-30,161-16,236c12,64,56,165,72,165
		C16807,15910,16822,15886,16836,15856z M11008,15713c-4-126-7-147-39-238c-35-101-105-230-160-295l-29-35l6,45
		c17,121,58,307,89,406c45,138,113,280,127,266C11009,15855,11011,15801,11008,15713z M15918,15034c74-289,16-669-160-1044
		c-68-145-72-134-73,185c0,265,8,348,51,545c45,203,123,415,148,407C15890,15125,15905,15083,15918,15034z M7124,14398
		c-66-174-288-579-422-773c-106-154-228-285-264-285c-21,0-113,99-148,160c-96,163-167,467-195,843c-4,52-2,77,5,77c6,0,37-13,70-30
		c113-57,220-82,380-87c122-4,161-2,246,16c106,22,204,55,282,96c26,13,50,24,54,25C7136,14440,7133,14421,7124,14398z M9561,13883
		c-51-207-162-507-264-708c-98-194-193-331-307-446c-85-86-184-159-217-159c-14,0-40,70-48,132c-14,104,30,297,100,444
		c120,250,387,548,660,737c44,30,82,54,84,51C9571,13932,9567,13909,9561,13883z M9687,11908c-28-21-105-354-187-805
		c-12-68-25-123-29-123s-69,81-145,179c-145,190-266,315-341,351c-83,40-175,12-160-48c11-45,95-158,272-367
		c174-207,289-330,327-351c19-10,18-21-27-475c-79-775-87-867-87-980c0-107,0-109,27-126c19-12,47-18,89-18c78,0,113,23,131,85
		c25,84,118,712,208,1403c36,275,91,1155,78,1234c-7,40-29,53-88,53C9727,11920,9696,11914,9687,11908z M6690,11800
		c-163-23-576-121-943-226c-227-64-356-122-372-168c-8-24-6-31,14-47c45-37,169-19,432,62c53,16,104,29,113,29c19,0,19,2,6-148
		c-23-274-28-570-20-1177c5-375,12-641,18-656c15-37,59-52,138-47c107,7,106,4,123,368c36,762,40,1156,16,1494c-9,131-13,242-8,246
		c9,9,198,61,413,116c146,36,157,37,271,18c51-8,109,18,109,49C7000,11781,6854,11822,6690,11800z M10897,11700
		c-158-61-328-290-399-535c-20-69-23-103-23-240c0-258,51-1011,90-1339c27-230,31-237,111-237c27,0,106,0,175,0c152,0,233,17,346,71
		c139,67,211,158,255,317c18,66,21,105,21,258c0,198-15,280-68,386c-57,111-180,206-290,224c-70,11-85,15-85,24c0,4,25,52,56,106
		c144,250,210,505,185,711c-16,134-65,219-146,255C11071,11726,10961,11725,10897,11700z M11042,11578c16-32,23-66,26-131
		c8-158-31-318-128-524c-56-119-190-353-201-353s-17,41-30,223c-21,275,2,416,92,585c64,121,167,242,206,242
		C11014,11620,11029,11601,11042,11578z M11060,10413c70-79,100-195,100-388c0-280-46-412-171-497c-68-46-85-51-107-29
		c-9,10-27,23-39,30c-25,13-20-23-63,436c-17,176-33,346-37,378l-6,57h60c48,0,73,7,128,34C11002,10473,11008,10472,11060,10413z
		 M13100,11667c-30-15-36-38-49-192c-6-66-21-217-35-335c-54-463-75-912-57-1260c13-262,24-313,78-361c49-43,140-84,242-110
		c111-28,265-24,326,8c43,23,71,62,62,87c-3,8-25,20-47,26c-34,9-52,8-97-6c-65-21-118-11-193,34c-86,52-80-22-81,1012
		c0,503-4,951-8,994c-7,65-13,83-31,98C13184,11683,13136,11685,13100,11667z M15543,11651c-63-29-82-75-187-451
		c-124-446-174-659-231-995c-46-269-65-446-65-592c0-120,1-123,25-139c39-25,106-29,148-9c41,19,48,36,67,170c21,145,81,498,86,507
		c3,5,18,14,32,19c41,16,278,79,295,79c11,0,19-27,31-112c85-575,96-623,156-648c34-14,103-8,125,10c17,14,19,83,5,180
		c-5,36-16,133-25,215c-107,1028-110,1054-145,1284c-53,339-82,442-135,477C15684,11673,15595,11675,15543,11651z M15620,11163
		c0-60,25-295,55-522c20-146,32-268,28-272c-9-8-227-49-260-49c-29,0-29-1,8,182c70,351,147,678,160,678
		C15616,11180,15620,11172,15620,11163z M14115,11604c-22-3-161-16-310-30c-355-33-454-53-507-101c-30-27-23-62,17-79
		c46-19,56-19,312,13c122,15,225,24,229,20c7-7,1-52-71-542c-44-298-54-488-55-1047v-427l28-21c23-19,37-21,96-18
		c115,6,116,9,135,348c30,516,35,659,31,970c-3,184-5,432-5,550v215l105,13c58,7,200,14,315,15c116,1,216,6,223,10c6,5,12,19,12,33
		c0,21-10,30-57,52c-57,26-63,27-258,28C14245,11607,14137,11606,14115,11604z M11663,11565c-29-21-50-89-67-225
		c-32-252-41-404-40-685c0-247,4-311,23-435c53-351,143-589,259-691c72-63,177-90,276-69c106,22,154,77,181,211
		c38,185,87,698,140,1469l25,365l-21,18c-25,20-95,23-134,5c-48-22-70-150-160-923c-27-232-88-675-108-785c-7-36-17-64-22-64
		c-23,3-103,333-135,554c-25,182-40,414-50,810c-11,407-12,426-32,443C11773,11584,11693,11586,11663,11565z M7266,11521
		c-59-12-66-37-82-267c-8-115-17-290-21-388l-8-180l-170-48c-93-26-175-48-182-48c-13,0-18,41-34,344c-9,160-16,222-26,232
		c-17,16-86,19-113,4c-26-14-38-58-55-194c-14-115-35-420-37-516c0-62,19-657,27-805c13-251,24-275,124-275c99,0,91-42,97,510
		c3,266,7,486,9,488s84,30,181,63c133,44,180,55,186,46c4-6,8-31,8-55c0-96,32-592,50-797c32-346,45-375,171-375c61,0,73,3,95,25
		l25,25l-6,193c-14,435-22,1083-14,1093c5,6,37,17,72,23c93,18,126,30,138,53c23,43-49,77-168,78h-52l-5,43c-2,23-10,116-16,207
		c-22,320-51,490-88,508C7346,11522,7298,11527,7266,11521z M12653,11369c-30-16-33-25-48-199c-49-535-56-671-57-1135
		c-1-457,8-612,35-656c27-43,140-50,178-12c11,10,18,30,17,43c-6,79,1,561,12,845c15,401,11,1088-7,1106
		C12767,11377,12680,11382,12653,11369z M8245,11233c-70-9-175-33-225-52c-64-24-107-60-126-108c-25-58-37-335-31-713
		c9-513,35-802,80-884c28-51,91-84,183-97c147-21,617,38,691,86c85,56,11,114-118,94c-29-5-137-13-242-20c-158-9-191-9-203,3
		c-8,8-18,54-24,113c-11,111-30,440-30,519v51l100,38c55,22,151,55,212,74c62,19,125,42,141,49c30,16,35,45,12,64
		c-37,31-124,22-363-37c-57-14-106-22-110-18c-9,9-16,576-7,621c3,20,15,38,28,45c52,28,168,50,292,56c143,6,168,13,163,46
		c-7,49-120,78-293,75C8320,11238,8262,11235,8245,11233z M4182,9876c-140-67-267-286-408-700c-130-383-211-716-288-1186
		c-84-517-109-811-111-1350l-3-425l-170-350c-184-379-302-645-302-683c0-25,48-52,95-52c72,0,100,35,290,370c70,124,129,227,131,229
		c9,10,15-13,39-145c48-262,128-529,206-690c87-178,189-260,339-271c214-16,267,61,453,657c30,96,69,227,87,290c42,150,47,157,55,85
		c64-577,255-1033,472-1126c96-41,216-42,300-2c49,23,123,100,168,172c20,34,40,61,45,61s12-15,15-32c74-429,137-666,235-875
		c105-224,205-322,347-341c115-15,181,10,216,81c98,196-16,903-264,1642c-39,116-71,214-72,219s41,25,93,46c125,48,188,81,283,147
		c43,29,81,51,86,49c5-3,12-32,16-63c20-171,89-404,158-537c84-163,184-236,360-262c204-30,359,26,522,190c106,107,176,216,251,389
		c71,166,178,473,171,491c-18,46-141,67-176,30c-11-10-51-93-91-184c-87-202-185-391-247-479c-71-100-188-211-263-248
		c-99-48-116-50-151-12c-110,118-214,514-244,930l-6,85l34,45c130,169,281,472,333,664c65,243,45,492-48,570c-56,47-170,59-243,26
		c-174-79-351-599-387-1136l-11-170l-56-58c-79-83-204-187-289-241c-84-55-200-111-209-102c-4,3-2,21,4,39c6,17,36,111,67,207
		c295,905,474,1838,453,2350c-9,197-44,328-104,382c-54,49-178,66-246,33c-57-27-103-88-167-220c-148-305-286-831-359-1370
		c-68-498-98-1175-72-1605l9-135l-40-102c-86-223-256-533-293-533c-32,0-127,187-186,369c-136,418-187,938-155,1598
		c9,182,13,338,10,346c-11,29-57,50-118,54c-92,8-98,0-136-187c-109-532-363-1408-537-1850c-45-115-58-140-73-140
		c-12,0-66,144-105,281c-81,286-154,759-167,1090l-2,66l121,239c408,806,677,1500,786,2029c55,266,62,328,62,575c0,192-3,252-19,325
		c-44,211-116,345-215,399c-44,24-69,29-140,33C4245,9901,4229,9898,4182,9876z M4403,9696c30-63,53-155,67-266
		c47-386-88-968-400-1721c-144-346-345-787-355-777c-10,9,14,461,35,683c51,533,122,962,225,1360c107,416,206,664,307,769l48,50
		l24-23C4368,9758,4390,9725,4403,9696z M6250,8472c61-229,27-623-105-1218c-64-286-253-952-291-1024c-12-22-13-16-13,60
		c-1,112,15,401,34,625c45,531,152,1096,272,1429c32,89,70,166,83,166C6235,8510,6244,8493,6250,8472z M7002,6985
		c-7-52-24-131-38-177c-34-109-96-239-101-215c-9,37,64,356,109,476c19,51,22,54,31,33C7010,7087,7009,7049,7002,6985z M5949,5089
		c83-275,155-605,186-851c21-171,30-358,18-358c-23,0-97,242-152,495c-56,263-133,784-130,895v35l19-41
		C5900,5241,5926,5163,5949,5089z M15966,9006c-118-44-217-190-305-451c-98-292-183-717-225-1125c-51-497-45-1155,14-1535l11-70
		l-70-180c-38-99-77-199-87-223c-15-38-16-45-3-58c23-22,80-28,120-11c26,11,43,29,67,75c18,34,37,64,42,67s23-23,40-59
		c41-87,106-157,172-187c43-19,71-23,143-24c79,0,97,4,147,28c54,27,95,68,119,121c7,14,16,26,20,26s15-24,25-52
		c76-234,210-337,423-326c103,5,165,33,228,101c102,111,192,373,224,657c14,128,7,347-15,452l-16,76l56,79c31,43,60,80,65,81
		c5,2,9-60,9-145c0-402,58-783,165-1093c65-186,100-220,231-220c67,0,87,4,115,23c44,29,58,72,183,582c53,215,105,417,116,450l20,60
		l-6-55c-3-30-10-91-15-135s-9-108-9-142s-4-65-10-68c-14-8-13-38,2-53c6-6,19-50,29-96c33-161,92-252,194-297c41-18,67-22,155-21
		c59,1,131,8,165,17c83,21,208,83,281,139c34,25,64,46,66,46c3,0,24-19,48-41c24-23,73-56,109-73c60-28,75-31,166-31
		c121,0,179,18,264,80c32,23,80,69,106,101c26,33,50,58,53,57s20-55,38-120c81-296,158-429,279-485c44-20,66-23,175-23
		c120,0,127,1,190,32c210,103,317,321,371,757c12,96,19,181,16,190c-8,21-78,40-119,32c-59-11-66-22-93-156c-57-279-112-442-188-557
		c-47-70-73-98-119-127l-27-18l-30,60c-62,124-127,397-175,739c-14,100-26,200-26,222s20,100,44,173c154,468,272,1243,252,1658
		c-15,311-79,575-156,645c-33,30-143,28-186-2c-59-42-134-214-189-433c-54-214-123-707-141-1005c-10-172-8-167-85-181
		c-214-40-394-211-540-517c-105-222-144-399-136-619l5-138l-34-44c-69-91-190-178-299-217l-59-21l-22,28c-27,34-60,131-75,224
		l-12,70l81,80c196,194,367,467,428,681c56,195,6,353-124,389c-88,24-185,3-281-61c-80-53-148-138-216-269c-30-58-52-91-49-75
		c3,17,41,135,84,264c76,228,77,234,59,252c-29,29-119,26-146-3c-27-30-92-161-144-290c-66-164-212-610-294-898
		c-86-301-84-294-90-288c-9,9-46,204-70,372c-28,198-58,481-81,781c-20,258-22,273-57,299c-32,24-126,28-164,7c-15-7-47-63-91-154
		c-69-143-135-257-150-257c-4,0-15,13-25,29c-34,58-108,129-169,162c-62,33-65,34-183,34c-107,0-125-3-170-25
		c-106-52-177-151-212-296c-9-38-26-80-38-94c-15-16-25-44-30-80c-23-190-154-672-212-784l-15-30l-13,25c-31,58-115,439-115,520
		c0,16,32,105,71,197c369,869,540,1453,580,1977c31,396-60,726-224,812C16153,9020,16018,9025,15966,9006z M16112,8893
		c37-39,75-119,99-210c30-111,37-355,15-523c-55-419-210-955-448-1552l-53-133l-6,65c-11,106-10,773,1,930c46,671,176,1261,311,1415
		C16068,8927,16078,8928,16112,8893z M20000,8339c66-283,44-682-69-1229c-22-107-48-229-57-270l-18-75l-9,50c-9,58-1,618,14,875
		c18,320,57,664,85,754c6,19,7,19,20,2C19973,8436,19988,8388,20000,8339z M19492,6692c-4-143,13-472,33-645c8-71,15-142,15-158
		c0-84-274-425-335-417c-29,4-80,96-101,180c-16,66-19,132-15,308c4,204,108,500,244,698c50,73,145,168,156,157
		C19492,6812,19493,6756,19492,6692z M18586,6738c38-73-4-224-115-410c-78-131-193-287-199-270c-6,20,27,194,60,312
		c40,144,103,272,167,343c29,31,57,57,62,57S18577,6756,18586,6738z M16657,6625c49-42,94-111,129-196l26-64l-58-53
		c-60-55-162-112-199-112c-25,0-45,19-71,70c-27,52-24,196,5,273C16536,6663,16584,6687,16657,6625z M16853,6088c8-60-9-252-33-369
		c-39-189-132-427-201-508c-27-33-43-22-86,55c-82,147-143,442-143,690v101l99-5c113-5,217,14,291,53c25,13,50,24,56,25
		C16842,6130,16850,6111,16853,6088z M9770,8642c-44-45-148-388-296-977c-36-143-68-263-72-267c-12-11-293-39-523-52
		c-192-11-223-15-246-32c-37-28-38-37-9-71c46-54,114-68,326-67c102,1,234,8,293,16c60,8,110,11,113,6c3-4-13-97-35-206
		c-107-523-155-885-167-1267c-16-483,70-887,225-1057c65-71,134-105,242-119c143-19,224,17,314,136c51,67,161,277,225,430
		c37,88,60,131,60,113c0-3,11-83,25-178c27-189,49-292,67-328c21-41,84-66,166-66c68-1,75,1,97,26c13,15,29,53,35,85
		c105,521,375,1161,696,1650c41,61,79,115,86,119c15,9,8-49-42-334c-110-635-132-987-75-1206c35-134,113-239,216-291
		c74-38,213-59,294-44c111,20,223,99,339,239l37,45l17-25c41-60,89-102,150-132s73-32,166-33c90,0,108,3,160,28
		c180,84,388,425,546,892c15,44,31,79,35,78c5-1,17-37,27-79c35-149,105-256,197-303c54-28,166-45,235-37c134,17,291,138,406,314
		c40,60,56,77,58,63c3-19-81-596-98-674c-4-20-59-128-123-240c-429-758-771-1446-845-1702c-56-191-67-373-31-490
		c39-127,131-186,293-188s270,101,434,413c246,466,409,1035,566,1972l53,317l98,168c125,214,349,574,476,765c60,91,96,154,92,164
		c-9,24-58,44-110,44c-44,0-50-3-99-55c-61-64-202-250-300-394c-37-56-71-101-76-101s-6,17-3,38c10,77,35,325,54,547
		c27,309,71,904,71,968c0,81-167,121-204,49c-15-29-56-249-81-427c-29-210-141-593-239-815c-122-277-297-514-428-581
		c-37-19-41-19-58-4c-24,21-56,107-77,208c-15,69-18,130-17,377c0,258,4,321,27,503c15,115,32,228,37,252s7,51,4,60
		c-18,45-157,67-194,30c-11-11-31-63-45-118c-14-53-75-237-135-408c-262-743-375-1008-530-1241c-70-106-180-225-198-214
		c-19,12-65,123-88,215l-24,93l84,167c220,435,329,843,313,1166c-9,194-52,271-160,295c-159,36-250-43-355-308
		c-168-421-230-817-191-1208l12-111l-43-64c-77-114-166-222-238-291c-104-98-121-98-168-6c-46,91-58,167-57,368c0,199,11,315,73,780
		c65,490,70,609,30,690c-22,44-83,79-149,87c-155,18-242-50-436-342c-184-277-362-611-495-928c-36-87-70-158-76-158
		c-9,0-19,72-48,343l-14,133l93,280c280,837,395,1438,364,1908c-19,294-77,387-242,389c-78,2-120-20-172-92c-75-102-168-345-244-638
		l-38-147l-224-52c-216-50-279-60-279-47c0,4,36,189,79,413c44,223,91,478,106,565c14,88,30,167,36,177c14,26,12,29-26,45
		C9841,8678,9802,8674,9770,8642z M10683,8233c12-44,17-76,27-180c29-307-65-854-240-1403c-28-85-54-161-58-168
		c-23-34-29,263-12,538c25,401,133,929,241,1181C10664,8253,10676,8262,10683,8233z M10167,7352c-65-324-73-860-23-1417l13-140
		l-65-170c-139-364-260-627-352-770c-60-93-89-127-102-119c-16,10-65,118-86,189c-124,419-102,1091,68,2086c21,128,43,236,47,240
		s71,22,148,39s183,43,235,59C10173,7387,10174,7387,10167,7352z M12564,6684c23-61-10-310-68-509c-52-179-142-409-157-400
		c-4,3-6,29-3,58c28,272,93,565,176,785C12543,6701,12553,6713,12564,6684z M13865,3973c-129-560-303-1034-473-1290
		c-19-29-38-53-43-53c-16,0-21,89-10,181c15,119,51,254,107,396c95,241,445,970,451,941C13899,4139,13885,4060,13865,3973z
		 M4740,7718c-65-33-95-97-95-200c0-71,2-79,29-107c35-37,80-51,160-51c125,0,181,57,180,182c-2,91-32,153-88,179
		C4869,7747,4795,7745,4740,7718z"/>
</g>
</svg>
