<?xml version="1.0" standalone="no"?>
<!DOCTYPE svg PUBLIC "-//W3C//DTD SVG 20010904//EN"
 "http://www.w3.org/TR/2001/REC-SVG-20010904/DTD/svg10.dtd">
<svg version="1.0" xmlns="http://www.w3.org/2000/svg"
 width="2400.000000pt" height="2400.000000pt" viewBox="0 0 2400.000000 2400.000000"
 preserveAspectRatio="xMidYMid meet">

<g transform="translate(0.000000,2400.000000) scale(0.100000,-0.100000)"
fill="#000000" stroke="none">
<path d="M10311 21077 c-75 -38 -98 -193 -121 -817 -12 -306 -15 -1554 -5
-1883 l6 -212 -66 120 c-197 361 -365 716 -622 1315 -247 578 -294 657 -408
691 -78 22 -202 17 -260 -11 -75 -36 -88 -75 -87 -264 2 -306 57 -1187 103
-1641 41 -411 112 -934 139 -1027 14 -50 50 -68 134 -68 119 0 135 20 143 180
7 141 -26 780 -87 1676 -11 160 -20 297 -20 305 0 8 29 -53 64 -136 139 -330
269 -603 417 -873 170 -309 526 -908 564 -948 50 -52 102 -68 205 -62 94 6
144 29 166 77 15 31 16 62 11 266 -3 126 -13 331 -21 455 -40 593 -56 1135
-62 2050 -3 426 -5 780 -4 786 1 31 -139 47 -189 21z"/>
<path d="M7709 20910 c-61 -11 -115 -37 -139 -67 -47 -60 -93 -234 -319 -1208
-179 -774 -228 -997 -275 -1250 -86 -470 -117 -853 -76 -960 14 -36 71 -58
136 -53 93 8 97 13 123 194 18 128 100 558 139 734 8 34 9 35 87 52 44 9 224
55 400 101 176 46 321 83 322 82 1 0 29 -113 62 -251 104 -437 201 -768 268
-914 57 -125 92 -150 208 -150 82 0 141 19 149 48 19 72 15 86 -38 117 -20 12
-57 140 -125 430 -38 161 -171 791 -171 810 0 2 44 17 98 34 135 42 167 84 85
112 -35 11 -144 8 -189 -6 -18 -6 -22 -2 -27 32 -3 21 -28 166 -56 323 -27
157 -80 456 -116 665 -135 771 -199 1012 -288 1079 -57 42 -168 62 -258 46z
m121 -920 c75 -498 96 -614 201 -1100 22 -102 41 -191 42 -199 1 -11 -85 -34
-358 -96 -198 -45 -361 -81 -363 -80 -2 2 328 1394 399 1683 13 50 26 86 30
80 4 -7 26 -137 49 -288z"/>
<path d="M13862 20680 c-221 -59 -413 -246 -518 -503 -60 -148 -77 -228 -78
-367 -1 -121 0 -127 31 -193 36 -76 101 -145 185 -195 30 -18 127 -66 216
-106 195 -90 304 -159 413 -263 254 -241 390 -571 376 -908 -6 -130 -22 -206
-63 -290 -35 -70 -105 -158 -157 -196 -35 -26 -48 -30 -80 -25 -56 9 -108 39
-151 86 -53 59 -66 96 -66 190 l0 81 -35 15 c-46 19 -148 18 -186 -2 -21 -10
-39 -33 -56 -71 -51 -111 -17 -251 84 -344 55 -51 167 -105 258 -124 144 -30
390 -15 500 30 160 67 313 256 367 452 31 111 30 336 -1 480 -57 268 -169 474
-365 668 -163 162 -303 250 -603 380 -144 62 -199 104 -238 179 -28 56 -30 65
-28 170 2 259 138 554 308 671 70 48 109 50 186 9 77 -41 269 -236 359 -364
185 -264 191 -270 275 -270 50 0 85 25 85 61 0 36 -50 171 -91 248 -67 125
-130 212 -219 301 -97 99 -172 147 -285 186 -109 38 -311 44 -423 14z"/>
<path d="M10959 20620 c-88 -15 -139 -57 -139 -112 0 -18 8 -31 21 -39 21 -11
21 -12 -11 -27 -17 -8 -37 -27 -43 -41 -25 -54 -7 -1112 24 -1461 25 -284 93
-668 151 -849 109 -345 297 -500 605 -501 330 -1 581 192 786 605 208 417 259
821 146 1157 -130 391 -621 914 -1099 1171 -156 84 -318 120 -441 97z m155
-234 c174 -116 378 -309 618 -583 219 -250 310 -400 364 -599 16 -56 19 -103
18 -249 0 -168 -3 -188 -31 -296 -80 -300 -241 -599 -413 -763 -44 -42 -84
-76 -89 -76 -14 0 -77 90 -109 156 -106 215 -189 650 -277 1439 -58 528 -70
622 -101 785 -29 156 -41 198 -62 223 -26 30 -2 19 82 -37z"/>
<path d="M15673 20450 c-18 -11 -33 -25 -33 -32 0 -7 21 -34 48 -61 42 -43 45
-49 29 -58 -142 -81 -285 -365 -386 -768 -76 -303 -104 -595 -82 -851 42 -481
173 -857 355 -1017 207 -182 545 -178 793 9 196 148 386 512 450 863 21 110
23 441 4 590 -45 355 -167 648 -350 838 -160 167 -497 434 -612 487 -61 27
-172 27 -216 0z m248 -307 c71 -65 282 -294 337 -368 58 -78 144 -257 175
-365 51 -177 61 -266 62 -545 0 -214 -3 -275 -18 -345 -40 -187 -129 -401
-234 -565 -55 -84 -153 -188 -210 -222 -51 -30 -60 -26 -132 53 -193 211 -337
846 -302 1336 24 337 103 744 181 927 35 81 69 141 80 141 4 0 32 -21 61 -47z"/>
<path d="M12566 17265 c-82 -29 -149 -126 -234 -340 -47 -118 -118 -334 -162
-495 -18 -63 -40 -142 -49 -175 l-17 -60 -50 -7 c-27 -4 -121 -14 -209 -23
-253 -25 -375 -57 -425 -110 -29 -31 -23 -56 20 -78 43 -22 132 -19 365 11
223 30 255 33 255 28 0 -3 -22 -117 -49 -253 -64 -323 -111 -663 -111 -809 0
-108 -254 -615 -435 -869 -119 -167 -260 -305 -311 -305 -48 0 -157 125 -222
255 -85 170 -148 414 -159 613 l-6 104 95 96 c330 336 466 639 428 955 -20
165 -47 231 -111 274 -35 23 -54 28 -129 31 -103 5 -160 -10 -232 -63 -148
-108 -295 -408 -372 -755 -26 -122 -41 -242 -52 -430 l-6 -116 -102 -75 c-55
-42 -123 -91 -150 -109 l-48 -32 6 38 c25 164 31 281 31 584 0 353 -7 445 -51
690 -32 174 -48 211 -106 239 -24 11 -56 21 -69 21 -20 0 -35 13 -64 55 -63
92 -185 199 -278 245 -132 65 -186 75 -387 75 -194 0 -248 -10 -375 -69 -203
-95 -365 -302 -460 -591 l-37 -110 -91 -93 c-188 -191 -574 -523 -581 -500 -3
7 -7 43 -10 81 -4 37 -19 118 -35 180 -92 363 -295 609 -576 697 -96 30 -272
38 -375 16 -92 -19 -202 -71 -279 -130 -167 -129 -334 -362 -422 -589 -11 -29
-31 -61 -44 -72 -18 -15 -42 -73 -90 -214 -114 -335 -372 -929 -640 -1476
-122 -248 -270 -494 -298 -495 -4 0 -19 25 -33 56 -93 210 -111 626 -59 1332
24 309 128 1210 144 1241 8 16 77 33 360 86 336 64 557 95 686 95 103 0 125 3
153 20 70 43 13 83 -143 101 -150 16 -424 -9 -818 -77 -115 -20 -210 -34 -213
-32 -2 3 20 175 50 384 30 208 58 420 61 470 7 85 6 93 -14 113 -26 26 -90 28
-119 4 -11 -10 -30 -49 -41 -88 -42 -147 -143 -550 -185 -740 -25 -109 -50
-201 -57 -206 -7 -4 -32 -10 -56 -14 -83 -12 -608 -133 -718 -164 -181 -53
-280 -119 -249 -168 38 -60 150 -77 231 -34 61 33 745 202 759 188 3 -3 -17
-131 -44 -284 -257 -1414 -252 -2186 17 -2424 71 -63 137 -84 266 -83 133 0
198 22 274 90 98 88 223 306 391 684 77 172 221 516 262 625 21 56 25 46 31
-82 16 -338 98 -659 207 -818 71 -104 169 -177 279 -209 69 -20 246 -21 320
-1 176 47 315 176 514 480 227 347 386 688 461 986 l31 126 100 78 c136 106
318 261 450 384 l109 103 22 -109 c38 -188 83 -283 183 -383 76 -76 159 -120
282 -151 71 -18 103 -21 233 -17 128 5 162 9 223 30 204 72 364 221 493 461
23 42 44 77 47 77 9 0 -6 -258 -27 -466 -17 -160 -56 -433 -74 -509 -4 -13
-49 -47 -128 -94 -325 -196 -475 -309 -659 -497 -302 -311 -458 -599 -476
-880 -13 -212 49 -331 201 -384 69 -25 259 -27 353 -5 327 77 650 439 866 971
88 215 171 498 223 761 l18 93 61 37 c33 20 113 72 179 116 122 81 135 84 136
32 0 -41 63 -252 98 -329 63 -139 114 -217 202 -308 138 -140 252 -185 455
-175 126 5 191 25 282 83 124 79 278 256 398 458 55 92 75 118 75 98 0 -28 35
-202 61 -306 82 -324 229 -561 399 -644 105 -51 177 -65 310 -59 133 5 212 27
309 84 77 46 182 141 252 229 28 36 55 62 59 57 4 -4 14 -53 24 -108 28 -163
56 -272 78 -301 36 -45 92 -64 193 -64 101 0 157 19 193 64 11 15 40 84 63
154 122 372 333 815 562 1185 43 71 81 127 83 125 1 -2 -12 -86 -31 -186 -58
-304 -86 -543 -92 -782 -15 -567 93 -810 386 -871 92 -19 262 -6 351 26 134
49 221 107 358 239 71 69 85 79 100 68 44 -31 132 -71 183 -82 36 -8 99 -11
170 -8 190 8 291 60 485 253 328 326 533 730 678 1335 32 133 86 459 86 521 0
23 6 27 58 38 74 17 208 69 302 117 96 50 94 49 87 33 -3 -8 -33 -77 -67 -154
-238 -540 -438 -1151 -495 -1510 -73 -461 -52 -842 57 -1047 55 -103 125 -138
277 -138 169 0 233 39 345 208 225 339 458 978 587 1611 36 176 36 196 6 216
-50 32 -176 27 -206 -9 -6 -7 -38 -105 -70 -217 -152 -519 -338 -980 -529
-1313 -43 -75 -46 -78 -53 -53 -27 99 -18 444 17 707 55 418 277 1157 531
1768 109 265 126 318 111 349 -18 38 -69 64 -137 70 -107 10 -149 -8 -310
-130 -80 -60 -181 -134 -226 -163 -82 -53 -239 -134 -260 -134 -8 0 -14 38
-19 113 -3 61 -17 160 -30 218 -39 169 -95 263 -188 314 -46 25 -66 30 -150
33 -109 5 -171 -10 -251 -60 -138 -87 -226 -278 -215 -467 6 -101 35 -166 102
-230 82 -77 182 -122 336 -151 l85 -15 -3 -35 c-20 -237 -156 -717 -283 -1002
-117 -263 -279 -505 -467 -696 -78 -79 -180 -162 -200 -162 -17 0 -62 60 -94
125 l-30 60 57 95 c159 267 275 583 316 855 46 310 8 675 -85 815 -58 87 -217
119 -351 69 -95 -35 -186 -133 -258 -279 -92 -187 -159 -411 -192 -645 -20
-135 -19 -451 0 -580 18 -116 56 -268 85 -333 l20 -45 -34 -41 c-105 -128
-294 -294 -388 -342 -58 -30 -67 -26 -104 49 -73 143 -101 454 -74 817 13 172
62 556 100 775 55 324 59 398 23 453 -43 67 -219 88 -326 39 -73 -33 -166
-127 -286 -287 -186 -248 -340 -495 -509 -814 -58 -110 -107 -195 -108 -190
-2 5 -12 75 -23 156 l-21 147 46 103 c238 530 470 1400 516 1931 18 215 -11
468 -72 631 -28 74 -99 150 -155 165 -63 17 -148 13 -211 -10 -137 -52 -286
-288 -403 -640 l-32 -96 -132 -7 c-73 -3 -230 -11 -350 -17 -120 -7 -220 -9
-224 -6 -3 4 24 120 60 259 113 431 157 660 138 709 -19 52 -80 79 -170 79
-31 -1 -73 -7 -95 -15z m1380 -573 c17 -73 31 -388 20 -446 l-7 -36 -41 21
c-26 13 -78 25 -139 32 -115 13 -110 -13 -43 202 48 155 91 266 131 335 l27
45 19 -43 c10 -24 25 -73 33 -110z m-4606 -412 c28 -11 79 -39 113 -62 80 -54
197 -172 197 -197 0 -28 -93 -304 -147 -436 -139 -342 -324 -605 -477 -680
l-57 -28 -40 18 c-53 24 -94 73 -135 159 -52 111 -65 175 -71 346 -8 241 30
410 139 622 125 245 288 333 478 258z m4607 -182 c-17 -183 -170 -751 -304
-1128 -56 -159 -73 -193 -73 -150 -1 14 -5 111 -10 215 -10 209 1 492 25 695
21 171 55 371 67 394 9 17 19 18 117 13 75 -4 116 -2 141 8 19 7 37 13 39 14
2 0 1 -27 -2 -61z m-655 12 c1 -3 -9 -45 -20 -95 -78 -333 -106 -583 -106
-955 0 -306 11 -483 50 -760 13 -96 24 -185 24 -198 0 -28 -114 -210 -225
-357 -97 -128 -197 -233 -272 -282 l-52 -35 -26 20 c-149 118 -274 506 -316
982 -16 175 -15 557 0 735 11 119 21 166 67 320 29 99 78 267 108 374 30 106
58 197 63 201 7 7 673 60 696 56 5 -1 9 -4 9 -6z m-6390 -193 c257 -126 418
-553 369 -977 -7 -58 -18 -111 -24 -119 -20 -24 -337 -230 -412 -267 -89 -44
-164 -64 -242 -64 -170 0 -315 132 -364 330 -20 79 -17 276 5 380 50 235 179
474 336 624 135 129 214 151 332 93z m9934 -61 c14 -30 32 -85 40 -123 16 -71
32 -353 20 -353 -4 0 -23 9 -44 19 -44 23 -83 63 -107 110 -22 44 -30 161 -16
236 12 64 56 165 72 165 6 0 21 -24 35 -54z m-5828 -143 c-4 -126 -7 -147 -39
-238 -35 -101 -105 -230 -160 -295 l-29 -35 6 45 c17 121 58 307 89 406 45
138 113 280 127 266 7 -7 9 -61 6 -149z m4910 -679 c74 -289 16 -669 -160
-1044 -68 -145 -72 -134 -73 185 0 265 8 348 51 545 45 203 123 415 148 407 6
-2 21 -44 34 -93z m-8794 -636 c-66 -174 -288 -579 -422 -773 -106 -154 -228
-285 -264 -285 -21 0 -113 99 -148 160 -96 163 -167 467 -195 843 -4 52 -2 77
5 77 6 0 37 -13 70 -30 113 -57 220 -82 380 -87 122 -4 161 -2 246 16 106 22
204 55 282 96 26 13 50 24 54 25 4 0 1 -19 -8 -42z m2437 -515 c-51 -207 -162
-507 -264 -708 -98 -194 -193 -331 -307 -446 -85 -86 -184 -159 -217 -159 -14
0 -40 70 -48 132 -14 104 30 297 100 444 120 250 387 548 660 737 44 30 82 54
84 51 2 -2 -2 -25 -8 -51z"/>
<path d="M9687 11908 c-28 -21 -105 -354 -187 -805 -12 -68 -25 -123 -29 -123
-4 0 -69 81 -145 179 -145 190 -266 315 -341 351 -83 40 -175 12 -160 -48 11
-45 95 -158 272 -367 174 -207 289 -330 327 -351 19 -10 18 -21 -27 -475 -79
-775 -87 -867 -87 -980 0 -107 0 -109 27 -126 19 -12 47 -18 89 -18 78 0 113
23 131 85 25 84 118 712 208 1403 36 275 91 1155 78 1234 -7 40 -29 53 -88 53
-28 0 -59 -6 -68 -12z"/>
<path d="M6690 11800 c-163 -23 -576 -121 -943 -226 -227 -64 -356 -122 -372
-168 -8 -24 -6 -31 14 -47 45 -37 169 -19 432 62 53 16 104 29 113 29 19 0 19
2 6 -148 -23 -274 -28 -570 -20 -1177 5 -375 12 -641 18 -656 15 -37 59 -52
138 -47 107 7 106 4 123 368 36 762 40 1156 16 1494 -9 131 -13 242 -8 246 9
9 198 61 413 116 146 36 157 37 271 18 51 -8 109 18 109 49 0 68 -146 109
-310 87z"/>
<path d="M10897 11700 c-158 -61 -328 -290 -399 -535 -20 -69 -23 -103 -23
-240 0 -258 51 -1011 90 -1339 27 -230 31 -237 111 -237 27 0 106 0 175 0 152
0 233 17 346 71 139 67 211 158 255 317 18 66 21 105 21 258 0 198 -15 280
-68 386 -57 111 -180 206 -290 224 -70 11 -85 15 -85 24 0 4 25 52 56 106 144
250 210 505 185 711 -16 134 -65 219 -146 255 -54 25 -164 24 -228 -1z m145
-122 c16 -32 23 -66 26 -131 8 -158 -31 -318 -128 -524 -56 -119 -190 -353
-201 -353 -11 0 -17 41 -30 223 -21 275 2 416 92 585 64 121 167 242 206 242
7 0 22 -19 35 -42z m18 -1165 c70 -79 100 -195 100 -388 0 -280 -46 -412 -171
-497 -68 -46 -85 -51 -107 -29 -9 10 -27 23 -39 30 -25 13 -20 -23 -63 436
-17 176 -33 346 -37 378 l-6 57 60 0 c48 0 73 7 128 34 77 39 83 38 135 -21z"/>
<path d="M13100 11667 c-30 -15 -36 -38 -49 -192 -6 -66 -21 -217 -35 -335
-54 -463 -75 -912 -57 -1260 13 -262 24 -313 78 -361 49 -43 140 -84 242 -110
111 -28 265 -24 326 8 43 23 71 62 62 87 -3 8 -25 20 -47 26 -34 9 -52 8 -97
-6 -65 -21 -118 -11 -193 34 -86 52 -80 -22 -81 1012 0 503 -4 951 -8 994 -7
65 -13 83 -31 98 -26 21 -74 23 -110 5z"/>
<path d="M15543 11651 c-63 -29 -82 -75 -187 -451 -124 -446 -174 -659 -231
-995 -46 -269 -65 -446 -65 -592 0 -120 1 -123 25 -139 39 -25 106 -29 148 -9
41 19 48 36 67 170 21 145 81 498 86 507 3 5 18 14 32 19 41 16 278 79 295 79
11 0 19 -27 31 -112 85 -575 96 -623 156 -648 34 -14 103 -8 125 10 17 14 19
83 5 180 -5 36 -16 133 -25 215 -107 1028 -110 1054 -145 1284 -53 339 -82
442 -135 477 -41 27 -130 29 -182 5z m77 -488 c0 -60 25 -295 55 -522 20 -146
32 -268 28 -272 -9 -8 -227 -49 -260 -49 -29 0 -29 -1 8 182 70 351 147 678
160 678 5 0 9 -8 9 -17z"/>
<path d="M14115 11604 c-22 -3 -161 -16 -310 -30 -355 -33 -454 -53 -507 -101
-30 -27 -23 -62 17 -79 46 -19 56 -19 312 13 122 15 225 24 229 20 7 -7 1 -52
-71 -542 -44 -298 -54 -488 -55 -1047 l0 -427 28 -21 c23 -19 37 -21 96 -18
115 6 116 9 135 348 30 516 35 659 31 970 -3 184 -5 432 -5 550 l0 215 105 13
c58 7 200 14 315 15 116 1 216 6 223 10 6 5 12 19 12 33 0 21 -10 30 -57 52
-57 26 -63 27 -258 28 -110 1 -218 0 -240 -2z"/>
<path d="M11663 11565 c-29 -21 -50 -89 -67 -225 -32 -252 -41 -404 -40 -685
0 -247 4 -311 23 -435 53 -351 143 -589 259 -691 72 -63 177 -90 276 -69 106
22 154 77 181 211 38 185 87 698 140 1469 l25 365 -21 18 c-25 20 -95 23 -134
5 -48 -22 -70 -150 -160 -923 -27 -232 -88 -675 -108 -785 -7 -36 -17 -64 -22
-64 -23 3 -103 333 -135 554 -25 182 -40 414 -50 810 -11 407 -12 426 -32 443
-25 21 -105 23 -135 2z"/>
<path d="M7266 11521 c-59 -12 -66 -37 -82 -267 -8 -115 -17 -290 -21 -388
l-8 -180 -170 -48 c-93 -26 -175 -48 -182 -48 -13 0 -18 41 -34 344 -9 160
-16 222 -26 232 -17 16 -86 19 -113 4 -26 -14 -38 -58 -55 -194 -14 -115 -35
-420 -37 -516 0 -62 19 -657 27 -805 13 -251 24 -275 124 -275 99 0 91 -42 97
510 3 266 7 486 9 488 2 2 84 30 181 63 133 44 180 55 186 46 4 -6 8 -31 8
-55 0 -96 32 -592 50 -797 32 -346 45 -375 171 -375 61 0 73 3 95 25 l25 25
-6 193 c-14 435 -22 1083 -14 1093 5 6 37 17 72 23 93 18 126 30 138 53 23 43
-49 77 -168 78 l-52 0 -5 43 c-2 23 -10 116 -16 207 -22 320 -51 490 -88 508
-26 14 -74 19 -106 13z"/>
<path d="M12653 11369 c-30 -16 -33 -25 -48 -199 -49 -535 -56 -671 -57 -1135
-1 -457 8 -612 35 -656 27 -43 140 -50 178 -12 11 10 18 30 17 43 -6 79 1 561
12 845 15 401 11 1088 -7 1106 -16 16 -103 21 -130 8z"/>
<path d="M8245 11233 c-70 -9 -175 -33 -225 -52 -64 -24 -107 -60 -126 -108
-25 -58 -37 -335 -31 -713 9 -513 35 -802 80 -884 28 -51 91 -84 183 -97 147
-21 617 38 691 86 85 56 11 114 -118 94 -29 -5 -137 -13 -242 -20 -158 -9
-191 -9 -203 3 -8 8 -18 54 -24 113 -11 111 -30 440 -30 519 l0 51 100 38 c55
22 151 55 212 74 62 19 125 42 141 49 30 16 35 45 12 64 -37 31 -124 22 -363
-37 -57 -14 -106 -22 -110 -18 -9 9 -16 576 -7 621 3 20 15 38 28 45 52 28
168 50 292 56 143 6 168 13 163 46 -7 49 -120 78 -293 75 -55 0 -113 -3 -130
-5z"/>
<path d="M4182 9876 c-140 -67 -267 -286 -408 -700 -130 -383 -211 -716 -288
-1186 -84 -517 -109 -811 -111 -1350 l-3 -425 -170 -350 c-184 -379 -302 -645
-302 -683 0 -25 48 -52 95 -52 72 0 100 35 290 370 70 124 129 227 131 229 9
10 15 -13 39 -145 48 -262 128 -529 206 -690 87 -178 189 -260 339 -271 214
-16 267 61 453 657 30 96 69 227 87 290 42 150 47 157 55 85 64 -577 255
-1033 472 -1126 96 -41 216 -42 300 -2 49 23 123 100 168 172 20 34 40 61 45
61 5 0 12 -15 15 -32 74 -429 137 -666 235 -875 105 -224 205 -322 347 -341
115 -15 181 10 216 81 98 196 -16 903 -264 1642 -39 116 -71 214 -72 219 -1 5
41 25 93 46 125 48 188 81 283 147 43 29 81 51 86 49 5 -3 12 -32 16 -63 20
-171 89 -404 158 -537 84 -163 184 -236 360 -262 204 -30 359 26 522 190 106
107 176 216 251 389 71 166 178 473 171 491 -18 46 -141 67 -176 30 -11 -10
-51 -93 -91 -184 -87 -202 -185 -391 -247 -479 -71 -100 -188 -211 -263 -248
-99 -48 -116 -50 -151 -12 -110 118 -214 514 -244 930 l-6 85 34 45 c130 169
281 472 333 664 65 243 45 492 -48 570 -56 47 -170 59 -243 26 -174 -79 -351
-599 -387 -1136 l-11 -170 -56 -58 c-79 -83 -204 -187 -289 -241 -84 -55 -200
-111 -209 -102 -4 3 -2 21 4 39 6 17 36 111 67 207 295 905 474 1838 453 2350
-9 197 -44 328 -104 382 -54 49 -178 66 -246 33 -57 -27 -103 -88 -167 -220
-148 -305 -286 -831 -359 -1370 -68 -498 -98 -1175 -72 -1605 l9 -135 -40
-102 c-86 -223 -256 -533 -293 -533 -32 0 -127 187 -186 369 -136 418 -187
938 -155 1598 9 182 13 338 10 346 -11 29 -57 50 -118 54 -92 8 -98 0 -136
-187 -109 -532 -363 -1408 -537 -1850 -45 -115 -58 -140 -73 -140 -12 0 -66
144 -105 281 -81 286 -154 759 -167 1090 l-2 66 121 239 c408 806 677 1500
786 2029 55 266 62 328 62 575 0 192 -3 252 -19 325 -44 211 -116 345 -215
399 -44 24 -69 29 -140 33 -76 4 -92 1 -139 -21z m221 -180 c30 -63 53 -155
67 -266 47 -386 -88 -968 -400 -1721 -144 -346 -345 -787 -355 -777 -10 9 14
461 35 683 51 533 122 962 225 1360 107 416 206 664 307 769 l48 50 24 -23
c14 -13 36 -46 49 -75z m1847 -1224 c61 -229 27 -623 -105 -1218 -64 -286
-253 -952 -291 -1024 -12 -22 -13 -16 -13 60 -1 112 15 401 34 625 45 531 152
1096 272 1429 32 89 70 166 83 166 5 0 14 -17 20 -38z m752 -1487 c-7 -52 -24
-131 -38 -177 -34 -109 -96 -239 -101 -215 -9 37 64 356 109 476 19 51 22 54
31 33 7 -15 6 -53 -1 -117z m-1053 -1896 c83 -275 155 -605 186 -851 21 -171
30 -358 18 -358 -23 0 -97 242 -152 495 -56 263 -133 784 -130 895 l0 35 19
-41 c10 -23 36 -101 59 -175z"/>
<path d="M15966 9006 c-118 -44 -217 -190 -305 -451 -98 -292 -183 -717 -225
-1125 -51 -497 -45 -1155 14 -1535 l11 -70 -70 -180 c-38 -99 -77 -199 -87
-223 -15 -38 -16 -45 -3 -58 23 -22 80 -28 120 -11 26 11 43 29 67 75 18 34
37 64 42 67 5 3 23 -23 40 -59 41 -87 106 -157 172 -187 43 -19 71 -23 143
-24 79 0 97 4 147 28 54 27 95 68 119 121 7 14 16 26 20 26 4 0 15 -24 25 -52
76 -234 210 -337 423 -326 103 5 165 33 228 101 102 111 192 373 224 657 14
128 7 347 -15 452 l-16 76 56 79 c31 43 60 80 65 81 5 2 9 -60 9 -145 0 -402
58 -783 165 -1093 65 -186 100 -220 231 -220 67 0 87 4 115 23 44 29 58 72
183 582 53 215 105 417 116 450 l20 60 -6 -55 c-3 -30 -10 -91 -15 -135 -5
-44 -9 -108 -9 -142 0 -34 -4 -65 -10 -68 -14 -8 -13 -38 2 -53 6 -6 19 -50
29 -96 33 -161 92 -252 194 -297 41 -18 67 -22 155 -21 59 1 131 8 165 17 83
21 208 83 281 139 34 25 64 46 66 46 3 0 24 -19 48 -41 24 -23 73 -56 109 -73
60 -28 75 -31 166 -31 121 0 179 18 264 80 32 23 80 69 106 101 26 33 50 58
53 57 3 -1 20 -55 38 -120 81 -296 158 -429 279 -485 44 -20 66 -23 175 -23
120 0 127 1 190 32 210 103 317 321 371 757 12 96 19 181 16 190 -8 21 -78 40
-119 32 -59 -11 -66 -22 -93 -156 -57 -279 -112 -442 -188 -557 -47 -70 -73
-98 -119 -127 l-27 -18 -30 60 c-62 124 -127 397 -175 739 -14 100 -26 200
-26 222 0 22 20 100 44 173 154 468 272 1243 252 1658 -15 311 -79 575 -156
645 -33 30 -143 28 -186 -2 -59 -42 -134 -214 -189 -433 -54 -214 -123 -707
-141 -1005 -10 -172 -8 -167 -85 -181 -214 -40 -394 -211 -540 -517 -105 -222
-144 -399 -136 -619 l5 -138 -34 -44 c-69 -91 -190 -178 -299 -217 l-59 -21
-22 28 c-27 34 -60 131 -75 224 l-12 70 81 80 c196 194 367 467 428 681 56
195 6 353 -124 389 -88 24 -185 3 -281 -61 -80 -53 -148 -138 -216 -269 -30
-58 -52 -91 -49 -75 3 17 41 135 84 264 76 228 77 234 59 252 -29 29 -119 26
-146 -3 -27 -30 -92 -161 -144 -290 -66 -164 -212 -610 -294 -898 -86 -301
-84 -294 -90 -288 -9 9 -46 204 -70 372 -28 198 -58 481 -81 781 -20 258 -22
273 -57 299 -32 24 -126 28 -164 7 -15 -7 -47 -63 -91 -154 -69 -143 -135
-257 -150 -257 -4 0 -15 13 -25 29 -34 58 -108 129 -169 162 -62 33 -65 34
-183 34 -107 0 -125 -3 -170 -25 -106 -52 -177 -151 -212 -296 -9 -38 -26 -80
-38 -94 -15 -16 -25 -44 -30 -80 -23 -190 -154 -672 -212 -784 l-15 -30 -13
25 c-31 58 -115 439 -115 520 0 16 32 105 71 197 369 869 540 1453 580 1977
31 396 -60 726 -224 812 -44 23 -179 28 -231 9z m146 -113 c37 -39 75 -119 99
-210 30 -111 37 -355 15 -523 -55 -419 -210 -955 -448 -1552 l-53 -133 -6 65
c-11 106 -10 773 1 930 46 671 176 1261 311 1415 37 42 47 43 81 8z m3888
-554 c66 -283 44 -682 -69 -1229 -22 -107 -48 -229 -57 -270 l-18 -75 -9 50
c-9 58 -1 618 14 875 18 320 57 664 85 754 6 19 7 19 20 2 7 -10 22 -58 34
-107z m-508 -1647 c-4 -143 13 -472 33 -645 8 -71 15 -142 15 -158 0 -84 -274
-425 -335 -417 -29 4 -80 96 -101 180 -16 66 -19 132 -15 308 4 204 108 500
244 698 50 73 145 168 156 157 3 -3 4 -59 3 -123z m-906 46 c38 -73 -4 -224
-115 -410 -78 -131 -193 -287 -199 -270 -6 20 27 194 60 312 40 144 103 272
167 343 29 31 57 57 62 57 5 0 16 -14 25 -32z m-1929 -113 c49 -42 94 -111
129 -196 l26 -64 -58 -53 c-60 -55 -162 -112 -199 -112 -25 0 -45 19 -71 70
-27 52 -24 196 5 273 47 120 95 144 168 82z m196 -537 c8 -60 -9 -252 -33
-369 -39 -189 -132 -427 -201 -508 -27 -33 -43 -22 -86 55 -82 147 -143 442
-143 690 l0 101 99 -5 c113 -5 217 14 291 53 25 13 50 24 56 25 6 0 14 -19 17
-42z"/>
<path d="M9770 8642 c-44 -45 -148 -388 -296 -977 -36 -143 -68 -263 -72 -267
-12 -11 -293 -39 -523 -52 -192 -11 -223 -15 -246 -32 -37 -28 -38 -37 -9 -71
46 -54 114 -68 326 -67 102 1 234 8 293 16 60 8 110 11 113 6 3 -4 -13 -97
-35 -206 -107 -523 -155 -885 -167 -1267 -16 -483 70 -887 225 -1057 65 -71
134 -105 242 -119 143 -19 224 17 314 136 51 67 161 277 225 430 37 88 60 131
60 113 0 -3 11 -83 25 -178 27 -189 49 -292 67 -328 21 -41 84 -66 166 -66 68
-1 75 1 97 26 13 15 29 53 35 85 105 521 375 1161 696 1650 41 61 79 115 86
119 15 9 8 -49 -42 -334 -110 -635 -132 -987 -75 -1206 35 -134 113 -239 216
-291 74 -38 213 -59 294 -44 111 20 223 99 339 239 l37 45 17 -25 c41 -60 89
-102 150 -132 61 -30 73 -32 166 -33 90 0 108 3 160 28 180 84 388 425 546
892 15 44 31 79 35 78 5 -1 17 -37 27 -79 35 -149 105 -256 197 -303 54 -28
166 -45 235 -37 134 17 291 138 406 314 40 60 56 77 58 63 3 -19 -81 -596 -98
-674 -4 -20 -59 -128 -123 -240 -429 -758 -771 -1446 -845 -1702 -56 -191 -67
-373 -31 -490 39 -127 131 -186 293 -188 162 -2 270 101 434 413 246 466 409
1035 566 1972 l53 317 98 168 c125 214 349 574 476 765 60 91 96 154 92 164
-9 24 -58 44 -110 44 -44 0 -50 -3 -99 -55 -61 -64 -202 -250 -300 -394 -37
-56 -71 -101 -76 -101 -5 0 -6 17 -3 38 10 77 35 325 54 547 27 309 71 904 71
968 0 81 -167 121 -204 49 -15 -29 -56 -249 -81 -427 -29 -210 -141 -593 -239
-815 -122 -277 -297 -514 -428 -581 -37 -19 -41 -19 -58 -4 -24 21 -56 107
-77 208 -15 69 -18 130 -17 377 0 258 4 321 27 503 15 115 32 228 37 252 5 24
7 51 4 60 -18 45 -157 67 -194 30 -11 -11 -31 -63 -45 -118 -14 -53 -75 -237
-135 -408 -262 -743 -375 -1008 -530 -1241 -70 -106 -180 -225 -198 -214 -19
12 -65 123 -88 215 l-24 93 84 167 c220 435 329 843 313 1166 -9 194 -52 271
-160 295 -159 36 -250 -43 -355 -308 -168 -421 -230 -817 -191 -1208 l12 -111
-43 -64 c-77 -114 -166 -222 -238 -291 -104 -98 -121 -98 -168 -6 -46 91 -58
167 -57 368 0 199 11 315 73 780 65 490 70 609 30 690 -22 44 -83 79 -149 87
-155 18 -242 -50 -436 -342 -184 -277 -362 -611 -495 -928 -36 -87 -70 -158
-76 -158 -9 0 -19 72 -48 343 l-14 133 93 280 c280 837 395 1438 364 1908 -19
294 -77 387 -242 389 -78 2 -120 -20 -172 -92 -75 -102 -168 -345 -244 -638
l-38 -147 -224 -52 c-216 -50 -279 -60 -279 -47 0 4 36 189 79 413 44 223 91
478 106 565 14 88 30 167 36 177 14 26 12 29 -26 45 -54 22 -93 18 -125 -14z
m913 -409 c12 -44 17 -76 27 -180 29 -307 -65 -854 -240 -1403 -28 -85 -54
-161 -58 -168 -23 -34 -29 263 -12 538 25 401 133 929 241 1181 23 52 35 61
42 32z m-516 -881 c-65 -324 -73 -860 -23 -1417 l13 -140 -65 -170 c-139 -364
-260 -627 -352 -770 -60 -93 -89 -127 -102 -119 -16 10 -65 118 -86 189 -124
419 -102 1091 68 2086 21 128 43 236 47 240 4 4 71 22 148 39 77 17 183 43
235 59 123 38 124 38 117 3z m2397 -668 c23 -61 -10 -310 -68 -509 -52 -179
-142 -409 -157 -400 -4 3 -6 29 -3 58 28 272 93 565 176 785 31 83 41 95 52
66z m1301 -2711 c-129 -560 -303 -1034 -473 -1290 -19 -29 -38 -53 -43 -53
-16 0 -21 89 -10 181 15 119 51 254 107 396 95 241 445 970 451 941 2 -9 -12
-88 -32 -175z"/>
<path d="M4740 7718 c-65 -33 -95 -97 -95 -200 0 -71 2 -79 29 -107 35 -37 80
-51 160 -51 125 0 181 57 180 182 -2 91 -32 153 -88 179 -57 26 -131 24 -186
-3z"/>
</g>
</svg>
