<?xml version="1.0" encoding="utf-8"?>
<!-- Generator: Adobe Illustrator 25.0.1, SVG Export Plug-In . SVG Version: 6.00 Build 0)  -->
<svg version="1.1" id="Layer_1" xmlns="http://www.w3.org/2000/svg" xmlns:xlink="http://www.w3.org/1999/xlink" x="0px" y="0px"
	 viewBox="0 0 2500 2500" style="enable-background:new 0 0 2500 2500;" xml:space="preserve">
<style type="text/css">
	.st0{fill:#231F20;}
</style>
<path transform="translate(0.000000,2500.000000) scale(0.100000,-0.100000)" class="st0" d="M12775,24711
	c-382-96-739-466-1102-1144c-521-975-814-2238-924-3987c-17-270-23-1134-10-1440c21-502,48-815,133-1556l12-102l-74-118
	c-228-369-515-757-749-1013c-106-116-251-246-261-234c-27,29-66,311-81,586c-33,603,79,1503,307,2460c183,772,181,752,92,798
	c-86,45-274,34-321-19c-9-9-94-172-190-362c-95-190-286-556-424-815c-137-258-332-630-433-825c-459-891-608-1142-829-1395
	c-69-80-86-94-96-83c-40,41-111,283-139,473c-62,414-41,843,84,1740c26,193,51,381,55,418c18,180-28,238-200,254
	c-126,11-230-31-251-102c-7-22-46-157-88-300c-125-424-188-620-393-1220c-322-942-437-1262-573-1587c-64-152-201-438-210-438
	c-21,0-44,680-36,1075c18,941,101,1775,266,2680c23,121,43,228,46,237c3,10,26,30,52,45c997,566,1671,1166,2176,1935
	c173,265,284,477,401,773c151,383,221,690,232,1021c9,269-19,484-93,724c-90,289-204,425-409,486c-83,25-292,25-390,0
	c-101-25-276-114-380-193c-103-78-306-276-416-408c-487-581-941-1471-1303-2556c-171-514-370-1237-487-1766l-22-101l-106-50
	c-58-27-196-89-306-137c-490-213-662-289-835-368c-124-57-186-81-188-72c-2,7,13,129,32,271c92,672,273,2181,335,2794
	c82,802,92,1269,35,1602c-63,371-216,571-494,645c-92,25-327,24-430,0c-238-58-486-202-786-458c-233-199-653-631-895-919
	c-226-271-531-707-701-1005c-162-284-344-681-355-774c-5-43-3-50,18-65c29-20,98-21,126-1c12,9,60,94,106,189
	c351,724,843,1391,1494,2026c393,384,685,616,932,742c96,49,205,88,245,88c63,0,154-135,191-283c61-251,61-716,0-1272
	c-69-623-510-3865-535-3930c-5-12-41-41-82-65c-240-142-564-373-798-570c-171-144-545-518-676-675c-419-505-686-1039-770-1540
	c-23-138-23-396,0-540c61-385,196-683,401-890c186-188,386-265,655-252c260,13,445,99,633,296c258,272,475,754,712,1581
	c197,689,364,1476,515,2424c30,192,42,243,57,254c40,31,600,297,1111,528c236,107,292,128,292,114c0-10-9-60-19-111
	c-51-246-121-700-160-1034c-66-556-86-901-86-1470c1-528,10-684,60-1010c78-503,185-627,526-613c195,9,273,56,377,230
	c168,281,314,696,608,1728c36,129,70,241,74,248c4,8,10-37,13-100c14-251,72-489,167-684c120-247,272-344,537-344
	c240,0,372,81,553,338c172,244,305,489,589,1088c265,560,403,845,407,841c2-2-3-31-11-65c-8-35-33-152-54-260
	c-154-769-178-1458-66-1929c72-304,211-413,522-413c266,0,427,82,683,346c160,165,306,348,487,608c47,67,85,112,87,105
	c3-8,12-63,21-124c60-403,174-895,236-1016c41-82,143-135,279-146c137-10,296,33,334,92c12,18,21,75,31,188c26,283,85,597,180,962
	c96,371,204,658,385,1023c296,598,594,1069,758,1197l46,36l18-23c28-37,85-176,117-289c83-288,132-620,181-1229l19-245l-42-35
	c-646-542-930-913-1023-1340c-15-68-19-125-18-280c0-171,3-210,27-321c63-300,188-540,345-665c125-99,250-138,442-137
	c150,0,231,18,345,76c288,149,456,537,542,1252c27,229,25,858-5,1209c-12,142-22,268-22,280c0,17,48,55,216,171
	c120,83,289,202,378,266l161,117l7-412c16-1036,70-2015,117-2138c13-35,64-72,131-95c85-28,305-25,381,5c92,37,107,60,129,199
	c138,856,492,1804,977,2612c253,421,493,739,685,910c73,64,151,121,166,121c14,0,58-137,77-235c22-120,42-305,60-545
	c18-259,35-538,35-600v-45l-247-215c-418-363-661-618-792-833c-132-216-235-484-288-752c-14-71-18-139-18-320c0-200,3-245,23-343
	c63-311,205-600,357-726c155-128,343-185,575-173c345,19,591,170,758,468c41,73,113,252,145,364c162,555,196,1228,117,2345
	c-11,157-23,295-25,308c-5,18,9,40,64,100c176,195,339,447,496,766c87,175,94,186,99,155c3-19,12-86,21-149c31-219,93-429,167-560
	c45-80,159-188,239-227c113-56,176-68,349-68c135,0,165,3,230,23c94,30,186,78,272,142c187,141,469,510,644,844l64,121v-105
	c0-127-18-975-29-1330l-7-255l-91-116c-337-430-759-1028-966-1370c-178-295-302-588-372-879c-76-320-74-759,5-1150
	c83-406,218-717,385-885c129-130,218-165,415-165c180,0,277,33,385,131c192,176,346,563,499,1256c163,735,263,1655,326,2997l10,209
	l157,195c87,107,166,204,176,216c18,20,18-106,12-3949c-4-2183-7-3971-8-3971c-5-5-19757,12-19761,17c-4,3-6,902-6,1998
	c0,1589-2,1992-12,1995c-7,2-62,22-123,43l-110,40l-6-1076c-11-2001-10-3103,4-3130c6-14,26-33,44-43c30-18,348-19,10070-27
	c6109-5,10051-4,10072,1c18,6,43,20,56,32l22,22l6,1089c4,600,7,2479,7,4177v3087l62,73c89,106,518,531,623,620
	c251,210,437,329,644,413c138,56,173,84,151,125c-21,39-85,60-185,60c-146,0-290-43-510-150c-212-104-438-258-665-455
	c-60-53-110-92-110-88c-1,4,0,1372,0,3038l1,3030l-22,23c-11,13-32,27-46,33c-15,5-704,9-1765,9h-1740l6-57c4-32,9-72,12-89l6-31
	l1131-6c623-4,1365-7,1650-7h517v-1103c0-607-3-2003-7-3103l-6-1999l-96-100c-53-55-126-132-162-171l-65-71l2,1653
	c1,1214-2,1659-10,1676c-22,46-79,63-206,63c-104,0-119-2-160-25c-30-16-51-38-64-63c-42-87-67-330-86-847c-10-264-13-294-41-403
	c-100-396-288-855-486-1187c-190-317-433-605-625-740l-70-50l-20,25c-82,105-157,400-189,745c-16,181-14,546,5,733
	c29,285,89,663,171,1087c25,129,48,261,52,292c6,55,5,58-29,92c-44,44-118,66-222,66c-97,0-187-24-226-60c-45-43-97-218-248-850
	c-36-150-139-447-273-782c-168-420-327-755-476-1003l-77-129l-22,157c-87,618-194,823-465,893c-78,21-250,23-329,5
	c-288-67-599-385-1087-1113c-243-362-422-665-604-1025l-107-213l-6,63c-11,117-26,1079-19,1255l6,175l125,126
	c482,487,937,1089,1266,1673c676,1201,1159,3120,1076,4273c-33,460-138,766-302,878c-98,68-153,82-323,82c-130,0-160-3-225-23
	c-315-99-583-365-907-900c-437-723-783-1737-1022-3004c-185-978-313-2018-351-2853c-6-132-13-282-16-332l-6-93l-111-93
	c-169-140-446-350-653-495l-31-21l-12,102c-67,568-178,1014-308,1236c-53,90-151,192-220,229c-192,101-453,93-641-20
	c-190-115-377-372-770-1058c-225-393-391-739-493-1029c-37-106-48-131-53-111c-3,14-28,202-54,419l-49,394l97,201
	c221,458,611,1365,905,2106c516,1301,839,2413,969,3336c96,677,113,1353,46,1715c-59,312-185,475-415,534
	C13053,24736,12866,24734,12775,24711z M13065,24424c117-176,168-459,168-944c0-831-150-1673-488-2734c-224-704-513-1435-1008-2552
	c-238-536-275-612-281-583c-10,42-35,475-47,789c-13,334-7,1107,11,1405c107,1842,421,3135,992,4085c183,304,383,535,533,613
	c27,14,32,14,56-4C13016,24489,13045,24455,13065,24424z M17484,24239c69-81,141-305,171-538c114-856-193-2399-732-3671
	c-99-234-300-636-419-840c-221-378-555-845-843-1180l-30-35l-1,57c0,32,7,158,15,280c76,1116,249,2342,456,3238
	c228,985,559,1811,943,2352c131,185,325,369,398,377C17445,24280,17464,24261,17484,24239z M8610,23505c67-35,142-158,199-330
	c149-447,129-912-61-1464c-178-516-448-985-836-1451c-130-155-497-521-657-654c-186-155-385-303-575-429c-182-120-220-142-220-128
	c0,21,87,394,161,691c337,1354,752,2400,1229,3099c217,318,470,580,635,657C8543,23524,8570,23526,8610,23505z M3525,17014
	c-109-621-213-1125-335-1619c-247-996-456-1546-707-1858c-59-73-163-157-194-157c-52,0-193,101-277,198c-205,237-325,565-339,928
	c-11,269,43,531,174,844c127,304,371,677,643,985c187,211,500,505,740,697c105,83,333,249,337,244C3569,17275,3550,17157,3525,17014
	z M17716,15525c-4-534-11-664-51-953c-51-371-156-706-273-879c-43-63-135-153-157-153c-25,0-114,80-164,146c-67,88-144,241-186,367
	c-129,394-99,836,87,1268c113,264,228,421,517,709l216,215l8-95C17717,16098,17719,15817,17716,15525z M13617,15490
	c13-710-68-1270-228-1580c-40-77-93-150-110-150c-40,0-184,195-237,321c-85,204-116,383-109,618c5,193,28,293,101,446
	c96,202,210,357,425,578c126,128,136,137,144,115C13607,15826,13614,15669,13617,15490z M20855,15155c-55-895-129-1561-241-2140
	c-75-393-150-681-222-858c-40-97-105-222-121-231c-5-3-27,21-50,54c-125,178-230,487-286,840c-23,141-31,498-16,643
	c42,392,179,755,452,1197c119,195,489,742,496,736C20868,15395,20863,15286,20855,15155z M1913,23700c-17-6-43-24-57-41l-26-31v-646
	l1-647l124,130l125,130l2,460l3,460h2675h2676l102,93l102,92H5586c-1129,0-2410,2-2847,5C2223,23708,1934,23706,1913,23700z
	 M9527,23652c21-26,49-69,63-95l25-47h820h820l38,88c20,49,37,92,37,95c0,4-414,7-920,7h-920L9527,23652z M14097,23693
	c-2-5,0-47,6-95l9-88h883h882l37,88c20,48,36,91,36,95C15950,23702,14102,23702,14097,23693z M2049,20570c-15-19-70-100-122-180
	l-96-145l-6-1730l-6-1730l28,31c15,17,73,85,128,150l100,118l3,1260c1,694,1,1486,0,1761l-3,500L2049,20570z M8775,13382
	c-43-15-55-25-83-72c-37-63-88-213-128-380c-15-63-31-120-35-126c-6-7-65-14-146-17c-221-10-370-55-402-122c-13-27-12-30,13-52
	c23-19,38-23,94-23c37,0,83,4,101,10c50,14,292,33,301,23c5-4-2-65-14-134c-21-114-29-137-81-235c-170-319-310-525-491-722
	c-88-95-237-232-253-232c-4,0-29,36-55,80c-26,45-118,192-205,328c-260,406-299,486-309,635c-8,132,44,265,125,318
	c38,25,67,24,132-6c107-50,246-218,362-439c54-103,69-116,134-116c82,0,123,51,110,139c-9,60-68,209-116,292
	c-140,242-355,353-654,336c-235-13-421-124-504-301c-55-117-64-221-30-354l20-82l-64-102c-35-57-144-236-242-398
	c-631-1045-1044-1580-1219-1580c-59,0-141,114-199,275c-84,235-118,621-82,926c15,130,61,368,74,381c3,4,69,25,146,47
	c287,81,482,167,679,299c332,222,475,416,476,647c0,132-49,243-147,335c-114,107-239,150-439,150c-293,0-494-116-757-435
	c-207-252-397-603-499-923c-12-37-26-72-32-79c-6-6-58-24-116-38c-336-85-535-175-672-303c-73-69-168-200-168-233c0-29,39-49,95-49
	c64,1,81,11,144,88c102,123,238,215,411,277c76,27,252,77,256,72c2-1-7-54-18-117c-17-94-21-155-21-330c0-252,18-379,82-571
	c69-203,144-332,255-436s249-159,431-169c250-15,448,67,612,255c261,298,641,888,1008,1564c65,120,121,216,125,215
	c13-5,436-641,491-737c53-93,53-94,32-110c-12-9-78-56-148-105c-366-258-585-579-561-822c13-132,68-237,172-333
	c75-69,162-114,275-142c70-18,103-20,233-16c173,5,232,18,356,79c268,131,400,442,335,787c-22,114-87,313-152,460
	c-53,122-54,126-35,141c10,8,57,44,103,80c150,116,388,369,480,510c15,23,16,0,11-310c-10-698,47-1059,208-1303
	c87-134,199-226,321-267c55-19,81-21,184-18c101,3,127,7,163,27c65,34,124,92,191,190c217,317,360,810,361,1239v73l-37,16
	c-50,20-131,13-153-14c-10-13-22-68-34-159c-45-358-129-629-290-931c-48-91-171-264-191-270c-15-5-88,112-119,191
	c-36,91-62,228-77,411c-18,217-15,896,5,1275c17,326,45,737,51,756c2,7,41,7,132-3c171-18,543-70,668-94c127-24,219-25,265-1
	c45,22,51,54,15,78c-75,49-663,165-962,190c-45,4-86,10-93,14c-8,5-7,53,4,186c31,371,31,357,5,388
	C8949,13400,8861,13411,8775,13382z M5788,12929c75-37,134-102,163-178c17-46,20-72,17-146c-4-101-29-168-95-257
	c-77-106-295-266-508-375c-103-52-336-143-367-143c-16,0-3,48,53,198c155,414,422,832,581,911C5690,12967,5716,12966,5788,12929z
	 M7472,10743c66-177,89-276,95-408c4-91,1-137-11-189c-47-200-182-346-319-346c-99,0-221,92-275,208c-24,50-27,69-27,162
	c0,101,2,108,38,184c42,88,105,182,181,269c63,74,246,228,265,225C7427,10846,7450,10800,7472,10743z M12178,13149
	c-220-29-485-195-673-420c-74-88-185-250-185-269c0-6,11-16,25-22c52-24,94,2,247,153c164,162,290,260,421,329c127,67,211,94,237,78
	c64-40,87-217,56-408c-49-291-239-919-509-1685c-156-442-372-1134-384-1226c-5-41-3-48,22-67c72-57,185-54,355,9
	c396,145,1011,290,1359,320c135,12,186,30,186,65c0,12-13,26-35,37c-31,17-54,18-215,13c-99-3-232-12-295-21
	c-190-26-592-111-808-171c-112-31-205-54-207-52s40,123,94,269c368,988,541,1488,665,1924c127,448,151,577,144,771
	c-3,101-8,128-29,174c-35,76-68,111-136,147C12417,13148,12304,13166,12178,13149z M13850,13021c-147-47-295-165-396-316
	c-185-279-339-800-385-1305c-17-193-6-590,20-711c53-244,132-405,271-552c114-122,268-213,437-259c105-28,317-31,413-5
	c157,43,286,139,366,273c111,189,210,504,249,799c19,143,22,484,5,625c-24,206-112,644-161,808c-67,221-183,469-261,556
	c-56,63-92,78-175,75c-35-2-77,4-106,14C14063,13046,13923,13045,13850,13021z M14125,12895c50-21,52-25,117-151
	c135-264,233-571,303-949c76-415,53-775-76-1173c-74-228-173-408-274-500s-155-102-261-47c-183,95-316,279-389,535
	c-152,539,6,1733,283,2136c46,68,123,145,167,167C14029,12931,14053,12927,14125,12895z M17550,13014c-223-58-440-261-565-528
	c-47-100-70-184-61-220c4-16,19-29,46-40c51-20,99-20,149,0c37,14,42,21,62,82c90,274,322,550,498,592c43,10,55,9,86-6
	c147-69,151-311,15-793c-39-139-299-959-363-1146c-19-55-74-208-122-340c-100-274-245-714-245-742c0-51,99-93,218-93
	c69,0,516,33,827,61c308,27,452,55,509,100c34,27,33,45-6,69c-36,22-140,27-211,11c-48-11-945-57-953-48c-6,6,58,191,234,672
	c60,165,130,363,155,440c69,212,223,738,273,935c92,356,117,605,74,743c-37,118-130,207-261,248
	C17834,13035,17634,13036,17550,13014z M15505,12981c-157-45-306-174-384-332c-91-186-75-309,41-309c54,0,74,13,89,57
	c50,157,191,353,310,432c72,48,96,51,140,14c111-94,168-318,140-547c-37-288-126-538-458-1286c-102-228-218-494-258-590
	s-105-248-144-338c-39-89-71-174-71-188c0-89,178-120,383-68c133,34,382,75,692,115c247,32,389,38,675,27c71-3,125,13,140,43
	c16,28,2,47-53,73c-154,75-405,81-942,25c-104-11-248-29-319-39c-71-11-130-20-132-20c-11,0,98,250,268,615
	c417,893,518,1171,547,1515c11,127,2,276-24,386c-36,156-144,318-252,377C15787,13000,15626,13016,15505,12981z M10350,10301
	c-70-22-139-80-160-136c-16-42-3-138,23-171c38-49,110-74,213-74c81,0,98,3,144,28c63,32,90,76,90,142c-1,92-71,188-153,209
	C10456,10311,10388,10312,10350,10301z"/>
</svg>
