<?xml version="1.0" encoding="utf-8"?>
<!-- Generator: Adobe Illustrator 25.0.1, SVG Export Plug-In . SVG Version: 6.00 Build 0)  -->
<svg version="1.1" id="Layer_1" xmlns="http://www.w3.org/2000/svg" xmlns:xlink="http://www.w3.org/1999/xlink" x="0px" y="0px"
	 viewBox="0 0 2400 2400" style="enable-background:new 0 0 2400 2400;" xml:space="preserve">
<g>
	<path transform="translate(0.000000,2400.000000) scale(0.100000,-0.100000)" d="M14625,22482c-188-65-348-257-531-637
		c-191-398-319-835-399-1370l-28-180l-49-48c-103-99-386-304-399-290c-3,5-19,42-34,83c-88,236-241,439-408,539
		c-250,149-585,129-766-45c-55-54-55-54-118-54c-80,0-126-22-181-88c-38-45-232-224-251-230c-4-1-16,16-27,39c-30,68-71,117-116,141
		c-60,30-195,37-269,13c-130-43-212-192-175-317c29-100,112-149,265-156l94-5l-6-126c-7-137-29-276-82-503
		c-135-578-328-1097-461-1245l-44-48l-43,48c-132,145-247,511-292,932c-25,229-29,550-11,855c17,295,16,302-44,333
		c-48,25-169,19-208-10c-29-21-25-11-207-532c-196-561-297-813-427-1076c-64-128-150-265-191-303l-24-23l-25,33
		c-99,132-171,356-199,627c-33,322,21,999,128,1594c30,168,30,171-47,188c-61,14-140-4-173-39c-99-103-239-642-304-1167
		c-24-197-25-601-1-740c87-502,328-746,688-698c197,26,318,144,448,438c43,97,172,442,208,558c20,64,34,59,34-13c0-87,42-366,75-495
		c88-348,210-546,391-632l79-38h140c136,0,142,1,205,31c112,53,177,132,270,327c123,258,279,809,356,1262c20,113,27,199,31,353
		l6,203l26,14c15,7,60,39,100,70s74,55,76,53s-3-48-10-103c-28-202-40-526-27-736c22-361,75-607,179-819c48-100,66-125,137-196
		c86-86,159-129,266-155c79-20,279-17,360,5c213,57,375,206,502,461c88,174,153,384,178,565c15,108,15,359,1,470c-9,68-9,87,1,93
		c7,4,72,42,143,85c72,43,141,85,155,94l25,17v-487c0-404,4-542,23-812c30-439,42-567,51-593c19-48,80-81,171-92
		c95-12,228,23,251,66c5,11,19,92,29,182c22,184,40,285,76,439l26,107l36,6c20,3,57,10,82,16c25,5,51,11,59,12c21,3,56-64,90-173
		c145-462,175-534,269-646c68-80,143-134,234-168c133-50,333-58,498-20c39,9,73,14,76,11c2-2,14-37,25-78c59-213,161-332,323-375
		c70-19,243-18,319,2c359,93,899,620,1199,1169c95,174,218,478,218,537c0,47-182,66-228,25c-11-10-58-96-105-190
		c-47-95-122-230-167-302c-258-412-649-819-958-996c-70-40-73-41-87-23c-30,39-75,175-95,285c-28,157-27,180,10,207
		c105,78,264,254,362,403c225,337,400,903,385,1239c-12,265-102,387-299,405c-200,18-362-61-496-242c-174-237-328-673-398-1131
		c-21-133-27-219-31-420l-6-254l-90-44c-141-69-181-70-243-7c-88,88-150,217-233,488c-91,294-164,416-291,480c-47,24-51,28-37,43
		c324,379,528,679,705,1039c162,329,220,598,153,707c-14,23-41,45-77,62c-49,24-67,27-152,27c-67,0-113-6-147-18
		c-162-57-338-243-590-624c-180-273-331-542-461-821l-39-85l-3,235c-3,231,7,457,31,696l13,120l110,125c253,287,423,543,619,931
		c188,372,266,605,266,803c1,181-57,286-180,330C14850,22506,14690,22505,14625,22482z M14795,22308c42-101,26-270-42-459
		c-44-124-163-368-268-549c-101-176-290-460-306-460c-10,0,53,297,100,467c72,264,174,540,273,737c71,141,186,306,213,306
		C14772,22350,14786,22331,14795,22308z M15180,20488c-49-209-223-551-458-898c-109-162-322-444-329-436c-6,6,85,229,161,396
		c116,251,294,564,432,756c69,96,195,246,201,240C15190,20543,15187,20517,15180,20488z M12493,20505c119-56,235-180,317-337
		c44-84,104-256,115-330l7-47l-53-24c-219-96-385-113-487-50c-104,64-153,170-160,345c-7,191,43,358,132,434
		C12411,20537,12425,20538,12493,20505z M11204,20091c15-67,10-89-18-78c-23,9-40,78-31,133c6,44,8,47,20,30
		C11183,20166,11196,20128,11204,20091z M16446,19763c37-157,5-402-88-672c-80-231-230-527-326-641l-30-35l5,55
		c36,448,147,899,293,1190c46,91,112,182,124,170C16428,19826,16438,19796,16446,19763z M12173,19549c187-72,488-76,720-11l67,19
		l7-25c11-46-8-296-32-418c-72-357-273-720-461-830c-40-24-44-24-72-10c-46,24-123,117-169,203c-110,207-174,498-203,913
		c-5,80-10,167-10,193v48l38-26C12078,19591,12130,19566,12173,19549z M8025,21769c-290-28-681-68-865-89c-458-53-628-73-768-91
		c-84-10-182-19-217-19s-76-5-91-10c-15-6-114-22-218-36c-523-68-753-120-811-184c-25-27-15-61,24-84c49-28,173-27,233,3
		c25,12,89,28,153,37c368,51,520,71,524,68c2-2-8-79-23-171c-105-674-161-1619-171-2908l-4-509l-288-68c-158-38-313-70-343-72
		c-41-2-79-15-152-50c-83-41-98-51-98-72c0-40,49-57,160-56c91,1,434,57,680,112c67,15,109,18,186,14c84-5,104-3,133,13
		c27,14,56,45,56,60c0,0,72,20,160,43c723,188,1131,326,1238,419c44,39,47,68,12,101c-21,20-39,25-93,28c-69,4-142-15-142-37
		c0-37-319-139-871-280c-151-39-281-71-288-71c-10,0-11,17-7,73c4,39,11,171,16,292c6,121,19,366,30,545c44,720,51,845,60,1090
		c5,140,14,424,20,630c14,502,31,903,40,913c4,5,90,19,191,33c342,44,962,124,1329,169c443,55,476,60,526,89c50,28,52,55,4,78
		C8308,21794,8276,21793,8025,21769z M10994,17190c-147-31-239-125-350-355c-218-454-328-1104-294-1728l13-225l-183-304
		c-101-167-230-374-287-461c-58-88-102-164-99-172c8-21,81-37,132-29c57,8,118,49,193,129c64,69,211,262,276,363c43,67,54,74,62,41
		c3-11,23-57,44-100c85-177,216-259,411-259c217,0,363,89,514,316l61,91l7-182c13-366,80-598,211-731c78-78,142-105,275-111
		c114-6,205,12,294,60c83,44,211,174,325,330c52,70,95,126,96,125c2-2,21-96,44-209c22-113,50-235,61-270c33-108,91-143,236-142
		c92,1,162,25,188,65c8,12,33,120,55,238s60,294,84,390l43,175l70-3c44-2,96,3,139,13l68,17l17-22c48-63,73-190,110-545
		c30-288,65-401,151-483c87-84,216-125,394-125c140-1,245,23,354,78c81,40,207,134,276,204c27,28,53,51,57,51s25-35,47-78
		c105-209,231-293,442-295c270-1,527,140,741,407c177,221,308,506,418,913c38,138,36,145-34,164c-45,12-117,7-159-12
		c-22-10-35-34-73-133c-191-493-386-810-621-1005c-73-60-188-131-214-131c-37,0-144,213-209,416l-42,131l60,104
		c182,316,294,706,324,1135c21,291-12,449-103,496c-56,28-139,40-208,29c-95-15-147-44-225-124c-140-142-241-396-298-747
		c-31-195-31-502,0-685c13-71,29-155,37-185l14-54l-39-51c-125-162-348-365-468-426l-63-32l-27,20c-60,44-94,143-117,343
		c-8,69-21,184-29,255c-29,244-76,374-169,462c-58,55-139,91-224,100c-29,3-53,7-53,8s59,105,132,231c243,423,436,825,530,1105
		c35,105,41,137,42,211c1,82-1,88-27,116c-35,37-86,52-170,52c-152,0-271-91-450-342c-235-331-536-954-712-1477
		c-45-131-43-132-69,50c-22,150-21,170,20,262c194,437,347,971,420,1462c35,232,45,582,20,705c-33,163-90,220-218,220
		c-153,0-238-75-349-305c-133-278-248-721-301-1160c-20-165-22-233-21-520c0-217,6-375,15-460l15-130l-50-85
		c-77-130-200-312-299-442c-105-138-233-272-249-262c-22,13-87,170-112,271c-14,56-31,159-38,229c-15,165-6,634,17,854
		c9,91,18,205,18,254c1,86,0,89-27,110c-25,18-42,21-131,21c-79,0-108-4-128-17c-17-12-65-93-146-250c-151-295-235-444-327-583
		c-70-106-198-265-213-265s-70,107-100,191c-33,93-77,295-88,401c-6,65-6,65,44,149c239,398,467,900,560,1234c48,170,65,285,65,430
		c-1,311-108,475-318,489C11067,17197,11017,17195,10994,17190z M11098,17013c122-244,7-742-316-1378l-61-120v77
		c-3,334,97,922,202,1194c56,144,123,264,148,264C11076,17050,11088,17033,11098,17013z M13297,16777c44-205,2-606-107-997
		c-56-204-194-588-220-614c-23-23-3,418,31,699c45,374,145,788,230,957C13267,16894,13272,16891,13297,16777z M14117,15804
		c-51-132-117-276-224-489c-136-271-332-630-339-622c-6,6,70,223,143,407c80,202,179,411,261,547c75,127,186,277,190,259
		C14150,15898,14136,15852,14117,15804z M15456,15158c-7-157-22-255-72-456c-38-156-111-372-125-372c-20,0-5,312,26,525
		c27,186,90,395,142,475l17,25l8-30C15457,15308,15459,15233,15456,15158z M8430,16846c-181-52-306-211-445-561
		c-134-339-271-873-325-1275c-6-47-14-87-16-89s-4,56-5,130c-1,311-17,714-29,741c-17,37-75,58-161,58c-78,0-129-17-152-51
		c-17-24-66-173-187-569c-170-555-336-951-457-1089c-43-49-46-51-64-35c-29,27-95,162-127,264c-102,322-106,795-11,1431
		c11,77,19,161,17,187c-3,43-6,49-38,64c-24,13-59,18-113,18c-87,0-138-16-160-52c-21-32-92-233-252-708c-238-706-371-1061-471-1262
		c-50-100-140-242-172-271c-19-17-21-17-55,23c-106,124-200,414-236,725c-42,370-9,935,86,1455c19,107,38,207,40,222
		c7,37-36,58-117,58c-104,0-139-30-190-162c-69-178-137-477-181-798c-20-144-23-207-24-490c0-299,2-335,24-455
		c99-544,299-794,636-795c195,0,326,85,446,288c96,161,148,288,278,669l97,282l17-141c21-166,70-344,128-466c60-124,148-211,243-241
		c141-44,306-19,406,60c126,99,243,320,391,739l48,135l1-125c0-177,18-570,35-805c34-448,147-1287,242-1790c30-159,45-184,124-205
		c96-26,240,6,260,58c6,16,4,89-6,211c-63,787-77,1137-64,1564c4,155,11,310,15,345l6,62h78c171,0,316,81,465,260
		c95,114,169,230,247,387l71,142l141,70c77,38,170,79,206,91c106,37,123,67,54,96c-48,20-95,17-213-11c-57-14-106-24-108-21
		c-2,2,7,44,21,92c112,391,159,895,107,1154c-24,119-71,228-126,289c-20,22-66,55-102,73c-59,29-75,32-171,35
		C8515,16858,8458,16855,8430,16846z M8629,16620c142-271,78-937-149-1556c-9-26-34-45-133-102c-67-39-180-109-252-156
		c-71-47-132-86-136-86c-14,0,64,514,117,765c122,575,314,1081,457,1201l31,26l24-28C8601,16668,8619,16639,8629,16620z M8233,14611
		c-34-55-127-162-172-199l-44-36l7,29c15,60,81,133,191,213C8254,14646,8255,14645,8233,14611z M11774,16321c-51-31-69-82-69-191
		c1-166,51-220,205-220c90,0,141,20,188,74c49,57,45,91-21,153c-58,55-104,83-137,83c-29,0-35,23-16,61c22,45,8,59-63,59
		C11824,16340,11795,16334,11774,16321z M8440,12610c-53-13-85-57-120-167c-50-161-139-540-196-834l-28-146l-160-7
		c-408-17-560-45-600-108c-32-51,69-108,192-108c37,0,124,7,193,15c70,7,177,17,239,21l112,7l-6-29c-8-43-23-168-43-359
		c-24-237-24-677,0-875c56-457,182-779,348-885c114-73,303-73,437,0c131,71,280,260,443,559c23,42,40,64,43,56c2-8,14-58,26-110
		c29-123,84-306,116-383c44-110,101-143,231-135c77,4,117,21,146,59c10,15,48,120,84,235c77,247,138,416,223,614
		c61,144,253,536,271,555c11,11,11,1-1-93c-30-233-52-575-47-742c14-446,99-610,329-627c133-10,230,26,308,114s156,278,341,827
		l74,220l2-115c4-202,23-470,43-609c36-247,107-468,175-547c73-86,227-106,352-46c118,55,306,493,436,1012l44,174l144-123
		c154-131,405-379,428-423c13-24,9-38-57-204c-133-333-235-660-290-933c-54-264-60-408-18-488c50-97,197-145,367-122
		c144,20,277,91,418,225c98,93,163,180,217,290c53,110,72,187,80,325c19,310-84,622-301,916l-53,71l43,99c105,243,238,503,412,802
		c46,79,83,150,83,157c0,38-117,61-183,36c-53-20-366-511-511-799c-20-40-41-72-45-70c-14,5-319,276-415,368c-98,94-139,149-162,212
		c-18,52-20,174-3,243c48,198,248,455,354,455c44,0,147-52,186-95c19-20,46-49,61-66c51-56,148-32,148,37c0,100-120,208-277,249
		c-74,19-242,19-318,0c-166-42-321-162-446-346c-78-116-129-265-129-381c0-53,24-150,47-189c16-27,15-34-27-186
		c-52-191-153-500-210-644c-50-125-141-319-150-319c-12,0-62,223-85,387c-31,215-42,371-55,773c-15,476-25,537-88,561
		c-39,16-144,14-178-2c-43-21-67-74-224-494c-251-673-409-1058-462-1129c-13-17-15-15-26,20c-46,158-51,576-13,1034
		c26,306,25,446-3,498c-25,49-90,75-186,75c-194,0-290-110-551-628c-117-234-220-466-279-632c-18-51-36-93-40-93
		c-14,0-81,436-96,620l-6,85l65,175c111,299,224,683,283,960c47,226,65,368,71,565c4,165,2,203-15,288c-40,190-99,251-247,251
		c-100,0-146-15-203-68c-80-73-131-177-182-371c-137-520-174-1157-105-1793l14-127l-84-173c-174-355-375-662-503-767
		c-32-27-33-27-53-9c-11,10-38,55-59,99c-136,285-199,807-171,1415c12,263,30,484,42,516c7,20,17,21,158,27c83,3,192,2,243-3
		c143-14,233,12,226,64c-7,50-151,81-427,92l-184,7l7,61c5,54,80,598,122,891c8,61,22,120,30,133c19,29,12,39-34,52
		C8500,12621,8489,12621,8440,12610z M9719,12269c14-81,14-314,1-439c-12-110-49-304-91-475c-42-168-109-388-121-400
		c-23-22,7,504,48,825c28,228,87,490,126,564C9696,12371,9706,12351,9719,12269z M13264,9205c98-244,119-553,52-747
		c-51-145-173-313-290-396c-42-30-47-32-54-15c-31,76,37,518,129,838c49,172,123,394,130,390C13235,9272,13250,9241,13264,9205z
		 M11505,11776c-112-49-162-211-89-288c53-55,96-70,193-66c101,4,142,25,172,92c26,58,24,94-13,167c-44,86-79,109-167,109
		C11565,11789,11522,11783,11505,11776z M15070,7508c-25-11-55-20-67-19c-35,4-102-18-122-40c-10-11-24-41-30-66
		c-45-178-94-1194-80-1653c14-457,81-615,298-702c50-20,73-23,226-23c161,0,174,2,250,28c239,84,419,264,579,577
		c126,246,170,467,146,730c-16,170-49,293-114,425c-91,183-256,381-406,487c-80,57-442,255-490,268
		C15201,7537,15119,7532,15070,7508z M15403,7158c280-191,450-407,512-651c65-258,35-536-86-787c-123-256-323-477-473-522
		c-35-11-40-10-57,10c-28,36-58,125-74,225c-20,131-32,315-50,767c-17,417-39,832-55,1015c-15,173-23,164,78,89
		C15246,7268,15338,7203,15403,7158z M10680,7496c-122-35-220-112-304-240c-131-196-198-445-181-666c38-492,224-1607,316-1897
		c39-121,63-143,158-143c88,0,111,15,111,75c0,25-16,163-36,307c-68,505-101,763-99,766c2,2,29-41,61-95c178-305,485-819,529-888
		c67-104,112-155,152-171c43-18,155-18,198,0c30,13,35,20,35,47c0,19-10,43-26,63c-14,17-133,238-263,491s-264,501-298,550
		c-63,94-142,180-174,190c-11,4-19,13-19,20c0,8,25,81,56,162c236,620,308,946,260,1174c-26,120-84,197-181,240
		C10913,7509,10751,7517,10680,7496z M10835,7282c44-122,25-364-49-616c-52-181-190-540-198-519c-4,10-19,113-34,228
		c-36,275-36,420,0,560c35,136,102,267,178,349C10800,7359,10808,7359,10835,7282z M11817,7390c-273-69-426-470-403-1060
		c17-435,76-809,207-1307c91-346,105-390,136-410c36-24,121-23,158,1l28,18l-6,97c-4,53-29,220-56,371c-175,971-202,1498-96,1863
		c28,98,80,207,121,256c26,31,27,31,47,14c27-25,54-88,61-148c17-132-79-426-222-677c-71-125-69-151,43-488
		c114-345,376-995,535-1327c82-170,96-183,205-183c75,0,135,25,135,55c0,36-431,1199-522,1410c-141,325-168,391-168,419
		c0,14,40,107,89,208c171,350,214,557,149,711c-26,60-108,136-174,161C12027,7395,11875,7404,11817,7390z M13580,7385
		c-79-22-139-63-164-110c-18-34-22-62-25-180c-3-150,11-578,35-1055c8-162,21-412,28-555c16-312,19-322,121-373c89-44,217-53,371-27
		c266,46,633,160,674,210c34,41-40,85-141,85c-33,0-172-22-308-50c-136-27-259-50-273-50c-15,0-29,7-33,18c-4,9-10,195-12,412
		l-6,396l119,53c265,120,446,224,481,278c15,23,15,26-6,46c-17,17-36,22-94,25c-71,4-78,2-218-58c-79-34-176-75-215-90l-72-27
		l-6,126c-4,69-16,254-27,410c-22,321-22,341-10,360c6,9,54,18,147,27c277,28,356,51,339,96c-13,34-65,40-360,44
		C13686,7399,13625,7397,13580,7385z M8356,7335c-59-21-88-46-118-102c-33-60-278-667-339-840c-24-68-46-123-49-123s-40,84-84,188
		c-130,309-201,449-260,508c-70,70-126,88-255,82c-83-3-103-7-143-31c-26-15-55-41-65-57c-9-17-20-30-24-30s-10,30-13,68
		c-10,94-14,102-52,118c-69,29-169,10-196-38c-9-17-14-85-16-248c-11-676,113-1923,209-2111c33-66,170-98,280-65
		c100,29,94-11,78,519c-16,521-17,1426-3,1471c9,27,22,1,148-315c156-387,213-516,244-542c49-44,179-61,265-35c64,19,87,52,141,199
		c199,544,271,730,277,712c10-25,53-464,89-903c52-632,81-900,116-1051c13-57,24-81,49-106c30-30,38-33,96-33c88,0,109,14,137,84
		c26,65,23,74-31,92c-30,10-32,15-39,70c-29,269-48,737-58,1454c-13,952-24,1024-164,1065C8514,7354,8408,7354,8356,7335z
		 M9525,7273c-67-20-109-54-145-116c-79-137-188-579-254-1022c-82-553-93-1011-35-1410c45-310,76-364,205-353c88,7,89,11,87,201
		c-2,89,0,285,3,435l6,272l67,37c36,20,124,70,194,110c71,41,130,73,131,71s10-55,20-118c32-209,85-484,106-552
		c26-85,52-102,155-103c53,0,78,5,105,21l35,21l-3,104c-2,57-20,269-40,471l-38,368l36,29c29,24,33,32,24,48c-9,15-36,34-66,45
		c-4,2-18,113-33,248c-29,272-50,428-96,695c-65,380-103,462-231,500C9693,7294,9591,7293,9525,7273z M9635,6494
		c14-109,45-331,71-492c26-163,42-297,38-302c-15-13-325-173-329-169c-6,6,23,268,51,459c34,239,130,718,141,707
		C9609,6695,9621,6604,9635,6494z M12683,7250c-12-5-26-18-32-29c-13-24-14-248-1-551c15-376,150-1708,192-1903c9-44,14-51,52-68
		c68-31,192-18,218,24c17,26,4,304-47,1082c-32,482-52,721-71,860c-19,143-62,400-74,448c-6,20-15,55-20,77c-8,28-19,44-40,55
		C12828,7261,12719,7265,12683,7250z M5553,7125c-45-19-53-41-59-162c-6-101,9-478,22-576l6-43l-203-31c-112-17-205-30-205-29
		c-1,0-9,73-19,161c-34,324-52,428-75,447c-34,28-124,25-154-5c-21-21-23-35-29-154c-4-72-4-212,0-311l6-181l-24-5
		c-13-3-80-16-149-29c-253-50-352-117-250-170c41-22,105-19,300,11c69,11,128,17,131,13c3-3,13-100,23-216c10-115,20-217,22-226
		c3-12-14-21-78-38c-183-50-244-110-158-154c30-16,51-18,145-13l111,5l18-177c22-219,70-552,88-612c11-35,21-49,48-63
		c45-24,123-18,152,10c18,19,19,25,9,74c-18,88-79,824-69,834c11,11,473,134,479,127c3-4,16-59,28-122c49-256,112-501,148-577
		c29-61,169-84,238-39c32,21,36-18-33,411c-28,171-54,337-57,370l-7,60l103,35c177,59,279,118,279,161c0,51-137,71-215,31
		c-47-23-183-68-189-61c-7,7-48,336-44,355c2,13,37,24,158,51c171,38,243,66,248,99c7,46-76,78-163,63c-22-4-89-16-150-27
		c-60-11-111-19-113-17c-2,1-23,143-48,316c-54,384-55,386-99,405C5682,7144,5595,7144,5553,7125z M5577,5990c18-107,30-197,26-201
		c-11-10-445-119-453-114c-4,3-10,73-14,157s-9,182-12,219l-6,65l203,36c112,20,208,35,214,34C5540,6185,5559,6096,5577,5990z"/>
</g>
</svg>
