<?xml version="1.0" standalone="no"?>
<!DOCTYPE svg PUBLIC "-//W3C//DTD SVG 20010904//EN"
 "http://www.w3.org/TR/2001/REC-SVG-20010904/DTD/svg10.dtd">
<svg version="1.0" xmlns="http://www.w3.org/2000/svg"
 width="2400.000000pt" height="2400.000000pt" viewBox="0 0 2400.000000 2400.000000"
 preserveAspectRatio="xMidYMid meet">

<g transform="translate(0.000000,2400.000000) scale(0.100000,-0.100000)"
fill="#000000" stroke="none">
<path d="M5065 21819 c-149 -21 -352 -109 -485 -208 -99 -75 -253 -239 -320
-343 -75 -116 -119 -227 -133 -338 -13 -108 14 -550 44 -720 29 -161 28 -258
-3 -340 -67 -174 -107 -221 -217 -254 -29 -8 -68 -29 -87 -46 -19 -16 -45 -30
-58 -30 -42 0 -84 -21 -110 -55 l-26 -33 -52 20 c-30 11 -90 22 -139 25 -101
7 -192 -16 -272 -67 -27 -17 -93 -53 -146 -80 -156 -78 -236 -148 -331 -288
-156 -230 -276 -646 -326 -1132 -21 -207 -15 -574 15 -860 11 -107 27 -298 36
-425 9 -126 25 -318 35 -425 11 -107 20 -234 20 -282 0 -84 27 -253 49 -311
23 -59 83 -137 197 -257 134 -140 172 -199 206 -315 56 -197 12 -579 -192
-1665 -118 -627 -118 -629 -7 -745 44 -46 56 -77 72 -182 39 -256 44 -804 15
-1483 -16 -374 3 -945 45 -1345 8 -77 29 -302 45 -500 17 -198 37 -426 45
-507 13 -128 13 -154 1 -210 -8 -34 -31 -157 -51 -273 -20 -115 -68 -338 -106
-495 -150 -614 -157 -682 -179 -1710 -11 -525 -21 -726 -45 -895 -18 -121 -19
-197 -4 -265 9 -41 22 -64 68 -113 32 -34 64 -73 71 -87 9 -17 16 -86 20 -205
9 -240 30 -302 144 -423 35 -37 92 -112 126 -167 69 -111 106 -155 164 -192
105 -67 364 -133 526 -133 173 0 366 40 539 112 113 47 249 143 290 203 31 46
33 55 28 108 -7 77 -64 196 -148 307 -35 47 -141 164 -235 262 -127 130 -179
191 -200 233 l-28 58 19 86 c16 73 20 153 25 541 8 497 13 559 85 949 18 102
52 294 75 426 39 229 103 540 156 765 52 220 211 1026 243 1230 18 117 61 536
86 853 14 170 34 386 45 481 11 94 22 216 26 271 4 55 10 106 14 113 8 16 36
-49 121 -278 236 -637 238 -657 121 -1120 -135 -533 -144 -630 -140 -1530 3
-515 1 -585 -15 -675 -26 -149 -82 -392 -132 -581 -59 -220 -101 -444 -119
-624 -12 -125 -20 -162 -57 -265 -41 -115 -42 -125 -43 -240 -1 -146 13 -202
62 -250 65 -63 131 -82 557 -160 191 -35 225 -25 296 87 17 26 33 48 36 48 22
0 666 -290 686 -309 4 -4 -17 -27 -48 -51 -77 -59 -88 -76 -70 -109 17 -34
117 -128 235 -223 168 -134 166 -132 162 -194 -1 -12 -25 -52 -52 -90 -28 -38
-50 -78 -50 -88 0 -36 105 -123 214 -176 141 -70 251 -96 582 -136 38 -4 45
-11 90 -76 109 -157 140 -192 208 -239 226 -154 421 -214 781 -244 105 -8 244
-22 310 -30 141 -18 382 -20 457 -4 79 17 127 41 266 131 185 120 208 128 372
128 74 0 180 -7 235 -15 95 -13 158 -26 540 -109 297 -65 653 -108 1090 -131
272 -15 425 -26 825 -60 424 -36 1259 -50 1555 -26 290 24 487 66 726 156 146
55 220 68 309 55 36 -5 181 -38 321 -74 495 -125 970 -176 1329 -142 506 48
1002 122 1940 292 478 87 555 102 856 178 300 75 382 89 549 89 117 0 159 -5
255 -27 344 -81 404 -76 731 54 186 75 235 86 424 100 380 27 571 80 750 207
115 82 342 301 580 559 60 65 146 157 191 204 98 103 319 342 395 428 67 74
114 159 130 230 9 42 8 62 -6 108 -25 86 -90 146 -235 216 -361 175 -470 184
-2530 198 -1479 11 -1687 18 -2210 76 -380 42 -572 74 -1170 195 -605 123
-898 195 -1545 379 -214 61 -561 156 -770 211 -619 163 -902 247 -1284 379
-415 143 -513 185 -665 285 -38 25 -77 45 -87 45 -9 0 -19 4 -21 9 -7 22 -463
574 -677 821 -205 238 -398 444 -588 630 -777 761 -1427 1420 -1817 1840 -329
355 -640 801 -910 1308 -48 90 -101 186 -117 213 l-29 49 16 87 c8 48 19 106
24 129 17 74 39 235 45 334 13 187 -23 533 -70 675 -32 97 -160 377 -265 580
-48 94 -109 223 -135 288 -54 138 -58 126 65 177 41 18 95 43 119 57 24 14
119 63 211 109 161 81 170 87 253 173 74 77 88 97 105 152 48 157 52 321 17
724 -9 99 -20 383 -25 630 -5 248 -13 473 -18 500 -5 28 -13 122 -16 210 -12
269 -64 434 -170 532 -115 106 -197 162 -280 189 -104 34 -261 110 -303 147
-28 25 -163 261 -163 286 0 6 30 27 68 47 37 20 90 50 117 67 28 17 68 39 90
50 137 67 227 132 327 236 159 164 215 274 238 465 17 141 17 142 85 148 63 5
97 26 136 83 57 83 74 198 49 335 -66 374 -208 553 -440 554 -92 1 -133 -20
-180 -94 -38 -59 -61 -69 -96 -41 -62 49 -129 63 -324 72 -106 4 -211 14 -247
23 -216 54 -388 16 -442 -98 -13 -29 -59 -84 -120 -144 -82 -82 -105 -112
-146 -192 l-49 -95 -11 40 c-8 29 -18 41 -33 43 -28 4 -38 -34 -23 -93 6 -24
11 -46 11 -48 0 -7 -133 -88 -208 -127 -95 -50 -115 -105 -67 -189 30 -52 32
-77 5 -91 -28 -15 -36 -55 -16 -84 15 -23 14 -25 -4 -31 -31 -10 -43 -42 -36
-98 6 -42 4 -55 -18 -87 -53 -80 -52 -157 3 -203 16 -13 73 -43 128 -66 84
-35 109 -51 161 -104 74 -75 156 -208 182 -297 18 -57 52 -260 44 -260 -1 0
-25 14 -52 30 -26 17 -124 62 -216 100 -125 51 -200 90 -290 149 -66 43 -193
117 -282 163 -186 98 -253 142 -378 248 -50 42 -112 90 -137 107 -45 31 -279
143 -372 178 -65 25 -86 49 -117 141 -30 90 -62 155 -96 201 l-24 31 97 -35
c123 -43 202 -52 272 -28 93 31 128 74 146 180 4 22 15 54 25 70 9 17 23 47
30 67 6 21 26 49 43 62 17 14 43 49 57 78 23 48 30 54 85 75 62 23 115 70 115
101 0 9 -7 62 -16 117 -20 130 -24 279 -9 337 6 25 25 63 42 84 43 55 66 104
102 219 36 110 45 176 61 440 10 158 9 190 -5 260 -38 182 -115 271 -350 403
-98 55 -380 174 -513 216 -81 25 -222 47 -292 45 -19 -1 -62 -5 -95 -10z
m1297 -4275 c159 -114 228 -193 228 -263 0 -22 -20 -51 -92 -132 l-93 -102 -8
54 c-36 260 -54 334 -108 441 -29 58 -33 68 -24 68 2 0 46 -30 97 -66z m-492
-1523 c0 -6 38 -58 85 -116 47 -59 85 -114 86 -123 0 -10 2 -73 5 -142 5 -163
10 -212 34 -312 25 -103 24 -113 -2 -63 -55 108 -139 152 -266 141 l-75 -7 6
118 c5 98 13 145 51 281 25 90 48 179 52 198 5 30 24 49 24 25z m2454 -151
c47 -203 92 -672 68 -706 -4 -5 -45 -20 -92 -31 -47 -12 -125 -37 -175 -56
-77 -30 -91 -32 -99 -20 -5 9 -6 79 -3 157 7 191 44 343 139 561 45 105 122
236 129 222 4 -7 19 -64 33 -127z m-1963 -766 c68 -20 146 -71 188 -124 30
-37 61 -53 61 -30 0 14 135 120 154 120 25 0 54 -35 65 -78 9 -34 14 -39 34
-35 57 11 65 -61 18 -155 -17 -34 -31 -63 -31 -64 0 -2 18 -4 40 -6 82 -5 213
-72 240 -122 9 -17 6 -23 -22 -40 -35 -22 -149 -60 -177 -60 -14 0 -17 -10
-18 -54 -3 -101 -62 -196 -146 -231 -47 -19 -67 -14 -135 37 l-54 40 -26 -24
c-47 -43 -156 -116 -185 -123 -72 -18 -109 74 -89 219 7 49 21 96 38 125 24
43 24 47 8 56 -47 27 -117 103 -144 159 -31 62 -61 180 -52 204 8 22 51 25
117 8 35 -9 69 -16 74 -16 10 0 -22 127 -40 162 -7 14 -7 23 2 34 14 17 14 17
80 -2z m-749 -20 c17 -9 53 -37 80 -62 45 -42 49 -44 66 -28 21 18 67 21 78 5
4 -7 24 -9 53 -6 73 8 81 -1 81 -91 l0 -77 61 -12 c147 -28 142 -98 -12 -154
-71 -26 -70 -20 -19 -162 40 -113 40 -185 -2 -205 -54 -25 -176 34 -219 106
-13 20 -23 38 -24 40 -1 1 -31 -11 -66 -27 -88 -41 -194 -57 -243 -37 -20 8
-36 18 -36 21 0 15 33 82 55 110 l24 32 -66 12 c-87 16 -187 62 -209 96 -18
27 -18 28 14 56 49 44 158 73 242 65 l68 -6 -21 43 c-19 35 -22 59 -22 148 0
91 3 110 19 128 23 25 56 27 98 5z m-453 -533 c32 -32 44 -96 38 -203 -6 -113
-9 -111 87 -72 73 31 107 27 124 -11 22 -48 15 -83 -26 -128 -21 -23 -51 -64
-66 -90 -15 -27 -44 -60 -65 -75 l-37 -27 51 -50 c104 -103 128 -295 37 -295
-39 0 -63 20 -127 103 -63 83 -143 172 -148 166 -2 -2 -23 -41 -47 -86 -52
-98 -121 -189 -155 -205 -19 -8 -32 -8 -50 0 -29 13 -42 43 -56 122 -17 98
-15 95 -65 108 -80 22 -132 100 -92 140 9 9 9 15 0 24 -19 19 -14 45 14 67 14
11 30 22 37 24 8 3 2 15 -15 33 -39 41 -65 109 -73 186 -7 64 -6 67 19 83 23
15 33 16 92 5 37 -7 105 -32 158 -59 l93 -47 17 67 c44 170 184 291 255 220z
m2042 -196 c24 -9 78 -36 120 -60 86 -51 123 -56 184 -25 51 26 75 26 75 0 0
-72 -80 -152 -183 -184 -16 -5 -14 -11 17 -52 40 -53 37 -72 -15 -100 -28 -14
-30 -19 -24 -47 15 -65 12 -82 -16 -85 -23 -3 -60 19 -172 98 -19 14 -20 13
-14 -2 3 -10 9 -58 13 -107 l7 -90 -26 -6 c-34 -9 -60 7 -88 51 l-22 37 -14
-45 c-15 -53 -33 -71 -65 -66 -27 4 -38 40 -63 213 -9 66 -24 134 -33 152 -13
26 -14 38 -3 72 10 34 9 45 -4 71 -15 29 -15 31 10 54 14 13 25 33 25 45 0 27
27 60 65 77 41 18 172 18 226 -1z m-1221 -115 c46 -25 154 -216 165 -293 4
-26 8 -47 9 -47 0 0 28 11 61 25 36 15 80 25 110 25 51 0 158 -21 207 -41 31
-13 119 -144 111 -164 -2 -7 -29 -22 -59 -34 -54 -21 -124 -66 -124 -81 0 -4
41 -29 90 -54 53 -28 90 -53 90 -62 0 -46 -125 -115 -220 -121 -53 -4 -78 0
-134 21 -37 14 -69 26 -71 26 -1 0 -5 -30 -8 -67 -7 -90 -35 -163 -69 -182
-23 -13 -33 -14 -75 -2 -26 8 -65 16 -86 19 -43 5 -49 13 -72 102 -9 36 -19
68 -21 71 -2 4 -23 -3 -46 -14 -91 -46 -278 -30 -278 23 0 28 93 126 153 160
l48 28 -45 6 c-66 10 -107 42 -141 111 -25 50 -30 72 -30 132 1 87 14 106 87
123 46 11 134 8 170 -5 10 -4 17 11 27 57 13 63 59 183 87 226 16 24 35 28 64
12z m1465 -687 c17 -16 17 -29 -1 -129 -5 -28 -2 -32 36 -49 23 -10 59 -36 81
-57 49 -48 49 -76 1 -98 -36 -15 -36 -15 -17 -105 10 -48 -19 -76 -83 -83 -28
-2 -56 -10 -61 -16 -5 -6 -23 -49 -41 -95 -43 -110 -74 -146 -130 -146 -53 0
-81 30 -107 111 -9 31 -22 58 -28 60 -5 2 -29 8 -53 14 -64 16 -78 45 -62 121
l13 61 -66 65 c-68 67 -75 81 -56 100 5 5 18 25 27 44 13 26 28 37 63 48 46
14 47 14 53 65 7 59 24 76 77 76 38 0 37 0 105 -82 22 -28 50 -22 64 12 7 16
30 46 51 65 31 27 47 35 78 35 24 0 46 -7 56 -17z m-2345 -92 c72 -12 153 -62
175 -107 11 -25 25 -36 45 -41 16 -3 34 -11 40 -18 5 -6 11 -65 12 -131 3
-115 2 -121 -28 -184 -17 -36 -65 -104 -106 -152 -41 -48 -97 -119 -124 -158
-58 -83 -86 -96 -120 -57 -32 37 -41 110 -20 154 14 29 14 34 2 30 -8 -3 -51
-11 -96 -18 -60 -8 -88 -9 -106 0 -29 13 -30 25 -3 87 13 28 18 49 12 51 -40
14 -99 51 -101 64 -2 9 9 30 23 48 l27 31 -48 44 c-56 50 -53 63 22 92 24 9
44 20 44 25 0 4 -18 42 -41 83 -23 42 -39 82 -36 90 4 9 35 15 104 19 67 4
120 14 168 31 80 29 81 29 155 17z m1265 -122 c22 -6 121 -49 219 -97 162 -78
187 -87 248 -90 37 -3 68 -6 68 -9 0 -2 -12 -20 -27 -40 -30 -39 -92 -72 -135
-73 l-27 0 24 -52 c31 -66 31 -73 0 -104 -14 -14 -25 -31 -25 -39 0 -23 -38
-55 -65 -55 -23 0 -25 -3 -25 -50 0 -66 -24 -81 -78 -51 -71 41 -122 62 -132
56 -6 -4 -19 -24 -30 -46 -27 -52 -60 -55 -60 -4 0 41 -16 46 -32 10 -8 -18
-18 -25 -32 -23 -20 3 -21 10 -22 108 -1 58 -9 143 -19 189 -19 92 -17 132 17
271 11 47 22 91 24 98 4 15 55 16 109 1z m-525 -554 c11 -13 11 -26 2 -66 -14
-58 -16 -109 -4 -109 4 0 23 14 41 31 61 56 101 20 109 -97 5 -79 -22 -144
-89 -210 -27 -26 -49 -52 -49 -56 0 -5 18 -35 41 -68 51 -75 76 -138 84 -217
7 -56 6 -62 -14 -73 -35 -18 -122 18 -204 86 -16 13 -37 24 -47 24 -9 0 -38
-24 -63 -54 -46 -53 -46 -53 -117 -60 -45 -4 -78 -2 -91 5 -25 13 -55 78 -65
137 l-7 42 -64 0 c-62 0 -124 17 -137 39 -18 28 60 114 154 168 25 14 47 27
48 29 2 1 -10 23 -28 48 -42 63 -54 99 -40 125 6 12 17 21 24 21 8 0 19 19 25
44 6 26 21 52 33 60 45 32 129 15 186 -37 26 -25 34 -18 51 43 27 96 179 196
221 145z m1076 -14 c5 -5 27 -11 49 -13 54 -4 68 -31 61 -120 l-6 -67 55 -16
c53 -15 95 -44 95 -64 0 -21 -64 -60 -116 -71 -38 -8 -54 -16 -51 -25 3 -7 15
-43 26 -80 41 -132 23 -170 -83 -170 -45 0 -71 6 -99 23 -40 23 -40 23 -52
-33 -3 -16 -15 -60 -26 -97 -19 -64 -22 -68 -49 -68 -20 0 -35 8 -50 30 -31
44 -57 109 -65 163 l-7 47 -53 0 c-62 0 -95 11 -147 47 -37 25 -49 55 -27 68
6 4 -6 21 -28 41 -38 34 -38 34 -18 51 12 10 24 26 28 36 4 10 21 24 37 30 17
6 30 17 30 24 0 7 9 21 21 32 12 11 18 24 15 30 -7 11 31 41 55 41 8 0 38 -11
65 -25 27 -14 54 -25 59 -25 6 0 22 14 37 30 16 18 36 30 51 30 20 0 33 13 66
70 23 38 49 74 59 79 22 13 55 14 68 2z m-86 -1487 c-12 -66 -30 -177 -41
-249 -10 -71 -34 -229 -54 -350 -20 -121 -47 -294 -61 -385 -13 -91 -40 -264
-59 -385 -69 -442 -101 -761 -91 -905 9 -134 50 -300 95 -385 21 -38 45 -101
55 -140 32 -128 59 -188 139 -299 l78 -110 11 -180 c14 -252 -1 -627 -37 -911
-41 -319 -157 -968 -214 -1198 -33 -130 -63 -259 -66 -285 -4 -26 -11 -70 -16
-99 l-10 -52 -77 62 c-42 34 -103 77 -136 96 -91 51 -149 115 -174 192 -23 68
-69 259 -123 504 -39 175 -43 311 -15 460 20 104 110 467 160 647 56 197 103
392 135 557 33 164 122 510 171 664 l30 93 -20 105 c-64 338 -55 649 36 1234
19 127 37 241 40 255 2 14 9 59 14 100 6 41 12 85 14 97 3 11 7 43 11 70 14
105 127 667 159 791 21 81 50 141 63 128 2 -2 -5 -57 -17 -122z"/>
<path d="M10575 20663 c-243 -16 -673 -69 -841 -103 -105 -22 -181 -53 -198
-83 -9 -15 -6 -22 13 -38 31 -25 70 -24 227 5 178 33 345 59 350 53 2 -2 -2
-49 -10 -103 -49 -328 -86 -1165 -86 -1931 0 -411 35 -1172 66 -1429 l6 -51
-91 -17 c-112 -20 -168 -42 -183 -69 -14 -28 16 -52 75 -61 38 -6 226 10 236
20 2 2 22 -7 45 -19 33 -17 58 -22 126 -22 101 0 149 21 162 71 l8 31 132 21
c73 12 168 24 211 28 112 10 158 52 91 83 -31 14 -259 14 -363 1 -41 -6 -75
-9 -76 -7 -1 1 5 189 12 417 9 267 12 568 8 845 -23 1751 -29 2000 -56 2164
-5 35 -8 66 -5 69 11 10 269 32 394 32 138 0 172 8 172 39 0 48 -178 70 -425
54z"/>
<path d="M12121 20130 c-147 -31 -286 -206 -374 -475 -109 -331 -177 -829
-177 -1299 l0 -220 -76 -140 c-89 -166 -217 -361 -244 -376 -24 -13 -26 -45
-4 -54 31 -12 95 -6 132 13 43 22 128 104 185 179 22 29 41 51 43 50 1 -2 14
-69 28 -151 32 -184 44 -213 93 -234 49 -20 157 -20 206 0 40 17 37 13 101
169 57 137 209 370 295 452 37 35 37 37 11 -119 -49 -306 -48 -456 5 -573 33
-73 83 -96 199 -90 96 4 162 31 248 101 l57 46 21 -34 c29 -46 64 -70 135 -90
118 -35 263 0 331 79 40 46 104 173 130 259 10 31 20 57 23 57 3 -1 15 -15 26
-32 34 -54 78 -73 171 -73 71 0 85 3 122 27 51 34 99 129 139 275 15 57 30
103 33 103 3 0 14 -39 24 -87 24 -120 80 -287 116 -350 49 -86 116 -123 219
-123 128 0 183 40 247 175 37 79 147 396 187 540 l14 49 86 1 87 0 0 -75 c1
-241 114 -494 268 -597 90 -60 151 -76 276 -71 87 4 112 9 180 38 223 94 456
321 567 553 21 43 22 49 7 63 -21 21 -88 29 -131 15 -27 -9 -50 -32 -95 -94
-84 -115 -160 -196 -255 -272 -77 -62 -220 -145 -249 -145 -13 0 -63 69 -91
125 -27 54 -58 168 -72 265 -15 95 -20 267 -9 305 3 11 50 48 107 85 174 111
332 285 378 415 55 158 -24 276 -194 292 -217 19 -410 -121 -550 -402 -53
-105 -100 -236 -117 -323 l-12 -61 -53 -6 c-29 -4 -63 -4 -75 0 -19 6 -21 12
-16 39 69 341 54 545 -46 619 -38 29 -135 35 -192 13 -60 -23 -118 -85 -160
-170 -71 -144 -83 -269 -34 -372 22 -47 81 -116 127 -147 l23 -16 -21 -63
c-55 -165 -167 -468 -172 -468 -18 0 -81 271 -149 643 -48 258 -56 282 -104
302 -71 30 -191 7 -201 -39 -3 -11 -21 -104 -40 -206 -34 -180 -94 -434 -133
-555 l-19 -60 -12 43 c-24 85 -40 205 -51 375 -13 183 -21 212 -65 223 -16 4
-28 17 -35 40 -15 44 -54 90 -93 111 -47 24 -171 21 -231 -5 -125 -56 -262
-276 -340 -546 -26 -90 -56 -282 -56 -360 0 -38 -8 -54 -54 -113 -47 -61 -112
-122 -155 -148 -21 -12 -8 196 24 385 49 287 35 373 -69 425 -66 33 -197 35
-279 5 -76 -28 -169 -110 -267 -234 l-85 -107 -7 48 c-3 26 -11 110 -17 187
l-11 138 92 171 c182 338 362 769 428 1027 44 173 53 364 22 466 -24 78 -67
136 -121 164 -45 23 -140 32 -200 20z m103 -310 c-1 -167 -45 -342 -164 -640
-68 -172 -159 -379 -160 -365 -1 32 23 310 36 425 43 376 112 608 216 735 l32
39 20 -45 c16 -35 20 -66 20 -149z m3416 -879 c19 -36 11 -96 -21 -160 -33
-66 -191 -242 -205 -228 -18 18 107 297 167 370 35 42 44 45 59 18z m-984
-196 c-7 -80 -43 -261 -56 -284 -14 -26 -33 34 -38 121 -5 85 19 182 59 248
l22 35 9 -25 c6 -14 7 -56 4 -95z m-1270 -301 c20 -47 18 -74 -16 -211 -36
-148 -87 -309 -149 -468 l-46 -120 -3 80 c-9 218 67 563 161 725 24 43 33 42
53 -6z"/>
<path d="M22880 20032 c-21 -10 -42 -32 -54 -55 -22 -46 -211 -801 -261 -1042
-19 -93 -37 -180 -40 -192 -5 -21 -5 -21 -57 7 -71 38 -161 54 -258 47 -208
-16 -349 -126 -466 -362 -29 -60 -65 -148 -78 -195 -32 -112 -50 -267 -41
-355 l6 -71 -68 -74 c-88 -95 -194 -183 -206 -171 -6 6 -7 98 -4 223 5 230 10
264 92 646 59 276 67 330 68 443 0 82 -4 104 -25 151 -44 94 -117 133 -255
132 -68 -1 -91 -6 -146 -32 -111 -51 -266 -216 -396 -417 l-52 -80 7 272 c8
306 7 311 -62 333 -48 16 -129 8 -162 -17 -46 -34 -95 -201 -136 -466 -17
-108 -36 -184 -61 -252 -49 -130 -199 -495 -224 -542 l-19 -38 -8 29 c-8 34 2
306 17 446 5 52 21 176 36 275 30 211 27 241 -27 267 -44 23 -131 23 -177 2
-25 -13 -42 -33 -65 -77 -59 -117 -117 -282 -157 -445 -35 -142 -195 -432
-369 -669 l-77 -105 -8 44 c-4 24 -6 129 -4 233 5 209 24 338 97 677 53 247
68 365 51 405 -16 40 -67 63 -140 63 -95 0 -109 -9 -201 -132 -111 -148 -250
-309 -261 -302 -5 3 -9 13 -9 24 0 10 -20 58 -45 107 -106 212 -306 310 -537
262 -169 -35 -335 -187 -394 -359 -13 -38 -30 -83 -39 -99 -8 -17 -31 -69 -50
-116 -35 -89 -43 -98 -154 -183 -72 -55 -237 -136 -321 -157 -70 -18 -202 -17
-222 3 -18 18 1 49 65 98 88 69 230 213 319 324 373 466 532 1065 331 1251
-56 53 -91 64 -193 64 -81 0 -103 -4 -150 -26 -110 -51 -223 -179 -340 -383
-190 -331 -315 -688 -415 -1186 -64 -320 -79 -471 -80 -785 0 -254 2 -291 23
-393 87 -429 284 -647 571 -630 95 6 176 40 216 92 65 85 103 270 91 448 -15
237 -85 467 -250 827 -37 79 -65 145 -64 146 2 2 44 8 93 14 104 14 243 58
332 105 l63 34 0 -92 c1 -233 89 -407 243 -480 77 -36 128 -45 245 -46 84 0
117 5 179 25 209 71 360 244 454 523 35 105 59 225 59 301 0 60 9 73 99 146
24 20 24 20 17 0 -21 -56 -79 -294 -96 -400 -25 -153 -27 -374 -4 -478 22 -94
64 -177 111 -216 114 -94 360 -93 485 2 57 43 135 148 205 276 l57 104 16 -59
c21 -77 42 -116 80 -147 41 -35 89 -47 184 -47 91 0 153 23 185 69 32 44 107
198 144 294 l34 88 6 -110 c8 -134 22 -171 72 -195 85 -41 246 -25 279 27 8
12 28 81 46 152 88 354 229 695 380 922 69 104 177 226 192 217 21 -13 -13
-171 -88 -406 -121 -384 -158 -572 -157 -808 0 -270 39 -382 149 -436 74 -36
186 -43 269 -17 71 23 188 99 273 178 l61 56 31 -45 c67 -99 179 -146 346
-146 111 0 191 19 246 60 15 11 28 20 30 20 2 0 4 -89 4 -198 1 -109 7 -238
14 -288 33 -237 85 -294 268 -294 157 0 197 37 336 315 84 168 144 312 206
490 50 144 130 429 130 462 0 45 -104 68 -173 39 -30 -12 -37 -25 -76 -127
-70 -184 -186 -449 -251 -576 l-61 -118 5 235 c11 523 93 1172 256 2025 55
290 94 548 86 578 -12 51 -153 76 -226 39z m-5396 -328 c26 -48 33 -165 16
-261 -40 -238 -235 -617 -465 -907 -38 -47 -69 -85 -71 -83 -4 3 61 320 86
417 63 249 186 574 278 735 37 65 110 147 126 142 5 -2 19 -21 30 -43z m775
-808 c62 -33 129 -136 156 -245 9 -32 16 -96 18 -142 l2 -84 -71 -37 c-86 -45
-183 -72 -226 -63 -40 9 -107 70 -129 120 -23 50 -25 152 -4 223 30 100 151
242 206 242 11 0 33 -7 48 -14z m4108 -330 c91 -84 90 -81 44 -223 -84 -257
-268 -677 -296 -675 -18 1 -46 134 -52 248 -7 126 6 234 43 363 44 151 149
341 189 341 8 0 40 -24 72 -54z m-4003 -435 c-65 -164 -155 -296 -256 -378
-48 -38 -54 -41 -69 -27 -48 44 -86 191 -96 373 -6 119 -5 124 12 117 11 -4
55 -12 98 -18 86 -11 232 1 303 26 21 7 40 10 42 6 2 -4 -14 -49 -34 -99z
m-1369 -656 c24 -71 51 -164 60 -205 22 -98 30 -325 16 -415 -14 -88 -30 -145
-40 -145 -10 0 -62 123 -90 215 -46 147 -63 285 -68 552 -3 139 -2 260 1 270
10 24 63 -96 121 -272z"/>
<path d="M14850 16700 c-86 -12 -117 -44 -237 -245 -147 -245 -290 -557 -419
-913 l-59 -164 -5 529 c-6 572 -7 580 -61 608 -36 19 -139 19 -183 1 -65 -27
-106 -134 -146 -381 -55 -341 -73 -713 -67 -1391 3 -446 7 -548 20 -594 25
-87 76 -117 217 -127 129 -9 238 26 267 88 7 13 23 132 38 264 50 468 61 554
111 800 61 297 159 645 246 865 42 108 129 278 182 357 l46 68 0 -108 c0 -59
-11 -263 -25 -454 -57 -790 -67 -1090 -41 -1142 20 -38 54 -58 128 -77 107
-28 255 -2 299 52 8 10 23 51 33 89 69 272 378 821 596 1058 29 32 89 87 134
123 76 61 81 63 90 44 22 -49 -14 -244 -126 -680 -102 -396 -143 -685 -135
-945 6 -183 25 -275 82 -392 80 -162 213 -243 401 -243 156 0 250 55 342 198
93 146 324 600 357 702 7 20 13 2 31 -87 59 -300 190 -422 442 -411 110 5 174
27 231 81 83 79 213 279 362 556 47 87 79 137 79 123 0 -71 -64 -731 -72 -736
-2 -2 -77 -41 -168 -88 -543 -280 -830 -521 -943 -793 -95 -227 -41 -430 138
-518 99 -49 160 -61 305 -60 116 0 148 4 225 27 167 50 333 154 474 297 170
171 291 401 365 692 30 116 70 326 78 412 3 27 16 37 159 115 280 153 427 257
575 405 193 192 271 371 243 554 -27 184 -113 336 -218 388 -56 28 -192 25
-253 -5 -49 -24 -63 -54 -32 -66 25 -10 88 -7 124 6 32 11 35 10 67 -27 41
-48 71 -127 86 -228 10 -68 9 -88 -6 -145 -48 -182 -235 -381 -565 -603 -73
-49 -136 -89 -140 -89 -4 0 -2 62 5 138 33 380 55 1494 31 1541 -23 44 -83 66
-178 66 -72 0 -92 -4 -130 -25 -38 -21 -48 -33 -63 -78 -22 -67 -53 -259 -62
-382 -6 -83 -14 -113 -62 -233 -135 -342 -275 -590 -512 -907 l-85 -114 -13
44 c-27 93 -36 215 -30 430 8 311 56 676 133 1009 20 84 33 164 30 177 -4 14
-23 33 -49 46 -36 20 -57 23 -142 23 -157 0 -199 -31 -264 -197 -39 -98 -83
-265 -115 -433 -17 -90 -41 -173 -79 -271 -175 -447 -435 -976 -588 -1193
l-52 -74 -14 28 c-36 67 -56 214 -56 395 1 252 28 444 128 900 69 311 78 371
79 500 1 177 -45 270 -162 327 -52 26 -66 28 -172 28 -111 0 -118 -1 -183 -33
-135 -67 -404 -355 -611 -655 -48 -71 -89 -127 -91 -125 -2 2 1 100 7 218 13
276 5 617 -16 732 -47 257 -154 356 -356 328z m3100 -2847 c-85 -375 -242
-650 -473 -827 -86 -66 -159 -100 -193 -92 -47 12 -103 74 -120 134 -50 172
61 394 289 581 135 110 507 335 515 311 2 -5 -6 -54 -18 -107z"/>
<path d="M12395 14320 c-190 -50 -723 -233 -1079 -371 -55 -21 -101 -37 -101
-36 -1 1 -16 32 -33 69 -38 83 -73 108 -149 108 -64 0 -98 -12 -114 -42 -7
-13 -15 -77 -18 -142 l-6 -119 -75 -32 c-119 -51 -467 -213 -553 -258 -85 -44
-110 -74 -86 -103 37 -44 149 -57 265 -29 76 18 243 74 366 123 l96 39 6 -66
c7 -77 46 -598 46 -622 0 -11 -43 -41 -120 -84 -142 -81 -229 -148 -247 -193
-13 -31 -12 -35 16 -63 42 -41 95 -39 245 11 65 22 120 39 122 37 1 -1 8 -153
15 -337 9 -259 9 -396 0 -600 -28 -628 -86 -944 -244 -1315 -151 -354 -154
-364 -112 -391 34 -22 155 -30 214 -14 92 24 257 216 351 405 102 208 175 452
214 725 60 413 67 966 21 1505 -23 265 -30 236 73 291 258 139 470 261 495
285 50 50 30 102 -56 145 -95 49 -153 31 -445 -132 -63 -36 -116 -63 -117 -62
-1 2 -12 73 -24 158 -21 141 -72 404 -86 450 -5 15 13 25 107 65 317 134 1178
471 1279 501 57 17 88 48 73 72 -36 59 -165 68 -339 22z"/>
<path d="M14158 13444 c-125 -30 -209 -97 -265 -212 -38 -75 -38 -77 -38 -196
0 -116 1 -124 32 -189 52 -109 179 -216 316 -265 26 -9 47 -21 47 -27 0 -16
-82 -152 -147 -242 -60 -84 -199 -243 -212 -243 -4 0 -15 22 -25 49 -46 129
-198 321 -320 404 -75 51 -203 110 -286 132 -43 12 -117 19 -221 22 -135 4
-168 2 -238 -16 -126 -31 -205 -75 -287 -156 -145 -143 -194 -327 -148 -554
l16 -80 -41 -95 c-40 -94 -77 -213 -103 -331 -9 -40 -13 -133 -12 -275 0 -200
2 -222 27 -315 15 -55 48 -143 73 -195 40 -80 61 -109 138 -185 102 -101 183
-152 301 -193 76 -25 90 -27 265 -27 176 0 189 1 258 27 103 37 174 82 252
158 244 240 410 722 410 1196 l0 151 64 51 c100 82 305 299 378 402 37 52 90
137 119 188 l51 92 53 0 c29 0 90 7 135 16 45 8 84 13 86 11 2 -2 -21 -105
-51 -228 -249 -1021 -268 -1631 -66 -2100 110 -254 245 -395 427 -444 81 -23
278 -23 363 0 36 9 90 29 121 45 61 31 183 124 239 183 l34 36 50 -45 c157
-141 385 -209 620 -184 186 19 300 74 438 210 179 177 398 555 569 983 28 69
49 111 50 97 3 -202 71 -589 154 -878 78 -270 128 -344 256 -383 59 -18 87
-20 163 -16 110 6 150 17 213 60 183 123 547 855 675 1355 l24 92 156 0 157 0
6 -77 c29 -358 162 -667 350 -812 64 -49 182 -105 268 -126 98 -25 305 -30
419 -11 184 30 368 111 534 234 107 79 324 293 419 412 157 198 290 416 374
611 64 152 142 451 142 548 0 27 2 29 86 45 48 10 98 22 112 27 21 8 23 7 17
-8 -131 -342 -241 -752 -302 -1125 -23 -139 -27 -193 -27 -363 0 -174 3 -211
22 -280 50 -185 161 -343 283 -404 85 -43 152 -54 298 -49 208 7 278 49 415
246 261 379 416 745 416 983 0 55 -2 59 -30 74 -41 21 -157 20 -193 -3 -24
-14 -35 -36 -64 -122 -43 -132 -129 -311 -221 -463 -105 -174 -311 -457 -331
-457 -13 0 -77 137 -96 205 -29 103 -32 368 -5 555 53 383 163 811 310 1205
44 118 80 230 80 249 0 76 -100 121 -252 114 -83 -4 -94 -7 -176 -51 -110 -60
-280 -143 -309 -152 -21 -6 -23 -3 -23 37 0 111 -51 285 -109 375 -75 116
-188 194 -319 222 -77 16 -247 14 -317 -4 -132 -35 -231 -113 -284 -225 -23
-48 -26 -67 -26 -160 0 -95 3 -111 29 -168 70 -152 259 -256 505 -278 l82 -7
-6 -41 c-16 -94 -76 -310 -115 -407 -113 -285 -337 -608 -597 -859 -185 -179
-365 -295 -478 -308 -142 -15 -310 231 -381 558 -9 41 -18 140 -21 220 l-5
145 108 50 c265 122 517 343 651 572 82 141 113 324 75 449 -27 88 -67 135
-145 174 -175 85 -431 59 -616 -64 -140 -94 -275 -253 -365 -432 -76 -153
-150 -419 -171 -611 l-7 -62 -56 -7 c-46 -6 -221 1 -228 9 -1 1 2 29 8 62 14
89 4 397 -17 470 -31 111 -82 176 -170 217 -43 20 -66 23 -160 23 -94 0 -117
-3 -163 -24 -138 -62 -254 -276 -238 -441 13 -146 128 -294 292 -376 43 -21
81 -40 82 -41 8 -4 -130 -396 -178 -508 -103 -237 -327 -654 -352 -655 -8 0
-79 293 -108 445 -46 242 -50 305 -60 885 -5 311 -12 584 -15 607 -10 73 -80
113 -196 113 -62 0 -151 -23 -168 -43 -6 -8 -22 -56 -35 -108 -32 -126 -114
-355 -251 -699 -217 -546 -352 -805 -585 -1115 -125 -167 -279 -305 -340 -305
-37 0 -115 53 -182 122 -58 60 -148 186 -148 206 0 6 38 69 84 139 174 266
350 599 431 818 85 228 116 429 96 616 -14 128 -50 260 -93 341 -76 144 -230
219 -416 205 -102 -8 -167 -29 -242 -79 -204 -136 -396 -546 -466 -998 -25
-162 -26 -484 -1 -634 21 -122 64 -277 102 -362 14 -31 25 -61 25 -66 0 -15
-208 -224 -277 -280 -35 -27 -67 -47 -72 -43 -23 14 -110 158 -148 245 -77
176 -115 339 -134 579 -20 261 7 543 117 1206 59 358 74 518 55 578 -15 45
-68 92 -118 106 -76 21 -193 13 -344 -24 -78 -19 -144 -34 -145 -32 -2 2 8 43
21 92 70 254 51 468 -53 586 -86 99 -272 143 -434 103z m165 -174 c42 -49 61
-123 60 -230 -1 -88 -21 -218 -44 -277 l-9 -25 -41 33 c-80 63 -119 152 -119
269 0 36 7 89 15 117 16 55 78 143 100 143 7 0 24 -13 38 -30z m7089 -525 c27
-31 77 -135 94 -195 8 -30 17 -102 21 -159 l6 -104 -51 6 c-67 8 -122 37 -165
87 -80 94 -76 269 9 368 39 46 44 46 86 -3z m-1022 -257 c23 -51 26 -150 6
-224 -28 -105 -98 -219 -206 -336 -66 -72 -224 -208 -242 -208 -10 0 -1 45 38
181 65 231 173 428 306 562 37 37 70 67 73 67 3 0 15 -19 25 -42z m-7287 -9
c143 -47 279 -176 361 -343 48 -95 86 -231 86 -304 0 -48 -9 -56 -128 -112
-159 -76 -316 -90 -424 -37 -72 35 -129 86 -158 139 l-23 44 57 112 c53 102
75 133 136 185 15 13 20 27 18 50 -4 46 -51 67 -151 67 l-77 0 25 50 c34 67
86 124 138 149 52 26 61 26 140 0z m3287 -263 c48 -99 64 -183 63 -341 0 -216
-49 -400 -173 -653 -59 -120 -202 -372 -243 -426 -13 -18 -14 -17 -20 15 -32
174 -33 465 -2 674 50 343 163 672 270 789 34 38 36 38 55 21 11 -10 34 -46
50 -79z m2449 -193 c13 -66 15 -312 2 -332 -6 -9 -17 3 -37 45 -26 52 -29 70
-29 154 0 70 5 108 19 143 10 26 22 47 26 47 4 0 12 -26 19 -57z m-5944 -528
c163 -34 438 -17 591 35 31 11 59 19 60 17 7 -7 -28 -197 -55 -303 -68 -261
-184 -503 -310 -648 -55 -63 -131 -126 -152 -126 -31 0 -139 90 -189 158 -89
120 -140 285 -155 502 -7 94 6 278 26 370 l10 48 47 -18 c27 -10 84 -26 127
-35z"/>
<path d="M17884 9102 c-238 -83 -530 -348 -655 -595 l-30 -58 -49 43 c-209
182 -324 259 -455 304 -71 24 -95 28 -205 28 -107 0 -133 -3 -183 -23 -116
-46 -167 -117 -175 -242 -24 -400 517 -1024 1173 -1355 188 -94 237 -109 351
-108 134 3 149 12 232 148 86 138 343 658 410 826 114 287 152 442 152 617 0
243 -62 369 -208 423 -41 16 -77 20 -165 20 -97 0 -123 -4 -193 -28z"/>
</g>
</svg>
