<?xml version="1.0" standalone="no"?>
<!DOCTYPE svg PUBLIC "-//W3C//DTD SVG 20010904//EN"
 "http://www.w3.org/TR/2001/REC-SVG-20010904/DTD/svg10.dtd">
<svg version="1.0" xmlns="http://www.w3.org/2000/svg"
 width="2400.000000pt" height="2400.000000pt" viewBox="0 0 2400.000000 2400.000000"
 preserveAspectRatio="xMidYMid meet">

<g transform="translate(0.000000,2400.000000) scale(0.100000,-0.100000)"
fill="#000000" stroke="none">
<path d="M17025 22674 c-300 -45 -537 -155 -701 -326 -82 -85 -325 -414 -350
-473 -43 -105 -59 -325 -26 -380 14 -23 16 -41 11 -80 -19 -135 -12 -164 65
-289 20 -33 36 -65 36 -71 0 -8 -16 -11 -47 -8 -93 8 -97 -31 -7 -74 l56 -28
-6 -45 c-3 -25 -23 -105 -46 -178 -22 -72 -40 -148 -40 -168 0 -47 49 -97 110
-114 81 -22 78 -15 68 -143 -2 -33 2 -43 30 -69 l34 -29 -7 -72 c-6 -66 -5
-75 18 -108 20 -30 40 -95 63 -207 6 -31 70 -100 113 -121 81 -42 277 -55 361
-26 23 8 40 11 38 7 -72 -161 -173 -264 -458 -464 -495 -348 -909 -542 -1401
-657 -130 -31 -139 -35 -234 -99 -109 -74 -95 -55 -289 -392 -94 -162 -264
-422 -351 -536 -35 -46 -89 -129 -120 -184 l-57 -101 -37 48 c-103 130 -270
414 -314 531 -17 47 -21 79 -21 182 0 69 8 175 17 235 36 251 32 310 -26 345
-18 11 -39 20 -48 20 -10 0 -23 17 -33 43 -31 78 -92 131 -172 147 -61 13 -58
6 -37 97 11 50 -76 87 -152 64 -51 -16 -56 -16 -138 5 -64 15 -71 15 -113 -1
-25 -9 -57 -32 -72 -51 -15 -19 -35 -34 -44 -34 -9 0 -37 24 -63 54 -53 62
-90 81 -143 73 -60 -10 -94 -56 -120 -162 -14 -56 -36 -113 -61 -154 -60 -101
-72 -139 -79 -236 l-7 -90 -50 -2 c-56 -2 -96 -27 -105 -64 -6 -25 -3 -43 24
-139 9 -30 17 -85 18 -122 2 -64 -1 -74 -64 -200 -36 -73 -82 -181 -101 -239
-20 -58 -52 -150 -72 -205 -20 -54 -58 -175 -85 -269 -27 -93 -69 -224 -93
-290 -42 -116 -121 -295 -130 -295 -2 0 -19 29 -36 64 -18 35 -58 96 -88 137
-31 41 -99 133 -151 204 -52 72 -118 157 -147 190 -95 110 -281 359 -351 470
-138 221 -373 516 -456 571 -86 58 -228 104 -644 209 -201 50 -284 80 -360
131 -108 72 -194 191 -222 306 -27 108 15 126 245 108 200 -17 276 -11 350 26
31 16 65 40 75 54 10 14 26 68 36 120 14 67 24 97 37 105 48 27 58 45 51 95
-6 46 -5 48 28 68 44 26 54 68 32 131 -9 24 -16 61 -16 82 0 35 4 41 39 59 46
23 71 54 71 89 0 14 -18 61 -39 106 -21 44 -44 106 -51 139 -12 58 -12 58 18
90 31 34 102 147 102 164 0 14 -35 25 -58 18 -10 -4 -32 -24 -48 -46 -16 -22
-31 -40 -34 -40 -3 0 -4 119 -2 264 4 289 -5 372 -54 521 -34 106 -103 237
-162 310 -66 82 -229 224 -337 293 -94 60 -281 135 -422 171 -102 26 -296 51
-398 51 -93 0 -306 -30 -420 -59 -105 -26 -172 -37 -335 -56 -74 -8 -164 -23
-200 -31 -147 -36 -350 -157 -479 -285 -129 -127 -267 -365 -341 -586 -53
-160 -77 -287 -90 -483 -11 -152 -15 -176 -58 -310 -34 -107 -71 -194 -141
-330 -182 -354 -201 -396 -226 -484 -14 -49 -36 -155 -50 -237 -27 -162 -53
-253 -90 -306 -74 -110 -243 -263 -290 -263 -51 0 -75 66 -75 211 0 135 -8
159 -53 159 -62 0 -95 -69 -104 -220 -9 -158 29 -274 115 -352 53 -48 164
-112 237 -136 53 -18 61 -24 72 -58 7 -20 18 -76 25 -124 14 -108 0 -214 -38
-278 -30 -52 -97 -102 -134 -102 -35 0 -85 50 -151 152 -55 84 -88 106 -132
89 -32 -12 -41 -53 -35 -154 6 -86 34 -147 107 -235 104 -125 105 -133 66
-361 -27 -157 -31 -243 -14 -336 6 -33 14 -143 18 -245 7 -206 18 -246 75
-281 31 -19 80 -25 111 -13 20 8 61 88 70 138 l7 37 17 -27 c15 -25 15 -38 4
-138 -7 -61 -25 -172 -39 -246 -44 -229 -44 -235 -29 -295 8 -30 52 -128 98
-217 98 -192 126 -268 133 -363 6 -75 3 -84 -70 -201 -19 -30 -31 -64 -34 -98
-2 -28 -13 -77 -23 -108 -27 -82 -24 -134 11 -205 l30 -59 -16 -75 c-28 -134
-30 -505 -5 -889 12 -184 30 -409 39 -500 14 -132 17 -271 18 -695 0 -487 -1
-538 -19 -635 -26 -137 -25 -273 1 -435 36 -219 66 -624 48 -653 -4 -7 -17 -7
-42 0 -106 29 -167 -28 -239 -226 l-18 -48 -46 8 c-113 20 -209 -7 -280 -77
-53 -53 -71 -101 -71 -197 0 -78 -2 -88 -35 -141 -65 -105 -57 -151 42 -262
66 -74 72 -88 88 -212 15 -108 34 -149 93 -195 50 -40 87 -57 156 -75 70 -19
86 -32 132 -114 48 -87 94 -116 187 -121 39 -3 94 1 124 8 49 11 57 10 95 -10
22 -12 64 -27 92 -34 l51 -13 -2 -169 c-2 -300 -50 -874 -99 -1209 -86 -584
-202 -1029 -431 -1665 -166 -461 -265 -679 -457 -1013 -282 -490 -570 -918
-814 -1207 -305 -363 -758 -781 -1442 -1330 -154 -124 -383 -343 -440 -422
-36 -49 -38 -77 -7 -106 36 -34 102 -52 256 -68 160 -17 172 -21 283 -104 178
-134 315 -162 613 -125 201 25 207 24 347 -49 221 -115 317 -132 503 -87 50
12 120 25 157 28 l67 6 143 -72 c233 -117 320 -130 523 -80 69 17 121 23 225
23 l135 1 155 -62 c241 -96 289 -108 405 -107 93 0 110 4 253 52 83 29 163 52
176 52 14 0 75 -25 138 -55 62 -31 158 -67 213 -82 91 -24 117 -26 295 -27
155 0 227 4 350 23 93 13 217 24 310 26 85 2 197 11 248 20 51 8 126 16 166
16 65 0 88 -5 192 -47 263 -105 344 -110 664 -43 200 42 210 43 395 43 l190 0
240 -64 c232 -61 244 -63 365 -64 114 -1 137 3 261 36 74 20 178 53 231 72
265 96 452 120 700 92 210 -24 301 -13 578 70 228 69 407 97 745 119 343 22
359 26 620 163 103 54 184 74 475 117 l237 35 57 -26 c72 -33 205 -60 337 -69
170 -11 303 18 406 89 35 24 68 36 123 45 83 13 261 71 390 126 194 83 342
215 470 420 91 144 128 176 232 199 145 33 199 56 249 106 76 76 99 175 120
527 12 196 8 363 -17 733 -8 132 -14 386 -14 660 0 519 -11 790 -45 1135 -38
395 -38 402 -19 837 19 453 15 631 -26 988 -35 307 -44 500 -31 709 13 221 40
449 81 686 45 267 146 683 149 618 2 -47 54 -309 102 -513 91 -390 110 -517
129 -885 17 -329 45 -467 148 -736 64 -167 70 -213 82 -689 6 -234 15 -477 20
-540 5 -63 16 -206 25 -317 8 -112 27 -289 42 -395 23 -162 28 -227 28 -403
-1 -233 5 -199 -95 -580 -49 -187 -53 -208 -53 -320 0 -137 19 -239 85 -455
121 -397 110 -346 114 -545 4 -223 16 -267 114 -423 116 -186 155 -274 220
-498 82 -282 240 -466 460 -535 80 -25 242 -35 325 -20 162 30 325 169 435
373 73 136 87 258 50 438 -16 82 -34 125 -133 320 -177 349 -192 409 -161 647
23 180 22 229 -6 319 -12 38 -24 110 -27 159 -6 103 0 130 82 384 66 204 90
297 109 428 26 171 55 546 81 1063 29 579 33 631 85 1062 58 476 66 595 51
785 -14 188 -34 292 -100 521 -70 243 -85 342 -78 516 4 106 15 182 41 306
113 533 116 557 116 862 -1 331 -18 782 -35 903 -21 159 -20 205 8 246 30 44
203 175 292 219 l70 35 45 104 45 104 7 -49 c10 -79 -2 -181 -26 -217 -12 -17
-63 -63 -114 -101 -146 -112 -196 -191 -197 -312 0 -75 17 -98 88 -119 106
-31 193 -16 365 66 223 105 408 241 492 361 94 133 121 252 126 558 3 153 8
216 20 250 34 96 73 313 90 490 18 194 16 510 -6 1005 -5 116 -9 341 -10 500
0 348 -12 675 -41 1125 -31 486 -20 914 33 1325 31 238 31 580 0 815 -37 275
-65 406 -171 807 -48 179 -53 251 -35 443 19 197 11 269 -40 377 -71 145 -198
230 -490 324 -306 99 -419 150 -751 339 -223 127 -317 187 -420 268 -208 165
-301 273 -387 449 -47 96 -50 108 -45 156 4 29 22 83 42 122 105 209 186 528
200 784 4 58 15 176 26 261 20 165 20 163 -16 490 -29 265 -79 443 -158 562
-96 143 -222 227 -462 306 -272 90 -464 124 -725 127 -107 2 -208 1 -225 -1z
m-4163 -5408 c120 -132 176 -211 243 -341 84 -166 122 -309 155 -587 24 -209
39 -268 100 -393 48 -99 71 -130 280 -369 36 -41 119 -144 183 -229 127 -168
259 -301 332 -337 38 -18 59 -21 124 -19 65 3 85 9 115 30 68 49 211 218 277
327 l64 107 18 -125 c20 -140 19 -459 -2 -960 -6 -146 -16 -467 -22 -713 l-12
-448 -31 -24 c-45 -34 -131 -75 -170 -82 -31 -5 -36 -2 -66 42 -46 67 -67 129
-81 234 -19 152 11 422 87 765 47 214 51 249 30 280 -26 41 -70 57 -151 58
-95 0 -137 -20 -244 -115 l-85 -75 -18 69 c-20 82 -59 163 -95 201 -77 81
-254 98 -381 37 -134 -66 -244 -288 -229 -464 10 -108 49 -169 135 -208 42
-20 64 -22 195 -22 l147 0 -6 -30 c-32 -152 -158 -436 -260 -591 -70 -106
-191 -235 -253 -272 l-44 -26 -29 34 c-40 48 -83 158 -110 280 -20 95 -23 130
-22 375 0 286 16 444 64 630 27 105 26 121 -8 139 -74 38 -192 27 -244 -22
-58 -54 -131 -294 -171 -562 -11 -74 -28 -127 -76 -240 -147 -344 -326 -665
-356 -640 -36 30 -105 238 -132 400 -20 121 -21 348 -2 555 8 88 14 198 14
243 0 81 -1 84 -32 112 -40 36 -89 50 -173 50 -84 -1 -147 -23 -242 -87 -42
-29 -81 -54 -88 -55 -7 -2 -22 32 -36 82 -87 300 -288 510 -569 596 -82 25
-104 27 -245 27 -178 0 -257 -16 -380 -78 -132 -66 -337 -298 -442 -500 l-47
-90 -1 200 c0 221 11 369 41 580 29 198 102 582 154 813 43 186 195 783 201
791 2 2 33 -24 70 -58 37 -34 108 -87 158 -118 202 -126 285 -199 378 -333
202 -289 431 -545 566 -633 112 -73 261 -147 324 -159 71 -15 169 0 237 34 77
40 203 212 310 423 125 249 163 427 201 940 20 278 72 465 176 637 43 70 27
78 176 -86z m-2024 -2627 c107 -12 111 -14 177 -99 80 -104 132 -231 160 -390
23 -130 22 -137 -22 -150 -87 -24 -209 -34 -279 -22 -147 24 -299 134 -360
258 -22 45 -30 76 -32 134 -7 132 24 194 122 250 58 34 85 36 234 19z m2911
-246 c21 -64 40 -172 41 -228 0 -28 -6 -34 -65 -63 -36 -18 -72 -32 -79 -32
-25 0 -48 80 -48 166 0 94 22 181 59 238 l26 40 23 -29 c12 -15 32 -57 43 -92z
m366 -408 c-49 -211 -67 -329 -72 -490 -4 -129 -2 -173 11 -225 38 -150 117
-259 221 -310 40 -19 70 -25 155 -28 98 -4 149 3 258 34 l22 6 0 -661 c0 -389
-4 -702 -10 -759 -16 -146 -44 -244 -100 -349 -27 -51 -50 -100 -50 -108 0 -8
13 -29 29 -48 l30 -33 -86 -105 c-102 -123 -326 -349 -346 -349 -36 0 -118
153 -161 303 -30 102 -56 281 -56 375 l1 67 60 45 c102 75 219 222 275 345 32
70 42 171 22 230 -20 60 -64 85 -149 85 -187 0 -350 -150 -434 -400 l-22 -65
-7 40 c-17 87 -73 156 -149 181 -77 26 -209 16 -270 -19 -116 -68 -192 -293
-141 -415 31 -75 124 -144 213 -158 23 -4 41 -11 41 -17 0 -21 -102 -239 -224
-479 -69 -135 -126 -245 -126 -244 0 2 -31 91 -69 199 -86 245 -156 468 -221
712 -63 237 -77 267 -136 295 -37 18 -58 21 -119 18 -103 -5 -103 -5 -236
-198 l-37 -52 -40 59 c-88 130 -182 185 -329 191 -153 7 -272 -41 -366 -149
-82 -94 -125 -205 -167 -431 -51 -279 -108 -476 -180 -618 -64 -125 -59 -123
-114 -54 -47 60 -120 193 -150 274 l-17 46 70 177 c228 577 287 974 180 1216
-54 122 -177 171 -313 125 -182 -62 -302 -388 -313 -854 -6 -230 9 -388 53
-591 l26 -116 -37 -84 c-20 -46 -41 -88 -46 -93 -5 -6 -9 23 -9 76 0 180 -42
671 -81 943 -29 201 -62 373 -129 679 -33 148 -58 271 -56 274 3 2 33 -5 68
-16 94 -31 170 -42 287 -42 329 1 587 150 788 454 167 254 277 671 261 990
l-6 101 69 37 c38 20 69 34 69 30 0 -4 -7 -62 -17 -127 -23 -169 -23 -452 0
-569 40 -200 114 -371 194 -451 84 -84 213 -122 358 -106 166 19 256 95 369
311 l54 102 12 -38 c23 -72 81 -172 128 -220 27 -27 75 -61 112 -78 59 -28 75
-31 187 -34 102 -3 134 -1 190 17 131 39 249 127 350 261 78 104 191 328 238
474 38 118 85 332 85 390 0 32 6 40 62 81 34 24 63 44 64 42 2 -1 -8 -47 -21
-102z m-3803 -1 c85 -63 208 -120 326 -151 81 -21 122 -25 252 -26 85 -1 191
2 234 6 l79 8 -7 -89 c-29 -387 -180 -751 -402 -969 -73 -71 -175 -133 -218
-133 -42 1 -109 41 -170 102 -101 102 -160 228 -207 448 -20 91 -23 134 -24
330 0 179 4 243 18 315 20 96 48 205 54 205 1 0 31 -21 65 -46z m-3022 -329
c-6 -49 -32 -127 -84 -256 -158 -397 -284 -813 -399 -1319 l-15 -65 -1 115
c-10 710 28 1204 104 1375 34 75 60 94 180 126 103 28 158 51 200 82 11 9 21
15 22 13 1 -1 -2 -33 -7 -71z m3646 -1595 c44 -132 10 -388 -93 -704 -73 -220
-78 -213 -78 114 0 190 4 270 18 355 31 185 92 336 122 303 7 -7 21 -38 31
-68z m3155 -315 c-31 -67 -90 -159 -97 -152 -5 5 29 104 51 148 10 19 29 50
44 69 38 52 40 15 2 -65z m-609 -105 c25 -49 23 -165 -3 -266 -11 -43 -22 -81
-25 -83 -11 -12 -56 27 -74 64 -36 74 -22 209 30 293 26 42 49 39 72 -8z
m-1577 -131 c50 -46 106 -150 129 -239 14 -55 14 -55 -12 -78 -88 -74 -203
-132 -265 -132 -129 0 -149 250 -33 403 36 47 90 87 118 87 10 0 39 -19 63
-41z m586 -270 c65 -252 198 -612 316 -859 89 -187 114 -210 228 -210 111 0
137 23 225 200 29 58 97 187 151 287 98 181 161 313 214 451 21 53 33 72 47
72 15 0 18 -8 18 -42 0 -59 25 -208 50 -298 44 -157 144 -324 233 -390 94 -69
267 -81 383 -26 70 34 249 209 358 349 38 49 72 85 76 80 5 -4 22 -96 40 -203
17 -107 54 -298 80 -425 45 -209 110 -546 110 -564 0 -8 -89 -31 -117 -31 -14
0 -15 17 -10 145 7 141 7 145 -14 156 -36 19 -118 14 -139 -7 -24 -24 -56
-125 -77 -238 l-16 -88 -56 6 c-31 3 -105 9 -166 12 -100 5 -113 4 -142 -15
-38 -24 -41 -43 -14 -70 34 -34 115 -51 238 -51 62 0 113 -4 113 -9 0 -12 -45
-148 -64 -193 -19 -43 -26 -46 -51 -18 -25 28 -91 64 -154 85 -73 24 -219 18
-276 -12 -51 -26 -116 -97 -134 -143 -7 -19 -26 -64 -42 -100 -39 -91 -59
-173 -59 -250 0 -57 -34 -199 -46 -188 -2 2 -12 73 -24 158 -26 199 -36 248
-60 287 -29 48 -71 66 -147 61 -59 -4 -66 -7 -109 -48 -30 -30 -63 -80 -97
-149 l-52 -104 -13 49 c-35 132 -75 247 -93 265 -25 25 -89 25 -120 0 -21 -17
-23 -27 -30 -192 -8 -185 -24 -283 -90 -529 l-12 -45 -14 40 c-8 22 -32 126
-53 230 -51 248 -74 321 -114 361 -36 36 -97 49 -161 35 -73 -17 -154 -136
-205 -300 l-26 -84 -29 79 c-89 251 -91 254 -162 254 -62 0 -69 -12 -98 -155
-43 -217 -110 -465 -125 -465 -15 0 -23 71 -29 271 l-6 206 -30 49 c-24 38
-45 56 -94 81 -58 30 -70 33 -155 33 -96 0 -173 -19 -233 -56 -149 -94 -270
-275 -312 -466 -16 -72 -27 -99 -72 -164 -64 -92 -162 -199 -220 -240 l-42
-29 -38 45 c-51 59 -55 71 -74 235 -9 77 -28 204 -41 283 -27 157 -25 184 18
357 20 80 63 185 77 185 4 0 23 -17 43 -37 40 -41 75 -112 103 -208 22 -76 50
-131 70 -139 23 -8 97 -7 111 2 19 12 27 132 15 213 -32 200 -152 315 -344
326 -64 4 -94 1 -138 -14 l-56 -19 -7 135 c-3 74 -6 222 -6 330 l0 196 105
200 c58 110 106 205 108 210 2 6 17 -6 33 -25 54 -66 99 -103 164 -133 55 -27
79 -32 160 -35 80 -3 104 0 154 18 106 40 172 123 235 296 l27 75 47 -96 c58
-116 134 -202 209 -236 46 -21 69 -24 163 -24 100 0 115 2 167 28 135 67 229
250 259 510 12 109 7 289 -12 377 l-11 51 44 47 c24 26 56 64 72 85 16 21 31
36 33 33 2 -2 17 -55 34 -117z m-431 -306 c0 -95 -24 -244 -54 -338 -28 -86
-84 -197 -103 -202 -14 -5 -90 102 -133 186 -29 58 -99 256 -114 324 l-6 27
94 0 c109 0 180 13 251 46 28 12 53 23 58 23 4 1 7 -29 7 -66z m3039 -1828
c77 -558 73 -514 44 -553 -14 -18 -44 -43 -68 -54 -41 -20 -45 -20 -69 -5 -66
44 -82 134 -101 559 -8 189 -15 366 -15 394 l0 52 73 14 72 14 7 -26 c4 -14
30 -191 57 -395z m-793 135 c42 -21 111 -87 133 -128 10 -19 6 -27 -31 -63
-50 -48 -111 -81 -141 -77 -34 5 -67 79 -67 151 0 60 29 137 52 137 6 0 31 -9
54 -20z m-743 -585 c43 -198 103 -275 217 -275 71 0 116 24 142 74 27 54 25
53 51 28 12 -11 49 -33 82 -49 57 -26 67 -28 200 -28 137 0 141 1 194 30 69
38 129 117 170 225 17 44 31 86 31 95 0 39 17 8 32 -59 37 -163 108 -259 214
-289 73 -21 161 -22 232 -3 50 13 52 12 57 -8 7 -32 53 -589 64 -771 6 -88 13
-261 16 -385 l6 -225 -153 -150 c-297 -291 -631 -558 -759 -606 -149 -57 -347
-19 -471 91 -42 36 -116 136 -107 144 2 2 38 21 79 42 157 81 311 275 339 427
43 236 -213 391 -457 277 -95 -45 -170 -126 -232 -253 -61 -125 -84 -223 -77
-327 3 -41 8 -83 12 -92 5 -13 -1 -18 -32 -25 -47 -10 -411 -9 -514 1 l-76 7
-5 97 c-6 110 -33 201 -79 269 -80 116 -291 137 -447 45 -91 -52 -217 -199
-319 -368 -58 -97 -51 -100 -78 34 -23 111 -22 116 44 190 153 175 262 355
316 522 70 219 6 464 -144 542 -46 24 -65 28 -135 28 -143 0 -222 -58 -309
-228 -127 -246 -163 -506 -116 -825 l21 -140 -114 -114 c-140 -142 -196 -186
-329 -259 -57 -31 -129 -72 -160 -89 l-56 -32 -47 226 c-65 321 -92 483 -121
749 -14 128 -34 281 -44 340 -16 93 -18 126 -9 237 5 72 7 145 4 163 l-5 32
83 0 c117 0 177 31 290 152 l86 90 27 -32 c46 -55 113 -80 219 -80 57 0 108 6
137 16 62 21 137 90 173 159 16 30 31 55 34 55 3 0 15 -15 27 -34 46 -71 177
-99 269 -57 56 26 97 109 129 262 13 63 24 116 25 119 1 3 18 -51 38 -120 73
-243 100 -276 219 -268 97 6 95 3 94 224 -1 150 3 208 18 279 20 98 59 201 71
188 4 -4 17 -73 29 -153 37 -247 72 -363 142 -472 36 -55 79 -78 149 -78 99 0
155 52 183 169 6 28 14 51 17 51 3 -1 16 -23 28 -51 30 -62 61 -79 145 -79 48
0 71 5 88 19 22 18 23 23 20 142 -4 200 22 357 82 487 l21 47 7 -140 c4 -77
14 -171 22 -210z m-1845 269 c20 -14 21 -18 8 -27 -8 -7 -20 -38 -26 -70 -15
-77 -47 -168 -106 -307 -49 -118 -138 -264 -157 -257 -45 15 -56 234 -18 357
71 229 207 368 299 304z m2772 -57 c0 -88 -71 -258 -135 -322 -40 -39 -84 -46
-122 -20 -28 19 -59 104 -67 180 -4 33 -9 79 -12 101 l-5 42 118 4 c94 3 127
8 163 25 60 28 60 28 60 -10z m-2470 -1145 c58 -152 9 -374 -132 -598 l-53
-85 -8 58 c-23 169 53 540 139 671 20 30 29 23 54 -46z m1922 -569 c69 -73 55
-167 -46 -308 -40 -55 -154 -175 -168 -175 -4 0 -8 40 -8 88 0 153 59 324 135
390 44 39 54 40 87 5z m-1436 -325 c8 -29 18 -105 21 -169 l6 -116 -49 -8
c-73 -11 -207 -52 -274 -84 -33 -15 -60 -26 -60 -24 0 14 82 162 127 231 58
87 179 222 200 222 7 0 20 -24 29 -52z m2745 -483 c-32 -721 -22 -996 55
-1480 14 -88 31 -192 37 -230 l10 -71 -58 -104 c-32 -58 -92 -157 -134 -220
l-75 -115 -8 65 c-4 36 -2 175 4 309 16 363 4 451 -71 514 -28 23 -42 27 -94
27 -99 0 -148 -43 -201 -175 -23 -54 -36 -56 -36 -5 0 11 -9 24 -19 30 -23 12
-81 13 -99 2 -7 -5 -29 -100 -52 -224 -50 -273 -93 -394 -157 -435 -22 -15
-26 -15 -40 0 -15 14 -13 22 20 91 44 89 77 218 77 300 0 129 -42 186 -137
186 -75 0 -118 -23 -158 -84 -73 -111 -85 -272 -31 -407 14 -36 26 -70 26 -75
0 -12 -61 -60 -96 -76 -25 -12 -29 -10 -61 27 -18 21 -53 75 -77 119 -25 45
-56 92 -69 105 l-25 23 58 69 c103 123 160 260 160 388 0 120 -44 181 -131
181 -28 0 -63 -7 -78 -14 -80 -42 -197 -240 -243 -411 l-14 -50 -21 80 -21 80
39 65 c128 217 182 510 119 645 -26 54 -64 75 -138 75 -50 0 -65 -5 -100 -29
-74 -54 -141 -231 -142 -371 0 -62 25 -285 39 -343 7 -30 6 -41 -10 -60 -10
-12 -18 -17 -19 -10 0 21 -63 85 -97 99 -49 21 -160 17 -213 -7 -92 -42 -158
-114 -180 -199 -50 -196 -190 -530 -222 -530 -15 0 -20 100 -9 178 13 93 63
265 122 421 56 149 53 164 -28 164 -35 0 -55 -8 -103 -41 -32 -23 -61 -42 -63
-42 -3 0 -7 17 -11 38 -18 111 -116 161 -222 113 -50 -23 -91 -74 -110 -137
-28 -95 29 -174 125 -174 l32 0 -23 -41 c-13 -22 -50 -70 -82 -105 l-59 -66
-22 74 c-51 174 -120 234 -244 213 -84 -14 -184 -109 -235 -223 -10 -23 -22
-42 -25 -42 -4 0 -16 48 -28 107 l-20 107 33 60 c47 87 119 267 145 366 33
123 33 330 1 411 -40 100 -114 149 -203 134 -74 -13 -120 -75 -153 -208 -42
-166 -43 -337 -5 -643 l20 -162 -66 -113 c-37 -63 -70 -118 -75 -123 -19 -19
-78 238 -115 494 -9 63 -31 180 -50 260 -19 80 -45 231 -60 335 -14 105 -40
277 -56 384 -17 106 -28 199 -26 205 3 7 52 39 109 71 223 125 371 223 525
350 l32 26 11 -43 c22 -85 74 -231 109 -301 30 -59 43 -76 76 -92 40 -20 40
-20 41 -80 3 -154 103 -244 284 -253 172 -9 279 35 410 167 120 122 217 304
251 475 l12 59 106 -7 c277 -16 401 -18 490 -7 88 11 95 11 104 -6 27 -51 146
-151 234 -196 143 -74 216 -90 413 -90 178 -1 249 11 351 56 108 48 374 263
609 493 l135 132 3 -106 c2 -59 -1 -215 -7 -347z m-2751 42 c0 -30 -52 -164
-95 -244 -54 -103 -131 -202 -193 -249 l-46 -35 -18 23 c-40 52 -37 173 6 258
55 109 138 183 264 236 66 27 82 29 82 11z m-878 -937 c8 -26 13 -92 12 -160
0 -123 -25 -237 -77 -364 -30 -74 -33 -67 -47 121 -14 192 3 353 47 456 l17
39 17 -24 c10 -12 24 -43 31 -68z m1902 -22 c18 -67 3 -188 -41 -331 -34 -112
-44 -98 -46 61 -1 118 14 196 49 264 18 34 30 36 38 6z m316 -611 c-18 -94
-64 -184 -144 -282 l-24 -29 10 59 c21 138 56 236 125 349 l38 61 3 -50 c2
-27 -2 -76 -8 -108z m1088 0 c2 -60 -1 -150 -7 -200 -42 -347 -29 -566 37
-632 29 -29 94 -41 148 -26 61 16 119 88 232 285 29 51 53 83 56 75 10 -29 55
-378 61 -474 7 -104 -8 -347 -28 -470 l-12 -70 -225 -58 c-124 -32 -274 -74
-334 -93 -204 -66 -413 -171 -589 -298 -43 -31 -81 -56 -84 -56 -3 0 5 17 17
37 66 113 158 346 180 460 16 81 9 207 -14 253 -79 155 -248 173 -406 43 -90
-73 -182 -203 -225 -316 -10 -26 -19 -47 -21 -47 -2 0 -20 18 -40 40 -89 98
-247 200 -342 220 -115 25 -206 -27 -238 -135 -15 -52 -15 -68 -5 -120 28
-135 133 -285 280 -397 36 -28 57 -48 46 -45 -11 3 -72 22 -135 41 -296 91
-490 118 -701 98 l-123 -11 -85 77 c-152 137 -550 533 -635 631 -153 177 -331
421 -405 557 l-23 40 64 99 63 99 13 -50 c66 -248 83 -300 107 -319 14 -12 25
-31 25 -45 0 -39 45 -125 76 -147 76 -53 215 -58 296 -10 114 66 188 212 188
372 l1 60 60 35 c85 48 175 148 224 245 35 71 67 114 86 115 4 0 -11 -46 -33
-102 -69 -178 -90 -263 -92 -368 -1 -78 3 -102 20 -135 39 -76 150 -107 240
-66 47 21 80 61 122 144 l29 57 37 -60 c65 -105 161 -144 261 -105 101 38 192
218 217 425 8 64 17 101 29 114 16 18 18 15 44 -70 72 -244 88 -285 113 -304
31 -25 108 -27 140 -4 20 13 22 24 22 97 l1 82 45 -86 c47 -91 96 -155 144
-189 67 -48 210 -44 305 9 47 26 56 28 141 23 55 -3 106 0 127 7 67 23 138
116 177 236 l14 40 13 -64 c7 -35 18 -70 24 -77 13 -16 106 -19 128 -5 11 7
13 29 8 111 -12 198 23 411 85 520 27 48 31 52 41 34 6 -10 13 -68 15 -127z
m-2588 -28 c0 -46 -12 -89 -25 -89 -28 0 -32 53 -10 108 13 29 18 34 25 22 5
-8 10 -27 10 -41z m797 -69 c12 -25 25 -61 28 -82 7 -35 5 -38 -52 -82 -72
-58 -98 -65 -125 -38 -50 50 -28 155 47 221 49 43 74 38 102 -19z m1130 -92
c-3 -46 -15 -108 -26 -138 l-21 -55 3 105 c2 76 8 114 20 138 10 17 20 32 24
32 3 0 3 -37 0 -82z m-2343 -31 c19 -28 43 -133 48 -210 l5 -57 -56 -16 c-31
-8 -90 -25 -131 -38 -41 -13 -77 -22 -79 -20 -8 8 31 128 65 201 33 70 105
163 125 163 5 0 15 -10 23 -23z m1221 -234 c-21 -71 -81 -196 -104 -217 -16
-15 -19 -15 -33 1 -40 45 -88 172 -88 236 l0 27 83 1 c45 0 98 6 117 13 19 7
36 9 38 5 2 -5 -4 -35 -13 -66z m-1190 -228 c-19 -83 -58 -156 -102 -196 -39
-34 -45 -35 -65 -11 -26 29 -41 90 -33 138 11 74 66 123 165 149 55 14 57 11
35 -80z m3438 -977 c-4 -29 -8 -102 -8 -163 0 -90 4 -123 24 -179 52 -153 25
-223 -164 -429 -80 -86 -142 -145 -168 -158 -88 -45 -205 -130 -273 -201 -102
-104 -234 -314 -234 -370 0 -10 -2 -18 -5 -18 -3 0 -31 20 -62 44 -36 28 -229
128 -513 266 -643 314 -911 451 -1020 521 -60 39 -140 105 -215 178 -66 64
-140 133 -165 153 l-44 36 38 8 c54 10 236 -2 326 -21 93 -20 242 -63 520
-153 393 -127 539 -141 694 -67 28 14 110 68 181 121 72 53 162 117 200 142
97 63 283 154 391 192 104 36 472 148 492 149 10 1 11 -11 5 -51z"/>
</g>
</svg>
