<?xml version="1.0" encoding="utf-8"?>
<!-- Generator: Adobe Illustrator 25.0.1, SVG Export Plug-In . SVG Version: 6.00 Build 0)  -->
<svg version="1.1" id="Layer_1" xmlns="http://www.w3.org/2000/svg" xmlns:xlink="http://www.w3.org/1999/xlink" x="0px" y="0px"
	 viewBox="0 0 2400 2400" style="enable-background:new 0 0 2400 2400;" xml:space="preserve">
<g>
	<path transform="translate(0.000000,2400.000000) scale(0.100000,-0.100000)" d="M17120.3,22968c-300-45-537-155-701-326
		c-82-85-325-414-350-473c-43-105-59-325-26-380c14-23,16-41,11-80c-19-135-12-164,65-289c20-33,36-65,36-71c0-8-16-11-47-8
		c-93,8-97-31-7-74l56-28l-6-45c-3-25-23-105-46-178c-22-72-40-148-40-168c0-47,49-97,110-114c81-22,78-15,68-143c-2-33,2-43,30-69
		l34-29l-7-72c-6-66-5-75,18-108c20-30,40-95,63-207c6-31,70-100,113-121c81-42,277-55,361-26c23,8,40,11,38,7
		c-72-161-173-264-458-464c-495-348-909-542-1401-657c-130-31-139-35-234-99c-109-74-95-55-289-392c-94-162-264-422-351-536
		c-35-46-89-129-120-184l-57-101l-37,48c-103,130-270,414-314,531c-17,47-21,79-21,182c0,69,8,175,17,235c36,251,32,310-26,345
		c-18,11-39,20-48,20c-10,0-23,17-33,43c-31,78-92,131-172,147c-61,13-58,6-37,97c11,50-76,87-152,64c-51-16-56-16-138,5
		c-64,15-71,15-113-1c-25-9-57-32-72-51s-35-34-44-34s-37,24-63,54c-53,62-90,81-143,73c-60-10-94-56-120-162c-14-56-36-113-61-154
		c-60-101-72-139-79-236l-7-90l-50-2c-56-2-96-27-105-64c-6-25-3-43,24-139c9-30,17-85,18-122c2-64-1-74-64-200
		c-36-73-82-181-101-239c-20-58-52-150-72-205c-20-54-58-175-85-269c-27-93-69-224-93-290c-42-116-121-295-130-295c-2,0-19,29-36,64
		c-18,35-58,96-88,137c-31,41-99,133-151,204c-52,72-118,157-147,190c-95,110-281,359-351,470c-138,221-373,516-456,571
		c-86,58-228,104-644,209c-201,50-284,80-360,131c-108,72-194,191-222,306c-27,108,15,126,245,108c200-17,276-11,350,26
		c31,16,65,40,75,54s26,68,36,120c14,67,24,97,37,105c48,27,58,45,51,95c-6,46-5,48,28,68c44,26,54,68,32,131c-9,24-16,61-16,82
		c0,35,4,41,39,59c46,23,71,54,71,89c0,14-18,61-39,106c-21,44-44,106-51,139c-12,58-12,58,18,90c31,34,102,147,102,164
		c0,14-35,25-58,18c-10-4-32-24-48-46s-31-40-34-40s-4,119-2,264c4,289-5,372-54,521c-34,106-103,237-162,310
		c-66,82-229,224-337,293c-94,60-281,135-422,171c-102,26-296,51-398,51c-93,0-306-30-420-59c-105-26-172-37-335-56
		c-74-8-164-23-200-31c-147-36-350-157-479-285c-129-127-267-365-341-586c-53-160-77-287-90-483c-11-152-15-176-58-310
		c-34-107-71-194-141-330c-182-354-201-396-226-484c-14-49-36-155-50-237c-27-162-53-253-90-306c-74-110-243-263-290-263
		c-51,0-75,66-75,211c0,135-8,159-53,159c-62,0-95-69-104-220c-9-158,29-274,115-352c53-48,164-112,237-136c53-18,61-24,72-58
		c7-20,18-76,25-124c14-108,0-214-38-278c-30-52-97-102-134-102c-35,0-85,50-151,152c-55,84-88,106-132,89c-32-12-41-53-35-154
		c6-86,34-147,107-235c104-125,105-133,66-361c-27-157-31-243-14-336c6-33,14-143,18-245c7-206,18-246,75-281c31-19,80-25,111-13
		c20,8,61,88,70,138l7,37l17-27c15-25,15-38,4-138c-7-61-25-172-39-246c-44-229-44-235-29-295c8-30,52-128,98-217
		c98-192,126-268,133-363c6-75,3-84-70-201c-19-30-31-64-34-98c-2-28-13-77-23-108c-27-82-24-134,11-205l30-59l-16-75
		c-28-134-30-505-5-889c12-184,30-409,39-500c14-132,17-271,18-695c0-487-1-538-19-635c-26-137-25-273,1-435c36-219,66-624,48-653
		c-4-7-17-7-42,0c-106,29-167-28-239-226l-18-48l-46,8c-113,20-209-7-280-77c-53-53-71-101-71-197c0-78-2-88-35-141
		c-65-105-57-151,42-262c66-74,72-88,88-212c15-108,34-149,93-195c50-40,87-57,156-75c70-19,86-32,132-114c48-87,94-116,187-121
		c39-3,94,1,124,8c49,11,57,10,95-10c22-12,64-27,92-34l51-13l-2-169c-2-300-50-874-99-1209c-86-584-202-1029-431-1665
		c-166-461-265-679-457-1013c-282-490-570-918-814-1207c-305-363-758-781-1442-1330c-154-124-383-343-440-422c-36-49-38-77-7-106
		c36-34,102-52,256-68c160-17,172-21,283-104c178-134,315-162,613-125c201,25,207,24,347-49c221-115,317-132,503-87
		c50,12,120,25,157,28l67,6l143-72c233-117,320-130,523-80c69,17,121,23,225,23l135,1l155-62c241-96,289-108,405-107
		c93,0,110,4,253,52c83,29,163,52,176,52c14,0,75-25,138-55c62-31,158-67,213-82c91-24,117-26,295-27c155,0,227,4,350,23
		c93,13,217,24,310,26c85,2,197,11,248,20c51,8,126,16,166,16c65,0,88-5,192-47c263-105,344-110,664-43c200,42,210,43,395,43h190
		l240-64c232-61,244-63,365-64c114-1,137,3,261,36c74,20,178,53,231,72c265,96,452,120,700,92c210-24,301-13,578,70
		c228,69,407,97,745,119c343,22,359,26,620,163c103,54,184,74,475,117l237,35l57-26c72-33,205-60,337-69c170-11,303,18,406,89
		c35,24,68,36,123,45c83,13,261,71,390,126c194,83,342,215,470,420c91,144,128,176,232,199c145,33,199,56,249,106
		c76,76,99,175,120,527c12,196,8,363-17,733c-8,132-14,386-14,660c0,519-11,790-45,1135c-38,395-38,402-19,837c19,453,15,631-26,988
		c-35,307-44,500-31,709c13,221,40,449,81,686c45,267,146,683,149,618c2-47,54-309,102-513c91-390,110-517,129-885
		c17-329,45-467,148-736c64-167,70-213,82-689c6-234,15-477,20-540s16-206,25-317c8-112,27-289,42-395c23-162,28-227,28-403
		c-1-233,5-199-95-580c-49-187-53-208-53-320c0-137,19-239,85-455c121-397,110-346,114-545c4-223,16-267,114-423
		c116-186,155-274,220-498c82-282,240-466,460-535c80-25,242-35,325-20c162,30,325,169,435,373c73,136,87,258,50,438
		c-16,82-34,125-133,320c-177,349-192,409-161,647c23,180,22,229-6,319c-12,38-24,110-27,159c-6,103,0,130,82,384
		c66,204,90,297,109,428c26,171,55,546,81,1063c29,579,33,631,85,1062c58,476,66,595,51,785c-14,188-34,292-100,521
		c-70,243-85,342-78,516c4,106,15,182,41,306c113,533,116,557,116,862c-1,331-18,782-35,903c-21,159-20,205,8,246
		c30,44,203,175,292,219l70,35l45,104l45,104l7-49c10-79-2-181-26-217c-12-17-63-63-114-101c-146-112-196-191-197-312
		c0-75,17-98,88-119c106-31,193-16,365,66c223,105,408,241,492,361c94,133,121,252,126,558c3,153,8,216,20,250c34,96,73,313,90,490
		c18,194,16,510-6,1005c-5,116-9,341-10,500c0,348-12,675-41,1125c-31,486-20,914,33,1325c31,238,31,580,0,815
		c-37,275-65,406-171,807c-48,179-53,251-35,443c19,197,11,269-40,377c-71,145-198,230-490,324c-306,99-419,150-751,339
		c-223,127-317,187-420,268c-208,165-301,273-387,449c-47,96-50,108-45,156c4,29,22,83,42,122c105,209,186,528,200,784
		c4,58,15,176,26,261c20,165,20,163-16,490c-29,265-79,443-158,562c-96,143-222,227-462,306c-272,90-464,124-725,127
		C17238.3,22971,17137.3,22970,17120.3,22968z M12957.3,17560c120-132,176-211,243-341c84-166,122-309,155-587
		c24-209,39-268,100-393c48-99,71-130,280-369c36-41,119-144,183-229c127-168,259-301,332-337c38-18,59-21,124-19c65,3,85,9,115,30
		c68,49,211,218,277,327l64,107l18-125c20-140,19-459-2-960c-6-146-16-467-22-713l-12-448l-31-24c-45-34-131-75-170-82
		c-31-5-36-2-66,42c-46,67-67,129-81,234c-19,152,11,422,87,765c47,214,51,249,30,280c-26,41-70,57-151,58c-95,0-137-20-244-115
		l-85-75l-18,69c-20,82-59,163-95,201c-77,81-254,98-381,37c-134-66-244-288-229-464c10-108,49-169,135-208c42-20,64-22,195-22h147
		l-6-30c-32-152-158-436-260-591c-70-106-191-235-253-272l-44-26l-29,34c-40,48-83,158-110,280c-20,95-23,130-22,375
		c0,286,16,444,64,630c27,105,26,121-8,139c-74,38-192,27-244-22c-58-54-131-294-171-562c-11-74-28-127-76-240
		c-147-344-326-665-356-640c-36,30-105,238-132,400c-20,121-21,348-2,555c8,88,14,198,14,243c0,81-1,84-32,112c-40,36-89,50-173,50
		c-84-1-147-23-242-87c-42-29-81-54-88-55c-7-2-22,32-36,82c-87,300-288,510-569,596c-82,25-104,27-245,27c-178,0-257-16-380-78
		c-132-66-337-298-442-500l-47-90l-1,200c0,221,11,369,41,580c29,198,102,582,154,813c43,186,195,783,201,791c2,2,33-24,70-58
		s108-87,158-118c202-126,285-199,378-333c202-289,431-545,566-633c112-73,261-147,324-159c71-15,169,0,237,34
		c77,40,203,212,310,423c125,249,163,427,201,940c20,278,72,465,176,637C12824.3,17716,12808.3,17724,12957.3,17560z M10933.3,14933
		c107-12,111-14,177-99c80-104,132-231,160-390c23-130,22-137-22-150c-87-24-209-34-279-22c-147,24-299,134-360,258
		c-22,45-30,76-32,134c-7,132,24,194,122,250C10757.3,14948,10784.3,14950,10933.3,14933z M13844.3,14687c21-64,40-172,41-228
		c0-28-6-34-65-63c-36-18-72-32-79-32c-25,0-48,80-48,166c0,94,22,181,59,238l26,40l23-29
		C13813.3,14764,13833.3,14722,13844.3,14687z M14210.3,14279c-49-211-67-329-72-490c-4-129-2-173,11-225c38-150,117-259,221-310
		c40-19,70-25,155-28c98-4,149,3,258,34l22,6v-661c0-389-4-702-10-759c-16-146-44-244-100-349c-27-51-50-100-50-108s13-29,29-48
		l30-33l-86-105c-102-123-326-349-346-349c-36,0-118,153-161,303c-30,102-56,281-56,375l1,67l60,45c102,75,219,222,275,345
		c32,70,42,171,22,230c-20,60-64,85-149,85c-187,0-350-150-434-400l-22-65l-7,40c-17,87-73,156-149,181c-77,26-209,16-270-19
		c-116-68-192-293-141-415c31-75,124-144,213-158c23-4,41-11,41-17c0-21-102-239-224-479c-69-135-126-245-126-244c0,2-31,91-69,199
		c-86,245-156,468-221,712c-63,237-77,267-136,295c-37,18-58,21-119,18c-103-5-103-5-236-198l-37-52l-40,59c-88,130-182,185-329,191
		c-153,7-272-41-366-149c-82-94-125-205-167-431c-51-279-108-476-180-618c-64-125-59-123-114-54c-47,60-120,193-150,274l-17,46
		l70,177c228,577,287,974,180,1216c-54,122-177,171-313,125c-182-62-302-388-313-854c-6-230,9-388,53-591l26-116l-37-84
		c-20-46-41-88-46-93c-5-6-9,23-9,76c0,180-42,671-81,943c-29,201-62,373-129,679c-33,148-58,271-56,274c3,2,33-5,68-16
		c94-31,170-42,287-42c329,1,587,150,788,454c167,254,277,671,261,990l-6,101l69,37c38,20,69,34,69,30s-7-62-17-127
		c-23-169-23-452,0-569c40-200,114-371,194-451c84-84,213-122,358-106c166,19,256,95,369,311l54,102l12-38c23-72,81-172,128-220
		c27-27,75-61,112-78c59-28,75-31,187-34c102-3,134-1,190,17c131,39,249,127,350,261c78,104,191,328,238,474c38,118,85,332,85,390
		c0,32,6,40,62,81c34,24,63,44,64,42C14233.3,14380,14223.3,14334,14210.3,14279z M10407.3,14278c85-63,208-120,326-151
		c81-21,122-25,252-26c85-1,191,2,234,6l79,8l-7-89c-29-387-180-751-402-969c-73-71-175-133-218-133c-42,1-109,41-170,102
		c-101,102-160,228-207,448c-20,91-23,134-24,330c0,179,4,243,18,315c20,96,48,205,54,205
		C10343.3,14324,10373.3,14303,10407.3,14278z M7385.3,13949c-6-49-32-127-84-256c-158-397-284-813-399-1319l-15-65l-1,115
		c-10,710,28,1204,104,1375c34,75,60,94,180,126c103,28,158,51,200,82c11,9,21,15,22,13C7393.3,14019,7390.3,13987,7385.3,13949z
		 M11031.3,12354c44-132,10-388-93-704c-73-220-78-213-78,114c0,190,4,270,18,355c31,185,92,336,122,303
		C11007.3,12415,11021.3,12384,11031.3,12354z M14186.3,12039c-31-67-90-159-97-152c-5,5,29,104,51,148c10,19,29,50,44,69
		C14222.3,12156,14224.3,12119,14186.3,12039z M13577.3,11934c25-49,23-165-3-266c-11-43-22-81-25-83c-11-12-56,27-74,64
		c-36,74-22,209,30,293C13531.3,11984,13554.3,11981,13577.3,11934z M12000.3,11803c50-46,106-150,129-239c14-55,14-55-12-78
		c-88-74-203-132-265-132c-129,0-149,250-33,403c36,47,90,87,118,87C11947.3,11844,11976.3,11825,12000.3,11803z M12586.3,11533
		c65-252,198-612,316-859c89-187,114-210,228-210c111,0,137,23,225,200c29,58,97,187,151,287c98,181,161,313,214,451
		c21,53,33,72,47,72c15,0,18-8,18-42c0-59,25-208,50-298c44-157,144-324,233-390c94-69,267-81,383-26c70,34,249,209,358,349
		c38,49,72,85,76,80c5-4,22-96,40-203c17-107,54-298,80-425c45-209,110-546,110-564c0-8-89-31-117-31c-14,0-15,17-10,145
		c7,141,7,145-14,156c-36,19-118,14-139-7c-24-24-56-125-77-238l-16-88l-56,6c-31,3-105,9-166,12c-100,5-113,4-142-15
		c-38-24-41-43-14-70c34-34,115-51,238-51c62,0,113-4,113-9c0-12-45-148-64-193c-19-43-26-46-51-18s-91,64-154,85
		c-73,24-219,18-276-12c-51-26-116-97-134-143c-7-19-26-64-42-100c-39-91-59-173-59-250c0-57-34-199-46-188c-2,2-12,73-24,158
		c-26,199-36,248-60,287c-29,48-71,66-147,61c-59-4-66-7-109-48c-30-30-63-80-97-149l-52-104l-13,49c-35,132-75,247-93,265
		c-25,25-89,25-120,0c-21-17-23-27-30-192c-8-185-24-283-90-529l-12-45l-14,40c-8,22-32,126-53,230c-51,248-74,321-114,361
		c-36,36-97,49-161,35c-73-17-154-136-205-300l-26-84l-29,79c-89,251-91,254-162,254c-62,0-69-12-98-155c-43-217-110-465-125-465
		s-23,71-29,271l-6,206l-30,49c-24,38-45,56-94,81c-58,30-70,33-155,33c-96,0-173-19-233-56c-149-94-270-275-312-466
		c-16-72-27-99-72-164c-64-92-162-199-220-240l-42-29l-38,45c-51,59-55,71-74,235c-9,77-28,204-41,283c-27,157-25,184,18,357
		c20,80,63,185,77,185c4,0,23-17,43-37c40-41,75-112,103-208c22-76,50-131,70-139c23-8,97-7,111,2c19,12,27,132,15,213
		c-32,200-152,315-344,326c-64,4-94,1-138-14l-56-19l-7,135c-3,74-6,222-6,330v196l105,200c58,110,106,205,108,210c2,6,17-6,33-25
		c54-66,99-103,164-133c55-27,79-32,160-35c80-3,104,0,154,18c106,40,172,123,235,296l27,75l47-96c58-116,134-202,209-236
		c46-21,69-24,163-24c100,0,115,2,167,28c135,67,229,250,259,510c12,109,7,289-12,377l-11,51l44,47c24,26,56,64,72,85s31,36,33,33
		C12554.3,11648,12569.3,11595,12586.3,11533z M12155.3,11227c0-95-24-244-54-338c-28-86-84-197-103-202c-14-5-90,102-133,186
		c-29,58-99,256-114,324l-6,27h94c109,0,180,13,251,46c28,12,53,23,58,23C12152.3,11294,12155.3,11264,12155.3,11227z M15194.3,9399
		c77-558,73-514,44-553c-14-18-44-43-68-54c-41-20-45-20-69-5c-66,44-82,134-101,559c-8,189-15,366-15,394v52l73,14l72,14l7-26
		C15141.3,9780,15167.3,9603,15194.3,9399z M14401.3,9534c42-21,111-87,133-128c10-19,6-27-31-63c-50-48-111-81-141-77
		c-34,5-67,79-67,151c0,60,29,137,52,137C14353.3,9554,14378.3,9545,14401.3,9534z M13658.3,8949c43-198,103-275,217-275
		c71,0,116,24,142,74c27,54,25,53,51,28c12-11,49-33,82-49c57-26,67-28,200-28c137,0,141,1,194,30c69,38,129,117,170,225
		c17,44,31,86,31,95c0,39,17,8,32-59c37-163,108-259,214-289c73-21,161-22,232-3c50,13,52,12,57-8c7-32,53-589,64-771
		c6-88,13-261,16-385l6-225l-153-150c-297-291-631-558-759-606c-149-57-347-19-471,91c-42,36-116,136-107,144c2,2,38,21,79,42
		c157,81,311,275,339,427c43,236-213,391-457,277c-95-45-170-126-232-253c-61-125-84-223-77-327c3-41,8-83,12-92c5-13-1-18-32-25
		c-47-10-411-9-514,1l-76,7l-5,97c-6,110-33,201-79,269c-80,116-291,137-447,45c-91-52-217-199-319-368c-58-97-51-100-78,34
		c-23,111-22,116,44,190c153,175,262,355,316,522c70,219,6,464-144,542c-46,24-65,28-135,28c-143,0-222-58-309-228
		c-127-246-163-506-116-825l21-140l-114-114c-140-142-196-186-329-259c-57-31-129-72-160-89l-56-32l-47,226c-65,321-92,483-121,749
		c-14,128-34,281-44,340c-16,93-18,126-9,237c5,72,7,145,4,163l-5,32h83c117,0,177,31,290,152l86,90l27-32c46-55,113-80,219-80
		c57,0,108,6,137,16c62,21,137,90,173,159c16,30,31,55,34,55s15-15,27-34c46-71,177-99,269-57c56,26,97,109,129,262
		c13,63,24,116,25,119s18-51,38-120c73-243,100-276,219-268c97,6,95,3,94,224c-1,150,3,208,18,279c20,98,59,201,71,188
		c4-4,17-73,29-153c37-247,72-363,142-472c36-55,79-78,149-78c99,0,155,52,183,169c6,28,14,51,17,51c3-1,16-23,28-51
		c30-62,61-79,145-79c48,0,71,5,88,19c22,18,23,23,20,142c-4,200,22,357,82,487l21,47l7-140C13640.3,9082,13650.3,8988,13658.3,8949
		z M11813.3,9218c20-14,21-18,8-27c-8-7-20-38-26-70c-15-77-47-168-106-307c-49-118-138-264-157-257c-45,15-56,234-18,357
		C11585.3,9143,11721.3,9282,11813.3,9218z M14585.3,9161c0-88-71-258-135-322c-40-39-84-46-122-20c-28,19-59,104-67,180
		c-4,33-9,79-12,101l-5,42l118,4c94,3,127,8,163,25C14585.3,9199,14585.3,9199,14585.3,9161z M12115.3,8016c58-152,9-374-132-598
		l-53-85l-8,58c-23,169,53,540,139,671C12081.3,8092,12090.3,8085,12115.3,8016z M14037.3,7447c69-73,55-167-46-308
		c-40-55-154-175-168-175c-4,0-8,40-8,88c0,153,59,324,135,390C13994.3,7481,14004.3,7482,14037.3,7447z M12601.3,7122
		c8-29,18-105,21-169l6-116l-49-8c-73-11-207-52-274-84c-33-15-60-26-60-24c0,14,82,162,127,231c58,87,179,222,200,222
		C12579.3,7174,12592.3,7150,12601.3,7122z M15346.3,6639c-32-721-22-996,55-1480c14-88,31-192,37-230l10-71l-58-104
		c-32-58-92-157-134-220l-75-115l-8,65c-4,36-2,175,4,309c16,363,4,451-71,514c-28,23-42,27-94,27c-99,0-148-43-201-175
		c-23-54-36-56-36-5c0,11-9,24-19,30c-23,12-81,13-99,2c-7-5-29-100-52-224c-50-273-93-394-157-435c-22-15-26-15-40,0
		c-15,14-13,22,20,91c44,89,77,218,77,300c0,129-42,186-137,186c-75,0-118-23-158-84c-73-111-85-272-31-407c14-36,26-70,26-75
		c0-12-61-60-96-76c-25-12-29-10-61,27c-18,21-53,75-77,119c-25,45-56,92-69,105l-25,23l58,69c103,123,160,260,160,388
		c0,120-44,181-131,181c-28,0-63-7-78-14c-80-42-197-240-243-411l-14-50l-21,80l-21,80l39,65c128,217,182,510,119,645
		c-26,54-64,75-138,75c-50,0-65-5-100-29c-74-54-141-231-142-371c0-62,25-285,39-343c7-30,6-41-10-60c-10-12-18-17-19-10
		c0,21-63,85-97,99c-49,21-160,17-213-7c-92-42-158-114-180-199c-50-196-190-530-222-530c-15,0-20,100-9,178c13,93,63,265,122,421
		c56,149,53,164-28,164c-35,0-55-8-103-41c-32-23-61-42-63-42c-3,0-7,17-11,38c-18,111-116,161-222,113c-50-23-91-74-110-137
		c-28-95,29-174,125-174h32l-23-41c-13-22-50-70-82-105l-59-66l-22,74c-51,174-120,234-244,213c-84-14-184-109-235-223
		c-10-23-22-42-25-42c-4,0-16,48-28,107l-20,107l33,60c47,87,119,267,145,366c33,123,33,330,1,411c-40,100-114,149-203,134
		c-74-13-120-75-153-208c-42-166-43-337-5-643l20-162l-66-113c-37-63-70-118-75-123c-19-19-78,238-115,494c-9,63-31,180-50,260
		s-45,231-60,335c-14,105-40,277-56,384c-17,106-28,199-26,205c3,7,52,39,109,71c223,125,371,223,525,350l32,26l11-43
		c22-85,74-231,109-301c30-59,43-76,76-92c40-20,40-20,41-80c3-154,103-244,284-253c172-9,279,35,410,167c120,122,217,304,251,475
		l12,59l106-7c277-16,401-18,490-7c88,11,95,11,104-6c27-51,146-151,234-196c143-74,216-90,413-90c178-1,249,11,351,56
		c108,48,374,263,609,493l135,132l3-106C15355.3,6927,15352.3,6771,15346.3,6639z M12595.3,6681c0-30-52-164-95-244
		c-54-103-131-202-193-249l-46-35l-18,23c-40,52-37,173,6,258c55,109,138,183,264,236C12579.3,6697,12595.3,6699,12595.3,6681z
		 M11717.3,5744c8-26,13-92,12-160c0-123-25-237-77-364c-30-74-33-67-47,121c-14,192,3,353,47,456l17,39l17-24
		C11696.3,5800,11710.3,5769,11717.3,5744z M13619.3,5722c18-67,3-188-41-331c-34-112-44-98-46,61c-1,118,14,196,49,264
		C13599.3,5750,13611.3,5752,13619.3,5722z M13935.3,5111c-18-94-64-184-144-282l-24-29l10,59c21,138,56,236,125,349l38,61l3-50
		C13945.3,5192,13941.3,5143,13935.3,5111z M15023.3,5111c2-60-1-150-7-200c-42-347-29-566,37-632c29-29,94-41,148-26
		c61,16,119,88,232,285c29,51,53,83,56,75c10-29,55-378,61-474c7-104-8-347-28-470l-12-70l-225-58c-124-32-274-74-334-93
		c-204-66-413-171-589-298c-43-31-81-56-84-56s5,17,17,37c66,113,158,346,180,460c16,81,9,207-14,253c-79,155-248,173-406,43
		c-90-73-182-203-225-316c-10-26-19-47-21-47s-20,18-40,40c-89,98-247,200-342,220c-115,25-206-27-238-135c-15-52-15-68-5-120
		c28-135,133-285,280-397c36-28,57-48,46-45s-72,22-135,41c-296,91-490,118-701,98l-123-11l-85,77c-152,137-550,533-635,631
		c-153,177-331,421-405,557l-23,40l64,99l63,99l13-50c66-248,83-300,107-319c14-12,25-31,25-45c0-39,45-125,76-147
		c76-53,215-58,296-10c114,66,188,212,188,372l1,60l60,35c85,48,175,148,224,245c35,71,67,114,86,115c4,0-11-46-33-102
		c-69-178-90-263-92-368c-1-78,3-102,20-135c39-76,150-107,240-66c47,21,80,61,122,144l29,57l37-60c65-105,161-144,261-105
		c101,38,192,218,217,425c8,64,17,101,29,114c16,18,18,15,44-70c72-244,88-285,113-304c31-25,108-27,140-4c20,13,22,24,22,97l1,82
		l45-86c47-91,96-155,144-189c67-48,210-44,305,9c47,26,56,28,141,23c55-3,106,0,127,7c67,23,138,116,177,236l14,40l13-64
		c7-35,18-70,24-77c13-16,106-19,128-5c11,7,13,29,8,111c-12,198,23,411,85,520c27,48,31,52,41,34
		C15014.3,5228,15021.3,5170,15023.3,5111z M12435.3,5083c0-46-12-89-25-89c-28,0-32,53-10,108c13,29,18,34,25,22
		C12430.3,5116,12435.3,5097,12435.3,5083z M13232.3,5014c12-25,25-61,28-82c7-35,5-38-52-82c-72-58-98-65-125-38
		c-50,50-28,155,47,221C13179.3,5076,13204.3,5071,13232.3,5014z M14362.3,4922c-3-46-15-108-26-138l-21-55l3,105c2,76,8,114,20,138
		c10,17,20,32,24,32C14365.3,5004,14365.3,4967,14362.3,4922z M12019.3,4891c19-28,43-133,48-210l5-57l-56-16c-31-8-90-25-131-38
		s-77-22-79-20c-8,8,31,128,65,201c33,70,105,163,125,163C12001.3,4914,12011.3,4904,12019.3,4891z M13240.3,4657
		c-21-71-81-196-104-217c-16-15-19-15-33,1c-40,45-88,172-88,236v27l83,1c45,0,98,6,117,13s36,9,38,5
		C13255.3,4718,13249.3,4688,13240.3,4657z M12050.3,4429c-19-83-58-156-102-196c-39-34-45-35-65-11c-26,29-41,90-33,138
		c11,74,66,123,165,149C12070.3,4523,12072.3,4520,12050.3,4429z M15488.3,3452c-4-29-8-102-8-163c0-90,4-123,24-179
		c52-153,25-223-164-429c-80-86-142-145-168-158c-88-45-205-130-273-201c-102-104-234-314-234-370c0-10-2-18-5-18s-31,20-62,44
		c-36,28-229,128-513,266c-643,314-911,451-1020,521c-60,39-140,105-215,178c-66,64-140,133-165,153l-44,36l38,8c54,10,236-2,326-21
		c93-20,242-63,520-153c393-127,539-141,694-67c28,14,110,68,181,121c72,53,162,117,200,142c97,63,283,154,391,192
		c104,36,472,148,492,149C15493.3,3504,15494.3,3492,15488.3,3452z"/>
</g>
</svg>
