<?xml version="1.0" encoding="utf-8"?>
<!-- Generator: Adobe Illustrator 25.0.1, SVG Export Plug-In . SVG Version: 6.00 Build 0)  -->
<svg version="1.1" id="Layer_1" xmlns="http://www.w3.org/2000/svg" xmlns:xlink="http://www.w3.org/1999/xlink" x="0px" y="0px"
	 viewBox="0 0 2400 2400" style="enable-background:new 0 0 2400 2400;" xml:space="preserve">
<g>
	<path transform="translate(0.000000,2400.000000) scale(0.100000,-0.100000)" d="M17165,23010c-86-29-93-30-163-18
		c-56,9-85,9-130,0c-32-7-87-12-123-12c-91-1-132-23-220-120c-48-53-98-96-142-122c-106-64-161-119-200-201c-19-40-58-101-87-137
		c-108-134-135-222-146-470c-5-123-10-160-24-180c-10-14-30-50-45-80c-24-46-27-62-21-110c8-76,98-339,134-392c59-87,66-108,65-193
		c-1-63-10-109-44-220c-54-177-58-220-28-259c24-31,91-65,127-66c26,0,29-22,7-60c-24-42-19-95,13-131c25-28,27-36,19-68
		c-14-54,3-87,60-113c27-13,49-23,50-23c1-1-4-19-12-40c-19-54-18-130,2-172s134-143,206-180c49-26,60-28,179-28h126l-21-40
		c-28-51-134-163-211-224s-303-220-421-296c-382-246-775-412-1220-514c-234-54-270-66-318-110c-56-51-101-150-197-434
		c-45-134-90-258-100-275c-11-17-72-71-136-119s-131-99-148-112c-92-69-143-70-230-4c-71,55-109,117-152,249c-29,93-47,130-87,183
		c-49,64-49,66-44,121c4,30,16,91,27,135s26,123,32,175c14,120,0,162-59,186c-62,24-67,29-79,77c-23,92-87,147-174,150
		c-46,2-50,4-45,22c4,11,9,41,12,66c5,40,2,48-18,63c-31,22-94,20-148-4c-41-19-45-19-91-3c-45,16-50,16-95-1c-33-13-53-29-68-53
		c-15-27-24-33-41-29c-12,4-40,9-63,12c-33,5-44,12-53,34c-6,15-25,42-42,59c-57,58-114,34-144-64c-10-30-35-76-57-102
		c-76-92-98-150-112-288c-10-92-10-92-59-91c-81,2-105-48-66-136c11-25,25-88,32-140c11-91,11-97-15-180c-15-47-59-148-99-225
		c-39-76-88-172-109-213s-59-147-84-235c-98-343-213-657-264-725c-17-21-21-22-36-10c-9,8-32,43-50,79s-74,122-124,191
		c-182,251-275,397-345,539c-91,186-157,296-226,380c-31,36-84,104-119,151c-94,125-232,257-324,308c-91,52-452,178-652,228
		c-196,49-257,70-358,121c-147,76-223,163-255,295c-27,108,15,126,245,108c200-17,276-11,350,26c31,16,65,40,75,54s26,68,36,120
		c14,67,24,97,37,105c48,27,58,45,51,95c-6,46-5,48,28,68c44,26,54,68,32,131c-9,24-16,61-16,82c0,35,4,41,39,59c28,14,43,30,51,55
		c12,37,11,42-31,95c-16,19-35,55-44,79c-19,55-20,181-1,226c15,35,67,75,97,75c23,0,48,31,55,69c6,28,10,32,29,27c37-9,85,12,85,39
		c0,12-7,28-15,35c-14,12-12,17,16,46c18,19,32,43,32,57c0,21,5,25,39,30c56,8,81,33,74,75c-4,29-1,38,25,59c39,33,59,73,59,118
		c0,28-5,38-25,47c-39,18-108,168-77,168c4,0,15,13,24,28c15,26,16,31,2,50c-8,12-33,27-54,33c-46,14-48,19-19,65c12,20,18,42,14,53
		c-7,24-54,41-115,41c-72,0-99,36-121,167c-19,113-56,152-180,187c-49,15-69,29-145,105c-71,71-98,91-134,101c-70,18-73,22-99,106
		c-13,43-36,98-52,121c-36,51-91,87-123,79c-13-3-38,1-55,10c-30,15-85,11-142-11c-9-3-26,3-39,13c-21,17-22,22-11,52
		c10,30,9,36-9,55c-18,17-34,20-118,20c-80,1-105,5-144,24c-34,16-56,21-78,16c-24-5-37-1-61,19c-35,29-76,33-118,11
		c-22-11-36-12-64-3c-28,8-47,8-77-1c-39-12-41-11-68,20c-15,18-53,50-86,71c-54,34-65,38-126,38c-120,0-191-39-260-140
		c-32-47-46-60-66-60c-14,0-41-8-62-19c-20-10-53-21-73-25c-83-15-156-86-215-209c-21-47-37-64-88-97c-36-24-67-38-76-34
		c-31,13-146,16-186,5c-66-18-117-62-148-127c-19-41-48-78-96-122c-38-34-72-71-75-82c-3-10-21-24-39-30c-19-6-42-20-52-32
		c-11-11-44-37-74-58c-83-57-150-123-150-148c0-26,45-57,96-66c18-4,36-11,39-16s-15-61-40-124c-25-64-45-122-45-130
		c0-37-28-70-89-106c-139-81-152-138-43-194c44-24,45-25,18-26c-23,0-43-15-93-67c-69-74-76-99-31-121c27-12,54-7,153,33
		c13,5,7-5-18-31c-40-43-46-69-22-100c19-25,19-26-10-60c-39-45-41-69-10-116c27-40,27-42,15-115c-6-41-9-92-5-113c9-52,47-84,90-76
		c27,5,32,3,42-23c7-20,20-31,42-36l32-7l-31-34c-37-43-38-63-1-98c25-24,29-37,33-93c4-59,7-69,36-94c37-33,51-35,92-14l30,16v-37
		c0-21,9-49,22-67l22-30l-32-57c-29-52-30-59-16-78c8-12,38-29,69-38c30-8,57-20,60-25c4-5,19-9,35-9c33,0,60,31,60,67
		c0,34,19,28,35-11c11-25,13-53,9-95c-5-47-3-66,10-85c31-48,129-55,189-13c27,18,29,18,47,2c16-14,18-26,14-55c-5-32-3-40,14-49
		c29-16,64-14,90,5c19,13,39,15,115,9c51-4,101-12,112-18s48-13,82-16l62-6l-49-100c-27-55-69-124-95-152c-51-58-184-150-345-239
		c-58-32-130-74-161-95c-115-78-202-204-269-394c-80-228-247-1014-265-1250c-4-47,0-145,9-240c9-88,16-227,16-310v-150l-69-275
		c-183-724-300-1308-358-1785c-24-200-27-267-28-510c0-319,5-365,84-720c59-263,76-383,68-470c-4-38-31-141-66-247
		c-102-310-149-538-136-657c3-31,15-112,25-181c35-228,63-621,46-648c-4-7-17-7-42,0c-106,29-167-28-239-226l-18-48l-46,8
		c-113,20-209-7-280-77c-53-53-71-101-71-197c0-78-2-88-35-141c-65-105-57-151,42-262c66-74,72-88,88-212c15-108,34-149,93-195
		c50-40,87-57,156-75c70-19,86-32,132-114c48-87,94-116,187-121c39-3,94,1,124,8c49,11,57,10,95-10c22-12,64-27,92-34l51-13l-2-169
		c-2-300-50-874-99-1209c-86-584-202-1029-431-1665c-166-461-265-679-457-1013c-282-490-570-918-814-1207
		c-305-363-758-781-1442-1330c-154-124-383-343-440-422c-36-49-38-77-7-106c36-34,102-52,256-68c160-17,172-21,283-104
		c178-134,315-162,613-125c201,25,207,24,347-49c221-115,317-132,503-87c50,12,120,25,157,28l67,6l143-72c233-117,320-130,523-80
		c69,17,121,23,225,23l135,1l155-62c241-96,289-108,405-107c93,0,110,4,252,52c84,29,164,52,177,52c14,0,75-25,138-55
		c62-31,158-67,213-82c91-24,117-26,295-27c155,0,227,4,350,23c93,13,217,24,310,26c85,2,197,11,248,20c51,8,126,16,166,16
		c65,0,88-5,192-47c263-105,344-110,664-43c200,42,210,43,395,43h190l240-64c232-61,244-63,365-64c114-1,137,3,261,36
		c74,20,178,53,231,72c265,96,452,120,700,92c210-24,301-13,578,70c228,69,407,97,745,119c343,22,359,26,620,163
		c103,54,184,74,475,117l237,35l57-26c72-33,205-60,337-69c170-11,303,18,406,89c35,24,68,36,123,45c83,13,261,71,390,126
		c194,83,342,215,470,420c91,144,128,176,232,199c145,33,199,56,249,106c76,76,99,175,120,527c12,196,8,363-17,733
		c-8,132-14,386-14,660c0,519-11,790-45,1135c-38,395-38,402-19,837c19,453,15,631-26,988c-35,307-44,500-31,709
		c13,221,40,449,81,686c45,267,146,683,149,618c2-47,54-309,102-513c91-390,110-517,129-885c17-329,45-467,148-736
		c64-167,70-213,82-689c6-234,15-477,20-540s16-206,25-317c8-112,27-289,42-395c23-162,28-227,28-403c-1-233,5-199-95-580
		c-49-187-53-208-53-320c0-137,19-239,85-455c121-397,110-346,114-545c4-223,16-267,114-423c116-186,155-274,220-498
		c82-282,240-466,460-535c80-25,242-35,325-20c162,30,325,169,435,373c73,136,87,258,50,438c-16,82-34,125-133,320
		c-177,349-192,409-161,647c23,180,22,229-6,319c-12,38-24,110-27,159c-6,103,0,130,82,384c66,204,90,297,109,428
		c26,171,55,546,81,1063c29,579,33,631,85,1062c58,476,66,595,51,785c-14,188-34,292-100,521c-70,243-85,342-78,516
		c4,106,15,182,41,306c113,533,116,557,116,862c-1,331-18,782-35,903c-21,159-20,205,8,246c29,44,216,184,287,216c30,13,65,36,77,51
		l23,27v-31c0-17,9-43,20-56l19-25l-27-25c-15-13-60-48-99-78c-125-93-176-176-177-291c-1-81,14-102,87-124c106-31,193-16,365,66
		c223,105,408,241,492,361c94,133,121,252,126,558c3,153,8,216,20,250c34,96,73,313,90,490c18,194,16,510-6,1005
		c-5,116-9,341-10,500c0,348-12,675-41,1125c-31,486-20,914,33,1325c31,238,31,580,0,815c-37,275-65,406-171,807
		c-48,179-53,251-35,443c19,197,11,269-40,377c-71,145-198,230-490,324c-306,99-419,150-751,339c-223,127-317,187-420,268
		c-194,154-286,256-366,407c-23,44-59,105-79,135c-65,99-83,153-88,272c-2,58-2,122,2,140c3,19,42,85,87,149
		c139,196,212,365,267,617c40,186,43,245,24,444l-13,126l41,95c28,65,40,109,40,141c0,53-9,74-55,131c-42,53-67,104-94,194
		c-41,136-106,206-242,260c-63,25-107,65-138,128c-26,53-86,94-193,134c-58,21-95,42-123,69c-53,52-92,66-203,75c-87,7-95,9-135,43
		c-59,49-96,62-179,62C17275,23039,17230,23031,17165,23010z M12966,17278c101-110,127-158,159-290c13-58,29-118,35-133
		c6-16,24-94,40-175c36-181,65-275,146-465s212-428,361-654c107-163,128-188,286-345c198-197,233-218,352-219c53,0,82,5,108,19
		c87,47,318,349,501,657c51,85,62,97,86,97c15,0,33-6,39-14c17-21,30-291,31-631c0-223,6-358,25-580c14-160,25-353,25-431v-141
		l-132-129c-73-71-161-153-195-181c-124-103-273-173-367-173c-38,0-48,5-76,36c-39,45-67,107-88,199s-23,561-3,827
		c17,216,14,228-52,258c-54,25-158,26-208,2c-22-10-61-48-98-93c-33-42-90-104-127-139l-67-62l-26,74c-50,141-124,230-218,262
		c-60,21-203,21-271,1c-72-22-152-98-194-183c-30-61-33-76-33-158s3-94,28-132c63-97,183-145,359-146l108-1v-86
		c0-249-117-618-239-751c-61-67-133-108-158-92c-36,22-74,93-128,236c-135,359-185,660-163,981c4,73,6,141,3,153
		c-14,62-217,70-273,11c-25-27-39-85-57-237c-15-121-76-332-157-535c-45-113-126-275-138-275c-4,0-10,17-14,38c-9,58-7,384,4,528
		c32,414,31,494-6,521c-32,23-96,35-151,28c-56-7-70-15-235-141c-94-72-186-130-193-122c-2,2-11,39-20,83c-20,98-113,383-151,460
		c-32,65-126,179-205,248c-141,125-249,170-404,171c-87,0-113-5-200-33c-174-58-268-126-364-266c-87-126-167-324-208-515
		c-25-119-25-420,1-538c23-110,65-231,110-319c20-40,34-73,32-73c-18,0-333,282-340,305c-4,11-9,85-12,165c-5,109-2,170,10,245
		c9,55,23,179,32,275c35,413,135,940,299,1575c58,222,65,261,65,345v95l36-55c54-83,145-171,297-287c158-121,258-218,325-317
		c99-147,259-332,423-491c139-134,198-180,309-239c230-122,397-128,509-18c45,44,55,64,140,279c92,236,137,378,168,532
		c14,71,17,135,15,356c-4,482,27,622,194,882c32,50,67,106,77,124l18,33l67-74C12855,17399,12921,17326,12966,17278z M10888,15259
		c87-43,165-132,234-266c88-170,141-339,156-493l8-80h-32c-50,0-216,45-275,75c-146,74-277,191-324,290c-66,139-34,369,66,476
		C10758,15300,10807,15300,10888,15259z M13410,14608c32-69,73-215,64-229c-3-5-23-9-44-9c-29,0-48,7-72,29c-28,24-32,36-36,90
		c-3,44,1,75,13,109c17,45,33,72,42,72C13379,14670,13394,14642,13410,14608z M7249,14388c38-235,70-478,86-675c9-101,2-127-139-492
		c-130-334-219-610-294-911l-9-35l-6,55c-39,317-35,864,9,1205c30,238,68,387,194,765c49,146,92,282,95,303c4,20,11,37,15,37
		S7226,14526,7249,14388z M10640,14397c130-71,326-126,518-145c51-5,95-12,98-15c7-7-40-161-77-249c-39-94-140-263-197-328
		c-98-113-198-117-310-16c-141,129-242,367-272,641c-11,102-13,208-4,253l6,30l87-68C10536,14463,10604,14416,10640,14397z
		 M11848,14288c-72-304-93-575-54-703c38-127,90-201,170-243c47-25,60-27,171-27s124,2,170,27c82,43,148,124,225,278l32,64l38-106
		c46-128,108-251,156-306c22-26,63-55,112-79l76-38h145c167,0,213,13,324,89c148,101,230,257,324,616c32,121,36,152,40,303
		c3,92,9,167,13,167s32,16,60,35c29,20,54,34,56,32c2-1-1-57-6-122c-26-327-1-567,71-712c57-113,138-178,274-219c89-28,310-26,425,3
		c166,42,320,122,440,230l52,46l-7-74c-14-171-27-295-50-474c-24-195-40-371-51-577l-6-116l-171-160c-406-378-536-472-677-489
		c-123-14-243,137-257,322l-5,70l68,25c85,32,202,108,249,163c135,155,128,357-13,419c-38,17-61,20-146,16c-84-3-109-8-151-30
		c-133-70-239-242-311-505c-2-7-15-13-29-13c-30,0-31,10-5,78c50,132,47,279-8,343c-37,45-79,59-174,59c-94,0-157-23-238-87
		c-93-74-131-137-131-218c0-98,49-162,168-217l63-30l-17-30c-42-70-175-240-183-232c-5,5-32,63-60,129c-90,208-226,456-284,518
		c-37,40-85,57-160,57c-83,0-111-11-168-67l-47-46l-11,28c-19,51-100,163-140,195c-78,62-144,84-264,88c-65,3-132-1-165-8
		c-138-30-281-144-317-252c-9-29-18-87-19-128c-1-68-5-83-49-170c-68-135-147-250-212-309c-86-78-88-79-124-26
		c-39,56-72,131-100,223l-22,71l60,78c99,129,179,260,258,418c100,200,127,284,128,400c1,97-11,133-62,188c-73,77-276,74-411-6
		c-247-148-414-643-345-1023c9-49,17-95,18-103c2-19-143-96-218-115c-33-9-60-15-60-13c-1,1-29,83-63,182c-33,99-90,261-126,360
		c-69,190-95,298-152,627c-33,193-65,438-58,438c2,0,28-18,57-39c135-100,308-182,469-222c115-29,334-37,444-16
		c156,30,274,92,384,201c160,158,287,413,328,655l17,104l60,21c43,16,181,85,210,105C11877,14410,11864,14355,11848,14288z
		 M11180,13138c52-115-6-305-170-557c-94-145-99-149-93-69c19,250,103,515,198,626c20,23,39,42,41,42
		C11159,13180,11170,13161,11180,13138z M11999,12595c79-74,141-215,141-320c0-37-4-43-49-73c-55-35-88-50-141-63
		c-97-23-200,106-200,251c0,90,52,187,125,232C11921,12650,11946,12645,11999,12595z M14130,12547c0-57-14-103-46-149
		c-27-38-103-102-112-93c-13,12,71,205,115,263C14117,12608,14130,12602,14130,12547z M13420,12487c0-63-43-207-61-207
		c-30,0-50,111-30,163c13,34,71,98,82,91C13416,12531,13420,12510,13420,12487z M12590,12271c22-44,67-146,101-228
		c121-294,180-381,277-409c67-20,156-14,210,13c41,21,162,173,265,335l62,97l60,1h60l13-77c24-155,119-291,246-353
		c170-84,423-80,611,10c94,44,179,113,396,320l156,149l6-167c4-92,14-279,23-415s14-253,11-261c-6-14-149-41-274-52l-83-7v110
		c0,131-3,135-94,141c-68,4-113-9-123-35c-3-10-23-64-45-120l-40-103l-86-1c-177-2-255-25-232-69c14-26,62-40,162-47
		c49-3,88-8,88-10c0-3-25-44-56-91l-56-86l-22,38c-39,72-101,140-148,164c-161,83-407-15-447-177c-5-20-18-76-30-126
		c-19-79-101-275-116-275c-3,0-4,75-3,168c2,148,0,171-17,207c-25,50-69,75-143,82c-118,11-211-39-264-140l-22-42l-13,85
		c-17,109-32,125-113,125c-40,0-64-5-75-15c-9-10-25-72-40-155c-28-158-49-244-69-283l-14-27l-6,45c-3,25-7,102-10,172
		c-5,137-14,169-58,201c-38,29-135,35-192,13c-55-21-78-46-126-136l-38-73l-17,79c-22,98-39,132-71,144c-34,13-88,12-118-2
		c-28-12-36-36-110-298c-42-148-75-232-90-227c-6,2-19,26-28,53c-13,38-17,85-18,216c0,161-1,167-22,183c-13,8-28,30-34,47
		c-19,58-53,73-162,73c-106,0-143-13-226-78c-104-82-225-282-248-410c-10-51-18-72-33-80c-11-5-43-28-71-49s-56-38-62-38
		c-18,0-69,76-92,136c-26,71-26,167,0,270c21,83,83,219,123,268l23,29l41-24c35-20,44-22,67-11c24,11,27,17,24,54c-3,39-7,45-48,68
		c-39,22-57,25-140,25c-84,0-102-3-152-28c-101-49-203-185-254-337c-13-39-19-83-19-155c1-88,4-107,28-159c15-32,43-81,62-107
		c19-27,32-49,29-49c-23,0-151,80-205,130l-66,59l-6,418c-6,409-15,594-41,780c-14,105-19,96,68,108c27,4,86,20,130,36
		c45,17,88,32,97,35c11,4,28-14,58-60c54-82,117-140,189-174c51-24,69-27,167-27c103,0,114,2,179,33c49,23,90,53,144,107
		c41,42,75,74,76,73c24-61,84-154,127-198c94-95,208-137,354-127c165,10,262,76,343,233c50,98,107,264,122,358c10,64,15,73,72,137
		c33,38,65,69,69,69C12546,12350,12568,12314,12590,12271z M11905,12005c61,0,127,4,149,8c38,8,39,8,32-20c-14-58-105-229-140-263
		l-36-34l-46,44c-44,44-124,188-138,253c-7,28-6,28,31,20C11778,12009,11845,12005,11905,12005z M15084,10988l-6-183l-46-60
		c-56-72-213-262-270-325l-40-45l-13,30c-19,47-23,202-10,415c6,107,14,218,17,246l5,51l92,7c51,4,130,15,177,25s88,19,92,20
		C15087,11169,15087,11088,15084,10988z M13990,11003c43-48,90-149,93-198c2-36,0-39-46-63c-44-23-50-24-83-11
		c-72,28-115,111-100,194c7,38,69,115,91,115C13952,11040,13973,11023,13990,11003z M14438,10693c-2-192,0-213,21-277
		c18-55,34-80,75-122c62-61,109-78,203-72c84,5,125,35,238,175c49,62,91,110,94,108c6-7,18-202,36-570c17-363,34-570,65-780
		c11-76,17-142,13-145c-54-47-506-353-688-467c-218-135-338-188-533-237c-209-53-371-59-464-18c-26,12-67,39-92,62
		c-44,41-95,136-79,150c4,4,35,15,68,25c132,37,344,159,403,231c55,67,62,148,17,211c-41,58-166,103-290,103c-152,0-293-52-394-146
		c-94-87-147-185-165-306l-7-46l-82-11c-104-14-248-31-262-31c-6,0-19,25-29,55c-21,67-80,156-126,190c-116,87-305,95-456,20
		c-76-37-196-140-265-228l-38-48l-10,39c-6,21-22,87-35,147l-25,109l21,14c58,41,143,119,196,180c150,175,209,337,219,607
		c6,156-7,236-52,324c-45,90-100,115-239,109c-69-3-102-10-136-27c-189-97-316-341-350-676c-12-114-9-315,6-445l6-56l-118-56
		c-66-31-162-72-214-91c-103-38-383-127-388-123c-4,5-42,286-63,465c-11,96-39,264-64,375c-56,255-90,578-80,759c4,64,10,117,13,117
		s35-12,71-26c105-42,230-64,371-64c112,0,134,3,208,29c46,16,101,41,124,56l40,27l22-21c74-69,247-87,350-37c50,25,91,62,114,102
		c7,13,14,12,46-7c46-27,160-37,223-20c54,15,106,68,129,132l18,49l32-68c27-60,36-71,73-85c23-10,59-17,82-17c40,0,102,20,112,37
		c3,5,15,65,26,134c27,169,36,190,45,114c7-66,36-138,69-173c36-39,72-52,142-52c90,0,140,29,178,104l15,28l17-32
		c28-55,117-76,190-46c27,12,36,23,45,58c36,142,64,226,94,286l35,67l-5-190c-6-185-5-191,18-234c35-67,66-85,153-89
		c93-5,136,9,178,59l34,39l32-49c66-103,136-141,261-141c94,0,140,16,199,66c81,68,161,246,161,358c0,47,4,56,36,87
		c19,18,52,55,72,82c20,26,37,47,39,47C14438,10900,14439,10807,14438,10693z M11585,10719c-10-118-15-144-44-205
		c-17-38-44-86-59-108l-27-39l-12,29c-7,16-12,41-13,55c0,43,38,180,71,249c29,62,89,164,94,158
		C11596,10856,11592,10794,11585,10719z M14078,10615c1-1-7-27-18-57c-21-57-94-168-110-168c-25,0-100,162-100,214c0,20,4,21,112,18
		C14024,10620,14076,10617,14078,10615z M11830,9854c33-107,21-299-27-449c-24-77-88-193-145-264c-63-79-66-74-67,84
		c-1,213,32,400,97,539c36,76,93,156,113,156C11805,9920,11818,9890,11830,9854z M13583,8912c10-9,17-29,17-48c0-26-9-40-44-71
		c-44-38-173-116-213-128c-21-6-21-4-11,32c27,98,88,181,160,217C13543,8940,13550,8939,13583,8912z M15229,8175
		c6-231,16-478,21-550c12-152,13-647,2-787c-4-53-4-94,0-91c5,2,8-14,8-36c0-46-10-54-85-71c-82-18-99,15-121,233
		c-22,226-42,278-117,306c-40,16-142,14-182-3c-42-18-90-82-112-152c-9-30-20-54-23-54c-4,0-10,24-13,53c-8,64-24,77-97,77
		c-72,0-83-12-105-115c-39-178-131-417-190-491l-23-29l-26,24c-14,14-26,31-26,39s21,38,48,67c58,64,106,143,132,218
		c59,166-23,317-171,317c-101,0-163-41-213-140l-35-71l-6,38c-17,98-55,150-129,173c-49,16-141,8-192-16c-52-24-131-106-176-185
		c-22-37-38-55-38-44s21,52,46,90c120,186,234,520,221,654c-10,111-61,172-161,193c-140,30-268-56-312-208c-29-101-35-162-41-441
		c-5-234-8-285-21-295c-12-11-18-9-31,12c-56,86-125,127-225,137c-125,11-228-35-271-121c-14-28-25-67-25-89c0-44-66-238-116-342
		l-34-70l5,70c7,92,55,328,100,489c19,70,35,136,35,147c0,39-94,62-155,39c-15-6-48-28-74-50s-50-40-53-40s-8,21-12,46
		c-7,55-37,112-74,139c-41,31-175,34-230,6c-102-52-174-238-122-319c23-37,107-82,153-82h28l-33-46c-45-63-110-119-174-149
		c-29-14-57-25-62-25s-12,48-15,108c-6,130-27,198-79,257c-29,33-53,49-91,60c-149,44-274-17-356-173l-38-73l-16,94l-17,94l44,94
		c78,167,91,223,91,389c0,143,0,146-32,210c-17,36-48,81-68,100c-33,32-41,35-108,38c-68,4-76,2-105-23c-102-86-122-280-63-620
		c17-99,31-188,31-198s-24-53-52-95l-53-75l-7,39c-4,21-21,160-38,309c-17,148-40,319-50,380c-10,60-24,188-30,282
		c-9,151-32,359-59,533c-5,30-8,56-6,58c1,2,88,25,191,52c191,49,375,109,480,155c31,14,59,23,61,21s26-100,53-217
		c27-116,55-228,61-248c22-67,63-97,153-107c54-7,56-8,62-43c29-151,156-250,344-267c163-15,304,40,434,170c118,118,176,247,176,393
		c0,35,3,63,8,63c4,0,79,9,166,20c88,11,165,20,170,20c6,0,20-21,30-47c45-109,195-216,372-263c284-77,794-1,1133,169
		c110,55,380,234,581,384l125,93l7-86C15216,8633,15224,8406,15229,8175z M12264,8661c24-32,72-158,65-166c-2-2-58-15-124-30
		s-156-40-199-56c-44-16-81-27-83-26c-5,6,58,100,113,168c62,78,169,163,190,151C12233,8698,12251,8679,12264,8661z M12340,8312
		c0-47-29-142-62-203c-53-100-194-227-236-212c-29,10-74,56-88,90c-20,47-17,120,6,169c31,64,108,107,280,160
		C12337,8346,12340,8345,12340,8312z M13435,7622c-1-74-6-104-38-195c-56-164-59-164-54,13c5,159,19,233,55,273
		C13424,7743,13435,7716,13435,7622z M11091,7602c14-68,6-165-19-248l-18-59l-12,78c-13,85-16,229-5,291l6,39l18-22
		C11071,7669,11084,7634,11091,7602z M12059,7070c1-52-16-120-29-120c-34,0-37,108-4,172c15,30,18,31,25,13
		C12055,7124,12059,7095,12059,7070z M13678,6923c-5-80-35-175-66-212c-15-18-23-19-55-12c-21,5-41,11-43,14c-8,7,45,139,73,182
		c44,68,74,105,85,105C13679,7000,13681,6974,13678,6923z M14156,6917c-7-48-54-152-55-123c-1,10,9,59,20,109c17,71,24,86,31,73
		C14158,6966,14159,6939,14156,6917z M14821,6796c27-183,107-256,284-256c50,0,105,4,124,10l34,9l-6-97c-41-643-28-1101,44-1567
		c11-71,22-165,23-208l2-78l-130-147c-166-186-294-321-374-394c-228-207-536-370-781-412c-146-25-446-20-580,10c-22,5-20,9,41,72
		c35,37,80,90,99,117c211,294,431,952,433,1295c1,136-17,206-74,282c-50,66-103,104-179,128c-115,36-242,24-370-37
		c-126-60-258-211-370-424l-48-89l-32,40c-40,50-186,172-284,238c-176,119-310,165-482,166c-192,1-292-50-356-180
		c-30-60-34-79-37-166c-7-159,31-278,161-517c245-447,492-733,772-892c45-26,70-45,61-47c-56-12-556,145-801,251
		c-199,85-531,243-681,323l-122,64l-31,112c-17,62-44,191-61,287c-17,95-44,235-61,310c-45,202-86,404-103,506
		c-24,144-61,563-76,846c-5,101-14,204-20,228l-11,44l53,57c58,63,68,69,68,41c0-27,70-302,83-326c6-11,10-54,8-95
		c-2-89,23-151,78-187c80-53,217-57,315-9c99,49,203,207,246,372c10,41,11,41,65,48c70,8,170,45,234,85c67,44,160,144,196,213
		c24,47,56,78,80,78c2,0-11-44-29-98c-83-245-103-432-58-519c31-60,80-83,173-83c90,0,145,24,191,83c17,23,32,43,33,45
		c1,1,20-15,42-36c21-21,58-43,80-50c63-19,191-15,238,7c104,48,173,178,201,376l7,50l13-88c15-97,48-227,70-269c20-39,46-49,120-49
		c90,0,111,15,118,83c3,29,9,87,13,128l8,75l40-4c30-2,51-13,83-43c86-79,221-116,326-89c41,10,48,9,82-14c49-33,95-45,180-45
		c132,0,192,55,269,246l42,105l33-87c39-100,58-116,131-116c79,0,84,10,97,177c6,77,18,172,29,210l18,70l3-50
		C14809,6888,14815,6834,14821,6796z M11465,6888c15-52,20-199,9-255c-6-29-9-31-72-37c-37-3-79-9-93-12l-27-6l9,46
		c28,152,117,341,150,320C11446,6941,11456,6916,11465,6888z M12880,6818c28-66,24-90-18-102c-28-8-36-6-55,13c-18,18-22,33-22,85
		c0,39,5,69,14,80c13,15,16,15,37-5C12848,6878,12868,6846,12880,6818z M13879,6576c11-32,11-40,0-47c-27-17-56-9-98,27l-42,36
		l46,49c25,26,51,61,58,76c11,26,12,24,18-37C13864,6644,13872,6598,13879,6576z M12904,6563c-14-61-45-139-70-176
		c-21-31-28-36-40-27c-20,17-54,134-54,186v44h85h85L12904,6563z M11435,6458c-13-42-95-193-121-222c-32-36-44-23-44,45
		c0,66,44,148,95,176C11419,6487,11444,6487,11435,6458z M15423,4128c35-256,41-367,27-523c-6-71-15-186-19-255c-5-69-19-167-31-219
		c-27-115-24-225,10-320c51-145,23-219-165-424c-80-86-142-145-168-158c-88-45-205-130-273-201c-102-104-234-314-234-370
		c0-10-2-18-5-18s-31,20-62,44c-36,28-229,128-513,266c-250,122-556,273-680,336c-124,62-273,133-332,157c-135,56-233,112-351,200
		c-199,150-403,348-567,551c-49,61-86,93-164,145c-248,163-346,263-510,525c-31,49-56,93-56,97s91-37,203-90
		c329-160,612-262,942-341c274-66,534-77,678-31c59,19,75,21,120,12c196-40,550-54,778-31c241,24,442,96,702,249
		c225,133,335,235,617,573c8,10,17,18,20,18C15394,4320,15408,4233,15423,4128z M22568,9449c-28-16-21-37,15-47c68-19,144,14,102,44
		C22663,9462,22593,9464,22568,9449z"/>
</g>
</svg>
