<?xml version="1.0" standalone="no"?>
<!DOCTYPE svg PUBLIC "-//W3C//DTD SVG 20010904//EN"
 "http://www.w3.org/TR/2001/REC-SVG-20010904/DTD/svg10.dtd">
<svg version="1.0" xmlns="http://www.w3.org/2000/svg"
 width="2400.000000pt" height="2400.000000pt" viewBox="0 0 2400.000000 2400.000000"
 preserveAspectRatio="xMidYMid meet">

<g transform="translate(0.000000,2400.000000) scale(0.100000,-0.100000)"
fill="#000000" stroke="none">
<path d="M17165 23010 c-86 -29 -93 -30 -163 -18 -56 9 -85 9 -130 0 -32 -7
-87 -12 -123 -12 -91 -1 -132 -23 -220 -120 -48 -53 -98 -96 -142 -122 -106
-64 -161 -119 -200 -201 -19 -40 -58 -101 -87 -137 -108 -134 -135 -222 -146
-470 -5 -123 -10 -160 -24 -180 -10 -14 -30 -50 -45 -80 -24 -46 -27 -62 -21
-110 8 -76 98 -339 134 -392 59 -87 66 -108 65 -193 -1 -63 -10 -109 -44 -220
-54 -177 -58 -220 -28 -259 24 -31 91 -65 127 -66 26 0 29 -22 7 -60 -24 -42
-19 -95 13 -131 25 -28 27 -36 19 -68 -14 -54 3 -87 60 -113 27 -13 49 -23 50
-23 1 -1 -4 -19 -12 -40 -19 -54 -18 -130 2 -172 20 -42 134 -143 206 -180 49
-26 60 -28 179 -28 l126 0 -21 -40 c-28 -51 -134 -163 -211 -224 -77 -61 -303
-220 -421 -296 -382 -246 -775 -412 -1220 -514 -234 -54 -270 -66 -318 -110
-56 -51 -101 -150 -197 -434 -45 -134 -90 -258 -100 -275 -11 -17 -72 -71
-136 -119 -64 -48 -131 -99 -148 -112 -92 -69 -143 -70 -230 -4 -71 55 -109
117 -152 249 -29 93 -47 130 -87 183 -49 64 -49 66 -44 121 4 30 16 91 27 135
11 44 26 123 32 175 14 120 0 162 -59 186 -62 24 -67 29 -79 77 -23 92 -87
147 -174 150 -46 2 -50 4 -45 22 4 11 9 41 12 66 5 40 2 48 -18 63 -31 22 -94
20 -148 -4 -41 -19 -45 -19 -91 -3 -45 16 -50 16 -95 -1 -33 -13 -53 -29 -68
-53 -15 -27 -24 -33 -41 -29 -12 4 -40 9 -63 12 -33 5 -44 12 -53 34 -6 15
-25 42 -42 59 -57 58 -114 34 -144 -64 -10 -30 -35 -76 -57 -102 -76 -92 -98
-150 -112 -288 -10 -92 -10 -92 -59 -91 -81 2 -105 -48 -66 -136 11 -25 25
-88 32 -140 11 -91 11 -97 -15 -180 -15 -47 -59 -148 -99 -225 -39 -76 -88
-172 -109 -213 -21 -41 -59 -147 -84 -235 -98 -343 -213 -657 -264 -725 -17
-21 -21 -22 -36 -10 -9 8 -32 43 -50 79 -18 36 -74 122 -124 191 -182 251
-275 397 -345 539 -91 186 -157 296 -226 380 -31 36 -84 104 -119 151 -94 125
-232 257 -324 308 -91 52 -452 178 -652 228 -196 49 -257 70 -358 121 -147 76
-223 163 -255 295 -27 108 15 126 245 108 200 -17 276 -11 350 26 31 16 65 40
75 54 10 14 26 68 36 120 14 67 24 97 37 105 48 27 58 45 51 95 -6 46 -5 48
28 68 44 26 54 68 32 131 -9 24 -16 61 -16 82 0 35 4 41 39 59 28 14 43 30 51
55 12 37 11 42 -31 95 -16 19 -35 55 -44 79 -19 55 -20 181 -1 226 15 35 67
75 97 75 23 0 48 31 55 69 6 28 10 32 29 27 37 -9 85 12 85 39 0 12 -7 28 -15
35 -14 12 -12 17 16 46 18 19 32 43 32 57 0 21 5 25 39 30 56 8 81 33 74 75
-4 29 -1 38 25 59 39 33 59 73 59 118 0 28 -5 38 -25 47 -39 18 -108 168 -77
168 4 0 15 13 24 28 15 26 16 31 2 50 -8 12 -33 27 -54 33 -46 14 -48 19 -19
65 12 20 18 42 14 53 -7 24 -54 41 -115 41 -72 0 -99 36 -121 167 -19 113 -56
152 -180 187 -49 15 -69 29 -145 105 -71 71 -98 91 -134 101 -70 18 -73 22
-99 106 -13 43 -36 98 -52 121 -36 51 -91 87 -123 79 -13 -3 -38 1 -55 10 -30
15 -85 11 -142 -11 -9 -3 -26 3 -39 13 -21 17 -22 22 -11 52 10 30 9 36 -9 55
-18 17 -34 20 -118 20 -80 1 -105 5 -144 24 -34 16 -56 21 -78 16 -24 -5 -37
-1 -61 19 -35 29 -76 33 -118 11 -22 -11 -36 -12 -64 -3 -28 8 -47 8 -77 -1
-39 -12 -41 -11 -68 20 -15 18 -53 50 -86 71 -54 34 -65 38 -126 38 -120 0
-191 -39 -260 -140 -32 -47 -46 -60 -66 -60 -14 0 -41 -8 -62 -19 -20 -10 -53
-21 -73 -25 -83 -15 -156 -86 -215 -209 -21 -47 -37 -64 -88 -97 -36 -24 -67
-38 -76 -34 -31 13 -146 16 -186 5 -66 -18 -117 -62 -148 -127 -19 -41 -48
-78 -96 -122 -38 -34 -72 -71 -75 -82 -3 -10 -21 -24 -39 -30 -19 -6 -42 -20
-52 -32 -11 -11 -44 -37 -74 -58 -83 -57 -150 -123 -150 -148 0 -26 45 -57 96
-66 18 -4 36 -11 39 -16 3 -5 -15 -61 -40 -124 -25 -64 -45 -122 -45 -130 0
-37 -28 -70 -89 -106 -139 -81 -152 -138 -43 -194 44 -24 45 -25 18 -26 -23 0
-43 -15 -93 -67 -69 -74 -76 -99 -31 -121 27 -12 54 -7 153 33 13 5 7 -5 -18
-31 -40 -43 -46 -69 -22 -100 19 -25 19 -26 -10 -60 -39 -45 -41 -69 -10 -116
27 -40 27 -42 15 -115 -6 -41 -9 -92 -5 -113 9 -52 47 -84 90 -76 27 5 32 3
42 -23 7 -20 20 -31 42 -36 l32 -7 -31 -34 c-37 -43 -38 -63 -1 -98 25 -24 29
-37 33 -93 4 -59 7 -69 36 -94 37 -33 51 -35 92 -14 l30 16 0 -37 c0 -21 9
-49 22 -67 l22 -30 -32 -57 c-29 -52 -30 -59 -16 -78 8 -12 38 -29 69 -38 30
-8 57 -20 60 -25 4 -5 19 -9 35 -9 33 0 60 31 60 67 0 34 19 28 35 -11 11 -25
13 -53 9 -95 -5 -47 -3 -66 10 -85 31 -48 129 -55 189 -13 27 18 29 18 47 2
16 -14 18 -26 14 -55 -5 -32 -3 -40 14 -49 29 -16 64 -14 90 5 19 13 39 15
115 9 51 -4 101 -12 112 -18 11 -6 48 -13 82 -16 l62 -6 -49 -100 c-27 -55
-69 -124 -95 -152 -51 -58 -184 -150 -345 -239 -58 -32 -130 -74 -161 -95
-115 -78 -202 -204 -269 -394 -80 -228 -247 -1014 -265 -1250 -4 -47 0 -145 9
-240 9 -88 16 -227 16 -310 l0 -150 -69 -275 c-183 -724 -300 -1308 -358
-1785 -24 -200 -27 -267 -28 -510 0 -319 5 -365 84 -720 59 -263 76 -383 68
-470 -4 -38 -31 -141 -66 -247 -102 -310 -149 -538 -136 -657 3 -31 15 -112
25 -181 35 -228 63 -621 46 -648 -4 -7 -17 -7 -42 0 -106 29 -167 -28 -239
-226 l-18 -48 -46 8 c-113 20 -209 -7 -280 -77 -53 -53 -71 -101 -71 -197 0
-78 -2 -88 -35 -141 -65 -105 -57 -151 42 -262 66 -74 72 -88 88 -212 15 -108
34 -149 93 -195 50 -40 87 -57 156 -75 70 -19 86 -32 132 -114 48 -87 94 -116
187 -121 39 -3 94 1 124 8 49 11 57 10 95 -10 22 -12 64 -27 92 -34 l51 -13
-2 -169 c-2 -300 -50 -874 -99 -1209 -86 -584 -202 -1029 -431 -1665 -166
-461 -265 -679 -457 -1013 -282 -490 -570 -918 -814 -1207 -305 -363 -758
-781 -1442 -1330 -154 -124 -383 -343 -440 -422 -36 -49 -38 -77 -7 -106 36
-34 102 -52 256 -68 160 -17 172 -21 283 -104 178 -134 315 -162 613 -125 201
25 207 24 347 -49 221 -115 317 -132 503 -87 50 12 120 25 157 28 l67 6 143
-72 c233 -117 320 -130 523 -80 69 17 121 23 225 23 l135 1 155 -62 c241 -96
289 -108 405 -107 93 0 110 4 252 52 84 29 164 52 177 52 14 0 75 -25 138 -55
62 -31 158 -67 213 -82 91 -24 117 -26 295 -27 155 0 227 4 350 23 93 13 217
24 310 26 85 2 197 11 248 20 51 8 126 16 166 16 65 0 88 -5 192 -47 263 -105
344 -110 664 -43 200 42 210 43 395 43 l190 0 240 -64 c232 -61 244 -63 365
-64 114 -1 137 3 261 36 74 20 178 53 231 72 265 96 452 120 700 92 210 -24
301 -13 578 70 228 69 407 97 745 119 343 22 359 26 620 163 103 54 184 74
475 117 l237 35 57 -26 c72 -33 205 -60 337 -69 170 -11 303 18 406 89 35 24
68 36 123 45 83 13 261 71 390 126 194 83 342 215 470 420 91 144 128 176 232
199 145 33 199 56 249 106 76 76 99 175 120 527 12 196 8 363 -17 733 -8 132
-14 386 -14 660 0 519 -11 790 -45 1135 -38 395 -38 402 -19 837 19 453 15
631 -26 988 -35 307 -44 500 -31 709 13 221 40 449 81 686 45 267 146 683 149
618 2 -47 54 -309 102 -513 91 -390 110 -517 129 -885 17 -329 45 -467 148
-736 64 -167 70 -213 82 -689 6 -234 15 -477 20 -540 5 -63 16 -206 25 -317 8
-112 27 -289 42 -395 23 -162 28 -227 28 -403 -1 -233 5 -199 -95 -580 -49
-187 -53 -208 -53 -320 0 -137 19 -239 85 -455 121 -397 110 -346 114 -545 4
-223 16 -267 114 -423 116 -186 155 -274 220 -498 82 -282 240 -466 460 -535
80 -25 242 -35 325 -20 162 30 325 169 435 373 73 136 87 258 50 438 -16 82
-34 125 -133 320 -177 349 -192 409 -161 647 23 180 22 229 -6 319 -12 38 -24
110 -27 159 -6 103 0 130 82 384 66 204 90 297 109 428 26 171 55 546 81 1063
29 579 33 631 85 1062 58 476 66 595 51 785 -14 188 -34 292 -100 521 -70 243
-85 342 -78 516 4 106 15 182 41 306 113 533 116 557 116 862 -1 331 -18 782
-35 903 -21 159 -20 205 8 246 29 44 216 184 287 216 30 13 65 36 77 51 l23
27 0 -31 c0 -17 9 -43 20 -56 l19 -25 -27 -25 c-15 -13 -60 -48 -99 -78 -125
-93 -176 -176 -177 -291 -1 -81 14 -102 87 -124 106 -31 193 -16 365 66 223
105 408 241 492 361 94 133 121 252 126 558 3 153 8 216 20 250 34 96 73 313
90 490 18 194 16 510 -6 1005 -5 116 -9 341 -10 500 0 348 -12 675 -41 1125
-31 486 -20 914 33 1325 31 238 31 580 0 815 -37 275 -65 406 -171 807 -48
179 -53 251 -35 443 19 197 11 269 -40 377 -71 145 -198 230 -490 324 -306 99
-419 150 -751 339 -223 127 -317 187 -420 268 -194 154 -286 256 -366 407 -23
44 -59 105 -79 135 -65 99 -83 153 -88 272 -2 58 -2 122 2 140 3 19 42 85 87
149 139 196 212 365 267 617 40 186 43 245 24 444 l-13 126 41 95 c28 65 40
109 40 141 0 53 -9 74 -55 131 -42 53 -67 104 -94 194 -41 136 -106 206 -242
260 -63 25 -107 65 -138 128 -26 53 -86 94 -193 134 -58 21 -95 42 -123 69
-53 52 -92 66 -203 75 -87 7 -95 9 -135 43 -59 49 -96 62 -179 62 -53 -1 -98
-9 -163 -30z m-4199 -5732 c101 -110 127 -158 159 -290 13 -58 29 -118 35
-133 6 -16 24 -94 40 -175 36 -181 65 -275 146 -465 81 -190 212 -428 361
-654 107 -163 128 -188 286 -345 198 -197 233 -218 352 -219 53 0 82 5 108 19
87 47 318 349 501 657 51 85 62 97 86 97 15 0 33 -6 39 -14 17 -21 30 -291 31
-631 0 -223 6 -358 25 -580 14 -160 25 -353 25 -431 l0 -141 -132 -129 c-73
-71 -161 -153 -195 -181 -124 -103 -273 -173 -367 -173 -38 0 -48 5 -76 36
-39 45 -67 107 -88 199 -21 92 -23 561 -3 827 17 216 14 228 -52 258 -54 25
-158 26 -208 2 -22 -10 -61 -48 -98 -93 -33 -42 -90 -104 -127 -139 l-67 -62
-26 74 c-50 141 -124 230 -218 262 -60 21 -203 21 -271 1 -72 -22 -152 -98
-194 -183 -30 -61 -33 -76 -33 -158 0 -82 3 -94 28 -132 63 -97 183 -145 359
-146 l108 -1 0 -86 c0 -249 -117 -618 -239 -751 -61 -67 -133 -108 -158 -92
-36 22 -74 93 -128 236 -135 359 -185 660 -163 981 4 73 6 141 3 153 -14 62
-217 70 -273 11 -25 -27 -39 -85 -57 -237 -15 -121 -76 -332 -157 -535 -45
-113 -126 -275 -138 -275 -4 0 -10 17 -14 38 -9 58 -7 384 4 528 32 414 31
494 -6 521 -32 23 -96 35 -151 28 -56 -7 -70 -15 -235 -141 -94 -72 -186 -130
-193 -122 -2 2 -11 39 -20 83 -20 98 -113 383 -151 460 -32 65 -126 179 -205
248 -141 125 -249 170 -404 171 -87 0 -113 -5 -200 -33 -174 -58 -268 -126
-364 -266 -87 -126 -167 -324 -208 -515 -25 -119 -25 -420 1 -538 23 -110 65
-231 110 -319 20 -40 34 -73 32 -73 -18 0 -333 282 -340 305 -4 11 -9 85 -12
165 -5 109 -2 170 10 245 9 55 23 179 32 275 35 413 135 940 299 1575 58 222
65 261 65 345 l0 95 36 -55 c54 -83 145 -171 297 -287 158 -121 258 -218 325
-317 99 -147 259 -332 423 -491 139 -134 198 -180 309 -239 230 -122 397 -128
509 -18 45 44 55 64 140 279 92 236 137 378 168 532 14 71 17 135 15 356 -4
482 27 622 194 882 32 50 67 106 77 124 l18 33 67 -74 c37 -41 103 -114 148
-162z m-2078 -2019 c87 -43 165 -132 234 -266 88 -170 141 -339 156 -493 l8
-80 -32 0 c-50 0 -216 45 -275 75 -146 74 -277 191 -324 290 -66 139 -34 369
66 476 37 39 86 39 167 -2z m2522 -651 c32 -69 73 -215 64 -229 -3 -5 -23 -9
-44 -9 -29 0 -48 7 -72 29 -28 24 -32 36 -36 90 -3 44 1 75 13 109 17 45 33
72 42 72 2 0 17 -28 33 -62z m-6161 -220 c38 -235 70 -478 86 -675 9 -101 2
-127 -139 -492 -130 -334 -219 -610 -294 -911 l-9 -35 -6 55 c-39 317 -35 864
9 1205 30 238 68 387 194 765 49 146 92 282 95 303 4 20 11 37 15 37 4 0 26
-114 49 -252z m3391 9 c130 -71 326 -126 518 -145 51 -5 95 -12 98 -15 7 -7
-40 -161 -77 -249 -39 -94 -140 -263 -197 -328 -98 -113 -198 -117 -310 -16
-141 129 -242 367 -272 641 -11 102 -13 208 -4 253 l6 30 87 -68 c47 -37 115
-84 151 -103z m1208 -109 c-72 -304 -93 -575 -54 -703 38 -127 90 -201 170
-243 47 -25 60 -27 171 -27 111 0 124 2 170 27 82 43 148 124 225 278 l32 64
38 -106 c46 -128 108 -251 156 -306 22 -26 63 -55 112 -79 l76 -38 145 0 c167
0 213 13 324 89 148 101 230 257 324 616 32 121 36 152 40 303 3 92 9 167 13
167 4 0 32 16 60 35 29 20 54 34 56 32 2 -1 -1 -57 -6 -122 -26 -327 -1 -567
71 -712 57 -113 138 -178 274 -219 89 -28 310 -26 425 3 166 42 320 122 440
230 l52 46 -7 -74 c-14 -171 -27 -295 -50 -474 -24 -195 -40 -371 -51 -577
l-6 -116 -171 -160 c-406 -378 -536 -472 -677 -489 -123 -14 -243 137 -257
322 l-5 70 68 25 c85 32 202 108 249 163 135 155 128 357 -13 419 -38 17 -61
20 -146 16 -84 -3 -109 -8 -151 -30 -133 -70 -239 -242 -311 -505 -2 -7 -15
-13 -29 -13 -30 0 -31 10 -5 78 50 132 47 279 -8 343 -37 45 -79 59 -174 59
-94 0 -157 -23 -238 -87 -93 -74 -131 -137 -131 -218 0 -98 49 -162 168 -217
l63 -30 -17 -30 c-42 -70 -175 -240 -183 -232 -5 5 -32 63 -60 129 -90 208
-226 456 -284 518 -37 40 -85 57 -160 57 -83 0 -111 -11 -168 -67 l-47 -46
-11 28 c-19 51 -100 163 -140 195 -78 62 -144 84 -264 88 -65 3 -132 -1 -165
-8 -138 -30 -281 -144 -317 -252 -9 -29 -18 -87 -19 -128 -1 -68 -5 -83 -49
-170 -68 -135 -147 -250 -212 -309 -86 -78 -88 -79 -124 -26 -39 56 -72 131
-100 223 l-22 71 60 78 c99 129 179 260 258 418 100 200 127 284 128 400 1 97
-11 133 -62 188 -73 77 -276 74 -411 -6 -247 -148 -414 -643 -345 -1023 9 -49
17 -95 18 -103 2 -19 -143 -96 -218 -115 -33 -9 -60 -15 -60 -13 -1 1 -29 83
-63 182 -33 99 -90 261 -126 360 -69 190 -95 298 -152 627 -33 193 -65 438
-58 438 2 0 28 -18 57 -39 135 -100 308 -182 469 -222 115 -29 334 -37 444
-16 156 30 274 92 384 201 160 158 287 413 328 655 l17 104 60 21 c43 16 181
85 210 105 1 1 -12 -54 -28 -121z m-668 -1150 c52 -115 -6 -305 -170 -557 -94
-145 -99 -149 -93 -69 19 250 103 515 198 626 20 23 39 42 41 42 3 0 14 -19
24 -42z m819 -543 c79 -74 141 -215 141 -320 0 -37 -4 -43 -49 -73 -55 -35
-88 -50 -141 -63 -97 -23 -200 106 -200 251 0 90 52 187 125 232 46 28 71 23
124 -27z m2131 -48 c0 -57 -14 -103 -46 -149 -27 -38 -103 -102 -112 -93 -13
12 71 205 115 263 30 40 43 34 43 -21z m-710 -60 c0 -63 -43 -207 -61 -207
-30 0 -50 111 -30 163 13 34 71 98 82 91 5 -3 9 -24 9 -47z m-830 -216 c22
-44 67 -146 101 -228 121 -294 180 -381 277 -409 67 -20 156 -14 210 13 41 21
162 173 265 335 l62 97 60 1 60 0 13 -77 c24 -155 119 -291 246 -353 170 -84
423 -80 611 10 94 44 179 113 396 320 l156 149 6 -167 c4 -92 14 -279 23 -415
9 -136 14 -253 11 -261 -6 -14 -149 -41 -274 -52 l-83 -7 0 110 c0 131 -3 135
-94 141 -68 4 -113 -9 -123 -35 -3 -10 -23 -64 -45 -120 l-40 -103 -86 -1
c-177 -2 -255 -25 -232 -69 14 -26 62 -40 162 -47 49 -3 88 -8 88 -10 0 -3
-25 -44 -56 -91 l-56 -86 -22 38 c-39 72 -101 140 -148 164 -161 83 -407 -15
-447 -177 -5 -20 -18 -76 -30 -126 -19 -79 -101 -275 -116 -275 -3 0 -4 75 -3
168 2 148 0 171 -17 207 -25 50 -69 75 -143 82 -118 11 -211 -39 -264 -140
l-22 -42 -13 85 c-17 109 -32 125 -113 125 -40 0 -64 -5 -75 -15 -9 -10 -25
-72 -40 -155 -28 -158 -49 -244 -69 -283 l-14 -27 -6 45 c-3 25 -7 102 -10
172 -5 137 -14 169 -58 201 -38 29 -135 35 -192 13 -55 -21 -78 -46 -126 -136
l-38 -73 -17 79 c-22 98 -39 132 -71 144 -34 13 -88 12 -118 -2 -28 -12 -36
-36 -110 -298 -42 -148 -75 -232 -90 -227 -6 2 -19 26 -28 53 -13 38 -17 85
-18 216 0 161 -1 167 -22 183 -13 8 -28 30 -34 47 -19 58 -53 73 -162 73 -106
0 -143 -13 -226 -78 -104 -82 -225 -282 -248 -410 -10 -51 -18 -72 -33 -80
-11 -5 -43 -28 -71 -49 -28 -21 -56 -38 -62 -38 -18 0 -69 76 -92 136 -26 71
-26 167 0 270 21 83 83 219 123 268 l23 29 41 -24 c35 -20 44 -22 67 -11 24
11 27 17 24 54 -3 39 -7 45 -48 68 -39 22 -57 25 -140 25 -84 0 -102 -3 -152
-28 -101 -49 -203 -185 -254 -337 -13 -39 -19 -83 -19 -155 1 -88 4 -107 28
-159 15 -32 43 -81 62 -107 19 -27 32 -49 29 -49 -23 0 -151 80 -205 130 l-66
59 -6 418 c-6 409 -15 594 -41 780 -14 105 -19 96 68 108 27 4 86 20 130 36
45 17 88 32 97 35 11 4 28 -14 58 -60 54 -82 117 -140 189 -174 51 -24 69 -27
167 -27 103 0 114 2 179 33 49 23 90 53 144 107 41 42 75 74 76 73 24 -61 84
-154 127 -198 94 -95 208 -137 354 -127 165 10 262 76 343 233 50 98 107 264
122 358 10 64 15 73 72 137 33 38 65 69 69 69 5 0 27 -36 49 -79z m-685 -266
c61 0 127 4 149 8 38 8 39 8 32 -20 -14 -58 -105 -229 -140 -263 l-36 -34 -46
44 c-44 44 -124 188 -138 253 -7 28 -6 28 31 20 21 -4 88 -8 148 -8z m3179
-1017 l-6 -183 -46 -60 c-56 -72 -213 -262 -270 -325 l-40 -45 -13 30 c-19 47
-23 202 -10 415 6 107 14 218 17 246 l5 51 92 7 c51 4 130 15 177 25 47 10 88
19 92 20 5 0 5 -81 2 -181z m-1094 15 c43 -48 90 -149 93 -198 2 -36 0 -39
-46 -63 -44 -23 -50 -24 -83 -11 -72 28 -115 111 -100 194 7 38 69 115 91 115
7 0 28 -17 45 -37z m448 -310 c-2 -192 0 -213 21 -277 18 -55 34 -80 75 -122
62 -61 109 -78 203 -72 84 5 125 35 238 175 49 62 91 110 94 108 6 -7 18 -202
36 -570 17 -363 34 -570 65 -780 11 -76 17 -142 13 -145 -54 -47 -506 -353
-688 -467 -218 -135 -338 -188 -533 -237 -209 -53 -371 -59 -464 -18 -26 12
-67 39 -92 62 -44 41 -95 136 -79 150 4 4 35 15 68 25 132 37 344 159 403 231
55 67 62 148 17 211 -41 58 -166 103 -290 103 -152 0 -293 -52 -394 -146 -94
-87 -147 -185 -165 -306 l-7 -46 -82 -11 c-104 -14 -248 -31 -262 -31 -6 0
-19 25 -29 55 -21 67 -80 156 -126 190 -116 87 -305 95 -456 20 -76 -37 -196
-140 -265 -228 l-38 -48 -10 39 c-6 21 -22 87 -35 147 l-25 109 21 14 c58 41
143 119 196 180 150 175 209 337 219 607 6 156 -7 236 -52 324 -45 90 -100
115 -239 109 -69 -3 -102 -10 -136 -27 -189 -97 -316 -341 -350 -676 -12 -114
-9 -315 6 -445 l6 -56 -118 -56 c-66 -31 -162 -72 -214 -91 -103 -38 -383
-127 -388 -123 -4 5 -42 286 -63 465 -11 96 -39 264 -64 375 -56 255 -90 578
-80 759 4 64 10 117 13 117 3 0 35 -12 71 -26 105 -42 230 -64 371 -64 112 0
134 3 208 29 46 16 101 41 124 56 l40 27 22 -21 c74 -69 247 -87 350 -37 50
25 91 62 114 102 7 13 14 12 46 -7 46 -27 160 -37 223 -20 54 15 106 68 129
132 l18 49 32 -68 c27 -60 36 -71 73 -85 23 -10 59 -17 82 -17 40 0 102 20
112 37 3 5 15 65 26 134 27 169 36 190 45 114 7 -66 36 -138 69 -173 36 -39
72 -52 142 -52 90 0 140 29 178 104 l15 28 17 -32 c28 -55 117 -76 190 -46 27
12 36 23 45 58 36 142 64 226 94 286 l35 67 -5 -190 c-6 -185 -5 -191 18 -234
35 -67 66 -85 153 -89 93 -5 136 9 178 59 l34 39 32 -49 c66 -103 136 -141
261 -141 94 0 140 16 199 66 81 68 161 246 161 358 0 47 4 56 36 87 19 18 52
55 72 82 20 26 37 47 39 47 1 0 2 -93 1 -207z m-2853 26 c-10 -118 -15 -144
-44 -205 -17 -38 -44 -86 -59 -108 l-27 -39 -12 29 c-7 16 -12 41 -13 55 0 43
38 180 71 249 29 62 89 164 94 158 1 -2 -3 -64 -10 -139z m2493 -104 c1 -1 -7
-27 -18 -57 -21 -57 -94 -168 -110 -168 -25 0 -100 162 -100 214 0 20 4 21
112 18 62 -2 114 -5 116 -7z m-2248 -761 c33 -107 21 -299 -27 -449 -24 -77
-88 -193 -145 -264 -63 -79 -66 -74 -67 84 -1 213 32 400 97 539 36 76 93 156
113 156 4 0 17 -30 29 -66z m1753 -942 c10 -9 17 -29 17 -48 0 -26 -9 -40 -44
-71 -44 -38 -173 -116 -213 -128 -21 -6 -21 -4 -11 32 27 98 88 181 160 217
51 26 58 25 91 -2z m1646 -737 c6 -231 16 -478 21 -550 12 -152 13 -647 2
-787 -4 -53 -4 -94 0 -91 5 2 8 -14 8 -36 0 -46 -10 -54 -85 -71 -82 -18 -99
15 -121 233 -22 226 -42 278 -117 306 -40 16 -142 14 -182 -3 -42 -18 -90 -82
-112 -152 -9 -30 -20 -54 -23 -54 -4 0 -10 24 -13 53 -8 64 -24 77 -97 77 -72
0 -83 -12 -105 -115 -39 -178 -131 -417 -190 -491 l-23 -29 -26 24 c-14 14
-26 31 -26 39 0 8 21 38 48 67 58 64 106 143 132 218 59 166 -23 317 -171 317
-101 0 -163 -41 -213 -140 l-35 -71 -6 38 c-17 98 -55 150 -129 173 -49 16
-141 8 -192 -16 -52 -24 -131 -106 -176 -185 -22 -37 -38 -55 -38 -44 0 11 21
52 46 90 120 186 234 520 221 654 -10 111 -61 172 -161 193 -140 30 -268 -56
-312 -208 -29 -101 -35 -162 -41 -441 -5 -234 -8 -285 -21 -295 -12 -11 -18
-9 -31 12 -56 86 -125 127 -225 137 -125 11 -228 -35 -271 -121 -14 -28 -25
-67 -25 -89 0 -44 -66 -238 -116 -342 l-34 -70 5 70 c7 92 55 328 100 489 19
70 35 136 35 147 0 39 -94 62 -155 39 -15 -6 -48 -28 -74 -50 -26 -22 -50 -40
-53 -40 -3 0 -8 21 -12 46 -7 55 -37 112 -74 139 -41 31 -175 34 -230 6 -102
-52 -174 -238 -122 -319 23 -37 107 -82 153 -82 l28 0 -33 -46 c-45 -63 -110
-119 -174 -149 -29 -14 -57 -25 -62 -25 -5 0 -12 48 -15 108 -6 130 -27 198
-79 257 -29 33 -53 49 -91 60 -149 44 -274 -17 -356 -173 l-38 -73 -16 94 -17
94 44 94 c78 167 91 223 91 389 0 143 0 146 -32 210 -17 36 -48 81 -68 100
-33 32 -41 35 -108 38 -68 4 -76 2 -105 -23 -102 -86 -122 -280 -63 -620 17
-99 31 -188 31 -198 0 -10 -24 -53 -52 -95 l-53 -75 -7 39 c-4 21 -21 160 -38
309 -17 148 -40 319 -50 380 -10 60 -24 188 -30 282 -9 151 -32 359 -59 533
-5 30 -8 56 -6 58 1 2 88 25 191 52 191 49 375 109 480 155 31 14 59 23 61 21
2 -2 26 -100 53 -217 27 -116 55 -228 61 -248 22 -67 63 -97 153 -107 54 -7
56 -8 62 -43 29 -151 156 -250 344 -267 163 -15 304 40 434 170 118 118 176
247 176 393 0 35 3 63 8 63 4 0 79 9 166 20 88 11 165 20 170 20 6 0 20 -21
30 -47 45 -109 195 -216 372 -263 284 -77 794 -1 1133 169 110 55 380 234 581
384 l125 93 7 -86 c4 -47 12 -274 17 -505z m-2965 486 c24 -32 72 -158 65
-166 -2 -2 -58 -15 -124 -30 -66 -15 -156 -40 -199 -56 -44 -16 -81 -27 -83
-26 -5 6 58 100 113 168 62 78 169 163 190 151 7 -4 25 -23 38 -41z m76 -349
c0 -47 -29 -142 -62 -203 -53 -100 -194 -227 -236 -212 -29 10 -74 56 -88 90
-20 47 -17 120 6 169 31 64 108 107 280 160 97 30 100 29 100 -4z m1095 -690
c-1 -74 -6 -104 -38 -195 -56 -164 -59 -164 -54 13 5 159 19 233 55 273 26 30
37 3 37 -91z m-2344 -20 c14 -68 6 -165 -19 -248 l-18 -59 -12 78 c-13 85 -16
229 -5 291 l6 39 18 -22 c10 -12 23 -47 30 -79z m968 -532 c1 -52 -16 -120
-29 -120 -34 0 -37 108 -4 172 15 30 18 31 25 13 4 -11 8 -40 8 -65z m1619
-147 c-5 -80 -35 -175 -66 -212 -15 -18 -23 -19 -55 -12 -21 5 -41 11 -43 14
-8 7 45 139 73 182 44 68 74 105 85 105 7 0 9 -26 6 -77z m478 -6 c-7 -48 -54
-152 -55 -123 -1 10 9 59 20 109 17 71 24 86 31 73 6 -10 7 -37 4 -59z m665
-121 c27 -183 107 -256 284 -256 50 0 105 4 124 10 l34 9 -6 -97 c-41 -643
-28 -1101 44 -1567 11 -71 22 -165 23 -208 l2 -78 -130 -147 c-166 -186 -294
-321 -374 -394 -228 -207 -536 -370 -781 -412 -146 -25 -446 -20 -580 10 -22
5 -20 9 41 72 35 37 80 90 99 117 211 294 431 952 433 1295 1 136 -17 206 -74
282 -50 66 -103 104 -179 128 -115 36 -242 24 -370 -37 -126 -60 -258 -211
-370 -424 l-48 -89 -32 40 c-40 50 -186 172 -284 238 -176 119 -310 165 -482
166 -192 1 -292 -50 -356 -180 -30 -60 -34 -79 -37 -166 -7 -159 31 -278 161
-517 245 -447 492 -733 772 -892 45 -26 70 -45 61 -47 -56 -12 -556 145 -801
251 -199 85 -531 243 -681 323 l-122 64 -31 112 c-17 62 -44 191 -61 287 -17
95 -44 235 -61 310 -45 202 -86 404 -103 506 -24 144 -61 563 -76 846 -5 101
-14 204 -20 228 l-11 44 53 57 c58 63 68 69 68 41 0 -27 70 -302 83 -326 6
-11 10 -54 8 -95 -2 -89 23 -151 78 -187 80 -53 217 -57 315 -9 99 49 203 207
246 372 10 41 11 41 65 48 70 8 170 45 234 85 67 44 160 144 196 213 24 47 56
78 80 78 2 0 -11 -44 -29 -98 -83 -245 -103 -432 -58 -519 31 -60 80 -83 173
-83 90 0 145 24 191 83 17 23 32 43 33 45 1 1 20 -15 42 -36 21 -21 58 -43 80
-50 63 -19 191 -15 238 7 104 48 173 178 201 376 l7 50 13 -88 c15 -97 48
-227 70 -269 20 -39 46 -49 120 -49 90 0 111 15 118 83 3 29 9 87 13 128 l8
75 40 -4 c30 -2 51 -13 83 -43 86 -79 221 -116 326 -89 41 10 48 9 82 -14 49
-33 95 -45 180 -45 132 0 192 55 269 246 l42 105 33 -87 c39 -100 58 -116 131
-116 79 0 84 10 97 177 6 77 18 172 29 210 l18 70 3 -50 c1 -27 7 -81 13 -119z
m-3356 92 c15 -52 20 -199 9 -255 -6 -29 -9 -31 -72 -37 -37 -3 -79 -9 -93
-12 l-27 -6 9 46 c28 152 117 341 150 320 5 -3 15 -28 24 -56z m1415 -70 c28
-66 24 -90 -18 -102 -28 -8 -36 -6 -55 13 -18 18 -22 33 -22 85 0 39 5 69 14
80 13 15 16 15 37 -5 12 -11 32 -43 44 -71z m999 -242 c11 -32 11 -40 0 -47
-27 -17 -56 -9 -98 27 l-42 36 46 49 c25 26 51 61 58 76 11 26 12 24 18 -37 3
-36 11 -82 18 -104z m-975 -13 c-14 -61 -45 -139 -70 -176 -21 -31 -28 -36
-40 -27 -20 17 -54 134 -54 186 l0 44 85 0 85 0 -6 -27z m-1469 -105 c-13 -42
-95 -193 -121 -222 -32 -36 -44 -23 -44 45 0 66 44 148 95 176 54 30 79 30 70
1z m3988 -2330 c35 -256 41 -367 27 -523 -6 -71 -15 -186 -19 -255 -5 -69 -19
-167 -31 -219 -27 -115 -24 -225 10 -320 51 -145 23 -219 -165 -424 -80 -86
-142 -145 -168 -158 -88 -45 -205 -130 -273 -201 -102 -104 -234 -314 -234
-370 0 -10 -2 -18 -5 -18 -3 0 -31 20 -62 44 -36 28 -229 128 -513 266 -250
122 -556 273 -680 336 -124 62 -273 133 -332 157 -135 56 -233 112 -351 200
-199 150 -403 348 -567 551 -49 61 -86 93 -164 145 -248 163 -346 263 -510
525 -31 49 -56 93 -56 97 0 4 91 -37 203 -90 329 -160 612 -262 942 -341 274
-66 534 -77 678 -31 59 19 75 21 120 12 196 -40 550 -54 778 -31 241 24 442
96 702 249 225 133 335 235 617 573 8 10 17 18 20 18 4 0 18 -87 33 -192z"/>
<path d="M22568 9449 c-28 -16 -21 -37 15 -47 68 -19 144 14 102 44 -22 16
-92 18 -117 3z"/>
</g>
</svg>
