<?xml version="1.0" encoding="utf-8"?>
<!-- Generator: Adobe Illustrator 25.0.1, SVG Export Plug-In . SVG Version: 6.00 Build 0)  -->
<svg version="1.1" id="Layer_1" xmlns="http://www.w3.org/2000/svg" xmlns:xlink="http://www.w3.org/1999/xlink" x="0px" y="0px"
	 viewBox="0 0 2400 2400" style="enable-background:new 0 0 2400 2400;" xml:space="preserve">
<g>
	<path transform="translate(0.000000,2400.000000) scale(0.100000,-0.100000)" d="M11533,21810c-104-23-165-47-228-90
		c-56-39-72-44-212-76c-203-45-539-168-644-235c-58-37-131-113-157-165c-11-21-28-66-38-99c-20-65-43-91-173-204
		c-56-49-80-78-98-120c-88-202-132-276-224-376c-97-106-143-167-159-211c-6-15-17-74-24-131c-12-89-20-118-60-196
		c-26-52-46-106-46-124c0-50,38-139,71-168c58-48,116-26,142,55c13,38,17,42,24,25c4-11,8-67,7-125c0-91-5-118-32-199
		c-18-51-32-108-32-125c0-76,105-210,270-347c165-136,187-169,220-334c12-60,31-134,43-164c40-109,129-238,264-387
		c72-80,73-82,48-88c-35-9-103,11-145,41c-19,15-79,71-134,125c-82,82-112,105-182,139c-68,33-96,54-142,106c-71,81-108,102-255,147
		c-73,23-187,71-297,126c-263,130-297,134-491,51c-94-40-99-41-211-41c-126,0-153-6-234-55c-30-18-78-38-107-45c-29-6-74-16-101-22
		c-65-14-94-44-286-298c-180-239-202-263-375-396c-244-190-330-302-444-579c-22-55-83-184-134-286c-138-272-151-350-91-519
		c26-74,26-76,15-205c-19-221-22-310-26-620c-3-296-3-302-33-415c-33-130-59-199-145-385c-196-426-244-614-272-1060
		c-5-83-3-116,15-195c17-72,21-120,19-200c-8-278-8-275,31-315c19-20,77-62,128-92c51-31,103-69,117-84c32-38,39-97,25-194
		c-22-150-23-172-5-244c20-81,14-111-38-189c-216-320-320-555-334-749c-7-92,2-113,46-113c47,0,100,75,153,217
		c44,119,127,217,227,268l51,25v-27c0-16-16-78-35-138c-46-144-52-200-26-242c30-48,67-51,147-14c37,17,68,31,70,31
		c9,0,3-132-10-207c-8-45-20-137-26-205c-16-174-57-446-85-558c-13-52-39-156-58-230c-84-327-72-507,55-785c30-66,63-142,73-170
		c18-50,41-77,105-125c28-22,32-30,26-54c-4-15-38-61-76-101c-39-41-70-78-70-82c0-18,25-33,54-33c32,0,93,33,174,93
		c29,22,54,38,56,36s-39-65-90-139c-99-140-116-176-93-191c60-38,182,33,271,158l33,45l2-113c3-136,7-155,33-169c30-16,60-3,75,33
		c20,49,52,191,71,320l18,118l60-59c70-67,122-108,187-145c51-30,67-33,93-14c16,12,15,17-13,77c-95,212-93,311,16,563l30,68l26-88
		c38-126,45-163,53-296c6-102,9-119,26-128c56-30,87,13,135,191c14,52,27,96,29,98c1,2,21-8,44-23c57-36,99-42,129-18
		c33,27,39,79,23,213c-14,127-7,204,28,285c18,42,22,45,41,35c40-22,68-4,100,63l30,62l-3-355c-3-323-1-358,14-382
		c23-35,50-42,87-24c36,19,70,68,146,206c31,58,59,107,61,109s19-10,39-28c38-33,87-41,126-20c16,8,26,7,44-5c31-21,59-20,81,1
		c20,20,16,88-16,284c-29,182-31,175,34,182c29,3,63,11,75,19c26,16,41,65,41,140v56l43,7c83,12,136,27,148,41c19,23,4,88-34,151
		c-61,102-71,148-64,299c6,117,2,177-18,259c-3,11,4,0,16-25c11-25,36-103,55-175c21-80,47-151,67-184c66-110,283-281,357-281
		c59,0,67,23,40,111c-11,39-39,112-61,162c-78,176-174,436-165,445c3,2,49-63,104-145s197-278,316-437s230-318,248-353
		c28-56,32-75,31-141c0-47-11-118-27-182c-46-187-52-254-32-369c32-181,95-371,209-626c58-127,58-145,3-450c-8-44-20-150-27-236
		c-11-139-10-170,6-290c11-81,17-183,16-259c-2-154,0-158,144-275l100-81l-1-70c0-56-7-87-38-164c-79-196-115-402-123-695
		c-8-279,6-356,120-666c42-113,63-217,77-385c15-183,28-210,177-372c48-53,111-124,138-156l50-59l-3-211c-2-116-10-377-18-581
		c-19-515-18-677,6-817c36-209,87-325,191-429c72-73,167-126,274-153c113-28,472-72,880-106c132-11,281-24,330-30
		c363-39,1082-48,1515-17c257,18,599,36,1135,62c492,23,597,33,1225,112c358,45,371,46,655,47c160,0,349-2,420-4l130-5l107,52
		c59,28,128,55,155,58c26,4,73,13,103,20s91,16,135,19c240,20,418,105,488,235c64,117,69,232,31,686c-24,285-25,337-20,652
		c9,460,18,602,70,1098c49,458,43,984-15,1397c-20,144-20,152-4,325c26,282,31,601,10,768c-31,259-86,504-176,781
		c-28,87-75,253-105,369c-50,196-59,221-139,383c-93,186-149,340-164,444c-10,69-4,144,25,313c20,123,23,467,5,663
		c-8,95-11,407-10,1085c2,1174-12,1461-97,2042c-57,387-98,576-255,1178c-120,460-208,758-294,1002c-312,880-526,1189-1073,1549
		c-241,158-305,194-772,429c-239,120-451,230-470,244s-109,100-200,192c-239,241-262,249-549,202c-30-5-68-5-84,0
		c-120,34-443,320-554,491c-55,83-61,97-139,303c-31,83-72,190-91,239s-54,166-79,258c-47,182-107,333-200,501
		c-120,218-213,340-374,492c-175,165-186,181-232,302c-41,110-91,168-216,248c-41,25-108,82-149,126c-55,58-94,88-142,112
		c-62,30-71,32-151,28c-204-9-207-9-330,38c-107,42-122,45-225,48C11654,21829,11601,21824,11533,21810z M12998,16836
		c42-38,86-124,101-194c15-71,13-228-4-457c-22-275-30-818-16-1075c19-353,62-666,126-915c49-191,205-675,307-955
		c137-375,161-462,162-595c1-83-4-124-18-165c-39-117-153-323-262-475c-47-66-140-162-149-153c-9,8-31,136-70,398
		c-45,305-63,379-125,505c-56,115-105,182-225,312c-98,105-188,180-400,330c-136,96-484,358-690,519c-98,77-253,234-330,334
		c-130,171-199,229-366,309c-99,47-135,71-172,110c-58,62-60,89-18,223c16,51,32,104,36,118c3,14,10,117,15,230
		c12,287,36,356,202,564c93,117,329,471,369,553c11,24,23,43,25,43c3,0,30-13,62-29c126-63,298-68,457-11c219,78,578,304,805,509
		l55,49l45-25C12945,16879,12980,16853,12998,16836z M15556,14456c11-8,55-26,99-41c104-34,172-74,245-142c147-136,242-352,243-553
		c1-228-115-445-279-526c-54-27-68-29-170-29c-108,0-112,1-188,39c-177,87-302,271-337,497c-16,104-6,304,21,404
		c40,150,127,292,204,332C15461,14472,15523,14479,15556,14456z M14737,14276c95-25,166-85,203-169c26-57,21-77-18-77
		c-23,0-41,14-90,69c-138,155-261,151-385-12c-65-85-94-226-63-302c20-46,64-66,226-103c165-37,232-61,310-113
		c146-98,240-267,240-433c0-97-22-155-82-221c-111-122-293-163-454-103c-115,42-284,189-284,247c0,37,40,71,84,71c45,0,61-13,47-38
		c-9-17-6-26,15-52c33-38,157-123,230-157c47-21,57-23,93-12c60,18,131,77,160,133c66,128,16,328-112,456c-72,72-164,114-332,151
		c-161,36-235,68-279,122c-30,38-31,42-31,136c0,92,2,101,37,172C14349,14237,14539,14329,14737,14276z M12097,12629
		c475-151,680-523,495-898c-44-90-131-187-199-221c-39-21-62-25-130-25c-79,0-84,1-112,30c-32,33-266,492-355,696
		c-64,148-116,299-116,338c0,46,28,90,63,100c18,5,83,10,144,10C11987,12660,12011,12656,12097,12629z M16481,12592
		c25-16,59-47,76-69c40-49,95-160,119-236l18-58l30,58c16,32,51,107,77,167c27,60,56,117,64,126c23,25,97,42,129,30
		c34-13,40-39,76-345c81-683,163-954,323-1072c66-49,93-25,166,144c102,235,187,516,216,713c17,112,33,140,79,140c38,0,42-14,34-127
		c-11-184-70-424-162-666c-81-212-126-270-235-301c-144-40-245,2-339,144c-104,155-179,449-227,890c-25,235-19,223-67,132
		c-22-42-60-105-85-139l-44-63l11-122c29-333-47-670-185-817c-78-83-190-127-307-120l-56,4l-35-70c-71-142-156-204-291-213
		c-87-5-127,12-198,85c-68,71-130,173-234,387c-121,250-118,246-134,165c-20-104-24-541-7-694c19-166,12-185-73-204
		c-56-13-97,4-135,53c-16,20-31,33-35,29c-3-4-14-35-24-68c-45-149-226-225-371-156c-65,31-203,170-277,280l-57,83l6-103
		c7-124-10-295-38-385c-28-89-82-146-164-169c-114-33-213-16-338,59l-56,34l-12-36c-7-21-32-84-56-142l-45-105l51-160
		c139-437,146-789,17-958c-46-60-140-106-231-113c-60-5-76-2-115,18c-51,26-107,95-134,165c-11,30-20,85-23,148
		c-9,182,44,371,192,684l84,180l-57,146l-58,147l-12-86c-25-192-103-272-262-270c-102,2-234,96-314,226l-40,63l-38-115
		c-22-63-64-174-94-247l-55-132l25-78c84-268,74-462-31-574c-71-76-199-112-311-88c-74,15-183,91-279,193l-79,83l23-116
		c31-150,35-323,9-398c-29-87-85-119-202-117c-202,5-475,356-659,847c-10,26-21,46-25,45c-4-2-44-44-89-95c-87-97-131-135-168-147
		c-26-8-63,1-63,14c0,5,55,67,121,137c67,70,132,142,144,158l23,30l-70,208c-80,237-88,294-48,314c54,26,62,15,146-193
		c44-107,81-194,84-194s49,52,104,115c110,129,202,205,247,205c16,0,29-5,29-11s-32-41-70-77c-39-37-117-125-174-196l-103-130
		l49-120c77-190,193-422,266-531c70-106,205-251,259-279l32-16l13,38c20,58,15,238-11,372c-12,63-49,221-81,350s-61,265-65,301
		c-19,182,66,388,186,449c54,28,159,41,228,29c119-22,274-130,386-269c33-41,64-76,69-78c16-6,130,286,166,426c16,62,21,116,23,239
		c2,149,3,161,30,217c55,117,231,254,350,271c33,5,61,3,90-8c23-8,54-18,68-21c23-5,37-29,111-193c47-104,125-286,174-405
		c49-120,92-218,95-218c9,0,69,165,69,187c0,9-18,40-40,68c-164,212-236,432-228,690c4,135,21,199,66,248c67,74,221,87,281,23l22-23
		l32,30c18,16,83,66,145,110c103,72,113,83,109,106c-3,14-23,105-46,201c-51,219-51,227-6,246c42,17,89,18,102,2c5-7,29-93,52-190
		c24-98,45-178,47-178c10,0,244,161,244,168c0,4-7,43-16,87s-17,133-18,197c-1,103,1,120,20,145c46,63,143,82,205,40
		c56-37,135-153,217-317c139-275,208-544,243-945c11-120,14-133,42-172c17-24,32-43,35-43c2,0,2,53,0,118c-7,156,7,448,26,544
		c25,128,56,168,150,189c104,23,143-18,272-288c126-263,223-411,295-448c27-14,30-14,64,16c42,37,75,91,106,172l22,57l-62,56
		c-142,129-255,350-282,553c-21,155,3,284,63,339c32,29,122,54,170,46c103-16,203-129,260-294c52-151,63-452,22-616
		c-5-18,0-26,25-38c16-9,48-16,71-16c35,0,47,6,84,44c78,77,139,237,165,429c6,43,11,150,11,237v158l-47-14c-68-20-149-18-199,6
		c-130,63-224,268-196,429c29,168,97,238,233,240C16425,12620,16445,12614,16481,12592z M11386,12522c16-10,139-249,280-546
		c68-143,169-345,225-450c55-105,103-202,106-217c7-36-18-49-91-49c-54,0-58,2-203,106c-81,59-240,177-353,263
		c-196,149-332,250-356,264c-12,7,134-273,286-548c131-236,165-312,150-330c-21-25-60-18-94,19c-88,94-563,922-574,998
		c-4,34-2,39,22,48c38,14,91,13,130-4c57-24,228-143,530-370c158-119,290-216,293-216c2,0-18,42-45,93c-112,207-388,810-408,891
		c-5,22-3,32,11,43C11315,12531,11368,12534,11386,12522z M10363,12027c68-29,155-146,495-665c175-267,292-456,292-473s-48-32-84-25
		c-32,6-48,23-143,150l-107,143l-95-60c-53-33-119-71-148-84c-29-14-53-29-53-36c0-6,23-107,50-225c56-235,56-242-7-242
		c-32,0-36,3-62,63c-84,185-152,461-256,1041c-54,302-62,370-47,392C10221,12040,10305,12051,10363,12027z M17456,9848
		c57-62,113-150,289-453c86-148,163-275,171-281s14-18,14-27c0-8,52-108,116-221c63-114,126-231,139-261l24-54l-22-16
		c-12-8-38-15-58-15c-32,0-43,7-78,46c-22,25-90,135-152,245c-61,109-115,199-119,199c-13,0-344-112-352-119c-4-3-2-122,4-263
		c13-292,13-291-56-286c-37,3-42,6-53,39c-18,55-42,283-53,499c-11,226-13,960-2,976c15,22,48,33,98,34
		C17414,9890,17420,9887,17456,9848z M16569,9526c17-20-7-34-164-92c-71-26-132-49-134-50c-2-2,29-76,69-165
		c167-375,312-772,360-987c14-62,6-78-45-88c-68-12-93,25-167,256c-22,69-100,294-173,500s-136,391-140,412l-7,36l-86-29
		c-119-40-208-37-172,6c17,21,165,80,375,151C16477,9540,16547,9552,16569,9526z M15563,9188c41-42,240-610,377-1075l21-72l64,39
		c121,74,222,120,264,120c86,0,57-39-104-141c-159-101-220-129-283-130c-36-1-59,3-69,14c-9,8-46,121-83,250
		c-38,129-103,346-145,483c-85,276-136,479-128,501c5,13,35,31,56,32C15537,9210,15551,9200,15563,9188z M15263,9088
		c30-23,397-1164,397-1235c0-21-36-43-71-43c-56,0-96,93-249,578c-115,365-159,528-167,624c-6,64-5,68,18,77
		C15224,9102,15243,9102,15263,9088z M14966,8972c17-11,177-374,237-537c148-402,188-627,130-742c-28-57-63-77-142-81
		c-57-3-75,0-117,21c-143,73-341,378-473,728c-86,230-112,377-72,399c54,28,77,7,115-105c83-241,238-569,345-732
		c62-93,167-213,188-213c24,0,31,108,13,217c-16,95-72,281-135,448c-104,275-195,536-195,560c0,13,8,29,18,34
		C14898,8981,14950,8983,14966,8972z M7427,8908c-3-7-5-2-5,12s2,19,5,13C7429,8926,7429,8914,7427,8908z M14352,8712
		c25-11,58-36,74-58c26-34,29-45,29-113c0-64-5-86-32-143c-17-37-50-87-73-112c-47-51-49-48,49-64c189-32,351-187,368-353
		c15-144-94-346-222-412c-28-14-65-22-120-24c-105-5-132,10-168,98c-54,129-227,642-282,835c-40,140-63,204-77,215
		c-20,16-20,16,8,43C14009,8721,14233,8765,14352,8712z M13350,8440c26-14,32-41,90-360c28-151,66-349,85-440
		c36-167,105-565,105-605c0-46-97-58-120-15c-15,28-96,367-135,565c-20,99-39,171-46,174c-38,12-362,336-458,458c-38,48-36,73,6,73
		c39,0,179-113,327-264c65-66,116-112,113-101c-13,41-48,394-45,446c3,46,7,55,28,66C13330,8452,13327,8452,13350,8440z M12755,8170
		c6-10-23-30-168-114c-54-32-100-63-103-70c-6-15,37-153,103-333l45-122l66,33c37,18,84,39,105,45c41,14,97,6,97-13
		c0-11-107-77-197-121l-41-20l49-125c82-207,151-351,164-346c7,2,63,36,126,75c62,39,127,74,145,77c41,8,76,2,81-13
		c4-12-147-131-271-212c-77-50-142-70-185-56c-46,14-258,511-391,916c-57,174-61,209-26,244c25,25,120,76,246,131
		C12673,8179,12743,8190,12755,8170z M11719,7871c8-5,11-16,8-24c-6-17-146-114-239-166c-32-18-58-36-58-40c0-5,31-75,69-157
		c104-225,172-405,299-784c63-190,124-355,134-367c36-40-7-79-78-71c-25,3-34,13-66,78c-45,92-173,436-278,745
		c-95,279-171,499-176,504c-2,2-18-6-36-17s-97-52-176-92c-107-54-149-70-168-66c-56,14-13,59,131,138c55,31,172,99,260,153
		c174,106,307,175,339,175C11696,7880,11711,7876,11719,7871z M12229,7528c155-316,401-858,401-885c0-6-16-17-35-23
		c-68-23-76-13-225,285c-74,149-136,272-137,274c-4,7-80-49-139-103l-58-53l105-258c57-143,112-266,122-274c40-36,10-74-54-69
		c-38,3-47,8-71,45c-68,101-318,686-414,968c-44,131-45,137-28,156c25,27,49,24,74-11c20-28,103-196,193-393l36-78l48,37
		c26,20,72,50,101,66c28,17,52,32,52,35c0,2-25,61-56,131c-109,247-174,410-174,439c0,38,16,53,57,53h34L12229,7528z M15243,7197
		c74-45,145-180,182-347c23-103,31-425,15-573c-14-130-42-281-69-367c-10-33-16-60-11-60c4,0,58,26,121,58c129,64,223,125,321,206
		l66,55l-11,43c-6,24-11,115-11,203c-1,141,2,169,23,235c29,94,43,121,89,172c42,47,123,87,193,95c63,7,130-24,153-71
		c59-124-34-372-219-591l-57-67l45-92c80-160,182-241,344-273c119-23,173-13,277,50c182,111,318,240,386,368c17,32,42,67,57,79
		c28,22,68,27,79,9c3-6-15-53-40-105c-74-148-224-294-431-419c-176-106-396-116-585-27c-71,33-176,138-224,224l-37,66l-77-55
		c-119-85-256-161-371-205c-23-8-20-11,51-42c113-49,162-80,240-154c113-107,201-246,233-369c18-68,20-196,4-244
		c-31-91-119-149-228-149c-182,0-402,241-536,587l-28,73l-55-60c-67-75-123-114-207-145c-118-45-226-31-321,41
		c-63,48-148,184-209,333l-22,53l-7-133c-20-387-101-588-269-665c-51-23-76-29-137-29c-66,0-84,4-144,34c-88,43-185,138-261,254
		l-57,88l-52-93c-61-110-150-242-240-354c-141-175-351-333-380-285c-4,5,20,33,51,63c178,166,348,396,466,633c96,192,92,168,46,290
		c-109,289-179,732-149,944c26,188,93,271,220,271c114,0,201-88,245-245c22-82,31-314,16-445c-18-157-56-334-101-472l-41-123l37-73
		c116-236,283-402,405-402c33,0,47,6,72,33c60,64,112,210,139,390c7,50,12,210,12,411l1,329l30,19c35,21,78,24,92,6
		c6-7,36-87,68-178c73-207,150-379,210-470c89-134,191-188,274-146c39,21,150,143,188,207l32,54l-39,139c-153,538-202,1069-119,1290
		c23,62,59,102,113,127C15149,7226,15197,7225,15243,7197z M14373,6688c36-42,22-218-24-310c-25-49-79-89-129-95
		c-101-14-290,140-290,236c0,31,39,61,77,61c37,0,80-19,131-57l32-24v22c0,68,57,160,114,185C14321,6721,14348,6716,14373,6688z
		 M17456,4655c19-15,19-15-3-34c-12-10-70-30-129-45c-58-15-119-33-135-41c-36-19-44-58-35-173c11-147,59-426,76-446
		c5-4,61,1,127,13c139,25,173,26,199,7c32-24,7-36-152-72c-81-19-150-37-152-39c-5-4,122-517,153-623c13-44,19-52,33-47
		c73,30,318,105,341,105c34,0,63-24,55-45c-7-16-100-62-278-137c-100-42-129-50-186-51c-98-1-111,10-144,130
		c-51,182-166,641-196,782c-57,270-81,493-61,568c21,78,104,119,301,147C17398,4673,17433,4673,17456,4655z M17966,4630
		c43-11,122-41,174-67c79-39,109-61,180-132c136-137,206-279,231-468c35-261-51-490-255-681c-87-81-129-102-205-102
		c-81,0-106,22-132,115c-129,457-240,972-255,1183c-4,57-12,93-22,105c-20,22-7,48,29,58C17761,4655,17888,4650,17966,4630z
		 M16660,4530c11-11,20-24,20-28c0-5,7-55,14-113c25-176,45-421,66-786c23-397,25-532,9-566c-14-32-49-47-105-47
		c-94,0-116,28-273,340c-145,290-352,788-383,919c-6,27-8,56-5,65c9,24,52,37,82,26s49-48,240-466c79-171,168-360,199-420l55-109v50
		c1,28-5,163-13,300c-8,138-17,354-21,480c-3,127-8,253-11,281c-5,44-3,55,15,73C16577,4557,16633,4557,16660,4530z M14029,4251
		c19-36,43-354,81-1056c11-209,25-402,31-429c10-44,10-51-7-63c-24-17-84-17-110,2c-33,22-52,148-93,604l-20,214l-44,46
		c-148,154-357,430-357,472c0,20,20,29,63,29c27,0,44-12,102-74c39-41,104-120,145-175s77-100,80-101c3,0,5,114,6,253
		c0,174,4,259,12,274C13937,4281,14012,4284,14029,4251z M15683,4265c79-21,131-49,189-103c96-90,179-245,230-433
		c31-112,31-305,0-420c-42-155-113-260-204-299c-44-19-65-22-133-18c-99,6-161,33-228,101c-164,162-245,633-164,948
		c30,117,48,151,99,201c36,35,44,38,97,38C15600,4280,15652,4273,15683,4265z M14746,4195c26-40,43-108,89-365
		c141-775,158-859,175-850c54,29,288,100,329,100c58,0,80-13,65-37c-16-27-73-56-244-125c-173-69-252-83-308-54c-37,19-34,7-107,441
		c-74,439-126,861-112,899c5,11,20,16,51,16C14721,4220,14732,4216,14746,4195z M13379,4091c26-17,3-38-99-86c-56-27-106-57-111-66
		c-15-28-11-89,15-215c37-182,57-254,71-254c6,0,38,9,69,20c80,27,148,35,176,20c30-16,13-32-60-55c-62-20-170-72-170-82
		c0-9,152-547,156-552c2-2,43,11,91,29c103,38,185,46,191,17s-17-48-128-101c-97-47-111-51-192-54c-80-4-89-2-110,20
		c-18,17-45,96-110,328c-140,491-188,700-188,817c0,55,4,66,30,96C13070,4042,13327,4124,13379,4091z M12493,4068c9-7,13-18,9-24
		s-61-35-127-64c-97-42-392-185-403-195c-1-1,29-67,67-146c90-186,224-521,291-724c29-88,59-167,66-176c8-8,14-28,14-43
		c0-58-101-61-143-3c-23,30-84,167-157,352c-18,44-77,213-132,375s-103,298-107,303c-4,4-43-9-87-29c-133-61-252-104-286-104
		c-42,0-63,13-55,35c7,17,446,236,682,340C12360,4069,12455,4096,12493,4068z M12680,3910c11-6,35-53,58-112c22-57,70-182,108-278
		c37-96,76-182,86-190c12-10,17-22,13-33c-4-9,33-127,89-282c53-146,96-272,96-279c0-30-85-36-119-8c-12,9-66,122-126,262
		c-66,155-109,244-117,242c-39-9-151-58-154-67c-4-10,75-239,146-423c18-47,40-87,51-92c27-15,26-66-2-81c-25-13-93-6-114,11
		c-41,34-261,562-333,800c-49,159-82,294-82,332c0,32,30,53,66,44c31-8,48-43,145-295c44-113,81-206,82-207s40,11,87,27
		c51,17,84,34,83,41s-17,57-37,111c-42,114-99,307-118,397c-12,58-11,63,7,76C12617,3922,12654,3924,12680,3910z M15415,14278
		c-72-149-102-308-91-484c8-125,26-198,72-292c64-131,213-262,297-262c101,0,225,153,272,335c64,249-76,595-291,721
		c-53,31-166,74-194,74C15466,14370,15449,14346,15415,14278z M11818,12583c-16-2-28-7-28-10c0-39,452-958,490-997
		c16-16,115,96,154,174c106,216,78,430-77,597c-103,110-235,185-402,228C11897,12590,11872,12591,11818,12583z M16337,12523
		c-3-5-12-32-21-62c-33-112-13-237,55-343c59-92,126-121,178-77c24,20,24,21,11,87c-29,145-93,293-158,361
		C16364,12529,16346,12538,16337,12523z M14515,11999c19-208,85-421,205-664c92-186,173-318,165-270c-46,289-74,409-132,564
		c-43,115-120,272-178,362C14514,12086,14507,12087,14515,11999z M15881,11923c-15-52-13-173,3-263c23-127,106-307,184-399l29-35
		l7,85c13,163-23,389-79,499c-26,51-109,150-126,150C15895,11960,15886,11943,15881,11923z M14365,11569c-27-21-80-60-117-85l-66-46
		l14-49c100-336,208-568,362-776c105-140,227-245,268-229c25,9,62,106,73,189c20,142,19,143-65,264c-157,223-287,461-363,665
		c-21,56-43,103-47,105C14419,11608,14393,11591,14365,11569z M13931,11269c-70-49-115-73-142-76c-21-3-39-7-39-10c0-2,11-25,24-51
		c65-129,94-312,76-480c-9-92-47-300-66-368c-11-41,172-171,267-189c32-6,39-3,58,21c69,87,88,379,45,687c-26,188-100,537-114,537
		C14037,11340,13988,11308,13931,11269z M13523,11168c-15-28-18-58-17-203c0-155,3-178,27-260c28-95,114-276,133-282
		c17-6,44,189,44,320c0,125-28,264-70,348c-22,44-77,109-92,109C13544,11200,13533,11185,13523,11168z M12972,10780
		c-49-30-127-111-150-157c-108-211,24-633,240-769c49-31,64-30,81,4c45,87,51,256,18,473c-26,174-34,209-79,351
		C13041,10812,13035,10818,12972,10780z M11835,9947c-104-105-130-359-54-516c59-119,137-174,249-175c54-1,77,4,132,32
		c74,36,109,71,163,164c34,57,36,65,26,98c-6,20-37,77-70,126c-97,147-254,279-360,303C11877,9989,11876,9988,11835,9947z
		 M13476,9532c-128-288-175-530-131-678c20-67,68-140,105-159c29-15,33-15,63,2c93,55,132,290,91,561c-15,106-65,318-81,346
		C13517,9616,13505,9597,13476,9532z M12371,9299c-80-71-188-112-333-125l-78-7l33-41c58-74,186-195,239-226c65-37,106-38,142-5
		c45,41,69,110,74,206c4,81-12,224-26,233C12418,9336,12395,9320,12371,9299z M10370,11826c0-31,125-745,131-750c2-2,66,30,141,71
		l136,74l-152,232C10450,11720,10370,11837,10370,11826z M17420,9312c0-183,2-332,4-332s48,16,102,36c55,20,122,43,149,51
		c28,8,54,18,58,22c6,6-287,528-309,550C17422,9641,17420,9494,17420,9312z M14170,8653c-24-7-160-65-160-68c0-1,15-35,34-76
		c18-41,48-113,67-161c18-49,36-88,39-88c18,0,94,97,118,148c58,127,33,223-63,245C14194,8656,14178,8656,14170,8653z M14190,8153
		c0-3,35-97,78-207c43-111,96-250,118-310c21-60,45-111,52-114c18-7,85,60,115,117c63,116,70,216,23,310c-50,97-115,152-221,184
		C14298,8150,14190,8164,14190,8153z M15105,7098c-46-115-42-397,10-700c25-139,101-470,114-496c4-7,17,29,29,80
		c72,303,81,692,21,909c-33,120-110,249-149,249C15126,7140,15114,7121,15105,7098z M16078,6813c-63-72-99-246-83-408l7-78l23,29
		c41,50,109,176,132,244c29,85,30,168,2,204C16135,6834,16100,6838,16078,6813z M13406,6665c-61-62-58-342,8-667
		c32-155,87-344,96-326c12,22,49,196,64,303c52,360,13,600-109,683C13428,6684,13426,6684,13406,6665z M15296,5704
		c-7-19,81-259,137-369c58-117,131-221,207-296c68-67,149-115,176-105c51,20,57,184,11,308c-73,199-246,380-433,451
		C15313,5724,15304,5725,15296,5704z M17840,4547c0-6,29-141,65-301c71-318,227-901,241-900c19,1,121,135,152,198
		c166,340,26,795-293,952C17920,4538,17840,4563,17840,4547z M15579,4153c-50-129-67-423-35-600c38-214,95-351,173-424
		c58-53,78-49,125,21c61,91,90,194,95,340c4,110,2,136-20,220c-53,202-149,369-251,438C15607,4187,15593,4188,15579,4153z"/>
</g>
</svg>
