<?xml version="1.0" standalone="no"?>
<!DOCTYPE svg PUBLIC "-//W3C//DTD SVG 20010904//EN"
 "http://www.w3.org/TR/2001/REC-SVG-20010904/DTD/svg10.dtd">
<svg version="1.0" xmlns="http://www.w3.org/2000/svg"
 width="2400.000000pt" height="2400.000000pt" viewBox="0 0 2400.000000 2400.000000"
 preserveAspectRatio="xMidYMid meet">

<g transform="translate(0.000000,2400.000000) scale(0.100000,-0.100000)"
fill="#000000" stroke="none">
<path d="M11533 21810 c-104 -23 -165 -47 -228 -90 -56 -39 -72 -44 -212 -76
-203 -45 -539 -168 -644 -235 -58 -37 -131 -113 -157 -165 -11 -21 -28 -66
-38 -99 -20 -65 -43 -91 -173 -204 -56 -49 -80 -78 -98 -120 -88 -202 -132
-276 -224 -376 -97 -106 -143 -167 -159 -211 -6 -15 -17 -74 -24 -131 -12 -89
-20 -118 -60 -196 -26 -52 -46 -106 -46 -124 0 -50 38 -139 71 -168 58 -48
116 -26 142 55 13 38 17 42 24 25 4 -11 8 -67 7 -125 0 -91 -5 -118 -32 -199
-18 -51 -32 -108 -32 -125 0 -76 105 -210 270 -347 165 -136 187 -169 220
-334 12 -60 31 -134 43 -164 40 -109 129 -238 264 -387 72 -80 73 -82 48 -88
-35 -9 -103 11 -145 41 -19 15 -79 71 -134 125 -82 82 -112 105 -182 139 -68
33 -96 54 -142 106 -71 81 -108 102 -255 147 -73 23 -187 71 -297 126 -263
130 -297 134 -491 51 -94 -40 -99 -41 -211 -41 -126 0 -153 -6 -234 -55 -30
-18 -78 -38 -107 -45 -29 -6 -74 -16 -101 -22 -65 -14 -94 -44 -286 -298 -180
-239 -202 -263 -375 -396 -244 -190 -330 -302 -444 -579 -22 -55 -83 -184
-134 -286 -138 -272 -151 -350 -91 -519 26 -74 26 -76 15 -205 -19 -221 -22
-310 -26 -620 -3 -296 -3 -302 -33 -415 -33 -130 -59 -199 -145 -385 -196
-426 -244 -614 -272 -1060 -5 -83 -3 -116 15 -195 17 -72 21 -120 19 -200 -8
-278 -8 -275 31 -315 19 -20 77 -62 128 -92 51 -31 103 -69 117 -84 32 -38 39
-97 25 -194 -22 -150 -23 -172 -5 -244 20 -81 14 -111 -38 -189 -216 -320
-320 -555 -334 -749 -7 -92 2 -113 46 -113 47 0 100 75 153 217 44 119 127
217 227 268 l51 25 0 -27 c0 -16 -16 -78 -35 -138 -46 -144 -52 -200 -26 -242
30 -48 67 -51 147 -14 37 17 68 31 70 31 9 0 3 -132 -10 -207 -8 -45 -20 -137
-26 -205 -16 -174 -57 -446 -85 -558 -13 -52 -39 -156 -58 -230 -84 -327 -72
-507 55 -785 30 -66 63 -142 73 -170 18 -50 41 -77 105 -125 28 -22 32 -30 26
-54 -4 -15 -38 -61 -76 -101 -39 -41 -70 -78 -70 -82 0 -18 25 -33 54 -33 32
0 93 33 174 93 29 22 54 38 56 36 2 -2 -39 -65 -90 -139 -99 -140 -116 -176
-93 -191 60 -38 182 33 271 158 l33 45 2 -113 c3 -136 7 -155 33 -169 30 -16
60 -3 75 33 20 49 52 191 71 320 l18 118 60 -59 c70 -67 122 -108 187 -145 51
-30 67 -33 93 -14 16 12 15 17 -13 77 -95 212 -93 311 16 563 l30 68 26 -88
c38 -126 45 -163 53 -296 6 -102 9 -119 26 -128 56 -30 87 13 135 191 14 52
27 96 29 98 1 2 21 -8 44 -23 57 -36 99 -42 129 -18 33 27 39 79 23 213 -14
127 -7 204 28 285 18 42 22 45 41 35 40 -22 68 -4 100 63 l30 62 -3 -355 c-3
-323 -1 -358 14 -382 23 -35 50 -42 87 -24 36 19 70 68 146 206 31 58 59 107
61 109 2 2 19 -10 39 -28 38 -33 87 -41 126 -20 16 8 26 7 44 -5 31 -21 59
-20 81 1 20 20 16 88 -16 284 -29 182 -31 175 34 182 29 3 63 11 75 19 26 16
41 65 41 140 l0 56 43 7 c83 12 136 27 148 41 19 23 4 88 -34 151 -61 102 -71
148 -64 299 6 117 2 177 -18 259 -3 11 4 0 16 -25 11 -25 36 -103 55 -175 21
-80 47 -151 67 -184 66 -110 283 -281 357 -281 59 0 67 23 40 111 -11 39 -39
112 -61 162 -78 176 -174 436 -165 445 3 2 49 -63 104 -145 55 -82 197 -278
316 -437 119 -159 230 -318 248 -353 28 -56 32 -75 31 -141 0 -47 -11 -118
-27 -182 -46 -187 -52 -254 -32 -369 32 -181 95 -371 209 -626 58 -127 58
-145 3 -450 -8 -44 -20 -150 -27 -236 -11 -139 -10 -170 6 -290 11 -81 17
-183 16 -259 -2 -154 0 -158 144 -275 l100 -81 -1 -70 c0 -56 -7 -87 -38 -164
-79 -196 -115 -402 -123 -695 -8 -279 6 -356 120 -666 42 -113 63 -217 77
-385 15 -183 28 -210 177 -372 48 -53 111 -124 138 -156 l50 -59 -3 -211 c-2
-116 -10 -377 -18 -581 -19 -515 -18 -677 6 -817 36 -209 87 -325 191 -429 72
-73 167 -126 274 -153 113 -28 472 -72 880 -106 132 -11 281 -24 330 -30 363
-39 1082 -48 1515 -17 257 18 599 36 1135 62 492 23 597 33 1225 112 358 45
371 46 655 47 160 0 349 -2 420 -4 l130 -5 107 52 c59 28 128 55 155 58 26 4
73 13 103 20 30 7 91 16 135 19 240 20 418 105 488 235 64 117 69 232 31 686
-24 285 -25 337 -20 652 9 460 18 602 70 1098 49 458 43 984 -15 1397 -20 144
-20 152 -4 325 26 282 31 601 10 768 -31 259 -86 504 -176 781 -28 87 -75 253
-105 369 -50 196 -59 221 -139 383 -93 186 -149 340 -164 444 -10 69 -4 144
25 313 20 123 23 467 5 663 -8 95 -11 407 -10 1085 2 1174 -12 1461 -97 2042
-57 387 -98 576 -255 1178 -120 460 -208 758 -294 1002 -312 880 -526 1189
-1073 1549 -241 158 -305 194 -772 429 -239 120 -451 230 -470 244 -19 14
-109 100 -200 192 -239 241 -262 249 -549 202 -30 -5 -68 -5 -84 0 -120 34
-443 320 -554 491 -55 83 -61 97 -139 303 -31 83 -72 190 -91 239 -19 49 -54
166 -79 258 -47 182 -107 333 -200 501 -120 218 -213 340 -374 492 -175 165
-186 181 -232 302 -41 110 -91 168 -216 248 -41 25 -108 82 -149 126 -55 58
-94 88 -142 112 -62 30 -71 32 -151 28 -204 -9 -207 -9 -330 38 -107 42 -122
45 -225 48 -81 2 -134 -3 -202 -17z m1465 -4974 c42 -38 86 -124 101 -194 15
-71 13 -228 -4 -457 -22 -275 -30 -818 -16 -1075 19 -353 62 -666 126 -915 49
-191 205 -675 307 -955 137 -375 161 -462 162 -595 1 -83 -4 -124 -18 -165
-39 -117 -153 -323 -262 -475 -47 -66 -140 -162 -149 -153 -9 8 -31 136 -70
398 -45 305 -63 379 -125 505 -56 115 -105 182 -225 312 -98 105 -188 180
-400 330 -136 96 -484 358 -690 519 -98 77 -253 234 -330 334 -130 171 -199
229 -366 309 -99 47 -135 71 -172 110 -58 62 -60 89 -18 223 16 51 32 104 36
118 3 14 10 117 15 230 12 287 36 356 202 564 93 117 329 471 369 553 11 24
23 43 25 43 3 0 30 -13 62 -29 126 -63 298 -68 457 -11 219 78 578 304 805
509 l55 49 45 -25 c25 -14 60 -40 78 -57z m2558 -2380 c11 -8 55 -26 99 -41
104 -34 172 -74 245 -142 147 -136 242 -352 243 -553 1 -228 -115 -445 -279
-526 -54 -27 -68 -29 -170 -29 -108 0 -112 1 -188 39 -177 87 -302 271 -337
497 -16 104 -6 304 21 404 40 150 127 292 204 332 67 35 129 42 162 19z m-819
-180 c95 -25 166 -85 203 -169 26 -57 21 -77 -18 -77 -23 0 -41 14 -90 69
-138 155 -261 151 -385 -12 -65 -85 -94 -226 -63 -302 20 -46 64 -66 226 -103
165 -37 232 -61 310 -113 146 -98 240 -267 240 -433 0 -97 -22 -155 -82 -221
-111 -122 -293 -163 -454 -103 -115 42 -284 189 -284 247 0 37 40 71 84 71 45
0 61 -13 47 -38 -9 -17 -6 -26 15 -52 33 -38 157 -123 230 -157 47 -21 57 -23
93 -12 60 18 131 77 160 133 66 128 16 328 -112 456 -72 72 -164 114 -332 151
-161 36 -235 68 -279 122 -30 38 -31 42 -31 136 0 92 2 101 37 172 97 196 287
288 485 235z m-2640 -1647 c475 -151 680 -523 495 -898 -44 -90 -131 -187
-199 -221 -39 -21 -62 -25 -130 -25 -79 0 -84 1 -112 30 -32 33 -266 492 -355
696 -64 148 -116 299 -116 338 0 46 28 90 63 100 18 5 83 10 144 10 100 1 124
-3 210 -30z m4384 -37 c25 -16 59 -47 76 -69 40 -49 95 -160 119 -236 l18 -58
30 58 c16 32 51 107 77 167 27 60 56 117 64 126 23 25 97 42 129 30 34 -13 40
-39 76 -345 81 -683 163 -954 323 -1072 66 -49 93 -25 166 144 102 235 187
516 216 713 17 112 33 140 79 140 38 0 42 -14 34 -127 -11 -184 -70 -424 -162
-666 -81 -212 -126 -270 -235 -301 -144 -40 -245 2 -339 144 -104 155 -179
449 -227 890 -25 235 -19 223 -67 132 -22 -42 -60 -105 -85 -139 l-44 -63 11
-122 c29 -333 -47 -670 -185 -817 -78 -83 -190 -127 -307 -120 l-56 4 -35 -70
c-71 -142 -156 -204 -291 -213 -87 -5 -127 12 -198 85 -68 71 -130 173 -234
387 -121 250 -118 246 -134 165 -20 -104 -24 -541 -7 -694 19 -166 12 -185
-73 -204 -56 -13 -97 4 -135 53 -16 20 -31 33 -35 29 -3 -4 -14 -35 -24 -68
-45 -149 -226 -225 -371 -156 -65 31 -203 170 -277 280 l-57 83 6 -103 c7
-124 -10 -295 -38 -385 -28 -89 -82 -146 -164 -169 -114 -33 -213 -16 -338 59
l-56 34 -12 -36 c-7 -21 -32 -84 -56 -142 l-45 -105 51 -160 c139 -437 146
-789 17 -958 -46 -60 -140 -106 -231 -113 -60 -5 -76 -2 -115 18 -51 26 -107
95 -134 165 -11 30 -20 85 -23 148 -9 182 44 371 192 684 l84 180 -57 146 -58
147 -12 -86 c-25 -192 -103 -272 -262 -270 -102 2 -234 96 -314 226 l-40 63
-38 -115 c-22 -63 -64 -174 -94 -247 l-55 -132 25 -78 c84 -268 74 -462 -31
-574 -71 -76 -199 -112 -311 -88 -74 15 -183 91 -279 193 l-79 83 23 -116 c31
-150 35 -323 9 -398 -29 -87 -85 -119 -202 -117 -202 5 -475 356 -659 847 -10
26 -21 46 -25 45 -4 -2 -44 -44 -89 -95 -87 -97 -131 -135 -168 -147 -26 -8
-63 1 -63 14 0 5 55 67 121 137 67 70 132 142 144 158 l23 30 -70 208 c-80
237 -88 294 -48 314 54 26 62 15 146 -193 44 -107 81 -194 84 -194 3 0 49 52
104 115 110 129 202 205 247 205 16 0 29 -5 29 -11 0 -6 -32 -41 -70 -77 -39
-37 -117 -125 -174 -196 l-103 -130 49 -120 c77 -190 193 -422 266 -531 70
-106 205 -251 259 -279 l32 -16 13 38 c20 58 15 238 -11 372 -12 63 -49 221
-81 350 -32 129 -61 265 -65 301 -19 182 66 388 186 449 54 28 159 41 228 29
119 -22 274 -130 386 -269 33 -41 64 -76 69 -78 16 -6 130 286 166 426 16 62
21 116 23 239 2 149 3 161 30 217 55 117 231 254 350 271 33 5 61 3 90 -8 23
-8 54 -18 68 -21 23 -5 37 -29 111 -193 47 -104 125 -286 174 -405 49 -120 92
-218 95 -218 9 0 69 165 69 187 0 9 -18 40 -40 68 -164 212 -236 432 -228 690
4 135 21 199 66 248 67 74 221 87 281 23 l22 -23 32 30 c18 16 83 66 145 110
103 72 113 83 109 106 -3 14 -23 105 -46 201 -51 219 -51 227 -6 246 42 17 89
18 102 2 5 -7 29 -93 52 -190 24 -98 45 -178 47 -178 10 0 244 161 244 168 0
4 -7 43 -16 87 -9 44 -17 133 -18 197 -1 103 1 120 20 145 46 63 143 82 205
40 56 -37 135 -153 217 -317 139 -275 208 -544 243 -945 11 -120 14 -133 42
-172 17 -24 32 -43 35 -43 2 0 2 53 0 118 -7 156 7 448 26 544 25 128 56 168
150 189 104 23 143 -18 272 -288 126 -263 223 -411 295 -448 27 -14 30 -14 64
16 42 37 75 91 106 172 l22 57 -62 56 c-142 129 -255 350 -282 553 -21 155 3
284 63 339 32 29 122 54 170 46 103 -16 203 -129 260 -294 52 -151 63 -452 22
-616 -5 -18 0 -26 25 -38 16 -9 48 -16 71 -16 35 0 47 6 84 44 78 77 139 237
165 429 6 43 11 150 11 237 l0 158 -47 -14 c-68 -20 -149 -18 -199 6 -130 63
-224 268 -196 429 29 168 97 238 233 240 44 1 64 -5 100 -27z m-5095 -70 c16
-10 139 -249 280 -546 68 -143 169 -345 225 -450 55 -105 103 -202 106 -217 7
-36 -18 -49 -91 -49 -54 0 -58 2 -203 106 -81 59 -240 177 -353 263 -196 149
-332 250 -356 264 -12 7 134 -273 286 -548 131 -236 165 -312 150 -330 -21
-25 -60 -18 -94 19 -88 94 -563 922 -574 998 -4 34 -2 39 22 48 38 14 91 13
130 -4 57 -24 228 -143 530 -370 158 -119 290 -216 293 -216 2 0 -18 42 -45
93 -112 207 -388 810 -408 891 -5 22 -3 32 11 43 20 14 73 17 91 5z m-1023
-495 c68 -29 155 -146 495 -665 175 -267 292 -456 292 -473 0 -17 -48 -32 -84
-25 -32 6 -48 23 -143 150 l-107 143 -95 -60 c-53 -33 -119 -71 -148 -84 -29
-14 -53 -29 -53 -36 0 -6 23 -107 50 -225 56 -235 56 -242 -7 -242 -32 0 -36
3 -62 63 -84 185 -152 461 -256 1041 -54 302 -62 370 -47 392 23 34 107 45
165 21z m7093 -2179 c57 -62 113 -150 289 -453 86 -148 163 -275 171 -281 8
-6 14 -18 14 -27 0 -8 52 -108 116 -221 63 -114 126 -231 139 -261 l24 -54
-22 -16 c-12 -8 -38 -15 -58 -15 -32 0 -43 7 -78 46 -22 25 -90 135 -152 245
-61 109 -115 199 -119 199 -13 0 -344 -112 -352 -119 -4 -3 -2 -122 4 -263 13
-292 13 -291 -56 -286 -37 3 -42 6 -53 39 -18 55 -42 283 -53 499 -11 226 -13
960 -2 976 15 22 48 33 98 34 48 0 54 -3 90 -42z m-887 -322 c17 -20 -7 -34
-164 -92 -71 -26 -132 -49 -134 -50 -2 -2 29 -76 69 -165 167 -375 312 -772
360 -987 14 -62 6 -78 -45 -88 -68 -12 -93 25 -167 256 -22 69 -100 294 -173
500 -73 206 -136 391 -140 412 l-7 36 -86 -29 c-119 -40 -208 -37 -172 6 17
21 165 80 375 151 192 64 262 76 284 50z m-1006 -338 c41 -42 240 -610 377
-1075 l21 -72 64 39 c121 74 222 120 264 120 86 0 57 -39 -104 -141 -159 -101
-220 -129 -283 -130 -36 -1 -59 3 -69 14 -9 8 -46 121 -83 250 -38 129 -103
346 -145 483 -85 276 -136 479 -128 501 5 13 35 31 56 32 4 1 18 -9 30 -21z
m-300 -100 c30 -23 397 -1164 397 -1235 0 -21 -36 -43 -71 -43 -56 0 -96 93
-249 578 -115 365 -159 528 -167 624 -6 64 -5 68 18 77 33 13 52 13 72 -1z
m-297 -116 c17 -11 177 -374 237 -537 148 -402 188 -627 130 -742 -28 -57 -63
-77 -142 -81 -57 -3 -75 0 -117 21 -143 73 -341 378 -473 728 -86 230 -112
377 -72 399 54 28 77 7 115 -105 83 -241 238 -569 345 -732 62 -93 167 -213
188 -213 24 0 31 108 13 217 -16 95 -72 281 -135 448 -104 275 -195 536 -195
560 0 13 8 29 18 34 20 12 72 14 88 3z m-7539 -64 c-3 -7 -5 -2 -5 12 0 14 2
19 5 13 2 -7 2 -19 0 -25z m6925 -196 c25 -11 58 -36 74 -58 26 -34 29 -45 29
-113 0 -64 -5 -86 -32 -143 -17 -37 -50 -87 -73 -112 -47 -51 -49 -48 49 -64
189 -32 351 -187 368 -353 15 -144 -94 -346 -222 -412 -28 -14 -65 -22 -120
-24 -105 -5 -132 10 -168 98 -54 129 -227 642 -282 835 -40 140 -63 204 -77
215 -20 16 -20 16 8 43 103 97 327 141 446 88z m-1002 -272 c26 -14 32 -41 90
-360 28 -151 66 -349 85 -440 36 -167 105 -565 105 -605 0 -46 -97 -58 -120
-15 -15 28 -96 367 -135 565 -20 99 -39 171 -46 174 -38 12 -362 336 -458 458
-38 48 -36 73 6 73 39 0 179 -113 327 -264 65 -66 116 -112 113 -101 -13 41
-48 394 -45 446 3 46 7 55 28 66 30 15 27 15 50 3z m-595 -270 c6 -10 -23 -30
-168 -114 -54 -32 -100 -63 -103 -70 -6 -15 37 -153 103 -333 l45 -122 66 33
c37 18 84 39 105 45 41 14 97 6 97 -13 0 -11 -107 -77 -197 -121 l-41 -20 49
-125 c82 -207 151 -351 164 -346 7 2 63 36 126 75 62 39 127 74 145 77 41 8
76 2 81 -13 4 -12 -147 -131 -271 -212 -77 -50 -142 -70 -185 -56 -46 14 -258
511 -391 916 -57 174 -61 209 -26 244 25 25 120 76 246 131 73 33 143 44 155
24z m-1036 -299 c8 -5 11 -16 8 -24 -6 -17 -146 -114 -239 -166 -32 -18 -58
-36 -58 -40 0 -5 31 -75 69 -157 104 -225 172 -405 299 -784 63 -190 124 -355
134 -367 36 -40 -7 -79 -78 -71 -25 3 -34 13 -66 78 -45 92 -173 436 -278 745
-95 279 -171 499 -176 504 -2 2 -18 -6 -36 -17 -18 -11 -97 -52 -176 -92 -107
-54 -149 -70 -168 -66 -56 14 -13 59 131 138 55 31 172 99 260 153 174 106
307 175 339 175 12 0 27 -4 35 -9z m510 -343 c155 -316 401 -858 401 -885 0
-6 -16 -17 -35 -23 -68 -23 -76 -13 -225 285 -74 149 -136 272 -137 274 -4 7
-80 -49 -139 -103 l-58 -53 105 -258 c57 -143 112 -266 122 -274 40 -36 10
-74 -54 -69 -38 3 -47 8 -71 45 -68 101 -318 686 -414 968 -44 131 -45 137
-28 156 25 27 49 24 74 -11 20 -28 103 -196 193 -393 l36 -78 48 37 c26 20 72
50 101 66 28 17 52 32 52 35 0 2 -25 61 -56 131 -109 247 -174 410 -174 439 0
38 16 53 57 53 l34 0 168 -342z m3014 -331 c74 -45 145 -180 182 -347 23 -103
31 -425 15 -573 -14 -130 -42 -281 -69 -367 -10 -33 -16 -60 -11 -60 4 0 58
26 121 58 129 64 223 125 321 206 l66 55 -11 43 c-6 24 -11 115 -11 203 -1
141 2 169 23 235 29 94 43 121 89 172 42 47 123 87 193 95 63 7 130 -24 153
-71 59 -124 -34 -372 -219 -591 l-57 -67 45 -92 c80 -160 182 -241 344 -273
119 -23 173 -13 277 50 182 111 318 240 386 368 17 32 42 67 57 79 28 22 68
27 79 9 3 -6 -15 -53 -40 -105 -74 -148 -224 -294 -431 -419 -176 -106 -396
-116 -585 -27 -71 33 -176 138 -224 224 l-37 66 -77 -55 c-119 -85 -256 -161
-371 -205 -23 -8 -20 -11 51 -42 113 -49 162 -80 240 -154 113 -107 201 -246
233 -369 18 -68 20 -196 4 -244 -31 -91 -119 -149 -228 -149 -182 0 -402 241
-536 587 l-28 73 -55 -60 c-67 -75 -123 -114 -207 -145 -118 -45 -226 -31
-321 41 -63 48 -148 184 -209 333 l-22 53 -7 -133 c-20 -387 -101 -588 -269
-665 -51 -23 -76 -29 -137 -29 -66 0 -84 4 -144 34 -88 43 -185 138 -261 254
l-57 88 -52 -93 c-61 -110 -150 -242 -240 -354 -141 -175 -351 -333 -380 -285
-4 5 20 33 51 63 178 166 348 396 466 633 96 192 92 168 46 290 -109 289 -179
732 -149 944 26 188 93 271 220 271 114 0 201 -88 245 -245 22 -82 31 -314 16
-445 -18 -157 -56 -334 -101 -472 l-41 -123 37 -73 c116 -236 283 -402 405
-402 33 0 47 6 72 33 60 64 112 210 139 390 7 50 12 210 12 411 l1 329 30 19
c35 21 78 24 92 6 6 -7 36 -87 68 -178 73 -207 150 -379 210 -470 89 -134 191
-188 274 -146 39 21 150 143 188 207 l32 54 -39 139 c-153 538 -202 1069 -119
1290 23 62 59 102 113 127 55 25 103 24 149 -4z m-870 -509 c36 -42 22 -218
-24 -310 -25 -49 -79 -89 -129 -95 -101 -14 -290 140 -290 236 0 31 39 61 77
61 37 0 80 -19 131 -57 l32 -24 0 22 c0 68 57 160 114 185 37 15 64 10 89 -18z
m3083 -2033 c19 -15 19 -15 -3 -34 -12 -10 -70 -30 -129 -45 -58 -15 -119 -33
-135 -41 -36 -19 -44 -58 -35 -173 11 -147 59 -426 76 -446 5 -4 61 1 127 13
139 25 173 26 199 7 32 -24 7 -36 -152 -72 -81 -19 -150 -37 -152 -39 -5 -4
122 -517 153 -623 13 -44 19 -52 33 -47 73 30 318 105 341 105 34 0 63 -24 55
-45 -7 -16 -100 -62 -278 -137 -100 -42 -129 -50 -186 -51 -98 -1 -111 10
-144 130 -51 182 -166 641 -196 782 -57 270 -81 493 -61 568 21 78 104 119
301 147 128 19 163 19 186 1z m510 -25 c43 -11 122 -41 174 -67 79 -39 109
-61 180 -132 136 -137 206 -279 231 -468 35 -261 -51 -490 -255 -681 -87 -81
-129 -102 -205 -102 -81 0 -106 22 -132 115 -129 457 -240 972 -255 1183 -4
57 -12 93 -22 105 -20 22 -7 48 29 58 50 14 177 9 255 -11z m-1306 -100 c11
-11 20 -24 20 -28 0 -5 7 -55 14 -113 25 -176 45 -421 66 -786 23 -397 25
-532 9 -566 -14 -32 -49 -47 -105 -47 -94 0 -116 28 -273 340 -145 290 -352
788 -383 919 -6 27 -8 56 -5 65 9 24 52 37 82 26 30 -11 49 -48 240 -466 79
-171 168 -360 199 -420 l55 -109 0 50 c1 28 -5 163 -13 300 -8 138 -17 354
-21 480 -3 127 -8 253 -11 281 -5 44 -3 55 15 73 28 28 84 28 111 1z m-2631
-279 c19 -36 43 -354 81 -1056 11 -209 25 -402 31 -429 10 -44 10 -51 -7 -63
-24 -17 -84 -17 -110 2 -33 22 -52 148 -93 604 l-20 214 -44 46 c-148 154
-357 430 -357 472 0 20 20 29 63 29 27 0 44 -12 102 -74 39 -41 104 -120 145
-175 41 -55 77 -100 80 -101 3 0 5 114 6 253 0 174 4 259 12 274 19 34 94 37
111 4z m1654 14 c79 -21 131 -49 189 -103 96 -90 179 -245 230 -433 31 -112
31 -305 0 -420 -42 -155 -113 -260 -204 -299 -44 -19 -65 -22 -133 -18 -99 6
-161 33 -228 101 -164 162 -245 633 -164 948 30 117 48 151 99 201 36 35 44
38 97 38 31 0 83 -7 114 -15z m-937 -70 c26 -40 43 -108 89 -365 141 -775 158
-859 175 -850 54 29 288 100 329 100 58 0 80 -13 65 -37 -16 -27 -73 -56 -244
-125 -173 -69 -252 -83 -308 -54 -37 19 -34 7 -107 441 -74 439 -126 861 -112
899 5 11 20 16 51 16 37 0 48 -4 62 -25z m-1367 -104 c26 -17 3 -38 -99 -86
-56 -27 -106 -57 -111 -66 -15 -28 -11 -89 15 -215 37 -182 57 -254 71 -254 6
0 38 9 69 20 80 27 148 35 176 20 30 -16 13 -32 -60 -55 -62 -20 -170 -72
-170 -82 0 -9 152 -547 156 -552 2 -2 43 11 91 29 103 38 185 46 191 17 6 -29
-17 -48 -128 -101 -97 -47 -111 -51 -192 -54 -80 -4 -89 -2 -110 20 -18 17
-45 96 -110 328 -140 491 -188 700 -188 817 0 55 4 66 30 96 60 69 317 151
369 118z m-886 -23 c9 -7 13 -18 9 -24 -4 -6 -61 -35 -127 -64 -97 -42 -392
-185 -403 -195 -1 -1 29 -67 67 -146 90 -186 224 -521 291 -724 29 -88 59
-167 66 -176 8 -8 14 -28 14 -43 0 -58 -101 -61 -143 -3 -23 30 -84 167 -157
352 -18 44 -77 213 -132 375 -55 162 -103 298 -107 303 -4 4 -43 -9 -87 -29
-133 -61 -252 -104 -286 -104 -42 0 -63 13 -55 35 7 17 446 236 682 340 235
104 330 131 368 103z m187 -158 c11 -6 35 -53 58 -112 22 -57 70 -182 108
-278 37 -96 76 -182 86 -190 12 -10 17 -22 13 -33 -4 -9 33 -127 89 -282 53
-146 96 -272 96 -279 0 -30 -85 -36 -119 -8 -12 9 -66 122 -126 262 -66 155
-109 244 -117 242 -39 -9 -151 -58 -154 -67 -4 -10 75 -239 146 -423 18 -47
40 -87 51 -92 27 -15 26 -66 -2 -81 -25 -13 -93 -6 -114 11 -41 34 -261 562
-333 800 -49 159 -82 294 -82 332 0 32 30 53 66 44 31 -8 48 -43 145 -295 44
-113 81 -206 82 -207 1 -1 40 11 87 27 51 17 84 34 83 41 -1 7 -17 57 -37 111
-42 114 -99 307 -118 397 -12 58 -11 63 7 76 22 16 59 18 85 4z"/>
<path d="M15415 14278 c-72 -149 -102 -308 -91 -484 8 -125 26 -198 72 -292
64 -131 213 -262 297 -262 101 0 225 153 272 335 64 249 -76 595 -291 721 -53
31 -166 74 -194 74 -14 0 -31 -24 -65 -92z"/>
<path d="M11818 12583 c-16 -2 -28 -7 -28 -10 0 -39 452 -958 490 -997 16 -16
115 96 154 174 106 216 78 430 -77 597 -103 110 -235 185 -402 228 -58 15 -83
16 -137 8z"/>
<path d="M16337 12523 c-3 -5 -12 -32 -21 -62 -33 -112 -13 -237 55 -343 59
-92 126 -121 178 -77 24 20 24 21 11 87 -29 145 -93 293 -158 361 -38 40 -56
49 -65 34z"/>
<path d="M14515 11999 c19 -208 85 -421 205 -664 92 -186 173 -318 165 -270
-46 289 -74 409 -132 564 -43 115 -120 272 -178 362 -61 95 -68 96 -60 8z"/>
<path d="M15881 11923 c-15 -52 -13 -173 3 -263 23 -127 106 -307 184 -399
l29 -35 7 85 c13 163 -23 389 -79 499 -26 51 -109 150 -126 150 -4 0 -13 -17
-18 -37z"/>
<path d="M14365 11569 c-27 -21 -80 -60 -117 -85 l-66 -46 14 -49 c100 -336
208 -568 362 -776 105 -140 227 -245 268 -229 25 9 62 106 73 189 20 142 19
143 -65 264 -157 223 -287 461 -363 665 -21 56 -43 103 -47 105 -5 1 -31 -16
-59 -38z"/>
<path d="M13931 11269 c-70 -49 -115 -73 -142 -76 -21 -3 -39 -7 -39 -10 0 -2
11 -25 24 -51 65 -129 94 -312 76 -480 -9 -92 -47 -300 -66 -368 -11 -41 172
-171 267 -189 32 -6 39 -3 58 21 69 87 88 379 45 687 -26 188 -100 537 -114
537 -3 0 -52 -32 -109 -71z"/>
<path d="M13523 11168 c-15 -28 -18 -58 -17 -203 0 -155 3 -178 27 -260 28
-95 114 -276 133 -282 17 -6 44 189 44 320 0 125 -28 264 -70 348 -22 44 -77
109 -92 109 -4 0 -15 -15 -25 -32z"/>
<path d="M12972 10780 c-49 -30 -127 -111 -150 -157 -108 -211 24 -633 240
-769 49 -31 64 -30 81 4 45 87 51 256 18 473 -26 174 -34 209 -79 351 -41 130
-47 136 -110 98z"/>
<path d="M11835 9947 c-104 -105 -130 -359 -54 -516 59 -119 137 -174 249
-175 54 -1 77 4 132 32 74 36 109 71 163 164 34 57 36 65 26 98 -6 20 -37 77
-70 126 -97 147 -254 279 -360 303 -44 10 -45 9 -86 -32z"/>
<path d="M13476 9532 c-128 -288 -175 -530 -131 -678 20 -67 68 -140 105 -159
29 -15 33 -15 63 2 93 55 132 290 91 561 -15 106 -65 318 -81 346 -6 12 -18
-7 -47 -72z"/>
<path d="M12371 9299 c-80 -71 -188 -112 -333 -125 l-78 -7 33 -41 c58 -74
186 -195 239 -226 65 -37 106 -38 142 -5 45 41 69 110 74 206 4 81 -12 224
-26 233 -4 2 -27 -14 -51 -35z"/>
<path d="M10370 11826 c0 -31 125 -745 131 -750 2 -2 66 30 141 71 l136 74
-152 232 c-176 267 -256 384 -256 373z"/>
<path d="M17420 9312 c0 -183 2 -332 4 -332 2 0 48 16 102 36 55 20 122 43
149 51 28 8 54 18 58 22 6 6 -287 528 -309 550 -2 2 -4 -145 -4 -327z"/>
<path d="M14170 8653 c-24 -7 -160 -65 -160 -68 0 -1 15 -35 34 -76 18 -41 48
-113 67 -161 18 -49 36 -88 39 -88 18 0 94 97 118 148 58 127 33 223 -63 245
-11 3 -27 3 -35 0z"/>
<path d="M14190 8153 c0 -3 35 -97 78 -207 43 -111 96 -250 118 -310 21 -60
45 -111 52 -114 18 -7 85 60 115 117 63 116 70 216 23 310 -50 97 -115 152
-221 184 -57 17 -165 31 -165 20z"/>
<path d="M15105 7098 c-46 -115 -42 -397 10 -700 25 -139 101 -470 114 -496 4
-7 17 29 29 80 72 303 81 692 21 909 -33 120 -110 249 -149 249 -4 0 -16 -19
-25 -42z"/>
<path d="M16078 6813 c-63 -72 -99 -246 -83 -408 l7 -78 23 29 c41 50 109 176
132 244 29 85 30 168 2 204 -24 30 -59 34 -81 9z"/>
<path d="M13406 6665 c-61 -62 -58 -342 8 -667 32 -155 87 -344 96 -326 12 22
49 196 64 303 52 360 13 600 -109 683 -37 26 -39 26 -59 7z"/>
<path d="M15296 5704 c-7 -19 81 -259 137 -369 58 -117 131 -221 207 -296 68
-67 149 -115 176 -105 51 20 57 184 11 308 -73 199 -246 380 -433 451 -81 31
-90 32 -98 11z"/>
<path d="M17840 4547 c0 -6 29 -141 65 -301 71 -318 227 -901 241 -900 19 1
121 135 152 198 166 340 26 795 -293 952 -85 42 -165 67 -165 51z"/>
<path d="M15579 4153 c-50 -129 -67 -423 -35 -600 38 -214 95 -351 173 -424
58 -53 78 -49 125 21 61 91 90 194 95 340 4 110 2 136 -20 220 -53 202 -149
369 -251 438 -59 39 -73 40 -87 5z"/>
</g>
</svg>
