<?xml version="1.0" standalone="no"?>
<!DOCTYPE svg PUBLIC "-//W3C//DTD SVG 20010904//EN"
 "http://www.w3.org/TR/2001/REC-SVG-20010904/DTD/svg10.dtd">
<svg version="1.0" xmlns="http://www.w3.org/2000/svg"
 width="2400.000000pt" height="2400.000000pt" viewBox="0 0 2400.000000 2400.000000"
 preserveAspectRatio="xMidYMid meet">

<g transform="translate(0.000000,2400.000000) scale(0.100000,-0.100000)"
fill="#000000" stroke="none">
<path d="M7180 22297 c-42 -12 -94 -33 -115 -46 -56 -33 -140 -116 -185 -181
-184 -269 -398 -943 -530 -1670 -11 -63 -25 -140 -30 -170 -40 -223 -90 -607
-114 -887 -8 -88 -18 -168 -22 -176 -22 -37 -454 -429 -480 -435 -12 -3 -14
25 -14 176 0 161 -33 725 -45 779 -3 12 -10 68 -15 125 -6 57 -15 128 -20 158
-5 30 -19 111 -30 180 -90 545 -256 1076 -427 1364 -65 110 -197 241 -283 283
-96 46 -171 63 -305 70 -137 6 -233 -6 -336 -42 -109 -38 -185 -90 -300 -204
-336 -335 -681 -981 -807 -1511 -39 -161 -53 -253 -55 -346 -1 -80 2 -98 19
-121 31 -43 80 -63 151 -63 121 0 141 22 233 255 206 521 351 809 583 1155
149 223 381 510 411 510 18 0 85 -129 135 -263 152 -401 274 -983 321 -1532 6
-66 15 -165 21 -220 26 -257 21 -986 -10 -1340 l-7 -80 -250 -250 c-138 -137
-294 -302 -346 -365 -365 -440 -604 -897 -699 -1332 -19 -86 -22 -135 -23
-293 0 -165 2 -202 22 -279 59 -235 188 -368 407 -422 105 -25 315 -23 425 5
310 78 524 295 725 731 103 226 229 620 284 894 75 363 105 543 141 821 37
289 40 318 55 545 9 124 18 234 21 245 2 11 88 92 189 180 102 88 208 180 235
204 28 24 52 42 55 40 2 -3 0 -129 -4 -281 -5 -152 -7 -322 -5 -379 2 -57 9
-221 14 -364 6 -143 15 -289 20 -325 5 -36 14 -108 20 -160 55 -501 204 -982
408 -1320 185 -306 382 -472 625 -525 120 -27 355 -17 455 18 103 36 172 80
269 171 l84 79 16 -22 c108 -155 279 -307 428 -381 135 -66 239 -92 401 -97
168 -6 269 10 384 63 67 31 92 52 241 202 458 461 757 945 948 1535 46 141 45
153 -12 184 -24 13 -55 18 -122 18 -142 0 -137 4 -280 -276 -184 -361 -320
-577 -546 -863 -101 -127 -465 -505 -522 -541 l-28 -18 -65 64 c-169 168 -307
431 -383 731 l-29 117 70 163 c212 494 341 905 415 1323 14 78 18 154 18 345
-1 217 -3 256 -23 339 -43 184 -117 293 -235 347 -54 25 -76 29 -178 32 -132
5 -194 -8 -292 -61 -74 -39 -196 -167 -260 -274 -113 -189 -211 -503 -264
-853 -26 -168 -26 -895 0 -1120 23 -203 54 -357 109 -547 11 -41 11 -42 -27
-90 -124 -153 -281 -303 -317 -303 -49 0 -196 234 -292 461 -246 589 -341
1371 -307 2548 6 239 16 482 21 540 6 58 14 161 19 229 8 115 11 126 38 160
395 494 714 1102 808 1540 14 64 30 140 36 167 6 28 13 129 16 226 5 141 2
191 -11 259 -48 237 -163 396 -321 447 -27 8 -95 17 -150 19 -83 3 -113 0
-175 -19z m279 -293 c72 -120 96 -241 88 -449 -15 -378 -149 -754 -455 -1272
-37 -62 -71 -113 -76 -113 -5 0 -6 19 -2 43 3 23 11 78 16 122 32 252 145 916
180 1060 6 22 19 83 30 135 66 305 140 543 167 538 9 -2 32 -30 52 -64z m1147
-3351 c57 -127 68 -201 68 -428 0 -160 -4 -232 -17 -300 -22 -112 -55 -252
-67 -285 -4 -14 -21 -65 -35 -115 -51 -169 -147 -418 -156 -402 -17 29 -31
403 -26 642 6 245 25 417 68 615 36 167 107 349 130 334 6 -4 22 -31 35 -61z
m-3740 -1115 c-22 -207 -111 -687 -172 -933 -87 -349 -191 -643 -309 -874 -60
-117 -147 -249 -171 -258 -20 -7 -37 17 -74 105 -89 211 -98 500 -23 772 108
396 362 836 681 1181 35 38 66 69 69 69 3 0 3 -28 -1 -62z"/>
<path d="M18730 21544 c-67 -23 -106 -66 -140 -155 -32 -82 -77 -238 -104
-354 -34 -152 -138 -696 -152 -800 -13 -99 -8 -95 -141 -95 -327 0 -613 -105
-613 -225 0 -42 31 -68 105 -89 66 -20 199 -20 285 -1 36 8 116 14 178 15 131
0 121 16 96 -155 -23 -158 -234 -991 -374 -1475 -128 -445 -317 -999 -355
-1039 -11 -11 -17 0 -38 66 -84 263 -124 522 -158 998 -8 111 -10 398 -5 935
4 484 2 797 -4 834 -16 101 -71 137 -207 137 -60 1 -93 -4 -127 -20 -56 -24
-60 -32 -122 -271 -37 -144 -66 -227 -201 -580 -252 -656 -504 -1260 -617
-1472 -12 -23 -46 -89 -75 -145 -29 -57 -56 -103 -61 -103 -10 0 -24 60 -47
195 -25 146 -24 670 1 885 24 213 54 444 66 510 5 30 19 118 30 195 11 77 25
165 30 195 21 122 42 391 38 490 -6 149 -32 190 -141 226 -64 21 -210 24 -284
5 -88 -22 -117 -57 -169 -201 -77 -215 -327 -677 -502 -930 -76 -108 -206
-271 -251 -314 l-31 -30 0 65 c0 110 -20 290 -41 381 -88 376 -300 614 -614
689 -80 19 -110 20 -265 16 -177 -5 -211 -11 -350 -61 -219 -80 -474 -319
-667 -624 -98 -156 -233 -442 -288 -609 -9 -29 -21 -53 -25 -53 -5 0 -25 25
-45 55 -71 106 -187 187 -316 222 -99 26 -313 24 -405 -5 -131 -40 -226 -110
-310 -227 -118 -167 -176 -403 -117 -483 49 -67 194 -96 273 -53 32 17 35 23
36 64 0 32 13 69 43 128 69 134 191 293 211 273 16 -16 60 -143 81 -233 85
-362 140 -935 199 -2071 22 -420 30 -549 40 -650 6 -58 15 -157 20 -220 23
-257 60 -558 80 -647 29 -124 67 -161 203 -195 155 -39 347 -11 431 63 49 44
48 26 17 394 -12 138 -28 363 -36 500 -8 138 -17 275 -20 305 -7 75 -28 890
-23 895 2 2 44 -2 93 -10 278 -45 599 32 858 207 364 245 640 635 807 1138
l48 145 88 60 c109 74 269 227 382 363 46 57 86 101 88 99 3 -2 0 -48 -6 -101
-5 -53 -15 -138 -20 -190 -5 -52 -10 -173 -10 -269 0 -578 147 -985 401 -1109
178 -86 452 -90 626 -7 72 34 144 108 190 195 62 118 148 380 298 909 31 110
61 204 66 210 5 5 9 -35 9 -100 2 -456 84 -891 226 -1193 111 -238 229 -351
413 -398 94 -23 312 -15 396 15 142 51 219 132 319 334 72 146 65 148 86 -28
38 -319 144 -723 241 -921 48 -99 103 -157 182 -195 86 -41 155 -52 277 -47
217 10 310 80 378 283 39 116 117 418 207 805 26 112 124 578 139 662 9 49 23
125 31 170 27 145 37 249 42 410 4 147 4 157 -15 176 -39 39 -153 54 -234 31
-76 -20 -80 -29 -152 -329 -98 -403 -337 -1274 -356 -1293 -13 -14 -33 118
-62 408 -16 157 -15 1079 0 1315 34 503 55 769 82 1075 7 72 15 164 18 205 l7
74 40 7 c22 4 85 12 140 19 406 49 724 166 725 266 0 48 -85 84 -197 84 -40 0
-133 -11 -206 -24 -144 -27 -446 -51 -460 -37 -5 5 -1 78 8 167 8 88 22 226
30 308 8 81 17 162 20 180 3 17 10 78 15 136 5 58 19 170 30 250 44 305 44
309 34 337 -22 63 -227 97 -344 57z m-4951 -1930 c17 -14 53 -58 80 -99 132
-198 186 -477 162 -833 -11 -170 -41 -366 -58 -383 -12 -12 -132 -33 -313 -54
-330 -39 -560 -99 -736 -194 -87 -47 -85 -51 -54 99 107 529 342 1015 632
1312 79 80 210 178 239 178 10 0 31 -12 48 -26z m101 -1629 c0 -21 -82 -211
-135 -312 -172 -330 -395 -570 -639 -689 -82 -40 -93 -36 -127 38 -22 48 -24
67 -24 193 0 116 4 152 22 210 33 102 87 188 178 280 92 94 199 163 313 205
113 41 412 95 412 75z"/>
<path d="M16471 15069 c-168 -20 -322 -82 -435 -175 -197 -163 -348 -497 -435
-964 -41 -224 -44 -242 -72 -545 -13 -139 -7 -660 10 -802 6 -51 15 -132 21
-180 37 -332 110 -667 211 -967 160 -474 363 -804 691 -1121 236 -228 400
-327 648 -387 35 -8 117 -13 230 -13 191 1 246 10 368 65 155 71 217 162 257
375 23 124 31 709 15 1060 -6 143 -15 355 -19 470 -6 172 -11 217 -25 248 -33
67 -101 111 -233 149 -73 22 -96 23 -368 23 -237 -1 -306 -4 -375 -18 -151
-31 -265 -81 -290 -126 -34 -65 14 -126 127 -161 97 -30 179 -40 341 -40 78 0
142 -1 142 -2 1 -2 7 -138 15 -303 21 -438 19 -825 -4 -1065 -21 -204 -26
-230 -45 -230 -19 0 -239 229 -319 332 -223 288 -375 623 -498 1098 -217 841
-210 1862 18 2540 54 162 156 350 198 366 20 8 121 -64 220 -158 164 -155 288
-320 511 -681 144 -233 197 -284 320 -307 116 -22 256 8 284 60 17 31 6 107
-36 241 -113 370 -276 643 -525 885 -272 262 -591 374 -948 333z"/>
<path d="M14204 14640 c-91 -19 -144 -51 -171 -105 -20 -38 -43 -190 -43 -285
0 -148 43 -606 90 -965 11 -88 27 -209 35 -270 16 -122 36 -249 59 -370 8 -44
26 -143 41 -220 38 -205 93 -493 121 -629 13 -66 21 -122 18 -125 -7 -7 -7 -8
-176 225 -325 446 -904 1177 -1192 1503 -232 263 -341 354 -465 390 -189 55
-448 25 -548 -62 -90 -79 -87 -145 23 -582 236 -938 415 -1581 574 -2055 116
-348 223 -632 339 -900 118 -270 206 -407 292 -450 48 -25 156 -27 204 -4 39
18 65 73 65 137 0 112 -69 455 -173 862 -193 753 -242 949 -298 1183 -112 465
-178 756 -175 760 5 4 69 -76 272 -343 322 -421 464 -621 837 -1175 479 -711
701 -1030 782 -1126 51 -59 135 -107 219 -124 75 -15 268 -15 332 1 75 18 131
47 164 85 42 49 40 109 -9 299 -21 83 -63 247 -94 365 -86 335 -146 598 -221
985 -71 367 -88 458 -97 510 -5 33 -14 80 -19 105 -5 25 -19 97 -30 160 -45
245 -111 561 -144 695 -35 142 -78 331 -101 440 -134 646 -174 870 -175 971 0
47 -15 64 -83 94 -54 24 -187 35 -253 20z"/>
<path d="M9233 14489 c-202 -15 -478 -89 -668 -178 -338 -158 -570 -401 -639
-668 -22 -83 -20 -226 4 -353 46 -239 56 -288 199 -960 66 -311 147 -695 181
-855 203 -959 358 -1504 482 -1699 41 -64 106 -96 195 -96 69 0 138 23 153 51
13 23 12 145 -1 234 -5 39 -16 122 -24 185 -8 63 -21 160 -29 215 -8 55 -22
147 -30 205 -31 215 -47 327 -56 385 -5 33 -16 114 -25 180 -9 66 -18 132 -20
148 -3 15 -1 27 4 27 5 0 193 -192 418 -427 364 -382 787 -802 972 -967 194
-173 290 -216 481 -216 178 0 290 50 290 130 0 46 -52 120 -107 154 -40 24
-99 89 -265 291 -148 180 -293 343 -475 530 -299 309 -701 708 -945 939 -93
87 -168 164 -168 170 0 7 102 111 228 231 438 419 575 575 746 848 145 233
240 461 271 650 19 115 19 175 1 270 -63 327 -377 541 -846 577 -148 11 -176
11 -327 -1z m311 -343 c133 -65 216 -216 216 -394 0 -254 -164 -626 -418 -947
-103 -130 -499 -515 -529 -515 -6 0 -15 35 -22 78 -15 101 -33 209 -70 422
-27 160 -42 244 -88 490 -25 135 -28 258 -8 327 52 181 214 363 410 461 216
107 393 135 509 78z"/>
<path d="M10950 14210 c-60 -8 -124 -32 -152 -56 -35 -33 -40 -108 -23 -346 8
-123 18 -234 20 -248 3 -14 12 -95 20 -180 17 -171 33 -306 64 -540 12 -85 26
-189 31 -230 6 -41 14 -100 20 -130 5 -30 19 -118 30 -195 12 -77 25 -160 30
-185 5 -25 18 -106 30 -180 12 -74 27 -169 35 -210 7 -41 23 -129 35 -195 34
-193 39 -218 154 -685 186 -757 263 -996 349 -1082 113 -114 449 -115 523 -3
18 28 13 107 -10 154 -7 14 -18 51 -24 81 -14 65 -77 443 -86 515 -4 28 -11
73 -16 100 -5 28 -19 113 -30 190 -78 526 -92 605 -160 925 -17 80 -37 177
-45 215 -8 39 -24 113 -35 165 -11 52 -67 331 -125 620 -241 1210 -290 1400
-367 1454 -54 38 -171 58 -268 46z"/>
<path d="M4929 14075 c-89 -18 -158 -55 -207 -110 -47 -53 -73 -119 -107 -270
-24 -103 -107 -579 -141 -800 -8 -55 -21 -140 -29 -190 -76 -489 -125 -856
-160 -1182 -8 -79 -17 -160 -20 -180 -3 -21 -14 -168 -25 -327 -32 -472 -23
-821 25 -967 30 -89 100 -124 240 -117 93 4 149 27 170 69 16 31 37 142 61
324 27 213 62 464 84 607 7 43 17 82 24 87 35 27 745 244 759 231 4 -4 26 -70
48 -146 34 -120 159 -504 316 -974 52 -154 106 -289 139 -340 55 -89 142 -130
279 -130 177 0 271 67 220 158 -8 15 -30 104 -49 197 -33 159 -76 363 -147
700 -17 77 -37 174 -45 215 -19 97 -59 256 -129 511 -31 112 -64 229 -72 259
-8 30 -19 69 -23 85 -4 17 -48 179 -97 360 -50 182 -114 420 -143 530 -117
443 -212 794 -235 865 -95 301 -168 427 -283 488 -108 58 -299 78 -453 47z
m251 -1200 c0 -8 22 -97 49 -197 27 -101 79 -298 116 -438 37 -140 73 -275 80
-300 68 -243 114 -425 107 -431 -4 -3 -59 -13 -122 -23 -63 -10 -194 -36 -290
-58 -252 -58 -233 -56 -226 -22 6 30 36 201 61 354 8 47 21 123 29 170 9 47
22 123 30 170 8 47 24 137 36 200 32 175 80 438 91 505 6 33 12 66 14 73 6 17
25 15 25 -3z"/>
<path d="M6855 8579 c-27 -4 -248 -13 -490 -18 -622 -15 -904 -28 -957 -47
-54 -19 -81 -44 -126 -119 -19 -33 -62 -100 -95 -149 -94 -141 -113 -202 -88
-282 5 -16 19 -74 31 -129 25 -115 47 -198 86 -340 l28 -100 115 -119 c173
-177 362 -332 492 -402 27 -15 49 -31 49 -35 0 -4 -38 -28 -85 -52 -403 -215
-691 -679 -807 -1304 -20 -104 -22 -152 -22 -408 -1 -260 2 -301 21 -397 67
-324 187 -630 332 -848 197 -297 561 -504 1031 -587 146 -25 514 -25 645 1
322 62 612 216 810 427 175 187 307 495 370 859 58 338 41 932 -34 1213 -63
235 -175 445 -341 642 -106 126 -314 302 -432 365 -32 17 -58 34 -58 37 0 3
17 24 38 47 20 22 131 163 246 311 115 149 235 302 266 340 31 39 64 81 73 95
21 30 22 98 3 188 -34 159 -56 284 -56 321 0 96 -36 137 -235 265 -49 32 -127
87 -173 123 -136 106 -142 108 -382 110 -113 0 -227 -3 -255 -8z m348 -240
c40 -33 119 -91 177 -129 156 -101 163 -109 183 -210 9 -47 21 -116 27 -155 6
-38 16 -101 22 -138 12 -80 25 -57 -132 -233 -58 -64 -153 -176 -213 -248
-235 -287 -261 -316 -282 -312 -11 2 -69 15 -130 29 -191 45 -322 60 -489 55
-104 -3 -171 -10 -216 -23 l-65 -18 -255 257 c-140 142 -261 268 -268 281 -32
61 -129 507 -119 548 4 13 43 75 88 138 44 63 87 126 94 140 14 25 18 26 152
35 76 5 284 8 463 6 316 -3 719 11 790 28 80 19 97 14 173 -51z m-477 -2217
c206 -134 362 -437 415 -807 20 -144 23 -420 5 -531 -58 -353 -190 -616 -381
-759 -75 -56 -102 -62 -152 -36 -197 100 -368 385 -445 741 -25 113 -36 476
-19 600 29 212 40 250 113 392 69 134 138 239 206 311 66 69 147 127 178 127
11 0 47 -17 80 -38z"/>
<path d="M5860 8210 c-69 -4 -148 -13 -177 -20 -97 -22 -152 -78 -134 -136 5
-16 19 -65 31 -109 57 -209 59 -214 90 -230 41 -21 103 -19 131 4 24 19 24 21
21 179 l-4 159 24 6 c12 3 77 13 143 22 196 25 255 44 255 85 0 51 -66 58
-380 40z"/>
<path d="M7221 8004 c-23 -16 -23 -18 -20 -194 3 -144 1 -181 -11 -196 -8 -11
-33 -41 -56 -69 -51 -61 -137 -197 -175 -280 -34 -71 -37 -110 -10 -125 22
-11 90 -14 115 -4 9 3 47 47 85 98 38 50 124 149 190 220 121 128 121 128 121
177 0 28 -9 89 -21 137 -11 48 -27 116 -35 152 -9 36 -23 73 -31 83 -21 23
-119 24 -152 1z"/>
<path d="M19096 8350 c-107 -34 -141 -156 -200 -725 -23 -220 -44 -456 -51
-570 -3 -55 -10 -145 -15 -200 -26 -270 -31 -577 -15 -916 26 -589 40 -734 79
-791 80 -119 403 -148 494 -44 39 45 61 166 93 526 5 63 16 176 24 250 35 329
37 411 25 1076 -15 931 -36 1179 -107 1303 -35 60 -105 92 -216 97 -45 2 -95
-1 -111 -6z"/>
<path d="M16271 7569 c-638 -8 -699 -13 -773 -62 -42 -29 -50 -79 -18 -120 26
-33 130 -83 201 -97 30 -6 77 -15 104 -20 59 -11 277 -30 455 -39 l125 -6 -3
-100 c-2 -55 -7 -264 -12 -465 -5 -201 -14 -482 -19 -625 -43 -1099 -50 -1342
-50 -1877 l-1 -457 35 -178 c20 -97 43 -192 52 -211 36 -75 158 -128 318 -139
66 -4 107 -1 153 11 106 27 127 51 158 182 46 197 46 195 54 1049 5 451 13
1016 19 1255 9 401 4 745 -14 1075 -7 118 -38 348 -55 405 -21 73 -45 67 308
73 269 4 331 8 411 26 113 24 200 65 221 104 14 25 13 30 -5 64 -39 70 -176
123 -398 153 -85 11 -355 11 -1266 -1z"/>
<path d="M14375 7559 c-92 -35 -127 -100 -147 -281 -21 -185 -18 -2024 4
-2570 10 -234 20 -432 23 -440 2 -7 11 -76 20 -153 41 -371 88 -654 121 -734
43 -104 171 -161 359 -161 96 0 186 27 210 63 7 12 19 58 25 102 17 124 25
984 11 1220 -21 340 -40 746 -51 1085 -36 1040 -72 1509 -134 1714 -33 108
-123 157 -301 162 -65 2 -122 -1 -140 -7z"/>
<path d="M10409 7180 c-81 -14 -128 -45 -154 -103 -47 -102 -58 -546 -22 -832
8 -66 25 -196 36 -290 12 -93 28 -219 37 -280 8 -60 22 -157 30 -215 20 -147
40 -287 59 -409 8 -58 14 -109 12 -115 -2 -6 -73 82 -157 194 -183 244 -568
743 -659 855 -181 222 -413 475 -560 608 -161 147 -255 182 -470 175 -135 -5
-197 -20 -263 -65 -58 -39 -72 -79 -65 -192 10 -162 68 -647 117 -976 12 -77
25 -169 31 -205 15 -105 58 -340 90 -500 130 -652 286 -1167 407 -1345 64 -93
122 -125 227 -125 148 0 183 68 155 309 -5 47 -15 145 -20 216 -18 224 -44
453 -86 765 -25 181 -36 256 -69 490 -9 63 -23 160 -30 215 -18 127 -52 376
-61 438 -4 29 -3 47 3 47 16 0 539 -688 878 -1155 190 -262 641 -865 753
-1007 50 -62 73 -82 124 -107 129 -62 369 -64 493 -3 48 23 94 73 101 108 5
27 -19 194 -66 464 -16 93 -75 506 -115 810 -8 63 -22 165 -30 225 -8 61 -22
162 -30 225 -8 63 -24 187 -35 275 -11 88 -27 214 -35 280 -8 66 -21 179 -30
250 -9 72 -21 168 -26 214 -13 102 -120 493 -158 576 -37 80 -69 116 -133 148
-82 41 -178 54 -279 37z"/>
<path d="M18944 3911 c-165 -27 -295 -114 -354 -238 -82 -173 -81 -455 3 -595
14 -24 60 -78 101 -121 89 -92 177 -139 308 -162 360 -64 592 68 687 391 27
90 29 254 5 335 -56 189 -216 327 -434 373 -92 19 -247 28 -316 17z"/>
</g>
</svg>
