<?xml version="1.0" standalone="no"?>
<!DOCTYPE svg PUBLIC "-//W3C//DTD SVG 20010904//EN"
 "http://www.w3.org/TR/2001/REC-SVG-20010904/DTD/svg10.dtd">
<svg version="1.0" xmlns="http://www.w3.org/2000/svg"
 width="2400.000000pt" height="2400.000000pt" viewBox="0 0 2400.000000 2400.000000"
 preserveAspectRatio="xMidYMid meet">

<g transform="translate(0.000000,2400.000000) scale(0.100000,-0.100000)"
fill="#000000" stroke="none">
<path d="M18228 23135 c-35 -20 -61 -70 -92 -179 -25 -84 -93 -419 -117 -569
-7 -47 -16 -76 -23 -74 -6 2 -43 55 -83 118 -133 209 -424 540 -505 573 -47
20 -157 21 -202 2 -19 -8 -37 -23 -40 -34 -10 -30 10 -71 138 -286 83 -139
161 -252 277 -402 261 -337 265 -341 315 -360 52 -20 51 -9 25 -204 -11 -80
-25 -224 -31 -320 -41 -667 -45 -772 -30 -800 18 -33 70 -50 157 -50 95 0 154
24 177 69 50 96 166 814 185 1146 31 524 54 1113 50 1237 -4 85 -7 100 -26
120 -29 29 -133 36 -175 13z"/>
<path d="M16675 23072 c-32 -11 -54 -26 -62 -42 -17 -32 -209 -578 -258 -732
-21 -65 -41 -118 -44 -118 -3 0 -61 89 -129 198 -235 377 -370 550 -447 571
-63 17 -154 13 -202 -9 -65 -29 -69 -44 -54 -233 48 -620 148 -1234 292 -1794
37 -144 51 -177 85 -200 38 -25 139 -25 177 0 76 50 71 105 -152 1475 -4 29
-5 55 -1 57 3 2 24 -26 46 -63 72 -124 193 -301 232 -340 48 -48 106 -66 204
-60 98 5 142 28 172 87 13 25 50 126 82 224 31 97 61 177 64 177 4 0 12 -66
19 -147 7 -82 16 -184 21 -228 5 -44 19 -168 31 -275 11 -107 29 -256 40 -330
23 -158 113 -560 137 -610 23 -48 62 -65 152 -65 86 0 135 20 152 63 14 36 3
456 -17 624 -16 137 -59 430 -99 678 -14 85 -52 333 -86 550 -66 431 -78 485
-112 517 -47 44 -156 55 -243 25z"/>
<path d="M9618 23066 c-138 -40 -226 -143 -280 -331 -20 -68 -23 -102 -22
-225 0 -128 4 -156 28 -235 32 -108 76 -184 134 -236 24 -21 111 -73 194 -115
226 -116 314 -209 353 -375 38 -165 2 -458 -84 -669 -31 -76 -96 -180 -113
-180 -5 0 -34 23 -64 52 -70 66 -151 187 -159 236 -12 72 -15 79 -40 90 -36
17 -130 15 -164 -3 -39 -20 -65 -85 -56 -144 22 -146 155 -330 286 -397 130
-65 351 -49 474 36 147 101 252 310 300 598 25 152 17 371 -17 463 -35 95 -73
156 -138 221 -71 71 -151 122 -304 196 -137 66 -172 98 -205 187 -26 69 -51
209 -51 284 0 99 50 298 79 316 6 3 36 -29 67 -72 185 -253 200 -267 314 -268
77 0 128 19 141 52 19 50 -67 235 -169 365 -49 63 -123 119 -192 144 -61 22
-248 28 -312 10z"/>
<path d="M7644 23040 c-125 -17 -214 -78 -231 -157 -12 -56 -8 -598 6 -748 15
-168 49 -431 116 -885 30 -201 59 -437 65 -525 8 -101 17 -168 26 -182 20 -32
79 -59 155 -73 190 -35 828 104 883 192 18 29 -5 69 -54 95 -53 29 -101 28
-365 -5 -88 -11 -162 -18 -165 -16 -2 3 -14 71 -26 152 -12 81 -45 299 -73
484 -28 186 -51 342 -51 347 0 5 33 12 73 16 151 13 384 46 437 61 55 16 100
47 100 69 0 22 -45 54 -92 65 -33 9 -127 11 -298 9 -217 -4 -251 -2 -255 11
-20 65 -39 356 -39 610 l-1 285 165 7 c270 12 360 33 360 83 0 52 -63 69 -329
90 -280 22 -340 24 -407 15z"/>
<path d="M14165 23015 c-151 -24 -258 -67 -271 -109 -16 -47 13 -812 45 -1231
6 -66 17 -212 26 -325 9 -113 22 -285 29 -383 11 -132 19 -184 31 -203 26 -40
109 -72 213 -83 108 -11 388 1 536 24 186 28 239 85 130 140 -35 18 -62 20
-279 22 l-240 3 -6 37 c-4 21 -12 121 -18 223 -14 226 -28 433 -37 521 l-6 66
73 6 c92 7 316 60 369 87 46 24 54 34 46 64 -13 54 -139 69 -384 45 -62 -6
-115 -9 -117 -7 -3 2 -14 92 -25 199 -29 284 -48 429 -76 569 -13 69 -24 130
-24 136 0 7 36 14 94 18 130 9 310 43 358 67 32 17 39 24 36 46 -4 37 -43 61
-118 73 -87 13 -286 11 -385 -5z"/>
<path d="M10655 23001 c-217 -20 -273 -32 -310 -67 -30 -28 -31 -34 -5 -67 28
-35 108 -60 220 -66 l95 -6 2 -110 c2 -60 7 -375 12 -700 l10 -590 40 -354
c60 -520 62 -529 137 -563 34 -14 67 -20 118 -20 86 1 143 19 171 56 19 27 20
42 23 494 4 458 2 511 -34 962 -29 367 -69 654 -105 764 -11 32 -19 60 -17 61
2 2 73 10 158 20 236 25 326 50 350 96 15 26 -7 62 -53 86 -50 26 -542 28
-812 4z"/>
<path d="M12804 22960 c-52 -16 -65 -41 -76 -137 -10 -92 -4 -486 12 -828 27
-551 101 -1254 139 -1305 39 -54 142 -90 260 -90 128 0 420 50 616 106 182 53
236 101 170 153 -59 45 -157 50 -423 20 -101 -11 -185 -19 -188 -17 -2 2 -13
103 -24 224 -28 298 -53 531 -105 972 -83 688 -113 831 -187 885 -30 23 -144
32 -194 17z"/>
<path d="M6924 22925 c-17 -9 -37 -28 -43 -43 -24 -52 -34 -214 -35 -564 l-1
-358 -75 0 c-41 0 -133 -7 -203 -15 -71 -8 -132 -13 -137 -10 -4 2 -11 33 -14
67 -41 367 -129 841 -164 881 -11 12 -30 17 -73 17 -79 0 -115 -31 -129 -109
-26 -140 -38 -871 -20 -1166 10 -166 69 -716 101 -950 28 -198 41 -233 99
-262 77 -40 219 -28 259 21 13 15 13 73 2 419 -10 342 -28 772 -34 842 -2 21
-14 20 333 36 l74 4 18 -115 c126 -835 153 -991 183 -1037 23 -35 74 -53 150
-53 81 0 131 20 146 57 13 30 2 271 -26 598 -8 94 -19 229 -25 300 -25 305
-34 376 -81 690 -84 564 -112 695 -155 735 -31 30 -107 37 -150 15z"/>
<path d="M11890 22829 c-234 -46 -362 -289 -436 -829 -25 -176 -25 -589 -1
-750 53 -349 153 -560 304 -643 140 -76 382 -76 540 0 74 36 179 139 221 219
164 313 210 976 96 1371 -63 219 -186 441 -292 530 -78 66 -110 81 -214 97
-107 17 -150 18 -218 5z m199 -355 c187 -278 240 -747 141 -1235 -40 -195
-127 -408 -171 -417 -18 -3 -44 51 -90 186 -54 161 -82 330 -98 597 -19 309
34 763 109 932 20 46 20 46 41 27 11 -10 42 -51 68 -90z"/>
<path d="M15454 20140 c-72 -10 -123 -37 -140 -74 -8 -17 -59 -213 -115 -436
-55 -222 -105 -410 -111 -417 -6 -8 -34 -13 -72 -13 -143 0 -340 -45 -447
-102 -78 -41 -111 -78 -113 -124 -2 -57 34 -78 140 -83 76 -3 94 1 190 34 96
33 244 58 244 42 0 -4 -75 -296 -166 -649 -296 -1150 -396 -1493 -494 -1689
-47 -92 -65 -110 -85 -83 -48 64 -137 334 -180 549 -54 272 -60 360 -60 910 1
305 6 574 13 670 7 88 13 214 14 280 2 145 -8 172 -79 206 -42 21 -62 24 -168
24 -180 0 -184 -2 -366 -243 -155 -205 -284 -362 -297 -362 -5 0 -16 26 -26
58 -55 175 -159 309 -273 352 -106 40 -275 43 -383 9 -104 -34 -206 -111 -262
-199 -40 -63 -78 -191 -85 -285 -17 -255 157 -494 395 -544 29 -6 105 -11 167
-11 l115 0 0 -107 c0 -285 -73 -695 -186 -1053 -49 -153 -126 -330 -171 -388
l-27 -35 -35 40 c-110 124 -218 379 -290 683 -67 282 -94 463 -116 789 -9 119
-20 241 -26 271 -20 98 -91 135 -254 134 -72 0 -101 -5 -143 -24 l-54 -23 -66
21 c-107 34 -196 45 -311 39 -187 -9 -319 -65 -442 -187 -122 -121 -209 -284
-272 -510 -30 -106 -72 -343 -82 -465 -17 -211 -398 -1295 -455 -1295 -31 0
-164 224 -229 386 l-41 100 74 160 c182 393 299 755 341 1052 21 150 16 392
-10 487 -62 222 -171 322 -364 333 -216 12 -365 -74 -464 -266 -86 -167 -146
-410 -168 -677 -26 -321 18 -746 106 -1030 l24 -80 -26 -45 c-77 -133 -246
-358 -269 -359 -31 -2 -62 432 -84 1169 -27 887 -69 1096 -237 1167 -56 23
-162 33 -238 22 -144 -20 -230 -87 -360 -284 -203 -306 -352 -618 -492 -1032
-52 -154 -79 -220 -84 -210 -7 13 -92 357 -114 465 -6 27 7 63 76 220 247 563
411 1082 474 1497 25 163 23 419 -4 557 -76 380 -206 549 -463 602 -146 30
-296 14 -415 -44 -188 -92 -304 -351 -369 -820 -24 -171 -24 -615 0 -820 33
-287 74 -539 153 -947 l57 -291 -124 -294 c-199 -471 -230 -548 -256 -637 -31
-108 -32 -156 -1 -175 59 -39 149 -31 203 17 42 36 116 144 233 340 46 75 86
137 91 137 4 0 19 -42 35 -92 40 -132 132 -383 166 -449 54 -109 122 -144 274
-143 103 1 176 23 207 64 12 17 28 83 48 200 72 418 227 943 379 1285 64 146
218 435 246 464 8 8 17 13 20 10 10 -10 24 -393 30 -809 9 -625 28 -907 77
-1145 40 -198 82 -269 185 -317 55 -26 81 -32 162 -36 121 -6 189 8 293 60 66
33 104 63 198 154 l117 114 39 -58 c66 -97 183 -206 266 -246 213 -105 490
-81 612 55 21 23 52 71 68 106 37 81 110 279 133 358 30 105 30 105 85 27 122
-174 267 -246 490 -245 176 0 276 36 371 133 93 96 172 282 250 594 17 70 35
124 38 119 4 -4 24 -48 45 -98 114 -269 285 -455 474 -516 93 -30 292 -38 382
-15 226 57 350 212 464 579 126 403 179 775 175 1214 l-3 261 94 82 c52 46
128 115 168 154 l74 71 -9 -175 c-12 -254 -9 -745 6 -889 27 -264 67 -466 132
-666 123 -375 287 -515 604 -515 165 0 301 45 399 131 125 111 211 312 351
825 36 130 67 240 69 242 6 6 12 -35 31 -223 50 -493 171 -950 321 -1207 69
-120 197 -246 297 -294 208 -98 476 -76 602 50 135 135 329 592 449 1058 81
311 169 805 150 836 -38 61 -227 69 -284 12 -11 -11 -50 -116 -90 -242 -158
-494 -215 -661 -283 -833 -70 -177 -238 -526 -277 -575 l-20 -25 -21 25 c-35
42 -106 192 -147 312 -194 561 -271 1331 -229 2255 7 144 15 264 17 266 3 3
79 -11 170 -31 l165 -35 295 -1 c295 -1 374 6 515 40 140 35 232 91 262 162
27 65 -23 97 -152 97 -66 0 -86 -4 -115 -22 -103 -66 -110 -68 -310 -67 -117
1 -222 7 -287 17 -156 25 -517 107 -524 119 -4 6 -5 25 -3 42 2 17 8 92 14
166 6 74 22 236 35 360 14 124 27 250 30 280 8 77 -15 119 -75 141 -57 21
-131 28 -196 19z m-8199 -365 c36 -78 68 -192 85 -306 18 -116 8 -425 -19
-579 -48 -267 -222 -874 -241 -839 -12 20 -56 316 -74 489 -41 398 -24 759 50
1055 24 99 80 233 111 268 16 16 17 16 36 0 11 -10 35 -49 52 -88z m5474
-1120 c31 -87 56 -198 69 -314 10 -83 5 -92 -67 -134 l-30 -18 -36 48 c-64 88
-79 142 -79 278 1 125 22 214 61 257 16 18 17 17 35 -9 10 -16 31 -64 47 -108z
m-1379 -578 c30 -15 66 -35 79 -46 l25 -19 -53 -313 c-68 -409 -140 -768 -191
-951 -66 -241 -157 -477 -186 -486 -14 -3 -83 137 -113 228 -39 120 -52 204
-58 376 -17 493 106 991 293 1183 61 62 64 64 106 59 24 -3 68 -17 98 -31z
m-1721 -43 c23 -78 19 -341 -7 -484 -23 -125 -100 -405 -130 -473 l-19 -42 -8
58 c-12 96 1 520 19 622 35 188 96 380 119 372 6 -2 18 -26 26 -53z"/>
<path d="M16745 15926 c-53 -17 -96 -40 -117 -62 -9 -11 -91 -190 -181 -399
-263 -606 -422 -955 -438 -955 -4 0 -81 82 -171 183 -649 726 -723 787 -953
787 -109 0 -182 -19 -229 -61 -64 -56 -60 -95 59 -584 98 -403 150 -598 300
-1120 225 -782 282 -925 384 -956 21 -6 72 -10 114 -8 64 4 80 8 102 29 27 24
27 27 22 115 -10 171 -106 627 -283 1345 -68 278 -127 513 -130 523 -13 41 23
6 172 -165 242 -281 384 -435 423 -462 53 -37 117 -57 202 -63 158 -12 279 34
342 129 35 53 258 497 330 656 21 45 41 82 46 82 4 0 13 -66 20 -147 30 -366
67 -709 137 -1273 38 -310 148 -827 191 -903 31 -53 82 -72 198 -72 83 0 106
4 135 21 56 33 62 52 55 194 -3 69 -10 217 -15 330 -6 126 -27 343 -54 565
-25 198 -59 482 -75 630 -29 254 -41 384 -91 985 -45 540 -69 612 -217 653
-70 20 -219 22 -278 3z"/>
<path d="M13489 15796 c-106 -28 -151 -78 -168 -184 -27 -167 -101 -941 -141
-1472 -50 -683 -57 -1272 -16 -1498 21 -116 47 -169 90 -187 49 -21 152 -19
196 3 49 24 57 57 75 300 18 251 43 546 50 588 l5 31 198 41 c108 23 253 51
322 63 113 18 125 19 136 4 6 -8 40 -91 74 -183 99 -264 179 -462 213 -525 38
-73 82 -98 182 -105 80 -5 140 8 180 40 26 21 27 24 22 87 -15 168 -207 862
-391 1406 -300 893 -405 1167 -529 1378 -72 122 -134 179 -222 206 -77 24
-202 27 -276 7z m467 -1483 c113 -346 207 -632 208 -637 0 -5 -66 -18 -149
-27 -82 -10 -206 -27 -275 -39 -69 -11 -129 -20 -134 -20 -9 0 -9 -3 39 480
52 517 86 844 90 858 3 6 7 12 9 12 3 0 98 -282 212 -627z"/>
<path d="M11270 15358 c-68 -35 -75 -57 -74 -233 2 -204 49 -644 133 -1240 48
-339 60 -405 126 -716 132 -615 176 -747 267 -796 50 -27 230 -26 278 2 45 27
62 81 37 119 -20 29 -21 35 -92 608 -54 431 -126 849 -245 1433 -79 386 -159
674 -213 770 -41 74 -132 95 -217 53z"/>
<path d="M7202 15320 c-204 -28 -363 -124 -470 -285 -72 -107 -97 -186 -97
-310 0 -91 3 -106 31 -165 46 -97 125 -175 348 -342 243 -183 341 -264 435
-364 263 -276 385 -582 353 -884 -6 -58 -22 -145 -37 -195 -27 -98 -110 -274
-132 -282 -43 -16 -292 308 -382 497 -54 111 -70 185 -52 243 28 93 28 95 -20
117 -57 26 -150 26 -204 1 -49 -23 -110 -82 -138 -136 -32 -60 -29 -183 7
-290 34 -100 113 -259 197 -393 137 -221 309 -325 559 -339 201 -11 355 39
466 153 184 186 292 542 255 841 -33 268 -159 513 -387 752 -115 121 -234 220
-472 392 -212 154 -278 215 -309 280 -56 120 -29 280 67 404 21 28 53 61 70
74 l32 23 50 -22 c118 -50 215 -122 384 -282 148 -140 190 -163 294 -163 82 0
134 20 145 55 12 38 -135 253 -238 347 -216 199 -512 305 -755 273z"/>
<path d="M8865 15064 c-151 -20 -232 -58 -305 -140 -70 -80 -142 -273 -178
-474 -21 -120 -23 -533 -4 -690 34 -272 93 -545 157 -729 125 -359 349 -596
634 -673 109 -30 323 -30 436 1 279 74 439 258 530 611 51 198 74 489 56 725
-32 425 -115 685 -296 930 -133 178 -320 319 -511 385 -192 67 -324 81 -519
54z m131 -203 c5 -5 41 -23 81 -39 145 -61 260 -157 363 -303 160 -227 234
-496 247 -899 11 -343 -36 -626 -139 -838 -43 -88 -128 -192 -158 -192 -48 0
-209 189 -277 325 -123 248 -220 687 -254 1154 -21 287 26 667 97 779 16 24
25 27 40 13z"/>
<path d="M15804 12180 c-16 -5 -41 -21 -55 -36 -22 -23 -24 -33 -22 -113 4
-200 94 -649 188 -938 2 -7 -55 -40 -142 -83 -80 -38 -147 -69 -148 -68 -1 2
-27 104 -58 228 -132 530 -221 717 -357 750 -66 16 -160 8 -202 -17 -57 -33
-57 -44 11 -513 65 -458 80 -530 201 -1008 87 -341 131 -486 164 -535 47 -71
189 -105 300 -73 75 22 109 54 102 98 -3 18 -19 121 -35 228 -17 107 -42 268
-56 358 -14 90 -25 175 -25 190 1 24 19 39 145 120 79 51 151 95 158 98 17 6
11 22 138 -351 50 -148 113 -322 138 -385 44 -110 48 -116 91 -137 35 -18 61
-23 125 -23 64 0 90 5 125 23 64 32 69 53 42 190 -23 119 -247 1000 -286 1127
-63 205 -260 725 -302 797 -14 24 -39 50 -56 59 -38 20 -140 27 -184 14z"/>
<path d="M16440 12183 c-30 -11 -50 -37 -50 -64 0 -58 131 -820 165 -964 160
-665 290 -1151 328 -1219 30 -56 74 -76 165 -76 75 0 127 15 150 43 13 15 -3
138 -53 397 -189 984 -228 1151 -344 1475 -100 280 -147 376 -196 399 -32 15
-133 21 -165 9z"/>
<path d="M17355 12169 c-264 -24 -409 -213 -375 -486 12 -91 57 -195 115 -261
21 -24 86 -80 144 -125 320 -246 527 -523 636 -849 84 -255 85 -415 2 -505
-28 -31 -47 -29 -86 11 -40 41 -103 61 -174 53 -102 -10 -131 -41 -107 -112
36 -110 168 -175 355 -175 242 0 501 124 564 269 98 229 -18 639 -272 963
-124 159 -254 279 -455 423 -143 102 -189 155 -222 254 -26 80 -36 201 -21
256 21 75 21 75 113 13 46 -32 128 -96 183 -144 54 -48 114 -93 132 -100 42
-18 95 -18 138 0 28 12 35 21 35 42 0 86 -165 291 -315 390 -101 68 -238 97
-390 83z"/>
<path d="M12193 12110 c-91 -19 -99 -34 -90 -179 8 -118 26 -241 122 -824 41
-252 75 -466 75 -475 0 -14 -2 -14 -14 -2 -8 8 -121 161 -252 340 -262 359
-330 445 -421 537 -114 115 -195 148 -347 141 -164 -7 -234 -63 -221 -177 9
-84 149 -777 211 -1041 133 -569 188 -711 299 -766 49 -23 63 -26 144 -23 101
4 143 25 149 72 2 15 -13 98 -32 184 -19 87 -64 295 -100 463 -36 168 -79 367
-96 444 -17 76 -29 140 -27 143 5 4 63 -78 342 -482 226 -328 445 -615 505
-663 106 -84 363 -79 451 9 37 37 25 117 -85 594 -30 132 -96 418 -146 635
-157 680 -230 962 -266 1017 -29 46 -119 69 -201 53z"/>
<path d="M13292 11854 c-110 -29 -165 -78 -223 -199 -230 -477 -33 -1395 400
-1856 134 -144 269 -235 405 -274 44 -13 86 -16 180 -13 134 4 187 20 239 74
62 62 62 65 61 349 -2 356 -24 471 -97 515 -79 48 -316 68 -387 32 -37 -18
-51 -52 -30 -77 6 -8 33 -21 60 -30 78 -26 77 -24 80 -245 2 -107 2 -226 2
-264 l-2 -70 -31 30 c-41 39 -154 190 -212 284 -25 42 -77 141 -115 220 -224
470 -311 959 -222 1243 30 96 33 98 75 57 40 -39 107 -134 180 -258 30 -50 61
-90 77 -98 40 -21 136 -18 175 6 70 42 68 101 -9 252 -92 180 -225 296 -376
327 -71 15 -165 13 -230 -5z"/>
<path d="M9882 11670 c-46 -10 -81 -32 -124 -77 -43 -45 -135 -198 -200 -331
-33 -68 -64 -120 -69 -115 -4 4 -30 58 -57 119 -59 135 -112 224 -153 258 -73
62 -234 61 -297 -1 -24 -24 -25 -28 -19 -121 10 -170 120 -637 202 -855 71
-191 218 -535 290 -682 91 -185 132 -241 204 -277 48 -25 65 -28 150 -28 162
1 217 40 180 130 -36 90 -160 472 -156 483 2 6 63 -45 137 -113 313 -293 391
-356 480 -392 45 -18 75 -22 165 -23 95 0 116 3 151 22 23 12 44 29 47 38 10
25 23 17 42 -26 10 -22 31 -51 46 -63 58 -49 212 -59 281 -19 41 23 45 50 24
147 -8 39 -40 188 -71 331 -197 917 -216 988 -344 1310 -96 242 -117 265 -246
265 -94 0 -137 -21 -149 -73 -19 -76 47 -521 115 -772 55 -204 199 -702 248
-855 21 -69 37 -127 35 -129 -2 -3 -14 5 -27 16 -12 11 -38 26 -57 32 -38 12
-84 61 -342 367 -75 88 -185 205 -244 260 -184 168 -254 237 -254 249 0 7 25
81 55 165 78 214 174 523 187 601 13 81 0 116 -52 141 -44 21 -123 29 -178 18z"/>
<path d="M7320 11549 c-383 -27 -818 -92 -897 -132 -64 -33 -69 -77 -15 -114
55 -36 129 -46 337 -42 l190 4 6 -240 c11 -389 40 -664 109 -1012 85 -431 168
-744 221 -829 41 -67 109 -96 228 -96 87 0 145 14 179 45 30 27 32 124 3 171
-28 45 -77 372 -131 866 -29 262 -145 866 -212 1097 -6 23 -9 45 -5 49 13 13
345 45 497 48 154 3 197 11 232 43 25 23 22 45 -10 76 -59 56 -182 78 -440 76
-97 -1 -229 -6 -292 -10z"/>
<path d="M8160 11257 c-111 -31 -154 -84 -194 -237 -53 -203 -60 -286 -61
-680 0 -385 6 -471 50 -699 40 -203 90 -332 146 -373 32 -24 121 -34 177 -19
76 21 76 24 82 360 l5 294 180 63 c99 35 183 63 187 63 4 1 44 -61 89 -136
193 -322 276 -422 370 -442 87 -19 162 -8 199 29 25 25 24 29 -130 350 -67
140 -167 356 -222 480 -152 347 -337 681 -455 825 -40 48 -68 71 -119 96 -60
30 -78 34 -163 36 -56 2 -115 -3 -141 -10z m310 -727 c35 -74 87 -179 117
-233 30 -54 53 -100 51 -102 -4 -4 -237 -57 -258 -59 -18 -1 -17 -23 -7 278 9
238 13 275 27 259 5 -4 36 -69 70 -143z"/>
<path d="M11573 8890 c-48 -11 -83 -38 -99 -75 -24 -57 -62 -292 -80 -490 -9
-104 -18 -191 -19 -193 -2 -2 -43 -10 -91 -17 -288 -47 -389 -85 -368 -138 9
-24 79 -47 145 -47 33 0 107 7 165 16 58 9 107 14 110 12 7 -7 -71 -298 -136
-508 -81 -262 -247 -748 -262 -765 -10 -11 -155 130 -240 235 -34 41 -77 109
-97 150 -34 71 -36 80 -36 180 0 91 3 111 24 150 29 56 50 80 69 80 22 0 137
-57 169 -84 39 -33 83 -40 127 -22 57 24 44 79 -33 149 -147 133 -411 154
-575 46 -89 -60 -157 -172 -173 -287 -3 -24 0 -110 7 -189 11 -117 11 -195 2
-402 -18 -386 -66 -849 -91 -874 -16 -16 -170 220 -286 436 -30 56 -95 194
-145 306 -49 113 -102 218 -117 233 -30 32 -54 39 -195 64 -66 12 -127 15
-197 12 -91 -4 -108 -9 -175 -42 -178 -87 -295 -318 -314 -617 -9 -133 0 -295
23 -425 17 -99 17 -100 -5 -179 -40 -145 -116 -287 -204 -383 -64 -70 -69 -70
-131 -17 -131 111 -295 340 -416 577 l-72 143 47 245 c105 554 151 1043 127
1340 -30 352 -104 621 -233 847 -54 94 -151 201 -211 231 -146 73 -355 42
-427 -63 -41 -59 -75 -169 -96 -305 -24 -155 -24 -533 0 -749 17 -161 71 -483
106 -643 64 -284 174 -642 268 -865 29 -68 52 -134 52 -147 0 -23 -16 -123
-106 -676 -19 -118 -44 -252 -54 -298 -33 -141 -28 -152 67 -152 55 0 66 3 96
30 65 57 128 213 198 495 22 88 42 166 44 173 3 8 23 -10 51 -45 66 -83 190
-207 254 -257 128 -98 207 -126 354 -126 71 0 121 5 153 16 103 35 233 150
308 273 20 34 39 61 41 61 3 0 24 -13 47 -28 78 -53 131 -67 257 -67 105 0
120 3 176 28 34 16 76 43 92 60 71 73 108 223 119 475 3 78 9 145 13 147 4 2
36 -37 72 -88 88 -124 213 -265 272 -304 63 -43 103 -53 211 -53 145 0 209 45
235 163 34 155 58 439 67 785 3 138 9 252 13 252 14 0 330 -329 330 -344 0 -9
-27 -84 -61 -168 -216 -542 -265 -817 -174 -975 80 -136 278 -223 510 -223
135 0 228 19 322 65 215 106 283 351 187 682 -47 163 -187 424 -326 606 l-61
81 31 85 c17 47 61 177 99 289 37 111 71 202 74 202 4 0 9 -28 13 -62 4 -35
23 -159 42 -277 70 -424 168 -728 330 -1020 143 -257 198 -304 366 -309 118
-5 183 13 226 62 85 97 214 832 199 1131 -7 146 -19 183 -62 201 -46 19 -113
18 -155 -4 l-35 -17 -7 -95 c-15 -211 -149 -850 -178 -850 -7 0 -64 120 -100
210 -36 92 -107 332 -135 454 -86 388 -137 847 -151 1373 l-7 252 24 10 c13 6
127 29 253 51 126 22 241 46 255 53 17 8 27 22 29 40 3 23 -2 30 -32 42 -49
21 -133 18 -336 -9 -96 -14 -177 -23 -179 -20 -6 6 17 395 31 532 12 114 12
115 -11 133 -43 35 -131 48 -208 29z m-4075 -614 c55 -111 127 -327 146 -441
36 -207 44 -459 26 -735 -13 -204 -41 -463 -50 -473 -14 -16 -112 393 -155
647 -28 168 -61 465 -70 626 -10 183 23 493 49 471 7 -6 31 -49 54 -95z m1706
-1729 c21 -393 -5 -977 -43 -977 -12 0 -59 165 -76 265 -32 196 -37 295 -20
438 9 74 25 167 36 208 22 80 75 199 88 199 5 0 11 -60 15 -133z m1902 -671
c119 -251 150 -449 93 -603 -25 -66 -49 -96 -95 -118 -31 -14 -42 -15 -79 -5
-56 16 -113 64 -136 114 -23 51 -25 163 -5 270 29 150 140 471 158 459 6 -3
34 -56 64 -117z"/>
<path d="M17360 8170 c-107 -14 -197 -71 -258 -165 -14 -22 -42 -82 -62 -134
l-37 -93 -26 45 c-51 87 -130 127 -252 127 -131 0 -207 -46 -259 -156 -34 -71
-88 -258 -111 -379 -30 -167 -26 -165 -72 -25 -23 69 -56 172 -73 230 -43 140
-61 173 -107 196 -55 27 -185 26 -232 -1 l-35 -20 -1 -560 c-1 -563 -5 -649
-40 -811 -26 -117 -32 -119 -90 -22 -68 115 -150 296 -251 560 -138 360 -119
342 -369 332 -208 -8 -253 -21 -337 -102 -96 -91 -167 -253 -199 -447 -6 -38
-11 -144 -10 -234 0 -149 -3 -173 -30 -280 -40 -155 -52 -194 -113 -346 -48
-123 -51 -128 -54 -90 -2 22 4 202 14 400 22 425 24 927 5 1065 -31 236 -89
401 -161 463 -48 41 -92 56 -185 64 -88 7 -182 -15 -248 -60 -61 -41 -151
-154 -216 -271 -48 -87 -135 -293 -162 -383 -7 -24 -15 -43 -19 -43 -3 0 -19
55 -34 122 -43 187 -101 360 -130 387 -49 46 -177 36 -197 -16 -30 -79 17
-525 111 -1043 57 -317 142 -722 154 -739 39 -51 228 -70 313 -32 73 34 73 35
21 271 -29 130 -30 142 -25 310 8 261 57 520 149 789 58 171 185 428 203 410
2 -3 12 -47 21 -99 22 -126 30 -666 15 -955 -19 -343 -25 -827 -12 -935 16
-129 49 -196 112 -228 91 -46 251 -47 338 -2 22 10 55 39 76 62 46 54 164 291
209 423 20 55 39 100 43 100 4 0 39 -16 78 -35 l70 -35 145 0 145 0 62 34 c94
51 147 133 179 281 9 41 18 77 20 79 2 2 24 -13 48 -33 25 -20 71 -49 103 -64
51 -23 73 -27 173 -30 99 -3 123 -1 174 18 138 52 205 189 222 459 4 56 10
101 13 101 3 0 27 -48 54 -107 65 -148 80 -171 130 -193 58 -27 195 -27 254
-1 61 28 64 39 53 187 -13 172 -12 477 0 605 13 130 40 279 50 279 4 0 15 -39
24 -87 35 -180 143 -568 185 -666 17 -40 28 -51 67 -69 83 -36 247 -24 289 22
18 19 18 28 4 163 -20 197 -17 569 4 717 24 161 95 410 118 410 5 0 13 -17 19
-38 42 -158 55 -405 41 -791 -19 -527 -11 -732 35 -890 39 -137 123 -239 232
-283 51 -20 74 -23 202 -23 126 1 152 4 199 23 30 12 55 21 56 19 1 -1 27 -40
58 -87 89 -135 138 -184 225 -227 73 -37 79 -38 181 -38 98 0 111 3 172 32 55
26 75 42 117 97 87 116 181 318 251 541 37 118 95 401 110 535 17 149 32 401
25 412 -12 18 -73 38 -119 38 -47 0 -107 -20 -119 -39 -4 -6 -29 -122 -56
-259 -58 -288 -118 -508 -191 -689 -54 -137 -136 -302 -173 -348 l-23 -28 -37
61 c-20 34 -62 114 -92 178 l-56 116 40 96 c127 309 179 628 154 953 -23 292
-73 415 -197 482 -34 19 -56 22 -155 22 -100 0 -121 -3 -161 -23 -129 -64
-229 -213 -263 -391 l-13 -66 -6 130 c-9 165 -32 347 -58 450 -53 206 -136
293 -302 315 -39 5 -74 9 -77 8 -3 0 -30 -4 -60 -8z m970 -740 c21 -96 24
-322 6 -457 -20 -154 -36 -227 -46 -216 -11 12 -40 212 -47 324 -3 55 -1 138
7 195 13 109 47 231 60 218 4 -5 13 -34 20 -64z m-3256 -460 c34 -119 36 -133
36 -272 0 -217 -52 -574 -89 -611 -12 -12 -52 113 -76 234 -22 114 -30 343
-16 451 20 147 82 352 101 331 4 -4 24 -64 44 -133z m2802 -150 c25 -168 88
-399 158 -578 l25 -62 -40 -50 c-67 -85 -81 -85 -117 1 -66 154 -86 442 -54
809 6 70 7 76 10 35 1 -27 9 -97 18 -155z"/>
<path d="M13516 4609 c-166 -34 -413 -215 -641 -470 -269 -300 -385 -483 -485
-768 -27 -77 -47 -120 -55 -117 -6 2 -106 65 -221 138 -305 196 -456 275 -645
339 -453 151 -799 74 -799 -180 0 -151 143 -385 380 -621 200 -201 506 -418
930 -663 354 -204 839 -410 1055 -448 39 -7 83 -22 98 -33 24 -18 44 -21 127
-21 119 0 137 10 192 106 38 66 45 94 184 748 19 90 55 251 79 358 65 281 203
976 221 1117 20 149 15 323 -10 381 -40 94 -120 136 -266 141 -52 2 -117 -1
-144 -7z"/>
</g>
</svg>
