<?xml version="1.0" encoding="utf-8"?>
<!-- Generator: Adobe Illustrator 25.0.1, SVG Export Plug-In . SVG Version: 6.00 Build 0)  -->
<svg version="1.1" id="Layer_1" xmlns="http://www.w3.org/2000/svg" xmlns:xlink="http://www.w3.org/1999/xlink" x="0px" y="0px"
	 viewBox="0 0 2400 2400" style="enable-background:new 0 0 2400 2400;" xml:space="preserve">
<g>
	<path transform="translate(0.000000,2400.000000) scale(0.100000,-0.100000)" d="M18228,23135c-35-20-61-70-92-179
		c-25-84-93-419-117-569c-7-47-16-76-23-74c-6,2-43,55-83,118c-133,209-424,540-505,573c-47,20-157,21-202,2c-19-8-37-23-40-34
		c-10-30,10-71,138-286c83-139,161-252,277-402c261-337,265-341,315-360c52-20,51-9,25-204c-11-80-25-224-31-320
		c-41-667-45-772-30-800c18-33,70-50,157-50c95,0,154,24,177,69c50,96,166,814,185,1146c31,524,54,1113,50,1237c-4,85-7,100-26,120
		C18374,23151,18270,23158,18228,23135z M16675,23072c-32-11-54-26-62-42c-17-32-209-578-258-732c-21-65-41-118-44-118
		s-61,89-129,198c-235,377-370,550-447,571c-63,17-154,13-202-9c-65-29-69-44-54-233c48-620,148-1234,292-1794c37-144,51-177,85-200
		c38-25,139-25,177,0c76,50,71,105-152,1475c-4,29-5,55-1,57c3,2,24-26,46-63c72-124,193-301,232-340c48-48,106-66,204-60
		c98,5,142,28,172,87c13,25,50,126,82,224c31,97,61,177,64,177c4,0,12-66,19-147c7-82,16-184,21-228s19-168,31-275
		c11-107,29-256,40-330c23-158,113-560,137-610c23-48,62-65,152-65c86,0,135,20,152,63c14,36,3,456-17,624c-16,137-59,430-99,678
		c-14,85-52,333-86,550c-66,431-78,485-112,517C16871,23091,16762,23102,16675,23072z M9618,23066c-138-40-226-143-280-331
		c-20-68-23-102-22-225c0-128,4-156,28-235c32-108,76-184,134-236c24-21,111-73,194-115c226-116,314-209,353-375
		c38-165,2-458-84-669c-31-76-96-180-113-180c-5,0-34,23-64,52c-70,66-151,187-159,236c-12,72-15,79-40,90c-36,17-130,15-164-3
		c-39-20-65-85-56-144c22-146,155-330,286-397c130-65,351-49,474,36c147,101,252,310,300,598c25,152,17,371-17,463
		c-35,95-73,156-138,221c-71,71-151,122-304,196c-137,66-172,98-205,187c-26,69-51,209-51,284c0,99,50,298,79,316c6,3,36-29,67-72
		c185-253,200-267,314-268c77,0,128,19,141,52c19,50-67,235-169,365c-49,63-123,119-192,144C9869,23078,9682,23084,9618,23066z
		 M7644,23040c-125-17-214-78-231-157c-12-56-8-598,6-748c15-168,49-431,116-885c30-201,59-437,65-525c8-101,17-168,26-182
		c20-32,79-59,155-73c190-35,828,104,883,192c18,29-5,69-54,95c-53,29-101,28-365-5c-88-11-162-18-165-16c-2,3-14,71-26,152
		s-45,299-73,484c-28,186-51,342-51,347s33,12,73,16c151,13,384,46,437,61c55,16,100,47,100,69s-45,54-92,65c-33,9-127,11-298,9
		c-217-4-251-2-255,11c-20,65-39,356-39,610l-1,285l165,7c270,12,360,33,360,83c0,52-63,69-329,90C7771,23047,7711,23049,7644,23040
		z M14165,23015c-151-24-258-67-271-109c-16-47,13-812,45-1231c6-66,17-212,26-325s22-285,29-383c11-132,19-184,31-203
		c26-40,109-72,213-83c108-11,388,1,536,24c186,28,239,85,130,140c-35,18-62,20-279,22l-240,3l-6,37c-4,21-12,121-18,223
		c-14,226-28,433-37,521l-6,66l73,6c92,7,316,60,369,87c46,24,54,34,46,64c-13,54-139,69-384,45c-62-6-115-9-117-7
		c-3,2-14,92-25,199c-29,284-48,429-76,569c-13,69-24,130-24,136c0,7,36,14,94,18c130,9,310,43,358,67c32,17,39,24,36,46
		c-4,37-43,61-118,73C14463,23033,14264,23031,14165,23015z M10655,23001c-217-20-273-32-310-67c-30-28-31-34-5-67
		c28-35,108-60,220-66l95-6l2-110c2-60,7-375,12-700l10-590l40-354c60-520,62-529,137-563c34-14,67-20,118-20c86,1,143,19,171,56
		c19,27,20,42,23,494c4,458,2,511-34,962c-29,367-69,654-105,764c-11,32-19,60-17,61c2,2,73,10,158,20c236,25,326,50,350,96
		c15,26-7,62-53,86C11417,23023,10925,23025,10655,23001z M12804,22960c-52-16-65-41-76-137c-10-92-4-486,12-828
		c27-551,101-1254,139-1305c39-54,142-90,260-90c128,0,420,50,616,106c182,53,236,101,170,153c-59,45-157,50-423,20
		c-101-11-185-19-188-17c-2,2-13,103-24,224c-28,298-53,531-105,972c-83,688-113,831-187,885C12968,22966,12854,22975,12804,22960z
		 M6924,22925c-17-9-37-28-43-43c-24-52-34-214-35-564l-1-358h-75c-41,0-133-7-203-15c-71-8-132-13-137-10c-4,2-11,33-14,67
		c-41,367-129,841-164,881c-11,12-30,17-73,17c-79,0-115-31-129-109c-26-140-38-871-20-1166c10-166,69-716,101-950
		c28-198,41-233,99-262c77-40,219-28,259,21c13,15,13,73,2,419c-10,342-28,772-34,842c-2,21-14,20,333,36l74,4l18-115
		c126-835,153-991,183-1037c23-35,74-53,150-53c81,0,131,20,146,57c13,30,2,271-26,598c-8,94-19,229-25,300c-25,305-34,376-81,690
		c-84,564-112,695-155,735C7043,22940,6967,22947,6924,22925z M11890,22829c-234-46-362-289-436-829c-25-176-25-589-1-750
		c53-349,153-560,304-643c140-76,382-76,540,0c74,36,179,139,221,219c164,313,210,976,96,1371c-63,219-186,441-292,530
		c-78,66-110,81-214,97C12001,22841,11958,22842,11890,22829z M12089,22474c187-278,240-747,141-1235c-40-195-127-408-171-417
		c-18-3-44,51-90,186c-54,161-82,330-98,597c-19,309,34,763,109,932c20,46,20,46,41,27C12032,22554,12063,22513,12089,22474z
		 M15454,20140c-72-10-123-37-140-74c-8-17-59-213-115-436c-55-222-105-410-111-417c-6-8-34-13-72-13c-143,0-340-45-447-102
		c-78-41-111-78-113-124c-2-57,34-78,140-83c76-3,94,1,190,34s244,58,244,42c0-4-75-296-166-649c-296-1150-396-1493-494-1689
		c-47-92-65-110-85-83c-48,64-137,334-180,549c-54,272-60,360-60,910c1,305,6,574,13,670c7,88,13,214,14,280c2,145-8,172-79,206
		c-42,21-62,24-168,24c-180,0-184-2-366-243c-155-205-284-362-297-362c-5,0-16,26-26,58c-55,175-159,309-273,352
		c-106,40-275,43-383,9c-104-34-206-111-262-199c-40-63-78-191-85-285c-17-255,157-494,395-544c29-6,105-11,167-11h115v-107
		c0-285-73-695-186-1053c-49-153-126-330-171-388l-27-35l-35,40c-110,124-218,379-290,683c-67,282-94,463-116,789
		c-9,119-20,241-26,271c-20,98-91,135-254,134c-72,0-101-5-143-24l-54-23l-66,21c-107,34-196,45-311,39c-187-9-319-65-442-187
		c-122-121-209-284-272-510c-30-106-72-343-82-465c-17-211-398-1295-455-1295c-31,0-164,224-229,386l-41,100l74,160
		c182,393,299,755,341,1052c21,150,16,392-10,487c-62,222-171,322-364,333c-216,12-365-74-464-266c-86-167-146-410-168-677
		c-26-321,18-746,106-1030l24-80l-26-45c-77-133-246-358-269-359c-31-2-62,432-84,1169c-27,887-69,1096-237,1167
		c-56,23-162,33-238,22c-144-20-230-87-360-284c-203-306-352-618-492-1032c-52-154-79-220-84-210c-7,13-92,357-114,465
		c-6,27,7,63,76,220c247,563,411,1082,474,1497c25,163,23,419-4,557c-76,380-206,549-463,602c-146,30-296,14-415-44
		c-188-92-304-351-369-820c-24-171-24-615,0-820c33-287,74-539,153-947l57-291l-124-294c-199-471-230-548-256-637
		c-31-108-32-156-1-175c59-39,149-31,203,17c42,36,116,144,233,340c46,75,86,137,91,137c4,0,19-42,35-92c40-132,132-383,166-449
		c54-109,122-144,274-143c103,1,176,23,207,64c12,17,28,83,48,200c72,418,227,943,379,1285c64,146,218,435,246,464c8,8,17,13,20,10
		c10-10,24-393,30-809c9-625,28-907,77-1145c40-198,82-269,185-317c55-26,81-32,162-36c121-6,189,8,293,60c66,33,104,63,198,154
		l117,114l39-58c66-97,183-206,266-246c213-105,490-81,612,55c21,23,52,71,68,106c37,81,110,279,133,358c30,105,30,105,85,27
		c122-174,267-246,490-245c176,0,276,36,371,133c93,96,172,282,250,594c17,70,35,124,38,119c4-4,24-48,45-98
		c114-269,285-455,474-516c93-30,292-38,382-15c226,57,350,212,464,579c126,403,179,775,175,1214l-3,261l94,82
		c52,46,128,115,168,154l74,71l-9-175c-12-254-9-745,6-889c27-264,67-466,132-666c123-375,287-515,604-515c165,0,301,45,399,131
		c125,111,211,312,351,825c36,130,67,240,69,242c6,6,12-35,31-223c50-493,171-950,321-1207c69-120,197-246,297-294
		c208-98,476-76,602,50c135,135,329,592,449,1058c81,311,169,805,150,836c-38,61-227,69-284,12c-11-11-50-116-90-242
		c-158-494-215-661-283-833c-70-177-238-526-277-575l-20-25l-21,25c-35,42-106,192-147,312c-194,561-271,1331-229,2255
		c7,144,15,264,17,266c3,3,79-11,170-31l165-35l295-1c295-1,374,6,515,40c140,35,232,91,262,162c27,65-23,97-152,97
		c-66,0-86-4-115-22c-103-66-110-68-310-67c-117,1-222,7-287,17c-156,25-517,107-524,119c-4,6-5,25-3,42s8,92,14,166s22,236,35,360
		c14,124,27,250,30,280c8,77-15,119-75,141C15593,20142,15519,20149,15454,20140z M7255,19775c36-78,68-192,85-306
		c18-116,8-425-19-579c-48-267-222-874-241-839c-12,20-56,316-74,489c-41,398-24,759,50,1055c24,99,80,233,111,268c16,16,17,16,36,0
		C7214,19853,7238,19814,7255,19775z M12729,18655c31-87,56-198,69-314c10-83,5-92-67-134l-30-18l-36,48c-64,88-79,142-79,278
		c1,125,22,214,61,257c16,18,17,17,35-9C12692,18747,12713,18699,12729,18655z M11350,18077c30-15,66-35,79-46l25-19l-53-313
		c-68-409-140-768-191-951c-66-241-157-477-186-486c-14-3-83,137-113,228c-39,120-52,204-58,376c-17,493,106,991,293,1183
		c61,62,64,64,106,59C11276,18105,11320,18091,11350,18077z M9629,18034c23-78,19-341-7-484c-23-125-100-405-130-473l-19-42l-8,58
		c-12,96,1,520,19,622c35,188,96,380,119,372C9609,18085,9621,18061,9629,18034z M16745,15926c-53-17-96-40-117-62
		c-9-11-91-190-181-399c-263-606-422-955-438-955c-4,0-81,82-171,183c-649,726-723,787-953,787c-109,0-182-19-229-61
		c-64-56-60-95,59-584c98-403,150-598,300-1120c225-782,282-925,384-956c21-6,72-10,114-8c64,4,80,8,102,29c27,24,27,27,22,115
		c-10,171-106,627-283,1345c-68,278-127,513-130,523c-13,41,23,6,172-165c242-281,384-435,423-462c53-37,117-57,202-63
		c158-12,279,34,342,129c35,53,258,497,330,656c21,45,41,82,46,82c4,0,13-66,20-147c30-366,67-709,137-1273c38-310,148-827,191-903
		c31-53,82-72,198-72c83,0,106,4,135,21c56,33,62,52,55,194c-3,69-10,217-15,330c-6,126-27,343-54,565c-25,198-59,482-75,630
		c-29,254-41,384-91,985c-45,540-69,612-217,653C16953,15943,16804,15945,16745,15926z M13489,15796c-106-28-151-78-168-184
		c-27-167-101-941-141-1472c-50-683-57-1272-16-1498c21-116,47-169,90-187c49-21,152-19,196,3c49,24,57,57,75,300
		c18,251,43,546,50,588l5,31l198,41c108,23,253,51,322,63c113,18,125,19,136,4c6-8,40-91,74-183c99-264,179-462,213-525
		c38-73,82-98,182-105c80-5,140,8,180,40c26,21,27,24,22,87c-15,168-207,862-391,1406c-300,893-405,1167-529,1378
		c-72,122-134,179-222,206C13688,15813,13563,15816,13489,15796z M13956,14313c113-346,207-632,208-637c0-5-66-18-149-27
		c-82-10-206-27-275-39c-69-11-129-20-134-20c-9,0-9-3,39,480c52,517,86,844,90,858c3,6,7,12,9,12
		C13747,14940,13842,14658,13956,14313z M11270,15358c-68-35-75-57-74-233c2-204,49-644,133-1240c48-339,60-405,126-716
		c132-615,176-747,267-796c50-27,230-26,278,2c45,27,62,81,37,119c-20,29-21,35-92,608c-54,431-126,849-245,1433
		c-79,386-159,674-213,770C11446,15379,11355,15400,11270,15358z M7202,15320c-204-28-363-124-470-285c-72-107-97-186-97-310
		c0-91,3-106,31-165c46-97,125-175,348-342c243-183,341-264,435-364c263-276,385-582,353-884c-6-58-22-145-37-195
		c-27-98-110-274-132-282c-43-16-292,308-382,497c-54,111-70,185-52,243c28,93,28,95-20,117c-57,26-150,26-204,1
		c-49-23-110-82-138-136c-32-60-29-183,7-290c34-100,113-259,197-393c137-221,309-325,559-339c201-11,355,39,466,153
		c184,186,292,542,255,841c-33,268-159,513-387,752c-115,121-234,220-472,392c-212,154-278,215-309,280c-56,120-29,280,67,404
		c21,28,53,61,70,74l32,23l50-22c118-50,215-122,384-282c148-140,190-163,294-163c82,0,134,20,145,55c12,38-135,253-238,347
		C7741,15246,7445,15352,7202,15320z M8865,15064c-151-20-232-58-305-140c-70-80-142-273-178-474c-21-120-23-533-4-690
		c34-272,93-545,157-729c125-359,349-596,634-673c109-30,323-30,436,1c279,74,439,258,530,611c51,198,74,489,56,725
		c-32,425-115,685-296,930c-133,178-320,319-511,385C9192,15077,9060,15091,8865,15064z M8996,14861c5-5,41-23,81-39
		c145-61,260-157,363-303c160-227,234-496,247-899c11-343-36-626-139-838c-43-88-128-192-158-192c-48,0-209,189-277,325
		c-123,248-220,687-254,1154c-21,287,26,667,97,779C8972,14872,8981,14875,8996,14861z M15804,12180c-16-5-41-21-55-36
		c-22-23-24-33-22-113c4-200,94-649,188-938c2-7-55-40-142-83c-80-38-147-69-148-68c-1,2-27,104-58,228c-132,530-221,717-357,750
		c-66,16-160,8-202-17c-57-33-57-44,11-513c65-458,80-530,201-1008c87-341,131-486,164-535c47-71,189-105,300-73
		c75,22,109,54,102,98c-3,18-19,121-35,228c-17,107-42,268-56,358s-25,175-25,190c1,24,19,39,145,120c79,51,151,95,158,98
		c17,6,11,22,138-351c50-148,113-322,138-385c44-110,48-116,91-137c35-18,61-23,125-23s90,5,125,23c64,32,69,53,42,190
		c-23,119-247,1000-286,1127c-63,205-260,725-302,797c-14,24-39,50-56,59C15950,12186,15848,12193,15804,12180z M16440,12183
		c-30-11-50-37-50-64c0-58,131-820,165-964c160-665,290-1151,328-1219c30-56,74-76,165-76c75,0,127,15,150,43c13,15-3,138-53,397
		c-189,984-228,1151-344,1475c-100,280-147,376-196,399C16573,12189,16472,12195,16440,12183z M17355,12169c-264-24-409-213-375-486
		c12-91,57-195,115-261c21-24,86-80,144-125c320-246,527-523,636-849c84-255,85-415,2-505c-28-31-47-29-86,11c-40,41-103,61-174,53
		c-102-10-131-41-107-112c36-110,168-175,355-175c242,0,501,124,564,269c98,229-18,639-272,963c-124,159-254,279-455,423
		c-143,102-189,155-222,254c-26,80-36,201-21,256c21,75,21,75,113,13c46-32,128-96,183-144c54-48,114-93,132-100c42-18,95-18,138,0
		c28,12,35,21,35,42c0,86-165,291-315,390C17644,12154,17507,12183,17355,12169z M12193,12110c-91-19-99-34-90-179
		c8-118,26-241,122-824c41-252,75-466,75-475c0-14-2-14-14-2c-8,8-121,161-252,340c-262,359-330,445-421,537
		c-114,115-195,148-347,141c-164-7-234-63-221-177c9-84,149-777,211-1041c133-569,188-711,299-766c49-23,63-26,144-23
		c101,4,143,25,149,72c2,15-13,98-32,184c-19,87-64,295-100,463s-79,367-96,444c-17,76-29,140-27,143c5,4,63-78,342-482
		c226-328,445-615,505-663c106-84,363-79,451,9c37,37,25,117-85,594c-30,132-96,418-146,635c-157,680-230,962-266,1017
		C12365,12103,12275,12126,12193,12110z M13292,11854c-110-29-165-78-223-199c-230-477-33-1395,400-1856c134-144,269-235,405-274
		c44-13,86-16,180-13c134,4,187,20,239,74c62,62,62,65,61,349c-2,356-24,471-97,515c-79,48-316,68-387,32c-37-18-51-52-30-77
		c6-8,33-21,60-30c78-26,77-24,80-245c2-107,2-226,2-264l-2-70l-31,30c-41,39-154,190-212,284c-25,42-77,141-115,220
		c-224,470-311,959-222,1243c30,96,33,98,75,57c40-39,107-134,180-258c30-50,61-90,77-98c40-21,136-18,175,6c70,42,68,101-9,252
		c-92,180-225,296-376,327C13451,11874,13357,11872,13292,11854z M9882,11670c-46-10-81-32-124-77s-135-198-200-331
		c-33-68-64-120-69-115c-4,4-30,58-57,119c-59,135-112,224-153,258c-73,62-234,61-297-1c-24-24-25-28-19-121c10-170,120-637,202-855
		c71-191,218-535,290-682c91-185,132-241,204-277c48-25,65-28,150-28c162,1,217,40,180,130c-36,90-160,472-156,483
		c2,6,63-45,137-113c313-293,391-356,480-392c45-18,75-22,165-23c95,0,116,3,151,22c23,12,44,29,47,38c10,25,23,17,42-26
		c10-22,31-51,46-63c58-49,212-59,281-19c41,23,45,50,24,147c-8,39-40,188-71,331c-197,917-216,988-344,1310
		c-96,242-117,265-246,265c-94,0-137-21-149-73c-19-76,47-521,115-772c55-204,199-702,248-855c21-69,37-127,35-129c-2-3-14,5-27,16
		c-12,11-38,26-57,32c-38,12-84,61-342,367c-75,88-185,205-244,260c-184,168-254,237-254,249c0,7,25,81,55,165
		c78,214,174,523,187,601c13,81,0,116-52,141C10016,11673,9937,11681,9882,11670z M7320,11549c-383-27-818-92-897-132
		c-64-33-69-77-15-114c55-36,129-46,337-42l190,4l6-240c11-389,40-664,109-1012c85-431,168-744,221-829c41-67,109-96,228-96
		c87,0,145,14,179,45c30,27,32,124,3,171c-28,45-77,372-131,866c-29,262-145,866-212,1097c-6,23-9,45-5,49c13,13,345,45,497,48
		c154,3,197,11,232,43c25,23,22,45-10,76c-59,56-182,78-440,76C7515,11558,7383,11553,7320,11549z M8160,11257
		c-111-31-154-84-194-237c-53-203-60-286-61-680c0-385,6-471,50-699c40-203,90-332,146-373c32-24,121-34,177-19c76,21,76,24,82,360
		l5,294l180,63c99,35,183,63,187,63c4,1,44-61,89-136c193-322,276-422,370-442c87-19,162-8,199,29c25,25,24,29-130,350
		c-67,140-167,356-222,480c-152,347-337,681-455,825c-40,48-68,71-119,96c-60,30-78,34-163,36C8245,11269,8186,11264,8160,11257z
		 M8470,10530c35-74,87-179,117-233s53-100,51-102c-4-4-237-57-258-59c-18-1-17-23-7,278c9,238,13,275,27,259
		C8405,10669,8436,10604,8470,10530z M11573,8890c-48-11-83-38-99-75c-24-57-62-292-80-490c-9-104-18-191-19-193c-2-2-43-10-91-17
		c-288-47-389-85-368-138c9-24,79-47,145-47c33,0,107,7,165,16s107,14,110,12c7-7-71-298-136-508c-81-262-247-748-262-765
		c-10-11-155,130-240,235c-34,41-77,109-97,150c-34,71-36,80-36,180c0,91,3,111,24,150c29,56,50,80,69,80c22,0,137-57,169-84
		c39-33,83-40,127-22c57,24,44,79-33,149c-147,133-411,154-575,46c-89-60-157-172-173-287c-3-24,0-110,7-189c11-117,11-195,2-402
		c-18-386-66-849-91-874c-16-16-170,220-286,436c-30,56-95,194-145,306c-49,113-102,218-117,233c-30,32-54,39-195,64
		c-66,12-127,15-197,12c-91-4-108-9-175-42c-178-87-295-318-314-617c-9-133,0-295,23-425c17-99,17-100-5-179
		c-40-145-116-287-204-383c-64-70-69-70-131-17c-131,111-295,340-416,577l-72,143l47,245c105,554,151,1043,127,1340
		c-30,352-104,621-233,847c-54,94-151,201-211,231c-146,73-355,42-427-63c-41-59-75-169-96-305c-24-155-24-533,0-749
		c17-161,71-483,106-643c64-284,174-642,268-865c29-68,52-134,52-147c0-23-16-123-106-676c-19-118-44-252-54-298
		c-33-141-28-152,67-152c55,0,66,3,96,30c65,57,128,213,198,495c22,88,42,166,44,173c3,8,23-10,51-45c66-83,190-207,254-257
		c128-98,207-126,354-126c71,0,121,5,153,16c103,35,233,150,308,273c20,34,39,61,41,61c3,0,24-13,47-28c78-53,131-67,257-67
		c105,0,120,3,176,28c34,16,76,43,92,60c71,73,108,223,119,475c3,78,9,145,13,147s36-37,72-88c88-124,213-265,272-304
		c63-43,103-53,211-53c145,0,209,45,235,163c34,155,58,439,67,785c3,138,9,252,13,252c14,0,330-329,330-344c0-9-27-84-61-168
		c-216-542-265-817-174-975c80-136,278-223,510-223c135,0,228,19,322,65c215,106,283,351,187,682c-47,163-187,424-326,606l-61,81
		l31,85c17,47,61,177,99,289c37,111,71,202,74,202c4,0,9-28,13-62c4-35,23-159,42-277c70-424,168-728,330-1020
		c143-257,198-304,366-309c118-5,183,13,226,62c85,97,214,832,199,1131c-7,146-19,183-62,201c-46,19-113,18-155-4l-35-17l-7-95
		c-15-211-149-850-178-850c-7,0-64,120-100,210c-36,92-107,332-135,454c-86,388-137,847-151,1373l-7,252l24,10c13,6,127,29,253,51
		s241,46,255,53c17,8,27,22,29,40c3,23-2,30-32,42c-49,21-133,18-336-9c-96-14-177-23-179-20c-6,6,17,395,31,532
		c12,114,12,115-11,133C11738,8896,11650,8909,11573,8890z M7498,8276c55-111,127-327,146-441c36-207,44-459,26-735
		c-13-204-41-463-50-473c-14-16-112,393-155,647c-28,168-61,465-70,626c-10,183,23,493,49,471C7451,8365,7475,8322,7498,8276z
		 M9204,6547c21-393-5-977-43-977c-12,0-59,165-76,265c-32,196-37,295-20,438c9,74,25,167,36,208c22,80,75,199,88,199
		C9194,6680,9200,6620,9204,6547z M11106,5876c119-251,150-449,93-603c-25-66-49-96-95-118c-31-14-42-15-79-5c-56,16-113,64-136,114
		c-23,51-25,163-5,270c29,150,140,471,158,459C11048,5990,11076,5937,11106,5876z M17360,8170c-107-14-197-71-258-165
		c-14-22-42-82-62-134l-37-93l-26,45c-51,87-130,127-252,127c-131,0-207-46-259-156c-34-71-88-258-111-379c-30-167-26-165-72-25
		c-23,69-56,172-73,230c-43,140-61,173-107,196c-55,27-185,26-232-1l-35-20l-1-560c-1-563-5-649-40-811c-26-117-32-119-90-22
		c-68,115-150,296-251,560c-138,360-119,342-369,332c-208-8-253-21-337-102c-96-91-167-253-199-447c-6-38-11-144-10-234
		c0-149-3-173-30-280c-40-155-52-194-113-346c-48-123-51-128-54-90c-2,22,4,202,14,400c22,425,24,927,5,1065c-31,236-89,401-161,463
		c-48,41-92,56-185,64c-88,7-182-15-248-60c-61-41-151-154-216-271c-48-87-135-293-162-383c-7-24-15-43-19-43c-3,0-19,55-34,122
		c-43,187-101,360-130,387c-49,46-177,36-197-16c-30-79,17-525,111-1043c57-317,142-722,154-739c39-51,228-70,313-32
		c73,34,73,35,21,271c-29,130-30,142-25,310c8,261,57,520,149,789c58,171,185,428,203,410c2-3,12-47,21-99c22-126,30-666,15-955
		c-19-343-25-827-12-935c16-129,49-196,112-228c91-46,251-47,338-2c22,10,55,39,76,62c46,54,164,291,209,423c20,55,39,100,43,100
		s39-16,78-35l70-35h145h145l62,34c94,51,147,133,179,281c9,41,18,77,20,79s24-13,48-33c25-20,71-49,103-64c51-23,73-27,173-30
		c99-3,123-1,174,18c138,52,205,189,222,459c4,56,10,101,13,101s27-48,54-107c65-148,80-171,130-193c58-27,195-27,254-1
		c61,28,64,39,53,187c-13,172-12,477,0,605c13,130,40,279,50,279c4,0,15-39,24-87c35-180,143-568,185-666c17-40,28-51,67-69
		c83-36,247-24,289,22c18,19,18,28,4,163c-20,197-17,569,4,717c24,161,95,410,118,410c5,0,13-17,19-38c42-158,55-405,41-791
		c-19-527-11-732,35-890c39-137,123-239,232-283c51-20,74-23,202-23c126,1,152,4,199,23c30,12,55,21,56,19c1-1,27-40,58-87
		c89-135,138-184,225-227c73-37,79-38,181-38c98,0,111,3,172,32c55,26,75,42,117,97c87,116,181,318,251,541c37,118,95,401,110,535
		c17,149,32,401,25,412c-12,18-73,38-119,38c-47,0-107-20-119-39c-4-6-29-122-56-259c-58-288-118-508-191-689
		c-54-137-136-302-173-348l-23-28l-37,61c-20,34-62,114-92,178l-56,116l40,96c127,309,179,628,154,953c-23,292-73,415-197,482
		c-34,19-56,22-155,22c-100,0-121-3-161-23c-129-64-229-213-263-391l-13-66l-6,130c-9,165-32,347-58,450c-53,206-136,293-302,315
		c-39,5-74,9-77,8C17417,8178,17390,8174,17360,8170z M18330,7430c21-96,24-322,6-457c-20-154-36-227-46-216c-11,12-40,212-47,324
		c-3,55-1,138,7,195c13,109,47,231,60,218C18314,7489,18323,7460,18330,7430z M15074,6970c34-119,36-133,36-272c0-217-52-574-89-611
		c-12-12-52,113-76,234c-22,114-30,343-16,451c20,147,82,352,101,331C15034,7099,15054,7039,15074,6970z M17876,6820
		c25-168,88-399,158-578l25-62l-40-50c-67-85-81-85-117,1c-66,154-86,442-54,809c6,70,7,76,10,35C17859,6948,17867,6878,17876,6820z
		 M13516,4609c-166-34-413-215-641-470c-269-300-385-483-485-768c-27-77-47-120-55-117c-6,2-106,65-221,138
		c-305,196-456,275-645,339c-453,151-799,74-799-180c0-151,143-385,380-621c200-201,506-418,930-663c354-204,839-410,1055-448
		c39-7,83-22,98-33c24-18,44-21,127-21c119,0,137,10,192,106c38,66,45,94,184,748c19,90,55,251,79,358c65,281,203,976,221,1117
		c20,149,15,323-10,381c-40,94-120,136-266,141C13608,4618,13543,4615,13516,4609z"/>
</g>
</svg>
