<?xml version="1.0" encoding="utf-8"?>
<!-- Generator: Adobe Illustrator 25.2.0, SVG Export Plug-In . SVG Version: 6.00 Build 0)  -->
<svg version="1.1" id="Layer_1" xmlns="http://www.w3.org/2000/svg" xmlns:xlink="http://www.w3.org/1999/xlink" x="0px" y="0px"
	 viewBox="0 0 2200 2200" style="enable-background:new 0 0 2200 2200;" xml:space="preserve">
<g>
	<path d="M383.67,1896.41c0.06,0.69,0.02,0.87-0.22,0.98c-0.33,0.17-1.24,0.33-5.04,0.91c-1.4,0.22-3.35,0.54-4.33,0.71
		c-0.99,0.17-2.33,0.39-2.98,0.49c-1.24,0.17-4.34,0.68-5.83,0.95c-0.47,0.08-1.29,0.22-1.81,0.31c-0.96,0.16-3.18,0.58-7.4,1.42
		c-2.05,0.41-3.73,0.8-8.34,1.97c-2.73,0.68-8.46,2.55-11.2,3.65c-1.37,0.55-3.7,1.7-5.02,2.47c-1.59,0.95-5.89,3.75-6.93,4.52
		c-0.43,0.33-1.1,0.82-1.48,1.1c-3.29,2.46-11.82,10.68-15.97,15.4c-1.16,1.32-2.86,3.64-3.92,5.32c-1.26,2-4.06,7.59-4.06,8.08
		c0,0.08-0.13,0.44-0.3,0.82c-0.42,0.94-0.88,2.24-1.24,3.42c-0.76,2.57-0.96,3.28-1.12,4.01c-0.09,0.42-0.5,2.12-0.9,3.78
		c-0.39,1.64-0.82,3.45-0.94,4.02c-0.14,0.57-0.3,1.2-0.36,1.42c-0.08,0.22-0.22,0.77-0.31,1.23c-0.09,0.44-0.25,1.15-0.33,1.57
		c-0.14,0.66-0.88,3.87-1.26,5.46c-0.08,0.35-0.27,1.2-0.41,1.89c-0.14,0.69-0.31,1.51-0.38,1.81c-0.06,0.3-0.17,0.8-0.24,1.1
		c-0.06,0.3-0.24,1.15-0.39,1.89c-0.17,0.74-0.49,2.3-0.72,3.46c-0.22,1.17-0.47,2.44-0.57,2.83c-0.08,0.39-0.28,1.45-0.44,2.36
		c-0.17,0.91-0.38,1.97-0.47,2.36s-0.22,1.02-0.3,1.42c-0.08,0.39-0.25,1.28-0.38,1.97c-0.14,0.69-0.39,2.11-0.58,3.15
		c-0.17,1.04-0.36,2.06-0.41,2.28c-0.19,0.82-0.41,2.2-0.71,4.41c-0.17,1.26-0.38,2.74-0.47,3.31c-0.25,1.64-0.43,3.16-0.77,6.69
		c-0.41,4.27-0.6,6.05-0.77,7.4c-0.06,0.6-0.25,2.1-0.39,3.31c-0.63,5.26-1.02,7.72-1.64,10.39c-0.5,2.16-0.85,2.58-1.67,2.05
		c-0.68-0.44-0.87-1.13-1.05-3.72c-0.09-1.34-0.24-2.82-0.31-3.29c-0.14-0.8-0.38-3.31-0.76-8.03c-0.19-2.42-0.41-3.45-0.77-3.72
		c-0.3-0.21-0.46-1.37-0.82-6.05c-0.24-2.98-0.6-4.85-0.94-4.96c-0.36-0.11-0.39-0.33-0.87-5.45c-0.38-4.27-0.6-5.35-1.07-5.54
		c-0.16-0.06-0.27-0.45-0.33-1.16c-0.47-4.61-0.68-5.97-1.43-9.1c-0.21-0.87-0.49-2.5-0.63-3.62c-0.14-1.13-0.55-3.46-0.9-5.2
		c-0.35-1.73-0.8-4.22-0.99-5.51c-0.61-3.91-0.69-4.28-1.5-7.42c-0.98-3.86-2.53-8.56-4.12-12.5c-1.81-4.49-2.06-5.05-3.81-8.66
		c-1.51-3.07-1.54-3.13-2.82-5.1c-1.46-2.22-2.5-3.46-5.21-6.16c-2.52-2.5-4.31-4.06-7.5-6.47c-5.35-4.05-8.86-6.24-14.56-9.05
		c-8.55-4.22-15.26-6.8-22.99-8.83c-0.35-0.1-0.8-0.22-1.02-0.28c-0.36-0.13-1.01-0.28-4.41-1.09c-0.74-0.19-2.44-0.54-3.78-0.8
		c-1.34-0.27-2.75-0.54-3.15-0.61c-2-0.39-2.65-0.52-4.96-0.96c-1.39-0.25-2.83-0.54-3.23-0.63c-0.39-0.08-1.84-0.38-3.23-0.65
		c-4.71-0.9-10.77-2.49-12.03-3.13c-0.77-0.39-0.91-0.61-0.83-1.42l0.06-0.63h1.92c1.04,0,3.26-0.06,4.9-0.16
		c1.65-0.08,4.41-0.24,6.14-0.31c4.19-0.22,9.89-0.6,11.65-0.79c4.38-0.46,9.18-1.07,12.05-1.56c0.39-0.08,1.87-0.31,3.31-0.55
		c3.18-0.5,3.4-0.55,7.32-1.45c3.51-0.82,3.34-0.77,6.06-1.54c2.79-0.79,7.67-2.46,9.53-3.24c1.61-0.69,4.17-1.89,5.2-2.41
		c8.77-4.52,16.97-12.09,21.02-19.4c1.18-2.14,3.45-7.1,3.86-8.42c0.06-0.22,0.2-0.61,0.32-0.87c0.28-0.63,1.02-2.82,1.18-3.43
		c0.08-0.28,0.35-1.24,0.63-2.16c0.27-0.91,0.55-1.94,0.62-2.28c0.08-0.35,0.42-1.75,0.79-3.12c0.55-2.19,1.06-4.58,1.43-6.88
		c0.21-1.21,1.12-7.26,1.28-8.39c0.14-1.09,0.32-2.33,0.6-4.28c0.09-0.61,0.24-1.64,0.33-2.28c0.08-0.65,0.24-1.64,0.31-2.21
		c0.17-1.02,0.35-2.14,0.63-4.09c0.09-0.57,0.22-1.56,0.31-2.2c0.16-1.26,0.39-2.94,0.65-4.49c0.36-2.17,0.57-3.59,1.56-11.02
		c0.09-0.61,0.22-1.61,0.32-2.2c0.08-0.61,0.27-1.98,0.39-3.07c0.13-1.09,0.27-2.19,0.32-2.44c0.06-0.42,0.14-1.09,0.55-4.64
		c0.06-0.65,0.24-2.06,0.36-3.15c0.14-1.09,0.3-2.53,0.36-3.21c0.08-1.02,0.17-1.32,0.49-1.64c0.36-0.36,0.46-0.38,1.57-0.27
		c1.45,0.13,2.13,0.39,2.55,1.01c0.68,0.93,0.83,1.6,0.98,4.09c0.31,5.02,0.47,7.39,0.61,8.83c0.06,0.82,0.21,2.27,0.3,3.23
		c0.1,0.94,0.2,1.98,0.25,2.28c0.05,0.3,0.21,1.72,0.33,3.15c0.14,1.43,0.32,3.02,0.38,3.54c0.32,2.22,0.46,3.28,0.69,5.27
		c0.46,3.89,0.58,4.8,0.72,5.48c0.09,0.36,0.16,0.88,0.16,1.15c0,0.25,0.06,0.77,0.14,1.13c0.17,0.8,0.41,2.39,0.74,4.99
		c0.24,1.95,0.35,2.66,0.68,4.49c0.24,1.37,0.47,2.84,0.65,4.09c0.08,0.6,0.22,1.5,0.31,1.97c0.17,0.91,0.41,2.3,0.63,3.46
		c0.35,1.97,0.8,4.19,1.09,5.31c0.17,0.68,0.42,1.69,0.57,2.25c0.85,3.48,1.57,5.81,2.94,9.6c0.32,0.9,1.5,3.64,2.42,5.64
		c0.3,0.65,0.54,1.2,0.54,1.23c0,0.31,3.24,6.52,3.97,7.57c0.24,0.36,0.44,0.69,0.44,0.74c0,0.06,0.41,0.68,0.9,1.4
		c3.59,5.21,7.42,9.32,10.75,11.56c5.12,3.42,9.51,5.21,17.01,6.96c1.16,0.27,2.41,0.57,2.75,0.65c0.35,0.08,1.02,0.22,1.5,0.31
		c0.47,0.09,2.28,0.44,4.01,0.77c1.73,0.35,3.43,0.66,3.78,0.71c0.35,0.05,1.45,0.24,2.44,0.43c0.99,0.17,2.2,0.38,2.68,0.46
		c0.47,0.08,1.51,0.25,2.28,0.38c0.79,0.13,2.23,0.35,3.23,0.49c2.21,0.32,3.56,0.52,4.8,0.71c1.29,0.21,4.93,0.6,7.32,0.79
		c1.09,0.08,2.36,0.19,2.83,0.24c0.47,0.05,3.53,0.16,6.77,0.24c6.35,0.14,7.53,0.25,8.27,0.69
		C382.9,1894.37,383.59,1895.46,383.67,1896.41z M1875.82,1717.59c3.45,2.61,5.4,4.3,8.13,7.02c2.94,2.92,4.06,4.27,5.65,6.68
		c1.39,2.14,1.42,2.2,3.06,5.53c1.9,3.91,2.17,4.53,4.13,9.39c1.73,4.27,3.42,9.38,4.47,13.56c0.87,3.4,0.96,3.81,1.62,8.05
		c0.2,1.4,0.7,4.1,1.08,5.98c0.38,1.88,0.82,4.41,0.97,5.64c0.15,1.21,0.46,2.99,0.68,3.93c0.82,3.4,1.04,4.87,1.55,9.87
		c0.07,0.77,0.19,1.2,0.36,1.26c0.51,0.21,0.75,1.38,1.16,6.01c0.51,5.55,0.55,5.79,0.94,5.91c0.38,0.12,0.77,2.15,1.02,5.38
		c0.39,5.07,0.57,6.34,0.89,6.56c0.39,0.29,0.63,1.4,0.84,4.03c0.41,5.12,0.67,7.84,0.82,8.71c0.09,0.51,0.24,2.12,0.34,3.57
		c0.2,2.8,0.41,3.55,1.14,4.03c0.89,0.58,1.26,0.12,1.81-2.22c0.67-2.9,1.09-5.57,1.78-11.27c0.15-1.31,0.36-2.94,0.43-3.59
		c0.19-1.47,0.39-3.4,0.84-8.03c0.38-3.83,0.56-5.48,0.84-7.26c0.1-0.61,0.32-2.22,0.51-3.59c0.33-2.39,0.56-3.9,0.77-4.78
		c0.05-0.24,0.25-1.35,0.44-2.48c0.2-1.13,0.48-2.66,0.63-3.42c0.14-0.75,0.33-1.71,0.41-2.14c0.09-0.43,0.22-1.11,0.32-1.54
		c0.1-0.43,0.33-1.57,0.51-2.56c0.17-0.99,0.39-2.14,0.48-2.56c0.1-0.43,0.38-1.81,0.61-3.07c0.26-1.26,0.6-2.96,0.79-3.76
		c0.17-0.8,0.36-1.72,0.43-2.05c0.07-0.32,0.19-0.87,0.26-1.2c0.07-0.32,0.26-1.21,0.41-1.96c0.15-0.75,0.36-1.67,0.44-2.05
		c0.41-1.72,1.21-5.21,1.37-5.93c0.08-0.46,0.25-1.23,0.36-1.71c0.1-0.5,0.26-1.09,0.34-1.33c0.07-0.24,0.24-0.92,0.39-1.54
		c0.14-0.61,0.6-2.58,1.02-4.36c0.43-1.79,0.87-3.64,0.97-4.1c0.17-0.8,0.39-1.57,1.21-4.35c0.39-1.28,0.89-2.68,1.35-3.71
		c0.19-0.41,0.32-0.8,0.32-0.89c0-0.53,3.04-6.59,4.41-8.76c1.14-1.83,2.99-4.34,4.25-5.77c4.49-5.12,13.75-14.04,17.32-16.71
		c0.41-0.31,1.14-0.84,1.6-1.2c1.13-0.84,5.79-3.88,7.52-4.9c1.43-0.84,3.96-2.08,5.45-2.68c2.97-1.2,9.19-3.23,12.15-3.96
		c5.01-1.26,6.83-1.69,9.05-2.14c4.58-0.9,6.99-1.37,8.03-1.54c0.56-0.1,1.45-0.26,1.96-0.34c1.6-0.29,4.97-0.84,6.32-1.03
		c0.7-0.1,2.15-0.34,3.23-0.53c1.06-0.19,3.18-0.53,4.7-0.77c4.12-0.63,5.11-0.8,5.46-0.99c0.26-0.12,0.31-0.31,0.24-1.06
		c-0.09-1.03-0.84-2.2-1.76-2.75c-0.8-0.48-2.08-0.6-8.97-0.75c-3.52-0.09-6.83-0.21-7.34-0.26c-0.51-0.05-1.9-0.17-3.07-0.26
		c-2.6-0.2-6.54-0.63-7.94-0.85c-1.35-0.2-2.82-0.43-5.21-0.77c-1.08-0.15-2.65-0.39-3.5-0.53c-0.84-0.14-1.96-0.32-2.48-0.41
		s-1.83-0.31-2.9-0.5c-1.08-0.2-2.27-0.41-2.65-0.46c-0.38-0.05-2.22-0.39-4.1-0.77c-1.88-0.36-3.84-0.74-4.35-0.84
		c-0.51-0.1-1.25-0.26-1.62-0.34c-0.38-0.08-1.73-0.41-2.99-0.7c-8.13-1.9-12.9-3.84-18.45-7.55c-3.62-2.42-7.77-6.88-11.67-12.54
		c-0.53-0.79-0.97-1.45-0.97-1.52c0-0.05-0.22-0.41-0.48-0.8c-0.79-1.14-4.3-7.88-4.3-8.22c0-0.03-0.26-0.63-0.58-1.33
		c-1.01-2.17-2.29-5.14-2.63-6.12c-1.49-4.12-2.27-6.64-3.19-10.42c-0.16-0.61-0.43-1.71-0.62-2.44c-0.31-1.21-0.8-3.62-1.18-5.76
		c-0.24-1.26-0.5-2.77-0.68-3.76c-0.1-0.51-0.26-1.49-0.34-2.14c-0.19-1.37-0.44-2.96-0.7-4.44c-0.36-1.98-0.48-2.75-0.73-4.87
		c-0.36-2.82-0.61-4.54-0.8-5.41c-0.09-0.39-0.15-0.96-0.15-1.23c0-0.29-0.07-0.85-0.17-1.25c-0.15-0.73-0.29-1.73-0.79-5.94
		c-0.26-2.17-0.41-3.31-0.75-5.72c-0.07-0.57-0.26-2.29-0.41-3.84c-0.14-1.55-0.31-3.09-0.36-3.42c-0.05-0.32-0.17-1.45-0.27-2.48
		c-0.1-1.04-0.26-2.61-0.32-3.5c-0.16-1.57-0.33-4.13-0.67-9.58c-0.15-2.7-0.32-3.43-1.06-4.44c-0.46-0.67-1.2-0.96-2.77-1.09
		c-1.21-0.12-1.32-0.1-1.71,0.29c-0.34,0.34-0.44,0.67-0.53,1.78c-0.07,0.74-0.24,2.31-0.39,3.49c-0.14,1.18-0.32,2.72-0.39,3.42
		c-0.44,3.86-0.53,4.58-0.6,5.04c-0.05,0.27-0.2,1.47-0.34,2.65c-0.14,1.18-0.34,2.66-0.43,3.33c-0.1,0.65-0.24,1.73-0.34,2.39
		c-1.08,8.06-1.3,9.6-1.69,11.96c-0.27,1.67-0.53,3.5-0.7,4.87c-0.1,0.7-0.24,1.78-0.34,2.39c-0.31,2.12-0.5,3.33-0.68,4.44
		c-0.09,0.61-0.26,1.69-0.34,2.39c-0.1,0.7-0.26,1.81-0.36,2.48c-0.31,2.12-0.5,3.47-0.65,4.65c-0.17,1.23-1.16,7.79-1.38,9.1
		c-0.41,2.49-0.96,5.09-1.55,7.46c-0.39,1.49-0.77,3.01-0.85,3.38c-0.07,0.38-0.38,1.49-0.67,2.48c-0.31,0.99-0.6,2.03-0.68,2.34
		c-0.17,0.67-0.97,3.04-1.28,3.72c-0.12,0.27-0.27,0.7-0.34,0.94c-0.44,1.43-2.9,6.82-4.19,9.14c-4.39,7.93-13.29,16.14-22.8,21.04
		c-1.11,0.56-3.9,1.86-5.64,2.61c-2.02,0.85-7.31,2.67-10.33,3.52c-2.95,0.84-2.77,0.79-6.58,1.67c-4.25,0.97-4.49,1.03-7.94,1.57
		c-1.55,0.26-3.16,0.51-3.59,0.6c-3.11,0.53-8.32,1.2-13.07,1.69c-1.91,0.2-8.1,0.61-12.64,0.85c-1.88,0.08-4.87,0.26-6.66,0.34
		c-1.78,0.1-4.19,0.17-5.31,0.17h-2.08l-0.07,0.68c-0.08,0.87,0.07,1.11,0.91,1.54c1.37,0.7,7.94,2.42,13.05,3.4
		c1.5,0.29,3.07,0.61,3.5,0.7c0.43,0.1,2,0.41,3.5,0.68c2.51,0.48,3.21,0.61,5.38,1.04c0.43,0.09,1.96,0.38,3.42,0.67
		c1.45,0.29,3.3,0.67,4.1,0.87c3.69,0.87,4.39,1.04,4.78,1.18c0.24,0.07,0.73,0.2,1.11,0.31c8.39,2.2,15.66,5,24.94,9.58
		C1866.21,1710.83,1870.02,1713.2,1875.82,1717.59z M2037.85,1984.25c-0.07-0.82-0.67-1.76-1.4-2.19c-0.64-0.38-1.66-0.48-7.15-0.6
		c-2.81-0.07-5.45-0.16-5.86-0.2c-0.41-0.04-1.51-0.14-2.45-0.2c-2.07-0.16-5.22-0.5-6.34-0.68c-1.08-0.16-2.25-0.34-4.15-0.61
		c-0.86-0.12-2.11-0.31-2.79-0.42c-0.67-0.11-1.57-0.26-1.97-0.33c-0.41-0.07-1.46-0.25-2.32-0.4c-0.86-0.16-1.81-0.33-2.11-0.37
		c-0.3-0.04-1.77-0.31-3.27-0.61c-1.5-0.29-3.07-0.59-3.47-0.67c-0.41-0.08-0.99-0.2-1.29-0.27c-0.3-0.07-1.38-0.33-2.38-0.56
		c-6.49-1.51-10.29-3.07-14.71-6.02c-2.89-1.93-6.2-5.49-9.31-10c-0.42-0.63-0.78-1.16-0.78-1.21c0-0.04-0.18-0.33-0.38-0.64
		c-0.63-0.91-3.43-6.28-3.43-6.55c0-0.03-0.2-0.5-0.46-1.06c-0.8-1.73-1.82-4.1-2.1-4.88c-1.18-3.28-1.81-5.3-2.55-8.31
		c-0.12-0.49-0.34-1.36-0.49-1.95c-0.25-0.97-0.64-2.89-0.94-4.59c-0.19-1.01-0.4-2.21-0.54-3c-0.08-0.41-0.2-1.18-0.27-1.7
		c-0.15-1.09-0.35-2.36-0.56-3.54c-0.29-1.58-0.38-2.19-0.59-3.88c-0.29-2.25-0.49-3.62-0.64-4.32c-0.07-0.31-0.12-0.76-0.12-0.98
		c0-0.23-0.05-0.68-0.14-0.99c-0.12-0.59-0.23-1.38-0.63-4.74c-0.21-1.73-0.33-2.64-0.6-4.56c-0.05-0.45-0.2-1.83-0.33-3.07
		c-0.11-1.24-0.24-2.47-0.29-2.72c-0.04-0.26-0.14-1.16-0.22-1.98c-0.08-0.83-0.2-2.08-0.26-2.79c-0.12-1.25-0.26-3.3-0.53-7.64
		c-0.12-2.15-0.26-2.74-0.84-3.54c-0.37-0.53-0.95-0.76-2.21-0.87c-0.97-0.1-1.05-0.08-1.36,0.23c-0.27,0.27-0.35,0.53-0.42,1.42
		c-0.06,0.59-0.19,1.84-0.31,2.78c-0.11,0.94-0.26,2.17-0.31,2.73c-0.35,3.08-0.42,3.65-0.48,4.02c-0.04,0.22-0.16,1.17-0.27,2.11
		c-0.11,0.94-0.27,2.12-0.34,2.66c-0.08,0.52-0.19,1.38-0.27,1.91c-0.86,6.43-1.03,7.66-1.35,9.54c-0.22,1.34-0.42,2.79-0.56,3.88
		c-0.08,0.56-0.19,1.42-0.27,1.91c-0.24,1.69-0.39,2.66-0.54,3.54c-0.07,0.49-0.2,1.35-0.27,1.91c-0.08,0.56-0.21,1.44-0.29,1.98
		c-0.25,1.69-0.4,2.77-0.52,3.71c-0.14,0.98-0.93,6.21-1.1,7.26c-0.33,1.99-0.76,4.06-1.24,5.95c-0.31,1.19-0.61,2.4-0.68,2.7
		c-0.06,0.3-0.3,1.19-0.53,1.98c-0.25,0.79-0.48,1.62-0.55,1.87c-0.14,0.53-0.78,2.43-1.02,2.97c-0.1,0.22-0.22,0.56-0.27,0.75
		c-0.35,1.14-2.32,5.44-3.34,7.29c-3.5,6.32-10.6,12.88-18.19,16.78c-0.89,0.45-3.11,1.48-4.5,2.08c-1.61,0.68-5.83,2.12-8.24,2.81
		c-2.36,0.67-2.21,0.63-5.24,1.34c-3.39,0.78-3.58,0.82-6.33,1.25c-1.24,0.21-2.52,0.41-2.86,0.48c-2.48,0.42-6.63,0.95-10.42,1.35
		c-1.53,0.16-6.46,0.49-10.08,0.68c-1.5,0.07-3.88,0.2-5.31,0.27c-1.42,0.08-3.34,0.14-4.24,0.14h-1.66l-0.05,0.54
		c-0.07,0.69,0.05,0.89,0.72,1.23c1.09,0.56,6.34,1.93,10.41,2.71c1.2,0.23,2.45,0.49,2.79,0.56c0.34,0.08,1.59,0.33,2.79,0.54
		c2,0.38,2.56,0.49,4.29,0.83c0.34,0.07,1.57,0.3,2.73,0.53c1.16,0.23,2.63,0.53,3.27,0.69c2.94,0.69,3.5,0.83,3.82,0.94
		c0.19,0.05,0.58,0.16,0.88,0.25c6.69,1.76,12.49,3.99,19.89,7.64c4.93,2.44,7.97,4.33,12.6,7.83c2.75,2.08,4.31,3.43,6.49,5.6
		c2.34,2.33,3.24,3.41,4.51,5.33c1.1,1.7,1.13,1.76,2.44,4.41c1.51,3.12,1.73,3.61,3.3,7.49c1.38,3.41,2.72,7.48,3.57,10.82
		c0.69,2.71,0.76,3.04,1.29,6.42c0.16,1.12,0.56,3.27,0.86,4.77c0.3,1.5,0.65,3.51,0.78,4.5c0.12,0.97,0.37,2.38,0.54,3.13
		c0.65,2.71,0.83,3.88,1.24,7.88c0.05,0.61,0.15,0.95,0.29,1.01c0.41,0.16,0.6,1.1,0.93,4.8c0.41,4.43,0.44,4.62,0.75,4.71
		c0.3,0.1,0.61,1.72,0.82,4.29c0.32,4.05,0.45,5.05,0.71,5.23c0.31,0.23,0.5,1.12,0.67,3.21c0.33,4.09,0.53,6.25,0.65,6.95
		c0.07,0.41,0.19,1.69,0.27,2.85c0.16,2.23,0.33,2.83,0.91,3.22c0.71,0.46,1.01,0.09,1.44-1.77c0.53-2.32,0.87-4.44,1.42-8.99
		c0.12-1.05,0.29-2.34,0.34-2.86c0.15-1.17,0.31-2.71,0.67-6.4c0.3-3.05,0.45-4.37,0.67-5.79c0.08-0.49,0.26-1.77,0.41-2.86
		c0.26-1.91,0.45-3.11,0.61-3.82c0.04-0.19,0.2-1.08,0.35-1.97c0.16-0.9,0.38-2.13,0.5-2.73c0.11-0.6,0.26-1.36,0.33-1.7
		c0.07-0.34,0.18-0.89,0.26-1.23c0.08-0.34,0.26-1.25,0.41-2.04c0.14-0.79,0.31-1.7,0.38-2.04c0.08-0.34,0.3-1.44,0.49-2.45
		c0.2-1.01,0.48-2.36,0.63-3c0.14-0.64,0.29-1.38,0.34-1.63c0.06-0.26,0.15-0.69,0.2-0.95c0.06-0.26,0.21-0.97,0.33-1.57
		c0.12-0.6,0.29-1.33,0.35-1.63c0.33-1.37,0.97-4.16,1.09-4.73c0.07-0.37,0.2-0.98,0.29-1.36c0.08-0.4,0.2-0.87,0.27-1.06
		c0.06-0.19,0.19-0.74,0.31-1.23c0.11-0.49,0.48-2.06,0.82-3.47c0.34-1.43,0.69-2.9,0.78-3.27c0.14-0.64,0.31-1.25,0.97-3.47
		c0.31-1.02,0.71-2.14,1.08-2.96c0.15-0.33,0.26-0.64,0.26-0.71c0-0.42,2.42-5.26,3.52-6.99c0.91-1.46,2.38-3.46,3.39-4.6
		c3.58-4.09,10.97-11.2,13.82-13.32c0.33-0.24,0.91-0.67,1.28-0.95c0.9-0.67,4.62-3.09,5.99-3.91c1.14-0.67,3.16-1.66,4.35-2.14
		c2.37-0.95,7.33-2.58,9.69-3.16c3.99-1.01,5.45-1.35,7.22-1.7c3.65-0.72,5.57-1.09,6.4-1.23c0.45-0.08,1.16-0.2,1.57-0.27
		c1.28-0.23,3.97-0.67,5.04-0.82c0.56-0.08,1.72-0.27,2.57-0.42c0.84-0.15,2.53-0.42,3.75-0.61c3.28-0.5,4.07-0.64,4.36-0.79
		C2037.86,1985,2037.9,1984.85,2037.85,1984.25z"/>
	<path d="M450.55,341.18c-10.83-91-9.21-182.52-21.22-237.57c-3.19-14.62-22.26-24.91-46.81-24.91
		c-15.73,1.44-23.59,2.15-39.32,3.55c-44.11,4.18-80.52,14.65-109.22,30.3c-7.08,3.81-11.03,6.09-11.87,6.94
		c-6.23,5.94-9.36,14.06-9.36,24.5c0,6.97,2.18,17.39,6.56,31.48c4.37,14.08,6.55,24.73,6.55,31.74c0,25.01-4.78,60.65-14.35,105.33
		c-9.24,41.77-13.86,62.25-23.09,102.34c-12.49,54.88-19.76,88.68-21.85,104.18c-2.5,18.7-4.17,29.72-4.37,32.7
		c-0.57,8.95,3.01,17.63,9.05,24.15c6.03,6.52,18.2,13.71,36.51,20.65c17.48,6.63,34.96,10.34,52.43,10.93
		c4.49-0.99,6.74-1.5,11.24-2.57c4.58-0.4,7.7-1.54,9.36-3.31c1.66-11.62,3.58-23.25,5.62-34.83c4.23-23.99,7.49-39.15,9.98-44.93
		c15.81,0.93,25.17,1.42,28.09,2.01c8.74,1.79,19.05,6.11,21.85,11.19c3.37,6.11,3.66,24.83,4.99,45.32
		c1.17,18.19,3.53,33.49,6.87,45.72c13.31,12.47,30.79,20.82,52.43,24.31c20.38,3.29,39.32,2.24,56.8-2.95
		c11.64-3.45,17.48-10.78,17.48-21.7c0-1.9-1.88-18.43-5.62-49.74C467.77,482.62,462.03,435.51,450.55,341.18z M336.95,367.5
		c-5.41,3.95-10.82,5.5-16.22,4.73c-9.16-1.31-13.73-8.42-13.73-21.26c0-20.16,7.07-54.72,21.22-105.66
		c2.5,1.87,3.75,2.81,6.24,4.69c-0.42,2.76-0.62,7.2-0.62,13.25c0,8.84,0.82,22.07,2.5,39.7c1.66,17.62,2.5,30.88,2.5,39.71
		C338.83,351.49,338.2,359.78,336.95,367.5z M979.18,426.51c7.12,20.89,3.74,53.1,3.74,72.74c0,44.08-3.33,74.23-9.99,90.85
		c-3.33,8.73-13.85,17.35-29.95,22.54c-6.65,2.14-16.48,4.95-28.1,8.83c-14.06,4.69-23.61,7.47-28.08,8.7
		c-23.02,6.38-48.68,13.71-76.15,20.13c-21.22,4.96-35.79,6.35-43.69,3.29c-13.32-5.39-19.98-18.21-19.98-38.31
		c0-37.89,0.63-81.51,1.87-131.19c1.75-76.22,2.62-114.85,4.37-193.2c0.43-18.64,0.63-38.6,0.63-59.88c0-1.98-0.63-7.91-1.87-17.82
		c-3.74-32.21-8.32-58.98-13.72-80.04c-0.85-3.01-1.26-6.03-1.26-9.04c0-11.07,3.75-18.9,11.25-23.43
		C771.97,86,801.3,78.69,836.24,78.69c12.48,0,23.51,0.98,33.09,2.88c3.74,3.15,5.62,4.71,9.36,7.82c2.5,5.21,5.98,11.67,6.86,16.98
		c4.42,26.49-1.97,80.22-5.93,144.09c-3.96,63.88-5.93,111.4-5.93,142.75c0,27.2,0.41,42.47,1.26,45.96
		c2.48,10.55,9.56,14.66,21.22,12.4c6.64-1.29,17.06-7.64,31.2-18.9c14.13-11.24,24.12-17.34,29.97-18.46
		C965.65,412.63,976.35,418.21,979.18,426.51z M1248.95,102.29c-17.44-15.43-42.99-23.59-76.63-23.59
		c-59.37,0-101.61,28.82-126.45,90.82c-24.12,60.21-36.11,129.36-36.11,202.83c0,7.78,1.03,22.53,3.11,44.06
		c7.43,76.85,31.56,124.47,72.26,142.25c16.6,7.45,38.61,7.07,66.01-0.63c32.39-9.11,57.52-21.81,75.37-37.88
		c58.14-52.1,87.21-129.75,87.21-233.9c0-43.53-3.31-76.34-9.97-99.36C1294.25,154.05,1275.92,126.33,1248.95,102.29z
		 M1200.13,324.74c0,16.71-1.72,29.69-4.99,38.9c-5.03,14.16-15.2,23.01-30.59,26.13c-16.22,3.29-27.04-4.13-32.44-22.51
		c-2.92-9.57-4.38-25.33-4.38-47.2c0-46.57,4.14-75.69,12.48-86.89c6.16-8.27,13.11-12.75,20.61-13.51
		c26.21-2.66,39.32,17.89,39.32,62.03C1200.13,298.87,1200.13,307.48,1200.13,324.74z M1687.59,101.53
		c0,21.7-12.08,77.41-36.2,168.16c-19.22,71.84-28.83,107.93-48.06,182c-3.35,13.01-9.17,22.07-17.48,27.21
		c-12.48,7.52-36.62,10.89-72.41,11.64c-36.2,0.75-59.12,0.79-68.64-1.6c-11.62-2.92-19.35-12.89-23.1-29.76
		c-3.74-16.87-14.98-82.03-33.7-189.62c-3.75-19.01-10.21-52.3-19.35-100.48c-0.85-4.37-2.97-13.9-8.12-23.05
		c-6.69-11.88-13.72-22.64-13.72-30.15c0-13.63,13.1-23.55,39.32-29.3c8.31-2.02,28.37-4.04,59.91-6.41
		c12.45-0.94,19.98-1.46,22.47-1.46c16.63,0,26.96,5.59,30.57,16.65c2.54,7.77,5.08,27.72,7.49,59.9
		c1.71,22.89,4.71,65.29,11.86,125.24c2.5,20.97,7.08,32.04,12.48,32.07c6.25,0.03,10.19-4.26,11.86-12.86
		c0.41-0.67,1.04-3.94,1.89-9.79c2-14.42,3-21.59,4.99-35.89c6.23-41.51,9.36-74,9.36-98.01c0-10.33-1.66-19.81-4.99-28.44
		c-1.66-4.31-2.5-8.45-2.5-12.41c0-11.21,6.64-19.07,19.98-23.66c20.79-7.19,48.46-10.82,83.01-10.8
		C1676.57,80.71,1687.59,87.63,1687.59,101.53z M1996.54,419.34c1.25,6.6,1.87,12.64,1.87,18.04c0,3.33-0.4,10.48-1.24,21.41
		c-0.84,10.92-1.26,18.04-1.26,21.36c0,41.49-5.4,68.62-16.22,81.05c-10.41,0.7-21.84-1.39-34.33-5.99c-2-0.74-3-1.1-4.99-1.82
		c-1.66-0.6-3.53-1.28-5.62-2.02c-19.55-6.96-58.45-20.6-116.72-33.81c-32.44-7.36-53.25-11.81-62.41-15.51
		c-17.9-7.33-26.84-22.58-26.84-46.38c0-31.37,0.83-77.24,2.5-137.04c1.5-55.41,2.24-82.9,3.74-137.49c0-7.34-2.9-18.65-8.73-33.7
		c-5.42-14.01-8.12-24.87-8.12-32.78c0-7.21,1.89-13.88,5.62-20.03c12.48-8.49,33.07-13.49,61.8-14.9
		c14.13-0.68,19.55-1.05,16.22-1.05c24.72,0,37.08,0,61.8,0c2.5,0,7.69,0.27,15.59,0.84c7.9,0.57,12.69,0.86,14.35,0.86
		c20.81,0.03,54.26-1.95,84.9,5.03c8.29,1.89,14.56,18.26,16.22,44.86c0,2.49,0.72,6.92,1.87,13.16c1.76,9.52,2.5,21.18,2.5,34.48
		c0,31.2-9.9,45.41-29.73,42.93c-7.42-0.93-19.52-6.72-36.23-16.71c-16.71-9.97-30.22-15.07-40.55-15.91
		c-16.1-1.31-25.17-2.15-27.25-2.69c-15.27,2.25-22.92,10.53-22.92,24.94c0,6.65,1.44,15.08,4.33,25.38
		c3.28,2.56,6.57,4.03,9.87,4.38c6.17,0.66,17.7-1.32,34.57-6.09c16.87-4.76,29-6.78,36.42-5.88c11.11,1.33,18.72,5.86,22.83,13.61
		c2.48,4.74,3.72,13.52,3.72,26.34c0,6.41-0.43,16.06-1.26,28.91c-0.83,12.86-1.24,22.49-1.24,28.87c0,3.6,0,5.4,0,9
		c-0.85,5.83-3.34,11.76-7.49,17.53c-4.92,6.84-10.41,9.57-16.24,8.29c-12.49-2.74-27.67-10.24-45.56-21.85
		c-11.23-7.36-20.4-13.17-27.47-17.63c-8.32-1.29-12.48,9.24-12.49,31.62c0,14.17,3.13,24.42,9.38,30.85
		c4.15,4.15,11.23,7.23,21.22,9.31c12.89,2.68,32.24,1.79,58.04-2.62c25.8-4.39,40.97-5.89,45.56-4.67c3.75,1,7.7,5.13,11.86,12.5
		C1992.58,405.69,1995.29,412.73,1996.54,419.34z"/>
	<path d="M365.62,732.48c0,3.85-0.27,9.44-0.81,16.72c-0.54,7.28-0.81,12.86-0.81,16.7c0,6.05,0,9.07,0,15.11
		c0,2.66,0.28,5.78,0.41,8.97c0.14,3.41,0,5.63,0,6.21c0,22.18-5.38,31.93-16.12,28.94c-3.76-1.05-9.4-6.18-16.92-15.43
		c-7.52-9.28-13.3-14.71-17.33-16.29c-4.57,0.29-6.85,3.61-6.85,9.99c0,16.28,0.14,40.68,0.41,73.12c0.26,32.42,0.4,56.7,0.4,72.89
		c0,5.49,0.87,13.98,2.62,25.49c1.74,11.51,2.62,19.87,2.62,25.07c0,17.64-8.2,25.14-24.58,21.33c-3.49-0.69-18.53-6.54-45.12-20.69
		c-5.48-2.92-8.22-4.41-13.7-7.48c-8.6-9.56-12.89-21-12.89-34.07c0-1.11,0.14-4.08,0.4-8.95c0.27-4.85,0.41-8.11,0.41-9.78
		c0-0.54-0.14-1.74-0.41-3.57c0-1.33,0-2,0-3.34c0-4.16,0.41-11.02,1.21-20.62c1.07-12.77,1.69-22.36,2.01-28.59
		c1.15-22.55,3.35-56.15,6.05-100.6c-1.08-2.46-1.23-7.04-0.81-13.41c0.36-5.39-1.08-10.02-4.03-13.59
		c-5.1-2.32-11.76-1.54-19.94,2.02c-8.2,3.56-14.7,3.88-19.54,1.31c-7.79-4.14-11.68-15.77-11.68-34.69c0-0.55,0.27-2.35,0.4-5.05
		c0.14-2.83,0-5.69,0-8.12c0-11.19,0-16.78,0-27.97c0-2.44,0.13-5.42,0-8.53c-0.13-3.24-0.4-5.46-0.4-6.26
		c0-17.3,4.66-25.82,7.65-27.69c2.2-1.38,31.03,9.18,85.82,27.78c52.11,17.69,83.13,26.32,93.08,33.07
		C362.8,706.45,365.62,716.44,365.62,732.48z M593.25,756.22c0-14.55-2-24.59-6.03-30.13c-2.16-2.47-7-3.78-14.51-3.97
		c-6.73-0.18-17.48,1.07-32.24,3.32c-13.41,2.04-21.35,3.71-23.77,5.34c-5.11,3.28-7.66,10.81-7.66,22.65
		c0,4.85,0.74,12.12,2.22,21.77c1.48,9.65,2.22,16.89,2.22,21.71c0,0.92-0.14,3.33-0.4,7.23c-0.27,3.91-0.41,6.46-0.41,7.66
		c0,9.65-1.05,16.34-3.22,19.64c-2.78,4.23-8.47,6.08-16.52,5.28c-9.95-0.99-18.85-5.22-20.55-10.01
		c-2.24-6.31-1.21-17.11-1.21-24.7c0-6.08,0.2-15.31,0.6-27.74c0.41-12.42,0.6-21.72,0.6-27.8c0-10.68-0.14-16.97-0.4-18.82
		c-1.35-5.04-2.96-8.43-4.83-10.18c-1.35-0.77-2.83-2.2-4.03-2.78c-1.92-0.93-6.72-1.28-12.09-1.99c-18-2.38-34.92-1.59-50.76,2.4
		c-1.29,0.3-1.94,0.45-3.23,0.74c-2.15,0.5-3.36,0.87-3.63,1.12c-4.83,2.96-7.25,8.62-7.25,17c0,1.08,0,1.62,0,2.7
		c2.15,7.03,3.49,11.2,4.04,12.51c4.29,15.57,6.45,33.55,6.45,53.88c0,52.34-2.01,131.75-6.05,236.63
		c1.45,4.08,2.18,6.12,3.63,10.19c1.88,5.66,5.64,9.69,11.28,11.97c0.27,0.06,5.24,1.28,14.91,3.31c6.18,1.3,14.92,2.3,26.18,2.73
		c13.68,0.53,21.22-1.21,22.57-4.6c3.22-8.79,4.83-21.24,4.83-37.37c0-5.36-0.27-13.46-0.81-24.3c-0.54-10.86-0.81-18.98-0.81-24.38
		c0-11.69,0.14-18.28,0.41-19.75c1.07-8.57,4.16-12.99,9.27-13.31c0.54-0.22,4.03,0.03,10.47,0.69c1.34,0.14,2.42,0.11,3.23-0.13
		c1.45,0.14,2.18,0.21,3.63,0.35c4.03,0.38,7.79,5.34,11.28,14.83c0,12.13,0,18.19,0,30.29c0,3.54-0.27,10.05-0.81,19.48
		c-0.54,9.43-0.81,12.81-0.81,10.15c0,27.21,1.44,46.8,5.64,52.62c2.85,3.95,9.28,6.34,14.91,6.62c0.54,0.03,1.61,0.08,3.22,0.15
		c1.61,0.07,2.55,0.11,2.82,0.12c-1.34-0.06,0.67,0.05,6.04,0.23c10.75,0.36,24.04-1.92,39.9-7.14c7.25-2.44,10.87-9.86,10.87-22.15
		c0-3.22-0.14-7.32-0.41-12.29c-1.61-31.33-2.41-66.84-2.41-106.66c0-19.31,0.61-48.24,1.82-87.11
		C592.65,805.35,593.25,775.92,593.25,756.22z M818.47,995.5c2.41,17.44,3.64,26.63,3.64,27.74c0,6.39-3.77,12.14-11.28,17.14
		c-11.3,7.51-23.51,13.97-36.67,16.67c-13.96,2.87-25.26,2.06-33.84-2.33c-2.16-6.64-3.68-15.43-4.43-26.29
		c-0.86-12.26-1.2-23.94-3.23-26.7c-1.61-2.18-8.46-3-14.1-2.22c-1.89,0.26-7.93,1.97-18.14,4.97c-1.6,4.23-3.72,14.59-6.44,30.9
		c-1.32,7.88-2.56,15.77-3.63,23.62c-1.07,1.57-3.09,3.13-6.03,4.64c-2.9,1.91-4.35,2.85-7.25,4.74
		c-11.28,4.5-22.58,7.28-33.85,8.26c-11.82,1.03-19.67,0.12-23.56-2.4c-3.89-2.52-6.19-7.51-5.84-13.83
		c0.12-2.23,1.21-10.41,2.82-24.21c1.34-11.44,6.05-37.35,14.1-78.08c5.96-29.78,8.95-44.72,14.91-74.71
		c6.17-32.02,9.26-56.61,9.26-73.64c0-4.8-1.41-11.83-4.23-21.15c-2.82-9.34-4.23-16.45-4.23-21.27c0-7.22,2.02-13,6.05-17.36
		c0.53-0.63,3.07-2.37,7.64-5.25c18.55-11.87,42.04-19.97,70.51-24.88c10.16-1.69,15.24-2.56,25.39-4.38
		c15.85-1.43,28.24,2.78,30.22,10.51c8.01,31.21,6.71,86.26,13.69,137.88C807.35,917.31,811.06,943.6,818.47,995.5z M727.82,883.83
		c0-5.51-0.54-13.66-1.61-24.49c-1.07-10.82-1.6-19.05-1.6-24.61c0-3.82,0.12-6.61,0.39-8.4c-1.61-0.9-2.41-1.34-4.02-2.25
		c-9.14,33.77-13.69,57-13.69,69.83c0,8.17,2.94,11.93,8.85,11.27c3.5-0.39,6.98-2.24,10.48-5.55
		C727.43,894.61,727.82,889.36,727.82,883.83z M1028.78,649.91c-9.94-1.08-40.95,6.38-93.07,21.37
		c-54.8,15.77-83.14,26.47-85.82,30.23c-3.49,4.92-7.66,16.98-7.66,35.45c0,0.86,0.28,3.12,0.41,6.37c0.13,3.32,0,6.49,0,9.1
		c0,11.92,0,17.87,0,29.74c0,2.58,0.13,5.59,0,8.61c-0.13,3.1-0.41,5.11-0.41,5.69c0,20.04,3.89,28.87,11.69,26.57
		c4.84-1.43,11.35-7.26,19.55-17.53c8.19-10.26,14.83-16.16,19.94-17.72c2.94,1.36,4.37,5.01,4.02,10.64
		c-0.42,6.84-0.27,11.25,0.8,12.89c-2.68,46.83-4.92,82.22-6.05,105.92c-0.31,6.46-0.93,16.64-2,30.34
		c-0.81,10.3-1.21,17.51-1.21,21.66c0,1.33,0,2,0,3.33c0.25,1.58,0.39,2.65,0.39,3.19c0,1.66-0.14,5.03-0.39,10.1
		c-0.27,5.09-0.41,8.18-0.41,9.28c0,13.01,4.3,20.39,12.89,22.08c5.48-1.9,8.21-2.86,13.69-4.79c26.6-9.39,41.63-15.42,45.13-17.53
		c16.38-9.31,24.58-22.36,24.58-39.04c0-4.92-0.88-12.19-2.62-21.81c-1.74-9.62-2.62-17.05-2.62-22.26c0-15.36-0.15-38.3-0.41-68.94
		c-0.27-30.65-0.41-53.78-0.41-69.28c0-6.08,2.28-10.71,6.85-13.87c4.04-1.05,9.8,0.5,17.33,4.58c7.52,4.06,13.16,5.43,16.94,4.15
		c10.73-3.64,16.1-15.67,16.1-36.09c0-0.53,0.15-2.6,0-5.72c-0.13-2.78-0.39-5.59-0.39-8.03c0-5.56,0-8.34,0-13.9
		c0-3.53,0.25-8.8,0.8-15.78c0.54-6.98,0.8-12.25,0.8-15.78C1037.24,658.4,1034.43,650.67,1028.78,649.91z M1515.91,536.46
		c-3.21-0.85-9.67-1.14-19.33-0.77c-16.39,0.64-29.76,3.58-40.09,8.64c-10.34,5.08-15.51,10.7-15.51,16.7
		c0,4.32,1.01,10.67,3.02,19.04c2.01,8.38,3.01,14.77,3.01,19.11c0,3.39-1.28,17.75-3.21,42.92c-0.6,7.82-0.95,13.43-1.22,16.65
		c-1.87,13.94-4.16,21.73-6.85,23.27c-0.27,0.03-0.54,0.19-0.8,0.45c-0.27,0.28-0.54,0.44-0.81,0.47c-3.48,0.41-5.23-2.47-5.23-8.65
		c0-0.23-0.8-5.83-2.41-16.74c-5.91-46.11-9.9-77.75-11.69-95.38c-0.85-8.33-2.82-13.61-6.05-15.72
		c-7.52-1.97-13.92-3.13-18.12-2.64c-10.1,1.17-18.94,5.52-24.58,7.13c-15.32,6.15-24.06,13.61-25.79,21.88
		c-3.13,15.03-5.11,26.29-6.46,32.85c-8.32,44.7-12.94,72.11-14.1,80.65c-1.96,14.39-4.43,22.23-6.85,22.95
		c-4.3,1.29-6.59-1.85-6.85-9.38c0-7.31,0-10.96,0-18.25c-2.72-58.45-2.75-95.68-4.88-106.28c-0.52-2.6-2.45-4.82-4.08-5.62
		c-3.52-1.54-5.87-2.69-6.49-2.74c-2.41-0.18-7.86,1.75-13.81,3.38c-13.28,3.64-26.83,9.24-40.63,16.74
		c-18.92,10.29-28.44,20.23-28.44,29.51c0,1.56,0.41,3.11,1.21,4.68c9.14,17.88,15.18,39.07,17.33,63.16
		c2.69,30.18,4.16,53.56,5.25,69.06c6.44,76.92,10.31,118.28,11.67,122.77c2.37,7.81,10.75,9.22,24.99,4.33
		c6.61-2.27,9.91-3.39,16.51-5.61c5.11-2.51,8.6-4.19,10.48-5.08c18.26-8.13,28.88-13.12,31.83-15.36
		c7.53-5.76,12.62-15.64,14.91-29.35c4.19-25.01,7.78-50.58,11.67-75.41c2.82-17.99,6.05-27.51,9.27-28.41
		c0.54-0.15,1.07,0.34,1.61,1.46c2.41,14.52,3.89,24.32,4.43,29.26c5.64,42.55,11.81,69.88,18.53,82.53c2.96,5.38,9.67,6.98,20.15,5
		c3.48-0.66,6.71-1.26,9.67-1.8c3.87-0.7,5.8-1.05,9.67-1.72c23.1-4.01,38.81-10.58,47.15-20.45c2.67-3.11,4.16-5.3,4.43-6.59
		c1.33-5.7,2.41-10.57,3.21-14.67c12.1-68.16,20.28-113.36,24.58-138.5c7.74-41.32,11.61-61.64,19.35-101.7
		c0.26-1.42,0.39-3.19,0.39-5.32C1525.98,542.58,1522.63,538.41,1515.91,536.46z M1638.4,680.08c0-9.76,0.47-24.44,1.41-43.88
		c0.94-19.45,1.41-33.94,1.41-43.57c0-25.14-1.47-41.02-4.43-47.71c-2.66-5.99-9.67-9.39-20.95-9.93
		c-4.57-0.22-10.62,0.22-18.14,1.36c-11.12,1.72-16.67,2.65-27.79,4.62c-9.95,1.75-17.46,6.21-22.57,13.29c0,1.26,0,1.9,0,3.16
		c0,4.93,1.83,12.22,5.45,21.86c3.62,9.64,6.14,17.79,5.44,21.58c-0.11,0.61-0.64,3.27-0.82,7.46c-0.52,12.29-0.35,21.41-0.39,26.37
		c-0.54,70.7-1.61,110.16-1.61,114.53c-0.33,5.42-0.49,8.13-0.81,13.56c-0.27,4.41-0.39,9.05-0.39,13.94c0,1.32,0,1.99,0,3.31
		c0.25,0.97,0.39,2.06,0.39,3.28c0,7.94,0,11.92,0,19.88c1.34,7.81,4.98,13.07,10.89,15.83c12.57,0.47,18.86,0.81,31.43,1.74
		c21.22,1.56,35.72-2.13,43.52-12.09c0.8-0.67,1.21-3.44,1.21-8.29c0-13.59-0.54-33.79-1.61-60.42
		C1638.92,713.32,1638.4,693.42,1638.4,680.08z M1799.57,740.29c-3.77-1.06-10.23-0.53-19.35,1.76c-9.14,2.3-15.85,3.04-20.15,2.07
		c-7.52-1.7-12.08-5.53-13.69-11.62c-0.54-2.03-0.81-10.15-0.81-24.32c0-16.31,1.28-40.5,3.84-72.39
		c2.56-31.91,6.31-59.17,3.82-71.93c-0.55-2.83-2.82-6.42-4.43-9.28c-2.42-1.98-3.63-2.96-6.05-4.92
		c-6.18-1.96-13.3-3.55-21.35-4.71c-22.56-3.23-41.5-1.83-56.8,3.55c-4.84,1.67-7.25,5.09-7.25,10.24c0,1.39,0.25,2.82,0.8,4.27
		c3.48,10.12,6.46,22.95,8.87,38.48c0.8,4.8,1.21,7.65,1.21,8.59c0,10.15-0.13,19.7-0.41,28.67c-1.13,37.66-1.69,56.62-2.82,94.81
		c-0.8,24.88-1.21,47.16-1.21,66.79c0,10.42,4.3,17.71,12.89,22.07c5.1,2.52,14.51,4.56,28.21,6.67
		c17.72,2.73,34.38,5.55,49.14,8.73c2.92,0.63,9.04,1.9,18.14,3.73c7.46,1.5,13.7,3.18,18.12,4.27c10.18,2.51,17.19,1.57,19.35-2.17
		c4.28-7.02,6.44-23.01,6.44-47.91c0-11.1,1.58-29.1-2.41-42.11C1811.7,747.22,1804.93,741.8,1799.57,740.29z M1987.71,832.18
		c-2.06-8.07-8.73-15.23-14.1-18.32c-3.77-2.17-10.23-3.32-19.35-3.33c-9.14,0-15.85-1.03-20.15-3.22
		c-7.52-3.84-12.08-9.12-13.69-16.02c-0.54-2.3-0.81-10.99-0.82-26.05c0-17.34,1.28-42.75,3.84-76.32
		c2.56-33.6,6.24-62.27,3.82-76.5c-0.57-3.33-2.82-7.46-4.43-10.86c-2.42-2.59-3.63-3.88-6.05-6.44c-6.18-3.27-13.3-6.3-21.35-9.02
		c-22.56-7.61-41.5-9.47-56.8-6.59c-4.84,0.88-7.25,4.01-7.25,9.37c0,1.45,0.25,2.98,0.8,4.59c3.48,11.17,6.46,25.1,8.87,41.74
		c0.8,5.15,1.21,8.21,1.21,9.19c0,10.56-0.14,20.46-0.41,29.71c-1.13,38.86-1.69,58.33-2.82,97.36c-0.8,25.42-1.21,48.16-1.21,68.25
		c0,10.66,4.3,19.3,12.89,26.23c5.1,4.04,14.51,8.83,28.22,15.07c17.72,8.06,34.41,16.09,49.14,23.99
		c2.94,1.58,9.02,4.78,18.14,9.58c7.45,3.92,13.62,7.64,18.12,10.25c10.14,5.86,17.19,7.12,19.35,3.76
		c4.28-6.24,6.44-22.88,6.44-49.93C1990.12,866.61,1991.64,847.55,1987.71,832.18z"/>
	<path d="M532.84,1159.4c0.47,5.86,0.68,16.93,0.68,33.03c0,23.45-0.97,52.4-2.71,82.71c-1.86,32.38-3.16,57.58-3.38,75.05
		c-0.24,19.12-0.45,53.7-1.35,102.31c-1.08,44.46-1.62,66.49-2.7,110.18c0,39.45-7.24,61.1-21.63,64.92
		c-17.97,4.76-44.84,5.25-80.44-0.71c-15.78-2.64-29.37-6.66-40.56-11.33c-6.23-2.59-11.72-11.67-16.22-27.44
		c-6.76-23.14-10.14-34.83-16.9-58.46c-6.76-24.12-19.6-66.27-38.53-129.4c-0.91-2.86-3.15-6.66-6.76-11.46
		c-3.15,5.05-4.73,12.61-4.73,22.67c0,2.95,0.45,10.17,1.36,21.61c0.89,11.44,1.35,18.83,1.35,22.16c0,4.77,0,7.16,0,11.93
		c-0.46,3.18-0.68,6.87-0.68,11.03c0,10.04,1.12,25.4,3.38,45.92c2.25,20.53,3.38,35.72,3.38,45.66c0,3.74-1.92,7.8-5.74,12.2
		c-3.84,4.41-7.56,6.65-11.16,6.74c-11.27,0.51-28.16-2.97-50.7-11.72c-13.08-5.08-23.66-11.03-31.77-17.62
		c-10.37-3.2-16.68-13.17-18.92-29.74c0.44,2.86,0.67-8.53,0.67-34.21c0-38.5,1.8-95.23,5.41-169.53
		c3.6-74.29,5.41-130.35,5.41-168.79c0-7.93-2.82-21.84-8.45-43.11c-5.64-21.27-8.45-36.45-8.45-45.58c0-6.84,1.35-12.26,4.05-16.33
		c11.26-1.26,25.77,1.33,43.26,7.06c16.19,5.3,46.88,16.44,85.18,30.2c19.3,6.93,32.89,17.5,39.2,29.82
		c4.06,8.16,9.91,31.42,17.57,69.63c2.71,16.35,7.03,39.49,13.52,67.42c6.04,25.98,15.09,54.83,26.36,85.57
		c2.25,1.75,4.5,2.84,6.76,3.33c1.8,0.39,2.93,0.42,3.38,0.1c2.71-11.72,4.06-23.33,4.06-34.84c0-8.63-0.68-18.42-2.03-29.43
		c-6.32-51.21-9.46-91.4-9.46-111.92c0-20.04,6.52-30.71,19.6-32.61c22.07-3.6,47.54-3.89,76.39-1.82c0.89,0.06,2.7,0.69,5.4,1.84
		C526.3,1141.03,531.98,1148.62,532.84,1159.4z M725.29,1251.69c2.24-0.02,12.08-1.78,29.52-5.9c11.18-2.64,25.82-1.64,43.91,2.49
		c18.11,4.12,31.21,4.65,39.24,2.09c21.47-6.82,32.21-27.16,32.21-60.75c0-14.33-0.81-26.69-2.72-36.4
		c-1.24-6.3-2.02-10.91-2.02-13.66c-1.8-28.54-9.04-44.35-17.58-43.59c-34.21,3.03-69.41,15.72-91.93,20.49
		c-1.8,0.38-7,1.15-15.54,2.13c-8.56,0.99-14.2,1.67-16.9,2.16c-26.77,4.88-40.16,6.94-66.93,10.02c3.6-0.41-2.26,0.87-17.58,3.3
		c-31.09,4.9-53.39,12.51-66.91,24.88c-4.06,8.82-6.08,18.3-6.08,28.47c0,11.16,2.92,26.37,8.78,45.41
		c6.3,20.47,9.46,32.2,9.46,41.01c-1.62,65.75-2.44,98.14-4.06,162c-1.8,68.92-2.7,119.88-2.7,154.38
		c0,26.17,9.68,41.76,29.06,46.46c9.92,2.34,32.44,3.5,67.61,1.74c63.09-3.15,105.21-9.11,126.41-14.44
		c2.24-0.56,4.26-1.07,6.08-1.54c2.16-0.55,3.24-0.82,5.4-1.38c13.52-3.46,25.9-9.23,37.18-17.32
		c11.72-20.34,17.58-51.73,17.58-94.35c0-3.41,0.44-11.01,1.34-22.84c0.9-11.84,1.36-19.49,1.36-22.94c0-5.59-0.68-11.39-2.04-17.42
		c-1.34-6.04-4.28-11.57-8.78-16.63c-4.5-5.06-8.78-6.95-12.84-5.69c-4.96,1.54-21.4,12.6-49.35,31.96
		c-27.94,19.38-48.9,27.36-62.87,29.19c-10.82,1.42-18.48,0.42-22.98-2.79c-6.76-5.05-10.14-15.45-10.14-31.34
		c0-25.06,4.5-38.29,13.52-39.56c7.66,2.71,17.56,6.14,29.74,10.15c19.36,6.28,35.82,7.6,49.34,3.79
		c6.3-1.77,12.23-7.77,17.58-17.98c4.5-8.59,7.2-16.39,8.1-23.17c0-3.91,0-5.86,0-9.77c0-6.95,0.44-17.64,1.36-32.13
		c0.9-14.48,1.34-25.27,1.34-32.32c0-14.08-1.34-23.17-4.01-27.23c-4.45-6.62-12.71-8.11-24.73-4.67
		c-8.03,2.3-21.17,9.86-39.44,21.43c-18.28,11.57-30.76,17.52-37.44,18.69c-3.57,0.62-7.13-0.05-10.7-2.05
		c-3.13-11.09-4.67-20.53-4.67-28.3C700.49,1270.91,708.76,1259.09,725.29,1251.69z M1237.23,945.16
		c-37.42,13.53-67.39,29.98-89.91,48.58c-14.44,11.89-21.64,25.52-21.64,40.77c0,5.4,0.9,10.67,2.7,15.78
		c3.62,10.25,5.42,22.32,5.42,36.33c0,32.53-3.38,77.77-10.14,135.68c-2.16,19.87-3.24,29.81-5.4,49.68
		c-0.92,8.06-1.6,12.62-2.04,13.69c-1.8,12.01-6.08,19.28-12.84,21.82c-5.86,2.19-10.82-10.48-13.52-36.92
		c-7.81-76.47-10.98-131.69-12.84-161.99c-2.61-42.54-5.35-68.95-8.12-78.62c-3.91-13.65-15.1-17.07-33.12-10.04
		c-2.7,1.05-10.83,4.97-24.33,11.5c-34.09,16.5-55.89,27.44-64.91,33.51c-28.38,18.29-42.59,36.26-42.58,54.47
		c0,10.03,7.96,22.72,14.88,35.56c5.77,10.71,7.88,22.31,8.78,27.79c9.9,60.34,16.9,101.53,20.96,124.35
		c20.28,130.15,32.44,203.99,36.5,223.23c4.06,19.27,12.44,29.19,25.01,29.59c10.31,0.33,35.16-5.68,74.37-17.99
		c38.75-12.17,64.89-25.34,78.41-39.77c9-9.75,15.32-23.83,18.92-42.19c20.83-104.55,31.24-157.36,52.06-261.72
		c26.13-131.75,39.2-210.07,39.2-238.52C1273.05,941.55,1261.11,936.53,1237.23,945.16z M1465.49,1005.53
		c2.24,0.08,12.08-1.54,29.52-4.08c11.18-1.63,25.82,1.38,43.91,9.82c18.11,8.44,31.2,13,39.24,12.72
		c21.47-0.75,32.21-18.72,32.21-54.96c0-15.46-0.82-26.44-2.72-35.91c-1.24-6.2-2.02-10.62-2.02-13.14
		c-1.8-26.65-8.58-43.02-17.58-44.75c-33.58-6.43-69.41-1.16-91.93,1.65c-1.8,0.23-7,0.54-15.54,1.11
		c-8.56,0.56-14.2,1.13-16.9,1.56c-26.77,4.22-40.16,6.8-66.93,12.64c3.6-0.79-2.26,0.5-17.58,5.64
		c-31.09,10.41-53.39,23.99-66.91,39.45c-4.06,9.3-6.08,18.62-6.08,27.97c0,10.25,2.92,23.31,8.78,39.35
		c6.3,17.24,9.46,30.9,9.46,40.45c-1.62,71.78-2.44,108.2-4.06,182.01c-1.8,79.68-2.7,141.15-2.7,182.97
		c0,31.72,9.68,47.91,29.06,48.77c9.92,0.36,32.44-5.05,67.61-8.34c63.09-5.9,105.21-6.71,126.41-6.97
		c2.24-0.03,4.26-0.05,6.08-0.06c2.16-0.02,3.24-0.02,5.4-0.03c13.52-0.05,25.9-2.93,37.18-8.74
		c11.72-20.54,17.58-56.08,17.58-106.36c0-4.02,0.44-12.81,1.34-26.31c0.9-13.52,1.36-22.23,1.36-26.24c0-6.5-0.68-13.51-2.04-21.04
		c-1.34-7.52-4.28-15.09-8.78-22.63c-4.5-7.55-8.78-11.31-12.84-11.33c-4.96-0.02-21.4,6.49-49.35,21.04
		c-27.94,14.57-48.9,23.02-62.87,24.35c-10.82,1.04-18.48-0.31-22.98-4.14c-6.76-6.02-10.14-18.14-10.14-36.43
		c0-28.86,4.5-43.81,13.52-45.02c7.66,3.27,17.56,7.55,29.74,13.06c19.36,8.64,35.82,12.9,49.34,12.17
		c6.3-0.34,12.24-5.53,17.58-15.55c4.5-8.44,7.2-16.46,8.1-23.85c0-4.42,0-6.62,0-11.03c0-7.83,0.44-19.73,1.36-35.62
		c0.9-15.89,1.34-27.69,1.34-35.47c0-15.55-1.34-25.88-4.01-31.05c-4.45-8.46-12.71-12.29-24.73-11.22
		c-8.03,0.72-21.16,6.19-39.44,16.9c-18.28,10.71-30.76,16.87-37.44,17.97c-3.57,0.59-7.13-0.21-10.7-2.41
		c-3.12-12.12-4.67-22.32-4.67-30.71C1440.69,1025.56,1448.96,1012.68,1465.49,1005.53z M1985.53,1397.56
		c0,36.52-6.06,63.48-18.24,82.02c-16.1,24.5-40.57,30.71-73.01,19.33c-11.28-3.96-20.52-9.12-27.72-15.81
		c-22.54-20.34-37.96-47.48-44.61-81.31c-3.83-19.5-9.26-49.62-16.9-89.38c-0.46-0.61-2.94-6.02-7.44-16.18
		c-3.16-6.82-6.76-10.77-10.82-11.83c-6.32-1.65-10.25,4.21-12.16,17.01c-0.85,5.67-1.36,14.07-1.36,24.99
		c0,8.95,0.69,22.42,2.04,40.37c1.35,17.97,2.02,31.47,2.02,40.44c0,12.48-0.63,22.14-2.02,28.77
		c-2.58,12.34-19.84,15.07-51.38,10.27c-2.7-0.41-9.6-0.98-20.62-1.41c-11.02-0.43-18.14-0.68-21.28-1.02
		c-18.04-1.97-27.94-9.79-29.74-24.15c-0.46-1.05-0.68-18.61-0.68-52.46c0-41.41,1.02-103.52,3.04-185.24
		c2.04-81.69,3.04-142,3.04-181.97c0-7.31-2.59-19.49-7.76-36.29c-5.18-16.81-7.78-25.97-7.78-33.44c0-9.12,3.82-17.01,11.48-23.49
		c11.26-9.5,26.6-15.72,45.98-17.8c4.94-0.51,22.52-1.15,52.73,1.41c2.97,0.2,4.45,0.31,7.42,0.55c5.42,0.52,10.91,0.81,15.56,1.6
		c17.16,2.89,28.38,7.28,31.09,8.18c6.76,2.24,18.98,7.55,36.5,17.14c42.78,23.42,76.19,56.37,100.05,93.8
		c26.14,41,39.21,84.68,39.21,126.1c0,37.32-9.7,63.52-29.07,81.91c-5.86,5.72-17.36,10.88-34.48,17.11
		c-10.36,4.08-15.54,8.82-15.54,13.56c0,8.54,4.06,18.04,12.16,28.63c8.12,10.61,16.68,18.22,25.7,23.03
		c1.78,0.95,4.6,1.9,8.44,2.84c3.82,0.95,6.64,1.97,8.46,3c9.9,5.63,17.34,20.28,22.3,43.36
		C1983.73,1368.01,1985.53,1383.43,1985.53,1397.56z M1846.96,1102.43c0-27.96-11.94-47.36-35.83-55.72
		c-5.42-1.9-8.8-2.77-10.14-2.74c-11.72,0.03-17.58,12.75-17.58,37.64c0,7.91,0,11.87,0,19.79c0,12.22,10.82,21.1,32.44,28.52
		c9.48,3.25,17.02,2.32,22.66-3C1844.14,1121.63,1846.96,1113.51,1846.96,1102.43z"/>
	<path d="M459.82,2121.31c-0.65,0-0.88-0.01-0.91-0.03C459.29,2121.29,459.6,2121.31,459.82,2121.31z M666.34,1680.49
		c-5.62-2.95-29.21-3.71-70.65-4.86c-67.54-1.89-98.93-6.53-93.95-6.11c-50.94-4.33-83.61-5.68-98.03,0.93
		c-7.66,3.43-11.48,13.07-11.48,28.93c8.1,19.28,12.16,47.29,12.16,84.1c0,5.88,0.34,14.73,1.02,26.54c0.68,11.8,1,20.6,1,26.44
		c0,14.4-0.78,35.58-2.36,63.47c-1.58,27.89-2.36,48.9-2.36,63.11c0,0.78,0.46,3.5,0.68,7.55c0.21,3.99,0,8.06,0,11.51
		c0,7.59,0,11.38,0,18.96c0,6.5-0.34,16.43-1.02,29.74c-0.68,13.33-1.02,23.22-1.02,29.68c0,20.53,2.94,37.65,8.8,51.23
		c6.3,5.68,18.92,8.48,37.85,8.49c0.9,0,3.04,0.2,6.42,0.56c2.53,0.28,4.37,0.45,5.51,0.52c-0.15-0.1,7.96-0.47,24.57-1.07
		c41.42-1.49,63.55-5.89,66.25-13.42c1.36-1.78,2.04-4.65,2.04-8.6c0-5.04-1.6-16.17-4.74-33.6c-4.06-22.49-6.08-40.65-6.08-54.22
		c0-5.13,0.44-11.35,1.34-18.69c6.76-6.07,10.82-9.1,12.18-9.07c1.78,0.04,2.92,0.26,3.38,0.63c18.92,14.03,32.44,22.55,40.55,25.92
		c3.16,1.13,6.02,2.08,8.12,2.27c16.15,1.42,28.84-6.48,33.8-19.98c2.24-6.2,3.38-18.97,3.38-38.52c0-25.43-0.24-40.57-0.68-45.04
		c-2.7-28.71-11.94-43.23-27.72-43.38c-7.2-0.07-17.56,3.75-31.09,11.32c-13.52,7.57-23.22,11.19-29.08,10.99
		c-5.4-0.18-13.33-2.33-15.54-5.65c-2.8-4.19-2.7-20.22-2.7-38.03c0-15.51,4.48-23.65,7.44-25.82c2.56-1.88,6.76-5.41,12.16-5.2
		c1.36,0.05,4.06,0.44,8.12,1.15c4.04,0.69,6.52,1.05,7.42,1.08c5.42,2.06,17.84,8.89,37.18,20.08
		c15.32,8.86,28.16,13.23,38.54,13.18c18.01-0.09,28.6-9.55,31.76-28.34c0.44-1.93,0.68-17.15,0.68-46.14
		c0-42.12-1.36-69.5-4.06-81.2C675.23,1687.25,671.96,1683.43,666.34,1680.49z M1056.05,2043.5c4.06,28.61,6.08,43.97,6.08,45.75
		c0,10.24-6.32,17.71-18.92,22.18c-18.92,6.73-39.44,9.88-61.53,9.88c-23.42,0-42.37-4.34-56.77-12.6
		c-3.62-9.97-6.17-22.73-7.44-38.22c-1.43-17.46-2.3-34.19-5.42-38.14c-2.79-3.54-14.18-5-23.64-4.34
		c-3.16,0.22-13.3,2.14-30.42,5.58c-2.7,5.59-6.25,19.42-10.82,40.73c-2.21,10.29-4.28,20.55-6.08,30.71
		c-1.8,1.9-5.18,3.62-10.14,5.15c-4.87,2.05-7.3,3.06-12.16,5.07c-18.94,4.14-37.86,6.07-56.79,6.07c-19.84,0-33.03-1.69-39.54-5.05
		c-6.53-3.36-10.38-9.77-9.8-17.29c0.2-2.64,2.02-12.61,4.72-29.48c2.26-14.01,10.14-45.5,23.66-96.46
		c10.01-37.27,15.01-56.22,25.02-94.92c10.36-41.31,15.54-74.74,15.54-97.23c0-6.31-2.5-15.3-7.1-26.78
		c-4.8-11.99-7.1-21.41-7.1-27.79c0-9.58,3.38-16.96,10.14-24.07c0.9-1,5.18-4.15,12.84-9.55c31.1-22.05,70.53-41.53,118.29-58.59
		c17.04-5.99,25.56-9.05,42.6-15.25c26.58-7.66,47.47-3.4,50.69,7.52c13.04,44.27,11.26,128.06,22.98,207.7
		C1037.39,1916.55,1043.61,1958.23,1056.05,2043.5z M903.95,1866.48c0-7.74-0.9-19.17-2.7-34.18c-1.8-15.01-2.7-26.45-2.7-34.28
		c0-5.34,0.22-9.31,0.66-11.88c-2.7-0.9-4.06-1.36-6.76-2.25c-15.32,49.32-22.98,81.65-22.98,99.25c0,11.2,4.96,16.03,14.88,14.51
		c5.84-0.9,11.7-3.8,17.58-8.81C903.27,1881.7,903.95,1874.26,903.95,1866.48z M1390.65,1574.11
		c26.12,47.34,39.2,112.81,39.2,195.94c0,34-2.45,78.52-8.1,133.14c-2.14,20.73-4.06,35.29-5.42,43.33
		c-2.26,13.41-5.86,27.68-10.8,42.8c-23.44,69.11-58.65,110.54-105.47,121.8c-28.82,6.94-60.83,10.18-95.99,10.18
		c-23.88,0-42.14-1.21-54.75-3.55c-17.58-3.28-28.16-14.85-31.77-34.68c-0.46-0.44-0.8-10.74-1.36-30.49
		c-0.75-26.62-1.36-50.03-1.36-69.86c0-30.44,0.44-68.04,1.36-112.85c0.81-56.76,1.21-85.12,2.02-141.81c0-4.6,0.2-10.08,0-15.85
		c-0.21-6.11-0.66-10.16-0.66-11.55c0-8.71-3.49-20.49-10.48-35.08c-6.98-14.58-10.48-26.31-10.48-35.39
		c0-11.37,6.08-22.61,18.24-33.91c0.9-0.71,6.76-4.69,17.58-11.99c34.25-22.87,69.85-40.06,106.81-50.47
		c63.99-18.02,109.51-11.84,136.55,18.14C1379.39,1556.17,1384.33,1563.01,1390.65,1574.11z M1306.82,1811.2
		c0-34.33-5.4-66.32-16.22-95.36c-4.96-13.39-13.08-18.79-24.33-16.39c-4.06,0.87-8.36,3.25-12.84,7.13
		c-6.76,5.84-10.14,46.67-10.14,123.7c0,38.3-0.13,62.76,1.34,70.76c0.58,3.14,3.63,8.15,6.76,9.57c6.09,2.76,15.32,1.92,18.92,1.5
		C1294.66,1909.29,1306.82,1875.31,1306.82,1811.2z M1754.33,1900.04c-4.5-8.09-8.78-12.31-12.84-12.6
		c-4.96-0.36-21.4,5.37-49.35,18.18c-27.94,12.81-48.9,19.42-62.87,19.02c-10.82-0.31-18.48-2.9-22.98-7.82
		c-6.76-7.62-10.14-21.56-10.14-41.79c0-31.92,4.5-47.65,13.52-47.36c7.66,5.01,17.56,11.44,29.74,19.35
		c19.37,12.41,35.82,19.02,49.35,19.79c6.3,0.36,12.25-4.57,17.58-14.64c4.51-8.51,7.2-16.71,8.1-24.45c0-4.69,0-7.03,0-11.71
		c0-8.31,0.44-20.9,1.36-37.67c0.9-16.77,1.34-29.28,1.34-37.55c0-16.55-1.34-27.76-4.01-33.73c-4.45-9.72-12.71-15.21-24.73-16.25
		c-8.04-0.69-21.19,2.75-39.44,10.73c-18.27,7.99-30.76,12.09-37.44,11.82c-3.57-0.14-7.13-1.85-10.7-5.11
		c-3.12-14.22-4.67-26.01-4.67-35.4c0-20.31,8.27-32.56,24.8-36.42c2.24,0.64,12.08,1.32,29.52,2.5
		c11.18,0.76,25.82,7.31,43.91,19.87c18.09,12.56,31.2,19.44,39.24,20.4c21.47,2.56,32.21-14.91,32.21-52.93
		c0-16.23-0.81-30.43-2.72-42.24c-1.25-7.75-2.02-13.25-2.02-16.28c-1.8-32.66-8.38-53.75-17.58-57.53
		c-32.31-13.27-69.41-15.3-91.93-17.05c-1.8-0.14-7-0.94-15.54-2.27c-8.56-1.33-14.2-2-16.9-2.14c-26.77-1.36-40.16-1.67-66.93-1.67
		c3.6,0-2.26,0.44-17.58,1.64c-31.09,2.41-53.39,10.91-66.91,24.24c-4.06,9.31-6.08,19.3-6.08,29.96c0,11.68,2.92,27.55,8.78,47.8
		c6.3,21.78,9.46,38.21,9.46,49.05c-1.62,80.87-2.44,121.82-4.06,204.85c-1.8,89.58-2.7,158.87-2.7,206.19
		c0,35.9,9.68,57.32,29.07,63.89c9.92,3.31,32.44,4.94,67.61,4.94c63.09,0.01,105.21,0.03,126.41,0.03c2.24,0,4.26,0,6.08,0
		c2.16,0,3.24,0,5.4,0c13.52,0.01,25.9-3.18,37.18-9.44c11.72-21.54,17.58-58.22,17.58-110.18c0-4.15,0.44-13.22,1.34-27.16
		c0.9-13.96,1.36-22.98,1.36-27.11c0-6.73-0.68-14.02-2.04-21.87C1761.77,1916.08,1758.83,1908.14,1754.33,1900.04z"/>
</g>
</svg>
