<?xml version="1.0" encoding="utf-8"?>
<!-- Generator: Adobe Illustrator 25.2.0, SVG Export Plug-In . SVG Version: 6.00 Build 0)  -->
<svg version="1.1" id="Layer_1" xmlns="http://www.w3.org/2000/svg" xmlns:xlink="http://www.w3.org/1999/xlink" x="0px" y="0px"
	 viewBox="0 0 2200 2200" style="enable-background:new 0 0 2200 2200;" xml:space="preserve">
<g>
	<path d="M449.18,804.09c0.06,35.52-20.94,88.53-54.64,136.6c-19.94,28.44-70.66,81.9-91.06,96.31
		c-23.6,16.67-36.73,20.21-44.39,14.09c-10.53-8.41-95.59-146.3-120.38-194.57C100.13,781.42,91.46,715.05,116.79,687
		c12.81-14.19,38.7-16.42,64.03-5.5c17.07,7.42,28.15,16.96,43.25,37.18c16.34,21.88,31.3,51.7,43.54,86.3
		c3.64,10.37,5.46,15.56,9.11,25.94c6.49-12.33,9.73-18.56,16.22-31.13c9.1-16.92,21.42-37.71,27.32-45.23
		C366.72,695.28,449.04,723.53,449.18,804.09z M2082.38,668.96c-12.83-21.42-38.7-37.05-64.03-38.84
		c-17.08-1.15-28.2,2.73-43.25,14.06c-16.32,12.28-31.3,31.97-43.54,56.57c-3.64,7.39-5.46,11.07-9.11,18.45
		c-6.49-12.93-9.73-19.33-16.22-32.03c-9.1-17.22-21.41-37.99-27.32-45.8c-46.45-61.4-128.77-50.01-128.91,13.71
		c-0.06,28.11,20.91,72.57,54.64,119.48c19.93,27.72,70.64,88.21,91.07,109.07c23.62,24.12,36.73,34.41,44.39,33.11
		c10.51-1.79,95.61-72.54,120.38-100.34C2098.98,773.15,2107.79,711.38,2082.38,668.96z"/>
	<path d="M288.91,246.26c6.65,13.78,10.26,28.1,10.26,41.82c0,25.29-8.29,37.36-25.26,36.63c-9.48-0.4-17.47-7.8-23.28-21.42
		c-5.97-14.01-12.24-21.21-18.16-21.39c0,0-1.17,0.39-3.95,1.58c2.21,21.94,3.32,32.93,5.53,54.93c0.79,6.42,1.18,9.63,1.97,16.05
		c3.15,25.61,6.39,50.48,10.65,74.98c4.79,27.53,8.29,44.85,12.24,50.03c6.31,9.34,16.58,19.57,16.58,28.7
		c0,23.9-5.63,37.54-16.58,41.7c-8.26,3.14-30.79,2.41-67.49-3.84c-29.21-4.97-48.96-11.84-58.83-19.88
		c-9.85-8.04-14.58-20.63-14.58-37.97c0-4,2.56-7.97,7.48-11.99c5.9-4.82,9.48-8.15,10.26-10.07c3.95-7.12,8.61-26.47,13.82-57.4
		c5.02-29.74,8.92-57.05,10.65-81.16c0.44-6.13,1.17-21.05,1.56-44.7c-3.95-1.82-5.9-2.71-5.9-2.71c-3.56-0.13-6.51,3.14-9.09,9.51
		c-3.66,9.03-7.09,15.26-9.85,17.95c-5.92,6.19-15.02,8.81-26.45,8.02c-9.87-0.68-16.1-4.54-18.94-10.82
		c-1.83-4.03-2.75-11.64-2.75-23.07c0-11.85,3.7-23.94,10.65-36.91c7.93-14.79,16.97-22.65,27.23-22.64c3.54,0,9.07,1.21,16.58,3.29
		c7.48,2.08,13.02,2.93,16.55,2.95c44.23,0.21,73.82-0.53,88.82-1.78c2.76-0.45,8.29-4.79,11.82-4.79
		C271.55,221.9,280.99,229.86,288.91,246.26z M520.16,300.49c17.62,43.4,26.43,93.26,26.43,149.76c0,38.55-12.63,70.63-37.5,95.45
		c-23.39,23.34-52.08,34.31-85.62,32.17c-37.5-2.39-67.65-21.73-89.99-56.88c-20.17-31.73-30.4-69.17-30.4-112.42
		c0-47.64,10.25-88.71,30.79-124.61c23.6-41.23,55.66-62.97,95.91-62.97C468.84,221,498.79,247.85,520.16,300.49z M460.16,388.2
		c0-20.16-3.95-42.79-11.43-67.32c-9.48-31.03-21.31-46.35-35.13-46.52c-8.29-0.1-14.46,6.98-18.94,20.78
		c-3.35,10.32-5.12,21.74-5.12,34.04c0,20.44,2.83,40.06,8.68,57.92c7.93,24.23,19.33,36.64,34.72,37.22
		C451.09,425.01,460.16,412.95,460.16,388.2z M783.74,348.83c-8.29,0.44-21.31,2.46-20.92,2.45c-29.6,0.3-44.2,6.88-44.2,19.82
		c0,4.63,2.76,9.23,7.9,13.8c5.12,4.57,7.9,8.2,7.9,10.96c0,8.75-5.53,12.97-16.19,13.08c-18.94,0.2-34.74-3.84-46.96-12.57
		c-15.41-11.01-22.89-27.24-22.89-48.63c0-14.43,4.36-28.92,12.63-42.97c9.08-15.42,19.33-22.97,31.57-22.99
		c10.65-0.02,18.53,4.2,23.67,12.13c3.95,9.35,5.92,14.02,9.87,23.33c4.73,7.89,12.21,12.01,22.87,11.93
		c13.04-0.09,21.72-6.91,26.06-20.03c2.36-7.98,3.53-20.96,3.53-39.56c0-10.72-1.53-20.56-4.73-29.34
		c-4.24-11.64-10.65-17.34-18.94-17.34c-5.12,0-18.55,8.49-23.67,8.49c-5.12,0-12.69-1.36-23.28-4.72
		c-10.24-3.24-18.16-4.7-23.67-4.7c-37.5,0-68.25,20.6-92.74,60.71c-21.98,36-33.16,76.41-33.16,121.23
		c0,44.34,10.33,83.47,30.77,117.29c22.91,37.91,52.49,56.83,88.4,56.17c24.09-0.44,42.64-4.59,55.66-12.59
		c5.92-3.75,20.53-15.58,43.01-38.25c1.19-1.46,5.54-3.32,12.63-5.46c7.1-2.14,12.63-5.87,16.19-10.27
		c1.58-1.96,2.36-6.05,2.36-11.81c0-13.34-2.76-37.43-8.68-72.54c-1.58-9.78-0.39-19.82,3.17-30.47c3.78-6.06,5.68-9.09,9.46-15.12
		c3.95-6.15,5.87-12.17,5.53-18.88C816.4,352.14,805.43,347.69,783.74,348.83z M1048.11,417.5c0-9.3-6.7-22.45-14.6-21.71
		c-2.76,0.26-6.31,3.87-10.65,10.85c-4.34,6.98-9.48,10.79-16.19,11.48c-1.17,0.12-2.76,0.28-4.73,0.08
		c-3.56-0.89-12.24,2.92-15.38,3.24c-38.28,3.91-57.25-12.13-57.24-47.78c0-15.01,4.36-23.06,12.63-23.61
		c7.51-0.49,12.97,2.82,16.58,9.52c3.69,6.85,7.9,10,12.24,9.67c6.7-0.51,11.55-7.24,14.99-20c2.4-8.89,3.56-18.63,3.56-28.26
		c0-6.29-1.97-9.11-5.92-8.92c-4.34,0.21-11.04,9.83-15.38,10.06c-10.65,0.57-19.72-1.49-27.23-6.29
		c-8.68-5.57-13.02-13.19-13.02-22.72c0-2.17,0.39-3.89,0.78-6.07c1.19-5.69,2.76-9.18,5.53-10.57c3.47-0.1,5.21-0.15,8.68-0.25
		c18.94-0.55,33.16,2.88,43.01,9.67c3.95,2.79,9.48,8.9,16.97,18.97c5.14,6.83,11.07,9.84,18.16,9.47
		c7.51-0.39,13.31-4.46,17.36-11.52c3.23-5.64,4.73-12.85,4.73-21.42c0-13.45-2.32-25.72-7.09-37.02
		c-6.18-14.62-14.99-22.13-26.43-22.12c-8.29,0-22.9,0.85-43.03,2.17c-20.1,1.31-34.72,2.24-43.81,2.27
		c-6.7,0.02-22.98-1.62-29.21-1.69c-16.34-0.18-30.41,2.36-41.81,7.33c-13.74,5.98-20.53,15.63-20.53,27.92
		c0,6.83,1.6,12.56,4.73,15.36c3.49,3.13,7.51,5.22,9.87,6.49c4.73,3.93,8.07,13.97,9.46,29.32c0.68,7.46,0,16.1-0.39,25.93
		c-1.26,46.08-1.89,68.99-3.15,114.52c-0.8,26.93-3.17,43.81-6.73,50.77c-2.99,5.61-4.49,8.42-7.49,14.05
		c-0.8,1.86-4.34,6.67-11.04,14.96c-3.95,4.89-5.92,9.97-5.92,15.67c0,14.05,6.7,20.58,20.11,18.73
		c29.68-3.91,44.53-5.96,74.21-10.17c10.65-1.57,21.72-2.84,33.13-4.95c13.79-2.55,24.48-4.16,32.38-5.37
		c28.4-4.36,44.98-8.58,50.1-13.03c13.04-11.74,19.75-34.06,19.75-66.78c0-7.26-0.62-16.62-1.19-27.31
		C1048.3,427.37,1048.11,420.32,1048.11,417.5z M1231.21,439.01c-3.95-3.6-7.45-17.73-12.24-40.59
		c-4.26-20.31-7.51-41.31-10.65-63.03c-0.79-5.45-1.19-8.18-1.98-13.63c-2.21-18.76-3.32-28.15-5.53-46.96
		c2.78-1.2,3.95-1.6,3.95-1.6c5.92-0.19,12.2,5.65,18.16,17.03c5.81,11.08,13.8,16.53,23.28,16.03
		c16.97-0.89,25.26-11.35,25.26-31.67c0-11.03-3.61-22.29-10.26-33.26c-7.91-13.04-17.36-19.59-28.43-19.58
		c-3.54,0-9.07,3.63-11.82,4.03c-14.99,1.13-44.59,2-88.79,2.19c-3.56,0.02-9.09-0.72-16.58-2.66c-7.51-1.93-13.02-3.1-16.58-3.1
		c-10.26,0.01-19.29,7.67-27.23,22.89c-6.96,13.32-10.65,25.99-10.65,38.11c0,11.69,0.94,19.39,2.75,23.26
		c2.84,6.07,9.09,9.15,18.94,8.62c11.46-0.62,20.53-4.28,26.45-10.85c2.76-2.88,6.2-9.21,9.85-18.07c2.59-6.28,5.53-9.54,9.09-9.66
		c0,0,1.98,0.7,5.92,2.12c-0.41,22.07-1.14,36.11-1.59,41.89c-1.74,22.78-5.63,48.95-10.65,78.28c-5.22,30.46-9.87,50.4-13.82,58.39
		c-0.78,2.07-4.33,6.24-10.26,12.76c-4.95,5.43-7.49,10.13-7.49,14.07c0,17.07,4.73,27.86,14.6,32.25c9.85,4.4,29.6,4,58.81-0.56
		c36.69-5.72,59.21-11.1,67.49-16.02c10.97-6.52,16.58-19.54,16.58-39.83C1247.79,452.1,1237.53,445.66,1231.21,439.01z
		 M1553.62,414.15c-15.41-42.23-22.89-77.55-22.89-106.41c0-14.58,1.98-26.17,6.31-35.15c2.36-5.15,6.32-10.68,11.82-16.02
		c4.27-4.14,6.31-7.64,6.31-10.52c0-14.97-21.7-22.22-64.71-22.21c-14.22,0-26.56,1.53-37.11,4.44
		c-14.52,4.01-21.7,10.91-21.7,20.23c0,6.12,3.62,10.81,10.65,14.04c7.45,3.42,11.04,9.91,11.04,19.94c0,7.11-3.95,11.7-11.44,13.38
		c-2.78,0.66-9.87,1.22-22.11,1.78c-12.63,0.57-20.92,0.31-24.45-0.54c-7.51-1.98-11.46-7.51-11.46-16.19
		c0-6.33,3.56-12.79,10.65-18.58c7.1-5.79,10.66-11.08,10.66-15.65c0-15.35-21.7-22.73-64.73-22.65
		c-14.6,0.03-26.86,1.73-37.08,4.91c-14.57,4.54-22.11,12.09-22.11,22.32c0,6.37,2.36,10.55,6.7,12.89
		c7.12,3.68,11.07,6.01,12.24,7.01c4.34,5.11,6.31,13.75,5.92,26.02c-0.16,5.33-0.23,8-0.39,13.34c-0.78,0.04-3.14,16.62-7.09,50.32
		c-4.3,36.58-10.26,61.84-17.38,74.65c-0.78,1.91-4.53,5.58-10.65,11.85c-4.73,4.84-7.09,9.33-7.09,12.98
		c0,18.34,7.9,29.01,23.28,32.25c8.29,1.7,25.26,0.65,50.13-2.85c3.95-0.56,9.46-1.33,16.58-1.96c7.48-0.69,12.63-1.39,15.77-1.82
		c16.97-2.31,29.21-6.37,36.72-11.86c9.85-7.16,15-19.16,15-35.6c0-3.77-2.94-8.23-8.68-12.73c-6.71-5.26-10.46-9.96-11.46-12.84
		c-1.3-3.73-1.98-16.28-1.98-37.01c0-14.25,0.8-23.07,2.37-26.23c2.78-7.28,11.07-11.19,24.09-12.05
		c12.63-0.84,15.38,3.47,15.38,14.07c0,7.61,1.19,19.22,3.17,34.23c1.98,15.01,3.15,26.46,3.15,34.23c0,2.71-3.26,6.83-9.87,12.47
		c-6.7,5.71-9.85,11.31-9.85,16.1c0,13.71,8.29,21.18,25.26,24.04c5.12,0.86,19.72,0.68,44.59,0.07
		c52.49-1.28,78.53-9.62,78.53-26.38C1575.71,438.09,1568.23,427.38,1553.62,414.15z M1812.47,400.82
		c-0.58-9.4-0.78-15.32-0.78-17.68c0-7.78-6.71-19.6-14.6-19.94c-2.76-0.12-6.31,2.43-10.65,7.62c-4.34,5.19-9.48,7.64-16.19,7.36
		c-1.17-0.05-2.75-0.11-4.73-0.52c-3.56-1.15-12.24,0.87-15.38,0.76c-38.3-1.39-57.22-15.66-57.22-42.91
		c0-11.48,4.34-17.3,12.63-17.15c7.48,0.13,12.97,3.1,16.55,8.54c3.71,5.63,7.9,8.43,12.24,8.53c6.7,0.17,11.55-4.72,14.99-14.51
		c2.4-6.82,3.56-14.45,3.56-22.02c0-4.95-1.98-7.28-5.92-7.35c-4.34-0.08-11.04,7.03-15.38,6.95c-10.65-0.18-19.75-2.29-27.23-6.32
		c-8.68-4.67-13.02-10.57-13.02-17.69c0-1.62,0.39-2.9,0.78-4.52c1.2-4.21,2.76-6.78,5.53-7.73c3.47,0.03,5.21,0.04,8.68,0.07
		c18.94,0.16,33.16,3.23,43.01,8.92c3.95,2.34,9.48,7.33,16.97,15.72c5.14,5.7,11.07,8.49,18.16,8.65
		c7.51,0.17,13.31-2.74,17.36-8.26c3.21-4.38,4.75-10.24,4.75-17.24c0-10.98-2.36-21.1-7.12-30.28
		c-6.18-11.91-14.99-17.84-26.43-17.84c-8.29,0-22.89,0.64-43.03,1.61c-20.11,0.95-34.72,1.59-43.81,1.58
		c-6.7,0-22.95-1.24-29.21-1.3c-16.4-0.16-30.41,1.63-41.81,5.07c-13.76,4.15-20.53,10.77-20.53,19.38c0,4.79,1.69,8.88,4.73,10.88
		c3.66,2.4,7.51,3.86,9.87,4.81c4.73,2.91,8.08,10.23,9.46,21.26c0.67,5.38,0,11.62-0.39,18.74c-1.26,33.41-1.89,50.27-3.15,84.35
		c-0.8,20.15-3.17,32.81-6.73,37.77c-2.99,3.98-4.49,5.98-7.49,9.98c-0.8,1.34-4.34,4.66-11.04,10.35
		c-3.95,3.35-5.92,7.04-5.92,11.4c0,10.76,6.71,16.46,20.11,16.51c29.69,0.25,44.53,0.52,74.21,1.47
		c10.65,0.29,21.72,0.96,33.13,1.09c13.8,0.16,24.48,0.69,32.38,1.09c28.4,1.43,44.98,1.31,50.13-1.42
		c13.02-7.29,19.72-24.98,19.72-52.59C1813.66,417.88,1813.03,409.82,1812.47,400.82z M2111.18,511.86c0,2.78-2.36,4.62-6.71,6.41
		c-3.79,1.52-5.69,2.29-9.48,3.8c-4.73-0.65-12.68-1.53-23.28-1.86c-9.02-0.28-16.58-1.08-22.89-2.32
		c-27.23-5.32-46.18-18.54-56.42-40.22c-5.14-10.67-9.72-32.01-14.21-63.5c-3.77-26.42-10.65-44.09-20.14-52.35
		c-3.15-2.74-7.11-3.72-11.43-3c-7.48,1.25-10.65,4.89-9.48,11c5.53,34.11,10.82,55.46,16.97,62.96
		c6.33,7.72,16.19,16.71,16.19,24.32c0,19.92-5.55,31.14-16.19,34.3c-8.27,2.46-30.77,0.95-67.48-3.09
		c-29.99-3.3-50.3-7.34-59.98-13.02c-9.82-5.77-14.7-16.76-13.43-31.19c0.29-3.26,2.78-6.96,7.51-10.76
		c5.92-4.73,9.07-7.57,10.26-9.2c3.56-6.27,8.22-22.49,13.41-48.73c4.66-23.58,9.89-47.45,10.65-67.38
		c0.82-21.49-4.34-37.11-10.65-41.63c-2.36-1.04-6.2-2.64-9.85-5.2c-3.08-2.16-4.75-6.45-4.75-11.48c0-9.04,6.88-15.92,20.53-20.32
		c10.98-3.54,24.87-6.05,41.84-5.33c6.63,0.28,9.95,0.42,16.58,0.71c23.28-0.98,38.28-1.34,44.2-1.33
		c21.7,0.03,41.05,4.02,57.61,12.21c20.46,10.13,30.79,24.66,30.79,43.77c0,23.63-13.43,42.03-40.25,53.71
		c2.76,7.88,8.29,13.79,16.97,18.23c13.02,6.65,19.33,9.91,19.72,9.95c10.65,9.64,18.9,19.4,24.09,29.42
		c4.61,8.91,8.81,21.02,11.82,35.62c4.46,21.6,11.04,41.06,20.14,58c0.39,1.23,4.02,5.42,10.26,13.38
		C2108.82,503.8,2111.18,508.32,2111.18,511.86z M1961.22,287.28c0-17.49-7.51-26.58-22.89-26.91c-6.71-0.14-13.82,4.95-12.63,10.93
		c1.26,14.45,1.89,21.7,3.15,36.23c0.41,6.01,2.78,9.28,7.12,9.5c7.88,0.4,14.2-2.88,18.94-9.34
		C1959.18,301.86,1961.22,294.78,1961.22,287.28z"/>
	<path d="M687.63,1050.38c9.56,10.98,25.11,22.86,25.11,35.9c0,34.18-8.5,55.59-25.11,65.85c-12.53,7.74-46.66,15.95-102.28,19.08
		c-44.86,2.52-74.17-2.56-89.11-12.58c-14.97-10.02-22.14-29.15-22.14-57c0-6.47,3.91-13.4,11.36-20.85
		c8.97-8.97,14.36-15.07,15.55-18.29c5.39-12.18,12.47-43.23,20.33-94.12c7.06-45.67,14.7-91.22,16.14-131.12
		c1.53-42.39-5.97-72.3-16.14-81.99c-3.58-2.13-9.57-5.55-14.95-10.58c-4.77-4.47-7.19-13.06-7.19-23.18
		c0-18.2,10.27-31.92,31.11-40.25c17.3-6.91,38.38-10.63,63.39-10.04c35.15,0.82,60.46,4.96,74.77,13.13
		c12.41,7.09,18.53,17.51,18.53,32.18c0,26-19.86,27.44-26.31,46.2c-6.65,19.37-10.78,49.54-10.78,88.9c0,1.32,0,1.97,0,3.29
		c3.61,37.23,9.47,76.76,16.75,116.51C674.89,1016.27,681.05,1042.87,687.63,1050.38z M1015.32,811.08
		c-16.14-10.18-46.05-20.76-90.3-33.14c-32.89-9.19-49.05-20.72-49.05-34.08c0-22.26,14.36-36.44,43.67-42.15
		c13.17-2.56,26.84,7.13,40.67,27.5c13.96,20.56,29.3,28.98,44.86,25.49c22.14-4.97,33.5-22.17,33.5-50.8
		c0-50.57-10.78-73.6-32.3-69.53c-12.56,2.37-29.95,3.24-52.64,2.9c-22.05-0.33-39.47,0.08-51.42,2.15
		c-37.69,6.53-69.39,22.13-95.11,46.51c-29.21,27.69-43.67,61.6-43.67,101.2c0,22.06,8.97,42.49,27.53,60.67
		c5.39,6,22.14,18.84,49.64,38.12c18.53,12.41,27.5,22.79,27.5,32.14c0,27.39-13.75,44.26-41.25,50.25
		c-16.16,3.52-28.17,3.35-37.08-0.92c-8.24-3.95-16.75-6.03-24.53-4.54c-24.53,4.72-37.08,17.07-37.08,42.2
		c0,50.27,16.79,86.6,50.84,106.27c30.37,17.55,70.58,21.3,119.61,8.92c47.86-12.08,87.3-38.97,118.44-78.65
		c31.44-40.07,47.25-84.01,47.25-132.75C1064.38,864.32,1048.21,831.86,1015.32,811.08z M1716.78,899.07
		c-1.51,21.02-18.74,35.16-50.22,44.49c-20.87,6.18-46.05,10.54-75.97,12.8c-29.89,2.25-51.44,2.55-64.58-1.04
		c-22.14-5.39-32.89-19.49-32.89-43.07c0-8.62,1.19-19.09,4.17-30.28c17.94-19.2,26.92-45.9,26.92-80.41
		c0-11.69-9.24-20.31-26.31-25.08c-13.05-3.65-27.53-4.77-43.06-3.14c0,0-5.39,1.66-16.75,4.65c-14.97,10.17-22.14,28.6-22.14,52.1
		c0,17.2,3.58,31.45,11.36,42.64c3,4.03,10.78,10.68,22.14,21.22c7.78,6.99,11.36,14.01,11.36,20.99c0,26.7-14.36,46.29-43.06,59.83
		c-13.78,6.96-39.47,14.06-75.97,22.75c-55.03,13.09-82.24,6.71-82.53-20c-0.26-23.95,10.39-46.32,31.7-66.32
		c25.1-23.56,47.56-66.64,66.39-127.07c16.28-52.24,24.53-95.94,24.53-131.34c0-13.82-2.39-24.39-7.78-32.78
		c-3-4.42-7.21-9.23-13.75-13.49c-5.33-3.47-7.78-6.34-7.78-8.54c0-12.12,21.66-26.73,64-41.54c36.24-12.68,62.78-15.19,79.53-14.23
		c28.11,1.62,49.64,8.47,64.61,20.76c6.56,5.64,16.72,19.06,29.89,40.5c4.19,6.78,8.97,20.41,14.95,41.04
		c23.33,81.44,46.66,144.37,70,187.24c2.97,6.04,9.02,12.97,17.92,19.44c8.67,6.29,14.36,11.94,17.36,15.87
		C1715.58,874.89,1717.74,885.59,1716.78,899.07z M1505.06,693.84c0-2.73-3.55-12.4-10.75-28.15c-6.5-14.21-15.56-21.29-26.92-20.54
		c-6.58,0.44-13.84,8.54-21.53,25.06c-6.6,14.19-9.58,25.14-9.58,32.36c0,3.35,5.39,4.42,15.55,3.53
		c4.78-0.42,19.14-3.24,23.92-3.61c7.78-0.6,13.17-0.45,14.95,0.52C1500.28,701.79,1505.06,698.75,1505.06,693.84z"/>
	<path d="M268.53,1292.12c10.24-10.52,21.92-19.78,21.92-37.77c0-16.65-8.45-31.2-25.57-44.81c-13.5-10.73-29.94-19.45-49.3-26.51
		c-1.83-0.67-6.58-2.39-14.26-5.7c-7.66-3.3-13.87-5.82-19.36-8.09c-47.49-19.68-71.49-25.2-72.34-9.43
		c-0.32,5.9,1.1,11.4,3.66,15.58c5.11,6.9,7.67,10.32,12.78,17.07c0.59,0.57,0.88,0.85,1.46,1.42c5.49,11.91,8.59,26.78,8.41,43.91
		c-0.15,13.76-2.17,29.74-6.58,47.84c-3.62,14.85-7.86,29.78-11.31,45.04c-2.28,10.08-7.49,17.05-15.36,20.59
		c-6.87,3.09-10.58,8.97-10.58,16.97c0,1.82,0,4.02,0.37,6.72c1.46,14.48,17.9,30.28,49.69,45.26c9.85,4.5,31.4,12.71,64.29,21.97
		c80.75,22.74,121.29,0.19,121.29-54.5c0-22.35-7.12-42.33-21.19-61.27C295.91,1312.1,283.16,1300.46,268.53,1292.12z
		 M199.12,1224.91c0-9.06,3.29-12.33,9.51-10.07c10.58,3.85,18.63,17.24,18.63,27.92c0,17.23-6.22,23.91-18.99,19.46
		c-3.29-1.15-5.63-6.89-7.31-16.82C199.78,1238.49,199.12,1231.5,199.12,1224.91z M217.75,1357.12c-9.85-3-13.51-12.17-12.78-27.48
		c0.59-10.18,0.88-15.28,1.46-25.46c0.37-4.73,3.66-6.02,10.61-3.76c15.7,5.1,23.38,16.86,23.38,36.34
		C240.42,1354.86,232.74,1361.68,217.75,1357.12z M543.9,1412.08c0.52,8.76,1.1,16.54,1.1,22.46c0,26.73-6.22,44.02-18.26,51.59
		c-4.75,2.84-20.11,3.9-46.4,2.52c-7.31-0.38-17.22-0.98-29.96-1.56c-10.58-0.48-20.82-1.65-30.69-2.6
		c-27.47-2.76-41.21-4.49-68.68-8.74c-12.41-1.86-18.63-8.56-18.63-19.14c0-4.31,1.83-7.64,5.49-10.35
		c6.19-4.6,9.48-7.38,10.21-8.58c2.78-3.53,4.17-5.3,6.95-8.84c3.29-4.46,5.49-16.67,6.22-36.8c1.17-34.06,1.75-51.16,2.93-85.52
		c0.37-7.31,0.99-13.66,0.37-19.38c-1.28-11.71-4.39-19.86-8.78-23.65c-2.19-1.39-5.75-3.55-9.14-6.7
		c-2.92-2.7-4.36-7.23-4.36-12.28c0-9.12,6.27-14.91,18.99-17.15c10.54-1.85,23.52-1.75,38.72,0.32c5.78,0.79,20.82,3.74,27.04,4.33
		c8.41,0.8,21.92,1.33,40.54,1.28c18.63-0.05,32.16-0.53,39.81-0.44c10.61,0.12,18.77,6.25,24.48,18.39
		c4.42,9.41,6.58,19.65,6.58,30.84c0,7.1-1.42,13.08-4.39,17.6c-3.75,5.7-9.12,8.76-16.07,8.68c-6.58-0.08-12.04-2.88-16.8-8.71
		c-6.95-8.59-12.07-13.82-15.73-16.3c-9.12-6.08-22.28-9.69-39.81-11.04c-3.22-0.25-4.83-0.38-8.05-0.65c-2.54,0.79-4,3.35-5.1,7.61
		c-0.37,1.62-0.73,2.93-0.73,4.61c0,7.38,4.02,13.8,12.04,19.11c6.95,4.57,15.36,7.18,25.21,7.74c4.02,0.23,10.24-6.82,14.24-6.65
		c3.66,0.16,5.49,2.55,5.49,7.58c0,7.71-1.07,15.41-3.29,22.27c-3.19,9.84-7.66,14.65-13.87,14.31c-4.02-0.22-7.9-3.15-11.34-8.99
		c-3.32-5.66-8.39-8.89-15.34-9.45c-7.68-0.61-11.68,5.02-11.68,16.64c0,27.59,17.53,43.39,52.95,45
		c2.93,0.13,10.97-1.84,14.26-0.76c1.83,0.39,3.29,0.44,4.39,0.47c6.19,0.19,10.95-2.33,14.97-7.58c4.02-5.24,7.31-7.87,9.85-7.85
		c7.31,0.07,13.53,11.41,13.53,19.04C543.17,1397.14,543.36,1402.96,543.9,1412.08z M819.99,1403.38c-5.42-2.82-9.14-6.44-10.97-9.9
		c-14.24-24.21-28.5-61.8-42.74-114.05c-3.66-13.24-6.58-22.11-9.14-26.37c-8.02-13.4-14.24-21.72-18.26-25.02
		c-9.14-7.11-22.28-9.96-39.45-9.26c-10.24,0.41-26.45,4.77-48.59,11.84c-25.85,8.25-39.11,15.81-39.11,23.42
		c0,1.38,1.51,3.34,4.75,5.84c4.01,3.09,6.58,6.4,8.41,9.36c3.29,5.61,4.75,12.38,4.75,21c0,22.03-5.04,48.3-14.99,77.71
		c-11.49,33.94-25.24,55.83-40.55,65.82c-13.02,8.49-19.52,19.47-19.36,32.76c0.18,14.92,16.8,22.92,50.42,22.11
		c22.28-0.54,37.99-2.27,46.4-5.01c17.53-5.18,26.31-15.8,26.31-31.27c0-4.01-2.19-8.24-6.95-12.63
		c-6.95-6.6-11.7-10.99-13.53-13.57c-4.73-7.11-6.92-15.74-6.92-25.86c0-13.85,4.39-23.66,13.51-29.52
		c6.95-1.58,10.24-2.57,10.24-2.57c9.48-0.83,18.33-0.17,26.31,2c10.41,2.83,16.07,8.01,16.07,15.22c0,21.35-5.49,37.63-16.43,48.7
		c-1.83,6.6-2.56,12.75-2.56,17.79c0,13.85,6.56,22.44,20.09,26.08c8.05,2.4,21.19,2.69,39.45,0.96
		c18.26-1.72,33.65-7.89,46.4-14.11c19.22-9.38,29.78-21.12,30.69-34.61c0.59-8.69-0.73-15.12-3.66-19.37
		C828.74,1408.82,825.26,1406.12,819.99,1403.38z M696.14,1324.31c-1.1-0.57-4.39-0.55-9.14-0.05c-2.93,0.31-11.68,2.24-14.6,2.52
		c-6.22,0.6-9.51-0.14-9.51-2.21c0-4.46,1.81-11.23,5.85-20.25c4.7-10.49,9.14-15.89,13.14-16.35c6.95-0.79,12.49,3.47,16.46,12.39
		c4.41,9.91,6.56,16,6.56,17.72C704.89,1321.23,701.99,1323.32,696.14,1324.31z M1099.7,1149.56c0,5.46-2.19,10.55-6.22,15.27
		c-5.38,6.3-8.75,10.88-9.85,13.75c-4.39,11.81-6.58,30.64-6.58,56.51c0,8.39,0,20.76,0.37,37.06c0.37,16.28,0.73,28.21,0.73,36.56
		c0,23.66-10.22,48.75-31.06,75.13c-20.66,26.16-43.1,41.91-66.85,47.55c-43.1,10.25-73.47,9.16-90.96-2.43
		c-18.09-11.98-27.4-37.76-27.4-78.33c0-7.77,0.2-19.69,1.1-35.3c0.91-15.7,1.46-27.74,1.46-35.58c0-17.49-1.83-29.63-5.85-36.94
		c-1.83-3.5-5.9-6.49-11.31-9.55c-4.01-2.27-6.22-5.76-6.22-11.15c0-10.47,6.99-19.64,20.82-27.66c9.5-5.51,20.82-10.11,33.99-13.43
		c39.81-10.02,59.9-7.27,59.9,9.76c0,5.41-2.19,10.42-6.22,15.03c-5.37,6.15-9.12,11.09-10.21,13.9
		c-4.02,10.78-6.22,27.2-6.22,49.82c-0.15-0.25-0.22-0.37-0.37-0.62c0.37,21.78,2.56,36.21,6.58,42.69
		c6.22,9.48,19.72,11.44,40.54,6.04c35.08-9.09,44.93-24.4,44.93-60.22c0-18.45-0.71-32.43-2.19-42.5
		c-1.79-12.17-5.97-19.63-12.78-21.49c-6.03-1.66-9.14-5.82-9.14-12.34c0-18.52,19.36-33.31,57.73-44.22
		c9.85-2.8,18.69-3.89,26.31-2.75C1094.53,1135.58,1099.7,1140.79,1099.7,1149.56z M1230.75,1136.87c0,0-1.1,0.66-3.66,2.46
		c2.05,18.19,3.07,27.32,5.12,45.6c0.73,5.29,1.1,7.93,1.83,13.23c2.93,21.13,5.94,41.65,9.87,61.5
		c4.43,22.34,7.66,36.31,11.31,39.55c5.85,6.07,15.34,11.72,15.34,19.66c0,20.77-5.17,34.45-15.34,41.78
		c-7.67,5.52-28.5,12.29-62.46,20.47c-27.04,6.51-45.3,8.39-54.44,5.11c-9.12-3.29-13.51-12.83-13.51-28.61
		c0-3.68,2.34-8.29,6.92-13.91c5.5-6.75,8.78-11.09,9.51-13.1c3.66-7.95,7.96-27.25,12.78-56.78c4.64-28.46,8.25-53.93,9.87-75.96
		c0.41-5.57,1.1-19.06,1.46-40.1c-3.66-0.45-5.49-0.67-5.49-0.67c-3.29,0.92-5.99,4.64-8.39,11.14c-3.38,9.17-6.58,15.8-9.14,19.08
		c-5.49,7.38-13.87,12.65-24.48,15.6c-9.14,2.55-14.9,1.01-17.53-3.86c-1.68-3.1-2.56-9.89-2.56-20.46c0-10.97,3.4-23.27,9.85-37.15
		c7.36-15.84,15.72-25.33,25.21-28.03c3.29-0.94,8.41-1.3,15.36-1.44c6.92-0.13,12.04-0.84,15.34-1.77
		c40.91-11.55,68.31-19.71,82.21-24.55c2.54-1.05,7.66-6.1,10.95-6.98c10.24-2.72,18.98,1.68,26.31,13.37
		c6.16,9.83,9.51,20.83,9.51,32.34c0,21.12-7.68,33.46-23.38,37.51c-8.78,2.26-16.23-1.81-21.58-11.78
		C1242.04,1139.86,1236.23,1135.4,1230.75,1136.87z M1434.52,1283.5c0,21.25-5.2,35.03-15.36,42.05
		c-7.64,5.28-28.48,11.2-62.46,18.31c-27.4,5.73-45.3,7.05-54.44,3.37c-9.12-3.68-13.51-13.68-13.51-29.97
		c0-3.79,2.37-8.5,6.95-14.14c5.48-6.76,8.75-11.15,9.48-13.19c3.29-7.98,7.62-27.28,12.43-57.74c4.32-27.38,8.98-54.15,9.85-77.01
		c0.9-23.59-3.66-39.31-9.85-42.98c-2.19-0.57-5.9-1.46-9.14-3.3c-2.76-1.56-4.39-5.95-4.39-11.47c0-9.99,6.29-19.31,18.99-27.23
		c10.59-6.6,23.44-11.91,38.74-15.11c21.5-4.49,36.93-5.16,45.67-2.3c7.61,2.49,11.31,7.63,11.31,15.77
		c0,14.41-12.12,17.31-16.07,28.54c-4.06,11.54-6.58,28.91-6.58,51.44c0,0.74,0,1.11,0,1.85c2.19,20.94,5.79,43.27,10.24,66.23
		c5.02,25.87,8.78,41.75,12.78,45.96C1425.02,1268.7,1434.52,1275.37,1434.52,1283.5z M1908.92,1069.27c0,5.84-2.21,10.07-6.22,12.9
		c-5.35,3.77-8.75,6.92-9.85,9.41c-4.39,10.34-6.58,29.49-6.58,57.47c0,9.07,0,22.46,0.37,40.33c0.37,17.84,0.73,30.99,0.73,40.08
		c0,25.73-10.24,47.93-31.06,67.95c-20.62,19.82-43.1,28.64-66.85,26.19c-43.1-4.44-73.43-14.8-90.96-33.45
		c-18.09-19.24-27.4-51.54-27.4-97.36c0-8.78,0.19-22.09,1.1-39.36c0.9-17.26,1.46-30.48,1.46-39.15c0-19.33-1.83-33.12-5.85-42.14
		c-1.83-4.29-5.9-8.58-11.31-13.2c-1.67-1.42-2.93-3.03-3.95-4.8c0.44,3.74,0.73,7.55,0.73,11.51c0,8.2-1.63,14.94-4.75,20.45
		c-3.71,6.54-8.75,10.37-15.7,10.57c-5.85,0.17-10.97-3.16-14.97-10.02c-6.22-10.28-10.6-16.61-13.17-18.79
		c-7.31-6.58-17.93-9.33-31.43-7.86c-16.75,1.82-25.19,7.67-25.19,16.89c0,9.58,3.67,16.71,10.58,20.97
		c6.06,3.73,14.24,5.39,23.75,4.76c4.02-0.27,11.34-8.09,15.7-8.34c4.02-0.23,5.85,15.2,5.85,46.19c0,7.85-4.75,15.49-12.04,15.86
		c-2.56,0.13-6.95-3.19-12.8-9.85c-5.85-6.69-12.41-9.74-19.36-9.21c-5.49,0.42-9.14,2.66-10.61,6.66c-0.73,2-1.13,7.13-1.44,14.87
		c-1.3,32.15,1.8,61.94,7.66,89.27c1.46,5.82,8.2,14.92,20.09,26.79c10.97,10.94,16.07,20.6,15.36,29.01
		c-0.75,8.83-8.41,13.43-23.38,14.01c-4.02,0.16-9.7-0.23-17.19-0.46c-7.45-0.23-12.78-0.15-16.07,0.03
		c-27.47,1.85-41.21,3.01-68.68,5.68c-12.41,1.07-18.63-4.99-18.63-17.83c0-5.07,2.56-11.94,8.75-19.55
		c5.56-7.08,8.34-10.61,13.9-17.68c7.31-9.27,9.85-20.01,9.85-31.64c-0.57-44.74-0.86-66.87-1.44-110.65c0-0.15,0-0.23,0-0.38
		c0-25.42-3.66-40.3-9.87-44.62c-2.19-0.8-5.88-2.05-9.14-4.22c-2.81-1.87-4.36-6.4-4.36-11.96c0-10.05,6.28-18.87,18.99-25.76
		c10.56-5.72,23.38-10.01,38.72-11.72c1.1-0.15,2.93-0.4,5.49-0.36c2.05-0.27,3.07-0.4,5.12-0.67c-1.83,0.24,6.56-0.96,25.21-3.02
		c8.39-0.93,21.41-3.28,37.62-6.71c16.29-3.44,28.87-5.55,36.52-5.96c10.24-0.55,18.22,6.28,24.11,19.94
		c1.75,4.05,3.06,8.29,4.15,12.64c0.97-10.06,7.84-17.63,20.62-22.42c9.49-3.55,20.82-5.52,33.99-5.2
		c39.81,0.96,59.9,12.29,59.9,30.84c0,5.89-2.2,10.52-6.22,14.05c-5.34,4.7-9.12,8.78-10.22,11.47
		c-4.02,10.36-6.22,27.59-6.22,52.63c-0.15-0.33-0.22-0.49-0.37-0.82c0.36,24.24,2.56,41.13,6.58,49.81
		c6.22,12.82,19.72,19.8,40.54,22.09c35.08,3.87,44.93-8.11,44.93-47.36c0-20.22-0.71-35.81-2.19-47.46
		c-1.8-14.11-5.88-24.06-12.77-29.2c-6.03-4.49-9.14-10.38-9.14-17.45c0-20.13,19.36-28.36,57.73-20.43
		c9.85,2.04,18.69,5.59,26.31,10.96C1903.78,1051.41,1908.92,1059.89,1908.92,1069.27z M2109.01,1327.15
		c0,31.1-4.75,50.24-13.87,58.81c-4.75,4.41-11.7,4.72-20.45,1.52c-1.46-0.53-3.72-1.31-6.95-2.89c-2.54-1.24-4.75-2.07-5.85-2.08
		c-7.45-2.32-11.18-3.45-18.63-5.62c-11.34-2.25-25.98-6.48-43.84-12.02c-30.66-9.51-45.3-13.17-44.2-12.9
		c-30.69-7.5-46.03-22.59-46.03-47.53c0-5.52,3.25-14.89,9.85-27.85c7.17-14.08,11.7-24.39,12.8-31.19
		c4.75-30.22,7.47-60.45,7.29-90.77c-0.18-29.85-4-49.07-10.95-57.23c-2.19-1.78-5.77-4.55-9.14-8.33
		c-2.97-3.33-4.36-8.58-4.36-14.41c0-10.55,6.27-17.13,18.99-18.49c10.53-1.12,23.41,0.52,38.72,6.17
		c21.46,7.91,36.89,16.87,45.66,25.33c7.62,7.35,11.34,14.99,11.34,23.33c0,14.76-12.16,10.23-16.09,19.31
		c-4.06,9.38-6.56,23.83-6.56,43.72c0,27.93,0.37,43.37,0.73,46.57c5.46,36.74,13.51,57.02,24.11,60.83
		c6.92,2.49,13.87,2.79,20.45,0.81c9.85-2.6,16.43-3.96,19.72-4.08c6.58,0.16,11.31,0.73,14.6,2.17c3.29,1.44,6.22,3.85,9.51,7.52
		c5.85,6.68,9.12,11.12,10.22,13.45C2107.91,1306.17,2109.01,1314.72,2109.01,1327.15z"/>
	<path d="M328.97,1546.79c-13.3-2.52-26.22-4.54-38.74-5.82c-18.19-1.86-29.5-2.96-31.74-3.15c-5.5-0.48-10.9-2.18-14.16-2.41
		c-0.01-0.11-3.32-1.11-9.35-2.58c-26.26-6.4-48.96-8.68-67.31-7.11c-22.15,1.89-33.04,11.51-33.04,28.17
		c0,9.27,2.52,17.71,7.63,23.02c5.9,6.12,12.07,10.43,15.87,13.2c10.8,11.15,15.87,28.54,15.87,52.62c0,15.92,0,23.87,0,39.77
		c-12.07,102.48-24.77,165.72-36.81,188.69c-1.93,2.94-7.63,7.99-17.16,16.66c-7.61,6.92-11.43,13.6-11.43,19.85
		c0,44.43,15.54,60.78,73.04,66.55c25.89,2.6,48.88,4.76,69.22,4.76c20.31,0,37.57-2.71,48.91-4.44
		c44.33-6.76,61.58-15.93,61.58-60.99c0-11.4-15.85-23.77-26.04-34.76c-8.5-9.17-17.77-43.69-28.57-103.11
		c8.26-5.46,29.48-8.26,62.88-8.89c33.39-0.63,57.15-6.22,71.75-15.27c22.87-14.07,34.3-40.69,34.3-79.66
		C475.66,1602.15,426.33,1565.27,328.97,1546.79z M337.21,1687.7c-7.96,10.31-20.18,15.64-33.01,13.19c-3.59-0.69-6.36-1.33-7-1.97
		c-10.14-5.77-8.22-15.86-8.88-25.06c-0.61-8.62-1.27-26.46-1.27-53.42c0-13.2,5.07-18.69,15.87-17.05
		c29.84,4.52,45.08,21.48,45.08,51.24C348.01,1667.54,344.24,1678.59,337.21,1687.7z M826.72,1827.69
		c3.17,5.79,5.07,17.83,5.07,36.51c0,46.67-8.24,78.18-24.11,95.82c-8.27,9.09-20.33,13.26-35.57,13.31
		c-2.54,0.01-6.42,0.1-12.07-0.48c-4.39-0.44-8.27-0.51-10.17,0.01c-12.95,0.42-19.43,0.62-32.38,1.03
		c-19.68,2.04-45.12,2.59-76.21,2.04c-53.27-0.95-78.72-1.55-76.82-1.55c-53.34-0.03-80.02-16.06-80.02-49.05
		c0-7.34,5.66-20.56,17.14-39.66c12.5-20.8,20.33-36.03,22.23-45.54c8.24-42.23,13.02-84.77,12.7-126.86
		c-0.31-41.5-7-67.4-19.07-76.59c-3.8-1.79-10-4.51-15.87-8.84c-4.95-3.65-7.63-10.82-7.63-19.14c0-14.97,10.88-26.05,33.04-32.78
		c18.37-5.58,40.72-8.61,67.31-8.36c37.36,0.36,64.21,3.26,79.38,9.85c13.2,5.74,19.67,14.47,19.67,26.9
		c0,22.03-21.11,23.38-27.94,39.09c-7.04,16.18-11.43,38.56-11.43,67c0,39.91,0.63,61.3,1.27,65.61
		c9.53,48.85,23.5,72.87,41.91,72.72c12.07-0.1,24.14-3.39,35.57-9.95c17.14-9.3,28.57-15.33,34.3-17.97
		c11.41-4.76,19.67-7.7,25.38-8.22c5.73-0.52,10.8,0.64,16.53,3.42C819.09,1821.15,824.82,1825.07,826.72,1827.69z M1302.23,1842.49
		c-9.46-7.39-15.87-15.68-19.04-23.08c-24.77-52.25-49.54-128.42-74.29-225.78c-6.36-24.64-11.43-40.7-15.9-48.35
		c-13.97-24.13-24.75-38.65-31.74-44.28c-15.87-12.14-38.74-16-68.58-12.52c-17.77,2.07-46,12.12-84.45,28.64
		c-44.97,19.32-67.95,35.66-67.95,48.93c0,2.41,2.58,5.51,8.24,9.24c6.99,4.61,11.43,9.87,14.6,14.7c5.73,9.2,8.27,20.88,8.27,36.01
		c0,38.75-8.75,85.95-26.04,138.51c-19.98,60.74-43.86,99.34-70.48,117.45c-22.65,15.4-33.95,34.05-33.67,56.01
		c0.31,24.62,29.23,37.19,87.65,37.04c38.74-0.1,66.05-1.92,80.65-6.2c30.47-8.01,45.71-26.86,45.71-55.32
		c0-7.44-3.8-15.32-12.07-23.5c-12.07-12.27-20.31-20.22-23.48-24.85c-8.26-12.8-12.07-28.17-12.07-46.35
		c0-24.83,7.61-42.63,23.48-53.76c12.07-3.28,17.8-5.23,17.8-5.23c16.51-2.01,31.89-1.14,45.71,2.67
		c18.07,4.97,27.94,14.66,27.94,28.14c0,39.81-9.53,70.23-28.57,90.3c-3.17,12.21-4.44,23.62-4.44,33.09
		c0,25.88,11.43,42.63,34.91,51.47c13.97,5.68,36.84,8.25,68.58,8.15c31.77-0.1,58.52-4.42,80.65-12.14
		c33.4-11.66,51.74-31.76,53.35-59.33c1.03-17.71-1.27-31.37-6.34-41.03C1317.5,1856.34,1311.36,1849.62,1302.23,1842.49z
		 M1086.98,1678.74c-1.93-0.96-7.63-0.69-15.9,0.6c-5.07,0.79-20.31,5.04-25.38,5.83c-10.8,1.68-16.53,0.72-16.53-2.98
		c0-8.02,3.16-20.32,10.17-36.93c8.16-19.35,15.87-29.57,22.87-30.85c12.07-2.21,21.68,4.89,28.57,20.71
		c7.65,17.56,11.43,28.52,11.43,31.72C1102.21,1672.55,1097.12,1676.53,1086.98,1678.74z M1521.83,1565.54
		c-14.48,20.45-21.6,42.93-21.6,67.54c0,67.26,22.23,100.9,66.68,100.83c10.8-0.02,28.62-8.38,52.08-24.86
		c23.86-16.75,40.01-25.18,47.61-25.02c4.46,0.1,8.26,2.38,11.43,6.14c15.24,21.62,22.87,61.39,22.87,119.94
		c0,51.13-14.78,91.29-43.18,119.04c-26.67,26.06-62.24,39.94-106.69,39.94c-57.81-0.01-107.3-28.63-147.33-80.79
		c-37.94-49.44-57.15-106.04-57.15-172.25c0-68.34,19.02-132.78,56.51-196.5c41.17-69.96,92.09-105.18,151.14-107.05
		c19.67-0.62,39.53,5.33,57.78,16.66c19.03,11.81,30.48,17.18,34.94,17.24c5.07,0.07,14.81-10.92,20.31-10.33
		c16.4,1.74,27.31,16.47,32.4,46.05c1.27,9.38,2.54,29.47,2.54,60.48c0,29.56-26.67,54.01-52.08,53.56
		c-12.07-0.21-23.49-11.29-33.01-33.02c-9.51-21.72-20.97-32.49-33.67-32.39C1558.65,1530.96,1537.73,1543.08,1521.83,1565.54z
		 M2085.58,1867.02c0,52.39-10.78,86.3-31.74,102.04c-8.24,5.89-34.91,8.58-80.65,8.55c-12.7-0.01-29.92-0.1-52.08,0.68
		c-18.35,0.64-36.18-0.01-53.34-0.01c-47.75-0.3-71.62-0.46-119.37-0.77c-21.6-0.01-32.4-12.81-32.4-36.79
		c0-9.72,3.17-17.94,9.53-25.33c10.8-12.58,16.51-19.93,17.77-22.87c4.83-8.83,7.24-13.24,12.07-22.01
		c5.73-10.99,9.53-38.99,10.8-83.63c2.03-75.59,3.04-113.04,5.07-187.29c0.63-15.81,1.72-29.54,0.63-41.66
		c-2.22-24.89-7.61-41.43-15.24-48.37c-3.8-2.43-10.16-6.27-15.87-11.76c-5.08-4.88-7.63-14.05-7.63-24.79
		c0-19.29,10.91-33.7,33.04-41.24c18.36-6.26,40.94-8.13,67.31-4.53c10.02,1.37,36.2,7.68,46.98,9.37
		c14.6,2.28,38.11,4.67,70.51,9.45c32.38,4.77,55.88,9.59,69.22,13.19c18.41,4.96,32.58,21.18,42.54,47.56
		c7.68,20.33,11.44,41.03,11.44,62.46c0,13.65-2.47,24.48-7.63,31.97c-6.41,9.31-15.87,13.37-27.94,10.82
		c-11.43-2.42-20.97-9.66-29.21-22.73c-12.07-19.24-20.97-31.23-27.31-37.23c-15.87-14.69-38.74-25.39-69.22-30.21
		c-5.59-0.88-8.38-1.31-13.97-2.15c-4.46,1.43-7,6.68-8.9,15.51c-0.63,3.44-1.27,6.15-1.27,9.65c0,15.43,6.98,29.03,20.94,40.69
		c12.02,10.03,26.67,16.23,43.84,18.93c6.97,1.1,17.77-12.18,24.77-10.94c6.34,1.12,9.51,6.49,9.51,16.66
		c0,15.66-1.83,31.1-5.71,44.71c-5.54,19.48-13.34,28.87-24.14,27.46c-6.97-0.9-13.69-7.37-19.67-19.84
		c-5.85-12.2-14.6-19.32-26.67-20.78c-13.34-1.61-20.33,10.32-20.33,35.05c0,58.64,30.48,90.32,92.08,96.57
		c5.07,0.52,19.04-2.78,24.77-0.11c3.17,1.05,5.7,1.34,7.61,1.55c10.8,1.22,19.06-3.21,26.04-12.91
		c6.97-9.69,12.7-14.13,17.16-13.47c12.68,1.87,23.48,25.61,23.48,40.51c0,4.53,0.32,15.85,1.27,33.83
		C2084.59,1840.07,2085.58,1855.37,2085.58,1867.02z"/>
</g>
</svg>
