<?xml version="1.0" standalone="no"?>
<!DOCTYPE svg PUBLIC "-//W3C//DTD SVG 20010904//EN"
 "http://www.w3.org/TR/2001/REC-SVG-20010904/DTD/svg10.dtd">
<svg version="1.0" xmlns="http://www.w3.org/2000/svg"
 width="2400.000000pt" height="2400.000000pt" viewBox="0 0 2400.000000 2400.000000"
 preserveAspectRatio="xMidYMid meet">

<g transform="translate(0.000000,2400.000000) scale(0.100000,-0.100000)"
fill="#000000" stroke="none">
<path d="M12059 20572 c-167 -55 -299 -214 -465 -557 -242 -502 -526 -1448
-673 -2247 -81 -438 -160 -1005 -206 -1486 -17 -177 -30 -263 -40 -279 -32
-48 -313 -323 -386 -377 -162 -120 -317 -196 -371 -183 -38 10 -118 87 -155
148 -34 58 -77 178 -87 244 l-5 40 57 23 c137 53 312 199 429 359 65 88 155
256 198 368 42 110 92 320 106 437 26 237 -40 403 -186 470 -70 32 -223 32
-310 0 -83 -30 -184 -102 -256 -181 -149 -162 -291 -478 -369 -821 -51 -223
-65 -338 -65 -555 0 -229 9 -276 75 -412 73 -149 195 -247 365 -294 109 -30
313 -30 428 0 137 36 340 145 468 252 26 22 48 39 50 39 2 0 3 -111 1 -247 -4
-265 9 -587 34 -823 69 -680 250 -1132 581 -1452 136 -132 239 -178 399 -178
173 0 240 39 347 203 216 327 397 695 498 1006 46 145 50 164 37 177 -32 33
-138 39 -190 13 -9 -5 -78 -132 -152 -282 -143 -290 -245 -467 -412 -718 -122
-184 -126 -189 -155 -163 -26 23 -134 163 -171 220 -193 301 -299 781 -339
1529 -12 228 -6 989 9 1175 l8 95 57 77 c201 271 518 799 717 1193 272 538
504 1173 634 1735 131 566 120 1037 -30 1286 -49 82 -79 110 -153 147 -58 28
-76 32 -165 34 -77 2 -114 -1 -157 -15z m176 -183 c143 -217 138 -684 -15
-1274 -139 -536 -383 -1182 -648 -1710 -84 -169 -250 -468 -321 -579 -28 -46
-31 -48 -31 -23 0 37 64 541 95 746 160 1060 465 2185 717 2651 62 114 147
230 168 230 4 0 20 -18 35 -41z m-2122 -3154 c0 -246 -181 -720 -381 -1000
l-57 -80 -3 35 c-10 105 57 471 124 669 76 228 149 366 248 469 49 50 51 51
60 30 5 -13 9 -68 9 -123z"/>
<path d="M5740 18885 c-137 -30 -236 -75 -372 -166 -121 -82 -250 -191 -384
-325 -168 -169 -260 -282 -810 -993 -129 -167 -246 -292 -336 -360 -32 -24
-58 -50 -58 -57 0 -55 164 -59 287 -7 147 62 312 191 488 382 86 93 162 180
565 651 266 311 564 574 746 657 45 20 57 22 76 12 77 -40 144 -121 207 -246
163 -325 188 -844 91 -1838 -47 -481 -54 -588 -53 -805 0 -167 4 -224 22 -310
38 -189 117 -312 237 -367 110 -50 275 -41 373 21 120 76 279 337 421 691 60
148 211 602 260 778 18 64 34 116 35 115 1 -2 -2 -66 -6 -143 -16 -267 -23
-1238 -10 -1415 32 -432 92 -677 216 -870 104 -162 224 -229 410 -230 194 0
310 73 448 282 160 243 247 502 372 1116 129 637 129 640 190 1827 52 1023 50
958 31 974 -23 19 -97 25 -140 11 -32 -10 -38 -18 -51 -63 -37 -134 -64 -352
-120 -982 -99 -1124 -130 -1350 -271 -1977 -79 -355 -131 -516 -221 -691 -47
-92 -139 -223 -186 -266 l-25 -23 -41 86 c-160 333 -197 921 -150 2376 13 408
6 951 -15 1082 -16 105 -38 146 -91 173 -55 27 -181 33 -239 11 -64 -25 -74
-40 -86 -141 -62 -506 -313 -1457 -522 -1975 -118 -290 -297 -602 -369 -641
-15 -8 -22 -3 -39 31 -84 165 -86 543 -5 1350 46 459 56 615 62 960 8 455 -7
610 -79 827 -55 166 -157 310 -275 389 -32 21 -96 51 -143 68 -77 26 -99 30
-230 33 -101 2 -165 -2 -210 -12z"/>
<path d="M13845 18354 c-111 -18 -224 -69 -313 -143 -120 -100 -262 -328 -327
-525 -77 -233 -38 -461 104 -615 l41 -44 -14 -67 c-33 -158 -152 -540 -336
-1080 -196 -575 -256 -708 -400 -890 -63 -81 -171 -182 -216 -202 -74 -34
-179 157 -221 400 -20 118 -22 456 -4 637 32 318 84 610 143 795 31 95 89 223
107 235 21 12 60 -80 86 -206 8 -37 24 -149 35 -250 11 -101 23 -191 26 -200
6 -20 46 -39 84 -39 47 0 77 17 88 49 19 54 35 272 29 396 -17 343 -105 455
-358 455 -250 0 -409 -145 -528 -484 -175 -497 -233 -1164 -130 -1510 43 -143
124 -279 206 -344 181 -143 503 -160 687 -37 115 76 246 249 351 460 85 170
141 319 244 650 96 305 88 283 93 265 3 -8 15 -51 27 -95 50 -179 137 -297
269 -362 74 -37 78 -38 208 -41 102 -3 145 0 190 13 229 66 351 233 469 638
62 213 131 593 151 835 4 45 10 82 13 82 4 0 67 36 140 80 74 44 135 80 137
80 11 0 1 -209 -21 -471 -44 -528 -51 -1037 -15 -1160 21 -74 94 -109 224
-108 93 0 160 21 187 59 10 14 41 126 69 250 139 605 319 1090 547 1479 94
160 336 524 376 566 22 23 -15 -356 -73 -740 -75 -494 -104 -777 -121 -1178
-13 -286 -6 -447 19 -499 27 -52 89 -78 188 -78 124 0 194 33 194 91 0 39 46
286 75 399 73 287 209 590 389 865 75 114 219 295 236 295 14 0 25 -87 23
-190 -2 -117 -9 -157 -138 -815 -142 -723 -155 -817 -135 -969 23 -179 98
-262 260 -287 217 -33 433 75 709 356 l115 116 26 -19 c168 -125 456 -154 701
-72 147 49 449 233 699 426 210 162 520 494 520 558 0 23 -32 36 -87 36 -62
-1 -79 -12 -143 -90 -164 -200 -479 -454 -812 -653 -206 -124 -334 -178 -418
-177 -66 1 -152 69 -186 148 -22 51 -44 123 -44 145 0 10 48 82 106 159 439
588 698 1169 655 1470 -27 191 -133 286 -330 296 -183 9 -302 -38 -423 -167
-198 -211 -360 -610 -445 -1096 -13 -75 -17 -158 -18 -335 0 -216 2 -242 24
-322 l23 -88 -70 -83 c-39 -45 -113 -123 -165 -174 -96 -93 -262 -223 -284
-223 -10 0 -13 30 -13 115 0 130 10 206 74 555 107 582 139 829 140 1080 1
178 -1 201 -22 265 -33 99 -80 161 -150 193 -49 23 -70 27 -147 27 -124 -1
-182 -28 -286 -135 -97 -100 -236 -284 -320 -423 -58 -98 -64 -105 -67 -78 -2
17 14 203 34 413 34 345 38 412 39 683 0 342 -8 392 -70 451 -60 57 -189 71
-292 32 -98 -36 -189 -143 -455 -533 -192 -281 -367 -601 -469 -854 l-34 -84
-6 289 c-5 224 -10 302 -23 349 -38 136 -109 186 -264 186 -105 0 -151 -14
-281 -87 -109 -62 -108 -62 -110 43 -1 28 -10 104 -21 168 -64 374 -221 588
-490 669 -55 17 -228 29 -285 20z m184 -179 c129 -65 220 -215 266 -440 21
-106 36 -331 27 -429 l-7 -79 -101 -38 c-159 -60 -273 -90 -359 -96 -79 -5
-81 -5 -124 28 -137 105 -192 331 -132 543 62 224 178 423 295 508 48 34 73
35 135 3z m4687 -907 c16 -36 19 -65 18 -183 -1 -122 -4 -151 -28 -230 -67
-222 -203 -503 -369 -762 -32 -51 -61 -93 -64 -93 -14 0 43 389 83 567 65 295
194 598 302 716 14 15 29 27 32 27 4 0 16 -19 26 -42z m-4431 -345 c-70 -483
-220 -941 -356 -1086 l-49 -52 -20 25 c-78 95 -155 349 -194 640 -15 110 -36
360 -36 426 l0 31 48 -8 c125 -21 308 -5 480 40 144 39 136 40 127 -16z"/>
<path d="M16032 13361 c-172 -59 -310 -246 -358 -485 -54 -263 65 -435 323
-471 l52 -7 -51 -146 c-115 -333 -224 -569 -443 -957 -123 -217 -202 -336
-279 -421 l-54 -59 -11 28 c-64 166 -24 682 110 1411 22 120 39 229 37 240 -7
49 -153 75 -233 42 -61 -26 -79 -69 -165 -406 -50 -197 -76 -259 -167 -399
-58 -89 -148 -191 -169 -191 -16 0 -30 45 -45 140 -14 92 -7 283 20 512 23
188 19 213 -31 242 -41 25 -150 32 -203 14 -30 -10 -47 -25 -71 -63 -80 -126
-152 -221 -240 -314 -53 -56 -100 -101 -105 -101 -5 0 -9 32 -9 70 0 178 -43
396 -100 511 -46 92 -112 181 -157 212 -80 55 -131 71 -243 75 -124 5 -201
-12 -302 -65 -204 -107 -408 -415 -433 -653 -13 -124 33 -265 115 -354 l43
-46 -38 0 c-29 0 -44 -7 -70 -33 -49 -49 -70 -151 -70 -342 0 -171 18 -253 81
-379 54 -108 93 -150 181 -193 75 -37 80 -38 204 -41 138 -4 198 7 290 54 139
70 284 271 369 509 34 98 90 316 90 352 0 17 14 33 47 56 26 17 85 64 132 103
l86 72 6 -112 c7 -130 27 -205 71 -272 70 -102 160 -144 311 -144 95 0 170 16
238 50 l35 18 -9 -76 c-4 -42 -6 -153 -4 -247 4 -197 21 -267 85 -350 71 -93
205 -138 353 -117 224 32 351 189 645 797 160 331 269 606 354 891 l33 110 45
17 c26 9 48 14 51 12 2 -3 -12 -78 -32 -167 -40 -180 -80 -421 -97 -570 -35
-332 24 -627 156 -768 141 -151 412 -171 671 -50 194 91 345 227 666 600 494
574 940 962 1347 1174 355 184 586 235 741 164 73 -33 176 -130 194 -183 12
-37 12 -43 -8 -74 -20 -33 -20 -34 -2 -47 10 -8 36 -14 58 -14 54 0 117 61
117 111 -1 51 -33 113 -91 174 -70 74 -139 118 -229 146 -66 21 -94 24 -230
23 -126 0 -173 -5 -250 -24 -361 -87 -699 -274 -1037 -573 -169 -150 -527
-516 -755 -772 -220 -248 -371 -398 -490 -486 -107 -80 -250 -149 -322 -156
-55 -6 -56 -5 -91 33 -37 40 -65 106 -93 213 -24 95 -23 448 1 631 26 194 62
416 103 637 19 106 34 209 32 229 -4 50 -40 76 -112 82 -95 8 -116 -1 -200
-84 -42 -42 -79 -74 -82 -72 -2 3 5 40 16 82 32 127 50 246 50 336 0 222 -84
330 -254 330 -42 -1 -93 -8 -124 -19z m165 -275 c4 -53 0 -112 -11 -171 -21
-111 -84 -347 -96 -359 -15 -15 -67 41 -87 93 -26 68 -24 231 5 334 27 94 70
183 114 233 l33 37 19 -44 c11 -25 21 -77 23 -123z m-2708 -452 c59 -64 103
-152 132 -261 36 -136 37 -579 1 -615 -4 -4 -45 -17 -91 -29 -74 -19 -91 -20
-144 -9 -34 6 -87 25 -119 41 -241 122 -259 418 -45 733 68 101 166 196 202
196 7 0 36 -25 64 -56z m-413 -1028 c99 -41 221 -59 372 -54 72 2 132 1 132
-3 0 -23 -78 -226 -111 -289 -46 -89 -130 -197 -201 -259 l-50 -45 -19 25
c-72 94 -146 296 -183 505 -30 165 -30 158 -13 151 6 -3 39 -17 73 -31z"/>
<path d="M9563 13110 c-91 -29 -139 -193 -198 -680 -14 -118 -29 -236 -33
-261 l-7 -47 -135 28 c-74 15 -274 64 -445 108 -518 136 -764 177 -1120 189
-399 13 -760 -43 -1112 -172 -165 -61 -447 -206 -608 -313 -211 -141 -376
-300 -421 -408 -15 -35 -14 -38 4 -57 26 -25 106 -34 157 -17 20 7 101 61 179
120 165 125 237 173 403 264 316 175 661 299 951 343 144 21 455 21 623 -1
184 -23 293 -47 704 -151 369 -94 508 -122 703 -146 l102 -12 0 -401 c0 -727
32 -1125 116 -1460 62 -246 137 -410 233 -507 83 -82 146 -109 276 -116 145
-9 246 26 324 109 107 114 215 525 296 1121 l7 49 43 -74 c82 -140 161 -208
274 -234 155 -37 311 4 412 109 96 98 172 303 238 637 45 230 55 344 56 627
l0 272 33 16 c19 9 190 106 381 217 190 111 402 231 470 267 142 75 156 90
123 123 -36 36 -145 38 -247 3 -127 -43 -271 -108 -556 -251 l-267 -133 -22
62 c-78 216 -224 409 -365 484 -103 54 -162 66 -305 61 -123 -4 -130 -5 -203
-41 -55 -27 -90 -53 -127 -95 -134 -150 -206 -421 -151 -575 l18 -53 -38 19
c-45 22 -75 21 -304 -11 -82 -12 -176 -22 -208 -22 l-58 0 8 193 c5 105 8 307
8 447 0 276 -8 328 -50 356 -29 19 -119 27 -162 14z m1401 -483 c98 -99 156
-197 207 -351 56 -166 58 -156 -34 -188 -110 -39 -239 -54 -292 -36 -25 9 -45
25 -53 41 -7 15 -30 36 -51 47 -123 62 -81 377 72 538 17 17 40 32 51 32 11 0
53 -35 100 -83z m-520 -702 c-7 -105 -13 -141 -93 -620 -33 -198 -76 -466 -96
-595 -41 -265 -96 -494 -180 -749 -73 -222 -84 -249 -96 -230 -22 34 -90 265
-113 387 -69 353 -105 868 -106 1488 0 313 -4 294 68 294 44 0 305 53 376 76
91 30 147 63 159 94 l11 28 38 -41 38 -42 -6 -90z m811 -137 c17 -275 -37
-683 -125 -958 -32 -99 -97 -231 -116 -237 -27 -9 -122 205 -159 359 -46 192
-57 296 -62 615 l-5 302 148 1 c82 0 181 7 219 14 39 7 75 14 82 15 7 1 13
-36 18 -111z"/>
<path d="M11785 10459 c-151 -56 -266 -415 -354 -1109 -50 -395 -101 -1141
-101 -1493 l0 -168 -29 20 c-76 55 -118 65 -261 66 l-136 0 -76 -37 c-91 -46
-171 -126 -247 -250 -132 -214 -179 -465 -134 -715 l16 -92 -133 -213 c-346
-552 -542 -842 -626 -925 -55 -53 -179 -123 -220 -123 -31 0 -87 57 -120 121
-76 151 -128 403 -158 766 l-4 43 92 64 c124 88 198 156 250 229 130 183 229
486 230 707 1 104 -2 120 -25 171 -46 97 -126 136 -260 127 -57 -4 -87 -14
-157 -48 -72 -36 -104 -60 -182 -139 -78 -78 -105 -113 -143 -187 -76 -149
-124 -310 -163 -550 -21 -134 -30 -519 -15 -666 48 -453 196 -705 456 -773 77
-20 259 -20 344 0 96 23 229 97 309 171 38 35 96 103 129 151 60 88 318 512
452 740 l71 122 51 -35 c124 -83 329 -96 477 -29 67 31 157 121 205 205 20 36
37 58 37 49 0 -8 9 -110 20 -225 59 -632 151 -999 312 -1246 80 -123 145 -169
265 -189 177 -29 342 47 442 205 50 80 76 143 139 336 114 349 180 607 208
810 10 69 22 131 27 138 5 6 26 12 46 12 60 0 151 27 242 73 l85 43 12 -166
c26 -368 106 -667 210 -782 58 -64 121 -91 228 -96 125 -6 181 12 284 89 44
34 103 89 131 123 96 117 173 310 204 513 6 39 5 43 -24 57 -34 18 -107 21
-145 6 -29 -11 -28 -10 -86 -165 -67 -181 -163 -328 -268 -409 -47 -37 -47
-37 -63 -17 -26 31 -78 183 -104 301 -36 162 -54 327 -66 620 l-11 269 72 143
c40 79 80 149 91 157 11 8 19 25 19 43 0 16 21 79 46 141 259 627 484 1563
488 2032 1 205 -25 279 -115 325 -60 31 -189 28 -256 -5 -131 -66 -253 -260
-337 -539 -60 -197 -148 -632 -199 -981 l-24 -160 -34 5 c-19 3 -81 5 -139 5
-82 -1 -120 -6 -171 -23 -158 -54 -285 -175 -379 -362 -84 -167 -169 -450
-190 -639 -16 -135 -8 -328 16 -401 27 -80 99 -150 181 -176 35 -10 63 -24 63
-30 0 -22 -102 -383 -156 -553 -76 -237 -187 -541 -231 -630 -38 -76 -128
-181 -156 -181 -24 0 -73 66 -116 155 -143 293 -232 894 -272 1830 l-12 280
51 205 c63 254 95 412 221 1105 152 837 177 1029 168 1330 -9 324 -56 426
-200 432 -34 1 -75 -2 -92 -8z m79 -407 c0 -86 -6 -202 -13 -257 -20 -162 -88
-552 -141 -810 l-49 -240 5 110 c8 177 42 563 70 795 27 230 53 378 86 503 31
115 43 88 42 -101z m2067 -383 c38 -136 -52 -641 -222 -1239 -62 -216 -179
-570 -189 -570 -18 0 -19 42 -5 184 33 319 117 898 162 1111 46 221 111 392
189 498 37 51 54 56 65 16z m-767 -1720 l48 -30 -6 -47 c-11 -91 -45 -529 -52
-672 l-6 -145 -41 -65 c-57 -89 -188 -217 -264 -258 l-61 -32 -11 50 c-16 74
-13 348 4 465 37 242 127 535 199 640 37 56 109 125 129 125 7 0 35 -14 61
-31z m-2056 -326 c54 -34 115 -89 168 -151 76 -89 75 -113 -12 -331 -106 -265
-211 -462 -294 -550 -30 -33 -32 -33 -45 -14 -77 110 -113 428 -70 628 31 146
99 302 172 393 39 47 43 49 81 25z m-1569 -173 c47 -171 -128 -630 -304 -800
l-36 -35 6 100 c22 324 82 548 181 674 46 58 116 122 129 118 6 -2 16 -28 24
-57z"/>
<path d="M19021 9603 c-31 -16 -38 -30 -76 -138 -73 -207 -331 -825 -344 -825
-4 0 -15 17 -26 37 -34 62 -118 141 -187 173 -86 40 -164 54 -271 46 -310 -21
-501 -227 -625 -672 -98 -348 -108 -648 -28 -846 l25 -62 -51 -141 c-156 -429
-392 -985 -410 -967 -28 28 -63 503 -53 732 18 416 52 804 115 1310 46 365 59
562 41 628 -28 103 -110 146 -264 140 -76 -2 -102 -8 -148 -31 -106 -52 -275
-233 -412 -442 -115 -176 -247 -484 -346 -806 -23 -73 -43 -134 -45 -136 -4
-4 -13 166 -26 482 -20 474 -36 515 -207 515 -96 0 -122 -18 -161 -112 -63
-152 -224 -606 -336 -948 -64 -195 -152 -445 -196 -555 -87 -217 -218 -491
-248 -518 -19 -17 -20 -16 -40 30 -42 99 -72 319 -72 538 0 61 7 229 16 374 8
145 14 326 12 401 -4 168 -10 180 -95 180 -115 0 -145 -47 -219 -335 -70 -278
-95 -439 -101 -656 -13 -439 60 -648 258 -739 63 -29 86 -34 172 -38 197 -9
313 43 402 183 108 169 237 558 370 1115 36 151 76 313 90 360 l24 85 -5 -120
c-11 -222 22 -712 60 -890 33 -154 59 -196 140 -220 96 -29 220 -7 258 45 11
15 39 121 72 272 193 875 368 1321 642 1643 53 61 70 75 72 61 5 -23 -6 -98
-69 -490 -106 -658 -143 -1030 -143 -1446 1 -394 23 -561 100 -729 62 -135
145 -186 304 -186 74 0 92 4 145 30 49 25 66 40 92 84 65 109 240 558 360 921
37 113 68 207 69 209 2 1 31 -4 66 -13 176 -44 345 0 463 120 87 88 260 385
400 686 38 81 70 146 72 144 4 -4 -76 -404 -157 -786 -97 -455 -193 -839 -291
-1159 -68 -224 -169 -524 -178 -534 -5 -4 -62 8 -127 27 -773 229 -1461 273
-2020 131 -313 -80 -648 -255 -865 -452 -379 -342 -579 -761 -579 -1210 0
-288 91 -525 278 -725 200 -213 435 -326 797 -384 151 -24 475 -24 635 0 554
83 1075 373 1509 841 288 311 516 697 726 1235 38 96 70 177 72 179 2 3 110
-30 241 -72 497 -160 709 -202 1077 -214 282 -9 488 21 665 96 195 83 335 230
348 363 6 65 -10 99 -78 162 -79 72 -148 106 -220 106 -94 0 -132 -45 -62 -73
54 -22 132 -110 132 -149 0 -118 -180 -266 -384 -318 -233 -59 -603 -35 -941
61 -170 48 -705 232 -705 242 0 6 22 78 49 161 127 385 250 854 331 1256 96
479 219 1275 285 1845 19 171 47 399 61 507 14 109 24 232 22 274 -3 71 -5 79
-31 98 -40 30 -177 35 -226 9z m-803 -877 c46 -24 121 -113 152 -179 32 -67
70 -203 70 -248 0 -34 -184 -425 -269 -574 -126 -218 -251 -390 -270 -370 -16
17 -41 104 -52 184 -15 100 -5 313 21 470 59 355 168 631 278 706 43 29 36 28
70 11z m-1298 -3071 c252 -32 507 -89 863 -193 92 -27 170 -52 173 -55 13 -12
-166 -442 -279 -671 -142 -289 -255 -470 -424 -681 -293 -365 -730 -688 -1088
-804 -269 -87 -561 -81 -793 17 -180 75 -360 246 -449 427 -71 141 -97 267
-96 455 2 394 155 731 477 1044 253 245 613 414 984 461 64 8 140 16 167 19
85 7 338 -4 465 -19z"/>
<path d="M7851 8487 c-19 -7 -42 -23 -52 -37 -10 -14 -36 -107 -58 -210 -22
-102 -67 -304 -99 -450 -33 -146 -79 -355 -102 -465 -120 -572 -270 -1044
-435 -1377 -60 -121 -163 -282 -180 -283 -30 -1 -107 327 -149 645 -23 169
-33 283 -66 740 -21 289 -58 431 -140 548 -87 124 -213 207 -385 253 -104 28
-340 31 -455 5 -234 -52 -518 -193 -755 -375 -178 -136 -189 -181 -46 -181 74
0 112 16 330 140 409 232 646 307 769 242 56 -30 114 -88 151 -154 60 -105 76
-198 91 -538 19 -454 46 -722 95 -967 74 -365 214 -561 433 -604 145 -28 292
15 367 107 148 181 346 681 499 1264 14 54 14 53 15 -111 2 -411 46 -670 151
-885 83 -171 153 -225 300 -232 187 -9 280 71 353 304 32 100 95 481 187 1119
74 513 105 704 146 894 29 134 26 141 -53 148 -74 6 -93 -9 -120 -97 -65 -212
-114 -446 -227 -1091 -125 -712 -162 -883 -221 -1015 -16 -35 -29 -54 -35 -48
-19 19 -81 227 -99 335 -35 206 -44 427 -38 897 6 435 13 599 42 952 41 513
43 483 -25 518 -50 25 -132 29 -189 9z"/>
<path d="M14483 8409 c-81 -40 -129 -128 -102 -185 27 -55 150 -102 234 -90
150 23 211 204 92 276 -46 29 -166 28 -224 -1z"/>
</g>
</svg>
