<?xml version="1.0" encoding="utf-8"?>
<!-- Generator: Adobe Illustrator 25.0.1, SVG Export Plug-In . SVG Version: 6.00 Build 0)  -->
<svg version="1.1" id="Layer_1" xmlns="http://www.w3.org/2000/svg" xmlns:xlink="http://www.w3.org/1999/xlink" x="0px" y="0px"
	 viewBox="0 0 2400 2400" style="enable-background:new 0 0 2400 2400;" xml:space="preserve">
<g>
	<path transform="translate(0.000000,2400.000000) scale(0.100000,-0.100000)" d="M12059,20572c-167-55-299-214-465-557
		c-242-502-526-1448-673-2247c-81-438-160-1005-206-1486c-17-177-30-263-40-279c-32-48-313-323-386-377c-162-120-317-196-371-183
		c-38,10-118,87-155,148c-34,58-77,178-87,244l-5,40l57,23c137,53,312,199,429,359c65,88,155,256,198,368c42,110,92,320,106,437
		c26,237-40,403-186,470c-70,32-223,32-310,0c-83-30-184-102-256-181c-149-162-291-478-369-821c-51-223-65-338-65-555
		c0-229,9-276,75-412c73-149,195-247,365-294c109-30,313-30,428,0c137,36,340,145,468,252c26,22,48,39,50,39s3-111,1-247
		c-4-265,9-587,34-823c69-680,250-1132,581-1452c136-132,239-178,399-178c173,0,240,39,347,203c216,327,397,695,498,1006
		c46,145,50,164,37,177c-32,33-138,39-190,13c-9-5-78-132-152-282c-143-290-245-467-412-718c-122-184-126-189-155-163
		c-26,23-134,163-171,220c-193,301-299,781-339,1529c-12,228-6,989,9,1175l8,95l57,77c201,271,518,799,717,1193
		c272,538,504,1173,634,1735c131,566,120,1037-30,1286c-49,82-79,110-153,147c-58,28-76,32-165,34
		C12139,20589,12102,20586,12059,20572z M12235,20389c143-217,138-684-15-1274c-139-536-383-1182-648-1710c-84-169-250-468-321-579
		c-28-46-31-48-31-23c0,37,64,541,95,746c160,1060,465,2185,717,2651c62,114,147,230,168,230C12204,20430,12220,20412,12235,20389z
		 M10113,17235c0-246-181-720-381-1000l-57-80l-3,35c-10,105,57,471,124,669c76,228,149,366,248,469c49,50,51,51,60,30
		C10109,17345,10113,17290,10113,17235z M5740,18885c-137-30-236-75-372-166c-121-82-250-191-384-325c-168-169-260-282-810-993
		c-129-167-246-292-336-360c-32-24-58-50-58-57c0-55,164-59,287-7c147,62,312,191,488,382c86,93,162,180,565,651
		c266,311,564,574,746,657c45,20,57,22,76,12c77-40,144-121,207-246c163-325,188-844,91-1838c-47-481-54-588-53-805
		c0-167,4-224,22-310c38-189,117-312,237-367c110-50,275-41,373,21c120,76,279,337,421,691c60,148,211,602,260,778
		c18,64,34,116,35,115c1-2-2-66-6-143c-16-267-23-1238-10-1415c32-432,92-677,216-870c104-162,224-229,410-230c194,0,310,73,448,282
		c160,243,247,502,372,1116c129,637,129,640,190,1827c52,1023,50,958,31,974c-23,19-97,25-140,11c-32-10-38-18-51-63
		c-37-134-64-352-120-982c-99-1124-130-1350-271-1977c-79-355-131-516-221-691c-47-92-139-223-186-266l-25-23l-41,86
		c-160,333-197,921-150,2376c13,408,6,951-15,1082c-16,105-38,146-91,173c-55,27-181,33-239,11c-64-25-74-40-86-141
		c-62-506-313-1457-522-1975c-118-290-297-602-369-641c-15-8-22-3-39,31c-84,165-86,543-5,1350c46,459,56,615,62,960
		c8,455-7,610-79,827c-55,166-157,310-275,389c-32,21-96,51-143,68c-77,26-99,30-230,33C5849,18899,5785,18895,5740,18885z
		 M13845,18354c-111-18-224-69-313-143c-120-100-262-328-327-525c-77-233-38-461,104-615l41-44l-14-67c-33-158-152-540-336-1080
		c-196-575-256-708-400-890c-63-81-171-182-216-202c-74-34-179,157-221,400c-20,118-22,456-4,637c32,318,84,610,143,795
		c31,95,89,223,107,235c21,12,60-80,86-206c8-37,24-149,35-250s23-191,26-200c6-20,46-39,84-39c47,0,77,17,88,49
		c19,54,35,272,29,396c-17,343-105,455-358,455c-250,0-409-145-528-484c-175-497-233-1164-130-1510c43-143,124-279,206-344
		c181-143,503-160,687-37c115,76,246,249,351,460c85,170,141,319,244,650c96,305,88,283,93,265c3-8,15-51,27-95
		c50-179,137-297,269-362c74-37,78-38,208-41c102-3,145,0,190,13c229,66,351,233,469,638c62,213,131,593,151,835c4,45,10,82,13,82
		c4,0,67,36,140,80c74,44,135,80,137,80c11,0,1-209-21-471c-44-528-51-1037-15-1160c21-74,94-109,224-108c93,0,160,21,187,59
		c10,14,41,126,69,250c139,605,319,1090,547,1479c94,160,336,524,376,566c22,23-15-356-73-740c-75-494-104-777-121-1178
		c-13-286-6-447,19-499c27-52,89-78,188-78c124,0,194,33,194,91c0,39,46,286,75,399c73,287,209,590,389,865c75,114,219,295,236,295
		c14,0,25-87,23-190c-2-117-9-157-138-815c-142-723-155-817-135-969c23-179,98-262,260-287c217-33,433,75,709,356l115,116l26-19
		c168-125,456-154,701-72c147,49,449,233,699,426c210,162,520,494,520,558c0,23-32,36-87,36c-62-1-79-12-143-90
		c-164-200-479-454-812-653c-206-124-334-178-418-177c-66,1-152,69-186,148c-22,51-44,123-44,145c0,10,48,82,106,159
		c439,588,698,1169,655,1470c-27,191-133,286-330,296c-183,9-302-38-423-167c-198-211-360-610-445-1096c-13-75-17-158-18-335
		c0-216,2-242,24-322l23-88l-70-83c-39-45-113-123-165-174c-96-93-262-223-284-223c-10,0-13,30-13,115c0,130,10,206,74,555
		c107,582,139,829,140,1080c1,178-1,201-22,265c-33,99-80,161-150,193c-49,23-70,27-147,27c-124-1-182-28-286-135
		c-97-100-236-284-320-423c-58-98-64-105-67-78c-2,17,14,203,34,413c34,345,38,412,39,683c0,342-8,392-70,451c-60,57-189,71-292,32
		c-98-36-189-143-455-533c-192-281-367-601-469-854l-34-84l-6,289c-5,224-10,302-23,349c-38,136-109,186-264,186
		c-105,0-151-14-281-87c-109-62-108-62-110,43c-1,28-10,104-21,168c-64,374-221,588-490,669C14075,18351,13902,18363,13845,18354z
		 M14029,18175c129-65,220-215,266-440c21-106,36-331,27-429l-7-79l-101-38c-159-60-273-90-359-96c-79-5-81-5-124,28
		c-137,105-192,331-132,543c62,224,178,423,295,508C13942,18206,13967,18207,14029,18175z M18716,17268c16-36,19-65,18-183
		c-1-122-4-151-28-230c-67-222-203-503-369-762c-32-51-61-93-64-93c-14,0,43,389,83,567c65,295,194,598,302,716c14,15,29,27,32,27
		C18694,17310,18706,17291,18716,17268z M14285,16923c-70-483-220-941-356-1086l-49-52l-20,25c-78,95-155,349-194,640
		c-15,110-36,360-36,426v31l48-8c125-21,308-5,480,40C14302,16978,14294,16979,14285,16923z M16032,13361c-172-59-310-246-358-485
		c-54-263,65-435,323-471l52-7l-51-146c-115-333-224-569-443-957c-123-217-202-336-279-421l-54-59l-11,28c-64,166-24,682,110,1411
		c22,120,39,229,37,240c-7,49-153,75-233,42c-61-26-79-69-165-406c-50-197-76-259-167-399c-58-89-148-191-169-191
		c-16,0-30,45-45,140c-14,92-7,283,20,512c23,188,19,213-31,242c-41,25-150,32-203,14c-30-10-47-25-71-63c-80-126-152-221-240-314
		c-53-56-100-101-105-101s-9,32-9,70c0,178-43,396-100,511c-46,92-112,181-157,212c-80,55-131,71-243,75c-124,5-201-12-302-65
		c-204-107-408-415-433-653c-13-124,33-265,115-354l43-46h-38c-29,0-44-7-70-33c-49-49-70-151-70-342c0-171,18-253,81-379
		c54-108,93-150,181-193c75-37,80-38,204-41c138-4,198,7,290,54c139,70,284,271,369,509c34,98,90,316,90,352c0,17,14,33,47,56
		c26,17,85,64,132,103l86,72l6-112c7-130,27-205,71-272c70-102,160-144,311-144c95,0,170,16,238,50l35,18l-9-76c-4-42-6-153-4-247
		c4-197,21-267,85-350c71-93,205-138,353-117c224,32,351,189,645,797c160,331,269,606,354,891l33,110l45,17c26,9,48,14,51,12
		c2-3-12-78-32-167c-40-180-80-421-97-570c-35-332,24-627,156-768c141-151,412-171,671-50c194,91,345,227,666,600
		c494,574,940,962,1347,1174c355,184,586,235,741,164c73-33,176-130,194-183c12-37,12-43-8-74c-20-33-20-34-2-47c10-8,36-14,58-14
		c54,0,117,61,117,111c-1,51-33,113-91,174c-70,74-139,118-229,146c-66,21-94,24-230,23c-126,0-173-5-250-24
		c-361-87-699-274-1037-573c-169-150-527-516-755-772c-220-248-371-398-490-486c-107-80-250-149-322-156c-55-6-56-5-91,33
		c-37,40-65,106-93,213c-24,95-23,448,1,631c26,194,62,416,103,637c19,106,34,209,32,229c-4,50-40,76-112,82c-95,8-116-1-200-84
		c-42-42-79-74-82-72c-2,3,5,40,16,82c32,127,50,246,50,336c0,222-84,330-254,330C16114,13379,16063,13372,16032,13361z
		 M16197,13086c4-53,0-112-11-171c-21-111-84-347-96-359c-15-15-67,41-87,93c-26,68-24,231,5,334c27,94,70,183,114,233l33,37l19-44
		C16185,13184,16195,13132,16197,13086z M13489,12634c59-64,103-152,132-261c36-136,37-579,1-615c-4-4-45-17-91-29
		c-74-19-91-20-144-9c-34,6-87,25-119,41c-241,122-259,418-45,733c68,101,166,196,202,196C13432,12690,13461,12665,13489,12634z
		 M13076,11606c99-41,221-59,372-54c72,2,132,1,132-3c0-23-78-226-111-289c-46-89-130-197-201-259l-50-45l-19,25
		c-72,94-146,296-183,505c-30,165-30,158-13,151C13009,11634,13042,11620,13076,11606z M9563,13110c-91-29-139-193-198-680
		c-14-118-29-236-33-261l-7-47l-135,28c-74,15-274,64-445,108c-518,136-764,177-1120,189c-399,13-760-43-1112-172
		c-165-61-447-206-608-313c-211-141-376-300-421-408c-15-35-14-38,4-57c26-25,106-34,157-17c20,7,101,61,179,120
		c165,125,237,173,403,264c316,175,661,299,951,343c144,21,455,21,623-1c184-23,293-47,704-151c369-94,508-122,703-146l102-12v-401
		c0-727,32-1125,116-1460c62-246,137-410,233-507c83-82,146-109,276-116c145-9,246,26,324,109c107,114,215,525,296,1121l7,49l43-74
		c82-140,161-208,274-234c155-37,311,4,412,109c96,98,172,303,238,637c45,230,55,344,56,627v272l33,16c19,9,190,106,381,217
		c190,111,402,231,470,267c142,75,156,90,123,123c-36,36-145,38-247,3c-127-43-271-108-556-251l-267-133l-22,62
		c-78,216-224,409-365,484c-103,54-162,66-305,61c-123-4-130-5-203-41c-55-27-90-53-127-95c-134-150-206-421-151-575l18-53l-38,19
		c-45,22-75,21-304-11c-82-12-176-22-208-22h-58l8,193c5,105,8,307,8,447c0,276-8,328-50,356C9696,13115,9606,13123,9563,13110z
		 M10964,12627c98-99,156-197,207-351c56-166,58-156-34-188c-110-39-239-54-292-36c-25,9-45,25-53,41c-7,15-30,36-51,47
		c-123,62-81,377,72,538c17,17,40,32,51,32S10917,12675,10964,12627z M10444,11925c-7-105-13-141-93-620c-33-198-76-466-96-595
		c-41-265-96-494-180-749c-73-222-84-249-96-230c-22,34-90,265-113,387c-69,353-105,868-106,1488c0,313-4,294,68,294
		c44,0,305,53,376,76c91,30,147,63,159,94l11,28l38-41l38-42L10444,11925z M11255,11788c17-275-37-683-125-958
		c-32-99-97-231-116-237c-27-9-122,205-159,359c-46,192-57,296-62,615l-5,302l148,1c82,0,181,7,219,14c39,7,75,14,82,15
		S11250,11863,11255,11788z M11785,10459c-151-56-266-415-354-1109c-50-395-101-1141-101-1493v-168l-29,20c-76,55-118,65-261,66
		h-136l-76-37c-91-46-171-126-247-250c-132-214-179-465-134-715l16-92l-133-213c-346-552-542-842-626-925c-55-53-179-123-220-123
		c-31,0-87,57-120,121c-76,151-128,403-158,766l-4,43l92,64c124,88,198,156,250,229c130,183,229,486,230,707c1,104-2,120-25,171
		c-46,97-126,136-260,127c-57-4-87-14-157-48c-72-36-104-60-182-139c-78-78-105-113-143-187c-76-149-124-310-163-550
		c-21-134-30-519-15-666c48-453,196-705,456-773c77-20,259-20,344,0c96,23,229,97,309,171c38,35,96,103,129,151
		c60,88,318,512,452,740l71,122l51-35c124-83,329-96,477-29c67,31,157,121,205,205c20,36,37,58,37,49c0-8,9-110,20-225
		c59-632,151-999,312-1246c80-123,145-169,265-189c177-29,342,47,442,205c50,80,76,143,139,336c114,349,180,607,208,810
		c10,69,22,131,27,138c5,6,26,12,46,12c60,0,151,27,242,73l85,43l12-166c26-368,106-667,210-782c58-64,121-91,228-96
		c125-6,181,12,284,89c44,34,103,89,131,123c96,117,173,310,204,513c6,39,5,43-24,57c-34,18-107,21-145,6c-29-11-28-10-86-165
		c-67-181-163-328-268-409c-47-37-47-37-63-17c-26,31-78,183-104,301c-36,162-54,327-66,620l-11,269l72,143c40,79,80,149,91,157
		s19,25,19,43c0,16,21,79,46,141c259,627,484,1563,488,2032c1,205-25,279-115,325c-60,31-189,28-256-5c-131-66-253-260-337-539
		c-60-197-148-632-199-981l-24-160l-34,5c-19,3-81,5-139,5c-82-1-120-6-171-23c-158-54-285-175-379-362c-84-167-169-450-190-639
		c-16-135-8-328,16-401c27-80,99-150,181-176c35-10,63-24,63-30c0-22-102-383-156-553c-76-237-187-541-231-630
		c-38-76-128-181-156-181c-24,0-73,66-116,155c-143,293-232,894-272,1830l-12,280l51,205c63,254,95,412,221,1105
		c152,837,177,1029,168,1330c-9,324-56,426-200,432C11843,10468,11802,10465,11785,10459z M11864,10052c0-86-6-202-13-257
		c-20-162-88-552-141-810l-49-240l5,110c8,177,42,563,70,795c27,230,53,378,86,503C11853,10268,11865,10241,11864,10052z
		 M13931,9669c38-136-52-641-222-1239c-62-216-179-570-189-570c-18,0-19,42-5,184c33,319,117,898,162,1111c46,221,111,392,189,498
		C13903,9704,13920,9709,13931,9669z M13164,7949l48-30l-6-47c-11-91-45-529-52-672l-6-145l-41-65c-57-89-188-217-264-258l-61-32
		l-11,50c-16,74-13,348,4,465c37,242,127,535,199,640c37,56,109,125,129,125C13110,7980,13138,7966,13164,7949z M11108,7623
		c54-34,115-89,168-151c76-89,75-113-12-331c-106-265-211-462-294-550c-30-33-32-33-45-14c-77,110-113,428-70,628
		c31,146,99,302,172,393C11066,7645,11070,7647,11108,7623z M9539,7450c47-171-128-630-304-800l-36-35l6,100c22,324,82,548,181,674
		c46,58,116,122,129,118C9521,7505,9531,7479,9539,7450z M19021,9603c-31-16-38-30-76-138c-73-207-331-825-344-825c-4,0-15,17-26,37
		c-34,62-118,141-187,173c-86,40-164,54-271,46c-310-21-501-227-625-672c-98-348-108-648-28-846l25-62l-51-141
		c-156-429-392-985-410-967c-28,28-63,503-53,732c18,416,52,804,115,1310c46,365,59,562,41,628c-28,103-110,146-264,140
		c-76-2-102-8-148-31c-106-52-275-233-412-442c-115-176-247-484-346-806c-23-73-43-134-45-136c-4-4-13,166-26,482
		c-20,474-36,515-207,515c-96,0-122-18-161-112c-63-152-224-606-336-948c-64-195-152-445-196-555c-87-217-218-491-248-518
		c-19-17-20-16-40,30c-42,99-72,319-72,538c0,61,7,229,16,374c8,145,14,326,12,401c-4,168-10,180-95,180c-115,0-145-47-219-335
		c-70-278-95-439-101-656c-13-439,60-648,258-739c63-29,86-34,172-38c197-9,313,43,402,183c108,169,237,558,370,1115
		c36,151,76,313,90,360l24,85l-5-120c-11-222,22-712,60-890c33-154,59-196,140-220c96-29,220-7,258,45c11,15,39,121,72,272
		c193,875,368,1321,642,1643c53,61,70,75,72,61c5-23-6-98-69-490c-106-658-143-1030-143-1446c1-394,23-561,100-729
		c62-135,145-186,304-186c74,0,92,4,145,30c49,25,66,40,92,84c65,109,240,558,360,921c37,113,68,207,69,209c2,1,31-4,66-13
		c176-44,345,0,463,120c87,88,260,385,400,686c38,81,70,146,72,144c4-4-76-404-157-786c-97-455-193-839-291-1159
		c-68-224-169-524-178-534c-5-4-62,8-127,27c-773,229-1461,273-2020,131c-313-80-648-255-865-452c-379-342-579-761-579-1210
		c0-288,91-525,278-725c200-213,435-326,797-384c151-24,475-24,635,0c554,83,1075,373,1509,841c288,311,516,697,726,1235
		c38,96,70,177,72,179c2,3,110-30,241-72c497-160,709-202,1077-214c282-9,488,21,665,96c195,83,335,230,348,363c6,65-10,99-78,162
		c-79,72-148,106-220,106c-94,0-132-45-62-73c54-22,132-110,132-149c0-118-180-266-384-318c-233-59-603-35-941,61
		c-170,48-705,232-705,242c0,6,22,78,49,161c127,385,250,854,331,1256c96,479,219,1275,285,1845c19,171,47,399,61,507
		c14,109,24,232,22,274c-3,71-5,79-31,98C19207,9624,19070,9629,19021,9603z M18218,8726c46-24,121-113,152-179c32-67,70-203,70-248
		c0-34-184-425-269-574c-126-218-251-390-270-370c-16,17-41,104-52,184c-15,100-5,313,21,470c59,355,168,631,278,706
		C18191,8744,18184,8743,18218,8726z M16920,5655c252-32,507-89,863-193c92-27,170-52,173-55c13-12-166-442-279-671
		c-142-289-255-470-424-681c-293-365-730-688-1088-804c-269-87-561-81-793,17c-180,75-360,246-449,427c-71,141-97,267-96,455
		c2,394,155,731,477,1044c253,245,613,414,984,461c64,8,140,16,167,19C16540,5681,16793,5670,16920,5655z M7851,8487
		c-19-7-42-23-52-37s-36-107-58-210c-22-102-67-304-99-450c-33-146-79-355-102-465c-120-572-270-1044-435-1377
		c-60-121-163-282-180-283c-30-1-107,327-149,645c-23,169-33,283-66,740c-21,289-58,431-140,548c-87,124-213,207-385,253
		c-104,28-340,31-455,5c-234-52-518-193-755-375c-178-136-189-181-46-181c74,0,112,16,330,140c409,232,646,307,769,242
		c56-30,114-88,151-154c60-105,76-198,91-538c19-454,46-722,95-967c74-365,214-561,433-604c145-28,292,15,367,107
		c148,181,346,681,499,1264c14,54,14,53,15-111c2-411,46-670,151-885c83-171,153-225,300-232c187-9,280,71,353,304
		c32,100,95,481,187,1119c74,513,105,704,146,894c29,134,26,141-53,148c-74,6-93-9-120-97c-65-212-114-446-227-1091
		c-125-712-162-883-221-1015c-16-35-29-54-35-48c-19,19-81,227-99,335c-35,206-44,427-38,897c6,435,13,599,42,952
		c41,513,43,483-25,518C7990,8503,7908,8507,7851,8487z M14483,8409c-81-40-129-128-102-185c27-55,150-102,234-90
		c150,23,211,204,92,276C14661,8439,14541,8438,14483,8409z"/>
</g>
</svg>
