<?xml version="1.0" encoding="utf-8"?>
<!-- Generator: Adobe Illustrator 25.0.1, SVG Export Plug-In . SVG Version: 6.00 Build 0)  -->
<svg version="1.1" id="Layer_1" xmlns="http://www.w3.org/2000/svg" xmlns:xlink="http://www.w3.org/1999/xlink" x="0px" y="0px"
	 viewBox="0 0 2400 2400" style="enable-background:new 0 0 2400 2400;" xml:space="preserve">
<g>
	<path transform="translate(0.000000,2400.000000) scale(0.100000,-0.100000)" d="M5785,22563c-244-32-456-128-613-277
		c-121-115-185-217-238-376c-26-79-28-96-28-250s2-171,28-250c58-175,135-299,262-420c171-163,388-269,617-299c101-14,304-14,403,0
		c203,28,409,124,542,253c64,62,162,196,162,223c0,26-40,43-98,43c-61-1-84-15-123-73c-86-131-301-271-492-322
		c-335-90-731,72-944,385c-77,114-118,223-139,368c-12,91-12,116,1,202c49,333,287,593,625,681c281,74,610-29,865-271
		c98-93,123-110,161-110c44,0,66,23,54,56c-19,48-95,136-175,200c-195,157-462,246-729,243C5865,22568,5802,22565,5785,22563z
		 M7082,22483c-12-2-27-14-33-25c-26-49,16-1556,47-1660c8-28,60-40,101-23l35,15l-3,396l-4,395l415,3c228,2,462,8,520,14
		c58,5,106,9,107,8s6-91,12-201c12-219,36-479,51-565c14-74,50-99,96-66c18,13,19,30,22,269c2,172-4,369-18,608
		c-32,552-48,778-55,788c-10,17-68,23-99,11l-29-11l7-282c3-155,9-310,13-344l6-63h-326c-272,0-402-4-697-23l-25-2l-7,175
		c-10,253-27,522-34,547c-5,19-53,46-73,42C7108,22488,7095,22485,7082,22483z M12975,22459c-241-35-429-200-443-389
		c-6-83,8-133,59-209c75-113,206-192,434-261c77-23,166-56,197-73c73-37,151-120,186-194c37-81,37-177,0-248
		c-71-138-261-238-453-238c-117,0-202,30-327,114c-56,38-90,47-117,30c-49-31,132-166,269-199c174-42,409-13,575,70
		c85,44,176,138,204,213c49,129,12,281-97,398c-80,86-147,122-352,187c-257,83-350,142-408,259c-89,182,46,395,289,457
		c106,27,169,12,308-76c49-30,75-40,107-40c83,0,79,48-11,110C13270,22456,13142,22483,12975,22459z M13973,22431
		c-66-5-87-10-104-27l-21-22l11-373c30-1023,36-1190,42-1200c14-23,109-28,554-28c476,0,526,4,533,41c10,51-93,57-641,37
		c-169-7-310-9-314-6c-5,5-40,609-43,724v23l333-2c258-2,340,1,365,11c45,19,43,48-5,68c-34,14-71,14-358,3c-176-7-323-14-327-16
		c-10-6-16,58-28,301c-5,121-13,261-16,310l-6,90l193-6c107-4,334-7,505-8c298-1,313,0,335,19l24,20l-22,18c-19,17-48,20-240,25
		C14496,22441,14096,22439,13973,22431z M18764,22406c-38-27-181-279-496-876c-270-511-366-713-347-736c15-19,74-18,93,1
		c24,25,112,175,247,420l125,230l120-3c65-2,219-10,341-18c121-8,228-12,235-9c21,8,30-7,77-135c61-165,127-323,172-413
		c52-102,110-139,170-107c26,14,24,32-12,120c-17,41-67,170-111,285c-252,664-466,1168-516,1217
		C18827,22416,18791,22425,18764,22406z M18809,22168c7-24,65-175,129-336c63-160,112-295,109-298c-4-4-40-1-80,6
		c-49,8-147,11-295,9c-148-3-222-1-222,6c0,6,36,80,81,165s119,230,165,323c46,92,88,167,92,167
		C18793,22210,18802,22191,18809,22168z M9310,22384c-62-12-200-59-255-86c-170-86-317-235-387-396c-66-152-81-212-86-353
		c-3-81,0-163,7-203c24-139,105-301,211-419c94-105,250-199,397-238c113-30,311-37,423-14c357,72,583,282,687,635
		c24,85,27,111,28,245c0,142-2,155-32,250c-18,55-49,129-70,164c-106,177-282,317-483,383c-87,28-108,31-255,33
		C9407,22387,9324,22386,9310,22384z M9650,22274c291-91,492-389,493-729c0-118-14-192-60-299c-91-218-324-421-531-465
		c-346-73-698,181-779,563c-24,113-14,329,20,427c109,318,436,557,727,531C9550,22300,9609,22287,9650,22274z M11190,22310
		c-187-40-369-139-478-258c-58-64-130-180-161-262c-17-44-38-128-47-188c-16-105-16-113,3-223c65-367,322-641,700-747
		c90-25,112-27,273-26c149,0,187,3,259,23c293,78,493,266,588,551c26,79,28,96,28,240c-1,151-2,158-36,257c-53,152-115,249-239,373
		c-110,110-168,150-297,205C11613,22328,11374,22350,11190,22310z M11555,22221c280-68,505-268,601-536c27-75,29-89,28-240
		c0-143-2-167-23-225c-73-200-196-341-375-429c-152-75-297-97-447-66c-489,99-787,627-605,1076c66,160,211,313,362,381
		C11227,22240,11409,22256,11555,22221z M16535,20321c-29-12-45-34-110-151c-32-58-100-178-152-267l-95-163h-176
		c-263,0-362-20-362-71c0-37,90-61,310-79c68-6,126-13,128-15c7-7-193-342-333-560c-279-433-409-609-555-755c-96-95-212-180-247-180
		c-49,0-116,121-140,253c-28,153-18,592,23,1056c8,96,13,185,10,197c-9,34-60,56-131,57c-107,1-110-1-230-216
		c-274-488-473-770-714-1015c-53-54-123-118-156-143c-72-55-165-109-188-109c-26,0-54,55-68,130c-22,123,30,328,137,545
		c154,314,410,577,705,725c116,59,182,77,318,89c134,11,166,24,145,59c-18,29-100,44-244,45c-184,2-300-24-479-109
		c-51-24-147-62-213-84c-251-84-692-337-1232-708c-217-149-319-227-528-404c-221-187-319-256-456-325c-89-45-124-58-171-61
		c-58-4-60-3-104,37c-53,49-92,136-107,239c-11,77-13,245-4,354l7,75l141,23c173,27,274,58,393,120c225,117,420,314,533,539
		c79,158,31,294-133,371c-91,44-153,53-317,48c-130-4-155-8-239-37c-121-41-215-97-303-179c-144-136-249-310-322-539
		c-20-62-36-118-36-125s-5-30-11-50l-10-38h-178h-178l-22,78c-94,323-248,668-429,958c-125,200-182,242-322,232
		c-118-9-126-16-354-321c-112-150-261-339-332-422c-286-333-797-810-1145-1071c-383-285-619-413-899-488c-283-75-507-89-665-42
		c-202,61-422,219-587,423c-56,68-96,89-155,80c-51-9-63-23-63-77c0-132,194-355,418-477c95-52,262-108,365-122c101-14,350-14,475,0
		c264,29,567,115,773,220c207,106,542,339,781,546c263,226,643,604,843,838c168,195,181,213,368,462c91,121,170,224,175,227
		c14,8,23-5,100-154c73-139,155-316,199-430c60-155,143-418,143-453c0-11-22-16-92-21c-162-12-390-46-483-72
		c-278-78-448-232-515-469c-54-188-3-400,127-537c100-104,203-147,378-155c290-14,542,82,741,285c101,102,170,228,199,362
		c22,100,30,299,16,374c-7,39-8,63-1,70c5,5,73,12,150,14l140,5l-6-174c-13-328,36-490,179-595c91-67,192-96,342-96
		c293,0,547,131,955,492c139,123,368,300,635,492c112,80,409,278,412,274c2-2-21-39-50-82c-110-160-188-329-233-504
		c-23-89-26-116-22-228c3-114,6-132,30-178c61-116,180-174,360-174c203,0,388,88,574,274c151,151,331,393,458,613
		c59,103,71,112,63,47c-14-113-19-376-8-496c24-278,111-420,293-479c59-19,84-21,190-17c138,5,181,18,299,93
		c180,115,334,307,618,770c161,262,152,247,158,242c3-3-2-29-10-59c-22-76-65-298-77-398c-14-119-12-303,4-381c21-97,72-213,125-282
		c84-111,210-175,436-224c109-24,141-26,345-27c252,0,408,19,615,75c324,89,677,296,893,524c40,41,72,84,72,95c0,50-127,73-200,35
		c-51-26-196-125-292-198c-341-263-679-382-1083-380c-215,0-366,40-454,119c-60,54-124,172-151,281c-45,179-15,483,91,908
		c20,80,101,347,121,397l10,27l262-2c275-2,329,4,389,45c30,21,36,58,12,78c-8,6-31,14-52,16c-73,7-369,33-455,39c-49,4-88,11-88,16
		c0,4,9,32,21,61c71,178,159,435,159,464c0,27-6,36-30,49C16669,20331,16569,20335,16535,20321z M11873,19726c43-18,83-64,92-103
		c10-49-11-105-75-202c-176-263-440-448-691-486l-47-7l9,49c30,160,120,381,203,497c52,73,148,165,212,202
		C11674,19734,11804,19756,11873,19726z M10172,18700c30-140,14-351-38-488c-79-212-335-412-525-412c-105,0-183,61-242,189
		c-26,56-31,81-35,168c-3,83,0,115,16,170c74,242,249,357,597,392c61,6,124,13,140,15C10152,18742,10164,18737,10172,18700z
		 M8884,17241c-48-21-49-36-49-661c0-322,4-662,9-756c6-112,6-173-1-177c-5-3-66,55-134,131c-201,221-852,945-1012,1126
		c-82,91-160,174-175,184c-16,10-46,17-75,17c-83,0-83,2-90-322c-7-276,6-1154,19-1288c9-91,16-105,58-105c64,0,61-40,66,789l5,756
		l75-96c41-53,114-147,162-210c317-417,987-1177,1079-1225c33-17,138-19,172-3c52,24,57,87,32,436c-12,177-38,1014-39,1295
		c-1,48-6,92-11,97C8960,17244,8908,17251,8884,17241z M12065,17229c-306-10-555-27-594-40c-37-13-42-43-8-54c12-4,175-10,362-14
		l340-6l8-50c4-27,10-369,13-758c6-692,7-708,26-718c25-13,82-4,98,16c10,12,11,88,6,333c-14,708-18,1093-12,1134l7,44l287,12
		c158,7,332,12,387,12c112,0,170,19,170,55c0,42-27,45-455,43C12477,17237,12192,17233,12065,17229z M16158,17203
		c-97-102-545-1025-702-1446c-20-54-48-123-62-155c-29-67-26-84,17-80c28,3,36,12,85,108c30,58,123,247,206,420s155,320,159,326
		c6,8,23,9,52,3c23-4,80-8,127-9c144,0,453-29,467-42c7-7,39-91,72-186c34-95,80-221,104-280s67-170,96-247c67-183,81-205,125-205
		c25,0,36,5,40,18c8,25-22,134-94,347c-120,350-180,540-180,571c0,17-7,37-15,44c-8,6-17,22-21,33c-81,272-288,743-347,789
		C16252,17240,16189,17235,16158,17203z M16265,17048c35-94,134-376,176-500c18-54,30-100,27-104c-4-3-67-1-141,6
		c-73,7-199,11-280,8c-81-2-147,0-147,4c0,18,319,658,328,658C16233,17120,16250,17087,16265,17048z M10030,17151
		c-124-33-184-56-265-104c-230-137-369-354-411-645c-15-103-15-121,0-222c18-125,42-205,92-304c138-271,396-446,703-476
		c406-41,745,138,917,485c55,112,83,221,91,350c12,232-88,493-260,673C10675,17140,10344,17233,10030,17151z M10390,17069
		c261-72,460-285,531-568c18-73,21-105,17-230c-5-123-10-159-33-231c-86-269-267-451-517-520c-92-26-164-25-264,1
		c-249,65-442,261-532,539c-33,102-42,321-18,424c40,169,107,290,230,411c92,92,163,137,269,175
		C10148,17097,10292,17096,10390,17069z M14194,15795c-18-27-62-175-98-328c-22-94-42-211-67-407c-5-41-19-113-29-160
		c-21-92-59-270-84-390c-9-41-22-100-29-130l-12-55l-105,3c-282,9-615-132-844-356c-79-78-131-150-185-259c-37-76-91-227-91-257
		c0-8-25-43-55-78s-126-153-213-263c-330-418-572-679-655-710c-45-17-51-17-75-3c-41,24-107,128-136,215c-58,173-83,533-56,798
		c25,258,62,519,105,745c41,215,86,440,91,454c3,9-1,27-10,41c-28,43-146,61-184,28c-24-22-72-208-141-548c-47-230-123-447-228-645
		c-107-204-216-331-337-390c-88-44-154-49-261-20c-47,13-89,28-93,34c-5,6-14,70-20,141c-29,335-129,651-303,958
		c-203,357-441,612-607,648c-109,24-178,11-229-43c-12-12-98-162-191-333c-583-1069-893-1443-1493-1803c-452-271-926-358-1297-237
		c-130,42-332,140-467,225c-139,88-186,104-239,84c-31-12-15-32,87-111c353-277,656-383,1088-383c362,0,700,109,1088,350
		c524,325,872,751,1375,1685c233,431,236,436,255,425c51-27,210-221,300-367c165-267,268-519,329-803c23-107,48-308,39-316
		c-3-3-52,12-109,34c-224,88-385,117-588,110c-199-8-337-64-461-187c-107-107-151-221-152-391c-1-212,94-392,266-508
		c139-92,326-143,537-143c301-2,538,129,655,361c49,97,115,344,115,429c0,17,1,31,3,31c1,0,55-9,120-20s143-20,173-20
		c77,0,188,27,263,64c67,33,181,130,222,190c13,20,27,36,32,36c4,0,7-54,7-119c0-298,50-518,151-661c70-100,160-152,295-171
		c161-22,276,13,381,118c108,108,329,381,485,599c89,124,96,127,97,33c1-73,38-232,72-317c24-58,46-91,88-133c72-73,141-100,266-107
		c140-7,231,34,351,155c141,143,319,488,475,916c61,170,57,175,74-73c9-116,49-329,80-419c47-140,128-263,229-350
		c170-147,483-196,771-120c102,26,250,81,337,124c39,19,74,35,78,35c3,0,25-30,50-67c99-152,296-312,474-386c196-82,496-134,711-124
		c285,15,534,73,865,204c259,103,521,239,770,401c210,136,552,385,563,410c10,21,8,27-16,48c-19,16-41,24-66,24c-41,0-10,17-586-328
		c-482-289-789-429-1145-525c-219-59-311-72-525-72c-216,0-273,10-411,71c-171,76-359,265-438,442l-20,44l35,26
		c347,271,604,615,730,982c29,85,33,107,33,211c1,112,0,117-29,164c-60,97-169,154-315,162c-73,5-96,2-160-20
		c-146-49-259-135-364-274c-116-154-194-327-243-538c-38-163-44-419-13-560c35-158,42-142-87-206c-131-66-325-132-435-149
		c-42-7-114-11-160-8c-100,5-150,28-217,98c-100,105-154,236-199,480c-26,142-26,153-26,585c0,283,4,488,12,575c7,74,22,241,32,370
		c44,539,64,702,111,886c12,44,19,91,17,105c-4,32-59,59-120,59C14219,15820,14208,15816,14194,15795z M16219,14305
		c71-36,108-119,96-214c-23-180-169-471-347-688c-128-157-342-363-360-345c-25,25-35,268-18,411c46,366,243,723,455,826
		C16103,14323,16177,14327,16219,14305z M13850,14227c0-25-80-304-134-468c-120-368-284-733-422-940c-94-143-208-239-287-241
		c-41-1-78,43-111,134c-58,156-70,335-36,558c47,308,156,530,339,687c148,128,293,210,456,258C13746,14242,13850,14248,13850,14227z
		 M9614,13250c83-12,176-43,364-122c162-68,151-52,131-195c-28-212-104-398-204-499c-171-175-454-204-652-68
		c-149,102-228,293-203,489c20,156,111,284,252,350C9407,13255,9493,13267,9614,13250z M11675,15304c-43-22-66-46-100-103
		c-17-28-34-51-38-51c-5,0-25,13-45,30c-68,54-136,75-229,71c-13-1-32-10-43-21c-73-73,58-258,251-354c129-64,159-62,247,15
		c135,118,216,314,157,379C11832,15319,11734,15335,11675,15304z M14545,11342c-58-27-119-101-155-188c-67-162-108-460-98-722l5-122
		l-25-13c-14-6-30-20-36-30c-11-18-2-31,47-62c17-11,19-29,52-515c18-244,50-485,70-516c15-23,60-36,93-27c38,9,43,58,32,318
		c-5,132-16,314-22,405c-7,91-13,199-13,240v75l65,2c110,4,333,24,372,34c65,17,69,63,8,94c-39,20-239,35-362,28l-95-6l-6,97
		c-14,240,24,538,88,681c27,62,70,125,85,125s31-64,55-225c52-346,65-419,81-436c21-23,95-35,123-20c19,11,21,20,21,104
		c0,51-7,157-15,237c-37,351-88,441-261,455C14599,11360,14577,11357,14545,11342z M17160,11253c-31-16-72-63-82-95c-3-8-20-4-52,11
		c-34,17-57,22-83,18c-39-7-73-32-73-55c0-51,108-183,175-213c47-22,95-24,117-6c48,37,138,217,138,276
		C17300,11256,17229,11289,17160,11253z M17390,11122c-19-16-23-33-32-142c-20-237-15-802,10-1220c29-497,34-539,62-562
		c29-24,82-23,111,1l24,19l-3,469c-2,257-8,536-13,618c-5,83-18,293-28,467c-11,174-24,326-30,336
		C17472,11144,17425,11150,17390,11122z M13161,11076c-29-35-48-584-32-916c6-124,18-290,26-370c7-80,21-219,29-310
		c29-303,44-373,86-395c37-19,100-19,126-1c18,14,19,27,17,198c-3,293-32,903-54,1123c-58,594-65,640-107,671
		C13229,11094,13175,11093,13161,11076z M12751,11056c-17-20-28-132-42-414c-14-267-5-521,25-787c8-66,21-187,30-270
		c21-193,42-326,57-358c14-31,48-47,99-47c62,0,70,16,70,133c0,306-53,1391-80,1627c-8,72-13,88-35,108
		C12845,11073,12770,11079,12751,11056z M8922,10941c-10-6-12-21-7-55c13-81,92-327,112-348c24-24,92-34,122-19c26,15,26,31,0,179
		c-33,184-78,252-168,252C8956,10950,8929,10946,8922,10941z M12278,10941c-118-38-286-245-328-405c-13-47-12-50,9-68
		c27-21,80-24,102-5c9,6,28,43,44,82c56,135,177,285,243,302c66,16,96-107,96-404c0-117-3-215-7-219c-3-4-28-1-54,7
		c-26,7-93,14-148,14c-88,0-107-3-157-27c-119-56-206-186-228-344c-41-288,66-449,315-472c70-7,109-5,177,8c49,9,90,14,93,12
		c3-3,5-20,5-37c0-90,20-114,95-117c67-2,76,11,87,134c4,57,14,113,20,125c8,16,8,26,0,35c-7,9-8,67,0,198c14,261,4,835-16,922
		c-41,180-115,257-256,264C12334,10948,12293,10946,12278,10941z M12352,10146c91-28,83,0,83-308v-273l-122-25l-122-24l-25,23
		c-13,13-35,46-48,74c-20,46-23,67-23,182c0,111,3,139,23,190c29,77,85,142,137,160C12305,10162,12296,10162,12352,10146z
		 M16625,10933c-55-14-93-63-145-188l-12-30l-18,49c-32,84-76,116-160,116c-66,0-111-20-143-61c-32-44-91-162-107-216
		c-7-23-16-40-20-38s-12,30-19,62c-8,32-19,70-27,85c-16,31-58,43-97,29c-32-12-31,2-12-281c8-113,23-347,35-520
		c11-173,24-349,30-390c5-41,15-114,21-163c13-104,25-117,109-117c95,0,90-21,78,340c-18,499,8,794,89,1014c16,44,34,81,39,83
		c21,7,39-140,59-477c29-478,48-699,61-734c13-34,89-47,140-24l26,12l-6,221c-9,265,5,512,39,714c24,143,67,305,84,315
		c10,6,18-79,26-269c3-71,10-177,15-235c6-58,17-256,25-440c18-405,23-467,42-486c21-20,86-18,114,5l24,19l-1,589
		c0,497-3,608-17,717c-23,170-33,207-68,249C16789,10932,16705,10952,16625,10933z M9757,10816c-22-8-49-23-60-35
		c-40-37-90-132-128-242c-20-60-41-111-46-112c-4-1-9,12-11,28c-7,68-32,222-42,257c-8,29-18,39-46,48c-29,10-39,9-58-4
		c-21-13-25-26-31-102c-21-252,14-817,74-1175c40-236,60-269,168-269c79,0,86,12,78,129c-3,53-13,152-22,221c-32,256,5,654,84,920
		c29,97,79,203,92,195c5-3,12-29,16-58c19-141,85-440,100-457c34-38,128-37,140,1c9,26-13,302-31,408c-25,143-72,222-144,240
		C9817,10828,9794,10829,9757,10816z M8004,10800c-14-5-24-21-27-42c-14-75-47-357-67-568c-11-124-25-251-30-283
		c-5-31-15-141-22-242c-7-102-16-181-20-177c-7,7-95,237-243,638c-133,362-173,424-270,424c-53,0-88-26-103-78
		c-15-48-87-414-107-537c-32-202-53-316-58-321c-8-8-20,39-103,416c-62,283-120,473-159,518c-17,20-32,25-68,26c-63,1-73-11-60-76
		c6-29,26-132,45-228c20-96,48-251,63-345c62-390,130-685,170-743c9-12,28-28,43-36c41-20,123-28,152-13c28,14,37,50,71,277
		c11,74,28,189,39,255s31,192,44,280c14,88,30,196,37,240s15,83,19,88c3,4,41-108,83-248c153-508,295-841,385-901
		c64-44,167-40,192,6c7,13,15,111,21,233c24,570,32,728,45,927c26,389,29,484,13,496C8068,10803,8028,10809,8004,10800z
		 M10530,10801c-127-39-228-180-296-416c-28-99-40-169-54-310c-13-131,6-378,40-510c29-117,91-235,158-304c68-69,122-99,205-112
		c81-13,131-4,174,34c60,53,145,249,184,427c20,93,20,94,0,113c-13,14-34,20-66,21c-57,1-63-6-107-127c-40-112-147-327-170-341
		c-22-13-37,4-83,99c-53,106-95,342-95,526v57l52,12c182,39,304,160,382,378c32,89,35,197,9,281c-25,81-100,154-172,170
		C10633,10811,10568,10812,10530,10801z M10659,10691c49-92,16-260-84-417c-40-63-98-129-129-146c-18-10-19-7-13,70
		c3,44,17,130,31,191C10513,10605,10618,10768,10659,10691z M15325,10789c-178-35-355-197-355-325c0-54,25-74,92-74c44,0,49,3,85,47
		c80,97,107,124,172,167c72,47,124,68,146,60c8-3,24-31,36-62c19-48,23-83,27-219c2-89,2-169-1-176c-4-11-20-12-84-4
		c-216,25-421-80-511-262c-35-71-37-80-37-171c0-87,3-101,32-161c78-157,214-222,516-244l87-7v-83c0-111,13-127,101-133
		c44-2,70,1,82,10c29,22,44,120,62,411c15,232,16,311,6,585c-7,192-17,343-25,383c-18,83-55,158-95,192
		C15594,10779,15435,10810,15325,10789z M15510,10100c13-8,15-54,15-310v-302l-55,7c-172,20-249,75-286,204c-32,108,6,231,96,315
		C15360,10089,15465,10128,15510,10100z M17682,10770c-12-5-26-20-31-32c-17-46-33-309-33-523c1-398,60-661,183-816
		c68-86,225-129,345-94c72,20,113,50,156,113l32,47l7-35c4-19,12-150,18-290c20-441-12-730-99-915c-30-63-72-111-88-101
		c-14,8-122,170-160,238c-52,94-109,238-133,333c-12,50-26,96-31,102c-17,22-76,27-103,9c-21-14-25-24-25-66c0-186,176-577,303-674
		c69-53,222-56,303-5c133,82,213,325,245,747c13,161,6,748-11,962c-23,301-41,502-55,595c-7,55-17,157-21,227c-4,79-11,134-19,145
		c-11,14-28,18-80,18c-96,0-95,2-95-226c0-236-34-515-89-739c-64-258-125-390-168-364c-31,19-79,110-111,212c-52,163-77,354-117,877
		c-7,105-18,203-24,218s-22,32-36,37C17714,10782,17712,10782,17682,10770z M8539,10716c-110-39-209-195-285-451
		c-50-169-69-314-69-535c0-232,13-313,68-422c68-138,171-201,327-202c81,0,135,20,176,66c42,45,167,319,211,462c21,68,23,81,10,93
		c-21,21-91,35-120,24c-35-14-55-42-173-250c-58-102-116-199-129-215c-30-37-42-29-78,52c-40,89-57,182-64,343l-6,146l59,7
		c252,28,438,314,403,622c-14,126-77,230-153,253C8659,10726,8576,10729,8539,10716z M8665,10549c24-71,16-241-14-318
		c-37-91-61-132-109-183c-44-47-121-97-123-81c-7,53,27,238,67,372c41,134,127,283,154,266C8645,10602,8656,10577,8665,10549z
		 M17060,10702c-19-16-23-32-31-127c-13-171-10-406,6-565c39-387,46-454,59-568c23-198,26-202,104-202c69,0,75,16,69,177
		c-12,325-28,676-37,783c-18,238-41,452-50,476C17163,10718,17098,10733,17060,10702z M12558,9029c-17-7-32-23-40-45l-12-34l-291,2
		l-290,3l-50-25c-88-44-102-97-111-420s29-811,72-929c22-57,70-80,168-81c81,0,359,38,569,79c104,20,150,25,155,17c4-6,14-38,22-71
		c14-57,17-61,57-74c34-12,48-13,83-2c55,16,62,39,58,183c-3,100-6,121-24,145c-46,62-188,53-209-14c-6-18-13-34-16-37
		s-66-12-140-20c-73-9-201-27-284-42c-230-41-213-40-219-13c-6,25-39,440-40,499l-1,35l75,6c41,4,112,10,157,14l82,8l16-59
		c22-77,44-99,96-98c72,2,80,24,64,189c-11,122-35,155-112,155c-48,0-83-23-83-55v-24l-147-3c-82-2-151-1-155,2c-7,5-38,376-38,460
		c0,37,5,55,20,70c19,19,33,20,265,20c188,0,247-3,250-12c2-7,9-55,14-107c12-113,22-126,91-126c80,0,84,9,88,186
		c4,171-3,202-50,218C12611,9042,12594,9042,12558,9029z M16184,8979c-17-5-39-18-49-29c-15-17-16-22-4-36c18-22,71-44,104-44
		c21,0,25-5,25-27c0-16-5-46-10-68c-4-22-14-112-20-200s-13-184-16-214l-6-54l-271,7c-149,3-274,10-278,14s-12,93-18,197
		c-7,105-14,213-18,241l-5,52l43,7c76,13,99,36,63,66c-20,16-250,32-302,21c-28-7-44-5-57,4c-25,19-70,18-89-2c-14-13-77-16-503-19
		c-269-1-505-6-525-10c-35-7-38-5-48,21c-6,16-17,32-23,36c-17,11-75,10-97-2c-25-13-40-89-40-199c0-100,12-121,69-121
		c54,0,69,14,76,74l7,54l72,7c39,3,141,5,226,3l155-3l-2-40c0-22-8-137-17-255c-16-208-16-429,0-727l5-103h-33c-37,0-78-24-78-45
		c0-20,38-42,85-50c22-4,57-13,78-21c51-19,86-18,125,6c18,11,47,20,65,20c44,0,132,27,151,46c37,36-26,68-126,62l-61-3l4,170
		c9,357,3,666-15,803c-9,72-14,137-11,142c4,6,90,10,224,10h218l6-57c7-63,23-83,66-83s53,14,61,86c9,83,17,104,37,104
		c13,0,14-11,9-72c-4-40-12-93-17-118c-22-112-29-337-19-604c6-149,15-298,20-330s7-62,5-66c-3-4-22-10-43-14c-21-3-47-15-58-27
		c-19-21-19-21,4-39c33-27,88-32,252-22c152,9,190,20,190,52c0,26-30,40-87,40h-49l4,188c2,103,7,235,10,295l7,107l273,3
		c150,2,275,0,277-4c3-4,12-105,20-225c14-200,27-323,41-396c5-26,3-28-35-34c-52-8-103-40-99-61c2-9,16-25,31-37
		c26-19,41-21,191-21c138,0,166,3,189,18c45,29,32,57-40,82c-27,10-37,19-36,32c12,104,24,464,20,602c-5,174-29,469-47,586
		c-17,104-16,105,35,105c60,0,95,17,95,46c0,33-27,44-164,65C16273,8991,16231,8993,16184,8979z M10095,8910c-93-10-147-26-179-51
		c-55-43-23-71,88-79l81-5l12-225c20-376,33-560,47-665c7-55,11-102,9-104c-11-14-414,409-613,644c-70,83-139,161-154,174
		c-14,14-26,28-26,32c0,5,23,11,51,15c27,4,60,15,72,25l22,19l-25,21c-24,21-32,21-220,16c-203-5-263-16-284-50c-9-15-7-22,13-38
		c13-10,36-19,51-19c28,0,28,0,34-82c3-46,10-155,16-243c13-190,49-426,90-584c17-62,27-117,24-122s-14-9-25-9c-28,0-79-28-79-44
		c0-7,9-21,21-32c17-16,40-20,129-22c131-4,341,12,378,30c32,16,41,53,15,66c-10,6-69,13-130,17l-113,8v36c-1,33-11,127-70,620
		c-11,96-19,178-18,183c2,4,111-119,243-274s306-350,388-434c81-83,147-153,147-156s-25-10-55-17c-31-7-68-23-83-36l-27-24l23-23
		c21-21,31-23,140-23c136,0,411,30,459,50c39,17,44,48,11,67c-13,7-50,15-83,18c-56,5-60,7-67,35c-11,45-66,337-83,445
		c-24,144-96,722-91,727c3,3,42,9,88,14c100,12,128,22,128,49c0,39-43,54-169,56C10217,8917,10134,8915,10095,8910z M17343,8909
		c-6-8-13-23-17-34c-6-19-14-20-268-20c-258,0-264-1-322-25c-94-40-93-38-128-340c-6-52-11-221-12-375c-1-235,2-296,18-380
		c24-130,34-147,97-174c72-31,211-30,444,3c231,33,221,34,235-9c15-45,46-65,100-68c59-2,70,17,70,115c0,105-16,143-67,157
		c-63,18-101,14-124-13c-19-22-29-24-182-30c-89-4-195-13-235-20c-43-7-75-9-79-3c-11,18-23,296-17,408l7,116l96,7
		c53,4,123,9,157,13l61,5l6-39c8-48,24-63,75-70c53-7,62,9,69,114c5,83,4,90-18,116c-41,49-124,47-141-3c-2-6-67-13-155-17l-153-6
		v184c0,101,4,190,8,197c8,12,112,23,363,38l105,7l10-33c17-59,93-96,132-63c21,17,22,22,13,111c-6,73-13,98-29,114
		C17437,8917,17359,8928,17343,8909z M10918,8865c-145-40-226-147-269-355c-56-269-1-600,130-787c97-137,266-232,417-233
		c74,0,144,24,181,62c38,40,108,175,124,241c10,42,16,50,50,63c79,32,50,75-62,94c-96,17-218,18-246,2c-47-26-17-74,55-88
		c18-4,32-11,32-16c0-34-125-218-149-218c-29,0-124,74-168,132c-99,128-161,293-190,502c-18,130-15,186,17,332c15,69,67,153,110,178
		c89,52,219,9,352-114l73-68l-35-15c-108-46-78-107,52-107c46,0,82,9,152,36c110,45,136,61,136,85c0,27-31,39-105,39h-67l-74,69
		C11278,8844,11077,8909,10918,8865z M8290,8737c-206-53-338-198-412-452c-19-69-23-102-23-240c0-139,4-171,24-240
		c34-117,76-191,145-260c124-124,297-169,494-129c233,46,366,181,448,450c25,82,28,103,28,259c0,158-2,175-25,241
		c-32,88-86,171-160,245C8672,8748,8498,8791,8290,8737z M8471,8635c120-41,173-87,231-200c108-209,55-615-105-801
		c-39-45-132-99-188-109c-79-15-196,70-252,181c-54,108-71,195-71,369c0,138,3,171,23,240c47,159,124,274,217,324
		C8376,8665,8382,8665,8471,8635z M5818,7861c-83-27-142-94-209-235c-106-227-176-539-229-1016c-10-86-50-716-50-779v-34l-42,7
		c-74,12-219,66-354,132c-136,67-188,78-218,48c-70-69,284-279,548-325l69-12l-7-126c-7-134,7-807,24-1131c5-107,14-298,20-425
		c10-222,29-529,51-800c22-287,72-628,102-692c14-32,50-50,117-57c37-5,63-2,80,6l25,14l-3,369c-1,204,2,426,7,495
		c13,168,50,541,56,560c2,8,11,65,20,125c19,142,58,346,65,342c3-1,32-13,66-25c57-22,63-28,100-90c72-125,231-357,289-421
		c141-158,239-214,407-233c94-10,113-10,169,6c110,30,173,92,243,235c35,75,41,82,47,60c4-13,7-50,8-81c1-81,47-619,71-833
		c27-241,69-513,85-552c20-47,65-67,157-67c121-1,117-15,82,271c-34,291-36,489-4,737c11,90,24,184,29,208s16,78,24,120
		c22,110,80,300,139,458c95,254,219,474,319,564c70,63,93,62,124-6c48-106,60-209,59-493c0-143-6-312-12-375c-18-174-15-703,4-874
		c20-179,47-318,84-424c53-157,108-203,245-210c67-3,85,0,112,17c41,26,81,97,123,216c18,52,36,95,40,95s18-27,30-61
		c62-165,175-270,332-308c57-13,179-17,228-6c123,27,243,149,330,338c96,209,175,549,201,862c12,150,6,500-11,594l-9,54l74,111
		c40,61,107,181,148,266s84,175,96,200l21,45l-5-195c-3-107-10-315-16-461c-14-323-6-865,15-1086c39-410,129-721,254-879
		c51-65,134-110,232-125c130-20,216,14,261,103c62,121,169,927,170,1275c0,132-4,191-13,210c-23,48-135,70-177,35
		c-17-14-23-35-31-122c-6-58-17-145-25-195c-8-49-22-133-30-185c-51-330-140-775-164-818c-12-21-32,25-70,163
		c-85,299-117,696-108,1315c9,636,27,1434,32,1448c3,9,64,12,257,12c264,0,299,5,306,43c6,28-26,56-83,72c-56,17-253,34-382,35
		c-45,0-85,4-88,10c-3,5,6,175,21,376c20,256,25,370,18,382c-19,31-81,53-154,55c-111,3-97,31-221-453c-39-151-76-291-81-311l-10-37
		l-216-7c-253-7-360-18-408-41c-68-32-51-95,32-114c21-5,150-10,287-10c206,0,247-2,247-14c0-67-261-707-298-730c-4-2-23,21-42,52
		c-40,69-107,157-146,194c-54,50-143,96-222,113c-166,37-313-3-391-108c-36-48-81-137-81-159c0-6-22-65-49-131
		c-124-312-151-477-157-976l-4-323l-35-135c-52-197-128-413-145-413c-12,0-28,80-50,257c-26,201-28,714-4,1004c29,358,8,677-55,822
		c-28,64-101,140-160,166c-62,26-194,42-258,30c-148-28-276-157-409-414c-52-99-134-297-160-387c-32-104-35-78-54,437
		c-14,354-17,389-45,415c-27,26-118,45-168,36c-44-8-60-30-76-106c-51-243-84-393-97-440c-77-278-109-372-169-496
		c-44-91-124-194-151-194c-39,0-162,144-319,375c-49,72-106,153-127,182s-38,54-38,56s22,18,49,35c119,77,281,273,366,441
		c132,263,169,641,79,798c-51,88-143,128-277,121c-66-3-95-11-149-36c-144-69-290-246-407-493c-102-217-205-537-256-799
		c-29-152-43-205-48-190c-17,48-54,1404-39,1428c5,7,42,22,83,33c133,38,222,92,335,204c193,192,317,433,384,745
		c33,152,33,449,1,597c-71,328-218,578-368,627C5973,7863,5854,7872,5818,7861z M5972,7733c58-64,110-187,149-358
		c32-144,33-438,0-605c-56-294-177-557-341-744c-59-68-151-146-170-146c-11,0-12,46-6,243c6,212,35,657,51,787
		c50,394,139,710,230,819C5918,7767,5939,7768,5972,7733z M6555,5593c26-65,13-288-25-439c-63-251-232-531-403-667
		c-39-30-46-32-129-33l-88-1l6,26c75,337,214,702,340,893C6361,5529,6530,5655,6555,5593z M9471,4696c88-60,188-234,238-416l19-69
		l-34-44c-62-79-192-173-266-191c-56-13-125,81-148,202c-8,41-11,109-8,190c7,162,36,257,97,315c22,20,46,37,53,37
		S9451,4709,9471,4696z M9317,3836c178-38,244-30,432,51c12,5,13-16,8-138c-9-179-21-287-52-457c-52-280-126-522-207-674
		c-52-97-136-195-161-185c-24,9-92,159-121,267c-33,125-63,290-76,420c-16,153-24,515-15,662l7,127l58-29
		C9222,3864,9279,3844,9317,3836z M19182,7219c-23-12-56-38-73-58c-42-50-132-237-169-351c-133-411-247-1111-285-1751
		c-4-64-10-122-14-128c-6-9-15-9-37,0c-49,20-210,14-277-10c-287-102-526-447-641-923c-23-97-49-262-63-399c-5-46-10-59-28-67
		c-12-6-83-102-158-214c-146-218-253-360-391-517c-108-123-231-235-251-227c-19,7-69,77-101,142l-26,54l54,72
		c145,193,295,490,409,808c233,655,197,1152-94,1280c-64,28-202,44-273,31c-245-46-406-262-508-685c-52-214-61-308-61-636
		c1-341,15-466,75-670c47-159,47-151,3-186c-80-63-196-114-260-114c-14,0-42,18-69,42c-117,108-195,405-224,853
		c-15,235-30,682-30,902c0,219-1,221-85,242c-85,21-147,4-159-44c-11-42-34-251-41-370c-4-60-11-130-16-155c-15-80-97-474-108-520
		c-6-25-22-99-36-165c-117-546-237-894-351-1015c-25-27-53-50-60-50c-38,0-138,189-201,380c-100,303-169,705-205,1190
		c-14,189-18,1205-4,1273l7,37h72c144,0,280,34,293,72c17,53-80,92-258,104l-98,7v81c0,45,5,131,10,191c36,406,50,798,30,850
		c-12,31-63,55-119,55c-53,0-69-7-86-41c-39-75-125-626-158-1014l-12-140l-65-7c-36-3-123-11-195-17c-206-18-289-47-283-99
		c2-20,13-32,43-47c37-19,56-20,264-17l224,4l-6-49c-17-125-27-691-18-943c29-754,135-1337,311-1695c116-237,236-334,450-364
		c142-19,269,25,357,123c84,96,165,290,233,566c46,182,42,178,66,83c9-32,35-99,59-149c85-176,229-280,431-311c150-23,252-11,397,44
		l67,26l66-66c82-83,175-131,287-147c151-22,219,5,357,141c135,135,300,353,420,557c23,40,45,71,47,68c3-2,13-67,24-143
		c39-279,124-504,240-627c100-107,200-152,365-163c141-9,251,31,364,133c46,42,159,190,211,276c19,32,37,58,41,58s24-32,45-72
		c74-140,198-247,321-274c114-26,146-27,206-10c134,39,200,148,419,691c226,557,359,963,361,1099c1,34-3,42-31,58
		c-41,25-121,33-152,16c-16-9-34-38-53-88c-149-377-563-1307-664-1488c-30-52-38-61-50-51c-36,30-128,262-179,453l-24,88l63,167
		c234,612,370,1115,475,1751c88,532,107,1291,41,1677c-51,300-151,499-267,533C19294,7243,19228,7243,19182,7219z M19338,6968
		c34-91,61-228,72-362c19-237,9-690-20-926c-49-399-100-687-176-1005c-14-60-32-137-39-170c-19-82-92-356-114-430
		c-11-33-31-100-46-148c-19-60-31-85-37-79c-15,15-15,710,0,1002c19,351,62,879,82,1000c5,30,12,84,15,120c9,86,50,356,76,500
		c49,268,131,550,160,550C19315,7020,19327,6996,19338,6968z M16937,4765c125-221,37-730-227-1315c-92-203-159-316-160-267
		c0,6-7,75-15,152c-64,620,64,1259,288,1437C16884,4820,16907,4818,16937,4765z M18604,4789l27-21l-7-292c-10-465,22-1000,75-1256
		l20-95l-50-110c-62-137-163-315-237-419c-92-128-206-223-240-202c-20,12-80,113-112,186c-131,298-160,893-65,1333
		c50,233,143,465,253,632c61,92,176,205,243,239C18575,4815,18571,4815,18604,4789z M15850,5789c-70-21-175-126-231-229
		c-13-25-28-44-32-42c-4,1-35,34-69,74c-86,97-157,136-264,144c-66,5-85,2-114-14c-98-54-110-234-27-398c105-207,305-356,522-390
		c71-11,108-12,127-5c32,12,185,209,258,330c132,222,137,441,13,509C15984,5795,15901,5804,15850,5789z M12123,5453
		c-54-11-102-98-87-158c29-116,239-134,284-24c25,59-6,131-70,164C12221,5450,12154,5460,12123,5453z M12530,5119
		c-75-30-122-113-128-224c-3-75-2-83,27-127c35-55,112-114,228-177c102-54,167-115,201-189c24-50,27-69,27-162c0-122-21-203-63-252
		c-37-40-52-32-128,65c-69,88-113,178-123,252c-10,70-33,95-94,102c-59,7-70-12-65-112c3-62,10-86,46-156c90-176,188-261,338-292
		c172-35,245,31,285,258c7,44,7,84,0,137c-27,193-109,302-311,416c-46,26-103,65-127,88c-42,40-43,42-43,105c0,43,7,79,21,109
		c34,74,61,79,119,18c23-23,57-69,76-104c42-75,52-84,103-91c31-4,41-2,49,13c25,48-65,203-153,265
		C12734,5119,12599,5146,12530,5119z M12077,5045c-25-24-30-139-24-557c5-381,17-565,40-637c17-50,69-83,126-79c54,4,73,26,51,60
		c-13,19-15,84-16,408c-1,362-11,554-35,695c-13,74-22,91-59,110S12096,5064,12077,5045z"/>
</g>
</svg>
