<?xml version="1.0" standalone="no"?>
<!DOCTYPE svg PUBLIC "-//W3C//DTD SVG 20010904//EN"
 "http://www.w3.org/TR/2001/REC-SVG-20010904/DTD/svg10.dtd">
<svg version="1.0" xmlns="http://www.w3.org/2000/svg"
 width="2400.000000pt" height="2400.000000pt" viewBox="0 0 2400.000000 2400.000000"
 preserveAspectRatio="xMidYMid meet">

<g transform="translate(0.000000,2400.000000) scale(0.100000,-0.100000)"
fill="#000000" stroke="none">
<path d="M5785 22563 c-244 -32 -456 -128 -613 -277 -121 -115 -185 -217 -238
-376 -26 -79 -28 -96 -28 -250 0 -154 2 -171 28 -250 58 -175 135 -299 262
-420 171 -163 388 -269 617 -299 101 -14 304 -14 403 0 203 28 409 124 542
253 64 62 162 196 162 223 0 26 -40 43 -98 43 -61 -1 -84 -15 -123 -73 -86
-131 -301 -271 -492 -322 -335 -90 -731 72 -944 385 -77 114 -118 223 -139
368 -12 91 -12 116 1 202 49 333 287 593 625 681 281 74 610 -29 865 -271 98
-93 123 -110 161 -110 44 0 66 23 54 56 -19 48 -95 136 -175 200 -195 157
-462 246 -729 243 -61 -1 -124 -4 -141 -6z"/>
<path d="M7082 22483 c-12 -2 -27 -14 -33 -25 -26 -49 16 -1556 47 -1660 8
-28 60 -40 101 -23 l35 15 -3 396 -4 395 415 3 c228 2 462 8 520 14 58 5 106
9 107 8 1 -1 6 -91 12 -201 12 -219 36 -479 51 -565 14 -74 50 -99 96 -66 18
13 19 30 22 269 2 172 -4 369 -18 608 -32 552 -48 778 -55 788 -10 17 -68 23
-99 11 l-29 -11 7 -282 c3 -155 9 -310 13 -344 l6 -63 -326 0 c-272 0 -402 -4
-697 -23 l-25 -2 -7 175 c-10 253 -27 522 -34 547 -5 19 -53 46 -73 42 -3 -1
-16 -4 -29 -6z"/>
<path d="M12975 22459 c-241 -35 -429 -200 -443 -389 -6 -83 8 -133 59 -209
75 -113 206 -192 434 -261 77 -23 166 -56 197 -73 73 -37 151 -120 186 -194
37 -81 37 -177 0 -248 -71 -138 -261 -238 -453 -238 -117 0 -202 30 -327 114
-56 38 -90 47 -117 30 -49 -31 132 -166 269 -199 174 -42 409 -13 575 70 85
44 176 138 204 213 49 129 12 281 -97 398 -80 86 -147 122 -352 187 -257 83
-350 142 -408 259 -89 182 46 395 289 457 106 27 169 12 308 -76 49 -30 75
-40 107 -40 83 0 79 48 -11 110 -125 86 -253 113 -420 89z"/>
<path d="M13973 22431 c-66 -5 -87 -10 -104 -27 l-21 -22 11 -373 c30 -1023
36 -1190 42 -1200 14 -23 109 -28 554 -28 476 0 526 4 533 41 10 51 -93 57
-641 37 -169 -7 -310 -9 -314 -6 -5 5 -40 609 -43 724 l0 23 333 -2 c258 -2
340 1 365 11 45 19 43 48 -5 68 -34 14 -71 14 -358 3 -176 -7 -323 -14 -327
-16 -10 -6 -16 58 -28 301 -5 121 -13 261 -16 310 l-6 90 193 -6 c107 -4 334
-7 505 -8 298 -1 313 0 335 19 l24 20 -22 18 c-19 17 -48 20 -240 25 -247 8
-647 6 -770 -2z"/>
<path d="M18764 22406 c-38 -27 -181 -279 -496 -876 -270 -511 -366 -713 -347
-736 15 -19 74 -18 93 1 24 25 112 175 247 420 l125 230 120 -3 c65 -2 219
-10 341 -18 121 -8 228 -12 235 -9 21 8 30 -7 77 -135 61 -165 127 -323 172
-413 52 -102 110 -139 170 -107 26 14 24 32 -12 120 -17 41 -67 170 -111 285
-252 664 -466 1168 -516 1217 -35 34 -71 43 -98 24z m45 -238 c7 -24 65 -175
129 -336 63 -160 112 -295 109 -298 -4 -4 -40 -1 -80 6 -49 8 -147 11 -295 9
-148 -3 -222 -1 -222 6 0 6 36 80 81 165 45 85 119 230 165 323 46 92 88 167
92 167 5 0 14 -19 21 -42z"/>
<path d="M9310 22384 c-62 -12 -200 -59 -255 -86 -170 -86 -317 -235 -387
-396 -66 -152 -81 -212 -86 -353 -3 -81 0 -163 7 -203 24 -139 105 -301 211
-419 94 -105 250 -199 397 -238 113 -30 311 -37 423 -14 357 72 583 282 687
635 24 85 27 111 28 245 0 142 -2 155 -32 250 -18 55 -49 129 -70 164 -106
177 -282 317 -483 383 -87 28 -108 31 -255 33 -88 2 -171 1 -185 -1z m340
-110 c291 -91 492 -389 493 -729 0 -118 -14 -192 -60 -299 -91 -218 -324 -421
-531 -465 -346 -73 -698 181 -779 563 -24 113 -14 329 20 427 109 318 436 557
727 531 30 -2 89 -15 130 -28z"/>
<path d="M11190 22310 c-187 -40 -369 -139 -478 -258 -58 -64 -130 -180 -161
-262 -17 -44 -38 -128 -47 -188 -16 -105 -16 -113 3 -223 65 -367 322 -641
700 -747 90 -25 112 -27 273 -26 149 0 187 3 259 23 293 78 493 266 588 551
26 79 28 96 28 240 -1 151 -2 158 -36 257 -53 152 -115 249 -239 373 -110 110
-168 150 -297 205 -170 73 -409 95 -593 55z m365 -89 c280 -68 505 -268 601
-536 27 -75 29 -89 28 -240 0 -143 -2 -167 -23 -225 -73 -200 -196 -341 -375
-429 -152 -75 -297 -97 -447 -66 -489 99 -787 627 -605 1076 66 160 211 313
362 381 131 58 313 74 459 39z"/>
<path d="M16535 20321 c-29 -12 -45 -34 -110 -151 -32 -58 -100 -178 -152
-267 l-95 -163 -176 0 c-263 0 -362 -20 -362 -71 0 -37 90 -61 310 -79 68 -6
126 -13 128 -15 7 -7 -193 -342 -333 -560 -279 -433 -409 -609 -555 -755 -96
-95 -212 -180 -247 -180 -49 0 -116 121 -140 253 -28 153 -18 592 23 1056 8
96 13 185 10 197 -9 34 -60 56 -131 57 -107 1 -110 -1 -230 -216 -274 -488
-473 -770 -714 -1015 -53 -54 -123 -118 -156 -143 -72 -55 -165 -109 -188
-109 -26 0 -54 55 -68 130 -22 123 30 328 137 545 154 314 410 577 705 725
116 59 182 77 318 89 134 11 166 24 145 59 -18 29 -100 44 -244 45 -184 2
-300 -24 -479 -109 -51 -24 -147 -62 -213 -84 -251 -84 -692 -337 -1232 -708
-217 -149 -319 -227 -528 -404 -221 -187 -319 -256 -456 -325 -89 -45 -124
-58 -171 -61 -58 -4 -60 -3 -104 37 -53 49 -92 136 -107 239 -11 77 -13 245
-4 354 l7 75 141 23 c173 27 274 58 393 120 225 117 420 314 533 539 79 158
31 294 -133 371 -91 44 -153 53 -317 48 -130 -4 -155 -8 -239 -37 -121 -41
-215 -97 -303 -179 -144 -136 -249 -310 -322 -539 -20 -62 -36 -118 -36 -125
0 -7 -5 -30 -11 -50 l-10 -38 -178 0 -178 0 -22 78 c-94 323 -248 668 -429
958 -125 200 -182 242 -322 232 -118 -9 -126 -16 -354 -321 -112 -150 -261
-339 -332 -422 -286 -333 -797 -810 -1145 -1071 -383 -285 -619 -413 -899
-488 -283 -75 -507 -89 -665 -42 -202 61 -422 219 -587 423 -56 68 -96 89
-155 80 -51 -9 -63 -23 -63 -77 0 -132 194 -355 418 -477 95 -52 262 -108 365
-122 101 -14 350 -14 475 0 264 29 567 115 773 220 207 106 542 339 781 546
263 226 643 604 843 838 168 195 181 213 368 462 91 121 170 224 175 227 14 8
23 -5 100 -154 73 -139 155 -316 199 -430 60 -155 143 -418 143 -453 0 -11
-22 -16 -92 -21 -162 -12 -390 -46 -483 -72 -278 -78 -448 -232 -515 -469 -54
-188 -3 -400 127 -537 100 -104 203 -147 378 -155 290 -14 542 82 741 285 101
102 170 228 199 362 22 100 30 299 16 374 -7 39 -8 63 -1 70 5 5 73 12 150 14
l140 5 -6 -174 c-13 -328 36 -490 179 -595 91 -67 192 -96 342 -96 293 0 547
131 955 492 139 123 368 300 635 492 112 80 409 278 412 274 2 -2 -21 -39 -50
-82 -110 -160 -188 -329 -233 -504 -23 -89 -26 -116 -22 -228 3 -114 6 -132
30 -178 61 -116 180 -174 360 -174 203 0 388 88 574 274 151 151 331 393 458
613 59 103 71 112 63 47 -14 -113 -19 -376 -8 -496 24 -278 111 -420 293 -479
59 -19 84 -21 190 -17 138 5 181 18 299 93 180 115 334 307 618 770 161 262
152 247 158 242 3 -3 -2 -29 -10 -59 -22 -76 -65 -298 -77 -398 -14 -119 -12
-303 4 -381 21 -97 72 -213 125 -282 84 -111 210 -175 436 -224 109 -24 141
-26 345 -27 252 0 408 19 615 75 324 89 677 296 893 524 40 41 72 84 72 95 0
50 -127 73 -200 35 -51 -26 -196 -125 -292 -198 -341 -263 -679 -382 -1083
-380 -215 0 -366 40 -454 119 -60 54 -124 172 -151 281 -45 179 -15 483 91
908 20 80 101 347 121 397 l10 27 262 -2 c275 -2 329 4 389 45 30 21 36 58 12
78 -8 6 -31 14 -52 16 -73 7 -369 33 -455 39 -49 4 -88 11 -88 16 0 4 9 32 21
61 71 178 159 435 159 464 0 27 -6 36 -30 49 -31 16 -131 20 -165 6z m-4662
-595 c43 -18 83 -64 92 -103 10 -49 -11 -105 -75 -202 -176 -263 -440 -448
-691 -486 l-47 -7 9 49 c30 160 120 381 203 497 52 73 148 165 212 202 98 58
228 80 297 50z m-1701 -1026 c30 -140 14 -351 -38 -488 -79 -212 -335 -412
-525 -412 -105 0 -183 61 -242 189 -26 56 -31 81 -35 168 -3 83 0 115 16 170
74 242 249 357 597 392 61 6 124 13 140 15 67 8 79 3 87 -34z"/>
<path d="M8884 17241 c-48 -21 -49 -36 -49 -661 0 -322 4 -662 9 -756 6 -112
6 -173 -1 -177 -5 -3 -66 55 -134 131 -201 221 -852 945 -1012 1126 -82 91
-160 174 -175 184 -16 10 -46 17 -75 17 -83 0 -83 2 -90 -322 -7 -276 6 -1154
19 -1288 9 -91 16 -105 58 -105 64 0 61 -40 66 789 l5 756 75 -96 c41 -53 114
-147 162 -210 317 -417 987 -1177 1079 -1225 33 -17 138 -19 172 -3 52 24 57
87 32 436 -12 177 -38 1014 -39 1295 -1 48 -6 92 -11 97 -15 15 -67 22 -91 12z"/>
<path d="M12065 17229 c-306 -10 -555 -27 -594 -40 -37 -13 -42 -43 -8 -54 12
-4 175 -10 362 -14 l340 -6 8 -50 c4 -27 10 -369 13 -758 6 -692 7 -708 26
-718 25 -13 82 -4 98 16 10 12 11 88 6 333 -14 708 -18 1093 -12 1134 l7 44
287 12 c158 7 332 12 387 12 112 0 170 19 170 55 0 42 -27 45 -455 43 -223 -1
-508 -5 -635 -9z"/>
<path d="M16158 17203 c-97 -102 -545 -1025 -702 -1446 -20 -54 -48 -123 -62
-155 -29 -67 -26 -84 17 -80 28 3 36 12 85 108 30 58 123 247 206 420 83 173
155 320 159 326 6 8 23 9 52 3 23 -4 80 -8 127 -9 144 0 453 -29 467 -42 7 -7
39 -91 72 -186 34 -95 80 -221 104 -280 24 -59 67 -170 96 -247 67 -183 81
-205 125 -205 25 0 36 5 40 18 8 25 -22 134 -94 347 -120 350 -180 540 -180
571 0 17 -7 37 -15 44 -8 6 -17 22 -21 33 -81 272 -288 743 -347 789 -35 28
-98 23 -129 -9z m107 -155 c35 -94 134 -376 176 -500 18 -54 30 -100 27 -104
-4 -3 -67 -1 -141 6 -73 7 -199 11 -280 8 -81 -2 -147 0 -147 4 0 18 319 658
328 658 5 0 22 -33 37 -72z"/>
<path d="M10030 17151 c-124 -33 -184 -56 -265 -104 -230 -137 -369 -354 -411
-645 -15 -103 -15 -121 0 -222 18 -125 42 -205 92 -304 138 -271 396 -446 703
-476 406 -41 745 138 917 485 55 112 83 221 91 350 12 232 -88 493 -260 673
-222 232 -553 325 -867 243z m360 -82 c261 -72 460 -285 531 -568 18 -73 21
-105 17 -230 -5 -123 -10 -159 -33 -231 -86 -269 -267 -451 -517 -520 -92 -26
-164 -25 -264 1 -249 65 -442 261 -532 539 -33 102 -42 321 -18 424 40 169
107 290 230 411 92 92 163 137 269 175 75 27 219 26 317 -1z"/>
<path d="M14194 15795 c-18 -27 -62 -175 -98 -328 -22 -94 -42 -211 -67 -407
-5 -41 -19 -113 -29 -160 -21 -92 -59 -270 -84 -390 -9 -41 -22 -100 -29 -130
l-12 -55 -105 3 c-282 9 -615 -132 -844 -356 -79 -78 -131 -150 -185 -259 -37
-76 -91 -227 -91 -257 0 -8 -25 -43 -55 -78 -30 -35 -126 -153 -213 -263 -330
-418 -572 -679 -655 -710 -45 -17 -51 -17 -75 -3 -41 24 -107 128 -136 215
-58 173 -83 533 -56 798 25 258 62 519 105 745 41 215 86 440 91 454 3 9 -1
27 -10 41 -28 43 -146 61 -184 28 -24 -22 -72 -208 -141 -548 -47 -230 -123
-447 -228 -645 -107 -204 -216 -331 -337 -390 -88 -44 -154 -49 -261 -20 -47
13 -89 28 -93 34 -5 6 -14 70 -20 141 -29 335 -129 651 -303 958 -203 357
-441 612 -607 648 -109 24 -178 11 -229 -43 -12 -12 -98 -162 -191 -333 -583
-1069 -893 -1443 -1493 -1803 -452 -271 -926 -358 -1297 -237 -130 42 -332
140 -467 225 -139 88 -186 104 -239 84 -31 -12 -15 -32 87 -111 353 -277 656
-383 1088 -383 362 0 700 109 1088 350 524 325 872 751 1375 1685 233 431 236
436 255 425 51 -27 210 -221 300 -367 165 -267 268 -519 329 -803 23 -107 48
-308 39 -316 -3 -3 -52 12 -109 34 -224 88 -385 117 -588 110 -199 -8 -337
-64 -461 -187 -107 -107 -151 -221 -152 -391 -1 -212 94 -392 266 -508 139
-92 326 -143 537 -143 301 -2 538 129 655 361 49 97 115 344 115 429 0 17 1
31 3 31 1 0 55 -9 120 -20 65 -11 143 -20 173 -20 77 0 188 27 263 64 67 33
181 130 222 190 13 20 27 36 32 36 4 0 7 -54 7 -119 0 -298 50 -518 151 -661
70 -100 160 -152 295 -171 161 -22 276 13 381 118 108 108 329 381 485 599 89
124 96 127 97 33 1 -73 38 -232 72 -317 24 -58 46 -91 88 -133 72 -73 141
-100 266 -107 140 -7 231 34 351 155 141 143 319 488 475 916 61 170 57 175
74 -73 9 -116 49 -329 80 -419 47 -140 128 -263 229 -350 170 -147 483 -196
771 -120 102 26 250 81 337 124 39 19 74 35 78 35 3 0 25 -30 50 -67 99 -152
296 -312 474 -386 196 -82 496 -134 711 -124 285 15 534 73 865 204 259 103
521 239 770 401 210 136 552 385 563 410 10 21 8 27 -16 48 -19 16 -41 24 -66
24 -41 0 -10 17 -586 -328 -482 -289 -789 -429 -1145 -525 -219 -59 -311 -72
-525 -72 -216 0 -273 10 -411 71 -171 76 -359 265 -438 442 l-20 44 35 26
c347 271 604 615 730 982 29 85 33 107 33 211 1 112 0 117 -29 164 -60 97
-169 154 -315 162 -73 5 -96 2 -160 -20 -146 -49 -259 -135 -364 -274 -116
-154 -194 -327 -243 -538 -38 -163 -44 -419 -13 -560 35 -158 42 -142 -87
-206 -131 -66 -325 -132 -435 -149 -42 -7 -114 -11 -160 -8 -100 5 -150 28
-217 98 -100 105 -154 236 -199 480 -26 142 -26 153 -26 585 0 283 4 488 12
575 7 74 22 241 32 370 44 539 64 702 111 886 12 44 19 91 17 105 -4 32 -59
59 -120 59 -39 0 -50 -4 -64 -25z m2025 -1490 c71 -36 108 -119 96 -214 -23
-180 -169 -471 -347 -688 -128 -157 -342 -363 -360 -345 -25 25 -35 268 -18
411 46 366 243 723 455 826 58 28 132 32 174 10z m-2369 -78 c0 -25 -80 -304
-134 -468 -120 -368 -284 -733 -422 -940 -94 -143 -208 -239 -287 -241 -41 -1
-78 43 -111 134 -58 156 -70 335 -36 558 47 308 156 530 339 687 148 128 293
210 456 258 91 27 195 33 195 12z m-4236 -977 c83 -12 176 -43 364 -122 162
-68 151 -52 131 -195 -28 -212 -104 -398 -204 -499 -171 -175 -454 -204 -652
-68 -149 102 -228 293 -203 489 20 156 111 284 252 350 105 50 191 62 312 45z"/>
<path d="M11675 15304 c-43 -22 -66 -46 -100 -103 -17 -28 -34 -51 -38 -51 -5
0 -25 13 -45 30 -68 54 -136 75 -229 71 -13 -1 -32 -10 -43 -21 -73 -73 58
-258 251 -354 129 -64 159 -62 247 15 135 118 216 314 157 379 -43 49 -141 65
-200 34z"/>
<path d="M14545 11342 c-58 -27 -119 -101 -155 -188 -67 -162 -108 -460 -98
-722 l5 -122 -25 -13 c-14 -6 -30 -20 -36 -30 -11 -18 -2 -31 47 -62 17 -11
19 -29 52 -515 18 -244 50 -485 70 -516 15 -23 60 -36 93 -27 38 9 43 58 32
318 -5 132 -16 314 -22 405 -7 91 -13 199 -13 240 l0 75 65 2 c110 4 333 24
372 34 65 17 69 63 8 94 -39 20 -239 35 -362 28 l-95 -6 -6 97 c-14 240 24
538 88 681 27 62 70 125 85 125 15 0 31 -64 55 -225 52 -346 65 -419 81 -436
21 -23 95 -35 123 -20 19 11 21 20 21 104 0 51 -7 157 -15 237 -37 351 -88
441 -261 455 -55 5 -77 2 -109 -13z"/>
<path d="M17160 11253 c-31 -16 -72 -63 -82 -95 -3 -8 -20 -4 -52 11 -34 17
-57 22 -83 18 -39 -7 -73 -32 -73 -55 0 -51 108 -183 175 -213 47 -22 95 -24
117 -6 48 37 138 217 138 276 0 67 -71 100 -140 64z"/>
<path d="M17390 11122 c-19 -16 -23 -33 -32 -142 -20 -237 -15 -802 10 -1220
29 -497 34 -539 62 -562 29 -24 82 -23 111 1 l24 19 -3 469 c-2 257 -8 536
-13 618 -5 83 -18 293 -28 467 -11 174 -24 326 -30 336 -19 36 -66 42 -101 14z"/>
<path d="M13161 11076 c-29 -35 -48 -584 -32 -916 6 -124 18 -290 26 -370 7
-80 21 -219 29 -310 29 -303 44 -373 86 -395 37 -19 100 -19 126 -1 18 14 19
27 17 198 -3 293 -32 903 -54 1123 -58 594 -65 640 -107 671 -23 18 -77 17
-91 0z"/>
<path d="M12751 11056 c-17 -20 -28 -132 -42 -414 -14 -267 -5 -521 25 -787 8
-66 21 -187 30 -270 21 -193 42 -326 57 -358 14 -31 48 -47 99 -47 62 0 70 16
70 133 0 306 -53 1391 -80 1627 -8 72 -13 88 -35 108 -30 25 -105 31 -124 8z"/>
<path d="M8922 10941 c-10 -6 -12 -21 -7 -55 13 -81 92 -327 112 -348 24 -24
92 -34 122 -19 26 15 26 31 0 179 -33 184 -78 252 -168 252 -25 0 -52 -4 -59
-9z"/>
<path d="M12278 10941 c-118 -38 -286 -245 -328 -405 -13 -47 -12 -50 9 -68
27 -21 80 -24 102 -5 9 6 28 43 44 82 56 135 177 285 243 302 66 16 96 -107
96 -404 0 -117 -3 -215 -7 -219 -3 -4 -28 -1 -54 7 -26 7 -93 14 -148 14 -88
0 -107 -3 -157 -27 -119 -56 -206 -186 -228 -344 -41 -288 66 -449 315 -472
70 -7 109 -5 177 8 49 9 90 14 93 12 3 -3 5 -20 5 -37 0 -90 20 -114 95 -117
67 -2 76 11 87 134 4 57 14 113 20 125 8 16 8 26 0 35 -7 9 -8 67 0 198 14
261 4 835 -16 922 -41 180 -115 257 -256 264 -36 2 -77 0 -92 -5z m74 -795
c91 -28 83 0 83 -308 l0 -273 -122 -25 -122 -24 -25 23 c-13 13 -35 46 -48 74
-20 46 -23 67 -23 182 0 111 3 139 23 190 29 77 85 142 137 160 50 17 41 17
97 1z"/>
<path d="M16625 10933 c-55 -14 -93 -63 -145 -188 l-12 -30 -18 49 c-32 84
-76 116 -160 116 -66 0 -111 -20 -143 -61 -32 -44 -91 -162 -107 -216 -7 -23
-16 -40 -20 -38 -4 2 -12 30 -19 62 -8 32 -19 70 -27 85 -16 31 -58 43 -97 29
-32 -12 -31 2 -12 -281 8 -113 23 -347 35 -520 11 -173 24 -349 30 -390 5 -41
15 -114 21 -163 13 -104 25 -117 109 -117 95 0 90 -21 78 340 -18 499 8 794
89 1014 16 44 34 81 39 83 21 7 39 -140 59 -477 29 -478 48 -699 61 -734 13
-34 89 -47 140 -24 l26 12 -6 221 c-9 265 5 512 39 714 24 143 67 305 84 315
10 6 18 -79 26 -269 3 -71 10 -177 15 -235 6 -58 17 -256 25 -440 18 -405 23
-467 42 -486 21 -20 86 -18 114 5 l24 19 -1 589 c0 497 -3 608 -17 717 -23
170 -33 207 -68 249 -40 49 -124 69 -204 50z"/>
<path d="M9757 10816 c-22 -8 -49 -23 -60 -35 -40 -37 -90 -132 -128 -242 -20
-60 -41 -111 -46 -112 -4 -1 -9 12 -11 28 -7 68 -32 222 -42 257 -8 29 -18 39
-46 48 -29 10 -39 9 -58 -4 -21 -13 -25 -26 -31 -102 -21 -252 14 -817 74
-1175 40 -236 60 -269 168 -269 79 0 86 12 78 129 -3 53 -13 152 -22 221 -32
256 5 654 84 920 29 97 79 203 92 195 5 -3 12 -29 16 -58 19 -141 85 -440 100
-457 34 -38 128 -37 140 1 9 26 -13 302 -31 408 -25 143 -72 222 -144 240 -73
19 -96 20 -133 7z"/>
<path d="M8004 10800 c-14 -5 -24 -21 -27 -42 -14 -75 -47 -357 -67 -568 -11
-124 -25 -251 -30 -283 -5 -31 -15 -141 -22 -242 -7 -102 -16 -181 -20 -177
-7 7 -95 237 -243 638 -133 362 -173 424 -270 424 -53 0 -88 -26 -103 -78 -15
-48 -87 -414 -107 -537 -32 -202 -53 -316 -58 -321 -8 -8 -20 39 -103 416 -62
283 -120 473 -159 518 -17 20 -32 25 -68 26 -63 1 -73 -11 -60 -76 6 -29 26
-132 45 -228 20 -96 48 -251 63 -345 62 -390 130 -685 170 -743 9 -12 28 -28
43 -36 41 -20 123 -28 152 -13 28 14 37 50 71 277 11 74 28 189 39 255 11 66
31 192 44 280 14 88 30 196 37 240 7 44 15 83 19 88 3 4 41 -108 83 -248 153
-508 295 -841 385 -901 64 -44 167 -40 192 6 7 13 15 111 21 233 24 570 32
728 45 927 26 389 29 484 13 496 -21 17 -61 23 -85 14z"/>
<path d="M10530 10801 c-127 -39 -228 -180 -296 -416 -28 -99 -40 -169 -54
-310 -13 -131 6 -378 40 -510 29 -117 91 -235 158 -304 68 -69 122 -99 205
-112 81 -13 131 -4 174 34 60 53 145 249 184 427 20 93 20 94 0 113 -13 14
-34 20 -66 21 -57 1 -63 -6 -107 -127 -40 -112 -147 -327 -170 -341 -22 -13
-37 4 -83 99 -53 106 -95 342 -95 526 l0 57 52 12 c182 39 304 160 382 378 32
89 35 197 9 281 -25 81 -100 154 -172 170 -58 12 -123 13 -161 2z m129 -110
c49 -92 16 -260 -84 -417 -40 -63 -98 -129 -129 -146 -18 -10 -19 -7 -13 70 3
44 17 130 31 191 49 216 154 379 195 302z"/>
<path d="M15325 10789 c-178 -35 -355 -197 -355 -325 0 -54 25 -74 92 -74 44
0 49 3 85 47 80 97 107 124 172 167 72 47 124 68 146 60 8 -3 24 -31 36 -62
19 -48 23 -83 27 -219 2 -89 2 -169 -1 -176 -4 -11 -20 -12 -84 -4 -216 25
-421 -80 -511 -262 -35 -71 -37 -80 -37 -171 0 -87 3 -101 32 -161 78 -157
214 -222 516 -244 l87 -7 0 -83 c0 -111 13 -127 101 -133 44 -2 70 1 82 10 29
22 44 120 62 411 15 232 16 311 6 585 -7 192 -17 343 -25 383 -18 83 -55 158
-95 192 -67 56 -226 87 -336 66z m185 -689 c13 -8 15 -54 15 -310 l0 -302 -55
7 c-172 20 -249 75 -286 204 -32 108 6 231 96 315 80 75 185 114 230 86z"/>
<path d="M17682 10770 c-12 -5 -26 -20 -31 -32 -17 -46 -33 -309 -33 -523 1
-398 60 -661 183 -816 68 -86 225 -129 345 -94 72 20 113 50 156 113 l32 47 7
-35 c4 -19 12 -150 18 -290 20 -441 -12 -730 -99 -915 -30 -63 -72 -111 -88
-101 -14 8 -122 170 -160 238 -52 94 -109 238 -133 333 -12 50 -26 96 -31 102
-17 22 -76 27 -103 9 -21 -14 -25 -24 -25 -66 0 -186 176 -577 303 -674 69
-53 222 -56 303 -5 133 82 213 325 245 747 13 161 6 748 -11 962 -23 301 -41
502 -55 595 -7 55 -17 157 -21 227 -4 79 -11 134 -19 145 -11 14 -28 18 -80
18 -96 0 -95 2 -95 -226 0 -236 -34 -515 -89 -739 -64 -258 -125 -390 -168
-364 -31 19 -79 110 -111 212 -52 163 -77 354 -117 877 -7 105 -18 203 -24
218 -6 15 -22 32 -36 37 -31 12 -33 12 -63 0z"/>
<path d="M8539 10716 c-110 -39 -209 -195 -285 -451 -50 -169 -69 -314 -69
-535 0 -232 13 -313 68 -422 68 -138 171 -201 327 -202 81 0 135 20 176 66 42
45 167 319 211 462 21 68 23 81 10 93 -21 21 -91 35 -120 24 -35 -14 -55 -42
-173 -250 -58 -102 -116 -199 -129 -215 -30 -37 -42 -29 -78 52 -40 89 -57
182 -64 343 l-6 146 59 7 c252 28 438 314 403 622 -14 126 -77 230 -153 253
-57 17 -140 20 -177 7z m126 -167 c24 -71 16 -241 -14 -318 -37 -91 -61 -132
-109 -183 -44 -47 -121 -97 -123 -81 -7 53 27 238 67 372 41 134 127 283 154
266 5 -3 16 -28 25 -56z"/>
<path d="M17060 10702 c-19 -16 -23 -32 -31 -127 -13 -171 -10 -406 6 -565 39
-387 46 -454 59 -568 23 -198 26 -202 104 -202 69 0 75 16 69 177 -12 325 -28
676 -37 783 -18 238 -41 452 -50 476 -17 42 -82 57 -120 26z"/>
<path d="M12558 9029 c-17 -7 -32 -23 -40 -45 l-12 -34 -291 2 -290 3 -50 -25
c-88 -44 -102 -97 -111 -420 -9 -323 29 -811 72 -929 22 -57 70 -80 168 -81
81 0 359 38 569 79 104 20 150 25 155 17 4 -6 14 -38 22 -71 14 -57 17 -61 57
-74 34 -12 48 -13 83 -2 55 16 62 39 58 183 -3 100 -6 121 -24 145 -46 62
-188 53 -209 -14 -6 -18 -13 -34 -16 -37 -3 -3 -66 -12 -140 -20 -73 -9 -201
-27 -284 -42 -230 -41 -213 -40 -219 -13 -6 25 -39 440 -40 499 l-1 35 75 6
c41 4 112 10 157 14 l82 8 16 -59 c22 -77 44 -99 96 -98 72 2 80 24 64 189
-11 122 -35 155 -112 155 -48 0 -83 -23 -83 -55 l0 -24 -147 -3 c-82 -2 -151
-1 -155 2 -7 5 -38 376 -38 460 0 37 5 55 20 70 19 19 33 20 265 20 188 0 247
-3 250 -12 2 -7 9 -55 14 -107 12 -113 22 -126 91 -126 80 0 84 9 88 186 4
171 -3 202 -50 218 -37 13 -54 13 -90 0z"/>
<path d="M16184 8979 c-17 -5 -39 -18 -49 -29 -15 -17 -16 -22 -4 -36 18 -22
71 -44 104 -44 21 0 25 -5 25 -27 0 -16 -5 -46 -10 -68 -4 -22 -14 -112 -20
-200 -6 -88 -13 -184 -16 -214 l-6 -54 -271 7 c-149 3 -274 10 -278 14 -4 4
-12 93 -18 197 -7 105 -14 213 -18 241 l-5 52 43 7 c76 13 99 36 63 66 -20 16
-250 32 -302 21 -28 -7 -44 -5 -57 4 -25 19 -70 18 -89 -2 -14 -13 -77 -16
-503 -19 -269 -1 -505 -6 -525 -10 -35 -7 -38 -5 -48 21 -6 16 -17 32 -23 36
-17 11 -75 10 -97 -2 -25 -13 -40 -89 -40 -199 0 -100 12 -121 69 -121 54 0
69 14 76 74 l7 54 72 7 c39 3 141 5 226 3 l155 -3 -2 -40 c0 -22 -8 -137 -17
-255 -16 -208 -16 -429 0 -727 l5 -103 -33 0 c-37 0 -78 -24 -78 -45 0 -20 38
-42 85 -50 22 -4 57 -13 78 -21 51 -19 86 -18 125 6 18 11 47 20 65 20 44 0
132 27 151 46 37 36 -26 68 -126 62 l-61 -3 4 170 c9 357 3 666 -15 803 -9 72
-14 137 -11 142 4 6 90 10 224 10 l218 0 6 -57 c7 -63 23 -83 66 -83 43 0 53
14 61 86 9 83 17 104 37 104 13 0 14 -11 9 -72 -4 -40 -12 -93 -17 -118 -22
-112 -29 -337 -19 -604 6 -149 15 -298 20 -330 5 -32 7 -62 5 -66 -3 -4 -22
-10 -43 -14 -21 -3 -47 -15 -58 -27 -19 -21 -19 -21 4 -39 33 -27 88 -32 252
-22 152 9 190 20 190 52 0 26 -30 40 -87 40 l-49 0 4 188 c2 103 7 235 10 295
l7 107 273 3 c150 2 275 0 277 -4 3 -4 12 -105 20 -225 14 -200 27 -323 41
-396 5 -26 3 -28 -35 -34 -52 -8 -103 -40 -99 -61 2 -9 16 -25 31 -37 26 -19
41 -21 191 -21 138 0 166 3 189 18 45 29 32 57 -40 82 -27 10 -37 19 -36 32
12 104 24 464 20 602 -5 174 -29 469 -47 586 -17 104 -16 105 35 105 60 0 95
17 95 46 0 33 -27 44 -164 65 -133 20 -175 22 -222 8z"/>
<path d="M10095 8910 c-93 -10 -147 -26 -179 -51 -55 -43 -23 -71 88 -79 l81
-5 12 -225 c20 -376 33 -560 47 -665 7 -55 11 -102 9 -104 -11 -14 -414 409
-613 644 -70 83 -139 161 -154 174 -14 14 -26 28 -26 32 0 5 23 11 51 15 27 4
60 15 72 25 l22 19 -25 21 c-24 21 -32 21 -220 16 -203 -5 -263 -16 -284 -50
-9 -15 -7 -22 13 -38 13 -10 36 -19 51 -19 28 0 28 0 34 -82 3 -46 10 -155 16
-243 13 -190 49 -426 90 -584 17 -62 27 -117 24 -122 -3 -5 -14 -9 -25 -9 -28
0 -79 -28 -79 -44 0 -7 9 -21 21 -32 17 -16 40 -20 129 -22 131 -4 341 12 378
30 32 16 41 53 15 66 -10 6 -69 13 -130 17 l-113 8 0 36 c-1 33 -11 127 -70
620 -11 96 -19 178 -18 183 2 4 111 -119 243 -274 132 -155 306 -350 388 -434
81 -83 147 -153 147 -156 0 -3 -25 -10 -55 -17 -31 -7 -68 -23 -83 -36 l-27
-24 23 -23 c21 -21 31 -23 140 -23 136 0 411 30 459 50 39 17 44 48 11 67 -13
7 -50 15 -83 18 -56 5 -60 7 -67 35 -11 45 -66 337 -83 445 -24 144 -96 722
-91 727 3 3 42 9 88 14 100 12 128 22 128 49 0 39 -43 54 -169 56 -64 1 -147
-1 -186 -6z"/>
<path d="M17343 8909 c-6 -8 -13 -23 -17 -34 -6 -19 -14 -20 -268 -20 -258 0
-264 -1 -322 -25 -94 -40 -93 -38 -128 -340 -6 -52 -11 -221 -12 -375 -1 -235
2 -296 18 -380 24 -130 34 -147 97 -174 72 -31 211 -30 444 3 231 33 221 34
235 -9 15 -45 46 -65 100 -68 59 -2 70 17 70 115 0 105 -16 143 -67 157 -63
18 -101 14 -124 -13 -19 -22 -29 -24 -182 -30 -89 -4 -195 -13 -235 -20 -43
-7 -75 -9 -79 -3 -11 18 -23 296 -17 408 l7 116 96 7 c53 4 123 9 157 13 l61
5 6 -39 c8 -48 24 -63 75 -70 53 -7 62 9 69 114 5 83 4 90 -18 116 -41 49
-124 47 -141 -3 -2 -6 -67 -13 -155 -17 l-153 -6 0 184 c0 101 4 190 8 197 8
12 112 23 363 38 l105 7 10 -33 c17 -59 93 -96 132 -63 21 17 22 22 13 111 -6
73 -13 98 -29 114 -25 25 -103 36 -119 17z"/>
<path d="M10918 8865 c-145 -40 -226 -147 -269 -355 -56 -269 -1 -600 130
-787 97 -137 266 -232 417 -233 74 0 144 24 181 62 38 40 108 175 124 241 10
42 16 50 50 63 79 32 50 75 -62 94 -96 17 -218 18 -246 2 -47 -26 -17 -74 55
-88 18 -4 32 -11 32 -16 0 -34 -125 -218 -149 -218 -29 0 -124 74 -168 132
-99 128 -161 293 -190 502 -18 130 -15 186 17 332 15 69 67 153 110 178 89 52
219 9 352 -114 l73 -68 -35 -15 c-108 -46 -78 -107 52 -107 46 0 82 9 152 36
110 45 136 61 136 85 0 27 -31 39 -105 39 l-67 0 -74 69 c-156 145 -357 210
-516 166z"/>
<path d="M8290 8737 c-206 -53 -338 -198 -412 -452 -19 -69 -23 -102 -23 -240
0 -139 4 -171 24 -240 34 -117 76 -191 145 -260 124 -124 297 -169 494 -129
233 46 366 181 448 450 25 82 28 103 28 259 0 158 -2 175 -25 241 -32 88 -86
171 -160 245 -137 137 -311 180 -519 126z m181 -102 c120 -41 173 -87 231
-200 108 -209 55 -615 -105 -801 -39 -45 -132 -99 -188 -109 -79 -15 -196 70
-252 181 -54 108 -71 195 -71 369 0 138 3 171 23 240 47 159 124 274 217 324
50 26 56 26 145 -4z"/>
<path d="M5818 7861 c-83 -27 -142 -94 -209 -235 -106 -227 -176 -539 -229
-1016 -10 -86 -50 -716 -50 -779 l0 -34 -42 7 c-74 12 -219 66 -354 132 -136
67 -188 78 -218 48 -70 -69 284 -279 548 -325 l69 -12 -7 -126 c-7 -134 7
-807 24 -1131 5 -107 14 -298 20 -425 10 -222 29 -529 51 -800 22 -287 72
-628 102 -692 14 -32 50 -50 117 -57 37 -5 63 -2 80 6 l25 14 -3 369 c-1 204
2 426 7 495 13 168 50 541 56 560 2 8 11 65 20 125 19 142 58 346 65 342 3 -1
32 -13 66 -25 57 -22 63 -28 100 -90 72 -125 231 -357 289 -421 141 -158 239
-214 407 -233 94 -10 113 -10 169 6 110 30 173 92 243 235 35 75 41 82 47 60
4 -13 7 -50 8 -81 1 -81 47 -619 71 -833 27 -241 69 -513 85 -552 20 -47 65
-67 157 -67 121 -1 117 -15 82 271 -34 291 -36 489 -4 737 11 90 24 184 29
208 5 24 16 78 24 120 22 110 80 300 139 458 95 254 219 474 319 564 70 63 93
62 124 -6 48 -106 60 -209 59 -493 0 -143 -6 -312 -12 -375 -18 -174 -15 -703
4 -874 20 -179 47 -318 84 -424 53 -157 108 -203 245 -210 67 -3 85 0 112 17
41 26 81 97 123 216 18 52 36 95 40 95 4 0 18 -27 30 -61 62 -165 175 -270
332 -308 57 -13 179 -17 228 -6 123 27 243 149 330 338 96 209 175 549 201
862 12 150 6 500 -11 594 l-9 54 74 111 c40 61 107 181 148 266 41 85 84 175
96 200 l21 45 -5 -195 c-3 -107 -10 -315 -16 -461 -14 -323 -6 -865 15 -1086
39 -410 129 -721 254 -879 51 -65 134 -110 232 -125 130 -20 216 14 261 103
62 121 169 927 170 1275 0 132 -4 191 -13 210 -23 48 -135 70 -177 35 -17 -14
-23 -35 -31 -122 -6 -58 -17 -145 -25 -195 -8 -49 -22 -133 -30 -185 -51 -330
-140 -775 -164 -818 -12 -21 -32 25 -70 163 -85 299 -117 696 -108 1315 9 636
27 1434 32 1448 3 9 64 12 257 12 264 0 299 5 306 43 6 28 -26 56 -83 72 -56
17 -253 34 -382 35 -45 0 -85 4 -88 10 -3 5 6 175 21 376 20 256 25 370 18
382 -19 31 -81 53 -154 55 -111 3 -97 31 -221 -453 -39 -151 -76 -291 -81
-311 l-10 -37 -216 -7 c-253 -7 -360 -18 -408 -41 -68 -32 -51 -95 32 -114 21
-5 150 -10 287 -10 206 0 247 -2 247 -14 0 -67 -261 -707 -298 -730 -4 -2 -23
21 -42 52 -40 69 -107 157 -146 194 -54 50 -143 96 -222 113 -166 37 -313 -3
-391 -108 -36 -48 -81 -137 -81 -159 0 -6 -22 -65 -49 -131 -124 -312 -151
-477 -157 -976 l-4 -323 -35 -135 c-52 -197 -128 -413 -145 -413 -12 0 -28 80
-50 257 -26 201 -28 714 -4 1004 29 358 8 677 -55 822 -28 64 -101 140 -160
166 -62 26 -194 42 -258 30 -148 -28 -276 -157 -409 -414 -52 -99 -134 -297
-160 -387 -32 -104 -35 -78 -54 437 -14 354 -17 389 -45 415 -27 26 -118 45
-168 36 -44 -8 -60 -30 -76 -106 -51 -243 -84 -393 -97 -440 -77 -278 -109
-372 -169 -496 -44 -91 -124 -194 -151 -194 -39 0 -162 144 -319 375 -49 72
-106 153 -127 182 -21 29 -38 54 -38 56 0 2 22 18 49 35 119 77 281 273 366
441 132 263 169 641 79 798 -51 88 -143 128 -277 121 -66 -3 -95 -11 -149 -36
-144 -69 -290 -246 -407 -493 -102 -217 -205 -537 -256 -799 -29 -152 -43
-205 -48 -190 -17 48 -54 1404 -39 1428 5 7 42 22 83 33 133 38 222 92 335
204 193 192 317 433 384 745 33 152 33 449 1 597 -71 328 -218 578 -368 627
-60 19 -179 28 -215 17z m154 -128 c58 -64 110 -187 149 -358 32 -144 33 -438
0 -605 -56 -294 -177 -557 -341 -744 -59 -68 -151 -146 -170 -146 -11 0 -12
46 -6 243 6 212 35 657 51 787 50 394 139 710 230 819 33 38 54 39 87 4z m583
-2140 c26 -65 13 -288 -25 -439 -63 -251 -232 -531 -403 -667 -39 -30 -46 -32
-129 -33 l-88 -1 6 26 c75 337 214 702 340 893 105 157 274 283 299 221z
m2916 -897 c88 -60 188 -234 238 -416 l19 -69 -34 -44 c-62 -79 -192 -173
-266 -191 -56 -13 -125 81 -148 202 -8 41 -11 109 -8 190 7 162 36 257 97 315
22 20 46 37 53 37 7 0 29 -11 49 -24z m-154 -860 c178 -38 244 -30 432 51 12
5 13 -16 8 -138 -9 -179 -21 -287 -52 -457 -52 -280 -126 -522 -207 -674 -52
-97 -136 -195 -161 -185 -24 9 -92 159 -121 267 -33 125 -63 290 -76 420 -16
153 -24 515 -15 662 l7 127 58 -29 c32 -16 89 -36 127 -44z"/>
<path d="M19182 7219 c-23 -12 -56 -38 -73 -58 -42 -50 -132 -237 -169 -351
-133 -411 -247 -1111 -285 -1751 -4 -64 -10 -122 -14 -128 -6 -9 -15 -9 -37 0
-49 20 -210 14 -277 -10 -287 -102 -526 -447 -641 -923 -23 -97 -49 -262 -63
-399 -5 -46 -10 -59 -28 -67 -12 -6 -83 -102 -158 -214 -146 -218 -253 -360
-391 -517 -108 -123 -231 -235 -251 -227 -19 7 -69 77 -101 142 l-26 54 54 72
c145 193 295 490 409 808 233 655 197 1152 -94 1280 -64 28 -202 44 -273 31
-245 -46 -406 -262 -508 -685 -52 -214 -61 -308 -61 -636 1 -341 15 -466 75
-670 47 -159 47 -151 3 -186 -80 -63 -196 -114 -260 -114 -14 0 -42 18 -69 42
-117 108 -195 405 -224 853 -15 235 -30 682 -30 902 0 219 -1 221 -85 242 -85
21 -147 4 -159 -44 -11 -42 -34 -251 -41 -370 -4 -60 -11 -130 -16 -155 -15
-80 -97 -474 -108 -520 -6 -25 -22 -99 -36 -165 -117 -546 -237 -894 -351
-1015 -25 -27 -53 -50 -60 -50 -38 0 -138 189 -201 380 -100 303 -169 705
-205 1190 -14 189 -18 1205 -4 1273 l7 37 72 0 c144 0 280 34 293 72 17 53
-80 92 -258 104 l-98 7 0 81 c0 45 5 131 10 191 36 406 50 798 30 850 -12 31
-63 55 -119 55 -53 0 -69 -7 -86 -41 -39 -75 -125 -626 -158 -1014 l-12 -140
-65 -7 c-36 -3 -123 -11 -195 -17 -206 -18 -289 -47 -283 -99 2 -20 13 -32 43
-47 37 -19 56 -20 264 -17 l224 4 -6 -49 c-17 -125 -27 -691 -18 -943 29 -754
135 -1337 311 -1695 116 -237 236 -334 450 -364 142 -19 269 25 357 123 84 96
165 290 233 566 46 182 42 178 66 83 9 -32 35 -99 59 -149 85 -176 229 -280
431 -311 150 -23 252 -11 397 44 l67 26 66 -66 c82 -83 175 -131 287 -147 151
-22 219 5 357 141 135 135 300 353 420 557 23 40 45 71 47 68 3 -2 13 -67 24
-143 39 -279 124 -504 240 -627 100 -107 200 -152 365 -163 141 -9 251 31 364
133 46 42 159 190 211 276 19 32 37 58 41 58 4 0 24 -32 45 -72 74 -140 198
-247 321 -274 114 -26 146 -27 206 -10 134 39 200 148 419 691 226 557 359
963 361 1099 1 34 -3 42 -31 58 -41 25 -121 33 -152 16 -16 -9 -34 -38 -53
-88 -149 -377 -563 -1307 -664 -1488 -30 -52 -38 -61 -50 -51 -36 30 -128 262
-179 453 l-24 88 63 167 c234 612 370 1115 475 1751 88 532 107 1291 41 1677
-51 300 -151 499 -267 533 -79 23 -145 23 -191 -1z m156 -251 c34 -91 61 -228
72 -362 19 -237 9 -690 -20 -926 -49 -399 -100 -687 -176 -1005 -14 -60 -32
-137 -39 -170 -19 -82 -92 -356 -114 -430 -11 -33 -31 -100 -46 -148 -19 -60
-31 -85 -37 -79 -15 15 -15 710 0 1002 19 351 62 879 82 1000 5 30 12 84 15
120 9 86 50 356 76 500 49 268 131 550 160 550 4 0 16 -24 27 -52z m-2401
-2203 c125 -221 37 -730 -227 -1315 -92 -203 -159 -316 -160 -267 0 6 -7 75
-15 152 -64 620 64 1259 288 1437 61 48 84 46 114 -7z m1667 24 l27 -21 -7
-292 c-10 -465 22 -1000 75 -1256 l20 -95 -50 -110 c-62 -137 -163 -315 -237
-419 -92 -128 -206 -223 -240 -202 -20 12 -80 113 -112 186 -131 298 -160 893
-65 1333 50 233 143 465 253 632 61 92 176 205 243 239 64 31 60 31 93 5z"/>
<path d="M15850 5789 c-70 -21 -175 -126 -231 -229 -13 -25 -28 -44 -32 -42
-4 1 -35 34 -69 74 -86 97 -157 136 -264 144 -66 5 -85 2 -114 -14 -98 -54
-110 -234 -27 -398 105 -207 305 -356 522 -390 71 -11 108 -12 127 -5 32 12
185 209 258 330 132 222 137 441 13 509 -49 27 -132 36 -183 21z"/>
<path d="M12123 5453 c-54 -11 -102 -98 -87 -158 29 -116 239 -134 284 -24 25
59 -6 131 -70 164 -29 15 -96 25 -127 18z"/>
<path d="M12530 5119 c-75 -30 -122 -113 -128 -224 -3 -75 -2 -83 27 -127 35
-55 112 -114 228 -177 102 -54 167 -115 201 -189 24 -50 27 -69 27 -162 0
-122 -21 -203 -63 -252 -37 -40 -52 -32 -128 65 -69 88 -113 178 -123 252 -10
70 -33 95 -94 102 -59 7 -70 -12 -65 -112 3 -62 10 -86 46 -156 90 -176 188
-261 338 -292 172 -35 245 31 285 258 7 44 7 84 0 137 -27 193 -109 302 -311
416 -46 26 -103 65 -127 88 -42 40 -43 42 -43 105 0 43 7 79 21 109 34 74 61
79 119 18 23 -23 57 -69 76 -104 42 -75 52 -84 103 -91 31 -4 41 -2 49 13 25
48 -65 203 -153 265 -81 58 -216 85 -285 58z"/>
<path d="M12077 5045 c-25 -24 -30 -139 -24 -557 5 -381 17 -565 40 -637 17
-50 69 -83 126 -79 54 4 73 26 51 60 -13 19 -15 84 -16 408 -1 362 -11 554
-35 695 -13 74 -22 91 -59 110 -37 19 -64 19 -83 0z"/>
</g>
</svg>
