<?xml version="1.0" standalone="no"?>
<!DOCTYPE svg PUBLIC "-//W3C//DTD SVG 20010904//EN"
 "http://www.w3.org/TR/2001/REC-SVG-20010904/DTD/svg10.dtd">
<svg version="1.0" xmlns="http://www.w3.org/2000/svg"
 width="2400.000000pt" height="2400.000000pt" viewBox="0 0 2400.000000 2400.000000"
 preserveAspectRatio="xMidYMid meet">

<g transform="translate(0.000000,2400.000000) scale(0.100000,-0.100000)"
fill="#000000" stroke="none">
<path d="M13275 23049 c-288 -18 -601 -148 -843 -351 -207 -174 -463 -514
-609 -809 -32 -65 -61 -118 -64 -119 -4 0 -60 66 -125 148 -428 531 -850 782
-1318 782 -124 0 -198 -11 -296 -42 -246 -79 -442 -260 -513 -475 -92 -279
-38 -591 178 -1028 168 -342 390 -643 699 -950 245 -243 487 -433 890 -699
l260 -171 -50 -7 c-27 -4 -479 -14 -1004 -23 -1871 -31 -3339 -72 -3835 -105
-77 -6 -201 -10 -275 -10 -148 0 -196 -9 -236 -44 l-27 -22 2 -165 c2 -187
-10 -622 -39 -1374 -42 -1113 -69 -2049 -74 -2595 l-4 -385 -44 -3 c-79 -5
-670 -72 -854 -97 l-182 -25 -43 24 c-115 65 -341 52 -413 -23 l-27 -28 1
-1934 c0 -2220 14 -3244 50 -3774 6 -77 10 -154 10 -171 l0 -31 -107 -7 c-266
-17 -697 -50 -908 -70 -209 -21 -234 -21 -270 -8 -26 10 -78 16 -150 16 -126
1 -196 -17 -237 -62 l-25 -27 8 -1225 c24 -3788 56 -5732 99 -5925 6 -25 20
-50 39 -66 17 -14 31 -32 31 -40 0 -27 46 -60 110 -80 56 -17 104 -19 528 -24
257 -3 3630 -10 7497 -16 7028 -11 8395 -8 8810 22 77 5 194 13 260 18 97 6
131 12 177 33 68 31 93 64 83 108 -4 18 -2 84 4 148 31 315 194 3341 256 4732
66 1488 72 2276 20 2356 -8 13 -24 25 -35 29 -21 7 -21 7 4 32 15 14 26 34 26
43 0 29 -46 65 -107 84 -69 22 -376 35 -842 36 l-293 0 6 22 c7 27 22 371 36
838 21 661 76 1382 200 2630 107 1076 124 1312 117 1670 -6 343 -22 396 -132
453 -55 28 -71 31 -200 38 -77 5 -386 11 -687 15 l-548 7 0 186 c0 211 13 564
35 981 20 383 41 864 65 1520 11 300 29 750 40 1000 11 250 24 597 30 770 13
424 17 468 41 493 40 43 17 93 -59 125 -90 39 -174 45 -522 38 -179 -3 -739
-13 -1245 -21 -806 -13 -1915 -32 -3685 -64 -278 -5 -506 -8 -508 -6 -2 1 115
96 260 211 504 398 847 721 1099 1035 169 209 415 563 513 736 176 311 231
622 160 897 -57 219 -232 473 -423 615 -230 171 -452 230 -786 210z m4939
-3911 c-8 -100 -44 -664 -79 -1258 -20 -327 -46 -764 -60 -970 -32 -484 -70
-1150 -90 -1555 -16 -335 -34 -579 -60 -853 -16 -167 -15 -193 13 -225 8 -9
20 -27 26 -40 16 -31 53 -46 143 -57 123 -15 605 -30 997 -30 l359 0 -7 -37
c-3 -21 -20 -148 -36 -283 -17 -135 -33 -264 -36 -287 -4 -34 -10 -44 -27 -48
-279 -62 -369 -83 -512 -121 -93 -25 -296 -88 -450 -140 -517 -175 -582 -182
-841 -93 -159 55 -333 137 -679 322 -567 304 -772 374 -1116 385 -230 6 -406
-17 -709 -93 -296 -74 -920 -268 -1236 -384 -489 -178 -716 -237 -1021 -263
-269 -23 -465 21 -1015 228 -255 96 -353 128 -503 165 -211 51 -312 62 -564
57 -206 -5 -240 -8 -381 -37 -334 -70 -702 -171 -1075 -296 -288 -97 -401
-130 -627 -185 -357 -86 -597 -115 -900 -107 -273 7 -442 39 -858 165 -344
105 -429 120 -695 128 -291 9 -463 -12 -674 -82 -125 -41 -326 -138 -475 -228
-60 -36 -111 -66 -114 -66 -5 0 7 1190 14 1328 l6 112 76 0 c84 0 424 20 784
46 208 15 228 15 249 0 16 -11 45 -16 92 -16 59 0 71 3 92 25 14 13 25 29 25
34 0 6 14 18 31 26 79 41 92 95 33 143 -30 25 -35 34 -30 58 27 130 97 1400
156 2819 39 954 58 1324 76 1527 l6 67 381 -6 c370 -5 1727 7 2912 27 972 17
2248 39 3080 55 435 8 1292 24 1905 35 613 11 1462 27 1885 35 933 19 997 20
1297 23 l237 2 -5 -52z m-2334 -5455 c167 -33 368 -118 670 -285 412 -228 591
-315 789 -382 198 -68 269 -80 466 -81 249 0 354 27 820 205 261 101 726 244
739 229 4 -5 -10 -139 -94 -914 -109 -998 -146 -1399 -194 -2105 -48 -691 -74
-1479 -57 -1686 10 -124 12 -130 41 -156 44 -41 87 -47 300 -46 107 0 274 -4
370 -10 96 -6 302 -14 458 -18 253 -6 282 -9 276 -23 -15 -37 -45 -209 -69
-391 -14 -107 -28 -210 -31 -228 l-5 -33 -107 8 c-59 4 -208 8 -332 8 -212 -1
-231 -2 -325 -27 -226 -61 -352 -112 -725 -293 -316 -153 -431 -198 -562 -221
-259 -45 -512 57 -1243 501 -477 290 -662 360 -985 372 -334 12 -600 -55
-1580 -397 -217 -76 -512 -181 -655 -233 -503 -184 -754 -237 -1013 -216 -269
23 -407 78 -1112 449 -620 326 -938 476 -1130 534 -335 100 -732 84 -1135 -45
-257 -82 -560 -225 -1000 -474 -283 -159 -776 -409 -975 -494 -456 -194 -793
-240 -1168 -160 -356 76 -567 162 -932 380 -337 201 -570 304 -794 350 -135
28 -406 23 -531 -10 -264 -70 -477 -173 -657 -320 l-88 -71 0 278 c0 153 -3
347 -7 430 l-6 152 299 0 c355 0 944 17 1064 30 139 15 207 44 239 102 21 36
2 69 -55 100 -29 15 -42 28 -39 38 13 44 38 499 55 975 22 642 50 2239 50
2886 l0 276 127 76 c231 138 519 265 696 307 191 45 442 44 642 -5 55 -13 192
-54 304 -90 590 -191 963 -237 1496 -184 320 31 745 132 1205 285 435 145 850
261 1121 313 315 60 500 30 1029 -167 619 -230 773 -267 1135 -266 401 0 691
59 1183 240 502 185 1056 366 1352 443 351 91 484 103 680 64z m-5557 -5524
c176 -35 394 -132 912 -403 924 -485 1047 -540 1345 -603 122 -26 552 -26 690
0 219 42 424 104 790 239 326 121 1099 391 1283 447 356 110 593 158 722 146
157 -14 315 -67 489 -163 45 -24 180 -106 301 -182 258 -161 401 -243 580
-332 338 -169 566 -229 813 -214 241 15 392 63 746 238 408 202 575 271 761
314 75 17 301 21 493 8 l103 -7 -5 -46 c-16 -126 -83 -885 -126 -1431 -91
-1163 -301 -4259 -326 -4813 -4 -81 -10 -150 -14 -152 -4 -2 -155 0 -336 5
-781 23 -2434 30 -9144 41 -3913 6 -7116 12 -7118 13 -1 2 2 124 8 272 19 487
31 2517 24 4096 l-7 1537 110 109 c168 167 375 293 609 371 366 122 583 70
1177 -286 270 -161 415 -231 636 -303 319 -105 528 -143 806 -143 464 -1 769
91 1490 448 160 79 400 205 535 280 299 167 598 314 785 388 337 133 627 175
868 126z"/>
<path d="M9155 17676 c-201 -38 -414 -186 -537 -372 -88 -135 -147 -269 -218
-501 l-47 -152 -42 57 c-23 31 -73 119 -112 194 -40 77 -84 148 -100 162 -51
43 -151 46 -217 6 -41 -25 -56 -81 -49 -180 14 -205 152 -414 350 -530 42 -25
77 -49 77 -55 0 -29 -193 -666 -247 -815 -19 -52 -60 -155 -91 -228 -42 -100
-60 -132 -72 -129 -159 46 -182 50 -315 54 -107 4 -156 1 -210 -11 -166 -39
-301 -139 -366 -272 -32 -65 -34 -74 -34 -179 0 -98 3 -116 26 -166 34 -71 87
-125 158 -158 49 -22 72 -26 182 -29 148 -5 212 8 334 67 126 60 229 147 346
290 l37 44 118 -50 c166 -71 302 -117 436 -147 240 -54 679 -26 886 56 51 20
56 20 105 5 143 -44 341 -47 490 -8 159 42 349 150 485 277 l73 66 -8 -43 c-4
-24 -8 -100 -8 -169 1 -184 27 -274 103 -342 96 -87 297 -99 448 -28 34 17 93
59 133 96 73 68 260 314 421 554 l84 125 23 -53 c30 -69 87 -232 82 -235 -2
-2 -33 -15 -69 -30 -179 -74 -354 -274 -391 -447 -25 -115 14 -255 88 -320 65
-58 115 -73 250 -78 147 -5 225 14 322 79 228 152 320 437 235 730 -4 13 7 18
55 23 90 10 194 42 284 88 177 88 267 170 267 241 0 29 -16 37 -75 37 -39 0
-48 -5 -101 -58 -73 -71 -195 -133 -331 -168 -137 -35 -140 -34 -166 29 -11
28 -73 158 -138 287 -147 297 -211 455 -203 498 5 24 2 33 -9 38 -18 7 -48
124 -50 200 -1 27 -6 52 -12 56 -5 4 -31 8 -57 8 -78 0 -129 -64 -152 -192 -6
-33 -10 -38 -34 -37 -40 0 -400 63 -407 71 -4 3 10 48 30 100 61 152 235 650
241 689 8 50 -20 69 -100 69 -57 0 -61 -2 -102 -44 -55 -58 -205 -357 -303
-606 -40 -102 -77 -189 -82 -194 -5 -6 -39 -13 -77 -17 -37 -4 -84 -10 -104
-14 l-36 -7 -12 51 c-35 145 -168 220 -370 208 -206 -12 -411 -125 -615 -338
-163 -170 -268 -364 -336 -619 -33 -123 -34 -314 -2 -383 l22 -48 -34 -14
c-62 -26 -208 -46 -345 -46 -157 -1 -229 16 -434 102 -148 63 -379 177 -374
187 2 4 29 59 60 122 102 209 193 461 317 885 l59 200 123 6 c246 13 429 84
591 229 131 117 264 342 314 535 23 85 27 122 28 250 1 165 -10 229 -52 308
-30 56 -91 103 -160 123 -68 21 -197 25 -277 10z m197 -143 c45 -43 63 -112
62 -243 0 -135 -18 -217 -74 -337 -104 -225 -309 -432 -498 -504 -97 -37 -192
-38 -192 -3 0 24 105 416 134 502 71 208 149 353 246 455 73 78 132 122 199
148 54 22 86 17 123 -18z m1018 -1499 c22 -22 25 -33 25 -97 0 -64 -5 -80 -39
-145 -63 -117 -249 -303 -421 -419 -101 -69 -255 -147 -255 -130 0 35 60 248
90 319 80 194 242 373 414 460 108 55 141 57 186 12z m440 -264 c0 -5 -13 -46
-30 -90 -46 -126 -233 -402 -368 -541 -175 -181 -392 -327 -533 -359 -50 -11
-60 -10 -102 8 -29 13 -54 34 -71 59 -24 37 -46 126 -46 189 0 31 2 33 73 54
112 34 345 127 414 166 94 52 210 143 289 225 83 87 124 145 166 234 l30 65
89 0 c51 0 89 -4 89 -10z m400 -45 c41 -8 150 -18 241 -21 l166 -7 11 -71 c6
-39 22 -109 36 -156 l24 -85 -56 -85 c-75 -113 -283 -389 -394 -522 -84 -102
-202 -219 -241 -239 -24 -13 -35 19 -48 142 -20 201 23 510 142 1007 14 59 11
58 119 37z m-3594 -756 c142 -62 137 -51 65 -157 -107 -156 -294 -312 -374
-312 -34 0 -81 48 -102 105 -26 68 -17 175 21 245 32 60 115 131 179 155 55
20 103 11 211 -36z m4321 -340 c9 -154 -25 -276 -105 -381 -63 -83 -74 -89
-108 -58 -65 60 -84 185 -45 290 12 30 41 81 66 113 52 65 163 153 177 139 5
-5 12 -52 15 -103z"/>
<path d="M17096 16750 c-15 -5 -37 -17 -49 -27 -53 -46 -299 -454 -459 -758
l-73 -140 -140 -7 c-141 -7 -211 -22 -247 -55 -53 -48 16 -101 152 -117 25 -3
66 -8 92 -11 l47 -6 -21 -47 c-11 -26 -51 -123 -89 -216 -57 -141 -85 -193
-165 -313 -90 -135 -209 -287 -268 -342 l-26 -24 0 92 c0 109 19 248 62 451
48 229 31 353 -60 444 -94 94 -217 131 -409 124 -138 -6 -234 -33 -348 -100
-87 -51 -230 -193 -309 -306 -80 -114 -212 -260 -470 -517 -173 -173 -234
-228 -282 -253 -75 -39 -93 -40 -127 -4 -54 56 -71 115 -72 245 l0 119 91 23
c368 93 693 348 863 675 52 98 66 192 38 247 -47 90 -143 128 -317 127 -101
-1 -126 -5 -210 -33 -237 -80 -484 -274 -634 -499 -166 -249 -264 -567 -235
-767 23 -163 136 -278 311 -320 83 -19 257 -19 333 0 143 37 220 89 358 239
l97 106 0 -58 c0 -129 58 -226 163 -273 46 -21 66 -24 187 -24 123 0 140 2
198 26 114 49 176 93 300 215 l122 121 0 -41 c0 -70 27 -143 69 -185 50 -50
114 -71 216 -71 124 0 173 19 291 111 8 7 10 -5 6 -40 -14 -150 89 -270 259
-301 154 -28 301 23 428 150 83 83 298 414 402 620 69 136 71 145 50 164 -18
16 -103 22 -136 10 -9 -4 -66 -81 -127 -173 -245 -367 -427 -601 -467 -601
-55 0 75 548 234 991 l68 186 126 6 c69 4 183 7 252 7 194 0 292 25 306 78 8
32 -21 60 -81 77 -51 15 -346 45 -443 45 -28 0 -55 5 -58 10 -9 15 154 384
282 637 62 123 113 230 113 238 0 38 -125 67 -194 45z m-2538 -816 c45 -31 22
-100 -79 -234 -78 -103 -224 -251 -341 -345 -92 -74 -255 -181 -263 -173 -8 7
42 173 75 251 97 230 288 427 481 497 66 24 98 25 127 4z m1017 -283 c56 -25
110 -89 131 -154 l17 -54 -45 -69 c-93 -144 -326 -443 -413 -530 -89 -88 -202
-176 -278 -216 -22 -10 -41 -17 -43 -15 -13 13 -15 117 -4 184 50 316 244 696
416 814 86 59 151 71 219 40z"/>
<path d="M11676 16547 c-37 -37 -62 -227 -34 -255 17 -17 94 -15 112 3 9 9 20
35 27 58 6 23 20 73 31 111 l21 69 -23 19 c-33 27 -105 24 -134 -5z"/>
<path d="M8238 12505 c-452 -102 -875 -539 -1177 -1216 -218 -491 -341 -969
-382 -1484 -19 -251 3 -480 65 -667 64 -191 165 -312 327 -392 142 -70 195
-81 389 -81 165 0 165 0 274 38 141 49 245 103 381 201 130 93 361 271 461
356 l72 60 6 -54 c15 -118 100 -237 207 -289 106 -52 277 -65 381 -28 121 42
266 168 408 355 l75 99 6 -114 c8 -162 36 -217 136 -265 52 -25 69 -28 168
-28 104 -1 113 1 175 31 81 40 171 108 306 230 90 81 104 91 98 66 -4 -15 -8
-89 -8 -163 -1 -115 2 -140 17 -163 48 -74 253 -99 319 -40 9 8 69 99 133 202
218 350 408 603 604 805 181 184 370 329 488 370 43 15 43 15 49 -10 13 -50
-3 -158 -35 -239 -87 -224 -256 -412 -468 -519 -43 -21 -66 -26 -131 -26 -163
0 -203 -35 -222 -199 -21 -168 16 -296 111 -390 157 -155 450 -203 683 -113
126 49 245 144 339 271 l40 54 14 -43 c54 -160 204 -256 430 -275 154 -13 273
29 499 178 260 170 477 361 568 499 41 61 40 81 -6 97 -77 27 -90 20 -221
-107 -136 -131 -255 -224 -441 -343 -144 -92 -273 -156 -332 -165 -41 -6 -42
-5 -67 37 -36 62 -48 127 -48 256 0 134 6 163 33 163 39 0 176 32 275 65 266
89 455 226 593 431 105 154 127 238 90 337 -40 105 -152 193 -279 217 -193 36
-391 -11 -556 -132 -160 -118 -378 -429 -482 -687 -39 -96 -53 -118 -170 -261
-184 -224 -340 -378 -426 -420 -37 -18 -89 -35 -115 -38 -47 -4 -49 -3 -90 43
-22 25 -48 68 -56 93 -19 57 -36 168 -36 238 l0 51 56 7 c237 28 528 275 659
559 57 124 78 207 74 296 -4 71 -7 83 -35 118 -85 106 -285 141 -466 82 -184
-61 -376 -197 -593 -420 -124 -127 -232 -255 -321 -378 -40 -55 -60 -76 -62
-64 -1 10 8 77 21 150 l24 131 140 189 c347 466 689 998 868 1348 153 300 199
437 200 595 0 85 -3 100 -27 140 -39 67 -92 93 -198 98 -140 6 -226 -36 -386
-193 -212 -209 -396 -506 -584 -945 -149 -347 -270 -736 -355 -1138 -19 -92
-38 -177 -40 -189 -5 -23 -175 -229 -288 -350 -116 -124 -350 -312 -389 -313
-3 0 -14 20 -24 45 -39 104 -1 347 108 673 32 98 48 131 73 153 49 45 70 127
70 274 0 112 -2 124 -29 180 -144 293 -603 352 -900 116 -124 -100 -270 -269
-371 -432 -71 -115 -174 -321 -209 -417 -22 -62 -35 -82 -83 -125 -228 -209
-736 -583 -908 -670 -82 -40 -212 -83 -283 -93 -92 -12 -179 51 -241 173 -136
271 -145 780 -25 1408 109 569 342 1142 616 1514 190 258 451 445 640 459 61
4 72 2 107 -21 150 -99 184 -357 95 -716 -51 -207 -191 -511 -332 -726 l-73
-110 25 -22 c36 -31 119 -40 174 -18 92 37 271 268 391 503 124 246 173 428
174 652 1 97 -4 153 -16 197 -51 190 -185 328 -368 379 -80 22 -298 27 -381 9z
m3823 -392 c17 -44 4 -169 -27 -263 -76 -230 -340 -690 -665 -1160 -173 -251
-184 -267 -176 -235 159 592 358 1101 536 1368 76 113 198 246 266 290 51 33
53 33 66 0z m-2180 -1564 c87 -44 141 -142 147 -270 l4 -85 -40 -12 c-38 -12
-53 -29 -204 -240 -90 -125 -217 -294 -282 -377 -118 -148 -320 -360 -383
-404 l-33 -22 -12 28 c-20 49 -22 209 -3 308 83 447 446 1028 682 1091 52 13
69 11 124 -17z m3747 -219 c29 -43 28 -98 -3 -159 -53 -106 -220 -286 -329
-356 -90 -57 -292 -152 -302 -142 -2 2 14 49 35 104 130 332 319 561 497 602
46 10 69 -1 102 -49z"/>
<path d="M17018 12104 c-116 -28 -221 -98 -353 -235 -226 -235 -397 -509 -446
-715 -18 -76 -20 -109 -16 -224 6 -153 23 -225 87 -358 22 -46 40 -87 40 -90
0 -4 -27 -5 -60 -4 -190 11 -441 -69 -629 -201 -237 -166 -409 -458 -466 -791
-59 -347 71 -578 394 -696 128 -47 242 -64 436 -64 253 -1 428 41 660 155 204
100 401 261 530 433 72 96 248 402 346 604 44 89 81 162 82 163 1 1 100 4 219
8 210 6 218 7 240 29 l23 23 -27 24 c-15 13 -46 26 -70 30 -24 4 -122 23 -218
43 -167 34 -184 36 -375 36 -184 0 -208 -2 -300 -27 -106 -28 -268 -103 -347
-162 -41 -30 -48 -40 -48 -69 0 -40 17 -57 90 -90 113 -52 283 -44 425 19 32
14 59 24 61 22 4 -4 -171 -277 -242 -379 -90 -127 -195 -249 -269 -312 -242
-206 -543 -326 -813 -326 -106 0 -159 22 -201 84 -54 78 -66 135 -65 296 1
127 5 159 31 260 88 336 261 568 512 688 71 34 81 36 195 40 134 3 187 19 205
58 16 37 15 46 -33 235 -67 265 -79 402 -51 576 57 352 366 784 587 819 31 5
41 1 76 -31 62 -55 94 -131 100 -236 6 -113 -7 -169 -73 -304 -50 -101 -104
-179 -265 -383 -28 -35 -50 -73 -50 -86 0 -46 74 -84 181 -93 97 -8 145 12
231 99 180 183 291 429 273 610 -21 219 -134 417 -278 487 -100 49 -221 62
-329 35z"/>
<path d="M9135 5706 c-159 -51 -347 -201 -488 -390 -277 -375 -537 -1095 -653
-1809 l-17 -109 -121 -111 c-311 -285 -684 -534 -924 -616 -84 -29 -113 -27
-151 8 -76 71 -107 220 -90 430 5 62 11 117 15 122 3 5 40 9 82 9 433 0 916
292 1014 613 67 222 -89 370 -387 370 -186 -1 -327 -53 -505 -187 -248 -186
-420 -457 -496 -780 l-18 -78 -86 -75 c-266 -235 -760 -598 -977 -720 -87 -48
-184 -83 -232 -83 -106 0 -196 153 -232 395 -17 114 -18 473 -1 620 81 702
299 1279 656 1730 196 247 460 453 636 495 44 11 54 10 87 -7 156 -81 207
-400 120 -745 -20 -75 -56 -188 -81 -250 -25 -63 -46 -119 -46 -125 0 -39 121
-58 179 -28 52 26 120 117 181 240 106 214 146 381 137 570 -12 273 -126 430
-354 489 -91 24 -288 21 -389 -4 -456 -116 -976 -670 -1264 -1345 -104 -244
-201 -594 -244 -885 -66 -437 -39 -797 75 -1030 73 -147 183 -231 352 -267 89
-19 293 -12 382 12 94 26 230 94 355 179 151 103 465 340 610 460 l115 96 7
-53 c30 -233 202 -357 478 -344 228 10 492 137 815 393 61 48 142 116 181 151
40 34 74 63 75 63 2 0 4 -73 4 -162 1 -138 4 -175 24 -243 37 -132 103 -224
191 -270 86 -45 322 -59 468 -29 148 30 306 125 363 218 l18 30 145 -3 c106
-2 167 2 228 14 228 47 496 179 784 386 l91 66 12 -76 c24 -144 100 -298 174
-355 87 -67 219 -96 350 -78 179 25 337 144 459 343 32 52 61 99 65 106 5 7
42 19 83 27 44 9 112 34 165 60 241 121 454 348 630 674 27 51 52 92 55 92 3
0 18 -23 35 -50 69 -117 208 -217 315 -228 28 -2 50 -6 50 -7 0 -2 -16 -27
-35 -57 -62 -93 -164 -303 -202 -415 -42 -127 -53 -229 -30 -284 31 -74 127
-119 256 -119 131 0 235 45 325 139 36 37 42 38 50 8 9 -37 75 -97 135 -125
47 -21 76 -26 174 -30 183 -7 289 22 442 122 95 63 170 130 278 250 l80 89 -7
-55 c-8 -64 8 -177 33 -233 71 -156 315 -211 519 -115 82 38 152 91 258 192
l81 78 6 -64 c7 -74 35 -154 71 -201 15 -19 54 -48 92 -66 57 -28 78 -33 167
-37 172 -7 277 31 500 181 71 48 130 87 132 87 2 0 6 -22 10 -49 15 -112 86
-209 184 -255 40 -18 65 -21 186 -21 138 0 141 0 210 34 60 29 94 58 235 200
224 224 414 454 485 585 34 63 27 81 -32 92 -69 13 -101 -7 -199 -123 -217
-258 -500 -542 -615 -618 l-54 -36 -17 22 c-10 11 -23 40 -30 62 -16 56 -15
244 1 335 l13 73 172 172 c374 373 598 727 534 847 -19 36 -73 68 -126 76
-113 17 -257 -36 -385 -141 -224 -185 -484 -633 -549 -945 l-12 -62 -111 -73
c-156 -104 -412 -248 -424 -240 -32 19 5 281 85 600 32 129 124 438 132 446 4
4 70 12 147 18 235 20 300 41 293 100 -6 48 -61 64 -231 69 -145 4 -147 5
-141 26 4 11 47 131 96 266 178 488 173 470 150 493 -29 28 -107 33 -151 10
-29 -15 -55 -56 -173 -273 -77 -140 -169 -311 -206 -380 -36 -69 -70 -128 -75
-131 -4 -3 -59 -9 -120 -13 -220 -13 -302 -41 -302 -101 0 -26 7 -33 48 -54
40 -19 69 -25 163 -29 63 -3 114 -5 114 -6 0 -1 -35 -88 -79 -194 -105 -257
-201 -404 -375 -577 -113 -112 -282 -245 -312 -245 -41 0 -50 203 -19 410 21
141 68 331 94 379 81 153 81 152 81 218 0 82 -25 136 -94 201 -101 95 -209
132 -389 132 -234 0 -418 -76 -649 -267 -194 -161 -344 -365 -445 -606 -36
-87 -44 -97 -185 -241 -80 -83 -149 -148 -152 -145 -9 8 23 202 50 305 13 52
46 155 74 230 27 75 50 148 50 164 0 40 -40 54 -136 48 -73 -5 -75 -5 -100 25
-30 36 -108 190 -154 305 -39 100 -61 129 -114 153 -52 24 -170 25 -225 3 -47
-19 -63 -42 -184 -270 -47 -88 -106 -194 -132 -235 -128 -200 -287 -364 -459
-473 -28 -18 -29 -18 -23 0 132 399 140 644 24 726 -26 18 -49 24 -114 27
-110 4 -169 -22 -263 -118 -98 -100 -186 -263 -220 -410 -41 -175 34 -330 187
-387 26 -10 50 -19 52 -21 10 -8 -113 -174 -166 -224 -69 -66 -144 -112 -175
-107 -31 4 -83 83 -107 163 -29 92 -41 199 -41 351 l0 135 120 125 c260 272
422 488 589 787 321 573 454 1023 361 1220 -52 111 -200 146 -367 87 -194 -68
-400 -304 -582 -669 -195 -388 -401 -1065 -443 -1456 l-13 -120 -127 -95
c-152 -114 -292 -203 -454 -287 -128 -66 -331 -140 -413 -150 -44 -5 -50 -3
-65 19 -25 38 -37 133 -30 226 6 72 9 82 26 82 80 0 348 81 491 149 245 117
447 310 561 538 72 143 86 316 33 405 -101 173 -341 216 -592 108 -100 -43
-247 -151 -360 -264 -225 -225 -371 -469 -481 -804 -78 -234 -92 -398 -44
-492 l22 -42 -44 -57 c-81 -103 -200 -166 -305 -159 -41 3 -50 7 -70 36 -91
137 -102 357 -42 850 l12 94 124 141 c507 576 907 1193 1049 1617 37 111 39
212 6 285 -30 65 -56 93 -117 121 -42 20 -65 24 -145 23 -52 0 -113 -6 -135
-13z m179 -119 c30 -40 29 -158 -3 -247 -92 -262 -306 -646 -571 -1025 -120
-171 -319 -429 -326 -422 -2 2 7 59 21 126 79 390 223 837 351 1094 100 198
229 362 356 448 99 68 137 73 172 26z m2152 -69 c25 -48 29 -158 10 -261 -71
-377 -433 -1040 -784 -1435 -36 -40 -66 -71 -68 -69 -5 5 56 281 106 472 120
464 267 838 427 1084 88 135 205 239 270 241 15 0 28 -10 39 -32z m-1514
-1218 c81 -63 60 -217 -54 -384 -148 -219 -330 -375 -597 -514 -128 -66 -127
-67 -76 103 66 218 140 363 266 519 103 128 221 220 347 272 70 29 83 29 114
4z m6918 -74 c0 -60 -62 -173 -181 -332 -80 -106 -239 -288 -246 -280 -7 7 71
187 124 286 83 155 166 262 247 322 47 34 56 35 56 4z m-2600 -126 c79 -40
140 -110 140 -160 0 -72 -569 -713 -766 -862 -63 -48 -173 -118 -186 -118 -15
0 -8 97 13 175 11 44 41 131 66 195 103 260 194 403 372 581 122 122 182 168
259 195 50 18 57 17 102 -6z m-6820 -10 c10 -5 23 -24 29 -41 46 -134 -212
-413 -513 -554 -98 -46 -202 -82 -211 -73 -10 10 52 159 102 245 66 113 147
209 246 288 145 116 282 170 347 135z m3843 -194 c26 -66 15 -189 -29 -336
-31 -103 -116 -320 -125 -320 -14 0 -40 52 -55 111 -35 137 37 387 146 512 44
50 55 55 63 33z"/>
<path d="M18909 5663 c-59 -53 -132 -153 -316 -428 -251 -378 -450 -709 -577
-962 -68 -136 -287 -638 -316 -723 -23 -70 -18 -90 30 -110 44 -18 153 -9 187
16 46 34 93 104 261 383 219 365 264 447 585 1076 355 697 372 736 326 769
-15 10 -44 16 -81 16 -53 0 -62 -3 -99 -37z"/>
<path d="M17524 3100 c-65 -32 -102 -77 -110 -131 -6 -43 12 -77 55 -106 47
-31 147 -32 201 -2 74 42 122 197 76 248 -16 18 -31 21 -91 21 -60 0 -82 -5
-131 -30z"/>
</g>
</svg>
