<?xml version="1.0" encoding="utf-8"?>
<!-- Generator: Adobe Illustrator 25.0.1, SVG Export Plug-In . SVG Version: 6.00 Build 0)  -->
<svg version="1.1" id="Layer_1" xmlns="http://www.w3.org/2000/svg" xmlns:xlink="http://www.w3.org/1999/xlink" x="0px" y="0px"
	 viewBox="0 0 2400 2400" style="enable-background:new 0 0 2400 2400;" xml:space="preserve">
<g>
	<path transform="translate(0.000000,2400.000000) scale(0.100000,-0.100000)" d="M13275,23049c-288-18-601-148-843-351
		c-207-174-463-514-609-809c-32-65-61-118-64-119c-4,0-60,66-125,148c-428,531-850,782-1318,782c-124,0-198-11-296-42
		c-246-79-442-260-513-475c-92-279-38-591,178-1028c168-342,390-643,699-950c245-243,487-433,890-699l260-171l-50-7
		c-27-4-479-14-1004-23c-1871-31-3339-72-3835-105c-77-6-201-10-275-10c-148,0-196-9-236-44l-27-22l2-165c2-187-10-622-39-1374
		c-42-1113-69-2049-74-2595l-4-385l-44-3c-79-5-670-72-854-97l-182-25l-43,24c-115,65-341,52-413-23l-27-28l1-1934
		c0-2220,14-3244,50-3774c6-77,10-154,10-171v-31l-107-7c-266-17-697-50-908-70c-209-21-234-21-270-8c-26,10-78,16-150,16
		c-126,1-196-17-237-62l-25-27l8-1225c24-3788,56-5732,99-5925c6-25,20-50,39-66c17-14,31-32,31-40c0-27,46-60,110-80
		c56-17,104-19,528-24c257-3,3630-10,7497-16c7028-11,8395-8,8810,22c77,5,194,13,260,18c97,6,131,12,177,33c68,31,93,64,83,108
		c-4,18-2,84,4,148c31,315,194,3341,256,4732c66,1488,72,2276,20,2356c-8,13-24,25-35,29c-21,7-21,7,4,32c15,14,26,34,26,43
		c0,29-46,65-107,84c-69,22-376,35-842,36h-293l6,22c7,27,22,371,36,838c21,661,76,1382,200,2630c107,1076,124,1312,117,1670
		c-6,343-22,396-132,453c-55,28-71,31-200,38c-77,5-386,11-687,15l-548,7v186c0,211,13,564,35,981c20,383,41,864,65,1520
		c11,300,29,750,40,1000s24,597,30,770c13,424,17,468,41,493c40,43,17,93-59,125c-90,39-174,45-522,38c-179-3-739-13-1245-21
		c-806-13-1915-32-3685-64c-278-5-506-8-508-6c-2,1,115,96,260,211c504,398,847,721,1099,1035c169,209,415,563,513,736
		c176,311,231,622,160,897c-57,219-232,473-423,615C13831,23010,13609,23069,13275,23049z M18214,19138c-8-100-44-664-79-1258
		c-20-327-46-764-60-970c-32-484-70-1150-90-1555c-16-335-34-579-60-853c-16-167-15-193,13-225c8-9,20-27,26-40c16-31,53-46,143-57
		c123-15,605-30,997-30h359l-7-37c-3-21-20-148-36-283c-17-135-33-264-36-287c-4-34-10-44-27-48c-279-62-369-83-512-121
		c-93-25-296-88-450-140c-517-175-582-182-841-93c-159,55-333,137-679,322c-567,304-772,374-1116,385c-230,6-406-17-709-93
		c-296-74-920-268-1236-384c-489-178-716-237-1021-263c-269-23-465,21-1015,228c-255,96-353,128-503,165c-211,51-312,62-564,57
		c-206-5-240-8-381-37c-334-70-702-171-1075-296c-288-97-401-130-627-185c-357-86-597-115-900-107c-273,7-442,39-858,165
		c-344,105-429,120-695,128c-291,9-463-12-674-82c-125-41-326-138-475-228c-60-36-111-66-114-66c-5,0,7,1190,14,1328l6,112h76
		c84,0,424,20,784,46c208,15,228,15,249,0c16-11,45-16,92-16c59,0,71,3,92,25c14,13,25,29,25,34c0,6,14,18,31,26c79,41,92,95,33,143
		c-30,25-35,34-30,58c27,130,97,1400,156,2819c39,954,58,1324,76,1527l6,67l381-6c370-5,1727,7,2912,27c972,17,2248,39,3080,55
		c435,8,1292,24,1905,35s1462,27,1885,35c933,19,997,20,1297,23l237,2L18214,19138z M15880,13683c167-33,368-118,670-285
		c412-228,591-315,789-382c198-68,269-80,466-81c249,0,354,27,820,205c261,101,726,244,739,229c4-5-10-139-94-914
		c-109-998-146-1399-194-2105c-48-691-74-1479-57-1686c10-124,12-130,41-156c44-41,87-47,300-46c107,0,274-4,370-10s302-14,458-18
		c253-6,282-9,276-23c-15-37-45-209-69-391c-14-107-28-210-31-228l-5-33l-107,8c-59,4-208,8-332,8c-212-1-231-2-325-27
		c-226-61-352-112-725-293c-316-153-431-198-562-221c-259-45-512,57-1243,501c-477,290-662,360-985,372c-334,12-600-55-1580-397
		c-217-76-512-181-655-233c-503-184-754-237-1013-216c-269,23-407,78-1112,449c-620,326-938,476-1130,534c-335,100-732,84-1135-45
		c-257-82-560-225-1000-474c-283-159-776-409-975-494c-456-194-793-240-1168-160c-356,76-567,162-932,380c-337,201-570,304-794,350
		c-135,28-406,23-531-10c-264-70-477-173-657-320l-88-71v278c0,153-3,347-7,430l-6,152h299c355,0,944,17,1064,30
		c139,15,207,44,239,102c21,36,2,69-55,100c-29,15-42,28-39,38c13,44,38,499,55,975c22,642,50,2239,50,2886v276l127,76
		c231,138,519,265,696,307c191,45,442,44,642-5c55-13,192-54,304-90c590-191,963-237,1496-184c320,31,745,132,1205,285
		c435,145,850,261,1121,313c315,60,500,30,1029-167c619-230,773-267,1135-266c401,0,691,59,1183,240c502,185,1056,366,1352,443
		C15551,13710,15684,13722,15880,13683z M10323,8159c176-35,394-132,912-403c924-485,1047-540,1345-603c122-26,552-26,690,0
		c219,42,424,104,790,239c326,121,1099,391,1283,447c356,110,593,158,722,146c157-14,315-67,489-163c45-24,180-106,301-182
		c258-161,401-243,580-332c338-169,566-229,813-214c241,15,392,63,746,238c408,202,575,271,761,314c75,17,301,21,493,8l103-7l-5-46
		c-16-126-83-885-126-1431c-91-1163-301-4259-326-4813c-4-81-10-150-14-152s-155,0-336,5c-781,23-2434,30-9144,41
		c-3913,6-7116,12-7118,13c-1,2,2,124,8,272c19,487,31,2517,24,4096l-7,1537l110,109c168,167,375,293,609,371
		c366,122,583,70,1177-286c270-161,415-231,636-303c319-105,528-143,806-143c464-1,769,91,1490,448c160,79,400,205,535,280
		c299,167,598,314,785,388C9792,8166,10082,8208,10323,8159z M9155,17676c-201-38-414-186-537-372c-88-135-147-269-218-501l-47-152
		l-42,57c-23,31-73,119-112,194c-40,77-84,148-100,162c-51,43-151,46-217,6c-41-25-56-81-49-180c14-205,152-414,350-530
		c42-25,77-49,77-55c0-29-193-666-247-815c-19-52-60-155-91-228c-42-100-60-132-72-129c-159,46-182,50-315,54c-107,4-156,1-210-11
		c-166-39-301-139-366-272c-32-65-34-74-34-179c0-98,3-116,26-166c34-71,87-125,158-158c49-22,72-26,182-29c148-5,212,8,334,67
		c126,60,229,147,346,290l37,44l118-50c166-71,302-117,436-147c240-54,679-26,886,56c51,20,56,20,105,5c143-44,341-47,490-8
		c159,42,349,150,485,277l73,66l-8-43c-4-24-8-100-8-169c1-184,27-274,103-342c96-87,297-99,448-28c34,17,93,59,133,96
		c73,68,260,314,421,554l84,125l23-53c30-69,87-232,82-235c-2-2-33-15-69-30c-179-74-354-274-391-447c-25-115,14-255,88-320
		c65-58,115-73,250-78c147-5,225,14,322,79c228,152,320,437,235,730c-4,13,7,18,55,23c90,10,194,42,284,88c177,88,267,170,267,241
		c0,29-16,37-75,37c-39,0-48-5-101-58c-73-71-195-133-331-168c-137-35-140-34-166,29c-11,28-73,158-138,287
		c-147,297-211,455-203,498c5,24,2,33-9,38c-18,7-48,124-50,200c-1,27-6,52-12,56c-5,4-31,8-57,8c-78,0-129-64-152-192
		c-6-33-10-38-34-37c-40,0-400,63-407,71c-4,3,10,48,30,100c61,152,235,650,241,689c8,50-20,69-100,69c-57,0-61-2-102-44
		c-55-58-205-357-303-606c-40-102-77-189-82-194c-5-6-39-13-77-17c-37-4-84-10-104-14l-36-7l-12,51c-35,145-168,220-370,208
		c-206-12-411-125-615-338c-163-170-268-364-336-619c-33-123-34-314-2-383l22-48l-34-14c-62-26-208-46-345-46c-157-1-229,16-434,102
		c-148,63-379,177-374,187c2,4,29,59,60,122c102,209,193,461,317,885l59,200l123,6c246,13,429,84,591,229c131,117,264,342,314,535
		c23,85,27,122,28,250c1,165-10,229-52,308c-30,56-91,103-160,123C9364,17687,9235,17691,9155,17676z M9352,17533
		c45-43,63-112,62-243c0-135-18-217-74-337c-104-225-309-432-498-504c-97-37-192-38-192-3c0,24,105,416,134,502
		c71,208,149,353,246,455c73,78,132,122,199,148C9283,17573,9315,17568,9352,17533z M10370,16034c22-22,25-33,25-97s-5-80-39-145
		c-63-117-249-303-421-419c-101-69-255-147-255-130c0,35,60,248,90,319c80,194,242,373,414,460C10292,16077,10325,16079,10370,16034
		z M10810,15770c0-5-13-46-30-90c-46-126-233-402-368-541c-175-181-392-327-533-359c-50-11-60-10-102,8c-29,13-54,34-71,59
		c-24,37-46,126-46,189c0,31,2,33,73,54c112,34,345,127,414,166c94,52,210,143,289,225c83,87,124,145,166,234l30,65h89
		C10772,15780,10810,15776,10810,15770z M11210,15725c41-8,150-18,241-21l166-7l11-71c6-39,22-109,36-156l24-85l-56-85
		c-75-113-283-389-394-522c-84-102-202-219-241-239c-24-13-35,19-48,142c-20,201,23,510,142,1007
		C11105,15747,11102,15746,11210,15725z M7616,14969c142-62,137-51,65-157c-107-156-294-312-374-312c-34,0-81,48-102,105
		c-26,68-17,175,21,245c32,60,115,131,179,155C7460,15025,7508,15016,7616,14969z M11937,14629c9-154-25-276-105-381
		c-63-83-74-89-108-58c-65,60-84,185-45,290c12,30,41,81,66,113c52,65,163,153,177,139C11927,14727,11934,14680,11937,14629z
		 M17096,16750c-15-5-37-17-49-27c-53-46-299-454-459-758l-73-140l-140-7c-141-7-211-22-247-55c-53-48,16-101,152-117
		c25-3,66-8,92-11l47-6l-21-47c-11-26-51-123-89-216c-57-141-85-193-165-313c-90-135-209-287-268-342l-26-24v92c0,109,19,248,62,451
		c48,229,31,353-60,444c-94,94-217,131-409,124c-138-6-234-33-348-100c-87-51-230-193-309-306c-80-114-212-260-470-517
		c-173-173-234-228-282-253c-75-39-93-40-127-4c-54,56-71,115-72,245v119l91,23c368,93,693,348,863,675c52,98,66,192,38,247
		c-47,90-143,128-317,127c-101-1-126-5-210-33c-237-80-484-274-634-499c-166-249-264-567-235-767c23-163,136-278,311-320
		c83-19,257-19,333,0c143,37,220,89,358,239l97,106v-58c0-129,58-226,163-273c46-21,66-24,187-24c123,0,140,2,198,26
		c114,49,176,93,300,215l122,121v-41c0-70,27-143,69-185c50-50,114-71,216-71c124,0,173,19,291,111c8,7,10-5,6-40
		c-14-150,89-270,259-301c154-28,301,23,428,150c83,83,298,414,402,620c69,136,71,145,50,164c-18,16-103,22-136,10
		c-9-4-66-81-127-173c-245-367-427-601-467-601c-55,0,75,548,234,991l68,186l126,6c69,4,183,7,252,7c194,0,292,25,306,78
		c8,32-21,60-81,77c-51,15-346,45-443,45c-28,0-55,5-58,10c-9,15,154,384,282,637c62,123,113,230,113,238
		C17290,16743,17165,16772,17096,16750z M14558,15934c45-31,22-100-79-234c-78-103-224-251-341-345c-92-74-255-181-263-173
		c-8,7,42,173,75,251c97,230,288,427,481,497C14497,15954,14529,15955,14558,15934z M15575,15651c56-25,110-89,131-154l17-54l-45-69
		c-93-144-326-443-413-530c-89-88-202-176-278-216c-22-10-41-17-43-15c-13,13-15,117-4,184c50,316,244,696,416,814
		C15442,15670,15507,15682,15575,15651z M11676,16547c-37-37-62-227-34-255c17-17,94-15,112,3c9,9,20,35,27,58c6,23,20,73,31,111
		l21,69l-23,19C11777,16579,11705,16576,11676,16547z M8238,12505c-452-102-875-539-1177-1216c-218-491-341-969-382-1484
		c-19-251,3-480,65-667c64-191,165-312,327-392c142-70,195-81,389-81c165,0,165,0,274,38c141,49,245,103,381,201
		c130,93,361,271,461,356l72,60l6-54c15-118,100-237,207-289c106-52,277-65,381-28c121,42,266,168,408,355l75,99l6-114
		c8-162,36-217,136-265c52-25,69-28,168-28c104-1,113,1,175,31c81,40,171,108,306,230c90,81,104,91,98,66c-4-15-8-89-8-163
		c-1-115,2-140,17-163c48-74,253-99,319-40c9,8,69,99,133,202c218,350,408,603,604,805c181,184,370,329,488,370c43,15,43,15,49-10
		c13-50-3-158-35-239c-87-224-256-412-468-519c-43-21-66-26-131-26c-163,0-203-35-222-199c-21-168,16-296,111-390
		c157-155,450-203,683-113c126,49,245,144,339,271l40,54l14-43c54-160,204-256,430-275c154-13,273,29,499,178
		c260,170,477,361,568,499c41,61,40,81-6,97c-77,27-90,20-221-107c-136-131-255-224-441-343c-144-92-273-156-332-165
		c-41-6-42-5-67,37c-36,62-48,127-48,256c0,134,6,163,33,163c39,0,176,32,275,65c266,89,455,226,593,431c105,154,127,238,90,337
		c-40,105-152,193-279,217c-193,36-391-11-556-132c-160-118-378-429-482-687c-39-96-53-118-170-261c-184-224-340-378-426-420
		c-37-18-89-35-115-38c-47-4-49-3-90,43c-22,25-48,68-56,93c-19,57-36,168-36,238v51l56,7c237,28,528,275,659,559
		c57,124,78,207,74,296c-4,71-7,83-35,118c-85,106-285,141-466,82c-184-61-376-197-593-420c-124-127-232-255-321-378
		c-40-55-60-76-62-64c-1,10,8,77,21,150l24,131l140,189c347,466,689,998,868,1348c153,300,199,437,200,595c0,85-3,100-27,140
		c-39,67-92,93-198,98c-140,6-226-36-386-193c-212-209-396-506-584-945c-149-347-270-736-355-1138c-19-92-38-177-40-189
		c-5-23-175-229-288-350c-116-124-350-312-389-313c-3,0-14,20-24,45c-39,104-1,347,108,673c32,98,48,131,73,153c49,45,70,127,70,274
		c0,112-2,124-29,180c-144,293-603,352-900,116c-124-100-270-269-371-432c-71-115-174-321-209-417c-22-62-35-82-83-125
		c-228-209-736-583-908-670c-82-40-212-83-283-93c-92-12-179,51-241,173c-136,271-145,780-25,1408c109,569,342,1142,616,1514
		c190,258,451,445,640,459c61,4,72,2,107-21c150-99,184-357,95-716c-51-207-191-511-332-726l-73-110l25-22c36-31,119-40,174-18
		c92,37,271,268,391,503c124,246,173,428,174,652c1,97-4,153-16,197c-51,190-185,328-368,379C8539,12518,8321,12523,8238,12505z
		 M12061,12113c17-44,4-169-27-263c-76-230-340-690-665-1160c-173-251-184-267-176-235c159,592,358,1101,536,1368
		c76,113,198,246,266,290C12046,12146,12048,12146,12061,12113z M9881,10549c87-44,141-142,147-270l4-85l-40-12
		c-38-12-53-29-204-240c-90-125-217-294-282-377c-118-148-320-360-383-404l-33-22l-12,28c-20,49-22,209-3,308
		c83,447,446,1028,682,1091C9809,10579,9826,10577,9881,10549z M13628,10330c29-43,28-98-3-159c-53-106-220-286-329-356
		c-90-57-292-152-302-142c-2,2,14,49,35,104c130,332,319,561,497,602C13572,10389,13595,10378,13628,10330z M17018,12104
		c-116-28-221-98-353-235c-226-235-397-509-446-715c-18-76-20-109-16-224c6-153,23-225,87-358c22-46,40-87,40-90c0-4-27-5-60-4
		c-190,11-441-69-629-201c-237-166-409-458-466-791c-59-347,71-578,394-696c128-47,242-64,436-64c253-1,428,41,660,155
		c204,100,401,261,530,433c72,96,248,402,346,604c44,89,81,162,82,163s100,4,219,8c210,6,218,7,240,29l23,23l-27,24
		c-15,13-46,26-70,30s-122,23-218,43c-167,34-184,36-375,36c-184,0-208-2-300-27c-106-28-268-103-347-162c-41-30-48-40-48-69
		c0-40,17-57,90-90c113-52,283-44,425,19c32,14,59,24,61,22c4-4-171-277-242-379c-90-127-195-249-269-312c-242-206-543-326-813-326
		c-106,0-159,22-201,84c-54,78-66,135-65,296c1,127,5,159,31,260c88,336,261,568,512,688c71,34,81,36,195,40c134,3,187,19,205,58
		c16,37,15,46-33,235c-67,265-79,402-51,576c57,352,366,784,587,819c31,5,41,1,76-31c62-55,94-131,100-236c6-113-7-169-73-304
		c-50-101-104-179-265-383c-28-35-50-73-50-86c0-46,74-84,181-93c97-8,145,12,231,99c180,183,291,429,273,610
		c-21,219-134,417-278,487C17247,12118,17126,12131,17018,12104z M9135,5706c-159-51-347-201-488-390c-277-375-537-1095-653-1809
		l-17-109l-121-111c-311-285-684-534-924-616c-84-29-113-27-151,8c-76,71-107,220-90,430c5,62,11,117,15,122c3,5,40,9,82,9
		c433,0,916,292,1014,613c67,222-89,370-387,370c-186-1-327-53-505-187c-248-186-420-457-496-780l-18-78l-86-75
		c-266-235-760-598-977-720c-87-48-184-83-232-83c-106,0-196,153-232,395c-17,114-18,473-1,620c81,702,299,1279,656,1730
		c196,247,460,453,636,495c44,11,54,10,87-7c156-81,207-400,120-745c-20-75-56-188-81-250c-25-63-46-119-46-125c0-39,121-58,179-28
		c52,26,120,117,181,240c106,214,146,381,137,570c-12,273-126,430-354,489c-91,24-288,21-389-4c-456-116-976-670-1264-1345
		c-104-244-201-594-244-885c-66-437-39-797,75-1030c73-147,183-231,352-267c89-19,293-12,382,12c94,26,230,94,355,179
		c151,103,465,340,610,460l115,96l7-53c30-233,202-357,478-344c228,10,492,137,815,393c61,48,142,116,181,151c40,34,74,63,75,63
		c2,0,4-73,4-162c1-138,4-175,24-243c37-132,103-224,191-270c86-45,322-59,468-29c148,30,306,125,363,218l18,30l145-3
		c106-2,167,2,228,14c228,47,496,179,784,386l91,66l12-76c24-144,100-298,174-355c87-67,219-96,350-78c179,25,337,144,459,343
		c32,52,61,99,65,106c5,7,42,19,83,27c44,9,112,34,165,60c241,121,454,348,630,674c27,51,52,92,55,92s18-23,35-50
		c69-117,208-217,315-228c28-2,50-6,50-7c0-2-16-27-35-57c-62-93-164-303-202-415c-42-127-53-229-30-284c31-74,127-119,256-119
		c131,0,235,45,325,139c36,37,42,38,50,8c9-37,75-97,135-125c47-21,76-26,174-30c183-7,289,22,442,122c95,63,170,130,278,250l80,89
		l-7-55c-8-64,8-177,33-233c71-156,315-211,519-115c82,38,152,91,258,192l81,78l6-64c7-74,35-154,71-201c15-19,54-48,92-66
		c57-28,78-33,167-37c172-7,277,31,500,181c71,48,130,87,132,87s6-22,10-49c15-112,86-209,184-255c40-18,65-21,186-21
		c138,0,141,0,210,34c60,29,94,58,235,200c224,224,414,454,485,585c34,63,27,81-32,92c-69,13-101-7-199-123
		c-217-258-500-542-615-618l-54-36l-17,22c-10,11-23,40-30,62c-16,56-15,244,1,335l13,73l172,172c374,373,598,727,534,847
		c-19,36-73,68-126,76c-113,17-257-36-385-141c-224-185-484-633-549-945l-12-62l-111-73c-156-104-412-248-424-240
		c-32,19,5,281,85,600c32,129,124,438,132,446c4,4,70,12,147,18c235,20,300,41,293,100c-6,48-61,64-231,69c-145,4-147,5-141,26
		c4,11,47,131,96,266c178,488,173,470,150,493c-29,28-107,33-151,10c-29-15-55-56-173-273c-77-140-169-311-206-380
		c-36-69-70-128-75-131c-4-3-59-9-120-13c-220-13-302-41-302-101c0-26,7-33,48-54c40-19,69-25,163-29c63-3,114-5,114-6
		s-35-88-79-194c-105-257-201-404-375-577c-113-112-282-245-312-245c-41,0-50,203-19,410c21,141,68,331,94,379c81,153,81,152,81,218
		c0,82-25,136-94,201c-101,95-209,132-389,132c-234,0-418-76-649-267c-194-161-344-365-445-606c-36-87-44-97-185-241
		c-80-83-149-148-152-145c-9,8,23,202,50,305c13,52,46,155,74,230c27,75,50,148,50,164c0,40-40,54-136,48c-73-5-75-5-100,25
		c-30,36-108,190-154,305c-39,100-61,129-114,153c-52,24-170,25-225,3c-47-19-63-42-184-270c-47-88-106-194-132-235
		c-128-200-287-364-459-473c-28-18-29-18-23,0c132,399,140,644,24,726c-26,18-49,24-114,27c-110,4-169-22-263-118
		c-98-100-186-263-220-410c-41-175,34-330,187-387c26-10,50-19,52-21c10-8-113-174-166-224c-69-66-144-112-175-107
		c-31,4-83,83-107,163c-29,92-41,199-41,351v135l120,125c260,272,422,488,589,787c321,573,454,1023,361,1220c-52,111-200,146-367,87
		c-194-68-400-304-582-669c-195-388-401-1065-443-1456l-13-120l-127-95c-152-114-292-203-454-287c-128-66-331-140-413-150
		c-44-5-50-3-65,19c-25,38-37,133-30,226c6,72,9,82,26,82c80,0,348,81,491,149c245,117,447,310,561,538c72,143,86,316,33,405
		c-101,173-341,216-592,108c-100-43-247-151-360-264c-225-225-371-469-481-804c-78-234-92-398-44-492l22-42l-44-57
		c-81-103-200-166-305-159c-41,3-50,7-70,36c-91,137-102,357-42,850l12,94l124,141c507,576,907,1193,1049,1617c37,111,39,212,6,285
		c-30,65-56,93-117,121c-42,20-65,24-145,23C9218,5719,9157,5713,9135,5706z M9314,5587c30-40,29-158-3-247
		c-92-262-306-646-571-1025c-120-171-319-429-326-422c-2,2,7,59,21,126c79,390,223,837,351,1094c100,198,229,362,356,448
		C9241,5629,9279,5634,9314,5587z M11466,5518c25-48,29-158,10-261c-71-377-433-1040-784-1435c-36-40-66-71-68-69
		c-5,5,56,281,106,472c120,464,267,838,427,1084c88,135,205,239,270,241C11442,5550,11455,5540,11466,5518z M9952,4300
		c81-63,60-217-54-384c-148-219-330-375-597-514c-128-66-127-67-76,103c66,218,140,363,266,519c103,128,221,220,347,272
		C9908,4325,9921,4325,9952,4300z M16870,4226c0-60-62-173-181-332c-80-106-239-288-246-280c-7,7,71,187,124,286
		c83,155,166,262,247,322C16861,4256,16870,4257,16870,4226z M14270,4100c79-40,140-110,140-160c0-72-569-713-766-862
		c-63-48-173-118-186-118c-15,0-8,97,13,175c11,44,41,131,66,195c103,260,194,403,372,581c122,122,182,168,259,195
		C14218,4124,14225,4123,14270,4100z M7450,4090c10-5,23-24,29-41c46-134-212-413-513-554c-98-46-202-82-211-73
		c-10,10,52,159,102,245c66,113,147,209,246,288C7248,4071,7385,4125,7450,4090z M11293,3896c26-66,15-189-29-336
		c-31-103-116-320-125-320c-14,0-40,52-55,111c-35,137,37,387,146,512C11274,3913,11285,3918,11293,3896z M18909,5663
		c-59-53-132-153-316-428c-251-378-450-709-577-962c-68-136-287-638-316-723c-23-70-18-90,30-110c44-18,153-9,187,16
		c46,34,93,104,261,383c219,365,264,447,585,1076c355,697,372,736,326,769c-15,10-44,16-81,16C18955,5700,18946,5697,18909,5663z
		 M17524,3100c-65-32-102-77-110-131c-6-43,12-77,55-106c47-31,147-32,201-2c74,42,122,197,76,248c-16,18-31,21-91,21
		S17573,3125,17524,3100z"/>
</g>
</svg>
