<?xml version="1.0" encoding="utf-8"?>
<!-- Generator: Adobe Illustrator 25.0.1, SVG Export Plug-In . SVG Version: 6.00 Build 0)  -->
<svg version="1.1" id="Layer_1" xmlns="http://www.w3.org/2000/svg" xmlns:xlink="http://www.w3.org/1999/xlink" x="0px" y="0px"
	 viewBox="0 0 2400 2400" style="enable-background:new 0 0 2400 2400;" xml:space="preserve">
<g>
	<path transform="translate(0.000000,2400.000000) scale(0.100000,-0.100000)" d="M6035,18186c-188-38-331-120-476-273
		c-317-337-564-1126-703-2253c-14-113-30-263-35-335l-10-130l-98-89c-266-242-348-344-327-403c17-48,57-68,139-68c69,0,76,2,107,31
		c41,39,158,115,168,109c4-2,10-75,13-162c25-627,246-1139,564-1306c117-61,207-81,363-81c148,0,220,14,325,63
		c341,159,471,681,287,1155c-100,257-295,444-644,617c-125,62-148,79-109,79c37,0,287,68,386,105c324,121,782,414,1137,728
		c49,43,92,77,94,74c3-3-4-69-15-148c-71-513-97-1045-71-1444c17-256,48-387,110-473c85-118,360-156,536-73c189,88,392,435,649,1106
		c31,83,58,151,59,152c1,2,3-81,4-184c4-513,103-882,288-1070c127-129,269-178,499-171c108,4,143,9,208,31c268,92,393,289,553,865
		c74,270,72,263,73,225c2-72,43-357,72-498c107-532,334-846,666-919c91-20,275-21,368-1c39,8,108,33,154,55c69,33,100,57,171,128
		c158,160,263,356,426,797c34,94,65,163,67,155c3-8,8-46,12-85c9-111,53-310,86-396c38-98,105-176,181-210c43-19,75-24,169-27
		c129-4,199,9,276,55c59,34,150,135,206,230c47,79,187,389,318,703l64,155l6-310c9-425,42-679,111-859c40-104,122-191,211-224
		c187-70,426-46,562,57c29,22,83,78,118,123c288,370,600,1007,828,1688l68,205l90,12c49,7,129,21,176,32c48,12,90,21,95,21
		c4,0-21-66-57-147c-130-294-297-773-372-1066c-98-381-88-588,37-710c97-95,213-131,417-130c117,1,156,5,238,27
		c226,59,482,216,715,440c73,70,85,78,95,64c106-149,152-195,243-241c157-79,396-76,538,7c155,91,548,552,781,917
		c107,168,237,425,298,591c26,71,47,130,47,133s-15,14-32,25c-42,26-130,27-175,2c-27-14-47-47-118-189c-159-317-352-597-636-918
		c-103-118-319-332-363-360c-26-17-27-17-42,1c-34,44-107,212-129,297c-43,174-45,162,27,247c239,283,439,609,581,947
		c74,175,98,271,104,408c12,276-86,424-301,456c-221,33-431-68-575-276c-155-223-312-684-377-1101c-18-121-22-407-7-512l10-62
		l-111-108c-260-252-477-417-665-505c-51-24-65-27-72-16c-15,24-22,118-15,198c23,258,227,1018,417,1549c37,106,71,215,75,242
		c6,45,4,51-23,79c-38,38-117,61-208,61c-77,0-148-20-225-63c-95-54-359-147-416-147c-8,0-8,17,2,63c36,173,37,352,4,469
		c-29,101-124,184-236,207c-268,53-526-72-645-313c-43-88-44-91-44-190c0-93,3-106,32-169c61-127,195-226,358-262c41-9,75-21,75-25
		c0-16-98-267-175-448c-179-424-397-822-603-1101c-39-53-57-70-62-60c-11,21-28,172-41,364c-14,208-7,824,16,1320
		c22,468,24,798,7,848c-27,75-122,117-266,117c-93,0-186-23-220-55c-14-13-31-47-40-76c-105-385-186-635-335-1041
		c-118-319-169-445-340-836c-143-327-209-467-216-460c-10,9-26,206-35,410c-18,417,14,1046,90,1765c13,128,5,150-72,183
		c-42,18-71,23-143,23c-130,0-206-37-221-107c-11-53-187-613-304-971c-328-997-568-1543-777-1765l-60-63l-45,64
		c-92,130-173,324-218,527c-83,376-129,934-116,1412c12,422,40,977,50,987c2,2,91,13,197,23c294,30,630,78,699,99
		c128,40,135,98,17,149c-58,25-211,35-462,29c-137-3-290-11-338-17c-49-7-91-9-94-7c-5,6,18,256,48,507c26,222,25,329-1,362
		c-29,38-94,60-191,65c-129,8-235-27-258-85c-10-26-80-386-137-706c-14-82-32-168-38-190l-12-41l-204-17c-307-26-442-52-532-101
		c-66-36-63-86,7-113c41-15,66-16,302-4c142,7,286,11,320,9l61-4l-88-350c-102-409-118-465-296-1060c-223-741-291-933-388-1089
		c-63-101-70-106-95-65c-33,54-90,243-115,383c-47,257-51,328-46,826c9,842,6,1221-8,1267c-29,97-104,137-252,137
		c-88-1-160-22-188-56c-7-9-19-58-28-109c-58-366-386-1273-651-1804c-82-163-129-247-207-370l-51-79l-6,39c-4,22-13,204-20,405
		c-16,468,2,1139,42,1593c13,149,9,219-16,247c-49,54-206,76-315,44c-49-14-69-31-219-183c-418-420-853-743-1273-946
		c-103-49-298-125-323-125c-1,0,124,127,279,283c300,299,430,451,572,667c187,283,331,621,395,920c29,138,32,363,6,460
		c-33,123-92,227-181,315c-87,86-163,131-271,160C6291,18197,6121,18203,6035,18186z M6238,17952c94-97,132-203,132-370
		c0-377-285-1002-670-1468c-97-117-331-376-336-371c-6,6,34,343,67,571c85,591,230,1106,384,1365c101,169,268,321,353,321
		C6183,18000,6209,17982,6238,17952z M14971,16373c21-72,16-248-11-368c-12-55-24-104-27-108c-8-13-61,42-91,93c-24,40-27,55-27,135
		c0,77,4,98,27,148c33,70,87,147,103,147C14952,16420,14964,16399,14971,16373z M17468,16134c4-91,1-124-17-193
		c-28-106-112-301-202-466c-76-138-189-318-196-312c-2,2,3,50,12,105c66,444,191,836,322,1017l36,49l20-44
		C17457,16257,17464,16214,17468,16134z M5430,14882c306-163,455-351,516-653c21-103,15-342-11-434c-32-117-127-282-172-300
		c-36-13-136,118-217,285c-122,250-195,592-213,998C5326,14953,5316,14943,5430,14882z M7800,13099c-363-45-697-293-1072-794
		c-359-480-720-1159-1044-1965l-62-154l-6,109c-22,372-63,577-148,740c-132,254-387,398-748,421c-214,13-424-28-622-123l-117-56
		l-87,38c-286,123-672,136-992,34c-152-49-232-94-232-130c0-50,111-65,216-29c301,104,621,75,787-72l38-33l-107-90
		c-352-297-659-751-747-1104c-28-115-30-344-4-441c52-190,149-291,332-347c47-14,91-18,205-17c174,1,254,19,405,92
		c341,166,546,463,646,937c20,93,24,139,24,295c-1,161-3,196-23,270c-29,105-96,247-150,320c-23,30-42,57-42,60s30,24,68,47
		c267,163,403,163,567-1c52-52,81-92,108-148c160-332,176-1025,51-2163c-49-448-71-584-144-874c-143-575-220-1027-236-1386
		c-6-119-4-145,9-172c50-95,324-113,425-28c38,32,55,75,86,222c34,162,154,884,211,1278c42,286,54,344,111,544
		c188,659,432,1343,734,2056c250,589,509,1087,787,1510c298,453,559,737,801,872l65,37l29-35c42-50,85-144,110-245
		c21-82,23-110,22-374c0-296-12-451-69-940c-60-505-218-1496-440-2765c-222-1265-319-1908-332-2185l-5-125l28-26c92-84,358-87,447-5
		c18,17,30,44,41,97c182,853,262,1159,450,1724c187,560,393,1092,597,1540c97,215,354,721,469,925c524,933,1124,1676,1609,1992
		c121,78,242,132,277,124c55-14,125-136,155-271c22-96,17-424-10-630c-68-527-159-974-455-2230c-319-1356-449-1999-517-2565
		c-31-253-34-722-5-875c70-381,190-551,425-601c249-52,491,31,684,236c296,313,720,1103,1164,2170c475,1139,766,1948,879,2436
		l28,121l85,28c111,36,241,97,366,173c55,34,101,60,102,58c1-1-40-157-93-347c-351-1272-449-1697-470-2044c-23-393,123-672,407-772
		c60-21,98-27,194-31c324-11,495,113,749,543c160,270,297,494,522,855c481,772,705,1125,714,1128c6,2,10-3,10-11s30-73,66-146
		c77-154,265-439,487-739c189-255,316-441,425-619c84-137,207-362,201-367c-2-2-56-13-119-25c-190-37-462-109-618-163
		c-492-169-848-449-1188-934c-196-281-283-504-300-773c-18-291,82-609,248-786c137-147,276-224,513-284c128-32,224-41,435-41
		c292,0,472,35,717,140c441,190,820,513,983,840c145,290,218,682,190,1035c-19,256-71,493-159,728c-27,72-48,133-47,135
		c2,1,124,16,272,33c554,61,870,123,1192,234c499,171,923,433,1257,777c61,62,136,145,166,183c170,214,321,493,383,707
		c100,345,18,622-237,797c-174,119-595,208-854,182c-121-13-179-32-232-77c-70-61-45-100,59-92c38,3,66,11,84,25
		c36,29,123,46,194,38c168-19,349-68,437-119c91-54,192-190,221-300c33-123,10-316-56-476c-165-399-528-823-939-1099
		c-358-240-738-396-1186-486c-265-54-848-127-864-109c-5,5-43,71-85,146c-146,262-265,443-556,838c-511,696-618,930-582,1273
		c20,189,86,415,172,592c108,221,230,316,369,287c250-52,560-364,659-664c56-170,65-250,66-582c1-298,1-299,24-314
		c37-24,141-19,194,9c164,91,248,605,153,934c-67,229-246,478-459,637c-258,192-598,265-940,201c-303-56-504-223-641-531
		c-76-173-144-402-161-546c-6-57-23-84-653-1031c-355-535-729-1102-831-1259c-184-285-272-402-342-459c-44-35-56-30-93,42
		c-79,157-90,411-34,780c34,225,121,644,259,1251c173,759,201,896,207,1015c7,124-3,149-79,190c-51,29-58,30-178,30
		c-151,0-170-7-383-148c-146-96-267-171-325-201l-32-17l7,73c5,40,7,159,7,263c-1,158-5,203-22,267c-54,199-144,297-312,339
		c-31,8-103,14-165,13c-192-1-328-56-460-189c-211-211-307-562-211-771c80-174,301-285,616-310c50-3,90-10,90-15c0-19-44-195-86-344
		c-181-641-728-2036-1093-2790c-257-530-600-1107-799-1345c-71-85-159-170-177-170c-12,0-48,99-71,200c-69,305-52,713,56,1350
		c93,541,199,1028,460,2119c213,889,266,1121,334,1462c138,689,192,1134,168,1396c-14,153-32,224-79,320c-125,256-450,377-838,312
		c-451-75-942-472-1490-1204c-220-294-473-687-670-1040c-99-177-323-617-406-797c-35-76-65-136-66-134c-2,2,25,178,61,392
		c161,967,233,1580,243,2074c6,317-5,439-53,587C8460,12997,8187,13148,7800,13099z M13072,11327c15-23,37-78,50-122
		c20-71,23-101,23-280c0-187-19-410-35-420c-13-8-134,16-177,35c-59,26-118,91-140,153c-37,110-15,285,57,443
		c50,110,147,233,185,234C13041,11370,13057,11351,13072,11327z M3940,10700c28-95,38-329,21-451c-64-451-259-794-527-925l-57-28
		l-34,39c-71,83-101,281-69,465c36,203,170,459,376,717c90,112,251,276,261,266C3915,10779,3928,10741,3940,10700z M17375,7753
		c239-625,193-1338-115-1799c-171-254-602-556-905-634c-98-25-273-27-360-5c-83,21-191,74-247,121c-143,119-262,349-298,576
		c-18,113-8,342,20,438c77,267,365,673,644,907c289,243,557,355,1146,481C17338,7855,17334,7858,17375,7753z M18755,7697
		c-45-21-115-86-115-105c0-5-20-22-44-39c-59-42-80-83-79-158c2-106,59-193,156-236c43-20,68-24,152-24c93,0,105,2,167,33
		c116,57,173,153,173,292c0,77-3,90-31,140c-18,32-49,68-73,85c-40,28-49,30-149,33C18817,7720,18800,7718,18755,7697z M18907,7478
		c-3-8-6-5-6,6c-1,11,2,17,5,13C18909,7494,18910,7485,18907,7478z"/>
</g>
</svg>
