<?xml version="1.0" encoding="utf-8"?>
<!-- Generator: Adobe Illustrator 25.2.0, SVG Export Plug-In . SVG Version: 6.00 Build 0)  -->
<svg version="1.1" id="Layer_1" xmlns="http://www.w3.org/2000/svg" xmlns:xlink="http://www.w3.org/1999/xlink" x="0px" y="0px"
	 viewBox="0 0 2200 2200" style="enable-background:new 0 0 2200 2200;" xml:space="preserve">
<style type="text/css">
	.st0{fill:#231F20;}
</style>
<g>
	<path d="M597.1,1555.51c0.98,3.17,0.09,6.6-2.27,8.67c-1.98,1.73-3.32,2.21-5.99,2.05c-3.06-0.16-3.86-0.62-7.14-4.24
		c-3.61-3.96-5.94-6.36-6.19-6.38c-0.1-0.01-1.42,1.79-2.91,3.96c-16.63,24.4-38.07,44.97-62.59,60.04
		c-45.37,27.89-98.18,34.81-144.91,19.02c-38.08-12.87-69.74-40.35-88.76-77.02c-2.75-5.27-5.23-10.67-6.94-15.01
		c-0.76-1.99-1.43-3.66-1.48-3.71c-0.2-0.26-2.48,1.97-3,2.91c-0.73,1.29-2.48,2.87-3.9,3.44c-1.7,0.7-3.87,0.91-5.38,0.51
		c-2.92-0.81-5.1-2.66-6.11-5.25c-0.8-2.04-0.64-4.73,0.42-6.69c1.39-2.59,5.99-7.06,9.92-9.67c5.27-3.5,18.2-9.08,27.66-11.95
		c2.87-0.88,3.44-0.99,5.28-0.88c1.72,0.1,2.27,0.23,3.38,0.83c4.6,2.46,5.79,8.54,2.51,12.55c-1.23,1.48-2.61,2.25-5.66,3.14
		c-2.9,0.85-9.41,3.14-9.86,3.47c-0.36,0.27-0.23,0.64,2.1,6.3c17.34,42.12,51.4,72.58,93.87,83.99c4.72,1.25,10.75,2.51,16.1,3.32
		c6.07,0.92,18.32,1.65,24.48,1.46c27.17-0.84,53.19-8.38,77.5-22.43c21.67-12.52,40.49-29.3,56.26-50.13
		c2.67-3.54,6.39-8.89,8.56-12.28l0.99-1.57l-1.55-1.28c-2.3-1.89-6.82-5.46-7.44-5.82c-0.28-0.19-0.73-0.34-1-0.35
		c-1.12-0.07-3.26-1.29-4.4-2.5c-4-4.25-2.45-11.16,3.01-13.32c1.27-0.48,1.86-0.57,3.92-0.5c1.53,0.04,2.78,0.22,3.38,0.47
		c4.94,1.97,18.46,13.17,29.63,24.51C594.09,1550.81,596.59,1553.82,597.1,1555.51z M493.64,1453.99
		c7.92,6.87,12.31,9.16,14.89,7.92c3.53-1.72,32.07-36.65,40.37-49.43c12.98-19.85,15.94-41.32,7.35-53.15
		c-4.29-6.01-12.98-8.97-21.47-7.44c-5.73,1.05-9.45,3.24-14.5,8.59c-5.54,5.73-10.5,14.03-14.6,23.95l-3.05,7.44l-5.44-10.59
		c-3.05-5.73-7.16-12.69-9.16-15.27c-15.56-20.42-43.14-13.65-43.23,10.59c0,10.69,6.97,27.01,18.32,42.94
		C469.79,1428.99,486.77,1448.08,493.64,1453.99z M333.63,1453.99c7.92,6.87,12.31,9.16,14.89,7.92
		c3.53-1.72,32.07-36.65,40.37-49.43c12.98-19.85,15.94-41.32,7.35-53.15c-4.29-6.01-12.98-8.97-21.47-7.44
		c-5.73,1.05-9.45,3.24-14.5,8.59c-5.54,5.73-10.5,14.03-14.6,23.95l-3.05,7.44l-5.44-10.59c-3.05-5.73-7.16-12.69-9.16-15.27
		c-15.56-20.42-43.14-13.65-43.23,10.59c0,10.69,6.97,27.01,18.32,42.94C309.77,1428.99,326.76,1448.08,333.63,1453.99z
		 M1999.82,1364.92c-0.63-2.07-3.7-5.8-10.49-12.74c-13.77-13.98-30.43-27.78-36.52-30.22c-0.73-0.31-2.28-0.52-4.16-0.58
		c-2.54-0.09-3.27,0.02-4.83,0.61c-6.72,2.66-8.64,11.18-3.71,16.42c1.41,1.49,4.05,3,5.43,3.08c0.33,0.02,0.89,0.2,1.23,0.43
		c0.75,0.44,6.34,4.85,9.17,7.17l1.91,1.58l-1.22,1.94c-2.68,4.19-7.27,10.78-10.56,15.14c-19.44,25.68-42.65,46.36-69.35,61.8
		c-29.97,17.32-62.04,26.62-95.54,27.65c-7.6,0.23-22.69-0.66-30.18-1.8c-6.6-0.99-14.03-2.55-19.85-4.09
		c-52.36-14.07-94.34-51.62-115.72-103.54c-2.88-6.98-3.03-7.44-2.59-7.77c0.56-0.42,8.59-3.24,12.16-4.28
		c3.75-1.1,5.46-2.04,6.98-3.87c4.04-4.95,2.57-12.44-3.09-15.48c-1.37-0.74-2.04-0.9-4.17-1.03c-2.27-0.13-2.97,0-6.51,1.08
		c-11.66,3.53-27.61,10.41-34.1,14.73c-4.84,3.22-10.51,8.73-12.23,11.93c-1.31,2.41-1.51,5.73-0.52,8.24
		c1.25,3.19,3.93,5.48,7.53,6.48c1.86,0.5,4.54,0.24,6.63-0.62c1.75-0.71,3.9-2.65,4.81-4.24c0.64-1.16,3.44-3.9,3.69-3.59
		c0.06,0.06,0.89,2.12,1.83,4.58c2.11,5.34,5.16,12,8.55,18.5c23.45,45.21,62.48,79.08,109.42,94.95
		c57.61,19.48,122.71,10.95,178.64-23.44c30.23-18.59,56.66-43.94,77.16-74.02c1.84-2.68,3.47-4.89,3.59-4.88
		c0.3,0.02,3.18,2.98,7.63,7.86c4.05,4.47,5.04,5.04,8.8,5.23c3.29,0.2,4.94-0.39,7.38-2.53
		C1999.93,1373.05,2001.03,1368.83,1999.82,1364.92z M1872.28,1239.78c9.76,8.47,15.18,11.3,18.35,9.77
		c4.35-2.12,39.53-45.18,49.76-60.94c16-24.47,19.65-50.94,9.06-65.53c-5.29-7.41-16-11.06-26.47-9.18
		c-7.06,1.3-11.65,4-17.88,10.59c-6.82,7.06-12.94,17.29-18,29.53l-3.76,9.18l-6.71-13.06c-3.76-7.06-8.82-15.65-11.29-18.82
		c-19.18-25.18-53.18-16.82-53.29,13.06c0,13.18,8.59,33.29,22.59,52.94C1842.87,1208.95,1863.81,1232.48,1872.28,1239.78z
		 M1675.01,1239.78c9.76,8.47,15.18,11.3,18.35,9.77c4.35-2.12,39.53-45.18,49.76-60.94c16-24.47,19.65-50.94,9.06-65.53
		c-5.29-7.41-16-11.06-26.47-9.18c-7.06,1.3-11.65,4-17.88,10.59c-6.82,7.06-12.94,17.29-18,29.53l-3.77,9.18l-6.71-13.06
		c-3.76-7.06-8.82-15.65-11.29-18.82c-19.18-25.18-53.18-16.82-53.29,13.06c0,13.18,8.59,33.29,22.59,52.94
		C1645.6,1208.95,1666.54,1232.48,1675.01,1239.78z"/>
	<path class="st0" d="M283.59,710.78c0.06,0.69,0.01,0.86-0.2,0.93c-0.29,0.12-1.11,0.13-4.49,0.09c-1.25-0.01-2.99-0.02-3.86-0.01
		c-0.88,0-2.08,0-2.65-0.02c-1.11-0.04-3.88-0.06-5.19-0.06c-0.42,0-1.15-0.01-1.61,0c-0.86-0.01-2.83,0.03-6.6,0.09
		c-1.82,0.04-3.33,0.13-7.44,0.42c-2.43,0.16-7.54,0.92-9.98,1.46c-1.22,0.27-3.3,0.94-4.48,1.43c-1.42,0.61-5.27,2.47-6.18,3.02
		c-0.38,0.23-0.98,0.57-1.32,0.77c-2.93,1.72-10.54,7.89-14.23,11.54c-1.04,1.02-2.55,2.88-3.49,4.27
		c-1.12,1.65-3.62,6.39-3.62,6.86c0,0.08-0.11,0.4-0.27,0.72c-0.38,0.81-0.79,1.95-1.11,3c-0.67,2.3-0.86,2.93-1,3.6
		c-0.08,0.39-0.45,1.93-0.8,3.42c-0.35,1.48-0.73,3.12-0.84,3.64c-0.13,0.51-0.27,1.08-0.32,1.27c-0.07,0.19-0.2,0.69-0.28,1.1
		c-0.08,0.4-0.22,1.04-0.29,1.43c-0.13,0.6-0.79,3.51-1.12,4.94c-0.07,0.31-0.24,1.08-0.36,1.71c-0.13,0.63-0.28,1.37-0.34,1.64
		c-0.06,0.27-0.15,0.73-0.21,1c-0.06,0.27-0.21,1.05-0.35,1.72c-0.15,0.67-0.44,2.08-0.65,3.14c-0.2,1.06-0.42,2.22-0.51,2.58
		c-0.07,0.36-0.25,1.32-0.39,2.15c-0.15,0.83-0.34,1.79-0.42,2.14c-0.08,0.35-0.2,0.93-0.27,1.28c-0.07,0.36-0.22,1.16-0.34,1.79
		c-0.13,0.63-0.35,1.92-0.52,2.87c-0.15,0.95-0.32,1.88-0.36,2.08c-0.17,0.73-0.36,2.01-0.63,4.04c-0.15,1.16-0.34,2.52-0.42,3.04
		c-0.22,1.5-0.38,2.92-0.69,6.2c-0.36,3.97-0.55,5.63-0.69,6.87c-0.06,0.55-0.22,1.94-0.35,3.06c-0.56,4.86-0.91,7.1-1.46,9.48
		c-0.45,1.92-0.76,2.23-1.49,1.5c-0.6-0.6-0.77-1.32-0.94-3.83c-0.08-1.3-0.21-2.75-0.28-3.22c-0.13-0.8-0.34-3.26-0.67-7.86
		c-0.17-2.36-0.36-3.4-0.69-3.75c-0.27-0.28-0.41-1.43-0.73-5.98c-0.21-2.9-0.53-4.78-0.84-4.98c-0.32-0.2-0.35-0.42-0.77-5.42
		c-0.34-4.17-0.53-5.26-0.95-5.56c-0.14-0.1-0.24-0.5-0.29-1.2c-0.42-4.52-0.6-5.86-1.28-9.05c-0.18-0.88-0.44-2.51-0.56-3.61
		c-0.13-1.12-0.49-3.44-0.8-5.18c-0.31-1.74-0.72-4.23-0.88-5.51c-0.55-3.88-0.62-4.26-1.33-7.45c-0.87-3.92-2.26-8.8-3.68-12.95
		c-1.61-4.73-1.83-5.35-3.4-9.21c-1.34-3.3-1.37-3.37-2.51-5.57c-1.31-2.48-2.23-3.93-4.64-7.18c-2.25-3.02-3.85-4.96-6.68-8.06
		c-4.77-5.22-7.9-8.2-12.98-12.38c-7.62-6.26-13.66-10.49-20.49-14.57c-0.31-0.18-0.72-0.43-0.91-0.55
		c-0.32-0.22-0.93-0.54-3.93-2.26c-0.66-0.38-2.18-1.19-3.37-1.82c-1.19-0.63-2.46-1.29-2.81-1.48c-1.78-0.94-2.36-1.24-4.42-2.33
		c-1.24-0.64-2.53-1.32-2.88-1.53c-0.35-0.19-1.64-0.89-2.88-1.55c-4.2-2.22-9.6-5.51-10.72-6.48c-0.69-0.59-0.81-0.84-0.74-1.55
		c0.02-0.22,0.03-0.33,0.06-0.56c0.68,0.23,1.03,0.35,1.71,0.58c0.93,0.31,2.9,0.92,4.36,1.33c1.47,0.42,3.93,1.09,5.47,1.53
		c3.73,1.03,8.81,2.32,10.39,2.65c3.9,0.83,8.21,1.63,10.74,1.93c0.35,0.04,1.67,0.22,2.95,0.39c2.83,0.4,3.03,0.42,6.52,0.62
		c3.13,0.17,2.98,0.17,5.4,0.16c2.48-0.01,6.83-0.32,8.49-0.59c1.43-0.24,3.72-0.73,4.63-0.96c7.82-2.08,15.13-7.34,18.73-13.37
		c1.05-1.77,3.09-6,3.44-7.16c0.06-0.19,0.18-0.54,0.28-0.76c0.25-0.54,0.91-2.46,1.05-3.02c0.07-0.25,0.31-1.11,0.56-1.92
		c0.24-0.81,0.49-1.73,0.55-2.05c0.07-0.31,0.38-1.58,0.7-2.81c0.49-1.97,0.94-4.15,1.28-6.27c0.18-1.12,1-6.71,1.14-7.76
		c0.13-1.01,0.28-2.16,0.53-3.97c0.08-0.57,0.21-1.52,0.29-2.12c0.07-0.6,0.21-1.52,0.28-2.05c0.15-0.95,0.29-2,0.56-3.79
		c0.08-0.52,0.2-1.45,0.28-2.05c0.14-1.18,0.35-2.74,0.57-4.17c0.32-2.01,0.45-3.4,1.39-10.26c0.08-0.57,0.2-1.5,0.28-2.05
		c0.07-0.58,0.24-1.85,0.35-2.87c0.11-1.02,0.24-2.05,0.28-2.28c0.06-0.4,0.16-1.04,0.49-4.36c0.06-0.6,0.21-1.94,0.32-2.96
		c0.13-1.02,0.27-2.38,0.32-3.02c0.07-0.97,0.15-1.24,0.44-1.48c0.32-0.28,0.41-0.28,1.4,0.03c1.29,0.39,1.9,0.77,2.27,1.44
		c0.6,1.02,0.74,1.7,0.87,4.12c0.28,4.9,0.43,7.21,0.55,8.62c0.06,0.79,0.18,2.22,0.27,3.16c0.08,0.93,0.18,1.95,0.22,2.25
		c0.04,0.3,0.18,1.69,0.29,3.09c0.13,1.41,0.28,2.97,0.34,3.48c0.28,2.2,0.41,3.24,0.62,5.21c0.41,3.83,0.52,4.74,0.65,5.42
		c0.08,0.37,0.14,0.88,0.14,1.14c0,0.24,0.06,0.76,0.13,1.12c0.15,0.81,0.37,2.38,0.66,4.95c0.21,1.93,0.31,2.63,0.6,4.45
		c0.21,1.37,0.42,2.82,0.58,4.07c0.07,0.59,0.2,1.48,0.28,1.96c0.15,0.91,0.36,2.3,0.56,3.46c0.31,1.97,0.72,4.2,0.97,5.33
		c0.15,0.69,0.38,1.71,0.51,2.28c0.76,3.52,1.42,5.93,2.62,9.85c0.28,0.92,1.33,3.81,2.16,5.93c0.27,0.68,0.48,1.26,0.48,1.29
		c0,0.3,2.91,6.96,3.54,8.12c0.21,0.39,0.39,0.76,0.39,0.81c0,0.06,0.36,0.74,0.8,1.54c3.2,5.77,6.61,10.52,9.59,13.35
		c4.56,4.33,8.48,6.97,15.16,10.08c1.04,0.48,2.15,1.01,2.46,1.15c0.31,0.14,0.91,0.41,1.33,0.59c0.42,0.18,2.03,0.86,3.58,1.5
		c1.54,0.66,3.06,1.28,3.37,1.39c0.31,0.11,1.29,0.5,2.18,0.86c0.88,0.35,1.96,0.77,2.39,0.93c0.42,0.16,1.35,0.52,2.04,0.78
		c0.7,0.26,1.99,0.74,2.88,1.05c1.97,0.7,3.17,1.14,4.28,1.54c1.15,0.43,4.39,1.44,6.53,2.04c0.97,0.26,2.1,0.59,2.53,0.71
		c0.42,0.13,3.14,0.75,6.03,1.36c5.66,1.18,6.71,1.47,7.37,2.02C282.9,708.65,283.52,709.83,283.59,710.78z M2109.16,634.02
		c-0.69-0.24-1.03-0.35-1.71-0.59c-0.93-0.32-2.9-1.05-4.36-1.62c-1.47-0.57-3.93-1.53-5.47-2.11c-3.73-1.43-8.81-3.41-10.39-4.08
		c-3.9-1.65-8.22-3.51-10.74-4.74c-0.35-0.17-1.67-0.79-2.95-1.38c-2.83-1.3-3.03-1.41-6.53-3.23c-3.13-1.64-2.98-1.55-5.4-2.93
		c-2.48-1.4-6.83-4.08-8.49-5.22c-1.43-0.99-3.72-2.65-4.63-3.35c-7.82-6.01-15.13-14.27-18.73-21.28c-1.05-2.05-3.09-6.7-3.44-7.88
		c-0.06-0.19-0.18-0.56-0.28-0.79c-0.25-0.59-0.91-2.57-1.05-3.11c-0.07-0.25-0.31-1.11-0.56-1.93c-0.24-0.82-0.49-1.73-0.55-2.03
		c-0.07-0.3-0.38-1.54-0.7-2.76c-0.49-1.93-0.94-4.02-1.28-6.01c-0.18-1.05-1-6.24-1.14-7.21c-0.13-0.93-0.28-1.99-0.53-3.67
		c-0.08-0.53-0.21-1.4-0.29-1.96c-0.07-0.55-0.21-1.4-0.28-1.89c-0.15-0.88-0.3-1.86-0.56-3.51c-0.08-0.48-0.2-1.33-0.28-1.88
		c-0.14-1.07-0.35-2.51-0.57-3.83c-0.32-1.87-0.46-3.15-1.39-9.4c-0.08-0.52-0.2-1.37-0.28-1.88c-0.07-0.52-0.24-1.69-0.35-2.61
		c-0.11-0.92-0.24-1.85-0.28-2.07c-0.06-0.36-0.16-0.95-0.49-3.93c-0.06-0.54-0.21-1.74-0.32-2.66c-0.13-0.92-0.26-2.14-0.32-2.71
		c-0.07-0.86-0.15-1.12-0.44-1.44c-0.32-0.37-0.41-0.4-1.4-0.51c-1.29-0.17-1.9-0.07-2.27,0.35c-0.6,0.64-0.74,1.16-0.87,3.18
		c-0.28,4.07-0.43,5.99-0.55,7.14c-0.06,0.65-0.18,1.82-0.27,2.59c-0.08,0.76-0.18,1.59-0.22,1.83c-0.04,0.24-0.18,1.37-0.29,2.52
		c-0.13,1.15-0.28,2.42-0.34,2.84c-0.28,1.76-0.41,2.6-0.62,4.2c-0.41,3.1-0.52,3.83-0.65,4.36c-0.08,0.28-0.14,0.69-0.14,0.91
		c0,0.21-0.06,0.62-0.13,0.9c-0.15,0.63-0.37,1.88-0.66,3.95c-0.21,1.56-0.31,2.11-0.6,3.55c-0.21,1.08-0.42,2.23-0.58,3.23
		c-0.07,0.48-0.2,1.18-0.28,1.55c-0.15,0.71-0.36,1.8-0.56,2.71c-0.31,1.55-0.72,3.27-0.97,4.13c-0.15,0.52-0.38,1.3-0.5,1.73
		c-0.76,2.68-1.42,4.45-2.62,7.27c-0.28,0.66-1.33,2.67-2.16,4.12c-0.27,0.47-0.48,0.87-0.48,0.9c0,0.26-2.91,4.67-3.54,5.38
		c-0.21,0.24-0.39,0.48-0.39,0.51c0,0.05-0.36,0.47-0.8,0.96c-3.2,3.52-6.61,6.09-9.58,7.24c-4.56,1.75-8.49,2.34-15.16,2.3
		c-1.04-0.01-2.15,0-2.46-0.01c-0.31,0-0.91-0.02-1.33-0.03c-0.42-0.01-2.03-0.08-3.58-0.14c-1.54-0.05-3.06-0.11-3.37-0.14
		c-0.31-0.03-1.29-0.08-2.18-0.11c-0.88-0.04-1.96-0.1-2.39-0.12c-0.42-0.02-1.35-0.07-2.03-0.11c-0.7-0.04-1.99-0.13-2.88-0.19
		c-1.97-0.14-3.17-0.22-4.28-0.29c-1.15-0.06-4.39-0.39-6.53-0.65c-0.97-0.12-2.1-0.25-2.53-0.3c-0.42-0.04-3.14-0.48-6.03-0.95
		c-5.66-0.94-6.71-1.04-7.37-0.81c-0.76,0.26-1.38,1.02-1.45,1.76c-0.06,0.54-0.01,0.69,0.2,0.81c0.29,0.19,1.11,0.46,4.49,1.55
		c1.25,0.41,2.99,0.98,3.86,1.29c0.88,0.3,2.08,0.71,2.65,0.89c1.11,0.35,3.87,1.29,5.19,1.76c0.42,0.15,1.15,0.4,1.61,0.57
		c0.86,0.29,2.83,1.02,6.6,2.45c1.83,0.7,3.33,1.31,7.44,3.11c2.43,1.05,7.54,3.65,9.98,5.07c1.22,0.71,3.3,2.1,4.48,2.98
		c1.42,1.08,5.25,4.22,6.18,5.06c0.38,0.36,0.98,0.89,1.32,1.2c2.93,2.67,10.54,11.18,14.23,15.96c1.04,1.34,2.55,3.61,3.49,5.23
		c1.12,1.92,3.62,7.15,3.62,7.55c0,0.07,0.11,0.39,0.27,0.74c0.38,0.87,0.79,2.04,1.11,3.1c0.67,2.29,0.86,2.92,1,3.56
		c0.08,0.37,0.45,1.87,0.8,3.32c0.35,1.44,0.73,3.03,0.84,3.53c0.13,0.5,0.27,1.06,0.32,1.25c0.07,0.2,0.2,0.69,0.28,1.09
		c0.08,0.39,0.23,1.01,0.29,1.38c0.13,0.58,0.79,3.4,1.12,4.81c0.07,0.3,0.24,1.05,0.36,1.66c0.13,0.61,0.28,1.32,0.34,1.58
		c0.06,0.26,0.15,0.7,0.21,0.97c0.06,0.26,0.21,1.01,0.35,1.66c0.15,0.65,0.44,2.02,0.65,3.04c0.2,1.02,0.42,2.13,0.5,2.48
		c0.07,0.34,0.25,1.27,0.39,2.06c0.15,0.8,0.34,1.72,0.42,2.07c0.08,0.35,0.2,0.9,0.27,1.25c0.07,0.34,0.22,1.12,0.34,1.72
		c0.13,0.61,0.35,1.84,0.52,2.75c0.15,0.9,0.32,1.8,0.36,1.99c0.17,0.72,0.36,1.93,0.63,3.83c0.15,1.09,0.34,2.36,0.42,2.86
		c0.22,1.42,0.38,2.73,0.69,5.74c0.36,3.64,0.55,5.18,0.69,6.33c0.06,0.51,0.22,1.8,0.35,2.84c0.56,4.53,0.91,6.67,1.46,9.06
		c0.45,1.93,0.76,2.37,1.49,2.15c0.6-0.18,0.77-0.7,0.94-2.8c0.08-1.09,0.21-2.28,0.28-2.65c0.13-0.63,0.34-2.64,0.67-6.46
		c0.17-1.96,0.36-2.75,0.69-2.88c0.27-0.09,0.41-1.01,0.73-4.8c0.21-2.41,0.53-3.87,0.84-3.86c0.32,0.01,0.36-0.18,0.77-4.29
		c0.34-3.44,0.53-4.29,0.95-4.32c0.14-0.01,0.24-0.31,0.29-0.88c0.42-3.71,0.6-4.78,1.28-7.18c0.18-0.67,0.44-1.95,0.56-2.84
		c0.13-0.9,0.49-2.73,0.8-4.08c0.31-1.35,0.72-3.3,0.88-4.32c0.55-3.09,0.62-3.38,1.33-5.78c0.87-2.95,2.26-6.47,3.68-9.34
		c1.61-3.27,1.83-3.69,3.4-6.23c1.33-2.17,1.37-2.21,2.51-3.53c1.31-1.47,2.23-2.25,4.65-3.79c2.25-1.44,3.85-2.28,6.68-3.46
		c4.77-1.99,7.9-2.9,12.98-3.74c7.62-1.25,13.64-1.55,20.49-1.14c0.31,0.02,0.72,0.04,0.91,0.05c0.32-0.01,0.92,0.07,3.93,0.33
		c0.65,0.06,2.18,0.24,3.37,0.4c1.19,0.16,2.46,0.34,2.81,0.39c1.78,0.24,2.37,0.32,4.42,0.63c1.23,0.19,2.53,0.38,2.88,0.41
		c0.35,0.05,1.64,0.22,2.88,0.4c4.2,0.63,9.6,1.1,10.72,0.92c0.69-0.11,0.81-0.25,0.74-0.98
		C2109.19,634.36,2109.18,634.24,2109.16,634.02z"/>
	<path d="M267.05,178.08c6.84,14.34,10.57,29.27,10.57,43.58c0,26.32-8.53,38.88-25.99,38.09c-9.75-0.44-17.99-8.17-23.96-22.37
		c-6.14-14.6-12.59-22.1-18.68-22.3c0,0-1.21,0.43-4.05,1.66c2.27,22.81,3.41,34.23,5.68,57.12c0.81,6.68,1.22,10.02,2.04,16.7
		c3.24,26.64,6.57,52.49,10.96,78c4.94,28.66,8.53,46.69,12.59,52.12c6.49,9.73,17.05,20.45,17.05,29.95
		c0,24.87-5.76,39.01-17.05,43.24c-8.5,3.19-31.68,2.22-69.44-4.69c-30.05-5.5-50.37-12.89-60.51-21.35
		c-10.16-8.45-15.03-21.56-15.03-39.47c0-4.18,2.66-8.24,7.72-12.32c6.06-4.89,9.75-8.35,10.56-10.32
		c4.06-7.31,8.85-27.34,14.22-59.34c5.16-30.76,9.18-59.06,10.97-84.04c0.46-6.36,1.21-21.83,1.62-46.37
		c-4.06-1.89-6.09-2.82-6.09-2.82c-3.65-0.15-6.67,3.24-9.33,9.86c-3.77,9.37-7.31,15.75-10.16,18.54
		c-6.09,6.4-15.43,9.09-27.21,8.21c-10.15-0.75-16.56-4.79-19.49-11.3c-1.88-4.17-2.84-12.03-2.84-23.85
		c0-12.26,3.8-24.75,10.96-38.15c8.18-15.3,17.47-23.44,28.03-23.43c3.65,0,9.33,1.27,17.05,3.42c7.72,2.15,13.41,3.06,17.06,3.07
		c45.49,0.23,75.95-0.55,91.38-1.87c2.84-0.44,8.52-4.97,12.18-4.97C249.19,152.7,258.9,161,267.05,178.08z M505.03,234.78
		c18.14,45.33,27.21,97.39,27.21,156.34c0,40.26-13,73.72-38.58,99.56c-24.07,24.32-53.61,35.69-88.13,33.33
		c-38.58-2.63-69.62-22.97-92.59-59.68c-20.75-33.15-31.27-72.18-31.27-117.19c0-49.62,10.54-92.36,31.68-129.74
		c24.3-42.96,57.26-65.64,98.68-65.64C452.25,151.77,483.04,179.82,505.03,234.78z M443.31,326.28c0-21.04-4.06-44.67-11.78-70.27
		c-9.74-32.38-21.93-48.37-36.14-48.55c-8.53-0.11-14.89,7.24-19.5,21.63c-3.45,10.78-5.28,22.71-5.28,35.5
		c0,21.34,2.91,41.79,8.93,60.44c8.17,25.3,19.9,38.24,35.74,38.88C433.97,364.67,443.31,352.12,443.31,326.28z M776.34,284.97
		c-8.53,0.49-21.92,2.7-21.52,2.68c-30.47,1.73-45.48,7.34-45.48,20.86c0,4.82,2.83,9.61,8.11,14.38c5.28,4.75,8.13,8.56,8.13,11.43
		c0,9.13-5.68,13.52-16.66,13.65c-19.49,0.23-35.73-3.96-48.33-13.07c-15.84-11.48-23.54-28.42-23.54-50.76
		c0-15.08,4.48-30.19,12.99-44.86c9.36-16.12,19.91-23.99,32.49-24.01c10.96-0.02,19.09,4.37,24.37,12.65
		c4.06,9.75,6.09,14.61,10.16,24.31c4.88,8.24,12.58,12.57,23.56,12.49c13.39-0.11,22.32-7.4,26.79-21.08
		c2.43-8.3,3.65-21.85,3.65-41.24c0-11.16-1.59-21.42-4.88-30.58c-4.35-12.12-10.96-18.08-19.49-18.08c-5.28,0-19.09,8.89-24.37,8.9
		c-5.28,0-13.06-1.44-23.96-4.94c-10.52-3.37-18.68-4.93-24.37-4.93c-38.58,0-70.22,21.49-95.43,63.41
		c-22.63,37.62-34.12,79.82-34.12,126.57c0,46.29,10.64,87.14,31.69,122.44c23.57,39.52,54.01,59.25,90.96,58.51
		c24.77-0.5,43.85-4.85,57.26-13.22c6.1-3.91,21.11-16.52,44.27-40.34c1.21-1.55,5.69-3.5,12.99-5.8c7.3-2.3,13-6.28,16.66-10.89
		c1.63-2.05,2.43-6.3,2.43-12.31c0-13.87-2.83-38.92-8.93-75.41c-1.63-10.19-0.4-20.66,3.25-31.77c3.9-6.34,5.85-9.5,9.75-15.81
		c4.05-6.41,6.02-12.7,5.68-19.66C809.96,288.28,798.68,283.68,776.34,284.97z M1048.45,354.28c0-9.6-6.9-23.08-15.01-22.25
		c-2.85,0.29-6.5,4.03-10.98,11.28c-4.46,7.25-9.74,11.25-16.64,12.02c-1.22,0.14-2.85,0.32-4.88,0.1
		c-3.65-0.86-12.6,3.12-15.84,3.49c-39.4,4.4-58.89-12.03-58.89-48.96c0-15.57,4.46-23.91,12.99-24.52
		c7.73-0.55,13.33,2.82,17.06,9.75c3.8,7.07,8.13,10.27,12.58,9.9c6.9-0.58,11.87-7.55,15.43-20.75c2.48-9.21,3.65-19.28,3.65-29.24
		c0-6.48-2.03-9.41-6.08-9.19c-4.47,0.24-11.38,10.22-15.84,10.48c-10.98,0.64-20.33-1.44-28.04-6.37
		c-8.93-5.72-13.39-13.63-13.39-23.5c0-2.24,0.4-4.05,0.8-6.31c1.22-5.88,2.85-9.52,5.68-10.96c3.58-0.11,5.37-0.17,8.95-0.28
		c19.49-0.62,34.1,2.91,44.26,9.9c4.06,2.87,9.75,9.18,17.46,19.54c5.28,7.02,11.38,10.09,18.68,9.67
		c7.71-0.44,13.7-4.65,17.86-11.96c3.32-5.82,4.88-13.26,4.88-22.09c0-13.87-2.39-26.5-7.31-38.15
		c-6.37-15.07-15.43-22.83-27.21-22.82c-8.53,0.01-23.55,0.88-44.26,2.24c-20.7,1.36-35.74,2.32-45.08,2.35
		c-6.9,0.02-23.65-1.65-30.06-1.73c-16.83-0.2-31.29,2.43-43.05,7.61c-14.14,6.23-21.11,16.28-21.11,29.08
		c0,7.09,1.64,13.05,4.88,15.95c3.6,3.24,7.73,5.41,10.16,6.74c4.88,4.07,8.33,14.45,9.75,30.45c0.69,7.75,0,16.71-0.42,26.93
		c-1.3,47.91-1.95,71.72-3.25,119.04c-0.8,27.97-3.23,45.53-6.9,52.82c-3.08,5.86-4.62,8.8-7.71,14.67
		c-0.8,1.93-4.47,6.98-11.38,15.69c-4.06,5.11-6.08,10.44-6.08,16.37c0,14.6,6.9,21.31,20.71,19.21
		c30.54-4.46,45.81-6.79,76.35-11.58c10.96-1.78,22.37-3.25,34.12-5.6c14.15-2.83,25.17-4.63,33.3-6
		c29.24-4.93,46.3-9.56,51.58-14.22c13.39-12.32,20.29-35.4,20.29-69.1c0-7.48-0.62-17.16-1.21-28.15
		C1048.66,364.48,1048.45,357.19,1048.45,354.28z M1236.89,374.28c-4.06-3.63-7.65-18.02-12.58-41.33
		c-4.38-20.72-7.71-42.13-10.96-64.31c-0.81-5.57-1.22-8.35-2.03-13.92c-2.28-19.16-3.42-28.75-5.7-47.97
		c2.85-1.23,4.07-1.67,4.07-1.67c6.08-0.22,12.54,5.75,18.67,17.34c5.97,11.3,14.23,16.82,23.96,16.26
		c17.46-1,25.99-11.71,25.99-32.37c0-11.24-3.71-22.7-10.56-33.85c-8.14-13.26-17.86-19.95-29.24-19.94c-3.65,0-9.33,3.72-12.18,4.1
		c-15.43,1.18-45.88,2.09-91.36,2.31c-3.67,0.02-9.35-0.75-17.06-2.74c-7.73-1.98-13.41-3.2-17.06-3.2
		c-10.56,0.01-19.85,7.94-28.02,23.57c-7.16,13.7-10.98,26.79-10.98,39.27c0,12.04,0.98,19.96,2.85,23.93
		c2.94,6.24,9.33,9.4,19.49,8.8c11.78-0.7,21.11-4.52,27.21-11.3c2.85-2.98,6.4-9.45,10.16-18.57c2.66-6.47,5.68-9.83,9.33-9.97
		c0,0,2.03,0.72,6.1,2.15c-0.42,22.65-1.17,37.07-1.63,43.01c-1.79,23.38-5.81,50.26-10.98,80.41
		c-5.36,31.32-10.14,51.9-14.21,60.13c-0.8,2.13-4.45,6.5-10.56,13.26c-5.1,5.64-7.71,10.49-7.71,14.58
		c0,17.53,4.86,28.58,15.01,32.93c10.16,4.37,30.47,3.64,60.51-1.5c37.77-6.46,60.93-12.31,69.44-17.46
		c11.31-6.84,17.06-20.2,17.06-40.92C1253.95,387.4,1243.39,380.98,1236.89,374.28z M1568.7,346.35
		c-15.84-42.61-23.56-78.21-23.56-107.27c0-14.7,2.03-26.36,6.5-35.41c2.43-5.16,6.5-10.72,12.18-16.1c4.41-4.18,6.5-7.71,6.5-10.59
		c0-15.05-22.34-22.35-66.61-22.34c-14.61,0-27.29,1.54-38.17,4.48c-14.94,4.03-22.34,10.97-22.34,20.36
		c0,6.14,3.75,10.88,10.98,14.11c7.68,3.44,11.36,9.98,11.36,20.08c0,7.18-4.06,11.79-11.76,13.49c-2.85,0.67-10.15,1.25-22.76,1.88
		c-12.99,0.64-21.52,0.4-25.17-0.42c-7.73-1.97-11.78-7.55-11.78-16.32c0-6.42,3.65-12.94,10.96-18.81
		c7.32-5.87,10.98-11.21,10.98-15.82c0-15.47-22.34-22.92-66.61-22.82c-15.01,0.03-27.65,1.76-38.17,5.01
		c-14.99,4.62-22.74,12.29-22.74,22.7c0,6.46,2.45,10.71,6.9,13.07c7.31,3.73,11.38,6.06,12.58,7.09c4.47,5.18,6.5,13.94,6.1,26.41
		c-0.16,5.42-0.24,8.13-0.4,13.56c-0.82,0.05-3.24,16.86-7.32,51.18c-4.44,37.25-10.56,63.02-17.86,76.15
		c-0.8,1.95-4.64,5.76-10.96,12.22c-4.88,4.99-7.31,9.59-7.31,13.34c0,18.69,8.11,29.44,23.95,32.5c8.53,1.6,25.99,0.25,51.58-3.7
		c4.07-0.63,9.77-1.49,17.06-2.24c7.69-0.8,13-1.61,16.24-2.09c17.46-2.61,30.07-6.94,37.77-12.57
		c10.13-7.41,15.43-19.62,15.43-36.24c0-3.8-3.01-8.28-8.93-12.77c-6.88-5.22-10.75-9.96-11.78-12.85
		c-1.35-3.78-2.03-16.45-2.03-37.39c0-14.43,0.8-23.35,2.43-26.54c2.85-7.38,11.38-11.4,24.79-12.37
		c12.99-0.94,15.83,3.43,15.83,14.13c0,7.68,1.22,19.38,3.25,34.55c2.03,15.16,3.25,26.71,3.25,34.56c0,2.73-3.27,7.1-10.16,12.61
		c-6.73,5.39-10.16,11.5-10.16,16.35c0,13.85,8.53,21.33,25.99,24.17c5.28,0.86,20.31,0.62,45.88-0.03
		c54.03-1.38,80.82-9.77,80.82-26.68C1591.44,370.53,1583.73,359.71,1568.7,346.35z M1835.13,333.67c-0.61-9.5-0.82-15.51-0.82-17.9
		c0-7.89-6.9-19.88-15.03-20.26c-2.83-0.13-6.48,2.42-10.96,7.65c-4.46,5.23-9.74,7.7-16.64,7.39c-1.22-0.05-2.85-0.13-4.88-0.56
		c-3.65-1.16-12.6,0.82-15.84,0.7c-39.4-1.56-58.89-15.99-58.89-43.48c0-11.59,4.46-17.44,12.99-17.27
		c7.73,0.15,13.36,3.14,17.06,8.65c3.82,5.7,8.13,8.51,12.58,8.63c6.9,0.19,11.88-4.72,15.43-14.59c2.48-6.88,3.65-14.58,3.65-22.24
		c0-4.98-2.03-7.35-6.08-7.43c-4.47-0.09-11.38,7.07-15.84,6.99c-10.98-0.21-20.33-2.34-28.04-6.4
		c-8.93-4.71-13.39-10.68-13.39-17.87c0-1.63,0.4-2.93,0.8-4.56c1.22-4.23,2.85-6.83,5.68-7.79c3.58,0.03,5.37,0.05,8.95,0.08
		c19.49,0.17,34.1,3.3,44.26,9.06c4.05,2.36,9.75,7.41,17.46,15.9c5.28,5.75,11.38,8.58,18.68,8.76c7.71,0.19,13.7-2.73,17.86-8.31
		c3.29-4.41,4.88-10.34,4.88-17.41c0-11.11-2.4-21.33-7.31-30.61c-6.37-12.04-15.43-18.03-27.21-18.04
		c-8.53,0-23.54,0.66-44.26,1.61c-20.71,0.97-35.74,1.59-45.08,1.58c-6.9-0.01-23.63-1.23-30.06-1.29
		c-16.9-0.17-31.29,1.62-43.05,5.09c-14.17,4.17-21.11,10.85-21.11,19.52c0,4.81,1.74,8.93,4.88,10.94
		c3.79,2.43,7.73,3.88,10.16,4.86c4.88,2.92,8.34,10.27,9.75,21.41c0.69,5.42,0,11.69-0.42,18.86c-1.3,33.66-1.95,50.67-3.25,85.04
		c-0.8,20.31-3.23,33.08-6.9,38.1c-3.08,4.01-4.62,6.02-7.71,10.05c-0.8,1.35-4.47,4.7-11.38,10.44c-4.06,3.37-6.08,7.11-6.08,11.52
		c0,10.85,6.9,16.62,20.71,16.69c30.54,0.28,45.81,0.59,76.35,1.64c10.96,0.33,22.37,1.05,34.12,1.24
		c14.17,0.22,25.17,0.84,33.3,1.29c29.24,1.62,46.3,1.62,51.58-1.1c13.39-7.29,20.29-25.15,20.29-53.09
		C1836.34,350.97,1835.71,342.77,1835.13,333.67z M2142.56,450.64c0,2.85-2.45,4.69-6.9,6.46c-3.9,1.49-5.85,2.23-9.75,3.7
		c-4.88-0.74-13.06-1.8-23.96-2.35c-9.29-0.47-17.06-1.41-23.56-2.79c-28.02-5.94-47.51-19.77-58.06-42.06
		c-5.28-10.95-9.99-32.81-14.61-64.93c-3.88-26.99-10.98-45.05-20.71-53.53c-3.25-2.83-7.34-3.85-11.78-3.14
		c-7.68,1.23-10.98,4.88-9.75,11.12c5.68,34.75,11.11,56.52,17.46,64.26c6.52,7.94,16.66,17.2,16.66,24.96
		c0,20.31-5.7,31.67-16.66,34.74c-8.5,2.38-31.67,0.51-69.44-4.02c-30.87-3.7-51.77-7.98-61.72-13.83
		c-10.11-5.94-15.06-17.04-13.81-31.69c0.29-3.34,2.83-7.05,7.71-10.85c6.1-4.73,9.33-7.62,10.56-9.26
		c3.65-6.31,8.47-22.69,13.81-49.29c4.79-23.87,10.18-48.04,10.96-68.19c0.85-21.76-4.46-37.63-10.96-42.19
		c-2.43-1.08-6.39-2.69-10.16-5.29c-3.16-2.18-4.88-6.53-4.88-11.61c0-9.16,7.06-16.11,21.13-20.57c11.3-3.58,25.57-6.11,43.03-5.38
		c6.82,0.29,10.24,0.43,17.06,0.72c23.96-1.01,39.4-1.35,45.5-1.34c22.32,0.03,42.24,4.09,59.29,12.46
		c21.06,10.35,31.67,25.25,31.67,44.82c0,24.17-13.81,42.91-41.42,54.64c2.85,8.07,8.53,14.16,17.46,18.75
		c13.41,6.9,19.91,10.3,20.31,10.34c10.96,9.95,19.44,20.04,24.77,30.34c4.75,9.17,9.07,21.65,12.18,36.66
		c4.6,22.19,11.38,42.24,20.71,59.79c0.4,1.29,4.12,5.64,10.56,13.93C2140.12,442.32,2142.56,447,2142.56,450.64z M1988.23,219.25
		c0-17.81-7.71-27.07-23.54-27.44c-6.9-0.16-14.21,4.99-13,11.07c1.3,14.69,1.95,22.06,3.25,36.84c0.4,6.09,2.85,9.44,7.31,9.69
		c8.13,0.45,14.62-2.83,19.51-9.4C1986.15,234.09,1988.23,226.89,1988.23,219.25z"/>
	<path d="M897.66,772.1c0.58,11.25,1.22,21.04,1.22,28.7c0,34.48-6.89,58.65-20.26,72.27c-5.26,5.18-22.27,11.34-51.44,18.44
		c-8.09,1.97-19.1,4.56-33.21,8.3c-11.71,3.1-23.09,5.26-34.01,7.63c-30.46,6.45-45.69,6.01-76.16,8.56
		c-13.77,1.23-20.66-5.74-20.66-19.86c0-5.74,2.03-10.75,6.08-15.48c6.89-8.03,10.52-12.74,11.34-14.56
		c3.08-5.55,4.61-8.33,7.69-13.89c3.65-6.91,6.08-23.9,6.89-51.14c1.3-46.1,1.95-69.36,3.25-116.31c0.4-10.02,1.09-18.82,0.4-26.43
		c-1.42-15.68-4.86-25.85-9.72-29.8c-2.43-1.27-6.55-3.36-10.14-6.51c-1.68-1.47-2.91-3.79-3.72-6.64
		c-0.08,0.08-0.14,0.24-0.23,0.31c-2.43,2.06-6.48,3.91-9.72,6.3c-6.08,3.89-11.54,13.36-16.2,27.68
		c-3.73,11.45-6.08,22.69-7.29,33.27c-5.19,49.65-7.78,74.28-12.97,123.18c0,16.25,2.03,27.37,5.68,33.02
		c6.89,8.18,16.6,17.43,16.6,26.78c0,20.03-3.25,33.05-9.32,40.09c-6.08,7.04-20.76,9.58-37.67,13.59
		c-4.14,0.98-10.14,2.19-17.01,2.42c-27.95,0.92-45.8-0.05-53.07-1.44c-9.3-1.79-15.4-5.53-18.63-10.99
		c-6.89-8.67-10.52-21.86-10.52-39.52c0-6.78,2.83-12.6,8.9-17.43c5.03-4.06,7.54-6.1,12.57-10.2c0.4-0.91,0.8-2.26,0.8-4.53
		c0-4.09-1.21-12.28-3.64-23.7c-2.59-12.97-3.89-19.48-6.48-32.52c-3.25-17-4.06-25.75-4.46-26.67
		c-3.23-12.48-7.88-18.77-13.37-18.78c-6.66-0.01-13.38,15.17-19.85,45.5c-6.08,28.52-9.32,44.71-9.32,48.82
		c0,4.08,0.41,6.83,1.63,8.72c6.88,8.99,16.6,19.38,16.6,28.9c0,23.11-4.46,37.37-13.37,43.25c-7.69,5.06-26.4,6.93-54.67,4.77
		c-4.39-0.34-14.18-0.41-28.75-2.12c-11.34-1.33-20.24-4.4-25.12-6.38c-12.49-5.06-25.48-10.75-31.18-19.17
		c-5.13-7.57-8.1-18.83-8.1-33.65c0-4.49,2.65-9,7.69-13.55c6.07-5.49,9.32-9.34,10.53-11.42c2.84-5.88,5.27-14.56,6.48-26.59
		c0-1.08,0-1.63,0-2.71c0-38.9-1.96-75.18-6.48-108.9c-5.16-38.39-12.15-63.08-21.46-74.76c-6.89-6.35-16.2-9.86-16.2-25.79
		c0-13.19,7.75-21.7,23.09-25.95c10.51-2.92,23.09-3.93,38.07-2.56c44.15,4.04,66.02,15.74,66.02,37.58
		c0,6.96-1.62,12.43-5.26,15.42c-6.07,5.17-9.72,8.13-10.13,9.48c-0.8,2.26-1.21,5-1.21,7.32c0,3.23,2.03,11.71,6.48,25.44
		c8.5,26.5,14.98,39.83,19.85,40.15c5.66,0.37,11.74-3.41,17.82-11.85c6.07-8.44,9.41-16.23,9.72-23.09
		c0.54-11.86-1.21-22.3-5.67-30.42c-2.03-3.35-6.07-8.66-12.96-16.03c-4.86-5.39-7.4-10.75-7.69-15.77
		c-1.27-22.34,17.41-32.83,54.68-31.62c14.98,0.49,25.52,2.13,32.39,4.59c11.75,4.46,17.83,13.41,17.83,26.47
		c0,5.6-2.83,11.62-8.51,17.6c-5.66,5.96-8.49,10.08-8.49,13.35c0,5.58,1.63,13.52,5.26,23.76c3.65,10.27,7.29,17.72,10.54,21.9
		c4.44,6.99,9.3,14.41,15.78,14.43c1.22,0,5.68-7.81,13.37-23.09c7.69-15.27,11.34-25.02,11.34-28.26c0-5.56-3.25-9.72-10.14-12.97
		c-6.87-3.25-10.12-9.79-10.12-19.1c0-12.59,6.79-21.76,19.86-28.43c9.65-4.92,20.64-7.52,33.21-7.67
		c31.2-0.36,49.28,6.79,54.11,22.15c3.23-6.7,9.29-12.24,18.29-16.41c11.72-5.43,26.16-8.55,42.93-9.05
		c6.4-0.19,23.09-0.21,29.98-1.27c9.32-1.43,24.32-4.68,44.96-9.39c20.65-4.71,35.64-8.11,44.15-9.56
		c11.75-1.99,20.82,4.52,27.14,19.1c4.91,11.3,7.29,24.07,7.29,38.46c0,9.17-1.55,17.13-4.86,23.65
		c-4.17,8.22-10.14,13.42-17.83,14.97c-7.29,1.48-13.37-0.82-18.63-7.26c-7.69-9.52-13.37-15.11-17.41-17.47
		c-10.14-5.67-24.72-7.07-44.15-3.71c-3.57,0.62-5.35,0.92-8.91,1.53c-2.83,1.85-4.46,5.73-5.66,11.8c-0.4,2.33-0.82,4.21-0.82,6.47
		c0,9.91,4.47,17.26,13.37,21.87c7.66,3.97,17.01,4.88,27.95,2.78c4.46-0.86,11.34-11.94,15.8-12.8c4.04-0.78,6.07,1.92,6.07,8.54
		c0,10.15-1.17,20.58-3.64,30.24c-3.56,13.9-8.51,21.55-15.4,22.96c-4.46,0.91-8.76-1.85-12.55-8.49
		c-3.73-6.53-9.32-9.23-17.01-7.76c-8.51,1.63-12.97,10.51-12.97,26.06c0,36.87,19.44,51.45,58.73,42.72
		c3.23-0.72,12.15-5.75,15.8-5.28c2.03-0.01,3.64-0.37,4.86-0.65c6.89-1.57,12.15-6.25,16.6-14.16c4.46-7.93,8.09-12.23,10.94-12.88
		c8.09-1.85,14.98,11.15,14.98,21.01C896.85,753.04,897.06,760.51,897.66,772.1z M1186.34,553.4c8.11-1.73,15.4,2.59,21.46,12.94
		c6.08,10.34,13.37,14.52,21.06,12.81c16.2-3.61,33.21-20.71,33.21-36.33c0-16.39-0.8-26.84-1.61-31.63
		c-3.25-14.93-10.06-21.24-20.66-20c-3.51,0.41-9.72,7.58-12.95,8.2c-2.85,0.55-10.19-0.82-22.29-5
		c-11.65-4.02-24.3-5.15-36.86-2.79c-37.67,7.08-70.12,31.53-96.38,74.34c-23.92,39-36.06,78.95-36.06,119.05
		c0,38.85,12.26,69.55,36.46,90.94c25.51,22.55,57.1,27.89,93.97,17.33c28.35-8.12,51.02-21.75,68.03-40.04
		c18.13-19.49,27.55-42.91,27.55-69.63c0-30.6-4.86-50.18-14.58-59.07c-2.03-1.45-4.46-2.03-7.29-1.36
		c-4.86,1.15-15.1,8.16-30.38,20.95c-14.97,12.53-26.32,19.89-33.21,21.63c-28.35,7.16-42.53-7.66-42.53-44.9
		c0-13.6,4.54-27.08,13.77-40.29C1157.2,566.04,1170.55,556.77,1186.34,553.4z M1578.72,653.45c3.25,4.93,4.71,11.86,4.06,20.83
		c-1.01,13.96-12.7,24.45-34.01,31.9c-14.13,4.94-31.2,8.65-51.44,10.65c-20.26,2-34.84,2.22-43.75-0.14
		c-14.98-3.52-22.27-11.26-22.27-26.69c0-5.65,0.8-12.59,2.83-20.13c12.15-13.8,18.23-31.68,18.23-54.5
		c0-7.72-6.26-13.11-17.83-14.97c-8.81-1.42-18.63-1.08-29.15,1.09c0,0-3.65,1.48-11.34,4.19c-10.12,7.69-14.98,19.2-14.98,34.57
		c0,11.25,2.43,20.48,7.69,27.59c2.03,2.57,7.29,6.64,14.98,12.84c5.26,4.09,7.69,8.45,7.69,12.98c0,17.37-9.72,30.95-29.15,40.58
		c-9.32,4.91-26.73,10.26-51.44,16.61c-37.26,9.57-55.68,5.47-55.88-12.1c-0.18-15.78,7.01-30.55,21.46-43.87
		c17-15.66,32.2-44.12,44.95-84.12c11.02-34.56,16.6-63.61,16.6-87.17c0-9.22-1.63-16.24-5.26-21.81c-2.03-2.94-4.89-6.14-9.32-8.94
		c-3.6-2.28-5.28-4.18-5.28-5.66c0-8.1,14.69-17.94,43.35-28.27c24.53-8.84,42.53-13.58,53.87-14.26
		c19.03-1.13,33.61,3.58,43.73,11.55c4.46,3.66,11.34,12.46,20.26,26.48c2.83,4.44,6.07,13.45,10.12,27.05
		c15.8,53.69,31.58,94.69,47.39,122.06c2.03,3.87,6.13,8.22,12.15,12.05C1572.84,647.59,1576.69,651,1578.72,653.45z M1439.39,545.1
		c0-1.81-2.41-7.94-7.29-17.83c-4.4-8.93-10.52-12.92-18.23-11.53c-4.46,0.8-9.37,6.74-14.58,18.28c-4.47,9.92-6.48,17.33-6.48,22.1
		c0,2.2,3.65,2.59,10.54,1.25c3.23-0.63,12.95-3.6,16.2-4.21c5.26-1,8.91-1.32,10.12-0.81
		C1436.16,550.77,1439.39,548.36,1439.39,545.1z M1863.78,517.21c3.89-5.6,5.83-8.4,9.72-14c4.86-9.3,17.83-7.96,17.83-21.8
		c0-7.81-4.09-14.15-12.15-18.86c-9.97-5.83-26.82-10.04-50.64-12.61c-17.36-1.87-31.65-0.8-42.93,2.08
		c-14.03,3.58-21.06,10.32-21.06,19.65c0,5.17,1.68,9.81,4.46,12.05c3.53,2.85,7.69,4.69,10.12,5.9
		c10.14,8.04,17.83,18.79,22.29,32.12c1.21,6.4,2.03,12.44,2.83,18.13c0.16,0.29,0.24,0.44,0.4,0.73c0,0.7,0,1.05,0,1.76
		c0.8,5.35,1.22,9.61,1.22,12.07c0,6.68-1.63,11.81-4.86,15.02c-3.25,0.74-6.08-0.23-8.91-2.59
		c-10.94-10.14-22.12-30.43-33.21-60.23c-10.24-27.52-23.16-44.93-34.43-52.93c-8.37-5.93-27.26-11.34-56.7-12.4
		c-17.33-0.62-31.65,1.34-42.93,4.94c-14.03,4.48-21.06,11.66-21.06,20.98c0,5.16,1.72,9.57,4.86,11.72
		c3.73,2.55,7.69,4.12,10.12,5.15c8.91,6.22,12.64,20.48,10.94,42.37c-1.16,14.96-3.2,31.9-6.08,50.55
		c-3.54,22.9-9.32,48.27-17.41,75.83c-3.73,3.41-5.59,5.13-9.32,8.57c-3.65,3.38-5.26,6.69-5.26,9.96c0,2.75,0,4.13,0,6.88
		c0,5.45,1.99,10.54,4.46,14.35c3.35,5.18,9.9,9.69,19.84,12.75c11.24,3.45,22.27,5.25,33.21,5.16c27.95-0.24,46.74-0.34,54.67-0.83
		c16.86-1.06,30.94-1.52,37.67-4.38c8.43-3.59,12.97-10.99,12.97-21.36c0-3.93-0.35-8.32-1.22-12.94c-0.74-3.94-3.64-8.1-7.29-12.26
		c-3.73-4.23-5.59-6.33-9.32-10.53c-2.83-3.35-6.8-13.35-11.75-28.98c-5.09-16.09-7.29-26.81-7.29-32.79c0-3.87,1.63-5.9,4.46-5.77
		c9.32,0.44,19.44,12.19,30.78,35.24c18.23,36.95,29.15,58.82,33.21,65.3c15.8,24.05,33.61,37.68,53.47,40.57
		c17.81,2.6,29.56-1.09,35.24-11.32c3.64-6.62,5.26-19.38,5.26-38.16c0-14.09-3.61-34.63-10.94-61.11
		c-7.65-27.64-12.35-47.92-12.55-60.91c-0.05-3.5,0-4.96,0-4.6C1856.49,534.69,1858.12,524.99,1863.78,517.21z"/>
	<path d="M671.57,1189.73c0.61,11.53,1.28,21.87,1.28,29.25c0,33.28-7.18,55.86-21.13,67.27c-5.51,4.32-23.26,8.28-53.69,10.77
		c-8.46,0.69-19.91,1.53-34.68,2.73c-12.23,1-24.09,1.05-35.5,1.27c-31.8,0.45-47.7,0.11-79.49-1.99
		c-14.38-0.88-21.56-8.12-21.56-20.49c0-5.02,2.11-9.09,6.34-12.65c7.19-6.04,10.99-9.72,11.84-11.22
		c3.21-4.47,4.82-6.72,8.03-11.23c3.8-5.64,6.34-21.58,7.18-49.41c1.35-47.07,2.03-70.75,3.38-118.42
		c0.42-10.15,1.14-19.03,0.42-26.85c-1.48-16.06-5.07-26.76-10.14-31.27c-2.54-1.54-6.77-4.05-10.57-7.69
		c-1.77-1.69-3.05-4.18-3.89-7.14c-0.1,0.09-0.2,0.21-0.3,0.29c-2.51,1.8-6.76,3.19-10.16,5.23c-6.34,3.2-12.05,12.11-16.9,25.89
		c-3.89,11.07-6.34,22.12-7.61,32.63c-5.41,49.47-8.12,74.04-13.53,122.85c0,16.48,2.11,28.18,5.92,34.56
		c7.18,9.53,17.33,18.03,17.33,26.18c0,17.47-3.38,28.34-9.72,33.44c-6.34,5.1-21.06,4.69-39.32,4.79
		c-4.27,0.02-10.57-0.16-17.76-1.45c-29.17-5.21-47.81-10.7-55.38-13.77c-9.71-3.95-16.06-8.87-19.45-14.49
		c-7.19-9.42-10.99-21.92-10.99-37.2c0-5.88,2.96-10.07,9.3-12.55c5.24-2.08,7.87-3.17,13.11-5.34c0.42-0.79,0.85-2.04,0.85-4.32
		c0-4.08-1.27-12.61-3.81-24.68c-2.71-13.66-4.06-20.49-6.76-34.17c-3.38-17.79-4.22-26.68-4.65-27.72
		c-3.38-13.25-8.16-20.69-13.95-22.22c-6.93-1.83-13.97,11.27-20.72,39.3c-6.34,26.34-9.72,41.29-9.72,45.34
		c0,4.06,0.42,6.91,1.69,9.15c7.19,11.14,17.34,22.32,17.34,30.59c0,20.07-4.66,31.17-13.96,33.52c-8.03,2.02-27.53-2.05-57.07-14.1
		c-4.62-1.88-14.8-5.42-30.02-12.54c-11.84-5.54-20.82-11.68-26.21-15.67c-13.49-10.01-26.6-20.5-32.55-30.84
		c-5.39-9.36-8.46-21.2-8.46-35.02c0-4.17,2.78-7.1,8.03-8.97c6.22-2.2,9.73-4.24,10.99-5.58c2.96-4.09,5.5-11.46,6.76-22.43
		c0-1.04,0-1.56,0-2.59c0-37.19-2.04-72.66-6.76-106.48c-5.39-38.62-12.68-64.64-22.41-79.5c-7.18-8.84-16.91-16.16-16.91-30.97
		c0-12.25,8.05-16.77,24.1-14.65c10.97,1.45,24.09,5.28,39.74,11.92c46.08,19.57,68.91,36.6,68.91,57.75
		c0,6.75-1.69,11.56-5.5,13.31c-6.34,3.11-10.15,4.77-10.57,5.94c-0.85,1.92-1.27,4.43-1.27,6.66c0,3.14,2.11,11.98,6.76,26.74
		c8.88,28.43,15.64,43.55,20.71,45.4c5.92,2.16,12.26,0.37,18.61-6.09c6.34-6.47,9.82-13.21,10.15-19.8
		c0.57-11.48-1.28-22.17-5.93-31.37c-2.11-3.84-6.34-10.16-13.53-19.32c-5.07-6.64-7.73-12.58-8.03-17.58
		c-1.33-21.86,18.18-26.43,57.08-16.39c15.64,4.04,26.71,7.88,33.82,11.81c12.23,6.75,18.6,16.93,18.6,29.9
		c0,5.55-2.95,10.99-8.88,15.69c-5.92,4.72-8.87,8.18-8.87,11.4c0,5.53,1.69,13.75,5.5,24.75c3.8,11,7.6,19.24,10.99,24.11
		c4.65,7.93,9.73,16.39,16.49,17.75c1.27,0.25,5.92-6.62,13.95-20.42c8.03-13.82,11.84-22.96,11.84-26.22
		c0-5.57-3.38-10.29-10.57-14.8c-7.18-4.51-10.57-11.66-10.57-20.95c0-12.53,7.08-20.36,20.71-24.79
		c10.03-3.26,21.57-4.16,34.67-2.5c32.64,4.13,51.53,13.21,56.52,29.27c3.36-6.46,9.69-11.46,19.13-14.83
		c12.23-4.37,27.29-6.32,44.82-5.71c6.67,0.23,24.1,2.19,31.29,2.17c9.74-0.02,25.38-1.08,46.93-3.24
		c21.57-2.17,37.21-4.08,46.09-4.66c12.25-0.8,21.7,6.8,28.32,22.54c5.12,12.18,7.62,25.65,7.62,40.54c0,9.48-1.62,17.55-5.09,23.97
		c-4.34,8.05-10.56,12.82-18.6,13.58c-7.6,0.72-13.95-2.35-19.45-9.63c-8.02-10.73-13.95-17.21-18.18-20.14
		c-10.56-7.12-25.78-10.45-46.07-9.93c-3.72,0.09-5.58,0.14-9.3,0.2c-2.97,1.45-4.65,5.16-5.93,11.2c-0.42,2.32-0.84,4.16-0.84,6.46
		c0,10.15,4.65,18.4,13.95,24.54c8.02,5.28,17.76,7.64,29.17,7.01c4.65-0.25,11.83-10.71,16.48-11.02c4.23-0.28,6.34,2.75,6.34,9.57
		c0,10.44-1.24,21.02-3.81,30.65c-3.69,13.81-8.88,21.04-16.06,21.52c-4.65,0.31-9.15-3.14-13.11-10.55
		c-3.87-7.26-9.72-10.89-17.74-10.59c-8.88,0.33-13.53,8.68-13.53,24.64c0,37.87,20.28,56.56,61.3,52.73
		c3.37-0.32,12.67-4.38,16.48-3.44c2.11,0.22,3.81,0.03,5.07-0.11c7.18-0.8,12.69-5,17.34-12.66s8.46-11.69,11.41-12.07
		c8.46-1.08,15.64,12.91,15.64,23C670.73,1170.15,670.94,1177.8,671.57,1189.73z M1003.42,1137.47c3.39,4.81,4.91,12.42,4.23,23.07
		c-1.05,16.42-13.27,31.89-35.52,45.55c-14.76,9.07-32.55,17.11-53.68,23.34c-21.15,6.24-36.37,8.88-45.67,7.73
		c-15.64-1.46-23.25-10.67-23.25-27.82c0-6.28,0.84-14.06,2.95-22.61c12.69-16.06,19.03-37.41,19.03-63.95
		c0-8.99-6.55-14.32-18.6-15.87c-9.2-1.18-19.45-0.36-30.45,2.48c0,0-3.81,1.87-11.83,5.18c-10.57,9.13-15.64,22.38-15.64,39.89
		c0,12.82,2.53,23.24,8.02,31.23c2.11,2.86,7.62,7.41,15.64,14.18c5.51,4.46,8.04,9.25,8.04,14.27c0,19.27-10.16,34.46-30.45,44.86
		c-9.72,5.29-27.9,11.52-53.68,16.3c-38.91,7.21-58.14,0.15-58.34-18.37c-0.19-16.57,7.35-31.41,22.41-44.66
		c17.73-15.6,33.6-46.34,46.91-91.83c11.52-39.36,17.34-73.67,17.34-101.77c0-10.98-1.7-19.41-5.49-26.05
		c-2.11-3.5-5.09-7.28-9.74-10.64c-3.77-2.72-5.49-5.14-5.49-6.92c0-9.77,15.31-21.52,45.24-35.49
		c25.57-11.94,44.41-19.23,56.23-20.93c19.85-2.87,35.08-0.8,45.65,6.84c4.65,3.55,11.83,12.95,21.15,28.15
		c2.95,4.83,6.33,15.17,10.56,30.82c16.5,61.86,32.98,106.18,49.47,134.19c2.11,4.01,6.44,8.05,12.69,10.89
		C997.26,1132.29,1001.31,1135.2,1003.42,1137.47z M858,1041.24c0-2.17-2.51-9.33-7.62-20.97c-4.6-10.49-10.98-14.98-19.02-12.9
		c-4.65,1.2-9.78,8.66-15.22,22.66c-4.67,12.03-6.76,20.86-6.76,26.52c0,2.6,3.81,2.97,10.99,1.13c3.39-0.87,13.53-4.81,16.92-5.7
		c5.49-1.44,9.3-2.03,10.56-1.49C854.61,1048.22,858,1045.13,858,1041.24z M1192.8,898.74c6.2,10.94,14.79,15.07,24.94,11.99
		c18.18-5.51,27.06-19.76,27.06-43.33c0-12.8-3.88-24.9-10.99-35.61c-8.47-12.74-18.6-17.34-30.45-13.91
		c-3.79,1.1-9.72,6.96-12.67,8.25c-16.06,5.93-47.77,16.13-95.12,30.25c-3.81,1.14-9.74,2.06-17.76,2.32
		c-8.04,0.26-13.95,0.74-17.76,1.87c-10.99,3.25-20.66,14.36-29.17,33c-7.47,16.36-11.41,30.84-11.41,43.69
		c0,12.41,1.02,20.34,2.95,23.91c3.04,5.64,9.74,7.24,20.29,3.96c12.27-3.82,21.99-10.25,28.33-19.02
		c2.95-3.89,6.65-11.69,10.56-22.38c2.79-7.62,5.93-11.99,9.74-13.16c0,0,2.11,0.19,6.34,0.58c-0.44,24.25-1.22,39.78-1.7,46.2
		c-1.87,25.41-6.03,54.85-11.41,87.87c-5.58,34.26-10.57,56.77-14.8,66.18c-0.84,2.39-4.62,7.62-10.99,15.81
		c-5.32,6.84-8.02,12.31-8.02,16.52c0,18.15,5.07,28.72,15.64,31.64c10.56,2.93,31.71-0.95,62.99-11.01
		c39.31-12.64,63.42-22.42,72.29-29.41c11.75-9.26,17.76-25.19,17.76-48.58c0-8.93-10.99-14.45-17.76-20.73
		c-4.23-3.29-7.97-18.6-13.11-43.37c-4.56-21.99-8.04-44.9-11.41-68.56c-0.85-5.94-1.27-8.91-2.11-14.84
		c-2.37-20.54-3.56-30.8-5.93-51.32c2.97-2.15,4.23-2.94,4.23-2.94C1179.7,882.69,1186.42,887.47,1192.8,898.74z M1547.06,979.7
		c-16.5-49.42-24.52-92.01-24.52-127.6c0-17.98,2.11-32.54,6.76-44.1c2.53-6.61,6.76-13.83,12.67-20.96
		c4.58-5.52,6.76-10,6.76-13.51c0-18.34-23.25-25.78-69.32-20.36c-15.22,1.79-28.46,5.2-39.75,11.35
		c-15.59,8.5-23.25,18.91-23.25,30.6c0,7.67,3.9,12.78,11.41,15.13c7.96,2.49,11.83,9.82,11.83,22.43c0,8.94-4.23,15.61-12.25,19.52
		c-2.97,1.5-10.57,3.66-23.68,6.86c-13.53,3.3-22.41,4.76-26.2,4.49c-8.04-0.81-12.27-6.66-12.27-17.28
		c0-7.75,3.81-16.49,11.41-25.3c7.6-8.82,11.41-16.22,11.41-21.88c0-18.99-23.25-22.8-69.34-10.55
		c-15.64,4.16-28.78,9.75-39.73,16.48c-15.63,9.6-23.68,20.59-23.68,32.52c0,7.42,2.53,11.63,7.18,13.17
		c7.62,2.34,11.85,4.02,13.11,4.89c4.65,4.85,6.76,14.53,6.34,29.08c-0.17,6.32-0.25,9.48-0.42,15.82
		c-0.84,0.24-3.36,20.38-7.6,60.77c-4.61,43.84-10.99,74.3-18.61,90.64c-0.84,2.38-4.84,7.38-11.41,15.82
		c-5.09,6.53-7.6,12.14-7.6,16.38c0,21.29,8.46,32.33,24.94,33.79c8.88,0.74,27.06-3.02,53.69-10.59c4.23-1.2,10.15-2.86,17.76-4.56
		c8.01-1.79,13.53-3.29,16.9-4.2c18.18-4.92,31.29-11.3,39.33-18.91c10.53-9.97,16.06-25.46,16.06-45.91c0-4.68-3.17-9.91-9.3-14.71
		c-7.17-5.63-11.21-10.88-12.27-14.24c-1.41-4.44-2.11-19.67-2.11-45.11c0-17.5,0.86-28.48,2.53-32.65
		c2.97-9.46,11.85-15.87,25.8-19.26c13.53-3.28,16.48,1.43,16.48,14.71c0,9.54,1.28,23.79,3.39,42.13
		c2.11,18.35,3.37,32.41,3.37,42.15c0,3.4-3.36,9.43-10.57,17.73c-7,8.05-10.56,15.29-10.56,21.26c0,17.09,8.88,25.61,27.06,25.78
		c5.49,0.05,21.13-2.81,47.77-7.28c56.23-9.43,84.13-22.86,84.13-45.02C1570.73,1008.13,1562.71,993.72,1547.06,979.7z
		 M1824.36,953.33c-0.63-10.8-0.84-17.55-0.84-20.25c0-8.89-7.18-23.05-15.64-24.1c-2.95-0.37-6.76,2.26-11.41,7.92
		s-10.16,8.17-17.34,7.52c-1.26-0.11-2.95-0.26-5.07-0.83c-3.81-1.49-13.11,0.53-16.48,0.31c-41.02-2.7-61.3-18.46-61.3-50.58
		c0-13.53,4.65-20.45,13.53-20.24c8.02,0.19,13.89,3.74,17.74,10.18c3.98,6.64,8.46,9.98,13.11,10.22
		c7.18,0.37,12.37-5.13,16.06-16.32c2.57-7.81,3.81-16.58,3.81-25.36c0-5.73-2.11-8.56-6.34-8.85c-4.65-0.32-11.83,7.65-16.48,7.41
		c-11.41-0.59-21.15-3.21-29.17-8.02c-9.3-5.59-13.95-12.53-13.95-20.94c0-1.91,0.42-3.42,0.84-5.32c1.28-4.95,2.95-7.96,5.93-9.04
		c3.72,0.08,5.58,0.13,9.3,0.25c20.29,0.62,35.52,5.02,46.07,12.23c4.23,2.96,10.16,9.1,18.18,19.35
		c5.51,6.96,11.85,10.63,19.45,11.46c8.04,0.88,14.28-1.88,18.6-7.71c3.43-4.64,5.09-11.15,5.09-19.14
		c0-12.55-2.51-24.38-7.62-35.49c-6.63-14.4-16.06-22.3-28.32-23.47c-8.88-0.85-24.52-1.52-46.09-1.58
		c-21.55-0.07-37.19,0.37-46.93,0.2c-7.18-0.12-24.59-1.65-31.29-1.68c-17.55-0.07-32.57,2.51-44.8,7.14
		c-14.73,5.59-21.99,14.11-21.99,24.55c0,5.8,1.81,10.65,5.07,12.86c3.84,2.61,8.04,4.19,10.57,5.2
		c5.07,3.22,8.66,11.81,10.14,25.06c0.72,6.44,0,13.98-0.42,22.58c-1.35,40.3-2.02,60.67-3.37,101.85
		c-0.86,24.36-3.39,40.69-7.2,47.71c-3.21,5.65-4.81,8.47-8.02,14.13c-0.86,1.87-4.65,6.69-11.83,15
		c-4.23,4.89-6.34,10.01-6.34,15.8c0,14.26,7.18,21.08,21.55,19.9c31.8-2.44,47.7-3.16,79.49-3.33c11.41-0.13,23.28,0.35,35.5,0.22
		c14.77-0.16,26.22,0.47,34.68,0.98c30.43,1.83,48.19,2.34,53.69-1.14c13.95-9.35,21.13-32.6,21.13-69.62
		C1825.64,972.13,1824.96,963.65,1824.36,953.33z M2144.38,1159.03c0,2.97-2.53,3.92-7.18,4.07c-4.06,0.09-6.09,0.17-10.16,0.36
		c-5.07-2.53-13.6-6.54-24.94-10.58c-9.69-3.45-17.76-6.75-24.52-10.13c-29.17-14.55-49.46-34.76-60.44-63.84
		c-5.51-14.33-10.41-42.82-15.22-78.7c-4.05-30.2-11.41-51.68-21.57-63.5c-3.37-3.93-7.62-6.14-12.25-6.52
		c-8.01-0.66-11.41,2.59-10.16,9.66c5.93,39.16,11.57,64.03,18.18,73.97c6.8,10.22,17.34,24.73,17.34,34.15
		c0,24.66-5.95,37.23-17.34,39.1c-8.86,1.45-32.96-4.88-72.29-14.5c-32.13-7.86-53.94-14.51-64.25-22.7
		c-10.55-8.37-15.74-23.14-14.39-42.6c0.3-4.39,2.97-9.18,8.04-13.89c6.34-5.87,9.72-9.38,10.99-11.45
		c3.81-8.04,8.81-24.86,14.37-53.9c4.98-26.06,10.59-52.34,11.41-74.51c0.91-24.44-4.65-42.64-11.41-48.79
		c-2.53-1.58-6.63-4.01-10.56-7.49c-3.37-2.98-5.09-8.05-5.09-13.75c0-10.26,7.35-17.06,21.99-19.51c11.74-1.96,26.64-2,44.82,2.81
		c7.1,1.88,10.66,2.85,17.76,4.87c24.94,4.87,41,9.25,47.35,11.12c23.25,6.84,43.96,18.22,61.72,33.62
		c21.93,19.02,32.98,39.41,32.98,60.11c0,25.59-14.39,39.43-43.12,42.63c2.95,9.59,8.88,17.99,18.18,26.09
		c13.95,12.15,20.71,18.33,21.13,18.53c11.41,14.77,20.24,28.89,25.8,41.97c4.96,11.69,9.43,26.52,12.67,43.67
		c4.78,25.24,11.83,49.83,21.57,72.34c0.42,1.52,4.29,7.67,10.99,19.03C2141.86,1149.38,2144.38,1155.24,2144.38,1159.03z
		 M1983.74,855.61c0-19.24-8.04-31.73-24.52-36.49c-7.18-2.07-14.8,1.67-13.53,8.62c1.35,16.36,2.02,24.55,3.37,40.99
		c0.44,6.76,2.97,10.99,7.62,12.4c8.46,2.56,15.2,0.75,20.29-4.96C1981.56,871.03,1983.74,863.86,1983.74,855.61z"/>
	<path d="M954.36,1495.61c-6-2.86-10.12-6.69-12.15-10.44c-15.77-26.17-31.55-66.85-47.32-122.81
		c-4.04-14.15-7.29-23.47-10.12-27.79c-8.9-13.65-15.77-22-20.22-25.12c-10.1-6.69-24.66-8.27-43.68-5.37
		c-11.33,1.73-29.31,8.55-53.8,19.41c-28.61,12.69-43.28,21.65-43.28,30.16c0,1.56,1.66,3.63,5.26,6.19
		c4.45,3.16,7.29,6.66,9.32,9.83c3.64,6.03,5.24,13.54,5.24,23.19c0,24.68-5.56,54.43-16.57,87.74
		c-12.72,38.5-27.94,63.48-44.9,75.44c-14.42,10.17-21.61,22.61-21.43,37.16c0.2,16.33,18.6,24.05,55.81,21.45
		c24.66-1.73,42.07-5.06,51.37-9.46c19.42-8.6,29.12-21.75,29.12-38.89c0-4.46-2.43-8.78-7.69-12.88
		c-7.67-6.19-12.93-10.3-14.96-12.85c-5.26-7.09-7.69-16.3-7.69-27.56c0-15.4,4.86-27.03,14.98-35c7.67-2.87,11.31-4.47,11.31-4.47
		c10.52-2.42,20.34-3.05,29.14-1.88c11.55,1.53,17.79,6.39,17.79,14.4c0,23.64-6.07,42.48-18.21,56.49
		c-2.01,7.6-2.83,14.53-2.83,20.14c0,15.32,7.29,23.8,22.25,25.76c8.9,1.41,23.46-0.26,43.68-4.86
		c20.22-4.6,37.24-10.95,51.37-18.47c21.31-11.33,32.97-24.94,33.98-40.11c0.65-9.8-0.8-16.94-4.04-21.56
		C964.06,1501.27,960.2,1498.4,954.36,1495.61z M817.24,1421.49c-1.21-0.47-4.86,0.04-10.12,1.31c-3.23,0.78-12.93,4.24-16.17,4.99
		c-6.89,1.62-10.52,1.3-10.52-1c0-4.99,2.01-12.81,6.47-23.44c5.2-12.41,10.12-19.04,14.56-20.12c7.69-1.87,13.82,2.08,18.21,11.41
		c4.87,10.33,7.27,16.73,7.27,18.67C826.94,1416.78,823.71,1419.52,817.24,1421.49z M1243.62,1288.23c0-0.41-0.05,1.31,0,5.4
		c0.2,15.05,4.9,36.85,12.53,65.72c7.32,27.7,10.92,50.07,10.92,66.56c0,21.97-1.63,37.65-5.26,47.02
		c-5.66,14.51-17.39,24.06-35.18,28.36c-19.82,4.8-37.61-4.26-53.4-26.2c-4.04-5.97-14.96-27.19-33.16-63.35
		c-11.33-22.57-21.45-32.58-30.74-29.88c-2.83,0.82-4.44,3.72-4.44,8.16c0,6.89,2.2,18.54,7.27,35.22
		c4.96,16.31,8.9,26.39,11.73,29.3c3.72,3.55,5.58,5.32,9.3,8.9c3.65,3.52,6.56,7.33,7.29,11.56c0.87,5.02,1.21,9.93,1.21,14.42
		c0,11.87-4.46,21.82-12.93,28.65c-6.72,5.42-21.17,10.51-37.61,16.33c-8.1,2.87-26.71,8.3-54.6,15.2
		c-10.92,2.7-21.99,3.22-33.17,1.9c-9.94-1.18-16.47-4.7-19.82-9.57c-2.41-3.51-4.44-8.63-4.44-14.49c0-2.97,0-4.45,0-7.42
		c0-3.51,1.61-7.43,5.26-11.91c3.72-4.56,5.58-6.85,9.3-11.44c8.09-31.98,13.84-61.71,17.39-88.46c2.89-21.75,4.91-41.56,6.07-59.01
		c1.69-25.51-2.03-40.87-10.92-45.34c-2.43-0.47-6.51-1.15-10.1-2.91c-3.02-1.48-4.86-6.1-4.86-12.08c0-10.76,7.03-21.2,21.03-30.83
		c11.3-7.78,25.58-14.7,42.88-19.85c29.45-8.76,48.53-9.2,56.63-5.39c10.95,5.16,24.14,21.01,34.38,49.44
		c11.04,30.65,22.25,50.12,33.16,57.63c2.83,1.65,5.66,1.67,8.91-0.52c3.23-5.05,4.84-11.69,4.84-19.52c0-2.88-0.4-7.71-1.21-13.64
		c0-0.82,0-1.23,0-2.04c-0.16-0.29-0.24-0.43-0.4-0.72c-0.82-6.33-1.63-13.08-2.83-20.11c-4.46-13.86-12.15-23.4-22.25-28.88
		c-2.43-0.49-6.8-1.15-10.12-3c-2.62-1.47-4.44-6.38-4.44-12.49c0-11,7.04-21.68,21.03-31.43c11.3-7.88,25.55-14.86,42.88-19.82
		c23.81-6.82,40.64-9.08,50.57-6.59c7.98,2.01,12.13,7.59,12.13,16.69c0,16.12-12.95,20.31-17.79,33.31
		c-3.89,8.25-5.83,12.38-9.72,20.63C1245.22,1263.31,1243.62,1275.38,1243.62,1288.23z M1545.8,1137.12c0,5.59-1.22,10.02-4.05,12.9
		c-4.84,5.68-7.47,9.71-20.22,16.42c-10.05,5.29-16.33,8.76-19,11.27c-2.43,2.28-5.66,6.67-10.12,13.67
		c-15.77,19.93-25.48,32.76-29.12,38.79c-9.7,14.51-14.56,27.11-14.56,37.4c0,2.91,0,4.37,0,7.28c8.09,55.6,15.25,89.31,21.43,97.12
		c6.04,7.64,16.59,16.65,16.59,25.96c0,24.39-5.76,39.52-16.99,46.2c-8.48,5.04-31.15,10-68.76,17.73
		c-30.32,6.23-50.15,7.58-60.27,3.35c-10.1-4.23-14.96-15.61-14.96-34.07c0-4.29,2.43-9.59,7.29-15.9
		c6.07-7.88,9.7-12.6,10.91-15.04c3.65-8.16,7.6-27.31,12.15-56.04c3.93-24.84,6.47-43.79,7.67-56.81c0-1.28-1.98-4.4-6.07-9.5
		c-5-6.25-8.64-13.68-11.73-19.78c-3.91-7.73-10.51-18.3-17.39-30.23c-2.83-2.99-6.47-5.78-11.73-8.08
		c-8.49-3.92-12.93-5.99-12.93-5.99c-2.43-0.58-6.8-1.39-10.12-3.38c-2.65-1.59-4.46-6.62-4.46-12.83
		c0-11.19,7.06-21.83,21.04-31.24c11.3-7.6,25.55-14.13,42.88-18.4c23.8-5.87,40.63-7.26,50.55-4.23
		c8.01,2.46,12.15,8.31,12.15,17.5c0,11.29-6.08,16.1-11.33,21.97c-5.26,5.89-8.88,14.37-7.29,22.35
		c3.28,16.39,10.52,23.59,21.43,21.05c4.06-0.94,8.91-7.16,14.98-18.67c1.21-5.35,3.64-11.81,6.87-19.27
		c2.43-5.61,3.64-9.23,3.64-10.9c0-1.69-2.49-1.54-6.87-4.33c-3.11-1.99-4.86-6.87-4.86-13.14c0-21.34,21.45-37.19,63.9-43.34
		C1529.22,1112.14,1545.8,1119.49,1545.8,1137.12z"/>
	<path d="M434.85,1910.8c0,39.01-15.42,69.87-46.05,94.4c-30.27,24.24-68.77,37.16-115.39,37.01
		c-47.79-0.15-86.96-10.93-116.56-32.8c-33.2-24.52-49.54-60.19-49.54-105.02c0-22.42,12.24-31.96,36.14-29.11
		c7.58,0.9,15.85,5.1,23.89,10.84c8.72,6.21,20.4,9.59,36.14,11.03c26.8,2.44,40.21-7.88,40.21-30.62c0-7.77-8.74-18.85-26.8-34.73
		c-26.81-24.31-43.13-40.67-48.37-47.49c-18.07-21.39-26.81-42.04-26.81-60.75c0-33.57,14.09-56.52,42.54-68.89
		c25.03-10.87,55.95-12.54,92.66-6.22c11.66,2.01,28.6,6.93,50.13,13.39c22.08,6.62,39.05,10.43,51.28,11.68
		c20.98,2.15,31.47,23.64,31.47,64.97c0,23.4-11.07,34.57-32.63,32.78c-15.15-1.25-30.04-12.12-43.71-32.84
		c-13.47-20.41-26.81-32.27-39.63-34.1c-28.55-4.09-42.54,2.76-42.54,20.99c0,10.95,15.75,25.61,47.8,42.65
		c43.11,22.93,72.27,39.26,88,51.68C419.11,1845.03,434.85,1875.16,434.85,1910.8z M700.55,1668.42
		c-5.24,0.27-13.39,5.77-17.48,6.47c-22.15,2.52-65.86,5.6-131.13,4.99c-5.24-0.05-13.41-1.13-24.49-3.87
		c-11.06-2.74-19.23-4.49-24.47-4.67c-15.15-0.5-28.5,8.66-40.21,26.73c-10.27,15.84-15.73,30.98-15.73,45.83
		c0,14.36,1.38,23.85,4.08,28.86c4.18,7.75,13.4,12.48,27.97,13.05c16.9,0.66,30.3-2.88,39.04-10.49
		c4.07-3.32,9.18-10.94,14.56-21.78c3.82-7.7,8.16-11.67,13.41-11.6c0,0,2.92,1.04,8.76,3.07c-0.59,28.13-1.68,45.72-2.34,52.94
		c-2.6,28.47-8.32,60.65-15.73,95.74c-7.69,36.44-14.58,59.52-20.4,68.39c-1.17,2.33-6.45,6.8-15.15,13.45
		c-7.31,5.58-11.06,10.68-11.06,15.36c0,20.18,6.97,33.71,21.55,40.7c14.58,6.99,43.71,10.22,86.83,10.23
		c54.2,0.02,87.47-2.34,99.66-6.87c16.22-6.02,24.49-21.13,24.49-46.79c0-9.81-15.15-19.57-24.49-28.92
		c-5.82-5.14-11-23.5-18.07-53.39c-6.3-26.6-11.06-54.09-15.73-82.82c-1.17-7.2-1.75-10.81-2.92-18.04
		c-3.26-24.85-4.89-37.38-8.14-62.61c4.07-1.59,5.82-2.13,5.82-2.13c8.74-0.22,18.03,7.67,26.81,23.17
		c8.58,15.13,20.4,22.76,34.38,22.28c25.06-0.86,37.3-15.94,37.3-44.9c0-15.75-5.33-31.24-15.15-46.53
		C730.83,1676.08,716.87,1667.57,700.55,1668.42z M1084,1692.29c26.01,48.73,39.05,110.25,39.05,182.85
		c0,49.55-18.67,93.03-55.36,126.29c-34.58,31.35-76.94,45.73-126.48,45.77c-55.37,0.04-99.88-18.64-132.87-53.72
		c-29.74-31.63-44.89-69.94-44.89-117.86c0-52.8,15.14-101.77,45.46-148.78c34.88-54.08,82.19-89.6,141.63-102.72
		C1008.25,1611.37,1052.46,1633.2,1084,1692.29z M995.42,1815.79c0-24.33-5.82-50.67-16.9-78c-13.98-34.54-31.46-49.1-51.88-45.14
		c-12.24,2.37-21.39,12.65-27.97,30.05c-4.97,13.14-7.57,26.94-7.57,41.27c0,23.86,4.18,45.91,12.81,65.3
		c11.71,26.3,28.56,38.42,51.28,35.84C982.01,1862.07,995.42,1845.66,995.42,1815.79z M1553.13,1990.97
		c7,9.07,10.49,16.21,10.49,22.57c0,4.96-3.5,9.2-9.91,14.14c-5.59,4.24-8.39,6.37-13.98,10.62c-6.99,0.72-18.73,2.25-34.38,5.68
		c-13.3,2.91-24.49,4.25-33.8,4.25c-40.22,0-68.2-19.04-83.34-56.18c-7.59-18.22-14.34-56.34-20.99-112.82
		c-5.57-47.3-15.73-77.18-29.71-89.16c-4.67-4-10.52-4.52-16.9-1.84c-11.01,4.62-15.75,12.18-14,22.92
		c8.16,60.16,16.02,97.8,25.06,109.68c9.37,12.31,23.89,25.84,23.89,39.92c0,36.8-8.17,59.34-23.89,68.12
		c-12.2,6.81-45.46,10.23-99.66,10.51c-44.29,0.23-74.36-3.82-88.58-12.11c-14.47-8.43-21.65-26.48-19.82-51.77
		c0.42-5.78,4.09-12.59,11.08-20.12c8.74-9.43,13.41-15.15,15.15-18.25c5.24-11.75,12.15-41.21,19.82-89.07
		c6.89-43,14.61-86.02,15.73-122.58c1.18-38.52-6.41-64.63-15.73-70.57c-3.5-1.1-9.38-2.82-14.58-6.03
		c-4.45-2.75-6.99-9.86-6.99-18.76c0-16.04,10.18-30.58,30.31-42.97c16.26-10.01,36.71-19.1,61.77-23.39
		c9.8-1.66,14.69-2.49,24.49-4.11c34.38-9.29,56.53-14.52,65.27-16.32c32.06-6.61,60.65-5.16,85.09,4.52
		c30.2,11.97,45.46,35.79,45.46,69.48c0,41.59-19.82,77.35-59.44,107.04c4.09,13.32,12.25,22.25,25.06,27.42
		c19.22,7.76,28.56,12.11,29.14,12.1c15.73,15.14,27.9,30.8,35.55,47.56c6.8,14.88,13.02,35.61,17.48,61.03
		c6.61,37.7,16.33,70.78,29.73,98.13C1538.55,1972.69,1543.91,1979.03,1553.13,1990.97z M1342.14,1654.56
		c0-31.37-11.06-45.21-33.8-40.9c-9.89,1.88-20.4,13.27-18.65,23.6c1.87,25.47,2.8,38.28,4.67,64.02
		c0.59,10.65,4.09,15.82,10.49,14.83c11.66-1.79,20.96-9.7,27.98-22.87C1339.16,1681.35,1342.14,1668,1342.14,1654.56z
		 M2065.96,1971.06c-10.49-9.45-16.33-18.22-17.5-26.4c-7.57-44.08-16.36-88.82-23.89-133.76c-9.36-55.83-12.81-101.41-12.81-135.42
		c0-15.73,5.24-29.28,16.31-39.99c11.06-10.71,16.9-19.77,16.9-27.19c0-29.06-30.67-52.64-90.91-63.97
		c-26.7-5.02-45.46-5.48-55.95-3.17c-18.07,4.39-30.31,17.27-36.15,38.95c-3.27,28.82-4.9,43.3-8.16,72.38
		c-4.07,38.02-12.24,56.7-22.72,55.87c-7.57-0.59-15.39-12.66-23.32-35.91c-5.32-15.62-9.91-32.18-14.56-47.9
		c-2.92-8.23-8.74-30.06-16.9-65.27c-3.5-16.22-10.53-26.69-20.4-32c-11.07-5.96-34.97-10.25-71.7-11.22
		c-21.55-0.57-39.68,2.59-54.78,8.57c-21.54,8.54-32.63,22.76-32.63,42.1c0,0,2.32,7.28,6.99,22.65
		c20.4,13.28,30.88,35.58,30.88,67.34c0,26.35-4.03,71.05-12.81,134.12c-9.27,66.54-17.5,109.85-25.06,127.29
		c-1.17,3.47-6.39,10.13-15.15,20.23c-7.26,8.36-11.08,16.1-11.08,23.1c0,30.18,6.99,50.68,21.57,61.29
		c14.58,10.61,43.14,15.57,86.84,15.61c47.21,0.05,67.18-0.52,82.76-4.06c20.27-4.61,31.74-15.99,35.55-28.86
		c2.87-9.67,5.84-26.08,5.84-46.65c0-14.41-14.58-29.81-24.49-43.12c-2.92-4.87-7.83-16.11-9.32-30.44
		c-5.07-48.97,5.82-82.44,15.73-81.98c4.07,0.19,8.66,7.99,12.24,23.63c5.63,24.59,9.33,39.14,11.08,43.96
		c5.82,15.87,13.98,23.64,23.89,24.03c8.74,0.34,16.31-7.47,22.15-22.67c0.58-2.66,4.95-16.81,11.06-42.32
		c3.6-15,7.9-22.53,12.25-22.52c8.68,0.02,15.14,9.09,16.9,24.48c0,14.6,0,21.9,0,36.53c0,11.31-1.09,28.63-3.51,51.12
		c-2.79,25.84-5.24,40.63-9.32,45.23c-4.43,4.98-6.65,7.48-11.08,12.51c-4.07,4.64-5.24,10.02-5.24,16.1
		c0,20.31,14.58,33.34,43.71,40.2c13.41,2.74,34.38,4.8,63.53,4.94c29.71,0.14,50.69-1.67,64.09-4.07
		c29.73-6.06,44.88-17.34,44.88-36.28C2081.69,1988.97,2076.14,1980.24,2065.96,1971.06z"/>
</g>
</svg>
