<?xml version="1.0" encoding="utf-8"?>
<!-- Generator: Adobe Illustrator 25.0.1, SVG Export Plug-In . SVG Version: 6.00 Build 0)  -->
<svg version="1.1" id="Layer_1" xmlns="http://www.w3.org/2000/svg" xmlns:xlink="http://www.w3.org/1999/xlink" x="0px" y="0px"
	 viewBox="0 0 2500 2500" style="enable-background:new 0 0 2500 2500;" xml:space="preserve">
<style type="text/css">
	.st0{fill:#231F20;}
</style>
<path transform="translate(0.000000,2500.000000) scale(0.100000,-0.100000)" class="st0" d="M12140,23129c-35-14-69-48-91-91
	c-79-154,32-316,202-294l46,6l59-87c85-126,163-230,222-294l52-56l-398-6c-423-6-555-13-912-53c-477-52-1060-166-1494-291l-88-25
	l-77,81c-139,146-324,294-531,423c-338,211-742,354-1195,424c-311,47-353,45-375-22c-9-27-8-40,3-63c8-16,104-139,212-273
	c381-467,602-651,905-752c95-31,142-42,264-61c36-6,24-12-205-104c-466-188-878-393-1273-633c-71-43-132-78-135-78s-13,13-23,29
	c-27,49-185,166-308,230c-339,175-695,241-1059,196c-139-17-178-31-209-70s-28-78,9-119c33-38,323-237,483-330
	c235-139,488-211,671-191c40,5,57,4,50-3c-5-5-103-79-216-164c-271-203-530-414-874-713c-51-44-202-122-325-168
	c-301-112-600-174-1028-213l-183-17l-36,42c-48,57-99,81-170,81c-99-1-187-56-232-145c-35-70-38-115-11-171c31-64,103-99,205-99
	c114,1,185,37,225,115l19,37l88,7c320,25,594,65,792,116c138,35,140,38-87-125c-288-206-444-301-741-449l-93-47l-39,15
	c-78,32-182,13-231-41c-28-30-58-105-58-144c0-59,47-138,99-166c100-53,244-17,303,76c24,38,29,55,27,99l-3,54l165,84
	c217,113,329,181,534,323c94,65,171,117,173,116c2-2-54-72-125-157c-443-528-875-1179-1203-1813c-45-88-116-224-157-303l-74-142
	l-29,20c-16,11-59,35-97,53c-67,31-71,32-208,32c-268-1-405-54-795-309c-152-99-274-166-397-219c-34-14-71-35-82-46
	c-27-27-28-82-2-105c11-10,91-42,178-71s202-69,256-89c215-79,532-96,753-40c36,9,68,14,71,11s-22-75-56-160
	c-69-178-200-562-256-752c-21-71-40-132-41-134c-2-2-35,4-74,14c-40,10-142,30-227,44l-155,27l-20,52c-36,96-131,151-243,139
	c-143-15-239-120-220-243c14-97,100-158,237-170c97-8,116-3,174,47c36,31,52,39,73,35c14-3,67-13,116-21c173-30,195-36,195-50
	c0-8-88-72-195-142s-265-174-350-229c-86-56-158-97-161-92c-4,5-27,23-52,39c-62,39-127,40-203,2c-128-65-177-247-99-364
	c35-54,75-78,140-86c73-9,129,16,189,84c35,39,55,73,67,114l18,59l85,46c131,71,383,224,506,308c60,41,111,73,112,72
	c2-2-15-79-36-172c-52-226-85-390-125-635c-27-161-38-207-53-217c-10-7-54-36-98-64c-168-106-373-357-503-614
	c-131-259-198-489-347-1189c-107-504-109-511-205-830c-38-126-72-249-76-272c-7-48,9-98,37-113c58-32,121,7,240,146
	c163,192,215,278,404,677c158,335,253,517,379,727l81,135l7-255c8-298,30-624,62-905c22-196,22-202,4-271c-9-39-43-214-74-390
	c-78-447-103-589-104-590c0-1-15-5-34-8c-18-4-52-20-75-36c-87-64-126-172-97-271c26-90,98-160,185-180c77-17,204,57,254,150
	c41,75,46,144,15,212c-26,55-60,98-92,116c-17,9-17,16,8,149c14,76,40,222,58,323c21,117,35,177,40,165c4-11,17-71,28-134
	c67-363,209-913,325-1249c30-89,32-165,10-354c-25-215-83-462-150-643c-55-147-179-416-194-421c-99-31-185-100-211-168
	c-38-99,37-263,143-314c78-38,189-19,256,42c96,88,93,287-6,381l-30,28l80,181c121,277,195,519,237,776l12,74l73-179
	c40-99,108-258,152-355c78-173,79-176,62-200c-11-14-43-138-78-294c-105-472-129-646-138-980c-10-392,30-646,154-985
	c59-163,358-756,470-933c27-42,76-77,111-77c36,0,80,27,97,60s226,593,281,755c45,131,90,309,104,413c12,92,15,339,4,398
	c-8,46-12,51,101-96c122-157,258-322,384-464c58-65,124-138,145-163l39-45l-6-76c-3-42-18-147-32-232c-35-214-44-325-46-535
	c0-99-4-191-8-205c-5-18-16-26-44-32c-113-23-191-117-189-228c1-93,36-150,117-193c53-27,143-27,205,0c95,43,180,146,180,219
	c0,43-46,129-88,164l-36,29l3,198c3,236,12,340,48,574l27,176l196-186c172-164,373-346,481-436c36-30,36-30,42-130
	c6-99,31-234,82-436c87-348,243-668,436-896c199-235,608-504,947-623c127-45,176-39,196,27c5,16-28,130-103,360
	c-139,428-239,738-237,740c1,1,71-37,156-84c686-379,1477-687,2246-875c157-39,174-45,174-64c0-33,42-81,296-335l235-235l-17-61
	c-20-74-14-116,26-172c36-50,95-81,153-81c89,0,194,94,217,194c26,117-86,232-219,224l-59-3l-158,156c-88,85-188,186-224,223l-65,69
	l35-6c19-3,141-24,270-46c774-131,1533-164,2333-100l147,12l77-84c238-262,421-395,692-505c209-85,461-124,806-124
	c527,0,1180,90,1440,199c201,84,278,168,229,250c-22,37-17,35-189,72c-313,67-504,127-865,271c-274,110-441,170-539,194
	c-88,21-97,15,137,84c415,122,840,284,1277,485c105,48,295,132,423,186l233,98l92-30c51-16,179-64,285-107c151-60,191-80,186-92
	c-4-8-9-40-11-70c-6-73,17-115,86-157c99-60,207-51,284,24c47,45,67,91,67,155c0,150-180,267-314,203c-42-20-46-19-245,65
	c-75,31-160,65-190,75l-53,17l233,118c428,214,764,422,1129,697c58,43,111,82,117,86c8,5,31-5,59-23c111-77,289-142,449-165
	c182-26,610-15,782,21c104,21,354,104,446,148c215,103,511,348,537,445c13,51,4,82-32,104c-22,14-568,83-848,107
	c-210,18-523,10-655-16l-30-6l35,37c19,20,100,87,180,149c402,313,759,669,1117,1116c83,104,134,158,156,168c17,7,67,18,110,24
	c91,12,198,2,410-38l137-26v-29c0-105,121-197,244-187c141,12,251,156,216,284c-44,157-255,212-385,101l-40-34l-110,23
	c-61,13-158,29-217,36c-60,7-108,15-108,19c0,8,464,240,537,268l52,20l43-24c71-39,110-41,173-10c45,21,61,37,85,78
	c50,88,50,186-2,260c-61,86-214,81-300-10c-32-34-67-108-68-143c0-23-12-31-107-74c-60-27-186-88-282-137s-176-87-178-85
	s39,68,91,148c236,360,441,759,614,1198c55,141,229,652,258,760c9,32,13,35,44,34c181-8,482,99,714,253c186,124,438,403,544,602
	c112,211,173,520,176,888c1,158,0,162-23,187c-17,18-35,26-59,26c-30,0-48-15-190-161c-157-161-280-270-486-430
	c-153-118-340-283-413-364c-35-39-63-63-63-55s13,87,30,176c78,427,128,859,155,1346c5,82,11,121,21,129c8,6,14,24,14,40
	c0,78,142,380,312,664c186,311,230,375,258,381c76,15,154,80,181,150c37,97-12,248-94,291c-84,43-169,34-237-25
	c-100-85-109-216-23-329l24-32l-51-77c-104-153-345-565-383-654c-9-20-12,10-19,145c-41,911-211,1841-519,2838l-33,108l19,34
	c26,50,187,202,271,258c40,26,123,74,185,108c88,47,117,58,129,49c104-75,277-39,338,69c25,44,29,126,10,182
	c-45,134-189,203-291,140c-77-47-136-142-137-217c0-37-3-42-37-58c-87-41-256-142-329-196c-43-33-79-58-81-56c-2,1,8,41,22,87
	c32,105,74,271,119,468c19,83,54,222,77,310l41,159l44,30c61,43,88,100,89,184c0,58-4,72-30,110c-65,92-174,136-259,104
	c-49-19-108-71-131-116c-24-47-36-126-25-173c11-52,71-111,127-126l39-11l-57-232c-31-128-76-312-99-408s-61-233-84-303l-41-129
	l-84,224c-213,569-530,1225-880,1822c-44,76-81,141-81,143c0,3,40,48,88,101c222,245,334,400,418,577c162,344,248,829,215,1213
	c-21,244-65,439-211,952c-45,157-95,346-112,420c-32,146-50,180-98,180c-14,0-34-6-43-12c-9-7-69-110-133-228
	c-77-144-187-323-334-545c-321-485-434-691-523-952c-53-152-85-294-94-405c-3-43-9-78-12-77c-3,0-41,42-84,94
	c-43,51-131,151-195,222c-110,119-119,133-145,208c-56,166-94,495-83,740c12,309,62,527,242,1065l85,255l51,25
	c178,87,97,380-104,380c-83,0-163-61-194-149c-17-48-17-134,0-174c12-30,60-80,85-89c5-1-23-100-63-218c-125-372-192-631-228-885
	c-14-99-18-483-5-555c12-65-4-43-57,83c-103,243-146,392-212,735l-46,243l29,41c23,35,28,51,28,103c0,102-58,166-155,173
	c-45,3-61,0-90-20c-83-57-111-190-55-263c15-21,46-45,68-55l41-18l47-244c77-400,119-540,253-841l27-59l-113,99
	c-254,221-545,444-823,628c-171,113-452,285-467,285c-14,0-9,30,31,165c57,194,75,316,74,530c0,368-63,659-227,1054
	c-62,150-76,174-111,197c-20,13-30,14-59,4c-38-12-43-20-114-190c-23-52-62-140-87-195c-137-292-206-472-235-617
	c-37-181-25-399,31-539c10-27,14-49,9-49s-70,30-144,66c-122,59-142,72-200,135c-144,156-309,451-391,700l-49,147l26,30
	c52,63,45,165-17,227c-83,82-223,68-280-29c-29-49-34-126-11-179c17-41,79-96,117-104c16-3,32-10,37-17c5-6,28-72,52-146
	c48-148,142-345,232-482c32-49,52-88,45-88s-82,34-167,76c-566,278-993,436-1595,589c-486,124-928,201-1361,239
	c-106,9-172,20-193,30c-76,40-213,200-373,436c-83,123-84,126-75,165c17,77-25,170-92,205C12258,23142,12183,23146,12140,23129z
	 M12825,22160c315-20,626-58,910-111c152-28,486-101,482-105c-2-2-109,14-238,36c-619,105-1049,143-1644,143c-526,0-957-33-1460-112
	c-66-10-121-18-123-16c-11,10,281,84,377,96c243,30,426,49,576,58c94,7,190,13,215,15C12039,22171,12684,22169,12825,22160z
	 M13255,21896c774-58,1002-95,1560-252c687-193,1542-549,1920-799c202-134,548-402,807-627c1023-888,1889-2058,2652-3585
	c460-921,750-1733,990-2775c158-684,232-1272,243-1913c9-556-22-1011-112-1624c-73-494-109-654-225-1001
	c-363-1089-922-2132-1613-3010c-303-385-680-796-1022-1114c-141-131-134-115,26,57c735,791,1258,1605,1724,2687
	c295,686,479,1270,620,1975c141,706,198,1276,198,1980c1,495-25,907-89,1410c-43,347-130,838-200,1135c-14,58-29,134-34,170
	s-22,106-39,155c-16,50-55,182-86,295c-183,660-447,1344-756,1962c-51,102-89,190-89,207c0,20-9,37-28,53c-15,12-58,79-96,148
	c-545,990-1262,1850-2136,2561c-814,663-1716,1112-2770,1380c-821,209-1646,299-2610,286c-671-9-1143-54-1665-158
	c-1018-202-2013-663-2949-1363c-751-562-1374-1212-1928-2012c-408-590-808-1355-1105-2114c-424-1085-719-2313-817-3405
	c-54-590-49-1184,14-1750c115-1034,485-2241,965-3145c601-1132,1364-1982,2395-2667c884-588,2012-1062,3250-1368
	c1170-288,2409-396,3500-305c85,7,123,6,148-2c27-10,38-9,65,5c21,11,105,26,237,42c896,110,1842,369,2799,766c90,37,160,64,155,60
	c-24-22-224-158-336-229c-449-286-1033-566-1480-708c-998-318-1990-493-2967-523c-286-8-475-2-791,29c-749,74-1603,267-2325,527
	c-951,342-1973,897-2730,1481c-570,440-1137,1006-1606,1602c-414,526-804,1152-952,1530c-353,897-565,1833-649,2865
	c-20,249-17,1281,5,1595c80,1130,230,1874,578,2870c364,1044,851,1941,1580,2910c785,1043,1619,1824,2744,2569
	c559,371,1352,808,1590,876c160,46,477,124,570,139c159,27,1088,114,1445,135C12061,21923,13010,21914,13255,21896z M9300,21636
	c0-8-47-30-122-56c-669-235-1400-597-2015-996c-62-40-113-72-113-69c0,6,180,129,335,227c422,269,889,508,1375,705
	c173,71,516,201,533,202C9297,21650,9300,21644,9300,21636z M12975,21501c365-27,744-72,1025-122c167-29,167-29,43-54
	c-61-12-140-32-175-44c-69-23-212-101-290-158c-94-69-264-268-395-464c-70-105-85-154-60-193c27-41,65-42,185-2
	c173,57,264,75,497,97c268,25,389,48,520,100c192,77,325,176,410,309c46,72,85,158,85,189c0,32,15,33,92,11
	c632-183,1225-447,1777-790c72-45,131-85,131-91c0-5-43-9-98-9c-138,0-346-29-735-104c-57-10-69-10-79,1c-22,27-67,43-121,43
	c-72,0-135-39-177-112c-25-43-30-61-27-95c15-146,235-205,346-94c20,20,42,55,50,77l13,41l157,27c86,14,206,35,266,47
	c163,30,461,37,580,14c105-20,112-24,310-182c526-418,973-864,1384-1381c114-144,362-484,356-490c-2-2-30,2-62,9
	c-93,19-299,14-447-11c-176-30-257-54-518-159c-123-49-331-128-463-176c-270-99-290-107-305-134c-36-67,8-107,180-161
	c91-28,194-72,324-137c375-188,507-233,806-277c361-53,644-36,951,55c82,24,104,28,111,17c5-7,50-96,99-197
	c275-560,494-1118,669-1706c28-93,53-179,57-189c5-18,4-18-23,1c-52,37-188,100-269,126c-82,26-223,57-451,101
	c-174,34-331,82-554,172c-102,41-193,74-203,74c-28,0-57-37-57-73c0-23,12-49,41-87c23-30,79-119,125-196c105-178,181-280,275-370
	c107-102,188-155,361-238c272-131,393-167,751-223c128-20,181-32,187-43c22-43,124-630,165-950c38-305,85-859,85-1010v-44l-61,98
	c-109,178-168,248-399,477c-172,170-226,229-219,240c16,25,10,93-12,134c-54,102-156,167-264,168c-57,1-71-3-107-29
	c-24-16-56-51-72-77c-24-40-30-61-33-125c-3-66-1-82,19-117c13-21,42-53,66-69c54-38,149-47,236-22l57,17l67-59
	c37-33,144-138,237-233c198-201,287-325,385-534c34-72,73-154,87-184l26-54l-12-301c-6-166-18-380-26-476c-17-196-53-511-59-517
	c-2-2-7,24-11,59c-17,159-66,331-130,458c-40,79-159,247-248,351c-78,91-337,326-379,343c-61,26-112-8-112-72c2-192,27-876,35-942
	c43-355,162-647,331-811c76-74,228-165,323-194c37-12,40-15,37-46c-4-48-84-364-147-579c-198-680-535-1483-888-2115
	c-91-164-279-480-295-497c-4-4-8,66-8,155c-2,255-33,375-167,647c-56,113-65,126-95,134c-27,7-38,5-60-11c-22-17-31-38-53-139
	c-15-65-48-177-74-249c-150-417-161-465-153-648c4-89,11-129,35-197c36-105,92-192,144-223l38-23l-100-125c-205-254-425-502-664-748
	c-123-127-434-421-445-421c-3,0,15,84,41,187c25,104,66,284,90,402l43,213l37,24c68,42,114,123,125,218c25,211-196,336-379,215
	c-59-39-93-91-113-172c-15-58-15-76-4-125c16-74,74-135,144-154c42-11,46-15,42-38c-87-426-166-760-188-787c-23-29-99,59-223,261
	l-76,125l16,48c14,41,15,56,4,106c-14,70-58,133-104,153c-45,18-126,18-173-2c-56-23-91-62-108-121c-35-120,49-234,184-250
	c28-3,54-8,59-12c5-3,48-69,94-145c58-96,108-164,160-219l76-79l-96-45c-157-73-433-191-631-268c-210-83-576-215-596-215
	c-7,0,9,36,38,88c87,150,215,422,258,548c79,235,136,530,116,607c-3,14-18,39-32,56c-22,27-32,31-75,31c-45,0-71-12-292-137
	c-315-178-535-290-787-403c-405-182-818-401-1004-534c-95-68-266-234-336-328c-90-119-135-227-155-370c-7-55,7-51-235-69
	c-170-12-920-25-920-15c0,3,24,39,53,79c30,39,70,98,90,130c123,193,269,571,322,836c19,93,10,141-31,168c-45,29-79,11-198-105
	c-144-140-255-232-451-372c-267-190-389-286-464-366c-80-84-160-199-187-270l-18-46l-60,6c-284,32-651,89-961,151
	c-289,58-406,86-403,96c5,13,248,167,408,259c80,46,179,104,221,130c69,44,77,47,100,34c135-73,310,59,283,214
	c-10,60-50,119-100,148c-38,22-54,26-99,22c-68-6-138-47-179-106c-25-35-30-53-31-102c-1-72,14-59-240-205c-93-54-257-154-363-223
	c-186-120-195-124-235-119c-41,6-522,141-601,169l-39,14l70,42c187,110,376,282,511,465c174,233,329,503,373,649c18,58,19,73,9,99
	c-16,37-46,59-82,59c-15,0-152-31-305-69s-393-92-533-121c-397-80-576-129-775-210c-233-95-454-249-551-385l-22-29l-133,63
	c-839,398-1575,917-2178,1535c-73,76-131,139-129,141c2,3,36-4,74-16c218-63,442-64,709-3c61,14,205,45,320,68c256,53,287,61,316,85
	l22,18l-39,59c-21,32-43,64-49,70c-16,17-470,247-606,307c-292,129-522,177-844,177c-160,0-420-32-445-55c-16-14-25-3-127,152
	c-106,161-274,439-288,476c-8,20,18,22,135,7c41-6,159-17,262-25l186-15l34-34c62-62,160-70,245-21c88,52,117,168,61,252
	c-86,131-320,106-371-40c-5-12-14-16-29-13c-13,3-66,7-118,11c-110,6-393,36-399,41c-8,7,41,55,136,134l93,77l72-4c63-3,79-1,113,19
	c157,92,118,349-54,348c-114-1-214-95-215-203v-48l-85-68c-47-38-108-92-136-120c-27-28-53-51-58-51c-11,0-153,296-241,502
	c-68,158-227,571-222,576c2,1,36-13,77-32c99-46,207-73,359-92c270-32,483-61,695-96c226-36,294-26,319,45c15,42-10,78-119,169
	c-107,90-196,198-287,347c-28,48-89,144-135,214c-241,366-612,590-911,547c-111-16-193-46-251-96c-36-30-31-40-66,121
	c-70,315-122,645-149,950c-9,94-18,191-20,218c-3,26-3,47,1,47c3,0,55-31,117-69c61-38,176-107,256-154l145-85l-3-52
	c-5-64,10-100,59-144c65-59,156-71,217-27c75,53,112,205,66,268c-48,65-138,97-209,73c-35-12-38-10-188,78c-234,139-416,254-449,285
	l-30,27l5,423c5,423,15,589,58,957c53,463,140,950,246,1389l28,114l37-56c52-78,140-179,303-347c77-80,169-177,203-216
	c70-81,118-110,159-97c54,18,62,43,73,238c6,99,19,272,30,385c27,286,27,302,18,416c-18,234-130,470-282,596c-61,51-185,118-218,118
	c-10,0-18,2-18,5c0,11,127,361,189,523c479,1237,1104,2261,1914,3135c55,59,101,106,104,104c2-2-15-94-37-205c-42-208-59-370-60-555
	v-107l33-21c43-27,143-23,184,7c15,11,57,72,94,135s123,204,191,313c163,264,204,339,228,415c27,87,35,183,20,256
	c-18,89-82,220-116,238l-27,14l129,108c374,311,854,640,1269,870c233,129,719,364,731,353c4-5-156-227-300-417
	c-231-305-207-278-253-283c-57-7-127-51-163-100c-78-107-57-237,45-295c51-29,142-31,201-4c110,50,167,207,113,312l-20,41l56,71
	c31,40,104,137,163,216c297,400,345,461,408,522s78,70,170,102c227,80,569,172,840,226c238,48,772,119,819,109c9-1-41-29-112-60
	c-155-70-314-163-437-257c-270-205-555-596-655-898c-47-142-48-157-13-193c17-16,38-30,47-30c22,0,70,25,140,75
	c113,79,263,164,576,326c625,321,771,419,934,622c100,124,195,336,195,436v24l428-6C12633,21514,12893,21507,12975,21501z
	 M8740,21249c-8-5-100-61-205-125c-530-323-1113-744-1570-1134c-398-339-847-795-1205-1220c-467-556-947-1251-1295-1875
	c-590-1058-1025-2363-1194-3585c-113-819-145-1938-75-2690c33-361,103-829,174-1160c17-80,33-156,36-170l4-25l-11,25
	c-21,49-121,399-174,610c-145,580-221,1069-276,1775c-17,221-23,1020-10,1255c69,1225,326,2361,788,3475c310,750,825,1548,1500,2324
	c163,188,686,711,874,874c653,568,1293,1001,2024,1369C8435,21129,8828,21305,8740,21249z M17825,20353c187-124,447-316,620-458
	c356-292,787-727,1079-1088c67-83,79-104,84-145l5-47l-103,125c-195,235-343,395-614,665c-409,408-728,679-1176,1000
	C17534,20538,17578,20516,17825,20353z M18103,19937c820-663,1566-1524,2120-2447c686-1145,1137-2453,1301-3772
	c64-515,81-835,72-1403c-8-553-19-660-28-295c-19,684-115,1345-314,2140c-238,953-502,1672-931,2530c-513,1028-1071,1889-1723,2659
	c-173,205-311,353-530,570C17861,20127,17865,20130,18103,19937z M20442,17423c278-488,512-958,688-1383c432-1044,729-2239,826-3330
	c21-238,30-891,15-1145c-29-496-85-933-181-1415c-57-282-74-350-123-475c-34-87-44-129-68-285c-14-93-63-267-144-515
	c-300-911-695-1625-1300-2350c-113-135-353-405-360-405c-2,0,38,58,90,129c107,146,311,454,404,608c439,731,768,1575,1001,2563
	c32,135,92,378,133,540c173,678,269,1300,307,2005c13,237,13,782,0,1020c-76,1391-419,2703-1026,3917c-112,225-214,413-326,601
	c-32,55-58,101-58,103C20320,17629,20352,17581,20442,17423z M2857,13618c-3-8-6-5-6,6c-1,11,2,17,5,13
	C2859,13634,2860,13625,2857,13618z M2831,13354c-36-381-44-613-38-1088c6-432,17-659,52-1001c120-1185,446-2317,965-3356
	c60-118,134-274,165-345c137-308,328-681,495-963c33-56,56-100,51-97c-15,9-241,350-343,516c-327,532-591,1071-814,1663
	c-36,94-72,195-80,222c-7,28-34,109-59,180c-57,160-121,380-185,630c-161,629-258,1289-291,1980c-13,263-7,843,11,1090
	c20,286,76,792,86,782C2848,13565,2841,13469,2831,13354z M20579,7719c-325-723-782-1423-1325-2029c-164-183-253-264-404-366
	c-74-50-142-94-150-99s66,75,165,176c673,690,1245,1471,1687,2305c39,74,73,133,75,131S20607,7782,20579,7719z M4970,6134
	c353-428,814-890,1230-1235c568-469,1177-857,1955-1245c171-84,306-154,302-154c-14,0-326,130-517,215c-699,312-1265,654-1745,1055
	c-477,397-982,953-1309,1440C4799,6339,4807,6332,4970,6134z M18240,4761c0-11-224-180-377-284c-129-89-223-149-223-144
	c0,3,44,37,98,77c53,41,160,124,238,186C18162,4745,18240,4793,18240,4761z M8500,3490c8-5,11-10,5-10c-5,0-17,5-25,10s-10,10-5,10
	C8481,3500,8492,3495,8500,3490z M8420,3360c8-5,11-10,5-10c-5,0-17,5-25,10s-10,10-5,10C8401,3370,8412,3365,8420,3360z M8705,3255
	c567-205,1158-366,1746-474c512-95,837-127,1433-141c226-6,412-13,415-16c12-13-816,5-999,20c-740,64-1366,185-2039,396
	c-249,78-757,267-810,301C8430,3355,8429,3355,8705,3255z M16575,19276c-53-25-143-112-192-186c-129-193-329-645-455-1025
	c-242-731-368-1376-368-1884c0-163,0-164-27-200c-43-58-165-181-179-181c-22,0-29,103-28,405c0,183,9,426,23,657
	c30,477,23,546-62,599c-27,17-46,19-114,17c-77-3-85-5-112-33c-17-16-74-111-127-210s-121-218-151-265c-53-81-180-220-201-220
	c-5,0-13,39-16,88c-30,381-129,608-294,674c-48,19-76,23-173,23c-113,0-116-1-191-38c-85-41-142-98-213-207c-48-74-121-217-155-305
	c-13-33-27-64-32-69c-4-6-8,78-9,185c0,237-7,285-43,316c-22,19-39,23-90,23c-90,0-103-13-126-127c-49-239-192-593-291-721l-18-24
	l-5,24c-2,12-10,68-16,123c-23,196-92,422-159,520c-75,112-186,162-335,152c-195-12-315-110-431-352c-29-60-65-146-81-190l-29-80
	l-7,166c-8,192-18,227-71,252c-48,23-170,23-217-1c-32-15-37-24-51-87c-10-38-36-151-59-250c-100-424-225-822-367-1165
	c-71-172-218-479-257-536l-25-37l-7,28c-12,47,4,431,25,610c58,495,143,933,277,1428c29,107,44,182,42,210c-3,39-7,44-48,65
	c-56,28-147,30-206,3c-37-17-47-30-99-132c-32-63-69-133-82-157l-25-42l-55,50c-112,103-235,143-428,142c-146,0-244-23-353-83
	c-183-98-322-251-430-472c-104-212-145-379-146-597c-1-163,11-220,64-304l31-48l-62-187c-72-215-138-379-208-518l-49-98l-26,57
	c-30,68-88,270-110,383c-65,337-75,925-23,1394l12,105l120,84c177,124,287,217,415,349c220,226,339,417,395,629
	c64,247,20,550-101,683c-118,132-375,146-554,31c-276-177-511-758-651-1605c-17-105-32-191-33-192c-15-15-526-303-538-303
	c-3,0,3,53,13,118c91,588,148,1258,128,1518c-30,397-162,584-424,601c-185,12-302-52-555-306c-188-189-470-546-470-596
	c0-19,21-32,62-40c62-12,98,8,153,82c190,258,534,601,701,699c53,31,62,27,94-47c67-158,70-402,9-839c-34-248-167-1023-217-1269
	l-47-235l-137-87c-202-129-328-228-464-363c-300-300-408-546-421-956c-4-151-2-189,15-273c56-270,191-387,447-387
	c202,0,339,71,465,241c202,273,423,922,555,1634c14,77,31,167,38,199l12,60l250,138c291,162,294,163,300,156c3-2,0-51-5-107
	c-18-191-23-453-11-631c20-302,59-509,137-717c88-235,174-359,289-414c51-25,72-29,144-29c108,0,156,15,206,65
	c43,43,119,182,180,329c36,86,141,398,165,485l11,43l77-6c42-3,114-2,159,3c198,24,312,124,543,478c50,76,90,135,90,132
	c0-4-11-60-24-125c-58-286-71-412-71-689c0-213,3-275,18-345c35-164,101-261,202-299c155-58,334-24,431,81c82,89,140,208,266,543
	l79,210l-6-145c-37-857-13-1719,52-1818c54-85,325-90,393-7c13,16,16,120,22,744c5,571,9,751,22,845c8,65,18,121,21,124
	c2,3,13-2,22-10c60-52,176-88,288-88c152,0,268,45,377,148c120,113,218,283,291,502c34,101,77,295,77,345c0,17,30,54,106,130
	c88,87,105,101,100,78c-10-52-36-336-51-568c-51-789-64-1729-24-1793c8-12,34-33,59-45c38-18,62-22,150-22c92,0,111,3,155,25
	c39,20,52,33,62,61c22,69,33,369,33,932v567l40-20c68-34,148-50,260-50c175,0,304,50,429,166c166,154,256,342,302,630l23,140l66,36
	c125,68,241,171,305,271c10,15,19,26,22,24c2-2-8-73-22-158c-42-257-58-438-52-604c13-386,102-512,369-523c123-5,207,15,292,68
	c51,33,65,30,66-14c0-32,58-192,99-273c75-149,160-229,292-273c54-19,81-21,179-18c107,3,121,6,182,36c144,70,254,246,394,625
	c32,86,61,154,65,150c3-5,12-26,19-48c40-128,115-219,220-269c58-27,78-31,174-34c112-4,196,7,249,35c16,8,30,13,32,11s-7-84-21-181
	l-25-178l-106-117c-279-309-489-613-654-947c-105-214-152-349-175-505c-21-143-14-340,16-484c12-54,20-100,18-101s-61-17-133-35
	c-148-36-411-122-531-173c-102-43-365-199-407-242c-114-115-315-273-402-316c-79-39-109-35-197,24c-75,50-112,101-133,182
	c-33,130-17,266,76,634c83,332,81,406-17,447c-50,21-158,17-307-10c-73-14-177-28-232-32l-100-7v174c-1,159-3,179-24,234
	c-31,77-91,139-151,155c-26,7-81,10-130,8c-103-5-169-35-240-108c-63-65-84-111-83-187c1-168,160-339,348-374c91-17,86-14,73-51
	c-22-66-106-235-162-328c-200-327-455-567-693-653c-98-36-164-41-253-23c-158,33-283,122-323,231c-26,71-40,221-32,331l7,95l61,31
	c136,67,253,171,297,263c27,55,36,146,21,202c-13,49-51,97-92,118c-38,20-173,20-230,0c-145-52-263-228-334-499
	c-14-55-27-101-28-102c-20-20-410-34-421-15c-3,4,1,43,9,86c30,153,11,271-53,346c-51,59-100,79-197,79s-167-28-210-84
	c-110-145-47-355,135-442c33-16,60-34,60-40c0-37-184-462-249-573c-59-100-62-101-103-39c-121,183-245,442-342,714
	c-26,72-56,145-67,162c-30,51-74,72-149,72c-110,0-99,13-239-280c-154-323-372-623-511-702c-75-43-84-43-128-4
	c-75,68-122,188-136,352c-7,74,10,287,25,315c4,9,30,22,56,28c79,19,243,106,330,175c104,83,204,200,251,295c34,69,37,82,37,160
	c0,67-5,97-22,133c-28,61-93,123-151,143c-159,54-324,12-453-118c-122-121-285-407-360-627c-18-52-37-100-43-106c-7-7-98-16-241-23
	c-454-23-712-50-880-93c-250-62-561-225-615-320c-20-37-3-53,58-53c42,0,54,5,102,46c132,111,365,213,581,254c107,20,339,41,594,55
	c110,5,240,13,289,16l89,6l-8-38c-27-146-23-303,11-414c53-175,191-312,354-349c66-15,246-13,309,4c185,49,334,200,504,510
	c36,66,80,153,97,192c30,66,50,85,50,47c0-28,72-210,131-328c75-151,154-269,229-340c79-76,133-99,241-104c179-9,255,48,363,269
	c57,120,141,323,191,465l18,52l211,4c116,3,218,8,227,12c13,6,15-7,16-91c1-291,112-442,396-539c118-41,200-54,331-54
	c146,0,239,20,360,79c283,137,554,432,745,811c37,74,78,163,91,198l22,62h52c75,0,216,18,339,42c59,11,110,18,114,14
	c10-10-10-77-72-245c-100-269-135-413-135-560c0-219,75-346,262-440c111-56,173-71,296-71c164,0,256,39,407,174
	c44,39,129,112,189,161c60,50,125,104,145,121c114,97,269,172,563,269c123,41,241,77,263,80c39,6,41,4,85-51c51-65,116-105,205-129
	c128-33,314-8,423,58c126,75,229,241,316,507c106,323,221,976,306,1730c28,251,33,277,53,293c148,122,269,198,429,269
	c110,49,148,72,148,90c0,20-67,48-117,48c-63,0-243-62-370-126l-86-44l7,82c4,46,22,225,41,398c54,496,69,781,45,844
	c-14,38-59,56-142,56c-102,0-131-19-156-102c-11-35-45-205-77-378c-62-344-80-400-178-579c-52-95-161-225-198-236c-29-9-61,24-93,94
	c-78,174-88,446-36,998c26,277,26,305,0,328c-35,32-182,33-223,2c-10-7-45-108-86-242c-164-540-361-1061-512-1355
	c-64-124-154-253-173-247c-22,7-76,133-100,237c-41,174-51,270-51,530v245l81,130c303,485,503,937,669,1510c102,354,138,585,139,890
	c1,178-3,233-17,289c-36,143-85,186-213,186C16642,19300,16613,19294,16575,19276z M16712,19083c19-85,15-399-6-548
	c-63-441-248-999-494-1495c-138-278-142-277-92,32c128,780,355,1643,527,1995c20,40,39,73,44,73
	C16695,19140,16704,19114,16712,19083z M9510,18623c40-45,65-100,84-184c61-267-7-522-213-796c-72-97-249-280-351-363
	c-63-52-65-53-68-29c-2,14,9,95,23,180c98,578,242,991,405,1161c36,37,70,68,77,68C9473,18660,9493,18643,9510,18623z M14101,17277
	c39-98,60-235,65-427c3-102,2-210-3-240l-8-55l-135-48c-74-26-190-74-257-107c-96-46-123-55-123-43c0,27,98,359,136,459
	c49,131,106,254,163,348c56,92,118,169,134,163C14078,17326,14091,17303,14101,17277z M12438,17143c44-106,72-218,97-398
	c15-105,20-401,7-422c-11-17-42-27-235-79c-95-25-203-57-241-70s-72-22-74-19c-9,8,58,251,129,470c77,236,171,441,239,518
	c23,26,45,47,50,47C12414,17190,12427,17169,12438,17143z M10352,17150c77-24,165-84,213-147l35-46l-22-36c-62-105-298-454-390-576
	c-187-251-358-439-379-418c-33,33-35,268-4,442c31,177,108,410,172,521c77,133,180,241,258,268C10277,17173,10280,17172,10352,17150
	z M14124,16333c-33-145-86-278-150-374c-53-80-148-169-180-169c-14,0-36,16-57,40c-91,107-71,259,46,348c86,65,301,182,335,182
	C14126,16360,14128,16351,14124,16333z M12520,16161c0-5-12-53-26-107c-62-241-184-466-295-545l-31-22l-44,44
	c-90,88-151,263-125,357c28,100,142,173,381,243C12523,16174,12520,16173,12520,16161z M7350,15994c0-30-112-480-165-664
	c-119-409-246-731-329-835c-28-35-40-29-79,42c-86,160-101,446-35,704c49,194,142,350,317,528c96,98,264,241,283,241
	C7347,16010,7350,16003,7350,15994z M17351,14448c-66-398-191-1015-236-1161c-36-121-71-207-106-264c-17-27-24-31-35-22
	c-7,6-13,23-11,37c1,14-4,27-11,30c-23,7-41,32-61,85c-50,136-73,358-52,508c35,239,216,611,490,1007c35,50,66,90,68,88
	C17400,14754,17379,14615,17351,14448z M13964,13977c34-44,52-99,65-190c12-89,4-207-14-207c-25,0-106,95-140,163
	c-51,102-45,175,18,245C13921,14018,13934,14016,13964,13977z M10081,13843c43-36,59-79,59-156c0-54-6-76-36-135
	c-60-122-232-286-371-356c-29-14-54-26-57-26s7,42,21,93c62,227,175,478,251,557C10005,13878,10033,13883,10081,13843z M12756,13549
	c18-37,18-117-1-163c-19-44-73-105-138-158c-74-58-78-53-56,50c35,160,79,265,128,303C12716,13603,12731,13596,12756,13549z
	 M11585,13424c9-20,19-62,22-93c6-59-13-197-27-206c-14-8-78,72-89,112c-21,74-8,164,30,210C11541,13471,11567,13461,11585,13424z
	 M15144,18146c-64-28-114-122-114-213c0-112,51-163,165-163c126,0,206,78,213,209c8,129-40,181-163,181
	C15207,18159,15161,18153,15144,18146z M15029,11506c-80-23-169-77-197-119c-104-157,116-362,582-543l99-39l-6-145
	c-10-236-69-474-182-738c-249-576-761-1184-935-1112c-71,29-141,146-179,296c-39,160-43,143,59,284c171,239,315,503,380,699
	c107,319,89,602-42,688c-35,24-54,29-124,31c-72,4-89,1-143-23c-77-35-184-144-261-267c-42-66-60-88-77-88c-45,0-559,102-571,114
	c-2,3,16,92,42,198c72,305,79,344,66,368c-16,31-70,50-137,50c-152,0-178-32-308-373l-60-158l-150-3c-132-2-159-5-225-28
	c-41-14-76-25-78-23s6,48,17,102c50,244,66,576,31,688c-16,53-76,108-134,125c-75,21-201,9-270-24c-154-76-314-307-473-686
	c-271-644-430-1322-469-1993l-7-119l-55-71c-92-122-243-267-277-267c-18,0-50,81-69,172c-56,271-51,472,43,1778
	c40,547,44,636,32,770c-26,288-93,387-273,406c-123,12-222-30-323-137c-156-167-435-632-775-1293l-123-238l-36,6
	c-224,34-544,33-670-3c-130-38-191-77-191-121c0-54,81-62,240-26c57,14,96,16,160,11c127-9,395-59,393-73c-2-6-72-154-156-329
	c-85-175-191-401-237-503s-157-331-247-509c-90-179-163-333-163-343c0-46,131-63,170-22c23,26,230,351,317,499
	c88,151,179,322,424,799l194,378l80-6c288-22,437-28,559-22l138,6l-8-123c-5-67-9-239-9-382c1-229,3-273,23-373
	c40-200,96-326,178-402c58-53,112-77,208-92c141-22,281,16,406,111c30,22,57,41,60,41s14-57,24-127c65-459,266-849,494-960
	c51-24,70-28,184-31c120-4,129-3,188,24c74,33,131,93,161,173c31,80,37,259,14,407c-51,326-158,599-384,978c-56,93-101,171-101,175
	c0,3,35,17,78,29c182,56,339,151,500,306c108,103,222,239,302,358c25,37,48,68,51,68s1-30-4-67c-16-121-12-408,6-511
	c61-338,213-482,507-482c186,0,322,58,501,211l67,59l26-45c91-155,266-239,496-239c272,1,462,110,692,399c195,246,404,617,511,907
	c84,229,147,532,147,709c0,38,4,69,8,69s29-13,54-29c34-22,53-44,74-88c26-53,29-67,28-158c-1-121-22-229-109-545
	c-171-626-225-920-225-1213c1-271,59-416,195-482c104-51,219-43,354,26c230,118,454,409,585,761c50,134,128,405,124,431
	c-4,29-47,43-94,31l-37-9l-57-175c-67-203-104-298-161-413c-88-176-225-359-339-452c-74-62-180-127-200-123c-34,7-45,58-44,203
	c1,210,35,387,244,1245c86,355,110,490,110,628c0,164-37,271-124,357c-58,57-136,97-279,144c-53,18-103,39-111,46c-7,8-17,35-21,61
	c-10,72-61,218-102,297c-20,38-63,96-94,129c-46,48-73,65-136,90c-70,28-91,32-198,34C15117,11518,15059,11515,15029,11506z
	 M15281,11369c46-32,109-112,138-174c34-71,67-172,59-181c-17-16-223,112-294,183c-84,84-94,145-31,184
	C15190,11404,15238,11400,15281,11369z M12365,11110c-23-400-123-742-359-1235c-106-221-282-542-292-532c-7,6,55,345,96,530
	c126,562,352,1169,518,1387l26,34l9-39C12368,11233,12369,11168,12365,11110z M10609,11089c1-135-7-217-74-729
	c-30-228-61-466-68-528c-9-74-19-117-28-124c-29-20-651,21-674,44c-8,8,324,654,485,944c130,234,216,374,293,478c48,65,52,68,58,45
	C10605,11206,10608,11147,10609,11089z M14499,10633c90-227-28-631-291-992l-41-56l7,105c10,180,77,510,125,615c10,22,23,59,30,82
	c23,84,127,273,151,273C14484,10660,14493,10648,14499,10633z M12902,10449c29-6,57-15,61-19c11-10-29-140-64-211
	c-74-149-251-432-357-574c-134-177-290-333-430-428c-63-42-213-119-220-112c-2,2,38,75,90,162c224,373,397,724,503,1020l48,132l41-5
	c29-4,63,2,116,20C12773,10462,12823,10465,12902,10449z M13566,10315c87-14,203-28,256-31c53-4,102-10,108-14c9-5,2-33-25-101
	c-45-114-97-301-120-434c-23-126-26-386-6-503l14-84l-64-65c-94-95-214-188-297-231l-73-37l-25,30c-31,38-62,136-76,240
	c-15,114-4,455,22,655c12,91,39,261,61,378c21,116,39,214,39,217C13380,10343,13399,10341,13566,10315z M11743,8678
	c224-359,330-680,331-1003c1-148-14-228-52-275l-18-22l-53,76c-102,148-190,371-235,598c-33,162-45,284-53,509c-5,168-3,219,11,219
	C11676,8780,11707,8734,11743,8678z M10703,7200c-137-49-262-188-300-331c-20-77-13-116,23-129c51-20,70-5,119,96
	c52,108,132,197,214,238c45,23,50,24,63,9c17-21,17-143-1-208c-37-133-304-742-482-1102c-136-273-139-286-74-318
	c59-29,165-24,390,18c219,41,389,64,567,76c135,10,188,27,188,61c0,12-13,26-32,36c-65,34-377,29-682-11c-61-8-111-13-113-12
	c-1,2,75,158,170,347c265,528,365,765,388,921c24,161-31,268-160,314C10918,7227,10769,7224,10703,7200z M12780,7156
	c-113-33-227-117-290-215c-56-88-51-134,16-147c46-9,84,9,114,53c32,47,137,134,206,170c67,35,97,27,131-36c19-36,23-59,23-130
	c-1-211-114-490-409-1005c-132-230-186-339-178-360c14-37,68-56,158-56c71,0,137,12,365,64c154,36,342,76,419,91
	c169,31,215,45,229,67c8,14,7,22-7,35c-14,15-39,19-126,21c-113,4-333-27-583-82c-60-13-108-22-108-20s32,56,71,120
	c343,569,471,866,473,1104c1,147-50,240-167,299c-63,33-74,35-180,38C12866,7168,12809,7165,12780,7156z M13826,7140
	c-101-39-163-101-222-219c-39-76-52-144-34-166c15-19,110-20,131-2c9,6,21,32,28,57c20,71,60,136,117,190c56,53,95,70,119,50
	c26-22,55-118,55-183c0-112-41-177-238-379c-137-142-145-159-82-191c29-15,51-18,127-14l92,5l46-49c92-98,125-234,91-367
	c-20-80-76-201-105-226c-20-18-23-19-55-3c-19,8-49,34-67,57c-39,48-87,66-152,56c-63-10-81-32-67-85c49-181,397-267,591-145
	c117,73,169,189,169,378c0,97-18,173-61,258c-42,83-137,177-215,214l-62,29l55,60c80,87,149,189,169,247c25,76,16,195-21,272
	s-98,138-160,159C14008,7166,13889,7165,13826,7140z M11890,6870c-100-9-131-16-185-43c-112-55-208-161-280-312
	c-56-116-78-200-79-300c-1-202,104-374,283-463c105-53,170-65,306-60c98,4,118,8,178,35c122,58,204,165,268,353c29,84,33,108,33,200
	c0,133-20,214-86,348c-57,117-124,194-199,230C12081,6881,12046,6883,11890,6870z M12056,6633c71-107,104-197,111-309
	c7-104-7-164-67-290c-53-109-118-188-166-200c-37-9-102,25-155,83c-113,123-139,316-70,522c44,130,86,205,152,274l57,59l38-24
	C11981,6732,12018,6690,12056,6633z"/>
</svg>
