<?xml version="1.0" encoding="utf-8"?>
<!-- Generator: Adobe Illustrator 25.0.1, SVG Export Plug-In . SVG Version: 6.00 Build 0)  -->
<svg version="1.1" id="Layer_1" xmlns="http://www.w3.org/2000/svg" xmlns:xlink="http://www.w3.org/1999/xlink" x="0px" y="0px"
	 viewBox="0 0 2400 2400" style="enable-background:new 0 0 2400 2400;" xml:space="preserve">
<g>
	<path transform="translate(0.000000,2400.000000) scale(0.100000,-0.100000)" d="M12895,17810c-233-49-450-159-685-346
		c-124-99-391-370-501-509c-310-390-691-1011-955-1555c-57-118-114-235-127-260l-22-45l-110-29c-197-51-190-48-190-76
		c0-35,57-53,158-48c42,2,77,0,77-3c0-4-25-72-56-151c-181-465-299-907-335-1252c-18-184-7-426,25-550c71-272,215-428,456-493
		c102-28,348-25,460,5c104,28,260,102,358,169c177,121,449,381,677,646c55,64,100,115,101,114s-2-27-7-57c-13-90-10-230,6-299
		c52-219,243-341,532-341c357,0,633,173,891,558c197,293,429,761,537,1086l44,129l130,68c129,67,356,205,498,300c40,27,74,49,76,49
		c3,0-29-84-70-187c-104-263-270-707-338-903c-170-497-235-831-191-982c31-108,131-165,301-175c270-15,417,78,915,583
		c542,550,824,833,827,831c1-2-4-38-12-81c-20-101-19-282,1-387c34-181,124-348,237-440c83-67,241-144,352-171c124-30,333-30,450,1
		c116,30,255,103,467,243c201,134,197,133,198,56c0-39,32-119,65-162c119-157,467-202,782-101c43,13,80,25,83,25s5-82,5-182
		c0-207,15-296,68-408c74-157,232-240,457-240c162,0,244,28,412,142c278,186,501,436,644,720c50,99,116,276,112,302
		c-2,11-14,26-28,33c-32,16-148,16-180,0c-17-8-46-53-90-137c-78-149-148-256-242-367c-137-164-295-306-463-415l-89-58l-13,24
		c-20,38-41,142-48,241c-11,161,21,441,79,680l24,99l102,95c165,153,518,543,761,841c168,206,344,449,523,723
		c686,1052,920,1784,625,1951c-48,27-64,31-154,34c-215,8-413-89-649-317c-372-362-782-984-1156-1754l-115-236l-96-1
		c-290-1-608-128-844-337c-149-132-301-342-415-571l-70-141l-107-86c-225-181-657-447-798-491c-52-17-53-16-109,9
		c-73,33-155,112-194,185c-94,178-123,417-77,629c26,121,3,108,193,109c237,1,428,38,614,119c217,94,406,291,439,458
		c23,112-39,223-156,281c-97,47-177,58-390,53c-164-3-204-8-290-30c-128-34-294-116-411-204c-107-80-331-237-341-240
		c-5-1-26,21-47,49c-51,65-109,93-179,85c-64-8-87-29-87-78c0-50,24-110,70-179l37-55l-86-75c-138-121-435-395-730-675
		c-152-143-311-294-356-336c-109-103-278-250-282-245c-6,6,38,204,88,391c47,176,94,335,330,1115c105,344,169,586,169,634
		c0,78-87,126-224,126c-93-1-153-25-292-122c-131-90-375-246-499-318c-49-29-103-61-120-71l-30-18v172c0,194-11,252-70,373
		c-64,132-189,221-371,266c-123,30-364,30-504,0c-149-32-294-89-404-160c-271-173-479-437-524-663c-28-145,4-256,104-357l55-54
		l-40-52c-84-108-316-384-484-574c-441-500-861-882-1104-1006c-68-34-85-33-115,7c-245,321-180,1080,178,2090c35,98,68,185,72,194
		c6,9,71,33,158,59c429,124,875,335,1201,569c611,438,1125,1147,1193,1645c34,250-84,434-316,494
		C13236,17837,13013,17834,12895,17810z M13236,17674c124-71,157-258,85-473c-177-527-798-1219-1423-1585c-174-101-700-348-714-334
		c-6,7,139,322,247,538c196,391,418,778,584,1016c118,168,217,286,365,435c253,254,443,374,665,423
		C13128,17712,13180,17706,13236,17674z M21473,16949c12-46,2-200-17-272c-119-437-618-1250-1206-1968c-116-142-330-382-335-377
		c-2,2,6,33,19,68c21,56,28,65,55,73c40,10,47,28,31,78c-13,37-11,45,25,137c109,278,358,824,498,1092c187,358,405,705,573,910
		c109,134,306,306,339,297C21460,16985,21468,16968,21473,16949z M13747,15447c140-74,206-285,173-557c-14-109-49-262-64-276
		c-26-26-301-102-466-129c-109-17-268-20-322-4l-38,10l31,60c16,34,29,70,27,81c-6,39-52,62-135,66l-76,4l7,63
		c26,253,287,571,550,670C13549,15478,13677,15483,13747,15447z M17773,14886c43-17,85-68,93-111c14-76-81-208-220-306
		c-84-59-190-101-327-129c-116-24-316-37-338-22c-11,8-7,22,24,78c112,205,298,390,460,459C17567,14897,17711,14912,17773,14886z
		 M19487,14623c-3-10-34-88-70-173c-88-213-195-513-256-715c-28-94-56-180-61-192c-19-45-270-213-398-267c-52-22-58-23-67-8
		c-18,31-10,200,14,292c51,191,172,456,290,633c129,192,269,322,435,403C19472,14644,19495,14650,19487,14623z M13748,14288
		c-44-108-257-519-350-673c-163-273-294-440-426-546c-81-65-166-113-187-105c-7,2-27,33-44,68c-89,181-43,540,136,1062l58,169l75-4
		c215-12,443,7,645,55c55,13,103,24,107,25C13766,14339,13759,14316,13748,14288z M9305,17157c-55-19-156-58-224-87
		c-283-119-334-129-692-130c-391,0-793-29-979-70c-186-40-387-117-535-205c-153-90-275-207-259-249c16-41,126-65,215-47
		c30,7,88,29,129,51c405,215,550,255,988,275c78,4,142,4,142,1c0-4-12-25-26-48c-41-64-110-223-326-748c-253-614-650-1625-843-2147
		c-84-227-308-948-352-1131l-17-73l-86,8c-47,4-195,8-330,8c-351-1-570-35-777-120c-141-59-253-140-253-184c0-20,64-51,105-51
		c22,0,102,18,177,39c170,50,255,67,387,80c206,21,422,9,691-39c275-49,391-61,596-61c218,0,319,16,508,78c130,43,191,84,191,129
		c0,24-7,32-40,48c-56,28-117,30-308,12c-178-17-433-21-455-8c-9,6-2,30,29,98c113,244,377,878,452,1085c142,394,733,2140,808,2389
		c58,191,114,417,135,541l18,106l209,6c310,10,475,40,620,113c70,36,279,179,339,232c82,74,57,121-70,129
		C9416,17190,9389,17185,9305,17157z M9645,12111c-86-14-167-41-250-84c-152-79-320-273-453-526l-58-110l-12,137
		c-25,286-57,408-117,436c-68,33-196,11-229-38c-34-53-46-139-81-601c-25-333-44-628-67-1030c-17-292-17-1618,0-1920
		c25-436,42-549,94-602c50-52,112-68,263-68c114,0,136,3,182,23c73,34,96,61,97,119c1,26-5,203-13,393c-14,339-9,1000,7,1093l7,39
		l34-59c102-176,277-506,397-745c238-475,486-891,599-1005c42-41,65-55,120-72c79-25,171-27,242-6c100,30,125,74,82,145
		c-31,50-136,281-255,560c-177,414-426,875-692,1284c-46,71-80,132-75,136c4,4,31,15,58,25c186,67,476,259,642,424
		c245,243,415,579,454,895c33,266-62,644-217,862c-93,131-242,233-401,275C9916,12114,9727,12124,9645,12111z M9855,11787
		c180-189,293-620,241-917c-35-197-131-422-253-591c-104-146-344-353-501-433l-33-17l-46,51c-49,55-97,84-156,95c-21,4-39,11-42,15
		c-3,5,4,71,15,147c92,627,254,1128,477,1467c66,102,197,246,223,246C9788,11850,9822,11822,9855,11787z M22250,12113
		c-96-17-131-51-154-150c-33-147-73-557-97-983c-10-192-9-254,10-570c11-195,24-386,27-423c11-117,57-147,220-147c73,0,98,5,141,24
		c101,48,117,106,154,591c27,360,21,635-27,1220c-25,304-47,384-114,417C22372,12110,22291,12121,22250,12113z M21385,12084
		c-214-14-1134-124-1415-170c-509-83-687-145-678-236c3-28,10-36,53-58c65-32,141-36,280-16c110,16,633,76,662,76c15,0,15-64,10-662
		c-4-365-15-913-27-1218c-11-305-20-632-20-725c0-164,28-508,51-622c18-91,86-128,234-128c108,1,164,16,209,56c47,41,60,87,101,352
		c34,219,36,247,45,626c13,521,12,1345,0,1596c-16,316-60,644-100,749c-7,19-6,26,2,26c64,0,573,69,708,96c258,51,349,85,380,144
		c26,49-46,104-162,121C21645,12101,21657,12101,21385,12084z M15603,12001c-72-33-75-55-138-976c-69-1005-85-1349-84-1820
		c0-326,14-684,29-752c23-103,116-148,305-147c126,1,208,25,259,76l29,29l-5,455c-3,250-4,454-3,454s40-69,85-152
		c302-560,434-776,700-1143c166-228,199-253,345-262c136-9,245,36,245,102c0,40-350,719-495,960c-73,121-232,380-353,575
		c-139,225-215,357-208,361c6,4,31,10,56,14c73,12,211,61,301,106c153,76,272,169,396,309c236,267,380,596,424,964
		c15,128,6,380-16,460c-35,126-109,228-202,278c-101,55-185,73-338,73c-274-1-428-72-673-310c-118-113-203-212-263-305l-34-52
		l-17,178c-29,301-73,475-130,517C15778,12023,15659,12027,15603,12001z M16926,11538c18-84,20-336,4-448c-28-202-76-363-157-524
		c-61-122-101-183-192-295c-143-178-316-296-449-308c-36-3-62-2-62,4c0,23,54,308,80,423c84,372,180,619,325,836
		c78,117,233,289,345,381l64,53l14-26C16905,11620,16918,11577,16926,11538z M18299,11899c-42-4-105-17-140-29
		c-323-109-487-373-505-815c-11-253,24-336,266-625c148-177,206-254,332-440c203-299,293-469,340-642c20-71,23-106,22-248
		c-1-150-3-173-28-255c-51-169-149-350-249-460l-44-50l-25,50c-100,199-183,545-177,745c1,47-1,94-5,106c-11,35-80,59-171,59
		c-114,0-150-20-192-105c-50-101-68-193-67-355c1-201,36-382,115-586c40-103,80-155,153-195c94-52,179-69,336-68
		c148,0,229,16,337,64c240,108,471,393,577,710c41,125,58,226,58,355c-1,193-44,356-149,555c-114,217-365,566-593,825
		c-152,173-209,249-247,331c-27,57-28,64-27,229c0,137,5,189,22,265c26,112,75,219,126,275l36,40l64-68c80-84,143-207,216-422
		c90-262,103-278,234-283c91-4,136,10,157,50c18,33,23,173,10,278c-25,199-79,349-174,477C18776,11843,18559,11926,18299,11899z
		 M14587,11846c-104-29-108-40-167-566c-39-347-74-711-104-1100c-57-708-58-740-59-1485c-2-806-8-748,81-788c63-28,206-30,273-4
		c62,24,85,51,103,122c47,187,141,1203,156,1690c48,1551,39,2003-38,2088C14788,11851,14676,11871,14587,11846z M6775,11824
		c-107-21-136-30-177-50c-85-43-81-21-83-493c-1-363-5-470-33-841c-41-557-65-983-98-1772c-32-738-35-693,52-748
		c80-50,168-63,383-57c210,7,237,11,706,116c434,98,576,147,605,210c21,45-29,92-127,118c-91,25-349,22-483-6
		c-105-22-510-117-541-127c-15-4-16,6-13,98c3,57,11,294,19,528s22,595,32,803c16,367,17,378,37,382c12,2,68,11,126,20
		c116,17,512,113,622,150c78,27,118,57,118,91c0,28-40,61-94,75c-72,20-298,5-545-36c-122-20-225-34-227-32c-3,2,5,166,16,363
		c21,365,28,791,15,898l-8,59l89-6c49-4,258-12,464-18c496-16,620-3,620,65c0,46-76,74-298,110c-184,31-592,82-757,96
		C7080,11829,6817,11832,6775,11824z M13117,11819c-49-5-251-29-450-53c-353-44-507-59-732-71c-155-8-213-21-247-55
		c-25-25-27-32-17-54c29-63,166-94,447-103l203-6l-5-46c-3-25-15-152-26-281s-38-442-59-695c-34-389-81-1006-106-1400
		c-4-55-2-147,4-205s16-231,21-385c11-305,24-479,40-537c17-59,63-81,178-86c105-5,172,13,198,53c19,29,37,139,69,415
		c33,290,41,348,71,503c27,141,37,291,55,797c6,184,12,336,13,337c1,2,56,10,122,18c199,26,575,120,666,166c82,42,71,102-27,138
		c-84,31-203,28-498-15c-136-20-250-35-252-33s1,166,7,364c10,358,0,753-21,865c-5,25-8,46-7,47s132,13,291,27
		c307,27,711,85,783,112c75,28,94,84,42,128c-62,52-111,59-405,62C13327,11827,13165,11824,13117,11819z M5817,11796
		c-78-21-102-55-137-191c-33-130-111-822-136-1205c-4-58-10-114-14-125c-7-18-34-24-221-54c-118-19-302-53-409-77
		c-107-23-196-41-198-39s2,137,9,302c17,407,17,1053,0,1163c-25,167-59,204-191,204c-163,1-211-65-259-352c-32-185-93-788-139-1371
		l-7-93l-140-42c-144-43-246-85-277-113c-23-21-23-65,0-85c25-23,118-48,176-47c28,0,88,6,134,13l82,12v-26c0-14-10-151-22-305
		c-35-435-28-1280,13-1650c21-186,58-225,225-233c146-7,224,29,237,108c4,19,18,188,32,375s36,475,50,640c13,165,31,471,40,680
		c15,371,24,525,30,525c18,0,680,126,735,140c41,10,76,17,79,15c2-3-1-114-7-248c-35-728-36-906-13-1352c23-437,37-561,69-604
		c10-15,39-37,63-51c40-22,55-25,154-25c94,0,116,3,151,22c24,13,46,34,52,50c13,33,30,177,78,678c35,368,35,373,41,1031l6,661
		l29,17c22,14,28,24,28,52s-6,38-28,51l-28,16v586c1,407-3,616-12,686c-26,212-42,245-131,264C5897,11813,5878,11812,5817,11796z
		 M22238,9009c-110-16-189-74-240-174c-11-22-35-56-54-75c-67-70-94-169-70-253c20-67,69-115,152-148c84-32,249-33,350-2
		c84,27,154,83,178,144c55,136,34,383-38,455C22468,9004,22352,9026,22238,9009z M14376,6730c-193-49-331-240-392-544
		c-14-65-16-119-11-281c6-231,18-288,70-330c143-116,172-131,299-150c125-20,233-2,357,58c153,75,289,260,342,466
		c24,95,26,299,4,386c-47,179-197,334-369,382C14611,6734,14427,6742,14376,6730z M13304,6610c-61-12-139-55-184-101
		s-120-188-146-274c-26-88-23-250,10-463c15-94,35-200,46-235c49-159,133-220,319-234c212-14,385,85,479,277c60,121,75,202,76,400
		c1,146-2,174-22,240c-73,233-211,363-415,390C13379,6621,13362,6621,13304,6610z M15361,5955c-124-54-238-201-415-536
		c-82-156-103-239-86-338c42-239,307-435,550-406c204,25,389,209,455,450c22,84,31,268,16,347c-39,203-140,411-220,452
		C15580,5966,15424,5982,15361,5955z M12385,5678c-84-30-187-141-239-259c-38-87-123-359-140-449c-42-219,1-435,113-561
		c85-98,245-146,395-120c238,40,450,271,531,576c9,33,19,112,22,177c5,99,3,131-16,212c-52,226-180,372-366,421
		C12617,5692,12431,5694,12385,5678z M13965,5220c-150-23-290-89-429-204c-71-59-220-236-322-384c-52-74-137-177-204-247
		c-187-196-287-319-373-462c-74-123-100-249-78-379c20-111,62-187,155-279c170-167,424-275,802-341c144-26,182-28,404-28
		c258-1,351,8,550,50c341,72,577,188,760,373c97,98,149,181,186,296c34,104,42,249,20,352c-31,151-126,339-234,465
		c-391,460-475,548-588,625C14420,5189,14172,5251,13965,5220z"/>
</g>
</svg>
