<?xml version="1.0" standalone="no"?>
<!DOCTYPE svg PUBLIC "-//W3C//DTD SVG 20010904//EN"
 "http://www.w3.org/TR/2001/REC-SVG-20010904/DTD/svg10.dtd">
<svg version="1.0" xmlns="http://www.w3.org/2000/svg"
 width="2400.000000pt" height="2400.000000pt" viewBox="0 0 2400.000000 2400.000000"
 preserveAspectRatio="xMidYMid meet">

<g transform="translate(0.000000,2400.000000) scale(0.100000,-0.100000)"
fill="#000000" stroke="none">
<path d="M12895 17810 c-233 -49 -450 -159 -685 -346 -124 -99 -391 -370 -501
-509 -310 -390 -691 -1011 -955 -1555 -57 -118 -114 -235 -127 -260 l-22 -45
-110 -29 c-197 -51 -190 -48 -190 -76 0 -35 57 -53 158 -48 42 2 77 0 77 -3 0
-4 -25 -72 -56 -151 -181 -465 -299 -907 -335 -1252 -18 -184 -7 -426 25 -550
71 -272 215 -428 456 -493 102 -28 348 -25 460 5 104 28 260 102 358 169 177
121 449 381 677 646 55 64 100 115 101 114 1 -1 -2 -27 -7 -57 -13 -90 -10
-230 6 -299 52 -219 243 -341 532 -341 357 0 633 173 891 558 197 293 429 761
537 1086 l44 129 130 68 c129 67 356 205 498 300 40 27 74 49 76 49 3 0 -29
-84 -70 -187 -104 -263 -270 -707 -338 -903 -170 -497 -235 -831 -191 -982 31
-108 131 -165 301 -175 270 -15 417 78 915 583 542 550 824 833 827 831 1 -2
-4 -38 -12 -81 -20 -101 -19 -282 1 -387 34 -181 124 -348 237 -440 83 -67
241 -144 352 -171 124 -30 333 -30 450 1 116 30 255 103 467 243 201 134 197
133 198 56 0 -39 32 -119 65 -162 119 -157 467 -202 782 -101 43 13 80 25 83
25 3 0 5 -82 5 -182 0 -207 15 -296 68 -408 74 -157 232 -240 457 -240 162 0
244 28 412 142 278 186 501 436 644 720 50 99 116 276 112 302 -2 11 -14 26
-28 33 -32 16 -148 16 -180 0 -17 -8 -46 -53 -90 -137 -78 -149 -148 -256
-242 -367 -137 -164 -295 -306 -463 -415 l-89 -58 -13 24 c-20 38 -41 142 -48
241 -11 161 21 441 79 680 l24 99 102 95 c165 153 518 543 761 841 168 206
344 449 523 723 686 1052 920 1784 625 1951 -48 27 -64 31 -154 34 -215 8
-413 -89 -649 -317 -372 -362 -782 -984 -1156 -1754 l-115 -236 -96 -1 c-290
-1 -608 -128 -844 -337 -149 -132 -301 -342 -415 -571 l-70 -141 -107 -86
c-225 -181 -657 -447 -798 -491 -52 -17 -53 -16 -109 9 -73 33 -155 112 -194
185 -94 178 -123 417 -77 629 26 121 3 108 193 109 237 1 428 38 614 119 217
94 406 291 439 458 23 112 -39 223 -156 281 -97 47 -177 58 -390 53 -164 -3
-204 -8 -290 -30 -128 -34 -294 -116 -411 -204 -107 -80 -331 -237 -341 -240
-5 -1 -26 21 -47 49 -51 65 -109 93 -179 85 -64 -8 -87 -29 -87 -78 0 -50 24
-110 70 -179 l37 -55 -86 -75 c-138 -121 -435 -395 -730 -675 -152 -143 -311
-294 -356 -336 -109 -103 -278 -250 -282 -245 -6 6 38 204 88 391 47 176 94
335 330 1115 105 344 169 586 169 634 0 78 -87 126 -224 126 -93 -1 -153 -25
-292 -122 -131 -90 -375 -246 -499 -318 -49 -29 -103 -61 -120 -71 l-30 -18 0
172 c0 194 -11 252 -70 373 -64 132 -189 221 -371 266 -123 30 -364 30 -504 0
-149 -32 -294 -89 -404 -160 -271 -173 -479 -437 -524 -663 -28 -145 4 -256
104 -357 l55 -54 -40 -52 c-84 -108 -316 -384 -484 -574 -441 -500 -861 -882
-1104 -1006 -68 -34 -85 -33 -115 7 -245 321 -180 1080 178 2090 35 98 68 185
72 194 6 9 71 33 158 59 429 124 875 335 1201 569 611 438 1125 1147 1193
1645 34 250 -84 434 -316 494 -88 23 -311 20 -429 -4z m341 -136 c124 -71 157
-258 85 -473 -177 -527 -798 -1219 -1423 -1585 -174 -101 -700 -348 -714 -334
-6 7 139 322 247 538 196 391 418 778 584 1016 118 168 217 286 365 435 253
254 443 374 665 423 83 18 135 12 191 -20z m8237 -725 c12 -46 2 -200 -17
-272 -119 -437 -618 -1250 -1206 -1968 -116 -142 -330 -382 -335 -377 -2 2 6
33 19 68 21 56 28 65 55 73 40 10 47 28 31 78 -13 37 -11 45 25 137 109 278
358 824 498 1092 187 358 405 705 573 910 109 134 306 306 339 297 5 -2 13
-19 18 -38z m-7726 -1502 c140 -74 206 -285 173 -557 -14 -109 -49 -262 -64
-276 -26 -26 -301 -102 -466 -129 -109 -17 -268 -20 -322 -4 l-38 10 31 60
c16 34 29 70 27 81 -6 39 -52 62 -135 66 l-76 4 7 63 c26 253 287 571 550 670
115 43 243 48 313 12z m4026 -561 c43 -17 85 -68 93 -111 14 -76 -81 -208
-220 -306 -84 -59 -190 -101 -327 -129 -116 -24 -316 -37 -338 -22 -11 8 -7
22 24 78 112 205 298 390 460 459 102 42 246 57 308 31z m1714 -263 c-3 -10
-34 -88 -70 -173 -88 -213 -195 -513 -256 -715 -28 -94 -56 -180 -61 -192 -19
-45 -270 -213 -398 -267 -52 -22 -58 -23 -67 -8 -18 31 -10 200 14 292 51 191
172 456 290 633 129 192 269 322 435 403 98 48 121 54 113 27z m-5739 -335
c-44 -108 -257 -519 -350 -673 -163 -273 -294 -440 -426 -546 -81 -65 -166
-113 -187 -105 -7 2 -27 33 -44 68 -89 181 -43 540 136 1062 l58 169 75 -4
c215 -12 443 7 645 55 55 13 103 24 107 25 4 0 -3 -23 -14 -51z"/>
<path d="M9305 17157 c-55 -19 -156 -58 -224 -87 -283 -119 -334 -129 -692
-130 -391 0 -793 -29 -979 -70 -186 -40 -387 -117 -535 -205 -153 -90 -275
-207 -259 -249 16 -41 126 -65 215 -47 30 7 88 29 129 51 405 215 550 255 988
275 78 4 142 4 142 1 0 -4 -12 -25 -26 -48 -41 -64 -110 -223 -326 -748 -253
-614 -650 -1625 -843 -2147 -84 -227 -308 -948 -352 -1131 l-17 -73 -86 8
c-47 4 -195 8 -330 8 -351 -1 -570 -35 -777 -120 -141 -59 -253 -140 -253
-184 0 -20 64 -51 105 -51 22 0 102 18 177 39 170 50 255 67 387 80 206 21
422 9 691 -39 275 -49 391 -61 596 -61 218 0 319 16 508 78 130 43 191 84 191
129 0 24 -7 32 -40 48 -56 28 -117 30 -308 12 -178 -17 -433 -21 -455 -8 -9 6
-2 30 29 98 113 244 377 878 452 1085 142 394 733 2140 808 2389 58 191 114
417 135 541 l18 106 209 6 c310 10 475 40 620 113 70 36 279 179 339 232 82
74 57 121 -70 129 -56 3 -83 -2 -167 -30z"/>
<path d="M9645 12111 c-86 -14 -167 -41 -250 -84 -152 -79 -320 -273 -453
-526 l-58 -110 -12 137 c-25 286 -57 408 -117 436 -68 33 -196 11 -229 -38
-34 -53 -46 -139 -81 -601 -25 -333 -44 -628 -67 -1030 -17 -292 -17 -1618 0
-1920 25 -436 42 -549 94 -602 50 -52 112 -68 263 -68 114 0 136 3 182 23 73
34 96 61 97 119 1 26 -5 203 -13 393 -14 339 -9 1000 7 1093 l7 39 34 -59
c102 -176 277 -506 397 -745 238 -475 486 -891 599 -1005 42 -41 65 -55 120
-72 79 -25 171 -27 242 -6 100 30 125 74 82 145 -31 50 -136 281 -255 560
-177 414 -426 875 -692 1284 -46 71 -80 132 -75 136 4 4 31 15 58 25 186 67
476 259 642 424 245 243 415 579 454 895 33 266 -62 644 -217 862 -93 131
-242 233 -401 275 -87 23 -276 33 -358 20z m210 -324 c180 -189 293 -620 241
-917 -35 -197 -131 -422 -253 -591 -104 -146 -344 -353 -501 -433 l-33 -17
-46 51 c-49 55 -97 84 -156 95 -21 4 -39 11 -42 15 -3 5 4 71 15 147 92 627
254 1128 477 1467 66 102 197 246 223 246 8 0 42 -28 75 -63z"/>
<path d="M22250 12113 c-96 -17 -131 -51 -154 -150 -33 -147 -73 -557 -97
-983 -10 -192 -9 -254 10 -570 11 -195 24 -386 27 -423 11 -117 57 -147 220
-147 73 0 98 5 141 24 101 48 117 106 154 591 27 360 21 635 -27 1220 -25 304
-47 384 -114 417 -38 18 -119 29 -160 21z"/>
<path d="M21385 12084 c-214 -14 -1134 -124 -1415 -170 -509 -83 -687 -145
-678 -236 3 -28 10 -36 53 -58 65 -32 141 -36 280 -16 110 16 633 76 662 76
15 0 15 -64 10 -662 -4 -365 -15 -913 -27 -1218 -11 -305 -20 -632 -20 -725 0
-164 28 -508 51 -622 18 -91 86 -128 234 -128 108 1 164 16 209 56 47 41 60
87 101 352 34 219 36 247 45 626 13 521 12 1345 0 1596 -16 316 -60 644 -100
749 -7 19 -6 26 2 26 64 0 573 69 708 96 258 51 349 85 380 144 26 49 -46 104
-162 121 -73 10 -61 10 -333 -7z"/>
<path d="M15603 12001 c-72 -33 -75 -55 -138 -976 -69 -1005 -85 -1349 -84
-1820 0 -326 14 -684 29 -752 23 -103 116 -148 305 -147 126 1 208 25 259 76
l29 29 -5 455 c-3 250 -4 454 -3 454 1 0 40 -69 85 -152 302 -560 434 -776
700 -1143 166 -228 199 -253 345 -262 136 -9 245 36 245 102 0 40 -350 719
-495 960 -73 121 -232 380 -353 575 -139 225 -215 357 -208 361 6 4 31 10 56
14 73 12 211 61 301 106 153 76 272 169 396 309 236 267 380 596 424 964 15
128 6 380 -16 460 -35 126 -109 228 -202 278 -101 55 -185 73 -338 73 -274 -1
-428 -72 -673 -310 -118 -113 -203 -212 -263 -305 l-34 -52 -17 178 c-29 301
-73 475 -130 517 -40 30 -159 34 -215 8z m1323 -463 c18 -84 20 -336 4 -448
-28 -202 -76 -363 -157 -524 -61 -122 -101 -183 -192 -295 -143 -178 -316
-296 -449 -308 -36 -3 -62 -2 -62 4 0 23 54 308 80 423 84 372 180 619 325
836 78 117 233 289 345 381 l64 53 14 -26 c7 -14 20 -57 28 -96z"/>
<path d="M18299 11899 c-42 -4 -105 -17 -140 -29 -323 -109 -487 -373 -505
-815 -11 -253 24 -336 266 -625 148 -177 206 -254 332 -440 203 -299 293 -469
340 -642 20 -71 23 -106 22 -248 -1 -150 -3 -173 -28 -255 -51 -169 -149 -350
-249 -460 l-44 -50 -25 50 c-100 199 -183 545 -177 745 1 47 -1 94 -5 106 -11
35 -80 59 -171 59 -114 0 -150 -20 -192 -105 -50 -101 -68 -193 -67 -355 1
-201 36 -382 115 -586 40 -103 80 -155 153 -195 94 -52 179 -69 336 -68 148 0
229 16 337 64 240 108 471 393 577 710 41 125 58 226 58 355 -1 193 -44 356
-149 555 -114 217 -365 566 -593 825 -152 173 -209 249 -247 331 -27 57 -28
64 -27 229 0 137 5 189 22 265 26 112 75 219 126 275 l36 40 64 -68 c80 -84
143 -207 216 -422 90 -262 103 -278 234 -283 91 -4 136 10 157 50 18 33 23
173 10 278 -25 199 -79 349 -174 477 -131 176 -348 259 -608 232z"/>
<path d="M14587 11846 c-104 -29 -108 -40 -167 -566 -39 -347 -74 -711 -104
-1100 -57 -708 -58 -740 -59 -1485 -2 -806 -8 -748 81 -788 63 -28 206 -30
273 -4 62 24 85 51 103 122 47 187 141 1203 156 1690 48 1551 39 2003 -38
2088 -44 48 -156 68 -245 43z"/>
<path d="M6775 11824 c-107 -21 -136 -30 -177 -50 -85 -43 -81 -21 -83 -493
-1 -363 -5 -470 -33 -841 -41 -557 -65 -983 -98 -1772 -32 -738 -35 -693 52
-748 80 -50 168 -63 383 -57 210 7 237 11 706 116 434 98 576 147 605 210 21
45 -29 92 -127 118 -91 25 -349 22 -483 -6 -105 -22 -510 -117 -541 -127 -15
-4 -16 6 -13 98 3 57 11 294 19 528 8 234 22 595 32 803 16 367 17 378 37 382
12 2 68 11 126 20 116 17 512 113 622 150 78 27 118 57 118 91 0 28 -40 61
-94 75 -72 20 -298 5 -545 -36 -122 -20 -225 -34 -227 -32 -3 2 5 166 16 363
21 365 28 791 15 898 l-8 59 89 -6 c49 -4 258 -12 464 -18 496 -16 620 -3 620
65 0 46 -76 74 -298 110 -184 31 -592 82 -757 96 -115 9 -378 12 -420 4z"/>
<path d="M13117 11819 c-49 -5 -251 -29 -450 -53 -353 -44 -507 -59 -732 -71
-155 -8 -213 -21 -247 -55 -25 -25 -27 -32 -17 -54 29 -63 166 -94 447 -103
l203 -6 -5 -46 c-3 -25 -15 -152 -26 -281 -11 -129 -38 -442 -59 -695 -34
-389 -81 -1006 -106 -1400 -4 -55 -2 -147 4 -205 6 -58 16 -231 21 -385 11
-305 24 -479 40 -537 17 -59 63 -81 178 -86 105 -5 172 13 198 53 19 29 37
139 69 415 33 290 41 348 71 503 27 141 37 291 55 797 6 184 12 336 13 337 1
2 56 10 122 18 199 26 575 120 666 166 82 42 71 102 -27 138 -84 31 -203 28
-498 -15 -136 -20 -250 -35 -252 -33 -2 2 1 166 7 364 10 358 0 753 -21 865
-5 25 -8 46 -7 47 1 1 132 13 291 27 307 27 711 85 783 112 75 28 94 84 42
128 -62 52 -111 59 -405 62 -148 1 -310 -2 -358 -7z"/>
<path d="M5817 11796 c-78 -21 -102 -55 -137 -191 -33 -130 -111 -822 -136
-1205 -4 -58 -10 -114 -14 -125 -7 -18 -34 -24 -221 -54 -118 -19 -302 -53
-409 -77 -107 -23 -196 -41 -198 -39 -2 2 2 137 9 302 17 407 17 1053 0 1163
-25 167 -59 204 -191 204 -163 1 -211 -65 -259 -352 -32 -185 -93 -788 -139
-1371 l-7 -93 -140 -42 c-144 -43 -246 -85 -277 -113 -23 -21 -23 -65 0 -85
25 -23 118 -48 176 -47 28 0 88 6 134 13 l82 12 0 -26 c0 -14 -10 -151 -22
-305 -35 -435 -28 -1280 13 -1650 21 -186 58 -225 225 -233 146 -7 224 29 237
108 4 19 18 188 32 375 14 187 36 475 50 640 13 165 31 471 40 680 15 371 24
525 30 525 18 0 680 126 735 140 41 10 76 17 79 15 2 -3 -1 -114 -7 -248 -35
-728 -36 -906 -13 -1352 23 -437 37 -561 69 -604 10 -15 39 -37 63 -51 40 -22
55 -25 154 -25 94 0 116 3 151 22 24 13 46 34 52 50 13 33 30 177 78 678 35
368 35 373 41 1031 l6 661 29 17 c22 14 28 24 28 52 0 28 -6 38 -28 51 l-28
16 0 586 c1 407 -3 616 -12 686 -26 212 -42 245 -131 264 -64 14 -83 13 -144
-3z"/>
<path d="M22238 9009 c-110 -16 -189 -74 -240 -174 -11 -22 -35 -56 -54 -75
-67 -70 -94 -169 -70 -253 20 -67 69 -115 152 -148 84 -32 249 -33 350 -2 84
27 154 83 178 144 55 136 34 383 -38 455 -48 48 -164 70 -278 53z"/>
<path d="M14376 6730 c-193 -49 -331 -240 -392 -544 -14 -65 -16 -119 -11
-281 6 -231 18 -288 70 -330 143 -116 172 -131 299 -150 125 -20 233 -2 357
58 153 75 289 260 342 466 24 95 26 299 4 386 -47 179 -197 334 -369 382 -65
17 -249 25 -300 13z"/>
<path d="M13304 6610 c-61 -12 -139 -55 -184 -101 -45 -46 -120 -188 -146
-274 -26 -88 -23 -250 10 -463 15 -94 35 -200 46 -235 49 -159 133 -220 319
-234 212 -14 385 85 479 277 60 121 75 202 76 400 1 146 -2 174 -22 240 -73
233 -211 363 -415 390 -88 11 -105 11 -163 0z"/>
<path d="M15361 5955 c-124 -54 -238 -201 -415 -536 -82 -156 -103 -239 -86
-338 42 -239 307 -435 550 -406 204 25 389 209 455 450 22 84 31 268 16 347
-39 203 -140 411 -220 452 -81 42 -237 58 -300 31z"/>
<path d="M12385 5678 c-84 -30 -187 -141 -239 -259 -38 -87 -123 -359 -140
-449 -42 -219 1 -435 113 -561 85 -98 245 -146 395 -120 238 40 450 271 531
576 9 33 19 112 22 177 5 99 3 131 -16 212 -52 226 -180 372 -366 421 -68 17
-254 19 -300 3z"/>
<path d="M13965 5220 c-150 -23 -290 -89 -429 -204 -71 -59 -220 -236 -322
-384 -52 -74 -137 -177 -204 -247 -187 -196 -287 -319 -373 -462 -74 -123
-100 -249 -78 -379 20 -111 62 -187 155 -279 170 -167 424 -275 802 -341 144
-26 182 -28 404 -28 258 -1 351 8 550 50 341 72 577 188 760 373 97 98 149
181 186 296 34 104 42 249 20 352 -31 151 -126 339 -234 465 -391 460 -475
548 -588 625 -194 132 -442 194 -649 163z"/>
</g>
</svg>
