<?xml version="1.0" standalone="no"?>
<!DOCTYPE svg PUBLIC "-//W3C//DTD SVG 20010904//EN"
 "http://www.w3.org/TR/2001/REC-SVG-20010904/DTD/svg10.dtd">
<svg version="1.0" xmlns="http://www.w3.org/2000/svg"
 width="2500.000000pt" height="2500.000000pt" viewBox="0 0 2500.000000 2500.000000"
 preserveAspectRatio="xMidYMid meet">

<g transform="translate(0.000000,2500.000000) scale(0.100000,-0.100000)"
fill="#000000" stroke="none">
<path d="M12140 23129 c-35 -14 -69 -48 -91 -91 -79 -154 32 -316 202 -294
l46 6 59 -87 c85 -126 163 -230 222 -294 l52 -56 -398 -6 c-423 -6 -555 -13
-912 -53 -477 -52 -1060 -166 -1494 -291 l-88 -25 -77 81 c-139 146 -324 294
-531 423 -338 211 -742 354 -1195 424 -311 47 -353 45 -375 -22 -9 -27 -8 -40
3 -63 8 -16 104 -139 212 -273 381 -467 602 -651 905 -752 95 -31 142 -42 264
-61 36 -6 24 -12 -205 -104 -466 -188 -878 -393 -1273 -633 -71 -43 -132 -78
-135 -78 -3 0 -13 13 -23 29 -27 49 -185 166 -308 230 -339 175 -695 241
-1059 196 -139 -17 -178 -31 -209 -70 -31 -39 -28 -78 9 -119 33 -38 323 -237
483 -330 235 -139 488 -211 671 -191 40 5 57 4 50 -3 -5 -5 -103 -79 -216
-164 -271 -203 -530 -414 -874 -713 -51 -44 -202 -122 -325 -168 -301 -112
-600 -174 -1028 -213 l-183 -17 -36 42 c-48 57 -99 81 -170 81 -99 -1 -187
-56 -232 -145 -35 -70 -38 -115 -11 -171 31 -64 103 -99 205 -99 114 1 185 37
225 115 l19 37 88 7 c320 25 594 65 792 116 138 35 140 38 -87 -125 -288 -206
-444 -301 -741 -449 l-93 -47 -39 15 c-78 32 -182 13 -231 -41 -28 -30 -58
-105 -58 -144 0 -59 47 -138 99 -166 100 -53 244 -17 303 76 24 38 29 55 27
99 l-3 54 165 84 c217 113 329 181 534 323 94 65 171 117 173 116 2 -2 -54
-72 -125 -157 -443 -528 -875 -1179 -1203 -1813 -45 -88 -116 -224 -157 -303
l-74 -142 -29 20 c-16 11 -59 35 -97 53 -67 31 -71 32 -208 32 -268 -1 -405
-54 -795 -309 -152 -99 -274 -166 -397 -219 -34 -14 -71 -35 -82 -46 -27 -27
-28 -82 -2 -105 11 -10 91 -42 178 -71 87 -29 202 -69 256 -89 215 -79 532
-96 753 -40 36 9 68 14 71 11 3 -3 -22 -75 -56 -160 -69 -178 -200 -562 -256
-752 -21 -71 -40 -132 -41 -134 -2 -2 -35 4 -74 14 -40 10 -142 30 -227 44
l-155 27 -20 52 c-36 96 -131 151 -243 139 -143 -15 -239 -120 -220 -243 14
-97 100 -158 237 -170 97 -8 116 -3 174 47 36 31 52 39 73 35 14 -3 67 -13
116 -21 173 -30 195 -36 195 -50 0 -8 -88 -72 -195 -142 -107 -70 -265 -174
-350 -229 -86 -56 -158 -97 -161 -92 -4 5 -27 23 -52 39 -62 39 -127 40 -203
2 -128 -65 -177 -247 -99 -364 35 -54 75 -78 140 -86 73 -9 129 16 189 84 35
39 55 73 67 114 l18 59 85 46 c131 71 383 224 506 308 60 41 111 73 112 72 2
-2 -15 -79 -36 -172 -52 -226 -85 -390 -125 -635 -27 -161 -38 -207 -53 -217
-10 -7 -54 -36 -98 -64 -168 -106 -373 -357 -503 -614 -131 -259 -198 -489
-347 -1189 -107 -504 -109 -511 -205 -830 -38 -126 -72 -249 -76 -272 -7 -48
9 -98 37 -113 58 -32 121 7 240 146 163 192 215 278 404 677 158 335 253 517
379 727 l81 135 7 -255 c8 -298 30 -624 62 -905 22 -196 22 -202 4 -271 -9
-39 -43 -214 -74 -390 -78 -447 -103 -589 -104 -590 0 -1 -15 -5 -34 -8 -18
-4 -52 -20 -75 -36 -87 -64 -126 -172 -97 -271 26 -90 98 -160 185 -180 77
-17 204 57 254 150 41 75 46 144 15 212 -26 55 -60 98 -92 116 -17 9 -17 16 8
149 14 76 40 222 58 323 21 117 35 177 40 165 4 -11 17 -71 28 -134 67 -363
209 -913 325 -1249 30 -89 32 -165 10 -354 -25 -215 -83 -462 -150 -643 -55
-147 -179 -416 -194 -421 -99 -31 -185 -100 -211 -168 -38 -99 37 -263 143
-314 78 -38 189 -19 256 42 96 88 93 287 -6 381 l-30 28 80 181 c121 277 195
519 237 776 l12 74 73 -179 c40 -99 108 -258 152 -355 78 -173 79 -176 62
-200 -11 -14 -43 -138 -78 -294 -105 -472 -129 -646 -138 -980 -10 -392 30
-646 154 -985 59 -163 358 -756 470 -933 27 -42 76 -77 111 -77 36 0 80 27 97
60 17 33 226 593 281 755 45 131 90 309 104 413 12 92 15 339 4 398 -8 46 -12
51 101 -96 122 -157 258 -322 384 -464 58 -65 124 -138 145 -163 l39 -45 -6
-76 c-3 -42 -18 -147 -32 -232 -35 -214 -44 -325 -46 -535 0 -99 -4 -191 -8
-205 -5 -18 -16 -26 -44 -32 -113 -23 -191 -117 -189 -228 1 -93 36 -150 117
-193 53 -27 143 -27 205 0 95 43 180 146 180 219 0 43 -46 129 -88 164 l-36
29 3 198 c3 236 12 340 48 574 l27 176 196 -186 c172 -164 373 -346 481 -436
36 -30 36 -30 42 -130 6 -99 31 -234 82 -436 87 -348 243 -668 436 -896 199
-235 608 -504 947 -623 127 -45 176 -39 196 27 5 16 -28 130 -103 360 -139
428 -239 738 -237 740 1 1 71 -37 156 -84 686 -379 1477 -687 2246 -875 157
-39 174 -45 174 -64 0 -33 42 -81 296 -335 l235 -235 -17 -61 c-20 -74 -14
-116 26 -172 36 -50 95 -81 153 -81 89 0 194 94 217 194 26 117 -86 232 -219
224 l-59 -3 -158 156 c-88 85 -188 186 -224 223 l-65 69 35 -6 c19 -3 141 -24
270 -46 774 -131 1533 -164 2333 -100 l147 12 77 -84 c238 -262 421 -395 692
-505 209 -85 461 -124 806 -124 527 0 1180 90 1440 199 201 84 278 168 229
250 -22 37 -17 35 -189 72 -313 67 -504 127 -865 271 -274 110 -441 170 -539
194 -88 21 -97 15 137 84 415 122 840 284 1277 485 105 48 295 132 423 186
l233 98 92 -30 c51 -16 179 -64 285 -107 151 -60 191 -80 186 -92 -4 -8 -9
-40 -11 -70 -6 -73 17 -115 86 -157 99 -60 207 -51 284 24 47 45 67 91 67 155
0 150 -180 267 -314 203 -42 -20 -46 -19 -245 65 -75 31 -160 65 -190 75 l-53
17 233 118 c428 214 764 422 1129 697 58 43 111 82 117 86 8 5 31 -5 59 -23
111 -77 289 -142 449 -165 182 -26 610 -15 782 21 104 21 354 104 446 148 215
103 511 348 537 445 13 51 4 82 -32 104 -22 14 -568 83 -848 107 -210 18 -523
10 -655 -16 l-30 -6 35 37 c19 20 100 87 180 149 402 313 759 669 1117 1116
83 104 134 158 156 168 17 7 67 18 110 24 91 12 198 2 410 -38 l137 -26 0 -29
c0 -105 121 -197 244 -187 141 12 251 156 216 284 -44 157 -255 212 -385 101
l-40 -34 -110 23 c-61 13 -158 29 -217 36 -60 7 -108 15 -108 19 0 8 464 240
537 268 l52 20 43 -24 c71 -39 110 -41 173 -10 45 21 61 37 85 78 50 88 50
186 -2 260 -61 86 -214 81 -300 -10 -32 -34 -67 -108 -68 -143 0 -23 -12 -31
-107 -74 -60 -27 -186 -88 -282 -137 -96 -49 -176 -87 -178 -85 -2 2 39 68 91
148 236 360 441 759 614 1198 55 141 229 652 258 760 9 32 13 35 44 34 181 -8
482 99 714 253 186 124 438 403 544 602 112 211 173 520 176 888 1 158 0 162
-23 187 -17 18 -35 26 -59 26 -30 0 -48 -15 -190 -161 -157 -161 -280 -270
-486 -430 -153 -118 -340 -283 -413 -364 -35 -39 -63 -63 -63 -55 0 8 13 87
30 176 78 427 128 859 155 1346 5 82 11 121 21 129 8 6 14 24 14 40 0 78 142
380 312 664 186 311 230 375 258 381 76 15 154 80 181 150 37 97 -12 248 -94
291 -84 43 -169 34 -237 -25 -100 -85 -109 -216 -23 -329 l24 -32 -51 -77
c-104 -153 -345 -565 -383 -654 -9 -20 -12 10 -19 145 -41 911 -211 1841 -519
2838 l-33 108 19 34 c26 50 187 202 271 258 40 26 123 74 185 108 88 47 117
58 129 49 104 -75 277 -39 338 69 25 44 29 126 10 182 -45 134 -189 203 -291
140 -77 -47 -136 -142 -137 -217 0 -37 -3 -42 -37 -58 -87 -41 -256 -142 -329
-196 -43 -33 -79 -58 -81 -56 -2 1 8 41 22 87 32 105 74 271 119 468 19 83 54
222 77 310 l41 159 44 30 c61 43 88 100 89 184 0 58 -4 72 -30 110 -65 92
-174 136 -259 104 -49 -19 -108 -71 -131 -116 -24 -47 -36 -126 -25 -173 11
-52 71 -111 127 -126 l39 -11 -57 -232 c-31 -128 -76 -312 -99 -408 -23 -96
-61 -233 -84 -303 l-41 -129 -84 224 c-213 569 -530 1225 -880 1822 -44 76
-81 141 -81 143 0 3 40 48 88 101 222 245 334 400 418 577 162 344 248 829
215 1213 -21 244 -65 439 -211 952 -45 157 -95 346 -112 420 -32 146 -50 180
-98 180 -14 0 -34 -6 -43 -12 -9 -7 -69 -110 -133 -228 -77 -144 -187 -323
-334 -545 -321 -485 -434 -691 -523 -952 -53 -152 -85 -294 -94 -405 -3 -43
-9 -78 -12 -77 -3 0 -41 42 -84 94 -43 51 -131 151 -195 222 -110 119 -119
133 -145 208 -56 166 -94 495 -83 740 12 309 62 527 242 1065 l85 255 51 25
c178 87 97 380 -104 380 -83 0 -163 -61 -194 -149 -17 -48 -17 -134 0 -174 12
-30 60 -80 85 -89 5 -1 -23 -100 -63 -218 -125 -372 -192 -631 -228 -885 -14
-99 -18 -483 -5 -555 12 -65 -4 -43 -57 83 -103 243 -146 392 -212 735 l-46
243 29 41 c23 35 28 51 28 103 0 102 -58 166 -155 173 -45 3 -61 0 -90 -20
-83 -57 -111 -190 -55 -263 15 -21 46 -45 68 -55 l41 -18 47 -244 c77 -400
119 -540 253 -841 l27 -59 -113 99 c-254 221 -545 444 -823 628 -171 113 -452
285 -467 285 -14 0 -9 30 31 165 57 194 75 316 74 530 0 368 -63 659 -227
1054 -62 150 -76 174 -111 197 -20 13 -30 14 -59 4 -38 -12 -43 -20 -114 -190
-23 -52 -62 -140 -87 -195 -137 -292 -206 -472 -235 -617 -37 -181 -25 -399
31 -539 10 -27 14 -49 9 -49 -5 0 -70 30 -144 66 -122 59 -142 72 -200 135
-144 156 -309 451 -391 700 l-49 147 26 30 c52 63 45 165 -17 227 -83 82 -223
68 -280 -29 -29 -49 -34 -126 -11 -179 17 -41 79 -96 117 -104 16 -3 32 -10
37 -17 5 -6 28 -72 52 -146 48 -148 142 -345 232 -482 32 -49 52 -88 45 -88
-7 0 -82 34 -167 76 -566 278 -993 436 -1595 589 -486 124 -928 201 -1361 239
-106 9 -172 20 -193 30 -76 40 -213 200 -373 436 -83 123 -84 126 -75 165 17
77 -25 170 -92 205 -43 22 -118 26 -161 9z m685 -969 c315 -20 626 -58 910
-111 152 -28 486 -101 482 -105 -2 -2 -109 14 -238 36 -619 105 -1049 143
-1644 143 -526 0 -957 -33 -1460 -112 -66 -10 -121 -18 -123 -16 -11 10 281
84 377 96 243 30 426 49 576 58 94 7 190 13 215 15 119 7 764 5 905 -4z m430
-264 c774 -58 1002 -95 1560 -252 687 -193 1542 -549 1920 -799 202 -134 548
-402 807 -627 1023 -888 1889 -2058 2652 -3585 460 -921 750 -1733 990 -2775
158 -684 232 -1272 243 -1913 9 -556 -22 -1011 -112 -1624 -73 -494 -109 -654
-225 -1001 -363 -1089 -922 -2132 -1613 -3010 -303 -385 -680 -796 -1022
-1114 -141 -131 -134 -115 26 57 735 791 1258 1605 1724 2687 295 686 479
1270 620 1975 141 706 198 1276 198 1980 1 495 -25 907 -89 1410 -43 347 -130
838 -200 1135 -14 58 -29 134 -34 170 -5 36 -22 106 -39 155 -16 50 -55 182
-86 295 -183 660 -447 1344 -756 1962 -51 102 -89 190 -89 207 0 20 -9 37 -28
53 -15 12 -58 79 -96 148 -545 990 -1262 1850 -2136 2561 -814 663 -1716 1112
-2770 1380 -821 209 -1646 299 -2610 286 -671 -9 -1143 -54 -1665 -158 -1018
-202 -2013 -663 -2949 -1363 -751 -562 -1374 -1212 -1928 -2012 -408 -590
-808 -1355 -1105 -2114 -424 -1085 -719 -2313 -817 -3405 -54 -590 -49 -1184
14 -1750 115 -1034 485 -2241 965 -3145 601 -1132 1364 -1982 2395 -2667 884
-588 2012 -1062 3250 -1368 1170 -288 2409 -396 3500 -305 85 7 123 6 148 -2
27 -10 38 -9 65 5 21 11 105 26 237 42 896 110 1842 369 2799 766 90 37 160
64 155 60 -24 -22 -224 -158 -336 -229 -449 -286 -1033 -566 -1480 -708 -998
-318 -1990 -493 -2967 -523 -286 -8 -475 -2 -791 29 -749 74 -1603 267 -2325
527 -951 342 -1973 897 -2730 1481 -570 440 -1137 1006 -1606 1602 -414 526
-804 1152 -952 1530 -353 897 -565 1833 -649 2865 -20 249 -17 1281 5 1595 80
1130 230 1874 578 2870 364 1044 851 1941 1580 2910 785 1043 1619 1824 2744
2569 559 371 1352 808 1590 876 160 46 477 124 570 139 159 27 1088 114 1445
135 231 14 1180 5 1425 -13z m-3955 -260 c0 -8 -47 -30 -122 -56 -669 -235
-1400 -597 -2015 -996 -62 -40 -113 -72 -113 -69 0 6 180 129 335 227 422 269
889 508 1375 705 173 71 516 201 533 202 4 1 7 -5 7 -13z m3675 -135 c365 -27
744 -72 1025 -122 167 -29 167 -29 43 -54 -61 -12 -140 -32 -175 -44 -69 -23
-212 -101 -290 -158 -94 -69 -264 -268 -395 -464 -70 -105 -85 -154 -60 -193
27 -41 65 -42 185 -2 173 57 264 75 497 97 268 25 389 48 520 100 192 77 325
176 410 309 46 72 85 158 85 189 0 32 15 33 92 11 632 -183 1225 -447 1777
-790 72 -45 131 -85 131 -91 0 -5 -43 -9 -98 -9 -138 0 -346 -29 -735 -104
-57 -10 -69 -10 -79 1 -22 27 -67 43 -121 43 -72 0 -135 -39 -177 -112 -25
-43 -30 -61 -27 -95 15 -146 235 -205 346 -94 20 20 42 55 50 77 l13 41 157
27 c86 14 206 35 266 47 163 30 461 37 580 14 105 -20 112 -24 310 -182 526
-418 973 -864 1384 -1381 114 -144 362 -484 356 -490 -2 -2 -30 2 -62 9 -93
19 -299 14 -447 -11 -176 -30 -257 -54 -518 -159 -123 -49 -331 -128 -463
-176 -270 -99 -290 -107 -305 -134 -36 -67 8 -107 180 -161 91 -28 194 -72
324 -137 375 -188 507 -233 806 -277 361 -53 644 -36 951 55 82 24 104 28 111
17 5 -7 50 -96 99 -197 275 -560 494 -1118 669 -1706 28 -93 53 -179 57 -189
5 -18 4 -18 -23 1 -52 37 -188 100 -269 126 -82 26 -223 57 -451 101 -174 34
-331 82 -554 172 -102 41 -193 74 -203 74 -28 0 -57 -37 -57 -73 0 -23 12 -49
41 -87 23 -30 79 -119 125 -196 105 -178 181 -280 275 -370 107 -102 188 -155
361 -238 272 -131 393 -167 751 -223 128 -20 181 -32 187 -43 22 -43 124 -630
165 -950 38 -305 85 -859 85 -1010 l0 -44 -61 98 c-109 178 -168 248 -399 477
-172 170 -226 229 -219 240 16 25 10 93 -12 134 -54 102 -156 167 -264 168
-57 1 -71 -3 -107 -29 -24 -16 -56 -51 -72 -77 -24 -40 -30 -61 -33 -125 -3
-66 -1 -82 19 -117 13 -21 42 -53 66 -69 54 -38 149 -47 236 -22 l57 17 67
-59 c37 -33 144 -138 237 -233 198 -201 287 -325 385 -534 34 -72 73 -154 87
-184 l26 -54 -12 -301 c-6 -166 -18 -380 -26 -476 -17 -196 -53 -511 -59 -517
-2 -2 -7 24 -11 59 -17 159 -66 331 -130 458 -40 79 -159 247 -248 351 -78 91
-337 326 -379 343 -61 26 -112 -8 -112 -72 2 -192 27 -876 35 -942 43 -355
162 -647 331 -811 76 -74 228 -165 323 -194 37 -12 40 -15 37 -46 -4 -48 -84
-364 -147 -579 -198 -680 -535 -1483 -888 -2115 -91 -164 -279 -480 -295 -497
-4 -4 -8 66 -8 155 -2 255 -33 375 -167 647 -56 113 -65 126 -95 134 -27 7
-38 5 -60 -11 -22 -17 -31 -38 -53 -139 -15 -65 -48 -177 -74 -249 -150 -417
-161 -465 -153 -648 4 -89 11 -129 35 -197 36 -105 92 -192 144 -223 l38 -23
-100 -125 c-205 -254 -425 -502 -664 -748 -123 -127 -434 -421 -445 -421 -3 0
15 84 41 187 25 104 66 284 90 402 l43 213 37 24 c68 42 114 123 125 218 25
211 -196 336 -379 215 -59 -39 -93 -91 -113 -172 -15 -58 -15 -76 -4 -125 16
-74 74 -135 144 -154 42 -11 46 -15 42 -38 -87 -426 -166 -760 -188 -787 -23
-29 -99 59 -223 261 l-76 125 16 48 c14 41 15 56 4 106 -14 70 -58 133 -104
153 -45 18 -126 18 -173 -2 -56 -23 -91 -62 -108 -121 -35 -120 49 -234 184
-250 28 -3 54 -8 59 -12 5 -3 48 -69 94 -145 58 -96 108 -164 160 -219 l76
-79 -96 -45 c-157 -73 -433 -191 -631 -268 -210 -83 -576 -215 -596 -215 -7 0
9 36 38 88 87 150 215 422 258 548 79 235 136 530 116 607 -3 14 -18 39 -32
56 -22 27 -32 31 -75 31 -45 0 -71 -12 -292 -137 -315 -178 -535 -290 -787
-403 -405 -182 -818 -401 -1004 -534 -95 -68 -266 -234 -336 -328 -90 -119
-135 -227 -155 -370 -7 -55 7 -51 -235 -69 -170 -12 -920 -25 -920 -15 0 3 24
39 53 79 30 39 70 98 90 130 123 193 269 571 322 836 19 93 10 141 -31 168
-45 29 -79 11 -198 -105 -144 -140 -255 -232 -451 -372 -267 -190 -389 -286
-464 -366 -80 -84 -160 -199 -187 -270 l-18 -46 -60 6 c-284 32 -651 89 -961
151 -289 58 -406 86 -403 96 5 13 248 167 408 259 80 46 179 104 221 130 69
44 77 47 100 34 135 -73 310 59 283 214 -10 60 -50 119 -100 148 -38 22 -54
26 -99 22 -68 -6 -138 -47 -179 -106 -25 -35 -30 -53 -31 -102 -1 -72 14 -59
-240 -205 -93 -54 -257 -154 -363 -223 -186 -120 -195 -124 -235 -119 -41 6
-522 141 -601 169 l-39 14 70 42 c187 110 376 282 511 465 174 233 329 503
373 649 18 58 19 73 9 99 -16 37 -46 59 -82 59 -15 0 -152 -31 -305 -69 -153
-38 -393 -92 -533 -121 -397 -80 -576 -129 -775 -210 -233 -95 -454 -249 -551
-385 l-22 -29 -133 63 c-839 398 -1575 917 -2178 1535 -73 76 -131 139 -129
141 2 3 36 -4 74 -16 218 -63 442 -64 709 -3 61 14 205 45 320 68 256 53 287
61 316 85 l22 18 -39 59 c-21 32 -43 64 -49 70 -16 17 -470 247 -606 307 -292
129 -522 177 -844 177 -160 0 -420 -32 -445 -55 -16 -14 -25 -3 -127 152 -106
161 -274 439 -288 476 -8 20 18 22 135 7 41 -6 159 -17 262 -25 l186 -15 34
-34 c62 -62 160 -70 245 -21 88 52 117 168 61 252 -86 131 -320 106 -371 -40
-5 -12 -14 -16 -29 -13 -13 3 -66 7 -118 11 -110 6 -393 36 -399 41 -8 7 41
55 136 134 l93 77 72 -4 c63 -3 79 -1 113 19 157 92 118 349 -54 348 -114 -1
-214 -95 -215 -203 l0 -48 -85 -68 c-47 -38 -108 -92 -136 -120 -27 -28 -53
-51 -58 -51 -11 0 -153 296 -241 502 -68 158 -227 571 -222 576 2 1 36 -13 77
-32 99 -46 207 -73 359 -92 270 -32 483 -61 695 -96 226 -36 294 -26 319 45
15 42 -10 78 -119 169 -107 90 -196 198 -287 347 -28 48 -89 144 -135 214
-241 366 -612 590 -911 547 -111 -16 -193 -46 -251 -96 -36 -30 -31 -40 -66
121 -70 315 -122 645 -149 950 -9 94 -18 191 -20 218 -3 26 -3 47 1 47 3 0 55
-31 117 -69 61 -38 176 -107 256 -154 l145 -85 -3 -52 c-5 -64 10 -100 59
-144 65 -59 156 -71 217 -27 75 53 112 205 66 268 -48 65 -138 97 -209 73 -35
-12 -38 -10 -188 78 -234 139 -416 254 -449 285 l-30 27 5 423 c5 423 15 589
58 957 53 463 140 950 246 1389 l28 114 37 -56 c52 -78 140 -179 303 -347 77
-80 169 -177 203 -216 70 -81 118 -110 159 -97 54 18 62 43 73 238 6 99 19
272 30 385 27 286 27 302 18 416 -18 234 -130 470 -282 596 -61 51 -185 118
-218 118 -10 0 -18 2 -18 5 0 11 127 361 189 523 447 1155 1025 2130 1756
2960 118 134 356 385 360 380 2 -2 -14 -55 -36 -118 -60 -180 -74 -274 -73
-500 0 -178 2 -203 26 -290 28 -105 72 -221 121 -320 26 -54 38 -67 64 -74 45
-12 80 12 88 61 24 139 83 375 122 482 127 353 163 506 163 687 0 152 -41 303
-105 391 -16 21 -12 24 142 153 396 332 869 658 1298 895 233 129 719 364 731
353 4 -5 -156 -227 -300 -417 -231 -305 -207 -278 -253 -283 -57 -7 -127 -51
-163 -100 -78 -107 -57 -237 45 -295 51 -29 142 -31 201 -4 110 50 167 207
113 312 l-20 41 56 71 c31 40 104 137 163 216 297 400 345 461 408 522 63 61
78 70 170 102 227 80 569 172 840 226 238 48 772 119 819 109 9 -1 -41 -29
-112 -60 -155 -70 -314 -163 -437 -257 -270 -205 -555 -596 -655 -898 -47
-142 -48 -157 -13 -193 17 -16 38 -30 47 -30 22 0 70 25 140 75 113 79 263
164 576 326 625 321 771 419 934 622 100 124 195 336 195 436 l0 24 428 -6
c235 -3 495 -10 577 -16z m-4235 -252 c-8 -5 -100 -61 -205 -125 -530 -323
-1113 -744 -1570 -1134 -398 -339 -847 -795 -1205 -1220 -467 -556 -947 -1251
-1295 -1875 -590 -1058 -1025 -2363 -1194 -3585 -113 -819 -145 -1938 -75
-2690 33 -361 103 -829 174 -1160 17 -80 33 -156 36 -170 l4 -25 -11 25 c-21
49 -121 399 -174 610 -145 580 -221 1069 -276 1775 -17 221 -23 1020 -10 1255
69 1225 326 2361 788 3475 310 750 825 1548 1500 2324 163 188 686 711 874
874 653 568 1293 1001 2024 1369 310 157 703 333 615 277z m9085 -896 c187
-124 447 -316 620 -458 356 -292 787 -727 1079 -1088 67 -83 79 -104 84 -145
l5 -47 -103 125 c-195 235 -343 395 -614 665 -409 408 -728 679 -1176 1000
-186 133 -142 111 105 -52z m278 -416 c820 -663 1566 -1524 2120 -2447 686
-1145 1137 -2453 1301 -3772 64 -515 81 -835 72 -1403 -8 -553 -19 -660 -28
-295 -19 684 -115 1345 -314 2140 -238 953 -502 1672 -931 2530 -513 1028
-1071 1889 -1723 2659 -173 205 -311 353 -530 570 -209 208 -205 211 33 18z
m2339 -2514 c278 -488 512 -958 688 -1383 432 -1044 729 -2239 826 -3330 21
-238 30 -891 15 -1145 -29 -496 -85 -933 -181 -1415 -57 -282 -74 -350 -123
-475 -34 -87 -44 -129 -68 -285 -14 -93 -63 -267 -144 -515 -300 -911 -695
-1625 -1300 -2350 -113 -135 -353 -405 -360 -405 -2 0 38 58 90 129 107 146
311 454 404 608 439 731 768 1575 1001 2563 32 135 92 378 133 540 173 678
269 1300 307 2005 13 237 13 782 0 1020 -76 1391 -419 2703 -1026 3917 -112
225 -214 413 -326 601 -32 55 -58 101 -58 103 0 23 32 -25 122 -183z m-17585
-3805 c-3 -8 -6 -5 -6 6 -1 11 2 17 5 13 3 -3 4 -12 1 -19z m-26 -264 c-36
-381 -44 -613 -38 -1088 6 -432 17 -659 52 -1001 120 -1185 446 -2317 965
-3356 60 -118 134 -274 165 -345 137 -308 328 -681 495 -963 33 -56 56 -100
51 -97 -15 9 -241 350 -343 516 -327 532 -591 1071 -814 1663 -36 94 -72 195
-80 222 -7 28 -34 109 -59 180 -57 160 -121 380 -185 630 -161 629 -258 1289
-291 1980 -13 263 -7 843 11 1090 20 286 76 792 86 782 2 -2 -5 -98 -15 -213z
m17748 -5635 c-325 -723 -782 -1423 -1325 -2029 -164 -183 -253 -264 -404
-366 -74 -50 -142 -94 -150 -99 -8 -5 66 75 165 176 673 690 1245 1471 1687
2305 39 74 73 133 75 131 2 -2 -20 -55 -48 -118z m-15609 -1585 c353 -428 814
-890 1230 -1235 568 -469 1177 -857 1955 -1245 171 -84 306 -154 302 -154 -14
0 -326 130 -517 215 -699 312 -1265 654 -1745 1055 -477 397 -982 953 -1309
1440 -87 129 -79 122 84 -76z m13270 -1373 c0 -11 -224 -180 -377 -284 -129
-89 -223 -149 -223 -144 0 3 44 37 98 77 53 41 160 124 238 186 186 149 264
197 264 165z m-9740 -1271 c8 -5 11 -10 5 -10 -5 0 -17 5 -25 10 -8 5 -10 10
-5 10 6 0 17 -5 25 -10z m-80 -130 c8 -5 11 -10 5 -10 -5 0 -17 5 -25 10 -8 5
-10 10 -5 10 6 0 17 -5 25 -10z m285 -105 c567 -205 1158 -366 1746 -474 512
-95 837 -127 1433 -141 226 -6 412 -13 415 -16 12 -13 -816 5 -999 20 -740 64
-1366 185 -2039 396 -249 78 -757 267 -810 301 -21 14 -22 14 254 -86z"/>
<path d="M8150 17089 c-663 -68 -1200 -515 -1818 -1510 -603 -973 -1055 -2199
-1211 -3288 -87 -601 -88 -1220 -5 -1711 106 -625 341 -1118 704 -1480 267
-266 594 -442 960 -516 118 -24 138 -25 360 -21 218 4 242 6 330 31 181 51
304 114 444 227 217 175 414 472 567 854 63 158 257 742 369 1110 45 149 86
274 90 278 4 5 6 -47 4 -115 -14 -427 -25 -824 -35 -1253 -16 -727 -5 -819
104 -874 83 -42 246 -30 281 20 8 13 12 35 9 62 -3 23 4 173 16 332 11 160 25
398 31 530 6 132 17 362 25 510 8 149 22 540 31 870 17 590 14 881 -13 1229
l-6 79 39 -6 c264 -44 721 -48 908 -7 188 40 290 85 400 176 36 30 73 68 81
85 15 27 15 33 1 53 -29 45 -81 61 -197 61 l-105 0 -115 -57 c-164 -83 -207
-92 -414 -85 -185 6 -299 22 -715 97 -414 75 -489 83 -705 83 -222 -1 -364
-22 -534 -79 -252 -84 -529 -262 -613 -393 -65 -104 -11 -160 143 -149 53 4
64 9 102 45 57 55 115 92 235 152 120 61 252 112 365 143 67 18 109 22 227 23
126 0 167 -5 313 -34 92 -19 167 -38 167 -44 0 -15 -66 -256 -121 -442 -28
-93 -66 -224 -86 -290 -207 -715 -502 -1620 -650 -1995 -193 -489 -435 -812
-708 -945 -137 -67 -232 -79 -373 -45 -387 93 -776 461 -1021 965 -138 284
-227 605 -283 1020 -21 156 -23 205 -23 615 1 420 2 458 28 670 70 587 183
1072 391 1686 148 437 288 770 497 1184 331 655 669 1160 999 1490 220 220
426 356 611 401 83 21 89 21 161 5 206 -46 412 -236 548 -506 75 -150 109
-269 156 -535 30 -174 45 -215 86 -239 41 -25 150 -26 195 -3 29 15 32 22 40
84 13 106 9 408 -6 508 -37 246 -156 492 -315 651 -170 170 -391 265 -677 293
-128 12 -146 12 -269 0z"/>
<path d="M12275 12430 c-62 -13 -122 -35 -193 -71 -218 -110 -368 -308 -418
-553 -13 -64 -19 -74 -57 -105 -23 -19 -71 -64 -105 -99 -35 -36 -67 -61 -70
-56 -71 102 -210 275 -236 292 -76 52 -184 65 -289 35 -46 -13 -73 -29 -118
-71 -121 -112 -278 -396 -404 -729 -21 -57 -41 -103 -45 -103 -4 0 -12 69 -19
153 -7 83 -23 262 -36 397 -14 135 -27 274 -30 310 -11 127 -24 169 -55 185
-37 19 -113 19 -150 0 -37 -19 -53 -50 -74 -143 -22 -97 -52 -431 -66 -722 -6
-129 -15 -323 -20 -430 -33 -634 -31 -1049 5 -1340 29 -233 56 -285 163 -316
79 -23 231 -16 289 15 76 38 77 43 78 305 0 127 -2 326 -5 441 -5 200 -4 217
24 360 84 443 242 946 388 1240 49 97 146 255 158 255 3 0 33 -39 67 -88 34
-48 103 -130 153 -182 l90 -95 -30 -65 c-162 -356 -203 -778 -111 -1143 58
-231 130 -367 260 -498 70 -70 102 -94 171 -127 141 -68 188 -77 405 -76 225
0 290 14 450 93 231 115 415 319 580 642 139 273 246 591 279 829 l7 45 86 40
c48 22 125 63 171 92 46 29 86 53 89 53 3 0 2 -8 -2 -17 -16 -43 -88 -333
-114 -464 -42 -206 -55 -361 -48 -579 9 -262 50 -449 137 -622 76 -152 170
-251 302 -318 112 -56 202 -73 356 -68 212 8 342 66 497 222 245 246 451 697
560 1223 65 316 71 674 15 884 l-12 44 58 49 c33 28 135 125 228 216 124 122
167 158 164 140 -3 -14 -26 -128 -52 -255 -107 -525 -181 -1133 -208 -1712
-28 -590 30 -715 332 -717 176 -1 251 39 270 145 5 29 21 160 35 289 80 726
177 1084 430 1595 104 211 199 370 304 508 89 117 197 234 206 225 4 -4 -9
-114 -28 -245 -20 -131 -48 -321 -62 -423 -15 -102 -35 -246 -45 -320 -40
-279 -70 -560 -70 -652 0 -115 17 -149 95 -188 68 -34 254 -42 340 -14 88 27
109 53 135 169 109 482 315 909 647 1340 109 141 250 308 264 313 5 2 9 -2 9
-10 0 -19 -101 -414 -160 -623 -215 -769 -303 -1254 -317 -1760 -6 -226 4
-374 38 -554 54 -279 187 -557 316 -658 77 -61 120 -76 224 -81 108 -5 151 5
216 49 108 74 231 344 328 723 41 162 175 807 182 883 5 46 3 52 -18 64 -32
17 -106 17 -145 1 -30 -13 -34 -22 -69 -140 -20 -69 -68 -245 -107 -391 -125
-476 -209 -725 -301 -890 -30 -53 -30 -53 -43 -29 -22 42 -63 200 -84 323 -79
472 -15 1253 180 2200 107 520 131 670 133 845 2 174 -22 238 -106 283 -35 18
-58 22 -142 22 -89 0 -106 -3 -155 -27 -74 -37 -168 -124 -402 -379 -216 -236
-348 -390 -442 -518 l-61 -85 -7 300 c-10 419 -26 552 -76 607 -33 38 -92 57
-178 57 -71 0 -89 -4 -144 -31 -151 -76 -412 -392 -620 -749 -75 -130 -220
-414 -260 -510 -38 -91 -43 -85 -35 45 10 195 44 637 61 815 9 91 17 217 18
280 1 104 -1 120 -24 165 -32 64 -77 88 -178 93 -119 7 -141 -6 -287 -168
-152 -168 -436 -433 -449 -419 -3 2 -21 35 -41 73 -20 39 -55 97 -77 130 -57
84 -221 243 -298 289 -215 125 -532 122 -790 -8 -130 -65 -224 -151 -274 -252
-38 -75 -49 -135 -44 -233 l5 -89 -91 -81 c-110 -96 -226 -184 -296 -223 l-50
-28 0 60 c0 91 -28 295 -56 399 -82 316 -247 545 -464 645 -142 65 -357 84
-535 47z m376 -184 c203 -95 362 -342 404 -624 15 -99 19 -322 7 -402 -7 -44
-8 -45 -57 -58 -72 -19 -276 -17 -349 3 -85 23 -176 68 -239 119 -97 80 -181
230 -202 364 l-7 42 41 0 c28 0 48 7 67 24 28 23 28 24 10 51 -10 15 -38 36
-62 46 -50 23 -52 30 -28 122 37 143 116 264 207 317 45 27 59 30 103 26 29
-2 76 -16 105 -30z m1935 -172 c95 -40 226 -148 302 -252 49 -65 142 -242 142
-268 0 -17 -26 -30 -127 -65 -174 -59 -350 -63 -445 -12 -72 39 -133 111 -148
174 -17 72 -8 192 19 255 25 57 96 132 156 162 49 26 53 26 101 6z m499 -741
c4 -10 9 -83 12 -163 24 -639 -355 -1522 -764 -1781 l-31 -20 -35 43 c-179
219 -262 693 -212 1199 21 207 97 652 116 673 4 5 36 2 75 -8 216 -54 564 -30
769 53 62 25 61 25 70 4z m-3122 -222 c116 -79 308 -149 487 -176 102 -16 420
-20 503 -6 26 4 50 4 53 0 7 -13 -70 -234 -125 -357 -172 -380 -408 -693 -637
-842 -72 -47 -168 -90 -200 -90 -9 0 -33 14 -54 30 -169 133 -300 543 -300
930 0 169 31 375 81 545 31 102 33 104 93 47 28 -26 73 -63 99 -81z"/>
</g>
</svg>
