<?xml version="1.0" standalone="no"?>
<!DOCTYPE svg PUBLIC "-//W3C//DTD SVG 20010904//EN"
 "http://www.w3.org/TR/2001/REC-SVG-20010904/DTD/svg10.dtd">
<svg version="1.0" xmlns="http://www.w3.org/2000/svg"
 width="2400.000000pt" height="2400.000000pt" viewBox="0 0 2400.000000 2400.000000"
 preserveAspectRatio="xMidYMid meet">

<g transform="translate(0.000000,2400.000000) scale(0.100000,-0.100000)"
fill="#000000" stroke="none">
<path d="M10750 18280 c-449 -26 -981 -200 -1341 -439 -449 -298 -817 -802
-939 -1284 l-28 -110 -58 98 c-101 166 -261 403 -347 513 -101 131 -303 341
-420 439 -576 481 -1316 650 -2025 462 -371 -98 -670 -270 -961 -554 -205
-200 -334 -376 -452 -620 -367 -755 -253 -1607 309 -2315 110 -139 375 -398
547 -536 288 -230 722 -534 1135 -794 241 -152 498 -323 740 -493 903 -635
1209 -957 1286 -1355 8 -41 14 -100 14 -132 0 -65 5 -70 75 -70 55 0 68 16 67
85 0 52 1 55 24 55 41 0 64 19 85 68 49 114 164 275 340 478 139 158 452 478
614 627 206 189 608 503 1025 802 777 557 1230 940 1523 1290 239 284 472 633
601 900 232 476 332 1115 242 1542 -76 357 -201 598 -431 828 -217 217 -456
349 -778 431 -139 35 -363 72 -482 79 -201 11 -242 12 -365 5z m432 -126 c495
-68 820 -226 1067 -519 216 -255 339 -564 371 -935 31 -347 -76 -871 -259
-1271 -182 -400 -520 -874 -843 -1184 -250 -241 -636 -542 -1108 -865 -500
-342 -831 -583 -1055 -767 -351 -287 -890 -888 -1020 -1135 l-29 -56 -32 79
c-146 357 -540 735 -1379 1324 -132 93 -356 245 -498 337 -841 549 -1188 807
-1487 1107 -235 236 -369 416 -495 666 -163 320 -245 683 -232 1015 28 675
377 1287 957 1675 186 125 441 228 681 277 99 20 143 23 334 23 190 -1 234 -4
323 -23 426 -93 811 -310 1140 -640 198 -200 367 -425 577 -767 172 -281 195
-308 261 -321 45 -8 101 3 123 25 12 12 20 41 24 94 15 169 61 332 147 514
125 262 249 440 455 652 146 150 235 225 377 318 273 180 725 338 1103 386 86
11 394 6 497 -9z"/>
<path d="M18643 17526 c-94 -31 -183 -120 -241 -243 l-28 -60 -55 50 c-29 28
-83 64 -119 81 -55 26 -77 31 -145 31 -96 0 -135 -19 -165 -80 -39 -80 -14
-212 60 -323 47 -69 159 -179 250 -244 158 -112 273 -143 355 -96 48 28 236
258 301 368 95 161 112 289 55 405 -41 84 -85 115 -168 121 -33 2 -76 -2 -100
-10z"/>
<path d="M19945 17367 c-94 -31 -201 -126 -254 -226 -17 -33 -41 -95 -52 -138
-28 -106 -36 -330 -18 -500 7 -71 14 -157 14 -193 0 -58 2 -65 25 -77 46 -23
129 -16 200 18 198 94 230 106 686 244 99 30 202 105 248 178 46 74 48 148 7
232 -18 36 -48 78 -69 95 -76 63 -213 78 -333 37 l-66 -23 -6 72 c-9 121 -68
217 -162 266 -50 26 -163 33 -220 15z"/>
<path d="M14176 16436 c-51 -19 -98 -66 -151 -151 -165 -263 -327 -761 -420
-1285 -36 -203 -33 -193 -53 -185 -143 55 -402 16 -576 -87 -239 -141 -457
-487 -517 -818 -17 -96 -14 -282 5 -364 33 -139 116 -266 211 -321 60 -36 185
-65 275 -65 88 0 205 27 279 64 69 36 168 131 255 246 l72 96 28 -100 c82
-296 245 -578 377 -651 52 -29 59 -30 174 -30 112 0 124 2 180 29 125 60 386
369 605 715 l95 150 7 -62 c28 -240 110 -388 251 -452 106 -49 264 -56 374
-19 85 29 155 89 223 193 14 21 15 13 17 -96 4 -333 127 -535 355 -584 74 -16
222 -6 279 19 86 37 154 116 341 392 141 208 278 477 378 742 19 49 35 86 38
84 2 -3 12 -47 22 -100 36 -182 104 -341 188 -437 100 -113 297 -157 443 -101
106 41 228 256 411 722 l49 125 -5 -95 c-3 -52 -9 -216 -12 -365 l-7 -270
-231 -235 c-238 -243 -379 -403 -521 -595 -187 -251 -304 -494 -341 -709 -46
-262 56 -499 256 -595 52 -24 64 -26 200 -26 137 1 150 3 227 31 177 66 355
205 488 383 72 94 198 338 239 461 105 315 139 592 140 1120 l1 355 206 220
c269 287 393 426 541 612 67 83 125 150 129 147 15 -9 180 -292 217 -374 82
-178 132 -372 132 -513 l0 -73 -47 -16 c-151 -50 -398 -143 -463 -174 -177
-84 -336 -219 -387 -331 -40 -87 -39 -176 4 -263 76 -154 226 -230 457 -230
243 0 431 82 602 262 188 198 298 447 320 724 l7 89 115 75 c332 218 552 453
552 591 0 23 -6 30 -34 37 -19 6 -49 7 -68 3 -29 -6 -37 -15 -67 -76 -27 -56
-57 -93 -145 -180 -103 -101 -338 -285 -365 -285 -6 0 -11 8 -11 19 0 35 -51
196 -92 290 -70 158 -183 335 -425 662 -51 70 -93 132 -93 138 0 6 11 44 25
86 86 255 60 571 -58 693 -53 56 -101 75 -198 80 -185 9 -303 -69 -370 -247
-16 -42 -21 -78 -21 -146 1 -157 62 -307 224 -548 l59 -88 -43 -67 c-65 -101
-189 -263 -303 -397 -150 -176 -419 -469 -421 -459 -1 5 -7 90 -14 189 -22
373 -51 617 -92 785 -23 99 -37 124 -79 146 -62 32 -217 16 -239 -25 -5 -10
-37 -128 -70 -262 -93 -370 -155 -575 -242 -794 -52 -132 -138 -298 -188 -364
l-40 -54 -16 39 c-22 52 -59 222 -81 369 -26 172 -25 807 1 1120 12 155 15
228 8 246 -15 39 -74 62 -157 62 -86 0 -131 -20 -151 -68 -21 -51 -80 -283
-113 -445 -79 -389 -423 -1230 -629 -1540 -69 -104 -256 -330 -279 -338 -7 -2
-18 18 -27 50 -61 210 -44 676 45 1226 16 101 29 185 29 186 0 2 14 6 30 10
39 7 62 58 91 199 38 183 13 357 -69 483 -56 85 -117 142 -192 178 -59 28 -76
31 -180 34 -170 6 -275 -24 -411 -114 -218 -144 -513 -595 -640 -979 -25 -74
-35 -93 -57 -103 -33 -16 -103 -105 -257 -327 -142 -205 -264 -369 -365 -490
-78 -94 -258 -285 -269 -285 -13 0 -94 133 -141 232 -87 184 -157 431 -187
659 l-16 126 90 184 c92 186 173 370 265 599 210 523 289 886 275 1264 -8 230
-42 362 -101 401 -34 23 -114 28 -160 11z m88 -401 c0 -177 -3 -229 -22 -330
-50 -261 -118 -485 -247 -805 -154 -383 -171 -411 -166 -275 4 84 41 411 67
590 69 466 198 904 323 1094 l16 24 14 -44 c11 -33 15 -96 15 -254z m5463
-496 c24 -66 27 -89 27 -209 1 -83 -4 -142 -11 -154 -10 -18 -13 -15 -36 30
-68 134 -90 301 -52 392 15 37 20 42 32 30 7 -8 26 -48 40 -89z m-3492 -385
c59 -27 141 -114 174 -185 40 -84 55 -181 47 -309 -9 -154 -7 -151 -72 -144
-75 9 -138 -10 -173 -52 -58 -72 -144 -271 -205 -482 -39 -132 -108 -260 -223
-409 -62 -82 -210 -226 -226 -220 -17 5 -47 105 -63 212 -19 121 -14 373 11
510 49 278 211 705 338 895 116 174 266 244 392 184z m-2734 -425 c30 -13 49
-28 49 -38 0 -9 -9 -83 -21 -166 -13 -96 -22 -233 -26 -382 l-6 -232 -95 -127
c-111 -148 -259 -306 -338 -360 l-56 -38 -19 24 c-11 14 -35 57 -54 95 -138
283 -103 730 81 1006 125 189 334 283 485 218z m6537 -1336 c-51 -337 -256
-657 -445 -698 -80 -17 -201 52 -242 138 -75 156 47 339 319 477 57 29 340
138 361 139 14 1 15 -7 7 -56z m-1683 -380 c-28 -420 -49 -593 -95 -816 -53
-255 -145 -492 -244 -631 -100 -140 -263 -256 -339 -242 -47 9 -110 58 -145
114 -76 118 -82 284 -19 474 80 237 230 481 484 786 93 111 350 392 359 392 2
0 2 -35 -1 -77z"/>
<path d="M5030 13001 c-102 -31 -188 -139 -206 -258 l-6 -41 -47 35 c-76 59
-125 76 -232 81 -124 6 -194 -13 -248 -67 -104 -104 -70 -267 93 -438 115
-122 249 -202 468 -280 89 -31 108 -35 180 -31 l80 3 58 61 c63 68 184 244
231 336 16 32 43 100 60 151 26 77 31 102 27 159 -9 120 -98 230 -223 277 -58
22 -182 28 -235 12z"/>
<path d="M3285 12861 c-54 -25 -98 -74 -132 -146 -23 -51 -28 -76 -31 -165 -3
-73 1 -126 12 -173 9 -38 16 -72 16 -76 0 -4 -33 -1 -72 7 -40 8 -129 15 -198
15 -163 2 -253 -23 -317 -88 -66 -65 -59 -122 26 -203 94 -90 313 -184 506
-216 95 -16 264 -31 477 -42 116 -6 130 -5 171 15 86 42 88 79 28 441 -75 448
-121 562 -256 626 -64 30 -170 33 -230 5z"/>
<path d="M4624 11580 c-156 -62 -245 -245 -200 -410 8 -30 13 -56 12 -57 -1
-1 -24 5 -51 13 -30 10 -104 18 -181 21 -151 6 -211 -6 -290 -59 -138 -93
-126 -208 39 -364 187 -179 371 -226 963 -251 117 -5 135 -3 177 15 30 13 51
30 57 46 5 14 12 157 16 318 10 446 -8 553 -112 647 -76 70 -142 93 -274 98
-87 2 -114 0 -156 -17z"/>
<path d="M13275 11344 c-630 -16 -1536 -65 -1830 -99 -22 -2 -65 -7 -95 -10
-2061 -192 -3940 -614 -5360 -1203 -160 -66 -475 -212 -585 -270 -58 -31 -70
-41 -70 -62 0 -17 6 -26 20 -28 15 -3 53 -73 165 -305 122 -254 383 -791 761
-1563 86 -177 100 -195 127 -172 26 24 326 182 527 279 1360 656 3154 1092
5030 1224 454 32 596 36 1227 42 1166 10 1968 -42 3063 -198 923 -131 2137
-408 2916 -665 107 -35 207 -64 221 -64 60 0 67 27 218 860 250 1383 228 1248
204 1256 -11 4 -93 38 -184 77 -217 92 -497 196 -690 257 -1062 332 -2502 559
-3935 620 -132 5 -285 12 -340 15 -119 6 -1217 13 -1390 9z m143 -290 c20 -14
22 -23 22 -108 0 -136 -27 -625 -55 -996 -13 -179 -27 -373 -31 -432 -8 -131
-15 -144 -82 -142 -57 2 -101 22 -132 61 -79 99 -273 603 -357 925 -9 37 -18
66 -20 64 -10 -10 -75 -586 -93 -821 -6 -77 -16 -152 -21 -167 -25 -62 -160
-42 -222 31 -76 90 -170 460 -292 1142 -25 141 -43 263 -39 272 9 23 55 26
106 5 19 -7 31 -21 37 -45 15 -54 77 -321 117 -503 34 -156 136 -527 153 -558
5 -9 10 9 15 49 20 195 133 816 155 858 13 24 63 29 104 10 29 -13 34 -23 99
-204 62 -172 126 -334 226 -570 l77 -180 7 75 c3 41 11 149 18 240 11 177 86
926 97 969 3 14 8 29 10 34 8 13 78 7 101 -9z m807 -35 c169 -21 225 -37 225
-63 0 -24 -30 -27 -189 -15 -182 13 -312 9 -336 -11 -22 -19 -34 -49 -51 -140
-17 -88 -44 -324 -44 -391 l0 -47 163 -4 c135 -3 169 -7 202 -23 26 -13 41
-28 43 -42 4 -29 -36 -39 -183 -47 -60 -3 -138 -9 -172 -12 l-63 -7 -2 -278
c-1 -154 -2 -286 -2 -295 -1 -15 22 -17 219 -18 199 -1 224 -3 260 -21 50 -25
59 -60 20 -75 -25 -10 -242 -33 -426 -46 -164 -11 -273 26 -306 104 -47 113
-13 723 62 1098 37 185 64 270 99 310 50 59 163 64 481 23z m1239 -5 c145 -37
242 -138 276 -288 21 -93 -5 -127 -78 -103 -33 11 -39 20 -71 100 -36 88 -81
153 -127 183 -63 42 -166 -35 -232 -174 -30 -64 -37 -90 -40 -154 -4 -69 -1
-83 21 -120 14 -24 69 -83 123 -132 220 -198 321 -355 354 -548 37 -211 -127
-427 -357 -470 -52 -10 -75 -9 -146 6 -142 30 -220 90 -310 238 -44 74 -61
129 -52 174 7 41 32 56 77 48 55 -11 66 -21 82 -78 21 -70 83 -162 153 -226
49 -45 59 -50 87 -44 82 18 168 93 212 187 59 127 6 332 -131 507 -24 30 -101
108 -170 174 -143 134 -175 183 -183 282 -13 171 127 391 282 440 57 18 156
17 230 -2z m1015 -118 c19 -6 44 -24 55 -39 20 -28 21 -42 27 -490 4 -254 10
-525 14 -602 7 -147 -15 -477 -35 -515 -5 -10 -19 -22 -31 -25 -30 -10 -100 3
-126 23 -22 16 -23 27 -31 222 -5 113 -7 226 -4 253 l4 47 -113 -1 c-63 -1
-125 -4 -138 -8 -25 -7 -38 -40 -141 -366 -44 -141 -50 -148 -111 -143 -68 7
-90 29 -83 82 11 84 47 245 79 356 73 249 331 926 425 1115 39 79 49 91 80
102 36 11 69 9 129 -11z m404 -14 c34 -30 190 -274 262 -411 39 -72 72 -131
75 -131 3 0 50 88 104 196 55 108 113 214 129 236 28 39 30 40 78 36 70 -7 83
-21 76 -83 -5 -46 -96 -345 -187 -615 -58 -174 -376 -896 -435 -989 -16 -26
-34 -41 -53 -46 -56 -12 -155 24 -169 62 -3 9 4 50 16 92 27 91 186 519 282
757 l69 172 -79 124 c-142 221 -224 381 -283 546 -15 44 -16 57 -6 69 16 20
93 10 121 -15z m-6017 -47 c28 -18 37 -58 74 -330 17 -126 53 -360 81 -520 27
-159 59 -346 70 -415 12 -69 23 -127 25 -129 1 -2 36 4 76 13 144 31 352 66
392 66 23 0 57 -5 77 -10 83 -23 72 -67 -23 -99 -194 -64 -446 -107 -574 -99
-136 9 -155 39 -213 340 -47 245 -74 423 -95 628 -21 202 -40 525 -33 544 14
36 94 41 143 11z m-647 -38 c97 -48 10 -113 -238 -177 -107 -28 -145 -41 -142
-51 82 -278 261 -1214 261 -1365 0 -54 -19 -69 -84 -69 -111 0 -134 27 -192
228 -124 428 -173 733 -174 1066 l0 114 -27 -6 c-80 -16 -240 -28 -287 -23
-67 9 -118 39 -114 68 8 57 98 86 456 148 159 28 318 60 353 70 68 21 142 19
188 -3z m241 -142 c41 -21 53 -68 95 -380 19 -144 46 -321 60 -395 23 -121 83
-505 100 -636 6 -47 4 -53 -16 -68 -43 -30 -131 -11 -153 32 -19 38 -131 504
-155 647 -30 179 -39 260 -56 480 -8 110 -17 221 -20 247 -5 39 -2 51 15 68
24 24 88 27 130 5z m-1395 -109 c27 -18 42 -61 124 -356 100 -361 254 -1039
249 -1094 -2 -18 -14 -37 -30 -49 -38 -28 -144 -26 -206 4 -49 24 -169 154
-280 302 -78 105 -360 503 -417 590 -21 31 -39 56 -41 54 -4 -4 65 -313 115
-513 47 -188 111 -509 111 -556 0 -44 -15 -58 -61 -58 -64 0 -88 15 -113 72
-70 159 -212 744 -256 1056 -25 177 -25 213 1 246 18 22 28 26 74 26 30 0 66
-5 81 -12 15 -7 88 -93 174 -208 164 -216 500 -623 508 -616 1 2 -9 50 -22
107 -60 255 -176 896 -176 974 0 23 6 35 23 43 28 15 112 7 142 -12z m-978
-288 c20 -20 34 -79 97 -408 74 -386 87 -471 93 -640 8 -222 -19 -352 -93
-439 -55 -63 -103 -84 -209 -89 -119 -5 -193 9 -294 59 -195 96 -355 329 -430
624 -59 235 -101 690 -70 759 7 13 25 30 41 37 37 15 124 5 149 -17 26 -24 70
-152 143 -421 105 -387 161 -531 269 -695 74 -113 127 -171 149 -163 25 10 76
91 93 150 47 157 45 243 -19 720 -26 187 -49 380 -53 429 -6 80 -4 90 13 103
23 18 99 12 121 -9z"/>
<path d="M16331 10416 c-55 -135 -145 -362 -185 -468 l-25 -68 43 0 c24 0 77
-3 118 -6 l74 -7 18 332 c11 182 17 334 14 337 -3 2 -29 -51 -57 -120z"/>
<path d="M19686 9123 c-6 -21 -151 -866 -161 -940 -6 -46 -10 -52 -33 -57 -15
-3 -121 -21 -237 -41 -115 -20 -306 -54 -423 -76 -117 -22 -217 -37 -222 -34
-5 3 -11 1 -15 -5 -10 -17 27 -26 340 -85 165 -31 354 -67 420 -80 166 -32
1114 -204 1145 -207 19 -2 26 2 28 19 3 23 -85 121 -480 535 -101 106 -155
170 -147 173 8 2 102 30 209 60 107 31 311 90 455 131 460 133 500 145 514
159 18 17 7 45 -17 45 -10 0 -72 18 -137 40 -252 85 -1198 380 -1218 380 -9 0
-18 -8 -21 -17z"/>
<path d="M5590 8543 c-340 -129 -1578 -670 -1621 -709 -55 -49 20 -57 696 -73
253 -6 538 -14 633 -17 l172 -6 -17 -23 c-10 -13 -181 -221 -381 -464 -199
-242 -365 -447 -368 -455 -7 -18 24 -36 61 -36 64 0 2379 675 2503 730 75 33
65 71 -21 84 -24 4 -238 -5 -477 -19 -239 -15 -477 -27 -529 -28 l-93 -2 -187
405 c-233 505 -285 606 -314 614 -26 7 -36 7 -57 -1z"/>
<path d="M18376 8419 c-3 -34 -6 -132 -6 -217 l0 -154 23 6 c12 4 183 34 380
66 197 33 366 64 375 69 9 4 23 6 29 4 12 -4 30 23 22 32 -6 5 -795 255 -807
255 -5 0 -12 -28 -16 -61z"/>
<path d="M7345 8009 c-513 -207 -674 -274 -725 -303 l-54 -30 31 -10 c50 -14
1089 6 1104 21 10 10 1 50 -42 190 -51 168 -73 213 -101 213 -7 0 -103 -36
-213 -81z"/>
<path d="M17803 7210 c-50 -26 -84 -63 -121 -134 -23 -44 -27 -63 -27 -136 0
-74 3 -91 27 -131 25 -43 93 -112 132 -134 27 -15 39 -97 26 -180 -14 -93 -60
-186 -160 -318 -47 -63 -79 -115 -76 -123 10 -26 53 -14 132 37 184 119 302
247 389 420 81 161 97 257 65 404 -46 209 -127 300 -278 311 -56 4 -74 2 -109
-16z"/>
<path d="M17099 7190 c-94 -50 -164 -163 -163 -266 1 -91 38 -160 137 -257 71
-69 80 -82 84 -121 10 -88 -55 -253 -165 -416 -39 -57 -68 -108 -66 -112 11
-17 63 -7 102 20 201 135 395 383 466 594 22 65 38 214 31 273 -15 115 -92
222 -198 275 -74 37 -169 41 -228 10z"/>
<path d="M12815 7174 c-153 -31 -194 -55 -214 -129 -24 -93 -58 -1415 -47
-1825 7 -242 28 -699 46 -990 19 -308 33 -351 128 -403 174 -95 554 -67 804
59 138 69 286 209 371 351 134 224 267 616 327 966 81 478 26 1011 -136 1317
-65 122 -148 232 -241 321 -178 168 -398 283 -638 334 -88 18 -304 18 -400 -1z
m270 -206 c187 -54 395 -210 512 -383 168 -249 234 -557 211 -995 -22 -432
-193 -1014 -385 -1308 -57 -88 -178 -202 -253 -239 -58 -29 -66 -31 -72 -15
-3 9 -11 103 -17 207 -6 105 -34 460 -61 790 -27 330 -61 751 -75 935 -38 491
-92 948 -121 1023 -6 17 0 18 92 12 55 -4 130 -16 169 -27z"/>
<path d="M15189 7129 c-288 -28 -509 -198 -668 -514 -96 -191 -160 -408 -202
-685 -19 -121 -23 -189 -23 -415 -1 -294 7 -391 55 -628 116 -584 367 -937
734 -1033 96 -26 332 -26 425 0 286 77 490 308 624 707 84 251 123 483 133
799 18 547 -102 1052 -333 1408 -76 118 -217 256 -310 304 -123 65 -222 78
-435 57z m116 -178 c246 -112 447 -552 510 -1112 19 -175 19 -507 0 -674 -59
-502 -242 -922 -467 -1073 -34 -22 -41 -23 -67 -12 -40 16 -159 141 -210 220
-133 204 -230 487 -283 825 -19 119 -22 183 -22 425 -1 300 5 371 51 600 70
351 230 678 386 791 47 34 50 34 102 10z"/>
<path d="M10230 7060 c-187 -7 -391 -24 -696 -59 -171 -20 -233 -81 -135 -131
66 -33 141 -41 425 -47 l278 -5 -6 -62 c-37 -356 -32 -1564 9 -2321 5 -91 53
-409 70 -466 4 -13 -12 -17 -98 -27 -182 -22 -400 -61 -436 -80 -75 -39 -43
-98 67 -122 91 -19 1350 2 1446 24 93 22 151 49 171 80 16 24 16 28 1 51 -45
68 -183 97 -465 96 -112 -1 -215 -4 -228 -7 l-25 -7 8 129 c12 209 8 301 -40
864 -25 294 -57 715 -71 935 -36 581 -55 809 -71 888 l-6 27 347 0 c367 0 440
7 528 52 75 38 72 100 -7 138 -97 46 -152 52 -511 55 -187 2 -437 -1 -555 -5z"/>
<path d="M8839 6917 c-67 -28 -202 -115 -287 -186 -164 -137 -306 -368 -351
-571 -11 -52 -27 -119 -36 -149 -34 -126 39 -267 157 -303 69 -21 225 -17 272
6 90 45 146 134 154 246 6 97 -10 146 -69 201 -78 72 -88 149 -40 299 41 127
94 211 216 340 86 91 104 114 94 126 -16 20 -45 17 -110 -9z"/>
<path d="M8045 6821 c-295 -105 -547 -363 -645 -661 -26 -78 -50 -208 -50
-271 0 -152 98 -267 254 -299 51 -10 68 -10 122 5 121 33 194 129 202 266 6
100 -22 165 -97 230 -66 57 -71 81 -37 201 56 194 118 284 291 417 58 46 109
89 112 98 14 36 -69 43 -152 14z"/>
</g>
</svg>
