<?xml version="1.0" encoding="utf-8"?>
<!-- Generator: Adobe Illustrator 25.0.1, SVG Export Plug-In . SVG Version: 6.00 Build 0)  -->
<svg version="1.1" id="Layer_1" xmlns="http://www.w3.org/2000/svg" xmlns:xlink="http://www.w3.org/1999/xlink" x="0px" y="0px"
	 viewBox="0 0 2400 2400" style="enable-background:new 0 0 2400 2400;" xml:space="preserve">
<g>
	<path transform="translate(0.000000,2400.000000) scale(0.100000,-0.100000)" d="M10750,18280c-449-26-981-200-1341-439
		c-449-298-817-802-939-1284l-28-110l-58,98c-101,166-261,403-347,513c-101,131-303,341-420,439c-576,481-1316,650-2025,462
		c-371-98-670-270-961-554c-205-200-334-376-452-620c-367-755-253-1607,309-2315c110-139,375-398,547-536c288-230,722-534,1135-794
		c241-152,498-323,740-493c903-635,1209-957,1286-1355c8-41,14-100,14-132c0-65,5-70,75-70c55,0,68,16,67,85c0,52,1,55,24,55
		c41,0,64,19,85,68c49,114,164,275,340,478c139,158,452,478,614,627c206,189,608,503,1025,802c777,557,1230,940,1523,1290
		c239,284,472,633,601,900c232,476,332,1115,242,1542c-76,357-201,598-431,828c-217,217-456,349-778,431c-139,35-363,72-482,79
		C10914,18286,10873,18287,10750,18280z M11182,18154c495-68,820-226,1067-519c216-255,339-564,371-935c31-347-76-871-259-1271
		c-182-400-520-874-843-1184c-250-241-636-542-1108-865c-500-342-831-583-1055-767c-351-287-890-888-1020-1135l-29-56l-32,79
		c-146,357-540,735-1379,1324c-132,93-356,245-498,337c-841,549-1188,807-1487,1107c-235,236-369,416-495,666
		c-163,320-245,683-232,1015c28,675,377,1287,957,1675c186,125,441,228,681,277c99,20,143,23,334,23c190-1,234-4,323-23
		c426-93,811-310,1140-640c198-200,367-425,577-767c172-281,195-308,261-321c45-8,101,3,123,25c12,12,20,41,24,94
		c15,169,61,332,147,514c125,262,249,440,455,652c146,150,235,225,377,318c273,180,725,338,1103,386
		C10771,18174,11079,18169,11182,18154z M18643,17526c-94-31-183-120-241-243l-28-60l-55,50c-29,28-83,64-119,81
		c-55,26-77,31-145,31c-96,0-135-19-165-80c-39-80-14-212,60-323c47-69,159-179,250-244c158-112,273-143,355-96
		c48,28,236,258,301,368c95,161,112,289,55,405c-41,84-85,115-168,121C18710,17538,18667,17534,18643,17526z M19945,17367
		c-94-31-201-126-254-226c-17-33-41-95-52-138c-28-106-36-330-18-500c7-71,14-157,14-193c0-58,2-65,25-77c46-23,129-16,200,18
		c198,94,230,106,686,244c99,30,202,105,248,178c46,74,48,148,7,232c-18,36-48,78-69,95c-76,63-213,78-333,37l-66-23l-6,72
		c-9,121-68,217-162,266C20115,17378,20002,17385,19945,17367z M14176,16436c-51-19-98-66-151-151c-165-263-327-761-420-1285
		c-36-203-33-193-53-185c-143,55-402,16-576-87c-239-141-457-487-517-818c-17-96-14-282,5-364c33-139,116-266,211-321
		c60-36,185-65,275-65c88,0,205,27,279,64c69,36,168,131,255,246l72,96l28-100c82-296,245-578,377-651c52-29,59-30,174-30
		c112,0,124,2,180,29c125,60,386,369,605,715l95,150l7-62c28-240,110-388,251-452c106-49,264-56,374-19c85,29,155,89,223,193
		c14,21,15,13,17-96c4-333,127-535,355-584c74-16,222-6,279,19c86,37,154,116,341,392c141,208,278,477,378,742c19,49,35,86,38,84
		c2-3,12-47,22-100c36-182,104-341,188-437c100-113,297-157,443-101c106,41,228,256,411,722l49,125l-5-95c-3-52-9-216-12-365l-7-270
		l-231-235c-238-243-379-403-521-595c-187-251-304-494-341-709c-46-262,56-499,256-595c52-24,64-26,200-26c137,1,150,3,227,31
		c177,66,355,205,488,383c72,94,198,338,239,461c105,315,139,592,140,1120l1,355l206,220c269,287,393,426,541,612
		c67,83,125,150,129,147c15-9,180-292,217-374c82-178,132-372,132-513v-73l-47-16c-151-50-398-143-463-174c-177-84-336-219-387-331
		c-40-87-39-176,4-263c76-154,226-230,457-230c243,0,431,82,602,262c188,198,298,447,320,724l7,89l115,75c332,218,552,453,552,591
		c0,23-6,30-34,37c-19,6-49,7-68,3c-29-6-37-15-67-76c-27-56-57-93-145-180c-103-101-338-285-365-285c-6,0-11,8-11,19
		c0,35-51,196-92,290c-70,158-183,335-425,662c-51,70-93,132-93,138s11,44,25,86c86,255,60,571-58,693c-53,56-101,75-198,80
		c-185,9-303-69-370-247c-16-42-21-78-21-146c1-157,62-307,224-548l59-88l-43-67c-65-101-189-263-303-397c-150-176-419-469-421-459
		c-1,5-7,90-14,189c-22,373-51,617-92,785c-23,99-37,124-79,146c-62,32-217,16-239-25c-5-10-37-128-70-262c-93-370-155-575-242-794
		c-52-132-138-298-188-364l-40-54l-16,39c-22,52-59,222-81,369c-26,172-25,807,1,1120c12,155,15,228,8,246c-15,39-74,62-157,62
		c-86,0-131-20-151-68c-21-51-80-283-113-445c-79-389-423-1230-629-1540c-69-104-256-330-279-338c-7-2-18,18-27,50
		c-61,210-44,676,45,1226c16,101,29,185,29,186c0,2,14,6,30,10c39,7,62,58,91,199c38,183,13,357-69,483c-56,85-117,142-192,178
		c-59,28-76,31-180,34c-170,6-275-24-411-114c-218-144-513-595-640-979c-25-74-35-93-57-103c-33-16-103-105-257-327
		c-142-205-264-369-365-490c-78-94-258-285-269-285c-13,0-94,133-141,232c-87,184-157,431-187,659l-16,126l90,184
		c92,186,173,370,265,599c210,523,289,886,275,1264c-8,230-42,362-101,401C14302,16448,14222,16453,14176,16436z M14264,16035
		c0-177-3-229-22-330c-50-261-118-485-247-805c-154-383-171-411-166-275c4,84,41,411,67,590c69,466,198,904,323,1094l16,24l14-44
		C14260,16256,14264,16193,14264,16035z M19727,15539c24-66,27-89,27-209c1-83-4-142-11-154c-10-18-13-15-36,30
		c-68,134-90,301-52,392c15,37,20,42,32,30C19694,15620,19713,15580,19727,15539z M16235,15154c59-27,141-114,174-185
		c40-84,55-181,47-309c-9-154-7-151-72-144c-75,9-138-10-173-52c-58-72-144-271-205-482c-39-132-108-260-223-409
		c-62-82-210-226-226-220c-17,5-47,105-63,212c-19,121-14,373,11,510c49,278,211,705,338,895C15959,15144,16109,15214,16235,15154z
		 M13501,14729c30-13,49-28,49-38c0-9-9-83-21-166c-13-96-22-233-26-382l-6-232l-95-127c-111-148-259-306-338-360l-56-38l-19,24
		c-11,14-35,57-54,95c-138,283-103,730,81,1006C13141,14700,13350,14794,13501,14729z M20038,13393c-51-337-256-657-445-698
		c-80-17-201,52-242,138c-75,156,47,339,319,477c57,29,340,138,361,139C20045,13450,20046,13442,20038,13393z M18355,13013
		c-28-420-49-593-95-816c-53-255-145-492-244-631c-100-140-263-256-339-242c-47,9-110,58-145,114c-76,118-82,284-19,474
		c80,237,230,481,484,786c93,111,350,392,359,392C18358,13090,18358,13055,18355,13013z M5030,13001c-102-31-188-139-206-258l-6-41
		l-47,35c-76,59-125,76-232,81c-124,6-194-13-248-67c-104-104-70-267,93-438c115-122,249-202,468-280c89-31,108-35,180-31l80,3
		l58,61c63,68,184,244,231,336c16,32,43,100,60,151c26,77,31,102,27,159c-9,120-98,230-223,277C5207,13011,5083,13017,5030,13001z
		 M3285,12861c-54-25-98-74-132-146c-23-51-28-76-31-165c-3-73,1-126,12-173c9-38,16-72,16-76s-33-1-72,7c-40,8-129,15-198,15
		c-163,2-253-23-317-88c-66-65-59-122,26-203c94-90,313-184,506-216c95-16,264-31,477-42c116-6,130-5,171,15c86,42,88,79,28,441
		c-75,448-121,562-256,626C3451,12886,3345,12889,3285,12861z M4624,11580c-156-62-245-245-200-410c8-30,13-56,12-57s-24,5-51,13
		c-30,10-104,18-181,21c-151,6-211-6-290-59c-138-93-126-208,39-364c187-179,371-226,963-251c117-5,135-3,177,15c30,13,51,30,57,46
		c5,14,12,157,16,318c10,446-8,553-112,647c-76,70-142,93-274,98C4693,11599,4666,11597,4624,11580z M13275,11344
		c-630-16-1536-65-1830-99c-22-2-65-7-95-10c-2061-192-3940-614-5360-1203c-160-66-475-212-585-270c-58-31-70-41-70-62
		c0-17,6-26,20-28c15-3,53-73,165-305c122-254,383-791,761-1563c86-177,100-195,127-172c26,24,326,182,527,279
		c1360,656,3154,1092,5030,1224c454,32,596,36,1227,42c1166,10,1968-42,3063-198c923-131,2137-408,2916-665c107-35,207-64,221-64
		c60,0,67,27,218,860c250,1383,228,1248,204,1256c-11,4-93,38-184,77c-217,92-497,196-690,257c-1062,332-2502,559-3935,620
		c-132,5-285,12-340,15C14546,11341,13448,11348,13275,11344z M13418,11054c20-14,22-23,22-108c0-136-27-625-55-996
		c-13-179-27-373-31-432c-8-131-15-144-82-142c-57,2-101,22-132,61c-79,99-273,603-357,925c-9,37-18,66-20,64c-10-10-75-586-93-821
		c-6-77-16-152-21-167c-25-62-160-42-222,31c-76,90-170,460-292,1142c-25,141-43,263-39,272c9,23,55,26,106,5c19-7,31-21,37-45
		c15-54,77-321,117-503c34-156,136-527,153-558c5-9,10,9,15,49c20,195,133,816,155,858c13,24,63,29,104,10c29-13,34-23,99-204
		c62-172,126-334,226-570l77-180l7,75c3,41,11,149,18,240c11,177,86,926,97,969c3,14,8,29,10,34
		C13325,11076,13395,11070,13418,11054z M14225,11019c169-21,225-37,225-63c0-24-30-27-189-15c-182,13-312,9-336-11
		c-22-19-34-49-51-140c-17-88-44-324-44-391v-47l163-4c135-3,169-7,202-23c26-13,41-28,43-42c4-29-36-39-183-47c-60-3-138-9-172-12
		l-63-7l-2-278c-1-154-2-286-2-295c-1-15,22-17,219-18c199-1,224-3,260-21c50-25,59-60,20-75c-25-10-242-33-426-46
		c-164-11-273,26-306,104c-47,113-13,723,62,1098c37,185,64,270,99,310C13794,11055,13907,11060,14225,11019z M15464,11014
		c145-37,242-138,276-288c21-93-5-127-78-103c-33,11-39,20-71,100c-36,88-81,153-127,183c-63,42-166-35-232-174c-30-64-37-90-40-154
		c-4-69-1-83,21-120c14-24,69-83,123-132c220-198,321-355,354-548c37-211-127-427-357-470c-52-10-75-9-146,6c-142,30-220,90-310,238
		c-44,74-61,129-52,174c7,41,32,56,77,48c55-11,66-21,82-78c21-70,83-162,153-226c49-45,59-50,87-44c82,18,168,93,212,187
		c59,127,6,332-131,507c-24,30-101,108-170,174c-143,134-175,183-183,282c-13,171,127,391,282,440
		C15291,11034,15390,11033,15464,11014z M16479,10896c19-6,44-24,55-39c20-28,21-42,27-490c4-254,10-525,14-602c7-147-15-477-35-515
		c-5-10-19-22-31-25c-30-10-100,3-126,23c-22,16-23,27-31,222c-5,113-7,226-4,253l4,47l-113-1c-63-1-125-4-138-8
		c-25-7-38-40-141-366c-44-141-50-148-111-143c-68,7-90,29-83,82c11,84,47,245,79,356c73,249,331,926,425,1115c39,79,49,91,80,102
		C16386,10918,16419,10916,16479,10896z M16883,10882c34-30,190-274,262-411c39-72,72-131,75-131s50,88,104,196
		c55,108,113,214,129,236c28,39,30,40,78,36c70-7,83-21,76-83c-5-46-96-345-187-615c-58-174-376-896-435-989c-16-26-34-41-53-46
		c-56-12-155,24-169,62c-3,9,4,50,16,92c27,91,186,519,282,757l69,172l-79,124c-142,221-224,381-283,546c-15,44-16,57-6,69
		C16778,10917,16855,10907,16883,10882z M10866,10835c28-18,37-58,74-330c17-126,53-360,81-520c27-159,59-346,70-415
		c12-69,23-127,25-129c1-2,36,4,76,13c144,31,352,66,392,66c23,0,57-5,77-10c83-23,72-67-23-99c-194-64-446-107-574-99
		c-136,9-155,39-213,340c-47,245-74,423-95,628c-21,202-40,525-33,544C10737,10860,10817,10865,10866,10835z M10219,10797
		c97-48,10-113-238-177c-107-28-145-41-142-51c82-278,261-1214,261-1365c0-54-19-69-84-69c-111,0-134,27-192,228
		c-124,428-173,733-174,1066v114l-27-6c-80-16-240-28-287-23c-67,9-118,39-114,68c8,57,98,86,456,148c159,28,318,60,353,70
		C10099,10821,10173,10819,10219,10797z M10460,10655c41-21,53-68,95-380c19-144,46-321,60-395c23-121,83-505,100-636
		c6-47,4-53-16-68c-43-30-131-11-153,32c-19,38-131,504-155,647c-30,179-39,260-56,480c-8,110-17,221-20,247c-5,39-2,51,15,68
		C10354,10674,10418,10677,10460,10655z M9065,10546c27-18,42-61,124-356c100-361,254-1039,249-1094c-2-18-14-37-30-49
		c-38-28-144-26-206,4c-49,24-169,154-280,302c-78,105-360,503-417,590c-21,31-39,56-41,54c-4-4,65-313,115-513
		c47-188,111-509,111-556c0-44-15-58-61-58c-64,0-88,15-113,72c-70,159-212,744-256,1056c-25,177-25,213,1,246c18,22,28,26,74,26
		c30,0,66-5,81-12s88-93,174-208c164-216,500-623,508-616c1,2-9,50-22,107c-60,255-176,896-176,974c0,23,6,35,23,43
		C8951,10573,9035,10565,9065,10546z M8087,10258c20-20,34-79,97-408c74-386,87-471,93-640c8-222-19-352-93-439
		c-55-63-103-84-209-89c-119-5-193,9-294,59c-195,96-355,329-430,624c-59,235-101,690-70,759c7,13,25,30,41,37c37,15,124,5,149-17
		c26-24,70-152,143-421c105-387,161-531,269-695c74-113,127-171,149-163c25,10,76,91,93,150c47,157,45,243-19,720
		c-26,187-49,380-53,429c-6,80-4,90,13,103C7989,10285,8065,10279,8087,10258z M16331,10416c-55-135-145-362-185-468l-25-68h43
		c24,0,77-3,118-6l74-7l18,332c11,182,17,334,14,337C16385,10538,16359,10485,16331,10416z M19686,9123c-6-21-151-866-161-940
		c-6-46-10-52-33-57c-15-3-121-21-237-41c-115-20-306-54-423-76s-217-37-222-34s-11,1-15-5c-10-17,27-26,340-85
		c165-31,354-67,420-80c166-32,1114-204,1145-207c19-2,26,2,28,19c3,23-85,121-480,535c-101,106-155,170-147,173c8,2,102,30,209,60
		c107,31,311,90,455,131c460,133,500,145,514,159c18,17,7,45-17,45c-10,0-72,18-137,40c-252,85-1198,380-1218,380
		C19698,9140,19689,9132,19686,9123z M5590,8543c-340-129-1578-670-1621-709c-55-49,20-57,696-73c253-6,538-14,633-17l172-6l-17-23
		c-10-13-181-221-381-464c-199-242-365-447-368-455c-7-18,24-36,61-36c64,0,2379,675,2503,730c75,33,65,71-21,84c-24,4-238-5-477-19
		c-239-15-477-27-529-28l-93-2l-187,405c-233,505-285,606-314,614C5621,8551,5611,8551,5590,8543z M18376,8419c-3-34-6-132-6-217
		v-154l23,6c12,4,183,34,380,66c197,33,366,64,375,69c9,4,23,6,29,4c12-4,30,23,22,32c-6,5-795,255-807,255
		C18387,8480,18380,8452,18376,8419z M7345,8009c-513-207-674-274-725-303l-54-30l31-10c50-14,1089,6,1104,21c10,10,1,50-42,190
		c-51,168-73,213-101,213C7551,8090,7455,8054,7345,8009z M17803,7210c-50-26-84-63-121-134c-23-44-27-63-27-136c0-74,3-91,27-131
		c25-43,93-112,132-134c27-15,39-97,26-180c-14-93-60-186-160-318c-47-63-79-115-76-123c10-26,53-14,132,37c184,119,302,247,389,420
		c81,161,97,257,65,404c-46,209-127,300-278,311C17856,7230,17838,7228,17803,7210z M17099,7190c-94-50-164-163-163-266
		c1-91,38-160,137-257c71-69,80-82,84-121c10-88-55-253-165-416c-39-57-68-108-66-112c11-17,63-7,102,20c201,135,395,383,466,594
		c22,65,38,214,31,273c-15,115-92,222-198,275C17253,7217,17158,7221,17099,7190z M12815,7174c-153-31-194-55-214-129
		c-24-93-58-1415-47-1825c7-242,28-699,46-990c19-308,33-351,128-403c174-95,554-67,804,59c138,69,286,209,371,351
		c134,224,267,616,327,966c81,478,26,1011-136,1317c-65,122-148,232-241,321c-178,168-398,283-638,334
		C13127,7193,12911,7193,12815,7174z M13085,6968c187-54,395-210,512-383c168-249,234-557,211-995c-22-432-193-1014-385-1308
		c-57-88-178-202-253-239c-58-29-66-31-72-15c-3,9-11,103-17,207c-6,105-34,460-61,790s-61,751-75,935c-38,491-92,948-121,1023
		c-6,17,0,18,92,12C12971,6991,13046,6979,13085,6968z M15189,7129c-288-28-509-198-668-514c-96-191-160-408-202-685
		c-19-121-23-189-23-415c-1-294,7-391,55-628c116-584,367-937,734-1033c96-26,332-26,425,0c286,77,490,308,624,707
		c84,251,123,483,133,799c18,547-102,1052-333,1408c-76,118-217,256-310,304C15501,7137,15402,7150,15189,7129z M15305,6951
		c246-112,447-552,510-1112c19-175,19-507,0-674c-59-502-242-922-467-1073c-34-22-41-23-67-12c-40,16-159,141-210,220
		c-133,204-230,487-283,825c-19,119-22,183-22,425c-1,300,5,371,51,600c70,351,230,678,386,791C15250,6975,15253,6975,15305,6951z
		 M10230,7060c-187-7-391-24-696-59c-171-20-233-81-135-131c66-33,141-41,425-47l278-5l-6-62c-37-356-32-1564,9-2321
		c5-91,53-409,70-466c4-13-12-17-98-27c-182-22-400-61-436-80c-75-39-43-98,67-122c91-19,1350,2,1446,24c93,22,151,49,171,80
		c16,24,16,28,1,51c-45,68-183,97-465,96c-112-1-215-4-228-7l-25-7l8,129c12,209,8,301-40,864c-25,294-57,715-71,935
		c-36,581-55,809-71,888l-6,27h347c367,0,440,7,528,52c75,38,72,100-7,138c-97,46-152,52-511,55C10598,7067,10348,7064,10230,7060z
		 M8839,6917c-67-28-202-115-287-186c-164-137-306-368-351-571c-11-52-27-119-36-149c-34-126,39-267,157-303c69-21,225-17,272,6
		c90,45,146,134,154,246c6,97-10,146-69,201c-78,72-88,149-40,299c41,127,94,211,216,340c86,91,104,114,94,126
		C8933,6946,8904,6943,8839,6917z M8045,6821c-295-105-547-363-645-661c-26-78-50-208-50-271c0-152,98-267,254-299
		c51-10,68-10,122,5c121,33,194,129,202,266c6,100-22,165-97,230c-66,57-71,81-37,201c56,194,118,284,291,417c58,46,109,89,112,98
		C8211,6843,8128,6850,8045,6821z"/>
</g>
</svg>
