<?xml version="1.0" encoding="utf-8"?>
<!-- Generator: Adobe Illustrator 25.2.0, SVG Export Plug-In . SVG Version: 6.00 Build 0)  -->
<svg version="1.1" id="Layer_1" xmlns="http://www.w3.org/2000/svg" xmlns:xlink="http://www.w3.org/1999/xlink" x="0px" y="0px"
	 viewBox="0 0 2200 2200" style="enable-background:new 0 0 2200 2200;" xml:space="preserve">
<g>
	<path d="M1769.95,1413.03c-7.61,6.66-12.78,8.5-23.04,7.89c-11.76-0.6-14.84-2.38-27.48-16.34
		c-13.89-15.25-22.88-24.49-23.82-24.54c-0.37-0.02-5.47,6.88-11.21,15.25c-64.02,93.92-146.55,173.08-240.93,231.13
		c-174.65,107.38-377.91,134.01-557.8,73.19C739.1,1650.05,617.23,1544.29,544,1403.13c-10.59-20.29-20.12-41.09-26.7-57.77
		c-2.91-7.66-5.52-14.09-5.7-14.29c-0.78-0.98-9.53,7.57-11.53,11.2c-2.83,4.98-9.55,11.04-15.02,13.24
		c-6.53,2.7-14.91,3.51-20.72,1.95c-11.24-3.1-19.62-10.25-23.51-20.22c-3.09-7.86-2.47-18.22,1.62-25.74
		c5.37-9.98,23.07-27.18,38.17-37.24c20.28-13.49,70.06-34.96,106.48-45.98c11.07-3.37,13.24-3.8,20.33-3.38
		c6.63,0.4,8.75,0.9,13.01,3.21c17.69,9.48,22.28,32.88,9.66,48.33c-4.74,5.71-10.07,8.67-21.79,12.09
		c-11.15,3.26-36.2,12.07-37.97,13.37c-1.37,1.04-0.9,2.47,8.1,24.26c66.74,162.12,197.85,279.39,361.33,323.31
		c18.16,4.83,41.37,9.68,61.97,12.78c23.38,3.55,70.5,6.35,94.23,5.62c104.59-3.22,204.73-32.27,298.3-86.33
		c83.4-48.2,155.87-112.79,216.56-192.97c10.26-13.62,24.6-34.21,32.96-47.28l3.82-6.05l-5.98-4.95
		c-8.84-7.27-26.27-21.04-28.62-22.4c-1.08-0.72-2.83-1.29-3.85-1.35c-4.29-0.26-12.53-4.96-16.94-9.63
		c-15.41-16.37-9.42-42.97,11.58-51.28c4.89-1.86,7.15-2.19,15.1-1.91c5.89,0.16,10.72,0.83,13,1.8
		c19.02,7.6,71.05,50.68,114.04,94.35c21.18,21.67,30.78,33.3,32.74,39.77C1782.44,1391.86,1779.04,1405.04,1769.95,1413.03z
		 M1380.45,988.89c30.49,26.45,47.39,35.27,57.31,30.49c13.59-6.62,123.43-141.07,155.39-190.29
		c49.96-76.41,61.34-159.06,28.28-204.61c-16.53-23.15-49.96-34.53-82.65-28.66c-22.04,4.04-36.36,12.49-55.83,33.06
		c-21.31,22.04-40.41,54-56.2,92.21l-11.76,28.65l-20.94-40.77c-11.75-22.04-27.55-48.86-35.26-58.78
		c-59.88-78.62-166.04-52.53-166.41,40.77c0,41.15,26.82,103.96,70.53,165.31C1288.61,892.65,1354,966.12,1380.45,988.89z
		 M764.5,988.89c30.49,26.45,47.39,35.27,57.31,30.49c13.59-6.62,123.43-141.07,155.39-190.29
		c49.96-76.41,61.34-159.06,28.28-204.61c-16.53-23.15-49.96-34.53-82.65-28.66c-22.04,4.04-36.36,12.49-55.83,33.06
		c-21.31,22.04-40.41,54-56.2,92.21l-11.75,28.65l-20.94-40.77c-11.75-22.04-27.55-48.86-35.26-58.78
		c-59.88-78.62-166.04-52.53-166.41,40.77c0,41.15,26.82,103.96,70.53,165.31C672.66,892.65,738.05,966.12,764.5,988.89z"/>
	<path d="M277.26,1883.45c8.68-12.08,18.59-23.24,18.59-39.66c0-15.18-7.13-26.64-21.69-34.39c-11.46-6.2-25.4-9.3-41.83-9.3
		c-1.55,0-5.58,0-12.08-0.31s-11.77-0.31-16.42-0.31c-40.28,0-60.73,7.12-61.35,21.07c-0.31,5.27,0.93,9.3,3.1,11.77l10.84,9.29
		l1.24,0.62c4.65,8.05,7.44,19.52,7.13,34.7c0,12.08-1.86,26.65-5.58,43.99c-3.1,14.25-6.51,28.51-9.61,43.07
		c-1.86,9.61-6.2,17.35-13.01,23.24c-5.89,5.27-8.99,11.47-8.99,18.28c0,1.55,0,3.41,0.31,5.58c1.24,11.77,15.18,19.21,42.14,22.62
		c8.37,0.93,26.65,1.55,54.53,1.55c68.47,0,102.87-25.41,102.87-76.22c0-20.76-5.89-38.11-17.97-52.67
		C300.5,1895.23,289.65,1887.48,277.26,1883.45z M218.39,1842.87c0-8.05,2.79-12.08,8.05-12.08c8.98,0,15.8,9.61,15.8,19.21
		c0,15.49-5.27,23.24-16.11,23.24c-2.79,0-4.65-4.33-6.2-12.7C219.01,1854.64,218.39,1848.75,218.39,1842.87z M234.19,1955.64
		c-8.36,0-11.46-7.12-10.84-21.07l1.24-23.24c0.31-4.34,3.1-6.51,8.99-6.51c13.32,0,19.83,8.68,19.83,26.34
		C253.4,1947.59,246.89,1955.64,234.19,1955.64z M510.89,1963.7c0.31,8.36,0.93,15.49,0.93,21.07c0,25.1-5.27,41.52-15.49,48.95
		c-4.03,2.79-17.04,4.03-39.35,4.03c-6.2,0-14.56,0-25.4,0.31c-8.98,0.31-17.66,0-26.03,0l-58.25-0.31
		c-10.54,0-15.8-5.27-15.8-15.18c0-4.03,1.55-7.44,4.65-10.54c5.27-5.27,8.05-8.36,8.68-9.61l5.89-9.29
		c2.79-4.65,4.65-16.42,5.27-35.32l2.48-79.93c0.31-6.82,0.93-12.7,0.31-17.97c-0.93-10.84-3.72-17.66-7.44-20.45
		c-1.86-0.93-4.34-2.48-7.75-4.65c-2.48-2.48-3.72-5.89-3.72-10.53c0-8.37,5.27-14.87,16.11-18.9c8.98-3.41,19.83-5.27,32.84-4.96
		c4.96,0,17.66,1.24,22.93,1.24c7.12,0,18.59-0.62,34.39-1.55c15.8-0.93,27.27-1.55,33.77-1.55c8.98,0,15.8,5.58,20.76,16.73
		c3.72,8.67,5.58,17.97,5.58,28.19c0,6.51-1.24,11.77-3.72,16.11c-3.41,5.27-7.75,8.05-13.63,8.05c-5.58,0-10.22-2.48-14.25-7.75
		c-5.89-7.75-10.23-12.39-13.32-14.56c-7.75-5.27-18.9-8.05-33.77-8.05h-6.82c-2.17,0.93-3.41,3.41-4.34,7.44
		c-0.31,1.55-0.62,2.79-0.62,4.34c0,6.81,3.41,12.39,10.22,16.73c5.89,3.72,13.01,5.58,21.38,5.58c3.41,0,8.67-6.81,12.08-6.81
		c3.1,0,4.65,2.17,4.65,6.81c0,7.13-0.93,14.25-2.79,20.76c-2.79,9.3-6.51,13.94-11.77,13.94c-3.41,0-6.51-2.47-9.6-7.75
		c-2.79-5.27-7.13-7.75-13.01-7.75c-6.51,0-9.91,5.58-9.91,16.42c0,25.71,14.87,38.73,44.92,38.73c2.48,0,9.3-2.16,12.08-1.24
		c1.55,0.31,2.79,0.31,3.72,0.31c5.27,0,9.3-2.48,12.7-7.44c3.41-4.96,6.2-7.44,8.37-7.44c6.2,0,11.46,10.53,11.46,17.66
		C510.27,1949.76,510.27,1955.02,510.89,1963.7z M606.95,1865.17c-7.12,8.68-10.53,18.28-10.53,28.82
		c0,28.81,10.84,43.06,32.53,43.06c5.27,0,13.94-3.41,25.41-10.53c11.77-7.13,19.52-10.85,23.24-10.85c2.17,0,4.03,0.93,5.58,2.48
		c7.44,8.99,11.15,25.72,11.15,50.2c0,21.37-7.13,38.11-21.07,49.57c-13.01,10.84-30.36,16.42-52.05,16.42
		c-28.2,0-52.36-11.15-71.88-33.77c-18.59-21.38-27.89-46.79-27.89-75.91c0-30.05,9.3-57.63,27.57-83.35
		c20.14-28.19,44.93-42.45,73.74-42.45c9.61,0,19.21,2.79,28.2,7.75c9.29,5.27,14.87,7.44,17.04,7.44c2.48,0,7.13-4.96,9.91-4.64
		c8.37,0.31,13.32,6.81,15.8,19.51c0.62,4.03,1.24,12.7,1.24,26.03c0,12.7-13.01,23.54-25.4,23.54c-5.89,0-11.47-4.64-16.11-13.94
		c-4.65-9.3-10.23-13.94-16.42-13.94C624.92,1850.61,614.69,1855.57,606.95,1865.17z M807.42,1797.63
		c-31.6,0-56.7,14.56-75.29,43.37c-16.11,25.1-24.17,54.22-24.17,87.69c0,30.36,8.05,56.08,23.86,77.15
		c17.66,23.24,41.21,34.7,70.64,34.7c26.34,0,48.65-8.37,67.23-24.79c19.52-17.66,29.43-39.35,29.43-65.38
		c0-38.11-6.81-71.26-20.76-100.07C861.64,1815.29,838.09,1797.63,807.42,1797.63z M809.89,1934.88c-12.08,0-21.07-8.05-27.27-24.48
		c-4.65-12.08-6.81-25.4-6.81-39.35c0-8.36,1.24-16.11,4.03-23.24c3.41-9.61,8.37-14.25,14.87-14.25
		c10.84,0,20.14,10.22,27.57,30.99c5.89,16.42,8.99,31.6,8.99,45.23C831.27,1926.52,824.15,1934.88,809.89,1934.88z M1178.3,2015.75
		c0,9.61-8.05,15.49-23.86,18.59c-7.13,1.24-18.28,2.17-34.08,2.17c-15.49,0-26.64-0.93-33.77-2.17
		c-15.49-3.1-23.24-8.98-23.24-18.28c0-2.79,0.62-5.27,2.79-7.44l5.89-5.88c2.17-2.17,3.41-8.99,4.96-21.07
		c1.24-10.53,1.86-18.59,1.86-23.86v-17.04c-0.93-7.12-4.03-10.84-8.98-10.84c-2.48,0.31-4.65,3.72-6.51,10.84
		c-3.41,12.08-5.58,18.59-5.88,19.83c-3.1,7.13-7.13,10.85-11.77,10.85c-5.27,0-9.61-3.41-12.7-10.53
		c-0.93-2.17-2.79-8.68-5.89-19.83c-1.86-7.13-4.34-10.54-6.51-10.54c-5.27,0-8.05,12.39-8.37,37.49
		c1.86,7.12,3.41,11.46,4.96,13.63c5.27,5.88,13.01,12.7,13.01,19.21c0,9.29-0.93,16.42-3.1,21.07c-1.55,6.51-8.05,10.85-18.9,13.01
		c-8.37,1.55-18.9,1.86-44,1.86c-23.24,0-38.42-2.17-46.16-6.82c-7.75-4.64-11.46-13.63-11.46-26.95c0-3.1,1.86-6.51,5.89-10.22
		c4.65-4.65,7.44-7.44,8.05-8.99c4.03-7.75,8.37-26.96,13.32-57.01c4.65-28.51,6.82-48.95,6.82-61.04
		c0-14.56-5.58-24.79-16.42-30.98c-2.48-7.13-3.72-10.53-3.72-10.53c0-8.99,5.89-15.5,17.35-19.52c8.06-2.79,17.66-4.34,29.13-4.34
		c19.52,0,32.22,1.24,38.11,3.72c5.27,2.17,8.98,6.82,10.84,14.25c4.34,16.11,7.44,26.03,8.99,29.74
		c2.48,7.13,4.96,14.56,7.75,21.69c4.34,10.53,8.36,15.8,12.39,15.8c5.58,0,9.91-8.98,12.08-26.96l4.34-34.39
		c3.1-10.54,9.61-17.36,19.21-20.76c5.58-1.86,15.49-3.1,29.74-3.1c32.22-0.31,48.34,7.13,48.34,21.69c0,3.72-3.1,8.98-8.99,15.49
		c-5.88,6.51-8.68,13.63-8.68,21.38c0,16.73,1.86,38.73,6.82,65.68c4.03,21.69,8.68,43.38,12.7,65.06c0.62,4.03,3.72,8.06,9.29,12.7
		C1175.51,2006.76,1178.3,2011.1,1178.3,2015.75z M1367.01,1963.7c0.31,8.36,0.93,15.49,0.93,21.07c0,25.1-5.27,41.52-15.49,48.95
		c-4.03,2.79-17.04,4.03-39.35,4.03c-6.2,0-14.56,0-25.4,0.31c-8.99,0.31-17.66,0-26.03,0l-58.25-0.31
		c-10.54,0-15.8-5.27-15.8-15.18c0-4.03,1.55-7.44,4.65-10.54c5.27-5.27,8.05-8.36,8.68-9.61l5.88-9.29
		c2.79-4.65,4.65-16.42,5.27-35.32l2.48-79.93c0.31-6.82,0.93-12.7,0.31-17.97c-0.93-10.84-3.72-17.66-7.44-20.45
		c-1.86-0.93-4.34-2.48-7.75-4.65c-2.48-2.48-3.72-5.89-3.72-10.53c0-8.37,5.27-14.87,16.11-18.9c8.98-3.41,19.83-5.27,32.84-4.96
		c4.96,0,17.66,1.24,22.93,1.24c7.13,0,18.59-0.62,34.39-1.55c15.8-0.93,27.27-1.55,33.77-1.55c8.98,0,15.8,5.58,20.76,16.73
		c3.72,8.67,5.58,17.97,5.58,28.19c0,6.51-1.24,11.77-3.72,16.11c-3.41,5.27-7.75,8.05-13.63,8.05c-5.58,0-10.22-2.48-14.25-7.75
		c-5.88-7.75-10.22-12.39-13.32-14.56c-7.75-5.27-18.9-8.05-33.77-8.05h-6.81c-2.17,0.93-3.41,3.41-4.34,7.44
		c-0.31,1.55-0.62,2.79-0.62,4.34c0,6.81,3.41,12.39,10.22,16.73c5.89,3.72,13.01,5.58,21.38,5.58c3.41,0,8.68-6.81,12.08-6.81
		c3.1,0,4.65,2.17,4.65,6.81c0,7.13-0.93,14.25-2.79,20.76c-2.79,9.3-6.51,13.94-11.77,13.94c-3.41,0-6.51-2.47-9.61-7.75
		c-2.79-5.27-7.12-7.75-13.01-7.75c-6.51,0-9.91,5.58-9.91,16.42c0,25.71,14.87,38.73,44.92,38.73c2.48,0,9.3-2.16,12.08-1.24
		c1.55,0.31,2.79,0.31,3.72,0.31c5.27,0,9.29-2.48,12.7-7.44s6.2-7.44,8.37-7.44c6.2,0,11.46,10.53,11.46,17.66
		C1366.39,1949.76,1366.39,1955.02,1367.01,1963.7z M1575.23,1797.63c-31.6,0-56.7,14.56-75.29,43.37
		c-16.11,25.1-24.17,54.22-24.17,87.69c0,30.36,8.06,56.08,23.86,77.15c17.66,23.24,41.21,34.7,70.64,34.7
		c26.33,0,48.64-8.37,67.24-24.79c19.52-17.66,29.43-39.35,29.43-65.38c0-38.11-6.81-71.26-20.76-100.07
		C1629.45,1815.29,1605.91,1797.63,1575.23,1797.63z M1577.71,1934.88c-12.08,0-21.07-8.05-27.27-24.48
		c-4.65-12.08-6.81-25.4-6.81-39.35c0-8.36,1.24-16.11,4.03-23.24c3.41-9.61,8.37-14.25,14.87-14.25
		c10.84,0,20.14,10.22,27.57,30.99c5.89,16.42,8.98,31.6,8.98,45.23C1599.09,1926.52,1591.97,1934.88,1577.71,1934.88z
		 M1903.67,1822.11c0,12.08-9.91,12.39-13.63,21.07l-7.44,13.32c-4.34,7.44-5.58,16.11-5.58,25.72c0-0.31,0,0.93,0,4.02
		c0.31,11.47,3.72,28.51,9.61,51.43c5.58,22,8.37,39.04,8.37,51.12c0,16.11-1.24,27.27-4.03,33.46
		c-4.34,9.61-13.32,14.56-26.96,14.56c-15.18,0-28.81-9.91-40.9-29.43c-3.1-5.27-11.46-23.24-25.41-54.53
		c-8.67-19.51-16.42-29.43-23.54-29.43c-2.17,0-3.41,1.85-3.41,5.27c0,5.27,1.55,14.56,5.58,28.5c3.72,13.64,6.82,22,8.98,24.79
		l7.13,8.68c2.79,3.41,4.96,6.81,5.58,10.22c0.62,4.02,0.93,7.75,0.93,11.15c0,8.99-3.41,15.5-9.91,19.21
		c-5.27,2.79-14.87,4.96-28.82,5.27c-6.51,1.24-20.45,1.24-41.83,1.24c-8.36,0-16.73-1.55-25.4-4.96
		c-7.75-2.79-12.7-6.51-15.18-11.47c-2.17-3.41-3.41-7.75-3.41-12.39v-5.88c0-2.79,1.24-5.58,4.03-8.37l7.13-7.13
		c6.2-23.54,10.53-45.54,13.32-65.68c2.17-16.42,3.72-31.29,4.65-44.62c1.24-19.52-1.55-32.22-8.36-37.8
		c-1.86-0.93-4.34-2.48-7.75-4.65c-2.48-2.48-3.72-5.89-3.72-10.53c0-8.37,5.27-14.87,16.11-18.9c8.67-3.41,19.52-5.27,32.84-4.96
		c22.62,0.31,36.87,3.72,43.38,9.61c9.61,6.5,18.59,21.68,26.33,45.85c8.68,26.03,17.04,43.07,25.41,51.12
		c2.17,1.86,4.34,2.48,6.81,1.55c2.48-3.1,3.72-7.75,3.72-13.64c0-2.17-0.31-5.88-0.93-10.53v-1.55l-0.31-0.62
		c-0.62-4.96-1.24-10.22-2.17-15.8c-3.41-11.46-9.29-20.45-17.04-26.95c-1.86-0.93-4.34-2.48-7.75-4.65
		c-2.17-2.48-3.41-5.89-3.41-10.53c0-8.37,5.27-14.87,16.11-18.9c8.68-3.41,19.52-5.27,32.84-4.96c18.28,0.31,30.98,2.48,38.73,6.5
		C1900.57,1810.33,1903.67,1815.29,1903.67,1822.11z M2088.65,1984.77c0,25.1-5.27,41.52-15.49,48.95
		c-4.03,2.79-17.04,4.03-39.35,4.03c-6.2,0-14.56,0-25.4,0.31c-8.99,0.31-17.66,0-26.03,0l-58.25-0.31
		c-10.54,0-15.8-5.27-15.8-15.18c0-4.03,1.55-7.44,4.65-10.54c5.27-5.27,8.05-8.36,8.68-9.61l5.88-9.29
		c2.79-4.65,4.65-16.42,5.27-35.32l2.48-79.93c0.31-6.82,0.93-12.7,0.31-17.97c-0.93-10.84-3.72-17.66-7.44-20.45
		c-1.86-0.93-4.34-2.48-7.75-4.65c-2.48-2.48-3.72-5.89-3.72-10.53c0-8.37,5.27-14.87,16.11-18.9c8.98-3.41,19.83-5.27,32.84-4.96
		c4.96,0,17.66,1.24,22.93,1.24c7.13,0,18.59-0.62,34.39-1.55c15.8-0.93,27.27-1.55,33.77-1.55c8.98,0,15.8,5.58,20.76,16.73
		c3.72,8.67,5.58,17.97,5.58,28.19c0,6.51-1.24,11.77-3.72,16.11c-3.41,5.27-7.75,8.05-13.63,8.05c-5.58,0-10.22-2.48-14.25-7.75
		c-5.88-7.75-10.22-12.39-13.32-14.56c-7.75-5.27-18.9-8.05-33.77-8.05h-6.81c-2.17,0.93-3.41,3.41-4.34,7.44
		c-0.31,1.55-0.62,2.79-0.62,4.34c0,6.81,3.41,12.39,10.22,16.73c5.89,3.72,13.01,5.58,21.38,5.58c3.41,0,8.68-6.81,12.08-6.81
		c3.1,0,4.65,2.17,4.65,6.81c0,7.13-0.93,14.25-2.79,20.76c-2.79,9.3-6.51,13.94-11.77,13.94c-3.41,0-6.51-2.47-9.61-7.75
		c-2.79-5.27-7.12-7.75-13.01-7.75c-6.51,0-9.91,5.58-9.91,16.42c0,25.71,14.87,38.73,44.92,38.73c2.48,0,9.3-2.16,12.08-1.24
		c1.55,0.31,2.79,0.31,3.72,0.31c5.27,0,9.29-2.48,12.7-7.44c3.41-4.96,6.2-7.44,8.37-7.44c6.2,0,11.46,10.53,11.46,17.66
		c0,2.17,0,7.44,0.62,16.11C2088.03,1972.06,2088.65,1979.19,2088.65,1984.77z"/>
	<path d="M354.42,723.6c-1.88,7.19-12.4,22.15-31.56,44.88c-15.24,18.08-27.25,28.86-36.07,31.88c-8.82,3.02-18.37-0.02-28.88-8.88
		c-2.44-2.06-3.9-5.79-4.15-11.44c-0.58-6.76-0.92-10.81-1.73-12.33c-2.59-6.36-12.09-19.38-28.22-38.42
		c-15.4-18.42-29.68-34.22-43.07-47.59c-3.46-3.33-11.85-11.24-25.57-23.22c-3.04,1.62-4.55,2.43-4.55,2.43
		c-1.85,2.2-1.34,5.55,1.13,10.56c3.77,6.94,5.58,12.23,5.85,15.38c0.82,6.96-1.96,14.23-7.93,21.32
		c-5.15,6.11-10.4,8.37-15.75,6.79c-3.48-0.84-8.53-4.26-15.62-10.23c-7.33-6.18-13.05-14.77-17.41-25.96
		c-5.17-12.71-5.07-22.25,0.28-28.6c1.85-2.2,5.47-5,10.6-8.61c5.14-3.61,8.51-6.62,10.36-8.82c23.07-27.37,38.03-46.11,45.12-56.01
		c1.2-1.92,1.64-7.4,3.49-9.59c5.77-6.84,15.11-9,28.27-6.27c11.08,2.23,20.75,6.63,28.33,13.01c13.93,11.74,16.44,22.64,7.59,33.15
		c-4.94,5.86-12.97,7.46-23.64,4.74c-10.91-2.93-18.12-2.31-21.2,1.35c0,0-0.37,0.94-1.08,3.27l33.92,22.73l10.07,6.4
		c16.07,10.2,31.64,19.98,47.59,28.83c17.87,10.04,29.25,15.88,34,15.7c8.18,0.21,18.67-1.82,23.8,2.51
		C351.83,703.86,357.01,714.08,354.42,723.6z M532.07,504.74c-4.83-1.49-11.02-6.79-18.13-15.84l-45.25-74.18
		c-3.78-6.38-7.01-13.59-9.69-21.65c-3.1-10.16-3.78-17.75-1.59-22.72c1.02-2.84,2.24-5.42,3.47-8.01c0.27-2.24-0.75-5.1-3.32-8.36
		c-9.28-11.82-25.38-8.52-48.26,9.45c-7.79,6.12-13.59,12.71-17.45,20.21c-5.53,10.03-5.6,18.22-0.28,25.01
		c3.95,5.03,8.72,6.97,14.38,5.37c5.65-1.6,9.44-0.92,11.81,2.1c1.38,1.76,3.26,8.82,5,20.86c1.74,12.05,2.33,18.49,1.58,19.08
		c-4.02,3.16-10.2,1.5-15.92-0.1c-3.79-0.68-9.21-2.93-15.81-6.68c-6.6-3.75-10.97-7.23-13.33-10.25c-1.38-1.76-1.4-5.41-0.45-11.43
		c0.95-6.03,0.15-10.68-2.22-13.7c-5.53-7.04-13.05-8.85-22.12-5.39c-5.26,2.09-12.39,6.48-21.69,13.78
		c-23.13,18.16-29.7,33.08-19.53,45c2.42,2.56,6.1,4.15,11.29,4.54c7.23,0.42,11.92,1.2,14.56,1.98
		c6.12,2.11,11.47,6.84,16.35,13.58c2.71,3.97,4.05,9.82,4.03,17.56c-0.02,7.73-2.01,12.96-5.53,15.72
		c-3.01,2.37-12.56-1.51-28.9-11.44c-8.49-5.12-13.3-8.66-14.68-10.42c-0.99-1.26-1.92-2.96-2.4-4.62
		c-0.34-0.95,0.54-4.48,1.94-10.46c0.88-3.53-0.48-7.34-3.44-11.11c-9.28-11.81-27.39-6.93-54.79,14.58
		c-9.3,7.3-16.1,14.67-20.86,22.07c-6.99,10.77-7.62,19.8-1.89,27.08c6.91,8.8,13.68,5.52,20.32,5.18
		c10.32,1.24,24.86,10.96,44.51,29.25c17.17,16.18,34.03,35.05,51,56.67l1.18,1.51c4.58,7.38,7.02,13.59,8.02,18.49
		c0.23,1.85,0,5.69-0.81,12.42c-0.9,5.59-0.24,9.53,1.74,12.05c6.51,8.29,13.01,12.95,19.24,14.15c6.87,1.51,15.58-0.86,25.67-7.16
		c4.25-1.31,9.93-4.95,16.97-10.48c9.05-7.11,14.69-12.35,17.45-14.51c17.45-14.52,27.78-24.66,30.18-31.42
		c2.77-7.86-0.79-18.08-10.85-30.9c-4.14-5.28-14.52-6.07-22.55-7.49c-1.54-0.41-2.98-1.72-4.75-3.99
		c-1.78-2.26-6.87-12.89-15.54-31.68c-9.2-20-11.69-31.45-7.62-35.06c3.52-2.76,8.85-1.66,16.19,3.54c0.65,0.3,4.9,4.69,14.21,12.4
		L451.55,544c6.44,5.1,10.75,9.03,12.53,11.3c0.99,1.25,1.33,2.21,1.47,2.91l-3.25,11.9c-1.6,5.72-0.79,10.37,2.17,14.15
		c7.7,9.8,15.68,15.31,23.71,16.73c4.38,1.44,9.73,0.49,16.3-3.04c5.11-2.8,16.57-10.98,33.91-24.61c4.27-3.35,7.59-6.37,9.77-9.3
		c11.02-10.28,17.43-18.16,18.24-24.89c0.81-6.73-2.9-15.6-11.79-26.91C550.47,506.96,540.09,506.17,532.07,504.74z M722.68,378.08
		c11.44,24.29,11.73,48.88,1.29,73.94c-10.13,23.5-27.26,41.11-51.83,52.7c-27.47,12.95-54.48,12.61-81.17-1.31
		c-24.01-12.71-42.84-33.16-56.19-61.49c-14.72-31.22-20.01-61.94-16.01-92.44c4.67-35.06,21.69-59.68,51.17-73.59
		c28.62-13.49,58.36-7.37,89.37,17.94C684.98,314.59,705.92,342.53,722.68,378.08z M641.52,370.05c-6-12.72-15.56-25.52-28.28-38.26
		c-16.07-16.1-29.24-21.55-39.35-16.78c-6.07,2.86-8.65,9.38-7.61,19.83c0.53,7.88,2.78,15.65,6.46,23.45
		c6.13,13.01,14.02,24.49,23.66,33.72c13,12.6,24.93,16.16,36.21,10.85C645.91,396.6,648.88,385.67,641.52,370.05z M1088.34,370.76
		c-1.07-7.92-8.46-17.24-21.9-28.33c-17.8-38.55-28.45-71.94-32.27-100.14c-1.93-14.25-1.89-25.87,0.39-35.21
		c1.22-5.33,3.65-11.14,7.36-17.13c2.93-4.59,4.04-8.29,3.65-11.14c-2.01-14.89-20.42-19.81-54.95-15.14
		c-11.4,1.54-21.01,4.46-29.17,8.46c-11.16,5.7-15.96,13.13-14.72,22.31c0.82,6.02,4.31,10.38,10.44,12.78
		c6.49,2.67,10.2,8.62,11.53,18.44c0.94,6.97-1.62,11.83-7.43,14.23c-2.13,0.93-7.79,2.02-17.61,3.35
		c-10.14,1.37-16.87,1.64-19.85,1.08c-6.32-1.4-10.22-6.36-11.33-14.59c-0.82-6.02,1.22-12.43,6.19-18.58
		c4.97-6.16,7.14-11.61,6.54-16.04c-2.02-14.89-20.42-19.81-54.95-15.14c-11.72,1.59-21.32,4.5-29.17,8.47
		c-11.16,5.7-16.28,13.17-15.03,22.36c0.77,5.7,3.18,9.24,6.97,10.99c6.18,2.71,9.64,4.5,10.72,5.32
		c4.13,4.28,6.79,11.98,7.97,23.11l1.31,12.08c-0.63,0.09-0.52,15.23,0.35,45.44c0.89,32.78-0.94,54.96-5.23,66.18
		c-0.42,1.67-2.88,4.91-7.31,10.35c-3.29,4.31-4.71,8.05-4.29,11.23c2.14,15.84,9.85,25.11,22.85,28.19
		c6.99,1.63,20.79,1.06,40.74-1.65c3.17-0.43,7.6-1.03,13.34-1.49c6.06-0.5,10.18-1.06,12.71-1.4c13.62-1.84,23.14-5.39,28.6-10.33
		c7.19-6.46,9.89-17.47,7.83-32.67c-0.47-3.49-3.29-7.62-8.69-11.73c-6.16-4.97-9.61-9.02-10.94-11.74
		c-1.47-3.67-3.64-14.99-6.26-34.31c-1.8-13.3-2.28-21.62-1.4-24.64c1.32-6.96,7.54-11.02,17.99-12.44
		c10.14-1.38,12.91,2.44,14.28,12.58c0.99,7.28,3.44,18.24,6.95,32.28c3.51,14.04,5.92,24.68,6.91,31.97
		c0.34,2.53-1.68,6.67-6.38,12.47c-4.74,5.48-6.63,10.58-6.03,15.01c1.72,12.67,9.44,19.69,23.49,21.01
		c4.25,0.39,16.01-0.87,35.96-3.58C1070.66,397.35,1090.49,386.6,1088.34,370.76z M1276.84,336.71c-0.02-8.97,0.36-14.39,0.51-16.62
		c0.51-7.33-4.16-18.55-10.53-18.99c-2.23-0.15-5.28,2.2-9.14,7.05s-8.18,7.12-13.6,6.74c-0.96-0.06-2.23-0.15-3.8-0.59
		c-2.8-1.15-9.97,0.59-12.52,0.42c-30.92-2.15-45.3-16.6-43.46-43.07c0.78-11.16,4.68-16.65,11.38-16.19
		c6.06,0.42,10.34,3.28,12.84,8.9c2.81,5.64,5.82,8.42,9.33,8.66c5.42,0.38,9.58-4.14,13.11-13.5c2.38-6.56,3.85-13.83,4.35-21.16
		c0.33-4.78-1.11-7.13-4.3-7.35c-3.51-0.25-9.41,6.39-12.92,6.15c-8.61-0.6-15.81-3.02-21.6-7.27c-6.71-4.95-9.81-10.93-9.33-17.95
		c0.11-1.59,0.52-2.85,0.95-4.42c1.24-4.08,2.7-6.54,5-7.35l7.01,0.49c15.3,1.06,26.58,4.73,34.18,10.7
		c3.03,2.45,7.17,7.55,12.67,15.94c3.77,5.71,8.37,8.59,14.11,8.99c6.06,0.42,10.72-2.14,14.6-7.31c2.86-4.29,4.51-9.62,4.98-16.31
		c0.73-10.52-0.52-20.22-3.72-29.41c-4.3-11.83-10.92-18.06-20.17-18.7c-6.69-0.47-18.54-0.65-34.86-0.82
		c-16.32-0.18-28.17-0.36-35.5-0.86c-5.42-0.38-18.4-2.56-23.5-2.92c-13.37-1.25-24.66-0.11-34.15,2.75
		c-11.45,3.37-17.33,9.69-17.93,18.3c-0.33,4.78,0.7,8.37,3.07,11.1c3.35,2.48,5.79,4.25,7.64,5.34c3.63,3.13,6.01,10.35,6.19,21.58
		c0.26,5.46-0.8,11.48-1.6,18.47l-8.27,82.08c-1.99,19.4-4.74,31.39-7.95,35.97l-6.72,9.14c-0.73,1.23-3.82,4.22-9.61,9.26
		c-3.41,2.97-5.25,6.36-5.54,10.51c-0.71,10.2,4.33,16,15.17,16.75l59.92,4.48c8.61,0.6,17.52,1.54,26.78,1.86
		c11.18,0.46,19.79,1.06,26.17,1.5c22.96,1.6,36.43,1.25,40.78-1.33c11.05-6.92,17.65-23.44,19.44-49.27
		C1276.69,352.72,1276.56,345.35,1276.84,336.71z M1714.46,445.36c4.04,10.59,6.39,20.27,6.19,29.27
		c-0.02,8.01-1.82,17.95-5.26,29.55c-5.36,17.1-7.82,32.88-7.36,47.35c-0.18,0.99,0.96,4.9,2.83,12.12
		c1.37,5.49,1.51,9.21,0.13,11.74c-1.08,1.96-3.68,2.72-7.84,2.99l-9.03,0.52c-3.52-1.56-9.43-4.07-17.76-6.82
		c-7.06-2.41-12.69-4.77-17.18-7.23c-19.34-10.6-28.64-25.53-27.48-44.94c0.5-9.56,5.74-27.1,15.87-52.89
		c8.26-21.72,10.71-37.5,7.21-47.07c-1.17-3.19-3.66-5.29-7.21-6.14c-6.09-1.52-10.02,0.34-11.79,5.56
		c-10.67,28.77-15.93,47.03-14.37,54.81c1.41,8.06,5.19,17.79,1.97,23.68c-8.45,15.41-17.44,22.51-27,22.01
		c-7.42-0.43-24.17-7.78-50.23-22.06c-21.3-11.67-34.52-21.47-39.38-29.23c-2.26-3.87-3.09-8.17-2.55-12.92
		c-5.66,3.41-13.24,5.22-22.74,5.4c-11.72,0.35-25.16-1.44-40.54-5.78c-15.38-4.33-26.11-8.68-32.09-13.36
		c-10.17-7.52-13.36-17.38-9.81-29.99c1.3-4.61,3.48-9.97,6.66-15.38c11.83-6.63,20.43-19.48,25.8-38.54
		c1.82-6.46-1.32-12.99-9.29-18.89c-5.99-4.67-13.02-7.98-21.02-10.24c0,0-2.94-0.17-9.05-0.89c-8.99,2.45-15.11,10.02-18.66,22.63
		c-2.6,9.23-3.01,17.74-0.92,25.64c0.84,2.89,3.63,8.33,7.65,16.43c2.79,5.44,3.5,9.95,2.46,13.65
		c-3.99,14.15-13.97,21.3-29.86,21.13c-7.68,0.16-21.17-2.64-39.93-7.93c-28.3-7.98-40.14-18.95-36.46-33.19
		c3.56-12.61,11.64-21.28,24.89-25.85c15.52-5.59,32.45-22.06,50.88-49.74c15.76-24.11,26.57-45.97,32.12-65.65
		c2.17-7.69,2.67-14.18,1.38-20.2c-0.76-3.2-2.04-6.88-4.56-10.91c-2.08-3.24-2.79-5.43-2.44-6.66c1.91-6.77,14.63-9.49,37.85-8.26
		c19.89,1.29,33.94,3.26,42.29,6.61c14.02,5.61,23.88,13.04,29.49,22.59c2.43,4.34,5.41,13.81,8.62,28.33
		c1.03,4.61,1.23,13.3,0.93,26.16c-1.36,50.75,0.58,89.81,5.82,117.18c0.58,3.82,2.62,8.38,6.19,13.37
		c3.66,4.69,5.56,8.54,6.49,11.12c0.7,2.82,0.8,6.06,0.32,9.66c1.32-0.63,2.75-1.21,4.45-1.71c6.51-1.9,10.13-3.19,11.74-4.14
		c5.44-3.94,16.18-15.55,31.8-35.42c14.11-17.78,26.77-34.89,38.13-51.63c9.88-19.37,13.66-32.24,11.17-38.34
		c-1.22-1.76-2.69-4.39-4.7-8.04c-1.02-3.47-0.45-7.16,1.86-11.37c4.15-7.57,12.14-10.84,23.94-9.11
		c9.54,1.22,20.42,4.63,32.17,11.8l11.46,7.01c17,8.22,27.8,13.78,32,16.08c15.42,8.44,27.46,19.06,35.85,31.67
		c10.43,15.55,11.88,30.2,4.05,44.49c-9.67,17.65-27.04,26.73-51.78,26.65c-1.26,6.96,0.36,13.32,4.99,19.5
		C1710.77,440.79,1714.18,445.21,1714.46,445.36z M1437.9,276.45c-1.04-9.26-4.44-14.87-10.29-16.51
		c-3.38-0.95-8.29,2.31-14.8,10.11c-5.55,6.73-8.74,12.14-9.86,16.15c-0.52,1.84,1.99,3.54,7.21,5.01
		c2.46,0.69,10.1,1.85,12.56,2.54c4,1.13,6.68,2.22,7.43,3.11c5.01,1.08,7.9,0.23,8.68-2.53
		C1439.28,292.77,1438.99,286.72,1437.9,276.45z M1684.23,332.95c-4.77-2.61-12.11-1.17-13.88,4.06l-13.58,30.1
		c-2.33,4.92-2.03,8.36,1.05,10.05c5.6,3.07,11.63,2.72,17.91-0.76c5.69-3.08,10.17-7.92,13.39-13.8
		C1696.64,348.87,1695.16,338.94,1684.23,332.95z M1857.53,594.42c8.64-16.06,18.23-31.76,28.22-47.95l6.27-10.15l22.3-34.2
		c2.34,0.68,3.28,1.04,3.28,1.04c3.7,3.04,4.41,10.23,1.62,21.18c-2.58,10.7-0.89,18.7,5.04,23.57c10.62,8.72,21.48,6.07,33.04-8.01
		c6.29-7.65,10.55-17.38,12.64-28.49c2.57-13.19,0.29-22.51-6.63-28.19c-2.22-1.82-7.71-2.19-9.64-3.36
		c-9.99-6.97-28.92-21.68-56.58-44.4c-2.22-1.83-5.27-5.16-8.95-10.25c-3.68-5.09-6.53-8.67-8.75-10.5
		c-6.42-5.27-15.95-5.25-28.6,0.08c-11.14,4.5-19.65,10.33-25.73,17.74c-5.88,7.16-9.24,12.26-10.03,15.74
		c-1.52,5.37,0.81,10.59,6.99,15.66c7.16,5.88,14.46,8.57,21.41,7.67c3.15-0.31,8.41-2.19,15.3-6.04c4.97-2.53,8.32-3.09,10.55-1.26
		c0,0,0.83,1.51,2.49,4.53c-11.81,13.88-19.6,22.36-22.89,25.86c-13.2,13.56-28.81,28.03-47.03,43.67
		c-18.82,16.38-31.73,26.04-38.05,28.71c-1.51,0.83-5.56,1.23-12.3,1.89c-5.64,0.33-9.36,1.82-11.39,4.29
		c-8.72,10.62-11.64,20.22-8.5,28.99s14.06,20.64,32.33,35.65c22.97,18.86,38.06,29.18,45.27,30.98c9.55,2.47,19.7-2.84,30.86-16.42
		c4.26-5.19,2.1-15.64,2.2-23.83C1842.04,623.87,1847.72,612.41,1857.53,594.42z M2099.74,637.52c-4.44-5.04-9.61-12.84-15.96-23.43
		c-6.14-10.35-11.31-18.15-15.53-22.94c-13.31-15.11-28.35-24.43-44.87-28.2c-18.74-4.35-35.33,0.03-49.95,12.93
		c-8.15,7.18-13.13,17.96-14.74,32.58c-0.74,4.48-0.82,16.48-0.69,35.96c0.32,12.93-1.31,20.75-4.91,23.92
		c-10.55,9.3-20.68,8.43-30.4-2.6c-5.71-6.47-8.97-12.12-9.74-17.82c-0.8-5.26-2.32-9.88-5.07-13c-8.66-9.83-17.9-10.64-27.49-2.19
		c-19.18,16.9-27.89,36.51-26.4,59.47c1.43,20.47,10.55,40.97,27.87,60.63c16.91,19.18,37.08,29.51,60.54,31
		c23.67,1.72,44.99-5.99,64.41-23.11c17.74-15.63,26.67-35,26.32-58.12c-0.19-11.33-3.8-29.45-11.05-54.59
		c-5.39-18.68-5.58-30.02-0.54-34.46c8.39-7.39,17.78-5.44,28.13,6.31c4.65,5.28,4.95,14.81,0.7,28.35
		c-4.04,13.78-3.32,23.79,2.18,30.03c7.82,8.87,17.59,8.36,28.86-1.57C2101.32,659.13,2107.35,646.15,2099.74,637.52z"/>
</g>
</svg>
