<?xml version="1.0" encoding="utf-8"?>
<!-- Generator: Adobe Illustrator 25.0.1, SVG Export Plug-In . SVG Version: 6.00 Build 0)  -->
<svg version="1.1" id="Layer_1" xmlns="http://www.w3.org/2000/svg" xmlns:xlink="http://www.w3.org/1999/xlink" x="0px" y="0px"
	 viewBox="0 0 2500 2500" style="enable-background:new 0 0 2500 2500;" xml:space="preserve">
<style type="text/css">
	.st0{fill:#231F20;}
</style>
<path transform="translate(0.000000,2500.000000) scale(0.100000,-0.100000)" class="st0" d="M12140,23129c-35-14-69-48-91-91
	c-79-154,32-316,202-294l46,6l59-87c85-126,163-230,222-294l52-56l-398-6c-423-6-555-13-912-53c-477-52-1060-166-1494-291l-88-25
	l-77,81c-139,146-324,294-531,423c-338,211-742,354-1195,424c-311,47-353,45-375-22c-9-27-8-40,3-63c8-16,104-139,212-273
	c381-467,602-651,905-752c95-31,142-42,264-61c36-6,24-12-205-104c-466-188-878-393-1273-633c-71-43-132-78-135-78s-13,13-23,29
	c-27,49-185,166-308,230c-339,175-695,241-1059,196c-139-17-178-31-209-70s-28-78,9-119c33-38,323-237,483-330
	c235-139,488-211,671-191c40,5,57,4,50-3c-5-5-103-79-216-164c-271-203-530-414-874-713c-51-44-202-122-325-168
	c-301-112-600-174-1028-213l-183-17l-36,42c-48,57-99,81-170,81c-99-1-187-56-232-145c-35-70-38-115-11-171c31-64,103-99,205-99
	c114,1,185,37,225,115l19,37l88,7c320,25,594,65,792,116c138,35,140,38-87-125c-288-206-444-301-741-449l-93-47l-39,15
	c-78,32-182,13-231-41c-28-30-58-105-58-144c0-59,47-138,99-166c100-53,244-17,303,76c24,38,29,55,27,99l-3,54l165,84
	c217,113,329,181,534,323c94,65,171,117,173,116c2-2-54-72-125-157c-443-528-875-1179-1203-1813c-45-88-116-224-157-303l-74-142
	l-29,20c-16,11-59,35-97,53c-67,31-71,32-208,32c-268-1-405-54-795-309c-152-99-274-166-397-219c-34-14-71-35-82-46
	c-27-27-28-82-2-105c11-10,91-42,178-71s202-69,256-89c215-79,532-96,753-40c36,9,68,14,71,11s-22-75-56-160
	c-69-178-200-562-256-752c-21-71-40-132-41-134c-2-2-35,4-74,14c-40,10-142,30-227,44l-155,27l-20,52c-36,96-131,151-243,139
	c-143-15-239-120-220-243c14-97,100-158,237-170c97-8,116-3,174,47c36,31,52,39,73,35c14-3,67-13,116-21c173-30,195-36,195-50
	c0-8-88-72-195-142s-265-174-350-229c-86-56-158-97-161-92c-4,5-27,23-52,39c-62,39-127,40-203,2c-128-65-177-247-99-364
	c35-54,75-78,140-86c73-9,129,16,189,84c35,39,55,73,67,114l18,59l85,46c131,71,383,224,506,308c60,41,111,73,112,72
	c2-2-15-79-36-172c-52-226-85-390-125-635c-27-161-38-207-53-217c-10-7-54-36-98-64c-168-106-373-357-503-614
	c-131-259-198-489-347-1189c-107-504-109-511-205-830c-38-126-72-249-76-272c-7-48,9-98,37-113c58-32,121,7,240,146
	c163,192,215,278,404,677c158,335,253,517,379,727l81,135l7-255c8-298,30-624,62-905c22-196,22-202,4-271c-9-39-43-214-74-390
	c-78-447-103-589-104-590c0-1-15-5-34-8c-18-4-52-20-75-36c-87-64-126-172-97-271c26-90,98-160,185-180c77-17,204,57,254,150
	c41,75,46,144,15,212c-26,55-60,98-92,116c-17,9-17,16,8,149c14,76,40,222,58,323c21,117,35,177,40,165c4-11,17-71,28-134
	c67-363,209-913,325-1249c30-89,32-165,10-354c-25-215-83-462-150-643c-55-147-179-416-194-421c-99-31-185-100-211-168
	c-38-99,37-263,143-314c78-38,189-19,256,42c96,88,93,287-6,381l-30,28l80,181c121,277,195,519,237,776l12,74l73-179
	c40-99,108-258,152-355c78-173,79-176,62-200c-11-14-43-138-78-294c-105-472-129-646-138-980c-10-392,30-646,154-985
	c59-163,358-756,470-933c27-42,76-77,111-77c36,0,80,27,97,60s226,593,281,755c45,131,90,309,104,413c12,92,15,339,4,398
	c-8,46-12,51,101-96c122-157,258-322,384-464c58-65,124-138,145-163l39-45l-6-76c-3-42-18-147-32-232c-35-214-44-325-46-535
	c0-99-4-191-8-205c-5-18-16-26-44-32c-113-23-191-117-189-228c1-93,36-150,117-193c53-27,143-27,205,0c95,43,180,146,180,219
	c0,43-46,129-88,164l-36,29l3,198c3,236,12,340,48,574l27,176l196-186c172-164,373-346,481-436c36-30,36-30,42-130
	c6-99,31-234,82-436c87-348,243-668,436-896c199-235,608-504,947-623c127-45,176-39,196,27c5,16-28,130-103,360
	c-139,428-239,738-237,740c1,1,71-37,156-84c686-379,1477-687,2246-875c157-39,174-45,174-64c0-33,42-81,296-335l235-235l-17-61
	c-20-74-14-116,26-172c36-50,95-81,153-81c89,0,194,94,217,194c26,117-86,232-219,224l-59-3l-158,156c-88,85-188,186-224,223l-65,69
	l35-6c19-3,141-24,270-46c774-131,1533-164,2333-100l147,12l77-84c238-262,421-395,692-505c209-85,461-124,806-124
	c527,0,1180,90,1440,199c201,84,278,168,229,250c-22,37-17,35-189,72c-313,67-504,127-865,271c-274,110-441,170-539,194
	c-88,21-97,15,137,84c415,122,840,284,1277,485c105,48,295,132,423,186l233,98l92-30c51-16,179-64,285-107c151-60,191-80,186-92
	c-4-8-9-40-11-70c-6-73,17-115,86-157c99-60,207-51,284,24c47,45,67,91,67,155c0,150-180,267-314,203c-42-20-46-19-245,65
	c-75,31-160,65-190,75l-53,17l233,118c428,214,764,422,1129,697c58,43,111,82,117,86c8,5,31-5,59-23c111-77,289-142,449-165
	c182-26,610-15,782,21c104,21,354,104,446,148c215,103,511,348,537,445c13,51,4,82-32,104c-22,14-568,83-848,107
	c-210,18-523,10-655-16l-30-6l35,37c19,20,100,87,180,149c402,313,759,669,1117,1116c83,104,134,158,156,168c17,7,67,18,110,24
	c91,12,198,2,410-38l137-26v-29c0-105,121-197,244-187c141,12,251,156,216,284c-44,157-255,212-385,101l-40-34l-110,23
	c-61,13-158,29-217,36c-60,7-108,15-108,19c0,8,464,240,537,268l52,20l43-24c71-39,110-41,173-10c45,21,61,37,85,78
	c50,88,50,186-2,260c-61,86-214,81-300-10c-32-34-67-108-68-143c0-23-12-31-107-74c-60-27-186-88-282-137s-176-87-178-85
	s39,68,91,148c236,360,441,759,614,1198c55,141,229,652,258,760c9,32,13,35,44,34c181-8,482,99,714,253c186,124,438,403,544,602
	c112,211,173,520,176,888c1,158,0,162-23,187c-17,18-35,26-59,26c-30,0-48-15-190-161c-157-161-280-270-486-430
	c-153-118-340-283-413-364c-35-39-63-63-63-55s13,87,30,176c78,427,128,859,155,1346c5,82,11,121,21,129c8,6,14,24,14,40
	c0,78,142,380,312,664c186,311,230,375,258,381c76,15,154,80,181,150c37,97-12,248-94,291c-84,43-169,34-237-25
	c-100-85-109-216-23-329l24-32l-51-77c-104-153-345-565-383-654c-9-20-12,10-19,145c-41,911-211,1841-519,2838l-33,108l19,34
	c26,50,187,202,271,258c40,26,123,74,185,108c88,47,117,58,129,49c104-75,277-39,338,69c25,44,29,126,10,182
	c-45,134-189,203-291,140c-77-47-136-142-137-217c0-37-3-42-37-58c-87-41-256-142-329-196c-43-33-79-58-81-56c-2,1,8,41,22,87
	c32,105,74,271,119,468c19,83,54,222,77,310l41,159l44,30c61,43,88,100,89,184c0,58-4,72-30,110c-65,92-174,136-259,104
	c-49-19-108-71-131-116c-24-47-36-126-25-173c11-52,71-111,127-126l39-11l-57-232c-31-128-76-312-99-408s-61-233-84-303l-41-129
	l-84,224c-213,569-530,1225-880,1822c-44,76-81,141-81,143c0,3,40,48,88,101c222,245,334,400,418,577c162,344,248,829,215,1213
	c-21,244-65,439-211,952c-45,157-95,346-112,420c-32,146-50,180-98,180c-14,0-34-6-43-12c-9-7-69-110-133-228
	c-77-144-187-323-334-545c-321-485-434-691-523-952c-53-152-85-294-94-405c-3-43-9-78-12-77c-3,0-41,42-84,94
	c-43,51-131,151-195,222c-110,119-119,133-145,208c-56,166-94,495-83,740c12,309,62,527,242,1065l85,255l51,25
	c178,87,97,380-104,380c-83,0-163-61-194-149c-17-48-17-134,0-174c12-30,60-80,85-89c5-1-23-100-63-218c-125-372-192-631-228-885
	c-14-99-18-483-5-555c12-65-4-43-57,83c-103,243-146,392-212,735l-46,243l29,41c23,35,28,51,28,103c0,102-58,166-155,173
	c-45,3-61,0-90-20c-83-57-111-190-55-263c15-21,46-45,68-55l41-18l47-244c77-400,119-540,253-841l27-59l-113,99
	c-254,221-545,444-823,628c-171,113-452,285-467,285c-14,0-9,30,31,165c57,194,75,316,74,530c0,368-63,659-227,1054
	c-62,150-76,174-111,197c-20,13-30,14-59,4c-38-12-43-20-114-190c-23-52-62-140-87-195c-137-292-206-472-235-617
	c-37-181-25-399,31-539c10-27,14-49,9-49s-70,30-144,66c-122,59-142,72-200,135c-144,156-309,451-391,700l-49,147l26,30
	c52,63,45,165-17,227c-83,82-223,68-280-29c-29-49-34-126-11-179c17-41,79-96,117-104c16-3,32-10,37-17c5-6,28-72,52-146
	c48-148,142-345,232-482c32-49,52-88,45-88s-82,34-167,76c-566,278-993,436-1595,589c-486,124-928,201-1361,239
	c-106,9-172,20-193,30c-76,40-213,200-373,436c-83,123-84,126-75,165c17,77-25,170-92,205C12258,23142,12183,23146,12140,23129z
	 M12825,22160c315-20,626-58,910-111c152-28,486-101,482-105c-2-2-109,14-238,36c-619,105-1049,143-1644,143c-526,0-957-33-1460-112
	c-66-10-121-18-123-16c-11,10,281,84,377,96c243,30,426,49,576,58c94,7,190,13,215,15C12039,22171,12684,22169,12825,22160z
	 M13255,21896c774-58,1002-95,1560-252c687-193,1542-549,1920-799c202-134,548-402,807-627c1023-888,1889-2058,2652-3585
	c460-921,750-1733,990-2775c158-684,232-1272,243-1913c9-556-22-1011-112-1624c-73-494-109-654-225-1001
	c-363-1089-922-2132-1613-3010c-303-385-680-796-1022-1114c-141-131-134-115,26,57c735,791,1258,1605,1724,2687
	c295,686,479,1270,620,1975c141,706,198,1276,198,1980c1,495-25,907-89,1410c-43,347-130,838-200,1135c-14,58-29,134-34,170
	s-22,106-39,155c-16,50-55,182-86,295c-183,660-447,1344-756,1962c-51,102-89,190-89,207c0,20-9,37-28,53c-15,12-58,79-96,148
	c-545,990-1262,1850-2136,2561c-814,663-1716,1112-2770,1380c-821,209-1646,299-2610,286c-671-9-1143-54-1665-158
	c-1018-202-2013-663-2949-1363c-751-562-1374-1212-1928-2012c-408-590-808-1355-1105-2114c-424-1085-719-2313-817-3405
	c-54-590-49-1184,14-1750c115-1034,485-2241,965-3145c601-1132,1364-1982,2395-2667c884-588,2012-1062,3250-1368
	c1170-288,2409-396,3500-305c85,7,123,6,148-2c27-10,38-9,65,5c21,11,105,26,237,42c896,110,1842,369,2799,766c90,37,160,64,155,60
	c-24-22-224-158-336-229c-449-286-1033-566-1480-708c-998-318-1990-493-2967-523c-286-8-475-2-791,29c-749,74-1603,267-2325,527
	c-951,342-1973,897-2730,1481c-570,440-1137,1006-1606,1602c-414,526-804,1152-952,1530c-353,897-565,1833-649,2865
	c-20,249-17,1281,5,1595c80,1130,230,1874,578,2870c364,1044,851,1941,1580,2910c785,1043,1619,1824,2744,2569
	c559,371,1352,808,1590,876c160,46,477,124,570,139c159,27,1088,114,1445,135C12061,21923,13010,21914,13255,21896z M9300,21636
	c0-8-47-30-122-56c-669-235-1400-597-2015-996c-62-40-113-72-113-69c0,6,180,129,335,227c422,269,889,508,1375,705
	c173,71,516,201,533,202C9297,21650,9300,21644,9300,21636z M12975,21501c365-27,744-72,1025-122c167-29,167-29,43-54
	c-61-12-140-32-175-44c-69-23-212-101-290-158c-94-69-264-268-395-464c-70-105-85-154-60-193c27-41,65-42,185-2
	c173,57,264,75,497,97c268,25,389,48,520,100c192,77,325,176,410,309c46,72,85,158,85,189c0,32,15,33,92,11
	c632-183,1225-447,1777-790c72-45,131-85,131-91c0-5-43-9-98-9c-138,0-346-29-735-104c-57-10-69-10-79,1c-22,27-67,43-121,43
	c-72,0-135-39-177-112c-25-43-30-61-27-95c15-146,235-205,346-94c20,20,42,55,50,77l13,41l157,27c86,14,206,35,266,47
	c163,30,461,37,580,14c105-20,112-24,310-182c526-418,973-864,1384-1381c114-144,362-484,356-490c-2-2-30,2-62,9
	c-93,19-299,14-447-11c-176-30-257-54-518-159c-123-49-331-128-463-176c-270-99-290-107-305-134c-36-67,8-107,180-161
	c91-28,194-72,324-137c375-188,507-233,806-277c361-53,644-36,951,55c82,24,104,28,111,17c5-7,50-96,99-197
	c275-560,494-1118,669-1706c28-93,53-179,57-189c5-18,4-18-23,1c-52,37-188,100-269,126c-82,26-223,57-451,101
	c-174,34-331,82-554,172c-102,41-193,74-203,74c-28,0-57-37-57-73c0-23,12-49,41-87c23-30,79-119,125-196c105-178,181-280,275-370
	c107-102,188-155,361-238c272-131,393-167,751-223c128-20,181-32,187-43c22-43,124-630,165-950c38-305,85-859,85-1010v-44l-61,98
	c-109,178-168,248-399,477c-172,170-226,229-219,240c16,25,10,93-12,134c-54,102-156,167-264,168c-57,1-71-3-107-29
	c-24-16-56-51-72-77c-24-40-30-61-33-125c-3-66-1-82,19-117c13-21,42-53,66-69c54-38,149-47,236-22l57,17l67-59
	c37-33,144-138,237-233c198-201,287-325,385-534c34-72,73-154,87-184l26-54l-12-301c-6-166-18-380-26-476c-17-196-53-511-59-517
	c-2-2-7,24-11,59c-17,159-66,331-130,458c-40,79-159,247-248,351c-78,91-337,326-379,343c-61,26-112-8-112-72c2-192,27-876,35-942
	c43-355,162-647,331-811c76-74,228-165,323-194c37-12,40-15,37-46c-4-48-84-364-147-579c-198-680-535-1483-888-2115
	c-91-164-279-480-295-497c-4-4-8,66-8,155c-2,255-33,375-167,647c-56,113-65,126-95,134c-27,7-38,5-60-11c-22-17-31-38-53-139
	c-15-65-48-177-74-249c-150-417-161-465-153-648c4-89,11-129,35-197c36-105,92-192,144-223l38-23l-100-125c-205-254-425-502-664-748
	c-123-127-434-421-445-421c-3,0,15,84,41,187c25,104,66,284,90,402l43,213l37,24c68,42,114,123,125,218c25,211-196,336-379,215
	c-59-39-93-91-113-172c-15-58-15-76-4-125c16-74,74-135,144-154c42-11,46-15,42-38c-87-426-166-760-188-787c-23-29-99,59-223,261
	l-76,125l16,48c14,41,15,56,4,106c-14,70-58,133-104,153c-45,18-126,18-173-2c-56-23-91-62-108-121c-35-120,49-234,184-250
	c28-3,54-8,59-12c5-3,48-69,94-145c58-96,108-164,160-219l76-79l-96-45c-157-73-433-191-631-268c-210-83-576-215-596-215
	c-7,0,9,36,38,88c87,150,215,422,258,548c79,235,136,530,116,607c-3,14-18,39-32,56c-22,27-32,31-75,31c-45,0-71-12-292-137
	c-315-178-535-290-787-403c-405-182-818-401-1004-534c-95-68-266-234-336-328c-90-119-135-227-155-370c-7-55,7-51-235-69
	c-170-12-920-25-920-15c0,3,24,39,53,79c30,39,70,98,90,130c123,193,269,571,322,836c19,93,10,141-31,168c-45,29-79,11-198-105
	c-144-140-255-232-451-372c-267-190-389-286-464-366c-80-84-160-199-187-270l-18-46l-60,6c-284,32-651,89-961,151
	c-289,58-406,86-403,96c5,13,248,167,408,259c80,46,179,104,221,130c69,44,77,47,100,34c135-73,310,59,283,214
	c-10,60-50,119-100,148c-38,22-54,26-99,22c-68-6-138-47-179-106c-25-35-30-53-31-102c-1-72,14-59-240-205c-93-54-257-154-363-223
	c-186-120-195-124-235-119c-41,6-522,141-601,169l-39,14l70,42c187,110,376,282,511,465c174,233,329,503,373,649c18,58,19,73,9,99
	c-16,37-46,59-82,59c-15,0-152-31-305-69s-393-92-533-121c-397-80-576-129-775-210c-233-95-454-249-551-385l-22-29l-133,63
	c-839,398-1575,917-2178,1535c-73,76-131,139-129,141c2,3,36-4,74-16c218-63,442-64,709-3c61,14,205,45,320,68c256,53,287,61,316,85
	l22,18l-39,59c-21,32-43,64-49,70c-16,17-470,247-606,307c-292,129-522,177-844,177c-160,0-420-32-445-55c-16-14-25-3-127,152
	c-106,161-274,439-288,476c-8,20,18,22,135,7c41-6,159-17,262-25l186-15l34-34c62-62,160-70,245-21c88,52,117,168,61,252
	c-86,131-320,106-371-40c-5-12-14-16-29-13c-13,3-66,7-118,11c-110,6-393,36-399,41c-8,7,41,55,136,134l93,77l72-4c63-3,79-1,113,19
	c157,92,118,349-54,348c-114-1-214-95-215-203v-48l-85-68c-47-38-108-92-136-120c-27-28-53-51-58-51c-11,0-153,296-241,502
	c-68,158-227,571-222,576c2,1,36-13,77-32c99-46,207-73,359-92c270-32,483-61,695-96c226-36,294-26,319,45c15,42-10,78-119,169
	c-107,90-196,198-287,347c-28,48-89,144-135,214c-241,366-612,590-911,547c-111-16-193-46-251-96c-36-30-31-40-66,121
	c-70,315-122,645-149,950c-9,94-18,191-20,218c-3,26-3,47,1,47c3,0,55-31,117-69c61-38,176-107,256-154l145-85l-3-52
	c-5-64,10-100,59-144c65-59,156-71,217-27c75,53,112,205,66,268c-48,65-138,97-209,73c-35-12-38-10-188,78c-234,139-416,254-449,285
	l-30,27l5,423c5,423,15,589,58,957c53,463,140,950,246,1389l28,114l37-56c52-78,140-179,303-347c77-80,169-177,203-216
	c70-81,118-110,159-97c54,18,62,43,73,238c6,99,19,272,30,385c27,286,27,302,18,416c-18,234-130,470-282,596c-61,51-185,118-218,118
	c-10,0-18,2-18,5c0,11,127,361,189,523c447,1155,1025,2130,1756,2960c118,134,356,385,360,380c2-2-14-55-36-118
	c-60-180-74-274-73-500c0-178,2-203,26-290c28-105,72-221,121-320c26-54,38-67,64-74c45-12,80,12,88,61c24,139,83,375,122,482
	c127,353,163,506,163,687c0,152-41,303-105,391c-16,21-12,24,142,153c396,332,869,658,1298,895c233,129,719,364,731,353
	c4-5-156-227-300-417c-231-305-207-278-253-283c-57-7-127-51-163-100c-78-107-57-237,45-295c51-29,142-31,201-4
	c110,50,167,207,113,312l-20,41l56,71c31,40,104,137,163,216c297,400,345,461,408,522s78,70,170,102c227,80,569,172,840,226
	c238,48,772,119,819,109c9-1-41-29-112-60c-155-70-314-163-437-257c-270-205-555-596-655-898c-47-142-48-157-13-193
	c17-16,38-30,47-30c22,0,70,25,140,75c113,79,263,164,576,326c625,321,771,419,934,622c100,124,195,336,195,436v24l428-6
	C12633,21514,12893,21507,12975,21501z M8740,21249c-8-5-100-61-205-125c-530-323-1113-744-1570-1134c-398-339-847-795-1205-1220
	c-467-556-947-1251-1295-1875c-590-1058-1025-2363-1194-3585c-113-819-145-1938-75-2690c33-361,103-829,174-1160
	c17-80,33-156,36-170l4-25l-11,25c-21,49-121,399-174,610c-145,580-221,1069-276,1775c-17,221-23,1020-10,1255
	c69,1225,326,2361,788,3475c310,750,825,1548,1500,2324c163,188,686,711,874,874c653,568,1293,1001,2024,1369
	C8435,21129,8828,21305,8740,21249z M17825,20353c187-124,447-316,620-458c356-292,787-727,1079-1088c67-83,79-104,84-145l5-47
	l-103,125c-195,235-343,395-614,665c-409,408-728,679-1176,1000C17534,20538,17578,20516,17825,20353z M18103,19937
	c820-663,1566-1524,2120-2447c686-1145,1137-2453,1301-3772c64-515,81-835,72-1403c-8-553-19-660-28-295c-19,684-115,1345-314,2140
	c-238,953-502,1672-931,2530c-513,1028-1071,1889-1723,2659c-173,205-311,353-530,570C17861,20127,17865,20130,18103,19937z
	 M20442,17423c278-488,512-958,688-1383c432-1044,729-2239,826-3330c21-238,30-891,15-1145c-29-496-85-933-181-1415
	c-57-282-74-350-123-475c-34-87-44-129-68-285c-14-93-63-267-144-515c-300-911-695-1625-1300-2350c-113-135-353-405-360-405
	c-2,0,38,58,90,129c107,146,311,454,404,608c439,731,768,1575,1001,2563c32,135,92,378,133,540c173,678,269,1300,307,2005
	c13,237,13,782,0,1020c-76,1391-419,2703-1026,3917c-112,225-214,413-326,601c-32,55-58,101-58,103
	C20320,17629,20352,17581,20442,17423z M2857,13618c-3-8-6-5-6,6c-1,11,2,17,5,13C2859,13634,2860,13625,2857,13618z M2831,13354
	c-36-381-44-613-38-1088c6-432,17-659,52-1001c120-1185,446-2317,965-3356c60-118,134-274,165-345c137-308,328-681,495-963
	c33-56,56-100,51-97c-15,9-241,350-343,516c-327,532-591,1071-814,1663c-36,94-72,195-80,222c-7,28-34,109-59,180
	c-57,160-121,380-185,630c-161,629-258,1289-291,1980c-13,263-7,843,11,1090c20,286,76,792,86,782C2848,13565,2841,13469,2831,13354
	z M20579,7719c-325-723-782-1423-1325-2029c-164-183-253-264-404-366c-74-50-142-94-150-99s66,75,165,176
	c673,690,1245,1471,1687,2305c39,74,73,133,75,131S20607,7782,20579,7719z M4970,6134c353-428,814-890,1230-1235
	c568-469,1177-857,1955-1245c171-84,306-154,302-154c-14,0-326,130-517,215c-699,312-1265,654-1745,1055c-477,397-982,953-1309,1440
	C4799,6339,4807,6332,4970,6134z M18240,4761c0-11-224-180-377-284c-129-89-223-149-223-144c0,3,44,37,98,77c53,41,160,124,238,186
	C18162,4745,18240,4793,18240,4761z M8500,3490c8-5,11-10,5-10c-5,0-17,5-25,10s-10,10-5,10C8481,3500,8492,3495,8500,3490z
	 M8420,3360c8-5,11-10,5-10c-5,0-17,5-25,10s-10,10-5,10C8401,3370,8412,3365,8420,3360z M8705,3255c567-205,1158-366,1746-474
	c512-95,837-127,1433-141c226-6,412-13,415-16c12-13-816,5-999,20c-740,64-1366,185-2039,396c-249,78-757,267-810,301
	C8430,3355,8429,3355,8705,3255z M9708,16240c-272-25-551-155-770-359c-140-131-295-336-420-556c-277-487-572-1315-837-2354
	c-38-150-73-276-76-279c-4-4-3,49,1,118c13,218,10,1465-4,1685c-42,648-101,930-238,1136c-130,196-350,292-638,276
	c-251-13-442-104-690-330c-242-221-573-659-746-990c-208-396-291-803-246-1195c36-311,140-537,336-732c180-181,408-295,702-351
	c187-36,368-18,368,36c0,21-47,41-115,50c-109,13-301,95-420,180c-69,49-177,159-223,227c-55,80-121,228-149,333
	c-26,96-27,111-28,350c0,202,3,267,18,337c68,335,209,645,450,988c155,221,370,474,522,613c81,74,213,177,226,177c5,0,23-21,39-47
	c98-154,151-427,182-933c17-279,17-1190,0-1800c-35-1265-43-1574-54-2214c-15-906,5-1701,45-1786c33-70,230-111,366-76
	c81,21,125,48,144,89c48,100,72,488,97,1572c10,432,15,486,95,970c34,206,132,715,139,722c2,2,25-6,51-18c104-46,287-33,410,29
	c110,55,262,170,491,373c148,130,172,142,284,143c152,2,278-126,331-335c33-132,37-408,10-659c-26-232-68-480-84-497
	c-7-6-85-59-174-117c-291-188-636-439-818-597c-399-344-598-710-598-1099c0-383,161-631,464-717c50-14,101-18,234-18
	c150,0,179,3,250,24c287,85,479,275,672,666c231,471,433,1171,513,1785c12,91,22,166,23,166c1,1,88,55,192,119
	c361,223,564,371,751,549c186,176,362,403,455,588c31,61,44,78,57,74c9-2,51-10,92-16c151-24,190-61,190-178c0-86-36-215-148-535
	c-186-526-255-762-342-1171c-101-475-146-842-137-1121c7-194,23-287,72-392c78-168,225-253,442-253c365,0,520,184,845,1000
	c38,96,101,265,140,375c38,110,74,207,79,215c5,9,9-11,9-55c2-296,85-784,183-1070c179-521,331-685,634-685c182,0,279,52,337,180
	c39,86,90,267,181,635c46,187,86,355,90,373c4,17,10,32,13,32c4,0,27-35,52-78c58-99,182-225,276-280c86-50,220-97,324-113
	c46-7,135-9,230-6c165,5,256,24,386,82c80,35,206,121,287,195c37,35,69,61,70,59c2-2,19-43,39-91c117-280,297-475,525-567
	c130-53,186-63,379-68c256-7,395,20,597,114c53,25,99,44,100,42c2-2,25-35,52-73c129-185,310-310,504-352c87-18,271-18,363,1
	c114,23,247,94,327,173c166,165,428,651,605,1122c55,147,146,443,146,476c0,16-10,28-30,39c-34,18-123,20-169,4
	c-38-13-53-40-169-309c-209-484-408-872-575-1120c-97-144-191-220-270-220c-47,0-117,48-172,117c-52,65-158,272-194,380l-25,72
	l103,106c261,271,510,614,665,915c326,632,380,1347,122,1606c-88,87-203,127-365,127c-192-1-327-61-490-217
	c-233-224-420-546-556-961c-101-306-138-531-139-845c-1-250,28-462,85-627c24-69,24-68-108-154c-112-72-251-139-304-146
	c-101-14-260,163-363,405c-68,158-140,450-167,670l-11,97l71,130c317,576,614,1258,972,2234c360,977,598,1797,676,2326
	c25,171,28,217,28,460c0,260-1,272-23,328c-31,77-61,110-124,138c-78,34-223,39-315,11c-206-63-414-276-666-680
	c-442-708-815-1655-1048-2657c-23-99-46-197-51-218l-9-37l-42,28c-164,113-393,172-612,158c-382-24-652-222-862-631
	c-191-373-313-844-313-1209c0-88-6-124-59-330c-33-127-98-383-146-569c-47-185-108-419-136-520c-28-100-54-192-56-205
	c-14-60-30-24-98,220c-119,429-175,882-175,1428c0,421,32,915,90,1405c11,94,20,210,20,258c0,79-2,90-24,112c-35,35-126,59-200,52
	c-91-7-143-32-166-78c-41-79-137-471-190-773c-38-218-103-433-290-966c-197-562-420-1071-612-1400c-76-129-186-285-196-276
	c-17,17-31,161-32,312c-1,506,143,1365,361,2158c112,405,122,452,126,591c6,159-10,215-83,289c-79,79-216,131-496,186
	c-32,6-58,17-58,23c0,7,12,48,25,92c103,331,81,710-55,912c-60,90-133,135-257,159c-348,66-752-139-872-444c-11-27-24-84-30-126
	c-48-343,223-607,749-731c41-10,79-21,84-26c10-9-54-129-130-244c-159-240-376-454-660-648c-140-96-334-217-348-217
	c-8,0-11,80-11,258c-1,336-25,482-112,662c-38,79-59,109-127,176c-118,117-277,193-438,209c-34,4-68,8-74,10s89,104,210,227
	c339,342,532,579,723,883c206,331,404,777,482,1094c45,181,54,254,54,431c-1,143-4,178-26,262c-68,259-229,433-470,507
	c-54,16-265,46-287,40C9797,16248,9756,16244,9708,16240z M9842,16004c78-54,143-184,169-338c15-86,6-308-16-428
	c-63-344-296-878-558-1276c-239-364-375-522-906-1052c-312-312-450-443-516-489c-49-35-111-81-136-102c-26-22-49-39-52-39
	c-10,0,107,498,189,805c182,677,390,1274,605,1738c217,469,469,821,724,1015c80,61,264,154,345,176
	C9771,16035,9799,16033,9842,16004z M17555,15819c41-152,42-431,4-739c-75-615-418-1637-941-2810c-199-445-508-1069-530-1070
	c-4,0-5,24-2,53c2,28,9,124,15,212c49,746,269,1791,552,2630c198,583,483,1211,712,1565c64,99,164,225,172,217
	C17539,15874,17548,15848,17555,15819z M11018,13719c49-50,105-162,134-267c18-63,21-105,22-232c0-135-4-169-27-265
	c-15-60-31-116-36-123c-6-10-24-6-79,18c-227,97-344,222-371,400c-30,191,73,397,244,489C10960,13768,10971,13766,11018,13719z
	 M15275,12486c94-30,186-82,256-146l50-45l-20-102c-22-114-75-476-90-623c-45-414-41-1000,9-1294l9-59l-66-86
	c-93-119-253-282-348-354c-84-63-186-117-221-117c-60,0-181,122-248,249c-70,135-151,419-186,651c-45,308-25,663,55,989
	c108,441,267,767,437,897C15017,12525,15116,12536,15275,12486z M18198,11967c66-109,95-322,73-532c-50-461-277-925-698-1430
	c-18-22-35-37-38-34c-2,3-8,81-11,175c-7,180,7,426,32,574c68,392,215,793,385,1049c55,84,201,251,218,251
	C18163,12020,18180,11996,18198,11967z M9220,10804c0-3-16-69-36-147c-151-607-411-1266-618-1567c-56-81-157-195-190-212
	c-45-24-160,149-206,312c-33,114-38,316-11,438c79,357,291,615,860,1043C9190,10800,9220,10819,9220,10804z M12933,13506
	c-115-36-193-136-193-246c0-65,30-100,134-152c68-35,93-42,157-46c204-12,343,125,295,291c-20,70-81,129-157,151
	C13106,13523,12991,13524,12933,13506z"/>
</svg>
