<?xml version="1.0" standalone="no"?>
<!DOCTYPE svg PUBLIC "-//W3C//DTD SVG 20010904//EN"
 "http://www.w3.org/TR/2001/REC-SVG-20010904/DTD/svg10.dtd">
<svg version="1.0" xmlns="http://www.w3.org/2000/svg"
 width="2400.000000pt" height="2400.000000pt" viewBox="0 0 2400.000000 2400.000000"
 preserveAspectRatio="xMidYMid meet">

<g transform="translate(0.000000,2400.000000) scale(0.100000,-0.100000)"
fill="#000000" stroke="none">
<path d="M15243 22350 c-42 -10 -78 -34 -98 -64 -27 -41 -83 -209 -156 -466
-106 -376 -113 -403 -199 -745 -44 -176 -84 -329 -89 -341 -10 -23 -54 -28
-726 -84 -535 -45 -705 -73 -803 -132 -28 -17 -33 -25 -30 -51 4 -40 46 -65
130 -78 99 -14 829 23 1188 61 96 10 177 16 179 14 2 -2 -10 -65 -28 -141 -17
-76 -40 -181 -51 -233 -42 -201 -61 -272 -128 -475 -302 -911 -604 -1597 -893
-2025 -127 -188 -268 -340 -304 -326 -35 13 -114 177 -158 331 -68 234 -107
495 -127 847 -12 214 -3 399 36 773 50 471 51 491 28 523 -24 32 -94 70 -147
79 -20 3 -40 9 -42 13 -3 4 2 27 10 50 36 102 3 198 -96 280 -105 88 -234 138
-409 159 -416 52 -819 -100 -1154 -435 -334 -334 -660 -867 -882 -1442 -69
-178 -66 -173 -288 -432 -351 -409 -912 -976 -1261 -1275 -209 -179 -436 -299
-591 -312 -80 -7 -135 17 -219 98 -155 148 -274 404 -325 694 -50 292 -49 613
5 970 14 94 25 173 25 176 0 4 66 33 147 65 581 230 1279 686 1703 1113 364
367 567 705 602 1002 39 335 -147 634 -460 739 -212 70 -508 62 -722 -20 -100
-39 -264 -130 -355 -197 -115 -86 -329 -298 -435 -433 -380 -484 -725 -1199
-921 -1915 -27 -99 -53 -183 -57 -187 -13 -13 -277 -106 -437 -154 -168 -50
-368 -102 -525 -135 -134 -28 -162 -41 -158 -77 13 -111 443 -108 956 9 51 11
96 18 99 15 4 -3 1 -48 -6 -99 -22 -159 -30 -393 -21 -564 21 -368 124 -686
294 -914 170 -226 377 -348 655 -384 362 -49 626 24 936 256 168 125 626 575
956 939 57 63 123 135 147 160 l44 45 -6 -65 c-28 -293 -7 -498 69 -687 126
-312 370 -455 780 -457 415 -2 711 230 1035 809 101 180 259 502 365 743 49
111 92 202 95 202 3 0 14 -64 23 -142 10 -79 31 -201 48 -272 87 -379 215
-593 419 -700 84 -44 150 -62 280 -77 393 -44 620 118 919 656 l73 130 -6 -95
c-14 -230 -18 -674 -7 -852 52 -849 260 -1381 604 -1547 99 -48 181 -69 313
-77 205 -14 334 33 469 169 303 306 705 964 909 1489 112 289 204 628 180 666
-23 36 -75 56 -158 60 -123 6 -144 -6 -180 -104 -248 -668 -720 -1457 -1120
-1871 -49 -51 -94 -93 -100 -93 -17 0 -78 118 -119 230 -168 453 -226 1090
-177 1935 16 263 72 821 100 990 6 33 21 143 35 245 37 279 94 646 169 1080
20 113 48 276 62 362 15 86 30 162 34 168 4 6 116 26 256 45 265 35 504 72
884 135 129 22 282 44 340 50 144 15 210 38 210 75 0 19 -43 53 -90 72 -71 28
-395 23 -655 -10 -911 -117 -895 -115 -895 -94 0 15 49 274 139 732 33 169 36
178 84 365 82 322 89 355 76 382 -15 34 -57 56 -136 73 -74 16 -111 17 -160 5z
m-5824 -1234 c42 -22 110 -102 136 -159 42 -92 58 -173 52 -267 -18 -287 -185
-568 -562 -946 -230 -231 -446 -405 -780 -631 -172 -115 -482 -303 -502 -303
-17 0 -18 -7 22 128 169 556 452 1156 728 1540 213 297 466 518 697 610 111
44 163 51 209 28z m3013 -1028 c107 -49 171 -127 183 -224 7 -46 5 -51 -19
-63 -30 -16 -25 -5 -70 -181 -33 -129 -112 -366 -191 -570 -20 -52 -44 -117
-55 -145 -109 -300 -362 -849 -530 -1151 -300 -538 -521 -827 -746 -976 -127
-85 -136 -84 -185 13 -79 158 -105 306 -96 562 14 396 107 771 314 1262 61
144 223 463 303 595 317 526 595 804 892 891 77 23 129 19 200 -13z"/>
<path d="M16065 15104 c-99 -54 -339 -359 -702 -889 -190 -278 -375 -563 -443
-683 -29 -51 -56 -89 -60 -85 -6 7 -31 173 -135 901 -27 189 -39 245 -61 279
-21 34 -78 53 -154 53 -94 0 -109 -14 -120 -110 -18 -156 -8 -535 25 -955 9
-104 31 -388 50 -630 49 -627 50 -639 116 -1180 93 -773 129 -993 174 -1093
22 -47 31 -56 82 -79 78 -36 206 -39 250 -7 39 29 54 103 30 144 -20 34 -29
136 -87 995 -22 330 -44 636 -49 680 -5 44 -8 81 -7 82 2 2 88 -122 192 -274
293 -430 420 -604 678 -928 434 -544 504 -623 586 -657 107 -45 260 -22 260
38 0 8 -17 33 -39 57 -21 23 -107 141 -191 262 -262 375 -418 592 -575 800
-171 226 -499 682 -600 834 -91 140 -138 241 -143 312 -8 110 45 226 286 627
82 136 211 353 287 482 148 251 282 466 469 755 131 202 138 224 78 258 -46
27 -157 33 -197 11z"/>
<path d="M13665 14973 c-63 -15 -90 -85 -105 -278 -28 -345 -20 -2227 10
-2588 6 -71 10 -135 8 -143 -3 -17 -68 139 -705 1706 -203 500 -301 715 -353
774 -50 56 -107 78 -210 80 -65 1 -93 -3 -118 -17 -56 -31 -66 -69 -65 -247 3
-341 110 -1812 174 -2375 61 -542 189 -1219 243 -1282 39 -46 155 -52 193 -11
28 31 21 213 -31 758 -52 544 -188 2283 -185 2369 0 30 181 -441 729 -1904
353 -944 396 -1026 549 -1069 78 -22 195 -22 248 -1 97 39 101 101 44 665 -52
517 -56 565 -86 1040 -40 646 -64 1118 -106 2165 -12 296 -13 300 -37 321 -35
33 -135 52 -197 37z"/>
<path d="M10479 14785 c-348 -88 -640 -472 -815 -1070 l-29 -100 -22 240 c-33
357 -68 607 -99 707 -8 26 -67 48 -128 48 -48 0 -61 -4 -83 -26 l-26 -26 7
-472 c15 -1063 44 -1643 116 -2366 43 -422 108 -855 134 -895 34 -51 170 -86
259 -66 96 21 94 12 69 304 -12 138 -24 300 -26 358 -6 114 9 751 20 859 l7
65 38 -135 c100 -348 157 -499 351 -920 254 -552 286 -607 364 -634 55 -19
152 -21 188 -4 54 24 56 15 -140 538 -73 195 -176 462 -229 594 -98 243 -236
646 -281 815 -28 108 -30 158 -9 188 9 12 84 80 168 151 227 192 422 403 549
592 105 158 214 414 254 600 24 112 22 288 -4 370 -43 131 -137 226 -272 270
-85 28 -278 37 -361 15z m243 -225 c143 -231 3 -747 -307 -1135 -136 -170
-315 -343 -469 -454 l-47 -33 5 33 c3 19 13 86 21 149 51 367 139 675 270 945
83 171 171 302 270 400 77 77 183 148 215 142 8 -1 27 -22 42 -47z"/>
<path d="M7001 14756 c-73 -35 -80 -71 -21 -104 l31 -17 -6 -165 c-26 -717
-42 -2558 -26 -2940 26 -621 44 -761 111 -862 106 -160 397 -209 689 -117 228
72 434 204 658 422 370 359 626 797 742 1267 128 520 92 1094 -93 1495 -200
433 -547 763 -967 919 -239 88 -402 113 -794 119 -270 4 -282 4 -324 -17z
m476 -176 c230 -21 268 -28 388 -66 237 -77 434 -224 604 -451 232 -311 333
-621 348 -1068 16 -502 -107 -971 -372 -1414 -215 -359 -538 -696 -786 -822
-71 -35 -186 -79 -208 -79 -6 0 -17 23 -26 52 -12 43 -15 120 -15 442 0 354
-34 1517 -60 2086 -29 633 -72 1165 -105 1318 -6 27 -27 27 232 2z"/>
<path d="M11501 14647 c-34 -17 -40 -46 -50 -252 -15 -285 -23 -1599 -12
-1880 11 -257 73 -973 116 -1335 44 -367 63 -433 137 -469 62 -30 162 -38 211
-18 41 18 63 57 48 86 -12 21 -23 234 -56 1011 -14 322 -34 691 -44 820 -11
129 -36 458 -56 730 -64 901 -93 1207 -118 1259 -24 51 -120 77 -176 48z"/>
<path d="M12400 9943 c-73 -8 -318 -53 -368 -68 -52 -16 -92 -44 -92 -65 0
-22 53 -59 102 -71 54 -12 165 -10 450 11 137 10 151 10 191 -8 94 -41 157
-124 157 -205 0 -125 -164 -299 -329 -347 -38 -11 -107 -20 -163 -22 l-98 -4
-5 31 c-54 316 -91 459 -125 487 -59 48 -165 27 -174 -35 -14 -90 -16 -189 -7
-477 17 -543 83 -1049 156 -1204 66 -139 211 -208 440 -209 118 -1 187 13 275
58 194 98 336 363 315 585 -22 235 -162 467 -362 599 -38 26 -43 32 -27 37 11
3 57 24 103 47 115 56 205 147 264 265 38 78 42 92 42 161 0 63 -5 86 -28 133
-41 84 -131 169 -230 218 -98 48 -167 66 -306 80 -103 10 -115 10 -181 3z m37
-983 c114 -56 190 -119 259 -216 89 -125 127 -270 104 -403 -26 -153 -151
-336 -269 -393 l-44 -21 -18 21 c-22 28 -32 74 -64 303 -15 101 -49 309 -76
463 -27 153 -49 285 -49 293 0 22 39 11 157 -47z"/>
<path d="M14595 9943 c-66 -1 -294 -7 -507 -13 -549 -15 -609 -25 -607 -93 1
-17 -6 -102 -14 -187 -26 -254 -50 -816 -43 -1005 6 -170 46 -527 64 -575 16
-41 72 -88 131 -111 42 -16 88 -22 181 -26 159 -7 322 13 660 78 402 78 470
102 470 160 0 22 -8 34 -31 48 -60 37 -104 35 -554 -24 -237 -31 -449 -59
-471 -62 l-42 -5 -6 38 c-26 171 -65 818 -49 834 2 2 117 23 256 46 275 46
323 56 352 78 28 21 10 47 -44 65 -39 12 -69 10 -303 -18 -143 -18 -262 -30
-265 -27 -3 3 -10 74 -14 158 -8 146 -22 314 -35 424 l-7 52 84 6 c46 4 271
15 499 26 511 25 570 33 570 80 0 43 -70 56 -275 53z"/>
<path d="M9393 9766 c-17 -8 -39 -26 -48 -40 -30 -45 -39 -214 -26 -486 14
-291 37 -621 52 -743 6 -49 9 -90 7 -93 -3 -2 -47 58 -98 134 -187 274 -465
669 -537 764 -127 166 -188 207 -322 215 -89 5 -137 -13 -160 -61 -12 -27 -11
-53 13 -230 64 -464 136 -834 221 -1129 80 -279 91 -297 188 -297 76 0 82 10
68 126 -6 54 -32 230 -56 389 -24 160 -56 378 -70 485 -14 107 -27 205 -29
218 -2 12 -2 22 0 22 2 0 101 -145 220 -322 339 -504 504 -737 578 -816 67
-73 211 -111 313 -83 62 17 83 49 83 130 0 75 -47 504 -90 821 -31 235 -73
605 -93 824 -11 130 -14 140 -37 157 -34 26 -135 34 -177 15z"/>
<path d="M7277 9616 c-83 -30 -95 -59 -171 -403 -130 -583 -190 -1015 -191
-1366 l0 -199 27 -23 c32 -27 104 -41 145 -28 15 5 34 21 41 35 7 15 33 156
57 315 25 158 50 316 56 351 l11 62 60 0 c33 0 128 11 211 25 82 14 156 25
164 23 8 -2 47 -80 87 -173 136 -318 183 -390 269 -415 56 -15 162 -9 181 11
27 27 29 57 5 76 -12 10 -31 41 -44 68 -26 60 -169 485 -164 490 2 1 54 8 114
14 125 13 171 25 179 47 8 21 1 31 -37 51 -24 12 -67 18 -168 21 l-135 4 -28
77 c-212 576 -288 759 -354 847 -58 79 -220 125 -315 90z m254 -728 c58 -178
105 -324 105 -325 -2 -3 -325 -53 -343 -53 -17 0 -18 -3 33 270 45 240 87 430
94 430 4 0 54 -145 111 -322z"/>
<path d="M10015 9546 c-36 -36 -39 -91 -26 -416 24 -582 78 -1010 146 -1155
33 -68 109 -137 180 -164 80 -30 216 -44 298 -31 215 34 374 146 521 365 128
190 188 387 189 620 1 225 -50 365 -182 495 -113 112 -237 171 -461 220 -334
74 -430 90 -535 90 -98 0 -108 -2 -130 -24z m495 -196 c118 -33 243 -74 278
-90 122 -57 215 -175 243 -308 19 -92 7 -270 -26 -372 -82 -255 -276 -500
-483 -609 -21 -11 -24 -9 -42 31 -35 79 -123 568 -185 1027 -20 145 -40 286
-45 313 -16 82 -14 88 18 78 15 -5 124 -36 242 -70z"/>
<path d="M17818 8081 c-52 -17 -90 -47 -125 -99 -127 -192 -317 -768 -423
-1282 -12 -58 -23 -111 -25 -118 -3 -8 -26 3 -68 31 -92 64 -170 88 -302 94
-130 6 -199 -5 -287 -50 -73 -36 -194 -151 -256 -244 -166 -246 -339 -709
-433 -1154 l-32 -154 -157 -327 c-314 -652 -662 -1289 -847 -1552 l-56 -79
-19 24 c-37 47 -158 306 -196 424 -22 66 -51 171 -65 233 l-26 113 87 177
c246 499 445 1169 507 1707 20 170 20 456 0 568 -42 241 -128 321 -345 322
-114 0 -162 -18 -240 -91 -203 -190 -407 -757 -479 -1334 -53 -419 -43 -972
24 -1322 l13 -67 -85 -128 c-152 -229 -310 -403 -366 -403 -27 0 -90 107 -125
212 -57 174 -107 443 -146 788 -67 587 -72 1208 -16 1825 26 282 26 316 -2
343 -65 60 -236 66 -272 9 -8 -12 -44 -148 -81 -302 -91 -386 -324 -1296 -380
-1490 -166 -573 -364 -1072 -520 -1306 -61 -92 -174 -219 -194 -219 -17 0 -80
112 -112 199 -105 287 -149 645 -129 1048 21 432 61 726 230 1688 47 270 53
364 24 396 -45 51 -174 80 -252 57 -35 -10 -74 -43 -200 -169 -147 -145 -296
-279 -333 -300 -14 -7 -21 4 -44 69 -69 195 -157 263 -340 266 -83 1 -96 -2
-157 -32 -110 -54 -197 -169 -252 -334 -67 -198 -9 -330 167 -383 67 -20 237
-30 304 -18 l52 10 -4 -26 c-41 -248 -98 -469 -274 -1051 -205 -681 -296 -941
-413 -1175 -93 -186 -191 -311 -226 -289 -47 30 -131 240 -166 414 -36 178
-41 264 -41 660 1 518 16 694 141 1630 71 527 80 659 51 704 -36 54 -172 89
-258 66 -56 -15 -74 -32 -172 -165 -44 -60 -108 -144 -141 -185 -64 -80 -225
-250 -237 -250 -4 0 -10 21 -14 48 -11 75 -62 218 -98 275 -67 104 -144 147
-277 155 -50 2 -103 -1 -130 -8 -98 -26 -215 -194 -260 -374 -75 -297 64 -460
404 -472 l120 -4 -3 -58 c-9 -245 -87 -823 -177 -1317 -68 -374 -177 -760
-273 -968 -47 -104 -121 -218 -134 -210 -17 10 -84 164 -111 253 -35 117 -70
284 -100 480 -56 369 -76 697 -77 1300 -1 446 -5 508 -35 542 -12 13 -31 55
-43 93 -48 149 -151 275 -272 333 -129 62 -340 78 -479 36 -330 -98 -583 -476
-739 -1099 -65 -261 -103 -515 -116 -765 -6 -118 -10 -138 -77 -355 -146 -479
-280 -900 -287 -908 -8 -8 -29 112 -52 293 -17 137 -23 760 -10 1067 7 153 23
458 36 678 36 589 45 815 45 1092 0 720 -96 1056 -332 1172 -156 77 -365 69
-492 -18 -176 -122 -360 -519 -492 -1062 -26 -107 -49 -201 -52 -209 -3 -8
-13 44 -22 115 -38 276 -85 497 -128 595 -53 122 -139 182 -288 200 -134 17
-223 -10 -302 -92 -89 -90 -207 -388 -321 -803 -34 -126 -51 -173 -55 -155 -3
14 -12 230 -21 480 -9 250 -23 597 -31 770 -7 173 -14 331 -14 350 0 48 -10
60 -60 71 -111 25 -135 -55 -165 -536 -30 -502 -35 -644 -42 -1105 -12 -914
45 -2376 119 -3063 17 -161 49 -189 215 -191 78 -1 95 2 120 20 l28 21 3 164
c4 165 -12 652 -28 894 -9 139 -3 267 30 600 70 697 236 1513 416 2045 69 204
67 202 92 74 31 -161 48 -282 92 -664 41 -353 111 -859 156 -1123 50 -300 55
-313 144 -342 54 -18 172 -21 212 -6 53 20 55 34 62 331 13 623 100 1221 251
1737 106 357 210 590 321 712 20 23 40 41 44 41 31 0 99 -233 122 -420 17
-135 17 -946 0 -1225 -44 -740 -46 -791 -46 -1325 -1 -468 2 -566 17 -690 34
-274 95 -533 167 -715 44 -110 76 -154 135 -184 43 -23 62 -26 146 -26 175 0
179 6 349 612 42 150 79 275 82 278 2 3 17 -26 32 -63 54 -140 168 -285 282
-361 107 -72 188 -94 339 -95 112 -1 124 1 183 28 162 75 258 268 388 786 30
118 54 223 54 234 0 11 3 16 7 12 4 -4 17 -78 30 -164 55 -388 141 -656 260
-807 89 -114 182 -157 343 -159 91 -1 111 2 152 22 163 80 329 417 449 907
111 458 206 1197 225 1758 l7 198 48 32 c77 52 214 174 290 259 40 43 73 77
75 76 1 -2 -9 -64 -22 -138 -150 -831 -214 -1375 -214 -1815 0 -622 141 -1034
398 -1164 156 -79 342 -89 478 -27 227 104 411 500 669 1441 183 668 254 1007
271 1289 l7 112 116 87 c65 48 152 119 194 158 42 39 77 66 77 60 0 -7 -22
-110 -50 -230 -273 -1194 -308 -1903 -120 -2436 111 -312 251 -443 509 -476
171 -22 301 21 419 140 217 217 392 632 605 1431 l44 165 7 -95 c40 -546 123
-977 232 -1191 40 -81 113 -164 183 -209 136 -87 374 -111 524 -53 76 29 175
103 255 189 l79 85 52 -106 c131 -263 257 -400 416 -454 81 -27 214 -37 290
-21 162 33 234 115 462 525 70 125 310 604 364 725 16 34 16 34 22 -75 24
-381 150 -716 347 -916 130 -132 225 -172 410 -173 97 -1 124 3 171 22 112 45
232 186 352 410 l54 103 28 -78 c39 -108 129 -313 178 -403 157 -290 281 -380
522 -380 265 1 480 191 681 604 106 218 216 534 327 943 24 87 24 92 7 108
-21 19 -74 35 -117 35 -60 0 -79 -17 -107 -94 -182 -508 -201 -559 -280 -736
-138 -307 -320 -557 -472 -646 -24 -14 -50 -24 -58 -21 -29 11 -136 247 -208
456 -80 236 -125 458 -152 761 -20 212 -22 347 -7 385 53 130 325 1055 421
1430 242 946 330 1724 230 2048 -21 68 -54 107 -110 131 -44 18 -166 28 -202
17z m51 -626 c-22 -342 -121 -878 -250 -1363 -73 -271 -82 -302 -86 -298 -10
10 116 812 173 1101 57 287 160 713 170 703 1 -2 -2 -66 -7 -143z m-904 -1017
c60 -66 126 -180 160 -272 l26 -72 -35 -214 c-85 -516 -99 -693 -101 -1260
l-3 -475 -50 -130 c-119 -306 -198 -474 -288 -612 -51 -80 -129 -173 -143
-173 -12 0 -88 141 -121 224 -48 122 -87 288 -106 447 -22 194 -15 636 15 889
84 707 313 1407 542 1655 23 25 45 45 49 45 5 0 29 -24 55 -52z m-2167 -179
c9 -371 -85 -826 -290 -1404 -76 -212 -81 -208 -73 60 19 596 126 1132 292
1474 43 87 47 92 56 70 6 -13 12 -103 15 -200z m-6035 89 c49 -84 87 -263 87
-415 l0 -51 -65 -22 c-90 -30 -114 -25 -145 30 -49 87 -26 290 50 440 17 33
34 60 39 60 5 0 20 -19 34 -42z m2030 -66 c35 -77 57 -173 57 -248 l0 -61 -64
-32 c-35 -17 -82 -38 -105 -46 -38 -13 -41 -13 -51 5 -27 51 2 235 55 342 27
52 62 98 75 98 4 0 19 -26 33 -58z m-3315 -296 c35 -19 131 -118 170 -177 l31
-47 -30 -12 c-57 -24 -59 -31 -119 -423 -50 -323 -112 -677 -151 -862 -66
-311 -184 -742 -256 -935 -40 -107 -120 -270 -134 -270 -14 0 -87 160 -112
250 -37 127 -56 255 -68 453 -21 362 28 788 141 1225 99 382 260 683 419 784
51 32 70 34 109 14z"/>
<path d="M13363 7470 c-52 -26 -160 -132 -199 -194 -16 -25 -33 -46 -37 -46
-5 0 -21 9 -37 20 -39 28 -76 41 -149 51 -112 16 -177 -17 -175 -90 4 -135
217 -308 410 -333 131 -17 146 -9 305 151 154 155 193 216 194 307 0 97 -60
146 -189 151 -68 4 -88 1 -123 -17z"/>
</g>
</svg>
