<?xml version="1.0" encoding="utf-8"?>
<!-- Generator: Adobe Illustrator 25.0.1, SVG Export Plug-In . SVG Version: 6.00 Build 0)  -->
<svg version="1.1" id="Layer_1" xmlns="http://www.w3.org/2000/svg" xmlns:xlink="http://www.w3.org/1999/xlink" x="0px" y="0px"
	 viewBox="0 0 2400 2400" style="enable-background:new 0 0 2400 2400;" xml:space="preserve">
<g>
	<path transform="translate(0.000000,2400.000000) scale(0.100000,-0.100000)" d="M15243,22350c-42-10-78-34-98-64
		c-27-41-83-209-156-466c-106-376-113-403-199-745c-44-176-84-329-89-341c-10-23-54-28-726-84c-535-45-705-73-803-132
		c-28-17-33-25-30-51c4-40,46-65,130-78c99-14,829,23,1188,61c96,10,177,16,179,14s-10-65-28-141c-17-76-40-181-51-233
		c-42-201-61-272-128-475c-302-911-604-1597-893-2025c-127-188-268-340-304-326c-35,13-114,177-158,331c-68,234-107,495-127,847
		c-12,214-3,399,36,773c50,471,51,491,28,523c-24,32-94,70-147,79c-20,3-40,9-42,13c-3,4,2,27,10,50c36,102,3,198-96,280
		c-105,88-234,138-409,159c-416,52-819-100-1154-435c-334-334-660-867-882-1442c-69-178-66-173-288-432c-351-409-912-976-1261-1275
		c-209-179-436-299-591-312c-80-7-135,17-219,98c-155,148-274,404-325,694c-50,292-49,613,5,970c14,94,25,173,25,176
		c0,4,66,33,147,65c581,230,1279,686,1703,1113c364,367,567,705,602,1002c39,335-147,634-460,739c-212,70-508,62-722-20
		c-100-39-264-130-355-197c-115-86-329-298-435-433c-380-484-725-1199-921-1915c-27-99-53-183-57-187c-13-13-277-106-437-154
		c-168-50-368-102-525-135c-134-28-162-41-158-77c13-111,443-108,956,9c51,11,96,18,99,15c4-3,1-48-6-99c-22-159-30-393-21-564
		c21-368,124-686,294-914c170-226,377-348,655-384c362-49,626,24,936,256c168,125,626,575,956,939c57,63,123,135,147,160l44,45
		l-6-65c-28-293-7-498,69-687c126-312,370-455,780-457c415-2,711,230,1035,809c101,180,259,502,365,743c49,111,92,202,95,202
		s14-64,23-142c10-79,31-201,48-272c87-379,215-593,419-700c84-44,150-62,280-77c393-44,620,118,919,656l73,130l-6-95
		c-14-230-18-674-7-852c52-849,260-1381,604-1547c99-48,181-69,313-77c205-14,334,33,469,169c303,306,705,964,909,1489
		c112,289,204,628,180,666c-23,36-75,56-158,60c-123,6-144-6-180-104c-248-668-720-1457-1120-1871c-49-51-94-93-100-93
		c-17,0-78,118-119,230c-168,453-226,1090-177,1935c16,263,72,821,100,990c6,33,21,143,35,245c37,279,94,646,169,1080
		c20,113,48,276,62,362c15,86,30,162,34,168s116,26,256,45c265,35,504,72,884,135c129,22,282,44,340,50c144,15,210,38,210,75
		c0,19-43,53-90,72c-71,28-395,23-655-10c-911-117-895-115-895-94c0,15,49,274,139,732c33,169,36,178,84,365c82,322,89,355,76,382
		c-15,34-57,56-136,73C15329,22361,15292,22362,15243,22350z M9419,21116c42-22,110-102,136-159c42-92,58-173,52-267
		c-18-287-185-568-562-946c-230-231-446-405-780-631c-172-115-482-303-502-303c-17,0-18-7,22,128c169,556,452,1156,728,1540
		c213,297,466,518,697,610C9321,21132,9373,21139,9419,21116z M12432,20088c107-49,171-127,183-224c7-46,5-51-19-63
		c-30-16-25-5-70-181c-33-129-112-366-191-570c-20-52-44-117-55-145c-109-300-362-849-530-1151c-300-538-521-827-746-976
		c-127-85-136-84-185,13c-79,158-105,306-96,562c14,396,107,771,314,1262c61,144,223,463,303,595c317,526,595,804,892,891
		C12309,20124,12361,20120,12432,20088z M16065,15104c-99-54-339-359-702-889c-190-278-375-563-443-683c-29-51-56-89-60-85
		c-6,7-31,173-135,901c-27,189-39,245-61,279c-21,34-78,53-154,53c-94,0-109-14-120-110c-18-156-8-535,25-955c9-104,31-388,50-630
		c49-627,50-639,116-1180c93-773,129-993,174-1093c22-47,31-56,82-79c78-36,206-39,250-7c39,29,54,103,30,144c-20,34-29,136-87,995
		c-22,330-44,636-49,680s-8,81-7,82c2,2,88-122,192-274c293-430,420-604,678-928c434-544,504-623,586-657c107-45,260-22,260,38
		c0,8-17,33-39,57c-21,23-107,141-191,262c-262,375-418,592-575,800c-171,226-499,682-600,834c-91,140-138,241-143,312
		c-8,110,45,226,286,627c82,136,211,353,287,482c148,251,282,466,469,755c131,202,138,224,78,258
		C16216,15120,16105,15126,16065,15104z M13665,14973c-63-15-90-85-105-278c-28-345-20-2227,10-2588c6-71,10-135,8-143
		c-3-17-68,139-705,1706c-203,500-301,715-353,774c-50,56-107,78-210,80c-65,1-93-3-118-17c-56-31-66-69-65-247
		c3-341,110-1812,174-2375c61-542,189-1219,243-1282c39-46,155-52,193-11c28,31,21,213-31,758c-52,544-188,2283-185,2369
		c0,30,181-441,729-1904c353-944,396-1026,549-1069c78-22,195-22,248-1c97,39,101,101,44,665c-52,517-56,565-86,1040
		c-40,646-64,1118-106,2165c-12,296-13,300-37,321C13827,14969,13727,14988,13665,14973z M10479,14785c-348-88-640-472-815-1070
		l-29-100l-22,240c-33,357-68,607-99,707c-8,26-67,48-128,48c-48,0-61-4-83-26l-26-26l7-472c15-1063,44-1643,116-2366
		c43-422,108-855,134-895c34-51,170-86,259-66c96,21,94,12,69,304c-12,138-24,300-26,358c-6,114,9,751,20,859l7,65l38-135
		c100-348,157-499,351-920c254-552,286-607,364-634c55-19,152-21,188-4c54,24,56,15-140,538c-73,195-176,462-229,594
		c-98,243-236,646-281,815c-28,108-30,158-9,188c9,12,84,80,168,151c227,192,422,403,549,592c105,158,214,414,254,600
		c24,112,22,288-4,370c-43,131-137,226-272,270C10755,14798,10562,14807,10479,14785z M10722,14560c143-231,3-747-307-1135
		c-136-170-315-343-469-454l-47-33l5,33c3,19,13,86,21,149c51,367,139,675,270,945c83,171,171,302,270,400c77,77,183,148,215,142
		C10688,14606,10707,14585,10722,14560z M7001,14756c-73-35-80-71-21-104l31-17l-6-165c-26-717-42-2558-26-2940
		c26-621,44-761,111-862c106-160,397-209,689-117c228,72,434,204,658,422c370,359,626,797,742,1267c128,520,92,1094-93,1495
		c-200,433-547,763-967,919c-239,88-402,113-794,119C7055,14777,7043,14777,7001,14756z M7477,14580c230-21,268-28,388-66
		c237-77,434-224,604-451c232-311,333-621,348-1068c16-502-107-971-372-1414c-215-359-538-696-786-822c-71-35-186-79-208-79
		c-6,0-17,23-26,52c-12,43-15,120-15,442c0,354-34,1517-60,2086c-29,633-72,1165-105,1318C7239,14605,7218,14605,7477,14580z
		 M11501,14647c-34-17-40-46-50-252c-15-285-23-1599-12-1880c11-257,73-973,116-1335c44-367,63-433,137-469c62-30,162-38,211-18
		c41,18,63,57,48,86c-12,21-23,234-56,1011c-14,322-34,691-44,820c-11,129-36,458-56,730c-64,901-93,1207-118,1259
		C11653,14650,11557,14676,11501,14647z M12400,9943c-73-8-318-53-368-68c-52-16-92-44-92-65c0-22,53-59,102-71c54-12,165-10,450,11
		c137,10,151,10,191-8c94-41,157-124,157-205c0-125-164-299-329-347c-38-11-107-20-163-22l-98-4l-5,31c-54,316-91,459-125,487
		c-59,48-165,27-174-35c-14-90-16-189-7-477c17-543,83-1049,156-1204c66-139,211-208,440-209c118-1,187,13,275,58
		c194,98,336,363,315,585c-22,235-162,467-362,599c-38,26-43,32-27,37c11,3,57,24,103,47c115,56,205,147,264,265c38,78,42,92,42,161
		c0,63-5,86-28,133c-41,84-131,169-230,218c-98,48-167,66-306,80C12478,9950,12466,9950,12400,9943z M12437,8960
		c114-56,190-119,259-216c89-125,127-270,104-403c-26-153-151-336-269-393l-44-21l-18,21c-22,28-32,74-64,303c-15,101-49,309-76,463
		c-27,153-49,285-49,293C12280,9029,12319,9018,12437,8960z M14595,9943c-66-1-294-7-507-13c-549-15-609-25-607-93
		c1-17-6-102-14-187c-26-254-50-816-43-1005c6-170,46-527,64-575c16-41,72-88,131-111c42-16,88-22,181-26c159-7,322,13,660,78
		c402,78,470,102,470,160c0,22-8,34-31,48c-60,37-104,35-554-24c-237-31-449-59-471-62l-42-5l-6,38c-26,171-65,818-49,834
		c2,2,117,23,256,46c275,46,323,56,352,78c28,21,10,47-44,65c-39,12-69,10-303-18c-143-18-262-30-265-27s-10,74-14,158
		c-8,146-22,314-35,424l-7,52l84,6c46,4,271,15,499,26c511,25,570,33,570,80C14870,9933,14800,9946,14595,9943z M9393,9766
		c-17-8-39-26-48-40c-30-45-39-214-26-486c14-291,37-621,52-743c6-49,9-90,7-93c-3-2-47,58-98,134c-187,274-465,669-537,764
		c-127,166-188,207-322,215c-89,5-137-13-160-61c-12-27-11-53,13-230c64-464,136-834,221-1129c80-279,91-297,188-297
		c76,0,82,10,68,126c-6,54-32,230-56,389c-24,160-56,378-70,485s-27,205-29,218c-2,12-2,22,0,22s101-145,220-322
		c339-504,504-737,578-816c67-73,211-111,313-83c62,17,83,49,83,130c0,75-47,504-90,821c-31,235-73,605-93,824
		c-11,130-14,140-37,157C9536,9777,9435,9785,9393,9766z M7277,9616c-83-30-95-59-171-403c-130-583-190-1015-191-1366v-199l27-23
		c32-27,104-41,145-28c15,5,34,21,41,35c7,15,33,156,57,315c25,158,50,316,56,351l11,62h60c33,0,128,11,211,25c82,14,156,25,164,23
		s47-80,87-173c136-318,183-390,269-415c56-15,162-9,181,11c27,27,29,57,5,76c-12,10-31,41-44,68c-26,60-169,485-164,490
		c2,1,54,8,114,14c125,13,171,25,179,47c8,21,1,31-37,51c-24,12-67,18-168,21l-135,4l-28,77c-212,576-288,759-354,847
		C7534,9605,7372,9651,7277,9616z M7531,8888c58-178,105-324,105-325c-2-3-325-53-343-53c-17,0-18-3,33,270c45,240,87,430,94,430
		C7424,9210,7474,9065,7531,8888z M10015,9546c-36-36-39-91-26-416c24-582,78-1010,146-1155c33-68,109-137,180-164
		c80-30,216-44,298-31c215,34,374,146,521,365c128,190,188,387,189,620c1,225-50,365-182,495c-113,112-237,171-461,220
		c-334,74-430,90-535,90C10047,9570,10037,9568,10015,9546z M10510,9350c118-33,243-74,278-90c122-57,215-175,243-308
		c19-92,7-270-26-372c-82-255-276-500-483-609c-21-11-24-9-42,31c-35,79-123,568-185,1027c-20,145-40,286-45,313c-16,82-14,88,18,78
		C10283,9415,10392,9384,10510,9350z M17818,8081c-52-17-90-47-125-99c-127-192-317-768-423-1282c-12-58-23-111-25-118
		c-3-8-26,3-68,31c-92,64-170,88-302,94c-130,6-199-5-287-50c-73-36-194-151-256-244c-166-246-339-709-433-1154l-32-154l-157-327
		c-314-652-662-1289-847-1552l-56-79l-19,24c-37,47-158,306-196,424c-22,66-51,171-65,233l-26,113l87,177c246,499,445,1169,507,1707
		c20,170,20,456,0,568c-42,241-128,321-345,322c-114,0-162-18-240-91c-203-190-407-757-479-1334c-53-419-43-972,24-1322l13-67
		l-85-128c-152-229-310-403-366-403c-27,0-90,107-125,212c-57,174-107,443-146,788c-67,587-72,1208-16,1825c26,282,26,316-2,343
		c-65,60-236,66-272,9c-8-12-44-148-81-302c-91-386-324-1296-380-1490c-166-573-364-1072-520-1306c-61-92-174-219-194-219
		c-17,0-80,112-112,199c-105,287-149,645-129,1048c21,432,61,726,230,1688c47,270,53,364,24,396c-45,51-174,80-252,57
		c-35-10-74-43-200-169c-147-145-296-279-333-300c-14-7-21,4-44,69c-69,195-157,263-340,266c-83,1-96-2-157-32
		c-110-54-197-169-252-334c-67-198-9-330,167-383c67-20,237-30,304-18l52,10l-4-26c-41-248-98-469-274-1051
		c-205-681-296-941-413-1175c-93-186-191-311-226-289c-47,30-131,240-166,414c-36,178-41,264-41,660c1,518,16,694,141,1630
		c71,527,80,659,51,704c-36,54-172,89-258,66c-56-15-74-32-172-165c-44-60-108-144-141-185c-64-80-225-250-237-250c-4,0-10,21-14,48
		c-11,75-62,218-98,275c-67,104-144,147-277,155c-50,2-103-1-130-8c-98-26-215-194-260-374c-75-297,64-460,404-472l120-4l-3-58
		c-9-245-87-823-177-1317c-68-374-177-760-273-968c-47-104-121-218-134-210c-17,10-84,164-111,253c-35,117-70,284-100,480
		c-56,369-76,697-77,1300c-1,446-5,508-35,542c-12,13-31,55-43,93c-48,149-151,275-272,333c-129,62-340,78-479,36
		c-330-98-583-476-739-1099c-65-261-103-515-116-765c-6-118-10-138-77-355c-146-479-280-900-287-908c-8-8-29,112-52,293
		c-17,137-23,760-10,1067c7,153,23,458,36,678c36,589,45,815,45,1092c0,720-96,1056-332,1172c-156,77-365,69-492-18
		c-176-122-360-519-492-1062c-26-107-49-201-52-209s-13,44-22,115c-38,276-85,497-128,595c-53,122-139,182-288,200
		c-134,17-223-10-302-92c-89-90-207-388-321-803c-34-126-51-173-55-155c-3,14-12,230-21,480s-23,597-31,770c-7,173-14,331-14,350
		c0,48-10,60-60,71c-111,25-135-55-165-536c-30-502-35-644-42-1105c-12-914,45-2376,119-3063c17-161,49-189,215-191
		c78-1,95,2,120,20l28,21l3,164c4,165-12,652-28,894c-9,139-3,267,30,600c70,697,236,1513,416,2045c69,204,67,202,92,74
		c31-161,48-282,92-664c41-353,111-859,156-1123c50-300,55-313,144-342c54-18,172-21,212-6c53,20,55,34,62,331
		c13,623,100,1221,251,1737c106,357,210,590,321,712c20,23,40,41,44,41c31,0,99-233,122-420c17-135,17-946,0-1225
		c-44-740-46-791-46-1325c-1-468,2-566,17-690c34-274,95-533,167-715c44-110,76-154,135-184c43-23,62-26,146-26c175,0,179,6,349,612
		c42,150,79,275,82,278c2,3,17-26,32-63c54-140,168-285,282-361c107-72,188-94,339-95c112-1,124,1,183,28c162,75,258,268,388,786
		c30,118,54,223,54,234s3,16,7,12s17-78,30-164c55-388,141-656,260-807c89-114,182-157,343-159c91-1,111,2,152,22
		c163,80,329,417,449,907c111,458,206,1197,225,1758l7,198l48,32c77,52,214,174,290,259c40,43,73,77,75,76c1-2-9-64-22-138
		c-150-831-214-1375-214-1815c0-622,141-1034,398-1164c156-79,342-89,478-27c227,104,411,500,669,1441c183,668,254,1007,271,1289
		l7,112l116,87c65,48,152,119,194,158s77,66,77,60c0-7-22-110-50-230c-273-1194-308-1903-120-2436c111-312,251-443,509-476
		c171-22,301,21,419,140c217,217,392,632,605,1431l44,165l7-95c40-546,123-977,232-1191c40-81,113-164,183-209
		c136-87,374-111,524-53c76,29,175,103,255,189l79,85l52-106c131-263,257-400,416-454c81-27,214-37,290-21c162,33,234,115,462,525
		c70,125,310,604,364,725c16,34,16,34,22-75c24-381,150-716,347-916c130-132,225-172,410-173c97-1,124,3,171,22
		c112,45,232,186,352,410l54,103l28-78c39-108,129-313,178-403c157-290,281-380,522-380c265,1,480,191,681,604
		c106,218,216,534,327,943c24,87,24,92,7,108c-21,19-74,35-117,35c-60,0-79-17-107-94c-182-508-201-559-280-736
		c-138-307-320-557-472-646c-24-14-50-24-58-21c-29,11-136,247-208,456c-80,236-125,458-152,761c-20,212-22,347-7,385
		c53,130,325,1055,421,1430c242,946,330,1724,230,2048c-21,68-54,107-110,131C17976,8082,17854,8092,17818,8081z M17869,7455
		c-22-342-121-878-250-1363c-73-271-82-302-86-298c-10,10,116,812,173,1101c57,287,160,713,170,703
		C17877,7596,17874,7532,17869,7455z M16965,6438c60-66,126-180,160-272l26-72l-35-214c-85-516-99-693-101-1260l-3-475l-50-130
		c-119-306-198-474-288-612c-51-80-129-173-143-173c-12,0-88,141-121,224c-48,122-87,288-106,447c-22,194-15,636,15,889
		c84,707,313,1407,542,1655c23,25,45,45,49,45C16915,6490,16939,6466,16965,6438z M14798,6259c9-371-85-826-290-1404
		c-76-212-81-208-73,60c19,596,126,1132,292,1474c43,87,47,92,56,70C14789,6446,14795,6356,14798,6259z M8763,6348
		c49-84,87-263,87-415v-51l-65-22c-90-30-114-25-145,30c-49,87-26,290,50,440c17,33,34,60,39,60S8749,6371,8763,6348z M10793,6282
		c35-77,57-173,57-248v-61l-64-32c-35-17-82-38-105-46c-38-13-41-13-51,5c-27,51,2,235,55,342c27,52,62,98,75,98
		C10764,6340,10779,6314,10793,6282z M7478,5986c35-19,131-118,170-177l31-47l-30-12c-57-24-59-31-119-423c-50-323-112-677-151-862
		c-66-311-184-742-256-935c-40-107-120-270-134-270s-87,160-112,250c-37,127-56,255-68,453c-21,362,28,788,141,1225
		c99,382,260,683,419,784C7420,6004,7439,6006,7478,5986z M13363,7470c-52-26-160-132-199-194c-16-25-33-46-37-46c-5,0-21,9-37,20
		c-39,28-76,41-149,51c-112,16-177-17-175-90c4-135,217-308,410-333c131-17,146-9,305,151c154,155,193,216,194,307
		c0,97-60,146-189,151C13418,7491,13398,7488,13363,7470z"/>
</g>
</svg>
