<?xml version="1.0" encoding="utf-8"?>
<!-- Generator: Adobe Illustrator 25.0.1, SVG Export Plug-In . SVG Version: 6.00 Build 0)  -->
<svg version="1.1" id="Layer_1" xmlns="http://www.w3.org/2000/svg" xmlns:xlink="http://www.w3.org/1999/xlink" x="0px" y="0px"
	 viewBox="0 0 2500 2500" style="enable-background:new 0 0 2500 2500;" xml:space="preserve">
<style type="text/css">
	.st0{fill:#231F20;}
</style>
<path transform="translate(0.000000,2500.000000) scale(0.100000,-0.100000)" class="st0" d="M9708,16240c-272-25-551-155-770-359
	c-140-131-295-336-420-556c-277-487-572-1315-837-2354c-38-150-73-276-76-279c-4-4-3,49,1,118c13,218,10,1465-4,1685
	c-42,648-101,930-238,1136c-130,196-350,292-638,276c-251-13-442-104-690-330c-242-221-573-659-746-990c-208-396-291-803-246-1195
	c36-311,140-537,336-732c180-181,408-295,702-351c187-36,368-18,368,36c0,21-47,41-115,50c-109,13-301,95-420,180
	c-69,49-177,159-223,227c-55,80-121,228-149,333c-26,96-27,111-28,350c0,202,3,267,18,337c68,335,209,645,450,988
	c155,221,370,474,522,613c81,74,213,177,226,177c5,0,23-21,39-47c98-154,151-427,182-933c17-279,17-1190,0-1800
	c-35-1265-43-1574-54-2214c-15-906,5-1701,45-1786c33-70,230-111,366-76c81,21,125,48,144,89c48,100,72,488,97,1572
	c10,432,15,486,95,970c34,206,132,715,139,722c2,2,25-6,51-18c104-46,287-33,410,29c110,55,262,170,491,373c148,130,172,142,284,143
	c152,2,278-126,331-335c33-132,37-408,10-659c-26-232-68-480-84-497c-7-6-85-59-174-117c-291-188-636-439-818-597
	c-399-344-598-710-598-1099c0-383,161-631,464-717c50-14,101-18,234-18c150,0,179,3,250,24c287,85,479,275,672,666
	c231,471,433,1171,513,1785c12,91,22,166,23,166c1,1,88,55,192,119c361,223,564,371,751,549c186,176,362,403,455,588
	c31,61,44,78,57,74c9-2,51-10,92-16c151-24,190-61,190-178c0-86-36-215-148-535c-186-526-255-762-342-1171
	c-101-475-146-842-137-1121c7-194,23-287,72-392c78-168,225-253,442-253c365,0,520,184,845,1000c38,96,101,265,140,375
	c38,110,74,207,79,215c5,9,9-11,9-55c2-296,85-784,183-1070c179-521,331-685,634-685c182,0,279,52,337,180c39,86,90,267,181,635
	c46,187,86,355,90,373c4,17,10,32,13,32c4,0,27-35,52-78c58-99,182-225,276-280c86-50,220-97,324-113c46-7,135-9,230-6
	c165,5,256,24,386,82c80,35,206,121,287,195c37,35,69,61,70,59c2-2,19-43,39-91c117-280,297-475,525-567c130-53,186-63,379-68
	c256-7,395,20,597,114c53,25,99,44,100,42c2-2,25-35,52-73c129-185,310-310,504-352c87-18,271-18,363,1c114,23,247,94,327,173
	c166,165,428,651,605,1122c55,147,146,443,146,476c0,16-10,28-30,39c-34,18-123,20-169,4c-38-13-53-40-169-309
	c-209-484-408-872-575-1120c-97-144-191-220-270-220c-47,0-117,48-172,117c-52,65-158,272-194,380l-25,72l103,106
	c261,271,510,614,665,915c326,632,380,1347,122,1606c-88,87-203,127-365,127c-192-1-327-61-490-217c-233-224-420-546-556-961
	c-101-306-138-531-139-845c-1-250,28-462,85-627c24-69,24-68-108-154c-112-72-251-139-304-146c-101-14-260,163-363,405
	c-68,158-140,450-167,670l-11,97l71,130c317,576,614,1258,972,2234c360,977,598,1797,676,2326c25,171,28,217,28,460
	c0,260-1,272-23,328c-31,77-61,110-124,138c-78,34-223,39-315,11c-206-63-414-276-666-680c-442-708-815-1655-1048-2657
	c-23-99-46-197-51-218l-9-37l-42,28c-164,113-393,172-612,158c-382-24-652-222-862-631c-191-373-313-844-313-1209c0-88-6-124-59-330
	c-33-127-98-383-146-569c-47-185-108-419-136-520c-28-100-54-192-56-205c-14-60-30-24-98,220c-119,429-175,882-175,1428
	c0,421,32,915,90,1405c11,94,20,210,20,258c0,79-2,90-24,112c-35,35-126,59-200,52c-91-7-143-32-166-78c-41-79-137-471-190-773
	c-38-218-103-433-290-966c-197-562-420-1071-612-1400c-76-129-186-285-196-276c-17,17-31,161-32,312c-1,506,143,1365,361,2158
	c112,405,122,452,126,591c6,159-10,215-83,289c-79,79-216,131-496,186c-32,6-58,17-58,23c0,7,12,48,25,92c103,331,81,710-55,912
	c-60,90-133,135-257,159c-348,66-752-139-872-444c-11-27-24-84-30-126c-48-343,223-607,749-731c41-10,79-21,84-26
	c10-9-54-129-130-244c-159-240-376-454-660-648c-140-96-334-217-348-217c-8,0-11,80-11,258c-1,336-25,482-112,662
	c-38,79-59,109-127,176c-118,117-277,193-438,209c-34,4-68,8-74,10s89,104,210,227c339,342,532,579,723,883
	c206,331,404,777,482,1094c45,181,54,254,54,431c-1,143-4,178-26,262c-68,259-229,433-470,507c-54,16-265,46-287,40
	C9797,16248,9756,16244,9708,16240z M9842,16004c78-54,143-184,169-338c15-86,6-308-16-428c-63-344-296-878-558-1276
	c-239-364-375-522-906-1052c-312-312-450-443-516-489c-49-35-111-81-136-102c-26-22-49-39-52-39c-10,0,107,498,189,805
	c182,677,390,1274,605,1738c217,469,469,821,724,1015c80,61,264,154,345,176C9771,16035,9799,16033,9842,16004z M17555,15819
	c41-152,42-431,4-739c-75-615-418-1637-941-2810c-199-445-508-1069-530-1070c-4,0-5,24-2,53c2,28,9,124,15,212
	c49,746,269,1791,552,2630c198,583,483,1211,712,1565c64,99,164,225,172,217C17539,15874,17548,15848,17555,15819z M11018,13719
	c49-50,105-162,134-267c18-63,21-105,22-232c0-135-4-169-27-265c-15-60-31-116-36-123c-6-10-24-6-79,18c-227,97-344,222-371,400
	c-30,191,73,397,244,489C10960,13768,10971,13766,11018,13719z M15275,12486c94-30,186-82,256-146l50-45l-20-102
	c-22-114-75-476-90-623c-45-414-41-1000,9-1294l9-59l-66-86c-93-119-253-282-348-354c-84-63-186-117-221-117c-60,0-181,122-248,249
	c-70,135-151,419-186,651c-45,308-25,663,55,989c108,441,267,767,437,897C15017,12525,15116,12536,15275,12486z M18198,11967
	c66-109,95-322,73-532c-50-461-277-925-698-1430c-18-22-35-37-38-34c-2,3-8,81-11,175c-7,180,7,426,32,574c68,392,215,793,385,1049
	c55,84,201,251,218,251C18163,12020,18180,11996,18198,11967z M9220,10804c0-3-16-69-36-147c-151-607-411-1266-618-1567
	c-56-81-157-195-190-212c-45-24-160,149-206,312c-33,114-38,316-11,438c79,357,291,615,860,1043C9190,10800,9220,10819,9220,10804z
	 M12933,13506c-115-36-193-136-193-246c0-65,30-100,134-152c68-35,93-42,157-46c204-12,343,125,295,291c-20,70-81,129-157,151
	C13106,13523,12991,13524,12933,13506z"/>
</svg>
