<?xml version="1.0" encoding="utf-8"?>
<!-- Generator: Adobe Illustrator 27.0.0, SVG Export Plug-In . SVG Version: 6.00 Build 0)  -->
<svg version="1.1" id="Layer_1" xmlns="http://www.w3.org/2000/svg" xmlns:xlink="http://www.w3.org/1999/xlink" x="0px" y="0px"
	 viewBox="0 0 347.2 360" style="enable-background:new 0 0 347.2 360;" xml:space="preserve">
<g transform="translate(0.000000,2500.000000) scale(0.100000,-0.100000)">
	<path d="M908.4,24998.4c-14.8-2.9-31.8-9.8-44.8-18.3c-24.4-16.1-67.5-64.1-104.5-115.8c-49.8-69.8-85.7-131.1-136.6-233.2
		c-54.1-108.3-94.6-208-151.3-371.7c-2.6-7.4-5.1-14.1-5.6-14.7s-11.7-4.1-24.7-7.9c-122-35.4-244.4-112.2-317.5-199.3
		c-64.1-76.3-104.8-166.1-119.9-265c-2.9-18-3.5-28.2-3.5-56.8c0.2-39.2,2.4-57.4,11.4-84.9c21-65.9,54.1-102.8,102.1-114.3
		c12-2.7,16.8-3,38.6-2.6c22.9,0.6,26.2,1.1,39.4,5.5c67.1,22.1,133.9,114.9,190.8,265.3c30,79.3,48.2,135.2,134.6,415.9
		c2.3,7.7,2.7,8.2,10,10.3c26.2,7.6,85.7,18.5,123.4,22.7c25.1,2.7,66.6,3.2,83.3,0.8c11.8-1.7,42.4-8.8,45.1-10.4
		c1.2-0.6,0-12-3.5-35c-22.9-149.9-32.3-280.7-28.2-394.3c3.3-95.8,10.6-158.5,24.4-213.7c19.1-76,42.5-103.6,88.1-103.7
		c27.7,0,43.6,8.9,53,30.3c17.6,39.7,50.7,142.3,76.3,235.8l5.8,21.3l7.3-13.6c8.9-17,15.1-25.4,26.5-36.2
		c15.7-15,29.8-23,51.5-29.5c11.8-3.6,16.5-4.2,41.6-4.8c22.3-0.5,30.9-0.2,40.4,1.8c38,7.7,68.4,24.8,102.5,57.2l14.1,13.5l0.8-5
		c0.5-2.7,2.3-14.5,3.9-26.2c4.5-30.1,12.7-65.9,20.4-89c19.2-58.6,41.9-86,79.5-96.3c14.2-3.9,45.9-4.4,59.8-0.9
		c34.1,8.6,58.3,35.4,89.3,98.4c32.6,66,54.2,122.6,99.2,259.7c15.1,46.2,30.1,91.2,33.2,99.9l5.5,15.9l1.1-34.8
		c4.7-167.8,34.1-297.7,84.3-372.6c16.2-24.4,36.8-39.8,58.9-44.4c19.8-4.1,50-1.2,64.5,6.2c19.8,10.1,40.7,41.5,57.5,86.2
		c12.6,33.8,39.4,137.5,66.8,258c18,79.2,33.9,143.8,45,182.5c5,17.9,9.4,32.9,9.7,33.2c0.3,0.3,5-1.5,10.3-4.1
		c5.5-2.6,15.4-6.4,22.4-8.2c11.4-3.2,15.7-3.5,45.9-3.3c31,0,34.2,0.3,47.7,3.9c7.9,2.1,15.4,4.4,16.8,5c1.8,0.6-0.5-7.6-8.5-31.6
		c-11.7-34.5-26.6-86.5-33.9-117.5c-22.1-93.9-27-154.8-18.2-226.4c5.1-41.6,14.7-73.6,31.9-106.8c16.2-31,30-47.4,47.1-55.7
		c13.6-6.7,23.3-8.3,45-7.6c17,0.5,20,1.1,28.5,4.8c15.3,7.1,22.1,15.9,39.7,51.5c16.8,34.1,32.7,71.5,51.9,122.2
		c7.1,18.6,13.8,36,14.7,38.5c1.8,4.5,2,4.4,6.8-9.8c22.1-65.1,65-102.1,130.7-112.8c22-3.6,68.4-2.6,91.9,2.1
		c38,7.7,88.9,29.4,134.8,57.4c16.5,10.1,19.8,11.7,20.7,9.5c0.6-1.4,3.2-9.2,5.8-17.6c17.6-56.5,55.7-113.7,91.3-136.7
		c13.9-9.1,30.4-15.7,47.8-19.2c18.2-3.8,59.8-2.6,75.7,2.1c28,8.2,48.3,21.2,73.1,46.8c33.2,34.4,72.7,87.2,115.5,155.4
		c42.2,67.1,95.7,170.8,121.7,236.1c8.3,20.7,22.4,63.9,23.9,72.7c1.5,10.1-7,15.1-26,15.1c-12.4,0-20.3-2.3-24.5-7
		c-1.7-1.8-7.7-14.2-13.3-27.6c-33.5-78.7-107.8-211.1-167.6-298.1c-59.5-86.5-113.4-148.1-134.2-153.4
		c-8.5-2.1-29.5,26.2-48.8,65.4c-12.3,25-19.7,45-26.5,71.2c-5,19.1-10.9,51.3-12,65.1l-0.9,10.6l10.8,9.1
		c16.7,13.9,69.8,67.2,90.1,90.1c81,91.8,134.9,179.3,158.7,257.7c19.5,65,10.8,105.8-27,123.7c-17.1,8.2-26.3,9.8-53.9,9.8
		c-22.1-0.2-26.8-0.6-40.1-4.1c-28.2-7.6-53.8-22.4-84.5-49.1c-47.2-41.2-86.3-94.2-114-154.9c-28.6-62.7-48.8-136.6-55.3-202
		c-1.7-17.4-1.1-73.1,1.1-93.3l0.8-8.3l-20.1-13c-50-32.4-103.4-58.4-140.5-68.3c-15.4-4.1-33.9-4.4-40.9-0.6
		c-25.1,13.5-47.5,50.9-57.4,96.5c-23.6,109.2,1.1,257.3,56.9,341.9c9.5,14.2,23.9,30.3,31.6,35.1l5.1,3.2l8.6-5
		c6.1-3.3,17.4-13.5,36.2-32.4c25.7-25.9,27.9-27.7,35.3-29.5c9.2-2.1,19.8-0.9,24.7,2.9l3.3,2.9l-8.8,19.8
		c-15.1,34.1-27.6,51.5-44.7,62.8c-29.8,19.8-80.6,22.9-120.7,7c-19.8-8-32.1-16.4-50.7-34.8c-37.7-37.6-65.7-91.6-83.7-162.2
		c-5.9-23.2-12.3-59.8-14.4-83.1c-1.4-14.4-2.6-18.8-12.7-45.4c-25.7-67.1-53.9-135.2-76.8-185.5c-13.6-29.8-31.5-65.9-32.6-65.9
		c-0.8,0-5.8,16.5-9.8,33c-13.9,56.2-18.2,132.5-11.2,201.7c4.2,41.6,17.4,114,33.2,182.5c17.6,76.3,21.2,99.8,17,109.9
		c-5.1,12.6-21.2,18.8-45.6,17.7c-18.5-0.8-22.6-2.4-46.9-18.6c-19.8-13.2-39.2-22.3-55.3-25.9c-21-4.7-32.4-1.1-55.7,17.7
		c-7.3,6.1-16.4,12.3-19.8,13.8c-15.6,7-42.9,6.5-55.7-1.1c-9.7-5.8-11.8-11.5-19.4-53.8c-21.2-117.7-67.4-307.1-97.4-399
		c-12.3-37.6-19.5-56-30.1-76.5c-8.2-15.9-22.1-36.3-24.7-36.3c-3.5,0-23.5,57.2-33.5,96c-25.1,97.4-36.2,181.9-47.7,363.6
		c-5.1,80.9-6.8,94.8-12.7,106.4c-3.6,7.1-6.8,10-16.1,14.2c-6.7,3-10,3.5-27.3,3.5c-18.8,0-20.1-0.2-28.8-4.5
		c-11.7-5.9-13.5-9.5-23.3-46.9c-7.9-30.1-12.1-44.5-43-145.4c-44.1-143.8-68.3-209-108.6-290.7c-27.3-55.6-47.4-87.8-68.6-110.5
		l-9.8-10.6l-4.7,10.1c-19.8,43.5-34.1,146.1-38.8,280.7l-0.8,22.9l13.5,22.6c33.8,56.9,86.3,157.8,127.2,244.7
		c81.2,172.6,137.6,326.3,155.2,422.2c5.8,31.5,7.4,53.5,6.5,82.4c-2.1,66.5-23.2,93.1-73.4,93.3c-54.8,0-92.5-31.6-147.2-123.4
		c-42.7-71.8-78.9-156-107.7-250.6c-8.2-26.8-27.9-98-29.5-106.8c-0.5-2.9-1.2-5.3-1.5-5.3s-3.8,2.1-7.7,4.5
		c-29.5,18.8-89.3,17.4-135.7-3c-63.4-28-125.5-107.2-168.1-215.2c-24.5-61.9-36.9-113.6-40.4-167.9c-1.2-19.5-1.8-22.4-14.4-64.4
		c-21.8-73.6-35.1-116-51.5-165c-18.6-55.9-35.9-101.5-37.2-98.7c-1.4,2.4-7,53.5-8.9,81.3c-4.5,65.9-6.1,197-3,262
		c5.5,113.4,18,223.6,41.8,365.7c15.9,94.6,33,172.9,74,336.9c37.1,148.5,47.7,207.7,47.7,266.6c0,84-26.5,121.3-87.8,123.4
		C925.5,25000.2,915,24999.6,908.4,24998.4z M925.9,24926.6c2.3-17.1,0.9-51.8-3.2-81.3c-6.8-48-19.8-104-52.8-225.2
		c-43-158.4-65.4-254.1-80.6-343.4c-1.8-11.2-3.5-20.6-3.5-20.7c-0.2-0.2-7.6,1.7-16.8,4.1c-28.8,7.4-51.3,9.7-96.2,9.7
		c-41.5,0-59.5-1.2-107.4-7.6c-15.3-2.1-28.2-3.5-28.5-3.2c-1.5,1.5,35.3,102.2,63.6,174.4c81,205.9,189.4,395.8,278.9,488.2
		c9.1,9.5,21.8,21.4,28,26.3l11.4,9.1l2.6-8.6C923,24943.7,925,24933.9,925.9,24926.6z M1622.8,24707.2
		c19.1-36.5,18.9-100.1-0.5-179.1c-19.4-78.3-60.1-185.6-115.2-303.7c-36.2-77.4-114.9-227.1-116.1-220.9c-1.8,8,12,97.1,25.4,165.5
		c28.6,144.5,61.5,265.1,96.2,353.1c25.1,63.7,60.3,134.9,84.5,171.1c8.5,12.4,17.7,24.2,19.4,24.2
		C1617,24717.4,1619.7,24712.8,1622.8,24707.2z M3075.3,24265.4c12.3-9.4,18.9-34.4,16.1-60.3c-7.3-66.9-50.4-147.8-125.4-234.9
		c-20.3-23.8-70.7-76-78.3-81.5l-4.5-3.3l1.1,13.6c5.1,64.8,28.6,150.5,58.6,213.7c22.7,48.2,58.1,97.7,93.9,131.3
		c10.4,9.8,30.6,25.1,33,25.1C3070,24269.2,3072.6,24267.5,3075.3,24265.4z M1284.6,24254.5c7.3-4.4,25.3-22,28.6-28.2
		c1.8-3.5,1.1-8.8-8-51.3c-12.3-57.8-17.9-87.8-23.6-128.4c-8.6-60.3-9.5-75.4-10-151.9l-0.3-70.9l-9.5-10.9
		c-41-46.8-82.4-79.9-112.7-90.4c-13.3-4.5-15-4.2-24.8,5.8c-27.6,27.7-43.3,95.8-38.3,166.1c3.2,43.9,12.3,88.7,27.6,136.3
		c38.2,118.3,98.4,210.6,147.5,226.4C1271.5,24260.4,1275.1,24259.9,1284.6,24254.5z M419.3,24095.7
		c-95.1-307.2-135.8-404.7-203.4-485.3c-15.4-18.3-37.1-38.8-50.7-47.8l-10.6-7.1l-6.5,7.3c-13.3,15.1-27.3,47.5-34.5,79.8
		c-19.4,87.1,7.7,214,67.1,313.7c23.3,39.2,44.7,66.6,75.9,98.1c33.8,33.8,77.1,67.2,121.9,93.7c15.4,9.2,66.2,35.1,66.9,34.2
		C445.6,24182,434,24143,419.3,24095.7z M2287.8,24428c-23.2-2.9-39.1-14.2-49.2-35.3c-9.4-19.5-11.2-29.7-9.2-52.4
		c2.7-30.4,3-31.5,6.2-37.9c10.3-20.1,55-24.7,79-8c8.3,5.6,19.8,22.4,25.4,36.8c11.1,28.8,12,67.5,2.1,82.7
		C2335,24424.7,2311,24431,2287.8,24428z"/>
	<path d="M1800.2,23429.7c-4.1-1.2-8.5-3.5-9.8-5.1c-1.4-1.7-4.2-9.7-6.5-18c-15.9-59.1-16.7-139-4.1-425.2
		c1.8-38.3,4.1-84.6,5.3-103c1.2-18.3,2.3-34.7,2.3-36.3c-0.2-7-25.9,59.1-76.5,195.3c-54.8,148.2-78,205.5-102.4,253.6
		c-28.3,56.2-44.8,71.9-76.9,73.9c-29.5,1.7-47.7-8.6-54.7-30.9c-10.4-33.9-6.7-124.8,12.9-308c17.3-161.4,25.1-215.6,35.9-244.4
		c4.2-11.4,8.9-14.5,22.1-14.5c10.9,0,17.7,2.9,19.1,7.9c1.5,5.8,1.1,165.5-0.6,211.1c-2.1,57.1-13,235.3-17.4,282.2l-0.8,8.3
		l4.7-9.8c10.8-22.9,22.9-59.2,73.9-220.6c45.4-144,71.8-205.6,112.2-262.7c12.3-17.4,30.1-35.6,40.1-40.7
		c23.8-12.6,58-8.6,67.2,7.7c6.4,11.2,7.9,25.7,8.8,79.3c0.9,55.4-0.3,90.7-7.9,240.1c-2.9,56.2-6.4,122.3-7.6,146.9
		c-3.5,66.8-4.5,146-2.4,177.3c0.9,14.7,1.4,27.7,0.9,28.9C1835.5,23429.6,1813.7,23433.5,1800.2,23429.7z M1299.6,23416.5
		c-19.5-2.9-34.8-11.1-45.3-24.4c-21.7-27.1-49.8-100.7-69.7-181.2c-14.8-60.9-28.6-144.2-34.2-208.4c-1.1-11.2-1.5-12.4-7-18
		c-7-7.3-7.3-10.4-1.2-16.1l4.4-4.1l-2.1-30.1c-5.3-74.7-6.2-138.5-2.1-146.4c2.3-4.2,10.8-7.1,20.4-7.1c10.3,0,17.9,3.3,20.1,8.8
		c0.9,2.3,5.8,29.4,10.8,60.1c8.2,50.6,19.5,116.1,20.3,116.9c1.1,1.2,112.7,33.8,115.7,33.8c0.8,0,2.4-13.5,3.9-29.8
		c7.9-88.9,18.8-165.3,27.6-192.9c4.8-15.4,13.9-26,25.3-29.4c16.1-4.7,40.6-1.8,47.7,5.8c3.3,3.6,3.5,3.9,1.8,23.9
		c-2.7,35.1-7.4,122.8-12.1,225.5c-13.5,294.4-22.9,368.2-50.7,396C1358.4,23414.3,1329.6,23420.9,1299.6,23416.5z M1306.4,23285.7
		c3.5-32.1,20.9-242.9,20.3-247.3c-0.5-3.9-1.2-4.1-49.1-14.8c-26.6-5.9-50-11.4-51.8-11.8c-1.8-0.6-3.3-0.9-3.3-0.6
		c0,0.5,3,15.6,6.7,33.9c19.4,95.8,40.3,175.2,61.5,233c8.9,24.2,12.3,32.3,13,30.3C1303.9,23307.7,1305.2,23297.4,1306.4,23285.7z
		 M1969,23403.5c-9.1-0.8-21.8-3.8-26.2-6.1c-9.7-4.8-13-13-7.9-18.6c2-2.3,2.1-4.2,0.9-12.3c-0.9-5.3-2.6-25-3.8-43.8
		c-8.3-122.8-8.8-208.5-1.7-319c5.6-84.9,9.8-121.9,19.8-172.2c10.9-54.7,21-75.4,42.5-86.9c15.3-8,25.4-9.8,51.9-8.9
		c27.4,0.8,37.9,3.5,65.9,17c48.9,23.5,87.1,58.9,123.7,114.3c30.1,45.6,51,98.3,58.3,146.9c3.8,25.4,3.8,88.4,0,111.1
		c-9.2,54.7-34.2,113.6-67.2,158.1c-17.1,23.2-50,54.4-72.8,69c-26.3,17.1-74.5,37.4-104.6,44.2c-8.8,2-27,4.5-40.1,5.9
		C1984.5,23404.6,1980.3,23404.6,1969,23403.5z M2017.4,23355.1c16.5-4.7,43.3-15.6,57.5-23.6c23.3-12.7,52.5-37.2,71.6-60.1
		c35.1-41.8,63.3-98.6,73.9-148.5c10-47.5,6.7-106.9-8.6-153.4c-16.8-50.9-56.3-109.5-99.6-148.1c-22-19.7-55.1-41.3-58.4-38
		c-3,3-9.4,54.7-17.3,139.8c-2.9,32.1-7.4,79-9.8,104.5c-5.8,58.8-10.8,117-16.7,190.8c-4.5,57.4-10.4,114-13.6,130.1
		c-0.8,4.4-1.5,9.1-1.5,10.1C1994.8,23361,1998.9,23360.4,2017.4,23355.1z"/>
	<path d="M369,22842.2c-28-5.3-58.3-20.9-86.6-44.4c-23.8-20-62.7-61-82.8-87.5c-40.1-53-74.2-119.9-87.7-172.6
		c-6.2-24.4-7-36.6-2.1-41c4.5-4.1,20.1-4.7,27.1-1.1c4.5,2.3,5.9,4.4,8.9,13.3c17.6,51.5,44.2,102.2,79.2,151.1
		c40.4,56.3,105.2,117,147.8,138.7c13.5,6.8,13.6,6.8,17.1,0c7.6-14.8,10.1-46.2,7.6-89.9c-3.2-54.7-7.9-89.5-29.7-221.1
		c-42.2-255.4-63.3-427.6-70.6-576.9c-2.3-47.5-0.9-149.1,2.3-180.2c5.9-54.5,14.2-92.1,28.9-130.2c25.4-66.2,60.1-105.7,103-117.5
		c9.4-2.6,16.4-3.3,30.4-3.3c36.6,0,56.3,9.4,74.3,35.6c24.7,35.7,44.1,89.8,92.8,258.6c36.9,127.9,60.3,203.8,91.2,296
		c16.4,49.2,50.7,147,52.8,150.7c0.9,1.5,1.1,0.2,0.6-3.8c-3.6-28.9-5-149.4-2.3-196.8c4.4-75.7,16.2-174.9,29.5-247.6
		c25.6-139.9,74.2-247.6,131.3-291.2c24.5-18.6,46.9-25.9,79.9-25.9c54.7,0.2,79.5,20.1,93.9,75.3c12,45.4,17.4,94.8,28.8,255.4
		c19.1,270.9,71.6,734.1,96.6,851.7c2.9,14.2,5.5,28.5,5.5,31.8c0.2,5.8-0.3,6.2-6.7,9.5c-11.2,5.6-33.5,4.2-41.5-2.6
		c-4.2-3.6-12.1-20.4-17.4-37.2c-21.8-68.1-55.7-280.3-85.6-536c-10.4-89.5-23.9-223.8-35.7-356.6c-10-112.8-19.4-173.4-32.7-210.8
		c-2.1-6.1-4.5-11.7-5.1-12.3c-2-2.3-22.1,29.8-34.7,55.6c-37.2,75.7-60,161.3-79.5,300c-22,154.3-25.1,254.7-14.5,442.9
		c7.3,128.1,7.4,134.6,1.1,144.2c-1.8,2.6-6.7,6.5-10.9,8.6c-7,3.6-9.1,3.9-27.3,3.9s-20.4-0.3-27.3-3.8c-10-5.1-12-9.5-18.2-40.1
		c-8.9-43.3-22.9-86.5-77.5-239.2c-59.2-165.2-92.1-259.1-130.7-373.1c-47.8-141.6-61.2-177.8-81-221.1
		c-13.6-29.8-33.6-63.7-41.2-70.1c-3.5-2.7-7.9,3.5-19.4,26.8c-20.1,41-32.7,90.1-39.7,154.4c-2.3,21.7-2.7,38.6-2.7,108.3
		c0,82.8,0.6,98.6,6.8,175.6c9.5,117,27.3,260.9,57.5,465.6c20.1,136.1,24.2,172.9,25.3,230.9c0.9,46.3-0.3,65.4-5.8,86.9
		c-8.2,32.1-27.6,51.9-59.7,60.7C420.3,22844,383.4,22844.9,369,22842.2z M2107.1,22627.8c-15.9-4.2-28.2-11.4-41.6-24.1
		c-30.6-29.1-54.1-82.1-78.3-176.6c-14.2-55.1-23.2-106.4-28.2-163.5c-3.8-42.2-3.8-136.4,0-183.7l2.9-35.4l-67.7-67.5
		c-61.3-61.5-67.8-67.4-69.7-65c-1.2,1.5-17.4,20.9-36,43.2c-76.8,91.3-88.1,107.7-100.4,144.6c-15.6,46.6-6.4,86.5,23.2,101.1
		c4.7,2.3,7.9,2.9,11.7,2.3c8.8-1.7,28.2-12.4,41.3-22.9c20.3-16.2,32.6-33.9,42.1-61.3c6.7-19.2,9.8-22.7,20.3-22.7
		c9.2,0,14.4,2,16.7,6.2c3,5.5,3.5,25.3,1.1,39.2c-4.2,25-13.8,42.9-32.9,62.1c-27,26.8-56.2,38.2-99.2,38.3
		c-32.9,0.3-55.6-5-83.1-19.1c-27.9-14.2-45-35.7-52.5-66c-2.7-10.6-3.2-15.9-2.6-31c0.8-17,0.5-18.8-2.7-24.4
		c-5.8-10.3-16.5-39.4-27-72.7c-22.7-73.1-42.7-152.9-84.8-339.9c-25.9-115.5-25.3-112.8-26.8-110.4c-0.6,1.2-4.2,11.4-8.2,22.6
		c-33.6,98.1-43.5,208-39.8,448.2c1.4,96.3,1.1,115.1-2.6,123.7c-3.6,8.8-17.7,12.7-33.5,9.5c-12.1-2.4-20.7-11.4-26.8-27.3
		c-29.7-77.7-48.2-289.2-36.6-419.9c8.9-102.1,38.3-187,78.6-227.6c19.1-19.2,38.2-26.3,70.6-26.3c34.1,0,54.5,8.6,65.9,28
		c10.3,17.7,14.1,34.1,50.6,224.9c22.4,116.9,36.8,187.6,49.5,243.8c5.3,23.6,9.7,43.6,9.7,44.2c0,2.9,2.9,0.6,7.6-5.9
		c8.8-12.4,40-51,80.3-98.9c21.4-25.4,44.4-53.1,51.3-61.8l12.4-15.4l-15.4-18.5c-70.1-83.6-114.5-167.5-127.3-240.5
		c-1.1-6.7-2-21.7-1.8-36.3c0.2-20.3,0.8-27.1,3.3-36.6c7.6-28,15.7-42.4,35.1-61.9c33.3-33.3,79.6-48.8,139.3-46.3
		c34.5,1.5,59.2,7.7,86.9,22c41.5,21.4,69.7,54.5,84.9,100.7c16.7,50.3,17.1,100.4,1.2,156.3c-13,45.9-46.3,107.5-88.3,163.4
		l-10.9,14.5l42.4,43.5c50.1,51.5,59.1,60.3,60,59.4c0.3-0.3,2.1-10.8,3.9-23.3c18.9-132,55.7-283.3,82.7-339.6
		c8.3-17.3,15.3-25.3,26.8-30.7c24.5-11.5,68.6-8.3,81.5,5.9l3.9,4.4l0.9,41.5c1.1,54.2,5,82.4,18.6,136.1
		c24.5,96,63,191.7,102.2,254.1c9.4,15.1,32.9,47.2,34.4,47.2c1.7,0-1.2-50.7-7.3-127.2c-8.5-108.6-10-142.2-7.9-176.3
		c6.4-100.5,34.4-151.1,92.7-167c13.9-3.8,52.7-3.8,66.6,0.2c13.8,3.8,30.3,11.7,42.1,20.1c12.9,9.2,40.4,35.9,54.1,52.5
		c5.9,7,10.9,12.9,11.4,12.9s3.5-3.8,6.8-8.3c3.3-4.7,11.1-13.5,17-19.7c27.4-27.7,56.5-40,95.2-40c21.4,0,36.3,3.2,53,11.4
		c11.5,5.6,15.6,8.6,26.5,20c17.6,18.3,33.5,42.9,71.5,111c50.4,90.4,140.4,267.9,171.1,337.5l3.6,8.2l13.6-26.3
		c7.6-14.5,23.3-44.4,35.1-66.3c32.4-60.1,63.9-124.3,71.3-145.5l1.8-5.3l-14.1-13.5c-28.2-26.8-85.9-85.4-105.2-106.9
		c-75.6-83.9-97.7-120.2-99.9-165c-2.3-42.7,17.3-75.7,56.2-94.6c25.7-12.6,49.8-16.8,89-15.4c27.7,0.9,44.4,3.5,65.9,10.3
		c83.6,26.8,141.7,103.9,151.6,201.1c5,48.6-3.3,105.4-24.8,168.2l-7,20.4l13.3,12.6c18.5,17.6,55.4,50.1,76.2,67.1
		c40.6,33.3,71.8,54.5,104.2,71c20.3,10.3,24.5,14.2,21.8,20.4c-0.9,2-4.7,5.1-8.2,7.1c-5.8,3-8.6,3.5-25.4,3.5
		c-18.6,0-19.2-0.2-37.1-6.7c-44.7-16.5-96.3-47.5-154.4-93l-18.2-14.1l-16.8,34.1c-9.2,18.8-27.6,54.4-40.7,78.9
		c-53.9,100.7-75,145.8-82.5,176.1c-6.7,27.1-6.4,59.4,0.8,75c3.6,7.9,4.1,8.2,8.3,7.3c15-2.9,47.5-22.9,70.6-43.2
		c29.7-25.9,51-55.6,75.7-105.4c8.8-17.4,17.3-33.3,19.1-35.1c8.2-8.8,31.6-8.3,38.5,0.8c3,3.8,2.6,23.5-0.8,41
		c-6.2,31.9-21,66.6-40,93.6c-12.6,17.9-42.2,47.4-59.4,58.9c-26.3,18-58,31.2-86.3,36.2c-17.6,3-47.8,3.2-63.6,0.2
		c-49.1-9.5-72.5-33.6-78.1-79.9c-3-25.3,2.3-58.4,14.5-91.3l5.8-15.1l-3-5.3c-1.7-2.9-18.2-33.9-36.8-68.9
		c-103.1-194.4-184.3-339.3-218.2-389.1c-12.4-18.3-26.6-35.6-29.2-35.6c-2.6,0-17,20.1-26.6,37.7c-10,17.6-21,42.9-27.3,62.1
		l-4.8,14.5l16.8,26.8c35.9,57.1,72.5,125.8,93.7,176.1c43.6,102.8,54.4,197.5,28.5,251.4c-9.2,19.4-22,30.4-44.1,38.2
		c-11.2,3.8-13.9,4.1-35.6,4.2c-26.3,0-35.4-1.8-54.2-10.6c-30.1-14.2-57.2-46.2-83.6-99.2c-53.3-106.4-69.3-238.3-43.6-356.6
		c3.6-17,13.2-49.2,18.6-63c1.2-3.3-27.1-38-53-64.7c-19.2-20-41.9-39.7-45.6-39.7c-4.5,0-16.4,27.6-21.8,50.7
		c-10.9,47.1-12.3,88.4-6.5,206.7c1.4,27.9,2.6,76.9,2.6,109c0.2,50.4-0.2,60.1-2.6,71.9c-7.7,38.6-27.4,54.1-68.4,53.9
		c-33.5-0.2-52.4-10.4-77.7-42.2c-50.4-63.4-99.8-162.2-143.2-286.5l-8.2-23.5l-1.5,6.1c-6.2,23.6-22.6,108.9-30.6,159
		c-3.9,25.6-16.7,121.7-16.7,126.7c0,1.1,6.2,9.1,13.8,17.9c93.9,108.4,150.5,206.7,167.2,290c14.2,71,6.2,126.1-28.2,194.9
		c-20.7,41.5-35.4,56.3-62.7,63.3C2145,22631.7,2122.4,22631.7,2107.1,22627.8z M2142.9,22579c12.3-18,28.6-54.2,35-76.9
		c15.6-56.9,7.4-124.5-23.6-193.4c-16.5-36.8-49.7-91.6-79.3-131.4l-11.2-15.1l-0.5,40.1c-0.9,77.2,5,139.3,21,221.1
		c10.9,55,24.7,105.1,36.2,131.9c5.6,12.9,15.3,30.1,17,30.1C2138,22585.4,2140.5,22582.5,2142.9,22579z M2718.9,22202.2
		c18.6-37.2,19.1-93.6,1.1-157.8c-12.6-44.7-41-106.8-75.7-165.5l-14.2-24.1l-1.1,7.6c-2.4,16.4-3.2,80.6-1.4,104.6
		c6.5,83.7,35.9,179.4,71.8,233c7.9,11.8,10.3,14.5,12.3,13.9C2712.5,22213.7,2715.7,22208.4,2718.9,22202.2z M1814.9,21765.2
		c28-45.6,43.3-78.7,52.7-114.6c6.7-26,8.2-37.6,8.2-64.5c0-53.1-13.8-92.4-42.2-120.5c-23-22.9-46.3-30.7-70-23.6
		c-12.3,3.8-26,11.8-35.1,20.4c-13,12.6-24.5,34.2-29.1,54.8c-3.3,14.7-2.4,49.8,1.5,68.7c9.5,45.3,32.3,95.1,67.2,147.8
		c12.3,18.3,34.1,47.7,35.6,47.7C1804.3,21781.4,1809.3,21774.1,1814.9,21765.2z M3175.7,21753.8c7.3-31.2,8.3-41.6,8.3-76.9
		c0-29.5-0.5-36-3.3-49.5c-9.4-42.7-27-75.7-54.1-101.6c-21.2-20.1-40.9-30.4-60.6-31.8c-10-0.6-11.1-0.3-18.2,4.4
		c-16.2,11.1-24.2,28.9-24.2,54.4c0.2,32.4,12.9,58.6,52.7,108.3c25.1,31.3,92.2,106.4,95.2,106.8
		C3172.1,21767.7,3174,21761.4,3175.7,21753.8z M1353.5,22420.2c-16.5-1.5-31.6-8.9-40.7-19.7c-5.9-7-13.9-23.6-16.8-34.8
		c-3.5-13-2.4-32.1,2.3-44.5c4.4-11.5,14.5-22,25-25.7c4.2-1.5,9.4-4.1,11.7-5.6c7.3-5,16.4-7.3,29.4-7.3
		c28.9,0,42.1,12.1,51.8,47.7c1.8,6.4,2.4,15.4,2.4,31c0.2,24.5-2.1,33.2-11.2,44.2C1397.9,22416.9,1377.9,22422.3,1353.5,22420.2z"
		/>
</g>
</svg>
