<?xml version="1.0" encoding="utf-8"?>
<!-- Generator: Adobe Illustrator 27.0.0, SVG Export Plug-In . SVG Version: 6.00 Build 0)  -->
<svg version="1.1" id="Layer_1" xmlns="http://www.w3.org/2000/svg" xmlns:xlink="http://www.w3.org/1999/xlink" x="0px" y="0px"
	 viewBox="0 0 673 360" style="enable-background:new 0 0 673 360;" xml:space="preserve">
<style type="text/css">
	.st0{fill:#231F20;}
</style>
<path transform="translate(0.000000,2500.000000) scale(0.100000,-0.100000)" class="st0" d="M352.3,24997.6
	c-45.4-4.6-92-17.7-129-35.8c-26.6-12.7-39.3-22.3-67.4-50.8c-30.4-30-37.7-40.4-56.6-77.8c-33.9-66.2-55.1-144.4-72-261
	c-20-139-27.3-282.2-27.3-539c0-194,4.2-307.2,23.1-652.6c13.9-253.3,25.4-477.8,30.8-602.6c2.3-50.8,6.5-140.9,9.6-200.2
	s7.3-149.4,9.6-200.2c21.2-479.3,39.7-616,100.5-740.4c33.5-68.1,83.5-130.1,132.1-163.2c47.4-32.7,114.7-57.4,189-69.3
	c40-6.2,182.5-6.2,223.3,0.4c95.5,15,161.7,33.9,366.2,104.7c239.5,82.8,339.6,123.6,584.8,237.6
	c274.9,127.8,381.9,184.8,551.3,293.8c88.6,57,364.2,250.6,464.3,325.7l37.3,28.5l24.3-13.5c53.1-29.6,147.1-61.2,226.8-75.5
	c85.5-15.4,150.2-20.4,253.3-19.2c53.9,0.8,116.3,1.2,138.6,1.2c22.3,0,84.7-0.4,138.6-1.2c103.2-1.2,167.9,3.8,253.3,19.2
	c79.7,14.2,173.6,45.8,226.8,75.5l24.3,13.5l37.3-28.5c100.1-75.1,375.8-268.7,464.3-325.7c169.4-109,276.4-165.9,551.3-293.8
	c245.3-114,345.4-154.8,584.8-237.6c204.4-70.8,270.7-89.7,366.2-104.7c40.8-6.5,183.3-6.5,223.3-0.4c74.3,11.9,141.7,36.6,189,69.3
	c48.5,33.1,98.6,95.1,132.1,163.2c60.8,124.4,79.3,261,100.5,740.4c2.3,50.8,6.5,140.9,9.6,200.2s7.3,149.4,9.6,200.2
	c5.4,124.7,16.9,349.2,30.8,602.6c18.9,345.4,23.1,458.6,23.1,652.6c0,256.8-7.3,400-27.3,539c-16.9,116.7-38.1,194.8-72,261
	c-18.9,37.3-26.2,47.7-56.6,77.8c-28.1,28.5-40.8,38.1-67.4,50.8c-95.9,47-223.3,50.8-361.1,10.8
	c-113.6-32.7-445.5-176.7-697.7-302.6c-296.1-148.2-569.4-306.9-870.1-505.9c-289.1-191-435.1-302.6-626.8-478.6l-43.1-40
	l-53.1,13.5c-57.8,15-141.7,29.6-227.9,40c-47,5.8-88.2,6.9-261.8,6.9c-173.6,0-214.8-1.2-261.8-6.9c-86.2-10.4-170.2-25-227.9-40
	l-53.1-13.5l-43.1,40c-191.7,176-337.7,287.6-626.8,478.6c-437.4,289.1-855.5,515.9-1289.8,700c-215.6,91.2-281.4,114.7-356.9,127.4
	C462,24999.1,391.6,25001.8,352.3,24997.6z"/>
</svg>
