<?xml version="1.0" encoding="utf-8"?>
<!-- Generator: Adobe Illustrator 27.0.0, SVG Export Plug-In . SVG Version: 6.00 Build 0)  -->
<svg version="1.1" id="Layer_1" xmlns="http://www.w3.org/2000/svg" xmlns:xlink="http://www.w3.org/1999/xlink" x="0px" y="0px"
	 viewBox="0 0 440.1 360" style="enable-background:new 0 0 440.1 360;" xml:space="preserve">
<path d="M59.5,0.1C51.6,1.3,43,7.3,36,16.5c-8.4,11.1-16.5,29.9-21.9,51l-1,4l-0.2-5.7c-0.1-3.1-0.3-10.7-0.4-16.8
	c-0.1-6.1-0.4-14.6-0.6-18.9c-0.3-7-0.4-7.9-0.8-8.7c-1.7-3.3-5.8-3.6-8.1-0.6c-1.5,2-2,4.7-2.4,13.8c-1.3,30.6-0.8,64.2,1.5,94.1
	c1.3,16.3,3.7,41.9,4.4,46c0.3,1.9,1.3,4,2.3,5.2c1.2,1.3,3.4,2.3,5.2,2.3c3.5,0,6.2-2,7.2-5.4c0.5-1.7,0.5-2.7-0.3-8.9
	c-0.4-3-0.8-7.4-1-9.8c-0.5-6.1-0.7-23.1-0.3-30.5c0.1-3.1,0.3-5.6,0.3-5.7c0,0,0.6,0.2,1.2,0.5c0.9,0.4,1.5,0.5,3.4,0.5
	c2,0,2.4-0.1,3.7-0.7c0.8-0.4,2.1-1.2,2.9-1.8c2.4-1.8,8.4-8.2,15.2-16.4c2.1-2.6,2.5-2.9,3.7-3.4c0.8-0.3,2.1-0.6,3.2-0.6
	c2.7-0.2,4,0.3,5.8,2.2c2.8,2.8,4.9,8.4,6,16.2c0.6,3.8,0.7,3.4-2.2,5.1c-7.9,4.5-13.4,9-18.5,15.1c-13.1,15.7-16.6,33.5-8.7,45.1
	c1.1,1.6,4,4.3,5.6,5.3c7.2,4.3,17.4,2.2,24.5-5c1.9-1.9,4-4.8,5.5-7.6c5-9,8.4-24.2,9.3-40.7l0.3-5.2l3.3-1.8
	c9.4-5.1,15.6-9,21.1-13.3c2.7-2.1,7.2-6.7,9.1-9.2c0.9-1.2,1.8-2.2,1.9-2.2s2.8,0.5,5.8,1c3,0.6,5.5,1,5.6,1
	c0.5,0-0.3,3.3-3.1,12.4c-3.3,10.8-4.2,14.2-5.6,21.1c-2.1,11.1-1.9,19,0.9,24.6c1.8,3.6,4.4,6.1,7.6,7.2c1.9,0.7,5.3,0.8,7.3,0.2
	c5.9-1.8,10.9-7,16.5-17.1c2-3.6,6.3-12.8,9.6-20.5l2.4-5.6l0.3,2.4c0.5,4.6,1,8.2,1.6,11.2c2.8,15,8.7,27.5,14.8,31.9
	c2.3,1.7,3.6,2.1,6.3,2.1c2.2,0,2.4,0,3.9-0.7c2.2-1,4.1-3,5.5-5.7c1.3-2.7,1.9-4.2,4.1-12.4c4-14.3,5.6-20,5.8-20.2
	c0.1-0.1,0.3,0.5,0.5,1.3c0.4,2,1.7,5.9,2.7,8.1c3.3,6.8,9,11.8,16.1,13.8c2.8,0.8,7.4,1,10.4,0.5c3.6-0.7,7-2.1,10.5-4.5
	c1.8-1.2,3.1-2.3,6.4-5.2l1.4-1.2l1.3,2c1.7,2.7,5.7,6.6,8.1,8.1c2.4,1.5,5.6,2.8,8.4,3.5c3.3,0.8,8.9,1,12.6,0.4
	c6.4-1,13.3-3.8,19.7-8.1l2.9-2l1.1,1.3c5.2,6,10.2,9,15.5,9.3c7.2,0.4,12.8-4,22.5-17.4c6.1-8.5,14.3-22.5,18.1-31.1l0.9-2l3.9,3.8
	c2.1,2.1,5.3,5.1,7,6.7c3.6,3.3,8.1,7.7,8.1,7.9c0,0.1-0.9,0.9-2,1.9c-3.2,2.7-9.5,8.9-11.4,11.4c-3.2,4-5,7.4-6.2,11.7
	c-0.8,3-1,8.3-0.5,11.1c1,5.2,3.7,9.5,7.8,12.6c4.8,3.6,11.2,5.5,16.9,4.9c2.7-0.3,4.4-0.8,7.1-2.1c6.4-3,12-9.4,14.6-16.8
	c3.5-9.8,2-20-4.5-31l-0.5-0.9l2.3-1.5c10.6-6.9,18.8-10.8,26-12.3c1.3-0.3,2.7-0.7,3.1-1c2.9-1.6,4.2-4.8,3.3-8
	c-0.5-1.6-2.4-3.6-4.1-4.1c-2.4-0.8-6.8-0.4-12.4,1.1c-7,1.9-15.5,6.1-24.4,11.9l-3,2l-3.3-3.2c-1.8-1.8-5.3-5.1-7.7-7.3
	c-6-5.5-11.3-11-13.6-14.1c-3.3-4.3-5.4-9.5-5-11.9c0.2-1.1,1-2,2.5-2.7c1.1-0.5,1.5-0.6,4.7-0.6c3.3,0,3.6,0,5.6,0.8
	c5.1,1.8,8.2,5,10.3,11.1c0.3,0.9,0.8,1.9,1.2,2.4c2.2,2.7,6,1.7,7.2-1.9c0.9-2.5,0.7-5.7-0.6-9.5c-3.4-10-13.6-16.7-25.5-16.8
	c-4.7,0-8,0.7-11.4,2.6c-5.2,2.9-8.2,7.4-8.9,13.5c-0.5,4.3,0.6,9.4,3.2,14.4c0.7,1.4,1.3,2.7,1.3,2.8c0,0.1-1.1,2.4-2.6,5
	c-8.3,15.7-18.8,30.9-26.9,39.2c-2.6,2.7-2.5,2.6-4.3,1.3c-1.3-1-4.4-4.3-4.4-4.7c0-0.1,0.7-1,1.7-2c9.9-11.2,17-24.6,18.7-35.5
	c0.5-3.2,0.5-8.7,0-11.5c-1.3-7.7-5.2-13.4-10.9-16.2c-2.9-1.4-4.3-1.7-7.2-1.7c-8.1,0-15,5.3-20.7,15.9c-3.5,6.4-4.8,12.4-4.8,21.2
	c0,9,1,16.3,3.4,23.4l1,3.1l-0.7,0.7c-1.4,1.3-5.6,3.9-8,5c-4.6,2.2-8.6,3.2-12.6,3c-6.4-0.3-10.6-3.9-12.9-11.2l-0.5-1.7l2-3.2
	c7.2-11.3,15.6-28.4,22.8-46.4c9.8-24.3,12.6-38.4,10.2-51c-1.7-8.7-6.2-13.5-12.7-13.5c-6.4,0-12.1,4.3-17.6,13.5
	c-5.5,9-11.6,23.2-15.3,35.2c-1,3.4-4,15.1-4.3,16.7c0,0.3-0.5,0-1.7-1.5c-5.3-6.2-13.2-9.4-20.6-8.1c-8.2,1.4-14.1,7.3-18.2,18.4
	c-0.7,1.8-1,2.2-2.3,3.5c-2.5,2.4-5,6.7-7.7,12.9c-3.4,8.1-10,27.8-13.7,40.9l-0.5,1.6l-0.6-1.4c-1-2.1-2.5-6.9-3.4-10.2
	c-2.7-10.9-3.8-26.7-2.8-42.2c0.3-5.8,0.3-7.1-0.7-9.1c-0.7-1.4-2.1-2.9-3.7-3.6c-1.9-0.9-4.5-0.9-6.3,0c-1.6,0.8-3.2,2.5-4,4.3
	c-0.3,0.7-2.2,5.3-4.2,10.2c-7.4,18.5-15.1,35.2-19.9,43.2c-1.7,2.8-4.2,6.4-5.6,7.9l-0.9,1l-0.2-1.1c-0.2-1.7,0.1-6.3,0.7-10
	c1.1-6.3,2.4-11.5,6.7-25.2c3-9.8,3.6-13.9,2.5-18c-0.6-2.4-1.5-3.9-3.1-5.6c-2.5-2.5-5.5-3.7-12.5-5c-2.4-0.4-4.1-0.9-4.1-1
	c0-0.1,0.2-1.2,0.5-2.4c1-4.7,1-10.5,0-14.8C120.6,61.8,112.7,55,102.8,55c-8.6,0-15.6,4.7-19.6,13.2c-1.7,3.5-2.2,6.1-2.2,10.1
	c0,3,0.1,3.6,0.6,5.4c0.7,2.4,1.5,4,2.8,5.9c2.6,3.6,7.5,7,14.1,9.5c2.7,1,2.7,0.7-0.7,3.7c-2.9,2.4-7.6,5.6-13.4,8.9
	c-3.9,2.2-4.7,2.6-4.8,2.3c-0.1-0.2-0.4-1.7-0.8-3.3C76,97.6,69.9,89.2,61,86.1c-0.8-0.3-1.5-0.6-1.5-0.7c0-0.1,0.5-1,1.1-2
	c13.7-23.2,21.4-52.6,17.9-68.6C76.8,7.3,72.3,2.1,66,0.5C64.2,0,61.2-0.1,59.5,0.1z M62.9,15.5c1.1,1.5,1.6,5.9,1.3,11.2
	c-1,16.7-9.4,39-21.4,56.9c-3.7,5.5-3.8,5.6-7.3,7.9c-4.4,2.9-7.5,5.4-10.8,8.8c-1.9,1.9-2.9,2.7-2.9,2.4c0-1.5,2.2-14.6,3.4-20.2
	c7.5-35,21.1-61.5,34.3-66.9C61.3,14.9,62.5,14.9,62.9,15.5z M285,46c-0.1,4.7-0.3,6.6-1.5,11.2c-2.9,11.7-10.3,30.6-19.5,49.4
	c-2,4.1-2.6,5.2-2.7,4.7c0-0.3,0.1-2.4,0.3-4.7c1.3-14.5,5.8-31.9,11.8-46.1c2.4-5.7,7.2-15.2,9.3-18.3l1.9-2.9l0.2,1
	C285,41,285,43.5,285,46z M105.5,70.7c1.4,0.7,2.7,2.5,3.4,4.7c0.4,1.4,0.5,2.1,0.5,4.8c0,2.9-0.3,5.5-0.8,6.3
	c-0.3,0.4-4.5-1-7.9-2.7c-3.1-1.6-4.8-3-5-4.6c-0.5-3.3,2-7.9,4.9-9C102,69.8,104.2,69.9,105.5,70.7z M235,91.2
	c1.9,0.5,3.4,1.2,5.4,2.9c1.5,1.3,4.4,4.4,6.1,6.6l0.6,0.8l-0.4,3.9c-0.4,4.7-0.5,14-0.1,18.2c0.3,2.7,1,8,1.3,9.2
	c0.1,0.4-0.2,0.9-1.1,2c-3.7,4.4-6.9,7.5-10,9.5c-6.4,4.1-13.1,1.2-15.6-6.8c-2.6-8.4-1.8-25.6,1.6-36.2c1.1-3.3,2.6-6.5,3.8-7.9
	C228.7,91.2,231.6,90.4,235,91.2z M321.6,92.4c0.7,0.4,1.9,2.1,2.4,3.7c2.5,7.4-1.8,19.8-10.8,31.1c-2.2,2.8-2.1,2.9-2.8-1.5
	c-1.4-8.6-1.2-16.7,0.3-21.5c1.3-3.9,4.4-8.8,6.7-11C319.2,91.8,320.1,91.6,321.6,92.4z M65,142.8c-1.7,15.1-5.6,26.9-10.2,31.1
	c-1.4,1.3-3.7,2.4-5,2.4c-0.8,0-1.1-0.1-1.7-0.7c-1.1-1.2-1.7-3.6-1.7-6.5c0-3.5,0.8-6.8,2.6-10.6c2.9-6.4,9.7-14.5,15.3-18.3
	c0.5-0.3,1-0.6,1-0.6C65.3,139.6,65.2,141.1,65,142.8z M394.5,147.2c0.7,1.6,1.6,3.8,1.9,5.1c0.8,3.1,0.7,6.7-0.2,9.5
	c-1.2,3.5-3.9,7-6.7,8.6c-3.3,1.9-8.9,0.3-10.7-3.1c-0.5-1-0.7-1.6-0.7-2.9c0-4.2,1.8-7.4,7.1-12.8c2.3-2.3,7.5-7.1,7.8-7.1
	C393.1,144.4,393.8,145.7,394.5,147.2z M180.2,40.5c-1.6,0.5-3,1.4-4.2,2.8c-1.1,1.2-5,6.5-6.4,8.6c-0.3,0.5-0.6,0.9-0.7,0.9
	c-0.1,0-0.6-0.7-1.2-1.5c-1.6-2.3-4.3-4.9-6-5.7c-3.6-1.8-7.4-0.9-9.2,2.4c-0.6,1.1-0.7,1.5-0.7,3.2c0,2.6,0.7,4.6,3.3,9.8
	c4.7,9.5,9.3,14.1,13,13.2c0.5-0.1,1.5-0.3,2.2-0.5c2-0.3,2.7-0.8,5.1-3.1c4.1-3.9,11.4-14.6,13.2-19.3c0.9-2.2,0.9-5,0.1-6.7
	c-0.7-1.5-1.9-2.8-3.4-3.5C184,40.2,181.6,40,180.2,40.5z M372.5,194.4c-4.2,0.7-8.3,3.2-12.5,7.6c-11,11.4-21.5,33.9-25.6,55.1
	c-0.3,1.4-0.5,2.7-0.6,2.9c-0.1,0.2-0.6-0.1-1.6-1.1c-2.5-2.4-5.3-4-8.7-4.9c-2.5-0.7-8.4-0.6-10.9,0.1c-3.9,1.1-7.4,3.3-10.6,6.7
	c-5.6,5.9-10.4,16.9-12.5,28.5c-0.3,1.9-0.8,3.1-3.2,8.5c-1.6,3.4-3.9,8.5-5.1,11.3c-3,6.8-7.4,15.3-9.6,19.1c-1,1.7-2,3.2-2.1,3.3
	c-0.2,0.2-1.9-2.6-2.8-4.9c-1.4-3.4-2.4-8.2-3.7-16.9c-1.7-11.5-2-21.2-1.1-36.2c0.6-9.7,0.6-11.6-0.2-13.4
	c-0.6-1.3-1.8-2.7-3.2-3.5c-1.1-0.6-1.5-0.7-3.1-0.7c-1.6,0-2,0.1-3,0.6c-1.3,0.7-2.5,1.9-3,3.1c-0.2,0.4-0.6,1.7-0.9,2.8
	c-1.3,4.6-4.8,13-9.2,22.5c-1.7,3.7-4.7,10.2-6.6,14.5c-5.3,11.9-9.8,21-12.4,25.4l-0.7,1.2l-0.1-3.7c-0.3-12.2,2.5-28.9,7.7-46.5
	c0.8-2.8,1.6-5.7,1.8-6.5c0.4-2.4-0.2-4.9-1.8-6.7c-3.4-3.8-8.9-3.3-11.9,1.1c-0.5,0.8-1,1.5-1,1.7c0,0.1-1.3-0.4-2.9-1.2
	c-4.8-2.4-9.3-3.3-14.2-2.8c-9.1,0.9-16.5,6.2-23.6,16.8c-5.5,8.2-8.7,15.7-10.6,24.7c-0.7,3.1-2.7,8.3-6.1,15.2
	c-4.3,8.6-10.3,18.2-11.2,17.6c-0.4-0.3-1.7-3.1-2.2-4.9c-0.9-3.4-1-5.6-1-12.5c0-7.8,0.3-10.9,2.2-27c1.7-13.7,2.2-22.4,2-32.1
	c-0.2-8.8-0.7-11.9-2.7-15.9c-1.7-3.2-3.9-5.2-7.1-6.4c-2.3-0.9-5.7-1-8.4-0.3c-6.6,1.7-12.7,6.7-20.4,17.1
	c-5.3,7.1-9.4,13.9-13.3,21.8l-2.5,5l-1.7-12.5c-4.9-35.7-7.4-45-13.3-49.4c-4.5-3.4-10.4-3.1-15.5,0.9c-8.9,6.9-21.2,29.5-28.8,53
	l-1.3,3.8l0.1-7.2c0.1-4,0.3-10.5,0.4-14.5c0.2-4,0.3-10.8,0.3-15.1v-7.8l-0.7-1.1c-0.9-1.5-2.2-2.3-3.9-2.4
	c-1.6-0.1-2.8,0.2-3.9,1.2c-2.1,1.9-2.8,4.5-4,16.4c-1.7,16-2.5,33-2.3,47.5c0.3,16.3,0.9,25.1,3.1,43.5c1.9,16,2.6,18.8,5,21.2
	c1.7,1.7,2.8,2.1,5.2,2.1c1.7,0,2.3-0.1,3.3-0.6c1.5-0.7,2.9-2.1,3.5-3.5c1-2.2,1.1-3.5,0.8-12.1c-0.7-20.4,0-32,3.1-47.4
	c3.3-16.7,7.9-30.3,14.9-44.2c4-8.1,7.5-13.6,11.1-17.9l1.2-1.5l0.3,0.9c0.5,1.5,1.8,7.2,2.6,11.2c1.1,5.7,2,11.5,3.6,23.7
	c3.1,22.7,6.1,42.9,6.9,46.6c0.9,3.9,2.4,6.2,5,7.4c1.6,0.7,3.8,0.8,5.6,0.2c2.2-0.7,4.3-3.1,4.9-5.6c0.1-0.5,0.5-2.9,0.8-5.3
	c1-7.2,2.3-12.5,4.8-19.1c4-10.8,9.6-20.9,16.6-30.2c4.1-5.5,7.2-8.7,9.9-10.4c1-0.7,1-0.7,1.2-0.2c0.5,1.3,0.7,6.5,0.6,12.7
	c-0.2,7.1-0.6,12.8-1.5,20.6c-1.7,14.6-2,17.2-2.3,20.7c-0.5,5.4-0.7,15.9-0.4,20c0.7,8.1,2.2,13.1,5.5,18.1
	c4.3,6.5,11.7,9,17.6,5.8c3.7-1.9,8.5-8.1,12.9-16.8l1.5-3l0.8,1c5.3,6.5,13.2,7.4,20.9,2.6c2.8-1.7,4.7-3.3,7.9-6.6
	c2.9-3,5.3-5.9,7.9-9.5c1.5-2,2.3-3.1,1.9-2.4c-0.1,0.1-0.1,2.9-0.2,6.2c0,8.1,0.7,12.4,2.5,16.2c1.1,2.3,3.6,4.8,5.5,5.7
	c1.3,0.6,1.6,0.7,3.8,0.7c2.3,0,2.6,0,4-0.7c4.1-1.9,7.9-7.4,12.6-18.2c0.9-2,3.5-8.2,5.8-13.8s4.9-12,5.8-14.2l1.7-3.9l0.2,2.4
	c0.7,10.4,2.1,20.8,3.8,28.5c2.3,10.4,7.7,19.3,13.3,22.2c3.8,2,7.6,2.1,11.5,0.3c4.3-2,8.9-8.6,14.2-20.1c0.8-1.8,1.5-3.2,1.6-3.1
	c0,0.1,0.4,1.1,0.8,2.3c1.7,4.8,3.9,9,6.4,12.1c5.9,7.3,15.2,9.6,24.9,6.1c4.1-1.5,8.7-4.2,12.4-7.4c1.1-1,2-1.7,2-1.5
	c0,0.7,3.6,7.5,5.2,9.9c2.3,3.4,4,5.5,6.7,8.1c3.4,3.3,6.5,5.1,9.7,5.8c4.1,0.9,7.7,0,11.4-2.8c4-3,9.5-11.6,16.5-25.6
	c4.7-9.6,8.4-17.8,14.8-33.7l2.7-6.5v-2c0-2.3-0.3-3.2-1.7-4.5c-1.3-1.3-2.3-1.7-4.4-1.7c-1.5,0-2.1,0.1-2.8,0.5
	c-1.3,0.7-2.6,2.2-3.4,4c-6.1,13.2-14.5,30.5-17.4,36.1c-5.3,9.8-12.3,21.2-13.1,21.2c-0.4,0-2.3-1.7-3.8-3.5
	c-2.2-2.6-3.7-5-5.4-8.4c-1.4-2.8-3.6-8.9-3.6-10c0-0.3,1-2,2.4-4.1c7.5-11.1,16.5-28.3,24.8-47.2c10.1-23.1,14.3-39.4,14-53.5
	c-0.1-5.4-0.5-7.7-1.7-11.4C385.6,197.5,379.6,193.2,372.5,194.4z M374.5,211.6c0.9,3.5,0.8,10.5-0.3,16.8
	c-2,11.8-7.8,27.7-17.3,47.8c-3.4,7.2-10.4,21-11,21.5c-0.1,0.1-0.1-2.7,0-6.2c0.4-19.3,2.8-34.3,7.7-48.2c4-11.6,10.3-23.3,16-29.9
	c1.6-1.8,3.9-3.8,4.2-3.7C374,209.9,374.3,210.7,374.5,211.6z M323.4,268.1c1.6,0.8,3.7,2.8,4.5,4.3c0.9,1.5,1.5,3.4,2.1,5.6
	c0.3,1.1,0.7,2.3,0.9,2.7c0.4,0.7,0.4,1,0.2,4.5c-0.5,9-0.2,19.8,0.7,27.1c0.3,2,0.5,4.1,0.6,4.7l0.1,1l-3.4,3.5
	c-4.8,5-7.6,7-11.6,8.3c-3.5,1.2-6,0.7-7.9-1.4c-1.2-1.4-3.3-5.5-4.2-8.3c-2.9-9-3-21.3-0.3-32.2c2-8,6.4-16.6,9.9-19
	C317.5,267.1,320.8,266.8,323.4,268.1z M207.8,273.7c1,0.2,1.8,0.4,2,0.5c0.6,0.6-12.2,24.2-17.2,31.8c-4.6,7-10.3,13.3-13.6,15.1
	c-1,0.6-1.1,0.6-1.3,0.2c-0.5-1-0.8-3.4-0.8-6.5c0-9.6,3.2-19.5,9.7-29.7C192.7,275.1,198.5,271.9,207.8,273.7z M265.8,214.7
	c-2,0.6-3.1,1.7-7.6,7.7c-1.8,2.4-3.3,4.3-3.3,4.3c0,0-0.9-1.4-1.9-3.1c-2.3-3.7-3.4-5-5-5.8c-4.1-2-8.4,0.9-8.4,5.4
	c0,1.9,1,4.9,3.5,11.3c2.6,6.6,4.3,9.3,6.8,10.9c3.3,2.2,6.4,2.1,9.8-0.5c0.7-0.5,1.5-1.4,1.8-1.9c0.7-1.3,1.7-2.7,4.1-5.8
	c3.7-4.8,6.5-9.5,7.7-13c0.3-0.8,0.4-2,0.4-3.1c0-1.6-0.1-2-0.6-3C271.7,215.3,268.6,213.9,265.8,214.7z"/>
</svg>
