<?xml version="1.0" encoding="utf-8"?>
<!-- Generator: Adobe Illustrator 27.0.0, SVG Export Plug-In . SVG Version: 6.00 Build 0)  -->
<svg version="1.1" id="Layer_1" xmlns="http://www.w3.org/2000/svg" xmlns:xlink="http://www.w3.org/1999/xlink" x="0px" y="0px"
	 viewBox="0 0 287.8 360" style="enable-background:new 0 0 287.8 360;" xml:space="preserve">
<g transform="translate(0.000000,2500.000000) scale(0.100000,-0.100000)">
	<path d="M584.3,24999.8c-3.1-0.3-15.1-2.3-26.7-4.1c-110.5-18-231.2-106.5-330.4-242.6c-77.9-106.8-151-267.5-187.2-411.1
		c-17.7-70.8-30.8-148.8-36.9-219.6c-4.1-46.8-4.1-143.4,0-183.9c14.9-150.7,69.4-281.5,154.4-371.6c46.7-49.6,100-80.2,153-88
		c21.7-3.1,60.4-1.1,80.1,4.1c36,9.7,60,24.1,90.3,54.3c56.6,56.7,146.7,185.4,208.9,298.8c4.7,8.6,9.2,15.7,9.7,15.7
		c0.6,0,1.9-4.1,3.1-8.9c2.8-12.6,13.5-33.1,22-42.6c9.4-10.4,19.6-16.9,35.7-22.5c12-4.1,14.9-4.4,38.1-4.5
		c22.2,0,26.4,0.5,36.5,3.9c19.9,6.6,29.8,13,45.7,28.7c19.8,19.6,33.4,40.8,57.2,89c10.5,21.4,37.8,76.7,60.4,122.8
		c22.8,46,41.8,83.8,42.1,83.8c0.5,0-1.3-10-3.9-22.2c-8.1-37.9-15.9-85.2-21.1-129.3c-6.6-55.6-8.3-120.9-3.9-154.8
		c6-47.5,16.4-75.7,34.8-94.2c12.2-12.2,22.4-17.8,42-22.7c11.7-2.9,16.9-3.2,37.3-2.8c21.2,0.6,25.3,1.3,39.1,5.8
		c40.8,13.8,76.2,46.8,123.6,115.9c70.3,102.1,137.9,241.8,191.5,395.7l10.2,29.2l6.2,1c3.6,0.6,12.5,1.9,20.1,2.9
		c11.8,1.5,49.1,10,61.3,13.9c3.6,1,3.7,0.8,2.8-2.8c-0.6-1.9-5.7-13.9-11.3-26.4c-36.9-81.8-68.5-163.7-87.3-226.4
		c-40.5-134.7-48.8-247.4-23.7-320.4c11.5-32.9,27.4-44.6,60.8-44.6c34.4,0,44.7,8.8,67.6,55.7c20.3,41.6,57.5,123.6,78.3,172.1
		c2.6,6,5.2,10.4,5.8,9.7c0.6-0.6,2.6-5.5,4.5-10.9c8.9-24.6,26.7-45.9,47-56.6c6.3-3.2,18.6-7.9,27.4-10.2
		c21.7-5.8,57.5-6.2,82.8-0.6c40.8,8.9,85.1,32.1,130.3,68.4c8.8,7.1,16,12.8,16.4,12.8c0.2,0,1-15.6,1.5-34.4
		c1.6-51.4,6.5-85.4,18.3-128.2c19.1-69.4,42.9-103.1,78.9-111.3c10-2.3,44.4-1.9,53.8,0.6c26.9,7.1,45,26.1,91.1,95
		c58.8,88.2,121.7,197.4,185.7,322.5c12.5,24.5,23,44.9,23.3,45.4c0.5,0.5,1.3-0.3,2.1-1.6s15.9-22,33.5-46.2
		c31.9-43.4,62.1-85.1,67.6-93.5l2.8-4.4l-14.1-15.1c-57.7-61.6-106.6-145.2-124.8-212.9c-3.6-13.3-4.4-19.8-4.5-37.9
		c-0.2-25.8,1.5-34,11.2-54.4c12.8-26.7,37.9-48.9,68.1-60.4c39.7-14.9,94.3-15.2,137.7-0.5c51.2,17.3,88.5,55.4,106,108.2
		c16.4,49.6,12.2,104.5-13.1,168.4c-12,30.1-39.1,81.3-58.5,110l-6.5,9.6l7.9,7c47.2,42,100.5,72,165.9,93.7
		c20.1,6.5,41.6,13.6,48.1,15.6c19.9,6.2,23.5,14.9,9.1,21.4c-15.2,6.6-47.6,1.6-111.5-17.5c-50.6-15.2-89.8-33.5-133.4-62.6
		c-9.1-6-17.2-11-17.8-11s-5.2,5.7-10.2,12.6c-5,6.8-21.4,28.8-36.3,48.9s-33.5,46-41.2,57.5c-48.5,72.8-57,126.7-27.4,172.3
		c13.3,20.4,42.1,42.5,55.4,42.5c12.2,0,31.9-17.2,44.6-38.4c10.5-17.7,17.2-37.6,23.7-69.5c3.2-15.9,6.6-30,7.8-31.3
		c5.7-6.8,23.3-8.6,34.7-3.6c8.1,3.7,9.4,7.5,12,32.6c2.4,25.4,0.2,47.2-7.6,72.1c-6,19-14.1,32.4-27.5,45.7
		c-21.6,21.4-51.2,31.6-91.4,31.8c-52.3,0.2-97.7-18.3-131.4-53.5c-44.1-45.9-50.6-101.9-19.4-169.5l5.2-11l-11.7-20.6
		c-72.9-129-150.4-257.2-205.8-340.1c-28.5-42.8-64.3-92.7-66.4-92.9c-1.8,0-11.3,34.8-16.9,62.1c-9.4,45.7-11.3,67.4-11.3,133.2
		c0,57.7,1.1,76,7.5,119.8c1.8,12.5,2.1,13,13.4,26.7c44.9,54.1,77.8,97.6,130.9,173.6c145.7,208.2,263,409.3,299.5,512.9
		c17.8,50.2,23.8,90.9,16.9,114.1c-9.6,32.4-60.8,40.7-106,17c-17.8-9.4-38.6-26.1-66.6-54.1c-68.7-68.7-130.1-152.8-192.4-263.3
		c-45.4-80.9-92.5-174.7-111.7-222.3c-2.3-5.7-4.4-10.2-4.9-10.2c-0.5,0-5.3,4.1-10.7,9.1c-12.6,11.3-36.8,23.3-58.7,29.3
		c-14.7,3.9-19,4.2-47,4.4c-29.8,0.2-31.4,0-51.9-5.3c-46.8-12-83.5-33.7-121.5-72.1c-29.8-30-49.7-58.2-71.3-101.3
		c-20.9-41.5-35.8-86.5-43.8-131.6c-1.8-10-5.2-19.1-13.6-36.9c-6.2-13-20.7-44.1-32.6-68.9c-23-48.8-50.2-104.8-70.7-145.8
		l-12.8-25.6l-1,8.6c-1.1,10.7,1.1,66.3,3.6,87.3c3.1,26.9,10.9,74.4,16.9,102.9c13,61.6,26.7,109.2,62.4,217.1
		c32.1,96.9,34,103.5,34,117.2c0,9.9-0.3,10.7-6.2,16.5c-7.9,8.1-19.9,11.5-39.1,11.5c-16,0-17.7-0.2-50.4-6.8
		c-34-6.8-55.1-9.6-55.1-7.1c0,1.1,1.5,6.6,3.1,12.3c19.1,63.2,28.7,125.4,24.8,162.4c-5,46.8-25.1,65-71.6,64.7
		c-32.2-0.2-59.6-10.4-90.3-33.4c-68.2-51.4-100-135.1-70-185.1c18-30,66.9-53.5,123.8-59.1c10.2-1.1,18.6-2.6,18.6-3.2
		c0-1.8-23-59.5-34.5-86.5c-51.5-121.4-128-250.4-199-335.4c-27.1-32.2-72.6-74.5-76.5-70.7c-2.4,2.4-10.9,29.7-13.3,42.9
		c-9.4,51.7-7.8,136,4.2,231.1c11.7,92.4,31.3,181.7,61.7,282c12.6,41.6,22,75.5,24,86c2.3,12.6-0.2,17.8-10.9,22
		c-12.2,4.5-33.1,4.1-43.4-1.1c-7.6-3.9-8.6-5-19-25c-5.8-11.5-15.9-33.1-22.2-47.8c-6.5-14.7-12.2-27.9-13-29
		c-1-1.6-2.8,0.3-6.3,6.5c-26.4,47-116.2,56.4-188.5,19.9c-25.9-13.3-58.8-38.4-82.6-63.5c-55.3-58.2-98.7-148.6-117.3-243.6
		c-2.3-11.2-5.7-19.8-18.6-45.5c-74.5-148.8-202.6-338.7-276.5-409.8c-16.9-16.2-25.3-22.4-42.1-30.3c-17.7-8.4-25-8.1-44.6,1.3
		c-50.7,24.6-103.9,86.2-144.9,167.6c-23,45.7-36.3,80.9-48.6,128.8c-19,74.1-27.5,163.3-23.8,245.2c9.1,192.7,51,358.1,134.8,530.5
		c60,123.5,137.3,224.8,223.6,293.1c35.2,27.9,81.8,54,112.6,63c19.1,5.8,42.8,7.1,57.5,3.4c32.9-8.3,59.5-32.7,72.8-67.2
		c8.9-23.2,12-42.8,12-75.5c-0.2-32.9-4.4-62.6-13.6-95.6c-10.7-37.8-31.6-87.3-49.4-117c-5-8.6-8.6-16.4-8.1-17.7
		c2.6-6.8,23-9.2,34.5-4.1c10.2,4.7,31.1,31.1,51.9,65.8c41.5,69,60.9,137.4,58.2,204.2c-1.6,42.6-13.3,73.7-36.5,98.4
		c-31.8,33.9-76.8,50.7-139.5,52.2C602,25000.1,587.4,25000.1,584.3,24999.8z M2495.5,24777.8c1.8-4.9,1-33.9-1.5-47.6
		c-14.3-81.2-95.8-232.2-231.4-428.6c-35.8-51.7-128.2-177.3-132.4-179.9c-2.6-1.6-1.3,2.9,13.8,48.6
		c25.4,77.5,54.8,146,105.2,246.8c71,141.8,131.7,238.7,200.1,318.8c9.1,10.7,42.6,44.6,44.1,44.6
		C2494.1,24780.3,2495,24779.2,2495.5,24777.8z M1475.1,24455.8c12-23.7,11.5-78.8-1.3-130.9c-6-25.1-15.9-58.5-17.8-60.4
		c-1.8-1.9-17.3,1.5-29.8,6.8c-28.7,12.2-42,32.2-41.8,63.5c0.2,43.9,30.3,100.1,69.2,129.2l9.6,7.1l4.1-3.7
		C1469.3,24465.2,1472.8,24460,1475.1,24455.8z M1022,24302.3c13-4.1,26.4-14.3,34.5-26.6c7-10.5,11-13.6,20.1-15.2l6.5-1.1
		l-21.7-36.5c-12-20.1-24.6-40.8-28-46.2c-19-29.7-80.5-130.4-123.3-201.6c-50.1-83.6-62.4-103.1-75.5-119.6
		c-8.8-10.9-20.3-23.2-21.9-23.2s-7.8,22.4-9.6,34.8c-2.1,14.9-2.1,64.7,0,88.3c7.9,88.8,37.6,177.4,81.8,245.5
		c15.4,23.8,27.9,38.9,48,58.5c29,28,56.7,45,75.4,45.9C1010.2,24305.5,1016.3,24304.1,1022,24302.3z M1986.2,24264.4
		c10.2-3.1,23.2-9.7,34.7-18c11.8-8.3,29.5-26.9,31-32.2c0.5-2.4-3.7-17.5-12.2-42.5c-22.5-67.6-39.7-133.5-49.4-190.9l-4.1-24.1
		l-17.5-16.5c-39.7-37.4-68.2-60.8-101.1-82.8c-20.7-13.8-47.6-28.2-61.7-33.2c-5.8-1.9-6.3-1.9-11.2,2.8
		c-9.4,9.1-18.6,32.2-23.3,59c-13.5,76.8,12.5,189.8,62.4,271.4c33.5,55.1,78.4,96.3,117.5,108.1
		C1961.9,24268.4,1973.4,24268.1,1986.2,24264.4z M2585.9,23820.7c17.3-34.7,28.5-64.5,34.7-92.7c3.9-17.8,4.9-55.4,1.6-73.2
		c-5.2-30.5-19.3-59.1-37.8-77.3c-22.7-22.4-42.1-28.7-61.3-19.8c-8.8,4.1-28.2,23.8-33.7,34.4c-6.3,11.8-10.9,31.1-10.9,46.2
		c0,40.2,24.5,102.7,65.1,166.6c13,20.4,27.2,40.4,28.8,40.5C2573.1,23845.3,2579.1,23834.1,2585.9,23820.7z"/>
	<path d="M1068.3,23553.6c-21.9-5.5-28-13.8-49.3-65.6c-45.5-110.7-72.4-195.9-94.6-300.3l-5.3-25l-5.8-2.9
		c-13-6.6-14.6-15.1-3.9-21.4c3.7-2.3,5.3-4.2,4.7-5.8c-1.5-3.7-11.8-83.1-13.6-104.8c-2.1-24.1-2.3-62.6-0.3-67.7
		c3.2-8.4,22.7-11.8,35.2-6.2c9.6,4.4,6-7.8,42.5,143.6l9.4,38.9l14.4,2.9c31.9,6.3,70.5,14.6,85.1,18.3c10.9,2.6,15.6,3.2,16.4,1.9
		c0.6-1,1.6-7.8,2.3-14.9c0.6-7.3,2.8-26.3,4.9-42.3c2.1-16,4.7-35.7,5.7-43.8c3.2-27.5,12.8-81,17-95.6c9.2-31.6,20.4-41,47.2-39.4
		c7.6,0.5,13.6,1.9,17,4.1c6.3,3.6,6.6,7,2.6,24.8c-1.5,5.8-3.2,20.1-4.4,31.6c-1,11.7-3.6,40-5.7,63.2c-2.1,23.2-5.5,59.6-7.3,81
		c-1.8,21.4-3.7,40.8-4.2,43.1c-0.8,3.9-0.2,4.5,6.8,7c9.4,3.2,13.6,6.8,13.6,11.8c0,4.5-7.6,9.7-16.5,11.2l-6,1l-0.8,10
		c-0.5,5.3-2.8,28.8-5,52c-2.1,23.2-4.4,47.6-4.9,54.3c-0.6,6.6-3.6,34.4-6.6,61.6c-9.9,87.7-21.7,142.3-35,160.8
		c-5.5,7.9-18.6,13-35.2,13.6C1080.8,23554.9,1071.8,23554.4,1068.3,23553.6z M1081.8,23369.7c19-187.2,17.7-172.7,15.6-173.6
		c-1-0.3-8.3-1.6-16.2-3.1c-7.8-1.3-29.7-5.3-48.3-9.1c-18.8-3.6-34.4-6.3-34.7-6c-0.8,1,13.6,53.5,31,112.3
		c4.2,14.3,8.3,28.5,9.2,31.6c1.8,6.3,25.3,81.2,31.8,101.3l4.2,13l1.3-8.9C1076.3,23422.4,1079,23396.4,1081.8,23369.7z
		 M1649.1,23521.1c-26.9-4.7-33.7-17.7-14.6-27.5c6.3-3.2,6.6-3.6,5.7-9.2c-1.1-7.1-6.8-100.1-9.1-149.4c-2.1-45-2.1-146.2,0-197.4
		c4.1-95.9,9.9-174,14.6-191.7c2.6-9.4,10.4-15.1,24.8-17.7c12-2.3,55.1,0.6,72.9,4.7c35.2,8.3,66.9,26.6,99.5,57.4
		c30.5,29,58.8,71.9,73.9,112.1c14.1,37.3,25.3,117.6,23.3,165.3c-2.3,50.6-19.9,116-41,150.5c-25.4,41.8-73.9,77.5-123,90.9
		C1741.2,23518.6,1671.7,23525.1,1649.1,23521.1z M1732.1,23470.2c24.3-8.4,62.6-39.5,77.9-63.5c22.7-35.2,40.4-92.2,42.6-137.4
		c2.1-39.9-11-118.1-26.3-158c-11.3-29.5-31.3-63.4-53.6-90.9c-8.6-10.5-36.6-38.9-44.4-44.9l-4.1-3.1l-0.2,111.2
		c0,85.2-0.6,120.9-2.8,152.7c-1.5,22.7-3.9,62.6-5.2,88.3c-2.3,41.3-8.6,121.5-11.7,143.9l-1,7.9l8.8-1.1
		C1717.2,23474.6,1725.9,23472.3,1732.1,23470.2z M1506.9,23511.3c-2.9-0.8-6.3-3.2-7.6-5.2c-7.9-12.2-9.9-57.4-12.3-297.7
		c-1-91.2-1.9-166.3-2.3-166.4c-0.8-0.8-21.1,49.3-34.7,85.4c-10.5,27.9-26.7,76.2-60.9,181.5c-12.2,37.1-31.6,90.7-45.2,124
		c-13.5,33.2-25.1,49.1-38.6,52.7c-9.4,2.6-30.1,2.6-38.1,0c-17.5-5.7-22.8-15.9-29-54.9c-4.5-29.2-6.2-83.1-5.2-176
		c1.1-92.7,1.8-105.8,8.4-170.2c8.6-80.1,16.2-130,21.2-138.1c3.1-4.9,12.3-7.5,23.8-6.6c7.9,0.6,10.4,1.5,13.5,5
		c7,8.1,7.1,20.6,4.9,266.9c-0.6,86-0.6,136,0.3,134.5c1-1.3,3.1-8.6,5-16.2c29.8-122.3,37.4-150.9,49.6-187.2
		c23.7-70.5,51.7-127.7,82.6-169.3c13.6-18.2,20.7-24.8,32.4-30.3c8.6-3.9,11.7-4.5,25.9-4.5c34.4,0,43.3,9.7,48,52.2
		c3.7,33.2,1.1,356.2-3.6,461.7c-2.3,53.5-2.4,54.1-9.6,57.7C1529.4,23513.4,1515.6,23513.9,1506.9,23511.3z"/>
	<path d="M653.2,23034.9c-110-10.7-224.3-95.8-338-251.8c-91.2-125.1-157-276.6-174.4-401.1c-3.9-28.8-3.9-84.1,0.2-106.1
		c6.8-37.1,16.5-58.5,35-77.1c20.1-20.4,41.8-28.7,78.6-30.1c32.9-1.3,57.7,4.5,92,21.6c44.7,22.2,92,59.1,151.2,118.1
		c42.1,42,66.1,68.1,137.1,148.3c30.6,34.5,55.7,62.4,56.1,61.7c0.2-0.8-3.2-12.5-7.6-26.3c-28.2-88-51.7-173.1-86.9-316.2l-14.3-58
		l-31.8-21.4c-109.4-74.4-182.5-140.8-242.4-220.9c-71.8-95.8-118.8-208.1-128.8-306.9c-4.4-43.4,0-76,14.1-105.2
		c15.6-32.6,44.9-52.8,88.5-61.1c17-3.2,54.8-3.2,73.4,0c74.1,13,127.7,62.4,179.7,165.3c58,114.7,101,257.5,171.1,570.4l6.8,30.8
		l33.2,25c66.4,49.9,122.2,96.3,188.3,156.2c18.3,16.5,33.4,29.8,33.7,29.5s-1.8-7-4.5-14.7c-16.7-47.5-38.2-125.8-48.5-176.5
		c-23.3-115.5-16.5-199.2,18.6-232.5c9.6-9.1,23.2-16.2,39.5-20.6c15.9-4.4,54.6-3.9,72.1,1c15.4,4.1,35.7,13.4,49.6,23l10,6.8
		l-1.1-13.6c-13.1-161.6,5.5-306.9,51.9-403.2c13.8-28.8,25.8-46.5,43.6-64.3c11.8-12,17.2-15.9,28.4-21.4
		c7.6-3.7,18.5-7.9,24.3-9.6c12.8-3.2,43.8-3.6,56.7-0.6c91.4,21.1,129,171.3,84.9,340.5c-22.5,86.5-55.3,151.2-112,221.7
		c-11,13.8-19.8,25.3-19.3,25.8c0.3,0.5,10.7,5,22.7,10.2c28.2,12.2,44.9,21.2,73.1,39.7c72.4,47.3,159.6,131.4,234.6,226.4
		c8.9,11.3,16.5,20.6,16.7,20.3c0.2-0.2-1.8-9.7-4.4-21.4c-13.5-59.3-19.6-112.8-19.6-169.3c0-56.9,6-99.3,20.6-143.6
		c20.4-62.1,47.5-95.1,89.1-108.7c10.5-3.4,17-4.2,34.8-4.9c33.5-1.1,52.5,3.9,77.8,20.7c51.9,34.7,120.9,124.9,172.7,225.9
		c25.4,49.6,44.9,94.2,67.3,154.8c7.1,19.1,13.9,37.1,15.1,39.7l2.1,4.9l3.9-6.5c13.6-23.5,56.9-85.1,108.9-155.1l23.8-32.1
		l-13.6-18.1c-72.9-98.4-135.8-210.5-152.3-271.9c-8.4-31.6-9.2-57.4-2.6-83.3c5-19.4,13.3-33.9,28.4-48.8
		c20.1-19.9,42-31.1,75.5-38.2c13.9-3.1,22-3.7,46.8-3.7c34.2,0,49.9,2.3,77.6,11.5c58.7,19.4,108.7,64,138.4,122.8
		c38.6,77,32.7,158.2-18,249.4c-10.5,19.1-42.9,69.7-56.6,88.3c-1.6,2.1,1.3,6.6,18.5,28.5c69.5,88.5,146.3,168.4,211.8,220.5
		c54.9,43.9,100.3,71.1,155.9,93.8c27.2,11.2,30.5,12.8,34.7,17.3c4.4,4.7,4.1,7.9-1.1,13c-7.1,6.6-21.1,9.9-38.4,8.9
		c-15.7-0.8-38.7-7.6-78.8-23.3c-59.5-23.3-132.1-67.7-190.2-116.2c-56.4-47-92.4-82.3-163.2-160.3l-5.8-6.5l-25.1,34.7
		c-50.6,69.8-71.3,102.3-90.4,141.6c-19.4,39.9-26.4,65.6-26.3,97.2c0,14.4,0.8,22.7,3.2,31.8c7.8,28.8,26.7,56.2,49.4,71
		c13.9,9.1,22.7,11.2,35.5,8.4c22.8-4.5,56.1-25,75-45.9c24.5-27.2,40.5-57.9,60.4-115.4c7-20.3,10-23.7,22.7-25
		c9.7-0.8,19.1,1.9,21.9,6.6c3.1,5.5,2.4,45.9-1.1,62.7c-3.6,17.7-12.3,43.9-19,57c-32.6,64.5-98.8,103.4-176.5,103.4
		c-33.1,0-61.9-6.5-89.9-20.1c-46.3-22.7-79.2-61.4-91.9-108.1c-3.1-11.2-3.7-17.7-3.7-37.1c0-26.3,2.4-40.8,11.2-66.8l5.2-15.7
		l-3.6-7c-1.9-3.9-16.4-35.3-32.2-70.2c-53.6-118.5-84.4-176.8-126.2-239.8c-24.5-36.6-46.5-65.5-71.8-93.7
		c-18.6-20.7-45.2-45.5-47.3-44.2c-2.8,1.8-14.6,28.4-20.1,45c-16.9,50.9-23,93.2-22.8,159.3c0,57.2,3.6,94.3,15.2,154.9
		c7.8,40.7,27.1,115.4,45,174l2.9,9.7l11.3,1.1c47.6,4.7,112,5.2,162,1.1c24-1.9,28.2-1.1,28.2,6.2c0,12.5-18,32.6-32.9,36.9
		c-26.6,7.6-77.5,13.8-118.9,14.1c-16.4,0.2-29.7,0.5-29.7,0.8s4.1,12,9.1,25.9c15.9,45,36,94.2,56.7,138.7
		c11,23.8,20.1,44.7,20.1,46.3c0,4.7-8.8,11.2-19,14.1c-6.6,1.9-13.5,2.4-25.4,1.9c-31.6-1.3-40.5-8.9-71.5-61.3
		c-21.9-36.9-51.9-99.7-73.2-153c-9.2-23.3-9.4-23.7-15.1-24.6c-55.6-9.4-102.4-22.4-112.1-31.1c-6.3-5.3-1.9-20.6,8.8-30.5
		c12.3-11.7,18.3-12.5,53-6.3c12.8,2.4,23.8,4.1,24.8,3.7c3.7-1.3-86.7-120.1-130-170.8c-80.4-94-164.8-169-235.8-209.9
		c-14.6-8.3-54.1-27.4-56.9-27.4c-0.5,0-0.3,2.8,0.3,6c0.8,4.5,6.2,12.2,20.9,29.7c78.6,93.8,154.1,199.2,218.3,304.7
		c61.6,101,84.9,154.9,86.7,200.3c1,22.5-1.3,33.5-9.6,46.5c-13.1,20.7-37.4,31-72.6,30.6c-21.7-0.2-40.8-4.9-58.3-14.4
		c-58.8-31.9-131.3-127.7-180-237.9c-40.2-91.1-77.5-213.3-101-331.4l-7.3-36.5l-13.5-12.6c-28-26.4-57-50.4-74.5-61.7
		c-4.4-2.9-4.5-2.9-6,1.1c-3.4,9.1-6.8,30-8.3,52.5c-4.2,63.2,7.3,152.5,38.9,299.5c18,84.3,18.5,86.5,18.5,103.1
		c0.2,13.4-0.3,16.2-3.1,19.3c-7.6,8.4-26.1,12.5-44.1,9.7c-12.6-2.1-19.6-5.8-23.8-13c-6.8-11.7-29.3-36.8-63.2-70.5
		c-61.7-61.4-119.4-110.5-192.8-164c-12.5-9.1-23-16.2-23.3-16c-1.1,1.3,36.9,163,60.4,256.2c28.5,113.8,33.5,136.3,33.9,153.1
		c0.2,15.1-2.3,19.3-14.9,25.4c-8.6,4.2-10.7,4.5-29.5,4.5c-26.1,0-32.4-2.6-45-19.4c-74.4-97.9-220.5-253.9-308.2-329
		c-33.7-29-66.1-52.2-97.6-69.8c-19.3-11-44.2-22.2-47.8-21.4c-7.3,1.5-16.9,26.1-20.7,54c-2.8,19.1-3.1,60.1-0.8,83.6
		c6.3,62.9,26.9,138.1,58.7,214.6c77.9,188,235.6,379,345,418.4c24.3,8.8,39.9,4.5,60.8-16.4c20.4-20.4,28.8-44.7,28.8-82.8
		c-0.2-23.2-2.1-38.4-8.3-64l-4.1-16.9l3.6-2.9c5-4.1,23.3-4.1,29.5,0c15.2,10,37.9,59,44.2,95.6c9.6,54.9-9.7,96.4-55.9,119.4
		C728.5,23031.8,688.7,23038.3,653.2,23034.9z M1474.8,22640.5c4.5-9.1,4.9-10.4,4.7-28.2c-0.2-27.9-8.4-54.4-30.8-99.8
		c-32.2-65.8-125.4-206.3-186.7-282c-8.6-10.5-10.4-12.2-9.4-8.1c0.6,2.8,5.2,20.3,10,38.9c37.6,142.3,84.3,248.7,143.9,328.1
		c19.1,25.6,56.7,62.7,61.7,61.1C1469.3,22650.2,1472.2,22645.7,1474.8,22640.5z M552.1,21994.7c-43.8-178.1-69.5-265.6-105-356.3
		c-32.9-84.4-61.9-136.3-95.3-169.7c-16.7-16.7-31.9-26.6-41.2-26.6c-10.9,0.2-29.2,13.8-39.2,29.3
		c-30.6,47.8-24.5,144.9,15.7,246.8c49.4,125.3,131.3,229.6,257.8,328.3c12.3,9.6,22.5,16.7,22.8,15.6
		C567.9,22061.2,561,22030.9,552.1,21994.7z M2271.1,22033c24.1-47.2,33.9-85.7,32.1-128.2c-1.3-30.3-7.1-54.1-19.8-80.9
		c-19-39.9-57.7-80.4-87.5-91.6c-5-1.9-10.5-3.4-12.3-3.4c-8.9,0-26.7,15.2-33.5,28.5c-12.8,25.3-12.8,60.6,0,99.5
		c15.1,45.9,58.8,129.6,99,189.3C2258.4,22060.3,2256.7,22061.3,2271.1,22033z M1235.4,21982.6c32.2-39.9,54-76.3,71-118.8
		c22.2-55.4,35.7-117.8,37.4-175.3c2.4-76.3-14.6-142-46.7-180.7c-11.3-13.8-11.3-13.8-20.4-1.6c-22,29.8-39.5,72.9-53,130.6
		c-23.3,100.6-27.5,220.9-13,361.7l1.1,11l4.1-3.7C1218.1,22003.6,1227,21993.3,1235.4,21982.6z M1062.8,22652.5
		c-13.3-2.3-23-7.8-34.7-19.3c-20.3-20.3-29.5-50.6-20.9-69.2c4.2-9.6,16.9-21.6,27.5-26.6c4.9-2.3,15.7-5.5,24-7.1
		c31.8-6.2,53.5,1.9,68.4,25.1c11.2,17.3,16.2,46.3,11,63.5c-2.4,8.4-13,19.9-22.2,24.8
		C1100.8,22651.3,1077.7,22655.2,1062.8,22652.5z"/>
</g>
</svg>
