<?xml version="1.0" encoding="utf-8"?>
<!-- Generator: Adobe Illustrator 27.0.0, SVG Export Plug-In . SVG Version: 6.00 Build 0)  -->
<svg version="1.1" id="Layer_1" xmlns="http://www.w3.org/2000/svg" xmlns:xlink="http://www.w3.org/1999/xlink" x="0px" y="0px"
	 viewBox="0 0 461.8 360" style="enable-background:new 0 0 461.8 360;" xml:space="preserve">
<path d="M51.8,0.1C48.5,0.4,42,1.5,39.6,2.2c-0.5,0.1-0.7,0.1-1.3-0.3c-2.3-1.7-5.8-1.4-7.8,0.7c-0.7,0.7-1.7,2.5-1.7,3.1
	c0,0.1-1.5,1-3.3,1.9c-8.1,3.9-14.8,8.5-19.8,13.5c-2.7,2.6-4.3,4.7-5.1,6.4c-1.7,3.4,0.5,7.2,4.1,7.2c1.7,0,2.6-0.5,5.5-3
	c4-3.6,7.6-6.2,11.9-8.8c2.5-1.5,6.2-3.3,6.4-3.2c0.2,0.2,0.1,17.3-0.2,33.6C28,64.2,28,74.3,28.1,87.8c0.3,36.5,1.2,50.4,3.7,55.9
	c0.7,1.5,2.1,3,3.5,3.7c2.8,1.4,6.5,0.2,7.8-2.4l0.6-1.1l1.2,0.5c4.5,1.9,10.2,1.9,15.4,0.2c7.4-2.5,13.6-7.8,19.4-16.5
	c6.1-9.2,10.7-20.6,14.5-35.5c0.9-3.6,1-3.9,1.6-4.3c1.1-0.7,6.8-3.6,7-3.5c0.1,0.1-0.3,1.5-0.9,3.3c-2.1,6.4-2.9,10.8-2.9,15.8
	c0,8.6,3,14.3,8.4,15.9c1.8,0.5,4.5,0.4,6.3-0.2c5.1-2,10.1-8.1,17.5-21.4l2.7-4.9V97c0,7.9,1.2,15,3.1,18.9c2.3,4.7,6.6,6.9,11,5.6
	c4.4-1.4,7.2-5,11.6-15.1c0.3-0.6,0.3-0.6,0.8,1.2c1.9,5.8,5.3,9.2,9.9,9.9c3.5,0.5,6.8-0.8,10.1-4.1c2.8-2.8,4.8-5.8,8.1-12.5
	l1.7-3.4l-0.1,2c-0.3,3.5-0.2,11.7,0.2,14.6c0.9,7.2,2.7,12.5,5.3,15.4c2.2,2.5,4.2,3.4,7.2,3.2c1.5-0.1,1.9-0.2,3.3-0.9
	c4.2-2.1,8.4-8.3,14-21c1.3-2.9,3-7.3,4-10.2l0.6-1.9l0.6,0.3c0.3,0.2,1.2,0.4,1.9,0.6c7.3,1.5,14.9-3.4,22.4-14.5l1.6-2.3l-0.1,2.4
	c-0.3,5.1-1.3,16.8-1.6,18.6c-0.1,0.5-0.4,0.8-2.4,2.1c-10.3,6.6-18.1,13.6-23.5,21.2c-5.1,7.2-8.6,15.2-9.5,21.9
	c-0.3,2.5-0.3,6.7,0.1,8.6c2.3,11,13.1,15.8,23.5,10.4c2.5-1.3,4.1-2.5,6.3-4.8c6.5-6.7,10.8-16.2,13.9-30.3
	c1.4-6.2,3.7-19.2,3.7-20.9c0-0.3,0.7-0.8,3.7-2.5c2-1.1,5.3-3,7.4-4.2c2-1.1,3.7-2.1,3.7-2.1c0,0,0,4.1,0,9.1
	c-0.1,14.3,0.3,17.2,2.9,19.8c2.8,2.8,7.2,2.7,10.1-0.3c1.1-1.1,2-2.6,3.9-6.4c4.2-8.4,7.8-13.7,13.9-20.6c1.2-1.4,2.2-2.4,2.3-2.4
	c0,0-0.1,2.2-0.4,4.7c-0.6,6.2-0.6,16-0.1,19.5c0.7,5,2,7.9,4.3,10.2c2.1,2.1,4.4,3.1,7.2,2.9c5.7-0.4,10.4-5.6,15.8-17.6l1.6-3.4
	l0.2,1.5c0.6,3.8,1.4,6.6,2.8,9.6c2.7,5.8,6.9,9.4,12.1,10.5c2.9,0.6,7.1,0.3,10.3-0.8l1.5-0.5l0.3,0.5c0.7,1,3.1,3.3,4.5,4.4
	c0.9,0.7,2.5,1.6,3.6,2.2c10.4,5,22.1,1.3,33.6-10.8c7.3-7.7,13.9-18.5,17.8-29.2c0.5-1.5,1-2.6,1-2.7c0.1-0.1,9.4,2.1,9.6,2.2
	c0.1,0.1-0.6,2-1.5,4.2c-5.3,13.9-8,24-9.1,35c-0.5,5.2-0.3,10.2,0.8,14.3c1.5,6.1,5,9.3,10,9.3c3.9,0,7.2-2,12.3-7.3
	c4.9-5.1,9.5-12.2,11.9-18.3c2.4-6.2,2.9-9.6,1.8-11.6c-1.1-2-2.8-3-5.1-2.9c-1.7,0.1-2.6,0.5-3.7,1.5c-0.9,0.9-1.2,1.5-2.2,4.1
	c-2.2,5.7-5.8,11.2-11.2,17.2l-1.8,2l-0.2-1.3c-0.4-2.7,0.5-10.7,2-17.1c1.5-6.4,3.2-12,6.7-21c2.2-5.8,2.8-7.7,3-9.8
	c0.4-4-1.7-7.8-5.4-9.6c-1.5-0.7-1.9-0.8-9.9-2.6c-2.7-0.6-5-1.2-5.1-1.3c-0.1-0.1-0.1-0.9,0.1-1.7c0.4-2.6,0.5-7.7,0.2-10.1
	c-0.5-4.5-1.3-7.6-3.1-11.3c-2-4.2-4.6-7-8.1-8.7c-4.2-2.1-8.3-2-12.8,0.2c-1.5,0.7-2.2,1.2-3.4,2.5c-2.2,2.2-3.3,4.3-4.3,7.9
	c-0.6,2.2-0.7,6.9-0.3,9.5c1.5,8.5,6.9,15.3,15.5,19.7l2.1,1.1l-0.7,1.7c-2.5,6.6-7.2,14.2-12.6,20.7c-2.3,2.7-7.4,7.7-9.4,9.3
	c-2.1,1.6-4.8,3-6.4,3.4c-3.6,1-6.7,0.2-9.1-2.2l-0.8-0.8l1.9-2c5.4-5.6,10.5-14.4,13.2-22.6c2.1-6.4,3.1-13.9,2.6-18.7
	c-0.8-7-4.1-11.8-9.3-13.5c-2-0.6-4.8-0.6-6.9,0.1c-8.7,2.8-15.8,15-18.5,31.8c-0.2,1.1-0.4,4-0.4,6.6c-0.1,4.8,0.1,7.7,0.9,11.7
	c0.2,1.1,0.3,2,0.3,2c-0.2,0.3-2.2,0.6-3.2,0.5c-1-0.1-1.2-0.2-1.9-0.9c-1.5-1.4-2.6-4.4-3.3-8.7c-0.4-2.5-0.5-9-0.1-12.4
	c0.7-6.8,2.9-17.5,5.9-29.9l1.4-5.8h8.5c10.7,0,14.9-0.4,20.5-2.1c4.3-1.3,8.2-3.9,9.4-6.2c1.8-3.5-0.7-7.5-4.6-7.5
	c-1.2,0-1.5,0.1-3.4,1.1c-3,1.6-4.7,2-10.7,2.3c-3.3,0.2-12.6,0-15.3-0.4l-1-0.1l1.1-3.9c1.8-6.7,1.9-8.1,1-10.2
	c-1.7-3.9-6.9-4.6-9.7-1.5c-1.3,1.4-2.1,3.6-4.8,12.5l-0.5,1.7l-2.4-0.1c-4.9-0.2-10,0.6-15.5,2.4c-7.2,2.3-9.6,4.2-9.7,7.5
	c0,3,2.2,5.1,5.4,5.1c0.7,0,2.8-0.3,4.7-0.7c5.7-1.2,8.3-1.6,11.2-1.6c1.5,0,2.7,0,2.8,0.1c0.3,0.3-2.2,7.5-6.9,20.1
	c-6,16-11.8,29-15.7,34.7l-0.7,1.1l-0.1-3c-0.2-3.4-0.1-6.3,0.5-13.1c0.6-6.4,0.6-12.6,0.1-14.5c-0.6-2.2-1.5-3.8-2.8-5.2
	c-3.6-3.8-8.9-3.8-14,0c-2.9,2.1-9.9,9.8-14.3,15.6l-1.7,2.2l0.1-3.5c0.1-1.9,0.2-4.7,0.3-6.1c0.2-2.5,0.2-2.6,0.7-3
	c5-3.9,11.1-10,15.1-15.2c1.7-2.2,5.2-7.3,6.6-9.9c5.5-9.6,9.2-21.5,9.9-31.7c0.4-6.3-0.6-11.9-3-16c-1.1-1.8-3.9-4.6-5.5-5.4
	c-5.5-2.9-11.3-1.4-16.8,4.2c-6,6.2-10.3,16.1-13.9,32.2c-2.5,11-4.3,22.2-5.3,32.3c-0.2,1.9-0.4,3.7-0.4,3.9c-0.1,0.3-1.1,1-3,2.1
	c-3.6,2.2-10.9,6.1-11,6c0-0.1,0-1.8,0.2-3.8c0.8-9.8,1.5-24.2,1.5-29.9c0-2.3-0.1-4.3-0.3-5.3c-0.7-4.2-3.5-6.8-7-6.8
	c-0.7,0-1.5,0.1-1.8,0.2c-0.4,0.1-0.7-0.1-1.8-1.3c-3.7-3.9-9.7-5.2-15.3-3.3c-6.8,2.3-12.5,8.7-17,18.8c-2.8,6.2-4.7,14.1-4.7,19.3
	c0,3.1-1.2,6.9-4.3,14.1c-2.5,5.7-5.8,12-8.3,16l-1,1.6l-0.3-1.5c-0.2-1.1-0.3-3.3-0.3-8.4c0-7.6,0.1-9.6,1.4-18.4
	c1.2-8.3,2.2-13.1,4.5-21.9c1.2-4.7,1.3-5.4,1.4-7.3c0-1.9,0-2.2-0.5-3.2c-0.7-1.6-1.6-2.5-3.2-3.3c-1.8-0.9-3.6-0.9-5.3-0.1
	c-2.4,1.1-3.1,2.2-6.6,10.2c-5,11.2-15,30.5-19.6,37.5c-1.8,2.8-2.4,3.6-2.5,3.2c-0.5-1.4-0.9-5.9-0.9-9.3c0-6,1.4-17.2,3-24.9
	c0.8-3.9,0.9-5.9,0.2-7.5c-0.7-1.5-1.4-2.2-2.6-2.9c-3.5-1.9-7.4-0.5-9.1,3.3c-0.6,1.4-1.3,4.1-2.2,9.2c-1.6,8.6-6.3,22-11.4,32.1
	c-2,4-1.9,3.9-2.2,1.8c-0.4-2.9-0.5-9.1-0.2-12.8c0.3-4.7,1.3-12,2.4-19.2c1.3-7.9,1.5-9.5,1.2-11c-0.4-2.3-1.6-4.2-3.5-5.1
	c-1.4-0.7-3.7-0.9-5.1-0.4l-1,0.3l-1-0.6c-5.7-3.5-13.1-2.9-19,1.5c-3.9,3-7.3,7-11,13.1l-1.3,2.2l-3,0c-2.6,0-3.3,0.1-5.3,0.6
	c-1.3,0.3-2.3,0.6-2.4,0.6c0,0,0.1-1.8,0.3-3.9c0.6-5.6,0.8-9.1,0.8-14.2c0-16.8-3.2-30.2-9.5-39.3C83.4,7.1,73.2,1.4,61,0.2
	C59.1,0,53.7-0.1,51.8,0.1z M57.8,12.9c11.6,0.8,19.3,5.7,23.5,14.7c3.4,7.3,5.2,18.2,4.9,30.1c-0.2,6.6-0.7,11.4-2,19.1l-0.6,3.8
	l-1.9,1.2c-9.9,5.9-25.3,17.1-32.4,23.7c-2.4,2.1-4.5,4.5-6.5,7l-1.2,1.6l-0.1-4.3c-0.3-12.3-0.4-40-0.2-54
	c0.2-7.9,0.3-20.5,0.3-27.8V14.5l1.4-0.3c3.3-0.7,7.7-1.3,11.5-1.5C54.7,12.7,56.3,12.8,57.8,12.9z M309.5,26.8
	c1.3,1.5,2,3.8,2.1,7.5c0.1,2.7-0.1,5-0.8,8.8c-2,9.7-6.7,19.7-13.1,27.5c-1.8,2.3-6,6.8-6.1,6.6c-0.1-0.1,0.9-6.7,1.8-11.5
	c3.3-17.9,6.8-28.8,11.4-35.6c1.1-1.6,3.4-3.9,3.8-3.9C308.7,26,309.1,26.4,309.5,26.8z M247.9,56.6c0.4,0.2,1,0.6,1.2,0.8
	c0.4,0.4,0.4,0.4-1.6,4.5c-3.9,8-5.9,11.8-8.8,15.9c-2.9,4.3-5.9,7.5-7.7,8.5l-0.8,0.4l-0.1-0.9c-0.3-2.2,0.1-5.2,1.3-9.6
	c1.4-5.3,3.5-10.2,5.8-13.6c1.6-2.4,4.1-4.9,5.8-5.7C244.6,56,246.6,56,247.9,56.6z M134.7,64.2c0.1,0.1-1.8,3.7-4.2,8
	c-2.4,4.3-6.2,11.2-8.4,15.3c-2.2,4.1-4.7,8.4-5.3,9.5c-1.5,2.5-4.3,6.7-4.6,6.9c-0.4,0.2,0-3.9,0.5-6.5c1.2-5.2,3.7-12,6.8-18.1
	c4.2-8.5,8.5-13.7,12.3-15.1C132.6,64,134.5,64,134.7,64.2z M413,70.6c1.3,0.6,3.1,3.9,3.9,6.9c0.4,1.3,0.5,2.4,0.5,5.4
	c0.1,4.4,0.3,4.1-2,2.6c-4.1-2.8-6.2-6.8-5.9-11.3c0.1-2.8,0.8-3.9,2.4-3.9C412.2,70.3,412.7,70.5,413,70.6z M381,88.6
	c0.3,0.8,0.4,1.7,0.4,3.6c0,6-2.3,13-6.2,19.4c-1.3,2-4.1,5.9-4.3,5.9c-0.3,0,0.1-7.4,0.5-9.8c1.2-6.7,3.1-12.3,5.8-16.4
	c1.1-1.8,2.9-3.8,3.3-3.8C380.5,87.5,380.8,88,381,88.6z M77.5,102.7c-2.9,8-5.4,13.3-9.3,19c-4.1,6.1-8.8,9.9-13.3,10.8
	c-1.7,0.4-4,0.3-4.9-0.1c-2.3-1.1-1-6.7,2.8-11.8c2.7-3.6,7.1-7.6,15-13.6c4.2-3.2,10.8-7.9,10.9-7.8
	C78.8,99.2,78.2,100.8,77.5,102.7z M246.8,121.3c0,0.6-1.9,9.7-2.6,12.5c-1.8,7-4.1,12.6-6.9,16.9c-1.8,2.7-4.7,5.6-6.7,6.5
	c-2.4,1.2-3.9,1-4.7-0.6c-0.4-0.8-0.5-1.2-0.5-3.5c0-3.6,1-7.1,3.2-11.7c3.2-6.4,8.7-13,15.5-18.4
	C246.5,121.1,246.8,120.9,246.8,121.3z M137.7,137.4c-8.5,1.9-15.2,11.1-17,23.6c-0.4,3.1-0.3,8.1,0.3,11.2c1.2,5.9,4,11.2,7.8,14.9
	c2.9,2.8,5.9,3.9,9.9,3.9c4.8,0,8.9-1.9,13-6c3.8-3.8,6.2-8.4,7.4-13.9c0.4-1.8,0.4-2.7,0.4-6.5c0-3.9-0.1-4.7-0.4-6.6
	c-1.6-7.5-5.8-14.3-11.5-18.5c-2.1-1.6-2.1-1.6-4.3-2C141.1,137,139.4,137,137.7,137.4z M143.2,143.9c3.5,2.6,5.6,5.2,7.6,9.3
	c3.3,6.7,3.5,15.7,0.3,21.9c-1.5,3.1-4.2,6.2-6.7,7.8c-3.4,2.2-7.3,2.5-10,0.7c-2.5-1.6-5.3-5.7-6.6-9.9c-3-9.2-0.3-21.7,6-27.7
	c1.6-1.5,2.9-2.3,4.7-3C140.7,142.2,141.2,142.3,143.2,143.9z M181.8,138.9c-2.1,0.1-6.1,0.2-8.9,0.3c-4.6,0.2-5.1,0.2-5.9,0.6
	c-0.8,0.4-1.7,1.4-2,2.2c-0.2,0.4-0.8,14.9-1,23.2c-0.1,4.5,0,9.9,0.5,16.5c0.4,5.4,0.8,7,1.9,7.9c1.3,0.9,3.1,0.5,3.8-0.9
	c0.3-0.7,0.4-1,0.2-4c-0.3-4.4-0.5-14.1-0.4-17.7l0.1-2.9l2.1,0.1c1.1,0.1,4.8,0.1,8.1,0c5.5-0.1,6.1-0.2,7-0.6
	c1.1-0.5,1.6-1.2,1.7-2.4c0.1-1.2-0.4-2.1-1.6-2.7c-1-0.5-2.7-0.5-9-0.2c-2,0.1-4.6,0.2-5.8,0.2h-2.2v-1.2c0-1.3,0.6-11.4,0.7-11.5
	c0,0,4-0.2,8.9-0.4c8.3-0.3,8.9-0.4,9.7-0.8c1.2-0.6,1.8-1.4,1.8-2.7c0-1.2-0.6-2.1-1.6-2.7C189.1,138.7,187,138.7,181.8,138.9z
	 M286.4,144c-1.3,0.1-5.3,0.2-8.9,0.4c-7.9,0.3-12.5,0.5-13.7,0.8c-1.3,0.3-2.1,1.3-2.1,2.6c0,0.8,0.1,1.1,0.5,1.6
	c0.8,1,1.6,1.1,7,1l4.8-0.1l-0.1,3.4c-0.1,1.9-0.4,6.7-0.8,10.8c-0.3,4.1-0.7,9.2-0.9,11.4c-0.2,2.2-0.6,7.6-1,12
	c-0.8,9.5-1,13.6-0.4,14.4c0.6,0.9,1.5,1.4,2.5,1.3c1.9-0.2,2.5-1.2,3-4.6c0.3-2.4,1.3-14.4,1.8-23.2c0.2-2.7,0.5-7.6,0.7-10.9
	c0.2-3.3,0.4-7.9,0.5-10.3l0-4.3l3.1,0c5.9,0,9.1-0.3,9.9-0.7c2.2-1.3,2.1-4.1-0.2-5.3C291.1,143.7,290.6,143.7,286.4,144z
	 M341.2,146.1c-3.5,0.2-6.8,0.4-7.2,0.5c-1.7,0.4-2.8,1.7-3.3,3.5c-0.7,2.4-0.8,6-0.8,23.9c0.1,20,0.2,25.8,0.8,27.2
	c0.4,1.1,1.7,2.2,2.9,2.4c1.3,0.3,19.8,0.3,21.3,0c1.2-0.3,2.5-1.3,2.7-2.3c0.4-1.4-0.7-3.1-2.3-3.5c-0.6-0.2-3.4-0.2-9.8-0.2h-9
	l-0.1-4.9c-0.1-2.7-0.2-7-0.2-9.6l0-4.7l7.4,0.1c7.1,0,7.4,0,8.2-0.4c2.1-1.1,2-3.8-0.1-5c-0.7-0.4-1-0.4-8.2-0.4l-7.5,0l0.1-8.9
	c0.1-4.9,0.2-9.5,0.2-10.2l0.1-1.2l7.3-0.6c4-0.3,8.5-0.6,9.9-0.6c3,0,3.7-0.1,4.4-1c1.1-1.3,0.4-3.1-1.4-3.7
	C354.7,145.7,351.8,145.6,341.2,146.1z M317.7,147.8c-0.2,0.1-0.6,0.4-0.9,0.7c-0.4,0.5-0.5,0.7-0.5,2.2c0,0.9,0.1,3.3,0.2,5.3
	c0.1,2,0.3,7.6,0.3,12.4l0.1,8.7l-1.9,0.1c-1.1,0.1-4.4,0.3-7.5,0.5c-3.1,0.2-5.6,0.3-5.7,0.3c-0.1-0.1-0.2-6-0.2-13.2
	c-0.1-9.4-0.2-13.2-0.3-13.5c-1.1-2-3.8-2-4.8-0.1c-0.5,1-0.7,10.6-0.6,31.1c0.1,15.6,0.1,16.5,0.4,17.2c0.5,1.1,1.4,1.7,2.6,1.7
	s1.9-0.5,2.5-1.6c0.4-0.7,0.4-1.3,0.5-8.3l0.1-7.5l2.3-0.1c1.3-0.1,4-0.2,6.2-0.2c2.2-0.1,4.6-0.2,5.5-0.2l1.5-0.1l0.4,8
	c0.4,8.6,0.5,10.3,1.1,11.3c0.8,1.4,2.6,1.9,4,1.1c1-0.6,1.5-1.7,1.5-3.5c0-1.4-0.8-16.1-1.2-21.9c-0.1-1.7-0.3-6.7-0.4-11.2
	c-0.2-8.8-0.4-12.4-0.9-15.2c-0.4-2.2-0.7-2.9-1.5-3.6C319.5,147.6,318.5,147.4,317.7,147.8z M129,193.7c-3.7,0.5-7.3,2.4-11,6
	c-2.2,2.2-3.9,4.1-6.4,7.9c-5.6,8.4-10.8,18.4-15.2,29.3l-1.6,3.9l0.1-10.9c0.1-11-0.2-26.2-0.5-28.4c-0.9-5.1-7.3-5.8-9.3-1.1
	c-0.8,1.8-1.2,6.2-1.6,16.6c-0.1,3.1-0.4,11.1-0.7,17.8c-1.1,27.8-1.4,41-1.2,69.7c0.1,24.5,0.4,34.8,1.2,37.4
	c0.9,2.9,3.3,4.7,6.3,4.7c2.4,0,4.7-1.5,5.8-3.8c0.4-0.8,0.4-1.3,0.4-3.7c0-1.5-0.1-4.4-0.2-6.4c-0.1-2-0.3-10.4-0.4-18.6
	c-0.1-12.9-0.1-15.5,0.2-18.7c1.6-17.8,4.7-32.9,10.1-49.2c6.6-19.8,16.4-37,23-40.2c1.8-0.9,2.7-0.9,3.6,0c0.8,0.7,2.1,3.4,2.7,5.6
	c0.9,3.1,1.2,5.7,1.2,10.4c0,11.9-3.1,21.8-10.9,35.5c-4.4,7.8-10.7,16.9-12.4,18c-5.7,3.8-10.4,9-11.3,12.7
	c-0.3,1.3-0.1,3.7,0.4,4.8c0.6,1.3,1.9,2.7,3.3,3.3c1,0.5,1.4,0.6,3,0.6c1.8,0,1.9,0,3.6-0.9c1.5-0.7,2.1-1.2,3.8-2.9
	c1.1-1.1,3.1-3.4,4.4-5.2c2.7-3.5,2.9-3.7,6.5-5.2c2.8-1.2,5.5-1.9,7.6-1.9c2.2,0,3.4,0.4,4.6,1.6c1.2,1.2,2.6,4.1,3.2,6.5
	c0.2,1,0.5,1.9,0.5,2c0.1,0.2-0.6,0.9-2.4,2.3c-12.4,9.9-18.2,15-22.4,19.6c-6.3,6.8-9.7,12.8-11.1,19.6c-0.5,2.5-0.6,8.3-0.2,10.5
	c1.6,8.3,7.1,14.5,14.3,16.4c2.1,0.5,6,0.5,8-0.1c5.7-1.6,11-6.1,15.6-13c4.8-7.4,8.7-18.6,10.8-31.1c0.8-5,1.2-9.4,1.2-15.1v-5.3
	l2.4-2.1c3.2-2.8,11.2-10.6,13.4-13.2c4.6-5.2,7.9-9.9,10.5-15.1c1.5-2.9,1.7-3.3,2.2-3.3c0.7,0,5.8,0.6,6.4,0.7
	c0.6,0.1,0.6,0.4,0.3,2.9c-0.3,2.4-0.9,5.2-2.5,12.3c-2.9,12.5-4.2,20-5.3,29.3c-0.5,4.3-0.5,13.4,0,16.2c0.8,4.9,2.3,8.7,4.4,11.2
	c1.3,1.6,3.3,3,5,3.6c1.6,0.6,4.3,0.6,6.1,0.2c2.5-0.6,5.3-2.5,7.4-4.8c3.2-3.5,5.9-8.6,11.6-21.8c6.2-14.3,6.6-15.2,6.7-14.8
	c0.1,0.2,0.2,1.4,0.3,2.6c0.4,6.8,1.9,14.9,4.1,21.2c3.1,9.2,7,15,11.6,17.2c5.5,2.6,11-0.4,12.7-7.2c0.3-1.3,1.6-9.6,1.6-10.4
	c0-0.1,0.6,0.7,1.5,2c2.8,4.3,6.6,7.4,10.6,8.8c1.7,0.6,1.9,0.6,4.9,0.6c2.8,0,3.3-0.1,5-0.5c4-1.2,7.8-3.6,11.3-7.1l1.9-1.9
	l0.9,1.5c4.1,7,10.6,11.5,19.1,13.5c2.9,0.6,8.4,0.8,11.5,0.2c5.8-1,11.7-3.4,17.8-7.3l2.1-1.3l0.8,0.9c4.6,5.2,9.4,9,15.2,12
	c7,3.5,12.3,3.8,18.1,0.9c4.8-2.4,7.6-5.5,13.7-15c6.6-10.3,15.9-26.7,21.7-38.3c4-8,4.5-9.6,3.9-11.8c-1-3.2-4.6-4.8-7.7-3.3
	c-1.4,0.7-2.1,1.6-3.8,4.7c-1.4,2.7-9.1,15.8-16.3,27.6c-13.1,21.6-15,24.2-18.5,25.1c-1.3,0.3-3-0.1-5.4-1.5
	c-3.5-1.8-6-3.7-8.9-6.6l-2.7-2.7l2.4-2.6c10-10.7,15.3-20.5,16.6-31.2c0.3-2.5,0.2-7.5-0.1-9.8c-0.9-6-2.9-10.4-6.2-13.8
	c-2-2-3.7-3.1-6.1-3.9c-2.2-0.7-5.9-0.7-8.2-0.1c-2.2,0.6-5.2,2.2-7.2,3.8c-5.7,4.6-10.4,13.7-12.2,23.5c-0.6,3.5-0.8,11.5-0.3,15.2
	c0.6,4.5,1.8,9,3.6,13.7c0.4,1.2,0.8,2.1,0.7,2.2c-0.4,0.4-4.2,2.6-6.1,3.6c-4.2,2.1-7.5,3.2-10.9,3.4c-5,0.3-9.5-1.3-12.8-4.4
	c-2.2-2.1-3.8-4.8-5.1-8.9l-0.5-1.4l2.2-3.6c7.1-11.5,13.8-25.9,18.2-39c5.1-15.1,7.1-29.9,5-37.3c-1.6-5.6-5.8-9.1-11-9.1
	c-6.7,0-13.8,6.1-19,16.4c-2.8,5.5-5.8,14.2-7.7,22c-0.4,1.7-0.8,3.1-0.8,3.1c0,0-0.5-0.2-1-0.6c-1.4-1-4.1-2.2-5.9-2.6
	c-7.8-2-16.8,1.8-21.7,9.2c-1.8,2.7-2.8,4.9-4.8,10.9c-2.7,8.1-4.8,16.9-8.1,33.6c-0.8,4-1.5,7.5-1.6,7.7c-0.3,1-2.9-7.1-3.9-12.1
	c-1.4-6.8-1.6-10.8-1.8-25.7c-0.2-12.2-0.2-12.4-1.2-14.3c-0.5-1.1-1.8-2.2-3-2.8c-2.2-1.1-4.7-0.7-6.6,1c-1.2,1.1-1.4,1.5-3,5.7
	c-2.8,7.5-4.4,10.9-13.6,29.3c-6.8,13.5-8.9,17.5-10.8,20.1c-1.1,1.5-2.1,2.6-2.2,2.5c-0.2-0.2-0.7-2.6-0.9-4.9
	c-0.5-5.2,0.3-13.6,2.3-24.9c0.7-3.8,1.4-7.3,3.6-16.9c1.6-7.1,2.1-10.2,2.3-13.5c0.2-5.1-0.7-8.1-3.2-10.6
	c-2.6-2.6-5.9-3.6-14.2-4.4c-0.4,0-0.4-0.2-0.6-1.8c-0.4-4.6-2.2-9.1-5.1-12.6c-2-2.4-5.2-4.4-8.5-5.3c-3.4-0.9-7.8-0.5-10.9,1
	c-3.7,1.8-6.8,5.6-7.9,9.6c-0.4,1.6-0.4,4.5,0,6c1.2,4.7,5.2,9,10.7,11.5c1.7,0.8,5.4,1.9,7.6,2.4l1.5,0.3l-0.8,1.4
	c-1.2,2.2-3,4.7-4.9,7.1c-2.1,2.7-7.5,8-11.5,11.5c-3,2.6-3.1,2.7-3.3,2.2c-3.2-7.9-8-12.4-14.9-13.8c-0.8-0.2-1.7-0.3-2.1-0.3
	c-0.4,0-1.1-0.1-1.4-0.1l-0.6-0.1l0.7-1.3c1.6-2.5,4.4-7.8,6-11.1c4.5-9.3,6.7-16.9,7.8-26.5c0.1-1.2,0.2-4.5,0.2-7.3
	c0-5.5-0.4-8.8-1.4-12.6c-2.4-8.8-7.7-14.5-14.5-15.4C130.9,193.5,130.7,193.5,129,193.7z M312.3,236.8c0,4.6-0.7,9.7-2.2,15.4
	c-2.2,8.4-7.8,23-12.6,32.8l-1.7,3.4l0-1.5c-0.1-6.6,1.3-17.2,3.2-25c2.3-9.4,5.7-18.2,9-23.1c1.3-1.9,3.8-4.7,4.2-4.7
	C312.2,234.1,312.3,235.3,312.3,236.8z M171.5,240.3c1.2,0.6,2.1,1.7,3,3.3c0.5,1.1,1.3,3.4,1.1,3.6c-0.1,0.1-2.7-0.4-4.2-0.9
	c-2.5-0.8-5.3-2.5-5.9-3.6c-0.3-0.6,0.5-2,1.5-2.4C168.3,239.6,170.2,239.7,171.5,240.3z M279.8,270.2c1.6,0.6,4,1.8,4,2.1
	c0,0.1-0.1,1.2-0.3,2.6c-0.8,6.9-0.9,16.5-0.2,23c0.3,2.9,1,7.6,1.2,8.6c0.1,0.4-0.2,0.9-1.3,2.4c-3.6,4.8-6.7,7.7-9.2,8.9
	c-2.7,1.3-4,1-6.1-1.3c-2.2-2.4-3.6-5.8-4.5-10.8c-0.6-3.4-0.7-10-0.3-14c0.8-7.1,2.5-13.3,4.6-16.7c1.3-2.2,3.6-4.1,6.1-4.9
	C275.2,269.3,277.7,269.5,279.8,270.2z M354.1,271.7c0.8,0.5,1.9,2.7,2.5,4.9c0.4,1.5,0.5,2.2,0.5,5.2c0,3.8-0.2,5.4-1.3,8.8
	c-1.6,5-5.4,11.2-10.1,16.4l-1.2,1.3l-0.2-0.6c-0.3-0.9-1.1-4-1.5-6c-0.3-1.5-0.4-2.8-0.4-6.7c0-4.5,0.1-5.1,0.6-7.4
	c0.7-3.2,1.5-5.5,3-8.6c1.8-3.8,3.8-6,6-7.1C353.1,271.2,353.3,271.2,354.1,271.7z M142.2,307.9c-0.7,7.6-3.3,18.3-6.1,25.1
	c-2.1,5.1-5.2,9.5-8.2,12.1c-1.1,1-3.2,2.1-3.9,2.1c-1.5,0-3.5-1.4-4.6-3c-2.2-3.5-2-9.2,0.5-14.5c1.7-3.6,4.4-7.1,9.1-11.7
	c3.2-3.1,12.7-11.6,13.1-11.6C142.2,306.3,142.3,307,142.2,307.9z M239.2,234.9c-3,0.4-6.3,2.5-8.8,5.6l-1,1.2l-1.6-1.6
	c-2-1.9-4.1-3.4-5.6-4c-1.6-0.6-4-0.6-5.3,0c-3.1,1.6-4.2,4.7-2.9,8.5c1.4,4.1,5,8.6,9.5,11.9c1.1,0.7,2.5,1.8,3.3,2.3
	c1.8,1.3,3.2,1.8,4.9,1.8c2.9,0,5-1.3,8.9-5.2c2.9-3,4.5-5,5.9-7.7c2.2-4.1,2-7.7-0.5-10.4c-1-1-2.8-2.1-4-2.3
	C240.5,234.8,240.2,234.8,239.2,234.9z"/>
</svg>
