<?xml version="1.0" encoding="utf-8"?>
<!-- Generator: Adobe Illustrator 27.0.0, SVG Export Plug-In . SVG Version: 6.00 Build 0)  -->
<svg version="1.1" id="Layer_1" xmlns="http://www.w3.org/2000/svg" xmlns:xlink="http://www.w3.org/1999/xlink" x="0px" y="0px"
	 viewBox="0 0 365.9 360" style="enable-background:new 0 0 365.9 360;" xml:space="preserve">
<style type="text/css">
	.st0{fill:#231F20;}
</style>
<path transform="translate(0.000000,2500.000000) scale(0.100000,-0.100000)" class="st0" d="M577,24998.9
	c-120.1-7.1-230.5-47.5-316.4-115.8c-90.4-72-166.1-195.7-201.1-328.7c-3.7-13.5-10.3-36.7-14.8-51.6
	c-66.6-214.2-58.9-451.8,23.6-722.4c53.9-177.7,166.7-431.1,287.4-646c89.4-159.2,213.5-349.1,330-504.8
	c57.8-77.3,180.4-229.2,257.8-319c93.7-108.7,256.1-280.3,371-391.6c42.5-41.5,80.6-80.8,115.1-119.7c62.3-70.2,72-80.6,153.8-165.8
	c81.2-85.1,122.7-123.5,172.3-161.1c43.6-32.9,74.1-49.4,117.1-63.2c28.6-9.2,29.4-9.5,58-9.2c24.5,0,31.1,0.9,43,4.9
	c18.3,6.2,34.8,17.4,49.4,32.9c6.4,7.1,24.5,23.4,39.7,36.7c33.9,29,139.8,134.5,179.6,178.7c105,117.1,273,323.9,381.7,469.8
	c76,102.3,212.2,295.4,297.3,421.7c164.3,244.2,258,404.7,382.8,656.3c158.8,319.7,255.6,588.8,320.3,888.9
	c34.4,160,42.5,276.7,26.9,387.5c-17.8,127-69,235.4-138.1,293.4c-26,21.9-43,32-101.8,61.2c-69,33.9-104.4,45.8-167.1,55.6
	c-39.7,6.2-123.1,6.7-164.3,1.1c-124.4-17.2-230.3-55.6-362-131.5c-177.4-102-329.5-227.7-472-389.9
	c-93.9-107-183.9-235.2-254.8-363.5c-33.5-60.6-85.5-167.8-108.9-224.7c-4.5-11-8.8-19.1-9.7-18.3c-0.9,0.9-12,24.9-24.7,53.3
	c-59.9,133-123.7,266.6-170.8,357.7c-102.7,198.3-193.3,326.3-323.3,456.7c-85.7,85.9-159,147.4-238.4,199.6
	C931.3,24949.5,743.5,25009,577,24998.9z"/>
</svg>
