<?xml version="1.0" encoding="utf-8"?>
<!-- Generator: Adobe Illustrator 27.0.0, SVG Export Plug-In . SVG Version: 6.00 Build 0)  -->
<svg version="1.1" id="Layer_1" xmlns="http://www.w3.org/2000/svg" xmlns:xlink="http://www.w3.org/1999/xlink" x="0px" y="0px"
	 viewBox="0 0 583.6 360" style="enable-background:new 0 0 583.6 360;" xml:space="preserve">
<g transform="translate(0.000000,2500.000000) scale(0.100000,-0.100000)">
	<path d="M1809,24997.6c-16.7-3.1-30.9-10.5-38.6-19.6c-15.3-18.2-67-230.8-112.4-462.7c-50.2-256.9-106.4-623.6-128.9-840.2
		c-3.7-34.9-3.7-35.5-10.5-35.2c-133.4,7.9-353.7,8.5-484,1.1c-82.9-4.5-212-13.6-279.3-19.9c-33.5-3.1-61.6-5.7-62.4-5.7
		c-1.1,0-0.9,25.8,0.3,57.3c0.9,31.8,3.1,119.5,4.8,195.3c2,75.8,5.1,216.3,7.4,312.2c9.9,418.1,11.1,509.8,7.4,580.5
		c-4.8,95.4-11.6,133.1-25.8,143.3c-25,17.6-87.7,13.3-100.8-6.8c-2.6-3.7-7.1-31.2-11.4-65.6c-4-32.9-15.6-118.4-25.5-190.2
		s-20.7-151.6-23.8-177.4c-37.2-305.7-59.9-550.9-68.4-746.5c-1.7-39.7-4.3-85.7-5.1-102.2l-2-29.5l-34.1-5.1
		c-90.8-13.6-172-32.9-241.8-57.6c-42.6-15-47.7-18.2-51.9-31.2c-6.8-20.4,9.1-64.4,31.2-86.6c15.3-15.3,24.1-16.5,72.4-9.1
		c97.9,15,218,31.8,219.4,30.7c0.6-0.9-0.3-90.5-2-199.5c-6.8-423.5-2-743.1,12.5-813.2c8.2-39.7,19.6-53.1,52.5-61.9
		c19.6-5.4,63.6-4.5,84.3,1.4c25.5,7.1,37.2,18.2,42.3,39.7c6.2,27.5,16.2,172.3,23.8,353.4c4,97.1,22.1,576.2,24.4,649.4
		c2,58.2,2.3,60.5,7.9,61.6c19,4.3,269.9,26.4,383.5,33.8c143.6,9.7,295.8,15.9,391.1,15.9c41.7,0,47.4-0.6,47.4-4.5
		c0-2.6-3.1-43.1-7.1-90.3c-14.5-175.1-30.4-400.5-40.9-585c-13.6-230.2-15.6-289-15.9-444.2c0-148.7,0.3-155.8,6.2-182.5
		c7.7-35.2,16.2-49.7,34.3-59.6c46-25,134.5-19.6,161.5,9.7c21,23,30.1,94,67.6,524.8c33.2,383.8,84,986.6,93.7,1108.4
		c17.9,228.5,44.6,530.8,75.2,854.4c4.5,48.5,10.5,116.7,13.1,151.9c4.8,68.4,6.8,169.7,3.1,182.2
		C1898.4,24992.8,1849.3,25005.6,1809,24997.6z M3137.4,24526.1c-69.3-10.2-121.8-68.4-197-218.8
		c-141.4-281.9-227.4-604.9-258.6-971.3c-2.3-27.2-3.7-90.8-3.7-177.4c0.3-144.8,1.7-171.2,17.6-282.4l7.4-53.9l-15.9-29.2
		c-8.8-15.9-23-40.3-31.5-53.9c-16.2-25.8-51.9-71.8-57.3-73.5c-4.3-1.4-19.3,40.3-29.5,81.5c-25.5,105.3-30.4,193.6-25.3,466.9
		c3.7,194.2,2.6,226.8-7.9,259.7c-7.1,22.1-25.3,39.7-49.1,48c-36.6,12.5-81.7,10.8-100.8-4c-6.8-5.1-11.1-12.8-18.4-33.2
		c-16.2-46-40.6-105.3-92.2-225.1c-27.8-63.9-78.1-185.4-112.1-269.7c-87.1-216.3-100.2-246.9-102.8-240.7
		c-3.4,8.8-13.1,84.6-19,149.9c-9.4,102.5-14.2,188.5-17.3,323.6c-3.7,162.6-7.7,262.3-11.4,283.8c-3.7,21.9-9.1,29.2-29.5,39.5
		c-14.5,7.4-19.6,8.2-42.3,8.5c-29,0.3-44-4.8-52.5-17.6c-10.8-16.5-49.1-155.5-65.6-237.6c-54.8-275.6-46.8-525.7,22.1-685.5
		c29.2-68.1,62.2-100.8,118.1-117.8c30.4-9.1,72.7-13.3,101-9.7c57.6,7.1,76.6,24.7,104.2,95.9c7.7,19.6,45.1,129.2,83.2,243
		l69.3,207.2l1.7-48.3c3.1-84.9,13.6-148.5,33.8-207.2c33.2-96.5,75.5-154.4,134.8-183.9c24.1-12.2,46.6-18.2,80-21.6
		c67.3-7.1,113.3,13.1,156.4,67.6c7.7,9.7,12.5,13.6,13.3,11.1c0.9-2,6-20.2,11.4-40.6c16.5-59.9,27-77.8,52.5-90.5
		c21.3-10.8,39.5-14.5,71-14.5c52.8,0,64.4,6.8,75.5,45.4c25,87.4,111.6,264,178.8,364.7c25,37.5,69,94.8,71.2,92.8
		c0.6-0.9,5.7-17,11.1-36.3c15.6-55.6,30.1-133.4,36.3-192.7l1.7-15.6l-32.1-23.3c-47.4-34.3-81.5-63.9-124-107.6
		c-78.3-80.3-116.4-144.8-116.4-197c0-78.6,63.3-122.9,176-122.9c51.1,0,82.3,7.4,129.2,30.7c37.2,18.2,61,35.8,89.7,65.9
		c25.8,27.2,40.3,48.8,54.2,81.2c27,62.4,36.9,143.6,30.1,243.3l-2.3,29.8l38.9,26.1l39.2,26.4l6.2-66.1
		c14.2-150.7,37.8-299.2,50-318.2c7.7-11.6,23.3-21.6,45.1-29.2c39.2-13.6,105.9-11.6,129.1,3.7c14.5,9.4,16.5,16.2,16.7,62.2
		c0.3,37.5,1.1,45.7,7.7,67.3c17.6,57.9,60.7,151.3,96.8,208.9c42.6,68.1,101.9,134.5,137.1,153.3l17.3,9.1l10.5-11.9
		c15.6-18.2,32.4-48,46.3-83.2c9.9-25,11.9-31.5,8.8-33.5c-137.9-81.5-218.6-156.7-262.3-244.7c-20.4-41.7-25.3-60.2-25.3-100.8
		c-0.3-39.2,6-62.7,23.8-90.5c37.8-58.2,101.6-86.3,195.9-86.3c113.8,0.3,194.7,65,245.5,196.7c21.9,56.2,30.9,108.1,30.9,174.6
		c0,50.8-3.4,78.3-13.9,117.8c-2.3,8.5-3.7,15.6-3.4,15.6c13.3,6.8,84.3,61.6,96.8,74.9c9.7,9.9,13.1,9.1,13.1-3.1
		c0-14.5,13.9-78.9,23-105.9c14.8-44.3,32.1-73.5,59.3-100.8c18.5-18.7,29.2-26.7,45.4-34.6c42.6-20.7,80-28.7,133.4-28.4
		c86.9,0.6,145.9,42.3,209.2,147.6l18.2,30.4l-1.7-100.8c-0.9-55.3-2.3-108.4-3.1-117.8l-1.4-17.3l-37.2-26.7
		c-88.8-64.4-170.6-137.9-221.7-199.5c-89.1-107.3-161.5-249.5-204.4-400.8c-22.7-79.8-32.4-134.5-35.2-200.1
		c-7.1-170.6,58.2-256.6,208.3-274.2c66.1-7.9,124,1.7,176.6,28.7c74.9,38.6,134,114.4,207.5,266.8
		c93.7,193.3,123.2,341.2,139.1,696.8c1.7,38.3,3.7,77.5,4.5,87.4l1.7,17.6l35.8,25c95.7,66.7,248.4,165.8,346.9,225.4
		c118.1,71.2,224.5,126.3,273.6,141.4c47.4,14.5,56.5,21,51.1,36c-4,11.4-28.7,23.3-56.2,27c-27,4-68.4-0.3-109-10.8
		c-93.7-24.4-262.6-109-472-237.3c-35.5-21.6-65-39.2-65.3-39.2c-0.6,0-0.6,23.3-0.3,51.7c1.4,67.6-4,251.8-9.4,325.9
		c-4.3,57.1-14.5,158.4-23,225.7c-7.7,61.9-15.3,76.6-46.6,90.5c-36.3,16.5-93.1,20.4-125.2,9.1c-23.8-8.5-26.4-13.9-36.6-69.8
		c-19.6-108.7-50.2-225.7-91.4-347.4c-35.5-106.4-78.6-194.7-121.2-247.8c-6.5-8.2-12.8-15-14.2-15c-2.6,0-17.9,48.8-25.8,82.3
		c-19.9,86-38,234.7-42.9,347.7c-1.4,37.5-4,72.7-5.4,78.3c-9.7,35.5-85.7,57.9-142.5,42.3c-15-4.3-27.2-15.6-30.4-27.8
		c-1.4-5.7-6.5-27.8-11.6-48.8c-29-120.3-77.5-213.5-143.6-275l-19.3-18.2l-8.5,11.1c-15.6,19.6-39.7,44.3-54.5,55.1
		c-69,51.4-180.2,62.4-258.9,25.5c-49.1-23-95.7-67-153.8-145.6c-11.6-15.6-19-23.6-20.2-21.3c-2,4-9.9,98.5-12.5,151.3l-1.7,34.1
		l21.9,24.1c189.9,210,310,505,353.4,868.6c8.5,69.8,9.4,184.2,1.7,231.3c-14.8,93.4-43.7,151.3-87.1,173.1
		c-23.8,11.9-38.9,15.9-71,17.6c-54.8,2.8-83.2-8.2-122.3-47.4c-71.2-71.8-123.2-185.1-185.4-403.6
		c-71.2-250.1-94.5-382.9-109.6-628.2c-2.6-43.4-8.2-198.1-8.5-237l-0.3-15.6l-21.9-18.7c-26.4-22.7-71.5-57.6-72.4-56.2
		c-0.6,0.6-5.7,18.5-11.6,39.5c-12.5,44.6-30.4,90.5-45.7,118.1c-14.8,26.7-43.1,54.2-67.8,65.9c-37.2,17.9-98.5,25.5-138.5,17.3
		c-66.4-13.6-129.7-83.2-214.3-235.6l-30.7-55.1l-2,19.9c-4.5,46.3-10.8,134.5-10.8,150.2c0,14.8,4.5,28.7,37.2,113.5
		c172.9,449.3,264.8,732.3,308.8,951.2c26.1,129.7,36,218.8,33.5,296.6c-2.3,65.3-11.1,100.2-31.5,124
		C3237.8,24517.9,3181.9,24532.7,3137.4,24526.1z M3174.5,24342.2c0-49.1-1.4-76.1-5.1-102.2c-19-134.5-55.4-280.4-131.4-526.5
		c-35.8-116.1-128.3-390.9-133.1-395.7c-0.9-0.9-0.6,8.8,0.3,21c0.9,12.5,2.8,46.3,4.5,75.2c12.8,231.3,63.3,504.1,130.9,709.6
		c37.8,115.5,91.4,244.1,120.9,290.7l7.1,11.6l2.8-8.5C3173.1,24412.9,3174.5,24378.8,3174.5,24342.2z M3955.1,24175.6
		c18.4-82.3,15.6-190.7-8.5-334.4c-30.9-185.1-107.6-414.1-189-564.9c-11.1-20.2-20.7-37.8-21.9-38.9c-4.3-4.8,6,150.4,15.6,230.5
		c22.4,189.3,90.5,489.3,139.1,612.5c18.7,47.4,52.8,114.1,58.2,114.1C3949.7,24194.6,3952.6,24186.1,3955.1,24175.6z M4130,22641.4
		c-0.3-21.3-6.5-77.5-11.4-100.5c-11.9-57.6-36.9-114.7-68.1-157c-17.9-24.1-41.2-45.4-45.4-41.2c-6.8,6.8-17,33.2-19.9,50.5
		c-7.7,48.3,13.6,107.9,62.2,172c20.7,27.8,73.8,82.3,79.8,82.3C4128.8,22647.6,4130,22644.8,4130,22641.4z M3239,22572.7
		c-11.6-48.3-29.2-84.9-58.2-118.9c-14.2-17-40.9-39.5-44.6-37.2c-4.5,2.6-2.8,31.2,3.1,49.7c9.7,31.5,40,76.1,80.6,118.6
		C3246.6,22612.4,3248.1,22611.6,3239,22572.7z M4880.7,22282.3c-9.7-149-16.2-213.7-29.8-295.5c-25-148.2-80.6-299.2-147-399.4
		c-19-29-57.3-69.8-73.8-78.9l-9.1-5.1l-5.7,9.4c-8.2,13.6-18.7,48.5-23,75.8c-4.8,33.8-1.7,114.1,6,159.2
		c29.5,170,113.3,360.8,212.9,484c17.3,21.6,67.6,75.2,70.4,75.2C4881.9,22307,4881.6,22296,4880.7,22282.3z"/>
	<path d="M0.6,23085.6l0.9-1512.3l2090-0.9l2089.7-0.6v21.3v21.3H2120.3H59.6v1464.6v1464.6h171.4h171.4l1.7,6.5
		c0.9,3.4,1.7,15.6,1.7,27v20.4H203H0L0.6,23085.6z M2059.9,24573c-0.9-13.9-0.9-25.8,0-27c0.6-1.4,734.9-2.3,1631.8-2.3h1630.4
		v-755v-755h41.2h41.2v782v782H3732.9H2061.6L2059.9,24573z M5324.1,22449.8c-1.1-0.9-2-189.3-2-418.7v-416.7h-120.4h-120.4l-1.1-19
		c-0.6-10.8-0.6-20.2,0-21.3c0.6-1.4,73.5-2.3,162.6-2.3h161.5v440v440h-39.2C5343.7,22451.8,5325,22450.9,5324.1,22449.8z"/>
	<path d="M2146.7,22132.5c-46.6-12.5-74.7-46.3-74.7-89.1c0-51.1,30.4-76.9,116.1-98.2c55.6-13.6,74.9-24.7,82.3-46.6
		c4.5-13.6,3.7-25.5-2.3-38.6c-11.4-24.4-34.3-36.3-71-36c-13.3,0-30.7,1.4-38.3,3.1c-17.6,4.3-45.1,17.9-59.9,29.8
		c-17.3,14.2-17,14.2-29.5-0.9l-11.6-13.9l15-11.1c32.9-24.7,60.5-36,99.9-40.9c60.5-7.4,111,14.5,130.9,56.5
		c6.2,13.1,7.7,20.2,7.7,37.5c0,51.9-28.1,76.4-112.1,97.6c-43.7,11.4-56.2,15.9-69.5,26.1c-12.8,9.7-18.7,22.4-18.7,40.3
		c0,19.6,10.8,35.5,30.7,45.7c11.9,6.2,17.9,7.4,39.7,7.4c34.9,0,62.2-8.2,85.7-25.8c4.8-3.7,10.2-6.8,11.9-6.8
		c1.4,0,7.4,6,13.1,13.3l10.2,13.3l-7.9,6.2c-13.6,11.4-47.7,26.7-67.8,30.9C2202.1,22137.6,2166,22137.6,2146.7,22132.5z
		 M2907.4,22132.5c-19.9-5.4-33.8-12.8-48.8-25.8c-12.2-10.8-34.3-36.6-34.3-40.6c0-1.1,5.7-6.2,12.8-11.4l13.1-9.4l18.7,20.4
		c10.8,11.6,24.7,23.3,32.6,27.2c36,18.2,78.6,9.4,98.8-20.4c5.4-8.2,7.4-15,8.2-31.5c0.9-19,0-22.7-7.9-38.9
		c-12.2-25-34.1-47.1-115-118.1l-69.5-61l-0.3-14.8v-15H2935h119.2v17v17l-90,0.6l-90,0.9l60.7,54.2c73.2,65,90.3,82.9,102.8,108.1
		c8.8,18.2,9.4,21,9.4,49.1c0,27.5-0.6,30.9-8.2,44.8c-10.5,18.7-26.1,33.2-46.6,42.6C2972.4,22136.7,2930.7,22139,2907.4,22132.5z
		 M3225.3,22134.2c-17-4.3-40.9-18.4-55.9-32.9c-38.3-37.2-54.5-83.5-51.9-149c2-56.2,18.4-97.1,51.7-128.6
		c41.2-39.5,104.2-47.1,153.6-18.7c33.2,18.7,64.1,65,73.5,109c5.4,25.3,5.4,73.8,0,99.1c-10.2,48.8-42,92.8-80.3,111.6
		c-20.2,10.2-23,10.8-51.4,11.4C3248.1,22136.2,3230.2,22135.3,3225.3,22134.2z M3297.7,22092.7c19-10.2,34.6-27.2,46-49.4
		c11.9-23.8,17-48,17-81.2c0-46.8-12.5-84-37.5-111c-34.6-37.5-90.5-37.5-127.4,0c-25.5,25.8-39.5,65.3-39.5,112.4
		c0,49.7,14.5,88.6,42.9,115c21,19.3,34.3,24.4,62.2,23.3C3278.7,22101,3285.8,22099.3,3297.7,22092.7z M3540.4,22132.5
		c-19.9-5.4-33.8-12.8-48.8-25.8c-12.2-10.8-34.3-36.6-34.3-40.6c0-1.1,5.7-6.2,12.8-11.4l13.1-9.4l18.7,20.4
		c10.8,11.6,24.7,23.3,32.6,27.2c36,18.2,78.6,9.4,98.8-20.4c5.4-8.2,7.4-15,8.2-31.5c0.9-19,0-22.7-7.9-38.9
		c-12.2-25-34.1-47.1-115-118.1l-69.5-61l-0.3-14.8v-15h119.2h119.2v17v17l-90,0.6l-90,0.9l60.7,54.2c73.2,65,90.3,82.9,102.8,108.1
		c8.8,18.2,9.4,21,9.4,49.1c0,27.5-0.6,30.9-8.2,44.8c-10.5,18.7-26.1,33.2-46.6,42.6C3605.4,22136.7,3563.7,22139,3540.4,22132.5z
		 M3822,22019.5c-99.9-121.8-97.9-118.6-90-138.8l3.4-7.9h89.4h89.4v-39.7v-39.7h18.5h18.4v39.7v39.7h25.5h25.5v17v17h-25.5h-25.5
		v113.5v113.5h-17.6l-17.9-0.3L3822,22019.5z M3913.4,21907.7c-0.6-0.6-32.4-0.6-70.7-0.3l-69.5,0.9l69.8,85.7l69.8,86l0.9-85.7
		C3914,21947.4,3914,21908.2,3913.4,21907.7z M1757,21962.2v-168.9h123.5H2004v17v17l-104.2,0.6l-104.5,0.9l-0.9,59l-0.6,58.8h93.7
		h93.7v17v17l-92.8,0.6l-93.1,0.9l-0.9,57.6l-0.6,57.3h103.6h103.6v17v17h-122.1H1757V21962.2z M2358.8,22114v-17h56.8h56.8v-151.9
		v-151.9h19.9h19.9v151.9v151.9h56.8h56.8v17v17h-133.4h-133.4V22114z"/>
</g>
</svg>
