<?xml version="1.0" encoding="utf-8"?>
<!-- Generator: Adobe Illustrator 27.0.0, SVG Export Plug-In . SVG Version: 6.00 Build 0)  -->
<svg version="1.1" id="Layer_1" xmlns="http://www.w3.org/2000/svg" xmlns:xlink="http://www.w3.org/1999/xlink" x="0px" y="0px"
	 viewBox="0 0 300.7 360" style="enable-background:new 0 0 300.7 360;" xml:space="preserve">
<path transform="translate(0.000000,2500.000000) scale(0.100000,-0.100000)" d="M56.6,24997.5c-16.4-7.5-16.6-8.9-26.3-150.1
	C6.3,24494,0,24316.3,0,23981.2c-0.2-199,0.2-221.9,3.2-240.5c2-11.6,5.3-24.3,7.5-28.8c10.1-19.7,30.6-27.6,67.5-26.1
	c17.2,0.6,25.1,1.8,32,5.1c13.6,6.1,17,10.7,15.4,21.3c-0.8,4.9,0,39.3,1.8,76.6c10.9,245.8,13.6,576.5,7.1,890.5
	c-2.8,138.6-6.9,211.7-15.4,277.6c-4.9,38.1-8.5,42.3-37.9,43.2C68.7,25000.2,60.6,24999.6,56.6,24997.5z M979.1,24992.1
	c-96.2-10.1-162.7-72.5-182.2-171c-4.3-21.3-3.6-87.3,1-115.1c13.2-80,50.7-183.6,118.7-328.7c70.9-151,81.1-173.7,101.9-230
	c37.5-100.9,54.1-182.8,54.1-269.5c0-67.5-9.7-124.8-27.4-161.1c-13.2-27.4-12.8-26.7-26.3-21.3c-19.5,7.9-51.3,30.6-69.1,49
	c-26.1,27.2-41.3,51.9-52.3,84.9c-9.5,28.2-12.2,50.7-10.5,85.3c1.4,26.5,1.2,28-2.8,32c-7.1,7.1-18,10.5-36.7,11.8
	c-20.5,1.2-37.3-2.8-46.4-11.3c-4.9-4.5-7.3-9.9-12.6-29.8c-6.3-23.3-6.5-25.9-6.5-61.8c0-44,2.6-56.5,18.6-90
	c23.3-48.4,63.6-87.7,117.1-114.5c24.9-12.4,58.2-23.1,85.7-27.6c31-5.3,75.6-3.4,100.5,3.8c47.4,14.2,74.8,39.7,95.2,89.4
	c23.3,55.9,32.4,152.6,23.1,240.1c-6.7,61.8-23.9,130.3-51.9,205.7c-19.5,52.3-29.8,75.8-105.6,237.5
	c-87.7,186.8-120,288.3-120,377.3c0,41.9,8.1,75.8,25.3,106.8c8.1,14.6,26.1,35.1,36.7,41.3c6.7,4.3,7.3,4.3,16.6,1.2
	c13.4-4.5,38.1-18.8,53.5-31.2c37.7-30,66.5-69.5,100.9-138.2c26.5-52.9,37.5-67.9,54.5-74c16.2-5.7,42.3-3,49.6,4.9
	c3.2,3.4,3.2,5.5,1.2,19.9c-15.6,103.1-56.3,183.8-116.3,230.4c-41.1,32-83.1,48.6-134.7,53.9
	C1009.1,24994.5,1001.8,24994.5,979.1,24992.1z M2365.5,24892.2c-13-3.4-26.7-11.5-30.2-17.6c-6.5-11.5,4.1-25.3,32.2-41.5
	c15.6-9.1,15.8-9.3,14.2-15.6c-3.8-14.2-10.1-63.6-14.2-108.8c-15.6-181.8-17.2-301.3-10.1-738.6c5.5-352.6,5.3-347.7,16-366.8
	c24.5-43.6,124.8-49.6,233.2-14c105,34.4,214.8,123.2,286.5,231.4c55.1,83.3,92.2,181.8,109.2,290.2c5.7,37.3,6.3,126,0.8,163.1
	c-16,108-43.2,192.3-88.5,273.9c-55.3,99.5-114.1,163.1-201,217.2c-55.9,35.1-225.9,111.6-277,125
	C2415.3,24895.6,2381.7,24896.6,2365.5,24892.2z M2518.1,24759.6c71.1-34.4,111.6-61.8,151.4-101.5
	c77.4-77.6,139.4-196.3,166.2-318.3c24.1-110.2,23.7-193.3-1.2-293.6c-18.8-76.2-52.7-153.4-92.4-211.1
	c-39.9-58.4-103.1-120.8-156.8-155.2c-20.7-13.4-60-33-65.4-33c-0.8,0-2.6,38.1-3.8,84.7c-5.3,178.5-11.1,319.3-22.7,552.6
	c-4.5,88.1-9.9,217-12.2,286.7c-4.3,134.5-5.5,167.8-7.3,193.1c-0.8,10.9-0.6,15.6,1,15.6
	C2476.1,24779.5,2495.6,24770.6,2518.1,24759.6z M1659.3,24860.4c-46.2-4.9-83.9-23.7-119.5-59.4
	c-62.6-62.8-113.1-162.3-133.7-264.2c-9.9-48.8-8.9-78.2,3-88.3c12-9.9,38.3-11.8,54.3-3.8c6.5,3.2,7.5,4.9,9.7,15.8
	c6.3,31,35.1,104.4,61.6,156.8c24.9,49.2,49,85.1,85.7,127.5c15.6,18.2,45,45,49.2,45c9.9,0,27.4-54.3,33.2-103.3
	c6.1-51.3,5.7-192.9-1-308.6c-4.9-87.1-11.8-190.9-12.4-191.7c-0.4-0.4-4.7,2.8-9.3,7.1c-31.6,29.2-73.8,44.8-126.4,46.8
	c-95.8,3.8-165.1-34.9-203.4-113.7c-22.7-46.8-26.1-87.3-9.7-120.8c7.9-16.4,37.9-47.2,61.2-62.8c59-39.5,142.2-61.6,218.2-58
	c15.2,0.8,32.4,2,38.1,3l10.7,1.6l-1.8-34.6c-2.6-55.7-2-148.5,1.2-159.3c6.3-21.1,29.4-31.4,69.1-31.2c35.5,0.4,59.6,9.7,64.6,25.5
	c5.3,16.4,33.2,393.9,47,632.8c5.3,91.4,7.5,263.8,4.1,314.1c-10.3,153.2-50.7,213.4-150.1,223.9
	C1681.6,24862.8,1682,24862.8,1659.3,24860.4z M1565.9,24175.3c16.2-8.7,46-38.1,59.8-59.4c13.8-21.3,26.5-47.6,35.7-74
	c11.8-33.8,14.8-49,13.6-69.3l-1-17.8l-13.4-4.3c-19.2-6.1-48.8-7.5-67.5-2.8c-44.8,10.7-95.8,45.8-110.2,75.4
	c-11.1,22.7-7.7,59,9.3,95.2c12.8,27.4,27.6,46.2,45.4,58.2C1547.7,24183.2,1550.7,24183.2,1565.9,24175.3z M2063,24833.4
	c-17.6-6.3-20.1-13.4-25.7-75.2c-22.3-245.4-40.5-506.2-46.8-668.7c-3.4-91.6-4.7-353-2-397.1c4.1-62.6,7.9-77.6,22.1-87.1
	c26.3-17.2,87.5-13.4,100.9,6.5c6.3,9.3,8.3,39.1,15,222.5c6.1,165.5,7.9,256.3,10.3,531.9c2.6,293.2,0.8,370.4-9.5,427.5
	c-4.5,25.1-8.9,33-21.1,38.3C2094.6,24837.1,2074.9,24837.7,2063,24833.4z M2750.3,23413.8c-12.4-2-23.3-7.5-28-13.4
	c-8.3-10.5-17.8-112.5-22.7-244c-4.5-119.1,1.6-449.6,12.4-675.6c2.2-45.6,4.1-90.6,4.1-99.9c0-15.2,0.6-17.4,4.9-21.9
	c6.7-6.7,23.5-11.1,42.1-11.1c33.6,0,44.8,6.9,53.1,32.8c14.6,46.2,16.4,92.4,16,432.2c-0.2,373-5.9,555.2-17.8,584.2
	C2808.8,23410.2,2776.4,23418.5,2750.3,23413.8z M600.8,23333.8c-17-4.9-21.9-9.3-26.5-24.9c-9.5-32.2-20.7-146.9-28.4-292.2
	c-2.8-51.7-2.8-174.5,0-216.8c4.9-75.4,13.4-141.8,26.5-207.7c30.2-151.6,71.5-241.3,126.2-274.4c46.6-28,124.8-29.2,174.5-2.6
	c14.8,7.9,39.1,33,53.7,55.1c36.9,56.1,81.5,163.5,138,331.3l23.7,70.9l-0.8-19.2c-0.6-10.5-2.2-56.5-4.1-102.3
	c-3.6-104.6-12.6-308.6-14.8-347.7l-1.8-29.6l-53.5-53.5c-58.4-58.2-82.3-85.1-119.1-133.9c-67.7-89.6-112.3-169.4-140.8-252.9
	c-38.5-112.5-44.2-228.2-15.4-314.1c19.2-57.3,52.3-93.4,100.1-109.4c25.9-8.7,43.6-10.7,80.8-9.5c37.9,1.2,55.1,5.1,82.3,17.8
	c43.8,20.3,73.4,52.7,100.7,109.6c61.2,127.9,99.3,357.4,118.5,715.9c2.2,39.7,2.6,42.8,6.7,46c23.3,18.8,148.3,102.9,152.8,102.9
	c1,0,3.4-7.1,5.5-15.6c16-68.7,41.3-129.7,74.6-180.1c16.8-25.7,49-59,67.1-69.5c25.3-14.8,55.7-22.5,89.8-22.5
	c44,0,75.6,11.5,100.7,36.9c26.3,26.7,52.1,66.7,84.5,131.3c56.9,113.9,100.1,232,131.7,360.7c4.9,19.5,8.7,35.7,8.9,35.7
	c1.2,1.8,198-192.9,206.7-204.2l5.7-7.5l-13.2-16.8c-57.5-74.2-123.6-187.2-147.9-252.9c-17-45.6-20.1-91.8-8.7-130.3
	c25.7-87.1,106.6-139.2,216.8-139.2c75.6,0,132.5,21.7,176.1,66.7c41.5,43.2,61.6,92,68.5,165.9c2.4,28.2,0.4,60-6.3,91.2
	c-12.8,60.8-49.2,130.9-103.1,198.6c-8.5,10.7-16.2,20.7-17,22.1c-2.8,4.5,63.2,81.3,111,129.3c46.6,46.4,81.7,74.4,131.7,104.8
	c35.5,21.3,40.3,27.4,31.4,38.5c-8.7,11.1-39.5,17.6-66.1,13.8c-24.7-3.2-87.3-31.4-129.7-58c-41.3-25.7-89.8-65.9-136.6-112.9
	l-25.3-25.3l-20.3,19.7c-11.1,10.7-38.9,37.1-61.8,58.4c-79,74-114.5,118.7-129.9,164.7c-18.2,54.1-3.4,140.2,34,200.2
	c6.1,9.7,14.6,22.3,19,28.2c20.1,25.9,57.7,58.8,79.8,69.5c8.5,4.1,10.3,4.3,17.8,2c26.9-7.9,50.3-24.3,89.6-62.8
	c34.2-33.6,38.1-35.9,61.4-39.5c17.8-2.8,45,5.9,45,14.4c0,4.3-21.7,46.6-31,60.6c-11.1,16.4-35.7,40.5-53.9,52.5
	c-66.5,44.2-162.5,48.4-238.3,10.7c-78.2-38.7-141.6-111.4-168.2-192.9c-19-58.2-21.5-110.8-7.1-156l6.1-18.6l-4.1-8.5
	c-7.9-16-28.4-68.9-50.9-131.3c-39.5-109-68.9-178.1-114.5-270.1c-30.6-61.2-48.4-93.2-73.1-130.5l-17.4-26.1l-10.7,17
	c-43,66.9-69.3,150.1-84.9,266.5l-1.2,8.1l28.6,22.9c31.6,25.3,83.5,74.8,105.2,100.3c72.3,85.1,107.6,161.1,126.2,271.9
	c6.3,37.5,6.7,105.6,1,132.5c-17.6,81.9-67.7,121.8-152.4,121.8c-81.5,0-130.5-34.9-175.7-124.6c-44.8-89.4-73.6-200.4-87.1-337.6
	c-2.4-25.1-3.6-144.1-1.6-175.3l1-16.2l-68.9-46c-37.9-25.1-69.3-46-69.9-46c-0.6-0.2,0,29.2,1.2,65c10.7,299.1,17,630.4,13.2,691.6
	c-2.6,42.1-4.3,50-13.2,58.8c-18.8,18.8-76.6,23.3-106.6,8.1c-15.6-7.9-16-8.9-22.3-52.1c-9.1-63-22.5-118.3-49.4-206.5
	c-63.2-206.5-137-386-204.2-498.3c-19.5-32.2-46.8-70.9-50-70.9c-1.2,0-8.5,13-16.2,29c-32,64.8-61.4,176.1-78,294.2
	c-14.4,103.1-19.5,196.1-19.5,363.7c0,129.1-3.6,212.2-10.3,235.9c-2.6,9.7-11.5,18.4-21.7,21.7
	C639.1,23336.6,613,23337.2,600.8,23333.8z M1641.9,23033.3c10.3-26.9,13-44.2,13-83.5c0-104.2-34.9-207.9-97.5-290.8
	c-14-18.4-37.3-45.8-38.3-44.8c-1,1,2.8,61.4,5.5,89.4c13.4,130.9,49,255.1,95.6,332.9C1632.2,23056.4,1633,23056.2,1641.9,23033.3z
	 M2253.2,22319.2c27.2-53.1,37.5-93.6,37.5-145.5c0.2-70.7-20.5-128.3-59.2-165.3c-13.2-12.6-23.1-19-29.4-19
	c-6.1,0-22.5,12-35.1,25.5c-28.6,30.4-40.7,78.4-31.8,125c7.9,40.5,39.7,108.8,86.9,185.6
	C2238.9,22352.3,2236,22352.9,2253.2,22319.2z M1054.3,22082.6c-25.5-317.9-79-548.1-141.4-608.7l-8.3-8.1l-5.3,5.1
	c-2.8,2.6-9.3,10.5-14.2,17.4c-43,59.8-53.3,174.5-26.3,288.9c21.7,91.6,73.1,193.7,147.9,293.2c17,22.7,50.3,63,51.3,62.2
	C1058.2,22132.2,1056.5,22109.7,1054.3,22082.6z M2779.9,22052.4c-28.4-4.7-46.8-13.6-61.4-29.6c-13.8-15.2-18.6-30-18.6-58.2
	c0-43.2,14.8-73.8,46-94.4c6.1-4.3,14.8-9.9,19.2-13c24.9-16.6,79.6-14.6,102.9,4.1c10.9,8.9,21.1,24.9,27.4,43.4
	c4.9,14.6,5.9,20.9,6.7,46.8c1.6,53.3-7.3,76-35.7,90.4C2847.9,22051.2,2805,22056.4,2779.9,22052.4z"/>
</svg>
