<?xml version="1.0" encoding="utf-8"?>
<!-- Generator: Adobe Illustrator 27.0.0, SVG Export Plug-In . SVG Version: 6.00 Build 0)  -->
<svg version="1.1" id="Layer_1" xmlns="http://www.w3.org/2000/svg" xmlns:xlink="http://www.w3.org/1999/xlink" x="0px" y="0px"
	 viewBox="0 0 976.4 360" style="enable-background:new 0 0 976.4 360;" xml:space="preserve">
<style type="text/css">
	.st0{fill:#231F20;}
</style>
<path transform="translate(0.000000,2500.000000) scale(0.100000,-0.100000)" class="st0" d="M3550.1,24998.7
	c-220.4-14.7-395.2-47-648.9-120c-163.6-47.5-405.5-131.7-636.7-222.3c-556.8-218.4-697.4-267.9-1035.8-364.9
	c-478.5-137.1-619.5-168-935.4-205.7c-201.3-24-247.8-35.8-279.1-72c-25-28.4-18.6-48,30.9-94c19.1-18.6,58.3-54.4,85.7-80.3
	c27.9-26,67.6-68.6,88.2-95c89.6-116.1,169.4-204.7,312-346.7c424.1-423.6,1127.9-997.6,1613.7-1315.9
	c379.1-248.8,728.7-423.1,1103.4-551c214-72.5,363.9-102.4,630.3-124.9c96-7.8,536.7-8.3,634.2,0c37.7,2.9,136.1,11.8,219.4,19.1
	l150.3,13.2l150.8-13.2c82.8-7.3,181.2-16.2,218.9-19.1c97.5-8.3,538.2-7.8,634.2,0c311.5,26.4,488.8,67.1,781.1,179.7
	c481.9,185.6,901.6,432.4,1451.1,853.1c638.6,489.2,1176.8,981.4,1427.1,1305.6c20.6,26.4,60.2,69.1,88.2,95
	c27.4,26,66.6,61.7,85.7,80.3c49.5,46,55.8,65.6,30.9,94c-31.3,36.2-77.9,48-279.1,72c-315.9,37.7-456.9,68.6-935.4,205.7
	c-338.4,97-479,146.4-1035.8,364.9c-428,168-763,270.3-1026,313.4c-139.6,22.5-213,28.4-364.9,28.9c-243.4,0.5-436.4-27.4-621-89.6
	c-242.9-81.8-407-186.6-568.1-362.4l-37.7-41.1l-37.7,41.1c-159.7,173.9-323.7,279.6-562.2,360.4c-117,39.7-248.3,67.1-395.2,82.3
	C3819,24996.8,3604.5,25002.7,3550.1,24998.7z M2088.3,23402.7c170.9-12.2,942.2-52.4,1280.7-66.1c267.9-10.8,670-13.7,1677.3-12.2
	c1143,1.5,1176.8,2,1770.4,31.8c716,36.2,742.4,37.7,929,51.9c54.9,4.4,101.9,6.9,104.8,5.9c5.4-2-119.5-70-267.4-145.9
	c-53.9-27.4-157.2-82.3-230.2-121.5c-209.6-113.1-356-178.8-560.7-251.7c-316.9-112.6-591.6-173.9-959.9-214.5
	c-152.3-16.7-215-19.1-588.7-25c-374.6-5.9-1000.5-0.5-1152.3,10.3c-152.8,10.8-376.1,39.7-544.1,70.5
	c-168.5,30.9-380.5,89.6-574.9,158.7c-207.6,74-345.8,136.1-563.2,252.7c-76.9,41.6-203.2,108.2-281.6,148.9
	c-129.8,67.1-211.6,111.2-217.9,117.5c-1.5,1,16.2,1,39.2-1C1971.7,23411.5,2034.4,23406.6,2088.3,23402.7z"/>
</svg>
