<?xml version="1.0" encoding="utf-8"?>
<!-- Generator: Adobe Illustrator 27.0.0, SVG Export Plug-In . SVG Version: 6.00 Build 0)  -->
<svg version="1.1" id="Layer_1" xmlns="http://www.w3.org/2000/svg" xmlns:xlink="http://www.w3.org/1999/xlink" x="0px" y="0px"
	 viewBox="0 0 404.9 360" style="enable-background:new 0 0 404.9 360;" xml:space="preserve">
<path d="M36.4,0.2c-2.4,0.7-4.1,1.7-6.3,3.8c-2.5,2.5-4.1,4.9-6.3,9.5c-3.5,7.1-5.7,14.3-8.2,26.7c-0.7,3.3-1.2,5.7-1.2,5.4
	c-0.1-1.9-1.6-20.2-1.9-23.1c-0.9-7.9-1.7-12.4-2.4-13.8C8.1,5,3,4.9,0.9,8.5c-1,1.8-1.2,4-0.6,11.7c0.2,2.5,0.5,8.9,0.7,14.1
	c0.8,18.4,1.6,26.4,4.7,48.4c0.6,4.4,2,14.5,3.1,22.3c2.1,15.4,2.2,16,2.7,18.2c1.1,4.6,3.8,7.1,7.6,6.9c3.3-0.1,5.6-2.2,6.5-5.8
	c0.4-1.5,0.3-5.8-0.1-12.1c-0.7-10.5-0.9-14.2-0.9-25.4c0-13.3,0.3-19,1.7-29.6c1.8-14.1,4.7-26.6,8-34.7c1.6-4,3.9-8.1,4.3-7.8
	c0.4,0.4,2.3,6.5,3.3,10.5c1.9,7.5,5.6,25.3,9.6,45.9c2.8,14.9,3.1,16.2,4.1,18.2c0.7,1.5,2.2,3.1,3.4,3.8c2.6,1.3,6.3,0.6,8.1-1.6
	c1.4-1.7,1.9-3.3,2.3-7.4c1.4-14.7,4.1-27.5,8.3-39.9c3.4-10.1,8-19,11.5-22.7l1.3-1.4l0.3,0.6c0.4,1,0.9,3.9,1.1,6.6
	c0.4,5,0.2,11.2-0.8,27.7c-1,14.8-1.1,21.1-0.9,27.2c0.9,18.1,4.8,27.9,12.3,30.4c1.8,0.6,4.6,0.6,6.2,0.1c5.2-1.7,9-6.2,12.1-13.9
	c0.2-0.6,0.3-0.5,1.1,2c2.8,8.1,6.7,13,12.5,15.8c3.7,1.8,7.4,2.5,11.6,2.1c5.8-0.5,11.2-3.1,15.9-7.7c3.3-3.2,5.6-6.5,7.9-11.3
	c4.5-9.3,5.4-18.9,2.7-28.7l-0.5-1.9l1.3-1.8c3.3-4.6,6.4-9.7,9.8-16.1l2-3.8l-0.1,2.2c-0.9,15.9-0.4,24.3,1.8,33.3
	c1.1,4.5,3.3,9.6,5.5,12.9c5,7.6,13.1,9.7,21.5,5.8c1.1-0.5,2.6-1.3,3.2-1.7l1.1-0.8l1.4,4.2c1.6,5,2.2,6.2,3.4,7.9
	c3.7,5.1,10.2,4.7,13.8-0.9c0.4-0.6,1.6-2.9,2.7-5.2c1.1-2.2,2.5-4.9,3-5.9c1.7-3.1,4.8-7.7,7-10.4c2.2-2.7,6-6.5,6.3-6.2
	c0.3,0.3,0.6,3.9,0.8,9.6c0.4,11,1,14.7,3.1,19c2.8,5.7,7.7,9.3,14,10.2c5.1,0.8,11.9-0.5,17.8-3.3l2.2-1l1.4,1.3
	c1.9,1.7,4.8,3.5,6.9,4.3c4.7,1.8,10.7,2,15.9,0.4c11-3.4,23.1-16.6,29.8-32.5c2.9-6.8,5.5-15.7,6.6-22.2l0.3-1.6l3.2,0.1
	c1.8,0.1,3.2,0.2,3.3,0.2c0,0-0.4,2-0.9,4.3c-1.7,7.5-2.7,13.7-3.4,21.2c-0.4,4.3-0.3,12.7,0.2,16c1,6.3,3.1,12.1,5.8,16.3
	c2.6,3.9,6.4,6.7,10.3,7.7c1.9,0.5,5.2,0.3,7.2-0.3c4.6-1.5,8.8-5.4,12.8-12c1.6-2.7,2.3-3.9,5.6-10.2c1.4-2.7,3.2-6.1,4.1-7.6
	c0.9-1.5,1.7-3.3,1.9-3.9c1.5-5.3-3.5-10.1-8.5-8.2c-2.3,0.9-3.9,3.2-10,14.9c-3.2,6.1-4.7,8.7-6.5,11.1c-1.2,1.7-2.9,3.2-3.5,3.2
	c-0.1,0-0.7-0.5-1.3-1.1c-2.4-2.5-4.3-7.8-4.9-13.6c-0.8-7.5,0.5-19,3.6-32.2c1.9-8.3,1.9-11.5-0.1-14.4c-1.3-2-3.6-3.4-6.3-4
	c-0.8-0.2-3.7-0.4-6.5-0.5c-2.8-0.1-5.1-0.2-5.1-0.3c0,0-0.1-1.2-0.3-2.5c-0.9-9.8-5-18.2-11.1-22.8c-4.1-3.1-9.1-4.7-13.3-4.1
	c-5.4,0.7-9.9,4.1-12.3,9c-1.1,2.3-1.5,3.8-1.6,6.7c-0.2,3.9,0.5,6.9,2.1,10c3.3,6,11.3,11.6,19.9,14.1c1,0.3,2,0.6,2.1,0.6
	c0.8,0.2-2.8,13.4-5.4,19.9c-4.3,10.5-11.5,19.9-18.4,24.3c-2.7,1.7-4.3,2.2-7.3,2.2c-2.2,0-2.5,0-3.7-0.6c-2.4-1.2-2.4-1-0.4-3.3
	c4.9-5.6,10.3-14.4,12.3-20.2c2.6-7.4,2-14.3-1.7-20.5c-4.6-7.6-12.8-9.7-19.8-5c-1.8,1.2-4.3,3.8-5.8,6.1c-1.5,2.3-3.6,6.7-4.5,9.4
	c-0.9,2.6-1.7,6.5-2,9.5c-0.6,5.9,0.1,13.3,1.7,18.1c0.5,1.6,0.6,1.6-1.9,2.5c-2.5,1-5,1.5-7.2,1.5c-1.8,0-2.1,0-3.1-0.6
	c-1.3-0.6-2-1.5-2.7-3.2c-0.8-2-1-4.4-1.4-11.7c-0.3-7.9-0.6-10.4-1.1-13.1c-2.1-9.9-9.6-14.1-17.7-10c-1.9,1-3.4,2-5.4,3.7
	c-3.9,3.4-11,12.4-14.3,18.3c-0.5,0.9-1,1.5-1,1.4c0-0.1-0.4-1.4-0.7-2.8l-0.7-2.6l1.3-2c9.3-13.9,17.9-37.9,19.4-54
	c0.4-3.8,0.1-11-0.4-14.1c-1.2-6.7-3.5-11.2-6.9-13.5C237.5,1.1,231.8,2,226.7,7c-4.2,4-8.1,10.9-10.6,18.7c-0.3,1.1-0.6,2-0.7,2
	c0,0-2-0.1-4.4-0.4c-2.4-0.2-5.8-0.5-7.5-0.6c-1.7-0.1-3.2-0.2-3.3-0.3s0-2.2,0.2-4.7c0.7-8.1,0.3-10.7-1.8-13
	c-3.2-3.5-8.3-3-11.1,1c-0.5,0.7-2.3,4.5-4.4,9.2c-1.9,4.4-3.6,8.1-3.7,8.2c-0.1,0.1-0.6,0.3-1.2,0.4c-1.5,0.2-7.9,1.9-10.6,2.7
	c-3.2,1-6.3,2.5-7.4,3.6c-1.2,1.2-1.6,2.1-1.6,3.9c0,1.3,0.1,1.6,0.6,2.5c0.8,1.3,2.4,2.3,4,2.5c0.9,0.1,2.1,0,5.3-0.5
	c2.2-0.4,4.2-0.6,4.2-0.6c0.2,0.2-7.1,13.7-7.5,13.7c0,0-0.7-0.8-1.4-1.7c-1.8-2.3-6.1-6.6-8.5-8.3c-2.4-1.7-6.4-3.7-8.6-4.3
	c-3.4-0.9-7.5-0.8-10.7,0.3c-5.7,2-11.3,7.2-14.8,14c-1.9,3.6-2.8,7.3-2.8,10.9c0,1.2-0.1,1.5-0.5,2c-1.1,1.3-1.8,3.3-3.9,10.4
	c-1.4,4.8-3.2,10-4.3,12.9c-1.3,3.2-3.3,7.2-3.5,6.9c-0.3-0.3-1.2-3.8-1.6-6.2c-1.4-8.1-1.5-15.9-0.2-35.7
	c1.5-23.7,1.4-31.3-0.4-38.2C101.3,8.7,93.3,4.3,85.3,8.2c-5.2,2.5-9.7,8-14.4,17.6c-3.1,6.3-6.4,15.1-8.5,22.8
	c-0.5,1.8-1,3.2-1,3.1c-0.1-0.1-0.5-2.1-1-4.5c-2.5-12.4-4.6-22.2-6.1-27.4C51,7.9,47.6,2.4,42.2,0.5C40.6,0,37.8-0.2,36.4,0.2z
	 M236.2,21.1c0.4,2.6,0.4,7.1,0.1,9.9c-1,9.4-4.7,22-9.7,33.3l-1.4,3.2l-0.1-0.8c-0.1-0.5-0.3-2.7-0.4-4.9
	c-0.3-4.3-0.2-8.3,0.3-13.5c1.2-12.3,5-24.5,9.4-30l1-1.2l0.3,0.9C235.8,18.5,236.1,19.9,236.2,21.1z M334.9,38.2
	c3.2,1.7,5.9,6.4,6.9,12.2l0.1,0.7l-0.9-0.3c-4.8-1.8-9.6-5.4-10.4-7.7c-0.4-1.2-0.4-3,0-3.9C331.3,37.4,332.8,37.1,334.9,38.2z
	 M209.1,40.6c1.8,0.2,3.2,0.4,3.3,0.4c0,0-0.1,1.1-0.2,2.4c-0.7,5.3-0.9,8-0.8,14.1c0,8.3,0.6,13.9,2.5,23.5l0.7,3.6l-1.3,1.3
	c-2.6,2.7-5.5,4.4-7.3,4.5c-0.9,0-1,0-1.8-0.9c-0.9-1-2.6-4.2-3.4-6.5c-1.2-3.5-2.2-8.5-2.6-13.4c-0.3-4-0.1-15.3,0.4-22.7
	c0.2-3.2,0.4-6.1,0.4-6.4V40l3.5,0.1C204.3,40.2,207.3,40.4,209.1,40.6z M144.9,54.6c3.8,1.8,8.9,7.1,11.1,11.4l0.5,0.9l-1.8,1.8
	c-2.5,2.5-4.9,4.3-7.6,5.7c-4,2-6.8,2.2-9.8,0.7c-3.9-1.9-6-6.1-5.3-10.3c0.7-3.9,5-9.5,8.3-10.8C141.5,53.6,143.3,53.8,144.9,54.6z
	 M305.7,74.4c1.6,3.5,0.9,7.2-2.4,13.2c-1.5,2.6-4.6,7.5-5.1,8c-0.3,0.2-0.3,0-0.5-2c-0.2-3.1,0.2-7.5,0.9-10.5c1-3.9,3-8.1,4.8-9.9
	c0.8-0.8,0.9-0.9,1.2-0.5C304.9,72.7,305.4,73.6,305.7,74.4z M160.6,83.5c-0.4,5.3-2.1,10.2-5.1,14.7c-2.2,3.3-4.8,5.5-7.9,6.9
	c-1.2,0.5-1.6,0.5-3.7,0.5c-2.2,0-2.5,0-3.6-0.6c-2.5-1.2-4.4-4.2-6.1-9.3c-0.7-2.3-2.1-7.9-1.9-8c0,0,0.6,0.1,1.2,0.4
	c2.6,1,4.5,1.3,7.8,1.3c3.3,0,4.9-0.3,7.9-1.2c3-1,8.2-3.9,10.5-5.9c0.4-0.4,0.8-0.6,0.9-0.6C160.6,81.6,160.7,82.5,160.6,83.5z
	 M210.8,144.8c-1.3,0.1-5.4,0.2-9.1,0.4c-8.1,0.3-12.9,0.6-14.1,0.9c-1.3,0.3-2.1,1.3-2.1,2.7c0,0.8,0.1,1.1,0.5,1.6
	c0.9,1,1.7,1.1,7.2,1l4.9-0.1l-0.1,3.5c-0.1,1.9-0.4,6.9-0.8,11.1c-0.3,4.2-0.8,9.5-0.9,11.7c-0.2,2.3-0.6,7.9-1.1,12.4
	c-0.9,9.8-1,14-0.4,14.8c0.6,0.9,1.6,1.4,2.6,1.3c1.9-0.2,2.6-1.2,3.1-4.7c0.3-2.4,1.3-14.8,1.9-23.9c0.2-2.8,0.5-7.9,0.7-11.2
	c0.2-3.4,0.4-8.1,0.5-10.5l0-4.4l3.2,0c6.1,0,9.4-0.3,10.2-0.7c2.3-1.3,2.2-4.2-0.2-5.4C215.6,144.6,215,144.5,210.8,144.8z
	 M107.1,145.7c-8.8,1.9-15.6,11.4-17.5,24.2c-0.5,3.2-0.3,8.3,0.3,11.5c1.2,6.1,4.1,11.6,8.1,15.3c3,2.8,6,4,10.1,4
	c4.9,0,9.2-2,13.3-6.2c3.9-3.9,6.4-8.6,7.6-14.3c0.4-1.8,0.5-2.7,0.5-6.7c0-4-0.1-4.9-0.5-6.8c-1.7-7.7-6-14.7-11.8-19
	c-2.2-1.6-2.2-1.6-4.4-2C110.6,145.4,108.8,145.4,107.1,145.7z M112.8,152.4c3.6,2.7,5.7,5.4,7.8,9.5c3.4,6.9,3.6,16.1,0.3,22.6
	c-1.6,3.2-4.3,6.3-6.9,8c-3.5,2.3-7.5,2.5-10.3,0.7c-2.6-1.7-5.4-5.9-6.8-10.2c-3-9.5-0.3-22.3,6.1-28.5c1.6-1.6,2.9-2.4,4.8-3
	C110.2,150.7,110.7,150.8,112.8,152.4z M267,147c-3.6,0.2-7,0.4-7.4,0.5c-1.7,0.5-2.9,1.7-3.4,3.6c-0.7,2.5-0.8,6.2-0.8,24.5
	c0.1,20.6,0.2,26.6,0.8,27.9c0.5,1.1,1.7,2.2,3,2.5c1.3,0.3,20.3,0.3,21.9,0c1.2-0.3,2.6-1.4,2.8-2.3c0.4-1.5-0.7-3.1-2.3-3.6
	c-0.6-0.2-3.5-0.2-10.1-0.2h-9.2l-0.1-5.1c-0.1-2.8-0.2-7.2-0.2-9.9l0-4.8l7.6,0.1c7.3,0,7.6,0,8.4-0.4c2.1-1.1,2.1-3.9-0.1-5.2
	c-0.7-0.4-1-0.4-8.4-0.4l-7.7,0l0.1-9.2c0.1-5.1,0.2-9.8,0.2-10.5l0.1-1.3l7.5-0.6c4.1-0.3,8.7-0.6,10.2-0.6c3.1,0,3.8-0.1,4.6-1
	c1.1-1.3,0.4-3.1-1.4-3.8C280.9,146.6,277.9,146.6,267,147z M152.5,147.3c-2.2,0.1-6.3,0.2-9.1,0.4c-4.7,0.2-5.3,0.2-6.1,0.6
	c-0.9,0.4-1.7,1.4-2,2.2c-0.2,0.4-0.8,15.3-1.1,23.8c-0.1,4.7,0,10.2,0.5,16.9c0.4,5.5,0.8,7.2,2,8.1c1.3,0.9,3.1,0.5,3.9-0.9
	c0.4-0.7,0.4-1,0.2-4.2c-0.3-4.6-0.5-14.5-0.5-18.2l0.1-3l2.1,0.1c1.2,0.1,4.9,0.1,8.4,0c5.7-0.1,6.3-0.2,7.2-0.6
	c1.2-0.5,1.7-1.2,1.8-2.5c0.1-1.2-0.4-2.1-1.6-2.8c-1-0.5-2.8-0.5-9.2-0.2c-2.1,0.1-4.7,0.2-6,0.2h-2.2V166c0-1.3,0.6-11.7,0.7-11.8
	c0,0,4.1-0.2,9.2-0.4c8.5-0.3,9.2-0.4,10-0.8c1.3-0.6,1.8-1.5,1.8-2.8c0-1.2-0.6-2.2-1.6-2.7C160,147.1,157.8,147.1,152.5,147.3z
	 M242.9,148.8c-0.2,0.1-0.6,0.4-0.9,0.7c-0.5,0.5-0.5,0.7-0.5,2.2c0,0.9,0.1,3.4,0.2,5.4c0.1,2.1,0.3,7.8,0.3,12.7l0.1,9l-2,0.1
	c-1.1,0.1-4.6,0.3-7.7,0.5c-3.1,0.2-5.8,0.4-5.8,0.3c-0.1-0.1-0.2-6.2-0.2-13.6c-0.1-9.6-0.2-13.6-0.4-13.9c-1.2-2-3.9-2.1-5-0.1
	c-0.5,1-0.7,10.9-0.7,32c0.1,16.1,0.1,17,0.5,17.7c0.6,1.1,1.5,1.7,2.7,1.7c1.2,0,2-0.5,2.6-1.7c0.4-0.8,0.4-1.3,0.5-8.5l0.1-7.7
	l2.3-0.1c1.3-0.1,4.2-0.2,6.4-0.2c2.2-0.1,4.8-0.2,5.6-0.2l1.6-0.1l0.4,8.3c0.4,8.8,0.6,10.6,1.1,11.6c0.9,1.5,2.7,2,4.1,1.1
	c1-0.6,1.5-1.8,1.5-3.6c0-1.4-0.8-16.5-1.2-22.5c-0.1-1.7-0.3-6.9-0.4-11.5c-0.2-9-0.5-12.7-1-15.7c-0.4-2.3-0.7-3-1.5-3.7
	C244.8,148.5,243.7,148.4,242.9,148.8z M41.4,193.5c-4.6,0.7-8.7,2.5-12.5,5.3c-6,4.6-11,11.9-15.2,22.4c-2.6,6.5-4.2,12.7-5.3,20.4
	c-0.5,3.1-0.5,14.5-0.1,18c2.6,20.7,13.5,32,26.6,27.4c7-2.5,13.6-9.3,21.6-22.7l1.7-2.9l-0.1,3.9c-0.1,2.2-0.1,7.1-0.1,11v7
	l-1.8,1.3c-9.7,6.9-17.4,15.4-21.7,24.2c-2.5,5-4.6,11.9-5.5,17.9c-0.4,2.3-0.5,9.7-0.2,12.5c0.7,7.6,3,13.3,6.9,17.2
	c2.6,2.6,5.2,3.8,8.3,3.8c5.8,0,10.9-4,14.9-11.9c6.2-12.1,9.7-30.9,10.8-57.5l0.1-3.7l1.4-0.9c0.7-0.5,2.3-1.5,3.5-2.1
	c15.7-9.4,23.9-15.4,30.3-22.1l2.2-2.3l1,0.4c0.6,0.2,1,0.4,1,0.5c0,0.3-0.9,3-1.9,5.7c-0.5,1.4-1.4,3.7-1.9,5.1
	c-2.3,6.2-3.9,11.4-4.7,15.5c-0.4,2.1-0.5,3.1-0.5,6.8c0,3.8,0.1,4.6,0.5,6c1,3.7,2.2,5.8,4.5,8.2c2.8,2.8,6,4.1,10,4.1
	c2.7,0,4.8-0.6,7.5-1.9c4.5-2.2,7.9-5.8,12.6-13c1-1.5,2.4-3.8,3.2-5.2c2.1-3.6,1.8-3.5,2.4-1.4c1.7,6.3,5.3,11.8,10,15
	c4.7,3.2,11.4,4,17.3,2.2c7.4-2.3,14.5-8.9,19.2-17.7c1.8-3.5,3.2-8,3.7-11.6l0.1-1.3l3.3-1.6c3.2-1.6,6.2-3.3,7.4-4.1
	c0.3-0.2,0.6-0.4,0.7-0.3c0,0,0,1-0.2,2c-0.8,5.1-0.9,13-0.2,17c1,5.4,3.6,10.9,6.8,14.2c2.5,2.6,5.4,4.2,9.2,5.2
	c2.2,0.6,7.6,0.5,10.6-0.1c6.8-1.4,13.9-5.6,20.3-12c6.8-6.8,10.6-14.4,11.2-21.9l0.1-1.7l1.5-1c2.6-1.7,6.9-5,8.6-6.6
	c0.9-0.9,1.7-1.6,1.8-1.6c0.1,0,0.1,0.6,0,1.3c0,0.7-0.3,4.3-0.6,8c-1.2,15-1.6,27.6-1.2,34c0.2,3.3,0.5,4.2,1.8,5.6
	c2.4,2.6,6.8,2.3,8.8-0.6c0.8-1.1,1.2-2.6,1.5-5.3c1.2-11.8,4.1-21.5,9.1-31.6c2.8-5.7,5.2-9.2,8.1-12.3c2.1-2.2,3.9-3.5,4.3-3.1
	c1.3,1.1,3.2,6.4,4.4,12.1c0.6,3.2,1.6,11.2,2,16c0.2,2.6,0.3,3.3,0.7,4.2c1.5,3.1,5.1,4.3,8,2.7c2.2-1.2,2.8-2.6,3.7-8
	c1.7-10.7,4.6-18.5,9.5-25.8c3.7-5.6,9.1-10.3,11.7-10.3c1,0,1.3,0.4,1.7,1.9c0.9,2.9,1.2,7,1.6,18.1c0.4,11.5,1.1,19.2,2.7,30.5
	c1.6,10.7,2.3,12.8,5.1,14.2c3,1.5,6.4,0.1,7.5-3c0.6-1.5,0.5-3.5-0.4-8.9c-0.4-2.1-0.8-4.9-0.9-6.3c-0.2-1.4-0.6-4.4-0.9-6.6
	c-0.6-4.3-1-10.2-1.4-18.6c-0.7-16.9-0.9-18.7-2.3-23.2c-2.3-7.1-8.5-10.9-15.7-9.5c-7.7,1.6-16.2,9.6-22.1,20.9l-1,1.9l-0.2-0.6
	c-2-5.3-3.6-8.1-5.9-10.3c-3.8-3.7-9-4.3-14.1-1.7c-4,2.1-8.3,6.4-11.8,11.8c-0.8,1.2-1.5,2.3-1.7,2.5c-0.2,0.3-0.2,0.2-0.2-0.9
	c0.1-0.7,0.2-3.8,0.4-7c0.3-6.2,0.2-7.5-0.7-9.2c-0.6-1.2-1.9-2.4-3.1-3c-1.4-0.7-3.7-0.7-5.3,0.1c-1.5,0.7-2.6,1.7-5.5,5.2
	c-4.2,4.9-8,8.7-11.3,11.1l-0.8,0.6l-1-1.9c-4.9-9.8-13.7-16.6-24.4-18.9c-1.8-0.4-2.8-0.5-6.2-0.5c-3.6,0-4.3,0.1-5.9,0.5
	c-3.9,1-6.7,2.6-9.4,5.3c-2.3,2.4-3.6,4.6-5.5,9.2c-0.2,0.5-2.2,1.8-6.7,4.6c-3,1.8-8.9,5.2-9.1,5.2c-0.1,0-0.4-0.7-0.7-1.5
	c-0.8-2.2-2.2-4.8-3.6-6.9c-5-7.5-11.9-12.4-20.2-14.3c-1.9-0.4-2.7-0.5-6.1-0.5c-3.7,0-4.1,0-6,0.6c-5.5,1.5-9.5,4.9-12.1,10.2
	c-1.3,2.7-1.8,4.1-2.4,6.9c-0.5,2.5-0.6,6.3-0.2,8.3l0.3,1.3l-1.1,2.6c-3.4,7.9-7.3,14.7-12,20.8c-4.5,5.9-8,8.6-10.8,8.2
	c-1.2-0.2-1.8-0.7-2.4-1.9c-1.8-4-0.8-10.5,3.7-22.5c3.5-9.4,4.2-11.6,4.6-14.2c0.7-4.6-1.6-9-5.9-11.2c-0.6-0.3-1.1-0.6-1.1-0.6
	c0,0,0.2-0.6,0.5-1.2c3-6.7,3.4-14.6,1.1-20.1c-1.1-2.6-3.3-5.4-5.6-7.2c-4.1-3-9.8-3.7-14.4-1.6c-5.5,2.5-10,8.8-11.2,15.8
	c-0.4,2.3-0.3,5.8,0.2,7.7c0.5,1.9,2.1,4.8,3.4,6.5c1.5,1.8,4.2,3.9,6.9,5.3c1.1,0.6,2,1.1,2,1.2c0,0.2-2.9,3-4.6,4.4
	c-3.3,2.8-8.7,6.7-12.7,9.3c-2.9,1.9-4.2,2.7-5.6,3.6c-0.9,0.5-2,1.2-2.6,1.6c-0.6,0.4-1.1,0.6-1.2,0.6c-0.2,0,0-24.4,0.3-31
	c0.3-6.3,0-8.2-1.7-10.1c-1.5-1.7-4-2.3-6.2-1.6c-1.8,0.6-3.1,2.1-5.1,5.8c-0.9,1.7-2.7,5-4.1,7.4c-1.4,2.3-3.5,6.1-4.7,8.3
	c-4.5,8.2-7.9,13.2-11.7,17.1c-3,3.1-5.5,4.7-7.5,4.7c-3.4,0-7.3-6.4-8.7-14.1c-1.4-7.9-1.1-17.8,0.7-25.7
	c2.6-10.9,7.3-21,12.3-26.1c3.7-3.8,8.1-5.6,12.9-5.3c3.2,0.2,5.3,1.3,8.2,4.2c1.8,1.8,2.9,3.3,4.5,6.1c1.1,1.9,3.3,6.5,4.4,9.1
	c0.8,2,1.7,3.1,3,3.6c1.6,0.6,3.1,0.2,4.1-1.2c0.4-0.5,0.4-0.9,0.4-2.9c0-2.9-0.6-5.7-1.9-9.5c-3.9-11.7-11.3-19.1-20.4-20.7
	C46.8,193.2,43.2,193.2,41.4,193.5z M103.1,230.4c1.2,0.6,2.2,1.9,2.6,3.4c0.9,2.8,0.2,8.2-1.2,11.1c-0.3,0.6-0.6,1.1-0.6,1.1
	c-0.3,0-3.4-1.4-4.5-2.1c-1.5-0.9-2.2-1.5-3.1-2.6c-0.5-0.6-0.6-1-0.7-2.4c-0.1-2.7,0.9-5.4,2.8-7.4
	C100,230,101.5,229.6,103.1,230.4z M230.1,251.5c5.9,1.1,11.7,5.1,15.1,10.4c0.9,1.4,2.3,4.4,2.3,5c0,0.6-7.6,3.5-11.4,4.3
	c-3.3,0.7-7.1,0.7-10-0.1c-5.3-1.3-8.3-3.8-9.4-8c-0.6-2.4-0.3-4.6,1.1-7.2c1.3-2.4,3.1-4,5.2-4.5
	C224.2,251.2,228.4,251.2,230.1,251.5z M162.6,253.1c6.4,1.1,12.6,6.8,15.3,13.8c0.4,1.1,0.7,2.1,0.6,2.2c-0.3,0.3-4,1.6-6.7,2.3
	c-7.2,1.9-13.8,1.3-18.5-1.8c-1.6-1.1-2.1-1.6-2.1-2.7c0-1-0.5-3.1-0.9-3.6c-0.4-0.6-0.4-1.7,0.1-3.4c1-3.1,2.6-5.4,4.5-6.3
	C156.5,252.8,159.7,252.6,162.6,253.1z M217.5,280.5c2.6,1.2,5.7,2.2,8.5,2.6c2.5,0.4,7.1,0.4,9.8,0.1c2.2-0.2,6.5-1.3,9-2.2
	c1.1-0.4,1.7-0.5,1.7-0.4c0,0.1-0.5,1-1,2c-3.2,5.4-10.1,11.5-15.5,13.7c-2.8,1.1-4.6,1.5-7.3,1.4c-2.1-0.1-2.5-0.1-3.6-0.7
	c-3-1.5-5.3-6.2-5.8-11.9c-0.2-2.1-0.1-5.4,0.1-6.5l0.1-0.5l0.9,0.7C214.9,279.2,216.3,280,217.5,280.5z M156.7,283.5
	c3.4,0.8,6.9,1,10.1,0.7c2.9-0.2,6.9-1,9.4-1.7l1.6-0.5l-0.1,0.4c-0.1,0.2-0.5,1.2-1.1,2.2c-2.7,5.2-7.1,9.5-11.2,11.2
	c-1.1,0.5-1.6,0.5-3.8,0.5c-2.3,0-2.6,0-3.6-0.6c-1.3-0.7-3-2.4-4-4c-1-1.7-2-4.5-2.4-6.8c-0.2-1.1-0.4-2.3-0.4-2.6l-0.1-0.7
	l1.6,0.6C153.6,282.7,155.4,283.2,156.7,283.5z M57.4,296.9c-0.4,6-0.6,8.6-1.1,13.5c-1.8,16.2-5.3,28.8-9.8,35.4
	c-0.9,1.3-2,2.4-2.4,2.4c-0.6,0-2.2-3-3-5.6c-0.9-3.2-1.2-5.5-1.4-9.1c-0.1-4.3,0.1-7,1.1-11.3c1.8-8.1,5.2-14.7,10.8-21
	c1.9-2.1,5.4-5.6,5.8-5.6C57.5,295.5,57.5,296.1,57.4,296.9z"/>
</svg>
