<?xml version="1.0" encoding="utf-8"?>
<!-- Generator: Adobe Illustrator 27.0.0, SVG Export Plug-In . SVG Version: 6.00 Build 0)  -->
<svg version="1.1" id="Layer_1" xmlns="http://www.w3.org/2000/svg" xmlns:xlink="http://www.w3.org/1999/xlink" x="0px" y="0px"
	 viewBox="0 0 782.3 360" style="enable-background:new 0 0 782.3 360;" xml:space="preserve">
<g transform="translate(0.000000,2500.000000) scale(0.100000,-0.100000)">
	<path d="M4523.3,24354.6c-6.5-2.8-14.8-9.6-17.9-15.1c-6.9-11.4-42-164.1-55.4-240.8c-36.1-204.3-68.5-489.5-82.6-731
		c-12.4-204.3-14.1-264.9-13.8-466.1c0-219.1,2.4-266.6,14.1-279.3c16.9-18.9,54.4-28.6,100.4-25.8c56.8,3.1,83.2,17.9,87.7,49.2
		c1,8.9,2.1,131.8,2.1,272.8c0,256.6,4.5,437.9,15.5,644.7c5.5,97,5.8,99.8,19.3,149.6c56.8,206.1,139.7,382.9,229.8,488.1
		c27.9,32.3,61.2,61.2,81.2,70.2c12,5.5,14.1,5.5,19.3,1c20.6-18.6,20.6-108-0.3-274.9c-20.3-160.7-31-264.5-42.7-421.4
		c-21.3-277.3-32.7-613-22.4-661.2c8.3-37.8,38.9-53,102.9-50.2c29.9,1.4,39.9,3.1,53.3,10c21.7,10.7,28.2,20.3,32.7,48.8
		c5.2,33.7,10.3,177.5,10.3,298.6c0,102.5,0.3,106.6,10,154.8c54.4,268.3,161.7,521.9,297.6,703.1c35.1,46.4,89.8,104.6,120.7,128
		c23.7,18.2,60.5,36.5,69.5,34.7c3.4-0.7,8.9-6.5,12-13.1c14.1-27.9,7.2-63.3-50.6-264.9c-32.7-114.2-79.8-300-104.6-411.4
		c-23-103.5-37.2-185.4-50.6-293.8c-7.2-59.9-10.3-221.5-5.2-277.6c19.3-204.7,83.6-291.7,211.9-285.5
		c72.9,3.4,100.8,25.8,164.1,131.4c103.5,173.4,245.3,477.1,295.8,634.7l5.2,15.5l46.8,0.7c79.5,0.7,145.5,12.4,214,37.2
		c18.9,6.9,37.2,13.1,40.2,14.4c4.5,1.4-2.1-15.1-22.7-57.8c-79.1-164.1-148.6-379.8-171-531.1c-9.3-63.6-8.9-155.1,0.7-202.3
		c8.3-40.9,24.1-77.1,43.7-99.1c38.2-43,111.5-56.4,164.8-30.3c36.1,17.5,52.6,43,131.1,199.2c59.2,117.3,96.3,199.5,153.4,337.8
		l9.6,23.4l33.4-43.3c65.4-85.3,117.3-154.5,117.3-156.2c0-1.4-13.8-11.7-30.6-23.4c-65.4-45.4-102.5-84.6-125.9-132.8
		c-21.3-44.7-27.2-85.7-17.2-124.2c8.3-31.3,21.7-52.6,51.6-82.9c31.3-32,64.3-50.2,115.2-64c25.8-6.9,37.2-7.9,96.3-7.9
		c72.9,0,88.1,2.4,141.4,22.7c71.6,27.5,121.4,82.2,134.2,146.9c8.9,46.8-2.4,107.3-32.3,175.1c-16.2,36.1-48.8,92.5-73.6,126.6
		l-14.8,20.6l19.6,10c81.2,40.9,183,83.2,288.3,118.7c39.6,13.8,74.3,26.8,77.1,29.6c6.9,6.9,2.4,15.1-11.7,20.6
		c-16.9,7.2-25.8,6.5-72.2-5.5c-107.7-27.5-217.8-66.4-315.1-110.8l-26.5-12l-66,73.6c-101.1,112.5-123.2,141.7-144.8,189.2
		c-27.9,61.6-27.5,135.2,0.7,191.6c28.6,56.8,56.8,69.5,101.8,47.1c58.1-29.2,101.1-95.3,126.6-194.4c8.3-33,13.8-39.6,33-39.6
		c24.8,0,32.7,28.9,22.4,83.9c-16.9,89.8-61.2,155.5-126.2,187.5c-40.6,20-69.8,25.5-125.2,23.4c-49.5-1.7-78.8-8.9-111.8-27.2
		c-27.2-15.1-61.2-43.3-79.1-66c-74.6-93.6-86.7-192.6-35.8-295.8l11.7-24.1l-38.5-82.6c-97.7-209.8-210.2-423.5-237-451
		c-6.5-6.5-6.5-6.2-6.5,33.4c0,83.9,14.8,204,38.2,310.6c16.5,76.4,42.3,170.6,90.1,330.2c38.9,129.3,51.3,179.9,58.1,233.2
		c5.2,42,2.4,49.2-23,58.5c-31.3,11-51.9,6.5-119.7-24.8c-65-29.9-103.5-43-165.5-57.1c-46.8-10.3-112.1-17.5-130-14.1l-12,2.1
		l7.9,33.7c13.4,54.7,18.6,99.4,18.6,157.9c0,82.9-10.7,113.2-46.4,131.4c-15.5,8.3-20.6,8.9-56.8,8.6c-46.8,0-64.3-5.8-104.9-32.7
		c-35.4-23.7-63-55-82.2-93.6c-21.7-43.3-27.2-67.4-25.5-110.4c1.7-38.9,9.3-60.5,30.6-87c24.4-30.6,73.3-59.9,124.2-74.6
		c24.1-6.9,28.6-9.3,27.9-15.1c-2.1-19.6-68.5-174.4-123.2-287.9c-71.9-149.6-171.3-316.5-228.1-383.2
		c-18.2-21.3-17.2-22.7-28.2,27.2c-14.1,64-18.6,122.8-18.6,242.5c0.3,174.8,9.6,255.9,68.1,583.1c38.5,215,53.3,321.6,56.1,400.8
		c3.4,108.4-13.8,162-60.9,188.9c-17.9,10-21,10.7-55,10.7c-32.3,0-38.2-1-56.4-9.3c-65.4-31-144.5-106.6-219.1-210.9
		c-79.1-109.7-144.5-231.5-206.4-383.6l-20.3-49.9v101.5c-0.3,148.3-5.8,331.6-12,388.7c-9.3,87.4-25.1,138.6-52.3,168.9
		c-20.3,22.4-35.8,28.9-69.8,28.9c-24.8,0-32-1.4-48.2-9.3c-52.6-26.1-114.6-95.6-181.3-204.7c-19.3-31.3-47.5-85.7-94.9-183.4
		l-8.9-18.9l1.7,22.4c3.1,44.7,8.3,198.5,8.3,255.9c0,62.3-4.1,121.4-10.7,163.4c-3.8,23.7-4.8,25.5-15.5,29.9
		C4561.8,24361.5,4539.1,24361.2,4523.3,24354.6z M6000.8,23824.2c8.9-27.2,12.7-70.5,8.9-110.8c-3.1-35.4-15.5-103.9-20.3-112.8
		c-4.1-7.2-25.8,19.6-34.7,42.7c-20,52.6-7.9,134.5,26.5,184.7c4.8,6.9,10,12.7,11.7,12.7
		C5994.3,23840.7,5998.1,23833.1,6000.8,23824.2z M6857.4,22853.8c8.6-20,18.6-48.8,22.4-63.6c8.9-34.4,9.6-83.9,1.7-107.7
		c-6.2-18.2-23.4-45.1-31-48.2c-14.8-5.5-68.5,37.2-85.7,68.5c-9.6,17.2-10.3,20.6-10.3,56.1c0,36.1,0.7,38.9,11.4,60.2
		c13.8,27.2,34.7,54.7,53.7,70.9C6836.4,22904.3,6835.7,22905.4,6857.4,22853.8z M7361.7,22970.7c-23.4-7.2-45.4-25.8-56.4-47.5
		c-7.2-14.4-7.2-46.4,0-61.6c3.4-6.9,11.7-15.5,20-20.3c26.8-15.5,91.8-17.5,119-3.4c13.1,6.9,29.6,26.5,34.4,41.3
		c10.3,31.3-6.2,68.8-37.5,85c-15.5,8.3-22,9.6-44.7,9.3C7382,22973.5,7366.5,22972.1,7361.7,22970.7z"/>
	<path d="M528.7,24334.7c-25.5-9.3-25.1-9.3-51.9-129.3c-27.9-124.9-46.8-239.1-70.5-428.3c-31.3-247-48.8-494-55.4-782.6
		c-3.4-153.4,0.3-398,6.9-420.4c6.9-24.4,34.1-38.2,83.6-42.7c30.3-2.4,63.3,2.8,87.7,14.4c32,15.5,29.9,0.7,28.9,237
		c-1,256.6,4.5,493,18.2,748.2c4.8,89.8,5.8,97,17.5,139.3c64.3,236,160,429.3,262.5,531.8c27.9,27.9,50.2,44,68.5,49.5
		c20.3,5.8,29.9-63,21.7-159.3c-2.1-24.8-10-96-17.5-157.9c-32.7-270.7-48.2-464.1-59.9-752.7c-8.3-200.9-9.3-255.9-5.8-293.1
		c4.1-47.1,10-58.1,36.5-71.6c19.3-9.6,23-10.3,60.2-10.3c59.9,0,88.1,12.4,96,41.6c8.3,31.6,11,89.4,12.7,254.2l1.7,175.4
		l10.3,51.6c35.1,174.4,89.4,335.7,166.5,491.9c86.7,175.8,189.9,314.1,276.9,371.2c22.4,14.8,47.1,26.1,56.8,26.1
		c9.3,0,16.2-20.3,16.2-47.8c-0.3-38.5-5.8-61.9-59.5-249.7c-28.2-98.4-69.5-259.7-97.4-380.1c-28.2-122.8-47.8-235.6-59.5-342.3
		c-8.3-78.1-8.6-252.2,0-309.9c17.2-121.1,53-199.2,106-230.8c35.8-21.3,94.6-30.6,137.9-21.3c45.4,10,72.2,32,111.1,90.8
		c97,147.2,278.3,527.7,327.1,686.6l5.8,19.3l60.5,2.1c83.2,2.8,151.4,15.8,221.5,42.3c16.9,6.5,31.3,11.7,32,11.7
		s-6.9-16.5-17.2-36.8c-58.8-117.7-121.4-287.2-157.2-426.9c-30.3-117.6-42-218.8-34.7-298.6c8.6-97,38.2-154.1,93.2-181.3
		c21.7-10.7,24.1-11,65.7-11c39.9,0,44.4,0.7,60.2,9.3c37.5,20,54.4,45.1,130.4,195.4c68.8,135.9,117.3,244.9,189.5,424.5
		c28.9,71.6,30.3,75.3,24.1,79.8c-7.9,5.8-33.7,6.2-43.7,1c-7.2-3.8-27.9-45.1-95.6-190.6c-74.6-160.3-167.2-337.1-209.2-400.4
		l-19.6-29.6l-1,43c-1,43.7,5.5,127.6,15.1,192.6c16.2,112.5,46.8,235.6,111.5,448.9c45.1,149,65.4,234.6,65.4,277.3
		c0,28.2-15.8,38.5-58.8,38.5c-25.1,0-28.6-1-71.2-21c-89.8-42.3-146.9-60.9-227.7-74.7c-33.4-5.8-97.4-8.6-101.5-4.5
		c-1.4,1,2.4,24.8,8.3,52.6c21.7,101.8,22,200.6,1,242.5c-12.7,25.5-31,39.2-60.9,44.7c-98.7,18.6-210.9-65-242.9-180.6
		c-5.8-21.7-6.9-33.7-5.8-61.6c1-30.3,2.8-37.8,12.4-58.5c22.7-48.2,78.4-88.8,149.6-109.1c14.4-4.1,26.5-8.9,26.5-10.7
		c0-5.2-23.7-67.4-43.7-114.6c-46.1-108.7-104.9-231.5-154.8-323c-70.5-129-172.3-280-180.3-266.6c-8.6,15.5-22,96-27.5,166.5
		c-4.5,57.8-2.4,241.5,3.8,301c11,109.7,25.8,209.8,55.4,373.2c55.4,306.5,70.9,431.7,65,517.7c-5.8,81.9-33.4,127.6-84.3,141.4
		c-21,5.8-69.1,2.1-89.4-6.9c-138.6-61.6-316.5-309.6-438.6-611.6l-19.6-48.5l-2.1,196.4c-1.4,108.4-4.1,220.9-5.8,250.1
		c-10.3,155.8-36.1,228.1-90.1,251.1c-15.1,6.5-22.4,7.6-45.8,6.2c-37.2-2.1-61.2-14.8-104.6-56.1c-73.3-70.2-134.2-167.2-223.3-356
		l-7.2-15.5l1.7,22.4c3.1,41.3,8.3,207.8,8.3,263.2c0,59.9-4.5,126.6-10.7,166.2c-3.1,19.6-5.8,26.5-11.7,30.3
		C571.7,24338.5,543.9,24340.5,528.7,24334.7z M2040.3,23782.2c5.5-18.2,7.9-98.4,3.8-129.3c-6.9-48.8-18.2-97.4-23-95.6
		c-7.6,3.1-25.8,31.6-33.4,51.9c-10.3,28.9-10.3,82.6,0,119c8.6,29.9,17.5,49.5,31,67.4c8.3,11,8.9,11.4,13.4,5.2
		C2034.4,23797.4,2038.2,23789.1,2040.3,23782.2z M2831.2,22897.8c-29.6-13.4-45.8-35.8-56.4-78.8c-7.2-29.9-3.4-43.3,17.5-61.9
		c20.3-17.9,45.4-25.5,76.4-23.4c36.1,2.8,65.4,22.4,77.7,51.9c7.6,18.6,10.3,53.7,5.2,69.1c-4.5,14.1-31.6,39.2-48.8,45.8
		C2884.1,22907.1,2848.7,22905.7,2831.2,22897.8z"/>
	<path d="M3492.7,24411.8c-15.1-6.2-15.8-13.1-13.8-103.2c2.4-86,6.9-123.2,16.9-133.1c7.9-7.6,33.4-9.6,48.2-3.4l12.4,5.2l2.4,75.3
		c2.8,77.7,1,131.1-4.8,146.2C3548.4,24412.8,3514,24420.4,3492.7,24411.8z M3538.4,24012.4c-76-7.9-152-40.2-194.4-82.2
		c-33.4-33-50.6-76.4-36.5-90.8c5.8-5.5,26.5-12.4,37.8-12.4c15.8,0,32.3,7.9,53.3,26.1c42.3,36.1,86.7,59.9,130.4,69.8
		c13.1,2.8,15.5,2.1,25.1-5.8c15.8-13.4,36.1-46.8,44.4-72.6c17.9-57.4,2.4-157.2-36.1-233.9c-17.9-35.4-60.9-97.4-119.4-172.3
		c-70.2-89.8-94.3-128.3-91.8-146.9c3.1-25.1,45.1-31.6,104.6-16.5c42.7,11,65.7,10.3,92.9-1.4c32.3-14.4,51.3-41.3,65.7-93.6
		c5.2-17.5,6.2-34.7,5.8-87.4c0-57.1-1.4-70.9-9.3-109c-25.1-118.7-72.6-215.3-114.6-233.2c-46.8-20.3-86.3-6.2-120.1,42.7
		c-16.9,24.8-29.6,30.6-68.1,32.3c-33,1.4-54.7-4.1-66-16.5c-5.8-6.5-5.8-7.9-0.3-27.9c13.1-47.5,39.6-78.8,85-100.4
		c39.9-19.3,75.7-26.8,137.3-28.9c83.9-2.8,155.1,10.3,219.8,40.6c53,24.8,87,58.5,115.2,113.2c46.1,89.8,60.2,199.5,37.8,292.4
		c-12.7,53.3-53.7,117.7-98.4,154.5c-39.9,33-111.8,61.9-167.9,67.8c-10.3,1-21,2.8-23.7,3.4c-2.8,1,7.9,10,25.5,22
		c78.8,54,162.7,132.4,204,190.9c81.2,114.6,99.8,260.8,44.7,350.9c-33.4,55-90.8,97.7-154.8,115.2c-22.4,5.8-81.9,14.4-95.6,13.1
		C3568,24015.5,3553.2,24014.1,3538.4,24012.4z M3475.5,22510.8c-18.6-9.3-20-17.9-20-114.9c0-75,1-91.2,6.5-111.1
		c7.6-27.9,15.1-33.4,46.4-33.4c21.3,0,36.5,4.8,39.6,12c4.5,12,9.3,107.3,8.3,165.8l-1,66.4l-9.6,9.3c-8.3,8.3-12.4,9.6-34.4,10.7
		C3493.7,22516.3,3483.4,22514.9,3475.5,22510.8z"/>
	<path d="M4515.1,22084.9c-57.1-11.4-103.9-38.5-143.4-83.2c-60.2-67.8-89.8-152.7-89.8-259.4c0-59.9,7.2-102.9,25.1-151
		c32.3-87.7,94.3-153.1,171.7-180.6c28.2-10,32-10.7,82.9-10.7c48.8,0.3,55.7,1,80.8,9.6c100.1,33.7,174.4,131.1,196.4,258
		c6.9,40.6,6.9,114.9-0.3,155.5c-6.9,38.2-22.4,85.3-38.2,114.9c-37.2,71.2-100.8,125.2-168.2,143.1
		C4602.8,22088.7,4544.6,22090.8,4515.1,22084.9z M4622,22008.9c125.9-47.5,183.7-252.2,116.3-412.1
		c-47.1-111.8-151.4-158.6-250.8-112.5c-23.7,11.4-69.5,57.4-86,87.4c-72.6,130.7-48.5,324.7,50.6,407.3
		C4500.9,22019.9,4563.9,22030.9,4622,22008.9z M2385.7,22082.8c-80.2-17.2-139-65.4-157.9-130.4c-3.4-11.4-5.5-31.6-5.5-50.6
		c0-51.3,15.5-90.5,46.8-118c36.1-31.6,79.5-49.9,179.9-74.6c105.6-26.1,141.7-44.7,160-81.2c11-21.7,12-57.4,3.1-83.9
		c-6.9-20.6-33.7-48.2-57.1-59.2c-58.8-27.5-153.4-21.7-223.6,13.4c-25.1,12.7-66.7,40.9-78.1,53c-4.5,4.8-9.3,8.6-10.7,8.6
		c-1.7,0-13.1-12-25.8-26.5l-22.7-26.8l13.4-11.7c31.6-27.9,88.8-60.9,129.7-74.6c61.2-21,152.7-26.5,205.4-12.4
		c68.1,18.2,120.1,60.9,142.1,117.3c9.3,23.4,13.1,65,8.9,92.2c-7.6,47.1-29.9,80.8-71.2,108c-34.1,22-69.1,35.1-147.2,54.7
		c-95.6,24.1-126.6,36.8-152.7,62.6c-17.2,16.9-24.4,34.7-24.4,62.6c0,35.8,5.2,48.8,29.2,72.9c23.7,24.1,46.1,34.1,87,39.2
		c45.8,5.8,109-5.5,153.1-28.2c7.9-3.8,25.8-14.8,39.6-24.4c14.1-9.6,26.1-15.8,27.9-14.1c1.4,1.7,10.3,13.1,19.3,25.5
		c9.3,12.4,17.9,24.1,19.6,26.1c3.8,5.2-45.8,38.5-80.2,54.4c-44.7,20.3-76.7,26.8-139,28.2
		C2424.2,22085.3,2393.2,22084.6,2385.7,22082.8z M3882.1,22081.5c-29.2-6.9-56.4-17.5-76-30.3c-21-13.8-71.2-63.6-88.4-87.7
		l-12.7-18.2l25.8-18.9c14.1-10.3,27.2-18.9,28.9-18.9c1.7,0,8.6,7.6,15.5,16.5c22,30.3,62.6,65.7,89.4,78.4
		c84.3,39.6,180.6,6.2,204-70.9c7.2-23.4,6.2-64.3-2.4-89.8c-18.6-54.7-53.3-92.2-237.7-254.9l-137.3-120.7v-28.9v-28.6h233.9H4159
		v34.4v34.4l-176.1,0.7l-176.1,1l117,103.5c155.8,138.3,186.1,170.6,211.2,226c12.7,28.2,17.2,51.6,17.2,87.7
		c0,88.1-48.5,152.4-137.6,182C3992.5,22085.6,3908.9,22087.7,3882.1,22081.5z M5130.8,22081.5c-29.2-6.9-56.4-17.5-76-30.3
		c-21-13.8-71.2-63.6-88.4-87.7l-12.7-18.2l25.8-18.9c14.1-10.3,27.2-18.9,28.9-18.9c1.7,0,8.6,7.6,15.5,16.5
		c22,30.3,62.6,65.7,89.4,78.4c84.3,39.6,180.6,6.2,204-70.9c7.2-23.4,6.2-64.3-2.4-89.8c-18.6-54.7-53.3-92.2-237.7-254.9
		l-137.3-120.7v-28.9v-28.6h233.9h233.9v34.4v34.4l-176.1,0.7l-176.1,1l117,103.5c155.8,138.3,186.1,170.6,211.2,226
		c12.7,28.2,17.2,51.6,17.2,87.7c0,88.1-48.5,152.4-137.6,182C5241.2,22085.6,5157.6,22087.7,5130.8,22081.5z M5847.4,22065
		c-8.3-10-93.6-113.9-189.5-230.5l-174.4-212.6l9.3-27.5l9.6-27.5h176.5h176.1v-79.1v-79.1h36.1h36.1v79.1v78.8l52.6,1l52.3,1v31v31
		l-52.3,1l-52.6,1v225v225.3h-32.3h-32.3L5847.4,22065z M5853.9,21633.2c-0.7-0.7-63.3-0.7-139-0.3l-137.9,1l138.3,169.6
		l137.9,169.6l1-169.2C5854.6,21710.6,5854.6,21633.9,5853.9,21633.2z M1596.2,21744v-335.4h244.2h244.2v34.4v34.4h-208.1h-208.1
		v117v117h184h184v34.4v34.4l-183,0.7l-183.4,1v113.5v113.5l204,1l203.7,0.7v34.4v34.4H1837h-240.8V21744z M2786.4,22043.3v-36.1
		h111.8H3010v-299.3v-299.3h37.8h37.8v299.3v299.3l112.8,0.7l112.5,1v34.4v34.4l-262.1,1l-262.5,0.7V22043.3z"/>
	<path d="M0.7,23305.1l1-1695.3l708-1l707.6-0.7v24.1v24.1H749.9H82.6v1640.9v1640.9h3811.6h3811.6v-1640.9v-1640.9h-753.4h-753.4
		v-24.1v-24.1h811.8h811.8v1695.9V25000H3911.3H0L0.7,23305.1z M3316.2,21632.2v-24.1h139.3h139.3v24.1v24.1h-139.3h-139.3V21632.2z
		"/>
</g>
</svg>
