<?xml version="1.0" encoding="utf-8"?>
<!-- Generator: Adobe Illustrator 27.0.0, SVG Export Plug-In . SVG Version: 6.00 Build 0)  -->
<svg version="1.1" id="Layer_1" xmlns="http://www.w3.org/2000/svg" xmlns:xlink="http://www.w3.org/1999/xlink" x="0px" y="0px"
	 viewBox="0 0 345.1 360" style="enable-background:new 0 0 345.1 360;" xml:space="preserve">
<g transform="translate(0.000000,2500.000000) scale(0.100000,-0.100000)">
	<path d="M1320.4,24998.8c-30.8-7.4-34.7-43.6-9.4-87.6c26.3-45.7,69.6-91.2,123-129.3c4.6-3.2,6.4-5.4,4.7-5.4
		c-8.8,0-76.8-7.8-112.1-12.8c-22.6-3-42.1-5.7-43.5-5.7c-1.5,0-2.4,1.7-2.4,4.9c0,8.1-11,27.3-24.9,43.1
		c-40.1,46-112.7,94.2-172.2,114.3c-37.4,12.8-65.2,14.5-83.8,5.2c-33.4-16.7-24.9-54.1,21.4-94.4c34.5-30,104.7-69.3,155.6-86.8
		c6.2-2.2,11.3-4.4,11.3-4.9s-13.8-4.2-30.8-8.3c-42-9.9-94.5-25.1-136-38.9c-19-6.2-35.7-12-37.2-12.6c-2-0.7-3,0.2-3.9,3.7
		c-2,7.8-11.5,20.9-25.6,34.9c-41.1,40.8-96.2,74.3-153.5,93.5c-54.3,18-92.4,19.2-105.7,3.4c-14.2-16.9-6.4-40.8,22.6-69.1
		c38.4-37.6,91.8-67.7,158.9-90c11.8-3.9,22.1-7.6,22.6-8.1c0.5-0.7-0.8-1.9-3-2.7c-22.9-8.6-106.2-48.9-139.4-67.4
		c-8.6-4.7-16.2-8.6-16.9-8.6c-0.7,0-2.7,2.7-4.6,6.1c-1.7,3.2-8.3,10.6-14.3,16.5c-36.9,34.7-102.3,61.8-179.5,74.7
		c-25.8,4.2-73.6,4.2-87.1,0c-18.7-5.7-31.7-20.4-31.7-35.7c0-9.4,6.7-22.9,16.9-33.7c32.4-34,116.8-67.2,190.6-75
		c10.6-1,21.1-2.4,23.3-2.7c3.2-0.7-0.3-3.7-21.1-17.9c-30.2-20.2-74.3-53.4-104.2-77.9l-21.7-17.9l-4.4,4.6
		c-6.4,6.4-28.8,16.5-51.7,23.1c-69.1,19.9-154.2,20.6-213.9,1.9c-31.7-9.9-45.5-22.4-45.5-41.5c0-8.1,0.8-11,5.1-17
		c17.4-24.8,73.5-42.1,144.9-44.7c25.8-0.8,68.1,1,85.1,4c5.7,0.8,5.1,0.2-14.3-19.9c-27.3-28.1-44-46.7-69.6-77.4l-21.6-25.8
		l-29.3,0.3c-56.6,0.7-112.2-7.9-166-26c-68.3-22.9-108.7-50.7-108.7-74.7c0-24.9,27-35.9,82.6-33.4c47.5,2,90.2,10.6,132.8,26.6
		c7.6,2.9,14.2,4.9,14.7,4.6c0.3-0.5-4-7.9-9.6-16.7c-25.6-39.6-60.3-103.8-82.2-152l-13.3-29.2l-11.1-5.9
		c-34.5-18.5-60.7-49.2-86.8-102c-18.9-38.3-28.8-68.9-38.1-117.1c-5.4-27.3-7.4-75-4-87.6c1.2-4.2,2.7-23.6,3.2-43.3
		c0.5-19.5,1.5-36.2,2.2-36.9c1.7-1.5,3439.6,16.2,3441.5,17.9c0.7,0.5,1.5,29.2,1.7,63.4c0.3,58.6,0.2,63.4-3.5,82.4
		c-9.4,49.4-20.4,83.3-39.1,121.3c-26.1,52.8-52.2,83.4-86.8,102l-11.1,5.9l-13.3,29.2c-21.9,48.2-56.6,112.4-82.2,152
		c-5.6,8.8-9.9,16.2-9.6,16.7c0.5,0.3,7.1-1.7,14.7-4.6c42.6-16,85.3-24.6,132.8-26.6c55.6-2.5,82.6,8.4,82.6,33.4
		c0,23.9-40.4,51.7-108.7,74.7c-53.8,18-109.4,26.6-166,26l-29.3-0.3l-21.6,25.8c-25.6,30.7-42.3,49.2-69.6,77.4
		c-19.4,20.1-20.1,20.7-14.3,19.9c17-3,59.3-4.9,85.1-4c71.5,2.5,127.6,19.9,144.9,44.7c4.2,6.1,5.1,8.9,5.1,17
		c0,19-13.8,31.5-45.5,41.5c-59.7,18.7-144.8,18-213.9-1.9c-22.9-6.6-45.3-16.7-51.7-23.1l-4.4-4.6l-21.7,17.9
		c-29.8,24.4-74,57.6-104.2,77.9c-20.7,14.2-24.3,17.2-21.1,17.9c2.2,0.3,12.6,1.7,23.3,2.7c73.8,7.8,158.2,41,190.6,75
		c10.1,10.8,16.9,24.3,16.9,33.7c0,15.3-13,30-31.7,35.7c-13.5,4.2-61.3,4.2-87.1,0c-77.2-12.8-142.6-39.9-179.5-74.7
		c-6.1-5.9-12.6-13.3-14.3-16.5c-1.9-3.4-3.9-6.1-4.6-6.1s-8.3,3.9-16.9,8.6c-33.2,18.5-116.5,58.8-139.4,67.4c-2.2,0.8-3.5,2-3,2.7
		c0.5,0.5,10.8,4.2,22.6,8.1c67.1,22.2,120.5,52.4,158.9,90c29,28.3,36.7,52.2,22.6,69.1c-13.3,15.8-51.4,14.7-105.7-3.4
		c-57.3-19.2-112.4-52.7-153.5-93.5c-14.2-14-23.6-27.1-25.6-34.9c-0.8-3.5-1.9-4.4-3.9-3.7c-1.5,0.7-18.2,6.4-37.2,12.6
		c-41.5,13.8-94,29-136,38.9c-17,4-30.8,7.8-30.8,8.3s5.1,2.7,11.5,4.9c35.4,12.3,90.3,40.3,123.4,62.7c48,32.7,73.3,63.2,73.3,88.6
		c0,14-6.1,22.9-19.9,29.8c-42.8,21.4-144.4-19.2-227.2-90.8c-29.5-25.4-53.8-57.8-53.8-71.8c0-3.2-0.8-4.9-2.4-4.9
		c-1.3,0-20.9,2.7-43.5,5.7c-35.2,5.1-103.3,12.8-112.1,12.8c-1.7,0,0.2,2.2,4.7,5.4c43.5,31,79.5,66.1,106.3,103.5
		c42.5,59.5,44.8,104.8,5.9,113.6c-42.6,9.4-125.2-49.7-175.3-125.6c-19.5-29.7-33.2-63.4-33.2-81.7v-9.9l-30.7,1
		c-17,0.5-31,1.2-31.3,1.3c-0.3,0.3,2.4,6.4,6.1,13.7c43,85.8,22.6,175.1-40.8,179c-26.5,1.5-47.4-7.2-69.3-29.2
		c-7.6-7.4-17-18.5-21.1-24.8c-4-6.4-7.9-11.5-8.4-11.5s-4.4,5.1-8.4,11.5c-4,6.2-13.5,17.4-21.1,24.8
		c-21.9,21.9-42.8,30.7-69.3,29.2c-63.4-3.9-83.8-93.2-40.8-179c3.7-7.2,6.4-13.3,6.1-13.7c-0.3-0.2-14.3-0.8-31.2-1.3l-30.8-1v9.9
		c0,37.6-43.3,107.4-95.2,153.7C1392,24983.8,1346.5,25005.1,1320.4,24998.8z M1637.9,24727.3c17.9-16.9,35.7-30,63.4-46.2
		c13.8-7.9,18.2-9.8,24.4-9.8c6.2,0,10.6,1.9,24.4,9.8c27.6,16.2,45.5,29.3,63.5,46.3l17,16.2l36.4-0.2c20.1-0.2,39.8-0.8,44-1.7
		l7.4-1.5l2.9-21.1c12.6-96.6,47-174.1,86.3-194c16.9-8.8,34.2-4.6,44.5,10.8c7.6,11.5,9.6,22.9,8.4,51.7
		c-1.7,46.5-19.4,102.1-43.8,138.7l-7.6,11.3h5.6c13.1,0,77-7.6,124.4-14.7l30.2-4.6l-1.2-16c-2-28.5,4.4-85.8,14.3-128.1
		c9.1-38.8,24.4-75.3,38.1-90.8c24.8-28.3,56.3-20.7,67.6,16.3c4,13,4,55.4,0,77c-6.6,35.4-19.9,76.2-34.9,108.2
		c-7.4,15.7-7.9,17.2-4.9,17.2c4.9,0,67.1-15.3,99.3-24.4c15-4.2,44.7-13.3,65.9-20.4c33.7-11,38.6-13.1,37.8-15.7
		c-7.4-23.6-9.8-79.9-5.1-124.9c7.2-70.9,19.2-113.9,37.2-133.1c16.5-17.5,41.8-17.9,56.1-0.7c24.4,29.7,28,93.4,10.1,180.2
		c-2.7,13-6.2,28.6-7.9,35.1c-1.9,6.2-2.5,11.3-1.9,11.3c2.2,0,39.8-16.9,69.4-31c20.2-9.6,75.8-38.4,78.4-40.6
		c0.3-0.3-1.3-8.4-3.7-18c-13-52.1-16.5-132.3-8.1-180c7.8-43.6,24.9-80.2,43.5-93c24.8-17,47.7-2.4,55.4,35.6
		c5.4,26.6,8.4,92.7,6.1,129.9c-1.9,26-6.9,64.5-9.6,71.6c-1,2.5-0.7,2.9,1.7,2c11.5-4.4,128.4-91.2,133.1-98.8
		c0.5-0.7-1.3-8.1-4-16.3c-12.1-35.6-17.7-74.5-17.7-122c0.2-63.4,11.1-110.9,31-133.5c8.3-9.3,16.7-13.5,27.1-13.5
		c27.5,0,42.8,33.2,45,98.1c1.2,31.5-1,61-7.2,97.6c-2.2,13.5-4,25.1-4,26.1c0,4.7,67.9-66.9,102-107.4
		c15.5-18.7,16.5-20.4,14.8-24.4c-1-2.5-5.7-13.1-10.4-23.4c-21.9-48.4-43-127.2-49.9-186.7c-4.9-42.1-2.5-107.4,4.7-130.9
		c6.4-20.9,18.5-32.5,33.9-32.4c11.1,0,19.7,4.6,30.7,16c25.3,26.8,43,76.5,51.6,144.8c2.5,20.9,2.7,107.7,0.2,125.6
		c-1,6.6-1.5,12.1-1.3,12.3c0.8,1,22.4-31.9,38.8-58.6c26.8-44,51.2-90,71.6-134.7l8.8-19.2l0.3-59.2c0.5-63.2,1.7-75,10.6-113.1
		c9.4-40.3,27.1-82.2,47.9-113.8c5.6-8.6,9.9-15.8,9.6-16c-0.5-0.7-494.6-3.4-1957.1-11c-524.6-2.7-1028.9-5.4-1120.7-6.1
		l-166.8-1.2l6.4,7.4c29,34,55.3,88.6,67.4,140.6c8.9,38.1,10.1,49.9,10.6,113.1l0.3,59.2l8.8,19.2c20.4,44.7,44.8,90.7,71.6,134.7
		c16.3,26.8,37.9,59.7,38.8,58.6c0.2-0.2-0.3-5.7-1.3-12.3c-2.5-17.9-2.4-104.7,0.2-125.6c8.6-68.3,26.3-118,51.6-144.8
		c11-11.5,19.5-16,30.7-16c15.3-0.2,27.5,11.5,33.9,32.4c7.2,23.6,9.6,88.8,4.7,130.9c-6.9,59.5-28,138.4-49.9,186.7
		c-4.7,10.3-9.4,20.9-10.4,23.4c-1.7,4-0.7,5.7,14.8,24.4c34,40.4,102,112.1,102,107.4c0-1-1.9-12.6-4-26.1
		c-6.2-36.6-8.4-66.1-7.2-97.6c1.5-43.5,8.4-71.8,21.4-86.6c7.2-8.3,14-11.5,23.6-11.5c27.1,0,45,30,55.1,92.2
		c3.7,23.1,4.2,82.9,0.8,107c-3.5,24.3-9.8,53.3-15.5,69.8c-2.7,8.3-4.6,15.7-4,16.3c4.7,7.6,121.7,94.4,133.1,98.8
		c2.4,0.8,2.7,0.5,1.7-2c-2.7-7.1-7.8-45.7-9.6-71.6c-2.4-37.2,0.7-103.3,6.1-129.9c6.2-30.5,21.7-46.2,41.6-41.8
		c25.3,5.7,47.4,44,57.3,99.3c8.4,47.7,4.9,127.9-8.1,180c-2.4,9.6-4,17.7-3.7,18c2.5,2.2,58.1,31,78.4,40.6
		c29.7,14.2,67.2,31,69.4,31c0.7,0,0-5.1-1.9-11.3c-8.6-31.3-16.9-81.4-19-115.9c-1.2-19,1.3-50.6,5.2-65.7
		c7.4-28.5,23.1-46.2,41.3-46.3c24.8-0.2,41.3,18,52.9,58.5c18,62.2,23.3,171.4,10.1,213c-0.8,2.5,4,4.7,37.8,15.7
		c21.2,7.1,50.9,16.2,65.9,20.4c32.2,9.1,94.4,24.4,99.3,24.4c3,0,2.5-1.5-4.9-17.2c-15-32-28.3-72.8-34.9-108.2c-4-21.6-4-64,0-77
		c11.3-37.1,42.8-44.7,67.6-16.3c13.7,15.5,29,52.1,38.1,90.8c9.9,42.3,16.3,99.6,14.3,128.1l-1.2,16l30.2,4.6
		c47.4,7.1,111.2,14.7,124.4,14.7h5.6l-7.6-11.3c-24.4-36.6-42.1-92.2-43.8-138.7c-1.2-28.8,0.8-40.3,8.4-51.7
		c10.3-15.3,27.6-19.5,44.5-10.8c39.3,19.9,75.8,102.8,86.6,196.5c1.2,9.9,3,18.4,3.9,18.7c6.1,2.4,31.2,3.7,57,3.4l29.8-0.5
		L1637.9,24727.3z"/>
	<path d="M2005.6,24246.2c-5.6-4.7-17.5-59.2-25.4-115.9c-16.5-118.3-20.9-180.2-20.9-300.8c-0.2-48.7,0.3-90.3,1-92.7
		c2.2-7.8,10.3-11,28.3-11c18,0,26.6,3.4,28.8,11c0.7,2.4,1.2,40.3,1.3,84.3c0.2,80.4,2.2,155.6,5.2,199.7c1.2,17.4,3,28.7,6.7,41.8
		c19.5,69.9,53.1,132.6,82.7,155c4,3.2,8.8,6.2,10.4,6.7c7.9,2.9,10.1-24.3,5.4-64.5c-1.3-11.6-3.9-33.9-5.9-49.7
		c-9.1-77-15.3-175.1-15.7-246.4l-0.3-47.4l3.9-4.2c10.6-11.5,44.5-9.8,51.1,2.5c2.4,4.6,4.7,49,4.9,94c0,29.7,0.7,37.2,4,53.9
		c19.5,93.7,64,185.5,112.4,231.7c15.5,14.8,30.3,23.3,34,19.5c3.2-3.2,2.2-23.1-2-38.9c-2-7.9-7.4-27.1-12-43
		c-11-38.4-26.3-99.1-33.5-134c-9.6-45.7-13.5-75.5-14.8-112.9c-2.2-67.9,10.1-112.1,34.9-124.7c3.4-1.7,11.1-4,17.2-5.1
		c9.3-1.7,12.8-1.5,21.6,0.7c13.3,3.4,18.4,7.2,27.6,20.1c24.1,34,74,136.2,94.7,193.6l6.6,18.2h16.9c20.4,0.2,37.1,3,57.3,9.8
		c8.4,2.7,15.3,4.9,15.7,4.6c0.3-0.3-2.9-7.2-6.9-15.3c-14.8-29.5-35.2-86.3-44-122c-12.1-49.7-12.5-93.4-1-116.5
		c8.4-16.7,18.4-22.6,37.9-22.6c17.4,0,23.6,3.5,33.9,19.5c10.3,15.8,41.3,78.9,57,116.1c7.2,17.2,13.7,31.7,14,32.4
		c1,1.9,44.3-53.9,44.3-57c0-1-6.2-6.2-13.7-11.6c-15.7-11.5-26.1-23.4-32.9-37.6c-10.1-20.7-4.9-45.7,12.5-61.2
		c16.7-14.8,38.9-21.1,69.3-19.5c20.2,0.8,34.5,5.1,48.4,13.8c35.7,22.8,35.6,63-0.3,118.5l-9.1,13.8l14.8,7.4
		c21.7,10.8,43.8,19.9,70.3,28.8c13,4.4,24.9,8.8,26.6,9.6c4.6,2.4,3.4,5.9-2.7,7.9c-4.7,1.7-8.8,1-26.5-3.9
		c-34.4-9.4-68.9-21.9-88.3-31.7l-6.6-3.4l-9.8,11c-51.2,56.6-59,69.3-59,95.4c-0.2,14.2,3,25.6,9.9,35.9
		c5.9,9.1,12.1,12.1,20.4,9.8c11.8-3,21.6-12.3,32.5-30.5c3-4.7,13.1-34,13.1-37.6c0-3.2,7.8-4.9,11.8-2.7c2.9,1.5,3.4,3.5,3.4,12.6
		c0,22.6-13.5,50.7-29.7,61.8c-20.9,14.5-52.2,16.5-76.3,5.2c-14.2-6.7-30.7-23.9-38.4-40.3c-10.1-21.1-9.9-44.2,0.5-66.6l4.4-9.3
		l-12.1-26.1c-13.1-28.1-41.6-85.4-48.5-97.6c-12.1-21.4-20.9-35.4-22.4-35.4c-2.2,0-1.9,10.6,1,41.5c4,42.6,14.5,87.8,36.9,161.1
		c14,45.7,19.7,74,16.3,80.4c-2.4,4.2-13.8,7.6-20.7,6.1c-2.7-0.7-12.1-4.4-20.7-8.4c-28-13-58.6-21.1-80.2-21.1h-12l1.2,4.7
		c5.1,20.1,6.4,30.5,6.6,50.9c0.2,19.5-0.3,23.6-3.2,29.3c-5.6,11.1-10.6,13.7-26.6,13.7c-17.5,0-29.2-5.1-42.6-18.4
		c-20.2-20.4-27.1-50.1-16.2-71.1c6.2-12.3,23.6-24.3,42.5-29.3c6.6-1.7,6.9-2.2,5.9-6.4c-4-16.7-43.3-101.5-62.4-134.3
		c-10.4-18.4-35.1-56-41.8-64l-4.2-5.1l-1.9,6.7c-4.6,15.7-7.2,44.8-7.4,77.5c-0.2,50.6,4.4,88.5,21.6,182
		c9.9,53.8,14.7,90.3,14.8,114.6c0.3,28.6-1.3,37.6-9.4,47.2c-12,14.5-32,14.8-52.9,1c-10.4-7.1-30.8-27.1-43.1-42.3
		c-25.3-31.5-59.2-92.2-72.8-130.9c-1.9-4.9-3.7-8.9-4.2-8.9c-0.7,0-1.3,24.8-1.5,55.3c-0.2,30.3-1,64.5-1.9,76.2
		c-3.5,49.9-14.5,70.8-37.1,70.8c-24.3,0-54.3-33.5-85.6-96.1l-14-27.8l1,10.1c1.7,15.5,1.9,101.3,0.3,114.3
		c-0.8,6.2-2.5,12.5-4,13.8C2022.8,24250.1,2010,24249.7,2005.6,24246.2z M2450.7,24066.2c-0.2-15-3.9-40.3-6.4-42.8
		c-1.7-1.7-8.6,8.3-10.6,15c-4.6,15.5-0.7,39.6,8.4,52.4l3.9,5.4l2.4-6.6C2449.8,24085.6,2450.7,24076.7,2450.7,24066.2z
		 M2702.3,23802.5c6.6-15.5,9.3-26.3,9.3-37.6c0-14.2-6.7-28.1-13.3-28.1c-5.6,0.2-18.2,11.5-22.8,20.4c-5.2,10.8-5.6,18.5-0.8,31
		c3.5,9.6,19.5,29.2,21.9,26.6C2697.2,23814.1,2699.8,23808.5,2702.3,23802.5z M2851.8,23836c-5.6-2.2-12.6-7.9-15-12.1
		c-3.4-6.1-2.7-18.5,1.2-22.8c6.4-6.9,26.6-9.4,37.9-4.7c17.4,7.2,16,31.5-2,39.1C2867.6,23838.2,2857.5,23838.4,2851.8,23836z"/>
	<path d="M821.4,24242.8c-6.6-1.3-9.4-6.9-14.3-28.7c-17.4-76.7-29.2-166.5-36.2-278.6c-3-48.5-5.1-169.2-3.2-198
		c1.2-18.5,1.5-20.4,5.7-24.4c9.9-10.1,41-10.1,50.9,0l4.6,4.4l0.8,108.5c0.5,59.8,2.2,130.3,3.5,156.7c2.4,46.7,2.5,48.7,8.4,69.1
		c15.2,52.2,32,90.8,54.6,124.7c11,16.5,29,35.2,37.1,38.6c4.9,2,5.9,2,8.4-0.5c4.7-4.6,3.5-45.3-2.7-95.4
		c-10.6-86.1-14.8-141.4-18.9-251.1c-1.7-43.6-1.2-61.2,2-69.6c2.5-6.6,10.3-10.1,24.1-10.8c13.8-0.8,23.6,2,28.1,8.1
		c4.6,6.2,6.4,29.2,6.4,82.6c0,44.5,0.3,49.9,4,68.3c21.2,103.8,76,211.7,127.1,249.9c12,9.1,21.6,12.5,24.1,8.4
		c2-3.2,1.9-18.2-0.3-28.8c-1-4.9-7.1-27.1-13.3-49.4c-21.4-74.7-39.4-153.4-46.7-203.1c-2.4-16.3-3-31.3-3-67.4
		c0-42,0.5-47.9,3.9-62.2c9.4-40.6,26.5-57.5,57.5-57.5c16.9,0,23.4,2.5,33,12.5c12.5,12.8,28.3,39.6,56.3,95.6
		c22.6,45.2,54.1,119.5,54.1,127.2c0,1.2,7.2,2.2,20.7,2.9c23.8,1.2,41.8,4.5,60.5,11.3l13.1,4.7l-3.2-6.1
		c-21.2-42-44.7-109.5-54.9-157.9c-3.5-17.2-5.2-62.4-2.7-75.7c2.2-11.6,8.9-27.1,14.2-32.7c10.3-11.1,34.2-15.5,48.9-9.1
		c10.6,4.7,16.2,13,38.9,57.6c27.5,54.1,66.2,144.4,64.2,149.7c-0.5,1.5-3,2-7.9,1.7l-7.2-0.5l-15.7-33.7
		c-32-68.8-63.4-129.4-74.8-144.9l-5.1-6.7l1,24.9c1.9,42.6,7.6,74.8,24.1,133.5c7.2,26.3,9.8,34.4,14.7,51.1
		c11.1,36.1,17.9,65.2,17.9,76.5c0,7.8-3.2,11-12.5,12.3c-8.8,1.3-14.3-0.2-32.9-9.3c-19.9-9.8-45.5-17.2-70.6-20.2
		c-16.5-2.2-21.2-1-20.1,4.9c6.9,35.4,8.6,63.4,4.7,77.5c-2.9,10.3-9.3,16.2-20.1,18.5c-24.3,5.1-55.1-13.5-67.9-41
		c-5.9-12.6-8.1-31.2-5.1-42.5c4.2-15.8,19.9-29.3,42.1-36.6c6.6-2,12-4.7,12-5.7c0-6.6-32.2-79.5-50.9-115.1
		c-20.2-38.4-54.6-92.2-60.2-94c-1.5-0.5-3.5,7.2-6.9,26.6c-2.9,16.3-3.9,73.5-1.9,102c2.2,29.7,8.4,74.7,17.9,126.4
		c18.5,102.8,22.2,139,16.7,162.6c-3.2,14.2-8.8,22.2-17.9,26.8c-13.8,6.6-27,4.2-45.7-8.3c-22.6-15.2-49.5-46.9-74.2-87.3
		c-12.5-20.7-34.4-64.7-42.6-86.3l-4.9-12.6l-1.2,64c-1.9,86.5-5.4,114.8-16.7,131.5c-4.9,7.2-15.3,12.6-24.4,12.6
		c-23.4,0-57.3-38.4-86.8-98.4c-7.2-14.7-13.3-27-13.7-27.1c-0.3-0.3,0,7.1,0.5,16.5c0.7,9.4,1.2,35.2,1.3,57.1
		c0.2,39.6-1.9,63.9-5.6,66.9C834.3,24242.5,825.9,24243.8,821.4,24242.8z M1271.8,24062c0.8-11.1-2.2-36.9-5.6-47.7
		c-1.3-4.6-4.4-2.7-8.9,5.6c-8.6,15.3-5.9,45.5,5.4,61.3l3.5,5.1l2.4-5.9C1270,24077.2,1271.3,24068.9,1271.8,24062z
		 M1507.4,23815.6c-11.1-4-19.5-17-19.7-30.5c0-6.1,0.8-7.8,6.2-12.5c11.5-9.8,28.6-9.4,39.6,0.8c5.4,5.2,6.6,7.8,7.6,15.5
		c1.3,12-0.7,17.4-9.1,22.8C1524.5,23816.8,1514.9,23818.3,1507.4,23815.6z"/>
	<path d="M1699.4,24263c-2.5-2.7-2.7-5.7-1.7-30c0.5-14.8,1.7-29.2,2.4-32c1.7-6.2,8.1-9.6,14.8-7.8c4.9,1.2,4.9,1.3,6.2,17.2
		c0.7,8.8,1,23.8,0.7,33.4c-0.7,14.5-1.3,18-3.9,19.9C1713.6,24266.9,1702.9,24266.4,1699.4,24263z M1697.4,24142.9
		c-22.8-6.1-41.6-18.9-49.2-33.5c-5.6-11-4.2-15.3,5.2-17.5c6.6-1.7,14.3,1.3,22.4,8.4c9.1,7.9,20.9,14.5,32.5,17.9l8.8,2.7l6.6-7.4
		c11.8-13.3,14.8-32.4,9.4-57c-4.7-21.2-15.3-40.3-43.3-77.5c-25.6-34-30.7-42-29.5-47.7c1.3-7.1,15.3-9.4,28.3-4.9
		c17.5,6.2,35.2,1.5,42.8-11.5c10.4-17.5,12-47,4.6-79c-9.8-41.3-22.1-62.5-39.1-67.1c-9.3-2.5-18.9,1.9-28.1,13.1
		c-4.6,5.2-9.4,9.3-13.3,10.6c-7.4,2.4-19.2,1.2-25.1-2.7c-3.7-2.4-4.2-3.7-3.4-8.1c3-15.7,14.3-27.8,32.5-35.2
		c8.9-3.5,12.3-3.9,39.3-3.9c32.7,0,39.3,1.3,61.7,12c28,13.1,46.2,49.2,46.7,91.7c0.2,18.5-2.4,30.5-9.3,44.7
		c-13.1,26.8-36.1,43.1-68.4,48.5l-12.6,2.2l13.3,9.4c43.6,30.8,70.3,65.6,76.7,100.3c1,5.4,1.5,17,1.2,26
		c-0.5,14-1.3,17.5-6.1,27.3c-6.2,12.5-19.5,25.8-32.4,32.4C1750.5,24146.6,1721,24149.1,1697.4,24142.9z M1695.4,23698.3
		c-4.2-3.4-4.2-3.7-4.2-31c0-40.1,1.7-45.2,15-45.2c13.5,0,13.7,0.2,14.2,39.1c0.7,39.1,1,38.4-12.8,39.8
		C1701.2,23701.5,1698.6,23701,1695.4,23698.3z"/>
	<path d="M2763,22879.6c-214-1.2-826.5-4.6-1360.9-7.4c-534.4-2.7-1066.9-5.6-1183.4-6.2l-211.8-1l-0.8-3.7
		c-2.4-9.3-5.1-57.1-5.2-89.3c0-30,0.7-38.4,3.9-55.6c9.3-49.2,20.4-83.3,39.1-121.3c26.1-52.8,52.2-83.4,86.8-102l11.1-5.9
		l13.3-29.2c21.9-48.2,56.6-112.4,82.2-152c5.6-8.8,9.9-16.2,9.6-16.7c-0.5-0.3-7.1,1.7-14.7,4.5c-42.6,16-85.3,24.6-132.8,26.6
		c-55.6,2.5-82.6-8.4-82.6-33.4c0-23.9,40.4-51.7,108.7-74.7c53.8-18,109.4-26.6,166-26l29.3,0.3l21.6-25.8
		c25.6-30.7,42.3-49.2,69.6-77.4c19.4-20.1,20.1-20.7,14.3-19.9c-17,3-59.3,4.9-85.1,4c-71.5-2.5-127.6-19.9-144.9-44.7
		c-4.2-6.1-5.1-8.9-5.1-17c0-19,13.8-31.5,45.5-41.5c59.7-18.7,144.8-18,213.9,1.9c22.9,6.6,45.3,16.7,51.7,23.1l4.4,4.6l21.7-17.9
		c29.8-24.4,74-57.6,104.2-77.9c20.7-14.2,24.3-17.2,21.1-17.9c-2.2-0.3-12.6-1.7-23.3-2.7c-73.8-7.8-158.2-41-190.6-75
		c-10.1-10.8-16.9-24.3-16.9-33.7c0-15.3,13-30,31.7-35.7c13.5-4.2,61.3-4.2,87.1,0c77.2,12.8,142.6,39.9,179.5,74.7
		c6.1,5.9,12.6,13.3,14.3,16.5c1.9,3.4,3.9,6.1,4.6,6.1c0.7,0,8.3-3.9,16.9-8.6c33.2-18.5,116.5-58.8,139.4-67.4
		c2.2-0.8,3.5-2,3-2.7c-0.5-0.5-10.8-4.2-22.6-8.1c-67.1-22.2-120.5-52.4-158.9-90c-29-28.3-36.7-52.2-22.6-69.1
		c13.3-15.8,51.4-14.7,105.7,3.4c57.3,19.2,112.4,52.8,153.5,93.5c14.2,14,23.6,27.1,25.6,34.9c0.8,3.5,1.9,4.4,3.9,3.7
		c1.5-0.7,18.2-6.4,37.2-12.6c41.5-13.8,94-29,136-38.9c17-4,30.8-7.8,30.8-8.3s-5.1-2.7-11.3-4.9c-35.6-12.3-90.5-40.3-123.5-62.7
		c-48-32.7-73.3-63.2-73.3-88.6c0-14,6.1-22.9,19.9-29.8c42.8-21.4,144.4,19.2,227.2,90.8c29.5,25.4,53.8,57.8,53.8,71.8
		c0,3.2,0.8,4.9,2.4,4.9c1.3,0,20.9-2.7,43.5-5.7c35.2-5.1,103.3-12.8,112.1-12.8c1.7,0-0.2-2.2-4.7-5.4
		c-43.5-31-79.5-66.1-106.3-103.5c-42.5-59.5-44.8-104.8-5.9-113.6c29-6.4,79.9,20.2,126.1,65.7c46.9,46.3,82.4,107.7,82.4,142.1
		v10.1l13-1.2c7.1-0.5,15-1,17.5-1c4.4,0,5.1-0.8,7.6-9.6c16.2-56.1,62-109.7,131.1-152.9c14.3-9.1,15.5-9.4,26.3-9.4
		s12,0.3,26.3,9.4c69.1,43.1,114.9,96.7,131.1,152.9c2.5,8.8,3.2,9.6,7.6,9.6c2.5,0,10.4,0.5,17.5,1l13,1.2v-10.1
		c0-34.4,35.6-95.7,82.4-142.1c46.2-45.5,97.1-72.1,126.1-65.7c38.9,8.8,36.6,54.1-5.9,113.6c-26.8,37.4-62.9,72.5-106.3,103.5
		c-4.6,3.2-6.4,5.4-4.7,5.4c8.8,0,76.8,7.8,112.1,12.8c22.6,3,42.1,5.7,43.5,5.7c1.5,0,2.4-1.7,2.4-4.9c0-8.1,11-27.3,24.9-43.1
		c40.1-46,112.7-94.2,172.2-114.3c37.4-12.8,65.2-14.5,83.8-5.2c33.4,16.7,24.9,54.1-21.4,94.4c-34.5,30-104.7,69.3-155.4,86.8
		c-6.4,2.2-11.5,4.4-11.5,4.9s13.8,4.2,30.8,8.3c42,9.9,94.5,25.1,136,38.9c19,6.2,35.7,12,37.2,12.6c2,0.7,3-0.2,3.9-3.7
		c2-7.8,11.5-20.9,25.6-34.9c41.1-40.8,96.2-74.3,153.5-93.5c54.3-18,92.4-19.2,105.7-3.4c14.2,16.9,6.4,40.8-22.6,69.1
		c-38.4,37.6-91.8,67.7-158.9,90c-11.8,3.9-22.1,7.6-22.6,8.1c-0.5,0.7,0.8,1.9,3,2.7c22.9,8.6,106.2,48.9,139.4,67.4
		c8.6,4.7,16.2,8.6,16.9,8.6s2.7-2.7,4.6-6.1c1.7-3.2,8.3-10.6,14.3-16.5c36.9-34.7,102.3-61.8,179.5-74.7c25.8-4.2,73.6-4.2,87.1,0
		c18.7,5.7,31.7,20.4,31.7,35.7c0,9.4-6.7,22.9-16.9,33.7c-32.4,34-116.8,67.2-190.6,75c-10.6,1-21.1,2.4-23.3,2.7
		c-3.2,0.7,0.3,3.7,21.1,17.9c30.2,20.2,74.3,53.4,104.2,77.9l21.7,17.9l4.4-4.6c6.4-6.4,28.8-16.5,51.7-23.1
		c69.1-19.9,154.2-20.6,213.9-1.9c31.7,9.9,45.5,22.4,45.5,41.5c0,8.1-0.8,11-5.1,17c-17.4,24.8-73.5,42.1-144.9,44.7
		c-25.8,0.8-68.1-1-85.1-4c-5.7-0.8-5.1-0.2,14.3,19.9c27.3,28.1,44,46.7,69.6,77.4l21.6,25.8l29.3-0.3c56.6-0.7,112.2,7.9,166,26
		c68.3,22.9,108.7,50.7,108.7,74.7c0,24.9-27,35.9-82.6,33.4c-47.5-2-90.2-10.6-132.8-26.6c-7.6-2.9-14.2-4.9-14.7-4.5
		c-0.3,0.5,4,7.9,9.6,16.7c25.6,39.6,60.3,103.8,82.2,152l13.3,29.2l11.1,5.9c34.5,18.5,60.7,49.2,86.8,102
		c18.9,38.3,28.8,68.9,38.1,117.1c5.9,30.5,7.6,74.7,3.4,91c-2.2,8.6-2.9,18-2.7,42.6c0,17.4,0.5,32.7,1,34
		C3448.5,22883,3339.7,22882.8,2763,22879.6z M3347.3,22804.4c-29.2-35.6-52.7-85.1-64.9-137c-8.9-38.1-10.1-49.9-10.6-113.1
		l-0.3-59.2l-8.8-19.2c-20.4-44.7-44.8-90.7-71.6-134.7c-16.3-26.8-37.9-59.7-38.8-58.6c-0.2,0.2,0.3,5.9,1.3,12.3
		c2.5,17.9,2.4,104.7-0.2,125.6c-8.6,68.3-26.3,118-51.6,144.8c-11,11.5-19.5,16-30.7,16c-15.3,0.2-27.5-11.5-33.9-32.4
		c-7.2-23.6-9.6-88.8-4.7-130.9c6.9-59.5,28-138.4,49.9-186.7c4.7-10.3,9.4-20.9,10.4-23.4c1.7-4,0.7-5.7-14.8-24.4
		c-34-40.4-102-112.1-102-107.4c0,1,1.9,12.6,4,26.1c6.2,36.6,8.4,66.1,7.2,97.6c-1.5,43.5-8.4,71.8-21.4,86.6
		c-7.2,8.3-14,11.5-23.6,11.5c-27.1,0-45-30-55.1-92.2c-3.7-23.1-4.2-82.9-0.8-107c3.5-24.3,9.8-53.3,15.5-69.8
		c2.7-8.3,4.6-15.7,4-16.3c-4.7-7.6-121.7-94.4-133.1-98.8c-2.4-0.8-2.7-0.5-1.7,2c2.7,7.1,7.8,45.7,9.6,71.6
		c2.4,37.2-0.7,103.3-6.1,129.9c-6.2,30.5-21.7,46.2-41.6,41.8c-25.3-5.7-47.4-44-57.3-99.3c-8.4-47.7-4.9-127.9,8.1-180
		c2.4-9.6,4-17.7,3.7-18c-2.5-2.2-58.1-31-78.4-40.6c-29.7-14.2-67.2-31-69.4-31c-0.7,0,0,5.1,1.9,11.3c8.6,31.3,16.9,81.4,19,115.9
		c1.2,19-1.3,50.6-5.2,65.7c-7.4,28.5-23.1,46.2-41.3,46.3c-24.8,0.2-41.3-18-52.9-58.5c-18-62.2-23.3-171.4-10.1-213
		c0.8-2.5-4-4.7-37.8-15.7c-21.2-7.1-50.9-16.2-65.9-20.4c-32.2-9.1-94.4-24.4-99.3-24.4c-3,0-2.5,1.5,4.9,17.4
		c15,31.9,28.3,72.6,34.9,108c4,21.6,4,64,0,77c-11.3,37.1-42.8,44.7-67.6,16.3c-13.7-15.5-29-52.1-38.1-90.8
		c-9.9-42.3-16.3-99.6-14.3-128.1l1.2-16l-30.2-4.6c-47.4-7.1-111.2-14.7-124.4-14.7h-5.6l7.6,11.3c16,23.9,29.7,58,38.6,95.7
		c5.2,22.4,7.4,61.7,4.2,77c-4.4,20.9-19.5,34.4-36.6,32.9c-44.5-4.2-87.1-87.3-101.6-198.4l-2.9-21.1l-6.6-1.2
		c-3.7-0.7-9.9-1.2-13.8-1.2l-7.2-0.2v7.2c-0.2,32.5-20.2,66.6-46.7,79.2c-10.8,5.1-12.6,5.4-30,5.4c-21.6,0-30.3-2.4-46.7-13
		c-12.5-8.1-28.8-24.1-35.9-35.6c-2.9-4.4-5.4-7.9-5.9-7.9s-3,3.5-5.9,7.9c-7.1,11.5-23.4,27.5-35.9,35.6
		c-16.3,10.6-25.1,13-46.7,13c-17.4,0-19.2-0.3-30-5.4c-26.5-12.6-46.5-46.7-46.7-79.2v-7.2l-7.1,0.2c-4,0-10.3,0.5-14,1.2l-6.6,1.2
		l-2.9,21.1c-12.6,96.6-47,174.1-86.3,194c-16.9,8.8-34.2,4.6-44.5-10.8c-7.6-11.5-9.6-22.9-8.4-51.7
		c1.7-46.5,19.4-102.1,43.8-138.7l7.6-11.3h-5.6c-13.1,0-77,7.6-124.4,14.7l-30.2,4.6l1.2,16c2,28.5-4.4,85.8-14.3,128.1
		c-9.1,38.8-24.4,75.3-38.1,90.8c-24.8,28.3-56.3,20.7-67.6-16.3c-4-13-4-55.4,0-77c6.6-35.4,19.9-76.2,34.9-108
		c7.4-15.8,7.9-17.4,4.9-17.4c-4.9,0-67.1,15.3-99.3,24.4c-15,4.2-44.7,13.3-65.9,20.4c-33.7,11-38.6,13.1-37.8,15.7
		c7.4,23.6,9.8,79.9,5.1,124.9c-7.2,70.9-19.2,113.9-37.2,133.1c-16.5,17.5-41.8,17.9-56.1,0.7c-24.4-29.7-28-93.4-10.1-180.2
		c2.7-13,6.2-28.6,7.9-35.1c1.9-6.2,2.5-11.3,1.9-11.3c-2.2,0-39.8,16.9-69.4,31c-20.2,9.6-75.8,38.4-78.4,40.6
		c-0.3,0.3,1.3,8.4,3.7,18c13,52.1,16.5,132.3,8.1,180c-7.8,43.6-24.9,80.2-43.5,93c-24.8,17-47.7,2.4-55.4-35.6
		c-5.4-26.6-8.4-92.7-6.1-129.9c1.9-26,6.9-64.5,9.6-71.6c1-2.5,0.7-2.9-1.7-2c-11.5,4.4-128.4,91.2-133.1,98.8
		c-0.5,0.7,1.3,8.1,4,16.3c12.1,35.6,17.7,74.5,17.7,122c-0.2,63.4-11.1,110.9-31,133.5c-8.3,9.3-16.7,13.5-27.1,13.5
		c-27.5,0-42.8-33.2-45-98.1c-1.2-31.5,1-61,7.2-97.6c2.2-13.5,4-25.1,4-26.1c0-4.7-67.9,66.9-102,107.4
		c-15.5,18.7-16.5,20.4-14.8,24.4c1,2.5,5.7,13.1,10.4,23.4c21.9,48.4,43,127.2,49.9,186.7c4.9,42.1,2.5,107.4-4.7,130.9
		c-6.4,20.9-18.5,32.5-33.9,32.4c-11.1,0-19.7-4.6-30.7-16c-25.3-26.8-43-76.5-51.6-144.8c-2.5-20.9-2.7-107.7-0.2-125.6
		c1-6.4,1.5-12.1,1.3-12.3c-0.8-1-22.4,31.9-38.8,58.6c-26.8,44-51.2,90-71.6,134.7l-8.8,19.2l-0.3,59.2
		c-0.5,63.2-1.7,75-10.6,113.1c-9.6,41-27.6,83.6-48.7,115.1c-5.9,8.8-10.6,16.3-10.3,16.7c0.5,0.5,2978.1,16.7,3151.5,17.2
		l95.7,0.2L3347.3,22804.4z"/>
	<path d="M1990.8,22463.7c-38.3-8.8-67.2-43.8-75.5-91.2c-11.5-65.7,20.2-127.9,72.1-141.7c11.3-3,33.2-3,44.8,0.2
		c32.5,8.6,58.1,36.6,69.6,76c3.4,11.5,3.9,17.2,3.9,40.3s-0.5,28.8-3.9,40.3c-13.7,47.4-45.3,75.5-87,77.7
		C2006.5,22465.7,1997.2,22465,1990.8,22463.7z M2033.4,22436.7c13.8-6.4,26.3-19,34.2-35.2c21.1-42.8,14.3-102-15.2-131.5
		c-14-13.8-22.1-17.2-42-17.2c-19.2,0-26.8,2.9-39.9,15.3c-11,10.3-19.5,24.4-25.3,42c-3.9,11.8-4.4,16.3-4.6,36.2
		c-0.2,24.9,2.7,37.9,12.5,57.3C1969.9,22436.5,2003.4,22450.4,2033.4,22436.7z M1254.3,22461.8c-19.2-5.2-36.1-18.4-43.6-34
		c-6.6-13.5-7.6-32.7-2.4-46.7c8.9-23.4,29.3-35.6,80.1-47.4c40.8-9.6,54.8-21.6,52.7-45.3c-2-24.3-24.8-38.1-58.6-35.9
		c-23.8,1.5-46.2,10.8-64.4,26.3c-3.5,3-6.9,5.4-7.1,5.1c-4-4.2-14.5-17.7-14.5-18.7c0-2.4,20.6-16.7,32.4-22.6
		c24.1-12.1,57.6-17,81.7-12c39.8,8.6,62.2,37.9,56.1,73.6c-2.4,13.7-8.3,23.8-18.7,32.4c-13,10.4-24.9,15.2-63.9,24.9
		c-36.1,9.3-50.1,19-52.9,37.4c-2.4,14.5,4.9,28,19,35.7c24.6,13.3,61.5,7.2,92.2-15c3.4-2.5,3.9-2.2,10.6,6.6
		c3.7,5.1,6.9,9.9,6.9,10.6c0,1.9-13.3,10.4-24.9,16.3C1314.3,22463.7,1276.4,22467.7,1254.3,22461.8z M1771.7,22461.8
		c-12-3.4-20.1-7.6-30.5-16.3c-10.3-8.6-26.5-28.3-24.4-30c5.6-4.6,15.5-11.8,16.5-11.8c0.5,0,6.7,5.9,13.5,13.1
		c14,15,24.3,21.2,38.9,23.8c18.4,3.4,35.7-2.4,46.9-15.3c7.4-8.6,9.9-17.2,9.1-31.7c-1.3-24.1-13.8-39.1-86.5-102.8l-44.7-39.4
		v-9.8v-9.8h80.9h80.9v11.8v11.8l-60.8,0.3l-60.7,0.5l39.9,35.4c48.9,43.3,62.9,58,71.1,74.8c6.1,12.3,6.2,13,6.2,32
		c0,18-0.3,20.2-4.7,28.8c-8.3,16.7-21.7,28.3-39.6,33.7C1810.8,22465,1785.2,22465.4,1771.7,22461.8z M2201.4,22461.8
		c-12-3.4-20.1-7.6-30.5-16.3c-10.3-8.6-26.5-28.3-24.4-30c5.6-4.6,15.5-11.8,16.5-11.8c0.5,0,6.7,5.9,13.5,13.1
		c14,15,24.3,21.2,38.9,23.8c18.4,3.4,35.7-2.4,46.9-15.3c7.4-8.6,9.9-17.2,9.1-31.7c-1.3-24.1-13.8-39.1-86.5-102.8l-44.7-39.4
		v-9.8v-9.8h80.9h80.9v11.8v11.8l-60.8,0.3l-60.7,0.5l39.9,35.4c48.9,43.3,62.9,58,71.1,74.8c6.1,12.3,6.2,13,6.2,32
		c0,18-0.3,20.2-4.7,28.8c-8.3,16.7-21.7,28.3-39.6,33.7C2240.5,22465,2214.9,22465.4,2201.4,22461.8z M2418.8,22417.7
		c-21.1-25.8-50.1-60.8-64.2-78c-14.3-17.2-26.3-32.2-26.8-33.5c-0.7-1.3,0.3-6.4,2-11.3l3-9.1h60.5h60.3v-27v-27h12.6h12.6v27v27
		h17.7h17.7v11v11h-17.7H2479v78.4v78.4h-11h-10.8L2418.8,22417.7z M2453.2,22308.1c-0.3-0.3-21.9-0.3-48-0.2l-47.4,0.5l47.5,58.3
		l47.5,58.3l0.5-58.1C2453.6,22334.9,2453.6,22308.5,2453.2,22308.1z M992.1,22461.5c-0.7-0.5-1.2-52.6-1.2-115.4v-114.3h84.3h84.3
		v11.8v11.8h-70.8h-70.8v40.4v40.4h62.4h62.4v11.8v11.8h-62.4h-62.4v39.6v39.6h69.9h69.9v11.8v11.8h-82.2
		C1030.2,22462.7,992.6,22462.2,992.1,22461.5z M1400.4,22450v-12.6h37.9h37.9v-102.8v-102.8h13.5h13.5v102.8v102.8h38.8h38.9
		l-0.5,12.3l-0.5,12.1l-89.7,0.5l-89.8,0.3V22450z M1580.8,22259.3c-14-5.1-13.5-24.8,0.7-29.8c7.9-2.9,19.5,6.1,19.5,15
		C1601,22254.2,1589.7,22262.5,1580.8,22259.3z"/>
</g>
</svg>
