<?xml version="1.0" encoding="utf-8"?>
<!-- Generator: Adobe Illustrator 27.0.0, SVG Export Plug-In . SVG Version: 6.00 Build 0)  -->
<svg version="1.1" id="Layer_1" xmlns="http://www.w3.org/2000/svg" xmlns:xlink="http://www.w3.org/1999/xlink" x="0px" y="0px"
	 viewBox="0 0 569.9 360" style="enable-background:new 0 0 569.9 360;" xml:space="preserve">
<path transform="translate(0.000000,2500.000000) scale(0.100000,-0.100000)" d="M2594.1,24997.2c-11.8-4.8-12.3-10.2-10.7-80.3
	c1.9-66.9,5.4-95.9,13.1-103.6c6.2-5.9,26-7.5,37.5-2.7l9.6,4l1.9,58.6c2.1,60.5,0.8,102-3.7,113.8
	C2637.5,24998,2610.7,25003.9,2594.1,24997.2z M3396.3,24952.7c-5.1-2.1-11.5-7.5-13.9-11.8c-5.4-8.8-32.7-127.7-43.1-187.4
	c-28.1-159.1-53.3-381-64.3-569c-9.6-159.1-11-206.2-10.7-362.8c0-170.6,1.9-207.5,11-217.4c13.1-14.7,42.3-22.2,78.2-20.1
	c44.2,2.4,64.8,13.9,68.3,38.3c0.8,7,1.6,102.6,1.6,212.3c0,199.8,3.5,340.9,12,501.8c4.3,75.5,4.6,77.7,15,116.5
	c44.2,160.4,108.7,298,178.9,380c21.7,25.2,47.7,47.7,63.2,54.6c9.4,4.3,11,4.3,15,0.8c16.1-14.5,16.1-84.1-0.3-213.9
	c-15.8-125-24.1-205.9-33.2-328c-16.6-215.8-25.4-477.2-17.4-514.7c6.4-29.5,30.3-41.2,80.1-39.1c23.3,1.1,31.1,2.4,41.5,7.8
	c16.9,8.3,22,15.8,25.4,38c4,26.2,8,138.2,8,232.4c0,79.8,0.3,83,7.8,120.5c42.3,208.9,125.9,406.2,231.6,547.3
	c27.3,36.1,69.9,81.4,94,99.6c18.5,14.2,47.1,28.4,54.1,27c2.7-0.5,7-5.1,9.4-10.2c11-21.7,5.6-49.3-39.4-206.2
	c-25.4-88.9-62.1-233.5-81.4-320.3c-17.9-80.6-28.9-144.3-39.4-228.7c-5.6-46.6-8-172.4-4-216.1c15-159.3,65.1-227.1,164.9-222.2
	c56.8,2.7,78.5,20.1,127.7,102.3c80.6,135,190.9,371.4,230.3,494l4,12l36.4,0.5c61.9,0.5,113.3,9.6,166.6,28.9
	c14.7,5.4,28.9,10.2,31.3,11.2c3.5,1.1-1.6-11.8-17.7-45c-61.6-127.7-115.7-295.6-133.1-413.4c-7.2-49.5-7-120.8,0.5-157.4
	c6.4-31.9,18.7-60,34-77.1c29.7-33.5,86.8-43.9,128.3-23.6c28.1,13.7,41,33.5,102,155c46.1,91.3,75,155.3,119.4,263l7.5,18.2
	l26-33.7c50.9-66.4,91.3-120.2,91.3-121.6c0-1.1-10.7-9.1-23.8-18.2c-50.9-35.3-79.8-65.9-98-103.4c-16.6-34.8-21.2-66.7-13.4-96.7
	c6.4-24.4,16.9-41,40.2-64.5c24.4-24.9,50.1-39.1,89.7-49.8c20.1-5.4,28.9-6.2,75-6.2c56.8,0,68.5,1.9,110.1,17.7
	c55.7,21.4,94.5,64,104.4,114.3c7,36.4-1.9,83.5-25.2,136.3c-12.6,28.1-38,72-57.3,98.5l-11.5,16.1l15.3,7.8
	c63.2,31.9,142.5,64.8,224.4,92.4c30.8,10.7,57.8,20.9,60,23c5.4,5.4,1.9,11.8-9.1,16.1c-13.1,5.6-20.1,5.1-56.2-4.3
	c-83.8-21.4-169.5-51.7-245.3-86.2l-20.6-9.4l-51.4,57.3c-78.7,87.6-95.9,110.3-112.7,147.3c-21.7,47.9-21.4,105.2,0.5,149.1
	c22.2,44.2,44.2,54.1,79.3,36.7c45.3-22.8,78.7-74.2,98.5-151.3c6.4-25.7,10.7-30.8,25.7-30.8c19.3,0,25.4,22.5,17.4,65.3
	c-13.1,69.9-47.7,121-98.3,145.9c-31.6,15.5-54.4,19.8-97.5,18.2c-38.6-1.3-61.3-7-87-21.2c-21.2-11.8-47.7-33.7-61.6-51.4
	c-58.1-72.8-67.5-150-27.8-230.3l9.1-18.7l-30-64.3c-76-163.3-163.6-329.6-184.5-351c-5.1-5.1-5.1-4.8-5.1,26
	c0,65.3,11.5,158.8,29.7,241.8c12.9,59.4,32.9,132.8,70.2,257.1c30.3,100.7,39.9,140,45.3,181.5c4,32.7,1.9,38.3-17.9,45.5
	c-24.4,8.6-40.4,5.1-93.2-19.3c-50.6-23.3-80.6-33.5-128.8-44.4c-36.4-8-87.3-13.7-101.2-11l-9.4,1.6l6.2,26.2
	c10.4,42.6,14.5,77.4,14.5,122.9c0,64.5-8.3,88.1-36.1,102.3c-12,6.4-16.1,7-44.2,6.7c-36.4,0-50.1-4.6-81.7-25.4
	c-27.6-18.5-49-42.8-64-72.8c-16.9-33.7-21.2-52.5-19.8-86c1.3-30.3,7.2-47.1,23.8-67.7c19-23.8,57-46.6,96.7-58.1
	c18.7-5.4,22.2-7.2,21.7-11.8c-1.6-15.3-53.3-135.8-95.9-224.1c-56-116.5-133.4-246.3-177.5-298.3c-14.2-16.6-13.4-17.7-22,21.2
	c-11,49.8-14.5,95.6-14.5,188.8c0.3,136,7.5,199.2,53,453.9c30,167.4,41.5,250.4,43.6,312c2.7,84.3-10.7,126.1-47.4,147
	c-13.9,7.8-16.3,8.3-42.8,8.3c-25.2,0-29.7-0.8-43.9-7.2c-50.9-24.1-112.5-83-170.6-164.1c-61.6-85.4-112.5-180.2-160.7-298.6
	l-15.8-38.8v79c-0.3,115.4-4.6,258.1-9.4,302.6c-7.2,68-19.5,107.9-40.7,131.5c-15.8,17.4-27.8,22.5-54.4,22.5
	c-19.3,0-24.9-1.1-37.5-7.2c-41-20.3-89.2-74.4-141.1-159.3c-15-24.4-37-66.7-73.9-142.7l-7-14.7l1.3,17.4
	c2.4,34.8,6.4,154.5,6.4,199.2c0,48.5-3.2,94.5-8.3,127.2c-2.9,18.5-3.7,19.8-12,23.3C3426.3,24958.1,3408.7,24957.8,3396.3,24952.7
	z M4546.4,24539.8c7-21.2,9.9-54.9,7-86.2c-2.4-27.6-12-80.9-15.8-87.8c-3.2-5.6-20.1,15.3-27,33.2c-15.5,41-6.2,104.7,20.6,143.8
	c3.7,5.4,7.8,9.9,9.1,9.9C4541.3,24552.7,4544.3,24546.8,4546.4,24539.8z M5213.2,23784.4c6.7-15.5,14.5-38,17.4-49.5
	c7-26.8,7.5-65.3,1.3-83.8c-4.8-14.2-18.2-35.1-24.1-37.5c-11.5-4.3-53.3,28.9-66.7,53.3c-7.5,13.4-8,16.1-8,43.6
	c0,28.1,0.5,30.3,8.8,46.9c10.7,21.2,27,42.6,41.8,55.2C5196.8,23823.8,5196.3,23824.6,5213.2,23784.4z M287,24937.2
	c-19.8-7.2-19.5-7.2-40.4-100.7c-21.7-97.2-36.4-186.1-54.9-333.4c-24.4-192.3-38-384.5-43.1-609.2c-2.7-119.4,0.3-309.8,5.4-327.2
	c5.4-19,26.5-29.7,65.1-33.2c23.6-1.9,49.3,2.1,68.3,11.2c24.9,12,23.3,0.5,22.5,184.5c-0.8,199.8,3.5,383.7,14.2,582.4
	c3.7,69.9,4.6,75.5,13.7,108.4c50.1,183.7,124.5,334.2,204.3,414c21.7,21.7,39.1,34.3,53.3,38.6c15.8,4.6,23.3-49,16.9-124
	c-1.6-19.3-7.8-74.7-13.7-122.9c-25.4-210.7-37.5-361.2-46.6-585.9c-6.4-156.4-7.2-199.2-4.6-228.1c3.2-36.7,7.8-45.3,28.4-55.7
	c15-7.5,17.9-8,46.9-8c46.6,0,68.5,9.6,74.7,32.4c6.4,24.6,8.6,69.6,9.9,197.9l1.3,136.6l8,40.2c27.3,135.8,69.6,261.3,129.6,382.9
	c67.5,136.8,147.8,244.5,215.6,288.9c17.4,11.5,36.7,20.4,44.2,20.4c7.2,0,12.6-15.8,12.6-37.2c-0.3-30-4.6-48.2-46.3-194.4
	c-22-76.6-54.1-202.2-75.8-295.9c-22-95.6-37.2-183.4-46.3-266.4c-6.4-60.8-6.7-196.3,0-241.3c13.4-94.3,41.2-155,82.5-179.7
	c27.8-16.6,73.6-23.8,107.4-16.6c35.3,7.8,56.2,24.9,86.5,70.7c75.5,114.6,216.6,410.8,254.7,534.5l4.6,15l47.1,1.6
	c64.8,2.1,117.8,12.3,172.4,32.9c13.1,5.1,24.4,9.1,24.9,9.1s-5.4-12.9-13.4-28.7c-45.8-91.6-94.5-223.6-122.4-332.3
	c-23.6-91.6-32.7-170.3-27-232.4c6.7-75.5,29.7-120,72.6-141.1c16.9-8.3,18.7-8.6,51.1-8.6c31.1,0,34.5,0.5,46.9,7.2
	c29.2,15.5,42.3,35.1,101.5,152.1c53.6,105.8,91.3,190.7,147.5,330.4c22.5,55.7,23.6,58.6,18.7,62.1c-6.2,4.6-26.2,4.8-34,0.8
	c-5.6-2.9-21.7-35.1-74.4-148.3c-58.1-124.8-130.1-262.4-162.8-311.7l-15.3-23l-0.8,33.5c-0.8,34,4.3,99.3,11.8,150
	c12.6,87.6,36.4,183.4,86.8,349.4c35.1,115.9,50.9,182.6,50.9,215.8c0,22-12.3,30-45.8,30c-19.5,0-22.2-0.8-55.4-16.3
	c-69.9-32.9-114.3-47.4-177.3-58.1c-26-4.6-75.8-6.7-79-3.5c-1.1,0.8,1.9,19.3,6.4,41c16.9,79.3,17.1,156.1,0.8,188.8
	c-9.9,19.8-24.1,30.5-47.4,34.8c-76.9,14.5-164.1-50.6-189-140.6c-4.6-16.9-5.4-26.2-4.6-47.9c0.8-23.6,2.1-29.5,9.6-45.5
	c17.7-37.5,61.1-69.1,116.5-84.9c11.2-3.2,20.6-7,20.6-8.3c0-4-18.5-52.5-34-89.2c-35.9-84.6-81.7-180.2-120.5-251.4
	c-54.9-100.4-134.2-218-140.3-207.5c-6.7,12.1-17.1,74.7-21.4,129.6c-3.5,45-1.9,188,2.9,234.3c8.6,85.4,20.1,163.3,43.1,290.5
	c43.1,238.6,55.2,336.1,50.6,403c-4.6,63.7-26,99.3-65.6,110.1c-16.3,4.6-53.8,1.6-69.6-5.4c-107.9-47.9-246.3-241-341.4-476.1
	l-15.3-37.8l-1.6,152.9c-1.1,84.3-3.2,171.9-4.6,194.7c-8,121.3-28.1,177.5-70.2,195.5c-11.8,5.1-17.4,5.9-35.6,4.8
	c-28.9-1.6-47.7-11.5-81.4-43.6c-57-54.6-104.4-130.1-173.8-277.1l-5.6-12l1.3,17.4c2.4,32.1,6.4,161.7,6.4,204.8
	c0,46.6-3.5,98.5-8.3,129.3c-2.4,15.3-4.6,20.6-9.1,23.6C320.5,24940.1,298.8,24941.7,287,24937.2z M1463.6,24507.1
	c4.3-14.2,6.2-76.6,2.9-100.7c-5.4-38-14.2-75.8-17.9-74.4c-5.9,2.4-20.1,24.6-26,40.4c-8,22.5-8,64.3,0,92.6
	c6.7,23.3,13.7,38.6,24.1,52.5c6.4,8.6,7,8.8,10.4,4C1459,24518.9,1462,24512.5,1463.6,24507.1z M2629.7,24686.3
	c-59.2-6.2-118.4-31.3-151.3-64c-26-25.7-39.4-59.4-28.4-70.7c4.6-4.3,20.6-9.6,29.5-9.6c12.3,0,25.2,6.2,41.5,20.4
	c32.9,28.1,67.5,46.6,101.5,54.4c10.2,2.1,12,1.6,19.5-4.6c12.3-10.4,28.1-36.4,34.5-56.5c13.9-44.7,1.9-122.4-28.1-182.1
	c-13.9-27.6-47.4-75.8-92.9-134.2c-54.6-69.9-73.4-99.9-71.5-114.3c2.4-19.5,35.1-24.6,81.4-12.9c33.2,8.6,51.1,8,72.3-1.1
	c25.2-11.2,39.9-32.1,51.1-72.8c4-13.7,4.8-27,4.6-68c0-44.5-1.1-55.2-7.2-84.9c-19.5-92.4-56.5-167.6-89.2-181.5
	c-36.4-15.8-67.2-4.8-93.5,33.2c-13.1,19.3-23,23.8-53,25.2c-25.7,1.1-42.6-3.2-51.4-12.9c-4.6-5.1-4.6-6.2-0.3-21.7
	c10.2-37,30.8-61.3,66.1-78.2c31.1-15,58.9-20.9,106.8-22.5c65.3-2.1,120.8,8,171.1,31.6c41.2,19.3,67.7,45.5,89.7,88.1
	c35.9,69.9,46.9,155.3,29.5,227.6c-9.9,41.5-41.8,91.6-76.6,120.2c-31.1,25.7-87,48.2-130.7,52.8c-8,0.8-16.3,2.1-18.5,2.7
	c-2.1,0.8,6.2,7.8,19.8,17.1c61.3,42,126.7,103.1,158.8,148.6c63.2,89.2,77.7,203,34.8,273.1c-26,42.8-70.7,76-120.5,89.7
	c-17.4,4.6-63.7,11.2-74.4,10.2C2652.7,24688.7,2641.2,24687.6,2629.7,24686.3z M5605.7,23875.5c-18.2-5.6-35.3-20.1-43.9-37
	c-5.6-11.2-5.6-36.1,0-47.9c2.7-5.4,9.1-12,15.5-15.8c20.9-12,71.5-13.7,92.6-2.7c10.2,5.4,23,20.6,26.8,32.1
	c8,24.4-4.8,53.6-29.2,66.1c-12,6.4-17.1,7.5-34.8,7.2C5621.5,23877.6,5609.5,23876.5,5605.7,23875.5z M2079.2,23818.7
	c-23-10.4-35.6-27.8-43.9-61.3c-5.6-23.3-2.7-33.7,13.7-48.2c15.8-13.9,35.3-19.8,59.4-18.2c28.1,2.1,50.9,17.4,60.5,40.4
	c5.9,14.5,8,41.8,4,53.8c-3.5,11-24.6,30.5-38,35.6C2120.4,23825.9,2092.8,23824.9,2079.2,23818.7z M2580.7,23517.5
	c-14.5-7.2-15.5-13.9-15.5-89.4c0-58.4,0.8-71,5.1-86.5c5.9-21.7,11.8-26,36.1-26c16.6,0,28.4,3.7,30.8,9.4
	c3.5,9.4,7.2,83.5,6.4,129.1l-0.8,51.7l-7.5,7.2c-6.4,6.4-9.6,7.5-26.8,8.3C2594.9,23521.8,2586.9,23520.7,2580.7,23517.5z
	 M17.3,23185.2c-13.1-6.7-20.1-21.7-16.3-33.7c3.7-10.7,12.6-19.5,21.7-21.7c3.7-0.8,701.3-3.5,1550.4-5.6
	c849.1-2.1,1965.4-5.1,2480.9-6.7c1524.2-4.3,1581.7-4.3,1589.8,1.1c8.3,5.4,12.9,15,12.9,27.3c0,7.2-2.1,11.8-8.8,18.5l-8.8,8.8
	l-301,1.6c-165.8,0.8-1287.4,4-2492.9,7s-2332.6,5.9-2505,6.7C42.5,23190,26.2,23189.7,17.3,23185.2z M33.4,22033.7
	c-13.1-6.7-20.1-21.7-16.3-33.7c3.7-10.7,12.6-19.5,21.7-21.7c3.7-0.8,701.3-3.5,1550.4-5.6s1965.4-5.1,2480.9-6.7
	c1524.2-4.3,1581.7-4.3,1589.8,1.1c8.3,5.4,12.9,15,12.9,27.3c0,7.2-2.1,11.8-8.8,18.5l-8.8,8.8l-301,1.6
	c-165.8,0.8-1287.4,4-2492.9,7s-2332.6,5.9-2505,6.7C58.6,22038.6,42.2,22038.3,33.4,22033.7z M3336.4,21857.8
	c-33.2-6.4-59.2-19.8-84.9-43.9c-28.9-26.8-53-69.9-64.3-114.6c-5.1-20.3-6.2-30.5-5.9-70.7c0-41.8,0.8-49.8,7.2-72.8
	c21.7-80.9,72-136,138.4-152.4c18.7-4.6,61.3-4.6,80.3,0c22.2,5.4,51.4,20.1,69.9,35.3c78.5,65.6,102.8,206.7,53.6,312
	c-24.6,52.5-68,91.6-115.4,104.2C3393.4,21860.8,3358.1,21862.1,3336.4,21857.8z M3385.6,21813.4c49.5-8.3,89.4-49.8,109-113.8
	c6.7-22.2,7.5-27.6,7.5-69.6c0-51.9-3.7-71-21.7-107.6c-12.9-26.5-41.2-56.5-62.7-66.1c-53.8-24.6-111.7-7.2-147.8,45
	c-56,79.8-48.7,213.7,15,277.4c23.6,23.6,43.9,32.9,80.9,37.2C3367.4,21815.8,3376.3,21814.7,3385.6,21813.4z M1903,21853.5
	c-27.6-7.2-48.7-19.5-66.1-37.8c-17.7-18.7-26.8-37-30.8-63.2c-5.4-34.8,5.4-71,27.8-92.6c22.2-21.7,58.9-37.5,122.1-52.5
	c77.7-18.5,105.2-35.6,112.7-68.8c8.8-39.1-15.5-75.2-58.9-87.8c-18.5-5.4-62.1-5.6-87.3-0.3c-23.8,4.8-61.3,23.6-86.2,42.6
	l-19,14.7l-15.3-17.9l-15.3-17.9l11.5-10.2c69.6-60.8,183.2-79.3,257.1-42c46.3,23.6,72.6,74.4,64.8,125.6
	c-8.8,56.5-47.1,85.7-143,108.4c-86,20.6-112.2,36.4-120.5,72.8c-7.2,31.1,9.9,62.1,42.6,77.7c13.1,6.2,19.5,7.5,45,8.6
	c45,1.9,82.7-9.6,119.7-35.9c7-5.1,13.7-9.1,14.7-9.1c1.1,0,8.3,8.3,16.1,18.7l13.9,18.5l-15.5,11c-19.5,14.2-53.3,30.3-75.5,36.1
	c-11,2.9-31.6,5.1-56.2,5.6C1928.7,21858.6,1919.3,21858.1,1903,21853.5z M2916,21856.2c-27-5.4-54.9-19.8-76.6-39.4
	c-13.4-12-43.1-48.7-42-51.7c0.5-1.3,8.6-7.8,17.9-14.7l17.1-12.6l5.4,7.5c2.9,4.3,14.7,17.1,26.2,28.7
	c28.7,28.7,47.7,37.5,82.7,38.8c31.3,1.3,49.5-4.6,69.1-22.2c18.5-16.6,25.7-34,25.7-61.6c0-52.2-17.4-74.4-151-192.3
	c-43.4-38.3-84.6-75.2-91.6-81.9l-12.9-12v-18.2v-18.2h156.6h156.6v22.8v22.8l-118.1,0.5l-117.8,0.8l73.9,65.6
	c139.8,123.4,159.1,150.5,156.1,219.6c-1.1,24.9-2.1,30.8-9.6,46.3c-16.3,35.1-52.5,63.2-91,71.2
	C2976.7,21859.2,2932,21859.4,2916,21856.2z M3748.7,21856.2c-27-5.4-54.9-19.8-76.6-39.4c-13.4-12-43.1-48.7-42-51.7
	c0.5-1.3,8.6-7.8,17.9-14.7l17.1-12.6l5.4,7.5c2.9,4.3,14.7,17.1,26.2,28.7c28.7,28.7,47.7,37.5,82.7,38.8
	c31.3,1.3,49.5-4.6,69.1-22.2c18.5-16.6,25.7-34,25.7-61.6c0-52.2-17.4-74.4-151-192.3c-43.4-38.3-84.6-75.2-91.6-81.9l-12.9-12
	v-18.2v-18.2h156.6h156.6v22.8v22.8l-118.1,0.5l-117.8,0.8l73.9,65.6c139.8,123.4,159.1,150.5,156.1,219.6
	c-1.1,24.9-2.1,30.8-9.6,46.3c-16.3,35.1-52.5,63.2-91,71.2C3809.5,21859.2,3764.8,21859.4,3748.7,21856.2z M4110.5,21703
	l-125.6-152.9l2.9-11c1.6-6.2,4-14.2,5.6-18.2l2.9-7.5h117.8h117.8v-53.6v-53.6h24.1h24.1l0.5,53l0.8,52.8l34.3,0.8l34,0.8v19.8
	v20.1h-34.8h-34.8v151.3v151.3h-22h-22.2L4110.5,21703z M4231.3,21554.4c-0.5-0.5-42.8-0.5-93.7-0.3l-92.9,0.8l93.2,114.1
	l92.9,114.3l0.8-114.1C4231.8,21606.7,4231.8,21555,4231.3,21554.4z M1388.3,21629.9v-223.6h163.3H1715v22.8v22.8l-138.4,0.5
	l-138.7,0.8v77.7v77.7l122.6,0.8l122.4,0.5v22.8v22.8h-123.2h-123.2l0.5,75.8l0.8,75.5l136,0.8l135.8,0.5v22.8v22.8H1549h-160.7
	V21629.9z M2183.6,21830.8v-22.8l74.4-0.5l74.2-0.8l0.8-200l0.5-200.3h25.4h25.4v200.8v200.8h75h75v22.8v22.8H2359h-175.4V21830.8z"
	/>
</svg>
