<?xml version="1.0" encoding="utf-8"?>
<!-- Generator: Adobe Illustrator 27.0.0, SVG Export Plug-In . SVG Version: 6.00 Build 0)  -->
<svg version="1.1" id="Layer_1" xmlns="http://www.w3.org/2000/svg" xmlns:xlink="http://www.w3.org/1999/xlink" x="0px" y="0px"
	 viewBox="0 0 390.1 360" style="enable-background:new 0 0 390.1 360;" xml:space="preserve">
<g transform="translate(0.000000,2500.000000) scale(0.100000,-0.100000)">
	<path d="M273.6,24996.7c-23.5-5.6-37.5-18.1-45.8-40c-6.3-16.8-8.9-28.2-41.8-174.3c-31.3-139.4-43.8-211.3-74.6-425.6
		c-12.3-85.6-14.5-103.7-31.3-234.6c-23.2-181.2-47.1-443-57-622.2c-0.7-12.3-2.7-48.9-4.5-81.5c-14.5-258.7-17-344.1-18.3-597
		c-1.1-221.6,0.2-313.4,6-410.6c4.2-67.7,9.4-79.3,44-96.7c51.2-25.9,146.6-28.8,206.7-6c19.2,7.1,38.9,21.2,45.4,32.2
		c11.2,19,11.2,21,10.5,362.1c-0.7,299.1,0.9,447.7,6.3,594.3c1.1,33.3,3.1,92.9,4.5,132.9c4.7,147.5,19.4,457.8,23.5,494.9
		c1.8,14.7,23.5,96.3,42.9,159.7c88,290.4,207.1,531,335.8,677.6c50.3,57.4,100.5,97.9,134.7,108.8c10.7,3.4,14.5,0.4,23-17.4
		c20.3-42.7,21.2-151.5,3.1-303.8c-2.5-20.6-6-50.3-7.8-66.4c-3.4-28.6-6.9-57.4-13.4-108.4c-1.8-14.1-5.4-42.2-7.6-62.6
		c-4-33.5-6.9-57.9-17-149.7c-7.1-65-25-257.1-29-313.9c-0.4-8.5-2.5-34.2-4.5-57c-4.5-58.1-9.6-130.2-12.3-178.7
		c-1.1-22.8-2.7-46.9-3.4-53.6c-0.7-6.7-2.7-44-4.5-82.7c-1.8-38.7-4.2-90.9-5.6-116.2c-7.4-154.8-15.6-391-15.6-450.2
		c0-72.6,6-130.2,16.1-153.5c14.3-33.5,65.2-53.2,136.7-53.2c42.7,0,73.9,6.3,102.1,20.3c33.3,16.5,40.4,33.7,47.6,113.7
		c6,67.5,8,135.4,10.3,361.9l2.5,220.1l7.8,41.3c73.5,380.9,216,744.2,402.8,1025.5c115.5,174.3,241.5,299.6,332.4,330.9
		c18.5,6.3,23.7,5.6,31.5-3.8c11.8-14.3,14.5-27.7,13.4-67.5c-1.8-59.9-10.1-94.3-89.6-370.2c-16.8-57.6-34.4-120-39.3-138.5
		c-10.3-38.2-58.5-229.4-70.2-278.1c-4.2-17.9-13.9-57.4-21.2-88.2c-79.1-327.1-116.6-593.2-116.6-827.5
		c0-233.9,36.9-406.6,106.3-499.8c16.3-21.7,45.8-49.2,65-60.8c19.7-11.8,47.4-23,74.8-29.7c18.5-4.7,25.9-5.4,69.9-5.4
		c43.8,0,51.4,0.4,70.2,5.1c49.6,12.3,83.1,34.2,118,77.3c29.5,36.4,81.5,120.2,133.6,214.7c10.7,19.7,22.8,41.3,26.4,48
		c53.2,96.3,152.4,296.7,207.5,418.9c71.9,159.5,133.2,311.7,169.1,421.4l4.9,14.7l63-0.2c65.2,0,102.8,2.5,151.2,9.8
		c76.9,11.8,158.8,34.4,229.7,63.2c13.9,5.6,25,9.4,25,8.5c0-0.9-4.9-10.9-10.9-22.6c-15.6-30.2-59.4-124-78-167.6
		c-110.4-258-192.8-533.5-218.3-729.2c-14.7-112.6-13-235,4.7-310.8c21.9-94.5,66.8-158.2,131.6-186.1
		c30.6-13.2,57.9-18.3,95.2-18.3c35.1,0,65.2,5.8,89.6,17.4c46.7,22.1,72.2,56.1,141,185.9c118.2,224.1,206.7,416.7,320.4,698.2
		c13,31.9,31.9,79.1,42.4,104.6c10.3,25.7,18.5,48.7,18.1,51.4c-1.6,11.6-26.8,19.4-52.5,16.3c-13.2-1.6-22.1-5.1-27.9-11.6
		c-6.7-7.6-38.9-74.8-120.9-251.1c-113.5-244.6-237.7-486.4-312.1-607c-22.8-36.9-42.7-65.5-45.6-65.5c-3.8,0,0.2,158.2,5.4,211.1
		c19.9,206,53.6,369.5,133.4,644.5c8,27.7,15.6,53.8,16.8,58.1c1.1,4.2,11.2,37.1,21.9,72.6c19.9,64.8,44,145.7,59.2,197.3
		c31.3,107.2,55.4,235.7,50.5,269.7c-2,13.6-4.7,19-13.6,26.6c-15.9,13.2-41.1,19.9-74.8,19.7c-30.4-0.2-49.8-5.6-93.4-26.4
		c-19.9-9.6-47.8-22.8-61.9-29.5c-67.2-31.7-130.5-53.6-207.8-71.7c-88.7-20.6-141.9-27.7-199.5-26.6c-21.7,0.4-39.8,1.3-40.7,2.2
		c-0.9,0.9,1.6,13.8,5.4,29c25.9,104.3,34.4,169.6,34.4,266.5c0.2,72.4-1.8,92.7-13.2,128.5c-19.4,61.7-65,89.8-145,89.6
		c-78.9,0-158.6-38-225.2-107.2c-27.9-29-46.5-55.2-64.8-91.8c-28.4-56.3-39.8-101.2-40-155.3c0-36,4-60.5,15.2-88.5
		c32.2-82.4,118-145.2,244-178.7c15-4,27.3-8,27.3-8.9c0-3.4-34.9-96.3-50.3-134.3c-28.4-69.3-82.4-191-126-282.6
		c-90.3-190.8-196.2-379.3-292.4-521.2c-43.6-64.3-94.9-130-98.7-125.8c-5.8,6.5-23.2,86.5-31.1,141.4
		c-12.3,87.6-15.9,140.3-17.2,261.4c-3.1,239.5,19.2,451.1,87.1,826.4c8,43.8,18.5,102.1,23.7,129.8
		c19.2,106.6,52.3,311.4,64.6,399.9c14.3,102.3,16.8,134.7,16.8,224.5c0,81.5,0,83.1-6.3,112.6c-18.3,89.4-54.1,136.5-118.6,156.6
		c-20.1,6.3-58.5,8.3-83.8,4.7c-82.4-12.1-191-92.7-303.8-226.1c-159.5-188.6-312.3-458.9-423.6-750.2l-13.2-34.2l-1.3,253.1
		c-2.2,385.8-8.3,498.9-31.9,614.2c-16.1,77.3-39.3,128.2-73.3,159.7c-26.1,24.6-58.3,36.9-96.1,36.9c-60.8,0-112.6-27.9-179.6-96.5
		c-68.1-69.7-130.5-156.2-200.2-277.5c-28.6-49.8-84.4-161.5-113.5-227l-20.3-45.8l1.3,16.8c2.5,30.4,7.8,153.9,10.3,234.6
		c3.4,108.4,1.3,318.6-3.4,361.9c-4.7,42-12.3,93.4-15.2,101C354.7,24996,309.6,25005.4,273.6,24996.7z M2526,24184.8
		c13.6-33.3,17-57.6,17-125.1c0.2-61.4-1.8-84.2-12.3-138.3c-6-32.4-20.1-90.3-22.1-92.7c-2.7-2.9-23.5,19.7-34.6,37.8
		c-20.1,32.2-29.9,68.4-31.7,116.2c-2.2,62.3,13.6,129.6,42.9,180.7c12.7,22.6,27.5,42,30.8,40.9
		C2517.5,24203.8,2522,24195.1,2526,24184.8z M3735.5,22848.8c-35.7-9.4-63.4-31.3-80.2-63.7c-10.9-21.2-25-67.5-26.8-88.7
		c-2.5-28.6,9.2-49.8,38.4-71c22.6-16.1,33.1-21.4,50.7-25.7c18.8-4.5,67.5-4.5,86.5,0c32.2,7.6,67.2,34.4,82.2,62.6
		c11.8,22.6,15,38.2,15,76c0.2,32.2,0,34-6,46.9c-7.6,16.1-15,24.1-38.4,41.8c-19.7,15-30.2,20.1-47.6,23.9
		C3791,22854.6,3754.3,22853.8,3735.5,22848.8z"/>
	<path d="M715.3,21932.6c-85.6-8.3-145.7-66.1-145.7-140.5c-0.2-52.7,22.3-90.5,67.9-114.4c29.3-15.2,51.4-22.8,110.4-37.3
		c80-19.7,108.8-34.4,122.2-62.1c5.8-11.6,6.5-15.2,6.5-35.3c0-19.4-0.7-23.9-5.8-34.6c-18.8-40-68.6-59.9-133.4-53.6
		c-53.2,5.4-97.6,24.8-139.6,61c-7.4,6-13.9,10.3-14.5,8.9c-0.9-1.1-8.9-10.7-17.6-21.2c-8.9-10.5-16.3-19.4-16.3-20.1
		c0-1.8,28.8-24.1,44-34c54.5-35.1,109.9-50,176-47.6c53.2,2,88,13.8,121.3,41.6c48.5,40.2,61.4,121.5,27.7,173.6
		c-23.7,36.4-68.6,59.9-152.4,79.1c-82.9,19.2-116.4,36.2-131.1,66.6c-5.4,10.9-6,15.4-6,32.8c0,26.1,5.4,38.9,23.5,55.6
		c15.6,14.5,32.4,22.8,55,27.3c52.7,10.1,118-6.3,164.9-41.3c6.3-4.5,12.3-8.9,13.6-9.8c3.4-2,35.3,40,33.7,44.2
		c-2,4.7-37.3,27.3-59.9,37.8c-27.9,13.2-57.2,20.6-93.6,23.5c-16.5,1.3-30.4,2.2-31.1,2.2C734,21934.6,725.3,21933.8,715.3,21932.6
		z M1882.8,21932.9c-50.7-4.7-90.3-24.6-126.2-63.2c-15.2-16.3-34.4-42-34.4-45.4c0.2-2,33.5-27,38.9-29c1.6-0.7,8,5.4,15.2,14.1
		c32.4,40,58.5,59,92.9,67.9c40.4,10.3,79.5,1.6,108.1-24.6c39.8-36.2,39.8-98.7,0.2-152.6c-19-25.7-58.1-63-162.6-155l-103.7-91.4
		l-0.2-22.8v-23h181h181v26.8v26.8l-136.5,0.4l-136.5,0.7l85.6,76c97.2,86.2,125.1,112.8,144.8,139.4
		c41.1,55.6,49.4,118.4,22.6,173.6C2024.9,21909.2,1960.8,21940,1882.8,21932.9z M2345.5,21931.7c-32.6-6.9-57.4-18.8-82-38.9
		c-42-34-69.9-79.1-86.5-138.7c-13.6-49.4-13.6-121.5-0.4-174.3c22.8-88.9,81.1-154.2,156.6-174.7c25.7-6.9,77.1-6.9,102.8,0.2
		c85.8,23.2,147,102.5,164.4,212.5c3.6,23.2,3.1,81.5-0.9,106.3c-17.4,103.9-77.1,181-158.4,204.4
		C2419.9,21934.6,2367.2,21936.4,2345.5,21931.7z M2417.7,21878.1c55.6-14.5,100.8-69.7,118-144.5c6-25.7,8.3-81.3,4.5-109.9
		c-7.8-57.9-36-113.5-72.4-142.3c-42.9-34.2-102.1-38-150.4-9.8c-13,7.4-37.3,31.3-47.6,46.5c-25.5,37.3-39.8,84.2-42,137
		c-4.7,110.1,46,202.4,122.4,223C2366.3,21882.1,2401.6,21882.4,2417.7,21878.1z M2850.2,21932.9c-50.7-4.7-90.3-24.6-126.2-63.2
		c-15.2-16.3-34.4-42-34.4-45.4c0.2-2,33.5-27,38.9-29c1.6-0.7,8,5.4,15.2,14.1c32.4,40,58.5,59,92.9,67.9
		c40.4,10.3,79.5,1.6,108.1-24.6c39.8-36.2,39.8-98.7,0.2-152.6c-19-25.7-58.1-63-162.6-155l-103.7-91.4l-0.2-22.8v-23h181h181v26.8
		v26.8l-136.5,0.4l-136.5,0.7l85.6,76c97.2,86.2,125.1,112.8,144.8,139.4c41.1,55.6,49.4,118.4,22.6,173.6
		C2992.3,21909.2,2928.1,21940,2850.2,21932.9z M3245.6,21751.9l-146.6-178.7l7.1-20.6l7.4-20.8l136.5-0.7l136.5-0.4v-61.4v-61.4h29
		h29v61.4v61.4h40.2h40.2v24.6v24.6h-40.2h-40.2v175.4v175.4h-26.1l-26.4-0.2L3245.6,21751.9z M3385.9,21580.5
		c-0.4-0.4-49.2-0.4-108.4-0.2l-107.2,0.7l107.5,132l107.7,132l0.7-131.8C3386.4,21640.6,3386.4,21581,3385.9,21580.5z M86.8,21667
		v-259.2h188.8h188.8v26.8v26.8H304.6H144.9v90.5v90.5h141.9h141.9v26.8v26.8H286.8H144.9v88.2v88.2l158.2,0.4l158,0.7l0.7,26.4
		l0.7,26.1H274.5H86.8V21667z M1009.5,21899.3v-26.8h87.1h87.1v-232.3v-232.3h30.2h30.2v232.3v232.3h87.1h87.1v26.8v26.8h-204.4
		h-204.4V21899.3z"/>
</g>
</svg>
