<?xml version="1.0" encoding="utf-8"?>
<!-- Generator: Adobe Illustrator 27.0.0, SVG Export Plug-In . SVG Version: 6.00 Build 0)  -->
<svg version="1.1" id="Layer_1" xmlns="http://www.w3.org/2000/svg" xmlns:xlink="http://www.w3.org/1999/xlink" x="0px" y="0px"
	 viewBox="0 0 477.5 360" style="enable-background:new 0 0 477.5 360;" xml:space="preserve">
<g transform="translate(0.000000,2500.000000) scale(0.100000,-0.100000)">
	<path d="M280.1,24998.6c-36.1-6.4-50.1-21.7-61.5-67.7c-6.1-24.9-37.1-162.2-47.9-213c-18.3-85.7-38.1-200.5-51-295.5
		c-2-14.2-7.3-52-12-84.3s-12.5-88.9-17.1-125.8c-4.9-36.9-10.3-79.9-12.2-95.2c-3.9-28.6-20.5-177.1-27.1-241.8
		c-2-19.5-5.9-62.8-8.5-96.5c-2.7-33.5-5.9-74.2-7.3-90.4c-5.1-61.3-9.8-131.9-13.4-199.1c-2-38.3-4.6-89.9-6.1-114.8
		C1.5,23104.1,0,23048.1,0,22781.2c0-294.3,3.7-394.4,15.9-421.3c14.4-32.5,69.6-52.5,143.4-52.5c52.8,0.2,89.6,8.1,118.2,25.2
		c20.3,12.2,27.8,24.2,31.3,48.6c2,13.9,2.9,146.1,3.7,424.5c0.5,223.2,2.2,433.3,3.7,468.9c1.2,35.7,3.7,101.6,5.1,146.5
		c3.9,127.2,19.3,456,23.4,500.7c1.5,16.4,22.5,98.2,40.1,156.3c89.1,293.1,195.6,513.6,323.4,669.2c23.7,29.1,72.5,77.2,94.3,93.5
		c22,16.1,50.1,31,59.1,31c19.5,0,33.5-54.7,33.7-131.6c0-60.1-7.3-144.3-25.6-292.1c-21.5-174.9-32.5-272.1-45.2-401.8
		c-6.4-67.7-10-108.2-20.8-244.2c-7.8-100.6-15.6-218.8-19.5-300.4c-0.7-15.4-2.9-61.5-4.9-102.6c-12.5-257.2-16.6-394.4-15.1-494.6
		c1.5-85.2,2.7-101.4,10-126.3c7.6-26.6,31-44.5,73.5-56.2c16.6-4.6,26.1-5.4,64.7-5.4c40.1-0.2,47.6,0.5,67.2,5.6
		c42.3,11,65.5,28.3,72.8,54.2c13.7,47.6,18.1,141.2,21.2,435l2.2,216.6l7.6,39.8c71.8,375.6,216.6,744.7,401.3,1021.6
		c71.6,107.2,156.1,207.1,221,260.8c42.5,35.2,88.9,62.8,118,70.3c14.7,3.9,21.2,0,29.3-16.6c5.4-11,5.9-14.4,5.6-52
		c0-35.9-1-44.4-8.1-78.2c-8.3-40.3-26.1-108.4-48.4-184.4c-75.5-260.8-90.6-318.2-163.1-619.1c-63.5-263.5-99.9-489.2-111.4-688.7
		c-3.4-61.5-3.4-194.9,0-247.9c8.5-128.7,31-236.7,64.7-311.6c52-115.3,136.5-167.5,262.8-162.7c76.7,2.9,126,27.4,172.2,84.7
		c28.8,35.9,74,108.2,124.6,199.1c160,287.5,330,659.9,402,880l10.7,32.7l36.6-1.7c60.3-2.7,155.6,4.9,219.8,17.3
		c53.2,10.3,132.9,34.2,184.4,55.2c12.7,5.1,23.9,9.3,24.9,9.3c1.2,0-6.8-17.8-17.8-39.3c-88.7-177.6-174.6-404.5-231.3-611.6
		c-50.6-184.4-72-339-64.5-464.8c4.9-80.8,16.4-135.5,38.3-182.9c43.7-93.5,120.7-137,226.2-127.7c77.9,6.8,116.3,39.6,177.3,151.4
		c79.9,146.3,160.5,310.7,231,471.4c33.2,75.7,78.9,183.9,98.2,232.8c3.7,9,7.6,16.4,8.5,15.9c1-0.5,12.2-14.7,25.2-31.8
		s45.7-59.1,72.5-93.5c72.5-92.6,131.9-172.9,131.9-178.8c0-1.5-13.9-11.7-31-23c-56.4-37.4-88.7-62.8-124.1-98.4
		c-40.3-40.5-61.1-68.9-82.8-112.6c-24.2-48.1-33.7-86-33.9-133.1c-0.5-70.6,29.3-135.1,88.9-191.5c37.9-36.1,78.4-59.8,134.8-79.4
		c59.8-20.5,105.3-27.4,182.4-27.4c101.6,0,174.9,15.4,250.3,52.5c100.9,49.6,159.2,124.1,173.7,221.3
		c17.3,118.2-40.8,277.2-164.6,450.1c-11.2,15.9-20,29.1-19.8,29.6c9.3,6.8,122.1,61.3,182.9,88.2c90.4,39.8,163.1,67.7,291.1,110.9
		c48.1,16.1,92.8,32.2,99.6,35.7c24.7,12.5,24.9,25.9,0.5,37.4c-12.7,5.9-16.6,6.6-42,6.6c-27.1,0-30.5-0.7-89.1-16.6
		c-176.6-48.1-326.1-101.4-472.3-168.8c-19.3-9-35.4-15.9-35.4-15.6c-1.5,2.7-62.3,71.3-116.3,131.4
		c-114.1,126.8-128.7,144.3-162.7,195.4c-33.9,51.5-60.1,111.6-69.6,160c-5.4,26.6-4.6,102.1,1.2,128.2
		c13.2,59.8,39.8,111.9,74.5,144.8c20.3,19.3,32.7,24.7,55,23.2c49.3-3.4,115.5-49.1,158.8-109.2c37.1-51.8,74.2-139.7,92.1-218.8
		c3.9-17.3,9-33.5,11.2-35.9c9.5-10.5,48.6-12.2,61.5-2.7c11,8.3,13.4,19.8,13.4,61.8c0,32.2-1,42.5-6.8,68.4
		c-14.4,64.5-36.4,119.9-64.5,162.4c-65.2,98.2-157.3,147.8-283.1,151.9c-124.6,4.2-218.8-33-302.6-119.4
		c-51.3-53-86-109.7-108.2-176.8c-14.7-43.7-18.3-70.8-16.6-122.6c2-64.7,13.9-111.1,45.9-176.6c9.3-19.1,16.9-35.9,16.9-37.4
		c0-1.7-9.5-23.4-21-48.1c-27.8-59.1-34.9-74.7-40.1-86.5c-2.4-5.4-25.9-55.4-52.5-111.1c-114.1-239.8-223-446-286-541.5
		c-12.5-19-23.9-35.2-24.9-35.9c-6.4-3.9-5.1,121.9,2,199.5c4.2,44.4,7.3,75.2,9.8,93.3c1.5,9.5,4.6,33,7.3,52.5
		c22.7,161.7,69.1,352.2,151.9,624c9.5,31,20.5,67.2,24.4,80.6c3.9,13.4,10.7,36.6,15.4,51.3c29.6,96,50.8,180.2,62,244.2
		c13.4,76.2,14.2,103.6,3.4,118c-13.7,18.6-46.9,28.6-87.4,26.6c-31-1.5-47.1-6.8-107-35.7c-104.8-50.8-167.3-73.3-265.5-95
		c-81.8-18.3-134.1-24.2-197.8-22.7c-10,0.2-19.8,1.2-21.5,2.4c-2.7,1.7-2,7.8,4.2,32.2c25.4,104.8,33.2,166.6,33,264.8
		c0,76-2.7,99.6-15.4,133.4c-20.8,55.2-64.5,80.4-139,80.4c-70.8,0-132.1-24.7-198.8-79.9c-79.6-66.2-131.9-173.7-132.1-271.8
		c0-91.6,40.3-159.7,126.5-212.5c34.9-21.5,91.6-44.5,136.5-55.2c10.5-2.7,19.8-6.1,20.3-7.8c1.5-3.4-15.6-51-40.8-114.1
		c-56.9-142.4-160.2-364.6-227.1-488.5c-3.7-6.6-12.5-23.2-19.5-36.6c-49.1-92.3-125.8-218.8-184.2-304.1
		c-46.2-67.4-88.7-120.4-91.8-114.3c-2.4,4.2-15.9,56.9-20.5,80.1c-6.4,30.3-13.4,82.3-18.3,134.8c-25.6,261.6-2.9,564.7,73.3,980.1
		c5.4,29.6,13.7,74,18.1,98.9c12.7,68.9,32.2,184.4,54.7,322.4c30.8,188.1,41.5,306,36.9,401.8c-6.1,124.3-42.5,192.9-117.7,220.5
		c-16.6,5.9-20.5,6.3-58.1,6.6c-35.7,0-42.5-0.7-58.6-5.6c-133.4-41.8-309-226.4-469.7-493.8c-85.2-142.4-166.6-310.7-227.6-471.9
		l-12.7-33.7l-1.5,246.2c-2.7,416.2-9.5,527.8-39.3,645.5c-14.9,59.3-34.2,98.7-62.3,126.5c-27.6,27.6-57.9,39.3-100.9,39.3
		c-55,0-103.8-24.7-164.1-82.8c-108.9-105.3-224.5-288.4-324.1-513.6c-10-22.7-18.3-40.1-18.8-38.6c-0.5,1.2,1.7,52,4.6,112.8
		c4.6,91.1,5.6,139.9,5.6,277.9c0.2,121.6-0.7,176.3-2.9,200.3c-5.1,50.6-14.4,109.7-18.6,116
		C348.8,24995.2,308,25003.5,280.1,24998.6z M2510.2,24196c24.7-55.9,28.1-152.4,9-260.8c-5.9-33.7-22.5-101.4-24.7-101.4
		c-3.4,0-28.1,29.1-36.1,42.5c-18.6,31-29.6,76.9-29.6,122.4c0,50.8,14.9,114.8,36.9,158c6.8,13.7,33.9,53.2,36.4,53.2
		C2503.2,24209.9,2506.8,24203.6,2510.2,24196z M3804.7,22740.4c32.5-67.4,51-121.6,60.8-176.6c4.9-29.1,3.7-87.4-2.7-111.1
		c-6.8-25.9-19.5-51.3-34.7-69.6c-17.8-21.2-18.8-21.5-40.1-11.5c-52,24.9-96.5,69.1-114.3,114.1c-10,25.6-12.2,38.3-12.2,70.8
		c0.2,57.9,20.3,106.7,65.7,160.9c17.3,20.8,55,56.4,59.3,56.4C3787.6,22773.8,3795.6,22758.7,3804.7,22740.4z M4602.6,22882.3
		c-40.8-8.5-79.4-39.1-97-75.7c-9-18.6-9.3-20.3-9.3-44.9c0-32,4.6-46.4,20-63.5c17.8-19.8,33-26.1,80.1-33.2
		c36.9-5.4,73.8-3.7,100.1,4.9c23.9,7.6,38.3,16.6,52,32c55,62.5,19.5,160.5-65.9,180.7
		C4663.7,22886.9,4623.8,22886.9,4602.6,22882.3z"/>
	<path d="M959.4,21982.3c-93.5-9-159.2-72.3-159.2-153.6c-0.2-57.6,24.4-98.9,74.2-125c32-16.6,56.2-24.9,120.7-40.8
		c87.4-21.5,118.9-37.6,133.6-67.9c6.4-12.7,7.1-16.6,7.1-38.6c0-21.2-0.7-26.1-6.4-37.9c-20.5-43.7-75-65.5-145.8-58.6
		c-58.1,5.9-106.7,27.1-152.6,66.7c-8.1,6.6-15.1,11.2-15.9,9.8c-1-1.2-9.8-11.7-19.3-23.2c-9.8-11.5-17.8-21.2-17.8-22
		c0-2,31.5-26.4,48.1-37.1c59.6-38.3,120.2-54.7,192.5-52c58.1,2.2,96.2,15.1,132.6,45.4c53,44,67.2,132.9,30.3,189.8
		c-25.9,39.8-75,65.5-166.6,86.5c-90.6,21-127.2,39.6-143.4,72.8c-5.9,12-6.6,16.9-6.6,35.9c0,28.6,5.9,42.5,25.6,60.8
		c17.1,15.9,35.4,24.9,60.1,29.8c57.6,11,129-6.8,180.2-45.2c6.8-4.9,13.4-9.8,14.9-10.7c3.7-2.2,38.6,43.7,36.9,48.4
		c-2.2,5.1-40.8,29.8-65.5,41.3c-30.5,14.4-62.5,22.5-102.3,25.6c-18.1,1.5-33.2,2.4-33.9,2.4
		C979.9,21984.5,970.3,21983.5,959.4,21982.3z M2235.7,21982.5c-55.4-5.1-98.7-26.9-138-69.1c-16.6-17.8-37.6-45.9-37.6-49.6
		c0.2-2.2,36.6-29.6,42.5-31.8c1.7-0.7,8.8,5.9,16.6,15.4c35.4,43.7,64,64.5,101.6,74.2c44.2,11.2,86.9,1.7,118.2-26.9
		c43.5-39.6,43.5-108,0.2-166.8c-20.8-28.1-63.5-68.9-177.8-169.5l-113.3-99.9l-0.2-24.9v-25.2h197.8h197.8v29.3v29.3l-149.2,0.5
		l-149.2,0.7l93.5,83c106.2,94.3,136.8,123.3,158.3,152.4c44.9,60.8,54,129.4,24.7,189.8
		C2391.1,21956.6,2321,21990.3,2235.7,21982.5z M2741.5,21981.3c-35.7-7.6-62.8-20.5-89.6-42.5c-45.9-37.1-76.4-86.5-94.5-151.7
		c-14.9-54-14.9-132.9-0.5-190.5c24.9-97.2,88.7-168.5,171.2-191c28.1-7.6,84.3-7.6,112.3,0.2c93.8,25.4,160.7,112.1,179.8,232.3
		c3.9,25.4,3.4,89.1-1,116.3c-19.1,113.6-84.3,197.8-173.2,223.5C2822.9,21984.5,2765.2,21986.4,2741.5,21981.3z M2820.4,21922.7
		c60.8-15.9,110.1-76.2,129-158c6.6-28.1,9-88.9,4.9-120.2c-8.5-63.3-39.3-124.1-79.1-155.6c-46.9-37.4-111.6-41.5-164.4-10.7
		c-14.2,8.1-40.8,34.2-52,50.8c-27.8,40.8-43.5,92.1-45.9,149.7c-5.1,120.4,50.3,221.3,133.8,243.7
		C2764.2,21927.1,2802.8,21927.3,2820.4,21922.7z M3293.3,21982.5c-55.4-5.1-98.7-26.9-138-69.1c-16.6-17.8-37.6-45.9-37.6-49.6
		c0.2-2.2,36.6-29.6,42.5-31.8c1.7-0.7,8.8,5.9,16.6,15.4c35.4,43.7,64,64.5,101.6,74.2c44.2,11.2,86.9,1.7,118.2-26.9
		c43.5-39.6,43.5-108,0.2-166.8c-20.8-28.1-63.5-68.9-177.8-169.5l-113.3-99.9l-0.2-24.9v-25.2h197.8h197.8v29.3v29.3l-149.2,0.5
		l-149.2,0.7l93.5,83c106.2,94.3,136.8,123.3,158.3,152.4c44.9,60.8,54,129.4,24.7,189.8
		C3448.6,21956.6,3378.5,21990.3,3293.3,21982.5z M3725.5,21784.7l-160.2-195.4l7.8-22.5l8.1-22.7l149.2-0.7l149.2-0.5v-67.2v-67.2
		h31.8h31.8v67.2v67.2h44h44v26.9v26.9h-44h-44v191.7v191.7h-28.6l-28.8-0.2L3725.5,21784.7z M3878.9,21597.4
		c-0.5-0.5-53.7-0.5-118.5-0.2l-117.2,0.7l117.5,144.3l117.7,144.3l0.7-144.1C3879.4,21663.1,3879.4,21597.9,3878.9,21597.4z
		 M272.3,21691.9v-283.3h206.4h206.4v29.3v29.3H510.4H335.8v98.9v98.9h155.1H646v29.3v29.3H490.9H335.8v96.5v96.5l172.9,0.5
		l172.7,0.7l0.7,28.8l0.7,28.6H477.5H272.3V21691.9z M1281,21945.9v-29.3h95.3h95.3v-254v-254h33h33v254v254h95.3h95.3v29.3v29.3
		h-223.5H1281V21945.9z"/>
</g>
</svg>
