<?xml version="1.0" encoding="utf-8"?>
<!-- Generator: Adobe Illustrator 27.0.0, SVG Export Plug-In . SVG Version: 6.00 Build 0)  -->
<svg version="1.1" id="Layer_1" xmlns="http://www.w3.org/2000/svg" xmlns:xlink="http://www.w3.org/1999/xlink" x="0px" y="0px"
	 viewBox="0 0 87.6 360" style="enable-background:new 0 0 87.6 360;" xml:space="preserve">
<path transform="translate(0.000000,2500.000000) scale(0.100000,-0.100000)" d="M241.9,24995.2c-93.6-2.3-183.4-4.4-199.4-4.4
	c-16.7-0.2-29.4-1-29.4-1.9c0-1.5,97.5-119.2,197.1-237.6c16-19,47.5-56.7,70.2-83.6c22.5-26.9,46.1-54.8,52.3-61.7
	c6.2-7.1,11.2-13.5,11.2-14.2c0-0.8-3.8-6-8.3-11.3c-35-41.1-297.2-380.7-318.6-412.4c-4.4-6.7-10.2-17.1-12.5-23.1L0,24134
	l4.6-45.2c25.8-254.2,48.1-508.5,81.5-935.4c40.6-518.9,55.8-854.4,55.8-1238.4v-135l16-19.8c33.8-42.3,182.7-234.4,261.7-338.2
	c9.2-12.1,17.5-22.1,18.5-22.1s9.2,10,18.5,22.1c79,103.8,227.8,295.9,261.7,338.2l16,19.8v135c0,384,15.2,719.5,55.8,1238.4
	c33.5,426.8,55.8,681.2,81.5,935.4l4.6,45.2l-4.4,10.8c-2.3,6-8.1,16.3-12.5,23.1c-21.3,31.7-283.6,371.3-318.6,412.4
	c-4.4,5.4-8.3,10.6-8.3,11.3c0,0.8,5,7.1,11.2,14.2c6.2,6.9,29.8,34.8,52.3,61.7c22.7,26.9,54.2,64.6,70.2,83.6
	c99.6,118.4,197.1,236.1,197.1,237.6c0,1-9.2,1.7-20.6,1.7c-11.5,0-108.6,2.1-215.9,4.8c-107.3,2.7-199.4,4.6-204.8,4.6
	C416.4,24999.8,335.5,24997.7,241.9,24995.2z"/>
</svg>
