<?xml version="1.0" encoding="utf-8"?>
<!-- Generator: Adobe Illustrator 25.0.1, SVG Export Plug-In . SVG Version: 6.00 Build 0)  -->
<svg version="1.1" id="Layer_1" xmlns="http://www.w3.org/2000/svg" xmlns:xlink="http://www.w3.org/1999/xlink" x="0px" y="0px"
	 viewBox="0 0 2500 2500" style="enable-background:new 0 0 2500 2500;" xml:space="preserve">
<style type="text/css">
	.st0{fill:#231F20;}
</style>
<path transform="translate(0.000000,2500.000000) scale(0.100000,-0.100000)" class="st0" d="M15275,24479c-117-9-261-36-355-66
	c-233-75-528-268-721-470c-90-95-288-326-350-408c-208-276-628-936-959-1505c-132-227-233-383-300-460c-158-185-258-348-319-525
	c-18-49-38-103-45-120c-8-16-23-80-35-141c-11-60-39-170-61-243c-63-210-72-267-80-496c-8-224-8-222-76-421c-26-77-51-175-59-235
	c-20-136-37-192-96-322c-89-195-99-284-38-329c17-13,56-32,87-43l57-20l25-76c14-42,41-95,59-118c32-41,33-45,28-109
	c-3-37-13-105-22-152c-11-62-15-134-14-264l3-179l-27-23c-16-13-57-29-102-39c-87-20-142-55-182-117c-36-59-63-149-63-215
	c0-41-9-75-36-136c-45-103-50-156-30-283c9-56,16-139,16-185v-84l-133-123c-72-67-180-160-238-205c-248-192-407-326-527-445
	c-181-180-512-520-686-705c-81-86-201-201-265-255c-64-53-119-101-123-107c-30-40,20-109,132-185c109-73,367-224,438-258
	c41-18,72-35,70-38c-2-2-32-22-66-44c-35-22-65-47-68-55c-15-39,58-96,271-212c102-56,405-248,405-257c0-3-14-18-31-35
	c-25-26-29-36-24-60s1-36-23-61c-79-82-214-422-261-656c-11-55-27-169-36-254c-21-200-38-282-85-405c-20-55-74-194-118-310
	c-44-115-85-229-92-252c-7-24-18-43-25-43c-6,0-58,16-116,35c-276,94-622,163-1004,200c-88,8-191,19-230,25c-38,5-194,26-345,45
	c-314,41-374,54-780,170c-307,88-445,135-740,253c-96,38-195,77-220,86c-25,10-52,23-61,29c-8,7-30,57-48,112
	c-36,109-61,162-123,263c-23,37-65,122-94,190c-64,149-101,209-165,265c-27,24-148,95-271,161c-123,65-290,154-371,198
	c-82,43-194,109-250,147c-177,118-292,181-329,181c-43,0-51-10-116-126c-28-50-79-126-113-170c-33-43-65-87-70-96
	c-21-38,21-80,346-350c44-36,104-91,134-121c52-53,53-55,30-62c-13-4-64-25-113-47c-127-56-458-134-653-152c-228-22-305-56-438-190
	c-120-122-205-233-316-416c-55-91-128-206-163-256c-34-49-77-125-94-166c-37-89-82-250-82-294c0-35,29-71,66-80
	c88-22,335,72,547,210c194,124,335,177,530,197c206,21,301,9,817-105c113-25,250-55,305-67c55-11,190-49,300-84
	c355-112,404-126,553-160c190-43,295-83,582-220c337-161,782-361,1100-495c320-134,541-236,807-369c241-120,346-165,451-191l42-11
	l-30-44c-33-48-169-327-232-475c-96-227-109-298-118-645c-10-331-20-402-140-1005c-45-223-92-481-105-575c-31-213-48-299-81-400
	c-42-132-42-131-90-150c-29-11-79-49-136-102c-50-46-125-110-167-141c-368-274-480-397-681-748c-52-91-157-270-233-397
	c-77-128-145-244-153-259c-32-62,29-111,326-256c216-105,251-113,297-71c34,31,121,165,203,312c36,65,68,117,71,117
	c10,0,85-149,94-185c4-16,9-104,10-195c3-145,7-179,33-280c41-158,66-219,123-305c90-134,191-210,477-359c98-51,236-130,306-176
	c277-178,457-224,497-127c23,53,17,115-17,187c-43,89-85,144-144,186c-41,29-50,41-50,65c0,50-37,142-124,311
	c-112,215-136,281-143,390c-10,158,23,295,161,663c93,245,103,279,141,450c29,132,40,154,98,204c47,41,67,84,67,143
	c0,53-28,100-69,118c-35,14-36,21-21,114c6,33,21,129,34,211c27,164,110,466,180,653c197,525,263,698,321,837
	c117,281,291,736,338,880c38,118,68,223,159,567c10,35,13,38,48,38c58,0,139,18,186,41c55,28,158,122,248,225c39,45,173,198,297,341
	c240,274,331,388,504,628c59,83,162,222,228,309c166,221,467,697,575,911c28,55,57,109,65,119c13,18,15,18,25-12c17-48,8-583-12-767
	c-81-743-84-1303-11-1955c75-670,94-804,156-1115c75-371,311-1303,404-1595c101-316,114-412,115-815c0-389,17-509,115-823
	c40-130,43-180,14-277c-27-92-28-212-4-343c15-87,16-113,7-165c-24-126-26-130-110-193c-42-32-104-83-137-114s-82-74-110-96
	c-27-21-79-65-115-98c-105-95-155-123-265-151c-139-36-211-40-335-21c-143,22-541,39-608,26c-28-5-69-18-89-29
	c-37-19-209-195-231-238c-17-32-14-82,8-131c37-81,224-253,338-311c24-12,78-31,120-42c70-18,106-19,392-17c310,3,320,2,635-35
	c351-42,493-47,598-23c75,18,378,129,496,183c41,18,76,31,78,29c9-8-59-195-106-291c-92-187-224-287-557-419
	c-190-75-460-194-608-268c-277-138-386-243-430-415c-21-81-20-118,5-169c27-57,73-96,172-146c160-80,338-124,644-158
	c98-11,232-27,298-35c196-25,541-38,654-25c171,19,250,47,499,180c256,136,317,155,642,200c385,53,540,131,632,316
	c36,74,42,95,46,167c4,86-25,264-53,319c-9,19-12,55-8,130c4,86,1,124-21,228c-14,69-26,135-26,147c0,13,14,45,31,73
	c51,83,54,141,29,491c-57,808-60,860-70,1574c-23,1664-31,2056-45,2335c-22,444-28,488-191,1395c-21,113-60,225-125,357l-51,103
	l5,85c3,47,14,148,25,225c12,77,28,196,36,265c9,69,25,193,35,275c11,83,29,251,41,375c21,226,29,284,75,547c14,78,32,216,40,305
	c9,90,21,188,27,218c14,71,116,333,134,343c8,4,30,29,49,54c33,44,35,50,35,125c0,44,6,93,14,112c15,35,59,76,84,76
	c8,0,58-45,111-101c117-123,168-161,271-205c44-18,93-43,109-55c32-23,61-22,96,5c20,16,20,16-4,34c-25,20-28,37-51,337
	c-6,83-23,195-41,275c-49,220-59,316-68,650c-8,285-12,332-40,495c-18,99-49,257-71,350c-56,242-56,247-25,431l28,159l-12,316
	c-14,352-12,371,52,514c30,67,31,74,28,180c-11,331-15,312,100,447c77,90,170,227,359,528c306,487,384,642,455,910
	c46,175,73,257,139,437c141,381,206,665,206,896c0,99,6,117,58,167l37,36l50-39c27-22,58-52,68-69c30-50,95-72,212-72
	c191,1,234,27,349,220c75,125,78,149,32,235c-21,39-40,93-47,135c-15,86-43,143-109,218s-65,84,25,277c99,211,98,274-6,487
	c-53,110-76,132-154,153c-68,17-66,16-55,45c20,51,71,103,173,175c242,174,424,402,472,594c36,149,45,235,46,492
	c1,301,8,272-130,556c-80,164-84,171-174,260c-51,51-132,119-182,152c-49,33-275,153-501,266c-341,172-422,209-481,219
	c-86,16-477,5-491-14c-5-6-14-40-21-76c-10-55-10-71,3-101c10-25,13-53,9-92c-5-50-3-61,21-98c15-22,26-42,24-43c-2-2-29-15-60-29
	s-102-53-158-87c-55-35-102-61-104-59s14,63,35,136s45,165,53,204c31,148-9,236-246,547c-60,79-143,196-185,260
	c-122,188-224,277-412,358C15796,24456,15517,24497,15275,24479z M15858,21505c-10-30-20-75-22-100c-6-56-36-123-70-155l-27-24
	l7-108c4-59,4-108-1-108c-4,0-19,8-33,19c-15,10-51,30-79,45c-29,14-87,49-129,76c-43,28-89,53-103,57c-29,7-101,41-101,48
	c0,2,58,23,130,45c124,40,131,43,192,102c88,85,197,154,249,158C15874,21560,15869,21535,15858,21505z"/>
</svg>
