<?xml version="1.0" encoding="utf-8"?>
<!-- Generator: Adobe Illustrator 25.0.1, SVG Export Plug-In . SVG Version: 6.00 Build 0)  -->
<svg version="1.1" id="Layer_1" xmlns="http://www.w3.org/2000/svg" xmlns:xlink="http://www.w3.org/1999/xlink" x="0px" y="0px"
	 viewBox="0 0 2500 2500" style="enable-background:new 0 0 2500 2500;" xml:space="preserve">
<style type="text/css">
	.st0{fill:#231F20;}
</style>
<path transform="translate(0.000000,2500.000000) scale(0.100000,-0.100000)" class="st0" d="M12925,23960c-429-71-587-116-785-223
	c-236-127-596-424-652-539c-26-52-26-56-24-243c2-208,3-211,71-305c18-25,40-60,49-78c15-29,98-393,91-400c-1-2-32,33-68,76
	c-121,146-241,240-351,274c-60,18-81,20-160,13c-139-12-184-11-266,9c-104,26-319,27-410,2c-90-24-233-94-305-149
	c-74-55-215-200-275-282c-118-159-265-433-323-601c-46-132-61-196-97-408c-31-182-73-322-180-601c-59-152-87-271-100-421
	c-15-172-30-220-105-344c-82-136-166-306-198-400c-49-145-58-217-55-440l3-205l-107-220c-58-121-118-258-133-304
	c-30-99-49-220-40-264c4-18,17-83,31-144c32-149,32-239-2-399c-37-177-36-264,2-374c29-84,29-88,28-290c0-158-4-220-17-268
	c-21-79-21-79,3-92c16-8,30-6,63,8c130,60,227,215,227,367c0,50,1,51,74,117c83,76,106,115,106,184c0,26,2,45,5,42c3-2,14-54,25-114
	c24-135,61-281,145-573c266-932,322-1163,301-1244c-3-14-54-85-113-159c-185-231-480-701-623-993c-225-463-333-850-404-1450
	c-56-474-42-736,66-1270c77-383,80-436,39-615c-51-217-127-488-208-735c-107-330-244-773-399-1290c-285-950-316-1074-474-1945
	c-33-184-103-549-155-810c-107-537-175-914-235-1300c-96-619-196-1176-275-1545c-97-452-93-534,41-762c98-167,188-256,329-326
	c39-19,98-42,131-51c70-18,234-21,334-6c119,18,342,23,370,8c36-19,58-71,85-200c13-62,31-132,40-156c26-65,100-124,249-197
	c146-72,203-89,247-73c26,9,45,2,170-57c77-36,174-75,215-85c106-27,466-38,676-20l155,13l47-32c105-73,213-103,210-58
	c-1,12,3,16,15,13c45-13,187-17,279-6c193,21,323,70,544,203c68,40,158,93,200,117c64,36,80,50,93,82c12,30,25,43,60,58
	c134,57,267,76,298,43c8-10,34-58,57-106c39-82,53-98,201-244c87-86,180-171,206-190c67-48,179-80,397-114c234-36,206-30,421-99
	c99-32,237-70,306-84c234-48,570-76,679-56c158,29,210,98,210,279c0,94-22,168-93,326c-20,44-37,94-37,111s12,64,26,105
	c28,79,32,139,23,369c-4,99-2,110,30,200c47,131,46,165-7,277c-27,57-49,121-57,170c-18,101-18,301,0,478c7,77,16,201,20,275
	c8,182,18,248,76,506c97,436,132,904,109,1454c-6,151-10,421-8,600l3,325l-59,169c-66,191-69,224-22,328c59,133,68,223,35,351
	c-28,108-22,159,30,280c85,199,92,263,97,907c2,366,8,550,18,635c26,220,39,306,43,302c2-2,30-141,62-308c68-353,85-421,151-624
	c123-378,144-470,159-687c14-196,28-231,142-371c67-82,68-87,38-213c-23-98-22-106,27-221c24-57,38-109,45-170c5-48,14-122,19-163
	c5-42,27-134,50-205c59-185,117-420,136-549c12-84,15-157,12-296c-3-102-1-229,4-284c17-192,89-493,203-848c56-175,75-275,75-402
	c0-135,14-249,50-410c39-172,44-278,32-623c-11-292-6-385,24-478c21-63,81-184,129-259c50-79,95-176,95-206c0-14-13-66-29-117
	c-41-127-55-226-54-378c1-159,20-221,87-283c86-79,192-94,611-88c335,6,383,12,477,63c119,65,317,273,379,399c31,62,47,152,35,198
	c-9,38-60,90-140,146c-39,27-100,83-136,126c-36,42-96,102-135,133c-47,38-74,68-82,91c-26,75-13,277,38,585c34,206,35,338,5,611
	c-14,133-42,329-61,435c-26,142-35,221-35,300c0,101,7,150,61,449c13,72,23,201,31,407c15,376,2,673-42,1013c-37,281-67,433-127,640
	c-145,494-142,479-92,626c42,124,29,186-63,296c-56,68-68,96-68,160c0,31-9,94-20,140c-12,52-20,118-20,176c0,75-5,104-25,154
	c-14,34-25,67-25,74c0,6,14,43,32,80c27,57,32,81,32,139c0,63-5,80-48,170c-79,166-78,158-71,724c7,540,11,615,55,891
	c16,102,37,241,45,310c17,131,37,191,93,272c49,71,84,150,85,187c0,20-3,68-7,106c-8,67-7,72,20,110c123,177,129,196,120,391l-7,141
	l36,74c23,49,39,103,47,157c13,91,8,134-47,387c-24,111-27,147-35,475c-7,314-11,373-35,515c-37,220-32,366,19,575
	c93,379,87,610-29,1080c-47,191-45,275,10,465c13,44,31,152,40,240c35,329,62,441,165,665l53,115l8,153c9,161,25,247,94,484
	c61,213,75,314,85,613c10,300,19,353,86,513c108,255,109,302,12,517c-56,124-88,211-148,400c-70,220-138,348-298,565
	c-119,162-228,265-421,399c-176,122-239,172-371,292c-205,185-380,291-620,374c-221,77-328,142-369,228c-11,23-37,96-57,162
	c-19,65-44,136-55,157c-44,85-118,121-283,137c-60,5-109,11-111,13c-11,10-48,393-55,563c-13,304-39,420-166,736
	c-83,208-104,282-128,447c-36,246-85,311-331,438c-122,64-169,103-246,205c-95,124-202,180-359,185
	C13018,23967,12953,23965,12925,23960z M12251,20740c36,0,39-2,39-28c0-16-7-51-15-78c-20-66-19-103,5-141c41-68,218-92,394-53
	c50,11,92,20,94,20s-5-14-15-31c-27-48-75-74-233-128c-80-27-172-61-204-75s-62-26-66-26c-19,0-53,229-55,370c-1,80-6,154-10,164
	c-7,16-5,18,9,13C12204,20743,12229,20740,12251,20740z M12025,9230c8-58,19-172,25-255c13-187,42-388,81-570c17-77,41-190,55-252
	c36-167,39-230,19-383c-27-212-24-294,18-425c32-98,36-125,39-245c4-116,8-145,32-210c80-218,79-212,73-280c-3-36-22-111-42-168
	c-89-253-95-479-30-1017c14-110,34-310,45-445s34-364,52-510c39-320,44-537,15-665c-56-249-48-295,103-573c22-40,40-85,40-99
	s-19-66-41-117c-52-112-95-238-104-298c-12-76,42-159,163-255c28-22,30-53,8-143c-8-36-18-103-21-150c-4-47-11-109-16-138
	c-12-61-7-60-177-40c-91,10-103,14-106,32c-11,56-68,682-76,831c-6,94-14,379-20,635c-10,493-16,577-80,1090
	c-96,780-114,1045-90,1301c19,204,14,405-14,634c-14,110-30,263-37,340c-14,174-6,662,15,866c8,80,21,235,27,345
	c14,218,18,944,7,1199c-6,149-6,157,8,115C12004,9355,12017,9288,12025,9230z"/>
</svg>
