<?xml version="1.0" encoding="utf-8"?>
<!-- Generator: Adobe Illustrator 25.0.1, SVG Export Plug-In . SVG Version: 6.00 Build 0)  -->
<svg version="1.1" id="Layer_1" xmlns="http://www.w3.org/2000/svg" xmlns:xlink="http://www.w3.org/1999/xlink" x="0px" y="0px"
	 viewBox="0 0 2500 2500" style="enable-background:new 0 0 2500 2500;" xml:space="preserve">
<style type="text/css">
	.st0{fill:#231F20;}
</style>
<path transform="translate(0.000000,2500.000000) scale(0.100000,-0.100000)" class="st0" d="M11865,24545c-123-30-159-33-244-23
	c-139,16-246,8-314-25c-78-39-175-138-238-245c-28-48-82-130-119-182c-104-147-147-245-211-491c-17-68-50-167-71-219
	c-22-52-46-115-54-139c-17-54-18-180-2-309c20-163,17-208-19-278c-18-34-37-82-44-108c-9-37-15-46-28-40c-9,3-59,9-112,11
	c-119,7-151-6-264-103c-44-38-103-86-132-107c-50-37-53-37-97-26c-106,26-230-15-371-125c-38-30-90-67-115-83c-51-31-5-30-545-22
	c-162,2-263-1-310-10c-38-7-155-16-260-20c-213-9-255-20-345-86c-41-30-74-43-168-65c-143-35-180-50-257-105c-91-65-157-154-254-345
	c-92-180-133-279-212-514c-60-181-84-238-136-325c-96-161-108-196-107-321c1-64,7-123,17-152l15-48l-68-162c-37-90-128-303-203-474
	c-143-327-232-557-315-814c-88-270-111-369-206-882c-89-475-91-494-90-788c1-330,31-570,129-1005c63-280,67-311,75-560
	c5-159,13-265,24-316l17-75l-94-150c-253-404-397-696-397-807c0-74,79-117,420-229c193-63,390-138,522-197l48-22l-3-327
	c-2-364,6-444,65-649c43-151,48-262,17-408c-19-87-24-141-24-260c0-146,1-155,47-335c81-324,83-335,83-545c-1-285-22-383-135-626
	c-33-69-74-168-92-220l-33-94v-295c-1-318,1-303-66-545c-31-112-33-131-33-275c0-122,5-181,23-275c39-200,20-391-73-734
	c-136-500-173-862-163-1586c6-441-6-851-28-980c-9-49-35-173-60-275c-79-331-90-398-90-575c0-88,7-290,15-450c8-159,15-360,15-445
	c-1-146-3-162-34-270c-20-68-34-138-34-170c0-70,61-252,143-426c37-78,60-140,60-161c0-22-14-58-40-102c-30-50-49-101-71-190
	c-16-67-48-170-71-229c-37-93-42-117-43-187c0-68,4-89,29-140c41-87,45-183,13-337c-26-120-25-145,1-186c18-27,88-64,153-80
	c135-33,557-70,669-58c58,6,321,59,406,82c103,28,124,72,103,222c-13,92-71,349-93,411c-9,24-27,103-41,177c-13,73-32,161-41,196
	c-36,140-16,266,60,381c29,45,66,114,82,152c28,69,28,72,29,295c1,258,10,310,79,500c100,271,135,431,170,775c16,154,40,516,51,755
	c3,74,8,164,10,200c20,263,25,336,30,420c3,52,8,113,10,135s7,117,10,210c13,390,16,477,26,610c13,178,31,293,68,425
	c57,207,76,321,96,595c26,340,45,420,143,588c96,165,124,240,168,462c16,80,29,190,34,285c9,176,17,207,89,325
	c84,137,135,330,152,569c6,83,13,156,17,162c4,7,34,43,67,80c140,157,267,361,295,477c7,26,16,47,20,47c10,0,83-160,114-252
	c20-59,28-111,37-230c6-84,18-187,27-228c10-46,16-115,16-180c-1-93-5-115-33-190c-89-232-119-429-90-586c11-59,55-244,103-428
	c33-126,34-204,2-271c-13-27-64-122-115-210c-114-199-129-240-147-395c-25-210-54-366-104-565c-77-301-74-280-116-835
	c-16-217-27-304-68-520c-45-242-50-358-35-789c16-444,16-656,0-760c-18-117-59-223-164-429c-56-110-116-246-140-315
	c-55-164-57-253-9-440c43-166,43-214-3-347c-49-144-54-171-70-360c-11-134-21-192-54-309c-74-264-79-408-17-536c18-38,44-92,56-118
	c27-58,99-134,162-171c59-35,122-51,268-72c136-19,251-14,360,16c242,66,220,63,404,55c197-8,417,6,581,36c231,43,778,248,797,299
	c4,12,13,20,20,18c15-5,68-100,79-141c32-125,93-316,115-360c35-69,63-101,136-156c58-44,62-50,87-128c33-102,54-130,121-166
	c86-45,206-38,590,35c283,53,349,44,495-66c93-70,125-89,219-126c119-47,224-68,391-80c82-6,211-18,285-27c196-24,412-22,590,6
	c120,19,207,25,500,31c250,6,376,13,425,23c39,9,151,34,250,57c390,90,581,114,905,114c212,0,250-3,385-28c195-35,437-94,600-146
	c177-56,323-96,425-115c160-30,472-18,955,36c315,35,465,67,912,194c356,102,532,164,701,246c208,102,219,106,383,139
	c176,36,238,57,316,110c66,44,98,81,147,172c64,116,89,209,92,338c5,184-55,464-120,570c-81,131-127,171-338,297
	c-180,107-279,181-323,241c-19,26-66,127-106,227c-87,221-118,281-229,460c-331,532-434,765-600,1357c-47,170-85,268-240,613
	c-62,138-139,309-171,382s-113,277-180,455c-66,178-165,429-219,558c-105,253-131,320-211,535c-51,136-126,315-226,540
	c-54,120-62,151-98,427c-37,275-47,317-134,558c-46,126-90,303-100,407c-5,51-7,175-4,275l6,181l42-121c22-67,49-130,60-142
	c26-29,68-25,108,10l34,29l61-124c76-155,116-199,231-259c81-42,287-116,321-116c45,1,46,5,66,299c7,98,8,102,22,76
	c22-42,59-156,67-206c10-64,32-136,76-254c43-115,51-199,24-251c-8-16-53-65-100-109c-89-84-102-110-60-121c44-11,97,6,131,41l32,34
	l6-31c3-17,6-59,6-94c0-59-5-75-61-185c-66-132-70-162-26-167c21-3,35,5,59,30l31,33l-8-45c-4-25-9-81-10-125c-2-94-13-119-96-224
	c-63-79-70-96-40-106c28-9,64,9,100,51c20,22,31,30,28,18c-12-37-39-275-33-289c3-8,17-15,30-15c21,0,27,7,35,38
	c13,50,29,136,36,200l7,53l42-60c42-62,68-75,106-51c18,11,1,50-77,170l-55,84l-2,106c-1,136,7,149,49,73c39-71,71-93,110-75
	c24,11,27,17,21,44c-3,17-30,70-60,117c-73,117-105,215-97,301l6,64l48-82c44-76,50-82,80-82c33,0,57,15,57,35c0,7-30,59-67,116
	c-38,58-77,124-87,147l-20,43l49,195l49,194l-12,113c-13,121-14,252-3,302l6,30l33-56c17-31,44-87,59-125c23-62,26-81,25-184
	c-1-115,5-161,47-315c14-49,26-135,31-222c11-164,26-213,64-213c34,0,50,32,78,161c25,117,30,297,10,387c-7,29-19,110-27,180
	s-27,188-41,262c-36,184-44,403-19,547c10,56,21,100,26,97s32-50,60-105s72-128,98-162c42-57,46-66,45-117c-1-30-10-84-19-120
	c-46-169-1-390,80-390c32,0,52,32,64,100l9,55l1-55c0-30-6-84-15-120c-30-124-17-267,26-290c38-20,58,3,101,120c26,70,28,73,29,37
	c0-21-7-102-16-180c-18-163-13-229,22-307c31-67,51-90,79-90c32,0,42,17,61,96c23,100,15,263-19,367c-22,68-23,78-9,72
	c67-27,226-44,252-26c12,8,5,20-40,63c-30,29-71,73-91,98c-23,29-57,56-93,73c-32,16-56,30-54,33c2,2,39,10,80,18
	c86,17,138,39,138,61c0,39-90,86-223,117c-90,21-91,21-62,34c17,7,55,18,85,24c64,12,120,43,120,65c0,42-77,77-280,128
	c-137,35-129,29-205,143c-74,109-74,107,0,73c71-34,227-66,268-55c37,9,35,41-5,91c-64,78-127,122-225,157c-35,12-63,26-63,30
	c0,5,12,20,27,34c19,17,34,23,48,19c70-22,101-25,151-16c88,17,144,57,165,119l11,34l35-34c19-18,46-52,60-76c46-77,84-95,228-107
	c116-9,122-3,105,106c-24,158-75,246-177,306c-24,14-42,28-39,30c13,14,199-72,266-122c102-76,141-75,159,5c28,119,6,221-68,326
	c-62,89-153,152-223,154c-22,0-23-5,6,71c13,35,29,91,35,124c7,33,14,70,16,82c4,16,18,25,60,38c66,19,119,68,154,143
	c23,48,25,50,45,37c61-44,135,6,177,120c12,33,25,63,29,68c3,4,23,0,44-8c29-12,36-20,31-33c-23-53-18-94,15-129
	c73-80,224-19,249,99l6,28l33-20l34-21l-7-72c-9-90,8-137,54-156c40-17,109-7,153,22c38,26,78,91,78,128c0,62-72,105-160,97
	c-45-5-50-3-71,25c-22,30-22,30-2,47c30,24,43,54,43,100c0,84-89,128-166,81c-40-24-59-76-44-116c6-15,9-28,8-29
	c-45-26-89-32-118-16c-18,10-18,12-3,38c46,80-63,172-153,128c-39-18-58-56-48-99c4-22,3-28-7-25c-27,9-33,35-19,91
	c12,50,11,65-8,147c-15,63-32,105-53,135c-39,54-35,77,6,43c41-35,180-101,202-96c30,5,30,94,1,137c-48,71-119,97-179,67
	c-39-19-39-19-39-2c0,7,8,20,17,27c35,30,73,93,73,123c0,96-116,112-170,23c-11-17-25-56-31-87c-7-30-13-56-14-58c-1-1-14,2-28,7
	c-25,10-26,14-21,54c4,27,1,59-9,87c-13,39-13,47-1,61c8,8,14,24,14,35c0,30-73,94-115,101c-20,3-37,9-40,12c-3,6,49,117,60,129
	c2,2,18-4,37-14c18-9,53-22,78-29c38-9,55-24,120-99c81-94,135-136,174-136c38,0,41,19,8,53c-51,53-112,150-112,179c0,28,6,31,73,43
	c34,5,38,4,48-22c27-67,99-211,119-236c21-26,51-34,84-21c24,9,20,27-29,140c-51,118-54,134-23,134c16,0,50-29,108-90
	c74-78,89-90,118-90c60,0,54,31-30,138l-49,62l26,10c62,24,215,149,215,176c0,8-11,16-25,20c-26,6-73-16-195-95c-57-37-69-41-127-41
	c-53,0-63,3-63,18c0,25,37,81,98,148c59,66,65,97,19,102c-56,7-127-64-212-211c-18-32-35-49-53-53c-15-3-53-13-85-23l-58-18l6,25
	c3,14,20,45,36,69c57,82,78,173,44,187c-40,15-64-12-132-149c-63-130-68-136-92-131c-14,3-54,9-88,12c-51,6-63,10-63,25
	c0,23,61,99,139,173c63,60,72,86,28,86c-31,0-104-48-146-95l-34-39l6,49c3,28,17,78,31,112c39,95,34,143-15,143c-34,0-56-36-85-139
	c-17-63-18-64-27-35c-13,40-29,57-133,135c-108,82-138,88-186,37c-16-17-36-45-45-62s-17-32-18-34c-6-7-51,21-85,53
	c-63,60-194,74-285,32c-44-21-61-23-145-19c-86,4-96,7-114,30c-23,29-90,61-128,62c-16,0-38,12-56,30c-43,42-83,40-183-10
	c-48-25-85-38-93-33c-7,4-28,25-47,47l-33,38l26,23c38,33,172,105,194,105c11,0,42-14,69-30c129-76,213-103,330-104
	c49,0,80,5,103,17c28,15,32,23,32,59c0,60-31,102-98,135c-47,23-73,29-151,32l-94,3l44,20c63,29,149,58,171,58c10,0,50-29,89-65
	c86-79,115-95,183-101c62-6,114,17,134,59c19,40,0,90-58,148s-96,78-161,86l-49,6l49,51c78,83,100,139,60,151c-37,12-100-17-161-73
	l-58-54v63c0,73-14,131-36,154c-20,20-88,19-108,0c-21-21-43-100-58-203c-12-84-12-85,14-132l27-48l-29-12c-42-17-74-6-110,40
	c-28,36-36,40-76,40c-39,0-47-4-64-32c-15-25-20-51-20-104c0-61-3-73-22-90c-43-37-138-94-138-82c0,6,5,41,11,76c9,53,19,73,49,106
	c60,66,102,137,89,153c-6,7-20,13-31,13c-22,0-75-25-100-48c-21-18-22-10-6,57c11,47,14,51,47,57c69,13,116,35,188,89
	c80,60,100,98,68,122c-25,17-92,17-145-2c-24-8-45-13-47-11c-6,5,31,74,54,104c10,12,54,35,97,52c82,30,137,63,193,116
	c59,56,21,82-94,64c-36-6-70-13-75-16c-14-9-9,5,16,44c25,37,76,177,76,206c0,19-27,46-46,46c-32,0-111-91-169-195
	c-59-104-60-106-75-84c-50,77-106,119-159,119c-29,0-61-22-61-41c0-24,62-142,113-216c31-46,57-86,57-89s-9-18-20-34
	c-10-15-22-46-26-69c-5-34-10-41-23-35c-82,35-154,44-205,24c-34-13-50-44-36-71c14-26,93-76,143-91c37-11,37-12,37-65
	c0-29-3-53-7-53c-5,0-30,7-57,15s-75,15-107,15c-47,0-63-5-86-24c-27-24-27-26-13-52c24-43,58-62,155-86l90-23l3-79c1-44-2-94-8-111
	c-11-32-12-32-86-37c-55-4-83-11-103-26l-28-21l-12,72c-6,40-24,178-41,307s-32,250-35,268c-20,133-46,423-55,607
	c-23,488-58,619-350,1315c-22,52-119,328-161,455c-10,33-33,112-49,175c-16,64-54,190-84,280c-69,207-91,299-111,475
	c-38,332-106,699-161,869c-34,105-110,255-204,401c-77,120-192,329-290,525c-29,58-71,132-95,165c-58,82-233,248-302,287
	c-39,22-60,41-69,64c-20,49-17,101,8,143c13,20,25,56,28,80c5,45,5,45,59,61c65,18,105,55,137,124c36,76,32,139-11,220
	c-40,76-43,105-15,131c15,13,20,31,20,65c0,38,7,58,36,101c86,124,105,210,62,276c-13,21-30,61-37,88c-34,136-118,170-208,82
	c-39-37-40-34-8,67c13,43,36,149,51,235c21,126,25,176,21,261c-10,202-55,344-157,498c-140,211-435,431-715,532
	c-49,18-130,51-180,73c-49,22-139,56-200,77c-60,21-166,60-235,88c-224,91-569,126-655,67c-11-7-48-40-82-73c-44-43-88-73-155-105
	c-112-55-219-139-353-279c-78-81-110-124-147-194c-26-50-56-98-66-107s-43-21-73-27c-30-5-79-13-109-19c-30-5-59-7-63-4
	c-5,3-7,22-4,42c2,20-2,81-10,136c-19,132-11,191,33,252c74,104,86,138,95,268c4,66,14,170,23,230c42,303,40,407-7,520
	c-19,45-21,70-22,255c-1,181-3,214-23,285c-50,178-129,281-333,434c-136,103-228,151-349,181c-47,12-125,40-173,62
	c-139,63-171,70-377,74C11971,24559,11910,24556,11865,24545z M13053,21524c62-6,69-9,87-39c29-46,25-73-15-112c-39-38-55-84-55-166
	c0-51-3-59-25-69c-38-17-66-85-59-141c6-45,5-48-40-94c-70-72-99-139-100-226c0-126,35-162,241-247c198-81,305-133,345-169
	c55-48,244-340,279-430c16-42,46-102,66-135l36-59l-12-147c-7-83-10-193-7-251l6-104l-61-50c-170-140-298-198-593-269
	c-212-52-292-85-401-169c-270-207-405-547-365-917c7-63,14-223,15-355c2-249,6-298,55-650c47-344,61-520,70-915c9-397,11-412,74-645
	c25-93,39-232,32-320c-4-44-20-177-36-295c-31-233-31-227-61-595c-18-222-35-374-43-382c-3-3-114,195-135,242c-10,24-11,71-5,240
	c5,116,8,255,8,310c-1,55-3,314-6,575l-4,475l-43,160l-42,160l-9,290c-11,372-17,412-86,565c-48,107-49,157-5,294
	c39,124,51,196,51,316c0,111-25,409-40,472c-19,86-13,135,26,198c47,77,62,162,74,430c9,205,15,259,60,500c42,222,49,320,50,632
	c0,344-7,397-66,518c-41,84-127,174-432,455c-89,83-180,171-201,196c-39,45-39,46-28,95c13,58,14,131,3,197c-6,31-4,68,4,107
	c11,51,16,60,34,60c47-1,158-51,276-125c230-144,350-187,450-161c98,26,138,89,161,256c17,120,16,118,59,140c54,27,73,68,71,148
	c-2,74,7,89,58,98c61,11,105,39,130,84c21,38,26,41,55,36C12971,21533,13015,21527,13053,21524z M16592,16283c31-166,37-192,98-393
	c21-69,63-224,94-345c63-251,73-281,148-460c49-116,117-298,233-625c43-119,103-273,197-505c161-394,193-534,218-975
	c5-96,13-209,16-250l7-75l-26,24c-16,14-43,25-71,28c-95,11-131-18-141-112c-6-49-11-64-25-68c-16-4-26,14-63,117
	c-131,357-210,645-317,1151c-28,132-71,319-95,415c-51,206-88,377-110,513c-17,111-30,141-85,201c-20,22-48,61-60,86
	c-38,77-100,162-170,235c-86,89-89,106-66,334c9,91,21,216,27,276c12,125,37,248,74,367c38,125,77,230,82,224
	C16560,16443,16575,16370,16592,16283z M11582,12552c31-92,81-225,111-297c77-181,85-236,62-417c-25-191-24-317,3-448
	c24-117,38-286,47-585c6-170,10-206,26-242c26-55,90-88,155-80l44,5v-81c0-83-50-368-97-547c-13-52-56-214-94-360s-114-440-168-655
	c-55-214-131-514-169-665c-88-346-245-1019-276-1187c-14-70-49-243-80-383c-62-289-93-456-136-750c-80-539-120-731-240-1150
	c-32-113-92-331-134-485c-220-822-242-949-240-1440c1-296,1-301,27-380c23-70,52-121,125-225c16-23,16-24-3-16c-54,21-202,59-333,86
	c-211,44-245,63-320,180c-20,30-67,97-104,147c-78,106-128,203-128,251c0,49,20,88,99,187c78,99,132,195,149,265c6,25,18,104,27,175
	c8,72,32,220,51,330c50,280,63,396,74,660c18,412,37,528,108,671c50,100,86,198,112,299c82,320,136,637,166,970
	c25,284,54,548,64,590c42,167,129,480,175,630c79,253,111,390,135,583c28,218,42,280,101,439c99,263,134,472,169,991
	c13,192,32,290,116,573c97,328,112,384,134,490c48,241,71,661,70,1294c0,226-1,445-3,489l-2,78l41,37c49,43,64,69,64,110
	c0,17,3,31,8,31C11522,12720,11550,12645,11582,12552z M17770,8138c0-19-2-20-10-8c-13,19-13,30,0,30
	C17766,8160,17770,8150,17770,8138z"/>
</svg>
