<?xml version="1.0" encoding="utf-8"?>
<!-- Generator: Adobe Illustrator 25.0.1, SVG Export Plug-In . SVG Version: 6.00 Build 0)  -->
<svg version="1.1" id="Layer_1" xmlns="http://www.w3.org/2000/svg" xmlns:xlink="http://www.w3.org/1999/xlink" x="0px" y="0px"
	 viewBox="0 0 2500 2500" style="enable-background:new 0 0 2500 2500;" xml:space="preserve">
<style type="text/css">
	.st0{fill:#231F20;}
</style>
<path transform="translate(0.000000,2500.000000) scale(0.100000,-0.100000)" class="st0" d="M6668,24093c-26-6-31-35-24-167l6-121
	l-25,60c-13,33-27,77-31,98c-5,30-11,37-30,37c-35,0-31-26,27-191c56-158,57-167,40-251l-12-58l-115,173c-137,206-132,199-152,195
	c-49-9-10-90,154-319l83-116l-14-64c-7-35-23-84-34-109s-21-59-21-76c0-51-25-49-64,4c-59,81-171,182-201,182c-41,0-62-16-75-57
	c-15-47-64-122-96-146l-24-18v34c0,19,11,65,25,101c32,85,32,111-1,133c-24,16-28,16-60-2c-18-10-46-36-61-57c-15-22-28-36-29-32
	c-38,164-87,187-125,61c-52-172-56-183-64-162c-55,161-77,191-124,166c-16-9-21-9-21,1c-2,52-33,175-54,215c-64,118-208,148-229,48
	c-5-22-13-47-18-55c-26-42-49-98-49-120c0-14,14-54,30-89c17-35,29-65,28-65c-2-1-15-9-29-18c-25-16-30-15-85,7c-77,32-137,33-158,3
	c-14-20-14-25,9-66c30-54,30-52,4-52c-27,0-59-18-59-33c0-7,20-32,45-57c34-33,42-47,35-60c-11-20,3-43,66-111c23-25,52-65,64-89
	c20-39,20-42,3-35c-39,16-91,25-153,25l-65,1l33,29c17,16,32,34,32,40c0,18-57,10-85-12l-28-22l-46,52c-34,39-53,52-73,52
	c-36,0-36-20-3-79c14-24,24-45,22-47s-27,4-56,14c-46,14-60,25-94,72c-60,83-88,110-114,110c-28,0-29-10-3-60l20-39l-82,36
	c-90,40-160,49-166,22c-2-9,11-23,32-34c20-11,44-31,55-46c13-18,47-36,110-59l92-33l-87-38c-86-38-124-63-124-82c0-18,76,0,174,42
	c78,33,101,39,117,31c11-6,29-8,40-5c11,4,33,4,49,0l30-7l-50-61c-28-34-50-67-50-74c0-8,12-13,29-13c23,0,42,14,93,69l63,69l102,7
	c70,5,113,3,138-5l36-12l-45-30c-76-50-123-128-140-230c-4-21-29-67-60-110c-64-87-94-145-112-213c-20-75-17-109,20-219
	c19-56,40-123,46-150c10-47,10-50-18-80c-50-53-56-72-34-110l19-32l-24-30c-13-16-43-56-66-89c-22-33-65-89-95-124
	c-68-80-116-181-137-289c-20-100-14-115,49-110c39,3,42,6,70,63c21,43,58,88,128,158c54,53,102,97,106,97c5,0-2-39-14-87
	c-13-47-29-122-35-166c-11-78-11-81,11-99c16-13,18-19,9-22c-8-3-53-16-101-31c-89-26-108-39-90-57c8-8,41-4,114,15
	c57,15,106,27,110,27c3,0-19-24-50-54c-51-48-67-56-152-81c-123-35-160-51-160-68c0-26,30-28,97-7c92,28,100,27,68-12
	c-15-18-36-36-47-40c-13-6-18-14-13-27c4-13-2-23-22-36c-105-67-243-170-243-181c0-30,64-15,140,34c41,26,81,51,88,56c7,4,4-13-9-46
	c-12-29-28-72-36-96c-13-38-22-46-83-76c-85-42-170-106-167-126c4-29,51-21,112,19c32,22,61,39,62,37c2-2-10-26-27-54
	c-18-27-56-108-85-178c-46-110-52-131-40-143c23-23,42-6,85,76c38,72,40,75,35,38c-19-140-19-143,2-149c46-15,54,0,104,184l12,45
	l15-58c17-70,48-97,88-78c17,7,24,17,20,29c-3,9-17,69-32,132c-14,63-35,129-46,147c-17,29-18,35-4,67c8,20,19,36,23,36
	c5,0,17-31,26-68c21-81,30-92,75-92h35l-6,50c-3,27-21,96-40,152l-35,103l20,39l20,40l36-43c19-23,46-47,59-52c27-10,73-2,73,13
	c0,5-27,41-60,81c-33,39-58,77-56,83c3,7,24,37,47,67l42,55l39-59c39-61,70-82,107-72c24,6,28,28,7,40c-19,11-78,120-82,149
	c-2,17,8,32,37,54l38,31l35-69c34-68,49-82,86-82c35,0,32,20-17,113l-48,92l61,58l62,58l-15-44c-14-42-13-47,11-105
	c24-57,26-69,20-162l-7-101l-68-35c-70-37-162-118-156-138c8-23,78-17,217,20c12,3,15-4,12-34c-2-27,7-60,37-125c27-57,39-96,36-110
	c-4-16,1-29,15-42c33-30,175-34,255-7c59,20,60,20,81,1c13-12,35-19,62-19c28,0,63-12,109-36c43-22,94-39,138-46c63-9,76-8,130,12
	c38,13,80,21,113,20c76-2,114,14,164,69c35,38,57,52,101,65c31,9,69,27,85,41l30,25l12-34c7-22,24-43,45-56c19-12,37-31,41-43
	c11-39,52-84,118-133c75-54,143-148,170-234c137-424,368-1041,468-1246c42-88,124-194,198-259c81-70,173-168,260-275
	c193-237,466-432,777-554l107-42l66-141c36-77,87-189,115-249c52-112,144-252,317-478c58-76,117-166,143-220c67-137,76-197,78-540
	l2-291l-29-63c-18-38-83-129-168-235c-197-243-238-333-257-554c-12-134-31-174-168-344c-150-186-328-458-460-704
	c-115-213-365-718-505-1019c-72-154-172-369-223-476c-256-535-344-764-570-1465c-211-653-337-1125-645-2420
	c-83-349-255-999-345-1301c-94-318-223-851-270-1118c-4-28-21-54-58-94c-65-69-265-232-422-344c-66-47-165-124-220-172
	c-118-101-266-204-350-243c-45-21-79-28-139-31c-77-4-81-3-178,44c-119,56-182,66-243,38c-59-28-87-85-150-299
	c-30-104-75-240-100-301c-24-61-50-142-56-180c-16-90-1-141,80-268c32-50,61-103,64-117c5-18-3-58-22-115c-39-118-46-172-31-233
	c25-104,93-161,262-222c48-17,95-40,104-50c25-28,11-74-56-179c-85-132-103-185-98-285c10-190,148-336,402-424c131-46,229-60,514-71
	c275-11,310-15,527-60c211-44,304-58,485-75c285-27,366-42,565-105c182-57,327-80,505-81c157,0,209,9,329,60c89,38,140,46,201,31
	c66-16,115-71,199-223c104-190,190-267,352-313c170-50,506-58,652-16c89,26,131,61,189,158c79,131,135,177,213,177
	c51,0,82-16,191-102c165-131,269-172,549-216c88-13,234-40,325-59c91-18,199-37,240-40c100-10,235,12,431,68c328,94,392,91,671-33
	c256-113,392-140,541-107c103,23,179,63,272,144c171,148,332,258,439,297c26,10,76,19,110,19c80,1,139-28,276-136
	c174-138,243-180,373-224c212-72,480-51,797,63c245,88,328,112,530,152c295,60,387,92,471,168c96,87,115,196,84,473
	c-28,250-8,339,104,451c84,84,148,115,441,214c394,134,455,179,721,532c71,94,147,185,168,202c40,32,165,97,252,132
	c206,80,392,212,527,373c154,182,165,207,116,266c-51,60-225,164-427,257c-248,113-384,227-526,442c-103,157-181,316-266,546
	c-37,99-83,218-102,264c-34,84-34,85-18,126c8,24,39,74,68,112c65,85,98,159,104,232c3,31-5,128-17,216c-31,231-39,686-16,915
	c29,283,54,458,101,712c75,413,164,1144,235,1943c22,253,49,521,60,595c10,74,28,221,40,325c12,105,32,262,45,350
	c36,242,47,381,49,595c0,107,2,185,4,172s14-28,27-34c41-19,87-2,140,52c43,44,54,50,104,56c69,8,103,25,131,64c14,19,55,48,108,74
	c131,66,162,107,195,252c17,73,37,285,37,390v62l50,17c58,19,104,67,122,127c10,33,13,159,13,523c0,577-8,691-99,1465
	c-8,69-26,256-41,415c-31,347-78,779-106,965c-32,213-167,1006-205,1210c-20,102-49,257-65,345c-34,184-76,318-119,380
	c-47,68-199,204-242,215c-20,6-40,15-43,20c-15,25-247,78-455,105c-205,26-542,83-588,99c-77,27-130,73-188,162c-31,46-74,98-96,115
	c-22,18-51,50-65,73s-45,62-69,87c-26,29-47,63-54,90c-6,24-15,60-21,79c-14,55-11,66,31,115c60,70,80,111,191,410
	c24,65,24,89-2,142c-21,44-61,73-100,73h-21l7,283l7,282l-41,82c-52,103-126,179-267,273c-148,99-205,115-399,115
	c-145-1-154-2-270-38c-167-53-234-87-293-152c-112-122-264-379-291-490c-12-49-17-277-6-294c11-18,25-285,15-295
	c-18-18-10-76,24-164c18-48,48-134,66-192s45-127,60-155c17-32,31-80,39-135c13-89,28-126,69-175c62-74,80-180,42-242
	c-24-40-74-66-181-93c-129-33-289-86-454-151c-82-33-197-78-255-101c-207-82-254-110-408-248c-132-118-145-170-202-800
	c-16-184-34-409-40-500c-11-160-21-251-40-336c-5-22-16-110-24-195c-9-95-23-179-37-219c-32-97-29-150,14-240c25-49,37-88,37-116
	c0-43-11-62-135-236c-18-26-38-68-43-93c-10-47-8-62,27-180c20-67,45-224,37-232c-2-2-31,49-65,115c-74,147-108,259-121,410
	c-15,169-42,404-47,418c-2,6,30,30,74,54c96,51,117,70,148,134c23,50,24,56,19,240c-5,212-8,229-82,391c-27,61-74,166-102,235
	c-86,206-122,280-136,280c-20,0-23,11-40,122c-18,124-46,190-111,259c-96,104-217,161-364,174c-41,3-108,11-150,16l-77,11l24,35
	c61,90,55,150-30,325c-54,111-55,114-45,166c13,66-3,96-79,148c-87,60-94,93-64,289l7,50l28-65c15-36,34-101,41-145
	c26-148,56-185,150-185c44,0,62,15,32,26c-9,4-13,24-12,72c0,56-8,90-48,207c-46,131-49,147-50,240c0,55,5,179,12,275
	c26,352,26,343,4,417c-12,38-39,97-62,131c-53,82-81,138-126,253c-83,211-148,313-251,391c-115,88-146,101-453,187
	c-182,50-275,65-370,58c-219-17-528-170-686-339c-113-122-155-216-175-393c-17-158-15-153-86-182c-108-43-153-117-153-252
	c0-69,15-104,62-141c38-31,40-35,36-79c-4-38-19-68-78-155c-121-179-190-364-190-511c0-90-19-152-85-285c-65-130-103-234-111-306
	l-7-54h-76c-42,0-116,5-164,10c-75,8-100,15-170,53c-87,47-163,74-372,132c-71,20-149,47-172,61c-60,35-384,358-427,427
	c-51,81-130,240-191,387c-29,69-96,229-150,355c-53,127-112,271-130,320c-57,155-94,235-120,267c-28,33-26,42,16,63
	c20,11,52,15,105,13c93-4,106,7,85,74c-28,94-27,97,34,168c63,72,72,96,56,141c-18,52-13,67,29,94c22,14,40,31,40,38
	c0,6-14,28-30,47c-38,44-38,70,0,113c35,41,36,48,10,72c-29,26-52,95-48,146l3,44l72,3l71,3l42-76c46-83,77-111,114-101l23,6l-43,87
	c-31,63-40,90-31,95c7,4,40,8,74,8h61l7-42c13-79,37-173,52-196c10-17,22-22,41-20c24,3,27,6,24,38c-2,19-12,71-22,115s-18,80-17,81
	s25-7,53-17l51-19l7-78c11-120,25-171,50-188c37-23,59-8,53,35c-11,69-20,181-14,181c2,0,24-9,47-19c37-17,46-27,69-82
	c26-62,44-78,76-65c12,4,12,13-1,57c-13,43-13,53-2,60c29,20,64,21,126,7c69-17,102-14,102,9c0,15-72,52-105,54c-16,0-14,3,8,11
	c15,5,27,14,27,18c0,23-48,31-168,29c-114-2-133,0-177,21l-50,22l70,15c88,18,108,34,71,58c-18,12-38,16-68,12
	c-183-21-267-27-344-25l-89,3l47,23c58,28,66,40,34,48s-84-9-171-57c-43-23-91-40-125-45l-55-7l18,24c23,32,47,84,47,104
	c0,22,16,50,61,110c76,101,154,260,143,290c-15,38-146-11-251-94l-51-40l-7,37c-3,20-17,56-31,79c-13,23-24,47-24,54s19,33,43,57
	c41,41,42,45,41,105c0,46-6,72-23,100c-19,30-22,46-17,80c5,35,3,47-13,61c-27,25-105,46-168,46c-29,0-53,4-53,9c0,4,10,32,21,60
	c19,45,30,56,85,87c51,28,67,33,83,25c46-25,121-1,121,38c0,46-76,67-121,33c-31-23-80-44-87-37c-11,11,56,81,109,113l53,32l13-24
	c16-30,63-42,95-25c72,38,59,109-21,109c-21,0-41-3-45-7c-8-9-89-34-93-29c-10,10,80,92,129,117c60,30,60,30,75,10
	c18-27,83-29,106-3c66,73-15,128-102,68c-69-48-66-26,4,39c51,48,77,65,98,65c36,0,87,49,87,84c0,31-34,56-76,56
	c-57,0-116-68-94-109c8-16-7-33-98-111l-107-93l-9,47c-8,43-6,48,18,67c48,38,25,99-37,99c-69,0-103-55-61-96c15-16,29-49,39-90
	l15-65l-37-44c-36-43-37-44-48-22c-16,32-76,45-109,23c-31-20-35-61-7-76c13-7,22-26,27-56c6-41,2-56-39-142c-26-54-49-110-53-126
	c-7-27-8-28-20-11c-19,25-18,60,2,75c36,30,36,48,3,95c-39,55-36,81,25,188c57,99,66,127,66,198c0,83-34,110-90,72
	c-53-35-145-120-173-158c-22-30-27-34-22-15c17,53,8,98-30,164c-45,76-60,84-170,94l-80,7l1,40c1,49,46,174,68,191
	c28,20,144,37,215,31c36-3,156-31,266-62c205-56,239-62,265-45c13,9,12,12-5,25c-36,28-423,145-480,145c-16,0-17,2-5,10
	c8,5,29,10,47,10c39,0,63,9,63,23c0,25-169-6-329-60c-9-3,25,36,74,86c124,127,323,260,390,261c11,0,27,5,35,10c13,9,12,13-5,26
	c-55,43-273-51-437-188l-50-42l7,35c4,18,40,120,81,224c41,105,74,194,74,198s-11,7-24,7c-26,0-43-28-97-165c-16-38-28-65-29-58
	c0,14-18,157-25,200C6709,24089,6697,24099,6668,24093z M7258,22750c-7-11-16-20-20-20c-13,0-9,28,5,33
	C7266,22773,7270,22770,7258,22750z M5190,21144c0-30-11-50-65-113c-75-89-112-119-157-128l-32-6l62,79c75,98,171,204,183,204
	C5186,21180,5190,21164,5190,21144z M11419,18615c48-152,69-185,154-233c60-34,126-102,156-161c12-22,21-43,21-45c0-9-87,28-170,72
	c-41,21-123,52-181,67l-106,29l-15,95c-9,56-12,109-7,128c7,35,88,183,99,183C11374,18750,11396,18689,11419,18615z M12020,15894
	c0-100,75-436,144-649c19-61,52-192,71-293c46-233,58-267,148-415c41-67,107-183,147-257s95-175,123-225c27-49,76-145,108-213
	c55-116,57-124,41-140c-28-28-103-180-104-210c0-15,5-54,11-87c7-41,8-79,1-120c-26-159,7-225,111-225c26,0,28-3,33-52
	c3-29,7-121,9-204l2-151l-44,66c-49,73-115,208-154,316c-13,39-46,120-72,180c-74,174-104,274-125,422c-11,76-25,156-31,178
	c-20,70-70,165-126,238c-51,68-54,75-49,117c19,156,19,154-7,206c-14,27-69,98-122,158c-158,176-197,249-234,433
	c-29,142-35,262-22,414c24,274,39,352,93,493C12003,15954,12020,15961,12020,15894z M13998,15467c12-165,11-178-9-273
	c-18-80-22-138-25-304c-3-241-13-353-54-613c-29-175-31-200-21-282c13-113-7-365-43-535c-14-63-34-158-45-210c-34-158-29-220,30-390
	c135-381,185-616,214-1000c27-355,213-1449,310-1820c89-341,118-468,146-645c16-104,48-282,70-393c22-112,39-206,36-208
	c-13-13-346,733-484,1086c-153,389-240,581-568,1245c-186,378-297,626-335,750c-12,39-28,84-35,101c-13,30-12,32,8,37
	c12,3,32,8,44,12c16,5,23,2,28-14c3-12,21-29,38-38c18-9,63-44,100-79c37-34,88-70,112-80c42-15,46-15,70,0c27,18,27,14,10,174
	l-5,42l43-7c150-27,238,23,180,102c-23,30-54,45-122,56c-29,4-56,11-59,14c-10,9,43,158,58,166c8,4,46,15,84,23c72,17,116,46,116,77
	c0,10-11,31-24,46c-23,26-30,28-98,28h-73l3,53c3,37-4,76-21,130c-19,57-27,110-32,203c-6,113-31,286-50,347c-6,19-4,22,21,22
	c52,0,100,12,123,29c20,15,25,35,42,167c11,82,27,187,36,234c10,53,18,177,23,330c7,241,8,247,44,385c35,129,38,155,45,331
	c5,105,11,196,14,201c4,6,0,48-8,94c-20,111-19,158,5,270c11,52,23,142,27,202c3,59,9,107,13,107
	C13983,15640,13991,15562,13998,15467z M17219,15114c6-82,15-250,21-374c11-236,44-695,60-840c13-113,13-331-1-525l-11-157l33-46
	c31-43,32-47,21-86c-7-23-20-74-29-113c-9-40-20-73-24-73s-7,62-6,138c0,114-6,174-36,360c-41,246-44,301-23,412c14,69,13,82-4,160
	c-29,129-43,360-44,730c-1,348,10,605,25,579C17205,15270,17214,15197,17219,15114z M17455,12662c-8-34-33-97-54-140l-40-77l-1,51
	c0,41,5,55,25,74c13,12,36,54,51,92c15,37,29,67,30,65C17468,12725,17463,12696,17455,12662z M8335,24020c-4-6,5-10,20-10
	s24,4,20,10c-3,6-12,10-20,10S8338,24026,8335,24020z"/>
</svg>
