<?xml version="1.0" encoding="utf-8"?>
<!-- Generator: Adobe Illustrator 25.0.1, SVG Export Plug-In . SVG Version: 6.00 Build 0)  -->
<svg version="1.1" id="Layer_1" xmlns="http://www.w3.org/2000/svg" xmlns:xlink="http://www.w3.org/1999/xlink" x="0px" y="0px"
	 viewBox="0 0 2500 2500" style="enable-background:new 0 0 2500 2500;" xml:space="preserve">
<style type="text/css">
	.st0{fill:#231F20;}
</style>
<path transform="translate(0.000000,2500.000000) scale(0.100000,-0.100000)" class="st0" d="M13570,24327c-57-21-297-175-354-228
	c-86-79-118-152-222-519c-25-91-55-202-65-248c-34-149-59-407-70-716c-5-164-16-344-23-400c-47-344-158-1033-207-1281
	c-84-425-124-515-300-675c-278-253-423-369-685-550c-155-107-346-263-396-322c-23-28-76-98-118-157c-49-69-92-117-121-137
	c-71-47-199-86-305-91l-90-5l3,93c2,52,11,143,19,204c8,60,14,123,14,140c0,21,15,51,45,93c72,99,86,132,101,249
	c20,159,53,247,135,361c57,81,65,131,51,331c-6,91-9,180-6,196c3,17,12,70,21,118c85,470-276,983-822,1168c-64,22-86,24-255,24
	c-177,0-188-1-265-28c-169-60-275-119-371-209c-49-46-120-106-159-133c-181-128-336-250-398-312c-53-55-81-95-135-198
	c-53-102-76-135-109-159c-22-17-87-65-144-106c-134-98-221-185-291-291c-60-91-78-128-110-224c-18-52-21-97-27-340
	c-7-318-7-319-86-375c-80-57-110-92-135-155c-21-55-24-76-24-242c-1-101-4-183-8-183c-65,0-310-38-365-56c-94-31-204-96-267-159
	c-69-68-112-154-190-380c-177-505-257-707-382-958c-105-209-144-296-206-457c-86-227-230-509-320-627c-27-36-86-106-131-156
	c-45-51-107-121-136-157c-42-50-72-75-132-107c-43-23-100-56-126-74c-54-37-460-441-598-594c-49-55-113-125-141-155
	c-45-48-116-132-387-460c-34-41-158-172-277-290c-214-215-358-334-620-514c-201-139-245-190-314-361c-26-63-55-112-97-165
	c-94-116-120-184-179-485c-62-315-72-361-106-462c-18-57-60-161-93-231c-124-264-239-628-285-897c-59-347-159-1276-206-1920
	c-65-887-133-1465-235-1995c-140-720-156-814-207-1230c-32-267-33-629,0-778c53-244,137-379,344-556c209-177,365-270,540-320
	c134-38,242-49,428-43c301,10,408-17,505-125s146-229,175-434c28-190,46-233,139-324c138-136,278-186,501-177c152,7,255,28,532,111
	c309,92,355,101,533,100c136-1,161-4,270-33c581-156,639-165,1055-165c330-1,464,9,633,46c51,11,101,19,112,19c40-1,206-62,376-137
	c491-217,815-302,1189-311c196-5,199-5,745,79c110,17,186,22,350,22c194,0,224-2,395-33c253-45,414-50,701-22c368,36,441,30,1035-78
	c498-91,614-108,828-121c98-6,222-15,275-21c53-5,197-12,321-15c189-5,259-3,435,15c116,12,291,26,390,31c110,6,234,20,320,35
	c197,37,342,42,580,20c169-15,215-16,318-6c233,24,398,80,472,163l43,48l35-20c83-49,149-55,623-55h441l-1-57c-1-46,3-61,23-82
	c25-26,87-51,156-60c22-3,132-20,245-37c197-30,209-31,340-20c75,6,172,11,215,11c94,0,321-24,420-45c312-64,496-68,695-16
	c218,56,353,128,411,219c34,52,34,75,5,207c-16,71-37,386-56,830c-12,283-30,491-61,698c-26,178-34,419-21,697c11,250,2,465-28,665
	c-25,166-68,372-106,510c-24,90-28,124-34,335c-6,190-12,251-29,319c-26,101-83,245-150,379c-85,170-109,253-131,456
	c-25,225-43,334-85,506c-18,74-31,139-28,143c3,5,7,98,8,206c2,133,8,221,19,274c18,89,21,321,5,452c-24,205-23,274,4,391
	c18,74,30,161,37,274c14,221,23,290,75,525c77,353,93,467,115,830c6,99,21,261,33,360c16,138,22,236,22,420c0,253,0,257-60,565
	c-96,495-114,784-62,970c93,325,177,747,202,1012c15,152,29,227,77,403c19,73,41,171,159,714c81,376,107,522,151,831
	c34,245,33,208,27,900l-4,395l-59,145c-80,199-187,415-297,600c-129,218-146,240-327,425c-89,91-190,205-224,253
	c-58,82-63,94-95,222c-51,206-82,240-229,248l-82,4l-11,59c-23,114-10,354,25,451c29,84,53,195,68,323c33,273,47,702,26,777
	c-26,91-242,347-334,395c-27,14-74,41-103,61c-31,20-73,38-96,41c-37,5-42,9-48,40c-8,40-25,53-58,46c-17-4-28,0-38,15
	c-9,13-25,20-48,20c-30,0-36,4-41,28c-12,56-16,62-39,68c-24,6-60-10-106-47c-21-17-30-19-47-10c-11,6-41,11-65,11c-25,0-61,7-80,15
	c-20,8-50,15-66,15c-46,0-182-46-231-79c-50-32-146-53-225-50c-100,4-208-18-280-55c-36-20-72-36-79-36c-6,0-36-16-66-35
	c-39-25-66-35-95-35c-65,0-113-18-138-51c-12-17-35-38-50-46c-19-9-36-32-49-64c-18-42-25-49-49-49c-62,0-77-46-60-187
	c22-190,85-358,163-440l40-41l-4-95c-3-83-8-103-36-156c-28-54-32-71-32-141c0-74,2-82,30-113c44-50,52-79,40-149c-5-33-16-70-25-82
	c-55-75-86-128-101-173c-32-90,3-121,146-132l85-6l17-54c20-63,39-86,89-112c44-22,56-57,34-99c-20-38-19-53,4-98
	c11-20,25-72,33-115c13-69,13-77-1-73c-9,3-65,15-126,26c-132,27-191,48-311,112c-51,27-129,62-174,79c-120,43-131,51-193,127
	c-30,38-86,95-123,128c-89,77-100,90-120,144c-35,96-50,126-90,171c-23,26-49,69-59,95c-38,105-69,156-160,259
	c-58,66-96,119-101,138c-11,53-51,124-157,279c-90,133-146,197-245,279c-17,14-34,39-38,55c-10,43-129,343-184,464
	c-26,58-85,195-131,305c-45,110-99,226-118,259c-33,55-35,66-42,175c-5,76-17,146-34,205c-38,132-40,161-16,263
	c24,103,25,131,10,188c-13,47-92,129-186,191c-57,38-60,43-45,58c11,11,17,38,19,88l3,72l-50,47c-44,41-50,52-50,86
	c0,45-17,65-71,82c-36,11-36,13-32,55c5,41,4,43-30,59c-19,9-44,17-55,17c-28,0-39,18-47,73c-4,26-15,57-24,68
	C13670,24336,13615,24344,13570,24327z M13701,22154c26-115,45-173,77-236c2-5-2-8-9-8s-26-12-41-27c-52-50-32-146,51-236
	c69-75,94-143,136-365c32-170,40-196,127-461c106-322,212-567,377-871c79-146,164-303,189-349c57-107,94-147,212-231
	c56-40,111-89,134-120c86-114,330-303,610-475c234-143,391-253,584-412c134-110,414-332,476-378l27-20l-26-295
	c-56-654-73-782-189-1458c-37-211-89-541-116-732c-63-440-60-424-240-1160c-27-112-50-225-50-251c0-25,11-100,24-165
	c35-173,56-321,56-402c0-159,29-209,115-199c39,4,45,2,41-12c-16-53-111-444-132-541c-13-63-44-203-69-310s-63-278-85-380
	c-54-246-100-426-165-652c-157-543-175-736-136-1453c32-575,47-726,120-1215c11-74,25-227,31-340c15-297,28-431,61-634
	c35-216,67-346,155-634c185-610,296-921,547-1532c135-328,148-366,317-895l112-349l-12-98c-17-133-52-228-147-393l-81-140l-69-13
	c-44-9-164-14-338-15c-232-2-277-5-318-20c-27-10-50-17-51-15s-20,44-41,93c-21,50-67,151-102,225c-36,74-83,186-104,249
	c-22,62-55,143-73,180c-65,128-229,354-366,506c-190,209-255,330-430,800c-46,121-128,319-182,440c-124,275-180,408-275,655
	c-102,265-183,457-297,697c-134,284-190,418-460,1103c-132,336-369,914-421,1030c-89,198-375,755-536,1045
	c-262,471-475,910-861,1775c-169,379-168,378-408,855c-248,492-271,545-400,935c-125,381-199,548-318,725c-73,108-117,154-240,252
	c-51,41-104,91-118,112c-18,28-34,88-65,237c-22,109-54,237-70,284c-83,230-85,216,84,646c52,131,105,271,117,309
	c35,108,146,368,206,485c52,101,209,323,314,442c28,31,92,94,143,139c50,45,148,134,216,198s185,168,260,231c74,63,189,165,254,225
	c66,61,190,171,276,246c160,140,820,805,977,984c48,55,110,132,139,170c29,39,79,89,113,113c96,70,117,122,162,407
	c10,66,24,165,30,220s24,195,40,310c90,649,96,728,76,1050c-9,138-18,275-21,305l-5,55l25-51C13659,22316,13684,22231,13701,22154z
	 M7293,16380c120-304,128-348,98-530c-16-98-21-170-21-335c0-210-19-446-39-483c-13-24-10-23-246-62c-214-35-329-59-460-97
	c-325-93-979-382-1310-580c-214-128-405-230-549-294c-83-37-153-65-156-62s40,49,95,102c108,103,297,254,460,366
	c130,90,542,403,687,523c105,87,281,289,440,503c47,64,110,145,140,180c59,70,261,332,518,672c91,120,185,245,210,278l45,59l11-37
	C7223,16562,7257,16471,7293,16380z"/>
</svg>
