<?xml version="1.0" encoding="utf-8"?>
<!-- Generator: Adobe Illustrator 25.0.1, SVG Export Plug-In . SVG Version: 6.00 Build 0)  -->
<svg version="1.1" id="Layer_1" xmlns="http://www.w3.org/2000/svg" xmlns:xlink="http://www.w3.org/1999/xlink" x="0px" y="0px"
	 viewBox="0 0 2500 2500" style="enable-background:new 0 0 2500 2500;" xml:space="preserve">
<style type="text/css">
	.st0{fill:#231F20;}
</style>
<path transform="translate(0.000000,2500.000000) scale(0.100000,-0.100000)" class="st0" d="M11505,24563c-311-40-661-172-884-331
	c-197-140-284-242-399-467c-31-60-84-140-133-200c-116-142-173-231-226-346c-57-127-61-158-34-247c11-39,21-77,21-85s-40-47-89-86
	c-48-39-104-88-124-110c-47-52-135-183-158-237c-18-39-18-46-5-78c8-19,34-56,57-81c38-41,41-48,26-56c-9-6-49-34-87-63
	c-127-96-168-176-174-344c-4-90-9-118-34-177c-80-193-87-255-37-321c25-32,27-42,22-91c-5-45-18-75-71-162c-81-134-95-180-76-258
	c22-94,23-179,5-275c-25-125-17-182,40-290c50-97,53-117,30-226c-9-40-12-85-9-100c10-42,32-72,55-72c18,0,20-4,14-32
	c-21-105-67-205-148-325c-84-124-86-141-42-327c22-93,45-166,57-181c25-31,64-33,96-2l25,22l-16-30c-8-16-38-56-66-88s-51-64-52-70
	c0-7-3-52-6-102c-14-210-3-280,46-280c20,0,27,10,50,82c30,93,63,134,120,152c66,19,85,15,104-24c29-62,30-104,1-180
	c-39-107-77-252-71-269c13-33,46-14,126,70c66,70,82,82,87,67c32-96,118-193,171-193c24,0,25-1,19-57c-19-191-28-590-15-654
	c10-48,19-62,88-129c42-41,120-110,174-153s97-86,97-95s-11-44-25-77c-13-33-38-112-56-177l-31-116l-74-79c-116-122-217-284-274-442
	c-96-261-149-628-129-886c17-229,41-322,112-439l36-59l-80-46c-125-70-282-227-338-338c-40-80-45-129-21-218l22-80l-26-69
	c-31-82-32-110-6-161c15-29,20-57,19-107c-1-59,3-74,25-106c14-21,26-52,26-69c0-37,27-73,94-122c28-21,67-53,86-70s59-43,89-58
	c63-31,136-34,266-8c100,19,314,21,319,3c2-7,18-92,36-188c17-96,53-267,80-380c26-113,51-223,54-245c22-131,92-378,132-463
	c47-100,46-103-26-67c-93,47-376,91-670,105c-252,12-525,35-730,61c-236,30-355,34-512,15c-184-22-192-21-206,8c-7,16-45,42-111,76
	c-138,71-185,118-255,257c-65,128-97,161-201,209c-155,71-133,68-555,74l-385,5l-127,43c-94,31-143,42-189,42c-96,0-118-16-199-143
	c-38-61-70-121-70-134c0-14,10-27,28-36c52-27,318-126,406-152c50-14,92-27,94-29c5-6-42-78-64-98c-25-22-267-113-336-127
	c-29-5-102-15-163-21c-259-26-452-106-522-216c-64-99-134-310-158-474c-18-125-35-391-35-562c0-143,13-212,49-252
	c63-71,303-114,406-72c28,11,80,58,170,153c131,138,350,329,415,362c25,13,71,20,159,25c68,4,164,13,215,21c173,26,341,37,501,33
	l160-4l95-41c234-100,356-121,626-106c394,23,621-30,1139-267c198-91,409-172,555-215c52-15,99-31,105-36c5-6-5-23-26-47
	c-20-20-85-102-145-182c-61-80-145-190-189-245c-85-109-195-271-252-372c-51-92-174-361-248-543c-125-308-210-487-274-574
	c-65-89-69-104-47-157c13-31,12-35-10-64c-15-20-29-61-39-109c-20-107-80-228-147-297c-58-60-144-115-368-234
	c-190-102-250-143-340-235c-132-134-248-325-369-606c-33-77-86-192-118-256c-75-147-113-238-113-263c1-27,107-164,150-193
	c33-23,41-24,135-19c119,7,186,25,255,72c29,19,61,35,72,35c29,0,82-58,100-110c9-25,37-152,63-283c73-379,110-454,255-527
	c109-55,226-125,402-241c185-121,283-163,383-163c111,0,214,57,233,128c11,39,0,156-34,360c-26,160-57,279-113,436
	c-34,95-39,169-21,320c16,131,34,178,100,270c33,45,95,151,138,234c44,83,128,234,187,336c129,220,176,318,205,424
	c29,103,22,120-73,173c-86,48-92,64-49,150c28,55,39,86,62,180l11,43l44-6c70-10,92,0,121,58c14,28,41,74,59,102s58,95,89,148
	s95,145,142,205c103,129,143,187,214,313c133,235,344,557,439,670c25,30,109,120,186,200s179,192,227,250c103,125,118,137,246,196
	c99,46,140,76,174,129c20,30,20,29,11-340c-16-738-3-935,102-1502c52-284,72-339,165-454c93-114,101-140,135-403
	c50-387,88-496,248-708c111-147,108-139,167-478c22-129,69-381,105-560c72-357,88-474,105-750c11-198,16-234,80-670
	c37-250,42-300,37-405c-4-93-11-138-31-200l-26-80l36-70c34-64,36-74,30-130c-8-81-54-173-112-224c-60-52-205-151-273-186
	c-29-14-110-42-180-61c-69-19-151-44-181-55c-97-36-224-108-294-165c-59-49-80-59-159-80c-128-34-189-65-246-122
	c-64-64-89-139-71-209c27-109,99-194,218-256c103-54,446-137,597-144c170-8,334,40,520,152c58,35,105,61,105,58s-17-37-37-75
	c-32-62-48-79-134-143c-110-84-129-105-168-190c-16-33-44-74-62-90c-48-42-405-232-459-244c-25-6-94-17-155-25
	c-106-14-303-68-449-123c-86-32-158-98-177-161c-26-89,28-271,99-334c56-48,102-64,377-128c427-100,809-151,1020-135
	c195,14,420,62,609,130c56,20,161,47,244,61c80,14,197,41,261,60c64,20,179,53,256,74c170,46,257,80,335,131c71,45,137,110,151,146
	c5,15,14,88,20,162c10,150,27,201,69,213c14,4,58,17,99,28c44,13,83,31,98,46l26,26l-7,246c-6,177-4,290,6,397c27,306,12,537-58,864
	c-19,91-42,200-51,241c-12,58-15,130-14,321c2,296-8,390-89,874c-71,421-85,529-105,835c-25,379-46,533-105,785
	c-47,199-62,338-80,746c-15,345-28,419-101,565l-41,83l16,218c22,285,39,419,86,698c111,650,131,909,115,1430c-7,225-6,233,20,358
	c31,150,95,359,136,438c15,31,70,123,122,205c125,197,228,390,332,618c172,378,200,466,216,656c12,153,21,205,55,317
	c27,87,27,90,18,258c-5,94-8,267-6,385l3,215l-28,55c-33,64-63,84-157,104c-37,8-72,18-76,22c-8,9,4,440,16,570c5,56,2,70-30,143
	c-20,45-36,94-36,108s21,57,48,97c64,93,74,114,111,226c42,131,66,237,111,505c39,227,49,318,70,610c12,163,29,270,84,525
	c58,273,69,407,70,810c2,788-20,1227-75,1472c-12,56-19,126-19,192c0,144-22,241-120,536c-65,193-77,260-62,347c6,37,14,98,18,134
	l6,67l160,83c108,57,187,106,242,151c44,37,159,119,253,182c182,121,309,233,363,316c76,118,161,446,206,795c29,226,10,320-89,448
	c-60,77-125,133-341,295c-158,118-221,158-366,233c-96,49-231,121-300,159s-165,86-215,107c-81,33-99,37-182,38c-107,0-122-8-191-98
	c-35-46-51-58-85-67c-61-14-167-46-207-62c-44-17-225-138-355-238c-55-42-121-89-148-104c-59-35-81-63-103-129
	c-40-125-92-178-200-203c-187-44-242-72-274-139c-16-34-17-48-9-94c12-63,36-114,75-160c17-21,27-45,28-70c2-32-2-40-26-54
	c-20-12-28-24-28-44c0-39-10-49-50-58c-66-14-98-42-134-118c-31-65-40-76-100-114c-131-84-137-149-32-326c56-94,107-144,208-205
	c47-29,93-63,102-76c22-34,36-103,42-210l6-91l-46-55c-50-60-62-86-52-125c6-22,2-25-36-36c-59-15-130-53-173-90l-35-31l-24,53
	c-12,30-35,84-51,122c-77,188-174,294-560,609c-71,59-165,139-207,178c-76,70-78,73-78,119c0,27-15,97-32,157
	c-67,227-28,377,121,461c143,80,149,90,161,247c11,146,20,176,79,272c149,238,161,269,173,469c10,174,30,291,55,322
	c10,12,62,69,116,128c158,173,176,218,184,470c6,178-3,247-42,334c-40,86-73,129-139,176c-34,24-133,117-221,207
	c-127,128-196,189-327,286c-267,196-346,237-517,266C11765,24569,11583,24573,11505,24563z"/>
</svg>
