<?xml version="1.0" encoding="utf-8"?>
<!-- Generator: Adobe Illustrator 25.0.1, SVG Export Plug-In . SVG Version: 6.00 Build 0)  -->
<svg version="1.1" id="Layer_1" xmlns="http://www.w3.org/2000/svg" xmlns:xlink="http://www.w3.org/1999/xlink" x="0px" y="0px"
	 viewBox="0 0 2500 2500" style="enable-background:new 0 0 2500 2500;" xml:space="preserve">
<style type="text/css">
	.st0{fill:#231F20;}
</style>
<path transform="translate(0.000000,2500.000000) scale(0.100000,-0.100000)" class="st0" d="M12618,20530c-129-23-222-76-356-201
	l-43-40l-17,32c-29,56-58,75-159,105c-108,32-173,35-221,10c-42-22-165-143-185-182c-27-53-50-189-37-214s15-22-60-75
	c-82-58-237-194-300-261c-110-119-155-246-154-434c1-131,20-221,80-371c34-86,37-101,35-184c-2-113-25-259-51-325s-25-93,3-126
	c18-21,35-28,76-32c43-4,51-7,46-21c-35-87,7-161,91-161c28,0,28,2,9-45c-27-64,0-107,96-150c56-25,59-28,59-61c0-72,50-127,143-159
	c56-19,61-19,156-3c58,10,123,29,155,45l56,27l18-24c9-14,56-104,103-200c48-96,97-186,109-198c12-13,18-27,14-32c-5-5-49-24-98-44
	c-50-20-119-53-155-75c-102-60-197-98-317-126c-60-14-136-34-169-45s-69-19-80-18c-20,1-217-88-450-205c-162-81-281-132-460-197
	c-216-78-315-102-544-130c-82-10-86-9-130,16c-25,15-75,48-111,74c-83,60-276,176-450,270c-215,116-258,149-461,361
	c-103,107-198,208-213,226c-33,40-136,121-197,157c-119,68-368,134-587,155c-51,5-95,11-98,13c-2,3-2,13,2,22c6,15,16,16,69,11
	c103-11,113-4,146,116c25,89,86,220,138,298c40,59,43,61,84,61c104,0,151,36,208,158c38,82,143,245,177,274c11,10,45,17,97,20
	c114,7,165,35,258,144c39,46,80,99,90,117c26,47,21,108-17,222c-57,168-118,277-230,410c-36,42-97,127-136,190
	c-113,183-197,246-407,306c-131,37-147,47-282,166c-58,52-125,105-148,119c-89,53-231,69-348,39c-140-36-532-264-626-365
	c-26-27-78-102-115-167c-38-65-96-154-130-198c-33-44-79-111-102-148c-53-89-136-286-152-362c-7-33-25-80-40-105c-16-25-31-56-35-70
	c-12-46-28-70-47-70c-10,0-65,18-123,40s-119,40-136,40c-31,0-69-15-80-33c-4-6-25-5-56,3c-28,7-62,10-76,6c-15-3-81-59-147-124
	c-67-64-131-120-143-125c-12-4-89-22-172-41c-178-41-419-62-591-52c-173,9-248-13-389-119c-144-108-166-132-432-483
	c-176-233-262-450-317-804c-25-157-30-205-71-748c-13-173-36-470-51-660c-32-396-32-401,48-670l42-145v-235c0-266-7-324-65-505
	c-52-164-99-334-154-560c-84-343-155-607-222-825c-36-118-76-262-89-319c-29-130-24-143,79-202c39-23,109-66,153-96
	c45-29,125-73,178-98s96-47,96-49s24-188,54-412c30-225,60-472,65-549c23-294,8-1168-24-1410c-8-66-40-241-70-390
	c-70-350-72-364-90-670c-8-143-26-379-40-525c-47-510-55-597-75-860c-21-266-37-397-85-695c-14-88-31-239-37-335
	c-11-160-9-209,15-570c15-217,32-476,37-575c22-371,52-581,116-793c21-69,24-95,19-150c-7-66,6-215,27-322c21-109,70-167,165-196
	c60-18,337-38,548-38c185-1,208,6,305,92c48,42,77,57,220,109c91,33,192,68,225,78c152,42,329,136,477,253c63,49,173,181,200,240
	c33,70,18,168-33,227c-32,36-134,99-209,129c-106,42-325,60-450,36c-29-6-54-9-56-7c-1,1-12,48-23,104c-12,56-38,157-58,225
	c-105,356-126,459-141,673c-12,171,0,261,56,435c28,85,65,223,84,305c35,159,38,211,30,560c-3,90,3,160,22,280c14,88,32,212,41,275
	c33,229,115,730,154,940c22,118,61,334,85,480c25,146,62,344,81,440c34,166,79,429,105,607c11,75,31,126,43,113c3-3,17-66,31-140
	c40-212,101-467,160-675c30-104,75-271,101-370c87-338,124-427,261-618c97-134,126-188,148-272c26-102,54-333,59-485
	c5-130,13-181,77-490c39-190,98-473,130-630c124-605,167-793,237-1040c76-270,74-257,83-700c8-380,24-625,51-756
	c16-80,61-125,183-183c194-93,303-116,414-87c69,17,575,263,668,324c33,22,100,76,147,121c48,44,89,81,92,81s28-12,55-27
	c44-25,50-31,45-53c-3-14-8-95-11-180c-6-146-6-158,16-208c42-98,116-138,305-166c324-48,548-116,835-251c213-101,344-146,485-170
	c125-22,333-22,475-1c134,20,260,20,334,1c86-23,188-80,247-139c57-57,183-222,279-366c170-254,306-308,564-224
	c146,47,203,44,401-20c238-79,449-112,648-103c203,9,351,58,680,225c299,152,488,218,697,242c179,21,283,6,560-84
	c266-87,349-101,580-100h195l300,62c394,80,436,86,595,85c210-1,340-33,643-162c238-101,415-154,672-203c103-19,153-23,355-23
	c269,0,285,2,595,92c500,146,561,157,865,157c197,1,262-3,400-23c148-22,203-24,545-26c430-2,390,4,644-96c135-53,251-87,396-116
	c75-15,139-18,390-17c296,0,304,1,600,42c497,70,506,69,744-30c326-136,456-141,811-32c304,94,510,166,566,200
	c115,67,200,189,239,339c32,124,17,229-71,495l-48,145l-3,240c-3,256-9,306-53,427c-34,94-84,171-226,353c-60,77-186,241-279,365
	c-213,284-289,361-416,424c-106,52-196,79-430,131c-90,20-277,67-415,106c-139,38-345,92-458,119c-231,57-297,79-425,145
	c-198,102-344,223-555,460c-309,348-341,392-463,642c-102,209-158,283-322,427c-64,56-156,140-206,187c-102,97-149,131-254,183
	c-129,65-194,77-477,84c-250,7-251,7-291,34c-48,32-105,104-192,243c-35,54-83,125-108,156c-91,117-236,205-463,284
	c-161,56-176,63-216,107c-40,42-57,75-100,201c-20,56-65,169-101,252c-37,82-94,213-128,291c-76,174-173,338-242,409
	c-29,30-100,86-157,125c-121,82-162,125-172,177c-4,20-1,109,7,197c9,105,14,300,14,561c0,395-1,403-33,650c-67,505-81,544-281,761
	c-348,378-568,668-736,969c-303,542-500,986-800,1800c-146,398-224,595-375,945c-65,151-189,442-276,645c-86,204-213,487-282,630
	c-203,424-237,512-351,892c-119,394-178,517-360,746c-86,108-161,179-274,259c-121,86-146,122-222,323c-97,256-253,560-387,757
	c-102,149-233,253-368,292C12813,20534,12681,20542,12618,20530z M8242,17053c8-10,19-29,25-43c16-38,160-224,281-363
	c42-49,257-264,477-478c272-264,419-415,460-471c65-89,105-122,168-139c48-13,74-10,272,25c83,15,220,31,305,36
	c225,12,379,48,615,143l130,53l-27-56c-52-109-82-349-59-472c17-85,70-189,154-301c114-150,127-174,127-231c0-28-9-116-19-194
	c-21-166-24-171-131-216c-118-50-304-183-422-302c-58-60-147-149-198-198c-185-181-258-310-349-612c-39-128-119-291-206-419
	c-132-193-240-460-375-920c-79-269-139-451-242-730c-39-104-112-314-163-465s-128-374-170-495c-125-361-262-826-400-1365
	c-47-184-117-441-155-570c-76-262-104-367-180-678c-28-117-87-323-131-458c-75-235-144-491-170-636c-7-38-14-67-15-65
	c-1,1-19,90-39,197s-67,335-105,505c-172,776-210,1066-240,1815c-26,655-68,1089-160,1660c-22,135-42,261-45,280
	c-5,32-45,471-45,490c0,5,19,28,41,51l42,43l-6,71c-10,116-84,397-213,800c-100,314-98,298-99,790c-1,387-3,447-24,603
	c-12,96-21,176-18,178c2,2,33-9,68-26c35-16,95-37,133-47c59-14,79-15,140-5c96,16,198,68,278,142c64,58,170,203,235,320
	c17,30,69,123,116,205c136,241,195,381,282,666c26,85,61,186,78,224c25,58,32,89,37,175c7,114,17,140,74,209c49,58,46,81-14,145
	c-45,48-50,57-50,99c0,25-8,68-19,94c-10,26-23,78-30,114c-6,36-20,92-31,124c-27,78-25,129,7,206c24,56,27,78,27,174
	c1,100-2,117-30,190c-17,44-35,95-38,113c-7,27-5,32,12,32C8218,17070,8233,17062,8242,17053z M7497,16411c52-38,55-43,48-65
	c-3-11-10-78-14-147l-9-125l-51-90c-28-50-51-96-51-103s-4-9-10-6c-6,4-10,66-10,154c0,82-5,173-11,202c-6,30-12,113-13,185l-3,131
	l48-57C7447,16458,7481,16423,7497,16411z M13331,14733c26-80,69-120,139-129c42-6,56-13,77-41c47-62,108-78,180-48
	c19,8,42,15,50,15c22,0,40-55,72-217c37-183,82-356,128-493c58-170,248-613,335-780l81-154l-94,84c-52,47-130,119-174,161
	c-81,77-307,250-419,320c-127,80-342,150-521,170c-136,15-160,26-190,91c-20,43-25,69-25,133c0,44,5,98,10,120s16,97,24,166
	c16,144,36,197,129,359c52,90,98,183,157,315c12,26,14,27,17,10C13310,14804,13320,14767,13331,14733z"/>
</svg>
