<?xml version="1.0" encoding="utf-8"?>
<!-- Generator: Adobe Illustrator 25.0.1, SVG Export Plug-In . SVG Version: 6.00 Build 0)  -->
<svg version="1.1" id="Layer_1" xmlns="http://www.w3.org/2000/svg" xmlns:xlink="http://www.w3.org/1999/xlink" x="0px" y="0px"
	 viewBox="0 0 2500 2500" style="enable-background:new 0 0 2500 2500;" xml:space="preserve">
<style type="text/css">
	.st0{fill:#231F20;}
</style>
<path transform="translate(0.000000,2500.000000) scale(0.100000,-0.100000)" class="st0" d="M11093,24471c-75-19-109-60-133-160
	c-16-65-17-66-74-97c-71-38-124-87-132-122c-4-15-15-44-25-64c-11-21-19-46-19-58c0-16-7-20-37-20c-21,0-64-11-96-24
	c-157-65-288-178-345-297c-41-86-78-244-92-394c-6-66-17-149-25-185c-59-264-95-607-95-925c0-88-7-259-15-380s-15-303-15-405v-185
	l-80-45c-103-56-266-185-352-279c-90-98-177-230-253-386c-67-138-96-220-146-418c-17-67-59-210-94-318c-74-226-95-331-95-473v-102
	l-68-100c-37-54-104-149-148-209c-91-126-125-197-132-273s35-156,128-246c38-38,73-80,76-93c8-29-1-133-19-218c-12-58-14-61-77-104
	c-170-116-342-254-501-404c-265-250-457-471-533-616c-69-132-77-167-86-371c-5-111-14-207-24-240c-8-30-20-95-26-143
	c-15-121-2-187,62-315c54-107,70-121,122-108c20,5,25,14,31,58c11,87,35,163,62,194l24,29l-5-105c-3-58-15-159-27-225
	c-34-194-27-246,65-504l77-214l-11-68c-5-38-30-137-55-221s-72-247-104-363c-58-206-134-411-203-550c-20-38-80-158-135-265
	c-160-313-194-440-233-855c-10-115-31-322-44-460c-52-509-55-603-31-880c17-191,13-311-16-455c-11-52-22-128-26-168
	c-5-65-12-83-65-175c-150-257-232-406-321-582c-53-104-127-241-164-303c-98-162-432-642-569-817c-65-82-171-220-237-305
	c-290-375-511-613-852-915c-199-177-313-285-412-393c-94-103-147-170-387-482c-232-302-587-575-1040-802c-266-133-655-363-856-506
	c-163-115-203-147-345-277c-196-180-365-297-485-338c-41-14-136-43-210-63s-163-49-197-64c-71-32-144-95-180-158
	c-24-41-25-48-19-130c10-118,34-238,56-282c40-78,122-79,271-1c54,28,107,51,119,51c22,0,36-26,75-135c14-40,39-71,129-160
	c62-60,139-146,172-190c146-198,195-218,409-169c86,20,95,18,153-25c94-71,174-71,360,1c60,22,125,41,147,41c47,0,114-32,235-113
	c290-194,542-306,935-416c414-116,426-123,670-370c267-270,335-313,710-454c391-146,707-307,1163-594c234-146,513-277,689-322
	c133-34,333-54,534-54c185,0,397-13,514-31c39-6,176-45,305-87l235-75l139-5c166-5,236,5,441,63c193,55,414,104,507,111
	c100,9,221-15,301-59c34-19,98-55,142-81c106-61,187-86,285-86c103,0,173,23,319,104c65,36,135,73,156,82c60,25,162,19,290-16
	c129-35,256-40,346-14c119,35,187,81,324,219c72,72,145,137,162,144c28,12,41,10,110-12c256-83,433-86,758-12
	c145,33,468,135,531,168c80,41,124,102,145,196c13,63,0,154-47,338c-34,132-63,220-229,698c-121,348-171,519-291,990
	c-132,514-175,668-270,958c-169,513-346,949-608,1496c-169,351-289,628-342,786c-65,195-373,1441-458,1855c-25,118-56,265-71,325
	c-151,631-238,1014-247,1091c-15,115-3,235,46,489c57,295,68,387,69,565c1,354-85,1128-173,1555c-83,400-149,574-343,898
	c-100,168-129,240-146,369c-23,168,42,303,265,553c196,221,317,415,407,655c51,137,66,169,67,145c0-11-10-98-22-194
	c-21-166-21-176-5-238c9-37,43-108,77-167c56-95,61-111,71-192c6-49,22-123,35-164c14-41,27-106,31-145c3-38,10-76,16-82
	c15-20,91-16,109,5c23,25,88,207,95,261c3,25,0,81-6,124c-19,138-24,345-11,477c6,68,15,130,19,137c4,9,19-7,41-45
	c45-77,52-164,20-278c-14-47-24-119-27-179c-4-90-2-104,19-145c23-45,115-130,213-196c51-35,104-44,135-24c13,8,12,20-9,97
	c-49,182-53,218-36,327c19,125,59,242,142,426c92,203,92,214-7,420c-86,179-90,208-45,325c75,197,76,212,29,359
	c-40,122-38,193,11,336c44,130,49,208,26,361c-8,47-12,124-9,175c4,77,11,104,53,209c48,118,49,122,49,230c1,105-1,115-42,230
	c-80,220-84,262-57,595c12,143,13,207,5,282c-19,170-76,375-177,633c-144,367-168,461-184,718c-13,209-28,281-84,395
	c-54,109-134,200-234,266c-102,67-280,154-434,210c-26,10-45,21-43,25c2,3,0,29-5,56c-5,28-21,142-35,255c-13,113-32,246-41,295
	c-13,70-16,161-17,415c-1,179-7,478-14,665c-15,395-23,358,101,440c111,72,333,199,401,229l58,26l38-30c68-54,145-82,249-92
	c129-12,169-24,203-60c15-17,28-33,27-37c0-3-22-23-50-44c-63-48-63-65-1-170c27-45,70-136,97-202c108-271,253-545,497-935
	c283-454,380-626,503-890c137-296,337-678,402-769c38-52,139-169,227-260c172-180,298-320,476-531c63-74,178-207,255-295
	c384-435,509-613,785-1115c137-249,225-405,279-494c23-37,95-160,160-274s171-292,235-397c65-104,132-222,151-260
	c62-132,98-303,130-625c9-85,25-213,36-285c34-217,49-392,49-560c0-173-11-260-65-537c-19-97-44-248-55-334c-28-218-44-714-30-933
	c37-577,38-560-60-953c-23-90-54-209-70-265c-71-254-96-408-125-783c-23-292-42-472-71-655c-85-547-102-723-124-1310
	c-6-154-17-392-25-530c-9-137-20-396-26-575c-16-510-5-624,135-1397c47-256,104-629,115-745c5-51,6-183,4-293c-5-220-12-169,81-615
	c73-350,123-721,132-970c5-123,2-195-16-350c-34-302-38-683-10-1015c23-277,22-323-11-553c-30-212-24-273,47-463c26-70,27-79,15-118
	c-7-24-29-62-50-84c-70-76-73-91-66-251c9-167,16-153-126-248c-110-74-170-93-404-127c-77-11-188-32-247-45c-59-14-151-33-205-41
	c-225-36-304-78-374-200c-61-106-33-136,176-185c106-25,213-38,430-49c99-6,243-19,320-31c233-35,467-40,990-24c259,7,553,20,655,29
	c102,8,264,17,360,20c96,4,204,13,239,21c166,38,331,182,331,291c0,56-24,132-78,248l-47,100l4,125c2,69,4,199,4,290
	c1,154-1,173-31,285c-48,183-61,288-72,552c-8,170-7,290,0,405c19,272,23,614,11,759c-18,207-68,589-111,849c-79,483-95,671-86,1045
	c7,323,19,528,46,810c30,307,37,461,71,1490c16,474,6,714-41,964c-11,58-18,107-15,109c15,15,169-352,243-578c33-102,86-264,117-360
	c89-274,287-754,394-955c49-90,133-228,329-535c190-297,242-437,262-706c39-542,78-691,306-1164c132-274,139-305,174-775
	c24-308,107-608,282-1010c137-315,198-501,198-604c0-42-9-74-44-150c-53-116-70-187-64-272c3-53,13-83,59-174c31-60,84-181,118-268
	c60-152,62-160,52-207c-18-82-89-260-146-364c-65-117-99-199-126-304c-26-97-36-241-20-280c33-78,147-85,371-22
	c164,46,285,60,521,60c225,0,281,25,372,162c89,134,166,360,207,608c12,69,28,135,35,147c9,13,37,28,72,38c114,33,173,79,173,136
	c0,56-61,262-110,372c-27,61-50,117-50,123c0,7,25,15,58,19c131,16,158,50,149,190c-6,98-32,186-145,491c-125,335-192,703-232,1274
	c-57,814-172,1503-339,2048c-88,283-93,326-61,537c26,171,25,271-1,365c-11,41-65,182-119,315c-98,239-129,333-150,453
	c-10,56-20,742-23,1517c-1,219,12,345,68,685c115,699,131,1077,59,1417c-60,282-67,322-68,403c-1,93-2,90,109,300
	c42,80,68,152,129,361c33,109,62,152,162,232c137,110,184,176,235,329c40,118,49,243,25,367c-26,134-22,174,48,457
	c61,248,125,588,146,779c15,133,12,249-10,449c-27,241-25,412,6,717c36,342,38,565,6,707c-34,154-66,247-154,446
	c-43,100-86,208-94,241s-19,151-24,265c-10,225-33,367-80,506c-48,142-96,209-230,324c-170,146-289,273-536,570
	c-221,267-455,488-653,617c-185,121-189,124-229,167c-22,23-60,82-87,132c-108,201-138,245-218,317c-76,68-79,72-73,106
	c7,39,19,153,36,331c7,63,32,234,57,380c80,465,64,620-94,932c-95,187-235,368-330,425c-24,14-43,29-43,33c0,5-38,28-84,51
	c-63,31-103,43-162,51c-44,5-144,19-224,31c-229,34-301,28-580-48c-69-19-194-48-279-65c-256-52-331-90-474-240
	c-69-72-94-108-135-192c-45-90-169-439-186-524c-4-17,0-75,8-130c22-149,28-239,20-311c-7-66-21-92-153-281c-31-45-61-131-61-175
	c0-37,33-71,99-101c33-15,63-31,66-36s9-32,12-59l6-49l-79,26c-88,28-124,48-210,119c-32,26-67,54-77,62s-57,17-110,22l-91,7l-86,90
	c-83,88-159,144-310,232c-149,87-158,99-184,222c-31,155-63,194-263,324c-78,51-160,111-181,132c-22,22-86,109-143,193
	c-143,212-286,359-462,477c-71,47-151,107-179,134l-50,49l7,108c6,100,5,111-15,152c-52,101-266,277-480,394
	c-158,87-317,195-480,326c-190,153-209,175-255,293c-48,124-100,204-189,290c-99,95-127,107-206,92c-33-6-37-4-70,41
	c-19,26-71,89-116,140s-120,152-168,223c-98,146-219,280-303,336c-31,20-88,48-127,62c-69,25-80,25-371,28
	C11260,24478,11110,24475,11093,24471z"/>
</svg>
