<?xml version="1.0" encoding="utf-8"?>
<!-- Generator: Adobe Illustrator 25.0.1, SVG Export Plug-In . SVG Version: 6.00 Build 0)  -->
<svg version="1.1" id="Layer_1" xmlns="http://www.w3.org/2000/svg" xmlns:xlink="http://www.w3.org/1999/xlink" x="0px" y="0px"
	 viewBox="0 0 2500 2500" style="enable-background:new 0 0 2500 2500;" xml:space="preserve">
<style type="text/css">
	.st0{fill:#231F20;}
</style>
<path transform="translate(0.000000,2500.000000) scale(0.100000,-0.100000)" class="st0" d="M10551,24794c-30-8-74-23-98-34
	c-25-11-104-36-176-56c-173-47-228-75-373-192c-130-105-140-111-227-143c-85-31-175-96-234-169c-105-131-195-345-214-507
	c-16-145-28-210-56-296c-24-73-27-98-28-232l-1-150l-48-140c-26-77-79-208-117-291c-53-117-69-162-69-197c0-40-6-53-56-114
	c-31-37-63-81-71-97l-15-30l-22,30c-70,97-124,133-233,154c-73,14-168-1-311-51c-161-57-281-131-519-324c-181-147-208-186-223-337
	c-10-101-20-136-75-273c-47-116-54-201-30-344c12-75,15-126,10-183c-11-128,23-210,97-234l28-9l-26-55c-47-102-103-313-203-770
	c-154-702-154-702-155-925c0-177,2-204,38-400c48-270,53-358,31-630c-22-268-18-417,24-890c50-557,42-531,247-778
	c102-122,118-154,111-221c-10-86-25-121-79-182c-126-145-118-217,50-440c54-72,102-135,106-142c4-6-14-53-38-104
	c-28-58-59-146-82-233l-36-140l6-205c8-233,3-273-63-508c-53-187-61-283-61-672c1-173,0-337,0-365c-1-61,44-155,186-385
	c127-206,138-228,164-345l23-100l82-80c45-44,93-100,106-125l24-45v-865c0-856,3-986,30-1375c8-110,19-302,26-427
	c12-220,12-230-9-330c-28-129-28-147,3-233c15-44,25-92,25-129c0-111-22-291-51-411c-15-66-33-161-39-212c-5-50-21-127-34-170
	c-101-339-106-362-201-857c-69-357-102-691-91-909c11-226,48-420,146-762c105-371,123-506,121-906c-2-285,0-310,18-360
	c20-54,65-108,128-157c32-24,33-27,33-98c0-94,24-269,57-409c23-101,24-120,17-230c-5-66-9-210-9-320c-1-110-5-213-9-230
	c-4-16-35-72-68-123c-92-143-102-178-95-347c8-176,32-477,48-575c24-161,87-303,146-333c41-21,71-26,248-37c88-5,210-19,270-31
	c61-11,153-21,205-22c92-1,97,0,166,37c106,56,145,57,399,6c116-23,271-57,345-75c200-50,276-58,478-52c158,4,199,9,375,46
	c276,58,708,120,912,131c94,5,186,14,206,20c50,14,89,47,106,87c14,34,14,34,61,27c100-15,363-8,522,15c186,27,229,36,297,68
	c113,52,203,201,255,421c62,265,84,319,248,610c65,116,80,125,80,52c0-19,11-125,25-235c13-110,34-279,45-375c28-232,37-278,60-290
	c29-15,99-12,295,15c99,14,209,25,245,25c84,0,136,15,156,45c14,21,13,41-15,237c-45,311-53,395-46,469l7,67l296,5
	c269,4,308,7,415,30c65,14,139,36,164,49c71,35,85,61,94,170c15,199,35,228,265,383c129,87,198,144,224,188l17,27l42-60
	c23-33,58-95,78-137c53-115,163-412,170-459c8-63-19-128-93-224c-93-120-154-216-176-272c-51-134,10-268,167-367
	c109-69,217-101,347-101c139,0,322,71,492,192c164,116,390,355,452,478c25,49,28,65,27,141c-3,130-31,340-63,467
	c-16,62-54,170-85,240s-65,163-75,207c-38,164-81,377-78,386c4,13,236-191,439-386c211-204,366-347,393-362c36-21,90-15,132,13
	c128,86,374,335,374,377c0,11-48,69-113,136c-62,64-160,172-217,241c-181,217-351,411-460,525c-58,60-146,156-194,213
	c-110,128-192,202-277,253c-74,45-310,125-564,193c-210,56-270,76-346,118c-42,23-62,40-66,58c-3,14-18,72-34,130s-49,200-73,315
	c-25,116-82,343-126,505s-98,380-120,485c-70,332-118,533-200,846c-96,363-123,476-190,799c-28,135-93,425-145,645
	c-105,447-135,598-194,958c-23,136-62,354-87,485c-96,503-146,781-195,1098c-77,503-121,700-278,1260c-75,266-99,383-160,780
	c-69,445-114,636-213,892c-80,206-289,584-431,777s-183,257-263,410c-44,83-85,163-92,178c-22,51-15,105,22,166c47,77,56,101,72,210
	c8,51,24,116,36,144s90,146,174,263c249,349,287,419,498,934c75,182,246,549,257,550c11,0,39-102,58-215c24-138,29-152,83-202
	c23-22,69-63,100-92c75-69,96-115,107-232c16-157,57-239,169-335c106-91,167-127,197-120c14,4,29,14,32,22c3,9-12,86-33,172
	c-37,147-39,166-39,307c0,165,1,169,81,289c43,65,70,146,79,232c4,38,11,74,15,79c13,18,40,152,40,203c0,27-7,71-15,98
	c-28,92-21,130,45,262c48,94,60,128,60,165c0,56-31,143-76,214c-104,163-107,201-23,316c40,55,37,89-13,199c-40,86-43,99-43,178
	c0,73,5,97,33,170c42,108,48,159,28,236c-23,90-20,163,15,304c29,114,31,135,26,235c-7,133-37,248-108,419c-121,287-121,284-149,576
	c-20,206-70,411-130,530c-24,49-28,70-34,194c-4,76-15,184-26,240c-20,102-126,426-186,569c-41,98-143,287-190,350
	c-79,109-202,168-417,202c-196,31-597,18-772-24c-124-30-404-135-578-217c-88-41-162-74-167-74c-4,0,7,29,26,63c34,65,64,179,64,247
	c0,57-35,159-78,226c-21,32-57,97-79,144c-23,47-62,114-87,150s-66,104-91,151c-37,71-62,102-131,165c-47,44-95,83-107,87
	s-44,5-73,1c-81-10-154,32-309,176c-102,95-229,151-381,170c-48,6-121,24-164,41c-84,32-197,59-245,58
	C10619,24809,10581,24802,10551,24794z M11831,22217c-22-150-42-207-90-251l-31-30v140c1,189,6,207,77,272c55,51,58,53,61,30
	C11850,22364,11842,22292,11831,22217z M11545,21706c22,0,49,2,60,6c16,6,23,0,40-33c24-51,57-78,106-85c21-4,48-17,60-30
	c22-24,22-24,4-65c-21-45-15-67,23-84c18-8,20-15,15-55c-3-25-14-54-24-65c-28-31-41-75-34-116c4-22,0-58-9-90c-14-47-14-62-2-112
	c34-146,128-208,379-252c257-44,278-63,312-275c9-58,29-156,46-219c16-62,29-133,29-157v-44h-40c-40,0-253,40-320,60
	c-88,27-313,73-506,105c-390,64-668,141-884,247c-80,39-194,93-255,120c-180,80-206,110-225,247c-18,125-46,226-80,289
	c-28,52-29,56-12,69c35,28,119,12,228-43c127-65,239-86,308-60c59,23,91,60,145,168c46,92,47,93,112,125c36,17,80,48,98,69
	c32,36,33,40,26,93c-4,31-8,67-8,81c-2,26-4,25,118,45c30,5,51,19,92,61l52,55l53-27C11481,21719,11523,21707,11545,21706z
	 M10967,19315c38-14,99-44,136-66c112-67,287-147,360-166c37-10,67-22,67-27c0-30-93-192-162-284c-94-124-151-225-168-301l-13-54
	l-14,34c-8,19-28,72-44,119c-17,47-50,117-74,155c-55,90-65,127-65,253c0,115-25,210-81,310c-16,28-25,52-19,52
	C10895,19340,10930,19329,10967,19315z M12045,3965c50-8,146-15,214-15c123,0,123,0,117-22c-13-48-49-218-71-338
	c-13-69-51-273-85-455c-34-181-72-386-85-455c-37-200-60-270-91-270c-8,0-37,11-64,25c-59,30-173,62-255,70c-137,15-304,72-408,138
	c-30,19-85,62-121,95s-137,112-224,175c-198,145-233,176-319,284l-69,88l155,1c86,1,233,9,326,18c361,36,467,63,529,136
	c24,29,26,37,23,125c-2,86,0,95,22,119c13,14,56,38,95,53c125,48,135,61,116,147c-6,27-8,57-5,67C11855,3982,11917,3986,12045,3965z
	"/>
</svg>
