<?xml version="1.0" encoding="utf-8"?>
<!-- Generator: Adobe Illustrator 25.0.1, SVG Export Plug-In . SVG Version: 6.00 Build 0)  -->
<svg version="1.1" id="Layer_1" xmlns="http://www.w3.org/2000/svg" xmlns:xlink="http://www.w3.org/1999/xlink" x="0px" y="0px"
	 viewBox="0 0 2500 2500" style="enable-background:new 0 0 2500 2500;" xml:space="preserve">
<style type="text/css">
	.st0{fill:#231F20;}
</style>
<path transform="translate(0.000000,2500.000000) scale(0.100000,-0.100000)" class="st0" d="M7667,24229c-153-20-343-105-568-254
	c-207-137-336-312-399-536c-26-96-36-244-21-337c12-75,62-252,100-352c12-30,21-56,21-57c0-2-11-3-25-3c-47,0-81-26-104-79
	c-32-76-37-49,78-425c39-127,71-231,71-233c0-1,14-18,31-38c33-38,104-65,170-65c37,0,37,0,64-74c17-47,27-96,28-133
	c2-178-5-372-14-408c-6-22-38-91-72-152c-54-102-65-116-116-149c-244-157-339-224-426-299c-122-106-285-215-425-285
	c-85-43-125-56-214-72c-133-24-185-49-263-125c-84-83-279-295-319-348c-105-137-205-413-248-685c-16-96-37-372-56-730
	c-13-243-23-334-60-580c-68-449-92-674-95-910c-5-365,10-540,81-965c55-325,114-537,186-665c17-30,71-110,120-177
	c90-124,164-252,193-333c9-25,36-117,60-206c48-175,77-249,126-320c53-78,167-191,294-294c176-142,195-187,195-464
	c0-83,5-225,11-316c12-161,11-168-14-300c-51-264-59-418-32-680c19-187,52-686,60-905c21-609,52-863,171-1400
	c114-517,115-522,121-675c7-178-8-359-43-516c-24-111-26-130-19-279c8-215,13-275,27-375c13-94,15-222,10-665c-4-347,4-416,82-686
	c69-239,69-230,87-962c14-591,23-666,115-970c67-223,78-271,110-466c14-85,33-173,43-196s48-86,85-140c80-119,98-173,126-372
	c28-202,28-199-26-269c-103-132-129-247-86-374c44-126,83-174,209-254c94-59,114-83,196-229c38-67,80-135,95-150
	c87-93,263-118,682-99c239,11,281,21,347,77c24,20,50,56,63,87c28,65,24,135-15,283c-26,97-27,106-19,260c11,223,9,279-10,362
	c-20,89-20,155-2,254c25,130,39,448,33,791c-5,349-7,369-66,653c-22,105-52,253-66,330s-53,255-85,395c-64,280-82,372-105,560
	c-17,140-41,456-50,660c-12,265-26,340-115,630c-23,74-48,182-57,240c-17,114-15,155,26,625c30,336,41,538,41,732
	c0,150-4,197-35,375c-73,434-71,529,29,958c77,327,106,462,126,585c21,123,76,344,89,358c4,4,27-73,50-170c24-98,77-279,118-403
	c108-327,104-305,113-635c10-327,11-333,97-585c67-198,73-251,48-455c-16-134-16-149-1-217c20-88,55-152,130-236c31-34,59-74,62-89
	c4-14,1-76-5-137c-12-106-12-114,9-171c56-152,56-148,21-291c-39-164-40-231-1-410c52-247,80-603,80-1034c0-309,10-461,52-775
	c18-139,32-286,32-350c0-108,0-112-51-245c-95-253-135-409-136-545c-1-59,4-80,30-135c17-36,53-91,80-123c88-106,95-119,90-157
	c-3-19-21-74-41-123c-51-121-70-226-63-357c10-183,51-290,185-478c44-62,88-136,98-164c18-56,17-137-7-388c-17-184-6-578,19-695
	c39-178,113-325,231-457c93-103,233-178,447-240c65-19,103-23,214-23c163,1,222,19,298,94c199,193,286,446,310,901
	c14,263-14,418-138,765c-114,321-145,446-180,710c-32,243-48,328-87,465c-42,146-47,213-18,252c11,14,59,54,107,88
	c196,139,205,163,194,548c-18,688-18,794-2,1007c37,479,40,540,27,783c-14,293-34,490-67,673c-36,203-42,384-18,580
	c11,84,19,192,19,239c-1,96-8,115-86,221c-27,37-56,82-64,102c-14,33-13,37,10,78c68,119,78,148,73,213c-6,71-24,112-77,170
	c-21,22-43,51-50,63c-16,32-14,102,9,211c37,183,52,338,70,732c6,124,24,360,40,525c72,729,95,1144,87,1562l-7,322l51,66
	c68,89,90,142,91,218c2,85-47,602-77,822c-13,99-31,239-40,310c-9,72-28,184-41,250c-79,387-100,608-90,960c9,346,34,893,51,1135
	c15,213,20,258,49,478c26,193,45,447,52,700l7,243l99-193c175-340,274-508,499-853c265-405,315-485,445-710c223-385,221-382,275-550
	c74-232,92-262,325-541c60-72,156-193,214-270c130-171,229-277,295-315l50-29l1-77c0-60,7-95,28-153c62-166,70-242,37-390
	c-31-141-34-187-16-294l16-99l-27-78c-33-97-29-135,30-256c23-48,53-116,65-151c24-64,59-102,93-102c58,0,119,77,134,169
	c4,23,9,41,12,41c2,0,34-28,70-61c77-73,225-149,301-157c43-4,50-1,69,23c12,15,22,35,22,45c0,26,8,28,48,14c46-16,158-18,217-3
	c69,17,87,40,84,108c-3,55-3,56,27,59c53,4,146,23,171,35c35,16,56,71,48,129c-5,46-4,48,27,64c43,22,48,30,48,82c0,40,1,42,31,42
	c68,0,129,54,129,115c0,58-31,82-140,110c-107,26-117,33-230,156c-96,105-111,126-130,186c-13,37-33,89-46,115s-24,49-24,52
	s15,2,33-1c47-7,97,20,97,53c0,39-25,88-65,128c-33,34-36,41-30,74c9,47,41,109,118,229c35,54,93,146,130,204c41,65,108,151,177,225
	c178,191,277,330,371,516l82,163l122,120c133,130,159,169,170,258c5,42,18,74,46,117c59,91,66,110,84,206c19,98,56,186,138,326
	c109,186,155,291,208,476c17,62,33,111,35,109c2-1,0-151-5-332l-8-330l-33-80c-50-123-53-146-30-212c25-73,25-81-6-178
	c-18-55-26-102-26-152c0-65-3-74-29-99c-43-42-45-72-9-175c36-104,35-126-15-304c-78-277-76-270-85-480c-5-126-14-224-25-265
	c-32-129-75-532-105-1003c-10-166-28-381-39-478c-55-474-47-717,34-1139c24-123,111-461,135-525c15-38,12-156-6-318
	c-25-217-23-385,10-662c30-256,30-346,1-425c-83-227-86-247-50-351c21-58,19-104-10-215c-16-62-25-123-25-173c0-96,31-307,76-526
	c81-390,109-584,124-868c13-236,23-315,61-487c44-196,57-308,69-571c21-466,39-630,105-976c37-192,69-241,186-283c53-18,54-19,52-57
	c-1-21-2-211-2-423c0-441-8-537-55-710c-48-174-59-243-51-324c20-205,163-508,290-611c64-53,130-75,224-75c146,0,388,90,449,167
	c80,101,141,242,162,373c10,63,9,87-5,150c-25,117-33,169-38,250l-6,75l27-35c50-65,107-123,164-167c56-42,170-103,196-103
	c7,0,23-7,36-15c31-20,162-45,240-45c41,0,108,12,192,35c167,46,212,68,230,112c16,37,14,55-25,231c-18,77-21,125-21,290
	c1,115-6,266-16,362c-21,217-15,418,19,591c42,207,48,290,34,482c-6,95-12,269-11,387c0,261,7,311,184,1355c56,334,84,512,160,1025
	c15,107,34,260,40,340c9,110,19,171,43,250c41,135,41,193,3,285c-37,89-42,177-27,545c13,346,19,372,186,820c84,227,107,292,209,587
	c31,88,84,223,117,300c89,202,196,456,230,548c42,111,96,337,115,480c24,174,22,477-4,675c-12,85-28,218-37,295
	c-30,255-55,413-81,502c-49,171-227,710-294,893c-80,217-108,309-125,406c-10,55-24,89-66,155c-89,142-137,254-150,344
	c-6,44-19,116-29,160c-32,137-36,258-12,350c30,115,41,192,52,345c5,74,14,149,19,165c6,17,22,80,35,140c14,61,33,143,43,183l18,73
	l29-188c34-228,83-425,135-553c113-276,126-317,154-470c42-230,80-309,334-692c151-229,171-264,208-368c42-118,60-151,140-253
	c25-33,51-81,60-110c20-71,35-211,35-335c0-88-4-114-30-190c-47-132-48-186-12-312c17-58,34-130,38-160c9-74,27-122,66-177
	c59-81,110-79,151,9c36,75,42,133,23,207c-19,76-21,161-3,185c12,16,16,13,39-40c73-166,53-398-46-516c-63-75-133-173-140-195
	c-11-34,13-72,50-79c26-5,45,0,87,24c30,17,80,35,112,41c31,6,72,20,90,31c43,27,135,126,157,171c44,87,119,306,134,391
	c24,138,16,204-50,400c-39,116-65,219-86,335c-16,92-44,211-61,263c-28,85-32,114-40,278c-11,236-36,479-58,562
	c-72,269-270,864-337,1015c-30,66-75,156-101,200c-82,141-113,202-134,262c-30,87-112,413-158,633c-39,183-89,366-148,540
	c-14,41-29,113-34,160c-21,191-102,486-171,625c-38,75-173,285-249,386c-67,88-217,239-304,304c-111,83-252,145-420,186
	c-44,10-91,27-104,37c-45,33-78,175-57,239c5,16,20,26,49,34c274,74,399,155,474,306c33,67,38,85,41,168c9,207-80,450-240,652
	c-86,110-435,461-545,550c-81,64-93,78-94,106c-11,368-41,472-166,587c-48,45-248,146-342,174c-88,26-415,83-573,101
	c-164,18-212,14-305-30c-61-28-95-74-145-197c-20-49-37-77-44-74c-41,16-101,16-265,2c-214-19-262-27-424-67
	c-367-92-490-151-634-305c-57-61-84-101-126-188c-71-147-98-258-99-401c0-123,10-169,61-270c73-147,143-222,414-447
	c57-47,120-99,139-116l34-29l-28-84c-225-688-316-1012-316-1131c0-60,20-117,49-140c21-16,36-19,76-15c28,2,58,8,67,12
	c14,5,18-1,23-32c15-87,28-118,66-156c49-51,49-61,4-268c-19-88-53-269-75-402c-50-297-210-1094-255-1267c-51-199-210-600-317-800
	c-28-52-99-164-159-249c-165-232-334-555-459-876c-39-99-102-236-140-306c-39-69-80-154-92-190c-30-90-46-129-55-129
	c-5,0-31,37-58,82c-28,46-90,139-139,208c-148,207-344,510-503,775c-238,399-325,562-413,780c-78,193-194,416-330,635
	c-166,267-200,332-260,500c-54,150-71,189-233,545c-145,321-168,369-250,521c-42,78-117,231-167,340c-99,214-173,347-276,489
	c-35,50-86,128-112,175c-66,119-149,199-287,276c-202,112-396,177-673,224c-205,35-251,54-387,155c-152,113-264,159-502,205
	c-59,11-113,26-119,33c-7,7-34,50-60,96c-45,78-49,90-48,145c1,34,22,147,47,251c25,105,51,216,57,247s21,71,33,87
	c100,140,98,136,108,212c6,41,20,106,31,144c52,177,73,354,49,414c-19,45-70,65-148,58l-63-6v27c0,15,16,123,35,241
	c55,342,56,429,4,586c-25,78-116,227-174,286c-54,55-110,86-301,167C8075,24229,7908,24260,7667,24229z M16927,9458c-3-8-6-5-6,6
	c-1,11,2,17,5,13C16929,9474,16930,9465,16927,9458z M16939,8812c6-40,18-114,26-165c21-132,19-389-5-599c-24-213-24-188-15-1050
	c4-388,4-764,0-835l-8-128l-23,110c-29,136-48,355-41,455c9,114-9,334-33,415c-33,112-36,229-11,375c35,203,44,386,31,615
	c-6,110-16,234-21,275s-12,183-15,315c-7,264-3,312,58,652l33,182l6-272C16925,9007,16933,8852,16939,8812z"/>
</svg>
