<?xml version="1.0" encoding="utf-8"?>
<!-- Generator: Adobe Illustrator 25.0.1, SVG Export Plug-In . SVG Version: 6.00 Build 0)  -->
<svg version="1.1" id="Layer_1" xmlns="http://www.w3.org/2000/svg" xmlns:xlink="http://www.w3.org/1999/xlink" x="0px" y="0px"
	 viewBox="0 0 2500 2500" style="enable-background:new 0 0 2500 2500;" xml:space="preserve">
<style type="text/css">
	.st0{fill:#231F20;}
</style>
<path transform="translate(0.000000,2500.000000) scale(0.100000,-0.100000)" class="st0" d="M10928,19390c-149-20-196-32-245-64
	c-35-23-83-91-83-117c0-10-18-38-39-63c-22-25-42-54-45-64c-6-16-14-18-56-14c-36,3-60-1-93-17c-84-41-157-119-157-169
	c0-31,49-96,100-132c57-41,60-55,25-133c-13-31-32-97-41-146l-16-89l-44-17c-90-34-125-112-105-230c13-77,5-115-22-115
	c-35,0-114-52-140-92c-27-41-27-46-22-138c6-89,5-97-19-135c-65-104-69-115-63-188c2-37,10-74,16-80s11-19,11-30c0-10,14-51,31-90
	c30-68,31-73,19-126c-14-64-24-85-74-160c-38-57-53-102-81-246c-14-77-15-105-5-192c10-95,9-107-15-215c-15-62-31-169-36-238
	c-5-68-16-149-24-180c-8-30-21-100-30-155c-49-305-125-571-275-965c-66-172-144-409-175-527c-49-187-42-325,21-453
	c28-55,50-82,117-138c79-68,118-97,402-302c166-120,395-291,395-295c0-2-14-36-31-76c-45-107-140-261-251-408
	c-179-238-213-326-277-721c-76-465-118-624-227-864c-100-221-204-383-389-606c-273-330-357-443-530-705c-219-333-507-779-621-960
	c-303-485-360-558-588-759c-245-215-717-678-921-901c-198-217-438-455-559-554c-86-70-366-253-591-386c-215-126-381-239-525-354
	c-200-160-277-194-553-241c-246-42-289-58-431-164c-49-36-105-70-125-75s-101-13-181-16c-163-7-268-23-450-66c-69-17-199-41-290-55
	c-187-28-298-56-456-115c-100-38-115-41-179-36c-38,3-108,13-155,22c-181,36-423,15-595-49c-152-58-350-180-386-240
	c-54-89,8-188,191-300c52-32,118-80,145-106c88-84,131-95,393-104c283-10,351-20,722-112c490-120,534-132,636-170
	c105-39,184-45,237-17c18,9,57,37,87,63c51,44,108,80,127,80c5,0,32-22,61-50c57-54,110-75,158-61c16,4,57,22,90,39
	c60,30,202,75,292,92c70,13,106-4,191-84c83-79,124-99,206-100c71-1,134,26,225,99c100,79,148,99,233,93c53-3,75-11,142-50
	c92-54,158-72,230-63c27,4,199,42,380,85c182,44,391,89,465,100c74,12,212,37,305,56c249,52,313,61,490,74c88,6,192,17,230,25
	c104,21,258,18,481-10c382-47,608-55,929-35c425,28,637,77,979,229c150,67,182,76,416,118c131,23,183,27,340,27l185,1l210-52
	c296-74,376-85,595-86c313,0,557,33,680,92c129,62,151,89,131,167c-34,132-39,176-45,349c-4,105-15,296-26,425s-25,390-30,580
	c-6,190-15,424-20,520c-23,418-32,891-21,1119c6,124,18,393,26,596c8,204,24,591,35,860c11,270,25,677,30,905c11,462,23,630,95,1305
	c37,349,45,482,46,815c0,168,2,301,4,295c2-5,6-32,10-58c7-55,34-88,64-80c25,6,57,70,71,143c29,140,41,184,73,252
	c19,40,44,84,56,98l21,25l-7-190c-4-104-8-308-8-452c0-225,2-265,16-278c26-26,46-7,74,68c52,140,67,209,72,334c5,117,6,121,25,110
	c16-10,22-9,34,8c13,16,14,37,8,115c-11,152-6,223,21,308c31,92,85,156,85,99c0-26,28-57,52-57c18,0,38,21,55,59l12,26l-4-25
	c-2-14-14-69-26-123c-26-109-21-130,26-109c20,9,25,9,25-2c0-12-34-207-41-235c-5-17,11-24,29-13c7,5,23,51,36,103l23,94l6-58
	c5-50,1-70-34-161c-21-58-39-110-39-116s10-10,21-8c16,2,27,18,42,56c14,37,23,50,31,42c16-16-8-196-33-245c-24-47-71-207-71-240
	c0-28,24-39,43-21c7,8,21,43,31,79c13,46,23,67,37,70c16,4,23-8,46-78c26-83,44-103,73-85c19,12-7,117-60,245c-16,40-4,144,12,108
	c13-26,37-38,52-23c8,8,2,29-21,73c-18,34-36,85-39,112l-7,50l30-27c27-26,83-39,83-19c0,4-28,37-63,73c-61,63-64,68-76,138
	c-6,40-10,74-8,76s23-17,46-41c42-44,73-56,86-34c4,6-27,44-68,86c-41,41-78,85-80,96c-4,14,8,47,29,87l34,65l-6-42
	c-9-59,13-66,72-23l44,32l-5-39c-2-21-9-70-15-110c-5-39-10-74-10-77s11-6,24-6c32,0,106,83,142,158c15,31,29,53,30,47
	c2-5,12-77,23-158c12-82,23-152,26-158c15-24,46-7,69,39c56,111,69,212,41,331c-13,55-14,67-2,78c12,12,20,4,54-54
	c73-123,73-124,63-189c-5-33-10-104-12-159l-3-100l26-3c34-4,38,7,46,122l6,91l29-63c27-63,28-65,22-213c-5-143-4-149,15-149
	c25,0,41,46,41,119l1,56l16-35c13-28,17-78,21-247l4-213h23c28,0,34,16,42,100c6,60,7,63,16,35c6-16,13-88,16-160
	c5-117,8-130,25-133c29-6,36,16,36,113v89l38-37c37-36,82-50,82-25c0,7-25,38-56,70c-54,54-59,62-90,170c-18,62-36,122-40,133
	c-4,12,13,0,40-27c47-48,96-65,96-34c0,8-41,56-92,108c-54,54-101,113-115,142c-13,27-22,50-20,52c1,2,31-15,65-38
	c51-33,66-39,84-31c20,9,13,17-88,92c-91,69-114,91-137,137c-15,30-23,54-18,54c26,0,153-31,170-41c20-13,51-6,51,10
	c0,24-143,71-217,71c-23,0-36,6-44,23c-7,12-38,63-71,113c-46,73-57,96-50,113c8,21,10,20,56-29c26-28,61-80,77-115
	c50-111,69-82,69,105c0,62-6,126-14,152l-13,46l56-36c119-75,201-133,201-141c0-5,21-16,48-26c141-52,196-113,207-231
	c4-32,8-69,11-81c6-29,61-92,91-104c23-8,23-10,8-39c-29-56-29-117-1-225c17-67,33-106,47-117c26-22,92-24,108-4c12,15,15,26,26,115
	c7,59,20,91,37,91c7,0,8-18,2-57c-19-140-9-190,67-324c34-60,67-113,75-120c7-6,30-13,52-16c57-8,69,11,54,90c-13,70-19,263-9,274
	c25,25,77-116,77-209c0-67,81-178,130-178c26,0,50,38,50,80c0,35,2,36,29,32c39-5,92,43,171,158c61,90,164,192,238,236l40,24l37-21
	c48-29,136-31,185-4c19,10,76,54,126,99s162,140,249,211c87,72,197,164,244,206c139,123,331,264,514,380c95,59,216,136,269,170
	c104,66,184,144,395,379c143,160,401,414,494,486l66,52l8-447c15-842,6-1600-26-2221c-6-124-9-319-6-435c6-296,21-333,172-435
	c39-27,79-60,89-75c29-44,113-275,130-356c19-94,34-286,45-614c8-213,12-260,31-315c31-94,35-195,15-325c-10-65-18-197-21-325
	c-7-321-11-337-153-550c-43-63-102-155-131-205c-71-118-178-258-287-375c-114-123-126-139-283-370c-149-220-230-320-329-412
	c-98-90-160-124-282-154c-144-35-169-45-296-130c-164-109-202-164-183-265c12-61,49-156,105-269c84-168,124-326,140-545
	c15-221,39-340,86-441c32-68,74-107,149-135c70-26,342-70,440-71c158,0,302,39,344,95c52,70,44,104-46,177c-35,29-74,71-86,93
	c-22,39-24,49-18,152c9,159,6,152,84,160c37,4,81,11,99,16c47,15,98,73,147,169c48,93,58,104,158,174c37,25,71,54,76,62
	c6,12,11,1,15-38c5-56-4-160-23-257c-16-85-12-208,12-327c19-95,22-143,22-366c1-244,2-258,22-285c51-69,96-85,404-144
	c343-65,430-78,618-89c97-6,272-18,387-27c277-21,573-23,640-4c135,39,197,85,220,165c22,74,22,172,0,196c-28,31-99,42-196,31
	c-153-17-294,17-514,124c-136,67-235,140-267,198c-14,25-18,56-18,152c0,134-9,162-98,308c-56,90-79,163-93,294
	c-17,146-2,289,56,560c55,258,94,473,140,763c43,279,60,362,90,450c50,146,168,344,316,530c165,207,217,306,311,599
	c38,119,79,208,155,341c107,187,281,515,339,642c75,164,140,361,159,483c49,312,62,344,198,470c89,83,275,283,338,364
	c25,31,28,32,37,15c5-10,31-104,57-209l48-190l-16-99c-17-107-15-115,29-169c13-15,29-46,36-68c14-50,40-69,94-69c50,0,99,31,133,83
	c20,31,30,37,59,37c42,0,84,24,106,61c16,27,22,29,77,29c33,0,73,7,89,15c35,18,145,161,176,230c21,46,23,64,23,195
	c-1,108,4,176,20,265c21,115,21,177,0,216c-6,12,0,22,22,38c59,43,65,80,53,311c-5,95-2,187,10,310c8,96,20,252,26,345
	c12,195,30,308,66,432c54,183,54,185,2,359l-32,109l-1,400c0,326-4,421-18,515c-9,63-33,248-52,410c-43,364-50,406-85,550
	c-16,63-43,183-60,265c-18,83-49,215-71,295c-21,80-50,206-65,280c-14,74-38,187-54,250c-36,147-41,190-32,273c14,119-6,139-252,264
	c-83,41-181,93-217,114c-88,51-149,74-303,115c-71,19-183,59-250,89c-115,51-183,72-358,110c-92,19-112,34-169,122l-44,67l3,181
	c3,207,12,308,48,525c34,200,30,296-15,425c-18,50-52,149-77,222s-58,150-74,171c-30,41-183,153-271,197c-75,38-136,40-355,12
	c-213-28-434-77-506-112c-70-35-325-224-372-276c-42-47-59-86-72-167c-6-40-5-44,40-88c25-26,46-52,46-59s-20-84-45-171
	s-45-170-45-185c0-34,31-73,70-89c31-13,31-14,25-64c-4-28-25-104-46-168c-38-113-48-179-30-206c4-7,26-19,47-27c38-13,39-15,44-67
	c4-40,12-63,33-87c16-20,27-44,27-63c0-16,9-41,20-55c16-21,20-41,20-108c0-45-3-103-6-129l-7-48l-116-55c-65-31-153-64-201-75
	c-512-121-575-143-681-237c-73-65-105-127-130-253c-29-142-129-381-254-604c-30-54-54-115-69-176c-13-52-30-107-39-124
	c-8-16-68-72-133-125c-138-110-178-163-229-294c-51-130-82-174-170-241c-157-120-192-153-252-240c-89-128-216-247-383-357
	c-101-66-127-89-209-184c-38-44-96-94-154-134c-234-159-298-219-375-353c-74-128-183-250-319-355c-51-40-101-84-112-99
	c-14-20-34-31-77-41c-33-7-107-29-166-48l-107-35l-38,30c-46,35-101,58-168,67c-28,4-59,12-70,18c-37,18-189,145-250,207
	c-44,45-226,192-293,236c-2,1-17,55-33,120c-34,134-57,179-129,249c-27,27-50,53-50,57s10,8,23,8s31,6,41,13c43,32-25,92-131,117
	c-53,12-108,58-100,84c6,19,69,35,140,35c53,1,71,5,87,21c26,26,25,39-3,80c-35,53-78,72-191,84c-118,13-125,21-77,93
	c17,25,34,61,37,80l7,35l41-40c22-22,51-43,64-47c29-8,72,18,72,44c0,24-99,115-159,146l-46,24l36,1c67,0,99-11,114-41
	c8-15,42-62,76-103c45-56,67-76,84-76c13,0,26,4,30,9c3,5-23,48-58,94l-64,84l43-11c42-11,45-14,93-110c61-119,95-166,122-166
	c34,0,31,26-13,111c-23,46-44,87-46,91s23-2,55-13c60-21,104-22,110-3c2,6-25,21-59,33c-35,12-90,35-122,52l-59,29h49
	c62,0,86,13,55,29c-13,7-69,11-147,10c-69,0-128,1-130,4c-3,3,28,10,68,17c122,19,164,38,122,54c-25,10-221-17-298-41
	c-15-4-18-2-12,12c16,42-68,102-124,90c-16-3-34-13-40-21c-11-12-17-10-42,11c-34,29-84,33-128,10c-17-9-30-12-30-9
	c0,13,93,170,132,222c32,43,36,53,23,58c-40,16-104-52-198-211c-41-68-42-69-47-40c-12,65,31,189,111,319c22,35,27,51,19,56
	c-22,13-50-2-78-42c-15-21-33-46-39-56c-7-9,4,30,24,88c32,91,100,226,156,311c30,45-8,55-48,12l-25-28v41c0,33,33,148,65,227
	c6,13,2,17-18,17c-22,0-29-10-55-72c-16-40-38-99-48-130l-18-58l-36,78c-37,78-56,97-85,86c-23-9-18-30,29-141c57-130,65-190,38-280
	c-11-37-26-92-33-121l-13-53l-24,88c-13,48-27,92-32,97s-21,5-35,2c-26-7-27-9-21-54c3-26,17-92,30-147c14-55,23-101,21-103
	s-27,31-57,73c-45,64-57,75-78,73c-38-4-30-48,25-129c25-38,45-70,45-71c0-2-21-2-46,1c-39,3-50-1-74-24c-31-29-51-27-43,5
	c3,10-4,35-16,53c-12,20-21,51-21,73c0,67-54,116-129,116c-43,0-81-38-81-81c0-15-8-35-18-44c-17-16-20-15-43,9c-13,15-41,37-62,51
	c-25,15-37,30-33,39c9,23-4,42-37,54c-21,7-42,27-62,58c-83,131-79,120-81,216c-2,109-28,191-92,281c-23,33-62,87-86,121
	c-30,42-48,83-60,130c-26,106-50,141-155,219c-51,39-97,78-103,88c-6,12-4,33,7,68c30,90-4,148-119,203c-80,38-103,62-117,126
	c-5,22-24,61-43,88c-18,26-44,67-56,91c-20,40-20,43-3,36c54-22,174-57,234-67c85-15,144,1,168,44c14,23,14,33,1,75
	c-7,26-14,63-14,82c-1,30,4,37,39,55c41,22,56,55,36,80c-19,22-1,85,28,99c22,10,27,21,31,62l5,50l45,7c107,18,124,73,61,195
	c-28,55-45,104-55,163c-8,47-15,90-17,95c-2,6,8,54,21,108c19,83,22,113,16,190c-3,51-9,106-12,123c-5,28,0,38,45,83
	c103,104,92,195-38,309l-60,52l2,93c1,77-2,99-20,137c-27,53-74,88-146,107c-74,19-100,17-184-17c-97-39-141-39-194,0
	c-57,41-131,66-261,90C11137,19414,11109,19414,10928,19390z M10349,14625c16-60,36-129,45-152c14-39,14-49-4-135
	c-25-116-25-133,0-249c11-52,20-121,20-154c0-78,16-174,40-244l20-56l-128,130c-70,72-161,157-202,189c-84,66-140,117-140,127
	c0,3,25,37,56,74c73,90,101,148,173,357c84,242,84,244,88,233C10318,14739,10333,14686,10349,14625z"/>
</svg>
