<?xml version="1.0" encoding="utf-8"?>
<!-- Generator: Adobe Illustrator 25.0.1, SVG Export Plug-In . SVG Version: 6.00 Build 0)  -->
<svg version="1.1" id="Layer_1" xmlns="http://www.w3.org/2000/svg" xmlns:xlink="http://www.w3.org/1999/xlink" x="0px" y="0px"
	 viewBox="0 0 2500 2500" style="enable-background:new 0 0 2500 2500;" xml:space="preserve">
<style type="text/css">
	.st0{fill:#231F20;}
</style>
<path transform="translate(0.000000,2500.000000) scale(0.100000,-0.100000)" class="st0" d="M12248,24767c-85-36-133-68-245-160
	c-109-91-182-131-353-192c-134-48-164-63-233-119c-97-79-187-217-230-351c-23-69-72-300-91-420c-41-270-31-428,44-682
	c70-233,99-385,108-555l7-143l-80,32c-78,31-256,73-310,73c-41,0-63-17-74-58c-12-45-28-226-37-418c-3-78-9-146-13-151
	c-3-5-45-34-93-66c-112-74-263-209-341-305c-34-42-89-107-122-144c-192-218-277-343-452-668c-171-316-230-440-370-785
	c-86-211-145-379-194-550c-71-252-73-263-144-1180c-24-306-81-894-106-1080c-5-44-34-246-64-450c-30-203-65-469-79-590
	c-30-259-81-891-96-1190c-6-115-17-322-25-460c-15-251-29-640-41-1135c-7-282,7-656,30-808c18-116,44-180,118-293
	c76-115,194-239,307-323c190-141,301-181,464-167l77,7l1-236c1-524,18-1328,29-1395c6-38,12-111,12-161l1-91l-96-200
	c-97-200-130-298-120-359c3-16,16-65,31-109c14-44,26-104,26-133l1-53l-162-157c-207-200-254-271-354-535c-66-172-171-376-310-603
	c-70-116-370-553-480-700c-202-271-415-595-506-769c-129-244-213-390-324-555c-146-220-167-269-188-440c-28-223-44-302-82-420
	c-23-69-53-147-66-175c-30-60-156-255-164-255c-3,0-92-86-198-192c-157-156-206-212-266-302c-137-208-192-352-202-527
	c-10-167,25-274,152-470c38-57,104-162,148-234c44-71,132-211,196-310c65-99,152-239,195-311c88-146,181-276,265-366
	c70-76,295-279,381-344c121-92,390-218,562-263c138-37,236-50,438-57c223-9,389,23,567,107c159,75,233,181,233,329
	c0,164-103,306-380,524c-223,176-244,202-302,364c-40,115-43,120-178,322c-136,203-150,229-184,336c-33,105-96,373-96,410
	c0,52,46,127,150,244c165,185,205,254,303,525c130,359,171,463,244,625c92,202,362,749,437,885l55,100l1-403c0-232,5-465,12-550
	c7-81,13-219,13-307v-160l-38-90c-78-182-89-229-89-355c1-63,11-182,23-265c19-134,20-171,13-350c-14-342-7-401,65-550
	c68-142,163-220,316-260c70-19,134-19,595-6c390,11,480,23,830,105c271,63,255,61,675,82c336,16,401,25,537,75
	c167,61,370,184,488,295l35,33l89-84c118-112,162-141,254-161c95-21,258-15,350,14c74,24,218,104,357,199c55,38,195,134,310,212
	c276,189,309,216,464,379c153,163,239,227,389,288c134,56,185,86,240,143c83,85,104,172,78,314c-33,176-125,373-255,549
	c-87,116-126,180-135,220c-4,17,4,68,21,130c21,80,27,126,27,203c-1,105-5,126-74,360c-80,269-219,982-227,1168c-4,87-3,127,5,127
	c14,0,73-45,296-229c195-160,264-222,497-447c75-72,181-163,235-201c147-105,215-181,273-305c27-57,60-148,75-203
	c71-259,111-348,193-426c86-82,283-182,430-219c32-8,47-18,59-42c25-48,43-106,65-203c25-114,53-174,119-255c63-79,107-164,149-291
	c38-115,83-193,155-269c124-131,167-221,262-548c50-174,80-237,134-286c85-77,262-102,405-58c101,31,156,69,198,138
	c44,73,138,296,172,408c80,263,97,633,41,901c-14,66-57,237-96,380c-96,348-123,471-160,720c-41,276-76,411-145,553
	c-90,183-192,271-343,294c-89,14-177-5-331-72c-63-27-115-49-116-47c-52,70-137,201-222,342c-139,228-416,639-550,816
	c-137,182-294,361-483,550c-186,187-355,328-562,469c-433,296-586,476-644,761c-25,123-9,282,56,533c67,263,74,302,125,756
	c74,653,80,682,270,1220c143,405,150,448,175,973c16,345,38,462,120,633c27,56,52,118,55,138c4,19,8,122,10,228c2,157,6,207,23,268
	c79,295,104,406,127,578c44,332,77,430,215,642c182,279,214,391,250,879c22,286,24,444,10,561c-24,195-25,185,1,208
	c12,12,30,22,39,22c23,0,45,27,59,71c13,39,15,52,25,119c40,263,234,1077,306,1285c68,193,72,220,80,540c6,212,17,372,36,545
	c24,210,28,287,28,540c1,420-11,468-199,796c-177,309-225,370-362,461c-44,29-89,65-98,79c-37,56-49,166-47,424c2,271-3,308-55,450
	c-116,312-298,579-485,707c-262,181-578,245-908,185c-111-21-428-109-542-152c-30-11-80-37-109-58c-86-60-81-60-74,0
	c4,29,16,96,26,148c37,173,24,321-44,520c-27,80-32,110-32,185c0,84,4,98,47,206c96,240,106,321,54,434c-64,142-204,227-441,271
	c-108,19-398,106-585,175c-206,76-471,140-600,145C12316,24790,12299,24788,12248,24767z M13566,21251l51-1l-38-107
	c-20-60-46-128-58-153c-47-101-19-158,94-195l70-22l6-64c7-79,20-105,64-123c46-20,55-55,26-106c-28-50-27-76,8-141
	c62-114,83-166,92-224c12-73,32-103,89-132c71-37,190-27,313,26l44,19l5-61c4-43,17-88,43-145c23-49,34-86,29-92c-5-5-43-13-84-19
	c-124-18-267-77-495-206c-60-34-152-84-204-110s-130-69-174-96s-81-48-83-46s-8,138-13,303l-9,299l-36,113l-36,114v262
	c0,144-5,288-11,320c-9,51-8,59,7,70c16,12,16,19,5,77c-21,107-36,125-164,203c-42,26-116,86-165,134l-87,86l245,11
	c135,6,283,10,330,9S13538,21251,13566,21251z M15844,20749c14-17,29-43,33-57c10-35,9-178-1-322c-6-91-5-130,8-189
	c9-41,14-76,13-78c-2-2-39-12-83-23c-43-11-87-23-96-26c-22-7-23,24-6,126c11,63,10,79-11,166c-15,61-22,112-18,141
	c4,42,115,293,129,293C15815,20780,15830,20766,15844,20749z M12285,10445c50-186,87-367,166-810c95-532,208-1094,268-1327
	c121-474,265-885,465-1330c110-245,208-551,355-1108c63-239,197-772,225-900c15-63,43-164,63-225c67-202,49-257-159-487
	c-163-181-212-248-255-356c-61-150-79-180-180-288c-77-84-245-214-275-214c-10,0-42,16-70,36c-82,56-168,101-227,118
	c-30,9-140,23-245,32c-223,19-378,15-606-17c-140-19-182-20-425-14c-210,5-275,10-292,21c-21,13-23,22-23,114c0,129-12,180-66,285
	c-88,172-101,257-64,413c26,108,25,139-6,269c-34,142-30,246,20,463c62,267,88,480,116,945c11,182,33,512,49,735
	c17,223,35,478,40,566c12,177,28,246,71,314c54,85,81,163,161,469c44,168,107,392,140,496c88,277,98,325,114,556
	c8,118,24,249,36,305c24,111,229,785,349,1144c43,129,81,251,85,270c8,32,13,21,72-155C12222,10661,12266,10517,12285,10445z"/>
</svg>
