<?xml version="1.0" encoding="utf-8"?>
<!-- Generator: Adobe Illustrator 27.0.0, SVG Export Plug-In . SVG Version: 6.00 Build 0)  -->
<svg version="1.1" id="Layer_1" xmlns="http://www.w3.org/2000/svg" xmlns:xlink="http://www.w3.org/1999/xlink" x="0px" y="0px"
	 viewBox="0 0 563.9 360" style="enable-background:new 0 0 563.9 360;" xml:space="preserve">
<g>
	<path d="M143.9,0.1c-4.6,0.4-12.6,1.6-23.5,3.8c-14.6,2.9-28,5.9-31.9,7.1c-2.4,0.8-4.6,1.9-4.9,2.5c-0.7,1.3,0.8,2.3,3.3,2.3
		c0.7,0,3.9-0.5,6.9-1.2c8.9-1.9,19.2-4,19.6-4c0.3,0,0.3,0.2,0.1,1.1c-0.3,1.7-1.3,10-1.9,16c-0.5,5-0.5,6.4-0.5,21.2
		c0,16,0.2,21.7,1,26.9c0.5,3.6,0.7,4.3,1.7,5.2c1.2,1.1,2.9,1.6,5.6,1.5c2.8-0.1,4.3-0.8,5-2.2c0.5-0.9,0.5-1.5,0.5-15.2
		c0.1-16.4-0.1-23.8-1.1-37.7c-0.7-9.7-1.2-14.6-1.7-17.1c-0.1-0.7-0.2-1.3-0.2-1.4c0.2-0.2,20.8-4.2,24.5-4.8
		c5.3-0.8,6.8-1.4,6.1-2.7C152,0.3,148.2-0.2,143.9,0.1z M211,5.8c-6.8,0.5-9.7,1.2-11.6,2.5c-1.3,1-1.8,1.9-1.9,4.1
		c-0.2,2.5,0.3,19.3,0.8,26.9c0.5,9.4,0.8,17.3,1.2,32.3c0.5,18.3,0.6,19.6,2.3,20.9c2,1.5,5.4,1.9,12,1.3
		c4.3-0.4,18.6-1.5,22.6-1.7c3.7-0.2,5.8-1,5.8-2.2c0-0.9-1.7-1.9-3.9-2.4c-1.7-0.4-14.3-0.4-20.7,0c-2.1,0.1-3.8,0.2-3.9,0.2
		c0,0-0.2-5.7-0.4-12.6c-0.2-6.9-0.5-14.9-0.5-17.7c-0.1-4.4-0.1-5.1,0.2-5.1c0.2-0.1,4.9-0.2,10.5-0.3c9.4-0.2,10.2-0.2,11.2-0.6
		c1.1-0.5,1.6-1.2,1.2-1.9c-0.2-0.4-1.5-1-2.9-1.4c-1.9-0.5-9.2-0.8-15.1-0.7l-5.4,0.2l-0.1-1.7c-0.5-6-1-32.5-0.7-32.9
		c0.2-0.3,10.1-1.5,15.5-1.8c8.4-0.5,12.5-1.7,12-3.3c-0.4-1.2-2.2-1.6-10.5-2.1C221.9,5.4,216.5,5.4,211,5.8z M176.3,10.5
		c-0.7,0.2-1.6,0.6-1.9,1c-0.6,0.6-0.7,0.8-0.8,3c-0.1,1.3-0.3,4.4-0.5,6.8s-0.5,7.1-0.8,10.5s-0.5,8.2-0.6,10.9
		c-0.1,2.6-0.2,4.9-0.3,5c-0.1,0.1-1.8,0.5-3.7,0.7c-2,0.3-5.4,0.9-7.7,1.3c-2.3,0.5-4.2,0.8-4.3,0.8c-0.1,0-0.2-4.2-0.3-9.3
		c-0.1-9.2-0.3-12.2-1-17.5c-0.4-3-0.8-4.1-1.8-4.9c-0.6-0.4-1-0.5-3-0.5c-3.6,0-4.4,0.7-5.3,4.5c-0.5,2.5-1.3,9.2-1.7,14.4
		c-0.4,6-0.6,29.3-0.3,35.6c0.5,9.8,1.4,15.9,2.5,18.2c1.1,2.2,3.1,3.3,6.4,3.5c2.9,0.2,5.8-0.8,5.8-2.1c0-0.2-0.2-0.8-0.4-1.2
		s-0.5-2.2-0.6-3.9c-0.3-4.1-0.8-22-0.7-26l0.1-3.2l2.1-0.8c1.9-0.7,10.5-2.9,12.8-3.3l0.9-0.2l-0.1,9c-0.3,16.7,0.6,29.4,2.2,31.7
		c1.1,1.5,6.5,2.2,9.1,1c0.7-0.3,1.4-0.7,1.6-1c0.6-0.6,0.7-3.3,1-17.6c0.1-6.5,0.3-14.8,0.4-18.5l0.2-6.7l1.2-0.4
		c2.7-0.8,3.3-2.1,1.4-3.2c-0.5-0.3-1.3-0.6-1.8-0.7l-0.8-0.1l0-11.9c0-15-0.5-21.1-1.7-23.4C183.1,10.6,179.2,9.7,176.3,10.5z"/>
	<path d="M383,79.2c-0.9,0.1-2,0.5-2.6,0.7c-1,0.5-1.2,0.8-2.1,2.5c-2.1,4.2-6.2,18-9,30.9c-0.1,0.5-0.1,0.5-6.5,0.4
		c-19.4-0.4-43.7,2.1-59.3,6c-6,1.5-9.6,3-10.8,4.4c-0.6,0.7-0.6,0.9-0.5,1.8c0.1,0.6,0.4,1.6,0.8,2.2c0.8,1.4,2.9,3.4,3.8,3.6
		c0.4,0.1,1.4-0.1,2.3-0.5c6.1-2.1,21.6-4.9,35.9-6.5c9.3-1,23-1.9,29.8-1.9h2.4l-0.7,3.5c-1.6,8.2-2.9,16.1-3.8,23.4
		c-0.4,3.1-0.8,4.9-2.4,10.4c-6,21-11.5,36.6-16.8,47.6c-1.6,3.4-4.1,7.7-4.4,7.7c-0.5,0-1.9-6.8-2.6-12.6
		c-0.5-3.7-0.5-13.1-0.3-29.8c0.1-7.2,0-8.3-0.3-10c-1.4-6.3-4.8-8.9-11.3-8.9c-4.7,0-7.1,1.2-11.4,5.5c-5,4.9-10.3,12.7-15.6,22.9
		l-2,3.8l0-15.2c0-12.1,0-15.4-0.3-16.2c-0.4-1.3-1.5-2.3-3-2.7c-2.4-0.7-6.5-0.1-7.5,0.9c-0.2,0.2-0.9,2.4-1.6,4.8
		c-2.4,8.8-7,21.8-10.5,30.1c-4.8,11.5-10.1,19.2-15.1,22.1c-0.9,0.5-1.3,0.3-2.1-1.4c-1.5-2.9-2.6-7.7-3.2-13.6
		c-0.4-4.1-0.4-12.9,0.1-16.7c0.4-3.1,1.3-8.1,1.8-10c0.3-1,0.3-1,2.6-1.4c2.9-0.4,6.8-1.6,9.4-2.9c6-3,9.4-7.7,9.1-12.7
		c-0.3-5.6-4.7-8.7-11.8-8.3c-4.6,0.3-8.8,2.2-12.2,5.8c-2.5,2.5-5.9,7.3-7.8,11.1c-0.4,0.8-0.8,1.5-0.8,1.5c0,0-1-0.1-2.1-0.3
		c-6.5-1.2-9.7-0.8-10.6,1.1c-0.2,0.3-1.1,3.3-2.1,6.5c-1,3.3-2.6,8.4-3.6,11.4c-3.9,12.3-4.9,15.6-8.2,28.5
		c-0.9,3.6-1.8,6.8-1.9,7.1c-0.1,0.4-0.4-0.2-1.2-2.7c-3.5-11.2-4.9-18.3-6.8-35.5c-1.4-12.4-2.4-18.1-3.6-20.5
		c-0.5-1-0.8-1.3-2-1.9c-1.2-0.6-1.6-0.7-3.5-0.7c-1.6,0-2.4,0.1-3.1,0.5c-1.1,0.6-1.4,1.1-1.8,3.6c-1.1,7.7-7.2,26.9-15.9,50.2
		c-3.4,9.1-5.8,14.4-7.7,17.3c-0.5,0.8-1,1.3-1.1,1.2c-0.4-0.2-2.1-5-2.9-8c-0.9-3.4-1.9-8.6-2.5-13.4l-0.5-3.4l1.4-3
		c3.9-8.4,8.1-19.4,12.6-33.1c4.5-13.6,6.2-22.4,5.9-29.6c-0.3-6.3-1.4-9.8-3.9-12.1c-1.3-1.2-2.6-1.7-4.9-2.1
		c-3.8-0.6-7.5,0.5-10.1,2.8c-3.8,3.4-8.1,12.6-11.5,24.6l-1.3,4.4l-0.9,0c-6.4-0.2-9.5,0.1-13,1.6c-2.7,1.1-4.6,2.4-6.8,4.7
		c-7.8,7.9-13.3,23.4-14,39.6c-0.1,3.4-0.2,3.8-1.4,8c-0.7,2.4-3.1,10.4-5.2,17.8c-2.2,7.4-4.6,15.7-5.5,18.5
		c-0.9,2.8-1.7,5.5-1.8,5.9l-0.2,0.8l-0.3-1.3c-0.4-1.9-1.2-7.3-1.6-11.7c-0.8-8-0.7-24.3,0.3-36.4c1.3-15.8,4.5-44.7,7.9-69.6
		c2-14.5,2.4-19.4,2.6-28.2c0.2-12.2-0.3-14.5-3.4-16c-1.4-0.7-1.6-0.7-4.5-0.7c-2.8,0-3.2,0.1-4.4,0.6c-1.7,0.8-2.9,2.3-4.9,5.8
		c-0.9,1.6-8.5,16.7-17,33.6c-8.5,16.9-15.6,30.7-15.8,30.8s-1.7,0.5-3.2,1c-7.6,2.3-15.3,6.1-22.9,11.2
		c-20.1,13.4-32.2,31.8-33.8,51.1c-0.6,8.2,1.2,15.1,4.9,19c2.7,2.7,5.9,3.8,10.7,3.8c6.7,0,10.6-2.2,16.5-9.6
		c4.9-6.1,10.3-16.2,20.9-38.9c1.3-2.8,5.1-10.7,8.3-17.6c3.3-6.9,6.2-12.9,6.4-13.5c0.4-1,0.5-1,2.6-1.5c4.1-1,6.1-1.3,10.9-1.4
		l4.8-0.1v0.6c0,0.3-0.4,3.4-0.8,6.9c-5.5,41.5-6,60.7-1.9,77.2c2,8.1,5.1,14.7,8.2,17.5c2.2,2,5.2,2.9,8.8,2.7
		c3.1-0.2,4.6-0.7,6.1-2.2c0.9-0.9,1.4-1.6,2-3.1c0.8-2.2,4.1-13.8,7.8-28.1c1.4-5.4,2.6-9.8,2.7-9.9s0.2,0.1,0.4,0.3
		c2.9,4.7,7,6.9,13.4,7.2c4.9,0.2,8.5-0.7,11.8-3.1c1.5-1,3.8-3.3,5-4.9l0.6-0.8l0.9,2c2.7,6.1,6.6,9.8,11.4,11
		c2.4,0.5,7.3,0.4,9.2-0.4c2-0.8,3.4-1.8,4.6-3.4c2.8-3.8,4.8-9.3,8.9-24.5c1.7-6.5,4-14.6,5.8-20.9l1.3-4.5l0,1.9
		c0.1,3.8,0.6,10.3,0.9,13.2c1.1,8.8,3.9,19,6.9,25.4c3.7,7.9,7.1,10.2,14.4,10c3.6-0.1,5.3-0.7,6.7-2.1c1.8-1.8,2.4-4.3,5.2-21.1
		c2-12,6.9-37.3,8.2-42c0.5-2,0.6-2.1,1.1-2.1c0.5,0,4.9,1.2,5.2,1.4c0,0-0.3,1.1-0.8,2.4c-2.6,7.6-3.7,15.9-3.2,23.2
		c1,14.1,5.5,21.8,13.9,23.8c2.4,0.6,7.7,0.4,9.8-0.3c2.4-0.8,4.4-2.1,6.8-4.4c4-3.9,7.1-9.4,11.3-20l1.6-4l0,6
		c0,11.4,0.9,21,2.4,25.6c0.5,1.5,1.5,2.7,2.6,3.3c1.2,0.6,3.6,1,5.9,1c3.8,0,6.6-1,7.3-2.7c0.2-0.5,0.3-1.9,0.3-4.6
		c0-6.9,1.3-13.9,4.1-22.3c3.4-10.3,8.3-20.2,13.3-26.9c1.9-2.6,6.3-7.1,6.7-7c0.5,0.2,0.6,1.1,0.6,3.6c0,2.5-0.1,4-1.5,14.6
		c-1.3,9.7-1.4,12.1-1.3,19.4c0.2,8.1,0.8,12.3,2.7,17.9c2.8,8.3,6.6,11.3,14.1,11.3c7.3,0,10.9-2.8,15.3-11.7
		c2-3.9,3.6-7.9,5.5-13.1l1.5-4.1l0.1,7c0.2,10,0.8,15.9,2,20.5c1.6,6.2,4.6,8.4,11.7,8.4c3.1,0,4.9-0.3,6.8-1.3
		c3.5-1.8,5.9-6.7,13.7-28.2c1.9-5.3,4-10.9,4.6-12.5l1.1-2.9l0.3,4.1c0.6,9.5,2.4,15.6,5.4,18.6c2.2,2.2,5.9,3.4,9.9,3.1
		c6.8-0.5,10.1-3.8,17.1-17.4l2-3.8v8.3c0,6.5,0.1,9.1,0.4,11.7c1.1,8.9,3.2,13.2,7.3,15.1c2.4,1.1,5.1,1.6,8,1.4
		c5.7-0.3,9.2-2.3,12.9-7.1c4.9-6.5,12.7-22.1,18.6-37.3c4-10.2,7.7-22.6,9.2-30.3c0.2-1.2,0.5-2.3,0.5-2.4c0.1-0.2,0.6,0,1.5,0.8
		c1,0.8,1.5,1.4,2.1,2.6c0.8,1.5,0.8,1.6,0.6,4.2c-0.1,2.9,0,2.3-3.8,15.6c-4.6,15.8-6.3,24.3-6.3,30.6c0,4.6,0.6,6.5,2.6,8.7
		c1.4,1.5,3,2.4,5.6,3.2c2,0.6,2.4,0.7,6.2,0.7c2.8,0,4.5-0.1,5.6-0.4l1.6-0.4l0.5,2.6c1.4,7.1,4.4,12.9,8.6,17
		c2.1,2.1,3.8,3.1,6.6,4c1.1,0.3,2.2,0.4,5.6,0.4c4.1,0,4.2,0,6.5-0.8c4.8-1.7,9.2-4.7,14.8-10.3c3.9-3.9,7.1-7.8,9.3-11.6
		c1.6-2.6,3.6-6.9,4.4-9.3c0.6-1.7,0.6-1.9,0.2-2.4c-0.7-1.1-1.7-1.4-4.6-1.4c-4.2,0-4.1,0-7.7,5.3c-3.7,5.5-6.2,8.7-10.1,12.7
		c-4.7,4.8-10.5,9.7-11.3,9.4c-0.4-0.2-2.5-4.6-3.3-6.8c-1.3-3.9-2.3-10.3-2.3-14.4v-2.2l3-1.9c6.2-3.7,9.9-6.6,14.4-11
		c10.1-9.8,16.5-21.6,17.5-32.2c0.7-6.5-0.6-13.4-3.1-16.1c-2.1-2.4-6.9-3.7-11.8-3.2c-8.5,0.9-15.6,6-22.6,16.4
		c-8.8,12.9-14.2,29.2-15.1,45.6l-0.1,2.6l-1.8,0.6c-1,0.4-2,0.6-2.1,0.6c-1,0-1-7,0-13.7c0.4-2.2,1.6-8.8,2.8-14.6
		c3-14.9,3.5-17.9,3.7-20.6c0.5-7.6-3.1-11.9-13.6-16.9l-2.9-1.4l-0.1-4.3c-0.2-6.4-1.1-10.6-3.3-15.1c-1-2.1-1.6-2.8-3.2-4.4
		c-3.3-3.3-6.3-4.4-11.9-4.4c-4.7,0-8.1,1-11.5,3.2c-3.3,2.2-4.9,4.9-4.9,8.3c0,3.4,1.3,6.3,4.5,9.4c3.4,3.4,8.9,6.6,16.9,9.8
		c4,1.6,3.7,1.3,3.1,4.4c-3.1,16.3-11,35.6-22.3,54.7c-1.9,3.2-6,9.4-7.1,10.8l-0.6,0.7l-0.3-1.9c-1.1-7.4-1.5-19.3-1-28
		c0.5-8.5,1.4-14.7,3.6-25.6c1.4-6.9,1.7-9.1,1.2-10c-0.5-0.9-2.1-1.5-4.5-1.6c-4.8-0.2-5.3,0.3-8.2,7.4
		c-2.2,5.5-11.8,24.4-16.5,32.3c-3.4,5.8-7.7,12.3-9.4,14.4l-0.8,1l-0.4-1.7c-1.1-5-1.6-10.2-1.8-18.9c-0.2-10.7,0.3-16.9,2-26.9
		c1-5.9,1-6.5-0.1-7.3c-1.8-1.2-5.3-1.3-7.4-0.2c-1.4,0.7-1.8,1.5-3.5,6.3c-1.4,3.9-2.3,5.9-8.5,18.8c-2.2,4.5-6.1,12.9-8.8,18.7
		c-2.7,5.8-5.9,12.7-7.2,15.3l-2.3,4.9l-0.2-1.5c-0.3-2.4-0.3-33.7,0-41.1c0.5-10.3,1.2-19.7,2.2-28.8c0.6-5.1,2.6-19.3,2.8-19.5
		c0-0.1,1.9,0,4,0.2c10.8,0.8,21,2.5,32.1,5.3c3.5,0.9,4.2,0.9,4.5,0.1c0.5-1.2-1.2-4.5-3.1-5.8c-0.4-0.3-2-0.9-3.4-1.4
		c-10.4-3.2-19.1-5.2-28.5-6.4c-4.1-0.5-4.1-0.5-4-1.1c0.2-1.7,2.2-12.4,3.5-19.3c2.3-11.6,2.5-13.2,2.4-13.8
		c-0.2-0.8-1.8-1.7-3.2-1.9C385,79,384.5,79,383,79.2z M93.3,120.3c-0.9,5-2.2,12.4-2.9,16.5c-0.7,4-1.8,10.2-2.3,13.7
		c-0.5,3.5-1,6.3-1,6.4c0,0-1.2,0-2.6-0.2c-1.4-0.2-4.8-0.2-7.5-0.2l-4.9,0.1l1-2.1c5.3-11.3,21.6-44,21.7-43.5
		C94.8,111.1,94.1,115.3,93.3,120.3z M476.4,123.3c2.4,2,4.4,5.8,5.5,10c0.6,2.1,1.1,6.2,0.9,6.4c-0.2,0.2-2.2-1.1-4.4-2.7
		c-5.9-4.4-8-10.3-4.8-13.8c0.5-0.6,1.1-1,1.2-1C475,122.2,475.7,122.7,476.4,123.3z M171.5,133.1c0.6,3,0.6,9.8-0.1,13.9
		c-0.8,4.4-2.4,11-4.1,16c-1.5,4.5-4.9,13.7-5.7,15.6l-0.5,1.1l0.1-3.1c0.7-16.6,4.2-34.5,8.6-44.1c0.6-1.3,1-1.8,1.1-1.6
		C171,131,171.3,132,171.5,133.1z M265.8,147.6c0.6,0.7,1.1,2.1,1.1,3.2c0,4-4,8.3-9.6,10.3c-0.9,0.3-0.9,0.3-0.7-0.2
		c0.7-2.4,3.5-8.1,4.9-10.2c1.2-1.7,3.1-3.5,3.8-3.6C265.4,147.2,265.6,147.3,265.8,147.6z M546.9,156.9c0.5,1.7,0.5,2.5,0.5,6
		c0,3.4-0.1,4.4-0.5,6.3c-2,7.9-6.6,16.3-13.3,23.7c-1.1,1.3-2.8,2.9-3.6,3.7c-2.1,1.8-4.6,3.8-4.8,3.8c-0.3,0,1.1-7.4,2.2-11.6
		c3.6-13.4,10-26.2,16.5-33.1c1.9-2,1.9-2,2.2-1.4C546.2,154.6,546.6,155.8,546.9,156.9z M148.2,160.3c0.4,0.2,0.6,0.4,0.5,0.7
		c-0.3,1-1.6,9.1-2,13c-1.3,11-1.4,22.7-0.2,32.4l0.3,2.4l-2,2.9c-2.2,3.3-6,8.1-7.7,9.7l-1.1,1l-0.5-1.4c-0.7-2-1.6-5.7-2.1-9
		c-0.6-3.9-0.5-13.7,0-18.9c1.5-13.2,5.8-25.4,10.9-30.9c1.2-1.3,2.4-2.2,2.9-2.2C147.4,160,147.8,160.1,148.2,160.3z M54.6,170.5
		c0,0.1-15.3,31.1-18.2,36.9c-4.1,8.1-7.4,14.1-10,18.2c-3,4.7-8.3,11.1-8.8,10.6c-0.9-0.9-1.5-6.8-1.2-11.2
		c1.5-20.4,14.4-39.7,35.2-52.9C54,170.6,54.6,170.3,54.6,170.5z"/>
	<path d="M232.4,257.6c-7.7,0.8-11.4,2.4-13.3,5.7c-2.4,4.2-3.4,21.1-2.4,41.3c1.2,23.4,1.8,31,2.9,37.7c1.2,7.3,1.4,7.8,3.4,8.8
		c1.8,0.9,3.5,1.2,6.8,1c3.5-0.1,3.7-0.2,16.3-3.9c9.9-2.9,10.3-3,11.2-3.8c0.8-0.7,0.9-1,0.3-1.8c-1.6-2-7.7-1.8-18.8,0.6
		c-2.1,0.5-3.9,0.8-4,0.7c-0.2-0.2-0.7-8.6-0.9-15.2c-0.1-3.7-0.4-10.7-0.6-15.7c-0.2-5-0.4-9.1-0.3-9.1c0,0,2.4-0.4,5.4-0.8
		c10-1.3,12.8-1.9,13.1-3.1c0.2-0.6-0.3-1.1-1.3-1.6c-1.3-0.5-7.5-0.4-15.1,0.4c-1.2,0.1-2.2,0.1-2.3,0c-0.3-0.3-0.3-16.5,0-21.2
		c0.2-2.3,0.5-5.5,0.6-7c0.4-2.8,1.1-5.9,1.5-6.2c0.6-0.4,5.6-0.9,11.3-1.1c6.5-0.2,8.2-0.5,9.6-1.4c0.8-0.5,0.6-1.5-0.3-2
		c-1.9-1.1-10.5-2.3-17.3-2.4C235.4,257.6,232.9,257.6,232.4,257.6z M170.1,259.4c-5.6,0.9-11,3.4-13.7,6.3c-2.8,3-2.9,3.7-2.8,14.4
		c0.1,8.4,0.6,17.9,2.2,44.1c1.6,27.3,2.2,32.5,3.5,33.8c0.3,0.3,1.3,0.8,2.4,1.1c3.9,1.1,12.5,0.6,23.9-1.4
		c8.5-1.4,12.4-2.6,16.2-4.9c6.2-3.7,9.7-9.3,10.1-16.4c0.3-5.4-1.2-10.7-4.4-15.5c-1.5-2.3-5.5-6.1-8.2-7.9
		c-4-2.6-9.1-4.8-13.6-5.8c-1-0.2-2.1-0.4-2.4-0.5c-0.5-0.1,0.2-0.5,3-1.9c5.6-2.8,9.2-5.4,12.3-9c3.5-4,4.7-8.2,3.8-13.2
		c-1.6-9.5-7.9-18-15.7-21.3c-3.7-1.6-6.3-2.1-11.1-2.2C173.3,259.2,170.9,259.3,170.1,259.4z M177.2,265.2
		c5.4,1.4,10.1,7.1,11.4,13.9c0.6,2.8,0.4,7.2-0.3,9.1c-1.2,3-4.8,7-8.7,9.6c-1.1,0.7-3.8,2.3-6,3.5c-2.2,1.2-4.2,2.3-4.3,2.4
		c-0.2,0.2-0.3-0.1-0.3-1.5c-0.1-9-0.5-26.1-0.7-28.5c-0.1-1.6-0.2-3.4-0.1-3.9c0.3-1.6,2.5-3.5,5-4.4
		C174.6,264.8,175.4,264.8,177.2,265.2z M180,312.4c4,1.1,8.6,3.7,11.5,6.6c7.1,7.1,8.3,17.9,2.8,25.4c-2.2,3.1-5.4,4.9-10,5.9
		c-4.7,1-16.7,2.9-16.9,2.7c0-0.1,0-1.5,0.2-3.1c0.8-7.1,1.3-18.1,1.3-30.1V312l1.3-0.1C173.2,311.6,178.1,311.9,180,312.4z
		 M282.3,259.9c-6.7,0.8-11.3,4.6-15.2,12.7c-1.5,3-3.2,8-3.9,11.3c-1.8,8.3-2.4,19.1-1.5,26.4c0.8,6.4,3.5,16,6.6,23.5
		c3.6,8.7,8.8,15.3,14,17.9c2.7,1.3,4.2,1.6,7.6,1.6c5.4,0,8.1-1.4,9.9-5.1c1.8-3.6,3.7-13.2,5.3-26c0.4-2.8,1-7.2,1.4-9.8
		c0.7-4.8,0.8-6.3,0.1-7.6c-1.3-2.6-7-4.1-15.3-4.1c-4.6,0-6.2,0.2-7.9,1.1c-1.2,0.7-1.6,1.4-1.1,2.2c0.7,1.1,2.1,1.5,7.2,2
		c6.6,0.7,6.8,0.7,7.2,1.5c1.6,3.2-2.2,25-6.2,36.1c-0.3,0.8-0.6,1.3-0.7,1.2c-0.5-0.3-3.2-4.7-4.4-7.1c-3-6.3-6.2-16.7-7.5-24.6
		c-1.8-11-0.6-26.1,2.7-36.2c1.6-4.7,3.9-9.5,5.4-10.7c0.7-0.7,1.4-0.3,3.7,2.1c1.2,1.2,2.4,2.3,2.7,2.5c0.7,0.3,3.2,0.3,4,0
		c0.8-0.4,0.9-1,0.5-2.9c-1.1-4.9-4.9-7.7-11.1-8C284.8,259.7,283.2,259.8,282.3,259.9z M420.2,260c-2.2,0.4-3.2,0.8-5.1,1.7
		c-6.4,3.2-10.2,11.1-8.9,18.5c0.5,3,1.5,5.7,3.9,10.7c2.5,5.1,3.9,7.6,8.7,15.3c2,3.2,4.3,7.1,5.2,8.7c2.8,5,5.1,11.1,6,15.9
		c0.6,3,0.6,9.9,0,12.7c-0.7,3.5-2.1,7.2-3.4,9.2l-0.3,0.5l-1.6-0.8c-0.9-0.5-2.5-1.5-3.5-2.4c-3.3-2.6-5.1-5.4-6-9.3
		c-0.3-1.2-0.7-2.4-1-2.7c-1.6-1.8-7.9-1.5-9,0.5c-0.5,0.9-0.2,6.5,0.4,8.1c1.8,4.8,7.7,9.8,14,12c2.8,0.9,5.1,1.3,8.3,1.3
		c4.6,0,7.3-0.9,9.7-3.1c4.6-4.2,7.3-15.2,6-24.7c-1.1-8.5-3.8-15.3-10.8-27.3c-4.4-7.7-6-10.7-8-15.1c-2.9-6.5-3.6-9.3-3.4-13.3
		c0.1-1.8,0.3-2.9,0.8-4.2c0.7-2,1.9-4.1,2.8-4.9l0.6-0.5l1.5,1.1c2.8,2.1,4.9,4.9,6.7,8.9c2,4.4,2.2,4.6,3.3,5.2
		c1.9,1,5.2,0.6,6-0.7c0.6-0.9,0.7-4.2,0.3-6.8c-0.3-1.7-0.7-2.9-1.6-4.7c-1-2.1-1.5-2.8-3.4-4.7c-1.9-1.9-2.5-2.4-4.4-3.3
		c-1.2-0.6-2.9-1.3-3.8-1.5C428,259.7,422.4,259.5,420.2,260z M387.7,261.1c-2.2,0.5-3.3,1.7-3.8,3.9c-1.3,5-3.5,32.1-4.6,56.4
		l-0.2,3.8l-1.5-3.7c-5.8-14-7.3-17.4-9.7-22.8c-3.3-7.3-8-17-9.9-20.5c-4.1-7.5-6.4-9.3-11.8-9.3c-4.2,0-6.7,1.4-7.4,4
		c-0.8,2.7-2.4,15.8-3,24.4c-0.4,5.2-0.4,21.5,0,27.2c1,14.6,2.2,22.4,3.9,24c0.8,0.8,2.2,1.1,3.9,0.9c2.6-0.3,3.1-1.6,4-9.2
		c0.7-5.6,2.5-33.5,2.9-44.5c0.1-2.2,0.2-3.9,0.3-3.8c0.3,0.3,4.4,10.4,8.3,20.3c6.6,16.7,8.3,20.7,12.2,28.4
		c3.1,6.1,5.1,9.5,6.3,10.8c1.7,1.7,4.5,2.6,7.9,2.4c4-0.3,6-1.4,6.7-3.9c0.7-2.7,1-7.1,1.5-21.1c0.2-6.3,0.6-16.7,0.8-23.2
		c1-26.7,1.3-37.8,0.9-41.2c-0.2-1.9-0.8-2.6-2.3-3C391.8,260.9,388.8,260.8,387.7,261.1z M315.8,265.1c-0.5,0.3-1.2,0.7-1.4,1
		c-1.2,1.9-2.8,17.6-3.5,34.9c-0.3,7.7-0.1,33.1,0.2,38.9c0.5,6.8,0.8,7.8,3.1,8.9c1.3,0.6,1.6,0.6,4.4,0.6c2.7,0,3.2-0.1,4.4-0.6
		c2.4-1.1,2.7-1.9,3.2-8.2c0.5-6.3,0.4-35.4-0.1-45c-1.2-23.5-2-28.8-4.3-30.4C320.8,264.5,317.2,264.4,315.8,265.1z"/>
</g>
</svg>
