<?xml version="1.0" encoding="utf-8"?>
<!-- Generator: Adobe Illustrator 27.0.0, SVG Export Plug-In . SVG Version: 6.00 Build 0)  -->
<svg version="1.1" id="Layer_1" xmlns="http://www.w3.org/2000/svg" xmlns:xlink="http://www.w3.org/1999/xlink" x="0px" y="0px"
	 viewBox="0 0 563.9 360" style="enable-background:new 0 0 563.9 360;" xml:space="preserve">
<path transform="translate(0.000000,2500.000000) scale(0.100000,-0.100000)" d="M1438.8,24999.1c-46.1-3.6-125.6-16.4-235-38
	c-146.5-28.8-279.9-58.7-319.1-71.3c-23.5-7.6-45.9-19.3-49-25.4c-6.9-12.6,7.8-23.1,33.1-23.1c7.4,0,38.8,5.5,69.4,11.9
	c89.2,19.3,192.4,40.4,196,40.4c2.6,0,2.9-2.4,1-11.2c-3.1-17.1-13.1-99.6-19-160c-5-49.9-5.5-64-5.5-211.7
	c0.2-159.6,2.4-217.4,9.8-268.7c5.2-35.7,7.4-42.8,16.9-51.6c11.7-11.2,29.5-15.7,56.4-14.5c27.8,1.2,43,7.8,50.2,22.1
	c4.5,9,4.8,15.2,5.5,152.2c1,163.6-1.4,238.3-11.4,376.9c-7.1,97.3-11.9,146-16.9,170.8c-1.4,7.1-2.1,13.1-1.7,13.6
	c2.4,2.4,207.6,42.1,245.2,47.6c53,7.6,68,14.3,61.1,27.3C1519.9,24996.7,1481.7,25002.4,1438.8,24999.1z M2110.2,24942.2
	c-68.5-5.5-97.3-11.7-115.6-25c-13.3-9.5-17.6-18.8-18.8-41.4c-1.7-25,3.1-192.9,7.6-269c5.2-93.9,8.1-172.7,11.9-323.4
	c4.5-182.9,5.9-196,22.8-208.8c20.5-15.2,54.5-18.8,120.1-12.6c42.8,4,186,15,225.7,17.1c36.6,2.1,58.3,10.5,58.3,22.4
	c0,8.6-16.9,19-39.2,24c-16.6,3.8-143.4,3.8-206.9,0c-20.9-1.2-38.3-1.9-38.5-1.7s-2.1,57.1-4.3,126.3
	c-2.1,69.4-4.5,148.9-5.5,176.7c-1.4,43.8-1.2,50.7,1.9,51.4c1.9,0.7,49,1.9,104.6,2.6c93.9,1.7,101.8,2.1,112.5,6.4
	c10.9,4.8,16.2,12.4,12.4,18.5c-2.4,3.8-15.2,9.8-28.5,13.6c-18.8,5-92.3,8.3-151.5,6.7l-53.7-1.7l-1.4,17.4
	c-4.8,60.4-10.2,324.9-6.9,329.1c2.4,3.1,101.3,14.5,155.3,17.8c83.9,5.2,125.3,16.6,120.3,32.6c-3.8,12.4-22.1,15.9-104.6,20.9
	C2218.6,24946.5,2165.1,24946.5,2110.2,24942.2z M1763.5,24894.7c-7.1-2.1-15.9-6.4-19.3-9.8c-5.9-5.7-6.7-8.3-8.1-30.2
	c-0.7-13.3-3.1-44-5-68.3c-1.9-24.3-5.5-71.3-8.1-104.6c-2.6-33.3-5.5-82.3-6.4-108.7c-0.7-26.4-2.1-49.2-2.9-50.4
	c-1-1.4-17.6-4.8-37.1-7.4c-19.7-2.9-54.2-8.8-76.8-13.3c-22.8-4.5-42.1-8.1-43.3-8.1c-1,0-2.4,42.1-3.1,93.5
	c-1.4,92.3-3.1,122.2-10.2,175.3c-4,30-8.1,41.1-18.3,48.5c-5.7,4.3-10.2,5-29.7,5c-36.1,0-44.2-6.9-52.8-45.4
	c-5.5-25-13.3-92-16.6-143.6c-4.3-60.4-5.9-293.2-2.6-355.5c5-98.5,13.6-158.6,25.2-181.9c11.2-22.1,30.7-32.6,64.4-35
	c29.5-2.1,58,8.1,58,20.9c0,2.1-1.7,7.8-3.6,12.4c-1.9,4.5-4.5,22.1-5.7,39c-3.1,40.7-7.8,219.5-6.9,259.9l0.7,32.1l21.4,7.6
	c19.3,6.7,105.4,29,127.7,32.8l8.8,1.7l-1.4-89.9c-2.6-166.9,6.2-294.4,21.9-316.5c10.9-15.5,64.9-21.6,90.8-10.5
	c6.7,3.1,14,7.4,16.4,10c5.7,6.4,7.1,33.1,10.2,175.7c1.4,64.7,3.3,147.7,4,184.5l1.7,66.8l12.4,4c26.6,8.3,32.6,21.4,14.3,31.6
	c-5.2,2.9-13.1,5.9-17.8,6.7l-8.3,1.4l-0.2,119.4c-0.2,150.3-4.8,211.4-17.1,233.5C1830.8,24894.4,1792.5,24902.7,1763.5,24894.7z
	 M3830.3,24208.3c-8.6-1-20.2-4.5-26.2-7.4c-9.5-5-12.1-8.1-20.7-25.2c-21.2-41.9-61.6-180-90.1-308.7c-1.2-5-1.4-5-64.7-3.8
	c-194.3,3.6-436.6-21.2-592.9-60.2c-59.9-15-95.8-29.7-108.2-44.2c-5.7-6.9-6.2-9.3-5-18.3c0.7-5.7,4.3-15.9,7.8-22.4
	c7.6-14,28.8-34,37.8-35.9c3.6-0.7,13.6,1.4,23.3,4.5c61.4,20.9,216.4,49,359.3,64.9c93.2,10.5,229.7,19.3,297.5,19.3h24l-6.9-35
	c-15.7-82-28.5-160.8-37.6-233.8c-3.8-31.4-7.6-48.5-23.5-103.9c-60.2-209.5-115.1-365.8-167.9-475.6c-16.4-34-40.7-76.8-43.8-76.8
	c-4.5,0-18.5,68-25.7,126c-4.5,37.1-5.5,130.8-3.1,298.5c1,71.6,0.5,83-3.1,99.9c-14.3,62.8-47.8,89.2-113.2,89.2
	c-47.1-0.2-71.1-11.7-114.4-54.7c-49.7-49.2-102.7-127.5-156-229.3l-20-38.3l0.2,152.2c0.5,121-0.2,154.3-2.6,162.4
	c-3.8,12.6-15.2,22.6-30.4,26.9c-23.5,6.7-65.4,1.4-74.9-9.3c-1.9-2.1-9-23.8-15.9-48c-24.5-88-69.9-218.1-104.9-301.1
	c-48.3-114.9-101.3-192.4-151.2-220.9c-9.3-5.5-12.6-3.3-21.4,14c-14.5,28.5-25.7,76.6-31.9,135.8c-4.3,40.9-3.8,128.7,1,166.7
	c3.8,30.7,12.8,80.6,18.1,100.1c2.9,10.5,2.9,10.5,26.4,13.8c28.8,4,68.3,16.4,93.9,29.2c60.4,30,93.9,76.6,91.1,126.5
	c-3.3,56.4-47.1,86.8-118.4,82.5c-46.4-2.9-87.8-22.1-122.5-57.6c-25-25.4-58.7-73.5-77.5-111.1c-4-8.3-7.6-15.2-7.8-15.5
	c-0.2-0.5-9.5,1-20.7,2.9c-64.9,11.7-96.6,8.3-106.1-10.9c-1.7-3.3-10.9-32.6-20.9-65.2c-10-32.8-25.9-83.9-35.7-114.2
	c-39.5-123.4-49-156-81.8-284.7c-9.3-36.1-17.8-68.3-18.8-70.9c-1.4-4-4,1.7-11.9,26.6c-35,111.8-48.8,183.1-68.3,355.1
	c-14.3,124.1-24,181-35.9,205c-5,10.5-7.8,13.3-19.5,19c-11.9,5.7-16.2,6.7-35,6.7c-16.4,0-23.5-1.2-30.9-4.8
	c-11.4-5.7-14.3-11.2-17.8-35.7c-11.4-76.8-72.3-268.7-158.6-501.8c-33.8-90.6-57.6-144.1-77.3-173.1c-5-7.6-10.2-13.1-11.4-12.4
	c-3.6,2.1-21.2,50.2-29.5,80.1c-9.3,33.8-19,85.6-25.2,133.7l-4.5,33.5l14,29.7c39,84.4,80.9,194.1,125.6,330.6
	c44.7,136,62.1,223.5,59,296.1c-2.6,62.5-14.3,98.2-39.5,121c-13.1,11.9-26.2,17.4-48.5,20.7c-37.8,5.7-75.1-4.5-101.1-27.8
	c-37.8-34-81.3-126.3-115.3-245.7l-12.8-44.2l-9,0.5c-64,2.4-95.1-1.4-129.8-15.9c-26.6-10.9-45.7-24-68.5-47.3
	c-78.2-78.7-132.9-234.2-139.6-396.2c-1.4-34.2-1.9-37.6-14.3-79.7c-7.1-24.3-30.7-104.4-52.1-178.4c-21.6-74-46.4-157.4-54.9-185.5
	c-8.6-28.1-16.6-54.9-18.1-59.5l-2.4-8.3l-3.1,13.1c-4.3,18.5-12.1,73.2-16.4,116.5c-8.3,79.9-7.1,243,2.6,363.9
	c12.6,158.1,45.4,446.8,79.2,695.6c19.7,144.6,24,194.1,25.7,282c2.1,121.8-2.6,144.8-33.8,160.3c-13.6,6.9-15.7,7.1-45.2,7.1
	c-27.6,0-32.3-0.7-43.5-5.7c-17.1-7.6-29.5-22.6-48.5-57.6c-8.6-16.2-84.9-167.4-169.6-336.3c-84.7-168.6-155.8-307.5-157.9-308.4
	s-16.6-5.5-32.3-10.2c-76.1-23.3-152.7-60.6-229.5-111.8c-200.7-134.1-322.5-318-337.7-510.6c-6.4-81.8,11.7-151.2,49.5-189.5
	c26.6-26.9,58.5-38.3,107.5-38.3c67.3,0,105.6,22.4,165,96.3c48.8,60.6,103.4,162.2,208.8,388.8c13.1,28.1,50.7,107.3,83.2,176
	c32.8,68.7,61.6,129.1,64,134.6c4.3,9.5,4.8,9.8,25.7,15c41.1,10,60.9,12.6,109.2,13.8l48,1.4v-5.7c0-3.1-3.8-34-8.3-68.7
	c-55.2-415.2-59.9-606.7-18.8-772.4c20-80.6,50.9-147,81.6-174.8c21.9-19.7,52.1-29,88.2-27.1c31.2,1.7,45.9,6.9,60.9,21.9
	c9.3,9.3,13.8,16.4,19.5,30.9c8.3,21.6,40.7,138.2,78,280.6c14,53.7,26.2,98,26.6,98.7c0.5,0.7,2.1-0.7,3.8-3.3
	c28.5-47.1,70.2-69.4,133.7-72.1c49-2.1,85.4,7.4,118,30.9c14.5,10.5,37.6,32.8,49.7,48.8l5.9,7.8l9.3-20.5
	c27.1-60.9,66.1-98.2,114.4-109.6c23.8-5.5,73.2-3.8,91.6,3.6c20.2,7.8,34.2,18.1,46.4,34.2c28.3,37.6,48.3,93.2,88.9,245.4
	c17.4,64.7,39.7,146.5,57.6,209.3l12.6,45.2l0.5-19c1.2-37.6,5.7-102.7,9.3-132c10.9-87.8,38.5-189.5,69-254
	c37.3-79,70.6-102.3,143.6-99.9c35.7,1.4,52.6,6.7,66.8,21.4c17.6,18.3,23.5,42.6,52.1,211.4c20.5,120.1,69.4,372.9,81.6,419.5
	c5,19.7,5.9,21.4,11.2,21.2c4.8-0.2,49.5-12.4,51.6-13.8c0.2-0.2-3.1-11.2-7.6-24.5c-25.9-76.1-37.3-158.9-32.1-232.3
	c10-140.5,55.4-217.8,139.4-238c24-5.7,76.6-4,98.5,3.1c24.3,8.1,44.5,21.2,68,44.5c39.7,39.5,70.6,94.4,113,199.8l16.2,40.4
	l0.2-60.2c0-114.2,9-210,24-256.4c4.8-15,14.5-27.1,26.2-33.3c11.9-6.2,36.4-10.5,59.2-10.5c37.8,0,65.6,10.2,72.5,27.1
	c2.4,5.5,3.3,19.3,3.3,45.7c0.2,69.2,13.1,138.9,40.9,222.8c34.2,103,83.2,202.1,132.7,269.2c19.3,26.2,62.8,71.1,67.3,69.7
	c4.5-1.7,6.2-10.7,6.4-36.4c0.2-25-1.4-40.2-15-146.3c-12.6-97.3-14-120.8-12.6-193.6c1.7-81.1,7.8-122.7,26.6-178.8
	c27.6-82.8,66.1-113.4,141.5-113.4c72.8,0.2,108.7,27.6,153.2,116.5c19.5,39,36.4,79.2,54.9,131l14.7,41.1l1.4-69.7
	c2.1-100.1,7.8-158.9,19.5-205.5c15.7-62.3,46.1-84.2,116.5-84.2c31.2,0,48.5,3.3,67.5,12.8c35.2,17.8,59,66.8,137.2,282
	c19,53,40,109.4,45.9,125.3l11.2,29l2.9-40.9c6.4-94.9,24-155.5,54-186c21.9-22.4,59-34,98.9-31.2c68.3,4.8,100.6,37.6,171.5,174.1
	l19.7,38.3v-83.5c0-64.7,1-91.1,4.3-116.8c10.9-88.7,31.9-132,72.5-150.5c23.5-10.9,51.1-15.7,80.1-14
	c57.1,3.3,92.3,22.6,129.4,71.3c49.2,64.7,127.2,221.4,185.7,372.7c39.7,102.5,76.8,225.7,91.8,303.2c2.1,11.9,4.8,22.8,5.5,24.3
	c1.2,2.1,5.7-0.2,15-7.6c10-7.8,15.2-14.3,20.9-25.9c7.6-15.5,7.6-15.9,6.4-42.3c-1.2-29,0.2-22.6-38.3-156.5
	c-45.9-158.1-63.3-242.8-63.3-306.3c0-46.4,5.7-65.2,25.7-86.6c13.8-14.7,29.7-23.8,56.4-31.9c19.7-6.2,24.5-6.7,61.8-6.7
	c27.6,0,45.4,1.2,55.9,3.8l15.7,3.6l5.5-26.4c14.3-70.9,43.5-128.9,85.6-170.3c21.4-21.2,37.6-30.9,65.9-39.7
	c11.4-3.3,21.9-4.3,55.6-4.3c41.1,0,41.9,0,64.9,8.1c47.8,16.6,91.8,47.3,147.9,103.4c39.5,39.5,70.6,78.2,93.5,116.1
	c15.9,26.2,36.1,69,44.5,93c5.7,17.4,5.9,19,2.4,24.5c-7.4,11.2-16.6,14-46.4,14c-41.9,0-41.4,0.5-77.1-53.3
	c-36.6-54.7-62.3-87.3-101.1-127c-46.6-48-105.4-96.6-113-93.7c-4.3,1.7-25.4,45.7-33.1,68.5c-12.8,38.8-23.1,102.7-23.1,143.9v21.9
	l30.4,18.5c61.6,37.3,99.2,66.1,143.9,110.1c100.6,98.5,164.6,216.2,175.3,322.5c6.7,64.7-6.4,133.7-30.9,161.2
	c-21.4,24.3-68.7,37.3-118.2,32.3c-84.9-8.6-156-59.9-226.4-163.9c-87.8-129.1-142-292.3-151.5-455.6l-1.4-26.2l-18.1-6.4
	c-10.2-3.6-19.5-6.4-21.2-6.4c-10.2,0-10,70.4,0.2,136.7c3.6,22.4,15.9,88,27.8,146.3c30.2,149.1,35.4,178.6,37.1,205.9
	c4.5,75.6-31.2,119.4-136.3,168.6l-29,13.6l-1.2,43.3c-1.7,64-10.9,106.3-33.1,151.2c-10.2,20.7-15.7,28.3-31.6,44.2
	c-32.6,33.1-62.8,44.5-118.9,44.2c-47.3,0-81.1-9.5-114.9-32.1c-32.8-22.4-48.5-48.5-48.8-82.5c-0.2-34,13.3-62.5,44.7-93.9
	c33.5-33.8,88.7-65.6,168.6-97.5c39.7-15.7,37.3-12.6,31.4-44c-31.4-162.7-110.1-356-223.3-547c-18.8-31.6-60.2-94.4-71.3-108
	l-5.7-7.1l-2.9,19c-10.7,74.4-14.7,193.3-9.8,280.4c5,84.7,13.6,146.7,35.7,255.9c14,69.4,16.6,90.8,11.9,99.9
	c-5,9.3-20.9,15-45.2,15.9c-47.6,2.1-53-2.9-81.8-73.7c-22.4-55.4-118.2-243.8-164.6-323.2c-33.8-58-76.6-123.4-94.4-143.6l-8.1-9.5
	l-3.8,16.6c-11.4,49.9-16.2,102-17.6,189.1c-1.9,107.3,2.6,168.8,19.7,269c10,58.7,10,65.4-1,72.8c-17.6,11.7-53.3,12.8-74.2,2.4
	c-13.6-6.7-18.3-15.2-35-63c-13.6-39.2-22.6-59.2-85.1-188.3c-21.9-45.2-61.4-129.1-88-186.9c-26.6-57.8-59-126.8-71.8-153.2
	l-23.3-48.5l-2.1,15.2c-3.3,24-2.9,336.5,0.5,411.4c4.8,103.2,11.9,196.7,21.9,287.8c5.7,50.7,25.7,193.1,27.6,194.8
	c0.5,0.7,18.5-0.2,39.7-1.7c108.4-8.3,209.5-25,320.8-53c34.7-8.6,41.6-8.8,44.9-1.2c5.5,11.9-12.4,45.4-31.2,57.8
	c-4.3,3.1-19.7,9.3-34.2,13.8c-103.7,32.1-190.7,51.8-285.1,64c-40.9,5.2-40.9,5.2-40.2,10.9c2.1,16.9,21.6,123.9,35.2,193.1
	c22.8,116.3,25.4,132,23.8,138.4c-1.9,7.6-18.3,17.4-32.3,19.3C3849.6,24210.2,3845.3,24210.2,3830.3,24208.3z M932.5,23796.9
	c-8.6-50.2-21.6-124.4-28.8-165c-7.1-40.4-17.6-102-22.8-136.7c-5.5-34.7-10-63.3-10.5-63.7c-0.2-0.5-12.1,0.5-26.4,1.9
	c-14.3,1.7-48,2.4-74.9,1.9l-49-0.7l10,21.4c52.6,113,215.9,440.4,217.1,435.4C947.8,23889.4,941.1,23847.1,932.5,23796.9z
	 M4763.9,23767.4c23.5-20.5,44.5-58.3,55.2-99.9c5.7-20.9,11.4-62.1,9.3-64.2c-1.9-1.9-22.4,10.7-44,26.6
	c-59.2,44.2-79.7,103.2-47.8,137.7c5.2,5.7,10.9,10.5,12.4,10.5S4757.3,23773.4,4763.9,23767.4z M1715.2,23668.7
	c6.4-29.7,5.7-97.5-1.2-139.1c-7.6-44.2-24.3-110.1-40.7-159.6c-14.7-44.9-48.8-137.5-57.1-155.5l-5-10.7l1.2,30.9
	c7.1,166.2,41.9,344.6,85.9,441.4c5.9,12.6,9.5,18.1,10.7,15.9C1710,23690.4,1712.8,23679.7,1715.2,23668.7z M2658.4,23524.1
	c6.2-6.9,11.2-20.9,11.2-32.1c0-40.4-39.7-83.2-95.8-103c-8.8-3.1-9-3.1-7.4,2.1c7.1,23.8,34.7,81.1,48.5,101.5
	c11.9,17.4,31.2,35.2,38.3,35.7C2653.8,23528.4,2656.2,23526.5,2658.4,23524.1z M5469.1,23430.7c4.5-17.1,5.2-25.4,5.2-60.4
	c0-34.2-1-44-5.5-63c-19.5-79.2-66.3-162.9-133.2-236.9c-11.4-13.1-27.8-29.5-36.1-36.6c-20.9-18.1-45.9-38-47.8-38
	c-3.3,0,10.9,74,22.1,116.1c35.9,133.9,99.9,262.1,164.8,330.6c18.8,19.5,19,19.7,21.9,14.3
	C5462.2,23453.5,5466,23441.9,5469.1,23430.7z M1481.7,23397.1c4-1.7,5.7-4,4.8-6.7c-3.1-9.8-15.7-90.8-20-129.6
	c-12.6-110.3-13.6-227.1-2.4-323.7l2.9-24.3l-20-29.2c-22.4-33.1-60.4-81.3-76.6-97l-10.7-10.2l-5.2,13.8
	c-7.1,19.5-15.7,56.6-20.7,90.1c-5.7,38.8-5.5,137.2,0,188.6c14.7,132.2,58,254.2,109.4,309.2c12.4,13.1,24.3,21.9,29.5,21.9
	C1474.3,23400,1478.3,23398.8,1481.7,23397.1z M545.9,23294.7c0-1.2-152.9-310.6-182.4-369.1c-40.9-81.1-74-141.3-100.1-181.9
	c-30.2-47.1-83.2-110.6-88.2-105.8c-9,8.8-15.5,67.8-12.1,111.5c15.5,203.8,144.4,397.4,352,528.7
	C539.7,23293.7,545.9,23297,545.9,23294.7z M2323.5,22423.5c-76.6-7.8-113.9-23.5-133.2-56.6c-24.5-42.1-34.2-211.2-24-412.8
	c11.9-233.5,17.8-309.6,29-376.7c12.1-72.8,14.3-78,33.8-88c18.3-9.3,34.7-11.7,68.5-10.5c35.4,1.4,37.3,1.9,162.7,39
	c99.4,29.5,102.7,30.4,111.8,38.3c8.3,6.9,8.8,10,2.6,17.8c-15.7,20-77.3,17.8-187.6-6.4c-21.4-4.8-39.5-8.1-40.2-7.4
	c-2.4,2.4-7.4,85.6-9,152.4c-1,36.6-3.6,107.3-5.7,157c-2.4,49.7-3.8,90.8-3.3,91.3c0.5,0.5,24.5,4,53.7,7.8
	c100.4,12.6,127.7,19,131.3,30.7c1.9,5.9-2.6,11.4-12.8,15.7c-12.8,5.5-74.7,3.8-151.2-4c-11.9-1.2-22.4-1.2-23.3-0.2
	c-3.3,3.3-2.9,165.3,0.2,211.9c1.7,22.8,4.5,54.7,6.4,70.4c3.6,28.3,11.2,59,15.5,61.6c6.2,3.8,56.4,8.6,113,10.7
	c65.2,2.4,82,4.8,95.6,13.6c8.1,5.2,6.4,14.7-3.1,20.2c-19.3,11.2-104.6,23.3-173.4,24.5
	C2354.4,22424.3,2328.7,22424,2323.5,22423.5z M1700.7,22405.9c-55.6-8.8-109.6-33.8-137-63.3c-28.3-30.2-29.5-37.1-27.8-143.6
	c1.4-83.9,5.9-178.6,21.9-441.1c16.4-273,21.9-325.1,35-337.9c3.3-3.3,12.8-7.6,24.5-10.7c39.5-10.7,124.9-5.7,239,13.6
	c84.7,14.3,124.4,26.2,162.4,49c62.1,37.1,97,93.5,100.8,163.9c2.9,53.7-12.4,106.5-44.5,154.6c-15.5,23.1-54.7,60.6-82.3,79
	c-40,26.4-90.8,48-135.8,57.6c-10.2,2.1-21.2,4.3-24.3,5c-4.5,1,1.7,4.8,29.7,18.5c56.4,27.8,91.8,53.5,123.4,89.9
	c35.2,40.2,47.1,81.6,38.3,131.7c-16.4,94.6-79,179.5-156.7,213.1c-36.9,15.9-63.3,21.2-111.1,22.1
	C1733.5,22407.6,1708.5,22407.1,1700.7,22405.9z M1771.8,22347.7c53.7-14,100.6-70.9,114.1-138.9c5.7-27.6,4-72.1-3.3-90.8
	c-11.7-30.2-47.6-69.9-86.6-95.8c-10.7-7.1-37.6-22.8-59.9-34.7c-22.1-12.1-41.9-23.1-43.3-24.3c-2.4-1.9-3.1,1.4-3.1,15
	c-0.7,90.4-5,261.4-7.4,285.4c-1.4,16.4-2.1,34-1.2,38.8c3.1,16.2,24.7,35.4,49.9,44.2C1746.3,22352,1754.2,22352.2,1771.8,22347.7z
	 M1800.3,21875.6c40-10.7,85.6-37.1,114.9-66.3c71.1-71.1,83-179.3,28.1-254c-22.4-30.7-54.5-49.5-99.9-59
	c-46.6-10-166.9-29-169.1-27.1c-0.5,0.7,0.5,14.5,2.4,30.9c8.3,71.3,13.1,181,13.1,301.1v79l12.6,1
	C1731.8,21883.7,1781.1,21880.9,1800.3,21875.6z M2822.7,22401c-67.3-8.1-112.7-45.9-152-127.2c-14.7-30.4-31.9-80.1-39-112.7
	c-17.6-82.5-23.5-191-14.5-264c8.1-64,35-160,65.6-235c35.9-87.3,87.5-153.4,140.1-179.1c26.9-13.1,42.3-16.4,76.1-16.4
	c54,0,80.6,13.8,99.4,51.1c17.8,35.7,37.3,132,52.8,260.4c3.6,28.1,9.5,72.1,13.6,97.5c7.4,48.3,7.6,62.8,0.7,76.1
	c-13.3,25.7-69.7,40.9-153.4,41.4c-46.4,0.2-62.3-1.9-78.7-11.2c-12.4-6.7-15.9-14-10.7-21.9c7.4-11.4,21.2-15.2,72.1-20.2
	c66.1-6.7,67.8-6.9,72.1-15.5c15.9-31.6-21.9-249.9-62.3-360.8c-2.6-7.6-5.9-13.1-7.1-12.4c-5.2,3.3-31.9,46.6-43.5,71.1
	c-30.2,62.8-61.8,166.9-74.9,246.1c-17.8,109.9-6.4,261.4,27.1,362c15.9,47.3,39.5,94.9,53.5,107.5c7.1,6.7,13.6,3.1,37.1-21.2
	c11.9-12.1,23.8-23.1,26.6-24.7c6.7-3.3,32.1-3.3,40,0.2c8.3,3.8,9.3,10,4.8,29.3c-11.2,49-49.2,76.6-110.6,80.4
	C2847.6,22402.6,2832,22402.1,2822.7,22401z M4202,22400.2c-22.1-4.3-32.1-7.6-51.1-17.1c-64-31.9-102.3-111.3-89.2-185.5
	c5.2-30.2,15-57.1,39.5-107c24.7-51.4,38.8-75.9,86.8-153.2c19.7-32.1,43.3-71.1,52.1-86.8c27.6-49.9,50.7-110.8,60.2-159.3
	c5.9-30.2,5.9-99.2,0-127.2c-7.4-35.4-20.9-71.8-34.5-92l-3.3-5.5l-15.9,8.3c-8.8,4.8-24.7,15.2-35.4,23.8
	c-33.3,26.4-50.9,53.5-60.4,92.7c-2.9,12.1-7.1,23.8-10,26.9c-16.2,18.1-79.2,15-89.7-4.5c-4.5-8.8-1.7-64.9,4.3-81.1
	c17.8-48.3,76.6-98.5,140.1-119.9c27.8-9.3,50.7-12.8,82.5-12.8c45.7,0,73.5,8.8,97.3,30.9c45.9,41.9,72.8,152.4,60.4,246.6
	c-11.2,84.7-38.3,153.4-108,273.2c-44.2,76.6-60.2,106.8-79.9,151.5c-28.8,65.2-36.1,93.5-34.2,133.4c1,18.1,2.9,28.5,7.8,41.9
	c7.4,20,19.3,41.4,28.1,49.5l5.7,5.5l14.5-10.9c28.1-21.2,49-48.8,67.3-88.9c20-43.5,21.6-46.1,33.1-51.8c19.3-10,51.8-6.2,60.4,6.9
	c5.9,9.3,7.4,42.3,2.9,68.5c-3.1,17.1-6.9,28.5-15.9,47.3c-10.5,21.4-15,27.6-33.8,46.6c-19,19-25,23.5-44.5,32.8
	c-12.4,5.9-29.5,12.6-38,14.7C4279.8,22403.1,4224.3,22404.5,4202,22400.2z M3876.9,22389.3c-21.6-5.5-32.6-16.6-38.3-39
	c-13.3-50.4-35.2-320.8-46.1-563.9l-1.7-38.1l-15.2,36.9c-58,139.8-72.5,174.3-97,228.3c-33.1,72.8-80.1,170-99.2,204.5
	c-41.4,74.9-64,92.7-118.2,92.7c-41.6,0-66.6-13.6-74.4-40.4c-7.8-26.9-24.3-158.4-30.4-243.8c-3.8-52.1-3.8-215.5,0-272.3
	c10-146.5,22.4-223.8,39-240.2c7.6-7.6,21.6-10.9,38.8-8.8c25.7,2.9,31.4,15.7,40.2,92c6.7,55.9,24.7,335.3,29.3,445.4
	c0.7,21.9,2.4,39,3.3,38.1c2.9-2.9,44.2-104.4,83-202.9c65.6-166.9,82.8-206.9,122.2-284.2c31.2-61.1,51.1-94.9,63.3-107.7
	c16.9-17.4,45.2-25.9,79.2-23.5c40.2,2.6,59.9,14.3,66.6,39c7.1,26.6,10.2,70.9,14.7,211.2c1.9,62.8,5.7,167.2,8.3,231.9
	c10.5,267.3,12.8,378.1,8.8,412.4c-2.4,18.5-7.6,25.7-22.8,30.2C3918.3,22390.7,3887.8,22391.9,3876.9,22389.3z M3157.8,22349.1
	c-5.5-2.6-11.7-7.1-13.8-10.5c-12.1-18.5-27.8-175.7-34.7-348.9c-3.1-77.1-1.4-331,2.4-388.8c4.8-68.5,8.3-78.2,30.7-88.7
	c12.6-5.9,15.9-6.4,44.5-6.4c27.3,0,32.3,0.7,43.5,5.7c24,10.7,27.1,18.8,31.9,81.6c4.8,63.3,4,353.9-1.2,450.2
	c-12.4,235.2-19.7,287.5-42.8,304.2C3208.2,22354.8,3171.8,22355.8,3157.8,22349.1z"/>
</svg>
