<?xml version="1.0" encoding="utf-8"?>
<!-- Generator: Adobe Illustrator 27.0.0, SVG Export Plug-In . SVG Version: 6.00 Build 0)  -->
<svg version="1.1" id="Layer_1" xmlns="http://www.w3.org/2000/svg" xmlns:xlink="http://www.w3.org/1999/xlink" x="0px" y="0px"
	 viewBox="0 0 345 360" style="enable-background:new 0 0 345 360;" xml:space="preserve">
<style type="text/css">
	.st0{fill:#231F20;}
</style>
<path transform="translate(0.000000,2500.000000) scale(0.100000,-0.100000)" class="st0" d="M1270.5,24996.8
	c-36.8-9.8-54.8-42.1-65-116.5c-7.7-54.8-6.2-163.5,3.2-239.3c5.3-42.5,18.5-130.7,22.5-149.2c15.1-72.7,51.4-104.4,115.6-101
	c14.2,0.6,27.8,2.8,37.2,5.7c42.1,13.2,122.4,64,194.3,123.1l22.1,18.1l19.3-6.6c33.2-11.5,39.7-12.3,105.4-12.3
	c65.7,0,72.3,0.8,105.4,12.3l19.3,6.6l22.1-18.1c71.8-59.1,152.2-109.9,194.3-123.1c9.4-3,23-5.1,37.2-5.7
	c46.6-2.3,76.9,13,97.6,48.9c12.8,22.5,17.4,41.7,28.9,117.3c17,113.9,21.5,172.4,19.6,250.8c-2.6,95.2-15.7,150.5-41.9,173.9
	c-13.4,12.1-25.7,16.4-50.2,17.9c-31.9,1.9-60.6-6.4-101.4-29.3c-56.1-31.5-117.1-79.7-182.6-143.9l-35.3-34.9l-15.7,3.4
	c-22.5,4.9-70.8,9.8-97.4,9.8s-74.8-4.9-97.4-9.8l-15.7-3.4l-35.3,34.9c-95.7,93.7-187.1,156.9-246.6,170.5
	C1311.7,25001.1,1286,25001.1,1270.5,24996.8z M401.3,23841.5c-221.5-237.4-402-432.1-401.3-432.8c1.3-1.5,28.5,1.1,290.4,27
	c104.6,10.4,190.5,18.5,190.9,18.1c0.6-0.4-1.1-9.4-3.4-19.6c-2.6-10.2-12.5-53.1-22.5-95.2c-28.3-119.7-80.3-334.2-122.2-502.7
	l-38.5-154.1l11.3-10.8c6-6,72.3-69.1,147.1-140.3c138.4-131.6,329.9-313.7,571.8-544c73.8-70.1,202.4-192.6,285.9-272.1
	c83.5-79.5,192.4-183.2,241.9-230.4c49.5-47.2,90.3-85.2,91-84.6c2.8,2.6-26.1,115.4-70.6,276.8
	c-358,1297.1-552.9,1967.9-698.9,2402c-42.9,127.8-67,194.5-69.9,194.5C803.9,24273.2,622.6,24079,401.3,23841.5z M2642.6,24267.1
	c-8.5-16.2-75.7-212.8-117.1-342.4c-100.5-314.8-218.7-713.4-363.3-1225.4c-90.1-319.7-299.9-1075.4-325.2-1171.2
	c-15.9-60.8-31.5-126.7-30.2-128c0.6-0.6,41.5,37.4,91,84.6c49.5,47.2,158.4,150.9,241.9,230.4c83.5,79.5,212.1,201.9,285.9,272.1
	c241.9,230.2,433.4,412.4,571.8,544c74.8,71.2,141.1,134.3,147.1,140.3l11.3,10.8l-38.5,154.1c-41.9,168.6-94,383-122.2,502.7
	c-10,42.1-20,85-22.5,95.2c-2.3,10.2-4,19.1-3.4,19.6c0.4,0.4,86.3-7.7,190.9-18.1c261.9-25.9,289.1-28.5,290.4-27
	c0.9,0.8-751.8,810.7-797.3,857.9l-7,7.2L2642.6,24267.1z M1687.6,24148.9c-35.7-9.8-66.1-38.1-78.9-74c-4.7-12.8-5.5-18.9-5.5-37.6
	c0-27.2,5.7-45.7,20.6-66.3c12.1-16.8,18.5-22.7,34.4-32.5c46.8-28.1,106.7-19.8,143.5,19.6c42.1,45.1,42.9,111.8,1.7,156.9
	c-22.7,24.9-51.2,37.2-85,37C1707.5,24151.9,1693.5,24150.4,1687.6,24148.9z M1687.6,23798.2c-50.2-13.6-85.7-60.2-85.7-112.2
	c0.2-68.9,63.3-124.3,130.5-114.6c65.7,9.6,110.5,71,98.8,135.6c-7.9,44-45.5,83.1-88.6,92
	C1727.3,23802.2,1700.9,23801.8,1687.6,23798.2z M1687.6,23447.4c-50-13.4-85.9-59.1-86.3-109.5c-0.4-22.1,3.2-37,13-55.9
	c18.1-35.1,52.3-58.2,92.3-62.3c53.6-5.5,108,32.5,121.8,85.2c4,15.9,4,43.4,0,59.1c-10.6,40.8-44.2,73.8-84.4,83.3
	C1727.3,23451.3,1702.2,23451.3,1687.6,23447.4z M1692.2,23097.8c-25.5-5.5-52.5-22.3-67.4-41.9c-36.8-48.7-32.1-113.7,11.3-154.7
	c27.4-25.9,60.2-36.3,96.1-31.2c77.2,11.1,122,95.9,87.4,165c-13.6,27-36.8,48-64.4,58.2
	C1739.6,23098.6,1707.5,23101.2,1692.2,23097.8z M1688.2,22746c-52.9-13.4-88.4-58.7-88.4-112.7c0-32.7,10.8-58.9,34.2-82.3
	c35.9-35.5,88.4-43.6,134.3-20.6c18.5,9.4,41.2,32.7,50.2,51.4c30,62.9,0.2,136.5-64.8,160.3
	C1735,22748.7,1706.5,22750.4,1688.2,22746z M1689.7,22395.2c-43.4-9.6-79.7-45.9-88.9-89.3c-3.8-18.7-3.8-28.1,0-46.6
	c5.1-24.4,13.8-40.2,32.5-58.7c23.8-23.6,48.3-34,80.1-34c32.3,0,59.3,11.3,82,34.2c24.7,24.7,35.3,52.5,33.2,88
	c-2.3,42.9-25.7,78.2-64.2,96.7C1738.6,22398.2,1716.5,22401,1689.7,22395.2z"/>
</svg>
