<?xml version="1.0" encoding="utf-8"?>
<!-- Generator: Adobe Illustrator 27.0.0, SVG Export Plug-In . SVG Version: 6.00 Build 0)  -->
<svg version="1.1" id="Layer_1" xmlns="http://www.w3.org/2000/svg" xmlns:xlink="http://www.w3.org/1999/xlink" x="0px" y="0px"
	 viewBox="0 0 385.1 360" style="enable-background:new 0 0 385.1 360;" xml:space="preserve">
<g>
	<path d="M265.7,7.1c-4.8,3.9-9,7.3-9.2,7.4c-0.3,0.2-0.3,0.3-0.2,0.4c0.4,0.2,25.9,6.6,26,6.4c0.2-0.2-7.4-21.3-7.6-21.4
		C274.6,0,270.6,3.2,265.7,7.1z M278.4,0.4c0.1,0.2,1.7,4.8,3.6,10.2s3.6,10,3.7,10.2c0.2,0.4,0.8-0.1,8.3-6.9
		c4.5-4,8.1-7.4,8.2-7.5c0-0.1-18.3-5-23.3-6.2C278.3,0.1,278.3,0.1,278.4,0.4z M297.2,15.3c-4.7,4.3-8.5,7.8-8.4,7.8
		c1.4,0.4,25.2,6.3,25.4,6.3c0.2,0-1.1-3.7-4-11c-2.3-6-4.3-10.9-4.3-10.9C305.9,7.6,301.9,11.1,297.2,15.3z M309.8,8.4
		c0,0.1,8,20.9,8.1,21c0.1,0.1,15.3-13.3,16.2-14.2c0.2-0.2,0.4-0.4,0.3-0.4c-0.1-0.1-24.1-6.4-24.4-6.4
		C309.9,8.3,309.8,8.4,309.8,8.4z M340.9,16.6c0,0.3,3.5,17.2,3.6,17.3c0,0,2.6-3,5.8-6.7c3.1-3.7,5.6-6.8,5.6-6.9
		c-0.1-0.1-3.3-0.9-7.1-1.9c-3.8-1-7.1-1.9-7.4-1.9C341.1,16.3,340.9,16.4,340.9,16.6z M329.2,23.8c-5.3,4.7-8.2,7.3-8,7.4
		c0.4,0.2,20.3,5.1,20.4,5.1c0.1-0.1-4-19.6-4.1-19.7C337.5,16.6,333.8,19.8,329.2,23.8z M254.2,17.9c0,0.1,0,0.3,0.1,0.6
		c0.4,1.3,30.7,87.4,30.8,87.5c0.2,0.2-0.3-80.2-0.5-80.4C284.5,25.4,254.3,17.8,254.2,17.9z M352.1,30.1c-3.3,3.9-6,7.1-6,7.2
		c-0.1,0.2-0.6,0.1,9.8,2.7c4.6,1.2,8.4,2,8.5,2c0.1-0.1-6-18.9-6.2-18.9C358.1,23,355.4,26.2,352.1,30.1z M288,33.6
		c0.1,4,0.2,21.9,0.2,39.9c0.1,17.9,0.2,32.7,0.3,32.9c0.1,0.2,1.6-2.1,5-7.7C303.7,81.7,326,44.8,328.4,41c1.3-2.2,2.4-4,2.4-4
		c-0.1-0.1-42.4-10.6-42.6-10.6C287.9,26.3,287.9,28.2,288,33.6z M333.6,38.1c0,0.5-0.2,0.9-24.3,40.6
		c-8.2,13.5-14.8,24.6-14.8,24.6s1.3-1,2.8-2.2c1.5-1.3,16.9-14.4,34.2-29.1c17.4-14.7,31.5-26.9,31.4-27
		c-0.1-0.1-28.9-7.4-29.2-7.4C333.6,37.7,333.6,37.9,333.6,38.1z"/>
	<path d="M252.6,70.5c-4.9,0.3-14.2,1.4-16.3,2c-0.4,0.1-1.6,0.4-2.7,0.6c-6.9,1.4-15,4-22.7,7.2c-3.4,1.4-11.7,5.6-15,7.6
		c-6.9,4.2-12.6,8.3-18.7,13.6c-20.1,17.7-34.1,41.3-39.8,67.6c-3.2,14.6-3.7,30.4-1.4,45.2c3.1,20.9,11.4,40.5,24.2,57.2
		c10.6,14,24.4,25.8,39.7,34.2c16.1,8.8,33.5,13.8,52.6,15.1c6.7,0.5,17.9,0,25.1-1c13.1-1.9,26.3-6,38.3-12
		c19.2-9.5,35.5-23.8,47.6-41.5c12.6-18.5,20-40,21.5-62.4c0.3-4.5,0.1-16.5-0.3-20.7c-0.4-4.1-1.5-10.7-2.4-14.6
		c-2.3-10.2-5.4-19-10-28.4c-2.1-4.4-2.5-4.9-5-9.2c-8.2-13.7-19.2-25.9-32.2-35.7c-2.5-1.9-8.2-5.8-9.2-6.3c-0.5-0.3-0.7-0.1-9.2,8
		c-4.8,4.5-8.7,8.3-8.7,8.5c0,0.1,0.6,0.5,1.3,1c11.9,6.7,22.1,15.3,30.3,25.6c14.4,18.1,22.3,40.6,22.3,63.6
		c0,23.8-8.6,47.4-24,65.7c-9.9,11.8-23,21.6-36.9,27.6c-7.8,3.4-16,5.8-24.5,7.2c-5.1,0.8-7.1,1.1-12.4,1.3
		c-7,0.3-13.4-0.1-20.6-1.3c-13.2-2.2-25.4-6.7-36.8-13.7c-7-4.3-12.6-8.7-18.8-14.9c-8.1-8.1-13.7-15.9-18.9-26
		c-5.9-11.7-8.9-22-10.6-36.4c-0.4-2.9-0.4-16.5,0-19.3c1.4-11.6,3.3-19.2,6.8-28c1.5-3.8,1.7-4.2,3.6-8
		c5.2-10.5,11.7-19.2,20.2-27.5c9.7-9.4,20.8-16.6,33.6-21.6c8.2-3.2,17.6-5.6,26-6.4c6.2-0.6,10.7-0.8,15.6-0.5
		c2.5,0.1,4.7,0.3,4.9,0.4s0.3,0,0.3-0.1c0-0.2-1.9-5.5-6.8-19.1l-1.7-4.6l-3.6,0C255.2,70.4,253.2,70.4,252.6,70.5z"/>
	<path d="M118.6,109.5c-10.5,0.7-17.7,1.9-26.9,4.4c-12.4,3.4-25.3,9.3-36,16.5c-4.3,2.9-7.1,5-10.8,8c-13.2,11-23.9,24.6-31.5,39.8
		c-5.3,10.6-8.6,20.3-10.9,31.3C0.6,219-0.2,228.3,0,237.5c0.2,6.1,0.4,9.2,1.2,14.7c1.9,13.5,5.5,25.2,11.5,37.6
		c11.7,24.1,31,43.8,55,56.3c12.2,6.3,25.3,10.5,38.9,12.6c5.6,0.8,7.6,1,13.5,1.3c18.2,0.8,37.2-2.6,53.9-9.7
		c15.3-6.5,28.6-15.5,40.3-27.3l3.2-3.2l-0.8-0.4c-0.4-0.2-2-0.9-3.6-1.5c-4.7-2-12-5.7-16.2-8.3l-1.4-0.9l-2.4,2.1
		c-12.1,10.7-25.7,18-41,22.3c-5.4,1.5-9.9,2.3-17,3.1c-4.7,0.5-15.4,0.5-20.5-0.1c-4.6-0.5-6.3-0.8-10-1.6
		c-21.9-4.6-42-16.4-56.4-33.2c-11.7-13.6-19.3-29.2-22.8-46.6c-1.5-7.6-2.1-13.6-1.9-21.9c0.1-7.9,0.7-12.9,2.3-20.1
		c2-8.9,4.6-16.2,8.6-24.2c11.3-22.2,30.2-39.5,53.4-48.7c8.1-3.2,15.3-5,25.3-6.4c3.4-0.5,7.3-0.7,12.2-0.7c5.6,0,8.8,0.2,14.2,1
		c2.2,0.3,4.1,0.5,4.2,0.4c0.1-0.4,3.9-6.4,5.6-8.9c2-3,4.8-6.7,7.1-9.6c0.8-1,1.4-1.8,1.3-2c-0.2-0.4-10.7-2.6-16.1-3.3
		C135,109.5,124.1,109.1,118.6,109.5z M188.4,129.8c-4.3,4.6-7.9,9.2-11.2,14c-1.2,1.8-1.4,2.1-1.1,2.4c0.1,0.1,1.4,0.9,2.7,1.7
		c10,6,19.7,14.8,27.1,24.3c10.7,13.8,17.8,30.6,20.3,47.8c0.8,5.3,0.9,6.9,1,12.3c0.4,16-2.8,30.9-9.7,45.8l-1.7,3.6l0.5,0.4
		c0.9,0.7,9.9,5,12.6,6.1c3.4,1.3,8.1,2.9,8.3,2.8c0.2-0.1,1.8-3.5,3.2-6.7c5.2-12.1,8.5-25.2,9.7-38.1c0.9-10,0.5-21.8-1.1-31.4
		c-5.2-31.6-21.7-59.4-46.8-79c-3.6-2.8-11.2-8-11.7-8C190.4,127.7,189.5,128.6,188.4,129.8z"/>
	<path d="M260.8,153.9c-0.3,0.1-0.7,0.3-0.9,0.6c-0.4,0.6-1.7,6.6-2.4,11.1c-1.3,9-1.9,14.3-2.4,23.3c-0.3,5.4-0.4,20.3-0.1,21.7
		c0.2,1,1,1.5,2.7,1.6c1.5,0.1,2.7-0.2,3.3-0.7c0.4-0.4,0.4-0.4,0.4-8.4c0-7.9,0.2-15.8,0.6-22.7c0.2-3.8,0.4-4.8,1.8-8.9
		c2-5.9,4.7-10.7,7.4-13.3c1.2-1.1,1.8-1.5,2.2-1.3c0.8,0.3,0.8,3.5,0.2,8.4c-1.3,9.9-2.2,23.2-2.3,32.5c0,3.9,0,4.2,0.4,4.7
		c1.1,1.5,5.2,1.3,5.8-0.3c0.3-0.6,0.5-6.6,0.6-11c0-2.8,0.1-3.7,0.5-5.7c1.6-7.8,5-15.8,9-21.5c1.7-2.4,4.3-5,5.8-5.8
		c1.1-0.6,1.1-0.6,1.4-0.2c0.6,0.8,0.3,2.4-1.5,8.6c-4,13.8-5.5,22.1-5.5,29.5c0,9,2.1,12.9,6.8,12.9c1.4,0,2.9-0.6,3.7-1.4
		c2.1-2.3,8.8-15.7,11.3-22.6l0.6-1.8l2.1-0.1c2.5-0.2,4.7-0.6,6.5-1.2c0.7-0.3,1.3-0.4,1.3-0.4c0,0-0.4,1-0.9,2.1
		c-2.3,5-4.6,11.8-5.3,16.3c-0.5,3.1-0.4,7.2,0.2,8.9c0.5,1.5,1.3,2.4,2.3,2.9c1.9,0.9,4,0.7,5.2-0.7c1.2-1.2,6.6-12.1,8.5-17.2
		l0.2-0.5l1.5,1.9c0.8,1.1,2,2.5,2.5,3.3l1,1.4l-1.4,1c-2.6,1.9-4,3.8-4.4,5.9c-0.7,4.4,3.7,7.9,9.5,7.5c6.1-0.4,9.4-3.9,8.2-8.8
		c-0.4-1.7-1.7-4.4-2.9-6.2l-0.9-1.3l1.3-0.7c2.2-1.1,5.2-2.4,8.4-3.4c1.6-0.6,3-1.1,3.1-1.2c0.3-0.3-0.4-0.8-1.2-0.8
		c-1.3,0-6.4,1.6-10.4,3.3c-1.4,0.6-2.7,1-2.8,0.9c-0.1-0.1-1-1.1-2-2.2c-3-3.3-3.9-4.5-4.6-6.1c-0.7-1.4-0.7-1.6-0.7-3.4
		c0-1.7,0.1-2.1,0.5-3.1c1-2,2.2-2.4,3.9-1.3c1.6,1.1,2.9,3.1,3.6,5.9c0.3,1.1,0.4,1.4,0.8,1.5c0.7,0.2,1.1-0.2,1.2-1.2
		c0.2-2.9-1.7-6.5-4.2-7.7c-1.3-0.6-2.7-0.9-4.5-0.8c-2.2,0.1-4,1-5.6,2.7c-2.7,2.9-3.3,6.5-1.8,9.8c0.3,0.6,0.5,1.1,0.5,1.3
		c0,0.8-6.4,13.6-8.3,16.5l-0.8,1.3l-0.1-1.6c-0.2-4.3,1-10.3,4-20.2c1.4-4.7,2.2-8.2,2.2-9.3c0-0.7-0.6-1.2-1.6-1.3
		c-0.7-0.1-1.2,0-3,0.9c-3.4,1.6-6.5,2.4-9,2.4h-1.3l0.4-1.7c0.3-1.2,0.4-2.5,0.4-4.4c0-3-0.2-3.6-1.3-4.5c-0.9-0.6-3-0.6-4.5,0.2
		c-1.6,0.8-3.1,2.3-3.9,4c-0.5,1.2-0.6,1.5-0.6,3s0.1,1.8,0.5,2.6c0.8,1.4,3,2.9,4.8,3.2c0.6,0.1,0.7,0.2,0.5,0.7
		c-0.4,2-5.9,13.3-8.3,17.3c-1.7,2.7-3.4,5-3.6,5c-0.1,0-0.4-0.8-0.6-1.7c-0.3-1.4-0.4-2.5-0.4-7.6c0-6.8,0.1-8,1.8-17.7
		c1.9-10.6,2-11.9,2.1-15.3c0-3.1,0-3.1-0.6-4.3c-0.5-1-0.7-1.3-1.5-1.6c-1.2-0.6-2.4-0.6-3.8,0.2c-2.5,1.3-5.3,4.1-8,8.3
		c-2.4,3.6-3.6,6-5.6,10.7l-0.9,2.2l0-6.1c0-9.3-0.4-13.1-1.6-15.2c-0.6-1.1-1.5-1.6-2.8-1.6c-1.3,0-2.4,0.6-4.1,2.5
		c-1.8,1.9-3.5,4.5-5.4,8.3c-0.9,1.7-1.5,2.9-1.4,2.6s0.2-2.7,0.2-5.5c0.1-5-0.1-9-0.5-9.5C262.2,153.9,261.6,153.7,260.8,153.9z
		 M309.4,171.8c0.3,1.1,0.3,3.8-0.1,5.5c-0.2,0.8-0.4,1.5-0.4,1.6c-0.2,0.2-1-1-1.3-1.8c-0.4-1.6,0-4.2,0.9-5.6
		C309,170.9,309.2,171,309.4,171.8z M337.6,203.5c1.3,3.1,1.4,5.4,0.3,6.9l-0.5,0.6l-0.7-0.4c-2.2-1.1-3.1-3.7-1.9-6
		c0.3-0.6,2-2.6,2.2-2.6C337,202,337.3,202.7,337.6,203.5z M353.8,200c-1.4,0.7-2,2.6-1.1,3.7c0.9,1.1,3.9,1.1,4.9,0
		c1-1,0.7-2.9-0.5-3.6C356.3,199.6,354.8,199.5,353.8,200z"/>
	<path d="M190.4,172.1c-0.6,0.3-0.7,1.2-0.5,4.9c0.3,4,0.4,4.4,1.6,4.5c1.4,0.1,1.4,0.1,1.4-4.7c0-4.1,0-4.1-0.4-4.5
		C192,171.9,191.1,171.8,190.4,172.1z M191.3,187.6c-2.4,0.4-4.9,1.6-6.3,2.8c-1.6,1.4-2.4,3.3-1.7,3.9c0.9,0.7,2.2,0.5,3.6-0.8
		c1.3-1.1,3.5-2.3,4.8-2.4c0.8-0.1,0.9-0.1,1.6,0.7c2,2.3,1.9,6.6-0.2,11c-0.9,1.9-2,3.5-5,7.3c-1.9,2.4-3.3,4.7-3.3,5.3
		c0,0.8,2.2,1.2,4,0.6c0.5-0.2,1.4-0.3,2-0.3c2.9,0,4.4,2.2,4.5,6.7c0.1,4.2-1.1,9.2-3.2,12.4c-0.8,1.3-1.8,1.9-3.2,1.9
		c-1.1,0-2.3-0.7-3.1-1.9c-0.7-1-1.8-1.5-3.3-1.3c-1.3,0.1-2,0.6-2,1.1c0,0.9,0.8,2.5,1.6,3.3c1.9,1.8,4.3,2.5,8.5,2.3
		c7.4-0.2,11.3-3.1,13-9.4c0.5-1.9,0.6-5.9,0.2-7.5c-0.4-1.7-1.5-3.7-2.5-4.9c-2-2.2-4-3.2-7.1-3.9l-1.7-0.3l1.8-1.3
		c4.6-3.3,7.9-7.1,9.3-10.9c2.3-6.3,0-11.7-5.7-13.9c-1.1-0.4-1.7-0.5-3.7-0.5C192.8,187.6,191.6,187.6,191.3,187.6z M189.4,246.1
		c-0.5,0.5-0.5,0.5-0.5,4c0,3.5,0.2,4.9,0.7,5.5c0.1,0.1,0.7,0.2,1.3,0.2c1.7,0,1.7,0.1,1.8-5c0.1-4.3,0.1-4.4-0.3-4.8
		C191.9,245.4,190.1,245.4,189.4,246.1z"/>
	<path d="M53.2,213.5c-1,0.9-3.3,13.8-4.4,25.3c-0.8,8.8-1.4,21.5-1.2,28.8c0.1,2.8,0.2,5.3,0.3,5.6c0.3,1,1.2,1.3,3.3,1.3
		c2.1,0,3-0.3,3.3-1.2c0.1-0.3,0.2-4.4,0.2-9.9c0-9,0.2-16.1,0.6-23c0.2-3.3,0.4-4.5,1.8-8.5c1.8-5.3,3.9-9.4,6.4-12.6
		c1.6-2,3.2-3.3,3.9-3.1c0.8,0.3,0.8,3.4,0,10.2c-1.2,9.7-1.8,18-2.3,29.7c-0.2,5.5-0.1,7.7,0.5,8.3c1.2,1.3,5.2,1,5.9-0.4
		c0.3-0.7,0.6-5.9,0.6-11.1c0-3.1,0.1-4.2,0.4-5.8c2.4-11.6,8.1-23.2,13.9-28.2c2.9-2.5,4.1-2,3.4,1.4c-0.2,0.9-0.9,3.6-1.6,6.1
		c-1.4,5-3.5,13.4-4.3,17.1c-1.8,8.9-2.1,16.6-0.8,21.6c0.5,2.1,1,3.1,2,4.2c1.1,1.2,2,1.6,3.9,1.7c2.1,0.1,3.1-0.2,4.2-1.2
		c2.3-2.2,9-15.2,12.1-23.6l0.8-2.2l2.2-0.1c3-0.2,5.5-0.7,7.6-1.6c0.4-0.2,0.8-0.3,0.8-0.3c0,0-0.5,1.1-1.1,2.3
		c-2.2,4.6-4.5,11.3-5.4,15.7c-1.2,5.9-0.9,10.6,1,12.9c1,1.2,2,1.6,3.8,1.6c2.7,0,3.2-0.5,6.6-7.2c3.4-6.7,7.6-16.6,7.2-17
		c-0.3-0.3-1.2-0.3-1.5,0.1c-0.2,0.1-1,1.7-1.8,3.6c-4.7,9.9-8.6,17.3-9.2,17.3c-0.2,0,0-3.8,0.4-6.9c0.5-4.3,1.3-7.6,3.9-16.1
		c1.5-5,2.2-8.2,2.2-9.5c0-0.9-0.5-1.3-2-1.3c-0.9,0-1.4,0.2-2.9,0.8c-3,1.5-6.1,2.3-9.3,2.6c-1.2,0.1-1.6,0.1-1.6-0.1
		c0-0.1,0.2-1.2,0.4-2.4c0.5-2.8,0.5-6.5-0.1-7.7c-0.5-1-1.4-1.5-3-1.5c-3.9,0-7.5,3.8-7.6,7.9c0,1.7,0.5,2.8,1.7,4
		c1,0.9,2.1,1.5,3.7,2c0.7,0.2,1.1,0.4,1,0.6c-0.3,1.4-3.1,7.6-5.4,12.1c-2.8,5.4-7,12-7.4,11.6c-0.6-0.6-1.3-7.1-1.1-11.6
		c0.2-5.2,0.7-9.4,2.4-18.9c1.5-8.1,1.8-10.9,1.8-14.1c0-3.2-0.2-4-1.1-5.3c-1-1.3-3.2-1.6-5.1-0.7c-4,2-9.7,9.5-13.4,17.8
		c-0.6,1.4-1.3,3.1-1.5,3.6l-0.4,1l-0.1-8.1c-0.2-9.6-0.4-11.7-1.5-13.9c-1-2.1-3-2.7-5-1.6c-2.3,1.2-6,6.3-8.7,12
		c-0.6,1.3-1,2-0.9,1.6c0.1-0.3,0.2-2.9,0.2-5.8c0.2-5.8-0.1-9.6-0.7-10.1C55.1,213,53.7,213.1,53.2,213.5z M105.3,234.5
		c0,2.8-0.5,5.5-1,5.1c-0.6-0.5-1.1-1.8-1.2-3.1c-0.1-1.5,0.3-3.1,1-4.4l0.5-0.9l0.3,0.6C105.2,232.1,105.3,232.8,105.3,234.5z
		 M131.9,262.2c-1.1,0.5-1.7,1.6-1.7,3.1c0,1,0,1.1,0.7,1.7c0.7,0.5,0.9,0.6,2.1,0.6c1.1,0,1.5-0.1,1.9-0.4c1-0.7,1.3-1.3,1.3-2.6
		c0-1-0.1-1.3-0.5-1.7C134.7,261.8,133.3,261.6,131.9,262.2z"/>
</g>
</svg>
