<?xml version="1.0" encoding="utf-8"?>
<!-- Generator: Adobe Illustrator 27.0.0, SVG Export Plug-In . SVG Version: 6.00 Build 0)  -->
<svg version="1.1" id="Layer_1" xmlns="http://www.w3.org/2000/svg" xmlns:xlink="http://www.w3.org/1999/xlink" x="0px" y="0px"
	 viewBox="0 0 385.1 360" style="enable-background:new 0 0 385.1 360;" xml:space="preserve">
<path transform="translate(0.000000,2500.000000) scale(0.100000,-0.100000)" d="M2657.2,24929.2c-48.3-39.3-89.8-72.8-91.9-74.3
	c-2.7-2-3.1-3.3-1.6-4.3c3.9-2.3,258.8-65.5,260-64.4c1.6,1.6-74.1,213.2-76.5,213.8C2746,25000.2,2705.7,24968.3,2657.2,24929.2z
	 M2784.1,24995.7c0.8-2,17.2-47.7,36.4-101.5c19.2-53.8,35.6-99.8,36.6-102.3c1.6-4.1,7.6,1,82.7,68.9
	c44.6,40.3,81.4,74.1,81.8,75.1c0.4,1.2-182.9,50.1-233.2,62.2C2783.4,24999.2,2783,24999,2784.1,24995.7z M2972.1,24846.8
	c-47.1-42.6-84.9-77.9-83.9-78.2c13.9-4.3,252.2-63.2,253.9-62.8c1.6,0.4-11.3,36.6-39.5,109.7c-23.3,59.9-42.6,109-43.4,109
	C3058.6,24924.5,3019.5,24889.5,2972.1,24846.8z M3098.3,24915.9c0-1,80.4-209.3,81-209.9c0.6-0.6,152.6,132.6,162.4,142.4
	c2.2,2,3.5,4.1,2.9,4.5c-1,1.2-241.2,63.8-244.3,63.8C3099.3,24916.7,3098.3,24916.3,3098.3,24915.9z M3409.4,24833.9
	c0-3.1,35.2-172.1,36-173.1c0.4-0.2,26.2,30.1,57.7,67.5c31.3,37.2,56.3,68.3,55.6,69.1c-0.8,0.8-32.9,9.4-71,19.2
	c-38.1,10-71.4,18.6-73.7,19.2C3410.5,24836.7,3409.4,24836.1,3409.4,24833.9z M3292.2,24761.9c-53.2-47.1-81.6-73.4-80-74.1
	c3.9-2.2,203.1-51.4,204-50.7c0.8,0.8-39.7,195.6-40.9,196.8C3374.9,24834.3,3337.6,24801.8,3292.2,24761.9z M2542,24821.4
	c-0.4-0.6-0.2-3.3,0.8-6.1c3.7-12.7,307.3-873.6,308.5-874.6c1.8-2-3.1,802-5.1,804.2C2844.6,24746.5,2542.9,24822.4,2542,24821.4z
	 M3520.9,24699.3c-32.9-38.9-59.9-71.4-60.3-72.2c-0.8-2-6.5-0.6,98-26.6c46-11.5,84.1-20.3,84.7-19.8
	c1.2,1.2-60.3,189.2-61.8,189.2C3580.9,24769.9,3553.5,24738.3,3520.9,24699.3z M2880,24663.9c0.6-40.1,1.8-219.5,2.3-398.7
	c0.8-179.2,2-327.3,2.5-329c0.8-2.3,16,21.3,49.9,77.3c102.3,169.4,325.5,538.2,348.8,576.3c13.3,21.9,23.9,40.1,23.7,40.5
	c-1,0.8-423.7,106.4-426.3,106.4C2879.2,24736.7,2879,24718.1,2880,24663.9z M3335.6,24618.5c0-5.1-2.3-9-242.8-406.1
	c-81.8-135-148.3-245.9-147.9-246.3c0.4-0.4,12.7,9.6,27.6,22.3c14.9,12.7,169,143.6,342.3,291.1c173.5,147.5,315,268.8,314,269.6
	c-1.2,1-289.3,74.1-292.3,74.1C3336,24623.2,3335.6,24621.1,3335.6,24618.5z M2526.1,24295.2c-48.9-2.9-141.6-14.5-163.3-20.1
	c-3.7-1-16-3.7-27.4-5.9c-68.7-13.9-150.2-39.7-226.9-71.8c-34.4-14.5-117.4-56.3-149.7-75.7c-69.4-41.9-126.2-83.3-186.8-136.3
	c-201.5-176.6-340.8-413.2-398.1-675.9c-31.7-145.9-36.8-304.2-14.5-451.7c31.5-208.9,114.2-404.5,241.6-572.2
	c106.2-139.9,243.5-258,397.3-342.1c161.4-88,334.5-137.9,525.8-151c67.5-4.7,179.2-0.2,251.4,10.2
	c131.3,18.6,263.1,59.9,383.2,119.9c191.5,95.5,355.4,238.5,475.8,414.9c126.2,185.1,200.3,399.8,215.2,623.6
	c2.9,45.2,1.2,165.5-2.9,206.8c-4.3,40.7-15.1,107.4-23.7,145.7c-22.7,101.5-54,190.3-100.2,284.2c-21.3,43.6-24.6,49.5-50.1,92.3
	c-81.8,136.7-192.5,259.4-322.2,356.6c-25.2,19-81.6,57.5-91.9,63c-4.9,2.5-6.8,0.8-91.9-80c-47.7-45.4-87.1-83.3-87.4-84.5
	c-0.2-1,5.9-5.3,13.5-9.6c118.7-66.5,220.7-152.8,303-256.3c143.8-180.6,222.8-405.9,222.8-635.8c0-238.5-86.3-474.4-240-656.7
	c-99.4-118-230.2-216-369.3-276.4c-78.4-34.2-159.6-58.1-244.5-72.2c-51.3-8.4-71.4-10.6-124.2-12.9c-70-2.9-134.2,1-206.4,12.7
	c-131.8,21.5-253.9,66.7-367.8,136.5c-70,42.8-126.2,87.4-188,149.1c-81,81-137.3,158.8-188.6,260.2
	c-59.1,116.8-89.2,220.5-106,363.9c-3.5,29.3-3.5,164.7,0,192.7c14.3,115.8,32.9,192.1,68.1,280.1c15.3,38.1,17.2,42.3,36.2,80.2
	c52.4,104.7,116.8,192.1,202.5,275.4c96.8,94.1,208.1,165.9,335.7,216.4c82,32.3,176.3,55.6,259.8,64.2
	c62.4,6.5,107.4,7.8,156.1,5.3c25.2-1.4,46.9-2.9,48.5-3.5c1.6-0.6,2.7-0.2,2.7,1c0,1.8-19,54.8-67.9,190.7l-16.8,46.4l-36.4-0.4
	C2552.3,24296,2531.6,24295.6,2526.1,24295.2z M1185.9,23905.3c-105.2-7.2-176.6-19.2-268.8-44.4c-123.8-34-253.1-93.3-359.9-165.3
	c-43-29-71-49.7-107.8-80.4c-131.7-109.9-239.4-246.3-315.3-398.5c-52.8-105.6-86.5-202.9-109-313c-19-93.9-27.2-187.2-24.6-278.4
	c1.6-60.6,4.1-91.9,11.9-147.1c19.2-134.6,55.2-252,115.2-375.6c117-240.8,310.3-438.4,549.9-562.6
	c121.7-63,252.5-105.2,389.3-125.8c56.1-8.4,76.1-10.4,135-13.1c181.7-8,371.7,26.2,538.7,97.4c153.4,65.1,286.2,155.1,402.8,272.5
	l32.1,32.1l-7.6,3.5c-4.1,2-20.1,8.8-35.8,15.5c-47.3,20.1-119.7,57.3-161.8,83.1l-14.1,8.8l-24.1-21.3
	c-121.5-107-256.7-180.4-410.2-222.6c-53.6-14.9-99.2-23.3-170.4-31.5c-47.3-5.5-154.1-4.9-205.4,1c-46.2,5.5-62.8,8-100.4,15.8
	c-219.1,45.8-420.4,164.1-563.8,331.8c-116.6,136.2-192.7,291.9-227.7,466.2c-15.5,76.3-20.5,135.8-19.2,218.5
	c1.4,78.8,7.2,128.7,23.1,200.5c19.6,88.8,45.8,162.2,86.3,242.2c112.7,222.2,301.6,394.6,533.7,486.5
	c80.8,32.1,153.2,50.5,253.3,64.4c34.2,4.9,72.8,7,122.3,7c55.9,0,88-2.3,141.8-10c22.5-3.1,41.3-5.1,41.7-4.1
	c1.2,3.9,38.9,63.6,56.3,89c20.1,29.5,48.1,67.5,71,96.2c7.6,9.6,13.7,18.4,13.3,19.6c-1.6,4.5-106.6,26.2-160.8,33.1
	C1350,23904.9,1240.9,23909.2,1185.9,23905.3z M1884.1,23702.4c-42.8-46.4-79.4-91.9-112.3-140.1c-12.3-18-13.9-21.3-11.3-23.7
	c1.4-1.4,13.9-9.2,27.4-17.4c99.6-60.4,197.4-148.1,270.9-243c106.8-137.5,178.4-306,203.1-478.3c7.6-52.8,9-69.4,10.2-123.2
	c3.9-160.2-27.6-309.5-96.6-457.6l-16.6-35.8l4.7-3.7c8.8-7,98.6-50.5,126-61.2c33.6-13.1,81.2-28.8,83.1-27.6
	c2.3,1.4,18.4,35.2,32.3,67.5c52,121.1,85.3,251.6,96.8,380.7c9,100,4.9,217.5-11,313.8c-51.8,315.9-216.9,594.3-468.3,790.3
	c-36.4,28.4-112.1,80.2-117,80.2C1904.4,23723.4,1894.9,23714,1884.1,23702.4z M2608.5,23461.2c-3.1-0.6-7.2-3.1-9.2-5.9
	c-4.3-6.1-17.4-66.3-24.1-110.5c-13.3-90.2-18.8-142.8-23.7-232.8c-2.9-54-3.9-202.7-1.4-216.9c1.8-10.4,9.8-15.1,27.4-16.4
	c15.1-1,27,1.8,33.3,7.4c4.3,4.1,4.3,4.1,4.3,83.7c0,79,2.2,158.3,5.9,227.1c2.2,38.1,4.1,47.5,18.2,89.4
	c20.1,59.3,46.9,107.2,74.1,133.2c11.9,11.2,18.2,15.1,22.1,13.5c7.6-2.9,8.4-34.8,1.8-84.3c-12.9-98.6-22.5-232.2-23.1-325.1
	c-0.2-39.1,0-41.7,3.9-46.9c11-14.7,51.6-12.7,57.7,2.9c2.5,6.5,5.5,65.5,5.7,110.3c0,27.6,0.8,36.6,5.1,56.5
	c16.4,78.1,49.9,157.7,90.4,215c17.2,24.5,43,50.3,57.7,57.7c11.2,5.7,11.3,5.9,14.3,2.2c5.7-8,3.1-23.9-14.7-85.9
	c-39.5-138.3-55-220.7-55-294.8c0-90.4,20.5-129.1,68.3-129.1c14.3,0,29.1,5.7,36.8,13.9c21.3,23.5,88.2,156.9,113.1,225.7l6.5,17.6
	l21.1,1.4c25.2,1.8,47.1,5.9,64.9,12.3c7,2.5,13.3,4.5,13.5,4.1c0.4-0.4-3.7-9.8-9-20.9c-23.3-50.1-45.8-118.4-53.4-163.1
	c-5.3-30.9-4.3-72.4,1.8-89.4c5.5-14.9,12.7-23.9,23.5-29.1c19.2-9.4,39.5-6.7,52.4,6.8c11.9,12.3,65.5,121.1,84.9,172.1l2.2,5.3
	l15.1-19.2c8.2-10.6,19.6-25.4,25.2-33.1l10.2-13.9l-14.1-10.2c-26.2-18.6-40.3-37.8-44-59.5c-7.4-44.2,36.6-79.2,94.7-74.9
	c61.4,4.5,93.7,39.1,82.4,88.2c-3.9,16.6-17,44.4-29.1,62l-9.2,13.3l13.3,6.7c21.7,11,52.4,23.7,83.5,34.2
	c16.2,5.7,30.3,11.2,31.3,12.1c2.9,2.9-4.3,7.6-11.7,7.6c-12.9,0-63.6-15.8-104.3-32.7c-14.5-5.9-26.8-10-27.6-9.2
	c-1,1-10,11-20.1,22.3c-30.1,33.5-38.9,45.2-46.4,60.6c-6.7,13.9-7,15.8-7,34.2c0,17.4,0.6,20.7,5.5,30.7
	c10,20.3,22.1,24.5,39.1,13.1c16.2-10.8,29-31.5,36-58.9c2.9-11.2,4.3-13.7,8.2-14.7c7.4-1.8,11,1.8,11.5,11.9
	c2,29.3-17.4,64.8-42.1,77.1c-12.5,6.3-27.2,8.8-45,7.6c-22.3-1.4-40.5-10-55.9-26.8c-26.6-28.8-33.3-64.6-17.8-97.6
	c2.5-5.7,4.7-11.3,4.7-12.7c0-7.6-64.2-135.6-82.9-165.5l-8-12.7l-0.6,15.7c-1.8,43.2,10,102.9,39.7,202.3
	c14.1,47.3,22.5,82.2,22.5,92.7c0,6.7-6.3,11.5-16.4,12.5c-7.2,1-11.7-0.4-30.1-8.8c-34-15.6-64.9-23.9-90-23.9h-13.5l3.9,17.2
	c2.9,12.3,3.9,24.6,4.1,44.4c0.2,30.1-1.6,36.2-13.1,44.8c-8.8,6.5-30.3,5.7-45.4-1.8c-15.8-7.6-30.9-23.1-38.7-39.5
	c-5.5-11.7-6.3-15.3-6.3-29.9c0-14.7,0.6-17.8,5.3-25.8c8.4-14.3,30.1-28.6,48.1-32.1c6.3-1.2,6.7-1.8,5.5-7.4
	c-4.1-20.2-58.7-133.4-83.3-172.7c-16.6-26.6-33.8-50.3-36.2-50.1c-1,0.2-3.7,7.6-5.7,16.6c-3.1,13.9-3.7,24.6-3.9,75.9
	c-0.2,67.9,1.2,80.4,18.2,177c18.6,105.8,20.3,118.7,20.5,152.6c0.2,31.1,0.2,31.5-5.7,43c-4.7,9.6-7.4,12.5-14.7,16.2
	c-12.3,6.1-24.1,5.7-38.3-1.6c-24.8-12.5-52.8-41.5-80.2-83.1c-23.7-36.2-36.2-60.1-55.8-106.6l-9.4-22.5l-0.2,60.6
	c0,93.3-4.1,131.5-16.4,152.4c-6.5,11-14.7,15.7-27.6,15.7c-13.3,0-23.7-6.3-41.5-24.8c-18.4-19.4-34.8-44.6-53.8-82.6
	c-8.6-17.2-15.1-29.1-14.5-26.4c0.6,2.7,1.6,27.4,2.3,54.8c1.4,49.7-1,89.8-5.3,95.1C2622.4,23461.4,2615.5,23462.6,2608.5,23461.2z
	 M3094.2,23281.9c3.1-11,2.5-37.8-1-55c-1.8-8.2-3.5-15.5-4.1-16c-2-2-10.4,10.2-12.5,18.2c-4.3,15.7,0,41.7,9.2,55.8
	C3089.9,23290.9,3092.1,23290.3,3094.2,23281.9z M3376.1,22965.1c12.9-31.1,13.9-54.2,2.7-68.7l-4.9-6.5l-7.4,3.9
	c-22.3,11.3-30.5,36.8-19.4,59.7c3.1,6.1,20.1,26.4,22.3,26.4C3369.6,22980,3372.6,22973.4,3376.1,22965.1z M1903.7,23279.3
	c-6.3-2.5-7.2-11.5-5.1-48.7c2.5-40.3,3.9-44,16.4-44.8c13.9-1,13.9-0.6,14.3,46.8c0.2,41.1,0.2,41.3-4.5,45
	C1920.1,23281.5,1910.9,23282.2,1903.7,23279.3z M1912.8,23123.6c-23.7-4.3-49.5-15.7-63-27.8c-15.6-13.9-23.9-33.3-16.6-39.1
	c9.2-7.4,21.7-4.9,36,7.6c13.3,11.3,35.4,22.7,47.9,24.5c8.4,1.2,9,1,16-7.2c20-23.5,19.4-66.3-1.8-110.3c-9.2-19-20-35.2-49.9-73.4
	c-19-24.3-33.3-47.1-33.3-53.4c0-8.4,22.1-11.7,40.3-6.3c5.3,1.6,14.1,2.9,19.6,2.9c29.1,0,43.8-21.5,45.4-66.5
	c1.4-42.4-11.2-91.9-31.7-124c-8.2-12.9-18.2-18.8-32.1-18.8c-11.3,0-22.7,7-30.9,19.4c-6.8,10.4-18.2,14.9-33.3,13.3
	c-12.5-1.4-20.3-5.7-20.3-11.2c0-8.6,8-24.8,16-32.7c19.2-18.4,42.8-24.8,85.5-23.5c73.9,2.3,112.7,30.5,129.5,94.3
	c5.1,19.2,6.1,58.7,2,75.3c-4.1,16.8-14.7,37.2-25.4,49.3c-19.6,21.7-39.5,32.5-71.4,38.5l-17.4,3.3l18.4,13.1
	c46.4,32.7,79.2,71.4,92.5,108.8c22.7,63,0.2,117.4-57.1,138.7c-10.8,3.9-17.4,4.9-36.6,5.3
	C1928.3,23124.2,1915.6,23124.2,1912.8,23123.6z M3538.5,23000c-14.5-7.2-20.3-26-11.2-36.6c9.4-10.8,38.7-10.8,49.3,0
	c10,9.8,7.2,28.6-5.3,36.2C3563.1,23004.5,3547.9,23004.7,3538.5,23000z M532,22865.2c-10.4-8.8-32.9-137.5-44.2-252.9
	c-8.4-87.6-13.7-215.4-11.9-287.8c0.8-27.6,2.2-52.6,2.9-55.8c2.5-9.8,11.9-13.5,33.5-13.5c20.7,0,30.1,3.3,33.3,11.9
	c1.2,2.9,2,44,2,99.2c0,90.4,1.8,161.4,5.9,229.7c2,33.1,4.5,45,17.8,85.1c17.8,53,38.5,94.3,64,126.4
	c15.8,20.3,32.3,33.5,38.5,30.9c8.4-3.1,8.4-34.2,0.2-101.9c-12.1-97.2-18.4-180.2-22.7-297.3c-2-54.8-0.6-77.1,4.9-83.1
	c12.1-13.5,52.2-10.4,59.3,4.5c3.1,6.7,6.1,59.3,6.3,111.1c0,30.9,0.8,42.5,3.9,57.7c23.9,116.2,81,231.6,139.5,281.9
	c29.1,25,40.7,20.3,34-13.7c-1.8-8.8-9-36.2-16-61c-14.5-50.3-35.4-134-42.8-171.2c-18-89-20.7-165.9-8-216.2
	c5.3-21.1,10.2-31.5,20-42.3c10.6-11.7,20.3-16,38.7-17c20.9-1.2,30.5,1.8,41.9,12.3c23.1,21.5,89.8,152.4,120.5,235.7l8.4,22.5
	l22.1,1.2c29.7,1.8,55.4,7,75.7,15.7c4.5,2,8.2,3.3,8.2,2.9s-4.7-10.6-10.6-22.9c-21.7-46.2-44.6-113.3-53.6-157.3
	c-12.3-59.3-8.8-106.4,9.6-128.7c9.8-11.7,19.6-16,38-16c27.2,0,32.3,5.3,65.5,71.6c33.6,66.9,75.7,165.9,71.8,169.8
	c-2.9,2.9-12.3,2.7-15.5-0.6c-1.6-1.4-9.8-17.4-18.2-35.6c-46.6-98.8-85.9-172.9-91.7-172.9c-2.2,0,0,38.3,3.9,69.2
	c5.5,42.6,13.5,76.3,38.9,161.4c14.9,50.5,22.5,82.2,22.5,94.9c0,9.2-5.5,12.9-19.6,12.9c-9,0-14.3-1.6-28.6-8.4
	c-30.1-14.7-61-23.5-92.5-26c-12.3-1-15.8-0.8-15.8,1.2c0,1.4,1.8,12.1,4.1,23.9c5.5,28.4,4.9,65.1-1.4,76.7
	c-5.3,10.4-14.3,14.9-29.5,14.9c-38.9,0-75.1-38-75.5-79.2c0-17.2,4.7-28.4,16.6-39.5c10.2-9.2,21.1-15.5,36.8-20.3
	c6.7-2.2,10.6-4.3,10.2-6.1c-3.1-13.9-30.5-75.9-53.6-121.3c-27.6-54.4-69.6-120.1-74.1-115.6c-6.5,6.5-12.5,71-10.8,116
	c2,51.8,7.4,94.1,24.5,188.8c14.7,81.4,18.2,109.4,18.4,140.8c0.2,31.7-1.6,40.3-11.3,53c-10,13.1-31.7,15.8-50.9,6.7
	c-40.5-19.6-97-95.1-133.6-178.2c-6.5-14.5-13.3-30.5-15.3-36l-3.7-9.8l-1.2,81.2c-1.6,95.7-3.7,117.4-14.7,139.1
	c-10.2,20.5-29.7,26.8-50.5,16c-23.1-11.9-60.3-63.2-86.9-119.7c-5.7-12.5-10-20-9.4-16.4c0.6,3.3,1.6,29.3,2.3,57.7
	c1.6,58.3-1,96.4-6.7,100.9C550.9,22869.7,536.8,22869.1,532,22865.2z M1053.1,22655.3c0-27.8-5.3-54.6-10.2-50.7
	c-5.7,4.9-11,18.4-11.9,31.1c-1,15.1,2.7,31.3,10.4,44.4l5.5,9l3.1-5.7C1052.3,22679.1,1053.1,22672.3,1053.1,22655.3z
	 M1894.3,22538.9c-4.9-4.7-4.9-5.1-4.9-40.5s2-49.3,7.4-54.8c1.4-1.4,7.2-2.3,13.1-2.3c17.2,0,17-0.8,18.2,50.3
	c1,42.8,0.8,44-3.3,48.1C1918.5,22545.9,1900.7,22545.5,1894.3,22538.9z M1318.7,22377.7c-10.6-4.9-16.8-16.2-17-31.3
	c-0.2-9.8,0.2-10.8,7.2-16.6c6.8-5.5,8.8-6.1,20.9-6.1c10.6,0,14.7,0.8,18.8,4.1c10,7.4,13.1,13.3,13.3,25.8c0.2,10-0.6,12.5-4.7,17
	C1347.3,22381.6,1333,22384.1,1318.7,22377.7z"/>
</svg>
