<?xml version="1.0" encoding="utf-8"?>
<!-- Generator: Adobe Illustrator 27.0.0, SVG Export Plug-In . SVG Version: 6.00 Build 0)  -->
<svg version="1.1" id="Layer_1" xmlns="http://www.w3.org/2000/svg" xmlns:xlink="http://www.w3.org/1999/xlink" x="0px" y="0px"
	 viewBox="0 0 400.1 360" style="enable-background:new 0 0 400.1 360;" xml:space="preserve">
<path transform="translate(0.000000,2500.000000) scale(0.100000,-0.100000)" d="M225,24998.3c-76.4-9.9-147.5-65.7-189-148.2
	c-33.9-67.5-44.3-132-29.3-180.6c4.4-14.3,9-18.9,19.1-18.9c9.6,0,15.5,2.6,17.9,8c1,2.2,3.1,15.2,4.4,28.7
	c4.4,41.4,10.9,67.2,25.8,102.8c24.7,58.8,64.8,112.2,107.3,142.4c15.7,11.1,43.3,24.2,56.8,26.9c10.2,2.2,11.1,2,18.4-1.9
	c38.4-20.3,55.4-91.6,45.9-191.2c-8.2-85.3-24.9-149.2-92.1-352.9c-32.1-97.2-55.9-172.3-68.4-215.6c-20-68.7-40.4-155.7-50.1-212.2
	c-17.9-105.6-15-199,8.7-284.3c13.6-48.3,31.4-81.9,55.9-105.4c21.3-20.3,39.9-27.5,71.3-27.1c42.3,0.2,67.7,17.7,103.7,72
	c37.5,56.3,102.7,197.3,207.6,449.4c23.5,56.3,43.7,104.2,45,106.6l2.4,4.3l-0.9-4.3c-2.2-10.6-3.8-89.5-2.4-123.5
	c4.8-118.7,27.8-213.4,75.9-310.8c52.9-107.5,128.1-180.6,206.7-201.4c19.8-5.3,62.3-7.3,81.7-4.1c54.2,9.2,85.8,40.3,103.4,101.8
	c15.9,55.8,18.6,108.3,16,298.3c-2.6,189.8-2.6,658.9,0.2,726.6c4.3,113.1,9,176.4,15.9,209.4c1.9,9.4,2.9,18.2,2.4,20
	c-2.6,7.8-28,11.3-41.1,5.3c-6.3-2.9-7.3-4.3-11.4-15.7c-6.7-18.6-9.2-29.2-13-51.8c-10.6-62.6-16.5-151.5-22.5-333.4
	c-1.2-33.1-2.2-193.8-2.6-382.9c-0.3-213-1.2-336.2-2.6-355.6c-5.3-85.3-22-138.7-52.4-167.5c-12.8-12.3-15-12.8-26.3-7.2
	c-15.2,7.5-30.9,20.3-51.2,41.3c-74.7,77.9-133.4,213-153.8,355.3c-9.7,66.5-10.4,81.2-9.7,185.7c1.5,191.9,1.4,197.7-2,206.9
	c-6.1,15.7-22.5,22.5-51.3,21.3c-20.5-0.9-31.4-4.8-36.7-13.5c-1.9-2.9-13-34.3-24.9-69.6c-62.9-186.9-159.1-419.1-240.7-580.1
	c-33.8-67-54.1-99.9-78.1-127.2c-10.2-11.4-28.5-26.3-32.6-26.3c-2.9,0-10.7,8-16.4,16.9c-33.1,51.5-41.4,179.6-20.1,305
	c14.8,87.8,48.6,213.7,97.6,364.7c9.7,30,27.1,83.4,38.5,118.5c53,162.5,76.8,255.2,83.6,326.6c9.2,94.3-2.7,166.6-34.8,211.7
	c-9.2,12.8-26.1,28.5-39.2,36.3C311.7,24995.9,266.6,25003.8,225,24998.3z M1906.7,24960.9c-26.6-3.8-49.1-16.2-74.7-41.8
	c-100.5-99.8-193.1-322.2-219.8-527.5c-7.5-57.5-10.1-147.2-6-211c1.7-25.8,8.9-97,11.8-115.1l1.4-8.4l-12.8-16.7
	c-37.5-49.1-76.6-94-118.9-136.3c-33.6-33.8-53.6-51.3-76.8-67.9c-13.3-9.6-41.8-24.9-46.1-24.9c-1.2,0-6,3.1-10.7,6.7
	c-35.1,27.8-71.1,121.3-76.2,198l-1,16.2l23.4,11.1c53.6,25.2,95.2,59.9,133.5,110.9c35.8,47.6,59.9,99.8,70.4,152
	c5.5,27.6,5.5,75.9,0,96.2c-9,32.9-26.1,56.1-50.3,67.9c-21,10.4-30.9,12.3-62.6,12.1c-30.7,0-40.6-1.7-64.6-10.9
	c-50.5-19.4-97-75.9-127.1-154c-23.7-61.4-39.2-131.7-45.5-206.9c-2.6-31.9-1.2-102.8,2.7-126.9c6.8-44.2,18.6-81.4,37.5-120.2
	c21.8-44.3,44.5-69.4,78.5-86.1c21.5-10.6,37.2-14.8,63.4-17.4c50-4.8,99.3,7.8,140.9,36c37.7,25.4,88.5,76.8,141.2,142.9
	c9.2,11.6,17.4,21,18.1,20.8c0.9,0,4.3-11.4,7.8-25.1c21.7-84.8,55.3-156.9,87.7-188.1c20.1-19.4,39.4-26.4,69.6-24.9
	c28.3,1.2,44.3,9.4,64.3,32.6c23.4,27.3,57.6,83.2,76.6,124.7c6.7,14.8,10.1,19.4,10.1,14.2c0.2-6,17.1-30.7,29.7-43.3
	c23.5-23.5,46.6-32.1,86.3-32.1c18.6,0,25.6,0.7,36.3,3.8c49.3,14,83.9,49.3,131.8,134.7l11.8,21.2l1-37.4
	c1.5-52.5,7.5-85.1,21.7-117.9c8.7-20,15.7-31,28.3-44.3c12.5-13,24.7-20.6,42.8-26.9c11.6-3.9,17.2-4.8,37.5-5.3
	c27.1-0.9,39.4,1,61.4,9.6c45.9,17.6,95.5,71.3,127.2,137.5c22.2,46.2,31.2,91.1,30.4,150.3l-0.3,27.5l9.4,11.8
	c14.2,17.6,30.4,43.2,43,68.1l11.4,22.2l-1-19.6c-5.8-120.6-4.9-170.9,4.4-245.6c6.5-51.7,13-80.3,21.8-94.1
	c9-14.3,29.7-21.3,57.6-19.6c22.7,1.4,36.2,6.8,41.1,16.9c1.2,2.7,3.1,21.8,4.6,48.6c4.9,82.4,11.1,124.8,27.6,190.7
	c19.3,76.8,50,156.9,74.4,193.9c9.6,14.7,23.2,30.4,26.3,30.4c2.6,0,7-12.5,9.9-27.5c4.1-21.8,6-58.3,7.7-153.5
	c2.2-116.8,3.4-130,13.8-138.7c15-12.6,54.6-12.6,69.6,0c6.5,5.5,9.6,14.7,22.5,69.8c18.1,76.8,30.4,112.9,55.3,163.7
	c29.7,60.5,67.2,113.8,95.2,134.7c9.6,7.2,10.4,7.7,12.1,4.8c1.2-1.7,1.9-12.3,1.7-25.2c0-26.4-3.2-47.9-19.8-133.9
	c-16.4-86.3-21-111.4-25.2-139.9c-14-94.7,2.4-154.9,48.4-177.4c20-9.9,35.6-12.6,65-11.4c33.1,1.4,57.6,8.4,92.4,26.6
	c7.2,3.8,13.1,6.7,13.3,6.5s4.6-9.2,9.7-20.1c23.7-48.6,57.6-78.8,99.3-87.7c16.7-3.8,55.9-2.7,71.8,1.7
	c37.2,10.4,81.9,42.5,139.9,100.6c74.4,74.2,113.6,131.7,138,201.8c8.2,23.7,8,25.2-1.7,29.7c-9.9,4.3-29.8,3.9-37-0.7
	c-2.9-2-9.4-13-19.4-32.4c-24.7-48.8-51.2-85.5-98.1-136.1c-45.9-49.5-102.3-97.6-138.5-117.9l-10.1-5.6l-4.9,6
	c-19.1,22.3-38.2,72.3-45.7,119.1c-1.7,10.2-1.7,12.8,0.2,14.5c1.4,1.2,10.1,8.7,19.4,16.7c22.3,19.3,59.7,57.5,77.1,79.3
	c7.7,9.6,21.1,28.3,30,41.8c58.7,88,73.2,164.9,42.6,223.6c-14,26.6-39.1,39.2-78.1,39.2c-47.9-0.2-82.4-19.1-122.8-67.4
	c-48.3-57.6-79.5-132.2-90.4-217.1c-3.9-30-3.9-85.4,0-110.9c1.5-10.2,3.2-21.5,3.8-24.7l0.9-6l-17.7-9.7
	c-25.6-14-36.3-19.1-51.3-24.4c-12.8-4.6-13.3-4.6-15.5-1.5c-3.4,4.4-7.5,18.4-9.7,33.1c-2.7,18.1-0.9,76.6,3.4,106.6
	c21.3,148.6,27.6,221,22.5,259.1c-7,52-29.7,76.6-72.8,79c-18.9,1.2-29.7-1-45.9-9.4c-40.6-20.8-121.8-132.2-162.2-222.6l-8.4-18.6
	l-1,17.7c-0.7,9.6-2,32.9-3.2,51.7c-3.9,69.1-10.1,94.3-26.8,110.4c-13.5,13.1-38.2,19.6-62.8,16.7c-38.7-4.6-62.6-28.8-96.4-98.1
	c-17.4-35.5-26.6-57.5-42.8-101.3l-11.4-31.4l-1,12.6c-0.5,7-2,38-3.6,68.9c-4.9,103-9.9,132.9-23.9,143.8
	c-12.5,9.7-43.2,11.9-58.2,4.1c-7.7-3.9-7.7-3.8-22-43.8c-14-38.9-66.3-136.1-70.6-131.2c-0.7,0.9-3.4,6.5-6,12.6
	c-11.1,26.3-34.3,53.4-55.9,65.3c-39.9,22.2-100.6,20.8-144.5-3.2c-23-12.6-52.2-38.7-69.6-62.1c-10.7-14.5-20.6-33.9-24.2-47.9
	l-3.2-12.6l-8.2-1c-17.4-2.4-19.4-4.3-36.5-33.9c-14.3-24.7-52-81.9-70.3-106.6c-25.9-35-49.6-58.7-72.8-72.5
	c-12.6-7.7-13-7.5-20.6,5.8c-12.1,21.1-23.2,67.2-27.3,113.2c-2.7,29.3-1.4,93.8,2.6,117.9c10.9,68.7,43.7,140.7,80.8,177.6
	c16.9,16.7,20,18.4,28.3,14.3c9.4-4.4,23.4-17.9,28.7-27.6c5.8-10.7,10.7-29.3,12.3-47.2c2.2-24.6,7.3-29.8,28.1-29.8
	c13.8,0,21.7,3.4,24.7,10.7c4.3,10.4,6.7,41.8,4.3,58.5c-5.5,38.2-31.9,65.7-74.2,76.8c-9.6,2.6-17.9,3.2-40.9,3.1
	c-26.4-0.2-30.4-0.5-44.3-4.8c-30-9-48.6-20-72.1-42.6c-37.9-36.3-71.8-96.7-87.2-154.5c-9.6-36.3-12.3-59.9-12.1-106.4v-34.1
	l-10.6-24.9c-13.5-31.2-42.3-89.7-57.1-115.6c-17.9-31.6-54.7-85.3-58.7-85.6c-1.9,0-15.2,25.1-22.5,42.6
	c-25.1,60-44.2,143.4-53.4,233.3l-2.9,28.7l6.5,10.1c57.3,89,108,186.8,149.8,289.1c54.6,133.5,98.2,295.1,113.3,418.4
	c3.6,30.2,4.1,95.3,0.9,112.6c-7,37.4-22,50.3-61.7,53C1922.4,24962,1912.5,24961.6,1906.7,24960.9z M1915.6,24889
	c0.7-3.1,1.5-22.9,2-44c1.2-43.3-1-70.4-9.7-120.9c-27.3-160.2-90.1-335.5-176-491.2l-17.4-31.6l-0.5,23c-0.7,26.3,2,83.2,5.6,119.2
	c16.5,163.6,72.1,347.1,144.6,476.7c6.8,12.3,39.1,62.3,46.4,72C1913.2,24895.6,1914.4,24894.9,1915.6,24889z M1402.7,24422.3
	c18.4-26.9,23.4-71.3,13.8-121.3c-13.8-73.3-66.9-163.1-124.5-211c-8.4-7-15.5-12.6-16-12.6c-0.5,0-0.5,8.2,0.2,18.4
	c8.2,142.1,42.1,257.4,93.3,317.1c9,10.7,21.7,21.3,24.2,20.5C1394.7,24433.1,1398.8,24428.1,1402.7,24422.3z M3590.1,24280.2
	c23.2-46.1,15.9-99.8-22.7-167.3c-16.9-29.3-50-71.6-77.3-98.6l-11.3-10.9v20.3c0,79.7,26.6,170.7,68.2,233.3
	c14,21,30.4,40.8,33.1,39.9C3581.3,24296.6,3585.7,24289.1,3590.1,24280.2z M2470.8,24171.3c18.6-14.8,37.9-47.4,45.2-76.8
	c7.2-28.3,7.5-26.6-9.2-38c-18.4-12.6-54.7-30.5-72.1-35.6c-15.7-4.4-18.8-3.6-27.8,8.4c-13.3,17.4-17.1,44-9.7,67.9
	c4.6,14.7,18.2,37.7,30.5,51.8c10.4,12.1,29.5,29.2,32.6,29.2C2461.2,24178.1,2466,24175,2470.8,24171.3z M2522.8,23999.5
	c-4.6-35.6-9.2-54.6-19.3-80c-14.5-36-44.3-79.5-73.5-106.9c-13.8-13.1-31.9-26.1-38.7-27.8c-5.3-1.4-11.6,3.4-20.3,15.7
	c-24.2,33.9-37.2,86.5-40.9,166.1l-1.2,23.5l14.7-5.8c21.8-8.9,34.1-10.9,64.3-10.9c19.3,0,30.7,0.9,42,3.2
	c17.7,3.6,46.6,14.7,60.4,23.2C2522.4,24007.3,2523.8,24007.3,2522.8,23999.5z M1042.5,23453.2c-65-4.1-148.4-15.2-173.5-23.2
	c-15-4.8-21-13.5-13.6-19.8c7.2-6.5,20-8.2,61.2-8.2c34.6,0,39.7-0.3,39.7-2.6c0-1.5-2.7-24.4-5.8-50.8
	c-9.6-76.8-14.3-123-16.2-151.3c-5.8-87.8-7.2-265.2-2-275.1c1.5-2.7,6.1-6.5,11.9-9.4c8.4-4.1,11.6-4.6,25.8-4.6
	c17.9,0,29.2,3.2,35.6,10.1c5.1,5.5,8,21.5,11.1,60.7c11.8,148.2,11.9,306.3,0.9,403.9c-1.2,9.6-1.7,17.7-1.4,18.1
	s19.4-0.2,42.5-1.2c62.1-2.6,106.9,1,125.4,10.2c15.4,7.8,18.6,17.6,8.5,26.9c-11.9,11.4-35.6,15.9-87.8,16.9
	C1083.6,23454.4,1055.6,23454.1,1042.5,23453.2z M1912.3,23448.1c-47.6-5.3-97-45-131.3-105.7c-55.8-98.2-69.6-227-34.1-315
	c21.3-52.9,53.4-84.8,98.9-98.8c14.5-4.6,17.2-4.8,49.5-4.9c37.7,0,45.9,1.4,71,11.9c51,21.5,95.5,82.2,117.5,160.7
	c25.1,88.7,17.7,197.5-17.7,264.2c-17.9,33.8-36.8,51.5-72.7,68.1c-6.1,2.9-14.2,7.2-17.9,9.7
	C1962.5,23446.9,1936.9,23450.8,1912.3,23448.1z M1962.1,23392.1c42.3-27.5,68.7-109.8,63.4-198.4c-0.7-12.6-2-28.1-3.2-34.8
	c-5.6-35.6-22-79-42.8-112.9c-19.6-32.1-49.5-63.4-70.1-74l-6.7-3.4l-5.8,3.6c-23.5,14.5-48.3,64.3-57.3,115.8
	c-5.1,28.3-6.3,81.7-2.6,113.4c9,78.6,41.4,159.3,81,201.9l8.4,9l13.5-7.2C1947.3,23401.4,1957.4,23395.4,1962.1,23392.1z
	 M2588.9,23439.6c-32.2-4.6-64.8-18.8-86.1-37.4c-16.4-14.5-29.3-42.1-34.5-73.9c-10.1-63.8-15.4-160.8-12.8-240.5
	c2-65,7.7-111.2,16.7-137.8c4.6-13.6,9-16.2,27.6-16.2c12.6,0,15.9,0.5,20,3.6c9.2,6.8,10.4,14.7,14.2,90.7
	c1.9,38.2,3.9,77.4,4.8,87.3l1.2,17.9l45.2-44.3c80.3-78.8,155.9-148.9,172.3-159.6c14.5-9.6,32.4-12.5,48.4-7.7
	c16.2,4.9,18.8,12.5,8.5,26.1c-21,27.6-108.8,116.3-167.3,169c-24.7,22.2-44.9,40.8-44.9,41.3s4.8,2,10.6,3.2
	c16.2,3.2,48.3,14.3,64.5,22c41.3,19.6,69.1,45.9,84.4,79.5c8,17.4,10.2,28.5,10.1,48.8c-0.2,14.7-0.9,20.1-4.4,30.4
	c-8.9,24.6-30.9,53.4-53.4,69.6c-14.2,9.9-36.3,20.3-52.9,24.7C2645.6,23440.2,2606.9,23442.1,2588.9,23439.6z M2642.8,23394.9
	c31-14.8,50.8-46.6,47.1-75.4c-5.3-39.4-38-78.5-84.8-101c-10.9-5.3-45.4-17.2-57.8-20.1c-5.8-1.4-5.6-3.6-3.1,47.1
	c3.9,76.8,6.3,94.7,16.2,115.1c9.4,20.1,28.5,35.8,49.5,40.8C2621.2,23403.9,2626,23403.1,2642.8,23394.9z M2354.3,23413.3
	c-10.1-3.8-15-8-17.4-15.3c-5.6-16-10.2-65.2-16-169.9c-6.3-115.1-10.6-149.4-24-193.6c-5.6-17.9-16-41.8-18.4-41.8
	c-3.9,0-19.3,42.5-27.3,75.4c-15.7,64.6-24.2,136.6-28.3,240.5c-2.7,66-4.3,82.7-8.5,89.5c-3.4,5.1-13.1,7.8-25.8,7
	c-12.5-0.9-18.8-4.4-23-13.5c-6.8-14-20.6-75.6-26.6-117.5c-4.3-31.4-4.4-129.5,0-162c12.8-94.3,42.1-155.7,83.2-173.8
	c20-8.9,53.2-11.6,76.4-6.1c33.9,8,59,33.9,76.9,79.1c20,50.3,28.7,102.3,35,206.5c6.8,117,7.5,173.1,1.9,184
	c-4.6,8.9-14.5,12.6-34.3,13.3C2366,23415.5,2358.9,23415,2354.3,23413.3z M1277,23401.5c-32.6-11.1-69.9-54.8-93-108.6
	c-23.7-55.4-35.3-110.5-35.1-168c0-53,8-93.3,27.5-136.4c13.6-30.4,39.7-59.7,63.6-71.3c19.8-9.7,36.8-13.1,65.3-13.1
	c28.7,0,43.5,3.2,63.6,13.6c48.1,25.1,77.8,83.6,95.5,188.6c7.8,46.9,9,109.7,2.7,145.7c-8,44.7-24.9,79.3-50.8,103.5
	c-23.7,22.2-44.3,33.8-70.8,39.9c-8.2,1.9-18.4,4.9-22.9,6.7C1311.5,23406.8,1291.7,23406.6,1277,23401.5z M1321.7,23365.2
	c11.4-5.8,34.6-29,45.2-45.4c37.2-57.1,42.6-135.1,16-229.4c-11.9-42.3-26.4-75.9-43.8-102.3c-9.7-14.7-28.1-34.6-31.9-34.6
	c-7.8,0-33.3,44.5-43.8,76.6c-24.6,74.9-22,172.3,6.8,259.4c12.5,37.7,33.8,80.2,40.3,80.2
	C1311.8,23369.6,1316.9,23367.6,1321.7,23365.2z M191.4,22867.3c-40.9-7.5-68.9-22.3-98.9-52.7c-41.3-41.8-67.2-99.1-67.4-148.2
	c0-20.5,2.6-27.6,10.9-31c7.7-3.2,21.7-3.2,29.2-0.2c6.1,2.6,6.1,2.9,8.5,22.3c1.5,11.6,11.8,41.4,20,58
	c22.5,44.7,65,90.1,99.4,105.9c22.2,10.2,26.9,9.2,42.6-8.2c31-34.6,47.4-108.8,42.1-191.2c-2.6-39.9-8.9-91.9-17.6-143.6
	c-6.3-38.2-8.9-51.7-22-121.4c-20.5-109.2-28.7-176.9-30.2-248.7c-1-55.4,0.7-83.2,8-126.6c14.7-85.3,51.3-146.3,101.5-168.5
	c18.4-8,28.8-9.9,56.3-10.1c27.6,0,40.6,2.6,59.7,12.1c52.9,26.6,95,97.2,134.6,226.3c11.9,38.4,18.9,64,40.1,144.1
	c2.9,10.6,5.5,19.6,5.8,20c0.3,0.3,3.1-11.9,6.1-27.1c19.3-96.4,52.7-170,109.2-240.8c58.3-73,120.2-110.2,183.2-110
	c55.3,0.2,84.6,22.7,97.4,75c8.5,35,8.2,27.5,11.3,276.3c1.7,134.2,2.9,174.5,7.7,271.2c2.7,54.7,3.6,64.5,10.4,135.6
	c6.3,66.3,13.8,114.8,22,144.1c5.6,20.3,5.6,23.2-1.2,27.3c-7.5,4.4-26.9,4.8-35.5,0.3c-6.8-3.4-10.4-9.9-19.6-36.3
	c-20-57.3-31.9-135.3-45.2-294.4c-4.4-53.7-9.2-198.7-11.9-362.9c-1.5-94.5-2.9-123.3-7-144.1c-4.4-23.7-15.7-48.6-23.9-52.9
	c-11.6-6.3-63.1,38-93.1,80.2c-77.1,108.3-112.4,228-120.2,407.5c-1.5,35.1-1.5,53.6,0.2,84.4c4.9,89.9,5.3,85.8-9.7,93.5
	c-22.3,11.3-60.9,6.3-68.1-8.9c-3.2-7.2-10.7-43.8-14.3-69.9c-6.1-45.4-38.7-185.2-68.2-291.1c-3.6-13.5-9.7-35.6-13.6-49.5
	c-28.8-103.9-54.9-169.4-86.5-217.1c-20.8-31.6-50-58-64.1-58c-3.6,0-7.5,2.7-16.4,11.6c-9.4,9.4-13.3,15-21,31
	c-17.4,35.3-24.9,71.1-28.7,134.2c-2.2,39.6,1,117,7,165.1c5.8,45.7,16.9,113.1,29,175.7c15.2,78.5,26.9,150.1,32.7,200.4
	c3.1,27.3,3.9,42.1,3.9,82.7c-0.2,43.8-0.5,52-4.1,72.5c-11.3,66.2-38.7,114.6-78.3,138.2C274,22866.8,228.4,22874.2,191.4,22867.3z
	 M2508.1,22866.5c-22.2-3.8-38.2-13-57.8-33.4c-51-53-101-157.3-135.3-282.4c-8.5-31-23.2-91.4-23.2-95.7c0-4.4-2.2-4.6-14.7-2
	c-15.2,3.2-49.1,3.2-67.4,0c-49.1-8.5-93-35.5-125.2-76.8c-14.3-18.2-23.2-33.1-35.8-59.7c-26.3-54.7-38.4-101.8-42.6-165.1
	c-1-15.5-2-18.9-14.5-50.3c-32.6-82.6-72.5-164.1-80.2-164.1c-2.2,0-14.7,25.6-19.4,39.4c-10.2,30.2-19.8,79.7-24.9,130.3l-1.9,18.8
	l16.2,33.3c74.5,153.7,140.7,367.7,156.1,505c6.1,54.1,4.1,101.3-5.1,120.4c-8.2,17.1-24.9,25.1-51.8,25.1
	c-34.8,0-57-13.1-84.4-50.3c-47.9-64.5-83.9-156.1-112.7-285.3l-3.8-16.7l-6.1,1c-22.9,4.1-30.2,4.8-46.2,3.9
	c-61.7-3.6-101.3-30.7-147.2-101c-37.5-57.6-58.8-117.2-67.7-189.3c-1.9-13.8-3.1-17.2-12.3-34.1c-47.4-86.5-121.1-176.4-161.5-197
	c-13.8-7-31-4.1-53.4,8.9c-50.8,29.3-78.3,94.8-80.8,192.4c-0.5,18.2-0.3,39.4,0.5,46.9l1.4,13.5l21.3,5.5
	c87.2,22.2,160.2,74.5,185.6,132.9c7.2,16.7,9.4,28.7,8.5,45.7c-1.4,26.6-14.2,44.9-40.1,57c-22,10.2-30.2,11.6-66.2,11.6
	c-34.6,0-44.7-1.5-69.1-10.6c-70.3-26.3-121.1-109.2-140.7-229.1c-3.8-22.5-5.1-79.5-2.7-105.7c5.6-60.2,23.5-106.6,56.1-144.6
	c25.4-29.5,74.5-55.4,118.7-62.6c19.3-3.1,59-3.2,76.1-0.2c17.6,3.1,37,11.3,52.5,22c25.8,17.6,71.3,67.7,98.1,107.8
	c5.6,8.5,10.7,16,11.4,16.7c0.7,0.9,3.1-4.1,5.1-11.1c8.5-28.5,26.4-58.7,44.3-75.2c33.9-31.2,86.1-41.1,135.3-25.8
	c22.3,7.2,38.2,17.6,62.4,41.1c11.8,11.4,21.5,20.6,21.7,20.5c0-0.2,1.9-4.9,4.1-10.6c6-15.9,19.6-39.7,29.5-52
	c23.5-29,52.7-43.2,89-43.3c29.3,0,49.8,8.7,64.8,27.5c8.4,10.4,32.9,59,44.5,87.8c3.6,9.2,7.2,16.7,7.7,16.7c0.5,0,2.6-3.2,4.3-7.2
	c8.5-18.9,26.1-41.4,41.6-53.4c11.9-9.2,34.3-20.1,48.3-23.7c15.7-4.1,43.3-6.5,59.2-5.3c43.8,3.4,70.8,15.7,105.4,47.8
	c7.8,7.3,14.3,13,14.7,12.6c0.2-0.3,2.6-4.4,5.3-9.2c28.1-49.8,66-71.8,116-67.2c32.1,2.9,53.9,18.4,78.1,55.3
	c10.6,16.2,33.3,61.2,41.8,82.6l4.9,12.6l1.2-6.7c7.7-41.6,23.4-77.3,43.5-98.4c16.5-17.4,35.3-25.1,61.7-25.1
	c33.9,0,54.1,10.9,72.5,39.2c7.8,12.3,21.7,39.2,28.8,56.3c2.6,6.1,5.1,11.6,5.8,12.3c0.5,0.7,1.2-25.1,1.2-57.1
	c0.2-76.9,3.1-96,15.4-104.7c20.3-14.2,69.8-10.4,78.1,6c1.5,3.2,2.7,14.8,3.6,37.9c1.5,44.5,6.5,71.5,21.7,117.7
	c29.2,89.5,99.9,207.9,163.2,273.4c20,20.8,53.2,46.6,57,44.3c3.9-2.4,0-41.6-13.3-134.4c-9.9-69.1-12.8-147.9-7.2-187.1
	c3.8-24.9,12.8-58,21.7-79.5c21-50.3,40.3-66.9,77.6-66.9c39.6,0,67.4,23.4,93.6,78.8l8.9,18.4l4.8-4.9c6.1-6.5,20.8-14.2,36-18.9
	c15.2-4.9,54.7-6.7,73.2-3.4c55.1,9.7,91.1,42.6,128.4,116.8c10.6,20.8,47.4,102.7,69.8,154.7c5.5,12.8,10.2,23.2,10.4,22.9
	c1.2-1.2-88.5-408.1-90.2-409.3c-0.3-0.2-12.8-11.1-27.8-24c-73-63.8-142.1-134.1-177.9-181.3c-45-59.2-65.2-123.3-53.2-169.9
	c10.6-41.8,41.4-67.5,88.7-74.5c17.1-2.4,43.8-1.2,59.7,2.9c27.1,6.8,53.9,24.2,74.5,48.3c26.8,31.2,57.8,85.8,74.5,131.3
	c15.7,42.1,40.9,140.9,63.3,247.5c7.3,34.6,3.1,28.7,42.6,60.4c61.2,49.3,141.4,105.4,197.8,138.5c33.9,20,88.3,47.2,116.5,58.5
	c25.1,10.1,31.6,14.2,30.7,19.4c-1.5,9.9-22.9,15-44.2,10.6c-40.3-8-116.7-41.3-183.4-79.8c-29.5-16.9-82.9-51.2-110.5-70.8
	c-12.1-8.7-22.3-15.4-22.7-15c-0.3,0.3,2.4,16.2,6.1,35.3c43.5,220.5,70.8,415.8,65,466.5c-1.9,17.2-5.1,23.7-14.5,28.7
	c-8,4.3-30.4,5.8-41.3,2.9c-13-3.6-15.7-7.5-31.9-46.4l-2.6-6.3l-10.4,4.3c-26.4,10.6-69.6,11.9-103,3.2
	c-46.6-12.1-102-45-144.8-86.1c-58.2-55.9-90.9-117.5-104.2-196.3c-3.2-19.4-6.1-62.4-4.9-73.3c0.7-6.5-0.9-11.9-9.7-35
	c-5.6-15-14.5-35.8-19.6-46.2c-10.4-21.3-32.9-56.3-35-54.1c-3.6,3.9-13,49.3-18.1,86.6c-3.9,28.5-3.9,103.2,0,174.8
	c3.1,57.1,3.6,110.2,1,125.7c-4.6,28.7-15,45.7-31.9,53c-19.3,8.2-48.8,6.3-71.1-4.4c-52.5-25.4-129.3-113.9-194.8-224.8
	c-17.2-29.2-15.7-27.1-17.1-25.9c-1.2,1.4,2,49.1,7,104.6c6.3,69.6,9.6,120.4,8,126.2c-3.1,11.8-30.7,17.1-47.8,9.4
	c-6.1-2.7-8-4.9-11.8-13.1c-5.3-12.1-20.1-70.6-30.4-119.9c-4.1-20.1-9.4-42-11.6-48.6c-14.8-42.1-43.8-105.2-66.7-144.6
	c-11.1-19.1-31.4-47.9-38.4-54.7l-4.9-4.6l-5.1,12.5c-19.4,46.6-29,116.3-24.4,175.3c1,13.6,3.1,38.9,4.4,56.3s3.8,43.8,5.5,58.8
	c1.5,15,2.2,29.5,1.5,32.1c-3.4,13.6-44.9,16.5-58.5,4.3c-4.6-4.3-9.4-15.2-15-34.8c-4.4-15.3-14.3-58.7-17.9-79.1
	c-3.6-20.3-44.7-116.8-70.4-165.3c-21.8-41.3-49.6-80.5-63.6-89.7c-4.6-3.1-4.8-3.1-8.7,1.9c-16.9,20.8-31.2,65.5-38,118.4l-2,14.5
	l17.1,28.1c49.1,81.9,102.2,190.5,140.7,288.2c49.1,124.8,76.2,243.2,76.2,333.4c0,63.6-13.1,101.7-39.9,115.5
	C2548.9,22866.8,2526.7,22869.6,2508.1,22866.5z M2528.7,22811.4c7.5-20.1,9.2-34.3,9.4-72c0-39.4-1.5-54.4-10.2-101.8
	c-16.5-91.6-51.5-193.1-106.9-311.1c-14.3-30.5-51.2-102.3-54.2-105.6c-2-2-1.9,26.1,0.2,57.1c2.7,37,12.8,113.6,20.6,156.1
	c25.6,138.8,54.6,237.2,93.6,317.2c15.9,32.6,38.4,69.1,42.5,69.1C2524.5,22820.4,2526.9,22816.3,2528.7,22811.4z M1982.1,22705.3
	c0.2-32.4-0.5-42-4.6-69.9c-11.1-74.7-32.9-159-67.2-259.2c-12.1-35.6-39.9-108-43.5-113.4c-5.6-8.9,7.5,131.7,18.2,194.4
	c20.3,117.3,50.7,215.9,86.5,281.2c6.7,12.1,7.2,12.5,8.9,8.5C1981.4,22744.5,1982.1,22727.3,1982.1,22705.3z M1757.1,22425.6
	c16.5-8,15.7-5.3,11.4-37.9c-15.7-121.1-18.1-218.1-7.2-292.3c1.9-12.6,3.4-24,3.4-25.4c0-3.4-25.2-37-40.3-53.9
	c-18.6-20.8-47.2-43.3-60-47.4c-2.7-0.9-5.3,0.9-11.9,7.5c-14.2,14.3-28.3,45.2-34.3,74.5c-13.5,66.2-4.4,163.4,21.8,232.8
	c26.8,71,63.6,127.6,92.1,141.7C1743.7,22430.9,1746.4,22430.9,1757.1,22425.6z M2274.1,22416.4c8.4-3.8,8.7-5.1,6-20
	c-14.3-75.6-21.8-181.5-17.4-241.2c1.9-26.1,5.8-59.7,8.5-74.2c1.5-8.7,1.7-8.4-14.2-28.1c-23.5-29-48.6-53.4-69.1-66.9
	c-6.8-4.4-14.2-8.2-16-8.2c-6.8,0-22.3,18.6-31.7,37.7c-17.7,36.7-23.4,70.6-21.8,132c0.5,20.6,2.2,45.2,3.8,54.6
	c8.2,52.5,34.5,124.2,58.8,160.5c17.4,25.8,43.2,48.8,62.3,55.6C2253.3,22421.8,2263.2,22421.2,2274.1,22416.4z M1326.6,22414
	c18.2-12.3,21.5-38.9,8.5-69.6c-14.5-34.6-53.7-71.8-101.3-96.4l-22.2-11.4l1.2,8.4c3.6,25.1,19.3,73,32.7,100.1
	c18.1,35.6,42.6,62.4,65.2,70.4C1319.3,22418.6,1320,22418.4,1326.6,22414z M3574.8,22404.3c8.9-6,21.8-19.3,21.8-22.5
	c0-3.4-59.9-123.7-80.5-161.7c-55.1-101.5-90.1-156.6-117.2-184c-14.7-14.8-20.3-18.8-22.5-15.4c-6,9.6-10.9,58.5-9.4,91.1
	c4.4,90.4,28.1,154.9,79.1,215.8c27.8,33.3,68.2,64.5,100.8,77.9C3559.8,22410.6,3565.4,22410.4,3574.8,22404.3z M3477.2,21698.7
	c-22.7-97.2-35.6-137.3-59.7-184.5c-18.2-35.8-43.2-69.1-54.6-72.7c-5.3-1.7-11.1,2.9-18.8,14.7c-8,12.3-10.7,24.2-10.6,45
	c0.2,42.5,22.9,93.3,64.1,144.8c19.6,24.4,87.5,97.6,89,96C3486.9,21741.8,3482.7,21722.2,3477.2,21698.7z M2627.5,22501.3
	c-23.4-3.4-35.8-16.5-44-46.1c-7.3-26.9-1.4-44.2,18.4-53.2c12.1-5.5,35.8-6.1,51-1.4c25.6,7.7,33.4,19.3,33.6,49.6
	c0.2,22.3-2.6,32.6-10.9,40.9C2666.4,22500.5,2647.3,22504.4,2627.5,22501.3z"/>
</svg>
