<?xml version="1.0" encoding="utf-8"?>
<!-- Generator: Adobe Illustrator 27.0.0, SVG Export Plug-In . SVG Version: 6.00 Build 0)  -->
<svg version="1.1" id="Layer_1" xmlns="http://www.w3.org/2000/svg" xmlns:xlink="http://www.w3.org/1999/xlink" x="0px" y="0px"
	 viewBox="0 0 542.3 360" style="enable-background:new 0 0 542.3 360;" xml:space="preserve">
<g>
	<path d="M0,195.8v151.8h186.1h186.1v-2.1v-2.1H189H5.7V196.4V49.4H24c14.4,0,18.3-0.1,18.4-0.4c0.1-0.2,0.2-1.4,0.3-2.7l0.2-2.3
		H21.5H0V195.8z M362.3,46.6l0.1,2.7l85.8,0.1l85.8,0.1v146.9v146.9l-30.2,0.1l-30.2,0.1v2v2l34.4,0.1l34.4,0.1V195.8V44h-90.1
		h-90.1L362.3,46.6z"/>
	<path d="M209,0.1c-2.5,1-2.6,1.2-3.8,6c-1.4,5.8-3.3,17.8-4.1,27.5c-0.2,1.7-0.5,5-0.7,7.4c-0.9,8.8-2,24.1-2.5,32.9
		c-0.1,2.7-0.5,8.7-0.7,13.2c-1.3,25.5-2.1,58.7-2.1,90.6c0,32.1-0.5,41.8-2.4,51.8c-1,5.2-3,10.8-4.7,13.4
		c-0.3,0.5-0.1,0.7-3.1-3.2c-7.7-10.3-14.6-25.8-19.1-43.4c-5.1-19.9-7.6-35.5-11.7-73c-0.9-8.1-1.4-11.7-2.2-14.4
		c-0.8-3-1.5-3.9-3.4-4.8c-1.5-0.7-1.9-0.7-5.2-0.7c-3.1,0-3.8,0.1-4.9,0.6c-2.3,1.1-2.5,1.6-3.2,8.8c-0.5,5.1-1,7.1-3.6,14.7
		c-2.7,8.2-4.8,14-12,32.9c-3.4,9-7.9,20.9-9.9,26.4c-11.4,31.6-18.9,50.1-24.6,60.9c-2.7,5.2-2.5,5.1-3.5,0.8
		c-3.8-15.8-5.7-43.7-4.9-73.2c0.3-12.6,1.1-27.4,1.9-37.3c0.2-2.9,0.5-6.1,0.6-7c1.2-15.1,5.3-52.3,7.1-65c0.2-1.5,0.7-4.5,1-6.7
		s1-7,1.6-10.7c2.8-19.2,3.1-22.2,3.2-29.4c0-5.9-0.1-6.5-0.6-7.4c-0.9-1.4-2.1-2-4.7-2c-2.3,0-3.7,0.5-4.5,1.5
		c-0.3,0.4-1.2,2.8-1.9,5.4c-0.7,2.6-1.9,6.2-2.5,8.1c-7.5,23.4-13.8,48.1-17.3,67c-3.5,18.9-6.1,37.2-7.8,53.7
		c-0.7,6.7-1.4,14.1-1.6,17.4c-0.1,1.3-0.4,5.5-0.6,9.1c-0.4,5.1-0.5,10.9-0.5,24.4c0,18.9,0.3,24.1,1.8,36
		c2.2,16.8,6.3,27.9,12.1,33.2c2,1.8,5.3,3.5,8.3,4.3c2.9,0.8,11.4,0.8,14.3,0c6.1-1.7,9.3-4.5,12.5-11.2c2.9-6.1,4.9-12.3,10.3-33
		c10.9-42.1,13.1-49.4,23.1-78.7l1-2.8l0.2,2.5c0.1,1.4,0.3,5.6,0.5,9.3c1,22.5,5.3,45.7,11.4,61c6.5,16.6,16.4,29.4,26.8,34.7
		c7.7,3.9,18.8,4.3,25.7,0.9c5.8-2.9,9.2-9.5,11-21.6c1.3-8.9,1.4-11.5,1.5-51c0.1-48.6,0.6-78.4,1.8-106.3
		c0.8-17.9,1.1-25.4,1.3-26.9c0.1-0.9,0.3-4.1,0.4-7.1c0.5-9.5,1.9-27.4,2.7-34.1c0.5-3.8,0.4-4.2-1.1-4.9
		C214.5,0.1,209.9-0.2,209,0.1z M322.2,27.7c-8,1.1-14.2,6.3-22.9,19c-17.5,25.5-27.6,57.1-35.1,109.8c-2.9,20.5-4.7,47.1-4.2,61.2
		l0.2,4.9l-3.2,3.2c-3.1,3-6.1,5.5-6.5,5.5c-0.2,0-1.7-4.2-2.4-6.9c-4-14.9-4.9-36.9-3.2-75.8c0.2-5.4,0.4-14.4,0.5-20
		c0-15-0.5-16.7-4.6-17.4c-3.4-0.7-7,0.5-7.8,2.6c-0.6,1.5-3.4,11.7-4.8,17.2c-10.4,41.8-12.3,76.6-5.4,96.3
		c3.5,10.1,8.7,15,17.8,16.7c6.3,1.2,13.4,0.4,18.6-2.1c0.9-0.5,1.8-0.8,1.9-0.7c0.1,0.1,0.3,1.4,0.4,2.9c0.4,6.3,2,17.2,3.6,25.4
		c4.8,24,15.4,47.4,26.9,59.5c4.3,4.5,7.5,6.7,12.1,8.1c2.5,0.8,8.7,1.1,11.7,0.6c2.4-0.4,5.1-1.7,6.6-3c5.5-5,6.1-19.8,1.6-42.5
		c-3.2-16.4-9-31.8-16.6-44.5c-1.2-2.1-4.9-7.7-8.2-12.7c-6.4-9.5-7.9-12.2-7.9-13.5c0-1,0.5-1.3,3.2-1.9c6-1.3,22.1-5.9,27-7.8
		c0.3-0.1,0.7,0.9,1.4,3.1c3,9.4,7.8,15.5,14.6,18.7c5.9,2.8,15.3,3.2,21.9,1c4.7-1.6,9.1-4.4,13.6-8.6c5.3-5.1,9.9-11.3,14.9-20.5
		l2.6-4.6l0.3,3.4c0.6,5.6,1.9,10.4,4.1,14.7c1.5,2.9,2.5,4.3,4.7,6.5c5.2,5.3,12,7.9,20.7,7.9c13.6,0,20-5.1,29.4-23.3
		c2.2-4.3,2.9-5.5,2.9-4.9c0,0.5-0.3,3.5-0.6,6.7s-0.8,8.4-1.1,11.5l-0.5,5.6l-3.5,4.4c-10.7,13.2-23,30.4-31.8,44.4
		c-10.3,16.5-16.2,30.2-19.1,44.7c-0.6,2.9-0.6,4.1-0.6,10.6c0,7,0,7.4,0.8,10.1c0.4,1.6,1.4,4.2,2.2,5.8c2.7,5.4,6.6,8.5,13,10.1
		c2.2,0.5,3.3,0.7,7.6,0.6c4.4,0,5.4-0.1,8.2-0.7c12.3-2.9,21.7-10.9,29.3-25.1c4-7.5,8.7-20.7,11.9-33.4
		c4.8-19.3,6.8-35.8,9.3-76.3l0.4-7l1.9-2.2c1.1-1.2,4.6-4.9,7.8-8.2c11-11.2,17.8-16.4,25.4-19.7c4.3-1.8,4.6-2,5.1-2.7
		c0.6-0.9,0.2-1.7-1.1-2.5c-1.1-0.5-1.6-0.6-4.6-0.6c-3.3,0-3.6,0.1-7.1,1.2c-7.4,2.5-14.3,6.5-22.2,12.8c-1.8,1.4-3.5,2.8-3.8,3
		c-0.6,0.4-0.6,0.4-0.4-4.1c0.1-2.5,0.3-7.5,0.5-11c0.2-3.5,0.5-10.4,0.7-15.2c0.3-4.8,0.5-12.3,0.5-16.6c0.1-9,0-9.2-2.3-10.4
		c-3.7-1.9-9.4-1.7-12.8,0.3c-1,0.6-1.4,1.1-2.2,2.8c-1.1,2.3-2.9,9.2-4.4,16.3c-0.9,4.2-0.9,4.3-4.4,11.4
		c-10.8,21.7-21.6,39.2-28.8,46.6l-2.5,2.6l-0.6-0.7c-1.5-1.8-3.5-6.6-4.7-11.1c-2.1-8.1-2.7-16.9-3-40.5c-0.2-18.6,0-17.4-2.8-18.7
		c-1.5-0.7-1.9-0.8-5.1-0.8c-5.2,0-7.2,0.9-8.8,4.1c-2.3,4.7-5.1,15.4-6.3,24.2c-0.5,3.6-1,4.9-5.5,12.8
		c-11.4,20.1-21.2,31.6-31.1,36.4c-3.6,1.8-3.6,1.8-5.4-0.1c-3.7-3.9-6.4-12.7-7.2-23.4l-0.2-2.7l1.7-1.2c3.7-2.6,9.2-7.2,13-10.9
		c13.8-13.4,20-25.7,18.1-35.4c-1.5-7.3-6-11-14.6-11.6c-6.8-0.5-13.8,1.7-19.2,6c-7.7,6.1-15.5,19.8-18.8,33
		c-1.4,5.7-1.9,9.1-2.1,15.3l-0.2,5.9l-2.2,1.1c-3.8,1.9-15.8,6.1-25,8.8c-7.3,2.1-9.1,2.6-9.2,2.5c0,0,0.9-1.7,2.1-3.8
		c8.5-14.2,20.2-37.5,27.9-55.6c7.6-17.8,14.4-37.6,19.4-57.2c6-23.3,8.7-43.4,7.2-54.5c-0.8-6-2-9.3-4.4-11.9
		c-2.4-2.6-5.1-3.7-9.7-4C325.1,27.5,323.2,27.6,322.2,27.7z M326,38c5.2,10.3,2.9,37.6-5.8,67.2c-8,27.1-18.4,51.3-33.9,78.5
		c-2.1,3.6-3.8,6.6-3.9,6.5c-0.1,0,0.1-3,0.4-6.6c1.7-25.9,6.7-58.8,12.3-81.1c5.8-23.3,14-43.1,24.2-58.4c1.8-2.7,5.5-7.5,5.7-7.5
		C325.3,36.6,325.6,37.2,326,38z M359.9,151.8c1,2.3,1.1,6.8,0.3,9.9c-0.8,3.1-2.9,7.5-5.1,10.5c-3.9,5.5-11.8,14-11.4,12.4
		c1.3-6.1,1.9-8.2,2.9-11.7c2.9-9.3,6.6-16.9,10.5-21c0.8-0.9,1.6-1.6,1.8-1.6C359.1,150.3,359.5,151,359.9,151.8z M290.2,241.5
		c5.4,8.1,9.5,16,12.7,25c3.8,10.6,5.9,19.2,7.5,31.7c0.7,5.7,0.7,20.4,0,23.7c-0.3,1.3-0.5,2.3-0.6,2.4c-0.1,0.1-0.9-1.1-1.9-2.7
		c-8.6-12.9-16-31.8-20.1-51.3c-2.3-10.7-4.2-25.4-4.9-36.4l-0.2-3.1l2.6,3.7C286.8,236.6,289,239.7,290.2,241.5z M447.4,260.3
		c-0.9,9-2.4,20.4-3.5,27c-0.9,5.8-1.3,7.4-3.3,17.3c-0.8,3.8-3,12.3-4.4,16.7c-2.8,9.2-6.1,16.8-9.2,21.6c-1.8,2.7-6.2,7.3-7.9,8.1
		l-1.3,0.6l-1.3-1.3c-1.7-1.7-3.6-5.6-4.4-9.2c-0.9-4.1-0.9-10,0.1-15.6c2.3-13.4,8.8-28.1,20.7-47.2c5.7-9.1,14.3-21.9,14.6-21.6
		C447.7,256.9,447.6,258.5,447.4,260.3z M241,68.4c-2.1,0.6-3.9,1.8-5.9,4c-3.1,3.3-4.9,7.8-5.1,12.9c-0.1,2.5-0.1,3.5,0.3,4.8
		c0.6,2.1,2.5,4.2,4.5,5.1c1.4,0.6,1.9,0.7,5.7,0.7c4.1,0,4.2,0,6.1-0.9c2.9-1.5,4.1-3.3,5.6-8.8c0.7-2.5,0.7-3.4,0.8-7.7
		c0-4-0.1-5.1-0.5-6.3c-0.6-1.7-1.9-3-3.5-3.5C247,68,242.8,67.9,241,68.4z"/>
	<path d="M108.1,292.1c-4.1,0.9-6.7,3.8-6.7,7.6c0,4.3,2.1,6.1,9.2,8c2.1,0.5,4.2,1.3,4.8,1.6c2.8,1.4,3.4,4.5,1.4,6.7
		c-1.3,1.5-2.9,1.9-6,1.8c-3-0.1-4.9-0.8-7.3-2.7l-1.4-1l-0.9,0.9c-0.5,0.5-0.9,1.1-0.9,1.2c0,0.5,2.4,2.1,4.3,3
		c2.4,1.1,4.4,1.5,7.6,1.4c3.1-0.1,4.7-0.7,6.5-2.3c3.1-2.7,3.3-7.9,0.3-10.5c-1.6-1.4-2.9-2-7.1-3.1c-5.9-1.6-7.4-2.7-7.4-5.4
		c0-2.9,2.2-4.6,5.9-4.5c2.5,0,4.8,0.7,6.7,1.9l1.4,1l0.7-0.9c0.4-0.5,0.8-1.1,0.9-1.3c0.3-0.5-2.5-2.3-4.6-2.9
		C113.5,292.1,109.8,291.8,108.1,292.1z M171.8,292c-2.8,0.5-5.1,2-6.9,4.3c-0.7,0.9-1.1,1.6-1,1.7c0.1,0.1,0.6,0.5,1.1,0.8l0.9,0.6
		l1.9-1.9c1.6-1.6,2.2-2,3.6-2.4c2.9-0.9,5.1-0.2,6.9,1.9c0.8,1,0.9,1.3,0.9,3c0,3.4-1.2,4.9-10.3,13l-5.5,4.9v1.3v1.3h9.7h9.7V319
		v-1.4l-7.3-0.1l-7.3-0.1l3.4-3c9.8-8.6,11-10.2,11-14.6c0-3.3-1.7-5.9-4.8-7.2C176.4,292.1,173.2,291.8,171.8,292z M197.1,292.1
		c-2.7,0.7-5.8,3.2-7.3,5.9c-2.5,4.7-2.5,12.1,0,16.7c1,1.9,3.2,4.1,4.9,5c0.7,0.4,2.2,0.8,3.2,1c5.9,0.9,10.9-2.7,13-9.6
		c0.7-2.3,0.7-7.3,0-9.7c-1-3.5-3.1-6.4-5.6-8C203.1,292.1,199.6,291.5,197.1,292.1z M203.2,295.8c2.8,1.7,4.5,5.2,4.8,9.6
		c0.5,7.2-3.1,12.5-8.3,12.5c-3.3,0-5.7-1.7-7.4-5.4c-2.3-5.1-1.4-12,2.2-15.6c1.6-1.6,3.1-2.2,5.5-2.1
		C201.4,294.9,202.2,295.1,203.2,295.8z M224.1,292c-2.8,0.5-5.1,2-6.9,4.3c-0.7,0.9-1.1,1.6-1,1.7c0.1,0.1,0.6,0.5,1.1,0.8l0.9,0.6
		l1.9-1.9c1.6-1.6,2.2-2,3.6-2.4c2.9-0.9,5.1-0.2,6.9,1.9c0.8,1,0.9,1.3,0.9,3c0,3.4-1.2,4.9-10.3,13l-5.5,4.9v1.3v1.3h9.7h9.7V319
		v-1.4l-7.3-0.1l-7.3-0.1l3.4-3c9.8-8.6,11-10.2,11-14.6c0-3.3-1.7-5.9-4.8-7.2C228.7,292.1,225.5,291.8,224.1,292z M246.4,301.7
		c-4.5,5.4-7.8,9.8-7.8,10.1c0,0.3,0.2,0.8,0.3,1.3l0.3,0.8h7.4h7.4v3.3v3.3h1.4h1.4v-3.3v-3.3l2.2-0.1l2.2-0.1v-1.3v-1.3l-2.2-0.1
		L257,311v-9.4v-9.4h-1.3h-1.4L246.4,301.7z M254.1,310.9c-0.1,0.1-2.7,0.1-5.9,0l-5.7-0.1l5.8-7.1l5.8-7.1l0.1,7.1
		C254.1,307.6,254.1,310.9,254.1,310.9z M75.2,306.4v14h10.3h10.3V319v-1.4H87h-8.7v-5v-5h7.7h7.7l-0.1-1.4l-0.1-1.3l-7.6-0.1
		l-7.7-0.1V300v-4.7h8.6h8.6v-1.4v-1.4H85.3H75.2V306.4z M125.2,293.8v1.4h4.7h4.7v12.6v12.6h1.6h1.6v-12.6v-12.6h4.7h4.7v-1.4v-1.4
		h-11h-11V293.8z"/>
</g>
</svg>
