<svg id="katman_1" data-name="katman 1" xmlns="http://www.w3.org/2000/svg" viewBox="0 0 566.93 486.38"><path d="M566.93,276.26a235.28,235.28,0,0,0-61.27-158.64q-2.85-3.15-5.85-6.2c-.66-.68-1.32-1.36-2-2-2-2-4-3.92-6-5.82-2.23-2.09-4.51-4.13-6.8-6.1q-6.42-5.56-13.2-10.58c-1-.75-1.95-1.46-2.94-2.18A236.5,236.5,0,0,0,248,55.27c0,1.81-.05,4.32-.12,7.54a230.4,230.4,0,0,1,142.84-.46A235.51,235.51,0,0,0,331,54.72h-5.48a234.57,234.57,0,0,0-77.71,13.09c-.06,2.37-.14,5-.22,7.87l0,.51a230.17,230.17,0,0,1,80.68-15.47,228.51,228.51,0,0,1,144,52.83,11.65,11.65,0,0,1-4.07,6.48c-1,.83-1.68,1.14-2.48-.22-2.34-3.88-4.77-7.7-7.15-11.56-.62-1-1.16-2.14-2.62-1.73a3.27,3.27,0,0,0-2.54,2.79,7.68,7.68,0,0,0,.85,4.13c1.74,4.29,3.47,8.56,5.27,12.82,2.38,5.7,1.12,10.76-2.6,15.43-.92,1.17-1.6,1.43-2.54-.06-2.86-4.49-5.85-8.91-8.74-13.39-1.24-1.9-2.79-2.11-4.26-.41-1.2,1.37-1.08,2.89-.45,4.51,2.23,5.7,4.27,11.47,7.1,16.94a14.83,14.83,0,0,1-.36,14.8c-1,1.72-1.56,1.43-2.57.09C442,160,438.8,156,435.78,151.82c-1.36-1.85-2.66-1.53-4-.29-1.92,1.79-.93,3.82-.05,5.65,2.48,5.12,4.83,10.32,7.69,15.22a15.14,15.14,0,0,1,.79,14.52c-1,2.21-1.67,2.45-3.42.75q-4.77-4.66-9.43-9.45c-.89-.9-1.65-2-3.11-1.11a3.18,3.18,0,0,0-1.65,3.61,7.84,7.84,0,0,0,1.19,2.66c2.83,4.32,5.57,8.68,8.69,12.79,3.43,4.53,3.67,9.49,1.83,14.67-.85,2.4-1.74,2.62-3.65.88q-4.95-4.47-9.78-9.06c-1.63-1.55-3.09-1.41-4.32.52s-.23,3.59.91,5.11q5.16,6.94,10.46,13.82a13,13,0,0,1,2.53,11.3c-.73,3.08-1.9,3.59-4.37,1.68-3.65-2.82-7.31-5.65-10.89-8.57-1.75-1.43-2.91-.83-3.89.82-1.21,2,0,3.61,1.18,5,3.88,4.62,7.78,9.25,11.85,13.7a13.2,13.2,0,0,1,3.47,11.54c-.49,3.17-1.48,3.64-4.23,1.84-3.49-2.29-7-4.61-10.43-6.93-1.05-.7-2-1.68-3.3-.54a3.5,3.5,0,0,0-1.05,3.88,7.38,7.38,0,0,0,2.13,3c3.7,3.57,7.34,7.24,11.13,10.71S427.5,277,426.9,282c-.3,2.67-1.1,3.11-3.5,1.78-3.88-2.16-7.72-4.39-11.56-6.61-1.14-.66-2.27-1.23-3.41-.12a3.36,3.36,0,0,0-.75,4.15,7.23,7.23,0,0,0,1.7,2c4.13,3.65,8.21,7.37,12.5,10.81a13.59,13.59,0,0,1,5.55,11c0,3.37-.72,3.91-3.74,2.55-3.56-1.59-7.13-3.18-10.71-4.74-3.15-1.36-5.19,1.52-3.47,4.52,2.55,4.47,10.67,8.1,14.86,10.89,3.86,2.6,5.23,6.37,5.25,10.77,0,2.44-1.17,3.17-3.49,2.27q-5.58-2.22-11.09-4.57c-1.11-.47-2.21-1-3.12.17s-1.48,2.45-.76,3.94a6.66,6.66,0,0,0,2.58,2.63c4.51,2.86,9,5.74,13.53,8.54,3.94,2.42,5.63,6,5.79,10.48.09,2.45-.76,3-3.12,2.26-3.79-1.23-7.59-2.48-11.4-3.69-1.21-.38-2.46-.75-3.31.68s-1.14,2.86,0,4.21a10.4,10.4,0,0,0,3.23,2.32c4.09,2.17,8.13,4.42,12.24,6.52a12.81,12.81,0,0,1,7.43,11.47c.16,2.85-.45,3.4-3.22,2.76-3.55-.8-7.1-1.69-10.63-2.54-2.48-.58-3.66.47-3.47,3,.14,1.86,1.4,2.8,2.9,3.49,4,1.81,7.8,3.87,11.93,5.31,5.56,1.93,8.26,6.18,9.08,11.8.29,1.95-.53,2.9-2.56,2.58-3.59-.58-7.19-1.12-10.78-1.8-1.26-.24-2.49-.78-3.2.79a3.67,3.67,0,0,0,.38,4.24,6.12,6.12,0,0,0,2.71,1.63c3.93,1.43,7.81,3,11.78,4.26,5.2,1.67,8.12,5.21,9.33,10.36.63,2.65.11,3.3-2.6,3-4-.43-8-.88-11.91-1.48-2.16-.32-3,.66-3.12,2.56-.21,2.42,1.32,3.51,3.34,4.18,4.89,1.62,9.75,3.36,14.7,4.81a12,12,0,0,1,8.17,7.38c1.06,2.66.2,4-2.57,3.87-3.55-.18-7.11-.34-10.65-.53-1.29-.07-2.59-.19-3.08,1.39a3.41,3.41,0,0,0,1.21,4,12.43,12.43,0,0,0,4.71,1.78c4.21,1.14,8.42,2.18,12.63,3.36a12.06,12.06,0,0,1,3.51,1.56c-3.7,3.11-7.53,6.1-11.44,9a2.46,2.46,0,0,0-1.47,1.06,226.26,226.26,0,0,1-33.54,20,227.85,227.85,0,0,1-86.27,18q0,5.34,0,8.1v.28a8.82,8.82,0,0,1-.41,2.22,234.13,234.13,0,0,0,78.25-18.17c3.72-1.58,7.48-3.29,11.16-5.07a234.85,234.85,0,0,0,36.64-19.5c3.22-2.1,6.4-4.27,9.53-6.55.71-.51,1.44-1,2.14-1.58,3.05-2.26,6.06-4.59,9-7q7.83-6.4,15.18-13.56Q488.58,453,481,459.89a226.26,226.26,0,0,1-18,14.9,230.56,230.56,0,0,1-131.77,45.8v6.07a235.39,235.39,0,0,0,143.39-48.73A239.17,239.17,0,0,0,495.3,460l2.52-2.48a235.39,235.39,0,0,0,69.11-166.87c0-2.3,0-4.74-.12-7.19C566.89,281,566.93,278.56,566.93,276.26ZM469.27,98.46A235.09,235.09,0,0,0,348.14,46.91,230.37,230.37,0,0,1,467.08,91.3q6,4.44,11.75,9.25l1.36,1.15a232.5,232.5,0,0,1,17.31,16.36,229.25,229.25,0,0,1,45,67.85,235.4,235.4,0,0,0-44.63-62.08c-1.91-1.9-3.84-3.77-5.81-5.61-4.07-3.81-8.27-7.47-12.55-10.93Q474.47,102.71,469.27,98.46Zm21.14,31.94c-3.36-.41-6.7-.85-10.06-1.32-1.43-.19-2.92-.47-2.65-2.52a9.3,9.3,0,0,1,3-5.64Q485.67,125.5,490.41,130.4Zm-3.53,308.75c.92-1.6,1.82-3.21,2.74-4.81a8,8,0,0,0,1.31-3.46,3.11,3.11,0,0,0-2-3.18c-1.4-.71-2.1.33-2.86,1.21q-5.14,6-10.3,11.88c-1.52,1.73-2.92,1.3-4.23-.27a9.13,9.13,0,0,1-.92-10.68c1.46-2.44,3.08-4.79,4.65-7.15,2-3,4-5.88,5.9-8.89,1.36-2.17.65-4.52-1.53-6s-2.95.45-4.05,1.64c-3,3.28-6,6.56-9.05,9.79-1.86,2-3,1.77-4.21-.64A9.48,9.48,0,0,1,463.3,408c3.35-4.59,6.79-9.13,10.15-13.72a16.94,16.94,0,0,0,2-3.42c.7-1.69-.28-3-1.58-3.85s-2.06.17-2.93,1c-3.83,3.59-7.69,7.13-11.58,10.67-2,1.85-2.93,1.62-4.16-.91-2-4.12-1.89-8.11.82-11.85,1.62-2.22,3.49-4.26,5.24-6.38,2.44-2.95,4.93-5.85,7.3-8.86a3.4,3.4,0,0,0-.15-4.84c-1.62-1.67-2.61-.13-3.76.8q-6,4.9-12.07,9.68c-1,.78-2.31,2-3.24,0-2-4.3-3.32-9.8,1.12-14.69a47.21,47.21,0,0,1,3.46-3.32,99,99,0,0,0,9.34-9.87,3.3,3.3,0,0,0,0-4.63c-1.51-1.71-2.63-.27-3.84.57-3.86,2.7-7.75,5.36-11.62,8-1.8,1.24-3.05,1-4-1.08-1.94-4.24-1.28-8.17,2.16-11.42s6.85-6.22,10.22-9.37c1.41-1.35,3.05-2.46,4.14-4.13a3.13,3.13,0,0,0-.52-4.14c-1-1.12-2.08-.36-3.1.25-4,2.43-8.11,4.8-12.18,7.18-2.54,1.49-3.65,1.07-4.44-1.79-1.07-3.91-.5-7.37,2.79-10.15,4.33-3.67,8.62-7.41,12.91-11.15a13.8,13.8,0,0,0,2.41-2.48,3,3,0,0,0-.41-4.13c-1.18-1.28-2.2-.32-3.3.29-4.42,2.47-8.9,4.85-13.32,7.32-1.74,1-2.63.6-2.89-1.4-1-7.7-1-10.24,6-14.28.85-.48,1.68-1,2.48-1.56,3.07-2.13,6.15-4.25,9.18-6.42,1.7-1.2,1.7-2.94.88-4.53s-2.25-.9-3.5-.35c-3.91,1.73-8,3-11.81,4.92-2.23,1.14-3.5.44-4-2a10.31,10.31,0,0,1,4.86-11.44c4.24-2.61,8.55-5.11,12.83-7.65a6.09,6.09,0,0,0,2.8-2.74,3.2,3.2,0,0,0-.45-3.27c-.65-.91-1.51-.77-2.4-.47-4.27,1.49-8.58,2.91-12.84,4.44-3.28,1.17-4.12.71-4.28-2.85a11.18,11.18,0,0,1,6.18-11c4.36-2.38,8.89-4.45,13.32-6.7,1.83-.94,3.07-2.29,2.28-4.5-.88-2.39-2.76-1.37-4.29-1-3.37.8-6.72,1.75-10.07,2.6-3.17.8-4.35-.09-4.44-3.3-.12-3.94,1.74-6.71,5.49-8.28q7.14-3,14.23-6a9.33,9.33,0,0,0,2.74-1.59,3.08,3.08,0,0,0,.63-3.92c-.72-1.35-1.91-1-3.07-.78-4.27.78-8.55,1.56-12.82,2.39-2.16.41-3.19-.37-3.3-2.58-.24-4.86,1.87-8.48,6.43-10.31,3.71-1.49,7.55-2.64,11.31-4a57.71,57.71,0,0,0,5.71-2.22,3.09,3.09,0,0,0,1.74-4c-.57-1.82-2-1.42-3.29-1.28-4.61.42-9.22.77-13.82,1.27-2.1.23-2.65-.76-2.61-2.63a11,11,0,0,1,8.22-10.6c4.46-1.19,9-2.06,13.51-3.08a7.33,7.33,0,0,0,3.2-1.25,3.29,3.29,0,0,0,1-3.65c-.33-1.29-1.44-1.37-2.58-1.36-2.13,0-4.26,0-6.41,0v0c-2.3,0-4.63,0-6.93,0-1.55,0-2.23-.63-2.23-2.26a10.62,10.62,0,0,1,6.77-9.94c2.2-.86,4.54-.85,6.81-1.2,3.35-.51,6.7-.86,10-1.41a3.31,3.31,0,0,0,2.92-3.59c0-2-1.64-1.93-3.08-2.12-3.62-.44-7.24-.79-10.9-.87-2.78-.06-3.8-1.64-2.92-4.31,1.06-3.23,3.15-5.31,6.61-5.81,1.68-.23,3.36-.41,5-.6,4.77-.54,9.54-1,14.3-1.63a4.38,4.38,0,0,0,1.95-.67,232.22,232.22,0,0,1,26.3,35.16A229.8,229.8,0,0,1,550,281.23C550,340.53,526.56,397,486.88,439.15Zm56.38-74.42a229.21,229.21,0,0,1-27.37,48.15,235.23,235.23,0,0,0,39.45-114.09A228.94,228.94,0,0,1,543.26,364.73Z" transform="translate(0 -40.29)"/><path d="M420.77,96.49l-.55,1.39A356.89,356.89,0,0,0,378.35,88a331.48,331.48,0,0,0-42.5-4.35c-7.58-.38-15.05-.29-21.37-.16-1.66,0-3.33.07-5,.14l-5.75.25-10.7.72-10.68,1c-1.24.16-2.51.3-3.78.45-2.26.28-4.6.55-6.89.86-1.71.25-3.46.5-5.17.73a100.82,100.82,0,0,0-15.95,3L250,89.35a56.09,56.09,0,0,1,10.29-4.07c2.27-.68,4.59-1.3,6.83-1.88,1.24-.32,2.46-.66,3.7-1,2.33-.56,4.68-1.07,6.95-1.55l3.74-.82c3.76-.7,7.54-1.31,10.81-1.84l2.81-.38c2.64-.36,5.38-.73,8.1-1l5.82-.5c1.68-.15,3.4-.29,5.12-.37,1.51-.07,3.07-.13,4.56-.18l3.64-.12,2.76,0h2.6c2.74,0,5.59,0,8.39.14a225.33,225.33,0,0,1,43.48,5.86A184.44,184.44,0,0,1,420.77,96.49Z" transform="translate(0 -40.29)"/><path d="M366.17,99.89l-.54,1.39a188.33,188.33,0,0,0-22.08-5.21,170.67,170.67,0,0,0-22.4-2.29c-4-.21-7.94-.16-11.27-.09-.87,0-1.76,0-2.61.07l-3,.13-5.63.38-5.63.54-2,.24-3.62.45-2.73.39a53.56,53.56,0,0,0-8.36,1.59l-.58-1.35a28.52,28.52,0,0,1,5.5-2.18c1.21-.36,2.44-.68,3.62-1,.66-.17,1.3-.33,2-.52,1.24-.29,2.5-.57,3.7-.82l2-.44c2-.36,4-.7,5.73-1,.51-.06,1-.14,1.49-.19,1.4-.19,2.85-.4,4.29-.53l3.1-.26c.87-.07,1.79-.16,2.7-.19s1.6-.07,2.4-.1l1.93-.06h1.48c.46,0,.91,0,1.38,0,1.45,0,3,0,4.44.08a119.17,119.17,0,0,1,23,3.1A97.81,97.81,0,0,1,366.17,99.89Z" transform="translate(0 -40.29)"/><path d="M417.13,417l-1.62,1.13a41.64,41.64,0,0,1-4.72-7c-.87-1.57-1.69-3.19-2.49-4.76-.44-.86-.88-1.72-1.33-2.58-.79-1.65-1.55-3.31-2.28-4.92-.39-.87-.79-1.75-1.2-2.62-1.12-2.68-2.18-5.39-3.1-7.74-.25-.69-.5-1.36-.73-2-.7-1.92-1.42-3.89-2-5.87l-1.32-4.25c-.36-1.21-.76-2.46-1.08-3.73-.3-1.1-.58-2.22-.86-3.32l-.7-2.71-.44-2.06c-.14-.64-.27-1.28-.42-1.93-.45-2-.9-4.14-1.25-6.24a171.79,171.79,0,0,1-2.65-33.21,139.9,139.9,0,0,1,4.41-32.92l2,.32a265.78,265.78,0,0,0-.6,32.53,248.69,248.69,0,0,0,3.59,32.09c.92,5.67,2.19,11.18,3.31,15.83.25,1.24.59,2.46.89,3.64l1.11,4.21,2.24,7.79,2.46,7.74c.31.87.63,1.79,1,2.7.55,1.63,1.14,3.31,1.74,5,.45,1.22.9,2.47,1.35,3.71A76.85,76.85,0,0,0,417.13,417Z" transform="translate(0 -40.29)"/><path d="M52,270.41q-6.94,0-8.12-4.61-2.09-14.34-4.06-16.25-1.29-.74-5.48-.74a78.7,78.7,0,0,0-11.75.93c-3.44.49-5.54,1.1-6.27,1.84-.09.17-.74,2-2,5.54Q12.12,264,10.83,267c-.78,1.4-1.66,2.13-2.65,2.19l-1.66.09a7.83,7.83,0,0,1-4.67-1.54A5,5,0,0,1,0,263.52l.06-1a250.29,250.29,0,0,1,6.4-24.39q4.8-15.86,10.62-31.69a191.83,191.83,0,0,1,10.49-24.46,8.42,8.42,0,0,1,4.61-4,16,16,0,0,1,4.06-.74,10.57,10.57,0,0,1,4,.8,8.52,8.52,0,0,1,4.92,5q3.57,10.69,11,52.36,5,28.12,5,29.29,0,3.26-3.69,4.74A15.22,15.22,0,0,1,52,270.41ZM28.8,240a41.79,41.79,0,0,0,5.84-.37,7.08,7.08,0,0,0,3.32-1,3.9,3.9,0,0,0,.31-2q0-4.24-1.91-15.75-2.64-16.06-4.06-16.68-1.23.31-6.7,16-5.18,14.66-5.17,18.09,0,1.67,7.32,1.66Z" transform="translate(0 -40.29)"/><path d="M89.28,269.61q-4.56,0-10.71-.43t-7.81-2.89q-2.22-6.15-2.22-48.67,0-22.4.56-33.78.8-5.85,8.61-5.85a18.29,18.29,0,0,1,6.12,1.26,5.83,5.83,0,0,1,3.91,5.32l.06,1.73q0,5.35-.49,20.86l-.49,21.29q-.25,11.13-.25,20.49a38.71,38.71,0,0,0,.37,7.32c.33.7,2.17,1,5.54,1q3.57,0,9.84-.55c2.47-.2,4.43-.33,5.91-.37s2.67,1,3.32,2.83a9.22,9.22,0,0,1,.62,3.32,13.67,13.67,0,0,1-.53,3.2q-.51,2-3.29,2.71-3.31.56-11.75,1Q92.91,269.61,89.28,269.61Z" transform="translate(0 -40.29)"/><path d="M131.18,269.49a16.93,16.93,0,0,1-4.86-.93q-3-.92-4.43-4.73a200.43,200.43,0,0,1-5-20.12q-3-14.1-5.69-30t-3.87-27.35v-.49a6.6,6.6,0,0,1,3.26-6.09,10.47,10.47,0,0,1,5.53-1.6,23.75,23.75,0,0,1,3.42.43c1.66.28,3,1.7,4,4.24q1.41,4.68,4.74,24.68,1.85,11.25,3.56,20.27t2.77,9c.5,0,1.2-1.67,2.13-5s1.91-7.19,3-11.54q2-8,3.63-13.53a9.41,9.41,0,0,1,5.11-5.85,10.49,10.49,0,0,1,4.24-.92,15.2,15.2,0,0,1,4.25.83q2.64.83,4.55,4.89,2.46,5.91,6.65,21.66,1.41,5.35,2.43,8.86c.67,2.34,1.18,3.51,1.51,3.51q1.35-1.23,7.44-31.75,3.14-16.12,5.29-25.05,1.11-3.63,4.49-3.63a4.74,4.74,0,0,1,3,1.05,3.79,3.79,0,0,1,1.6,3.32q0,.43-6.09,39.94-4.93,31.93-7.2,38.33-3,7.38-10.59,7.38t-10.7-6.4a93.24,93.24,0,0,1-3.63-14q-1.37-6.41-2.74-11.29c-.92-3.26-1.88-5-2.86-5.14q-3,.86-7.32,21.35-1.42,6.58-2.47,10.09a8.09,8.09,0,0,1-5.23,4.92A12.35,12.35,0,0,1,131.18,269.49Z" transform="translate(0 -40.29)"/><path d="M241.75,270.41q-7,0-8.12-4.61-2.1-14.34-4.06-16.25c-.87-.49-2.69-.74-5.48-.74a78.7,78.7,0,0,0-11.75.93q-5.18.73-6.28,1.84c-.08.17-.74,2-2,5.54-1.48,4.6-2.64,7.88-3.51,9.84q-1.17,2.1-2.64,2.19l-1.66.09a7.86,7.86,0,0,1-4.68-1.54,5,5,0,0,1-1.85-4.18l.07-1a247.4,247.4,0,0,1,6.4-24.39q4.78-15.86,10.61-31.69a191.83,191.83,0,0,1,10.49-24.46,8.4,8.4,0,0,1,4.62-4,15.89,15.89,0,0,1,4.06-.74,10.65,10.65,0,0,1,4,.8,8.58,8.58,0,0,1,4.92,5q3.57,10.69,11,52.36,5,28.12,5,29.29,0,3.26-3.69,4.74A15.21,15.21,0,0,1,241.75,270.41ZM218.55,240a42,42,0,0,0,5.85-.37,7.08,7.08,0,0,0,3.32-1,4,4,0,0,0,.31-2q0-4.24-1.91-15.75-2.66-16.06-4.06-16.68-1.23.31-6.71,16-5.16,14.66-5.17,18.09,0,1.67,7.33,1.66Z" transform="translate(0 -40.29)"/><path d="M279.34,269.67q-11.44,0-18.21-7.2a5.83,5.83,0,0,1-1.42-3.5,4.06,4.06,0,0,1,.43-1.79,3.18,3.18,0,0,1,3-1.78,6.22,6.22,0,0,1,1.66.24,22.56,22.56,0,0,0,7.81,1.6q4.62,0,9.17-3.75T287.59,236a17.37,17.37,0,0,1-2.28,3.57,14.68,14.68,0,0,1-4.22,3.57,12.28,12.28,0,0,1-6.36,1.54,15.72,15.72,0,0,1-9.48-2.89q-9.42-6.77-9.41-35.38,0-9.48.92-21.85a5.72,5.72,0,0,1,4.61-4.92,10.82,10.82,0,0,1,3.2-.49,14.22,14.22,0,0,1,5.48,1.35c2.42,1,3.63,3.32,3.63,6.89q0,2.9-.25,8.06-.3,10.22-.3,15.45,0,4.8.27,10.09a44.09,44.09,0,0,0,1.36,9.23q1.07,3.95,3.29,3.94,4.68,0,7.08-11.82,1.41-7,2.89-24.67.56-7.87,1.35-14.4a5.93,5.93,0,0,1,4.68-4.92,9.83,9.83,0,0,1,2.64-.37,13.08,13.08,0,0,1,5.82,1.63c2.15,1.09,3.41,3.31,3.78,6.68q.79,14.26.8,25.65a236,236,0,0,1-1.44,25.79q-1.45,13.09-6.19,20.86t-11.69,9.84A28.87,28.87,0,0,1,279.34,269.67Z" transform="translate(0 -40.29)"/><path d="M340.19,269.55q-11.38,0-18.58-7.08-5.53-5.48-6.89-11.07a13.85,13.85,0,0,1-.19-2.34,9.16,9.16,0,0,1,1.91-5.66q2.46-3.39,4.56-4a12.42,12.42,0,0,1,2.89-.62,3.16,3.16,0,0,1,2.95,2,55.51,55.51,0,0,0,3.14,6.77q4.49,8.86,10.21,8.86a6.51,6.51,0,0,0,4.89-1.78,6.67,6.67,0,0,0,2-3.57,19.8,19.8,0,0,0,.27-2.77,11.69,11.69,0,0,0-.74-3.63,22.17,22.17,0,0,0-5.75-8.49,85.43,85.43,0,0,0-8.58-7,86.13,86.13,0,0,1-8.28-6.46,31.34,31.34,0,0,1-6.49-7.93,23.24,23.24,0,0,1-2.71-11.51,26.77,26.77,0,0,1,11.2-21.2,22,22,0,0,1,13.17-4q12.92,0,19.2,7.7a21.71,21.71,0,0,1,5,14.09c-.29,4.1-1.36,6.64-3.23,7.63a11,11,0,0,1-5,1.47,9.2,9.2,0,0,1-2.71-.43q-3.39-1.11-3.51-3.75l.07-2q-.25-7.14-3.2-11.08a7.37,7.37,0,0,0-12.25,1.6,17.87,17.87,0,0,0-2.09,7.94q.12,7.08,5.91,12.74a74.63,74.63,0,0,0,8.43,7,100.92,100.92,0,0,1,8,6.56,31.81,31.81,0,0,1,6.4,8.09,24,24,0,0,1,2.83,11.93,22.73,22.73,0,0,1-2.58,10.59,20.59,20.59,0,0,1-7.78,8.15A23.77,23.77,0,0,1,340.19,269.55Z" transform="translate(0 -40.29)"/><path d="M57.5,394.86a86.57,86.57,0,0,1-10.34-.49,10.88,10.88,0,0,1-5.9-2.21,8,8,0,0,1-2.4-5.3q-1.11-11-1.11-37.16,0-18.21.68-41.1c.16-1.93,1.41-3.3,3.75-4.13q4.07-1.41,12.8-1.41c1.88,0,3.77.06,5.66.18q12.12.75,17.84,7a23.58,23.58,0,0,1,6.34,14.61c.08,1,.12,2,.12,3a33.83,33.83,0,0,1-2.74,13.23,16.69,16.69,0,0,1-8.15,9.1,19.86,19.86,0,0,1,7.26,8.19,27.54,27.54,0,0,1,3,12.61A25.71,25.71,0,0,1,81.71,382a21.56,21.56,0,0,1-8.49,9.13Q67.28,394.86,57.5,394.86ZM56,385a11.83,11.83,0,0,0,8.19-3,17.28,17.28,0,0,0,4.86-7.47,18,18,0,0,0,1-6,29.87,29.87,0,0,0-.46-4.37c-.3-1.93-1.58-3.92-3.81-6s-5.49-3.08-9.75-3.08q-.2,3.09-.19,8.56,0,9.22.06,16.55ZM56.27,346a11.3,11.3,0,0,0,7.23-2.46,18.25,18.25,0,0,0,5-6.28,21.72,21.72,0,0,0,2.34-9.84,18.83,18.83,0,0,0-1.26-6.59A12.65,12.65,0,0,0,65,315c-2.24-1.62-5.22-2.43-9-2.43,0,2.33,0,5.62.13,9.84l.18,19.45C56.33,343.53,56.31,344.9,56.27,346Z" transform="translate(0 -40.29)"/><path d="M111.71,395.05c-2.67,0-5.85-.12-9.54-.34s-6-1.14-6.77-2.74q-1.11-4.55-2-23.13-1.05-23.14-1-43,0-14.1.8-18.71,1.59-4.31,20.24-4.31a105.24,105.24,0,0,1,13.84.74q5.3.93,5.3,6a8.5,8.5,0,0,1-1,4.06c-.94,1.85-2.26,2.77-3.94,2.77h-.24a52.91,52.91,0,0,0-6.22-.31c-5.21,0-8.49.46-9.84,1.36-.54.49-.92,2-1.14,4.52s-.34,6.31-.34,11.35a103.92,103.92,0,0,0,.37,10.46c.2.78,1.15,1.25,2.83,1.42,1.27.08,2.66.12,4.18.12l3.76-.06c1.06,0,2,0,2.89.12q4.07.62,4.06,4.74a8.18,8.18,0,0,1-1,3.57,4.38,4.38,0,0,1-3.53,2.4h-4.5q-2.7,0-5,.09a6.47,6.47,0,0,0-3.14.65q-.61.68-.61,6.4,0,2.52.12,6.27c.25,6.69.61,11,1.11,12.86.41.86,1.92,1.29,4.55,1.29q2.78,0,6.4-.3t7-.31q3.69.24,3.69,5a10.78,10.78,0,0,1-.73,3.54,3.66,3.66,0,0,1-3,2.49q-2.7.38-10.4.8C116.4,395,114.05,395.05,111.71,395.05Z" transform="translate(0 -40.29)"/><path d="M188.19,395a17.92,17.92,0,0,1-4.4-.74q-2.74-.74-3.42-4.92-.62-7.57-.61-38.28,0-27.75.55-42.7.67-5.48,8.92-5.48a19.34,19.34,0,0,1,6,1.17,4.94,4.94,0,0,1,3.63,4.8q-.32,8.13-.31,17.05l.13,19.26q.12,1.47,6.46,1.47a23.39,23.39,0,0,0,6-.67c1.47-.37,2.27-.95,2.39-1.73q.32-3.44.44-12.73.18-14.52.67-21.17a6.8,6.8,0,0,1,5-6,12.9,12.9,0,0,1,3.87-.61,15.19,15.19,0,0,1,5.45,1.26q3.17,1.26,3.47,5.5,0,7.51-.21,24.06t-.46,32.37q-.25,15.81-.31,21.17a6,6,0,0,1-3.88,5.47,12.14,12.14,0,0,1-4.49.86,19.55,19.55,0,0,1-4-.58,4.45,4.45,0,0,1-3.38-3.54,126.64,126.64,0,0,1-1-16.8c-.08-4-.21-7.55-.4-10.61s-.56-4.87-1.13-5.45q-1.43-.92-6.34-.92-7.87,0-8.62,2.09a83,83,0,0,0-.67,12.49v1.48q0,9.36-.68,17.1-.62,3.15-4.37,4.56A12.7,12.7,0,0,1,188.19,395Z" transform="translate(0 -40.29)"/><path d="M250.64,394.86a46.9,46.9,0,0,1-7.94-.49,2.72,2.72,0,0,1-2-1.84,8.17,8.17,0,0,1-.52-2.71c0-2,.75-3.26,2.15-3.76a19.2,19.2,0,0,1,5.11-.67q-.31-13.72-.31-38.89,0-20.12.8-33.35a7.83,7.83,0,0,0-1.05-.06c-1.6,0-3.18.06-4.73.18q-2.28-.18-2.28-3.81a9.79,9.79,0,0,1,.55-3.08,3.78,3.78,0,0,1,2.65-2.77q5.16-.56,16.06-.55a70,70,0,0,1,9.78.37q2.34.85,2.34,4.61c-.16,2.51-.8,3.88-1.91,4.13-.49.12-1.74.28-3.75.49.16,2.46.25,6.32.25,11.57s-.09,11.87-.25,19.87q-.61,30.4-1.17,40.86a31,31,0,0,1,5.23.55c1.39.41,2.09,1.75,2.09,4q0,4.19-2.89,4.68Q262.08,394.87,250.64,394.86Z" transform="translate(0 -40.29)"/><path d="M302.44,394.68q-11.38,0-18.58-7.08-5.53-5.48-6.89-11.07a13.91,13.91,0,0,1-.18-2.34,9.15,9.15,0,0,1,1.9-5.66q2.46-3.39,4.56-4a12.42,12.42,0,0,1,2.89-.62,3.16,3.16,0,0,1,2.95,2,55.51,55.51,0,0,0,3.14,6.77q4.49,8.87,10.21,8.86a6.51,6.51,0,0,0,4.89-1.78,6.67,6.67,0,0,0,2-3.57,19.8,19.8,0,0,0,.27-2.77,11.41,11.41,0,0,0-.74-3.63,22.17,22.17,0,0,0-5.75-8.49,85.43,85.43,0,0,0-8.58-7,86.13,86.13,0,0,1-8.28-6.46,31.34,31.34,0,0,1-6.49-7.93,23.24,23.24,0,0,1-2.71-11.51,26.77,26.77,0,0,1,11.2-21.2,22,22,0,0,1,13.17-4q12.92,0,19.2,7.7a21.71,21.71,0,0,1,5,14.09c-.29,4.1-1.36,6.64-3.23,7.63a10.92,10.92,0,0,1-5,1.47,9.2,9.2,0,0,1-2.71-.43c-2.26-.74-3.42-2-3.51-3.75l.07-2q-.25-7.14-3.2-11.08a7.37,7.37,0,0,0-12.25,1.6,17.87,17.87,0,0,0-2.09,7.94q.12,7.08,5.91,12.74a74.63,74.63,0,0,0,8.43,7,102.92,102.92,0,0,1,8,6.56,32,32,0,0,1,6.39,8.09,24,24,0,0,1,2.83,11.93,22.73,22.73,0,0,1-2.58,10.59,20.59,20.59,0,0,1-7.78,8.15A23.77,23.77,0,0,1,302.44,394.68Z" transform="translate(0 -40.29)"/><path d="M180.19,519.56a18.7,18.7,0,0,1-5-.89q-3.08-.88-3.63-6.06-.26-7.58-.25-26.89,0-40.11,2.34-52.85,1.47-4.26,20.55-4.25a123.48,123.48,0,0,1,14.83.68q2.4.42,3.26,3.38a9.82,9.82,0,0,1,.43,2.89q0,5.61-3.75,6.16-1.73.12-4.68.18-13.29,0-16.12,2-1,1-1.54,4.61a72.12,72.12,0,0,0-.55,9.6q0,8.75.8,10c.57.54,1.82.8,3.75.8s4.49-.14,7.33-.43c2.09-.16,3.77-.27,5-.31a4.3,4.3,0,0,1,3.69,3,8.76,8.76,0,0,1,.68,3.32,14.1,14.1,0,0,1-.52,3.2c-.35,1.35-1.55,2.24-3.6,2.65-1.11,0-2.34.06-3.7.06h-2.89l-3.63-.13c-.53,0-1.31,0-2.34.1a2.62,2.62,0,0,0-2,.77,9.21,9.21,0,0,0-.12,1.84q0,2.34.43,7.2,1,10.22,1,17.23a59.36,59.36,0,0,1-.43,7.32q-.69,2.71-4.86,4.12A14.32,14.32,0,0,1,180.19,519.56Z" transform="translate(0 -40.29)"/><path d="M258.15,520.67q-7,0-8.12-4.61-2.1-14.34-4.06-16.25-1.29-.74-5.48-.74a78.7,78.7,0,0,0-11.75.93q-5.18.74-6.28,1.84c-.08.17-.73,2-2,5.54-1.47,4.59-2.64,7.88-3.5,9.84-.78,1.4-1.66,2.13-2.65,2.19l-1.66.09A7.88,7.88,0,0,1,208,518a5,5,0,0,1-1.84-4.18l.06-1a250.29,250.29,0,0,1,6.4-24.39q4.8-15.85,10.61-31.69a194.11,194.11,0,0,1,10.49-24.46,8.47,8.47,0,0,1,4.62-4,16,16,0,0,1,4.06-.74,10.65,10.65,0,0,1,4,.8,8.5,8.5,0,0,1,4.92,5.05q3.57,10.69,10.95,52.36,5,28.13,5,29.29,0,3.25-3.69,4.74A15.26,15.26,0,0,1,258.15,520.67ZM235,490.21a41.84,41.84,0,0,0,5.85-.37,7.08,7.08,0,0,0,3.32-1,3.9,3.9,0,0,0,.31-2q0-4.25-1.91-15.75-2.64-16.06-4.06-16.68-1.23.32-6.71,16-5.16,14.64-5.16,18.09,0,1.67,7.32,1.66Z" transform="translate(0 -40.29)"/><path d="M283.81,520.24a14.61,14.61,0,0,1-4.19-.83c-1.72-.55-2.77-2.23-3.13-5q-.87-13.65-1.54-38.95-.26-12.12-.25-21.9,0-10.77.31-18.77.8-6.7,7.75-6.7a10.85,10.85,0,0,1,8.8,3.93q2.16,3.09,6.52,13.29,6.9,16,15,37.54-.62-10.21-1.23-25.29-.5-11.07-.5-18.15c0-1.68,0-3.2.07-4.56a7,7,0,0,1,4.86-6.21,12,12,0,0,1,4.12-.74q8.49,0,8.92,7,.06,4.31.12,20.42.19,48.38.19,59a4.7,4.7,0,0,1-3.2,4.19,11.28,11.28,0,0,1-4.55.92,25.42,25.42,0,0,1-3.36-.34,6.65,6.65,0,0,1-4.27-3A141.11,141.11,0,0,1,306.7,501q-4.62-10.28-8.8-20.43t-5.72-14.64q.24,8.93.24,24.12,0,15.81-.43,24.12a6.25,6.25,0,0,1-4.12,5.29A11.07,11.07,0,0,1,283.81,520.24Z" transform="translate(0 -40.29)"/><path d="M113.62,519.13a11.9,11.9,0,0,1-4.3-1c-1.85-.74-2.77-2.93-2.77-6.59l1-65.71a.19.19,0,0,0-.18-.12,5,5,0,0,0-2,.8,11.67,11.67,0,0,1-4.8,1.66c-1.56,0-2.34-.9-2.34-2.71a11.42,11.42,0,0,1,1-4,24.63,24.63,0,0,1,3.78-5.91,25.77,25.77,0,0,1,5.63-5.26,9.22,9.22,0,0,1,4.55-1c.29,0,1.1,0,2.44.12a11,11,0,0,1,5,2.09,7.59,7.59,0,0,1,3.29,6.16q.38,9.72.37,21.59,0,4.5-.12,15.69t-.68,24.8q-.56,13.6-1.23,15.14a9.71,9.71,0,0,1-5.54,3.69A11.17,11.17,0,0,1,113.62,519.13Z" transform="translate(0 -40.29)"/><path d="M89.91,467.22A3.9,3.9,0,0,0,87,465.76c-1.81-.05-3.63-.07-5.44-.1l-3.51-.06q.11-7.31.26-14.6l1.91,0,3,.05c2.78.08,4.82-1.53,5.16-4a5,5,0,0,0-1.18-3.8,3.94,3.94,0,0,0-2.89-1.47l-3.47-.06-2.36,0c0-1,0-1.93,0-2.9,0-1.42,0-2.85.07-4.27.07-2.75-1.53-4.82-4-5.17a5.06,5.06,0,0,0-3.81,1.19,3.91,3.91,0,0,0-1.46,2.89c0,1.62-.06,3.25-.09,4.87,0,1.08,0,2.15,0,3.22q-7.31-.15-14.61-.26l0-1.47c0-.86,0-1.72.05-2.58.06-2.75-1.53-4.82-4-5.16a5,5,0,0,0-3.81,1.18,3.94,3.94,0,0,0-1.47,2.89c0,1.06,0,2.12,0,3.17l0,1.8-2.48,0L39,441h-.08c-2.71,0-4.74,1.59-5.08,4a5,5,0,0,0,1.21,3.84,3.86,3.86,0,0,0,2.88,1.43l4.43.08,2.83.06Q45,457.7,44.92,465L41.69,465H41.6c-2.7,0-4.73,1.6-5.07,4a5,5,0,0,0,1.22,3.84,3.84,3.84,0,0,0,2.87,1.43l2.61,0,1.53,0c0,1,0,2,0,2.93,0,1.43-.06,2.86-.08,4.29,0,2.75,1.57,4.82,4,5.16a5.09,5.09,0,0,0,.56,0,5.29,5.29,0,0,0,3.29-1.25,3.9,3.9,0,0,0,1.42-2.88l.09-4.9.06-3.22q7.3.1,14.6.26l0,1.49c0,.87,0,1.74,0,2.61,0,2.75,1.56,4.82,4,5.15a5,5,0,0,0,3.84-1.21,3.84,3.84,0,0,0,1.43-2.87c0-1.05,0-2.11.06-3.16l0-1.84,3.2.05,4.83.09a4.68,4.68,0,0,0,5.17-4A5.06,5.06,0,0,0,89.91,467.22ZM69.06,450.83q-.15,7.31-.27,14.6-7.29-.15-14.6-.26.14-7.31.26-14.6Q61.76,450.69,69.06,450.83Z" transform="translate(0 -40.29)"/><path d="M106.2,138.08a46.9,46.9,0,0,1-7.94-.49,2.71,2.71,0,0,1-2-1.85,8.07,8.07,0,0,1-.52-2.7c0-2,.75-3.26,2.15-3.76a19.2,19.2,0,0,1,5.11-.67q-.31-13.73-.31-38.89,0-20.13.8-33.35a7.83,7.83,0,0,0-1-.06q-2.4,0-4.74.18-2.27-.18-2.27-3.81A9.74,9.74,0,0,1,96,49.6a3.78,3.78,0,0,1,2.65-2.77q5.16-.55,16.06-.55a70,70,0,0,1,9.78.37q2.34.85,2.34,4.61c-.17,2.5-.8,3.88-1.91,4.12a35.71,35.71,0,0,1-3.75.5q.24,3.69.24,11.56t-.24,19.88q-.62,30.39-1.17,40.86a31,31,0,0,1,5.23.55q2.08.61,2.09,4,0,4.19-2.89,4.68Q117.65,138.09,106.2,138.08Z" transform="translate(0 -40.29)"/><path d="M194.07,138q-4.56,0-10.71-.43c-4.1-.29-6.71-1.25-7.81-2.89q-2.22-6.15-2.22-48.67,0-22.4.55-33.78.81-5.85,8.62-5.85a18.33,18.33,0,0,1,6.12,1.26A5.82,5.82,0,0,1,192.53,53l.06,1.73q0,5.35-.49,20.86l-.5,21.29q-.24,11.13-.24,20.49a38.71,38.71,0,0,0,.37,7.32c.33.7,2.17,1,5.54,1,2.37,0,5.66-.18,9.84-.55,2.46-.2,4.43-.33,5.91-.37s2.66,1,3.32,2.83a9.22,9.22,0,0,1,.62,3.32,13.67,13.67,0,0,1-.53,3.2c-.35,1.36-1.44,2.26-3.29,2.71q-3.31.56-11.75,1Q197.7,138,194.07,138Z" transform="translate(0 -40.29)"/><path d="M245.13,138q-4.55,0-10.7-.43t-7.82-2.89Q224.4,128.52,224.4,86q0-22.4.55-33.78.8-5.85,8.62-5.85a18.33,18.33,0,0,1,6.12,1.26A5.82,5.82,0,0,1,243.6,53l.06,1.73q0,5.35-.49,20.86l-.5,21.29q-.24,11.13-.24,20.49a38.71,38.71,0,0,0,.37,7.32c.32.7,2.17,1,5.53,1q3.57,0,9.85-.55c2.46-.2,4.43-.33,5.91-.37s2.66,1,3.32,2.83a9.21,9.21,0,0,1,.61,3.32,13.56,13.56,0,0,1-.52,3.2c-.35,1.36-1.44,2.26-3.29,2.71q-3.33.56-11.75,1C250,137.93,247.55,138,245.13,138Z" transform="translate(0 -40.29)"/><path d="M145.74,52a81.83,81.83,0,0,1-.68,13.55l.2-1.51q-.37,2.73-.93,5.43c-.6,2.9.84,6.26,4,7,2.83.65,6.34-.85,7-4A87.45,87.45,0,0,0,157.08,52c-.09-3-2.54-5.81-5.67-5.67A5.76,5.76,0,0,0,145.74,52Z" transform="translate(0 -40.29)"/></svg>