<svg id="katman_1" data-name="katman 1" xmlns="http://www.w3.org/2000/svg" viewBox="0 0 566.93 480.65"><path d="M89.38,101c-.31,0-1.09-2-6.15-5-2-1.15-2.12-2.77-2.6-3.49a15.71,15.71,0,0,1-1.91-4.22,13,13,0,0,1,0-2.64c.07-.21.5-2.2.58-2.63a7.11,7.11,0,0,1,.26-1.43,21.81,21.81,0,0,1,3.07-3.77c.93-.76,2.07-1.21,2.18-1.5a11.44,11.44,0,0,0-.18-1.94c0-.5-.12-.81.37-1.27a16.21,16.21,0,0,1,4.34-2.29,12.09,12.09,0,0,1,3.9-.63c1,0,6.65.67,7.68,1.67a24.68,24.68,0,0,1,2.3,2.39c.68.85,4,5.07,5,6s2,1.58,2.87,3.44a35.2,35.2,0,0,1,1.77,5.85c.48,2,1.05,4.55,1.34,6.2s.47,4.71.58,5.64.15,1.58.56,2,3,3.68,3.66,4.31a32.74,32.74,0,0,0,2.63,2.26c.61.44,5,3.24,6.3,4.19a34.27,34.27,0,0,1,2.78,2.26c.86.75,4.45,4.63,5.51,5.32s4.81,4.11,6.57,5.32,3.28,2.33,4.34,3,4.51,3,6.71,4a66.14,66.14,0,0,1,7.64,4,12.61,12.61,0,0,0,2.9,1.79,2.58,2.58,0,0,0,1.84-.26c.58-.32,3.13-2,3.6-2.23a6.79,6.79,0,0,0,2.64-1.63,11.28,11.28,0,0,1,2.13-2.05,42.62,42.62,0,0,1,4.36-2,5.42,5.42,0,0,0,1.87-1.71c.23-.56,1.33-1.44,1.47-2.8a9,9,0,0,0-.09-2.75c-.14-.84-.28-2.81-.46-3.88a19,19,0,0,1-.7-4,49.55,49.55,0,0,0-.92-6.25,37.53,37.53,0,0,0-2-6.32,34.92,34.92,0,0,1-1.82-4.61c-.32-1-.69-4-.87-4.59a5.4,5.4,0,0,0-.94-2c-.51-.54-2.56-2.7-2.72-4.06a11.08,11.08,0,0,1,.94-4.32c.29-.63.78-.65.64-2s-1.2-3.76-1.31-5.73-.8-6.93-.8-8.78a31.78,31.78,0,0,1,.09-4.08A22,22,0,0,1,173.25,59a41.85,41.85,0,0,1,4.28-4.86c1.38-1.33,3.12-3,3.5-3.47a10.17,10.17,0,0,1,2.7-2.92c1.29-.76,6.24-1.94,7.51-2.17a20.8,20.8,0,0,0,2.61-.42c.24-.16,0-.8,1.89-1.27s3.86-.05,4.46-.2a33.14,33.14,0,0,1,7-.47A82.29,82.29,0,0,1,217.41,46c2.32.84,5.5,1.94,6.48,2.69s4.33,4.2,5.26,6.69a72.77,72.77,0,0,1,2,9.47,4.38,4.38,0,0,0,.36,1.56c.2.21,6.49,2.1,7.85,3.13s3.09,2.58,2.38,3.65a5.94,5.94,0,0,1-4.14,2.18,37.75,37.75,0,0,1-5,.07s0,2.34-.06,2.9-.56,4.08-.2,5.44,1.64,4.37,1.89,5.41a33.47,33.47,0,0,1,.47,5.46c0,1.63-.07,6-.14,7.09A29.64,29.64,0,0,0,235,106c.18,1.45.62,2.07.18,3.63s-.87,2.12-.42,2.18,3.25-.61,4.94-.37a6.82,6.82,0,0,1,3.53,1.33c.49.5,1.79.28,1.88.19a35.24,35.24,0,0,1,5.13-2.62,23.45,23.45,0,0,1,4.17-.78c.7,0,4.86-.06,6.68.11a83.89,83.89,0,0,1,8.59,1.12,27.37,27.37,0,0,0,4.2.77c.88.09,5.45-.1,7.59-.13s6-.43,6.29-.34,0,.5,1,.77,2.9-.19,4.6-.34a29.48,29.48,0,0,1,4.42-.11c.69.09,4.85,0,5.59.39s1.06,1.4,2,1.77a22.41,22.41,0,0,0,5.28.36c1.5,0,3.81,1.24,4.76,1.5s2.19.16,2.9.33a23.52,23.52,0,0,1,4.06,1.92,13.15,13.15,0,0,1,3,2.9,13.38,13.38,0,0,0,1.53,2.24,46.38,46.38,0,0,0,4.25,3.46,44.16,44.16,0,0,1,4.22,3.34c.71.81,2.54,4,2.89,4.51a20,20,0,0,0,2.12,2.18,29.45,29.45,0,0,1,3.05,3.45c.47.76,1.41,3.7,2,5s1.4,4.14,1.85,5.34.74,2.92,1.2,3.28,5.29,1.78,5.91,2.61a9.44,9.44,0,0,1,1.16,2.29c.11.32,1.22.49,2-.13a11.71,11.71,0,0,1,2-1.34,11.3,11.3,0,0,1,2.58-1.4,12.65,12.65,0,0,1,3.93-.89,34.87,34.87,0,0,1,6.22.38c.78.17,6.86-.18,9.29-.05s10.5,1.05,12,2.3,2.11,3.32,2.34,3.41,3-6.62,3.88-7.94,1.13-2.92,1.53-2.85,1.25.09,1.16.6-2.36,5.57-2.87,6.6-2.57,5.15-2.77,5.88-.89,1.61-.51,2.54,1.07.76.94,2.43-2,2.77-2.32,2.48-.25-2.1-1.16-2a4.59,4.59,0,0,0-2.5,1.41c0,.29.07.87.54.91s.71-.09.76.67-.2,1.25,0,1.63a7.57,7.57,0,0,0,2,2.05,3.24,3.24,0,0,1,1.43,2.47c.17.89,1.38,3.14,1.42,4.82s.18,1.89-.29,2.65-1.11.67-1.49,1.69-.6,1.07-.4,2.12a3.38,3.38,0,0,0,2.27,2.23c1.05.4,3.81.89,4.24,2.05a17.86,17.86,0,0,1,.8,3.32,5.83,5.83,0,0,0,.49,1.69,3.77,3.77,0,0,0,2.12.67,51.68,51.68,0,0,0,10.56-4c4.28-2.27,1,1.27-.44,2.18a25.31,25.31,0,0,1-6.78,2.92c-2.14.43-4.61.43-5.37.7a2.48,2.48,0,0,0-1.54,1.6,5.37,5.37,0,0,1-.78,1.78,4.23,4.23,0,0,0-.58,2.46c.07.55,2.47,1.78,3.25,2.49A11.58,11.58,0,0,1,406,214a19.09,19.09,0,0,1-.36,4.57,15.68,15.68,0,0,0,.07,2.72c0,.26,1,.71.76,2a6.75,6.75,0,0,1-1.43,3.16c-.51.47-1.72,2.65-3.28,3.28a6.25,6.25,0,0,1-3.92.62,10.17,10.17,0,0,0-2.52-.47c-1.18,0-3.43-.55-5.15-.73a26.61,26.61,0,0,1-5-1c-.8-.34-5-2.16-5.82-2.34a27.09,27.09,0,0,1-4.77-.89c-1.47-.61-5.24-2.5-6.33-3.57s-1.45-2.81-2.81-3.21-2.09-.74-2.09-.36,2,3.44,1.94,4-1.05,1.63-1.56.72a39.76,39.76,0,0,0-3.32-5.29c-1-1.07-1.52-1.49-2.14-1.36s-3.08,1.34-2.81-.66a31.63,31.63,0,0,1,.82-3.35c.07-.67.43-2.76.43-3.52a5.74,5.74,0,0,0-.9-2.59c-.35-.44.23-2.63-1.53-3.67s-4.77-.4-6-2.12a10.92,10.92,0,0,1-1.76-3.28c-.18-.53-.94-2.89-1.18-3.5a32.38,32.38,0,0,0-2.14-2.94,31,31,0,0,1-2.59-4.46,35.54,35.54,0,0,1-.18-6,25.44,25.44,0,0,0,.63-3.5,42.28,42.28,0,0,0-3.28-4.32c-.74-.83-3.37-2.79-4.19-3.59a29.36,29.36,0,0,0-3.45-2.81c-.83-.51-2.52-1.47-2.84-2.38s-.8-2.45-1.56-3a57.89,57.89,0,0,0-6.06-3.79,83.31,83.31,0,0,1-7.11-4.37c-1-.76-3.19-2.83-4.5-2.92s-5.17-.38-5.53-.09-1.94,3.3-2.27,3.77-2.28,4.41-3.57,5.66-.78,2.34-3.85,3.16a17.14,17.14,0,0,1-5.87.65c-.93,0-1.27-.65-1.69.18s.07,4.14.33,5.57,1.12,6.91,1.36,8.65,1.05,6.08,1.14,6.44,1,4.55,1.16,5.68a47,47,0,0,0,1.69,6.8,27.53,27.53,0,0,0,2.32,4.79,38.83,38.83,0,0,1,2.83,6.38c.4,1.42.25,2,.6,2.4a66.51,66.51,0,0,1,4.64,5.11,17.77,17.77,0,0,1,1.58,4.21c.18,1,.47,3,.72,3.88s.06,1.65.86,2.34,3,2.25,3.75,3.37a20,20,0,0,1,1.72,3.09,15.25,15.25,0,0,0,1.49,2.28,29.81,29.81,0,0,1,1.56,3.32,3.46,3.46,0,0,0,1.58,1.83,15,15,0,0,1,2.88,2.09c.35.54,2.09,1.7,2.14,2.63a12.45,12.45,0,0,1-.14,2.63,8.53,8.53,0,0,0,.67,3.08c.38.8,2.39,4.08,2.54,4.5s1,2.72,1.34,3.43a8.23,8.23,0,0,0,1.05,2.34,15.27,15.27,0,0,0,2.49,2.59,6.37,6.37,0,0,1,2.12,1.67,20.92,20.92,0,0,0,2,2.52,9.81,9.81,0,0,1,2.05,1.92c.56.89.65,1.6,1.27,2s1.47.27,1.63,1.1a12.55,12.55,0,0,1,.22,2.29,6.71,6.71,0,0,0,1,2.45c.47.9.87,1.47,1.25,2.21a9.5,9.5,0,0,0,1.83,2,45.74,45.74,0,0,1,3.47,3.5c.65.91,1.36,1.22,2,2.54s.85,2.61,1.2,3.25,1.63,1.36,1.87,1.59a18.6,18.6,0,0,1,2.52,2c1.07,1.09,2.88,2.36,3.52,2.94s3,2.41,3.84,3.17,3,2.56,4,3.65a57.7,57.7,0,0,0,4.61,4.28c1.25,1,4,3.24,4.39,3.61s5.73,5.09,6.17,5.67a17.51,17.51,0,0,0,1.68,2.36,85.24,85.24,0,0,0,6,6.26,21.33,21.33,0,0,1,4.08,3.84c1.12,1.49,4.06,5.5,4.75,6.3s1.8,1,2.83,2.3a23.59,23.59,0,0,1,2.29,3.23,4.46,4.46,0,0,0,1.85,2.12c1.05.56,3.15.69,4.42.91a16.85,16.85,0,0,1,4.26,1.38c.42.38,1.64,1,1.82,1.34s2.57,3.77,3.26,5.15a8.29,8.29,0,0,1,1.33,3.39,16.24,16.24,0,0,0,.56,3.1,8.2,8.2,0,0,0,2.45,2.4c1,.65,3.1,1.27,4.46,2.25s3.37,2.35,4.39,3.17,3.23,2.05,3.77,3a9.47,9.47,0,0,0,2.92,3.15c1.31.8,3.61,2.45,5.21,3.67s3.26,2.19,4.73,3.26,5.44,4.17,6.44,5,3.66,3.32,4.15,3.72,5.68,4.92,6.33,5.41,2.43,1.65,3.25,2.3,5,3.77,6.18,4.95a47.29,47.29,0,0,1,3.34,3.52,58.4,58.4,0,0,0,5,5.75c1.29,1.09,2.52,2.9,3.06,3.32s3.58,3.81,4.19,4.44a14.82,14.82,0,0,0,2.67,1.49c.71.45,4.68,2.32,6,3.32s2.88,2.48,3.54,2.88,2.06.62,3.12,1.58,2,2.14,2.86,2.5,1.8.64,2.07.75a6.69,6.69,0,0,1,2,2.14c.74,1.21,1.25,4.93,1.43,5.71s1.14,3.77,1.22,4.77a4.35,4.35,0,0,0,1.16,2.45,17.16,17.16,0,0,0,3.3,1.72c.58.09,5.46.4,6.82,1a13.51,13.51,0,0,1,3.73,2c1.33,1.07,3.16,3.86,4,4.95s1.59,1.81,1.72,2.59a6.31,6.31,0,0,0,.44,2.09,18.79,18.79,0,0,1,2.06,2c1.27,1.51,2.2,2.85,3.58,3.65s5.38,4,6.82,4.91,7.87,3.9,8.76,4.72,1.1,1.38,2.3,1.76,5.13,1.72,6.29,3.52,2.58,3.5,2.67,4.37a14.7,14.7,0,0,1,0,4.19c-.31.92-.87,1.54-.49,2.45s1.47,1.36,1.36,2.3-.42.89-.45,1.27-1.38.6-2.07,1.16a9.69,9.69,0,0,0-1.83,1.65c-.11.31-1.45.2-2.29.91s-2,1.5-1.3,3.37,1.21,2.09.78,2.47-3.14,2.8-3.76,2.09-.47-.84-1.05-.77-1.94-.23-1.65,1,1,1.7.94,2.63-2.05,1.59-2.58,1.48-1.35-1.08-2.42-1.16a12.45,12.45,0,0,0-3.43.22c-.93.22-1.07.71-3.21-.09s-6.11-3.43-6.66-4.26a39.1,39.1,0,0,0-3.44-3.83c-.8-.76-2.85-2.9-3.56-3.5a9.12,9.12,0,0,0-3.23-1.47,32.84,32.84,0,0,1-3.75-1.67c-1.67-.72-3.14-2.21-4.88-3s-4.35-1.74-5.19-2.7-2.5-3.27-3.32-3.92-1.92-.36-4.13-2-4.95-3.67-6-4.63a19.76,19.76,0,0,1-3.18-3.15c-.54-.89-.76-3.76-.78-4.79s0-4.41-.94-4.52a7.23,7.23,0,0,0-3.23.47c-.89.37-2.56,2.43-4.82,2a12.86,12.86,0,0,1-5.41-3c-1.27-1.07-5.53-4.46-7.22-5.79s-3.59-3-4.88-4.1-3.75-3-5.89-4.62-4.86-3.45-5.35-3.92-3.5-3.52-4.34-4.41-3.59-2.28-4.46-2.9-8-6.42-9.19-7.33-4.34-2.92-5.21-3.57-6-4.88-6.91-5.75-4.66-4.79-5.19-5.28-6.82-5.89-7.29-6.27-7.8-6.44-8.25-6.91-3.23-3-3.81-3.52-4.3-3.36-5.57-4.17-5-3.45-5.29-3.81-6.17-4-7.17-4.52-9-5.24-10.37-5.89-4.23-1.09-5.1-1.42-8.69-3.88-9.59-4.28a17.15,17.15,0,0,0-4.21-1.59c-2.32-.53-4.3-1.13-4.88-1.33s-9-3.59-10.05-4.13-10.3-4.61-11.64-5.3-4.86-2.43-5.59-2.76-7.76-2.66-10.32-3.33-7.47-2.71-8.23-2.94-7.84-1.91-9.82-2.36-8.18-1.4-9.25-1.49a58.86,58.86,0,0,0-8.23-.14,57.64,57.64,0,0,0-6.42.76,91.74,91.74,0,0,0-9.69,3.57c-1.27.55-10.57,3.94-11.84,4.7s-7.11,2.83-8.67,3.63-10.7,5.51-12.15,6.36-10.27,5.23-11.19,5.88-6.1,2.94-8.4,4-5.15,2.9-8.11,3.88-7.47,1.91-10.26,2.58-9.18,4.28-10.38,4.82-6.27,3.18-7,3.65a8.57,8.57,0,0,0-1.85,1.56c-.69.72-3.82,3.52-5.24,4s-4.82.18-6.42.54a4.52,4.52,0,0,0-2.45,1.27,12.21,12.21,0,0,1-3.88,3c-2,.78-3.77.23-4.17.52s-1.67,2.92-2.7,3.92a13.6,13.6,0,0,1-5.37,2.65c-1.67.33-2.94.4-3.14.69s-2.36,5.51-2.76,6.22-4.13,5.51-4.57,6.33-3.55,5.22-4.22,6.2-3.23,4.37-3.81,5.17-2.49,3.79-3.39,4.79-2.92,3-3.94,4-5.31,5.13-6,5.77-5,4.31-6,5.18-4.46,4.88-5.84,6.08-2.63,2.21-3.23,2.7-1.9,3.72-2.34,5.1a35.84,35.84,0,0,1-1.54,5c-.87,1.87.22,1.09-2,3.79s-1.85,2.78-3.34,3.83-2.66,1-3.82,1.72-1.24,1.56-1.24,3.47a22.49,22.49,0,0,1-1,6.24,11.85,11.85,0,0,1-1.78,3.48,23.54,23.54,0,0,1-2.61,2.72c-1.47,1.14-3.81,2.34-4.37,2.74a35.48,35.48,0,0,0-2.85,4.08c-.56.83-3.48,4.73-4.39,5.8a50.06,50.06,0,0,1-5.13,4.1c-.24.18-9,4.54-11.39,4.88s-16.46,1-20.38,1-13.38-.06-17.06-1S0,520.69,0,519.5s2.61-6.21,3.68-7.7,1.55-2.61,2.47-3.24,5-4.1,6.63-5.29,2.49-2.55,3.5-3,6.39-3.18,7.76-4,3.66-2,4.52-2.67a13.79,13.79,0,0,0,2.29-2.53,6,6,0,0,1,1.81-1.87c.92-.63.68,0,1.63-1.16s1.07-1.37,1.91-2.41a7.74,7.74,0,0,1,2.13-2.23c1-.59,1.58-.65,2.17-.38s1.76.59,1.94-.09.11-2.92.17-4.1a21.91,21.91,0,0,1,.87-5.41,11,11,0,0,1,2.08-3.3,25.22,25.22,0,0,1,3.86-2.32c.45-.09,1.58-.09,1.93-.65a24.46,24.46,0,0,0,1.16-2.56c.36-.83,2.79-5.11,4-6.12s2.68-1.79,3.21-2.53a6.86,6.86,0,0,0,1.13-2.73c.39-1.46,1.06-4.63,2-6.24s1.7-3.27,2.16-3.87,4.15-5.46,4.82-6.25S73.6,433,73.6,433s3.68-3.3,4.63-4.37a26.43,26.43,0,0,0,2.63-3.25c.63-1,.92-1.59,1.63-2.79s1.47-2.5,1.78-3.12,2.59-5.19,3.28-6.22,1.45-2.36,2-3.12,3.56-4.52,4.32-5.55,2.36-3.37,2.74-3.65,4.17-3.82,4.93-4.37a6,6,0,0,0,2.09-1.81,35.54,35.54,0,0,0,2.39-5.08,19.74,19.74,0,0,0,.55-2.41,11.86,11.86,0,0,1,.58-2.7,3.9,3.9,0,0,1,2.88-1.22c1.76-.09,2.36-.13,2.76-.91l1.23-2.37c.13-.26.76-1.07.73-1.65a8.46,8.46,0,0,1,.25-2.56,10.22,10.22,0,0,1,1.11-2c.12-.06,2.5.2,3.32-.6s.87-2,1.52-2.49,2.43-1.07,3.23-1.63a6.57,6.57,0,0,0,2-2c1-1.27,3.37-4,3.81-4.84s4-6.15,4.44-6.91,1.67-2.83,2.32-3.77,3.27-5,4-6.28a34.6,34.6,0,0,1,4-4.39s2.81-3.61,3.33-4.17,4.72-4.9,5.23-5.44,1.56-1.83,1.94-2.23,3.12-2.23,3.7-2.72,2.34-2,3.06-2.58,2.83-2.08,3.25-2.41,1.54-1.45,3-2.47a26.5,26.5,0,0,1,3.65-2.46c1-.42,6.27-3.94,7.16-4.48s8.12-6.5,9.36-7.46,4.76-4.27,5.53-4.93.77-1.13,1.22-2.32a4.34,4.34,0,0,1,1.52-2.17,7.69,7.69,0,0,1,1.87-.83,4.4,4.4,0,0,0,1.6-.56c.15-.18.21-1.37.51-1.76s1.34-.68,1.63-.95a6.61,6.61,0,0,0,1.13-2.67c-.09-.45-2-2.83-2.49-4s-1.52-7.31-1.7-7.85a49.72,49.72,0,0,0-1.75-4.9c-.33-.42-2.94-5-3.33-5.74a55.09,55.09,0,0,1-2-5.82,52.6,52.6,0,0,1-.89-6.6,36.22,36.22,0,0,0-1.4-5.41c-.18-.62-2.5-7.7-3.18-8.8s-4.78-6.8-5-7.46-2.59-4.48-2.71-4.72-1.75-4.1-2.7-6.06-3-6.07-3.54-7.17-2-3.68-2.29-4.07-3.47-5.53-3.47-6.24a7.37,7.37,0,0,0-.21-3.39c-.57-1.42-1.81-4.69-1.93-5a42,42,0,0,1-1.31-5,29.82,29.82,0,0,0-.89-5.71c-.33-.5-2.08-2.17-2.62-2.76s-2.85-2.44-3.59-3.12-4.61-3.39-4.88-3.69-3.12-2.82-4.69-4.16a83.66,83.66,0,0,1-6.63-6.18c-1.1-1.34-5-6.42-5.68-7.31s-3.65-5.68-3.89-6.06-3.83-6-4.46-6.81-2.4-3.21-3-3.92-4.22-4.93-5.67-6.78-4.31-7-4.88-7.66-2.76-3.51-3.62-4.43-1.31-2.29-2.65-2.68a9.61,9.61,0,0,1-3.8-2.34c-.42-.63-2-3.66-2.62-4.64s-3.12-1.9-3.65-2.79-2.74-3.51-2.92-3.81a22.19,22.19,0,0,0-2.14-2.58Z" transform="translate(0.02 -43.19)"/></svg>