<svg id="katman_1" data-name="katman 1" xmlns="http://www.w3.org/2000/svg" viewBox="0 0 433.08 566.93"><path d="M137.25,107.61a8.33,8.33,0,0,1,.59-1.6,2.75,2.75,0,0,1,.86-1,5.76,5.76,0,0,1,2.35-.24,15.87,15.87,0,0,1,3.46,2c.79.66,1.51,1.61,1.85,1.79s2-.74,2.1-.84.06-.28,1.07-.13,2,.33,2.4-.06,5-4.27,5.5-4.65,2.37-2,3-2.51,2.4-1.87,3.13-2.56,2.41-2,2.9-2.49,3.18-2.6,3.48-3,3.35-2.69,3.79-3.2,3.59-3.4,4-3.68,3-2.48,3.76-3.08,6.13-5.4,6.65-5.87,7.18-6.75,7.43-7,5.13-4.47,5.7-4.91,7-6.75,7.18-6.94,6.45-6.48,7.12-7,5.56-4.71,6-5.1,5-4.1,5.63-4.67,6.59-5.43,6.66-5.5,6.86-6,7.27-6.29l5.35-4.32c.76-.6,9-7.52,9.58-7.92s10.37-8.73,10.5-8.86S275.68.94,276.15.73s4.25-1.2,6.25-.07a12.86,12.86,0,0,1,4.65,3.9,23.89,23.89,0,0,1,2.33,5.34c.22,1.23,1.24,2.82.28,4.38a45.27,45.27,0,0,1-5.49,6.08c-1.14,1-7.79,6.39-8.72,7.11S269.17,32.1,268,33s-6.27,5.47-7.73,6.54-5.76,4.56-6.87,5.38-6.28,4.85-7.17,5.5-6.73,4.67-8,5.56-7.65,5.79-8.46,6.31-9.43,6.46-10,6.89-13.16,9-13.16,9L195,86.64l-12.29,8.93L170,105.13s-9.37,6.76-9.5,6.83-2.82,2.17-2.82,2.17.16,1.52.14,2.36.13,4.49.13,5.05,0,1.68,0,3.26-.2,3.39-.29,3.89-.9,4.24-1,4.68-2.92,4.76-3.74,6.53-1.86,4.76-2.08,5.24-2,3.76-1.88,5.58a8.06,8.06,0,0,0,.59,3.14c.26.6,1.53,1.52,3.61,1.89s2.93.63,3.52,1.14,2.27,1.47,3.13,2.15a9.11,9.11,0,0,0,2.92,1.65c1.37.52,3.88,1.79,5.95,2.36a52.56,52.56,0,0,0,7.37,1.39c2.3.24,4.65,1.15,5.94.81a18.77,18.77,0,0,0,4.47-2.64c.66-.53,4.35-3.53,5.58-4.27a52.42,52.42,0,0,1,5.79-3.4c1.94-.82,3.8-1.58,5.11-2a36.94,36.94,0,0,0,3.91-1.37c.63-.36,2.15-1.37,2.34-1.46s2.63-.73,4.49-1.16a16.89,16.89,0,0,1,2.75-.63,25,25,0,0,0,4.08-.23c.65-.22,7.48-2.16,8-2.42s3-1.1,3.24-1.21.23-1.46.11-1.68-.63-1.5-1-1.52a4.21,4.21,0,0,0-2.19.52c-.61.44-1.37,1.63-1.83,1.86s-.82.84-1.62-.08a14.76,14.76,0,0,1-1.81-3.75c-.24-.66-.71-2.54-.9-3s-.7-2.2-.87-2.54-.39-1.29-.5-1.52-.76-2.57-1-3.16-.73-3.32-1.07-4.12-.95-2.58-1-2.72a17.18,17.18,0,0,0-.55-1.84c-.37-.93-.69-2.42-1-3.38a26.7,26.7,0,0,1-.63-4c0-.5-.23-2.82-.25-3.57A34.35,34.35,0,0,1,216,106c.11-.5.95-3,1.2-3.65a34.2,34.2,0,0,1,1.57-3.25c.41-.65,2.27-3.59,2.4-3.76s2-2.39,2.55-2.87a36.21,36.21,0,0,1,3.11-2.72c.77-.49,4.53-2.64,5.18-3s2.9-1.71,3.74-2.16a29.66,29.66,0,0,1,3.82-2.28,15.36,15.36,0,0,1,3.69-.38c.49,0,4.4-1.37,6.27-1.51a38.59,38.59,0,0,1,6.35-.55,41.74,41.74,0,0,1,6.09.63,46.06,46.06,0,0,1,7.13,2.72,16.19,16.19,0,0,1,3.69,2.51c.67.75,3.12,3.72,3.73,4.49a63,63,0,0,1,3.25,5.45c.33.7,1.81,4,2.27,4.94a9.82,9.82,0,0,0,1.24,2.13,9.9,9.9,0,0,0,3.54,1.71c1.41.38,5,1,6.43,1.21s5.72.92,6.06,1.26.72.3.53.77-3.05,2.16-4.27,2.77-3.68,2.08-4.89,2.76-1.45.57-1.42.87a13.77,13.77,0,0,0,.82,2.58c.53,1.31,1.49,2.89,1.6,4.16a13.76,13.76,0,0,1-.19,4.57c-.39,1.25-1.11,4.1-1.35,4.49a25.68,25.68,0,0,1-2.05,3.12c-.59.59-2,1.5-2.1,1.66a18.89,18.89,0,0,0,.33,1.88c.12,1,.44,2.25.64,3.47s.23,2.73.51,3a18.44,18.44,0,0,0,2.55,2.1c.9.59,3.65,2.6,4.21,3.13s2.75,2.29,3.54,3.21,2.51,2.8,3.13,3.49a13.72,13.72,0,0,0,2.26,2c.65.45,2.88,1.3,3.63,2.15s2.08,2.39,2.84,3.12,3.33,3.19,3.77,4.22a13.69,13.69,0,0,1,1.27,3.51,5.89,5.89,0,0,0,.75,2.49c.38.68,1.32,2.28,1.79,3.21A8,8,0,0,1,318,178c.14.76.89,2.66,1.08,3.26a20.87,20.87,0,0,0,1.86,3.49,28.42,28.42,0,0,1,1.59,3.23,25.21,25.21,0,0,1,1.55,4,39.06,39.06,0,0,1,.89,4.17c.15,1.51.59,3.28.83,4.78s.77,3.39.84,4a11.6,11.6,0,0,0,.1,2.58,15.68,15.68,0,0,1,.77,3.9,7.2,7.2,0,0,1-.44,2.8,12.22,12.22,0,0,0-.16,3.61,19.93,19.93,0,0,0,.47,4.73c.39,1.74.76,2.6,1,3.54s.57,2.66.8,3.9.73,2.55.86,3.08-.29,1.68.14,2.84.78,1.54.84,1.87-.67.91-.7,1-.07.37.44.63,1.81.45,1.95,1-.05,1,.29,1.09,1.37-.7,2.05-.25,1.57,1.06,1.58,1.43a10.46,10.46,0,0,1-.53,2.88c-.29.61-.78,1-.64,1.23s2.43-.53,3.14.08a2.63,2.63,0,0,1,.81,1.87c0,.27.48.61.85,1.2a3.73,3.73,0,0,1,.73,2,12.38,12.38,0,0,1,.13,2.42c-.1.23.13,1.06-.66,1.06s-1.53-.18-1.24,0,1.91.55,2,1.06a7.19,7.19,0,0,1,.37,2.78c-.21.68-.68.47-.44,1.18a24.39,24.39,0,0,0,1.4,3,17.61,17.61,0,0,0,2.62,3.45c1.05,1,2.38,1.71,2.63,2.25s.79,1.54.42,2-.67.3-.52,1a10.43,10.43,0,0,0,1,2.43c.37.59.71,1.28,1,1.44s1.38.07,1.94.44a40,40,0,0,1,3,3,14.38,14.38,0,0,1,1.82,1.88c.25.5.84,3.81,1,4.51s.61,1,1.56,1.76a5,5,0,0,1,1.85,2.42,7.74,7.74,0,0,1,.79,2,10.39,10.39,0,0,0,.17,2.41c.23.28,3.1,0,3.66.77a6,6,0,0,1,1.27,3.35c-.09,1.14-.36,2.73-.46,3.43s-.35,1.31.12,1.42,3-.13,3.83,0a1.83,1.83,0,0,1,1.71,1.06,4.71,4.71,0,0,1,1.06,2.75,11.33,11.33,0,0,1-.19,4c-.42,2.09-.8,2.78-.79,4.41s.22,3,.86,3.08a22.44,22.44,0,0,0,2.45-.31c.87,0,2.19-.27,2.72.82s.72,1.3.62,2.17a4.67,4.67,0,0,0,.19,3.33c.74,1.41,2.16,3.73,2.38,4a9.24,9.24,0,0,0,1.81,3.19,30.66,30.66,0,0,1,3.26,4.24,37.88,37.88,0,0,1,2.52,4.36c.88,2,3.08,4.92,3.39,5.67a46.36,46.36,0,0,0,2.81,4.62c.84,1.22,2.43,4.87,3,5.89a24.47,24.47,0,0,1,2,4.23c.43,1.4.84,2.71,1.41,4.46a39.21,39.21,0,0,0,2.24,4.79,19.5,19.5,0,0,1,1.31,3.13,28.32,28.32,0,0,0,.88,3.59,22.87,22.87,0,0,0,1.88,4.3,48.75,48.75,0,0,1,2.3,5.3,11.06,11.06,0,0,0,1.08,2.31,21.76,21.76,0,0,1,1.4,2.61c.69,1.51.81,2.3,1.39,2.7a4.18,4.18,0,0,0,1.57.76,5.84,5.84,0,0,1,2.66,1.65c.64.8,1.54,2.05,1.73,2.36a5,5,0,0,1,1.13,2.72c-.05,1.24-.21,1.32-.18,1.94a6.55,6.55,0,0,0,.83,2.71,12.52,12.52,0,0,0,1.69,2.65,19.29,19.29,0,0,1,2.12,3.54,32.19,32.19,0,0,0,1.39,3.1c.49.91,3.36,4.54,3.64,5.22s1.23,1.53,1.87,2.52,2.35,4.09,3,4.9,1.61,3.82,2.77,5.26,3.07,4.36,3.67,5.11a24.85,24.85,0,0,1,2.68,3.51A27.77,27.77,0,0,1,447,447.4a15.89,15.89,0,0,1,1,4.14,50.13,50.13,0,0,1,.29,5.64,11.63,11.63,0,0,0,.62,3.4c.49,1.92.92,3.31,1.47,5.58a16.76,16.76,0,0,0,1.44,4.36,10,10,0,0,0,2.61,2.48c.7.39,2.2,1,2.69,1.85a9.57,9.57,0,0,1,1.58,3.07,26.45,26.45,0,0,1,.1,5.07c0,1.64-.81,2.75-.46,4.38a18.44,18.44,0,0,0,1.56,5c.92,1.78,1.16,4.25,2,5.81s.87,2.57,1.5,3.32a38.73,38.73,0,0,0,3.17,2.48c.23.29,3.58,2.91,4.29,4a40.55,40.55,0,0,1,2.93,4.87c.5,1.21.57,2.5,1.27,3.2a21,21,0,0,1,3.06,3.26,27,27,0,0,1,2.13,4.43c.58,1.49,1,3.89,1.51,5a8.12,8.12,0,0,0,1.41,2.23c.2.16.64.1,1.65.6s1.37.16,1.58,1.54-.3,1.81.31,3.18,1.43,2.09,1.47,2.76a6.08,6.08,0,0,1-.26,1.77,4.12,4.12,0,0,0,1.41,3c1.21,1.22,3.19,3.29,4.73,4.59s2.31,2.27,2.7,2.59a9.24,9.24,0,0,1,2.64,2.76,14.43,14.43,0,0,1,.6,5c-.12,1-.57,6.1-2.08,6.76s-9.4,1.48-10.45,1.48-13.48,0-15.36,0a13.13,13.13,0,0,1-5.38-1.31c-.83-.52-1.34-1.17-1.77-1.31a51.35,51.35,0,0,0-6.38.94c-1.59.28-5.1.14-6.1-.52s-1.31-1.08-1.31-1.85a30.64,30.64,0,0,0,0-3.93c-.17-.46.37-.74-1.22-1s-3.68-.31-5-1.48-1.68-.94-2.31-2.9a22.44,22.44,0,0,1-.71-4.53c-.08-.49-1.05-5.53-.88-6.67s.71-1.25.23-2.48a61.13,61.13,0,0,1-2.51-6.21,14.3,14.3,0,0,1-.34-3.62c0-2,.62-3.16,0-4.44s-.94-2.59-1.4-3.48a13.83,13.83,0,0,0-2.65-3.9,15,15,0,0,1-3.7-4.5c-.77-1.68-3.59-7-4.11-8.15s-1.51-2.62-2.1-3.67-1.8-4.65-2.23-5.56-2-3.64-2.13-3.9a6.65,6.65,0,0,0-2.45-2.71,5.09,5.09,0,0,1-2.31-2.62c-.37-.68-2.48-5.61-3.25-6.55s-2.65-3.93-2.73-4.73a21,21,0,0,0,0-2.62,12.26,12.26,0,0,0-1.63-3c-.48-.63-1.11-2.6-1.62-3.34s-3.28-4-3.42-4.3-1.65-3.08-2.25-4.36a34.69,34.69,0,0,0-2.37-4.36c-.74-1.05-2-4-3.36-5.89s-3.87-8-4.38-9-2.28-3.53-3.05-4.84-3.42-4.47-4.25-5.56-3.19-3.84-3.64-4.3a46.24,46.24,0,0,0-3.85-3,7.48,7.48,0,0,1-2.76-3.13c-.23-.74-.26-3.51-2.11-5.79s-3.76-5.07-4.87-6a61.82,61.82,0,0,1-4.59-4.53c-.71-.88-7.61-6.83-8-7.06s-4-3.14-5.44-3.9-5.93-4.28-7.46-5.13a38.42,38.42,0,0,1-5.59-3.68c-.91-.91-4.64-5.58-5.5-6.38s-3.36-3.9-6-5.73-3.25-2.62-5.27-3.7a53.56,53.56,0,0,0-7.52-3.19,19.49,19.49,0,0,0-4.5-1,46.73,46.73,0,0,0-8.06,1.77,93.5,93.5,0,0,0-8.86,5.59c-1.83,1.53-6.47,5.15-8.18,6.66s-8,6.27-9,7.69-6.67,6.7-7.61,7.75-5.47,5.73-7.41,7.52-7.35,6.95-8.32,8.44-8.54,10.68-8.86,11.25-4.95,5.84-5.81,6.92-6.72,6.92-8.15,8.38-8,7-8.8,7.83-4.56,3.39-6.09,5.59-5.45,8-6.22,9.2-4.58,6.07-5.41,7.43-2.53,5.16-4.13,7.47-5,6.92-6.21,8.4-4.79,5.87-6.78,8.21-5.78,7.09-7.61,9.11-7.23,7.64-8.4,9-5.07,5.44-7,7.61-7.18,8.06-7.89,9-4.7,4.68-5.61,5.67-3.76,4.45-5.3,5.87-4.33,3.22-6.38,4.84a32,32,0,0,0-4.93,4.68c-1.06,1.34-1.28,1.88-2.71,2.56a30.57,30.57,0,0,0-3.19,1.31c-1.08.69-1.57,2.34-2.59,4.25s-1.85,4.41-3.36,4.67-5.3,1-5.61,1.14a34.74,34.74,0,0,0-6.47,3c-2.47,1.6-4.9,3.65-9.57,4a83.44,83.44,0,0,1-17.82-1c-4.18-.91-9.23-2.73-9.69-3.72a15.59,15.59,0,0,1-1.13-3.38,27.47,27.47,0,0,1,1.29-6.57,9.82,9.82,0,0,1,2.12-3.88c1.18-1.1,1.9-1.37,2.36-2.28a5,5,0,0,1,1.78-2.62,21.08,21.08,0,0,1,4.16-2.71,40.11,40.11,0,0,0,4.87-3.93c1.06-1,2.2-1.75,2.26-2.4s-.16-3.11.19-3.82,2.39-1.82,2.52-1.88,3.76-.74,4.14-1.12.7-1.53,1.46-2.37,2.49-2,2.59-2.22.55-2.57.81-3.19,1.12-3.74,2.4-5a24.91,24.91,0,0,1,3.28-2.92c.61-.36,5-3.12,7-3.5a23.44,23.44,0,0,0,4.6-1.12,21,21,0,0,0,2.26-4.31c.15-1,0-4.48.28-5s2.22-3.38,2.28-3.44,1.94-2.18,2.7-3.09,2.64-3.44,3.07-4.15,2.51-4.42,3.31-5.58,3.32-4.9,3.59-5.3,4-6.85,5.24-8.47,3-4.33,3.12-4.59,2.41-4.28,3.15-5.25,3.72-4.86,4-5.31,2.3-2.76,2.64-3.25,1.92-3.36,2.53-4.2,4.65-5.36,4.92-5.72,4.82-4.73,5-4.95,4.36-4.12,4.48-4.26,2.68-1.18,2.89-1.37a13.36,13.36,0,0,0,.51-1.91,25.42,25.42,0,0,1,2.07-4.05c.36-.42,3.23-3.15,4.23-3.53s3.48-.82,3.56-1,.57-1.71.83-2.36,1.14-2.6,2-3.07a23,23,0,0,1,3.21-1c.08-.06.61-.7.53-1s-1-4.48-.81-5,1.67-1.77,2.32-2.3a18.41,18.41,0,0,0,2.67-3.32,19.92,19.92,0,0,0,.9-4.28,27.16,27.16,0,0,1,.47-3.66,13.07,13.07,0,0,1,.74-3c.42-.93,1.88-5.32,2.32-6.31s1.94-4.79,2-4.84a41.08,41.08,0,0,0,2-3.82c.36-1,2.85-6.25,3.55-7.52s2.55-4.86,3.14-5.89,2.48-5.45,3.45-6.63,2.66-2.66,2.68-3.11-.27-1,.17-1.65a51.94,51.94,0,0,0,3-4.49c.3-.81.44-1.48.74-2.39a11.33,11.33,0,0,1,1.58-3c.49-.57,1.4-1.29,1.42-1.58s0-.83,0-1.33a31.71,31.71,0,0,1,0-3.21,5.59,5.59,0,0,1,1.18-3.11c.8-.87,2.56-2,2.77-2.26s.51-.25.25-.69a13.83,13.83,0,0,1-1.6-2.62,12.29,12.29,0,0,1-.21-2.24,9.2,9.2,0,0,1,.78-3,6.87,6.87,0,0,1,2-2.35c.74-.4,2.68-1.16,3-1.29s.79-.9.74-1.13-.52-1.42-.57-1.72a4.54,4.54,0,0,1-.08-2.23c.31-.55,1.63-1.12,1.63-1.12s.19-.3-.3-.87a4.08,4.08,0,0,1-1-2.72,7,7,0,0,1,1.11-3c.3-.41,1.36-2.52,1.55-2.86s.8-1,.86-1.22a15.3,15.3,0,0,0-.19-1.52c0-.36-.27-3-.25-3.36s-1-3.53-1.16-3.91-.8-2.43-.93-3.19-.55-3.71-.59-4.3a25.56,25.56,0,0,1,.19-2.88,2.11,2.11,0,0,0-.38-1.41c-.36-.34-2.14-2.45-2.62-3a32.27,32.27,0,0,0-2.33-3,26.61,26.61,0,0,1-2.51-3c-.53-.72-2.13-3-2.62-3.59a37.29,37.29,0,0,1-2.91-4.1c-.49-1-2.49-4.43-2.94-5.11s-2.22-3.86-2.49-4.54-2.2-5.66-2.49-6.63-1.4-4.48-1.56-5.16-1.5-3.78-1.65-4.14-.83-1.85-1.08-2.59a15.23,15.23,0,0,0-1.56-3,11.17,11.17,0,0,1-1.59-2.39,50.14,50.14,0,0,0-1.86-5.34c-.46-.68-1.6-3.24-2.21-3.3a4.61,4.61,0,0,0-2.3.4c-.57.36-2,1.74-3.41,3a54.28,54.28,0,0,1-6.13,4.38c-2.16,1.33-2.59,1.65-3.73,1.85a7.09,7.09,0,0,1-2,0,13.09,13.09,0,0,0-2.65.51c-.31.2-12,4.76-13.07,5.07s-4.36,1.88-7.07,2.11a56.47,56.47,0,0,1-9.14-.2c-1.4-.23-8.81-1.48-10-1.94a16.48,16.48,0,0,1-3.48-2.48,10.55,10.55,0,0,1-2.42-4.1,15.66,15.66,0,0,0-.34-2.82c-.23-.57-2.91-7.18-3.39-9.09s-1.4-6.52-1.68-7.63a38.77,38.77,0,0,1-1.29-5.07c-.17-1.6-.51-4.3-.54-6.18s.17-5.36.17-5.84,0-5.87.2-6.76.91-4.58,1.17-5.58.74-3.39.83-3.79.82-4.39,1-5.41,1.63-2.77.71-3.62-2.47-2.45-3-2.85-7.38-4.1-7.9-4.81-2.9-3.85-3.3-3.85a27.39,27.39,0,0,1-4,.17c-1.88-.11-5.67-2.11-6-3s-1.48-2.56-1.59-4.1a30.11,30.11,0,0,1,.2-4.62c0-.4-.09-3.16.08-3.93s3.42-5.13,3.42-5.13,2.31-2.19,3-3,1.63-2.1,2-2.45,3-2.13,3.41-2.67a22.66,22.66,0,0,1,2.51-2.94c.46-.2,2.82-.85,3.65-.51s2.39.88,2.79.6a35.77,35.77,0,0,0,3.25-3.94,22.15,22.15,0,0,1,2.59-3.84c.71-.6,2.11-1.31,2.25-1.54s.63-1.42.8-1.77a11.23,11.23,0,0,1,1.62-1.79c.26-.17,1.77-1,1.91-1S137.12,108.43,137.25,107.61Z" transform="translate(-66.93 -0.13)"/></svg>