<svg id="katman_1" data-name="katman 1" xmlns="http://www.w3.org/2000/svg" viewBox="0 0 566.93 500.4"><path d="M566.68,495.55a15,15,0,0,0-5.2-8c-2.13-1.67-3.74-1.38-7.27-1.84s-13.32,1.4-14.57,1.4-3.16-.06-5.46-.06-7.92-1.26-10.93-1.34A58.8,58.8,0,0,1,512.41,484a32.44,32.44,0,0,0-7.44-1.23c-1.67,0-4.09-.25-5-1.22s-5.13-5.26-6.09-6.18-5-4.44-6-5.65a6.19,6.19,0,0,0-4.1-1.86c-1.67-.26-3.85-.44-4.58-.64s-1.64-2-2.73-3.83-4-6.26-4.87-7.36-5.32-5.67-5.45-5.85-1.69-2-2.15-2.48a39.76,39.76,0,0,0-3.22-2.34c-.85-.59-2.95-2-3.75-2.45a14.59,14.59,0,0,1-2.49-2.41c-.57-.64-2.32-3.09-3.36-4.27A42.77,42.77,0,0,1,448,430.8c-.15-.29-2.17-3.31-3.15-4.62s-5.11-6.57-6.38-7.78-3.65-5.23-5-6.9-3-6.31-4.12-7.95a59,59,0,0,1-3.7-7.25,7.17,7.17,0,0,1,.35-2.76c.26-.77,1-.92,1.7-1.43s.82-1.7.58-2.75-3.64-1.07-3.86-1.78a32.42,32.42,0,0,1-.15-3.28,32.5,32.5,0,0,0-2-3.07c-.35-.42,0-.59-.33-2.54a13.92,13.92,0,0,0-1.69-5.08c-.65-.9-.83-1.84-1.53-3.09a25.3,25.3,0,0,0-2.91-3.53c-1.18-1.4-1-2.25-1.62-3.22s-1.1-1.09-1.69-1.82-.16-1.38-.26-2.58-.77-1.54-1.56-2.24a4.16,4.16,0,0,1-1.1-1.75c-.32-.63-1.24-2.1-1.77-3.13a28.38,28.38,0,0,1-1.09-4.16c-.22-.75-1.36-1.76-2.34-2.68s-1-1.57-1.43-2.36-2-2.89-2.41-3.39-2-3.23-2.54-4-.83-2.58-1.09-3.59-.38-.83-.82-1.29a14.49,14.49,0,0,1-1.72-1.89c-.53-.77-3.14-5.7-3.56-6.66a80.6,80.6,0,0,0-5.21-7.31,6.52,6.52,0,0,1-1.16-3.09c-.18-1.19-1-1.58-1.62-2.23s-1.34-1.65-1.87-2.33-.39-1.14-.78-2.26-2.15-4.7-2.87-6.3-3.51-3.14-4.25-3.38a1,1,0,0,1-.81-1.18c0-.57,1.16-2.13,1.47-2.87s-.18-1.14-.72-1.84-3.14-.48-4-.24-.44-.26-.66-1-1.12-3.95-1.62-5.46a25.65,25.65,0,0,0-2.06-4.45c-.57-.92-2.89-5-3.25-5.54a49.63,49.63,0,0,0-3-4.55c-1.33-1.74-3.48-3.71-3.82-4.19s-1.21-1.66-2.39-3.24a29.54,29.54,0,0,1-3.25-6.27,14.48,14.48,0,0,0-1.27-3.17,32.08,32.08,0,0,1-2.38-5.88c-.14-1.07.72-1.5,1.09-3.21a16,16,0,0,0-.19-5.94c-.4-2.41-1.69-4.75-2.5-5.34s-2-.79-2.28-1.12a3.11,3.11,0,0,0-.88-1,23.77,23.77,0,0,0-2.39-.66c-.74-.31-.39-.91-.24-1.56a4.08,4.08,0,0,0,0-2.16,15.8,15.8,0,0,0-2.14-3.94c-.53-.73-1.38-3.38-2.13-4.87s-3.57-8.17-4.12-9.2-3.41-6.77-4-8.45-2.08-6.77-2.63-8.15-2.41-6.4-3.09-7.85-3.37-7.07-3.88-8.1-2.49-4.75-2.89-5.45-4-7.27-4.45-8.15-2.4-4-2.88-5-.25-1.05-.1-2,2.26-4.3,2.92-5.41,2.36-3.38,3-4.32a19.49,19.49,0,0,0,1.82-5.32,38.38,38.38,0,0,0,0-6.79c-.07-1.25-.33-5.09-.79-9.14s-2.15-6.5-3.29-7.4-4.86-5.22-6.2-6.5-4.47-4.47-5.3-5-3.37-1.23-4.9-1.89-6-3.19-7.14-3.91-4.54-1.17-5.87-1.25-4.64-.31-5.2,0a11.68,11.68,0,0,1-3.19,1.29,11.88,11.88,0,0,1-4.58-1.37,8.19,8.19,0,0,1-.6-2.38,36,36,0,0,1-.32-3.69,9.3,9.3,0,0,1,.52-2.81c.22-.74-.73-1.57-1.05-1.94a6.15,6.15,0,0,1-.82-1.12c-.14-.29.23-1.31.14-2.53s-.79-1.46-1.44-2.26a12.17,12.17,0,0,0-2-1.83c-.36-.27-.17-.27.06-.77a12.85,12.85,0,0,0,1.33-3.26c.17-1.17-.12-1.44-.65-2.42s-4.65-2.82-5.43-3.25A48.54,48.54,0,0,1,252,65.89a10.49,10.49,0,0,1-1.93-3.49c-.35-.92,0-1.3.31-1.89s1.14-1.24,1.6-1.86,2.27-2.37,2.27-2.37c-.29-.38,1.55-3.39,3.29-5.63s3.22-6,3.77-6.9-.14-.35-.7-.64-4.73.41-6.77.93a51.86,51.86,0,0,1-9.67.88,4.77,4.77,0,0,1-2.45-1.55c-.88-.87-4.36-4.73-6.22-6a50.65,50.65,0,0,0-8.07-4.07,31.22,31.22,0,0,0-19.1,4.51c-3,1.69-7.24,4-8.23,4.64s-4.09,3.62-5.64,4.87a38.58,38.58,0,0,0-4.7,5.52c-.5.74-3.1,6-3.48,7s-2.48,8.32-2.39,12.88a40.46,40.46,0,0,0,1.37,9.81c.41,1.37,1.61,2.54,2.71,4s5.27,5.55,6.23,6.48,3.3,3.16,3.74,4.18-.65.12-1.44.12a9.38,9.38,0,0,0-4.14,1.63c-.62.7-.56,3.86-.26,5s2.24,3.51,2,3.51-12.18,1.08-13.52,1.08-16.59.87-18.4.87-15.69.59-18.29.59-21.49.58-22.57.61-20.92.52-23.46.52-21,.61-22.52.65-20.52,1.1-23.21,1.16-24.19,1.7-25.53,1.7S4.8,116,3.17,116.3s-3.37,2.78-3.31,7.62,1.85,8.65,3.19,9.61,4.94.12,7.51.12S28.14,132.28,31,132s18.78-1.52,21.12-1.78l27.48-3.06,29.3-4.27,26.72-3.42,26.11-2.71,20.62-1.84c.12,0,14-.94,16-.94s.59.24.44.62-1.16.93-1.46,1.28a4.72,4.72,0,0,0-.84,1.23,7,7,0,0,0,.61,2.78c.32.58,3.74,1.13,5,1.28s.21,1,.06,1.17-4.09,3.11-4.81,3.75-3.72,4.87-3.72,4.87a23.32,23.32,0,0,1-3.18,2.44,19.17,19.17,0,0,0-4.19,2.42,65,65,0,0,0-4.06,5.93A44.27,44.27,0,0,0,180,147.7c-.17.48-1.23,6.7-1.23,7.38s.16,6.6.29,7.56a60.83,60.83,0,0,0,2.26,8.3,50.24,50.24,0,0,0,3.22,5.69c1.07,1.52,4.29,5.29,4.77,5.81s1.86,1.75,2.46,2.41,2.47,3.09,2.91,3.79a28.31,28.31,0,0,0,3.39,3.44,32.12,32.12,0,0,1,3.37,4.31c.56.81,2.67,4.32,2.89,4.63a30.72,30.72,0,0,1,2.57,3.72,14.55,14.55,0,0,0,3.2,4.22c1.1.82,1.65.27,1.55-.44s.29-1,.7-.75,3.36,4.16,3.92,4.74,3.32,1.62,3.67,1,.56-.44,1-.18l7.41,4.75a37.6,37.6,0,0,1,3.53,2.59c.48.48,3.15,2.75,3.66,3.15a9.72,9.72,0,0,0,3.22,2,13.48,13.48,0,0,1,4.49,2.87c.46.61,3.87,4.12,4.24,4.6s1.58,1.84,2.35,2.76,2.65,2.21,3.38,2.91,4,3,4.24,3.2,1.91,2,2.48,2.67.56,2.19,1.26,3.44,2.07,1,2.88,1.05a1.62,1.62,0,0,1,1.35,1.16c.16.44.81,3.81.82,4.11s1.71,4.48,1.78,5a28.19,28.19,0,0,1-.49,4.94,3.49,3.49,0,0,1-1.21,1.4,11.3,11.3,0,0,0-1.32,4.11,17.94,17.94,0,0,1-.52,3.26c-.25.79-1,1.62-1.39,2.67a10.63,10.63,0,0,0-.63,3.45,6.78,6.78,0,0,0,.7,2.25,33.83,33.83,0,0,1,.32,4.48,36.48,36.48,0,0,0,.75,4.06c.22,1.3.91,3.9,1.14,4.72s1.25,4.92,1.39,5.27.86,2.29,1.18,3.29a30,30,0,0,1,.78,3.41,54.06,54.06,0,0,0,.8,5.61A28.13,28.13,0,0,0,271,315c.33.48,3.39,3.93,3.49,4.18s1.08,1.91,1.59,2.7,2.8,2.89,3.43,3.69,2.68,4.14,2.92,4.46,2.18,2.13,3,2.81,3.42,3.54,4.25,4.21.23,1.73,0,2.08-1.94,1.22-2.84,2.12-.32,3,0,3.67.72,1.37,1.1,2.18a15.77,15.77,0,0,0,1.6,2.58,8.5,8.5,0,0,1,1.48,2.2,39.39,39.39,0,0,1,.51,4.61,6.31,6.31,0,0,1-.89,2.31,7.25,7.25,0,0,0-.35,3.78c.2.6,1.33,1.47,1.81,2s1,4.25,1.05,4.62.25,6.22.31,7.14a4.87,4.87,0,0,0,1.17,2.16,3.57,3.57,0,0,1,.26,1.79,8,8,0,0,0-1,2.31,7.38,7.38,0,0,0,1.18,3.08c.18.22,1.56,1.68,1.87,2.12a33.12,33.12,0,0,1,1.28,3.64A10.66,10.66,0,0,1,299,394a35.24,35.24,0,0,1-.68,3.84c-.07.39-.94,2.19-1,2.61s.65.68,2.49.92-.09.37-.44.63-.09,3.74-.13,4.19-1.05.82-1.5,1.27-.25,3.67-.44,4.06-1.22.22-1.52.36-1.52,1.35-2.34,2a5.33,5.33,0,0,1-2.31,1.59c-1.14.33-7.16,1.25-10.19,2.13s-8.76,2.3-10.71,3a109.59,109.59,0,0,0-11,4.49c-2.69,1.49-9.38,5.9-9.88,6.34s-7.42,5.62-9.31,6.78-7.2,4.27-8.06,4.73-8.93,4.5-9.92,5-12.9,6.68-13.76,7.05-13.8,5.51-14.7,5.72-1.31.31-1.38-.06-1-.79-2.58-.73a17.14,17.14,0,0,0-4.93,1.52c-1.05.43-6.22,2.25-8,2.71s-6.2,2-8,2.71a75.63,75.63,0,0,0-8.39,5c-1.12.79-3.34,3.35-3.34,4.23a50.67,50.67,0,0,0,.18,6c.24,1.06,1.27,3.88,1.73,5.08s1.93,3.47,2.5,4.54-.15,1.34-.57,2.17.37,2.45.92,3.46,3,.68,3.72.88,1.73,2,2.79,3.44,5.71,7.69,6.35,8.41,4.31,7.67,5.52,9.07,5.28,6.46,5.28,6.46a51.92,51.92,0,0,0,4.89,4.92c1.59,1.17,11.34,3.44,15.31,3s16.59-.35,21-1.28,3.91-3.22,4-4.62a11,11,0,0,0-1.31-4.61c-.53-.88-4.44-2.92-5.7-3.51a48.15,48.15,0,0,1-6.37-4.56c-1.25-1.1-.84-2.39-.55-3.62a4.68,4.68,0,0,0-1.4-4.06c-1.11-1-3.27-5.08-3.36-7s2.31-5.84,2.77-6.19,1.17.58,1.35.88,2.27,3.76,3.24,5,3.86.93,4.53.46.29-2.51-.06-3.91a15.77,15.77,0,0,0-2.9-4.82c-.87-1-5-1.9-5-2.57s.61-3.24.65-4.94,1-2.51,3.41-3.8,8.41-4.53,10.2-5.25,10.36-3.77,12.14-4.3S253,468.39,254.7,468s12-2.8,13-3.1,10.31-2.39,12.53-3.12,6.51-2.42,7.39-2.8,11.57-4.3,12.91-4.89,10.51-3.94,12-4.23,5.92-1.11,6.3-1.11,1.2.91,1.4,1.32,2.31.72,3.57.67,2.36-1.23,3-1.75,1.51-1.09,2.48-1.73a36.19,36.19,0,0,1,5.81-2c1.2-.36,2.87-2.72,3.3-3.39s1.29-1.61,2.13-2.69,3-3,3.77-4.17a50.92,50.92,0,0,0,2.57-7.19c.23-.85,2.51-8.9,3.27-10.72s2.34-7,2.69-8.44,1.34-6.86,1.49-7.62,1.75-7.74,1.87-8.94.52-7.83.67-8.94a30.37,30.37,0,0,1,.7-4.06c.18-.14,1.26,1.06,2.45,2.22s6.58,5,8.09,6,4.18,1.52,4.62,2,.38,2.74.47,3.59,2.48,3.21,3.5,3.8,1.84-.24,4.24.17,1.67,1.82,1.57,2.46-1.87,1.92-2.07,2.39,2.17,5.25,2.69,5.69,2.63.88,2.68,1.09-.64,2.45-.61,3,2.6,1,3.3,1.06,2,2.18,2.39,2.83,2.46,5.7,3.6,7.71,2.77,6.31,3.21,7,1.93,3.09,2.46,4.09a76.13,76.13,0,0,0,5,7.59c1.73,2.2,6.69,7.42,7.15,7.89s3.25,2.86,4.59,3.94,6.34,5.32,8.3,6.93,6.63,5.54,7.56,6.39,7.1,5.84,7.65,6.25,3.51,3,5.12,4.38a91.89,91.89,0,0,1,6.92,7.28c.49.7,3.59,2.77,4.17,3.29s7.22,6.4,7.75,7a37.79,37.79,0,0,1,2.5,3.26,15.67,15.67,0,0,1,.65,3.8c.15,1.26.2,4.7.41,5.93a21.49,21.49,0,0,1,.58,4,31.57,31.57,0,0,0,.56,5.58c.26,1.28,1.14,4.91,1.6,6.13s2.89,3.42,4.85,4.94,8.5,1.52,11.86,1,13.66-2.75,16.41-3.24,13-.91,16.65-.92,12.71-1.36,17.29-2.23,6.43-2.58,8.41-3.3,6.37-3.69,7.25-3.89,1,.12,3-.15.85-.64.85-1.89.44-.74.79-1.12,2.13-2.71,4.2-5.43S567.44,498.85,566.68,495.55Z" transform="translate(0.14 -33.2)"/></svg>