<svg id="katman_1" data-name="katman 1" xmlns="http://www.w3.org/2000/svg" viewBox="0 0 566.93 445.56"><path d="M566.66,499.63c-.66-3.06-3.48-8.65-4.53-12s-4.4-11.65-5.5-14.19-6.4-10.51-7.6-12.08-4.73-4.4-7.31-6.26-7.4-11.28-8.79-12.9-12.75-11.52-14.71-12.57-4.45-1-7.31-.1a63.59,63.59,0,0,0-9.65,3.59c-2.44,1.29-8.22,1.14-10.61,2.82s-6.93,2.05-10.13,1.62S474,436.7,472,437s-3,1-5.25.77a28.93,28.93,0,0,0-6.74-.15,39.8,39.8,0,0,1-6.73,0c-2.49-.1-8.84-.38-10.32-.67a66.12,66.12,0,0,1-8.08-2.58c-1.77-.76-3.68-.29-7.26-.29s-5.45-.71-7.89-1.19-10.36-3.2-13.71-4-11.32-2.43-16-2.43-13.52.47-14.43.38-2.58-1.43-3.63-1.82-2.19.62-3.48,1-1.49-.43-2.63-.81-3.2.15-4.11,0-2.15-1.38-3.35-1.53-4,.53-4.44,0-.81-2.72-.52-4.73,1.86-3.15,2-5-2.58-2.39-1.24-4.92,1-8.94.81-9.8-2.1-4.54-3.15-6.64-2.1-11.13-2.1-12.76a86.8,86.8,0,0,0-1-9.41c-.38-2-3.1-11.23-3.3-12s1.25-3.25,1.77-4.11a15.45,15.45,0,0,0,1.1-4.06,12.77,12.77,0,0,0-.48-4.54c-.24-1.24-4.44-7.41-4.44-7.41a9.92,9.92,0,0,0,2.87-.38,11.67,11.67,0,0,0,2.39-1.82,27,27,0,0,0,2.29-3.53c.52-.86,1.29-2.1,1.62-2.63a19.82,19.82,0,0,0,2.06-3.82,55.89,55.89,0,0,0,1.57-8.55,48.27,48.27,0,0,1,1.39-5.21,60.74,60.74,0,0,0,1.19-10.51c0-2.54-.86-10.08-.81-11.95s-1.1-4.35-1.05-5.35a28,28,0,0,1,2.25-7.12c1.1-2.15,1.86-4.78,1.33-6s-1.95-.33-2.53-1-.71-1.86-1.72-3-4.39-.53-5.3.57-3.25,3.73-3.63,2.82-5.16-9.36-6.93-12.71-6-6.88-8-9.36-7.88-9.27-9.65-11.57S310,221.27,308,219.69s-11.47-15-13.28-17.3-10.18-14.19-11.18-15.19S272,172.82,270.44,171.34s-11.95-14.62-13.81-15.87-10.7-10.6-12.81-11.89-7-4.25-9-6.07-5.21-5.92-8-7.79-14.43-7-17-7.07-13.22-3.34-14.85-4.46-4.55-1.15-6.08-1.3-8.44,0-12,0S164.27,116,162.2,116a16.1,16.1,0,0,1-6.4-2.13c-1.94-1-1.75-1.82-2.74-2.42a23.13,23.13,0,0,1-2.14-1.56,3.11,3.11,0,0,0,.77-.58,6.75,6.75,0,0,0,.83-2.58c.22-1.21-.1-2.86-.23-5.64a9.46,9.46,0,0,0-2.89-6.78,7.24,7.24,0,0,0-4.4-1.66s-.25-2.42-.51-3.88-1.85-7.23-3.41-9.78a134.59,134.59,0,0,0-9-12.23c-1.4-1.37-6.21-4.49-9-5s-15.54-1.87-19.88-.6A93.37,93.37,0,0,0,87,68.47c-2.87,1.85-8.09,7-8.09,7s-1,1.91-2.55,5.92-1,8.47-.89,9.75,2.23,5.6,2.74,7.2a56.21,56.21,0,0,1,1.46,6.94c-.06.26-6.94,4.21-8,4.72a25.71,25.71,0,0,0-4.53,3.37,7,7,0,0,0-.89,2.74c.06.57,1,1,2.17,1.27s4.46-.31,6.49-.89,6.37-2,8.16-2.48,1.46.51,2,1.15,3.56,4.33,4.52,6.94S92.32,132,94,134.47s7.07,9.24,7.84,10.45,6.88,7.7,7.58,9.11a15.41,15.41,0,0,0,5.54,5.35c2.36,1.21,5.86,1,9.37.25s5.16-1.88,7-1a15.68,15.68,0,0,1,4.72,4.14c.67,1,2.8,5.93,3.31,7.2s.81,6.66,1.19,8.09.34,4.5.43,6.88,3.68,10.09,4.69,11.85,1.67,4,1.53,4.49-5.12,5.83-7,8.08-7.17,9.56-8.31,11-6.45,6.64-7,7.31-2.67,2.82-3.68,4-1.19,1.39-3.15,3.82-6.12,5.45-7.69,6.88-7.89,6.17-9.27,7.51a56,56,0,0,1-5.31,3.87c-1.57,1.14-4.82,1.57-6.26,2s-2.91-1.05-3.82-1.91a6.38,6.38,0,0,1-1.38-3.44c0-.52.67-1.24,1.29-2.05a5.7,5.7,0,0,0,.81-2.77c.19-1.1-.24-1.53-.67-2.39a6,6,0,0,0-1.43-1.77c-.34-.29-1.1.34-1.15.53a1.87,1.87,0,0,0,.48,1.1,8,8,0,0,1,1.14,1.48c.29.47.1.9-.19,1.81a3.69,3.69,0,0,1-2.72,2c-1.29.34-4.92,0-7.74,0A73.31,73.31,0,0,1,59,245.73c-5.59-1.53-3.63-1.39-5.83-1.39a17.85,17.85,0,0,0-7.31,1.77c-1.57,1-2.24,5.21-3.39,6.55S32,257,31,257.63s-2.06-.05-1.58-.58,8.12-7.93,8-8.26a1.71,1.71,0,0,0-2.2,0c-.67.72-5.11,5.36-6.35,6.69a36.64,36.64,0,0,1-4.45,3.78,13.41,13.41,0,0,1-3.2,1s-2.77-4.16-3-4.87-.86.62-.86.95,3.06,4.78,3.06,4.78a14.44,14.44,0,0,1-1.53,1c-.67.33-6.55,3.15-7.26,3.53s-3.35,1.29-3.3.1a61,61,0,0,1,1.1-6.36,49.65,49.65,0,0,0-.14-10.27A66.61,66.61,0,0,0,5.36,239c-.62-1.1-4.3-7.26-4.45-7.45s-.71-.1-.95.05,1.91,3.44,2.2,4.06,2.05,4.06,3.34,6.3a31.87,31.87,0,0,1,3,10.13c0,2.15-.76,10.61-1.05,12.28a13.14,13.14,0,0,1-1.1,3.54,31.23,31.23,0,0,0-1.14,5.73A6.74,6.74,0,0,1,3.69,277c-1,1.43-2.82,3.58-3.25,5.2s2.82,4.78,3,5.12-1.63,4.25-1.72,5.54A17,17,0,0,0,3,299.34c.9,1.91,5.2,1.19,5.2,1.19s0,2.25,0,3.82,2.44,4.54,3.2,5.74,6.69,6.93,7.74,8,8.8,9.46,10.18,11.08,10.32,7.17,13.09,8A49,49,0,0,0,53,338.66c2.48,0,1.76.38,1.76.72a8.85,8.85,0,0,1-1.19,2.24c-.53.81-1.53,1.24-3.15,1.86a25.83,25.83,0,0,1-5.88,1,4,4,0,0,0-1.43.28,11.16,11.16,0,0,0,4.63.91,14.41,14.41,0,0,0,6.69-1.81,21.71,21.71,0,0,0,3.1-4.4c.05-.48.82-.76,1.15-1.05s5.83-8.89,6.55-10a19.41,19.41,0,0,1,2.15-3.24c.57-.43-.1,3-.19,3.39s-.48,2.43-.72,3.53a6.57,6.57,0,0,0-.14,2.68c.14-.1,1.43-.62,1.76-1.58s.77-3.1,1.1-4a18.91,18.91,0,0,0,1.2-4.54c0-1.15-1-2.34-1.44-3.49s.58-3.34.91-3.87,4.64-9.94,5.69-11.27,4.11-3.16,6.59-4.59,7.8-5.48,8.38-5.89a4,4,0,0,1,1.78-.77,11.54,11.54,0,0,1,2.74-.13c1.34,0,1.66-.57,1.63-.92s-1.63-.73-2.55-.67-4.56-.16-4.53-.67.29-4.39,2.27-5.54a51.42,51.42,0,0,0,6-4c2.23-1.72,6.69-7.64,7.27-8.34a49,49,0,0,1,4.58-4.15c1.6-1.27,14.78-11,17.4-12.93s11.46-7.9,13.63-9.3,6.24-2.74,8.34-3.88,9.88-4.78,11.34-6.37,12.76-9.93,14.15-10.21,3,2.29,3.72,3.1,6.12,7.5,6.31,9-3.63,6.22-4.35,7.46S173,257.61,172.07,259s-8,10.26-10.89,13.38-11.72,7.84-14.21,8.92-10.25,4.08-12.35,5-12.81,5.1-15.8,6.31-15.29,5-15.29,5a37,37,0,0,0-4.72,4.14A62.19,62.19,0,0,0,94,311.06c-.57,1.66-4.71,10.7-5.41,12.68s-5.86,14.2-6.82,17.52-3.12,10.83-3.82,13.12-3.51,11.21-4.08,13.06a51.48,51.48,0,0,0-1.34,8.73c-.25,3.12-.19,11.08-.32,12.61s-.89,4.65-1.72,8.79-2.1,9.05-2.54,10.83-.58,6.75-.58,10.38A63.89,63.89,0,0,1,66.2,429c-.51,3.25-1.79,4.78-2.93,8.28A61.12,61.12,0,0,0,61,450.83c0,2.86-1.6,10.64-2,11.91s-2.48,2.61-4.27,4-9.87,8.86-11.46,9.82-10.26,5.6-13.13,6.81-16.94,6.18-19.43,6.56-5.79,3.12-7,5.86.57,5.1,1.27,5.93,5.22,1.59,9.43,1.59,27.14.57,34.21.38,28.79.51,37.52.26,21.91-4,24.46-5.74,2.42-7.51,2.68-8.91-.32-9.37-.57-11.34-2.94-18.1-3.57-20.13A38.79,38.79,0,0,1,108,449.3c.06-1.59,1-5.93,1-8.92s1.91-11.4,2.35-13.12,4.91-14,5.55-15.42,4.58-12.36,5.67-14.59,5.22-11.72,6.11-15.22,4.27-15.74,5-18.41,5.29-14.53,6.18-15a30.61,30.61,0,0,1,8.54-1.52c3,0,13.38-.58,17.14-.58s9-1.72,11.65-1.84,13.13.44,19.11.44,15.3.06,22.3-.32,22.36-1.91,24.15-1.91,1.85.45,5,3.12,10.45,11.72,12.17,14.34,11.46,17.32,13.31,20.89,9.05,16.37,9.69,17.58,9,16.06,10.89,19.31,7.13,12.36,8,13.89,6.56,12.16,8,14.52,1.53,7.26,3.06,9.56,5.41,5.16,5.92,5.54,9,7.58,11.85,9.3,7.58,1.34,13.7,1.53,16.69.7,21.34,1.53,17.39,1.65,20.77,2.23,13.63,2.48,18.6,2.54,13.82.26,15.42.32,11.72,1.91,16.62,2.81S466,484.48,468,484.58s12.9-.15,14.57-1,6.55-.29,9.27-.24,10.08-.43,12.23.14,2.06,2.25,3.73,3.4,2.25.81,3.58.38,2.92.24,4.35.72a43,43,0,0,1,7.17,3.63c2.44,1.53,7.79,4.73,9.51,5.83s7.93,4.06,14.14,7,11.9,1,15.91.72S567.33,502.68,566.66,499.63Z" transform="translate(0.06 -60.55)"/></svg>