<svg id="katman_1" data-name="katman 1" xmlns="http://www.w3.org/2000/svg" viewBox="0 0 566.93 419.55"><path d="M44.08,109.57A14.54,14.54,0,0,0,37,99.06a2.44,2.44,0,0,1-1.28-1.75c0-.59.53-1.3,1.46-2,2.09-1.5,3.17-3.92,3.18-7.14a12.91,12.91,0,0,0-1.46-6.12c-2.6-5.16-7.83-7.71-15.73-7.72H11.71a22.47,22.47,0,0,0-4.52.38q-5.47.94-5.47,3.31a6.85,6.85,0,0,0,1,2.84A21.9,21.9,0,0,1,5.09,86a35.34,35.34,0,0,1,.77,7.49A50.21,50.21,0,0,1,4.51,105a21,21,0,0,1-2.41,5.34A12.23,12.23,0,0,0,0,116.25c0,4.06,3.9,6.77,11.58,7.91,4.7.65,7,1,11.73,1.55,6.67.83,11.9-.08,15.6-2.75a12.81,12.81,0,0,0,5.35-11A18,18,0,0,0,44.08,109.57ZM18.14,87c.77-1.81,2.44-2.69,5-2.62a4.59,4.59,0,0,1,2.67,1,5,5,0,0,1,2.3,4.19,3.37,3.37,0,0,1-.26,1.31c-.68,1.43-2.11,2.1-4.33,2A8.58,8.58,0,0,1,21,92.33c-2.08-.87-3.11-2.17-3.11-3.91A4.17,4.17,0,0,1,18.14,87Zm10.52,21.42c-.77,2.32-2.57,3.35-5.42,3.09a5.89,5.89,0,0,1-2.42-.77,5.57,5.57,0,0,1-2.74-5.22,6.73,6.73,0,0,1,.52-2.65,4.37,4.37,0,0,1,4.64-3.11,5.68,5.68,0,0,1,3.25,1.3A6.75,6.75,0,0,1,29,106.53,5.92,5.92,0,0,1,28.66,108.44Zm2.1-28.36a2.19,2.19,0,0,1-1.08-.29c-.94-.37-1.43-.91-1.4-1.54s.42-.87,1.08-.88a2.35,2.35,0,0,1,1.08.28c.93.44,1.43,1,1.4,1.62S31.41,80.07,30.76,80.08Z" transform="translate(0 -73.7)"/><path d="M94.23,119.54a25.91,25.91,0,0,0-3-3.12,22.79,22.79,0,0,1-5.79-10.49,97.62,97.62,0,0,1-3.12-26,8.8,8.8,0,0,0-.06-1.06,3.67,3.67,0,0,0-1.48-2c-2.16-1.61-5.46-2.41-9.93-2.42a28.32,28.32,0,0,0-4.14.3c-4.41.64-6.62,1.77-6.62,3.44a7.49,7.49,0,0,0,1,3.09,12.58,12.58,0,0,1,1.46,5.31,35.79,35.79,0,0,1-1.66,8.6,105.68,105.68,0,0,1-6.05,16.5c-.21.47-.47,1-.76,1.47a11.29,11.29,0,0,1-4.46,4.14,11.74,11.74,0,0,0-1.08.56,4.81,4.81,0,0,0-1.92,4.33,9.34,9.34,0,0,0,.57,3.31c1,2.51,3.71,4,8.16,4.37a16,16,0,0,0,5.47-.26c2.94-.82,4.4-3.35,4.4-7.54,0-.34,0-.89-.06-1.6s0-1.27,0-1.61c0-5.65,1.51-8.46,4.46-8.35a4,4,0,0,1,1.65.46c1.32.69,2,2.67,2,5.92,0,.84,0,2.23-.11,4.12-.06,1.47-.07,2.48-.07,3a7.66,7.66,0,0,0,1.08,4.26c1.44,2.12,4.88,3.36,10.32,3.66a25.12,25.12,0,0,0,6.43-.27c3.14-.74,4.71-3.07,4.71-7A9,9,0,0,0,94.23,119.54Zm-24.65-16.4c-1,0-1.62-1-1.66-2.57a22.69,22.69,0,0,1,.26-3.75c.38-2.65,1-4,1.72-4,.89.12,1.54,2.66,1.59,7.16C71.51,102,70.78,103.17,69.58,103.14Zm7.33-23.42a3.09,3.09,0,0,1-.84-.16c-1-.31-1.48-.81-1.46-1.44s.58-1,1.53-1a4.11,4.11,0,0,1,.77.08c1,.3,1.48.83,1.46,1.51S77.81,79.69,76.91,79.72Z" transform="translate(0 -73.7)"/><path d="M133.43,101.63q-2.75-3-9.55-6.57l-2.43-1.26c-2.41-1.35-3.62-2.68-3.62-4a4,4,0,0,1,.18-1.16,3.66,3.66,0,0,1,3.64-2.77,3,3,0,0,1,1.46.39c.77.52,1.62,1.93,2.54,4.2q1.27,3.12,2.43,3.59a2.37,2.37,0,0,0,.82.16,3.34,3.34,0,0,0,2.49-1.76,16,16,0,0,0,2-8.55,19.81,19.81,0,0,0-.18-2.66q-.65-5.39-2.94-6.33a2.61,2.61,0,0,0-.83-.15,13,13,0,0,1-2.22-.24,48,48,0,0,0-5.48-.86c-4.34.08-8.79,2-12.61,5.65-3.39,3.18-5.13,6.87-5.1,10.58,0,3.3,1.75,6.73,5.1,10.25a99,99,0,0,0,7.71,6.56c2.54,2.09,3.82,3.56,3.82,4.44a1.66,1.66,0,0,1-.13.6c-.56,1.17-1.75,1.73-3.57,1.69a6.54,6.54,0,0,1-4.14-1.68,28.06,28.06,0,0,1-3.44-4.11q-2.41-3.24-4.52-3.3a3.74,3.74,0,0,0-2.8,1.32c-1.79,1.89-2.67,5-2.67,9.33a26,26,0,0,0,1.52,9.57c2.17,5.4,7,8.24,14.45,8.45,7.18.2,12.81-1.88,16.88-6.13a19.47,19.47,0,0,0,5.35-14A16.37,16.37,0,0,0,133.43,101.63Zm-7.07-24.58a2.2,2.2,0,0,1,1.08.32c.94.47,1.43,1.09,1.4,1.8,0,.56-.42.91-1.09.94a2.23,2.23,0,0,1-1.08-.32c-.93-.47-1.42-1.09-1.4-1.8A1,1,0,0,1,126.36,77.05Z" transform="translate(0 -73.7)"/><path d="M182.25,111.58c-.47-4.52-2.35-6.79-5.61-6.77a3.78,3.78,0,0,0-1.34.24q-1.47.61-3.56,3.56a8.62,8.62,0,0,1-.84,1.22c-1.9,2.63-4.24,4-6.74,4a4.49,4.49,0,0,1-2.81-1.75,9.11,9.11,0,0,1-2.23-5.62,2.34,2.34,0,0,1,2.55-2.55,5,5,0,0,1,3.13,1.45c1.09,1,1.84,1.54,2.23,1.54a1.38,1.38,0,0,0,.88-.39c1.11-1.08,1.66-3.21,1.66-6.41a18.05,18.05,0,0,0-.26-3.09c-.46-2.44-1.23-3.65-2.28-3.65a3.21,3.21,0,0,0-1.72,1c-1.45,1.29-2.66,1.94-3.64,1.94a3.27,3.27,0,0,1-.76-.08,2.49,2.49,0,0,1-2.23-2.79,6.58,6.58,0,0,1,1.21-3.57,7.34,7.34,0,0,1,6.43-3.76,7.91,7.91,0,0,1,5.22,1.79,18.63,18.63,0,0,1,3.13,3.89c1.14,1.69,2.28,2.55,3.43,2.54a1.93,1.93,0,0,0,.77-.16c1.53-.57,2.3-2.63,2.3-6.22a19.75,19.75,0,0,0-1.72-8c-1.35-3-2.83-4.55-4.4-4.55H152.82c-6.62,0-10,1.32-10,3.91a8.38,8.38,0,0,0,1,3.21,26.56,26.56,0,0,1,2.36,6.09,43.34,43.34,0,0,1,.64,7.78,73.9,73.9,0,0,1-1.48,15.06,31.87,31.87,0,0,1-2.48,6.67,18.19,18.19,0,0,0-2.1,7.39c0,4.82,3.93,7.31,11.65,7.35,8.28,0,12.43,0,20.7-.16,2.17-.08,4.23-2,6.12-5.75a28.78,28.78,0,0,0,3.12-13.11A20.09,20.09,0,0,0,182.25,111.58Zm-9-34.5a2.19,2.19,0,0,1,1.09.31c.93.47,1.43,1.1,1.4,1.8a1,1,0,0,1-1.08.94,2,2,0,0,1-1.08-.31c-.94-.47-1.44-1.1-1.41-1.8A1,1,0,0,1,173.26,77.08Z" transform="translate(0 -73.7)"/><path d="M230.68,109.81a12.9,12.9,0,0,0-7.07-9.81,2.24,2.24,0,0,1-1.28-1.67,3.3,3.3,0,0,1,1.48-2.18c2.07-1.73,3.15-4.26,3.18-7.58a13.32,13.32,0,0,0-1.47-6.19c-2.59-5.25-7.83-7.93-15.73-7.92H198.32a20.81,20.81,0,0,0-4.51.47c-3.66.78-5.48,2.15-5.48,4.08a9.27,9.27,0,0,0,1,3.43,30.1,30.1,0,0,1,2.36,6,48.71,48.71,0,0,1,.75,8.82A72.92,72.92,0,0,1,191.13,111a31.86,31.86,0,0,1-2.42,6.76,18.23,18.23,0,0,0-2.1,7.37c0,4.81,3.9,7.08,11.59,6.41l11.72-1.14c6.66-.66,11.89-2.76,15.6-6.21a15.73,15.73,0,0,0,5.36-12A14.76,14.76,0,0,0,230.68,109.81ZM204.76,88.72q1.14-3.14,5-3.21a4.24,4.24,0,0,1,2.67.9,5.15,5.15,0,0,1,2.3,4.39,3.91,3.91,0,0,1-.25,1.41c-.69,1.61-2.13,2.45-4.33,2.55a8,8,0,0,1-2.56-.36c-2.07-.77-3.12-2.14-3.12-4.09A5.13,5.13,0,0,1,204.76,88.72Zm10.5,22.18a5.53,5.53,0,0,1-5.41,4.2,4.68,4.68,0,0,1-2.41-.4q-2.74-1.28-2.74-5.3a9,9,0,0,1,.51-3c.88-2.58,2.44-3.94,4.64-4.06a4.94,4.94,0,0,1,3.25,1,6.52,6.52,0,0,1,2.49,5.49A7.09,7.09,0,0,1,215.26,110.9Zm2.1-30.38a2.25,2.25,0,0,1-1.08-.28c-.92-.38-1.42-.94-1.39-1.62a1,1,0,0,1,1.08-1,2.39,2.39,0,0,1,1.08.3c.94.43,1.42,1,1.4,1.68S218,80.5,217.36,80.52Z" transform="translate(0 -73.7)"/><path d="M280.84,112.42a21.71,21.71,0,0,0-3-2.31,16.25,16.25,0,0,1-5.81-8.45,72.73,72.73,0,0,1-3.11-22.54,5.33,5.33,0,0,0-.07-.93,3.15,3.15,0,0,0-1.46-1.77c-2.16-1.4-5.48-2.12-9.94-2.1a31.37,31.37,0,0,0-4.13.27c-4.43.61-6.63,1.71-6.63,3.29a6.6,6.6,0,0,0,1,2.91,11,11,0,0,1,1.46,4.95A33.21,33.21,0,0,1,247.46,94a119.05,119.05,0,0,1-6,16.39c-.22.47-.47,1-.77,1.52a14.52,14.52,0,0,1-4.46,4.7c-.51.33-.88.57-1.09.72a5.67,5.67,0,0,0-1.9,4.61,7.94,7.94,0,0,0,.57,3.17c1,2.28,3.7,3.17,8.16,2.68a18.64,18.64,0,0,0,5.47-1.29c2.93-1.32,4.39-3.91,4.39-7.81,0-.31,0-.82,0-1.49s0-1.17,0-1.49c0-5.25,1.5-8.06,4.44-8.3a3.81,3.81,0,0,1,1.66.22q2,.72,2,5.14c0,.75-.06,2-.13,3.75-.05,1.33-.06,2.26-.06,2.76a5.77,5.77,0,0,0,1.08,3.69,4.41,4.41,0,0,0,1.66,1.12,151.69,151.69,0,0,1,16.73-1.58,6.4,6.4,0,0,0,3.08-5.9A6.11,6.11,0,0,0,280.84,112.42Zm-24.66-11.76c-1,.08-1.6-.75-1.65-2.2a19.65,19.65,0,0,1,.26-3.48c.38-2.47,1-3.77,1.72-3.75.89.06,1.55,2.34,1.59,6.42C258.11,99.48,257.4,100.57,256.18,100.66Zm7.33-21.6a3,3,0,0,1-.83-.13c-1-.26-1.47-.69-1.46-1.25s.57-.93,1.52-1a5.09,5.09,0,0,1,.77.06c1,.26,1.49.73,1.46,1.33S264.43,79,263.51,79.06Z" transform="translate(0 -73.7)"/><path d="M327.55,101.58c-.46-3.38-2.34-5-5.6-4.78a5.88,5.88,0,0,0-1.34.25,10.26,10.26,0,0,0-3.56,2.94,8.62,8.62,0,0,1-.84,1,9.87,9.87,0,0,1-6.74,3.55,4,4,0,0,1-4-2.13c-1-1.66-1.4-5.28-1.4-10.7a28.77,28.77,0,0,1,.51-6.43,14.72,14.72,0,0,1,1.9-4c1.06-1.65,1.62-2.77,1.59-3.31a2.44,2.44,0,0,0-.82-1.6c-1.65-1.35-4.72-2-9.17-2a28.27,28.27,0,0,0-4.33.31c-3.78.62-5.67,1.82-5.67,3.53a5.65,5.65,0,0,0,1,2.57,18.66,18.66,0,0,1,2.36,4.83,28.31,28.31,0,0,1,.64,6.21,50.39,50.39,0,0,1-1.48,12.29,26.36,26.36,0,0,1-2.48,5.66,14.13,14.13,0,0,0-2.1,6.32c0,4,3.93,5.6,11.65,4.78,8.28-.93,12.42-1.4,20.7-2.3,2.17-.29,4.23-2,6.12-5a19.24,19.24,0,0,0,3.12-10.24A9.76,9.76,0,0,0,327.55,101.58Z" transform="translate(0 -73.7)"/><path d="M372.74,98.5c-.47-3-2.33-4.46-5.61-4.29a5.45,5.45,0,0,0-1.34.23,10.37,10.37,0,0,0-3.56,2.62,9.27,9.27,0,0,1-.82.9,10.24,10.24,0,0,1-6.76,3.17,4.1,4.1,0,0,1-3.95-1.89c-.94-1.5-1.4-4.75-1.4-9.57a22.74,22.74,0,0,1,.51-5.73,12.5,12.5,0,0,1,1.91-3.57c1-1.46,1.61-2.47,1.59-2.94a2.07,2.07,0,0,0-.82-1.41c-1.66-1.18-4.71-1.78-9.17-1.78a34.63,34.63,0,0,0-4.33.28c-3.79.55-5.68,1.61-5.68,3.13a4.66,4.66,0,0,0,1,2.27,15.45,15.45,0,0,1,2.36,4.28,21.71,21.71,0,0,1,.64,5.55,41.78,41.78,0,0,1-1.46,11,22.7,22.7,0,0,1-2.49,5.11c-1.41,2.33-2.12,4.29-2.1,5.74,0,3.6,3.92,5,11.66,4.29,8.27-.86,12.42-1.29,20.69-2.09,2.16-.25,4.22-1.78,6.11-4.56a16.23,16.23,0,0,0,3.12-9.25A9.11,9.11,0,0,0,372.74,98.5Z" transform="translate(0 -73.7)"/><path d="M457.63,103.61A17.27,17.27,0,0,1,455,98.68a50.41,50.41,0,0,1-1.08-10.34,18,18,0,0,1,.64-5.13,10,10,0,0,1,1.78-3.16c1.1-1.43,1.69-2.43,1.66-2.94a1.93,1.93,0,0,0-.83-1.26Q454.64,74.2,448,74.2q-8,0-10,3a20.74,20.74,0,0,0-1.33,2.51c-.3.67-1.18,3-2.55,6.9-.82,2.34-1.67,3.58-2.42,3.53s-1.47-1.35-2.48-3.8A56.84,56.84,0,0,0,425,77.13c-1.25-1.93-4.59-2.92-9.93-2.95a33.39,33.39,0,0,0-4.52.3C406.85,75,405,75.82,405,77a4.49,4.49,0,0,0,1.08,2.25,20.6,20.6,0,0,1,2.3,3.75,14.71,14.71,0,0,1,.75,4.81v.85a34.9,34.9,0,0,1-1.2,9.58,17.27,17.27,0,0,1-2.49,4.43c-1.39,2-2.11,3.67-2.1,5,0,3.23,3.94,4.87,11.66,4.89,6.49,0,9.82-1.18,9.86-3.42a6.26,6.26,0,0,0-.62-2.31,34.48,34.48,0,0,1-2.43-7.38,42.18,42.18,0,0,1-.7-6.6c0-1.93.24-3,.64-3,1-.07,2.45,2.29,4.08,6.9,1.84,5.22,2.74,9.42,2.74,12.42a2.51,2.51,0,0,0,.18.92,2.69,2.69,0,0,0,2.74,1.51c.26,0,.51,0,.77,0a2.25,2.25,0,0,0,2.16-2.34c0-2.78.8-6.65,2.42-11.53,1.72-5.17,3.23-7.77,4.34-7.72.45,0,.69,1,.69,3a49.63,49.63,0,0,1-.82,6.62,27.74,27.74,0,0,1-1.72,5.89,15.91,15.91,0,0,0-1.28,3.77c0,2.23,3.37,3.49,9.88,3.64,7.6.18,11.55-1.43,11.59-4.71A8.58,8.58,0,0,0,457.63,103.61Zm-38.2-26a1.91,1.91,0,0,1-1.85-.78.55.55,0,0,1,.06-.19c.21-.46.81-.7,1.79-.7A4.43,4.43,0,0,1,420,76c.89.17,1.33.44,1.33.83C421.16,77.21,420.45,77.55,419.43,77.56Zm31.39-.73a.44.44,0,0,1,.07-.19c.21-.47.82-.71,1.84-.69a3,3,0,0,1,.57,0c.85.15,1.32.49,1.28.85s-.83.8-1.85.79A2.28,2.28,0,0,1,450.82,76.83Z" transform="translate(0 -73.7)"/><path d="M507.79,94.89A24.57,24.57,0,0,0,501,80.38a20.42,20.42,0,0,0-15.35-6.68,20.65,20.65,0,0,0-3.25.26,22.89,22.89,0,0,0-19.05,21.93,16.52,16.52,0,0,0,3.12,9.9q5.63,7.8,19.05,8.58c6.62.39,11.92-.71,15.86-3.45,4.37-3,6.56-7.58,6.56-13.52A24.56,24.56,0,0,0,507.79,94.89ZM492,96.23c-1,3.12-3.12,4.6-6.43,4.46a7.36,7.36,0,0,1-2.8-.64c-2.63-1.15-3.94-3.66-3.94-7.55a14.33,14.33,0,0,1,1.65-6.72c1.36-2.61,3.08-4,5.09-3.93a5.64,5.64,0,0,1,4.15,2.48,13.53,13.53,0,0,1,2.74,8.57A11.75,11.75,0,0,1,492,96.23ZM492.25,78a3.25,3.25,0,0,1-1.08-.22c-.94-.32-1.42-.75-1.4-1.22s.42-.6,1.09-.62a3.06,3.06,0,0,1,1.08.22c.93.31,1.42.75,1.4,1.21S492.92,78,492.25,78Z" transform="translate(0 -73.7)"/><path d="M565,111.05a24.84,24.84,0,0,1-2.68-6.29A76.6,76.6,0,0,1,561.26,92a27.32,27.32,0,0,1,.63-6.36,13.85,13.85,0,0,1,1.79-3.9c1.1-1.78,1.68-3,1.66-3.69a2.5,2.5,0,0,0-.84-1.59c-1.64-1.4-4.68-2.09-9.1-2.1-5.35,0-8.68,1.18-10,3.54a25.54,25.54,0,0,0-1.35,3c-.28.78-1.17,3.53-2.54,8.14-.82,2.74-1.67,4.14-2.43,4-.6-.06-1.46-1.64-2.48-4.55a72,72,0,0,0-4.26-10.8c-1.27-2.27-4.6-3.43-9.94-3.46a28.3,28.3,0,0,0-4.53.33c-3.65.55-5.47,1.47-5.47,2.83A5.44,5.44,0,0,0,513.49,80a22.09,22.09,0,0,1,2.29,4.23,18,18,0,0,1,.77,5.38v1a41.06,41.06,0,0,1-1.21,10.54,18.09,18.09,0,0,1-2.48,4.67,10,10,0,0,0-2.11,5.21c0,3.49,4,5.61,11.66,6.39,6.48.67,9.84-.3,9.87-2.83a8.39,8.39,0,0,0-.63-2.67,45.94,45.94,0,0,1-2.43-8.54,54.8,54.8,0,0,1-.69-7.54c0-2.22.25-3.39.64-3.41,1,0,2.44,2.74,4.07,8.12,1.84,6.11,2.74,11,2.74,14.44a3.09,3.09,0,0,0,.19,1.06,3,3,0,0,0,2.74,2,4.84,4.84,0,0,0,.76,0,2.18,2.18,0,0,0,2.16-2.48c0-3.19.8-7.6,2.43-13.25,1.71-6,3.23-9,4.33-8.91.44,0,.69,1.28.69,3.65a65.51,65.51,0,0,1-.82,7.84,34.7,34.7,0,0,1-1.72,6.81,18.7,18.7,0,0,0-1.27,4.29c0,2.63,3.35,4.43,9.86,5.35,7.59,1.09,11.56-.4,11.6-4.42A13,13,0,0,0,565,111.05ZM526.81,78.16a1.89,1.89,0,0,1-1.86-.91A.85.85,0,0,1,525,77c.21-.54.81-.78,1.79-.78a3.07,3.07,0,0,1,.57.06c.89.2,1.33.52,1.33,1C528.54,77.77,527.81,78.16,526.81,78.16Zm31.39-.56a1.24,1.24,0,0,1,.07-.25c.21-.57.82-.86,1.85-.84a3,3,0,0,1,.56.06c.86.22,1.33.63,1.28,1.08s-.85,1-1.84,1A2.19,2.19,0,0,1,558.2,77.6Z" transform="translate(0 -73.7)"/><path d="M44.08,177.75A16.84,16.84,0,0,0,37,166.54a2.79,2.79,0,0,1-1.28-1.88c0-.59.53-1.23,1.46-1.75,2.09-1.21,3.17-3.47,3.18-6.65a13.55,13.55,0,0,0-1.46-6.21c-2.6-5.45-7.83-8.65-15.73-9.89-4.58-.73-6.87-1.11-11.47-1.93a26.46,26.46,0,0,0-4.52-.43c-3.65,0-5.47.7-5.47,2.28a8.07,8.07,0,0,0,1,3,26.81,26.81,0,0,1,2.35,5.53,37.23,37.23,0,0,1,.77,7.62,47,47,0,0,1-1.35,11.22,16.75,16.75,0,0,1-2.41,4.9A10.37,10.37,0,0,0,0,178c0,4.07,3.9,7.51,11.58,9.85,4.7,1.41,7,2.06,11.73,3.3,6.67,1.76,11.9,1.48,15.6-.72s5.35-5.6,5.35-10.21A18.28,18.28,0,0,0,44.08,177.75ZM18.14,151.9c.77-1.67,2.44-2.27,5-1.8a5.34,5.34,0,0,1,2.67,1.36,5.78,5.78,0,0,1,2.3,4.48,3.05,3.05,0,0,1-.26,1.26c-.68,1.33-2.11,1.78-4.33,1.34a9.65,9.65,0,0,1-2.55-.91c-2.08-1.18-3.11-2.64-3.11-4.37A3.87,3.87,0,0,1,18.14,151.9Zm10.52,22.81c-.77,2.21-2.57,3-5.42,2.31a6.61,6.61,0,0,1-2.42-1.12,6.51,6.51,0,0,1-2.74-5.59,6,6,0,0,1,.52-2.55,3.72,3.72,0,0,1,4.64-2.4,6.73,6.73,0,0,1,3.25,1.76A7.75,7.75,0,0,1,29,172.88,5.37,5.37,0,0,1,28.66,174.71Zm2.1-27.77a2.68,2.68,0,0,1-1.08-.44c-.94-.52-1.43-1.12-1.4-1.73s.42-.8,1.08-.72a2.65,2.65,0,0,1,1.08.44c.93.55,1.43,1.18,1.4,1.79S31.41,147,30.76,146.94Z" transform="translate(0 -73.7)"/><path d="M94.23,191.35a27.89,27.89,0,0,0-3-3.17,23.36,23.36,0,0,1-5.79-10.5,94.94,94.94,0,0,1-3.12-25.57,8.5,8.5,0,0,0-.06-1,3.84,3.84,0,0,0-1.48-2.1c-2.16-1.74-5.46-2.77-9.93-3.14a30.27,30.27,0,0,0-4.14-.08c-4.41.22-6.62,1.12-6.62,2.75a7.81,7.81,0,0,0,1,3.13A13,13,0,0,1,62.51,157a32.86,32.86,0,0,1-1.66,8.3A94.26,94.26,0,0,1,54.8,180.9c-.21.43-.47.88-.76,1.35a9.49,9.49,0,0,1-4.46,3.63c-.51.2-.87.34-1.08.44-1.28.71-1.92,2.06-1.92,4.07a9.62,9.62,0,0,0,.57,3.33c1,2.56,3.71,4.3,8.16,5.09a16.61,16.61,0,0,0,5.47.21c2.94-.57,4.4-2.93,4.4-7,0-.32,0-.87-.06-1.57s0-1.24,0-1.58c0-5.53,1.51-8.15,4.46-7.82a4.27,4.27,0,0,1,1.65.57c1.32.78,2,2.76,2,5.93,0,.82,0,2.18-.11,4C73,193,73,194,73,194.48a7.75,7.75,0,0,0,1.08,4.24c1.44,2.15,4.88,3.58,10.32,4.16a25,25,0,0,0,6.43.05c3.14-.59,4.71-2.81,4.71-6.59A8.8,8.8,0,0,0,94.23,191.35ZM69.58,173.88c-1-.1-1.62-1.1-1.66-2.65a21.41,21.41,0,0,1,.26-3.65c.38-2.57,1-3.86,1.72-3.73.9.18,1.54,2.73,1.59,7.13C71.51,172.94,70.76,174,69.58,173.88Zm7.33-22.34a3.33,3.33,0,0,1-.84-.21c-1-.38-1.48-.9-1.46-1.52s.58-.95,1.53-.9a5.39,5.39,0,0,1,.77.13c1,.38,1.48.93,1.46,1.6S77.81,151.59,76.91,151.54Z" transform="translate(0 -73.7)"/><path d="M133.43,175c-1.83-2-5-4.07-9.55-6.42l-2.43-1.25q-3.61-2.06-3.62-3.91a3.73,3.73,0,0,1,.18-1.11,3.54,3.54,0,0,1,3.64-2.59,3.21,3.21,0,0,1,1.46.41c.77.52,1.62,1.88,2.54,4.1q1.27,3,2.43,3.48a2.6,2.6,0,0,0,.82.15,3.25,3.25,0,0,0,2.49-1.67,14.79,14.79,0,0,0,2-8.19,18.19,18.19,0,0,0-.18-2.54c-.43-3.46-1.41-5.51-2.94-6.13a2.67,2.67,0,0,0-.83-.17,12.32,12.32,0,0,1-2.22-.26,54.32,54.32,0,0,0-5.48-.95A19.13,19.13,0,0,0,109.1,153c-3.39,3-5.13,6.46-5.1,10,0,3.21,1.75,6.6,5.1,10.13a99.43,99.43,0,0,0,7.71,6.52c2.54,2.07,3.82,3.51,3.82,4.34a1.57,1.57,0,0,1-.13.59c-.56,1.11-1.75,1.64-3.57,1.58a6.94,6.94,0,0,1-4.14-1.71,28.67,28.67,0,0,1-3.44-4.07c-1.61-2.14-3.12-3.26-4.52-3.33a3.62,3.62,0,0,0-2.8,1.16c-1.79,1.76-2.67,4.75-2.67,8.95a24.86,24.86,0,0,0,1.52,9.33c2.17,5.31,7,8.23,14.45,8.53,7.18.29,12.81-1.7,16.88-5.79a18.31,18.31,0,0,0,5.35-13.46A15.41,15.41,0,0,0,133.43,175Zm-7.07-23.71a2.32,2.32,0,0,1,1.08.32c.94.47,1.43,1.08,1.4,1.75s-.42.87-1.09.89a2.37,2.37,0,0,1-1.08-.33c-.93-.47-1.42-1.08-1.4-1.76C125.3,151.59,125.7,151.25,126.36,151.24Z" transform="translate(0 -73.7)"/><path d="M179.45,153.69c-1.35-2.82-2.83-4.24-4.4-4.2-8.9.18-13.34.25-22.23.28-6.62,0-10,1.28-10,3.76a7.66,7.66,0,0,0,1,3.08,25,25,0,0,1,2.36,5.83,39.78,39.78,0,0,1,.64,7.45,67.79,67.79,0,0,1-1.48,14.41,29.9,29.9,0,0,1-2.48,6.41,16.91,16.91,0,0,0-2.1,7.11c0,2.79,1.45,4.74,4.29,5.83a0,0,0,0,0,0,0c.39-.66.75-1.26,1.13-1.86l.16-.26c1.38-2.23,2.65-4.19,3.87-6,.86-1.28,1.74-2.54,2.66-3.78,1.61-2.23,3.29-4.43,5-6.51.7-.86,1.41-1.72,2.13-2.56a6.91,6.91,0,0,1-.89-3.33,2.34,2.34,0,0,1,2.55-2.48,4.32,4.32,0,0,1,2.63.95c1.7-1.87,3.46-3.68,5.26-5.45a17.47,17.47,0,0,0-.25-2.23c-.46-2.3-1.23-3.43-2.28-3.41a3.3,3.3,0,0,0-1.72,1c-1.45,1.27-2.66,1.91-3.64,1.92a3.89,3.89,0,0,1-.76,0,2.37,2.37,0,0,1-2.23-2.64,6.19,6.19,0,0,1,1.21-3.43,7.59,7.59,0,0,1,6.43-3.66,8,8,0,0,1,5.22,1.59,17.35,17.35,0,0,1,3.13,3.6,8.89,8.89,0,0,0,1.24,1.41c1.71-1.54,3.46-3,5.23-4.45a6.52,6.52,0,0,0,0-.77A17.57,17.57,0,0,0,179.45,153.69Zm-4.78.34a2.07,2.07,0,0,1-1.08-.28c-.94-.41-1.44-1-1.41-1.68,0-.52.43-.87,1.08-.91a2.33,2.33,0,0,1,1.09.27c.93.43,1.43,1,1.4,1.68S175.32,154,174.67,154Z" transform="translate(0 -73.7)"/><path d="M198.32,147.24a23.82,23.82,0,0,0-4.51,1c-3.66,1.16-5.48,2.59-5.48,4.4a6.93,6.93,0,0,0,.81,2.74c3.83-3,7.81-5.81,11.89-8.41Z" transform="translate(0 -73.7)"/><path d="M352.49,128.67c-1.66-1.06-4.71-1.32-9.17-.74a30.76,30.76,0,0,0-4.33.84,13.47,13.47,0,0,0-4.13,1.73c1.11.36,2.21.75,3.3,1.14.75.26,1.54.56,2.35.89,3.11,1.16,6.34,2.52,9.58,4a17.37,17.37,0,0,1,1.63-3.15c1-1.69,1.61-2.8,1.59-3.29A1.94,1.94,0,0,0,352.49,128.67Z" transform="translate(0 -73.7)"/><path d="M457.63,154.68a19.17,19.17,0,0,1-2.67-5.24,55.91,55.91,0,0,1-1.08-10.9,19.63,19.63,0,0,1,.64-5.37,10.21,10.21,0,0,1,1.78-3.26c1.1-1.46,1.69-2.51,1.66-3a2.12,2.12,0,0,0-.83-1.34q-2.49-1.84-9.11-2c-5.35-.14-8.69.84-10,2.91a18.67,18.67,0,0,0-1.33,2.65c-.3.69-1.18,3.12-2.56,7.29-.81,2.48-1.66,3.78-2.41,3.73s-1.47-1.44-2.48-4.06a63.49,63.49,0,0,0-4.28-9.75c-1.25-2.06-4.61-3.15-9.93-3.15a29,29,0,0,0-4.52.34c-3.66.55-5.48,1.49-5.48,2.79a4.9,4.9,0,0,0,1.08,2.4,22.51,22.51,0,0,1,2.3,4,16.62,16.62,0,0,1,.75,5.14v.91A40.24,40.24,0,0,1,408,149a19.4,19.4,0,0,1-2.49,4.81c-1.41,2.16-2.11,4-2.1,5.37,0,3.47,3.95,5.1,11.66,5,6.47-.13,9.82-1.41,9.86-3.81a6.93,6.93,0,0,0-.62-2.44,38.4,38.4,0,0,1-2.43-7.84,47.79,47.79,0,0,1-.7-7c0-2.06.24-3.17.64-3.2,1-.09,2.45,2.43,4.08,7.32,1.84,5.54,2.74,10,2.74,13.19a2.87,2.87,0,0,0,.18,1,2.68,2.68,0,0,0,2.74,1.59,6.65,6.65,0,0,0,.77-.06,2.33,2.33,0,0,0,2.16-2.49c0-2.93.8-7,2.42-12.21,1.72-5.46,3.23-8.19,4.33-8.12.46,0,.7,1.11.7,3.21a55.21,55.21,0,0,1-.82,7,30.15,30.15,0,0,1-1.72,6.2,17.46,17.46,0,0,0-1.28,4c0,2.36,3.37,3.66,9.88,3.88,7.6.25,11.55-1.33,11.59-4.76A9.41,9.41,0,0,0,457.63,154.68Zm-38.2-28a1.88,1.88,0,0,1-1.85-.83.69.69,0,0,1,.06-.21c.21-.5.81-.73,1.79-.73a2.9,2.9,0,0,1,.56,0c.9.17,1.34.47,1.34.89C421.16,126.33,420.45,126.7,419.43,126.71Zm31.39-.36a.6.6,0,0,1,.07-.21c.21-.48.82-.71,1.84-.67a3.15,3.15,0,0,1,.57.07c.85.21,1.32.57,1.28.94s-.83.83-1.85.77A2.26,2.26,0,0,1,450.82,126.35Z" transform="translate(0 -73.7)"/><path d="M507.79,148.42A28.2,28.2,0,0,0,501,132.91c-4.29-5-9.41-7.68-15.35-8.11a18.53,18.53,0,0,0-3.25,0,19.51,19.51,0,0,0-13.76,7.46,22.1,22.1,0,0,0-5.29,14.44,18.29,18.29,0,0,0,3.12,10.45c3.75,5.55,10.1,8.71,19.05,9.71,6.62.75,11.92,0,15.86-2.57q6.56-4.2,6.56-13.33C507.92,150.19,507.88,149.33,507.79,148.42Zm-15.8.13c-1,3.14-3.12,4.54-6.43,4.2a8.11,8.11,0,0,1-2.8-.81q-3.94-2-3.94-8.06a14.78,14.78,0,0,1,1.65-6.89c1.36-2.63,3.08-3.92,5.09-3.74,1.47.13,2.87,1.09,4.15,2.84a15.16,15.16,0,0,1,2.74,9A12.17,12.17,0,0,1,492,148.55Zm.26-18.8a3.31,3.31,0,0,1-1.08-.31c-.94-.41-1.42-.89-1.4-1.36s.42-.6,1.09-.56a3.1,3.1,0,0,1,1.08.3c.93.41,1.42.89,1.4,1.37S492.92,129.79,492.25,129.75Z" transform="translate(0 -73.7)"/><path d="M565,172.39a30.47,30.47,0,0,1-2.68-6.75,80.79,80.79,0,0,1-1.08-13,25.94,25.94,0,0,1,.63-6.24,11.22,11.22,0,0,1,1.79-3.58c1.1-1.56,1.68-2.74,1.66-3.38a3.15,3.15,0,0,0-.84-1.76q-2.46-2.58-9.1-3.77c-5.35-1-8.68-.27-10,1.91a20.32,20.32,0,0,0-1.35,2.83c-.28.74-1.17,3.38-2.54,7.83-.82,2.64-1.67,3.95-2.43,3.75s-1.46-1.86-2.48-4.95a85.89,85.89,0,0,0-4.26-11.54c-1.27-2.46-4.6-4.1-9.94-4.78a25.33,25.33,0,0,0-4.53-.21c-3.65.13-5.47.9-5.47,2.28a6.13,6.13,0,0,0,1.08,2.7,27,27,0,0,1,2.29,4.57,19.57,19.57,0,0,1,.77,5.59v1a41.3,41.3,0,0,1-1.21,10.65,16.35,16.35,0,0,1-2.48,4.53,9.47,9.47,0,0,0-2.11,5.15c0,3.57,4,6,11.66,7.64,6.48,1.34,9.84.78,9.87-1.77a9.19,9.19,0,0,0-.63-2.79,51.7,51.7,0,0,1-2.43-9,58,58,0,0,1-.69-7.74c0-2.25.25-3.4.64-3.37,1,.08,2.44,3.08,4.07,8.75,1.84,6.42,2.74,11.5,2.74,15a3.45,3.45,0,0,0,.19,1.11,3.58,3.58,0,0,0,2.74,2.39,5,5,0,0,0,.76.13c1.45,0,2.16-.69,2.16-2.2,0-3.24.8-7.58,2.43-13,1.71-5.77,3.23-8.63,4.33-8.34.44.11.69,1.4.69,3.8a64.13,64.13,0,0,1-.82,7.76,31.94,31.94,0,0,1-1.72,6.6,16.72,16.72,0,0,0-1.27,4.13c0,2.65,3.35,4.91,9.86,6.88,7.59,2.28,11.56,1.52,11.6-2.49A15.19,15.19,0,0,0,565,172.39Zm-38.21-39a2.18,2.18,0,0,1-1.86-1.16.85.85,0,0,1,.07-.22c.21-.51.81-.69,1.79-.56a2.4,2.4,0,0,1,.57.13c.89.31,1.33.7,1.33,1.16C528.54,133.26,527.8,133.56,526.81,133.43ZM560.12,139a2.72,2.72,0,0,1-1.92-1.37.79.79,0,0,1,.07-.23c.21-.55.82-.72,1.85-.53a3.14,3.14,0,0,1,.56.17c.86.38,1.33.88,1.28,1.32S561.1,139.25,560.12,139Z" transform="translate(0 -73.7)"/><path d="M44.08,245A19,19,0,0,0,37,233.2a3.14,3.14,0,0,1-1.28-2c0-.56.53-1.13,1.46-1.56,2.09-1,3.17-3.09,3.18-6.22a14.21,14.21,0,0,0-1.46-6.29c-2.6-5.66-7.83-9.39-15.73-11.7-4.58-1.34-6.87-2-11.47-3.57a27.71,27.71,0,0,0-4.52-1.14c-3.65-.62-5.47-.21-5.47,1.37a9.29,9.29,0,0,0,1,3.2,31.36,31.36,0,0,1,2.35,5.92,38.8,38.8,0,0,1,.77,7.72,44.27,44.27,0,0,1-1.35,11,14,14,0,0,1-2.41,4.53A8.85,8.85,0,0,0,0,239.65c0,4.07,3.9,8.15,11.58,11.54,4.7,2.05,7,3,11.73,4.79,6.67,2.53,11.9,2.78,15.6,1s5.35-5,5.35-9.57A17.72,17.72,0,0,0,44.08,245ZM18.14,216.39c.77-1.55,2.44-1.92,5-1.11a6.43,6.43,0,0,1,2.67,1.7,6.56,6.56,0,0,1,2.3,4.73,2.71,2.71,0,0,1-.26,1.2c-.68,1.24-2.11,1.52-4.33.8A11.07,11.07,0,0,1,21,222.47c-2.08-1.45-3.11-3-3.11-4.78A3.51,3.51,0,0,1,18.14,216.39Zm10.52,24c-.77,2.09-2.57,2.65-5.42,1.64a7.87,7.87,0,0,1-2.42-1.41,7.46,7.46,0,0,1-2.74-5.93,5.56,5.56,0,0,1,.52-2.46q1.33-2.89,4.64-1.76a7.81,7.81,0,0,1,3.25,2.15,8.58,8.58,0,0,1,2.48,6A5,5,0,0,1,28.66,240.36Zm2.1-27.24a3,3,0,0,1-1.08-.58c-.94-.62-1.43-1.28-1.4-1.89s.43-.73,1.08-.57a3.15,3.15,0,0,1,1.08.57c.93.67,1.43,1.33,1.4,1.94S31.41,213.27,30.76,213.12Z" transform="translate(0 -73.7)"/><path d="M94.23,261.05a32.26,32.26,0,0,0-3-3.14,23.25,23.25,0,0,1-5.79-10.4,90.55,90.55,0,0,1-3.12-25,8.13,8.13,0,0,0-.06-1,4.1,4.1,0,0,0-1.48-2.12c-2.16-1.8-5.46-3-9.93-3.64a34.86,34.86,0,0,0-4.14-.35c-4.41-.09-6.62.6-6.62,2.21a8,8,0,0,0,1,3.14,13.32,13.32,0,0,1,1.46,5.35,30.33,30.33,0,0,1-1.66,8A84.49,84.49,0,0,1,54.8,249a13.81,13.81,0,0,1-.76,1.28,8.61,8.61,0,0,1-4.46,3.21c-.51.15-.87.26-1.08.35-1.28.59-1.92,1.87-1.92,3.83a9.78,9.78,0,0,0,.57,3.33c1,2.61,3.71,4.54,8.16,5.62a16.51,16.51,0,0,0,5.47.58c2.94-.38,4.4-2.61,4.4-6.62,0-.32,0-.87-.06-1.56s0-1.21,0-1.54c0-5.41,1.51-7.88,4.46-7.38a4.24,4.24,0,0,1,1.65.64c1.32.83,2,2.79,2,5.89,0,.8,0,2.13-.11,3.93-.06,1.38-.07,2.35-.07,2.87a7.6,7.6,0,0,0,1.08,4.18c1.44,2.17,4.88,3.72,10.32,4.44a24.87,24.87,0,0,0,6.43.22c3.14-.51,4.71-2.62,4.71-6.3A8.54,8.54,0,0,0,94.23,261.05Zm-24.65-18c-1-.15-1.62-1.16-1.66-2.68a20.35,20.35,0,0,1,.26-3.56c.38-2.48,1-3.71,1.72-3.54.92.24,1.54,2.75,1.59,7.06C71.51,242.26,70.76,243.25,69.58,243.06Zm7.33-21.4a2.86,2.86,0,0,1-.84-.26c-1-.42-1.48-1-1.46-1.55s.58-.9,1.53-.8a4.45,4.45,0,0,1,.77.17c1,.42,1.48,1,1.46,1.63S77.81,221.76,76.91,221.66Z" transform="translate(0 -73.7)"/><path d="M133.18,226.56q-.65-5-2.94-5.85a3.36,3.36,0,0,0-.83-.16,13.9,13.9,0,0,1-2.22-.23c-3.06-.59-4.9-.92-5.48-.93a19.59,19.59,0,0,0-12.61,4.77c-3.39,2.81-5.13,6.17-5.1,9.64,0,3.1,1.75,6.42,5.1,9.85a89.42,89.42,0,0,0,7.71,6.34c2.54,2,3.82,3.35,3.82,4.16a1.52,1.52,0,0,1-.13.58c-.56,1.07-1.75,1.59-3.57,1.52a6.83,6.83,0,0,1-4.14-1.64,27.81,27.81,0,0,1-3.44-3.94q-2.41-3.13-4.52-3.27a3.66,3.66,0,0,0-2.8,1.09c-1.79,1.68-2.67,4.55-2.67,8.62a23.56,23.56,0,0,0,1.52,9.06c2.17,5.17,7,8,14.45,8.27a27.74,27.74,0,0,0,8-.84c.19-3,.47-6.06.85-9.1a154.14,154.14,0,0,1,4.51-22.65c-1.39-.83-3-1.71-4.86-2.61l-2.43-1.2c-2.41-1.29-3.62-2.57-3.62-3.75a3.48,3.48,0,0,1,.18-1.07,3.55,3.55,0,0,1,3.64-2.49,3.19,3.19,0,0,1,1.46.39c.77.51,1.62,1.81,2.54,3.94.85,1.91,1.66,3,2.43,3.32a2.92,2.92,0,0,0,.82.15,2.06,2.06,0,0,0,.87-.21q1.57-5.25,3.55-10.36C133.3,227.49,133.24,227,133.18,226.56Zm-5.43-1.12a2.19,2.19,0,0,1-1.08-.3c-.93-.44-1.42-1-1.4-1.68s.43-.84,1.09-.85a2.39,2.39,0,0,1,1.08.3c.94.46,1.43,1,1.4,1.68S128.42,225.43,127.75,225.44Z" transform="translate(0 -73.7)"/><path d="M457.63,208.16a20.32,20.32,0,0,1-2.67-5.48,61.35,61.35,0,0,1-1.08-11.41,21.62,21.62,0,0,1,.64-5.65,10.72,10.72,0,0,1,1.78-3.39c1.1-1.53,1.69-2.61,1.66-3.17a2.23,2.23,0,0,0-.83-1.42c-1.66-1.31-4.7-2.06-9.11-2.21-5.35-.18-8.69.89-10,3.08a19.6,19.6,0,0,0-1.33,2.82c-.3.73-1.18,3.3-2.56,7.73-.81,2.62-1.66,4-2.41,4s-1.47-1.48-2.48-4.25A67.7,67.7,0,0,0,425,178.54c-1.25-2.17-4.61-3.26-9.93-3.13a25.26,25.26,0,0,0-4.52.48c-3.2.61-5,1.51-5.39,2.65.59.7,1.17,1.41,1.75,2.12a155.2,155.2,0,0,1,14.79,22,50.51,50.51,0,0,1-.52-6.25c0-2.19.24-3.38.64-3.41,1-.12,2.45,2.51,4.08,7.65,1.84,5.83,2.74,10.52,2.74,13.89a3.06,3.06,0,0,0,.18,1,2.56,2.56,0,0,0,2.74,1.6,5,5,0,0,0,.77-.07,2.52,2.52,0,0,0,2.16-2.69c0-3.09.8-7.46,2.42-12.94,1.72-5.8,3.23-8.7,4.33-8.64.46,0,.7,1.17.7,3.37a61.16,61.16,0,0,1-.82,7.37,33.86,33.86,0,0,1-1.72,6.58,19.57,19.57,0,0,0-1.28,4.22c0,2.51,3.37,3.77,9.88,3.92,7.6.17,11.55-1.49,11.59-5.06A10.13,10.13,0,0,0,457.63,208.16Zm-38.2-29a1.81,1.81,0,0,1-1.85-.85.91.91,0,0,1,.06-.22c.21-.52.81-.8,1.79-.82l.56,0c.9.17,1.34.47,1.34.93A2,2,0,0,1,419.43,179.14Zm31.39-.69a.73.73,0,0,1,.07-.23c.21-.49.82-.73,1.84-.69.17,0,.36,0,.57.08.85.22,1.33.61,1.28,1s-.85.88-1.85.81A2.31,2.31,0,0,1,450.82,178.45Z" transform="translate(0 -73.7)"/><path d="M507.79,203.27A31.4,31.4,0,0,0,501,186.91q-6.44-8.11-15.35-9.21a18.67,18.67,0,0,0-3.25-.09c-5.52.26-10.1,2.77-13.76,7.3a23.3,23.3,0,0,0-5.29,15,19.72,19.72,0,0,0,3.12,10.92c3.75,5.83,10.1,9.16,19.05,10.44,6.62,1,11.92.35,15.86-2,4.37-2.65,6.56-7.06,6.56-13.29C507.92,205.09,507.88,204.19,507.79,203.27Zm-15.8-.75c-1,3.21-3.12,4.54-6.43,4.1a7.86,7.86,0,0,1-2.8-.94c-2.63-1.47-3.94-4.28-3.94-8.46a15.39,15.39,0,0,1,1.65-7.09c1.36-2.68,3.08-4,5.09-3.69,1.47.21,2.87,1.27,4.15,3.13a16.53,16.53,0,0,1,2.74,9.46A12.65,12.65,0,0,1,492,202.52Zm.26-19.38a3.12,3.12,0,0,1-1.08-.38c-.94-.45-1.42-1-1.4-1.47s.42-.59,1.09-.52a3.19,3.19,0,0,1,1.08.38c.93.45,1.42,1,1.4,1.48S492.92,183.22,492.25,183.14Z" transform="translate(0 -73.7)"/><path d="M565,233.79a35.44,35.44,0,0,1-2.68-7.19,84.07,84.07,0,0,1-1.08-13.21,24.92,24.92,0,0,1,.63-6.17,9.24,9.24,0,0,1,1.79-3.29c1.1-1.39,1.68-2.46,1.66-3.1a3.79,3.79,0,0,0-.84-1.91c-1.65-2-4.68-3.78-9.1-5.24-5.35-1.77-8.68-1.54-10,.48a18.53,18.53,0,0,0-1.35,2.68c-.28.71-1.17,3.27-2.54,7.58-.82,2.58-1.67,3.78-2.43,3.5s-1.46-2.06-2.48-5.29a96.56,96.56,0,0,0-4.26-12.16c-1.27-2.65-4.6-4.71-9.94-5.92a25.81,25.81,0,0,0-4.53-.64c-3.65-.2-5.47.46-5.47,1.87a6.88,6.88,0,0,0,1.08,2.84,30,30,0,0,1,2.29,4.86,21.06,21.06,0,0,1,.77,5.77v1A41.82,41.82,0,0,1,515.34,211a15.59,15.59,0,0,1-2.48,4.45,9.12,9.12,0,0,0-2.11,5.12c0,3.66,3.94,6.38,11.66,8.63,6.47,1.87,9.84,1.65,9.87-.94a10.19,10.19,0,0,0-.63-2.89,56.55,56.55,0,0,1-2.43-9.32,61.21,61.21,0,0,1-.69-7.93c0-2.27.25-3.42.64-3.36,1,.19,2.44,3.38,4.07,9.29,1.84,6.71,2.74,11.92,2.74,15.43a3.69,3.69,0,0,0,.19,1.15,4.13,4.13,0,0,0,2.74,2.7,5.38,5.38,0,0,0,.76.21c1.45.21,2.16-.46,2.16-2a46.29,46.29,0,0,1,2.43-12.88c1.71-5.59,3.23-8.27,4.33-7.84.46.17.69,1.5.69,3.92a62.5,62.5,0,0,1-.82,7.71,29.52,29.52,0,0,1-1.72,6.43,15.46,15.46,0,0,0-1.27,4c0,2.68,3.34,5.31,9.86,8.17,7.59,3.31,11.56,3.21,11.6-.8A17.15,17.15,0,0,0,565,233.79ZM526.81,189.6a2.51,2.51,0,0,1-1.86-1.38A1.19,1.19,0,0,1,525,188c.21-.48.81-.62,1.79-.39a6,6,0,0,1,.57.21c.89.41,1.33.85,1.33,1.32C528.54,189.6,527.8,189.82,526.81,189.6Zm33.31,10a3.3,3.3,0,0,1-1.92-1.68.85.85,0,0,1,.07-.22c.21-.51.82-.59,1.85-.24a4.85,4.85,0,0,1,.56.28c.86.51,1.33,1.08,1.28,1.52S561.1,200,560.12,199.6Z" transform="translate(0 -73.7)"/><path d="M44.08,310.2c-.73-4-3.08-7.54-7.07-11.16A3.43,3.43,0,0,1,35.73,297c0-.55.53-1.08,1.46-1.42,2.09-.79,3.17-2.78,3.18-5.87a14.7,14.7,0,0,0-1.46-6.34c-2.6-5.81-7.83-10-15.73-13.15-4.58-1.85-6.87-2.84-11.47-5a34.59,34.59,0,0,0-4.52-1.75c-3.65-1.13-5.47-1-5.47.58a10.4,10.4,0,0,0,1,3.35,36.33,36.33,0,0,1,2.35,6.25,40.13,40.13,0,0,1,.77,7.8,41,41,0,0,1-1.35,10.68,12.51,12.51,0,0,1-2.41,4.2,8.06,8.06,0,0,0-2.1,5c0,4.08,3.9,8.31,11.58,11.9,4.7,2.18,7,3.18,11.73,5.07,6.67,2.69,11.88,3.19,15.6,1.84,3.56-1.29,5.35-3.95,5.35-7.86A13.6,13.6,0,0,0,44.08,310.2ZM18.14,280.47c.77-1.46,2.44-1.61,5-.53a7.75,7.75,0,0,1,2.67,2,7.36,7.36,0,0,1,2.3,4.94,2.45,2.45,0,0,1-.26,1.16c-.68,1.17-2.11,1.28-4.33.34A12.18,12.18,0,0,1,21,286.84c-2.08-1.67-3.11-3.38-3.11-5.1A3.29,3.29,0,0,1,18.14,280.47Zm10.52,24.16c-.77,1.8-2.57,2.14-5.42.93A9,9,0,0,1,20.82,304a7.46,7.46,0,0,1-2.74-5.77,4.48,4.48,0,0,1,.51-2.21c.9-1.69,2.45-2,4.65-1.05a9.69,9.69,0,0,1,3.25,2.4A8.38,8.38,0,0,1,29,303.07,3.78,3.78,0,0,1,28.66,304.63Zm2.1-26a3.62,3.62,0,0,1-1.08-.67c-.94-.72-1.43-1.42-1.4-2s.43-.68,1.08-.46a4,4,0,0,1,1.08.68c.93.74,1.43,1.46,1.4,2.06S31.41,278.82,30.76,278.6Z" transform="translate(0 -73.7)"/><path d="M94.23,326.29a31.63,31.63,0,0,0-3-2.63A18.94,18.94,0,0,1,85.44,315c-2.06-6-3.12-14.75-3.12-24a8.16,8.16,0,0,0-.06-1,4.09,4.09,0,0,0-1.48-2.1c-2.16-1.81-5.46-3.08-9.93-3.91a38.2,38.2,0,0,0-4.14-.54c-4.41-.31-6.62.23-6.62,1.8a8.13,8.13,0,0,0,1,3.13,13.41,13.41,0,0,1,1.46,5.33,28.35,28.35,0,0,1-1.66,7.74,50.31,50.31,0,0,1-6.05,13,9.35,9.35,0,0,1-.76,1,8,8,0,0,1-4.46,2.39,9.65,9.65,0,0,0-1.08.22c-1.28.4-1.92,1.45-1.92,3.14a7.56,7.56,0,0,0,.57,2.89c1,2.28,3.71,4.07,8.16,5.2a19.35,19.35,0,0,0,5.47.74c2.94-.17,4.4-1.95,4.4-5.28,0-.27,0-.72-.06-1.29s0-1,0-1.28c0-4.49,1.51-6.44,4.46-5.87a5.42,5.42,0,0,1,1.65.63c1.32.75,2,2.4,2,4.95,0,.66,0,1.74-.11,3.21-.06,1.15-.07,1.95-.07,2.36A5.62,5.62,0,0,0,74.1,331c1.44,1.84,4.88,3.23,10.32,4a29,29,0,0,0,6.43.34c3.14-.34,4.71-2,4.71-5A6.1,6.1,0,0,0,94.23,326.29ZM69.58,310.61c-1-.19-1.62-1.09-1.66-2.59a19.25,19.25,0,0,1,.26-3.47c.38-2.41,1-3.58,1.72-3.39.92.28,1.54,2.74,1.59,7C71.51,310,70.78,310.84,69.58,310.61Zm7.33-20.53a3.37,3.37,0,0,1-.84-.29c-1-.45-1.48-1-1.46-1.57s.58-.86,1.53-.71a3.76,3.76,0,0,1,.77.19c1,.44,1.48,1,1.46,1.63S77.81,290.21,76.91,290.08Z" transform="translate(0 -73.7)"/><path d="M129.08,326.3A157.29,157.29,0,0,1,125,307.71l-1.08-.5-2.43-1.08c-2.41-1.2-3.62-2.4-3.62-3.55a3.34,3.34,0,0,1,.18-1,3.64,3.64,0,0,1,3.64-2.46,3.4,3.4,0,0,1,1.46.34,3.71,3.71,0,0,1,.86.81c-.43-4-.72-7.92-.84-11.9a11.56,11.56,0,0,0-1.42-.14,20.34,20.34,0,0,0-12.61,4.74c-3.39,2.73-5.13,6-5.1,9.34,0,3,1.75,6.21,5.1,9.47a48.89,48.89,0,0,0,7.71,5.57c2.54,1.6,3.82,2.7,3.82,3.36a1.08,1.08,0,0,1-.13.47c-.56.9-1.75,1.34-3.57,1.31a7.65,7.65,0,0,1-4.14-1.3,25.66,25.66,0,0,1-3.44-3.21c-1.61-1.7-3.12-2.58-4.52-2.66a4.09,4.09,0,0,0-2.8.87c-1.79,1.36-2.67,3.68-2.67,7a16.12,16.12,0,0,0,1.52,7.38c2.17,4.24,7,6.63,14.45,6.84,6.62.18,11.93-1.27,15.89-4.18C130.45,330.93,129.75,328.63,129.08,326.3Z" transform="translate(0 -73.7)"/><path d="M457.63,266.19a27.17,27.17,0,0,1-2.67-6.68,87.42,87.42,0,0,1-1.08-13,23.64,23.64,0,0,1,.64-5.91A11.66,11.66,0,0,1,456.3,237c1.1-1.61,1.69-2.74,1.66-3.33a2.44,2.44,0,0,0-.83-1.49c-1.66-1.33-4.7-2.1-9.11-2.16-5.35-.09-8.69,1.12-10,3.48a26.18,26.18,0,0,0-1.33,3c-.12.31-.34,1-.66,1.93.17.6.33,1.21.49,1.84.48,1.5.92,3,1.33,4.42q.84,2.94,1.55,5.9c.68-1.45,1.29-2.12,1.81-2.1s.69,1.2.69,3.52a72.92,72.92,0,0,1-.62,7.32,154.52,154.52,0,0,1,2.32,19.11,31.16,31.16,0,0,0,4.36.36c7.59.12,11.55-2,11.59-6.38A14.19,14.19,0,0,0,457.63,266.19Zm-6.81-33.08a.7.7,0,0,1,.07-.22c.21-.53.82-.8,1.84-.76a3.15,3.15,0,0,1,.57.07c.85.22,1.33.63,1.28,1s-.85.91-1.85.86A2.21,2.21,0,0,1,450.82,233.11Z" transform="translate(0 -73.7)"/><path d="M507.79,259.45c-.63-7.12-2.92-11.87-6.81-17.08-4.29-5.72-9.41-9.08-15.35-10a17.85,17.85,0,0,0-3.25-.17c-5.52.18-10.1,2.74-13.76,7.47-3.49,4.5-5.29,9.21-5.29,16.18a28.32,28.32,0,0,0,3.12,13.41c3.75,7.11,10.1,11.07,19.05,12.39,6.62,1,11.92.05,15.86-2.95,4.38-3.33,6.56-8.62,6.56-16.1C507.92,261.64,507.88,260.57,507.79,259.45ZM492,258.59c-1,3.94-3.13,5.62-6.44,5.11a6.41,6.41,0,0,1-2.8-1.1c-2.63-1.74-3.94-5.76-3.94-10.09a16.31,16.31,0,0,1,1.65-7.33c1.36-2.77,3.08-4.06,5.09-3.73,1.47.23,2.87,1.35,4.15,3.3a17.81,17.81,0,0,1,2.74,9.82A18.69,18.69,0,0,1,492,258.59Zm.25-20.39a3.28,3.28,0,0,1-1.08-.42c-.94-.51-1.42-1.05-1.4-1.56s.42-.6,1.09-.51a3.15,3.15,0,0,1,1.08.42c.93.5,1.42,1.05,1.4,1.57S492.9,238.29,492.25,238.2Z" transform="translate(0 -73.7)"/><path d="M565,295.33a38.69,38.69,0,0,1-2.68-7.52,89.57,89.57,0,0,1-1.08-13.52,24,24,0,0,1,.63-6.09,7.83,7.83,0,0,1,1.79-3.05c1.1-1.23,1.68-2.22,1.66-2.87a4.3,4.3,0,0,0-.84-2c-1.65-2.26-4.68-4.49-9.1-6.52-5.35-2.48-8.68-2.61-10-.72a15.63,15.63,0,0,0-1.35,2.54c-.28.7-1.17,3.19-2.54,7.4-.82,2.52-1.67,3.65-2.43,3.3s-1.46-2.22-2.48-5.58A105.83,105.83,0,0,0,532.35,248c-1.27-2.81-4.6-5.2-9.94-6.83a25.23,25.23,0,0,0-4.53-1c-3.65-.45-5.47.12-5.47,1.55a7.61,7.61,0,0,0,1.08,3,32.51,32.51,0,0,1,2.29,5.08,22.46,22.46,0,0,1,.77,5.93v1a55.12,55.12,0,0,1-1.21,11.94,20.36,20.36,0,0,1-2.48,5.28,12.17,12.17,0,0,0-2.11,6.13c0,4.36,4,7.49,11.66,9.83,6.47,2,9.84,1.62,9.87-1.33a12.74,12.74,0,0,0-.63-3.26,71.54,71.54,0,0,1-2.43-10.67,80.68,80.68,0,0,1-.69-9.1c0-2.31.25-3.46.64-3.37,1,.26,2.44,3.54,4.07,10.29C535.08,280.16,536,286,536,290a4.67,4.67,0,0,0,.19,1.28,4.26,4.26,0,0,0,2.74,3,4.35,4.35,0,0,0,.76.22c1.45.21,2.16-.52,2.16-2.22a54.29,54.29,0,0,1,2.43-14.1c1.71-6,3.23-8.49,4.33-7.94.46.23.69,1.59.69,4a71,71,0,0,1-.82,8.24,33.35,33.35,0,0,1-1.72,6.9,17.73,17.73,0,0,0-1.27,4.37c0,2.91,3.34,5.74,9.86,8.75,7.59,3.5,11.56,3.51,11.6-.48A18.35,18.35,0,0,0,565,295.33Zm-38.21-48.69A2.79,2.79,0,0,1,525,245.1a.85.85,0,0,1,.07-.22c.21-.48.81-.58,1.79-.25a4.53,4.53,0,0,1,.57.23c.89.5,1.33,1,1.33,1.47C528.54,246.78,527.8,247,526.81,246.64Zm31.39,11.74a.75.75,0,0,1,.07-.22c.21-.49.82-.49,1.85,0a4.67,4.67,0,0,1,.56.34c.86.64,1.33,1.27,1.28,1.71s-.86.59-1.84.08A4,4,0,0,1,558.2,258.38Z" transform="translate(0 -73.7)"/><path d="M44.08,367.13c-.73-3.88-3.08-7.24-7.07-10.28a2.93,2.93,0,0,1-1.28-1.79c0-.48.53-1,1.46-1.29,2.09-.73,3.17-2.48,3.18-5.15a11.52,11.52,0,0,0-1.46-5.51c-2.6-5.07-7.83-8.87-15.73-11.88-4.58-1.75-6.87-2.68-11.47-4.67a33.11,33.11,0,0,0-4.52-1.64c-3.65-1-5.47-.84-5.47.73a9.75,9.75,0,0,0,1,3.26,34.59,34.59,0,0,1,2.35,6,37.68,37.68,0,0,1,.77,7.57,42.43,42.43,0,0,1-1.35,10.71A14.84,14.84,0,0,1,2.1,357.7,9.33,9.33,0,0,0,0,363c0,4.08,3.9,7.67,11.58,10.27,4.7,1.55,7,2.27,11.73,3.63,6.67,1.95,11.88,2,15.6.36a8.27,8.27,0,0,0,5.35-8.14A13,13,0,0,0,44.08,367.13ZM18.14,340.76c.77-1.38,2.44-1.56,5-.61a7.52,7.52,0,0,1,2.67,1.75,6.2,6.2,0,0,1,2.3,4.39,2.16,2.16,0,0,1-.26,1.06c-.68,1-2.11,1.21-4.33.44A12.06,12.06,0,0,1,21,346.53c-2.08-1.45-3.11-3-3.11-4.58A3,3,0,0,1,18.14,340.76Zm10.52,22.11c-.77,1.84-2.57,2.34-5.42,1.44A8.12,8.12,0,0,1,20.82,363a6.56,6.56,0,0,1-2.74-5.42,4.72,4.72,0,0,1,.52-2.27c.89-1.76,2.44-2.25,4.64-1.49a8.45,8.45,0,0,1,3.25,2A7.51,7.51,0,0,1,29,361.3,3.93,3.93,0,0,1,28.66,362.87Zm2.1-24a3.69,3.69,0,0,1-1.08-.6c-.94-.65-1.43-1.28-1.4-1.81s.42-.62,1.08-.41a4.32,4.32,0,0,1,1.08.61c.93.68,1.43,1.33,1.4,1.86S31.41,339.11,30.76,338.9Z" transform="translate(0 -73.7)"/><path d="M94.23,381.12a28.88,28.88,0,0,0-3-2.5,18.18,18.18,0,0,1-5.79-8.3,58.82,58.82,0,0,1-3.12-19.89,5.38,5.38,0,0,0-.06-.81,3.57,3.57,0,0,0-1.48-1.75c-2.16-1.52-5.46-2.63-9.93-3.44-1.4-.25-2.79-.44-4.14-.55-4.41-.38-6.62,0-6.62,1.32a6,6,0,0,0,1,2.62,9.94,9.94,0,0,1,1.46,4.45,20,20,0,0,1-1.66,6.43,62.75,62.75,0,0,1-6.05,12,9.42,9.42,0,0,1-.76,1,8.68,8.68,0,0,1-4.46,2.61l-1.08.27a3.06,3.06,0,0,0-1.92,3.21,7,7,0,0,0,.57,2.79c1,2.18,3.71,3.75,8.16,4.59a20,20,0,0,0,5.47.45c2.94-.31,4.4-2.11,4.4-5.35,0-.26,0-.7-.06-1.25s0-1,0-1.25c0-4.37,1.51-6.33,4.46-5.86a5,5,0,0,1,1.65.55c1.32.7,2,2.28,2,4.76,0,.64,0,1.69-.11,3.13-.06,1.09-.07,1.88-.07,2.28A5.2,5.2,0,0,0,74.1,386c1.44,1.74,4.88,3,10.32,3.59a31.48,31.48,0,0,0,6.43.24q4.71-.55,4.71-4.88A5.72,5.72,0,0,0,94.23,381.12ZM69.58,366.33a2.09,2.09,0,0,1-1.66-2.22,13,13,0,0,1,.26-2.85c.38-2,1-2.95,1.72-2.78.92.23,1.54,2.28,1.59,5.74C71.51,365.74,70.79,366.51,69.58,366.33Zm7.33-16.81a3.42,3.42,0,0,1-.84-.25c-1-.38-1.48-.85-1.46-1.32s.58-.69,1.53-.56a5.69,5.69,0,0,1,.77.18c1,.39,1.48.86,1.46,1.37S77.82,349.63,76.91,349.52Z" transform="translate(0 -73.7)"/><path d="M133.43,369.12c-1.83-1.46-5-3-9.55-4.77l-2.43-1q-3.61-1.56-3.62-3a2.23,2.23,0,0,1,.18-.84,3.62,3.62,0,0,1,3.64-2,3.85,3.85,0,0,1,1.46.3,7.48,7.48,0,0,1,2.54,3.09c.85,1.53,1.66,2.4,2.43,2.62a3.19,3.19,0,0,0,.82.12,3.53,3.53,0,0,0,2.49-1.3,9.46,9.46,0,0,0,2-6.29,10.45,10.45,0,0,0-.18-1.94q-.65-4-2.94-4.62a3.65,3.65,0,0,0-.83-.11,14.93,14.93,0,0,1-2.22-.15c-3.06-.42-4.89-.67-5.48-.67a23.33,23.33,0,0,0-12.61,3.76c-3.38,2.16-5.13,4.77-5.1,7.5,0,2.42,1.75,5.06,5.1,7.79,1.1.87,3.67,2.58,7.71,5,2.54,1.58,3.82,2.67,3.82,3.3a.93.93,0,0,1-.13.44c-.56.84-1.75,1.24-3.57,1.18a8.07,8.07,0,0,1-4.14-1.35,24,24,0,0,1-3.44-3.11c-1.61-1.65-3.12-2.53-4.52-2.62a4.14,4.14,0,0,0-2.8.82c-1.79,1.28-2.67,3.51-2.67,6.7a15,15,0,0,0,1.52,7.1c2.17,4.07,7,6.36,14.45,6.66,7.18.29,12.81-1.2,16.88-4.3a12.5,12.5,0,0,0,5.35-10.28A10.16,10.16,0,0,0,133.43,369.12Zm-7.07-17.95a2.87,2.87,0,0,1,1.08.24c.94.34,1.42.81,1.4,1.32s-.42.66-1.09.67a2.51,2.51,0,0,1-1.08-.22c-.93-.35-1.42-.81-1.4-1.32S125.69,351.2,126.36,351.17Z" transform="translate(0 -73.7)"/><path d="M157.53,381.4a155.67,155.67,0,0,1-10.72-15.08,40.12,40.12,0,0,1-1.45,9.7,20.44,20.44,0,0,1-2.48,5c-1.41,2.2-2.11,4-2.1,5.45,0,3.5,3.93,5.28,11.65,5.09,5.51-.17,9.18-.32,13.48-.54Q161.51,386.36,157.53,381.4Z" transform="translate(0 -73.7)"/><path d="M432.54,345.76c1.28-.43,1.91-1.5,1.91-3.22,0-.62,0-1.25.07-2C433.91,342.33,433.24,344.05,432.54,345.76Zm25.09-11.07a29.1,29.1,0,0,1-2.67-7,98.53,98.53,0,0,1-1.08-14.55,34.94,34.94,0,0,1,.64-7.22,15.94,15.94,0,0,1,1.78-4.38c1.1-2,1.69-3.35,1.66-4.08a3.18,3.18,0,0,0-.83-1.82c-1.66-1.63-4.7-2.54-9.11-2.63a19.89,19.89,0,0,0-4.26.3q-.24,6.57-1.05,13.15c-.36,3-.82,6-1.37,8.89.37.33.56,1.74.56,4.22,0,1.52-.26,4.65-.82,9.35a52.19,52.19,0,0,1-1.72,8.3,29.38,29.38,0,0,0-1.28,5.3c0,3.16,3.38,4.86,9.88,5.08,7.59.25,11.55-1.92,11.59-6.5A15.12,15.12,0,0,0,457.63,334.69Zm-6.81-37.84a1.06,1.06,0,0,1,.07-.28c.21-.65.82-1,1.84-.92a2.09,2.09,0,0,1,.57.09c.85.26,1.33.74,1.28,1.25s-.87,1.11-1.85,1.05A2.19,2.19,0,0,1,450.82,296.85Z" transform="translate(0 -73.7)"/><path d="M507.79,326.69A43.26,43.26,0,0,0,501,306.75c-4.29-6.66-9.41-10.53-15.35-11.39a14.19,14.19,0,0,0-3.25-.09c-5.52.4-10.1,3.65-13.76,9.54a35.72,35.72,0,0,0-5.29,19.24,30,30,0,0,0,3.12,13.87c3.75,7.34,10.1,11.37,19.05,12.46,6.62.79,11.92-.39,15.86-3.67,4.38-3.61,6.56-9.14,6.56-16.77C507.92,328.92,507.88,327.82,507.79,326.69Zm-15.8-.21c-1,4.07-3.12,5.86-6.43,5.43a6.47,6.47,0,0,1-2.8-1.06c-2.63-1.76-3.94-5.28-3.94-10.59a24.29,24.29,0,0,1,1.65-9.05c1.37-3.46,3.1-5.1,5.09-4.79,1.47.23,2.87,1.54,4.15,3.86a24.43,24.43,0,0,1,2.74,11.81A19.92,19.92,0,0,1,492,326.48Zm.26-24.33a2.68,2.68,0,0,1-1.08-.45c-.94-.58-1.42-1.22-1.4-1.84s.42-.76,1.09-.68a2.94,2.94,0,0,1,1.08.46c.93.58,1.42,1.22,1.4,1.85S492.9,302.25,492.25,302.15Z" transform="translate(0 -73.7)"/><path d="M565,357.3a33.49,33.49,0,0,1-2.68-7.16,87.22,87.22,0,0,1-1.08-13.52,25.71,25.71,0,0,1,.63-6.3,8.64,8.64,0,0,1,1.79-3.27c1.1-1.33,1.68-2.34,1.66-3a4.24,4.24,0,0,0-.84-2c-1.64-2.19-4.68-4.36-9.1-6.29-5.35-2.32-8.68-2.28-10-.13a20.37,20.37,0,0,0-1.35,2.9c-.28.78-1.17,3.57-2.54,8.4-.82,2.87-1.68,4.25-2.43,3.95s-1.46-2.27-2.48-5.94A128.4,128.4,0,0,0,532.35,311c-1.27-3.08-4.6-5.57-9.94-7.14a22.82,22.82,0,0,0-4.53-.83c-3.65-.29-5.47.49-5.47,2.2a9.61,9.61,0,0,0,1.08,3.46,40.16,40.16,0,0,1,2.29,5.83,29.92,29.92,0,0,1,.77,6.91v1.18a61.11,61.11,0,0,1-1.21,13,22.09,22.09,0,0,1-2.48,5.54,13.36,13.36,0,0,0-2.11,6.38c0,4.44,4,7.41,11.66,9.16,6.47,1.46,9.84.76,9.87-2.23a12.39,12.39,0,0,0-.63-3.25,68.4,68.4,0,0,1-2.43-10.58,81.37,81.37,0,0,1-.69-9.17c0-2.65.26-4,.64-3.92,1,.17,2.44,3.84,4.07,10.52,1.84,7.58,2.74,13.39,2.74,17.38a4.62,4.62,0,0,0,.19,1.28,3.7,3.7,0,0,0,2.74,2.71,4.12,4.12,0,0,0,.76.16c1.45,0,2.16-.79,2.16-2.5a58,58,0,0,1,2.43-14.47c1.71-6.28,3.25-9.2,4.33-8.76.46.2.69,1.63.69,4.23a74.31,74.31,0,0,1-.82,8.4,36.85,36.85,0,0,1-1.72,7.15,19.35,19.35,0,0,0-1.27,4.54c0,2.93,3.35,5.42,9.86,7.58,7.59,2.5,11.56,1.87,11.6-2.13A16.5,16.5,0,0,0,565,357.3Zm-38.21-47.37a2.65,2.65,0,0,1-1.86-1.65A1.28,1.28,0,0,1,525,308c.21-.57.81-.71,1.79-.41a3.09,3.09,0,0,1,.57.23c.89.5,1.33,1,1.33,1.58C528.54,310,527.77,310.2,526.81,309.93Zm31.39,10.52a1.18,1.18,0,0,1,.07-.22c.21-.52.82-.55,1.85-.08a3.51,3.51,0,0,1,.56.33c.86.6,1.33,1.23,1.28,1.67s-.87.65-1.84.2A3.76,3.76,0,0,1,558.2,320.45Z" transform="translate(0 -73.7)"/><path d="M44.08,423.07c-.73-3.73-3.08-6.85-7.07-9.44-.77-.54-1.27-1.14-1.28-1.65s.53-1,1.46-1.4c2.09-.93,3.17-2.74,3.18-5.38a10.42,10.42,0,0,0-1.46-5.28c-2.6-4.78-7.83-8.06-15.73-10.15-4.58-1.21-6.87-1.85-11.47-3.23a27.61,27.61,0,0,0-4.52-1c-3.65-.51-5.47,0-5.47,1.54a8.54,8.54,0,0,0,1,3.1,29.41,29.41,0,0,1,2.35,5.63,35.67,35.67,0,0,1,.77,7.43,44.62,44.62,0,0,1-1.35,10.89A18,18,0,0,1,2.1,419,10.91,10.91,0,0,0,0,424.73c0,4.07,3.9,6.95,11.58,8.36,4.7.83,7,1.23,11.73,2,6.67,1,11.88.49,15.6-1.49q5.34-2.85,5.35-8.53A12.23,12.23,0,0,0,44.08,423.07ZM18.14,399.83c.77-1.46,2.44-1.86,5-1.23A6.68,6.68,0,0,1,25.85,400a5.4,5.4,0,0,1,2.3,4.1,2.27,2.27,0,0,1-.26,1.08c-.68,1.11-2.11,1.44-4.33.94a11,11,0,0,1-2.55-.95C18.93,404,17.9,402.63,17.9,401A3.07,3.07,0,0,1,18.14,399.83Zm10.52,20.63c-.77,1.91-2.57,2.62-5.42,2.09a6.81,6.81,0,0,1-2.42-.95,5.6,5.6,0,0,1-2.74-5,5.11,5.11,0,0,1,.52-2.33c.89-1.86,2.44-2.54,4.64-2.07a7.52,7.52,0,0,1,3.25,1.63A6.53,6.53,0,0,1,29,418.87,4.13,4.13,0,0,1,28.66,420.46Zm2.1-23.92a3.23,3.23,0,0,1-1.08-.5c-.94-.53-1.43-1.1-1.4-1.63s.42-.65,1.08-.52a3.66,3.66,0,0,1,1.08.5c.93.58,1.43,1.17,1.4,1.69S31.41,396.67,30.76,396.54Z" transform="translate(0 -73.7)"/><path d="M94.23,433.87a25.88,25.88,0,0,0-3-2.33,16.8,16.8,0,0,1-5.79-7.83,54.24,54.24,0,0,1-3.12-19.12,4.69,4.69,0,0,0-.06-.77,3.33,3.33,0,0,0-1.47-1.66c-2.17-1.41-5.47-2.39-9.94-3-1.4-.19-2.79-.31-4.14-.36-4.41-.16-6.62.35-6.62,1.63a5.46,5.46,0,0,0,1,2.5,9.11,9.11,0,0,1,1.46,4.27,20,20,0,0,1-1.66,6.36,67,67,0,0,1-6.05,12.12,12.06,12.06,0,0,1-.76,1.08,9.71,9.71,0,0,1-4.46,2.9L48.5,430a3.32,3.32,0,0,0-1.92,3.33,6.38,6.38,0,0,0,.57,2.69c1,2,3.71,3.32,8.16,3.81a21.47,21.47,0,0,0,5.47,0c2.94-.51,4.4-2.35,4.4-5.51,0-.26,0-.68-.06-1.21s0-1,0-1.21c0-4.27,1.51-6.27,4.46-6a5.11,5.11,0,0,1,1.65.45c1.32.61,2,2.11,2,4.52,0,.62,0,1.65-.11,3C73,435,73,435.79,73,436.18a4.75,4.75,0,0,0,1.08,3.2c1.44,1.6,4.88,2.62,10.32,3a35,35,0,0,0,6.43,0q4.71-.68,4.71-4.83A5.2,5.2,0,0,0,94.23,433.87ZM69.58,420.5a1.92,1.92,0,0,1-1.66-2.07,12.53,12.53,0,0,1,.26-2.79c.38-1.95,1-2.91,1.72-2.78.92.18,1.54,2.14,1.59,5.49C71.51,419.84,70.79,420.62,69.58,420.5Zm7.33-16.63a3.68,3.68,0,0,1-.84-.21c-1-.34-1.48-.77-1.46-1.22s.58-.7,1.53-.59a5.44,5.44,0,0,1,.77.14c1,.34,1.48.78,1.46,1.28S77.82,404,76.91,403.87Z" transform="translate(0 -73.7)"/><path d="M133.43,422.33c-1.83-1.41-5-2.95-9.55-4.67l-2.43-.93q-3.61-1.5-3.62-2.85a2,2,0,0,1,.18-.8,3.62,3.62,0,0,1,3.64-1.83,4.53,4.53,0,0,1,1.46.3,7.54,7.54,0,0,1,2.54,3,5.16,5.16,0,0,0,2.43,2.53,4.39,4.39,0,0,0,.82.12,3.54,3.54,0,0,0,2.49-1.2,8.44,8.44,0,0,0,2-5.91,9.49,9.49,0,0,0-.18-1.84c-.43-2.51-1.41-4-2.94-4.44a3.2,3.2,0,0,0-.83-.12,17.71,17.71,0,0,1-2.22-.2c-3.06-.46-4.89-.72-5.48-.72a23.29,23.29,0,0,0-12.61,3.46c-3.38,2.06-5.13,4.57-5.1,7.18,0,2.32,1.75,4.83,5.1,7.42,1.1.84,3.67,2.46,7.71,4.8,2.54,1.5,3.82,2.55,3.82,3.15a.89.89,0,0,1-.13.43c-.56.79-1.75,1.16-3.57,1.09a8.33,8.33,0,0,1-4.14-1.26,24.15,24.15,0,0,1-3.44-3,7.44,7.44,0,0,0-4.52-2.47,4.36,4.36,0,0,0-2.8.81c-1.79,1.25-2.67,3.41-2.67,6.47a13.71,13.71,0,0,0,1.52,6.78c2.17,3.85,7,5.94,14.45,6.16,7.18.24,12.81-1.15,16.88-4.06q5.34-3.79,5.35-9.62A9.63,9.63,0,0,0,133.43,422.33Zm-7.07-17.14a2.89,2.89,0,0,1,1.08.25c.94.34,1.42.79,1.4,1.26s-.42.63-1.09.64a3.33,3.33,0,0,1-1.08-.23c-.93-.36-1.42-.81-1.4-1.28S125.69,405.2,126.36,405.19Z" transform="translate(0 -73.7)"/><path d="M182.25,428.55c-.47-3.2-2.35-4.75-5.61-4.62a5.36,5.36,0,0,0-1.34.21,10.18,10.18,0,0,0-3.56,2.61,9.8,9.8,0,0,1-.84.89,9.48,9.48,0,0,1-6.74,2.89,4.87,4.87,0,0,1-2.81-1.17c-1.48-1.29-2.25-2.61-2.23-3.88s.92-1.76,2.55-1.82a6.06,6.06,0,0,1,3.13.95,6,6,0,0,0,2.23,1,1.69,1.69,0,0,0,.88-.3q1.67-1.17,1.66-4.54a8.76,8.76,0,0,0-.26-2.16c-.46-1.7-1.23-2.53-2.28-2.5a4,4,0,0,0-1.72.76,7.42,7.42,0,0,1-3.64,1.46,4.83,4.83,0,0,1-.76,0c-1.49-.16-2.23-.79-2.23-1.91a3.89,3.89,0,0,1,1.21-2.53,8.66,8.66,0,0,1,6.43-2.83,10.15,10.15,0,0,1,5.22,1.07,15.07,15.07,0,0,1,3.13,2.62,4.6,4.6,0,0,0,3.43,1.67,3,3,0,0,0,.77-.14c1.53-.48,2.3-2,2.3-4.54a10.38,10.38,0,0,0-1.72-5.65c-1.35-2.09-2.83-3.09-4.4-3-8.9.47-13.34.64-22.23.85-6.62.14-10,1.08-10,2.88a4.58,4.58,0,0,0,1,2.22,15.45,15.45,0,0,1,2.36,4.21,21.16,21.16,0,0,1,.64,5.4,36.14,36.14,0,0,1-1.48,10.44,18.06,18.06,0,0,1-2.48,4.6c-1.41,2.05-2.11,3.77-2.1,5.1,0,3.3,3.93,5,11.65,5,8.28,0,12.43-.07,20.7-.24,2.17-.08,4.23-1.45,6.12-4.13a15.87,15.87,0,0,0,3.12-9.34A10.05,10.05,0,0,0,182.25,428.55Zm-9-24.13a2.72,2.72,0,0,1,1.09.17c.93.29,1.43.72,1.4,1.21s-.43.67-1.08.72a2.83,2.83,0,0,1-1.08-.17c-.94-.29-1.44-.72-1.41-1.21S172.6,404.47,173.26,404.42Z" transform="translate(0 -73.7)"/><path d="M225.73,433.18c-4.14-1.68-8.2-3.53-12.12-5.53a7.7,7.7,0,0,1-3.76,1.45,5.8,5.8,0,0,1-2.41-.11,3.45,3.45,0,0,1-2.74-3.74,5.68,5.68,0,0,1,.47-2.22c-1-.57-1.93-1.16-2.9-1.75-3.4-2.1-6.74-4.33-10-6.69a25.16,25.16,0,0,1,.17,3.05,40.27,40.27,0,0,1-1.33,10.08,19.58,19.58,0,0,1-2.42,5c-1.4,2.19-2.12,3.95-2.1,5.31,0,3.42,3.9,4.93,11.59,4.07,4.69-.55,7-.82,11.72-1.4,6.66-.81,11.88-2.68,15.6-5.66A16.92,16.92,0,0,0,227,433.7Z" transform="translate(0 -73.7)"/><path d="M457.63,405.62a30.29,30.29,0,0,1-2.67-7.19,105.13,105.13,0,0,1-1.08-15.06,37.52,37.52,0,0,1,.64-7.48,16.65,16.65,0,0,1,1.78-4.54c1.1-2.05,1.69-3.48,1.66-4.24a3.26,3.26,0,0,0-.83-1.86c-1.66-1.7-4.7-2.65-9.11-2.81-5.35-.18-8.69,1.24-10,4.14a34.11,34.11,0,0,0-1.33,3.72c-.3,1-1.18,4.37-2.56,10.17-.81,3.47-1.67,5.28-2.41,5.22s-1.47-2-2.5-5.62A104.44,104.44,0,0,0,425,366.51a5.74,5.74,0,0,0-1.48-2c-.16.32-.35.63-.52.93a154.18,154.18,0,0,1-9.91,15.13c-1.27,1.71-2.56,3.39-3.9,5A71.31,71.31,0,0,1,408,397.92a30.09,30.09,0,0,1-2.49,6.49,17.54,17.54,0,0,0-2.1,7.25c0,4.69,3.95,7.08,11.66,7.08,6.47,0,9.82-1.72,9.86-5a12.63,12.63,0,0,0-.62-3.37,68.72,68.72,0,0,1-2.43-10.83,90.28,90.28,0,0,1-.7-9.71c0-2.86.26-4.39.64-4.44.94-.1,2.45,3.38,4.08,10.14,1.84,7.69,2.74,13.84,2.74,18.23a5.3,5.3,0,0,0,.18,1.36,2.69,2.69,0,0,0,2.74,2.2,2.86,2.86,0,0,0,.77-.06c1.45-.38,2.16-1.53,2.16-3.43,0-4.06.8-9.73,2.42-16.92,1.72-7.59,3.25-11.41,4.33-11.34.46,0,.7,1.54.7,4.46,0,1.58-.26,4.83-.82,9.71a55.25,55.25,0,0,1-1.72,8.62,31.77,31.77,0,0,0-1.28,5.53c0,3.28,3.38,5.08,9.88,5.26,7.59.21,11.55-2.13,11.59-6.86A15.81,15.81,0,0,0,457.63,405.62Zm-6.81-39.2a1.1,1.1,0,0,1,.07-.29c.21-.67.82-1,1.84-.95a2.7,2.7,0,0,1,.57.11c.85.27,1.33.77,1.28,1.29s-.87,1.16-1.85,1.09A2.2,2.2,0,0,1,450.82,366.42Z" transform="translate(0 -73.7)"/><path d="M507.79,395.25A42.46,42.46,0,0,0,501,375.34c-4.29-6.54-9.41-10.26-15.35-10.93a12.62,12.62,0,0,0-3.25,0c-5.52.57-10.1,4-13.76,10.14a38.26,38.26,0,0,0-5.29,20,31.38,31.38,0,0,0,3.12,14.26c3.75,7.49,10.1,11.44,19.05,12.08,6.62.47,11.92-1.11,15.86-4.73,4.37-4,6.56-9.82,6.56-17.59C507.92,397.51,507.88,396.4,507.79,395.25ZM492,396c-1,4.21-3.12,6.17-6.43,5.9a6,6,0,0,1-2.8-1c-2.63-1.68-3.94-5.27-3.94-10.74a26.1,26.1,0,0,1,1.65-9.35c1.37-3.6,3.1-5.33,5.09-5.1,1.47.18,2.87,1.47,4.15,3.78a24.83,24.83,0,0,1,2.74,12A21.15,21.15,0,0,1,492,396Zm.26-24.93a2.56,2.56,0,0,1-1.08-.41c-.94-.55-1.42-1.19-1.4-1.83s.42-.8,1.09-.73a2.64,2.64,0,0,1,1.08.42c.93.55,1.42,1.18,1.4,1.82S492.9,371.17,492.25,371.1Z" transform="translate(0 -73.7)"/><path d="M565,419.33a27.92,27.92,0,0,1-2.68-6.73,84.63,84.63,0,0,1-1.08-13.4,27.06,27.06,0,0,1,.63-6.4,10.33,10.33,0,0,1,1.79-3.54c1.1-1.5,1.68-2.61,1.66-3.26a3.59,3.59,0,0,0-.84-1.87c-1.64-1.94-4.68-3.65-9.1-5-5.35-1.61-8.68-1.17-10,1.17a22.23,22.23,0,0,0-1.35,3.08c-.28.82-1.17,3.74-2.54,8.78-.82,3-1.68,4.5-2.43,4.29s-1.46-2.13-2.48-5.72a122.34,122.34,0,0,0-4.26-13.6c-1.27-3-4.6-5.17-9.94-6.27a21.16,21.16,0,0,0-4.53-.49c-3.65,0-5.47.93-5.47,2.68a9.34,9.34,0,0,0,1.08,3.43,38.6,38.6,0,0,1,2.29,5.75,30.13,30.13,0,0,1,.77,7v1.2a64.89,64.89,0,0,1-1.21,13.33,24.91,24.91,0,0,1-2.48,5.84,14.8,14.8,0,0,0-2.11,6.68c0,4.51,4,7.22,11.66,8.2,6.47.81,9.84-.31,9.87-3.35a11.88,11.88,0,0,0-.63-3.21,65.42,65.42,0,0,1-2.43-10.43,81.64,81.64,0,0,1-.69-9.21c0-2.69.25-4.08.64-4.05,1,.07,2.44,3.64,4.07,10.2,1.84,7.47,2.74,13.22,2.74,17.25a4.28,4.28,0,0,0,.19,1.26,3.14,3.14,0,0,0,2.74,2.4,4.87,4.87,0,0,0,.76.06c1.45-.15,2.16-1.07,2.16-2.8a62.35,62.35,0,0,1,2.43-14.9c1.71-6.57,3.25-9.7,4.33-9.4.44.13.69,1.54.69,4.16a77.71,77.71,0,0,1-.82,8.56,40.8,40.8,0,0,1-1.72,7.44,21.9,21.9,0,0,0-1.27,4.76c0,2.95,3.37,5,9.86,6.15,7.59,1.35,11.56,0,11.6-4A14.29,14.29,0,0,0,565,419.33ZM526.81,376.6a2.39,2.39,0,0,1-1.86-1.5,1.75,1.75,0,0,1,.07-.27c.21-.6.81-.8,1.79-.6a4,4,0,0,1,.57.2c.89.42,1.33.91,1.33,1.46C528.54,376.45,527.78,376.78,526.81,376.6Zm33.31,8.49a3.1,3.1,0,0,1-1.92-1.62,1.09,1.09,0,0,1,.07-.25c.21-.55.82-.65,1.85-.34a4.08,4.08,0,0,1,.56.24c.86.48,1.33,1,1.28,1.5S561.09,385.4,560.12,385.09Z" transform="translate(0 -73.7)"/><path d="M44.08,478c-.73-3.59-3.08-6.38-7.07-8.47-.77-.41-1.27-1-1.28-1.44s.53-1.06,1.46-1.58a6,6,0,0,0,3.18-5.65,9.36,9.36,0,0,0-1.46-5c-2.6-4.4-7.83-7.07-15.73-8.06-4.58-.57-6.87-.89-11.47-1.53A26.55,26.55,0,0,0,7.19,446c-3.65.09-5.47.91-5.47,2.48a7.48,7.48,0,0,0,1,2.92,24.07,24.07,0,0,1,2.35,5.2,33.71,33.71,0,0,1,.77,7.28A47.55,47.55,0,0,1,4.51,475a22.75,22.75,0,0,1-2.41,5.36A12.86,12.86,0,0,0,0,486.43c0,4.05,3.9,6.14,11.58,6.2l11.73,0c6.67,0,11.88-1.24,15.6-3.65,3.56-2.34,5.35-5.34,5.35-9A11.34,11.34,0,0,0,44.08,478ZM18.14,458.5c.77-1.58,2.44-2.22,5-2a5.66,5.66,0,0,1,2.67,1,4.51,4.51,0,0,1,2.3,3.74,2.37,2.37,0,0,1-.26,1.09c-.68,1.2-2.11,1.73-4.33,1.54a9.76,9.76,0,0,1-2.55-.57c-2.08-.86-3.11-2.09-3.11-3.65A3.25,3.25,0,0,1,18.14,458.5Zm10.52,18.93c-.77,2-2.57,2.94-5.42,2.84a6,6,0,0,1-2.42-.58,4.63,4.63,0,0,1-2.74-4.56,5.41,5.41,0,0,1,.52-2.37A4.35,4.35,0,0,1,23.24,470a6.27,6.27,0,0,1,3.25,1.16A5.48,5.48,0,0,1,29,475.79,4.5,4.5,0,0,1,28.66,477.43Zm2.1-23.94a2.55,2.55,0,0,1-1.08-.34c-.94-.42-1.43-.93-1.4-1.45s.42-.69,1.08-.64a3,3,0,0,1,1.08.36c.93.45,1.43,1,1.4,1.48S31.42,453.54,30.76,453.49Z" transform="translate(0 -73.7)"/><path d="M94.23,484.52a27.66,27.66,0,0,0-3-2.1,15,15,0,0,1-5.79-7.21,49.27,49.27,0,0,1-3.12-18.29,4.48,4.48,0,0,0-.06-.74,3,3,0,0,0-1.48-1.52c-2.16-1.26-5.46-2-9.93-2.34a41.14,41.14,0,0,0-4.14-.08c-4.41.15-6.62.83-6.62,2.08a5,5,0,0,0,1,2.38,8,8,0,0,1,1.46,4,20.32,20.32,0,0,1-1.66,6.34,74.55,74.55,0,0,1-6.05,12.39c-.21.35-.47.73-.76,1.12a11.47,11.47,0,0,1-4.46,3.32,9.2,9.2,0,0,0-1.08.48,3.65,3.65,0,0,0-1.92,3.47,5.63,5.63,0,0,0,.57,2.55c1,1.91,3.71,2.85,8.16,2.85a22.48,22.48,0,0,0,5.47-.55,5.41,5.41,0,0,0,4.4-5.77c0-.24,0-.66-.06-1.17s0-.94,0-1.19c0-4.14,1.51-6.22,4.46-6.15a4.74,4.74,0,0,1,1.65.31c1.32.5,2,1.9,2,4.24,0,.6,0,1.59-.11,2.95-.06,1-.07,1.77-.07,2.16a4.25,4.25,0,0,0,1.08,3q2.16,2.14,10.32,2.15a37.54,37.54,0,0,0,6.43-.42q4.71-.9,4.71-4.88A4.67,4.67,0,0,0,94.23,484.52Zm-24.65-11.4c-1,0-1.62-.73-1.66-1.88a12.25,12.25,0,0,1,.26-2.74c.38-1.91,1-2.91,1.72-2.81.92.1,1.54,2,1.59,5.21C71.51,472.34,70.79,473.16,69.58,473.12Zm7.33-16.6a3,3,0,0,1-.84-.16c-1-.26-1.48-.65-1.46-1.1s.58-.7,1.53-.66a5.24,5.24,0,0,1,.77.1c1,.28,1.48.68,1.46,1.15S77.82,456.55,76.91,456.52Z" transform="translate(0 -73.7)"/><path d="M133.43,472.57q-2.75-2-9.55-4.35l-2.43-.85c-2.41-.91-3.62-1.81-3.62-2.66a1.91,1.91,0,0,1,.18-.77,3.73,3.73,0,0,1,3.64-1.78,4.51,4.51,0,0,1,1.46.29,7,7,0,0,1,2.54,2.79,5,5,0,0,0,2.43,2.38,3.25,3.25,0,0,0,3.31-1,7.69,7.69,0,0,0,2-5.57,8.66,8.66,0,0,0-.18-1.75c-.43-2.35-1.41-3.76-2.94-4.19a3.2,3.2,0,0,0-.83-.12,19.5,19.5,0,0,1-2.22-.19c-3.06-.43-4.89-.67-5.48-.67a24,24,0,0,0-12.61,3.45c-3.38,2-5.13,4.5-5.1,7,0,2.22,1.75,4.58,5.1,7,1.1.77,3.67,2.25,7.71,4.39,2.54,1.39,3.82,2.35,3.82,2.91a.76.76,0,0,1-.13.41c-.56.77-1.75,1.14-3.57,1.12a8.56,8.56,0,0,1-4.14-1.11,22.05,22.05,0,0,1-3.44-2.73,7.25,7.25,0,0,0-4.52-2.21,4.59,4.59,0,0,0-2.8.86c-1.79,1.26-2.67,3.36-2.67,6.3a12.24,12.24,0,0,0,1.52,6.41c2.17,3.6,7,5.37,14.45,5.37,7.18,0,12.81-1.41,16.88-4.19,3.56-2.43,5.35-5.44,5.35-9.09C137.56,477.06,136.19,474.61,133.43,472.57Zm-7.07-16.16a3,3,0,0,1,1.08.22c.94.32,1.42.75,1.4,1.2s-.42.59-1.09.6a3.06,3.06,0,0,1-1.08-.22c-.93-.32-1.42-.75-1.4-1.21S125.69,456.41,126.36,456.41Z" transform="translate(0 -73.7)"/><path d="M182.25,479.09c-.47-3-2.35-4.46-5.61-4.43a5.35,5.35,0,0,0-1.34.16,9.68,9.68,0,0,0-3.56,2.32,8.33,8.33,0,0,1-.84.81,9.64,9.64,0,0,1-6.74,2.55,5.17,5.17,0,0,1-2.81-1.14c-1.48-1.23-2.25-2.47-2.23-3.64s.92-1.63,2.55-1.66a6.35,6.35,0,0,1,3.13.95,6.35,6.35,0,0,0,2.23,1,1.77,1.77,0,0,0,.88-.24c1.11-.71,1.66-2.1,1.66-4.19a7.82,7.82,0,0,0-.26-2c-.46-1.58-1.23-2.38-2.28-2.36a3.91,3.91,0,0,0-1.72.66,7.66,7.66,0,0,1-3.64,1.28,4.85,4.85,0,0,1-.76-.05c-1.49-.16-2.23-.77-2.23-1.82a3.43,3.43,0,0,1,1.21-2.33,8.7,8.7,0,0,1,6.43-2.48,10.57,10.57,0,0,1,5.22,1.14,15.24,15.24,0,0,1,3.13,2.51,4.93,4.93,0,0,0,3.43,1.66,3.39,3.39,0,0,0,.77-.1c1.53-.4,2.3-1.77,2.3-4.13a9.38,9.38,0,0,0-1.72-5.29c-1.35-2-2.83-3-4.4-2.94-8.9.13-13.34.17-22.23.19-6.62,0-10,.84-10,2.54a4.28,4.28,0,0,0,1,2.1,14.36,14.36,0,0,1,2.36,4,18.77,18.77,0,0,1,.64,5.07,31.77,31.77,0,0,1-1.48,9.77,16.68,16.68,0,0,1-2.48,4.31c-1.41,1.93-2.11,3.54-2.1,4.78,0,3.11,3.93,4.69,11.65,4.71h20.7c2.17,0,4.23-1.25,6.12-3.68a13.6,13.6,0,0,0,3.12-8.53A8.69,8.69,0,0,0,182.25,479.09Zm-9-22.63a3.2,3.2,0,0,1,1.09.2c.93.3,1.43.72,1.4,1.17s-.43.6-1.08.63a2.7,2.7,0,0,1-1.08-.2c-.94-.28-1.44-.7-1.41-1.16S172.6,456.49,173.26,456.46Z" transform="translate(0 -73.7)"/><path d="M230.68,478.22c-.73-3.51-3.08-6.05-7.07-7.58-.77-.32-1.25-.79-1.28-1.25s.54-1.08,1.48-1.7a6.93,6.93,0,0,0,3.18-6,8,8,0,0,0-1.47-4.7c-2.59-3.83-7.83-5.3-15.73-4.52-4.58.45-6.88.68-11.47,1.11a31.45,31.45,0,0,0-4.51.74c-3.66.86-5.48,1.88-5.48,3.17a4.48,4.48,0,0,0,1,2.24,15.17,15.17,0,0,1,2.36,3.88,21.77,21.77,0,0,1,.75,5.88,33.18,33.18,0,0,1-1.33,9.2,16.59,16.59,0,0,1-2.42,4.44c-1.4,2-2.12,3.58-2.1,4.82,0,3.14,3.9,4.73,11.59,4.76h11.72c6.66,0,11.88-1.15,15.6-3.57,3.56-2.3,5.36-5.38,5.36-9.06A9.24,9.24,0,0,0,230.68,478.22Zm-25.92-15.13c.76-1.53,2.44-2.39,5-2.61a5.23,5.23,0,0,1,2.67.48,3.37,3.37,0,0,1,2.3,3.1,2.32,2.32,0,0,1-.25,1.05c-.69,1.2-2.13,1.88-4.33,2a9.56,9.56,0,0,1-2.56-.14c-2.07-.47-3.12-1.38-3.12-2.77A2.75,2.75,0,0,1,204.76,463.09Zm10.5,15.74c-.75,1.88-2.57,2.86-5.41,2.95a6.4,6.4,0,0,1-2.41-.34,3.69,3.69,0,0,1-2.74-3.77,4.66,4.66,0,0,1,.51-2.12,5.08,5.08,0,0,1,4.64-2.94,6.23,6.23,0,0,1,3.25.68,4.39,4.39,0,0,1,2.49,4A3.93,3.93,0,0,1,215.26,478.83Zm2.1-22.56a2.8,2.8,0,0,1-1.08-.12c-.92-.21-1.42-.59-1.39-1.08s.41-.73,1.08-.82a3,3,0,0,1,1.08.11c.94.25,1.42.66,1.4,1.15S218,456.19,217.36,456.27Z" transform="translate(0 -73.7)"/><path d="M280.84,482.42a24.07,24.07,0,0,0-3-2.43A16.86,16.86,0,0,1,272,471.7a64.39,64.39,0,0,1-3.11-21.09,4.46,4.46,0,0,0-.07-.86,2.58,2.58,0,0,0-1.46-1.52q-3.24-1.61-9.94-.86a35.62,35.62,0,0,0-4.13.71c-4.43,1-6.63,2.16-6.63,3.49a4.61,4.61,0,0,0,1,2.38,7.78,7.78,0,0,1,1.46,4.12,25.17,25.17,0,0,1-1.65,7.07,80,80,0,0,1-6,13.72c-.22.39-.47.81-.77,1.24a12.07,12.07,0,0,1-4.46,3.65c-.51.24-.88.42-1.09.54a3.89,3.89,0,0,0-1.9,3.56,5.38,5.38,0,0,0,.57,2.55c1,1.9,3.7,2.85,8.16,2.85a21,21,0,0,0,5.47-.59q4.4-1.28,4.39-6.33c0-.27,0-.73,0-1.29s0-1,0-1.29c0-4.54,1.5-6.92,4.44-7.07a4.11,4.11,0,0,1,1.66.22c1.32.46,2,2,2,4.66,0,.68-.06,1.81-.13,3.37-.05,1.18-.06,2-.06,2.45a5.17,5.17,0,0,0,1.08,3.4c1.45,1.63,4.88,2.47,10.32,2.47a30.22,30.22,0,0,0,6.43-.51c3.14-.76,4.72-2.79,4.72-6.09A6.49,6.49,0,0,0,280.84,482.42Zm-24.66-11.65c-1,.07-1.6-.66-1.65-1.93a15.32,15.32,0,0,1,.26-3c.38-2.17,1-3.35,1.72-3.35.9,0,1.55,2,1.59,5.65C258.11,469.7,257.41,470.69,256.18,470.77ZM263.51,451a2.65,2.65,0,0,1-.83,0c-1-.15-1.47-.5-1.46-1s.57-.88,1.52-1a3.94,3.94,0,0,1,.77,0c1,.15,1.49.53,1.46,1.07S264.43,450.92,263.51,451Z" transform="translate(0 -73.7)"/><path d="M327.55,473.06c-.46-4.15-2.34-6.12-5.6-5.94a4.34,4.34,0,0,0-1.34.29,10.75,10.75,0,0,0-3.56,3.35,10.6,10.6,0,0,1-.84,1.15,8.81,8.81,0,0,1-6.74,3.77,4.15,4.15,0,0,1-4-2.52c-1-1.88-1.4-5.86-1.4-11.82a34.94,34.94,0,0,1,.51-7.09,18.4,18.4,0,0,1,1.9-4.58c1.06-1.93,1.62-3.24,1.59-3.84a2.58,2.58,0,0,0-.82-1.72,5.49,5.49,0,0,0-1.89-.95q-6.89.94-13.81,1.28-3.47,1.41-3.47,3.48a5.46,5.46,0,0,0,1,2.53,17.26,17.26,0,0,1,2.36,4.83,30,30,0,0,1,.64,6.43,53.62,53.62,0,0,1-1.48,12.73,25,25,0,0,1-2.48,5.72,13.85,13.85,0,0,0-2.1,6.29c0,4,3.93,6.11,11.65,6.13l20.7,0c2.17,0,4.23-1.78,6.12-5.28a25.28,25.28,0,0,0,3.12-12.17A14.84,14.84,0,0,0,327.55,473.06Z" transform="translate(0 -73.7)"/><path d="M372.74,471.19c-.47-4.51-2.33-6.67-5.61-6.51a4.14,4.14,0,0,0-1.34.3,11,11,0,0,0-3.56,3.63,11.8,11.8,0,0,1-.82,1.22c-1.92,2.64-4.2,4-6.76,4.09a4.18,4.18,0,0,1-3.95-2.81c-.95-2.07-1.4-6.44-1.4-12.94a41.63,41.63,0,0,1,.51-7.75,20.84,20.84,0,0,1,1.91-4.94c1-2.07,1.61-3.48,1.59-4.13a2.92,2.92,0,0,0-.82-1.88q-2.49-2.22-9.17-1.52a26,26,0,0,0-4.33.8c-3.79,1.11-5.68,2.61-5.68,4.53a6.34,6.34,0,0,0,1,2.77,19.79,19.79,0,0,1,2.36,5.31,34.54,34.54,0,0,1,.64,7.05,65.88,65.88,0,0,1-1.46,14,30.19,30.19,0,0,1-2.49,6.32,16.31,16.31,0,0,0-2.1,7c0,4.49,3.92,6.8,11.66,6.84l20.69,0c2.16-.05,4.22-2,6.11-5.79a29.57,29.57,0,0,0,3.12-13.28A20.09,20.09,0,0,0,372.74,471.19Z" transform="translate(0 -73.7)"/><path d="M457.63,479a30.89,30.89,0,0,1-2.67-7.34,111.89,111.89,0,0,1-1.08-15.56,40.4,40.4,0,0,1,.64-7.76,18.09,18.09,0,0,1,1.78-4.74c1.1-2.14,1.69-3.64,1.66-4.42a3.42,3.42,0,0,0-.83-1.92c-1.66-1.7-4.7-2.63-9.11-2.74-5.35-.13-8.69,1.35-10,4.37a38.28,38.28,0,0,0-1.33,3.87c-.3,1-1.18,4.55-2.55,10.6-.82,3.6-1.68,5.49-2.42,5.43s-1.47-2.06-2.48-5.86A117.48,117.48,0,0,0,425,438.71c-1.25-3-4.61-4.56-9.93-4.59a21.4,21.4,0,0,0-4.52.47c-3.66.77-5.48,2.1-5.48,4a9.09,9.09,0,0,0,1.08,3.49,39.07,39.07,0,0,1,2.3,5.79,34.33,34.33,0,0,1,.75,7.44v1.3a81.26,81.26,0,0,1-1.2,14.77,31.93,31.93,0,0,1-2.49,6.77,18.87,18.87,0,0,0-2.1,7.58c0,4.94,3.95,7.51,11.66,7.54,6.47,0,9.82-1.8,9.88-5.26a14.92,14.92,0,0,0-.64-3.52,74.1,74.1,0,0,1-2.43-11.31,98.6,98.6,0,0,1-.7-10.15c0-3,.26-4.58.64-4.63.92-.1,2.45,3.54,4.08,10.61,1.84,8,2.74,14.41,2.74,19a5.68,5.68,0,0,0,.18,1.41,2.72,2.72,0,0,0,2.74,2.28,3.36,3.36,0,0,0,.77-.08c1.45-.41,2.16-1.61,2.16-3.6,0-4.21.8-10.13,2.42-17.63,1.72-7.92,3.26-11.9,4.34-11.83.43,0,.69,1.59.69,4.62,0,1.64-.26,5-.82,10.1a60.7,60.7,0,0,1-1.72,9,34.23,34.23,0,0,0-1.28,5.75c0,3.42,3.38,5.23,9.88,5.25,7.59,0,11.55-2.61,11.59-7.5A16.37,16.37,0,0,0,457.63,479Zm-38.2-39.58a1.83,1.83,0,0,1-1.85-1.23,1.8,1.8,0,0,1,.06-.3c.21-.7.81-1.07,1.79-1.06a2.43,2.43,0,0,1,.56.08c.9.25,1.34.68,1.34,1.29A1.89,1.89,0,0,1,419.43,439.38Zm31.39-.81a1.14,1.14,0,0,1,.07-.3c.21-.71.82-1,1.84-1a3.33,3.33,0,0,1,.57.09c.85.29,1.33.78,1.28,1.33a1.66,1.66,0,0,1-1.85,1.16A2.17,2.17,0,0,1,450.82,438.57Z" transform="translate(0 -73.7)"/><path d="M507.79,465.11A40.6,40.6,0,0,0,501,445.42c-4.29-6.36-9.41-9.81-15.35-10.17a14.11,14.11,0,0,0-3.25.2q-8.28,1.33-13.76,11.06a41.57,41.57,0,0,0-5.29,20.81,32.36,32.36,0,0,0,3.12,14.57c3.75,7.54,10.1,11.28,19.05,11.28,6.62,0,11.92-2.09,15.86-6.14,4.38-4.49,6.56-10.65,6.56-18.57C507.92,467.39,507.88,466.29,507.79,465.11ZM492,467.25c-1,4.38-3.12,6.56-6.43,6.48a5.39,5.39,0,0,1-2.8-.8q-3.94-2.35-3.94-10.79a28.28,28.28,0,0,1,1.65-9.71c1.37-3.77,3.1-5.64,5.09-5.51,1.46.09,2.87,1.33,4.15,3.61a24.77,24.77,0,0,1,2.74,12.05A22.68,22.68,0,0,1,492,467.25Zm.26-25.54a2.39,2.39,0,0,1-1.08-.35c-.94-.5-1.42-1.12-1.4-1.79,0-.52.42-.83,1.09-.82a2.36,2.36,0,0,1,1.08.37c.93.49,1.42,1.12,1.4,1.77S492.9,441.72,492.25,441.71Z" transform="translate(0 -73.7)"/><path d="M565,481.39a22.92,22.92,0,0,1-2.68-6.25,81,81,0,0,1-1.08-13.21,28.64,28.64,0,0,1,.63-6.54,12.48,12.48,0,0,1,1.79-3.84c1.1-1.7,1.68-2.91,1.66-3.56a3,3,0,0,0-.84-1.73c-1.65-1.65-4.68-2.84-9.1-3.45-5.35-.76-8.68.15-10,2.7a26.72,26.72,0,0,0-1.35,3.3c-.3.87-1.17,3.92-2.54,9.21-.82,3.14-1.68,4.78-2.43,4.67s-1.46-1.93-2.48-5.42a111.44,111.44,0,0,0-4.26-13.2c-1.27-2.85-4.6-4.65-9.94-5.2a21.47,21.47,0,0,0-4.53,0c-3.65.38-5.47,1.48-5.47,3.25a8.74,8.74,0,0,0,1.08,3.39,36.37,36.37,0,0,1,2.29,5.63,30.08,30.08,0,0,1,.77,7v1.21A68.91,68.91,0,0,1,515.34,473a28.84,28.84,0,0,1-2.48,6.21,16.54,16.54,0,0,0-2.11,7c0,4.59,4,7,11.66,7,6.47,0,9.84-1.62,9.87-4.7a11.22,11.22,0,0,0-.63-3.15,61.07,61.07,0,0,1-2.43-10.24,81.45,81.45,0,0,1-.69-9.24c0-2.73.25-4.16.64-4.17.94-.06,2.44,3.37,4.07,9.79,1.85,7.29,2.74,13,2.74,17a4.12,4.12,0,0,0,.19,1.25,2.63,2.63,0,0,0,2.74,2,4.88,4.88,0,0,0,.76-.07c1.45-.37,2.16-1.41,2.16-3.14a68,68,0,0,1,2.43-15.41c1.71-6.87,3.23-10.25,4.33-10.12.44.05.69,1.43.69,4.08a82.53,82.53,0,0,1-.82,8.74,45.75,45.75,0,0,1-1.72,7.76,24.86,24.86,0,0,0-1.27,5c0,3,3.37,4.53,9.86,4.55,7.61,0,11.56-2.15,11.6-6.19A12.24,12.24,0,0,0,565,481.39Zm-38.21-37.24a2,2,0,0,1-1.86-1.3,2.08,2.08,0,0,1,.07-.28c.21-.64.81-.9,1.79-.81l.57.13c.89.33,1.33.77,1.33,1.32A1.71,1.71,0,0,1,526.81,444.15ZM560.12,448a2.5,2.5,0,0,1-1.92-1.3,1.24,1.24,0,0,1,.07-.25c.21-.59.82-.81,1.85-.67a4,4,0,0,1,.56.15c.86.34,1.33.82,1.28,1.29S561.1,448.12,560.12,448Z" transform="translate(0 -73.7)"/><path d="M433.46,245.93c-.41-1.43-.85-2.92-1.33-4.42s-.81-3.08-1.21-4.5a151,151,0,0,0-65.76-87.22c-1.56-1-3.12-1.9-4.71-2.81l-1.59-.9c-1.57-.88-3.15-1.71-4.76-2.54s-3.5-1.75-5.28-2.57q-4.92-2.28-10-4.21c-.74-.29-1.47-.57-2.21-.82a151.91,151.91,0,0,0-146.48,24.43c-2,1.64-4,3.35-6,5.09a151.45,151.45,0,0,0-22.7,22.65c-1.68,2.07-3.29,4.19-4.86,6.35-.88,1.2-1.73,2.43-2.57,3.65-1.3,1.9-2.54,3.83-3.74,5.8-.43.68-.83,1.33-1.24,2-.75,1.29-1.5,2.58-2.22,3.89-.53.95-1,1.89-1.54,2.84a151.78,151.78,0,0,0,15.81,165.89,154.15,154.15,0,0,0,15.3,16.38,151.36,151.36,0,0,0,28.29,22.48q2.91,1.8,5.9,3.46A155.32,155.32,0,0,0,227.45,429a151,151,0,0,0,98.36,5.25l3.39-1a150.85,150.85,0,0,0,80.18-55.39A149.19,149.19,0,0,0,419,363.15l1.11-2a151,151,0,0,0,13.34-115.24ZM336.68,140.31q4.5,1.68,8.9,3.65c.34.16.7.3,1,.47a150.8,150.8,0,0,1,13.58,7.07,147.55,147.55,0,0,1,39.71,34A151.11,151.11,0,0,0,361.4,155c-1.51-.85-3-1.66-4.57-2.45-3.18-1.63-6.43-3.16-9.69-4.54-2.59-1.31-5.2-2.52-7.84-3.67a151.09,151.09,0,0,0-83.91-10.53A148,148,0,0,1,336.68,140.31ZM358,160.36c-2.15.35-4.29.66-6.44,1-.93.13-1.9.22-2.1-1.1a6.05,6.05,0,0,1,.85-4C352.89,157.53,355.46,158.9,358,160.36Zm-25.33-4.1c1.82,2.33,3.64,4.67,5.49,7,2.49,3.1,2.6,6.45,1.13,10-.38.89-.74,1.18-1.59.41-2.56-2.26-5.19-4.48-7.76-6.72-1.09-1-2.08-.82-2.71.49a2.63,2.63,0,0,0,.52,2.85c2.4,3.13,4.67,6.34,7.37,9.24a9.42,9.42,0,0,1,2.38,9.19c-.28,1.23-.71,1.17-1.57.52-2.62-2-5.33-3.94-7.92-6-1.17-.92-1.91-.48-2.52.51-.87,1.46.1,2.54,1,3.5,2.44,2.73,4.82,5.52,7.43,8.05a9.64,9.64,0,0,1,3,8.83c-.2,1.53-.58,1.81-2,1.07-2.52-1.35-5-2.76-7.5-4.18-.71-.41-1.36-.95-2.1-.14a2.05,2.05,0,0,0-.38,2.53,4.75,4.75,0,0,0,1.19,1.42c2.5,2.18,5,4.38,7.62,6.38,2.93,2.18,4,5.22,3.72,8.75-.11,1.63-.63,1.91-2.1,1.17-2.58-1.26-5.1-2.55-7.64-3.87-1.29-.68-2.16-.33-2.58,1.09s.48,2.26,1.45,3c2.95,2.25,5.93,4.47,8.91,6.7a8.19,8.19,0,0,1,3.53,6.53c.1,2-.52,2.55-2.38,1.81-2.76-1.11-5.51-2.21-8.24-3.38-1.34-.57-1.94,0-2.27,1.18-.38,1.47.62,2.25,1.63,2.91,3.2,2.18,6.43,4.35,9.73,6.4a8.46,8.46,0,0,1,4.18,6.52c.25,2-.29,2.5-2.3,1.86-2.57-.79-5.11-1.61-7.67-2.43-.76-.25-1.53-.68-2.12.25a2.22,2.22,0,0,0,0,2.58,4.66,4.66,0,0,0,1.84,1.5c2.92,1.55,5.8,3.17,8.77,4.65a8.85,8.85,0,0,1,5.16,6.8c.26,1.71-.14,2.12-1.85,1.72-2.78-.65-5.55-1.36-8.31-2.05-.83-.21-1.63-.35-2.12.53a2.16,2.16,0,0,0,.26,2.7,5,5,0,0,0,1.41,1c3.19,1.53,6.36,3.1,9.62,4.48a8.67,8.67,0,0,1,5.36,5.81c.62,2.07.25,2.53-1.85,2.22-2.48-.36-5-.71-7.46-1-2.19-.29-2.94,1.84-1.36,3.4,2.38,2.32,8,3.13,11.1,4.12,2.86.91,4.37,3,5.15,5.73.43,1.5-.17,2.16-1.76,2-2.55-.26-5.11-.55-7.65-.87-.77-.1-1.54-.23-1.9.65a2.27,2.27,0,0,0,.23,2.58,4.12,4.12,0,0,0,2,1.17c3.29,1,6.58,2,9.87,2.88a7.74,7.74,0,0,1,5.43,5.46c.48,1.5.06,2-1.53,1.94l-7.71-.26c-.81,0-1.65,0-1.91,1a2.19,2.19,0,0,0,.74,2.62,7.38,7.38,0,0,0,2.41.86c2.9.6,5.78,1.29,8.7,1.87a8.23,8.23,0,0,1,6.61,5.77c.61,1.73.33,2.18-1.51,2.27-2.33.13-4.66.22-7,.31-1.64.07-2.19.94-1.62,2.49a2.73,2.73,0,0,0,2.42,1.63,79.68,79.68,0,0,0,8.3,1.17c3.77.23,6.19,2.38,7.67,5.69.54,1.17.19,1.9-1.11,2.05-2.32.27-4.66.58-7,.8-.83.07-1.67-.05-1.84,1a2.32,2.32,0,0,0,1,2.56,3.89,3.89,0,0,0,2,.53c2.67.19,5.34.47,8,.56a8.49,8.49,0,0,1,7.57,4.75c.86,1.52.65,2-1.07,2.33-2.54.43-5.07.87-7.61,1.19-1.4.17-1.73.92-1.49,2.13.3,1.54,1.44,1.94,2.8,2,3.31.13,6.61.35,9.93.37a7.73,7.73,0,0,1,6.35,3.13c1.12,1.45.82,2.44-.91,2.84l-6.67,1.55c-.82.19-1.63.33-1.66,1.4a2.18,2.18,0,0,0,1.47,2.28,8,8,0,0,0,3.2.28c2.8-.05,5.6-.14,8.39-.16A7.74,7.74,0,0,1,401,367c-1.74,2.58-3.57,5.09-5.5,7.56a1.6,1.6,0,0,0-.72.93,146.52,146.52,0,0,1-17.18,18.28,148.55,148.55,0,0,1-149.38,21.42c2.37-1.46,4.78-2.87,7.16-4.32a23.77,23.77,0,0,0,2.28-1.52c1.1-.87,1-2,.4-3.11s-1.45-.54-2.26-.29c-2.18.72-4.33,1.46-6.52,2.14-1.49.44-2.06,0-2.06-1.5a6.82,6.82,0,0,1,3.08-6c1.55-1.07,3.12-2.1,4.68-3.17s3.3-2.26,4.87-3.48c1.21-.92.92-2.14.29-3.24s-1.46-.48-2.24-.15c-2.38,1-4.77,1.94-7.13,2.95-1.26.54-1.89.09-2-1.19-.14-3.07.63-5.79,3.18-7.74.9-.7,1.88-1.32,2.8-2,1.7-1.23,3.43-2.47,5.09-3.76a2.33,2.33,0,0,0,.73-3.31c-.81-1.37-1.8-.7-2.79-.21-2,1-4,1.89-6,2.83-1,.45-1.89.49-2.08-.82-.47-3.4,0-6.55,3-8.75,2.22-1.6,4.22-3.47,6.33-5.23a7.75,7.75,0,0,0,1.51-1.62,2.23,2.23,0,0,0-.38-3c-.82-.85-1.53-.22-2.28.22-1.87,1.09-3.74,2.16-5.66,3.23-1.72,1-2.49.6-2.8-1.4a8.38,8.38,0,0,1,2.74-8.06,88,88,0,0,0,7-6.84,3.44,3.44,0,0,0,1-1.54,2.28,2.28,0,0,0-.89-2.43c-.78-.63-1.37-.11-2,.31-2,1.35-4,2.68-6,4-1.64,1.16-2.62.86-3-1.14a7.39,7.39,0,0,1,1.78-6.83c2.36-2.63,4.68-5.3,7-8a3.86,3.86,0,0,0,1.07-1.92,2.27,2.27,0,0,0-1.05-2.36c-.83-.59-1.46,0-2.11.54-2.15,1.68-4.38,3.28-6.53,5-1,.8-1.45.48-1.79-.59-1-3.17-.86-6.08,1.59-8.61a91.37,91.37,0,0,0,6.19-7.53,3.16,3.16,0,0,0,.79-1.68,2.44,2.44,0,0,0-1.1-2.36c-.9-.6-1.48.12-2.08.62-1.82,1.57-3.65,3.13-5.45,4.72-1.58,1.42-2.81,1.1-3.25-1a8.38,8.38,0,0,1,1.19-6.72c1.38-2,2.71-4.09,4-6.16,1-1.54,2-3.07,2.84-4.68a2,2,0,0,0-.79-2.83c-1-.68-1.67,0-2.36.66-2.08,2.12-4.21,4.18-6.26,6.32-.91.95-1.27.72-1.78-.35-1.47-3.15-1.5-6.18.58-9.08a93.2,93.2,0,0,0,5-8.6,4.84,4.84,0,0,0,.7-1.91,2.27,2.27,0,0,0-1.35-2.37c-1-.5-1.52.26-2.09.95-1.76,2.17-3.57,4.31-5.41,6.41-1,1.17-1.68,1-2.4-.39a8.36,8.36,0,0,1-.17-7.89c1.69-3.43,3.28-6.94,4.9-10.4a4.24,4.24,0,0,0,.54-2.29,2,2,0,0,0-2.38-1.93c-1.18.3-2,2.31-2.67,3.23q-1.71,2.42-3.43,4.82c-1.09,1.52-1.81,1.48-2.75-.17a8.59,8.59,0,0,1-.5-7.9c1.22-3,2.38-5.95,3.57-8.93a15.81,15.81,0,0,0,.73-2.27,2.3,2.3,0,0,0-1.68-2.8c-1.32-.52-1.45.66-1.91,1.38l-4.7,7.37c-.51.82-1,.95-1.67.09-2.41-3-3.3-6.3-1.74-9.91a83.71,83.71,0,0,0,2.85-8.44,6.94,6.94,0,0,0,.52-2.67,2.24,2.24,0,0,0-1.82-2c-1-.28-1.33.58-1.67,1.33-1.27,2.67-2.62,5.33-3.82,8-.59,1.32-1,1.14-1.87.23a10.46,10.46,0,0,1-2.51-10.77c1.09-3.57,1.34-7.31,2-10.95a2.07,2.07,0,0,0-1.76-2.52c-1.4-.4-1.56.65-1.91,1.57-1.14,2.93-2.38,5.84-3.44,8.78-.47,1.35-.94,1.09-1.71.32a9.22,9.22,0,0,1-2.82-8.58c.27-1.58.55-3.15.74-4.73.29-2.62.52-5.23.72-7.86A2.26,2.26,0,0,0,183,207.9c-1.55-.34-1.51.95-1.8,1.91-.87,2.89-1.74,5.8-2.65,8.68-.55,1.78-1.14,2-2.5.81a9.7,9.7,0,0,1-3.69-9.09c.42-3.12.74-6.23,1.13-9.35a3,3,0,0,0-.23-2,2.42,2.42,0,0,0-2.12-1.24c-1,0-1.05.87-1.24,1.6-.65,2.42-1.38,4.82-2,7.26-.53,2.18-1.57,2.6-3.36,1.22a7.49,7.49,0,0,1-.85-.84,143.37,143.37,0,0,1,180.11-53.7,7.44,7.44,0,0,1-1.37,4.71c-.47.69-.83,1-1.57.3-2.13-2-4.32-3.91-6.46-5.87-.55-.51-1.09-1.14-1.93-.62a2.11,2.11,0,0,0-1.07,2.16A4.88,4.88,0,0,0,332.66,156.26Zm-178.5,54.08q3.28-6.33,7.18-12.31a148.64,148.64,0,0,1,25.43-29.72,148.09,148.09,0,0,1,97.66-32.45,151.68,151.68,0,0,0-38.27,5.81l-3.39,1a151.11,151.11,0,0,0-81.49,57.18q-3.65,5.09-6.89,10.47c-.53.89-1,1.79-1.57,2.7C153.25,212.1,153.7,211.21,154.16,210.34Zm6.07,5.47-2.51,1.05c.82-1.48,1.65-3,2.51-4.42.21.26.42.54.63.83C161.68,214.45,161.58,215.26,160.23,215.81ZM141,231.55a150.65,150.65,0,0,0-6.34,28.5c-.43,3.51-.74,7.08-.92,10.61A149.75,149.75,0,0,0,135.82,319,146.51,146.51,0,0,1,141,231.55Zm3.4,91.91A147.27,147.27,0,0,1,154.77,222.6c3.44-.55,6.86-1.14,10.28-1.7a4.86,4.86,0,0,1,5.41,2.35c1.09,1.73.84,2.57-1.1,3.2a68.17,68.17,0,0,0-6.55,2.53c-.7.31-1.51.47-1.34,1.46a2.12,2.12,0,0,0,1.67,1.95,6.51,6.51,0,0,0,1.87,0c2.67-.39,5.32-.83,8-1.25a7.29,7.29,0,0,1,7.62,4.59c.41,1.2.16,1.89-1.19,2.24-2.61.64-5.17,1.45-7.75,2.18-.8.23-1.64.41-1.49,1.51a2,2,0,0,0,1.56,2,6.87,6.87,0,0,0,1.87.1c2.51-.12,5-.31,7.53-.43,4.75-.22,6.13.67,8.05,5,.55,1.22.35,1.95-1.07,2.21-3,.49-6,1-9,1.52-1.35.22-1.85,1-1.36,2.29s1.55,1.42,2.66,1.49c3.41.2,6.84.36,10.26.58a6.7,6.7,0,0,1,6.15,5.12c.36,1.4-.19,2.28-1.61,2.41-2.77.27-5.57.51-8.34.7-.86.06-1.64.13-1.81,1.17a2,2,0,0,0,1,2.2,6.3,6.3,0,0,0,2.49.61c3.18.4,6.35.76,9.52,1.16a5.15,5.15,0,0,1,4.76,4c.57,2.07.07,2.74-2.08,2.81-2.57.06-5.12.12-7.69.26-.59,0-1.35,0-1.51.85a2.09,2.09,0,0,0,.68,2.17,4.69,4.69,0,0,0,2,.8c3.25.64,6.5,1.27,9.74,1.93a5,5,0,0,1,4.08,3.92c.23.94.43,1.89.68,2.84s-.13,1.32-1.13,1.26c-3.07-.19-6.16-.3-9.24-.46-.68-.05-1.43-.27-1.77.57A2.09,2.09,0,0,0,197,293a3.71,3.71,0,0,0,1.94,1.05c2.92.78,5.82,1.69,8.76,2.34a6.56,6.56,0,0,1,5.55,5.94c.3,1.92-.09,2.43-2,2.25-2.8-.29-5.58-.57-8.35-.88-.79-.09-1.5-.17-1.83.78a1.82,1.82,0,0,0,.6,2.3,11.65,11.65,0,0,0,2.31,1.1q4.45,1.51,8.94,3a5.12,5.12,0,0,1,3.9,4.86,21.4,21.4,0,0,0,.27,2.38c.26,1.44-.34,1.49-1.52,1.2-3.22-.8-6.45-1.48-9.68-2.23-.76-.16-1.54-.35-1.93.56a1.85,1.85,0,0,0,.45,2.35,12.49,12.49,0,0,0,2.36,1.36c3.08,1.48,6.2,2.9,9.3,4.37,2.93,1.38,4.17,3.52,3.78,6.4-.17,1.37-.81,1.91-2.21,1.53-3-.83-6-1.61-8.94-2.43-.74-.21-1.49-.34-1.94.5a1.93,1.93,0,0,0,.12,2.38,5.18,5.18,0,0,0,1.7,1.12c3.29,1.62,6.57,3.21,9.82,4.87a5.9,5.9,0,0,1,3.32,6.71c-.22,1.38-.82,1.89-2.23,1.36-3.05-1.1-6.15-2.12-9.21-3.22-1.14-.44-1.73,0-2,1-.45,1.56.59,2.34,1.69,3,2.8,1.66,5.66,3.22,8.46,4.88,4.1,2.43,4.87,4.24,4.21,8.95-.19,1.3-.62,1.48-1.75,1-3.3-1.46-6.63-2.8-9.93-4.26-1.23-.54-1.85,0-2.17,1.06-.39,1.36.46,2.14,1.43,2.82,3.12,2.12,6.27,4.21,9.37,6.36a7.32,7.32,0,0,1,3.11,8.21c-.3,1.06-.83,1.47-1.88.93-3.06-1.53-6.15-3-9.19-4.61-.83-.45-1.57-1.07-2.39-.1a2.1,2.1,0,0,0,0,2.84,8.37,8.37,0,0,0,1.53,1.37c2.92,2.28,5.87,4.54,8.79,6.82a6.06,6.06,0,0,1,2.55,6c-.31,2.13-1,2.49-2.82,1.36-2.45-1.48-4.85-3-7.29-4.52-.81-.49-1.68-1.12-2.6-.15a2.71,2.71,0,0,0-.21,3.62,8,8,0,0,0,1.13,1l8.22,7a5.62,5.62,0,0,1,1.81,6.48c-.7,2.25-1.28,2.43-3.28,1.14-2.69-1.73-5.4-3.45-8.1-5.16-.55-.36-1.14-.94-1.82-.24a2.17,2.17,0,0,0-.75,2.11A147.3,147.3,0,0,1,144.39,323.46Zm90.76,101c-2.19-.68-4.35-1.43-6.51-2.21-1.33-.47-2.63-1-3.95-1.5-1.09-.45-2.21-.89-3.29-1.37s-2.13-1.08-3.19-1.66a148.26,148.26,0,0,1-45.38-37.37A151.14,151.14,0,0,0,211.42,411c1.13.65,2.3,1.27,3.45,1.87,3.49,1.84,7,3.52,10.63,5.07,2.43,1,4.91,2,7.39,2.94,1.22.45,2.46.88,3.7,1.31A150.89,150.89,0,0,0,309,428.24,148.34,148.34,0,0,1,235.15,424.49Zm175-58.91a143.47,143.47,0,0,1-8.5,12.38A148.08,148.08,0,0,1,326.46,430a146.32,146.32,0,0,1-43.94,5.11,152.3,152.3,0,0,0,91.74-33.43c2-1.61,4.05-3.35,6-5.09a151.36,151.36,0,0,0,19.21-18.49c1.63-1.87,3.21-3.77,4.74-5.72l1.05-1.36q2.22-2.89,4.32-5.92,3.74-5.34,7-11C414.58,358,412.46,361.85,410.15,365.58Zm0-13.85c.26-1.15.55-2.31.83-3.46a5.25,5.25,0,0,0,.21-2.36,2,2,0,0,0-1.79-1.62c-1-.18-1.23.58-1.54,1.24-1.42,3.07-2.86,6.12-4.28,9.17-.62,1.33-1.58,1.31-2.66.57a5.91,5.91,0,0,1-2.45-6.43c.46-1.77,1.07-3.5,1.62-5.24.7-2.18,1.44-4.34,2.08-6.53a2.72,2.72,0,0,0-2-3.44c-1.6-.51-1.75.8-2.21,1.73-1.28,2.54-2.55,5.1-3.87,7.64-.81,1.55-1.55,1.63-2.71.34a6,6,0,0,1-1.27-6.67c1.25-3.43,2.57-6.84,3.85-10.28a11.52,11.52,0,0,0,.65-2.47c.14-1.16-.69-1.78-1.66-2.1s-1.24.49-1.63,1.14c-1.73,2.87-3.5,5.76-5.27,8.61-1,1.52-1.54,1.53-2.74.18a7,7,0,0,1-1.59-7.47c.61-1.65,1.42-3.24,2.12-4.85,1-2.26,2-4.49,2.95-6.76a2.18,2.18,0,0,0-.94-3c-1.29-.75-1.63.37-2.18,1.16-1.89,2.71-3.82,5.42-5.76,8.1-.48.66-1.08,1.63-2,.57-2-2.3-3.78-5.48-1.9-9.27.47-.92,1-1.8,1.55-2.66a63.22,63.22,0,0,0,4-7.74,2.11,2.11,0,0,0-.84-2.85c-1.23-.8-1.66.29-2.27,1-1.9,2.35-3.85,4.67-5.77,7-.88,1.07-1.7,1.14-2.65,0a5.91,5.91,0,0,1-.68-7.44c1.52-2.55,3.14-5,4.66-7.6a15.61,15.61,0,0,0,1.82-3.27,2,2,0,0,0-1-2.46c-.83-.51-1.36.14-1.89.7-2.07,2.21-4.16,4.39-6.25,6.59-1.31,1.36-2.07,1.29-3.06-.34-1.34-2.23-1.61-4.46-.06-6.76q3-4.56,6-9.16a9.47,9.47,0,0,0,1-2,2,2,0,0,0-1-2.47c-1-.59-1.41.2-2,.77-2.31,2.29-4.65,4.54-6.95,6.85-.9.91-1.53.83-2-.35-2-4.59-2.4-6.16,1.2-9.87.42-.46.85-.93,1.25-1.42,1.52-1.84,3-3.69,4.54-5.57a2.08,2.08,0,0,0-.27-2.94c-.78-.86-1.53-.18-2.21.39-2.11,1.75-4.42,3.23-6.44,5.11-1.17,1.11-2.07.89-2.84-.51a6.66,6.66,0,0,1,1-7.94c2.17-2.34,4.38-4.65,6.58-7a3.92,3.92,0,0,0,1.25-2.2,2.06,2.06,0,0,0-.86-1.93c-.56-.46-1.05-.22-1.57.13-2.37,1.66-4.77,3.29-7.14,5-1.82,1.3-2.42,1.17-3.14-1a7.2,7.2,0,0,1,1.89-7.88c2.26-2.24,4.7-4.32,7-6.49,1-.89,1.5-1.95.61-3.17s-1.93-.36-2.83.14c-1.94,1.09-3.82,2.26-5.76,3.37s-2.7.71-3.31-1.25a5.2,5.2,0,0,1,1.93-6.08c2.58-2.06,5.18-4.12,7.75-6.21a6.45,6.45,0,0,0,1.4-1.46,2,2,0,0,0-.31-2.54c-.67-.7-1.34-.27-2,0-2.51,1.26-5,2.48-7.52,3.75-1.25.63-2,.33-2.49-1a6.24,6.24,0,0,1,2.17-7.48c2-1.59,4.18-3,6.27-4.47a32.17,32.17,0,0,0,3.14-2.36,2,2,0,0,0,.38-2.78c-.68-1-1.47-.53-2.26-.23-2.76,1.09-5.56,2.11-8.31,3.23-1.27.51-1.77,0-2.08-1.16a7.11,7.11,0,0,1,3.21-8c2.55-1.5,5.2-2.84,7.81-4.27a4.63,4.63,0,0,0,1.74-1.33,2.09,2.09,0,0,0,0-2.43c-.43-.73-1.13-.59-1.82-.37-1.32.39-2.65.75-4,1.12h0c-1.43.4-2.87.79-4.29,1.22-1,.29-1.5,0-1.77-1a6.84,6.84,0,0,1,2.43-7.34,21,21,0,0,1,4-1.94c2-.9,4-1.7,5.95-2.63a2.13,2.13,0,0,0,1.18-2.73c-.39-1.23-1.36-.9-2.29-.77-2.31.37-4.61.8-6.88,1.39-1.72.43-2.63-.35-2.57-2.16a5,5,0,0,1,3.08-4.74c1-.45,2-.85,3-1.27,2.85-1.16,5.72-2.31,8.57-3.52a3,3,0,0,0,1.08-.77A149.78,149.78,0,0,1,384.57,180a147.3,147.3,0,0,1,25.57,171.76Zm21.73-55.89a147.39,147.39,0,0,1-8.44,34.55A151.72,151.72,0,0,0,429.74,302a150.06,150.06,0,0,0-2-49A146.73,146.73,0,0,1,431.87,295.84Z" transform="translate(0 -73.7)"/><path d="M281,149.75h0a144.42,144.42,0,0,0-27.89,4c-1.76.41-3.52.91-5.21,1.4l-1.61.46-1.7.49-2.23.71c-.92.3-1.87.61-2.79.93s-2.09.73-3.09,1.12l-3.52,1.33c-1.63.63-3.26,1.34-4.83,2l-1.67.72c-1.92.9-4.15,1.95-6.35,3l-2.17,1.17c-1.31.7-2.68,1.42-4,2.18l-2.12,1.26c-1.28.76-2.6,1.55-3.88,2.37a35.41,35.41,0,0,0-5.65,4.32l.6.75a64.07,64.07,0,0,1,9.32-4.7c1-.45,2.05-.9,3.06-1.37,1.36-.59,2.76-1.17,4.11-1.73l2.25-.95,6.42-2.51,6.49-2.32L238,163.3c1-.33,2-.67,3-1,3.88-1.19,8.48-2.57,13.23-3.66a212.34,212.34,0,0,1,27-4.79,229.74,229.74,0,0,1,27.61-1.27l.09-1A118.66,118.66,0,0,0,281,149.75Z" transform="translate(0 -73.7)"/><path d="M336.66,317.32c.58,1.24,1.24,2.46,1.87,3.64l.6,1.12.64,1.19.91,1.56c.36.62.73,1.27,1.11,1.89s.88,1.43,1.33,2.11l1.56,2.4c.73,1.11,1.52,2.21,2.28,3.26l.81,1.12c1,1.29,2.12,2.78,3.28,4.23l1.2,1.42c.74.86,1.49,1.76,2.27,2.63l1.28,1.36c.77.83,1.56,1.69,2.38,2.51a27,27,0,0,0,4.15,3.52l.8-1a48,48,0,0,1-4.94-6.11c-.5-.69-1-1.38-1.5-2.05-.66-.91-1.32-1.85-1.95-2.76-.35-.51-.71-1-1.06-1.51l-2.88-4.34-2.75-4.42-1.43-2.41c-.4-.67-.82-1.37-1.19-2.09-1.51-2.68-3.26-5.86-4.83-9.19a161.79,161.79,0,0,1-7.87-19.2,173.68,173.68,0,0,1-5.36-20.2l-1.26.14a90,90,0,0,0,3.08,21.12A109.54,109.54,0,0,0,336.66,317.32Z" transform="translate(0 -73.7)"/></svg>