<svg id="katman_1" data-name="katman 1" xmlns="http://www.w3.org/2000/svg" viewBox="0 0 533.12 566.93"><path d="M16.9,0V267.56L134,399.13l31.3,35.19,106.82,120,11.29,12.63c3.86-4.35,7.75-8.7,11.62-13L401.55,434.32l31.3-35.19L550,267.56V0ZM527,258.79,417.3,382l-32.76,36.77L283.45,532.38,182.32,418.81,149.59,382,39.88,258.79V23H527Z" transform="translate(-16.9 -0.01)"/><path d="M489.58,215.14a3.44,3.44,0,0,0-3.31,2.32c-16.24,23.19-30.15,36.11-39.43,36.11-5.63,0-9.61-4.64-9.61-14.91a64,64,0,0,1,2.66-17.56c20.2-5.3,27.5-19.88,27.5-31.48a21.91,21.91,0,0,0-2.33-9.93c-1.66-3.32-5.63-5.3-10.6-5.3-11.1,0-27.32,10.65-35.09,41.08a4.6,4.6,0,0,0-.68,1.33c-10.6,31.14-17.89,43.4-22.2,43.4-2.31,0-3.65-4.31-3.65-11.93,0-8,1.66-19.88,4.65-33.46a128,128,0,0,0,3.31-27.17c0-20.88-7.62-30.82-17.9-30.82-12.91,0-29.81,17.24-37.1,50.37-2-16.24-8.28-24.52-15.58-24.52-7.61,0-16.23,8.94-21.54,27.17V196.25c0-7-5-10.27-10.26-10.27-5.64,0-11.27,3.64-11.27,9.94V216c-.1.17-.25.23-.33.43-6,15.23-15.24,23.85-26.84,25.17a193.42,193.42,0,0,0,2.66-28.82c0-41.09-17.9-58.31-35.13-58.31-15.9,0-31.14,14.91-31.14,39.42A73.73,73.73,0,0,0,201,219.05c-13.15,34.52-24.33,48.77-29.82,48.77-2.33,0-3.65-2.32-3.65-7,0-5.63,2-14.58,6.29-25.84a64.21,64.21,0,0,0,5-24.19c0-11.93-4.63-19.55-12.25-19.55-10.27,0-25.19,13.25-40.1,48.05l-2-20.55c30.82-34.13,42.08-65.6,42.08-87.13,0-12.27-3.64-21.21-8.95-26.18a19.66,19.66,0,0,0-13.59-5C125.14,100.49,100,124,100,191.61c0,16.57,1.65,36.12,5.3,58.65.66,4.64,5.63,8.95,11.26,8.95,4.65,0,9.94-3,14.25-11.27,15.57-31.81,24.19-44.07,26.84-44.07,1,0,1.32.66,1.32,2.65,0,4.31-2.31,13.59-6.62,25.84-3.64,10.28-5.3,19.55-5.3,27.18,0,14.91,6,23.52,14.58,23.52,11.58,0,28.48-15.76,43.24-53.87a55.55,55.55,0,0,0-1.51,13.45c0,21.21,13.26,34.46,27.17,34.46,10.93,0,22.53-8.28,27.84-28.17,12.57-.48,22.11-7.54,28.82-17.61V245c0,4.64,5,9.61,10.27,9.61,5,0,10.6-4.31,12.6-16.9,5-29.49,10.59-45.06,13.91-45.06,2,0,3,4.64,3,13.58a281,281,0,0,1-2,28.5V236A10,10,0,0,0,335.19,246c5,0,10.27-3.65,11.61-12.59,5.95-40.42,19.87-66.27,27.48-66.27,3.32,0,5.31,4.64,5.31,14.91,0,7.62-1,17.89-3.65,31.48s-4,24.85-4,34.13c0,20.87,6,31.14,14.25,31.14,8.85,0,20.41-11.82,30.54-35.08,1.85,14.77,10,22.16,20.47,22.16,15.57,0,35.79-15.24,56-45.72l.33-1.33A4,4,0,0,0,489.58,215.14Zm-42.41-17.89C451.81,186,455.46,182,457.77,182c1.33,0,2.32,2.32,2.32,5.64a28.62,28.62,0,0,1-3,11.92c-1.65,3.65-9.6,12.27-12.59,12.27-.66,0-1.32-.33-1.32-2C443.2,207.85,444.52,203.87,447.17,197.25ZM122.82,182.34c0-56.33,13.58-73.89,23.86-73.89,4,0,7.28,2.65,9.28,6.29,2,4,3.31,9.61,3.31,16.57,0,18.56-8.62,46.06-35.45,77.2C123.15,198.9,122.82,190.29,122.82,182.34Zm112.65,84.15c-6,0-10.94-7.28-10.94-20.21a71,71,0,0,1,1-11.26c7.3,6.95,16.24,11.92,25.18,13.25C246.73,260.86,240.76,266.49,235.47,266.49Zm17.23-25.18c-20.56-3.31-37.44-29.48-37.44-50,0-10.27,4-18.88,13.91-22.53a13.3,13.3,0,0,1,5-1c10.27,0,20.54,12.59,20.54,45.39A233.87,233.87,0,0,1,252.7,241.31Z" transform="translate(-16.9 -0.01)"/></svg>