<svg id="katman_1" data-name="katman 1" xmlns="http://www.w3.org/2000/svg" viewBox="0 0 565.98 566.93"><path d="M545.18,526.73,403,384.55l-25.49-28,.4-.46,4.7-5.27,2.54-2.84,6.41-7.19v0L451.3,273.7V157.81L556.66,61.7c10.94-10.06,14-24.61,2.62-35.95L540.7,7.18C529.92-3.6,514.84-1.14,504.76,9.82L418,105.23H149L62.17,9.82C52.09-1.14,37-3.6,26.23,7.18l-9,9.05-.48.48-9,9c-11.33,11.34-8.32,25.89,2.62,36l105.38,96.11V273.7l49.7,55.83,14.27,16,4.5,5.06,4.15,4.67,1.13,1.26-25.49,28L21.75,526.73c-6.56-4-11.36-3-16.61,2.19-7.72,7.74-6.11,14.48,6.68,27.27s20.41,13.55,27.25,6.69c5.58-5.58,6.26-10.66,1.41-17.85L183.07,402.42l26-23.73,67.26,75.55,7.12,7.95,7.31-8.22,67-75.28,26,23.73L526.45,545c-4.85,7.19-4.17,12.27,1.41,17.85,6.84,6.86,14.48,6.08,27.24-6.69s14.41-19.53,6.69-27.27C556.56,523.69,551.74,522.76,545.18,526.73Zm-108.36-407V268.17L385.3,326.06a7.68,7.68,0,0,1,1.63-4.55c2.56-3.49,5.18-7,7.74-10.46a11.6,11.6,0,0,0,1.53-2.61c.53-1.28-.2-2.26-1.2-2.94s-1.56.15-2.21.75c-2.94,2.74-5.88,5.43-8.85,8.12-1.56,1.43-2.24,1.26-3.17-.68a8.28,8.28,0,0,1,.63-9c1.23-1.71,2.66-3.24,4-4.88,1.86-2.23,3.77-4.45,5.55-6.73a2.63,2.63,0,0,0-.1-3.72c-1.23-1.26-2-.1-2.86.63-3.07,2.48-6.14,4.95-9.23,7.36-.75.6-1.76,1.53-2.46,0-1.54-3.27-2.54-7.46.85-11.18a35,35,0,0,1,2.64-2.54,71.19,71.19,0,0,0,7.12-7.52,2.47,2.47,0,0,0,0-3.52c-1.16-1.3-2-.22-2.92.43-2.94,2.06-5.93,4.07-8.87,6.13-1.36.93-2.31.76-3-.83a7.06,7.06,0,0,1,1.66-8.72c2.56-2.41,5.2-4.72,7.77-7.14a19.56,19.56,0,0,0,3.16-3.14,2.37,2.37,0,0,0-.4-3.16c-.78-.86-1.58-.28-2.36.2-3.07,1.83-6.18,3.67-9.28,5.48-1.93,1.13-2.79.8-3.39-1.39-.8-3-.38-5.63,2.11-7.74,3.32-2.79,6.59-5.63,9.88-8.49a11.7,11.7,0,0,0,1.83-1.89,2.33,2.33,0,0,0-.32-3.14c-.91-1-1.69-.25-2.52.23-3.36,1.86-6.78,3.67-10.15,5.55-1.33.75-2,.48-2.21-1.06-.76-5.85-.73-7.79,4.57-10.88.63-.38,1.28-.75,1.89-1.2,2.34-1.61,4.67-3.22,7-4.88a2.46,2.46,0,0,0,.68-3.44c-.62-1.24-1.71-.71-2.66-.28-3,1.31-6.11,2.26-9,3.74-1.71.88-2.69.36-3.09-1.53a7.9,7.9,0,0,1,3.69-8.72c3.25-2,6.54-3.87,9.81-5.81a4.59,4.59,0,0,0,2.13-2.11,2.47,2.47,0,0,0-.35-2.49c-.5-.7-1.15-.57-1.83-.35-3.27,1.13-6.54,2.21-9.78,3.37-2.51.9-3.14.55-3.27-2.16a8.6,8.6,0,0,1,4.7-8.37c3.34-1.81,6.79-3.39,10.16-5.1,1.4-.71,2.36-1.74,1.73-3.42-.65-1.84-2.09-1.06-3.27-.78-2.56.63-5.1,1.36-7.66,2s-3.32-.07-3.4-2.51a6.23,6.23,0,0,1,4.2-6.31c3.62-1.51,7.24-3,10.86-4.57a7.55,7.55,0,0,0,2.09-1.21,2.32,2.32,0,0,0,.45-3c-.53-1-1.43-.75-2.31-.6-3.27.63-6.54,1.2-9.81,1.83-1.63.3-2.41-.27-2.49-2-.17-3.7,1.41-6.46,4.91-7.85,2.81-1.13,5.73-2,8.62-3a44.32,44.32,0,0,0,4.35-1.68,2.37,2.37,0,0,0,1.33-3c-.45-1.41-1.51-1.08-2.52-1-3.51.32-7,.58-10.53.95-1.61.18-2-.58-2-2a8.47,8.47,0,0,1,6.29-8.1c3.39-.9,6.86-1.55,10.3-2.33a5.57,5.57,0,0,0,2.44-1,2.52,2.52,0,0,0,.73-2.77c-.25-1-1.11-1-2-1h-4.9c-1.76,0-3.52,0-5.28,0-1.18,0-1.71-.48-1.71-1.73a8.1,8.1,0,0,1,5.18-7.57,24.5,24.5,0,0,1,5.17-.93c2.57-.38,5.13-.65,7.65-1.05a2.54,2.54,0,0,0,2.23-2.77c0-1.51-1.25-1.46-2.34-1.61-2.76-.32-5.53-.6-8.32-.65-2.11,0-2.89-1.26-2.23-3.29a7.41,7.41,0,0,1,.4-1Zm-306.71,0h42.65a8.88,8.88,0,0,1,.35,1c.66,2.31.13,3.19-2.31,3.29a77.46,77.46,0,0,0-8.32.76c-.88.12-1.86.05-2,1.23a2.51,2.51,0,0,0,1.29,2.76,6.73,6.73,0,0,0,2.13.58l9.5,1.18a8.61,8.61,0,0,1,7.22,7.69c.07,1.51-.43,2.22-2.09,2.17-3.19-.1-6.38,0-9.58,0-1,0-2,0-2.18,1.26a2.43,2.43,0,0,0,1.15,2.79,8.93,8.93,0,0,0,2.09.73c2.92.65,5.83,1.28,8.75,2,5.48,1.28,6.76,2.74,7.56,8.32.23,1.58-.25,2.33-1.93,2.16-3.57-.4-7.14-.76-10.71-1.16-1.63-.2-2.46.55-2.31,2.16s1.28,2.14,2.54,2.57c3.84,1.33,7.69,2.64,11.51,4a7.94,7.94,0,0,1,5.38,7.85c-.05,1.73-1,2.53-2.62,2.23-3.26-.6-6.51-1.23-9.77-1.91-1-.2-1.89-.37-2.42.73a2.31,2.31,0,0,0,.38,2.84,7.05,7.05,0,0,0,2.64,1.48c3.49,1.51,7,2.94,10.48,4.43a6.1,6.1,0,0,1,4.12,6.16c0,2.56-.8,3.16-3.29,2.53-2.94-.75-5.88-1.5-8.87-2.21-.68-.15-1.54-.4-2,.5a2.42,2.42,0,0,0,.08,2.69,5.45,5.45,0,0,0,2.06,1.59c3.52,1.76,7,3.57,10.5,5.38a5.81,5.81,0,0,1,3.37,5.78c0,1.15-.12,2.31-.15,3.47s-.55,1.45-1.68,1.08c-3.45-1.23-6.94-2.37-10.38-3.55-.78-.27-1.56-.78-2.22.1a2.43,2.43,0,0,0-.32,2.67,4.27,4.27,0,0,0,1.86,1.83c3.09,1.86,6.11,3.82,9.25,5.53,3.52,1.89,4.85,4.7,4.4,8.57-.28,2.32-.88,2.74-3,1.91-3.09-1.23-6.18-2.46-9.25-3.72-.88-.35-1.66-.68-2.34.3a2.18,2.18,0,0,0,0,2.82,12.94,12.94,0,0,0,2.29,2c3,2.14,6.13,4.22,9.22,6.31a6,6,0,0,1,2.87,6.81,26.34,26.34,0,0,0-.48,2.82c-.15,1.7-.85,1.58-2.11.88-3.42-2-6.89-3.8-10.33-5.71-.8-.43-1.63-.88-2.36,0a2.17,2.17,0,0,0-.28,2.81,14.67,14.67,0,0,0,2.26,2.34c3,2.69,6.14,5.33,9.2,8,2.89,2.51,3.6,5.38,2.24,8.55-.65,1.5-1.56,1.91-3,1-3.11-1.91-6.28-3.74-9.4-5.65-.8-.48-1.61-.88-2.38-.08a2.28,2.28,0,0,0-.66,2.77,6.48,6.48,0,0,0,1.59,1.83c3.21,2.92,6.45,5.78,9.62,8.77a7,7,0,0,1,1.61,8.72c-.7,1.51-1.56,1.86-3,.83-3.12-2.26-6.33-4.42-9.45-6.68-1.18-.88-2-.58-2.67.53-1,1.63-.07,2.89,1,4,2.66,2.79,5.43,5.51,8.07,8.32,3.89,4.1,4.17,6.41,1.88,11.56-.63,1.44-1.18,1.51-2.31.56-3.29-2.72-6.66-5.36-9.93-8.07-1.25-1-2.11-.68-2.84.5-.9,1.41-.17,2.59.73,3.67,2.87,3.44,5.78,6.84,8.62,10.31a8.69,8.69,0,0,1,.88,10.38c-.68,1.1-1.43,1.4-2.46.45-3-2.74-6-5.46-9-8.25-.81-.77-1.46-1.73-2.72-.88a2.52,2.52,0,0,0-.85,3.25,12,12,0,0,0,1.28,2.06c.88,1.2,1.78,2.41,2.66,3.62l-41.24-46.33Zm217,249.23-63.64,71.48-63.67-71.51L199.2,345.76l-5.73-6.46c1.13-.37,2.26-.77,3.37-1.23,1.66-.65,1.73-2.13,1.38-3.59s-1.53-1-2.54-.91c-2.21.26-4.45.48-6.66.76l-3.54-4a9.44,9.44,0,0,1,5.43-5.56c1.25-.5,2.56-.88,3.84-1.33,2.34-.88,4.7-1.71,7-2.66a2.76,2.76,0,0,0,1.91-3.55c-.5-1.83-1.83-1.38-3.14-1.13-2.59.45-5.2.86-7.82,1.26-1.25.2-2.31-.05-2.08-1.61.57-4,2.13-7.47,6.28-9,3.07-1.13,6-2.59,8.92-3.92a8.35,8.35,0,0,0,2.26-1.36,2.6,2.6,0,0,0,.53-3.49c-.65-1.26-1.68-.75-2.66-.5-2.52.62-5,1.25-7.52,1.86-2.28.52-3.06-.13-2.74-2.52.48-3.72,2.21-6.66,5.73-8.29A107.19,107.19,0,0,0,211.62,283a4.3,4.3,0,0,0,1.71-1.43,2.76,2.76,0,0,0-.25-3.07c-.66-.95-1.54-.55-2.37-.27-2.71.88-5.43,1.73-8.12,2.66-2.26.78-3.29.13-3.11-2.28a8.79,8.79,0,0,1,4.27-7.24c3.54-2.24,7.06-4.53,10.61-6.79a4.38,4.38,0,0,0,1.83-1.86,2.69,2.69,0,0,0-.4-3c-.75-.93-1.68-.43-2.59-.05-3,1.21-6.06,2.31-9.07,3.57-1.41.58-1.81.07-1.86-1.26-.13-3.94,1-7.21,4.6-9.3,3.37-2,6.41-4.32,9.55-6.58a4.08,4.08,0,0,0,1.43-1.66,2.94,2.94,0,0,0-.5-3.07c-.81-1-1.71-.35-2.57,0-2.58,1.18-5.17,2.36-7.74,3.6-2.28,1.1-3.57.35-3.39-2.22a10,10,0,0,1,3.54-7.29c2.24-1.86,4.43-3.79,6.61-5.73,1.64-1.43,3.25-2.86,4.78-4.42a2.39,2.39,0,0,0,0-3.47c-.93-1.1-1.91-.6-2.92,0-3.07,1.73-6.18,3.39-9.22,5.17-1.34.81-1.69.43-1.89-1-.68-4.07.3-7.51,3.59-10.18,3.1-2.46,5.68-5.42,8.5-8.16a5.64,5.64,0,0,0,1.41-2,2.68,2.68,0,0,0-.78-3.14c-1-.88-1.81-.18-2.69.43-2.72,1.88-5.48,3.74-8.27,5.55-1.53,1-2.24.63-2.59-1.23a9.88,9.88,0,0,1,2.36-9.05c3-3.39,6-6.86,9-10.28a5.08,5.08,0,0,0,1.38-2.46,2.42,2.42,0,0,0-2.11-3c-1.44,0-3,2-4.07,2.82-1.84,1.45-3.67,2.94-5.51,4.4s-2.54,1.1-3.09-1.11a10.24,10.24,0,0,1,2-9.17c2.34-3,4.65-6,7-9a15.79,15.79,0,0,0,1.56-2.36,2.7,2.7,0,0,0-1-3.75c-1.33-1-1.88.28-2.64,1-2.59,2.29-5.18,4.58-7.74,6.87-.85.78-1.43.75-1.94-.43-1.78-4.22-1.73-8.27,1.24-11.89a102.56,102.56,0,0,0,6-8.72,7.44,7.44,0,0,0,1.46-2.87,2.66,2.66,0,0,0-1.41-2.91c-1.11-.66-1.69.25-2.34,1-2.31,2.66-4.72,5.23-7,7.94-1.08,1.31-1.53,1-2.18-.35a12.43,12.43,0,0,1,.63-13.12c2.38-3.72,3.89-7.89,5.83-11.84a2.48,2.48,0,0,0-1.21-3.44c-1.46-.93-2,.22-2.69,1.15-2.26,3-4.6,5.88-6.79,8.93-1,1.35-1.4.93-2.06-.21a11,11,0,0,1-.42-10.7c.8-1.66,1.6-3.3,2.31-5H373.16c.65,1.53,1.33,3,2.11,4.52a11.28,11.28,0,0,1-.28,11.29c-.73,1.3-1.18,1.08-1.93,0-2.37-3.15-4.83-6.21-7.12-9.4-1-1.41-2-1.19-3-.23-1.46,1.38-.7,2.91,0,4.32,1.91,3.9,3.7,7.84,5.88,11.59a11.59,11.59,0,0,1,.61,11.08c-.73,1.66-1.29,1.86-2.62.56-2.44-2.37-4.82-4.75-7.19-7.19-.67-.71-1.25-1.54-2.36-.86a2.44,2.44,0,0,0-1.26,2.77,6.52,6.52,0,0,0,.88,2c2.17,3.29,4.28,6.61,6.64,9.75,2.64,3.47,2.81,7.24,1.41,11.21-.66,1.81-1.34,2-2.79.65-2.52-2.26-5-4.57-7.47-6.91-1.23-1.18-2.34-1.08-3.29.4s-.18,2.74.7,3.9c2.62,3.54,5.31,7,8,10.53a9.79,9.79,0,0,1,1.94,8.62c-.56,2.34-1.46,2.74-3.32,1.28-2.79-2.16-5.58-4.32-8.32-6.53-1.33-1.08-2.21-.63-3,.6-.93,1.56,0,2.79.91,3.87,3,3.52,5.93,7,9,10.46a10,10,0,0,1,2.67,8.8c-.38,2.41-1.14,2.76-3.25,1.38-2.66-1.74-5.3-3.49-7.94-5.28-.8-.53-1.56-1.28-2.51-.4a2.69,2.69,0,0,0-.81,3,5.93,5.93,0,0,0,1.61,2.32c2.84,2.71,5.61,5.5,8.52,8.17a10.48,10.48,0,0,1,3.67,9.42c-.25,2-.85,2.36-2.66,1.36-3-1.64-5.91-3.34-8.82-5-.86-.5-1.74-.95-2.62-.1a2.58,2.58,0,0,0-.55,3.17,5.93,5.93,0,0,0,1.28,1.56c3.17,2.76,6.26,5.6,9.55,8.24a10.3,10.3,0,0,1,4.22,8.37c0,2.56-.55,3-2.84,1.94-2.74-1.21-5.45-2.42-8.19-3.62-2.39-1-3.95,1.15-2.64,3.44,1.94,3.42,8.14,6.18,11.34,8.32,2.94,2,4,4.85,4,8.19,0,1.86-.88,2.44-2.66,1.74-2.82-1.13-5.63-2.29-8.45-3.47-.85-.35-1.68-.76-2.38.12a2.63,2.63,0,0,0-.58,3,5,5,0,0,0,2,2c3.44,2.18,6.86,4.37,10.33,6.51a9.12,9.12,0,0,1,4.42,8c.05,1.86-.58,2.29-2.39,1.73-2.89-.95-5.78-1.91-8.69-2.81-.93-.3-1.89-.58-2.52.5s-.88,2.19,0,3.22a8,8,0,0,0,2.47,1.76c3.11,1.66,6.18,3.39,9.32,5a9.76,9.76,0,0,1,5.68,8.75c.13,2.16-.35,2.59-2.46,2.11-2.71-.63-5.4-1.31-8.12-1.93-1.88-.46-2.79.35-2.64,2.28a3.19,3.19,0,0,0,2.21,2.67c3,1.38,6,3,9.1,4,4.25,1.49,6.31,4.73,6.94,9,.2,1.51-.43,2.21-2,2-2.74-.42-5.51-.85-8.22-1.35-1-.18-1.88-.61-2.44.6a2.79,2.79,0,0,0,.28,3.24,4.69,4.69,0,0,0,2.08,1.23c3,1.08,6,2.29,9,3.25a10.1,10.1,0,0,1,7.11,7.89,5.51,5.51,0,0,1,.18,1.1l-1.11,1.23a4.72,4.72,0,0,1-1.05,0c-3.05-.33-6.06-.65-9.08-1.11-1.66-.27-2.29.48-2.39,1.94-.15,1.83,1,2.66,2.54,3.19l4.95,1.66-4.92,5.53Z" transform="translate(-0.47 -0.23)"/></svg>