<svg id="katman_1" data-name="katman 1" xmlns="http://www.w3.org/2000/svg" viewBox="0 0 541.52 566.93"><path d="M509.25,61.7c-1.42,4.32.23,6.85,4.71,7,5.89.15,11.72.7,17.57,1.42,2.33.29,4.9.17,5,3.39a5.32,5.32,0,0,1-4.71,5.81c-5.35.89-10.78,1.46-16.16,2.28-3.67.55-7.44.54-11,1.93a17.13,17.13,0,0,0-10.92,16c0,2.64,1.11,3.66,3.59,3.63,3.73,0,7.46,0,11.19,0v0c3.44,0,6.89,0,10.33,0,1.82,0,3.61.12,4.15,2.2s.39,4.28-1.55,5.86a11.62,11.62,0,0,1-5.15,2c-7.27,1.66-14.59,3-21.79,5a17.85,17.85,0,0,0-13.25,17.1c-.05,3,.82,4.59,4.23,4.22,7.41-.79,14.84-1.36,22.27-2,2.14-.2,4.37-.86,5.29,2.08a5,5,0,0,1-2.8,6.43,84.57,84.57,0,0,1-9.2,3.57c-6.07,2.18-12.25,4.05-18.22,6.45-7.37,2.93-10.75,8.76-10.37,16.58.18,3.6,1.83,4.84,5.3,4.17,6.9-1.33,13.8-2.56,20.7-3.84,1.84-.34,3.79-.93,4.91,1.27a4.92,4.92,0,0,1-1,6.3,15.11,15.11,0,0,1-4.42,2.57c-7.63,3.28-15.29,6.48-22.95,9.67-6,2.53-9,7-8.85,13.32.15,5.18,2.06,6.64,7.15,5.34,5.42-1.38,10.79-2.9,16.23-4.2,2.49-.6,5.51-2.25,6.92,1.61,1.28,3.55-.72,5.75-3.66,7.24-7.15,3.62-14.45,7-21.48,10.8-6.87,3.75-10.29,9.8-9.94,17.7.25,5.73,1.59,6.48,6.88,4.57,6.88-2.45,13.79-4.75,20.7-7.13,1.44-.5,2.82-.73,3.86.74a5.19,5.19,0,0,1,.74,5.27c-.9,2.09-2.64,3.32-4.53,4.43-6.9,4.09-13.83,8.11-20.68,12.31a16.67,16.67,0,0,0-7.82,18.46c.86,3.93,2.91,5.05,6.51,3.21,6.12-3.16,12.73-5.16,19-7.92,2-.9,4.3-2,5.65.57s1.31,5.35-1.41,7.29c-4.9,3.5-9.84,6.92-14.8,10.34-1.28.91-2.63,1.74-4,2.53-11.23,6.51-11.27,10.6-9.65,23,.42,3.24,1.87,3.82,4.66,2.26,7.13-4,14.35-7.81,21.47-11.78,1.77-1,3.42-2.54,5.32-.48s2.28,4.37.66,6.67a23.55,23.55,0,0,1-3.87,4c-6.92,6-13.84,12-20.84,18-5.28,4.46-6.22,10.06-4.48,16.37,1.28,4.6,3.06,5.29,7.16,2.89,6.56-3.84,13.11-7.68,19.63-11.58,1.66-1,3.34-2.21,5-.41s2.45,4.2.84,6.67c-1.76,2.69-4.4,4.49-6.68,6.64-5.43,5.1-11,10-16.47,15.12s-6.61,11.58-3.48,18.42c1.54,3.34,3.57,3.73,6.43,1.74,6.23-4.34,12.52-8.61,18.74-12.95,2-1.38,3.75-3.69,6.2-.93a5.28,5.28,0,0,1,.05,7.45,155.94,155.94,0,0,1-15,15.91,70.68,70.68,0,0,0-5.57,5.38c-7.18,7.85-5.06,16.73-1.82,23.66,1.49,3.2,3.6,1.27,5.21,0,6.54-5.11,13-10.32,19.48-15.57,1.85-1.53,3.45-4,6.06-1.32,2.4,2.46,2.17,5.31.22,7.83-3.8,4.85-7.82,9.52-11.75,14.27-2.82,3.42-5.85,6.7-8.45,10.28-4.38,6-4.54,12.47-1.34,19.1,2,4.08,3.44,4.44,6.73,1.46q9.39-8.53,18.66-17.18c1.4-1.3,2.66-3,4.71-1.6s3.68,3.48,2.56,6.22a28.13,28.13,0,0,1-3.26,5.51c-5.41,7.41-11,14.71-16.37,22.12-3.87,5.31-4.56,11-1.53,17,2,3.89,3.79,4.24,6.8,1,4.93-5.19,9.74-10.49,14.59-15.77,1.76-1.92,3-5,6.51-2.65s4.66,6.17,2.47,9.67c-3,4.85-6.35,9.54-9.51,14.31-2.52,3.83-5.14,7.61-7.48,11.55a14.78,14.78,0,0,0,1.47,17.23c2.11,2.5,4.38,3.22,6.8.42q8.34-9.55,16.62-19.15c1.22-1.42,2.35-3.09,4.62-2a5,5,0,0,1,3.18,5.12,13.09,13.09,0,0,1-2.13,5.57l-4.4,7.75L507.76,567a20,20,0,0,0-5.69-2.54c-6.76-1.89-13.57-3.57-20.36-5.41-2.61-.69-5.35-1.14-7.59-2.85a5.54,5.54,0,0,1-1.94-6.54c.79-2.53,2.88-2.33,5-2.22,5.71.32,11.45.57,17.18.85,4.46.21,5.85-2,4.14-6.23a19.3,19.3,0,0,0-13.19-11.91c-8-2.35-15.8-5.14-23.69-7.75-3.25-1.08-5.71-2.83-5.4-6.74.25-3,1.57-4.65,5.05-4.11,6.37.95,12.79,1.67,19.2,2.36,4.37.45,5.2-.6,4.19-4.87-2-8.31-6.67-14-15-16.7-6.4-2.05-12.66-4.56-19-6.86a9.94,9.94,0,0,1-4.38-2.63c-1.84-2.12-1.71-4.48-.61-6.85s3.13-1.65,5.16-1.27c5.76,1.08,11.58,2,17.39,2.9,3.26.52,4.57-1,4.12-4.17-1.33-9.05-5.69-15.88-14.64-19-6.66-2.33-12.85-5.65-19.23-8.56-2.42-1.11-4.44-2.63-4.67-5.63-.33-4.12,1.59-5.82,5.58-4.87,5.7,1.36,11.41,2.8,17.14,4.1,4.46,1,5.45.11,5.19-4.45-.47-8.45-4.34-14.62-12-18.5-6.63-3.37-13.14-7-19.72-10.51a16.67,16.67,0,0,1-5.21-3.73c-1.85-2.19-1.33-4.53,0-6.8s3.38-1.71,5.32-1.1c6.14,2,12.25,4,18.4,6,3.8,1.21,5.16.3,5-3.64-.26-7.17-3-13-9.33-16.91-7.31-4.5-14.55-9.15-21.82-13.76a10.66,10.66,0,0,1-4.15-4.22c-1.17-2.42-.26-4.51,1.2-6.37s3.26-1,5.06-.27c5.92,2.51,11.87,5,17.87,7.35,3.74,1.48,5.64.28,5.63-3.64,0-7.09-2.24-13.17-8.48-17.36-6.76-4.5-19.84-10.35-23.95-17.56-2.77-4.84.52-9.47,5.6-7.28q8.66,3.76,17.28,7.65c4.87,2.18,6.05,1.31,6-4.11-.06-7.42-3.17-13.06-8.93-17.7C428.53,297,422,291,415.28,285.15a11.46,11.46,0,0,1-2.72-3.3,5.39,5.39,0,0,1,1.2-6.68c1.81-1.8,3.67-.87,5.48.19,6.2,3.56,12.4,7.18,18.66,10.66,3.83,2.13,5.14,1.43,5.65-2.87,1-8-1.85-14.52-7.78-20-6.14-5.6-12-11.49-18-17.27a11.84,11.84,0,0,1-3.43-4.88,5.65,5.65,0,0,1,1.69-6.26c2-1.84,3.62-.28,5.3.86q8.4,5.64,16.84,11.17c4.43,2.9,6,2.15,6.81-2.95a21.15,21.15,0,0,0-5.59-18.6c-6.55-7.21-12.84-14.65-19.11-22.11-1.94-2.3-3.84-4.87-1.9-8.15,1.58-2.64,3.45-3.61,6.27-1.31,5.78,4.71,11.67,9.27,17.58,13.82,4,3.07,5.85,2.25,7-2.72a20.7,20.7,0,0,0-4.06-18.21q-8.49-11.07-16.88-22.27c-1.82-2.44-3.49-5-1.44-8.23s4.33-3.33,7-.83q7.8,7.37,15.76,14.59c3.09,2.79,4.52,2.46,5.89-1.4,3-8.35,2.59-16.37-2.95-23.66-5-6.64-9.46-13.68-14-20.62a13,13,0,0,1-1.9-4.29,5.14,5.14,0,0,1,2.66-5.82c2.35-1.44,3.57.33,5,1.8q7.5,7.7,15.2,15.21c2.83,2.75,4,2.35,5.51-1.18,3.48-8,3.24-15.62-1.27-23.42s-8.41-16.29-12.4-24.53c-1.42-2.94-3-6.2.08-9.1,2.15-2,4.24-2.53,6.42.47,4.87,6.73,10.08,13.22,15,19.89,1.6,2.16,2.57,2.63,4.12-.15,4.43-7.91,4.68-15.92.58-23.85-4.56-8.82-7.85-18.12-11.45-27.31-1-2.61-1.19-5.05.72-7.26,2.4-2.73,4.89-2.4,6.87.66,4.67,7.21,9.48,14.33,14.09,21.58,1.53,2.42,2.61,2,4.12.11,6-7.53,8-15.69,4.17-24.88-2.88-6.86-5.69-13.76-8.48-20.67-.87-2.12-1.74-4.27-1.38-6.66a5.28,5.28,0,0,1,4.1-4.49c2.36-.67,3.23,1.19,4.22,2.8,3.83,6.21,7.75,12.37,11.52,18.61,1.31,2.19,2.4,1.7,4,.37a19,19,0,0,0,6.58-10.44L530.2,23.48a15.09,15.09,0,0,0-4.79,9.08c-.41,3.33,2,3.76,4.29,4.08q8.1,1.13,16.21,2.12l8.32,8.91a7.18,7.18,0,0,1-3.15,1.09c-7.67,1-15.38,1.74-23.07,2.62-2.69.31-5.41.6-8.1,1C514.32,53.13,511,56.51,509.25,61.7Z" transform="translate(-12.7 -0.09)"/><path d="M114.7,319.81c-.37,5.41,2.35,7,7.19,4.69,5.41-2.61,10.88-5.1,16.35-7.63,1.8-.82,3.71-2.18,5.45-.09a6.16,6.16,0,0,1,1.06,6.47,8.12,8.12,0,0,1-3.06,3.51c-6.61,4.79-13.07,9.81-20.17,13.92-7.6,4.41-10,11.34-9.72,19.65.1,2.85,1,3.92,3.93,2.66,6.35-2.63,12.81-5,19.17-7.54,1.92-.79,3.87-1.86,5.47.13a5.75,5.75,0,0,1,.88,6.45,9.67,9.67,0,0,1-3.89,3.9c-7.49,4.8-14.94,9.64-22.46,14.36a18.59,18.59,0,0,0-9,15.3c-.37,5.1,1.8,6.5,6.58,4.85,5.69-2,11.42-3.77,17.14-5.66,1.78-.58,3.62-1.43,5,.62s1.81,4.19.49,6.46a8.73,8.73,0,0,1-3.56,3,227.84,227.84,0,0,1-21.49,11.74c-7.44,3.48-11.09,9.7-12.13,17.56-.66,5,1,6.42,5.82,5.3,5.29-1.24,10.57-2.58,15.85-3.94,2.09-.52,4.25-1.56,5.66,1.06s1.24,5.36-1.14,7.41a18.92,18.92,0,0,1-4.78,2.85c-6.26,2.81-12.39,5.94-18.87,8.31-8.74,3.22-12.06,10.5-13.26,19-.47,3.29,1.72,3.83,4.4,3.41,5.51-.88,11-1.71,16.55-2.69,2.75-.48,5.56-1.45,6.6,2.43s-.73,6.17-4,7.5c-4.91,2-9.9,3.76-14.87,5.58-2.69,1-5.45,1.79-8.11,2.86-7.51,3-11.23,9-13,16.5-.73,3.13.48,4.64,3.88,4.22,6.4-.81,12.82-1.47,19.22-2.21,2.12-.25,4.58-1.11,5.33,1.91s.61,6.22-2.91,7.62c-4.65,1.86-9.42,3.44-14.17,5.06-4.46,1.52-9,2.91-13.47,4.4-6.07,2-9.8,6.28-11.54,12.32-1.05,3.71,0,5.1,3.95,5,5.73-.14,11.48-.41,17.2-.65,2.12-.07,4.6-.74,5.25,2.25s.16,5.85-3.1,7.2A53.07,53.07,0,0,1,77.89,559c-6.74,1.86-13.53,3.58-20.25,5.47L12.75,522.29c0-2.12,1.49-3.52,3.3-4.56,2.11-1.24,3.12.58,4.21,1.83q8,9,16,18c4,4.49,5.48,4.41,8.73-.52,3.69-5.6,3.86-11.23.07-16.87Q37.52,509,30,497.68a22,22,0,0,1-2-3.29,6.77,6.77,0,0,1,3-8.57c2.91-1.72,4.54.4,6.18,2.18,4.86,5.27,9.62,10.62,14.49,15.9,3.66,4,5.53,3.59,7.74-1.38,2.59-5.8,1.67-11.19-2-16.2-5.51-7.5-11-15-16.55-22.51a21.13,21.13,0,0,1-2.73-4.35c-1-2.62-.72-5.16,1.81-6.88s4,.24,5.75,1.88c6.24,5.9,12.65,11.65,19,17.46,2.18,2,3.73,1.36,5.16-1,4.27-6.92,3.7-15.21-1.86-22-6-7.31-12.15-14.5-18.2-21.77-1.9-2.28-3.44-4.77-1.55-7.78,1.53-2.46,3.38-3.23,6-1.05,6.95,5.76,14,11.32,21,17.08,2.4,2,3.57,1.87,4.9-1.17,4.85-10.93,4.24-15.78-4-24.45-5.6-5.94-11.43-11.67-17.05-17.61-2.21-2.34-4.19-5-2.06-8.42,1.45-2.36,3.14-3,5.64-1.14,6.61,4.79,13.38,9.36,20,14.14,3.06,2.21,4.85,1.42,6.33-1.77,3.19-6.87,2.21-13.16-3.41-18.44C78.84,370.3,72,364.22,65.17,358.08a13.3,13.3,0,0,1-3.34-3.89c-1.11-2.33-.2-4.21,1.38-5.84s3.33-.87,5,.16c6.61,4,13.28,7.93,19.88,12,3.1,1.9,5,1,6.39-2.14,2.89-6.68,1.39-12.74-4.71-18.07-6.48-5.66-13-11.23-19.49-16.91a32.22,32.22,0,0,1-4.76-4.94c-1.43-2-.9-4.15.57-5.95s3.31-1,5,0c7.29,4,14.63,7.9,21.84,12,2.64,1.54,4.16,1.78,4.49-1.86a50.24,50.24,0,0,1,1-5.93c1.32-6.2-.82-10.91-6-14.41-6.55-4.38-13.08-8.83-19.53-13.35a26.59,26.59,0,0,1-4.82-4.22c-1.61-1.86-1.23-4,.13-5.94s3.09-1.4,4.93-.64q9.74,4,19.53,7.83c4.52,1.79,5.8.85,6.38-4,1-8.19-1.84-14.13-9.27-18.13-6.67-3.6-13-7.77-19.55-11.69a9.26,9.26,0,0,1-4-3.84,5.25,5.25,0,0,1,.69-5.68c1.37-1.81,3-.76,4.66-.19,7.31,2.52,14.68,4.9,22,7.47,2.38.84,3.51.37,3.57-2.28,0-2.42.23-4.87.31-7.31A12.39,12.39,0,0,0,90.31,228q-11.06-5.75-22.19-11.36a11.6,11.6,0,0,1-4.37-3.35c-1.37-1.88-1.07-3.83-.13-5.7s2.76-1.36,4.2-1c6.27,1.46,12.5,3.09,18.74,4.67,5.25,1.31,6.92,0,7-5.36,0-6.27-2.77-10.49-8.7-13-7.39-3.13-14.8-6.19-22.19-9.34-2-.85-4-1.58-5.58-3.18a4.93,4.93,0,0,1-.81-6c1.14-2.39,3.05-2,5.15-1.58Q71.69,175,82,176.86c3.46.64,5.41-1.08,5.53-4.71a16.79,16.79,0,0,0-11.35-16.6c-8.09-2.88-16.25-5.61-24.36-8.45-2.63-.92-5.11-2.1-5.38-5.42s1.46-5,4.88-4.58c7.55.88,15.11,1.59,22.64,2.44,3.58.4,4.57-1.21,4.09-4.56-1.67-11.79-4.37-14.86-16-17.59-6.14-1.45-12.31-2.74-18.45-4.16a18.81,18.81,0,0,1-4.45-1.5c-2.34-1.26-2.8-3.5-2.41-5.94.43-2.73,2.56-2.63,4.62-2.63,6.74,0,13.5-.18,20.23,0,3.52.11,4.6-1.37,4.41-4.59-.45-7.89-7.38-15.31-15.25-16.26-6.7-.8-13.38-1.61-20.06-2.48a15.06,15.06,0,0,1-4.54-1.23c-2.31-1.16-3-3.38-2.72-5.81s2.37-2.37,4.23-2.62a171.76,171.76,0,0,1,17.56-1.62c5.15-.17,6.31-2,4.87-6.94-1.66-5.77-5.54-8.79-11.43-9.44-8.66-1-17.33-1.91-26-2.94l11.07-11.8,6.76-.81c3.62-.43,4.44-2.33,3.27-5.72-.29-.87-.61-1.67-.95-2.43L45.05,17.4A15.9,15.9,0,0,0,46.54,20c3.35,4.6,6.14,4.3,8.92-.61C58.57,13.93,62,8.61,65.21,3.2c1-1.6,1.74-3.63,4.08-3a6,6,0,0,1,4.26,4.46c.49,1.78-.12,3.37-.81,5-3,7.25-6,14.57-9.17,21.77-3.78,8.72-2.33,16.82,2.7,24.5,2.45,3.74,4,3.67,6.6-.24C77,49.35,81.11,42.93,85.2,36.54c1.35-2.11,2.17-5.25,5.68-3.37a5.75,5.75,0,0,1,2.88,7.67c-2.3,6.18-4.65,12.34-7.15,18.44-1.53,3.7-3.29,7.31-5,10.92-3.7,7.72-3.29,15.22.87,22.64,1.36,2.39,2.28,3.32,4.39.41,4.58-6.41,9.56-12.52,14.3-18.82,1.49-2,2.62-4.44,5.73-2.49,2.8,1.74,4,4.21,2.52,7.31-4.08,8.35-7.25,17.17-12.33,25-5.8,9-6.11,18.17-1.33,27.72,1.4,2.81,2.34,3.51,4.65.75,4.78-5.72,9.86-11.19,14.77-16.79,1.34-1.55,2.59-3.45,4.94-2.08a5.64,5.64,0,0,1,3,6.16c-.39,2.37-1.89,4.2-3.1,6.08-4.06,6.25-7.88,12.62-12.63,18.43-6.26,7.61-6.39,16.2-2.61,25.1,1.09,2.55,2.27,2.56,4.08.94,5.46-4.86,10.93-9.68,16.38-14.54,1.61-1.44,2.75-4.18,5.6-2s3.73,4.74,2.08,7.91a34.65,34.65,0,0,1-3.34,5c-4.87,6.39-9.74,12.77-14.69,19.09a21.6,21.6,0,0,0-4.26,19.42c1.14,4.63,2.85,5.22,6.52,2.31,3.89-3.09,7.75-6.19,11.63-9.29,2.18-1.77,5.6-6.05,8.63-6,3.29.1,4.88,3.34,4.44,6.28a10.64,10.64,0,0,1-2.92,5.18c-6.29,7.25-12.51,14.58-18.92,21.73-5,5.58-6.48,12-5,19.15.78,4,2.25,4.73,5.51,2.61q8.85-5.73,17.48-11.76c1.85-1.29,3.59-2.76,5.7-.88a5.7,5.7,0,0,1,1.62,6.66,11.74,11.74,0,0,1-3,4.15c-5.91,5.83-11.41,12.11-17.92,17.31-7,5.6-9,12.89-7.64,21.51.46,3,1.21,3.75,4,2.08,6.42-3.79,13-7.28,19.48-11,2.12-1.2,4.18-2.28,6.14.06s2.19,5.1,0,7.37c-3.22,3.26-6.66,6.3-10.08,9.34-4.62,4.09-9.25,8.16-14,12.11A21.13,21.13,0,0,0,114.7,319.81Z" transform="translate(-12.7 -0.09)"/></svg>