<svg id="katman_1" data-name="katman 1" xmlns="http://www.w3.org/2000/svg" viewBox="0 0 566.93 327.32"><path d="M435.46,131.42c1.51-3.31.64-7-2.83-8.38l-2.91-1.19-.15-.06-2.91-1.19c-3.63-1.48-6.64.58-7.88,4l-41.6,116.92-8.39,20.55-8.4-20.55-41.6-116.92c-1.24-3.43-4.25-5.49-7.88-4L308,121.79l-.15.06L304.94,123c-3.47,1.42-4.34,5.07-2.83,8.38l52.42,112.75,10.78,26.41-6.85,16.77c-2.09-.41-3.18.23-3.91,2-.9,2.2,0,3.85,4.11,5.53s5.79,1.4,6.8-1.08a2.9,2.9,0,0,0-1.08-4l4.41-10.78,4.4,10.78a2.9,2.9,0,0,0-1.08,4c1,2.48,2.7,2.76,6.8,1.08s5-3.33,4.11-5.53c-.73-1.79-1.82-2.43-3.91-2l-6.85-16.77L383,244.17Z" transform="translate(0 -120.11)"/><polygon points="56.23 29.48 56.23 0.38 0 0.38 0 29.48 11.17 29.48 11.17 146.89 0 146.89 0 176 119.52 176 119.52 126.95 85.62 126.95 85.62 146.89 45.06 146.89 45.06 29.48 56.23 29.48"/><polygon points="566.93 49.4 566.93 0.38 447.41 0.38 447.41 29.48 458.58 29.48 458.58 146.89 447.41 146.89 447.41 176 566.93 176 566.93 126.95 533.03 126.95 533.03 146.89 492.47 146.89 492.47 102.61 522.52 102.61 522.52 73.5 492.47 73.5 492.47 29.22 533.03 29.22 533.03 49.19 566.93 49.4"/><path d="M187.28,404.52a37.62,37.62,0,0,0,8.9-7.2,46.91,46.91,0,0,0,6.58-9.22,45.08,45.08,0,0,0,4.05-10.16A35.42,35.42,0,0,0,208,367.87a24,24,0,0,0-1.88-8.89,16.26,16.26,0,0,0-5.22-6.68A34.25,34.25,0,0,0,204.6,348a22.39,22.39,0,0,0,2.54-4.66,17.29,17.29,0,0,0,1.13-4.94,14.25,14.25,0,0,0-.57-5.08,12.27,12.27,0,0,0-3.86-6,23.72,23.72,0,0,0-6.87-4,26.4,26.4,0,0,1,6.17-4,16,16,0,0,1,6.63-1.41v-4.43a34.32,34.32,0,0,0-11.71,2,44.91,44.91,0,0,0-10.5,5.46,53.56,53.56,0,0,0-8.23-.52,66.2,66.2,0,0,0-8.61.66,80.43,80.43,0,0,0-8.56,1.69,59.92,59.92,0,0,0-8.09,2.68,48.26,48.26,0,0,0-12.1,7,33.88,33.88,0,0,0-7.48,8.18,19.26,19.26,0,0,0-3,8.38,14,14,0,0,0,1.23,7.48,12.91,12.91,0,0,0,5.17,5.5,19.66,19.66,0,0,0,8.94,2.54l3.2-3.95a5,5,0,0,1-3.15-2.4,7.79,7.79,0,0,1-1-4.33,17.27,17.27,0,0,1,1.27-5.55,23.71,23.71,0,0,1,3.58-6.11,34.8,34.8,0,0,1,6-5.89,39.27,39.27,0,0,1,8.61-5,59.56,59.56,0,0,1,14.87-4.33,96.15,96.15,0,0,0-11.58,13.36q-5.35,7.44-10.16,15.06t-9.22,14.86a138.48,138.48,0,0,1-8.66,12.71,33.84,33.84,0,0,0-6.45-3.72,18.76,18.76,0,0,0-7.57-1.46,17.78,17.78,0,0,0-7.86,1.55,12.28,12.28,0,0,0-4.75,3.86,8.64,8.64,0,0,0-1.6,5,8.46,8.46,0,0,0,1.65,5,12.23,12.23,0,0,0,5,3.86,20.67,20.67,0,0,0,8.56,1.55,26.78,26.78,0,0,0,8-1.17,33.7,33.7,0,0,0,7.34-3.34q2.07,2.34,4.28,4.7a44.67,44.67,0,0,0,4.71,4.33,33.73,33.73,0,0,0,5.36,3.48,20.89,20.89,0,0,0,6.17,2.07,33.53,33.53,0,0,0,12.79,0A35.85,35.85,0,0,0,187.28,404.52Zm-56.5-12.42a11.94,11.94,0,0,1-6,1.69,8.83,8.83,0,0,1-6.07-1.88,5.19,5.19,0,0,1,0-8.37q2.11-1.89,6.64-1.89a11.56,11.56,0,0,1,5.92,1.6,29.1,29.1,0,0,1,5.37,4.14A27.11,27.11,0,0,1,130.78,392.1Zm53.63-53.59a83.69,83.69,0,0,1,8.42-11.24,17,17,0,0,1,6.5,3.1,10.55,10.55,0,0,1,3.48,5.08,8.69,8.69,0,0,1,.09,3.81,16.42,16.42,0,0,1-1.31,4,19.89,19.89,0,0,1-2.31,3.72,20.47,20.47,0,0,1-2.78,3,22.37,22.37,0,0,0-7.9-1.31,20.56,20.56,0,0,0-6.54,1.08,50.31,50.31,0,0,0-6,2.4Q180.33,345,184.41,338.51Zm-16.7,60.08a26.33,26.33,0,0,1-10.35-3.2,63.46,63.46,0,0,1-8.28-5.64,68,68,0,0,0,11-12.14q5-7.07,9.74-14.78a8.17,8.17,0,0,0,5,1.6,23.29,23.29,0,0,0,6.91-.94,41.31,41.31,0,0,0,7.72-3.05,49.84,49.84,0,0,0,7.52-4.76,11.85,11.85,0,0,1,5,6.59,21.49,21.49,0,0,1,.8,9.36,30.38,30.38,0,0,1-3.24,10.17,31.45,31.45,0,0,1-7.11,9.12,32.29,32.29,0,0,1-10.68,6.26A30.75,30.75,0,0,1,167.71,398.59Z" transform="translate(0 -120.11)"/><path d="M214.81,390.74a8.71,8.71,0,0,0,5.22,1.45,12.56,12.56,0,0,0,5.32-1.31,26.44,26.44,0,0,0,5.5-3.58,5.38,5.38,0,0,0,2.31,3.67,8.43,8.43,0,0,0,4.75,1.22,13.28,13.28,0,0,0,4.56-.84,19.2,19.2,0,0,0,4.33-2.26,19.4,19.4,0,0,0,3.59-3.26,10.22,10.22,0,0,0,.31,1.52,7,7,0,0,0,2.4,3.48,7.53,7.53,0,0,0,4.76,1.36,29.15,29.15,0,0,0,7.05-.84,20.36,20.36,0,0,0,6.31-2.78,19.76,19.76,0,0,0,5.17-5.08,26.31,26.31,0,0,0,3.67-7.86,13.74,13.74,0,0,0,.52-6.35,8.91,8.91,0,0,0-2.12-4.52,8.54,8.54,0,0,0-4.14-2.44,11.72,11.72,0,0,0-5.45-.14,5.66,5.66,0,0,0,1.78-1.93,20.41,20.41,0,0,0,1.13-2.12,7.48,7.48,0,0,0,.33-5.22c-.53-1.41-1.71-2.12-3.53-2.12a7.9,7.9,0,0,0-5.12,1.88,13.07,13.07,0,0,0-3.72,5.46,7.52,7.52,0,0,0-.52,2.92,6.22,6.22,0,0,0,.52,2.44,3.25,3.25,0,0,0,1.41,1.56,2.93,2.93,0,0,0,2.26.14c3.57-1.07,5.91-.72,7,1s.8,4.9-.89,9.41a30.13,30.13,0,0,1-2.26,4.9,24.54,24.54,0,0,1-2.83,4,11.76,11.76,0,0,1-3.24,2.63,7.33,7.33,0,0,1-3.53.94,2.94,2.94,0,0,1-2.68-1.22,4.67,4.67,0,0,1-.62-3.11,5.13,5.13,0,0,0,1.23.19,7.9,7.9,0,0,0,5.13-1.88,13.1,13.1,0,0,0,3.71-5.36,7,7,0,0,0,.29-5.13,3.38,3.38,0,0,0-3.49-2.12,5.82,5.82,0,0,0-1.69.33,8.32,8.32,0,0,0-2.26,1.22,15.87,15.87,0,0,0-2.54,2.45,21.34,21.34,0,0,0-2.54,3.91,15.23,15.23,0,0,0-.8,1.69,10.34,10.34,0,0,1-3.1,3.86,8.87,8.87,0,0,1-3.53,1.69,3,3,0,0,1-2.54-.47c-.63-.5-.7-1.35-.19-2.54q.18-.57,1-2.49l1.88-4.57,2.3-5.6c.82-2,1.6-3.85,2.36-5.64s1.41-3.37,2-4.75.94-2.36,1.13-2.92H242.33a1.56,1.56,0,0,0-.33.71,8.5,8.5,0,0,1-.42,1.17,6.41,6.41,0,0,0-5.56-2.63,20.59,20.59,0,0,0-12.51,4.51q-6,4.51-10.07,14.12a23.87,23.87,0,0,0-2,7.29,14.43,14.43,0,0,0,.52,6A7.85,7.85,0,0,0,214.81,390.74Zm7.24-12.52a35.89,35.89,0,0,1,2.21-5.13,64.13,64.13,0,0,1,3.39-6.21,23.86,23.86,0,0,1,3.15-4.09,10.73,10.73,0,0,1,3.11-2.26,8,8,0,0,1,3.34-.71,3,3,0,0,1,2.73,1.32l-7.81,19.1a12.75,12.75,0,0,0-.85,2.45,17.06,17.06,0,0,1-3.76,2.63,7.88,7.88,0,0,1-3.49.95,2.59,2.59,0,0,1-2.3-1,4.46,4.46,0,0,1-.61-2.82A16.28,16.28,0,0,1,222.05,378.22Z" transform="translate(0 -120.11)"/><path d="M289.05,390.74a14.33,14.33,0,0,0,6.73,1.45,30,30,0,0,0,13.36-2.82,21.24,21.24,0,0,0,2.92-1.74c-.52,1.28-1.06,2.58-1.6,3.9h10.25a2.4,2.4,0,0,0,.19-.47,9.51,9.51,0,0,1,.57-1.41,6.87,6.87,0,0,0,5.64,2.54,20.34,20.34,0,0,0,12.42-4.56q6-4.56,10.07-14.16a23.88,23.88,0,0,0,2-7.25,14.41,14.41,0,0,0-.51-5.93,7.84,7.84,0,0,0-2.87-4,8.68,8.68,0,0,0-5.23-1.46,11.84,11.84,0,0,0-4.14.8,21.55,21.55,0,0,0-4.32,2.21l2.35-5.65q2.63-6.3,1.32-9.22c-.88-1.94-3.11-2.92-6.69-2.92a17.8,17.8,0,0,0-1.88.1,11.1,11.1,0,0,0-1.6.28,15,15,0,0,1-1.6.28l-2,4h.94q2.16,0,2.73,1.17a3.64,3.64,0,0,1-.29,3.06q-.09.19-.84,2.07c-.5,1.26-1.18,2.89-2,4.9s-1.79,4.28-2.83,6.82L319,370.55,315.6,379a15.66,15.66,0,0,1-2.6,3,19,19,0,0,1-3.53,2.54,20.73,20.73,0,0,1-4.05,1.75,14,14,0,0,1-4.09.65q-4.43,0-6.54-2.77t-.89-7h6a14.94,14.94,0,0,0,9.78-3.48,16.35,16.35,0,0,0,4.47-5.79,12.43,12.43,0,0,0,1.23-6.12,7.3,7.3,0,0,0-8-6.91,20.72,20.72,0,0,0-13.22,4.75q-6,4.76-9.55,13.88a18.75,18.75,0,0,0-1.41,7.29,12.12,12.12,0,0,0,1.6,6A10.61,10.61,0,0,0,289.05,390.74Zm36-9.6q1.13-2.68,2.31-5.55l2.35-5.79q1.17-2.93,2.31-5.65a19.62,19.62,0,0,1,3.62-2.49,7.26,7.26,0,0,1,3.34-.9,2.57,2.57,0,0,1,2.35,1,4.75,4.75,0,0,1,.57,2.82,17.39,17.39,0,0,1-.9,4.24,41.32,41.32,0,0,1-2.12,5.17q-3.57,7.25-6.54,10.16a9.11,9.11,0,0,1-6.54,2.92,3.08,3.08,0,0,1-2.72-1.22Q323.91,383.82,325,381.14Zm-27.52-12.66q1.37-2.44,2.68-4.42a23.59,23.59,0,0,1,2.59-3.3,7.1,7.1,0,0,1,2.21-1.69c.94-.38,1.6-.36,2,.05a2.54,2.54,0,0,1,.47,1.93,13.16,13.16,0,0,1-.76,3.2,26.36,26.36,0,0,1-1.79,3.95,12.27,12.27,0,0,1-2.82,4,5.35,5.35,0,0,1-3.67,1.32h-3.29A42.11,42.11,0,0,1,297.52,368.48Z" transform="translate(0 -120.11)"/><path d="M453.06,381.8a17.55,17.55,0,0,0-6.45-8,13.89,13.89,0,0,0-4.42-1.83,10.36,10.36,0,0,0-4.7.05,10.76,10.76,0,0,0-4.47,2.35,14.27,14.27,0,0,0-3.43,4.53h0a11.34,11.34,0,0,1-3.2,3.95,9,9,0,0,1-3.48,1.74,2.92,2.92,0,0,1-2.54-.43c-.63-.5-.69-1.37-.19-2.63q2.93-7.24,5.37-13.27,1-2.54,2.11-5.13c.73-1.72,1.38-3.32,2-4.79s1.11-2.75,1.55-3.82.76-1.85.94-2.35q2.64-6.3,1.32-9.22c-.88-1.94-3.1-2.92-6.68-2.92a17.65,17.65,0,0,0-1.88.1,10.86,10.86,0,0,0-1.6.28,15.45,15.45,0,0,1-1.6.28l-2,4h.94q2.17,0,2.73,1.17a3.59,3.59,0,0,1-.28,3.06c-.19.44-.61,1.45-1.27,3s-1.43,3.44-2.31,5.6-1.82,4.47-2.82,6.92l-2.82,6.91q-1.32,3.26-2.35,5.65c-.5,1.15-.86,2-1.1,2.59a10.9,10.9,0,0,1-2.76,3.2,9.12,9.12,0,0,1-3.48,1.74,2.91,2.91,0,0,1-2.54-.43c-.63-.5-.69-1.37-.19-2.63q2.91-7.24,5.36-13.27,1-2.54,2.12-5.13t2-4.79c.59-1.48,1.11-2.75,1.55-3.82s.75-1.85.94-2.35q2.63-6.3,1.32-9.22c-.88-1.94-3.11-2.92-6.69-2.92a17.8,17.8,0,0,0-1.88.1,11.35,11.35,0,0,0-1.6.28,15,15,0,0,1-1.6.28l-2,4h.94q2.16,0,2.73,1.17a3.67,3.67,0,0,1-.28,3.06c-.19.44-.62,1.45-1.27,3s-1.43,3.44-2.31,5.6-1.82,4.47-2.82,6.92-2,4.75-2.83,6.91-1.66,4.05-2.35,5.65c-.55,1.27-.93,2.18-1.16,2.76a9.81,9.81,0,0,1-2.65,3,8.8,8.8,0,0,1-3.53,1.69,3.06,3.06,0,0,1-2.54-.47c-.63-.5-.69-1.35-.19-2.54q.19-.57,1-2.49l1.88-4.57,2.31-5.6c.81-2,1.6-3.85,2.35-5.64s1.41-3.37,2-4.75.94-2.36,1.13-2.92H383a1.56,1.56,0,0,0-.33.71,10.31,10.31,0,0,1-.43,1.17,6.38,6.38,0,0,0-5.55-2.63,20.57,20.57,0,0,0-12.51,4.51q-6,4.51-10.07,14.12a23.9,23.9,0,0,0-2,7.29,14.6,14.6,0,0,0,.52,6,7.91,7.91,0,0,0,2.87,4,8.73,8.73,0,0,0,5.22,1.45,12.49,12.49,0,0,0,5.32-1.31,26.49,26.49,0,0,0,5.51-3.58,5.4,5.4,0,0,0,2.3,3.67,8.45,8.45,0,0,0,4.75,1.22,13.29,13.29,0,0,0,4.57-.84,18.83,18.83,0,0,0,7.05-4.58,6.13,6.13,0,0,0,.71,2.41,5.23,5.23,0,0,0,2.49,2.26,9.37,9.37,0,0,0,3.91.75,13.28,13.28,0,0,0,4.56-.84,19,19,0,0,0,7.06-4.58,6.13,6.13,0,0,0,.7,2.41,5.3,5.3,0,0,0,2.5,2.26,9.33,9.33,0,0,0,3.9.75,13.29,13.29,0,0,0,4.57-.84,19.41,19.41,0,0,0,4.33-2.26,20,20,0,0,0,3.67-3.34,15.75,15.75,0,0,0,2.58-4.19l-.05-.08q2.49-5,6.26-6.08c2.64-.79,5.21-.17,7.72,1.83a11,11,0,0,1,3.67,5.55,13,13,0,0,1,0,7,22,22,0,0,1-3.86,7.53,28.58,28.58,0,0,1-7.71,6.87,48.06,48.06,0,0,1-11.62,5.13A62.94,62.94,0,0,1,410,411.77a240.09,240.09,0,0,1-25.92-.1q-12.37-.75-24.47-2.16t-24.32-3.2q-12.24-1.79-25.41-3.2t-27.67-2.21q-14.49-.81-31.14-.24a121.94,121.94,0,0,0-25.55,3.39,104.12,104.12,0,0,0-21.17,7.67,82.41,82.41,0,0,0-17,11.15,86.4,86.4,0,0,0-13,13.83A57.67,57.67,0,0,1,191,433.5a41.61,41.61,0,0,1,13.45,1.65,27.73,27.73,0,0,1,9.74,5.13,18.93,18.93,0,0,1,5.51,7.15,57.76,57.76,0,0,1,18.16-12.7,108.37,108.37,0,0,1,23.81-7.53,203.44,203.44,0,0,1,27.9-3.53q14.82-.9,30.44-.8t31.47.75q15.87.66,30.91,1.13,18.65.66,31.86-2.07T436,415.25q8.61-4.71,13-10.68a27,27,0,0,0,5.27-11.86A19.87,19.87,0,0,0,453.06,381.8Zm-80.22-1.56a12.7,12.7,0,0,0-.84,2.45,16.88,16.88,0,0,1-3.77,2.63,7.81,7.81,0,0,1-3.48.95,2.58,2.58,0,0,1-2.3-1,4.46,4.46,0,0,1-.62-2.82,16.34,16.34,0,0,1,.9-4.19,35.89,35.89,0,0,1,2.21-5.13,64.13,64.13,0,0,1,3.39-6.21,22.9,22.9,0,0,1,3.15-4.09,10.69,10.69,0,0,1,3.1-2.26,8,8,0,0,1,3.34-.71,3,3,0,0,1,2.73,1.32Z" transform="translate(0 -120.11)"/><path d="M303,205.84a84.73,84.73,0,0,0-22.09-57.19c-.68-.75-1.39-1.5-2.1-2.24l-.72-.72c-.72-.72-1.45-1.42-2.18-2.11s-1.62-1.48-2.45-2.2c-1.55-1.33-3.13-2.6-4.76-3.81-.35-.27-.71-.53-1.06-.78a85.19,85.19,0,0,0-82.82-9.33c-1.34.56-2.7,1.18-4,1.82A84.69,84.69,0,0,0,165.1,138q-1.84,1.29-3.6,2.68c-.66.51-1.31,1-1.95,1.58-1,.82-2,1.67-2.92,2.55l-1,.9c-.61.57-1.22,1.16-1.81,1.75q-.65.65-1.26,1.29a85,85,0,0,0-11.23,103.17,84.5,84.5,0,0,0,11.81,16.48c.86.95,1.75,1.87,2.65,2.78a87.62,87.62,0,0,0,7.87,7A84.77,84.77,0,0,0,216,296.11h2a84.74,84.74,0,0,0,59.25-24l.91-.89A84.77,84.77,0,0,0,303,211c0-.83,0-1.7,0-2.59S303,206.67,303,205.84Zm-6.1,1.79a83.32,83.32,0,0,1-22.76,56.93l1-1.73a2.94,2.94,0,0,0,.48-1.25,1.13,1.13,0,0,0-.72-1.14c-.5-.26-.75.12-1,.43l-3.71,4.29c-.55.62-1.06.46-1.53-.1a3.3,3.3,0,0,1-.33-3.85c.53-.88,1.11-1.73,1.68-2.58.71-1.07,1.44-2.12,2.12-3.21a1.52,1.52,0,0,0-.55-2.16c-.78-.52-1.06.17-1.45.59-1.09,1.18-2.17,2.37-3.27,3.53-.67.72-1.08.64-1.52-.23a3.44,3.44,0,0,1,.34-3.8c1.21-1.66,2.45-3.29,3.66-4.95a5.87,5.87,0,0,0,.73-1.23,1.11,1.11,0,0,0-.57-1.39c-.46-.32-.74.06-1.05.36q-2.07,1.94-4.17,3.84c-.74.67-1.06.59-1.51-.33a3.9,3.9,0,0,1,.3-4.27c.58-.8,1.26-1.53,1.89-2.3.88-1.06,1.78-2.1,2.63-3.19a1.24,1.24,0,0,0-.05-1.75c-.59-.6-.94,0-1.36.29q-2.16,1.77-4.35,3.49c-.36.28-.83.72-1.17,0-.72-1.55-1.2-3.53.41-5.29a14.05,14.05,0,0,1,1.24-1.2,35.4,35.4,0,0,0,3.37-3.56,1.19,1.19,0,0,0,0-1.67c-.54-.62-.94-.1-1.38.21l-4.19,2.9c-.64.44-1.1.36-1.44-.39a3.34,3.34,0,0,1,.78-4.12c1.21-1.15,2.47-2.24,3.68-3.38a8.75,8.75,0,0,0,1.49-1.49,1.13,1.13,0,0,0-.18-1.49c-.38-.4-.75-.13-1.12.09l-4.39,2.59c-.92.54-1.32.38-1.6-.65a3.26,3.26,0,0,1,1-3.66c1.57-1.32,3.11-2.67,4.66-4a5.3,5.3,0,0,0,.87-.9,1.11,1.11,0,0,0-.15-1.49c-.43-.46-.8-.11-1.19.11-1.59.89-3.21,1.74-4.8,2.63-.63.35-.95.22-1.05-.5-.36-2.78-.35-3.69,2.16-5.15a10.4,10.4,0,0,0,.9-.56c1.1-.77,2.21-1.53,3.31-2.31a1.19,1.19,0,0,0,.31-1.64c-.3-.57-.81-.32-1.26-.12-1.41.62-2.89,1.06-4.26,1.77-.8.41-1.26.16-1.45-.72a3.73,3.73,0,0,1,1.75-4.13c1.53-.94,3.08-1.84,4.62-2.75a2.27,2.27,0,0,0,1-1,1.17,1.17,0,0,0-.17-1.18c-.23-.33-.54-.28-.86-.17-1.55.54-3.1,1.05-4.63,1.6-1.18.42-1.49.26-1.54-1a4,4,0,0,1,2.22-4c1.57-.86,3.21-1.61,4.8-2.42.66-.33,1.11-.82.82-1.62s-1-.49-1.54-.36c-1.22.29-2.42.63-3.63.94s-1.57,0-1.6-1.19a2.91,2.91,0,0,1,2-3l5.13-2.16a3.63,3.63,0,0,0,1-.58,1.1,1.1,0,0,0,.22-1.41c-.25-.49-.69-.36-1.1-.28-1.54.28-3.09.56-4.63.86-.78.15-1.15-.13-1.19-.93a3.51,3.51,0,0,1,2.32-3.71c1.34-.54,2.72-1,4.08-1.44a21.4,21.4,0,0,0,2.06-.8,1.11,1.11,0,0,0,.62-1.44c-.2-.66-.7-.51-1.18-.47-1.66.16-3.32.28-5,.46-.76.08-1-.27-.94-.94a4,4,0,0,1,3-3.83c1.61-.43,3.25-.74,4.87-1.11a2.51,2.51,0,0,0,1.15-.45,1.16,1.16,0,0,0,.35-1.31c-.12-.47-.52-.5-.93-.49h-4.81c-.56,0-.81-.23-.81-.82a3.84,3.84,0,0,1,2.45-3.58,10.76,10.76,0,0,1,2.45-.43c1.21-.19,2.42-.31,3.62-.51a1.19,1.19,0,0,0,1-1.3c0-.72-.59-.69-1.11-.76-1.31-.16-2.61-.29-3.93-.32-1,0-1.37-.59-1.05-1.55a2.78,2.78,0,0,1,2.38-2.09c.6-.09,1.21-.15,1.82-.22,1.71-.19,3.44-.37,5.15-.59a1.53,1.53,0,0,0,.71-.24,84.26,84.26,0,0,1,9.48,12.68A82.9,82.9,0,0,1,296.93,207.63Zm-34.15,67a.89.89,0,0,0-.53.38,82.3,82.3,0,0,1-12.08,7.23,83.35,83.35,0,0,1-83.93-11.41c1.51-.42,3-.81,4.54-1.22a13.11,13.11,0,0,0,1.46-.48,1.25,1.25,0,0,0,.69-1.6c-.14-.67-.7-.53-1.17-.51-1.28.05-2.57.12-3.85.14-.88,0-1.12-.29-.88-1.12a3.81,3.81,0,0,1,2.58-2.75c1-.34,2-.65,3-1s2.13-.71,3.17-1.13c.79-.31.82-1,.65-1.7s-.72-.49-1.19-.43c-1.43.16-2.87.31-4.3.49-.76.1-1-.24-.87-.94a4.8,4.8,0,0,1,2.91-3.69c.59-.24,1.21-.42,1.81-.64,1.11-.41,2.23-.8,3.33-1.25a1.31,1.31,0,0,0,.9-1.68c-.23-.86-.86-.65-1.48-.54-1.23.22-2.46.4-3.7.6-.6.1-1.09,0-1-.76.27-1.91,1-3.54,3-4.25,1.45-.54,2.82-1.23,4.22-1.86a4.28,4.28,0,0,0,1.07-.64,1.24,1.24,0,0,0,.26-1.66c-.32-.58-.8-.35-1.27-.23-1.18.3-2.36.6-3.54.88s-1.45-.07-1.3-1.19a4.66,4.66,0,0,1,2.71-3.92,53,53,0,0,0,4.8-2.63,1.94,1.94,0,0,0,.8-.67,1.27,1.27,0,0,0-.11-1.45c-.31-.46-.73-.27-1.12-.14-1.28.42-2.56.83-3.84,1.27-1.07.37-1.55,0-1.47-1.09a4.17,4.17,0,0,1,2-3.42c1.68-1.06,3.35-2.14,5-3.21a2.27,2.27,0,0,0,.87-.87,1.28,1.28,0,0,0-.2-1.44c-.36-.45-.79-.21-1.22,0-1.43.58-2.87,1.11-4.29,1.69-.67.28-.86,0-.88-.59a4.45,4.45,0,0,1,2.18-4.4c1.58-.92,3-2,4.5-3.11a1.88,1.88,0,0,0,.69-.79,1.38,1.38,0,0,0-.24-1.44c-.39-.47-.82-.17-1.22,0-1.22.56-2.44,1.12-3.66,1.7s-1.68.17-1.6-1a4.68,4.68,0,0,1,1.68-3.44c1.05-.89,2.09-1.8,3.12-2.71.77-.68,1.54-1.36,2.26-2.09a1.13,1.13,0,0,0,0-1.65c-.44-.52-.9-.28-1.38,0-1.45.83-2.92,1.61-4.35,2.45-.63.38-.8.2-.91-.46a4.74,4.74,0,0,1,1.71-4.81,52.33,52.33,0,0,0,4-3.87,2.7,2.7,0,0,0,.67-.93,1.27,1.27,0,0,0-.36-1.49c-.47-.42-.86-.09-1.28.2-1.28.89-2.59,1.77-3.9,2.63-.73.47-1.06.3-1.24-.59a4.68,4.68,0,0,1,1.13-4.28c1.44-1.6,2.83-3.24,4.23-4.86a2.34,2.34,0,0,0,.66-1.16,1.14,1.14,0,0,0-1-1.4c-.67,0-1.44.94-1.93,1.33l-2.6,2.08c-.82.65-1.2.52-1.46-.52a4.86,4.86,0,0,1,.95-4.34c1.11-1.41,2.2-2.84,3.29-4.27a8.41,8.41,0,0,0,.75-1.12,1.27,1.27,0,0,0-.47-1.76c-.63-.48-.89.13-1.25.45l-3.66,3.26c-.41.36-.67.35-.91-.22a5.1,5.1,0,0,1,.58-5.61,44.11,44.11,0,0,0,2.82-4.12,3.6,3.6,0,0,0,.7-1.36,1.27,1.27,0,0,0-.67-1.38c-.52-.31-.8.12-1.1.47-1.1,1.25-2.23,2.47-3.3,3.75-.52.62-.73.46-1-.17a5.86,5.86,0,0,1,.29-6.2,51,51,0,0,0,2.76-5.6,1.18,1.18,0,0,0-.56-1.63c-.7-.44-.95.11-1.29.55-1.05,1.41-2.17,2.78-3.2,4.21-.46.66-.67.45-1-.09a5.16,5.16,0,0,1-.2-5.06c.39-.81.78-1.62,1.12-2.44.56-1.37,1.09-2.75,1.6-4.13a1.27,1.27,0,0,0-.64-1.71c-.78-.42-1,.28-1.27.75-.91,1.43-1.82,2.87-2.76,4.28-.57.88-.92.9-1.47.06a5.48,5.48,0,0,1-.61-5.48c.71-1.61,1.37-3.25,2.06-4.87a1.66,1.66,0,0,0,.17-1.11,1.31,1.31,0,0,0-1-1c-.52-.15-.7.31-.91.67-.73,1.21-1.48,2.4-2.18,3.62s-1.25,1.16-2,.14a4.24,4.24,0,0,1-.33-.59,80.47,80.47,0,0,1,105.47-1.29,4.2,4.2,0,0,1-1.47,2.33c-.35.3-.6.41-.89-.08-.85-1.4-1.72-2.78-2.58-4.16-.22-.36-.42-.78-.94-.63a1.18,1.18,0,0,0-.92,1,2.73,2.73,0,0,0,.31,1.49q.93,2.33,1.89,4.63a5.17,5.17,0,0,1-.93,5.56c-.33.42-.58.52-.92,0-1-1.63-2.11-3.22-3.15-4.83-.44-.68-1-.76-1.54-.15a1.47,1.47,0,0,0-.16,1.62,64.07,64.07,0,0,0,2.56,6.11,5.31,5.31,0,0,1-.13,5.34c-.34.62-.56.51-.92,0-1.11-1.49-2.27-2.94-3.36-4.45-.49-.67-.95-.55-1.44-.1-.69.64-.33,1.37,0,2,.9,1.85,1.75,3.72,2.78,5.49a5.46,5.46,0,0,1,.28,5.24c-.34.79-.6.88-1.23.26q-1.73-1.68-3.4-3.4c-.32-.33-.59-.73-1.12-.4a1.16,1.16,0,0,0-.6,1.3,3.05,3.05,0,0,0,.43,1c1,1.55,2,3.12,3.14,4.61a5.31,5.31,0,0,1,.66,5.29c-.31.86-.63.94-1.32.31-1.19-1.07-2.36-2.16-3.53-3.26a.88.88,0,0,0-1.55.19c-.46.71-.09,1.29.32,1.84q1.88,2.5,3.77,5a4.6,4.6,0,0,1,.91,4.07c-.26,1.11-.68,1.3-1.57.61-1.31-1-2.63-2-3.92-3.09-.64-.51-1.05-.3-1.41.29s0,1.31.43,1.82c1.4,1.67,2.81,3.34,4.27,4.95a4.75,4.75,0,0,1,1.25,4.16c-.18,1.14-.53,1.31-1.52.66q-1.89-1.24-3.77-2.5c-.37-.25-.73-.61-1.18-.19a1.25,1.25,0,0,0-.38,1.4,2.76,2.76,0,0,0,.76,1.09c1.34,1.29,2.65,2.61,4,3.86a4.94,4.94,0,0,1,1.74,4.46c-.11,1-.4,1.12-1.26.65-1.4-.78-2.78-1.59-4.17-2.39-.41-.23-.82-.44-1.23,0a1.22,1.22,0,0,0-.27,1.5,2.64,2.64,0,0,0,.61.73c1.49,1.32,3,2.66,4.51,3.9a4.88,4.88,0,0,1,2,4c0,1.21-.25,1.41-1.34.92l-3.87-1.71c-1.13-.49-1.87.54-1.25,1.63.92,1.61,3.84,2.92,5.36,3.93a4.32,4.32,0,0,1,1.89,3.88q0,1.31-1.26.81c-1.34-.53-2.67-1.08-4-1.64-.4-.17-.8-.36-1.13.06a1.27,1.27,0,0,0-.27,1.42,2.43,2.43,0,0,0,.93.95c1.62,1,3.24,2.07,4.87,3.07a4.33,4.33,0,0,1,2.09,3.78c0,.89-.27,1.09-1.12.82l-4.11-1.33c-.44-.14-.89-.27-1.19.24a1.2,1.2,0,0,0,0,1.52,3.75,3.75,0,0,0,1.16.84c1.47.78,2.93,1.59,4.41,2.35a4.6,4.6,0,0,1,2.68,4.13c.06,1-.16,1.23-1.16,1-1.28-.29-2.55-.61-3.83-.92-.89-.21-1.32.17-1.25,1.09a1.5,1.5,0,0,0,1,1.26c1.42.65,2.81,1.39,4.3,1.91a4.86,4.86,0,0,1,3.27,4.25c.1.71-.19,1.05-.92.93-1.3-.2-2.6-.4-3.89-.64-.45-.09-.89-.28-1.15.28a1.31,1.31,0,0,0,.13,1.53,2.19,2.19,0,0,0,1,.59c1.42.51,2.82,1.08,4.25,1.54a4.75,4.75,0,0,1,3.36,3.73c.23,1,0,1.19-.94,1.09-1.43-.15-2.87-.31-4.29-.53-.78-.12-1.07.24-1.13.92-.07.87.48,1.27,1.21,1.51,1.76.58,3.51,1.21,5.29,1.73a4.31,4.31,0,0,1,2.95,2.66c.39,1,.08,1.45-.92,1.4l-3.84-.19c-.47,0-.94-.07-1.11.5a1.24,1.24,0,0,0,.43,1.46,4.67,4.67,0,0,0,1.7.64c1.52.41,3,.78,4.55,1.21a4.58,4.58,0,0,1,1.27.56C265.57,272.52,264.2,273.6,262.78,274.64ZM160.92,151.51c.26.76.07,1.18-.74,1.28l-1.51.18c.67-.68,1.34-1.35,2-2A5.51,5.51,0,0,1,160.92,151.51Zm114.53,1.75q-1.81-.22-3.63-.48c-.51-.07-1.05-.16-1-.91a3.36,3.36,0,0,1,1.08-2Q273.74,151.49,275.45,153.26ZM267,139.16c1.44,1.07,2.86,2.18,4.23,3.34.17.13.33.27.49.41a83.48,83.48,0,0,1,22.45,30.36,84.91,84.91,0,0,0-16.09-22.38c-.69-.68-1.39-1.36-2.1-2-1.46-1.37-3-2.7-4.52-3.94-1.2-1.1-2.42-2.17-3.67-3.19a84.76,84.76,0,0,0-43.67-18.58A83.13,83.13,0,0,1,267,139.16Zm-103.52,4.2a83.18,83.18,0,0,1,18.29-12.13,83,83,0,0,1,57.71-2.5A85,85,0,0,0,218,126h-2a84.81,84.81,0,0,0-52.78,18.35c-1.83,1.45-3.61,3-5.32,4.59l-1.27,1.21c.37-.41.75-.82,1.13-1.22Q160.51,146,163.52,143.36Zm-16.14,15a85.22,85.22,0,0,0-7.8,14.41c-.77,1.82-1.49,3.71-2.14,5.58a84.19,84.19,0,0,0-6.29,26.41A82.28,82.28,0,0,1,147.38,158.32Zm-12.29,50.13a82.59,82.59,0,0,1,21.11-52.84c1.93.23,3.87.44,5.81.66a2.75,2.75,0,0,1,2.56,2.1c.32,1.1.06,1.52-1.1,1.56-1.31,0-2.62.19-3.92.36-.42.06-.88,0-1,.59a1.2,1.2,0,0,0,.61,1.3,3.51,3.51,0,0,0,1,.27c1.5.2,3,.38,4.49.56a4.07,4.07,0,0,1,3.41,3.63c0,.72-.2,1.05-1,1-1.51,0-3,0-4.53,0-.46,0-.94,0-1,.59a1.15,1.15,0,0,0,.54,1.33,4.12,4.12,0,0,0,1,.33c1.38.32,2.76.61,4.13.93,2.6.61,3.2,1.3,3.58,3.94.1.75-.12,1.11-.92,1-1.68-.19-3.37-.35-5.06-.55-.77-.09-1.16.26-1.09,1s.61,1,1.2,1.21c1.82.63,3.64,1.24,5.45,1.89a3.75,3.75,0,0,1,2.54,3.71c0,.81-.46,1.2-1.24,1q-2.31-.42-4.62-.9c-.47-.1-.89-.18-1.15.35a1.12,1.12,0,0,0,.18,1.34,3.59,3.59,0,0,0,1.25.7c1.65.71,3.31,1.39,5,2.09a2.9,2.9,0,0,1,2,2.92c0,1.2-.38,1.49-1.55,1.19-1.4-.35-2.8-.71-4.2-1-.32-.07-.73-.19-.94.23a1.15,1.15,0,0,0,0,1.27,2.71,2.71,0,0,0,1,.76q2.49,1.24,5,2.54a2.76,2.76,0,0,1,1.6,2.74c0,.54-.06,1.08-.07,1.63s-.26.7-.8.51c-1.63-.58-3.27-1.11-4.91-1.67-.36-.13-.74-.36-1.05,0a1.19,1.19,0,0,0-.15,1.27,2.05,2.05,0,0,0,.89.86c1.45.87,2.88,1.81,4.37,2.61a3.69,3.69,0,0,1,2.07,4.06c-.13,1.09-.41,1.3-1.43.9l-4.37-1.75c-.41-.17-.78-.32-1.1.14a1,1,0,0,0,0,1.33,5.64,5.64,0,0,0,1.07.94c1.45,1,2.9,2,4.37,3a2.85,2.85,0,0,1,1.35,3.22,11.9,11.9,0,0,0-.22,1.33c-.07.81-.41.76-1,.42-1.62-.93-3.26-1.8-4.89-2.69-.38-.21-.76-.42-1.12,0a1,1,0,0,0-.12,1.33,7.41,7.41,0,0,0,1.06,1.11c1.44,1.27,2.91,2.51,4.36,3.78a3.25,3.25,0,0,1,1.05,4c-.3.72-.73.9-1.42.48l-4.45-2.68c-.38-.23-.76-.41-1.13,0a1.09,1.09,0,0,0-.31,1.3,3.14,3.14,0,0,0,.75.87c1.52,1.38,3.06,2.74,4.55,4.14a3.31,3.31,0,0,1,.77,4.13c-.34.71-.74.89-1.42.39-1.48-1.07-3-2.09-4.47-3.16a.75.75,0,0,0-1.26.26c-.48.77,0,1.36.46,1.88,1.25,1.33,2.56,2.61,3.81,3.94,1.84,1.94,2,3,.89,5.47-.3.67-.56.7-1.09.26-1.56-1.29-3.15-2.53-4.7-3.82-.58-.49-1-.32-1.34.23s-.08,1.23.35,1.74c1.35,1.63,2.73,3.24,4.07,4.87a4.11,4.11,0,0,1,.41,4.92c-.32.52-.66.66-1.15.21-1.42-1.3-2.85-2.58-4.25-3.9-.39-.37-.69-.82-1.28-.42a1.18,1.18,0,0,0-.41,1.54,4.93,4.93,0,0,0,.61,1l3.71,5a3.43,3.43,0,0,1,.45,3.62c-.5,1.11-.92,1.19-1.74.31-1.08-1.18-2.15-2.38-3.24-3.56-.36-.4-.73-.87-1.38-.49a1.52,1.52,0,0,0-.67,1.92,5.62,5.62,0,0,0,.45.74l3.37,5a3.17,3.17,0,0,1,0,3.78c-.72,1.1-1.07,1.11-1.95.11l-3.57-4c-.25-.28-.47-.69-.95-.41a1.21,1.21,0,0,0-.73,1A82.6,82.6,0,0,1,135.09,208.45Zm33.45,68.48c-1.07-.7-2.13-1.43-3.17-2.19-.64-.46-1.27-.93-1.9-1.42s-1.05-.82-1.57-1.24-1-.91-1.47-1.38a83.16,83.16,0,0,1-18.74-27.15A84.7,84.7,0,0,0,157.81,266c.52.52,1.05,1,1.58,1.54,1.6,1.53,3.26,3,5,4.37q1.72,1.41,3.53,2.72c.59.43,1.19.86,1.79,1.27a84.94,84.94,0,0,0,38.18,14.43A83.2,83.2,0,0,1,168.54,276.93Zm97,.48A83.13,83.13,0,0,1,217,294a82.26,82.26,0,0,1-24.51-4A85.67,85.67,0,0,0,247.13,286c1.34-.57,2.7-1.19,4-1.83a84.32,84.32,0,0,0,13.21-7c1.16-.75,2.31-1.54,3.43-2.36l.78-.57c1.1-.81,2.18-1.66,3.24-2.53,1.89-1.54,3.71-3.17,5.48-4.89-1.67,1.83-3.42,3.57-5.23,5.23A82.49,82.49,0,0,1,265.57,277.41Zm28.93-39.67a82.87,82.87,0,0,1-9.87,17.36A84.67,84.67,0,0,0,298.85,214,82.41,82.41,0,0,1,294.5,237.74Z" transform="translate(0 -120.11)"/><path d="M235.51,135.69h0a81.51,81.51,0,0,0-15.67-2.12c-1,0-2,0-3,0h-1.93l-1.32,0-1.64.07c-.62,0-1.24.08-1.84.13L208,134c-1,.09-2,.22-2.92.35l-1,.14c-1.17.19-2.54.41-3.89.66l-1.35.3c-.82.17-1.67.35-2.5.56l-1.34.35c-.81.22-1.64.44-2.46.68a20.1,20.1,0,0,0-3.71,1.47l.21.49a36.67,36.67,0,0,1,5.75-1.1l1.86-.27,2.48-.3,1.37-.17,3.85-.36,3.85-.26,2.08-.09c.58,0,1.18-.06,1.78-.05,2.28,0,5-.08,7.71.05A120.89,120.89,0,0,1,235.05,138a130,130,0,0,1,15.09,3.56l.2-.5A67,67,0,0,0,235.51,135.69Z" transform="translate(0 -120.11)"/><path d="M214.49,138.3c-.53,0-1.07,0-1.6,0h-1l-.7,0-.87,0c-.33,0-.65,0-1,.07l-1.12.09c-.52.05-1,.12-1.54.19l-.54.07-2.07.35-.71.16-1.33.3-.7.18c-.43.12-.87.23-1.31.37a10.13,10.13,0,0,0-2,.78l.2.49a18.47,18.47,0,0,1,3-.57l1-.14,1.3-.17.72-.08,2-.2,2-.13,1.09,0,.94,0c1.2,0,2.63,0,4.07,0a63.15,63.15,0,0,1,8.07.83,67.79,67.79,0,0,1,8,1.88l.2-.5a35.61,35.61,0,0,0-7.86-2.84A43.61,43.61,0,0,0,214.49,138.3Z" transform="translate(0 -120.11)"/><path d="M247.3,252.5c-.17-.45-.33-.89-.5-1.33l-.62-1.79c-.12-.33-.23-.66-.34-1l-.89-2.79-.81-2.81-.4-1.51c-.11-.43-.23-.87-.32-1.32-.4-1.67-.86-3.66-1.19-5.7a91.05,91.05,0,0,1-1.3-11.57,99.35,99.35,0,0,1,.22-11.73l-.71-.12a50.36,50.36,0,0,0-1.58,11.88,61.05,61.05,0,0,0,.95,12c.12.75.29,1.51.45,2.25l.15.69.16.75.25,1c.1.4.21.8.31,1.2s.26.91.4,1.34l.47,1.54c.22.71.48,1.42.73,2.11.09.24.17.48.26.73.33.84.72,1.82,1.12,2.78.15.32.29.64.43.95.27.58.54,1.18.83,1.78.16.3.31.61.47.92.29.57.59,1.15.9,1.72a15.85,15.85,0,0,0,1.7,2.54l.59-.41A26.34,26.34,0,0,1,247.3,252.5Z" transform="translate(0 -120.11)"/></svg>