<svg id="katman_1" data-name="katman 1" xmlns="http://www.w3.org/2000/svg" viewBox="0 0 562.87 566.93"><path d="M564.9,275.06a274.15,274.15,0,0,0-71.42-184.9q-3.33-3.68-6.81-7.23c-.77-.79-1.55-1.58-2.33-2.36q-3.46-3.46-7-6.8-3.9-3.64-7.93-7.11Q461.89,60.2,454,54.32c-1.14-.85-2.29-1.7-3.45-2.53A275.5,275.5,0,0,0,182.79,21.63c-4.34,1.84-8.74,3.83-13,5.9a274.22,274.22,0,0,0-50.86,28.25Q113,60,107.29,64.44q-3.2,2.5-6.3,5.12-4.81,4-9.43,8.24Q90,79.22,88.43,80.7q-3,2.79-5.84,5.67c-1.38,1.38-2.75,2.78-4.09,4.19A275,275,0,0,0,42.2,424.1a274.47,274.47,0,0,0,38.19,53.3q4.19,4.59,8.58,9a276.64,276.64,0,0,0,25.43,22.5,274.14,274.14,0,0,0,169.06,58.06l3.18,0,3.21,0a274.26,274.26,0,0,0,167.45-56.8,277.87,277.87,0,0,0,24.1-20.86l2.94-2.9A274.26,274.26,0,0,0,564.9,291.89c0-2.69,0-5.53-.14-8.39C564.85,280.59,564.9,277.75,564.9,275.06Zm-19.73,5.8c0,69.13-27.33,134.94-73.58,184.07l3.19-5.61a9.33,9.33,0,0,0,1.54-4,3.64,3.64,0,0,0-2.3-3.7c-1.64-.83-2.45.38-3.34,1.41q-6,6.93-12,13.85c-1.76,2-3.4,1.5-4.93-.31a10.7,10.7,0,0,1-1.07-12.46c1.7-2.85,3.59-5.57,5.42-8.34,2.29-3.46,4.67-6.85,6.87-10.36,1.59-2.52.78-5.27-1.78-7s-3.44.53-4.71,1.91c-3.51,3.82-7,7.66-10.55,11.42-2.18,2.31-3.5,2.06-4.92-.76a11.08,11.08,0,0,1,1.11-12.29c3.9-5.35,7.92-10.64,11.83-16a19.86,19.86,0,0,0,2.36-4c.81-2-.32-3.46-1.84-4.49s-2.4.2-3.41,1.15q-6.69,6.27-13.49,12.42c-2.39,2.16-3.43,1.9-4.86-1-2.33-4.79-2.21-9.46.95-13.81,1.89-2.59,4.07-5,6.11-7.44,2.85-3.43,5.76-6.81,8.5-10.32,1.41-1.81,1.58-3.88-.15-5.66-1.89-1.94-3.05-.15-4.39.95q-7,5.7-14.08,11.27c-1.17.93-2.69,2.33-3.77,0-2.34-5-3.87-11.43,1.31-17.11a50.89,50.89,0,0,1,4-3.88,112.66,112.66,0,0,0,10.88-11.51,3.82,3.82,0,0,0,0-5.39c-1.75-2-3.05-.32-4.47.67-4.5,3.15-9,6.23-13.55,9.37-2.08,1.44-3.54,1.16-4.65-1.26-2.26-4.95-1.51-9.53,2.52-13.32s8-7.24,11.9-10.93c1.65-1.56,3.57-2.86,4.83-4.81a3.63,3.63,0,0,0-.6-4.81c-1.21-1.31-2.42-.43-3.62.29q-7.06,4.23-14.19,8.37c-3,1.73-4.26,1.24-5.18-2.09-1.25-4.56-.58-8.6,3.24-11.83,5.06-4.29,10.07-8.64,15.07-13a17.38,17.38,0,0,0,2.8-2.89,3.59,3.59,0,0,0-.48-4.83c-1.37-1.49-2.57-.36-3.85.35-5.15,2.87-10.37,5.64-15.52,8.52-2,1.13-3.07.7-3.38-1.63-1.17-9-1.13-11.93,7-16.64,1-.56,2-1.17,2.88-1.82,3.59-2.48,7.17-5,10.71-7.48,2-1.41,2-3.43,1-5.28s-2.61-1.06-4.08-.41c-4.55,2-9.32,3.45-13.76,5.73-2.6,1.34-4.08.51-4.7-2.33a12,12,0,0,1,5.65-13.34c4.95-3,10-5.95,15-8.9a7.19,7.19,0,0,0,3.27-3.2,3.73,3.73,0,0,0-.54-3.81c-.75-1.07-1.74-.91-2.78-.55-5,1.73-10,3.39-15,5.17-3.82,1.37-4.8.83-5-3.31a13,13,0,0,1,7.19-12.79c5.08-2.78,10.36-5.2,15.53-7.82,2.12-1.08,3.58-2.66,2.65-5.24-1-2.79-3.21-1.59-5-1.16-3.92.94-7.81,2-11.73,3-3.68.94-5.07-.11-5.17-3.85-.13-4.58,2-7.81,6.4-9.63q8.31-3.47,16.59-7a11.49,11.49,0,0,0,3.2-1.87,3.56,3.56,0,0,0,.72-4.55c-.82-1.59-2.22-1.17-3.56-.92-5,.92-10,1.81-15,2.78-2.52.49-3.71-.42-3.84-3-.27-5.66,2.18-9.88,7.5-12,4.32-1.73,8.79-3.09,13.18-4.66a64.4,64.4,0,0,0,6.65-2.58,3.6,3.6,0,0,0,2-4.65c-.67-2.13-2.28-1.65-3.83-1.5-5.37.49-10.74.91-16.11,1.48-2.46.26-3.1-.89-3.05-3.06a12.88,12.88,0,0,1,9.58-12.36c5.2-1.39,10.5-2.39,15.76-3.58a8.59,8.59,0,0,0,3.72-1.47,3.81,3.81,0,0,0,1.12-4.25c-.39-1.5-1.68-1.6-3-1.58-2.49,0-5,0-7.47,0v0c-2.7,0-5.39,0-8.09,0-1.79,0-2.61-.72-2.6-2.62a12.42,12.42,0,0,1,7.9-11.6c2.56-1,5.28-1,7.94-1.39,3.89-.6,7.81-1,11.69-1.65a3.85,3.85,0,0,0,3.4-4.19c0-2.33-1.91-2.25-3.59-2.46-4.22-.52-8.45-.92-12.71-1-3.23-.08-4.42-1.91-3.4-5,1.23-3.76,3.67-6.2,7.7-6.77,2-.27,3.91-.48,5.87-.7,5.56-.63,11.13-1.21,16.68-1.9a5.18,5.18,0,0,0,2.28-.79,272.84,272.84,0,0,1,30.65,41A267.91,267.91,0,0,1,545.17,280.86ZM434.77,497.5a2.84,2.84,0,0,0-1.72,1.24A265.6,265.6,0,0,1,394,522.1a269.49,269.49,0,0,1-271.34-36.87c4.87-1.37,9.78-2.62,14.65-4a38.22,38.22,0,0,0,4.72-1.53c2.37-1,2.71-3,2.24-5.2s-2.25-1.69-3.78-1.63c-4.15.16-8.3.37-12.44.46-2.84.06-3.62-.95-2.85-3.63a12.39,12.39,0,0,1,8.33-8.91c3.25-1.08,6.51-2.08,9.75-3.19,3.43-1.16,6.88-2.3,10.24-3.65,2.55-1,2.66-3.27,2.11-5.51s-2.33-1.56-3.85-1.38c-4.63.53-9.27,1-13.91,1.6-2.45.3-3.33-.79-2.8-3.05,1.27-5.43,4-9.78,9.39-11.94,1.92-.77,3.92-1.35,5.86-2.06,3.6-1.32,7.21-2.6,10.76-4,2.38-1,3.64-2.73,2.92-5.43s-2.79-2.1-4.77-1.75c-4,.71-8,1.31-12,1.95-1.93.3-3.52-.09-3.18-2.46.87-6.17,3.26-11.44,9.59-13.76,4.68-1.72,9.11-4,13.64-6a14,14,0,0,0,3.45-2.06,4,4,0,0,0,.83-5.37c-1-1.89-2.58-1.14-4.09-.75-3.81,1-7.63,1.94-11.47,2.84-3.5.81-4.68-.2-4.2-3.83.75-5.69,3.39-10.19,8.77-12.69a168.11,168.11,0,0,0,15.54-8.5,6.49,6.49,0,0,0,2.58-2.18,4.09,4.09,0,0,0-.37-4.67c-1-1.48-2.34-.87-3.63-.45-4.13,1.37-8.28,2.68-12.39,4.1-3.46,1.19-5,.18-4.76-3.51A13.44,13.44,0,0,1,164,352c5.44-3.41,10.83-6.91,16.25-10.38a7.06,7.06,0,0,0,2.81-2.82,4.16,4.16,0,0,0-.64-4.66c-1.16-1.44-2.56-.67-4-.1-4.61,1.86-9.28,3.56-13.87,5.46-2.16.9-2.77.13-2.84-1.92-.2-6,1.53-11,7-14.22a172.94,172.94,0,0,0,14.57-10.06,5.9,5.9,0,0,0,2.21-2.54,4.46,4.46,0,0,0-.76-4.68c-1.26-1.5-2.64-.53-3.94.07-3.95,1.83-7.91,3.62-11.83,5.52-3.49,1.68-5.46.52-5.19-3.4a15.22,15.22,0,0,1,5.43-11.14c3.41-2.86,6.77-5.8,10.1-8.76,2.48-2.2,5-4.39,7.3-6.75,1.62-1.65,1.48-3.6,0-5.34s-2.91-.9-4.44,0c-4.68,2.67-9.44,5.2-14.08,7.93-2,1.21-2.58.64-2.92-1.49-1-6.24.47-11.52,5.53-15.56,4.71-3.77,8.69-8.3,12.95-12.52a8.75,8.75,0,0,0,2.18-3,4.11,4.11,0,0,0-1.19-4.81c-1.51-1.37-2.77-.3-4.11.63Q174.42,251.79,168,256c-2.36,1.52-3.42,1-4-1.89a15.16,15.16,0,0,1,3.65-13.85c4.65-5.17,9.14-10.47,13.69-15.71a7.61,7.61,0,0,0,2.1-3.75c.32-2.12-.83-4.47-3.21-4.54-2.18-.06-4.66,3-6.24,4.31-2.8,2.24-5.59,4.49-8.4,6.71-2.65,2.11-3.89,1.69-4.72-1.67a15.62,15.62,0,0,1,3.08-14c3.58-4.57,7.1-9.18,10.63-13.8a25.49,25.49,0,0,0,2.41-3.61c1.19-2.29.48-4.22-1.51-5.71s-2.88.43-4,1.47q-5.92,5.26-11.85,10.52c-1.31,1.17-2.17,1.16-2.95-.68-2.73-6.44-2.64-12.64,1.88-18.16a146.72,146.72,0,0,0,9.14-13.32c.88-1.36,2-2.68,2.25-4.4a4.09,4.09,0,0,0-2.16-4.45c-1.7-1-2.6.39-3.57,1.5-3.55,4.05-7.21,8-10.67,12.14-1.67,2-2.35,1.49-3.37-.53-3.46-6.91-3.24-13.55,1-20.06,3.67-5.69,6-12.06,8.91-18.1,1.09-2.24.21-4-1.81-5.29-2.25-1.4-3.07.37-4.15,1.8-3.42,4.55-7,9-10.34,13.61-1.52,2.11-2.19,1.44-3.17-.29a16.75,16.75,0,0,1-.64-16.37c1.26-2.62,2.54-5.23,3.64-7.91,1.81-4.41,3.51-8.86,5.17-13.33a4.14,4.14,0,0,0-2.09-5.54c-2.53-1.36-3.12.91-4.1,2.43-2.95,4.63-5.89,9.27-8.91,13.86-1.85,2.82-3,2.87-4.78.16-3.63-5.54-4.68-11.4-1.94-17.7,2.27-5.22,4.42-10.5,6.63-15.75a5.32,5.32,0,0,0,.58-3.6,4.33,4.33,0,0,0-3.07-3.23c-1.7-.47-2.27,1-3,2.16-2.34,3.91-4.8,7.76-7.05,11.72-2,3.54-4,3.76-6.45.44a11.8,11.8,0,0,1-1.08-1.9A267.28,267.28,0,0,1,286.64,23.82a266.45,266.45,0,0,1,167.91,61.6A13.68,13.68,0,0,1,449.79,93c-1.15,1-1.94,1.32-2.89-.27-2.72-4.52-5.56-9-8.33-13.46-.72-1.16-1.34-2.51-3.06-2a3.83,3.83,0,0,0-3,3.25,9.13,9.13,0,0,0,1,4.81c2,5,4.05,10,6.13,15,2.77,6.63,1.32,12.54-3,18-1.09,1.36-1.88,1.66-3-.08-3.33-5.24-6.82-10.39-10.19-15.61-1.43-2.21-3.24-2.45-5-.47-1.39,1.59-1.26,3.36-.53,5.24,2.61,6.65,5,13.38,8.28,19.76a17.23,17.23,0,0,1-.41,17.24c-1.13,2-1.83,1.67-3,.11-3.59-4.82-7.34-9.52-10.87-14.38-1.57-2.17-3.08-1.8-4.64-.35-2.24,2.1-1.09,4.46-.06,6.58,2.88,6,5.63,12,9,17.75a17.66,17.66,0,0,1,.92,16.93c-1.11,2.56-1.94,2.85-4,.86q-5.55-5.43-11-11c-1-1.07-1.92-2.35-3.63-1.3a3.72,3.72,0,0,0-1.92,4.21,9.1,9.1,0,0,0,1.38,3.09c3.29,5,6.49,10.11,10.13,14.91,4,5.28,4.28,11.07,2.14,17.11-1,2.79-2,3-4.26,1q-5.77-5.21-11.4-10.56c-1.9-1.81-3.59-1.64-5,.6s-.28,4.19,1.05,6q6,8.1,12.2,16.1a15,15,0,0,1,2.94,13.17c-.84,3.59-2.2,4.19-5.07,2-4.27-3.29-8.53-6.59-12.71-10-2-1.66-3.39-1-4.53.94-1.41,2.37,0,4.23,1.37,5.89,4.53,5.39,9.08,10.78,13.82,16a15.33,15.33,0,0,1,4,13.45c-.58,3.69-1.73,4.23-4.92,2.13q-6.12-4-12.18-8.07c-1.21-.82-2.35-2-3.83-.62a4,4,0,0,0-1.22,4.52,8.49,8.49,0,0,0,2.47,3.53c4.32,4.18,8.56,8.44,13,12.49s6.33,8.63,5.63,14.43c-.37,3.11-1.31,3.62-4.09,2.08-4.52-2.52-9-5.13-13.48-7.72-1.32-.76-2.65-1.43-4-.13a3.88,3.88,0,0,0-.86,4.83,8.17,8.17,0,0,0,2,2.39c4.82,4.24,9.58,8.58,14.58,12.6,4.17,3.36,6.42,7.44,6.46,12.8,0,3.92-.82,4.55-4.34,3q-6.24-2.81-12.5-5.53c-3.67-1.59-6.05,1.75-4.05,5.26,3,5.21,12.43,9.44,17.32,12.7,4.52,3,6.11,7.42,6.13,12.55,0,2.83-1.37,3.7-4.07,2.63q-6.5-2.58-12.92-5.31c-1.3-.55-2.57-1.17-3.65.19s-1.72,2.86-.87,4.6a7.55,7.55,0,0,0,3,3.06c5.25,3.33,10.48,6.69,15.77,9.95,4.59,2.82,6.56,7,6.75,12.22.11,2.85-.87,3.51-3.63,2.63-4.43-1.42-8.86-2.88-13.3-4.3-1.4-.44-2.87-.87-3.85.8s-1.33,3.33,0,4.91a12.39,12.39,0,0,0,3.76,2.7c4.76,2.53,9.47,5.15,14.27,7.6,5.52,2.8,8.32,7.27,8.66,13.37.19,3.31-.53,4-3.75,3.22-4.15-.94-8.27-2-12.4-3-2.88-.69-4.27.54-4,3.52.17,2.16,1.63,3.27,3.39,4.07,4.61,2.11,9.08,4.51,13.9,6.18,6.48,2.25,9.62,7.19,10.58,13.74.34,2.3-.62,3.39-3,3-4.19-.68-8.4-1.32-12.57-2.09-1.47-.28-2.89-.91-3.73.91a4.27,4.27,0,0,0,.44,4.95,7.22,7.22,0,0,0,3.16,1.9c4.58,1.66,9.11,3.49,13.74,5,6.05,1.93,9.45,6.07,10.87,12.07.74,3.09.13,3.85-3,3.52-4.64-.49-9.27-1-13.88-1.71-2.53-.38-3.47.76-3.65,3-.23,2.82,1.55,4.09,3.9,4.87,5.7,1.89,11.37,3.91,17.13,5.61a13.91,13.91,0,0,1,9.53,8.61c1.24,3.08.23,4.66-3,4.5-4.14-.2-8.28-.38-12.42-.61-1.5-.08-3-.23-3.59,1.61a4,4,0,0,0,1.41,4.72c1.62,1.24,3.6,1.56,5.49,2.07,4.9,1.32,9.83,2.54,14.71,3.91a14.43,14.43,0,0,1,4.12,1.83Q441.63,492.47,434.77,497.5ZM105.4,99.39c.84,2.46.26,3.83-2.37,4.14l-4.88.59q3.21-3.3,6.56-6.48A18.76,18.76,0,0,1,105.4,99.39Zm370.31,5.66c-3.91-.47-7.82-1-11.72-1.53-1.67-.23-3.41-.55-3.11-3A11,11,0,0,1,464.35,94Q470.19,99.34,475.71,105.05Zm-27.2-45.57q7,5.16,13.7,10.78l1.58,1.33a269.78,269.78,0,0,1,72.58,98.16,274.34,274.34,0,0,0-52-72.35q-3.33-3.33-6.77-6.54c-4.74-4.44-9.65-8.71-14.63-12.75q-5.81-5.33-11.87-10.29A274.13,274.13,0,0,0,309.87,7.73,268.64,268.64,0,0,1,448.51,59.48ZM113.83,73.06A268.87,268.87,0,0,1,173,33.82a268.52,268.52,0,0,1,186.58-8.09,275.08,275.08,0,0,0-69.69-8.89c-1.07,0-2.14,0-3.18,0s-2.14,0-3.21,0A274,274,0,0,0,112.81,76.15q-8.88,7-17.2,14.84c-1.38,1.28-2.75,2.59-4.11,3.91,1.22-1.33,2.43-2.64,3.68-4Q104.06,81.56,113.83,73.06ZM61.64,121.43A274.61,274.61,0,0,0,36.41,168c-2.49,5.9-4.82,12-6.9,18.06A272.67,272.67,0,0,0,9.16,271.45,265.86,265.86,0,0,1,61.64,121.43ZM21.89,283.5A267.12,267.12,0,0,1,90.15,112.65q9.38,1.11,18.78,2.13c4.26.46,7.07,2.65,8.27,6.82,1,3.55.2,4.9-3.52,5-4.27.14-8.48.61-12.7,1.17-1.35.18-2.84.07-3.06,1.89a3.83,3.83,0,0,0,2,4.21,10.76,10.76,0,0,0,3.28.88c4.83.64,9.66,1.22,14.5,1.8a13.19,13.19,0,0,1,11,11.76c.13,2.33-.65,3.4-3.2,3.32-4.86-.15-9.75,0-14.63,0-1.48,0-3-.08-3.34,1.91-.28,1.76,0,3.38,1.75,4.29a13.05,13.05,0,0,0,3.21,1.08c4.44,1,8.91,2,13.34,3,8.41,2,10.37,4.2,11.58,12.72.34,2.42-.38,3.58-3,3.3-5.45-.61-10.92-1.14-16.37-1.77-2.48-.29-3.74.83-3.53,3.31s2,3.26,3.89,3.92c5.87,2.06,11.76,4,17.61,6.12a12.13,12.13,0,0,1,8.21,12c-.09,2.62-1.49,3.87-4,3.4q-7.47-1.38-14.93-2.92c-1.52-.32-2.9-.59-3.72,1.14a3.56,3.56,0,0,0,.59,4.31,11.53,11.53,0,0,0,4,2.29c5.34,2.28,10.7,4.49,16,6.76,4.3,1.81,6.32,4.87,6.29,9.42,0,3.9-1.23,4.82-5,3.86-4.51-1.14-9-2.31-13.56-3.37-1-.24-2.35-.62-3,.75a3.7,3.7,0,0,0,.1,4.12,8.27,8.27,0,0,0,3.16,2.42q8,4.06,16,8.22a9,9,0,0,1,5.17,8.85c-.06,1.77-.19,3.53-.23,5.29s-.85,2.25-2.58,1.64c-5.27-1.85-10.6-3.58-15.88-5.4-1.18-.41-2.38-1.17-3.39.15a3.78,3.78,0,0,0-.49,4.09,6.67,6.67,0,0,0,2.86,2.78c4.71,2.83,9.31,5.85,14.14,8.46,5.37,2.89,7.41,7.18,6.7,13.1-.42,3.53-1.34,4.21-4.61,2.92q-7.08-2.79-14.13-5.67c-1.33-.54-2.53-1-3.56.47s-1.26,3-.09,4.29a18.81,18.81,0,0,0,3.48,3.06q7,4.9,14.12,9.65c3.78,2.53,5.32,5.93,4.38,10.42a39.22,39.22,0,0,0-.73,4.29c-.23,2.64-1.33,2.45-3.24,1.35-5.21-3-10.52-5.8-15.78-8.7-1.23-.67-2.49-1.36-3.63,0a3.36,3.36,0,0,0-.4,4.31,23.14,23.14,0,0,0,3.43,3.57c4.67,4.1,9.41,8.13,14.09,12.22,4.42,3.86,5.5,8.24,3.41,13.07-1,2.31-2.37,2.92-4.61,1.55-4.77-2.92-9.6-5.75-14.38-8.65-1.23-.75-2.45-1.34-3.65-.12s-1.79,2.54-1,4.23a9.54,9.54,0,0,0,2.41,2.8c4.92,4.45,9.89,8.85,14.72,13.39,4.06,3.81,4.76,8.37,2.47,13.33-1.08,2.3-2.38,2.88-4.58,1.28-4.78-3.46-9.68-6.75-14.45-10.22-1.81-1.33-3-.88-4.09.82-1.53,2.5-.09,4.41,1.5,6.09,4.06,4.29,8.28,8.44,12.33,12.74,5.94,6.27,6.38,9.78,2.88,17.68-1,2.19-1.82,2.28-3.55.85-5-4.17-10.16-8.19-15.18-12.36-1.89-1.57-3.22-1-4.34.76-1.37,2.18-.25,4,1.12,5.62,4.38,5.27,8.84,10.46,13.17,15.75,4,4.9,4.43,10.89,1.35,15.89-1.05,1.68-2.17,2.14-3.74.7-4.58-4.2-9.22-8.35-13.73-12.62-1.25-1.19-2.23-2.66-4.15-1.36s-2.06,3.08-1.31,5a15.08,15.08,0,0,0,2,3.15c4,5.44,8,10.85,12,16.28,2.66,3.63,3.32,7.52,1.45,11.71-1.6,3.6-3,3.86-5.6,1-3.51-3.82-7-7.69-10.47-11.5-1.18-1.29-2.37-2.82-4.47-1.58a4.91,4.91,0,0,0-2.17,6.2,16.44,16.44,0,0,0,1.46,2.39q5.43,8.14,10.89,16.27c2.73,4.09,2.61,8.16-.06,12.21-2.35,3.56-3.46,3.62-6.32.37q-5.75-6.54-11.54-13c-.8-.9-1.52-2.22-3-1.32-1.31.76-2.37,1.76-2.39,3.3A267.24,267.24,0,0,1,21.89,283.5ZM130.06,504.92c-3.47-2.28-6.9-4.64-10.26-7.09q-3.1-2.24-6.13-4.58-2.57-2-5.09-4c-1.6-1.47-3.18-3-4.73-4.46A269,269,0,0,1,43.23,397a274.18,274.18,0,0,0,52.13,72.56c1.68,1.68,3.39,3.35,5.11,5q7.75,7.39,16,14.11,5.59,4.56,11.43,8.82,2.87,2.09,5.79,4.11A274.24,274.24,0,0,0,257.15,548.2,269,269,0,0,1,130.06,504.92Zm313.7,1.55A268.81,268.81,0,0,1,286.67,560,265.71,265.71,0,0,1,207.43,547,276.62,276.62,0,0,0,384.14,534.3c4.35-1.84,8.74-3.83,13-5.91a274.23,274.23,0,0,0,42.7-22.72Q445.51,502,451,498c.84-.6,1.67-1.22,2.5-1.84q5.34-3.94,10.49-8.18,9.15-7.49,17.69-15.81-8.08,8.85-16.9,16.91A269.16,269.16,0,0,1,443.76,506.47ZM537.3,378.2a267.5,267.5,0,0,1-31.9,56.12,274,274,0,0,0,46-133A266.62,266.62,0,0,1,537.3,378.2Z" transform="translate(-2.03 -0.01)"/><path d="M346.59,48.24h0a262.45,262.45,0,0,0-50.68-6.84c-3.27-.16-6.58-.16-9.78-.15h-6.25l-4.25.14c-1.75.07-3.56.13-5.32.23-2,.07-4,.25-6,.42l-6.8.58c-3.16.28-6.35.71-9.44,1.13l-3.26.44c-3.8.61-8.22,1.34-12.6,2.15l-4.36.95c-2.65.57-5.39,1.16-8.1,1.81-1.44.4-2.88.78-4.32,1.16-2.61.68-5.31,1.4-7.95,2.19a65.08,65.08,0,0,0-12,4.74l.67,1.6a116.92,116.92,0,0,1,18.6-3.57c2-.27,4-.55,6-.85,2.67-.36,5.4-.68,8-1l4.41-.53,12.45-1.19,12.47-.82,6.7-.3c1.89-.09,3.83-.18,5.77-.16,7.36-.17,16.08-.27,24.91.18a385.59,385.59,0,0,1,49.53,5.07,415.34,415.34,0,0,1,48.81,11.51l.65-1.61A215.08,215.08,0,0,0,346.59,48.24Z" transform="translate(-2.03 -0.01)"/><path d="M278.63,56.7c-1.73-.09-3.48-.08-5.17-.08h-3.33l-2.24.08c-.94,0-1.89.07-2.81.12S263,57,261.93,57l-3.61.31c-1.68.15-3.37.38-5,.6l-1.74.23c-2,.33-4.35.71-6.68,1.14l-2.3.5c-1.4.3-2.85.62-4.3,1l-2.27.6c-1.39.37-2.82.75-4.23,1.17a35.11,35.11,0,0,0-6.41,2.53l.67,1.6a61.78,61.78,0,0,1,9.76-1.87c1.07-.14,2.14-.29,3.18-.45,1.41-.19,2.82-.36,4.22-.52l2.34-.28,6.56-.63,6.58-.44,3.53-.15c1-.05,2-.1,3-.09,3.88-.08,8.48-.14,13.13.1A203.26,203.26,0,0,1,304.52,65a219.26,219.26,0,0,1,25.74,6.07l.64-1.61a113.78,113.78,0,0,0-25.42-9.17A138.68,138.68,0,0,0,278.63,56.7Z" transform="translate(-2.03 -0.01)"/><path d="M384.7,425.93c-.53-1.45-1.06-2.9-1.6-4.32-.69-1.92-1.37-3.88-2-5.78-.36-1.07-.73-2.13-1.09-3.16l-2.87-9-2.61-9.09-1.29-4.9c-.37-1.38-.75-2.81-1-4.25-1.3-5.42-2.77-11.85-3.86-18.43a292.82,292.82,0,0,1-4.18-37.42,314.56,314.56,0,0,1,.69-37.92l-2.28-.38a163.15,163.15,0,0,0-5.12,38.39,199.1,199.1,0,0,0,3.07,38.7c.4,2.45.94,4.91,1.46,7.28.17.75.33,1.5.49,2.25l.53,2.4.8,3.17c.32,1.27.66,2.58,1,3.85.37,1.48.83,2.94,1.26,4.35l1.53,5c.72,2.31,1.55,4.61,2.36,6.83l.85,2.36c1.07,2.73,2.32,5.89,3.62,9,.48,1,.94,2,1.4,3.06.85,1.88,1.73,3.81,2.66,5.74.52,1,1,2,1.54,3,.93,1.83,1.9,3.72,2.92,5.56a49.21,49.21,0,0,0,5.48,8.2l1.9-1.33A86.91,86.91,0,0,1,384.7,425.93Z" transform="translate(-2.03 -0.01)"/></svg>