<svg id="katman_1" data-name="katman 1" xmlns="http://www.w3.org/2000/svg" viewBox="0 0 479.13 566.93"><path d="M523,132.43a131.92,131.92,0,0,0-34.38-89c-1.1-1.2-2.2-2.38-3.28-3.48l-1.12-1.14c-1.11-1.1-2.25-2.2-3.39-3.27s-2.5-2.29-3.82-3.42c-2.37-2.06-4.86-4.05-7.4-5.94-.55-.41-1.1-.82-1.66-1.22A132.63,132.63,0,0,0,339.07,10.42c-2.13.9-4.24,1.86-6.24,2.83a131.55,131.55,0,0,0-24.49,13.6c-1.86,1.31-3.74,2.71-5.6,4.17q-1.53,1.2-3,2.46c-1.5,1.24-3,2.58-4.54,4-.51.46-1,.93-1.51,1.4-1,.89-1.88,1.8-2.81,2.72l-2,2A132.3,132.3,0,0,0,271.4,204.16a132.85,132.85,0,0,0,18.38,25.66c1.31,1.43,2.7,2.89,4.14,4.32a131.91,131.91,0,0,0,93.63,38.78h3.06a131.89,131.89,0,0,0,80.62-27.35,133.09,133.09,0,0,0,11.6-10l1.42-1.39A132,132,0,0,0,523,140.5c0-1.29,0-2.65-.06-4S523,133.72,523,132.43Zm-43.85,84.28a1.56,1.56,0,0,0-2.05.66l-.11.13-5.76,6.64a1.1,1.1,0,0,1-.75.47h0c-.26,0-.57-.21-.91-.61a4.69,4.69,0,0,1-.47-5.45c.6-1,1.26-2,1.9-2.94l.69-1,1.14-1.7c.74-1.08,1.47-2.17,2.16-3.28a2.81,2.81,0,0,0-1-4,1.88,1.88,0,0,0-1-.37,2.07,2.07,0,0,0-1.51,1c-.1.13-.19.25-.29.36l-1.41,1.53c-1.21,1.32-2.42,2.64-3.65,3.94-.53.56-.77.6-.91.61s-.35-.16-.71-.87a4.88,4.88,0,0,1,.49-5.41q1.44-2,2.9-3.92l2.78-3.75a9.64,9.64,0,0,0,1.18-2,2.11,2.11,0,0,0-1-2.7c-.95-.65-1.63,0-2,.43l-.17.16q-3.21,3-6.47,6c-.56.51-.81.6-.92.56s-.34-.2-.69-.93a5.59,5.59,0,0,1,.41-6.16c.61-.82,1.29-1.62,1.95-2.39.33-.38.65-.76,1-1.15l1.12-1.33c1-1.18,2-2.4,3-3.63a2.36,2.36,0,0,0-.11-3.31c-1.07-1.1-1.93-.32-2.44.16l-.29.26c-2.23,1.81-4.48,3.62-6.75,5.4l-.09.07a2.44,2.44,0,0,1-.75.44c-.05,0-.15-.11-.26-.34-1.5-3.21-1.32-5.66.55-7.71a21.47,21.47,0,0,1,1.9-1.83A55.27,55.27,0,0,0,465,173.1a2.26,2.26,0,0,0,0-3.18c-1-1.13-1.9-.41-2.45,0l-.3.23-3.66,2.53c-.95.65-1.9,1.3-2.84,2-.39.27-.7.39-.93.32s-.42-.3-.62-.73a4.72,4.72,0,0,1,1.11-5.87c1-.91,1.94-1.8,2.92-2.69S460,164,461,163.13c.22-.21.45-.41.68-.61a8.48,8.48,0,0,0,1.7-1.78,2.2,2.2,0,0,0-.33-2.87c-.8-.86-1.67-.33-2.19,0l-.12.08c-2.26,1.35-4.53,2.68-6.81,4-.58.34-1,.47-1.21.38s-.42-.46-.6-1.11a4.59,4.59,0,0,1,1.41-5.2c2.43-2.06,4.84-4.15,7.24-6.24a8.87,8.87,0,0,0,1.41-1.46,2.18,2.18,0,0,0-.27-2.9,1.51,1.51,0,0,0-2.15-.07l-.25.15c-1.2.67-2.41,1.33-3.62,2s-2.56,1.39-3.83,2.1c-.52.28-.68.22-.7.21s-.19-.23-.24-.65c-.55-4.21-.54-5.4,3.13-7.53.48-.28.95-.58,1.41-.89,1.72-1.19,3.44-2.38,5.14-3.6a2.27,2.27,0,0,0,.63-3.11c-.65-1.25-1.84-.73-2.55-.41s-1.74.72-2.62,1.06a39.79,39.79,0,0,0-4,1.7,1.33,1.33,0,0,1-1.05.2c-.3-.14-.46-.62-.55-1a5.34,5.34,0,0,1,2.51-5.91c1.77-1.08,3.56-2.13,5.35-3.19l1.82-1.07a3.94,3.94,0,0,0,1.76-1.76,2.21,2.21,0,0,0-.31-2.26,1.46,1.46,0,0,0-1.86-.44l-2.51.86c-1.56.54-3.12,1.07-4.67,1.62-.3.11-1.18.43-1.45.25s-.3-.6-.33-1.42a5.78,5.78,0,0,1,3.21-5.72c1.56-.85,3.2-1.65,4.78-2.42l2.66-1.32c1.82-.93,1.82-2.19,1.49-3.08-.55-1.54-1.81-1.17-2.56-1l-.38.1c-1.09.26-2.18.56-3.27.84l-2.36.62q-1.12.28-1.5,0c-.26-.2-.39-.66-.41-1.42a4,4,0,0,1,2.78-4.18c2.67-1.11,5.33-2.22,8-3.36a5.39,5.39,0,0,0,1.66-1,2.17,2.17,0,0,0,.45-2.73,1.63,1.63,0,0,0-2.05-.71l-2.57.47c-1.59.29-3.18.58-4.76.89a1.25,1.25,0,0,1-1-.08,1.23,1.23,0,0,1-.31-.93A5,5,0,0,1,458.06,92c1.33-.53,2.71-1,4.05-1.45.75-.25,1.51-.51,2.26-.78l.6-.21a24.57,24.57,0,0,0,2.64-1,2.2,2.2,0,0,0,1.21-2.78c-.4-1.27-1.41-1.14-2.08-1.07l-.24,0-2.57.23c-1.73.15-3.45.3-5.17.48a1.06,1.06,0,0,1-.76-.12c-.14-.12-.2-.42-.19-.88a5.75,5.75,0,0,1,4.25-5.5c1.68-.44,3.42-.81,5.09-1.18l2.5-.54a4.31,4.31,0,0,0,1.93-.79,2.24,2.24,0,0,0,.69-2.5c-.29-1.13-1.35-1.11-1.89-1.11-.83,0-1.67,0-2.5,0l-2.19,0h-2.78a.75.75,0,0,1-.61-.15,1,1,0,0,1-.16-.65,5.52,5.52,0,0,1,3.49-5.14,10.44,10.44,0,0,1,2.58-.5c.38,0,.76-.08,1.14-.14.82-.13,1.64-.23,2.46-.34,1.05-.14,2.1-.28,3.15-.45a2.31,2.31,0,0,0,2-2.47c0-1.41-1.15-1.53-1.88-1.6l-.25,0a58.63,58.63,0,0,0-6.14-.49,1.55,1.55,0,0,1-1.2-.45,1.61,1.61,0,0,1,0-1.36A3.87,3.87,0,0,1,470.82,56c.84-.12,1.69-.21,2.53-.31l3.06-.34c1.75-.2,3.49-.39,5.22-.6a3,3,0,0,0,.94-.26A130.79,130.79,0,0,1,497,73.84a127.71,127.71,0,0,1-16.81,146.42,3.59,3.59,0,0,0,.37-1.33A2.19,2.19,0,0,0,479.18,216.71ZM390.61,8.08h-3.06a131.88,131.88,0,0,0-80.41,27.2,128.45,128.45,0,0,1,27.57-18.17,128.53,128.53,0,0,1,73.42-7.88A134.48,134.48,0,0,0,390.61,8.08Zm87.93,42.17-4.32-.58c-1-.13-1.17-.28-1.1-.9a4.75,4.75,0,0,1,1.23-2.57C475.76,47.5,477.16,48.86,478.54,50.25Zm-11.49-5.53c-.31.26-.42.28-.44.28h0s-.09,0-.26-.3c-.84-1.4-1.7-2.78-2.57-4.17-.47-.76-.95-1.52-1.42-2.29l-.09-.14c-.32-.54-.82-1.33-1.9-1A2.3,2.3,0,0,0,458.62,39a4.8,4.8,0,0,0,.51,2.55c1,2.4,1.95,4.8,2.95,7.18,1.18,2.84.73,5.51-1.39,8.16a1.25,1.25,0,0,1-.36.37s-.11,0-.32-.36q-1.38-2.17-2.81-4.32c-.69-1.06-1.39-2.11-2.08-3.18a2,2,0,0,0-1.52-1.07,1.9,1.9,0,0,0-1.6.8,2.72,2.72,0,0,0-.33,3l.75,1.92a72.92,72.92,0,0,0,3.25,7.6,7.85,7.85,0,0,1-.2,7.84c-.17.3-.27.4-.27.43s-.16-.11-.39-.43c-.73-1-1.48-2-2.22-2.92-1-1.32-2-2.63-3-4a2,2,0,0,0-1.36-.92,2,2,0,0,0-1.55.69c-1.33,1.23-.63,2.65-.13,3.69l.81,1.68c1.09,2.28,2.21,4.64,3.5,6.86a8,8,0,0,1,.42,7.71c-.3.71-.46.76-.47.76s-.16,0-.7-.5c-1.59-1.54-3.31-3.27-5.26-5.26l-.16-.16c-.44-.47-1.1-1.19-2.15-.53a2.21,2.21,0,0,0-1.13,2.5,4.79,4.79,0,0,0,.72,1.64L443,82c1.27,2,2.59,4,4,5.89a7.76,7.76,0,0,1,1,7.78c-.26.73-.43.8-.47.81s-.25,0-.83-.51c-1.64-1.48-3.37-3.09-5.46-5.06a2.11,2.11,0,0,0-1.67-.71,2.08,2.08,0,0,0-1.45,1.09c-.92,1.44,0,2.66.52,3.38q2.91,3.89,5.86,7.73a6.75,6.75,0,0,1,1.33,5.93c-.22.94-.46,1.16-.59,1.2s-.41,0-1.12-.51c-2.06-1.6-4.08-3.16-6.08-4.79a1.92,1.92,0,0,0-1.54-.53,2,2,0,0,0-1.32,1.1c-.89,1.48.1,2.66.7,3.36,2,2.4,4.31,5.13,6.64,7.68a7,7,0,0,1,1.83,6.08c-.15.94-.35,1.16-.45,1.2s-.4,0-1.21-.49c-1.95-1.28-3.9-2.58-5.84-3.87l-.2-.15a1.56,1.56,0,0,0-2.2-.11,2.43,2.43,0,0,0-.72,2.65,4.51,4.51,0,0,0,1.31,1.88l1.87,1.83c1.42,1.38,2.88,2.81,4.37,4.18a7.2,7.2,0,0,1,2.55,6.52c-.09.82-.25,1-.3,1s-.26.06-1-.34c-1.9-1.06-3.79-2.15-5.68-3.24l-.78-.46a1.87,1.87,0,0,0-2.46,0,2.36,2.36,0,0,0-.5,2.86,4.59,4.59,0,0,0,1.05,1.28l1.49,1.31c1.78,1.59,3.63,3.22,5.52,4.75a7.09,7.09,0,0,1,2.93,5.78c0,1.07-.14,1.28-.21,1.32s-.32.09-1.23-.31c-2-.9-4-1.79-6-2.66a2.06,2.06,0,0,0-2.44.37,2.4,2.4,0,0,0-.08,2.81c1.12,2,3.87,3.55,6.3,4.95.8.46,1.56.9,2.15,1.29a6.23,6.23,0,0,1,2.74,5.65c0,.48-.09.82-.27.94s-.56.08-1.06-.11c-1.86-.74-3.83-1.55-6.25-2.58-.6-.25-1.51-.64-2.23.27a2.45,2.45,0,0,0-.47,2.68,4.09,4.09,0,0,0,1.61,1.66l1.73,1.1c1.94,1.24,3.88,2.47,5.84,3.68a6.22,6.22,0,0,1,3,5.49c0,.69-.1.87-.16.91s-.28.12-1-.1l-2.55-.83c-1.28-.41-2.55-.83-3.83-1.23a1.77,1.77,0,0,0-2.38.58,2.32,2.32,0,0,0,0,2.89,6.42,6.42,0,0,0,1.94,1.4l2.45,1.31c1.46.8,2.92,1.58,4.41,2.34a6.7,6.7,0,0,1,3.9,6c.05.8,0,1.06-.13,1.13s-.34.12-1.11-.06c-1.28-.29-2.56-.6-3.84-.91l-2.1-.51a1.83,1.83,0,0,0-2.5,2.18,2.81,2.81,0,0,0,1.89,2.33l1.88.89a47.5,47.5,0,0,0,4.83,2.09c2.74.95,4.3,3,4.77,6.23a1,1,0,0,1-.11.82c-.12.13-.41.16-.79.1l-1.1-.17c-1.65-.26-3.28-.52-4.92-.83l-.27-.06c-.6-.12-1.52-.33-2,.76a2.49,2.49,0,0,0,.28,2.87,3.94,3.94,0,0,0,1.71,1l2.12.79c1.46.55,3,1.11,4.49,1.6a7,7,0,0,1,4.9,5.46c.19.81.11,1,.07,1.06s-.23.15-1,.07c-2.12-.23-4.38-.48-6.63-.82a2,2,0,0,0-1.61.3,2.09,2.09,0,0,0-.67,1.55,2.68,2.68,0,0,0,2.18,2.8l2.37.8c1.91.65,3.89,1.32,5.86,1.9a6.26,6.26,0,0,1,4.28,3.86c.24.59.28,1,.13,1.25a1.38,1.38,0,0,1-1.11.28l-.88,0c-1.69-.08-3.39-.16-5.16-.26-.69,0-1.74-.08-2.11,1.1a2.41,2.41,0,0,0,.84,2.77,5.93,5.93,0,0,0,2.33.95l.46.12,2.9.77c1.39.36,2.78.72,4.16,1.1a8,8,0,0,1,1.3.51c-1.89,1.56-3.85,3.08-5.82,4.53a1.82,1.82,0,0,0-.95.69,127.91,127.91,0,0,1-18.59,11.11,128.86,128.86,0,0,1-129-17.07l3-.8,3.16-.85a21.63,21.63,0,0,0,2.32-.76c.83-.34,1.74-1.15,1.35-3-.28-1.28-1.36-1.21-2-1.15l-1.77.07c-1.49.07-3,.13-4.48.16-.64,0-.9-.12-1-.2s-.14-.31,0-1a5.52,5.52,0,0,1,3.71-4l2-.64c.9-.29,1.81-.58,2.7-.89l.5-.17c1.47-.49,3-1,4.44-1.59.86-.34,1.79-1.17,1.29-3.18-.33-1.31-1.41-1.14-2.06-1.05l-.29,0-2.44.28c-1.41.16-2.82.31-4.23.49a1,1,0,0,1-.81-.12c-.11-.12-.12-.4,0-.78.64-2.76,2-4.53,4.22-5.41.54-.21,1.08-.39,1.62-.57l1.18-.41.78-.29c1.45-.52,2.94-1.07,4.4-1.65a2.5,2.5,0,0,0,1.67-3.15c-.44-1.63-1.7-1.39-2.54-1.23l-.27.05c-1.43.26-2.87.48-4.31.71l-1.42.22c-.66.11-.86,0-.92-.08a.73.73,0,0,1-.08-.58c.47-3.35,1.84-5.33,4.3-6.23,1.6-.59,3.15-1.31,4.64-2l1.93-.89a6.94,6.94,0,0,0,1.77-1.06,2.4,2.4,0,0,0,.51-3.14c-.61-1.13-1.6-.84-2.23-.66l-.26.07c-1.82.47-3.65.94-5.49,1.36-.86.2-1.19.1-1.31,0s-.26-.44-.14-1.31a6.76,6.76,0,0,1,3.94-5.74,82.27,82.27,0,0,0,7.59-4.15,3.26,3.26,0,0,0,1.31-1.16,2.4,2.4,0,0,0-.19-2.72,1.6,1.6,0,0,0-2.12-.45l-.15.05-2.35.77c-1.2.39-2.4.78-3.6,1.2-.69.24-1.17.27-1.41.08s-.32-.62-.27-1.3a6,6,0,0,1,2.91-4.95c1.89-1.19,3.76-2.4,5.64-3.6l2.15-1.39a3.76,3.76,0,0,0,1.52-1.54,2.46,2.46,0,0,0-.36-2.72,1.73,1.73,0,0,0-2.27-.25l-.16.06c-1,.4-1.95.77-2.93,1.15-1.25.49-2.49,1-3.72,1.48-.49.2-.6.13-.6.13s-.11-.08-.13-.65c-.11-3.06.89-5.1,3.14-6.4a62,62,0,0,0,5.7-3.88l1.34-1a3.32,3.32,0,0,0,1.21-1.42,2.59,2.59,0,0,0-.44-2.71,1.62,1.62,0,0,0-2.21-.19l-1.62.75c-1.44.66-2.86,1.32-4.28,2-.67.33-1.2.41-1.49.21s-.39-.67-.34-1.39a6.81,6.81,0,0,1,2.44-5c1.68-1.41,3.32-2.85,4.93-4.27,1.15-1,2.34-2.08,3.44-3.19a2.21,2.21,0,0,0,0-3.19c-.95-1.13-2.05-.49-2.71-.11l-2.67,1.49c-1.37.76-2.74,1.52-4.09,2.32a1.93,1.93,0,0,1-.53.24s-.1-.13-.19-.64a6.89,6.89,0,0,1,2.49-7,49.32,49.32,0,0,0,4.56-4.33c.56-.57,1.12-1.15,1.69-1.71a4.69,4.69,0,0,0,1.15-1.6,2.43,2.43,0,0,0-.69-2.82c-.95-.86-1.83-.23-2.42.18l-.12.09c-2.17,1.51-4.15,2.84-6.05,4.07-.57.37-.78.32-.83.31s-.24-.15-.38-.92a6.77,6.77,0,0,1,1.64-6.24c1.59-1.77,3.13-3.57,4.68-5.37l1.88-2.18a4.08,4.08,0,0,0,1.13-2,2.58,2.58,0,0,0-.52-2,1.92,1.92,0,0,0-1.47-.7h0c-1,0-1.89.88-2.64,1.6a7.13,7.13,0,0,1-.61.56l-.25.2-3.78,3c-.69.54-1,.54-1,.5s-.29-.18-.51-1.06a7,7,0,0,1,1.39-6.34c1.72-2.19,3.41-4.41,5.1-6.63a11.5,11.5,0,0,0,1.2-1.8,2.42,2.42,0,0,0-.85-3.31,1.47,1.47,0,0,0-2.23.41,2.87,2.87,0,0,1-.29.31l-5.69,5.05c-.3.27-.41.27-.41.27s-.11,0-.27-.43c-1.36-3.2-1.09-5.9.83-8.24a53.94,53.94,0,0,0,3.58-5.14l1.06-1.63a5,5,0,0,0,.92-2,2.41,2.41,0,0,0-1.25-2.6c-1.08-.64-1.76.17-2.16.65l-.14.16c-.59.67-1.19,1.35-1.8,2-1.1,1.24-2.24,2.51-3.32,3.81a2,2,0,0,1-.46.44s-.15-.13-.4-.61a8.62,8.62,0,0,1,.45-9.17,43.57,43.57,0,0,0,3-5.9c.43-1,.85-1.9,1.3-2.83a2.28,2.28,0,0,0-1-3.13c-1.31-.8-2,.16-2.43.74l-.16.24-1.92,2.5c-1,1.31-2.07,2.67-3.06,4a4.9,4.9,0,0,1-.37.44,2.33,2.33,0,0,1-.37-.54,7.58,7.58,0,0,1-.3-7.43l.24-.48c.52-1.08,1.06-2.2,1.52-3.33.92-2.23,1.77-4.5,2.49-6.41a2.47,2.47,0,0,0-1.22-3.23c-1.4-.76-2,.32-2.36,1l-.21.36-.69,1.07q-1.77,2.79-3.58,5.57c-.51.76-.74.82-.8.82s-.27-.05-.72-.74a8,8,0,0,1-.9-8.06q1-2.35,2-4.71c.4-.95.79-1.91,1.19-2.86a3,3,0,0,0,.3-2,2.58,2.58,0,0,0-1.64-1.83,124.13,124.13,0,0,1,154.41,4.52A6.17,6.17,0,0,1,467.05,44.72ZM311.4,40.29c-.73,1.21-1.47,2.41-2.16,3.63-.41.71-.79,1.09-1.13,1.11h0c-.32,0-.73-.33-1.18-.95a4.73,4.73,0,0,1-.32-.52c1.83-1.59,3.71-3.13,5.62-4.6Zm172.85,6.58q-1.61-1.6-3.26-3.15c-2.29-2.15-4.66-4.21-7-6.12-1.84-1.69-3.76-3.35-5.72-5A132,132,0,0,0,423.32,8.58a129,129,0,0,1,43.14,20.79c2.23,1.64,4.43,3.37,6.55,5.15l.76.64a130.22,130.22,0,0,1,9.65,9.12,128.49,128.49,0,0,1,17,22.16A132.84,132.84,0,0,0,484.25,46.87ZM307.41,60.37c-.17.23-.62.36-1.33.38-2.22.08-4.35.33-6.14.57l-.24,0c-.56.06-1.49.15-1.62,1.28a2.26,2.26,0,0,0,1.19,2.48,5.65,5.65,0,0,0,1.72.47c2.14.28,4.27.54,6.42.8l.55.06a5.85,5.85,0,0,1,4.88,5.22,1.24,1.24,0,0,1-.17.9c-.14.15-.43.2-.89.2-1.61-.05-3.25,0-4.82,0-.74,0-1.43,0-2.29,0-.69,0-1.77,0-2,1.3a2.21,2.21,0,0,0,1.08,2.53,6.89,6.89,0,0,0,1.65.57l3,.67c1.14.25,2.29.5,3.42.77,3.82.9,4.65,1.81,5.21,5.72.06.48,0,.8-.1.94a1,1,0,0,1-.82.12L312.5,85l-4.24-.46a1.77,1.77,0,0,0-2.21,2.08,2.72,2.72,0,0,0,2.18,2.28l3.61,1.24c1.62.56,3.23,1.11,4.84,1.69a5.35,5.35,0,0,1,3.63,5.3,1.4,1.4,0,0,1-.39,1.06,1.18,1.18,0,0,1-1,.14c-2.64-.49-5-.95-7.15-1.4-.69-.14-1.74-.37-2.3.8a2.2,2.2,0,0,0,.37,2.59,5.35,5.35,0,0,0,1.82,1.09l.27.11c1.53.66,3.07,1.3,4.62,1.95l3.07,1.29a4,4,0,0,1,2.74,4.09c0,.8-.11,1.27-.34,1.44s-.71.17-1.5,0l-1.29-.33c-1.74-.45-3.48-.89-5.28-1.31a1.48,1.48,0,0,0-1.91.62,2.21,2.21,0,0,0,.09,2.45,4.33,4.33,0,0,0,1.68,1.3q3.85,2,7.69,3.94a3.83,3.83,0,0,1,2.23,3.83c0,.36,0,.73-.05,1.09s-.05,1-.06,1.45-.08.46-.08.46-.12,0-.54-.1c-1.51-.53-3-1-4.55-1.55l-3.08-1-.23-.09a1.46,1.46,0,0,0-1.9.32,2.27,2.27,0,0,0-.29,2.44,3.68,3.68,0,0,0,1.55,1.53c.7.41,1.39.84,2.08,1.27,1.53.95,3.11,1.92,4.72,2.79a5.27,5.27,0,0,1,3,5.83c0,.27-.13,1.09-.4,1.24s-.57,0-1.19-.21q-3.39-1.33-6.77-2.71c-.63-.26-1.56-.65-2.26.38a2,2,0,0,0,0,2.62,9.28,9.28,0,0,0,1.75,1.55c2.17,1.51,4.45,3.07,6.78,4.63a4,4,0,0,1,1.91,4.53,18.64,18.64,0,0,0-.36,2.11c0,.48-.14.59-.14.59s-.19,0-.73-.3c-1.71-1-3.45-1.93-5.19-2.88l-2.39-1.3c-.57-.31-1.51-.84-2.31.12a2.06,2.06,0,0,0-.21,2.63,11.68,11.68,0,0,0,1.71,1.78q1.88,1.65,3.76,3.27c1,.86,2,1.73,3,2.6,2,1.71,2.45,3.59,1.52,5.74-.2.45-.41.72-.63.79a1.22,1.22,0,0,1-.92-.25l-3.84-2.32-3.06-1.83a1.7,1.7,0,0,0-2.32,0,2.1,2.1,0,0,0-.56,2.54,4.55,4.55,0,0,0,1.17,1.41l2,1.81c1.7,1.53,3.45,3.1,5.14,4.69a4.69,4.69,0,0,1,1.08,5.87c-.21.46-.43.71-.64.77a1.36,1.36,0,0,1-.87-.34c-1.11-.8-2.23-1.58-3.34-2.36s-2.4-1.68-3.59-2.54a1.62,1.62,0,0,0-2.62.53c-1,1.61.19,2.87.77,3.47.95,1,1.92,2,2.89,3s2,2.07,3,3.12c2.67,2.84,2.92,4.32,1.29,8-.24.55-.38.59-.39.59s-.14,0-.6-.35c-1.19-1-2.39-2-3.6-2.94s-2.46-2-3.68-3a1.88,1.88,0,0,0-1.49-.54,1.91,1.91,0,0,0-1.27,1,2.61,2.61,0,0,0,.57,3.24c.87,1.05,1.75,2.09,2.63,3.14q1.86,2.19,3.68,4.41a5.88,5.88,0,0,1,.61,7.09c-.19.32-.39.51-.53.53a.94.94,0,0,1-.56-.29l-2.05-1.88c-1.52-1.38-3-2.76-4.53-4.17l-.22-.22a1.65,1.65,0,0,0-2.34-.48,2.27,2.27,0,0,0-.8,2.94,6.73,6.73,0,0,0,.86,1.41l.14.2q1.53,2.09,3.07,4.16l2.68,3.65a4.82,4.82,0,0,1,.64,5.16c-.39.89-.66,1.11-.82,1.13s-.47-.09-1.11-.78L306,209l-2.36-2.59-.11-.12c-.53-.59-1.35-1.47-2.61-.72a2.79,2.79,0,0,0-1.22,3.55,6.21,6.21,0,0,0,.61,1l.12.18q2.61,3.91,5.23,7.81a4.46,4.46,0,0,1,0,5.35c-.31.47-.75,1.09-1.07,1.11h0c-.32,0-.85-.56-1.23-1q-2.76-3.13-5.53-6.26l-.15-.18a1.7,1.7,0,0,0-1.21-.76,1.33,1.33,0,0,0-.68.21,2.85,2.85,0,0,0-1.13,1.06,128.47,128.47,0,0,1-32.09-81.21A128.37,128.37,0,0,1,295,55l8.78,1a3.81,3.81,0,0,1,3.58,2.94C307.56,59.67,307.58,60.14,307.41,60.37ZM297,226.07c.81.81,1.63,1.61,2.46,2.39,2.48,2.36,5.08,4.65,7.71,6.79,1.77,1.44,3.62,2.87,5.5,4.25q1.39,1,2.79,2a132.46,132.46,0,0,0,23.63,13,130,130,0,0,0,13.45,4.85,128.48,128.48,0,0,1-38.32-17c-1.65-1.08-3.3-2.21-4.9-3.38-1-.72-2-1.45-2.93-2.19s-1.63-1.27-2.41-1.9-1.52-1.42-2.27-2.14a128.26,128.26,0,0,1-21.28-26.81A133.24,133.24,0,0,0,297,226.07Zm87.51,41.56A131.63,131.63,0,0,0,436,257.23c2.12-.9,4.23-1.86,6.24-2.84a131.28,131.28,0,0,0,20.56-10.94c1.78-1.15,3.58-2.39,5.35-3.68.41-.28.81-.58,1.21-.88l1.13-.85c-2.06,1.75-4.18,3.44-6.34,5A120.93,120.93,0,0,1,367,266.49,134.32,134.32,0,0,0,384.49,267.63ZM301.76,49.33a1.22,1.22,0,0,1-.83.35l-1,.12c.57-.57,1.15-1.13,1.73-1.69a1.46,1.46,0,0,0,.07.19A1.35,1.35,0,0,1,301.76,49.33Zm-31.2,27.15c-.68,1.46-1.34,2.93-2,4.41-1.2,2.82-2.32,5.75-3.31,8.67a129.69,129.69,0,0,0-5.61,16.38A126.45,126.45,0,0,1,270.56,76.48Zm241.65,93.84q-1.38,5.79-3.31,11.43-1.84,4.41-4,8.68c.56-1.21,1.1-2.44,1.62-3.67A132.67,132.67,0,0,0,512.21,170.32Z" transform="translate(-43.9 -0.01)"/><path d="M385.82,19.8l-2.49.09c-.7,0-1.42.05-2.11.09-1,0-1.93.12-2.88.2l-3.26.28c-1.52.14-3.05.34-4.56.54l-1.57.22c-1.83.29-3.95.64-6.07,1l-2.09.46c-1.28.27-2.59.55-3.91.87l-2.18.58c-1.22.33-2.49.66-3.72,1a30.51,30.51,0,0,0-5.84,2.3l-.37.2.65,1.53.39-.12a56.58,56.58,0,0,1,8.85-1.69l2.89-.41c1.17-.16,2.37-.3,3.53-.44l8.38-.86,6-.4,3.21-.14c.9,0,1.83-.07,2.76-.08,3.54-.08,7.72-.12,11.92.09A184.89,184.89,0,0,1,417,27.6a198.55,198.55,0,0,1,23.36,5.52l.4.12.62-1.55-.37-.19a103.29,103.29,0,0,0-23.11-8.34h0a126.44,126.44,0,0,0-24.4-3.29c-1.58-.08-3.18-.08-4.72-.07Z" transform="translate(-43.9 -0.01)"/><path d="M398.22,29a66.92,66.92,0,0,0-13-1.75c-.84-.05-1.69,0-2.5,0l-3,0-1,0c-.47,0-.95.06-1.53.11l-1.73.15c-.75.07-1.5.17-2.23.26l-1,.15c-1,.15-2.09.33-3.23.55l-1.1.24c-.68.14-1.38.29-2.09.47l-1.23.32c-.63.17-1.27.34-1.9.53a16.29,16.29,0,0,0-3.16,1.25l-.36.2.63,1.53.4-.12a29,29,0,0,1,4.62-.88l.32-.05,1.2-.17,1.48-.19,4.78-.49,5-.29,1.33,0c2,0,4.1-.07,6.27.05a97.28,97.28,0,0,1,12.47,1.27A106.52,106.52,0,0,1,409.87,35l.4.12.62-1.55-.37-.19A55,55,0,0,0,398.22,29Z" transform="translate(-43.9 -0.01)"/><path d="M431.05,187.3c-.18-.66-.35-1.34-.5-2-.62-2.58-1.33-5.65-1.84-8.81a139.3,139.3,0,0,1-2-17.9,148.57,148.57,0,0,1,.34-18.13l0-.42-1.91-.32-.11.4a78.08,78.08,0,0,0-2.47,18.52,95.89,95.89,0,0,0,1.48,18.66c.2,1.22.47,2.43.7,3.51l.24,1.08.64,2.69c.15.61.31,1.24.48,1.84s.4,1.41.62,2.12l.73,2.37c.35,1.12.75,2.23,1.14,3.3l.41,1.15c.51,1.31,1.12,2.83,1.75,4.34l.82,1.8c.36.8.73,1.62,1.13,2.44l.74,1.44c.45.88.91,1.79,1.41,2.68a23.43,23.43,0,0,0,2.69,4l.27.32,1.58-1.12-.2-.36a41.72,41.72,0,0,1-2.64-6.19l-.15-.42c-.21-.57-.42-1.14-.63-1.68-.33-.93-.65-1.86-1-2.77l-.53-1.51L432.92,194l-1.25-4.35Z" transform="translate(-43.9 -0.01)"/><polygon points="88.04 70 88.04 20.83 0 20.83 0 70 16 70 16 230.82 0 230.82 0 279.99 178.75 279.99 178.75 202.24 122.72 202.24 122.72 230.82 72.03 230.82 72.03 70 88.04 70"/><polygon points="215.81 307.77 127.76 307.77 127.76 356.94 136.49 356.94 107.95 520.04 79.41 356.94 88.13 356.94 88.13 307.77 0.09 307.77 0.09 356.94 23.02 356.94 55.83 517.76 39.04 517.76 40.03 566.93 176.93 566.93 176.93 517.76 160.07 517.76 192.87 356.94 215.81 356.94 215.81 307.77"/><polygon points="433.02 385.5 433.02 307.77 254.28 307.77 254.28 356.94 270.28 356.94 270.28 517.76 254.28 517.76 254.28 566.93 433.02 566.93 433.02 489.18 377 489.18 377 517.76 326.31 517.76 326.31 461.74 369.38 461.74 369.38 412.58 326.31 412.58 326.31 356.56 377 356.56 377 385.16 433.02 385.5"/></svg>