<svg id="katman_1" data-name="katman 1" xmlns="http://www.w3.org/2000/svg" viewBox="0 0 566.93 378.51"><path d="M192.53,445.16V370.89c-7.18-2.84-11.77-8.44-11.77-15.35,0-12.55,9.08-20.79,19.66-27.09v-5.06H189.55c-7.27,21.7-16.17,32.68-26.54,32.68a17,17,0,0,1-11.4-4.38l-10.8,23-20.18-43.28a17.88,17.88,0,0,1-11.46-8.05H88A61.16,61.16,0,0,1,81.31,332V351h8v94.21H81v27.57h43.44V445.16h-7.6V388.61l24,51.33,24.06-51.33v56.55h-7.62v27.57h43.44V445.16ZM164.87,323.39l-1.28,2.72a58,58,0,0,0,2.47,12.57,92.63,92.63,0,0,0,7.56-15.29Z" transform="translate(0.78 -94.22)"/><path d="M277.55,323.39a10.31,10.31,0,0,0,1.92,3.45c1.13-.29,2.88-1.52,5-3.45Zm36,9.92a9.89,9.89,0,0,0-.7,3.76c0,1.92,1.48,4.11,5.52,4.48A65.52,65.52,0,0,1,313.52,333.31Zm-19.26,2.46c0-.42,0-.84,0-1.27-4.86,4.4-10.34,7.23-16.4,7.23-11.49,0-21.21-7-26.57-18.34h-.27l-12.13,10.83a22.36,22.36,0,0,1,.26,3.25,31.66,31.66,0,0,1-5.7,17.85V457.15l17.57,15.58h51.33l17.78-15.58V357.48C301.37,356.11,294.26,343.74,294.26,335.77Zm-1.75,109.39H261.05V351h31.46Z" transform="translate(0.78 -94.22)"/><path d="M451.72,323.39a62.91,62.91,0,0,0,2.7,15.31A93.1,93.1,0,0,0,462,323.39Zm12.73,121.77V351h7.89V337.29c-6.12,12.61-13,18.78-21,18.78-10.17,0-16.82-8.53-20.79-19.44l-17.85,38.09-24-51.33H374.37a63.43,63.43,0,0,1-21.14,24.19V351h8v94.21h-8.28v27.57h43.44V445.16h-7.6V388.61l24,51.33,24.06-51.33v56.55h-7.6v27.57h43.44V445.16Z" transform="translate(0.78 -94.22)"/><path d="M561.82,291.22c-.9,3.67-8.77,46.58-22.27,53.76-5.06-4.31-10.76-17.34-10.76-52.78,0-1.31,0-2.61,0-3.92,11.47-10.54,35.66-44.63,35.66-80.18,0-15-4.19-22.4-13.78-22.4-13.35,0-38.25,37.52-38.25,102.1a160.23,160.23,0,0,0,1.72,24.52c-3.8,13.3-9.61,28.62-17.19,32.66-5.06-4.31-10.76-17.34-10.76-52.78,0-1.31,0-2.61,0-3.92,11.48-10.54,35.66-44.63,35.66-80.18,0-15-4.18-22.4-13.77-22.4-13.36,0-38.26,37.52-38.26,102.1a163.62,163.62,0,0,0,1.48,22.91c-5.84,18.51-13.9,34.78-17.88,34.78-1.86,0-6.69-9.22-6.69-31.53,0-19.38,3.07-42.54,3.31-44.32.49-3.74-10.56-8.24-14.52-3.83-.42.47-1.46,2.23-2.49,6.77-2.37-2-5.51-3.56-11.38-3.56-11.11,0-20.7,10.89-23.69,25.45-5.78,3.31-13.52,5.46-22.47,7.27.09-1.31.14-2.65.14-4,0-18.58-9.53-33.56-22.78-33.56-17,0-27.36,25.27-30,44.47a193.07,193.07,0,0,1-1.48-25v-1.59c15.16-10.76,44.74-54.44,44.74-82.7,0-7.6-4.06-15.29-15.38-15.29-21,0-45.8,44.54-45.8,92.44a126.24,126.24,0,0,0,1.81,21.37c-6.21,15.46-20.54,33.56-27.73,33.56-4.55,0-8.74-10.94-8.77-24.71,5.62.87,18.83-8.92,18.83-30.46,0-7.52-6-12.35-14.52-12.35-15.35,0-23.2,23.66-23.2,37.47,0,.6,0,1.17,0,1.76-6.35,7.16-15.63,12.47-25.24,17.3a55.35,55.35,0,0,0-17.8-11.75c-5.75-2.32-7.81-2.27-7.81-6.8,0-14.48,15.25-29.61,22.68-29.61,3.46,0,4.28,9.94,1.26,18.1-.93,2.51,3.06,3.9,4,3.15,1.69-1.36,5.82-8.55,5.82-15.59s-8.55-15.47-20-15.47c-17.28,0-32.83,21.47-32.83,33.41a13.31,13.31,0,0,0,3.25,8.92c-5.88,20.81-15.23,40.66-19.63,40.66-1.89,0-6.69-9.22-6.69-31.53,0-19.38,3-42.54,3.29-44.32.51-3.74-10.56-8.24-14.51-3.83-.44.47-1.46,2.23-2.5,6.77-2.36-2-5.52-3.56-11.38-3.56-10.87,0-20.3,10.43-23.49,24.54a74,74,0,0,1-18.22,5.35c0-.6,0-1.21,0-1.83,0-13.68-10-39-40.21-35.15,4.9-4.89,23.15-22.12,23.15-50,0-13.85-9.63-19.77-17-19.77-13,0-21.43,17.87-26.09,32,.91-10.15,2.17-21,3.85-32.64,1.06-7.38-16.71-10.54-17.9-3.18-4.58,28.48-4.6,47.19-4.6,66.11,0,21.52,1.26,38.57,4,53.29C4.42,313.65-.78,323.17-.78,333.16c0,11.93,13.81,17.92,29.1,17.92,28.53,0,57.71-21,62.64-46.45a85.38,85.38,0,0,0,18-5.21c-.14,1.52-.23,3.07-.23,4.62,0,8.73,2.94,23.29,16.33,23.29,7.49,0,12.18-6.52,17.08-25.26,0,1.81-.06,3.69-.06,5.68,0,15.62,5.5,43.75,21,43.75,12.79,0,21.55-25.15,26.12-42.89,8.53,5.74,21.9,8.42,27.46,16.55-16.42,8-31.26,15.82-31.26,30.38,0,7.34,7.53,12.79,18.51,12.79,11.32,0,30.78-12.79,30.78-30.86,0-4.58-2-9-5-13.1,8.11-4.25,16.15-8.89,22.38-14.76,2.58,17.72,13.58,27.55,25.91,27.55,13.46,0,24.38-18.63,30.39-31.93A132.78,132.78,0,0,0,312,318c-9.31,5.38-13.17,11.56-13.17,17.73,0,6.32,6.18,17.27,24.85,17.27,19.69,0,45.87-17.14,51.09-45.13,8.22-1.82,16-4.16,22.44-7.39-.08,1.17-.13,2.33-.13,3.52,0,8.73,2.94,23.29,16.33,23.29,7.49,0,12.19-6.52,17.08-25.26,0,1.81-.05,3.69-.05,5.68,0,15.62,5.5,43.75,20.95,43.75,9.76,0,17.17-14.67,22.18-29.48,4.93,19.69,14,28.28,21.59,28.28,9.94,0,16.84-13.05,21.36-26.86,5,18.67,13.79,26.86,21.21,26.86,20.6,0,28.17-56.18,28.42-58.64S562.72,287.55,561.82,291.22Zm-7.22-97.57c14.55,21.74-12.73,72.3-25.48,86.86C531.24,241.82,543.39,204.39,554.6,193.65Zm-42.56,0c14.54,21.74-12.73,72.3-25.48,86.86C488.67,241.82,500.82,204.39,512,193.65Zm-156.39-2.29c1.2,0,2.46,4.48,2.46,9.74,0,24.57-25.17,62.37-36.28,72.25C325,231.55,346.47,191.36,355.65,191.36ZM280.31,272c7.41,8.69-2,28.88-9.9,30.56C271,292.46,273.84,281.32,280.31,272ZM21.48,342.64C5.63,342.64,6,338,6,334.53c0-6,2.27-14.14,12.37-19.95a143.76,143.76,0,0,0,6.06,19.6c2,5,9.5,7.37,9.63-1.26,0-3.05-1.37-10.72-2.63-23.23a107.32,107.32,0,0,1,24.88-2.36c7.16,0,13.56-.22,19.24-.69C66.88,323.42,48.3,342.64,21.48,342.64Zm56.82-42c-9.76.82-19.84,1-29,1.06a100.07,100.07,0,0,0-18.43,1.7c-.73-8.68-1.32-19.22-1.39-31.7C31.11,236.54,42.82,203,59.77,199.4c4.88,24.87-5.75,51.55-27,70.41-2,1.75,3.87,4.82,7.18,3.89,1.94-.55,6.25-3.64,15.49-3.64,12.17,0,25.63,4.19,25.63,18.25A35.66,35.66,0,0,1,78.3,300.61Zm48.81,16.73c-.46,0-.47-4.46-.47-6.83,0-22.74,10.66-32.88,12.31-32.88.69,0,1.66,1.11,2.54,2.44C137.32,291.25,133,311,127.11,317.34Zm71.06,44.12c-3,0-4.53-2.39-4.53-5.94,0-11.4,11.44-18.43,25.07-25.52a16.29,16.29,0,0,1,.42,3.73C219.13,347.43,206.12,361.46,198.17,361.46Zm121.34-15.31c-8,0-11.25-4.93-11.25-9.08,0-5,2.28-9.06,6.26-12.44,3.82,9.06,7.57,14.54,8.55,15.53,2.2,2.19,9.23,1.09,6.76-4.57-.45-1-.89-2.12-1.29-3.21a86.31,86.31,0,0,1,0-15.08,127.92,127.92,0,0,1,21.68-5l8.08-1.28C351.68,336.36,330.31,346.15,319.51,346.15Zm40.15-41.56c-3.63.6-7.38,1.22-11.18,1.9a168.71,168.71,0,0,0-19.12,4.42C332.66,289.45,343,271,354.57,271c3.71,0,5.83,16.06,5.83,23.42A69,69,0,0,1,359.66,304.59Zm55.81,12.75c-.45,0-.47-4.46-.47-6.83,0-22.74,10.67-32.88,12.31-32.88.7,0,1.66,1.11,2.54,2.44C425.69,291.25,421.37,311,415.47,317.34Z" transform="translate(0.78 -94.22)"/><path d="M182.63,94.22A80.73,80.73,0,1,0,263.36,175,80.82,80.82,0,0,0,182.63,94.22Zm-27.46,12.72c.24,1,.44,2.06.6,3.1A16.38,16.38,0,0,0,153.3,112a9.9,9.9,0,0,0-3.27,4.28c-.8,2.29,2.84,3.28,3.64,1a6.92,6.92,0,0,1,2.29-2.61l.29-.25a57,57,0,0,1-.31,9.77,14.28,14.28,0,0,0-3.71,2.28,19,19,0,0,0-4.65,5.29c-1.26,2.08,2,4,3.25,1.91a16,16,0,0,1,4.44-4.88c-.27,1.53-.58,3.05-.93,4.57-.73,3.18-1.55,6.37-2.46,9.55-1.94-.14-4.34.84-6,1.51a24.18,24.18,0,0,0-6.6,4.08c-1.86,1.57.82,4.23,2.66,2.67,2.27-1.93,5.58-4,8.76-4.36a127,127,0,0,1-4.48,12.16,28.91,28.91,0,0,0-4.69.54,28.68,28.68,0,0,0-8.1,2.19c-2.22,1-.31,4.22,1.9,3.26a22.13,22.13,0,0,1,5-1.49,37.15,37.15,0,0,1,4.14-.73,90.63,90.63,0,0,1-5.84,10.41,20,20,0,0,0-4.9.27,29.18,29.18,0,0,0-7.17,1.83c-2.23.87-1.26,4.52,1,3.63a29.49,29.49,0,0,1,4.4-1.37,23.52,23.52,0,0,1,4.15-.7,80.73,80.73,0,0,1-7.77,9.23c-1.65-.43-4-.06-5.39,0-2.28.1-5,.07-7,1.24s-.21,4.47,1.9,3.26c1.4-.81,3.55-.66,5.13-.73.47,0,1-.06,1.54-.1a71.84,71.84,0,0,1-11.52,8.4,73.35,73.35,0,0,1,42.15-91.14Zm-40.84,94.75a75.53,75.53,0,0,0,12.81-9.26c0,.55,0,1.08-.06,1.53a23.34,23.34,0,0,1-.78,5.18c-.59,2.35,3,3.36,3.64,1a27.93,27.93,0,0,0,.91-7.83,26.41,26.41,0,0,0-.19-3.23,86.15,86.15,0,0,0,8.2-9.58,34.48,34.48,0,0,1,.23,6.83c-.08,2.43,3.69,2.42,3.77,0a34.89,34.89,0,0,0-.5-7.29,21.33,21.33,0,0,0-.76-3.48c.36-.54.71-1.08,1.05-1.63a92.16,92.16,0,0,0,4.65-8.36c.11.46.23.92.33,1.38a35.36,35.36,0,0,1,1,6.14c.14,2.42,3.91,2.43,3.77,0a45.57,45.57,0,0,0-1.46-8.66,12.83,12.83,0,0,0-1.39-3.69q1.36-3.17,2.53-6.42c.5-1.41,1-2.83,1.46-4.25a18.47,18.47,0,0,1,1.13,4.55c.29,2.38,4.06,2.41,3.77,0a21.76,21.76,0,0,0-1.83-6.75,22.93,22.93,0,0,0-1.47-2.76A129.57,129.57,0,0,0,159,129.54a12.06,12.06,0,0,1,3,5.41c.52,2.37,4.16,1.37,3.64-1a13.44,13.44,0,0,0-2.94-5.8,22.67,22.67,0,0,0-3-3.16A61.15,61.15,0,0,0,160,114.7a15.76,15.76,0,0,1,2.48,2.89c1.38,2,4.65.1,3.26-1.9s-3.66-4.69-6.19-5.76c-.22-1.45-.5-2.9-.86-4.33a73.29,73.29,0,0,1,80.92,23.27,56.72,56.72,0,0,0-6.14,2.06,14.52,14.52,0,0,0-4.29-1.1,34.2,34.2,0,0,0-8.33-.48c-2.41.15-2.42,3.92,0,3.78a32.46,32.46,0,0,1,5.4.06c.38,0,1.15.09,2,.18a55.69,55.69,0,0,0-8.28,5.35c-1.14.9-2.24,1.84-3.32,2.81a24.07,24.07,0,0,0-5.24,0,28.23,28.23,0,0,0-7.25,1.17c-2.31.72-1.33,4.36,1,3.64a28.76,28.76,0,0,1,7.83-1.29,90.07,90.07,0,0,0-7.89,9.53,15.62,15.62,0,0,0-3.64.49,21.72,21.72,0,0,0-6.67,2.59c-2.1,1.21-.2,4.47,1.9,3.26a22.61,22.61,0,0,1,5.67-2.4c-.44.65-.87,1.31-1.3,2a106.76,106.76,0,0,0-5.82,10.25,20,20,0,0,0-5.38,1.06,12.6,12.6,0,0,0-5.43,3.31c-1.68,1.76,1,4.43,2.66,2.67a11.54,11.54,0,0,1,6.27-3,106.7,106.7,0,0,0-4.17,10.92c-2.9.57-6.21,3.2-8,4.68s.8,4.19,2.67,2.66a20.25,20.25,0,0,1,4-2.71A101.09,101.09,0,0,0,185.58,201a17.59,17.59,0,0,0-7.25,7.91c-1,2.19,2.24,4.11,3.26,1.91a14.78,14.78,0,0,1,3.31-4.64,94.9,94.9,0,0,0-.54,10c0,.9,0,1.81,0,2.71-2.31,1.73-4.13,5.82-4.94,7.69-1,2.2,2.3,4.13,3.26,1.9a33.07,33.07,0,0,1,2-4,96.14,96.14,0,0,0,1.39,10.14c-2.21,1.58-3.93,5-4.82,7-1,2.2,2.27,4.12,3.26,1.91a17.37,17.37,0,0,1,2.52-4.43,92.92,92.92,0,0,0,2.64,9c-2.33.22-4.68.34-7.06.34A73.46,73.46,0,0,1,114.33,201.69Zm79.19,45.79a87.61,87.61,0,0,1-2.81-9.63,30.1,30.1,0,0,1,6.83,2.61c2.18,1,4.1-2.22,1.9-3.26a45.13,45.13,0,0,0-5.64-2.26,29.45,29.45,0,0,0-3.94-1.14A93.51,93.51,0,0,1,188.51,223a18.9,18.9,0,0,1,4,3.94c1.45,1.91,4.72,0,3.25-1.9-1.67-2.2-4.5-5.41-7.44-6.56a98.29,98.29,0,0,1,.52-12.37,15.37,15.37,0,0,1,3,6c.61,2.35,4.25,1.35,3.64-1a19,19,0,0,0-6-9.66,101.37,101.37,0,0,1,2.24-10.74,18.09,18.09,0,0,1,3.93,6.22c1,2.23,4.2.31,3.26-1.9-1.08-2.53-3.27-6.7-6-8.52a102.42,102.42,0,0,1,3.72-10,25.64,25.64,0,0,1,2,5.87c.55,2.36,4.19,1.36,3.63-1a27.61,27.61,0,0,0-2.43-6.59,18.87,18.87,0,0,0-1.33-2.32,96.77,96.77,0,0,1,7-12.08c.19.72.29,1.49.38,2a17.52,17.52,0,0,1,.1,4.46c-.21,2.42,3.56,2.41,3.77,0a19.46,19.46,0,0,0-.51-6.67,16.9,16.9,0,0,0-1.14-3.39,91.24,91.24,0,0,1,8-9.33,45.3,45.3,0,0,1-.21,7c-.11,2.43,3.66,2.42,3.77,0a48.41,48.41,0,0,0,0-7.52,19.84,19.84,0,0,0-.36-2.54A52.08,52.08,0,0,1,231.52,136c-.05,1.14-.26,2.47-.31,2.94a28.4,28.4,0,0,1-1.34,5.89c-.77,2.31,2.87,3.3,3.63,1a30.88,30.88,0,0,0,1.52-7.36,29.94,29.94,0,0,0,.21-4.1,55,55,0,0,1,6.91-2.2,73.29,73.29,0,0,1-48.62,115.35Z" transform="translate(0.78 -94.22)"/></svg>