<?xml version="1.0" encoding="utf-8"?>
<!-- Generator: Adobe Illustrator 23.0.3, SVG Export Plug-In . SVG Version: 6.00 Build 0)  -->
<svg version="1.1" id="Layer_1" xmlns="http://www.w3.org/2000/svg" xmlns:xlink="http://www.w3.org/1999/xlink" x="0px" y="0px"
	 viewBox="0 0 1133.9 1133.9" style="enable-background:new 0 0 1133.9 1133.9;" xml:space="preserve">
<style type="text/css">
	.st0{fill:#1E2121;}
	.st1{fill:#A81F26;}
	.st2{fill:#F2F1F2;}
	.st3{fill:#DD353A;}
	.st4{fill:#CFCFCE;}
	.st5{fill:#1D2121;}
	.st6{fill:none;}
	.st7{fill:#AA1F23;}
	.st8{fill:#FDFEFE;}
	.st9{fill:#EE742C;}
	.st10{fill:#BA5234;}
	.st11{fill:#ED1C24;}
	.st12{fill:#C42C3A;}
	.st13{fill:#058743;}
	.st14{fill:#0F4D70;}
	.st15{fill-rule:evenodd;clip-rule:evenodd;fill:#C42C3A;}
	.st16{fill-rule:evenodd;clip-rule:evenodd;fill:#1E2121;}
	.st17{fill:#E8E8E8;}
	.st18{fill:#186634;}
	.st19{fill:#BF2730;}
	.st20{fill:#B47A48;}
	.st21{fill:#3E1E14;}
	.st22{fill:#DBAD5D;}
	.st23{fill:#B84947;}
	.st24{fill:#C3976E;}
	.st25{fill:#9D2023;}
	.st26{fill:#3C2517;}
	.st27{fill:#4A3A31;}
	.st28{fill:#EDAD4F;}
	.st29{fill:#F8C018;}
</style>
<g>
	<path class="st22" d="M152.8,534.7c-16.1-11.7-38.6-7.5-49.4,8.9l-6,9.1c-2.9,4.3-6.1,8.4-10,11.9c-6.1,5.4-13.3,9.7-21.7,12.4
		c-1.3,0.4-2.6,0.8-3.9,1.1l-5.2,7.9c-2.1,3.2,15,18.2,38.2,33.5c23.2,15.3,43.7,25.1,45.8,21.9l5.2-7.9c-0.2-1.3-0.4-2.7-0.5-4
		c-0.8-8.7,0.3-17,2.8-24.6c1.6-5,4.1-9.6,7-14l5.5-8.3C171,567,167.9,545.7,152.8,534.7z"/>
	<path class="st22" d="M242.3,592.2c-4.6-5.5-7.8-11.5-9.7-17.8c-1.2-4.1-1.7-8.4-1.8-12.6l-0.2-8.2c-0.4-15.3-12.5-28.1-27.8-28.4
		c-16.3-0.3-29.4,13-29,29.1l0.2,8.9c0.1,4.2-0.2,8.5-1.1,12.6c-1.5,6.5-4.4,12.7-8.7,18.5c-0.7,0.9-1.3,1.7-2,2.6l0.2,7.7
		c0.1,3.1,18.6,5.2,41.3,4.5c22.7-0.6,41.1-3.6,41-6.7l-0.2-7.7C243.7,593.8,243,593,242.3,592.2z"/>
	<g>
		<path class="st23" d="M219.9,500.5l1.4-1.5c4.4-4.7,4.1-12.1-0.7-16.5l-6.2-5.7c-4.7-4.4-12.1-4.1-16.5,0.7l-1.4,1.5
			c-8,8.7-13.8,19.3-16.8,30.7c-1.7,6.5,4.5,12.3,10.9,10C201.8,515.9,211.9,509.3,219.9,500.5z"/>
		<path class="st23" d="M129.9,484.9l-1.7-1.1c-5.4-3.5-12.6-2.1-16.2,3.3l-4.6,7c-3.5,5.4-2.1,12.7,3.3,16.2l1.7,1.1
			c9.9,6.5,21.3,10.5,33.1,11.6c6.7,0.6,11.4-6.5,8.1-12.4C148,500.2,139.8,491.4,129.9,484.9z"/>
		<path class="st23" d="M171.4,508l-10,0.6c-1.7,0.1-3.1,1.6-3,3.3l1.3,21.6c0.1,1.7,1.6,3.1,3.3,3l10-0.6c1.7-0.1,3.1-1.6,3-3.3
			l-1.3-21.6C174.7,509.2,173.2,507.9,171.4,508z"/>
		<path class="st23" d="M71,523.7c-1.5,0.8-1.6,2.9-0.1,3.7l12.8,7.2l-0.3,11.8c0,1.9,2.3,2.9,3.6,1.5c5.9-6.6,18.2-18.8,33.2-25
			C120.3,522.9,101.7,507.9,71,523.7z"/>
		<path class="st23" d="M255.9,513.2c-32.5-11.6-48.9,5.7-48.9,5.7c15.7,4.2,29.5,14.6,36.3,20.4c1.5,1.3,3.7,0,3.4-1.9l-1.8-11.6
			l11.7-8.9C257.8,515.8,257.4,513.7,255.9,513.2z"/>
	</g>
	<g>
		<path class="st0" d="M246.5,610.1c-18.5-0.1-21.7,23.1-22,38.4c-0.3,0-0.7,0.1-0.9,0.3c-2.2,1.2-3.9,4-10.7,4.5
			c1.7-21-11.5-35.9-25.4-30.6c-1.1-2.8-8.3-6.8-12-5c-8.9,1.3-27.3,15-24.7,39.6c2.7,24.4,17.6,31.2,27.3,31
			c11.5,0.4,30-7.7,33.7-26.9c5.6-1,9.4-2.5,12.8-4.7c0.1,2.2,0.2,3.8,0.2,4.6l-4.1,0.8c-1.6,0.1-1.3,7.6,1.2,7.5
			c0.9,0,1.8-0.5,3.6-0.5c0,0.9,2.7,15.6,3.6,17.4c1.7,5.9,14.7,4,14.7-0.4c0-1.8-0.4-18.7-0.4-19.6c2.3-0.9,5.4-1.7,6.6-1.9
			c3.4-0.9,1-6.7-1.4-6.7l-5.8,0.6c0-2.2-2.5-37.2,7.8-37.2c5.6,0,8.7,5.4,7.5,11.9c-0.4,2.7,8.1,3.2,8.7-0.6
			C268.3,619.8,262.8,610.1,246.5,610.1z M182.3,679.1c-9.5,1-14.2-14-15-25.3c-0.8-10.8,7.4-18.6,9.3-20.4
			c-2.1,8.3,4.6,25.4,25.4,28.2C201.5,667.6,194,677.8,182.3,679.1z M203.5,653.3c-13-2.4-21.6-15.3-16.3-21.7
			C192.9,625.4,206.9,633.7,203.5,653.3z"/>
		<path class="st0" d="M111,407.6c-6.6-0.4-10.1,3.2-9.3,9.9c0,5.3,16.5,6.8,17.6,1.9C120.9,413.2,119.7,408.2,111,407.6z"/>
		<path class="st0" d="M100.1,429.5c-0.5,3.5-2,34.4,3.2,49.6c0.8,2.3,12.7,1.4,12.3-2.9c-0.8-10.4,2.4-44.1,2.5-45.8
			C118.5,425.8,100.8,424,100.1,429.5z"/>
		<path class="st0" d="M168,420.2c7.7,0.1,1.2,50.9,0.8,56.8c-0.5,4.1,11,5,12.8,0.4c2.2-3.8,10.5-41.8,5.5-63.8
			c-1.8-7.4-14.7-7.9-17.8-6.6c-8.9,1.1-19.9,33.7-21.6,36.6c0-0.4-0.4-5.4-0.9-11.5c0,0,0,0,0,0c-0.5-7.5-1-15.7-0.9-18.6
			c0.4-5.6-17.4-6.3-17.1,0.7c0,2,0.5,11.6,1.4,22.7c0,0,0,0,0,0c1.2,15.2,3,32.4,4.8,37.9c1.1,3.6,13.1,0.7,12.9-2.4
			C149,462.3,161.4,420.8,168,420.2z"/>
		<path class="st0" d="M225.9,425.3l2.8,0.1c-1.7,13.8-8.5,51.9,13.5,54.7c12.2,1.6,18.8-7.4,21-17c0.6-2.2-7.2-4.6-7.8-2
			c-2,6.3-4.2,11.6-10.1,10.9c-6.1-0.8-1.2-39.5,1.2-47.3c0,0,5.5-0.6,7.9-0.6c1.7,0.2,2-5.7-0.6-5.9c-1.7-0.1-5.9,0.1-5.9,0.1
			c0.2-1.7,1-6.6,1-6.6c1.2-5-16-8.3-17.7-2c-0.8,4.6-1.1,6-1.4,8.6l-3.2,0.4C223.7,419,224.1,425.2,225.9,425.3z"/>
		<path class="st0" d="M302.6,424.3c-5.4,0.3-11.1,4.2-15.6,22.7c-0.6-9.3,1.3-33.4,1.7-39.2c0.3-5.8-16.1-7.7-16.7-1.6
			c-1,5.6-4.3,40.7,1.4,69.8c1.4,5,13.1,2.4,13.7-0.4c0.9-13.9,8.2-39.2,13.1-39.6c9.8-0.1,3.6,32.5,2.9,38.3
			c-0.6,6,14,6.4,14.9,2.2C322.5,456.1,324.3,422.9,302.6,424.3z"/>
		<path class="st0" d="M366.5,457.6c0,1.7-5.4,15.2-11.4,15.2c-6,0-9.3-1.7-9.3-25.6c0.8,0,21.1-2,27.4-2.9
			c7.4-1.1,2.5-30.4-17.5-30.3c-17.1,0.1-26.7,17.5-26.8,36.1c-0.1,16.6,6.9,31.4,25.8,31.4c11.7,0,19.4-12.9,20.8-22.3
			C375.9,455.6,366.8,455.2,366.5,457.6z M356.2,425.4c9.1,0,14.3,10.3,9.1,11.3c-4.9,0.8-16,1.4-19.4,1.8
			C345.9,433.3,347.1,425.4,356.2,425.4z"/>
	</g>
	<path d="M534.9,712.9c-0.8-1.4-1.8-2.8-2.9-4.1C533,710.1,534,711.5,534.9,712.9z"/>
	<path d="M527.7,700.1l-9.9,2.6v4.4c5.2-0.6,18.4-2.4,26,13c7.6,15.4,5-3.6,5-3.6L527.7,700.1z"/>
	<path d="M613.7,759.6L613.7,759.6c0.1-0.7,0.1-1.4,0.2-2.1L613.7,759.6z"/>
	<g>
		<path class="st12" d="M412.8,789.9c2.3,1.5,5.2,2.2,8.6,2.1c5.4-0.2,9.4-2.3,12.2-6.2c2.5-3.6,3.7-7.9,3.6-12.6
			c-0.1-3.7-1.5-7.1-4.1-10c-2.7-3.2-6.6-4.7-11.5-4.5c-5.2,0.2-9.3,2.2-12.1,5.9c-2.6,3.5-3.8,7.8-3.7,12.5
			c0.1,2.4,0.7,4.8,1.8,7.1C408.8,786.5,410.6,788.5,412.8,789.9z"/>
		<path class="st12" d="M1023,786c-0.9-0.5-1.8-0.7-2.7-0.7c-1.7,0.1-3.2,1-4.3,2.5l-0.1,0.2c-4.2,7.6-10,14.2-16.9,19.6
			c-7.1,5.5-15.1,10.4-23.8,14.6c-8.8,4.2-17.8,8.2-26.7,11.8l-0.1,0c0,0-0.2,0.1-0.2,0.1c-2.8-2.8-5.7-5.5-8.7-8.2
			c-3.9-3.5-7.7-7.1-11.1-10.8c-3.4-3.5-6.2-7.3-8.3-11.3c-2.1-3.8-3.2-8.2-3.4-12.9c-0.2-4.7,1-8.7,3.7-12.4
			c2.5-3.4,6-5.2,10.7-5.4c2.7-0.1,4.8,0.5,6.5,1.8c1.7,1.3,2.9,3,3.6,5.2c0.4,1.4,0.7,2.8,0.7,4.2c0,0.7,0,1.5-0.1,2.2
			c-0.1,1-0.1,1.8-0.1,2.3c0.1,1.4,0.6,2.6,1.5,3.5c0.7,0.6,1.9,1.4,3.7,1.3c2.7-0.1,4.6-1.8,5-4.5c0.2-1.7,0.3-3.5,0.2-5.2
			c-0.2-6.8-2.8-12.5-7.6-16.7l-0.1-0.1c-6.1-4.7-12.4-7-18.8-6.8c-9.6,0.3-17.4,3.8-23,10.4c-5.6,6.5-8.2,14.6-7.9,24
			c0.2,6.3,1.7,12,4.4,17.1c1,1.9,2.2,3.7,3.4,5.5c-13.7,41.9-21.8,43.4-22.7,43.4c-0.2,0-0.4,0-0.5-0.1l-0.2-0.1
			c-3.7-1.2-8.9-10.5-12.2-32.8c-0.5-3.4-0.8-6.9-1.1-10.2c-0.6-7.7-1-14.4-1.2-20c-0.2-4.9-2.7-7.3-4.8-8.5
			c-0.1-0.1-0.2-0.1-0.3-0.2c0.2-0.5,0.2-1,0.2-1.4c0-0.7-0.2-1.4-0.6-2.1c-1.3-2.8-3-5.2-4.9-7c-4.2-3.7-9.2-5.5-15-5.3l-0.8,0
			c-8.7,0.5-15.9,3.2-21.3,8.3c-5.3,4.9-9.2,11.2-11.5,18.5c-1.8,5.7-2.8,11.6-3,17.4c-3.5,9-7.3,18.6-11.4,28.7
			c-4.3,10.5-8.7,20.6-13.2,29.9c-0.7,1.5-1.4,2.9-2.1,4.2c-1.9,3.4-3.1,4.2-3.4,4.4c-1.9-1.4-4.2-11.8-4.2-22.1
			c0-7.6-0.1-15.9-0.4-24.8c-0.4-9.6-1.6-17.6-3.6-23.8l0-0.1c-1.8-4.9-4.4-8.6-7.7-10.9c-3.3-2.4-6.9-3.5-10.5-3.4
			c-4.3,0.2-7.9,1.6-10.7,4.2c-2.6,2.4-4.8,5.8-6.4,10.2c-1.6-6.8-3.5-13.2-5.9-19.1l-0.1-0.1c-2.5-5.5-5.6-9.7-9.2-12.6
			c-3.8-3-7.7-4.4-11.6-4.3c-4.5,0.2-8.1,2.1-10.8,5.8c-2.4,3.3-4.1,8-5.1,14.5c-0.2,2-0.7,6-1.2,12.1c-0.5,5.8-0.9,13.8-0.9,23.8
			c-0.8-5.9-1.6-11.6-2.2-16.9c-0.9-7.4-1.4-12.6-1.7-15.3l0-0.2c-0.4-3.1-2.4-5.5-6-7.3c-2.3-1-4.6-1.5-6.8-1.5
			c-1,0-1.9,0.2-2.9,0.4c-2.4,0.5-6.4,2.5-6.2,9.7c0.2,2.7,0.4,5.4,0.6,8.1c-0.4,2.2-0.8,4.3-1.2,6.4c-0.4,2-0.8,3.9-1,5.5
			c-3,15.6-6.3,31.4-9.8,46.8c-0.6,2.8-1.6,6.9-2.8,12.1c-1.3,5.2-2.8,10.9-4.5,17.1c-1.7,6.1-3.7,12-5.7,17.5
			c-4.3,11.1-6.9,11.3-7,11.3c-1.7,0.1-7.6-7.3-12.4-40.6l-0.2-1.3c-0.1-0.8-0.2-1.5-0.3-2.3c-0.9-7-1.5-13.3-2-18.9
			c-0.4-5.6-0.7-9.8-0.8-12.5c-0.5-14.9-0.5-30,0-44.8c0.3-8.5,0.7-17,1.2-25.5c1.3-0.2,2.7-0.3,4-0.5c10.1-1.5,20-3.9,29.6-7.4
			c24-8.6,37.6-22.6,40.3-41.5c0.3-2,0.1-3.7-0.5-5.1c-0.8-1.7-2.4-2.8-4.5-3.1c-2.4-0.4-4.1,0.5-5.1,1.2c-1.4,1.1-2.2,2.8-2.5,5.2
			c-2,14.1-13.4,25.3-33.8,33.2c-7.7,3-15.6,5.2-23.7,6.7c-1,0.2-2,0.4-3.1,0.5c0.3-3.8,0.5-7.7,0.8-11.5h0l0.2-2.1
			c0.1-0.9,0.1-1.7,0.2-2.6c0,0,0,0,0,0l0.9-11.3h0c0.8-8.7,1.3-15.5,1.7-20.3c0.1-1.5,0.2-2.6,0.1-3.2c-0.2-5.6-3.5-7.7-5.5-8.4
			c-1.5-0.5-3.1-0.8-4.6-0.8c-1.8,0.1-3.6,0.5-5.3,1.3c-2.5,1.1-5.6,3.6-6.5,9.4l0,0.1c-0.5,5.6-1.1,12.7-1.8,21
			c-0.2,2.9-1.1,13.9-1.5,19.9c-0.2,3-0.4,6.1-0.6,9.1c-1.5,0.1-3.1,0.1-4.6,0.2c-2.5,0.1-5,0-7.5-0.1c-23.4-1.8-39.1-9.6-46.7-23.1
			c-2.9-5.8-6.2-8.7-10.2-8.8H522c-4.6,0-7.5,2.7-7.7,7.4c-0.2,6.5,4.1,13.2,13.4,20.6c11,8.7,28.1,13.5,50.9,14.3
			c1.7,0,3.5,0,5.2,0c2.2,0,4.5-0.1,6.7-0.2c-0.5,8.4-0.9,16.7-1.1,25c-0.2,6.6-0.3,13.2-0.3,19.7c-6.7,5-14.1,9.5-22.1,13.3
			c-8.8,4.2-17.8,8.2-26.7,11.8l-0.1,0c0,0-0.2,0.1-0.2,0.1c-2.8-2.8-5.7-5.5-8.7-8.2c-3.9-3.5-7.7-7.2-11.1-10.8
			c-3.3-3.5-6.2-7.3-8.3-11.3c-2.1-3.8-3.2-8.2-3.4-13c-0.2-4.6,1.1-8.7,3.7-12.4c2.5-3.4,6-5.2,10.7-5.3c2.7-0.1,4.8,0.5,6.5,1.8
			c1.7,1.3,2.9,3,3.6,5.2c0.4,1.3,0.7,2.8,0.7,4.2c0,0.7,0,1.5-0.1,2.2c-0.1,1-0.1,1.8-0.1,2.3c0.1,1.4,0.6,2.6,1.5,3.5
			c0.7,0.6,1.9,1.4,3.7,1.3c2.7-0.1,4.6-1.8,5-4.5c0.2-1.8,0.3-3.5,0.2-5.2c-0.2-6.8-2.8-12.5-7.6-16.7l-0.2-0.1
			c-6.1-4.7-12.4-7-18.8-6.8c-9.6,0.3-17.4,3.8-23,10.4c-5.6,6.5-8.2,14.6-7.9,24c0.1,4,0.8,7.9,2,11.4c-0.7,1.6-1.3,3.3-2,5.1
			c-3.1,8-6.7,16.6-10.5,25.6c-3.8,9-7.9,17.6-12.1,25.7c-4.2,8-8.4,14.6-12.6,19.8c-3.7,4.6-7.2,7-10.3,7.1
			c-1.6,0.1-3.1-1.5-4.5-4.5c-1.8-4-3.2-9.5-4.3-16.1c-1.1-6.8-1.9-14.2-2.4-22c-0.3-4.7-0.5-9.4-0.7-13.9c-0.1-3.1-0.2-6.2-0.2-9.1
			c-0.1-7.5,0-14.4,0.2-20.6c0.3-8.4,0.4-10.1,0.4-10.6c-0.1-1.9-0.9-5.3-5.4-7.1c-1.9-0.8-4-1.2-6.1-1.1c-1.1,0-2.3,0.2-3.5,0.5
			c-3.8,1-6.2,3.5-6.7,7.2l0,0.1c-0.4,3.7-0.7,8-0.9,13c-0.9,4.2-2,9.1-3,14.5c-1.7,8.2-3.5,16.8-5.5,25.7c-2,8.9-4.2,17.3-6.7,25.2
			c-2.4,7.7-5.1,14.3-7.9,19.4c-1.1,2-2.3,3.7-3.5,4.8c-0.5,0.5-1.2,0.8-1.9,0.8c-0.4,0-1.5-0.1-2.2-1.1c-2.4-3.7-4.1-8.7-5.1-14.9
			c-0.7-4.6-1.1-9.5-1.3-14.7c-0.1-2.1-0.1-4.2-0.1-6.4c0.1-7.6,0.4-15.2,0.9-22.6c0.6-7.4,1.2-14,1.8-19.6
			c0.9-8.8,0.9-10.7,0.9-11.5c-0.1-2.2-1.3-3.9-3.3-4.7l-5.3-2c-3.9-1.3-7.7-2.7-11.5-4.3c-1.5-0.6-3-1.3-4.5-1.9
			c0.1-0.2,0.2-0.5,0.4-0.7c1-2,1.8-3.6,2.2-4.5c1.2-2.6,2.4-5.2,3.6-7.8c2.6-6,4.7-11.9,6.3-17.5c1.6-5.9,2.2-11.2,1.6-15.9
			c-0.5-4.6-2.2-8.4-5.1-11.4c-2.8-3-6.2-5.1-10.1-6.4c-3.9-1.3-7.9-1.7-12-1.2c-10.6,1.2-18.9,5.4-24.6,12.5
			c-5.7,7.1-8,16-6.8,26.6c0.8,7.3,2.9,13.6,6.2,18.5c3.3,4.9,7.4,9.1,12.4,12.2c3.6,2.3,7.4,4.3,11.6,6c-2.6,5.8-4.8,10.8-5.7,13.1
			c-3.2,7.9-11.7,29.1-22.3,50c-12.9,25.5-28.9,50.4-41.9,50c-2.7,0.1-4.5-0.8-5.6-2.8c-1.5-2.6-2.4-6.8-2.7-12.4
			c-0.2-4.7,0-10.1,0.5-15.8c0,0,0-0.1,0-0.2h0l0.4-4.5c0.6-5.6,1.1-10.7,1.7-15.5c0.1-0.8,0.2-1.5,0.3-2.3l0.2-1.5
			c0.2-2.1,0.4-4.2,0.6-6.3l0.1-1.8c0.1-1.1,0.2-2.1,0.2-3.1c0.5-7.8,0.5-13.5-0.1-17.5l0-0.3c0-0.2-0.1-0.5-0.1-0.6l-0.1-0.5
			c-1-5.2-3.4-9.5-7-12.9c-4.8-4.5-10.4-6.7-16.7-6.5c-5.4,0.2-10.8,2.4-16,6.5c-4.5,3.6-8.3,8.9-11.2,15.9l-0.3,0.7
			c-2.2,5.6-3.7,12-4.5,19.2c-1.9-4.3-3.6-8.8-5.1-13.4c-0.2-0.5-0.3-1.1-0.5-1.6c0,0,0,0,0,0c6.4-10,66.9-83.2,73.5-119.3
			c0-0.1,0-0.2,0.1-0.3c0-0.1,0-0.1,0-0.2c4.5-23.4-11-35.5-23.7-38.4v0c-5.5-1.5-11-2-15.9-1.6c-9.9,0.8-18.5,3.3-25.7,7.3
			c-8.3,4.6-15.1,10.8-20.4,18.5c-5.2,7.5-9.2,16.1-11.9,25.6c-2.7,9.3-4.5,19.2-5.4,29.3c-0.8,9.5-1,19-0.7,28.3
			c0.5,12.6,1.9,24.9,4.2,36.5c0.7,3.7,1.6,7.4,2.6,11.1c0.5,1.6-0.1-0.1,0.7,2.3c-30.6,36.4-66.8,78.6-80.4,66.5
			c-0.8-0.7-1.6-1.4-2.3-2c-3.2-3-6-6.6-8.4-11c-3.1-5.5-5.9-13.4-8.5-23.6c-2.6-10.2-4.3-22.4-5.1-36.3
			c-3-53.6,2.3-96.8,15.7-128.4c5.2-12.4,11.2-21.8,17.5-27.9c6-5.7,11.5-8.8,16.3-9.3c0.2,0,0.4,0,0.6,0
			c6.6-0.3,11.5,3.2,14.9,10.6c0.3,0.7,0.8,2.1,0.8,2.1l0.1,0.1c0.1,0.1,0.3,0.6,0.6,1.9l0,0.2c0.5,1.5,1,3.2,1.5,4.9
			c0.1,0.5,0.3,0.9,0.6,1.2c3.7,15.4,4.2,36.6,1.4,62.9c-0.2,1.8,0.1,3.2,1,4.4c0.9,1.2,2.3,2,4.2,2.2c0.6,0.1,1.2,0.1,1.8,0.1
			c2.6-0.2,4.3-2.1,4.7-5.1c3.7-35.7,1.5-62.7-6.6-80.1c-2.1-5-4.6-9.1-7.5-12.4c-7.6-8.6-17.6-12.8-29.9-12.2
			c-0.6,0-1.3,0.1-1.9,0.1c-22.4,2-40,22.9-52.2,62c-10.9,34.7-15.3,74.1-13.1,117c1.6,31.1,7.4,55.8,17.1,74.1
			c33.9,57.6,87.3,2.8,124-44.5l1.6,5.8c0,0,0,0,0,0c0,0,0,0,0,0.1l1,2.2c0.6,1.2,1.2,2.5,1.9,3.8c1.9,3.4,4.2,6.4,6.9,8.9
			c3,2.8,6.8,4.2,11.1,4.1c2.6-0.1,4.7-0.8,6.2-2.1c0.1-0.1,0.2-0.2,0.3-0.3c1.5-1.4,2.3-3.2,2.2-5.3c-0.1-1.6-0.2-3.2-0.3-5.1
			c0-0.6-0.1-1.3-0.1-2.3c-0.1-11.6,2.2-22.4,6.8-32c1.3-2.5,3-4.8,4.9-6.7c1.6-1.6,3.4-2.5,5.5-2.6c0.3,0,0.5,0,0.8,0
			c2.2,0.1,3.6,1,4.6,2.8c0.6,1.1,1.1,2.5,1.5,4l0.1,0.4l0,0l0.1,0.1l-0.1,0c2.6,10.2-1,38.9-2.3,49.7c-0.2,2-0.4,3.5-0.5,4.4
			c-0.7,6.6-0.9,12.6-0.7,18.1c0.2,6,1.3,11,3.4,14.8c0.9,1.6,1.8,3.1,2.9,4.3c4.5,4.6,12.1,8.8,23,6c36.8-8.3,65.2-83.5,73-105.2
			l6.3-16.8c1.8,0.7,3.6,1.4,5.5,2.1c0.8,0.3,1.5,0.6,2.3,0.9c-0.2,2.2-0.5,4.6-0.8,7.3c-0.7,6-1.3,13.7-1.9,22.7
			c-0.6,9-0.7,20.2-0.3,33.2c0.2,4.5,0.8,9.2,1.9,14c1.1,4.9,3,9.4,5.4,13.5l0.1,0.1l0.1,0.1c5.7,8,11.7,12,17.8,11.8
			c8.7-0.3,16.8-9.1,24-26.3c4.8-11.4,8.4-24.2,10.8-34.3c0.3,2.6,0.6,5.1,0.9,7.6c1.1,8.2,2.8,15.7,5,22.4
			c2.3,6.9,5.2,12.5,8.8,16.6c3.9,4.6,8.9,6.8,14.6,6.6c6.3-0.2,12.4-3.3,18-9.2c5.2-5.5,10.3-12.6,14.9-21.2
			c4.6-8.4,9-17.5,13-26.9c4-9.4,7.7-18.5,11-27.2c0.2-0.4,0.3-0.8,0.4-1.2c1.7,2.4,3.6,4.8,5.7,7c3.8,4,7.8,7.9,12,11.7
			c2.2,2,4.4,4.1,6.6,6.2c-7.5,3.9-15.4,9.7-23.6,17.4c-10,9.4-14.8,21-14.4,34.5c0.4,10.9,4.1,20.5,11.1,28.3
			c7.1,8,16.2,11.9,27,11.5c11.7-0.4,22-6,30.7-16.6c8.6-10.5,12.7-23.3,12.2-38.1c-0.5-10.2-2.7-18.8-6.4-25.3
			c-2.8-4.8-5.6-9.1-8.4-12.6c5.7-2.4,11.5-4.9,17.2-7.4c8.4-3.7,16.6-8.2,24.6-13.3c0.1,4.4,0.2,8.7,0.3,13.1
			c0.1,3.7,0.4,8.7,0.9,15.3c0.5,6.5,1.3,13.8,2.4,21.6c0.4,3.1,1,6.5,1.7,10.6c0.3,1.7,0.5,3.4,0.8,5c1.3,8,3,15.4,5,22
			c2.1,6.9,4.6,12.5,7.5,16.8c4.4,6.4,9.4,7.6,12.9,7.5c4.5-0.2,8.6-2.2,12.2-6.1c3.1-3.4,5.9-7.8,8.3-13.2
			c2.3-5.1,4.5-10.8,6.3-16.9c1.8-6,3.5-12.1,5-18.2c1.4-6,2.7-11.6,3.8-16.7c0.6-2.6,1.1-5.1,1.7-7.4c2-8.9,3.9-17.9,5.8-27
			c0.3,1.7,0.6,3.4,0.9,5c0.3,2.3,0.9,5.2,1.7,8.7c0.8,3.6,2,7.3,3.4,10.9c1.5,3.8,3.4,7.1,5.6,9.7c2.6,3.1,5.9,4.6,9.5,4.5
			c2.2-0.1,4.1-0.9,5.6-2.4c1.5-1.5,2.3-3.2,2.5-5.3c0.9-11.5,1.3-22.6,1.3-33c0-1.4,0.1-3.3,0.1-5.5c0-2.3,0.1-6,0.3-11.2
			c0.1-5.1,0.4-10.6,0.8-16.4c0.4-5.7,1-10.6,1.7-14.7c0.4-2,0.8-3.2,1-3.8c0.8,0.5,1.8,1.8,2.9,4.3c1.8,4.1,3.5,9,4.8,14.6
			c1.4,5.7,2.5,11.2,3.4,16.1c0.9,5,1.4,8.4,1.6,10.1c0.2,2.5,0.8,5.5,1.5,8.9c0.8,3.6,2.1,6.8,3.8,9.8c2.1,3.6,5.4,5.4,9.5,5.2
			l0.1,0c2.6-0.2,4.6-1.5,5.9-3.7c0.9-1.7,1.6-3.6,1.9-5.7c0.3-1.9,0.4-3.2,0.5-4c0.2-2.2,0.4-5.4,0.7-9.3c0.3-3.9,0.8-8,1.5-12.2
			c0.6-4,1.5-7.5,2.6-10.3c0.9-2.3,1.7-2.8,1.9-2.8c1.5-0.1,2.5,2.5,3,4.5c1.1,4.4,1.8,10.2,2,17.3c0.1,3.7,0.2,7.8,0.2,12.1l0,2
			c0,1.6,0,3.1,0,4.8c0.1,16.1,1.7,28.1,4.7,35.6c0.8,1.8,1.7,3.5,2.6,4.9l0,0l0.1,0.1l0,0.1c0.2,0.3,0.3,0.5,0.5,0.8
			c4.3,6.2,8.8,7.4,11.9,7.3c6.2-0.2,12.4-5.8,18.4-16.6c0.8-1.5,1.6-3.1,2.4-4.7l0.2-0.5l1,0.5l0.3-0.7l-1-0.5c0,0,0,0,0-0.1l1,0.5
			l-1-0.5c1.7-3.4,3.4-7,5-10.7c4.7-10.7,9.1-21.2,13.2-31.5c0.6,1.9,1.3,3.8,2.2,5.6c1.8,3.9,4.2,7.1,7.1,9.5
			c3.2,2.7,7.1,3.9,11.7,3.8c4.2-0.2,7.7-1.7,10.6-4.8c2.5-2.7,4.6-6.1,6.2-10c1.1-2.6,2-5.3,2.8-8c0.1,0.3,0.1,0.7,0.2,1
			c0.2,1.4,0.5,2.8,0.9,4.3c5.3,24.7,13.9,37,25.6,36.6c0,0,0,0,0,0c2.9-0.1,6-1,9.1-2.8c1.4-0.7,2.7-1.6,3.9-2.6l0.1-0.1l4.4-4.4
			c3.4-4,6.6-9,9.6-14.8c3.3-6.5,6.3-13.5,9.1-20.8c0.5-1.5,1.1-2.9,1.6-4.3c3.3,3.4,6.9,6.8,10.5,10.1c2.2,2,4.4,4.1,6.6,6.2
			c-7.5,3.9-15.4,9.7-23.6,17.4c-10,9.3-14.8,20.9-14.4,34.5c0.4,10.9,4.1,20.5,11.1,28.3c7.1,8,16.2,11.9,27,11.5
			c11.7-0.4,22-6,30.7-16.6c8.6-10.5,12.7-23.3,12.2-38.1c-0.5-10.2-2.7-18.8-6.4-25.3c-2.8-4.8-5.6-9.1-8.4-12.6
			c5.7-2.4,11.5-4.9,17.2-7.4c8.4-3.7,16.8-8.3,24.8-13.4c8.2-5.2,15.3-11.7,21.3-19.2c2.3-2.9,4.4-6,6.1-9.3
			c0.6-0.9,0.8-1.9,0.8-2.8C1025.8,789.3,1025.4,787.4,1023,786z M195.3,836.8c-0.5,0.7-1,1.3-1.3,1.6c-0.3-1.5-0.5-2.9-0.6-3.4
			c-0.1-0.3-0.1-0.7-0.2-1l0-0.2l0-0.1l-0.2-1.1c-0.2-1.3-0.5-3.1-0.7-4.5l-0.1-0.7l-0.1-0.9c-0.9-7.2-1.5-14.7-1.9-22.2
			c-0.3-9.6,0.2-20.5,1.5-32.5c1.5-12.9,4.8-25.2,9.6-36.6c4.7-11,11.9-19.4,21.1-24.6c4.6-2.4,9.6-3.8,14.9-3.9
			c2.6-0.1,5,0.1,7.2,0.6c1.3,0.3,2.5,0.9,3.6,1.7c0.3,0.2,0.5,0.4,0.8,0.6c1.7,1.2,3.1,2.4,4.4,3.7v0c0.2,0.2,0.3,0.3,0.5,0.5
			c0.8,0.8,1.5,1.7,2.1,2.6c10.3,16.3-11.2,53.4-31.7,82.6c-1.8,2.4-3.7,5-5.6,7.6c-1.3,1.8-3,4.1-5.1,6.9
			c-5.5,7.1-11,14.2-16.3,21.3C196.6,835.3,195.9,836,195.3,836.8z M344.1,797.9c-1,2.2-2.2,4.9-3.5,8c0,0,0,0,0,0
			c-0.3,0.7-0.6,1.3-1,2c-2.9-1.6-5.6-3.6-8.1-5.8c-3-2.7-5.7-6-7.8-9.8c-2.1-3.8-3.4-8.3-4-13.5c-0.4-3.9-0.1-7.9,1-11.6
			c1.1-3.7,3-6.9,5.6-9.4c2.6-2.5,5.8-4,10-4.4c3.9-0.5,7.3,0.3,10.4,2.4c2.9,2,4.6,5,5.1,9.3c0.7,5.9-0.3,13.1-3,21.3
			c-0.8,2.5-1.7,4.9-2.6,7.3C345.8,794.1,345.1,795.7,344.1,797.9z M534.3,929.3c-4,6.8-9.5,10.2-16.8,10.5
			c-7.7,0.3-13.1-2.3-16.6-7.8c-3.8-5.9-5.8-13.1-6.1-21.5c-0.3-9.8,2.6-17.9,9-24.7c6.1-6.5,13.7-12.1,22.7-16.5
			c2.8,3.3,5.6,7.3,8.5,11.8c3.1,5,4.9,12.3,5.2,21.8C540.5,913.3,538.5,922.2,534.3,929.3z M845.8,790.6c-1.2,1.2-2.1,2.5-2.6,3.8
			c-0.4,1.1-0.8,2.7-1.2,4.9c-0.6,4.3-1.6,10.1-3,17.1c-1.4,6.9-3,13.3-4.8,19c-1.7,5.1-3,6.7-3.5,7.2c-0.9-0.4-1.8-1.5-2.6-3.3
			c-1.3-3-2.2-6.5-2.8-10.1c-0.6-3.8-0.9-6.5-0.9-7.9c-0.1-3,0.1-6.8,0.5-11.1c0.4-4.3,1.3-8.5,2.6-12.5c1.3-3.9,3.1-7.2,5.4-9.8
			c2.1-2.3,4.8-3.5,8.3-3.6c2.1-0.1,3.8,0.3,5,1.2c1,0.7,1.9,1.7,2.6,3C847.7,789,846.6,789.7,845.8,790.6z M942.7,911.1
			c-4.1,6.8-9.5,10.2-16.8,10.5c-7.7,0.3-13.1-2.3-16.6-7.8c-3.8-5.9-5.8-13.1-6.1-21.5c-0.3-9.8,2.6-17.9,9-24.7
			c6.1-6.5,13.7-12.1,22.7-16.5c2.8,3.3,5.6,7.3,8.5,11.8c3.1,5,4.9,12.3,5.2,21.8C948.9,895.1,947,904,942.7,911.1z"/>
	</g>
	<g>
		<path class="st14" d="M764.8,500h-0.2l-4.3,1.4c-1.1-7.6-3.5-15.5-7.1-23.6c-5.2-12.9-11.7-23.7-19.5-32.1
			c-7.9-8.6-15.9-13-23.6-13c-20,0-36.4,12.4-48.6,36.8c-12.1,24.1-18.2,62.8-18.2,115c0,23.1,2.8,45.9,8.4,67.8
			c5.6,22,13.4,40.3,23.3,54.3c10,14.3,21.3,21.5,33.6,21.5c6.8,0,12.9-3.1,18.1-9.1c5.1-5.9,8.8-13.9,11.1-23.6
			c3.5-12.5,6.1-24.7,7.7-36.5c1.6-11.7,3.5-30.8,5.8-57l1.4-18.8c0-0.8,0.1-1.4,0.2-1.9c0.1,0,0.2,0,0.3,0c3.6,0,6.4-1,8.5-3.1
			c2-2,3.1-4.7,3.1-8c0-4-1.8-5.5-3.3-6.1c-1.8-0.7-5.1-1.1-10.1-1.1c-6.2,0-18.6,0.8-38.1,2.4l-11.6,1c-2.6,0.4-4.8,1.8-6.5,4.2
			c-1.6,2.3-2.4,4.8-2.4,7.3c0,5.3,3.1,8.2,8.7,8.2c3.9,0,7.1-0.2,9.7-0.5l18.1-0.4c-0.1,9-1.2,23-3.1,41.8
			c-2.1,19.9-4.8,38-8.1,53.6c-4.5,21-8.3,22.6-9.4,22.6c-3,0-7.6-3.6-12.3-21c-4-14.6-7.2-32-9.6-51.9c-2.4-19.9-3.6-36.8-3.6-50.5
			c0-15,1.3-32.4,3.8-51.9c2.5-19.5,6.3-36.5,11.2-50.6c4.7-13.5,10-20.4,15.7-20.4c1.5,0,3,1,4.6,2.8c5,6.2,9,14.2,12,23.5
			c2.9,9.3,4.8,18.9,5.4,28.5c-1.5,0.7-2.9,1.3-4,1.7c-1.8,0.6-2.5,1-3,1.3c-1.5,0.7-3.1,2.3-3.1,6c0,3.6,1.4,6.8,4.3,9.7
			c1.2,1.2,2.9,1.9,4.9,1.9h0.1l4.1-0.5l0.2-0.1c21.6-8.1,28.5-10.7,30.5-12.1c3.9-1.2,6-4.1,6-8.5V511l-0.5-2.6
			C773.8,502.9,770.2,500,764.8,500z"/>
		<path class="st14" d="M838.6,712.2h-1.1l-8.1,1.3l-0.9-26.8c-0.6-26.4-1-51.2-1-73.8c0-34,0.4-68.5,1.2-102.5
			c0.8-32.7,1.6-55,2.5-66.4c2-0.1,3.6-0.2,4.7-0.5c5.8-0.8,8.8-4.2,8.8-9.9c0-3.4-0.7-6.3-2.2-8.4c-1.5-2.3-3.8-3.5-6.5-3.5h-1.1
			l-0.1,0c-5.7,1-12.4,1.8-20,2.4c-7.6,0.5-14.9,0.8-21.5,0.8c-1.4,0-2.6,0.5-3.4,1.4c-2.5,2.4-3.8,5.6-3.8,9.5
			c0,3.1,0.4,5.3,1.1,6.9l0,0.1l0,0.1c1.6,2.6,4.4,3.9,8.4,3.9h1.8l-1.3,12.7c-0.6,9.9-1,33.2-1,71.3c0,35.9,0.2,71.2,0.5,104.9
			c0.3,33.1,0.8,60,1.4,80.1l-4.7-0.4c-0.9,0-2,0.4-3.6,1.2l-0.1,0l-0.1,0c-3,2-4.5,5.3-4.5,9.6c0,3.6,0.6,6,1.8,7.3
			c1.8,2,4.8,3.4,9,4.1l0.2,0l24.7-1.6l18.3-2.1c5.8-0.8,8.9-4.2,8.9-9.9c0-3.4-0.7-6.3-2.2-8.4
			C843.6,713.4,841.3,712.2,838.6,712.2z"/>
		<path class="st14" d="M977.6,600.9c-2-3.6-5.1-5.4-9.2-5.4c-2.6,0-5.2,1.2-7.5,3.5c-2.3,2.2-3.8,4.9-4.5,7.9
			c-9.2,34.5-16.5,58.8-21.6,72.1c-6.6,19.1-10.7,21.2-12.1,21.2c-1.4,0-5.1-1.8-9.2-18.5c-3.5-13.3-6.4-30.7-8.6-51.9
			c-2.2-21.1-3.4-42.6-3.4-63.8c0-20.8,1.3-39.6,3.8-55.7c2.5-16.1,7-29.9,13.3-41c3.2-5.4,6.8-8.1,10.8-8.1c4.6,0,9.1,3.1,13.5,9.2
			c4.5,6.3,7.7,14.7,9.6,24.8c2.1,7.9,6.1,11.9,12,11.9c3.6,0,6.6-1.3,8.8-3.9c2.1-2.5,3.2-5.8,3.2-10c0-7.1-2.4-15.3-7.1-24.4
			c-4.7-9.1-10.8-17-18.1-23.6c-7.5-6.8-15-10.2-22.3-10.2c-28.1,0-47.6,13.1-58,39.1c-10.3,25.5-15.5,59.2-15.5,100.1
			c0,23.1,2.5,47.1,7.5,71.5c5,24.4,12,45,21,61c9.2,16.4,19.8,24.7,31.5,24.7c7.4,0,15-3.6,22.6-10.7
			c12.2-11.7,25.6-46.8,41.2-107.4l0-0.2C980.1,608.4,979.5,604.3,977.6,600.9z"/>
		<path class="st14" d="M634.3,697.3l-0.9-0.5l-14.5,0.7c-1.2-27-1.8-38.4-1.7-34.2l-2.6-44.6c5.9,0,10.2-0.5,13.2-1.5
			c3.5-1.2,5.3-4.4,5.3-9.5c0-4.9-1.2-8.4-3.6-10.5c-2.3-2-5.6-3-9.6-3h-6.1c-1.3-24.4-4.5-57.2-9.5-97.4c-5.2-41.8-10-65.3-14.7-72
			c-1.8-2.5-4.6-4.5-8.3-6c-3.7-1.5-7.9-2.3-12.6-2.3c-7.2,0-13.9,1.6-19.9,4.7c-6.1,3.2-9.9,8-11.3,14.2
			c-6.4,29.7-11.2,56.6-14.2,80.1c-3,23-5.5,49.6-7.4,79.1c-0.6,0-1.2,0-1.8,0c-4.2,0-7.8,0.5-10.6,1.6c-4,1.5-6,5.8-6,12.9
			c0,5.2,1.7,8.3,5.1,9.3c2.6,0.8,6.4,1.2,11.6,1.3c-1.9,34.6-2.8,59.5-2.8,74c0,6.2,0.3,12,0.8,17.3h-0.7l-2.4,1.2l-0.2,0.2
			c-2.2,2.2-3.3,5.1-3.3,8.7c0,3.3,0.6,5.5,1.9,6.8c2.2,2.2,4.6,3.3,7.3,3.3h0.1l20.3-1.9l14.9-1.9c2.3-0.4,4.1-1.4,5.5-3.2
			c1.3-1.7,2-3.9,2-6.4c0-8.7-4.2-10.6-7.7-10.6H549l-0.8,0.2V620c13.1-0.9,28.6-1.3,46.1-1.3h0.8c1.2,16.1,2.3,38.1,3.3,65.8
			l0.3,13.5c-2.6,0.2-6.1,0.2-10.6,0c-0.6,0-1.6,0.2-2.9,0.8c-2.6,1.5-4,4-4.2,7.5c-0.1,1.9,0.3,3.9,1.2,5.8c1.2,2,3.9,3.1,8,3.3
			l2.4,0c2-4.1,5.2-6.1,7.3-7c2.2-1,4.6-1.6,6.9-1.7c0.2,0,0.4,0,0.5,0c1.9,0,3.8,0.3,5.7,1c1.9,0.7,5.6,2.6,7.4,7.3
			c0.5,0,1.1,0,1.6,0.1c2.9,0.1,6.6,0,11.1-0.4c2.2-0.2,4.1-1,5.6-2.4c1.5-1.4,2.3-3.2,2.4-5.4c0.1-2.6-0.3-4.4-1.4-5.6
			C638.6,700,636.8,698.7,634.3,697.3z M550.7,593.6c2.2-29.9,5.4-56.7,9.5-79.7c3.9-21.9,9.4-44,16.3-65.9c0.8,3.9,2,11.8,3.6,27.6
			c2.1,20.1,4.2,44,6.5,71l3.7,45.6L550.7,593.6z"/>
		<path class="st14" d="M480.4,707c-0.8,0-3-0.1-9.1-0.8v-16c0-3.2,0-7.3,0.1-12.3c0.7-32.7,1.9-79.7,3.6-143.8l1-32.7l1-48.5
			c0-6.8-0.4-12.1-1.2-15.9c-0.9-4-3-7.5-6.5-10.4c-1.1-1-2.5-1.9-4.1-2.8c-4.8-2.6-10.2-4-15.8-4c-3.1,0-6.1,0.4-9.1,1.2l-0.7,0.2
			c-4.9,1.4-8,3.2-9.5,5.4c-13.5,21.8-26.7,52-39.3,89.9c-11.3,33.8-21.2,66.9-29.6,98.2l-6.2-29.2c-0.1-0.8-0.9-5.1-8.2-39.7
			c-0.7-3.5-1.7-8.6-3.1-15.3c-1.5-7-3.2-14.2-5.1-21.4c-0.4-1.5-0.8-2.9-1.2-4.2l0-0.2l-0.1-0.1c-0.5-2.1-1.2-4.2-2.1-6
			c-0.8-1.9-1.5-3.2-2.2-4.2c-0.6-0.7-1.2-1.5-2-2.3c-1.5-1.6-3.1-2.8-4.8-3.8c-0.1-0.1-0.2-0.1-0.3-0.2l-0.3-0.2h0
			c-2.3-1.3-4.8-1.9-7.2-1.9c-7,0-13.9,2.4-20.5,7.2c-6.7,4.8-10.9,11.8-12.6,20.8c-9.1,39-13.8,115.4-11.6,177.1
			c0.2,4.4,0.3,8.7,0.6,12.9c0,0.3,0,0.5,0,0.7c0.2,3.8,0.4,7.5,0.7,11.1c2.2,6,2.8,13.1,1.3,21.2l-0.1,0.5l-0.3,1.8l9-0.6l17.6-1.2
			l21.6-1.9c3.2-0.4,5.7-1.4,7.5-3c1.8-1.6,2.8-3.7,2.9-6.2c0.1-2.8-0.9-5.5-2.9-7.6c-2.1-2.2-5-3.4-8-3.4h-0.7l-7.7,0.8
			c-0.1-1.9-0.3-3.8-0.4-5.8h0.1l0-1.5c-0.5-15.5-0.7-33.9-0.7-54.5c0-30,1-58.2,3.1-83.9c1.7-20.7,3.7-35.3,6-43.6
			c4.5,23.5,22.5,112,23.3,116.1c0,0.2,0.1,0.4,0.1,0.6c0.7,4.1,3,16.6,24.1,17.7l0.4,0c0.8,0.1,1.5,0.1,2.1,0.1l0.6,0l0,0
			c0.1,0,0.1,0,0.2,0c4.9,0,8.9-1.6,12.1-4.7c0.5-0.5,0.8-0.8,7.6-30c1.7-6.6,5.4-20.9,10.3-40.3c5.3-20.7,11.4-44,18.2-69.1
			c5.7-20.8,11.1-38.4,16.2-52.5l-10,235.4c-1.8-0.2-4.1-0.3-6.8-0.3c-1.4,0-2.7,0.2-3.8,0.6c-2.4,0.8-5.3,2.8-5.8,7.9
			c-1.1,4.8,1.1,8.4,6.3,10c4.6,1.5,13.9,3.2,27.6,5.1c5.9,1,10.5,1.5,14.1,1.5c1.8,0.3,4.6,0.7,8.3,1.2c3.7,0.5,7.4,0.7,11,0.7
			c3.2,0,5.8-0.9,7.7-2.5c1.9-1.7,2.9-3.9,2.9-6.6c0-3.2-0.8-5.9-2.5-7.9C485.8,708.1,483.4,707,480.4,707z"/>
	</g>
	<g>
		<path class="st13" d="M482.5,308.4c2.5,1.7,5.6,2.6,9.2,2.6c5.8,0,10.3-2.1,13.3-6.2c2.8-3.8,4.3-8.3,4.3-13.3c0-4-1.3-7.7-4-11
			c-2.8-3.5-7-5.3-12.3-5.3c-5.6,0-10.1,2-13.2,6c-2.9,3.7-4.4,8.2-4.4,13.2c0,2.6,0.6,5.2,1.7,7.7
			C478.3,304.6,480.2,306.8,482.5,308.4z"/>
		<path class="st13" d="M978.9,333.6c-1-0.6-2-0.9-3.1-0.9c-2.1,0-4,1.1-5.2,3c-5.2,8.6-15.8,20.7-31.5,35.8
			c-15.2,14.7-31.1,22.2-47,22.2c-8.3,0-15-3.4-20.6-10.5c-5.8-7.2-8.7-17.7-8.7-31.1c0-1.5,0-3,0.1-4.5c4.8,2.3,10.5,3.4,17.1,3.4
			c6.7,0,13-2.2,18.5-6.4c5.8-4.5,8.8-10.4,8.8-17.7c0-8.4-3-14.7-8.9-18.9c-5.5-3.9-11.8-5.9-18.6-5.9c-13.2,0-23.5,5.4-30.6,16.2
			c-2,3-3.6,6.1-5,9.3c-4.7,4.1-9.7,6.7-13.8,8.5c-1.9,0.9-3.9,1.6-5.9,2.3c-0.1,0-0.2,0.1-0.3,0.1l0,0c-2,0.6-4.1,1.1-6.2,1.5
			c-5.2,0.9-9.9,1.4-14,1.4c-7.5,0-14.8-1.2-21.6-3.7c3.4-16.6,5-28.2,5-35.3c0-7.7-1.3-13.9-4-18.6c-2.8-4.9-6.4-8.1-10.7-9.6
			c-1.8-0.6-3.7-0.9-5.5-0.9c-2.4,0-4.9,0.6-7.3,1.6c-4.2,1.8-7.7,5.3-10.4,10.1c-2.6,4.7-4,10.8-4,18.1c0,9.6,2.2,18,6.5,24.9
			c3.8,6.1,8.7,11.2,14.6,15.1c-2.5,10-5.5,19.9-8.9,29.2c-3.6,10.1-7.6,18.5-11.6,25.2c-3.1,5.1-6.2,8.1-8.7,8.5
			c-0.4-0.4-1.1-1.5-2.1-3.8c-1.7-3.9-3.3-8.6-4.9-13.9c-1.6-5.4-3-10.4-4.1-14.9c-1.1-4.5-1.8-7.5-2.2-8.9
			c-2.5-11.5-4.4-23.2-5.5-34.9l0-0.1c-0.8-6.1-4.1-9.1-6.7-10.5c-2.2-1.3-4.5-1.9-6.6-1.9c-1.6,0-3.2,0.3-4.8,1
			c-2.6,1.1-5.8,4-5.8,10.8l0,0.2c0.1,1.7,0.3,3.8,0.6,6.2c-0.2,0.2-0.3,0.4-0.5,0.7c-5.4,8.6-16.4,20.7-32.8,35.8
			c-15.9,14.7-32.3,22.2-48.9,22.2c-8.6,0-15.6-3.4-21.5-10.5c-6-7.2-9-17.7-9-31.1c0-1.5,0-3,0.1-4.5c5,2.3,11,3.4,17.8,3.4
			c7,0,13.5-2.2,19.3-6.4c6.1-4.5,9.1-10.4,9.1-17.7c0-8.4-3.1-14.7-9.2-18.9c-5.7-3.9-12.3-5.9-19.4-5.9
			c-13.8,0-24.5,5.4-31.9,16.2c-6.4,9.3-9.9,19.7-10.5,31.1c-0.3,0.7-0.6,1.3-0.9,2c-3.5,8.2-7.5,17-11.8,26.2
			c-4.3,9.2-8.8,18-13.5,26.2c-4.6,8.1-9.2,14.8-13.6,20c-3.9,4.5-7.5,6.8-10.4,6.8c-1.8,0-3.1-2.4-3.9-4.5c-1.7-4.2-3-9.8-3.9-16.7
			c-0.9-7-1.5-14.7-1.7-22.9c-0.2-4.9-0.2-9.8-0.2-14.5c0-3.2,0-6.4,0.1-9.5c0.2-7.8,0.5-14.9,1-21.4c0.7-9.9,0.7-10.7,0.7-11.1
			c0-2.1-0.8-6-5.8-8.1c-2.1-0.9-4.3-1.4-6.6-1.4c-1.2,0-2.5,0.2-3.8,0.5c-3.9,0.9-6.5,3.3-7.5,6.9c-5.4,6.9-11.7,17.6-16,25.1
			c-1,1.8-2,3.6-3,5.4c-0.4,0.7-0.7,1.3-1,1.7c0,0,0,0,0,0c-3.7,6.3-7.5,12.5-11.6,18.5c-2.3,3.5-5,7.3-8.2,11.4
			c-3.2,4-6.7,7.9-10.6,11.5c-3.7,3.5-7.8,6.5-11.9,8.8c-3.9,2.1-7.9,3.2-12,3.2c-4,0-7.7-1.9-11.4-5.8c-4-4.3-7.7-10.3-10.8-17.8
			c-3.2-7.7-6-16.6-8.2-26.6c-2-9.1-3.5-18.8-4.4-28.9c9.1-2.8,18.5-7.4,27.9-13.6c10.4-6.9,20.2-15.3,29.1-25
			c9-9.7,16.4-20.3,22-31.5c5.7-11.4,8.7-22.8,8.7-33.9c0-11-3.6-20.5-10.6-28c-7.1-7.6-16.4-11.5-27.8-11.5
			c-11.6,0-22.1,2.8-31.1,8.3c-8.9,5.4-16.5,12.8-22.7,22c-6.1,9.1-11,19.6-14.6,31.2c-3.6,11.5-6,23.9-7.3,36.7
			c-0.7,7.2-1.1,14.6-1.1,21.9c0,5.5,0.2,11,0.6,16.5c0.1,1.8,0.3,3.5,0.5,5.3c-5.9,8-15.1,18-27.6,30.1
			c-15.2,14.7-31.1,22.2-47,22.2c-8.3,0-15-3.4-20.7-10.5c-5.8-7.2-8.7-17.7-8.7-31.1c0-1.5,0-3,0.1-4.5c4.8,2.3,10.5,3.4,17.1,3.4
			c6.7,0,13-2.2,18.5-6.4c5.8-4.5,8.8-10.4,8.8-17.7c0-8.4-3-14.7-8.9-18.9c-5.5-3.9-11.8-5.9-18.6-5.9c-13.2,0-23.5,5.4-30.6,16.2
			c-3.5,5.3-6.1,11-7.8,17.1c-11.1,1.9-25.1,5.4-42.5,11.8c-0.1-3-0.3-5.4-0.4-7.3c-0.5-4.4-1.5-8.8-3-13.1
			c-1.7-4.8-4.2-8.9-7.5-12.2c-3.6-3.5-8.4-5.3-14.3-5.3c-4.7,0-9.4,1.6-13.9,4.8c-4.3,3.1-8.3,7.5-11.8,13.3
			c-3.5,5.9-6.1,12.9-7.8,20.7c-0.2,0.8-0.3,1.5-0.5,2.2c-1.7-9.2-2.9-18.7-3.6-28.5c9.1-2.6,18.5-6.8,27.9-12.3
			c10.3-6.1,20.1-13.5,29-22.1c9-8.7,16.3-18.3,22-28.5c5.7-10.5,8.7-21.3,8.7-32.3c0-10.7-3.7-19.6-11.1-26.4
			C179,184.4,170,181,159.5,181c-13.5,0-25.2,3.1-34.8,9.1c-9.5,6-17.3,14.1-23.2,24.2c-5.8,10-10.1,21.4-12.7,34
			c-2.6,12.5-3.9,25.7-3.9,39.3c0,8.4,0.6,18.5,1.9,30c1.3,11.7,3.8,23,7.5,33.5c3.4,9.7,8.3,17.6,14.6,23.7
			c-2,3.4-3.1,7.2-3.1,11.1c0,6.3,2,11.1,6,14.4c3.8,3.1,8.5,4.7,14,4.7c6,0,12.4-2.1,18.9-6.2c6.5-4.1,12.3-10.3,17.3-18.4
			c4.6-7.5,7.9-17,9.7-28.2c0.1-0.4,0.1-0.8,0.2-1.2c12.3-4.8,26.6-9.5,41.1-12.3c-0.1,1.7-0.2,3.4-0.2,5.1
			c0,16.1,4.7,29.1,13.9,38.6c9.3,9.5,22.5,14.3,39.3,14.3c18.4,0,36.7-8.4,54.2-25c9.2-8.7,16.7-16.4,22.7-23.2
			c0.9,5.1,2,10.2,3.3,15c3,11.5,7.1,22,12.2,31.1c5.1,9.2,11.3,16.7,18.5,22.1c7.4,5.6,15.8,8.5,25,8.5c5.8,0,11.4-1.4,16.8-4.2
			c5.1-2.7,9.9-6.1,14.4-10.3c4.4-4,8.4-8.4,12.1-13c3.6-4.5,6.8-8.8,9.5-12.8c6.8-10.2,13.1-20.8,18.9-31.6
			c0.1-0.3,0.3-0.5,0.4-0.8c-0.2,5-0.3,10.3-0.3,15.7v3.7c0.1,8.6,0.6,17.3,1.5,25.7c0.9,8.6,2.4,16.5,4.5,23.5
			c2.1,7.3,5.1,13.3,8.7,17.8c4,5,9.2,7.6,15.4,7.6c6.7,0,13.3-3.1,19.4-9.1c5.7-5.6,11.2-12.8,16.3-21.6
			c5.1-8.6,9.9-17.8,14.4-27.5c2.4-5.3,4.8-10.4,7-15.5c2.4,7.2,6.2,13.4,11.5,18.5c9.7,9.5,23.4,14.3,40.9,14.3
			c19.2,0,38.1-8.4,56.4-25c12.3-11.1,21.6-20.6,28.3-28.6c0.4,2.5,0.9,5.1,1.4,7.9c2.6,14.8,6.2,28.4,10.6,40.7
			c6,15.1,13,22.5,21.6,22.5h0.4l0.1,0c8.2-0.4,15.6-4.9,22-13.3c6-7.8,11.3-17.8,15.7-29.5c3.9-10.2,7.2-20.7,9.8-31.2
			c7.7,2.6,15.8,4,24.2,4c5.2,0,10.9-0.6,17-1.8c6.2-1.2,12.1-3.3,17.5-6.2c0.4-0.2,0.7-0.4,1.1-0.6c-0.3,2.7-0.5,5.4-0.5,8.2
			c0,16.1,4.7,29.1,14,38.6c9.3,9.5,22.5,14.3,39.3,14.3c18.4,0,36.7-8.4,54.2-25c17.3-16.4,28.7-29.1,34.6-39c0.6-1,0.9-2,0.9-3.1
			C981.9,336.6,980.8,334.7,978.9,333.6z M241.7,316.6c3.5-6.5,8.4-9.8,14.9-10.1c3.2,0,5.6,1,7.4,3.1c1.9,2.2,2.8,5,2.8,8.3
			c0,3.7-1.2,6.6-3.6,8.7c-2.5,2.3-5.6,3.4-9.3,3.4c-6.3-0.1-11.6-1.5-15.6-4C239.1,322.3,240.3,319.2,241.7,316.6z M109,287.6
			c0-8.2,0.5-17,1.5-26c1-9,2.8-17.9,5.4-26.4c2.5-8.4,6.2-16.1,10.9-22.9c4-5.7,8.8-10.4,14.5-14c5.5-3.5,11.6-5.2,18.4-5.2
			c7.4,0,13.5,2.2,18.6,6.8c5,4.5,7.4,10.3,7.4,17.7c0,9.1-2.5,18.1-7.4,27c-5,9.1-11.6,17.5-19.6,25.2c-8.1,7.7-16.9,14.5-26.3,20
			c-7.8,4.6-15.5,8.2-23,10.5C109,295.8,109,291.5,109,287.6z M123.2,357.9c0.5-4.4,1.2-9.1,2.1-13.9c0.9-4.7,2.2-9.2,3.7-13.3
			c1.4-3.9,3.2-7,5.2-9.4c1.7-1.9,3.5-2.9,5.8-2.9c2.5,0,4.2,1,5.5,3.4c1.7,3,2.8,6.9,3.2,11.7c0.1,1.5,0.1,2.9,0.1,4.3
			c0,3.2-0.2,6.7-0.7,10.3c-1.8,0.8-3.7,1.7-5.6,2.5c-2.2,1-4.4,2-6.5,3.1c-0.1,0-0.1,0.1-0.2,0.1l0,0c-4.8,2.4-9.1,4.9-13,7.5
			C122.9,360.2,123.1,359.1,123.2,357.9z M144.7,363.1c-1.1,3.5-2.5,6.8-4.1,9.9c-2.6,5.2-5.7,9.4-9.2,12.6
			c-3.2,2.9-6.7,4.4-10.7,4.4c-1.1,0-2-0.2-2.2-0.5c-0.5-0.8-0.8-1.9-0.8-3.4c0-2.9,1.2-5.7,3.8-8.4c2.9-3.1,6.9-6.1,12-8.9
			c1.3-0.7,2.6-1.4,4-2.1c0.9-0.4,2.4-1.2,4.4-2.2C142.8,363.9,143.8,363.5,144.7,363.1z M366,310.7c0-6,0.2-12.2,0.6-18.2
			c0.8-11.6,2.4-23,4.8-33.8c2.4-10.7,5.7-20.5,9.9-29c4.1-8.3,9.1-15,15.1-19.9c5.7-4.8,12.3-7.1,20-7.1c5.3,0,9.7,1.2,13.2,3.5
			c3.5,2.4,6.1,5.5,7.9,9.6c1.8,4.2,2.8,9.1,2.8,14.4c0,9.3-2.4,19-7.1,28.8c-4.8,10-11.2,19.6-19,28.4
			c-7.8,8.9-16.4,16.6-25.5,22.9c-7.5,5.2-15,9.1-22.3,11.7C366.1,318.2,366,314.5,366,310.7z M611.1,318.5c2,2.2,2.9,5,2.9,8.3
			c0,3.7-1.2,6.6-3.7,8.7c-2.6,2.3-5.8,3.4-9.7,3.4c-6.6-0.1-12-1.5-16.3-4c0.8-3.6,2-6.7,3.5-9.4c3.7-6.5,8.7-9.8,15.5-10.1
			C606.8,315.5,609.3,316.5,611.1,318.5z M769.5,330c-3-2.5-5.6-5.6-7.6-9.1c-2.9-5-4.4-11.1-4.4-18.1c0-6,1-10.5,2.9-13.6
			c1.6-2.6,3.3-4,5-4.2h0.6c0.5,0,2.1,0,4.1,3c1.9,2.7,2.9,7.6,2.9,14C773,309.4,771.8,318.7,769.5,330z M890.1,318.5
			c1.9,2.2,2.8,5,2.8,8.3c0,3.7-1.2,6.6-3.6,8.7c-2.5,2.3-5.6,3.4-9.3,3.4c-6.3-0.1-11.6-1.5-15.6-4c0.8-3.6,1.9-6.7,3.4-9.4
			c3.5-6.5,8.4-9.8,14.9-10.1C885.9,315.5,888.3,316.5,890.1,318.5z"/>
	</g>
</g>
</svg>
