<?xml version="1.0" encoding="utf-8"?>
<!-- Generator: Adobe Illustrator 23.0.3, SVG Export Plug-In . SVG Version: 6.00 Build 0)  -->
<svg version="1.1" id="Layer_1" xmlns="http://www.w3.org/2000/svg" xmlns:xlink="http://www.w3.org/1999/xlink" x="0px" y="0px"
	 viewBox="0 0 1133.9 1133.9" style="enable-background:new 0 0 1133.9 1133.9;" xml:space="preserve">
<style type="text/css">
	.st0{fill:#1E2121;}
	.st1{fill:#A81F26;}
	.st2{fill:#F2F1F2;}
	.st3{fill:#DD353A;}
	.st4{fill:#CFCFCE;}
	.st5{fill:#1D2121;}
	.st6{fill:none;}
	.st7{fill:#AA1F23;}
	.st8{fill:#FDFEFE;}
	.st9{fill:#EE742C;}
	.st10{fill:#BA5234;}
	.st11{fill:#ED1C24;}
	.st12{fill:#C42C3A;}
	.st13{fill:#058743;}
	.st14{fill:#0F4D70;}
	.st15{fill-rule:evenodd;clip-rule:evenodd;fill:#C42C3A;}
	.st16{fill-rule:evenodd;clip-rule:evenodd;fill:#1E2121;}
	.st17{fill:#E8E8E8;}
	.st18{fill:#186634;}
	.st19{fill:#BF2730;}
	.st20{fill:#B47A48;}
	.st21{fill:#3E1E14;}
	.st22{fill:#DBAD5D;}
	.st23{fill:#B84947;}
	.st24{fill:#C3976E;}
	.st25{fill:#9D2023;}
	.st26{fill:#3C2517;}
	.st27{fill:#4A3A31;}
	.st28{fill:#EDAD4F;}
	.st29{fill:#F8C018;}
</style>
<g>
	<g>
		<path class="st0" d="M495.7,411.5L495.7,411.5l0.1,0.1c1.1,0.5,2.2,0.8,3.5,0.8c2,0,4.2-0.7,6.7-2.1c3.8-2.1,6.7-5,8.7-8.4
			c2.2-3.7,1.8-7.3-1.2-10.4c-1.4-1.2-2.8-1.8-4.2-1.8c-0.3,0-0.7,0-1,0.1c-1.5,0.3-2.7,0.8-3.8,1.5c-0.4,0.3-0.7,0.5-1,0.6
			c0,0-0.1,0-0.1,0c-0.2-0.1-0.6-0.3-1.1-1.4c-0.5-1-1.3-2-2.2-2.9c-1.1-1-2.6-1.6-4.5-1.6c0,0,0,0,0,0c-5.4,0.5-7.2,3.5-7.9,6
			c-0.8,3.3-0.5,6.9,1.1,10.7C490.5,406.5,492.8,409.5,495.7,411.5z"/>
		<path class="st0" d="M1057.1,441L1057.1,441l-0.1-0.2c-0.6-1-1.4-1.7-2.4-2.1c-0.5-0.2-1-0.3-1.5-0.3c-0.6,0-1.2,0.1-1.9,0.4
			c-16.1,7.1-30,13.8-41.4,19.9c-3.7-6.5-7.2-12.5-10.4-17.8v-0.2l-1.9-3c-3.3-4.6-5.6-9.7-6.8-15.1c-0.5-6.6,1.4-11.8,5.8-16
			c3.4-3.2,7.1-4.8,11.3-4.8c1.2,0,2.5,0.1,3.8,0.4c5.6,1.2,10.4,6.6,14.1,16.2c0.4,1,1.2,1.8,2.1,2.3c0.6,0.3,1.2,0.5,1.8,0.5
			c0.5,0,1.1-0.1,1.6-0.3c1-0.4,1.8-1.2,2.3-2.1c0.5-1,0.6-2.2,0.2-3.3c-2.8-9.6-7.5-17-14-22.1c-5.8-4.5-12.2-6.8-19.1-6.8
			c-0.9,0-1.9,0-2.9,0.1c-10,1.3-17.8,5.6-23,12.9c-5.2,7.2-7.2,16-6.1,26c0.5,3.7,1.5,7.6,3.1,11.4c0.6,1.5,1.6,3.4,2.8,5.6
			c-0.1,0.2-0.2,0.4-0.3,0.6c-0.8,2.5-3.1,7.8-6.8,15.9c-3.8,8.1-8.3,16.7-13.4,25.7c-5.1,8.9-10,15.9-14.8,20.7
			c-2.4,2.4-4.4,3.6-6.1,3.6c-1.3,0-2.5-0.8-3.5-2.3c-2.6-5-3.5-12.2-2.5-21.6c1-9.5,2.9-19.7,5.6-30.4c2.7-10.7,5.4-20.3,8-28.7
			c1.6-5.4,2.9-9.8,3.8-13.2c0.7-3.1,0.3-5.9-1.2-8.5c-1.5-2.5-3.9-4.2-7-5.1c-1-0.2-2-0.4-2.9-0.4c-2,0-3.8,0.5-5.6,1.6
			c-2.5,1.5-4.2,3.9-5.1,6.9c-0.6,2.2-1.4,4.9-2.2,8c-6.8-5.9-13.9-8.9-21.3-8.9c-3,0-6.1,0.5-9.2,1.5c-10.6,3.5-19.4,12.5-26.2,27
			c-2.2,5.1-3.5,10.3-4.1,15.5c-1.2,3.2-2.8,7.4-4.8,12.6c-3.7,9.7-8.1,20.4-13.1,31.7c-5,11.3-9.9,20.9-14.7,28.4
			c-4.6,7.3-7.4,8.9-9,8.9c-0.4,0-0.7-0.1-1-0.2c-4.6-3.9-6.1-11.6-4.6-22.7c1.5-11.6,4.1-24.3,7.8-38c2.5-10.2,4.6-19.7,6.2-28.5
			c1.2-6.6,1-12.8-0.8-18.6c-1.6-5.3-5.9-8-12.8-8c-1.2,0-2.4,0.1-3.9,0.3c-8.6,1.9-16.3,8.2-22.8,18.7c-5.1,8.1-9.6,16.8-13.4,26
			c0.4-6.1,0.5-12.2,0.3-18.3c-0.3-8.9-1.6-17-4-24c-2.4-7.2-6.5-12.4-12.3-15.6c-3.1-1.4-6-2.1-8.8-2.1c-4.3,0-8.3,1.8-11.6,5.3
			c-5.2,5.5-9.5,13.2-12.7,23c-3.2,9.6-5.5,19.3-7.1,28.6c-0.8,4.6-1.4,8.7-1.9,12.1c-1.7-11.2-2.6-22.5-2.9-33.7
			c-0.2-3.2-1.5-5.8-3.6-7.8c-2-1.9-4.5-2.9-7.4-2.9c-0.2,0-0.3,0-0.5,0c-3.2,0.1-5.8,1.3-7.8,3.5c-2,2.2-3,4.8-3,7.9v0.1l0,0.1
			c0.7,3.4,1.3,6.7,1.9,9.9c-0.9,3.7-2.5,9-4.8,16c-3,9.3-6.9,19.5-11.4,30.1c-4.5,10.6-9.4,19.6-14.3,26.6
			c-4.8,6.8-9.3,10.2-13.6,10.2h-0.8c-6.1-1.8-10.4-9.2-13-22c-2.7-13.3-4.1-24.9-4.1-34.5c-0.1-9.7-0.1-15.4-0.1-17.2
			c0-15.4,0.4-29.8,1.3-42.8c1-14.3,1.8-23.6,2.3-27.5l0.8-5.5c1-6.4,2.1-12.5,3.3-18.2c5.6,0.4,11.1,0.6,16.5,0.6
			c7,0,13.7-0.3,20-1c11.7-1.1,20.4-5,26-11.4c0.7-0.9,1.1-1.9,1.1-3.1v-0.1l0-0.1c-0.2-1.1-0.7-2-1.7-2.8c-0.9-0.7-1.9-1.1-3-1.1
			h-0.1l-0.1,0c-1,0.1-2,0.7-2.9,1.6c-4.3,4.8-10.4,7.6-18,8.3c-7.9,0.7-14.9,1.1-21,1.1c-4.9,0-10-0.2-15.3-0.6
			c4.2-20.2,8.6-35,13.2-44.2c1-1.8,1.5-3.7,1.5-5.5c0-4.2-1.9-7.4-5.8-9.5c-1.8-1-3.8-1.5-5.7-1.5c-4.1,0-7.3,1.9-9.5,5.8
			c-5.9,11.5-11.4,29.5-16.3,53.6c-5.7-0.4-11.2-0.6-16.3-0.6c-4.8,0-9.4,0.2-13.7,0.5c-9.4,0.8-16.5,3.5-20.9,8.1
			c-0.7,0.9-1.1,1.9-1.1,2.9c0,1.2,0.5,2.3,1.3,3c0.8,0.8,1.8,1.1,2.9,1.1h0.3c1.1,0,2.1-0.5,3-1.4c3-3.1,7.3-4.8,12.8-5.2
			c5.8-0.4,10.7-0.6,14.5-0.6c4.7,0,10,0.2,15.5,0.6c-1,5.7-2.1,11.8-3.1,18.1c-0.1,1.3-0.3,2.5-0.5,3.7
			c-2.4,15.6-3.6,34.7-3.8,56.7c-15.3,6.8-28.6,13.2-39.5,19.1c-3.7-6.5-7.2-12.5-10.4-17.8v-0.2l-1.9-3c-3.3-4.6-5.6-9.7-6.8-15.1
			c-0.5-6.6,1.4-11.8,5.8-16c3.4-3.2,7.1-4.8,11.3-4.8c1.2,0,2.5,0.1,3.8,0.4c5.6,1.2,10.4,6.6,14.1,16.2c0.4,1,1.2,1.8,2.1,2.3
			c0.6,0.3,1.2,0.5,1.8,0.5c0.5,0,1.1-0.1,1.6-0.3c1-0.4,1.8-1.2,2.3-2.1c0.5-1,0.6-2.2,0.2-3.3c-2.8-9.6-7.5-17-14-22.1
			c-5.8-4.5-12.2-6.8-19.1-6.8c-0.9,0-1.9,0-2.9,0.1c-10,1.3-17.8,5.6-23,12.9c-5.2,7.2-7.2,16-6.1,26c0.5,3.7,1.5,7.6,3.1,11.4
			c0.6,1.5,1.6,3.4,2.8,5.7c-0.1,0.1-0.1,0.2-0.2,0.3c-0.3,1.1-1.8,4.8-4.3,11.2c-2.5,6.4-5.6,13.5-9.2,21.1
			c-3.6,7.6-7.2,14-10.8,19c-3.2,4.5-5.4,5.5-6.7,5.5c-0.4,0-0.8-0.1-1.1-0.3c-3.1-2.9-4.5-9.1-4.2-18.4c0.3-9.7,1.4-19.8,3.2-29.8
			c1.9-10,3.5-17.1,4.8-21.2c0.9-3,0.6-5.8-0.8-8.5c-1.4-2.6-3.6-4.5-6.6-5.5c-1.2-0.3-2.3-0.5-3.5-0.5c-1.8,0-3.5,0.4-5.1,1.3
			c-2.6,1.4-4.4,3.6-5.4,6.7c-1.7,4.9-3.4,12-5.2,21.2c-0.1,0.6-0.2,1.2-0.3,1.8c-0.8,2-1.8,4.5-2.6,6.7c-2.6,6.6-5.7,14.5-9.3,23.2
			c-3.6,9-7.3,17.7-10.9,26c-3.6,8.2-6.6,14.6-8.9,19c-2.7,4.9-5.4,8.7-7.9,11.3c-1.5,1.6-2.9,2.4-4,2.4c-0.4,0-0.8-0.1-1.1-0.3
			c-4.4-3.8-6.1-12.1-5.1-24.5c1-12.8,3.4-26.9,6.9-41.7c3.6-14.9,6.9-27.6,9.9-37.9c1-3.3,1.8-6.1,2.3-8.4c0.7-3.1,0.4-5.9-1.1-8.4
			c-1.5-2.5-3.8-4.3-6.9-5.3c-0.9-0.2-1.9-0.3-2.9-0.3c-0.6,0-1.3,0-1.9,0.1c-2.4,0.3-4.7,1.6-6.9,4.1c-1.8,2.2-5,5.2-9.4,9
			c-4.4,3.8-9.1,7.2-14,10.2c-3.8,2.3-7.2,3.6-10,3.7c1.2-2.4,2.4-5.6,3.7-9.4c1.6-4.8,2.6-9.6,3.2-14.5c0.6-5.1-0.1-9.2-2.1-12.4
			c-2.2-2.8-4.5-4.2-7.1-4.2c-1.5,0-3.1,0.5-4.7,1.6c-3.9,2.5-7.2,6.9-9.8,12.8c-2.6,5.9-3.7,12-3.3,18.2c0.4,6.2,3.1,11,8.1,14.4
			c0,0.2,0.1,0.5,0.2,0.7l0,0.1l0.1,0.1c0,0.1,0.1,0.1,0.1,0.2c-0.1,0.2-0.2,0.3-0.2,0.5c-0.2,0.5-1,2.7-4.1,10.7
			c-2.5,6.5-5.7,14.4-9.4,23.3c-3.7,8.9-7.4,17.7-11,26c-3.6,8.2-6.6,14.6-9,19c-2.7,4.9-5.3,8.7-7.8,11.3c-1.5,1.6-2.9,2.4-4,2.4
			c-0.4,0-0.9-0.1-1.2-0.3c-3.1-2.4-4.8-6.9-5-13.2c-0.2-6.6,0.5-14.5,2.1-23.3c1.6-8.9,3.5-18.2,5.7-27.5
			c2.2-9.5,4.1-18.4,5.5-26.4c1.5-8.1,1.7-14.6,0.8-19.4c-0.9-3.2-2.8-5.6-5.8-6.9c-2-0.9-4.1-1.4-6.5-1.4c-1,0-2.1,0.1-3.3,0.3
			c-7.5,1.6-14.3,6.6-20.5,14.7c-6,8-11.4,17.3-15.9,27.6c-3.9,8.8-7.3,17.2-10,24.9c-5.4-20.9-6.7-45-3.8-71.6
			c0.4-3.6,0.9-7.3,1.5-11c19.5-1.9,36.1-7.1,49.3-15.5c13.4-8.5,23.4-18.4,29.8-29.4c3.3-5.6,5.7-11.7,7.2-18.2
			c1.5-6.5,1.6-13.1,0.2-19.6c-3.3-12.4-10.9-19.7-22.5-21.9c-2.5-0.5-5.1-0.7-7.7-0.7c-9.1,0-18.5,2.9-28.1,8.6
			c-8.4,4.9-16.4,12.4-23.8,22.1c-7.6,10.2-13.8,22.8-18.4,37.2c-4.7,14.4-7.9,29.8-9.7,45.9c-1.2,11.7-1.7,23-1.5,33.7
			c-2.4,9.3-6.1,19.7-11.3,30.8c-5.5,11.9-12.5,23.3-20.8,33.9c-8.2,10.5-17.7,18.7-28,24.4c-7.1,3.9-14.8,5.9-22.7,5.9h0
			c-3.5,0-7.1-0.4-10.7-1.1c-11.7-3-20.9-9.6-27.3-19.5c-6.5-10.1-10.9-21.9-13.3-35.1c-2.4-13.3-3.2-26.4-2.4-39
			c1.8-27.3,6.9-51.8,15.4-72.7c8.5-20.9,18.7-38,30.3-50.9c11.6-12.8,23.2-20.9,34.5-24.2c3.3-1,6.5-1.5,9.5-1.5
			c6.9,0,13,2.7,18.2,8c7.4,7.7,11.4,21.9,11.7,42.3c0.1,7.7-0.9,15.9-3.1,24.4c-0.3,1.2-0.2,2.3,0.4,3.3c0.5,1,1.5,1.7,2.7,2
			c0.4,0.1,0.8,0.2,1.2,0.2c0.7,0,1.4-0.2,2-0.5c1-0.6,1.7-1.4,2-2.7c2.4-9.4,3.6-18.3,3.5-26.7c-0.4-23.4-5.5-40.8-15-51.6
			c-8.4-9.6-18.9-14.4-31-14.4c-1.6,0-3.3,0.1-5,0.3c-14.2,1.5-28.7,8.8-43.2,21.7c-14.4,12.9-27,31.5-37.4,55.2
			c-10.4,23.7-16.8,52.9-19,86.8c-0.9,16.8,0.7,33.1,4.9,48.4c4.1,15.4,11,28.6,20.4,39.1c9.5,10.6,21.9,16.9,36.9,18.7
			c2,0.1,4,0.2,6,0.2c16.2,0,30.9-5,43.8-14.8c14.3-11,26.4-25,35.8-41.7c5-8.8,9.2-17.6,12.6-26.2c1.6,12.5,4.3,24.2,8.2,35.1
			c1.2,2.8,3.2,4.9,5.8,6.1c1.4,0.7,2.9,1,4.4,1c1.4,0,2.8-0.3,4.3-0.8c3.9-1.7,6.3-4.7,7-8.8c1.9-7.6,5.3-17.3,10.2-28.7
			c4.9-11.4,10.1-21.5,15.4-30.1c5.9-9.6,9.1-11,10.5-11c0.1,0,0.2,0,0.4,0c0.3,0.4,0.9,1.9-0.2,7.8c-0.9,5.1-2.4,11.7-4.2,19.4
			c-2.9,11.8-5.4,24.6-7.5,38c-2.1,13.5-2.1,25.3,0.2,35.2c2.3,10.3,8.9,16.2,19.7,17.5l0.4,0c4.7,0,9.2-2.1,13.3-6.3
			c4-4.1,7.8-9.2,11.1-15.1c3.3-5.9,7.5-14.8,12.5-26.4c4.9-11.6,9.6-22.9,13.8-33.7c4.2-10.7,6.9-17.7,8.1-20.9l0-0.1
			c0.2-0.6,0.2-1.2,0.1-1.8c4-0.2,9-1.8,15.1-5c5.7-2.9,11.1-6.4,16.3-10.4c-2.5,8.7-5.1,19-7.9,30.4c-3.2,13.1-5.4,26.3-6.8,39.3
			c-1.3,13.1-0.6,24.2,2.1,33.3c2.9,9.4,9.2,14.7,19,15.7l0.4,0c4.7,0,9.2-2.1,13.2-6.2c4-4,7.7-9.1,11.1-15
			c3.4-6,7.7-14.9,12.6-26.5c3.2-7.6,6.3-15.1,9.3-22.5c0.1,8.4,1.5,15.9,4.1,22.2c3.1,7.5,8.9,11.8,17.3,12.8l0.4,0
			c4.8,0,9.3-2.1,13.4-6.3c4-4.1,7.7-9.2,11.1-15.1c4.8-8.3,9-16.9,12.4-25.6c2.1-5.1,3.8-9.5,5.1-13.1c3.2,5.3,6.7,11.3,10.5,17.9
			c-7.5,5.1-13.9,11.2-19,18.2c-5.3,7.3-8.5,15.9-9.5,25.6c-0.8,9.1,1,17.4,5.4,24.6c4.4,7.4,12,11.8,22.6,13.2
			c1.1,0.1,2.3,0.1,3.4,0.1c8.9,0,16.4-2.9,22.4-8.6c6.7-6.4,10.9-14.7,12.5-24.8c0.9-7.9-0.2-16.6-3.3-25.9
			c-2.9-8.9-6.8-17.7-11.4-26.4c10-5.3,21.9-11.1,35.6-17.3c0.2,15.9,1.3,30.4,3.3,43c4.8,31.5,16.5,47.5,34.6,47.5h1.1l0.1,0
			c12.7-1.5,24.7-14.7,36.5-40.2c4.8-10.5,8.8-20.8,12-30.7c0.2-0.6,0.4-1.2,0.6-1.8c1.9,10.8,4.3,21.7,7.3,32.7c1,3,3.1,5,6.1,6
			c1.3,0.4,2.6,0.6,3.8,0.6c1.6,0,3.1-0.3,4.5-1c1.9-0.9,4.2-2.8,4.2-7.1c0.1-2.3,0.7-8.5,1.7-18.4c1-9.9,2.6-20.7,4.7-32.1
			c2.1-11.4,4.7-20.5,7.9-27.3c1.8-3.9,3.8-5.9,5.8-5.9c1.1,0,2.4,0.6,3.7,1.7c3.3,4,5.2,11.3,5.5,21.6c0.3,10.6-0.1,21.6-1.2,32.6
			c-1.1,11-2,19.2-2.8,24.6c-0.4,3.2,0.4,6,2.1,8.3c1.8,2.3,4.3,3.8,7.3,4.3c0.6,0.1,1.1,0.1,1.7,0.1c2.1,0,4-0.5,5.7-1.6
			c2.2-1.3,3.8-3.3,4.6-5.7l0.4-0.7l0-0.1c1.6-7.4,4.8-16.8,9.4-27.9c4.6-11.1,9.5-20.8,14.6-29.1c5.7-9.2,8.7-10.6,10.1-10.6
			c0.1,0,0.2,0,0.4,0c0.4,0.5,1.1,2.6-0.6,11c-0.9,4.4-2,9.6-3.3,15.2c-2.9,11.4-5.3,23.6-7.2,36.3c-1.9,12.8-1.6,24.1,0.9,33.6
			c2.6,9.8,9.3,15.4,20.1,16.6l0.3,0c5.8,0,11.8-3.9,17.7-11.6c5.8-7.6,11.3-17,16.5-27.9c5.1-10.9,9.7-21.7,13.7-32
			c0.4-1,0.8-2,1.1-3c1.2,2.9,2.8,5.5,5,7.6c2.7,2.7,6.3,4.1,10.5,4.1c3,0,6.3-0.7,10-2l0.1,0l0.1-0.1c3.9-2.4,7.8-5.9,11.6-10.5
			c3.7-4.4,7.3-9.3,10.7-14.6c-1.8,7.7-3.1,15.4-4.1,23c-1.2,10.1-0.9,19,1,26.7c2,7.9,6.4,13.4,13.2,16.6c2.2,0.8,4.3,1.1,6.5,1.1
			c4.8,0,9.7-1.9,14.3-5.7c6.5-5.3,12.8-12.6,18.4-21.8c5.6-9.1,10.5-18.3,14.5-27.3c2.6-5.8,4.7-10.8,6.3-15
			c3.2,5.3,6.8,11.4,10.6,18c-7.5,5.1-13.9,11.2-19,18.2c-5.3,7.3-8.5,15.9-9.5,25.6c-0.8,9.1,1,17.4,5.4,24.6
			c4.4,7.4,12,11.8,22.6,13.2c1.1,0.1,2.3,0.1,3.4,0.1c8.9,0,16.4-2.9,22.4-8.6c6.7-6.4,10.9-14.7,12.5-24.8
			c0.9-7.9-0.2-16.6-3.3-25.9c-2.9-8.9-6.8-17.7-11.4-26.4c11.2-6,25-12.6,40.9-19.6c1.1-0.5,1.8-1.2,2.3-2.3
			C1057.5,443.3,1057.5,442.1,1057.1,441z M301.9,341.5c5.6-7.4,11.5-12.9,17.4-16.5c5.8-3.3,12.3-4.9,19.4-4.9l0.3,0
			c7.1,0.1,12.6,2.1,16.2,5.9c2.9,3.8,3.6,8.2,2,13.4c-1.6,5.4-3.6,10.1-6.1,14c-5.6,9.8-14.5,18.6-26.4,26.2
			c-11.6,7.4-26.2,12.2-43.5,14.2C285.4,372.6,292.4,355,301.9,341.5z M391.7,410c-0.3,3.2-1,6.9-2.1,11c-1,3.5-2.2,6.9-3.8,10.2
			c-1.4-2.1-2.1-4.3-2.1-6.8c0-3.2,0.6-6.4,1.8-9.3c1.2-3,2.6-5.5,4-7.5c1-1.3,1.6-1.9,2-2.1C391.7,406,391.9,407.3,391.7,410z
			 M564.1,515.4c-0.8,4.7-2.8,9-6,12.5c-3.1,3.6-6.6,5.8-10.4,6.7c-1.6,0.3-3.1,0.4-4.5,0.4h0c-4.5,0-7.9-1.5-10.2-4.6
			c-3.2-4.2-4.7-9.5-4.5-15.8c0.6-8.1,3.3-15.4,8-21.5c4.4-5.9,9.8-11,16-15.2c3.5,6.8,6.5,13.5,8.8,20
			C563.7,504.7,564.7,510.6,564.1,515.4z M907.3,442.2c-4.6,7.9-9.6,15.2-14.8,21.5c-3.2,3.9-6.4,6.8-9.5,8.7
			c-0.9,0.5-1.5,0.6-1.9,0.6c-0.9,0-1.4-1.1-1.6-3.4c-0.3-4.1,0.6-9.6,2.5-16.4c2-6.9,4.8-13.6,8.4-19.9c3.5-6.3,7.5-10.7,11.9-13.3
			c1.6-0.9,3.2-1.4,4.8-1.4c2.6,0,5.3,1.2,8.1,3.7c0.7,0.6,1.4,0.9,2.2,1C914.8,428.8,911.4,435.1,907.3,442.2z M1006.5,515.4
			c-0.8,4.7-2.8,9-6,12.5c-3.1,3.6-6.6,5.8-10.4,6.7c-1.6,0.3-3.1,0.4-4.5,0.4h0c-4.5,0-7.9-1.5-10.2-4.6c-3.2-4.2-4.7-9.5-4.5-15.8
			c0.6-8.1,3.3-15.4,8-21.5c4.4-5.9,9.8-11,16-15.2c3.5,6.8,6.5,13.5,8.8,20C1006.1,504.7,1007,510.6,1006.5,515.4z"/>
	</g>
	<g>
		<path class="st19" d="M216.3,704.3c-3.7-3.3-7.9-2.9-9.5-2.6c-2.9,0.5-5.5,2.2-7.7,5c-8.5,11.2-18.3,16.9-29.2,16.9
			c-6,0-11.7-1.7-17-5.2c-5.3-3.5-10-8.3-14.1-14.4c-4-6.1-7.3-13.3-9.6-21.4c-2.3-8.1-3.5-16.9-3.5-26.2c0-9.3,1.2-18.1,3.5-26.1
			c2.3-8.1,5.5-15.3,9.6-21.4c4-6.1,8.8-10.9,14.1-14.4c5.2-3.4,11-5.2,17-5.2c2.4,0,5.1,0.4,8.1,1.2c3,0.8,6.2,2.2,9.5,4.4
			c3.3,2.2,6.7,5.3,10.1,9.4l1.5,2c2.8,3.4,6.2,5.1,9.9,5.1c2.2,0,4.2-0.6,6.1-1.9c3.6-2.6,5.4-6,5.4-10.1c0-2.2-0.6-4.3-1.8-6.4
			c-4.4-6.6-10.4-12.6-17.8-17.6c-10-6.6-20.4-10-31-10c-9.1,0-17.9,2.3-26.2,7c-8.2,4.6-15.6,11.3-22,19.9
			c-6.4,8.6-11.3,18.5-14.7,29.5c-3.4,10.9-5.1,22.6-5.1,34.6c0,12.1,1.7,23.7,5.1,34.6c3.4,10.9,8.3,20.8,14.7,29.4
			c6.4,8.7,13.8,15.4,22,20c8.3,4.6,17,6.9,26.2,6.9c9.3,0,18.3-2.4,26.6-7c8.3-4.6,15.6-11.3,21.7-19.9c1.6-2.3,2.4-4.7,2.4-7.3
			c-0.1-3.2-1.4-6-3.7-8.3L216.3,704.3z M207.9,592.6c0.9-1.1,1.9-2.1,2.9-3c1.8,2.1,3.4,4,4.5,5.8c0.8,1.3,1.2,2.6,1.2,4.2
			c0,2.7-1.2,4.9-3.6,6.6c-1.2,0.8-2.5,1.2-3.8,1.2c-2.5,0-4.7-1.2-6.7-3.6l-1.4-1.7C203.1,598.7,205.4,595.5,207.9,592.6z
			 M168.9,584.2c1.6-5,3.9-9.8,6.9-14.3c4.1,0.5,8,1.5,11.6,3c3.4,1.3,6.5,2.9,9.4,4.7c-0.9,0.9-1.7,1.8-2.5,2.7
			c-2.6,3-5.1,6.1-7.2,9.4c-3-1.7-6-2.8-8.8-3.5c-3.1-0.7-5.9-1-8.3-1c-0.4,0-0.9,0-1.4,0C168.7,584.9,168.8,584.6,168.9,584.2z
			 M153.7,572.5c-0.8,2-1.6,4-2.3,6c-1.5,4.6-2.6,9.4-3.2,14.2c-4.3,3.2-8.3,7.4-11.9,12.4c-1.2-2.4-2.3-4.9-3.2-7.4
			c-1.1-3.1-2-6.4-2.6-9.7C137.4,580.9,145.2,575.6,153.7,572.5z M117.3,607.7c2.5,6,5.7,11.7,9.5,16.9c-2,5.9-3.4,12.2-4.2,18.7
			c-2-0.7-3.9-1.6-5.7-2.5c-3-1.6-6-3.4-8.8-5.5C110,625.2,113.1,615.9,117.3,607.7z M106.2,656.4c0-0.2,0-0.4,0-0.6
			c0.8,0.4,1.6,0.9,2.4,1.3c4.3,2.2,8.7,3.9,13.3,5.3c0.4,7.4,1.6,14.5,3.5,21.1c-1,0.1-2.1,0.1-3.1,0.1c-1.5,0-3-0.1-4.5-0.2
			c-2.9-0.2-5.9-0.7-8.9-1.4C107.1,673.9,106.2,665.3,106.2,656.4z M135.1,719.1c-2.9,0.5-5.8,0.8-8.6,0.9
			c-4.2-5.4-7.9-11.5-11-18.3c0.3,0,0.5,0,0.7,0.1c2.2,0.2,4.4,0.3,6.5,0.3c3.2,0,6.5-0.2,9.7-0.7c1,1.8,2,3.6,3.1,5.2
			c2.6,3.9,5.5,7.3,8.6,10.2C141.2,717.8,138.2,718.6,135.1,719.1z M180.1,728.8c-2.5,5.2-5.7,10.2-9.5,14.6l-0.6,0
			c-9.2-0.1-17.9-2.6-25.8-7.5c7.3-1.8,14.2-4.7,20.6-8.6c1.7,0.3,3.5,0.4,5.2,0.4c3.9,0,7.7-0.7,11.4-2
			C181,726.8,180.6,727.8,180.1,728.8z M214.8,718.2c-5,7-10.8,12.7-17.3,16.8c3.8-8.7,5.9-18,6.4-27.5c0.8-0.7,1.6-1.2,2.4-1.5
			c0.9-0.3,1.7-0.5,2.4-0.5c2.1,0,3.9,0.8,5.5,2.4c1.6,1.6,2.4,3.4,2.4,5.5C216.5,715,215.9,716.6,214.8,718.2z"/>
		<path class="st19" d="M354.3,590c-6.2-8.4-13.6-15-21.8-19.8c-8.3-4.8-17.3-7.2-26.7-7.2c-9.4,0-18.5,2.4-26.8,7.2
			c-8.3,4.8-15.6,11.4-21.8,19.8c-6.2,8.3-11.1,18.2-14.6,29.2c-3.5,11-5.3,23-5.3,35.5v79.4c0,3.3,1.2,6.2,3.4,8.5
			c2.3,2.3,5.1,3.5,8.5,3.5c3.3,0,6.2-1.2,8.5-3.5c2.4-2.3,3.6-5.2,3.6-8.5V673h89v61.1c0,3.3,1.2,6.2,3.5,8.5
			c2.3,2.3,5.2,3.5,8.5,3.5c3.3,0,6.2-1.2,8.5-3.5c2.4-2.3,3.6-5.2,3.6-8.5v-79.4c-0.1-12.6-1.9-24.6-5.4-35.6
			C365.4,608.1,360.5,598.3,354.3,590z M355.2,616.7c2.1-1.8,4.3-3.4,6.6-4.8c3.2,7.7,5.5,16.2,6.9,25.1c0,0,0,0,0,0
			c-2.8,0-5.6-0.2-8.3-0.5c-2.6-0.4-5.3-0.8-7.9-1.4c-0.8-4.4-1.9-8.7-3.3-12.7C351,620.3,353.1,618.4,355.2,616.7z M334.8,579.6
			c0.2-0.8,0.5-1.6,0.9-2.4c6.6,4.7,12.5,10.9,17.5,18.3c-3.4,2-6.7,4.3-9.8,6.9c-0.9,0.8-1.8,1.6-2.7,2.4
			c-2.7-4.1-5.7-7.7-8.9-10.7C332.2,589.1,333.2,584.3,334.8,579.6z M305.7,567c4.5,0,8.9,0.7,13.3,1.9c-0.7,1.5-1.3,3.1-1.8,4.7
			c-1.1,3.4-2.1,6.8-2.7,10.4c-2.8-0.8-5.8-1.2-8.8-1.2c-2.1,0-4.1,0.2-6.1,0.6c-2.2-3.2-4-6.6-5.6-10.2c-0.6-1.4-1.2-2.8-1.7-4.3
			C296.7,567.7,301.2,567,305.7,567z M305.7,587.1c5.6,0,11.1,1.6,16.3,4.6c5.2,3.1,9.9,7.7,14.1,13.7c8.2,11.9,12.9,26.6,13.9,43.6
			h-88.5c1-17,5.7-31.6,13.9-43.6c4.2-6,8.9-10.6,14.1-13.7C294.6,588.6,300.1,587.1,305.7,587.1z M275.7,577.2
			c0.4,1.1,0.9,2.3,1.4,3.4c1.6,3.7,3.5,7.3,5.6,10.7c-4,3.2-7.6,7.1-10.8,11.6c-2.1-1.2-4.1-2.5-6.1-4c-2.2-1.6-4.3-3.3-6.2-5.3
			C264.3,587.1,269.7,581.6,275.7,577.2z M250.2,610.2c1.5,1.3,3.1,2.5,4.7,3.7c2.7,2,5.5,3.8,8.5,5.4c-1.6,4.2-3,8.7-4,13.4
			c-3-0.9-5.8-2-8.6-3.3c-2-0.9-4-2-5.9-3.3C246.3,620.6,248.1,615.2,250.2,610.2z M257.1,734.1c0,2.2-0.8,4-2.3,5.5
			c-1.6,1.6-3.4,2.3-5.7,2.3c-2.2,0-4-0.7-5.6-2.3c-1.5-1.5-2.3-3.3-2.3-5.6v-6c1.2,0.4,2.4,0.9,3.7,1.2c3.9,1.2,8,2.1,12.2,2.6
			V734.1z M257.1,713.2c-2.3-0.4-4.6-0.9-6.9-1.7c-3-0.9-6-2.1-9-3.5v-23.4c1.2,0.4,2.5,0.8,3.6,1.2c3.9,1.2,8,2.2,12.2,2.7V713.2z
			 M262.5,664.5c-0.2,1.4-0.3,2.9-0.4,4.3h-5.1v0.9c-2.3-0.4-4.6-1-6.8-1.6c-3-1-6-2.2-9-3.5v-9.9c0-3.1,0.1-6.2,0.3-9.2l1.2,0.6
			c4.6,2.2,9.4,3.9,14.3,5.2v1.8h7.4C263.6,656.8,262.9,660.6,262.5,664.5z M294.5,664.5c-0.2,1.5-0.3,2.9-0.4,4.3h-13.4
			c0-0.8,0.1-1.5,0.2-2.3c0.5-4.5,1.5-9.1,3.1-13.4h12.6C295.6,656.8,294.9,660.6,294.5,664.5z M325.1,664.5
			c-0.2,1.4-0.3,2.9-0.4,4.3h-12c0.1-0.8,0.1-1.5,0.2-2.3c0.5-4.5,1.5-9.1,3.1-13.4h11.2C326.2,656.8,325.5,660.6,325.1,664.5z
			 M370.1,734.1c0,2.2-0.8,4-2.3,5.5c-1.6,1.5-3.4,2.3-5.6,2.3c-2.2,0-4-0.7-5.6-2.3c-1.5-1.5-2.3-3.3-2.3-5.6v-2.2
			c2.4-1,4.9-1.8,7.4-2.5c2.7-0.7,5.5-1.3,8.3-1.6V734.1z M370.1,709.2c-4.4,0.4-8.8,1.2-13.1,2.3c-0.9,0.2-1.8,0.4-2.6,0.7v-19.8
			c2.4-1,4.8-1.9,7.3-2.5c2.8-0.7,5.6-1.3,8.4-1.6V709.2z M370.1,669.6c-4.4,0.4-8.8,1.2-13.1,2.3c-0.9,0.2-1.8,0.5-2.6,0.7v-3.9
			h-11.1c0.1-0.8,0.1-1.5,0.2-2.3c0.5-4.5,1.5-9.1,3.1-13.4h1.6c3.3,0.8,6.7,1.4,10.1,1.8c3.5,0.4,7,0.6,10.5,0.6h1.3V669.6z"/>
		<path class="st19" d="M486.9,724.7c-2.6-2.4-6.4-2.7-9-2.7H476h-55.3c-1.7,0-3.1-0.6-4.5-1.8c-1.4-1.2-2.1-2.9-2.2-5.1l0-141
			c0-3.1-1.1-6.1-3.2-8.3c-2.4-2.5-5.4-3.8-8.9-3.8c-3.3,0-6.2,1.2-8.5,3.5c-2.3,2.3-3.5,5.2-3.5,8.5v141.4c0,8.3,3,15.6,9.1,21.9
			c6.2,5.9,13.5,8.8,21.7,8.8h58.5c3.2,0,6.1-1.2,8.5-3.6c2.4-2.4,3.6-5.2,3.6-8.6c-0.1-3.4-1.4-6.2-3.6-8.5L486.9,724.7z M394,574
			c0-2.2,0.7-4,2.3-5.6c1.5-1.5,3.3-2.3,5.6-2.3c2.1,0,4.1,0.8,5.7,2.3c1.6,1.5,2.3,3.3,2.3,5.5v12.7c-2.9,0.5-5.8,1.3-8.7,2.2
			c-2.4,0.8-4.8,1.7-7.2,2.7V574z M394,612.3c4-2.4,8.3-4.4,12.8-5.7c1-0.3,2-0.6,3.1-0.9v27.4c-2.9,0.6-5.8,1.3-8.7,2.2
			c-2.4,0.8-4.8,1.7-7.1,2.7V612.3z M394,658.8c4-2.4,8.3-4.4,12.8-5.7c1-0.3,2-0.7,3-0.9v32c-2.9,0.6-5.8,1.3-8.7,2.1
			c-2.4,0.8-4.8,1.7-7.2,2.7V658.8z M410,731.9c-0.8,2.3-1.5,4.7-2.1,7c-4-2.1-7.3-5.2-9.7-9c-2.8-4.3-4.2-9.2-4.2-14.6v-5.5
			c4-2.4,8.3-4.4,12.8-5.7c1-0.3,2.1-0.6,3.1-0.9l0,12c0.2,3.6,1.4,6.3,3.6,8.2C412.1,726.2,411,729,410,731.9z M452.1,737.5
			c-0.5,1.5-1,3-1.4,4.5h-24.4c0.4-1.4,0.8-2.8,1.3-4.1c1.4-4.1,3.2-8,5.4-11.7h23.8C455,729.8,453.4,733.6,452.1,737.5z M487,734.5
			c-0.1,1.9-0.9,3.8-2.3,5.2l-1.3,1.4c-0.6,0.6-1.4,1-2.3,1h-10.9c2.1-5.6,5.1-11,8.7-15.8h0.2c2.2,0,4.1,0.7,5.6,2.3
			C486.4,730.1,487.1,732,487,734.5z"/>
		<path class="st19" d="M602.2,590.4c-6.5-8.8-14.1-15.6-22.3-20.2c-8.3-4.7-17.2-7-26.5-7c-9.2,0-18.1,2.4-26.4,7
			c-8.3,4.6-15.9,11.4-22.4,20.2c-6.5,8.7-11.5,18.8-14.8,29.8c-3.4,11-5.1,22.8-5.1,34.9c0,12.2,1.7,24,5.1,35.1
			c3.4,11.1,8.4,21.1,14.8,29.8c6.5,8.8,14.1,15.6,22.4,20.2c8.3,4.6,17.2,7,26.4,7c9.2,0,18.1-2.4,26.5-7
			c8.3-4.6,15.8-11.4,22.3-20.2c6.5-8.7,11.4-18.8,14.8-29.8c3.4-11,5.1-22.8,5.1-35c0-12.1-1.7-23.9-5.1-35
			C613.6,609.1,608.6,599.1,602.2,590.4z M591,596.7c1.5-2.6,3.1-5.2,5-7.6c5.4,6.6,10,14.3,13.7,23c-4,2.8-7.8,6-11.2,9.5
			c-0.5,0.5-1,1-1.4,1.5c-2.2-6.7-5.2-12.9-8.9-18.5l-0.5-0.7C588.6,601.5,589.7,599,591,596.7z M559.7,575.8c0.5-2.6,1.2-5.2,2-7.7
			c7.3,1.3,14.1,4.2,20.4,8.5c-2.8,3.5-5.3,7.3-7.4,11.2c-0.3,0.6-0.7,1.3-1,1.9c-4.7-3.2-9.8-5.2-15-6.1
			C558.8,581,559.2,578.4,559.7,575.8z M542.1,568.7c-0.3,1.2-0.5,2.3-0.7,3.5c-0.9,4.5-1.4,9.1-1.4,13.7c-4.9,2.1-9.5,5.2-13.7,9.4
			c-3.4-2.6-6.5-5.6-9.2-8.8c-0.6-0.7-1.2-1.4-1.8-2.2C523.2,576.4,532.2,571.2,542.1,568.7z M503.6,599.4c3.5,4,7.4,7.7,11.6,11
			c-3.1,5.7-5.5,12.1-7.3,18.9c-2.3,0.2-4.6,0.4-6.9,0.4c0,0,0,0,0,0c-1.9,0-3.9-0.1-5.8-0.3c-1.1-0.1-2.3-0.2-3.5-0.4
			C494.4,617.9,498.3,608,503.6,599.4z M491.4,679.6c-1.7-7.7-2.5-15.9-2.5-24.4c0-2.7,0.1-5.3,0.2-8c1.4,0.2,2.9,0.4,4.4,0.6
			c2.5,0.3,5,0.4,7.5,0.4c1.3,0,2.6,0,3.9-0.1c-0.1,2.4-0.2,4.8-0.2,7.1c0,4.3,0.3,8.5,0.7,12.6c-2.9,3.3-6.2,6.3-9.7,8.8
			C494.3,677.7,492.9,678.7,491.4,679.6z M516.7,715.6c-1.2,2.6-2.6,5.2-4.2,7.7c-6.3-7.1-11.5-15.6-15.5-25.4
			c3.4-1.8,6.7-3.9,9.8-6.2c1.2-0.9,2.3-1.8,3.4-2.7c2.2,6.2,5.1,11.9,8.5,17.1c0.4,0.5,0.7,1,1.1,1.5
			C518.9,710.2,517.9,712.9,516.7,715.6z M526.8,735.3c2.6-3.7,4.9-7.7,6.8-11.9c0.3-0.5,0.5-1.1,0.8-1.7c4.8,3,10,4.8,15.3,5.4
			c0.7,2.4,1.2,4.8,1.6,7.2c0.5,2.9,0.7,5.9,0.7,8.8C543,742.7,534.5,740.1,526.8,735.3z M536.3,718c-5.4-3.5-10.2-8.4-14.3-14.5
			c-4.1-6.2-7.4-13.5-9.7-21.7c-2.3-8.2-3.5-17.2-3.5-26.5c0-9.3,1.2-18.2,3.5-26.4c2.3-8.2,5.6-15.5,9.7-21.7
			c4.1-6.1,8.9-11,14.3-14.5c5.3-3.5,11.1-5.2,17.1-5.2c6.1,0,11.8,1.8,17.2,5.2c5.4,3.5,10.2,8.4,14.2,14.5
			c4.1,6.2,7.4,13.5,9.7,21.7c2.4,8.2,3.6,17.1,3.6,26.4c0,9.4-1.2,18.3-3.6,26.5c-2.4,8.2-5.6,15.5-9.7,21.7
			c-4.1,6.1-8.8,11-14.2,14.5c-5.3,3.5-11.1,5.2-17.2,5.2C547.4,723.2,541.6,721.4,536.3,718z M570.5,740c-0.1-2.8-0.4-5.7-0.9-8.5
			c-0.4-2.5-0.9-5-1.6-7.4c4.4-2.1,8.6-5.1,12.4-8.8c4.3,1.3,8.5,3.1,12.4,5.3c0.8,0.4,1.7,0.9,2.5,1.4
			C588.2,730.3,579.8,736.4,570.5,740z M605.8,706.6c-1.2-0.8-2.5-1.5-3.8-2.2c-3.2-1.8-6.6-3.4-10.1-4.8c2.1-4,3.9-8.2,5.3-12.7
			c3.8-2.2,7.8-4,12-5.3c2-0.7,4.1-1.2,6.2-1.6C613.2,689.6,610,698.6,605.8,706.6z M617.9,660.7c-4.8,0.6-9.6,1.7-14.2,3.2
			c-0.7,0.2-1.3,0.4-1.9,0.6c0.2-3,0.3-6.1,0.3-9.2c0-2.4-0.1-4.9-0.3-7.4c2.7-4.8,6-9.2,9.9-13.2c1.2-1.2,2.5-2.4,3.8-3.5
			c1.6,7.7,2.5,15.8,2.5,24.1C617.9,657,617.9,658.9,617.9,660.7z"/>
		<path class="st19" d="M692.1,666.4c-0.3-0.5-0.5-1-0.7-1.6c-0.1-0.6-0.3-1.2-0.3-1.5v-3.3c11.9-0.2,22.6-5.1,31.8-14.6
			c8.9-9.9,13.4-21.4,13.4-34c0-6.1-1.1-12.2-3.4-17.9c-2.2-5.8-5.5-11-9.7-15.5c-9.2-9.7-20.9-14.9-34.8-15.3h-18.6
			c-7.4,0-14.3,2.9-20.5,8.6c-5.8,6-8.7,12.9-8.7,20.4V734c0,3.4,1.1,6.3,3.4,8.5c2.3,2.3,5.1,3.5,8.4,3.5c3.3,0,6.1-1.2,8.4-3.5
			c2.3-2.3,3.5-5.2,3.5-8.5v-74.1h3v3c0,6.8,2.1,13.1,6.3,18.7l41.5,59.3c2.6,3.3,5.8,5,9.6,5c2.4,0,4.7-0.7,6.8-2.3
			c3.4-2.6,5.1-5.9,5.1-9.9c-0.1-2.5-0.8-4.8-2.2-6.9L692.1,666.4z M697.9,655c-1.5-3.1-2.9-6.9-4.1-11.3c-0.4-1.3-0.7-2.7-1-4.1
			c1.6-0.3,3.2-0.7,4.7-1.2c4.5,2.4,9.3,4.3,14.3,5.7c1.7,0.5,3.5,1,5.3,1.3C711.5,650.3,705.1,653.5,697.9,655z M723.6,606.5
			c2.6-1.7,5-3.6,7.4-5.6c0.8,3.4,1.3,6.9,1.3,10.3c0,6.1-1.1,11.9-3.3,17.3c-4.1-0.3-8.3-1-12.3-2.2c-1.2-0.3-2.3-0.7-3.5-1.1
			c2.4-4.2,3.5-8.9,3.5-14v-0.5C719.1,609.4,721.4,608,723.6,606.5z M710.7,572.9c4.7,2.9,8.7,6.4,11.9,10.6c-2.7,2.8-5.8,5.3-9,7.5
			c-1.1,0.7-2.1,1.4-3.2,2c-3.4-4.3-7.8-7.3-13-9.1c-0.1-3-0.3-6.1-0.7-9.2c-0.3-2.5-0.8-4.9-1.3-7.4
			C701,568.2,706.2,570.1,710.7,572.9z M655.2,571.6c4.3-3.2,9.2-4.8,14.7-4.8h6.2c1.1,3.4,1.9,6.9,2.3,10.5
			c0.3,1.7,0.4,3.5,0.5,5.3h-8c-2.3,0-4.5,0.7-6.3,2.1c-2.2-0.5-4.4-1-6.6-1.4c-3.6-0.6-7.3-0.8-10.9-0.8c-0.1,0-0.3,0-0.4,0
			C648.4,578.1,651.3,574.4,655.2,571.6z M644.7,601c0.6,0,1.2,0,1.8,0c2.9,0,5.8,0.2,8.6,0.7c1.7,0.3,3.4,0.6,5.1,1v14.5
			c-4.7,2-9.2,4.6-13.4,7.6c-0.7,0.5-1.4,1-2.1,1.5V601z M660.3,734c0,2.2-0.8,4-2.3,5.5c-1.5,1.5-3.4,2.3-5.5,2.3
			c-2.4,0-4.3-0.9-5.8-2.6c2.7-3.4,5.7-6.4,9-9.2c1.5-1.2,3-2.4,4.6-3.5V734z M660.3,705.3c-5.5,2.6-10.8,5.9-15.5,9.8v-18.6
			c3.1-4.4,6.8-8.3,10.9-11.7c1.5-1.2,3-2.4,4.6-3.5V705.3z M677.9,680.4l-0.8-1.2c-3.6-4.8-5.5-10.2-5.5-16.3v-7.2h-11.3v4.4
			c-5.5,2.6-10.7,5.9-15.5,9.7v-18c3.7-4.6,7.9-8.6,12.5-11.9c1.3-0.9,2.7-1.7,4.1-2.5c0.3,0.5,0.7,1,1.2,1.4c0.9,0.8,1.9,1.3,3,1.3
			h8.8c0.4,2.5,1,5.3,1.8,8.5c0.6,2.3,1.7,5.3,3.3,8.8c1.5,3.3,3.6,7,6.3,10.8C682.6,671.9,680.1,676.1,677.9,680.4z M665.5,635.8
			c0,0-0.2,0-0.6-0.5c-0.3-0.4-0.5-0.7-0.5-1v-41c0-1.8,0.6-3.3,1.8-4.6c1.4-1.3,2.9-2,4.7-2h17.6c4.4,0,8.5,1.1,12.1,3.3
			c3.6,2.2,6.6,5.2,8.8,8.9c2.2,3.7,3.3,7.9,3.3,12.4c0,4.4-1.1,8.6-3.3,12.3c-2.2,3.7-5.1,6.7-8.7,8.9c-3.6,2.2-7.7,3.3-12.1,3.4
			L665.5,635.8z M700.8,713.2l-10.4-14.9c0.9-3,2-5.9,3.4-8.7c1.3-2.6,2.7-5.1,4.3-7.5l10.4,14.8C705.3,702,702.8,707.4,700.8,713.2
			z M729.1,740.3c-1.3,1-2.8,1.5-4.4,1.5c-2.4,0-4.5-1.1-6.2-3.3l-3.4-4.9c0.4-4.9,1.4-9.7,2.9-14.3c0.6-1.8,1.4-3.7,2.2-5.5
			l10.9,15.4c0.9,1.4,1.4,2.9,1.4,4.5C732.4,736.5,731.3,738.7,729.1,740.3z"/>
		<path class="st19" d="M793.8,588.1c0.7-0.7,1.3-1,1.8-1h4.9c3.3,0,6.2-1.2,8.5-3.6c2.3-2.4,3.5-5.2,3.5-8.5c0-3.3-1.2-6.2-3.4-8.5
			c-2.3-2.3-5.2-3.5-8.6-3.5H761c-3.4,0-6.3,1.2-8.6,3.5c-2.3,2.3-3.4,5.2-3.4,8.5c0,3.3,1.2,6.2,3.5,8.5c2.3,2.4,5.2,3.6,8.4,3.6
			h4.9c0.6,0,1.2,0.3,1.8,1c0.7,0.7,1,1.4,1,2v129.5c0,0.7-0.3,1.4-1,2.3c-0.9,1.1-1.6,1.1-1.8,1.1H761c-3.4,0-6.3,1.2-8.6,3.5
			c-2.3,2.3-3.5,5.1-3.5,8.5c0,3.3,1.2,6.2,3.5,8.6c2.3,2.4,5.2,3.6,8.4,3.6h39.5c3.3,0,6.2-1.2,8.5-3.6c2.3-2.4,3.5-5.3,3.5-8.6
			c0-3.3-1.2-6.2-3.5-8.5c-2.3-2.3-5.2-3.5-8.6-3.5h-4.9c-0.6,0-1.3-0.6-1.8-1.1c-0.7-0.8-1-1.5-1-2.3V590.2
			C792.8,589.5,793.1,588.8,793.8,588.1z M753.3,576.9c-0.1-0.6-0.2-1.2-0.2-1.9c0-2.2,0.7-4,2.3-5.6c1.5-1.5,3.4-2.3,5.6-2.3h0.6
			C758.7,570.1,755.9,573.4,753.3,576.9z M788.7,718.8c-1.8,1.2-3.5,2.5-5.2,3.9c-6.8,5.7-12.7,12.5-17.3,20.1l-5.2,0
			c-2.2-0.1-4.1-0.8-5.6-2.4c-1.5-1.5-2.3-3.4-2.3-5.6c0-2.2,0.7-4,2.3-5.6c1.5-1.5,3.4-2.3,5.6-2.3h4.8c1.9,0,3.6-0.9,5-2.5
			c1.3-1.6,2-3.3,2-5v-3.2c3.8-7.8,9.1-14.5,15.8-20.1c0,0,0,0,0.1,0V718.8z M788.7,673.8c-4.2,2.4-8.1,5.1-11.9,8.2
			c-1.4,1.1-2.7,2.3-4,3.5v-8.6c3.8-7.8,9.1-14.5,15.8-20.1c0,0,0,0,0.1,0V673.8z M788.7,634.4c-4.2,2.3-8.1,5.1-11.9,8.1
			c-1.4,1.1-2.7,2.3-3.9,3.5v-19c3.4-5.4,7.7-10.2,12.6-14.3c1.1-0.8,2.1-1.7,3.3-2.5V634.4z M795.3,737c3.4-2.8,7.2-5.3,11.1-7.3
			c1.3,1.5,1.9,3.1,1.9,5.1c-0.1,2.3-0.8,4.2-2.3,5.8c-1.5,1.5-3.3,2.3-5.5,2.3h-11.3C791.1,740.8,793.2,738.8,795.3,737z
			 M791.2,584.8c-1.1,1-1.9,2.3-2.3,3.6c-5.4,2.7-10.6,6.1-15.2,10c-0.3,0.2-0.5,0.4-0.8,0.6l0-9.1c-0.1-2-0.9-3.6-2.3-5
			c2.5-3,5.2-5.8,8.2-8.3c4.8-4,10.2-7.2,16.1-9.5h5.7c2.2,0,4.1,0.7,5.6,2.3c1.5,1.5,2.3,3.3,2.3,5.6c0,2.2-0.8,4.1-2.3,5.7
			c-1.5,1.6-3.4,2.3-5.6,2.3h-4.9C794,583,792.5,583.6,791.2,584.8z"/>
		<path class="st19" d="M1044.8,677.3c-3.9-6.6-9.2-12-15.8-15.9l-56.8-32.8c-3.5-2.1-6.3-4.8-8.3-8c-1.9-3.2-2.9-6.8-2.9-10.7
			c0-5.8,2.1-10.9,6.3-15.1c4.1-4.2,9.2-6.3,15.1-6.3h16.6c4.4,0,8.5,1.1,12.2,3.2c3.6,2.2,6.6,5.1,8.7,8.7
			c2.1,3.6,3.2,7.7,3.2,12.1c0,3.3,1.2,6.1,3.5,8.3c2.3,2.2,5.1,3.4,8.4,3.4c3.2,0,6-1.1,8.4-3.4c2.2-2.3,3.3-5.1,3.3-8.3v-1.3
			c-0.1-12.5-4.8-23.5-13.9-32.7c-9.3-8.9-20.3-13.5-32.9-13.7h-18.9c-11.6,0-22,4.5-31,13.4c-8.4,9.1-12.7,19.8-12.7,31.6
			c0,7.9,2.1,15.5,6.2,22.6c3.9,6.6,9.2,12,15.8,16l56.8,32.8c3.5,2.1,6.3,4.8,8.3,8c1.9,3.2,2.9,6.8,2.9,10.7
			c0,5.8-2.1,10.8-6.3,15c-4.2,4.2-9.2,6.3-15.1,6.3h-16.7c-4.4,0-8.4-1.1-12.1-3.2c-3.6-2.2-6.6-5.1-8.7-8.7
			c-2.1-3.6-3.2-7.7-3.2-12.1c0-3.2-1.2-6-3.5-8.3c-2.3-2.3-5.1-3.4-8.4-3.4c-3.2,0-6,1.2-8.4,3.5c-2.3,2.4-3.4,5.2-3.4,8.3l0,1.2
			c0.2,11.9,4.6,22.6,12.9,31.7c9.3,9.6,21,14.6,34.8,14.8h17.9c11.7,0,22.1-4.5,31-13.4c8.4-9.2,12.7-19.8,12.7-31.6
			C1050.9,691.9,1048.8,684.3,1044.8,677.3z M1027.5,586c0.8-1.4,1.7-2.8,2.6-4.2c3.7,3.7,6.6,8,8.7,12.8c2.3,5.2,3.5,10.8,3.6,16.7
			v1.3c0,2-0.7,3.8-2.3,5.4c-1.5,1.5-3.3,2.3-5.4,2.3c-2.2,0-4-0.7-5.5-2.2c-1.5-1.5-2.3-3.3-2.3-5.4c0-5.6-1.5-10.7-4.5-15.2
			C1023.8,593.4,1025.4,589.6,1027.5,586z M999.8,568.8c5.2,0.1,10.3,1,15,2.9c-1.2,1.7-2.2,3.5-3.2,5.3c-1.6,2.8-3,5.7-4.2,8.7
			c-2.7-0.9-5.6-1.4-8.6-1.4h0c-3-4.8-5.2-10-6.7-15.4L999.8,568.8z M945.7,699.6c0-0.3,0-2.2,0-2.2c0-2.1,0.7-3.9,2.3-5.5
			c1.5-1.5,3.3-2.3,5.4-2.3c1.9,0,3.5,0.6,4.9,1.7c-4,2.1-7.8,4.6-11.3,7.3C946.5,699,946.1,699.3,945.7,699.6z M968.3,727
			c-1.1,2.2-2.2,4.5-3.1,6.9c-6-3.9-10.6-8.9-14-14.7c2.1-2.2,4.4-4.2,6.7-6c1.9-1.4,3.8-2.7,5.8-4c2.1,4.3,5,8,8.8,10.8
			C971,722.2,969.6,724.5,968.3,727z M989.2,740.9c-2.4,0-4.7-0.2-7-0.5c0.7-1.7,1.4-3.3,2.2-4.9c1.9-3.5,4.1-6.8,6.7-10h13
			c0.1,1.9,0.2,3.7,0.5,5.6c0.4,3.3,0.9,6.6,1.7,9.8H989.2z M973.5,569.6c0.2,0.9,0.4,1.8,0.7,2.7c1.1,4.2,2.5,8.3,4.2,12.3
			c-5.4,0.8-10.1,3.1-13.8,6.9c-2.9-1.2-5.6-2.7-8.2-4.4c-1.9-1.2-3.7-2.6-5.5-4C956.7,576.1,964.3,571.6,973.5,569.6z M950,623.1
			c-2,0.5-4,0.8-6.1,1.1c-1.7-4.5-2.6-9.4-2.6-14.4c0-3.5,0.4-6.8,1.1-10c1.3,1,2.7,1.9,4,2.7c3.3,2.1,6.7,3.9,10.3,5.5
			c0,0.6,0,1.2,0,1.7c0,3.7,0.8,7.2,2.3,10.5C956.2,621.5,953.1,622.4,950,623.1z M982.9,644.4c-4.2,2.3-8.6,4-13.3,5.3l-8.4-4.7
			c-2.1-1.3-4.1-2.7-5.9-4.3c6.1-1.5,12-3.8,17.6-6.8l14.1,8.1C985.7,642.8,984.3,643.6,982.9,644.4z M1019.6,667
			c-3.7,2-7.6,3.6-11.6,4.9l-18.1-10.5c0.6-0.3,1.2-0.6,1.8-0.9c4.4-2.4,8.6-5.3,12.5-8.5l20.7,11.9
			C1023.2,664.9,1021.4,666,1019.6,667z M1025.9,684.2c0.8-0.4,1.6-0.8,2.5-1.3c3.7-2,7.3-4.4,10.7-7.1c4.7,6.4,7.3,13.9,7.7,22.1
			c-2.3-0.4-4.6-1-6.9-1.8c-3.4-1.1-6.7-2.5-9.8-4.2C1029.1,689.2,1027.7,686.6,1025.9,684.2z M1024.1,736.9
			c-0.7-2.6-1.1-5.1-1.4-7.7c-0.4-3.2-0.5-6.5-0.3-9.8c2.6-2.2,4.7-4.8,6.2-7.8c1.8,0.8,3.6,1.4,5.5,2c3.1,1.1,6.3,1.9,9.6,2.6
			C1039.6,725.5,1033,732.5,1024.1,736.9z"/>
		<path class="st19" d="M851,589.2c1.4-1.3,2.9-2,4.7-2h58.9c3.3,0,6.1-1.2,8.4-3.6c2.3-2.4,3.5-5.2,3.5-8.4c0-3.3-1.2-6.2-3.5-8.5
			c-2.3-2.3-5.1-3.5-8.5-3.5h-58.8c-5.4,0-10.4,1.3-15,3.9c-4.6,2.5-8.3,5.9-11.1,10.1c-2.8,4.2-4.3,8.8-4.4,13.9v120.1
			c0,3.3,0.1,33.9,26.9,34.1l0,0c1.2,0.1,2.4,0.2,3.6,0.2h58.8c3.3,0,6.1-1.2,8.4-3.6c2.3-2.4,3.5-5.2,3.5-8.4
			c0-3.3-1.2-6.2-3.5-8.5l-3.5-3.5h-63.9c-1.6,0-3-0.6-4.4-1.8c-1.3-1.2-2-2.8-2.1-5.1v-42.3h41.1c3.2,0,6.1-1.2,8.4-3.5
			c2.3-2.3,3.5-5.2,3.5-8.5c0-3.3-1.2-6.1-3.5-8.4c-2.3-2.3-5.1-3.4-8.4-3.4h-41.1v-54.6C849.2,592.1,849.8,590.5,851,589.2z
			 M911,734.5c1-3,2.2-5.9,3.6-8.8h0.1c2.2,0,3.9,0.7,5.5,2.3c1.5,1.5,2.3,3.3,2.3,5.5c0,2.2-0.7,4.1-2.3,5.6
			c-1.5,1.5-3.3,2.3-5.5,2.3h-5.4C909.7,739.1,910.3,736.8,911,734.5z M872.2,734.5c1-3,2.2-5.9,3.6-8.8h18.8
			c-0.4,1.1-0.7,2.2-1,3.2c-1.3,4.1-2.3,8.2-2.9,12.4h-20.2C870.9,739.1,871.5,736.8,872.2,734.5z M914.6,567.4
			c2.2,0.1,4.1,0.8,5.5,2.3c1.5,1.5,2.2,3.3,2.2,5.4c0,2.2-0.7,4.1-2.3,5.6c-1.4,1.4-3,2.2-5,2.3c-0.7-3.1-1.5-6.2-2.5-9.3
			c-0.7-2.1-1.5-4.3-2.4-6.3H914.6z M889.5,567.4c2.3,3.9,4.2,8,5.7,12.2c0.4,1.1,0.8,2.3,1.1,3.4h-18.9c-0.6-3.1-1.4-6.2-2.5-9.3
			c-0.7-2.1-1.6-4.2-2.5-6.3H889.5z M850.8,724.5c1.6,0.8,3.2,1.2,4.9,1.2c-0.4,1.1-0.8,2.2-1.1,3.2c-1.2,3.9-2.1,8-2.7,12.1
			c-10.2-1.4-14.9-6.1-17.1-9.4l-1.8-3.2c3.4-2.2,7-4.1,10.8-5.7c1.2-0.4,2.4-0.8,3.5-1.2C848.3,722.9,849.5,723.8,850.8,724.5z
			 M829.5,709.3V692c3.5-1.9,7.7-3.4,12.5-4.3c1-0.2,2.1-0.3,3.1-0.5v15.9c-2.7,0.8-5.4,1.7-8.1,2.7
			C834.5,706.9,831.9,708,829.5,709.3z M890.3,652.8c2.2,0,4,0.7,5.6,2.3c1.5,1.5,2.3,3.3,2.3,5.5c0,2.2-0.8,4.1-2.3,5.6
			c-1.5,1.5-3.4,2.3-5.5,2.3h-7.6c0.2-4,0.1-8.1-0.3-12.2c-0.1-1.1-0.3-2.3-0.5-3.5H890.3z M862.1,652.8c0.4,1.8,0.7,3.7,0.9,5.5
			c0.4,3.3,0.4,6.7,0.2,10.1h-18v0.4c-2,0.1-4.2,0.4-6.3,0.8c-3.3,0.6-6.4,1.5-9.3,2.5v-11.7c4.4-3.3,9.2-6.1,14.4-8.1
			c0.4-0.2,0.8-0.3,1.2-0.5v1.1H862.1z M829.5,638.6v-19c4.4-3.3,9.2-6.1,14.3-8.1c0.4-0.2,0.9-0.3,1.3-0.5v21.4
			c-2.7,0.8-5.4,1.7-8.1,2.7C834.5,636.1,831.9,637.3,829.5,638.6z M848.1,586.3c-1.5,1.5-2.4,3.3-2.8,5.3c-2.8,0.8-5.5,1.7-8.2,2.7
			c-2.6,1-5.2,2.2-7.7,3.5v-6.8c0.2-5.9,2.5-11.1,6.9-15.5c4.2-4.2,9.5-6.9,15.7-7.9c2.3,3.8,4.1,7.8,5.5,11.9
			c0.4,1.1,0.7,2.3,1,3.4h-2.7C852.9,583.1,850.3,584.2,848.1,586.3z"/>
	</g>
	<path class="st20" d="M332.4,817.8c0,2.6-0.7,5.2-1.9,7.5c-2.1,3.8-3.2,8.1-3.3,12.4c0,2.6-0.8,5.2-2.1,7.5
		c-1.3,2.3-3.2,4.2-5.4,5.6c-3.7,2.3-6.8,5.4-9.1,9.1c-1.4,2.2-3.3,4.1-5.6,5.4c-2.3,1.3-4.8,2.1-7.5,2.1c-4.4,0.1-8.6,1.3-12.4,3.3
		c-2.3,1.2-4.9,1.9-7.5,1.9c-2.6,0-5.2-0.7-7.5-1.9c-3.8-2.1-8.1-3.2-12.4-3.3c-2.6-0.1-5.2-0.8-7.5-2.1c-2.3-1.3-4.2-3.2-5.6-5.4
		c-2.3-3.7-5.4-6.8-9.1-9.1c-2.2-1.4-4.1-3.3-5.4-5.6c-1.3-2.3-2.1-4.8-2.1-7.5c-0.1-4.3-1.3-8.6-3.3-12.4c-1.2-2.3-1.9-4.9-1.9-7.5
		c0-2.6,0.7-5.2,1.9-7.5c2.1-3.8,3.2-8.1,3.3-12.4c0.1-2.6,0.8-5.2,2.1-7.5c1.3-2.3,3.2-4.2,5.4-5.6c3.7-2.3,6.8-5.4,9.1-9.1
		c1.4-2.2,3.3-4.1,5.6-5.4c2.3-1.3,4.8-2.1,7.5-2.1c4.4-0.1,8.6-1.3,12.4-3.3c2.3-1.2,4.9-1.9,7.5-1.9c2.6,0,5.2,0.7,7.5,1.9
		c3.8,2.1,8.1,3.2,12.4,3.3c2.6,0,5.2,0.8,7.5,2.1c2.3,1.3,4.2,3.2,5.6,5.4c2.3,3.7,5.4,6.8,9.1,9.1c2.2,1.4,4.1,3.3,5.4,5.6
		c1.3,2.3,2.1,4.8,2.1,7.5c0.1,4.4,1.3,8.6,3.3,12.4C331.7,812.6,332.4,815.2,332.4,817.8z"/>
	<g>
		
			<ellipse transform="matrix(0.3827 -0.9239 0.9239 0.3827 -580.451 728.5256)" class="st21" cx="254.9" cy="798.6" rx="5.7" ry="5.7"/>
		<path class="st21" d="M242.6,809.5c-2.3,0-4.2,1.9-4.2,4.2s1.9,4.2,4.2,4.2c2.3,0,4.2-1.9,4.2-4.2S245,809.5,242.6,809.5z"/>
		<path class="st21" d="M281.6,814.6c-3.3,0-6,2.7-6,6c0,3.3,2.7,6,6,6c3.3,0,6-2.7,6-6C287.6,817.2,284.9,814.6,281.6,814.6z"/>
		
			<ellipse transform="matrix(0.7071 -0.7071 0.7071 0.7071 -483.8571 459.2399)" class="st21" cx="312.4" cy="813.7" rx="3.6" ry="3.6"/>
		<path class="st21" d="M276.8,835.8c-2.4,0-4.3,1.9-4.3,4.3s1.9,4.3,4.3,4.3c2.4,0,4.3-1.9,4.3-4.3S279.2,835.8,276.8,835.8z"/>
		<path class="st21" d="M271.2,799.4c0,3.1,2.5,5.6,5.6,5.6c3.1,0,5.6-2.5,5.6-5.6c0-3.1-2.5-5.6-5.6-5.6
			C273.7,793.8,271.2,796.3,271.2,799.4z"/>
		<path class="st21" d="M275.7,779.7c0-1.7-1.4-3.1-3.1-3.1s-3.1,1.4-3.1,3.1c0,1.7,1.4,3.1,3.1,3.1S275.7,781.4,275.7,779.7z"/>
		<path class="st21" d="M237.6,798.4c1.3,0,2.4-1.1,2.4-2.4s-1.1-2.4-2.4-2.4c-1.3,0-2.4,1.1-2.4,2.4S236.3,798.4,237.6,798.4z"/>
		<path class="st21" d="M275.7,854.6c-1.4,0-2.6,1.2-2.6,2.6c0,1.4,1.2,2.6,2.6,2.6c1.4,0,2.6-1.2,2.6-2.6
			C278.3,855.8,277.1,854.6,275.7,854.6z"/>
		<path class="st21" d="M261,837.3c0-2.4-2-4.4-4.4-4.4c-2.4,0-4.4,2-4.4,4.4c0,2.4,2,4.4,4.4,4.4C259,841.7,261,839.8,261,837.3z"
			/>
		<path class="st21" d="M259.6,848.9c-1.6,0-2.9,1.3-2.9,2.9c0,1.6,1.3,2.9,2.9,2.9c1.6,0,2.9-1.3,2.9-2.9
			C262.5,850.2,261.2,848.9,259.6,848.9z"/>
		<path class="st21" d="M291.3,850.3c-1.5,0-2.7,1.2-2.7,2.7c0,1.5,1.2,2.7,2.7,2.7c1.5,0,2.7-1.2,2.7-2.7
			C294,851.5,292.8,850.3,291.3,850.3z"/>
		<circle class="st21" cx="238.3" cy="837.5" r="2.8"/>
		<path class="st21" d="M261,817c-1.7,0-3.2,1.4-3.2,3.2c0,1.7,1.4,3.2,3.2,3.2c1.7,0,3.2-1.4,3.2-3.2
			C264.1,818.4,262.7,817,261,817z"/>
		<path class="st21" d="M294.4,803.6c-1.9,0-3.4,1.5-3.4,3.4c0,1.9,1.5,3.4,3.4,3.4c1.9,0,3.4-1.5,3.4-3.4
			C297.8,805.1,296.3,803.6,294.4,803.6z"/>
		<path class="st21" d="M301.2,821.7c-1.9,0-3.4,1.5-3.4,3.4c0,1.9,1.5,3.4,3.4,3.4s3.4-1.5,3.4-3.4
			C304.6,823.2,303.1,821.7,301.2,821.7z"/>
		<path class="st21" d="M308.1,790.8c-2.4,0-4.3,1.9-4.3,4.3c0,2.4,1.9,4.3,4.3,4.3s4.3-1.9,4.3-4.3
			C312.4,792.7,310.5,790.8,308.1,790.8z"/>
		<path class="st21" d="M305.8,835.9c-2.1,0-3.9,1.7-3.9,3.9c0,2.1,1.7,3.9,3.9,3.9c2.1,0,3.9-1.7,3.9-3.9
			C309.7,837.6,307.9,835.9,305.8,835.9z"/>
		<path class="st21" d="M295.3,783.7c-1.5,0-2.8,1.2-2.8,2.8c0,1.5,1.2,2.8,2.8,2.8c1.5,0,2.8-1.2,2.8-2.8
			C298,784.9,296.8,783.7,295.3,783.7z"/>
	</g>
	<path class="st20" d="M774.2,817.4c0,2.6-0.7,5.2-1.9,7.5c-2.1,3.8-3.2,8.1-3.3,12.4c0,2.6-0.8,5.2-2.1,7.5
		c-1.3,2.3-3.2,4.2-5.4,5.6c-3.7,2.3-6.8,5.4-9.1,9.1c-1.4,2.2-3.3,4.1-5.6,5.4c-2.3,1.3-4.8,2.1-7.5,2.1c-4.4,0.1-8.6,1.3-12.4,3.3
		c-2.3,1.2-4.9,1.9-7.5,1.9s-5.2-0.7-7.5-1.9c-3.8-2.1-8.1-3.2-12.4-3.3c-2.6-0.1-5.2-0.8-7.5-2.1c-2.3-1.3-4.2-3.2-5.6-5.4
		c-2.3-3.7-5.4-6.8-9.1-9.1c-2.2-1.4-4.1-3.3-5.4-5.6c-1.3-2.3-2.1-4.8-2.1-7.5c-0.1-4.3-1.3-8.6-3.3-12.4c-1.2-2.3-1.9-4.9-1.9-7.5
		c0-2.6,0.7-5.2,1.9-7.5c2.1-3.8,3.2-8.1,3.3-12.4c0.1-2.6,0.8-5.2,2.1-7.5c1.3-2.3,3.2-4.2,5.4-5.6c3.7-2.3,6.8-5.4,9.1-9.1
		c1.4-2.2,3.3-4.1,5.6-5.4c2.3-1.3,4.8-2.1,7.5-2.1c4.4-0.1,8.6-1.3,12.4-3.3c2.3-1.2,4.9-1.9,7.5-1.9s5.2,0.7,7.5,1.9
		c3.8,2.1,8.1,3.2,12.4,3.3c2.6,0,5.2,0.8,7.5,2.1c2.3,1.3,4.2,3.2,5.6,5.4c2.3,3.7,5.4,6.8,9.1,9.1c2.2,1.4,4.1,3.3,5.4,5.6
		c1.3,2.3,2.1,4.8,2.1,7.5c0.1,4.4,1.3,8.6,3.3,12.4C773.6,812.2,774.2,814.8,774.2,817.4z"/>
	<g>
		
			<ellipse transform="matrix(0.3827 -0.9239 0.9239 0.3827 -304.8884 1140.1389)" class="st21" cx="700.7" cy="798.2" rx="5.7" ry="5.7"/>
		<path class="st21" d="M688.4,809.1c-2.3,0-4.2,1.9-4.2,4.2c0,2.3,1.9,4.2,4.2,4.2c2.3,0,4.2-1.9,4.2-4.2
			C692.6,811,690.8,809.1,688.4,809.1z"/>
		<path class="st21" d="M727.4,814.2c-3.3,0-6,2.7-6,6c0,3.3,2.7,6,6,6c3.3,0,6-2.7,6-6C733.4,816.8,730.7,814.2,727.4,814.2z"/>
		
			<ellipse transform="matrix(0.7071 -0.7071 0.7071 0.7071 -353.4174 772.0164)" class="st21" cx="755.2" cy="812.6" rx="3.6" ry="3.6"/>
		<path class="st21" d="M722.6,835.4c-2.4,0-4.3,1.9-4.3,4.3c0,2.4,1.9,4.3,4.3,4.3c2.4,0,4.3-1.9,4.3-4.3
			C727,837.3,725,835.4,722.6,835.4z"/>
		<path class="st21" d="M717,799c0,3.1,2.5,5.6,5.6,5.6c3.1,0,5.6-2.5,5.6-5.6c0-3.1-2.5-5.6-5.6-5.6C719.5,793.4,717,795.9,717,799
			z"/>
		<path class="st21" d="M721.5,779.3c0-1.7-1.4-3.1-3.1-3.1s-3.1,1.4-3.1,3.1c0,1.7,1.4,3.1,3.1,3.1S721.5,781,721.5,779.3z"/>
		<path class="st21" d="M683.4,798c1.3,0,2.4-1.1,2.4-2.4c0-1.3-1.1-2.4-2.4-2.4c-1.3,0-2.4,1.1-2.4,2.4
			C681,796.9,682.1,798,683.4,798z"/>
		<path class="st21" d="M719.1,853.1c-1.4,0-2.6,1.2-2.6,2.6c0,1.4,1.2,2.6,2.6,2.6c1.4,0,2.6-1.2,2.6-2.6
			C721.7,854.3,720.5,853.1,719.1,853.1z"/>
		<path class="st21" d="M706.7,837c0-2.4-2-4.4-4.4-4.4s-4.4,2-4.4,4.4s2,4.4,4.4,4.4S706.7,839.4,706.7,837z"/>
		<path class="st21" d="M705.4,848.5c-1.6,0-2.9,1.3-2.9,2.9c0,1.6,1.3,2.9,2.9,2.9c1.6,0,2.9-1.3,2.9-2.9
			C708.3,849.8,707,848.5,705.4,848.5z"/>
		<path class="st21" d="M737.1,849.9c-1.5,0-2.7,1.2-2.7,2.7c0,1.5,1.2,2.7,2.7,2.7c1.5,0,2.7-1.2,2.7-2.7
			C739.8,851.1,738.6,849.9,737.1,849.9z"/>
		<circle class="st21" cx="684.1" cy="837.1" r="2.8"/>
		<path class="st21" d="M706.4,816.6c-1.3,0-2.4,1.1-2.4,2.4s1.1,2.4,2.4,2.4c1.3,0,2.4-1.1,2.4-2.4S707.8,816.6,706.4,816.6z"/>
		<path class="st21" d="M740.2,803.2c-1.9,0-3.4,1.5-3.4,3.4c0,1.9,1.5,3.4,3.4,3.4s3.4-1.5,3.4-3.4
			C743.6,804.7,742.1,803.2,740.2,803.2z"/>
		<path class="st21" d="M749.1,831.6c-2.1,0-3.9,1.7-3.9,3.9c0,2.1,1.7,3.9,3.9,3.9s3.9-1.7,3.9-3.9
			C753,833.3,751.3,831.6,749.1,831.6z"/>
		<path class="st21" d="M741.1,783.3c-1.5,0-2.8,1.2-2.8,2.8c0,1.5,1.2,2.8,2.8,2.8c1.5,0,2.8-1.2,2.8-2.8
			C743.8,784.5,742.6,783.3,741.1,783.3z"/>
	</g>
	<g>
		<path class="st0" d="M419.4,767.4c-4.6,12.6,5.3,20,12.1,17c-0.3,2.8-4.4,4-5.3,5c-3.4,3.2,0.9,11.6,7.6,7.9
			c12.6-7.5,13.7-21.6,11.6-29.4C441.3,756.1,424.1,755.5,419.4,767.4z"/>
		<path class="st0" d="M518.8,763.8c-11.8-1.4-39.2-1.4-56.7,2.7c-11.5,2.7-9.8,21.8,1.4,20.1c3.4-0.3,8.1-0.7,10-0.7
			c-2.2,39.1,3.2,67.3,4.6,77c1.9,13.7,24.2,12.5,24.5-2.5c0.3-9,0.8-57.5,1.7-76.6c0,0,11.5-0.7,13.5-0.8
			C528.4,782.6,529.9,765.5,518.8,763.8z"/>
		<path class="st0" d="M646,840c-2.5,7.1-7.1,14.4-15.9,13.4c-8.1-1.2-16.6-14.5-16.4-34c1-31.3,11-34.7,18.4-35.7
			c6.8-0.7,11.5,7.1,13.4,11c3.4,8.5,19.5,5.6,17.3-6.6c-0.8-4.7-4.9-24.5-30.6-25.2c-18.1-0.5-49.2,11.8-49.6,56.2
			c-0.3,41.4,24.7,54.3,44.8,54.5c24.7-1,36.9-15.6,37.7-26.9C666.1,833.5,648.7,832,646,840z"/>
		<path class="st0" d="M921.2,768.7c0,4.1,0.3,34.7,0.8,56c-7.1-13.4-28.9-49.7-31.3-54.8c-4.4-9.3-28.6-9-28.4,3.6
			c0,2.4,0.5,92.7,1.7,95.1c0.7,6.6,18.3,7.1,18.6-1.9c0-0.8-1.5-34.8-2.4-56.8c12.5,20.1,34.7,53.3,37.7,60.2
			c3,4.9,21.7,1.7,21.8-6.4c0-3,1-91,1-93.4C941.1,759.1,921,760.1,921.2,768.7z"/>
		<path class="st0" d="M1012.8,763.8c-11.8-1.4-39.2-1.4-56.7,2.7c-11.5,2.7-9.8,21.8,1.4,20.1c3.4-0.3,8.1-0.7,10-0.7
			c-2.2,39.1,3.2,67.3,4.6,77c1.9,13.7,24.2,12.5,24.5-2.5c0.3-9,0.8-57.5,1.7-76.6c0,0,11.5-0.7,13.5-0.8
			C1022.5,782.6,1024,765.5,1012.8,763.8z"/>
		<path class="st0" d="M221.2,804.1c-2-11.7-8.2-23-20.3-32.2c-11.5-8.8-35.2-11.2-61.6-6.8c-9,1.5-9.6,17.4,0.5,17.1
			c0.2,0-0.2,1.4-0.2,1.4c0,3-8.5,56.7,5.2,82.4c10.1,14.5,43.5,1.7,53.1-5.8c9.9-7.2,18-19,21.8-32.2c0,0,0-0.1,0-0.1
			c-1.7-3.1-2.6-6.6-2.6-10.1s0.9-7,2.6-10.1C220.3,806.5,220.8,805.3,221.2,804.1z M168.4,852.8c-1.7-4.6-0.2-60.7,1-71.6
			c2.2-1,28.8,5.1,29.8,31.3C199.7,824.2,195.9,843.5,168.4,852.8z"/>
		<path class="st0" d="M390.6,768.7c0,4.1,0.3,34.7,0.8,56c-7.1-13.4-28.9-49.7-31.3-54.8c-4.4-9.3-28.6-9-28.4,3.6
			c0,0.7,0,8.1,0.1,18.6c0.5,1.8,0.9,3.7,0.9,5.6c0.1,3.4,1,6.8,2.7,9.9c1.7,3.2,2.6,6.7,2.6,10.2c0,3.5-0.9,7-2.6,10.1
			c-1.7,3.1-2.6,6.5-2.7,9.9c0,1-0.2,2.1-0.3,3.1c0.3,14.9,0.6,26.7,1,27.5c0.7,6.6,18.3,7.1,18.6-1.9c0-0.8-1.5-34.8-2.4-56.8
			c12.5,20.1,34.7,53.3,37.7,60.2c3,4.9,21.7,1.7,21.8-6.4c0-3,1-91,1-93.4C410.5,759.1,390.4,760.1,390.6,768.7z"/>
		<path class="st0" d="M828.6,773.8c0,3,1.4,31.5,1.4,43c0,9.5-0.2,34.2-15.7,34.5c-22.5,0.5-9.5-76.6-9.5-79
			c1.9-13.7-28.2-11.7-28.8-2.2c-0.5,4.5-1.4,12.7-2.1,22.8c0.3,1.5,0.6,3,0.6,4.5c0.1,3.4,1,6.8,2.7,9.9c1.7,3.2,2.6,6.7,2.6,10.2
			c0,3.5-0.9,7-2.6,10.1c-1.7,3.1-2.6,6.5-2.7,9.9c0,0.6-0.1,1.2-0.2,1.8c5,27.4,23.1,33.5,39.5,33.5c34.3,0,35.7-37.6,36.9-48.2
			c1.2-11.7-0.5-47.2-1.7-52.6C847.4,760.8,828,762.5,828.6,773.8z"/>
	</g>
</g>
</svg>
