<?xml version="1.0" encoding="utf-8"?>
<!-- Generator: Adobe Illustrator 23.0.3, SVG Export Plug-In . SVG Version: 6.00 Build 0)  -->
<svg version="1.1" id="Layer_1" xmlns="http://www.w3.org/2000/svg" xmlns:xlink="http://www.w3.org/1999/xlink" x="0px" y="0px"
	 viewBox="0 0 1133.9 1133.9" style="enable-background:new 0 0 1133.9 1133.9;" xml:space="preserve">
<style type="text/css">
	.st0{fill:#1E2121;}
	.st1{fill:#A81F26;}
	.st2{fill:#F2F1F2;}
	.st3{fill:#DD353A;}
	.st4{fill:#CFCFCE;}
	.st5{fill:#1D2121;}
	.st6{fill:none;}
	.st7{fill:#AA1F23;}
	.st8{fill:#FDFEFE;}
	.st9{fill:#EE742C;}
	.st10{fill:#BA5234;}
	.st11{fill:#ED1C24;}
	.st12{fill:#C42C3A;}
	.st13{fill:#058743;}
	.st14{fill:#0F4D70;}
	.st15{fill-rule:evenodd;clip-rule:evenodd;fill:#C42C3A;}
	.st16{fill-rule:evenodd;clip-rule:evenodd;fill:#1E2121;}
	.st17{fill:#E8E8E8;}
	.st18{fill:#186634;}
	.st19{fill:#BF2730;}
	.st20{fill:#B47A48;}
	.st21{fill:#3E1E14;}
	.st22{fill:#DBAD5D;}
	.st23{fill:#B84947;}
	.st24{fill:#C3976E;}
	.st25{fill:#9D2023;}
	.st26{fill:#3C2517;}
	.st27{fill:#4A3A31;}
	.st28{fill:#EDAD4F;}
	.st29{fill:#F8C018;}
</style>
<g>
	<g>
		<path class="st0" d="M538.1,122.4c-18.2-13.9-55.7-17.7-97.5-10.7c-14.2,2.4-15.3,27.6,0.8,27.1c0.3,0-0.3,2.1-0.3,2.1
			c0,4.8-13.4,89.7,8.3,130.5c16.1,23,68.8,2.7,84.1-9.1C571.6,234.6,593.3,163.9,538.1,122.4z M486.6,250.4
			c-2.7-7.2-0.3-96.2,1.6-113.3c3.5-1.6,45.5,8,47.1,49.6C536.2,205.2,530.3,235.7,486.6,250.4z"/>
		<path class="st0" d="M674.2,110.9c-4.8-1.6-48.8-5.9-64.3-2.4c-8.6,1.1-16.1,6.2-18.2,22.2c-0.5,6.7-17.1,125.1,13.1,146.8
			c15.8,11.5,54.4-1.1,64.8-7.5c14.7-9.4,4.6-34-9.6-26.5c-3.5,1.1-8.6,4-13.9,6.4c-2.1,1.1-11.3,5.9-12.1-0.8
			c-0.5-4.3-0.3-12.1-0.5-16.3c1.9,0,20.1-5.4,30-7.5c12.1-4.3,8-26-4.8-24.9c-5.9,0.5-22.2,3.8-26.3,4c-0.3-7.8,1.9-54.4,4-69.4
			c5.9-0.3,29.2-0.3,34-0.3C683.5,135,684.6,112.5,674.2,110.9z"/>
		<path class="st0" d="M941.5,257.1c-5.4-4.3-19.3-8.8-24.6-22.2c32.4-20.9,41-44.2,39.4-68.3c-4.8-76.9-117.9-56-124.3-53.3
			c-7,3.8-7.8,26.5,2.9,25.7v1.9c-2.4,86.8,2.9,113.9,7.8,131c3.8,17.4,37,13.9,37,0c0.8-9.6,1.1-22.2,1.3-27.9
			c1.9,3.5,20.6,26.5,48.8,35.4C942.6,284.2,953.8,264.6,941.5,257.1z M881.2,206.8c0,0,0.3-53.6,1.1-66.4
			c22.2,0.5,37.2,10.7,37.2,31.1C919.5,193.9,901.9,204.1,881.2,206.8z"/>
		<path class="st0" d="M818.8,214.3c-2.9-1.6-9.6-1.6-12.6-1.6c0-1.9-2.4-61.6-25.4-91.1c-16.3-21.2-45.8-17.1-58.7,1.6
			c-2.7,4.6-23.6,28.1-26,97.8c-12.1,1.1-12.6,24.6-0.3,24.9c0,5.6-0.8,19.6,0,26.3c0.8,12.9,26.5,10.4,26.3-2.1
			c0-1.6,2.1-20.1,2.1-27.6c5.5-0.4,11.7-0.6,18.2-1c2.5-2.9,5.5-3.3,7-3.3c2.2,0,4.4,0.8,6.4,2.3c1.4-0.1,2.8-0.3,4.2-0.5
			c0,0.8,0.1,2.5,0.2,4.8c4.4,4.7,8.3,9.8,12.1,14.8c5.2,5.8,7.1,12.6,5.6,20.7c13.9,3.2,31.7-1.8,31.4-16.1
			c0-2.9-1.1-23.6-1.1-26.5c1.6,0,9.1-2.4,12.3-4.6C827.7,228.7,826.3,218,818.8,214.3z M726.4,217.2c2.1-45.5,11-72.1,16.9-71.8
			c5.9,0.5,10.7,32.1,13.7,69.9C747.8,215.9,736.9,215.9,726.4,217.2z"/>
	</g>
	<g>
		<path class="st12" d="M402.3,326.8c1.4,3,4,5.2,7.5,6.2l0.2,0c0.9,0.2,1.7,0.3,2.6,0.3c2.2,0,4.2-0.7,6.1-2c2.4-1.7,4-4,5-7
			l0.1-0.2c6.9-23.9,9.6-44.5,8.2-61.3c-1.4-17-5.8-31.3-12.8-42.5l-0.1-0.1l-0.1-0.1c-4.9-6.9-10.7-12.6-17.1-16.9
			c-6.4-4.3-13.5-7.5-21-9.5c-7.4-1.9-15.2-2.9-23-2.9c-7.8,0-15.5,0.7-22.9,2.2c-10,1.9-20.1,5.1-30,9.3
			c-9.9,4.3-19.4,9.8-28.4,16.5c-8.9,6.7-17.3,14.3-25,22.9c-7.7,8.6-14.5,18.1-19.9,28.4c-8.2,15.3-12,30.3-11.1,44.8
			c0.8,14.2,4.6,28.2,11,41.7c6.4,13.3,15,26.4,25.5,39c10.3,12.4,21.1,24.9,32.2,37.2c11,12.2,21.7,24.5,31.8,36.5
			c10,11.8,18.1,23.8,24.2,35.8c7,13.6,10.1,27.7,9,41.9c-1.1,14.2-5.3,27.2-12.4,38.5c-7.1,11.3-16.8,20.4-28.7,27
			c-9.2,5.1-19.4,7.7-30.3,7.7c-2.9,0-5.9-0.2-9-0.6c-7.4-0.8-14.2-3.3-20.1-7.3c-6.1-4.1-11.4-9.2-15.7-15.2
			c-4.4-6-7.9-12.8-10.4-20.2c-2.6-7.5-4.3-14.9-5-22.3c-0.8-7.3-0.6-14.3,0.5-21c1.1-6.4,3.2-12,6.3-16.6l0.1-0.1l0.1-0.1
			c3.4-5.9,2-11.7-4-16l-0.2-0.1l-0.2-0.1c-2.2-1.3-4.3-1.9-6.5-1.9c-2.4,0-6,0.9-9.4,5l-0.1,0.2l-0.1,0.2
			c-7.4,11.6-11.1,24.8-11.1,39.4c0,14.3,2.9,28.6,8.7,42.6c5.7,13.9,14.1,26.7,24.7,38.2c10.7,11.5,23.2,20.4,37.2,26.5l0.1,0
			c12.7,5.2,25.1,7.8,36.9,7.8c2.5,0,5-0.1,7.5-0.4c13.9-1.3,26.7-5.5,38-12.5c11.3-6.9,21-16.3,28.8-27.9
			c7.8-11.5,13.4-24.5,16.5-38.6c3.1-14,3.7-28.9,1.6-44.3c-2-15.5-7.4-30.9-16-46c-6.6-11.5-14.5-23-23.4-34
			c-8.8-10.9-18-21.7-27.3-32.1c-9.1-10.1-18.2-20.4-27-30.5c-8.6-9.8-16.1-19.7-22.3-29.3c-6.2-9.5-10.9-19.2-14-28.7
			c-3-9.2-3.7-18.5-2-27.7c1.7-9.3,6.4-18.9,13.8-28.5c7.6-9.8,19.1-20.1,34.3-30.5c8.8-6.1,18-11.1,27.4-14.9
			c9.3-3.8,18.2-6,26.5-6.7c1.6-0.1,3.1-0.2,4.6-0.2c6.2,0,12,1.1,17.2,3.2c6.2,2.5,10.9,7.1,14.4,13.9c3.6,7,5.5,16.7,5.5,28.8
			c0,12.3-2.6,27.8-7.8,46.1C400.8,320.8,401,323.9,402.3,326.8z"/>
		<path class="st12" d="M948.9,507.4c-4.9,14.3-9.8,28.9-15,43.2c-1.7,4.2-4.9,8-7.7,11.5c-2.4,2.8-5.6,2.1-7-1
			c-1-3.1-2.4-6.3-2.4-9.8c-0.7-9.4-1-18.5-0.7-27.9c1-20.2,2.4-40.1,3.5-60.3c0.3-5.9,1-11.5,1-17.4c0.3-9.1-4.9-15.3-13.6-17.8
			c-1.7-0.3-3.8-0.3-5.9-0.7c-3.8-0.7-6.3,1-8,3.8c-0.7,1.4-1.4,2.8-2.1,4.2c-1.7,4.5-3.5,9.4-4.9,13.9c-3.1-3.1-5.9-7.3-9.8-10.5
			c-9.8-8-21.6-8.4-33.1-7c-15.3,1.7-26.8,10.1-35.2,22.7c-10.7,15.7-16.1,32.8-17,51.1c-0.2,0.5-0.3,1-0.5,1.4
			c-5.2,14.6-10.8,29.3-19.5,42.2c-3.5,4.9-7.3,9.4-12.2,12.9c-6.3,4.9-12.6,2.8-15.7-4.5c-1-2.8-1.7-5.9-2.1-9.1
			c-0.3-31,0.7-62.4,3.8-93.8c1.7-18.5,3.5-37.3,5.9-55.8c1.7-14.3,4.5-28.6,6.6-42.9c0.7-5.2,1.7-10.5,2.4-15.3
			c8,0.7,15.3,1.7,23,2.4c28.9,2.8,57.9,3.5,86.8,0.7c2.7-0.2,5.4-0.5,8.1-0.8c0.1,0,0.2,0,0.3,0c0.2,0,0.4-0.1,0.7-0.1
			c0.2,0,0.4,0,0.7-0.1c0,0,0,0,0,0c2.9-0.3,6.8-0.6,11.4-1.2c42.9-6,65.6-32.3,72.1-42.1c2.4-3.2,3-6.7,2.3-10.3
			c-0.3-3.2-1.8-6.1-4.8-7.1c-3.5-0.9-5.4,1.6-7.1,3.8c-2.4,3-4.1,6.2-6.3,9.5c-9.4,14-31.3,24.8-58.6,29.2c-4.3,0.6-8.6,1.1-13,1.5
			c-7.6,0.7-15.2,1-22.9,1c-19.9,0-40.1-1.7-60-2.8c-9.8-0.7-19.5-1.7-28.9-2.8c0-0.7-0.3-1.4,0-1.7c2.4-12.9,4.5-26.1,7.7-38.7
			c1.7-7,0.7-12.6-3.8-17.4c-4.5-5.9-9.1-11.9-14.3-17.1c-3.5-3.5-6.3-2.4-7.7,2.1c-3.1,8.7-6.3,17.8-8.7,26.5
			c-3.8,13.9-7.3,27.9-10.8,42.2h-2.8c-26.9-2.4-54-4.9-80.9-6.6c-19.9-1-39.7,0.3-59.3,5.6c-22.7,5.9-40.8,18.1-52.6,39.4
			c-5.2,9.8-8.7,20.6-11.2,31.4c-0.7,4.2,0.7,6.6,4.9,7c5.9,0.3,10.1-3.5,10.8-9.8c0.7-3.5,1-7,2.4-10.1c7.7-16,20.2-27.5,35.9-34.9
			c24.1-11.5,49.2-12.2,74.6-9.8c17.8,2.1,35.6,4.2,53.3,6.3c6.6,0.7,13.6,1,20.6,1.7c-0.3,1.4-0.3,2.4-0.3,3.1
			c-4.5,29.6-9.4,59.3-13.9,88.6c-4.9,32.1-6.6,64.1-4.5,96.2c0.7,11.5,2.1,22.7,6.6,33.5c8,19.9,30.7,27.5,49.2,17.1
			c9.4-5.2,16.4-13.2,22-22.3c4.8-7.5,8.9-15.3,12.3-23.4c5.3,19.4,21.1,35.1,41,39.5c17.4,3.8,23.7,0,31-13.2
			c4.2-7.3,7-15.3,10.1-23.4c2.1-6.3,3.8-12.9,5.6-19.9c0.3,1.7,0.3,2.8,0.7,3.8c2.1,9.1,3.8,18.1,6.3,26.8
			c4.5,13.9,13.9,23,28.2,26.5c8.4,2.1,15,0,20.6-6.3c5.9-6.6,10.5-14.6,13.2-23.4c4.2-11.5,7.3-23.7,10.5-35.6
			c2.1-6.6,3.5-13.6,5.2-20.9c-2.8-0.7-5.6-1.4-8.4-2.4C954.5,490.6,952.1,499,948.9,507.4z M878.1,462.7
			c-4.5,24.4-9.8,48.8-19.5,71.8c-3.1,7.3-7,14.3-12.9,20.2c-3.5,3.5-4.2,3.5-7-0.7c-4.2-6.6-6.3-13.6-7.7-21.3
			c-1-5.9-1.7-12.2-2.4-18.5c0.7-22.7,8-42.5,22-60.3c3.8-4.5,8.4-8,14.3-8.7c4.2-0.7,7.7,0.7,9.8,4.2
			C877.4,453.3,878.8,457.9,878.1,462.7z"/>
		<path class="st12" d="M678.7,415.3c-13.9-8-26.5-6.6-38.4,4.2c-4.9,4.2-8.7,9.1-11.2,15c-5.6,11.2-10.8,23-16,34.5
			c-2.8,5.6-5.2,11.2-7.7,16.7c0,0,0,0-0.3,0c0-1.7-0.3-3.5-0.7-5.2c-0.7-6.3-1.4-12.6-2.8-18.8c-1.7-8-6.6-13.6-14.6-15.7
			c-2.8-0.7-5.6-1-8.4-1c-7.3,0-11.2,3.5-12.6,10.5c-0.3,1-0.3,2.1-0.7,3.1c-0.3,8.4-1,16.4-1.7,24.8c-0.4,4.5-0.6,8.9-0.8,13.4
			c-1.2,3.6-2.4,7.1-3.7,10.6c-4.9,14.3-9.8,28.9-15,43.2c-1.7,4.2-4.9,8-7.7,11.5c-2.4,2.8-5.6,2.1-7-1c-1-3.1-2.4-6.3-2.4-9.8
			c-0.7-9.4-1-18.5-0.7-27.9c1-20.2,2.4-40.1,3.5-60.3c0.3-5.9,1-11.5,1-17.4c0.3-9.1-4.9-15.3-13.6-17.8c-1.7-0.3-3.8-0.3-5.9-0.7
			c-3.8-0.7-6.3,1-8,3.8c-0.7,1.4-1.4,2.8-2.1,4.2c-1.7,4.5-3.5,9.4-4.9,13.9c-3.1-3.1-5.9-7.3-9.8-10.5c-9.8-8-21.6-8.4-33.1-7
			c-15.3,1.7-26.8,10.1-35.2,22.7c-13.2,19.5-18.5,41.1-16.7,64.5c1.4,24.4,19.2,45.7,42.9,50.9c17.4,3.8,23.7,0,31-13.2
			c4.2-7.3,7-15.3,10.1-23.4c2.1-6.3,3.8-12.9,5.6-19.9c0.3,1.7,0.3,2.8,0.7,3.8c2.1,9.1,3.8,18.1,6.3,26.8
			c4.5,13.9,13.9,23,28.2,26.5c8.4,2.1,15,0,20.6-6.3c5.9-6.6,10.5-14.6,13.2-23.4c0.9-2.5,1.8-5.1,2.6-7.7c0.1,1.2,0.1,2.3,0.2,3.5
			c0.3,7.7,1.7,15.3,4.9,22.7c4.9,10.5,12.6,15.7,23.4,15c3.5-0.3,6.6-1.4,8.7-4.2c1.7-2.1,3.1-4.5,3.8-7c3.1-8.7,5.6-17.1,8.4-25.8
			c6.6-22,13.6-43.9,20.9-65.9c4.2-13.6,10.5-25.8,19.2-37c0.7-0.3,1-1,1.4-1.4c1.7,3.8,2.8,7.3,2.1,11.2c-1,4.9-2.1,9.8-3.1,14.6
			c-4.2,20.6-8.4,41.5-12.2,62.1c-3.1,17.8-4.9,35.6-4.2,53.7c0.2,5.4,0.5,10.9,1.2,16.4c9.2,0.9,15.6,5.6,17.1,12.8l0,0.2l0,0.2
			c0.3,2.1,1.6,11.7,3.3,23.8c1.4,0.8,2.9,1.4,4.3,1.9c1.3-5.4,2.3-10,2.9-13.3c1.2-6.8,5.5-11.5,10.9-14.4c-0.4-2.7-0.6-5.3-0.8-8
			c-0.7-12.6-0.7-25.1,1.4-37.3c1-5.9,2.4-11.5,3.5-17.4c1.7-7.7,2.8-15.7,4.5-23.4c3.5-16,8-31.7,10.1-48.1
			c1.4-9.1,2.1-18.5,0.7-27.9C693.7,429.3,688.5,420.9,678.7,415.3z M488.4,462.7c-4.5,24.4-9.8,48.8-19.5,71.8
			c-3.1,7.3-7,14.3-12.9,20.2c-3.5,3.5-4.2,3.5-7-0.7c-4.2-6.6-6.3-13.6-7.7-21.3c-1-5.9-1.7-12.2-2.4-18.5c0.7-22.7,8-42.5,22-60.3
			c3.8-4.5,8.4-8,14.3-8.7c4.2-0.7,7.7,0.7,9.8,4.2C487.7,453.3,489.1,457.9,488.4,462.7z"/>
	</g>
	<g>
		<path class="st0" d="M228.4,699.9h-1.4c-5.9,0.3-7.1-11.3,0.1-12.4l2.5-0.4c0.3-2.4,0.5-3.3,1.1-7.4c2-14.6,25.9-13.7,24.1,1.6
			c0,0-0.4,3.3-0.5,4.3c0,0,2.9-0.1,4,0c7.5,0.1,6.6,12.2,1.2,12.5c-2.1,0.1-7,0.3-7,0.3c-2.1,8-7,44-0.8,44.6
			c5.3,0.4,6.6-2.9,8-8.8c1.8-7.9,15.3-5.1,14,3.4c-2.1,11.7-10.7,22.3-25.5,21.1C223.4,756.6,227.2,715.1,228.4,699.9z"/>
		<path class="st0" d="M299.6,707.1c3.8-6.2,9.2-9.6,14.2-9.9c25.3-1.2,24.1,34.6,18.3,57c-1.7,7.1-22.5,6.6-20.9-3.4
			c0.9-5.5,8.4-35.3-1.6-35.3c-8.7,0.1-10.3,23.7-11.5,37.1c-0.5,6.2-17.9,8.3-19.5,0.3c-5.7-30.6-1.4-67.3-0.3-73
			c1.8-12.5,24.1-13.3,22.9,2.5C301.1,685.8,299.6,707.1,299.6,707.1z"/>
		<path class="st0" d="M361.3,718.3c0.7,14.5,2.5,21.7,9.1,21.6c5-0.1,9-10.4,9.5-12.8c1.1-6.6,16.2-5.4,15.7,2.4
			c-1.3,14.2-11.6,26.2-25.7,26.2c-22.1,0-30.7-17.1-30.6-36.7c0.1-21.7,11.7-41.7,31.7-41.9c24.4-0.1,32.8,36.5,19.6,37.8
			C384.2,715.8,362.2,718.3,361.3,718.3z M362.5,703.5c2.9-0.4,11.7-0.9,16.5-1.4c0,0-1.3-7.9-7.4-8
			C364.3,693.9,362.5,699.5,362.5,703.5z"/>
	</g>
	<path class="st0" d="M933,769.8c-25.1,16.1-55.6,15-75.5,32.8c-17-8-36.6-12.6-57.3-12.6c-20.7,0-40.3,4.6-57.3,12.6
		c-19.9-17.8-50.5-16.7-75.6-32.8c-6,16,11.7,57.9,23,81.9c-6.8,13.1-10.6,27.6-10.6,42.9c0,57.8,53.9,104.6,120.5,104.6
		s120.5-46.8,120.5-104.6c0-15.3-3.8-29.8-10.6-42.9C921.4,827.6,939,785.8,933,769.8z M821.8,893.2c4.2-10.9,16.7-18.9,29.7-18.9
		c2.4,0,4.6,0.3,6.8,0.8c4-4.5,8.9-7.1,14.6-7.9c0.2,0,0.3,0,0.4,0c1.4,0,2.5,1.1,2.6,2.6c0.1,1.5-0.8,3.2-2.8,3.5
		c-3.3,0.4-6.2,1.9-8.8,4.2c1.6,0.9,3.1,2.1,4.4,3.4c4.4-3.8,9.2-5.8,14-5.8c0.5,0,1.1,0,1.6,0.1c1.9,0.2,2.9,1.9,2.9,3.4
		c-0.1,1.6-1.2,2.7-2.7,2.7c-0.1,0-0.2,0-0.3,0c-0.4,0-0.8-0.1-1.2-0.1c-3.6,0-7.2,1.5-10.6,4.6c0.9,1.7,1.7,3.6,2.2,5.5
		c0.2,0.9,0.1,1.8-0.5,2.6c-0.6,0.8-1.6,1.2-2.6,1.2c-1.4,0-2.5-0.9-2.8-2.2c-1.2-4.6-3.9-8.2-7.8-10.3c0,0,0,0,0,0
		c-0.1-0.1-0.2-0.1-0.3-0.2c-0.2-0.1-0.3-0.2-0.5-0.2c-0.1-0.1-0.3-0.1-0.4-0.2c-0.1-0.1-0.2-0.1-0.4-0.2c-0.1,0-0.1,0-0.2-0.1
		c0,0,0,0,0,0c-0.7-0.3-1.3-0.5-1.9-0.6c0,0,0,0,0,0c-0.2,0-0.4-0.1-0.5-0.1c-0.2,0-0.4-0.1-0.6-0.1c-0.1,0-0.2-0.1-0.4-0.1
		c0,0-0.1,0-0.1,0c-1.4-0.3-2.8-0.4-4.3-0.4c-11.8,0-20.9,7.4-23.7,14.7c-0.5,1.2-1.6,2-3,2c0,0,0,0,0,0c-1.1,0-2.1-0.5-2.6-1.3
		C821.5,895,821.4,894.1,821.8,893.2z M718.7,875.2c0.5,0,1.1-0.1,1.6-0.1c4.8,0,9.6,2,14,5.8c1.3-1.3,2.8-2.4,4.4-3.4
		c-2.6-2.4-5.5-3.8-8.8-4.2c-1.9-0.3-2.9-2-2.8-3.5c0.1-1.5,1.2-2.6,2.6-2.6c0.1,0,0.3,0,0.4,0c5.7,0.8,10.6,3.4,14.6,7.9
		c2.1-0.5,4.4-0.8,6.8-0.8c13,0,25.5,7.9,29.7,18.9c0.3,0.9,0.3,1.8-0.2,2.5c-0.5,0.8-1.5,1.3-2.6,1.3c-1.3,0-2.5-0.8-3-2
		c-2.8-7.3-11.9-14.7-23.7-14.7c-1.7,0-3.4,0.2-5,0.6c-0.1,0-0.1,0-0.2,0c-1.6,0.4-2.8,0.9-3.1,1c0,0,0,0,0,0
		c-4.6,2-7.8,5.8-9.2,10.9c-0.4,1.3-1.5,2.2-2.8,2.2c-1,0-2-0.5-2.6-1.2c-0.6-0.7-0.7-1.6-0.5-2.6c0.5-2,1.3-3.8,2.2-5.5
		c-3.4-3-6.9-4.6-10.6-4.6c-0.4,0-0.8,0-1.2,0.1c-0.1,0-0.2,0-0.3,0h0c-1.5,0-2.7-1.1-2.7-2.7C715.8,877.1,716.7,875.4,718.7,875.2z
		 M774.8,928.1c-0.1,0-0.1,0-0.2,0c-1.6-0.1-3.3-0.1-4.9-0.1c-18.6,0-37.8,5.4-52.7,14.9c-0.5,0.3-1,0.5-1.5,0.5c0,0,0,0,0,0
		c-1.3,0-2.4-0.9-2.8-2.3c-0.4-1.3,0.1-2.7,1.3-3.4c15.7-10,35.9-15.8,55.5-15.8c1.7,0,3.5,0,5.2,0.1c1.9,0.1,2.9,1.7,2.8,3.2
		C777.5,926.9,776.4,928.1,774.8,928.1z M779.5,917.9c-0.1,0-0.3,0-0.4,0c-11.2-1.5-21.1-2.3-30.1-2.3c-21,0-37.8,4.2-50,12.4
		c-0.5,0.3-1,0.5-1.6,0.5c-1.2,0-2.3-0.9-2.7-2.2c-0.4-1.3,0.1-2.7,1.2-3.4c13-8.8,30.9-13.3,53.1-13.3c9.2,0,19.1,0.7,30.3,2.2
		c1.9,0.3,2.8,2,2.7,3.5C782,916.8,780.9,917.9,779.5,917.9z M813.4,941.5c-0.1,0-0.1,0-0.2,0c-5.7-0.3-10.1-5.6-12.2-8.5
		c-2.8,3.8-6.5,6.5-8.5,7.9c-0.5,0.3-1.1,0.5-1.6,0.5c-1.2,0-2.4-0.9-2.8-2.2c-0.4-1.3,0.1-2.7,1.2-3.5c5.5-3.7,10.7-9.5,9-14.9
		c-5.2-2.5-8.5-5.7-9.7-9.4c-0.2-0.6-0.2-1.1,0-1.7c-0.1-0.8,0.2-1.6,0.7-2.2c0.5-0.6,1.3-1,2.2-1c0.8,0,1.5,0,2.3,0
		c0.9,0,1.9,0,2.8,0c4.1,0,8.6,0.1,12.9,1.1c1,0.2,1.7,0.8,2,1.7c0.3,0.9,0.2,1.9-0.3,2.7c0,0.2-0.1,0.4-0.2,0.6
		c-1.3,3.2-3.7,6.1-6.6,8.1c0.4,1.9,0.3,3.9-0.3,5.9c0.7,1.5,1.9,3.2,3.7,5.1c1.5,1.6,3.4,3.7,5.4,3.8c1.9,0.1,3,1.7,2.9,3.2
		C816.2,940.3,815,941.5,813.4,941.5z M887.5,941c-0.4,1.4-1.5,2.3-2.8,2.3c0,0,0,0,0,0c-0.5,0-1-0.2-1.5-0.5
		c-14.9-9.5-34.1-14.9-52.7-14.9c-1.6,0-3.3,0-4.9,0.1c-0.1,0-0.1,0-0.2,0c-1.6,0-2.7-1.2-2.8-2.9c0-1.5,0.9-3.1,2.8-3.2
		c1.7-0.1,3.5-0.1,5.2-0.1c19.6,0,39.8,5.8,55.5,15.8C887.3,938.4,887.8,939.7,887.5,941z M905.4,926.3c-0.4,1.3-1.5,2.2-2.7,2.2
		c-0.5,0-1.1-0.2-1.6-0.5c-12.2-8.2-29-12.4-50-12.4c-9,0-18.8,0.7-30.1,2.3c-0.1,0-0.3,0-0.4,0c-1.4,0-2.5-1.1-2.6-2.6
		c-0.1-1.5,0.8-3.2,2.7-3.5c11.2-1.5,21.1-2.2,30.3-2.2c22.2,0,40.1,4.5,53.1,13.3C905.3,923.6,905.8,924.9,905.4,926.3z"/>
	<g>
		<path class="st0" d="M449.7,599.8c-5.2,0.2-27.9-0.6-37.6,0.6c-9.1,1.4-8.5,20.2,3.3,19.2c-0.2,13.6-4.3,65-0.2,95.1
			c-1.2,0.4-2.5,0.8-3.3,1c-6,1.7-6.4,16.5,2.7,16.3c9.1-0.2,29.7-1.4,33.8-2.1c10.9-1,7.6-18.2,0-18c-1.4,0.2-2.1,0-3.5,0
			c2.5-18.2,2.3-84.8,2.1-92.5c0.6,0,2.7,0,3.3,0C460.8,618.3,461,599.3,449.7,599.8z"/>
		<path class="st0" d="M541.1,599.6c-14.4-1.7-47.9-1.7-69.1,3.3c-14,3.3-12,26.6,1.7,24.6c4.1-0.4,9.9-0.8,12.2-0.8
			c-2.7,47.7,3.9,82.1,5.6,93.9c2.3,16.7,29.5,15.3,29.9-3.1c0.4-10.9,1-70.2,2.1-93.5c0,0,14-0.8,16.5-1
			C552.8,622.5,554.7,601.6,541.1,599.6z"/>
		<path class="st0" d="M729.5,605.5c-2.1,14.7-6.2,41.3-9.9,64.2c-4.1-16.9-13-53-14.7-58c-3.3-10.3-31-9.5-33.6,6
			c-1.9,10.9-8.5,35.3-13.8,52.8c-3.5-25-8.5-60.9-9.1-65.4c-2.9-13.8-38-8.5-35.9,6.8c1,5.2,15.5,88.5,26.8,114.9
			c3.3,9.1,26.8,7.6,29.3-5.6c2.5-13.2,10.7-38.2,15.3-56.1c8.3,22.7,18.8,56.1,21.3,62.3c3.1,7,28.3,10.3,31-4.1
			c1.4-6.6,16.7-110,17.3-113.7C754.7,597.9,730.9,595.6,729.5,605.5z"/>
		<path class="st0" d="M923.7,658c-9.3-4.1-24.1-10.7-22.5-24.6c1.4-11.8,22.1-21.3,29.7,3.1c3.7,12.2,24.1,6,22.7-7.4
			c-5.4-43.5-86.3-43.5-90,7.6c-2.3,32,27.4,40.4,34.5,43.1c10.1,3.3,24.1,8.5,21.9,19.6c-2.3,12-20.4,14.4-23.1-0.8
			c-2.3-13.6-23.3-13.2-23.3,1.7c0,13.2,9.3,31.4,38.8,32c9.7,0.2,36.1-2.5,40.7-31C956.7,675.5,934.8,662.9,923.7,658z"/>
		<path class="st0" d="M855.2,680.2c-2.3-1.2-7.4-1.2-9.7-1.2c0-1.4-1.9-47.5-19.6-70.2c-12.6-16.3-35.3-13.2-45.2,1.2
			c-2.1,3.5-18.2,21.7-20,75.3c-9.3,0.8-9.7,19-0.2,19.2c0,4.3-0.6,15.1,0,20.2c0.2,2.9,2,4.7,4.4,5.7c1.3-2.2,2.6-4.5,4.4-6.9
			c1.7-2.4,4.9-6.8,10.8-6.8c0.4,0,0.8,0,1.2,0.1c0.5-4.9,1.1-11.5,1.1-15c8-0.6,18-0.6,27.7-1.9c0,2.3,0.8,15.5,1.4,20.2
			c2.1,15.3,36.9,15.9,36.5-1.7c0-2.3-0.8-18.2-0.8-20.4c1.2,0,7-1.9,9.5-3.5C862,691.4,861,683.1,855.2,680.2z M784,682.5
			c1.7-35.1,8.5-55.5,13-55.3c4.5,0.4,8.3,24.8,10.5,53.9C800.5,681.5,792,681.5,784,682.5z"/>
	</g>
	<g>
		<path class="st12" d="M660.3,772.3c-16.2,0-32.5-0.9-48.6-1.3c-2.6-0.1-5.1-0.2-7.7-0.4c-7.3-0.4-14.6-1-21.7-1.6
			c0-0.1,0-0.2,0-0.3c0,0,0.1,0,0.1,0c1.1-5.9,2.5-14.1,3.7-20.5c-0.1-0.3-0.1-0.6,0.1-0.8c2.5-13.1,4.6-26.6,7.8-39.4
			c1.8-7.1,0.7-12.8-3.9-17.8c-4.6-6-9.2-12.1-14.6-17.4c-3.6-3.6-6.4-2.5-7.8,2.1c-3.2,8.9-6.4,18.1-8.9,27
			c-3.3,12-6.3,23.9-9.3,36.1c-1.1,4.7-3.3,14.1-5.6,26.9h-1.9c-3.7-0.3-7.4-0.7-11.1-1c-23.7-2.1-47.6-4.2-71.3-5.7
			c-20.3-1.1-40.5,0.4-60.4,5.7c-23.1,6-41.6,18.5-53.6,40.1c-5.3,9.9-8.9,21-11.4,32c-0.7,4.3,0.7,6.7,5,7.1c6,0.4,10.3-3.6,11-10
			c0.7-3.6,1.1-7.1,2.5-10.3c7.8-16.3,20.6-28.1,36.6-35.5c24.5-11.7,50.1-12.4,76-10c18.1,2.1,36.2,4.3,54.4,6.4
			c2.9,0.3,5.8,0.5,8.8,0.8c4,0.3,8.1,0.6,12.2,1c0,0.1,0,0.2,0,0.3c-0.1,0.6-0.2,1.1-0.2,1.6c-3.8,24-7.6,47.9-11.3,71.6
			c-3.4,22-5.2,44-5.5,66c-1.3,3.9-2.6,7.7-4,11.6c-5.4,15.9-10.9,32.2-16.7,48.2c-1.9,4.7-5.4,8.9-8.5,12.8
			c-2.7,3.1-6.2,2.3-7.8-1.2c-1.2-3.5-2.7-7-2.7-10.9c-0.8-10.5-1.2-20.6-0.8-31.1c1.2-22.5,2.7-44.7,3.9-67.2
			c0.4-6.6,1.2-12.8,1.2-19.4c0.4-10.1-5.4-17.1-15.1-19.8c-1.9-0.4-4.3-0.4-6.6-0.8c-4.3-0.8-7,1.2-8.9,4.3
			c-0.8,1.6-1.6,3.1-2.3,4.7c-1.9,5-3.9,10.5-5.4,15.5c-3.5-3.5-6.6-8.2-10.9-11.7c-10.9-8.9-24.1-9.3-36.9-7.8
			c-17.1,1.9-29.9,11.3-39.2,25.2c-10.9,16.1-16.9,33.4-18.6,51.9c-3,11-6.9,21.6-11.7,32c-5,10.5-11.3,19.8-21,26.4
			c-13.6,8.9-33.4,4.7-41.2-8.9c-6.2-11.3-9.7-23.3-9.7-36.1c0-26,8.2-49.3,24.5-69.5c4.7-5.4,10.5-9.3,17.9-9.3c4.7,0.4,7,2.3,7,7
			c0,0.8,0,1.6,0,2.7c0.8,3.9,1.2,8.2,2.7,12c0.8,3.1,3.1,3.5,5.4,1.9c5-3.9,8.2-11.7,5.4-17.5c-3.5-8.9-10.5-15.9-19.4-18.6
			c-24.5-7.8-47.8-2.3-64.1,19.4c-16.7,21.8-22.9,47-21.4,73.8c1.6,24.1,13.2,41.9,34.6,53.2c1.6,0.8,3.1,1.9,4.7,2.7
			c11.7,6.2,24.1,9.7,37.3,7.4c20.2-3.9,34.2-15.9,43.5-33.8c2.6-4.8,4.9-9.7,6.9-14.7c5.2,22.8,23.3,41.5,46.3,46.6
			c19.4,4.3,26.4,0,34.6-14.8c4.7-8.2,7.8-17.1,11.3-26c2.3-7,4.3-14.4,6.2-22.1c0.4,1.9,0.4,3.1,0.8,4.3c2.3,10.1,4.3,20.2,7,29.9
			c5,15.5,15.5,25.6,31.5,29.5c9.3,2.3,16.7,0,22.9-7c6.6-7.4,11.7-16.3,14.8-26c1.5-4,2.8-8.1,4-12.2c0.8,10.1,2.4,19.9,6.4,29.4
			c8.2,20.2,31.3,28.1,50.1,17.4c9.6-5.3,16.7-13.5,22.4-22.7c16.3-25.6,24.2-54.4,30.2-83.8c0-0.7,0-1.8-0.7-2.1
			c-1.8-1.4-3.9-2.5-5.7-3.9c-5,14.6-9.2,28.4-13.9,42.3c-5.3,14.9-11,29.8-19.9,43c-3.6,5-7.5,9.6-12.4,13.1
			c-6.4,5-12.8,2.8-16-4.6c-1.1-2.8-1.8-6-2.1-9.2c-0.4-31.6,0.7-63.6,3.9-95.6c1.8-18.8,3.6-38,6-56.8c1.6-13.1,4.1-26.2,6.1-39.4
			c7.5,0.5,14.4,1.2,21.5,1.7c0.5,0,1,0.1,1.5,0.1c19.6,1.3,39.2,1.7,58.8,0.8c-0.8-4.6-1.2-8.7-1.2-12.3
			C659.8,776.6,660,774.3,660.3,772.3z M440.8,886.9c-5,27.2-10.9,54.4-21.8,80c-3.5,8.2-7.8,15.9-14.4,22.5
			c-3.9,3.9-4.7,3.9-7.8-0.8c-4.7-7.4-7-15.1-8.5-23.7c-1.2-6.6-1.9-13.6-2.7-20.6c0.8-25.2,8.9-47.4,24.5-67.2
			c4.3-5,9.3-8.9,15.9-9.7c4.7-0.8,8.5,0.8,10.9,4.7C440,876.4,441.5,881.5,440.8,886.9z"/>
		<path class="st12" d="M786.5,730.4c-0.4-3.2-2-6.2-5.1-7.1c-3.6-0.8-5.5,1.7-7.1,4.1c-2.4,3.1-4,6.5-6.1,9.8
			c-9.1,14.5-31.2,26.2-58.9,31.4c-4.4,0.8-8.7,1.4-13.2,1.9c-3.8,0.4-7.6,0.8-11.4,1.1c6.8,2.8,13.9,4.9,20.9,6.9
			c5.5,1.6,11,3.3,16.5,5.3c37.1-9.5,56.6-33.4,62.4-42.8C786.9,737.7,787.4,734,786.5,730.4z"/>
	</g>
</g>
</svg>
