<?xml version="1.0" encoding="utf-8"?>
<!-- Generator: Adobe Illustrator 23.0.3, SVG Export Plug-In . SVG Version: 6.00 Build 0)  -->
<svg version="1.1" id="Layer_1" xmlns="http://www.w3.org/2000/svg" xmlns:xlink="http://www.w3.org/1999/xlink" x="0px" y="0px"
	 viewBox="0 0 1133.9 1133.9" style="enable-background:new 0 0 1133.9 1133.9;" xml:space="preserve">
<style type="text/css">
	.st0{fill:#1E2121;}
	.st1{fill:#A81F26;}
	.st2{fill:#F2F1F2;}
	.st3{fill:#DD353A;}
	.st4{fill:#CFCFCE;}
	.st5{fill:#1D2121;}
	.st6{fill:none;}
	.st7{fill:#AA1F23;}
	.st8{fill:#FDFEFE;}
	.st9{fill:#EE742C;}
	.st10{fill:#BA5234;}
	.st11{fill:#ED1C24;}
	.st12{fill:#C42C3A;}
	.st13{fill:#058743;}
	.st14{fill:#0F4D70;}
	.st15{fill-rule:evenodd;clip-rule:evenodd;fill:#C42C3A;}
	.st16{fill-rule:evenodd;clip-rule:evenodd;fill:#1E2121;}
	.st17{fill:#E8E8E8;}
	.st18{fill:#186634;}
	.st19{fill:#BF2730;}
	.st20{fill:#B47A48;}
	.st21{fill:#3E1E14;}
	.st22{fill:#DBAD5D;}
	.st23{fill:#B84947;}
	.st24{fill:#C3976E;}
	.st25{fill:#9D2023;}
	.st26{fill:#3C2517;}
	.st27{fill:#4A3A31;}
	.st28{fill:#EDAD4F;}
	.st29{fill:#F8C018;}
</style>
<g>
	<g>
		<path class="st5" d="M678.7,282.2c0.5-0.8,0.7-1.7,0.7-2.6c0-1.9-0.9-3.5-2.6-4.5c-0.8-0.5-1.7-0.8-2.7-0.8
			c-1.9,0-3.6,0.9-4.6,2.6l-0.1,0.1c-2.7,5.2-6.4,13.9-11,25.8c-2.9,7.4-6.1,15.3-9.5,23.5c-3.4,8.1-6.9,15.8-10.7,22.8
			c-3.7,6.9-7.4,12.7-11.1,17.1c-3.2,3.8-6.3,5.8-9.1,5.8c-3,0-5.2-1.3-6.8-3.9c-1.9-3.3-3.3-7.7-4-13.1c-0.5-4-0.7-8.4-0.7-13
			c0-1.9,0-3.8,0.1-5.7c0.3-6.7,0.8-13.5,1.5-19.9c0.7-6.5,1.5-12.4,2.2-17.3c1-7.8,1.2-9.5,1.2-10.2c0-2.2-1.2-4-3.2-4.8l-4.7-1.9
			c-5.9-2.1-11.6-4.7-17.2-7.6c3-4.4,5.9-9,8.6-13.7c3.4-5.9,6.3-11.8,8.7-17.6c2.4-6,3.6-11.6,3.6-16.6c0-4.9-1.4-9.3-4-12.9
			c-2.6-3.5-5.9-6.2-10-8.1c-4-1.8-8.2-2.8-12.6-2.8c-11.3,0-20.6,3.5-27.5,10.3c-6.9,6.8-10.4,16-10.4,27.3
			c0,7.8,1.5,14.7,4.3,20.3c2.8,5.6,6.7,10.5,11.6,14.4c3.2,2.6,6.7,5,10.5,7.1c-0.9,1.7-1.9,3.7-3,5.8c-2.6,5.1-5.6,10.6-8.8,16.5
			c-3.2,5.9-6.7,11.5-10.4,16.8c-3.6,5.2-7.4,9.6-11.1,12.9c-3.3,3-6.5,4.5-9.5,4.5c-1.9,0-3.5-0.7-4.8-2.1c-1.6-1.8-3-4.2-4.2-7.2
			c-1.2-3.2-2.2-6.9-2.9-11c-1.1-6.3-1.8-12.9-2.1-19.7c-0.3-6.8-0.5-12.8-0.5-17.8c0-4.5-2.3-6.9-4.1-8.1c0.1-0.3,0.1-0.7,0.1-1
			c0-0.7-0.2-1.5-0.5-2.1c-1.1-2.6-2.6-4.8-4.3-6.6c-3.7-3.5-8.3-5.3-13.6-5.3l-0.7,0c-7.9,0.2-14.5,2.5-19.6,6.9
			c-3.7,3.2-6.8,7.2-9,11.8c0,0.1-0.1,0.1-0.1,0.1c-4.4,7.4-13.5,17.7-26.9,30.6c-13,12.5-26.5,18.9-40.1,18.9c-7,0-12.8-2.9-17.6-9
			c-4.9-6.2-7.4-15.1-7.4-26.5c0-1.3,0-2.5,0.1-3.7c4.1,1.9,9,2.8,14.5,2.8c5.8,0,11.1-1.9,15.9-5.5c5-3.9,7.5-9,7.5-15.2
			c0-7.2-2.6-12.7-7.6-16.3c-4.7-3.4-10.1-5.1-16-5.1c-11.3,0-20.2,4.7-26.2,13.9c-3.2,4.8-5.5,10-6.9,15.5
			c-1.4,2.4-3.1,5.6-5.3,9.6c-2.8,5.3-6.2,11.4-10.1,18.1c-3.8,6.6-7.9,13.1-12.1,19.3c-4.2,6.1-8.4,11.2-12.7,15.2
			c-3.8,3.6-7.2,5.4-10.3,5.4c-4.1,0-7.8-2.2-11.3-6.8c-3.8-5.1-7.1-12-9.9-20.7c-2.8-8.8-4.9-18.8-6.3-29.6
			c-1.2-9.9-1.8-20.3-1.8-30.7v-0.7c8.1-2.3,15.9-5.7,22.9-10.4c7.8-5.1,14.7-11.2,20.5-18.3c4.6-5.3,8.7-11.5,12.3-18.7
			c3.7-7.3,5.6-14.7,5.9-22v-0.5c0-4.3-0.8-8.4-2.4-12.2c-1.7-4-4.2-7.2-7.7-9.8c-3.5-2.6-7.9-3.9-12.9-3.9
			c-8.9,0-16.8,1.9-23.6,5.8c-6.6,3.8-12.3,9-16.9,15.3c-4.5,6.3-8.2,13.5-11,21.5c-2.8,7.9-4.8,16.3-6,25.1
			c-1.2,8.7-1.8,17.4-1.8,25.9c0,4.3,0.1,8.6,0.2,12.9c-1.7-0.8-3.3-1.5-5-2c-3.4-1.1-6.8-1.6-10.1-1.6c-9.1,0-16.4,3.8-21.6,11.3
			c-5,7.1-7.5,16.3-7.5,27.4c0,6.4,0.8,12.8,2.4,18.9c1.7,6.2,4.1,11.5,7.3,15.5c3.5,4.5,8,6.9,13.2,6.9l0.2,0
			c6.7-0.4,12.3-3.7,16.6-9.9c3.9-5.6,7-12,9.2-19.1c0.4-1.3,0.8-2.6,1.2-3.9c0.1,0.3,0.1,0.5,0.2,0.8c1.3,5.2,2.9,10.4,5,15.5
			c2.1,5.2,4.7,10,7.9,14.3c3.2,4.4,7.1,8,11.6,10.7c4.6,2.8,10.1,4.2,16.2,4.2c4.7,0,8.9-1,12.5-3c3.4-1.9,6.8-4.5,10.1-7.9
			c6.7-7,13.2-15.5,19.2-25.4c4-6.5,7.6-12.8,10.8-18.6c1.5,9.4,5.2,17.3,11.2,23.4c7.9,8.1,19.3,12.3,33.7,12.3
			c15.8,0,31.4-7.2,46.4-21.3c6-5.6,11.1-10.7,15.4-15.4c0,0.2,0,0.5,0,0.7c0,2.8,0.3,6.1,0.9,9.6c0.6,3.6,1.6,7.2,3,10.5
			c1.5,3.6,3.6,6.6,6.2,8.9c2.9,2.6,6.5,3.9,10.7,3.9c3.9,0,7.2-1.4,9.9-4.1c2.4-2.4,4.4-5.3,5.9-8.9c0.7-1.5,1.3-3,1.9-4.6
			c0.9,5.3,2.3,10.5,4.1,15.6c1.3,3.5,3,6.8,5.1,9.7c2.2,3,4.8,5.5,7.9,7.3c3.2,1.8,6.9,2.8,11.1,2.8c6,0,11.7-2,17.1-6
			c5-3.7,9.8-8.6,14.2-14.4c4.3-5.7,8.3-11.8,11.9-18.2c3.6-6.4,6.9-12.4,9.8-18.1c1.4-2.8,2.8-5.4,4-7.8c3.8,1.8,7.8,3.5,11.8,5.2
			c-0.2,1.8-0.5,3.8-0.8,6c-0.8,5.4-1.6,12.2-2.4,20.1c-0.8,8-1.3,17.9-1.3,29.5c0,4,0.4,8.3,1.3,12.6c0.9,4.4,2.4,8.6,4.4,12.3
			c2.1,3.9,5,7.1,8.7,9.6c3.7,2.5,8.3,3.8,13.6,3.8c4.3,0,8.3-1.2,11.9-3.6c3.4-2.2,6.5-5.1,9.2-8.5c2.7-3.3,5.1-6.8,7.2-10.4
			c2.1-3.5,3.9-6.8,5.6-10c7.4-14.8,13.9-30.1,19.5-45.3C671.9,296.5,675.7,287.7,678.7,282.2z M372.7,268.3c3-5.6,7.1-8.4,12.6-8.5
			c2.8,0,4.7,0.8,6.2,2.6c1.6,1.9,2.4,4.2,2.4,7c0,3.1-1,5.5-3,7.4c-2.1,1.9-4.7,2.8-7.9,2.8c-5.3-0.1-9.8-1.2-13.2-3.4
			C370.5,273.2,371.4,270.5,372.7,268.3z M273.1,219.7c1.7-9.4,4.3-17.9,7.5-25.3c3.2-7.2,7.2-13,11.9-17.2c4.5-4,9.7-6,15.9-6
			c2.8,0,4.9,0.6,6.3,1.8c1.5,1.4,2.6,3.2,3.3,5.5c0.7,2.3,1,4.9,1,7.7l0,0.7c-0.1,5.8-1.5,11.9-4.1,18c-2.6,6.2-5.8,11.6-9.5,16.1
			c-5.1,6.1-11.1,11.5-17.8,16c-5.4,3.6-11.3,6.4-17.4,8.4C270.6,236.5,271.6,227.9,273.1,219.7z M245.4,306.3
			c-2.3,8.6-5.5,15.9-9.5,21.7c-0.5,0.7-1.2,1.5-2,2.3c-0.5,0.5-0.9,0.7-1.2,0.7c-0.9-0.2-1.9-1.5-2.7-3.7
			c-1.4-3.6-2.5-7.9-3.1-12.9c-0.7-5.1-1-9.8-1-14c0-3.6,0.4-7.4,1.3-11.5c0.8-3.8,2.2-7.1,4.3-9.7c1.8-2.3,4.2-3.4,7.4-3.6
			c2.1,0,4.2,0.5,6.3,1.5c1.8,0.8,3.5,1.9,4.9,3.1c0.1,1,0.2,2,0.3,2.9C249.4,289.8,247.8,297.6,245.4,306.3z M494.6,274
			c-1.1,1.1-2,2.2-2.5,3.5c-0.4,1-0.8,2.5-1.2,4.5c-0.7,3.8-1.8,8.9-3.2,15c-1.4,6.1-3,11.7-4.8,16.6c-1.3,3.6-2.3,5.1-2.8,5.7
			c-0.7-0.5-1.2-1.7-1.5-2.4c-1-2.7-1.8-5.7-2.1-8.9c-0.4-3.4-0.6-5.7-0.6-7c0-2.7,0.3-5.9,0.7-9.7c0.5-3.7,1.4-7.4,2.7-10.9
			c1.2-3.3,2.9-6.1,5-8.3c1.8-1.9,4.1-2.8,7-2.8c1.7,0,3.1,0.4,4,1.1c0.6,0.5,1.2,1.1,1.7,2C496.1,272.7,495.3,273.3,494.6,274z
			 M577.6,269c-2.5-1.9-4.9-4.1-7.1-6.5c-2.8-3.1-5.1-6.8-6.8-10.9c-1.7-4.1-2.5-8.9-2.5-14.3c0-4.1,0.8-8,2.4-11.7
			c1.5-3.6,3.8-6.6,6.8-8.9c2.9-2.2,6.3-3.3,10.6-3.3c4,0,7.3,1.2,10.1,3.6c2.7,2.3,3.9,5.5,3.9,9.7c0,6.2-1.9,13.4-5.6,21.5
			C585.9,255.5,582,262.5,577.6,269z"/>
		<path class="st5" d="M372.7,663.8c2,1.4,4.4,2.1,7.3,2.1c5.6,0,8.8-2.7,10.5-4.9c2.2-2.9,3.3-6.4,3.3-10.2c0-3.1-1.1-6-3.1-8.6
			c-1.6-2-4.5-4.3-9.8-4.3c-4.4,0-8,1.6-10.4,4.7c-2.3,2.9-3.4,6.3-3.4,10.2c0,2,0.5,4.1,1.3,6C369.4,660.8,370.8,662.5,372.7,663.8
			z"/>
		<path class="st5" d="M639.2,677.2c-0.9-0.5-1.9-0.8-2.8-0.8c-2,0-3.7,1-4.8,2.7c-3.6,6-11.1,14.5-22.1,25.1
			c-10.6,10.2-21.5,15.3-32.4,15.3c-5.4,0-9.9-2.3-13.6-7c-3.9-4.9-5.9-12-5.9-21.2c0-0.4,0-0.8,0-1.2c3.2,1.2,6.8,1.8,10.8,1.8
			c5.1,0,9.8-1.6,13.9-4.8c4.4-3.4,6.7-8.1,6.7-13.6c0-8-3.7-12.3-6.9-14.5c-4.1-3-8.8-4.4-14-4.4c-9.9,0-17.5,4.1-22.8,12.1
			c-2.7,4.1-4.6,8.5-5.9,13.1c-1.7,3.2-4,7.8-7,14.1c-2.6,5.5-5.6,11.5-8.8,17.8c-3.2,6.3-6.6,12.4-10,18.2
			c-3.4,5.6-6.8,10.3-10,13.9c-2.6,2.9-5,4.4-6.8,4.4c-1.1,0-1.5-0.3-1.9-1c-0.9-1.4-1.5-3.4-1.9-6c-0.5-3-0.7-6.4-0.8-10.1v-4
			c0-2.7,0-5.4,0.1-8.2c0.1-2.9,0.2-5.8,0.2-8.5c0-2.7-0.1-5.5-0.2-8.2c-0.2-5.6-0.9-10.6-2.1-14.7l0-0.2c-1.5-4.3-3.7-7.7-6.7-10.1
			c-3.1-2.4-6.4-3.7-10-3.7c-5.2,0-12.3,2.1-16.8,11.9c-1.5,3.5-2.6,6.7-3.3,9.6c-0.4,1.8-0.8,3.5-1.2,5.3c-0.3-2.6-0.5-5.2-0.7-7.8
			c-0.3-4.5-0.5-7.8-0.5-9.7v-0.1l0-0.1c-0.3-3.9-2.2-6.9-5.5-8.4c-1.6-0.7-3.2-1-4.8-1c-1.2,0-2.3,0.2-3.5,0.5l-0.2,0.1
			c-1.6,0.5-4.2,2-5.3,6c-1.9,3.6-4.6,9.2-7.9,16.8c-2.5,5.8-5.3,12.1-8.3,18.5c-3,6.5-6.2,12.7-9.5,18.5c-3.2,5.7-6.4,10.3-9.5,14
			c-2.5,2.8-4.7,4.4-6.4,4.4c-0.2,0-0.9-0.6-1.6-2.3c-1.2-2.9-2.1-6.8-2.7-11.5c-0.6-4.9-1-10.4-1.2-16.1c-0.1-3.5-0.2-6.9-0.2-10.2
			c0-2.2,0-4.5,0.1-6.7c0.1-5.5,0.3-10.6,0.7-15.1c0.5-7,0.5-7.6,0.5-8c0-3.1-1.8-5.6-4.9-7c-1.6-0.7-3.4-1.1-5.2-1.1
			c-1,0-2,0.1-3,0.4c-3.5,0.8-5.8,3.2-6.5,6.5l0,0.2c-0.2,1.1-0.3,2.3-0.4,3.6c-0.1,0.2-0.3,0.3-0.4,0.5c-1.6,2.6-4.5,5.1-8.4,7.6
			c-4.3,2.7-8.8,5-13.6,7c-4.8,2-8.9,3.4-12.3,4.3l-0.2,0.1c-4.8,1.6-10.9,2.4-18.3,2.4c-1.4,0-2.6,0.5-3.6,1.4
			c-0.1-5-0.2-10.3-0.2-15.9c4.7-1.6,9.5-4,14.4-7.3c5.8-3.9,11.3-8.6,16.4-14.1c5.1-5.5,9.3-11.4,12.5-17.5
			c3.4-6.4,5.1-12.7,5.1-18.7c0-6.3-2.2-11.5-6.5-15.4c-4.2-3.9-9.4-5.8-15.4-5.8c-6.8,0-12.8,1.5-17.9,4.4c-5,2.9-9.2,6.9-12.6,12
			c-3.3,4.9-5.9,10.6-7.9,17.1c-1.9,6.3-3.3,13.3-4.1,20.7c-0.7,6.3-1.1,13-1.2,19.7c-4.1,5.1-9.9,11.2-17.3,18.4
			c-10.6,10.2-21.5,15.3-32.4,15.3c-5.4,0-9.9-2.3-13.6-7c-3.9-4.9-5.9-12-5.9-21.2c0-0.4,0-0.8,0-1.2c3.2,1.2,6.8,1.8,10.8,1.8
			c5.1,0,9.8-1.6,13.9-4.8c4.4-3.4,6.7-8.1,6.7-13.6c0-8-3.7-12.3-6.9-14.5c-4.1-3-8.8-4.4-14-4.4c-9.9,0-17.5,4.1-22.8,12.1
			c-2.7,4.1-4.6,8.4-5.9,13.1c-1.2,2-2.6,4.6-4.3,7.8c-2.3,4.4-5.1,9.5-8.3,15c-3.1,5.5-6.5,10.8-10,15.9c-3.4,5-6.9,9.1-10.3,12.4
			c-2.9,2.7-5.5,4.1-7.7,4.1c-3,0-5.7-1.7-8.4-5.2c-3.1-4.1-5.8-9.8-8-16.8c-2.3-7.2-4-15.4-5.2-24.4c-1-8.1-1.5-16.5-1.5-25
			c6.5-1.9,12.8-4.8,18.5-8.5c6.5-4.3,12.4-9.5,17.3-15.4c3.8-4.4,7.3-9.7,10.3-15.7c3.1-6.2,4.8-12.5,5-18.8v-0.4
			c0-3.8-0.7-7.3-2.1-10.6c-1.5-3.5-3.7-6.4-6.8-8.6c-3.1-2.3-7-3.5-11.5-3.5c-7.6,0-14.4,1.7-20.2,5c-5.7,3.2-10.5,7.6-14.5,13.1
			c-3.8,5.3-7,11.4-9.3,18.2c-2.3,6.6-4,13.7-5.1,21.1c-1,7.3-1.5,14.6-1.5,21.7c0,2.9,0,5.8,0.1,8.7c-0.8-0.3-1.6-0.6-2.4-0.9
			c-2.9-0.9-5.8-1.4-8.7-1.4c-8,0-14.4,3.3-19,9.9c-4.3,6.1-6.5,14-6.5,23.5c0,5.4,0.7,10.8,2.1,16c1.4,5.3,3.5,9.8,6.3,13.3
			c3.1,4,7.3,6.2,11.9,6.2l0.2,0c6-0.4,10.9-3.3,14.7-8.8c3.1-4.5,5.6-9.6,7.5-15.3c0.9,3.2,2,6.4,3.2,9.4c1.8,4.4,4,8.5,6.7,12.1
			c2.8,3.8,6.1,6.9,10,9.2c4,2.4,8.8,3.6,14.1,3.6c4.1,0,7.8-0.9,11-2.6c2.9-1.6,5.8-3.9,8.7-6.8c5.7-5.8,11.1-13,16.1-21.3
			c2.6-4.4,5.1-8.6,7.4-12.6c1.6,6.6,4.6,12.2,9,16.8c6.8,7,16.5,10.5,28.8,10.5c13.4,0,26.7-6.1,39.4-18.1
			c3.9-3.7,7.5-7.2,10.5-10.4c0.8,25.9,3.3,45.7,7.5,58.9c5.4,16.9,13.3,25.5,23.5,25.5c4.1,0,9.7-1.5,13.6-8.9
			c2.7-5.1,4-11.7,4-19.8c0-10.6-1.9-20.6-5.6-29.5c-2.3-5.5-5.1-10.1-8.4-13.8c3-0.5,5.6-1.1,7.7-1.8c3.8-1,8.4-2.6,13.7-4.8
			c5.3-2.2,10.5-4.9,15.3-8c0.6-0.4,1.2-0.8,1.7-1.2c-0.1,3-0.2,6-0.2,9.2v2.6c0.1,6.1,0.4,12.3,1,18.4c0.6,6.1,1.7,11.8,3.2,16.9
			c1.6,5.3,3.7,9.7,6.4,13.1c3.1,3.8,7.2,5.9,12,5.9c5.1,0,10.1-2.3,14.7-6.9c4.1-4,8.1-9.3,11.8-15.6c3.6-6.1,7.1-12.7,10.3-19.7
			c3.2-6.9,6.1-13.5,8.8-19.8c0.7,6,1.7,11.5,2.9,16.1c0.6,2.7,1.7,5.7,3.2,8.9c2.7,5.5,6.7,6.7,9.6,6.7l0.2,0
			c2.2-0.1,4.3-0.9,6.1-2.4c1.9-1.5,3.2-4,3.9-7.3l0-0.2c0.2-1,0.4-2.6,0.7-4.5c0.5-3.1,1.1-6.7,1.8-10.7c0.7-4,1.6-8.1,2.6-12.1
			c1-3.8,2.1-7,3.4-9.4c0.8-1.6,1.4-2,1.4-2c0.6,0,1,0.1,1.5,0.9c0.8,1.3,1.4,3.2,1.8,5.6c0.4,2.9,0.6,6.2,0.7,9.7v3.9
			c0,2.6,0,5.3-0.1,8.1c-0.1,2.7-0.1,5.4-0.1,8c0,2.7,0,5.3,0.1,7.9c0.1,5.4,0.7,10.2,1.8,14.5c1.4,5.1,3.6,9,6.5,11.5
			c3,2.6,6.5,3.9,10.3,3.9c4.4,0,8.4-1.1,11.9-3.1c3.2-1.9,6.2-4.4,9-7.5c5.7-6.2,11.2-14.3,16.4-24c4.1-7.7,7.9-15,11.2-22
			c1.6,6,4.5,11.2,8.7,15.4c6.8,7,16.5,10.5,28.8,10.5c13.4,0,26.7-6.1,39.4-18.1c12.4-11.7,20.5-20.8,24.8-27.9
			c0.5-0.9,0.8-1.9,0.8-2.8C641.9,680,640.9,678.2,639.2,677.2z M560.9,673.2c2.3-4.2,5.3-6.3,9.4-6.4c2.5,0,3.6,1,4.2,1.7
			c1.1,1.3,1.7,3,1.7,5c0,2.3-0.7,3.9-2.1,5.2c-1.5,1.4-3.4,2-5.7,2c-3.8-0.1-7-0.8-9.6-2.2C559.4,676.5,560,674.7,560.9,673.2z
			 M310,667.2c0.7-6.2,1.8-12.1,3.3-17.5c1.4-5.3,3.3-10,5.5-14c2.1-3.8,4.5-6.8,7.3-8.9c2.6-1.9,5.5-2.9,9-2.9
			c3.2,0,5.6,0.9,7.3,2.8c1.8,2,2.7,4.5,2.7,7.9c0,4.4-1.3,9.1-3.7,14c-2.6,5.2-6,10.2-10.2,14.9c-4.2,4.7-8.8,8.8-13.7,12.2
			c-2.9,2-5.8,3.7-8.6,4.9C309.1,676,309.5,671.5,310,667.2z M225.5,674.6c2.3-4.2,5.3-6.3,9.4-6.4c2.5,0,3.6,1,4.2,1.7
			c1.1,1.3,1.7,3,1.7,5c0,2.3-0.7,3.9-2.1,5.2c-1.5,1.4-3.4,2-5.7,2c-3.8-0.1-7-0.8-9.6-2.2C224,677.9,224.7,676.1,225.5,674.6z
			 M143.1,633.9c1.4-7.7,3.5-14.7,6.2-20.8c2.6-5.8,5.8-10.5,9.5-13.8c3.5-3.1,7.6-4.6,12.4-4.6c2,0,3.5,0.4,4.3,1.2
			c1.1,1,1.9,2.3,2.4,4c0.5,1.8,0.8,3.8,0.8,6l0,0.5c-0.1,4.7-1.2,9.5-3.3,14.4c-2.1,5-4.7,9.4-7.7,13c-4.2,5-9.1,9.4-14.5,13
			c-3.9,2.6-8.1,4.7-12.4,6.3C141.1,646.5,141.9,640,143.1,633.9z M117.7,705.2c-1.9,7-4.5,12.9-7.7,17.6c-0.4,0.5-0.9,1.1-1.5,1.7
			c0,0-0.1,0.1-0.1,0.1c-0.3-0.3-0.7-0.9-1.2-2.1c-1.1-2.9-2-6.4-2.5-10.4c-0.5-4.2-0.8-8.1-0.8-11.5c0-2.9,0.3-6,1-9.3
			c0.6-3,1.7-5.5,3.3-7.5c1.2-1.6,2.9-2.4,5.2-2.5c1.6,0,3.1,0.4,4.6,1.1c1.2,0.6,2.4,1.3,3.4,2.1c0.1,0.6,0.1,1.2,0.2,1.8
			C120.9,691.7,119.6,698.1,117.7,705.2z M329.6,759.4c0,6.5-0.8,11.5-2.2,14.8c-1.1,2.4-2.5,3.4-4.8,3.4c-3.9,0-7.5-7.4-9.7-19.8
			c-1.8-10.3-3-24.3-3.7-41.9c0.1,0.1,0.3,0.2,0.5,0.3l0.3,0.2l0.4,0.2c4.8,2,9.2,6.8,13.1,14.3
			C327.5,738.7,329.6,748.3,329.6,759.4z"/>
		<path class="st5" d="M1084,677.2c-0.9-0.5-1.9-0.8-2.9-0.8c-2,0-3.7,1-4.8,2.8c-1.2,2.1-2.7,4.8-4.6,8.4c-2.3,4.4-5.1,9.4-8.3,15
			c-3.1,5.5-6.5,10.8-10,15.9c-3.4,5-6.9,9.1-10.3,12.4c-2.9,2.7-5.5,4.1-7.7,4.1c-3,0-5.7-1.7-8.4-5.2c-3.1-4.1-5.8-9.8-8-16.8
			c-2.3-7.2-4-15.4-5.2-24.4c-1-8.1-1.5-16.5-1.5-25c6.5-1.9,12.8-4.8,18.5-8.5c6.5-4.3,12.4-9.5,17.3-15.4
			c3.8-4.5,7.3-9.7,10.3-15.7c3.1-6.2,4.8-12.5,5-18.8v-0.4c0-3.8-0.7-7.3-2.1-10.6c-1.5-3.5-3.7-6.4-6.8-8.6
			c-3.1-2.3-7-3.5-11.5-3.5c-7.6,0-14.4,1.7-20.2,5c-5.7,3.2-10.5,7.6-14.5,13.1c-3.8,5.3-7,11.4-9.3,18.2c-2.3,6.6-4,13.7-5.1,21.1
			c-1,7.3-1.5,14.6-1.5,21.7c0,2.9,0,5.8,0.1,8.7c-0.8-0.3-1.6-0.6-2.4-0.9c-2.9-0.9-5.8-1.4-8.7-1.4c-8,0-14.4,3.3-19,9.9
			c-0.4,0.6-0.9,1.3-1.3,2c-2.2,3.2-5.7,6-10.4,8.3c-5.3,2.5-11.1,4.4-17.1,5.7c-4.8,1-9.1,1.6-12.6,1.8c0.2-1.8,0.3-3.5,0.3-5.1
			c0-3.9-0.5-8-1.5-12.2c-1-4.2-2.6-8.2-4.7-11.7c-2.2-3.8-5.1-6.9-8.7-9.2c-3.7-2.4-8.2-3.7-13.3-3.7c-6.7,0-12.4,1.9-16.9,5.7
			c-4.7,4-7,9.7-7,16.9c0,1.4,0.1,2.9,0.3,4.3c-2.2,2.9-5.5,5.4-9.8,7.4c-5.3,2.5-11.1,4.4-17.1,5.7c-4.8,1-9.1,1.6-12.6,1.8
			c0.2-1.8,0.3-3.5,0.3-5.1c0-3.9-0.5-8-1.5-12.2c-1-4.2-2.6-8.2-4.7-11.7c-2.2-3.8-5.1-6.9-8.7-9.2c-3.7-2.4-8.2-3.7-13.3-3.7
			c-6.7,0-12.4,1.9-16.9,5.7c-4.7,4-7,9.7-7,16.9c0,1.4,0.1,2.9,0.3,4.4c-4.8,7.4-11,14.5-18.7,21c-6.5,5.6-13,10.7-19.5,15.5
			c-0.7-8-1.6-15.7-2.8-23.1c-1.5-9.5-2.9-18-4.2-25.3c-0.3-1.5-0.5-3-0.8-4.6c-0.3-1.7-0.6-3.3-1.1-4.9c-0.3-1.2-0.9-2.3-1.5-3.2
			c-1.8-2.9-4.8-4.6-8.3-4.6c-2,0-3.9,0.6-5.4,1.8c-1.6,1.3-2.7,3.1-3.1,5.4c0,0,0,0.2,0,0.2c-1.3-1.1-2.6-2.1-4.1-3
			c-3.9-2.5-8.3-3.8-13-3.8c-5.3,0-9.6,1.4-13,4c-3.2,2.6-5.5,5.9-6.9,10c-1.3,3.8-2,7.8-2,12c0,5.2,0.8,10.3,2.5,15.3
			c1.7,5.1,3.9,9.4,6.7,12.7c3.3,3.9,7,5.9,11.2,5.9c4.3,0,8.3-1.7,11.6-5c2.9-2.9,5.5-6.5,7.7-10.9c1.4-2.7,2.6-5.6,3.7-8.5
			c2,16.1,3.1,30.3,3.1,42.6v0.8l-0.5,0.3c-12.2,8.1-23.9,16.9-34.9,26.1c-3.2,2.8-6.5,6-9.8,9.5c-3.4,3.6-6.3,7.7-8.7,12
			c-2.5,4.6-3.8,9.4-3.8,14.4c0,8.2,2.3,14.8,7,19.5c4.7,4.8,10.8,7.2,18.2,7.2c16.4,0,29.5-7.1,39.2-21c9.3-13.5,14-33.1,14-58.1
			c0-3.5-0.1-7.1-0.2-10.7c8.3-5.8,16.8-12.4,25.2-19.6c3.8-3.3,7.3-6.6,10.5-10.1c0,0.3,0,0.6,0,0.8c0,8.4,0.9,15.8,2.6,21.9
			l0.1,0.2c1.7,5.1,4.3,9,7.6,11.6c3.4,2.6,7.2,4,11.3,4c5.3,0,9.8-1.3,13.5-3.8c3.5-2.4,6.6-5.8,9.1-10.2c3.2-5.7,5.5-11.9,7-18.4
			c4.8-0.1,10.6-0.8,17.1-2.2c7-1.5,13.7-3.7,19.9-6.8c1-0.5,2-1.1,3-1.6c-0.1,1.7-0.1,3.5-0.2,5.3c0,8.4,0.9,15.8,2.6,21.9l0.1,0.2
			c1.7,5.1,4.3,9,7.6,11.6c3.4,2.6,7.2,4,11.3,4c5.3,0,9.8-1.3,13.5-3.8c3.5-2.4,6.6-5.8,9.1-10.2c3.2-5.7,5.5-11.9,7-18.4
			c4.8-0.1,10.6-0.8,17.1-2.2c6.9-1.4,13.5-3.7,19.6-6.7c-0.1,1.1-0.1,2.2-0.1,3.3c0,5.5,0.7,10.8,2.1,16c1.4,5.3,3.5,9.8,6.3,13.3
			c3.1,4,7.3,6.2,11.9,6.2l0.2,0c6-0.4,10.9-3.3,14.7-8.8c3.1-4.5,5.6-9.6,7.5-15.3c0.9,3.2,2,6.3,3.2,9.4c1.8,4.4,4,8.5,6.7,12.1
			c2.8,3.8,6.1,6.9,10,9.2c4,2.4,8.8,3.6,14.1,3.6c4.1,0,7.8-0.9,11-2.6c2.9-1.6,5.8-3.9,8.7-6.8c5.7-5.8,11.1-13,16.1-21.3
			c4.9-8.1,9.2-15.6,12.7-22.4c1.9-3.6,3.5-6.5,4.9-8.8c0.5-0.9,0.8-1.9,0.8-2.9C1086.8,680,1085.8,678.2,1084,677.2z M1015,632.5
			c1.4-7.7,3.5-14.7,6.2-20.8c2.6-5.8,5.8-10.5,9.5-13.8c3.5-3.1,7.6-4.6,12.4-4.6c2,0,3.5,0.4,4.3,1.2c1.1,1,1.9,2.3,2.4,4
			c0.5,1.8,0.8,3.8,0.8,6l0,0.5c-0.1,4.7-1.2,9.5-3.3,14.4c-2.1,5-4.7,9.4-7.7,13c-4.2,5-9.1,9.4-14.5,13c-3.9,2.6-8.1,4.7-12.4,6.3
			C1013.1,645.1,1013.8,638.7,1015,632.5z M707.1,682.8c-1.8,4.7-3.8,8.8-5.9,12.2c-1.4,2.2-2.4,3-2.9,3.4c-0.3-0.5-0.9-1.6-1.5-3.8
			c-1.2-4.2-1.8-9.6-1.8-16.1c0-2.7,0.3-5.3,0.8-7.7c0.5-2.1,1.2-3.7,2.1-4.9c0.7-0.8,1.3-1,1.9-1c1.3,0,2.8,0.5,4.5,1.4
			c1.8,0.9,3.9,2.8,6.1,5.5l0.1,0.1l0.1,0.1C709.6,675.5,708.5,679.1,707.1,682.8z M712,790.7c-4.9,10.9-12.8,16.2-24,16.2
			c-2.1,0-3.9-0.5-5.7-1.6c-1.8-1.1-3.3-2.6-4.5-4.6c-1.2-2-1.7-4.6-1.7-7.6c0-3.3,0.8-6.6,2.4-9.8c1.7-3.4,3.8-6.7,6.3-9.6
			c2.6-3,5.2-5.7,7.9-7.9c8.8-7.4,18.2-14.6,27.8-21.3C719.6,764.7,716.8,780.2,712,790.7z M813.5,713.8c-1.2,3.6-2.9,6.7-5.1,9.1
			c-1.8,2-3.5,2.9-5.3,2.9c-1.6,0-2.9-2.2-3.8-4c-1.1-2.3-2.4-7.6-2.7-20.2c2.6,1.1,5.4,2,8.4,2.6c3.5,0.8,7.1,1.3,10.7,1.6
			C815.1,708.6,814.3,711.2,813.5,713.8z M817.2,694.9c-3.5-0.3-6.9-0.8-10.4-1.6c-3.6-0.8-6.9-2.1-9.7-3.8
			c0.4-4.1,1.2-8.2,2.3-12.2c0.2-1,0.4-1.9,0.4-2.8c0-2.9-1.3-4.7-2.4-5.7c-1.1-1-2.4-1.7-3.8-2c2.3-1.5,5.1-2.2,8.5-2.2
			c3,0,5.3,0.7,7.1,2c2,1.5,3.5,3.4,4.6,5.7c1.2,2.6,2.1,5.5,2.6,8.5c0.5,3.2,0.8,6.4,0.8,9.3C817.3,691.5,817.3,693.1,817.2,694.9z
			 M904.5,713.8c-1.2,3.6-2.9,6.7-5.1,9.1c-1.8,2-3.5,2.9-5.3,2.9c-1.6,0-2.9-2.2-3.8-4c-1.1-2.3-2.4-7.6-2.7-20.2
			c2.6,1.1,5.4,2,8.4,2.6c3.5,0.8,7.1,1.3,10.7,1.6C906.1,708.6,905.4,711.2,904.5,713.8z M908.2,694.9c-3.5-0.3-6.9-0.8-10.4-1.6
			c-3.6-0.8-6.9-2.1-9.7-3.8c0.4-4.1,1.2-8.2,2.3-12.2c0.2-1,0.4-1.9,0.4-2.8c0-2.9-1.3-4.7-2.4-5.7c-1.1-1-2.4-1.7-3.8-2
			c2.3-1.5,5.1-2.2,8.5-2.2c3,0,5.3,0.7,7.1,2c2,1.5,3.5,3.4,4.6,5.7c1.2,2.6,2.1,5.5,2.6,8.5c0.5,3.2,0.8,6.4,0.8,9.3
			C908.4,691.5,908.3,693.1,908.2,694.9z M989.6,703.8c-1.9,7-4.5,12.9-7.7,17.6c-0.4,0.5-0.9,1.1-1.5,1.7c0,0-0.1,0.1-0.1,0.1
			c-0.3-0.3-0.7-0.9-1.2-2.1c-1.1-2.9-2-6.4-2.5-10.4c-0.5-4.2-0.8-8.1-0.8-11.5c0-2.9,0.3-6,1-9.3c0.6-3,1.7-5.5,3.3-7.5
			c1.2-1.6,2.9-2.4,5.2-2.5c1.6,0,3.1,0.4,4.6,1.1c1.3,0.6,2.4,1.3,3.4,2.1c0.1,0.6,0.1,1.2,0.2,1.8
			C992.8,690.3,991.5,696.7,989.6,703.8z"/>
	</g>
	<g>
		<path class="st5" d="M652.7,373.6c0,9.9,0.8,84.4,2.1,136.3c-17.3-32.5-70.4-121.1-76.2-133.4c-10.7-22.7-69.6-21.8-69.2,8.7
			c0,5.8,1.2,225.7,4.1,231.5c1.6,16.1,44.5,17.3,45.3-4.5c0-2.1-3.7-84.8-5.8-138.4c30.5,49,84.4,129.7,91.8,146.6
			c7.4,11.9,52.7,4.1,53.1-15.7c0-7.4,2.5-221.6,2.5-227.3C701.3,350.2,652.3,352.6,652.7,373.6z"/>
		<path class="st5" d="M875.9,361.7c-28.8-3.3-95.6-3.3-138,6.6c-28,6.6-23.9,53.1,3.3,49c8.2-0.8,19.8-1.6,24.3-1.6
			c-5.4,95.1,7.8,163.9,11.1,187.4c4.5,33.4,58.9,30.5,59.7-6.2c0.8-21.8,2.1-140,4.1-186.6c0,0,28-1.6,33-2.1
			C899.4,407.4,903.1,365.8,875.9,361.7z"/>
		<path class="st5" d="M1046.1,599.6c-0.4-1.3-0.9-1.9-1.2-2.2c0,0,0,0,0,0c0,0-0.5-0.2-1.8-0.2c-3.9,0-7,1.2-9.9,3.7
			c-3.4,3-6.2,7.2-8.6,12.5c-1.6,3.6-3,7.6-4.1,11.9c6.9,0.8,14,0.3,20.3-1.4c1-1.8,2-3.7,2.8-5.8c1.9-4.5,2.9-8.8,3-13l0-0.4
			C1046.7,602.8,1046.5,601.1,1046.1,599.6z"/>
		<path class="st5" d="M1076.9,522.7c-4.5-2.5-14.8-2.5-19.4-2.5c0-2.9-3.7-94.7-39.1-140c-25.1-32.5-70.4-26.4-90.2,2.5
			c-4.1,7-36.2,43.2-40,150.3c-18.5,1.6-19.4,37.9-0.4,38.3c0,8.7-1.2,30.1,0,40.4c1.2,19.8,40.8,16.1,40.4-3.3
			c0-2.5,3.3-30.9,3.3-42.4c16.1-1.2,35.8-1.2,55.2-3.7c0,4.5,1.6,30.9,2.9,40.4c0.7,4.9,3.1,9.1,6.6,12.5
			c2.4-6.3,5.5-12.1,9.1-17.2c4.3-5.9,9.5-10.7,15.7-14.2c6.4-3.6,13.8-5.5,22.1-5.5c5.3,0,9.9,1.4,13.7,4.2c2,1.5,3.8,3.3,5.2,5.3
			c-0.5-11.1-1.2-26.1-1.2-29.2c2.5,0,14-3.7,18.9-7C1090.5,545,1088.4,528.5,1076.9,522.7z M934.8,527.3
			c3.3-70,16.9-110.8,25.9-110.4c9.1,0.8,16.5,49.4,21,107.5C967.8,525.2,950.9,525.2,934.8,527.3z"/>
		<path class="st5" d="M483,522.7c-4.5-2.5-14.8-2.5-19.4-2.5c0-2.9-3.7-94.7-39.1-140c-25.1-32.5-70.4-26.4-90.2,2.5
			c-4.1,7-36.2,43.2-39.9,150.3c-18.5,1.6-19.4,37.9-0.4,38.3c0,8.7-1.2,30.1,0,40.4c0.4,6.3,4.7,10.2,10.3,12
			c3.2-3.8,6.9-6.9,11-9.3c5.4-3.1,11.8-4.7,19-4.9c0-0.4,0.1-0.7,0-1.1c0-2.5,3.3-30.9,3.3-42.4c16.1-1.2,35.8-1.2,55.2-3.7
			c0,4.5,1.6,30.9,2.9,40.4c4.1,30.5,73.7,31.7,72.9-3.3c0-4.5-1.6-36.2-1.6-40.8c2.5,0,14-3.7,18.9-7
			C496.6,545,494.5,528.5,483,522.7z M340.9,527.3c3.3-70,16.9-110.8,25.9-110.4c9.1,0.8,16.5,49.4,21,107.5
			C373.8,525.2,357,525.2,340.9,527.3z"/>
		<path class="st5" d="M150.6,559.4c-4.5-27.2-46.5-26.4-46.5,3.3c0,15.3,6.3,34,23.1,47.2c1.8-3.8,3.9-7.3,6.3-10.6
			c4.3-5.9,9.5-10.7,15.7-14.2c5.3-3,11.4-4.8,18-5.3C159.4,577.7,152.7,571.2,150.6,559.4z"/>
		<path class="st5" d="M174.2,601c-0.4-1.4-0.9-1.9-1.2-2.3c0,0,0,0,0,0c0,0-0.5-0.2-1.8-0.2c-3.9,0-7,1.2-9.9,3.7
			c-3.4,3-6.2,7.2-8.6,12.5c-1,2.2-1.9,4.5-2.7,7c5.6,1.8,11.8,3.1,18.7,3.9c1.1-1.9,2.2-4,3.1-6.2c1.9-4.5,2.9-8.8,3-13l0-0.4
			C174.8,604.1,174.6,602.5,174.2,601z"/>
		<path class="st5" d="M218.6,435.4c7.4,24.3,48.2,11.9,45.3-14.8c-10.7-86.9-172.2-86.9-179.6,15.2c-4.5,63.8,54.8,80.7,68.8,86.1
			c20.2,6.6,48.2,16.9,43.7,39.1c-2,10.8-10.5,17.7-19.7,19.2c2.9,0.7,5.6,1.9,7.9,3.6c3.6,2.6,6.3,6.1,8,10.2
			c1.6,3.7,2.4,7.8,2.4,12.1v0.4c-0.2,6.7-1.9,13.3-5,19.8c23.2-1.6,64.4-11.9,72.3-61.6c7.4-51.5-36.2-76.6-58.5-86.5
			c-18.5-8.2-48.2-21.4-44.9-49C162.1,405.8,203.3,386.8,218.6,435.4z"/>
	</g>
</g>
</svg>
