<?xml version="1.0" encoding="utf-8"?>
<!-- Generator: Adobe Illustrator 23.0.3, SVG Export Plug-In . SVG Version: 6.00 Build 0)  -->
<svg version="1.1" id="Layer_1" xmlns="http://www.w3.org/2000/svg" xmlns:xlink="http://www.w3.org/1999/xlink" x="0px" y="0px"
	 viewBox="0 0 1133.9 1133.9" style="enable-background:new 0 0 1133.9 1133.9;" xml:space="preserve">
<style type="text/css">
	.st0{fill:#1E2121;}
	.st1{fill:#A81F26;}
	.st2{fill:#F2F1F2;}
	.st3{fill:#DD353A;}
	.st4{fill:#CFCFCE;}
	.st5{fill:#1D2121;}
	.st6{fill:none;}
	.st7{fill:#AA1F23;}
	.st8{fill:#FDFEFE;}
	.st9{fill:#EE742C;}
	.st10{fill:#BA5234;}
	.st11{fill:#ED1C24;}
	.st12{fill:#C42C3A;}
	.st13{fill:#058743;}
	.st14{fill:#0F4D70;}
	.st15{fill-rule:evenodd;clip-rule:evenodd;fill:#C42C3A;}
	.st16{fill-rule:evenodd;clip-rule:evenodd;fill:#1E2121;}
	.st17{fill:#E8E8E8;}
	.st18{fill:#186634;}
	.st19{fill:#BF2730;}
	.st20{fill:#B47A48;}
	.st21{fill:#3E1E14;}
	.st22{fill:#DBAD5D;}
	.st23{fill:#B84947;}
	.st24{fill:#C3976E;}
	.st25{fill:#9D2023;}
	.st26{fill:#3C2517;}
	.st27{fill:#4A3A31;}
	.st28{fill:#EDAD4F;}
	.st29{fill:#F8C018;}
</style>
<g>
	<g>
		<path class="st0" d="M338.8,376c32.7,0,70.4,2.6,89.8,6.1c0.9,0.2,1.8,0.3,2.7,0.3c9.3,0,15.7-9.5,17.6-26.2
			c0.9-7.9,1.8-26.6-9.3-29.5c-8.8-2.6-67.1-12-129.2-12c-26.1,0-49.7,1.7-70.1,5c-14.1,2.3-25.8,13.4-27.9,26.2l-0.1,0.6v0.6
			c0,0.5-0.2,3.4-0.4,6.7c-5.7,102-11.5,282.7,13.4,347.7l0.1,0.4l0.2,0.3c10.7,21.4,31.3,24.7,48.1,25.3l0.1,0h0.1
			c11.3,0,44.1-2.6,78.7-8.2c44.1-7.1,74.4-16.2,90.1-27c2-1.1,6.3-4.3,6.4-15.6c0-5.2-0.8-11.4-2.3-17.4
			c-4.8-19.1-12.6-23.1-18.2-23.1c-1.3,0-2.5,0.2-3.7,0.6c-76.2,20.4-117.8,21.9-128.8,21.9c-4.9,0-7.6-0.3-8.7-0.5
			c-1-1.7-4-8.1-4.9-28.9c0,0,0,0,0,0c-1-9.7-1.1-29.6-0.8-48.9c8.8-0.5,22.3-1.4,37.5-2.5c9.9-0.7,20.5-1.5,31-2.2
			c24.1-1.8,49.1-3.6,52.9-3.6c0.1,0,0.3,0,0.3,0c4.7,0,12.7-2.5,13.9-19.5c0.5-7-0.1-15.7-1.7-23.1c-1.5-7-4.5-16.5-12.5-17.7
			l-0.6-0.1l-0.6,0c-5.8,0-29.3,1.3-56.6,2.9c-9.2,0.5-18.7,1-27.8,1.5c-13.3,0.7-25.6,1.4-34.4,1.7c1.1-43,3-106.9,5.3-139.1
			C301,377,318.2,376,338.8,376z"/>
		<path class="st0" d="M996.2,326.8c-8.8-2.6-67.1-12-129.2-12c-26.1,0-49.7,1.7-70.1,5c-14.1,2.3-25.8,13.4-28,26.2l-0.1,0.6v0.6
			c0,0.6-0.2,3.7-0.4,7.7c-5.1,102.6-10.9,285.8,6.8,359.4l0.1,0.6l0.2,0.6c4.7,11.2,23,12.1,28.4,12.1c5.8,0,20.2-0.9,27.9-8.9
			c3.2-3.3,4.7-7.3,4.6-11.6c-0.3-8.4,0.3-27.1,0.9-48.8c0.4-14.2,0.9-30,1.2-44.9c0,0,0.1,0,0.1,0l1-31.3
			c8.9-0.1,23.5-0.4,39.8-0.8c11.5-0.2,23.9-0.5,35.8-0.8c27.6-0.6,53.7-1.2,57.7-1.2c0.1,0,0.2,0,0.3,0c10.7,0,13.2-12.4,13.8-19.8
			c0.6-7.3-0.1-16.2-1.6-23.9c-1.5-7.3-4.4-17.1-12.3-18.3l-0.6-0.1h-0.6c-5.5,0-32,0.1-60.1,0.3c-11.2,0.1-22.9,0.1-33.8,0.2
			c-14.5,0.1-27.5,0.1-36.1,0.1c1.7-41.7,4.6-106,7.1-138.3c12.2-1.9,28.9-2.9,48.9-2.9c31.2,0,67.8,2.6,87.2,6.1
			c0.9,0.2,1.8,0.3,2.7,0.3c9.3,0,15.7-9.6,17.6-26.4C1006.3,348.6,1007.3,329.7,996.2,326.8z"/>
	</g>
	<g>
		<path class="st13" d="M476.1,698.1L476.1,698.1c2.9,9,9.1,18.6,21.7,24c16,6.4,36.7,6.9,60,1.4c23.2-5.5,40-7.2,62.4-0.8
			c16.8,5.6,35.7,6.4,54.4,2c19.5-4.6,37.3-14.3,50.9-27.7c5-5,8.8-10.1,11.6-15.1c0.1-0.1,0.1-0.3,0.2-0.4c0.9-1.7,1.8-3.4,2.5-5.1
			c0.2-0.4,0.3-0.7,0.4-1.1c1.2-2.9,2.1-5.7,2.7-8.5c0.1-0.6,0.3-1.2,0.4-1.8c3-15.1-0.8-28-2.9-34.2c-4.1-10.6-11-19.6-20.1-24.7
			c-10.2-5.8-22.9-7.7-33.8-5.1c-7.5,1.8-13.2,5.5-15.5,10c-0.9,1.8-1.2,3.8-1,5.8c1.7,0,3.4,0,5.3,0c2.1-3.4,5.6-4.7,7.7-5.2
			c5.3-1.2,11.4,0.2,15.6,3.5c2.5,2,5.3,5.6,5,11.3c-0.7,10.5-9.4,18.8-22.7,22c-8.4,2-17.8,1.6-27.2-1c-11.6-3.2-19.8-5.6-27.2-7.8
			c-17.5-5.3-51.1-8.9-54.3-76.1c-13.2-6.4-33.7-12.9-56.5-7.6c-5.5,1.3-10.8,3.2-15.9,5.7c-6.7,2.7-15.4,43.5-20.7,71
			c-0.5,3-1.3,7.1-2.4,12.6c-0.6,3.4-1.2,6.4-1.5,8.4c-1.4,8.2-2.1,15.8-2.1,22.8c0,1.2,0,3,0.2,5.2
			C473.6,687.7,474.6,693.2,476.1,698.1z"/>
		<g>
			<path class="st12" d="M686.8,604.4c-1-1.8-2.8-4-4.9-5.1c-2.2-1.1-4.7-1.6-7-1.4c-2.3,0.3-4.5,0.9-6.2,2.2c-1.8,1-3.1,2.8-4,4.2
				c-0.3,0.8-0.7,1.6-1,2.3c-0.2,0.8-0.4,1.6-0.5,2.2c0,0.7-0.1,1.3-0.1,2c0.1,0.6,0.2,1,0.2,1.6v0.1c0.1,0.3,0.2,0.6,0.2,0.9v0.1
				c0.1,0.3,0.1,0.5,0.2,0.8c0.1,0.1,0.1,0.2,0.1,0.3c0.1,0.1,0.1,0.1,0.1,0.1c0,0.3,0.1,0.5,0.2,0.7c0.1,0.2,0.2,0.5,0.5,0.7
				c0.1,0.1,0.2,0.2,0.2,0.4c0.1,0.1,0.1,0.3,0.2,0.4v0.1c0.2,0.3,0.5,0.7,0.8,1c0.3,0.3,0.7,0.8,1.2,1.2c0.5,0.3,1,0.7,1.6,1.1
				c0.6,0.4,1.3,0.7,2,1c0.7,0.3,1.6,0.5,2.4,0.6c1.8,0.2,3.8,0.3,5.9-0.4c2.1-0.6,3.8-1.7,5.6-3.5c1.6-1.7,2.7-3.9,3.3-6.3
				C688.2,609.3,687.8,606.9,686.8,604.4z"/>
			<path class="st12" d="M596.7,613.5c-9.1-12.4-7.5-30.1-6.2-44.4c0.6-6.5,1.5-13.3,0.8-17.5c0,0,0,0,0,0c0,0,0,0,0-0.1
				c0,0,0-0.1,0-0.1c-0.1-1.6-0.7-2.7-1.6-3.4c-0.1-0.1-0.1-0.1-0.2-0.2c-0.8-0.7-1.8-1.1-2.8-1.3c-0.9-0.2-2.1-0.3-3.1-0.3
				c-0.4,0-1.3,0-2.6,0c0,0,0,0,0,0c-7.5,0-28.9,0-47.2,0l-0.2,0l-0.2,0c-14.2,0-26.5,0-28.8,0c-8.8,0-16.6-0.1-22.7-0.1
				c-6.5,0-6,8.8-6.3,22c-0.1,2.5-0.1,5.2-0.3,8.3c-1.2,30.8-9.1,51.1-9.2,51.2l-0.8,2.1l2.2-0.4c5.8-1,11.5-2.8,16.7-5.4
				c16.9-8.3,26.2-22.1,29.9-28.8c1,6.9,3,21.6,5.1,35.2l0.2,1.7l1.6-0.8c22.5-11.4,32.2-33.7,34.9-41.1c4.4,5.7,18,21.1,39.3,25.5
				l3.4,0.7L596.7,613.5z"/>
			<path class="st12" d="M533.9,546.3c-0.1,0-0.2,0-0.3,0l0.2,0L533.9,546.3z"/>
		</g>
		<path class="st13" d="M580.6,314.8h-46.9h-46.9l5.8,231.4l40.9,0.1c0.1,0,0.3,0,0.4,0l40.9-0.1L580.6,314.8z"/>
		<g>
			<polygon class="st12" points="491,482.9 576.4,482.9 576.9,461.7 490.5,461.7 			"/>
			<polygon class="st12" points="492.1,525.1 575.4,525.1 575.9,504 491.5,504 			"/>
			<polygon class="st12" points="490,440.6 577.5,440.6 578,419.4 489.4,419.4 			"/>
			<polygon class="st12" points="487.3,334.9 487.8,356 579.6,356 580.1,334.9 			"/>
			<polygon class="st12" points="488.9,398.3 578.5,398.3 579.1,377.2 488.4,377.2 			"/>
		</g>
	</g>
	<g>
		<path class="st12" d="M352.7,248.8c-86.2-93.7-193.3-60.4-249.3-18.7C-7.1,324.8,61.7,425.2,112.2,369c1.9-4.3-14.3-9.7-14.3-9.7
			c-19.1,4.1-32.4-33.5,0-51.4c43.6-18.8,64.3,30,58.7,70.8l6.9,1.5c13.5-2.5,29-1.5,43.6,7.6c1,0.6,2.2-0.3,1.9-1.5
			c-8.9-28-12.5-44.6-19.2-53.9c20.3-1.1,37.8-0.5,58.1,17.6c0.9,0.8,2.3,0,2.1-1.2c-4.9-22.2-10.5-46.7-9.7-59.7
			c0.1-0.8,0.9-1.4,1.7-1.1c17,6.4,31.5,10.4,53.6,35.5c0.8,0.9,2.3,0.3,2.2-0.9c-1.2-25-1.5-44.4-5.4-52.9c-0.5-1,0.5-2.1,1.6-1.7
			c15.5,5.4,25.6,8.4,42.9,31c0.8,1,2.3,0.4,2.2-0.9c-1.4-21.1,6.1-38,13.3-45L352.7,248.8z"/>
		<circle class="st28" cx="114.1" cy="352" r="18.1"/>
		<path class="st13" d="M352.7,248.8c6.9-5.2,14.4-10.9,26.9-15.1c0.9-0.3,1.9,0.5,1.6,1.5c-3.9,14.7-14.3,47.2,3.2,75.3
			c5.7,9.2,4.3,15.3-6.8,22.7c-11.1,7.4-110.7,58.4-155.8,107.3c0,0-0.1,0.1-0.1,0.1c-5.9,4.8-11.4,9.1-16.7,4.5
			c-5.2-4.6-26.3-37-76.2-50c-0.9-0.2-1.3-1.4-0.6-2.1c9.3-9.1,45.7-27.9,77.5-8.1c1,0.6,2.2-0.3,1.9-1.5
			c-8.9-28-13.4-42.6-20.2-51.9c-0.6-0.8-0.1-1.9,0.9-2c20.3-1.1,37.8-0.5,58.1,17.6c0.9,0.8,2.3,0,2.1-1.2
			c-4.9-22.2-10.5-46.7-9.7-59.7c0.1-0.8,0.9-1.4,1.7-1.1c17,6.4,31.5,10.4,53.6,35.5c0.8,0.9,2.3,0.3,2.2-0.9
			c-1.2-25-1.5-44.4-5.4-52.9c-0.5-1,0.5-2.1,1.6-1.7c15.5,5.4,25.6,8.4,42.9,31c0.8,1,2.3,0.4,2.2-0.9
			C336.1,272.5,345,254.6,352.7,248.8z"/>
	</g>
	<g>
		<path class="st0" d="M291.2,752.7c-9.4-3.8-19.3-5.8-29.5-5.8c-11.5,0-22.2,2.2-31.8,6.5c-9.7,4.4-17.6,10.8-23.6,19.2
			c-6,8.4-9.3,18.5-9.9,29.9c-0.4,6.8,1,13.5,4.2,20.1c3.1,6.4,7.5,12.2,12.9,17c3.9,3.5,12.4,8.8,25.9,16c15,8,26.9,15.4,35.4,21.9
			c7.9,6,11.9,12.1,11.9,18.1c0,6.4-2,11.9-6.1,17c-4,4.9-9.5,7.2-16.9,7.2c-3,0-6.7-0.7-11-2.2c-4.1-1.4-7.8-4-11.1-7.6
			c-2.6-2.9-3.9-6.7-4.1-11.5l0.8,0c0.1,0,0.2,0,0.3,0c3.7,0,6.7-2.8,7-6.4l0.1-1.4c0.2-1.9-0.5-3.8-1.7-5.3c-1.3-1.4-3.1-2.3-5-2.4
			l-25.3-1c-0.1,0-0.2,0-0.3,0c-1.9,0-3.7,0.8-5.1,2.1c-1.3,1.4-2,3.2-2,5.1l0,1.5c0.1,3.8,3.2,6.9,7.1,6.9
			c1.5,11.9,6.4,21.4,14.7,28.3c8.8,7.3,19.4,11.4,31.5,11.9c2.1,0.1,4.1,0.1,6,0.1c33.4,0,51.7-14.1,54.3-42
			c0.6-6.6-1.1-12.8-5.1-18.4c-3.8-5.2-8.7-10-14.7-14.2c-5.8-4-13.9-9-24.1-15c-10.8-6.4-19.5-11.9-25.7-16.4
			c-6.1-4.3-11.4-9.4-15.7-15.2c-4.2-5.5-6.2-11.5-6.2-18.3c0-10.7,3.2-18.3,9.9-23.2c6.8-5,15-7.6,24.3-7.6
			c6.1,0,13.3,1.2,21.2,3.6c4.6,1.4,8.6,3.5,11.9,6.2c-2.3,0.6-5,2-7.3,5.2c-2.5,3.4-3.8,6.9-3.8,10.5c0,8.1,3.6,17.7,20.8,17.7
			c4.3,0,8.3-1.7,12-4.9c3.8-3.3,5.8-7.7,6-13l0-0.1v-0.9c0-8.5-3-16.3-9.1-23.3C308.5,762,300.7,756.5,291.2,752.7z"/>
		<path class="st0" d="M532.2,903.5c-0.8-0.2-1.6-0.3-2.4-0.3c-2.6,0-5.3,0.9-7.9,2.6c-3.5,2.4-5.4,5.7-5.5,9.8l-16.9-11.4
			c10.1-15.2,16.3-32,18.5-50c0.6-5.4,0.8-10.7,0.8-15.6c0-16.7-3.2-31.7-9.6-44.5c-6.4-12.9-15.8-23.4-27.9-31.2
			c-12-7.7-26.4-12.3-42.7-13.7l-0.1,0l-6.7-0.3l-0.1,0c-14.2,0-27.3,2.5-38.8,7.3c-11.6,4.9-21.6,12-29.8,21.2
			c-9.6,10.8-17.1,23-22.2,36.5c-5.1,13.4-7.7,27.3-7.7,41.3c0,19.9,5.1,38.2,15.2,54.3c6.9,11.2,17.2,20,30.4,26.3
			c13.1,6.2,27.2,9.3,41.8,9.3c12.5,0,24.6-2.4,35.9-7c10.5-4.4,19.4-10.6,26.6-18.7c1.3,0.8,3.1,2,5.7,3.8
			c4.1,2.8,10.7,6.7,19.4,11.5c7.9,4.4,14.5,6.5,20.1,6.5c6.1,0,14.1-2.5,17.1-14.2l0-0.1c0.8-3.6,1.2-6.1,1.2-7.6
			C546.5,913.4,544,905.7,532.2,903.5z M490.6,865c-2.8,9.5-6.5,18.7-11.2,27.2c-1-0.7-2.2-1.5-3.7-2.4c-3.2-2.1-6.8-4.1-10.5-6.1
			c-4.2-2.2-7.6-3.3-10.6-3.3c-3.8,0-7.2,1.1-9.9,3.3c-2.9,2.3-4.5,5.5-4.5,9.2c0,3.7,1.3,7,3.8,9.8c2.6,2.9,5.7,4.3,9.2,4.3
			c1.7,0,4.1-0.5,6.4-2.5l7.7,4.5c-5.4,6.5-12.3,11.1-20.4,13.6c-8,2.5-16.2,3.7-24.3,3.7c-1.5,0-3,0-4.5-0.1
			c-13.7-0.7-23.6-6.4-30.3-17.4c-6.9-11.3-10.4-25.6-10.4-42.6c0-15,2.6-30.1,7.6-45c5-14.8,12-26.9,20.8-36.1
			c8.1-8.5,16.9-12.6,26.6-12.6c0.6,0,1.1,0,1.7,0c20.9,1.1,36.4,7.3,46.2,18.7c9.8,11.4,14.8,25.9,14.8,43
			C495.2,844.1,493.7,854.5,490.6,865z"/>
		<path class="st0" d="M678.4,922h-6.3V768.2l4.7,0.1c1.9,0,3.8-0.8,5.1-2.2c1.3-1.4,2-3.3,1.9-5.2l-0.1-3c-0.2-3.7-3.3-6.7-7-6.7
			l-43.9-0.2c-1.9,0-3.8,0.8-5.1,2.2c-1.3,1.4-2,3.3-1.9,5.2l0.1,2.5c0.2,3.7,3.2,6.6,6.9,6.7l7.8,0.2c0.1,4.4,0.2,11.6,0.2,21.5
			v18.3c0,18-0.6,33.4-1.7,45.8c-1.1,12.1-3.9,22.9-8.4,32.1c-4.3,8.6-10.5,13.2-19.1,14l-3.7,0.3c-14.2,0-23.7-6.9-29-20.9
			c-5.6-14.8-8.4-34.9-8.4-59.6c0-8.3,0.4-19.5,1.1-33.5l0.2-4.9l7.1-0.1c3.8-0.1,6.9-3.2,6.9-7.1v-3.4c0-3.9-3.2-7.1-7.1-7.1H542
			c-3.8,0-6.9,3-7.1,6.9l-0.1,1.8c-0.1,3.9,3,7.1,6.8,7.3l1.8,0.1c-0.3,11-0.5,19.3-0.5,24.8c0,24.3,1.8,45.1,5.5,61.7
			c3.7,17,10.7,30.6,20.8,40.5c10.3,10.1,24.7,15.2,43.1,15.2c10.8,0,20.3-3.3,28.3-9.7V922h-3.5c-3.9,0-7.1,3.2-7.1,7.1v3.3
			c0,3.9,3.2,7.1,7.1,7.1h41.1c3.9,0,7.1-3.2,7.1-7.1v-3.3C685.4,925.2,682.3,922,678.4,922z"/>
		<path class="st0" d="M865.2,915.8l-5.7,0.1l-15.4-44.5c-16.6-49.3-31.7-92.1-44.7-127.1c-0.9-2.5-3.2-4.3-5.8-4.6
			c-3.3-0.4-6.3-0.6-9-0.6l-6.5,0.2c-2.9,0.1-5.4,1.9-6.4,4.6c-17.8,48.8-37.4,104.8-58.4,166.5l-8,0.3c-3.7,0.1-6.7,3.2-6.8,6.9
			l-0.1,3.1c0,1.9,0.7,3.7,2,5.1c1.3,1.4,3.1,2.1,5.1,2.1l37.7-0.5c3.8,0,7-3.2,7-7.1v-3.6c0-3.1-2-5.7-4.8-6.7l7.1-21.5
			c0.1-0.4,0.5-0.7,0.9-0.7l18.3-0.5c11.3-0.4,29.3-0.7,53.8-1.1c0.4,0,0.8,0.3,0.9,0.7c4.1,10.7,7.6,20.4,10.4,28.9l-0.5,0
			c-3.7,0.1-6.7,3.1-6.8,6.9l-0.1,2.9c0,1.9,0.7,3.7,2,5.1c1.3,1.4,3.1,2.1,5.1,2.1h28.6c3.9,0,7-3,7.1-6.9l0.1-3.2
			c0-1.9-0.7-3.7-2-5.1C869,916.5,867.2,915.8,865.2,915.8z M762.4,861.4c9.1-26.2,18.8-54,29.1-82.7c3.4,9.3,7,19.7,10.8,31
			c4.8,14.4,8.2,24.5,10.1,30c0.7,2,3,9.1,7,21.3C793.3,861,774.1,861.1,762.4,861.4z"/>
		<path class="st0" d="M1009.5,728.8h1.3c3.9,0,7.1-3.2,7.1-7.1v-10.5c0-3.9-3.2-7.1-7.1-7.1h-40c-3.9,0-7.1,3.2-7.1,7.1v10.5
			c0,3.9,3.2,7.1,7.1,7.1h7.4v39.7c-12.8-6.3-25.6-9.4-38.1-9.4c-14.4,0-27.8,3.9-39.8,11.7c-12,7.7-21.6,18.6-28.5,32.1
			c-6.9,13.5-10.5,28.8-10.5,45.5c0,4.7,0.3,9.7,0.9,14.8c1.5,12.6,5.6,23.9,12,33.5c6.4,9.6,14.6,17.1,24.1,22.2
			c9.6,5.1,19.8,7.7,30.4,7.7c9.9,0,19.7-2.5,29.2-7.4c7.2-3.8,13.8-8.9,19.8-15.4l0.1,12.2c-2.8,0.5-5,2.9-5,5.9v11.6
			c0,3.9,3.2,7.1,7.1,7.1h30.8c3.9,0,7.1-3.2,7.1-7.1V923c0-3.9-3.2-7.1-7.1-7.1h-1.5v-64.4C1009.3,795,1009.4,753.7,1009.5,728.8z
			 M978.3,863.6c-3.7,8.5-9.3,16.5-16.6,23.9c-7.4,7.5-14.2,12.3-20.2,14.4c-3.6,1.2-7.2,1.8-11,1.8c-8.9,0-16.2-3.7-22.2-11.5
			c-6.2-8-10.3-18.9-12.3-32.6c-0.7-4.8-1.1-10-1.1-15.4c0-12.6,2.2-24,6.7-33.9c4.4-9.7,10.3-17.3,17.7-22.7
			c7.3-5.2,15.3-7.9,23.9-7.9c12.8,0,25.1,5.7,36.6,16.8L978.3,863.6z"/>
	</g>
</g>
</svg>
