<?xml version="1.0" encoding="utf-8"?>
<!-- Generator: Adobe Illustrator 23.0.3, SVG Export Plug-In . SVG Version: 6.00 Build 0)  -->
<svg version="1.1" id="Layer_1" xmlns="http://www.w3.org/2000/svg" xmlns:xlink="http://www.w3.org/1999/xlink" x="0px" y="0px"
	 viewBox="0 0 1133.9 1133.9" style="enable-background:new 0 0 1133.9 1133.9;" xml:space="preserve">
<style type="text/css">
	.st0{fill:#1E2121;}
	.st1{fill:#A81F26;}
	.st2{fill:#F2F1F2;}
	.st3{fill:#DD353A;}
	.st4{fill:#CFCFCE;}
	.st5{fill:#1D2121;}
	.st6{fill:none;}
	.st7{fill:#AA1F23;}
	.st8{fill:#FDFEFE;}
	.st9{fill:#EE742C;}
	.st10{fill:#BA5234;}
	.st11{fill:#ED1C24;}
	.st12{fill:#C42C3A;}
	.st13{fill:#058743;}
	.st14{fill:#0F4D70;}
	.st15{fill-rule:evenodd;clip-rule:evenodd;fill:#C42C3A;}
	.st16{fill-rule:evenodd;clip-rule:evenodd;fill:#1E2121;}
	.st17{fill:#E8E8E8;}
	.st18{fill:#186634;}
	.st19{fill:#BF2730;}
	.st20{fill:#B47A48;}
	.st21{fill:#3E1E14;}
	.st22{fill:#DBAD5D;}
	.st23{fill:#B84947;}
	.st24{fill:#C3976E;}
	.st25{fill:#9D2023;}
	.st26{fill:#3C2517;}
	.st27{fill:#4A3A31;}
	.st28{fill:#EDAD4F;}
	.st29{fill:#F8C018;}
</style>
<g>
	<path class="st6" d="M766.3,214.5c-0.5-2.8-3.4-5.2-6.2-5.2c-123.6-1.1-247.2-2.2-370.7-3.2c-1.4,0-2.6,0.4-3.5,1
		c-0.1,0.1-0.3,0.2-0.4,0.2c0,0,0,0-0.1,0c-1.6,1-2.9,2.7-2.9,5.3c-3.1,96.1-2.1,192,5.7,287.9c0.3,3.9,2.4,6.6,6.4,7
		c120.8,13.9,242.3,14,363.1,0.9c3-0.3,4.8-3.6,5.1-6.3C773.2,406.3,782.7,310,766.3,214.5z"/>
	<path class="st6" d="M766.3,214.5c-0.5-2.8-3.4-5.2-6.2-5.2c-123.6-1.1-247.2-2.2-370.7-3.2c-1.4,0-2.6,0.4-3.5,1
		c-0.1,0.1-0.3,0.2-0.4,0.2c0,0,0,0-0.1,0c-1.6,1-2.9,2.7-2.9,5.3c-3.1,96.1-2.1,192,5.7,287.9c0.3,3.9,2.4,6.6,6.4,7
		c120.8,13.9,242.3,14,363.1,0.9c3-0.3,4.8-3.6,5.1-6.3C773.2,406.3,782.7,310,766.3,214.5z"/>
	<path class="st6" d="M1015.3,360.4c0-2-1.7-4-3.7-4.3c-85.6-16.3-171.1-32.6-256.7-48.9c-1-0.2-1.8-0.1-2.6,0.2
		c-0.1,0-0.2,0.1-0.3,0.1c0,0,0,0,0,0c-1.3,0.5-2.3,1.5-2.7,3.2c-14,65.2-25.1,130.7-31.4,197.1c-0.3,2.7,0.9,4.8,3.6,5.6
		c82,24.7,166.3,40.1,251.7,46.3c2.1,0.2,3.8-1.9,4.3-3.7C996.5,492.1,1015,427.6,1015.3,360.4z"/>
	<path class="st6" d="M1015.3,360.4c0-2-1.7-4-3.7-4.3c-85.6-16.3-171.1-32.6-256.7-48.9c-1-0.2-1.8-0.1-2.6,0.2
		c-0.1,0-0.2,0.1-0.3,0.1c0,0,0,0,0,0c-1.3,0.5-2.3,1.5-2.7,3.2c-14,65.2-25.1,130.7-31.4,197.1c-0.3,2.7,0.9,4.8,3.6,5.6
		c82,24.7,166.3,40.1,251.7,46.3c2.1,0.2,3.8-1.9,4.3-3.7C996.5,492.1,1015,427.6,1015.3,360.4z"/>
	<path class="st6" d="M178.6,556c0.5,1.8,2.2,3.8,4.3,3.7c85.4-6.2,169.7-21.7,251.7-46.3c2.7-0.8,3.8-2.9,3.6-5.6
		c-6.4-66.4-17.4-131.9-31.4-197.1c-0.4-1.7-1.4-2.8-2.7-3.2c0,0,0,0,0,0c-0.1,0-0.2-0.1-0.3-0.1c-0.7-0.3-1.6-0.4-2.6-0.2
		c-85.6,16.3-171.1,32.6-256.7,48.9c-1.9,0.4-3.7,2.3-3.7,4.3C141.2,427.6,159.6,492.1,178.6,556z"/>
	<path class="st6" d="M178.6,556c0.5,1.8,2.2,3.8,4.3,3.7c85.4-6.2,169.7-21.7,251.7-46.3c2.7-0.8,3.8-2.9,3.6-5.6
		c-6.4-66.4-17.4-131.9-31.4-197.1c-0.4-1.7-1.4-2.8-2.7-3.2c0,0,0,0,0,0c-0.1,0-0.2-0.1-0.3-0.1c-0.7-0.3-1.6-0.4-2.6-0.2
		c-85.6,16.3-171.1,32.6-256.7,48.9c-1.9,0.4-3.7,2.3-3.7,4.3C141.2,427.6,159.6,492.1,178.6,556z"/>
	<g>
		<path class="st12" d="M478.7,195.2c4.9,1.4,9.8,2.7,14.8,3.9c12.1,2.9,24.5,4.3,37,4.4l0.2,0c1.7,0.1,7.2,0.1,9.1,0.1l69.7,0.6
			l0.2,0c1.7,0.1,7.3,0.1,9.1,0.1l0,0c5,0,10.1-0.4,15-1.4c20-3.9,40.8-10.2,60.7-20.3c0.5-0.3,1.1-0.5,1.6-0.8
			c0.1-0.1,0.2-0.1,0.3-0.2l0,0c17-9,29.6-25.7,29.8-48.4c0.2-25.3-17.4-44.8-37.8-51.5c-22-7.2-44.5,0.8-62.3,16.2
			c-10.2,8.8-18.7,19.8-26.3,31.4c-5.3,8.1-10,16.7-14.6,25.4c-1.3,2.4-3.2,7.3-5.3,11.5c-6.9-14.3-17.8-27.5-26.7-35.9
			c-22.1-21-51-35.4-80.4-34.6c-23.5,0.6-47.9,14.5-51.6,43.2C416.1,177.4,452.8,187.7,478.7,195.2z M634.6,127.7
			c12.1-14,28.6-25.3,46.4-20.6c22.3,5.9,33,36.5,9.5,51.6c-16.3,10.4-40.1,10.8-58.1,14.2c-9.1,1.7-18.3,3.4-27.5,5.2
			C613.7,160.5,622,142.3,634.6,127.7z M450.7,137.4c5-10.1,17.8-10.4,26.5-10.3c14,0.2,28.3,4.8,41.1,11.1
			c13.9,6.9,26.9,17.2,37.8,28.9c2.8,3,5.3,6.3,7.8,9.7c-13.3,1.1-32.3-3.5-40.8-4.7c-18.6-2.6-39.3-6.3-56.7-14.4
			C458.6,154.1,444.6,149.5,450.7,137.4z"/>
		<path class="st12" d="M1011.6,356c-32.6-6.2-65.3-12.4-97.9-18.7c-1.1-0.2-2.1,0.5-2.3,1.6l-12.5,71.8c-0.2,1.1,0.5,2.1,1.6,2.3
			l105.9,20.6c1.1,0.2,2.2-0.5,2.3-1.6c4-23.6,6.5-47.5,6.6-71.7C1015.3,358.4,1013.6,356.4,1011.6,356z"/>
		<path class="st12" d="M852.6,325.7c-32.6-6.2-65.1-12.4-97.7-18.6c-1-0.2-1.8-0.1-2.6,0.2c-0.1,0-0.2,0.1-0.3,0.1c0,0,0,0,0,0
			c-1.3,0.5-2.3,1.5-2.7,3.2c-4.9,22.7-9.4,45.5-13.5,68.4c-0.2,1.1,0.5,2.1,1.6,2.3l98.8,19.2c1.1,0.2,2.1-0.5,2.3-1.5l15.7-70.9
			C854.4,327,853.7,325.9,852.6,325.7z"/>
		<path class="st12" d="M825.9,446.7l-96-19.1c-1.1-0.2-2.2,0.5-2.4,1.7c-3.9,26-7.1,52.2-9.7,78.4c-0.3,2.7,0.9,4.8,3.6,5.6
			c28,8.4,56.4,15.8,84.9,22.1c1.1,0.2,2.1-0.4,2.4-1.5l18.7-84.8C827.7,448,827,447,825.9,446.7z"/>
		<path class="st12" d="M996.4,480.6L892.4,460c-1.1-0.2-2.2,0.5-2.3,1.6l-14.7,84.8c-0.2,1.1,0.6,2.1,1.7,2.3
			c31.9,5,63.9,8.6,96.2,11c2.1,0.2,3.8-1.9,4.3-3.7c7.2-24.2,14.3-48.5,20.4-73C998.2,481.9,997.5,480.8,996.4,480.6z"/>
		<path class="st12" d="M257.2,410.8L244.8,339c-0.2-1.1-1.2-1.8-2.3-1.6c-32.6,6.2-65.3,12.4-97.9,18.7c-1.9,0.4-3.7,2.3-3.7,4.3
			c0.1,24.2,2.6,48.1,6.6,71.7c0.2,1.1,1.2,1.8,2.3,1.6l105.9-20.6C256.7,412.8,257.4,411.8,257.2,410.8z"/>
		<path class="st12" d="M420.3,379c-4.1-22.8-8.6-45.6-13.5-68.4c-0.4-1.7-1.4-2.8-2.7-3.2c0,0,0,0,0,0c-0.1,0-0.2-0.1-0.3-0.1
			c-0.7-0.3-1.6-0.4-2.6-0.2c-32.6,6.2-65.1,12.4-97.7,18.6c-1.1,0.2-1.8,1.3-1.6,2.4l15.7,70.9c0.2,1.1,1.3,1.7,2.3,1.5l98.8-19.2
			C419.8,381.1,420.5,380.1,420.3,379z"/>
		<path class="st12" d="M428.6,429.3c-0.2-1.1-1.2-1.9-2.4-1.7l-96,19.1c-1.1,0.2-1.8,1.3-1.6,2.4l18.7,84.8
			c0.2,1.1,1.3,1.8,2.4,1.5c28.5-6.3,56.8-13.6,84.9-22.1c2.7-0.8,3.8-2.9,3.6-5.6C435.7,481.5,432.5,455.4,428.6,429.3z"/>
		<path class="st12" d="M266,461.6c-0.2-1.1-1.3-1.8-2.3-1.6l-103.9,20.6c-1.1,0.2-1.8,1.3-1.5,2.4c6.1,24.5,13.2,48.8,20.4,73
			c0.5,1.8,2.2,3.8,4.3,3.7c32.2-2.4,64.3-6,96.2-11c1.1-0.2,1.8-1.2,1.7-2.3L266,461.6z"/>
		<path class="st12" d="M616,383.7l114.4,1.9c0.1-0.3,0.1-0.6,0.2-0.9c0.2-1.2,0.9-5.3,1.1-6.4c3.1-17.5,6.7-35.7,10.5-54.1
			l-126.7-1.6c-1.5,0-2.7-1.3-2.7-2.8l-0.7-109.1c0-1.5-1.2-2.8-2.7-2.8c-23.2-0.2-46.5-0.4-69.7-0.6c-1.5,0-2.7,1.2-2.8,2.7
			l-4.2,108.8c-0.1,1.5-1.3,2.7-2.8,2.7L413,320c4.2,19.9,8,39.4,11.4,58.3c0.1,0.4,0.2,1.3,0.4,2.3l102.6,1.7
			c1.5,0,2.8,1.3,2.7,2.9l-4.9,129.1c-0.1,1.6,1.1,2.9,2.7,2.9c27.8,0.9,55.6,1.1,83.5,0.5c1.5,0,2.7-1.3,2.7-2.8l-0.8-128.3
			C613.2,385,614.5,383.7,616,383.7z"/>
	</g>
	<g>
		<path class="st13" d="M1006,436.2l-108.6-21.1c-1-0.2-1.7-1.2-1.5-2.2l12.9-74.5c0.2-1-0.5-2-1.6-2.2c-16.1-3.1-32.2-6.1-48.3-9.2
			c-1-0.2-2,0.5-2.3,1.5l-16.3,73.7c-0.2,1-1.2,1.7-2.3,1.5L737,383.9c-1.1-0.2-2.1,0.5-2.3,1.6c-2.2,12.4-4.2,24.9-6.2,37.4
			c-0.2,1,0.5,2,1.5,2.2l99,19.6c1.1,0.2,1.8,1.3,1.5,2.3l-19.3,87.4c-0.2,1.1,0.4,2.1,1.5,2.3c19.2,4.1,38.5,7.7,57.8,10.9
			c1.1,0.2,2-0.5,2.2-1.6l15.2-87.6c0.2-1.1,1.2-1.8,2.3-1.6l106.9,21.2c1,0.2,2-0.4,2.3-1.5c3-12.7,5.8-25.4,8.1-38.2
			C1007.8,437.4,1007.1,436.4,1006,436.2z"/>
		<path class="st13" d="M818.2,311c3.2,1.6,6.5,3.1,9.8,4.5c8,3.5,16.5,6,25.1,7.7l0.1,0c1.2,0.3,5,1,6.3,1.2l48.3,9.2l0.1,0
			c1.2,0.3,5.1,1,6.3,1.2c3.5,0.7,7,1,10.6,1c14.3-0.1,29.6-1.8,44.6-6.2c0.4-0.1,0.8-0.2,1.2-0.4c0.1,0,0.2,0,0.3-0.1l0,0
			c12.9-4,23.7-13.8,26.6-29.3c3.2-17.2-6.5-32.8-19.9-39.9c-14.4-7.7-30.9-5.1-45.2,3.2c-8.2,4.7-15.4,11.1-22.1,18.1
			c-4.7,4.9-9,10.2-13.2,15.5c-1.2,1.5-3.1,4.6-5.1,7.2c-3-10.7-9-21-14.1-27.9c-12.7-17.1-31-30.6-51.5-33.7
			c-16.3-2.5-35,3.9-41.1,22.9C777,291,801.2,302.6,818.2,311z M934.7,284.6c10.1-8,22.9-13.7,34.7-8.2c14.7,6.8,18.4,29.1,0.2,36.4
			c-12.6,5.1-29.1,2.3-42,2.4c-6.6,0-13.1,0-19.7,0.1C916.1,304.3,924.1,292.9,934.7,284.6z M805.9,268c4.7-6.2,13.7-4.9,19.7-3.7
			c9.7,1.9,19,6.9,27.1,12.8c8.8,6.4,16.5,15.1,22.7,24.5c1.5,2.4,2.9,5,4.2,7.6c-9.4-0.9-21.9-6.4-27.7-8.3
			c-12.6-4.1-26.5-9.2-37.6-17C809.4,280.5,800.2,275.5,805.9,268z"/>
		<path class="st13" d="M419.2,383.9l-101.2,19.7c-1,0.2-2-0.5-2.3-1.5l-16.3-73.7c-0.2-1-1.2-1.7-2.3-1.5
			c-16.1,3.1-32.2,6.1-48.3,9.2c-1,0.2-1.7,1.2-1.6,2.2l12.9,74.5c0.2,1-0.5,2-1.5,2.2l-108.6,21.1c-1,0.2-1.7,1.2-1.5,2.3
			c2.3,12.8,5.1,25.5,8.1,38.2c0.2,1,1.2,1.7,2.3,1.5l106.9-21.2c1.1-0.2,2.1,0.5,2.3,1.6l15.2,87.6c0.2,1.1,1.2,1.8,2.2,1.6
			c19.4-3.1,38.6-6.8,57.8-10.9c1.1-0.2,1.7-1.3,1.5-2.3l-19.3-87.4c-0.2-1.1,0.5-2.1,1.5-2.3l99-19.6c1-0.2,1.7-1.2,1.5-2.2
			c-1.9-12.5-4-25-6.2-37.4C421.3,384.4,420.2,383.7,419.2,383.9z"/>
		<path class="st13" d="M185.3,329.1L185.3,329.1c0.1,0,0.2,0,0.3,0.1c0.4,0.1,0.8,0.2,1.2,0.4c15.1,4.4,30.3,6.1,44.6,6.2
			c3.6,0,7.1-0.3,10.6-1c1.2-0.2,5.1-0.9,6.3-1.2l0.1,0l48.3-9.2c1.3-0.2,5.1-0.9,6.3-1.2l0.1,0c8.6-1.6,17-4.2,25.1-7.7
			c3.3-1.4,6.6-2.9,9.8-4.5c17-8.4,41.2-20,33-45.7c-6.1-19.1-24.7-25.5-41.1-22.9c-20.5,3.2-38.8,16.7-51.5,33.7
			c-5.1,6.9-11.1,17.2-14.1,27.9c-2-2.6-3.9-5.7-5.1-7.2c-4.3-5.3-8.5-10.6-13.2-15.5c-6.7-7-14-13.4-22.1-18.1
			c-14.3-8.3-30.8-10.9-45.2-3.2c-13.3,7.2-23.1,22.7-19.9,39.9C161.6,315.3,172.4,325.1,185.3,329.1z M280.8,301.6
			c6.1-9.4,13.9-18.1,22.7-24.5c8.1-5.9,17.4-10.9,27.1-12.8c6-1.2,14.9-2.5,19.7,3.7c5.7,7.5-3.5,12.4-8.4,15.9
			c-11.1,7.7-25,12.8-37.6,17c-5.8,1.9-18.3,7.4-27.7,8.3C277.9,306.5,279.2,303.9,280.8,301.6z M186.7,276.4
			c11.8-5.5,24.6,0.2,34.7,8.2c10.5,8.3,18.6,19.7,26.8,30.6c-6.6-0.1-13.1,0-19.7-0.1c-12.9-0.1-29.5,2.7-42-2.4
			C168.3,305.5,172,283.2,186.7,276.4z"/>
		<path class="st13" d="M523.6,385.9l-98.1-1.6c0,0.2,0.1,0.3,0.1,0.4c2.2,12.6,4.3,25.2,6.2,37.5c0.2,1.2,0.8,5.3,1,6.5
			c4,26.7,7.2,53.1,9.7,78.7c0.2,1.7-0.1,3.3-0.6,4.8c25.6,2.2,51.2,3.7,76.8,4.7c1.6,0.1,2.9-1.2,2.9-2.8l4.8-125.2
			C526.4,387.3,525.1,386,523.6,385.9z"/>
		<path class="st13" d="M530.4,207.2c-47-0.4-94-0.8-141.1-1.2c-1.4,0-2.6,0.4-3.5,1c-0.1,0.1-0.3,0.2-0.4,0.2c0,0,0,0-0.1,0
			c-1.6,1-2.9,2.7-2.9,5.3c-1,31.4-1.6,62.8-1.6,94.2l19.6-3.7c0.6-0.1,1.1-0.2,1.7-0.2c1,0,2,0.2,3,0.5c0.1,0,0.2,0.1,0.3,0.1
			l0.2,0.1c2.7,1,4.6,3.3,5.3,6.2c0.5,2.2,0.9,4.3,1.4,6.5l114.1,1.4c1.5,0,2.8-1.2,2.9-2.8l4-104.7
			C533.2,208.6,532,207.2,530.4,207.2z"/>
		<path class="st13" d="M619.2,318.9l123.8,1.6c0.7-3.5,1.5-7.1,2.3-10.6c0.6-2.9,2.5-5.2,5.2-6.2l0.1,0l0.1-0.1
			c0.1,0,0.2-0.1,0.3-0.1c1-0.4,2-0.5,3-0.5c0.6,0,1.1,0.1,1.7,0.2l19.2,3.7c-0.8-30.8-3.4-61.5-8.6-92.2c-0.5-2.8-3.4-5.2-6.2-5.2
			c-47.1-0.4-94.3-0.8-141.4-1.2c-1.6,0-2.9,1.3-2.8,2.9l0.7,105.1C616.5,317.6,617.7,318.9,619.2,318.9z"/>
		<path class="st13" d="M619.8,387.5c-1.6,0-2.9,1.3-2.9,2.9l0.8,124.2c0,1.6,1.3,2.9,2.9,2.8c31.3-0.8,62.6-2.5,93.9-5
			c-0.6-1.5-0.9-3.2-0.7-5c2.4-25.5,5.7-52,9.7-78.7c0.2-1.2,0.8-5.3,1-6.5c1.7-10.8,3.5-21.9,5.4-32.9L619.8,387.5z"/>
	</g>
	<g>
		<path class="st12" d="M263.1,631.3c-0.3-0.8-0.4-1.2-0.6-2.1c0-0.1,0-0.1,0-0.1c-1.9-5-5.5-6.5-8.1-6.6c-0.6,0-1.3,0-1.9,0
			c-0.1,0-0.2,0-0.3,0c-1,0.5-1.5,0.7-2.6,1.2c-1.5-6.4-3.9-13.1-6.8-19.1c-4.6-9.5-9.8-18.2-18.8-24.7c-4.8-3.4-12.8-7.2-19.2-6.6
			c-1,0.1-2,0.2-2.9,0.5c-19.2,4.8-30.2,15.5-36.7,31.9c-10.9,27.6-8.9,60.3-5.5,89.4c2,17,6.1,34.1,12.5,50.1
			c5.5,13.8,12.8,28.3,23.6,39.1c6.9,6.9,14.9,13.2,25.9,13.9c1.4,0.1,2.8,0.1,4.3-0.1c5.8-0.5,10.6-3.2,14.5-8.2
			c3.9-5,6.5-12.4,7.2-18.6c1.8-9.1,2.9-18.4,3.3-27.7c0.5-14.2,0.2-28.6,0-42.8c-0.1-5.6-0.2-8.5-0.4-14.1c0,0,0,0,0-0.1
			c0-0.2,0-0.4,0-0.6c2.9-0.3,5.2-1.4,6.7-3.1c1.6-1.8,2.3-4.1,2-6.7c-0.4-3.4-2.3-4.6-3.9-5.1c-0.6-0.2-1.3-0.3-2.2-0.3
			c-1.6-0.1-3.8-0.1-6.5,0.2c-10.3,0.9-20.6,2.7-30.9,4.3c-3.7,0.6-5.6,0.9-9.3,1.5c0,0-0.1,0-0.1,0c-2.4,0.5-4.2,1.8-5.5,4
			c-1.2,2-1.7,4-1.5,6.1c0.4,3.8,2.8,6,6.7,6.3c0.6,0,1.3,0,2,0c3.2-0.3,5.8-0.6,7.9-1c5.5-0.6,8.2-0.9,13.7-1.4
			c0.8,10.1,0.9,20.3,0.8,30.4c-0.1,13.4-0.6,26.9-2.1,40.3c-1.9,16.2-4.8,16.6-4.9,16.6c-0.1,0-0.2,0-0.4,0
			c-1.4-0.1-5.2-1.6-10.6-14.2c-5.2-12.2-8.9-25.2-12.1-37.8c-3-12.2-5.6-24.7-7.1-37.2c-1.5-12.9-1.6-26-1.2-38.8
			c0.4-12.9,2-26.4,4.8-39c1.2-5.5,3.6-16.1,10.2-17.8c0.1,0,0.2,0,0.3,0c0.9,0,2,0.5,3.2,1.5c5.6,5,9.1,11.7,11.7,17.9
			c2.9,6.7,5,14.2,6.4,21.6c-0.9,0.5-1.8,0.9-2.5,1.2c-1.2,0.5-2,0.9-2.5,1.3c-1.3,0.7-2.7,2.3-2.4,5.4c0.3,2.9,1.9,5.4,4.6,7.5
			c1,0.8,2.2,1.2,3.5,1.3c0.4,0,0.8,0,1.3,0c0.1,0,0.1,0,0.1,0c1.4-0.3,2.1-0.4,3.5-0.7c0.1,0,0.1-0.1,0.2-0.1
			c8-3.5,16.4-6.8,23.9-11c3.3-1.3,4.9-3.9,4.6-7.6C263.1,631.4,263.1,631.4,263.1,631.3z"/>
		<path class="st12" d="M402,763.2c-1.1-0.8-2.8-1.5-5.1-2.2c-0.5-0.2-0.8-0.3-1.3-0.4c-3.9,0.5-5.8,0.8-9.6,1.3
			c-1.6-6.3-2.9-11-3.7-14.3c-0.5-1.8-0.8-3.2-1.1-4.1c-0.1-0.5-0.3-1-0.4-1.4c-3.7-13.9-6-28.1-8.9-42.1c3.8-0.4,6.7-0.9,8.8-1.7
			c2.2-0.8,4.7-2.9,4.3-8.2c-0.3-3.9-1.6-6.7-4-8.2c-1.9-1.3-4.3-1.9-7.2-1.9c-0.4,0-0.9,0-1.4,0c-1.6,0.1-2.5,0.2-4.1,0.3
			c-3.3-23.9-8.2-47.8-13.4-71.3c-3.5-15.8-5.7-38.1-16.4-50.8c-1.5-1.8-4.2-3.2-7.6-4.2c-2.5-0.7-5.3-1-8.3-0.9
			c-0.8,0-1.6,0.1-2.5,0.2c-6.1,0.6-11.6,2.4-16.4,4.9c-5.1,2.6-8,6-8.8,10.6c-3.2,19.3-5.7,38.9-6.9,58.6
			c-1.2,19.5-1.4,39-1.4,58.6c-3.8,0.2-7,0.8-9.5,1.9c-3.5,1.5-5.1,5.1-4.6,10.7c0.4,5.3,3.2,7,5.4,7.4c1.5,0.3,3.4,0.4,5.7,0.4
			c1,0,2,0,3.1-0.1c0.4,17.6,0.6,35.4,2.1,52.9c0.3,4,0.9,7.8,1.6,11.4c-0.8,0.4-1.2,0.6-2,1c-0.1,0.1-0.1,0.1-0.2,0.2
			c-1.8,1.7-2.6,4-2.4,6.8c0.2,2.7,0.9,4.4,2.2,5.5c1.9,1.6,4,2.5,6.2,2.5c0.2,0,0.4,0,0.6,0c0,0,0.1,0,0.1,0
			c6.7-0.9,9.8-2.1,16.2-2.6c4.7-0.5,7.3-0.4,12.3-0.9c2.1-0.3,3.8-1.3,5-2.8c1.1-1.5,1.6-3.3,1.4-5.4c-0.6-7-4.9-8-7.4-8.2
			c-0.2,0-0.4,0-0.6,0c-0.3,0-0.4,0-0.7,0c-1.7-20.7-3.3-41.4-4.9-62.1c11.6-1.4,23.2-2.4,34.9-3.2c4.6,18.6,7.8,37.3,12.8,55.8
			c0.7,2.6,1,3.9,1.7,6.6c-1.8,0.2-4.1,0.5-6.8,0.8c-0.9,0.1-2,0.5-3.4,1.3c0,0-0.1,0-0.1,0c0,0-0.1,0-0.1,0.1
			c-1.9,1.2-4.1,3.5-3.7,7.2c0.2,1.5,0.8,3,2,4.3c0,0,0,0,0.1,0.1c0,0,0.1,0,0.1,0.1c1.5,1.3,4.1,1.7,7.7,1.5c0.5,0,1.1-0.1,1.7-0.1
			c0,0,0,0,0.1,0c8.7-1.3,12.8-1.1,20.2-1.8c0,0,0.1,0,0.1,0c1.3-0.3,3-0.4,5-0.6c2.2-0.1,5-0.5,8.5-1.2c2.1-0.4,3.9-1.3,5.2-2.6
			c1.4-1.4,2.1-3.1,1.9-4.9C404.2,765.7,403.4,764.2,402,763.2z M316.9,683.1c0.2-19.6,0.7-39.4,3-58.8c1.8-15.2,4.7-30.2,8.6-45.1
			c0.9,3.1,2,8,3.7,16c3.5,17.3,6.5,34.7,9.5,52.1c1.9,11,3.7,21.9,5.6,32.9C337.1,681.2,327,682.2,316.9,683.1z"/>
		<path class="st12" d="M525.9,538.9c-0.1,0-0.2,0-0.2,0c-0.4,0-0.6,0-1,0c-0.1,0-0.1,0-0.2,0c-11.1,0.4-21.7,0.2-32.6,1.8
			c-0.2,0-0.2,0-0.4,0c-1,0.5-1.6,0.8-2.6,1.4c-0.1,0.1-0.1,0.1-0.2,0.2c-2,2-3,4.9-2.8,8.9c0.1,2.9,0.5,5,1.2,6.4
			c0,0,0,0.1,0.1,0.1c1,1.7,3.1,3.7,7.3,3.4c0.2,0,0.3,0,0.5,0c0,0,0.1,0,0.1,0c0.6-0.1,0.9-0.2,1.5-0.3c-0.5,11.1-0.3,22.3,0,33.4
			c0.7,23.9,2.2,48,3.8,71.9c1.2,18.1,2.5,36.2,4.2,54.2c-11.4-26.5-22.8-53.1-34.1-79.7c0,0,0-0.1,0-0.1c0,0,0-0.1-0.1-0.1
			c-0.8-1.3-1.4-2.6-1.8-3.9c-0.5-1.5-1-2.8-1.6-4.1c-5.1-12-10.3-23.9-15-36c-1.7-4.7-3.6-10.4-5.6-17.1
			c-2.6-8.5-3.3-10.7-3.7-11.5c-1.4-3.1-5.1-5.1-12.4-6.2c-5.6-0.8-10.2-1.2-13.7-1.2c-0.6,0-1.2,0-1.8,0c-0.5,0-0.8,0-1.3,0.1
			c0,0,0,0-0.1,0c-4.3,0.6-7.2,4.2-8.1,10c-1.4,8.6-1,17.7-0.8,26.5c1.6,53.1,9.7,106.9,17.7,159.6c0,0.1,0,0.1,0,0.1
			c-0.9,0.1-1.3,0.1-2.2,0.2c-1.4,0.1-2.4,0.4-3.2,0.8c0,0,0,0-0.1,0c0,0,0,0-0.1,0c-1.6,0.9-2.6,1.8-3.3,2.7c-0.7,1-1,2.3-1,4.3
			c0.1,2.7,0.9,4.6,2.4,5.7c1.8,1.4,4.4,2.4,7.5,3.1c0.1,0,0.2,0,0.3,0.1c7.9-0.5,15.9-0.9,23.8-1.3c1,0,2.6-0.1,4.5-0.3
			c3.1-0.2,7.4-0.6,12.7-1c5.9-0.4,9.1-3.5,8.9-8.2c-0.1-3.2-2.7-5.5-7.8-7c-0.1,0-0.1,0-0.1,0c-0.7-0.1-1-0.2-1.7-0.3
			c-0.8,0-1.2,0.1-2,0.1c-7.8-40.4-13.5-81.3-17.7-122.2c14,34.6,29.1,71.3,49.6,103.1c2.9,4.5,6.4,7.8,10.3,10.6
			c2.8,2.2,6.1,3.3,10,3.3c0.1,0,0.3,0,0.4,0c3.9-0.1,7.1-1.5,9.8-4c2.5-2.4,3.6-5.7,3.4-10.5c-1.4-28.4-2.1-56.8-3.2-85.2
			c-0.7-10.1-1.2-20.3-1.5-30.4c-0.7-20.5-0.6-41.3,1.4-61.9c1.4,0,2.5-0.2,3.3-0.4c2.1-0.4,3.8-1.7,5.1-3.7c1.3-1.9,2-4.2,1.9-6.5
			c-0.1-3-0.9-5.2-2.3-6.7C530.1,539.7,528.1,538.9,525.9,538.9z"/>
		<path class="st12" d="M655.9,603.3C655.9,603.3,655.9,603.3,655.9,603.3c-1.3-4.5-4.6-7-9.5-7c-0.1,0-0.2,0-0.3,0
			c-1.1,0.4-1.6,0.5-2.7,0.9c-1.1-6.5-3.2-13.3-5.8-19.5c-3.6-10.3-8.8-21.4-16.3-29c-4.9-5-11.4-10.7-20-10.5c0,0-0.1,0-0.1,0
			c-21.5,0.4-33,16.3-40.4,32.4c-12.8,27.7-14.8,60.5-14.5,90.4c0.2,17.1,2.5,34.4,7.2,50.8c4.1,14.1,9.9,28.5,19.4,40.7
			c6.3,8.1,16.3,16.6,28.2,16.3c0.1,0,0.1,0,0.1,0c5.8,0,11.1-2.5,15.5-7.2c4.5-4.7,7.9-11.9,9.2-18c2.7-9,4.9-18.1,6.2-27.3
			c2-14.1,3.2-28.4,4.5-42.6c0.4-5.6,0.7-8.4,1.1-14.1c0,0,0,0,0-0.1c0-0.2,0-0.4,0-0.6c2.9-0.1,5.3-1,7-2.6
			c1.8-1.7,2.8-3.9,2.7-6.6c0-3.4-1.8-4.8-3.3-5.3c-1.5-0.6-4.2-0.8-8.2-0.8c-0.2,0-0.3,0-0.4,0c-10.4,0.2-20.8,1.1-31.2,1.9
			c-3.8,0.3-5.7,0.5-9.4,0.8c0,0-0.1,0-0.1,0c-2.4,0.3-4.4,1.5-5.9,3.5c-1.4,1.9-2.1,3.9-2.1,5.9c0,4.4,2.9,6.9,7.9,6.9
			c0,0,0,0,0.1,0c3.2,0,5.8-0.1,8-0.4c5.5-0.1,8.3-0.2,13.9-0.4c-0.3,10.1-1.2,20.3-2.3,30.3c-1.5,13.3-3.5,26.8-6.4,40
			c-3.6,16-6.7,16.3-6.7,16.3c-1.4,0-5.1-1.5-9.3-15c-3.9-12.6-6.2-25.7-8-38.6c-1.7-12.4-3.1-25.1-3.1-37.6
			c-0.1-12.9,1.3-25.8,2.9-38.7c1.7-13.6,4.7-27.6,8.9-40.4c2.2-6.6,5.2-16.8,11.9-18c0.9-0.2,2.3,1.2,3.1,2.2
			c4.7,6.4,7.6,13.9,9.7,21c2.1,7.1,3.8,14.7,4.5,22.3c-1,0.4-1.9,0.7-2.6,1c-1.3,0.4-2.1,0.7-2.6,1.1c-1.4,0.6-2.9,2-2.9,5.2
			c0,2.9,1.3,5.5,3.8,7.8c1.2,1.1,2.7,1.6,4.6,1.6c0.1,0,0.1,0,0.1,0c1.4-0.2,2.1-0.3,3.5-0.4c0.1,0,0.1,0,0.2-0.1
			c8.3-2.9,14.5-5.1,18.7-6.6c3.5-1.3,5.4-2,6.5-2.6c3.4-1.1,5.2-3.6,5.2-7.1c0-0.1,0-0.1,0-0.2
			C656.2,604.5,656.1,604.1,655.9,603.3z"/>
		<path class="st12" d="M747.7,554.1c-6.9-5.2-15.4-9.7-24.5-11.1c-1.2-0.3-2.9-0.4-5.1-0.5c-0.2,0-0.5,0-0.7,0
			c-6.9-0.3-13.1,0.6-18.3,3.9c-9.7,4.7-16.3,13.9-20.8,22.7c-5.3,10.3-8.4,22.2-8.7,33.5c-0.5,17,6.3,33.1,14.9,47.7
			c11.6,19.8,24.7,40,35.3,60.5c5.3,10.3,11.5,21.9,11.4,33.6c-0.1,6.1-3.1,8.9-9.5,8.9c-0.9,0-1.9,0-2.9-0.2c-6-0.7-6.8-3-6.7-4.7
			c0,0,0-0.3,0.3-1.4c1.5,0.2,2.2,0.3,3.6,0.5c0.4,0.1,0.9,0.1,1.3,0.1c2.2,0,4.2-0.8,5.7-2.3c1.7-1.6,2.5-3.7,2.6-6.1
			c0.1-3.2-1.9-5.6-5.5-6.8c-2.2-0.7-7.2-1.6-15.1-2.7c-7.9-1-13.8-1.6-18.1-1.7c-0.1,0-0.1,0-0.1,0c-1.8,0-4.3,0.6-6.2,3.3
			c-1.4,1.9-2.2,4-2.2,6.1c0,1.9,1.1,4.7,6.7,6.5c0.1,0,0.1,0,0.2,0.1c1.3,0.2,1.9,0.3,3.2,0.5c-0.2,1.1-0.3,1.6-0.5,2.7
			c0,0,0,0,0,0.1c-0.7,6.3,1.7,12,6.4,17c4.1,4.4,12.3,7.9,18.5,8.1c2.1,0.1,4.4,0.3,6.4,0.3c10.4,0,22.1-2.4,29.7-9.4
			c8.2-7.6,12.5-18.5,12.6-29c0.2-12.7-3.8-25.6-9.6-37.1c-5.1-10.3-11.3-20.6-17-30.8c-7.1-12.7-14.2-25.6-20.3-38.8
			c-3.9-8.5-6.8-17.4-7.9-26.6c0,0,0,0,0-0.1c0,0,0,0,0-0.1c-0.2-1-0.3-2.8-0.2-5.5c0.1-5.9,1.3-11.8,3.5-16.8
			c2.2-5,4.8-8.8,7.9-11.2c2.6-2,5-3.1,7.1-3c0.2,0,0.4,0,0.6,0.1c3.4,0.7,7,3.3,10.7,7.7c4.2,4.8,7.5,11.3,9.7,17
			c2.1,5.7,3.8,12.9,3.6,19c-0.1,2.6-0.3,4-0.5,4.7c0,0,0,0.1,0,0.1c-0.3,1.5-0.7,3.2-1.3,5c-0.6,2-0.9,3.5-0.9,4.6
			c-0.1,5.3,6.8,6.6,12.5,6.7c0.1,0,0.1,0,0.2,0c2.3,0,5.6-0.8,8.1-4.9c1.7-2.8,2.8-5.5,3.1-7.9c0.6-3.6,1-6.4,1-8.2
			c0.1-9.4-2.8-18.5-5.8-27.4C762.8,570.7,756.5,560.6,747.7,554.1z"/>
		<path class="st12" d="M1000.1,797.6c-1-1.5-2.5-3.2-4.7-5.1c-0.5-0.4-0.8-0.7-1.3-1.1c-4.2-0.7-6.3-1.1-10.5-1.8
			c0-7.2,0.1-14.3,0.1-21.5c0-4.1,0-6.2,0-7.5c-0.1-15.4-0.3-30.9-0.5-46.3c1.3,0.1,2.5,0.1,3.6,0.1c2.2,0,4-0.2,5.5-0.5
			c2.3-0.5,5.2-2.2,5.8-7.4c0.4-3.9-0.4-6.8-2.4-8.7c-1.9-1.8-4.6-2.8-8.1-3.2c-1.6-0.1-2.5-0.2-4.1-0.4c1.1-24.1,0.7-48.4-0.1-72.4
			c-0.4-12,0.1-27-6.5-37.5c-1.2-1.9-3.4-4-6.6-6.1c-3.1-2-6.6-3.8-10.5-4.9c-1.3-0.4-2.6-0.7-3.9-1c-4.6-0.9-8.9-1-12.9-0.2
			c-5.4,1-9.1,3.4-10.8,7.1c-7.3,16.7-13.5,33.1-18,50.5c-4.8,19-8.6,38.3-12.1,57.5c-1.4-0.1-2.7-0.2-4-0.2c-2.1,0-4,0.2-5.7,0.6
			c-3.7,0.9-5.9,4.3-6.5,9.9c-0.6,5.3,1.9,7.4,4,8.1c2,0.7,4.8,1.3,8.7,1.7c-3,18-6.1,36-8,54c-0.5,4.3-0.7,8.5-0.7,12.3
			c-0.9,0.3-1.3,0.4-2.2,0.7c-0.1,0.1-0.2,0.1-0.3,0.2c-2.1,1.5-3.4,3.8-3.7,6.7c-0.3,2.7,0.1,4.6,1.2,5.8c1.8,2,3.9,3.2,6.2,3.7
			c0,0,0.1,0,0.1,0c6.6,0.7,9.8,1.4,16.6,2.6c5,0.8,7.6,1.2,12.7,1.6c2.2,0.1,4-0.5,5.4-1.9c1.4-1.3,2.2-3.2,2.4-5.5
			c0.8-8.4-3.6-10.4-6.3-10.8c-0.3,0-0.4-0.1-0.7-0.1c2.1-22.1,4.3-44.3,6.7-66.4c11.7,0.3,23.3,1.2,35,2.1
			c1.3,21.5,0.7,43.1,0.3,64.7c-0.1,3.7-0.2,5.6-0.3,9.2c-1.7-0.3-3.9-0.7-6.3-1.2c-0.1,0-0.2,0-0.4-0.1c-0.8-0.1-1.7,0.1-2.9,0.5
			c0,0-0.1,0-0.1,0c0,0-0.1,0-0.1,0c-1.9,0.9-4.3,3-4.7,7.4c-0.2,1.8,0.1,3.6,0.8,5.4c0,0,0,0.1,0,0.1c0,0,0,0.1,0.1,0.1
			c1.2,2.1,3.7,3.3,7.7,4.2c0,0,0,0,0.1,0c6.8,1.4,13.7,2.8,20.6,4c0,0,0.1,0,0.1,0c0.5,0.1,1,0.1,1.5,0.2c1.2,0.2,2.5,0.5,4.1,1
			c1.4,0.4,3.1,0.8,5,1.3c1.4,0.3,2.9,0.6,4.5,0.9c2.3,0.4,4.3,0.2,6-0.7c1.7-1,2.7-2.7,3-5.1
			C1001.8,801.8,1001.3,799.5,1000.1,797.6z M963.1,657.8c-0.2,11.1-0.4,22.2-0.6,33.3c-10.1-0.6-20.3-1.2-30.4-1.8
			c3.8-19.3,8-38.7,13.8-57.5c3.9-12.6,8-25.8,16.9-36.4c0.2,2.2,0.4,5.2,0.5,11.3C963.6,623.7,963.3,640.8,963.1,657.8z"/>
		<path class="st12" d="M887.1,578.7L887.1,578.7c0.3-0.7,0.4-1.5,0.3-2.3c1-10.9-26.4-15.8-30.6-16.9l0,0
			c-19.8-5-39.9-6.8-60.8-9.5c-0.1,0-0.1,0-0.1,0c-3.7-0.1-8.3,1.3-9.8,8.2c0,0.1,0,0.1,0,0.2c0,0.1,0,0.1,0,0.2
			c-0.1,3.3,0.5,6.2,2.1,8.5c1.7,2.5,4.2,4,7.4,4.5c2.7,0.4,5.6,0.7,8.5,1c5.6,0.5,11.4,0.4,15.7,0.8c-0.7,4.2-1.1,6.4-2,10.8
			c-2.9,13.8-6.3,27.6-9,41.4c-1.8,9-2.8,18.3-3.3,27.4c-1.5,34.6,0,69.5,1.8,104.4c0.4,7.7,1.3,13.7,2.6,17.8
			c0.6,2.3,3.4,4.2,8.9,5.7c4.9,1.4,8.9,2,11.8,2.1c0.2,0,0.4,0,0.6,0c3.4-0.1,6.2-1.4,8.3-3.8c2.2-2.4,3-5,2.5-7.6
			c-2.8-13.9-4.4-28.6-4.8-42.8c-0.5-18.3-0.6-36.7,0.4-54.7c1-18,3.2-36.3,5.5-54.3c1.7-13.4,3.7-29.1,9.6-41.6
			C853.7,578.4,885.2,588.6,887.1,578.7z"/>
	</g>
	<g>
		<path class="st13" d="M295.4,802.1c-0.3,0-0.5,0-0.8,0.1c-0.5,0.1-1.2,0.2-2.2,0.4c-1.3,0.2-3.1,0.5-5.2,0.9
			c-2.6,0.4-5.2,0.9-7.8,1.3c-4.6,0.8-9.3,1.6-13.9,2.3l-0.1,0c-1.3,0.3-2.5,1.2-3.8,3.1c-1.2,1.8-1.8,3.8-1.8,6.1
			c0.1,6.8,3.3,8.2,5.9,8.2c0.4,0,0.9,0,1.4-0.1c1.9-0.3,3-0.5,4.5-0.8c0,7.4,0,14.9,0.1,22.4c0,14.4,0,29.3,0.2,43.9l0.1,4.4
			c0.2,13.1,0.3,26.6,0.8,39.5c0.1,2.1,0.1,4.2,0.2,6.4c-3.2-14.2-6.6-28.4-9.8-42.3c-4.1-17.6-8.3-35.8-12.4-53.7
			c-0.5-2.4-1.7-4.1-3.4-4.9c-1.2-0.6-2.6-0.9-4.5-0.9c-0.6,0-1.2,0-1.8,0.1l-0.6,0c-2.4,0.2-4.4,0.4-6,0.7c-1.9,0.4-3.6,1-4.9,1.8
			c-1.4,0.8-2.3,2-2.7,3.6c-0.4,1.4-0.6,1.9-0.7,2.1l-0.1,0.2l0,0.2c-4,27.9-8.8,64.1-11,101.9c-3.4-16.4-6-31.9-7.8-47.2
			c-2.3-19.8-3.9-40.1-4.6-60.3c-0.1-1.8,0-4.3,0.3-7.8c0.1,0,0.2,0,0.2,0l0.1,0c2-0.5,3.6-1.6,4.8-3c1.2-1.5,1.7-3.3,1.7-5.3
			c0-2-0.8-3.6-2.4-4.9c-1.2-1-2.5-1.5-4-1.5c-0.4,0-0.9,0-1.3,0.1l-0.7,0.1l-0.1,0c-3.3,1.1-5.5,1.6-8.4,2.3
			c-1.2,0.3-2.5,0.6-4.1,1c-5.8,1.4-14.4,3.6-22.8,6.1c-1,0.3-1.9,1.2-2.8,2.9c-0.8,1.4-1.1,3-1.1,4.6l0,0.5
			c0.2,2.9,1.8,4.4,4.8,4.4c0.6,0,1.4-0.1,2.2-0.2c0.5-0.1,0.7-0.1,1.2-0.2l0.1,0l0.1,0c1.2-0.3,2-0.5,3-0.7
			c2,24.5,4.7,48.6,7.9,71.6c3.9,28,9.7,53.2,17.6,77.2c1.4,6,3.7,10.7,7,14.2c3.3,3.4,6.8,5.3,10.6,5.6c0.4,0,0.8,0.1,1.2,0.1
			c4.1,0,7.5-1.9,10.1-5.6c0.7-0.9,1.6-2.9,2.3-9.8c0.6-5.3,0.9-10.8,1.1-16c0.7-28.5,3.2-56.7,6.7-89.5
			c4.7,16.8,9.6,33.8,14.4,50.3c4.6,15.9,9.4,32.3,13.9,48.4c2.4,8.5,4.7,14.6,6.8,17.8c1.9,2.8,4.9,4.6,8,4.6c0.4,0,0.8,0,1.2-0.1
			c2.8-0.4,5.4-2.6,6.7-5.5c1.1-2.5,1.8-6.6,2.2-12.9l0-0.1c-0.1-20.1-0.3-40.6-0.5-60.4l-0.2-17.5c-0.1-7.1-0.1-14.1-0.2-21.2
			c-0.2-22.8-0.4-46.3-0.9-69.4c1.6-0.2,2.8-0.3,4.7-0.5c1.6-0.1,3.7-0.9,5.1-3.9c0.9-2.1,1.4-4.4,1.4-6.8c0-2.5-0.5-4.4-1.4-5.8
			C298.6,802.9,297.1,802.1,295.4,802.1z"/>
		<path class="st13" d="M864.6,817.2c-2.9-2.4-6.3-3.7-10.1-4c-1.2-0.1-2.5-0.2-3.7-0.2c-8.9,0-16.9,2.6-23,7.6
			c-6.9,5.6-12.5,13.2-16.3,21.9c-4.4,10.2-7.8,21-10.5,30.5c-1.2-0.3-2.3-0.5-3.3-0.6c-0.4,0-0.9,0-1.3,0c-2.3,0-4.3,0.4-6.1,1.3
			c-2.3,1.2-3.7,3.1-3.8,5.8c-0.3,4.7,0.4,7.4,2.3,8.6c1.6,1,4.1,1.6,7.8,1.8c0.4,0,0.7,0.1,1,0.1c-1,6.4-1.8,13.4-2.2,20.8
			c-0.1,2.2-0.3,4.5-0.4,6.7c-0.9,13.8-1.8,28.1-1.2,41.8c0.6,13.3,2.9,23.8,7.3,32.9c4.7,9.7,14.7,16.3,25,16.3h0
			c8.9,0,14.6-9.6,18.4-15.9c0.3-0.5,0.5-0.9,0.8-1.3c6.2-10.2,11.2-22.5,14.3-34.7l3.1,0.2c0.3,0,0.6,0.1,0.9,0.1
			c2.8,0,4.7-1.9,5.8-5.8c0.7-2.3,0.7-4,0.1-5.3c-0.5-1.2-1.5-2.4-3.1-3.7l-0.9-1l-0.6,0c-1.2-0.1-4.8-0.9-9.8-2
			c-5.6-1.3-9.9-2-12.5-2.2l-0.2,0l-1.8,0.3l-0.3,0.2c-2.1,1.6-3.4,4.3-3.7,8.1c-0.1,1.8-0.1,2.7,0.3,3.3c0.9,2.6,2.3,4.1,4.2,4.5
			l2.2,0.4c-1.6,5.3-4.1,13.6-7,20.8c-5,12.4-7.7,13-8.2,13c0,0,0,0,0,0c-1.9-0.6-4.7-12.9-5.4-24.5c-1.1-17.2-0.9-35.5,0.6-57.7
			c0.4-5.5,0.7-9.7,1.1-12.1c13.2-3.4,24.7-9.7,33.2-18.3c9.3-9.3,15-21.2,15.8-32.7c0.4-5.7-0.3-10.9-1.9-15.3
			C870,823,867.6,819.7,864.6,817.2z M856.8,840.5c-0.3,4.3-1.9,9-4.8,13.9c-3,5.2-6.9,9.8-11.7,13.7c-3.8,3.2-7.7,5.3-11.7,6.5
			c3.4-11.7,7-21.5,11.3-30.7c4-8.7,8.2-13.4,12.1-13.7l0-1.5v1.5c0.5,0,2,0.8,3,2.2C856.6,834.7,857,838.1,856.8,840.5z"/>
		<path class="st13" d="M415.9,792.5c-6.1-3.6-13.3-4.2-19.5-4.2h-0.1c-6,0-12,1.8-18.3,5.6c-6,3.6-11.8,9.7-14.6,15.4
			c-5.2,9.3-10.6,19.2-14.3,29.8c-3.4,9.8-6.5,20.5-9.6,33.3c0.2-16.9,0.8-34.5,3.1-52.5c0.5-2.2,0.7-4,0.7-5.5c0-0.8,0-1.5,0.1-2.2
			c1.3-0.2,2.5-0.5,3.5-0.9c4.4-1.2,6.8-4.1,6.8-8.2c0-2.5-0.7-4.3-2.1-5.5c-1-0.8-2.3-1.3-3.7-1.3c-0.5,0-1.1,0.1-1.6,0.2l-0.7,0.1
			l-0.1,0c-12.4,3.4-22.9,5.4-33.1,6.3c-0.7,0.1-1.5,0.4-2.7,0.9l-0.1,0l-0.1,0c-2.4,1.5-3.7,3.7-3.7,6.5c0,1.5,0.5,3,1.4,4.4
			c0.9,1.5,3,2.3,6.2,2.3c0.5,0,0.9,0,1.5-0.1c1.9-0.2,3.1-0.4,4.6-0.5c-0.1,0.6-0.2,1.2-0.3,1.7c-0.3,1.7-0.5,3.3-0.8,5.5
			c-1.8,12.3-4.1,30.7-4.1,48.9c0,18.1,1.2,36.2,2.7,56.3l0.1,0.8c1.5,20.4,3,41.4,5.5,62.1c-0.8,0-2.7,0.1-4,1.1
			c-0.3,0.3-0.6,0.6-0.9,1c0,0.1-0.1,0.1-0.1,0.2c-0.1,0.2-0.2,0.3-0.4,0.5c-1.1,1.6-1.7,3.7-1.6,6c0,5.2,2.5,7.7,7.7,7.7l0.2,0
			c2.3-0.2,4.2-0.3,6-0.4c3.5-0.3,6.6-0.5,11-0.9c3.4-0.3,5.7-0.6,8.3-0.9c1.3-0.1,2.7-0.3,4.4-0.5c1.8-0.3,3.4-1.1,4.5-2.4
			c1.2-1.4,1.8-3.1,1.8-5.4c0-2.7-0.6-5-1.7-6.7c-1.9-2.6-5.3-2.7-7.6-2.4c-0.7,0.1-1.4,0.2-2,0.3c0,0-0.1,0-0.1,0l0,0
			c-0.2,0-0.5,0-0.7,0.1c-0.8-10.7-1.7-22.8-2.3-34.8c17.9,7.9,34.9,18,51.4,27.8c5.1,3,10.4,6.2,15.7,9.2l0.1,0
			c0.8,0.4,1.9,0.6,3.1,0.6l0.1,0c2,0,3.8-0.6,5.3-1.8c1.6-1.2,2.7-2.9,3.3-5.1l0-0.2l0-0.6c0.9-10.3-2.8-14.2-6.2-15.6
			c-5.9-2.5-11.6-5.9-17.2-9.2c-3.1-1.8-6.3-3.7-9.5-5.5c-3.6-2-9.5-4.8-16-7.8c-5-2.3-10.5-4.5-17.7-7
			c15.5-14.6,32.9-31.5,47.5-50.2c12.6-16.1,20.2-32.9,22.4-49.8c0.3-2.3,0.4-5.6,0.4-10.3c0.1-8.1-0.3-14.6-1.2-19.4
			C425.4,801.8,421.7,795.9,415.9,792.5z M402.5,833.6c-2.5,18.2-8.8,35.1-19.4,51.6c-9.8,15.3-22,29.1-37.1,42
			c0.3-2.6,0.6-5.8,0.8-9.4c0.4-5.4,0.7-10.2,0.9-14.2c3.9-24.5,9.2-44.9,16.9-64.2c8.3-20.8,17.5-31.6,28-33c0.3,0,0.6-0.1,0.8-0.1
			c3.4,0,5.4,2.9,6.5,5.4c1.9,4.2,2.9,10,2.8,16.7C402.8,830.6,402.7,832.3,402.5,833.6z"/>
		<path class="st13" d="M647.4,790.6c-2.8-1-5.8-1.5-8.9-1.5c-2.8,0-5.7,0.4-8.4,1.3c-15.8,4.7-22.3,26.4-26.6,40.8l-0.5,1.7
			c-4.3,14.3-7.7,28.9-10.2,44.3c0.1-4.2,0.3-8.8,0.5-13.8c0.4-8.8,1.2-17.5,2.4-26c0.8-6.1,1.8-12.4,2.7-18.6
			c0.6-4.2,1.3-8.5,1.9-12.8c0.3-2,0.5-3.4,0.7-4.8c0.1-0.9,0.3-1.8,0.4-2.9c0.2,0,0.5,0,0.7,0c1.3,0,2.8,0.1,4.4,0.3
			c0.5,0.1,0.9,0.1,1.3,0.1c2.6,0,6-1.2,7.2-7c0.4-2.2,0.5-4.2,0.1-5.9c-0.5-1.8-0.8-2.8-2.7-3.4c-1.9-0.6-5.3-0.8-12-1
			c-20-0.8-25.9-1.5-29,2.1c-0.7,1-1.2,2.2-1.3,3.5c-0.6,2.7-0.2,5,1,6.7c1.1,1.6,3,2.6,5.4,3c0,0,0.1,0,0.1,0
			c-4.6,23.5-7.3,48.6-8.1,74.5c-0.4,11.7-0.2,24.5,0.4,39.1c-3.3,10.9-6.3,19.8-9.2,27.8c-2.1,5.9-7.7,14.2-13.3,14.2
			c-0.4,0-0.9-0.1-1.3-0.2c-7-1.7-8.9-15.7-9.7-21.7c-2.5-19-2.4-38.2-2-52.8c0.5-21.8,1.9-39.3,4.4-55.1c0.8-5-1-7.7-2.5-9.1
			c-1.9-1.7-4.5-2.6-7.5-2.6c-0.6,0-1.1,0-1.7,0.1c-3.3,0.3-6.7,1.5-10.2,3.6c-3.4,2-5.7,4.3-7,7c-0.5,1-1,2.3-1.5,4
			c-3.2-4.5-7.1-7.9-11.9-10.6c-5.7-3.2-11.5-4.8-17.2-4.9c-0.2,0-0.4,0-0.6,0c-8.8,0-17.3,3.9-23.2,10.8
			c-9.2,10.6-14.2,25.2-17.5,36.6c-4.7,16.2-7.3,31.7-8,47.2c-0.3,7,0.9,15.2,3.3,21.9c2.4,6.8,5.7,12.1,9.7,15.9
			c4.3,4,8.8,6.1,13.6,6.1c10.7,0,17.4-9.7,19.8-13.9c5-8.7,9.7-17.9,13.9-27.3c1.6-3.6,3.2-7.2,4.8-10.7c1.4-3.2,2.8-6.4,4.3-9.6
			c2-4.3,4-8.8,6-13.1c0.3,21.6,1.6,44.2,7.6,66.1c2,7.3,5.9,14.1,11,19.2c5.9,5.9,12.9,9.1,20.3,9.1h0.2c7.8,0,16.8-2.8,22.2-6.9
			c3.1-2.3,5.7-5.2,8-8.8c2.5,13.1,6.2,26,11.3,39.3c-2.1,0.1-4.6,0.3-5.6,2.2c-0.5,1.1-0.8,2.5-0.9,4.2l0,1.6l0,0.1
			c0.2,1.5,0.8,3,1.7,4.3c0.9,1.2,2.3,2.2,4.1,2.8c1.4,0.5,2.2,0.7,2.9,0.7h0.1c1.9,0.1,3.5,0.1,5.1,0.2c2.8,0.1,5.3,0.2,8.5,0.2
			c0.8,0,1.6,0,2.4,0c7.4-0.1,11-1.1,11.9-1.5c3.6-1.2,5.7-4.1,5.8-8.1l0-1.3l0-0.1c-0.1-1.5-0.5-3-1.2-4.3
			c-2.3-4.6-9.2-1.6-9.9-1.6c0-0.6-0.1-1.9-0.3-3.1v0l-0.2-1.6c-0.2-2-0.4-3.8-0.7-6.3c-2.8-25-5.1-47.7-4.7-71.1
			c0.8,0.9,1.8,1.7,3,2.4c3.1,1.7,6.7,2.7,10.9,2.9c0.9,0.1,1.9,0.1,2.9,0.1c16,0,30.6-7.2,37.3-18.4c8.5-14.1,13.1-30.8,14-51
			c0.6-14-1-25.5-5-36.1C663.7,800.9,656.1,793.6,647.4,790.6z M487.3,877.4c-5.8,14-11.4,26.3-17.1,37.5c-0.4,0.9-0.9,1.8-1.3,2.7
			c-2.4,5.1-5.5,11.4-10,13c-0.5-0.3-1.6-1.5-2.2-3.9c-0.9-3.3-1.3-7.9-1.2-13.2c0.4-14.4,2.5-29.6,6.6-47.7l0.4-1.6
			c2.4-10.6,5.1-22.6,12.8-30.2c3-2.9,5.8-4.4,8.5-4.4l0.2,0c3,0.1,5.8,1.6,8.5,4.7c2.7,3.1,4.7,7.5,6,12.9
			C495.2,857.9,491.2,868,487.3,877.4z M647.2,841.6c-0.6,8.6-1.7,16.7-3.3,24.8c-1.5,7.4-3.6,14.5-6.3,20.4
			c-2.8,6.4-9.7,10.5-17.6,10.5c-0.4,0-0.9,0-1.3,0c-0.4,0-1.8-0.2-4.9-1.4c-2.7-1-4.7-1.5-6.1-1.6h-0.2c-1,0-1.9,0.2-2.7,0.7
			c2.2-17.1,5.2-35.1,11.6-52.9c0.4-1.1,0.8-2.3,1.2-3.5c3.9-11.2,9.2-26.5,20.8-29.8c0.2,0,0.4,0,0.5,0c3.1,0,5.5,3.1,6.6,8.6
			C647.2,825.7,647.8,833.8,647.2,841.6z"/>
		<path class="st13" d="M760,794c-0.4,0-0.8,0-1.2,0c-4.2,0-9.5,1.1-16.2,3.4c-15.4,5.3-22.4,20.9-26.7,33.9
			c-4.5,13.6-8.1,27.7-10.9,43.2c0.2-4.2,0.4-8.6,0.7-13.1c0.7-9.8,1.6-18.3,2.8-26c1-6.2,2.3-12.6,3.6-18.8
			c0.6-2.9,1.2-5.9,1.7-8.8c0.4-2,0.6-3.3,0.9-4.8l0.3-1.4c1.1,0.1,2.7,0.4,4.8,0.9c0.9,0.2,1.7,0.3,2.4,0.3c2.1,0,4.9-0.9,6-5.3
			c0.6-2.4,0.5-4.7-0.2-6.7c-0.3-0.8-0.7-1.5-1.1-2c-1.2-1.4-3.1-1.9-14.3-3.2c-0.6-0.1-1.2-0.1-1.7-0.2c0,0,0,0,0,0c0,0,0,0,0,0
			c-0.6-0.1-1.2-0.2-1.8-0.2c-18-2.4-19.3,0.2-20.9,1.6c-1,1.1-1.7,2.3-2,3.6c-0.8,2.5-0.6,4.7,0.6,6.5c1.1,1.6,3,2.6,5.4,2.8
			c-6.5,23.1-10.2,45.8-11.3,69.2c-1.1,23.5-0.4,46.8,2.1,69.5c2.2,20,6.3,37.8,12.3,54.5c-1.4-0.1-4.6,0.3-5.8,2.8
			c-0.3,0.6-0.5,1.3-0.7,2.1c-0.3,1.9-1.8,9.5,5.6,11.2c0.9,0.1,1.6,0.2,2.1,0.2c0.4,0,0.7,0,0.9-0.1c4.8-0.7,7.8-1,12.1-1
			c1.1,0,2.4,0,3.7,0c0.6,0,1.3,0,1.9,0c4.5,0,8.2-0.3,10.1-0.9c1.4-0.4,2.6-1.1,3.6-2.1c3.1-3.9,2.2-8.4,1.9-10
			c-0.1-0.6-0.3-1.1-0.5-1.6c-0.1-0.1-0.1-0.3-0.2-0.4c0,0,0-0.1-0.1-0.1c-1.8-4.5-8.5-2.1-9.5-2.1c-0.1-0.7-0.2-2.1-0.3-3l-0.1-1.1
			c-0.2-2.2-0.4-4.2-0.7-7c-2.4-24.3-4.5-48.1-3.5-72.2c0.8,0.9,1.8,1.7,3,2.4c3,1.8,6.7,2.8,10.8,3.1c1.2,0.1,2.5,0.1,3.8,0.1
			c0,0,0,0,0,0c15.3,0,29.4-6.8,36.7-17.7c8.9-13.3,13.9-30.4,14.8-50.8c0.7-14.7-0.7-25.8-4.4-36C777,800.6,768.8,794.5,760,794z
			 M759.9,840.7c-0.8,8.4-2,16.5-3.8,24.7c-1.6,7.4-3.9,14.4-6.6,20.3c-2.9,6.3-9.6,10.2-17.4,10.2c-0.6,0-1.1,0-1.7-0.1
			c-0.4,0-1.8-0.2-4.9-1.5c-2.7-1-4.7-1.6-6.1-1.7c-0.1,0-0.2,0-0.3,0c-0.9,0-1.8,0.2-2.6,0.7c2.3-16.1,5.8-34.4,12.5-52.7
			c4.3-11.8,10.4-24.4,22.2-28.6c0.5-0.1,1-0.2,1.5-0.2c1,0,3.9,0,5.7,6.4C760.1,824.5,760.6,832.4,759.9,840.7z"/>
		<path class="st13" d="M1002.7,843.8c-0.9-6.1-4.2-11.1-9.6-15.1c-5.3-3.8-11.6-6-19-6.7c-1.4-0.1-2.8-0.2-4.2-0.2
			c-5,0-9.9,0.8-14.7,2.5c-6.1,2.2-11.3,5.7-15.3,10.6c-7.5,8.1-12.9,15.7-16.5,23.3c-4.9,10.3-8.7,21.4-12.4,32.1
			c0,0.1-0.1,0.2-0.1,0.3c0-0.1,0-0.3,0-0.4l0.1,0.1c1.2-12.4,3.1-25.9,6-40.3c1.8-8.7,3.8-17,6-24.7c0.5,0.1,1,0.2,1.5,0.2
			c0.6,0.1,1.2,0.1,1.7,0.1c6.1,0.6,7.8-3,8.3-5.2c0.5-2.2,0.1-4.2-0.9-5.7c-1.1-1.6-2.7-2.6-4.7-3l-0.7-0.1l-0.1,0
			c-5.5-0.4-10.6-0.8-15.4-1.4c-6.4-0.7-12.3-1.6-18-2.7c-0.1,0-0.1,0-0.2,0c-0.6-0.1-1.4,0-2.4,0.3l-0.1,0l-0.1,0
			c-2.4,0.9-3.9,2.8-4.4,5.5c-0.3,1.5-0.2,3,0.3,4.6c0.6,1.9,2.7,3.3,6.5,4l4.7,0.7c-3.1,8.8-11.9,43.4-13.2,70.4c0,0.1,0,0.2,0,0.3
			c-1.3,18.3-1.7,36.3-1.8,51.7v0.1c-0.2,16.1-0.4,32.8,1.2,49.2l-1.4-0.1c-0.1,0-0.2,0-0.3,0c-1.2,0-2.4,0.6-3.6,1.7
			c-1.3,1.2-2,2.9-2.2,4.9c-0.4,4.6,2.2,7.3,7.2,7.7h0.1c6.8,0.1,10.2,0.1,17,0.2h0c5.1-0.1,7.6-0.1,12.7-0.2
			c1.8-0.1,3.3-0.7,4.6-1.7c1.3-1.1,2.1-2.6,2.3-4.5c0.2-2.2-0.2-4.1-1.3-5.5c-1.1-1.4-2.7-2.3-4.5-2.4l-0.8-0.1l-0.1,0
			c-1.1,0.1-2.3,0.2-3.4,0.2c-0.4,0-0.9,0-1.3,0c0-1.5-0.1-2.9-0.1-4.4c-0.2-6.2-0.4-12.6-0.2-18.8c17.8,7.5,35.4,16.4,52.5,25.1
			c4.1,2.1,8.2,4.2,12.4,6.3c0.7,0.3,1.7,0.6,2.9,0.7c0.4,0,0.8,0.1,1.2,0.1c1.5,0,2.9-0.3,4.2-0.8c1.8-0.7,3-1.9,3.7-3.4l0.1-0.2
			l0.1-0.5c1.6-7.2-2.1-10.2-5.4-11.5c-6.9-2.6-13.9-6.3-20.6-9.8c-1.7-0.9-3.4-1.8-5.1-2.7c-3.4-1.6-8.7-4.2-15.4-7.5
			c-6.1-3-11.6-5.7-16.9-8.1c17.8-14,36.3-29.1,51.7-45.9c14.6-16,23-30.8,26.5-46.8c0.4-1.9,0.8-4.6,1.1-7.9
			C1003.2,852.1,1003.2,847.4,1002.7,843.8z M977.6,855c-0.1,1.6-0.4,2.8-0.6,3.7l0,0.1l0,0.1c-3.2,15.4-10.7,30.6-23.6,47.9
			c-11,14.7-25,28-40.6,38.8c0.5-2.6,1.1-5.8,1.7-9.4c0.9-5.4,1.6-10.1,2.2-14.1c4.7-19.6,11-42.2,22.3-61.7
			c10.8-18.6,21.9-22.6,29.3-22.6h0.7c3.3,0.1,5.6,1.7,7.1,4.8C977.5,845.9,978.1,850.1,977.6,855z"/>
	</g>
</g>
</svg>
