<?xml version="1.0" encoding="utf-8"?>
<!-- Generator: Adobe Illustrator 23.0.3, SVG Export Plug-In . SVG Version: 6.00 Build 0)  -->
<svg version="1.1" id="Layer_1" xmlns="http://www.w3.org/2000/svg" xmlns:xlink="http://www.w3.org/1999/xlink" x="0px" y="0px"
	 viewBox="0 0 1133.9 1133.9" style="enable-background:new 0 0 1133.9 1133.9;" xml:space="preserve">
<style type="text/css">
	.st0{fill:#1E2121;}
	.st1{fill:#A81F26;}
	.st2{fill:#F2F1F2;}
	.st3{fill:#DD353A;}
	.st4{fill:#CFCFCE;}
	.st5{fill:#1D2121;}
	.st6{fill:none;}
	.st7{fill:#AA1F23;}
	.st8{fill:#FDFEFE;}
	.st9{fill:#EE742C;}
	.st10{fill:#BA5234;}
	.st11{fill:#ED1C24;}
	.st12{fill:#C42C3A;}
	.st13{fill:#058743;}
	.st14{fill:#0F4D70;}
	.st15{fill-rule:evenodd;clip-rule:evenodd;fill:#C42C3A;}
	.st16{fill-rule:evenodd;clip-rule:evenodd;fill:#1E2121;}
	.st17{fill:#E8E8E8;}
	.st18{fill:#186634;}
	.st19{fill:#BF2730;}
	.st20{fill:#B47A48;}
	.st21{fill:#3E1E14;}
	.st22{fill:#DBAD5D;}
	.st23{fill:#B84947;}
	.st24{fill:#C3976E;}
	.st25{fill:#9D2023;}
	.st26{fill:#3C2517;}
	.st27{fill:#4A3A31;}
	.st28{fill:#EDAD4F;}
	.st29{fill:#F8C018;}
</style>
<g>
	<path class="st1" d="M386.6,509c1.3-3.5,1.7-7.8,1-12.1c-0.8-5-2.9-9.4-5.8-12.4c0-4-1.4-8.4-3.9-12.3c-0.7-1-1.4-2-2.2-3
		c-1.8-2.2-3.9-3.9-6.1-5.1c-2.1-10.8-8.7-35.3-27.4-61.5c-25-35.2-122.1-68.7-170.2-34.2c-48.1,34.5-70.1,104.6-70.1,104.6l-2.5,6
		c-0.1,0-0.3,0-0.4,0c-1.1,0-2.2,0.2-3.3,0.5c-0.7-1-1.6-1.9-2.6-2.7c-0.9-0.7-1.9-1.2-3-1.6c-1.2-0.4-2.5-0.6-3.8-0.6
		c-3.2,0-6.2,1.3-8.3,3.6c-1.3-0.5-2.7-0.8-4-0.8c-4.8,0-8.9,3-10.6,7.3c-6.2,0.1-11.2,5.2-11.2,11.5c0,0.4,0,0.7,0.1,1.1
		c-2.4,1.7-4,4.2-4.5,7c-0.2,0.7-0.3,1.5-0.3,2.2c0,1.6,0.3,3.1,0.9,4.5c-1.1,1.2-1.9,2.7-2.4,4.3c-0.3,1.1-0.5,2.2-0.5,3.2
		c0,3.6,1.7,6.9,4.5,9c0.4,3.2,2.1,5.9,4.7,7.8c0,0.1,0,0.3,0,0.4c0,5.5,3.9,9.9,9.3,10.8c2,3.5,5.5,5.7,9.7,5.7
		c1.5,0,2.9-0.2,4.2-0.7c2.1,1.8,4.7,2.9,7.5,2.9c2.3,0,4.4-0.6,6.2-1.8c1.8,1,3.8,1.6,5.8,1.6c5.2,0,9.6-3.5,11-8.2
		c0.1,0,0.3,0,0.4,0c6.3,0,11.4-5.1,11.4-11.4c0-1-0.1-2-0.4-2.9c3.3-2.1,5.4-5.7,5.4-9.7c0-2.1-0.6-4.2-1.7-6
		c1.1-1.8,1.7-3.9,1.7-6c0-3.8-1.9-7.3-5-9.4c0.2-0.8,0.2-1.5,0.2-2.3c0-4.4-2.5-8.3-6.3-10.2c25.9-35.9,58.3-62.4,58.3-62.4
		c-16.9,14.1-24,35-27,51.1c-6.6,4.9-10.5,11.8-10,18c-1.9,4-2.8,8.9-2.5,13.9c0.5,8.2,4.1,15.4,9.3,19c-0.6,3.1-0.6,6.5,0.1,10
		c1.9,9,7.8,15.6,14.2,15.6c0.6,0,1.2-0.1,1.9-0.2c0.6-0.1,1.1-0.3,1.7-0.5c1.6,0.5,3.3,0.8,5.2,1c0.7,0.1,1.4,0.1,2.1,0.1
		c3,0,6-0.5,8.9-1.4c7.2-2.2,12.8-6.6,15.5-11.8c1.2,0.2,2.5,0.3,3.8,0.3c2.9,0,6-0.5,8.9-1.4c6.3-1.9,11.6-5.7,14.6-10.2
		c3.4,1.8,7.6,2.8,12.1,2.8c1.5,0,3-0.1,4.4-0.3c5.6-0.8,10.8-3.1,14.5-6.3c4.2,3.3,10.1,5.2,16.6,5.2c5.6,0,10.9-1.5,15-4.1
		c4.2,3.1,10,4.9,16.3,4.9c5.8,0,11.3-1.6,15.4-4.3c4.1,3.9,10.6,6.2,17.8,6.2c3.4,0,6.8-0.5,9.8-1.6c2.7,4.7,7.9,8.7,14.1,11
		c3.4,1.2,6.9,1.9,10.2,1.9c7.9,0,14.1-3.5,16.2-9.2c0.5-1.3,0.7-2.6,0.7-4c4-3.4,6.1-9.9,5.5-17C387.6,512.6,387.2,510.8,386.6,509
		z"/>
	<g>
		<path class="st2" d="M383.4,509.5c-0.1-0.4-0.1-0.8,0-1.2c1.2-3,1.6-6.8,1-10.9c-0.8-4.7-2.8-8.6-5.3-11c-0.4-0.3-0.6-0.8-0.5-1.3
			c0.1-3.4-1-7.4-3.4-11.1c-0.6-0.9-1.3-1.8-2-2.6c-2.2-2.6-4.7-4.4-7.2-5.3c-0.5-0.2-0.8-0.5-1-1c-2-5.1-8.1-9.5-15.9-11
			c-6-1.1-11.7-0.3-15.7,2c-0.6,0.3-1.3,0.2-1.8-0.2c-3.5-2.7-8.7-4.5-14.6-4.5c-5.4,0-10.2,1.5-13.7,3.8c-0.6,0.4-1.4,0.4-1.9-0.1
			c-3.5-3-9-5-15.1-5c-6.3,0-11.9,2-15.4,5.2c-0.6,0.5-1.5,0.6-2.1,0c-3.5-2.9-8.9-4.8-14.9-4.8c-6.8,0-12.7,2.3-16.1,5.9
			c-0.5,0.5-1.3,0.6-1.9,0.3c-3.7-2.2-8.8-3.3-14.3-2.8c-6.9,0.6-12.7,3.6-15.7,7.6c-0.5,0.6-1.3,0.9-2,0.5
			c-4.7-2.2-10.8-3.2-17.4-2.6c-11.6,1-20.8,6.8-22.9,13.5c-0.2,0.7-0.8,1.1-1.5,1.1c-3.7,0.1-7.8,1.3-11.7,3.6
			c-7.6,4.4-12,11.5-11.3,17.2c0,0.3,0,0.6-0.1,0.9c-1.7,3.5-2.6,7.9-2.3,12.7c0.5,7.8,4,14.4,8.7,17c0.6,0.4,1,1.1,0.8,1.8
			c-0.8,2.8-0.9,6.2-0.1,9.7c1.7,8.2,7.1,13.9,12.2,12.9c0.8-0.2,1.5-0.5,2.1-0.9c1.7,0.7,3.6,1.1,5.7,1.3c3.1,0.2,6.4-0.1,9.8-1.2
			c6.9-2.1,12.1-6.5,14.1-11.1c0.3-0.7,1-1.1,1.8-1c3.7,0.7,8,0.5,12.4-0.8c6.3-1.9,11.2-5.7,13.5-10c0.5-0.9,1.6-1.2,2.4-0.6
			c3.9,2.5,9.6,3.7,15.7,2.8c5.7-0.8,10.6-3.2,13.7-6.3c0.6-0.6,1.6-0.7,2.3-0.1c3.5,3.2,9.1,5.3,15.5,5.3c5.6,0,10.6-1.6,14.1-4.2
			c0.6-0.4,1.4-0.4,2,0.1c3.5,3,9,5,15.1,5c5.8,0,11.1-1.7,14.6-4.5c0.7-0.5,1.6-0.4,2.2,0.2c3.3,3.7,9.4,6.2,16.4,6.2
			c3.6,0,7-0.7,9.9-1.9c0.8-0.3,1.7,0,2.1,0.8c2.1,4.3,6.8,8.4,13,10.7c9.9,3.6,19.9,1.2,22.3-5.4c0.4-1.1,0.6-2.3,0.5-3.5
			c0-0.5,0.2-1.1,0.7-1.4c3.4-2.4,5.4-8.2,4.8-14.6C384.3,512.9,384,511.1,383.4,509.5z"/>
		<path class="st2" d="M116.3,502.3c0.6-1.2,1-2.5,1-3.9c0-4.1-2.9-7.4-6.8-8.1c-0.9-1.8-2.5-3.2-4.4-3.9c-1.1-1.9-3-3.4-5.2-3.9
			c-0.6-0.1-1.2-0.2-1.9-0.2c-1.8,0-3.4,0.6-4.7,1.5c-0.5-1.8-1.6-3.3-3-4.4c-0.6-0.5-1.3-0.8-2.1-1.1c-0.8-0.3-1.8-0.5-2.8-0.5
			c-3.2,0-6,1.9-7.3,4.6c-1.4-1.1-3.1-1.7-5-1.7c-4.4,0-7.9,3.4-8.2,7.6c-0.7-0.2-1.5-0.4-2.3-0.4c-4.5,0-8.2,3.7-8.2,8.2
			c0,1,0.2,1.9,0.5,2.8c-2.6,1-4.6,3.3-5.1,6.1c-0.1,0.5-0.2,1-0.2,1.4v0.1c0,1.9,0.7,3.7,1.8,5.1c-1.6,1.1-2.8,2.7-3.4,4.6
			c-0.2,0.7-0.4,1.5-0.4,2.3c0,3.1,1.8,5.9,4.5,7.3c0,0.1,0,0.2,0,0.3c0,3.5,2.2,6.4,5.2,7.6c-0.3,0.8-0.5,1.2-0.5,2.1
			c0,4.5,3.7,7.8,8.2,7.8c1.2,3.6,4.1,5.5,7.6,5.5c1.8,0,3.5-0.4,4.9-1.5c1.5,2.2,4,3.7,6.8,3.7c2.5,0,4.6-1,6.2-2.7
			c1.5,1.5,3.6,2.5,5.9,2.5c4.5,0,8.2-3.7,8.2-8.2c0-0.2,0-0.4-0.1-0.7c1,0.4,2.1,0.7,3.2,0.7c4.5,0,8.2-3.7,8.2-8.2
			c0-1.7-0.5-3.3-1.4-4.6c3.7-0.8,6.5-4.1,6.5-8c0-2.4-1-4.5-2.6-6c1.6-1.5,2.6-3.6,2.6-6C122.1,506.5,119.7,503.4,116.3,502.3z"/>
	</g>
	<g>
		<path class="st0" d="M646,713.2c-8,21.8-22.5,44.1-50.3,41c-25.7-3.6-52.4-44.6-51.9-104.2c3.2-95.9,34.8-106.3,58.3-109.4
			c21.4-2.1,36.4,21.8,42.3,33.7c10.7,25.9,61.5,17.1,54.6-20.2c-2.7-14.5-15.5-75.2-96.8-77.2c-57.2-1.6-155.7,36.3-156.8,172.1
			c-1.1,127,78.1,166.4,141.8,166.9c78.1-3.1,116.6-47.7,119.3-82.4C709.7,693.5,654.6,688.8,646,713.2z"/>
		<path class="st0" d="M952.6,505.3c-36.4-27.4-111.3-34.8-194.7-21.1c-28.4,4.7-30.5,54.3,1.6,53.2c0.5,0-0.5,4.2-0.5,4.2
			c0,9.5-26.8,176.6,16.6,256.8c32.1,45.3,137.5,5.3,168-17.9C1019.5,726.2,1062.8,587,952.6,505.3z M849.9,757.3
			c-5.4-14.2-0.5-189.3,3.2-223c7-3.2,91,15.8,94.2,97.5C948.9,668.2,937.1,728.3,849.9,757.3z"/>
		<path class="st0" d="M365.4,548.8c-3.8,0-7.8-0.7-11.6-2.1c-5.5-2-10.4-5.3-13.8-9.3c-0.4-0.5-1-0.7-1.6-0.6
			c-2.3,0.5-4.7,0.7-7.1,0.7c-6.5,0-12.7-1.7-17.4-4.8c-0.5-0.3-1.1-0.4-1.6-0.1c-4.2,2-9.1,3-14.2,3c-5.8,0-11.2-1.3-15.7-3.8
			c-0.5-0.3-1-0.3-1.5-0.1c-4.2,1.9-9,3-14,3c-5.7,0-11.1-1.3-15.6-3.7c-0.5-0.3-1.2-0.3-1.7,0.1c-3.8,2.4-8.4,4-13.2,4.7
			c-1.7,0.2-3.4,0.4-5,0.4c-3.5,0-6.8-0.5-9.8-1.5c-0.6-0.2-1.3,0-1.7,0.4c-3.6,3.7-8.4,6.6-13.9,8.3c-3.4,1-6.8,1.6-10.1,1.6
			c-0.5,0-1.1,0-1.6,0c-3.6,5.1-9.4,9.2-16.5,11.4c-3.3,1-6.7,1.5-10.1,1.5c-0.8,0-1.7,0-2.5-0.1c-1.6-0.1-3.2-0.4-4.7-0.7
			c-0.3,0.1-0.7,0.2-1,0.3c-0.9,0.2-1.8,0.3-2.7,0.3c-5.7,0-11-3.6-14.6-9.4c-20.1,32.8-27.5,71.3-27.5,107.9
			c0,143.4,95.8,165.3,153,164.8c72.2,1.1,138-61,138.6-166.4c0.3-43.1-7-81.4-25.6-110.7C376.9,547,371.5,548.8,365.4,548.8z
			 M270.9,755.5c-43.9,0.5-59.9-57.8-59.9-97.4c0-40.7,13.9-110.7,60.5-112.4c32.1,1.1,64.7,27.8,64.7,112.9
			C336.7,720.2,299.8,755,270.9,755.5z"/>
		<path class="st0" d="M464.5,450.6c-3.2,0-4.6-0.2-7.8-0.2c1.8-21.7-1.8-104.2-2.5-113.3c1.6,0,5.7-0.2,7.3-0.2
			c7.1-1.1,4.3-13-1.1-12.3c-5.7,0.5-30.4,0.9-40.9,2.7c-3.9,1.4-2.5,11.2,1.6,10.7c3.2,0.5,0,0.7,6.2,0c0.5,16-1.1,80.4,5.5,115.8
			c-2.3,0.7-4.8,1.4-6.4,2.1c-2.3,1.1-2.3,8.2,2.3,9.1c9.8-0.7,31.8-3.2,36.3-4.1C469.7,460.4,468.1,450.6,464.5,450.6z"/>
		<path class="st0" d="M574.3,456.3c3.4-24.7,20.3-69.2,29.7-69.2c18.7,0.9,3,58.5,0.9,68.8c-1.8,10.7,25.8,13,28.1,5.7
			c11.2-36.1,18.5-95.3-22.8-95.3c-10.3,0-21.7,6.2-32.4,38.8c0-16.7,6.6-59.6,8-69.9c1.4-10.3-29.7-15.5-31.5-4.8
			c-2.5,9.8-13.3,72.2-5.9,125C550.3,464.6,572.9,461.1,574.3,456.3z"/>
		<path class="st0" d="M757.5,465.5c15.8-0.7,29.5-15.5,32.7-26c1.4-6.4-10.3-10.7-11.9-6.2c-2.5,6.9-10.1,17.4-18.7,17.1
			c-9.6-0.2,12.6-111.5,13.5-115.8c2.5-11.7-30.4-13.5-32-4.3c-0.9,5.5-1.4,7.3-2.1,11c-22.6-5-91.2-1.1-80.2,77.7
			c3.4,24.7,39.5,56.4,71.5-13.3C723.9,471.6,752.2,465.2,757.5,465.5z M688.3,410.6c-0.7-26.7,17.6-56.7,48.2-56
			C732.8,380.7,691.5,459.8,688.3,410.6z"/>
		<path class="st0" d="M840.2,463.2c3,5.5,19.9,1.4,21.5-5.9c0-3.2,25.1-110.6,28.3-127.3c0.5-5.9-14.2-8.2-15.1-1.6
			c-3.2,19.2-21.9,102.1-23.5,109.4c0,0-22.8-98.2-24.4-102.4c-3.7-13-36.3-8.7-34,0.9C795.4,346,822.2,436,840.2,463.2z"/>
		<path class="st0" d="M946.7,458.2c22.4,0,37-24.7,39.8-42.5c0.9-6.9-16.4-7.5-17.1-3c0,3.2-10.3,29-21.7,29s-17.8-3.2-17.8-48.9
			c1.6,0,40.2-3.9,52.3-5.5c14.2-2.1,4.8-58-33.4-57.8c-32.7,0.2-50.9,33.4-51.2,68.8C897.3,430.1,910.8,458.2,946.7,458.2z
			 M949.6,351.2c17.4,0,27.2,19.6,17.4,21.5c-9.4,1.6-30.6,2.7-37,3.4C930,366.3,932.3,351.2,949.6,351.2z"/>
	</g>
	<g>
		<path class="st0" d="M154.8,851.4c-0.3-2.4-0.6-4.9-0.9-7.6c-0.4-2.7-1-5.3-2-7.9c-0.9-2.6-2.3-5-4-7.2c-1.7-2.2-4.1-4.1-7.2-5.5
			c-1.2-0.5-2.3-0.9-3.4-1.1c-1.1-0.2-2.2-0.3-3.2-0.3c-1.2,0-2.3,0.1-3.4,0.3c-1,0.2-2,0.4-2.8,0.7c-0.9,0.3-1.8,0.7-2.5,1
			c-2.1,0.8-3.9,2.1-5.3,3.7c-1.4,1.6-2.6,3.5-3.4,5.5c-0.9,2-1.5,4.1-1.9,6.4c-0.4,2.2-0.7,4.4-0.9,6.5c-0.2,2.1-0.2,4.1-0.2,5.9
			c0,1.8,0.1,3.3,0.2,4.4c0.4,4.4,1,8.2,1.8,11.3c0.8,3.1,1.7,5.7,2.8,7.9c1,2.1,2.2,3.8,3.4,5.1c1.2,1.3,2.3,2.3,3.4,3
			c1.1,0.7,2.1,1.3,3,1.6c0.9,0.3,1.5,0.6,2,0.8c1.6,0.6,3.3,0.9,5,0.9c2.1,0,4.3-0.4,6.3-1.1c2.1-0.8,3.8-1.7,5.2-3
			c2-1.8,3.6-3.6,4.9-5.6c1.3-1.9,2.3-4.1,2.9-6.6c0.6-2.4,1-5.2,1-8.3C155.6,859.1,155.4,855.5,154.8,851.4z M143.8,873.1
			c-0.2,2.4-0.7,4.4-1.4,6.1c-0.8,1.7-1.9,2.7-3.5,3c-1.8,0.3-3.4,0-4.7-0.8s-2.4-1.9-3.3-3.4c-0.9-1.4-1.6-3.1-2.1-5
			c-0.5-1.9-0.9-3.8-1.2-5.7c-0.3-1.9-0.5-3.7-0.6-5.5c-0.1-1.7-0.2-3.1-0.3-4.3c0-1.3-0.2-3-0.4-5.2c-0.2-2.2-0.3-4.5-0.4-7
			c-0.1-2.5,0-5,0.3-7.6c0.2-2.5,0.8-4.8,1.5-6.9c0.6-1.3,1.4-2.3,2.4-2.9c1-0.6,2.1-0.9,3.3-0.9c1.2,0,2.3,0.4,3.4,1.1
			c1.1,0.7,1.8,1.8,2.3,3.1c0.5,1.5,1,3.3,1.3,5.2c0.3,2,0.7,4.1,0.9,6.3c0.3,2.2,0.6,4.5,0.8,6.8c0.2,2.3,0.5,4.6,0.7,6.8
			c0.4,2.9,0.7,5.8,0.9,8.7C144,868,144,870.7,143.8,873.1z"/>
		<path class="st0" d="M194.4,862c-0.1-1.4-0.4-2.8-0.8-4.3c-0.4-1.5-1-2.9-1.8-4.1c-0.8-1.2-1.7-2.3-2.7-3.1
			c-1.1-0.8-2.3-1.2-3.7-1.2c-1.5,0-3.1,0.6-4.8,1.7c-1.3,0.9-2.6,2.2-3.9,4c-1.3,1.8-2.4,3.6-3.4,5.5c-1,1.9-1.8,3.6-2.5,5.1
			c-0.7,1.5-1.1,2.5-1.3,2.9c-0.3-3-0.5-6.4-0.7-10.1c-0.1-3.8-0.2-7.5-0.2-11.3s0-7.3,0-10.7c0-3.4-0.1-6.2-0.2-8.5
			c0-1.7-0.5-3-1.7-3.9c-1.1-0.9-2.3-1.3-3.7-1.3c-1.4,0-2.7,0.5-3.9,1.4c-1.2,0.9-1.8,2.3-1.9,4v4.6c0,2.5,0,5.4,0.1,8.9
			c0.1,3.5,0.2,7.2,0.5,11.4c0.2,4.1,0.6,8.2,1.1,12.2c0.5,4,1.1,7.8,1.8,11.3c0.7,3.5,1.7,6.4,2.8,8.6c0.6,1.1,1.4,1.7,2.4,1.7
			c0.9,0,1.9-0.4,2.8-1.3c0.9-0.9,1.6-2.2,2-4c0.2-1,0.3-1.9,0.5-2.6c0.2-0.8,0.4-1.6,0.7-2.6c0.3-1,0.6-2,1.1-3
			c0.5,1.4,1.1,2.8,1.6,4.1c0.5,1.3,1.2,2.5,1.9,3.6c0.7,1.1,1.5,2,2.4,2.7c0.9,0.7,1.9,1.2,3.1,1.4c1.9,0.3,3.5,0.1,4.9-0.5
			s2.5-1.6,3.5-2.9c0.9-1.3,1.7-2.8,2.3-4.5c0.6-1.7,1-3.5,1.3-5.3c0.3-1.8,0.5-3.6,0.5-5.3C194.5,864.8,194.5,863.3,194.4,862z
			 M185.9,875.9c-0.2,1.2-0.5,2.3-0.9,3.3c-0.4,1-1.1,1.7-1.8,2.2c-0.5,0.2-1,0.1-1.5-0.4c-0.5-0.5-1-1.2-1.5-2.1
			c-0.5-0.9-1-2-1.4-3.2c-0.4-1.2-0.9-2.4-1.3-3.6c-0.4-1.2-0.7-2.3-1.1-3.3c-0.3-1-0.6-1.8-0.7-2.3c1-2.3,2.1-4.2,3.2-5.9
			c1.1-1.7,2-2.9,2.7-3.7c0.6,0.5,1.2,1.3,1.7,2.4c0.5,1.1,0.9,2.1,1.2,3.3c0.3,1.1,0.6,2.2,0.8,3.3c0.2,1,0.3,1.9,0.4,2.4
			c0.2,1.3,0.3,2.6,0.4,3.9C186.1,873.5,186,874.7,185.9,875.9z"/>
		<path class="st0" d="M223.5,876c-0.1,1.4-0.5,2.7-1.1,3.8c-0.6,1.2-1.3,2.2-2.1,3c-0.8,0.9-1.6,1.5-2.2,2c-1,0.7-2.1,1.2-3.2,1.5
			c-1.1,0.3-2.2,0.4-3.3,0.4c-2.2,0-4.3-0.5-6.3-1.5c-2-1-3.6-2.3-4.9-3.9c-1.3-1.6-2-3.3-2.3-5.2c-0.3-1.9,0.2-3.8,1.5-5.5
			c0.5-0.7,1-1,1.7-1c0.7,0,1.3,0.4,1.8,1.2c0.5,0.8,0.5,1.7-0.1,2.7c-0.5,0.8-0.5,1.7-0.2,2.6c0.3,1,0.9,1.9,1.7,2.7
			c0.8,0.9,1.8,1.6,2.9,2.2c1.1,0.6,2.3,0.9,3.5,0.9c1.2,0,2.2-0.3,3.2-0.9c1.4-1.2,1.5-2.8,0.4-4.9c-1.2-2-3.6-4.4-7.2-7.1
			c-1.5-1.1-3-2.3-4.3-3.6c-1.4-1.3-2.5-2.7-3.5-4.1c-0.9-1.3-1.4-2.6-1.6-4c-0.2-1.4-0.1-2.8,0.4-4.2c0.4-1.4,1.1-2.6,2.1-3.9
			c1-1.2,2.3-2.2,3.8-3.1c0.9-0.5,2-0.9,3.1-1.3c1.2-0.3,2.3-0.5,3.5-0.5c1.3,0,2.6,0.2,3.7,0.6c1.2,0.4,2.2,1.1,3,2
			c1.5,1.6,2.3,3.3,2.5,5.2c0.2,1.8,0.2,3.7-0.2,5.6c-0.1,0.6-0.3,1-0.7,1.3c-0.4,0.3-0.8,0.4-1.3,0.4c-0.7,0-1.4-0.3-2-0.8
			c-0.6-0.5-0.8-1.3-0.7-2.2c0.1-0.8,0.2-1.7,0.4-2.7c0.2-1,0-1.8-0.5-2.6c-0.4-0.7-1-1.3-1.7-1.6c-0.7-0.3-1.5-0.5-2.2-0.5
			c-0.7,0-1.5,0.1-2.2,0.4c-0.7,0.2-1.4,0.5-2.1,0.9c-0.9,0.6-1.3,1.5-1,2.6c0.3,1.1,0.8,2.2,1.7,3.4c0.9,1.2,1.9,2.3,3.1,3.4
			c1.2,1.1,2.2,2,3.1,2.6c2.1,1.8,4,3.4,5.5,4.8c1.5,1.4,2.7,2.9,3.4,4.4C223.4,873.2,223.6,874.6,223.5,876z"/>
		<path class="st0" d="M253.5,873.1c-0.4-0.4-0.9-0.5-1.5-0.5c-0.5,0-1,0.2-1.5,0.6s-0.6,1-0.6,1.7c0,1.3-0.1,2.5-0.5,3.5
			c-0.4,1-0.9,1.9-1.5,2.6c-0.6,0.7-1.3,1.2-2.1,1.6c-0.8,0.4-1.6,0.6-2.4,0.7c-1.1,0.2-2.1,0.1-2.8-0.3c-0.8-0.4-1.5-0.9-2-1.6
			c-0.6-0.7-1-1.5-1.3-2.4c-0.3-0.9-0.5-1.9-0.7-2.9c-0.4-2.3-0.5-5-0.3-7.9c2.3-1.2,4.4-2.3,6.5-3.3c1.8-0.9,3.6-1.8,5.4-2.7
			c1.8-0.9,3.2-1.6,4.3-2.2c0.4-0.2,0.6-0.8,0.8-1.6c0.1-0.9,0.1-1.9,0-3.1c-0.2-1.2-0.5-2.4-0.9-3.7c-0.5-1.3-1.1-2.5-2-3.7
			c-0.8-1.1-1.9-2.1-3.2-2.8c-1.3-0.7-2.8-1.1-4.5-1.1c-1.2,0-2.5,0.2-4,0.6c-1.4,0.4-3,1.1-4.8,2.1c-1.7,0.9-3.1,2.3-4.1,3.9
			c-1,1.7-1.8,3.5-2.4,5.5c-0.6,2-1,4.1-1.1,6.2c-0.2,2.2-0.3,4.2-0.3,6.2c0,2.4,0.4,4.7,1.2,7c0.8,2.2,1.9,4.2,3.3,5.9
			c1.4,1.7,3.1,3,5,4c1.9,1,4,1.4,6.3,1.3c3.8-0.2,6.8-1.2,9-3c2.2-1.9,3.3-4.8,3.3-8.9C254.1,874,253.9,873.5,253.5,873.1z
			 M240.3,851.9c0.9-0.9,2.1-1.3,3.6-1.3c0.8,0,1.5,0.2,2.1,0.6c0.6,0.4,1.1,0.9,1.5,1.5c0.4,0.6,0.7,1.4,1,2.2
			c0.2,0.8,0.4,1.7,0.4,2.6c-2,0.9-4,1.9-6.1,2.8s-4.1,1.8-6.1,2.8c0.1-1.1,0.2-2.4,0.4-3.8c0.2-1.4,0.6-2.8,1.1-4.1
			C238.6,853.9,239.3,852.8,240.3,851.9z"/>
		<path class="st0" d="M279.5,867.3c-1.5-1.4-3.4-3.1-5.5-4.8c-0.9-0.6-1.9-1.5-3.1-2.6c-1.2-1.1-2.2-2.2-3.1-3.4
			c-0.9-1.2-1.4-2.3-1.7-3.4c-0.3-1.1,0.1-2,1-2.6c0.6-0.4,1.3-0.7,2-0.9c0.7-0.2,1.5-0.4,2.2-0.4c0.8,0,1.5,0.2,2.2,0.5
			c0.7,0.3,1.3,0.9,1.7,1.6c0.5,0.8,0.6,1.7,0.5,2.6c-0.2,1-0.3,1.9-0.4,2.7c-0.2,0.9,0.1,1.7,0.7,2.2c0.6,0.6,1.3,0.8,2,0.8
			c0.5,0,0.9-0.1,1.3-0.4c0.4-0.3,0.6-0.7,0.7-1.3c0.3-1.9,0.4-3.8,0.2-5.6c-0.2-1.8-1-3.5-2.5-5.2c-0.8-0.9-1.8-1.6-2.9-2
			c-1.2-0.4-2.4-0.6-3.7-0.6c-1.2,0-2.4,0.2-3.5,0.5c-1.2,0.3-2.2,0.7-3.1,1.3c-1.5,0.8-2.8,1.9-3.8,3.1c-1,1.2-1.7,2.5-2.1,3.9
			c-0.4,1.4-0.5,2.8-0.4,4.2c0.2,1.4,0.7,2.8,1.6,4c1,1.5,2.2,2.8,3.5,4.1c1.4,1.3,2.8,2.5,4.3,3.6c3.7,2.7,6.1,5,7.2,7.1
			c1.2,2,1,3.7-0.4,4.9c-1,0.6-2.1,0.9-3.2,0.9c-1.2,0-2.4-0.3-3.5-0.9c-1.1-0.6-2.1-1.3-2.9-2.2c-0.8-0.9-1.4-1.8-1.7-2.8
			c-0.3-1-0.2-1.8,0.2-2.6c0.6-1,0.6-1.9,0.1-2.7c-0.5-0.8-1.1-1.2-1.8-1.2c-0.7,0-1.3,0.3-1.7,1c-1.3,1.8-1.7,3.6-1.5,5.5
			c0.3,1.9,1.1,3.7,2.3,5.2c1.3,1.6,2.9,2.9,4.9,3.9c2,1,4.1,1.5,6.3,1.5c1.1,0,2.2-0.1,3.3-0.4c1.1-0.3,2.2-0.8,3.2-1.5
			c0.7-0.5,1.4-1.1,2.2-2c0.8-0.9,1.5-1.9,2.1-3c0.6-1.2,0.9-2.4,1.1-3.8c0.1-1.4-0.1-2.8-0.8-4.2
			C282.2,870.2,281,868.8,279.5,867.3z M276.4,856.5c0.3-1,0.4-2,0.4-3c0-1-0.1-2-0.4-3.1c-0.1-0.3,0-0.5,0.3-0.6
			c0.3-0.1,0.5,0,0.6,0.4c0.6,2.2,0.6,4.4,0,6.6c-0.1,0.3-0.3,0.4-0.6,0.3C276.4,857,276.3,856.8,276.4,856.5z M261.8,878.3
			c-0.2,0.2-0.5,0.2-0.7,0c-0.7-0.8-1.2-1.7-1.3-2.7c-0.1-1,0-2,0.4-2.9c0.1-0.3,0.3-0.3,0.6-0.2c0.3,0.1,0.4,0.3,0.3,0.6
			c-0.4,0.7-0.6,1.5-0.4,2.3c0.1,0.8,0.5,1.6,1.1,2.2C262,877.8,262,878,261.8,878.3z M277.3,880.1c-0.1,0.3-0.3,0.4-0.6,0.3
			c-0.3-0.1-0.4-0.3-0.3-0.6c0.3-1.1,0.2-2.1,0-3c-0.3-0.9-0.7-1.8-1.4-2.6c-0.6-0.8-1.3-1.5-2.1-2.2c-0.8-0.7-1.5-1.4-2.2-2
			c-1.1-1.1-2.2-2.2-3.3-3.3c-1.1-1.1-2.1-2.2-3.2-3.3c-1.4-1.4-2.5-2.9-3.4-4.4c-0.9-1.5-1.2-3.3-0.9-5.3c0.1-0.3,0.2-0.4,0.6-0.4
			c0.3,0,0.5,0.1,0.5,0.4c-0.2,1.7,0.2,3.4,1.1,5.2c0.9,1.7,2.1,3.3,3.5,4.9c1.4,1.5,2.9,3,4.4,4.4c1.6,1.4,2.9,2.6,4.1,3.8
			c1.2,1.2,2.2,2.4,2.9,3.6C277.7,876.7,277.8,878.3,277.3,880.1z"/>
		<path class="st0" d="M329.1,884.3c0.3,0.7,0.1,1.3-0.6,1.8c-0.7,0.4-1.5,0.7-2.4,0.7c-0.9,0-1.8-0.2-2.7-0.6
			c-0.9-0.4-1.6-1.2-2.2-2.2c-1.7-2.9-3-5.9-3.9-9c-0.9-3-1.5-6-1.8-8.8c-0.3-2.8-0.5-5.5-0.4-7.9c0.1-2.4,0.3-4.5,0.5-6.1
			c0.3-1.1,0.9-1.9,1.9-2.3c0.9-0.4,1.9-0.7,3-0.7c0.7,0,1.5,0.1,2.2,0.3c0.7,0.2,1.4,0.4,1.9,0.7c0.5,0.3,0.9,0.6,1.2,0.9
			c0.3,0.4,0.4,0.8,0.3,1.2c-0.5,1.8-0.9,4-1,6.4c-0.2,2.4-0.1,5,0.1,7.8c0.2,2.8,0.6,5.7,1.3,8.7
			C327.1,878.2,328,881.3,329.1,884.3z"/>
		<path class="st0" d="M317.1,842.3c-0.5-1-0.7-2-0.8-3.1c-0.1-1.1,0.1-2.1,0.5-3c0.4-0.9,1.1-1.7,2-2.4c0.9-0.7,2.1-1,3.5-1.1
			c0.4,0,1,0.2,1.7,0.6c0.7,0.4,1.4,1,2,1.7c0.6,0.7,1,1.6,1.3,2.7c0.3,1,0.2,2.2-0.3,3.5c-0.4,1.1-1.1,2-1.9,3
			c-0.9,0.9-1.9,1.4-3.1,1.5c-1,0.1-2-0.2-3-0.8C318.3,844.1,317.6,843.3,317.1,842.3z"/>
		<path class="st0" d="M311.1,871.8c0.7,1.4,1,2.8,0.8,4.2c-0.1,1.4-0.5,2.7-1.1,3.8c-0.6,1.2-1.3,2.2-2.1,3c-0.8,0.9-1.6,1.5-2.2,2
			c-1,0.7-2.1,1.2-3.2,1.5c-1.1,0.3-2.2,0.4-3.3,0.4c-2.2,0-4.3-0.5-6.3-1.5c-2-1-3.6-2.3-4.9-3.9c-1.3-1.6-2-3.3-2.3-5.2
			c-0.3-1.9,0.2-3.8,1.5-5.5c0.5-0.7,1-1,1.7-1c0.7,0,1.3,0.4,1.8,1.2c0.5,0.8,0.5,1.7-0.1,2.7c-0.5,0.8-0.6,1.7-0.2,2.6
			c0.3,1,0.9,1.9,1.7,2.7c0.8,0.9,1.8,1.6,2.9,2.2c1.1,0.6,2.3,0.9,3.5,0.9c1.2,0,2.2-0.3,3.2-0.9c1.4-1.2,1.5-2.8,0.4-4.9
			c-1.2-2-3.6-4.4-7.2-7.1c-1.5-1.1-3-2.3-4.3-3.6c-1.4-1.3-2.5-2.7-3.5-4.1c-0.9-1.3-1.4-2.6-1.6-4c-0.2-1.4-0.1-2.8,0.4-4.2
			c0.4-1.4,1.1-2.6,2.1-3.9c1-1.2,2.3-2.2,3.8-3.1c0.9-0.5,2-0.9,3.1-1.3c1.2-0.3,2.3-0.5,3.5-0.5c1.3,0,2.6,0.2,3.7,0.6
			c1.2,0.4,2.2,1.1,2.9,2c1.5,1.6,2.3,3.3,2.5,5.2c0.2,1.8,0.2,3.7-0.2,5.6c-0.1,0.6-0.3,1-0.7,1.3c-0.4,0.3-0.8,0.4-1.3,0.4
			c-0.7,0-1.4-0.3-2-0.8c-0.6-0.5-0.8-1.3-0.7-2.2c0.1-0.8,0.2-1.7,0.4-2.7c0.2-1,0-1.8-0.5-2.6c-0.4-0.7-1-1.3-1.7-1.6
			c-0.7-0.3-1.5-0.5-2.2-0.5c-0.7,0-1.5,0.1-2.2,0.4c-0.7,0.2-1.4,0.5-2,0.9c-0.9,0.6-1.3,1.5-1,2.6c0.3,1.1,0.8,2.2,1.7,3.4
			c0.9,1.2,1.9,2.3,3.1,3.4c1.2,1.1,2.2,2,3.1,2.6c2.2,1.8,4,3.4,5.5,4.8C309.2,868.8,310.3,870.2,311.1,871.8z"/>
		<path class="st0" d="M394.6,873.1c-0.4-0.4-0.9-0.5-1.5-0.5c-0.5,0-1,0.2-1.5,0.6c-0.4,0.4-0.6,1-0.6,1.7c0.1,1.3-0.1,2.5-0.5,3.5
			c-0.4,1-0.9,1.9-1.5,2.6c-0.6,0.7-1.3,1.2-2.1,1.6c-0.8,0.4-1.6,0.6-2.4,0.7c-1.1,0.2-2,0.1-2.8-0.3c-0.8-0.4-1.5-0.9-2-1.6
			c-0.5-0.7-1-1.5-1.3-2.4c-0.3-0.9-0.5-1.9-0.7-2.9c-0.4-2.3-0.5-5-0.3-7.9c2.3-1.2,4.4-2.3,6.5-3.3c1.8-0.9,3.6-1.8,5.4-2.7
			c1.8-0.9,3.2-1.6,4.3-2.2c0.4-0.2,0.6-0.8,0.7-1.6c0.1-0.9,0.1-1.9,0-3.1s-0.5-2.4-0.9-3.7c-0.5-1.3-1.1-2.5-2-3.7
			c-0.8-1.1-1.9-2.1-3.2-2.8c-1.3-0.7-2.8-1.1-4.5-1.1c-1.2,0-2.5,0.2-4,0.6c-1.4,0.4-3,1.1-4.8,2.1c-1.7,0.9-3.1,2.3-4.1,3.9
			c-1,1.7-1.8,3.5-2.4,5.5c-0.6,2-1,4.1-1.1,6.2c-0.2,2.2-0.3,4.2-0.3,6.2c0,2.4,0.4,4.7,1.2,7c0.8,2.2,1.9,4.2,3.3,5.9
			c1.4,1.7,3.1,3,5,4c1.9,1,4,1.4,6.3,1.3c3.8-0.2,6.8-1.2,9-3c2.2-1.9,3.3-4.8,3.3-8.9C395.2,874,395,873.5,394.6,873.1z
			 M381.3,851.9c0.9-0.9,2.1-1.3,3.6-1.3c0.8,0,1.5,0.2,2.1,0.6c0.6,0.4,1.1,0.9,1.5,1.5c0.4,0.6,0.7,1.4,1,2.2
			c0.2,0.8,0.4,1.7,0.4,2.6c-2,0.9-4,1.9-6.1,2.8c-2,0.9-4.1,1.8-6.1,2.8c0.1-1.1,0.2-2.4,0.4-3.8c0.2-1.4,0.6-2.8,1.1-4.1
			C379.7,853.9,380.4,852.8,381.3,851.9z"/>
		<path class="st0" d="M361.7,847.9c-0.6,0-1.1,0.2-1.7,0.6c-0.5,0.4-0.8,1-0.9,1.8c-0.2,2.5-0.5,5.1-0.8,7.9
			c-0.3,2.7-0.8,5.5-1.3,8.3c-0.5,2.8-1.1,5.6-1.8,8.3c-0.6,2.8-1.4,5.4-2.2,8c-1.3,0-2.4-0.6-3.1-1.8c-0.8-1.2-1.4-2.7-1.8-4.5
			c-0.4-1.8-0.6-3.9-0.7-6.3c-0.1-2.3-0.1-4.7,0-7c0.1-2.4,0.3-4.6,0.5-6.8c0.2-2.2,0.4-4,0.6-5.5c0.2-1.3-0.2-2.2-1-2.7
			c-0.8-0.6-1.9-0.9-3.1-0.9c-0.8,0-1.6,0.1-2.4,0.3c-0.8,0.2-1.6,0.5-2.4,0.9c-0.8,0.4-1.4,0.9-2,1.4c-0.6,0.5-1,1.2-1.3,1.9
			c-0.9,2-1.4,4.6-1.4,7.5c0,3,0.3,6,1.1,9.1c0.8,3.1,1.9,6,3.5,8.8c1.5,2.8,3.4,5,5.7,6.7c0.4,0.3,0.9,0.6,1.5,0.9
			c0.6,0.3,1.3,0.7,2,1c0.7,0.3,1.5,0.6,2.3,0.8c0.8,0.2,1.6,0.3,2.4,0.3c1,0,1.9-0.2,2.7-0.6c0.8-0.4,1.4-1.2,1.8-2.4
			c0.6-1.5,1.2-3.6,1.8-6.2c0.6-2.6,1.2-5.5,1.8-8.6c0.6-3.1,1.1-6.3,1.6-9.5c0.5-3.3,0.8-6.3,1-9.2c0.1-0.8-0.1-1.4-0.6-1.8
			C362.9,848.1,362.3,847.9,361.7,847.9z M348.4,883c-0.1,0.3-0.3,0.4-0.6,0.3c-0.6-0.3-1.1-0.6-1.5-1.1c-0.2-0.3-0.2-0.5,0.1-0.7
			c0.3-0.2,0.5-0.1,0.7,0.1c0.2,0.3,0.5,0.5,0.9,0.7C348.3,882.5,348.5,882.7,348.4,883z"/>
		<path class="st0" d="M473.6,871c0.3,0.5,0.4,1.1,0.3,1.9c-0.4,2-1,3.9-1.9,5.6c-0.9,1.7-2,3.2-3.3,4.4c-1.3,1.2-2.7,2.2-4.3,2.9
			c-1.6,0.7-3.3,1-5.1,1c-2.2,0-4.2-0.5-6.3-1.5c-2.8-1.4-5.1-2.9-7-4.5c-1.9-1.7-3.4-3.6-4.5-5.9c-1.1-2.3-1.9-4.9-2.4-8
			c-0.5-3-0.7-6.6-0.6-10.8c0-2.3,0.1-4.6,0.4-7.1c0.2-2.5,0.6-4.9,1.3-7.3c0.6-2.4,1.4-4.7,2.4-6.9c1-2.2,2.3-4.1,3.8-5.8
			c1.5-1.7,3.3-3,5.4-4c2.1-1,4.5-1.5,7.3-1.5c1.7,0,3.3,0.3,4.8,0.8c1.5,0.5,2.7,1.4,3.8,2.6c1.1,1.2,1.9,2.6,2.6,4.3
			c0.6,1.7,0.9,3.8,0.9,6.1c0,0.7-0.2,1.3-0.5,1.6c-0.4,0.3-0.8,0.5-1.3,0.5c-0.6,0-1.1-0.3-1.7-0.8c-0.5-0.5-0.8-1.4-0.8-2.6
			c0-3.1-0.7-5.4-2-7c-1.3-1.5-2.8-2.3-4.4-2.3c-0.9,0-1.8,0.3-2.6,0.7c-0.9,0.5-1.6,1.3-2.2,2.3c-1.3,2.4-2.3,5.4-3.3,9.1
			c-0.9,3.7-1.5,7.7-1.8,12c-0.3,4.3-0.2,8.7,0.3,13.3c0.5,4.5,1.4,8.8,2.9,12.9c0.7,1.7,1.6,2.9,2.8,3.7c1.2,0.8,2.5,1.2,3.9,1.2
			c1,0,2.1-0.2,3.1-0.6c1-0.4,2-1,2.9-1.7c0.9-0.7,1.6-1.7,2.2-2.8c0.6-1.1,1-2.3,1.3-3.6c0.2-1.1,0.5-1.9,1-2.4
			c0.4-0.5,0.9-0.8,1.4-0.8C472.8,870.3,473.3,870.5,473.6,871z"/>
		<path class="st0" d="M511,876.6c-0.3,2.3-0.7,4.4-1.3,6.3c-0.3,0.9-0.8,1.6-1.5,2.2c-0.7,0.6-1.5,0.8-2.2,0.8
			c-0.8,0-1.4-0.4-2-1.1c-0.5-0.8-0.7-2.1-0.4-3.9c0.2-1.6,0.3-3.5,0.2-5.7c-0.1-2.3-0.2-4.5-0.5-6.7c-0.3-2.2-0.6-4.3-1-6.2
			c-0.4-1.9-0.9-3.3-1.4-4.1c-0.9,0.7-1.9,1.9-2.9,3.5c-1,1.6-2,3.4-2.9,5.4c-0.9,2-1.9,4.3-2.8,6.6c-0.9,2.4-1.9,4.7-2.8,6.9
			c0.3,2,0,3.6-0.8,4.7c-0.9,1.1-1.8,1.7-3,1.7c-0.7,0-1.4-0.3-2.1-0.8c-0.7-0.6-1.2-1.4-1.5-2.6c-0.6-2.4-1.2-5.3-1.7-8.7
			c-0.5-3.4-1-7.1-1.4-10.9c-0.4-3.8-0.8-7.6-1.1-11.5c-0.3-3.9-0.6-7.4-0.8-10.7s-0.4-6-0.5-8.3c-0.1-2.3-0.2-3.7-0.2-4.4
			c0-1.1,0.2-2.1,0.6-2.9c0.4-0.8,0.9-1.5,1.6-2.1c0.6-0.5,1.3-1,2.1-1.2c0.8-0.3,1.6-0.4,2.4-0.4c1.1,0,2.1,0.3,3,0.9
			c0.9,0.6,1.4,1.4,1.5,2.6c0.1,0.8,0.1,2,0.1,3.8c0,1.7,0.1,3.8,0.1,6.2c0,2.4,0,5,0,7.9s0,5.8,0.1,8.9c0.1,3.1,0.1,6.1,0.2,9.2
			c0.1,3.1,0.2,6,0.4,8.8c0.8-2,1.7-4,2.8-5.9c1.1-1.9,2.3-3.7,3.7-5.4c1.4-1.7,2.9-3.1,4.6-4.4c1.7-1.3,3.5-2.3,5.6-3.1
			c0.9-0.3,1.7,0,2.4,0.9c0.7,0.9,1.3,2.2,1.9,3.9c0.5,1.7,0.9,3.7,1.3,6c0.3,2.3,0.5,4.6,0.6,7C511.4,871.9,511.3,874.3,511,876.6z
			"/>
		<path class="st0" d="M543.2,858.2c0.1,1.2-0.3,2-1.1,2.6c-0.8,0.6-1.6,0.9-2.5,0.9c-0.7,0-1.4-0.2-2-0.7c-0.6-0.4-0.8-1.1-0.8-2
			c0.1-0.4,0.1-1,0.1-2c0-1,0.1-2,0.2-3c-1.3,1.5-2.4,3.4-3.6,5.5c-1.1,2.2-2.1,4.5-3.1,7.1c-0.9,2.5-1.8,5.2-2.5,8.1
			c-0.8,2.8-1.4,5.6-2,8.4c-0.3,1.4-0.8,2.3-1.7,2.9c-0.9,0.6-1.8,0.9-2.7,0.9c-0.7,0-1.4-0.2-2-0.5c-0.6-0.3-0.9-0.8-1-1.4
			c-0.1-0.6-0.2-1.8-0.3-3.7c-0.2-1.8-0.3-3.9-0.5-6.3c-0.2-2.4-0.4-5-0.6-7.8c-0.2-2.8-0.4-5.4-0.5-7.9c-0.2-2.5-0.3-4.7-0.4-6.6
			c-0.1-1.9-0.2-3.3-0.2-4c0-0.9,0.5-1.7,1.4-2.2c0.9-0.5,1.9-0.8,3-0.8c0.6,0,1.2,0.1,1.8,0.3c0.6,0.2,1.1,0.5,1.6,0.8
			c0.5,0.4,0.8,0.8,1.1,1.4c0.3,0.6,0.4,1.3,0.3,2.1c-0.1,1-0.1,2.4-0.3,4.2c-0.1,1.8-0.3,3.7-0.4,5.6c-0.2,2-0.3,3.8-0.4,5.6
			c-0.1,1.8-0.1,3.2-0.1,4.2c0.1-0.9,0.5-2.4,1.1-4.5c0.6-2,1.4-4.2,2.4-6.5c1-2.3,2.2-4.6,3.6-6.9c1.4-2.3,3-4.1,4.7-5.5
			c1-0.8,2.2-1.3,3.7-1.3c0.9,0,1.7,0.2,2.4,0.7c0.7,0.4,1.1,1.2,1.2,2.2c0.1,2,0.1,3.8,0.1,5.3C543.1,855,543.1,856.5,543.2,858.2z
			"/>
		<path class="st0" d="M560.9,884.3c0.3,0.7,0.1,1.3-0.6,1.8c-0.7,0.4-1.5,0.7-2.4,0.7c-0.9,0-1.8-0.2-2.7-0.6
			c-0.9-0.4-1.6-1.2-2.2-2.2c-1.7-2.9-3-5.9-3.9-9c-0.9-3-1.5-6-1.8-8.8c-0.3-2.8-0.5-5.5-0.4-7.9c0.1-2.4,0.3-4.5,0.6-6.1
			c0.3-1.1,0.9-1.9,1.9-2.3c0.9-0.4,1.9-0.7,3-0.7c0.7,0,1.5,0.1,2.2,0.3c0.7,0.2,1.4,0.4,1.9,0.7c0.5,0.3,0.9,0.6,1.2,0.9
			c0.3,0.4,0.4,0.8,0.3,1.2c-0.5,1.8-0.9,4-1,6.4c-0.2,2.4-0.1,5,0.1,7.8c0.2,2.8,0.6,5.7,1.3,8.7
			C558.9,878.2,559.8,881.3,560.9,884.3z"/>
		<path class="st0" d="M590.5,871.8c0.7,1.4,1,2.8,0.8,4.2c-0.1,1.4-0.5,2.7-1.1,3.8c-0.6,1.2-1.3,2.2-2.1,3c-0.8,0.9-1.6,1.5-2.2,2
			c-1,0.7-2.1,1.2-3.2,1.5c-1.1,0.3-2.2,0.4-3.3,0.4c-2.2,0-4.3-0.5-6.3-1.5c-2-1-3.6-2.3-4.9-3.9c-1.3-1.6-2-3.3-2.3-5.2
			c-0.3-1.9,0.2-3.8,1.5-5.5c0.5-0.7,1-1,1.7-1c0.7,0,1.3,0.4,1.8,1.2c0.5,0.8,0.5,1.7-0.1,2.7c-0.5,0.8-0.5,1.7-0.2,2.6
			c0.3,1,0.9,1.9,1.7,2.7c0.8,0.9,1.8,1.6,2.9,2.2c1.1,0.6,2.3,0.9,3.5,0.9c1.2,0,2.2-0.3,3.2-0.9c1.4-1.2,1.5-2.8,0.4-4.9
			c-1.2-2-3.6-4.4-7.2-7.1c-1.5-1.1-3-2.3-4.3-3.6c-1.4-1.3-2.5-2.7-3.5-4.1c-0.9-1.3-1.4-2.6-1.6-4c-0.2-1.4-0.1-2.8,0.4-4.2
			c0.4-1.4,1.1-2.6,2.1-3.9c1-1.2,2.3-2.2,3.8-3.1c0.9-0.5,2-0.9,3.1-1.3c1.2-0.3,2.3-0.5,3.5-0.5c1.3,0,2.6,0.2,3.7,0.6
			c1.2,0.4,2.2,1.1,3,2c1.5,1.6,2.3,3.3,2.5,5.2c0.2,1.8,0.2,3.7-0.2,5.6c-0.1,0.6-0.3,1-0.7,1.3c-0.4,0.3-0.8,0.4-1.3,0.4
			c-0.7,0-1.4-0.3-2-0.8c-0.6-0.5-0.8-1.3-0.7-2.2c0.1-0.8,0.2-1.7,0.4-2.7c0.2-1,0-1.8-0.5-2.6c-0.4-0.7-1-1.3-1.7-1.6
			c-0.7-0.3-1.5-0.5-2.2-0.5c-0.7,0-1.5,0.1-2.2,0.4c-0.7,0.2-1.4,0.5-2,0.9c-0.9,0.6-1.3,1.5-1,2.6c0.3,1.1,0.8,2.2,1.7,3.4
			c0.9,1.2,1.9,2.3,3.1,3.4c1.2,1.1,2.2,2,3.1,2.6c2.2,1.8,4,3.4,5.5,4.8C588.6,868.8,589.8,870.2,590.5,871.8z"/>
		<path class="st0" d="M548.9,842.3c-0.5-1-0.7-2-0.8-3.1c-0.1-1.1,0.1-2.1,0.5-3c0.4-0.9,1.1-1.7,2-2.4c0.9-0.7,2.1-1,3.5-1.1
			c0.4,0,1,0.2,1.7,0.6c0.7,0.4,1.4,1,2,1.7c0.6,0.7,1,1.6,1.3,2.7c0.3,1,0.2,2.2-0.3,3.5c-0.4,1.1-1.1,2-1.9,3
			c-0.9,0.9-1.9,1.4-3.1,1.5c-1,0.1-2-0.2-3-0.8C550.1,844.1,549.4,843.3,548.9,842.3z"/>
		<path class="st0" d="M611.2,842.7c-1.9,0.1-3.7,0.2-5.5,0.4c0.1,1.5,0.1,3.2,0.2,5c0.1,1.8,0.1,3.8,0.2,6c0.1,0.9,0.1,2.1,0.2,3.7
			c0.1,1.6,0.2,3.3,0.4,5.2c0.1,1.9,0.3,3.8,0.5,5.8c0.2,2,0.3,3.9,0.5,5.6s0.3,3.3,0.4,4.6c0.1,1.3,0.3,2.3,0.4,2.8
			c0.1,0.8,0,1.5-0.2,2.1c-0.3,0.6-0.6,1.2-1.1,1.6c-0.4,0.4-1,0.8-1.5,1c-0.6,0.2-1.2,0.4-1.7,0.4c-1.2,0-2.1-0.4-2.8-1.3
			c-0.8-1.2-1.6-2.8-2.2-4.8c-0.6-2-1.1-4.2-1.6-6.7c-0.4-2.4-0.8-5-1.1-7.7c-0.3-2.7-0.5-5.4-0.7-8c-0.2-2.6-0.3-5.1-0.4-7.5
			c-0.1-2.4-0.1-4.4-0.2-6.2l-3.5,0.7c-0.8,0.2-1.4,0-1.9-0.4c-0.5-0.4-0.8-0.9-1-1.5c-0.2-0.6-0.1-1.2,0.1-1.7
			c0.2-0.6,0.7-0.9,1.4-1.1c1.7-0.4,3.3-0.7,4.8-0.9c0-2.5-0.1-4.7-0.1-6.8v-4.5c0-1.1,0.2-2.1,0.6-2.8c0.4-0.8,1-1.5,1.6-2
			c0.6-0.6,1.4-1,2.2-1.2c0.8-0.3,1.6-0.4,2.4-0.4c1.2,0,2.2,0.3,3,0.8c0.9,0.5,1.3,1.4,1.3,2.4c-0.1,2.1-0.2,4.1-0.2,6.1
			c-0.1,1.9-0.1,4.3,0,7c1.8-0.2,3.7-0.3,5.5-0.4c1.8-0.1,3.7-0.2,5.6-0.2c0.8,0,1.4,0.3,1.8,0.8c0.4,0.5,0.6,1.1,0.6,1.7
			c0,0.6-0.2,1.2-0.6,1.7c-0.4,0.5-1,0.7-1.8,0.7C614.9,842.6,613.1,842.6,611.2,842.7z"/>
		<path class="st0" d="M656.6,865.7c-0.1,2.8-0.1,5.7,0.1,8.6c0.2,2.9,0.6,5.6,1.2,8.1c0.1,0.5-0.2,1.1-0.9,1.7
			c-0.7,0.6-1.6,0.9-2.7,0.9c-1,0-2.1-0.5-3.2-1.6c-1.1-1.1-1.8-3.1-2.2-5.9c-0.2-1-0.3-2.4-0.4-4.2c-0.1-1.8-0.2-3.7-0.2-5.7
			c0-2.1,0-4.1,0.1-6.3c0.1-2.2,0.3-4.2,0.6-6.1c-0.8,1-1.7,2.6-2.7,4.5c-1,2-1.8,4.2-2.6,6.6c-0.8,2.4-1.4,5-2,7.6
			c-0.5,2.6-0.8,5.1-0.8,7.6c0,1.7-0.4,3-1.2,3.7c-0.8,0.8-1.7,1.1-2.8,1.1c-1.1,0-2.1-0.4-3.1-1.1c-0.9-0.7-1.5-1.6-1.6-2.8
			c-0.2-1.9-0.3-4-0.4-6.3c-0.1-2.3-0.2-4.6-0.2-7c-0.1-2.4-0.1-4.8-0.2-7.1c-0.1-2.3-0.1-4.5-0.2-6.4c-0.7,1.1-1.5,2.7-2.6,4.8
			c-1,2.1-2,4.4-3,6.8c-0.9,2.4-1.7,4.9-2.4,7.4c-0.7,2.5-1,4.8-0.9,6.8c0,0.9-0.1,1.7-0.2,2.3c-0.2,0.6-0.6,1.2-1.3,1.9
			c-0.7,0.6-1.5,0.9-2.5,0.9c-0.9,0-1.8-0.3-2.6-0.9c-0.4-0.3-0.7-1.2-1.1-2.8c-0.4-1.5-0.7-3.4-1-5.7c-0.3-2.3-0.6-4.8-0.8-7.6
			c-0.3-2.8-0.5-5.5-0.7-8.2c-0.2-2.7-0.3-5.3-0.4-7.7c-0.1-2.5-0.2-4.5-0.2-6.1c0-1,0.5-1.9,1.5-2.5c1-0.6,2.2-0.9,3.4-0.9
			c1.3,0,2.4,0.3,3.5,1c1,0.7,1.6,1.7,1.7,3c0,1.3,0.1,3,0.1,4.9c0,2,0,3.9,0.1,5.8c0,1.9,0,3.6,0,5.2v3.1c0.2-0.8,0.5-1.9,1-3.3
			c0.5-1.4,1-3,1.7-4.6c0.7-1.7,1.4-3.4,2.2-5.1c0.8-1.7,1.7-3.3,2.6-4.7c0.9-1.4,1.9-2.6,2.8-3.5c1-0.9,1.9-1.3,2.9-1.3
			c0.9,0,1.8,0.5,2.4,1.5c0.7,1,1.3,2.3,1.7,3.9c0.5,1.6,0.8,3.4,1.1,5.3c0.2,2,0.4,3.9,0.4,5.8c0.9-2.4,1.8-4.8,2.9-7.2
			c1-2.4,2.4-4.5,4.3-6.4c0.9-0.9,1.8-1.5,2.7-2c0.9-0.4,1.7-0.6,2.5-0.6c1.7,0,3,0.7,4,2.1c1,1.4,1.3,3.1,0.9,5
			c-0.3,1.4-0.5,3.3-0.8,5.7C656.9,860.3,656.7,862.9,656.6,865.7z"/>
		<path class="st0" d="M696.4,883.6c-1.4-5.7-2.2-10.6-2.5-14.8c-0.2-4.2-0.3-7.7-0.1-10.7c0.2-2.9,0.3-5.3,0.5-7
			c0.2-1.8,0-3.1-0.6-3.9c-0.3-0.5-0.7-0.8-1.3-0.9c-0.5-0.2-1.1-0.2-1.7-0.2c-0.6,0-1.1,0-1.7,0.1c-0.5,0.1-1,0.2-1.4,0.3
			c-0.9,0.2-1.7,0.7-2.4,1.4c-0.6,0.8-1.2,1.7-1.6,2.7c-0.5,1-0.8,2.2-1.1,3.3c-0.3,1.2-0.7,2.2-1,3.2c-0.7-1-1.4-2.1-2.2-3.1
			c-0.8-1-1.6-2-2.5-2.8c-0.9-0.8-1.7-1.5-2.6-2c-0.9-0.5-1.8-0.7-2.8-0.7s-1.9,0.3-2.8,0.9c-0.9,0.6-1.8,1.6-2.7,3.1
			c-1.4,2.3-2.5,4.7-3.1,7.3c-0.7,2.5-1.1,5-1.1,7.5c-0.1,2.5,0.1,4.8,0.6,7c0.5,2.2,1.1,4.2,2,5.9c0.9,1.7,1.9,3.1,3.1,4.1
			c1.2,1,2.5,1.5,3.8,1.5c1.2,0,2.4-0.4,3.6-1.2c1.2-0.8,2.3-2.2,3.3-4.3c1-2.1,2-4.4,2.8-6.8c0.8-2.4,1.6-4.8,2.2-7
			c0.7-2.3,1.2-3.9,1.5-5c0,1.8,0,3.9,0.1,6.2c0.1,2.3,0.3,4.7,0.7,7c0.4,2.3,0.9,4.5,1.6,6.5c0.7,2,1.7,3.7,2.9,5
			c0.3,0.3,0.6,0.5,1,0.6c0.4,0.2,0.9,0.2,1.3,0.2c0.5,0,1-0.1,1.6-0.2c0.5-0.2,1-0.4,1.4-0.6c0.4-0.3,0.7-0.6,0.9-1
			C696.4,884.5,696.5,884,696.4,883.6z M677.7,870.9c-0.4,1.2-0.8,2.3-1.2,3.4c-0.4,1.1-0.9,2.1-1.3,2.9c-0.4,0.8-0.8,1.4-1.2,1.9
			c-0.4,0.4-0.8,0.5-1.1,0.4c-0.8-0.4-1.5-1.1-1.9-2.1c-0.4-1-0.7-2.1-0.9-3.4c-0.2-1.3-0.3-2.7-0.3-4.2c0-1.5,0-3,0-4.5
			c0-1,0.1-2.1,0.2-3.4c0.2-1.3,0.4-2.5,0.7-3.6c0.3-1.1,0.7-2.1,1.3-2.9c0.5-0.8,1.1-1.2,1.8-1.2c0.6,0,1.4,0.4,2.2,1.2
			c0.6,0.6,1.1,1.2,1.7,1.9c0.5,0.7,1,1.3,1.5,2c0.5,0.7,0.9,1.4,1.3,2.1C679.5,864.9,678.6,868.1,677.7,870.9z"/>
		<path class="st0" d="M725.6,876c-0.1,1.4-0.5,2.7-1.1,3.8c-0.6,1.2-1.3,2.2-2.1,3c-0.8,0.9-1.6,1.5-2.2,2c-1,0.7-2.1,1.2-3.2,1.5
			c-1.1,0.3-2.2,0.4-3.3,0.4c-2.2,0-4.3-0.5-6.3-1.5c-2-1-3.6-2.3-4.9-3.9c-1.3-1.6-2-3.3-2.3-5.2c-0.3-1.9,0.2-3.8,1.5-5.5
			c0.5-0.7,1-1,1.7-1c0.7,0,1.4,0.4,1.9,1.2c0.5,0.8,0.5,1.7-0.1,2.7c-0.5,0.8-0.5,1.7-0.2,2.6c0.3,1,0.9,1.9,1.7,2.7
			c0.8,0.9,1.8,1.6,2.9,2.2c1.1,0.6,2.3,0.9,3.5,0.9c1.2,0,2.2-0.3,3.2-0.9c1.4-1.2,1.5-2.8,0.4-4.9c-1.2-2-3.6-4.4-7.2-7.1
			c-1.5-1.1-3-2.3-4.3-3.6c-1.4-1.3-2.5-2.7-3.5-4.1c-0.9-1.3-1.4-2.6-1.6-4c-0.2-1.4-0.1-2.8,0.4-4.2c0.4-1.4,1.1-2.6,2.1-3.9
			c1-1.2,2.3-2.2,3.8-3.1c0.9-0.5,2-0.9,3.1-1.3c1.2-0.3,2.3-0.5,3.5-0.5c1.3,0,2.6,0.2,3.7,0.6c1.2,0.4,2.2,1.1,3,2
			c1.5,1.6,2.3,3.3,2.5,5.2c0.2,1.8,0.2,3.7-0.2,5.6c-0.1,0.6-0.3,1-0.7,1.3c-0.4,0.3-0.8,0.4-1.3,0.4c-0.7,0-1.4-0.3-2-0.8
			c-0.6-0.5-0.8-1.3-0.7-2.2c0.1-0.8,0.2-1.7,0.4-2.7c0.2-1,0-1.8-0.5-2.6c-0.4-0.7-1-1.3-1.7-1.6c-0.7-0.3-1.5-0.5-2.2-0.5
			c-0.7,0-1.5,0.1-2.2,0.4c-0.7,0.2-1.4,0.5-2,0.9c-0.9,0.6-1.3,1.5-1,2.6c0.3,1.1,0.8,2.2,1.7,3.4c0.9,1.2,1.9,2.3,3.1,3.4
			c1.2,1.1,2.2,2,3.1,2.6c2.2,1.8,4,3.4,5.5,4.8c1.5,1.4,2.7,2.9,3.4,4.4C725.4,873.2,725.7,874.6,725.6,876z"/>
		<path class="st0" d="M807.3,831.5c-1.3-2.9-3.4-5.5-6.2-7.7c-1.2-0.9-2.4-1.6-3.8-2c-1.4-0.4-2.8-0.6-4.2-0.6
			c-1.3,0-2.5,0.1-3.8,0.4c-1.3,0.3-2.4,0.6-3.5,1.1c-1.1,0.4-2.1,0.9-3,1.5c-0.9,0.5-1.7,1.1-2.2,1.7c0.1-0.6,0.1-1.1,0.1-1.7
			c0-0.4-0.2-0.8-0.4-1.2c-0.2-0.4-0.6-0.7-1.2-0.8c-0.4-0.1-0.9-0.2-1.6-0.2c-0.6,0-1.3,0-2,0c-0.7,0-1.3,0.1-1.9,0.2
			c-0.6,0.1-1.1,0.2-1.5,0.4c-1,0.4-1.7,1-1.8,1.8c-0.2,0.8-0.3,1.8-0.4,3c-0.2,2.6-0.3,5.7-0.2,9.2c0.1,3.5,0.3,7.2,0.6,10.9
			c0.3,3.8,0.7,7.6,1.1,11.4c0.4,3.8,0.9,7.3,1.3,10.5c0.5,3.2,0.9,6,1.3,8.4c0.4,2.4,0.8,4.1,1,5.1c0.4,1.4,1.1,2.4,2.1,3.1
			c1,0.7,2.1,1,3.2,1s2.1-0.3,2.9-0.9c0.8-0.6,1.2-1.5,1.2-2.7c1.9,0.7,4,1.1,6.4,1.1c2.1,0,4.1-0.3,6.1-0.8
			c1.9-0.5,3.5-1.4,4.6-2.6c1.1-1.2,2.2-2.4,3.1-3.9c1-1.4,1.9-3,2.6-4.9c0.8-1.8,1.4-4,1.9-6.4c0.5-2.4,0.9-5.2,1.1-8.3
			c0.2-2.4,0.3-5,0.4-8c0.1-3-0.1-6-0.6-9C809.5,837.4,808.6,834.4,807.3,831.5z M800.7,853.9c-0.1,3.3-0.2,6.3-0.4,8.9
			c-0.1,2.6-0.4,5-0.8,7c-0.4,2-1.1,3.8-1.9,5.2c-0.9,1.4-2.1,2.6-3.7,3.5c-1.5,0.8-2.8,1.2-4.1,1.2c-1.9,0-3.4-0.7-4.4-2.2
			c-1-1.5-1.6-3.2-1.7-5.3c-0.2-1.2-0.4-2.6-0.6-4.3c-0.2-1.7-0.4-3.4-0.5-5.2c-0.2-1.8-0.3-3.7-0.5-5.7c-0.2-2-0.3-3.9-0.4-5.7
			c-0.3-4.4-0.5-8.9-0.8-13.6c-0.1-0.7,0-1.6,0.3-2.5c0.3-0.9,0.6-1.8,1.2-2.6c0.5-0.8,1.2-1.6,2-2.2c0.8-0.6,1.7-1,2.7-1.3
			c2.6-0.4,4.7-0.3,6.4,0.5c1.7,0.8,3,1.9,4.1,3.3c1,1.5,1.8,3.2,2.3,5.2c0.5,2,0.8,3.9,1,5.9c0.2,2,0.2,3.8,0.2,5.6
			C800.8,851.4,800.7,852.8,800.7,853.9z"/>
		<path class="st0" d="M888.8,861.3c-0.3-1.8-0.7-3.5-1.4-5.2c-0.7-1.7-1.5-3.2-2.6-4.6c-0.6-0.8-1.2-1.4-1.7-1.9
			c-0.7-0.9-1.7-1.8-2.8-2.5c-0.1-0.5-0.3-0.9-0.7-1.3c-0.4-0.4-0.9-0.6-1.5-0.6c-2.3-0.2-4.3,0.3-6,1.5c-1.7,1.2-3.1,2.7-4.3,4.6
			c-1.2,1.9-2.1,4-2.8,6.4c-0.7,2.4-1.2,4.8-1.4,7.3c-0.3,2.5-0.4,4.8-0.3,7.1c0.1,2.3,0.3,4.2,0.7,5.7c0.6,2.5,1.9,4.6,3.9,6.3
			c1.9,1.7,4.2,2.6,6.7,2.6c1.9,0,3.7-0.5,5.2-1.4c1.5-0.9,2.9-2.1,4.1-3.5c1.2-1.4,2.2-3,3-4.8c0.8-1.8,1.3-3.5,1.7-5.1
			c0.3-1.7,0.5-3.4,0.5-5.3C889.2,864.9,889.1,863.1,888.8,861.3z M881.8,862.1c-0.1,1.4-0.2,2.7-0.2,3.7c-0.1,2-0.4,4-0.8,6
			c-0.4,2-1.2,3.9-2.2,5.6c-0.5,0.9-0.9,1.5-1.3,1.8c-0.3,0.3-0.9,0.4-1.9,0.2c-1.4-0.3-2.3-1.1-2.8-2.6c-0.5-1.5-0.7-3.1-0.7-5
			c0-1.8,0.2-3.6,0.5-5.4c0.3-1.8,0.6-3.1,0.8-3.9c0.3-1.1,0.7-2.4,1.1-3.9c0.4-1.5,1-2.7,1.8-3.5c0.2-0.2,0.4-0.6,0.8-1.1
			c0.3-0.5,0.7-1.1,1.1-1.7c0.4-0.6,0.8-1.1,1.2-1.5c0.4-0.4,0.8-0.6,1.1-0.5c0.6,0.8,1,1.9,1.2,3.3c0.2,1.3,0.4,2.7,0.4,4.2
			C881.9,859.2,881.9,860.7,881.8,862.1z"/>
		<path class="st0" d="M828.8,884.3c0.3,0.7,0.1,1.3-0.6,1.8c-0.7,0.4-1.5,0.7-2.4,0.7c-0.9,0-1.8-0.2-2.7-0.6
			c-0.9-0.4-1.6-1.2-2.2-2.2c-1.7-2.9-3-5.9-3.9-9c-0.9-3-1.5-6-1.9-8.8c-0.3-2.8-0.5-5.5-0.4-7.9c0.1-2.4,0.3-4.5,0.6-6.1
			c0.3-1.1,0.9-1.9,1.9-2.3c0.9-0.4,1.9-0.7,3-0.7c0.7,0,1.5,0.1,2.2,0.3c0.7,0.2,1.4,0.4,1.9,0.7c0.5,0.3,0.9,0.6,1.2,0.9
			c0.3,0.4,0.4,0.8,0.3,1.2c-0.5,1.8-0.9,4-1,6.4c-0.2,2.4-0.1,5,0.1,7.8c0.2,2.8,0.6,5.7,1.3,8.7
			C826.9,878.2,827.7,881.3,828.8,884.3z"/>
		<path class="st0" d="M858.5,871.8c0.7,1.4,1,2.8,0.8,4.2c-0.1,1.4-0.5,2.7-1.1,3.8c-0.6,1.2-1.3,2.2-2.1,3c-0.8,0.9-1.6,1.5-2.2,2
			c-1,0.7-2.1,1.2-3.2,1.5c-1.1,0.3-2.2,0.4-3.3,0.4c-2.2,0-4.3-0.5-6.3-1.5c-2-1-3.6-2.3-4.9-3.9c-1.3-1.6-2-3.3-2.3-5.2
			c-0.3-1.9,0.2-3.8,1.5-5.5c0.5-0.7,1-1,1.7-1c0.7,0,1.3,0.4,1.8,1.2c0.5,0.8,0.5,1.7-0.1,2.7c-0.5,0.8-0.6,1.7-0.2,2.6
			c0.3,1,0.9,1.9,1.7,2.7c0.8,0.9,1.8,1.6,2.9,2.2c1.1,0.6,2.3,0.9,3.5,0.9c1.2,0,2.2-0.3,3.2-0.9c1.4-1.2,1.5-2.8,0.4-4.9
			c-1.2-2-3.6-4.4-7.2-7.1c-1.5-1.1-3-2.3-4.3-3.6c-1.4-1.3-2.5-2.7-3.5-4.1c-0.9-1.3-1.4-2.6-1.6-4c-0.2-1.4-0.1-2.8,0.4-4.2
			c0.4-1.4,1.1-2.6,2.1-3.9c1-1.2,2.3-2.2,3.8-3.1c0.9-0.5,2-0.9,3.1-1.3c1.2-0.3,2.3-0.5,3.5-0.5c1.3,0,2.6,0.2,3.7,0.6
			c1.2,0.4,2.2,1.1,2.9,2c1.5,1.6,2.3,3.3,2.5,5.2c0.2,1.8,0.2,3.7-0.2,5.6c-0.1,0.6-0.3,1-0.7,1.3c-0.4,0.3-0.8,0.4-1.3,0.4
			c-0.7,0-1.4-0.3-2-0.8c-0.6-0.5-0.8-1.3-0.7-2.2c0.1-0.8,0.2-1.7,0.4-2.7c0.2-1,0-1.8-0.5-2.6c-0.4-0.7-1-1.3-1.7-1.6
			c-0.7-0.3-1.5-0.5-2.2-0.5c-0.7,0-1.5,0.1-2.2,0.4c-0.7,0.2-1.4,0.5-2,0.9c-0.9,0.6-1.3,1.5-1,2.6c0.3,1.1,0.8,2.2,1.7,3.4
			c0.9,1.2,1.9,2.3,3.1,3.4c1.2,1.1,2.2,2,3.1,2.6c2.2,1.8,4,3.4,5.5,4.8C856.6,868.8,857.8,870.2,858.5,871.8z"/>
		<path class="st0" d="M816.9,842.3c-0.5-1-0.7-2-0.8-3.1c-0.1-1.1,0.1-2.1,0.5-3c0.4-0.9,1.1-1.7,2-2.4c0.9-0.7,2.1-1,3.5-1.1
			c0.4,0,1,0.2,1.7,0.6c0.7,0.4,1.4,1,2,1.7c0.6,0.7,1,1.6,1.3,2.7c0.3,1,0.2,2.2-0.3,3.5c-0.4,1.1-1.1,2-1.9,3
			c-0.9,0.9-1.9,1.4-3.1,1.5c-1,0.1-2-0.2-2.9-0.8C818.1,844.1,817.4,843.3,816.9,842.3z"/>
		<path class="st0" d="M956.7,881.8c-0.9-4.5-1.6-8.9-2-13.3c-0.4-4.4-0.8-8.7-0.9-12.7c-0.2-4.1-0.3-7.9-0.2-11.4
			c0-3.6,0.1-6.7,0.2-9.5c0.1-2.8,0.1-5.1,0.2-6.9c0-1.8,0-3-0.2-3.6c-0.3-0.9-0.8-1.5-1.7-1.9c-0.9-0.4-1.8-0.6-2.9-0.6
			c-1.2,0-2.2,0.2-3.2,0.7c-1,0.4-1.6,1.1-1.8,1.9c-0.2,0.7-0.3,1.8-0.4,3.5c-0.1,1.7-0.2,3.6-0.3,5.8c-0.1,2.2-0.1,4.6-0.1,7.1v7.3
			c0,2.4,0,4.5,0.1,6.5c0.1,2,0.1,3.5,0.2,4.6c-0.6-1.1-1.4-2.2-2.2-3.3c-0.8-1.1-1.8-2.1-2.8-3c-1-0.9-2-1.6-3.1-2.2
			c-1.1-0.6-2.2-0.9-3.3-0.9c-1,0-2.1,0.3-3.1,0.9c-1,0.6-2,1.6-3,3c-0.6,0.8-1.1,2.2-1.5,3.9c-0.4,1.8-0.8,3.8-1,6
			c-0.2,2.2-0.2,4.5-0.1,6.9c0.1,2.4,0.5,4.6,1.1,6.7c0.6,2.1,1.5,3.8,2.7,5.3c1.2,1.5,2.7,2.4,4.6,2.7c1.9,0.4,3.6,0.2,4.9-0.5
			c1.3-0.7,2.5-1.6,3.5-2.9c1-1.2,1.8-2.6,2.5-4.2c0.7-1.5,1.3-3,1.9-4.3c0.3,0.9,0.6,2,0.8,3.2c0.2,1.3,0.5,2.5,0.9,3.7
			c0.4,1.2,0.8,2.4,1.4,3.4c0.5,1,1.3,1.8,2.3,2.3c0.6,0.3,1.3,0.5,2,0.5c1.3,0,2.4-0.5,3.3-1.4
			C956.5,884.5,956.9,883.3,956.7,881.8z M942.2,869c-0.2,1.1-0.5,2.2-0.9,3.3c-0.4,1.1-0.8,2.1-1.2,3.1c-0.2,0.3-0.4,0.8-0.7,1.6
			c-0.3,0.7-0.8,1.5-1.3,2.2c-0.5,0.7-1,1.3-1.7,1.8c-0.6,0.5-1.2,0.7-1.8,0.7c-0.6-0.1-1.2-0.5-1.7-1.2c-0.5-0.7-0.8-1.5-1.1-2.4
			c-0.3-0.9-0.5-1.8-0.6-2.7c-0.2-0.9-0.2-1.6-0.2-2c-0.1-1.2,0-2.7,0.1-4.4c0.1-1.8,0.4-3.5,0.8-5.3c0.4-1.8,1-3.4,1.7-4.9
			c0.8-1.5,1.7-2.6,3-3.2c1.3,1,2.3,2.2,3,3.4c0.7,1.2,1.4,2.4,2,3.6c0.5,0.9,0.7,1.9,0.8,3C942.5,866.7,942.4,867.8,942.2,869z"/>
		<path class="st0" d="M920,858.2c0.1,1.2-0.3,2-1.1,2.6c-0.8,0.6-1.6,0.9-2.5,0.9c-0.7,0-1.4-0.2-2-0.7c-0.6-0.4-0.8-1.1-0.8-2
			c0.1-0.4,0.1-1,0.1-2c0-1,0.1-2,0.2-3c-1.3,1.5-2.4,3.4-3.6,5.5c-1.1,2.2-2.2,4.5-3.1,7.1c-0.9,2.5-1.8,5.2-2.5,8.1
			c-0.8,2.8-1.4,5.6-2,8.4c-0.3,1.4-0.8,2.3-1.7,2.9c-0.9,0.6-1.8,0.9-2.7,0.9c-0.7,0-1.4-0.2-2-0.5c-0.6-0.3-0.9-0.8-1-1.4
			c-0.1-0.6-0.2-1.8-0.3-3.7c-0.2-1.8-0.3-3.9-0.5-6.3c-0.2-2.4-0.4-5-0.6-7.8c-0.2-2.8-0.4-5.4-0.5-7.9c-0.2-2.5-0.3-4.7-0.4-6.6
			c-0.1-1.9-0.2-3.3-0.2-4c0-0.9,0.5-1.7,1.4-2.2c0.9-0.5,1.9-0.8,3-0.8c0.6,0,1.2,0.1,1.8,0.3c0.6,0.2,1.1,0.5,1.6,0.8
			c0.5,0.4,0.8,0.8,1.1,1.4c0.3,0.6,0.4,1.3,0.3,2.1c-0.1,1-0.1,2.4-0.3,4.2c-0.1,1.8-0.3,3.7-0.4,5.6c-0.2,2-0.3,3.8-0.4,5.6
			c-0.1,1.8-0.1,3.2-0.1,4.2c0.2-0.9,0.5-2.4,1.1-4.5c0.6-2,1.4-4.2,2.4-6.5c1-2.3,2.2-4.6,3.6-6.9c1.4-2.3,2.9-4.1,4.7-5.5
			c1-0.8,2.2-1.3,3.7-1.3c0.9,0,1.7,0.2,2.4,0.7c0.7,0.4,1.1,1.2,1.2,2.2c0.1,2,0.1,3.8,0.1,5.3C919.9,855,919.9,856.5,920,858.2z"
			/>
		<path class="st0" d="M987.5,873.1c-0.4-0.4-0.9-0.5-1.5-0.5c-0.5,0-1,0.2-1.5,0.6s-0.6,1-0.6,1.7c0.1,1.3-0.1,2.5-0.5,3.5
			c-0.4,1-0.9,1.9-1.5,2.6c-0.6,0.7-1.3,1.2-2.1,1.6c-0.8,0.4-1.6,0.6-2.4,0.7c-1.1,0.2-2,0.1-2.8-0.3c-0.8-0.4-1.4-0.9-2-1.6
			c-0.5-0.7-1-1.5-1.3-2.4c-0.3-0.9-0.5-1.9-0.7-2.9c-0.4-2.3-0.5-5-0.3-7.9c2.3-1.2,4.4-2.3,6.5-3.3c1.8-0.9,3.6-1.8,5.4-2.7
			c1.8-0.9,3.2-1.6,4.3-2.2c0.4-0.2,0.6-0.8,0.7-1.6c0.1-0.9,0.1-1.9,0-3.1c-0.2-1.2-0.5-2.4-0.9-3.7c-0.5-1.3-1.1-2.5-2-3.7
			c-0.8-1.1-1.9-2.1-3.2-2.8c-1.3-0.7-2.8-1.1-4.5-1.1c-1.2,0-2.5,0.2-4,0.6c-1.4,0.4-3,1.1-4.8,2.1c-1.7,0.9-3.1,2.3-4.1,3.9
			c-1,1.7-1.8,3.5-2.4,5.5c-0.6,2-1,4.1-1.1,6.2c-0.2,2.2-0.3,4.2-0.3,6.2c0,2.4,0.4,4.7,1.2,7c0.8,2.2,1.9,4.2,3.3,5.9
			c1.4,1.7,3.1,3,5,4c1.9,1,4,1.4,6.3,1.3c3.8-0.2,6.8-1.2,9-3c2.2-1.9,3.3-4.8,3.3-8.9C988.1,874,987.9,873.5,987.5,873.1z
			 M974.2,851.9c0.9-0.9,2.1-1.3,3.6-1.3c0.8,0,1.5,0.2,2.1,0.6c0.6,0.4,1.1,0.9,1.5,1.5c0.4,0.6,0.7,1.4,1,2.2
			c0.2,0.8,0.4,1.7,0.4,2.6c-2,0.9-4,1.9-6.1,2.8c-2.1,0.9-4.1,1.8-6.1,2.8c0.1-1.1,0.2-2.4,0.4-3.8c0.2-1.4,0.6-2.8,1.1-4.1
			C972.6,853.9,973.3,852.8,974.2,851.9z"/>
		<path class="st0" d="M1019.2,858.2c0,1.2-0.3,2-1.1,2.6c-0.8,0.6-1.6,0.9-2.5,0.9c-0.7,0-1.4-0.2-2-0.7c-0.6-0.4-0.8-1.1-0.8-2
			c0-0.4,0.1-1,0.1-2c0-1,0-2,0.2-3c-1.3,1.5-2.4,3.4-3.6,5.5c-1.1,2.2-2.2,4.5-3.1,7.1c-0.9,2.5-1.8,5.2-2.5,8.1
			c-0.8,2.8-1.4,5.6-2,8.4c-0.3,1.4-0.8,2.3-1.7,2.9c-0.9,0.6-1.8,0.9-2.7,0.9c-0.7,0-1.4-0.2-2-0.5c-0.6-0.3-0.9-0.8-1-1.4
			c0-0.6-0.2-1.8-0.3-3.7c-0.2-1.8-0.3-3.9-0.5-6.3c-0.2-2.4-0.4-5-0.6-7.8c-0.2-2.8-0.4-5.4-0.6-7.9c-0.2-2.5-0.3-4.7-0.4-6.6
			c-0.1-1.9-0.2-3.3-0.2-4c0-0.9,0.5-1.7,1.4-2.2c0.9-0.5,1.9-0.8,3-0.8c0.6,0,1.2,0.1,1.8,0.3c0.6,0.2,1.1,0.5,1.6,0.8
			c0.5,0.4,0.8,0.8,1.1,1.4c0.3,0.6,0.4,1.3,0.3,2.1c0,1-0.1,2.4-0.3,4.2c-0.1,1.8-0.3,3.7-0.4,5.6c-0.2,2-0.3,3.8-0.4,5.6
			c-0.1,1.8-0.1,3.2-0.1,4.2c0.2-0.9,0.5-2.4,1.1-4.5c0.6-2,1.4-4.2,2.4-6.5c1-2.3,2.2-4.6,3.6-6.9c1.4-2.3,3-4.1,4.7-5.5
			c1-0.8,2.2-1.3,3.7-1.3c0.9,0,1.7,0.2,2.4,0.7c0.7,0.4,1.1,1.2,1.2,2.2c0.1,2,0.1,3.8,0.1,5.3
			C1019.1,855,1019.1,856.5,1019.2,858.2z"/>
	</g>
</g>
</svg>
