<?xml version="1.0" encoding="utf-8"?>
<!-- Generator: Adobe Illustrator 23.0.3, SVG Export Plug-In . SVG Version: 6.00 Build 0)  -->
<svg version="1.1" id="Layer_1" xmlns="http://www.w3.org/2000/svg" xmlns:xlink="http://www.w3.org/1999/xlink" x="0px" y="0px"
	 viewBox="0 0 1133.9 1133.9" style="enable-background:new 0 0 1133.9 1133.9;" xml:space="preserve">
<style type="text/css">
	.st0{fill:#1E2121;}
	.st1{fill:#A81F26;}
	.st2{fill:#F2F1F2;}
	.st3{fill:#DD353A;}
	.st4{fill:#CFCFCE;}
	.st5{fill:#1D2121;}
	.st6{fill:none;}
	.st7{fill:#AA1F23;}
	.st8{fill:#FDFEFE;}
	.st9{fill:#EE742C;}
	.st10{fill:#BA5234;}
	.st11{fill:#ED1C24;}
	.st12{fill:#C42C3A;}
	.st13{fill:#058743;}
	.st14{fill:#0F4D70;}
	.st15{fill-rule:evenodd;clip-rule:evenodd;fill:#C42C3A;}
	.st16{fill-rule:evenodd;clip-rule:evenodd;fill:#1E2121;}
	.st17{fill:#E8E8E8;}
	.st18{fill:#186634;}
	.st19{fill:#BF2730;}
	.st20{fill:#B47A48;}
	.st21{fill:#3E1E14;}
	.st22{fill:#DBAD5D;}
	.st23{fill:#B84947;}
	.st24{fill:#C3976E;}
	.st25{fill:#9D2023;}
	.st26{fill:#3C2517;}
	.st27{fill:#4A3A31;}
	.st28{fill:#EDAD4F;}
	.st29{fill:#F8C018;}
</style>
<g>
	<g>
		<path class="st1" d="M320.1,644.8c-16,0-29.1,13-29.1,29.1c0,16,13,29.1,29.1,29.1c16,0,29.1-13,29.1-29.1
			C349.2,657.8,336.2,644.8,320.1,644.8z M320.1,684.2c-5.7,0-10.3-4.6-10.3-10.3c0-5.7,4.6-10.3,10.3-10.3
			c5.7,0,10.3,4.6,10.3,10.3C330.4,679.6,325.8,684.2,320.1,684.2z"/>
		<path class="st1" d="M873.2,644.4c-16,0-29.1,13-29.1,29.1c0,16,13,29.1,29.1,29.1s29.1-13,29.1-29.1
			C902.3,657.4,889.3,644.4,873.2,644.4z M873.2,683.8c-5.7,0-10.3-4.6-10.3-10.3c0-5.7,4.6-10.3,10.3-10.3s10.3,4.6,10.3,10.3
			C883.6,679.2,878.9,683.8,873.2,683.8z"/>
	</g>
	<g>
		<path class="st0" d="M320.1,607.6c-36.6,0-66.3,29.7-66.3,66.3c0,36.6,29.7,66.3,66.3,66.3c36.6,0,66.3-29.7,66.3-66.3
			C386.4,637.3,356.7,607.6,320.1,607.6z M320.1,715.1c-22.8,0-41.2-18.4-41.2-41.2c0-22.8,18.4-41.2,41.2-41.2
			c22.8,0,41.2,18.4,41.2,41.2C361.3,696.6,342.9,715.1,320.1,715.1z"/>
		<path class="st0" d="M873.2,607.2c-36.6,0-66.3,29.7-66.3,66.3c0,36.6,29.7,66.3,66.3,66.3c36.6,0,66.3-29.7,66.3-66.3
			C939.5,636.9,909.9,607.2,873.2,607.2z M873.2,714.7c-22.8,0-41.2-18.4-41.2-41.2c0-22.8,18.4-41.2,41.2-41.2
			c22.8,0,41.2,18.4,41.2,41.2C914.4,696.3,896,714.7,873.2,714.7z"/>
	</g>
	<path class="st1" d="M996,648.9c0.1-0.3,0.1-0.7,0.2-1c0.3-1.4,0.5-2.8,0.8-4.2c0.4-2.8,0.8-5.8,1.2-9c0.3-2.9,0.6-6,0.8-9.1
		c0.2-3.1,0.4-6.3,0.5-9.6c0.1-2.8,0.2-5.6,0.3-8.5c0.3-12.6,0.2-26.3-0.1-40.5c0-0.6,0-1.3,0-1.9c-0.1-3.5-0.2-6.9-0.2-10.4v-0.1
		c0-0.3,0-0.7,0-1c0,0,0,0,0,0c0-0.4,0-0.8,0-1.2c-0.7-14.9-14.1-18-25.8-18.5h-152c-11.1,0-20.5,1.7-28.2,5.1
		c-0.6,0.2-1.1,0.5-1.6,0.7c-2.2,1.1-4.3,2.3-6.3,3.7c-2,1.4-3.8,2.9-5.5,4.6c-1.6,1.6-3.1,3.3-4.5,5.2c-0.1,0.1-0.1,0.2-0.2,0.3
		c-1.4,2-2.7,4.1-3.8,6.3c-1.1,2.1-2.1,4.4-3,6.9c-3.5,9.5-5.7,21.5-6.7,37.1h0c-0.1,1.2-0.3,3.4-0.5,6.1c-0.2,2.5-0.5,5.4-0.7,8.5
		c0,0.3-0.2,0.5-0.4,0.6c-0.4,0.2-1,0-1-0.7V618c0-3.8,0-7.5,0-10.2c0-1.4,0-2.6,0.1-3.4c0.4-9.2,1.1-17.9,2.4-25.8
		c0.9-5.4,2-10.5,3.5-15.2c0.7-2.2,1.4-4.3,2.3-6.3c0.1-0.3,0.3-0.6,0.4-0.9c1-2.4,2.2-4.6,3.5-6.7c1.3-2.1,2.7-4.1,4.3-5.9
		c1.6-1.8,3.3-3.5,5.1-5c1.8-1.5,3.8-2.8,5.9-4c2.1-1.2,4.4-2.3,6.8-3.2c7.2-2.7,15.7-4,25.7-4h150.2c3,0,6,0,8.1,0.1
		c1.3,0,2.4-0.9,2.7-2.1c0-0.2,0.1-0.4,0.1-0.6v-7.8l0-1.7v-2c0-1.1,0-2.2,0-3.3c0-1.8-0.1-3.5-0.2-5.1c-0.4-5.2-1.5-9.6-3.1-13.3
		c-4.6-10.8-13.4-15.3-21.5-17.2c-2.4-0.6-4.8-0.9-6.9-1.1c-3.6-0.3-6.7-0.2-8.6-0.2H789.1c-1.2,0-2.3,0-3.4-0.1
		c-6.6-0.6-11.8-2.7-16.2-6c0,0,0,0,0,0c-2.6-2-4.9-4.3-6.9-7c-3.3-4.2-6-9.1-8.4-14.3c-0.4-0.9-0.9-1.9-1.3-2.8
		c-0.8-1.7-1.5-3.4-2.3-5.1c-1.3-2.9-2.5-5.7-3.8-8.5c-1.5-3.3-3.2-6.8-5-10.5c-1.9-4-4-8.2-6.3-12.7c-3-5.9-11.4-10.4-23.1-13.9
		c-3.1-0.9-6.4-1.7-9.9-2.5c-3.9-0.8-8.1-1.6-12.4-2.2c-3.8-0.6-7.7-1.1-11.7-1.5c-16.8-1.8-35.3-2.5-52.7-2.3
		c-3.4,0-6.7,0.1-10,0.2c-3.3,0.1-6.6,0.3-9.8,0.4c-3.3,0.2-6.5,0.4-9.5,0.7c-14.4,1.2-26.1,3-32.8,5.4c-5.3,1.9-9.6,4-13.1,6.8
		c-0.4,0.3-0.9,0.7-1.3,1.1c-1.7,1.6-3.3,3.4-4.7,5.5c-5.4,8.2-8.3,20.8-10.9,41.9c-0.3,2.2-0.5,4.4-0.8,6.8c-0.3,2.9-0.6,6-1,9.2
		c-0.3,3-0.6,6.1-0.9,9.3c-0.3,3-0.6,6.1-0.9,9.3c-0.2,1.9-0.4,3.9-0.6,5.9c-1.1,11.8-2.3,25.2-3.8,40.3l-15.7,0h-4.5l-10.2,0
		l-9.9,0l-10.2,0h-5.7l-40.5,0h-5l-10.2,0l-9.9,0l-10.2,0h-5.2l-40.5,0h-4.9l-10.2,0l-9.9,0l-10.2,0h-5.3l-40.5,0h-5l-10.2,0l-9.9,0
		l-10.2,0h-53c0,0-0.8,0-1.7,0.4c-1.2,0.5-2.5,1.5-2.5,3.8c0,4.1,0.4,5.5,3.6,6.8c7.7,2.8,7.8,2.1,7.8,11.9v103.6c0,0.2,0,0.3,0,0.3
		s10.7,0,17.8,0c0.7,13.8,3.3,32.2,10.9,32.2h24.6v-0.1c0-3.1,0.2-6.2,0.5-9.4c0.3-2.9,0.8-5.9,1.4-8.8c0.5-2.7,1.2-5.5,2-8.2
		c0.7-2.6,1.6-5.1,2.5-7.6c4.6-12.4,11.7-24.3,21.3-33.8c0.9-0.9,1.9-1.8,2.8-2.7c1.8-1.6,3.7-3.1,5.6-4.6
		c10.3-7.5,22.7-12.5,37.3-13.2c1.3-0.1,2.6-0.1,3.9-0.1c2.1,0,4.1,0.1,6.1,0.2c4.1,0.2,7.9,0.7,11.6,1.4c4.9,0.9,9.5,2.2,13.7,3.8
		c20.5,7.8,32.9,22.8,40.5,36.7c4.7,8.6,7.5,16.8,9.1,22.6c1,3.7,1.6,6.4,1.9,7.6c0.4,1.9,0.9,3.9,1.4,5.8c1.5,4.9,3.9,9.2,10,10
		c0.7,0.1,1.5,0.2,2.3,0.2h352.8c17.2,0,21.8-0.9,24.1-9.2c0.9-3,1.9-6.6,3.1-10.7c0.2-0.7,0.4-1.5,0.6-2.2c0.7-2.5,1.5-5.1,2.4-7.7
		c5.5-16.4,14.4-35.7,32.4-47.9h0.5l-0.2-0.2c1.5-1,3.1-2,4.7-2.9c9.1-5,20.2-8.3,34-8.9c3.6-0.2,7-0.1,10.4,0.1
		c4,0.3,7.8,0.7,11.4,1.5c5.2,1,10,2.5,14.4,4.2c3.9,1.6,7.5,3.4,10.8,5.4v0.8h1.3c15.5,9.7,25.1,23.4,30.9,33.4
		c0.8,1.5,1.8,3.6,2.7,6.2c0.2,0.6,0.5,1.2,0.7,1.9v0c0.3,0.7,0.5,1.5,0.8,2.3c1.6,5.1,3.1,11.8,4,20.4c0,0.3,0.1,0.7,0.1,1
		c0.2,2,0.3,4.1,0.5,6.3l0,0.2h40c3.5,0,6.3-1.6,8.3-4.6c1.7-2.6,2.7-6.2,2.7-10.1C1006.6,656.8,1003,649.2,996,648.9z M837,501.2
		h107.7c1.2,0,2.2,1,2.2,2.2c0,1.2-1,2.2-2.2,2.2h-45.5H889h-52c-1.2,0-2.2-1-2.2-2.2C834.8,502.2,835.8,501.2,837,501.2z
		 M837,510.1h56.5h10.2h10.2l0.8,0.8v-0.8h30c1.2,0,2.2,1,2.2,2.2c0,1.2-1,2.2-2.2,2.2H837c-1.2,0-2.2-1-2.2-2.2
		C834.8,511.2,835.8,510.1,837,510.1z M691.5,411.3c4.5-2.5,13.9-3.5,20.8-3.8c1.9-0.1,3.6-0.1,5-0.1c1.2,0,2.2,0,3.1,0.2
		c3.8,0.5,4.7,2.2,6.9,6.3c0.2,0.4,0.5,0.9,0.8,1.4c0,0,0,0,0,0c2.2,4.1,6,11.7,10.1,20.3c1.5,3.2,3.1,6.6,4.7,10
		c5.1,10.8,10.1,21.6,13,27.8c0.2,0.5,0.4,0.9,0.6,1.3c0.1,0.2-0.1,0.4-0.2,0.3c-1.2-0.1-2.3-0.2-3.5-0.2
		c-13.8-0.1-29.3,6.5-34.5,8.8c-5.7,2.5-7.6,0.7-10.9-6.3c-0.3-0.7-0.7-1.8-1.2-3.1c-1.3-3.5-3-8.9-4.9-15.1
		c-1.3-4.3-2.8-9-4.1-13.6c-3.5-11.6-6.6-22.7-7.8-26.5C688.4,415.8,687.9,413.5,691.5,411.3z M688.7,527.3v134
		c0,0.7-0.5,1.2-1.2,1.2h-0.6c-0.7,0-1.2-0.5-1.2-1.2v-134c0-0.7,0.5-1.2,1.2-1.2h0.6c0.3,0,0.7,0.2,0.9,0.4
		C688.6,526.7,688.7,527,688.7,527.3z M559.8,483.4c0.8-11.8,2.1-25.5,3.4-37.9c0.1-1,0.2-1.9,0.3-2.8c0.3-3.1,0.7-6.1,1-8.9
		c0.4-3.1,0.7-5.9,1.1-8.6c0-0.2,0-0.3,0.1-0.5c0.5-3.4,1.4-5.9,2.6-7.6c1.6-2.4,3.8-3.3,6.4-3.3h0.4c1.4,0,5,0,10,0
		c12.9,0.1,34.9,0.2,50.7,0.1c3.8,0,7.3,0,10.2,0c2.7,0,4.8-0.1,6.4-0.1c1.3,0,2.6,0,3.7,0c10.1,0.7,13.1,5.5,15.7,12.3
		c0,0.1,0.1,0.2,0.1,0.4c1.2,3.3,3.3,10.5,5.5,18.9c1.2,4.3,2.4,9,3.6,13.7c1.2,4.7,2.4,9.3,3.4,13.6c1,4.2,2,8,2.7,11.1
		c0.2,0.7,0.3,1.3,0.3,1.9c1.2,10.7-12,12.5-17.7,12.8h0c-1.5,0.1-2.5,0-2.5,0s-2.8,0-7.4,0h-83.6c-1.9,0-4.5,0.4-7,0.3
		c-4.2-0.2-8.3-1.9-9.3-9.3c-0.2-1.1-0.2-2.2-0.2-3.6C559.7,485.2,559.7,484.4,559.8,483.4z M544.6,515c0-0.6,0.5-1.2,1.2-1.2h134
		c0.7,0,1.2,0.5,1.2,1.2v0.6c0,0.7-0.5,1.2-1.2,1.2h-134c-0.7,0-1.2-0.5-1.2-1.2V515z M585.4,534.3c0,1.6-6.8,2.9-15.2,2.9
		c-8.4,0-15.2-1.3-15.2-2.9c0-1.6,6.8-2.9,15.2-2.9C578.6,531.4,585.4,532.7,585.4,534.3z M537.3,527.3c0-0.7,0.5-1.2,1.2-1.2h0.6
		c0.6,0,1.2,0.5,1.2,1.2v134c0,0.7-0.5,1.2-1.2,1.2h-0.6c-0.7,0-1.2-0.5-1.2-1.2V527.3z M433.3,636.4c0-3.6-0.2-7-0.4-10.3
		c-0.3-3.9-0.6-7.7-1.1-11.3c-0.3-2.5-0.7-5-1.2-7.3c-1.5-7.8-3.7-14.7-6.5-20.7c-3.7-8-8.6-14.4-14.7-19.1
		c-6.9-5.4-14.3-8-20.8-9.2c-1.2-0.2-2.3-0.4-3.4-0.5c-4.1-0.5-7.9-0.6-10.8-0.6H264.6c-7.9,0-22.7,0-35.8,10.2
		c-0.7,0.5-1.4,1.1-2,1.7c-9.5,8.4-15.8,21.1-19.1,38.1c-0.3,1.5-0.6,3-0.8,4.5c-0.5,2.9-0.8,5.9-1.1,9c-0.3,3.1-0.5,6.3-0.6,9.6
		c-0.1,2.8-0.2,5.6-0.2,8.6c0,0.2-0.2,0.4-0.4,0.4c-0.2,0-0.4-0.2-0.4-0.4v-6.8c0-0.9,0-1.8,0-2.8c0-3.4,0.2-6.7,0.4-9.8
		c0.2-3.2,0.5-6.3,0.9-9.3c0.1-1,0.3-2,0.4-3c1-7.1,2.5-13.6,4.5-19.4c2.9-8.5,6.8-15.6,11.7-21.3c2-2.3,4.2-4.4,6.5-6.3
		c13.2-10.4,28.1-10.3,36-10.3h109.1c1.1,0,2.4,0,3.7,0c3.2,0.1,7,0.3,11.2,1c0,0,0,0,0,0c6.7,1.2,14.1,3.8,21.1,9.3
		c2.4,1.9,4.7,4.1,6.8,6.5c2,2.3,3.8,4.8,5.4,7.6c2.9,4.9,5.3,10.6,7.2,16.9c1.4,4.9,2.6,10.2,3.4,15.9c0.4,2.9,0.8,5.9,1,9
		c0.3,3.5,0.5,7,0.6,10.7c0,1.7,0.1,3.4,0.1,5.2v6.8c0,0.2-0.2,0.4-0.4,0.4c-0.2,0-0.4-0.2-0.4-0.4
		C433.4,638.2,433.4,637.3,433.3,636.4z M759.2,673.1c0,1.2-1,2.3-2.3,2.3H435.7c-1.3,0-2.3-1-2.3-2.3v-1.2c0-1.2,1-2.3,2.3-2.3
		h195.7h6.8h118.7c1.2,0,2.3,1,2.3,2.3V673.1z"/>
	<path class="st18" d="M607.2,319.5c-1.5,0-3.1,0-4.7,0.3c-7.8,1.5-15.9,2.2-23.7,2.9l-3.3,0.3c-15.1,1.4-28.5,1.3-41.1-0.5
		c-2.9-0.4-5.7-1-8.5-1.6c-5.5-1.4-11.3-3.2-17-5.6c-0.5-0.2-0.9-0.3-1.4-0.4c-0.2-0.1-0.4-0.1-0.6-0.2c-0.2-0.1-0.5,0.1-0.5,0.3
		l-0.1,0.2c-0.4,1.2-0.4,1.4,0,2.8c1.8,5.6,4.8,10.3,9.1,13.9c0.1,0.1,0.2,0.2,0.4,0.3c-0.5-0.1-1-0.2-1.4-0.3
		c-4-1-7.6-2.7-11.9-4.9l-0.3-0.1c-0.7-0.4-1.5-0.8-2.3-1.1c-1-0.4-1.6-0.2-1.9,0.1c-0.3,0.3-0.6,0.8-0.4,1.8
		c0.2,0.9,0.5,1.8,0.8,2.7c0.1,0.3,0.2,0.7,0.4,1.1c0.1,0.3,0.2,0.5,0.3,0.8c-0.1,0-0.1,0-0.2,0c-8.4-1.1-19.2-3-29.2-8.2
		c-0.4-0.2-1-0.5-1.5-0.7c-0.8-0.3-1.6-0.5-2.2-0.2c-0.6,0.3-0.9,1.1-1.2,1.9c-0.8,2.6-0.3,5.2,1.3,7.8c0.5,0.8,1,1.6,1.6,2.5
		l0.4,0.6c-0.4,0-0.7,0-1.1,0l-1.6-0.1c-1.8-0.2-3.7-0.3-5.5-0.6c-14.3-1.9-25.8-6.3-35.3-13.2c-1-0.8-2.2-1.5-3.6-2.3
		c-0.6-0.3-1.1-0.4-1.5-0.2c-0.4,0.2-0.6,0.7-0.7,1.4c0,0.4,0,0.8,0.1,1.2l0,0.1c0.3,2.2,1,4.4,2,6.6c3.6,7.2,8.8,13.1,15.6,17.5
		c0.1,0.1,0.2,0.1,0.3,0.2c-4.8,0.5-9.7,0.2-15.2-0.9c-4-0.8-8-2.3-11.8-3.7l-0.2-0.1c-0.8-0.3-1.7-0.6-2.6-0.8
		c-0.8-0.1-1.5,0-1.9,0.3c-0.5,0.3-0.7,0.9-0.8,1.7c-0.1,1,0,2.1,0.3,3c0.1,0.2,0.1,0.3,0.2,0.5c0,0,0,0.1,0,0.1
		c0.1,0.1,0.1,0.3,0.2,0.4c0.1,0.1,0.1,0.3,0.2,0.4c0,0.1,0.1,0.2,0.1,0.2c0.1,0.2,0.2,0.4,0.4,0.6c0.1,0.1,0.1,0.2,0.2,0.3
		c1.1,1.7,2.7,3.3,4.9,5.1c0.2,0.2,0.4,0.3,0.6,0.5c-12.7-1.4-23.7-5.1-33.6-11.3l-8.8-5.5c-0.3-0.2-0.7-0.4-1.1-0.6
		c-0.7-0.3-1.2-0.3-1.6,0c-0.4,0.2-0.6,0.7-0.6,1.3c0,1.1,0.1,2.2,0.4,3.3c0.7,2.6,2,5,4.3,8.1c0.8,1.1,1.7,2.2,2.7,3.4
		c0.2,0.3,0.5,0.6,0.7,0.9c-0.1,0-0.2,0-0.2,0c-0.5-0.1-1.1-0.3-1.6-0.4c-1.3-0.3-2.7-0.7-4-1.2c-4.2-1.6-8.5-3.3-13.2-5.3
		c-8-3.4-15.3-8-21.8-13.7c-2.5-2.3-5.1-4.7-7.5-7c-1.2-1.1-2.3-2.2-3.5-3.3l-0.3-0.3c-0.3-0.3-0.7-0.7-1.1-1
		c-0.6-0.4-1.2-0.5-1.6-0.4c-0.5,0.2-0.8,0.6-1,1.3c-0.1,0.4-0.3,1.1-0.2,1.8c0,0.4,0.1,0.8,0.1,1.2c0.1,1.5,0.3,3,0.7,4.5
		c1.5,6.2,4.4,12.3,8.6,18.2c6,8.4,13.1,15.4,21.2,20.6c-0.2-0.1-0.4-0.1-0.6-0.2c-6.8-2.6-13.4-6.1-19.8-10.3
		c-1.6-1.1-3.4-2.2-5.8-3.5c-0.5-0.3-1.5-0.4-1.9,0c-0.4,0.4-0.5,1.3-0.3,1.9c0.5,1.2,0.9,2.2,1.5,3.1c5.3,8,11.9,15.2,19.8,21.5
		c0.2,0.1,0.4,0.3,0.6,0.5c-2.1,0.5-4.1,0.6-6.2,0.7c-12.3,0.3-24.6-1.5-36.6-5.6c-10.4-3.5-20.9-9-32.1-16.9
		c-1.1-0.8-2.3-1.6-3.4-2.5c-0.8-0.6-1.6-1.2-2.3-1.7c-0.6-0.4-1.3-0.9-2-1.3c-0.8-0.4-1.5-0.4-2-0.2c-0.5,0.3-0.8,0.8-1,1.8
		c-0.1,0.7-0.1,1.5,0,2.4c0.4,2.8,1.5,5.4,2.6,7.7c0.2,0.5,0.4,0.9,0.7,1.3c2.3,4.4,5.5,8.8,9.7,13.2c0.1,0.2,0.3,0.3,0.4,0.5
		c-1.2-0.2-2.3-0.3-3.5-0.4c-2.7-0.3-5.5-0.7-8.2-1.2c-7.8-1.6-15.3-4.4-21.7-6.8c-10.1-3.9-22-8.9-33-16.4l-0.6-0.4
		c-2.9-2-5.8-4-8.8-5.8c-2-1.2-4.4-2.3-7-3.2c-1.3-0.5-2.4-0.4-3.2,0.2c-0.8,0.6-1.2,1.6-1.2,3c0,1.5,0.3,3.1,0.8,4.8
		c1,3.2,2.5,6.1,4.3,8.7l1.3,1.9c2.5,3.5,5.1,7.2,7.8,10.6c10,12.4,19.9,20.9,31.1,26.6c0.1,0.1,0.3,0.2,0.4,0.3
		c-0.6,0.1-1.2,0.3-1.7,0.4c-1.7,0.4-3.3,0.7-4.9,1c-11.7,1.7-23.3,2.1-34.3,1.2c-2.6-0.2-5.8-0.5-8.9-0.6c-1.5-0.1-2.9,0-4.2,0.1
		c-1.2,0.1-2.1,0.5-2.5,1.2c-0.4,0.7-0.5,1.6-0.1,2.8c0.4,1.3,1.1,2.7,1.8,3.9c1.5,2.5,3.6,4.7,6.8,7.2c5.7,4.3,11,7.7,16.5,10.3
		c9.5,4.6,20.1,8.1,33.4,11.2c0.4,0.1,0.7,0.2,1.1,0.3h0L231,442c-0.4,0.3-0.8,0.7-1.3,0.9c-5.6,3.3-10.4,7.5-14,10.8
		c-6.7,6.2-11.5,12.9-14.5,20.5c-0.9,2.4-1.6,5-1.9,8.1c-0.1,0.7,0,1.3,0.2,1.7c0.3,0.6,1,1.1,2.7,0.6c0.1,0,0.3-0.1,0.4-0.2
		c0.1,0,0.2-0.1,0.3-0.1c1.4-0.5,2.8-1.1,4.2-1.6c3.1-1.2,6.3-2.4,9.5-3.5c7.1-2.4,14.4-3.3,21.4-4.2c1.6-0.2,3.3-0.1,4.9,0
		c1.8,0.1,2.5,1.3,1.8,2.9c-0.5,1.3-1.3,2.9-2.4,4.2c-2.7,3.1-4.9,5.5-7.1,7.6l-0.6,0.6c-4.2,3.9-8.5,7.9-11.9,12.7
		c-1.2,1.6-2.2,3.3-3.3,5.4c-1.1,2.1-0.2,3.2,2.1,3c0.8-0.1,1.5-0.1,2.3-0.2c2.5-0.2,5-0.4,7.5-0.8c6-1,12.1-0.9,18.1-0.8
		c1.5,0,2.9,0,4.4,0c0.9,0,1.5,0.1,2.1,0.6c-0.1,0.1-0.2,0.3-0.3,0.3l-0.7,0.5c-0.7,0.6-1.5,1.2-2.3,1.6c-6,3.4-12.4,6.3-18.9,8.3
		c-2.7,0.9-5.6,1.6-8.3,2.4c-1.6,0.4-3.2,0.9-4.9,1.3c-1,0.3-2.2,0.7-3.2,1.2c-0.1,0.1-0.2,0.1-0.3,0.2h9.1l74.8,0.1
		c0.1-0.4,0.2-0.7,0.3-1.1c3.4-12.8,10.1-23.7,19.2-33.2c1.1-1.1,2.5-2,3.7-3c0.3-0.2,0.8-0.3,1.2-0.4c0.1,0.1,0.2,0.3,0.3,0.4
		c-0.4,0.5-0.8,0.9-1.2,1.4c-7.4,8.4-14.1,17.3-18.5,27.7c-1.2,2.7-2.1,5.5-2.8,8.3l13.4,0c4.9-4.5,10.5-8.1,16.9-10.5
		c2.1-0.8,4.1-1.5,6.2-2.2c0.6-0.2,1.4-0.5,2.1,0.4c-1.7,0.6-3.2,1.2-4.7,1.8c-4,1.6-8,3.3-11.7,5.7c-2.2,1.5-4.3,3.1-6.2,4.9
		l105.1,0.1c0.2-7.7,1.7-15.6,4.4-23.4c0.1-0.2,0.1-0.4,0.2-0.5c0,0.2,0.1,0.4,0.1,0.6c0.1,0.5,0.1,1.1,0.1,1.6
		c0.1,1.3,0.2,2.6,0.4,3.9c0.6,4,1.8,8.1,3.8,13c0.7,1.6,1.4,3.2,2.2,4.8l20.5,0c-1.4-8.2-1.2-16.8,0.6-26
		c1.2-6.5,3.3-12.8,5.3-18.9l0.3-1c0.1,0.2,0.2,0.4,0.3,0.6c0.6,1.4,1.2,2.6,1.8,3.7c1.7,3.3,3.5,6,5.6,8.4c1.4,1.6,2.9,3,4.5,4.4
		c0.8,0.7,1.9,0.9,2.7,0.3c0.8-0.5,0.6-1.3,0.5-1.8c0-0.1,0-0.3-0.1-0.4c0-0.2,0-0.3-0.1-0.5c0-0.1-0.1-0.3-0.1-0.4
		c-0.1-1.1-0.3-2.2-0.4-3.3c-0.3-2.4-0.6-4.9-0.7-7.4c-0.5-12.1,2.8-23.8,10.7-38.2c0-0.1,0.1-0.1,0.2-0.2c1,4.2,2.8,7.9,5.4,11.5
		c3,4.2,7.8,7.7,10.7,7.9c0.1,0,0.2,0,0.3-0.1s0.1-0.2,0.1-0.3c0-0.2,0-0.4,0-0.5c0-0.4,0-0.8,0-1.2c-0.9-7.2,0.1-14.7,3.1-22.9
		c1.2-3.4,2.7-6.7,4.6-10.2c0.3-0.5,0.6-1,0.9-1.6c0.1-0.3,0.3-0.5,0.4-0.8c0.2-0.3,0.3-0.6,0.5-0.9c0.3-0.5,0.6-1,0.9-1.5
		c0.4-0.7,0.9-1.5,1.4-2.3c0.2-0.3,0.3-0.5,0.5-0.8c0.3-0.4,0.5-0.8,0.8-1.2c0.2-0.3,0.4-0.6,0.6-0.8c0.7-1.1,1.5-2.3,2.4-3.5
		c0.2-0.2,0.3-0.4,0.6-0.6l0,0l0.1,0.1c0.3,0.3,0.5,0.7,0.7,1c2.1,3,4.8,5.5,7.9,7.6c0.8,0.5,1.8,1,2.9,1.2c0.6,0.1,1,0.1,1.3-0.1
		c0.5-0.3,0.6-0.9,0.6-1.3c0.1-0.5,0.1-1,0-1.5l0-0.5c0-15.1,5.1-28.3,15-39.3c0.1-0.1,0.2-0.2,0.3-0.3c0,0.4,0,0.8-0.1,1.1
		c-0.2,3.5,0.1,7,1,10.5c0.1,0.2,0.1,0.5,0.2,0.7c3.3-2.5,7.2-4.5,11.8-6.2c0.3-0.9,0.7-1.7,1-2.6c0,0,0-0.1,0-0.1
		c0.2-0.4,0.4-0.9,0.6-1.3c0.9-2.2,2-4.5,3.1-6.7c0.2-0.4,0.4-0.9,0.7-1.3c0,0,0,0,0,0c0.2-0.4,0.5-0.9,0.7-1.3
		c0.2-0.4,0.5-0.9,0.7-1.3c0,0,0-0.1,0.1-0.1c0.2-0.4,0.5-0.8,0.7-1.2c0.2-0.4,0.4-0.8,0.7-1.2c0.3-0.5,0.6-1,0.9-1.5
		c0.3-0.4,0.5-0.9,0.8-1.3c0.3-0.4,0.6-0.9,0.9-1.3c5.1-7.8,11.2-14.6,17.1-21.3c1.9-2.2,3.9-4.3,5.8-6.5c3.4-3.8,6.7-7.5,10.1-11.3
		c1.1-1.3,2.1-2.7,3-4.1c0.5-0.8,0.7-1.7,0.8-2.3C609.6,320.3,608.9,319.5,607.2,319.5z M309.7,442.1c-6.9,1.2-13.7,0.5-20.5-0.7
		c-9.5-1.7-18.1-5.7-26.1-10.8c-0.7-0.5-1.5-0.9-2.3-1.4c-0.5,1-0.1,1.8,0.1,2.5c0.9,3.1,2.5,5.8,4.4,8.3
		c6.5,8.6,14.7,15.3,24.3,20.1c2.7,1.3,5.5,2.6,8.2,3.9c0.4,0.2,1,0.3,0.6,1.1c-0.4-0.1-0.8-0.1-1.1-0.2
		c-11.3-4.2-21.5-10.2-29.7-19.3c-3-3.4-5.7-7-7.4-11.2c-0.4-1-0.7-2.2-0.8-3.3c-0.1-0.8,0.1-1.6,0.4-2.4c0.3-0.9,0.9-1.2,1.9-0.8
		c0.7,0.2,1.3,0.6,1.9,0.9c13.4,7.9,27.8,11.6,43.3,11.6c1.6,0,3.2-0.2,4.7-0.4c-0.4,0.6-0.8,1.3-1.2,1.9c0.8-0.2,1.6-0.4,2.3-0.7
		C311.8,441.6,310.8,442,309.7,442.1z M402,389.5c-1.9,0.2-3.9,0.4-5.8,0.3c-9.3-0.4-18.1-2.7-26.7-6.3c-0.9-0.4-1.7-1.1-3.1-0.7
		c0.1,0.7,0.1,1.4,0.3,2c1.1,3.5,3.2,6.5,5.8,9c5.4,5.4,11.9,8.7,19,11.1c2.5,0.8,5.1,1.5,7.7,2.3c0.6,0.2,1.4,0.3,0.7,1.4
		c-10.3-2.1-19.9-5.6-27.7-13.1c-2.7-2.6-4.9-5.5-6-9.1c-0.4-1.2-0.5-2.4-0.5-3.6c0.1-1.5,0.9-1.9,2.4-1.6c0.7,0.2,1.5,0.4,2.2,0.7
		c7.1,2.7,14.5,4.2,21.9,5.6c3.6,0.7,7.2,0.9,10.8,0.6c0.2,0,0.5,0,0.8,0C403.5,389.3,402.7,389.5,402,389.5z M434,458.4
		c-7.5,3.3-13.5,8.4-18.8,14.5c-0.7,0.8-1.5,1.7-2.3,2.5c-1,0.9-1.8,0.8-2.5-0.3c-0.5-0.8-0.9-1.7-1.1-2.6
		c-0.9-3.4-0.9-6.8-0.4-10.2c0.9-5.4,2.9-10.4,6-14.9c0.2-0.3,0.5-0.6,0.8-1c0.9,0.3,0.6,0.9,0.3,1.4c-0.7,1.4-1.5,2.8-2.1,4.3
		c-1.1,3-2.3,6-3.1,9.1c-1,4-1,8.1,0,12.1c0.1,0.2,0.1,0.5,0.2,0.7c0,0.1,0.2,0.2,0.5,0.5c0.8-0.9,1.6-1.7,2.3-2.5
		c2.5-2.9,4.9-5.9,7.9-8.4c3.2-2.7,6.7-4.8,10.7-6.2c0.8-0.3,1.6-0.6,2.1,0.5C434.3,458.2,434.2,458.4,434,458.4z M500.6,365.6
		c-2.2,1.3-4.6,2-7,2.4c-8.1,1.5-16.2,1-24.1-1.2c-1.4-0.4-2.8-0.7-4.6-1.2c0.2,0.7,0.2,1.1,0.4,1.4c1.3,1.6,2.5,3.3,4.1,4.6
		c5.4,4.7,11.7,7.9,18.7,9.6c2.5,0.6,5,1,7.5,1.4c0.4,0.1,0.8,0.1,1.1,0.1c0.1,1.1-0.5,1-0.9,1c-2.7-0.3-5.4-0.5-8.1-1.1
		c-6.5-1.5-12.5-4.2-17.7-8.4c-2-1.6-3.8-3.4-5-5.7c-0.4-0.8-0.6-1.7-0.7-2.5c-0.1-1.1,0.4-1.5,1.5-1.4c0.7,0,1.4,0.2,2.1,0.4
		c10,2.8,20,2.8,30.1,0.3c0.8-0.2,1.6-0.5,2.4-0.7c0.4-0.1,0.8-0.1,1.3,0.2C501.3,365.1,501,365.4,500.6,365.6z M554.5,344.4
		c-3.1-0.8-6.2-1.6-9.2-2.5c-1.5-0.5-2.9-1.4-3.9-2.6c-0.3-0.4-0.6-0.7-0.8-1.2c-0.3-0.7,0-1.2,0.7-1.3c0.8-0.1,1.5,0,2.3,0
		c5,0.5,9.9,0.3,14.9-0.4c1.3-0.2,2.5-0.5,4.2-0.8c-2.3,2.6-10.2,3.5-21,2.6c0.7,0.6,1.1,1.1,1.6,1.3c1.5,0.7,3.1,1.5,4.7,2
		c2,0.7,4.1,1.1,6.2,1.7c0.6,0.2,1.3,0.1,1.6,1.1C555.3,344.4,554.9,344.5,554.5,344.4z M570.9,348.7c-3,2.5-5.6,5.4-7.8,8.7
		c-1.3-0.4-1.9-1.2-2.1-2.2c-0.7-3.9-0.1-7.7,1.9-11.2c0.1-0.2,0.5-0.3,1.2-0.7c-1.1,4.2-2.2,8.2-1.6,12.7c0.5-0.6,0.7-0.9,0.9-1.2
		c3.8-5.7,8.7-10.1,14.7-13.4c0.5-0.3,1-0.8,1.9-0.2C577,343.8,573.9,346.2,570.9,348.7z"/>
	<g>
		<path class="st24" d="M505.8,501.3L505.8,501.3H193.9h0c-0.8,0-1.5,0.7-1.5,1.5v0v15.6v0.1c0,0.8,0.7,1.5,1.5,1.5h5.4
			c0.6,0.2,1.1,0.8,1.1,1.5v4.5c0,0.8,0.7,1.5,1.5,1.5h9.7c0.8,0,1.5-0.7,1.5-1.5v-4.4c0-0.8,0.7-1.5,1.5-1.5H485
			c0.8,0,1.5,0.7,1.5,1.5v4.4c0,0.8,0.7,1.5,1.5,1.5h9.7c0.8,0,1.5-0.7,1.5-1.5v-4.5c0-0.7,0.5-1.3,1.1-1.5h5.4
			c0.8,0,1.5-0.7,1.5-1.5v-0.1v-15.6v0C507.3,502,506.6,501.3,505.8,501.3z"/>
		<g>
			<path d="M492.9,507.8c0.9,0,1.7-0.8,1.7-1.7c0-0.9-0.8-1.7-1.7-1.7c-0.9,0-1.7,0.8-1.7,1.7C491.2,507.1,492,507.8,492.9,507.8z"
				/>
			<path d="M492.9,513.6c-0.9,0-1.7,0.8-1.7,1.7c0,0.9,0.8,1.7,1.7,1.7c0.9,0,1.7-0.8,1.7-1.7C494.6,514.3,493.8,513.6,492.9,513.6z
				"/>
		</g>
		<g>
			<path d="M206.8,507.8c0.9,0,1.7-0.8,1.7-1.7c0-0.9-0.8-1.7-1.7-1.7c-0.9,0-1.7,0.8-1.7,1.7C205.1,507.1,205.9,507.8,206.8,507.8z
				"/>
			<path d="M206.8,513.6c-0.9,0-1.7,0.8-1.7,1.7c0,0.9,0.8,1.7,1.7,1.7c0.9,0,1.7-0.8,1.7-1.7C208.5,514.3,207.7,513.6,206.8,513.6z
				"/>
		</g>
	</g>
	<g>
		<path class="st0" d="M179,526.1c0,0-0.8,0-1.7,0.4h4.5l-0.4-0.4H179z"/>
		<polygon class="st0" points="242.6,526.5 242.2,526.1 232,526.1 232.4,526.5 		"/>
		<polygon class="st0" points="262.7,526.5 262.3,526.1 252.1,526.1 252.5,526.5 		"/>
		<polygon class="st0" points="323.5,526.5 323.2,526.2 313,526.2 313.3,526.5 		"/>
		<polygon class="st0" points="343.6,526.5 343.3,526.2 333.1,526.2 333.4,526.5 		"/>
		<polygon class="st0" points="404.2,526.5 404,526.2 393.8,526.2 394.1,526.5 		"/>
		<polygon class="st0" points="424.3,526.5 424.1,526.3 413.9,526.3 414.2,526.5 		"/>
		<polygon class="st0" points="485.6,526.5 485.4,526.3 475.3,526.3 475.5,526.5 		"/>
		<polygon class="st0" points="505.7,526.5 505.6,526.3 495.4,526.3 495.5,526.5 		"/>
		<path class="st0" d="M631.4,389.3l-5.8-5.8c-3.4,0-6.7,0.1-10,0.2l15.7,15.7V389.3z"/>
		<path class="st0" d="M574.7,413.9h0.4l-8.8-8.8h-10.2l12.1,12.1C569.9,414.9,572.1,413.9,574.7,413.9z"/>
		<path class="st0" d="M635.8,414l-4.3-4.3v-4.6h-4.6l-20.9-20.9c-3.3,0.2-6.5,0.4-9.5,0.7l20.3,20.3h-9.9l-15.8-15.8v10.2l5.6,5.6
			h-5.6v4.5l-4.5-4.5h-10.2l8.8,8.8C597.9,414,619.9,414.1,635.8,414z"/>
		<path class="st0" d="M559.9,489.6c-0.2-1.1-0.2-2.2-0.2-3.6h-3.3L559.9,489.6z"/>
		<polygon class="st0" points="631.4,520.8 637.1,526.5 647.3,526.5 637.6,516.8 587.1,516.8 590.9,520.6 590.9,526.5 596.8,526.5 
			631.4,561.1 631.4,550.9 607,526.5 616.9,526.5 631.4,541 631.4,530.8 627.1,526.5 631.4,526.5 		"/>
		<path class="st0" d="M579.2,498.7h-2.9c-1.9,0-4.5,0.4-7,0.3l14.9,14.9h50.4l-3.2-3.2v-9.9l13.1,13.1h10.2l-15.2-15.2h-50.4
			l1.9,1.9v9.9L579.2,498.7z"/>
		<polygon class="st0" points="657.7,516.8 647.5,516.8 657.2,526.5 667.4,526.5 		"/>
		<polygon class="st0" points="874.2,473 866.6,473 874.2,480.6 		"/>
		<polygon class="st0" points="904.9,501.2 889.8,486 879.6,486 894.8,501.2 		"/>
		<polygon class="st0" points="909.4,505.7 899.2,505.7 903.7,510.1 913.9,510.1 		"/>
		<polygon class="st0" points="955.1,533.9 947.5,533.9 955.1,541.5 		"/>
		<polygon class="st0" points="927.5,533.9 955.1,561.5 955.1,551.4 937.6,533.9 		"/>
		<path class="st0" d="M914.7,501.2h30c1.2,0,2.2,1,2.2,2.2c0,1.2-1,2.2-2.2,2.2h-30v4.5h30c1.2,0,2.2,1,2.2,2.2
			c0,1.2-1,2.2-2.2,2.2h-36.5l6.5,6.5v5.4h5.4l0.8,0.8H931l-0.8-0.8h9.9l0.8,0.8h10.2l-0.8-0.8h4.8v-5.9l5.9,5.9h10.2l-16.1-16.1
			v-9.9l24.8,24.7c0-0.2,0.1-0.4,0.1-0.6v-7.8l0-1.7l-24.8-24.8V486h-4.3L937.8,473h-10.2l13,13.1h-9.9L917.7,473h-3v7.2l5.9,5.9
			h-5.9v4.8l-4.8-4.8h-10.2l15,15V501.2z"/>
		<path class="st0" d="M955.1,474.3c-2.4-0.6-4.8-0.9-6.9-1.1l6.9,6.9V474.3z"/>
		<path class="st0" d="M976.6,491.5l-5.5-5.5H961l18.7,18.7C979.3,499.5,978.2,495.1,976.6,491.5z"/>
		<polygon class="st0" points="688.7,537.7 712.3,561.3 712.3,551.1 688.7,527.5 		"/>
		<path class="st0" d="M659.9,498.7h-10.2l15.2,15.2h14.8c0.7,0,1.2,0.5,1.2,1.2v0.6c0,0.7-0.5,1.2-1.2,1.2h-11.8l4,4v5.7h5.7
			l8.2,8.2v-7.4c0-0.7,0.5-1.2,1.2-1.2h0.6c0.3,0,0.7,0.2,0.9,0.4h9.2l14.7,14.7V531l-4.5-4.5h4.5v-5.6l5.6,5.6h10.2l-15.8-15.8
			v-9.9l25.7,25.7h10.2l-35.9-35.9V486h-4.6L681,459.2c1.2,4.7,2.4,9.3,3.4,13.6l13.2,13.2h-9.9l-0.2-0.2
			c1.2,10.7-12,12.5-17.7,12.8l2.1,2.1v9.9L659.9,498.7z"/>
		<path class="st0" d="M652.3,413.9c1.3,0,2.6,0,3.7,0l-8.8-8.8H637l8.9,8.9C648.6,414,650.8,413.9,652.3,413.9z"/>
		<path class="st0" d="M671.9,426.7c1.2,3.3,3.3,10.5,5.5,18.9h0.1l28.7,28.7c-1.3-3.5-3-8.9-4.9-15.1l-13.6-13.6h9.4
			c-3.5-11.6-6.6-22.7-7.8-26.5c-1-3.3-1.4-5.6,2.2-7.7c4.5-2.5,13.9-3.5,20.8-3.8v-2.4h-4.6L690,387.3c-3.8-0.6-7.7-1.1-11.7-1.5
			l19.3,19.3h-9.9l-15.8-15.8v10.2l5.6,5.6h-5.6v4.6l-4.6-4.6h-10.2l14.8,14.8V426.7z"/>
		<path class="st0" d="M748.2,445.6l-10-10c1.5,3.2,3.1,6.6,4.7,10H748.2z"/>
		<path class="st0" d="M793.3,538.9c-0.6,0.2-1.1,0.5-1.6,0.7l1.6,1.6V538.9z"/>
		<path class="st0" d="M779.9,548l13.4,13.4v-10.2l-7.9-7.9C783.4,544.7,781.6,546.2,779.9,548z"/>
		<path class="st0" d="M752.8,526.5h5.6l17,17c1.6-1.8,3.3-3.5,5.1-5l-12-12h9.9l7.9,7.9c2.1-1.2,4.4-2.3,6.8-3.2v-0.2l-4.6-4.6h4.6
			v-5.6l5.6,5.6h10.2l-15.8-15.8v-9.9l25.7,25.7h10.2l-35.9-35.9V486h-4.6l-19.2-19.2c0,0,0,0,0,0c-2.6-2-4.9-4.3-6.9-7l-9.7-9.7
			v10.2l25.7,25.7h-9.9L756,473.4c0.2,0.5,0.4,0.9,0.6,1.3c0.1,0.2-0.1,0.4-0.2,0.3c-1.2-0.1-2.3-0.2-3.5-0.2v5.5l5.6,5.6h-5.6v4.6
			l-4.6-4.6H738l14.8,14.8v9.9L728.1,486H718l34.9,34.8V526.5z"/>
		<path class="st0" d="M712.3,392.1c-3.1-0.9-6.4-1.7-9.9-2.5l9.9,9.9V392.1z"/>
		<path class="st0" d="M727.3,413.9c0.2,0.4,0.5,0.9,0.8,1.4c0,0,0,0,0,0l22.4,22.4c-1.3-2.9-2.5-5.7-3.8-8.5
			c-1.5-3.3-3.2-6.8-5-10.5l-13.6-13.6H718l2.5,2.5C724.2,408.1,725.1,409.8,727.3,413.9z"/>
		<path class="st0" d="M752.8,442.8v2.8h1.3C753.7,444.7,753.2,443.7,752.8,442.8z"/>
		<path class="st0" d="M793.3,473h-4.1c-1.2,0-2.3,0-3.4-0.1l7.6,7.6V473z"/>
		<polygon class="st0" points="874.2,533.9 866.8,533.9 874.2,541.3 		"/>
		<polygon class="st0" points="846.7,533.9 874.2,561.3 874.2,551.2 856.9,533.9 		"/>
		<path class="st0" d="M833.7,526.5h5.6l0.8,0.8h10.2l-0.8-0.8h9.9l0.8,0.8h10.2l-0.8-0.8h4.6v-5.4l5.4,5.4h10.2l-11.9-11.9H837
			c-1.2,0-2.2-1-2.2-2.2c0-1.2,1-2.2,2.2-2.2h37.2v-4.5H837c-1.2,0-2.2-1-2.2-2.2c0-1.2,1-2.2,2.2-2.2h37.2V501l0.2,0.2h10.2
			l-10.4-10.4V486h-4.8L856.4,473h-10.2l13,13.1h-9.9L836.3,473h-2.5v7.6l5.4,5.5h-5.4v4.6l-4.6-4.6H819l14.8,14.8v9.9L809.1,486
			h-10.2l34.9,34.8V526.5z"/>
		<polygon class="st0" points="878.9,505.7 883.4,510.1 893.5,510.1 889,505.7 		"/>
		<polygon class="st0" points="909.9,526.5 898,514.6 887.9,514.6 899.7,526.5 		"/>
		<polygon class="st0" points="550.5,550.9 540.3,540.8 540.3,550.9 550.5,561.1 		"/>
		<path class="st0" d="M537.3,547.9v-10.2l-11.3-11.3h9.9l1.4,1.4v-0.6c0-0.7,0.5-1.2,1.2-1.2h0.6c0.6,0,1.2,0.5,1.2,1.2v3.6
			l10.2,10.2v-10.2l-4.3-4.4h4.3v-5.9l5.9,5.9h10.2l-9.7-9.7h-11.1c-0.7,0-1.2-0.5-1.2-1.2V515c0-0.6,0.5-1.2,1.2-1.2h8.1l-3.4-3.4
			v-9.9l13.3,13.3H574l-23.5-23.5V486h-4.3L531,470.9c-0.3,3-0.6,6.1-0.9,9.3l5.9,5.9h-6.5c-1.1,11.8-2.3,25.2-3.8,40.3l-15.7,0v0.2
			h5.9L537.3,547.9z"/>
		<polygon class="st0" points="576.5,526.5 586.6,526.5 577,516.8 566.8,516.8 		"/>
		<path class="st0" d="M550.5,470l-17.6-17.6c-0.3,2.9-0.6,6-1,9.2l18.6,18.6V470z"/>
		<path class="st0" d="M550.5,460.1v-10.2l-4.3-4.3h4.3v-5.7l5.7,5.7h7c0.1-1,0.2-1.9,0.3-2.8l-13-13v-9.9l14.1,14.1
			c0.4-3.1,0.7-5.9,1.1-8.6c0-0.2,0-0.3,0.1-0.5l-15.2-15.2v-4.5H546l-1.4-1.4c-5.4,8.2-8.3,20.8-10.9,41.9h2.3L550.5,460.1z"/>
		<path class="st0" d="M550.5,397.1c-0.4,0.3-0.9,0.7-1.3,1.1l1.3,1.3V397.1z"/>
		<polygon class="st0" points="226.8,561.3 226.8,551.1 202.2,526.5 212.1,526.5 226.8,541.2 226.8,531 222.2,526.5 226.8,526.5 
			226.8,526.1 186.3,526.1 186.3,526.5 192,526.5 		"/>
		<polygon class="st0" points="307.7,561.3 307.7,557.4 303.7,557.4 		"/>
		<polygon class="st0" points="296.5,550.1 306.6,550.1 283,526.5 292.9,526.5 307.7,541.3 307.7,531.1 303.1,526.5 307.7,526.5 
			307.7,526.2 267.2,526.1 267.2,526.5 272.9,526.5 		"/>
		<path class="st0" d="M377.4,550.1c3.2,0.1,7,0.3,11.2,1L364,526.5h9.9l14.8,14.8v-10.2l-4.6-4.6h4.6v-0.3l-40.5,0v0.3h5.6
			L377.4,550.1z"/>
		<path class="st0" d="M388.6,561.3v-2.9c-1.2-0.2-2.3-0.4-3.4-0.5L388.6,561.3z"/>
		<polygon class="st0" points="469.6,561.5 469.6,551.4 444.7,526.5 454.6,526.5 469.6,541.5 469.6,531.3 464.8,526.5 469.6,526.5 
			469.6,526.3 429.1,526.3 429.1,526.5 434.5,526.5 		"/>
		<path class="st0" d="M955.6,679.1h6.1l-6.6-6.6c0.2,2,0.3,4.1,0.5,6.3L955.6,679.1z"/>
		<path class="st0" d="M955.1,647.9h-4.6l-0.9-0.9c0.2,0.6,0.5,1.2,0.7,1.9v0c0.3,0.7,0.5,1.5,0.8,2.3c1.6,5.1,3.1,11.8,4,20.4
			c0,0.3,0.1,0.7,0.1,1v-9.9l16.5,16.5h10.2l-26.6-26.6V647.9z"/>
		<polygon class="st0" points="590.9,591.8 566.1,567 555.9,567 590.9,602 590.9,602 590.9,607.4 596.4,607.4 631.4,642.5 
			631.4,632.3 606.5,607.4 616.5,607.4 631.4,622.4 631.4,612.2 626.6,607.4 631.4,607.4 631.4,601.5 637.3,607.4 647.5,607.4 
			631.4,591.4 631.4,581.5 657.4,607.4 667.6,607.4 631.4,571.3 631.4,567 627.1,567 590.9,530.8 590.9,541 616.9,567 616.9,567 
			607,567 590.9,550.9 590.9,561.1 596.9,567 596.8,567 590.9,567 590.9,571.8 586.2,567 576,567 590.9,581.9 590.9,581.9 		"/>
		<polygon class="st0" points="668.8,669.7 647,647.9 636.8,647.9 658.6,669.7 		"/>
		<polygon class="st0" points="664.3,675.4 671.9,682.9 671.9,685.1 712.3,685.1 712.3,682.5 715,685.1 725.1,685.1 715.4,675.4 		
			"/>
		<polygon class="st0" points="671.9,621.9 685.8,635.8 685.8,625.6 671.9,611.8 		"/>
		<path class="st0" d="M712.3,669.7v-7.3l7.3,7.3h10.2l-17.4-17.4v-4.3H708l-19.3-19.3v10.2l9.1,9.1h-9.1v13.3
			c0,0.7-0.5,1.2-1.2,1.2h-0.6c-0.7,0-1.2-0.5-1.2-1.2v-15.5l-13.9-13.9V642l5.9,5.9h-5.9v4.8l-4.8-4.8h-10.2l15,15v6.8H712.3z"/>
		<polygon class="st0" points="725.3,675.4 735.1,685.1 745.2,685.1 735.5,675.4 		"/>
		<polygon class="st0" points="685.8,565 671.9,551.1 671.9,561.3 677.6,567 671.9,567 671.9,571.3 667.5,567 657.4,567 
			671.9,581.5 671.9,591.4 647.5,567 637.3,567 671.9,601.6 671.9,607.4 677.8,607.4 685.8,615.4 		"/>
		<polygon class="st0" points="712.3,631.9 688.7,608.3 688.7,618.4 712.3,642 		"/>
		<polygon class="st0" points="685.8,544.9 671.9,531 671.9,541.2 685.8,555.1 		"/>
		<polygon class="st0" points="738.3,607.4 748.5,607.4 712.3,571.3 712.3,567 707.8,567 688.7,547.9 688.7,558 697.7,567 
			688.7,567 688.7,607.4 697.8,607.4 712.3,621.9 712.3,611.8 708,607.4 712.3,607.4 712.3,601.5 718.2,607.4 728.4,607.4 
			712.3,591.4 712.3,581.5 		"/>
		<polygon class="st0" points="750.1,669.7 728.4,647.9 718.2,647.9 740,669.7 		"/>
		<path class="st0" d="M793.3,647.9h-4.3L760,619c-0.4,0.2-1,0-1-0.7V618l-6.2-6.2v10.2l26,26h-9.9l-16.1-16.1V642l5.9,5.9h-5.9v4.3
			l-4.4-4.3h-10.2l14.5,14.5v7.3h4.1c1.2,0,2.3,1,2.3,2.3v1.2c0,1.2-1,2.3-2.3,2.3h-11.2l7.1,7.1v2.6h13.3c17.2,0,21.8-0.9,24.1-9.2
			c0.9-3,1.9-6.6,3.1-10.7v-2.8l0.6,0.6c0.7-2.5,1.5-5.1,2.4-7.7l-3.1-3.1V647.9z"/>
		<path class="st0" d="M758.7,607.4l0.4,0.4c0-1.4,0-2.6,0.1-3.4c0.4-9.2,1.1-17.9,2.4-25.8c0.9-5.4,2-10.5,3.5-15.2l-12.2-12.2
			v10.2l5.6,5.6h-5.6v4.3l-4.3-4.3h-10.2l14.5,14.5v9.9L728.4,567h-10.2l34.6,34.6v5.9H758.7z"/>
		<path class="st0" d="M771.2,549.4l-18.3-18.3v10.2l14.9,14.9C768.7,553.7,769.9,551.5,771.2,549.4z"/>
		<path class="st0" d="M793.3,567h-4.6l-13.5-13.5c-1.4,2-2.7,4.1-3.8,6.3l7.2,7.2h-9.9l-0.3-0.3c-3.5,9.5-5.7,21.5-6.7,37.1h0
			c-0.1,1.2-0.3,3.4-0.5,6.1l32.1,32.1v-10.2l-24.4-24.4h9.9l14.5,14.5v-10.2l-4.3-4.3h4.3v-5.7l5.7,5.7h10.2l-15.9-15.9v-9.9
			l25.8,25.8h10.2l-35.9-35.9V567z"/>
		<path class="st0" d="M874.2,567h-4.6l-33.1-33.1h-2.8v7.4l25.7,25.7h-9.9l-15.8-15.8v10.2l5.6,5.6h-5.6v4.5l-4.5-4.5H819
			l14.7,14.7v9.9L809.1,567H799l34.8,34.8v2.6c9.1-5,20.2-8.3,34-8.9c3.6-0.2,7-0.1,10.4,0.1l-3.9-3.9v-9.9l15.3,15.3
			c5.2,1,10,2.5,14.4,4.2l-29.7-29.7V567z"/>
		<polygon class="st0" points="955.1,632.1 930.4,607.4 940.4,607.4 955.1,622.2 955.1,612 950.5,607.4 955.1,607.4 955.1,601.8 
			960.8,607.4 970.9,607.4 955.1,591.6 955.1,581.7 980.9,607.4 991,607.4 955.1,571.6 955.1,567 950.4,567 917.3,533.9 
			914.7,533.9 914.7,541.4 940.2,567 930.3,567 914.7,551.4 914.7,561.5 920.1,567 914.7,567 914.7,571.6 910.1,567 899.9,567 
			914.7,581.8 914.7,591.7 890,567 879.8,567 914.7,601.8 914.7,607.4 920.3,607.4 955.1,642.3 		"/>
		<path class="st0" d="M995.6,642.3l1.4,1.4c0.4-2.8,0.8-5.8,1.2-9l-2.6-2.6V642.3z"/>
		<path class="st0" d="M999.5,615.9l-3.9-3.9v10.2l3.4,3.4C999.2,622.5,999.4,619.2,999.5,615.9z"/>
		<path class="st0" d="M996,648.9c0.1-0.3,0.1-0.7,0.2-1h-0.6v4.6l-4.6-4.6h-10.2l1,1l0,0l13.8,13.8v9.9l-23.7-23.7l0,0l-1-1h-10.2
			l1,1l0,0l30.3,30.3h3.7c3.5,0,6.3-1.6,8.3-4.6c1.7-2.6,2.7-6.2,2.7-10.1C1006.6,656.8,1003,649.2,996,648.9z"/>
		<path class="st0" d="M999.3,554.7l-3.7-3.7v10.2l4,4C999.5,561.6,999.4,558.1,999.3,554.7z"/>
		<path class="st0" d="M995.6,591.7L970.9,567h-10.2l34.9,34.9v5.6h4.1c0.3-12.6,0.2-26.3-0.1-40.5h-4v4.6L991,567h-10.2l14.8,14.8
			V591.7z"/>
		<polygon class="st0" points="588.1,669.7 566.3,647.9 556.1,647.9 577.9,669.7 		"/>
		<polygon class="st0" points="583.6,675.4 590.9,682.7 590.9,685.1 631.4,685.1 631.4,682.9 633.6,685.1 643.8,685.1 634.1,675.4 
					"/>
		<polygon class="st0" points="631.4,669.7 631.4,662.8 638.2,669.7 648.4,669.7 631.4,652.7 631.4,647.9 626.6,647.9 590.9,612.2 
			590.9,622.4 616.5,647.9 606.6,647.9 590.9,632.3 590.9,642.5 596.4,647.9 590.9,647.9 590.9,652.5 586.4,647.9 576.2,647.9 
			590.9,662.7 590.9,669.7 		"/>
		<polygon class="st0" points="644,675.4 653.7,685.1 663.8,685.1 654.1,675.4 		"/>
		<path class="st0" d="M186.3,607.4h5.9l12.3,12.3c0.2-3.2,0.5-6.3,0.9-9.3l-3-3h3.4c1-7.1,2.5-13.6,4.5-19.4
			c2.9-8.5,6.8-15.6,11.7-21.3L186.3,531v10.2l25.8,25.8h-9.9l-15.9-15.9v10.1l5.7,5.7h-5.7v4.3l0,0v10.2l0,0v9.9l0,0v10.2l0,0
			V607.4z"/>
		<path class="st0" d="M226.8,642v-10.2l-19.9-19.9c-0.5,2.9-0.8,5.9-1.1,9L226.8,642z"/>
		<path class="st0" d="M226.8,569.3c-9.5,8.4-15.8,21.1-19.1,38.1h4.6l14.5,14.5v-10.2l-4.4-4.4h4.4v-5.9l5.9,5.9h10.1l-16-16.1
			v-9.9l26,26h10.2l-36.1-36.1V569.3z"/>
		<path class="st0" d="M232.7,647.9l10.7,10.7c0.7-2.6,1.6-5.1,2.5-7.6l-3.1-3.1H232.7z"/>
		<path class="st0" d="M267.2,617.3c0.9-0.9,1.9-1.8,2.8-2.7l-2.8-2.8V617.3z"/>
		<polygon class="st0" points="286.3,550.1 267.2,531.1 267.2,541.3 276.1,550.1 		"/>
		<path class="st0" d="M307.7,567h-4.6l-9.6-9.6h-10.2l9.6,9.6H283l-9.6-9.6h-6.2v4l5.6,5.6h-5.6v4.3l-4.3-4.3h-10.2l14.5,14.5v9.9
			L242.8,567h-10.2l34.6,34.6v5.9h5.9l2.6,2.6c10.3-7.5,22.7-12.5,37.3-13.2l-5.3-5.3v-9.9l15.2,15.2c4.1,0.2,7.9,0.7,11.6,1.4
			l-26.8-26.8V567z"/>
		<path class="st0" d="M399.6,669.1c0.4,1.9,0.9,3.9,1.4,5.8l10,10c0.7,0.1,1.5,0.2,2.3,0.2h8l-23.6-23.6
			C398.7,665.2,399.3,667.9,399.6,669.1z"/>
		<polygon class="st0" points="367.2,550.1 348.2,531.1 348.2,541.2 357,550.1 		"/>
		<path class="st0" d="M388.6,591.6v-9.9l25.7,25.7h10.2l-35.9-35.9V567h-4.6l-9.6-9.6h-10.2l9.6,9.6H364l-9.6-9.6h-6.2v4l5.6,5.6
			h-5.6v4.5l-4.5-4.5h-10.2l14.7,14.7v9.9L323.5,567h-10.2l34.8,34.8v0.4c20.5,7.8,32.9,22.8,40.5,36.7v-6.8L364,607.4h9.9
			l14.7,14.7V612l-4.5-4.5h4.5v-5.6l5.6,5.6h10.2L388.6,591.6z"/>
		<path class="st0" d="M429.1,612v10.2l3.8,3.8c-0.3-3.9-0.6-7.7-1.1-11.3L429.1,612z"/>
		<path class="st0" d="M435.7,675.4c-1.3,0-2.3-1-2.3-2.3v-1.2c0-1.2,1-2.3,2.3-2.3h33.8v-7l7,7h10.2l-17.2-17.2v-4.6H465
			l-31.4-31.4c0.3,3.5,0.5,7,0.6,10.7l20.7,20.7h-9.9l-10.7-10.7v1.9c0,0.2-0.2,0.4-0.4,0.4c-0.2,0-0.4-0.2-0.4-0.4
			c0-0.9,0-1.8,0-2.8l-4.2-4.2v10.2l5.6,5.6h-5.6v4.5l-4.5-4.5h-10.2l14.7,14.7v9.9l-24.6-24.6h-10.2l34.8,34.8v2.4h40.5v-2.4
			l2.4,2.4h10.2l-9.7-9.7H435.7z"/>
		<polygon class="st0" points="482.3,675.4 492,685.1 502.2,685.1 492.5,675.4 		"/>
		<path class="st0" d="M429.1,601.8v5.6h1.5c-1.5-7.8-3.7-14.7-6.5-20.7L404.4,567h-10.2L429.1,601.8z"/>
		<path class="st0" d="M421.9,574.6l7.2,7.2v9.7c1.4,4.9,2.6,10.2,3.4,15.9h2.2l34.9,34.9v-10.2l-24.7-24.7h9.9l14.8,14.8V612
			l-4.6-4.6h4.6v-5.6l5.6,5.6h10.2l-15.8-15.8v-9.9l25.7,25.7h10.2l-35.9-35.9V567h-4.8l-35.7-35.7v10.2l25.5,25.5h-9.9l-15.6-15.6
			v10.2l5.4,5.4h-5.4v4.6l-4.6-4.6h-8C418.5,569.3,420.3,571.8,421.9,574.6z"/>
		<polygon class="st0" points="475.2,647.9 496.9,669.7 507.1,669.7 485.3,647.9 		"/>
		<polygon class="st0" points="502.7,675.4 510,682.8 510,685.1 550.5,685.1 550.5,682.7 552.9,685.1 563,685.1 553.3,675.4 		"/>
		<path class="st0" d="M550.5,669.7v-7l7,7h10.2l-17.2-17.2v-4.6h-4.6l-5.6-5.6v18.9c0,0.7-0.5,1.2-1.2,1.2h-0.6
			c-0.7,0-1.2-0.5-1.2-1.2v-21.9L510,612v10.2l25.7,25.7h-9.9L510,632.1v10.2l5.6,5.6H510v4.6l-4.6-4.6h-10.2l14.8,14.8v7H550.5z"/>
		<polygon class="st0" points="563.2,675.4 573,685.1 583.1,685.1 573.4,675.4 		"/>
		<polygon class="st0" points="510,607.4 515.6,607.4 537.3,629.1 537.3,619 525.8,607.4 535.7,607.4 537.3,609.1 537.3,558.1 
			510,530.8 510,541 536,567 526.1,567 510,550.9 510,561.1 515.9,567 510,567 510,571.6 505.4,567 495.3,567 510,581.7 510,591.7 
			485.4,567 475.2,567 510,601.8 		"/>
		<polygon class="st0" points="540.3,632.1 550.5,642.3 550.5,632.1 540.3,622 		"/>
		<polygon class="st0" points="540.3,612 550.5,622.2 550.5,612 545.9,607.4 550.5,607.4 550.5,602 555.9,607.4 566.1,607.4 
			550.5,591.8 550.5,581.9 576,607.4 586.2,607.4 550.5,571.8 550.5,567 546.2,567 540.3,561.1 		"/>
		<path class="st0" d="M226.8,647.9h-4.3l-17.3-17.3c-0.1,2.8-0.2,5.6-0.2,8.6c0,0.2-0.2,0.4-0.4,0.4c-0.2,0-0.4-0.2-0.4-0.4v-6.8
			c0-0.9,0-1.8,0-2.8l-17.8-17.8v10.2l26,26h-9.9l-16.1-16.1V642l5.9,5.9h-5.9v4.8l0,0c0,0.2,0,0.3,0,0.3s10.7,0,17.8,0
			c0.7,13.8,3.3,32.2,10.9,32.2h11.9v-2.6l2.6,2.6h10.1v-0.1l-12.7-12.7v-9.9l13.3,13.3c0.3-2.9,0.8-5.9,1.4-8.8l-14.6-14.6V647.9z"
			/>
	</g>
	<path class="st0" d="M840.4,164.8c-0.2-0.7-0.8-1.2-1.6-1.2c-0.6,0-1.4,0.3-2.2,1c-3.1,1.6-25.7,18.4-28.9,21
		c-0.4,0.3-0.8,0.7-1.3,0.7c-0.1,0-0.1,0-0.2,0c-0.1-0.3-0.3-0.6-0.5-0.8c-0.6-3.9-0.7-7.9-0.9-11.8c-0.1-3.2-0.3-6.4-0.6-9.6
		l-0.8-11.6l0,0c-0.3-1.5-1.1-2.9-1.9-4.3l0,0l0,0c-1.3-1.7-3.4-2.8-5.7-2.8c-0.6,0-1.3,0.1-1.9,0.2c-3.2,0.5-5.1,2.4-5.4,5.3
		c-0.6,2.4-0.5,5-0.3,6.6c0.2,4.1-0.4,8.4-1.8,13c-0.5,1.2-0.8,2.4-1.1,3.6c-1.5,6.5-4.3,12.4-7.2,18.5l-0.5,1.1l-0.7,1.3
		c-0.3,0.3-0.6,0.6-0.9,0.9c-1.4,1.3-2.7,2.5-4.5,3.1c-1.5-1-1.6-2.5-1.8-4c0-0.3-0.1-0.7-0.1-1.1c-1.4-7-1.5-14.6-0.3-23.5
		c0.8-3.9,0.3-7.8-0.2-12l0-0.3l0,0c-0.3-1.3-1.2-2.9-1.9-3.9c-1.3-2.1-3.4-2.3-5.1-2.3l0,0c-2.9,0.3-4.8,1.4-5.9,3.5
		c-1,1.8-1.6,3.8-1.9,6.5c-0.1,0.9-0.1,1.8-0.1,2.6c0,1.3-0.1,2.6-0.4,3.8l0,0l0,0c-0.2,1.5-0.4,3-0.6,4.5
		c-22.1,62.1-31.7,87.7-45.9,89.7c-0.3-0.7-0.5-1.3-1-2c-0.7-6.7-0.8-11.9-0.3-16.7c0.9-13.4,3.8-26.8,8.7-39.9c0.5-1.6,1-3.3,1.5-5
		c1-3.3,2-6.7,3-9.6c1.3-4.1,1.8-7.8,1.5-11.2v-0.6l0,0c-0.9-6.4-6-8.6-10.1-8.6c-0.4,0-0.9,0-1.3,0.1c-0.6,0-1.3,0.1-2,0.1
		c-0.7,0.1-1.3,0.1-1.9,0.1c-0.7,0-1.5,0.1-2.2,0.1c-4.4,0-9.1-0.6-14.4-1.8c0-0.4,0-0.8-0.1-1.2c-0.1-0.9-0.1-1.8,0.1-2.6
		c1.1-6.5,1-11.4-0.6-16.1c-0.8-2.4-2-5.4-4.4-7.5c-2.4-2.1-5.2-3.2-8.2-3.2c-0.6,0-1.3,0-1.9,0.1c-4.9,0.8-9.3,3.9-11.8,8.4
		c-2.3,4.1-2.8,8.8-1.2,12.8c2.4,6.8,9.2,12.2,19.2,15.4c-21.9,61.6-31.5,87-45.7,89c-0.3-0.7-0.5-1.3-1-2
		c-0.7-6.7-0.8-11.9-0.3-16.7c0.9-13.4,3.8-26.8,8.7-39.9c0.5-1.6,1-3.3,1.5-4.9c1-3.3,2-6.7,3-9.6c1.3-4.1,1.8-7.8,1.5-11.2v-0.6
		l0,0c-0.9-6.4-6-8.6-10.1-8.6c-0.4,0-0.9,0-1.3,0.1c-0.6,0-1.3,0.1-2,0.1c-0.7,0.1-1.3,0.1-1.9,0.1c-0.7,0-1.5,0.1-2.2,0.1
		c-4.4,0-9.1-0.6-14.4-1.8c0-0.4,0-0.8-0.1-1.2c-0.1-0.9-0.1-1.8,0.1-2.6c1.1-6.5,1-11.4-0.6-16.1c-0.8-2.4-2-5.4-4.4-7.5
		c-2.4-2.1-5.2-3.2-8.2-3.2c-0.6,0-1.3,0-1.9,0.1c-4.9,0.8-9.3,3.9-11.8,8.4c-2.3,4.1-2.8,8.8-1.2,12.8c3,8.5,11.7,12.9,18.7,15.2
		c-1.9,3.2-3.6,6.1-5.3,8.9c-2.3,3.9-4.7,7.9-7.7,12.8c-0.9,1.5-1.7,2.9-2.6,4.4c-3.1,5.4-6.4,11-10.9,15.7
		c-3.3,3.9-7.7,6.9-13.6,9.3l0,0l0,0c-1.4,0.8-3.1,1-4.9,1.3c-0.3,0-0.5,0-0.8,0c-2.2,0-4.1-1-5.3-2.7c-2.7-4.3-4.2-8.1-4.4-11.9
		c-0.1-1.1-0.2-2.1-0.3-3.2c-0.1-1.1-0.2-2.2-0.3-3.3l0,0l0,0c-1.1-4.2-0.2-8.4,0.7-12.5c0.3-1.3,0.6-2.6,0.8-4l0,0v0
		c0-0.1,0.2-0.4,0.6-0.6c1-0.4,2.3-0.7,3.5-1.1c0.6-0.2,1.3-0.4,1.9-0.6c11.8-4.4,18.5-11.6,20.2-21.9c0.9-4.4,0-8.7-2.8-13.3
		c-2.1-3.7-5.9-6-10.3-6c-1.8,0-3.7,0.4-5.5,1.2c-1.3,0.6-3.7,1.7-5.5,3c-5.3,4.1-8.8,7.9-11.6,12.3c-3.5,6-6.1,12.7-8.2,21.1
		c-1.2,4.5-2.5,9.9-2.8,15.4c-11.6,53.2-23.2,83.7-32.7,86c-2-2.1-2.8-4.2-3.3-6c-1.8-5.6-2.1-11.3-2.4-16.8
		c-0.2-3.6,0.1-7.3,0.3-10.8c0.1-1.2,0.2-2.4,0.3-3.6c0.2-1.7,0.4-3.4,0.6-5c0.6-4.9,1.2-10.1,2.4-15.1c0.4-2.4,0.8-4.8,1.2-7.1
		c1.4-8.5,2.7-16.4,4.5-24.6c2.2-9.7,4.7-19.3,7.1-28.5c1.2-4.6,2.5-9.4,3.7-14.2c0.9-3.4,1.8-6.8,2.8-10.1
		c2.6-9.4,5.4-19.2,6.3-28.9c0.6-4.2,0.2-8.4-1.2-13.4c-0.3-1.8-1-3.4-1.9-4.7c-2.5-4.1-7.7-8.6-14.8-8.6c-2.5,0-5,0.6-7.5,1.6
		c-1.5,0.5-3.1,1.1-4.6,2.2c-8.3,4.9-15,10.3-20.5,16.5c-7.7,8.3-14.7,18-22,30.5c-7,12.3-12.7,25.2-16.8,38.4c-0.1-2-0.4-4-0.8-6.2
		c-0.9-5.2-2.1-10.7-4.9-16.1c-3.9-6.6-8.9-10-15.7-10.8l-0.1,0l-0.1,0c-6.4,0.5-11,3.2-14.5,8.6c-0.3,0.4-0.5,0.9-0.8,1.3
		c-1.3,2.1-2.7,4.3-3.7,6.6c-4,9.7-7,19.6-8.7,29.4c-0.6,3.2-1.2,6.4-1.8,9.6c-0.5,2.8-1.1,5.6-1.6,8.5c-0.3-3.3-0.6-6.7-1.2-9.9
		c-0.8-4.9-1.8-9.8-2.9-14.5c-0.6-2.6-1.1-5.2-1.7-7.9c-3.2-13.2-6.7-23.5-10.9-32.6c-2.3-4.8-5.2-9.4-9.1-14.4
		c-1.7-2.1-4.1-3.6-7.2-4.5c-0.7-0.2-1.4-0.3-2.1-0.3c-1.6,0-3.1,0.5-4.3,1.4c-3.2,2.3-4.2,5.6-2.6,9.3c1,2.4,2.2,4.5,3.7,6.3
		c3.4,6.1,6.8,12.6,9,19.8c2.3,6.9,4.4,14.1,6.3,21.5c1.5,6.7,2.7,13.5,3.9,20.1c1,7.1,1.5,12.7,1.5,18.2c0.3,5.9,4.5,9.5,8.3,12.5
		c1.5,1,2.9,1.5,4.4,1.5c2.3,0,4.5-1.4,6.6-4l0.7-0.7v-0.4c0.6-1.1,0.9-2.2,1.2-3.2l0,0l0,0c0.2-2,0.6-4,1-6.1
		c0.3-1.2,0.5-2.5,0.8-3.8l0.6-3.5c1.3-6.9,2.6-14.1,4.2-21.3c1.8-9.4,4.7-18.5,9-27.8c1.5-3.2,3.9-6.1,6.7-8.1l2.4-1.2
		c2.8,2,3.4,4.6,4,7.1l0,0.2c0.9,4.7,1.2,9.1,1.5,13.4c0.3,5.6,0.3,11.4,0.3,16.9c0,2-0.1,4-0.1,5.9c-0.1,1.9-0.2,3.9-0.2,5.9
		c0,1.8,0.5,3.4,1.6,5.4c1.5,2.3,4.7,3.9,7.9,3.9c2.9,0,5.5-1.3,7.1-3.6c1.2-1.7,1.9-3.6,1.9-5.6l6.3-20.1
		c6.5-20.7,15.1-38.3,26.4-53.9c6.3-9.2,12.9-16.6,20.3-22.7c3.7-3,8-5.7,13.4-8.3c0.8-0.3,1.8-0.7,2.9-0.7c0.9,0,1.8,0.3,2.7,0.8
		c0.1,0.4,0.2,0.7,0.3,1.1c0.1,0.4,0.3,0.7,0.3,1c0,4.3,0,8.3-0.6,12.3c-1.6,8.9-3.8,18.2-6.9,29.3c-3.8,13.5-7.7,27.9-11.1,42.5
		c-2.6,10.3-4.6,19.7-6.3,28.8c-1.1,5.8-1.9,11.9-2.7,17.7l-0.3,1.9c-0.2,1.9-0.6,3.9-0.9,5.8c-0.5,2.9-1,5.8-1.2,8.8
		c-0.3,7.6-0.3,15.1,0,22.4c0.2,3.5,1,6.9,1.8,10.2c0.2,0.9,0.4,1.7,0.6,2.6c1.2,4.6,3.6,8.5,7.4,11.8c2.9,2.4,6.4,3.7,10,3.7
		c2.6,0,5.2-0.7,7.4-2.1c6-2.8,12.2-12.9,18.7-30c6-16,10.9-34.7,14.1-48.2c2.2,4.6,5.5,8.7,9.8,12.1c4.4,3.4,8.8,5.1,13.5,5.1
		c2.7,0,5.6-0.6,8.4-1.8l0.1,0l0,0c0.6-0.4,1.2-0.6,1.9-0.9c0.7-0.3,1.4-0.6,2.1-1l0,0c1.4-1.1,2.8-2.1,4.2-3.1
		c3.5-2.6,7.2-5.2,10-8.5c4.8-5.4,9.1-11.4,12.7-17.9c2.7-5.1,6.4-11.6,10-17.9c1.6-2.8,3.2-5.5,4.5-7.9c4.7,1,9.8,1.6,14.9,1.6
		c1.4,0,2.9,0,4.3-0.1c-5.5,10.7-14.3,43.2-16.7,59.3l0,0c-0.7,11.5,0.4,20,3.6,28.2c0.7,1.7,1.3,3.1,2.1,4.6l0,0l0,0
		c3.9,5.6,8.2,8.4,12.7,8.4c9.6,0,20.1-12.6,31.3-37.5c10.7-23.9,19-52.5,22.2-64.2c4.3,0.8,8.9,1.3,13.5,1.3c1.4,0,2.9,0,4.3-0.1
		c-5.5,10.7-14.3,43.2-16.7,59.3l0,0c-0.7,11.5,0.4,20,3.6,28.2c0.7,1.7,1.3,3.1,2.1,4.6l0,0l0,0c3.9,5.6,8.2,8.4,12.7,8.4
		c19.1,0,37.7-50.1,47.6-81.7c0.4,3.8,1.6,7,3.7,9.7c1.9,2.8,5.1,4.5,8.7,4.5c2.3,0,4.4-0.7,6.1-2c4.4-3.4,7.7-6.2,9.8-10.6l0,0
		c1.5-3.2,3.1-6.5,4.9-9.9l0,0l2-5.3c0.9,3.2,1.1,6,1.1,9c0,1.3,0.2,2.5,0.4,3.8c0.3,2,0.6,4,0.2,6.2c-5.9,5.5-12,11.4-17.8,17.1
		c-7.1,6.6-12.9,12.8-17.7,19.1c-6.7,9-13.3,18.9-20,30.3c-2.5,4.7-4.6,10-6.3,15.6c-1.6,4.4-2.6,8.3-3.1,12.4
		c-0.7,4.9-0.8,10-0.5,16.8c0.6,6.6,2.6,12.2,5.8,16.6c2.8,3.3,6.6,5.3,10.7,5.8c2.5,0.4,4.7,0.7,7,0.7c0,0,0,0,0,0
		c2.9,0,5.6-0.4,8.4-1.1c4.3-1.5,7.9-3.2,11-5.2c12.2-7.3,21.2-17.1,27.7-30.2c7.2-14.9,11.4-31.1,12.8-49.4
		c0.6-9.6,0.8-18.1,0.5-25.8c0.3-4.9-0.3-9.9-0.8-14.7c-0.2-2.5-0.5-4.9-0.9-7.4c-0.2-1.4-0.4-2.9-0.6-4.4c0.2-0.9,0.2-1.7,0.3-2.8
		c1.5-0.9,2.7-2.1,3.9-3.1c14.6-11.4,21.6-16.7,28-21.6C840.2,168,840.7,166,840.4,164.8z M733.5,286.3c0.2-0.8,0.4-1.6,0.6-2.4
		c3.3-10,8.1-19.2,14.7-28.2l7.8-11.8c4.5-6.2,9.9-12.5,17.6-20.1c4.9-4.9,10.2-9.6,15.3-14.1l0,0l0,0c0.3-0.4,0.9-0.9,1.4-1.3
		c0.1-0.1,0.3-0.2,0.4-0.3c0.7,1.1,0.8,2.3,1,3.5c0,0.3,0.1,0.6,0.1,0.9c0.8,11,0.5,22.2,0,31.7c-0.6,9.9-2,23-6.5,35.8
		c-3.9,10.8-8.6,19.5-14.2,26.5c-3.7,4.2-7.7,8.1-12.6,12.2c-2.1,1.6-4.4,3-7.9,4.6c-2.4,0.9-5.3,1.7-8.4,1.7
		c-1.1,0-2.3-0.1-3.4-0.3c-4.9-3-6.3-7.5-7.2-11.5l0,0c-0.8-2.5-1-5.2-1.1-7.8c0-0.7-0.1-1.4-0.1-2
		C730.8,297.4,732.1,292,733.5,286.3z M678.7,143.9c3.6,3.1,4.2,7.7,4.5,12.2l0,0l0,0c0.5,1.8,0.2,3.7-0.1,5.6
		c-0.1,0.5-0.1,1-0.2,1.4c-0.1,0.3-0.2,0.6-0.2,0.9c-0.1,0.5-0.2,1-0.5,1.6c-3.7-0.4-6.6-2.3-9.3-4.2c-2.4-1.7-4.2-4.1-5.2-6.9
		c-0.5-3.4,0.5-6.2,3.2-8.9c1.3-1.4,3.1-2.1,5.2-2.1C677,143.5,677.8,143.6,678.7,143.9z M605.7,143.9c3.6,3.1,4.2,7.7,4.5,12.2l0,0
		l0,0c0.5,1.8,0.2,3.7-0.1,5.6c-0.1,0.5-0.1,0.9-0.2,1.4c-0.1,0.3-0.2,0.6-0.2,0.9c-0.1,0.5-0.2,1-0.5,1.6c-3.7-0.4-6.6-2.3-9.3-4.2
		c-2.4-1.7-4.2-4.1-5.2-6.9c-0.5-3.4,0.5-6.2,3.2-8.9c1.3-1.4,3.1-2.1,5.2-2.1C603.9,143.5,604.8,143.6,605.7,143.9z M570.2,160.4
		c1.1,6.7-1.4,12.2-7.5,16.4c-0.7,0.3-1.5,0.8-2.3,1.2c-0.5,0.3-1.1,0.6-1.6,0.9c-0.9,0.5-1.8,0.8-2.8,1.2c-0.5,0.2-1.1,0.4-1.6,0.6
		c-0.3-2.6,0.7-6.2,3.4-11.6c0.5-1.1,1-2.2,1.4-3.3c1.7-4.1,3.3-7.9,7.4-10.8C569.4,156.2,569.9,158.3,570.2,160.4z"/>
	<g>
		<path class="st0" d="M547.6,852.5c6.7,0,11.6-5,11.6-11.5c0-6.5-5-11.6-11.5-11.6c-6.5,0-11.6,5.2-11.6,11.6
			C536.1,847.3,541.3,852.5,547.6,852.5z"/>
		<path class="st0" d="M770.8,848.3c-5.2,0.6-9,3.6-11.8,7.8c-2.3,3.4-4.4,7.1-6.5,10.7c-1,1.7-1.9,3.6-2.9,5.3
			c-0.4-0.6-0.2-1-0.4-1.5c0-2.9-0.2-5.7-0.6-8.6c-0.4-3.6-1.5-6.9-4-9.5c-4.2-4.6-12.8-5.9-18.9-3.1c-3.8,1.9-6.7,5-8.8,8.6
			c-3.6,6.5-7.3,13.2-10.7,19.7c-0.6,1-1,1.7-1.5,3.1c-0.2-1-0.4-1.3-0.4-1.9c-0.6-3.4-1-7.1-1.7-10.5
			c-2.7-10.3-10.1-13.5-19.7-11.3c0,0.6,0,1.3,0,2.1c-0.4,5.5-0.8,11-1.2,16.5c-1.4,4.3-2.8,8.6-4.2,12.8c-2.9,8-5.9,16-10.7,23.1
			c-1.9,2.7-4,5.2-6.7,7.1c-3.4,2.7-6.9,1.5-8.6-2.5c-0.6-1.5-1-3.2-1.1-5c-0.2-17,0.4-34.2,2.1-51.3c1-10.1,1.9-20.4,3.2-30.5
			c1-7.8,2.5-15.6,3.6-23.5c0.4-2.9,1-5.7,1.3-8.4c4.4,0.4,8.4,1,12.6,1.3c15.8,1.5,31.7,1.9,47.5,0.4c13.2-1.1,26-3.2,38.4-8
			c11.5-4.2,21.6-10.3,29.6-19.7c3.6-4.6,5.9-9.5,8.6-14.7c5.3-10.9,7.1-22.3,6.5-34.4c-0.2-2.3-1.3-4-3.1-5.2
			c-1.3-1.1-3.1-1.7-4.6-1c-1.7,1-1.5,2.7-1.3,4.2c0.2,2.1,0.8,4,1.1,6.1c1,5.7-0.2,11.5-2.1,17c-6.1,16.8-17.9,28.4-33.8,36.1
			c-15.3,7.6-31.7,10.3-48.7,10.3c-10.9,0-21.9-1-32.8-1.5c-5.3-0.4-10.7-1-15.8-1.5c0-0.4-0.2-0.8,0-1c1.3-7.1,2.5-14.3,4.2-21.2
			c1-3.8,0.4-6.9-2.1-9.5c-2.5-3.2-5-6.5-7.8-9.4c-1.9-1.9-3.4-1.3-4.2,1.1c-1.7,4.8-3.4,9.7-4.8,14.5c-2.1,7.6-4,15.3-5.9,23.1
			c-0.6,0-1,0-1.5,0c-14.7-1.3-29.6-2.7-44.3-3.6c-10.9-0.6-21.8,0.2-32.4,3.1c-12.4,3.2-22.3,9.9-28.8,21.6
			c-2.9,5.3-4.8,11.3-6.1,17.2c-0.4,2.3,0.4,3.6,2.7,3.8c3.2,0.2,5.5-1.9,5.9-5.3c0.4-1.9,0.6-3.8,1.3-5.5
			c4.2-8.8,11.1-15.1,19.7-19.1c13.2-6.3,26.9-6.7,40.8-5.3c9.7,1.1,19.5,2.3,29.2,3.4c3.6,0.4,7.4,0.6,11.3,1
			c-0.2,0.8-0.2,1.3-0.2,1.7c-2.5,16.2-5.2,32.4-7.6,48.5c-2.7,17.6-3.6,35.1-2.5,52.7c0.2,3.1,0.5,6.2,1,9.3
			c-5.9,0.6-11.7,2.1-17.4,4.4c-1.3-2.3-2.5-4.6-3.6-6.9c-7.1-13-15.3-25-24.6-36.5c-0.6-0.6-1-1.3-1-2.1c0.4-4,1.1-7.8,1.3-11.8
			c0.4-4.2,0.4-8.6-1.1-12.8c-2.1-5.5-7.6-7.1-12.2-3.6c-2.7,1.9-4.2,4.4-5,7.4c-1.7,5.5-1.3,11.1-0.2,16.6
			c1.5,7.3,4.2,14.1,7.4,20.8c0.4,0.4,0.6,1.1,0.4,1.7c-0.8,3.8-1.5,7.6-2.5,11.3c-0.6,2.7-1.3,5.2-1.9,7.8c0.1,0,0.2,0.1,0.3,0.1
			c-1.7,5.2-3.3,10.4-5.1,15.6c-1.5,4.4-3.1,8.8-5.7,12.8c-0.8,1.1-1.7,2.1-2.7,3.1c-1,1-2.1,0.6-2.9-0.4c-0.4-1-1-1.9-1.1-3.1
			c-1-3.8-1.1-7.6-1-11.6c0-7.1,0.2-14.1,0.6-21.2c0.4-7.1,1-14.1,1.5-21.2c0.2-2.7,0.4-5.2,0.4-7.8c0-2.3-1-4.6-2.9-6.3
			c-2.3-2.1-5.2-2.7-8.2-2.9c-1.7-0.2-2.9,0.6-3.6,1.9c-1,1.7-1.7,3.4-2.3,5.2c-2.7,7.8-4,16-4.4,24.2c-0.1,1.6-0.1,3.1-0.1,4.7
			c-0.5,1.5-0.9,3-1.4,4.5c-3.4,10.5-7.1,21-12.4,30.7c-1.9,3.4-4,6.9-6.9,9.5c-5,4.4-9.7,3.2-11.3-3.2c-0.8-3.6-1.1-7.4-1.1-11.1
			c0-11.1,1.9-21.8,4-32.4c1-4.2,2.1-8.2,1.9-12.6c-0.4-9.7-7.8-16.4-17.6-15.6c-2.1,0.2-4.2-0.2-5.9-0.2c0.4-7.6,1-14.7,1-21.8
			c0.2-5.2-0.6-10.1-2.3-14.9c-1.9-5-8.2-7.4-12.4-6.5c-5,1.3-8,4.6-10.1,9c-6.7,13-3.8,30.2,11.6,38.9c1.7,1,3.4,1.7,5.3,2.7
			c-1.9,7.1-3.7,14.3-5.6,21.6c-1.1,3.9-2.3,7.8-3.6,11.6c-3.2,9.4-6.7,18.5-11.6,27.1c-1.9,3.2-4,6.1-7.1,8.4
			c-4,2.9-7.6,1.7-9.5-2.7c-1.7-4-2.3-8.4-1.7-12.6c1.1-8.8,2.9-17.7,4.4-26.5c1.9-10.1,3.8-20.2,3.6-30.7
			c-0.2-4.8-0.6-9.4-2.7-13.7c-2.3-4.8-6.1-7.4-11.5-7.4c-2.9-0.2-5.7,0.2-8.4,0.8c-4.6,0.8-7.8,3.4-10.7,6.7
			c-3.6,4.4-7.1,9-10.7,13.4c-0.8,1-1.5,1.9-2.3,2.9c-0.4-0.8-0.4-1.3-0.4-2.1c1-5.9,2.9-11.5,5.2-17c2.9-6.5,5.9-12.8,8.6-19.3
			c4.2-10.1,7.8-20.6,8.8-31.7c1-9-1.9-16.8-7.3-23.7c-2.7-3.4-6.3-4.6-10.1-3.1c-6.1,2.5-11.6,5.9-14.7,12.2
			c-1.3,2.9-2.9,5.7-4,8.6c-8,19.8-11.6,40.6-13.2,61.6c-0.5,6.8-0.7,13.5-0.7,20.3c-0.5,0.5-0.6,1.6-0.7,2.5
			c-4,22.3-12.6,42.5-27.2,60c-8.2,9.9-18.1,18.1-30.5,22.3c-15.6,5.3-30.3,3.8-43.2-7.2c-8.2-6.9-13.3-16-16.8-25.9
			c-5.5-15.8-7.2-32-6.5-48.6c0.6-18.7,4.2-37.1,10.9-54.5c5.3-13.9,12.4-26.5,24-36.2c13.1-11.2,27.6-17.1,45.1-15.4
			c4.6,0.6,9.5,1.7,13.1,5.1c8.8,8.6,13.3,19.8,11.6,31.6c-2.7,19.4-13.3,34.5-30.3,44.6c-6.1,3.8-12.8,5.9-20,5.5
			c-12.8-0.6-20.4-9.1-19.6-21.9c0-2.3-0.6-4.6-1.1-6.9c-0.4,0-0.6,0-1.1,0c-1.1,1.9-2.5,3.6-2.9,5.7c-2.9,10.7,2.9,23.4,12.6,28.4
			c8,4.2,16.4,5.1,25.1,3.6c21.3-3.2,36.8-14.5,47.2-33.3c5.9-10.7,8.6-21.9,6.3-34.3c-4-22.5-22.1-35.4-40.2-37.7
			c-17.7-2.3-34.5,1.7-49.9,10.5c-18.5,10.5-31.4,26.5-40.4,45.5c-12,25.1-16.2,51.6-13.3,79.2c1.5,14.1,5.5,27.4,12.4,39.8
			c15.2,26.9,41.3,37.3,69.1,33.3c16.8-2.5,30.3-10.7,41.5-23.2c12.2-13.6,20.7-29,25.7-46.1c0.3,5.5,0.6,11,1.1,16.4
			c0.6,5,2.1,9.7,5,13.9c1.9,2.7,4.2,5,7.4,5.2c4.6,0.4,8.8-0.6,12.8-2.7c0.6-0.2,1-0.8,1.1-1.1c0.8-2.3,1.5-4.4,1.1-6.9
			c-0.6-7.6-1.5-15.1-1.3-22.7c0.4-8.6,1.3-17,4.4-25c3.6-9.7,9.7-17.4,19.3-21.8c1.7-0.8,3.1-0.4,3.4,1.5c0.4,1.7,0.6,3.4,0.4,5.2
			c-1,4.2-1.9,8.4-3.1,12.8c-2.9,11.1-4.8,22.5-5.9,34c-0.6,5.3-1,10.7-0.4,16.2c0.8,5,1.9,9.9,4.8,14.3c4.6,7.4,14.5,10.7,22.7,7.6
			c5.2-1.9,9-5.5,12.4-9.9c4.8-6.1,8-13.2,10.9-20.4c3.1-8.1,5.4-16.4,7.3-24.9c2.2-6.8,4.2-13.7,5.5-20.7c0.4-1.7,1.7-2.3,3.1-1
			c0.8,0.6,1.1,1.5,1.3,2.3c0,1.3,0,2.7-0.2,4c-1.1,5.9-2.3,11.6-3.4,17.6c-0.8,3.4-2.1,7.1-2.5,10.7c-0.4,4-0.4,8.4-0.2,12.6
			c0.2,6.5,1.1,12.8,3.8,18.7c5.7,12.6,22.1,16,32.1,7.3c3.6-3.2,6.7-6.7,9-10.7c4.9-8,8.4-16.5,11-25.2c0.6,3.9,1.5,7.7,2.7,11.5
			c1,2.7,1.7,5.3,3.1,7.6c2.5,4.2,6.5,6.5,11.3,8c1.9,0.6,4,1.1,6.3,0.6c2.9-0.6,5-2.3,6.7-4.4c3.2-4.2,5.5-8.8,7.3-13.7
			c3.1-8.6,5.2-17.6,7.3-26.3c0.1-0.8,0.3-1.6,0.5-2.3c4.9,9.9,9.7,19.8,14.4,29.7c0.2,0.2,0,1-0.2,1.3c-1.9,2.5-3.8,5-5.5,7.4
			c-5.3,8-9.9,16.4-10.9,26.1c-1.3,11.5,2.7,21,12,27.7c5,3.6,10.5,5.2,16.6,4.2c7.4-1.3,12-6.3,14.9-13c4.6-10.9,4.6-22.1,2.7-33.6
			c-1.5-8.8-3.4-17.2-7.3-25.4c5.2-2.3,10.6-3.7,16.2-4.3c0.3,1.1,0.7,2.2,1.2,3.2c4.4,10.9,16.8,15.1,26.9,9.4
			c5.2-2.9,9-7.3,12-12.2c3.1-4.9,5.7-10.1,7.8-15.3c-0.2,7,0.3,13.8,1.9,20.5c1.3,5.3,4.6,9.2,9.5,11.6c3.4,1.5,6.1,0.8,8-2.7
			c0.8-1,1.1-2.3,1.5-3.4c4.8-15.3,9.7-30.5,14.5-45.6c2.1-6.5,4.6-12.6,8.8-17.9c1.1-1.3,2.3-1.7,3.4-1.3c1.3,0.6,1.9,1.9,1.7,3.6
			c-0.2,1.1-0.4,2.3-0.8,3.6c-2.7,12.4-4.2,24.8-3.8,37.6c0.2,7.8,1.1,15.6,3.8,23.1c0.2,0.6,0.4,1.3,0.8,1.5
			c1.5,0.8,2.9,1.5,4.4,2.1c1.9,0.6,4,0,5.2-1.7c1.1-1.5,2.1-3.2,2.7-5c3.4-10.5,6.5-21,9.9-31.3c2.3-7.4,4.8-14.9,7.4-22.1
			c1.3-3.8,3.6-7.3,6.3-10.3c0.8-1,1.7-1.7,3.1-1.1c1.3,0.6,1.7,1.7,1.7,3.2c0,0.2,0,0.4,0,0.6c-0.4,1.9-0.8,4-1.1,6.1
			c-1.9,9.4-4,18.5-5.3,27.9c-1.9,13-1,25.8,2.5,38.4c2.1,7.1,6.1,13,12.2,17.2c0.6,0.4,1.1,0.6,1.5,0.6c2.3-0.4,4.2-1.5,4.8-4
			c0.8-2.9,1.3-5.7,1.9-8.6c0-0.8,0.2-1.7,0-2.5c-1.5-5-2.5-10.3-2.5-15.6c0-5,0.4-10.1,0.8-15.3c0.8-8.8,1.5-17.4,3.4-25.8
			c1.5-6.7,2.3-13.4,1.1-20C788,852.9,782.7,847.2,770.8,848.3z M397.4,835.8c-0.2-8.8,0-17.7,1-26.7c1-7.8,2.1-15.6,5.7-22.7
			c1-1.7,2.1-3.2,3.1-4.8c0.8-1,1.5-1,2.1,0c1.1,1.5,2.5,3.2,3.1,5.2c1.7,5.3,1.7,10.9,1,16.4c-1.7,15.5-7.3,29.6-13.7,43.5
			c-0.4,0.8-0.8,1.5-1.1,2.3c0,0,0,0-0.4,0.2C397.7,844.6,397.6,840.2,397.4,835.8z M478.7,856.6c0,2.9-0.4,5.5-0.8,8.6
			c-2.7-1.1-4.4-2.9-5.7-4.8c-3.1-4.6-3.8-9.9-3.6-15.3c0.2-3.1,1-6.1,1.5-9c0.2-0.6,0.4-1.1,0.6-1.7c0.8-1.3,1.1-3.1,2.9-3.1
			c1.7,0.2,2.5,1.7,2.9,3.2c0.8,3.6,1.5,7.3,1.9,10.9C478.7,849.2,478.9,853,478.7,856.6z M575.8,848.2c0.2-1,0.6-1.9,0.8-2.9
			c0.2-0.4,0.6-1,0.8-1c0.4,0.2,0.8,0.4,1,0.6c0.4,1.1,1,2.3,1.1,3.4c0,4.2-0.2,8.4-0.4,12.6c0,0-0.2,0.2-0.2,0.4
			C575.4,857.6,574.8,853,575.8,848.2z M578.8,892.5C578.8,892.5,578.8,892.5,578.8,892.5C578.9,892.5,578.9,892.5,578.8,892.5
			C578.9,892.5,578.8,892.5,578.8,892.5z M601.6,968.9c-1,4.4-5.2,7.1-9.2,6.5c-2.9-0.6-4.8-2.5-6.1-5c-1.9-3.4-2.5-7.1-2.1-10.9
			c0.6-10.3,4.6-19.5,11.3-27.3c0-0.2,0.2-0.2,0.4-0.4c1,3.1,1.9,5.9,2.9,9c1.9,6.5,3.4,13,3.6,19.7
			C602.5,963.3,602.3,966.2,601.6,968.9z"/>
		<path class="st0" d="M924.6,901.2c-1.3-2.3-2.5-4.6-3.6-6.9c-7.1-13-15.3-25-24.6-36.5c-0.6-0.6-1-1.3-1-2.1
			c0.4-4,1.1-7.8,1.3-11.8c0.4-4.2,0.4-8.6-1.1-12.8c-2.1-5.5-7.6-7.1-12.2-3.6c-2.7,1.9-4.2,4.4-5,7.4c-1.7,5.5-1.3,11.1-0.2,16.6
			c1.5,7.3,4.2,14.1,7.4,20.8c0.4,0.4,0.6,1.1,0.4,1.7c-0.8,3.8-1.5,7.6-2.5,11.3c-0.6,2.7-1.3,5.2-1.9,7.8c0.1,0,0.2,0.1,0.3,0.1
			c0,0.1-0.1,0.2-0.1,0.3c-2.7,7.8-5.3,15.8-8.2,23.7c-1,2.3-2.7,4.4-4.2,6.3c-1.3,1.5-3.1,1.1-3.8-0.6c-0.6-1.7-1.3-3.4-1.3-5.3
			c-0.4-5.2-0.6-10.1-0.4-15.3c0.6-11.1,1.3-21.9,1.9-33c0.2-3.2,0.6-6.3,0.6-9.5c0.2-5-2.7-8.4-7.4-9.7c-1-0.2-2.1-0.2-3.2-0.4
			c-2.1-0.4-3.4,0.6-4.4,2.1c-0.4,0.8-0.8,1.5-1.1,2.3c-1,2.5-1.9,5.2-2.7,7.6c-1.7-1.7-3.2-4-5.3-5.7c-5.3-4.4-11.8-4.6-18.1-3.8
			c-8.4,1-14.7,5.5-19.3,12.4c-7.3,10.7-10.1,22.5-9.2,35.3c0.8,13.4,10.5,25,23.5,27.9c9.5,2.1,13,0,17-7.3c2.3-4,3.8-8.4,5.5-12.8
			c1.1-3.4,2.1-7.1,3.1-10.9c0.2,1,0.2,1.5,0.4,2.1c1.1,5,2.1,9.9,3.4,14.7c2.5,7.6,7.6,12.6,15.5,14.5c4.6,1.1,8.2,0,11.3-3.4
			c3.2-3.6,5.7-8,7.3-12.8c2.3-6.3,4-13,5.7-19.5c1-3.1,1.7-6.4,2.5-9.9c4.8,9.8,9.7,19.7,14.3,29.5c0.2,0.2,0,1-0.2,1.3
			c-1.9,2.5-3.8,5-5.5,7.4c-5.3,8-9.9,16.4-10.9,26.1c-1.3,11.5,2.7,21,12,27.7c5,3.6,10.5,5.2,16.6,4.2c7.4-1.3,12-6.3,14.9-13
			c4.6-10.9,4.6-22.1,2.7-33.6c-1.5-8.8-3.4-17.2-7.3-25.4c9-4,18.3-5.2,28.2-4.6c0.2-1.7,0.2-3.4,0.4-5.2
			C945.1,895.5,934.8,897.2,924.6,901.2z M843.2,869.1c-2.5,13.4-5.3,26.7-10.7,39.3c-1.7,4-3.8,7.8-7.1,11.1
			c-1.9,1.9-2.3,1.9-3.8-0.4c-2.3-3.6-3.4-7.4-4.2-11.6c-0.6-3.2-1-6.7-1.3-10.1c0.4-12.4,4.4-23.3,12-33c2.1-2.5,4.6-4.4,7.8-4.8
			c2.3-0.4,4.2,0.4,5.3,2.3C842.8,864,843.5,866.5,843.2,869.1z M887.1,837.1c0.2-1,0.6-1.9,0.8-2.9c0.2-0.4,0.6-1,0.8-1
			c0.4,0.2,0.8,0.4,1,0.6c0.4,1.1,1,2.3,1.1,3.4c0,4.2-0.2,8.4-0.4,12.6c0,0-0.2,0.2-0.2,0.4C886.7,846.4,886.1,841.8,887.1,837.1z
			 M912.8,957.7c-1,4.4-5.2,7.1-9.2,6.5c-2.9-0.6-4.8-2.5-6.1-5c-1.9-3.4-2.5-7.1-2.1-10.9c0.6-10.3,4.6-19.5,11.3-27.3
			c0-0.2,0.2-0.2,0.4-0.4c1,3.1,1.9,5.9,2.9,9c1.9,6.5,3.4,13,3.6,19.7C913.8,952.1,913.6,955,912.8,957.7z"/>
	</g>
</g>
</svg>
