<?xml version="1.0" encoding="utf-8"?>
<!-- Generator: Adobe Illustrator 23.0.3, SVG Export Plug-In . SVG Version: 6.00 Build 0)  -->
<svg version="1.1" id="Layer_1" xmlns="http://www.w3.org/2000/svg" xmlns:xlink="http://www.w3.org/1999/xlink" x="0px" y="0px"
	 viewBox="0 0 1133.9 1133.9" style="enable-background:new 0 0 1133.9 1133.9;" xml:space="preserve">
<style type="text/css">
	.st0{fill:#1E2121;}
	.st1{fill:#A81F26;}
	.st2{fill:#F2F1F2;}
	.st3{fill:#DD353A;}
	.st4{fill:#CFCFCE;}
	.st5{fill:#1D2121;}
	.st6{fill:none;}
	.st7{fill:#AA1F23;}
	.st8{fill:#FDFEFE;}
	.st9{fill:#EE742C;}
	.st10{fill:#BA5234;}
	.st11{fill:#ED1C24;}
	.st12{fill:#C42C3A;}
	.st13{fill:#058743;}
	.st14{fill:#0F4D70;}
	.st15{fill-rule:evenodd;clip-rule:evenodd;fill:#C42C3A;}
	.st16{fill-rule:evenodd;clip-rule:evenodd;fill:#1E2121;}
	.st17{fill:#E8E8E8;}
	.st18{fill:#186634;}
	.st19{fill:#BF2730;}
	.st20{fill:#B47A48;}
	.st21{fill:#3E1E14;}
	.st22{fill:#DBAD5D;}
	.st23{fill:#B84947;}
	.st24{fill:#C3976E;}
	.st25{fill:#9D2023;}
	.st26{fill:#3C2517;}
	.st27{fill:#4A3A31;}
	.st28{fill:#EDAD4F;}
	.st29{fill:#F8C018;}
</style>
<g>
	<g>
		<path class="st1" d="M236.4,514.9c-0.1,6.8-0.2,13.2-0.3,19c-0.1,1.9-0.1,3.8-0.2,5.5c-0.1,2.3-0.2,4.4-0.3,6.4
			c-0.1,2.3,0.2,4.5,0.9,6.5c0.5,1.5,1.2,2.9,2,4.2c0.4-0.4,0.7-0.8,1.1-1.2c2-2.3,3.7-4.7,5.1-7.2c1.6-2.8,2.7-5.7,3.5-8.6
			c0.6-2.3,0.9-4.6,0.9-6.9C249.2,521.4,243,515.7,236.4,514.9z"/>
		<path class="st1" d="M301.2,501.3c0-1,0-2-0.1-3.1c0-0.8,0-1.6-0.1-2.4c0-0.5,0-1.1,0-1.6c-0.1-2.9-0.1-5.9-0.2-9
			c0-0.2,0-0.3,0-0.5c0-0.4,0-0.8,0-1.2c0-0.6,0-1.1,0-1.7c0-0.9-0.1-1.9-0.1-2.8c-0.1-3.1-0.2-6.3-0.3-9.5c0-1.8-0.1-3.6-0.2-5.5v0
			c-0.2-5.5-0.3-11.1-0.5-16.8c0-0.7,0-1.3-0.1-2c0-0.6,0-1.2-0.1-1.8l-0.1-3.8c0-0.6,0-1.3-0.1-1.9c0-0.7,0-1.4-0.1-2.1
			c0-0.6,0-1.1-0.1-1.7c0-0.6-0.1-1.3-0.1-1.9c0-0.3,0-0.6,0-0.9c0-1-0.1-2-0.1-3c0-0.2,0-0.4,0-0.6c0-1-0.1-1.9-0.1-2.9
			c0-0.7-0.1-1.5-0.1-2.2c-0.1-1.4-0.1-2.8-0.2-4.2c-0.1-1.7-0.1-3.5-0.2-5.2c-0.1-1.2-0.1-2.4-0.2-3.6c0-0.7-0.1-1.3-0.1-2
			c0-0.7-0.1-1.4-0.1-2.1c-0.1-1.1-0.1-2.1-0.1-3.2c-0.1-2.1-0.2-4.2-0.3-6.3c-0.1-1-0.1-2-0.2-3v-0.1c-0.1-1.6-0.2-3.1-0.2-4.7
			c0-0.5-0.1-1-0.1-1.5c-0.2-4.3-0.5-8.6-0.7-12.7c0,0,0,0,0-0.1c-0.1-1.1-0.1-2.1-0.2-3.2c0-0.1,0-0.2,0-0.3
			c-0.4-5.8-0.8-11.3-1.2-16.3c0-0.5-0.1-0.9-0.1-1.4c-0.2-1.9-0.3-3.8-0.5-5.6c0-0.3-0.1-0.6-0.1-1c-0.1-0.6-0.1-1.1-0.2-1.7
			c0-0.2-0.1-0.5-0.1-0.7c-0.2-1.9-0.4-3.6-0.6-5.3c0-0.1,0-0.2,0-0.3c0-0.3-0.1-0.6-0.1-0.8c-0.1-0.4-0.1-0.7-0.1-1.1
			c-0.2-1.3-0.4-2.6-0.6-3.8c0-0.3-0.1-0.6-0.1-0.8c0-0.1,0-0.2,0-0.2c-0.1-0.5-0.2-0.9-0.2-1.3c-0.1-0.8-0.3-1.5-0.4-2.1
			c-0.1-0.2-0.1-0.4-0.1-0.6c-0.2-1-0.5-1.9-0.7-2.7c0-0.1-0.1-0.2-0.1-0.4c-0.1-0.3-0.2-0.5-0.3-0.8c-0.1-0.2-0.2-0.5-0.3-0.7
			c-0.1-0.2-0.2-0.5-0.3-0.7c-0.1-0.2-0.2-0.5-0.3-0.7c-1.2-2.5-2.8-4.7-4.7-6.6c-0.2-0.2-0.3-0.3-0.5-0.5c-0.2-0.2-0.3-0.3-0.5-0.5
			c0,0,0,0,0,0c-0.3-0.3-0.6-0.6-1-0.9c0,0,0,0,0,0c-0.4-0.3-0.7-0.6-1.1-0.9c0,0-0.1-0.1-0.1-0.1c-0.4-0.3-0.8-0.6-1.2-0.9
			c-0.4-0.3-0.7-0.5-1.1-0.8c-0.2-0.1-0.3-0.2-0.5-0.3c-0.1-0.1-0.1-0.1-0.2-0.1c-0.3-0.2-0.5-0.3-0.8-0.5c-0.1-0.1-0.2-0.1-0.3-0.2
			c-0.4-0.2-0.9-0.5-1.3-0.7c-0.4-0.2-0.9-0.5-1.3-0.7c-0.1,0-0.1-0.1-0.1-0.1c-0.5-0.2-1-0.5-1.5-0.7c-0.4-0.2-0.7-0.3-1.1-0.5
			c-0.1,0-0.1,0-0.2-0.1c-0.4-0.2-0.8-0.3-1.3-0.5c0,0,0,0,0,0c-0.4-0.2-0.8-0.3-1.2-0.4c-0.9-0.3-1.8-0.6-2.8-0.9
			c-0.3-0.1-0.6-0.2-0.9-0.2c-0.1,0-0.2-0.1-0.3-0.1c-0.2-0.1-0.4-0.1-0.6-0.1c-0.3-0.1-0.6-0.1-0.9-0.2c-0.3-0.1-0.5-0.1-0.8-0.2
			c-0.6-0.1-1.3-0.3-1.9-0.4c-0.4-0.1-0.8-0.1-1.2-0.2c-0.8-0.1-1.6-0.2-2.3-0.3c-0.7-0.1-1.4-0.1-2.1-0.2c-0.3,0-0.7-0.1-1.1-0.1
			c-0.3,0-0.5,0-0.8,0c-0.3,0-0.6,0-0.9,0c-6.4-0.2-12.7,0.8-18.1,2.8c-1.1,0.4-2.2,0.9-3.3,1.4c-1.1,0.5-2.1,1.1-3,1.7
			c-1.3,0.8-2.4,1.8-3.4,2.8c-2.3,2.3-4,5-4.8,8.1c-0.3,1.2-0.8,2.8-1.3,4.5c-0.2,0.6-0.4,1.2-0.6,1.8c0,0.1,0,0.1-0.1,0.1
			c-0.3,1-0.7,2.1-1.1,3.2c-0.4,1.2-0.9,2.4-1.3,3.7c-0.1,0.2-0.1,0.3-0.2,0.5c-0.3,0.9-0.6,1.7-1,2.6c0,0.1,0,0.1-0.1,0.1
			c-0.2,0.5-0.4,0.9-0.5,1.4c-0.4,1.1-0.9,2.3-1.3,3.5c-0.1,0.3-0.2,0.6-0.3,0.9c-0.3,0.7-0.6,1.4-0.8,2.1l0,0
			c-0.3,0.8-0.6,1.5-0.9,2.3c0,0,0,0,0,0c-0.2,0.6-0.5,1.2-0.7,1.8c-0.6,1.5-1.2,3.1-1.9,4.7c-0.5,1.3-1.1,2.6-1.6,4
			c-0.2,0.6-0.5,1.2-0.7,1.8c-1.1,2.7-2.2,5.4-3.4,8.1c-0.2,0.5-0.5,1.1-0.7,1.6c-0.7,1.6-1.4,3.2-2,4.8c-0.4,1-0.8,1.9-1.2,2.9
			c-0.4,0.9-0.8,1.9-1.2,2.8c-0.4,0.9-0.8,1.9-1.2,2.8c-0.4,0.9-0.8,1.8-1.2,2.7c-0.3,0.8-0.7,1.6-1,2.4h-0.7l0.5,0.5
			c-0.2,0.5-0.4,1-0.6,1.5c-1.1,2.4-2.1,4.7-3.1,6.9c-0.2,0.4-0.4,0.8-0.5,1.2c-0.2,0.4-0.3,0.8-0.5,1.2c-0.1,0.3-0.3,0.6-0.4,0.9
			c-0.2,0.5-0.4,0.9-0.6,1.3c-0.2,0.4-0.3,0.7-0.5,1c-0.5,1-0.9,2-1.3,2.9c-0.7,1.4-1.3,2.7-1.8,3.7c-0.1,0.2-0.2,0.4-0.3,0.6
			c-0.1,0.2-0.2,0.5-0.4,0.7c-0.4,0.7-0.7,1.4-1,1.8c-0.1,0.1-0.2,0.3-0.2,0.4c-0.1,0.2-0.3,0.4-0.4,0.5c0,0.1-0.1,0.1-0.1,0.1
			c-0.2-0.2-0.3-0.5-0.5-0.9c-0.2-0.3-0.4-0.6-0.6-1c-0.2-0.4-0.5-0.9-0.8-1.4c-0.2-0.4-0.5-0.8-0.7-1.3c-1.6-2.9-3.6-6.7-5.9-11.1
			c-0.2-0.4-0.5-0.9-0.7-1.3c-1.8-3.4-3.7-7.2-5.8-11.2c-0.4-0.7-0.8-1.5-1.2-2.3c-0.4-0.8-0.8-1.6-1.2-2.4
			c-0.4-0.8-0.9-1.7-1.3-2.5c-0.6-1.1-1.1-2.2-1.7-3.4c-0.8-1.6-1.7-3.3-2.5-4.9c-0.5-1-1-2-1.5-3c-0.7-1.3-1.4-2.7-2.1-4
			c-2.6-5-5.1-9.9-7.6-14.7c-0.2-0.3-0.3-0.6-0.5-1c-0.3-0.6-0.7-1.3-1-1.9c-0.3-0.6-0.6-1.2-1-1.9c-0.5-0.9-1-1.8-1.4-2.7
			c-0.2-0.3-0.3-0.6-0.5-0.9c-0.1-0.3-0.3-0.5-0.4-0.8c-0.3-0.6-0.6-1.2-1-1.8c0-0.1-0.1-0.1-0.1-0.2c-0.3-0.5-0.5-1-0.8-1.5
			c-0.9-1.7-1.8-3.3-2.6-4.9c-0.2-0.3-0.3-0.6-0.5-0.9c-2.1-4-4-7.4-5.6-10c-0.2-0.4-0.4-0.7-0.6-1.1c-0.3-0.4-0.5-0.8-0.7-1.2
			c-0.1-0.2-0.3-0.5-0.4-0.7c-0.1-0.1-0.2-0.3-0.3-0.4c-0.1-0.1-0.2-0.3-0.2-0.4c-0.1-0.2-0.2-0.4-0.4-0.6c-0.1-0.2-0.2-0.4-0.4-0.6
			c0,0,0,0,0-0.1c-0.1-0.2-0.3-0.4-0.4-0.6c-0.1-0.2-0.3-0.4-0.5-0.6c-0.5-0.6-1-1.1-1.5-1.6c-0.2-0.2-0.4-0.4-0.6-0.5
			c-0.7-0.7-1.5-1.3-2.3-1.9c-0.2-0.1-0.4-0.3-0.6-0.4c-0.2-0.1-0.4-0.3-0.7-0.4c-0.2-0.1-0.4-0.3-0.7-0.4c-1.1-0.7-2.3-1.2-3.6-1.8
			c-1.5-0.6-3.1-1.1-4.8-1.5c-1.7-0.4-3.4-0.7-5.1-1c-3.9-0.5-8-0.5-12,0c-0.9,0.1-1.7,0.2-2.6,0.4c-0.9,0.2-1.7,0.3-2.5,0.5
			c0,0-0.1,0-0.1,0c-1.6,0.4-3.2,0.9-4.8,1.4c-0.3,0.1-0.6,0.2-1,0.4c-0.1,0-0.1,0-0.1,0.1c-1.8,0.7-3.6,1.6-5.2,2.6
			c-0.3,0.2-0.6,0.4-1,0.6c-0.3,0.2-0.5,0.3-0.8,0.5c-0.1,0-0.1,0.1-0.1,0.1c-0.3,0.2-0.7,0.5-1,0.7c-0.3,0.2-0.5,0.4-0.8,0.6
			c-0.6,0.5-1.1,1-1.6,1.5c-0.3,0.3-0.5,0.5-0.8,0.8c-0.2,0.3-0.5,0.5-0.7,0.8c-0.5,0.5-0.9,1.1-1.3,1.7c-0.2,0.3-0.4,0.6-0.6,0.9
			c-0.4,0.6-0.8,1.2-1.1,1.9c0,0,0,0.1-0.1,0.1c-0.1,0.3-0.3,0.5-0.4,0.8c0,0.1,0,0.1-0.1,0.2c-0.6,1.4-1.1,2.9-1.5,4.4
			c-0.1,0.3-0.1,0.5-0.2,0.8c-0.1,0.3-0.1,0.5-0.1,0.8c-0.1,0.5-0.2,1.1-0.2,1.6c-0.1,1.3-0.3,2.6-0.4,3.9c-0.1,1.3-0.2,2.6-0.4,4
			c-0.1,1.1-0.2,2.3-0.3,3.4c-0.1,1.1-0.2,2.3-0.3,3.4c-0.5,6.9-1,14.1-1.4,21.4c-0.1,1.2-0.1,2.4-0.2,3.7
			c-0.3,4.9-0.5,9.9-0.7,14.9c-0.1,1.3-0.1,2.5-0.1,3.8c-0.1,2.5-0.2,5-0.3,7.5c0,1.1-0.1,2.2-0.1,3.3c0,1.4-0.1,2.7-0.1,4.1
			c0,1.5-0.1,3.1-0.1,4.6l-0.6-0.6V416l0.3,0.3c-0.1,3.2-0.1,6.4-0.1,9.5c0,0.9,0,1.8,0,2.6c0,1.2,0,2.5,0,3.7c0,1.3,0,2.7,0,4
			c0,5.3-0.1,10.5-0.1,15.7v1.9c0,2.5,0,5.1,0,7.6c0,1.2,0,2.3,0,3.5c0,1.2,0,2.3,0,3.5c0,1.6,0,3.1,0,4.7c0,0.3,0,0.6,0,1
			c0,2.1,0,4.2,0.1,6.3c0,2.1,0.1,4.3,0.1,6.3c0,1.3,0,2.5,0.1,3.8c0,0.2,0,0.4,0,0.6c0,0.5,0,0.9,0,1.4c0,1.2,0,2.3,0.1,3.5
			c0,1.6,0.1,3.2,0.1,4.7c0,1,0,2,0.1,3c0,0.3,0,0.6,0,0.9c0,0.6,0,1.3,0,1.9c0,0.2,0,0.3,0,0.5c0,0.5,0,1.1,0,1.6
			c0,0.2,0,0.4,0,0.6c0,0.6,0,1.1,0,1.7c0,0.8,0,1.5,0.1,2.3c0,1,0.1,2,0.1,3c0,0.5,0,0.9,0.1,1.4c0,0.1,0,0.2,0,0.3
			c0,1,0.1,1.9,0.1,2.8c0,0.2,0,0.4,0,0.5c0,0.5,0,1.1,0.1,1.6c0.1,2.1,0.1,4.2,0.2,6.1c0,0.3,0,0.7,0,1c0,1,0.1,1.9,0.1,2.8
			c0,0.6,0.1,1.2,0.1,1.8c0,0.8,0.1,1.5,0.1,2.2c0,0.4,0,0.7,0.1,1c0.1,1.9,0.2,3.6,0.3,5.1c0,0.7,0.1,1.3,0.1,1.9
			c0.1,2.3,0.3,4.2,0.4,5.4c1.7,17.4,23.8,22.5,37.5,13.9h0c-1.6-1.9-3.1-3.8-4.5-5.8c-0.9-1.3-1.8-2.7-2.6-4
			c-1.3-2-2.4-4.1-3.4-6.2c-0.3-0.6-0.6-1.2-0.8-1.8c0,0,0,0,0,0c-0.3-0.6-0.5-1.1-0.8-1.7c0,0,0-0.1,0-0.1
			c-0.2-0.6-0.5-1.1-0.7-1.7c-0.2-0.5-0.4-1.1-0.6-1.6c-0.1-0.2-0.2-0.4-0.2-0.7c-0.2-0.5-0.4-1-0.5-1.5c-0.2-0.6-0.4-1.1-0.5-1.7
			c-0.2-0.5-0.3-1-0.4-1.6c-0.1-0.3-0.1-0.5-0.2-0.8c-0.1-0.5-0.3-1-0.4-1.6c-0.1-0.5-0.2-1.1-0.4-1.6c-0.2-1.1-0.4-2.2-0.6-3.3
			c-0.1-0.8-0.2-1.6-0.3-2.4c-0.2-1.3-0.3-2.7-0.4-4c-0.1-1.7-0.1-3.5-0.1-5.2c0-1.2,0.1-2.3,0.2-3.5c0.1-1.8,0.3-3.6,0.6-5.4
			c0.2-1.4,0.4-2.7,0.7-4.1c0.1-0.5,0.2-0.9,0.3-1.4c0.1-0.4,0.2-0.8,0.3-1.2c0.1-0.3,0.1-0.6,0.2-0.9c0.1-0.2,0.1-0.5,0.2-0.7
			c0.1-0.3,0.1-0.5,0.2-0.8c0-0.2,0.1-0.3,0.1-0.5c0.1-0.4,0.2-0.8,0.3-1.1c0.2-0.7,0.4-1.3,0.6-2c0.1-0.4,0.3-0.8,0.4-1.2
			c0.1-0.4,0.3-0.8,0.4-1.2c0.2-0.5,0.3-0.9,0.5-1.3c0.5-1.3,1-2.7,1.6-4c0.2-0.6,0.5-1.2,0.8-1.8c0.5-1.2,1.1-2.2,1.8-3.2
			c0.5-0.7,1-1.4,1.5-2c4-4.8,9.2-6.7,13.4-6.7c0.2,0,0.5,0,0.7,0c0.2,0,0.5,0,0.7,0.1c0.3,0,0.6,0.1,0.9,0.1c0.1,0,0.3,0,0.4,0.1
			c0.3,0.1,0.7,0.1,1,0.2c0.2,0,0.3,0.1,0.5,0.1c0.2,0,0.3,0.1,0.5,0.1v0c0-2.3,0-4.7-0.1-7.1V467c0-2.3-0.1-4.7-0.1-7.1
			c0-1.2-0.1-2.5-0.1-3.7c0-0.5,0-1,0-1.5c0-0.7,0-1.5-0.1-2.3c0-0.3,0-0.6,0-0.9c-0.1-3.1-0.1-6.3-0.2-9.5
			c-0.1-2.2-0.1-4.4-0.2-6.6c0-0.7,0-1.5-0.1-2.2c0-1.3-0.1-2.6-0.1-3.9c0-1.3-0.1-2.6-0.1-3.9c-0.1-2.6-0.2-5.3-0.3-7.9
			c-0.1-1.3-0.1-2.6-0.2-3.9c1.2,2.4,2.4,5,3.7,7.6c0.4,0.9,0.9,1.8,1.3,2.7c0,0,0,0.1,0,0.1c0.4,0.9,0.8,1.7,1.3,2.6
			c1.7,3.6,3.5,7.4,5.3,11.1c0.4,0.9,0.9,1.9,1.3,2.8c0.3,0.7,0.7,1.4,1,2.1l0,0c0.3,0.7,0.7,1.4,1,2.1c0.9,1.9,1.7,3.7,2.6,5.5
			c0.2,0.5,0.5,1,0.7,1.6c0.2,0.4,0.4,0.8,0.5,1.2c1.7,3.6,3.3,7.1,4.9,10.3c0,0,0,0,0,0c0.4,0.9,0.8,1.8,1.3,2.7
			c0.3,0.7,0.6,1.4,1,2c0.5,1.1,1.1,2.2,1.6,3.3c0.2,0.5,0.5,1,0.7,1.5c1.1,2.2,2,4.3,2.9,6c0.1,0.3,0.3,0.5,0.4,0.8
			c0.1,0.3,0.2,0.5,0.4,0.8c0.2,0.5,0.5,1,0.7,1.4c0.1,0.2,0.2,0.5,0.3,0.7c0.3,0.6,0.6,1.1,0.8,1.6c0,0,0,0.1,0,0.1
			c0.1,0.3,0.3,0.5,0.4,0.7c0.2,0.3,0.3,0.6,0.5,0.8c0.5,1.1,1,2.1,1.6,3.1c0.6,1,1.2,1.9,1.9,2.8c0.2,0.3,0.5,0.6,0.7,0.9
			c0.3,0.3,0.5,0.6,0.8,0.9c0.2,0.2,0.5,0.5,0.7,0.7c0.2,0.2,0.4,0.4,0.6,0.6c0.2,0.2,0.4,0.3,0.5,0.5c0.7,0.7,1.5,1.3,2.4,1.9
			c0.2,0.2,0.4,0.3,0.7,0.5c0.1,0.1,0.1,0.1,0.2,0.2c0.2,0.1,0.4,0.3,0.6,0.4c0.4,0.3,0.9,0.6,1.4,0.8c0.3,0.2,0.5,0.3,0.8,0.4
			c0.3,0.2,0.6,0.3,0.9,0.5c0.2,0.1,0.5,0.2,0.7,0.3c0.2,0.1,0.4,0.2,0.6,0.3c0.3,0.1,0.5,0.2,0.8,0.3c0.3,0.2,0.7,0.3,1.1,0.4
			c0.3,0.1,0.7,0.3,1.1,0.4c0.3,0.1,0.7,0.2,1,0.3c0,0,0,0,0.1,0c0.4,0.1,0.7,0.2,1.1,0.3c0.4,0.1,0.7,0.2,1.1,0.3
			c0.3,0.1,0.6,0.1,0.9,0.2c0.1,0,0.3,0.1,0.4,0.1c1.8,0.4,3.7,0.6,5.5,0.6c0.6,0,1.3,0,1.9,0c0.1,0,0.1,0,0.2,0c0.3,0,0.5,0,0.8,0
			c0.9,0,1.7-0.1,2.6-0.2c0.3,0,0.6-0.1,0.9-0.1c0.3,0,0.6-0.1,0.9-0.1c0.3,0,0.5-0.1,0.8-0.1c0,0,0.1,0,0.1,0
			c0.3-0.1,0.5-0.1,0.8-0.2c0.7-0.2,1.4-0.3,2.1-0.6c0.1,0,0.1,0,0.2-0.1c0.2-0.1,0.4-0.1,0.6-0.2c0.5-0.2,0.9-0.3,1.4-0.5
			c0.3-0.1,0.6-0.2,0.8-0.3c0.3-0.1,0.5-0.2,0.8-0.3c0.4-0.2,0.8-0.5,1.1-0.7c1.2-0.7,2.3-1.3,3.5-1.9c0,0,0,0,0.1,0
			c0.1,0,0.2-0.1,0.3-0.1c0.4-0.2,0.7-0.5,1.1-0.8s0.7-0.5,1.1-0.8c0.3-0.3,0.6-0.5,1-0.8c0.4-0.3,0.8-0.7,1.2-1.1
			c0.3-0.3,0.6-0.6,0.9-0.9c0.3-0.3,0.7-0.7,1-1c0.3-0.3,0.6-0.7,0.9-1c0.6-0.7,1.2-1.5,1.8-2.3c0,0,0,0,0,0
			c0.3-0.4,0.6-0.8,0.8-1.2c0.3-0.4,0.5-0.9,0.8-1.3c0.3-0.4,0.5-0.9,0.8-1.4c0.7-1.4,1.4-2.8,2.1-4.4c0.2-0.5,0.4-1,0.6-1.6
			c0-0.1,0.1-0.3,0.1-0.4c0-0.1,0.1-0.3,0.1-0.4c0.1-0.3,0.2-0.6,0.3-1c0.1-0.3,0.2-0.7,0.3-1c0.1-0.2,0.1-0.4,0.2-0.6
			c0.1-0.2,0.1-0.4,0.2-0.6c0.2-0.4,0.3-0.9,0.5-1.3c0.6-1.6,1.4-3.5,2.2-5.6c0.1-0.3,0.2-0.6,0.4-0.9c0.1-0.4,0.3-0.7,0.4-1.1
			c0.2-0.5,0.4-1,0.6-1.6c0.7-1.8,1.6-3.8,2.4-5.9c0.6-1.5,1.2-3,1.9-4.6c0.3-0.7,0.6-1.5,0.9-2.3c0.3-0.6,0.5-1.3,0.8-1.9
			c0.2-0.5,0.4-1.1,0.6-1.7c0.9-2.3,1.9-4.7,2.8-7.3c0.4-1,0.8-2.1,1.2-3.2c0.2-0.5,0.3-0.9,0.5-1.4c0.3-0.8,0.6-1.6,0.9-2.5
			l0.3-0.8c0.2-0.5,0.4-1,0.5-1.5c1.4-3.7,2.8-7.6,4.2-11.6c0.2-0.5,0.4-1.1,0.6-1.6c1.1-3.2,2.2-6.5,3.3-9.9c0,0,0,0.2,0,0.5
			c0,0.2,0,0.4,0,0.6c0,0.2,0,0.5,0,0.8c0,0.3,0,0.7,0,1c0,0.2,0,0.4,0,0.6c0,0.4,0,0.9,0,1.3v0c0,0.7,0,1.5,0,2.4
			c0,1.2,0.1,2.5,0.1,3.9c0,0.7,0,1.4,0,2.1c0,2.3,0.1,4.8,0.1,7.5c0,0.9,0,1.8,0,2.7v0c0,0.9,0,1.9,0,2.9c0,0.6,0,1.2,0,1.8
			c0,0.7,0,1.3,0,2c0,0.2,0,0.3,0,0.5c0,0.5,0,1,0,1.5c0,2.2,0.1,4.5,0.1,6.9c0,0.3,0,0.5,0,0.8c0,1.6,0,3.2,0.1,4.8
			c0,0.4,0,0.8,0,1.2c0,3.5,0.1,7.1,0.1,10.8v0.5c0,2.9,0,5.8,0.1,8.8c0,1.2,0,2.4,0,3.6c0,2,0,4,0,6c0,0.6,0,1.2,0,1.7
			c0,1.9,0,3.8,0,5.7v0c0.6,0.1,1.3,0.3,1.9,0.4c1.9,0.4,3.6,0.9,5.3,1.5c3.9,1.4,7.4,3.2,10.5,5.3c0.4,0.3,0.9,0.6,1.3,0.9
			c1.7,1.3,3.2,2.6,4.6,4.1c5.4,5.7,8.8,12.8,10.2,20.2c0.1,0.3,0.1,0.7,0.2,1c0.2,1,0.3,2.1,0.4,3.1c0,0.3,0.1,0.7,0.1,1
			c0,0.7,0.1,1.4,0.1,2.1c0,0.7,0,1.4,0,2.1v0.2c0,0.4,0,0.8,0,1.2c0,0.4,0,0.7-0.1,1.1c0,0.6-0.1,1.2-0.2,1.7c0,0.3-0.1,0.6-0.1,1
			c0,0.3-0.1,0.7-0.1,1c-0.2,1.3-0.5,2.6-0.8,3.9c-0.2,0.6-0.3,1.3-0.5,1.9c-0.1,0.4-0.2,0.8-0.3,1.2c-0.2,0.6-0.4,1.2-0.6,1.8
			c-0.2,0.6-0.5,1.3-0.7,1.9c-0.1,0.3-0.2,0.6-0.4,1c-0.1,0.3-0.3,0.6-0.4,0.9c-0.1,0.3-0.3,0.6-0.4,0.9c-0.1,0.3-0.3,0.6-0.4,0.9
			c-0.1,0.3-0.3,0.6-0.5,0.9c-0.2,0.3-0.3,0.6-0.5,0.9c-0.3,0.6-0.6,1.2-1,1.8c0,0,0,0.1-0.1,0.1c-0.3,0.5-0.6,1-0.9,1.5
			c-0.9,1.6-2,3.1-3.1,4.6c-0.5,0.6-1,1.3-1.5,1.9c-0.5,0.6-1,1.3-1.6,1.9c0.9,0.2,1.8,0.4,2.7,0.6c0.1,0,0.2,0,0.3,0.1
			c0.3,0.1,0.7,0.1,1,0.2c0,0,0.1,0,0.1,0c0.4,0.1,0.8,0.1,1.3,0.2c0.1,0,0.2,0,0.2,0c5.4,0.6,10.9,0.4,16.1-0.9v0
			c1.1-4.8,2.3-9.5,3.6-13.9c0.1-0.4,0.3-0.9,0.4-1.3c0-0.1,0-0.1,0.1-0.2c0.4-1.2,0.7-2.3,1.1-3.5c0.2-0.6,0.4-1.2,0.6-1.8
			c0.2-0.6,0.4-1.2,0.6-1.7c0.2-0.5,0.4-1.1,0.6-1.6c0-0.1,0.1-0.2,0.1-0.3c0.2-0.5,0.4-1,0.6-1.5c0.3-0.8,0.6-1.6,1-2.4
			c0.2-0.5,0.4-1,0.6-1.5c0.3-0.7,0.6-1.3,0.9-2c0.3-0.6,0.6-1.2,0.8-1.8c0.3-0.7,0.7-1.4,1-2c0.4-0.8,0.8-1.5,1.2-2.2
			c0.2-0.3,0.3-0.5,0.5-0.8c0.2-0.3,0.4-0.7,0.6-1c0.4-0.6,0.8-1.3,1.2-1.9c0.4-0.6,0.8-1.2,1.2-1.8c0.2-0.3,0.5-0.7,0.7-1
			c0.2-0.3,0.4-0.6,0.6-0.8c0.7-1,1.5-1.9,2.2-2.8c0.6-0.8,1.3-1.5,2-2.2c0.1-0.1,0.2-0.2,0.3-0.3c0,0,0.1-0.1,0.1-0.1
			c0,0,0.1-0.1,0.1-0.1c-0.1-3.5-0.1-7.4-0.2-11.5C301.3,504.8,301.3,503.1,301.2,501.3z"/>
		<path class="st1" d="M460.7,306c-4.6-1.5-32.5-4.7-58.7-5.5c-4.2-0.1-8.3-0.2-12.3-0.2c-4.2,0-8.3,0.1-12.1,0.3
			c-4.2,0.2-8.1,0.5-11.4,1c-1.4,0.2-2.7,0.5-3.9,0.7c-13.1,1.6-24.6,9.4-27.8,34c0,0.2,0,0.5-0.1,0.8c-0.1,1.1-0.3,3-0.6,5.5
			c-0.3,2.9-0.8,6.6-1.3,11.1c-0.4,3.4-0.8,7.1-1.2,11.3c-0.4,3.5-0.7,7.3-1.1,11.3c-0.3,3.2-0.6,6.6-0.8,10.1
			c-1.4,17.9-2.6,38.9-2.6,60c0,4.2,0,8.3,0.1,12.5c0.1,4.3,0.2,8.6,0.4,12.8c0.2,4.3,0.5,8.6,0.8,12.9c0.6,7.9,1.5,15.5,2.7,22.8
			c5.6,1.4,9.8,4.8,12.4,9.8c2.6,5.3,3.4,12.5,2.3,21.6c-0.4,3-0.9,6.2-1.7,9.7c0.4,0.7,0.8,1.3,1.3,2c2.7,4.2,5.9,7.7,9.5,10.2
			c0.7,0.5,1.4,1,2.1,1.4c12.4,7.4,32.1,6.8,50.9,3.1c0.3-0.1,0.7-0.1,1-0.2c3.3-0.7,6.6-1.4,9.8-2.3c3.3-0.9,6.5-1.8,9.6-2.8
			c3.3-1,6.4-2.1,9.2-3.2c3.2-1.2,6.2-2.4,8.8-3.6c3.1-1.4,5.7-2.7,7.7-3.9c0.1-0.1,0.2-0.1,0.3-0.2c1-0.7,2-1.4,2.8-2.2
			c4.1-3.6,6.5-8.1,7.4-12.9c0.9-4.1,0.6-8.4-0.5-12.3c-1.3-4.5-3.7-8.6-6.9-11.3c-4.6-4-10.9-5.3-17.8-1.7
			c-5.3,1.6-13.1,6.1-21.3,9.8c-2.4,1.2-10.3,5.3-14.9,3.7c-1.3-0.5-2.4-1.4-3.1-3.1c-0.2-0.5-0.4-1.2-0.4-1.9
			c-0.4-3-0.5-7.2-0.6-11.5c-0.1-4.4,0-8.8-0.2-12.2c0-0.4,0-0.9-0.1-1.3c0.9,0,4.4-0.8,9.1-2.1l0.1,0.1v-0.1
			c5.7-1.5,13.2-3.5,20.5-5.5c2.9-0.8,5.8-1.5,8.6-2.2c2.7-0.7,5.3-1.3,7.6-1.8c0.7-0.3,1.4-0.6,2.1-0.9c2.8-1.4,4.9-3.5,6.3-6.1
			c1.7-2.9,2.5-6.3,2.6-9.7c0.3-10.8-6.6-22.3-18.4-21.3c-0.8,0.1-1.6,0.2-2.6,0.3c-2.9,0.4-6.7,1-10.7,1.6
			c-3.5,0.6-7.1,1.2-10.6,1.8c-1.8,0.3-3.6,0.6-5.3,0.9c-4.8,0.8-8.8,1.4-10.8,1.5c-0.1-2.4,0-7.1,0.2-13.3c0-1.5,0.1-3.2,0.1-4.9
			c0.1-3.7,0.3-7.7,0.5-11.9c0.2-3.8,0.4-7.7,0.5-11.8c0.2-3.8,0.4-7.6,0.6-11.4c0.2-3,0.3-6.1,0.5-9.1c1.1-17.6,2.4-34.4,3.7-43.5
			c3.1-0.1,9.5-0.2,16.7-0.3c3.9,0,8.2-0.1,12.3-0.1c4.3,0,8.4,0,12,0c5,0,9,0,11,0c0.5,0,0.9,0,1.3,0h0c4.4-0.3,7.9-2.3,10.4-5.3
			c1.5-1.8,2.6-3.9,3.4-6.2c1.2-3.4,1.6-7.2,1.2-10.8C470.6,313.1,467.1,307,460.7,306z"/>
		<path class="st1" d="M680.1,391.1c0-0.6-0.1-1.1-0.1-1.7c0-0.6-0.1-1.1-0.1-1.7c-0.1-0.6-0.1-1.1-0.2-1.7
			c-0.1-1.1-0.3-2.2-0.4-3.3c-0.2-1.6-0.5-3.2-0.8-4.7c-0.1-0.5-0.2-1-0.3-1.5c-0.2-1-0.4-2-0.6-2.9c0-0.1,0-0.1,0-0.2
			c-0.1-0.5-0.2-0.9-0.3-1.4c0,0,0-0.1,0-0.1c-0.2-1-0.5-1.9-0.8-2.8c-0.1-0.5-0.3-0.9-0.4-1.4c-0.3-1-0.6-1.9-0.9-2.9
			c-0.1-0.3-0.2-0.6-0.3-1c-0.1-0.3-0.2-0.5-0.3-0.8c-0.1-0.3-0.2-0.6-0.3-0.9c-0.2-0.6-0.4-1.2-0.7-1.7c-0.2-0.6-0.5-1.1-0.7-1.7
			c-0.3-0.7-0.6-1.4-1-2.1c-0.3-0.6-0.5-1.1-0.8-1.6c-0.3-0.6-0.6-1.2-0.9-1.8c-0.2-0.4-0.4-0.8-0.7-1.2c-0.2-0.4-0.4-0.7-0.6-1.1
			c0-0.1-0.1-0.1-0.1-0.1c-0.2-0.4-0.4-0.7-0.6-1.1c-0.3-0.5-0.6-1.1-1-1.6c-0.3-0.4-0.5-0.8-0.8-1.2c-0.4-0.6-0.7-1.1-1.1-1.6
			c-0.2-0.3-0.4-0.5-0.6-0.8c-0.2-0.3-0.5-0.7-0.7-1c-0.3-0.5-0.7-0.9-1.1-1.4c-0.3-0.4-0.6-0.8-1-1.2l-0.6-0.8
			c-0.3-0.3-0.6-0.7-0.9-1c-0.4-0.5-0.8-0.9-1.2-1.4c0,0,0,0,0,0c-0.4-0.5-0.8-0.9-1.3-1.3c-0.5-0.5-0.9-1-1.4-1.4
			c-0.9-0.8-1.7-1.7-2.6-2.5c-0.4-0.4-0.8-0.8-1.3-1.1c-0.4-0.4-0.9-0.7-1.3-1.1c-0.4-0.3-0.8-0.6-1.1-0.9c-0.5-0.4-1-0.8-1.5-1.2
			c-0.8-0.7-1.7-1.3-2.6-1.9c-0.1,0-0.1-0.1-0.2-0.1c-0.5-0.3-0.9-0.6-1.4-1c-0.5-0.3-0.9-0.6-1.4-0.9c-1.4-0.9-2.9-1.8-4.4-2.7
			c-0.5-0.3-1-0.6-1.5-0.8c-1-0.6-2-1.1-3-1.6c-1-0.5-2.1-1-3.1-1.5c-0.5-0.2-1-0.5-1.6-0.7c-1.1-0.5-2.1-0.9-3.2-1.4
			c-1.6-0.7-3.2-1.3-4.9-1.9c-0.5-0.2-1.1-0.4-1.6-0.6c-1.1-0.4-2.2-0.8-3.3-1.1c-0.6-0.2-1.1-0.4-1.7-0.5c-1.1-0.3-2.2-0.7-3.4-1
			c-0.6-0.2-1.1-0.3-1.7-0.5c-1.7-0.5-3.4-0.9-5.1-1.3c-0.1,0-0.1,0-0.2-0.1c-0.9-0.2-1.8-0.4-2.7-0.6c-1-0.2-1.9-0.4-2.9-0.6
			c-1-0.2-2-0.4-2.9-0.6c-0.9-0.2-1.8-0.3-2.7-0.5c-0.1,0-0.2,0-0.3,0c-0.1,0-0.1,0-0.1,0c-4.7-0.8-9.4-1.4-14.1-1.9
			c-4.5-0.5-9-0.8-13.4-1c-23.3-1-45,1.1-59,3.4c-3.8,0.6-7,1.2-9.6,1.7c-3.3,0.7-5.4,1.3-6.3,1.6c-0.2,0.1-0.4,0.2-0.6,0.4
			c-0.3,0.2-0.6,0.4-0.9,0.7c-0.3,0.3-0.6,0.6-0.9,0.9c-1.8,2-3.2,4.9-4.1,8.3c-1,3.4-1.4,7.2-1.4,11c0,2.3,0.3,4.6,0.8,6.8
			c0.1,0.5,0.3,1.1,0.4,1.6c0.2,0.5,0.3,1,0.5,1.5c0.1,0.2,0.2,0.5,0.3,0.7c0.1,0.2,0.2,0.5,0.3,0.7c0.1,0.2,0.2,0.4,0.3,0.7
			c0.1,0.3,0.3,0.5,0.4,0.8c0.1,0.1,0.2,0.3,0.2,0.4c0.2,0.3,0.3,0.5,0.5,0.7c0.1,0.2,0.2,0.3,0.3,0.5c0.1,0.1,0.2,0.3,0.3,0.4
			c0.1,0.1,0.2,0.2,0.3,0.3c0.1,0.1,0.2,0.2,0.3,0.4c0.1,0.1,0.3,0.3,0.4,0.4c0,0,0,0,0.1,0c0.2,0.1,0.3,0.3,0.5,0.4
			c0.2,0.1,0.3,0.3,0.5,0.4c0,0,0,0,0,0c0.2,0.1,0.3,0.2,0.5,0.3c0.4,0.2,0.8,0.4,1.2,0.6c0.6,0.2,1.2,0.4,1.8,0.5c0,0,0.1,0,0.1,0
			c0.7,0.1,1.5,0.1,2.2,0.1h0v2.9c-0.3,12.2-0.6,23.6-0.7,34.3v0.2c0,0.4,0,0.9,0,1.3c0,1.5,0,3,0,4.5v0c0,4.1-0.1,8.1-0.1,11.9
			c0,1.6,0,3.2,0,4.8v1.5c0,2.1,0,4.1,0,6.1c0,4.3,0,8.5,0.1,12.5c0,2.2,0.1,4.5,0.1,6.6c0.3,19.4,1,35.6,2,49.2
			c0.2,2.9,0.4,5.8,0.7,8.5c0.1,0.6,0.1,1.2,0.2,1.8c0.1,1.2,0.2,2.3,0.3,3.5c0,0.1,0,0.3,0,0.4c0,0.4,0.1,0.9,0.1,1.3
			c0,0.3,0.1,0.6,0.1,0.9c0.1,0.7,0.1,1.4,0.2,2.1c0.1,1.2,0.3,2.3,0.4,3.5c0.2,1.4,0.3,2.8,0.5,4.1c0.5,3.6,0.9,7,1.4,10.2
			c0.3,2.2,0.7,4.4,1,6.4c0.4,2.2,0.8,4.3,1.2,6.3c0.2,1.2,0.5,2.4,0.7,3.5c0,0.1,0,0.1,0,0.2c0.3,1.2,0.5,2.4,0.8,3.5
			c0.1,0.4,0.2,0.9,0.3,1.3c0.3,1.2,0.6,2.5,0.9,3.6c0.2,0.7,0.4,1.4,0.5,2.1c0.2,0.7,0.4,1.4,0.6,2.1c0,0.1,0.1,0.2,0.1,0.3v1.6
			l0.6,0.6l0,0c0.1,0.5,0.3,1,0.4,1.5c0.1,0.2,0.1,0.4,0.2,0.6c0.2,0.5,0.4,1,0.6,1.5c0.1,0.2,0.2,0.4,0.3,0.6
			c0.2,0.3,0.3,0.6,0.5,0.9c0.1,0.2,0.2,0.4,0.4,0.7c0.6,1,1.3,2,2.1,2.9c0.2,0.2,0.4,0.4,0.6,0.6c0.2,0.2,0.4,0.4,0.6,0.6
			c0,0,0.1,0.1,0.1,0.1c0.3,0.3,0.6,0.6,0.9,0.8c0.3,0.2,0.6,0.5,0.9,0.7c0.2,0.1,0.4,0.3,0.5,0.4c0.3,0.2,0.6,0.4,0.9,0.6
			c0.3,0.2,0.7,0.4,1,0.6c0.2,0.1,0.4,0.2,0.5,0.3c0.2,0.1,0.5,0.3,0.8,0.4c0.1,0.1,0.2,0.1,0.4,0.2c0.3,0.2,0.6,0.3,1,0.4
			c0.1,0.1,0.2,0.1,0.3,0.1c0.4,0.2,0.8,0.4,1.3,0.5c0.4,0.1,0.8,0.3,1.1,0.4c0.1,0,0.2,0.1,0.3,0.1c0.3,0.1,0.5,0.2,0.8,0.2
			c0.3,0.1,0.6,0.2,1,0.3c0.2,0.1,0.4,0.1,0.6,0.2c0.5,0.1,1,0.2,1.5,0.3c0.1,0,0.3,0.1,0.4,0.1c0.2,0.1,0.5,0.1,0.7,0.1
			c0.2,0,0.5,0.1,0.7,0.1c0.2,0,0.5,0.1,0.7,0.1c0.4,0.1,0.9,0.1,1.3,0.2c0.5,0.1,0.9,0.1,1.4,0.1c0.3,0,0.7,0,1,0.1
			c1.4,0.1,2.8,0.1,4.2,0c0.2,0,0.5,0,0.7,0c1-0.1,1.9-0.1,2.9-0.3c0.3,0,0.5-0.1,0.8-0.1c0.3-0.1,0.7-0.1,1-0.2c0,0,0,0,0,0
			c1.8-0.3,3.5-0.7,5.2-1.2c0.3-0.1,0.7-0.2,1-0.3c2.2-0.7,4.2-1.6,6-2.7c0.2-0.1,0.3-0.2,0.5-0.3c0.2-0.1,0.4-0.2,0.6-0.4
			c0.3-0.2,0.6-0.4,0.8-0.6c0.1-0.1,0.2-0.2,0.4-0.3c0.2-0.1,0.4-0.3,0.5-0.4c0.2-0.1,0.4-0.3,0.6-0.5c0.1-0.1,0.2-0.2,0.3-0.2
			c0.1-0.1,0.3-0.2,0.4-0.4c0.1-0.1,0.3-0.2,0.4-0.4c0.5-0.5,1-1,1.4-1.5c0.3-0.4,0.6-0.8,0.9-1.2c0.1-0.1,0.2-0.3,0.3-0.4
			c0.3-0.6,0.7-1.2,0.9-1.8c0.2-0.5,0.4-0.9,0.5-1.4c0-0.2,0.1-0.3,0.1-0.5c0.1-0.3,0.1-0.7,0.2-1c0.1-0.7,0.2-1.3,0.2-2
			c0.2-1.8,0.3-3.8,0.4-5.7c0.1-1,0.1-2,0.2-3c0-0.5,0.1-1,0.1-1.5c0.2-2.6,0.3-5.3,0.4-7.9c0.1-2.1,0.2-4.3,0.3-6.3
			c0-0.2,0-0.4,0-0.6c0-1,0.1-2,0.1-3c0.1-1.7,0.1-3.3,0.2-4.8c0-1.4,0.1-2.7,0.1-3.9c0-1,0.1-2,0.1-2.9c0-1.1,0.1-2,0.1-2.9
			c0,0,0,0,0,0c0.5,0.9,1.8,2.8,3.9,5.3c0.2,0.2,0.3,0.4,0.5,0.6c0.3,0.4,0.7,0.8,1,1.2c0.2,0.2,0.4,0.4,0.6,0.7
			c0.2,0.2,0.4,0.4,0.6,0.7c0.6,0.7,1.2,1.4,1.9,2.1c0,0,0,0,0,0c0.4,0.5,0.9,1,1.4,1.5c1.8,1.9,3.8,3.9,6,6.1
			c0.4,0.3,0.7,0.7,1.1,1c1.8,1.7,3.8,3.5,5.8,5.2c3,2.6,6.3,5.2,9.9,7.8c2.1,1.6,4.3,3.1,6.6,4.6c1.3,0.8,2.6,1.7,3.9,2.5
			c0.1,0.1,0.2,0.1,0.3,0.2c0.6,0.3,1.1,0.7,1.7,1.1c0.6,0.4,1.2,0.7,1.8,1.1c0.2,0.2,0.5,0.3,0.8,0.4c0.5,0.3,1,0.6,1.5,0.9
			c0.7,0.4,1.4,0.8,2.1,1.1c0.7,0.4,1.4,0.8,2.1,1.1c0.6,0.3,1.2,0.6,1.8,0.9c0.1,0.1,0.2,0.1,0.4,0.2c0,0,0,0,0,0
			c0.9,0.5,1.8,0.9,2.7,1.3c0.2-1.3,0.4-2.5,0.6-3.7c0.1-0.8,0.2-1.5,0.3-2.2c0-0.1,0-0.1,0-0.1c0.2-1.2,0.3-2.3,0.5-3.4
			c0-0.1,0-0.1,0-0.1c0.1-0.4,0.1-0.8,0.2-1.2c0.1-0.4,0.1-0.9,0.2-1.3c0.1-0.9,0.3-1.7,0.4-2.5c0.1-0.8,0.2-1.5,0.3-2.2
			c0-0.2,0.1-0.4,0.1-0.7c0.1-0.5,0.1-0.9,0.2-1.4c0.1-0.4,0.1-0.9,0.2-1.3c0-0.2,0.1-0.3,0.1-0.5c0.1-0.4,0.1-0.9,0.2-1.3
			c0.1-0.4,0.1-0.8,0.2-1.2c0,0,0-0.1,0-0.1c0.1-0.5,0.1-1,0.2-1.4c0-0.2,0-0.4,0.1-0.5l0-0.1c0.2-1.1,0.7-2.6,2-3.9
			c2.2-2.2,6.6-4.2,15.4-4.2c0.6,0,1.4,0,2.2,0.1c0.5,0,1.1,0.1,1.7,0.1c-2.4-1.4-5.1-3-7.8-4.7c-1-0.7-2-1.3-3-2.1
			c-0.7-0.5-1.3-1-2-1.5c-2-1.5-4-3.2-5.9-5.1c-0.6-0.6-1.2-1.3-1.8-1.9c-0.6-0.7-1.2-1.3-1.8-2.1c-0.6-0.7-1.1-1.4-1.7-2.2
			c-1.9-2.6-3.5-5.6-4.8-8.9c1.4-0.9,2.8-1.8,4.2-2.8c0.7-0.5,1.4-0.9,2-1.4c2-1.4,4-2.8,5.8-4.2c1.1-0.8,2.1-1.6,3.1-2.4h0.3
			l-0.1-0.1c2.4-1.9,4.6-3.7,6.7-5.6c0.1-0.1,0.3-0.2,0.4-0.4c0.5-0.5,1.1-1,1.6-1.4c1.5-1.4,3-2.8,4.4-4.2c1-1,2.1-2.1,3-3.1
			c0.4-0.5,0.9-0.9,1.3-1.4c0.3-0.3,0.6-0.6,0.8-0.9v0c1.1-1.2,2.1-2.4,3.1-3.6c0.7-0.9,1.4-1.7,2.1-2.6c0.1-0.2,0.2-0.3,0.4-0.5
			c0.4-0.5,0.7-0.9,1.1-1.4c0.4-0.5,0.7-1,1.1-1.5c0.3-0.4,0.6-0.9,1-1.3c0.8-1.1,1.5-2.2,2.3-3.3c0.9-1.4,1.8-2.9,2.7-4.3
			c0.1-0.1,0.1-0.2,0.1-0.2c0.5-0.9,1.1-1.9,1.6-2.8c1.1-2,2.1-4.1,3-6.1c0.2-0.5,0.5-1,0.7-1.5c0.2-0.5,0.4-1,0.6-1.5
			c0.4-1,0.8-2,1.2-3.1c0.2-0.5,0.4-1,0.6-1.5c0,0,0-0.1,0-0.1c0.6-1.7,1.1-3.5,1.6-5.2c0.2-0.8,0.4-1.6,0.6-2.4c0,0,0-0.1,0-0.1
			c0.1-0.5,0.2-1,0.3-1.5c0.4-1.7,0.7-3.4,1.1-5.1c0.1-0.3,0.1-0.7,0.2-1c0.1-0.4,0.1-0.8,0.2-1.1c0-0.2,0.1-0.5,0.1-0.7
			c0.1-0.5,0.1-0.9,0.2-1.4c0.1-1,0.3-2.1,0.4-3.1c0.1-1,0.2-2.1,0.3-3.2c0-0.1,0-0.2,0-0.2c0-0.5,0.1-0.9,0.1-1.4
			c0.2-4.1,0.2-8.2,0-12.3C680.2,392.6,680.1,391.9,680.1,391.1z M623.3,407.5c0,0.2-0.1,0.4-0.1,0.6c-0.1,0.3-0.1,0.6-0.2,1
			c0,0.1,0,0.1,0,0.2c-0.1,0.4-0.2,0.9-0.3,1.3c-0.1,0.4-0.2,0.9-0.3,1.3c0,0.1,0,0.1,0,0.2c-0.1,0.4-0.2,0.8-0.3,1.2
			c0,0.1,0,0.1,0,0.1c-0.1,0.4-0.2,0.9-0.4,1.3c-0.1,0.4-0.3,0.8-0.4,1.2c0,0,0,0.1,0,0.1c-0.1,0.4-0.3,0.8-0.5,1.2
			c-0.2,0.4-0.3,0.8-0.5,1.3c-0.2,0.4-0.3,0.8-0.5,1.2c-0.2,0.4-0.4,0.8-0.6,1.2c-0.2,0.4-0.4,0.8-0.6,1.2c-0.2,0.4-0.4,0.8-0.6,1.2
			c-1,1.8-2.1,3.5-3.3,5.2c-0.2,0.3-0.5,0.6-0.7,1c-0.2,0.3-0.5,0.6-0.8,0.9c-0.3,0.3-0.5,0.6-0.8,0.9c-0.3,0.3-0.5,0.6-0.8,0.9
			c-1.1,1.2-2.3,2.3-3.5,3.4h0c-0.3,0.3-0.7,0.6-1,0.9c-0.3,0.3-0.7,0.6-1.1,0.9c-0.4,0.3-0.7,0.6-1.1,0.8c0,0,0,0,0,0
			c-0.4,0.3-0.7,0.5-1.1,0.8c-0.4,0.3-0.7,0.5-1.1,0.8c-0.4,0.3-0.8,0.5-1.1,0.8c-0.4,0.3-0.8,0.5-1.2,0.7c-0.4,0.2-0.8,0.5-1.2,0.7
			c-0.3,0.2-0.6,0.3-0.9,0.5c-3,1.7-6.1,3.1-9.4,4.4c-0.5,0.2-0.9,0.3-1.4,0.5c-0.5,0.2-0.9,0.3-1.4,0.5c-0.5,0.2-0.9,0.3-1.4,0.5
			c-0.5,0.2-0.9,0.3-1.4,0.5c-0.5,0.1-1,0.3-1.4,0.4c-0.5,0.1-1,0.3-1.4,0.4c-0.5,0.1-0.9,0.3-1.4,0.4c-0.5,0.1-1.1,0.3-1.7,0.4
			c-0.9,0.2-1.9,0.4-2.8,0.6c-0.4,0.1-0.9,0.2-1.3,0.3c-1.1,0.2-2.2,0.4-3.2,0.6c-0.5,0.1-1,0.2-1.5,0.2c-0.1,0-0.1,0-0.1,0
			c-1,0.2-2,0.3-2.9,0.4c0,0,0-2.4,0-6.5c0-2.1,0-4.5,0.1-7.3c0-1,0-2.1,0-3.2c0-0.9,0-1.9,0-2.9c0-0.8,0-1.5,0-2.3
			c0-1.1,0-2.2,0-3.3v0c0-3.8,0.1-7.8,0.1-11.9c0-3,0.1-6,0.1-9.1v0c0-0.7,0-1.4,0-2.1c0-0.3,0-0.6,0-1c0-0.4,0-0.8,0-1.2
			c0.1-3.7,0.1-7.4,0.2-11c0-0.7,0-1.4,0-2.1c0-0.7,0-1.4,0-2.1c0-1,0-2,0.1-3c0-0.4,0-0.8,0-1.2c0-1.3,0-2.7,0.1-4
			c0-2.1,0.1-4.1,0.1-6c0-0.5,0-0.9,0-1.3c0-1.1,0.1-2.1,0.1-3.1c0-0.4,0-0.7,0-1.1c0-0.5,0-1,0-1.5c0-0.6,0-1.1,0-1.7
			c0-0.6,0-1.1,0.1-1.6c0-0.5,0-1,0-1.5c0.1-1.8,0.1-3.4,0.2-4.9c0-0.6,0.1-1.1,0.1-1.6c0-0.3,0-0.5,0-0.8c0-0.5,0.1-0.9,0.1-1.4
			c0-0.1,0-0.1,0-0.2c0-0.2,0-0.3,0-0.5h0.1c0.7,0,1.4,0,2.1,0.1c0.9,0,1.8,0.1,2.7,0.1c0.3,0,0.5,0,0.8,0.1
			c0.7,0.1,1.5,0.1,2.2,0.2c0.6,0.1,1.3,0.1,1.9,0.2c0.3,0,0.7,0.1,1,0.1c0,0,0,0,0,0c0.6,0.1,1.3,0.2,1.9,0.3
			c0.9,0.1,1.7,0.3,2.5,0.4c0.8,0.1,1.6,0.3,2.3,0.5h0c0.6,0.1,1.1,0.3,1.7,0.4c0,0,0.1,0,0.1,0c0.3,0.1,0.6,0.1,0.9,0.2
			c0.6,0.1,1.1,0.3,1.7,0.4c0,0,0.1,0,0.1,0c0.7,0.2,1.5,0.4,2.2,0.6c0.7,0.2,1.4,0.5,2.1,0.7c0.7,0.2,1.4,0.5,2.1,0.8
			c0.7,0.3,1.3,0.5,2,0.8c0,0,0,0,0,0c0.6,0.3,1.3,0.6,1.9,0.9c0,0,0,0,0.1,0c0.6,0.3,1.2,0.6,1.8,0.9c0.6,0.3,1.2,0.7,1.8,1
			c0.2,0.1,0.4,0.3,0.6,0.4c0.2,0.1,0.4,0.2,0.6,0.4c0.3,0.2,0.6,0.4,0.9,0.6c0.1,0,0.1,0.1,0.2,0.1c0.3,0.2,0.6,0.4,0.9,0.6
			c0.2,0.1,0.3,0.2,0.5,0.3c0.4,0.3,0.9,0.6,1.3,1c0.3,0.2,0.6,0.4,0.8,0.7c0.2,0.2,0.5,0.4,0.7,0.6c0.1,0,0.1,0.1,0.1,0.1
			c0.2,0.2,0.5,0.4,0.7,0.6c0.3,0.3,0.6,0.5,0.9,0.8c0.2,0.2,0.4,0.4,0.6,0.6c0.6,0.6,1.1,1.1,1.6,1.7c0.2,0.2,0.4,0.4,0.6,0.7
			c0.2,0.2,0.3,0.4,0.5,0.6c0.2,0.2,0.4,0.5,0.6,0.7c0.6,0.8,1.2,1.6,1.8,2.4c0.1,0.2,0.3,0.4,0.4,0.6c0.5,0.9,1.1,1.7,1.5,2.6
			c0.2,0.3,0.3,0.6,0.5,1c0,0.1,0.1,0.1,0.1,0.2c0.2,0.3,0.3,0.7,0.5,1c0.2,0.4,0.3,0.7,0.5,1.1c0.1,0.3,0.3,0.7,0.4,1
			c0.2,0.4,0.3,0.8,0.5,1.2c0.1,0.4,0.3,0.7,0.4,1.1c0,0,0,0,0,0.1c0.1,0.4,0.3,0.8,0.4,1.2c0.1,0.2,0.2,0.5,0.2,0.8
			c0,0.1,0.1,0.3,0.1,0.4c0,0.1,0.1,0.2,0.1,0.3c0.2,0.7,0.4,1.5,0.5,2.3c0.7,3.4,1.1,7,1.1,10.9C624,401.6,623.8,404.6,623.3,407.5
			z"/>
		<path class="st1" d="M885.5,390.4c0-0.1,0-0.2,0-0.4c0-0.5-0.1-0.9-0.1-1.4c0-0.3,0-0.6-0.1-0.9c0,0,0,0,0,0
			c0-0.5-0.1-0.9-0.1-1.4c-0.1-0.6-0.1-1.3-0.2-1.9c0-0.1,0-0.2,0-0.3c-0.1-0.6-0.2-1.2-0.2-1.8c-0.1-0.6-0.2-1.2-0.3-1.8
			c0,0,0-0.1,0-0.1c-0.1-0.6-0.2-1.2-0.3-1.8c-0.1-0.6-0.2-1.2-0.3-1.8c-0.1-0.6-0.2-1.2-0.4-1.8c-0.3-1.3-0.6-2.6-0.9-3.9
			c-0.1-0.5-0.3-1-0.4-1.4c-0.2-0.6-0.3-1.1-0.5-1.7c-0.2-0.6-0.3-1.1-0.5-1.7c-0.2-0.6-0.4-1.1-0.6-1.7c-0.2-0.5-0.4-1.1-0.6-1.6
			c-0.2-0.5-0.4-1.1-0.6-1.6c-0.2-0.5-0.4-1-0.6-1.5c-0.2-0.5-0.5-1.1-0.7-1.6c-0.5-1-0.9-2-1.4-3c-0.2-0.5-0.5-1-0.7-1.5
			c-0.3-0.5-0.5-1-0.8-1.4c-0.3-0.5-0.5-0.9-0.8-1.4c-0.2-0.4-0.5-0.8-0.7-1.2c-0.1-0.1-0.2-0.3-0.3-0.4c-0.2-0.4-0.5-0.7-0.7-1.1
			c-0.3-0.5-0.6-0.9-0.9-1.3c-0.3-0.4-0.5-0.8-0.8-1.1c-0.3-0.5-0.7-1-1-1.5c-0.6-0.9-1.3-1.7-1.9-2.5c-0.3-0.4-0.7-0.8-1-1.2
			c-0.3-0.4-0.7-0.8-1-1.2c-0.7-0.8-1.4-1.6-2.1-2.3c-2-2.1-4.1-4.1-6.3-6c-0.6-0.5-1.1-0.9-1.7-1.4c-0.6-0.5-1.1-0.9-1.7-1.4
			c-0.6-0.4-1.1-0.9-1.7-1.3c0,0-0.1-0.1-0.1-0.1c-0.6-0.4-1.1-0.8-1.7-1.2c-1.2-0.8-2.4-1.6-3.6-2.4c-0.6-0.4-1.2-0.8-1.9-1.1
			c-0.6-0.4-1.3-0.7-1.9-1.1c-1.3-0.7-2.6-1.4-3.9-2.1c-0.6-0.3-1.3-0.7-2-1c-2-1-4-1.9-6-2.7c-4.1-1.7-8.3-3.2-12.6-4.6
			c-1.4-0.4-2.9-0.9-4.3-1.3c-0.7-0.2-1.5-0.4-2.2-0.6c-3.7-0.9-7.3-1.8-11.1-2.5c-4.5-0.9-9-1.5-13.6-2.1
			c-4.5-0.5-9.1-0.9-13.5-1.2c-4.3-0.3-8.6-0.4-12.9-0.5c-8.6-0.1-16.8,0.2-24.4,0.7c-14.6,1-26.7,2.9-34.1,4.4
			c-3.7,0.8-6.2,1.4-7.2,1.8c-0.1,0-0.1,0.1-0.2,0.1c-0.1,0.1-0.3,0.2-0.4,0.3c0,0,0,0,0,0c-0.1,0.1-0.2,0.2-0.3,0.2
			c-2,1.5-3.5,4-4.7,7c-1.2,3-1.9,6.6-2.1,10.3c-0.2,3.2-0.1,6.5,0.6,9.5c0.5,2.7,1.4,5.2,2.7,7.2c0.4,0.6,0.8,1.2,1.3,1.7
			c0.1,0.1,0.2,0.2,0.3,0.3c0.1,0.1,0.1,0.1,0.1,0.1c0.1,0.1,0.2,0.2,0.3,0.3c0.2,0.2,0.3,0.3,0.5,0.4c0.1,0.1,0.3,0.2,0.4,0.3
			c0,0,0.1,0,0.1,0.1c0.2,0.1,0.3,0.2,0.5,0.3c0,0,0,0,0.1,0c0.4,0.2,0.8,0.4,1.2,0.6c0.6,0.3,1.3,0.4,2,0.5c0.2,0,0.5,0.1,0.7,0.1
			c0.5,0,1,0,1.6,0v2.9c0,1.4-0.1,2.8-0.1,4.2c0,1-0.1,2-0.1,3c0,0.8,0,1.6-0.1,2.4c0,0.2,0,0.4,0,0.6c0,0.8,0,1.6-0.1,2.3
			c0,1.4-0.1,2.7-0.1,4c0,2.2-0.1,4.3-0.1,6.4c-0.1,3.1-0.1,6.2-0.2,9.2c0,1.2,0,2.4-0.1,3.6c0,0.2,0,0.4,0,0.5c0,1.1,0,2.1,0,3.1
			c0,2.1,0,4.1-0.1,6.1v0.3c0,0.9,0,1.8,0,2.7c0,0.5,0,1.1,0,1.6c0,3.6,0,7,0,10.4c0,1.1,0,2.1,0,3.2c0,1.5,0,3,0,4.5
			c0,0.2,0,0.4,0,0.6c0,1,0,2,0,2.9c0,0.4,0,0.8,0,1.1c0,1,0,1.9,0,2.9c0,1.2,0,2.5,0,3.7c0,1.9,0.1,3.7,0.1,5.5
			c0,1.1,0,2.2,0.1,3.4c0.1,2.7,0.1,5.4,0.2,8c0,0.6,0,1.2,0.1,1.8c0.1,3.4,0.2,6.6,0.3,9.8c0.1,1.5,0.1,3,0.2,4.5
			c0,0.1,0,0.3,0,0.4c0.1,1.8,0.2,3.6,0.3,5.4c0,0.1,0,0.3,0,0.4c0,0.8,0.1,1.6,0.1,2.4c0.1,1.4,0.2,2.7,0.2,4.1
			c0.1,0.8,0.1,1.6,0.1,2.4c0.2,3.5,0.5,6.8,0.7,10c0.2,2.1,0.3,4.1,0.5,6c0,0.4,0.1,0.8,0.1,1.1c0.8,8.6,1.7,16,2.7,22.6
			c0.3,2.3,0.7,4.5,1,6.5c0.2,1,0.4,2.1,0.5,3c0.1,0.5,0.2,1,0.3,1.5c0.2,1.3,0.5,2.5,0.7,3.7c0.2,1.1,0.5,2.2,0.7,3.2
			c0,0.2,0.1,0.4,0.1,0.6c0.2,1.1,0.5,2.2,0.7,3.2c0.2,0.7,0.3,1.4,0.5,2c0.1,0.5,0.2,1,0.4,1.5c0.3,1.1,0.6,2.2,0.9,3.3
			c0,0,0,0,0,0.1c0.1,0.4,0.2,0.7,0.3,1.1c0.3,1.1,0.6,2.1,0.9,3.1c0.3,1.3,0.7,2.6,1.2,3.7c0.8,1.9,1.9,3.7,3.3,5.2
			c1.2-0.1,2.5-0.2,3.7-0.3c1.1-0.1,2.3-0.1,3.4-0.2c1.1-0.1,2.2-0.1,3.3-0.1c1.4,0,2.8-0.1,4.1-0.1c0.8,0,1.7,0,2.5,0
			c0.8,0,1.6,0,2.4,0.1c0.2,0,0.5,0,0.7,0c1,0,2,0.1,3,0.2c1.8,0.1,3.5,0.3,5.2,0.5c1.7,0.2,3.3,0.5,4.9,0.8c0.5,0.1,1,0.2,1.4,0.3
			c1.4,0.3,2.8,0.6,4.1,1c0.4,0.1,0.7,0.2,1.1,0.3c0.3,0.1,0.7,0.2,1,0.3c0.5,0.1,0.9,0.3,1.4,0.5c0.6,0.2,1.1,0.4,1.7,0.6
			c1.5-1,2.9-2,4-3.3c0.7-0.7,1.3-1.5,1.8-2.3c1.4-2.1,2.2-4.6,2.2-7.2c0.1-1.5,0.2-3.1,0.4-4.7c0.1-1.3,0.2-2.6,0.3-4
			c0-0.1,0-0.1,0-0.2c0-0.8,0.1-1.5,0.1-2.3c0.1-2.3,0.2-4.6,0.3-6.9h2l-1.9-1.9c0.2-3.6,0.3-7.1,0.4-10.3c0-0.5,0-0.9,0-1.4
			c0.1-2.3,0.2-4.4,0.2-6.2c0-0.6,0.1-1.3,0.1-1.9c0.1-1.1,0.1-2,0.1-2.9c1,1.8,4.8,6.9,11,13.4c0.3,0.3,0.6,0.6,0.9,0.9
			c2.5,2.5,5.3,5.3,8.5,8.1c0.4,0.3,0.8,0.7,1.2,1.1c0.4,0.4,0.8,0.7,1.2,1.1c0.6,0.5,1.2,1.1,1.9,1.6c0.6,0.5,1.3,1.1,1.9,1.6
			c0.5,0.4,1.1,0.9,1.6,1.3c0.3,0.2,0.5,0.4,0.8,0.6c0.5,0.4,1.1,0.8,1.6,1.2c0.3,0.3,0.7,0.5,1,0.8c0.7,0.5,1.3,1,2,1.5
			c0.3,0.2,0.7,0.5,1,0.7c0.5,0.4,1,0.7,1.6,1.1c1.1,0.7,2.1,1.5,3.2,2.2c0.6,0.4,1.1,0.7,1.7,1.1c1.7,1.1,3.4,2.1,5.1,3.2
			c0.6,0.3,1.1,0.7,1.7,1c0.7,0.4,1.4,0.8,2.1,1.2c1.1,0.6,2.3,1.2,3.4,1.8c1.2,0.6,2.5,1.3,3.8,1.9c1,0.5,2.1,1,3.2,1.5
			c0.9,0.4,1.8,0.8,2.7,1.2l0,0c0.4,0.2,0.7,0.3,1.1,0.4c0.2,0.1,0.4,0.2,0.7,0.3c0.5,0.2,0.9,0.4,1.4,0.5c1.5,0.6,2.9,1.1,4.4,1.6
			c0.5,0.2,1,0.4,1.6,0.5c0.2,0.1,0.5,0.2,0.7,0.2c0.5,0.2,1,0.3,1.4,0.5c0.8,0.3,1.6,0.5,2.3,0.7c1,0.2,2,0.4,3,0.4
			c1.3,0.1,2.6,0,3.8-0.3c1-0.2,1.9-0.4,2.9-0.8c1.3-0.5,2.5-1.1,3.6-1.8s2.2-1.5,3.2-2.4c0,0,0,0,0,0c0.2-0.2,0.5-0.5,0.7-0.7
			c1-1,1.8-2,2.6-3.1c0.6-0.8,1.1-1.7,1.6-2.6c1.9-3.6,2.7-7.6,2.3-11.4c0-0.3-0.1-0.7-0.1-1c0-0.3-0.1-0.5-0.2-0.8
			c-0.1-0.2-0.1-0.4-0.2-0.7c-0.1-0.3-0.2-0.6-0.3-1c-0.1-0.2-0.1-0.3-0.2-0.5c-0.2-0.5-0.4-0.9-0.6-1.4c-0.2-0.5-0.5-0.9-0.8-1.3
			c-0.2-0.3-0.4-0.6-0.6-0.9c0,0-0.1-0.1-0.1-0.1c-0.1-0.1-0.1-0.2-0.2-0.3c-0.3-0.4-0.7-0.8-1.1-1.2c-0.1-0.1-0.3-0.3-0.4-0.4
			c-0.2-0.2-0.5-0.5-0.8-0.7c0,0-0.1-0.1-0.1-0.1c-0.1-0.1-0.3-0.2-0.4-0.3c-0.3-0.2-0.6-0.5-1-0.7c-0.2-0.1-0.3-0.2-0.5-0.3
			c-0.2-0.1-0.3-0.2-0.5-0.3c-1.3-1-2.9-2.1-4.7-3.1c-0.4-0.2-0.7-0.4-1.1-0.7c-0.6-0.3-1.2-0.7-1.8-1c-0.2-0.1-0.4-0.2-0.6-0.4
			c-0.4-0.2-0.8-0.5-1.2-0.7c0,0,0,0,0,0c-0.6-0.4-1.3-0.7-1.9-1.1c0,0,0,0,0,0c-0.4-0.2-0.9-0.5-1.3-0.8c-0.5-0.3-0.9-0.5-1.4-0.8
			c-0.5-0.3-0.9-0.6-1.4-0.8c-2.4-1.5-4.8-3.2-7.2-5.1c-0.4-0.3-0.7-0.6-1.1-0.9c-1-0.8-2-1.7-3-2.6c-0.3-0.3-0.7-0.6-1-1
			c-0.6-0.6-1.3-1.3-1.9-2c-0.4-0.5-0.8-0.9-1.2-1.4c-2.8-3.3-5.2-7.1-7-11.6c3-1.9,5.8-3.9,8.5-5.8c0.5-0.4,1.1-0.8,1.6-1.1
			c0.5-0.3,1-0.7,1.5-1.1c0.5-0.4,1.1-0.8,1.6-1.2c0.9-0.7,1.9-1.4,2.8-2.2c0.6-0.5,1.2-0.9,1.8-1.4c1.1-0.9,2.1-1.8,3.2-2.7
			c0.5-0.4,0.9-0.8,1.3-1.2c0.7-0.6,1.4-1.3,2.2-1.9c0.2-0.2,0.4-0.4,0.6-0.6c0.3-0.3,0.6-0.6,0.9-0.8c0.4-0.4,0.8-0.8,1.2-1.1
			c0.5-0.5,1.1-1.1,1.6-1.6c0.5-0.5,1-1,1.4-1.5c0.1-0.1,0.1-0.1,0.2-0.2c0.9-0.9,1.7-1.7,2.5-2.6c0.1-0.1,0.1-0.1,0.1-0.2
			c0.5-0.5,0.9-1,1.3-1.5c0.4-0.5,0.9-1,1.3-1.5s0.8-1,1.3-1.5c0.8-1,1.6-1.9,2.4-2.9c0.4-0.5,0.8-1,1.2-1.5
			c0.7-0.9,1.4-1.9,2.1-2.9c0,0,0.1-0.1,0.1-0.1c0.7-1,1.4-2,2-3c1-1.5,1.9-3,2.8-4.5c0.6-1,1.2-2,1.7-3c0.5-1,1.1-2,1.6-3
			c0.5-1,1-2,1.4-3.1c0.2-0.5,0.4-1,0.6-1.4c0.5-1.1,0.9-2.1,1.3-3.2c0.2-0.5,0.4-1,0.6-1.5c0,0,0-0.1,0-0.1c0.2-0.5,0.3-1,0.5-1.4
			c0.2-0.5,0.3-1,0.5-1.5c0.2-0.5,0.3-1,0.5-1.5c0.3-1,0.6-2.1,0.9-3.1c0.1-0.3,0.1-0.5,0.2-0.8c0.1-0.4,0.2-0.7,0.3-1.1
			c0.1-0.4,0.2-0.9,0.3-1.3c0.1-0.4,0.2-0.9,0.3-1.3c0.1-0.3,0.1-0.6,0.2-1c0.5-2.3,0.9-4.6,1.2-6.9c0.2-1.1,0.3-2.3,0.4-3.4
			c0.1-0.5,0.1-1,0.1-1.5c0.1-0.6,0.1-1.2,0.1-1.8c0-0.4,0.1-0.9,0.1-1.3c0-0.5,0.1-1.1,0.1-1.6c0-0.3,0-0.6,0-0.8c0-0.3,0-0.6,0-1
			c0-0.5,0-0.9,0-1.4c0-3.3-0.1-6.6-0.3-9.9C885.5,390.9,885.5,390.6,885.5,390.4z M829.4,401.7c0,0.5-0.1,1-0.1,1.5
			c0,0.4-0.1,0.8-0.1,1.1c0,0.2,0,0.5-0.1,0.7c-0.1,0.5-0.1,1-0.2,1.4c-0.1,0.5-0.1,1-0.2,1.5c-0.1,0.5-0.2,0.9-0.2,1.4
			c-0.1,0.6-0.3,1.3-0.4,1.9c-0.1,0.4-0.2,0.8-0.3,1.1c-0.1,0.4-0.2,0.9-0.3,1.3c-0.2,0.5-0.3,1-0.5,1.6c-0.1,0.4-0.3,0.8-0.4,1.2
			c-0.1,0.4-0.3,0.8-0.4,1.2c0,0.1-0.1,0.2-0.1,0.2c-0.2,0.4-0.3,0.8-0.5,1.2c-0.2,0.4-0.3,0.7-0.5,1.1c-0.1,0.1-0.1,0.2-0.2,0.3
			c-0.2,0.4-0.3,0.7-0.5,1.1c-0.4,0.8-0.8,1.6-1.3,2.4c-0.2,0.4-0.5,0.8-0.7,1.2c-0.2,0.3-0.4,0.6-0.6,0.9c-0.3,0.4-0.6,0.9-0.9,1.3
			c-0.3,0.4-0.5,0.7-0.8,1.1c-0.3,0.4-0.5,0.7-0.8,1.1c-0.3,0.3-0.6,0.7-0.8,1c-0.3,0.3-0.6,0.7-0.9,1c0,0,0,0,0,0
			c-1.8,2-3.7,3.8-5.8,5.5c-0.3,0.3-0.7,0.6-1.1,0.8c-1.1,0.9-2.3,1.7-3.5,2.5c-0.6,0.4-1.1,0.7-1.7,1.1c-0.2,0.2-0.5,0.3-0.7,0.4
			c-0.5,0.3-1,0.6-1.5,0.9c-0.4,0.2-0.7,0.4-1.1,0.6c-0.3,0.2-0.6,0.3-0.9,0.5c-1.2,0.6-2.4,1.2-3.6,1.7c-0.4,0.2-0.8,0.3-1.2,0.5
			c-1.3,0.6-2.7,1.1-4,1.5c-0.6,0.2-1.1,0.4-1.7,0.6c0,0-0.1,0-0.1,0c-0.6,0.2-1.2,0.4-1.9,0.6c-0.6,0.2-1.1,0.3-1.7,0.5
			c-0.8,0.2-1.6,0.4-2.4,0.6c-0.6,0.1-1.1,0.3-1.7,0.4c0,0-0.1,0-0.1,0c-0.6,0.2-1.2,0.3-1.9,0.4c0,0,0,0-0.1,0
			c-0.7,0.1-1.3,0.3-2,0.4c-0.7,0.1-1.3,0.3-2,0.4c-1,0.2-2.1,0.4-3.2,0.5c-1,0.2-1.9,0.3-2.9,0.4c0,0,0-4.2,0.1-10.9
			c0-1.9,0-3.9,0-6.2h0.5L771,435c0-3.6,0.1-7.7,0.1-12c0-0.4,0-0.8,0-1.2c0-0.6,0-1.1,0-1.7c0-1,0-2,0-3c0-1.2,0-2.4,0-3.7
			c0-0.9,0-1.7,0-2.6c0-0.9,0-1.8,0-2.7c0-0.7,0-1.4,0-2.1c0-2.5,0.1-5,0.1-7.4c0-1.2,0-2.4,0.1-3.6c0-2.1,0.1-4.3,0.1-6.4
			c0-0.7,0-1.4,0-2.2c0-2.4,0.1-4.7,0.1-7c0-0.8,0-1.5,0-2.3c0-1.9,0.1-3.8,0.1-5.6c0-0.4,0-0.7,0-1.1c0-0.7,0-1.3,0.1-2
			c0-0.5,0-1.1,0-1.6c0-0.7,0-1.5,0.1-2.2c0-0.4,0-0.8,0-1.2c0-0.7,0-1.4,0.1-2.1c0.1-2.7,0.2-5.2,0.3-7.2c0-0.3,0-0.7,0.1-1
			c0-0.3,0-0.5,0-0.8c0-0.2,0-0.5,0-0.7c0-0.2,0-0.4,0-0.6c0.5,0,1.1,0,1.6,0.1c0.5,0,0.9,0,1.4,0.1c1.4,0.1,2.7,0.2,4,0.3
			c0.4,0,0.9,0.1,1.3,0.1c0.9,0.1,1.8,0.2,2.7,0.3c0.5,0.1,0.9,0.1,1.4,0.2c1.4,0.2,2.8,0.4,4.1,0.7c0.6,0.1,1.1,0.2,1.7,0.4
			c1.5,0.3,3,0.7,4.4,1.1c0.3,0.1,0.7,0.2,1,0.3c0.7,0.2,1.4,0.4,2.1,0.7c0.4,0.1,0.8,0.3,1.2,0.4c0,0,0.1,0,0.1,0
			c0.3,0.1,0.6,0.2,0.9,0.3c1,0.4,2,0.8,2.9,1.2c1,0.5,2,0.9,3,1.4c0.3,0.2,0.6,0.3,0.9,0.5c0.3,0.2,0.6,0.3,0.9,0.5
			c0.3,0.2,0.6,0.3,0.8,0.5c0.3,0.2,0.7,0.4,1,0.6c0.3,0.2,0.6,0.4,0.9,0.6c0.6,0.4,1.1,0.8,1.7,1.2c0.3,0.2,0.5,0.4,0.8,0.6
			c0.3,0.2,0.5,0.4,0.8,0.6c0.5,0.4,1.1,0.9,1.6,1.3c0.5,0.4,1,0.9,1.4,1.4c0.2,0.2,0.4,0.4,0.5,0.5c0.1,0.1,0.3,0.3,0.4,0.4
			c0.2,0.3,0.5,0.5,0.7,0.8c0.3,0.3,0.6,0.6,0.9,1c0.2,0.2,0.3,0.4,0.5,0.6c1.1,1.3,2.1,2.8,3,4.2c0.2,0.3,0.3,0.5,0.5,0.8
			c0.4,0.7,0.8,1.4,1.2,2.2c0.2,0.3,0.3,0.7,0.5,1.1c0.3,0.6,0.6,1.3,0.8,1.9c0,0,0,0.1,0,0.1c0.1,0.3,0.3,0.7,0.4,1
			c0.2,0.6,0.4,1.2,0.6,1.8c0.1,0.2,0.1,0.5,0.2,0.7c0.1,0.4,0.3,0.9,0.4,1.3c0.1,0.5,0.3,1,0.4,1.5c0.2,0.9,0.4,1.9,0.6,2.9
			c0.1,0.5,0.2,0.9,0.2,1.4c0.1,0.3,0.1,0.7,0.1,1.1c0,0.3,0.1,0.6,0.1,0.9c0,0.2,0,0.4,0.1,0.6c0,0.3,0.1,0.7,0.1,1c0,0,0,0,0,0.1
			c0,0.4,0.1,0.8,0.1,1.3c0,0.1,0,0.2,0,0.4c0,0.4,0,0.8,0,1.1c0,0.5,0,1,0,1.4C829.5,399.6,829.4,400.6,829.4,401.7z"/>
		<path class="st1" d="M1096.1,391.6c-0.9-16.8-2.8-34.9-5.9-54.5h1l-1.1-1.1c-0.5-3-1-6-1.5-9.1c-0.5-2.5-1.2-4.8-2.1-6.9
			c-3-7-8.3-11.8-14.6-14.6c-4.7-2.1-10-3-15.2-2.8c-15,0.5-30.1,10.2-32.4,28c-0.2,2.2-0.5,4.4-0.8,6.5c-0.2,2-0.5,3.9-0.8,5.7
			c-0.6,3.6-1.2,7.1-1.9,10.5c-0.7,3.5-1.5,6.8-2.4,10c-0.9,3.3-1.8,6.5-2.8,9.5c-1,3.1-2.1,6-3.2,8.8c-4.3,10.5-9.2,19-14.3,25.3
			c-1.5,1.8-2.9,3.5-4.4,4.9c-2.3,2.3-4.6,4.1-6.9,5.5c-3.2,2-6.3,3-9.2,3.2c-0.7,0.1-1.3,0.1-1.9,0c-3.7-0.1-6-3.6-7.3-9.2
			c-0.9-3.8-1.2-8.5-1.3-13.7c0-3.6,0.1-7.4,0.3-11.4c1.3-22.8,6.2-49.1,6.2-52.1c0.1-1.1,0.2-2.2,0.3-3.2c1.2-35.8-57.4-38-67-6.2
			c-0.5,1-2,5.5-3.7,12.3c-0.6,2.2-1.1,4.7-1.7,7.4c-0.6,2.8-1.2,5.9-1.8,9.2c-1.8,10.3-3.2,22.4-3.2,34.9c0,4.3,0.2,8.6,0.5,12.9
			c0.4,4.8,1.1,9.5,2.1,14.1c1.4,6.9,3.6,13.6,6.6,19.9c6.1,12.7,15.9,23.5,30.9,30c3.8,1.6,7.9,3,12.3,4.1
			c6.5,1.6,13.8,2.5,21.9,2.6c14.4-1.6,25.3-6.2,33.8-12.2c2.5-1.8,4.7-3.6,6.8-5.6c2.2-2,4.2-4.2,6.1-6.3c2-2.3,3.8-4.6,5.4-7
			c1.3-1.9,2.6-3.7,3.8-5.5c2.9-4.4,5.3-8.6,7.6-12v3.7c-0.4,4.1-0.9,8-1.4,11.8c-0.5,3.6-1.1,7-1.7,10.4c-0.7,3.5-1.4,6.9-2.2,10.2
			c-0.8,3.4-1.7,6.7-2.7,9.8c-1,3.3-2.1,6.3-3.2,9.2c-0.8,2.2-1.7,4.3-2.6,6.2c-6.5,14.3-14.3,23.6-22.4,28.9
			c-0.2,0.1-0.4,0.3-0.7,0.4c-2.8,1.8-5.7,3-8.6,3.8c-4,1.2-8,1.3-11.7,0.7c-8.5-1.5-15.6-7.3-19.5-16c-1.7-3.8-3.8-7-6-9.5
			c-0.8-0.9-1.6-1.7-2.4-2.4c-0.1-0.1-0.1-0.1-0.2-0.2c-5.6-4.9-12.2-6.7-18.4-6c-0.9,0.1-1.7,0.2-2.6,0.4
			c-11.3,2.6-20.2,13.8-17,29.6c6.5,26.2,20.3,40.6,36.9,48.3c12.6,5.8,26.8,7.8,40.8,8.2c3.1,0.1,6.3,0,9.3-0.2
			c2.1-0.1,4.2-0.3,6.2-0.6c3.5-0.4,6.9-1,10.2-1.8c3.2-0.8,6.4-1.7,9.5-2.8c3-1,5.9-2.3,8.8-3.7c2.7-1.3,5.4-2.8,8-4.4
			c9.3-5.8,17.9-13.6,25.3-23.4h0.4l-0.2-0.2c1.7-2.3,3.4-4.6,4.9-7.1c1.6-2.5,3.1-5.1,4.5-7.8c1.4-2.7,2.8-5.4,4.1-8.3
			c1.3-2.8,2.5-5.7,3.6-8.8c1.1-2.9,2.1-5.9,3.1-9c0.8-2.6,1.6-5.3,2.3-8c4.2-15.7,6.8-33.7,7.7-54.3
			C1097,418.4,1096.9,405.4,1096.1,391.6z"/>
		<path class="st1" d="M108.4,511c-0.4,1.4-0.6,2.9-0.7,4.6v0.1c-0.1,2.3-0.1,4.7,0.1,6.9c0.5,6.2,2.3,12.2,5.3,17.7
			c0.3,0.6,0.6,1.1,0.9,1.6c0-0.2,0-0.5,0-0.7c0-2.1,0.1-4.6,0.1-7.4c0.1-8.2,0.3-19.2,0.3-32.1c-0.7,0.8-1.4,1.5-2.1,2.3
			C110.7,506.1,109.3,508.2,108.4,511z"/>
	</g>
	<g>
		<path class="st5" d="M228.2,495.9c-38-2.6-67.8,31.2-85.7,75.6c-24.3-10.4-41.2-30.5-39.6-56.1c0.6-15.9,13.6-17.5,15.3-28.9
			c1-9.4-15.6-13-21.4,2.6c-17.8,41.2,4.9,77.9,41.2,95.1c-26.9,80.2-16.2,186.3,52.2,188.2c73.7,1,83.7-116.5,34.7-110.7
			c-14.3,1.6-21.7,17.5-14.3,17.2c7.8,0,10.4-10.7,19.8-9.1c26,4.2,18.2,89.9-38.3,88.9c-44.5,0.6-46.1-94.8-24-167.4
			C277.5,601.6,292.1,499.4,228.2,495.9z M235.3,509.8c33.1,1.3,27.6,76.9-63.3,70.1C186.6,540.6,209,508.8,235.3,509.8z"/>
		<path class="st5" d="M564.3,641.6c3.2-8.8,16.5-43.2-2.3-42.5c-9.7,0.3-15.6,14.6-15.6,26c-0.1,8.4,2.3,16.8,5.9,25.3c0,0,0,0,0,0
			c-4.5,15.9-24,75.3-35,75c-11,0,0-70.7,2.9-87.3c1.3-7.5-25.6-9.1-26.6-2.9c-1.1,6-2.1,12.6-3,19.5c-7.9,23.2-29.5,81.1-39.5,81.1
			c-12.7-0.3,5.5-76.6,5.8-88.9c0.3-5.2-1-10.7-8.1-10.4c-9.4,0-22.7,9.4-37,6.8c3.2-14,5.5-40.2-9.4-40.6
			c-14.4,0-20.7,34.3-1.8,47.4c-5.4,19.1-25.8,89.2-36.2,89.2c-15.6-0.3,23-120.4-22.1-120.1c-15.6-0.6-30.2,31.8-39.6,59.7
			c0.3-16.5,1-32.5,1.3-48.7c15.6-28.9,59.1-113.6,23.7-118.8c-62.3,0.3-52.9,170.4-53.2,221.3c0,7.5,26.6,7.5,26.9,1.6
			c0-9.7,0.3-18.5,0.3-27.3c7.5-22.7,26.3-75.9,36-75.6c11.7,0.6-25,123.3,22.1,122.7c22,0.6,40.7-74.5,47.7-100.7
			c5.5,1.8,12.3,2.2,20.7,0.7c-8.8,40.6-15.9,96.7,18.5,96.4c15.1,0.4,30.6-34,41.3-63.8c-0.3,27.4,5.3,51,24.9,50.8
			c20.5,0.6,36.6-50.1,44.3-76.7c10.1,20.1,23.5,40.6,22.9,62.7c-0.3,14-7.1,22.1-14.3,22.1c-7.1,0-14.6-5.2-14.6-14.3
			c0-6.8,11.7-12.3,12-18.8c0-5.5-2.9-9.1-7.8-8.8c-3.9,0.3-12.7,5.8-13,22.7c-0.3,18.2,11.4,28.2,26,27.9
			c16.5-0.3,37.3-14.3,38-37.6C607.1,681.1,584.4,661,564.3,641.6z M327.8,521.2c17.8,2.6-18.2,77.9-23.4,91.2
			C306.7,583.5,311.2,518.6,327.8,521.2z"/>
		<path class="st5" d="M994.9,641.6c3.2-8.8,16.5-43.2-2.3-42.5c-9.7,0.3-15.6,14.6-15.6,26c-0.1,8.3,2.2,16.6,5.7,24.9
			c-5.8,18.6-29.7,83.5-40.4,83.2c-12.7-0.3,10.7-86,13.3-99.9c1.3-7.1-24.7-12.3-26-6.5c-1.9,8.8-6.2,24.7-9.4,42.2
			c-6.2,18.8-16.9,45.4-29.2,44.5c-17.5-1.6,1-90.5,17.8-87.9c11.7,1.6-3.6,19.8,5.8,22.1c12.7,2.6,17.2-27.6-8.1-30.8
			c-28.8-3.6-44.3,23.8-47.4,52c-8.3,27.6-22.4,69.9-30.8,69.7c-15.3-0.3,22.1-114.5-23-114.5c-15.6-0.3-28.9,30.5-37.6,57.4
			c2.3-31.2,3.9-69.4-20.4-69.4c-14.3-0.3-27.9,27.3-37.6,53.9c0.3-13.6,0.6-27.6,0.6-41.2c0-5.8-26-7.8-26-0.3
			c-0.3,10.6-0.7,21.3-1.1,32.1c-6.8,24.5-24.2,81.2-33.9,81.5c-11.4,0.3-2.9-92.8,3.9-153.2c40.6-6.8,86.3-18.5,110-3.2
			c2.3,1.6,8.1-5.5,3.6-8.1c-26-16.2-73.3-4.2-112.6,2.6c2.3-21.7,4.5-38,4.9-41.5c1-7.1-26-7.5-26.9-1.6c-1,7.1-3.9,24.7-6.8,46.7
			c-23.7,1.3-40.2-4.5-38.6-29.9c0.3-5.5-11.4-5.5-11.7,0.3c-1.6,33.1,19.8,39.9,49.3,38.3c-8.4,65.9-15.6,163.5,21.1,161.9
			c14.9-0.2,27.9-31.8,36.7-60.4c-0.4,12.2-0.7,24.7-1,37.7c0,5.8,26.6,7.5,26.9,0c0-11,0.3-22.4,0.6-33.7
			c9.1-26,25.3-69.4,34.1-69.4c3.9,0.3-4.2,75-4.2,93.8c0,5.8,24.3,8.8,26.6,2.6c4.5-12,23.7-84.4,36-84.4
			c11.4,1-24.3,118.1,23,117.5c14,0.4,26.6-30.4,35.7-59.2c3,17.1,11.3,30.3,24.7,31c14.3,1,24.3-9.7,31.5-23.4
			c-1.3,23.7,3.2,43.5,22.1,43.5c20.4,0.6,40.6-56.2,49.5-85c10.1,20.2,23.8,41,23.2,63.3c-0.3,14-7.1,22.1-14.3,22.1
			c-7.1,0-14.6-5.2-14.6-14.3c0-6.8,11.7-12.3,12-18.8c0-5.5-2.9-9.1-7.8-8.8c-3.9,0.3-12.7,5.8-13,22.7
			c-0.3,18.2,11.4,28.2,26,27.9c16.5-0.3,37.3-14.3,38-37.6C1037.7,681.1,1015,661,994.9,641.6z"/>
		<path class="st5" d="M522.1,611.7c6.5-5.5,7.8-15.3,3.2-21.1c-4.9-6.2-14-6.5-20.4-0.6c-6.5,5.8-8.1,15.3-3.2,21.4
			C506.2,617.2,515.6,617.5,522.1,611.7z"/>
	</g>
	<g>
		<path class="st5" d="M604.4,337.1h7.2l42.1,42.1v-12.4l-29.7-29.7H636l17.6,17.6v-12.4l-5.3-5.3h5.3v-4.7
			c-13.5-12.2-30.8-19.7-49.2-24.2v9.3l-11.7-11.7c-4.8-0.8-9.5-1.4-14.3-1.9l26,26V337.1z"/>
		<path class="st5" d="M688.4,337.1h8.9l-9.5-9.5C687.6,330.8,687.8,334.1,688.4,337.1z"/>
		<path class="st5" d="M1047.2,367.4l-24.5-24.5c-0.6,3.6-1.2,7.1-1.9,10.5l26.4,26.4V367.4z"/>
		<path class="st5" d="M1047.2,355.3v-12.4l-5.8-5.8h5.8v-7.2l7.2,7.2h12.4l-19.5-19.5v-12l31.6,31.6h12.4l-34.5-34.5
			c-15,0.5-30.1,10.2-32.4,28c-0.2,2.2-0.5,4.4-0.8,6.5h5.5L1047.2,355.3z"/>
		<path class="st5" d="M1071.9,305.4l14.6,14.6C1083.4,313,1078.1,308.2,1071.9,305.4z"/>
		<path class="st5" d="M702.8,337.1h6.9l42.3,42.3V367l-29.9-29.9h12.1L752,355v-12.4l-5.5-5.5h5.5v-6.8l6.9,6.8h12.4L752,317.9
			v-12.1l31.3,31.3h12.4l-34.4-34.4c-25.2-0.3-47.3,2.9-58.4,5.2v10L695,310c-2.1,1.4-3.9,4-5.1,7.3l12.9,12.9V337.1z"/>
		<path class="st5" d="M801.2,337.1h6.8l42.4,42.4v-12.4l-30-30h12.1l17.9,18v-12.4l-5.6-5.6h5.6v-6.8l6.9,6.8h6.5
			c-15.9-17.1-38.8-26.2-62.6-30.7v11.5l-13.6-13.6c-4.5-0.5-9.1-0.9-13.6-1.2l27.1,27.1V337.1z"/>
		<path class="st5" d="M948.8,379.5v-12.4l-30-30h12.1l17.9,18v-12.4l-5.6-5.6h5.6v-6.6l6.6,6.6h12.4l-19-19v-12.1l25,25
			c1.2-35.8-57.4-38-67-6.2c-0.5,1-2,5.5-3.7,12.3h3.3L948.8,379.5z"/>
		<path class="st5" d="M506,337.1h7.1l42.1,42.1v-12.4l-29.7-29.7h12.1l17.6,17.7v-12.4l-5.3-5.3h5.3v-7.2l7.2,7.2h12.4l-19.5-19.5
			v-12.1l31.6,31.6h12.4L565,302.9c-23.3-1-45,1.1-59,3.4v11.3l-9.6-9.6c-3.3,0.7-5.4,1.3-6.3,1.6c-0.9,0.5-1.7,1.1-2.4,2l18.3,18.3
			V337.1z"/>
		<path class="st5" d="M82.5,337.1l-13.8-13.8c-0.2,1-0.4,2.1-0.5,3.2c-0.3,2.6-0.5,5.2-0.7,7.9l2.7,2.7H82.5z"/>
		<path class="st5" d="M106.9,337.1l-28.2-28.2c-2.4,1.7-4.6,3.7-6.3,6.1l22.1,22.1H106.9z"/>
		<path class="st5" d="M112.4,337.1h6.9l42.3,42.3v-6.5c-2-3.9-4.1-7.9-6.1-11.9l-23.8-23.8h11.5c-5.6-10.6-10.3-19.1-12.8-22.9
			c-3.8-6.8-12.1-10.8-21.5-12l3.5,3.5v12.1l-15.6-15.6c-3.4,0.4-6.8,1.2-10,2.4l25.5,25.5V337.1z"/>
		<path class="st5" d="M260,379.5v-12.4l-30-30h12.1l17.9,18v-12.4l-5.6-5.6h5.6v-6.8l6.8,6.8h12.4L260,317.9v-12.1l31.3,31.3h2.1
			c-0.8-5.9-1.6-10.3-2.4-12.7l-17.8-17.8c-19.8-8.6-48.4-4.3-52.8,12.5c-1,3.8-3.2,10.3-6.2,18h3.4L260,379.5z"/>
		<path class="st5" d="M358.4,367.1l-24.5-24.5c-0.3,2.9-0.8,6.6-1.3,11.1l25.8,25.8V367.1z"/>
		<path class="st5" d="M358.4,355v-12.4l-5.6-5.6h5.6v-6.6l6.6,6.6h12.4l-19-19v-12.1l31,31h12.4l-35.5-35.5
			c-1.4,0.2-2.7,0.5-3.9,0.7c-13.1,1.6-24.6,9.4-27.8,34c0,0.2,0,0.5-0.1,0.8h5.9L358.4,355z"/>
		<path class="st5" d="M471.3,320c-0.7-6.9-4.3-13-10.6-14c-4.6-1.5-32.5-4.7-58.7-5.5l5.6,5.6v12.1l-17.9-17.9
			c-4.2,0-8.3,0.1-12.1,0.3l30,30v6.6h6.6l5.4,5.4c3.9,0,8.2-0.1,12.3-0.1l-5.4-5.4h12.1l5.3,5.3c5,0,9,0,11,0c0.5,0,0.9,0,1.3,0
			l-5.3-5.3h5.8v-7.2l7.2,7.2h2.7c1.5-1.8,2.6-3.9,3.4-6.2l-13.3-13.3v-12L471.3,320z"/>
		<path class="st5" d="M483.6,319.9c-1,3.4-1.4,7.2-1.3,11l6.2,6.2h12.4L483.6,319.9z"/>
		<path class="st5" d="M998,441.1v12.4l6.5,6.5c2.5-1.8,4.7-3.6,6.8-5.6L998,441.1z"/>
		<path class="st5" d="M1047.2,484.7h-5.6l-15.5-15.5c-1,3.3-2.1,6.3-3.2,9.2l6.2,6.2h-8.9c-6.5,14.3-14.3,23.6-22.4,28.9v1.1
			l-0.7-0.7c-2.8,1.8-5.7,3-8.6,3.8l9.2,9.2v6.9h6.9l27.8,27.8c2.7-1.3,5.4-2.8,8-4.4l-23.5-23.4h12.1l17.9,17.9v-12.4l-5.5-5.5h5.5
			v-6.8l6.8,6.8h12.4l-0.2-0.2l-19-19v-12.1l23.9,23.9c1.6-2.5,3.1-5.1,4.5-7.8l-28.4-28.4V484.7z"/>
		<path class="st5" d="M566.1,390.5c0-1.4,0-2.8,0.1-4.2h-4.3L566.1,390.5z"/>
		<path class="st5" d="M653.6,386.3h-5.3l-44-44v12.4l31.6,31.6h-12l-1.7-1.7c1.2,4.2,1.8,8.9,1.8,13.9c0,16.3-6.1,28.4-15.9,37h2.9
			l37.5,37.5c1.8-1.8,3.5-3.6,5.1-5.4v-1.9l-30.3-30.2h12.1l18.2,18.2v-12.4l-5.8-5.8h5.8v-7.2l7.2,7.2h12.4L653.6,416v-12.1
			l23.1,23.1c0.9-3.4,1.7-6.7,2.2-10.1l-25.3-25.3V386.3z"/>
		<path class="st5" d="M752,484.7h-5.3l-43.9-43.9v12.4l31.6,31.6h-12.1l-19.5-19.5v12.4l7.2,7.2h-7.2v5.8l-1.1-1.1
			c1.5,19.4,3.6,33.4,5.9,44.5h1.8l26.5,26.5c5,0.2,9.6,0.7,13.8,1.5l-28-28h12.1l18.2,18.2v-12.4l-5.8-5.8h5.8v-7.2l7.2,7.2h12.4
			l-1.9-1.9L752,514.4v-12.1l18.1,18.1c0.2-4.4,0.3-8.2,0.4-11c1.5,2.7,9.6,13.1,22.8,24.5h2.6L752,490V484.7z"/>
		<path class="st5" d="M801.2,540.2c1.3,1,2.7,2,4.1,3l-4.1-4.1V540.2z"/>
		<path class="st5" d="M673.1,386.3h-12.4l19.4,19.4c0.2-4.1,0.2-8.2,0-12.3L673.1,386.3z"/>
		<path class="st5" d="M702.8,435.5h7.1l42.1,42.1v-12.4l-29.7-29.7h12.1l17.6,17.6v-12.4l-5.3-5.3h5.3v-7.2l7.2,7.2h12.4L752,416
			v-12.1l19.1,19.1c0-3.9,0.1-8,0.1-12.2L752,391.6v-5.3h-5.5l-43.7-43.7v12.4l31.4,31.4h-12.1L702.8,367v12.3l6.9,7h-6.9v5.3
			l-3.4-3.4c-0.1,4.2-0.1,8.3-0.1,12.2l3.6,3.6V416l-3.6-3.6c0,4.3,0,8.4,0,12.4l3.6,3.6V435.5z"/>
		<path class="st5" d="M863,529.5c-8.2-6.5-29.5-13.5-37.7-34c6.5-4.2,12.4-8.5,17.7-12.8l-39.9-39.9c-0.6,0.4-1.3,0.7-2,1v9.3
			l31.6,31.6h-12.1l-19.5-19.5v12.4l7.2,7.2h-7.2v5.3l-5.3-5.3h-12.4l17.6,17.6v12.1l-29.7-29.7h-12.4l42.1,42.1v7.1h7.1l25.4,25.4
			c3.6,1.5,7.4,2.9,11.3,4.1c1.8,0.7,3.6,1.1,5.4,1.1v-1l-29.7-29.7h12.1l17.6,17.6v-12.4l-5.3-5.3h5.3v-7.2l7.2,7.2H868
			C866.8,532.2,865.1,530.8,863,529.5z"/>
		<path class="st5" d="M771.4,398.6c0.1-4.1,0.1-8.2,0.2-12.2l-0.1-0.1h-12.4L771.4,398.6z"/>
		<path class="st5" d="M850.4,386.3h-5.6l-43.6-43.6V355l2.2,2.2c10.7,4.8,18.6,12.4,22.8,22.8l6.3,6.3h-4.4
			c0.9,3.8,1.3,7.8,1.3,12.2c0,17.9-7.3,30.7-18.7,39.4l39.1,39.1c0.2-0.2,0.4-0.4,0.6-0.6v-11.1l-29.7-29.7h12.1l17.6,17.6v-12.4
			l-5.3-5.3h5.3v-6.9l6.9,6.9h12.4l-19.3-19.3v-12l29.6,29.6c1.2-3.1,2.1-6.3,2.9-9.5l-32.5-32.5V386.3z"/>
		<path class="st5" d="M957.6,502.5c-1.7-3.8-3.8-7-6-9.5l-2.4-2.4c-0.1-0.1-0.1-0.1-0.2-0.2c-5.6-4.9-12.2-6.7-18.4-6l0.4,0.4h-3
			c-11.3,2.6-20.2,13.8-17,29.6c6.5,26.2,20.3,40.6,36.9,48.3l-28.7-28.7h12l17.6,17.6v-12.4l-5.3-5.3h5.3V527l6.9,6.9h12.4
			l-19.3-19.3v-12.1l31.3,31.3h12.4l-15.4-15.4C968.6,517,961.5,511.2,957.6,502.5z"/>
		<path class="st5" d="M998,570.6c2.1-0.1,4.2-0.3,6.2-0.6l-6.2-6.2V570.6z"/>
		<path class="st5" d="M998,551.8l16.4,16.4c3.2-0.8,6.4-1.7,9.5-2.8l-26-26V551.8z"/>
		<path class="st5" d="M885.1,386.3h-3.4l3.7,3.7C885.4,388.8,885.3,387.5,885.1,386.3z"/>
		<path class="st5" d="M857.3,386.3l27.5,27.5c0.5-3.8,0.8-7.6,0.9-11.4l-16.1-16.1H857.3z"/>
		<path class="st5" d="M948.8,469.5v-4.1l-30-30h12.1l17.9,17.9V441l-5.5-5.5h5.5v-6.8l6.8,6.8H968l-19.2-19.2v-12.1l31.3,31.3h12.4
			l-14.9-14.9c-0.7,0.1-1.3,0.1-1.9,0c-3.7-0.1-6-3.6-7.3-9.2l-19.5-19.5v-5.6h-5.6l-41.8-41.8c-0.6,2.8-1.2,5.9-1.8,9.2v1.3
			l31.3,31.3h-12.1l-19.2-19.2v12.4l6.8,6.9h-6.8v5.5l-3.2-3.2c0,4.3,0.2,8.6,0.5,12.9l2.7,2.7v12.1l-0.6-0.6
			c1.4,6.9,3.6,13.6,6.6,19.9h0.9l30,30C940.3,467.1,944.4,468.5,948.8,469.5z"/>
		<path class="st5" d="M1047.2,465.5l-16.2-16.2c-0.7,3.5-1.4,6.9-2.2,10.2l18.4,18.4V465.5z"/>
		<path class="st5" d="M955.6,386.3l11.4,11.4c0-3.6,0.1-7.4,0.3-11.4H955.6z"/>
		<path class="st5" d="M1047.2,386.3h-5.8l-23-23c-0.9,3.3-1.8,6.5-2.8,9.5l13.5,13.5H1017l-4.6-4.6c-4.3,10.5-9.2,19-14.3,25.3v9.4
			l-4.4-4.4c-2.3,2.3-4.6,4.1-6.9,5.5l11.3,11.3v6.8h6.8l12.5,12.5c2-2.3,3.8-4.6,5.4-7l-5.5-5.5h9.3c2.9-4.4,5.3-8.6,7.6-12v3.7
			c-0.4,4.1-0.9,8-1.4,11.8l14.5,14.5v-12.4l-5.6-5.6h5.6v-6.8l6.8,6.8h12.4l-19.2-19.2v-12.1l31.3,31.3h12.4l-43.6-43.6V386.3z"/>
		<path class="st5" d="M1054.1,484.7l25.7,25.7c1.3-2.8,2.5-5.7,3.6-8.8l-17-16.9H1054.1z"/>
		<path class="st5" d="M1086.4,492.7c0.8-2.6,1.6-5.3,2.3-8h-10.3L1086.4,492.7z"/>
		<path class="st5" d="M1096.1,391.6l-5.3-5.3h-12.4l18,18v12.1l-30-30h-12.4l42.4,42.4v1.8C1097,418.4,1096.9,405.4,1096.1,391.6z"
			/>
		<path class="st5" d="M604.4,546.4c5.1,3.4,10.5,6.6,16.4,9.5l-16.4-16.4V546.4z"/>
		<path class="st5" d="M642,479l-37.6-37.6v12.4l30.9,30.9C637.7,482.7,639.9,480.8,642,479z"/>
		<path class="st5" d="M619.9,495.5c5.5-3.5,10.6-7.2,15.2-10.8h-11.7l-19-19v12.4l6.6,6.6h-6.6v5.6l-5.6-5.6h-12.4l17.9,17.9v12
			l-30-30h-12.4l42.3,42.3v6.8h6.8l13.7,13.7c0.3-1.8,0.5-3.6,0.8-5.2c0.3-2,0.6-3.9,0.8-5.5l-3-3h3.5c0.1-0.7,0.2-1.3,0.3-1.9
			l0-0.1c0.5-3,3.4-8.1,17.4-8.1c1,0,2.3,0,3.9,0.2C639,518.3,625.9,510.5,619.9,495.5z"/>
		<path class="st5" d="M712,552c0.8,3.5,2.3,6.5,4.5,8.9c2.4-0.2,4.8-0.4,7.1-0.5l-12.7-12.7C711.2,549.2,711.6,550.6,712,552z"/>
		<path class="st5" d="M161.6,465.2l-29.7-29.7H144l17.6,17.6v-12.4l-5.3-5.3h5.3v-7.2l7.2,7.2h12.3L161.6,416v-12.1l31.6,31.6h12.4
			l-43.9-43.9v-5.3h-5.5l-43.7-43.7v12.4l31.4,31.4h-12.1L112.4,367v12.3l7,7h-7v5.3l-5.3-5.3H94.8l17.6,17.6V416l-29.7-29.7H70.4
			l42.1,42.1v7.1h1.1c-0.2-7.2-0.5-14.5-0.8-21.9c4.3,8.7,9.1,18.9,13.8,28.9l35,35V465.2z"/>
		<path class="st5" d="M168.8,484.7l17.5,17.5c1.3-0.4,2.5-0.8,3.8-1.4c1.5-0.9,3.1-1.8,4.6-2.6l-13.6-13.6H168.8z"/>
		<path class="st5" d="M193.2,484.7l8,8c1.9-2.1,3.6-4.5,5.1-7.2l-0.8-0.8H193.2z"/>
		<path class="st5" d="M210.8,474.2c0.7-1.9,1.6-4,2.6-6.5l-2.6-2.6V474.2z"/>
		<path class="st5" d="M210.8,453.1l6.1,6.1c1.1-2.7,2.3-5.7,3.6-8.8l-9.6-9.6V453.1z"/>
		<path class="st5" d="M235.6,545.8c-0.1,2.3,0.2,4.5,0.9,6.5l3.1,3.1c2-2.3,3.7-4.7,5.1-7.2l-8.8-8.8
			C235.8,541.7,235.7,543.8,235.6,545.8z"/>
		<path class="st5" d="M236.4,514.9c-0.1,6.8-0.2,13.2-0.3,19h6.4l5.7,5.7c0.6-2.3,0.9-4.6,0.9-6.9
			C249.2,521.4,243,515.7,236.4,514.9z"/>
		<path class="st5" d="M260,569v-4.5c-1,1.3-2,2.6-3,3.8C258,568.6,259,568.8,260,569z"/>
		<path class="st5" d="M271,533.9h8.6l-9.3-9.3C270.8,527.6,271,530.8,271,533.9z"/>
		<path class="st5" d="M260,484.7h-5.3l-18.4-18.4c0,4.1,0.1,8.2,0.1,12.4l6,6h-5.9c0,2.5,0,5,0,7.4c10.2,2,18,6.4,23.6,12.3v-2.1
			l30.8,30.8c1.5-2.7,3-5.3,4.6-7.7L260,490V484.7z"/>
		<path class="st5" d="M236.2,453.8l23.8,23.8v-12.4l-23.9-23.9C236.1,445.2,236.2,449.4,236.2,453.8z"/>
		<path class="st5" d="M235.6,409.6c0,0.2,0,0.4,0,0.6c0,0.2,0,0.5,0,0.8c0,0.3,0,0.7,0,1c0,0.2,0,0.4,0,0.6c0,0.4,0,0.9,0,1.3v0
			c0,0.7,0,1.5,0,2.4c0,1.2,0.1,2.5,0.1,3.9c0,0.7,0,1.4,0,2.1c0,2.3,0.1,4.8,0.1,7.5c0,0.9,0,1.8,0,2.7v0c0,0.9,0,1.9,0,2.9h6.4
			l17.6,17.7v-12.4l-5.3-5.3h5.3v-6.9l6.9,6.9h12.4L260,416.2v-12l31.3,31.3h8c0-0.6,0-1.1-0.1-1.7c0-0.6-0.1-1.3-0.1-1.9
			c0-0.3,0-0.6,0-0.9l0,0L260,391.8v-5.5h-5.6l-42.7-42.7c-0.3,0.8-0.6,1.5-0.9,2.3v9.1l31.3,31.3H230l-19.2-19.2v12.3l6.9,6.9h-6.9
			v5.3l-5.3-5.3h-12.4l0.5,0.5l17.1,17.1V416L190,395.2c-0.2,0.4-0.4,0.8-0.5,1.2c-0.2,0.4-0.3,0.8-0.5,1.2
			c-0.1,0.3-0.3,0.6-0.4,0.9c-0.2,0.5-0.4,0.9-0.6,1.3c-0.2,0.4-0.3,0.7-0.5,1c-0.5,1-0.9,2-1.3,2.9l24.7,24.7v7.1h7.1l6,6
			c0.4-1,0.8-2.1,1.2-3.2c0.2-0.5,0.3-0.9,0.5-1.4c0.3-0.8,0.6-1.6,0.9-2.5l0.3-0.8c0.2-0.5,0.4-1,0.5-1.5c1.4-3.7,2.8-7.6,4.2-11.6
			c0.2-0.5,0.4-1.1,0.6-1.6c1.1-3.2,2.2-6.5,3.3-9.9C235.6,409.1,235.6,409.3,235.6,409.6z"/>
		<path class="st5" d="M301.1,494.2c-0.1-3.1-0.1-6.2-0.2-9.5h-9.3L301.1,494.2z"/>
		<path class="st5" d="M279.5,484.7h-12.4l33.9,33.9c0.1-0.1,0.2-0.2,0.3-0.3c0.1-0.1,0.1-0.1,0.2-0.2c-0.1-3.5-0.1-7.4-0.2-11.5
			L279.5,484.7z"/>
		<path class="st5" d="M354.7,560.6c0.7,0.5,1.4,1,2.1,1.4l-11.6-11.6C347.9,554.6,351.1,558,354.7,560.6z"/>
		<path class="st5" d="M358.4,484.7h-5.5L327,458.8c0.1,4.3,0.2,8.6,0.4,12.8l13.1,13.1h-12.1l-0.2-0.2c0.6,7.9,1.5,15.5,2.7,22.8
			c5.6,1.4,9.8,4.8,12.4,9.8c2.6,5.3,3.4,12.5,2.3,21.6l12.8,12.8v-12.4l-5.3-5.3h5.3V527l6.9,6.9h12.4l-19.3-19.3v-12.1l31.3,31.3
			h12.4l-43.7-43.7V484.7z"/>
		<path class="st5" d="M407.6,565.1c0.3-0.1,0.7-0.1,1-0.2l-1-1V565.1z"/>
		<path class="st5" d="M407.6,551.8l10.8,10.8c3.3-0.9,6.5-1.8,9.6-2.8l-20.4-20.4V551.8z"/>
		<path class="st5" d="M297.6,392.5c-0.1-2.1-0.2-4.2-0.3-6.2h-5.9L297.6,392.5z"/>
		<path class="st5" d="M266.9,386.3l31.8,31.8c-0.2-4.3-0.4-8.7-0.6-12.9l-18.9-18.9H266.9z"/>
		<path class="st5" d="M358.4,465.5l-29.9-30h12.1l17.9,17.9V441l-5.5-5.5h5.5v-6.8l6.8,6.8h12.4l-19.2-19.2v-12.1l31.3,31.3h7.3
			c0-1.5,0.1-3.2,0.1-4.9l-38.7-38.7v-5.6h-5.6l-21.4-21.4c-0.4,3.5-0.7,7.3-1.1,11.3l10.1,10.1h-10.9c-1.4,17.9-2.6,38.9-2.6,60
			l31.5,31.5V465.5z"/>
		<path class="st5" d="M377.7,484.7h-12.4l34.4,34.4c-0.2-0.5-0.4-1.2-0.4-1.9c-0.4-3-0.5-7.2-0.6-11.5L377.7,484.7z"/>
		<path class="st5" d="M402.1,484.7h-12.4l8.8,8.8c0-0.4,0-0.9-0.1-1.3c0.9,0,4.4-0.8,9.1-2.1L402.1,484.7z"/>
		<path class="st5" d="M407.6,490.2c5.7-1.5,13.2-3.5,20.5-5.5h-1.3l-19.2-19.2v12.4l6.8,6.8h-6.8V490.2z"/>
		<path class="st5" d="M407.6,447.3v6.1l29.1,29.1c2.7-0.7,5.3-1.3,7.6-1.8c0.7-0.3,1.4-0.6,2.1-0.9L413,446.4
			C411.1,446.7,409.3,447,407.6,447.3z"/>
		<path class="st5" d="M456.8,514.7v-4.4c-4.6-4-10.9-5.3-17.8-1.7c-5.3,1.6-13.1,6.1-21.3,9.8c-2.4,1.2-10.3,5.3-14.9,3.7l4.9,4.9
			v6.9h6.9l22.7,22.7c3.2-1.2,6.2-2.4,8.8-3.6l-19.2-19.2h12.1l15,15c1-0.7,2-1.4,2.8-2.2v-7.3l-5.5-5.5h5.5v-6.8l6.8,6.8h0.5
			c0.9-4.1,0.6-8.4-0.5-12.3L456.8,514.7z"/>
		<path class="st5" d="M506,551.9l0.6,0.6l15.7,15.7c4.4,1.5,9.4,2.1,14.2,1.9L506,539.5V551.9z"/>
		<path class="st5" d="M365.3,386.3l32.4,32.4c0.2-3.8,0.4-7.7,0.5-11.8l-20.5-20.5H365.3z"/>
		<path class="st5" d="M399.3,386.3h-9.6l9.1,9.1C398.9,392.4,399.1,389.3,399.3,386.3z"/>
		<path class="st5" d="M455.3,464l-21-21c-2.9,0.4-6.7,1-10.7,1.6l29.1,29.1C454.4,470.9,455.2,467.5,455.3,464z"/>
		<path class="st5" d="M493.8,428.9c0,2.2,0.1,4.5,0.1,6.6h6.5L493.8,428.9z"/>
		<path class="st5" d="M555.2,484.7h-5.6L506,441.1v12.4l31.3,31.3h-12.1L506,465.5v12.4l6.8,6.8H506v5.6l-5.6-5.6h-4.5
			c0.2,2.9,0.4,5.8,0.7,8.5l9.5,9.5v12.1l-8.2-8.2c0.6,5.2,1.2,9.9,1.9,14.3l6.2,6.2v6.8h6.8l34.3,34.3c3-0.9,5.7-2.1,8.1-3.7v-0.6
			l-30-30h12.1l18,18v-12.4l-5.6-5.6h5.6v-6.8l6.8,6.8h2c0.1-3.4,0.3-6.8,0.4-9.9l-9.3-9.3v-12.1l9.7,9.7c0-1.1,0.1-2,0.1-2.9
			c1.5,2.7,9.6,13.1,22.9,24.5h10.9l-43.6-43.6V484.7z"/>
		<path class="st5" d="M506,435.5h6.8l42.4,42.4v-12.4l-30-30h12l18,18v-12.4l-5.6-5.6h5.6v-6.6l6.6,6.6h3.7c0-2.6,0.1-5.5,0.1-8.6
			v0l-10.4-10.4v-12.1l10.5,10.5c0.1-4,0.1-8.1,0.1-12.2l-10.6-10.6v-5.8H550L506,342.4v12.4l31.6,31.6h-12L506,366.8v12.4l7.2,7.2
			H506v5.6l-5.6-5.6h-6.5c0,2,0,3.9-0.1,5.8v0l12.2,12.2v12.1L493.8,404c0,4.3,0,8.4,0,12.4l12.3,12.3V435.5z"/>
		<path class="st5" d="M64.6,528.6l5.3,5.3h12.4l-18.1-18.1C64.3,520.5,64.4,524.8,64.6,528.6z"/>
		<path class="st5" d="M85.9,513.2l-22.3-22.3c0.1,4.4,0.2,8.6,0.2,12.6l22.4,22.4C85.7,521.7,85.6,517.4,85.9,513.2z"/>
		<path class="st5" d="M114,542c0-0.2,0-0.5,0-0.7l-0.9-0.9C113.4,541,113.7,541.5,114,542z"/>
		<path class="st5" d="M82.7,435.5l-19.2-19.2c-0.1,4.1-0.1,8.1-0.2,12.2l7,7H82.7z"/>
		<path class="st5" d="M63.8,404.5l31,31h12.4l-43-43C64,396.5,63.9,400.5,63.8,404.5z"/>
		<path class="st5" d="M69.8,484.7l17.6,17.6c0.7-3.2,1.6-6.4,2.8-9.6l-8-8H69.8z"/>
		<path class="st5" d="M112.4,440.8v12.4l1.6,1.6c-0.1-4.2-0.2-8.4-0.3-12.6L112.4,440.8z"/>
		<path class="st5" d="M112.4,473.9c0.7,0.1,1.3,0.3,1.9,0.5c0-2.4,0-4.9-0.1-7.4l-1.8-1.8V473.9z"/>
		<path class="st5" d="M112.4,515l-4-4c-0.4,1.4-0.6,2.9-0.7,4.6v0.1c-0.1,2.3-0.1,4.7,0.1,6.9l4.6,4.6v6.6h1.8
			c0.1-8.2,0.3-19.2,0.3-32.1c-0.7,0.8-1.4,1.5-2.1,2.3V515z"/>
		<path class="st5" d="M161.6,484.7h-5.3l-18.8-18.8c4.6,9.7,8.1,17.2,9.6,19.7c4.8,11,16.2,17.5,28.1,18L161.6,490V484.7z"/>
	</g>
</g>
</svg>
