<?xml version="1.0" encoding="utf-8"?>
<!-- Generator: Adobe Illustrator 23.0.3, SVG Export Plug-In . SVG Version: 6.00 Build 0)  -->
<svg version="1.1" id="Layer_1" xmlns="http://www.w3.org/2000/svg" xmlns:xlink="http://www.w3.org/1999/xlink" x="0px" y="0px"
	 viewBox="0 0 1133.9 1133.9" style="enable-background:new 0 0 1133.9 1133.9;" xml:space="preserve">
<style type="text/css">
	.st0{fill:#1E2121;}
	.st1{fill:#A81F26;}
	.st2{fill:#F2F1F2;}
	.st3{fill:#DD353A;}
	.st4{fill:#CFCFCE;}
	.st5{fill:#1D2121;}
	.st6{fill:none;}
	.st7{fill:#AA1F23;}
	.st8{fill:#FDFEFE;}
	.st9{fill:#EE742C;}
	.st10{fill:#BA5234;}
	.st11{fill:#ED1C24;}
	.st12{fill:#C42C3A;}
	.st13{fill:#058743;}
	.st14{fill:#0F4D70;}
	.st15{fill-rule:evenodd;clip-rule:evenodd;fill:#C42C3A;}
	.st16{fill-rule:evenodd;clip-rule:evenodd;fill:#1E2121;}
	.st17{fill:#E8E8E8;}
	.st18{fill:#186634;}
	.st19{fill:#BF2730;}
	.st20{fill:#B47A48;}
	.st21{fill:#3E1E14;}
	.st22{fill:#DBAD5D;}
	.st23{fill:#B84947;}
	.st24{fill:#C3976E;}
	.st25{fill:#9D2023;}
	.st26{fill:#3C2517;}
	.st27{fill:#4A3A31;}
	.st28{fill:#EDAD4F;}
	.st29{fill:#F8C018;}
</style>
<g>
	<g>
		<polygon class="st0" points="1011.9,614.8 1015.7,620 1013.6,626.1 1019.7,624.1 1024.8,628 1024.8,621.5 1030.1,617.9 
			1024,615.9 1022.1,609.7 1018.4,615 		"/>
		<polygon class="st0" points="971,502.4 976.1,506.4 975.7,512.8 981,509.2 987,511.5 985.2,505.3 989.3,500.3 982.9,500.1 
			979.4,494.7 977.2,500.8 		"/>
		<polygon class="st0" points="862.3,349.8 858.8,345.6 857.6,350.9 852.6,353 857.3,355.7 857.7,361.2 861.7,357.5 867,358.8 
			865.9,356.4 865.9,356.4 864.8,353.9 867.7,349.2 		"/>
		<polygon class="st0" points="895.3,398.4 892.8,403.2 887.4,403.9 891.2,407.8 890.1,413.1 891.1,412.7 891.1,412.7 895,410.7 
			898.9,412.8 899.8,413.3 899.4,410.7 899.4,410.7 899,407.9 902.9,404.2 897.6,403.3 		"/>
		<polygon class="st0" points="931.6,461.5 936.1,458.5 931,456.7 929.6,451.4 926.3,455.8 920.8,455.5 923.9,460 922,465.1 
			923,464.8 923,464.8 927.2,463.5 930.7,466.3 931.5,466.9 931.5,464.2 931.5,464.2 		"/>
		<polygon class="st0" points="843.5,394 843.6,391.4 843.6,391.4 843.7,388.6 848.2,385.6 843.1,383.8 841.6,378.6 838.3,382.9 
			832.9,382.6 836,387.1 834.1,392.2 835.1,391.9 835.1,391.9 839.3,390.6 842.7,393.4 		"/>
		<polygon class="st0" points="882.6,490.4 881.5,495.7 876.4,497.8 881.1,500.5 881.5,505.9 882.3,505.3 882.3,505.3 885.6,502.3 
			889.9,503.4 890.9,503.6 889.8,501.2 889.8,501.2 888.7,498.6 891.5,494 886.1,494.6 		"/>
		<polygon class="st0" points="911.5,526.8 908,522.6 906.8,527.9 901.8,530 906.5,532.7 906.9,538.1 907.6,537.5 907.6,537.5 
			910.9,534.5 915.2,535.6 916.2,535.8 915.1,533.4 915.1,533.4 914,530.8 916.9,526.2 		"/>
		<polygon class="st0" points="938.7,543.1 936.5,538.1 933.9,542.9 928.5,543.5 932.3,547.4 931.2,552.8 932.1,552.3 936.1,550.4 
			939.9,552.6 940.8,553.1 940.4,550.5 940.4,550.5 940.1,547.7 944.1,544.1 		"/>
		<polygon class="st0" points="967.7,558.2 964.2,554 963,559.4 958,561.4 962.7,564.2 963.1,569.6 963.8,568.9 967.1,566 
			971.4,567 972.4,567.3 971.3,564.8 971.3,564.8 970.2,562.3 973.1,557.7 		"/>
		<polygon class="st0" points="940.3,590.1 939.6,584.7 935.8,588.6 930.4,587.7 932.9,592.5 930.4,597.3 931.4,597.2 935.8,596.4 
			938.9,599.6 939.6,600.3 940,597.7 940,597.7 940.4,594.9 945.2,592.5 		"/>
		<polygon class="st0" points="867.9,627.3 871.9,625.4 875.7,627.5 876.6,628 876.2,625.3 876.2,625.3 875.8,622.6 879.8,618.9 
			874.4,618 872.1,613.1 869.6,617.9 864.2,618.6 868,622.5 867,627.8 		"/>
		<polygon class="st0" points="854.3,664.3 852.8,662 854.9,656.9 849.6,658.4 845.5,654.9 845.2,660.3 840.6,663.2 845.7,665.1 
			847,670.4 847.6,669.6 850.4,666.1 854.8,666.4 855.8,666.5 854.3,664.3 		"/>
		<polygon class="st0" points="939.8,680.2 936.3,676.1 935.1,681.4 930.1,683.4 934.8,686.2 935.2,691.6 935.9,690.9 939.2,688 
			943.5,689 944.5,689.3 943.4,686.8 943.4,686.8 942.3,684.3 945.2,679.7 		"/>
		<polygon class="st0" points="963.9,680.8 964.5,680 967.1,676.5 971.5,676.6 972.6,676.7 971,674.5 971,674.5 969.4,672.2 
			971.3,667.1 966.1,668.8 961.8,665.4 961.8,670.8 957.2,673.8 962.4,675.6 		"/>
		<polygon class="st0" points="876.4,687.2 877.3,687.8 876.9,685.1 876.9,685.1 876.6,682.4 880.7,678.8 875.4,677.7 873.2,672.7 
			870.6,677.5 865.1,678 868.8,682 867.6,687.3 868.6,686.8 872.6,685 		"/>
		<polygon class="st0" points="988.1,652.7 984,649.2 983.7,654.6 979.1,657.5 984.2,659.4 985.4,664.7 986.1,663.9 988.8,660.5 
			993.3,660.8 994.3,660.9 992.8,658.6 992.8,658.6 991.3,656.3 993.4,651.3 		"/>
		<polygon class="st0" points="908.5,640 909.8,634.8 904.8,636.9 900.2,634 900.7,639.5 896.6,642.9 897.6,643.2 901.9,644.1 
			903.5,648.2 903.9,649.2 905.3,646.9 905.3,646.9 906.7,644.5 912.1,644.1 		"/>
		<polygon class="st0" points="873,660.9 877.4,660.4 880.3,663.6 881,664.4 881.5,661.8 881.5,661.8 882,659.1 887,656.9 
			882.2,654.2 881.7,648.8 877.7,652.6 872.4,651.4 874.7,656.3 872,661 		"/>
		<polygon class="st0" points="900.4,667.5 903.6,667.1 905.8,669.5 906.3,670.1 906.6,668.2 906.6,668.2 907,666.2 910.6,664.6 
			907.1,662.7 906.7,658.7 903.9,661.4 900,660.6 901.7,664.2 899.7,667.6 		"/>
		<polygon class="st0" points="931.6,570.2 931.4,574.2 932,573.8 934.7,572 937.7,573.1 938.3,573.4 937.8,571.5 937.8,571.5 
			937.2,569.6 939.8,566.5 935.8,566.4 933.6,563.1 932.3,566.8 928.5,567.8 		"/>
		<polygon class="st0" points="913.2,579.7 910.9,576.5 909.7,580.3 905.9,581.4 909.2,583.7 909.1,587.7 909.7,587.2 912.3,585.3 
			915.3,586.4 916,586.6 915.4,584.8 915.4,584.8 914.8,582.9 917.2,579.7 		"/>
		<polygon class="st0" points="911.2,554.8 908.8,551.1 907.3,555.2 903.1,556.4 906.5,559 906.3,563.4 907,563 909.9,561 
			913.3,562.3 914,562.6 913.4,560.5 913.4,560.5 912.8,558.3 915.6,554.9 		"/>
		<polygon class="st0" points="887.2,529.5 884.8,525.8 883.3,529.9 879.1,531.1 882.6,533.8 882.3,538.1 883,537.7 885.9,535.7 
			889.3,537 890,537.3 889.4,535.2 889.4,535.2 888.8,533 891.6,529.6 		"/>
		<polygon class="st0" points="882.4,600.2 880.2,596.9 878.9,600.6 875.1,601.6 878.2,604 878,608 878.6,607.6 881.2,605.8 
			884.2,606.9 884.9,607.2 884.4,605.4 884.4,605.4 883.8,603.4 886.3,600.3 		"/>
		<polygon class="st0" points="866.6,648.4 866.1,646.5 866.1,646.5 865.5,644.6 868,641.5 864.1,641.4 861.9,638.1 860.6,641.8 
			856.7,642.8 859.9,645.2 859.6,649.2 860.3,648.8 862.9,646.9 865.9,648.1 		"/>
		<polygon class="st0" points="887.6,637.7 887.6,637.7 887.6,635.7 890.9,633.5 887.2,632.2 886.1,628.4 883.7,631.6 879.8,631.4 
			882,634.6 880.6,638.3 881.4,638.1 884.4,637.2 886.9,639.2 887.5,639.7 		"/>
		<polygon class="st0" points="924.1,602.4 923.7,605.8 920.7,607.3 923.8,608.8 924.3,612.1 924.8,611.6 926.6,609.6 929.3,610 
			930,610.1 929.2,608.7 929.2,608.7 928.3,607.2 929.8,604.2 926.5,604.8 		"/>
		<polygon class="st0" points="916.1,622 915.3,619.3 913.6,621.6 910.8,621.6 912.5,623.9 911.6,626.6 912.1,626.4 914.3,625.7 
			916.1,627 916.5,627.4 916.5,626 916.5,626 916.5,624.5 918.8,622.9 		"/>
		<polygon class="st0" points="895.3,622.9 896.4,625 896.6,625.4 897.2,624.2 897.2,624.2 897.8,622.9 900.6,622.4 898.6,620.4 
			899,617.6 896.5,619 893.9,617.7 894.5,620.5 892.5,622.6 893,622.6 		"/>
		<polygon class="st0" points="931.3,638.8 929.7,636.5 928.8,639.2 926,639.9 928.3,641.6 928.2,644.5 928.7,644.2 930.5,642.8 
			932.7,643.6 933.2,643.8 932.8,642.5 932.8,642.5 932.4,641.1 934.1,638.9 		"/>
		<polygon class="st0" points="956.7,584.8 955.3,588.5 956,588.3 959.1,587.3 961.6,589.3 962.2,589.8 962.2,587.9 962.2,587.9 
			962.2,585.8 965.5,583.7 961.8,582.4 960.7,578.5 958.3,581.7 954.4,581.5 		"/>
		<polygon class="st0" points="888.1,550.4 887,546.6 884.7,549.7 880.7,549.5 883,552.8 881.6,556.5 882.3,556.3 885.4,555.3 
			887.9,557.4 888.5,557.8 888.5,555.9 888.5,555.9 888.5,553.9 891.8,551.7 		"/>
		<polygon class="st0" points="876.7,475.2 879.8,474.3 882.3,476.3 882.9,476.7 882.9,474.8 882.9,474.8 883,472.8 886.3,470.6 
			882.5,469.3 881.5,465.5 879.1,468.6 875.1,468.5 877.4,471.7 876,475.4 		"/>
		<polygon class="st0" points="892.8,521.5 893.3,521 895.6,518.7 898.7,519.3 899.5,519.4 898.6,517.7 898.6,517.7 897.7,515.9 
			899.5,512.4 895.6,513.1 892.9,510.2 892.3,514.1 888.7,515.8 892.2,517.6 		"/>
		<polygon class="st0" points="905.8,473.9 903.1,471.1 902.5,475 898.9,476.7 902.5,478.5 903,482.4 903.5,481.9 905.8,479.6 
			908.9,480.2 909.7,480.3 908.8,478.6 908.8,478.6 907.9,476.8 909.7,473.3 		"/>
		<polygon class="st0" points="905.8,452.1 903.1,449.2 902.5,453.1 898.9,454.8 902.5,456.6 903,460.5 903.5,460 905.8,457.7 
			908.9,458.3 909.7,458.4 908.8,456.7 908.8,456.7 907.9,454.9 909.7,451.4 		"/>
		<polygon class="st0" points="877.9,431.8 875.2,429 874.6,432.9 871,434.6 874.6,436.4 875.1,440.3 875.6,439.8 877.9,437.5 
			881,438.1 881.8,438.2 880.9,436.5 880.9,436.5 880,434.7 881.8,431.2 		"/>
		<polygon class="st0" points="895.6,423.2 892.9,420.4 892.3,424.3 888.7,426 892.2,427.8 892.8,431.7 893.3,431.2 895.6,428.9 
			898.7,429.5 899.5,429.6 898.6,427.9 898.6,427.9 897.7,426.1 899.5,422.6 		"/>
		<polygon class="st0" points="878.9,386.8 880.6,390.4 880.9,389.8 882.4,386.9 885.6,386.6 886.4,386.5 885,385.1 885,385.1 
			883.6,383.6 884.4,379.7 880.8,381.5 877.4,379.5 877.9,383.5 875,386.1 		"/>
		<polygon class="st0" points="861.5,384.4 861.9,383.7 863.5,380.7 866.9,380.3 867.7,380.2 866.2,378.7 866.2,378.7 864.7,377.1 
			865.6,373 861.8,374.8 858.1,372.7 858.7,376.9 855.5,379.8 859.7,380.5 		"/>
		<polygon class="st0" points="870.9,401.1 870.4,405 866.9,406.7 870.4,408.4 870.9,412.3 871.4,411.7 873.6,409.5 876.7,410 
			877.5,410.2 876.6,408.5 876.6,408.5 875.7,406.7 877.5,403.3 873.7,403.9 		"/>
		<polygon class="st0" points="906.7,681.6 904,676.9 901.9,681.9 896.6,682.9 897.3,683.6 900.6,686.5 900.1,690.9 900,691.9 
			902.3,690.6 902.3,690.6 904.7,689.1 909.6,691.4 908.4,686.1 912.1,682.1 		"/>
		<polygon class="st0" points="950.5,646.4 954.8,647.4 956.4,651.5 956.8,652.4 958.2,650.1 958.2,650.1 959.6,647.7 965,647.4 
			961.4,643.3 962.7,638 957.7,640.2 953.1,637.3 953.6,642.7 949.5,646.2 		"/>
		<polygon class="st0" points="931.5,661.8 936.8,663.1 934.6,658.1 937.5,653.5 932.1,654 928.6,649.9 927.4,655.2 922.4,657.2 
			923.3,657.7 927.1,660 927.4,664.4 927.5,665.4 929.5,663.6 929.5,663.6 		"/>
		<polygon class="st0" points="906.5,599.4 903,595.2 901.8,600.5 896.8,602.6 901.5,605.3 901.9,610.8 902.6,610.1 905.9,607.2 
			910.2,608.2 911.2,608.4 910.1,606 910.1,606 909,603.5 911.9,598.8 		"/>
		<polygon class="st0" points="991.4,572.8 987.9,568.6 986.8,573.9 981.7,576 986.4,578.8 986.8,584.2 987.6,583.5 990.9,580.6 
			995.2,581.6 996.2,581.9 995.1,579.4 995.1,579.4 994,576.9 996.9,572.2 		"/>
		<polygon class="st0" points="935.9,619.7 932.4,615.6 931.2,620.9 926.2,622.9 930.9,625.7 931.3,631.1 932,630.4 935.3,627.5 
			939.6,628.5 940.6,628.8 939.6,626.3 939.6,626.3 938.4,623.8 941.3,619.2 		"/>
		<polygon class="st0" points="884.6,575 880.7,571.2 880,576.6 875.2,579.1 880.2,581.4 881.1,586.8 881.8,586 884.8,582.8 
			889.2,583.4 890.2,583.6 888.9,581.2 888.9,581.2 887.5,578.8 889.9,573.9 		"/>
		<path class="st0" d="M858.5,319c0.7-1.4,1.9-2.4,3.4-2.8c0,0,0.1,0,0.1,0c0,0,0,0,0.1,0c0.3-0.1,0.7-0.1,1.2-0.1c0,0,0,0,0,0
			c0,0,0,0,0,0c0.4,0,0.8,0.1,1.2,0.1c0,0,0,0,0.1,0c0,0,0.1,0,0.1,0c1.5,0.4,2.7,1.4,3.4,2.8c0.1,0.2,0.2,0.4,0.3,0.6
			c12.4,29.9,24.9,55.6,38.1,78.5c11.2,19.4,26.7,44.3,47.6,64.4c1.5,1.5,3.5,3.5,3.3,5.6c-0.4,3-3.4,3.7-5.3,4.4
			c-8.2,3-16.7,5.3-23.8,7c-9.1,2.2-15.1,5.6-18,10c-3.3,5-4,10.2-2.2,15.6c1.6,4.9,2.9,8.3,9.4,13.4c11.7,9.1,77.1,41.9,81.8,44.4
			c4.7,2.6,8.3,6.9,8.3,11.3c0,3.2-2.7,7.8-9.9,11.2c-6.6,3-13.8,4.2-20.8,5.3c-4.4,0.7-8.6,1.3-12.6,2.4
			c-7.9,2.2-14.3,6.9-16.7,12.3c-1.7,3.8-1.5,7.8,0.6,12.1c5.4,10.8,20.9,16.7,33.3,21.4c1.9,0.7,3.8,1.4,5.5,2.1
			c3.5,1.4,7.1,2.7,10.5,4c13.6,5.1,27.7,10.4,39.8,19c0.1,0.1,0.2,0.1,0.3,0.2l1,0.9c0.1,0.1,0.1,0.1,0.2,0.2
			c0.5,0.5,0.9,0.9,1.4,1.4c3.4,3.2,8,7.7,6.8,14.6c-0.9,4.9-4.4,9.3-10.6,13.5c-1.2,0.8-2.5,1.6-3.8,2.2c0.5-0.2,1.1-0.5,1.6-0.7
			c9.5-4,13.9-8.4,15.3-15c3.4-16.1-19.6-26.2-33.4-32.2l-1.6-0.7c-3.3-1.5-6.7-2.9-10-4.3c-8.1-3.4-16.4-7-24.6-11.1l-2.1-1.1
			c-5.1-2.5-10.3-5.2-15.1-8.1c-3.8-2.4-10.2-6.4-9.3-14.1c1.2-9.8,12.6-11.7,19.6-12.6c1-0.1,2.5-0.3,3.3-0.5
			c10.6-1.8,21.5-3,31.3-8.3c11.7-6.2,11-12.6,10.8-15.3c-0.7-7.3-7.7-16.1-18-20.8c-8.9-4.1-66.4-33.1-68.8-34.3
			c-3.2-1.7-12.6-7-12.6-15.8c-0.4-4,1.9-9.9,9.6-13.2c7.7-3.3,48.3-7.2,48.6-19c0-0.3,0.8-2.8-3.2-6.6c-2.7-2.5-5.5-5-8.2-7.4
			c-6.2-5.4-12.5-11-18.1-17.9c-8.7-10.7-16.1-22.3-21.5-31.2c-12.7-20.7-24.5-43.6-35.1-67.8c-1-2.3-2.1-5.1-3.2-8.1
			c-4.9-13.2-11.6-31.2-24.3-31.2h0l-0.2,0c0,0,0,0-0.1,0h0h0c0,0,0,0-0.1,0l-0.2,0h0c-12.7,0-19.4,18-24.3,31.2
			c-1.1,3-2.1,5.8-3.2,8.1c-4.6,10.5-9.4,20.8-14.4,30.8l-7.1,13.3c-3.3,6.2,7.3,13.3,11.8,4.6c17-32.8,24.6-49.6,32.3-68
			C858.3,319.3,858.4,319.1,858.5,319z"/>
		<path class="st0" d="M849.9,271c0.6,0.5,0.8,1.3,0.7,2.1l-2.3,13.4c-0.3,1.9,1.7,3.4,3.4,2.5l12-6.3c0.7-0.4,1.5-0.4,2.2,0l12,6.3
			c1.7,0.9,3.7-0.6,3.4-2.5l-2.3-13.4c-0.1-0.8,0.1-1.5,0.7-2.1l9.7-9.5c1.4-1.4,0.6-3.7-1.3-4l-13.5-2c-0.8-0.1-1.4-0.6-1.8-1.3
			l-6-12.2c-0.9-1.7-3.4-1.7-4.2,0l-6,12.2c-0.3,0.7-1,1.2-1.8,1.3l-13.5,2c-1.9,0.3-2.7,2.7-1.3,4L849.9,271z M843.3,259.2
			l12.9-1.9c0.8-0.1,1.4-0.6,1.8-1.3l5.8-11.7c0.4-0.9,1.7-0.9,2.1,0l5.8,11.7c0.3,0.7,1,1.2,1.8,1.3l12.9,1.9c1,0.1,1.4,1.3,0.7,2
			l-9.4,9.1c-0.6,0.5-0.8,1.3-0.7,2.1l2.2,12.9c0.2,1-0.8,1.7-1.7,1.2l-11.6-6.1c-0.7-0.4-1.5-0.4-2.2,0l-11.6,6.1
			c-0.9,0.5-1.9-0.3-1.7-1.2l2.2-12.9c0.1-0.8-0.1-1.5-0.7-2.1l-9.4-9.1C842,260.6,842.3,259.4,843.3,259.2z"/>
		<path class="st0" d="M854.8,270c0.5,0.5,0.8,1.2,0.6,1.9l-1.6,9.2c-0.2,1,0.8,1.7,1.7,1.2l8.2-4.3c0.6-0.3,1.4-0.3,2,0l8.2,4.3
			c0.9,0.5,1.9-0.3,1.7-1.2l-1.6-9.2c-0.1-0.7,0.1-1.4,0.6-1.9l6.7-6.5c0.7-0.7,0.3-1.9-0.7-2l-9.2-1.3c-0.7-0.1-1.3-0.6-1.7-1.2
			l-4.1-8.4c-0.4-0.9-1.7-0.9-2.1,0l-4.1,8.4c-0.3,0.6-0.9,1.1-1.7,1.2l-9.2,1.3c-1,0.1-1.4,1.3-0.7,2L854.8,270z"/>
		<path class="st0" d="M1061.5,770.6c-2-3.3-3.8-6.6-5.5-10c-10.7-18.8-23.1-36.2-37.1-52.8c-0.9-0.8-1.4-1.9-1.5-3.1
			c0.4-5.9,1.5-11.5,1.6-17.4c0.4-6.2,0.3-12.6-2-18.7c-3.2-8.1-11.4-10.1-18-5c-3.9,2.9-6,6.5-7.1,11c-2.4,8.2-1.7,16.3,0.2,24.3
			c2.4,10.6,6.5,20.6,11.5,30.3c0.6,0.5,0.9,1.7,0.6,2.5c-1,5.6-2,11.2-3.3,16.6c-0.8,3.9-1.8,7.6-2.6,11.5c0.1,0,0.3,0.1,0.4,0.1
			c0,0.1-0.1,0.3-0.1,0.4c-3.7,11.5-7.4,23.4-11.4,34.9c-1.3,3.4-3.8,6.5-6,9.3c-1.9,2.3-4.4,1.8-5.6-0.7c-0.9-2.5-2.1-5-2.1-7.8
			c-0.7-7.5-1.1-14.8-1-22.4c0.5-16.2,1.4-32.2,1.9-48.4c0.2-4.8,0.7-9.2,0.6-14c0.1-7.3-4.1-12.2-11.2-14.1
			c-1.4-0.3-3.1-0.2-4.8-0.5c-3.1-0.5-5,0.9-6.4,3.2c-0.5,1.1-1.1,2.3-1.6,3.4c-1.3,3.7-2.7,7.6-3.7,11.3c-2.6-2.5-4.9-5.8-8-8.2
			c-8-6.3-17.5-6.4-26.7-5.1c-12.3,1.6-21.4,8.5-27.9,18.7c-10.3,15.9-14.2,33.3-12.5,52c1.5,19.6,16.1,36.4,35.2,40.2
			c14,2.8,19-0.4,24.7-11.1c3.2-5.9,5.4-12.4,7.8-18.9c1.6-5.1,2.9-10.4,4.2-16c0.3,1.4,0.3,2.2,0.6,3.1c1.8,7.2,3.3,14.5,5.4,21.4
			c3.8,11.1,11.5,18.3,23.1,20.8c6.7,1.6,12-0.2,16.4-5.3c4.7-5.4,8.2-11.9,10.3-18.9c3.2-9.3,5.5-19.1,7.9-28.7
			c1.4-4.6,2.3-9.5,3.4-14.6c7.3,14.3,14.7,28.6,21.8,42.9c0.3,0.3,0,1.4-0.2,2c-2.7,3.7-5.5,7.4-7.9,11.1
			c-7.6,11.9-14.1,24.3-15.2,38.6c-1.6,16.8,4.5,30.7,18.4,40.2c7.4,5.2,15.5,7.3,24.5,5.7c10.9-2.2,17.5-9.6,21.5-19.4
			c6.4-16.1,6.1-32.6,3-49.3c-2.5-12.8-5.5-25.1-11.3-37c13-6.1,26.7-8.1,41.3-7.5c0.2-2.5,0.2-5,0.4-7.6
			C1091.3,761.6,1076.2,764.4,1061.5,770.6z M941.2,725.8c-3.3,19.6-7.1,39.3-14.6,57.9c-2.4,5.9-5.4,11.6-10,16.4
			c-2.7,2.8-3.3,2.9-5.6-0.5c-3.5-5.3-5.2-10.8-6.5-16.9c-0.9-4.7-1.6-9.8-2.2-14.8c0.2-18.2,5.8-34.2,16.7-48.7
			c3-3.7,6.6-6.6,11.3-7.2c3.3-0.6,6.2,0.4,7.9,3.2C940.5,718.3,941.7,721.9,941.2,725.8z M1009.8,696.3c0,0-0.3,0.3-0.3,0.6
			c-5.1-5.5-6.1-12.2-4.8-19.2c0.3-1.4,0.8-2.8,1-4.2c0.3-0.6,0.8-1.4,1.1-1.4c0.6,0.3,1.1,0.5,1.4,0.8c0.6,1.7,1.5,3.3,1.8,5
			C1010.1,683.9,1009.9,690.1,1009.8,696.3z M1045.7,853.7c-1.3,6.5-7.4,10.5-13.2,9.8c-4.2-0.8-7.1-3.5-9.1-7.1
			c-2.9-5-3.8-10.3-3.4-15.9c0.6-15.1,6.2-28.7,15.8-40.3c0-0.3,0.3-0.3,0.5-0.6c1.5,4.5,3,8.6,4.4,13.1c3,9.5,5.4,18.9,5.9,28.7
			C1047,845.6,1046.8,849.8,1045.7,853.7z"/>
		<path class="st0" d="M822.8,739c0.4-2,0.8-4,1.1-6c0.1-0.3,0.1-0.6,0.2-0.9c-0.8,2.5-1.7,5-2.5,7.5
			C822,739.4,822.4,739.2,822.8,739z"/>
	</g>
	<g>
		<path class="st0" d="M869.4,491.3c-0.4-6-1.6-11.6-2.3-17.9c0.4-1.4,0.4-2.8,0.4-4.6c2.3-1.4,4.3-3.2,6.3-4.9
			c21.5-16.8,32.1-24.9,42.3-32.6c3.5-2.5,3.1-9.5-2.3-5.3c-4.3,2.1-38.7,27.7-43.4,31.5c-0.8,0.7-2,1.8-3.5,1.1
			c0-0.4-0.4-1.1-0.8-1.4c-1.6-10.9-1.2-21.7-2.3-32.6l-1.2-17.5c-0.4-2.1-1.6-4.2-2.7-6.3c-2.3-3.2-6.7-4.6-10.6-3.5
			c-4.3,0.7-7,3.2-7.4,7.4c-0.8,3.2-0.8,6.7-0.4,9.8c0.4,7-0.8,13.7-2.7,20c-0.8,1.8-1.2,3.5-1.6,5.3c-2.3,10.5-7,20-11.7,29.8
			l-1.2,2.1c-2.7,2.5-5.1,5.3-9,6.3c-3.5-2.1-3.1-5.6-3.5-8.4c-2.3-11.9-2-24.2-0.4-35.7c1.2-6,0.4-11.9-0.4-18.2
			c-0.4-1.8-1.6-3.9-2.7-5.6c-1.6-2.5-3.9-3.2-7-3.2c-3.9,0.4-6.7,1.8-8.2,4.9c-1.6,2.8-2.3,6-2.7,9.5c-0.4,3.2,0,6.7-0.8,9.8
			c-0.3,2.3-0.6,4.6-0.9,6.8c-33.6,94.6-48.1,133.6-70.6,136c-0.5-1.2-0.9-2.4-1.8-3.6c-0.9-8.5-1.4-17-0.5-25.5
			c1.4-20.7,5.9-41,13.1-60.4c2.3-7.3,4.5-15.4,6.8-21.9c1.8-5.7,2.7-11.4,2.3-16.6v-0.4v-0.4c-1.4-9.3-9.1-13-16.3-12.2
			c-1.8,0-4.1,0.4-5.9,0.4c-8.6,0.4-17.2-0.8-25.8-2.8c0-2.4-0.5-4.5,0-6.5c1.4-7.7,1.8-15.8-0.9-23.9c-1.4-4.1-3.2-8.1-6.3-10.9
			c-4.1-3.6-9.1-5.3-14.5-4.5c-14.5,2.4-24,17.8-19,30.8c4,11.1,15.3,18.7,29.3,22.9c-33.5,94.3-48,133.2-70.5,135.6
			c-0.5-1.2-0.9-2.4-1.8-3.6c-0.9-8.5-1.4-17-0.5-25.5c1.4-20.7,5.9-41,13.1-60.4c2.3-7.3,4.5-15.4,6.8-21.9
			c1.8-5.7,2.7-11.4,2.3-16.6v-0.4v-0.4c-1.4-9.3-9.1-13-16.3-12.2c-1.8,0-4.1,0.4-5.9,0.4c-8.6,0.4-17.2-0.8-25.8-2.8
			c0-2.4-0.5-4.5,0-6.5c1.4-7.7,1.8-15.8-0.9-23.9c-1.4-4.1-3.2-8.1-6.3-10.9c-4.1-3.6-9.1-5.3-14.5-4.5c-14.5,2.4-24,17.8-19,30.8
			c3.9,11,15,18.5,28.7,22.8c-7.3,11.9-12.1,20.7-20.1,33.6c-6.3,10.5-11.8,21.5-20.4,30.4c-5.4,6.5-12.7,10.9-20.9,14.2
			c-2.3,1.2-5,1.6-7.7,2c-4.1,0.4-7.7-1.2-10-4.5c-3.6-5.7-6.3-11.8-6.8-18.2c-0.5-3.2-0.5-6.5-0.9-9.7c-2.3-8.5,0.9-17,2.3-25.1
			c0-0.4,0.5-1.2,1.4-1.6c2.3-0.8,5.4-1.6,8.2-2.4c16.3-6.1,27.2-16.2,29.9-32.4c1.4-6.9-0.5-13.4-4.1-19.5
			c-4.1-7.3-13.1-10.9-22.7-6.9c-2.7,1.2-5.9,2.8-8.2,4.5c-6.8,5.3-12.7,10.9-17.2,18.2c-5.9,10.1-9.5,20.7-12.2,31.6
			c-2,7.5-3.8,15.3-4.2,23.1c-12.3,56.3-31.5,127-50.4,130.5c-3.2-3.2-4.5-6.5-5.4-9.7c-2.7-8.5-3.2-17-3.6-25.5
			c-0.5-7.3,0.5-14.6,0.9-21.9c1.4-10.1,2.3-20.3,4.5-30.4c2.7-16.2,5-32,8.6-47.8c5-21.9,10.9-43,16.3-64.5
			c5-19.5,11.8-38.9,13.6-58.8c0.9-6.9,0-13.4-1.8-19.9c-0.5-2.4-1.4-4.9-2.7-6.9c-5.4-8.9-17.7-16.6-32.6-10.1
			c-2.3,0.8-4.5,1.6-6.8,3.2c-11.8,6.9-22.2,15-30.8,24.7c-13.1,14.2-23.6,29.6-33.1,45.8c-11.3,19.9-20.4,41-26.7,62.4
			c0-4.9-0.5-9.3-1.4-14.2c-1.4-8.1-3.2-16.2-7.3-23.9c-5-8.5-11.8-14.6-23.1-15.8c-10.4,0.8-16.8,5.7-21.3,12.6
			c-2.3,3.6-5,7.7-6.8,11.8c-5.9,14.2-10.4,29.2-13.1,44.2c-1.8,9.7-3.6,19.1-5.4,28.8l-0.9,4.5c-0.5-6.9-0.9-14.2-2.3-21.1
			c-1.8-11.4-4.5-22.3-6.8-33.7c-4.1-16.6-9.1-33.3-16.3-49.1c-3.6-7.7-8.2-14.6-13.6-21.5c-2.7-3.2-6.3-5.3-10.4-6.5
			c-3.2-0.8-6.3-0.4-9.1,1.6c-4.5,3.2-5.9,7.7-3.6,13c1.4,3.2,3.2,6.5,5.4,9.3c5.4,9.7,10.4,19.5,13.6,30
			c3.6,10.9,6.8,21.9,9.5,32.4c2.3,10.1,4.1,20.3,5.9,30.4c1.4,9.3,2.3,18.2,2.3,27.6c0.5,8.1,5.9,13.4,12.2,18.2
			c4.1,2.8,9.5,4.1,15.4-3.6l0.9-0.8c0-0.4,0-0.4,0-0.4c0.9-1.6,1.4-3.2,1.8-4.9c0.5-4.9,1.8-9.7,2.7-15c2.3-12.2,4.5-24.7,7.3-37.3
			c2.7-14.6,7.3-28.4,13.6-42.2c2.3-4.9,5.9-9.3,10.4-12.6l4.1-2c5,3.2,5.9,7.7,6.8,11.8c1.4,6.9,1.8,13.4,2.3,20.3
			c0.5,8.5,0.5,17,0.5,25.5c0,6.1-0.5,11.8-0.5,17.8c0,2.8,0.9,5.3,2.3,7.7c3.6,5.7,15.4,8.5,21.3,0.4c1.8-2.4,2.7-5.3,2.7-8.1
			l9.5-30.4c9.1-28.8,21.8-56.4,39.9-81.5c8.6-12.6,18.6-24.3,30.8-34.5c5.9-4.9,12.7-8.9,20.4-12.6c2.7-1.2,5.9-2,9.5,0.4
			c0,1.2,0.9,2.4,0.9,3.6c0,6.5,0,12.6-0.9,18.7c-2.7,15-6.3,29.6-10.4,44.2c-5.9,21.1-11.8,42.6-16.8,64.1
			c-3.6,14.6-6.8,28.8-9.5,43.4c-1.8,9.7-3.2,19.9-4.5,29.6c-0.9,7.3-2.7,14.6-3.2,21.9c-0.5,11.4-0.5,22.7,0,33.7
			c0.5,6.5,2.3,13,3.6,19.1c1.8,6.9,5.4,12.6,10.9,17.4c7.3,6.1,17.2,7.3,25.4,2.4c19.5-9,38.1-70.5,49.5-119.7
			c3.1,7.5,8.2,14.3,15.5,20.1c10,7.7,20.4,9.7,32.2,4.9c1.8-1.2,4.1-1.6,5.9-2.8c7.3-5.7,15.4-10.5,21.3-17.4
			c7.3-8.1,13.6-17,19-26.8c6-11.4,15.5-27.5,22.3-39.5c9.9,2.2,20.6,2.9,30.7,2.2c-8.2,14.6-22.2,66.1-25.8,90.4
			c-0.9,15,0,28.4,5.4,42.2c0.9,2.4,1.8,4.5,3.2,6.9c37,52.4,80.7-75.3,98.5-141.3c9.3,1.9,19.4,2.5,28.8,1.8
			c-8.2,14.6-22.2,66.1-25.8,90.4c-0.9,15,0,28.4,5.4,42.2c0.9,2.4,1.8,4.5,3.2,6.9c32.3,45.9,69.8-46,90.6-114c0.1,1,0.3,2,0.4,3
			c0.4,5.3,2,10.5,5.5,15.1c4.7,7,14.9,8.4,21.1,3.5c6.3-4.9,11.3-9.1,14.5-15.8c2.3-4.9,4.7-9.8,7.4-15.1l3.9-10.2
			c2,6,2.3,10.9,2.3,16.1c0,4.9,2,9.8,0.8,15.4c-9,8.4-18,17.2-27,25.9c-9.8,9.1-18.8,18.6-26.6,28.7c-11,14.7-20.7,29.8-30.1,45.5
			c-3.9,7.4-7,15.4-9.4,23.5c-2.3,6.3-3.9,12.3-4.7,18.6c-1.2,8.4-1.2,16.8-0.8,25.2c0.8,8.4,3.1,17.2,8.6,24.5
			c3.9,4.6,9.4,7.7,15.7,8.4c7.8,1.4,15.3,1.4,22.7-0.7c5.9-2.1,11.3-4.6,16.4-7.7c18.8-11.2,32.1-26.3,41.5-45.2
			c11.3-23.5,17.2-48.3,19.2-74.2c0.8-13,1.2-25.9,0.8-38.9C870.9,506,870.1,498.6,869.4,491.3z M491.9,432
			c3.6-7.7,5.4-16.2,14.1-21.9c5,2,5.9,5.7,6.3,8.9c1.8,10.5-2.3,19.1-11.8,25.5c-1.8,0.8-3.6,2-5.9,3.2c-2.3,1.2-5,2-7.7,3.2
			C486,447.4,486.9,442.1,491.9,432z M572.1,423.4c-0.5,1.6-0.5,2.8-1.4,4.5c-5.9-0.4-10.4-3.2-15-6.5c-4.1-2.8-6.8-6.9-8.2-10.9
			c-0.9-5.7,0.9-10.1,5-14.2c3.2-3.2,7.7-4.1,12.7-2.8c5.9,4.9,6.8,12.2,7.3,19.1C573.5,416.1,572.6,419.8,572.1,423.4z
			 M682.3,423.4c-0.5,1.6-0.5,2.8-1.4,4.5c-5.9-0.4-10.4-3.2-15-6.5c-4.1-2.8-6.8-6.9-8.2-10.9c-0.9-5.7,0.9-10.1,5-14.2
			c3.2-3.2,7.7-4.1,12.7-2.8c5.9,4.9,6.8,12.2,7.3,19.1C683.6,416.1,682.7,419.8,682.3,423.4z M847.4,545.2
			c-1.2,18.2-3.5,36.4-9.8,54.3c-5.1,14-11.7,28-21.5,40.3c-5.9,6.7-12.1,12.6-19.2,18.6c-3.5,2.8-7.4,4.9-12.1,7
			c-5.9,2.1-11.7,3.5-18.4,2.1c-7.4-4.6-9.8-11.2-11.4-17.9c-1.6-4.9-1.6-10.2-2-15.1c-0.4-10.2,2.3-19.6,4.7-29.4
			c5.1-15.4,12.5-29.4,22.3-42.7l11.7-17.9c7.8-10.9,16.8-20.7,26.6-30.5c7.4-7.4,15.3-14.4,23.1-21.4c0.8-1.1,2.3-2.1,3.5-3.2
			c2,2.5,2,5.3,2.3,7.7C848.6,513,848.2,529.1,847.4,545.2z"/>
		<path class="st0" d="M506.8,693.8c9.8-0.2,16.9-7.6,16.7-17.1c-0.2-9.5-7.6-16.9-17.1-16.7c-9.5,0.2-16.9,7.9-16.7,17.4
			C489.9,686.6,497.6,694,506.8,693.8z"/>
		<path class="st0" d="M1061.3,770.1c-2-3.3-3.8-6.6-5.5-10c-10.7-18.8-23-36.2-37-52.7c-0.9-0.8-1.4-1.9-1.5-3
			c0.4-5.9,1.5-11.5,1.6-17.4c0.4-6.2,0.3-12.6-2-18.7c-3.2-8-11.4-10.1-18-5c-3.9,2.9-6,6.5-7.1,11c-2.4,8.2-1.7,16.2,0.2,24.3
			c2.4,10.6,6.5,20.6,11.5,30.3c0.6,0.5,0.9,1.7,0.6,2.5c-1,5.6-2,11.2-3.3,16.6c-0.8,3.9-1.8,7.6-2.6,11.5c0.1,0,0.3,0.1,0.4,0.1
			c0,0.1-0.1,0.3-0.1,0.4c-3.7,11.5-7.4,23.3-11.4,34.9c-1.3,3.4-3.8,6.5-6,9.3c-1.9,2.3-4.4,1.8-5.6-0.7c-0.9-2.5-2-5-2.1-7.8
			c-0.7-7.5-1.1-14.8-1-22.3c0.5-16.2,1.4-32.2,1.9-48.4c0.2-4.8,0.7-9.2,0.6-14c0.1-7.3-4.1-12.2-11.2-14c-1.4-0.3-3.1-0.2-4.8-0.5
			c-3.1-0.5-5,0.9-6.4,3.2c-0.5,1.1-1.1,2.3-1.6,3.4c-1.3,3.7-2.7,7.6-3.7,11.3c-2.6-2.5-4.9-5.8-8-8.2c-7.9-6.3-17.5-6.4-26.7-5.1
			c-12.3,1.6-21.4,8.5-27.9,18.7c-10.3,15.8-14.2,33.3-12.4,51.9c1.5,19.5,16.1,36.3,35.1,40.2c14,2.8,19-0.4,24.7-11.1
			c3.2-5.9,5.4-12.4,7.8-18.9c1.6-5.1,2.9-10.4,4.2-16c0.3,1.4,0.3,2.2,0.6,3.1c1.8,7.2,3.3,14.5,5.4,21.4
			c3.8,11.1,11.5,18.2,23,20.8c6.7,1.6,12-0.2,16.4-5.3c4.7-5.4,8.2-11.9,10.3-18.9c3.2-9.3,5.5-19.1,7.9-28.7
			c1.4-4.6,2.3-9.5,3.4-14.5c7.3,14.3,14.7,28.6,21.7,42.9c0.3,0.3,0,1.4-0.2,2c-2.7,3.7-5.5,7.4-7.9,11.1
			c-7.6,11.9-14.1,24.3-15.2,38.6c-1.6,16.8,4.5,30.7,18.4,40.2c7.4,5.2,15.5,7.3,24.4,5.7c10.9-2.2,17.4-9.6,21.4-19.4
			c6.4-16.1,6.1-32.5,3-49.3c-2.5-12.8-5.5-25.1-11.3-37c13-6.1,26.7-8,41.2-7.5c0.2-2.5,0.2-5,0.4-7.6
			C1091,761.2,1076,764,1061.3,770.1z M941.1,725.4c-3.3,19.6-7.1,39.3-14.6,57.9c-2.4,5.9-5.4,11.6-10,16.4
			c-2.7,2.8-3.3,2.9-5.6-0.5c-3.5-5.2-5.2-10.8-6.5-16.9c-0.9-4.7-1.6-9.8-2.2-14.8c0.2-18.2,5.8-34.2,16.7-48.7
			c3-3.7,6.6-6.6,11.3-7.2c3.3-0.6,6.2,0.4,7.9,3.2C940.4,717.9,941.6,721.5,941.1,725.4z M1009.6,695.9c0,0-0.3,0.3-0.3,0.6
			c-5.1-5.5-6.1-12.2-4.8-19.2c0.3-1.4,0.8-2.8,1-4.2c0.3-0.6,0.8-1.4,1.1-1.4c0.6,0.3,1.1,0.5,1.4,0.8c0.6,1.7,1.5,3.3,1.8,5
			C1009.9,683.6,1009.8,689.7,1009.6,695.9z M1045.5,853.2c-1.3,6.5-7.4,10.5-13.2,9.8c-4.2-0.8-7.1-3.5-9.1-7.1
			c-2.9-5-3.8-10.3-3.4-15.9c0.6-15.1,6.2-28.6,15.7-40.3c0-0.3,0.3-0.3,0.5-0.6c1.5,4.4,3,8.6,4.4,13.1c3,9.4,5.4,18.9,5.8,28.7
			C1046.8,845,1046.6,849.2,1045.5,853.2z"/>
		<path class="st0" d="M756,624.8c-0.4,3.1-0.6,6.3-0.5,9.5c0.1,1,0.1,2,0.2,3.1c0.1,1.2,0.2,2.5,0.3,3.7c0.1,0,0.2,0.1,0.3,0.1
			c7.5,4,13.9,9.3,19,15.8c0,0,0,0,0,0c9,9.1,14.5-0.6,11-7C778.9,638.2,768.6,630.1,756,624.8z"/>
		<path class="st0" d="M834.5,693.6c-7.5,1-13,5.6-17.1,11.8c-3.3,5.1-6.2,10.5-9.2,15.8c-1.4,2.5-2.7,5.4-4,7.9
			c-0.6-0.8-0.3-1.4-0.6-2.2c-0.1-4.2-0.4-8.4-1.1-12.6c-0.7-5.3-2.4-10-6.1-13.9c-6.3-6.6-18.9-8.3-27.7-4
			c-5.5,2.9-9.6,7.4-12.6,12.8c-5.1,9.6-10.3,19.5-15.1,29.1c-0.8,1.4-1.4,2.5-2.2,4.5c-0.3-1.4-0.6-1.9-0.6-2.8
			c-0.9-5-1.6-10.3-2.8-15.3c-4.2-15-15.2-19.6-29.1-15.9c0,0.8,0,2,0.1,3.1c-0.8,13.2-1.3,26.5-2.1,39.7c-1,3.4-2.1,6.8-3.1,10.2
			c-4,11.8-8.2,23.6-15,34.1c-2.7,4-5.7,7.7-9.6,10.5c-5,4-10,2.4-12.6-3.4c-0.9-2.2-1.5-4.7-1.8-7.2c-0.7-24.9-0.4-50,1.7-75.2
			c1.1-14.8,2.2-30,3.9-44.8c1.2-11.5,3.2-23,4.7-34.5c0.4-3.4,0.9-6.7,1.4-10c7.8-0.5,15.5-0.9,23.3-1.4
			c15.8-0.6,31.3,0.3,46.1,5.5c0.1-5,0.4-9.5,1-13.9c0-0.3,0.1-0.5,0.1-0.8c-13.7-3.9-27.8-5.6-41.9-5.6c-8.7,0.1-17.4,0.2-26.1,0.4
			l0.4-2.8c0-0.3-0.1-0.5,0.1-0.6c1.8-10.4,3.2-21,5.6-31.1c1.3-5.6,0.4-10.1-3.3-13.9c-3.7-4.7-7.4-9.4-11.7-13.5
			c-2.8-2.7-5.1-1.9-6.1,1.8c-2.4,7-4.8,14.3-6.6,21.4c-2.8,10.8-5.3,21.7-7.8,32.8c-0.1,0.4-0.6,3-1.2,6.4
			c-15.7,1.3-31.6,3.1-47.3,3.5c-24.9,0.7-49-2.6-71.7-13.2c-20.4-9.2-36.5-22.9-46.7-42.3c0,0,0,0,0,0c-4.4-7.5-14.1-2.3-11,5.4
			c0.7,1.6,1.5,3.2,2.3,4.8c4.1,7.4,7.7,14.6,13.2,21.2c12.1,13.4,27.2,21.9,44.1,27.6c18.3,6.5,37.2,9.1,56.5,10.2
			c19.4,1.3,38.7,0.7,58-1.2c0,0,0,0,0,0.1c-3.1,23-6.4,45.9-9.5,68.6c-3.2,23.7-4.2,47.4-2.6,71.1c-8.6,1-17,3.4-25.3,6.9
			c-2-3.3-3.8-6.6-5.5-10c-10.7-18.8-23-36.2-37-52.7c-0.9-0.8-1.4-1.9-1.5-3c0.4-5.9,1.5-11.5,1.6-17.4c0.4-6.2,0.3-12.6-2-18.7
			c-3.2-8-11.4-10.1-18-5c-3.9,2.9-6,6.5-7.1,11c-2.4,8.2-1.7,16.2,0.2,24.3c2.4,10.6,6.5,20.6,11.5,30.3c0.6,0.5,0.9,1.7,0.6,2.5
			c-1,5.6-2,11.2-3.3,16.6c-0.6,3.3-1.5,6.4-2.2,9.6c-2.5,8.3-5,16.7-7.6,25c-2.1,6.5-4.2,12.9-8,18.9c-1.1,1.7-2.5,3.1-3.8,4.5
			c-1.4,1.4-3.1,0.9-4.2-0.5c-0.6-1.4-1.4-2.8-1.8-4.4c-1.5-5.6-1.9-11.1-1.7-17c-0.2-10.3-0.1-20.7,0.3-31
			c0.4-10.3,1-20.7,1.7-31.1c0.2-3.9,0.4-7.6,0.3-11.5c-0.1-3.4-1.5-6.7-4.4-9.1c-3.4-3-7.6-3.8-12.1-4c-2.5-0.2-4.2,0.9-5.3,2.9
			c-1.4,2.5-2.4,5.1-3.2,7.6c-3.7,11.5-5.4,23.6-5.8,35.6c0,1.4-0.1,2.8-0.1,4.2c-0.9,3.2-1.8,6.2-2.6,9.2
			c-4.7,15.5-9.8,30.9-17.3,45.3c-2.7,5.1-5.7,10.2-9.8,14.2c-7.1,6.6-14.2,5-16.6-4.4c-1.2-5.3-1.9-10.9-2-16.2
			c-0.3-16.2,2.2-31.9,5-47.6c1.3-6.2,2.8-12.1,2.5-18.5c-0.8-14.2-11.9-23.8-26.1-22.4c-3.1,0.3-6.2-0.2-8.7-0.1
			c0.4-11.2,1-21.5,0.8-31.9c0.1-7.6-1.1-14.8-3.8-21.7c-2.9-7.2-12.2-10.7-18.3-9.2c-7.2,2.1-11.6,6.9-14.6,13.4
			c-9.4,19.2-4.8,44.3,18.1,56.7c2.5,1.4,5.1,2.4,7.9,3.8c-2.6,10.4-5,21-7.6,31.6c-1.6,5.8-3.2,11.7-5,17.3
			c-4.5,13.8-9.3,27.3-16.3,40c-2.7,4.8-5.7,9.1-10.1,12.5c-5.8,4.3-11.1,2.7-14-3.7c-2.6-5.8-3.6-12.2-2.9-18.4
			c1.4-12.9,3.7-26.1,5.7-39c2.5-14.9,5-29.7,4.5-45.1c-0.4-7-1.1-13.7-4.3-20c-3.5-6.9-9.1-10.7-17-10.6c-4.2-0.2-8.4,0.4-12.3,1.3
			c-6.7,1.2-11.4,5.2-15.5,10.1c-5.2,6.5-10.1,13.3-15.3,19.9c-1.1,1.4-2.2,2.8-3.3,4.3c-0.6-1.1-0.6-1.9-0.6-3.1
			c1.2-8.7,3.9-16.8,7.1-25c4-9.6,8.3-18.9,12-28.5c5.9-14.9,10.9-30.4,12-46.6c1.2-13.2-3.3-24.5-11.3-34.5c-4-5-9.3-6.5-14.9-4.2
			c-8.9,3.8-16.9,9-21.2,18.3c-1.9,4.2-4,8.5-5.6,12.7c-11.1,29.2-15.9,59.6-17.6,90.2c-4.9,29.2-15.8,55.8-34.3,79
			c-10.7,13.3-23.6,24.5-40,30.4c-20.5,7.4-40.1,5.8-57.5-8.4c-11.1-9-18-20.9-23-34c-7.7-20.8-10.3-42.3-9.9-64.4
			c0.4-24.9,4.7-49.3,13.2-72.6c6.6-18.6,15.8-35.5,31-48.7c17-15.1,36.2-23.3,59.4-21.5c6.2,0.7,12.6,2,17.5,6.4
			c12,11.2,18.1,25.9,16.2,41.6c-3.2,25.8-16.7,46.2-39.1,60c-8,5.2-16.9,8.1-26.4,7.8c-17.1-0.5-27.3-11.5-26.5-28.6
			c-0.1-3.1-1-6.1-1.6-9.2c-0.6,0-0.8,0-1.4,0c-1.4,2.5-3.3,4.8-3.8,7.6c-3.6,14.3,4.5,30.9,17.5,37.4c10.7,5.4,21.9,6.3,33.3,4.1
			c28.1-4.7,48.5-20.2,61.8-45.3c7.6-14.4,10.9-29.3,7.5-45.7c-5.9-29.8-30.2-46.4-54.3-49c-23.5-2.6-45.8,3.1-66,15.2
			c-24.3,14.4-41,36-52.5,61.4c-15.3,33.6-20.2,68.9-15.6,105.4c2.3,18.7,7.9,36.2,17.5,52.5c20.8,35.4,55.7,48.4,92.5,42.4
			c22.3-3.8,40-15,54.5-31.8c13.5-15.6,23.4-32.9,29.9-51.8c0.2,7.3,0.6,14.5,1.2,21.8c0.7,10,1.5,20.4,2.5,30.4
			c1,7.2,3.3,14.2,7.6,20.3c2.9,3.9,6.3,7.1,11,7.3c6.7,0.4,12.8-1.1,18.6-4.3c0.8-0.3,1.4-1.1,1.6-1.7c1.1-3.4,2.1-6.5,1.5-10.1
			c-1-11.2-2.6-22-2.6-33.2c0.3-12.6,1.5-24.9,5.7-36.7c5-14.4,13.8-25.7,27.6-32.4c2.5-1.2,4.5-0.6,5.1,2.1c0.6,2.5,0.9,5,0.7,7.5
			c-1.3,6.2-2.6,12.3-4.1,18.8c-3.9,16.3-6.4,33.1-7.7,49.9c-0.7,7.8-1.1,15.7-0.1,23.8c1.3,7.2,3.1,14.5,7.4,20.8
			c6.9,10.8,21.5,15.3,33.5,10.6c7.5-2.9,13-8.4,17.9-14.9c6.8-9.1,11.4-19.5,15.4-30.2c4.3-12,7.5-24.2,10-36.6
			c3.1-10,5.7-20.2,7.5-30.5c0.5-2.5,2.5-3.4,4.4-1.5c1.1,0.8,1.7,2.2,2,3.3c0,2,0.1,3.9-0.2,5.9c-1.5,8.7-3,17.1-4.5,25.8
			c-1,5.1-2.9,10.4-3.3,15.7c-0.4,5.9-0.3,12.3,0.1,18.4c0.5,9.5,2,18.7,6.1,27.3c8.7,18.3,32.9,22.9,47.1,9.7
			c5.2-4.8,9.6-10,12.8-15.9c7.3-12.4,12.2-25.5,15.9-39c1,6.2,2.5,12.4,4.6,18.4c1.5,3.9,2.7,7.8,4.7,11.1
			c3.7,6.1,9.7,9.3,16.7,11.4c2.8,0.8,5.9,1.6,9.2,0.7c4.2-0.9,7.2-3.5,9.7-6.6c4.6-6.2,7.9-13,10.2-20.3
			c4.2-12.7,7.1-25.8,9.9-38.8c0.2-1.5,0.5-2.8,0.9-4.1c7.5,14.6,15.1,29.3,22.3,43.9c0.3,0.3,0,1.4-0.2,2
			c-2.7,3.7-5.5,7.4-7.9,11.1c-7.6,11.9-14.1,24.3-15.2,38.6c-1.6,16.8,4.5,30.7,18.4,40.2c7.4,5.2,15.5,7.3,24.4,5.7
			c10.9-2.2,17.4-9.6,21.4-19.4c6.4-16.1,6.1-32.5,3-49.3c-2.5-12.8-5.5-25.1-11.3-37c7.1-3.3,14.4-5.4,21.9-6.5
			c0.8,8.3,2.1,16.4,5.6,24.2c6.7,15.8,25,21.6,39.7,13c7.5-4.3,12.9-10.9,17.3-18.2c3.7-6.1,6.8-12.4,9.5-18.9
			c0.5,6.6,1.4,13.1,3.1,19.5c2.1,7.8,7,13.3,14.3,16.8c5.1,2.1,9,0.9,11.7-4.1c1.1-1.4,1.6-3.4,2.1-5.1c6.6-22.5,13.4-45,20-67.2
			c2.9-9.6,6.4-18.6,12.4-26.5c1.6-2,3.3-2.6,5-2.1c2,0.8,2.8,2.7,2.6,5.3c-0.2,1.7-0.5,3.4-1,5.3c-3.6,18.2-5.5,36.4-4.6,55.2
			c0.5,11.5,2.1,22.9,6.2,33.7c0.3,0.8,0.6,1.9,1.2,2.2c2.3,1.1,4.2,2.2,6.5,3c2.8,0.8,5.9-0.1,7.5-2.7c1.6-2.3,3-4.8,3.8-7.3
			c4.7-15.5,8.9-30.9,13.7-46.1c3.1-11,6.6-21.9,10.3-32.6c1.9-5.6,5.1-10.7,8.9-15.3c1.1-1.4,2.5-2.6,4.4-1.8
			c2,0.8,2.6,2.5,2.6,4.7c0,0.3,0,0.6,0,0.8c-0.5,2.8-1,5.9-1.5,9c-2.5,13.7-5.4,27.2-7.1,40.9c-2.4,19.1-0.7,37.8,4.7,56.1
			c3.3,10.3,9.3,18.8,18.4,24.8c0.8,0.5,1.7,0.8,2.3,0.8c3.3-0.6,6.1-2.4,6.9-6c1-4.2,1.8-8.4,2.6-12.6c0-1.1,0.2-2.5-0.1-3.6
			c-2.4-7.2-3.9-15-4.1-22.8c-0.1-7.3,0.3-14.8,0.7-22.4c0.9-12.9,1.8-25.5,4.3-37.8c2.1-9.8,3-19.6,1.1-29.4
			C859.8,699.8,851.8,691.6,834.5,693.6z M286.9,692.1c-0.4-6.7-0.8-13.1-1.2-19.5c-0.5-12.8-0.5-26,0.7-39.1
			c1.2-11.5,2.6-23,7.8-33.4c1.4-2.5,3-4.8,4.3-7.1c1.1-1.4,2.2-1.4,3.1-0.1c1.7,2.2,3.7,4.7,4.6,7.5c2.7,7.8,2.8,15.9,1.8,24
			c-2.1,22.7-9.8,43.5-18.9,64.1c-0.5,1.1-1.1,2.3-1.6,3.4C287.4,691.8,287.4,691.8,286.9,692.1z M405.3,700.7
			c0.1,4.2-0.4,8.1-0.9,12.6c-3.9-1.6-6.5-4.1-8.5-6.8c-4.6-6.6-5.9-14.4-5.7-22.3c0.2-4.5,1.2-9,2-13.2c0.3-0.8,0.5-1.7,0.8-2.5
			c1.1-2,1.6-4.5,4.1-4.6c2.5,0.2,3.7,2.4,4.3,4.7c1.2,5.3,2.4,10.6,3.1,15.9C405.1,689.9,405.5,695.4,405.3,700.7z M553.8,704.4
			c0,0-0.3,0.3-0.3,0.6c-5.1-5.5-6.1-12.2-4.8-19.2c0.3-1.4,0.8-2.8,1-4.2c0.3-0.6,0.8-1.4,1.1-1.4c0.6,0.3,1.1,0.5,1.4,0.8
			c0.6,1.7,1.5,3.3,1.8,5C554.1,692.1,554,698.3,553.8,704.4z M554.3,750.7c0-0.1,0-0.1,0.1-0.2c0,0.1,0,0.1,0.1,0.2
			C554.4,750.7,554.4,750.7,554.3,750.7z M589.7,861.7c-1.3,6.5-7.4,10.5-13.2,9.8c-4.2-0.8-7.1-3.5-9.1-7.1
			c-2.9-5-3.8-10.3-3.4-15.9c0.6-15.1,6.2-28.6,15.7-40.3c0-0.3,0.3-0.3,0.5-0.6c1.5,4.4,3,8.6,4.4,13.1c3,9.4,5.4,18.9,5.8,28.7
			C591,853.5,590.8,857.7,589.7,861.7z"/>
	</g>
</g>
</svg>
