<?xml version="1.0" encoding="utf-8"?>
<!-- Generator: Adobe Illustrator 23.0.3, SVG Export Plug-In . SVG Version: 6.00 Build 0)  -->
<svg version="1.1" id="Layer_1" xmlns="http://www.w3.org/2000/svg" xmlns:xlink="http://www.w3.org/1999/xlink" x="0px" y="0px"
	 viewBox="0 0 1133.9 1133.9" style="enable-background:new 0 0 1133.9 1133.9;" xml:space="preserve">
<style type="text/css">
	.st0{fill:#1E2121;}
	.st1{fill:#A81F26;}
	.st2{fill:#F2F1F2;}
	.st3{fill:#DD353A;}
	.st4{fill:#CFCFCE;}
	.st5{fill:#1D2121;}
	.st6{fill:none;}
	.st7{fill:#AA1F23;}
	.st8{fill:#FDFEFE;}
	.st9{fill:#EE742C;}
	.st10{fill:#BA5234;}
	.st11{fill:#ED1C24;}
	.st12{fill:#C42C3A;}
	.st13{fill:#058743;}
	.st14{fill:#0F4D70;}
	.st15{fill-rule:evenodd;clip-rule:evenodd;fill:#C42C3A;}
	.st16{fill-rule:evenodd;clip-rule:evenodd;fill:#1E2121;}
	.st17{fill:#E8E8E8;}
	.st18{fill:#186634;}
	.st19{fill:#BF2730;}
	.st20{fill:#B47A48;}
	.st21{fill:#3E1E14;}
	.st22{fill:#DBAD5D;}
	.st23{fill:#B84947;}
	.st24{fill:#C3976E;}
	.st25{fill:#9D2023;}
	.st26{fill:#3C2517;}
	.st27{fill:#4A3A31;}
	.st28{fill:#EDAD4F;}
	.st29{fill:#F8C018;}
</style>
<g>
	<path class="st0" d="M851.5,795.7l-0.1-0.1c-1.2-0.7-2.5-1.1-3.9-1.1c-2.5,0-4.8,1.2-6.4,3.5l-0.1,0.1l-0.1,0.1
		c-5.3,8.8-12.3,16.3-20.7,22.4c-8.7,6.3-18.4,11.8-28.9,16.3c-10.6,4.6-21.3,8.9-31.9,12.8c-3.1-3.2-6.3-6.4-9.5-9.5
		c-4.5-4.4-8.9-8.8-12.8-13.3c-3.8-4.3-6.9-8.8-9.3-13.6c-2.2-4.4-3.4-9.5-3.4-15c0-5.3,1.5-9.8,4.6-13.8c2.9-3.7,6.7-5.4,12-5.4
		c2.9,0,5.1,0.7,6.8,2.1c1.8,1.5,3,3.3,3.7,5.7c0.4,1.5,0.6,3.1,0.6,4.7c0,0.8-0.1,1.7-0.2,2.5c-0.2,1.3-0.3,2.2-0.3,2.9
		c0,2.1,0.7,3.9,2.1,5.2c1,1,2.7,2.1,5.4,2.1c3.9,0,6.9-2.4,7.6-6.2l0-0.2c0.3-2.2,0.5-4.3,0.5-6.4c0-8.6-3-15.8-8.9-21.4l-0.1-0.1
		l-0.1-0.1c-7.4-6.1-15.2-9.2-23.2-9.2c-12,0-21.7,4-29,12c-6.6,7.3-10.3,16.3-10.8,26.8c-2,3.6-4.5,8.3-7.3,13.8
		c-3.5,6.9-7.5,14.4-11.9,22.3c-4.4,7.9-9.1,15.5-14.1,22.7c-4.9,7-9.9,12.8-14.9,17.4c-4.3,3.9-8.5,5.9-12.5,5.9
		c-2.5,0-4.4-0.8-6.1-2.6c-2.2-2.3-4-5.5-5.6-9.5c-1.6-4.3-3-9.3-3.9-14.7c-1.4-8.5-2.4-17.4-2.8-26.5c-0.4-9.2-0.6-17.3-0.6-24
		c0-6.1-2.9-9.4-5.5-11.2c0.1-0.4,0.1-0.7,0.1-1.1c0-1.1-0.2-2.1-0.7-3.1c-1.5-3.6-3.5-6.6-5.9-9l-0.1-0.1
		c-5.1-4.9-11.4-7.3-18.7-7.3l-0.9,0c-10.8,0.2-19.8,3.4-26.8,9.4c-5.1,4.4-9.2,9.8-12.3,16c0,0.1-0.1,0.1-0.1,0.2l-0.1,0.2
		c-3.8,6.8-9.1,18.6-16.2,36c-4.7,11-9.9,23-15.4,35.5c-5.5,12.4-11.2,24.3-17,35.2c-5.7,10.8-11.3,19.9-16.7,26.8
		c-6,7.8-9.7,8.9-11.3,8.9c-1.6,0-2.6-3.6-2.9-5.1c-1.4-6.6-2.1-15.5-2.1-26.5c0.1-7.8,0.3-16.3,0.7-25.2
		c0.5-10.5,0.7-22.5,0.7-35.5c-0.1-11.6-1.2-21.4-3.4-29l0-0.1l0-0.1c-2.1-6.2-5.2-10.9-9.3-14c-4.1-3.2-8.6-4.8-13.3-4.8
		c-5.5,0-10.2,1.7-13.9,5c-2.5,2.2-4.7,5.1-6.7,8.7c-1.5-6.8-3.3-13.2-5.5-19.2l0-0.1l0-0.1c-2.9-6.9-6.5-12.3-10.9-16
		c-4.6-4-9.6-6-14.7-6c-5.8,0-10.7,2.4-14.2,7.1c-3.1,4.1-5.4,9.8-7,17.6l0,0.2c-0.4,2.4-1,7.3-2,14.5c-0.4,2.9-0.7,6.4-1,10.2
		c-0.1-0.7-0.1-1.4-0.2-2.1c-0.7-8.9-1.2-15.1-1.4-18.4l0-0.1l0-0.1c-0.3-2.9-1.9-6.9-7.5-10l-0.2-0.1c-2.9-1.5-5.8-2.2-8.7-2.2
		c-1.2,0-2.5,0.1-3.7,0.4c-2.7,0.5-9,2.8-9,12.6l0,0.2c0.7,19.4,2.5,39,5.5,58.3c0.3,2.8,0.9,6.4,1.7,10.6c0.9,4.4,2.1,8.9,3.7,13.4
		c1.7,4.7,3.9,8.9,6.5,12.2c3.2,4.1,7.5,6.3,12.3,6.3c3,0,5.7-1,7.8-3c2-1.9,3.3-4.3,3.6-7.1c1.5-13.8,2.5-27.1,2.9-39.6
		c0.1-1.7,0.2-3.9,0.3-6.6c0.1-2.8,0.4-7.3,0.8-13.4c0.4-6.1,0.9-12.7,1.6-19.5c0.7-6.7,1.6-12.6,2.6-17.4c0.2-0.8,0.3-1.5,0.5-2.1
		c0.4,0.7,1,1.7,1.5,3.1c2,4.9,3.7,10.8,5.1,17.5c1.4,6.9,2.5,13.4,3.4,19.3c0.8,5.9,1.3,10,1.5,12.2c0.2,3.1,0.7,6.7,1.5,10.8
		c0.8,4.4,2.3,8.6,4.4,12.3c2.7,4.8,7,7.4,12.4,7.4l0.2,0c3.5-0.2,6.5-1.9,8.3-4.8c1.3-2.1,2.2-4.6,2.7-7.3c0.4-2.3,0.6-3.9,0.7-4.9
		c0.3-2.6,0.7-6.3,1.2-11.2c0.5-4.7,1.3-9.5,2.2-14.4c0.9-4.7,2.1-8.7,3.5-12c0.6-1.3,1-2,1.3-2.3c0.5,0.4,1.2,1.8,1.8,4.3
		c1.1,5.2,1.7,12.1,1.7,20.5c0,8.8-0.2,18.4-0.7,28.7c-0.4,9.6-0.6,19.1-0.6,28.2l0,9.1c0.1,12.3,1.4,22.6,3.8,30.5l0.1,0.2
		c2.2,6,5.1,10.6,8.8,13.5c3.8,3.1,8.1,4.6,12.6,4.6c4.8,0,9.7-1.3,14.5-3.9c4.6-2.5,8.8-5.7,12.7-9.7l0.1-0.1
		c9.9-10.7,19.7-26.3,29.4-46.3c8.6-18,16.6-35.6,23.6-52.6c0.8,3.9,2,7.6,3.5,11.2c2,4.9,4.9,9,8.5,12.2c4,3.5,9,5.3,14.8,5.3
		c5.4,0,10.1-1.9,13.8-5.7c3.2-3.2,6-7.3,8.1-12.1c0.6-1.4,1.3-2.9,1.8-4.4c1.2,6.5,3,13,5.3,19.2c1.8,4.8,4.1,9.3,6.9,13.2
		c3,4.2,6.6,7.5,10.8,10c4.4,2.5,9.5,3.8,15.3,3.8c8.2,0,16.1-2.8,23.4-8.2c6.9-5.1,13.3-11.7,19.2-19.6c5.8-7.7,11.2-16,16.1-24.7
		c4.8-8.4,9.1-16.5,13-24.1c3,6,6.8,11.7,11.4,16.9c4.4,5,9.1,9.9,14,14.5c2.1,2.1,4.2,4.2,6.3,6.3c-8.7,4.4-18,10.8-27.6,19.2
		c-12.7,11.1-19.1,25.1-19.1,41.8c0,13.5,4.2,25.3,12.5,35.3c8.5,10.2,19.6,15.4,32.9,15.4c14.4,0,27.4-6.4,38.5-19.1
		c11-12.5,16.5-27.9,16.5-46.1c-0.2-12.5-2.5-23-6.8-31.2c-2.8-5.3-5.7-10-8.6-14.2c6.4-2.4,12.9-4.9,19.2-7.6
		c10.3-4.2,20.5-9.3,30.4-15.2c10.1-6,19.1-13.6,26.6-22.4c2.9-3.4,5.6-7.2,7.8-11.1c0.8-1.3,1.3-2.7,1.3-4.1
		C855.3,800.5,854.8,797.8,851.5,795.7z M748.2,942.7c-4.8,7.5-11.2,11.2-19.3,11.2c-8.6,0-14.6-3-18.3-9.3
		c-4.1-7-6.2-15.5-6.2-25.3c0-11.4,3.7-20.6,11.3-28.2c7.2-7.2,16.1-13.3,26.4-18.1c3,3.8,5.9,8.4,8.9,13.5
		c3.4,5.9,5.1,14.5,5.1,25.6C756.1,924.3,753.4,934.6,748.2,942.7z M571.8,854.9c-0.5-0.6-1-1.5-1.4-2.7c-1.4-3.6-2.3-7.6-2.8-11.9
		c-0.7-5.6-0.8-8.2-0.8-9.3c0-3.6,0.3-8,1-13.1c0.6-5,1.9-9.9,3.6-14.6c1.6-4.4,3.8-8.1,6.6-11c2.3-2.4,5.3-3.6,9-3.6
		c2.2,0,3.9,0.5,5.1,1.4c0.7,0.5,1.3,1.2,1.9,2c-1,0.5-2,1.2-2.8,2.1c-1.6,1.5-2.8,3.1-3.5,4.8c-0.6,1.4-1.1,3.4-1.7,6.1l0,0.1
		c-0.9,5.1-2.4,11.9-4.3,20.2c-1.9,8.2-4.1,15.7-6.5,22.4C573.7,851.9,572.5,853.9,571.8,854.9z"/>
	<g>
		<path class="st0" d="M219.4,665.8l0-0.2c-0.8-8.5-14-11.6-22.8-11.6c-9.9,0-16.1,3.7-16.5,9.9c-2.8,39.4-8.4,51.5-23.7,51.6
			c-17.4-1.2-27.6-10-33.1-28.3c-5.4-18-5.4-43.6-5.4-66.3c-0.2-21.9,2.1-61.2,19.9-79.1c6.1-6.1,13.3-9.1,22.1-9.1
			c14.2,0,16.3,10.5,19.4,32.3c0.4,2.8,0.8,5.7,1.3,8.6c0.7,5.1,6.2,8.1,14.6,8.1c6.4,0,15.7-1.9,20.7-7.3c2.3-2.5,3.5-5.6,3.3-8.8
			c0.4-4.2,2.8-34.4-15.3-54.8c-10.7-12-26.2-18.1-46.1-18.1c-28.2,0-51.4,13.3-67.2,38.5c-14.2,22.6-21.7,53.6-21.9,89.7
			c-0.3,56.9,8.7,91.4,29.2,111.9c14.3,14.3,33.8,21.3,59.6,21.3c16.4,0,30.6-5.6,40.9-16.1c14.7-14.9,21.8-39.2,21.2-72.1
			L219.4,665.8z"/>
		<path class="st0" d="M362.8,494.4c-13.4,0-27.1,6-27.7,17.6l0,0.1c-0.2,8.1,0.5,44.6,1,76.8c0.3,19.2,0.7,38.9,0.8,47.4
			c-9.6,0-22.2,0.2-34.4,0.4c-9.4,0.1-18.5,0.3-25,0.3c0.4-10.4,1.7-35.4,2.9-59.8c1.4-28,2.9-57,3.4-69.8c0.1-2.7-0.9-5.1-2.8-7.1
			c-4.9-5-14.6-5.8-20-5.8c-9.8,0-26.5,2.7-26.5,12.7c0,4.2-0.1,13.7-0.2,26.9c-0.7,102.1-1,198,1.7,209.6c1,6.5,10.3,8.8,18.8,8.8
			c11.2,0,18.4-4,18.6-10.5l0-0.2c0-5.5,2.1-48.3,3.3-66.3c12.3-0.3,38.8-1,54.2-1c3.5,0,5.9,0,7.6,0.1c0.8,14.6,3.4,61.2,4.5,66.7
			c1.3,7,8.3,11.3,18.3,11.3c9.3,0,18.9-4,19.2-11.6c0.3-5.2,4.3-147.4,4.6-231.6C385.1,500.4,376.1,494.4,362.8,494.4z"/>
		<path class="st0" d="M527.9,634.7c13.5-17.8,20.9-38.9,20.9-59.2c0-30.3-10.2-52.4-30.3-65.5c-15.9-10.4-38.3-15.4-68.4-15.4
			c-10.2,0-21.3,0.5-34.9,1.7l-0.1,0l-0.1,0c-8.8,1.3-14.5,7-15.3,15.5c-1.7,19.5-5.9,159.2,8.2,232.6l0,0.1l0,0.1c0.7,3,3.7,8,15,8
			c9.9,0,24.4-4,29.4-9.7c2.2-2.5,2.4-4.8,2.1-6.4l0-0.3l-0.1-0.3c-2.8-11.1-3.8-17.6-5.6-31.5c25.3,18.2,57.4,37.5,72.3,46
			c1.8,1.3,3.9,1.9,6.1,1.9c10.2,0,18.9-14.1,21-23.9c2.2-10.2-2.7-13.9-5.1-15.1c-3-1.7-7-3.7-11.5-6
			c-16.1-8.3-39.6-20.3-55.5-32.9C497.3,665.4,515.1,651.7,527.9,634.7z M444.8,644.8c-1-31.1,1-73,2.2-98.7
			c0.2-3.8,0.4-7.3,0.5-10.2c0.2-2.2,0.8-2.9,1.6-3.3c2.9-0.3,5.8-0.4,8.6-0.4c20.7,0,45.6,6.8,46.1,39.3
			C503.8,577.3,502.1,626.7,444.8,644.8z"/>
		<path class="st0" d="M794.5,530.5c1.3-0.2,2.7-0.4,4-0.4c14.4,0,24.7,13.2,28.8,37.2c1.1,5.9,7.4,9.6,16.5,9.6
			c5.9,0,13.9-1.7,18.5-6.5c2.3-2.4,3.6-5.4,3.5-8.5c1-18.6-4.7-34.9-16.5-47.3c-13.2-13.9-33.1-21.9-54.9-22.1c-0.3,0-0.5,0-0.8,0
			c-20.4,0-39.6,6.8-53.8,19.2c-16.3,14.2-25,34.6-25,59c0,16.4,6.8,31.7,20.3,45.4c11.5,11.7,25.7,20.3,36.8,26.5l2.2,1.2
			c21.9,12.3,44.6,25,44.6,49.2c0,16.2-13.6,21.9-26.3,21.9c-11.6,0-23.2-4.6-30.3-12.1c-5.3-5.6-7.7-12.3-7.2-19.8
			c0.3-4.1-1-7.8-3.6-10.7c-3.3-3.6-8.8-5.6-15.1-5.6c-8.3,0-18,3.8-19.8,12.2c-3.8,18.6,0,35.4,10.8,48.7
			c13.6,16.7,37.8,26.6,64.5,26.6c23.4,0,44.6-7.8,58-21.3c10.6-10.6,16.1-24.6,16-40.3c0-44-23.9-61.4-50.7-76.8
			c-25.2-14.2-44.8-26.5-49-45c-2-9,0.7-19,7.4-27.3C779.3,536.6,787,531.8,794.5,530.5z"/>
		<path class="st0" d="M702.4,527.8l0.2,0l0.2,0c6.1-0.8,8.8-9.2,8.3-17c-0.1-0.8-0.2-1.6-0.3-2.4c-2.3,0.2-4.7,0.3-7.2,0.3
			c-8.6,0-16.7-1.2-24.2-3.6c-6.6-2.1-12.2-5.6-16.8-10.4h-93c-1.8,0-4.3,0.7-6.3,4.3c-3.3,5.7-5.2,19.7-0.5,27.7
			c2.2,3.8,5.7,5.9,9.8,5.9c0.1,0,0.2,0,0.3,0l35.4-0.9c-0.3,27.7,0,116.5,5,186.1l-45.4,1.9l-0.3,0.1c-5.3,0.9-8.1,7.3-7.3,16.5
			c0.9,9.9,5.2,16,11.2,16c0.2,0,0.3,0,0.5,0c7.3,0,127.5,0.4,128.9,0.4h0.2l0.2,0c7.3-0.8,9.3-11.5,8.8-20.4
			c-0.6-11.4-4.9-18.2-11.5-18.2h-0.1l-44,1.6c0.5-31.5,5.1-152.4,7.4-185.7C672.3,529.3,696.6,528.1,702.4,527.8z"/>
	</g>
	<path class="st0" d="M847.8,309.3c-1.2-0.7-2.4-1-3.6-1c-2.6,0-4.8,1.3-6.1,3.5c-8.1,13.4-18.1,25.4-29.9,35.5
		c-4.3,3.7-8.9,7.3-13.5,10.7c-6.4,4.7-13,9.1-19.9,13.3c-2.3-15.3-4.9-29.8-7.7-43.1c-1.7-8.2-3.2-15.6-4.3-22.2l0-0.2l-0.1-0.2
		c-1.6-6.3-5.7-8.5-8.8-9.3c-1.4-0.4-2.8-0.5-4.1-0.5c-2.3,0-4.6,0.5-6.7,1.4c-4,1.6-6.6,4.7-7.3,8.8c-0.4,2.3-0.8,5.7-1.2,10.4
		c-0.5,5.6-1.2,12.1-2.1,19.4c-0.9,7.2-2.1,14.3-3.7,21.1c-1.5,6.6-3.4,12.1-5.7,16.5c-2.4,4.6-4.4,4.6-5.1,4.6
		c-2.7,0-4.6-1-6.4-3.3c-2.2-2.9-4-6.8-5.2-11.6c-0.9-3.2-1.5-6.5-2.1-9.9c0-0.2-0.1-0.5-0.1-0.7c-0.6-5.8-1-11.4-1.1-16.7
		c-0.1-3.5-0.1-6.6-0.1-9.3v-5.6l0-0.1c-0.3-4.8-2.9-8.6-7.5-10.7c-2.3-1-4.7-1.6-7-1.6c-1.7,0-3.3,0.2-4.9,0.7
		c-2.8,0.9-7.5,3.6-7.9,11.4l0,0.1v9.5c0,1.1,0,2.2,0,3.4c-3.3,6.7-7.4,16.5-12.5,29.8c-3.7,9.5-7.8,19.5-12.1,29.8
		c-4.2,10.2-8.8,19.9-13.5,28.9c-4.6,8.8-9.3,16-14,21.6c-0.7,0.8-1.4,1.5-2,2.2c-8.3,7.2-14.2,5.2-17.3,0
		c-7.7-12.3-6.6-37.9-4.8-55.3c0,0,0,0,0,0c0-0.2,0.1-0.4,0.1-0.7c0.7-6.3,1.4-11.4,1.9-14.4c0.1-0.7,0.2-1.4,0.3-2l0-0.1
		c1.3-9.9,1.5-12.1,1.5-13c0-3-1.6-5.4-4.4-6.6l-5.7-2.4l-0.2-0.1c-7.2-2.6-14.3-5.8-21.2-9.3c3.6-5.4,7.2-11.1,10.6-16.9
		c4.4-7.5,8.1-15,11-22.3c3.1-7.6,4.6-14.8,4.6-21.2c0-6.4-1.8-12-5.2-16.6c-3.3-4.5-7.6-8-12.9-10.4c-5.1-2.4-10.5-3.6-16.1-3.6
		c-14.5,0-26.3,4.4-35.2,13.1c-8.9,8.7-13.4,20.5-13.4,34.9c0,10,1.9,18.7,5.5,26c3.6,7.2,8.6,13.4,14.8,18.4
		c4.2,3.4,8.9,6.6,13.9,9.4c-3,6.5-6.6,15.3-10.9,26.6c-3.7,9.5-7.8,19.5-12.1,29.8c-4.2,10.2-8.8,19.9-13.5,28.9
		c-4.6,8.8-9.3,16-14,21.6c-4,4.7-7.7,7.1-11.1,7.1c-3.7,0-6.2-1.5-8.2-4.7c-2.4-4.1-4.1-9.6-4.9-16.4c-0.6-5.1-0.9-10.6-0.9-16.5
		c0-2.3,0-4.7,0.1-7.1c0.3-8.5,1-17,1.9-25.2c0.9-8.3,1.8-15.6,2.8-21.8l0-0.1c1.3-9.9,1.5-12.1,1.5-13c0-3-1.6-5.4-4.4-6.6
		l-5.7-2.4l-0.2-0.1c-6.8-2.5-13.5-5.4-19.9-8.7c0.3-0.5,0.5-1,0.7-1.4c1-1.9,1.9-3.7,2.8-5.4c2.1-4.1,4-7.5,5.3-9.8
		c0.2-0.3,0.4-0.6,0.5-0.9c4.4-7.5,8.1-15,11-22.3c3.1-7.6,4.6-14.8,4.6-21.2c0-6.4-1.8-12-5.2-16.6c-3.3-4.5-7.6-8-12.9-10.4
		c-5.1-2.4-10.5-3.6-16.1-3.6c-14.5,0-26.3,4.4-35.2,13.1c-8.9,8.7-13.4,20.5-13.4,34.9c0,10,1.9,18.7,5.5,26c2.2,4.4,5,8.4,8.2,12
		c2,2.3,4.3,4.4,6.7,6.4c4.7,3.8,10,7.3,15.6,10.4c0,0,0,0,0,0c-0.1,0.2-0.2,0.4-0.3,0.6c-3.9,6.8-7.8,13.1-11.5,18.8l0,0
		c-0.1,0.1-0.1,0.2-0.2,0.3c-0.1,0.2-0.3,0.4-0.4,0.7c-1.2,1.8-3,4.7-5.4,8.3c-10.4,15.7-31.1,44.7-52.4,54.4
		c-6.9,3.3-13.9,5-20.8,5c-8.7,0-15.9-4.6-21.8-14c-6.1-9.7-9.3-23.8-9.3-41.9c0-1.7,0-3.3,0.1-4.9c5.1,2.8,11.1,4.2,17.8,4.2
		c7.4,0,14.3-3,20.4-8.9c6.5-6.3,9.7-14.6,9.7-24.8c0-11.7-3.3-20.6-9.9-26.4c-6.1-5.5-13-8.2-20.5-8.2c-14.5,0-25.9,7.5-33.6,22.4
		c-5.5,10.5-9,22.1-10.4,34.6c-4.1,9.5-8.5,19.5-13.1,30c-5.6,12.5-11.4,24.5-17.2,35.7c-5.8,11-11.5,20.1-16.9,27.2
		c-6.2,8-10.1,9.2-11.8,9.2c-1.8,0-2.8-3-3.4-5.5c-1.4-6.7-2.2-15.8-2.2-26.9c0.1-7.9,0.3-16.5,0.7-25.5c0.5-10.7,0.7-22.7,0.7-35.9
		c-0.1-11.7-1.2-21.5-3.4-29.2l0-0.1l0-0.1c-2.1-6.2-5.2-10.9-9.2-14c-4.1-3.1-8.6-4.7-13.2-4.7c-5.4,0-10,1.6-13.8,4.9
		c-2.5,2.2-4.7,5.1-6.7,8.7l-0.6,1.1l-0.3-1.2c-1.5-6.8-3.4-13.3-5.5-19.4l0-0.1l0-0.1c-2.9-6.9-6.6-12.3-10.9-16
		c-4.6-3.9-9.5-5.9-14.5-5.9c-5.7,0-10.5,2.4-14,7c-3.1,4.1-5.4,9.8-7,17.6l0,0.2c-0.4,2.4-1.1,7.3-2,14.7c-0.4,3-0.7,6.4-1,10.3
		l-0.9,0l-0.2-2.1c-0.7-9-1.2-15.3-1.4-18.6l0-0.1l0-0.1c-0.3-2.8-1.8-6.7-7.4-9.8l-0.1-0.1c-2.9-1.4-5.8-2.2-8.6-2.2
		c-1.2,0-2.5,0.1-3.7,0.4c-2.6,0.5-8.7,2.7-8.7,12.3l0,0.2c0.7,19.6,2.5,39.4,5.5,58.9c0.3,2.9,0.9,6.4,1.7,10.7
		c0.9,4.4,2.2,8.9,3.8,13.5c1.7,4.7,3.9,8.9,6.5,12.2c3.2,4.1,7.4,6.2,12.1,6.2c2.9,0,5.5-1,7.5-2.9c2-1.8,3.2-4.2,3.5-6.9
		c1.5-13.9,2.5-27.4,3-40c0.1-1.7,0.2-3.9,0.4-6.7c0.1-2.8,0.4-7.3,0.8-13.6c0.4-6.2,0.9-12.8,1.6-19.8c0.7-6.8,1.6-12.7,2.7-17.7
		c0.2-0.8,0.3-1.5,0.5-2.1l0.3-1l0.5,0.9c0.5,0.8,1.1,1.9,1.6,3.2c2,5,3.8,10.9,5.2,17.7c1.4,7,2.6,13.6,3.4,19.6
		c0.8,6,1.3,10.1,1.5,12.3c0.2,3.1,0.7,6.7,1.5,10.8c0.8,4.4,2.3,8.6,4.4,12.3c2.6,4.7,6.8,7.2,12.1,7.2l0.1,0l0.1,0
		c3.4-0.2,6.3-1.8,8-4.6c1.3-2.1,2.2-4.5,2.6-7.2c0.4-2.3,0.6-3.9,0.7-5c0.3-2.7,0.7-6.5,1.3-11.3c0.5-4.7,1.3-9.6,2.3-14.6
		c0.9-4.8,2.1-8.9,3.5-12.2c0.6-1.4,1.1-2.1,1.4-2.4l0.3-0.3l0.3,0.3c0.7,0.6,1.5,2.3,2,4.7c1.1,5.3,1.7,12.3,1.7,20.8
		c0,8.9-0.2,18.6-0.7,29c-0.4,9.7-0.6,19.3-0.6,28.5l0,9.2c0.1,12.4,1.4,22.7,3.9,30.7l0.1,0.2c2.2,6,5.1,10.6,8.7,13.5
		c3.8,3,8,4.6,12.5,4.6c4.8,0,9.6-1.3,14.5-3.9c4.6-2.5,8.8-5.7,12.7-9.7l0.1-0.1c9.9-10.8,19.9-26.5,29.6-46.7
		c4.2-8.7,8.2-17.4,12.1-25.9c2.3,12.8,6.8,23.6,13.5,32.3c10.2,13.1,24.6,19.7,43,19.7c20.1,0,40-11.5,59.1-34.2
		c3.2-3.8,6.3-7.5,9.1-11.1c5.3-6.8,20.5-29,34.8-53.2c0.3-0.5,0.5-1,0.8-1.5c3.7,1.7,7.6,3.4,11.5,5c-0.3,2.2-0.6,4.6-1,7.2
		c-1,6.8-2,15.3-3,25.4c-1.1,10.2-1.6,22.7-1.6,37.4c0,5.2,0.6,10.6,1.7,16c1.1,5.7,3,10.9,5.6,15.7c2.7,5,6.5,9.2,11.1,12.3
		c4.8,3.2,10.7,4.9,17.5,4.9c5.5,0,10.6-1.5,15.3-4.6c4.3-2.8,8.3-6.5,11.8-10.9c3.4-4.2,6.5-8.6,9.2-13.2c2.6-4.4,5-8.7,7-12.6
		l0-0.1c9.3-18.8,17.7-38.1,24.7-57.4c4.3-11.5,8.2-20.8,11.4-27.6c4.3,2,8.7,3.9,13.2,5.7c-1,7.2-10.5,54.9,0,80c0,0,0,0,0,0.1
		c0.9,2.5,2,4.9,3.2,7.2c2.7,5,6.5,9.2,11.1,12.3c4.8,3.2,10.7,4.9,17.5,4.9c5.5,0,10.6-1.5,15.3-4.6c4.3-2.8,8.3-6.5,11.8-10.9
		c3.4-4.2,6.5-8.6,9.2-13.2c2.6-4.4,5-8.7,7-12.6l0-0.1c9.3-18.8,17.7-38.1,24.7-57.4c1-2.7,2-5.3,3-7.8c1.1,4.1,2.5,8,4.2,11.6
		c2.8,5.9,6.8,10.7,11.8,14.3c5.2,3.7,11.9,5.6,19.9,5.6c7.2,0,13.1-2.6,17.5-7.7c3.9-4.5,7-10.3,9.1-17.1
		c1.6-4.9,2.8-10.1,3.7-15.3c1.7,9.8,3.3,20.1,4.7,30.7c-6.4,3.2-12.9,6.4-19.3,9.5c-11.9,5.5-23.7,11.5-35.1,17.8
		c-6.6,3.6-12.9,7.9-18.7,12.9c-6,5.1-10.9,11-14.6,17.6c-3.9,6.8-5.8,14.6-5.8,23.1c0,8.2,2.3,15.5,6.9,21.7
		c4.6,6.1,10.7,10.5,18.1,12.9c7,2.3,14.7,3.4,22.8,3.4c14.2,0,26.2-2.9,35.8-8.6c9.4-5.6,17-12.5,22.6-20.6
		c5.6-8,9.6-17.2,12.1-27.3c2.4-9.9,3.7-21.8,3.9-35.3c0-8.4-0.5-17-1.4-25.5c6.2-3.6,12.2-7.4,17.9-11.2c8.3-5.6,16-11.5,23.1-17.6
		c12.8-11,23.8-24.1,32.6-38.8c0.7-1.2,1-2.4,1-3.7C851.3,312.9,850,310.6,847.8,309.3z M311.3,352c3.7-8.6,8.8-13,15.5-13.3
		c3.3,0,5.7,1.3,7.5,3.9c2,2.9,2.9,6.4,2.9,10.8c0,4.8-1.2,8.5-3.6,11.3c-2.6,2.9-5.7,4.4-9.6,4.4c-6.5-0.2-11.9-1.9-16.1-5
		C308.7,359.4,309.8,355.3,311.3,352z M445.8,320.7c-0.7,1.5-1.4,3-2.1,4.5c-1.6,3.5-3.4,7.1-5.3,10.8c-0.2,0.5-0.4,0.9-0.6,1.2
		c-1.8-1.3-3.1-2.4-3.5-2.8c-2.2-1.9-4.3-3.9-6.2-6c-2.7-3-5.1-6.5-7-10.4c-0.5-1.1-1.1-2.2-1.5-3.3c-2.1-5.1-3.2-11.1-3.2-17.9
		c0-5.1,1-10,3-14.7c1.9-4.5,4.7-8.2,8.4-11c3.5-2.7,7.8-4.1,13.1-4.1c4.9,0,9,1.4,12.4,4.4c0.6,0.5,1,1,1.5,1.5
		c6.8,8.8-1.1,30.5-8.4,46.7C446.1,319.9,445.9,320.3,445.8,320.7z M559.5,334.6c-3-2.3-5.9-4.9-8.5-7.8c-3.5-3.9-6.4-8.5-8.5-13.7
		c-2.1-5.1-3.2-11.1-3.2-17.9c0-5.1,1-10,3-14.7c1.9-4.5,4.7-8.2,8.4-11c3.5-2.7,7.8-4.1,13.1-4.1c4.9,0,9,1.4,12.4,4.4
		c3.2,2.8,4.8,6.7,4.8,11.9c0,7.7-2.4,16.8-7.1,27C569.7,317.8,564.8,326.5,559.5,334.6z M750.8,428.1c-0.8,10.7-3.2,20.4-7,28.8
		c-3.8,8.2-9.5,15.2-17.2,20.9c-7.5,5.6-17.7,8.4-30.5,8.4c-4,0-8-0.6-11.8-1.9c-3.3-1.1-6-3.3-8.2-6.6c-2.3-3.4-3.4-7.3-3.4-11.8
		c0-6.3,1.3-12,3.8-16.9c2.6-5.1,6.1-9.7,10.4-13.6c4.5-4.1,9.5-7.7,14.8-10.7c11.4-6.1,23-12,34.6-17.5c4.8-2.3,9.7-4.6,14.4-7
		c0.3,4.7,0.5,9.3,0.5,13.8C751.3,418.8,751.1,423.6,750.8,428.1z"/>
	<g>
		<path class="st1" d="M1093,402.4l-2.9,81.5c0,1.3-0.4,2.4-0.9,3.5c-1.4,2.6-4.2,4.3-7.3,4.2l-80.7-2.8c-6.2-0.2-11.6,3.9-13.1,9.7
			c-0.3,1-0.4,1.9-0.5,3l-14,399.5c-0.3,7.3-6.3,12.9-13.6,12.7l-71.2-2.5c-7.2-0.3-12.9-6.3-12.7-13.6l14-399.5
			c0.3-7.3-5.4-13.3-12.7-13.6l-80.3-2.8c-4.4-0.2-7.9-3.9-7.7-8.3l2.9-81.6c0.2-4.4,3.8-7.8,8.2-7.7l80.4,2.8
			c2.5,0.1,4.9-0.5,6.9-1.7c2.5-1.4,4.5-3.7,5.6-6.4c0.6-1.4,1-3,1-4.6l5.7-161.6c0.3-7.2,6.3-12.9,13.6-12.7l71.2,2.5
			c7.2,0.3,12.9,6.3,12.7,13.6L992,377.8c0,1,0.1,2,0.2,3c0.3,1.7,1,3.3,2,4.8c0.8,1.2,1.8,2.2,2.9,3.1c2.1,1.6,4.7,2.7,7.6,2.8
			l80.7,2.8C1089.7,394.3,1093.2,398,1093,402.4z"/>
		<g>
			<path class="st0" d="M973.2,242.9l6.8,0.2l16,17.2l0.4-12.3l-4.1-4.4l4.3,0.2l1-27.5c0.3-7.2-5.4-13.3-12.7-13.6l-19.8-0.7
				l9.2,9.8l-0.4,12l-20.8-22.3l-12.3-0.4l32.6,35L973.2,242.9z"/>
			<polygon class="st0" points="995.6,272.7 973.1,248.4 972.6,260.7 995.2,285 			"/>
			<polygon class="st0" points="941.7,290.9 929.4,290.4 970.1,334 969.8,340.9 976.7,341.2 992.6,358.3 993.1,346 989,341.6 
				993.2,341.7 994.9,292.7 990.7,292.6 972.2,272.8 971.8,285.1 978.4,292.1 971.5,291.9 971.3,297.4 966,291.7 953.7,291.3 
				970.9,309.7 970.5,321.7 			"/>
			<path class="st0" d="M992.2,370.6l-22.6-24.2l-0.4,12.3l25,26.8c-1-1.4-1.6-3-2-4.8c-0.2-1-0.3-2-0.2-3L992.2,370.6z"/>
			<path class="st0" d="M1017.1,391.8l-12.5-0.4c-2.8-0.1-5.5-1.1-7.6-2.8l2.3,2.4l-12-0.4l-18.5-19.9l-0.4,12.3l6.7,7.2l-6.9-0.2
				l-0.2,5.2l-5.1-5.4l-12.3-0.4l16.9,18.2l-0.4,12l-28.5-30.6l-12.3-0.4l40.4,43.3l-0.3,7.1l7.1,0.3l40.4,43.4l0.4-12.3l-28.5-30.6
				l12,0.4l16.9,18.2l0.4-12.3l-5.1-5.4l5.3,0.2l0.2-6.9l6.7,7.2l12.3,0.4l-18.5-19.9l0.4-12l30.1,32.3l12.3,0.4l-42-45.1
				L1017.1,391.8z"/>
			<path class="st0" d="M1093,402.4c0.2-4.4-3.3-8.1-7.7-8.3l-19.2-0.7l-0.2,5.4l-5.2-5.6l-12.3-0.4l17.1,18.3l-0.4,12l-28.7-30.7
				l-12.3-0.4l40.5,43.5l-0.2,6.9l6.9,0.2l19.6,21l0.4-12.3l-7.7-8.2l8,0.3L1093,402.4z"/>
			<path class="st0" d="M868.4,435.5l7.1,0.2l40.4,43.4l0.4-12.3l-28.6-30.6l12,0.4l17,18.2l0.4-12.3l-5.1-5.5l5.3,0.2l0.3-7.1
				l6.9,7.4l12.3,0.4l-18.8-20.1l0.4-12l30.4,32.6l12.3,0.4l-42.2-45.3l0.2-5.2l-5.2-0.2l-19.2-20.6l-0.2,6.9
				c-0.1,1.6-0.4,3.2-1,4.6l8.1,8.7l-12-0.4l-1.7-1.9c-2,1.1-4.4,1.8-6.9,1.7l-10.8-0.4l-0.2,5.1l-5-5.3l-12.3-0.4l16.8,18.1
				l-0.4,12l-28.4-30.5l-12.3-0.4l40.3,43.2L868.4,435.5z"/>
			<polygon class="st0" points="919.8,368.8 895.6,342.8 895.1,355.1 919.3,381.1 			"/>
			<polygon class="st0" points="920.2,356.8 920.6,344.5 915.6,339 920.8,339.2 921.1,332.3 927.7,339.4 940,339.9 921.5,320 
				921.9,308 952,340.3 964.3,340.7 922.3,295.7 922.5,290.2 917,290 898.1,269.7 897.7,282 904.7,289.6 897.4,289.3 895.7,338.3 
				903.2,338.6 			"/>
			<polygon class="st0" points="923.2,271 899,245 898.6,257.3 922.8,283.3 			"/>
			<path class="st0" d="M923.6,259l0.4-12.3l-5.3-5.7l5.5,0.2l0.2-6.8l6.6,7.1l12.3,0.4L924.9,222l0.4-12l30,32.2l12.3,0.4
				l-39.2-42.1l-14.8-0.5c-7.2-0.3-13.3,5.4-13.6,12.7l-1,27.5l7.3,0.3L923.6,259z"/>
			<polygon class="st0" points="790.4,446.7 817.9,476.2 818.3,463.9 790.8,434.4 			"/>
			<path class="st0" d="M821.1,384.9l-20.5-0.7c-4.4-0.2-8.1,3.3-8.2,7.7l-1.4,40.9l10.4,0.4l17.5,18.8l0.4-12.3l-5.6-6l5.8,0.2
				l0.3-7.1l6.9,7.4l12.3,0.4L820,414.3l0.4-12l30.4,32.5l12.3,0.4L820.9,390L821.1,384.9z"/>
			<polygon class="st0" points="952,848.9 974.6,873.1 975,860.8 952.4,836.6 			"/>
			<path class="st0" d="M951.6,860.9l-0.4,12.3l6.7,7.2l-6.9-0.2l-0.2,5.2l-5.1-5.4l-12.3-0.4l16.9,18.2l-0.4,12l-28.5-30.6
				l-12.3-0.4l32,34.4l19,0.7c7.2,0.3,13.3-5.4,13.6-12.7l0.7-20.1l-4.2-0.1L951.6,860.9z"/>
			<path class="st0" d="M965.8,456.5l30.4,32.6l-12-0.4l-18.8-20.1l-0.4,12.3l6.9,7.4l-7.1-0.3l-0.2,5.8l-5.6-6l-12.3-0.4l17.5,18.8
				l-0.4,12l-29.1-31.2l-12.3-0.4l40.9,43.9l-0.2,6.6l6.6,0.2l16.2,17.4l0.4-12.3l-4.4-4.7l4.5,0.2l1.3-36.3c0-1,0.2-2,0.5-3
				c1.6-5.8,6.9-9.9,13.1-9.7l6.9,0.2l-41.9-44.9L965.8,456.5z"/>
			<polygon class="st0" points="1062.9,484.5 1069.2,491.2 1081.5,491.7 1063.4,472.2 			"/>
			<path class="st0" d="M1063.8,460.2l25.4,27.3c0.6-1,0.9-2.2,0.9-3.5l0.3-8l-26.2-28.1L1063.8,460.2z"/>
			<polygon class="st0" points="955.4,750.9 978,775.1 978.4,762.8 955.9,738.6 			"/>
			<polygon class="st0" points="955,762.9 954.6,775.2 961.2,782.3 954.3,782.1 954.1,787.6 948.8,781.9 936.5,781.4 953.7,799.9 
				953.3,811.9 924.5,781 912.2,780.6 952.9,824.2 952.6,831.1 959.5,831.3 975.4,848.4 975.9,836.1 971.8,831.8 976,831.9 
				977.7,782.9 973.5,782.7 			"/>
			<polygon class="st0" points="958.9,652.9 981.5,677.1 981.9,664.8 959.3,640.6 			"/>
			<polygon class="st0" points="958.4,664.9 958,677.2 964.6,684.3 957.8,684 957.6,689.6 952.2,683.8 939.9,683.4 957.1,701.9 
				956.7,713.9 927.9,683 915.6,682.6 956.3,726.2 956.1,733.1 962.9,733.3 978.9,750.5 979.3,738.2 975.2,733.7 979.5,733.9 
				981.2,684.9 976.9,684.7 			"/>
			<polygon class="st0" points="962.3,555.1 984.9,579.3 985.3,567 962.7,542.8 			"/>
			<polygon class="st0" points="961.9,567.1 961.4,579.4 967.8,586.2 961.2,586 961,591.6 955.7,585.8 943.3,585.4 960.6,603.9 
				960.2,615.9 931.3,585 919,584.5 959.7,628.2 959.5,635 966.3,635.3 982.3,652.4 982.8,640.1 978.6,635.7 982.9,635.8 
				984.6,586.8 980.1,586.7 			"/>
			<path class="st0" d="M901.9,878.4l-5.2-0.2l-19.2-20.6l-0.4,12.3l7.3,7.8l-7.6-0.3l-0.7,20.1c-0.3,7.3,5.4,13.3,12.7,13.6
				l15.6,0.5l-3.5-3.8l0.4-12l15.1,16.2l12.3,0.4l-27-28.9L901.9,878.4z"/>
			<polygon class="st0" points="877.9,845.3 902.1,871.3 902.6,858.9 878.4,833 			"/>
			<polygon class="st0" points="934.8,830.5 947.1,830.9 905.1,785.8 905.3,780.3 899.8,780.1 880.9,759.9 880.5,772.2 887.5,779.7 
				880.2,779.5 878.5,828.5 886,828.8 903,846.9 903.4,834.6 898.4,829.2 903.6,829.4 903.9,822.5 910.5,829.6 922.8,830 
				904.3,810.2 904.7,798.1 			"/>
			<polygon class="st0" points="906,761.2 881.8,735.2 881.4,747.5 905.6,773.5 			"/>
			<polygon class="st0" points="938.2,732.4 950.5,732.9 908.6,687.9 908.8,682.3 903.2,682.1 884.4,661.9 883.9,674.2 890.9,681.7 
				883.7,681.4 882,730.5 889.2,730.7 906.4,749.1 906.9,736.8 901.5,731.1 907.1,731.3 907.3,724.5 913.9,731.6 926.2,732 
				907.7,712.2 908.2,700.2 			"/>
			<polygon class="st0" points="789.5,471.4 799.1,481.8 811.4,482.2 789.9,459.1 			"/>
			<polygon class="st0" points="909.4,663.2 885.2,637.2 884.8,649.5 909,675.5 			"/>
			<polygon class="st0" points="941.7,634.4 954,634.8 912,589.8 912.2,584.3 906.6,584.1 887.8,563.9 887.4,576.2 894.3,583.7 
				887.1,583.4 885.4,632.4 892.6,632.7 909.9,651.2 910.3,638.9 904.9,633.1 910.5,633.3 910.7,626.5 917.3,633.5 929.6,634 
				911.2,614.2 911.6,602.2 			"/>
			<polygon class="st0" points="912.9,565.2 888.7,539.2 888.2,551.5 912.5,577.5 			"/>
			<path class="st0" d="M888.8,534.4l7.2,0.3l17.3,18.5l0.4-12.3l-5.4-5.8l5.6,0.2l0.2-6.6l6.3,6.8l12.3,0.4l-18.2-19.5l0.4-12
				l29.8,32l12.3,0.4l-41.7-44.7l0.2-5.8l-5.2-0.2l-42.2-45.3l-0.4,12.3l30.3,32.6l-12-0.4l-18.8-20.1l-0.4,12.3l6.5,7l4.1,0.1
				c7.2,0.3,12.9,6.3,12.7,13.6L888.8,534.4z"/>
		</g>
	</g>
</g>
</svg>
