<?xml version="1.0" encoding="utf-8"?>
<!-- Generator: Adobe Illustrator 23.0.3, SVG Export Plug-In . SVG Version: 6.00 Build 0)  -->
<svg version="1.1" id="Layer_1" xmlns="http://www.w3.org/2000/svg" xmlns:xlink="http://www.w3.org/1999/xlink" x="0px" y="0px"
	 viewBox="0 0 1133.9 1133.9" style="enable-background:new 0 0 1133.9 1133.9;" xml:space="preserve">
<style type="text/css">
	.st0{fill:#1E2121;}
	.st1{fill:#A81F26;}
	.st2{fill:#F2F1F2;}
	.st3{fill:#DD353A;}
	.st4{fill:#CFCFCE;}
	.st5{fill:#1D2121;}
	.st6{fill:none;}
	.st7{fill:#AA1F23;}
	.st8{fill:#FDFEFE;}
	.st9{fill:#EE742C;}
	.st10{fill:#BA5234;}
	.st11{fill:#ED1C24;}
	.st12{fill:#C42C3A;}
	.st13{fill:#058743;}
	.st14{fill:#0F4D70;}
	.st15{fill-rule:evenodd;clip-rule:evenodd;fill:#C42C3A;}
	.st16{fill-rule:evenodd;clip-rule:evenodd;fill:#1E2121;}
	.st17{fill:#E8E8E8;}
	.st18{fill:#186634;}
	.st19{fill:#BF2730;}
	.st20{fill:#B47A48;}
	.st21{fill:#3E1E14;}
	.st22{fill:#DBAD5D;}
	.st23{fill:#B84947;}
	.st24{fill:#C3976E;}
	.st25{fill:#9D2023;}
	.st26{fill:#3C2517;}
	.st27{fill:#4A3A31;}
	.st28{fill:#EDAD4F;}
	.st29{fill:#F8C018;}
</style>
<g>
	<g>
		<path class="st5" d="M370.4,187.7h-0.7c-13.8,2.2-24.1,3.3-30.8,3.3l-1.8,0.7c-1.5,1.2-2.2,3.3-2.2,6.2c0,2.2,0.2,3.8,0.7,4.7
			c1,1.7,2.8,2.5,5.4,2.5l3.6-0.4c-0.7,6.5-1.1,16.4-1.1,29.7c0,20.6,0.4,44.6,1.1,72c0.7,27.4,1.7,50.2,2.9,68.4
			c-0.2-0.5-11.4-31.9-33.4-94.3c-0.7-1.5-1.3-2.9-1.6-4.4c-0.4-1.5-0.8-2.8-1.3-4L298.5,236c-1.5-4.1-3-8.5-4.7-13.2
			c-1.7-4.7-2.7-7.2-2.9-7.4c-0.7-1.5-4.1-2.6-10-3.4c-5.9-0.8-10.6-1.3-14-1.3h-1.1c-3.1,0.2-5.1,1.9-6,5.1
			c-0.9,3.1-1.3,9.4-1.3,18.9c0,24.9,3.6,80.2,10.9,165.8v2.2h-4c-1,0-1.7,0.1-2.2,0.4c-1.2,0.7-2.1,1.5-2.5,2.2
			c-0.5,0.7-0.7,1.9-0.7,3.6c0,2.4,0.5,4.1,1.5,5.1c1.5,1.5,3.5,2.7,6.2,3.6l21.8,1.5c2.4,0.2,7.6,0.4,15.6,0.4
			c4.4,0,6.5-2.2,6.5-6.5c0-2.9-1.9-5.3-5.8-7.3l-1.1-0.4h-3.3c-8.5-81.5-12.7-130.6-12.7-147.3c8.7,28.8,24.2,69.3,46.4,121.5
			c2.4,6,5.3,11.1,8.7,15.2c2.2,2.9,4.8,4.4,8,4.4c2.9,0,5.4-1.6,7.6-4.7c2.2-3.1,3.3-7.7,3.3-13.8v-64.9v-23.6
			c-0.2-6.3-0.4-16.6-0.4-30.8c0-23.2,1.2-42.8,3.6-58.8c1.9,0,3.4-0.1,4.4-0.4c1.5-0.2,2.7-1,3.6-2.2c1-1.2,1.5-2.7,1.5-4.4
			c0-2.4-0.5-4.3-1.5-5.6C373,188.4,371.8,187.7,370.4,187.7z"/>
		<path class="st5" d="M380.5,332.8c2,0.6,5.2,0.9,9.5,0.9c-1.4,26.6-2.2,45.4-2.2,56.4c0,5,0.2,9.7,0.7,14h-1.4l-1.4,0.7
			c-1.4,1.4-2.2,3.4-2.2,5.7c0,2.2,0.4,3.6,1.1,4.3c1.4,1.4,3,2.2,4.7,2.2l15.1-1.4l11.1-1.4c1.4-0.2,2.6-0.9,3.4-2
			c0.8-1.1,1.3-2.5,1.3-4.1c0-4.5-1.6-6.8-4.7-6.8h-0.7l-1.8,0.4V334c10.1-0.7,21.9-1.1,35.6-1.1c1.9,11.7,4.2,32.7,6.8,62.9
			l0.7,10.1c-1.9,0.2-4.6,0.4-7.9,0.4c-0.5,0-1.2,0.2-2.2,0.7c-1.9,1.2-2.9,3.1-2.9,5.7c0,1.4,0.4,2.9,1.1,4.3c1,1.4,3,2.2,6.1,2.2
			l18.3-1.1c1.4-0.2,3.2-0.4,5.4-0.4s4.9-0.2,8.3-0.7c1.7-0.2,3.1-0.9,4.1-2c1.1-1.1,1.6-2.5,1.6-4.1c0-1.9-0.4-3.3-1.3-4.1
			c-0.8-0.8-2.2-1.7-4.1-2.7l-0.7-0.4l-10.8,1.1c-1.9-20.1-2.8-28.6-2.5-25.5l-5-46.3c4.3,0,7.5-0.4,9.7-1.1
			c2.2-0.7,3.2-2.8,3.2-6.1c0-3.4-0.8-5.7-2.3-7c-1.6-1.3-3.7-2-6.5-2c-2.8,0-4.6,0-5.6,0c-1-18.4-3.4-43-7.2-73.8
			c-3.8-30.8-7.4-48.6-10.8-53.3c-1.2-1.7-3.1-3.1-5.7-4.1c-2.6-1.1-5.6-1.6-9-1.6c-5.3,0-10.1,1.1-14.4,3.4c-4.3,2.3-7,5.6-7.9,9.9
			c-4.8,22.3-8.3,42.2-10.6,59.8c-2.3,17.6-4.1,37.7-5.6,60.2c-4.1-0.2-7.4,0.1-9.9,1.1c-2.5,1-3.8,3.8-3.8,8.6
			C377.4,330.2,378.4,332.2,380.5,332.8z M422,255.5c3.1-17.6,7.5-35.1,13.3-52.6c1,1,2.2,9,3.8,24.1c1.6,15.1,3.2,32.8,4.9,53.2
			l2.9,35.2l-32,1.1C416.4,293.4,418.8,273.1,422,255.5z"/>
		<path class="st5" d="M487,227.5l3.3-0.4c-1.2,6.5-2,17.5-2.5,32.9v12.3c0,30.1,1.6,54.4,4.7,73c2.2,14.2,4.8,26.4,7.8,36.7
			c3,10.2,7.6,19,13.7,26.4c6.1,7.4,14.4,11,24.8,11c10.6,0,18.6-4.3,24-13c5.4-8.7,10.1-26.2,14.1-52.6c4-26.4,8.7-70.4,14.3-132.1
			v-1.1c2.6,0,4.8-0.1,6.5-0.4c3.9-0.2,5.8-2.9,5.8-7.9c0-1.4-0.2-2.6-0.7-3.6c-0.5-1-1.3-1.9-2.3-2.7c-1.1-0.8-1.9-1.4-2.3-1.6
			l-0.4-0.7l-7.2,0.4l-14.1-0.4c-2.9-0.2-6.9-0.4-11.9-0.4l-2.2,0.4c-1.7,1.7-2.5,4.2-2.5,7.6c0,2.2,0.2,4,0.7,5.4
			c1.7,2.2,3.7,3.4,6.1,3.6h7.2v0.7c-0.5,4.6-1,9.4-1.4,14.5l-2.2,27.5c-2.2,21.4-5.5,50.1-10.1,86l-2.2,16.3
			c-2.2,13.3-5,22.5-8.5,27.6c-3.5,5.2-6.6,7.6-9.2,7.4c-5.1,0-9.6-8.3-13.7-24.9c-3.6-14-6.4-30.8-8.5-50.6
			c-2-19.7-3.1-39.1-3.1-58.2c0-7.2,0.1-12.5,0.4-15.9c0-8.2,0.4-17,1.1-26.4l4.3-0.4c1.7-0.2,3.1-1.1,4.2-2.5
			c1.1-1.4,1.6-3.1,1.6-5.1c0-6-1.9-9-5.8-9h-1.1c-4.8,1-10.8,1.9-17.9,2.7c-7.1,0.8-13,1.3-17.5,1.3c-0.5,0-1.2,0.2-2.2,0.7
			c-1.7,1.7-2.5,4.1-2.5,7.2c0,2.9,0.5,4.8,1.4,5.8C481.8,226.6,483.9,227.5,487,227.5z"/>
		<path class="st5" d="M675.9,395.1c2.7-9.5,4.6-18.8,5.9-27.7c1.2-8.9,2.7-23.4,4.4-43.5l1.1-14.3c0-0.7,0.1-1.3,0.2-1.8
			c0.1-0.5,0.6-0.7,1.3-0.7c2.4,0,4.3-0.7,5.7-2c1.3-1.3,2-3.1,2-5.3c0-2-0.6-3.2-1.8-3.7c-1.2-0.5-3.7-0.7-7.3-0.7
			c-4.7,0-14.3,0.6-29,1.8l-8.8,0.7c-1.7,0.2-3.1,1.2-4.2,2.8c-1.1,1.6-1.7,3.2-1.7,5c0,3.4,1.8,5.1,5.5,5.1c2.9,0,5.4-0.1,7.3-0.4
			l15-0.4c0,6.9-0.8,17.9-2.4,33.2c-1.6,15.3-3.7,29-6.2,41.1c-2.6,12.1-5.3,18.2-8.3,18.2c-3.9,0-7.4-5.6-10.5-16.9
			c-3.1-11.2-5.5-24.5-7.3-39.8c-1.8-15.3-2.8-28.2-2.8-38.7c0-11.5,1-24.8,2.9-39.8c2-15,4.8-28,8.6-38.9
			c3.8-10.9,8.1-16.3,13-16.3c1.5,0,2.9,0.9,4.4,2.6c3.9,4.9,7,11,9.4,18.3c2.3,7.3,3.7,14.8,4.2,22.4v0.4c-1.5,0.7-2.8,1.3-3.9,1.7
			c-1.1,0.4-1.8,0.7-2,0.9c-1.2,0.5-1.8,1.7-1.8,3.7c0,2.4,1,4.7,2.9,6.6c0.7,0.7,1.7,1.1,2.9,1.1l2.9-0.4
			c16.4-6.1,24.1-9.2,23.1-9.2c2.7-0.7,4-2.6,4-5.5l-0.4-1.8c-1-3.7-3.3-5.5-7-5.5l-4.4,1.5c-0.7-6.1-2.6-12.5-5.5-19.1
			c-3.9-9.8-8.8-17.9-14.7-24.2c-5.9-6.4-11.6-9.5-17.2-9.5c-14.9,0-27,9.2-36.1,27.5c-9.2,18.3-13.8,47.5-13.8,87.3
			c0,17.6,2.1,34.8,6.4,51.6c4.3,16.8,10.2,30.5,17.6,41.1c7.5,10.6,15.7,16,24.8,16c4.9,0,9.2-2.2,13-6.6
			C671.4,408.3,674.2,402.5,675.9,395.1z"/>
		<path class="st5" d="M711.9,395.8c-1.9,1.2-2.8,3.1-2.8,5.7c0,2.1,0.5,3.5,1.4,4.2c2.4,1.4,4.5,2.1,6.4,2.1l20.8-1.4l14.8-1.4
			c1.9-0.2,3.4-0.9,4.6-1.9c1.2-1.1,1.8-2.4,1.8-4.1c0-2.1-0.6-3.8-1.8-4.9c-1.2-1.2-2.7-1.8-4.6-1.8h-0.7l-3.2,0.4l-3.2-40.3
			l-0.4-7.1c3.8-1.2,12.8-2.7,27.2-4.6c14.4-1.9,23.3-2.8,26.9-2.8c0.2,9.4,0.7,20.7,1.4,33.7c0.7,13.1,1.5,24.7,2.5,34.8h-4.6
			c-0.2,0-0.8,0.2-1.8,0.7c-1.4,1.4-2.1,3.3-2.1,5.7c0,2.1,0.4,3.5,1.1,4.2c0.9,1.4,2.6,2.1,4.9,2.1l15.2-1.4l11.7-1.4
			c3.1-0.2,4.6-2.2,4.6-6c0-4.5,0-6.7,0-6.7s-1.5,0-4.6,0h-0.7l-5.3,0.7c-0.5-13.4-1.3-28-2.5-43.8c-2.8-33.7-4.2-61.5-4.2-83.4
			c0-23.1,1.2-41,3.5-53.7l1.1-9.2v-2.1l5.7-0.7c1.6-0.2,2.9-0.9,3.9-1.9c0.9-1.1,1.4-2.4,1.4-4.1c0-2.1-0.5-3.8-1.4-4.9
			c-0.9-1.2-2.2-1.8-3.9-1.8h-0.7c-4.5,0.7-10,1.4-16.4,1.9c-6.5,0.6-11.8,0.9-16.1,0.9c-0.7,0-1.3,0.2-1.8,0.7
			c-1.7,1.4-2.5,3.3-2.5,5.7c0,2.1,0.4,3.5,1.1,4.2c1.4,1.4,3.4,2.1,6,2.1l6.7-0.4c-0.2,0.5-0.4,1.3-0.4,2.5
			c-2.4,15.5-3.5,36.5-3.5,62.9l0.7,36l0.4,8.8c-21,1.9-39.1,4.2-54.4,7.1c0-35.1,0.4-58.3,1.1-69.6c0.2-4,0.8-9.6,1.8-16.8
			c0.9-7.2,1.6-12.7,2.1-16.4h1.1c1.9-0.2,3.4-0.9,4.6-1.9c1.2-1.1,1.8-2.4,1.8-4.1c0-2.1-0.6-3.8-1.8-4.9c-1.2-1.2-2.7-1.8-4.6-1.8
			h-0.7c-4.9,0.7-10.9,1.4-17.8,1.9c-7,0.6-12.7,0.9-17.1,0.9c-0.7,0-1.5,0.2-2.5,0.7c-1.7,1.4-2.5,3.3-2.5,5.7
			c0,2.1,0.4,3.5,1.1,4.2c1.9,1.4,4,2.1,6.4,2.1h0.4c-3.1,13.7-4.6,33.4-4.6,59.4c0,17.2,0.6,35.8,1.8,55.8
			c1.2,20,2.5,36.3,3.9,48.8H714L711.9,395.8z"/>
		<path class="st5" d="M915,194.4l-71.7,5c-3.5,0.7-5.7,3.1-6.4,7.2c0,2.4,0.6,4.3,1.8,5.7s2.8,2.1,4.9,2.1
			c7.3-0.2,15.4-0.7,24.4-1.4l-2.1,11.8c-2.8,16.9-4.8,29.7-5.8,38.3c-1.1,8.6-1.6,17.6-1.6,27.2c0,26.5,2.4,61.4,7.1,104.8
			c0.9,8.1,2.1,14.2,3.5,18.2c0.5,1.7,2.8,3.1,6.9,4.3c4.1,1.2,7.4,1.8,9.7,1.8c2.6,0,4.6-1.1,6.2-3.4c1.5-2.3,2.1-4.5,1.6-6.6
			c-2.8-12.2-5-27.1-6.5-44.7c-1.5-17.6-2.3-35.9-2.3-54.7c0-19.1,0.8-37.2,2.3-54.5c1.5-17.3,3.8-31.8,6.9-43.4l8.1-1.1
			c5.9-0.9,10.6-1.5,14.1-1.8c2.8-0.2,4.9-1.1,6.4-2.5c1.4-1.4,2-3.3,1.8-5.7C923.5,196.6,920.5,194.4,915,194.4z"/>
		<path class="st5" d="M1048.8,192.2h-0.7c-5.2,0.2-16.8,0.4-35,0.4l-2.1,0.4c-1.9,1.2-2.8,3.1-2.8,5.7c0,2.1,0.4,3.5,1.1,4.2
			c1.6,1.7,3.7,2.5,6,2.5h1.1c-14.1,30.2-25.4,53.7-33.9,70.7l-4.2,8.8c-2.4,4.7-4.4,8.4-6.2,11.1c-1.8,2.7-2.9,4.1-3.4,4.1
			c-2.4,0-4.1-4.1-5.3-12.4c-1.2-8.2-1.8-16.5-1.8-24.7c0-11.5,0.8-21.2,2.3-29c1.5-7.8,3.9-17.2,7.2-28.3l3.2-0.4
			c1.9-0.2,3.4-0.9,4.6-1.9c1.2-1.1,1.8-2.4,1.8-4.1c0-2.1-0.6-3.8-1.8-4.9c-1.2-1.2-2.7-1.8-4.6-1.8h-0.7
			c-14.4,1.9-26.9,2.8-37.5,2.8c-0.5,0-1.2,0.2-2.1,0.7c-1.9,1.2-2.8,3.1-2.8,5.7c0,1.9,0.5,3.3,1.4,4.2c1.4,1.4,3.6,2.1,6.7,2.1
			h2.5c-4.5,17.2-6.7,35.2-6.7,54.1c0,14.8,2.5,27,7.6,36.6c5.1,9.5,13.3,14.3,24.6,14.3c4.9,0,9.4-2.4,13.4-7.2
			c4-4.8,8.5-11.7,13.4-20.7c4.7-8.7,13.1-25.8,25.1-51.2c0,21-1.1,59-3.2,114.1c0,5.4-0.1,9.1-0.2,11c-0.1,1.9-0.2,2.9-0.2,3.2
			c-1.2,10.8-4,20.7-8.5,29.7c-4.5,9-10,13.4-16.6,13.4c-5.2,0-9.4-2.1-12.7-6.4c-3.3-4.2-4.9-9.7-4.9-16.3v-0.4
			c0.9,0,2.8-0.2,5.7-0.7c2.8-0.5,4.2-2.5,4.2-6c0-4.5-1.4-6.7-4.2-6.7h-0.7c-10.1,1.9-18.8,2.8-26.1,2.8c-0.5,0-0.9,0.2-1.4,0.7
			c-1.4,1.4-2.1,3.3-2.1,5.7c0,1.4,0.4,2.8,1.1,4.2c1.2,1.4,2.7,2.1,4.6,2.1l4.2-0.4v0.4c0,10.4,3.3,18.8,9.9,25.3
			c6.6,6.5,14.1,9.7,22.6,9.7c9.2,0,16.9-1.3,23.1-3.9c6.2-2.6,11.7-8.4,16.3-17.5c4.6-9.1,7.6-22.6,9-40.5
			c0.5-16.3,1.2-40.9,2.1-74c0.9-33.1,1.6-57.6,2.1-73.7v-4.9h4.9c1.9,0,3.4-0.5,4.4-1.6c1.1-1.1,1.6-2.4,1.6-4.1
			C1054.1,194.5,1052.3,192.2,1048.8,192.2z"/>
		<path class="st5" d="M93,386.8h105.2c15.6,0,28.2-12.6,28.2-28.2V253.4c0-15.6-12.6-28.2-28.2-28.2H93
			c-15.6,0-28.2,12.6-28.2,28.2v105.2C64.8,374.2,77.4,386.8,93,386.8z M81.7,253.4c0-6.2,5.1-11.3,11.3-11.3h105.2
			c6.2,0,11.3,5.1,11.3,11.3v105.2c0,6.2-5.1,11.3-11.3,11.3H93c-6.2,0-11.3-5.1-11.3-11.3V253.4z"/>
		<path class="st5" d="M367.5,465h-0.7c-13.4,2-23.4,3.1-30,3.1l-1.8,0.7c-1.4,1.1-2.1,3.1-2.1,5.8c0,2,0.2,3.5,0.7,4.4
			c0.9,1.6,2.7,2.4,5.3,2.4l3.5-0.3c-0.7,6.1-1.1,15.4-1.1,27.8c0,19.2,0.4,41.7,1.1,67.4c0.7,25.7,1.6,47,2.8,64
			c-0.2-0.5-11.1-29.9-32.5-88.3c-0.7-1.4-1.2-2.7-1.6-4.1c-0.4-1.4-0.8-2.6-1.2-3.7l-12.4-33.9c-1.4-3.8-2.9-8-4.6-12.4
			c-1.7-4.4-2.6-6.7-2.8-7c-0.7-1.4-3.9-2.4-9.7-3.2c-5.8-0.8-10.3-1.2-13.6-1.2h-1.1c-3.1,0.2-5,1.8-5.8,4.8
			c-0.8,2.9-1.2,8.8-1.2,17.7c0,23.3,3.5,75,10.6,155.1v2h-3.9c-0.9,0-1.7,0.1-2.1,0.3c-1.2,0.7-2,1.4-2.5,2
			c-0.5,0.7-0.7,1.8-0.7,3.4c0,2.3,0.5,3.9,1.4,4.8c1.4,1.4,3.4,2.5,6,3.4l21.2,1.4c2.4,0.2,7.4,0.3,15.2,0.3c4.2,0,6.4-2,6.4-6.1
			c0-2.7-1.9-5-5.7-6.8l-1.1-0.3h-3.2c-8.2-76.3-12.4-122.2-12.4-137.8c8.5,26.9,23.6,64.8,45.2,113.7c2.4,5.7,5.2,10.4,8.5,14.3
			c2.1,2.7,4.7,4.1,7.8,4.1c2.8,0,5.3-1.5,7.4-4.4c2.1-2.9,3.2-7.2,3.2-12.9v-60.8v-22.1c-0.2-5.9-0.4-15.5-0.4-28.9
			c0-21.7,1.2-40.1,3.5-55c1.9,0,3.3-0.1,4.2-0.3c1.4-0.2,2.6-0.9,3.5-2c0.9-1.1,1.4-2.5,1.4-4.1c0-2.3-0.5-4-1.4-5.3
			C370.1,465.7,368.9,465,367.5,465z"/>
		<path class="st5" d="M388.2,668.5c-1.9,1.2-2.9,3.1-2.9,5.8c0,2.2,0.4,3.6,1.1,4.3c1.2,1.2,3.3,2,6.1,2.5L411,680l13.7-1.4
			c3.9-0.5,5.8-2.4,5.8-5.8c0-2.2-0.5-3.9-1.4-5.2c-1-1.3-2.3-2-4-2h-0.7l-7.2,1.1l-0.7-19.5c-0.5-18.3-0.7-35.2-0.7-50.6
			c0-23.4,0.3-46.8,0.9-70.3c0.6-23.5,1.3-39,2-46.5c1.9,0,3.4-0.1,4.3-0.4c3.9-0.5,5.8-2.4,5.8-5.8c0-2.2-0.5-3.9-1.4-5.2
			c-1-1.3-2.3-2-4-2h-0.7c-4.3,0.7-9.4,1.3-15.2,1.6c-5.8,0.4-11.2,0.5-16.3,0.5c-0.7,0-1.3,0.2-1.8,0.7c-1.7,1.4-2.5,3.4-2.5,5.8
			c0,1.9,0.2,3.4,0.7,4.3c1,1.4,2.8,2.2,5.4,2.2h2.5l-1.1,9.8c-0.5,6.8-0.7,23-0.7,48.8c0,24.6,0.1,48.6,0.4,72
			c0.2,23.4,0.6,42.1,1.1,56.1l-4.7-0.4C389.9,667.7,389.2,668,388.2,668.5z"/>
		<path class="st5" d="M499.2,668.9c8.9-8,19.2-32.9,30.7-74.8c0.5-3.1,0.1-5.8-1.3-8c-1.3-2.2-3.3-3.3-6-3.3
			c-1.7,0-3.3,0.7-4.9,2.2c-1.6,1.4-2.6,3.1-3.1,5.1c-7,24.3-12.4,41.2-16.3,50.6c-3.9,10.4-7.2,15.5-10.1,15.5
			c-2.9,0-5.5-4.6-8-13.7c-2.7-9.4-4.8-21.6-6.5-36.5c-1.7-14.9-2.5-29.9-2.5-44.8c0-14.7,1-27.8,2.9-39.2
			c1.9-11.4,5.3-21.1,10.1-29.1c2.6-4.1,5.7-6.1,9-6.1c3.9,0,7.5,2.3,11,6.9c3.5,4.6,6,10.5,7.4,17.7c1.4,5.1,4.1,7.6,8,7.6
			c2.4,0,4.3-0.8,5.8-2.3c1.4-1.6,2.2-3.7,2.2-6.3c0-4.8-1.8-10.4-5.2-16.6c-3.5-6.3-8-11.7-13.4-16.3c-5.4-4.6-10.8-6.9-16.1-6.9
			c-20.7,0-34.9,8.9-42.6,26.7c-7.7,17.8-11.6,41.1-11.6,69.8c0,16.1,1.9,32.8,5.6,49.9c3.7,17.1,9,31.3,15.7,42.5
			c6.7,11.2,14.3,16.8,22.8,16.8C488.3,676.2,493.7,673.8,499.2,668.9z"/>
		<path class="st5" d="M579.3,505.6c2.7-14.4,6.2-22.9,10.4-25.6c0.5-0.2,1.5-0.3,3.2-0.3c3.1,0,6.7,0.3,11,1c4,0.2,6.9-0.1,8.7-1
			c1.8-0.9,2.6-3.2,2.6-6.8c0-3.2-1.7-5.3-4.9-6.3c-3.3-1-7.8-1.5-13.4-1.5c-8,0-15.5,1.6-22.6,4.8c-7.1,3.2-12.6,8.3-16.6,15.3
			c-4,7.5-7.1,19.2-9.2,35.1c-2.1,16-3.2,34.5-3.2,55.5c0,20.8,1,40.5,3,59.1c2,18.6,4.5,31.9,7.6,40.1c2.1,4.5,6.8,6.8,14.1,6.8
			c5.9,0,15-1.9,27.4-5.8c12.4-3.9,20.1-7.7,23.1-11.5c0.9-1.6,1.4-3.3,1.4-5.1c0-2-0.6-3.7-1.8-4.9c-1.2-1.2-2.8-1.9-4.9-1.9
			c-1.9,0-4.1,0.9-6.7,2.7c-3.5,2.5-6.2,4.2-7.9,5.1c-1.8,0.9-6.4,2.7-14,5.4l-4.9,1.7c-0.7-2.3-2.2-13.3-4.4-33.1
			c-2.2-19.8-3.4-32-3.4-36.5l20.5-9.8c3.3-1.8,4.9-4.2,4.9-7.1c0-1.6-0.4-2.9-1.2-3.9c-0.8-1-1.9-1.5-3.4-1.5
			c-0.9,0-4.2,1.5-9.7,4.6c-5.5,3.1-9.4,5.3-11.5,6.6c0-14,0.2-27.2,0.7-39.4C574.9,533.9,576.6,520,579.3,505.6z"/>
		<path class="st5" d="M93,654.5h105.2c15.6,0,28.2-12.6,28.2-28.2V521.1c0-15.6-12.6-28.2-28.2-28.2H93
			c-15.6,0-28.2,12.6-28.2,28.2v105.2C64.8,641.9,77.4,654.5,93,654.5z M81.7,521.1c0-6.2,5.1-11.3,11.3-11.3h105.2
			c6.2,0,11.3,5.1,11.3,11.3v105.2c0,6.2-5.1,11.3-11.3,11.3H93c-6.2,0-11.3-5.1-11.3-11.3V521.1z"/>
		<path class="st5" d="M297.5,929.1h-0.7l-7.1,1.1l-0.7-19.1c-0.5-17.9-0.7-34.4-0.7-49.5c0-22.8,0.3-45.8,0.9-68.7
			c0.6-23,1.2-38.1,1.9-45.4c1.9,0,3.3-0.1,4.2-0.4c3.8-0.5,5.7-2.4,5.7-5.7c0-2.1-0.5-3.8-1.4-5.1c-0.9-1.3-2.2-1.9-3.9-1.9H295
			c-4.2,0.7-9.2,1.2-14.8,1.6c-5.7,0.4-11,0.5-15.9,0.5c-0.7,0-1.3,0.2-1.8,0.7c-1.6,1.4-2.5,3.3-2.5,5.7c0,1.9,0.2,3.3,0.7,4.2
			c0.9,1.4,2.7,2.1,5.3,2.1h2.5l-1.1,9.5c-0.5,6.6-0.7,22.5-0.7,47.7c0,24,0.1,47.5,0.4,70.3c0.2,22.8,0.6,41.1,1.1,54.8l-4.6-0.4
			c-0.5,0-1.2,0.2-2.1,0.7c-1.9,1.2-2.8,3.1-2.8,5.7c0,2.1,0.4,3.5,1.1,4.2c1.2,1.2,3.2,2,6,2.5l18-1.1l13.4-1.4
			c3.8-0.5,5.7-2.4,5.7-5.7c0-2.1-0.5-3.8-1.4-5.1C300.5,929.7,299.2,929.1,297.5,929.1z"/>
		<path class="st5" d="M454.4,727.3l-71.7,4.9c-3.5,0.7-5.7,3.1-6.4,7.1c0,2.4,0.6,4.2,1.8,5.7c1.2,1.4,2.8,2.1,4.9,2.1
			c7.3-0.2,15.4-0.7,24.4-1.4l-2.1,11.7c-2.8,16.7-4.8,29.3-5.8,37.8c-1.1,8.5-1.6,17.4-1.6,26.9c0,26.1,2.4,60.7,7.1,103.5
			c0.9,8,2.1,14,3.5,18c0.5,1.6,2.8,3.1,6.9,4.2c4.1,1.2,7.4,1.8,9.7,1.8c2.6,0,4.6-1.1,6.2-3.4c1.5-2.2,2.1-4.4,1.6-6.5
			c-2.8-12-5-26.7-6.5-44.2c-1.5-17.4-2.3-35.4-2.3-54.1c0-18.8,0.8-36.8,2.3-53.9c1.5-17.1,3.8-31.4,6.9-42.9l8.1-1.1
			c5.9-0.9,10.6-1.5,14.1-1.8c2.8-0.2,4.9-1.1,6.4-2.5c1.4-1.4,2-3.3,1.8-5.7C462.9,729.5,459.8,727.3,454.4,727.3z"/>
		<path class="st5" d="M586.7,735.5c-5.9-3.5-12.7-5.3-20.5-5.3c-6.8,0-13.4,1.5-19.6,4.4c-6.2,2.9-11.3,7.2-15,12.9
			c-7.3,9.9-12.5,19-15.5,27.4c-3.1,8.4-7,22.3-11.7,41.9l-2.1,9.5c0-33.9,1.2-57.9,3.5-72.1c0.5-2.1,0.7-3.9,0.7-5.3
			c0-1.4,0.1-2.6,0.4-3.5c1.9,0,3.4-0.1,4.6-0.4c4.2-0.5,6.4-2.5,6.4-6c0-2.1-0.6-3.8-1.8-4.9c-1.2-1.2-2.7-1.8-4.6-1.8h-0.7
			c-14.4,1.9-26.6,2.8-36.7,2.8c-0.5,0-1.2,0.2-2.1,0.7c-1.9,1.2-2.8,3.1-2.8,5.7c0,1.4,0.4,2.8,1.1,4.2c0.7,1.4,2.8,2.1,6.4,2.1
			l7.1-0.4l-1.4,9.9c-2.8,21.9-4.2,40-4.2,54.4c0,16.5,0.9,37.6,2.6,63.4c1.8,25.8,3.8,44.8,6.2,57.1h-3.5c-0.9,0-1.9,0.6-3,1.8
			c-1.1,1.2-1.6,2.7-1.6,4.6c0,4.2,2.4,6.4,7.1,6.4l19.1-1.4l14.1-1.4c1.6-0.2,3-0.9,4.1-1.9c1.1-1.1,1.6-2.4,1.6-4.1
			c0-2.1-0.5-3.8-1.6-4.9c-1.1-1.2-2.4-1.8-4.1-1.8h-0.7c-2.4,0.5-4.7,0.7-7.1,0.7c-1.9-17-2.8-27-2.8-30
			c9.2,2.8,35.1,12.6,77.7,29.3c0.7,0.2,1.6,0.4,2.8,0.4c1.9,0,3.6-0.4,5.1-1.2c1.5-0.8,2.5-1.9,3-3.4v-0.4c0.7-5.9-1.3-9.4-6-10.6
			c-5.2-1.4-15.2-5.2-30-11.3c-3.8-1.4-9.7-3.7-17.8-6.9c-8.1-3.2-15.5-5.9-22.1-8.3c22.4-21,40.5-40.5,54.2-58.5
			c13.8-18,21.7-36.2,23.8-54.6c0.2-2.1,0.4-5.1,0.4-8.8c0-6.4-0.5-11.5-1.4-15.5C596.4,743.9,592.6,739,586.7,735.5z M574.7,769.7
			c-1.9,18.1-9,37.1-21.2,56.9c-12.3,19.8-27.1,36.6-44.5,50.5c0.5-3.5,0.9-8.4,1.4-14.7c0.5-6.2,0.8-11.6,1.1-16.1
			c4-29.4,10.2-53.5,18.7-72.1c8.5-18.6,19.1-28.4,31.8-29.3c4.2-0.2,7.5,1.6,9.7,5.5c2.2,3.9,3.4,8.8,3.4,14.7
			C575.1,767,574.9,768.6,574.7,769.7z"/>
		<path class="st5" d="M649.1,929.1h-0.7l-7.1,1.1l-0.7-19.1c-0.5-17.9-0.7-34.4-0.7-49.5c0-22.8,0.3-45.8,0.9-68.7
			c0.6-23,1.2-38.1,1.9-45.4c1.9,0,3.3-0.1,4.2-0.4c3.8-0.5,5.7-2.4,5.7-5.7c0-2.1-0.5-3.8-1.4-5.1c-0.9-1.3-2.2-1.9-3.9-1.9h-0.7
			c-4.2,0.7-9.2,1.2-14.8,1.6c-5.7,0.4-11,0.5-15.9,0.5c-0.7,0-1.3,0.2-1.8,0.7c-1.7,1.4-2.5,3.3-2.5,5.7c0,1.9,0.2,3.3,0.7,4.2
			c0.9,1.4,2.7,2.1,5.3,2.1h2.5l-1.1,9.5c-0.5,6.6-0.7,22.5-0.7,47.7c0,24,0.1,47.5,0.4,70.3c0.2,22.8,0.6,41.1,1.1,54.8l-4.6-0.4
			c-0.5,0-1.2,0.2-2.1,0.7c-1.9,1.2-2.8,3.1-2.8,5.7c0,2.1,0.4,3.5,1.1,4.2c1.2,1.2,3.2,2,6,2.5l18-1.1l13.4-1.4
			c3.8-0.5,5.7-2.4,5.7-5.7c0-2.1-0.5-3.8-1.4-5.1C652,929.7,650.7,929.1,649.1,929.1z"/>
		<path class="st5" d="M736.5,924.5c-1.9,0-4.1,0.9-6.7,2.8c-3.5,2.6-6.2,4.4-7.9,5.3c-1.8,0.9-6.4,2.8-14,5.7L703,940
			c-0.7-2.4-2.2-13.8-4.4-34.4c-2.2-20.6-3.4-33.3-3.4-38l20.5-10.2c3.3-1.9,4.9-4.4,4.9-7.4c0-1.6-0.4-3-1.2-4.1
			c-0.8-1.1-1.9-1.6-3.4-1.6c-0.9,0-4.2,1.6-9.7,4.8c-5.5,3.2-9.4,5.5-11.5,6.9c0-14.6,0.2-28.3,0.7-41c0.7-13.9,2.4-28.3,5.1-43.3
			c2.7-15,6.2-23.8,10.4-26.7c0.5-0.2,1.5-0.4,3.2-0.4c3.1,0,6.7,0.4,11,1.1c4,0.2,6.9-0.1,8.7-1.1c1.8-0.9,2.6-3.3,2.6-7.1
			c0-3.3-1.7-5.5-4.9-6.5c-3.3-1.1-7.8-1.6-13.4-1.6c-8,0-15.5,1.7-22.6,4.9c-7.1,3.3-12.6,8.6-16.6,15.9c-4,7.8-7.1,20-9.2,36.6
			c-2.1,16.6-3.2,35.9-3.2,57.8c0,21.7,1,42.2,3,61.5c2,19.3,4.5,33.2,7.6,41.7c2.1,4.7,6.8,7.1,14.1,7.1c5.9,0,15-2,27.4-6
			c12.4-4,20.1-8,23.1-12c0.9-1.6,1.4-3.4,1.4-5.3c0-2.1-0.6-3.8-1.8-5.1C740.3,925.1,738.7,924.5,736.5,924.5z"/>
		<path class="st5" d="M871.2,776.1c-0.7-26.6-12.1-39.9-34.3-39.9c-6.8,0-13.4,2.7-19.6,8.1c-6.2,5.4-11,12-14.3,19.8
			c-5.2,11.8-8.8,22.5-11,32.2c-2.1,9.7-3.2,21.2-3.2,34.6c0,7.8,0.4,16.6,1.1,26.5c-2.4-6.4-4.7-18.1-7.1-35.2
			c-2.4-17.1-3.5-33.3-3.5-48.6c0-6.8,0.5-13.5,1.6-20c1.1-6.5,1.7-10.1,1.9-10.8l3.5-0.4c4.2-0.5,6.4-2.5,6.4-6
			c0-2.1-0.6-3.8-1.8-4.9c-1.2-1.2-2.7-1.8-4.6-1.8c-15.1,1.9-27.6,2.8-37.5,2.8c-0.9,0-1.9,0.6-3,1.8c-1.1,1.2-1.6,2.7-1.6,4.6
			c0,2.6,0.5,4.3,1.6,5.1c1.1,0.8,2.9,1.2,5.5,1.2l5.7-0.4c-1.2,4.7-1.8,11.3-1.8,19.8v12.4c0,6.8,0.4,14.1,1.1,21.9
			c2.1,23.3,5.9,47.6,11.5,73c5.5,25.3,11,44.7,16.4,58.1c-3.1,0-4.6,2.1-4.6,6.4c0,1.9,0.4,3.4,1.1,4.6c0.7,1.2,2.2,1.8,4.6,1.8
			l14.5-1.4l10.6-1.4c3.1-0.2,4.6-2.2,4.6-6c0-4.5-1.5-6.7-4.6-6.7l-2.5,0.4v-2.1c19.1-14.4,34.7-33.1,46.8-56.2
			c12.1-23.1,17.7-50.1,16.8-80.9C871.5,781.9,871.4,777.7,871.2,776.1z M805.8,912.8c-3.5-19.1-5.3-39.3-5.3-60.8
			c0-14.6,0.8-27.3,2.5-38.2c2.4-15.5,6.5-29.7,12.4-42.4c5.9-12.7,13-19.1,21.2-19.1c4.5,0,7.7,3.6,9.5,10.8
			c1.9,7.2,2.8,15.5,2.8,24.9C848.9,837.8,834.5,879.4,805.8,912.8z"/>
		<path class="st5" d="M198.3,755.1H93c-15.6,0-28.2,12.6-28.2,28.2v105.2c0,15.6,12.6,28.2,28.2,28.2h105.2
			c15.6,0,28.2-12.6,28.2-28.2V783.4C226.5,767.8,213.9,755.1,198.3,755.1z M209.6,888.6c0,6.2-5.1,11.3-11.3,11.3H93
			c-6.2,0-11.3-5.1-11.3-11.3V783.4c0-6.2,5.1-11.3,11.3-11.3h105.2c6.2,0,11.3,5.1,11.3,11.3V888.6z"/>
	</g>
	<path class="st15" d="M98,837.2L98,837.2c5.2-5.2,13.7-5.2,18.9,0l17.4,17.4l38-65.8c3.7-6.4,11.9-8.6,18.2-4.9h0
		c6.4,3.7,8.6,11.9,4.9,18.2l-45.6,79c-0.6,1.8-1.7,3.4-3.1,4.8l0,0c-4.1,4.1-10.2,4.9-15.1,2.6c-0.4-0.2-0.8-0.4-1.2-0.6v0
		c-1.4-0.8-2.6-1.9-3.6-3.1L98,856.1C92.8,850.9,92.8,842.4,98,837.2z"/>
</g>
</svg>
