<?xml version="1.0" encoding="utf-8"?>
<!-- Generator: Adobe Illustrator 23.0.3, SVG Export Plug-In . SVG Version: 6.00 Build 0)  -->
<svg version="1.1" id="Layer_1" xmlns="http://www.w3.org/2000/svg" xmlns:xlink="http://www.w3.org/1999/xlink" x="0px" y="0px"
	 viewBox="0 0 1133.9 1133.9" style="enable-background:new 0 0 1133.9 1133.9;" xml:space="preserve">
<style type="text/css">
	.st0{fill:#1E2121;}
	.st1{fill:#A81F26;}
	.st2{fill:#F2F1F2;}
	.st3{fill:#DD353A;}
	.st4{fill:#CFCFCE;}
	.st5{fill:#1D2121;}
	.st6{fill:none;}
	.st7{fill:#AA1F23;}
	.st8{fill:#FDFEFE;}
	.st9{fill:#EE742C;}
	.st10{fill:#BA5234;}
	.st11{fill:#ED1C24;}
	.st12{fill:#C42C3A;}
	.st13{fill:#058743;}
	.st14{fill:#0F4D70;}
	.st15{fill-rule:evenodd;clip-rule:evenodd;fill:#C42C3A;}
	.st16{fill-rule:evenodd;clip-rule:evenodd;fill:#1E2121;}
	.st17{fill:#E8E8E8;}
	.st18{fill:#186634;}
	.st19{fill:#BF2730;}
	.st20{fill:#B47A48;}
	.st21{fill:#3E1E14;}
	.st22{fill:#DBAD5D;}
	.st23{fill:#B84947;}
	.st24{fill:#C3976E;}
	.st25{fill:#9D2023;}
	.st26{fill:#3C2517;}
	.st27{fill:#4A3A31;}
	.st28{fill:#EDAD4F;}
	.st29{fill:#F8C018;}
</style>
<g>
	<path class="st6" d="M177,334.5c0.5-0.2,1-0.3,1.5-0.5c-0.9-0.3-1.9-0.5-2.9-0.3C175.6,333.7,176.1,334,177,334.5z"/>
	<path class="st7" d="M146.9,312.5c-26.8-8.8-90.9,11.4-102.8,48.2c-11.9,36.9,3.8,82.2,3.8,82.2l2.9,11.5c0,0,11.2,24.6,9.8-0.2
		c-1.9-31.9,6.1-63.7,6.1-63.7c-6.2,25.6,13.5,50.4,13.5,50.4l19.1-29.4c19-41.3,88.6-74.7,88.6-74.7S173.8,321.2,146.9,312.5z"/>
	<path class="st7" d="M57.9,495.8c-1.8,0-3.8-0.5-5.1-0.9c-0.4-0.1-0.7-0.2-1-0.3c-0.1,0-0.2-0.1-0.3-0.1c-0.6,0.2-1.3,0.3-2.1,0.3
		c-2.8,0-5.6-1.2-5.8-1.3l-1-0.4l0-1.1l1.6,0l-1.6-0.1l0,0c0-0.7-0.2-1.7-0.6-2.3c-0.2-0.2-0.4-0.4-0.6-0.5
		c-0.4-0.2-0.5-0.2-0.5-0.2c0,0,0,0,0,0c0.3,0,0.6-0.1,0.9-0.5c0.2-0.3,0.3-0.6,0.3-0.7l-2.6,1.8c-4-4.1-6.5-9.1-7.3-14.2l0-0.1
		c-0.1-0.8,0.2-4.9,0.6-8.2l0-0.4l0.2-0.3c1.5-2.5-0.1-5.3-0.1-5.3l-0.5-0.8l0.5-0.8c2.1-3.5,9.2-8.7,13-10.1
		c0.2-0.1,0.4-0.2,0.5-0.2c-0.1-0.1-0.1-0.1-0.2-0.1l-2.7-1.8l3.1-1.1c0.7-0.2,1.4-0.4,2.2-0.6l0.2,0c0.2-0.1,0.4-0.1,0.7-0.2
		c0.2,0,0.3-0.1,0.5-0.1l0.3-0.1c0.2,0,0.4-0.1,0.6-0.1c0.2,0,0.4,0,0.5-0.1l0.3,0c0.2,0,0.4,0,0.5,0c0.2,0,0.4,0,0.6,0l0.2,0
		c0.2,0,0.3,0,0.5,0l0.1,0c0.2,0,0.4,0,0.6,0l0,1.6l0.1-1.6c0.2,0,0.4,0,0.6,0c0.2,0,0.4,0,0.6,0.1c0.2,0,0.4,0,0.6,0.1
		c0.2,0,0.4,0.1,0.6,0.1c0.2,0,0.4,0.1,0.6,0.1c0.2,0,0.4,0.1,0.5,0.1c0.2,0,0.4,0.1,0.5,0.1c0.2,0,0.3,0.1,0.5,0.1
		c0.2,0.1,0.3,0.1,0.5,0.2c0.2,0.1,0.3,0.1,0.5,0.2c0.2,0.1,0.3,0.1,0.5,0.2c0,0,0.3,0.1,0.5,0.2c0.2,0.1,0.3,0.1,0.5,0.2l0.4,0.2
		c0.2,0.1,0.9,0.4,0.9,0.4l0.8,0.4l1.5,0.7c0.7,0.3,1.3,0.5,1.6,0.5c0.2,0,0.3,0,0.6-0.1c0.3-0.1,0.8-0.3,1.4-0.3
		c0.7,0,1.5,0.2,2.4,0.8c0.2,0.1,0.4,0.3,0.7,0.4c1.6,1,2.8,2.9,3.8,4.8l0.5-0.3c0.2,0.2,0.4,0.4,0.6,0.7c3.6,4.2,4.6,9.6,4.8,13.6
		l1.9,0.4c-0.1,2.1-1.6,11.7-6.5,15.8c-0.1,0.1-0.2,0.2-0.3,0.3c-0.5,0.4-0.8,0.8-1,1l2.2,0.3l-2,2.2c-2.1,2.5-6.1,4.1-12.1,5
		c-1.1,0.2-1.8,0.4-2.1,0.5l0.9,1.3l-2.3,0.6c-0.5,0.1-1,0.2-1.5,0.2C58.2,495.7,58,495.8,57.9,495.8z"/>
	<path class="st8" d="M79.4,471.4c0,0,0-0.2,0-0.5c0-0.5,0.1-1.4,0-2.6c-0.1-3.4-0.9-8.9-4.4-12.9c-0.2-0.2-0.4-0.4-0.5-0.6
		c0,0,2.2,4.1,1.3,5.8c0,0-1.8-7.8-5.3-10.1c-0.2-0.1-0.4-0.3-0.6-0.4c-2.8-1.6-2.1,0.9-5.9-0.8c-0.1,0-0.2-0.1-0.3-0.1
		c-0.1-0.1-0.3-0.1-0.4-0.2c-0.2-0.1-0.5-0.2-0.7-0.3c-0.1,0-0.2-0.1-0.3-0.1c-0.2-0.1-0.3-0.2-0.5-0.2c-0.1-0.1-0.2-0.1-0.4-0.2
		c-0.2-0.1-0.3-0.1-0.5-0.2c-0.1-0.1-0.3-0.1-0.4-0.2c-0.2-0.1-0.3-0.1-0.5-0.2c-0.1-0.1-0.3-0.1-0.4-0.2c-0.2-0.1-0.3-0.1-0.5-0.2
		c-0.1-0.1-0.3-0.1-0.5-0.2c-0.2-0.1-0.3-0.1-0.5-0.1c-0.2,0-0.3-0.1-0.5-0.1c-0.2,0-0.3-0.1-0.5-0.1c-0.2,0-0.3-0.1-0.5-0.1
		c-0.2,0-0.3-0.1-0.5-0.1c-0.2,0-0.3-0.1-0.5-0.1c-0.2,0-0.4,0-0.5-0.1c-0.2,0-0.4,0-0.6-0.1c-0.2,0-0.4,0-0.6,0c-0.2,0-0.4,0-0.6,0
		c-0.2,0-0.4,0-0.6,0c-0.2,0-0.4,0-0.6,0c-0.2,0-0.4,0-0.6,0.1c-0.2,0-0.4,0-0.6,0.1c-0.2,0-0.4,0.1-0.7,0.1c-0.2,0-0.4,0.1-0.6,0.1
		c-0.3,0.1-0.5,0.1-0.8,0.2c-0.7,0.2-1.3,0.3-2,0.6c0,0,2.9,1.9-0.7,3.2c-3.6,1.3-10.3,6.4-12.2,9.4c0,0,2.2,3.6,0.1,6.9
		c0,0-0.7,6.9-0.6,7.8c0.1,0.8,0.8,7.3,6.8,13.5c0,0-0.9-1.8,1.5-0.8c0.5,0.2,0.9,0.6,1.2,1c0.9,1.1,1,2.7,1,3.3c0,0,0,0,0,0
		c0,0,0,0.1,0,0.1c0,0,0,0,0,0c0,0,0,0,0,0c0,0,0,0,0,0s4.5,2,7.2,0.8c0,0,0.1,0,0.2,0.1c0.1,0.1,0.4,0.1,0.6,0.2
		c0.3,0.1,0.6,0.2,0.9,0.3c1.4,0.4,3.4,0.9,5,0.8c0.4,0,0.8-0.1,1.2-0.2c0,0-0.7-1,1-1.8c0.6-0.3,1.4-0.5,2.6-0.7
		c4.9-0.7,9-2.1,11.1-4.5c0,0,0,0-0.1,0c0,0-0.1,0-0.1,0c0,0,0,0-0.1,0c-0.3-0.1-0.6-0.4-0.7-0.9c0-0.6,0.4-1.4,1.9-2.8
		c0.1-0.1,0.2-0.2,0.4-0.3c4.1-3.5,5.8-12,5.9-14.6C81.4,468.3,80.5,470.5,79.4,471.4z"/>
	<path class="st7" d="M106.7,466c-0.3-0.1-7-1.4-13.5-6.8c-0.9-0.8-1.8-1.6-2.6-2.5c0.2,0.4,0.4,0.8,0.7,1.2l-2.4,2.1
		c-0.5-0.5-12.9-11.6-16.7-27.2c-3.9-16.1,22.2-39,23.3-40l2.2,1.6c6.8-10.4,20.7-28.7,40.3-39.6l0.4,0.5c1.9-2.4,4.5-4.9,8.1-6.9
		l1.9,2.5c-0.1,0.1-0.3,0.3-0.4,0.4c5.9-5.1,15.6-12.4,26.8-16.6c0.5-0.2,1-0.4,1.6-0.6c0.4-0.2,0.9-0.3,1.3-0.4
		c2.8-0.9,5.5-1.5,8.1-1.9c0,0,0.2,0,0.5,0c1.2,0,5.4,0.4,8.7,5.9l-0.8,0.7c6.4,3.6,16.6,9.9,21.1,15l-2.1,2.1
		c3.6,3.4,9.4,9.9,9,17.4l-0.1,1.9l-1.8-0.4c-6.9-1.4-14.1-2.1-21.4-2.1c-22.5,0-43.9,6.7-60,18.7c-18.2,13.6-28.8,33.4-30.5,57.1
		c-0.4,5.5-0.3,10.9,0.3,16l0,0.2l-0.2,1.9L106.7,466z"/>
	<path class="st8" d="M209.3,354.4c-0.1-3.9,4.7,0.1,4.7,0.1c-6.5-7.3-26-17.6-26-17.6c2.8-0.6,5.6,1.7,5.6,1.7
		c-3.4-5.6-7.6-5.1-7.6-5.1c-2.7,0.4-5.3,1-7.8,1.9c-0.4,0.1-0.9,0.3-1.3,0.4c-0.5,0.2-1,0.4-1.5,0.5c-18,6.8-32.2,21.9-32.2,21.9
		c-0.7-3.5,4.1-8.3,4.1-8.3c-8.9,4.9-11.3,13.4-11.3,13.4c0.4-4.2,2.8-6.9,2.8-6.9c-27.7,15.3-44.3,46.6-44.3,46.6
		c-0.2-3.8,2.1-8.9,2.1-8.9s-26.5,23-22.8,38.4c3.8,15.3,16.2,26.4,16.2,26.4c-2.9-4.6-1.8-7.9-1.8-7.9c1.8,2.9,4,5.2,6.2,7.1
		c6.2,5.2,12.7,6.5,12.7,6.5c0,0,0,0,0,0c-0.6-5.1-0.7-10.5-0.3-16.3c4.4-61,64.8-85,113.8-75.2
		C221.1,362.9,209.3,354.4,209.3,354.4z"/>
	<g>
		<path class="st5" d="M114.6,664.6c-1.8,0.7-5,2.8-5.5,6.6c-2.2,14.7-5,65.1,1.3,92.7c0.7,3.7,16.5,2.9,16.2-1.7
			c-0.6-7.4-1.3-20.4-1.3-20.4c6.1-1.1,39.5-0.6,40.3-39.3C164.9,663,132.6,661.1,114.6,664.6z M125,727.5
			c0.4-3.7-0.2-33.8,1.8-48.7c0-1.1,1.1-1.8,1.3-1.8c6.1,0,20.6,1.7,21.5,25.2C149.7,726.4,130.4,727,125,727.5z"/>
		<path class="st5" d="M224.1,746.4c-2.2,0.4-27.6,4-35.5,5c0-16.5,0.2-38.2,5.5-83.3c0.4-6.1-19.9-7-20.2-2.2
			c-0.9,13.1-5.9,57.9-1.1,94.7c0.6,5.1,3.1,5.9,6.4,5.1c15.4-2,44.7-1.8,46.9-2.4C232,763.2,229.3,745.9,224.1,746.4z"/>
		<path class="st5" d="M290.1,679c3.5,0.6,5-12.5,2.4-13.1c-2.2-0.7-28.9-5.1-49.3-1.8c-3.3,0.6-6.4,3.3-7,6.6
			c0,1.5-4.4,68.6,3.3,88.8c2.6,5,7,6.3,11.9,6.4c5.5,0,32.7-2.8,41.4-8.8c2.6-1.3-0.7-12.7-4.2-11.4c-21.3,5.7-32.2,6.1-33.5,5.3
			c-0.9-0.6-1.7-5.9-1.5-13.4c2.9,0,28.1-1.3,30-1.3c3.9,0.2,2.8-13.1,0.2-13.6c-2.8,0-26.1,2.6-30,2.6c0-0.4,0.6-37.1,1.5-48
			C263.8,675.7,282.8,677.5,290.1,679z"/>
		<path class="st5" d="M328.5,662.2c-15.3,0-29.2,17.1-29.2,50.7c0,20.8-0.4,40.1,0.6,50.4c0.6,4,16.2,3.1,15.6-1.1
			c-0.4-4-1.5-10.3-1.3-16.7c8.1-0.4,18,0,26.1-0.4c0,2.6-0.7,14.7-0.7,17.3c0,4.8,17.1,4.8,17.6-0.4c0,0,0.7-7.7,0.7-50.4
			C358.3,681.9,346.4,662.2,328.5,662.2z M340.5,732.1c-7.5,0-26.3,0.2-26.7,0.2c-0.2-5.5-0.6-10.7,0-17.5
			c1.3-24.3,7.5-35.7,14.3-35.8c8.1,0.4,12.5,15.8,12.5,36.2C340.9,723.8,340.5,732.1,340.5,732.1z"/>
		<path class="st5" d="M363.5,693.1c0,14.5,13.2,23.2,22.8,28.3c8.5,4.8,18.2,11,18.2,21.3c0,14.2-26.7,11.6-25-4
			c0.6-7.9-14.2-7.7-15.4-1.7c-7.4,36.6,58.3,40.4,58.1,5.5c0-17.1-8.1-23.9-19.7-30.7c-9.6-5.3-18-11.4-19.7-19.1
			c-3.9-16.5,21.1-27.8,24.4-1.8c0.7,5.3,15.1,4.8,14.9-1.3C424.1,653.2,363.5,651.4,363.5,693.1z"/>
		<path class="st5" d="M482.8,679c3.5,0.6,5-12.5,2.4-13.1c-2.2-0.7-28.9-5.1-49.3-1.8c-3.3,0.6-6.4,3.3-7,6.6
			c0,1.5-4.4,68.6,3.3,88.8c2.6,5,7,6.3,11.9,6.4c5.5,0,32.7-2.8,41.4-8.8c2.6-1.3-0.7-12.7-4.2-11.4c-21.3,5.7-32.2,6.1-33.5,5.3
			c-0.9-0.6-1.7-5.9-1.5-13.4c2.9,0,28.1-1.3,30-1.3c3.9,0.2,2.8-13.1,0.2-13.6c-2.8,0-26.1,2.6-30,2.6c0-0.4,0.6-37.1,1.5-48
			C456.5,675.7,475.4,677.5,482.8,679z"/>
		<path class="st5" d="M537.9,693.1c0,14.5,13.2,23.2,22.8,28.3c8.5,4.8,18.2,11,18.2,21.3c0,14.2-26.7,11.6-25-4
			c0.6-7.9-14.2-7.7-15.4-1.7c-7.4,36.6,58.3,40.4,58.1,5.5c0-17.1-8.1-23.9-19.7-30.7c-9.6-5.3-18-11.4-19.7-19.1
			c-3.9-16.5,21.1-27.8,24.5-1.8c0.7,5.3,15.1,4.8,14.9-1.3C598.6,653.2,537.9,651.4,537.9,693.1z"/>
		<path class="st5" d="M657.8,663.3c-4.6,0-26.5-1.1-52.9,0.4c-4.4,0.2-2.9,18,1.3,17.5c3.5-0.2,11.4-0.6,15.4-0.9
			c1.3,30.7,1.5,55,3.7,82.7c0.6,5,17.5,3.3,17.6-0.9c0.7-16.4-0.6-64.9,0.4-83.6c5.3-0.4,10.1-0.4,15.1-0.9
			C662.4,677.3,661.3,663.5,657.8,663.3z"/>
		<path class="st5" d="M709.3,667c-3.7-5.7-17.5-6.3-23.2-2.2c-15.8,7.9-19.7,30.3-19.7,48.9c0,41,18,54.6,33.1,52.8
			c23-2.6,25.6-28.1,25.6-52.2C725.1,692.4,722.9,673.6,709.3,667z M699,749.8c-13.2,1.8-13.8-22.2-13.8-35.1
			c0-13.8-0.2-34.6,14.5-34.4c3.9,0.7,10.5,5,10.5,34C710.4,730.3,710.5,748.1,699,749.8z"/>
		<path class="st5" d="M738.7,664.6c-1.8,0.7-5,2.8-5.5,6.6c-2.2,14.7-5,65.1,1.3,92.7c0.7,3.7,16.5,2.9,16.2-1.7
			c-0.6-7.4-1.3-20.4-1.3-20.4c6.1-1.1,39.5-0.6,40.3-39.3C789,663,756.7,661.1,738.7,664.6z M749.2,727.5
			c0.4-3.7-0.2-33.8,1.8-48.7c0-1.1,1.1-1.8,1.3-1.8c6.1,0,20.6,1.7,21.5,25.2C773.8,726.4,754.5,727,749.2,727.5z"/>
		<path class="st5" d="M879.9,669c-0.2,5.7,1.3,49.6,1.1,51.3c-6.4,0-18,0.4-22.8,0.4c0-2.6,1.8-43.2,2.2-53.7
			c0.2-5.9-19.1-4.8-19.1,0c0,9.7-0.9,91.2,0.6,96.3c0.6,3.5,14.9,3.9,15.1-0.7c0-2.2,0.6-20.8,0.9-26.5c4-0.2,22.4-1.1,23.7-0.7
			c0.2,3.3,1.1,25.2,1.3,27c0.4,4.8,15.1,4.6,15.3,0c0.2-2.4,1.5-60.9,1.7-94.5C899.7,660.8,880.2,661.1,879.9,669z"/>
		<path class="st5" d="M960.4,679c3.5,0.6,5-12.5,2.4-13.1c-2.2-0.7-28.9-5.1-49.3-1.8c-3.3,0.6-6.4,3.3-7,6.6
			c0,1.5-4.4,68.6,3.3,88.8c2.6,5,7,6.3,11.9,6.4c5.5,0,32.7-2.8,41.4-8.8c2.6-1.3-0.7-12.7-4.2-11.4c-21.3,5.7-32.2,6.1-33.5,5.3
			c-0.9-0.6-1.7-5.9-1.5-13.4c2.9,0,28.1-1.3,30-1.3c3.9,0.2,2.8-13.1,0.2-13.6c-2.8,0-26.1,2.6-30,2.6c0-0.4,0.6-37.1,1.5-48
			C934.1,675.7,953,677.5,960.4,679z"/>
		<path class="st5" d="M1028.2,696.1c0-32-25.9-34.9-52-32.5c-2.8,0.6-5.3,2-5.9,6.3c-0.7,8.3-2.2,63.4,2.4,93.9
			c0.7,5.1,19.1,0.6,18.6-3.3c-1.1-4-1.7-7-2.4-13.4c10.1,7.7,25,15.8,28.7,18c5.5,4,14.3-10.7,9-13.1c-5.3-2.9-18.9-10.1-26.1-16.7
			C1019.8,727.9,1028.2,711.3,1028.2,696.1z M987.8,725.3c-0.7-13.8,0.7-37,1.1-45.8c0-0.9,0.9-2.2,1.3-2.4
			c5.1-0.6,20.4-1.1,20.6,17.3C1010.7,698.5,1010.4,719.2,987.8,725.3z"/>
		<path class="st5" d="M1087.4,745.7c-21.3,5.7-32.2,6.1-33.5,5.3c-0.9-0.6-1.7-5.9-1.5-13.4c2.9,0,28.1-1.3,30-1.3
			c3.9,0.2,2.8-13.1,0.2-13.6c-2.8,0-26.1,2.6-30,2.6c0-0.4,0.6-37.1,1.5-48c8.5-1.7,27.4,0.2,34.7,1.7c3.5,0.6,5-12.5,2.4-13.1
			c-2.2-0.7-28.9-5.1-49.3-1.8c-3.3,0.6-6.4,3.3-7,6.6c0,1.5-4.4,68.6,3.3,88.8c2.6,5,7,6.3,11.9,6.4c5.5,0,32.7-2.8,41.4-8.8
			C1094.2,755.8,1090.9,744.4,1087.4,745.7z"/>
		<path class="st5" d="M174.4,532.7c19.8,6.5,47.4,16.6,42.9,38.5c-4.5,23.5-40.1,28.4-45.4-1.6c-4.5-26.7-45.8-25.9-45.8,3.2
			c0,25.9,18.2,61.6,76.1,62.8c19,0.4,70.9-4.9,79.8-60.8c7.3-50.6-35.6-75.3-57.5-85.1c-18.2-8.1-47.4-21.1-44.1-48.2
			c2.8-23.1,43.3-41.7,58.3,6.1c7.3,23.9,47.4,11.7,44.6-14.6c-10.5-85.5-169.3-85.5-176.6,15C102.3,510.8,160.6,527.4,174.4,532.7z
			"/>
		<path class="st5" d="M498.8,533.5c-4.5-2.4-14.6-2.4-19-2.4c0-2.8-3.6-93.2-38.5-137.7c-24.7-32-69.3-25.9-88.7,2.4
			c-4.1,6.9-35.6,42.5-39.3,147.8c-18.2,1.6-19,37.3-0.4,37.7c0,8.5-1.2,29.6,0,39.7c1.2,19.4,40.1,15.8,39.7-3.2
			c0-2.4,3.2-30.4,3.2-41.7c15.8-1.2,35.2-1.2,54.3-3.6c0,4.5,1.6,30.4,2.8,39.7c4.1,30,72.5,31.2,71.7-3.2c0-4.5-1.6-35.6-1.6-40.1
			c2.4,0,13.8-3.6,18.6-6.9C512.2,555.4,510.1,539.2,498.8,533.5z M359.1,537.9c3.2-68.9,16.6-109,25.5-108.5
			c8.9,0.8,16.2,48.6,20.7,105.7C391.5,535.9,374.9,535.9,359.1,537.9z"/>
		<path class="st5" d="M573.3,621.4c0-2-3.6-83.4-5.7-136.1c30,48.2,83,127.6,90.3,144.2c7.3,11.7,51.8,4.1,52.2-15.4
			c0-7.3,2.4-217.9,2.4-223.6c0.8-26.7-47.4-24.3-47-3.6c0,9.7,0.8,83,2,134.1c-17-32-69.3-119.1-74.9-131.2
			c-10.5-22.3-68.5-21.5-68,8.5c0,5.7,1.2,222,4.1,227.6C530.4,641.6,572.5,642.8,573.3,621.4z"/>
		<path class="st5" d="M850.4,422.9c0,0,27.5-1.6,32.4-2c25.5-0.8,29.2-41.7,2.4-45.8c-28.4-3.2-94-3.2-135.7,6.5
			c-27.5,6.5-23.5,52.2,3.2,48.2c8.1-0.8,19.4-1.6,23.9-1.6c-5.3,93.6,7.7,161.2,10.9,184.3c4.5,32.8,57.9,30,58.7-6.1
			C847.1,584.9,848.3,468.7,850.4,422.9z"/>
		<path class="st5" d="M1068.7,608.8c0-4.5-1.6-35.6-1.6-40.1c2.4,0,13.8-3.6,18.6-6.9c10.5-6.5,8.5-22.7-2.8-28.4
			c-4.5-2.4-14.6-2.4-19-2.4c0-2.8-3.6-93.2-38.5-137.7c-24.7-32-69.3-25.9-88.7,2.4c-4.1,6.9-35.6,42.5-39.3,147.8
			c-18.2,1.6-19,37.3-0.4,37.7c0,8.5-1.2,29.6,0,39.7c1.2,19.4,40.1,15.8,39.7-3.2c0-2.4,3.2-30.4,3.2-41.7
			c15.8-1.2,35.2-1.2,54.3-3.6c0,4.5,1.6,30.4,2.8,39.7C1001,642,1069.5,643.3,1068.7,608.8z M943.1,537.9
			c3.2-68.9,16.6-109,25.5-108.5c8.9,0.8,16.2,48.6,20.7,105.7C975.5,535.9,958.9,535.9,943.1,537.9z"/>
	</g>
</g>
</svg>
