<?xml version="1.0" encoding="utf-8"?>
<!-- Generator: Adobe Illustrator 23.0.3, SVG Export Plug-In . SVG Version: 6.00 Build 0)  -->
<svg version="1.1" id="Layer_1" xmlns="http://www.w3.org/2000/svg" xmlns:xlink="http://www.w3.org/1999/xlink" x="0px" y="0px"
	 viewBox="0 0 1133.9 1133.9" style="enable-background:new 0 0 1133.9 1133.9;" xml:space="preserve">
<style type="text/css">
	.st0{fill:#1E2121;}
	.st1{fill:#A81F26;}
	.st2{fill:#F2F1F2;}
	.st3{fill:#DD353A;}
	.st4{fill:#CFCFCE;}
	.st5{fill:#1D2121;}
	.st6{fill:none;}
	.st7{fill:#AA1F23;}
	.st8{fill:#FDFEFE;}
	.st9{fill:#EE742C;}
	.st10{fill:#BA5234;}
	.st11{fill:#ED1C24;}
	.st12{fill:#C42C3A;}
	.st13{fill:#058743;}
	.st14{fill:#0F4D70;}
	.st15{fill-rule:evenodd;clip-rule:evenodd;fill:#C42C3A;}
	.st16{fill-rule:evenodd;clip-rule:evenodd;fill:#1E2121;}
	.st17{fill:#E8E8E8;}
	.st18{fill:#186634;}
	.st19{fill:#BF2730;}
	.st20{fill:#B47A48;}
	.st21{fill:#3E1E14;}
	.st22{fill:#DBAD5D;}
	.st23{fill:#B84947;}
	.st24{fill:#C3976E;}
	.st25{fill:#9D2023;}
	.st26{fill:#3C2517;}
	.st27{fill:#4A3A31;}
	.st28{fill:#EDAD4F;}
	.st29{fill:#F8C018;}
</style>
<g>
	<g>
		<path class="st13" d="M184.8,795.9c-9.5-4.6-18.2-10.3-26.1-17c1.3-2,2.3-5.2,2.8-6.4c3.4-7.4,6.5-14.9,8.7-22.7
			c0.9-3.3,1.6-6.7,1.3-10c-0.3-3.4-1.8-6.8-4.7-8.7c-4.4-3-10.8-1.2-14.4,2.6c-3.7,3.9-5.1,9.3-5.9,14.6
			c-0.9,6.2-0.9,12.5-0.2,18.7c-5.9-6.6-11.2-13.8-15.7-21.6c2.1-1.4,4.2-4.4,5.2-5.4c5.6-5.8,11.1-11.9,15.7-18.6
			c1.9-2.8,3.7-5.7,4.6-9c0.8-3.3,0.5-7-1.6-9.7c-3.2-4.2-9.8-4.7-14.5-2.3c-4.7,2.5-7.9,7.1-10.3,11.8c-3,5.8-5.2,12-6.5,18.3
			c-0.4-1-0.8-2-1.2-2.9c-2.7-6.8-4.7-13.7-6.3-20.7c2.4-0.7,5.4-3.5,6.8-4.4c6.7-4.5,13.3-9.3,19.3-14.9c2.5-2.3,4.9-4.8,6.4-7.9
			c1.5-3.1,2-6.8,0.5-9.8c-2.2-4.8-8.6-6.7-13.7-5.3c-5.1,1.4-9.2,5.3-12.6,9.4c-3.7,4.5-6.8,9.4-9.3,14.6
			c-0.6-8.8-0.4-17.6,0.8-26.3c1.9,1.9,7.7-1.1,9.7-1.8c7.7-2.5,15.4-5.4,22.6-9.1c3-1.6,6-3.3,8.3-5.9c2.3-2.5,3.7-6,3.2-9.3
			c-0.8-5.3-6.4-8.7-11.8-8.8c-5.3,0-10.3,2.6-14.7,5.6c-5.1,3.5-9.7,7.8-13.7,12.5c0.6-2.3,1.3-4.5,2.1-6.7
			c1.3-3.7,2.8-7.3,4.4-10.8c0.2-0.4,0.3-0.8,0.3-1.2c8.6-6.1,24.9-21.9,23.2-31.8c-1-5.9-4.8-10.4-10.6-9.7
			c-9.1,1.1-14,9.4-16,18.5c-0.3,1.3-0.5,2.6-0.8,3.9c-0.8,4.4-1.2,9-1.1,13.5c0,0.3,0.1,1.8,0.3,3.5c-0.2,0.2-0.5,0.5-0.6,0.9
			c-1.4,2.9-2.6,6-3.7,9c-2-5.7-4.7-11.1-8-16.2c-2.9-4.4-6.6-8.7-11.6-10.6c-5-1.9-11.4-0.7-14.2,3.8c-1.7,2.9-1.7,6.7-0.5,9.8
			c1.2,3.2,3.3,5.9,5.5,8.5c5.3,6.1,11.4,11.6,17.6,16.8c1.2,1,3.8,3.9,6.1,5c-1.4,6.3-2.3,12.7-2.7,19.1
			c-3.3-4.8-7.1-9.2-11.4-13.1c-4-3.5-8.6-6.8-13.9-7.4c-5.3-0.6-11.3,2.2-12.7,7.3c-0.9,3.3,0.1,6.9,2,9.6c1.9,2.8,4.7,4.9,7.5,6.8
			c6.7,4.6,13.9,8.4,21.3,11.8c1.4,0.7,4.9,3,7.4,3.3c0.5,7,1.6,14,3.2,21c-4.5-3.9-9.4-7.2-14.7-9.9c-4.7-2.4-10-4.3-15.3-3.5
			c-5.3,0.8-10.3,5-10.4,10.3c-0.1,3.4,1.9,6.6,4.4,8.8c2.6,2.2,5.8,3.5,9,4.7c7.7,2.7,15.6,4.5,23.6,5.9c1.7,0.3,6.3,1.9,8.7,1.2
			c0.3,0.7,0.5,1.4,0.8,2.1c2.2,5.6,4.8,11,7.6,16.2c-5.8-2.2-12-3.6-18.2-4.2c-5.3-0.5-10.9-0.4-15.5,2.3c-4.6,2.6-7.8,8.4-6,13.4
			c1.2,3.2,4.1,5.5,7.3,6.6c3.2,1.1,6.7,1.2,10.1,1.1c8.1-0.2,16.2-1.5,24.2-3.1c1.5-0.3,5.2-0.5,7.5-1.5
			c4.8,6.5,10.1,12.5,15.9,18.1c-6.5-0.6-13-0.4-19.4,0.7c-5.2,0.9-10.6,2.5-14.4,6.3c-3.8,3.8-5.3,10.2-2.2,14.5
			c2,2.8,5.4,4.2,8.8,4.4c3.4,0.2,6.8-0.6,10-1.6c7.8-2.4,15.2-5.8,22.5-9.4c1.5-0.8,6-2.2,7.6-4.2c6.3,4.6,12.9,8.6,20,12
			c0.4,0.2,0.9,0.3,1.3,0.3c1.1,0,2.2-0.6,2.7-1.7C186.8,798.4,186.2,796.6,184.8,795.9z"/>
		<path class="st13" d="M942.4,696.6c-5.3-0.8-10.5,1.1-15.3,3.5c-5.3,2.7-10.2,6-14.7,9.9c1.6-6.9,2.7-13.9,3.2-21
			c2.5-0.3,6-2.6,7.4-3.3c7.3-3.5,14.6-7.2,21.3-11.8c2.8-1.9,5.5-4,7.5-6.8c1.9-2.8,3-6.4,2-9.6c-1.5-5.1-7.5-7.9-12.7-7.3
			c-5.3,0.6-9.9,3.8-13.9,7.4c-4.3,3.9-8.2,8.3-11.4,13.1c-0.4-6.5-1.3-12.9-2.7-19.1c2.3-1.1,4.9-4,6.1-5
			c6.2-5.2,12.3-10.6,17.6-16.8c2.2-2.6,4.3-5.3,5.5-8.5c1.2-3.2,1.2-6.9-0.5-9.8c-2.7-4.6-9.2-5.7-14.2-3.8
			c-5,1.9-8.6,6.2-11.6,10.6c-3.3,5-6,10.5-8,16.2c-1.1-3.1-2.4-6.1-3.7-9c-0.2-0.3-0.4-0.6-0.6-0.9c0.2-1.6,0.3-3.2,0.3-3.5
			c0-4.4-0.4-9-1.1-13.5c-0.2-1.3-0.5-2.6-0.8-3.9c-2-9.1-6.9-17.4-16-18.5c-5.8-0.7-9.6,3.8-10.6,9.7c-1.7,10,14.6,25.7,23.2,31.8
			c0,0.4,0.1,0.8,0.3,1.2c1.6,3.5,3.1,7.1,4.4,10.8c0.8,2.2,1.5,4.5,2.1,6.7c-4-4.7-8.6-8.9-13.7-12.5c-4.4-3-9.3-5.7-14.7-5.6
			c-5.3,0-10.9,3.5-11.8,8.8c-0.5,3.4,0.9,6.8,3.2,9.3c2.3,2.5,5.2,4.3,8.3,5.9c7.2,3.8,14.9,6.6,22.6,9.1c2,0.7,7.8,3.7,9.7,1.8
			c1.2,8.7,1.5,17.5,0.8,26.3c-2.5-5.2-5.6-10.1-9.3-14.6c-3.4-4.1-7.5-8-12.6-9.4c-5.1-1.4-11.5,0.4-13.7,5.3
			c-1.4,3.1-1,6.8,0.5,9.8c1.5,3.1,3.9,5.6,6.4,7.9c5.9,5.6,12.5,10.4,19.3,14.9c1.3,0.9,4.3,3.6,6.8,4.4c-1.5,7-3.6,13.9-6.3,20.7
			c-0.4,1-0.8,2-1.2,2.9c-1.4-6.4-3.5-12.6-6.5-18.3c-2.4-4.7-5.6-9.4-10.3-11.8c-4.7-2.5-11.3-2-14.5,2.3c-2,2.7-2.4,6.4-1.6,9.7
			c0.8,3.3,2.6,6.3,4.6,9c4.6,6.7,10.1,12.8,15.7,18.6c1,1.1,3.2,4,5.2,5.4c-4.5,7.8-9.8,15-15.7,21.6c0.7-6.2,0.7-12.5-0.2-18.7
			c-0.8-5.3-2.2-10.7-5.9-14.6c-3.7-3.9-10-5.6-14.4-2.6c-2.8,1.9-4.3,5.3-4.7,8.7c-0.3,3.4,0.4,6.8,1.3,10
			c2.2,7.8,5.3,15.4,8.7,22.7c0.6,1.2,1.5,4.3,2.8,6.4c-7.9,6.7-16.7,12.5-26.1,17c-1.5,0.7-2.1,2.5-1.4,4c0.5,1.1,1.6,1.7,2.7,1.7
			c0.4,0,0.9-0.1,1.3-0.3c7-3.4,13.7-7.5,20-12c1.6,2,6.1,3.4,7.6,4.2c7.3,3.6,14.7,7,22.5,9.4c3.2,1,6.6,1.8,10,1.6
			c3.4-0.2,6.8-1.6,8.8-4.4c3.1-4.3,1.6-10.7-2.2-14.5c-3.8-3.8-9.1-5.4-14.4-6.3c-6.4-1.1-12.9-1.3-19.4-0.7
			c5.8-5.5,11.2-11.5,15.9-18.1c2.3,1,6,1.2,7.5,1.5c8,1.6,16,2.8,24.2,3.1c3.4,0.1,6.9,0,10.1-1.1c3.2-1.1,6.2-3.4,7.3-6.6
			c1.8-5-1.4-10.8-6-13.4c-4.6-2.6-10.2-2.8-15.5-2.3c-6.2,0.6-12.3,2-18.2,4.2c2.9-5.2,5.4-10.6,7.6-16.2c0.3-0.7,0.5-1.4,0.8-2.1
			c2.4,0.7,7-0.8,8.7-1.2c8-1.4,16-3.2,23.6-5.9c3.2-1.1,6.4-2.5,9-4.7c2.6-2.2,4.5-5.4,4.4-8.8
			C952.7,701.6,947.7,697.4,942.4,696.6z"/>
	</g>
	<g>
		<path class="st12" d="M951.6,875.1l-0.1-0.2c-0.8-1.3-1.8-2.3-3.2-2.8c-0.6-0.2-1.3-0.4-2-0.4c-0.8,0-1.6,0.2-2.5,0.5
			c-17.7,7.8-33.2,15.2-45.9,22c-4-6.9-7.7-13.3-11.1-19v-0.3l-2.3-3.7c-3.6-5-6.1-10.6-7.4-16.6c-0.5-7.1,1.5-12.7,6.2-17.1
			c3.6-3.4,7.6-5.1,12-5.1c1.3,0,2.7,0.1,4,0.4c6,1.3,11.1,7.2,15.2,17.6c0.6,1.4,1.5,2.4,2.8,3.1c0.8,0.4,1.6,0.6,2.5,0.6
			c0.7,0,1.4-0.1,2.2-0.4c1.4-0.6,2.4-1.5,3.1-2.8c0.5-1,1-2.5,0.3-4.6c-3.2-11-8.7-19.5-16.1-25.3c-6.7-5.2-14.1-7.8-22.1-7.8
			c-1.1,0-2.2,0-3.4,0.2c-11.6,1.5-20.5,6.5-26.6,14.9c-6,8.4-8.4,18.4-7.1,30c0.5,4.3,1.7,8.7,3.5,13.1c0.6,1.4,1.4,3.1,2.4,5
			c-1,2.4-2.8,6.9-4.3,10.8c-2.9,7.3-6.4,16.1-10.5,26.2c-4.1,10.1-8.2,19.9-12.3,29.2c-4.1,9.3-7.5,16.5-10,21.3
			c-3,5.4-5.9,9.6-8.7,12.5c-2,2.1-3.3,2.4-3.8,2.4c-0.2,0-0.5-0.1-0.7-0.2c-4.6-4.1-6.4-13.1-5.3-26.7c1.2-14.4,3.8-30.2,7.8-46.9
			c4-16.8,7.8-31.1,11.1-42.6c1.1-3.7,2-6.9,2.7-9.5c0.9-3.7,0.4-7.2-1.4-10.2c-1.8-3.1-4.6-5.2-8.2-6.4l-0.2-0.1
			c-1.1-0.3-2.3-0.4-3.4-0.4c-0.8,0-1.5,0.1-2.2,0.2c-3,0.3-5.8,2-8.5,4.9c-2,2.4-5.6,5.8-10.5,10c-4.9,4.3-10.2,8.1-15.6,11.4
			c-3.4,2.1-6.4,3.3-9.1,3.8c1.1-2.5,2.3-5.5,3.4-9.1c1.8-5.4,3-11,3.7-16.6c0.7-5.9-0.1-10.8-2.4-14.5l-0.1-0.1l-0.1-0.1
			c-2.6-3.4-5.6-5.1-8.7-5.1c-1.9,0-3.9,0.7-5.9,1.9c-4.5,3-8.4,8-11.4,14.9c-3,6.8-4.3,13.8-3.8,20.9c0.5,7.1,3.6,12.7,9.2,16.7
			c0,0.2,0.1,0.3,0.1,0.5c-0.1,0.2-0.1,0.3-0.2,0.5c-2.2,7.1-6.7,15.4-13.4,24.9c-6.7,9.4-14.7,17.4-23.5,23.7
			c-6.4,4.6-12.8,6.9-18.8,6.9c-1.9,0-3.8-0.2-5.7-0.7c-8.2-2.9-12.5-9-13.2-18.5c-0.7-9.5,0.8-19.6,4.7-30.1
			c3,0.5,6.7,0.9,11.1,1.1c0.7,0,1.3,0,2,0c5,0,9.9-0.9,14.8-2.6c4.8-1.8,8.8-5,11.9-9.6c3.8-6.5,5-13.2,3.5-20.1
			c-1.4-6.9-5.3-12.3-11.5-15.9c-3.2-1.9-6.9-2.8-11.1-2.8c-3.9,0-8.2,0.8-12.9,2.4l-0.1,0l-0.1,0.1c-10.5,5.2-19,13.5-25.3,24.6
			c-6.2,11-10,23-11.2,35.5c-0.4,3.7-0.4,7.3-0.2,10.8c-0.1,0.4-0.3,0.7-0.4,1.1c-3.4,9.6-7.7,20.1-12.8,31.2
			c-5.1,10.9-10.5,20.2-16,27.4c-5.2,6.8-10.1,10.2-14.5,10.2h-0.8c-6.4-1.9-11.1-9.3-13.9-22.1c-3-13.8-4.6-25.7-4.6-35.6
			c-0.1-10-0.1-16-0.1-17.8c0-6,0.1-12,0.2-17.7c0.1-5.7,0.4-11.3,0.6-16.6l0.1-1.8l0,0c0.2-4.2,0.4-7.9,0.6-10.8
			c1-19.8,1.8-27.8,2.2-31c2.2,0.1,4.3,0.1,5,0.1l1.5,0l0,0c2.5,0.1,4.8,0.1,7,0.1c2.1,0,4.2,0,6.3-0.1c7.9-0.2,15.5-0.8,22.6-1.7
			c13.4-1.6,23.3-5.9,29.6-13c0.9-1.1,1.4-2.4,1.4-3.8l0-0.2l0-0.1c-0.3-1.3-1.1-2.5-2.4-3.4c-1.2-0.8-2.5-1.2-3.8-1.2l-0.3,0
			l-0.2,0c-1.4,0.2-2.6,0.9-3.8,2c-4.6,5-10.9,7.9-19.3,8.9c-8.8,1-16.7,1.6-23.5,1.8c-2.2,0.1-4.5,0.1-6.8,0.1
			c-3,0-6.1-0.1-9.2-0.2c4-20.4,8.4-35.5,13.1-44.9c1.1-2.1,1.6-4.2,1.6-6.2c-0.2-4.7-2.7-8.3-7.4-10.5c-2.1-1-4.3-1.4-6.5-1.4
			l-0.4,0c-4.9,0.1-8.8,2.5-11.4,6.8c-6.2,12.1-11.8,30.7-16.5,55.5c-3.5-0.1-7-0.2-10.3-0.2c-2.5,0-4.9,0-7.3,0.1
			c-5.4,0.1-10.6,0.5-15.5,1c-10.8,1.1-18.9,4.3-23.8,9.2l-0.1,0.1c-0.9,1.1-1.4,2.4-1.4,3.7c0,1.5,0.7,2.8,1.9,3.8
			c1.1,0.9,2.4,1.3,3.8,1.3l0.6,0c1,0,2.6-0.4,4.1-1.8c3.1-3.1,7.7-5,13.6-5.5c6.5-0.6,12-0.9,16.3-1c2.2-0.1,4.4-0.1,6.7-0.1
			c3.1,0,6.3,0.1,9.7,0.2c-1,8.3-3.1,30.9-4,55.5c-0.2,0.4-0.4,0.8-0.5,1.2l0,0.1l0,0.1c-0.3,2.6-1.7,8.4-4.3,17.2
			c-2.6,8.8-5.9,18.4-9.8,28.4c-3.9,9.9-8.1,17.8-12.6,23.5c-2.6,3.3-4.6,4.3-5.8,4.5c-0.4,0.1-1.8,0.3-3.9-1.3
			c-4.2-4.3-7-11.2-8.1-20.5c-1.2-9.7-1.4-20.3-0.8-31.4c0.7-11.2,1.5-21.4,2.5-30.3c0.6-5.7,1.1-10.4,1.4-14
			c0.1-3.5-1.2-6.5-3.9-8.9c-2.7-2.4-6.2-3.7-10.5-4c-1.3,0-2.6,0.1-3.8,0.3c-2.6,0.4-4.9,1.4-6.9,2.9c-2.9,2.2-4.5,5.1-4.8,8.6
			c-0.2,2-0.4,4.4-0.6,7c-9.4-4.1-18.5-5.4-27.2-3.9c-3.8,0.6-7.5,1.8-11.1,3.5c-6.3,3-11.6,7.3-15.9,13c-0.8,0.6-1.4,1.5-1.7,2.4
			c-3,4.5-5.5,9.8-7.4,15.8c-1.8,3-3.8,6.1-6.2,9.4c-6.7,9.4-14.6,17.4-23.5,23.7c-6.4,4.6-12.8,6.9-18.8,6.9
			c-1.9,0-3.8-0.2-5.7-0.7c-8.2-2.9-12.5-9-13.2-18.5c-0.7-9.5,0.8-19.6,4.7-30.1c3,0.5,6.7,0.9,11.1,1.1c0.7,0,1.3,0,2,0
			c5,0,9.9-0.9,14.8-2.6c4.8-1.8,8.8-5,11.9-9.6c3.8-6.5,5-13.2,3.5-20.1c-1.4-6.9-5.3-12.3-11.5-15.9c-3.2-1.9-6.9-2.8-11.1-2.8
			c-3.9,0-8.2,0.8-12.9,2.4l-0.1,0l-0.1,0.1c-10.5,5.2-19,13.5-25.3,24.6c-1.2,2.2-2.4,4.4-3.4,6.7c-6.1-1.2-11.3-3.1-15.5-5.6
			c-3.8-2.1-6.9-4.2-9-6.2c-2.8-2.6-3.5-3.7-3.8-4.1c-0.8-1.4-2-2.3-3.4-2.8c-0.6-0.2-1.1-0.2-1.7-0.2c-0.8,0-1.7,0.2-2.5,0.5
			l-0.1,0.1l-0.1,0.1c-0.9,0.5-1.6,1.2-2.1,2c-0.9,1.2-1.3,2.6-1.1,4.1c0.4,4.1,0,11.4-1.1,21.7c-1.1,10.4-2.9,21.8-5.2,33.9
			c-2.3,12-5.2,22.7-8.5,31.5c-3.7,10-7.3,13.1-9.6,13.9c0,0,0,0,0,0c-2.6,0-5.4-4.6-7.6-12.6c-2.7-9.7-4.7-21.9-6-36.1
			c-1.3-14.3-1.8-28.1-1.6-41.1c-0.1-5.4-2.4-9.5-6.5-12c-2.6-1.6-5.3-2.4-8-2.4c-1.5,0-3.1,0.3-4.6,0.7c-4.5,1.5-7.5,5.7-8.8,12.8
			c-4,24.3-11.5,44.9-22.1,61.3c-5.3,7.6-8.1,8.4-9,8.4c-0.2,0-0.3,0-0.4-0.1c-2.2-0.7-3.9-3.3-5.1-7.8c-1.3-5.1-1.9-10.9-1.8-17.1
			c0.4-11,1.8-22.6,4.3-34.5l3.1-2.5c2.3-1.9,5.4-4.9,9.6-9.2c4.2-4.5,8-9.7,11.3-15.4c3.4-6,4.9-12.2,4.6-18.4
			c-0.4-6.8-4.2-11.4-11.1-13.4c-1.7-0.5-3.5-0.8-5.4-0.8c-5.1,0-10.5,2-16.1,6.1c-7.4,5.3-12.9,13.7-16.6,24.8
			c-3,9.2-5.3,18.2-6.8,26.7c0,0.2-0.1,0.4-0.1,0.7c-16.4,7.3-30.8,14.2-42.7,20.6c-4-6.9-7.7-13.3-11.1-19v-0.3l-2.3-3.7
			c-3.6-5-6.1-10.6-7.4-16.6c-0.5-7.1,1.5-12.7,6.2-17.1c3.6-3.4,7.6-5.1,12-5.1c1.3,0,2.7,0.1,4,0.4c6,1.3,11.1,7.2,15.2,17.6
			c0.6,1.4,1.5,2.4,2.8,3.1c0.8,0.4,1.6,0.6,2.5,0.6c0.7,0,1.4-0.1,2.2-0.4c1.4-0.6,2.4-1.5,3.1-2.8c0.5-1,1-2.5,0.3-4.5
			c-3.2-11-8.7-19.5-16.1-25.3c-6.7-5.2-14.1-7.8-22.1-7.8c-1.1,0-2.2,0-3.4,0.2c-11.6,1.5-20.5,6.5-26.6,14.9
			c-6,8.4-8.4,18.4-7.1,30c0.5,4.3,1.7,8.7,3.5,13.1c1.6,3.8,4.5,9,8.9,16.2l0.3,0.7l0.1,0.2c3.5,5.8,7.4,12.5,11.6,19.8
			c-8.3,5.7-15.3,12.5-20.9,20.2c-6.1,8.3-9.8,18.2-10.9,29.3c-0.9,10.4,1.2,20,6.2,28.3c5.2,8.6,14,13.7,26.2,15.3
			c1.3,0.1,2.6,0.2,3.9,0.2c10.3,0,19-3.3,26-10c7.7-7.3,12.5-16.9,14.4-28.6c1-9-0.2-19-3.8-29.6c-3.2-9.7-7.4-19.5-12.4-29
			c10.1-5.3,21.9-11.1,35.2-17.2c-0.9,7.3-1.5,14.7-1.8,22.1c0.5,14,2.9,24,7.3,30.5c4.5,6.6,9.9,10.3,16.1,10.8
			c0.8,0.1,1.6,0.1,2.5,0.1c5.1,0,9.8-1.5,14-4.4c4.5-2.9,8.9-7.5,13.2-13.8c5.1-7.7,9.7-16.9,13.7-27.4c0.9,9.7,2.4,19.1,4.5,28.1
			c2.9,12.6,7.4,22.8,13.4,30.3c5.1,6.5,11.7,9.7,19.5,9.7c1.7,0,3.5-0.2,5.4-0.5l0.4-0.1l0.3-0.2c7.4-4.1,13.6-12.9,18.7-26.9
			c4.9-13.4,8.8-28.2,11.5-43.9c2.4-13.5,3.8-25.2,4.3-35c1.9,1.4,4.1,2.8,6.4,4.2c4.9,2.8,10.6,4.9,17.1,6.4
			c-1.8,5.8-3,11.7-3.6,17.8c-1.2,12.7,0.6,24,5.5,33.7c5,10,13.8,16.2,26.1,18.3l0.2,0c1.4,0.1,2.8,0.2,4.1,0.2
			c9.8,0,19.7-3.3,29.4-9.9c9.5-6.5,18-14.4,25.4-23.6c0.3,1.5,0.6,3,1.1,4.5c2.5,8.3,7.3,14.4,14.1,18.1c4.2,2.3,9.2,3,14.6,2.1
			c3.7-0.6,7.7-2,12-4.2l0.2-0.1l0.2-0.1c4.2-3.3,8.1-7.7,11.6-13.2c2.6-3.9,5-8.1,7.3-12.5c0,6.5,0.3,12.9,0.9,19.2
			c1,10.4,3.7,19.5,8,26.8c4.5,7.7,11.5,12.6,20.7,14.4l0.1,0l0.1,0c2.9,0.3,5.8,0.3,8.5-0.2c6.1-1,11.7-4.1,16.6-9
			c6.7-6.7,12.4-15.5,17.1-25.9c1.5-3.4,2.9-6.9,4.3-10.3c0.2,2.9,0.5,5.7,0.8,8.3c0.3,2,0.6,4,0.9,5.9c0.3,2,0.7,3.9,1.1,5.9
			c0.8,3.2,1.2,5.1,1.4,5.9c6.5,25.4,19.1,38.3,37.5,38.3h1.3l0.1,0c14.7-1.6,28.4-15.4,41.9-42.2c3-6.1,5.7-12.2,8.2-18.1
			c0.3,0.6,0.5,1.1,0.8,1.7c5,10,13.8,16.2,26.1,18.3l0.2,0c1.4,0.1,2.8,0.2,4.1,0.2c9.8,0,19.7-3.3,29.4-9.9
			c10.8-7.4,20.3-16.6,28.3-27.4c8-10.8,13.5-21.2,16.4-30.7l0.1-0.2l0-0.2c0-0.2,0-0.4,0-0.7c4.6-0.3,10.1-2.2,17-5.7
			c5.6-2.9,11-6.3,16.2-10c-2.6,9.2-5.3,19.8-8.1,31.5c-3.6,14.8-6.1,29.7-7.6,44.4c-1.5,14.8-0.7,27.6,2.4,37.9
			c3.3,11,10.8,17.2,22.1,18.4l0.1,0l0.6,0c5.6,0,10.8-2.4,15.6-7.2c4.6-4.6,8.8-10.4,12.6-17.1c3.9-6.8,8.7-16.9,14.3-30
			c5.5-13.1,10.8-25.8,15.5-37.9c2-5.2,3.7-9.5,5.1-13.1c3.4,5.6,7.1,11.9,11,18.8c-8.3,5.7-15.3,12.5-20.9,20.2
			c-6.1,8.3-9.8,18.2-10.9,29.3c-0.9,10.4,1.2,20,6.2,28.3c5.2,8.6,14,13.7,26.2,15.3c1.3,0.1,2.6,0.2,3.9,0.2c10.3,0,19-3.3,26-10
			c7.7-7.3,12.5-16.9,14.4-28.6c1-9-0.2-19-3.8-29.6c-3.2-9.7-7.4-19.5-12.4-29c12.5-6.6,27.7-13.9,45.1-21.6
			c1.4-0.6,2.5-1.7,3.1-3.1c0.6-1.4,0.6-3,0-4.5L951.6,875.1z M694.8,853.4c2.8-2,5.2-2.9,7.2-2.9c0.6,0,1.2,0.1,1.8,0.3
			c2.4,0.9,3.9,2.6,4.6,5.3c0.8,2.9,0.2,5.9-1.7,9.2c-1.6,2.3-3.6,3.9-5.9,4.9c-3.5,1.3-7.2,1.9-10.8,1.9c-0.3,0-0.6,0-0.9,0
			c-2.8-0.1-5.3-0.3-7.5-0.6C685.6,863.6,690.1,857.5,694.8,853.4z M378.5,853.4c2.8-2,5.2-2.9,7.2-2.9c0.6,0,1.2,0.1,1.8,0.3
			c2.4,0.9,3.9,2.6,4.6,5.3c0.8,2.9,0.2,5.9-1.7,9.2c-1.6,2.3-3.6,3.9-5.9,4.9c-3.5,1.3-7.2,1.9-10.8,1.9c-0.3,0-0.6,0-0.9,0
			c-2.8-0.1-5.3-0.3-7.5-0.6C369.2,863.6,373.7,857.5,378.5,853.4z M211.3,837c1.1-1.3,2.2-2.3,3.3-3c0,4.1-1.8,8.5-5.3,13.2
			c-2.4,3.2-4.9,6.1-7.3,8.7C204.1,848,207.2,841.7,211.3,837z M122.7,959.3c-0.9,5.2-3.1,9.8-6.5,13.7c-3.3,3.8-7.1,6.3-11.1,7.3
			c-1.7,0.3-3.4,0.5-4.8,0.5h0c-4.7,0-8.3-1.6-10.7-4.8c-3.5-4.5-5.1-10.3-4.9-17.1c0.7-9,3.7-17,8.8-23.8
			c4.7-6.2,10.4-11.7,16.8-16.2c3.8,7.3,6.9,14.5,9.3,21.4C122.2,947.7,123.3,954.1,122.7,959.3z M477.1,891.6
			c-3.6,8.8-7.8,17.1-12.5,24.4c-2.9,4.5-6,8-9,10.4c-0.9,0.6-1.4,0.8-1.7,0.8c-0.2-0.1-0.8-0.7-1.4-2.4c-1.3-4-1.7-9.6-1-16.7
			c0.7-7.2,2.4-14.4,5.1-21.5c2.7-6.8,6.3-12,10.8-15.4c1.6-1.2,3.2-1.9,4.9-2.2c2.8-0.5,6.2,0.2,10,2c0.7,0.3,1.4,0.5,2.1,0.6
			C482.6,877.5,480.1,884.2,477.1,891.6z M758.7,838.9c-0.3,3.5-1.1,7.6-2.4,12.2c-0.9,3.3-2.1,6.5-3.4,9.6
			c-0.8-1.7-1.2-3.5-1.2-5.5c0-3.5,0.7-6.9,2-10.2c1.3-3.3,2.8-6.1,4.4-8.2c0.3-0.4,0.5-0.7,0.8-1
			C758.8,836.7,758.8,837.6,758.7,838.9z M892.8,959.3c-0.9,5.2-3.1,9.8-6.5,13.7c-3.3,3.8-7.1,6.3-11.1,7.3
			c-1.7,0.3-3.4,0.5-4.8,0.5c-4.7,0-8.3-1.6-10.7-4.8c-3.5-4.5-5.1-10.3-4.9-17.1c0.7-9,3.7-17,8.8-23.8
			c4.7-6.2,10.4-11.7,16.8-16.2c3.7,7.3,6.9,14.5,9.3,21.4C892.3,947.7,893.3,954.1,892.8,959.3z"/>
		<path class="st12" d="M75.2,471.5c1.1,0.8,2.2,1.1,3.5,1.1c0.3,0,0.5,0,0.8,0l0.4-0.1c1.1-0.1,2.6-0.7,4-2.4c3-4,7.8-6.7,14.2-7.9
			c6.9-1.3,12.8-2.3,17.4-2.9c5.4-0.7,11.4-1.2,17.8-1.6c-0.4,14.4-12.2,131.5,46.9,131.6c0,0,0.1,0,0.1,0h1.4l0.1,0
			c16.5-1.9,31.9-18,47.1-49.4c1-2.2,2-4.3,3-6.5c2.5,11.3,6.9,20.9,13.4,28.6c7.1,8.5,16.8,12.7,28.8,12.7l0.6,0
			c10.1-0.3,19.7-4.9,28.4-13.7c8.4-8.5,14.7-21.1,19-37.6c0.9-0.4,1.9-0.9,2.9-1.4c11.1-5.7,22-16.5,32.6-32.1l0.1-0.1
			c0.8-1.4,1.1-3,0.8-4.5c-0.3-1.6-1.2-2.9-2.4-3.8c-1.1-0.8-2.3-1.2-3.6-1.2c-0.4,0-0.8,0-1.1,0.1c-1.6,0.3-3,1.3-3.8,2.8
			c-7.5,11.2-15.1,19.5-22.6,24.8c0.2-1.4,0.3-2.8,0.4-4.2c0.5-7.6,0.5-15.2-0.2-22.6c-1.4-12.5-4.4-22.7-8.9-30.1
			c-4.6-7.6-10.1-12.9-16.5-15.8c-4.2-1.9-8.4-2.8-12.6-2.8c-1.6,0-3.3,0.1-4.9,0.4c-5.8,0.9-11.1,3.4-15.9,7.4
			c-4.4,3.7-7.8,8.7-10.2,14.7c-3.4,0.4-6.4,2-9.2,5c-7.5,8.9-12.6,19.9-15.1,32.7c-0.6,3.1-1.1,6.1-1.4,9.2
			c-3.4,9.5-7.5,19.6-12.2,30.1c-5.7,12.8-11.8,23.7-18.1,32.2c-5.9,8-11.4,12.1-16.5,12.1h-0.9c-1-0.3-1.9-0.7-2.8-1.2
			c-27.7-15.3-16.9-109.8-16.4-118.4c0-0.2,0-0.4,0-0.6c6.4-0.4,12.6-1,18.4-1.7c8.5-1.1,16.6-2.5,24.1-4.3
			c14.1-3.2,24.3-9.3,30.2-18.1c0.9-1.4,1.2-2.9,1-4.5l0-0.2l0-0.2c-0.4-1.5-1.4-2.7-2.9-3.6c-1.1-0.7-2.3-1-3.5-1
			c-0.3,0-0.5,0-0.8,0l-0.2,0l-0.2,0c-1.4,0.4-2.6,1.2-3.7,2.7c-4.3,6.3-11,10.5-19.9,12.4c-9.4,2.1-17.8,3.6-25.1,4.5
			c-5.5,0.7-11.4,1.2-17.5,1.6c2-24.4,5.1-42.6,9.1-54.1c0.9-2.5,1.3-5,1-7.3c-0.7-5.3-3.8-9.3-9-11.3c-1.9-0.7-3.8-1.1-5.6-1.1
			c-0.6,0-1.3,0-1.9,0.1c-5.3,0.7-9.1,3.7-11.3,9c-5.4,14.7-9.3,37.1-11.6,66.6c-6.7,0.4-13.1,1-19.1,1.7
			c-5.8,0.7-11.3,1.6-16.6,2.7c-11.5,2.4-19.7,6.9-24.5,13.1l-0.1,0.1c-0.9,1.4-1.2,2.8-1,4.3C73,469.1,73.8,470.5,75.2,471.5z
			 M294.5,446.2c4.4,1.9,8.3,5.8,11.6,11.6c3.4,5.9,5.7,14.2,6.9,24.5c0.7,6.6,0.7,13.4,0,20.4c-0.2,3.9-0.7,7.7-1.5,11.5
			c-3.3,1-6.5,1.5-9.5,1.5c-1.8,0-3.6-0.2-5.4-0.5c-6.9-1.5-13-5.1-18.2-10.6c-5.6-6.1-9.5-13.9-11.7-23.3c0.6-0.9,1.2-1.8,1.9-2.5
			c2.7-3.2,3.9-6.7,3.7-10.5c-0.2-3.7-1.7-6.9-4.5-9.5c1.6-3.9,3.8-7,6.6-9.4c2.9-2.4,6.2-3.9,9.8-4.5c0.9-0.2,1.9-0.2,2.9-0.2
			C289.4,444.5,291.9,445.1,294.5,446.2z M269.2,512.9c6.9,7.5,15.3,12.3,24.9,14.2c2.5,0.5,5.1,0.8,7.8,0.8c2,0,4-0.2,6.1-0.5
			c-3.6,10.8-8.1,18.4-13.4,22.7c-4.3,3.5-8.7,5.3-13,5.3h0c-1.3,0-2.7-0.2-4-0.5c-7.9-2.2-13.2-6.9-16.3-14.1
			c-3.2-7.5-4.7-16-4.4-25.1c0.2-6.6,1-12.6,2.4-17.9C262,503.5,265.3,508.6,269.2,512.9z"/>
		<path class="st12" d="M965.5,455.5c-0.5-1.5-1.6-2.7-2.9-3.5l-0.2-0.1l-0.2-0.1c-0.6-0.2-1.2-0.4-1.8-0.4c-0.9-0.1-1.8,0-2.7,0.3
			c-1.6,0.5-2.8,1.6-3.5,3.2c-0.7,1.2-2.9,5.4-6.6,12.5c-4,7.6-8.8,16.6-14.4,26.8c-5.6,10.3-11.2,20.4-16.7,29.9
			c-5.5,9.5-10,16.8-13.3,21.7c-3.9,5.4-7.5,9.6-10.9,12.4c-2.5,2.1-3.9,2.3-4.5,2.2c-0.3,0-0.6-0.1-0.8-0.3
			c-0.2-0.2-0.3-0.4-0.4-0.5c-14-12,11-82.4,13.1-89.8c1.2-4,2.2-7.4,2.9-10.2c0.9-3.9,0.5-7.6-1.5-10.9c-1.9-3.3-4.9-5.5-8.8-6.8
			l-0.2-0.1c-1.2-0.3-2.5-0.4-3.7-0.4c-0.8,0-1.6,0.1-2.3,0.2c-3.1,0.3-6.2,2.1-9,5.3c-2.2,2.6-6,6.2-11.4,10.8
			c-5.3,4.6-11,8.8-16.9,12.3c-3.9,2.3-7.3,3.8-10.3,4.2c1.3-2.7,2.5-6.1,3.9-10.1c1.9-5.8,3.3-11.8,3.9-17.8
			c0.7-6.4-0.1-11.6-2.6-15.5l-0.1-0.1l-0.1-0.1c-2.8-3.6-5.9-5.4-9.3-5.4c-2,0-4.1,0.7-6.2,2.1c-4.9,3.2-9,8.6-12.3,16
			c-3.2,7.3-4.6,14.9-4.1,22.5c0.5,7.6,3.9,13.7,10,18c0,0.2,0.1,0.4,0.2,0.6c0,0.1-0.1,0.1-0.1,0.2l-0.1,0.1l0,0.1
			c-0.9,3-3.7,9.4-8.3,19.2c-4.6,9.8-10.1,20.2-16.3,31.2c-6.1,10.8-12.1,19.2-17.8,25c-2.7,2.7-5,4.2-6.8,4.2c-0.5,0-1.9,0-3.6-2.4
			c-3.1-5.9-4.1-14.5-2.9-25.6c1.2-11.6,3.5-23.9,6.8-36.8c3.3-13,6.6-24.7,9.7-34.8c2-6.6,3.6-11.9,4.7-16.1c1-4,0.4-7.6-1.6-10.9
			c-2-3.3-5-5.5-9-6.6c-1.3-0.3-2.5-0.5-3.7-0.5c-2.6,0-5,0.7-7.2,2c-3.3,2-5.5,5-6.6,8.9c-0.7,2.4-1.4,5.2-2.3,8.4
			c-8.1-6.7-16.6-10.1-25.4-10.1c-3.8,0-7.6,0.6-11.5,1.9c-13.2,4.3-24.1,15.5-32.4,33.3c-2,4.6-3.4,9.3-4.3,14.1
			c-2.7,6.8-7,14.5-13.1,23c-7.3,10.2-15.8,18.8-25.4,25.6c-7,5-13.8,7.5-20.4,7.5c-2.1,0-4.2-0.3-6.3-0.8
			c-8.9-3.2-13.6-9.8-14.4-20.2c-0.8-10.4,0.9-21.3,5.1-32.7c3.2,0.6,7.3,1,12.2,1.3c0.7,0,1.4,0.1,2.2,0.1c5.3,0,10.7-0.9,15.9-2.8
			c5.2-1.9,9.4-5.3,12.7-10.3c4.1-7,5.3-14.2,3.8-21.5c-1.5-7.4-5.7-13.2-12.3-17c-3.4-2-7.4-3-11.9-3c-4.2,0-8.8,0.9-13.8,2.6
			l-0.1,0l-0.1,0.1c-5.3,2.6-10.1,6-14.5,10.1c-10-0.9-25.2-2.9-31.4-6.3c-4.2-2.2-7.9-3.7-10.5-5.5c-3.4-2.5-4.3-3.5-4.6-4
			c-1-1.4-2.3-2.2-3.9-2.5c-0.6-0.1-1.2-0.1-1.8,0c-0.9,0.1-1.7,0.4-2.5,0.9l-0.1,0.1l-0.1,0.1c-0.9,0.7-1.5,1.5-1.9,2.4
			c-0.8,1.4-1,2.9-0.7,4.4c0.9,4.3,1.5,12.2,1.6,23.5c0.2,11.3-0.3,23.8-1.2,37.1c-0.9,13.2-2.7,25-5.1,34.9
			c-2.7,11.3-6.2,15.1-8.7,16.3c0,0,0,0-0.1,0c-1.7,0.2-5.3-1.2-10-12.7c-4.1-10.1-7.9-22.9-11.1-37.9c-3.2-15.1-5.6-29.9-7-43.9
			c-0.9-5.7-3.7-9.7-8.4-11.9c-3-1.3-5.9-1.9-8.8-1.5c-1.6,0.2-3.2,0.7-4.8,1.4c-4.6,2.1-7.2,7-7.7,14.6
			c-1.2,26.6-6.5,49.7-15.8,68.7c-4.8,8.9-7.7,10.2-8.8,10.3c-0.2,0-0.4,0-0.5,0c-2.5-0.4-4.7-3.1-6.6-7.8
			c-2.1-5.3-3.5-11.5-4.1-18.2c-1-11.9-1-24.6,0.1-37.7l3.1-3.1c2.2-2.4,5.2-6,9-11.1c3.9-5.3,7.3-11.4,10.1-17.9
			c2.8-6.8,3.7-13.6,2.6-20.2c-1.3-7.1-5.9-11.5-13.5-12.8c-1.9-0.3-3.9-0.4-5.8-0.1c-5.4,0.7-10.9,3.5-16.4,8.5
			c-7.2,6.6-12,16.3-14.5,28.6c-2,10.2-3.3,20.1-3.9,29.5c-0.9,13.2-0.7,26.4,0.4,39.5c2.4,15,6.2,25.3,11.7,31.7
			c5.7,6.5,11.9,9.7,18.5,9.5c0.9,0,1.8-0.1,2.6-0.2c5.4-0.7,10.2-2.8,14.3-6.5c4.4-3.7,8.5-9.2,12.3-16.4
			c4.6-9.1,8.4-19.8,11.4-31.9c2.2,10.6,5.1,20.8,8.6,30.4c4.8,13.1,10.9,23.5,18.2,30.7c6.3,6.2,13.7,8.9,22,7.9
			c1.8-0.2,3.7-0.6,5.6-1.2l0.4-0.1l0.3-0.2c7.4-5.3,12.8-15.5,16.5-31.1c3.5-15,5.8-31.3,6.7-48.5c0.8-14.9,0.8-27.8,0.1-38.5
			c2.3,1.3,4.9,2.6,7.7,3.8c5,2.1,16.5,4.5,27.2,5.5c-1.3,1.9-2.5,3.8-3.7,5.8c-6.7,11.9-10.8,24.8-12.1,38.3
			c-1.3,13.6,0.7,25.9,5.9,36.3c5.4,10.8,14.8,17.4,28,19.6l0.2,0c1.5,0.1,3,0.2,4.4,0.2c10.6,0,21.2-3.6,31.6-10.7
			c11.6-7.9,21.9-17.9,30.5-29.5c1.9-2.5,3.6-5,5.2-7.5c1.5,5.5,4,10.1,7.7,13.7c3.5,3.5,8,5.3,13.4,5.3c3.7,0,7.9-0.8,12.5-2.5
			l0.2-0.1l0.2-0.1c4.8-3,9.6-7.3,14.3-13c3.6-4.3,7.2-9,10.6-14c-1.7,7.9-3,15.8-4,23.6c-1.5,12.3-1.1,23.4,1.3,32.8
			c2.5,9.8,8,16.8,16.4,20.7l0.2,0.1c2.7,0.9,5.5,1.4,8.2,1.4c6.1,0,12.1-2.4,18-7.2c8-6.5,15.7-15.5,22.6-26.7
			c6.9-11.1,12.9-22.3,17.7-33.3c4.8-11,8.4-19.6,10.6-25.7l0-0.1l0-0.1c0.1-0.5,0.2-1,0.2-1.5c4.9-0.4,10.8-2.4,18.1-6.2
			c6.2-3.2,12.2-7,17.9-11.2v0c-1.9,7.1-22.8,69-8.6,94.6h0c0,0,0,0.1,0,0.1c0.9,1.5,1.9,2.9,3,4.2c2.7,3.2,7.4,7,14.8,7.9
			c0,0,0,0,0.1,0l0.1,0l0.6,0.1c0.5,0.1,0.9,0.1,1.3,0.1c5.5,0.3,10.9-1.7,16.1-5.9c5.4-4.4,10.7-10.1,15.6-16.8
			c5-6.8,11.3-17.1,18.9-30.5c7.5-13.4,14.7-26.5,21.2-38.8c6.7-12.6,10.8-20.5,12.6-24.3C966,458.7,966.1,457.1,965.5,455.5z
			 M447.2,432.9c1.1-1.7,2.3-3,3.5-4c0.6,4.5-0.7,9.7-4,15.4c-2.4,4.1-4.8,7.7-7.2,10.9C440.7,446.1,443.3,438.7,447.2,432.9z
			 M709.2,520.3c-0.5,0-0.9-1.4-1.1-3.3c-0.3-4.9,0.7-11.5,3-19.7c2.4-8.3,5.8-16.4,10.1-24c4.2-7.5,9-12.8,14.2-15.9
			c1.8-1.1,3.6-1.6,5.4-1.6c2.9,0,6,1.4,9.3,4.3c0.6,0.5,1.3,0.9,2,1.2c-3.1,6.4-7.1,13.8-11.9,22c-5.6,9.6-11.6,18.4-18,26
			c-3.9,4.6-7.7,8.1-11.3,10.4C710,520.2,709.4,520.3,709.2,520.3z M641.1,472.9c-1.8,2.6-3.9,4.3-6.5,5.3
			c-3.8,1.4-7.8,2.1-11.8,2.1c-0.3,0-0.7,0-1,0c-3.1-0.1-6-0.3-8.4-0.7c4.4-8.7,9.3-15.4,14.5-19.9c3-2.1,5.7-3.2,7.9-3.2
			c0.7,0,1.4,0.1,2,0.3c2.6,0.9,4.3,2.9,5.1,5.9C643.8,466,643.2,469.3,641.1,472.9z M834.4,444.4c-0.3,3.8-1.2,8.3-2.6,13.2
			c-1,3.7-2.3,7.3-3.9,10.8c-1-2-1.6-4.1-1.6-6.4c0-3.8,0.7-7.5,2.2-11.1c1.5-3.6,3-6.6,4.7-8.9c0.4-0.6,0.8-1.1,1.1-1.4
			C834.5,441.4,834.6,442.6,834.4,444.4z"/>
	</g>
	<g>
		<path class="st13" d="M152.2,160.1l-87,6c-4.3,0.6-6.9,3.1-7.7,7.7c0,2.6,0.7,4.6,2.1,6.2c1.4,1.6,3.4,2.4,6,2.4l29.6-1.3
			L92.7,194c-3.4,18.8-5.8,33.1-7.1,42.8c-1.3,9.7-1.9,19.9-1.9,30.4c0,29.7,2.9,68.5,8.6,116.5c1.1,8.6,2.6,15.4,4.3,20.6
			c0.6,2,3.4,3.6,8.4,4.7c5,1.1,8.9,1.7,11.8,1.7c3.1,0,5.6-1.2,7.5-3.6c1.9-2.4,2.5-4.9,1.9-7.5c-3.4-13.7-6.1-30.3-7.9-49.7
			c-1.9-19.4-2.8-39.7-2.8-60.8c0-21.1,1-41.4,3-60.8c2-19.4,4.7-35.6,8.1-48.4l9-1.3l18-1.7c3.4-0.3,6-1.3,7.7-3s2.4-3.9,2.1-6.4
			C162.5,162.6,158.8,160.1,152.2,160.1z"/>
		<path class="st13" d="M282.8,217.1c-2.9,0-6.6,1.1-11.1,3.4c-3.4-14.8-8.3-27.9-14.6-39.2c-6.3-11.3-13.6-19.2-21.8-23.8
			c-6.3-2.9-11.4-4.3-15.4-4.3c-8,0-15.3,2.6-21.8,7.7c-6.6,5.1-9.9,12-9.9,20.6c0,5.1,1.3,11.5,3.9,19.1c2.6,7.6,5.7,13.6,9.4,18.2
			c-21.7,3.7-32.6,23-32.6,57.8c0,16.6,2,34.4,6,53.5c4,20.8,11.1,39.8,21.2,56.8c10.1,17,23.8,25.5,40.9,25.5
			c5.7,0,11-2.6,15.8-7.9c4.9-5.3,8.7-12.1,11.6-20.3c4.9-16.8,8.3-32.5,10.3-46.9c2-14.4,3-29.6,3-45.6c0-5.4-0.6-18.7-1.7-39.8
			l-0.9-11.6c6.3-3.4,10.3-6,12.2-7.7c1.9-1.7,2.8-4,2.8-6.9C290.1,220,287.7,217.1,282.8,217.1z M220.7,173c5.4,0,11,4.7,16.7,14.1
			c5.4,9.4,9.9,21.4,13.3,36c-5.1-0.3-10.7-3-16.7-8.1c-6-5.1-11-10.8-15-17.1c-4-6.3-6-11.7-6-16.3C213,175.8,215.6,173,220.7,173z
			 M249.4,348.6c-3.7,28.8-8.3,43.1-13.7,42.8c-4.6-0.3-9.3-6.4-14.1-18.4c-4.6-11.7-8.3-26.1-11.1-43c-2.9-17-4.3-33.5-4.3-49.5
			c0-28,4.4-44.8,13.3-50.5c8.3,6,19.7,10.1,34.3,12.4c0.9,2.9,1.3,10.6,1.3,23.1C255,288.9,253.1,316.6,249.4,348.6z"/>
		<path class="st13" d="M414.3,217.1c-2.9,0-6.6,1.1-11.1,3.4c-3.4-14.8-8.3-27.9-14.6-39.2c-6.3-11.3-13.6-19.2-21.8-23.8
			c-6.3-2.9-11.4-4.3-15.4-4.3c-8,0-15.3,2.6-21.8,7.7c-6.6,5.1-9.9,12-9.9,20.6c0,5.1,1.3,11.5,3.9,19.1c2.6,7.6,5.7,13.6,9.4,18.2
			c-21.7,3.7-32.6,23-32.6,57.8c0,16.6,2,34.4,6,53.5c4,20.8,11.1,39.8,21.2,56.8c10.1,17,23.8,25.5,40.9,25.5
			c5.7,0,11-2.6,15.8-7.9c4.9-5.3,8.7-12.1,11.6-20.3c4.9-16.8,8.3-32.5,10.3-46.9c2-14.4,3-29.6,3-45.6c0-5.4-0.6-18.7-1.7-39.8
			l-0.9-11.6c6.3-3.4,10.3-6,12.2-7.7c1.9-1.7,2.8-4,2.8-6.9C421.6,220,419.2,217.1,414.3,217.1z M352.2,173c5.4,0,11,4.7,16.7,14.1
			c5.4,9.4,9.9,21.4,13.3,36c-5.1-0.3-10.7-3-16.7-8.1c-6-5.1-11-10.8-15-17.1c-4-6.3-6-11.7-6-16.3
			C344.5,175.8,347.1,173,352.2,173z M380.9,348.6c-3.7,28.8-8.3,43.1-13.7,42.8c-4.6-0.3-9.3-6.4-14.1-18.4
			c-4.6-11.7-8.3-26.1-11.1-43c-2.9-17-4.3-33.5-4.3-49.5c0-28,4.4-44.8,13.3-50.5c8.3,6,19.7,10.1,34.3,12.4
			c0.9,2.9,1.3,10.6,1.3,23.1C386.5,288.9,384.6,316.6,380.9,348.6z"/>
		<path class="st13" d="M598.1,292.1c-2,0-3.9,0.9-5.8,2.6c-1.9,1.7-3.1,3.7-3.6,6c-8.3,28.8-14.7,48.8-19.3,60
			c-4.6,12.3-8.6,18.4-12,18.4s-6.6-5.4-9.4-16.3c-3.1-11.1-5.7-25.6-7.7-43.3c-2-17.7-3-35.4-3-53.1c0-17.4,1.1-32.9,3.4-46.5
			c2.3-13.6,6.3-25.1,12-34.5c3.1-4.9,6.7-7.3,10.7-7.3c4.6,0,8.9,2.7,13.1,8.1c4.1,5.4,7.1,12.4,8.8,21c1.7,6,4.9,9,9.4,9
			c2.9,0,5.1-0.9,6.9-2.8c1.7-1.9,2.6-4.4,2.6-7.5c0-5.7-2.1-12.3-6.2-19.7c-4.1-7.4-9.4-13.8-15.8-19.3c-6.4-5.4-12.8-8.1-19.1-8.1
			c-24.6,0-41.4,10.6-50.5,31.7c-9.1,21.1-13.7,48.7-13.7,82.7c0,19.1,2.2,38.8,6.6,59.1c4.4,20.3,10.6,37.1,18.6,50.3
			c8,13.3,17,19.9,27,19.9c6.3,0,12.7-2.9,19.3-8.6c10.6-9.4,22.7-39,36.4-88.7c0.6-3.7,0.1-6.9-1.5-9.4
			C603.6,293.4,601.2,292.1,598.1,292.1z"/>
		<path class="st13" d="M740.3,168.3c-2.3-0.9-4.7-0.1-7.3,2.4c-2.6,2.4-4.1,5.6-4.7,9.6c-0.6,3.7-1.1,8.3-1.7,13.7l-2.6,25.3
			c-2.6,25.4-6.6,59.4-12,101.9l-2.6,19.3c-2.6,15.7-5.9,26.6-10.1,32.8c-4.1,6.1-7.8,9.1-10.9,8.8c-6,0-11.4-9.9-16.3-29.6
			c-4.3-16.3-7.6-36.1-10.1-59.5c-2.4-23.4-3.6-45.8-3.6-67.3c0-8.3,0.1-14.3,0.4-18c0-3.7,0.1-8.1,0.4-13.1c0.3-5,0.6-8.9,0.9-11.8
			c0-3.7-0.2-6.4-0.6-7.9c-0.4-1.6-1.6-2.9-3.6-4.1c-8,0.3-13.9,1.3-17.8,3c-3.9,1.7-6.4,4.3-7.5,7.7c-2.3,5.7-3.7,17.4-4.3,35.1
			v14.6c0,35.1,1.9,63.7,5.6,85.7c2.6,16.9,5.6,31.3,9.2,43.5c3.6,12.1,9,22.6,16.3,31.3c7.3,8.7,17.1,13.1,29.3,13.1
			c12.6,0,22.1-5,28.5-15c6.4-10,12-29.9,16.7-59.8c4.7-29.8,10.3-79.6,16.9-149.3C749.7,174.4,746.9,170.3,740.3,168.3z"/>
		<path class="st13" d="M853.4,160.1l-87,6c-4.3,0.6-6.9,3.1-7.7,7.7c0,2.6,0.7,4.6,2.1,6.2c1.4,1.6,3.4,2.4,6,2.4l29.6-1.3
			l-2.6,12.9c-3.4,18.8-5.8,33.1-7.1,42.8c-1.3,9.7-1.9,19.9-1.9,30.4c0,29.7,2.9,68.5,8.6,116.5c1.1,8.6,2.6,15.4,4.3,20.6
			c0.6,2,3.4,3.6,8.4,4.7c5,1.1,8.9,1.7,11.8,1.7c3.1,0,5.6-1.2,7.5-3.6c1.9-2.4,2.5-4.9,1.9-7.5c-3.4-13.7-6.1-30.3-7.9-49.7
			c-1.9-19.4-2.8-39.7-2.8-60.8c0-21.1,1-41.4,3-60.8c2-19.4,4.7-35.6,8.1-48.4l9-1.3l18-1.7c3.4-0.3,6-1.3,7.7-3
			c1.7-1.7,2.4-3.9,2.1-6.4C863.7,162.6,860,160.1,853.4,160.1z"/>
		<path class="st13" d="M965.2,392.1c-1.4-1.6-3.4-2.4-6-2.4c-2.3,0-5,1.1-8.1,3.4c-4.3,3.1-7.5,5.3-9.6,6.4
			c-2.1,1.1-7.8,3.4-16.9,6.9l-6,2.1c-0.9-2.9-2.6-16.8-5.4-41.8c-2.7-25-4.1-40.3-4.1-46l24.8-12.4c4-2.3,6-5.3,6-9
			c0-2-0.5-3.6-1.5-4.9c-1-1.3-2.4-1.9-4.1-1.9c-2,0-3.9,0.9-5.6,2.6l-9.4,5.6c-6.3,3.4-9.9,5.4-10.7,6c0-17.7,0.3-34.3,0.9-49.7
			c0.9-16.8,2.9-34.3,6.2-52.5c3.3-18.1,7.5-28.9,12.6-32.3c0.9-0.3,2.7-0.4,5.6-0.4c2.6,0,4.6,0.1,6,0.4l5.6,0.9
			c4.3,0.3,7.6-0.5,10.1-2.4c2.4-1.9,3.6-4.2,3.6-7.1c0-2.3-0.9-4.4-2.6-6.4c-2.9-2.6-9.4-3.9-19.7-3.9c-9.7,0-18.8,2-27.4,6
			c-8.6,4-15.3,10.4-20.1,19.3c-4.9,9.4-8.6,24.2-11.1,44.3s-3.9,43.5-3.9,70c0,26.3,1.2,51.1,3.6,74.5c2.4,23.4,5.5,40.3,9.2,50.5
			c0.9,2,3.2,3.5,7.1,4.5c3.9,1,10.8,1.5,20.8,1.5c8.6,0,18.3-2.1,29.3-6.4c11-4.3,18.1-8.6,21.2-12.9c1.1-2,1.7-4.1,1.7-6.4
			C967.3,395.7,966.6,393.7,965.2,392.1z"/>
	</g>
	<g>
		<path class="st14" d="M297.5,609.9c0,6.2,2.7,63.7,2.7,87c0,19.2-0.3,69.2-31.8,69.9c-45.5,1-19.2-155.1-19.2-159.9
			c3.8-27.7-57.2-23.6-58.2-4.5c-2.1,18.1-7.2,67.1-5.8,115.4c2.7,76.7,44.9,92.4,82.5,92.4c69.5,0,72.2-76,74.6-97.6
			c2.4-23.6-1-95.5-3.4-106.5C335.5,583.6,296.1,587,297.5,609.9z"/>
		<path class="st14" d="M522.5,678.4c-30.5,1.7-59.2,9.6-68.8,14c-18.5,8.6-10.3,41.1,12,35.3c2.1,0,10.3-2.4,19.5-4.5
			c0,4.8-1,49-32.2,49.3c-18.1,0.3-32.9-7.9-32.5-68.8c0.7-66.8,24-74.3,31.8-76.7c16.8-4.5,27.7,15.8,30.1,25.3
			c4.8,20.2,43.5,11.3,37.3-15.4c-9.9-37.3-25-48.3-66.8-48.6c-61.3-0.3-93.8,54.4-96.6,114.7c1,66.1,33.6,110.3,95.2,109.2
			c31.2-1,75-17.1,74.6-97.6C547.8,710.2,543.3,677.4,522.5,678.4z"/>
		<path class="st14" d="M833,608.9c-5.5-29.1-50-26-53.8,3.1c-5.1,50.3-26.7,76.4-40.7,75.3c-15.1-0.3-1.7-67.8-1.7-72.2
			c4.1-32.5-47.6-35.3-55.8-7.9c-2.4,5.1-37.7,121.6,53.4,123.3c34.2-3.8,44.5-28.1,53.1-40.7v3.1c-8.2,84.6-52.7,88.3-64,63
			c-12-26.7-44.2-15.4-39,9.9c9.6,38.3,37.7,46.6,65.1,47.3C809.7,814.3,858.4,757.8,833,608.9z"/>
		<path class="st14" d="M609.8,609.2c1.4-26.7-48.3-27-53.1-3.4c-1.7,5.8-18.8,123.9-3.4,180.8c2.3,5.2,4.5,10.7,8.4,15.2
			c4.4-20.9,9.5-37.1,15.2-48.1l0.1-0.2c3.4-5.8,8.9-9,15.5-9.2c0,0,0.5,0,0.5,0c2.6,0,5.2,0.5,7.6,1.5
			C603.2,704.2,609.5,616.7,609.8,609.2z"/>
		<path class="st14" d="M656,758.2c-3.8,0.5-28.9,4.2-44.6,6.7c-0.4,1.6-0.9,3.1-1.7,4.7c-4,8-7.9,20.8-11.5,37.9c1.1,0,2.2,0,3.3,0
			c2.3,0,4.5,0,6.7-0.1c5.1-0.1,11-0.5,17.3-1.1c4.6-0.8,9.3-1.7,14.2-2.6c3.1-1.2,5.8-3,7.9-5.3l0.2-0.2c1.9-1.8,4-3,6.4-3.3
			l0.3-0.1l0.5,0c0,0,0.3,0,0.3,0c2.4,0,4.6,0.7,6.6,2c0.8,0.5,1.5,1.2,2.1,1.9C685.2,790.5,679.2,755.6,656,758.2z"/>
	</g>
</g>
</svg>
