<?xml version="1.0" encoding="utf-8"?>
<!-- Generator: Adobe Illustrator 26.1.0, SVG Export Plug-In . SVG Version: 6.00 Build 0)  -->
<svg version="1.1" id="Layer_1" xmlns="http://www.w3.org/2000/svg" xmlns:xlink="http://www.w3.org/1999/xlink" x="0px" y="0px"
	 viewBox="0 0 2677 2048" style="enable-background:new 0 0 2677 2048;" xml:space="preserve">
<style type="text/css">
	.st0{fill:#231F20;}
</style>
<path transform="translate(0.000000,2048.000000) scale(0.100000,-0.100000)" class="st0" d="M15777,17315c-344-56-717-226-1053-480
	c-399-302-662-740-712-1185c-6-49-11-64-22-63c-8,1-80,25-160,52c-178,62-326,88-542,97c-261,10-537-26-809-107
	c-148-44-359-152-506-261c-58-42-73-46-73-20c0,33-79,250-121,333c-101,202-309,461-487,607c-459,377-1140,503-1711,316
	c-131-43-316-133-441-214c-314-205-636-555-894-973c-227-367-405-819-490-1247c-114-567-74-1257,98-1725c54-145,223-483,303-605
	c136-206,338-436,512-582c202-168,525-354,736-423c50-16,93-32,98-35c4-3-29-66-72-139c-108-178-134-234-139-296
	c-8-93,31-161,117-204c45-23,156-48,286-64l100-12l32-140c74-318,115-625,116-860c0-294-20-377-329-1300c-317-949-397-1234-455-1615
	c-27-175-33-564-11-715c42-292,104-524,223-837c198-519,248-699,256-919c10-272-42-498-227-974c-149-384-250-751-252-917
	c-1-109,49-186,141-217c101-34,203,22,260,143c16,33,48,120,71,191c107,333,155,467,231,651c189,457,262,755,262,1069
	c0,298-59,532-262,1054c-200,509-260,793-248,1166c6,201,29,360,83,595c66,282,85,348,354,1210c180,578,222,725,254,886
	c65,332,55,584-38,994c-34,146-100,376-132,453c-13,33-24,61-24,63c0,1,93,4,208,6c189,3,211,6,258,27c60,26,93,58,125,120
	c44,86,28,198-73,509c-22,68-38,125-36,127c2,1,43,19,91,39c341,141,639,364,875,656c47,58,88,104,93,103c4-2,39-23,77-47
	c267-173,616-290,960-322l73-7l-6-131c-9-155,2-220,48-296c59-98,160-146,329-159l90-6l39-123c115-363,164-887,115-1227
	c-39-269-84-447-222-880c-224-699-306-1306-239-1770c54-380,191-755,525-1440c201-414,276-602,344-873c111-443,144-975,81-1289
	c-25-119-88-301-153-437c-70-146-114-217-194-309c-133-155-153-280-60-380c32-34,119-61,165-52c102,23,244,147,353,311
	c125,187,262,491,314,699c131,517,63,1276-172,1915c-62,168-117,288-283,625c-405,820-498,1110-499,1550c0,358,78,755,255,1304
	c194,596,249,878,249,1266c0,373-87,810-213,1066l-52,106l65,23c36,13,110,46,165,73c208,104,280,233,229,408c-14,49-69,168-105,228
	c-9,15-10,25-3,27c5,3,59,32,119,65c267,148,478,317,653,522l32,38l248-124c425-214,607-273,935-303c57-5,67-8,63-22
	c-99-351,49-541,420-542h102l16-87c44-243,50-299,50-513c0-167-4-238-18-315c-47-258-103-415-250-705c-60-118-148-292-195-385
	c-203-400-453-1050-570-1482c-78-287-141-611-177-918c-26-210-26-752-1-940c59-443,174-775,354-1028c74-103,238-274,325-339
	c47-35,67-56,64-67c-3-9-10-90-17-181c-34-485,59-997,255-1397c134-273,292-477,565-729c173-160,243-204,336-212c79-6,121,5,165,44
	c76,69,88,157,35,268c-30,63-56,92-237,258c-368,340-548,694-633,1248c-19,120-31,430-21,512l7,55l112,6c251,11,446,94,607,257
	c206,209,312,519,255,745c-45,178-180,322-361,386c-83,30-203,36-296,15c-273-61-499-293-628-644l-27-74l-51,65
	c-177,222-274,502-323,937c-18,157-15,564,5,755c51,477,156,917,343,1440c146,409,267,693,447,1053c129,258,182,382,235,546
	c103,323,132,658,85,986c-18,122-71,335-108,434c-15,38-25,70-24,72c2,1,39,14,83,29c232,79,335,196,335,378c0,117-35,219-111,327
	c-23,33-40,62-38,63c2,2,35,21,73,42c377,207,790,590,1041,965c226,337,381,765,441,1211c20,149,22,466,5,619
	c-53,462-245,930-551,1340c-186,249-419,491-612,635c-313,234-738,419-1118,487C16208,17329,15904,17336,15777,17315z M15783,16818
	c-10-17-331-423-603-763c-256-321-344-433-517-662l-130-172l-29,30l-28,29l92,133c94,136,305,459,640,977c104,162,197,302,205,311
	c16,19,154,70,277,104C15792,16833,15793,16833,15783,16818z M16496,16762c47-15,85-31,83-37c-1-5-205-217-453-471
	c-248-253-566-582-706-729c-140-148-334-350-430-448l-176-180l-52,73l-53,72l148,152c178,181,325,339,663,711
	c140,154,315,345,389,425s200,219,280,308l145,164l38-6C16393,16792,16449,16777,16496,16762z M16883,16602c48-25,87-49,87-53
	c0-8-200-215-960-994c-534-546-866-892-940-977c-18-21-35-38-40-38c-4,0-22,28-40,63c-19,34-51,90-72,125c-21,34-38,66-38,71
	s165,171,367,368s624,613,938,925c464,462,574,567,590,562C16786,16651,16834,16627,16883,16602z M15108,16528c-8-13-71-113-140-223
	s-183-292-255-405c-71-113-175-283-231-378l-103-172l-24,16c-30,19-29,11-9,115c22,116,85,303,139,412c84,171,253,379,405,500
	c70,56,216,157,227,157C15120,16550,15116,16540,15108,16528z M17413,16202l48-49l-328-339c-180-186-680-694-1112-1127l-786-788
	l-8,38c-4,21-22,96-38,167c-30,125-31,129-13,146c11,9,68,59,129,111c158,136,505,453,935,855c513,479,1114,1034,1120,1034
	C17363,16250,17387,16228,17413,16202z M10352,16205c99-13,253-47,263-57c2-2-11-42-30-89c-118-293-23-555,250-690
	c193-95,414-59,572,93l41,40l27-42c15-24,58-105,95-182c38-77,74-146,81-154c10-12-5-33-93-122c-180-183-314-370-428-592
	c-64-126-162-360-174-417c-10-45-21-48-60-18c-120,91-329,86-482-13c-183-119-319-379-299-571c17-164,97-285,247-374
	c94-56,156-72,273-71c82,1,113,6,169,27c73,27,86,27,86-2c0-31,68-295,105-406c20-61,56-151,80-201l42-91l-76-6
	c-179-14-377-130-470-275c-97-151-105-340-21-507l38-76l-56-25c-135-60-391-134-462-134c-17,0-18,4-10,25c18,46,23,149,10,210
	c-54,263-328,436-585,370c-127-34-293-152-351-251c-14-24-27-44-29-44s-39,28-82,62c-136,108-304,290-412,447l-51,75l60,22
	c183,66,320,209,365,379c19,76,19,204,0,280c-46,174-180,317-353,377c-90,31-278,33-361,4c-42-14-55-16-61-6c-22,36-23,485-1,614
	c6,39,7,40,65,53c77,17,187,76,241,128c114,112,167,283,131,425c-23,88-57,143-138,222l-69,67l54,118c99,220,242,452,413,673
	c108,139,311,345,416,424C9647,16164,9978,16255,10352,16205z M17610,15981l59-75l-27-31c-15-17-230-268-477-556
	c-729-849-1599-1876-1894-2237c-69-83-126-151-127-149c-1,1,9,40,22,87c59,203,75,313,81,545l6,220l766,773
	c842,851,1506,1505,1522,1500C17546,16056,17577,16021,17610,15981z M17974,15386c20-46,36-91,36-99s-57-79-126-158
	c-172-195-531-620-1004-1184c-430-513-515-612-910-1060c-146-165-316-360-378-432c-100-115-117-131-135-124c-12,5-89,41-171,80
	l-149,71l199,202c332,338,1963,2097,2494,2689c52,59,98,105,101,103C17935,15472,17954,15432,17974,15386z M13514,15205
	c178-40,336-109,492-213c245-165,380-328,560-677c109-212,151-354,175-589c21-205-15-446-106-706c-52-149-163-369-242-480
	c-334-466-917-760-1510-760c-455,0-898,178-1137,457c-175,204-264,380-341,678c-56,214-69,303-69,480c1,181,16,281,71,465
	c89,296,224,555,405,778c84,103,292,316,396,405l84,72l91-3c79-3,110,1,227,31c117,31,286,66,385,81
	C13066,15234,13447,15221,13514,15205z M18113,14943c33-185,34-170-10-211c-44-43-111-116-563-617c-184-203-465-514-625-690
	c-499-552-798-891-968-1098c-74-89-93-107-117-107c-27,0-219,45-227,54c-3,3,67,85,154,183s255,288,373,423c270,308,419,473,790,875
	c602,651,972,1057,1104,1208c32,37,62,67,66,67S18105,14991,18113,14943z M18065,13946c-19-70-38-134-43-141c-4-8-235-254-513-547
	s-579-612-668-708c-90-96-175-181-188-188c-60-33-339-122-381-122c-6,0,153,162,351,360c199,198,612,613,917,923s556,561,558,557
	C18099,14077,18084,14017,18065,13946z M17749,13253c-121-176-316-384-493-525c-215-172-192-141,159,211c198,198,361,361,363,361
	S17766,13279,17749,13253z M16796,11747c30-53,54-101,54-105c0-22-316-92-444-99l-98-6l7,94c4,52,10,97,14,100c3,3,33,11,66,18
	c74,15,294,79,315,91c8,5,19,8,24,7C16738,11845,16766,11801,16796,11747z M13616,11215c8-11,14-25,14-31c0-14-136-66-242-93
	c-92-24-259-44-293-35c-24,6-25,10-25,84c0,118,6,139,44,144c169,25,255,40,336,59l95,23l29-66C13590,11264,13609,11226,13616,11215
	z M10240,10617c20-72,40-141,44-153c6-20,2-22-61-27c-38-4-180-7-316-7h-249l80,153l80,152l181,6c100,3,184,9,188,13
	C10198,10765,10203,10752,10240,10617z M17046,5214c19-9,42-30,51-47c47-92-51-295-188-386c-78-52-148-73-233-69l-65,3l34,102
	c61,180,132,299,217,360C16938,5230,16989,5241,17046,5214z M9422,15611c-84-31-142-69-213-141c-57-56-70-76-87-132
	c-97-314,10-581,263-653c75-22,187-16,268,15c123,46,251,174,297,297c82,219-23,500-225,598C9645,15634,9505,15641,9422,15611z
	 M9250,14088c-76-29-175-130-221-222c-30-61-34-81-37-167c-4-93-3-102,26-163c103-221,339-288,525-151c59,44,129,138,158,213
	c32,81,32,205,0,284c-28,73-108,161-175,195C9454,14114,9329,14119,9250,14088z"/>
</svg>
