<?xml version="1.0" encoding="utf-8"?>
<!-- Generator: Adobe Illustrator 26.1.0, SVG Export Plug-In . SVG Version: 6.00 Build 0)  -->
<svg version="1.1" id="Layer_1" xmlns="http://www.w3.org/2000/svg" xmlns:xlink="http://www.w3.org/1999/xlink" x="0px" y="0px"
	 viewBox="0 0 2677 2048" style="enable-background:new 0 0 2677 2048;" xml:space="preserve">
<style type="text/css">
	.st0{fill:#231F20;}
</style>
<path transform="translate(0.000000,2048.000000) scale(0.100000,-0.100000)" class="st0" d="M11630,19734c-36-8-139-33-230-55
	s-291-69-445-104c-763-173-1619-385-1940-480c-710-210-1133-437-1243-668c-64-135-61-187,17-259c97-90,314-204,716-378
	c399-172,523-242,815-460c290-216,468-367,661-559c244-245,335-357,510-631c91-143,208-344,204-349c-2-2-70,33-152,77
	c-262,142-571,263-815,316c-299,67-489,77-833,47c-381-34-569-69-882-161c-401-119-697-260-999-476c-225-161-386-356-449-543
	c-40-122-32-173,37-237c18-17,96-79,173-139c241-187,365-293,541-469c272-272,395-435,601-798c109-193,307-606,328-683
	c20-75,24-83,58-104c67-40,186-56,422-56c267,0,305,8,376,82c47,48,150,214,432,693c172,293,286,471,394,614
	c307,408,621,698,1016,935c49,29,90,51,93,48s-31-121-75-263c-111-359-168-567-330-1189c-77-297-176-680-220-851
	c-99-382-194-781-312-1319c-50-225-163-734-251-1130c-186-838-213-966-398-1860c-182-878-241-1153-425-1985
	c-85-382-212-960-284-1285c-211-960-234-1059-580-2506c-164-683-161-659-91-801c61-120,102-158,173-158c23,0,41-8,58-26
	c42-45,155-124,267-186c539-301,1315-547,2137-678c72-11,155-24,185-29c30-6,80-13,110-16c30-4,66-8,80-10s70-9,125-15
	s116-13,135-15s96-9,170-15s154-12,177-15c240-26,1503-26,1586,0c7,2,59,6,117,10c273,16,696,67,1070,130
	c1399,233,2697,699,3819,1373c333,199,499,326,722,550c58,59,120,118,138,131c53,39,64,79,58,203c-4,75-11,120-25,150
	c-11,24-155,246-321,493c-950,1415-1499,2293-2188,3500c-249,436-695,1253-953,1745c-148,282-605,1151-1000,1900
	c-274,519-606,1161-940,1815c-288,564-590,1126-723,1345c-39,63-176,274-305,468c-129,195-230,357-226,361c17,15,386,110,599,155
	c173,36,414,72,743,111c560,66,832,72,1007,20c144-42,408-151,565-232c80-42,163-85,185-97c26-13,59-21,95-21c51,0,62,4,125,49
	c38,28,101,80,140,116c38,36,95,86,125,110c106,87,117,108,135,263c53,470,52,446,25,802c-26,339-32,504-27,723c4,213,7,247,31,340
	c14,57,26,113,26,126c0,91-299,374-510,483l-55,28h-230c-1006,0-1818-160-2371-466c-219-122-432-279-640-474c-99-92-113-103-109-78
	c29,159,87,439,140,668c125,544,138,653,125,1100c-13,449-30,598-84,703c-75,147-400,425-614,525c-57,27-80,32-157,34
	C11730,19748,11669,19743,11630,19734z M11750,18858c0-63-25-226-66-428c-52-260-82-384-165-675c-124-434-211-824-264-1190
	c-15-99-28-181-29-183c-2-1-52,58-112,130c-127,156-322,353-484,490c-313,265-841,645-1167,839c-131,78-509,271-623,318l-55,22
	l29,16c154,82,593,227,886,293c165,37,618,123,795,150c77,12,205,35,285,52c455,94,919,186,943,187
	C11745,18880,11750,18876,11750,18858z M15470,17013c0-10-11-80-25-157c-61-343-69-426-70-706c0-274,11-402,56-659
	c11-62,18-116,15-118c-3-3-125,24-273,60c-603,147-871,182-1363,181c-476-1-967-53-1294-135c-43-11-80-18-82-16
	c-5,5,231,289,400,481c480,545,887,773,1721,960c334,75,648,122,833,125C15460,17030,15470,17028,15470,17013z M9895,15509
	c151-14,385-70,385-90c0-5-5-9-11-9c-12,0-233-109-334-165c-382-212-759-581-1072-1050c-78-118-227-366-289-482c-27-51-51-93-54-93
	s-25,30-50,67c-143,210-376,469-750,835l-275,269l54,47c135,118,390,277,581,362c52,23,201,78,330,121c182,60,277,86,420,113
	c221,41,432,73,555,85C9489,15528,9749,15523,9895,15509z M12622,12225c558-1122,825-1644,1491-2917c48-91,84-169,80-171
	c-5-3-43-19-86-36c-372-148-624-390-807-774c-140-294-198-590-187-952c6-210,24-319,78-472c165-470,414-748,864-964
	c312-150,623-218,935-206c252,11,419,41,560,104c52,23,240,144,306,198l31,26l138-233c285-481,617-1012,1033-1653
	c170-262,891-1343,946-1417c11-15,17-30,15-32c-11-11-421-201-571-264c-1044-442-2209-725-3398-826c-320-27-703-46-960-46h-155
	l67,202c125,378,156,519,165,739c9,238-24,436-112,674c-116,314-360,693-587,911c-248,238-614,441-954,529c-354,92-750,115-1199,69
	c-135-14-392-53-458-69l-25-7l24,104c14,56,93,396,175,753c83,358,197,853,255,1100c141,606,237,1032,399,1770
	c75,341,143,650,151,688l16,67h152c457,0,876,83,1108,221c305,180,550,554,629,962c32,160,32,397,0,555c-66,338-159,490-454,746
	c-274,237-412,322-642,396c-71,23-131,43-133,45c-1,1,36,166,83,366c134,563,182,782,275,1244l13,60l41-85
	C11946,13584,12261,12951,12622,12225z M11467,11388c214-168,310-314,381-577c21-81,25-118,26-236c0-128-2-148-28-225
	c-37-112-92-227-155-323c-59-89-207-248-295-313c-95-72-227-132-340-155c-54-11-100-18-103-15c-3,2,36,181,86,398
	c87,378,203,896,292,1311c24,108,47,197,50,197C11385,11450,11424,11422,11467,11388z M14594,8387c186-353,582-1083,756-1392
	c59-104,113-201,120-214l12-24l-128,6c-237,11-434,62-649,167c-142,70-221,130-293,225c-62,82-87,143-101,249c-32,231,3,536,94,811
	c45,136,109,285,122,285C14532,8500,14562,8449,14594,8387z M10195,4081c169-25,276-53,400-103c312-127,619-339,895-617
	c181-182,257-283,353-469c234-454,277-762,167-1171l-23-83l-91,7c-96,7-445,48-556,65c-622,95-1132,206-1814,395
	c-169,47-309,85-310,85s17,73,41,163c41,154,374,1466,423,1666l23,94l181-6C9984,4103,10124,4092,10195,4081z M11812,7610
	c-218-15-477-77-565-136c-23-16-81-38-130-51c-170-45-292-119-391-239c-286-347-272-918,32-1295c249-307,543-413,917-329
	c219,49,489,155,623,244c214,142,368,394,433,710c69,334-67,767-302,963C12285,7596,12123,7631,11812,7610z M11738,7190
	c124-58,238-213,277-377c14-57,17-101,13-195c-4-110-9-135-44-239c-46-133-108-248-173-319l-46-50l-65,23c-161,58-331,216-404,378
	c-71,154-46,409,59,624c62,126,86,151,165,175C11602,7234,11655,7229,11738,7190z M15551,4259c-67-13-163-46-286-99
	c-60-26-137-56-170-66c-78-24-261-116-353-178c-216-146-360-315-442-519c-53-133-64-196-64-377c-1-192,17-277,85-414
	c93-187,210-296,393-367c232-90,492-93,734-8c244,86,572,286,725,442c151,154,215,357,204,647c-11,288-118,526-339,756
	c-111,115-172,159-250,180C15730,4271,15620,4273,15551,4259z M15389,3664c152-46,221-92,282-187c52-80,73-178,66-306
	c-6-114-25-189-74-293l-36-78h-82c-208,0-430,111-499,249c-57,114-82,257-66,374c12,85,57,227,74,232c50,13,169,33,205,34
	C15283,3690,15341,3678,15389,3664z"/>
</svg>
