<?xml version="1.0" encoding="utf-8"?>
<!-- Generator: Adobe Illustrator 26.1.0, SVG Export Plug-In . SVG Version: 6.00 Build 0)  -->
<svg version="1.1" id="Layer_1" xmlns="http://www.w3.org/2000/svg" xmlns:xlink="http://www.w3.org/1999/xlink" x="0px" y="0px"
	 viewBox="0 0 2677 2048" style="enable-background:new 0 0 2677 2048;" xml:space="preserve">
<style type="text/css">
	.st0{fill:#231F20;}
</style>
<path transform="translate(0.000000,2048.000000) scale(0.100000,-0.100000)" class="st0" d="M1723,16839c-48-23-99-92-109-146
	c-15-78,19-167,91-239c139-138,671-482,1230-793c121-68,223-126,226-130c9-8-31-317-71-556c-17-99-68-376-115-615
	c-148-755-237-1263-384-2190c-166-1046-183-1163-178-1222c13-146,132-250,273-235c75,8,129,40,284,173c74,64,221,186,325,272
	c125,102,284,248,463,426l274,271l24-30c13-16,90-122,171-235c244-341,856-1140,951-1242c63-67,129-98,212-98c145,0,248,97,294,278
	c28,108,54,307,96,737c114,1175,384,3473,412,3501c2,2,96-12,208-31c500-85,1206-177,1810-237c316-32,329-34,325-53
	c-15-64-110-1416-160-2268c-41-708-50-821-111-1497c-25-278-44-527-42-555c11-137,118-234,259-235c83,0,148,31,227,109
	c123,120,532,563,781,845c145,163,266,296,270,296c5,0,15-8,22-19c8-10,147-178,309-372c163-195,354-426,425-514
	c237-293,461-560,508-602c63-58,108-76,192-76c80-1,132,20,188,77c76,75,93,148,107,452c5,126,15,330,20,454
	c31,657,86,1233,220,2292c39,304,96,758,128,1009l57,456l675,7c625,6,1052,15,1491,32l177,7l6-294c3-162,10-589,16-949
	s15-776,20-925c14-389,28-917,45-1670c12-507,19-672,30-710c18-62,62-116,123-153c40-23,58-27,122-27c69,0,81,3,134,35
	c60,37,106,88,341,385c65,83,196,242,290,355s269,328,390,478c177,222,220,271,231,260c6-7,83-110,170-228
	c172-235,967-1250,1017-1301c56-55,103-73,187-74c133,0,215,65,260,210c10,30,15,277,21,1030c4,545,12,1098,18,1230s24,582,41,1000
	c16,418,37,927,46,1130c9,204,16,398,15,433c0,34,3,62,7,62s147,18,317,40c500,64,1057,147,1521,228l161,27l16-160
	c26-259,162-1372,227-1859c83-623,408-2892,421-2940c21-77,86-153,156-183c18-7,61-13,96-13c111,0,194,57,246,170
	c18,40,115,284,481,1208c50,127,96,232,101,232c13,0,148-82,244-148c44-30,224-163,400-296c394-296,942-687,1012-722
	c94-47,210-31,288,38c58,51,78,99,83,206c7,144-16,297-153,1034c-76,410-275,1518-570,3178c-91,509-167,934-170,945
	c-4,17,7,24,78,48c159,55,430,159,595,228c422,178,884,431,989,540c148,156,33,419-183,419c-58,0-124-27-225-93
	c-341-223-872-459-1499-667c-3005-1001-8308-1486-12980-1190c-2752,175-4988,599-6217,1180c-249,118-901,491-1135,649
	c-179,121-220,141-287,141C1784,16860,1750,16853,1723,16839z M22229,15283c18-104,35-198,38-209c4-20-1-22-64-28
	c-133-14-1164-168-1546-232c-213-35-393-64-400-64c-8,0-20,39-34,103c-11,56-24,109-27,118c-6,13,26,22,206,59
	c582,117,1421,322,1738,424c25,8,48,15,51,15C22194,15470,22211,15386,22229,15283z M3888,15346c298-108,691-224,1080-320
	c198-49,551-128,655-147l69-13l-6-30c-3-17-19-134-36-261c-17-126-33-236-35-243c-3-9-15-6-42,12c-57,36-109,49-177,44
	c-166-14-297-154-372-398c-69-225,30-447,248-555c63-31,92-39,153-43c41-2,75-8,75-11c0-20-81-695-84-698c-1-2-23,5-47,16
	c-55,23-171,34-237,21c-121-23-220-101-275-218c-28-58-32-77-31-147c1-99,32-172,100-235c89-82,246-131,362-112c52,9,52,9,52-17
	c0-14-13-159-29-321s-35-356-42-430c-6-74-15-141-19-148c-7-15-358,439-590,763c-247,346-371,485-486,541c-51,25-70,29-144,29
	c-136-1-142-5-530-389c-380-377-484-471-487-441c-2,11,32,247,75,525l77,505l25-2c80-8,182-5,230,6c148,36,267,127,327,249
	c37,74,38,79,37,181c0,95-4,115-33,194c-78,208-218,348-373,375c-38,7-43,10-40,32c2,14,35,198,74,410c127,695,172,983,194,1242
	l6,77l37,9C3704,15413,3700,15414,3888,15346z M22414,14253c32-181,60-340,63-354l5-25l-184-12c-382-25-1070-126-1692-248
	c-98-19-179-34-180-32c-3,4-106,729-106,744c0,7,30,14,73,18c39,4,232,27,427,51s589,72,875,105s543,64,570,69
	C22365,14586,22349,14620,22414,14253z M17294,14498c-3-35-13-276-24-536c-10-261-21-476-23-479c-3-2-31,3-62,13
	c-108,31-310,17-398-28c-60-30-125-102-160-176c-30-63-32-74-32-177c0-106,1-113,36-186c98-206,321-302,544-234l45,13v-31
	c0-24-29-686-30-693c0-1-18-4-40-7c-83-11-264-117-326-190c-109-129-90-331,42-446c55-49,137-83,226-95l78-10v-384v-384l-98,123
	c-242,307-319,408-467,609c-238,324-360,462-450,507c-120,61-243,49-354-36c-19-14-169-194-334-401c-433-540-601-739-604-715
	c-2,11-9,216-18,455c-8,239-18,523-21,630l-7,194l32-36c179-204,560-153,705,95c96,164,63,403-74,531c-122,114-278,134-435,57
	c-85-43-129-82-190-173l-53-80l-6,63c-6,69-20,405-36,884c-14,422-28,705-46,958c-9,120-14,220-12,223c3,2,124,11,269,19
	c759,43,1694,117,2149,169c63,7,129,14,147,15l32,1L17294,14498z M9235,14410c524-38,1195-71,1685-85c113-3,273-8,356-11l150-6
	l-27-210c-15-115-29-211-32-214s-23,0-45,5c-22,6-203,22-403,36c-1252,86-1971,143-1983,156c-2,2-6,82-8,177c-3,167-2,172,17,172
	C8956,14430,9087,14421,9235,14410z M9113,13646c200-38,444-69,1032-131c869-91,1109-114,1138-108c15,3,27,2,27-2
	c0-17-52-420-55-423c-1-2-29,6-61,16c-153,51-748,122-1559,187c-669,53-730,58-734,61c-2,2,0,101,4,220l7,216l32-5
	C8961,13675,9037,13661,9113,13646z M22561,13428c23-114,115-635,112-640c-2-5-53-8-113-8c-86,0-227-18-668-85
	c-591-89-876-135-1136-185c-88-16-162-27-165-24s-29,159-57,347l-50,342l40,7c190,35,982,129,1361,163c273,24,522,55,604,74
	C22526,13428,22560,13432,22561,13428z M8940,12850c54-15,324-55,710-105c195-25,526-70,735-100c420-60,618-79,740-73l80,4l-25-210
	c-24-197-27-211-45-209c-11,1-69,9-130,17c-202,28-738,85-945,101c-330,24-897,64-1000,70c-52,3-119,8-149,11l-53,6l6,166
	c10,253,17,332,30,332C8900,12860,8921,12856,8940,12850z M22778,12223c12-71,70-383,127-694c58-312,105-570,105-573
	c0-9-236,163-557,406c-420,317-674,475-838,524c-37,11-93,18-145,18c-110,0-186-32-259-109c-64-68-74-88-236-500
	c-76-192-141-353-144-357c-5-6-183,1117-181,1143c0,4,33,9,73,13c39,4,221,25,402,46c182,22,574,67,873,100c378,42,571,67,635,84
	c51,13,99,25,108,25C22753,12350,22761,12323,22778,12223z M8921,11980c117-22,540-81,829-115c384-45,525-64,932-125
	c179-28,341-50,360-50c64,0,63,2,44-207c-25-282-44-555-58-821l-12-239l-135,166c-345,426-726,874-809,953c-115,109-207,158-310,166
	c-88,6-181-23-242-75c-23-20-190-203-370-407s-340-382-355-396l-27-25l6,45c13,102,49,669,62,978c5,117,10,162,19,162
	C8862,11990,8891,11985,8921,11980z M4036,14851c-209-69-381-341-337-534c21-94,92-179,176-211c225-85,417-46,549,113
	c174,209,121,507-109,616C4235,14872,4121,14879,4036,14851z M15317,14259c-90-21-204-102-252-179c-12-19-37-73-56-120
	c-45-113-47-196-5-287c123-268,555-308,750-70c62,76,81,130,81,233c0,84-2,95-38,166C15707,14186,15492,14300,15317,14259z"/>
</svg>
