<?xml version="1.0" encoding="utf-8"?>
<!-- Generator: Adobe Illustrator 26.1.0, SVG Export Plug-In . SVG Version: 6.00 Build 0)  -->
<svg version="1.1" id="Layer_1" xmlns="http://www.w3.org/2000/svg" xmlns:xlink="http://www.w3.org/1999/xlink" x="0px" y="0px"
	 viewBox="0 0 2677 2048" style="enable-background:new 0 0 2677 2048;" xml:space="preserve">
<style type="text/css">
	.st0{fill:#231F20;}
</style>
<path transform="translate(0.000000,2048.000000) scale(0.100000,-0.100000)" class="st0" d="M6372,19048c-44-22-81-122-117-319
	c-38-205-52-264-153-659c-39-151-90-356-113-455c-22-99-45-184-48-188c-4-4-130-21-280-37c-606-65-942-113-1135-162
	c-194-49-226-72-226-168c1-119,32-172,108-186c27-5,56-25,112-78c41-39,138-119,215-177c77-59,219-173,315-254s236-197,311-259
	c75-61,152-124,172-141l36-30l-45-160c-84-302-184-700-225-900c-53-257-49-338,16-381c54-36,315-26,490,18c94,23,105,29,169,82
	c162,134,433,370,509,442c48,46,92,84,97,84s50-34,101-76c263-219,502-395,616-453c23-11,58-21,76-21c104,0,420,178,463,261
	c8,17,13,38,10,47s-17,112-31,227c-28,242-66,479-132,823l-46,244l279,281c154,155,331,334,394,398c182,184,349,337,425,391
	c38,27,75,59,82,71c18,31,16,171-2,206c-20,39-67,59-187,77c-139,21-498,13-918-20c-173-14-329-26-345-26h-31l-103,378
	c-57,207-128,468-157,578c-69,258-87,308-127,338c-94,71-268,151-417,192C6437,19062,6407,19064,6372,19048z M21790,18264
	c-19-2-129-16-245-30c-115-14-266-37-334-50c-267-55-562-151-788-259l-132-63l-118,45c-331,125-753,229-1168,286
	c-140,19-205,22-520,22c-406,0-501-9-883-76c-285-50-432-84-647-149c-484-146-852-332-1180-597c-60-48-184-161-276-250l-165-162
	l-95,14c-315,47-729,66-1034,46c-183-12-495-53-730-96c-356-66-773-207-1065-361c-656-346-1133-816-1545-1519
	c-48-82-103-176-121-207c-19-31-57-100-84-152c-45-86-50-103-50-159c0-76,40-235,69-275c35-49,94-66,205-58c135,9,164,14,339,57
	c266,66,443,144,537,240c37,37,103,133,200,292c164,270,220,349,392,567c140,176,415,459,558,572c279,221,599,403,849,481
	c58,18,91,21,276,21c142,0,249-6,333-17c135-19,338-59,418-82l52-15l-50-83c-308-511-440-1058-363-1500c63-360,306-712,590-855
	c187-94,439-123,645-76c346,79,751,333,1126,708c329,329,457,562,481,876c10,133-25,297-90,427c-183,360-438,620-815,828l-92,52
	l142,139c259,254,475,409,783,564c190,96,373,165,505,192c95,18,415,15,575-6c371-50,781-156,1060-276c220-94,214-90,174-126
	c-27-24-163-209-221-299c-163-255-269-540-314-838c-25-173-15-405,24-558c57-222,130-366,278-552c91-116,155-175,269-252
	c338-226,779-245,1120-48c314,181,696,599,928,1015c220,394,223,609,11,1025c-135,266-223,391-407,579l-118,122l28,19
	c100,70,332,193,460,244l76,30l105-16c122-19,307-69,442-118c546-200,990-520,1430-1031c144-167,329-409,361-473c40-80,57-95,111-95
	c132,0,480,147,552,233c32,38,32,52,1,135c-14,36-25,80-25,96c0,96-66,311-145,473c-221,454-593,802-1147,1073
	c-322,157-585,243-883,288C22349,18261,21871,18274,21790,18264z M20372,16543c71-88,146-193,190-268c46-78,120-265,152-383
	c26-99,52-282,43-306c-9-23-112-39-211-33c-110,5-203,33-280,84c-46,31-63,50-87,98c-77,158-77,365,2,600c36,106,114,275,127,275
	C20313,16610,20342,16580,20372,16543z M15868,15733c162-161,266-288,311-379c80-163,109-351,77-497c-10-42-25-85-34-97
	c-37-45-285-66-405-35c-123,32-222,109-256,200c-47,125-51,319-10,520c32,160,132,435,158,435C15715,15880,15787,15814,15868,15733z
	 M23446,13429c-201-16-426-65-569-125c-312-131-575-442-683-809c-48-164-43-412,11-568c66-191,255-396,486-526
	c294-167,369-191,609-198c198-6,319,11,562,81c494,142,707,309,817,641c76,229,79,480,9,695c-65,201-225,467-372,618
	c-71,73-128,112-164,112c-11,0-62,13-114,29C23881,13428,23664,13446,23446,13429z M3210,13319c-384-19-696-71-975-164
	c-349-115-570-270-663-466c-63-132-76-228-47-363c18-83,51-131,114-160c41-18,63-21,191-20c216,1,431,41,491,91c25,21,29,32,29,76
	c0,46,5,57,41,100c119,139,362,263,642,327c119,27,193,24,316-15c197-63,379-173,527-320c193-192,306-385,371-634
	c23-91,24-107,20-286c-3-104-11-235-17-291l-12-100l-167-12c-362-27-546-52-821-113c-530-117-932-300-1252-568
	c-240-202-437-481-536-762c-55-156-67-229-66-404c0-151,2-168,36-296c103-391,332-632,686-722c75-19,113-22,282-21
	c170,0,215,4,350,28c253,46,575,143,835,250c241,100,543,277,730,429c275,223,549,567,740,930c37,70,71,127,75,127
	c11,0,197-204,273-300c186-235,383-579,480-840c57-154,117-444,117-564v-43l-112-17c-167-25-595-120-754-167
	c-872-257-1532-715-1793-1244c-106-214-145-371-145-585c0-158,13-221,80-392c54-140,118-241,205-324c236-223,557-267,1024-139
	c411,113,925,361,1347,652c443,305,816,709,1038,1126l52,97l30-17c16-10,64-44,106-76c257-194,481-442,591-657
	c182-353,266-769,220-1097c-35-254-159-581-299-790c-81-119-108-148-205-222c-113-86-741-501-857-567c-199-113-479-370-543-498
	c-46-92-34-137,68-263c147-183,242-150,972,332c405,268,670,466,910,680c572,508,875,958,1020,1509c104,393,94,745-30,1122
	c-115,350-367,753-621,994c-276,263-631,430-1067,505l-37,6l6,82c14,183-27,479-101,736c-205,714-593,1256-1175,1646
	c-144,96-256,159-390,220c-58,26-94,48-93,57c44,280,67,556,58,698c-27,409-101,662-267,909c-291,434-698,682-1246,760
	C3722,13328,3538,13335,3210,13319z M4082,10501l28-6l-44-125c-96-277-223-555-331-730c-148-239-380-503-562-642l-93-71l-69,7
	c-78,7-197,44-268,83c-65,36-154,127-182,186c-20,41-22,57-16,113c26,247,185,520,425,731c224,196,518,352,830,438
	C3885,10508,4018,10516,4082,10501z M5878,7564c71-8,69,2,27-134c-104-336-299-664-554-935c-192-203-369-345-457-366
	c-67-16-227-16-294,0c-69,17-147,54-182,88c-36,34-43,78-30,174c55,388,403,763,972,1049c188,94,266,117,436,129
	C5808,7569,5845,7567,5878,7564z M18773,12703c-33-6-72-51-109-125c-43-84-183-485-314-892c-54-171-155-480-222-686l-124-375l-54-7
	c-30-4-176-12-325-17c-303-12-410-22-570-53c-99-18-136-31-200-65c-11-6-47-16-80-22c-108-20-138-61-155-217c-15-130-6-163,64-246
	c30-35,144-171,254-303s262-314,338-403c77-90,151-179,166-197l28-32l-41-119c-22-65-71-225-109-354s-120-381-180-560
	c-61-179-136-408-166-510s-77-252-104-335c-27-82-51-164-55-180c-8-40,38-216,66-256c12-17,37-38,55-45c144-60,783,102,946,240
	c102,87,472,427,655,603l192,184l78-92c282-334,436-510,480-549c77-69,242-163,418-239c221-95,384-139,492-132c37,2,80,49,117,125
	c63,133,62,121,22,422c-20,148-56,433-81,634s-68,534-96,740s-53,397-56,423l-6,48l194,197c575,583,733,741,822,819
	c54,47,105,100,114,116c11,22,15,57,14,126c-2,159-22,204-106,242c-82,37-205,44-742,44h-513l-5,25c-4,23-126,858-195,1345
	c-40,275-36,261-82,311c-107,117-480,305-708,358C18824,12710,18813,12711,18773,12703z M10370,10995c-142-21-330-70-462-121
	c-133-51-173-75-206-124c-21-30-23-43-19-95c12-121,48-212,164-416c61-107,162-284,224-394c408-723,726-1178,1179-1689
	c203-229,711-790,734-809c72-61,139-72,329-52c180,19,428,79,596,145c218,86,250,133,212,311c-12,51-33,118-48,147
	c-18,33-162,199-404,465c-502,549-647,720-876,1027c-125,168-363,529-558,845c-290,472-360,575-464,683c-70,73-115,92-221,91
	C10503,11008,10422,11002,10370,10995z M13896,5819c-17-14-69-105-143-253c-209-419-635-1226-646-1226c-7,0-127,9-267,20
	c-595,46-842,50-908,16c-22-11-34-27-41-54c-21-73-13-105,31-128c24-12,29-21,28-47c-4-67,1-79,54-135c29-31,106-128,170-215
	s178-232,252-323l136-166l-148-261c-274-484-305-541-437-806l-132-263v-75c0-69,2-77,27-98c16-14,51-27,91-34c80-14,306-14,378-1
	c61,12,313,158,742,432c137,87,252,158,255,158c4-1,83-98,177-216c211-267,314-379,411-444c88-58,102-60,253-31
	c113,22,185,50,199,78c5,10,12,240,16,533c3,283,9,575,12,648l7,133l191,126c319,210,581,375,776,487c226,131,246,146,275,207
	c40,87,17,118-153,207c-171,89-185,91-782,133c-168,12-306,22-307,23c-2,1-7,297-13,657c-6,378-15,670-20,691c-8,29-24,47-73,82
	c-79,56-203,118-291,145C13932,5845,13929,5845,13896,5819z M22701,5675c-44-20-53-32-106-140c-34-68-48-113-59-185
	c-29-178-94-321-263-579c-260-396-488-637-1164-1228c-313-275-298-257-356-432c-27-84-25-123,8-178c42-67,234-167,484-251
	c285-96,480-124,570-83c56,25,609,515,848,751c274,269,434,458,606,715c105,156,162,259,246,443c172,378,200,639,81,779
	c-78,93-434,287-653,356C22805,5687,22746,5695,22701,5675z M2845,3284c-307-48-690-193-861-327c-152-119-294-342-348-547
	c-74-276-54-536,65-834c94-235,272-418,473-488c76-26,259-36,378-19c193,28,498,118,673,201c115,54,313,172,396,235
	c137,106,283,323,342,510c31,100,31,312-1,438c-82,326-234,550-472,696C3258,3292,3104,3324,2845,3284z"/>
</svg>
