<?xml version="1.0" encoding="utf-8"?>
<!-- Generator: Adobe Illustrator 26.1.0, SVG Export Plug-In . SVG Version: 6.00 Build 0)  -->
<svg version="1.1" id="Layer_1" xmlns="http://www.w3.org/2000/svg" xmlns:xlink="http://www.w3.org/1999/xlink" x="0px" y="0px"
	 viewBox="0 0 2677 2048" style="enable-background:new 0 0 2677 2048;" xml:space="preserve">
<style type="text/css">
	.st0{fill:#231F20;}
</style>
<path transform="translate(0.000000,2048.000000) scale(0.100000,-0.100000)" class="st0" d="M5167,17429c-125-10-257-39-336-74
	c-52-23-70-26-236-29c-139-3-198-8-260-24c-304-78-479-234-645-577c-86-177-120-268-120-324c0-70,19-84,128-89c100-5,159,8,189,40
	c12,13,49,88,83,168c143,336,264,496,444,584c70,34,146,59,146,49c0-3-11-19-26-35c-126-151-136-429-20-581c42-55,107-103,159-119
	c50-15,229-15,307,0c192,37,303,140,332,310c30,174-44,368-177,463c-25,18-42,36-37,41c15,15,165,48,216,48c97,0,242-44,354-106
	c174-98,323-258,412-446c39-82,88-233,79-242c-2-3-25,0-49,6c-63,14-250,2-345-23c-240-62-381-198-415-401c-23-135,22-299,105-380
	c104-103,248-117,465-47c187,61,313,150,390,273c19,31,39,56,43,56c14,0,63-120,83-200c15-63,18-117,19-332c0-193,3-260,13-270
	s21-10,59,1c102,27,135,78,171,272c42,218,37,384-16,544c-30,91-115,225-186,295l-46,44v79c0,97-22,206-64,318
	c-146,390-517,670-932,703C5294,17437,5273,17437,5167,17429z M4977,16952c34-70,42-170,19-240c-17-51-76-122-101-122
	c-26,0-92,76-109,125c-34,100-12,210,60,309l36,48l34-33C4935,17020,4963,16981,4977,16952z M5941,16304c61-18,153-63,187-90
	c22-19,22-20,6-74c-38-129-151-297-226-336c-50-26-154,7-197,62c-84,107-32,328,102,425C5859,16325,5868,16326,5941,16304z
	 M21465,17059c-114-22-174-49-234-105c-188-174-166-551,43-730c108-93,230-135,392-137l111-2l-20-44c-34-78-115-207-177-285
	c-59-73-225-236-241-236c-4,0-15,24-24,53c-74,228-253,407-435,436c-109,18-280-14-404-76c-60-30-142-106-166-153
	c-30-60-42-149-30-227c31-196,166-333,374-378c62-14,105-16,200-12c66,4,133,9,149,13c34,8,34,2,1-112c-69-239-258-522-407-609
	c-26-15-93-47-147-71c-158-68-212-123-176-179c65-99,442,93,681,347c195,207,366,520,390,711c7,57,8,58,59,84
	c264,133,597,495,701,762l27,67l91,34c144,53,333,154,562,299c236,149,289,195,279,238c-15,64-46,74-149,48c-85-22-188-78-360-192
	c-168-112-272-174-340-203c-26-11-48-20-50-20c-1,0-5,31-9,69c-22,219-99,387-235,513c-84,78-143,99-291,104
	C21567,17068,21493,17065,21465,17059z M21619,16850c119-87,211-294,211-478v-55l-51,7c-211,28-350,187-320,368
	c14,84,73,188,106,188C21572,16880,21596,16866,21619,16850z M20767,15794c103-51,225-217,252-342c12-55,6-57-97-43
	c-199,26-301,111-302,249c0,79,40,162,80,162C20709,15820,20739,15808,20767,15794z M23415,16167c-18-29-55-114-225-520
	c-121-288-135-318-154-313c-12,2-95,10-186,16c-166,13-289,5-313-19c-14-14-25-94-16-117c4-11,79-98,168-194c88-96,161-179,161-185
	c0-10-131-341-215-545c-72-173-62-230,41-230c142,0,235,35,539,204l100,56l24-28c50-57,311-349,341-381c28-30,35-33,71-28
	c57,7,214,111,239,156c6,13-1,104-25,292c-19,151-35,288-35,304c0,28,9,35,157,115c299,162,488,271,501,287c18,25,15,87-6,106
	c-26,24-85,34-420,71c-166,18-304,35-306,37s-20,117-40,254c-76,516-83,555-100,574c-37,41-199,111-257,111
	C23440,16190,23425,16182,23415,16167z M4818,15774c-20-24-37-77-173-574l-112-405l-210-7c-142-4-230-11-273-22
	c-71-19-176-62-202-84c-21-18-24-71-5-94c10-13,257-220,476-398l44-36l-92-340c-50-188-91-360-91-382c0-49,26-82,66-82
	c42,0,165,21,205,35c34,12,166,108,368,268c74,58,74,58,95,39c11-11,111-95,221-186l200-167l49,5c67,7,198,52,224,77
	c12,11,22,28,22,38s-33,167-74,347c-41,181-75,338-77,349c-3,15,59,69,288,250c372,294,343,267,343,313c0,21-6,47-14,58
	c-14,18-33,19-392,24l-378,5l-42,175c-22,96-69,297-103,445c-35,149-68,282-73,297c-13,35-77,56-193,65
	C4845,15792,4833,15790,4818,15774z M9795,15096c-86-14-170-37-205-56c-33-17-57-84-70-190c-28-215-23-1668,7-2081l6-87l-104-6
	c-480-31-500-33-712-72c-76-15-139-25-141-23s-11,272-20,599c-36,1306-46,1617-55,1660c-13,63-36,112-61,135c-59,53-388-13-547-110
	c-18-10-39-33-48-51c-28-59-38-265-38-774c0-611,20-1215,73-2150c11-195,31-577,44-848l24-493l27-55c15-31,44-73,65-95
	c30-32,44-39,74-39c81,0,312,139,441,265c107,104,103,63,71,713c-15,301-28,619-29,707l-2,160l90,7c50,4,257,14,460,23
	c204,8,379,18,390,21c20,5,21-6,58-538c21-299,47-687,57-863c11-176,25-337,30-357c7-22,34-63,68-99c56-61,57-61,103-57
	c55,6,145,59,260,154c90,75,192,181,216,227c24,42,22,126-11,667c-47,764-69,1337-91,2295c-27,1205-37,1336-101,1396
	c-23,22-34,24-137,26C9925,15108,9839,15103,9795,15096z M19460,14961c-51-10-73-25-120-78c-72-82-183-282-413-745
	c-122-247-224-448-227-448s-81,152-175,337c-166,329-257,489-420,736c-106,161-108,162-310,161c-213-2-376-40-406-95
	c-6-13-10-53-8-98c4-76,6-82,106-278c56-111,152-304,212-430c60-125,215-448,345-718l237-490l-6-80c-3-44-8-665-10-1380
	c-3-1296-3-1300,18-1344c11-24,40-64,63-89c40-41,46-44,81-39c127,21,476,257,528,357c12,22,14,235,16,1266c1,681-2,1256-6,1277
	c-7,34-4,41,26,71c22,20,116,185,257,449c122,229,257,474,299,544c210,355,374,667,418,797c34,102,35,197,1,231
	c-32,32-134,62-273,80C19573,14971,19517,14972,19460,14961z M13560,14944c-19-2-77-9-128-15c-198-23-379-92-447-172
	c-60-70-59-43-46-1217c14-1259,20-1466,76-2495c36-648,47-738,102-832c31-53,77-93,108-93c90,0,395,174,444,254c42,67,44,130,41,966
	c-1,437-3,862-4,943l-1,148l90,30c187,63,500,221,707,358c203,134,346,282,464,482c109,184,144,296,151,485c13,325-98,618-316,834
	c-163,162-364,248-696,300C13981,14939,13645,14954,13560,14944z M13934,14535c180-87,304-245,393-503c24-69,27-91,27-222
	c1-168-14-232-90-384c-117-233-256-374-525-534l-36-22l-6,293c-4,160-7,529-7,819v528l25,16c27,18,100,42,129,43
	C13854,14570,13895,14554,13934,14535z M11352,14889c-70-12-108-33-127-69c-36-69-333-1556-455-2275c-109-640-172-1062-177-1182
	c-5-110-3-128,17-183c26-69,67-110,111-110c102,0,380,118,441,186c10,11,26,40,37,64c17,39,106,384,142,553c10,45,17,58,33,62
	c12,3,100,18,196,35s217,40,269,51c52,10,98,16,102,12c4-5,60-208,124-453c127-482,150-545,232-627c35-35,49-43,79-43
	c51,0,158,57,287,152c116,87,181,153,205,208c18,43,11,143-17,245c-11,39-88,331-171,650s-180,686-215,815s-121,462-190,740
	c-164,652-250,950-311,1071c-28,57-64,76-182,95C11687,14901,11437,14903,11352,14889z M11719,12850c44-162,89-325,99-362l19-67
	l-76-17c-42-8-125-27-185-40s-112-22-114-19c-3,3,27,150,66,327c39,178,79,358,88,401c10,42,18,76,19,75
	C11637,13146,11674,13012,11719,12850z M16095,14794c-205-15-347-54-478-132c-139-82-240-189-311-330c-61-122-64-144-91-692
	c-67-1381-87-1974-87-2615c1-765,16-890,122-1004l31-34l72,7c42,4,83,14,102,26c16,10,64,38,105,61c107,60,176,115,194,154
	c32,67,39,131,61,600c15,316,70,1204,83,1339l7,80l80,17c84,18,508,168,692,244c198,83,351,184,486,321c173,174,241,331,256,583
	c18,304-36,589-159,836c-117,237-296,393-535,468C16569,14772,16265,14806,16095,14794z M16383,14297c90-90,141-169,188-292
	c122-315,127-648,12-868c-51-97-206-255-320-324c-75-45-328-152-337-142c-2,2,13,319,33,704l37,701l33,61c58,108,199,243,253,243
	C16293,14380,16338,14343,16383,14297z M21472,13493c-12-2-29-14-37-26c-9-15-29-166-59-442c-26-231-51-458-56-505s-10-88-10-92
	c0-8-17-13-295-88c-322-86-430-127-488-186c-25-25-28-34-22-68c8-51,15-59,94-105c223-128,627-363,630-367c4-4-12-183-45-501
	l-26-243l21-34c26-41,40-48,80-36c38,11,157,81,198,117c25,23,224,275,286,364c15,21,16,21,174-74c310-186,546-317,573-317
	c34,0,68,36,113,120c73,134,78,102-72,485c-73,185-150,385-172,445l-41,109l231,311c246,331,252,341,210,394c-15,19-30,26-55,26
	c-31,0-208-44-492-122c-62-17-114-29-116-27c-1,2-28,67-59,144c-117,295-278,671-295,687C21714,13490,21552,13508,21472,13493z
	 M3495,12924c-165-25-241-60-238-108c4-54,16-58,137-51c100,6,117,5,170-15c72-27,132-81,172-152c27-49,29-60,29-158
	c0-71-6-123-18-161l-17-55l-68,17c-139,37-370,14-527-52c-129-54-241-156-294-269c-35-76-37-210-3-285c68-149,221-195,482-145
	c177,35,271,74,385,160c36,27,68,50,69,50c7,0,26-90,36-179c17-137-3-292-56-439l-16-42l-51,45c-97,86-253,144-384,145
	c-142,0-353-55-479-125c-84-47-153-115-190-186c-24-46-29-66-29-134c0-67,5-90,29-143c106-230,392-277,839-138c56,18,55,20,27-88
	c-29-114-103-249-175-321c-66-65-193-156-332-236c-134-77-151-99-121-163c14-33,35-39,91-26c155,34,397,166,594,322
	c208,165,336,430,320,668l-4,75l42,48c98,108,166,240,212,414c23,86,26,117,27,258c0,131-4,176-21,245c-28,113-56,184-97,253l-35,57
	l36,81c76,177,102,362,68,494c-43,164-167,287-326,325C3729,12921,3540,12931,3495,12924z M3494,12046c28-12,66-35,83-50l33-28
	l-32-46c-85-125-236-252-300-252c-39,0-90,29-114,65c-20,31-16,102,10,157c23,48,98,123,160,159C3392,12085,3413,12084,3494,12046z
	 M3246,10999c28-11,73-34,99-51c73-48,166-185,152-222c-3-8-41-32-83-53c-76-37-80-38-188-38c-95,0-119,3-162,23
	c-139,63-165,173-66,283C3080,11032,3126,11043,3246,10999z M24240,12828c-115-10-290-57-385-103c-130-63-259-195-307-315
	c-30-74-31-179-3-210c18-21,27-22,97-17c103,7,151,30,159,77c13,84,107,219,209,301c80,64,134,84,209,76c103-11,168-42,242-116
	c107-107,159-231,159-381v-87h-122c-153,1-275-21-413-72c-137-50-204-91-291-176c-179-178-211-411-75-558c109-118,292-126,517-23
	c115,53,303,187,399,284c83,83,87,86,102,67c25-34,80-156,107-236c45-136,73-349,44-336c-129,57-144,61-233,61c-115,0-216-28-344-94
	c-175-91-335-229-388-335c-79-158-66-289,42-404c93-99,193-137,344-128c107,6,181,27,307,87c89,43,212,149,280,242l38,50l28-33
	c40-49,114-203,133-278c10-37,13-76,9-95c-12-57-90-194-135-238c-26-25-59-123-66-192c-7-79,12-106,79-113c45-5,48-4,101,46
	c177,167,271,645,182,921c-29,90-85,207-133,278l-30,44l19,71c44,172,51,468,15,627c-28,118-95,248-172,329l-64,69l25,77
	c14,43,30,117,37,165c38,289-153,588-418,653C24464,12833,24354,12839,24240,12828z M24403,11835c32-8,75-24,97-35l39-20l-14-34
	c-57-136-166-260-260-296c-79-30-188-38-238-17c-48,20-60,50-47,119c19,97,104,206,211,267C24254,11855,24311,11859,24403,11835z
	 M24502,10779c72-15,190-71,256-120l54-41l-24-25c-39-42-169-122-248-152c-142-55-243-50-307,14c-28,28-33,40-33,82
	c0,69,25,134,72,187C24327,10788,24390,10802,24502,10779z M5155,12490c-79-10-94-17-102-48c-3-15,10-244,31-511
	c20-266,35-485,34-486c-2-2-77-42-168-90s-207-112-259-143c-52-30-117-65-145-77c-29-13-58-30-65-39c-17-21-8-84,16-107
	c10-10,164-77,343-149c179-73,328-135,333-139c4-4,17-122,28-262c21-259,32-309,71-333c24-14,107,14,192,67c68,41,71,45,145,174
	c42,73,81,133,87,133c7,0,124-46,260-103c393-163,357-151,392-133c74,38,192,161,192,199c0,11-99,193-220,404l-221,384l202,369
	c210,387,208,382,173,438c-11,17-24,22-55,22c-79,0-166-33-403-152c-131-66-242-116-246-111c-5,4-97,156-206,336
	c-108,181-206,334-218,342C5318,12492,5229,12499,5155,12490z M5210,9443c-308-29-525-80-763-180c-182-76-287-156-353-269
	c-27-47-29-56-33-194c-3-137,7-573,30-1210c11-342,33-727,59-1083c11-144,32-439,46-656c27-387,27-393,8-404c-10-6-34-25-51-43
	c-26-25-33-40-33-71c0-42,46-148,77-175c23-21,323-182,411-221c162-72,385-131,568-148c310-30,645,56,1094,281
	c301,151,521,359,640,604c60,123,86,216,101,357c38,348-124,756-404,1015c-142,131-426,296-616,357l-74,24l104,71
	c149,102,306,229,383,314c129,139,241,331,289,498c18,63,22,100,22,230c0,135-3,165-23,230c-104,332-385,539-862,634
	C5629,9444,5382,9460,5210,9443z M5088,9029c376-41,674-172,814-357c59-78,72-123,65-232c-13-226-157-480-376-662
	c-235-195-465-319-748-402l-53-15v42c0,119-21,726-30,887c-12,203-43,495-64,605c-8,39-12,72-11,75c6,10,98,53,129,61
	C4861,9042,4980,9041,5088,9029z M5316,6996c314-77,609-263,785-496c68-89,146-250,164-335c17-82,19-237,4-321
	c-16-95-56-204-103-284c-52-90-158-208-202-226c-17-7-72-18-122-25c-116-15-265,0-433,42c-156,39-243,73-404,157l-130,68l-6,234
	c-4,129-16,384-27,565c-12,182-24,387-27,456l-7,125l98,37c96,36,102,37,204,32C5171,7022,5257,7010,5316,6996z M9252,9399
	c-98-13-294-58-386-89c-123-41-263-117-317-170c-56-56-73-114-71-240c2-118,77-1163,107-1500c62-677,127-1149,260-1875
	c48-263,83-390,120-432c22-27,27-28,112-27c111,1,293,42,383,87c92,46,104,73,103,236c-1,139-15,265-73,679c-21,152-37,278-35,280
	c5,5,187-195,321-353c69-82,259-315,420-516c161-202,314-385,339-407c58-51,155-90,242-98c76-6,254,15,351,42c80,22,108,48,117,107
	c10,64-17,190-53,247c-34,55-442,568-652,820c-292,350-521,592-668,704c-35,26-62,49-60,51c2,1,57,33,123,70
	c293,165,609,396,758,555c142,150,269,370,314,539c22,82,26,119,27,251c1,137-2,164-22,230c-116,369-431,615-951,744
	C9793,9401,9465,9427,9252,9399z M9930,8963c81-47,214-178,262-258c123-204,116-434-23-705c-62-121-115-190-240-316
	c-108-109-251-219-449-346l-125-79l-6,28c-22,88-119,1543-105,1561c16,22,155,88,233,112c100,30,152,37,278,39
	C9865,9000,9866,9000,9930,8963z M15460,9289c-108-18-131-59-133-239c-2-162,12-1729,17-1877l5-122l-32-5c-18-3-131-17-252-31
	s-285-37-364-51c-79-13-146-22-148-20s-8,93-13,202c-39,796-103,1355-195,1719c-65,256-85,285-210,304c-97,14-174,14-272-1
	c-167-24-184-98-143-595c42-515,62-896,80-1573c21-784,30-1055,50-1460c21-433,31-540,56-577c41-63,166-88,399-80
	c183,6,233,17,280,61c49,47,51,90,27,551c-12,220-26,506-32,635c-5,129-12,283-15,341l-4,107l32,6c121,21,747,86,760,79
	c4-2,7-48,7-103c0-135,48-1462,55-1530c8-67,47-152,81-175c65-42,330-65,483-41c77,12,98,19,122,42c30,29,53,89,63,164
	c4,25-5,333-19,685c-38,968-45,1167-40,1175c2,4,0,72-5,151s-14,358-20,619c-25,1127-68,1526-171,1602
	C15856,9292,15605,9312,15460,9289z M12265,9229c-649-32-813-51-979-113c-94-36-124-56-136-91c-13-39,10-140,38-168
	c29-29,170-39,427-32l211,7l17-224c31-386,36-518,47-1128c17-1005,30-1389,76-2185c8-148,19-286,24-306c23-85,112-112,370-113
	c198-1,288,14,334,55c31,27,31,29,34,136c2,59-8,317-22,573c-34,614-44,865-56,1410c-22,967-53,1434-114,1728c-8,37-13,69-10,71
	c2,2,163,8,357,12c369,8,435,15,534,59c81,36,93,53,93,134c0,102-19,136-90,160c-50,17-95,19-525,21
	C12637,9236,12353,9233,12265,9229z M7765,9195c-82-18-246-78-299-109c-57-33-83-77-95-157c-10-79,4-1779,18-2179
	c13-341,37-876,56-1240c11-219,17-275,34-325c39-110,73-126,217-101c184,32,415,120,477,181c37,37,37,16,2,710
	c-37,738-53,1160-65,1690c-23,1081-57,1433-146,1522c-19,19-33,23-81,22C7851,9208,7798,9202,7765,9195z M17050,9160
	c-236-29-435-95-481-160c-30-43-41-186-46-642c-7-559,8-862,82-1643c28-292,44-577,80-1352c18-408,27-539,39-560
	c15-30,104-137,138-165c43-38,148-18,474,91c529,175,815,317,1091,539c297,240,505,580,603,987c51,209,64,335,64,600
	c1,348-45,660-148,1016c-105,363-215,556-452,794c-276,278-534,414-909,480C17478,9164,17158,9173,17050,9160z M17425,8732
	c99-50,232-151,340-257c357-353,588-1031,588-1725c0-278-32-497-103-714c-38-114-132-306-201-411c-106-159-310-345-454-410
	c-79-37-204-79-211-72c-2,2-16,244-29,538c-14,294-32,647-40,784c-30,489-69,1704-75,2322v23l63-24
	C17337,8773,17392,8749,17425,8732z M23064,9141c-83-38-165-174-430-708c-107-216-197-393-199-393s-65,120-139,268
	c-138,272-167,325-295,537c-111,183-158,245-199,262c-49,20-251,20-356-1c-149-29-181-59-171-161c5-47,23-92,90-226
	c86-170,596-1225,667-1378c22-48,36-91,32-100c-3-9-8-551-10-1206c-3-1182-3-1190,17-1232c11-24,33-56,49-73c37-40,84-40,168,0
	c90,43,258,160,322,225l55,56l5,1007c3,554,3,1063,0,1132l-6,125l32,35c17,19,119,199,226,400c108,201,239,439,292,529
	c331,562,412,777,320,850c-37,29-193,62-319,67C23120,9160,23099,9158,23064,9141z M20211,9070c-71-19-197-74-371-162
	c-78-39-87-47-109-93c-36-74-269-1248-390-1965c-43-250-66-418-101-720c-29-251-53-409-135-875c-38-218-42-279-21-328
	c20-48,73-97,104-97c64,0,243,114,355,226c95,94,149,231,247,628c27,109,51,200,52,201c2,1,131,8,288,14c157,7,316,19,354,26
	c38,8,72,13,74,10c3-2,47-170,99-372s102-381,111-398c39-67,168-89,384-65c194,21,295,56,324,112c35,67,24,116-216,1018
	c-61,228-156,591-211,805c-224,870-290,1087-467,1540c-162,414-194,478-248,501C20294,9093,20302,9093,20211,9070z M20294,6986
	c70-280,126-512,126-516s-39-10-87-14c-94-8-289-32-343-42c-33-7-33-7-27,27c9,51,72,398,133,734c56,307,61,331,69,324
	C20167,7496,20225,7265,20294,6986z M24745,8536c-183-52-364-161-487-295c-62-67-118-172-138-260c-18-78-7-209,25-302
	c33-96,88-192,255-444c221-334,287-498,261-648c-18-107-64-181-172-274c-213-184-257-225-305-286c-130-166-171-337-125-519
	c24-91,62-169,149-303c83-128,134-235,139-293c4-44,2-49-36-87c-50-48-55-87-15-130c21-23,31-26,57-21c89,18,286,166,322,243
	c37,77-8,236-112,400c-117,184-137,220-160,283c-44,126-24,275,56,396c42,65,92,114,253,252c138,120,201,191,243,277
	c74,150,68,301-20,505c-47,109-93,188-252,427c-195,295-236,384-236,518c0,126,75,278,152,308c73,29,161,39,287,32
	c131-7,148-4,222,52c57,43,34,101-61,150c-44,23-67,27-152,30C24831,8549,24777,8545,24745,8536z M2785,8419c-121-28-250-86-294-133
	c-20-21-23-32-18-63c12-69,59-78,162-32c39,17,60,20,110,16c310-29,394-275,194-571c-58-85-130-173-249-301
	c-188-203-231-284-210-394c22-119,98-212,275-337c208-148,346-288,408-413c30-61,32-73,32-166c0-146-18-178-193-345
	c-299-288-392-426-392-589c0-133,38-207,210-406c117-136,116-135,151-135c54,0,221,131,235,185c8,33-26,88-121,195
	c-101,113-132,161-145,226c-16,75,1,146,52,226c24,38,116,138,233,253c203,201,245,257,285,375c18,52,21,82,18,160
	c-3,86-7,103-41,174c-79,165-216,311-454,484c-146,105-181,138-202,191c-29,69-3,114,194,330c298,329,392,510,364,708
	c-25,178-144,313-314,358C3010,8432,2850,8434,2785,8419z"/>
</svg>
