<?xml version="1.0" encoding="utf-8"?>
<!-- Generator: Adobe Illustrator 26.1.0, SVG Export Plug-In . SVG Version: 6.00 Build 0)  -->
<svg version="1.1" id="Layer_1" xmlns="http://www.w3.org/2000/svg" xmlns:xlink="http://www.w3.org/1999/xlink" x="0px" y="0px"
	 viewBox="0 0 2677 2048" style="enable-background:new 0 0 2677 2048;" xml:space="preserve">
<style type="text/css">
	.st0{fill:#231F20;}
</style>
<path transform="translate(0.000000,2048.000000) scale(0.100000,-0.100000)" class="st0" d="M15847,16500c-177-30-365-205-457-426
	c-110-265-92-525,69-1014c75-226,125-350,283-710c200-453,267-633,322-870c40-171,59-323,54-437c-6-136-36-199-147-308
	c-105-103-122-113-157-94c-15,7-50,48-78,89s-79,104-112,140c-34,36-79,84-101,107c-30,32-48,43-84,48c-88,13-199-60-229-150
	c-16-48-6-175,21-261c43-139,219-345,355-416c170-89,352-87,513,5c97,56,299,247,369,350c48,69,99,181,124,272c19,69,22,106,22,275
	c0,144-4,220-17,290c-71,382-147,609-391,1158c-184,414-275,654-349,922c-28,102-32,130-32,245v131l37,75c46,93,69,116,101,102
	c42-21,106-84,198-198c101-125,142-155,218-155c92,0,170,74,179,170c9,98-58,246-187,410c-108,136-226,217-360,246
	C15938,16511,15918,16512,15847,16500z M9909,16447c-50-27-84-71-100-131c-8-29-8-196,1-611c7-313,15-1193,19-1955
	c7-1275,9-1389,25-1431c40-108,138-176,268-186c86-6,884,23,1011,38c113,12,184,39,229,86c67,70,89,146,65,224
	c-32,104-110,160-250,179c-74,11-381,4-733-16l-111-6l-7,238c-3,132-15,597-26,1034c-40,1638-71,2273-117,2413
	C10142,16451,10020,16505,9909,16447z M14795,16411c-49-23-88-63-112-116c-15-35-17-68-15-275c5-392,29-526,109-602
	c114-108,303-56,348,96c20,66,20,293,0,484c-18,167-36,256-64,310C15007,16412,14893,16456,14795,16411z M11775,16362
	c-155-54-269-167-365-367c-271-557-368-1713-219-2595c59-346,170-690,303-933c115-212,290-403,431-473c72-36,86-39,159-39
	c164,1,265,82,374,300c103,204,176,441,231,745c12,63,28,140,36,170c30,112,11,196-58,257c-62,54-165,58-237,8
	c-52-36-88-110-140-290c-71-243-128-411-175-511c-25-54-47-100-50-102c-16-16-137,184-198,328c-120,283-198,645-226,1055
	c-5,77-8,142-5,144c2,2,165-1,362-8c326-10,363-10,409,5c94,30,155,99,190,210c16,53,18,99,17,424c0,467-28,740-105,1040
	c-93,360-248,569-468,634C11968,16385,11839,16384,11775,16362z M11954,15802c73-144,131-440,155-792c15-219,22-473,13-487
	c-7-12-339-43-456-43h-38l6,113c24,400,72,712,152,975c50,165,113,300,135,287C11926,15851,11941,15828,11954,15802z M13025,16318
	c-153-53-185-252-59-356c36-30,109-54,209-70l50-7v-1220c0-1549,21-2156,81-2352c53-170,243-225,364-104c70,70,80,118,80,382
	c0,118-5,300-10,404c-33,629-42,937-50,1735c-5,487-14,937-19,1000c-6,63-9,116-7,117c2,2,91-4,197-13c276-23,381-10,463,58
	c116,95,97,284-37,362c-81,48-158,56-622,66C13139,16332,13063,16331,13025,16318z M21755,11911c-52-13-110-48-147-89
	c-135-150-436-803-629-1365c-24-71-51-132-59-137c-32-17-327-40-520-40c-321,0-539,38-715,124c-144,71-232,170-256,288
	c-14,69,5,146,51,203c94,118,28,255-122,255c-176-1-333-220-332-465c2-312,220-592,574-738c260-108,646-161,1010-140
	c85,5,156,8,158,7s-24-98-57-216c-33-117-82-301-110-408l-51-195l-154-310c-273-546-511-939-780-1284c-160-206-389-422-417-394
	c-36,36-28,271,17,533c57,333,133,597,270,941c58,146,96,256,100,290c8,73-16,156-59,206c-89,102-261,110-359,16l-26-25l-55,54
	c-68,69-150,119-252,155c-72,25-93,28-210,28c-154,0-218-15-350-79c-293-142-551-435-760-861c-135-274-196-482-217-732
	c-10-130-13-142-33-151c-30-14-50-41-167-222c-55-85-146-216-201-290c-106-142-298-345-319-338c-33,11-37,255-8,435
	c66,405,288,1056,555,1623c105,225,126,284,133,376c10,154-65,267-216,324c-33,13-111,25-214,35c-90,8-216,23-282,32l-119,17l7,85
	c18,246-65,577-194,776c-87,132-193,218-338,273c-60,23-82,26-202,26c-123,1-142-2-215-27c-117-41-209-100-300-191
	c-144-146-200-275-200-461c0-123,14-177,72-285c125-231,373-417,708-531c39-13,71-24,73-25c7-4-85-145-143-219
	c-76-97-223-241-325-317c-77-58-240-162-244-156c-1,2-8,75-14,163c-37,496-123,710-326,810c-170,85-373,45-581-112
	c-89-68-315-295-446-448c-224-261-417-549-593-885l-66-125v62c0,61,1,64,84,190c213,327,410,707,564,1088c172,428,275,846,317,1295
	c21,215,16,605-9,711c-48,209-136,338-276,407c-49,24-66,27-160,27s-111-3-165-28c-84-40-160-101-225-183c-227-285-411-834-514-1529
	c-81-545-134-1317-119-1734l5-156l-98-120c-313-382-676-673-974-779c-197-71-357-74-486-8c-82,42-194,192-238,319l-13,37l93,107
	c160,185,289,372,428,622c143,257,243,496,304,727c35,131,36,140,36,325c1,155-2,202-17,255c-45,161-126,267-244,323
	c-61,28-77,31-158,31c-72-1-103-6-157-27c-274-106-473-392-648-932c-127-392-173-687-168-1065l3-225l-90-62c-111-76-262-152-375-189
	c-75-25-101-28-215-28c-122-1-134,1-185,26c-106,52-189,165-241,327l-30,95l23,30c524,709,1161,1990,1302,2618
	c115,511,72,882-124,1078c-204,204-510,172-741-78c-184-199-425-653-593-1120c-176-487-307-1092-372-1717c-18-171-25-624-11-729
	l8-59l-183-182c-422-419-753-616-1063-632c-128-6-222,13-334,68c-166,82-280,233-333,440l-22,87l34,40c19,22,95,109,168,194
	c633,730,1060,1471,1159,2013c24,131,22,346-5,446c-70,262-243,401-497,402c-208,0-391-83-579-263c-412-395-686-1002-787-1745
	c-26-187-37-654-20-820l11-109l-62-64c-178-181-553-492-771-640c-399-271-729-402-1012-402c-163,0-265,40-361,142
	c-237,251-230,836,21,1643c158,509,363,951,614,1325c179,267,396,509,521,583c116,68,247,90,317,53c117-60,183-179,219-392
	c20-121,46-185,90-224c89-77,218-51,269,56c38,79,37,320-1,468c-53,208-205,407-384,500c-109,57-169,71-310,70c-140-1-243-25-375-89
	c-346-166-785-711-1107-1375c-268-553-471-1220-532-1750c-95-814,222-1391,824-1500c93-17,312-14,426,5c466,80,992,380,1584,905
	c84,74,155,136,159,137c3,2,17-22,30-52c109-253,383-485,672-569c506-146,1028,65,1660,671l97,94l37-62c132-225,317-365,562-426
	c93-23,320-23,422,1c182,41,378,125,541,231c46,30,86,55,89,55s25-33,49-72c166-282,417-439,727-454c391-20,856,208,1301,639
	l132,128l6-53c26-268,38-318,89-394c80-119,215-153,340-86c83,45,115,96,220,362c169,425,396,860,585,1120c211,290,538,623,667,681
	c40,18,40,18,48-4c27-72,54-326,63-582l7-190l-69-29c-130-54-339-167-469-254c-160-106-346-286-411-397c-48-83-96-198-115-275
	c-18-73-18-261,0-325c100-358,519-536,879-374c344,155,596,633,654,1239l12,126l120,64c255,137,421,256,595,424
	c176,172,292,325,402,531c48,90,54,96,78,92c14-3,108-14,209-24c100-10,182-21,182-24s-31-71-69-150c-282-589-528-1335-581-1759
	c-15-123-12-353,5-453c45-257,158-422,325-471c101-30,216-15,335,45c208,106,441,377,700,819l39,66l61-41c263-177,651-32,1009,375
	c55,63,116,133,134,155c29,34,33,36,27,15c-3-14-9-110-12-215c-4-165-2-203,15-287c48-229,180-389,362-438c62-17,180-14,247,5
	c253,74,543,365,902,905c46,69,87,129,91,133s12-66,18-155c14-185,36-305,82-429c68-190,206-358,356-437c129-66,215-86,374-86
	c233,0,440,62,714,215c59,34,111,57,115,52c4-4,30-39,56-78c106-152,274-293,450-380c135-66,238-94,375-102c406-22,720,187,1036,689
	c61,95,369,594,507,818c92,148,101,262,30,358c-55,74-164,109-249,82c-60-19-125-74-171-143c-23-34-132-210-243-392
	c-382-623-460-729-613-834c-110-75-266-96-390-52c-76,27-177,95-250,168c-60,60-131,157-125,172c2,4,52,50,113,102
	c563,484,1070,1220,1171,1699c25,120,23,300-5,403c-94,357-429,498-818,347c-289-112-577-435-804-904c-122-253-187-464-230-751
	c-23-150-32-485-17-635l8-75l-90-54c-323-193-580-255-715-171c-69,43-124,157-151,313c-13,74-15,137-11,317c8,321,46,565,176,1106
	c87,364,87,363,224,680c69,159,147,341,174,404l48,114l80,22c44,12,303,84,575,159c1019,282,1346,352,1690,362c253,8,381-17,465-90
	l38-33l-28-57c-23-48-27-67-23-115c7-101,64-186,153-228c97-46,214-21,303,64c98,93,137,226,108,368c-19,95-78,218-140,294
	c-189,228-522,334-948,301c-407-32-762-111-1694-377c-183-52-336-94-341-94c-6,0,34,116,87,258c201,533,280,788,280,901
	c0,120-67,214-174,246C21823,11921,21802,11922,21755,11911z M13666,10940c16-91,18-389,4-550c-47-518-185-988-440-1505
	c-135-274-136-275-132-193c12,285,57,769,98,1063c81,579,226,1051,392,1279l36,49l14-34C13646,11030,13658,10981,13666,10940z
	 M10071,10985c63-143,44-474-45-780c-130-452-468-1164-822-1734c-49-77-89-139-90-138c-3,5,27,270,47,412c98,696,275,1305,528,1815
	c111,223,189,348,268,429C10027,11062,10037,11061,10071,10985z M7607,10035c21-59,12-265-17-375c-86-326-308-736-638-1177
	c-181-241-316-401-320-378c-6,30,18,300,39,445c85,569,293,1043,602,1367c107,111,200,166,276,161C7591,10075,7594,10073,7607,10035
	z M15787,10059c68-33,125-127,168-275c26-91,48-247,38-282c-5-20-6-20-56-2c-168,57-274,117-366,204c-126,121-133,193-29,292
	C15628,10079,15706,10098,15787,10059z M11251,9238c55-215-51-577-277-949c-66-109-213-327-227-336c-20-12,30,299,79,492
	c68,271,161,523,245,666c41,70,137,179,157,179C11234,9290,11244,9266,11251,9238z M23178,9152c35-23,42-160,13-273
	c-82-321-448-849-840-1215l-83-78l7,79c27,330,81,541,201,792c174,367,382,617,567,684C23098,9160,23156,9165,23178,9152z
	 M18776,8739c45-19,124-84,124-102c0-11-85-139-274-407c-271-386-469-631-610-751c-84-72-199-139-213-125c-4,4-9,49-11,99
	c-14,375,318,1016,638,1234C18549,8768,18668,8786,18776,8739z M14566,7419c-50-196-104-320-186-430c-99-134-243-178-323-98
	c-28,29-29,33-25,98c13,176,156,336,459,511c57,33,104,58,106,56S14585,7493,14566,7419z"/>
</svg>
