<?xml version="1.0" encoding="utf-8"?>
<!-- Generator: Adobe Illustrator 26.1.0, SVG Export Plug-In . SVG Version: 6.00 Build 0)  -->
<svg version="1.1" id="Layer_1" xmlns="http://www.w3.org/2000/svg" xmlns:xlink="http://www.w3.org/1999/xlink" x="0px" y="0px"
	 viewBox="0 0 2677 2048" style="enable-background:new 0 0 2677 2048;" xml:space="preserve">
<style type="text/css">
	.st0{fill:#231F20;}
</style>
<path transform="translate(0.000000,2048.000000) scale(0.100000,-0.100000)" class="st0" d="M22905,19816c-68-31-158-109-231-198
	c-33-40-164-199-291-353c-459-558-594-748-746-1054c-297-593-355-1101-127-1101c39,0,83,22,103,53c8,13,30,80,47,148
	c83,319,285,724,511,1020c137,179,304,367,718,809c194,206,257,286,316,395c55,102,17,228-84,282
	C23061,19849,22974,19848,22905,19816z M19220,19670c-93-12-188-49-279-110c-105-71-182-143-210-198c-27-53-28-141-2-198
	c37-81,157-152,234-137c50,9,103,40,125,71c13,17,53,43,103,67l82,38l111-16c204-29,375-92,493-181c138-105,284-358,349-605
	c91-349,66-756-83-1346c-97-388-235-758-413-1110c-145-289-244-449-533-861c-555-792-751-1106-822-1318c-37-109-32-170,16-215
	c25-23,77-28,100-8c9,6,66,84,127,172c126,181,193,268,697,909c395,502,533,689,663,901c381,621,666,1427,758,2143
	c23,174,23,480,0,636c-67,465-300,904-587,1109c-189,134-462,230-728,257C19309,19681,19302,19681,19220,19670z M17055,19551
	c-121-54-157-198-87-337c43-85,83-135,308-385c256-286,343-390,428-513c166-237,363-609,480-908c45-113,89-209,106-230
	c106-128,292-68,315,102c23,169-181,714-431,1146c-123,213-197,313-544,735c-284,345-359,409-479,409
	C17119,19570,17078,19562,17055,19551z M24480,18915c-728-125-1449-722-2155-1785c-253-381-427-688-661-1165
	c-294-602-457-1001-664-1625c-111-332-178-579-230-835c-64-321-64-409,0-470c40-38,120-46,168-15c43,26,57,61,132,321
	c145,503,358,1085,606,1654c92,211,435,902,559,1125c266,478,552,904,860,1280c139,171,457,490,600,604c373,297,714,444,1005,434
	c96-3,112-6,173-36c137-68,251-254,317-517c37-144,50-259,50-427c0-175-21-331-69-521c-85-333-199-547-395-742
	c-203-201-370-284-571-285c-139,0-253,39-336,117c-125,117-147,278-68,497c54,149,140,276,270,400c83,80,178,136,231,136
	c15,0,56-15,90-34c84-46,168-69,218-61c133,23,208,166,151,292c-42,92-159,186-285,231c-96,34-237,35-341,2c-155-49-271-124-410-264
	c-207-209-352-469-411-738c-24-109-22-301,5-403c111-424,521-687,990-636c324,35,606,195,889,506c249,273,432,698,507,1180
	c23,145,30,416,16,560c-32,308-131,612-268,818c-65,98-182,218-269,277c-85,56-207,106-312,126C24782,18933,24583,18933,24480,18915
	z M15495,18059c-396-31-791-229-1129-565c-218-218-376-463-461-718c-46-138-66-257-66-407c0-329,134-638,378-871
	c185-175,419-261,708-261c340,1,625,123,880,378c169,169,291,357,329,509c22,91,21,228-4,307c-56,183-223,347-420,413
	c-103,34-266,66-337,66c-211-1-301-228-143-362c31-27,76-47,199-87c177-58,243-94,267-145c22-45,13-87-34-164
	c-117-192-303-345-502-412c-91-31-298-39-390-16c-106,27-169,63-245,141c-189,193-257,455-185,715c88,316,367,654,708,859
	c103,62,208,106,331,139c86,23,115,25,271,26c192,0,289-15,479-75c275-87,597-302,765-511c270-334,387-741,356-1238
	c-30-496-132-854-380-1337c-86-167-110-223-110-254c0-82,84-118,150-63c78,66,272,354,377,561c203,397,316,840,330,1298
	c11,374-46,648-202,973c-141,293-306,489-580,692C16441,17942,15942,18095,15495,18059z M7230,17303c-416-22-810-178-1155-456
	c-171-138-398-397-522-598c-162-259-286-599-338-924c-22-136-31-573-16-741c62-656,317-1312,786-2019c151-227,286-406,506-670
	c290-347,511-564,634-621c92-44,197-27,230,36c31,60,8,113-66,150c-62,32-213,216-510,620c-224,306-355,500-490,725
	c-284,472-462,881-568,1301c-103,408-118,870-41,1243c43,204,157,485,265,653c408,630,1047,933,1663,788c168-40,381-150,471-243
	l33-35l-48-25c-27-14-89-52-139-84c-298-197-533-505-640-835c-115-356-70-628,135-821c77-74,176-127,280-151c84-20,249-20,325-1
	c192,50,355,177,497,390c155,231,255,501,289,778c14,118,6,385-14,474l-14,61l136,41c250,75,463,120,670,141c251,25,419,1,529-74
	c86-59,154-70,228-37c94,43,131,158,84,256c-43,88-230,204-395,245c-310,76-769,34-1283-115c-84-25-156-45-161-45s-36,33-69,73
	c-175,212-468,390-770,466C7597,17289,7381,17311,7230,17303z M8339,15965c3-240-74-497-212-707c-99-153-174-209-278-209
	c-67-1-109,18-143,64c-18,25-21,42-20,125c0,82,5,112,33,192c91,269,274,486,537,640l69,40l6-27C8335,16067,8338,16015,8339,15965z
	 M3505,16181c-61-28-111-89-126-156c-20-88,13-253,167-836c187-712,249-923,360-1225c133-365,341-814,514-1109
	c188-319,488-741,677-950c207-229,288-277,382-227c48,26,74,76,67,130c-6,48-36,98-178,294c-270,377-575,889-740,1243
	c-281,602-391,948-658,2062c-136,566-177,682-261,745C3642,16202,3572,16212,3505,16181z M1290,15957c-71-23-130-111-130-196
	c0-47,33-123,84-195c26-36,146-168,269-293c122-126,321-334,443-463c121-129,308-325,414-435c417-432,689-775,854-1077
	c64-116,89-138,139-119c59,23,77,94,52,208c-43,193-144,408-308,655c-150,226-283,398-531,687c-122,142-279,327-351,412
	c-279,332-606,695-669,744C1454,15964,1378,15985,1290,15957z M23389,14449c-47-4-147-24-222-43c-477-122-890-398-1126-751
	c-105-157-171-338-155-429c9-57,51-96,101-96c49,0,65,17,124,128c180,344,615,636,1105,744c142,31,342,32,440,1
	c99-31,133-58,171-132c61-116,42-186-65-244c-43-23-54-25-81-16c-65,23-148-18-177-88c-20-46-17-130,5-179c54-118,223-167,377-109
	c184,69,317,199,375,365c19,53,23,86,23,180c0,100-4,126-28,195c-76,221-225,369-436,433C23692,14447,23526,14463,23389,14449z
	 M8704,13776c-63-20-125-68-189-146c-110-134-312-499-395-712c-116-297-181-662-166-923c21-352,55-452,168-499
	c102-43,214,13,258,129c8,19,13,122,15,275c2,200,7,268,25,370c54,302,144,528,350,875c142,240,203,405,186,499
	c-13,70-108,146-181,145C8759,13789,8727,13783,8704,13776z M15692,13509c-88-28-158-88-199-170c-36-70-34-65-328-1164
	c-545-2037-783-3124-900-4100c-124-1034-156-2287-90-3455c27-464,66-933,106-1263l20-167l-20-56c-45-118-21-206,83-309
	c67-66,80-74,218-132c81-34,209-85,285-112s318-115,538-194c633-229,692-245,930-254c176-7,269,8,403,62c182,74,293,162,547,437
	c98,106,318,339,489,518c367,384,397,415,717,760c135,146,356,380,490,521c298,311,480,511,750,819c497,570,656,760,1175,1410
	c548,685,544,680,976,1300c422,607,488,708,851,1311c291,484,355,626,345,770c-6,83-36,147-97,209c-72,73-758,566-1246,895
	c-710,480-1217,776-1970,1153c-782,390-1515,667-2595,979C16440,13487,15894,13573,15692,13509z M16110,13010
	c401-65,788-165,1477-384c868-276,1314-457,2078-845c521-265,772-404,1165-649c368-229,1171-773,1151-780c-6-2-89,8-183,23
	c-791,122-1476,340-2953,942c-895,365-1411,596-1770,793c-452,248-671,396-896,607c-113,106-239,269-239,308
	C15940,13034,15982,13030,16110,13010z M16115,12179c116-96,232-179,375-269c63-40,119-76,123-80c15-13-34-92-95-156
	c-67-70-115-94-231-118c-198-41-386-27-520,37c-74,36-181,123-192,156c-4,14,140,578,191,744c4,14,33-10,132-111
	C15968,12311,16066,12220,16115,12179z M17720,11263c157-71,365-163,462-204c98-41,178-76,178-79s-21-18-47-35
	c-129-81-223-186-293-325c-201-400-147-791,149-1089c174-175,381-293,630-358c76-20,128-27,251-30c177-6,284,11,426,66
	c162,63,350,215,460,371c124,177,224,455,224,625c0,36,3,65,6,65s87-27,187-60c329-107,848-250,912-250c11,0-14-20-60-46
	c-102-60-237-193-292-289c-54-93-106-219-134-330c-32-122-34-360-5-475c77-302,272-516,571-626c33-13,59-28,57-34
	c-4-17-217-320-362-515c-219-295-1125-1419-1313-1630l-36-40l-1,47c0,62-32,226-60,308c-81,244-251,489-434,626
	c-79,60-221,128-326,156c-74,20-108,23-265,23c-165,0-188-3-278-28c-336-93-665-309-824-539c-210-304-281-716-189-1082
	c89-347,361-645,719-785c117-46,277-81,367-81h62l-58-63c-33-34-205-220-384-412s-442-471-585-620s-351-369-463-490
	c-231-250-311-323-398-366c-147-73-342-54-674,64c-69,25-138,50-155,57l-30,12l64,29c174,80,406,276,540,458c82,111,165,282,192,396
	c28,114,30,299,5,428c-83,430-353,727-739,814c-99,22-309,22-401-1c-251-61-552-265-719-488l-35-47l-7,137c-8,162-24,875-19,881
	c1,1,24-4,51-13c197-66,411-59,628,18c293,105,456,302,511,619c36,207-16,430-148,634c-124,190-295,312-517,370
	c-110,29-290,35-400,14c-34-7-66-10-69-7c-7,8,33,481,64,751c83,726,190,1307,425,2295c64,269,256,1037,310,1237l11,43l47-41
	c103-92,261-163,427-195c184-34,467-16,636,42c163,55,317,181,424,345l42,65l199-97C17346,11435,17563,11334,17720,11263z
	 M19205,10637l360-144l18-49c9-27,34-82,54-122c48-95,47-136-1-259c-45-114-72-161-127-227c-119-142-235-196-425-196
	c-210,0-442,103-589,262c-84,91-109,150-113,271c-8,215,86,387,272,501c82,50,179,105,186,105C18843,10780,19007,10715,19205,10637z
	 M22200,9810c124-17,231-32,238-33c24-4-654-1103-706-1144c-22-18-56-16-147,7c-112,29-177,62-240,121c-95,90-131,197-123,368
	c6,121,45,256,101,350c74,124,208,209,437,276c135,40,161,51,173,71C21944,9844,21940,9845,22200,9810z M14969,6665
	c145-38,244-121,310-258c73-152,77-276,13-407c-51-103-172-159-364-167l-116-5l-20,38c-11,22-28,47-39,56c-27,25-87,48-124,48h-32
	l6,153c4,83,10,236,13,339c4,103,10,192,14,198C14648,6690,14864,6693,14969,6665z M18774,6618c33-11,84-35,113-55
	c172-114,311-398,313-639c0-134-76-327-197-495c-59-83-172-280-187-326c-9-28-88-44-251-50c-110-4-144-2-220,16
	c-284,68-501,269-572,531c-27,101-23,297,10,422c30,112,88,231,149,302c117,136,398,287,586,315C18595,6651,18702,6642,18774,6618z
	 M15700,4453c181-50,308-225,341-469c26-197-48-358-254-549c-92-87-162-133-257-172c-101-40-192-53-417-60c-207-6-212-5-248,17
	c-20,12-41,34-46,47c-15,40-11,344,7,461c39,263,130,430,306,565C15354,4463,15509,4506,15700,4453z M16397,9731
	c-135-19-185-36-337-114c-85-44-177-94-205-112c-127-82-218-192-301-360c-186-383-201-752-43-1070c116-233,348-432,657-565
	c131-56,238-82,372-87c389-17,679,164,872,544c100,195,145,361,154,568c13,272-60,523-219,753c-128,186-398,379-599,427
	C16673,9733,16478,9742,16397,9731z M16696,9195c214-107,340-295,369-546c25-228-122-582-282-676c-163-95-379-58-625,106
	c-277,186-347,456-216,829c39,113,79,182,138,241l48,48l114,7c62,4,131,11,153,16c22,4,83,8,136,9C16622,9230,16631,9228,16696,9195
	z M1599,13290c-401-26-700-185-915-486c-104-146-194-337-194-413c0-111,97-211,205-211c73,0,156,54,192,125c24,47,242,312,292,356
	c56,49,185,113,266,134c180,46,483,41,662-11c265-77,489-260,610-499c22-42,73-197,73-219c0-8-40-26-100-45
	c-339-108-656-355-807-629c-165-300-142-620,61-839c167-180,419-223,662-113c334,151,615,621,651,1090c3,43,9,83,13,89
	c8,14,132-8,230-40c234-77,544-289,734-505c244-275,362-522,426-884c25-143,40-178,94-204c32-16,44-17,76-7c82,24,104,88,103,291
	c-3,372-113,674-374,1020c-240,318-626,607-959,720c-83,28-266,70-306,70s-47,11-63,90c-50,253-189,508-386,705
	c-234,233-576,388-905,410C1768,13296,1713,13297,1599,13290z M2796,11511c-24-214-131-438-269-568c-74-69-119-93-176-93
	c-103,0-133,147-60,297c25,51,58,92,134,169c55,55,127,118,160,139c50,33,201,114,214,115C2801,11570,2800,11544,2796,11511z
	 M23415,12724c-291-22-536-79-807-188c-357-143-631-326-741-494c-79-121-95-193-56-262c26-47,66-70,119-70c55,0,90,20,171,96
	c37,35,100,84,139,110c146,94,395,200,617,263c484,137,842,120,1603-76c203-52,220-55,315-51c88,3,106,7,147,31c50,29,91,86,103,145
	c23,110-65,228-214,286c-54,21-429,108-611,142C23923,12707,23583,12737,23415,12724z M8975,11146c-521-103-1034-284-1533-542
	c-427-221-685-365-1022-572c-595-366-923-607-1310-967c-563-522-797-860-865-1249c-19-113-19-272,1-356c27-117,97-232,174-285
	c25-17,41-38,49-64c20-67,55-117,711-1006c402-546,581-777,889-1150c462-561,768-903,1131-1265c452-452,728-702,1130-1025
	c563-452,1652-1195,2026-1383c147-74,178-81,359-79l160,2l79,38c231,110,331,191,694,566c309,320,409,441,484,586
	c112,218,124,344,82,885c-47,618-123,1177-230,1704c-54,263-123,538-238,944c-47,167-86,322-86,345c-1,122-36,246-85,297
	c-17,18-49,103-109,290c-100,312-211,632-486,1400c-352,986-399,1107-705,1835c-202,480-258,602-306,665c-19,25-43,65-52,89
	c-54,134-173,224-383,287c-79,24-109,27-264,30C9118,11169,9079,11166,8975,11146z M9344,10681c4-5-24-31-61-57
	c-38-27-248-181-468-343c-762-561-895-656-1530-1082c-421-284-817-532-1611-1009c-404-243-734-449-904-564c-85-57-159-102-164-99
	c-13,9,4,151,30,243c74,262,260,506,664,874c323,295,572,490,889,700c200,132,707,437,926,556c285,156,782,403,930,464
	c334,137,738,258,1050,315C9162,10691,9337,10692,9344,10681z M10102,9245c44-115,129-344,187-508l107-299l-23-46
	c-29-60-133-488-224-927c-292-1408-447-2060-660-2775c-173-578-271-863-478-1390c-82-206-155-393-162-415c-8-22-20-40-26-40
	c-44,0-1021,872-1009,900c115,250,292,698,412,1044c157,453,230,656,346,966c356,949,504,1411,799,2490c197,719,281,1077,384,1638
	l28,148l118-288C9967,9585,10057,9361,10102,9245z M9266,10003c-3-10-19-97-36-193c-65-365-131-655-261-1150
	c-314-1193-475-1724-799-2625c-163-455-202-567-341-1000c-114-355-314-946-328-973c-16-28-851,911-837,942c2,6,30,70,61,141
	c96,219,261,733,416,1300c73,265,409,1621,444,1790c13,66,37,204,53,306c28,183,29,194,10,311c-2,12,70,67,257,194
	c358,243,840,590,1250,897c55,42,104,76,108,76C9268,10020,9269,10012,9266,10003z M7130,8502c0-58-181-883-406-1847
	c-60-260-294-1197-320-1283l-16-53l-146,183c-80,101-233,299-340,442l-194,258l65,137c83,173,201,470,271,682
	c80,242,226,831,226,912v65l238,145c130,80,320,197,422,261c102,63,188,115,193,116C7127,8520,7130,8512,7130,8502z M5745,7658
	c-3-13-19-93-35-178c-40-202-114-487-190-730c-34-107-63-196-64-197c-1-2-378,509-464,628c-11,16-2,25,95,91c122,82,644,406,656,407
	C5747,7680,5748,7670,5745,7658z M10909,6955c60-181,139-428,175-547l65-217l-59-588c-132-1312-203-1777-435-2837
	c-42-192-102-478-135-635c-77-376-102-482-111-479c-21,7-1095,802-1239,917l-24,19l56,119c84,175,251,547,323,718
	c226,537,518,1444,709,2202c83,331,282,1186,382,1642c35,163,67,303,70,311C10693,7597,10753,7428,10909,6955z M11563,4485
	c94-556,173-1344,166-1650c-4-135-5-143-36-205c-52-103-106-167-390-464c-238-247-407-405-420-393c-2,3,3,29,11,58
	c27,95,262,1066,315,1299c102,460,179,885,245,1365c20,143,39,276,43,295l6,35l7-35C11514,4771,11538,4634,11563,4485z M2610,9429
	c-138-7-170-13-231-44c-91-48-139-114-139-193c0-84,45-146,140-191l55-26l320-1c345-1,495-14,748-68c124-26,147-36,233-96
	c70-49,126-59,190-35c125,48,136,221,21,351c-84,95-212,158-437,213C3201,9414,2904,9444,2610,9429z"/>
</svg>
