<?xml version="1.0" encoding="utf-8"?>
<!-- Generator: Adobe Illustrator 26.1.0, SVG Export Plug-In . SVG Version: 6.00 Build 0)  -->
<svg version="1.1" id="Layer_1" xmlns="http://www.w3.org/2000/svg" xmlns:xlink="http://www.w3.org/1999/xlink" x="0px" y="0px"
	 viewBox="0 0 2677 2048" style="enable-background:new 0 0 2677 2048;" xml:space="preserve">
<style type="text/css">
	.st0{fill:#231F20;}
</style>
<path transform="translate(0.000000,2048.000000) scale(0.100000,-0.100000)" class="st0" d="M13695,18759c-74-12-201-80-272-144
	c-89-80-181-199-238-307c-27-51-133-220-236-376c-103-155-271-422-374-592c-213-355-274-441-394-560c-157-155-289-238-531-333
	c-246-96-504-169-1003-282c-281-64-622-156-795-216c-155-54-381-165-463-227c-145-110-245-255-286-412c-37-145-14-338,61-512
	c99-229,181-332,607-764c376-382,479-497,588-659c124-184,172-286,197-425c32-177,15-303-106-788c-210-849-275-1355-209-1629
	c66-273,322-492,659-564c87-19,136-22,280-22c340,1,582,67,1235,338c220,91,374,148,542,200c7,3-17-44-54-103
	c-123-196-190-320-213-392c-54-167,9-322,163-401c46-24,178-59,222-59h31l1-97c1-55,15-185,31-293c52-329,57-391,56-655
	c0-230-3-261-28-390c-49-255-135-569-283-1040c-174-554-247-839-308-1200c-47-278-59-430-52-675c11-387,55-584,296-1340
	c140-435,199-722,208-1005s-19-442-147-824c-116-350-140-465-140-681c1-289,77-639,188-855c86-168,181-233,297-204
	c65,16,126,77,144,142c19,65,1,219-44,379c-53,188-78,351-79,513c-1,172,8,215,114,540c44,132,91,285,105,340c87,334,96,676,29,1059
	c-49,279-93,447-229,866c-202,623-239,809-239,1180c0,389,67,738,290,1519c169,589,236,864,281,1151c25,164,25,561,0,715
	c-42,251-106,487-194,709c-30,76-53,139-51,140c2,2,68,10,147,20c147,18,338,53,426,80c160,48,243,182,215,344
	c-13,76-62,206-127,335c-24,49-38,85-31,81s83-52,168-108c461-298,722-418,1072-491c169-36,475-46,627-21c233,39,403,128,562,292
	c131,137,216,287,288,509c79,241,106,437,98,700c-8,253-30,347-187,815c-71,212-141,432-155,490c-71,301-45,459,115,695
	c70,102,158,198,310,336c383,348,600,608,779,934c143,261,221,529,221,758c0,375-248,702-708,932c-234,117-330,144-957,274
	c-374,77-407,85-512,122c-208,73-441,234-591,409c-140,163-204,279-494,881c-138,285-284,497-458,663
	C14008,18718,13842,18784,13695,18759z M13791,18258c103-79,267-313,376-538c322-664,396-796,555-985c227-272,544-489,867-595
	c70-23,254-67,439-104c691-140,771-162,960-262c222-117,341-227,394-366c60-158-32-465-229-763c-149-225-277-370-529-600
	c-310-283-422-410-538-610c-232-403-226-740,28-1452c166-464,181-533,180-793c0-214-14-303-74-483c-47-140-95-223-175-303
	c-117-118-211-149-445-148c-171,0-309,24-493,84c-204,68-326,134-777,424c-311,200-516,274-817,295c-353,25-682-53-1280-303
	c-587-245-799-307-1058-308c-176,0-282,29-379,105c-61,49-76,92-76,232c0,268,71,675,231,1320c91,365,111,489,112,680
	c0,289-74,524-250,795c-143,219-229,316-693,785c-393,397-435,447-507,602c-43,93-57,208-30,259c82,158,456,295,1376,504
	c370,84,661,173,912,280c272,116,424,215,605,395c174,173,263,302,431,620c49,94,106,192,127,219c50,66,121,190,251,436
	c130,247,181,333,248,424c49,66,180,186,204,186C13743,18290,13768,18275,13791,18258z M13497,10554c28-5,31-13,88-182
	c32-98,75-217,96-267c20-49,36-92,34-94c-9-9-314-41-448-47l-147-7l54,116c76,161,141,329,162,415l17,72h57
	C13442,10560,13481,10557,13497,10554z M14682,15933c-36-7-89-64-101-110c-21-77-1-120,116-245c47-51,106-123,130-160
	c89-138,144-325,173-588c6-52,17-116,26-141c32-99,137-179,235-179c128,0,239,125,239,268c0,56-53,299-91,416
	c-73,228-220,459-366,579C14889,15899,14773,15950,14682,15933z"/>
</svg>
