<?xml version="1.0" encoding="utf-8"?>
<!-- Generator: Adobe Illustrator 26.1.0, SVG Export Plug-In . SVG Version: 6.00 Build 0)  -->
<svg version="1.1" id="Layer_1" xmlns="http://www.w3.org/2000/svg" xmlns:xlink="http://www.w3.org/1999/xlink" x="0px" y="0px"
	 viewBox="0 0 2677 2048" style="enable-background:new 0 0 2677 2048;" xml:space="preserve">
<style type="text/css">
	.st0{fill:#231F20;}
</style>
<path transform="translate(0.000000,2048.000000) scale(0.100000,-0.100000)" class="st0" d="M9005,16533c-22-2-121-12-220-23
	s-324-33-500-50c-384-36-475-47-537-61c-195-45-228-285-50-367c54-24,63-25,227-24c93,0,221,4,284,8l114,7l-7-251
	c-8-283,9-1287,25-1492c19-244,49-353,113-407c44-37,88-53,146-53c92,0,154,44,198,138l25,55l-6,261c-3,143-15,410-26,591
	c-17,288-25,465-45,1046l-4,127l121,6c268,14,458,41,522,73c184,93,160,349-39,408C9299,16539,9119,16543,9005,16533z M13106,16288
	c-75-21-136-107-136-193c0-108,121-333,452-839c104-159,216-324,249-367c61-81,66-92,49-131c-63-151-299-766-322-838
	c-53-175-48-281,19-361c65-77,188-97,276-46c70,42,156,160,157,218c0,9,11,41,24,70c25,57,169,449,410,1114c79,220,206,560,281,755
	c154,402,164,444,125,525c-14,29-38,56-63,73c-35,23-51,27-113,27c-64,0-77-3-116-30c-23-17-60-55-80-85c-45-67-176-352-289-632
	c-46-115-86-208-90-208c-16,0-390,520-552,767c-68,104-96,138-130,157C13205,16294,13157,16302,13106,16288z M10244,16280
	c-98-14-235-49-291-75c-103-47-173-148-173-249c0-20-14-48-44-85c-198-253-308-561-323-901c-14-341,87-605,313-820
	c334-315,715-382,1064-187c95,53,257,211,329,322c115,176,224,441,271,660c27,126,38,392,21,517c-45,337-177,551-416,675
	c-184,95-359,141-560,148C10364,16287,10278,16285,10244,16280z M10620,15745c113-36,170-66,208-109c65-74,102-289,82-472
	c-33-306-201-658-362-760c-55-35-150-57-207-49c-90,13-209,83-308,182c-131,132-179,344-138,613c26,177,75,316,167,477
	c33,57,48,75,74,83c18,6,44,20,58,31c37,29,97,39,226,35C10511,15773,10553,15767,10620,15745z M15580,16146c-3-3-62-12-130-20
	c-165-20-255-63-372-174c-198-190-381-569-444-922c-23-128-23-400,0-529c51-283,184-520,378-675c156-125,289-171,468-163
	c215,10,411,105,595,291c109,109,202,246,284,416c110,230,140,346,147,585c5,149,3,183-16,275c-40,196-147,416-285,588
	c-110,137-253,237-418,292C15709,16137,15591,16157,15580,16146z M15639,15626c146-75,206-141,297-329c106-220,95-454-35-717
	c-66-134-114-204-196-285c-125-124-255-166-348-112c-102,60-203,208-241,352c-28,107-40,281-27,402c29,277,174,640,311,782l41,42
	l45-40C15512,15699,15580,15656,15639,15626z M18122,16139c-111-21-186-117-211-269c-6-36-20-177-31-315c-12-137-32-332-46-433
	c-54-405-162-809-241-903c-43-51-133-36-232,39c-86,66-131,160-161,336c-33,198-42,334-49,771c-8,460-10,478-62,544
	c-31,39-113,81-158,81c-103,0-195-70-225-170c-26-86-39-369-33-745c7-445,33-652,107-844c140-361,538-607,870-537
	c294,62,448,275,580,801c80,318,121,593,160,1080c22,263,21,324-5,405C18348,16093,18237,16160,18122,16139z M19690,15325
	c-80-13-212-32-295-44c-264-36-370-76-425-159c-97-147,4-332,182-332c31,0,90,4,130,10c40,5,195,19,343,30c149,12,290,26,314,31
	c92,20,161,71,197,145c67,138-15,301-167,333C19902,15354,19861,15351,19690,15325z M7180,15205c-41-8-196-30-345-50
	c-148-19-298-42-332-51c-236-61-247-362-15-430c54-16,70-16,287,0c395,29,548,46,615,66c157,46,239,198,179,330
	c-27,59-53,87-113,117C7394,15218,7287,15225,7180,15205z M17823,12870c-220-40-411-201-538-457c-80-163-183-514-239-822
	c-13-73-28-137-33-141c-14-14-154-52-169-46c-8,3-14,13-14,23s-22,63-49,118c-212,430-711,554-984,244c-50-57-103-154-114-211
	c-3-18-18-51-33-73c-108-158-156-344-131-506c25-159,83-277,195-396c116-124,236-169,421-161c171,8,324,73,453,193
	c99,92,197,244,232,362c14,44,22,49,141,78l26,6l7-168c22-550,149-860,402-980c75-36,84-38,179-38c87,0,107,3,157,27
	c112,52,193,153,244,303c66,197,31,512-87,774c-16,35-29,67-29,71s18,10,40,14c133,21,344,116,431,193c81,73,141,158,146,207
	c9,77-42,136-117,136c-44,0-77-20-140-85c-95-98-253-160-471-184c-91-10-95-10-116,12l-22,22l102,76c198,148,371,318,466,457
	c53,79,84,142,117,242c26,78,28,97,28,235c0,132-2,157-22,206C18222,12802,18035,12907,17823,12870z M17997,12548
	c54-44,69-184,33-302c-49-156-235-356-511-546c-40-28-74-48-76-46c-3,2,14,80,37,172c115,465,224,666,397,730
	C17919,12572,17973,12568,17997,12548z M16295,11586c28-13,68-39,90-59c43-37,100-124,110-169l7-28l-78-2c-117-4-224,2-268,13
	c-72,19-144,119-86,119c34,0,80,29,91,58c6,15,8,41,4,59l-6,33h43C16226,11610,16267,11599,16295,11586z M17445,11064
	c33-7,78-14,100-14c37,0,43-4,72-48c86-130,143-324,143-491c0-168-74-311-162-311c-54,0-100,45-147,144c-66,137-87,258-98,565
	c-6,179-6,184,13,177C17376,11082,17412,11072,17445,11064z M16070,10983c43-11,107-17,192-17c71-1,128-4,128-8s-22-25-50-47
	c-68-54-145-81-227-81c-74,0-113,18-151,70c-25,34-72,128-72,146c0,6,26-2,58-18C15979,11013,16034,10993,16070,10983z M5216,12759
	c-106-25-232-124-315-246c-55-83-148-270-204-413c-130-333-232-778-273-1193l-6-68l-121-80c-66-44-179-110-251-146
	c-143-71-193-110-202-159c-11-61,45-124,111-124c37,0,203,64,329,127c59,30,109,53,111,51s8-116,14-255c24-549,105-946,248-1202
	c54-98,173-212,264-256c311-147,638,24,730,382c28,111,34,265,16,389c-40,258-135,447-406,808l-109,145l42,6c157,25,368,107,500,196
	c98,67,216,171,285,252l63,74l87,7c47,4,96,10,108,13c23,5,22,5-6-58c-81-179-121-361-102-463c65-352,502-464,765-197l59,60l58-63
	c87-95,220-156,337-156c167,1,365,107,498,268c75,91,167,279,196,403c23,95,24,96,84,152l61,56l7-91c3-50,6-130,6-177
	c0-198,37-470,73-535c45-81,141-111,214-66c51,31,64,68,73,209c5,69,14,158,20,196c28,178,99,373,184,505c46,71,136,170,155,170
	c12,0,37-67,56-153c9-38,29-187,46-330c37-329,46-379,73-420c56-84,177-85,232-3c9,15,19,64,25,122c15,161,75,341,164,494
	c51,87,165,234,193,249c24,13,27,2,42-179c28-343,102-678,191-866c62-131,148-193,250-181c91,11,212,102,224,170
	c18,97-88,177-176,133c-18-9-36-13-40-9c-8,10-43,119-64,201c-30,118-64,347-75,502c-22,322-43,403-124,486c-93,96-209,107-334,32
	c-88-53-188-171-307-362l-18-29l-23,82c-31,107-65,173-121,232c-170,182-387,85-592-265l-39-68l-7,59c-21,197-39,253-95,293
	c-69,49-157,28-215-51c-16-23-59-68-94-100l-65-60l-30,58c-37,71-170,205-249,252c-246,145-491,127-667-49c-97-97-150-218-150-345
	c0-35-8-81-20-112c-24-64-50-207-50-277c0-39-8-64-32-106c-44-77-143-173-194-188c-96-28-189-6-226,52c-57,91,36,399,178,584
	c90,119,101,172,47,226c-42,43-73,42-170-3c-74-34-230-81-269-81c-6,0,3,38,19,88c24,70,30,104,30,177c2,346-266,471-555,259l-49-37
	l17,39c103,235,134,457,88,624C5677,12657,5438,12811,5216,12759z M5372,12460c54-15,104-76,118-145c39-189-97-512-343-814
	c-76-93-206-230-268-282l-46-38l9,57c71,468,257,1020,396,1174C5289,12469,5311,12477,5372,12460z M5994,11655c42-43,33-170-21-274
	c-50-98-58-102-129-65c-77,39-119,92-119,150c0,38,5,49,50,95C5864,11651,5957,11692,5994,11655z M5531,11322c28-59,131-161,187-186
	c23-10,42-23,42-27c0-11-121-111-190-157c-130-86-287-147-459-176c-135-23-202-21-255,7l-43,23l119,99c156,130,384,364,478,492
	l75,102l12-65C5504,11398,5519,11347,5531,11322z M7594,11334c32-16,80-49,106-74c50-47,95-123,87-145c-7-16-143-52-232-60
	c-74-7-206,7-248,26c-27,12-47,47-47,81c0,68,63,166,124,195C7432,11378,7525,11368,7594,11334z M7257,10754c85-21,293-21,376-1
	c35,9,57,11,57,4c0-5-35-44-77-87c-158-156-300-179-381-60c-12,18-26,49-31,69c-17,70-21,91-17,91C7187,10770,7219,10763,7257,10754
	z M4904,10450c176-191,398-542,454-720c62-195,55-392-20-531c-57-108-138-141-232-95c-82,40-128,112-184,286
	c-73,229-132,672-132,991v129h29C4841,10510,4860,10497,4904,10450z M13094,12711c-214-55-378-327-504-834c-22-87-46-207-55-268
	c-28-203-16-493,30-684l14-60l-27-22c-46-39-143-83-181-83c-49,0-76,21-107,82c-46,91-55,160-63,493c-6,272-9,315-25,348
	c-33,68-102,101-166,79c-26-10-35-7-81,23c-164,111-370,77-535-89c-114-115-208-303-239-480c-39-224,0-520,83-641
	c103-149,289-166,416-39c60,61,90,110,181,296c64,130,85,164,85,141c0-53,48-221,80-281c68-128,169-207,297-232
	c106-21,232,11,355,89l62,39l38-39c53-54,129-101,218-134c67-26,88-29,200-29c89,0,144,5,190,17c98,27,254,108,355,185l90,68l37-36
	c104-102,308-162,476-140c113,15,205,63,281,146c103,113,133,202,91,271c-60,100-181,92-263-16c-49-64-103-87-183-77
	c-67,8-140,41-167,77l-19,26l79,104c108,142,171,246,263,434c190,387,248,656,198,915c-41,215-205,335-387,284
	c-240-67-406-389-513-990c-30-168-32-195-33-433l-1-254l-85-64c-210-159-420-205-536-117c-62,47-62,60,2,149
	c244,340,445,822,473,1138c10,101,1,235-19,311c-19,72-75,180-118,228C13311,12691,13185,12734,13094,12711z M13215,12424
	c57-62,79-225,51-376c-21-110-82-287-152-443c-55-121-158-309-195-355l-20-25l4,185c4,139,11,221,31,330c59,333,135,574,213,678
	C13176,12457,13184,12458,13215,12424z M14320,12302c26-95,6-267-51-430c-35-100-161-361-214-442l-35-55l6,55
	c45,415,142,773,239,889C14296,12355,14306,12353,14320,12302z M11838,11536c11-11,8-25-18-87c-45-108-167-339-235-449l-60-95l-8,65
	c-21,160,46,408,140,520C11709,11552,11799,11575,11838,11536z M21215,12137c-190-49-337-250-337-462c-1-96,12-146,60-244l36-74
	l-88-171c-94-184-232-401-256-401c-19,0-65,94-92,191c-21,73-22,99-22,359c1,154,6,325,12,380c16,145-1,200-79,253
	c-73,50-190,8-229-82c-10-23-26-84-35-136c-19-115-100-370-164-517c-100-233-205-332-339-321c-46,4-60,10-83,36
	c-55,61-62,106-68,457c-5,276-8,324-23,351c-69,126-232,123-298-5c-63-124-92-637-46-806c62-226,208-372,407-405
	c225-38,440,64,583,276c42,62,47,67,53,46c3-13,23-58,43-100c162-334,425-408,593-169c85,120,193,317,276,503l37,82l109-90
	c61-49,116-96,124-103c12-11-1-29-82-117c-142-152-204-233-249-327c-50-102-61-188-34-269c75-225,403-319,674-192
	c127,59,246,211,288,368c20,74,19,221-1,297c-17,67-73,190-107,237l-22,31l30,24c35,28,179,100,286,143c87,35,111,62,110,123
	c-1,49-40,94-89,103c-57,11-311-88-445-172c-21-13-43-24-49-24s-43,31-83,68c-39,38-119,110-178,161c-172,148-211,218-177,308
	c16,43,59,83,89,83c35,0,94-43,150-110c99-116,126-140,159-140c21,0,41,9,58,26c23,23,25,31,21,87c-10,122-102,287-205,369
	C21444,12133,21316,12163,21215,12137z M21652,10668c42-112,9-237-80-301c-38-28-52-31-130-35c-96-5-162,13-162,44
	c0,48,70,151,212,312l91,102l25-37C21622,10733,21642,10694,21652,10668z"/>
</svg>
